# onset,offset,note,velocity
0.034058956916099774	9.681950113378685	59	127
0.034058956916099774	4.770907029478458	68	127
0.034058956916099774	8.6718820861678	64	127
1.6942857142857144	2.2399546485260773	71	127
2.25156462585034	2.414104308390023	71	127
2.4257142857142857	4.875419501133787	71	127
5.096009070294785	8.6718820861678	68	127
6.4543764172335605	7.603764172335601	71	127
7.615374149659864	7.812743764172335	71	127
7.847573696145124	7.928843537414966	71	127
7.928843537414966	8.6718820861678	76	127
8.6718820861678	9.647120181405896	71	127
8.6718820861678	9.681950113378685	66	127
8.6718820861678	9.681950113378685	63	127
9.681950113378685	10.517845804988662	64	127
9.681950113378685	10.517845804988662	56	127
9.681950113378685	10.517845804988662	59	127
10.529478458049887	21.187437641723356	59	127
10.529478458049887	18.44748299319728	66	127
10.529478458049887	20.455986394557822	63	127
12.07360544217687	12.596054421768708	71	127
12.60766439909297	12.770204081632652	71	127
12.781814058956916	15.521768707482993	71	127
17.37936507936508	18.203673469387756	71	127
18.215283446712018	18.44748299319728	71	127
18.459092970521542	19.666530612244898	73	127
18.459092970521542	20.455986394557822	66	127
19.666530612244898	20.43278911564626	71	127
20.455986394557822	21.39641723356009	68	127
20.455986394557822	21.39641723356009	65	127
21.40800453514739	26.66734693877551	69	127
21.40800453514739	26.66734693877551	66	127
21.40800453514739	26.446757369614513	61	127
23.021814058956917	23.602312925170068	73	127
23.61392290249433	23.788072562358277	73	127
23.79968253968254	26.446757369614513	73	127
26.66734693877551	31.578367346938776	69	127
26.66734693877551	28.33918367346939	62	127
26.66734693877551	31.578367346938776	66	127
28.33918367346939	29.198321995464852	73	127
28.33918367346939	31.68285714285714	61	127
29.209931972789114	29.279591836734692	73	127
29.291201814058958	29.395691609977323	73	127
29.395691609977323	30.17356009070295	78	127
30.17356009070295	31.241678004535146	73	127
31.926666666666666	40.239410430839	68	127
31.926666666666666	35.560589569160996	66	127
31.926666666666666	43.199931972789116	61	127
33.45918367346939	34.295102040816325	73	127
34.364761904761906	34.53891156462585	73	127
34.55052154195011	37.13954648526077	73	127
35.560589569160996	36.57065759637188	65	127
36.57065759637188	37.3833560090703	63	127
37.39496598639456	42.22471655328798	65	127
39.24095238095238	39.983990929705215	73	127
40.018798185941044	40.11170068027211	73	127
40.12331065759637	40.251020408163264	73	127
40.251020408163264	41.04047619047619	85	127
40.251020408163264	41.04047619047619	68	127
41.04047619047619	42.21310657596372	73	127
41.04047619047619	42.22471655328798	73	127
42.22471655328798	43.199931972789116	71	127
42.22471655328798	43.199931972789116	68	127
43.21156462585034	51.80294784580499	61	127
43.21156462585034	51.80294784580499	70	127
43.21156462585034	51.80294784580499	66	127
44.79052154195011	45.38263038548753	78	127
45.39424036281179	45.55678004535147	78	127
45.626439909297055	47.86716553287982	78	127
50.09628117913832	50.90897959183673	78	127
50.920589569160995	50.99024943310658	78	127
51.0134693877551	51.094739229024945	78	127
51.094739229024945	51.81455782312925	82	127
51.81455782312925	52.53437641723356	70	127
51.81455782312925	52.53437641723356	66	127
51.81455782312925	52.53437641723356	61	127
51.81455782312925	52.778185941043084	78	127
52.789795918367346	53.09165532879818	61	127
52.789795918367346	53.09165532879818	71	127
52.789795918367346	53.09165532879818	68	127
53.63732426303855	57.213197278911565	61	127
53.63732426303855	56.70235827664399	70	127
53.63732426303855	56.70235827664399	73	127
55.123401360544214	56.017369614512475	78	127
56.040589569161	56.19151927437642	78	127
56.21473922902494	58.60639455782313	78	127
57.22480725623583	57.77047619047619	61	127
57.22480725623583	57.77047619047619	71	127
57.22480725623583	57.77047619047619	68	127
57.9562358276644	58.28131519274376	66	127
57.9562358276644	58.28131519274376	70	127
57.9562358276644	58.28131519274376	61	127
58.88503401360544	61.76430839002268	73	127
58.88503401360544	63.20394557823129	70	127
58.88503401360544	63.215555555555554	61	127
60.23179138321996	61.148979591836735	78	127
61.17219954648526	61.2534693877551	78	127
61.27668934240363	61.381179138322	78	127
61.381179138322	62.1009977324263	85	127
62.1009977324263	63.215555555555554	78	127
62.1009977324263	63.20394557823129	78	127
63.215555555555554	64.22562358276645	70	127
63.215555555555554	64.22562358276645	64	127
63.215555555555554	64.22562358276645	74	127
64.33011337868481	69.06698412698412	75	127
64.33011337868481	73.51360544217687	71	127
64.33011337868481	68.7302947845805	63	127
66.00195011337868	66.58242630385487	78	127
66.6056462585034	67.09326530612245	78	127
67.11650793650794	69.17147392290249	78	127
68.7302947845805	69.40367346938775	66	127
69.41528344671202	71.47024943310657	66	127
69.41528344671202	73.52521541950114	75	127
71.47024943310657	72.54997732426304	63	127
71.47024943310657	72.17843537414966	78	127
72.21328798185941	72.53834467120181	78	127
72.54997732426304	74.2914739229025	59	127
72.54997732426304	73.52521541950114	78	127
73.52521541950114	74.2914739229025	65	127
73.52521541950114	74.2914739229025	87	127
73.52521541950114	74.2914739229025	71	127
74.2914739229025	75.58018140589569	70	127
74.2914739229025	75.58018140589569	61	127
74.2914739229025	75.58018140589569	85	127
74.2914739229025	75.58018140589569	66	127
75.59179138321996	80.02678004535147	68	127
75.59179138321996	83.31242630385488	66	127
75.59179138321996	80.14290249433107	61	127
77.19396825396825	78.0066439909297	85	127
78.01827664399093	78.20403628117914	85	127
78.2156462585034	80.14290249433107	85	127
80.38671201814059	83.7768253968254	60	127
80.38671201814059	83.7768253968254	68	127
80.38671201814059	83.31242630385488	63	127
80.38671201814059	83.31242630385488	60	127
82.13981859410431	83.35886621315193	85	127
83.56784580498866	83.71877551020408	85	127
83.7768253968254	85.10036281179138	65	127
83.7768253968254	87.71260770975057	85	127
83.7768253968254	85.10036281179138	61	127
83.7768253968254	85.10036281179138	68	127
83.7768253968254	85.10036281179138	59	127
85.10036281179138	85.76213151927438	66	127
85.10036281179138	85.76213151927438	70	127
85.10036281179138	85.76213151927438	58	127
85.76213151927438	86.93473922902494	68	127
85.76213151927438	86.93473922902494	71	127
85.76213151927438	86.93473922902494	53	127
86.95795918367347	95.86281179138322	66	127
86.95795918367347	89.33800453514739	54	127
86.95795918367347	91.76448979591837	61	127
86.95795918367347	95.53773242630386	70	127
87.71260770975057	88.57174603174603	82	127
88.59496598639456	89.16385487528345	78	127
89.17544217687075	89.32639455782314	78	127
89.33800453514739	91.96183673469388	78	127
89.33800453514739	95.86281179138322	61	127
93.77301587301588	94.96884353741497	78	127
94.98045351473922	95.05011337868481	78	127
95.06172335600907	95.14299319727891	78	127
95.14299319727891	95.87442176870748	82	127
95.87442176870748	96.61746031746031	70	127
95.87442176870748	96.61746031746031	66	127
95.87442176870748	96.61746031746031	61	127
95.87442176870748	96.8148299319728	78	127
96.82643990929705	97.04702947845804	68	127
96.82643990929705	97.04702947845804	61	127
96.82643990929705	97.04702947845804	71	127
97.49981859410431	100.54163265306123	70	127
97.49981859410431	100.54163265306123	73	127
97.49981859410431	101.40077097505669	61	127
99.06716553287981	100.01918367346939	78	127
100.03079365079365	100.18172335600907	78	127
100.19333333333333	102.81718820861678	78	127
101.41238095238096	101.93482993197279	68	127
101.41238095238096	101.93482993197279	71	127
101.41238095238096	101.93482993197279	61	127
102.14380952380952	102.38761904761905	66	127
102.14380952380952	102.38761904761905	70	127
102.14380952380952	102.38761904761905	61	127
103.13065759637188	107.80947845804988	70	127
103.13065759637188	106.18408163265306	73	127
103.13065759637188	106.52077097505669	61	127
104.54707482993197	105.4526530612245	78	127
105.46426303854875	105.70807256235828	78	127
105.77773242630386	105.8590022675737	78	127
105.8590022675737	106.53238095238095	90	127
106.53238095238095	107.82108843537415	78	127
106.53238095238095	107.80947845804988	78	127
106.53238095238095	107.82108843537415	61	127
107.82108843537415	108.68022675736961	73	127
107.82108843537415	108.21582766439909	70	127
107.82108843537415	108.68022675736961	66	127
108.70344671201813	117.039410430839	74	127
108.70344671201813	117.02780045351474	71	127
108.70344671201813	116.79560090702948	66	127
110.30562358276644	110.94417233560091	78	127
110.95578231292517	111.10671201814058	78	127
111.11832199546485	113.7421768707483	78	127
116.1918820861678	116.86526077097506	78	127
116.87687074829932	116.9813605442177	78	127
117.039410430839	119.19886621315193	62	127
117.039410430839	118.02625850340137	78	127
117.039410430839	118.02625850340137	66	127
118.02625850340137	119.19886621315193	74	127
118.02625850340137	119.19886621315193	90	127
118.02625850340137	119.19886621315193	68	127
119.19886621315193	119.94190476190477	73	127
119.19886621315193	119.94190476190477	64	127
119.19886621315193	119.94190476190477	88	127
119.19886621315193	119.94190476190477	69	127
119.96512471655329	125.34054421768707	64	127
119.96512471655329	128.11532879818594	69	127
119.96512471655329	125.00385487528345	71	127
121.28866213151927	122.29873015873015	88	127
122.31034013605442	122.58897959183673	88	127
122.61219954648526	125.11995464852608	88	127
125.34054421768707	128.7074149659864	63	127
125.34054421768707	129.57818594104307	71	127
125.34054421768707	128.11532879818594	66	127
125.34054421768707	128.11532879818594	63	127
127.41873015873016	128.53328798185942	88	127
128.5448979591837	128.64938775510205	88	127
128.7074149659864	131.9930612244898	88	127
128.7074149659864	129.57818594104307	68	127
128.7074149659864	129.57818594104307	62	127
128.7074149659864	131.31968253968253	64	127
129.57818594104307	130.65791383219954	69	127
129.57818594104307	130.65791383219954	61	127
129.57818594104307	130.65791383219954	73	127
130.65791383219954	131.31968253968253	56	127
130.65791383219954	131.31968253968253	74	127
130.65791383219954	131.31968253968253	71	127
131.34290249433107	140.1897052154195	73	127
131.34290249433107	140.1897052154195	64	127
131.34290249433107	140.1897052154195	57	127
131.34290249433107	140.1897052154195	69	127
131.9930612244898	132.9334693877551	85	127
132.95668934240362	133.6184580498866	81	127
133.64167800453515	133.80421768707484	81	127
133.83904761904762	137.07823129251702	81	127
139.04031746031745	139.74850340136055	81	127
139.76013605442176	140.1897052154195	81	127
140.20131519274378	141.0140136054422	81	127
140.20131519274378	141.0140136054422	61	127
140.20131519274378	141.90798185941043	57	127
140.20131519274378	141.0140136054422	73	127
141.0140136054422	141.90798185941043	85	127
141.0140136054422	141.90798185941043	69	127
141.0140136054422	141.90798185941043	63	127
141.90798185941043	142.813537414966	68	127
141.90798185941043	142.813537414966	83	127
141.90798185941043	142.813537414966	64	127
141.90798185941043	142.813537414966	59	127
142.8251700680272	150.4877551020408	64	127
142.8251700680272	147.73619047619047	66	127
142.8251700680272	148.1077097505669	59	127
144.38090702947846	145.11231292517007	83	127
145.1239455782313	145.28648526077097	83	127
145.29809523809524	147.87548752834468	83	127
148.1077097505669	150.4877551020408	61	127
148.1077097505669	150.4877551020408	58	127
148.1077097505669	151.25401360544217	58	127
148.1077097505669	152.29891156462585	66	127
149.62861678004535	150.60385487528345	83	127
150.61546485260772	151.1959410430839	83	127
151.25401360544217	154.9227664399093	59	127
151.25401360544217	152.29891156462585	63	127
151.25401360544217	152.29891156462585	57	127
151.25401360544217	154.19133786848073	83	127
152.29891156462585	153.07678004535148	56	127
152.29891156462585	153.07678004535148	68	127
152.29891156462585	153.07678004535148	64	127
153.07678004535148	154.9227664399093	66	127
153.07678004535148	154.9227664399093	51	127
153.07678004535148	154.9227664399093	69	127
154.202947845805	154.36546485260772	81	127
154.36546485260772	154.78344671201813	80	127
154.78344671201813	154.9227664399093	78	127
154.93437641723355	163.06136054421768	64	127
154.93437641723355	156.06054421768707	52	127
154.93437641723355	155.61936507936508	76	127
154.93437641723355	163.06136054421768	68	127
156.91965986394558	161.84231292517006	59	127
162.1441723356009	164.0946485260771	59	127
163.07297052154195	164.0946485260771	66	127
163.07297052154195	164.0946485260771	63	127
164.0946485260771	164.79122448979592	64	127
164.0946485260771	164.79122448979592	56	127
164.0946485260771	164.79122448979592	59	127
164.80285714285714	173.16204081632654	62	127
164.80285714285714	173.16204081632654	66	127
164.80285714285714	173.16204081632654	59	127
173.1736507936508	173.87024943310658	66	127
173.1736507936508	173.64965986394557	59	127
173.1736507936508	173.87024943310658	62	127
173.87024943310658	174.21854875283447	59	127
173.87024943310658	174.75260770975058	68	127
173.87024943310658	174.75260770975058	65	127
174.76419501133788	182.2526530612245	69	127
174.76419501133788	182.2526530612245	66	127
174.76419501133788	182.83315192743765	57	127
182.26426303854876	183.61102040816326	67	127
182.26426303854876	183.61102040816326	64	127
183.61102040816326	184.47015873015874	66	127
183.61102040816326	184.47015873015874	62	127
183.61102040816326	184.47015873015874	57	127
184.49337868480725	192.4578231292517	66	127
184.49337868480725	192.09791383219954	69	127
184.49337868480725	194.26897959183674	60	127
192.46943310657596	193.44467120181406	64	127
192.46943310657596	193.44467120181406	67	127
193.44467120181406	194.26897959183674	62	127
193.44467120181406	194.26897959183674	66	127
194.280589569161	198.78526077097504	71	127
194.280589569161	199.16839002267574	59	127
194.280589569161	203.48730158730157	67	127
199.16839002267574	202.8603628117914	59	127
199.16839002267574	203.6962811791383	71	127
200.87505668934241	201.8502947845805	71	127
201.86190476190475	202.02444444444444	71	127
202.0360544217687	204.3928798185941	83	127
202.8603628117914	203.70789115646258	62	127
203.70789115646258	204.16068027210883	71	127
203.70789115646258	204.16068027210883	67	127
203.70789115646258	204.5786394557823	64	127
204.59024943310658	213.04231292517008	71	127
204.59024943310658	209.50126984126985	63	127
204.59024943310658	213.84340136054422	69	127
209.50126984126985	213.84340136054422	63	127
211.18471655328798	211.76521541950115	71	127
211.7768253968254	211.9277551020408	71	127
211.95097505668934	213.04231292517008	83	127
213.04231292517008	214.11043083900228	84	127
213.04231292517008	214.11043083900228	72	127
214.11043083900228	215.13210884353742	63	127
214.11043083900228	215.13210884353742	83	127
214.11043083900228	215.13210884353742	71	127
214.11043083900228	215.13210884353742	69	127
215.1669387755102	223.83959183673468	68	127
215.1669387755102	219.93863945578232	71	127
215.1669387755102	220.27532879818594	62	127
220.27532879818594	224.60585034013604	62	127
220.27532879818594	223.83959183673468	71	127
221.95877551020408	222.7366439909297	76	127
222.74825396825398	223.07333333333332	76	127
223.0849433106576	225.2792290249433	88	127
223.83959183673468	224.83804988662132	69	127
223.83959183673468	224.83804988662132	66	127
224.83804988662132	225.5346485260771	64	127
224.83804988662132	225.5346485260771	68	127
224.83804988662132	225.5346485260771	62	127
225.5694784580499	230.09736961451247	61	127
225.5694784580499	230.44566893424036	73	127
225.5694784580499	233.9518820861678	69	127
230.09736961451247	230.81718820861678	64	127
230.81718820861678	233.74290249433108	69	127
230.81718820861678	234.81102040816327	73	127
232.90698412698413	233.78934240362813	76	127
233.80095238095237	233.9518820861678	76	127
233.96349206349205	234.81102040816327	76	127
233.96349206349205	234.81102040816327	61	127
233.96349206349205	235.6121088435374	57	127
234.81102040816327	235.6121088435374	63	127
234.81102040816327	235.6121088435374	69	127
234.81102040816327	235.6121088435374	85	127
235.6121088435374	236.3667573696145	64	127
235.6121088435374	236.3667573696145	83	127
235.6121088435374	236.3667573696145	59	127
235.6121088435374	236.3667573696145	68	127
236.4015873015873	246.16557823129253	66	127
236.4015873015873	242.2414058956916	59	127
236.4015873015873	245.15551020408162	64	127
238.25918367346938	238.82807256235827	71	127
238.83968253968254	239.44340136054421	71	127
239.46662131519275	241.9627664399093	71	127
242.2414058956916	244.60984126984127	58	127
242.2414058956916	245.15551020408162	58	127
242.2414058956916	245.15551020408162	61	127
244.05256235827665	244.71433106575964	73	127
244.7259410430839	245.14390022675738	73	127
245.15551020408162	246.16557823129253	57	127
245.15551020408162	246.16557823129253	75	127
245.15551020408162	246.16557823129253	59	127
245.15551020408162	246.16557823129253	63	127
246.16557823129253	247.23369614512472	59	127
246.16557823129253	247.2104761904762	59	127
246.16557823129253	247.23369614512472	76	127
246.16557823129253	247.23369614512472	64	127
246.16557823129253	247.23369614512472	56	127
247.23369614512472	248.18571428571428	78	127
247.23369614512472	248.18571428571428	63	127
247.23369614512472	248.18571428571428	59	127
247.23369614512472	248.18571428571428	57	127
247.23369614512472	248.18571428571428	59	127
248.7429931972789	260.01628117913833	56	127
248.7429931972789	255.69736961451247	59	127
248.7429931972789	259.69120181405896	64	127
248.7429931972789	250.08975056689343	76	127
252.43496598639456	254.81501133786847	80	127
254.81501133786847	255.69736961451247	78	127
255.69736961451247	256.4055782312925	76	127
255.69736961451247	259.69120181405896	62	127
259.3545124716553	260.01628117913833	76	127
260.01628117913833	260.82897959183674	78	127
260.01628117913833	262.7097732426304	62	127
260.01628117913833	265.12467120181407	64	127
260.01628117913833	265.8792970521542	57	127
260.82897959183674	261.60684807256234	76	127
262.7097732426304	265.12467120181407	61	127
265.12467120181407	266.1463492063492	60	127
265.12467120181407	266.1463492063492	66	127
265.12467120181407	266.1579591836735	84	127
266.1579591836735	269.39714285714285	56	127
266.1579591836735	267.4582766439909	83	127
266.1579591836735	270.38396825396825	59	127
266.1579591836735	269.39714285714285	59	127
267.4698866213152	267.7949659863946	81	127
267.94589569160996	268.2245351473923	80	127
268.5960544217687	268.8863038548753	78	127
268.99079365079365	269.30426303854875	76	127
269.39714285714285	271.0573696145125	54	127
269.39714285714285	269.8267120181406	75	127
269.39714285714285	271.0573696145125	57	127
269.93120181405897	270.2678911564626	73	127
270.38396825396825	271.0573696145125	64	127
270.38396825396825	270.61619047619047	71	127
270.7322902494331	270.9644897959184	69	127
271.0573696145125	272.0558276643991	59	127
271.0573696145125	271.4521088435374	68	127
271.0573696145125	272.0558276643991	63	127
271.0573696145125	272.0558276643991	57	127
271.61462585034013	271.8584580498866	66	127
272.06743764172336	275.8290702947846	64	127
272.06743764172336	272.76403628117913	67	127
272.06743764172336	275.8058276643991	59	127
272.06743764172336	275.8058276643991	56	127
272.76403628117913	273.92503401360545	68	127
275.8290702947846	276.60693877551023	64	127
275.8290702947846	276.60693877551023	56	127
275.8290702947846	276.81591836734697	59	127
276.81591836734697	277.5473469387755	64	127
276.81591836734697	277.5473469387755	56	127
276.81591836734697	278.0001360544218	61	127
276.81591836734697	278.01174603174604	68	127
278.01174603174604	289.71460317460316	64	127
278.01174603174604	278.9289342403628	66	127
278.01174603174604	281.86625850340135	62	127
278.01174603174604	283.4219954648526	56	127
278.9289342403628	279.5790702947846	64	127
281.86625850340135	282.85308390022675	61	127
282.85308390022675	283.75868480725626	60	127
282.85308390022675	284.22308390022675	64	127
284.22308390022675	285.291201814059	66	127
284.22308390022675	287.4506349206349	61	127
284.22308390022675	290.0512925170068	57	127
285.291201814059	286.2315873015873	64	127
287.4506349206349	290.15578231292517	60	127
289.71460317460316	290.92204081632656	66	127
289.71460317460316	291.9901587301587	72	127
290.9336281179138	293.0466666666667	56	127
290.9336281179138	293.0466666666667	59	127
290.9336281179138	295.4266893424036	59	127
291.9901587301587	292.33845804988664	71	127
292.3500680272109	292.60548752834467	69	127
292.70997732426304	292.93056689342404	68	127
293.0466666666667	296.87795918367345	64	127
293.0466666666667	293.4414058956916	66	127
293.0466666666667	296.87795918367345	68	127
293.5807256235828	294.38181405895693	64	127
294.4979138321996	295.4266893424036	59	127
295.4266893424036	296.87795918367345	58	127
295.4266893424036	296.87795918367345	61	127
296.87795918367345	298.01573696145124	63	127
296.87795918367345	298.01573696145124	57	127
296.87795918367345	298.01573696145124	59	127
296.87795918367345	298.01573696145124	66	127
298.0273469387755	299.17673469387756	64	127
298.0273469387755	303.565306122449	56	127
298.0273469387755	303.565306122449	59	127
298.0273469387755	303.71621315192743	64	127
306.15433106575966	306.2704081632653	64	127
306.15433106575966	306.2704081632653	52	127
306.15433106575966	306.2704081632653	40	127
306.3284807256236	306.6419501133787	65	127
306.3284807256236	306.6419501133787	53	127
306.3284807256236	306.6419501133787	41	127
306.6419501133787	306.7232199546485	64	127
306.6419501133787	306.7232199546485	52	127
306.6419501133787	306.7232199546485	40	127
306.7232199546485	306.7928798185941	65	127
306.7232199546485	306.7928798185941	53	127
306.7232199546485	306.7928798185941	41	127
306.7928798185941	306.8625396825397	64	127
306.7928798185941	306.8625396825397	52	127
306.7928798185941	306.8625396825397	40	127
306.8625396825397	306.93219954648526	65	127
306.8625396825397	306.93219954648526	53	127
306.8625396825397	306.93219954648526	41	127
306.93219954648526	307.0134693877551	64	127
306.93219954648526	307.0134693877551	52	127
306.93219954648526	307.0134693877551	40	127
307.0134693877551	307.0831065759637	53	127
307.0134693877551	307.0831065759637	65	127
307.0134693877551	307.0831065759637	41	127
307.0831065759637	307.15278911564627	52	127
307.0831065759637	307.15278911564627	64	127
307.0831065759637	307.15278911564627	40	127
307.15278911564627	307.2340589569161	65	127
307.15278911564627	307.2340589569161	53	127
307.15278911564627	307.2340589569161	41	127
307.2340589569161	307.30371882086166	64	127
307.2340589569161	307.30371882086166	52	127
307.2340589569161	307.30371882086166	40	127
307.30371882086166	307.3965759637188	65	127
307.30371882086166	307.3965759637188	53	127
307.30371882086166	307.3965759637188	41	127
307.3965759637188	307.4894557823129	64	127
307.3965759637188	307.4894557823129	52	127
307.3965759637188	307.4894557823129	40	127
307.4894557823129	307.582358276644	65	127
307.4894557823129	307.582358276644	53	127
307.4894557823129	307.582358276644	41	127
307.582358276644	307.6520181405896	52	127
307.582358276644	307.6520181405896	64	127
307.582358276644	307.6520181405896	40	127
307.6520181405896	307.7332879818594	65	127
307.6520181405896	307.7332879818594	53	127
307.6520181405896	307.7332879818594	41	127
307.7332879818594	307.8261678004535	64	127
307.7332879818594	307.8261678004535	52	127
307.7332879818594	307.8261678004535	40	127
307.8261678004535	307.9074149659864	65	127
307.8261678004535	307.9074149659864	53	127
307.8261678004535	307.9074149659864	41	127
307.9074149659864	308.0583673469388	62	127
307.9074149659864	308.0583673469388	50	127
307.9074149659864	308.0583673469388	38	127
308.0583673469388	308.19768707482996	64	127
308.0583673469388	308.19768707482996	52	127
308.0583673469388	308.19768707482996	40	127
308.2092743764172	308.4995464852608	65	127
308.2092743764172	308.4995464852608	53	127
308.2092743764172	309.2309523809524	65	127
308.2092743764172	309.2309523809524	41	127
308.51113378684806	309.11487528344674	65	127
308.51113378684806	309.11487528344674	56	127
308.51113378684806	309.11487528344674	60	127
309.126462585034	309.69537414965987	60	127
309.126462585034	309.69537414965987	56	127
309.126462585034	309.69537414965987	65	127
309.70698412698414	310.06689342403627	65	127
309.70698412698414	310.06689342403627	60	127
309.70698412698414	310.06689342403627	68	127
309.8695238095238	310.07850340136054	52	127
310.07850340136054	311.0073015873016	53	127
310.3223129251701	310.89120181405895	56	127
310.3223129251701	310.89120181405895	65	127
310.3223129251701	310.89120181405895	60	127
310.9028117913832	311.4949206349206	60	127
310.9028117913832	311.4949206349206	56	127
310.9028117913832	311.4949206349206	65	127
311.5065306122449	311.73873015873016	60	127
311.5065306122449	311.73873015873016	68	127
311.5065306122449	311.73873015873016	65	127
311.6342403628118	311.7619501133787	40	127
311.7619501133787	311.84321995464853	41	127
311.9128798185941	312.040589569161	43	127
312.0057596371882	312.5746485260771	56	127
312.0057596371882	312.5746485260771	60	127
312.0057596371882	312.5746485260771	65	127
312.11024943310656	312.2263492063492	44	127
312.2959863945578	312.42371882086167	41	127
312.481768707483	312.62108843537413	43	127
312.5862585034014	313.1319274376417	65	127
312.5862585034014	313.1319274376417	56	127
312.5862585034014	313.1319274376417	60	127
312.69074829931975	312.8068253968254	44	127
312.8532879818594	312.96938775510205	41	127
313.0390476190476	313.15514739229025	43	127
313.1319274376417	313.37573696145125	72	127
313.1319274376417	313.37573696145125	65	127
313.22478458049886	313.3292970521542	44	127
313.3989569160998	313.9329931972789	41	127
313.3989569160998	313.56149659863945	70	127
313.3989569160998	313.56149659863945	61	127
313.3989569160998	313.56149659863945	65	127
313.5731065759637	313.74725623582765	61	127
313.5731065759637	313.74725623582765	65	127
313.5731065759637	313.74725623582765	70	127
313.7588662131519	313.9329931972789	65	127
313.7588662131519	313.9329931972789	70	127
313.7588662131519	313.9329931972789	61	127
313.9446258503401	314.1303854875284	68	127
313.9446258503401	314.1303854875284	60	127
313.9446258503401	314.1303854875284	65	127
314.14197278911564	314.3393424036281	60	127
314.14197278911564	314.3393424036281	68	127
314.14197278911564	314.3393424036281	65	127
314.246462585034	314.37419501133786	41	127
314.3509750566893	314.40902494331067	68	127
314.3509750566893	314.40902494331067	60	127
314.3509750566893	314.40902494331067	65	127
314.42063492063494	314.60639455782314	67	127
314.42063492063494	314.60639455782314	58	127
314.42063492063494	314.6180045351474	41	127
314.42063492063494	314.60639455782314	65	127
314.6180045351474	314.7689342403628	58	127
314.6180045351474	314.7689342403628	67	127
314.6180045351474	314.7689342403628	65	127
314.68766439909297	314.87342403628116	41	127
314.68766439909297	314.96630385487526	60	127
314.68766439909297	314.96630385487526	72	127
314.78054421768707	314.96630385487526	58	127
314.78054421768707	314.96630385487526	67	127
314.78054421768707	314.96630385487526	65	127
314.97791383219953	315.2565532879819	65	127
314.97791383219953	315.9415419501134	41	127
314.97791383219953	315.2565532879819	56	127
314.97791383219953	315.2565532879819	65	127
314.97791383219953	317.99650793650795	68	127
314.97791383219953	317.99650793650795	80	127
315.26814058956916	315.837052154195	60	127
315.26814058956916	315.837052154195	56	127
315.26814058956916	315.837052154195	65	127
315.8486621315193	316.3826984126984	56	127
315.8486621315193	316.3826984126984	60	127
315.8486621315193	316.3826984126984	65	127
316.3943083900227	316.55687074829933	60	127
316.3943083900227	316.55687074829933	68	127
316.3943083900227	316.55687074829933	65	127
316.4407709750567	316.5684807256236	52	127
316.5684807256236	317.45083900226757	53	127
316.85873015873017	317.33473922902493	65	127
316.85873015873017	317.33473922902493	56	127
316.85873015873017	317.33473922902493	60	127
317.3463492063492	317.8455782312925	65	127
317.3463492063492	317.8455782312925	60	127
317.3463492063492	317.8455782312925	56	127
317.8571882086168	318.14743764172334	68	127
317.8571882086168	318.14743764172334	65	127
317.8571882086168	318.14743764172334	60	127
318.0081179138322	318.1590476190476	40	127
318.0081179138322	318.1009977324263	79	127
318.0081179138322	318.1009977324263	67	127
318.1590476190476	318.71632653061226	79	127
318.1590476190476	318.2867573696145	41	127
318.1590476190476	318.71632653061226	67	127
318.3564172335601	318.4725170068027	43	127
318.4492970521542	318.96013605442175	56	127
318.4492970521542	318.96013605442175	65	127
318.4492970521542	318.96013605442175	60	127
318.5421768707483	318.6582766439909	44	127
318.71632653061226	320.3997732426304	65	127
318.71632653061226	320.3997732426304	77	127
318.71632653061226	318.8324263038549	41	127
318.8788662131519	319.00657596371883	43	127
318.971746031746	319.5290249433107	56	127
318.971746031746	319.5290249433107	65	127
318.971746031746	319.5290249433107	60	127
319.0762358276644	319.2039455782313	44	127
319.27360544217686	319.3897052154195	41	127
319.4361451247166	319.5754648526077	43	127
319.54063492063494	319.6219047619048	72	127
319.54063492063494	319.6219047619048	65	127
319.6219047619048	320.1095238095238	41	127
319.6219047619048	319.78444444444443	70	127
319.6219047619048	319.78444444444443	61	127
319.6219047619048	319.78444444444443	65	127
319.7960544217687	319.9701814058957	65	127
319.7960544217687	319.9701814058957	70	127
319.7960544217687	319.9701814058957	61	127
319.9818140589569	320.1095238095238	61	127
319.9818140589569	320.1095238095238	70	127
319.9818140589569	320.1095238095238	65	127
320.1211337868481	320.3068934240363	65	127
320.1211337868481	320.3068934240363	60	127
320.1211337868481	320.3068934240363	68	127
320.31850340136054	320.50426303854874	68	127
320.31850340136054	320.50426303854874	60	127
320.31850340136054	320.50426303854874	65	127
320.41138321995464	320.6087528344671	79	127
320.41138321995464	320.6087528344671	67	127
320.41138321995464	320.6087528344671	41	127
320.515873015873	320.7132426303855	60	127
320.515873015873	320.7132426303855	68	127
320.515873015873	320.7132426303855	65	127
320.72485260770975	320.91061224489795	67	127
320.72485260770975	320.91061224489795	58	127
320.72485260770975	320.91061224489795	65	127
320.72485260770975	320.9222222222222	80	127
320.72485260770975	320.9222222222222	68	127
320.72485260770975	320.9222222222222	41	127
320.9222222222222	321.08473922902493	67	127
320.9222222222222	321.08473922902493	58	127
320.9222222222222	321.08473922902493	65	127
321.0151020408163	321.13120181405895	82	127
321.0151020408163	321.13120181405895	70	127
321.0151020408163	321.13120181405895	41	127
321.0963492063492	321.22408163265305	67	127
321.0963492063492	321.22408163265305	58	127
321.0963492063492	321.22408163265305	65	127
321.2356916099773	321.49111111111114	65	127
321.2356916099773	321.49111111111114	57	127
321.2356916099773	321.49111111111114	65	127
321.2356916099773	322.1993197278912	41	127
321.2356916099773	324.30072562358276	84	127
321.2356916099773	324.30072562358276	72	127
321.5026984126984	322.08321995464854	65	127
321.5026984126984	322.08321995464854	63	127
321.5026984126984	322.08321995464854	57	127
322.0948299319728	322.6521088435374	65	127
322.0948299319728	322.6521088435374	63	127
322.0948299319728	322.6521088435374	57	127
322.6637188208617	322.89591836734695	63	127
322.6637188208617	322.89591836734695	65	127
322.6637188208617	322.89591836734695	69	127
322.8146485260771	322.9075283446712	52	127
322.9075283446712	323.74342403628117	53	127
323.0932879818594	323.62734693877553	65	127
323.0932879818594	323.62734693877553	63	127
323.0932879818594	323.62734693877553	57	127
323.6389569160998	324.1497959183674	65	127
323.6389569160998	324.1497959183674	57	127
323.6389569160998	324.1497959183674	63	127
324.16138321995464	324.4516553287982	69	127
324.16138321995464	324.4516553287982	63	127
324.16138321995464	324.4516553287982	65	127
324.31233560090703	324.4168253968254	82	127
324.31233560090703	324.4168253968254	70	127
324.31233560090703	324.4516553287982	40	127
324.4516553287982	324.5561451247166	41	127
324.4516553287982	324.927664399093	82	127
324.4516553287982	324.927664399093	70	127
324.62580498866214	324.7419047619048	43	127
324.71868480725624	325.1714739229025	60	127
324.71868480725624	325.1714739229025	65	127
324.71868480725624	325.1714739229025	63	127
324.81156462585034	324.89283446712017	45	127
324.927664399093	326.8084807256236	69	127
324.927664399093	326.8084807256236	81	127
324.927664399093	325.03215419501134	41	127
325.1018140589569	325.21791383219954	43	127
325.1830612244898	325.7403628117914	60	127
325.1830612244898	325.7403628117914	65	127
325.1830612244898	325.7403628117914	63	127
325.25274376417235	325.38043083900226	45	127
325.4501133786848	325.589410430839	41	127
325.6474829931973	325.7635827664399	43	127
325.75197278911565	325.9609523809524	65	127
325.75197278911565	325.9609523809524	72	127
325.75197278911565	325.9609523809524	63	127
325.7751927437642	325.9028798185941	45	127
325.97256235827666	326.15832199546486	63	127
325.97256235827666	326.15832199546486	65	127
325.97256235827666	326.15832199546486	72	127
325.97256235827666	326.52984126984126	41	127
326.16993197278913	326.3556916099773	63	127
326.16993197278913	326.3556916099773	65	127
326.16993197278913	326.3556916099773	72	127
326.3673015873016	326.52984126984126	65	127
326.3673015873016	326.52984126984126	72	127
326.3673015873016	326.52984126984126	63	127
326.5530612244898	326.7272108843537	61	127
326.5530612244898	326.7272108843537	70	127
326.5530612244898	326.7272108843537	65	127
326.738820861678	326.88975056689344	65	127
326.738820861678	326.88975056689344	70	127
326.738820861678	326.88975056689344	61	127
326.8084807256236	326.9942403628118	41	127
326.8084807256236	326.9942403628118	81	127
326.8084807256236	326.9942403628118	69	127
326.9013605442177	327.07551020408164	70	127
326.9013605442177	327.07551020408164	65	127
326.9013605442177	327.07551020408164	61	127
327.0871201814059	327.2728798185941	65	127
327.0871201814059	327.2728798185941	69	127
327.0871201814059	327.2728798185941	60	127
327.0871201814059	327.2844897959184	82	127
327.0871201814059	327.2844897959184	70	127
327.0871201814059	327.2844897959184	42	127
327.2844897959184	327.48185941043084	65	127
327.2844897959184	327.48185941043084	69	127
327.2844897959184	327.48185941043084	60	127
327.38897959183674	327.5515192743764	84	127
327.38897959183674	327.5515192743764	72	127
327.38897959183674	327.5515192743764	41	127
327.4934693877551	327.6443990929705	69	127
327.4934693877551	327.6443990929705	65	127
327.4934693877551	327.6443990929705	60	127
327.6560090702948	328.20167800453515	82	127
327.6560090702948	328.20167800453515	70	127
327.6560090702948	328.5848072562358	46	127
327.92303854875286	328.4687074829932	61	127
327.92303854875286	328.4687074829932	70	127
327.92303854875286	328.4687074829932	65	127
328.20167800453515	329.0840362811791	73	127
328.20167800453515	329.0840362811791	85	127
328.48031746031745	328.93310657596373	70	127
328.48031746031745	328.93310657596373	65	127
328.48031746031745	328.93310657596373	61	127
328.944716553288	329.23496598639457	73	127
328.944716553288	329.23496598639457	70	127
328.944716553288	329.23496598639457	65	127
329.0956462585034	329.20013605442176	65	127
329.0956462585034	329.20013605442176	77	127
329.0956462585034	329.24657596371884	45	127
329.24657596371884	329.79224489795916	66	127
329.24657596371884	329.3626757369615	46	127
329.24657596371884	329.79224489795916	78	127
329.43233560090704	329.5484353741497	48	127
329.5368253968254	330.0708843537415	66	127
329.5368253968254	330.0708843537415	61	127
329.5368253968254	330.0708843537415	58	127
329.60648526077097	329.7225850340136	49	127
329.79224489795916	330.7326530612245	82	127
329.79224489795916	329.9199546485261	46	127
329.79224489795916	330.7326530612245	70	127
329.9895918367347	330.11732426303854	48	127
330.0824716553288	330.61655328798184	58	127
330.0824716553288	330.61655328798184	66	127
330.0824716553288	330.61655328798184	61	127
330.18696145124716	330.314693877551	49	127
330.3843537414966	330.52367346938775	46	127
330.59331065759636	330.6629931972789	48	127
330.6281632653061	330.8139229024943	66	127
330.6281632653061	330.8139229024943	70	127
330.6281632653061	330.8139229024943	61	127
330.7326530612245	330.755873015873	49	127
330.7326530612245	330.77909297052156	77	127
330.7326530612245	330.77909297052156	65	127
330.8255328798186	331.37120181405896	76	127
330.8255328798186	330.9880725623583	64	127
330.8255328798186	330.9880725623583	72	127
330.8255328798186	330.9880725623583	67	127
330.8255328798186	331.37120181405896	64	127
330.8255328798186	331.3595918367347	48	127
330.99968253968257	331.18544217687077	67	127
330.99968253968257	331.18544217687077	64	127
330.99968253968257	331.18544217687077	72	127
331.19705215419503	331.3595918367347	64	127
331.19705215419503	331.3595918367347	72	127
331.19705215419503	331.3595918367347	67	127
331.37120181405896	331.5453514739229	68	127
331.37120181405896	332.9385487528345	84	127
331.37120181405896	331.5453514739229	65	127
331.37120181405896	331.5453514739229	72	127
331.37120181405896	332.9385487528345	72	127
331.55696145124716	331.74272108843536	68	127
331.55696145124716	331.74272108843536	65	127
331.55696145124716	331.74272108843536	72	127
331.66145124716553	331.84721088435373	37	127
331.75433106575963	331.9284580498866	68	127
331.75433106575963	331.9284580498866	72	127
331.75433106575963	331.9284580498866	65	127
331.9400907029478	332.13743764172335	70	127
331.9400907029478	332.14907029478456	36	127
331.9400907029478	332.13743764172335	67	127
331.9400907029478	332.13743764172335	72	127
332.14907029478456	332.2767800453515	67	127
332.14907029478456	332.2767800453515	72	127
332.14907029478456	332.2767800453515	70	127
332.19551020408164	332.38126984126984	40	127
332.28839002267574	332.47414965986394	72	127
332.28839002267574	332.47414965986394	67	127
332.28839002267574	332.47414965986394	70	127
332.47414965986394	332.69473922902495	68	127
332.47414965986394	332.69473922902495	65	127
332.47414965986394	332.69473922902495	72	127
332.47414965986394	333.32167800453516	41	127
332.7063492063492	333.2171882086168	65	127
332.7063492063492	333.2171882086168	68	127
332.7063492063492	333.2171882086168	60	127
332.95013605442176	333.22879818594106	70	127
332.95013605442176	333.22879818594106	82	127
333.22879818594106	333.35648526077097	68	127
333.22879818594106	333.35648526077097	80	127
333.22879818594106	333.8092970521542	60	127
333.22879818594106	333.8092970521542	68	127
333.22879818594106	333.8092970521542	65	127
333.5190476190476	333.82090702947846	79	127
333.5190476190476	333.82090702947846	67	127
333.82090702947846	334.0763038548753	68	127
333.82090702947846	333.96022675736964	77	127
333.82090702947846	333.96022675736964	65	127
333.82090702947846	334.0763038548753	72	127
333.82090702947846	334.0763038548753	65	127
333.96022675736964	334.0763038548753	52	127
334.0879365079365	334.61038548752833	77	127
334.0879365079365	334.6219954648526	65	127
334.0879365079365	335.00512471655327	53	127
334.3781632653061	334.91224489795917	65	127
334.3781632653061	334.91224489795917	60	127
334.3781632653061	334.91224489795917	56	127
334.6219954648526	335.5624036281179	68	127
334.6219954648526	335.5624036281179	80	127
334.92385487528344	335.4114739229025	60	127
334.92385487528344	335.4114739229025	56	127
334.92385487528344	335.4114739229025	65	127
335.42308390022674	335.7249433106576	60	127
335.42308390022674	335.7249433106576	65	127
335.42308390022674	335.7249433106576	68	127
335.58562358276646	335.6901133786848	72	127
335.58562358276646	335.6901133786848	60	127
335.58562358276646	335.73655328798185	40	127
335.73655328798185	336.2473922902494	61	127
335.73655328798185	335.86426303854876	41	127
335.73655328798185	336.2473922902494	73	127
335.9339229024943	336.0732426303855	43	127
336.0384126984127	336.5144217687075	61	127
336.0384126984127	336.5144217687075	53	127
336.0384126984127	336.5144217687075	56	127
336.14290249433105	336.18934240362813	44	127
336.2473922902494	337.1181405895692	65	127
336.2473922902494	337.1181405895692	77	127
336.2473922902494	336.37510204081633	41	127
336.4331292517007	336.537641723356	43	127
336.5260090702948	336.9904308390023	61	127
336.5260090702948	336.9904308390023	53	127
336.5260090702948	336.9904308390023	56	127
336.59569160997734	336.7349886621315	44	127
336.7930612244898	336.932358276644	41	127
336.932358276644	337.03684807256235	43	127
337.00204081632654	337.26907029478457	56	127
337.00204081632654	337.26907029478457	61	127
337.00204081632654	337.26907029478457	65	127
337.08331065759637	337.2110204081633	44	127
337.12975056689345	337.2342403628118	72	127
337.12975056689345	337.2342403628118	60	127
337.28068027210884	337.46643990929704	62	127
337.28068027210884	337.46643990929704	59	127
337.28068027210884	337.46643990929704	67	127
337.28068027210884	337.46643990929704	55	127
337.28068027210884	337.8960090702948	71	127
337.28068027210884	337.8960090702948	59	127
337.28068027210884	338.2443083900227	43	127
337.4780498866213	337.6754195011338	62	127
337.4780498866213	337.6754195011338	55	127
337.4780498866213	337.6754195011338	67	127
337.4780498866213	337.6754195011338	59	127
337.68702947845804	337.8843990929705	62	127
337.68702947845804	337.8843990929705	59	127
337.68702947845804	337.8843990929705	55	127
337.68702947845804	337.8843990929705	67	127
337.8960090702948	338.0701587301587	63	127
337.8960090702948	339.32403628117913	79	127
337.8960090702948	338.0701587301587	60	127
337.8960090702948	338.0701587301587	67	127
337.8960090702948	338.0701587301587	55	127
337.8960090702948	339.32403628117913	67	127
338.081768707483	338.2326984126984	63	127
338.081768707483	338.2326984126984	67	127
338.081768707483	338.2326984126984	60	127
338.081768707483	338.2326984126984	55	127
338.2443083900227	338.4300680272109	55	127
338.2443083900227	338.4300680272109	63	127
338.2443083900227	338.4300680272109	60	127
338.2443083900227	338.4300680272109	67	127
338.45328798185943	338.522947845805	55	127
338.45328798185943	338.522947845805	65	127
338.45328798185943	338.522947845805	62	127
338.45328798185943	338.522947845805	67	127
338.522947845805	338.68548752834465	55	127
338.522947845805	338.68548752834465	65	127
338.522947845805	338.68548752834465	62	127
338.522947845805	338.68548752834465	67	127
338.6970975056689	338.8364172335601	67	127
338.6970975056689	338.8364172335601	62	127
338.6970975056689	338.8364172335601	55	127
338.6970975056689	338.8364172335601	65	127
338.743537414966	338.84802721088437	44	127
338.84802721088437	339.1034467120181	63	127
338.84802721088437	339.1034467120181	55	127
338.84802721088437	339.1034467120181	67	127
338.84802721088437	338.964126984127	43	127
338.84802721088437	339.1034467120181	67	127
339.010566893424	339.1498866213152	47	127
339.1150566893424	339.62589569160997	60	127
339.1150566893424	339.62589569160997	63	127
339.1150566893424	339.62589569160997	55	127
339.1963265306122	339.2891836734694	48	127
339.3356462585034	339.63750566893424	77	127
339.3356462585034	339.4633560090703	43	127
339.3356462585034	339.63750566893424	65	127
339.53301587301587	339.6607256235828	47	127
339.63750566893424	339.7884353741497	75	127
339.63750566893424	339.7884353741497	63	127
339.63750566893424	340.1947845804989	55	127
339.63750566893424	340.1947845804989	63	127
339.63750566893424	340.1947845804989	60	127
339.7419954648526	339.8813151927438	48	127
339.9393650793651	340.20637188208616	62	127
339.9393650793651	340.20637188208616	74	127
339.9393650793651	340.0554648526077	43	127
340.11349206349206	340.2412244897959	47	127
340.20637188208616	340.48503401360546	60	127
340.20637188208616	340.3457142857143	72	127
340.20637188208616	340.3457142857143	60	127
340.20637188208616	340.48503401360546	67	127
340.20637188208616	340.48503401360546	63	127
340.3108616780045	340.4385941043084	48	127
340.4966439909297	340.6824036281179	62	127
340.4966439909297	340.6824036281179	55	127
340.4966439909297	341.1003628117914	62	127
340.4966439909297	341.11197278911567	74	127
340.4966439909297	341.5067120181406	47	127
340.4966439909297	340.6824036281179	65	127
340.6940136054422	340.89138321995466	62	127
340.6940136054422	340.89138321995466	55	127
340.6940136054422	340.89138321995466	65	127
340.90299319727893	341.1003628117914	65	127
340.90299319727893	341.1003628117914	55	127
340.90299319727893	341.1003628117914	62	127
341.11197278911567	341.2861224489796	55	127
341.11197278911567	341.2861224489796	67	127
341.11197278911567	342.49356009070294	79	127
341.11197278911567	342.49356009070294	67	127
341.11197278911567	341.2861224489796	63	127
341.29773242630387	341.49510204081633	67	127
341.29773242630387	341.49510204081633	55	127
341.29773242630387	341.49510204081633	63	127
341.5067120181406	341.6460090702948	67	127
341.5067120181406	341.6460090702948	55	127
341.5067120181406	341.6460090702948	63	127
341.6460090702948	341.80857142857144	55	127
341.6460090702948	341.80857142857144	68	127
341.6460090702948	341.80857142857144	65	127
341.8201814058957	341.9130612244898	55	127
341.8201814058957	341.9130612244898	65	127
341.8201814058957	341.9130612244898	68	127
341.9130612244898	342.052358276644	65	127
341.9130612244898	342.052358276644	68	127
341.9130612244898	342.052358276644	55	127
341.9130612244898	342.0639909297052	47	127
342.0639909297052	342.24972789115645	55	127
342.0639909297052	342.16848072562357	48	127
342.0639909297052	342.24972789115645	67	127
342.0639909297052	342.24972789115645	63	127
342.1917006802721	342.2961904761905	50	127
342.26136054421767	342.7838095238095	63	127
342.26136054421767	342.7838095238095	55	127
342.26136054421767	342.7838095238095	60	127
342.36585034013603	342.4703401360544	51	127
342.5051700680272	342.6328798185941	48	127
342.5051700680272	342.7954195011338	77	127
342.5051700680272	342.7954195011338	65	127
342.7025396825397	342.7954195011338	50	127
342.7954195011338	343.35269841269843	60	127
342.7954195011338	342.9115192743764	75	127
342.7954195011338	342.9115192743764	63	127
342.7954195011338	343.35269841269843	55	127
342.7954195011338	343.35269841269843	63	127
342.8650566893424	343.0043990929705	51	127
343.07403628117913	343.3643083900227	74	127
343.07403628117913	343.3643083900227	62	127
343.07403628117913	343.201768707483	48	127
343.2714058956916	343.39913832199545	50	127
343.3643083900227	343.65455782312927	60	127
343.3643083900227	343.5152380952381	72	127
343.3643083900227	343.5152380952381	60	127
343.3643083900227	343.65455782312927	67	127
343.48038548752834	343.5965079365079	51	127
343.66616780045354	344.2350566893424	72	127
343.66616780045354	343.85192743764173	60	127
343.66616780045354	343.85192743764173	70	127
343.66616780045354	343.85192743764173	67	127
343.66616780045354	344.22344671201813	84	127
343.66616780045354	344.5949659863946	52	127
343.8751473922903	344.06090702947847	70	127
343.8751473922903	344.06090702947847	60	127
343.8751473922903	344.06090702947847	67	127
344.07251700680274	344.22344671201813	70	127
344.07251700680274	344.22344671201813	67	127
344.07251700680274	344.22344671201813	60	127
344.2350566893424	344.3975736961451	65	127
344.2350566893424	345.674693877551	73	127
344.2350566893424	344.3975736961451	61	127
344.2350566893424	344.3975736961451	68	127
344.2350566893424	345.674693877551	85	127
344.40920634920633	344.5833560090703	68	127
344.40920634920633	344.5833560090703	61	127
344.40920634920633	344.5833560090703	65	127
344.5949659863946	344.79233560090705	65	127
344.5949659863946	344.79233560090705	61	127
344.5949659863946	344.79233560090705	68	127
344.79233560090705	344.9316553287982	64	127
344.79233560090705	344.9316553287982	61	127
344.79233560090705	344.9316553287982	67	127
344.94326530612244	345.0477551020408	64	127
344.94326530612244	345.0477551020408	61	127
344.94326530612244	345.0477551020408	67	127
345.0477551020408	345.1173922902494	64	127
345.0477551020408	345.1173922902494	61	127
345.0477551020408	345.1173922902494	67	127
345.12902494331064	345.407664399093	70	127
345.12902494331064	345.407664399093	67	127
345.12902494331064	345.2683446712018	40	127
345.12902494331064	345.407664399093	60	127
345.32637188208616	345.4308843537415	41	127
345.407664399093	345.9649433106576	67	127
345.407664399093	345.9649433106576	70	127
345.407664399093	345.9649433106576	60	127
345.5005442176871	345.61664399092973	43	127
345.6863038548753	345.97655328798186	84	127
345.6863038548753	345.80240362811793	40	127
345.6863038548753	345.97655328798186	72	127
345.8720634920635	346.01138321995467	41	127
345.97655328798186	346.4990022675737	67	127
345.97655328798186	346.11587301587304	82	127
345.97655328798186	346.11587301587304	70	127
345.97655328798186	346.4990022675737	60	127
345.97655328798186	346.4990022675737	70	127
346.06943310657596	346.19714285714286	43	127
346.2668027210884	346.3712925170068	40	127
346.2668027210884	346.52222222222224	80	127
346.2668027210884	346.52222222222224	68	127
346.4409297052154	346.5454195011338	41	127
346.52222222222224	346.64990929705215	79	127
346.52222222222224	346.64990929705215	67	127
346.52222222222224	346.777641723356	67	127
346.52222222222224	346.777641723356	72	127
346.52222222222224	346.777641723356	70	127
346.61510204081634	346.731201814059	43	127
346.78925170068027	349.83106575963717	68	127
346.78925170068027	347.6948299319728	41	127
346.78925170068027	349.83106575963717	80	127
347.0446712018141	347.61356009070295	68	127
347.0446712018141	347.61356009070295	61	127
347.0446712018141	347.61356009070295	65	127
347.6251700680272	348.1360090702948	65	127
347.6251700680272	348.1360090702948	68	127
347.6251700680272	348.1360090702948	61	127
348.14761904761906	348.4030385487528	73	127
348.14761904761906	348.4030385487528	65	127
348.14761904761906	348.4030385487528	68	127
348.4030385487528	348.51913832199546	41	127
348.5887755102041	348.7165079365079	43	127
348.6816780045352	349.2273469387755	61	127
348.6816780045352	349.2273469387755	68	127
348.6816780045352	349.2273469387755	65	127
348.78616780045354	348.9138775510204	44	127
348.97192743764174	349.0764172335601	41	127
349.1344671201814	349.2621768707483	43	127
349.23895691609977	349.81943310657596	61	127
349.23895691609977	349.81943310657596	65	127
349.23895691609977	349.81943310657596	68	127
349.33183673469387	349.4595464852608	44	127
349.52920634920633	349.65691609977324	41	127
349.7265759637188	349.8542857142857	43	127
349.83106575963717	350.1212925170068	68	127
349.83106575963717	350.1212925170068	65	127
349.83106575963717	350.1212925170068	73	127
349.9471655328798	350.086485260771	44	127
350.13290249433106	351.1197732426304	42	127
350.13290249433106	350.2374149659864	81	127
350.13290249433106	350.2374149659864	69	127
350.13290249433106	350.33027210884353	72	127
350.13290249433106	350.33027210884353	60	127
350.2374149659864	350.34190476190474	70	127
350.2374149659864	350.34190476190474	82	127
350.34190476190474	350.4347619047619	69	127
350.34190476190474	350.53925170068027	72	127
350.34190476190474	350.53925170068027	60	127
350.34190476190474	350.4347619047619	81	127
350.4347619047619	350.5508843537415	82	127
350.4347619047619	350.5508843537415	70	127
350.5508843537415	350.65537414965985	81	127
350.5508843537415	350.65537414965985	69	127
350.5508843537415	350.72503401360547	72	127
350.5508843537415	350.72503401360547	60	127
350.65537414965985	350.73662131519274	70	127
350.65537414965985	350.73662131519274	82	127
350.73662131519274	350.82952380952383	69	127
350.73662131519274	350.91079365079366	74	127
350.73662131519274	350.91079365079366	62	127
350.73662131519274	350.82952380952383	81	127
350.82952380952383	350.92240362811793	70	127
350.82952380952383	350.92240362811793	82	127
350.92240362811793	351.01528344671203	69	127
350.92240362811793	351.10816326530613	74	127
350.92240362811793	351.10816326530613	62	127
350.92240362811793	351.01528344671203	81	127
351.01528344671203	351.1197732426304	70	127
351.01528344671203	351.1197732426304	82	127
351.1197732426304	351.2126530612245	81	127
351.1197732426304	351.2126530612245	69	127
351.1197732426304	351.3055328798186	74	127
351.1197732426304	351.3055328798186	62	127
351.2126530612245	351.31714285714287	82	127
351.2126530612245	351.31714285714287	70	127
351.31714285714287	351.3519501133787	81	127
351.31714285714287	351.3519501133787	69	127
351.31714285714287	351.3519501133787	75	127
351.31714285714287	351.3519501133787	63	127
351.3519501133787	351.3635827664399	82	127
351.3519501133787	351.3635827664399	70	127
351.3635827664399	351.4912925170068	75	127
351.3635827664399	351.41002267573697	81	127
351.3635827664399	351.41002267573697	69	127
351.3635827664399	351.4912925170068	63	127
351.41002267573697	351.50290249433107	70	127
351.41002267573697	351.50290249433107	82	127
351.50290249433107	351.68866213151927	63	127
351.50290249433107	351.68866213151927	75	127
351.50290249433107	351.60739229024944	81	127
351.50290249433107	351.60739229024944	69	127
351.5609297052154	351.7118820861678	53	127
351.60739229024944	351.7118820861678	82	127
351.60739229024944	351.7118820861678	70	127
351.7118820861678	352.64068027210885	54	127
351.7118820861678	351.8047619047619	81	127
351.7118820861678	351.8047619047619	69	127
351.8047619047619	351.9092517006803	70	127
351.8047619047619	351.9092517006803	82	127
351.9092517006803	351.9905215419501	69	127
351.9092517006803	351.9905215419501	81	127
351.9905215419501	352.09501133786847	70	127
351.9905215419501	352.18789115646257	75	127
351.9905215419501	352.18789115646257	63	127
351.9905215419501	352.09501133786847	82	127
352.09501133786847	352.18789115646257	69	127
352.09501133786847	352.18789115646257	81	127
352.18789115646257	352.28077097505667	70	127
352.18789115646257	352.28077097505667	82	127
352.28077097505667	352.559410430839	62	127
352.28077097505667	352.3736281179138	81	127
352.28077097505667	352.3736281179138	69	127
352.28077097505667	352.559410430839	74	127
352.3736281179138	352.45492063492065	70	127
352.3736281179138	352.45492063492065	82	127
352.45492063492065	352.559410430839	81	127
352.45492063492065	352.559410430839	69	127
352.559410430839	352.64068027210885	82	127
352.559410430839	352.64068027210885	70	127
352.559410430839	352.79160997732424	75	127
352.559410430839	352.79160997732424	63	127
352.64068027210885	352.7219501133787	69	127
352.64068027210885	352.7219501133787	81	127
352.7219501133787	352.8032199546485	82	127
352.7219501133787	352.8032199546485	70	127
352.8032199546485	352.8844671201814	81	127
352.8032199546485	353.0354195011338	75	127
352.8032199546485	353.0354195011338	63	127
352.8032199546485	352.8844671201814	69	127
352.8844671201814	352.9309297052154	82	127
352.8844671201814	352.9309297052154	70	127
352.9309297052154	353.0354195011338	81	127
352.9309297052154	353.0354195011338	69	127
353.0354195011338	353.1282993197279	70	127
353.0354195011338	353.1282993197279	82	127
353.0354195011338	353.3024489795918	77	127
353.0354195011338	353.3024489795918	65	127
353.1282993197279	353.23278911564626	79	127
353.1282993197279	353.23278911564626	67	127
353.18634920634923	353.32566893424035	42	127
353.23278911564626	353.3024489795918	69	127
353.23278911564626	353.3024489795918	81	127
353.32566893424035	353.6042857142857	63	127
353.32566893424035	354.3009070294785	43	127
353.32566893424035	355.427074829932	82	127
353.32566893424035	353.6042857142857	75	127
353.32566893424035	355.427074829932	70	127
353.6159183673469	354.18480725623584	67	127
353.6159183673469	354.18480725623584	70	127
353.6159183673469	354.18480725623584	63	127
354.1964172335601	354.5679365079365	67	127
354.1964172335601	354.5679365079365	70	127
354.1964172335601	354.5679365079365	63	127
354.5795464852608	354.8349433106576	75	127
354.5795464852608	354.8349433106576	70	127
354.5795464852608	354.8349433106576	67	127
354.8465759637188	354.9742857142857	43	127
355.03231292517006	355.1600453514739	45	127
355.12521541950116	355.7057142857143	67	127
355.12521541950116	355.7057142857143	63	127
355.12521541950116	355.7057142857143	70	127
355.22970521541953	355.3574149659864	46	127
355.427074829932	356.18172335600906	82	127
355.427074829932	355.5663945578231	43	127
355.427074829932	356.18172335600906	70	127
355.62444444444446	355.75213151927437	45	127
355.71732426303856	356.18172335600906	67	127
355.71732426303856	356.18172335600906	70	127
355.71732426303856	356.18172335600906	63	127
355.82181405895693	355.93791383219957	46	127
356.00757369614513	356.13528344671204	43	127
356.18172335600906	356.3442630385488	75	127
356.18172335600906	356.3442630385488	70	127
356.18172335600906	356.3442630385488	67	127
356.18172335600906	356.2862131519274	46	127
356.35587301587304	356.44875283446714	71	127
356.35587301587304	356.44875283446714	83	127
356.35587301587304	357.3659410430839	44	127
356.35587301587304	356.54163265306124	74	127
356.35587301587304	356.54163265306124	62	127
356.44875283446714	356.5532426303855	84	127
356.44875283446714	356.5532426303855	72	127
356.5532426303855	356.6461224489796	83	127
356.5532426303855	356.6461224489796	71	127
356.5532426303855	356.72739229024944	74	127
356.5532426303855	356.72739229024944	62	127
356.6461224489796	356.7390022675737	84	127
356.6461224489796	356.7390022675737	72	127
356.7390022675737	356.8434920634921	83	127
356.7390022675737	356.8434920634921	71	127
356.7390022675737	356.9363718820862	74	127
356.7390022675737	356.9363718820862	62	127
356.8434920634921	356.94798185941045	84	127
356.8434920634921	356.94798185941045	72	127
356.94798185941045	357.0524716553288	83	127
356.94798185941045	357.0524716553288	71	127
356.94798185941045	357.13374149659865	76	127
356.94798185941045	357.13374149659865	64	127
357.0524716553288	357.1569614512472	84	127
357.0524716553288	357.1569614512472	72	127
357.1569614512472	357.26145124716555	83	127
357.1569614512472	357.26145124716555	71	127
357.1569614512472	357.35433106575965	76	127
357.1569614512472	357.35433106575965	64	127
357.26145124716555	357.3659410430839	84	127
357.26145124716555	357.3659410430839	72	127
357.3659410430839	357.5517006802721	76	127
357.3659410430839	357.458820861678	83	127
357.3659410430839	357.458820861678	71	127
357.3659410430839	357.5517006802721	64	127
357.458820861678	357.5633106575964	72	127
357.458820861678	357.5633106575964	84	127
357.5633106575964	357.72585034013605	65	127
357.5633106575964	357.6445804988662	83	127
357.5633106575964	357.6445804988662	71	127
357.5633106575964	357.72585034013605	77	127
357.6445804988662	357.7374603174603	84	127
357.6445804988662	357.7374603174603	72	127
357.7374603174603	357.7839002267574	77	127
357.7374603174603	357.76068027210886	83	127
357.7374603174603	357.76068027210886	71	127
357.7374603174603	357.7839002267574	65	127
357.76068027210886	357.79548752834467	72	127
357.76068027210886	357.79548752834467	84	127
357.79548752834467	357.9580498866213	77	127
357.79548752834467	357.8767800453515	83	127
357.79548752834467	357.8767800453515	71	127
357.79548752834467	357.9580498866213	65	127
357.8303401360544	357.9580498866213	57	127
357.8767800453515	357.9580498866213	72	127
357.8767800453515	357.9580498866213	84	127
357.9580498866213	358.77074829931973	56	127
357.9580498866213	358.0160997732426	84	127
357.9580498866213	358.0160997732426	72	127
358.0160997732426	358.1089795918367	83	127
358.0160997732426	358.1089795918367	71	127
358.1089795918367	358.29473922902497	77	127
358.1089795918367	358.20183673469387	84	127
358.1089795918367	358.20183673469387	72	127
358.1089795918367	358.29473922902497	65	127
358.20183673469387	358.29473922902497	83	127
358.20183673469387	358.29473922902497	71	127
358.29473922902497	358.3760090702948	72	127
358.29473922902497	358.3760090702948	84	127
358.3760090702948	358.48049886621317	83	127
358.3760090702948	358.48049886621317	71	127
358.3760090702948	358.67786848072564	76	127
358.3760090702948	358.67786848072564	64	127
358.48049886621317	358.58498866213154	84	127
358.48049886621317	358.58498866213154	72	127
358.58498866213154	358.67786848072564	83	127
358.58498866213154	358.67786848072564	71	127
358.67786848072564	358.77074829931973	84	127
358.67786848072564	358.77074829931973	72	127
358.67786848072564	358.9332879818594	77	127
358.67786848072564	358.9332879818594	65	127
358.77074829931973	358.85201814058956	83	127
358.77074829931973	358.85201814058956	71	127
358.85201814058956	358.94489795918366	84	127
358.85201814058956	358.94489795918366	72	127
358.94489795918366	359.16548752834467	77	127
358.94489795918366	359.04938775510203	83	127
358.94489795918366	359.04938775510203	71	127
358.94489795918366	359.16548752834467	65	127
359.04938775510203	359.08421768707484	84	127
359.04938775510203	359.08421768707484	72	127
359.08421768707484	359.16548752834467	83	127
359.08421768707484	359.16548752834467	71	127
359.16548752834467	359.45573696145124	79	127
359.16548752834467	359.25836734693877	84	127
359.16548752834467	359.25836734693877	72	127
359.16548752834467	359.45573696145124	67	127
359.25836734693877	359.36285714285714	81	127
359.25836734693877	359.36285714285714	69	127
359.3164172335601	359.4673469387755	44	127
359.36285714285714	359.45573696145124	71	127
359.36285714285714	359.45573696145124	83	127
359.4673469387755	361.59197278911563	84	127
359.4673469387755	359.7343537414966	65	127
359.4673469387755	361.59197278911563	72	127
359.4673469387755	359.7343537414966	77	127
359.4673469387755	360.4541723356009	45	127
359.7575963718821	360.326485260771	69	127
359.7575963718821	360.326485260771	72	127
359.7575963718821	360.326485260771	65	127
360.33809523809526	360.81410430839003	69	127
360.33809523809526	360.81410430839003	72	127
360.33809523809526	360.81410430839003	65	127
360.81410430839003	361.0463038548753	69	127
360.81410430839003	361.0463038548753	72	127
360.81410430839003	361.0463038548753	77	127
361.0579138321996	361.1856235827664	45	127
361.25528344671204	361.3829931972789	47	127
361.3597732426304	361.8357823129252	65	127
361.3597732426304	361.8357823129252	69	127
361.3597732426304	361.8357823129252	72	127
361.42943310657597	361.53392290249434	48	127
361.59197278911563	362.4162811791383	84	127
361.59197278911563	362.4162811791383	72	127
361.59197278911563	361.71968253968254	45	127
361.7661224489796	361.870612244898	47	127
361.84739229024945	362.30018140589567	69	127
361.84739229024945	362.30018140589567	72	127
361.84739229024945	362.30018140589567	65	127
361.9286621315193	362.0215419501134	48	127
362.091179138322	362.19566893424036	45	127
362.2305215419501	362.34662131519275	47	127
362.31179138321994	362.5904308390023	72	127
362.31179138321994	362.5904308390023	69	127
362.31179138321994	362.5904308390023	77	127
362.4162811791383	362.53238095238095	48	127
362.60201814058956	363.4960090702948	47	127
362.60201814058956	362.6717006802721	86	127
362.60201814058956	362.6717006802721	74	127
362.60201814058956	362.7413605442177	77	127
362.60201814058956	362.7413605442177	65	127
362.6717006802721	362.75297052154195	87	127
362.6717006802721	362.75297052154195	75	127
362.75297052154195	362.89229024943313	77	127
362.75297052154195	362.8342403628118	86	127
362.75297052154195	362.8342403628118	74	127
362.75297052154195	362.89229024943313	65	127
362.8342403628118	362.9038775510204	87	127
362.8342403628118	362.9038775510204	75	127
362.9038775510204	363.00836734693877	86	127
362.9038775510204	363.00836734693877	74	127
362.9038775510204	363.0896598639456	77	127
362.9038775510204	363.0896598639456	65	127
363.00836734693877	363.10126984126987	87	127
363.00836734693877	363.10126984126987	75	127
363.10126984126987	363.19414965986397	86	127
363.10126984126987	363.19414965986397	74	127
363.10126984126987	363.2754195011338	79	127
363.10126984126987	363.2754195011338	67	127
363.19414965986397	363.28702947845807	87	127
363.19414965986397	363.28702947845807	75	127
363.28702947845807	363.39151927437644	74	127
363.28702947845807	363.39151927437644	86	127
363.28702947845807	363.48439909297053	79	127
363.28702947845807	363.48439909297053	67	127
363.39151927437644	363.4960090702948	87	127
363.39151927437644	363.4960090702948	75	127
363.4960090702948	363.65854875283446	67	127
363.4960090702948	363.5888888888889	86	127
363.4960090702948	363.5888888888889	74	127
363.4960090702948	363.65854875283446	79	127
363.5888888888889	363.67015873015873	87	127
363.5888888888889	363.67015873015873	75	127
363.67015873015873	363.84430839002266	80	127
363.67015873015873	363.7746485260771	86	127
363.67015873015873	363.7746485260771	74	127
363.67015873015873	363.84430839002266	68	127
363.7746485260771	363.84430839002266	87	127
363.7746485260771	363.84430839002266	75	127
363.84430839002266	363.94879818594103	86	127
363.84430839002266	363.94879818594103	74	127
363.84430839002266	363.9952380952381	80	127
363.84430839002266	363.9952380952381	68	127
363.94879818594103	363.9952380952381	75	127
363.94879818594103	363.9952380952381	87	127
363.9952380952381	364.0881179138322	74	127
363.9952380952381	364.0881179138322	86	127
363.9952380952381	364.1809977324263	80	127
363.9952380952381	364.1809977324263	68	127
364.04167800453513	364.1809977324263	60	127
364.0881179138322	364.1926077097506	87	127
364.0881179138322	364.1926077097506	75	127
364.1926077097506	364.2854875283447	86	127
364.1926077097506	365.005306122449	59	127
364.1926077097506	364.2854875283447	74	127
364.2854875283447	364.35514739229023	75	127
364.2854875283447	364.35514739229023	87	127
364.35514739229023	364.42480725623585	86	127
364.35514739229023	364.42480725623585	74	127
364.42480725623585	364.5060770975057	75	127
364.42480725623585	364.5525170068027	80	127
364.42480725623585	364.5060770975057	87	127
364.42480725623585	364.5525170068027	68	127
364.5060770975057	364.5525170068027	74	127
364.5060770975057	364.5525170068027	86	127
364.5525170068027	364.64537414965986	75	127
364.5525170068027	364.64537414965986	87	127
364.64537414965986	364.9008163265306	79	127
364.64537414965986	364.70344671201815	86	127
364.64537414965986	364.70344671201815	74	127
364.64537414965986	364.9008163265306	67	127
364.70344671201815	364.8079365079365	75	127
364.70344671201815	364.8079365079365	87	127
364.8079365079365	364.9008163265306	86	127
364.8079365079365	364.9008163265306	74	127
364.9008163265306	365.005306122449	87	127
364.9008163265306	365.005306122449	75	127
364.9008163265306	365.1910657596372	80	127
364.9008163265306	365.1910657596372	68	127
365.005306122449	365.10979591836735	74	127
365.005306122449	365.10979591836735	86	127
365.10979591836735	365.20267573696145	87	127
365.10979591836735	365.20267573696145	75	127
365.20267573696145	365.42326530612246	70	127
365.20267573696145	365.3071655328798	86	127
365.20267573696145	365.42326530612246	82	127
365.20267573696145	365.3071655328798	74	127
365.3071655328798	365.4000453514739	87	127
365.3071655328798	365.4000453514739	75	127
365.4000453514739	365.42326530612246	86	127
365.4000453514739	365.42326530612246	74	127
365.42326530612246	365.51614512471656	75	127
365.42326530612246	365.70190476190476	68	127
365.42326530612246	365.51614512471656	87	127
365.42326530612246	365.70190476190476	80	127
365.51614512471656	365.60902494331066	72	127
365.51614512471656	365.60902494331066	84	127
365.56256235827664	365.70190476190476	47	127
365.60902494331066	365.70190476190476	86	127
365.60902494331066	365.70190476190476	74	127
365.713514739229	367.8497505668934	87	127
365.713514739229	365.82961451247166	48	127
365.713514739229	365.98054421768705	79	127
365.713514739229	365.98054421768705	67	127
365.713514739229	367.5478911564626	75	127
365.8992743764172	366.01537414965986	50	127
365.9921541950113	366.46816326530615	67	127
365.9921541950113	366.46816326530615	60	127
366.05020408163267	366.15469387755104	51	127
366.2243537414966	366.3520634920635	48	127
366.3868707482993	366.5029931972789	50	127
366.4797505668934	366.9441723356009	60	127
366.4797505668934	366.9441723356009	67	127
366.5726530612245	366.6771428571429	51	127
366.7235827664399	366.8629024943311	48	127
366.8977097505669	366.990589569161	50	127
366.9557823129252	367.24603174603175	72	127
366.9557823129252	367.24603174603175	67	127
367.06027210884355	367.18798185941046	51	127
367.257641723356	367.83814058956915	48	127
367.5478911564626	368.14	60	127
367.5478911564626	368.14	67	127
367.8497505668934	368.4302267573696	86	127
367.8497505668934	368.4302267573696	74	127
368.15160997732426	368.69727891156464	67	127
368.15160997732426	368.69727891156464	60	127
368.4302267573696	368.9062585034014	84	127
368.4302267573696	368.9062585034014	72	127
368.69727891156464	368.8946485260771	67	127
368.69727891156464	368.8946485260771	72	127
368.9062585034014	369.0339455782313	40	127
368.9062585034014	369.50997732426305	83	127
368.9062585034014	369.50997732426305	71	127
369.10362811791384	369.23133786848075	41	127
369.2081179138322	369.8002267573696	60	127
369.2081179138322	369.8002267573696	67	127
369.3009977324263	369.4403174603175	43	127
369.50997732426305	370.1136961451247	72	127
369.50997732426305	369.63768707482996	40	127
369.50997732426305	370.1136961451247	84	127
369.7189569160998	369.8466666666667	41	127
369.8118367346939	370.4039455782313	60	127
369.8118367346939	370.4039455782313	67	127
369.91632653061225	370.04403628117916	43	127
370.1136961451247	370.7058049886621	83	127
370.1136961451247	370.26460317460317	40	127
370.1136961451247	370.7058049886621	71	127
370.32267573696146	370.45038548752837	41	127
370.41555555555556	370.69419501133785	72	127
370.41555555555556	370.69419501133785	67	127
370.5200453514739	370.63614512471656	43	127
370.7058049886621	370.8799319727891	67	127
370.7058049886621	370.8799319727891	70	127
370.7058049886621	370.8799319727891	60	127
370.7058049886621	371.2862811791383	40	127
370.7058049886621	371.2979138321995	84	127
370.7058049886621	371.2979138321995	72	127
370.8915646258503	371.0773242630386	60	127
370.8915646258503	371.0773242630386	70	127
370.8915646258503	371.0773242630386	67	127
371.08891156462585	371.2862811791383	70	127
371.08891156462585	371.2862811791383	60	127
371.08891156462585	371.2862811791383	67	127
371.2979138321995	371.86680272108845	73	127
371.2979138321995	371.4836734693878	67	127
371.2979138321995	371.4836734693878	70	127
371.2979138321995	371.4836734693878	61	127
371.2979138321995	371.86680272108845	85	127
371.49526077097505	371.669433106576	70	127
371.49526077097505	371.669433106576	61	127
371.49526077097505	371.669433106576	67	127
371.68104308390025	371.8551927437642	67	127
371.68104308390025	371.8551927437642	70	127
371.68104308390025	371.8551927437642	61	127
371.86680272108845	372.45891156462585	72	127
371.86680272108845	372.05256235827665	67	127
371.86680272108845	372.05256235827665	70	127
371.86680272108845	372.05256235827665	60	127
371.86680272108845	372.45891156462585	84	127
372.08739229024945	372.27315192743765	70	127
372.08739229024945	372.27315192743765	60	127
372.08739229024945	372.27315192743765	67	127
372.2847619047619	372.45891156462585	60	127
372.2847619047619	372.45891156462585	67	127
372.2847619047619	372.45891156462585	70	127
372.4705215419501	374.06108843537413	79	127
372.4705215419501	373.4457596371882	41	127
372.4705215419501	374.06108843537413	67	127
372.7607709750567	373.3412698412698	60	127
372.7607709750567	373.3412698412698	68	127
372.7607709750567	373.3412698412698	65	127
373.36448979591836	373.921768707483	68	127
373.36448979591836	373.921768707483	65	127
373.36448979591836	373.921768707483	60	127
373.9333786848073	374.0494557823129	68	127
373.9333786848073	374.0494557823129	72	127
373.9333786848073	374.0494557823129	65	127
374.06108843537413	374.6415873015873	80	127
374.06108843537413	374.6415873015873	68	127
374.362925170068	374.9202267573696	68	127
374.362925170068	374.9202267573696	60	127
374.362925170068	374.9202267573696	65	127
374.9318367346939	375.4194557823129	60	127
374.9318367346939	375.4194557823129	68	127
374.9318367346939	375.4194557823129	65	127
375.4310657596372	375.72131519274376	68	127
375.4310657596372	375.72131519274376	72	127
375.4310657596372	375.72131519274376	65	127
375.58197278911564	375.72131519274376	44	127
375.73292517006803	377.3699319727891	43	127
375.9767346938776	376.5572335600907	68	127
375.9767346938776	376.5572335600907	60	127
375.9767346938776	376.5572335600907	65	127
376.568843537415	377.056462585034	68	127
376.568843537415	377.056462585034	65	127
376.568843537415	377.056462585034	60	127
377.0680725623583	377.35832199546485	65	127
377.0680725623583	377.35832199546485	68	127
377.0680725623583	377.35832199546485	72	127
377.3699319727891	377.92721088435377	41	127
377.3699319727891	377.54408163265305	68	127
377.3699319727891	377.54408163265305	60	127
377.3699319727891	377.54408163265305	65	127
377.5556916099773	377.7414512471655	68	127
377.5556916099773	377.7414512471655	60	127
377.5556916099773	377.7414512471655	65	127
377.7530612244898	377.92721088435377	68	127
377.7530612244898	377.92721088435377	60	127
377.7530612244898	377.92721088435377	65	127
377.93879818594104	378.12458049886624	60	127
377.93879818594104	378.12458049886624	70	127
377.93879818594104	378.12458049886624	67	127
378.1361678004535	378.3219501133787	60	127
378.1361678004535	378.3219501133787	70	127
378.1361678004535	378.3219501133787	67	127
378.333560090703	378.5193197278912	60	127
378.333560090703	378.5193197278912	70	127
378.333560090703	378.5193197278912	67	127
378.53092970521544	378.71668934240364	60	127
378.53092970521544	378.71668934240364	72	127
378.53092970521544	378.71668934240364	68	127
378.7282993197279	378.79795918367347	60	127
378.7282993197279	378.79795918367347	72	127
378.7282993197279	378.79795918367347	68	127
378.79795918367347	378.9604761904762	60	127
378.79795918367347	378.9604761904762	68	127
378.79795918367347	378.9604761904762	72	127
378.84439909297055	378.93727891156465	39	127
378.9721088435374	379.262335600907	73	127
378.9721088435374	379.262335600907	61	127
378.9721088435374	379.262335600907	68	127
378.9721088435374	379.924126984127	37	127
378.9721088435374	380.9109750566893	80	127
378.9721088435374	380.9109750566893	68	127
379.27396825396823	379.8196371882086	65	127
379.27396825396823	379.8196371882086	68	127
379.27396825396823	379.8196371882086	61	127
379.8312471655329	380.365306122449	61	127
379.8312471655329	380.365306122449	65	127
379.8312471655329	380.365306122449	68	127
380.37691609977327	380.6439455782313	73	127
380.37691609977327	380.6439455782313	68	127
380.37691609977327	380.6439455782313	65	127
380.5162358276644	380.6439455782313	48	127
380.6439455782313	381.5030839002268	49	127
380.9109750566893	381.4218140589569	65	127
380.9109750566893	381.4218140589569	61	127
380.9109750566893	381.4218140589569	68	127
381.16639455782314	381.70045351473925	67	127
381.16639455782314	381.70045351473925	79	127
381.43342403628117	381.9674829931973	68	127
381.43342403628117	381.9674829931973	61	127
381.43342403628117	381.9674829931973	65	127
381.70045351473925	382.25773242630385	65	127
381.70045351473925	382.25773242630385	77	127
381.97909297052155	382.2461224489796	65	127
381.97909297052155	382.2461224489796	73	127
381.97909297052155	382.2461224489796	68	127
382.10680272108846	382.25773242630385	40	127
382.25773242630385	382.8034013605442	75	127
382.25773242630385	382.397052154195	41	127
382.25773242630385	382.8034013605442	63	127
382.4551020408163	382.5595918367347	43	127
382.5479818594104	383.0936507936508	56	127
382.5479818594104	383.0936507936508	65	127
382.5479818594104	383.0936507936508	61	127
382.61764172335603	382.7453514739229	44	127
382.8034013605442	383.39551020408163	73	127
382.8034013605442	383.39551020408163	61	127
382.8034013605442	382.93111111111114	41	127
383.0007709750567	383.1284807256236	43	127
383.10526077097506	383.65092970521545	56	127
383.10526077097506	383.65092970521545	61	127
383.10526077097506	383.65092970521545	65	127
383.19814058956916	383.33746031746034	44	127
383.39551020408163	383.9643990929705	72	127
383.39551020408163	383.51160997732427	41	127
383.39551020408163	383.9643990929705	60	127
383.56965986394556	383.69736961451247	43	127
383.66253968253966	383.9527891156463	68	127
383.66253968253966	383.9527891156463	61	127
383.66253968253966	383.9527891156463	65	127
383.767029478458	383.89473922902494	44	127
383.9643990929705	384.5913378684807	73	127
383.9643990929705	384.57972789115644	41	127
383.9643990929705	384.5913378684807	61	127
384.2662585034014	384.86997732426306	65	127
384.2662585034014	384.86997732426306	56	127
384.2662585034014	384.86997732426306	61	127
384.5913378684807	385.1370068027211	77	127
384.5913378684807	385.1370068027211	65	127
384.8815873015873	385.4156462585034	65	127
384.8815873015873	385.4156462585034	56	127
384.8815873015873	385.4156462585034	61	127
385.1370068027211	385.7175056689342	73	127
385.1370068027211	385.7175056689342	61	127
385.42725623582766	385.7175056689342	65	127
385.42725623582766	385.7175056689342	61	127
385.42725623582766	385.7175056689342	68	127
385.7291156462585	388.88702947845803	60	127
385.7291156462585	386.6695238095238	43	127
385.7291156462585	388.88702947845803	72	127
386.03097505668933	386.588253968254	60	127
386.03097505668933	386.588253968254	55	127
386.03097505668933	386.588253968254	63	127
386.59986394557825	387.09909297052155	63	127
386.59986394557825	387.09909297052155	60	127
386.59986394557825	387.09909297052155	55	127
387.1223129251701	387.4009523809524	60	127
387.1223129251701	387.4009523809524	63	127
387.1223129251701	387.4009523809524	67	127
387.2616326530612	387.41256235827666	54	127
387.41256235827666	388.37619047619046	55	127
387.69120181405896	388.2717006802721	63	127
387.69120181405896	388.2717006802721	55	127
387.69120181405896	388.2717006802721	60	127
388.28331065759636	388.86380952380955	63	127
388.28331065759636	388.86380952380955	60	127
388.28331065759636	388.86380952380955	55	127
388.88702947845803	389.1540589569161	60	127
388.88702947845803	389.1540589569161	75	127
388.88702947845803	389.1540589569161	67	127
388.88702947845803	389.1540589569161	63	127
388.88702947845803	389.1540589569161	63	127
389.01473922902494	389.1656689342404	42	127
389.1656689342404	390.14090702947846	43	127
389.1656689342404	391.3947845804989	75	127
389.1656689342404	391.3947845804989	63	127
389.4675283446712	390.0248072562358	65	127
389.4675283446712	390.0248072562358	55	127
389.4675283446712	390.0248072562358	59	127
390.0364172335601	390.605306122449	65	127
390.0364172335601	390.605306122449	59	127
390.0364172335601	390.605306122449	55	127
390.6169160997732	390.87233560090704	59	127
390.6169160997732	390.87233560090704	67	127
390.6169160997732	390.87233560090704	65	127
390.8839455782313	392.0101133786848	43	127
391.13936507936506	391.68503401360545	55	127
391.13936507936506	391.68503401360545	65	127
391.13936507936506	391.68503401360545	59	127
391.3947845804989	392.0101133786848	74	127
391.3947845804989	392.0101133786848	62	127
391.6966439909297	392.3003628117914	65	127
391.6966439909297	392.3003628117914	55	127
391.6966439909297	392.3003628117914	59	127
392.0101133786848	392.6022222222222	68	127
392.0101133786848	392.6022222222222	80	127
392.0101133786848	392.6022222222222	41	127
392.31197278911566	392.6022222222222	68	127
392.31197278911566	392.6022222222222	62	127
392.31197278911566	392.6022222222222	59	127
392.6138321995465	393.21755102040817	67	127
392.6138321995465	392.7415419501134	39	127
392.6138321995465	393.21755102040817	79	127
392.82281179138323	392.95052154195014	41	127
392.91569160997733	393.49619047619046	67	127
392.91569160997733	393.49619047619046	60	127
392.91569160997733	393.49619047619046	63	127
393.0201814058957	393.1478911564626	43	127
393.21755102040817	393.3336507936508	39	127
393.21755102040817	394.8777777777778	87	127
393.21755102040817	394.8777777777778	75	127
393.40331065759636	393.54263038548754	41	127
393.50780045351473	394.07668934240365	63	127
393.50780045351473	394.07668934240365	60	127
393.50780045351473	394.07668934240365	67	127
393.6122902494331	393.74	43	127
393.80965986394557	393.9257596371882	39	127
393.9838095238095	394.1115192743764	41	127
394.08829931972787	394.3088888888889	67	127
394.08829931972787	394.3088888888889	72	127
394.08829931972787	394.3088888888889	63	127
394.16956916099775	394.3088888888889	43	127
394.3321088435374	394.8661678004535	39	127
394.59913832199544	395.17963718820863	67	127
394.59913832199544	395.17963718820863	60	127
394.8777777777778	395.38861678004537	74	127
394.8777777777778	395.38861678004537	86	127
395.1912471655329	395.67886621315193	60	127
395.1912471655329	395.67886621315193	67	127
395.38861678004537	395.95750566893423	72	127
395.38861678004537	395.95750566893423	84	127
395.6904761904762	395.95750566893423	72	127
395.6904761904762	395.95750566893423	67	127
395.98072562358277	396.54961451247163	83	127
395.98072562358277	396.1084353741497	40	127
395.98072562358277	396.54961451247163	71	127
396.16648526077097	396.2941950113379	41	127
396.25936507936507	396.83986394557826	60	127
396.25936507936507	396.83986394557826	67	127
396.36385487528344	396.4799546485261	43	127
396.54961451247163	396.6889342403628	40	127
396.54961451247163	397.1417233560091	84	127
396.54961451247163	397.1417233560091	72	127
396.7469841269841	396.8863038548753	41	127
396.85147392290247	397.44358276643993	67	127
396.85147392290247	397.44358276643993	60	127
396.95596371882084	397.0720634920635	43	127
397.1417233560091	397.26943310657595	40	127
397.1417233560091	397.75705215419504	83	127
397.1417233560091	397.75705215419504	71	127
397.33909297052156	397.4784126984127	41	127
397.4551927437642	397.74544217687077	72	127
397.4551927437642	397.74544217687077	67	127
397.5480725623583	397.6873922902494	43	127
397.75705215419504	397.94281179138324	60	127
397.75705215419504	398.2911111111111	84	127
397.75705215419504	398.2795011337868	40	127
397.75705215419504	398.2911111111111	72	127
397.75705215419504	397.94281179138324	67	127
397.75705215419504	397.94281179138324	70	127
397.9544217687075	398.1053514739229	70	127
397.9544217687075	398.1053514739229	67	127
397.9544217687075	398.1053514739229	60	127
398.11696145124716	398.2795011337868	60	127
398.11696145124716	398.2795011337868	70	127
398.11696145124716	398.2795011337868	67	127
398.2911111111111	398.88321995464855	73	127
398.2911111111111	398.47687074829935	67	127
398.2911111111111	398.47687074829935	70	127
398.2911111111111	398.88321995464855	85	127
398.2911111111111	398.47687074829935	61	127
398.50009070294783	398.6742403628118	70	127
398.50009070294783	398.6742403628118	67	127
398.50009070294783	398.6742403628118	61	127
398.685850340136	398.8716099773243	67	127
398.685850340136	398.8716099773243	70	127
398.685850340136	398.8716099773243	61	127
398.88321995464855	399.4521088435374	72	127
398.88321995464855	399.080589569161	70	127
398.88321995464855	399.4521088435374	84	127
398.88321995464855	399.080589569161	60	127
398.88321995464855	399.080589569161	67	127
399.09219954648523	399.2779591836735	70	127
399.09219954648523	399.2779591836735	67	127
399.09219954648523	399.2779591836735	60	127
399.28956916099776	399.4521088435374	67	127
399.28956916099776	399.4521088435374	70	127
399.28956916099776	399.4521088435374	60	127
399.4637188208617	400.9033560090703	67	127
399.4637188208617	400.43895691609976	41	127
399.4637188208617	400.9149659863946	79	127
399.7655782312925	400.3228571428571	60	127
399.7655782312925	400.3228571428571	68	127
399.7655782312925	400.3228571428571	65	127
400.3344671201814	400.9033560090703	68	127
400.3344671201814	400.9033560090703	65	127
400.3344671201814	400.9033560090703	60	127
400.9149659863946	401.17038548752834	72	127
400.9149659863946	401.17038548752834	68	127
400.9149659863946	401.17038548752834	70	127
400.9149659863946	401.1819954648526	82	127
400.9149659863946	401.17038548752834	65	127
401.1819954648526	401.65800453514737	68	127
401.1819954648526	401.65800453514737	80	127
401.4722448979592	401.9018140589569	68	127
401.4722448979592	401.9018140589569	60	127
401.4722448979592	401.9018140589569	65	127
401.9134240362812	402.4010430839002	65	127
401.9134240362812	402.4010430839002	68	127
401.9134240362812	402.4010430839002	60	127
402.4010430839002	402.6796825396825	68	127
402.4010430839002	402.6796825396825	72	127
402.4010430839002	402.6796825396825	65	127
402.5403628117914	402.6796825396825	44	127
402.6912925170068	404.37473922902495	43	127
402.96993197278914	403.51560090702947	68	127
402.96993197278914	403.51560090702947	65	127
403.52721088435374	404.10770975056687	68	127
403.52721088435374	404.10770975056687	65	127
404.11931972789114	404.37473922902495	72	127
404.11931972789114	404.37473922902495	65	127
404.37473922902495	404.9436281179138	41	127
404.37473922902495	404.5372789115646	68	127
404.37473922902495	404.5372789115646	60	127
404.37473922902495	404.5372789115646	65	127
404.5488888888889	404.7346485260771	68	127
404.5488888888889	404.7346485260771	60	127
404.5488888888889	404.7346485260771	65	127
404.74625850340135	404.9436281179138	68	127
404.74625850340135	404.9436281179138	60	127
404.74625850340135	404.9436281179138	65	127
404.9552380952381	405.1758276643991	60	127
404.9552380952381	405.1758276643991	70	127
404.9552380952381	405.1758276643991	67	127
405.18743764172336	405.37319727891156	67	127
405.18743764172336	405.37319727891156	70	127
405.18743764172336	405.37319727891156	60	127
405.38480725623583	405.51251700680274	70	127
405.38480725623583	405.51251700680274	60	127
405.38480725623583	405.51251700680274	67	127
405.524126984127	405.7098866213152	68	127
405.524126984127	405.7098866213152	72	127
405.524126984127	405.7098866213152	60	127
405.7214965986395	405.7679365079365	60	127
405.7214965986395	405.7679365079365	72	127
405.7214965986395	405.7679365079365	68	127
405.79115646258504	405.97691609977323	60	127
405.79115646258504	405.97691609977323	68	127
405.79115646258504	405.97691609977323	72	127
405.8375963718821	405.9304761904762	39	127
405.9885260770975	407.9041723356009	68	127
405.9885260770975	406.25555555555553	65	127
405.9885260770975	406.25555555555553	73	127
405.9885260770975	406.25555555555553	61	127
405.9885260770975	406.25555555555553	68	127
405.9885260770975	406.9057142857143	37	127
405.9885260770975	407.9041723356009	80	127
406.2671655328798	406.78961451247164	65	127
406.2671655328798	406.78961451247164	68	127
406.2671655328798	406.78961451247164	61	127
406.8012244897959	407.3004535147392	61	127
406.8012244897959	407.3004535147392	65	127
406.8012244897959	407.3004535147392	68	127
407.3120634920635	407.5907029478458	73	127
407.3120634920635	407.5907029478458	68	127
407.3120634920635	407.5907029478458	65	127
407.45138321995466	407.60231292517005	48	127
407.60231292517005	408.60077097505666	49	127
407.9041723356009	408.4730612244898	65	127
407.9041723356009	408.4730612244898	68	127
407.9041723356009	408.4730612244898	61	127
408.19442176870746	408.7981405895692	79	127
408.19442176870746	408.7981405895692	67	127
408.4846712018141	409.0651700680272	65	127
408.4846712018141	409.0651700680272	68	127
408.4846712018141	409.0651700680272	61	127
408.7981405895692	409.33219954648524	65	127
408.7981405895692	409.33219954648524	77	127
409.0767800453515	409.33219954648524	40	127
409.0767800453515	409.320589569161	65	127
409.0767800453515	409.320589569161	73	127
409.0767800453515	409.320589569161	68	127
409.33219954648524	409.8778684807256	75	127
409.33219954648524	409.8778684807256	63	127
409.33219954648524	409.45990929705215	41	127
409.5295691609977	409.64566893424035	43	127
409.6224489795918	410.1681179138322	56	127
409.6224489795918	410.1681179138322	61	127
409.6224489795918	410.1681179138322	65	127
409.6921088435374	409.80820861678006	44	127
409.8778684807256	410.49319727891157	61	127
409.8778684807256	410.00557823129253	41	127
409.8778684807256	410.49319727891157	73	127
410.0752380952381	410.21455782312927	43	127
410.17972789115646	410.7950566893424	56	127
410.17972789115646	410.7950566893424	61	127
410.17972789115646	410.7950566893424	65	127
410.28421768707483	410.423537414966	44	127
410.49319727891157	411.09691609977324	60	127
410.49319727891157	410.63251700680274	41	127
410.49319727891157	411.09691609977324	72	127
410.7021768707483	410.8414965986395	43	127
410.8066666666667	411.08530612244897	68	127
410.8066666666667	411.08530612244897	61	127
410.8066666666667	411.08530612244897	65	127
410.89954648526077	411.0272562358277	44	127
411.09691609977324	411.6774149659864	41	127
411.09691609977324	411.68902494331064	73	127
411.09691609977324	411.68902494331064	61	127
411.3871655328798	411.9908843537415	65	127
411.3871655328798	411.9908843537415	56	127
411.3871655328798	411.9908843537415	61	127
411.68902494331064	412.22308390022675	77	127
411.68902494331064	412.22308390022675	65	127
412.00249433106575	412.50172335600905	65	127
412.00249433106575	412.50172335600905	56	127
412.00249433106575	412.50172335600905	61	127
412.22308390022675	412.75714285714287	61	127
412.22308390022675	412.75714285714287	73	127
412.5133333333333	412.75714285714287	68	127
412.5133333333333	412.75714285714287	61	127
412.5133333333333	412.75714285714287	65	127
412.76875283446714	415.8570068027211	60	127
412.76875283446714	413.81365079365077	43	127
412.76875283446714	415.8570068027211	72	127
413.070612244898	413.6975510204082	60	127
413.070612244898	413.6975510204082	55	127
413.070612244898	413.6975510204082	63	127
413.70916099773245	414.30126984126986	63	127
413.70916099773245	414.30126984126986	60	127
413.70916099773245	414.30126984126986	55	127
414.3128798185941	414.48702947845806	67	127
414.3128798185941	414.48702947845806	60	127
414.3128798185941	414.48702947845806	63	127
414.3477097505669	414.4986394557823	54	127
414.4986394557823	415.3809977324263	55	127
414.7888888888889	415.26489795918366	63	127
414.7888888888889	415.26489795918366	55	127
414.7888888888889	415.26489795918366	60	127
415.2881179138322	415.84539682539685	55	127
415.2881179138322	415.84539682539685	63	127
415.2881179138322	415.84539682539685	60	127
415.8570068027211	416.15886621315195	63	127
415.8570068027211	416.15886621315195	75	127
415.8570068027211	416.15886621315195	67	127
415.8570068027211	416.15886621315195	60	127
415.8570068027211	416.15886621315195	63	127
416.0195464852608	416.17047619047617	42	127
416.17047619047617	418.48086167800454	75	127
416.17047619047617	417.07605442176873	43	127
416.17047619047617	418.48086167800454	63	127
416.4491156462585	416.9483446712018	59	127
416.4491156462585	416.9483446712018	55	127
416.4491156462585	416.9483446712018	65	127
416.97156462585036	417.56367346938777	65	127
416.97156462585036	417.56367346938777	59	127
416.97156462585036	417.56367346938777	55	127
417.57528344671204	417.8655328798186	59	127
417.57528344671204	417.8655328798186	67	127
417.57528344671204	417.8655328798186	65	127
417.87714285714287	418.8756009070295	55	127
418.1790022675737	418.7711111111111	59	127
418.1790022675737	418.7711111111111	65	127
418.1790022675737	418.7711111111111	55	127
418.48086167800454	419.07297052154195	74	127
418.48086167800454	419.07297052154195	62	127
418.7827210884354	419.3632199546485	59	127
418.7827210884354	419.3632199546485	55	127
418.7827210884354	419.3632199546485	65	127
419.07297052154195	419.6302494331066	67	127
419.07297052154195	419.6302494331066	79	127
419.07297052154195	419.6302494331066	43	127
419.3748299319728	419.6302494331066	67	127
419.3748299319728	419.6302494331066	65	127
419.3748299319728	419.6302494331066	59	127
419.6418594104308	420.61709750566894	69	127
419.6418594104308	420.61709750566894	81	127
419.6418594104308	420.61709750566894	42	127
419.9553287981859	420.51260770975057	60	127
419.9553287981859	420.51260770975057	69	127
419.9553287981859	420.51260770975057	63	127
420.52421768707484	420.98861678004533	63	127
420.52421768707484	420.98861678004533	69	127
420.52421768707484	420.98861678004533	60	127
420.80285714285714	421.80131519274374	69	127
420.80285714285714	421.80131519274374	81	127
421.0002267573696	421.2788662131519	72	127
421.0002267573696	421.2788662131519	69	127
421.0002267573696	421.2788662131519	63	127
421.15115646258505	421.2788662131519	41	127
421.29047619047617	422.1728344671202	42	127
421.55750566893425	422.0683446712018	69	127
421.55750566893425	422.0683446712018	60	127
421.55750566893425	422.0683446712018	63	127
421.812925170068	422.7185034013605	81	127
421.812925170068	422.7185034013605	69	127
422.0799546485261	422.60240362811794	63	127
422.0799546485261	422.60240362811794	60	127
422.0799546485261	422.60240362811794	69	127
422.61401360544215	422.9042630385488	63	127
422.61401360544215	422.9042630385488	72	127
422.61401360544215	422.9042630385488	69	127
422.7649433106576	422.9042630385488	41	127
422.915873015873	423.83306122448977	69	127
422.915873015873	423.83306122448977	81	127
422.915873015873	423.83306122448977	42	127
423.19451247165534	423.72857142857146	63	127
423.19451247165534	423.72857142857146	69	127
423.19451247165534	423.72857142857146	60	127
423.74018140589567	424.2742403628118	60	127
423.74018140589567	424.2742403628118	69	127
423.74018140589567	424.2742403628118	63	127
424.0420408163265	425.0869387755102	69	127
424.0420408163265	425.0869387755102	81	127
424.2742403628118	424.5296598639456	72	127
424.2742403628118	424.5296598639456	69	127
424.2742403628118	424.5296598639456	63	127
424.54126984126987	425.4816780045351	42	127
424.54126984126987	424.69219954648526	63	127
424.54126984126987	424.69219954648526	69	127
424.54126984126987	424.69219954648526	57	127
424.7038095238095	424.8895691609977	57	127
424.7038095238095	424.8895691609977	69	127
424.7038095238095	424.8895691609977	63	127
424.901179138322	425.0869387755102	63	127
424.901179138322	425.0869387755102	69	127
424.901179138322	425.0869387755102	57	127
425.09854875283446	425.2726984126984	71	127
425.09854875283446	425.2726984126984	63	127
425.09854875283446	425.2726984126984	59	127
425.09854875283446	425.28430839002266	81	127
425.09854875283446	425.28430839002266	69	127
425.28430839002266	425.47006802721086	71	127
425.28430839002266	425.47006802721086	59	127
425.28430839002266	425.47006802721086	63	127
425.4816780045351	425.6790476190476	59	127
425.4816780045351	425.6790476190476	63	127
425.4816780045351	425.6790476190476	71	127
425.69065759637186	426.27115646258505	41	127
425.69065759637186	425.8764172335601	63	127
425.69065759637186	425.8764172335601	72	127
425.69065759637186	425.8764172335601	60	127
425.69065759637186	425.88802721088433	81	127
425.69065759637186	425.88802721088433	69	127
425.88802721088433	426.0737868480726	60	127
425.88802721088433	426.0737868480726	63	127
425.88802721088433	426.0737868480726	72	127
426.0853968253968	426.27115646258505	72	127
426.0853968253968	426.27115646258505	60	127
426.0853968253968	426.27115646258505	63	127
426.2827664399093	429.5103401360544	84	127
426.2827664399093	429.5103401360544	72	127
426.2827664399093	426.42208616780044	40	127
426.4801360544218	426.5962358276644	40	127
426.5614058956916	427.09546485260773	64	127
426.5614058956916	427.09546485260773	72	127
426.5614058956916	427.09546485260773	60	127
426.5614058956916	427.09546485260773	69	127
426.66589569161	426.77038548752836	40	127
426.8052154195011	426.932925170068	40	127
427.0025850340136	427.1302947845805	40	127
427.10707482993195	427.64113378684806	72	127
427.10707482993195	427.64113378684806	64	127
427.10707482993195	427.64113378684806	60	127
427.10707482993195	427.64113378684806	69	127
427.1999546485261	427.32766439909295	40	127
427.39732426303857	427.49020408163267	40	127
427.55986394557823	427.68757369614514	40	127
427.6527437641723	427.9429931972789	76	127
427.6527437641723	427.9429931972789	64	127
427.6527437641723	427.9429931972789	69	127
427.6527437641723	427.9429931972789	72	127
427.7572335600907	427.8849433106576	40	127
427.95460317460316	429.68448979591835	40	127
427.95460317460316	428.14036281179136	72	127
427.95460317460316	428.14036281179136	60	127
427.95460317460316	428.14036281179136	69	127
428.1635827664399	428.3493424036281	69	127
428.1635827664399	428.3493424036281	60	127
428.1635827664399	428.3493424036281	72	127
428.36095238095237	428.4422222222222	69	127
428.36095238095237	428.4422222222222	72	127
428.36095238095237	428.4422222222222	60	127
428.45383219954647	428.6163718820862	69	127
428.45383219954647	428.6163718820862	74	127
428.45383219954647	428.6163718820862	62	127
428.6163718820862	428.7905215419501	69	127
428.6163718820862	428.7905215419501	74	127
428.6163718820862	428.7905215419501	62	127
428.8021315192744	428.9878911564626	69	127
428.8021315192744	428.9878911564626	74	127
428.8021315192744	428.9878911564626	62	127
428.99950113378685	429.1620408163265	69	127
428.99950113378685	429.1620408163265	75	127
428.99950113378685	429.1620408163265	63	127
429.1736507936508	429.3245804988662	75	127
429.1736507936508	429.3245804988662	63	127
429.1736507936508	429.3245804988662	69	127
429.3361904761905	429.49873015873015	75	127
429.3361904761905	429.49873015873015	63	127
429.3361904761905	429.49873015873015	69	127
429.5103401360544	432.86562358276643	83	127
429.5103401360544	429.7889795918367	76	127
429.5103401360544	429.7889795918367	64	127
429.5103401360544	429.7889795918367	69	127
429.5103401360544	432.86562358276643	71	127
429.7077097505669	429.8354195011338	41	127
429.800589569161	430.32303854875283	64	127
429.800589569161	430.32303854875283	69	127
429.800589569161	430.32303854875283	71	127
429.87024943310655	429.99795918367346	39	127
430.0676190476191	430.18371882086166	40	127
430.241768707483	430.3694784580499	41	127
430.3346485260771	430.8687074829932	69	127
430.3346485260771	430.8687074829932	71	127
430.3346485260771	430.8687074829932	64	127
430.4275283446712	430.5668480725624	39	127
430.62489795918367	430.7409977324263	40	127
430.78743764172333	430.91514739229024	41	127
430.8919274376417	431.17056689342405	69	127
430.8919274376417	431.17056689342405	76	127
430.8919274376417	431.17056689342405	71	127
430.9731972789116	431.1125170068027	39	127
431.1821768707483	431.72784580498865	40	127
431.48403628117916	432.0297052154195	68	127
431.48403628117916	432.0297052154195	71	127
431.48403628117916	432.0297052154195	64	127
432.04131519274375	432.6102040816327	64	127
432.04131519274375	432.6102040816327	68	127
432.04131519274375	432.6102040816327	71	127
432.62181405895694	432.85401360544216	76	127
432.62181405895694	432.85401360544216	71	127
432.62181405895694	432.85401360544216	68	127
432.86562358276643	434.89736961451246	70	127
432.86562358276643	433.0049433106576	40	127
432.86562358276643	435.1760090702948	82	127
433.07460317460317	433.17909297052154	41	127
433.14426303854873	433.71315192743765	67	127
433.14426303854873	433.71315192743765	70	127
433.14426303854873	433.71315192743765	61	127
433.2487528344671	433.376462585034	43	127
433.44612244897957	433.5622222222222	40	127
433.62027210884355	433.75959183673467	41	127
433.7247619047619	434.27043083900224	70	127
433.7247619047619	434.27043083900224	67	127
433.7247619047619	434.27043083900224	61	127
433.8292517006803	433.9453514739229	43	127
434.0150113378685	434.11950113378686	40	127
434.1891609977324	434.30526077097505	41	127
434.2820408163265	434.5490702947846	70	127
434.2820408163265	434.5490702947846	67	127
434.2820408163265	434.5490702947846	73	127
434.36331065759634	434.5026303854875	43	127
434.56068027210887	435.16439909297054	40	127
434.89736961451246	435.4662585034014	70	127
434.89736961451246	435.4662585034014	67	127
434.89736961451246	435.4662585034014	60	127
435.1760090702948	435.7681179138322	84	127
435.1760090702948	435.7681179138322	72	127
435.47786848072565	436.06997732426305	67	127
435.47786848072565	436.06997732426305	70	127
435.47786848072565	436.06997732426305	60	127
435.7681179138322	436.3602267573696	67	127
435.7681179138322	436.3602267573696	79	127
436.0815873015873	436.3370068027211	70	127
436.0815873015873	436.3370068027211	72	127
436.0815873015873	436.3370068027211	67	127
436.3602267573696	436.94072562358275	70	127
436.3602267573696	436.4879365079365	41	127
436.3602267573696	436.94072562358275	82	127
436.5575963718821	436.685306122449	43	127
436.6504761904762	437.19614512471657	68	127
436.6504761904762	437.19614512471657	65	127
436.6504761904762	437.19614512471657	60	127
436.7433560090703	436.8710657596372	44	127
436.94072562358275	437.0452154195011	41	127
436.94072562358275	437.48639455782313	80	127
436.94072562358275	437.48639455782313	68	127
437.10326530612247	437.2193650793651	43	127
437.19614512471657	437.7418140589569	60	127
437.19614512471657	437.7418140589569	65	127
437.19614512471657	437.7418140589569	68	127
437.28902494331066	437.4167346938776	44	127
437.48639455782313	438.0320634920635	67	127
437.48639455782313	437.61410430839004	41	127
437.48639455782313	438.0320634920635	79	127
437.67215419501133	437.7766439909297	43	127
437.75342403628116	438.008843537415	68	127
437.75342403628116	438.008843537415	72	127
437.75342403628116	438.008843537415	65	127
437.83469387755105	437.9624036281179	44	127
438.0320634920635	438.6241723356009	65	127
438.0320634920635	438.61256235827665	41	127
438.0320634920635	438.6241723356009	77	127
438.3223129251701	438.9144217687075	65	127
438.3223129251701	438.9144217687075	56	127
438.3223129251701	438.9144217687075	61	127
438.6241723356009	439.25111111111113	68	127
438.6241723356009	439.25111111111113	80	127
438.92603174603175	439.5413605442177	65	127
438.92603174603175	439.5413605442177	56	127
438.92603174603175	439.5413605442177	61	127
439.25111111111113	439.8083900226757	73	127
439.25111111111113	439.8083900226757	61	127
439.55297052154197	439.8083900226757	61	127
439.55297052154197	439.8083900226757	65	127
439.55297052154197	439.8083900226757	68	127
439.82	440.71396825396823	43	127
439.82	442.9430839002268	72	127
439.82	442.9430839002268	60	127
440.0754195011338	440.60947845804986	55	127
440.0754195011338	440.60947845804986	63	127
440.0754195011338	440.60947845804986	60	127
440.62108843537413	441.1783673469388	60	127
440.62108843537413	441.1783673469388	63	127
440.62108843537413	441.1783673469388	55	127
441.18997732426305	441.4802267573696	63	127
441.18997732426305	441.4802267573696	67	127
441.18997732426305	441.4802267573696	60	127
441.34090702947844	441.4918367346939	54	127
441.4918367346939	442.42063492063494	55	127
441.7588662131519	442.3045351473923	63	127
441.7588662131519	442.3045351473923	60	127
441.7588662131519	442.3045351473923	55	127
442.31614512471657	442.9314739229025	60	127
442.31614512471657	442.9314739229025	55	127
442.31614512471657	442.9314739229025	63	127
442.9430839002268	443.2101133786848	60	127
442.9430839002268	443.2101133786848	63	127
442.9430839002268	443.2101133786848	63	127
442.9430839002268	443.2101133786848	75	127
442.9430839002268	443.2101133786848	67	127
443.07079365079363	443.2217233560091	42	127
443.2217233560091	444.17374149659867	43	127
443.2217233560091	445.54371882086167	75	127
443.2217233560091	445.54371882086167	63	127
443.5003628117914	444.057641723356	59	127
443.5003628117914	444.057641723356	65	127
443.5003628117914	444.057641723356	55	127
444.0692517006803	444.6265306122449	59	127
444.0692517006803	444.6265306122449	55	127
444.0692517006803	444.6265306122449	65	127
444.63814058956916	444.9283900226757	59	127
444.63814058956916	444.9283900226757	67	127
444.63814058956916	444.9283900226757	65	127
444.94	445.96167800453514	55	127
445.24185941043083	445.83396825396824	55	127
445.24185941043083	445.83396825396824	65	127
445.24185941043083	445.83396825396824	59	127
445.54371882086167	446.1590476190476	74	127
445.54371882086167	446.1590476190476	62	127
445.8455782312925	446.4492970521542	55	127
445.8455782312925	446.4492970521542	65	127
445.8455782312925	446.4492970521542	59	127
446.1590476190476	446.751156462585	67	127
446.1590476190476	446.751156462585	79	127
446.1590476190476	446.751156462585	43	127
446.46090702947845	446.751156462585	59	127
446.46090702947845	446.751156462585	65	127
446.46090702947845	446.751156462585	67	127
446.7627664399093	447.67995464852606	81	127
446.7627664399093	447.67995464852606	69	127
446.7627664399093	447.67995464852606	42	127
447.0646258503401	447.5638548752834	69	127
447.0646258503401	447.5638548752834	60	127
447.0646258503401	447.5638548752834	63	127
447.5754648526077	448.1559637188209	60	127
447.5754648526077	448.1559637188209	63	127
447.5754648526077	448.1559637188209	69	127
447.86571428571426	449.0615419501134	69	127
447.86571428571426	449.0615419501134	81	127
448.1675736961451	448.4578231292517	69	127
448.1675736961451	448.4578231292517	63	127
448.1675736961451	448.4578231292517	72	127
448.31850340136054	448.469433106576	41	127
448.469433106576	449.47950113378687	42	127
448.78290249433104	449.3750113378685	63	127
448.78290249433104	449.3750113378685	69	127
448.78290249433104	449.3750113378685	60	127
449.07315192743766	450.03678004535146	81	127
449.07315192743766	450.03678004535146	69	127
449.3750113378685	449.9206802721088	63	127
449.3750113378685	449.9206802721088	69	127
449.3750113378685	449.9206802721088	60	127
449.9322902494331	450.22253968253966	63	127
449.9322902494331	450.22253968253966	72	127
449.9322902494331	450.22253968253966	69	127
450.08321995464854	450.23414965986393	41	127
450.23414965986393	451.1861678004535	69	127
450.23414965986393	451.1861678004535	42	127
450.23414965986393	451.1861678004535	81	127
450.5243990929705	451.0700680272109	63	127
450.5243990929705	451.0700680272109	69	127
450.5243990929705	451.0700680272109	60	127
451.08167800453515	451.58090702947845	63	127
451.08167800453515	451.58090702947845	60	127
451.08167800453515	451.58090702947845	69	127
451.383537414966	452.4284353741497	69	127
451.383537414966	452.4284353741497	81	127
451.5925170068027	451.83632653061227	72	127
451.5925170068027	451.83632653061227	63	127
451.5925170068027	451.83632653061227	69	127
451.8479365079365	452.8231746031746	42	127
451.8479365079365	452.03369614512474	63	127
451.8479365079365	452.03369614512474	69	127
451.8479365079365	452.03369614512474	57	127
452.045306122449	452.2310657596372	57	127
452.045306122449	452.2310657596372	69	127
452.045306122449	452.2310657596372	63	127
452.2426757369615	452.4284353741497	69	127
452.2426757369615	452.4284353741497	63	127
452.2426757369615	452.4284353741497	57	127
452.4516553287982	452.6374149659864	71	127
452.4516553287982	452.6490249433107	81	127
452.4516553287982	452.6374149659864	63	127
452.4516553287982	452.6490249433107	69	127
452.4516553287982	452.6374149659864	59	127
452.6490249433107	452.81156462585034	71	127
452.6490249433107	452.81156462585034	63	127
452.6490249433107	452.81156462585034	59	127
452.8231746031746	453.0089342403628	63	127
452.8231746031746	453.0089342403628	71	127
452.8231746031746	453.0089342403628	59	127
453.0205442176871	453.2063038548753	72	127
453.0205442176871	453.2063038548753	63	127
453.0205442176871	453.2063038548753	60	127
453.0205442176871	453.21791383219954	81	127
453.0205442176871	453.21791383219954	69	127
453.0205442176871	453.6126530612245	41	127
453.21791383219954	453.415283446712	60	127
453.21791383219954	453.415283446712	72	127
453.21791383219954	453.415283446712	63	127
453.4268934240363	453.6126530612245	63	127
453.4268934240363	453.6126530612245	72	127
453.4268934240363	453.6126530612245	60	127
453.62426303854875	453.7403628117914	40	127
453.62426303854875	455.8649886621315	84	127
453.62426303854875	455.8649886621315	72	127
453.81002267573695	453.9145124716553	40	127
453.8912925170068	454.4137414965986	64	127
453.8912925170068	454.4137414965986	72	127
453.8912925170068	454.4137414965986	60	127
453.8912925170068	454.4137414965986	69	127
453.98417233560093	454.12349206349205	40	127
454.1815419501134	454.29764172335604	40	127
454.3324716553288	454.4601814058957	40	127
454.4253514739229	455.0174603174603	69	127
454.4253514739229	455.0174603174603	64	127
454.4253514739229	455.0174603174603	72	127
454.4253514739229	455.0174603174603	60	127
454.52984126984126	454.65755102040816	40	127
454.7272108843537	454.8665306122449	40	127
454.9245804988662	455.06390022675737	40	127
455.02907029478456	455.26126984126984	69	127
455.02907029478456	455.26126984126984	72	127
455.02907029478456	455.26126984126984	76	127
455.02907029478456	455.26126984126984	64	127
455.0987301587302	455.20321995464855	40	127
455.2728798185941	457.01437641723356	40	127
455.2728798185941	455.44702947845803	72	127
455.2728798185941	455.44702947845803	60	127
455.2728798185941	455.44702947845803	69	127
455.4586394557823	455.6443990929705	69	127
455.4586394557823	455.6443990929705	72	127
455.4586394557823	455.6443990929705	60	127
455.6560090702948	455.85337868480724	72	127
455.6560090702948	455.85337868480724	60	127
455.6560090702948	455.85337868480724	69	127
455.8649886621315	456.03913832199544	62	127
455.8649886621315	456.03913832199544	69	127
455.8649886621315	456.03913832199544	74	127
455.8649886621315	456.88666666666666	72	127
455.8649886621315	456.88666666666666	84	127
456.062358276644	456.23650793650796	74	127
456.062358276644	456.23650793650796	62	127
456.062358276644	456.23650793650796	69	127
456.2481179138322	456.3990476190476	74	127
456.2481179138322	456.3990476190476	62	127
456.2481179138322	456.3990476190476	69	127
456.4106575963719	456.5383673469388	69	127
456.4106575963719	456.5383673469388	63	127
456.4106575963719	456.5383673469388	75	127
456.5615873015873	456.70090702947846	75	127
456.5615873015873	456.70090702947846	63	127
456.5615873015873	456.70090702947846	69	127
456.7125170068027	456.8750566893424	69	127
456.7125170068027	456.8750566893424	63	127
456.7125170068027	456.8750566893424	75	127
456.88666666666666	457.14208616780047	68	127
456.88666666666666	457.14208616780047	76	127
456.88666666666666	457.14208616780047	64	127
456.88666666666666	457.4091156462585	83	127
456.88666666666666	457.4091156462585	71	127
457.0840362811791	457.1885260770975	41	127
457.15369614512474	457.6877551020408	64	127
457.15369614512474	457.6877551020408	68	127
457.15369614512474	457.6877551020408	71	127
457.24657596371884	457.3510657596372	39	127
457.42072562358277	457.5368253968254	40	127
457.42072562358277	458.3843537414966	83	127
457.42072562358277	458.3843537414966	71	127
457.60648526077097	457.7341950113379	41	127
457.69936507936507	458.268253968254	68	127
457.69936507936507	458.268253968254	71	127
457.69936507936507	458.268253968254	64	127
457.80385487528343	457.93156462585034	39	127
458.0012244897959	458.5468934240363	40	127
458.27986394557826	458.5468934240363	71	127
458.27986394557826	458.5468934240363	76	127
458.27986394557826	458.5468934240363	68	127
458.55850340136055	458.70943310657594	59	127
458.55850340136055	458.70943310657594	65	127
458.55850340136055	459.4408616780045	71	127
458.55850340136055	459.4408616780045	83	127
458.55850340136055	458.70943310657594	71	127
458.55850340136055	459.4408616780045	44	127
458.7210430839002	458.88358276643993	65	127
458.7210430839002	458.88358276643993	71	127
458.7210430839002	458.88358276643993	59	127
458.8951927437642	459.0345124716553	71	127
458.8951927437642	459.0345124716553	59	127
458.8951927437642	459.0345124716553	65	127
459.0461224489796	459.2318820861678	65	127
459.0461224489796	459.2318820861678	61	127
459.0461224489796	459.2318820861678	73	127
459.24349206349206	459.42925170068025	65	127
459.24349206349206	459.42925170068025	73	127
459.24349206349206	459.42925170068025	61	127
459.4408616780045	459.6150113378685	65	127
459.4408616780045	459.6150113378685	61	127
459.4408616780045	459.6150113378685	73	127
459.6266213151927	459.8239909297052	65	127
459.6266213151927	460.24195011337866	71	127
459.6266213151927	459.8239909297052	74	127
459.6266213151927	459.8239909297052	62	127
459.6266213151927	460.24195011337866	83	127
459.6266213151927	460.24195011337866	43	127
459.83560090702946	460.0329705215419	65	127
459.83560090702946	460.0329705215419	62	127
459.83560090702946	460.0329705215419	74	127
460.0445804988662	460.24195011337866	62	127
460.0445804988662	460.24195011337866	65	127
460.0445804988662	460.24195011337866	74	127
460.25356009070293	463.64367346938775	86	127
460.25356009070293	463.64367346938775	74	127
460.25356009070293	460.38126984126984	42	127
460.4509297052154	460.5786394557823	42	127
460.5438095238095	461.06625850340134	66	127
460.5438095238095	461.06625850340134	74	127
460.5438095238095	461.06625850340134	62	127
460.5438095238095	461.06625850340134	71	127
460.6134693877551	460.74117913832197	42	127
460.8108390022676	460.9385487528345	42	127
461.00820861678005	461.1126984126984	42	127
461.0894784580499	461.60031746031746	62	127
461.0894784580499	461.60031746031746	66	127
461.0894784580499	461.60031746031746	74	127
461.0894784580499	461.60031746031746	71	127
461.182358276644	461.28684807256235	42	127
461.3565079365079	461.47260770975055	42	127
461.5306575963719	461.64675736961453	42	127
461.6119274376417	461.9021768707483	71	127
461.6119274376417	461.9021768707483	66	127
461.6119274376417	461.9021768707483	74	127
461.6119274376417	461.9021768707483	78	127
461.7164172335601	461.844126984127	42	127
461.91378684807256	463.77138321995466	42	127
461.91378684807256	462.0879365079365	74	127
461.91378684807256	462.0879365079365	62	127
461.91378684807256	462.0879365079365	71	127
462.0879365079365	462.2736961451247	74	127
462.0879365079365	462.2736961451247	62	127
462.0879365079365	462.2736961451247	71	127
462.2969160997732	462.4826757369614	74	127
462.2969160997732	462.4826757369614	62	127
462.2969160997732	462.4826757369614	71	127
462.4942857142857	462.6684353741497	76	127
462.4942857142857	462.6684353741497	64	127
462.4942857142857	462.6684353741497	71	127
462.68004535147395	462.8541950113379	76	127
462.68004535147395	462.8541950113379	64	127
462.68004535147395	462.8541950113379	71	127
462.86580498866215	463.05156462585035	71	127
462.86580498866215	463.05156462585035	64	127
462.86580498866215	463.05156462585035	76	127
463.0631746031746	463.2605442176871	77	127
463.0631746031746	463.2605442176871	65	127
463.0631746031746	463.2605442176871	71	127
463.27215419501135	463.4463038548753	71	127
463.27215419501135	463.4463038548753	65	127
463.27215419501135	463.4463038548753	77	127
463.45791383219955	463.6320634920635	65	127
463.45791383219955	463.6320634920635	71	127
463.45791383219955	463.6320634920635	77	127
463.64367346938775	466.53455782312926	73	127
463.64367346938775	463.89909297052156	78	127
463.64367346938775	463.89909297052156	66	127
463.64367346938775	463.89909297052156	71	127
463.64367346938775	466.53455782312926	85	127
463.80621315192747	463.9455328798186	43	127
463.9107029478458	464.46798185941043	66	127
463.9107029478458	464.46798185941043	73	127
463.9107029478458	464.46798185941043	71	127
464.01519274376415	464.14290249433105	41	127
464.2009523809524	464.31705215419504	42	127
464.3867120181406	464.50281179138324	43	127
464.4795918367347	465.06009070294783	66	127
464.4795918367347	465.06009070294783	73	127
464.4795918367347	465.06009070294783	71	127
464.5724716553288	464.71179138322	41	127
464.76984126984127	464.90916099773244	42	127
464.978820861678	465.1065306122449	43	127
465.0717006802721	465.36195011337867	78	127
465.0717006802721	465.36195011337867	73	127
465.0717006802721	465.36195011337867	71	127
465.17619047619047	465.3039002267574	41	127
465.37356009070294	466.36040816326533	42	127
465.6638095238095	466.25591836734696	70	127
465.6638095238095	466.25591836734696	73	127
465.6638095238095	466.25591836734696	66	127
466.2675283446712	466.522947845805	70	127
466.2675283446712	466.522947845805	66	127
466.2675283446712	466.522947845805	73	127
466.53455782312926	466.8015873015873	78	127
466.53455782312926	466.8015873015873	70	127
466.53455782312926	466.8015873015873	73	127
466.81319727891156	470.2497505668934	72	127
466.81319727891156	467.7536054421769	51	127
466.81319727891156	470.2497505668934	84	127
467.1150566893424	467.6607256235828	69	127
467.1150566893424	467.6607256235828	72	127
467.1150566893424	467.6607256235828	66	127
467.67233560090705	468.22961451247164	66	127
467.67233560090705	468.22961451247164	69	127
467.67233560090705	468.22961451247164	72	127
468.2412244897959	468.4734240362812	72	127
468.2412244897959	468.4734240362812	69	127
468.2412244897959	468.4734240362812	77	127
468.48503401360546	468.5895238095238	39	127
468.5895238095238	468.6824036281179	40	127
468.6824036281179	468.775283446712	39	127
468.775283446712	468.8681632653061	40	127
468.775283446712	469.3441723356009	69	127
468.775283446712	469.3441723356009	72	127
468.775283446712	469.3441723356009	66	127
468.8681632653061	468.9610430839002	39	127
468.9610430839002	469.0655328798186	40	127
469.0655328798186	469.17002267573696	39	127
469.17002267573696	469.26290249433106	40	127
469.26290249433106	469.35578231292516	39	127
469.35578231292516	469.44866213151926	40	127
469.35578231292516	469.9246712018141	69	127
469.35578231292516	469.9246712018141	72	127
469.35578231292516	469.9246712018141	66	127
469.44866213151926	469.5531519274376	39	127
469.5531519274376	469.6460317460317	40	127
469.6460317460317	469.7389115646258	39	127
469.7389115646258	469.8434013605442	40	127
469.8434013605442	469.93628117913835	39	127
469.93628117913835	470.05238095238093	40	127
469.93628117913835	470.2381405895692	69	127
469.93628117913835	470.2381405895692	77	127
469.93628117913835	470.2381405895692	72	127
470.05238095238093	470.1568707482993	37	127
470.1568707482993	470.2497505668934	39	127
470.2497505668934	473.7327437641723	71	127
470.2497505668934	470.3890702947846	40	127
470.2497505668934	473.7327437641723	83	127
470.45873015873013	470.58643990929704	41	127
470.5516099773243	471.1321088435374	69	127
470.5516099773243	471.1321088435374	71	127
470.5516099773243	471.1321088435374	64	127
470.65609977324266	470.7838095238095	39	127
470.8534693877551	470.99278911564625	40	127
471.0392290249433	471.16693877551023	41	127
471.1437188208617	471.6777777777778	69	127
471.1437188208617	471.6777777777778	71	127
471.1437188208617	471.6777777777778	64	127
471.2365986394558	471.3759183673469	39	127
471.44557823129253	471.56167800453517	40	127
471.6081179138322	471.7242176870748	41	127
471.689387755102	471.9564172335601	69	127
471.689387755102	471.9564172335601	76	127
471.689387755102	471.9564172335601	71	127
471.7938775510204	471.89836734693876	39	127
471.9680272108844	472.9316553287982	40	127
472.25827664399094	472.8271655328798	71	127
472.25827664399094	472.8271655328798	68	127
472.25827664399094	472.8271655328798	64	127
472.8387755102041	473.4192743764172	64	127
472.8387755102041	473.4192743764172	71	127
472.8387755102041	473.4192743764172	68	127
473.44249433106575	473.7211337868481	76	127
473.44249433106575	473.7211337868481	68	127
473.44249433106575	473.7211337868481	71	127
473.7327437641723	475.8109297052154	82	127
473.7327437641723	473.88367346938776	40	127
473.7327437641723	475.8109297052154	70	127
473.9533333333333	474.0810430839002	41	127
474.0462131519274	474.6267120181406	67	127
474.0462131519274	474.6267120181406	70	127
474.0462131519274	474.6267120181406	61	127
474.1507029478458	474.2668027210884	43	127
474.33646258503404	474.4641723356009	40	127
474.5338321995465	474.67315192743763	41	127
474.6383219954649	475.1956009070295	67	127
474.6383219954649	475.1956009070295	70	127
474.6383219954649	475.1956009070295	61	127
474.731201814059	474.8589115646258	43	127
474.9169614512472	475.0446712018141	40	127
475.11433106575964	475.24204081632655	41	127
475.218820861678	475.4974603174603	67	127
475.218820861678	475.4974603174603	70	127
475.218820861678	475.4974603174603	73	127
475.3117006802721	475.439410430839	43	127
475.5090702947846	476.48430839002265	40	127
475.8109297052154	476.37981859410434	67	127
475.8109297052154	476.37981859410434	70	127
475.8109297052154	476.37981859410434	60	127
476.0895691609977	476.6816780045352	84	127
476.0895691609977	476.6816780045352	72	127
476.39142857142855	476.97192743764174	70	127
476.39142857142855	476.97192743764174	67	127
476.39142857142855	476.97192743764174	60	127
476.6816780045352	477.2737868480726	67	127
476.6816780045352	477.2737868480726	79	127
476.983537414966	477.2621768707483	70	127
476.983537414966	477.2621768707483	72	127
476.983537414966	477.2621768707483	67	127
477.2737868480726	477.8891156462585	82	127
477.2737868480726	477.4131065759637	41	127
477.2737868480726	477.8891156462585	70	127
477.4943764172336	477.62208616780043	43	127
477.5872562358277	478.19097505668935	60	127
477.5872562358277	478.19097505668935	68	127
477.5872562358277	478.19097505668935	65	127
477.69174603174605	477.8194557823129	44	127
477.8891156462585	478.51605442176873	68	127
477.8891156462585	478.0168253968254	41	127
477.8891156462585	478.51605442176873	80	127
478.086485260771	478.2374149659864	43	127
478.2025850340136	478.78308390022676	68	127
478.2025850340136	478.78308390022676	65	127
478.2025850340136	478.78308390022676	60	127
478.307074829932	478.4463945578231	44	127
478.51605442176873	478.6437641723356	41	127
478.51605442176873	479.0733333333333	79	127
478.51605442176873	479.0733333333333	67	127
478.69020408163266	478.81791383219957	43	127
478.794693877551	479.06172335600905	72	127
478.794693877551	479.06172335600905	68	127
478.794693877551	479.06172335600905	65	127
478.8875736961451	479.01528344671203	44	127
479.0733333333333	479.68866213151927	77	127
479.0733333333333	480.09501133786847	41	127
479.0733333333333	479.68866213151927	65	127
479.38680272108843	479.97891156462583	65	127
479.38680272108843	479.97891156462583	61	127
479.38680272108843	479.97891156462583	56	127
479.68866213151927	480.2691609977324	80	127
479.68866213151927	480.2691609977324	68	127
479.9905215419501	480.5710204081633	56	127
479.9905215419501	480.5710204081633	65	127
479.9905215419501	480.5710204081633	61	127
480.2691609977324	480.86126984126986	73	127
480.2691609977324	480.86126984126986	61	127
480.5826303854875	480.86126984126986	65	127
480.5826303854875	480.86126984126986	65	127
480.5826303854875	480.86126984126986	68	127
480.5826303854875	480.86126984126986	61	127
480.88448979591834	481.9061678004535	43	127
480.88448979591834	483.7869841269841	72	127
480.88448979591834	483.7869841269841	60	127
481.18634920634923	481.7900680272109	55	127
481.18634920634923	481.7900680272109	63	127
481.18634920634923	481.7900680272109	60	127
481.8016780045351	482.3937868480726	60	127
481.8016780045351	482.3937868480726	63	127
481.8016780045351	482.3937868480726	55	127
482.40539682539685	482.64920634920634	63	127
482.40539682539685	482.64920634920634	67	127
482.40539682539685	482.64920634920634	60	127
482.55632653061224	482.64920634920634	54	127
482.6724263038549	483.6128344671202	55	127
482.9510657596372	483.5083446712018	55	127
482.9510657596372	483.5083446712018	63	127
482.9510657596372	483.5083446712018	60	127
483.5199546485261	484.0772335600907	55	127
483.5199546485261	484.0772335600907	63	127
483.5199546485261	484.0772335600907	60	127
483.7985941043084	484.9828117913832	51	127
483.7985941043084	484.9828117913832	63	127
484.08884353741496	484.3790929705215	63	127
484.08884353741496	484.3790929705215	67	127
484.08884353741496	484.3790929705215	60	127
484.2397732426304	484.3790929705215	43	127
484.3907029478458	484.5184126984127	41	127
484.58807256235826	484.71578231292517	43	127
484.68095238095236	485.3078911564626	61	127
484.68095238095236	485.3078911564626	56	127
484.68095238095236	485.3078911564626	65	127
484.80866213151927	484.9247619047619	44	127
484.9828117913832	485.59814058956914	65	127
484.9828117913832	485.1221315192744	41	127
484.9828117913832	485.59814058956914	53	127
485.22662131519274	485.35433106575965	43	127
485.31950113378684	485.9	56	127
485.31950113378684	485.9	61	127
485.31950113378684	485.9	65	127
485.4239909297052	485.5284807256236	44	127
485.59814058956914	486.2366893424036	55	127
485.59814058956914	485.72585034013605	43	127
485.59814058956914	486.2366893424036	67	127
485.8071201814059	485.9348299319728	41	127
485.91160997732425	486.22507936507935	65	127
485.91160997732425	486.22507936507935	61	127
485.91160997732425	486.22507936507935	68	127
486.0160997732426	486.1554195011338	39	127
486.2366893424036	486.828798185941	37	127
486.2366893424036	486.8404081632653	65	127
486.2366893424036	486.8404081632653	53	127
486.53854875283446	487.0958276643991	56	127
486.53854875283446	487.0958276643991	65	127
486.53854875283446	487.0958276643991	61	127
486.8404081632653	487.4092970521542	68	127
486.8404081632653	487.4092970521542	56	127
487.1074376417234	487.6995464852608	56	127
487.1074376417234	487.6995464852608	65	127
487.1074376417234	487.6995464852608	61	127
487.4092970521542	487.98979591836735	61	127
487.4092970521542	487.98979591836735	41	127
487.4092970521542	487.98979591836735	49	127
487.71115646258505	487.98979591836735	61	127
487.71115646258505	487.98979591836735	68	127
487.71115646258505	487.98979591836735	65	127
488.0014058956916	488.93020408163267	43	127
488.0014058956916	490.9619501133787	60	127
488.0014058956916	490.9619501133787	48	127
488.30326530612246	488.81410430839003	55	127
488.30326530612246	488.81410430839003	63	127
488.30326530612246	488.81410430839003	60	127
488.8257142857143	489.42943310657597	60	127
488.8257142857143	489.42943310657597	63	127
488.8257142857143	489.42943310657597	55	127
489.44104308390024	489.7312925170068	63	127
489.44104308390024	489.7312925170068	67	127
489.44104308390024	489.7312925170068	60	127
489.59197278911563	489.7429024943311	54	127
489.7429024943311	490.7761904761905	55	127
490.06798185941045	490.6717006802721	55	127
490.06798185941045	490.6717006802721	63	127
490.06798185941045	490.6717006802721	60	127
490.6717006802721	491.25219954648526	55	127
490.6717006802721	491.25219954648526	63	127
490.6717006802721	491.25219954648526	60	127
490.97356009070296	492.07650793650794	51	127
490.97356009070296	492.07650793650794	63	127
491.2638095238095	491.5540589569161	63	127
491.2638095238095	491.5540589569161	67	127
491.2638095238095	491.5540589569161	60	127
491.4147392290249	491.5540589569161	43	127
491.5540589569161	491.681768707483	41	127
491.75142857142856	491.8675283446712	43	127
491.85591836734693	492.35514739229023	56	127
491.85591836734693	492.35514739229023	65	127
491.85591836734693	492.35514739229023	61	127
491.902358276644	492.01845804988665	44	127
492.07650793650794	492.6802267573696	53	127
492.07650793650794	492.20421768707484	41	127
492.07650793650794	492.6802267573696	65	127
492.2738775510204	492.4015873015873	43	127
492.3667573696145	492.98208616780045	65	127
492.3667573696145	492.98208616780045	61	127
492.3667573696145	492.98208616780045	56	127
492.4712471655329	492.61056689342405	44	127
492.6802267573696	492.8079365079365	43	127
492.6802267573696	493.29555555555555	67	127
492.6802267573696	493.29555555555555	55	127
492.88920634920635	493.0285260770975	41	127
492.9936961451247	493.2839455782313	61	127
492.9936961451247	493.2839455782313	68	127
492.9936961451247	493.2839455782313	65	127
493.0981859410431	493.22589569161	39	127
493.29555555555555	493.8528344671202	37	127
493.29555555555555	493.8644444444444	53	127
493.29555555555555	493.8644444444444	65	127
493.5858049886621	494.1895238095238	65	127
493.5858049886621	494.1895238095238	61	127
493.5858049886621	494.1895238095238	56	127
493.8644444444444	494.52621315192744	68	127
493.8644444444444	494.52621315192744	56	127
494.20113378684806	494.83968253968254	65	127
494.20113378684806	494.83968253968254	56	127
494.20113378684806	494.83968253968254	61	127
494.52621315192744	495.1299319727891	49	127
494.52621315192744	494.74680272108844	41	127
494.52621315192744	495.1299319727891	61	127
494.8512925170068	495.1299319727891	65	127
494.8512925170068	495.1299319727891	68	127
494.8512925170068	495.1299319727891	61	127
495.1415419501134	496.19804988662133	43	127
495.1415419501134	498.2994557823129	60	127
495.1415419501134	498.2994557823129	48	127
495.4898412698413	496.0819501133787	55	127
495.4898412698413	496.0819501133787	63	127
495.4898412698413	496.0819501133787	60	127
496.09356009070297	496.7669387755102	60	127
496.09356009070297	496.7669387755102	63	127
496.09356009070297	496.7669387755102	55	127
496.77854875283447	497.06879818594103	63	127
496.77854875283447	497.06879818594103	67	127
496.77854875283447	497.06879818594103	60	127
496.9294784580499	497.0804081632653	53	127
497.0804081632653	498.10208616780045	55	127
497.38226757369614	497.9859863945578	60	127
497.38226757369614	497.9859863945578	55	127
497.38226757369614	497.9859863945578	63	127
497.9975963718821	498.60131519274375	60	127
497.9975963718821	498.60131519274375	63	127
497.9975963718821	498.60131519274375	55	127
498.2994557823129	498.91478458049886	63	127
498.2994557823129	498.91478458049886	51	127
498.612925170068	498.91478458049886	67	127
498.612925170068	498.91478458049886	60	127
498.612925170068	498.91478458049886	63	127
498.7754648526077	498.92639455782313	42	127
498.92639455782313	502.1191383219955	63	127
498.92639455782313	499.936462585034	43	127
498.92639455782313	502.1191383219955	51	127
499.22825396825397	499.83197278911564	55	127
499.22825396825397	499.83197278911564	65	127
499.22825396825397	499.83197278911564	59	127
499.8435827664399	500.4124716553288	65	127
499.8435827664399	500.4124716553288	55	127
499.8435827664399	500.4124716553288	59	127
500.42408163265304	500.77238095238096	65	127
500.42408163265304	500.77238095238096	67	127
500.42408163265304	500.77238095238096	59	127
500.7839909297052	501.8869387755102	43	127
501.08585034013606	501.7360090702948	55	127
501.08585034013606	501.7360090702948	65	127
501.08585034013606	501.7360090702948	59	127
501.78244897959183	502.96666666666664	59	127
501.78244897959183	502.96666666666664	65	127
501.78244897959183	502.96666666666664	55	127
502.1191383219955	503.3265759637188	62	127
502.1191383219955	503.3265759637188	50	127
502.9782766439909	503.3265759637188	65	127
502.9782766439909	503.3265759637188	67	127
502.9782766439909	503.3265759637188	59	127
503.3381859410431	504.568843537415	62	127
503.3381859410431	504.568843537415	59	127
503.3381859410431	504.568843537415	56	127
503.3381859410431	504.568843537415	50	127
503.3381859410431	504.568843537415	41	127
507.6106575963719	507.7848072562358	62	127
507.6106575963719	507.7848072562358	59	127
507.6106575963719	507.7848072562358	56	127
507.6106575963719	507.7848072562358	50	127
507.6106575963719	507.7848072562358	41	127
507.7964172335601	509.47986394557824	62	127
507.7964172335601	509.47986394557824	59	127
507.7964172335601	509.47986394557824	56	127
507.7964172335601	509.47986394557824	50	127
507.7964172335601	509.47986394557824	41	127
512.3591383219955	512.7422675736962	62	127
512.3591383219955	512.7422675736962	59	127
512.3591383219955	512.7422675736962	56	127
512.3591383219955	512.7422675736962	50	127
512.3591383219955	512.7422675736962	41	127
512.7654875283447	513.7175056689342	62	127
512.7654875283447	513.7175056689342	59	127
512.7654875283447	513.7175056689342	50	127
512.7654875283447	514.147074829932	54	127
512.7654875283447	514.147074829932	42	127
513.7175056689342	514.3560544217687	61	127
513.7175056689342	514.3560544217687	58	127
513.7175056689342	514.3560544217687	49	127
517.4443083900227	517.8390476190476	66	127
517.4443083900227	517.8622675736962	73	127
517.4443083900227	517.8622675736962	70	127
517.8622675736962	518.4775963718821	74	127
517.8622675736962	518.4775963718821	71	127
517.8622675736962	518.8955555555556	66	127
518.4775963718821	519.092925170068	73	127
518.4775963718821	519.092925170068	70	127
522.9009977324263	524.212925170068	60	127
522.9009977324263	524.212925170068	57	127
522.9009977324263	524.212925170068	54	127
522.9009977324263	524.212925170068	48	127
522.9009977324263	524.212925170068	39	127
527.2663492063492	527.4288888888889	60	127
527.2663492063492	527.4288888888889	57	127
527.2663492063492	527.4288888888889	54	127
527.2663492063492	527.4288888888889	48	127
527.2663492063492	527.4288888888889	39	127
527.4404988662131	528.9149659863946	60	127
527.4404988662131	528.9149659863946	57	127
527.4404988662131	528.9149659863946	54	127
527.4404988662131	528.9149659863946	48	127
527.4404988662131	528.9149659863946	39	127
532.0728571428572	532.4908390022675	60	127
532.0728571428572	532.4908390022675	57	127
532.0728571428572	532.4908390022675	54	127
532.0728571428572	532.4908390022675	48	127
532.0728571428572	532.4908390022675	39	127
532.5256689342403	533.6750566893425	60	127
532.5256689342403	533.6750566893425	57	127
532.5256689342403	533.6750566893425	48	127
532.5256689342403	534.1742857142857	52	127
532.5256689342403	534.1742857142857	40	127
533.6750566893425	534.3948752834467	56	127
533.6750566893425	534.3948752834467	59	127
533.6750566893425	534.3948752834467	47	127
537.6688888888889	537.9126984126984	71	127
537.6688888888889	537.9126984126984	68	127
537.6688888888889	537.9010884353742	64	127
537.9126984126984	538.9459863945578	72	127
537.9126984126984	538.9459863945578	69	127
537.9126984126984	539.4568253968254	64	127
538.9459863945578	539.6774149659864	71	127
538.9459863945578	539.6774149659864	68	127
543.0907482993198	543.9614965986394	44	127
543.0907482993198	543.9731065759637	60	127
543.0907482993198	543.9731065759637	54	127
543.0907482993198	543.9731065759637	51	127
543.9731065759637	545.8539229024943	63	127
543.9731065759637	545.8539229024943	54	127
543.9731065759637	545.8539229024943	48	127
543.9731065759637	546.364739229025	45	127
545.8539229024943	546.6434013605442	61	127
545.8539229024943	546.6434013605442	52	127
545.8539229024943	546.6434013605442	49	127
551.4963492063492	556.0474829931973	61	127
551.4963492063492	556.0474829931973	57	127
551.4963492063492	556.0474829931973	49	127
551.4963492063492	556.0474829931973	45	127
551.4963492063492	560.842403628118	52	127
556.0474829931973	567.2511111111111	59	127
556.0474829931973	560.842403628118	56	127
556.0474829931973	563.40820861678	52	127
556.0474829931973	565.4980045351474	47	127
560.842403628118	565.4980045351474	54	127
560.842403628118	565.4980045351474	57	127
563.40820861678	565.6605442176871	51	127
565.9159637188209	566.7518820861678	52	127
565.9159637188209	566.7518820861678	52	127
565.9159637188209	566.7634920634921	56	127
566.1713832199547	566.4267800453515	39	127
566.4267800453515	566.6009523809524	40	127
566.6009523809524	566.7634920634921	39	127
566.7634920634921	574.1126077097506	59	127
566.7634920634921	566.9260317460318	40	127
566.7634920634921	570.0723356009071	68	127
566.7634920634921	573.3695464852608	64	127
566.9260317460318	567.1350113378685	43	127
567.1350113378685	567.3091609977324	44	127
567.3091609977324	567.4717006802721	43	127
567.4717006802721	567.6342176870749	44	127
567.6342176870749	567.8316099773243	46	127
567.8316099773243	568.0057596371882	47	127
568.0057596371882	568.2263492063493	46	127
568.2263492063493	568.4121088435375	47	127
568.4121088435375	568.5630385487528	51	127
568.5630385487528	568.7836281179138	80	127
568.5630385487528	568.7255782312925	52	127
568.7255782312925	568.9113378684807	51	127
568.9113378684807	569.1319274376417	78	127
568.9113378684807	569.2248072562359	52	127
569.2364172335601	569.4802040816327	76	127
569.6079365079365	569.8285260770975	75	127
569.9330158730158	570.2000453514739	73	127
570.3161451247165	570.641224489796	71	127
570.3161451247165	573.3695464852608	68	127
570.641224489796	570.8385941043084	39	127
570.641224489796	570.9314739229025	68	127
570.954693877551	571.3145804988662	39	127
571.3145804988662	571.5351700680272	71	127
571.3145804988662	571.6396825396826	40	127
571.6512925170068	572.0228117913832	40	127
571.6512925170068	572.0228117913832	71	127
572.0228117913832	572.6381405895692	73	127
572.0228117913832	572.6381405895692	39	127
572.6497505668934	572.986439909297	71	127
572.6497505668934	572.986439909297	39	127
572.986439909297	573.3579365079365	40	127
572.986439909297	573.3579365079365	68	127
573.3695464852608	574.1126077097506	66	127
573.3695464852608	574.1126077097506	63	127
573.7642857142857	574.1009977324263	71	127
574.1126077097506	574.925306122449	64	127
574.1126077097506	574.925306122449	59	127
574.1126077097506	574.925306122449	56	127
574.5073469387755	574.925306122449	76	127
574.9369160997733	578.7449886621315	66	127
574.9369160997733	575.2852154195011	75	127
574.9369160997733	582.8665306122449	63	127
574.9369160997733	582.6459410430839	59	127
575.0994557823129	575.2852154195011	46	127
575.2852154195011	575.6218820861678	83	127
575.2852154195011	575.459365079365	47	127
575.459365079365	575.6451247165533	46	127
575.6451247165533	575.8889342403628	47	127
575.8889342403628	576.0514739229025	50	127
576.0514739229025	576.202403628118	51	127
576.202403628118	576.3649433106576	50	127
576.3649433106576	576.515873015873	51	127
576.515873015873	576.6784126984127	53	127
576.6784126984127	576.8409297052154	54	127
576.8409297052154	577.0151020408164	53	127
577.0151020408164	577.177641723356	54	127
577.177641723356	577.35179138322	58	127
577.35179138322	577.5839909297052	85	127
577.35179138322	577.5259410430839	59	127
577.5259410430839	577.6884807256235	58	127
577.6884807256235	578.0251700680273	59	127
577.6884807256235	577.9322902494331	83	127
578.0367800453515	578.2573696145125	81	127
578.3618594104308	578.5940589569161	80	127
578.7449886621315	578.9771882086168	78	127
579.0816553287982	581.6823129251701	66	127
579.0816553287982	579.511224489796	76	127
579.511224489796	579.824716553288	75	127
579.511224489796	579.7318367346938	46	127
579.8595464852608	580.2194557823129	46	127
580.2194557823129	580.4168253968254	75	127
580.2194557823129	580.5212925170068	47	127
580.5329024943311	580.9857142857143	47	127
580.5329024943311	580.9857142857143	75	127
580.9857142857143	581.3339909297052	78	127
580.9857142857143	581.3339909297052	46	127
581.3456009070295	581.6823129251701	78	127
581.3456009070295	581.6823129251701	46	127
581.6823129251701	582.1234920634921	75	127
581.6823129251701	582.1234920634921	47	127
582.1351020408164	582.8665306122449	66	127
582.5298412698413	582.8549206349206	83	127
582.5298412698413	582.7736281179139	47	127
582.8665306122449	583.1103401360544	45	127
582.8665306122449	583.574739229025	68	127
582.8665306122449	583.574739229025	65	127
582.8665306122449	583.574739229025	59	127
583.2380498866213	583.4702494331066	44	127
583.2380498866213	583.574739229025	85	127
583.5863265306123	583.9230385487529	86	127
583.5863265306123	587.9633106575964	69	127
583.5863265306123	587.9633106575964	66	127
583.5863265306123	587.9633106575964	61	127
583.7604988662132	583.9230385487529	41	127
583.9230385487529	584.4687074829932	85	127
583.9230385487529	584.0855782312925	42	127
584.0855782312925	584.4919274376417	41	127
584.4919274376417	584.6660770975056	42	127
584.6660770975056	584.8402267573696	44	127
584.8402267573696	585.0027664399094	45	127
585.0027664399094	585.165306122449	44	127
585.165306122449	585.3394557823129	45	127
585.3394557823129	585.5019954648526	48	127
585.5019954648526	585.6645351473923	49	127
585.6645351473923	585.8851247165533	48	127
585.8851247165533	586.0708843537415	49	127
586.0708843537415	586.2682539682539	53	127
586.2682539682539	586.4307936507937	54	127
586.2682539682539	586.4888435374149	81	127
586.4307936507937	586.5933333333334	53	127
586.5933333333334	586.9648526077098	54	127
586.5933333333334	586.8487301587302	80	127
586.976462585034	587.197052154195	78	127
587.3015419501133	587.5221315192744	76	127
587.6266213151928	587.8472108843538	74	127
587.9633106575964	592.2241723356009	69	127
587.9633106575964	588.4973469387755	74	127
587.9633106575964	589.6467573696145	62	127
587.9633106575964	592.2241723356009	66	127
588.4973469387755	588.7527891156462	42	127
588.4973469387755	588.8921088435375	73	127
588.9036961451247	589.2984580498867	42	127
588.9036961451247	589.2984580498867	73	127
589.2984580498867	589.6351473922903	72	127
589.2984580498867	589.6351473922903	45	127
589.6467573696145	590.0066666666667	45	127
589.6467573696145	590.0066666666667	72	127
589.6467573696145	592.3750793650794	61	127
590.0066666666667	590.3201360544218	42	127
590.0066666666667	590.3201360544218	73	127
590.3317233560091	590.6684353741497	45	127
590.3317233560091	590.6684353741497	73	127
590.6684353741497	590.993514739229	69	127
590.6684353741497	590.993514739229	42	127
591.0167346938775	591.3185941043084	40	127
591.4230839002267	591.8410430839002	73	127
591.8526530612245	592.2125623582766	39	127
592.2241723356009	592.5840589569161	78	127
592.6073015873015	595.5097959183673	66	127
592.6073015873015	593.1065306122449	80	127
592.6073015873015	599.1669387755102	68	127
592.6073015873015	601.3844217687075	61	127
592.9207709750567	593.1065306122449	36	127
593.1065306122449	593.4432199546485	85	127
593.1065306122449	593.2690702947846	37	127
593.2690702947846	593.4548299319728	36	127
593.4548299319728	593.6173469387755	37	127
593.6173469387755	593.8263265306123	40	127
593.8263265306123	594.0004988662132	41	127
594.0004988662132	594.1630385487529	40	127
594.1630385487529	594.3371882086168	41	127
594.3371882086168	594.4997278911565	43	127
594.4997278911565	594.6738775510204	44	127
594.6738775510204	594.8480045351474	43	127
594.8480045351474	595.0221768707484	44	127
595.0221768707484	595.1731065759637	48	127
595.1731065759637	595.405306122449	83	127
595.1731065759637	595.3472562358277	49	127
595.3472562358277	595.5097959183673	50	127
595.5097959183673	595.846462585034	49	127
595.5097959183673	596.2760317460318	65	127
595.5097959183673	595.7303854875283	85	127
595.8580725623583	596.1715646258504	83	127
596.2760317460318	596.995873015873	63	127
596.2760317460318	596.4966439909297	81	127
596.6243537414966	596.8449433106576	80	127
597.0190929705216	600.920045351474	65	127
597.0190929705216	597.390612244898	78	127
597.390612244898	597.6228117913832	36	127
597.390612244898	597.7737414965986	77	127
597.7969614512472	598.1336507936508	36	127
598.1336507936508	598.4703401360545	37	127
598.1336507936508	598.3774603174603	77	127
598.4819501133787	598.8302494331066	77	127
598.4819501133787	598.8302494331066	37	127
598.8302494331066	599.1669387755102	36	127
598.8302494331066	599.1669387755102	80	127
599.1785487528344	599.9912471655329	68	127
599.1785487528344	599.5848979591836	78	127
599.1785487528344	599.5848979591836	36	127
599.5848979591836	599.9563945578232	77	127
599.5848979591836	599.9563945578232	37	127
599.9912471655329	601.0477551020408	73	127
600.4440362811791	600.920045351474	80	127
601.0477551020408	601.6979138321996	71	127
601.0477551020408	601.6979138321996	68	127
601.3844217687075	601.6979138321996	85	127
601.7211337868481	609.3721088435374	70	127
601.7211337868481	602.1274829931973	85	127
601.7211337868481	609.3721088435374	66	127
601.7211337868481	609.3721088435374	61	127
601.9533333333334	602.1274829931973	41	127
602.1274829931973	602.3016326530612	42	127
602.1274829931973	602.4525623582766	82	127
602.3016326530612	602.4641723356009	41	127
602.4641723356009	602.6499319727891	42	127
602.6499319727891	602.8124489795919	45	127
602.8124489795919	602.9750113378685	46	127
602.9750113378685	603.1375510204082	45	127
603.1375510204082	603.3000907029478	46	127
603.3000907029478	603.4626303854875	48	127
603.4626303854875	603.6716099773242	49	127
603.6716099773242	603.834126984127	48	127
603.834126984127	604.0199092970522	49	127
604.0199092970522	604.1824489795919	53	127
604.1824489795919	604.4030385487529	73	127
604.1824489795919	604.3449886621315	54	127
604.3449886621315	604.5075283446712	56	127
604.5075283446712	604.9951473922903	75	127
604.5075283446712	605.1112471655329	54	127
605.1228571428571	605.3550566893424	77	127
605.4943764172335	605.7033560090703	78	127
605.819455782313	606.0284353741497	80	127
606.1445351473923	606.4696145124717	82	127
606.4696145124717	606.9340136054421	78	127
606.4696145124717	606.794693877551	41	127
606.9456235827664	607.2707029478458	41	127
607.2707029478458	607.5144897959184	78	127
607.2707029478458	607.6073922902494	42	127
607.6190022675737	607.9789115646258	78	127
607.6190022675737	607.9789115646258	42	127
607.9789115646258	608.3620408163265	82	127
607.9789115646258	608.3620408163265	41	127
608.3736507936508	608.8612698412699	82	127
608.3736507936508	608.8612698412699	41	127
608.8612698412699	609.3721088435374	78	127
608.8612698412699	609.3721088435374	42	127
609.3837188208616	609.9293877551021	70	127
609.3837188208616	609.9293877551021	66	127
609.3837188208616	609.9293877551021	61	127
609.7900680272109	610.103537414966	82	127
610.1267573696146	610.3357369614513	71	127
610.1267573696146	610.3357369614513	68	127
610.1267573696146	610.3357369614513	61	127
610.4518367346939	610.765306122449	83	127
610.7768934240363	613.3543310657597	61	127
610.7768934240363	613.3543310657597	73	127
610.7768934240363	611.1484353741497	85	127
610.7768934240363	613.3543310657597	70	127
610.985873015873	611.1484353741497	41	127
611.1484353741497	611.3458049886622	42	127
611.1484353741497	611.5547845804989	82	127
611.3458049886622	611.5780045351474	41	127
611.5780045351474	611.7405442176871	42	127
611.7405442176871	611.9611337868481	45	127
611.9611337868481	612.1236734693878	46	127
612.1236734693878	612.2862131519274	45	127
612.2862131519274	612.4719727891156	46	127
612.4719727891156	612.6693424036281	47	127
612.6693424036281	612.8318594104309	49	127
612.8318594104309	612.9944217687075	46	127
612.9944217687075	613.6561678004535	42	127
613.3543310657597	613.6561678004535	85	127
613.6678004535147	614.1438095238095	68	127
613.6678004535147	614.1438095238095	71	127
613.6678004535147	614.1438095238095	61	127
614.0160997732427	614.341179138322	89	127
614.3643990929705	614.8636054421769	70	127
614.3643990929705	614.8636054421769	66	127
614.3643990929705	614.8636054421769	61	127
615.0493877551021	615.3628571428571	90	127
615.3744671201814	618.9387301587302	61	127
615.3744671201814	615.6414965986395	85	127
615.3744671201814	617.6848526077098	73	127
615.3744671201814	619.4147392290249	70	127
615.5253968253968	615.6414965986395	41	127
615.6414965986395	615.9665759637188	82	127
615.6414965986395	615.8156462585034	42	127
615.8156462585034	615.9781859410431	41	127
615.9781859410431	616.1291156462585	42	127
616.1291156462585	616.3148526077098	45	127
616.3148526077098	616.4774149659864	46	127
616.4774149659864	616.6399546485261	45	127
616.6399546485261	616.8024943310658	46	127
616.8024943310658	616.9650340136054	47	127
616.9650340136054	617.1624036281179	49	127
617.1624036281179	617.3249206349207	46	127
617.3249206349207	617.9983219954648	42	127
617.6848526077098	617.9983219954648	82	127
618.0099319727891	618.9387301587302	78	127
618.5904308390022	618.9155102040817	85	127
618.9387301587302	619.7746258503402	64	127
618.9387301587302	619.7746258503402	74	127
619.4147392290249	619.7746258503402	90	127
619.7862358276644	620.1693877551021	90	127
619.7862358276644	623.5362811791383	63	127
619.7862358276644	622.8745124716553	75	127
619.7862358276644	622.8745124716553	71	127
619.9487981859411	620.1693877551021	46	127
620.1693877551021	620.5409070294785	87	127
620.1693877551021	620.3551473922903	47	127
620.3551473922903	620.5525170068028	46	127
620.5525170068028	620.7150566893424	47	127
620.7150566893424	620.8892063492063	50	127
620.8892063492063	621.0633560090703	51	127
621.0633560090703	621.2142630385488	50	127
621.2142630385488	621.3652154195012	51	127
621.3652154195012	621.5625850340136	53	127
621.5625850340136	621.7367346938776	54	127
621.7367346938776	621.9108843537415	53	127
621.9108843537415	622.0734240362812	54	127
622.0734240362812	622.2359410430839	58	127
622.2359410430839	622.5029931972789	78	127
622.2359410430839	622.4333106575964	59	127
622.4333106575964	622.8745124716553	61	127
622.8745124716553	624.0239002267574	75	127
622.8745124716553	623.083492063492	83	127
622.8745124716553	623.524671201814	63	127
622.8745124716553	627.3791836734694	71	127
623.1995918367347	623.4201814058957	85	127
623.5362811791383	624.2328798185941	66	127
623.5362811791383	623.7684807256236	87	127
623.919410430839	624.1283900226757	88	127
624.2444897959184	627.4024036281179	75	127
624.2444897959184	625.7421768707483	66	127
624.2444897959184	624.581179138322	90	127
624.581179138322	624.8249886621315	46	127
624.581179138322	625.022358276644	87	127
625.0455782312926	625.4054875283447	46	127
625.4054875283447	625.7189342403628	47	127
625.7421768707483	626.171746031746	47	127
625.7421768707483	626.171746031746	78	127
625.7421768707483	626.566485260771	63	127
626.171746031746	626.5548752834467	75	127
626.171746031746	626.5548752834467	46	127
626.566485260771	628.2615419501134	59	127
626.566485260771	627.05410430839	78	127
626.566485260771	627.05410430839	46	127
627.05410430839	627.3791836734694	47	127
627.05410430839	627.3791836734694	75	127
627.4024036281179	628.2499319727891	44	127
627.4024036281179	628.2615419501134	71	127
627.4024036281179	628.2615419501134	65	127
627.4024036281179	627.8668027210884	83	127
627.8668027210884	628.2499319727891	77	127
628.2615419501134	629.3180498866213	61	127
628.2615419501134	628.7607709750567	78	127
628.2615419501134	628.7839682539683	46	127
628.2615419501134	629.3180498866213	70	127
628.2615419501134	629.3180498866213	66	127
628.992947845805	629.2367800453515	47	127
628.992947845805	629.2367800453515	87	127
629.3296598639456	633.4743990929705	68	127
629.3296598639456	629.6779591836735	49	127
629.3296598639456	629.7824489795919	85	127
629.3296598639456	633.4743990929705	61	127
629.3296598639456	635.9821768707483	66	127
629.7824489795919	630.0959183673469	80	127
630.1307482993197	630.5022675736961	48	127
630.5022675736961	630.7344671201814	73	127
630.5022675736961	630.8157142857143	49	127
630.8273242630386	631.0595464852607	49	127
630.8273242630386	631.198866213152	73	127
631.198866213152	631.5239455782313	68	127
631.5355555555556	631.8722448979591	73	127
631.8722448979591	632.1973242630386	74	127
632.2205442176871	632.6501133786849	74	127
632.2205442176871	632.6501133786849	48	127
632.6501133786849	633.0680498866213	49	127
632.6501133786849	633.0680498866213	73	127
633.0796598639456	633.4743990929705	73	127
633.0796598639456	633.3118820861678	49	127
633.4743990929705	633.7995011337869	68	127
633.8111111111111	636.2027664399093	68	127
633.8111111111111	634.2406802721089	75	127
633.8111111111111	635.9821768707483	63	127
633.8111111111111	635.9821768707483	60	127
633.8111111111111	636.2027664399093	60	127
634.2406802721089	634.5889795918367	80	127
634.600589569161	634.9953287981859	48	127
634.9953287981859	635.4481179138322	49	127
635.4597278911565	635.6803174603175	49	127
636.2027664399093	637.0154648526077	59	127
636.2027664399093	636.632335600907	73	127
636.2027664399093	637.0154648526077	61	127
636.2027664399093	637.0154648526077	68	127
636.2027664399093	637.0154648526077	65	127
636.632335600907	636.9806349206349	80	127
637.0154648526077	637.4798639455782	73	127
637.0154648526077	638.0951927437642	61	127
637.0154648526077	638.0951927437642	58	127
637.0154648526077	638.0951927437642	70	127
637.0154648526077	638.0951927437642	66	127
637.4798639455782	638.0835827664399	82	127
638.0951927437642	639.0007482993198	53	127
638.0951927437642	638.2925623582767	83	127
638.0951927437642	639.0007482993198	61	127
638.0951927437642	639.0007482993198	71	127
638.0951927437642	639.0007482993198	68	127
638.2925623582767	638.4667120181406	85	127
638.4667120181406	638.6989115646259	87	127
638.6989115646259	639.0007482993198	85	127
639.012358276644	643.0990702947846	61	127
639.012358276644	639.3955102040817	85	127
639.012358276644	641.0325170068028	54	127
639.012358276644	646.384716553288	70	127
639.012358276644	646.384716553288	66	127
639.2213605442176	639.3955102040817	41	127
639.3955102040817	639.8134467120182	82	127
639.3955102040817	639.5696598639456	42	127
639.5696598639456	639.8250566893424	41	127
639.8250566893424	639.9876190476191	42	127
639.9876190476191	640.1965986394558	45	127
640.1965986394558	640.3939682539683	46	127
640.3939682539683	640.5681179138322	45	127
640.5681179138322	640.7422675736962	46	127
640.7422675736962	640.9164172335601	48	127
640.9164172335601	641.0789569160997	49	127
641.0789569160997	641.311156462585	48	127
641.311156462585	641.485306122449	49	127
641.311156462585	646.384716553288	61	127
641.485306122449	641.6826757369614	53	127
641.6826757369614	641.9380952380952	73	127
641.6826757369614	641.8800453514739	54	127
641.8800453514739	642.0541950113379	56	127
642.0541950113379	642.4024943310658	54	127
642.0541950113379	642.2863718820862	75	127
642.4257142857143	642.6579138321996	77	127
642.7740136054422	642.9946031746032	78	127
643.0990702947846	643.3196825396825	80	127
643.4241723356009	643.7608616780045	82	127
643.7608616780045	644.178820861678	78	127
643.7608616780045	644.085941043084	41	127
644.1904308390023	644.5503401360544	41	127
644.5503401360544	644.8754195011338	42	127
644.5503401360544	644.7825396825397	78	127
644.8870294784581	645.2121088435374	78	127
644.8870294784581	645.2121088435374	42	127
645.2121088435374	645.5487755102041	82	127
645.2121088435374	645.5487755102041	41	127
645.5720181405895	646.0015873015873	41	127
645.5720181405895	646.0015873015873	82	127
646.0015873015873	646.384716553288	42	127
646.0015873015873	646.384716553288	78	127
646.3963265306122	646.9884126984127	70	127
646.3963265306122	646.9884126984127	66	127
646.3963265306122	646.9884126984127	61	127
646.8491156462585	647.1625850340137	82	127
647.1741723356009	647.4412244897959	61	127
647.1741723356009	647.4412244897959	71	127
647.1741723356009	647.4412244897959	68	127
647.5457142857143	647.8707936507936	83	127
647.8824036281179	648.2887528344671	85	127
647.8824036281179	650.4830385487528	73	127
647.8824036281179	650.4830385487528	70	127
647.8824036281179	650.4830385487528	61	127
648.1262131519275	648.2887528344671	41	127
648.2887528344671	648.6138095238096	82	127
648.2887528344671	648.462902494331	42	127
648.462902494331	648.6254421768707	41	127
648.6254421768707	648.811179138322	42	127
648.811179138322	648.985351473923	45	127
648.985351473923	649.2175283446712	46	127
649.2175283446712	649.3800907029479	45	127
649.3800907029479	649.5542403628118	46	127
649.5542403628118	649.74	47	127
649.74	649.9025396825397	49	127
649.9025396825397	650.0766893424036	46	127
650.0766893424036	650.4714285714285	42	127
650.4830385487528	650.8081179138322	85	127
650.8197278911565	651.2957369614512	71	127
650.8197278911565	651.2957369614512	68	127
650.8197278911565	651.2957369614512	61	127
651.1564172335601	651.4698639455783	89	127
651.4814739229025	651.725306122449	66	127
651.4814739229025	651.725306122449	70	127
651.4814739229025	651.725306122449	61	127
652.0039455782313	652.3174149659864	90	127
652.3290249433106	652.6541043083901	85	127
652.3290249433106	655.1850793650793	73	127
652.3290249433106	655.962925170068	61	127
652.3290249433106	655.9513378684808	70	127
652.4915419501134	652.6541043083901	41	127
652.6541043083901	653.0140136054422	82	127
652.6541043083901	652.8398639455783	42	127
652.8398639455783	653.0256235827665	41	127
653.0256235827665	653.1881632653061	42	127
653.1881632653061	653.3507029478458	45	127
653.3507029478458	653.5132199546485	46	127
653.5132199546485	653.6757823129252	45	127
653.6757823129252	653.8499319727891	46	127
653.8499319727891	654.0240816326531	47	127
654.0240816326531	654.1866213151927	49	127
654.1866213151927	654.3607709750567	46	127
654.3607709750567	654.7090702947846	42	127
654.7206802721089	655.1734693877551	82	127
655.1850793650793	655.962925170068	78	127
655.6030385487528	655.9513378684808	85	127
655.962925170068	656.6479365079365	73	127
655.962925170068	656.6479365079365	70	127
655.962925170068	656.6479365079365	66	127
656.3228571428572	656.6479365079365	90	127
656.6595464852608	659.7129705215419	71	127
656.6595464852608	657.2168253968254	90	127
656.6595464852608	659.7129705215419	66	127
656.6595464852608	659.7129705215419	74	127
657.0194557823129	657.2168253968254	46	127
657.2168253968254	657.5419047619048	86	127
657.2168253968254	657.3909750566894	47	127
657.3909750566894	657.5535147392291	46	127
657.5535147392291	657.727664399093	47	127
657.727664399093	657.9366439909297	49	127
657.9366439909297	658.1456235827665	50	127
658.1456235827665	658.3081632653061	49	127
658.3081632653061	658.5171428571429	50	127
658.5171428571429	658.6796825396825	53	127
658.6796825396825	658.830589569161	54	127
658.830589569161	658.9931519274377	53	127
658.9931519274377	659.1556916099773	54	127
659.1556916099773	659.3530612244898	58	127
659.3530612244898	659.5620408163265	78	127
659.3530612244898	659.5156009070295	59	127
659.5156009070295	659.7129705215419	61	127
659.7129705215419	663.6255328798186	71	127
659.7129705215419	660.0148299319728	83	127
659.7129705215419	660.1193197278911	62	127
659.7129705215419	663.5907029478458	66	127
659.7129705215419	663.6255328798186	74	127
660.1309297052154	660.3631292517007	85	127
660.4908390022675	660.7230385487528	86	127
660.8391383219955	661.1177777777777	88	127
661.2338775510204	661.6750566893425	90	127
661.6750566893425	662.011746031746	86	127
661.6750566893425	661.9188662131519	46	127
662.0233560090703	662.3600453514739	46	127
662.3600453514739	662.7431746031746	47	127
662.7663945578231	663.2191836734694	47	127
662.7663945578231	663.2191836734694	78	127
663.2191836734694	663.5907029478458	74	127
663.2191836734694	663.5907029478458	46	127
663.6255328798186	665.2044897959183	62	127
663.6255328798186	663.997052154195	78	127
663.6255328798186	663.997052154195	46	127
663.6255328798186	664.3569387755102	78	127
663.6255328798186	664.3569387755102	66	127
663.997052154195	664.345328798186	74	127
663.997052154195	664.345328798186	47	127
664.3569387755102	665.2044897959183	74	127
664.3569387755102	665.2044897959183	68	127
664.3569387755102	664.8097505668934	86	127
664.3569387755102	665.1928798185941	47	127
664.8097505668934	665.1928798185941	80	127
665.2044897959183	665.5759863945578	49	127
665.2044897959183	665.5759863945578	81	127
665.2044897959183	666.1332879818594	69	127
665.2044897959183	666.1332879818594	64	127
665.2044897959183	666.1332879818594	73	127
665.982335600907	666.0984580498866	90	127
665.982335600907	666.0984580498866	50	127
666.1448979591837	673.2502040816327	69	127
666.1448979591837	666.4815873015873	52	127
666.1448979591837	666.5860770975057	88	127
666.1448979591837	670.394149659864	71	127
666.1448979591837	670.881768707483	64	127
666.5860770975057	666.9227664399093	83	127
666.9343764172336	667.526485260771	51	127
667.526485260771	667.8863945578231	52	127
667.526485260771	667.7935147392291	76	127
667.9096145124716	668.3043537414966	76	127
667.9096145124716	668.1766439909297	52	127
668.3043537414966	668.6178231292517	71	127
668.629433106576	668.9429024943311	76	127
668.9429024943311	669.2795918367347	77	127
669.2912018140589	669.6743083900227	51	127
669.2912018140589	669.6743083900227	77	127
669.6743083900227	670.0342403628118	76	127
669.6743083900227	670.0342403628118	52	127
670.0574603174604	670.394149659864	76	127
670.0574603174604	670.2896371882086	52	127
670.394149659864	670.8701587301588	71	127
670.881768707483	673.2502040816327	63	127
670.881768707483	671.2648979591837	78	127
670.881768707483	673.2502040816327	63	127
670.881768707483	673.2502040816327	66	127
670.881768707483	674.1789795918368	71	127
671.2648979591837	671.5783673469388	83	127
671.589977324263	672.1124263038549	51	127
672.1124263038549	672.4375056689343	52	127
672.4607256235828	672.8554648526077	52	127
673.4707936507937	674.1789795918368	62	127
673.4707936507937	673.8074829931973	76	127
673.4707936507937	674.1789795918368	64	127
673.4707936507937	674.1789795918368	68	127
673.8074829931973	674.1673696145125	83	127
674.1789795918368	675.2239002267573	64	127
674.1789795918368	674.678231292517	76	127
674.1789795918368	675.2239002267573	73	127
674.1789795918368	675.2239002267573	69	127
674.1789795918368	675.2239002267573	61	127
674.678231292517	675.2122902494331	85	127
675.2239002267573	675.4328798185941	86	127
675.2239002267573	676.175918367347	56	127
675.2239002267573	676.175918367347	64	127
675.2239002267573	676.175918367347	74	127
675.2239002267573	676.175918367347	71	127
675.4328798185941	675.6534693877551	88	127
675.6534693877551	676.0249886621315	90	127
676.0249886621315	676.175918367347	88	127
676.1875283446713	682.6775056689343	57	127
676.1875283446713	682.886485260771	64	127
676.1875283446713	682.886485260771	73	127
676.1875283446713	676.5242176870748	88	127
676.1875283446713	682.886485260771	69	127
676.3500680272109	676.5242176870748	44	127
676.5242176870748	676.8492970521542	85	127
676.5242176870748	676.6867573696145	45	127
676.6867573696145	676.8609070294784	44	127
676.8609070294784	677.1163265306122	45	127
677.1163265306122	677.3369160997732	48	127
677.3369160997732	677.5110657596372	49	127
677.5110657596372	677.6736054421768	48	127
677.6736054421768	677.8709750566893	49	127
677.8709750566893	678.0451020408163	51	127
678.0451020408163	678.2308843537415	52	127
678.2308843537415	678.4166439909297	51	127
678.4166439909297	678.5907936507937	52	127
678.5907936507937	678.7533333333333	56	127
678.7533333333333	679.0087528344671	76	127
678.7533333333333	678.915873015873	57	127
678.915873015873	679.1132426303855	59	127
679.1132426303855	679.5544217687075	61	127
679.1132426303855	679.3454421768707	81	127
679.5660317460317	679.9491609977324	83	127
680.0536507936508	680.2858503401361	85	127
680.3903401360544	680.6109297052154	86	127
680.7153968253969	681.1101587301588	88	127
681.1101587301588	681.3307256235828	44	127
681.1101587301588	681.4236281179138	85	127
681.4468480725624	681.7951473922902	44	127
681.7951473922902	682.1550340136055	45	127
682.1666666666666	682.5497732426304	76	127
682.1666666666666	682.5497732426304	45	127
682.5497732426304	682.886485260771	44	127
682.5497732426304	682.886485260771	73	127
682.8980952380953	683.6991836734694	73	127
682.8980952380953	684.7092517006803	57	127
682.8980952380953	683.3044444444445	76	127
682.8980952380953	683.3044444444445	44	127
682.8980952380953	683.6991836734694	61	127
683.3044444444445	683.6875736961451	73	127
683.3044444444445	683.6875736961451	45	127
683.6991836734694	684.7092517006803	69	127
683.6991836734694	684.4190022675737	42	127
683.6991836734694	684.7092517006803	63	127
683.6991836734694	684.256462585034	85	127
684.256462585034	684.6395918367347	75	127
684.7092517006803	685.6960997732426	59	127
684.7092517006803	685.3710204081633	76	127
684.7092517006803	685.3942403628118	44	127
684.7092517006803	685.6960997732426	68	127
684.7092517006803	685.6960997732426	64	127
685.5451700680272	685.6612698412698	45	127
685.5451700680272	685.6612698412698	85	127
685.7077097505669	693.3934920634921	66	127
685.7077097505669	685.9863492063492	47	127
685.7077097505669	686.1604988662132	83	127
685.7077097505669	690.6651700680272	59	127
685.7077097505669	690.6651700680272	64	127
686.1604988662132	686.4971882086168	78	127
686.5204081632653	687.0196371882087	46	127
687.0196371882087	687.3911564625851	47	127
687.0196371882087	687.2750566893424	71	127
687.4027664399093	687.7975056689343	71	127
687.4027664399093	687.6465759637189	47	127
687.7975056689343	688.1341950113379	66	127
688.1458049886621	688.4708843537416	71	127
688.4708843537416	688.842403628118	72	127
688.8540136054422	689.2719727891157	46	127
688.8540136054422	689.2719727891157	72	127
689.2719727891157	689.8756916099774	71	127
689.2719727891157	689.8756916099774	47	127
689.8873015873016	690.2239909297052	71	127
689.8873015873016	690.1194784580499	47	127
690.2239909297052	690.653560090703	66	127
690.6651700680272	691.0599092970522	73	127
690.6651700680272	693.1613151927438	61	127
690.6651700680272	693.1613151927438	64	127
690.6651700680272	693.1613151927438	58	127
690.6651700680272	693.3934920634921	58	127
691.0599092970522	691.4198185941043	78	127
691.4314285714286	691.8958276643991	46	127
691.8958276643991	692.3021768707483	47	127
692.3137868480726	692.8594557823129	47	127
693.3934920634921	694.0785034013605	63	127
693.3934920634921	693.7302040816327	71	127
693.3934920634921	694.0785034013605	59	127
693.3934920634921	694.0785034013605	66	127
693.3934920634921	694.0785034013605	57	127
693.7302040816327	694.0668934240363	78	127
694.0785034013605	694.5312925170068	71	127
694.0785034013605	695.1698412698413	59	127
694.0785034013605	695.1698412698413	68	127
694.0785034013605	695.1698412698413	64	127
694.0785034013605	695.1698412698413	56	127
694.5312925170068	695.0653514739229	80	127
695.1698412698413	696.2263492063493	69	127
695.1698412698413	695.4600907029478	81	127
695.1698412698413	696.2263492063493	59	127
695.1698412698413	696.2263492063493	66	127
695.1698412698413	696.2263492063493	51	127
695.4600907029478	695.6574603174603	83	127
695.6574603174603	695.8780498866213	85	127
695.8780498866213	696.2263492063493	83	127
696.2379591836735	697.5963265306123	52	127
696.2379591836735	696.8997278911564	80	127
696.2379591836735	705.618820861678	68	127
696.2379591836735	705.618820861678	64	127
697.5963265306123	707.0004081632653	59	127
697.5963265306123	698.908231292517	71	127
698.9198412698413	699.082403628118	71	127
699.0940136054422	700.7658276643991	71	127
703.4709750566893	704.2256009070295	71	127
704.2372108843538	704.3185034013605	71	127
704.3301133786848	704.4113832199547	71	127
704.4113832199547	705.6304308390023	76	127
705.6304308390023	707.0004081632653	71	127
705.6304308390023	707.0120181405896	66	127
705.6304308390023	707.0120181405896	63	127
707.0120181405896	708.0685260770975	56	127
707.0120181405896	708.0685260770975	64	127
707.0120181405896	708.0685260770975	59	127
708.0917460317461	717.5422675736961	66	127
708.0917460317461	717.5422675736961	62	127
708.0917460317461	717.5422675736961	59	127
709.9377324263039	711.0290702947846	78	127
711.0406802721088	711.2032199546485	78	127
711.2148299319728	712.7937868480726	78	127
715.858820861678	716.4160997732426	78	127
716.6715192743765	716.7527891156462	78	127
716.7643990929705	716.8456689342404	78	127
716.8456689342404	717.5538775510204	83	127
717.5538775510204	718.7613151927437	78	127
717.5538775510204	718.50589569161	59	127
717.5538775510204	718.772925170068	66	127
717.5538775510204	718.772925170068	62	127
718.772925170068	719.0631746031746	59	127
718.772925170068	720.1312925170068	68	127
718.772925170068	720.1312925170068	65	127
720.1545124716554	730.6383219954648	57	127
720.1545124716554	730.0462131519274	69	127
720.1545124716554	730.0462131519274	66	127
722.0353287981859	722.7551473922903	81	127
722.7667573696145	722.9292970521542	81	127
722.9525170068027	725.1003628117913	81	127
728.3163265306123	729.0593650793651	81	127
729.0709750566893	729.140634920635	81	127
729.1522448979592	729.233514739229	81	127
729.233514739229	730.0578231292517	86	127
730.0578231292517	731.392970521542	67	127
730.0578231292517	731.3697505668935	81	127
730.0578231292517	731.392970521542	64	127
731.392970521542	732.6932879818594	66	127
731.392970521542	732.6932879818594	62	127
731.392970521542	732.6932879818594	57	127
732.7048979591837	743.5253968253968	60	127
732.7048979591837	743.0145578231293	69	127
732.7048979591837	743.0145578231293	66	127
734.4696145124717	735.7583219954648	81	127
735.7699319727891	735.9324489795919	81	127
735.944081632653	737.1050793650794	81	127
741.4936507936508	742.0277097505669	81	127
742.0393197278912	742.1089795918367	81	127
742.120589569161	742.248276643991	81	127
742.248276643991	743.0261678004535	86	127
743.0261678004535	743.7459863945578	67	127
743.0261678004535	743.7227664399093	81	127
743.0261678004535	743.7459863945578	64	127
743.7459863945578	745.2668934240363	66	127
743.7459863945578	745.2668934240363	62	127
743.7459863945578	745.2668934240363	60	127
745.2785034013606	754.2530158730159	59	127
745.2785034013606	750.9209523809524	71	127
745.2785034013606	755.7622902494331	67	127
747.147709750567	747.7862358276644	71	127
747.7978684807256	748.1113378684807	71	127
748.122947845805	750.0502040816326	74	127
751.43179138322	756.6214512471655	71	127
753.3009750566894	753.8234467120182	71	127
753.8350566893424	754.2530158730159	71	127
754.299455782313	755.2979138321996	59	127
754.299455782313	755.7622902494331	74	127
755.2979138321996	756.8304308390022	62	127
756.8304308390022	757.7824489795919	71	127
756.8304308390022	757.7824489795919	67	127
756.8304308390022	757.7824489795919	64	127
757.7940362811792	768.1385487528345	71	127
757.7940362811792	763.9241269841269	69	127
757.7940362811792	768.9860770975057	63	127
759.3614058956916	760.7429931972789	71	127
760.7546031746032	761.0564625850341	71	127
761.0680725623582	762.6121995464853	75	127
763.9241269841269	770.2980045351474	69	127
765.3869841269841	766.4551020408163	71	127
766.4783219954649	766.6292517006802	71	127
766.6989115646259	768.9860770975057	75	127
768.1385487528345	769.3924263038549	72	127
769.3924263038549	770.6114739229025	63	127
769.3924263038549	770.6114739229025	71	127
770.6230839002268	776.0913832199547	71	127
770.6230839002268	776.4396825396825	62	127
770.6230839002268	780.7934240362812	68	127
772.1091609977324	773.8506575963719	64	127
773.8622675736962	774.0364172335601	64	127
774.0480272108844	775.2438548752834	76	127
776.4396825396825	780.7934240362812	71	127
776.4396825396825	782.8019501133787	62	127
777.8096598639456	779.4002267573696	64	127
779.4234467120182	779.9226757369614	64	127
779.94589569161	781.6525623582767	76	127
780.7934240362812	782.198231292517	66	127
780.7934240362812	782.198231292517	69	127
782.198231292517	783.1502494331065	68	127
782.198231292517	783.1502494331065	64	127
783.1618594104308	789.0713378684808	73	127
783.1618594104308	793.4250793650793	69	127
783.1618594104308	788.7346485260771	61	127
785.6231746031746	786.4707029478458	76	127
786.4939229024943	786.656462585034	76	127
786.6796825396825	787.7826303854876	88	127
788.7346485260771	789.4080272108844	64	127
789.4196371882086	794.423537414966	73	127
789.4196371882086	793.6224489795918	69	127
791.2540136054422	792.9722902494331	76	127
793.0303401360544	793.4250793650793	76	127
793.6224489795918	795.8980045351474	57	127
793.6224489795918	795.5613151927438	85	127
793.6224489795918	794.423537414966	61	127
794.423537414966	795.8980045351474	63	127
794.423537414966	795.8980045351474	69	127
795.8980045351474	796.9661224489796	59	127
795.8980045351474	796.9661224489796	68	127
795.8980045351474	796.9661224489796	64	127
796.9777324263039	807.136462585034	64	127
796.9777324263039	803.34	66	127
796.9777324263039	803.8043990929705	59	127
798.5566893424036	799.055918367347	71	127
799.0791383219955	799.2184580498866	71	127
799.2416780045352	802.3183219954649	71	127
803.8043990929705	807.4383219954649	58	127
803.8043990929705	807.136462585034	61	127
803.8043990929705	808.6921995464853	66	127
803.8043990929705	807.4383219954649	58	127
805.4994557823129	807.1829024943311	73	127
807.2061224489796	807.4267120181406	73	127
807.4383219954649	808.6921995464853	59	127
807.4383219954649	808.6921995464853	75	127
807.4383219954649	808.6921995464853	63	127
807.4383219954649	808.6921995464853	57	127
808.6921995464853	810.2014965986394	76	127
808.6921995464853	810.2014965986394	59	127
808.6921995464853	810.2014965986394	64	127
808.6921995464853	810.2014965986394	64	127
808.6921995464853	810.2014965986394	56	127
810.2014965986394	811.4321541950113	59	127
810.2014965986394	811.4321541950113	78	127
810.2014965986394	811.4321541950113	63	127
810.2014965986394	811.4321541950113	59	127
810.2014965986394	811.4321541950113	57	127
811.4437641723356	823.994149659864	64	127
811.4437641723356	812.918231292517	76	127
811.4437641723356	817.7247619047619	59	127
811.4437641723356	823.994149659864	56	127
814.6132879818595	814.7990476190477	75	127
814.7990476190477	815.1357369614512	76	127
815.1357369614512	816.0529251700681	75	127
816.0529251700681	816.2851247165532	76	127
816.2851247165532	816.4708843537416	75	127
816.4708843537416	816.6450340136055	76	127
816.6450340136055	816.9236734693877	75	127
816.9236734693877	817.2023129251701	76	127
817.2023129251701	817.376462585034	75	127
817.376462585034	817.5506122448979	76	127
817.5506122448979	817.7131519274376	80	127
817.7247619047619	823.994149659864	62	127
817.7247619047619	819.1760090702948	78	127
819.1760090702948	820.0003174603174	76	127
821.7185941043084	821.8927437641723	75	127
821.8927437641723	822.2642630385487	76	127
822.2642630385487	822.5429024943311	75	127
822.5429024943311	822.7983219954649	76	127
822.7983219954649	823.0073015873016	75	127
823.0073015873016	823.1930612244898	76	127
823.1930612244898	823.3904308390023	75	127
823.3904308390023	823.7851700680272	76	127
823.7851700680272	823.994149659864	75	127
823.994149659864	824.1799092970522	76	127
824.1799092970522	824.4585487528344	78	127
824.4701587301587	831.6799546485261	57	127
824.4701587301587	825.5382766439909	78	127
824.4701587301587	828.4639909297052	62	127
824.4701587301587	830.4609070294784	64	127
825.5382766439909	827.4539229024944	76	127
828.4639909297052	830.4609070294784	61	127
829.5785487528344	830.0545578231292	76	127
830.2403174603174	830.4609070294784	76	127
830.4609070294784	832.0282539682539	66	127
830.4609070294784	831.5522448979592	84	127
830.4609070294784	832.0282539682539	60	127
832.0398639455782	835.3951473922903	59	127
832.0398639455782	836.312335600907	59	127
832.0398639455782	833.5491609977324	83	127
832.0398639455782	835.3951473922903	56	127
833.5491609977324	833.8742403628117	81	127
833.885850340136	834.3154195011338	80	127
834.4895691609977	834.8494784580499	78	127
835.0004081632653	835.2790476190477	76	127
835.3951473922903	837.2759637188209	54	127
835.3951473922903	835.6737868480726	75	127
835.3951473922903	837.2759637188209	57	127
835.8131065759637	836.138185941043	73	127
836.312335600907	837.2759637188209	64	127
836.312335600907	836.6141950113379	71	127
836.8115646258503	837.1366439909297	69	127
837.2759637188209	837.7868027210884	68	127
837.2759637188209	838.3556916099773	63	127
837.2759637188209	838.3556916099773	59	127
837.2759637188209	838.3556916099773	57	127
837.9261224489796	838.2163718820862	66	127
838.3789115646258	842.5468934240363	56	127
838.3789115646258	839.1219501133787	67	127
838.3789115646258	842.5468934240363	59	127
838.3789115646258	842.8951927437641	64	127
839.1219501133787	840.2132879818594	68	127
842.8951927437641	843.4524716553288	56	127
842.8951927437641	843.4524716553288	64	127
842.8951927437641	843.6498412698413	59	127
843.6498412698413	844.7643990929705	68	127
843.6498412698413	844.0561904761905	56	127
843.6498412698413	844.0561904761905	64	127
843.6498412698413	844.7643990929705	61	127
844.8340589569161	858.6731519274376	64	127
844.8340589569161	849.0368707482993	62	127
844.8340589569161	851.3704761904762	56	127
844.8340589569161	846.331746031746	66	127
846.331746031746	847.2257142857143	64	127
849.0368707482993	850.5461678004535	61	127
850.5461678004535	851.3588662131519	60	127
850.5461678004535	851.3704761904762	64	127
851.3704761904762	853.437052154195	66	127
851.3704761904762	855.7706575963718	61	127
851.3704761904762	859.0911111111111	57	127
853.437052154195	854.272970521542	64	127
855.7706575963718	859.4161904761904	60	127
856.7226757369615	858.6731519274376	64	127
858.6731519274376	860.1476190476191	72	127
858.6731519274376	860.1476190476191	66	127
860.1592290249433	861.0531972789115	71	127
860.1592290249433	865.2560090702948	59	127
860.1592290249433	861.9936054421769	56	127
860.1592290249433	861.9936054421769	59	127
861.0531972789115	861.3202267573696	69	127
861.4363265306123	861.7033560090703	68	127
861.9936054421769	867.1252154195012	68	127
861.9936054421769	863.1546031746032	66	127
861.9936054421769	867.1252154195012	64	127
863.2823129251701	863.9092517006802	64	127
864.0253514739229	865.2560090702948	59	127
865.2560090702948	867.1252154195012	61	127
865.2560090702948	867.1252154195012	58	127
867.1252154195012	868.9247619047619	59	127
867.1252154195012	868.9247619047619	63	127
867.1252154195012	868.9247619047619	57	127
867.1252154195012	868.9247619047619	66	127
868.9479818594104	874.4859410430839	56	127
868.9479818594104	870.3992290249433	64	127
868.9479818594104	874.4859410430839	59	127
868.9479818594104	874.4859410430839	64	127
874.8226303854875	878.108253968254	64	127
874.8226303854875	878.108253968254	55	127
874.8226303854875	878.108253968254	60	127
877.4580952380952	877.6786848072562	64	127
877.6902947845805	878.108253968254	65	127
878.108253968254	880.9178684807256	60	127
878.108253968254	878.2475736961451	64	127
878.108253968254	880.9178684807256	64	127
878.108253968254	880.9178684807256	55	127
878.2475736961451	878.3636734693878	65	127
878.3636734693878	878.5029931972789	64	127
878.5029931972789	878.8745124716553	65	127
878.8745124716553	879.1995918367347	64	127
879.1995918367347	879.3505215419501	65	127
879.3505215419501	879.4898412698412	64	127
879.4898412698412	879.6291609977325	65	127
879.6291609977325	879.745260770975	64	127
879.745260770975	879.8729705215419	65	127
879.8729705215419	880.0239002267574	64	127
880.0239002267574	880.1516099773243	65	127
880.1516099773243	880.3721995464853	64	127
880.3721995464853	880.5927891156463	65	127
880.5927891156463	880.7785487528345	64	127
880.7785487528345	880.9178684807256	65	127
880.9178684807256	881.0571882086168	62	127
881.0571882086168	881.1732879818594	64	127
881.1848979591837	884.0293424036281	60	127
881.1848979591837	884.0293424036281	65	127
881.1848979591837	884.0293424036281	56	127
881.1848979591837	884.0293424036281	48	127
884.0293424036281	886.8737868480725	56	127
884.0293424036281	886.8737868480725	48	127
884.0293424036281	886.8737868480725	60	127
884.0293424036281	886.8737868480725	65	127
886.8737868480725	894.1416326530613	64	127
886.8737868480725	894.1416326530613	58	127
886.8737868480725	894.1416326530613	55	127
886.8737868480725	894.1416326530613	48	127
893.7120634920635	894.5247619047619	48	127
894.5944217687074	901.5255782312926	59	127
894.5944217687074	899.5286621315192	64	127
894.5944217687074	899.5286621315192	56	127
894.5944217687074	901.5255782312926	47	127
899.5286621315192	900.8870294784581	66	127
899.5286621315192	900.8870294784581	57	127
900.8870294784581	901.9319274376418	68	127
900.8870294784581	901.9319274376418	59	127
901.9435374149659	903.3367346938776	59	127
901.9435374149659	903.3367346938776	56	127
901.9435374149659	903.3367346938776	47	127
901.9435374149659	905.2291609977324	64	127
905.2291609977324	909.2113832199547	57	127
905.2291609977324	906.4830385487528	63	127
905.2291609977324	909.2113832199547	47	127
905.2291609977324	909.2113832199547	54	127
905.2291609977324	909.2113832199547	59	127
906.4830385487528	906.6107482993198	64	127
906.6107482993198	906.7848979591837	63	127
906.7848979591837	906.9242176870748	64	127
906.9242176870748	907.3537868480726	63	127
907.3537868480726	907.4931065759637	64	127
907.4931065759637	907.6904761904761	63	127
907.6904761904761	907.8297959183674	64	127
907.8297959183674	908.3174149659864	63	127
908.3174149659864	908.433514739229	64	127
908.433514739229	908.607664399093	63	127
908.607664399093	909.0604535147393	64	127
909.0604535147393	909.1765532879818	63	127
909.1765532879818	909.2926530612245	64	127
909.2926530612245	909.3971428571429	63	127
909.3971428571429	909.5248526077097	64	127
909.5248526077097	909.6409523809524	63	127
909.6409523809524	909.7686621315192	64	127
909.7686621315192	909.8963718820862	63	127
909.8963718820862	910.0240816326531	64	127
910.0240816326531	910.86	61	127
910.86	911.2663492063492	63	127
911.301179138322	916.1077097505669	56	127
911.301179138322	916.1077097505669	52	127
911.301179138322	916.1077097505669	40	127
911.301179138322	916.1077097505669	47	127
911.301179138322	916.1077097505669	64	127
911.301179138322	916.1077097505669	59	127
916.1077097505669	920.3801814058957	52	127
916.1077097505669	920.3801814058957	59	127
916.1077097505669	920.3801814058957	56	127
916.1077097505669	920.3801814058957	64	127
916.1077097505669	920.3801814058957	40	127
916.1077097505669	920.3801814058957	47	127
