# onset,offset,note,velocity
0.32430839002267575	0.6029251700680273	48	127
1.1950566893424037	1.4620861678004535	48	127
1.9613151927437642	2.309614512471655	48	127
2.715963718820862	3.0062131519274375	48	127
3.667981859410431	3.993061224489796	48	127
3.667981859410431	6.860725623582766	56	127
4.399410430839002	4.73609977324263	48	127
5.177278911564626	5.4675283446712015	48	127
5.177278911564626	8.381632653061224	63	127
5.943537414965986	6.315056689342404	48	127
6.860725623582766	7.127755102040816	48	127
6.860725623582766	8.381632653061224	55	127
6.860725623582766	11.934285714285714	81	127
7.510884353741496	7.882403628117914	48	127
8.381632653061224	8.6718820861678	48	127
8.381632653061224	10.343718820861678	62	127
8.381632653061224	10.065079365079365	54	127
9.136281179138322	9.763219954648527	48	127
10.343718820861678	12.688934240362812	55	127
10.343718820861678	10.761678004535147	47	127
10.343718820861678	11.934285714285714	61	127
11.156417233560092	11.516326530612245	47	127
11.934285714285714	14.430430839002268	62	127
11.934285714285714	13.640952380952381	79	127
11.934285714285714	12.282585034013605	47	127
12.688934240362812	13.640952380952381	57	127
12.688934240362812	13.246213151927437	47	127
13.640952380952381	14.024081632653061	47	127
13.640952380952381	14.430430839002268	59	127
13.640952380952381	15.417278911564626	78	127
14.430430839002268	14.987709750566893	47	127
14.430430839002268	15.417278911564626	69	127
14.430430839002268	15.417278911564626	60	127
15.417278911564626	17.87859410430839	79	127
15.417278911564626	15.788798185941044	47	127
15.417278911564626	16.20673469387755	71	127
15.417278911564626	16.20673469387755	62	127
16.20673469387755	16.49700680272109	47	127
16.20673469387755	17.019455782312924	72	127
16.20673469387755	17.019455782312924	69	127
17.019455782312924	17.750884353741498	71	127
17.019455782312924	17.750884353741498	74	127
17.019455782312924	17.507074829931973	47	127
17.87859410430839	18.621609977324262	42	127
17.87859410430839	18.621609977324262	81	127
18.621609977324262	19.445918367346938	82	127
18.621609977324262	19.445918367346938	43	127
19.445918367346938	20.43278911564626	45	127
19.445918367346938	20.43278911564626	84	127
20.43278911564626	20.688208616780045	46	127
20.43278911564626	21.23387755102041	85	127
20.81591836734694	21.071337868480725	46	127
21.23387755102041	21.953696145124717	46	127
22.510975056689343	22.824444444444445	46	127
23.544263038548753	24.06671201814059	46	127
23.544263038548753	27.213015873015873	54	127
24.774920634920633	25.14643990929705	46	127
25.564399092970522	25.86625850340136	46	127
25.564399092970522	28.931292517006803	61	127
26.411927437641722	26.81827664399093	46	127
27.213015873015873	28.931292517006803	53	127
27.213015873015873	31.97310657596372	79	127
27.213015873015873	27.58453514739229	46	127
27.96766439909297	28.35079365079365	46	127
28.931292517006803	30.33609977324263	60	127
28.931292517006803	30.33609977324263	52	127
28.931292517006803	29.175102040816327	46	127
29.60467120181406	29.929750566893425	46	127
30.33609977324263	30.730839002267572	45	127
30.33609977324263	31.97310657596372	59	127
30.33609977324263	32.70453514739229	53	127
31.148798185941043	31.613197278911564	45	127
31.97310657596372	34.353151927437644	60	127
31.97310657596372	33.598503401360546	77	127
31.97310657596372	32.274965986394555	45	127
32.70453514739229	33.22698412698413	45	127
32.70453514739229	33.598503401360546	55	127
33.598503401360546	34.99170068027211	76	127
33.598503401360546	34.353151927437644	57	127
33.598503401360546	33.9584126984127	45	127
34.353151927437644	34.99170068027211	67	127
34.353151927437644	34.60857142857143	45	127
34.353151927437644	34.99170068027211	58	127
34.99170068027211	35.99015873015873	45	127
34.99170068027211	36.45455782312925	69	127
34.99170068027211	36.45455782312925	60	127
34.99170068027211	37.98705215419501	77	127
36.45455782312925	36.80285714285714	45	127
36.45455782312925	37.18598639455782	70	127
36.45455782312925	37.18598639455782	67	127
37.18598639455782	37.615532879818595	45	127
37.18598639455782	37.85934240362812	72	127
37.18598639455782	37.85934240362812	69	127
37.98705215419501	38.69528344671202	40	127
37.98705215419501	38.69528344671202	79	127
38.69528344671202	39.56603174603175	80	127
38.69528344671202	39.56603174603175	41	127
39.56603174603175	40.65734693877551	43	127
39.56603174603175	40.65734693877551	82	127
40.65734693877551	42.120226757369615	84	127
40.65734693877551	41.12176870748299	44	127
41.4352380952381	41.72548752834467	44	127
41.4352380952381	42.120226757369615	52	127
42.120226757369615	43.29283446712018	53	127
42.120226757369615	42.86326530612245	44	127
42.120226757369615	46.53201814058957	65	127
43.29283446712018	43.67596371882086	44	127
43.29283446712018	44.1055328798186	55	127
44.1055328798186	44.906621315192744	56	127
44.1055328798186	44.46541950113379	44	127
44.906621315192744	45.73090702947846	57	127
44.906621315192744	45.34777777777778	44	127
45.73090702947846	47.704625850340136	59	127
45.73090702947846	46.13727891156463	43	127
46.53201814058957	46.84548752834467	43	127
46.53201814058957	47.25181405895692	62	127
47.25181405895692	51.37337868480726	63	127
47.25181405895692	47.704625850340136	43	127
48.11097505668934	48.43605442176871	43	127
48.11097505668934	48.92367346938776	51	127
48.92367346938776	49.93374149659864	53	127
48.92367346938776	49.388072562358275	43	127
49.93374149659864	50.83931972789116	55	127
49.93374149659864	50.36331065759637	43	127
50.83931972789116	54.6590022675737	56	127
50.83931972789116	51.094739229024945	41	127
51.50108843537415	51.77972789115646	41	127
51.50108843537415	51.84938775510204	65	127
51.50108843537415	52.19768707482993	72	127
51.84938775510204	52.19768707482993	63	127
52.19768707482993	53.09165532879818	74	127
52.19768707482993	52.60403628117914	41	127
52.19768707482993	56.50498866213152	62	127
53.09165532879818	53.881133786848075	75	127
53.09165532879818	53.50961451247166	41	127
53.881133786848075	54.78671201814059	77	127
53.881133786848075	54.40358276643991	41	127
54.78671201814059	55.70390022675737	78	127
54.78671201814059	55.0653514739229	41	127
55.70390022675737	56.50498866213152	55	127
55.70390022675737	57.61954648526077	79	127
55.70390022675737	58.478684807256236	39	127
56.63269841269841	57.36412698412698	67	127
56.63269841269841	57.36412698412698	59	127
57.36412698412698	58.15360544217687	65	127
57.36412698412698	58.93147392290249	60	127
58.15360544217687	59.2449433106576	63	127
58.15360544217687	59.2449433106576	72	127
59.2449433106576	59.96476190476191	74	127
59.2449433106576	59.96476190476191	62	127
59.2449433106576	61.50888888888889	72	127
59.96476190476191	60.68458049886621	75	127
59.96476190476191	60.68458049886621	60	127
60.68458049886621	62.58861678004535	62	127
60.68458049886621	64.35333333333334	77	127
61.62498866213152	62.30997732426304	43	127
61.62498866213152	62.30997732426304	71	127
62.30997732426304	63.0762358276644	72	127
62.30997732426304	63.0762358276644	44	127
63.0762358276644	63.784444444444446	73	127
63.0762358276644	63.784444444444446	45	127
63.0762358276644	63.784444444444446	55	127
63.784444444444446	64.6784126984127	46	127
63.784444444444446	66.84947845804989	67	127
63.784444444444446	66.14126984126985	74	127
64.6784126984127	65.46789115646258	47	127
65.46789115646258	67.75505668934241	48	127
65.46789115646258	67.11650793650794	76	127
66.30380952380952	67.11650793650794	72	127
67.11650793650794	68.84639455782313	75	127
67.11650793650794	68.18462585034014	70	127
68.18462585034014	68.84639455782313	69	127
68.18462585034014	68.84639455782313	60	127
68.84639455782313	69.53138321995465	59	127
68.84639455782313	70.28600907029478	74	127
68.84639455782313	69.53138321995465	68	127
69.53138321995465	70.28600907029478	67	127
69.53138321995465	70.28600907029478	58	127
69.53138321995465	70.28600907029478	58	127
70.28600907029478	73.02598639455782	67	127
70.28600907029478	72.89827664399093	72	127
70.28600907029478	72.22489795918368	57	127
70.28600907029478	71.16839002267574	60	127
71.16839002267574	72.22489795918368	62	127
72.22489795918368	75.39442176870749	56	127
72.22489795918368	72.89827664399093	63	127
72.89827664399093	73.66453514739229	64	127
72.89827664399093	73.23496598639456	74	127
73.23496598639456	73.66453514739229	72	127
73.66453514739229	74.02444444444444	71	127
73.66453514739229	74.47723356009071	65	127
73.66453514739229	74.47723356009071	65	127
74.02444444444444	74.47723356009071	72	127
74.47723356009071	75.39442176870749	60	127
74.47723356009071	74.94163265306122	74	127
74.47723356009071	75.39442176870749	66	127
74.94163265306122	75.39442176870749	72	127
75.39442176870749	76.50897959183673	71	127
75.39442176870749	75.89365079365079	55	127
75.39442176870749	76.50897959183673	67	127
75.39442176870749	76.50897959183673	62	127
76.00975056689343	77.10108843537415	66	127
77.10108843537415	78.68004535147392	67	127
77.98344671201814	78.68004535147392	71	127
77.98344671201814	78.68004535147392	74	127
78.68004535147392	79.388231292517	72	127
78.68004535147392	79.388231292517	75	127
79.388231292517	80.21256235827664	66	127
79.388231292517	80.21256235827664	63	127
79.388231292517	80.21256235827664	72	127
80.21256235827664	81.44321995464853	62	127
80.21256235827664	81.44321995464853	71	127
80.21256235827664	81.44321995464853	67	127
81.03687074829932	81.87278911564626	54	127
81.87278911564626	83.56784580498866	55	127
82.69709750566894	83.56784580498866	74	127
82.69709750566894	83.56784580498866	65	127
83.56784580498866	84.36893424036282	63	127
83.56784580498866	84.36893424036282	72	127
84.36893424036282	85.2861224489796	69	127
84.36893424036282	85.2861224489796	54	127
84.36893424036282	85.2861224489796	60	127
85.2861224489796	86.67931972789115	59	127
85.2861224489796	86.67931972789115	55	127
85.2861224489796	86.67931972789115	67	127
86.098820861678	87.0740589569161	42	127
87.0740589569161	88.82716553287982	43	127
88.08412698412698	88.82716553287982	53	127
88.08412698412698	88.82716553287982	62	127
88.08412698412698	88.82716553287982	59	127
88.82716553287982	89.6514739229025	51	127
88.82716553287982	89.6514739229025	63	127
88.82716553287982	89.6514739229025	60	127
89.6514739229025	90.37129251700681	60	127
89.6514739229025	90.37129251700681	57	127
89.6514739229025	90.37129251700681	54	127
90.37129251700681	92.69328798185941	55	127
90.37129251700681	92.69328798185941	55	127
90.37129251700681	91.880589569161	59	127
91.38136054421769	92.27532879818594	43	127
92.27532879818594	93.19251700680272	47	127
93.19251700680272	93.97038548752835	49	127
93.19251700680272	93.97038548752835	52	127
93.19251700680272	93.97038548752835	55	127
93.19251700680272	93.97038548752835	59	127
93.97038548752835	94.81791383219955	50	127
93.97038548752835	97.80167800453515	53	127
93.97038548752835	94.81791383219955	59	127
93.97038548752835	94.81791383219955	55	127
94.81791383219955	95.72349206349206	47	127
94.81791383219955	95.72349206349206	55	127
94.81791383219955	95.72349206349206	59	127
95.72349206349206	96.45492063492064	55	127
95.72349206349206	96.45492063492064	59	127
96.45492063492064	97.41854875283447	61	127
96.45492063492064	97.41854875283447	43	127
96.45492063492064	97.41854875283447	58	127
97.41854875283447	99.9843537414966	59	127
97.41854875283447	99.50834467120181	62	127
97.41854875283447	98.23124716553288	47	127
98.23124716553288	99.17165532879818	49	127
98.23124716553288	99.17165532879818	52	127
99.17165532879818	100.65773242630385	53	127
99.17165532879818	99.9843537414966	50	127
99.9843537414966	100.98281179138321	47	127
99.9843537414966	100.85510204081632	62	127
99.9843537414966	100.85510204081632	59	127
100.98281179138321	101.93482993197279	59	127
100.98281179138321	101.93482993197279	62	127
100.98281179138321	103.22353741496599	53	127
101.93482993197279	102.72430839002267	43	127
101.93482993197279	102.72430839002267	61	127
101.93482993197279	102.72430839002267	64	127
102.72430839002267	104.99986394557823	65	127
102.72430839002267	104.99986394557823	62	127
102.72430839002267	103.64149659863945	47	127
103.64149659863945	104.59351473922902	49	127
103.64149659863945	104.59351473922902	58	127
104.59351473922902	105.5455328798186	59	127
104.59351473922902	105.5455328798186	50	127
105.5455328798186	106.56721088435374	74	127
105.5455328798186	106.56721088435374	65	127
105.5455328798186	106.56721088435374	47	127
105.5455328798186	106.56721088435374	55	127
106.74136054421768	109.14462585034013	72	127
106.74136054421768	109.14462585034013	65	127
106.74136054421768	109.14462585034013	62	127
106.74136054421768	109.14462585034013	43	127
109.14462585034013	109.3419954648526	71	127
109.14462585034013	112.46507936507936	43	127
109.14462585034013	112.46507936507936	62	127
109.14462585034013	112.46507936507936	65	127
109.3419954648526	109.60902494331066	72	127
109.60902494331066	109.79478458049887	74	127
109.79478458049887	109.98054421768707	72	127
109.98054421768707	112.46507936507936	71	127
114.9031746031746	115.92485260770975	72	127
114.9031746031746	115.11215419501134	64	127
114.9031746031746	115.11215419501134	60	127
115.15859410430839	115.3443537414966	64	127
115.15859410430839	115.3443537414966	60	127
115.37918367346938	115.51850340136055	64	127
115.37918367346938	115.51850340136055	60	127
115.57655328798187	115.75070294784581	60	127
115.57655328798187	115.75070294784581	64	127
115.79714285714286	115.94807256235828	60	127
115.79714285714286	115.94807256235828	64	127
115.99451247165533	116.15705215419501	64	127
115.99451247165533	116.15705215419501	60	127
115.99451247165533	116.20349206349206	72	127
116.20349206349206	116.45891156462585	65	127
116.20349206349206	116.45891156462585	74	127
116.20349206349206	116.38925170068028	60	127
116.45891156462585	116.69111111111111	60	127
116.45891156462585	116.7259410430839	67	127
116.45891156462585	116.7259410430839	76	127
116.7259410430839	117.42253968253968	79	127
116.7259410430839	116.9117006802721	60	127
116.7259410430839	116.9117006802721	69	127
116.95814058956915	117.05102040816327	60	127
116.95814058956915	117.05102040816327	69	127
117.07424036281179	117.20195011337869	60	127
117.07424036281179	117.20195011337869	69	127
117.22517006802721	117.37609977324263	69	127
117.22517006802721	117.37609977324263	60	127
117.42253968253968	117.56185941043084	69	127
117.42253968253968	117.80566893424036	77	127
117.42253968253968	117.56185941043084	60	127
117.60829931972789	117.75922902494331	69	127
117.60829931972789	117.75922902494331	60	127
117.80566893424036	117.99142857142857	69	127
117.80566893424036	117.99142857142857	60	127
118.03786848072562	118.20040816326531	60	127
118.03786848072562	118.20040816326531	69	127
118.24684807256236	118.4209977324263	59	127
118.24684807256236	119.29174603174603	74	127
118.24684807256236	118.4209977324263	67	127
118.46743764172335	118.65319727891156	67	127
118.46743764172335	118.65319727891156	59	127
118.69963718820861	118.90861678004535	72	127
118.69963718820861	118.90861678004535	57	127
118.9550566893424	119.09437641723356	72	127
118.9550566893424	119.09437641723356	57	127
119.12920634920636	119.31496598639455	71	127
119.12920634920636	119.31496598639455	55	127
119.3614058956916	119.58199546485261	74	127
119.3614058956916	119.53555555555556	55	127
119.3614058956916	119.53555555555556	71	127
119.58199546485261	119.75614512471655	76	127
119.58199546485261	119.72131519274376	53	127
119.58199546485261	119.72131519274376	71	127
119.75614512471655	119.94190476190477	71	127
119.75614512471655	119.94190476190477	53	127
119.75614512471655	119.98834467120182	77	127
119.98834467120182	120.66172335600908	81	127
119.98834467120182	120.17410430839003	52	127
119.98834467120182	120.17410430839003	71	127
120.20893424036281	120.32503401360545	71	127
120.20893424036281	120.2785941043084	52	127
120.32503401360545	120.49918367346939	72	127
120.32503401360545	120.4643537414966	52	127
120.49918367346939	120.65011337868481	52	127
120.49918367346939	120.66172335600908	71	127
120.66172335600908	121.05646258503401	79	127
120.66172335600908	120.8126530612245	72	127
120.66172335600908	120.8126530612245	64	127
120.85909297052154	121.01002267573696	64	127
120.85909297052154	121.01002267573696	67	127
121.05646258503401	121.2190022675737	59	127
121.05646258503401	121.2190022675737	74	127
121.26544217687075	121.43959183673469	59	127
121.26544217687075	121.43959183673469	67	127
121.48603174603174	122.43804988662131	79	127
121.48603174603174	121.67179138321995	76	127
121.48603174603174	121.67179138321995	60	127
121.72984126984127	121.90399092970522	76	127
121.72984126984127	121.90399092970522	60	127
121.93882086167801	122.12458049886621	76	127
121.93882086167801	122.12458049886621	60	127
122.17102040816326	122.31034013605442	76	127
122.17102040816326	122.31034013605442	60	127
122.34517006802722	122.46126984126984	76	127
122.34517006802722	122.46126984126984	72	127
122.49609977324263	122.64702947845805	76	127
122.49609977324263	122.64702947845805	72	127
122.49609977324263	122.54253968253968	79	127
122.6934693877551	122.85600907029479	71	127
122.6934693877551	122.85600907029479	74	127
122.6934693877551	122.73990929705215	81	127
122.89083900226757	123.01854875283446	71	127
122.89083900226757	123.01854875283446	74	127
122.89083900226757	122.9140589569161	83	127
123.06498866213153	123.262358276644	84	127
123.06498866213153	123.262358276644	69	127
123.06498866213153	123.262358276644	72	127
123.262358276644	123.42489795918367	76	127
123.262358276644	123.4481179138322	71	127
123.262358276644	123.4481179138322	68	127
123.4481179138322	123.92412698412699	77	127
123.4481179138322	123.6338775510204	69	127
123.4481179138322	123.6338775510204	72	127
123.6338775510204	123.83124716553289	71	127
123.6338775510204	123.83124716553289	68	127
123.83124716553289	124.01700680272108	69	127
123.83124716553289	124.01700680272108	72	127
124.0750566893424	124.14471655328798	76	127
124.0750566893424	124.26081632653062	69	127
124.0750566893424	124.26081632653062	72	127
124.2956462585034	124.46979591836735	67	127
124.2956462585034	124.35369614512472	77	127
124.2956462585034	124.46979591836735	70	127
124.50462585034013	124.63233560090703	67	127
124.50462585034013	124.5162358276644	79	127
124.50462585034013	124.63233560090703	70	127
124.67877551020408	124.87614512471656	81	127
124.67877551020408	124.8297052154195	65	127
124.67877551020408	124.8297052154195	69	127
124.87614512471656	125.06190476190476	69	127
124.87614512471656	125.06190476190476	65	127
124.87614512471656	125.10834467120182	73	127
125.10834467120182	125.29410430839002	67	127
125.10834467120182	125.34054421768707	74	127
125.10834467120182	125.29410430839002	64	127
125.34054421768707	125.52630385487528	67	127
125.34054421768707	125.57274376417233	76	127
125.34054421768707	125.52630385487528	64	127
125.57274376417233	125.70045351473922	62	127
125.57274376417233	125.70045351473922	65	127
125.57274376417233	125.74689342403629	77	127
125.74689342403629	125.92104308390023	62	127
125.74689342403629	125.96748299319728	69	127
125.74689342403629	125.92104308390023	65	127
125.96748299319728	126.0835827664399	54	127
125.96748299319728	126.0835827664399	69	127
125.96748299319728	126.09519274376417	74	127
126.09519274376417	126.31578231292517	72	127
126.09519274376417	126.26934240362812	54	127
126.09519274376417	126.26934240362812	69	127
126.31578231292517	127.02399092970522	55	127
126.31578231292517	126.72213151927437	62	127
126.31578231292517	126.48993197278912	72	127
126.48993197278912	126.72213151927437	71	127
126.72213151927437	127.11687074829932	59	127
126.72213151927437	126.98916099773243	69	127
126.98916099773243	127.15170068027211	67	127
127.15170068027211	127.30263038548753	66	127
127.30263038548753	127.4651700680272	67	127
127.4651700680272	127.65092970521542	65	127
127.65092970521542	127.84829931972789	62	127
127.89473922902495	128.09208616780046	52	127
127.89473922902495	128.85834467120182	60	127
128.09208616780046	128.161768707483	36	127
128.09208616780046	128.30108843537414	55	127
128.30108843537414	128.48684807256237	60	127
128.30108843537414	128.37074829931973	40	127
128.48684807256237	128.68421768707483	55	127
128.48684807256237	128.53328798185942	43	127
128.68421768707483	129.044126984127	48	127
128.68421768707483	129.1370068027211	52	127
128.92802721088435	129.1370068027211	60	127
129.1370068027211	129.3575963718821	62	127
129.1370068027211	129.3575963718821	59	127
129.3575963718821	129.57818594104307	60	127
129.3575963718821	129.57818594104307	64	127
129.57818594104307	130.30961451247165	67	127
129.57818594104307	130.30961451247165	64	127
129.7755328798186	129.82199546485262	55	127
129.93809523809523	130.00775510204082	55	127
130.15868480725624	130.18190476190478	55	127
130.30961451247165	130.46054421768707	54	127
130.30961451247165	130.63469387755103	65	127
130.30961451247165	130.63469387755103	62	127
130.50698412698412	130.5766439909297	67	127
130.50698412698412	130.68113378684808	55	127
130.71596371882086	130.77401360544218	50	127
130.71596371882086	130.77401360544218	67	127
130.93655328798187	131.00619047619048	47	127
130.93655328798187	131.00619047619048	67	127
131.1687528344671	131.4009523809524	66	127
131.1687528344671	131.35451247165534	43	127
131.1687528344671	132.132358276644	59	127
131.1687528344671	132.132358276644	62	127
131.4009523809524	131.56349206349208	67	127
131.4009523809524	131.47061224489795	43	127
131.60993197278913	131.66795918367347	62	127
131.60993197278913	131.66795918367347	47	127
131.8073015873016	131.85374149659864	59	127
131.8073015873016	131.85374149659864	50	127
131.98145124716552	132.3065306122449	55	127
131.98145124716552	132.3065306122449	55	127
132.20204081632653	132.38777777777779	62	127
132.20204081632653	132.38777777777779	59	127
132.38777777777779	132.62	60	127
132.38777777777779	132.62	64	127
132.62	132.81736961451247	62	127
132.62	132.81736961451247	65	127
132.81736961451247	133.66487528344672	69	127
132.81736961451247	133.66487528344672	65	127
133.0263492063492	133.07278911564626	60	127
133.22371882086168	133.29337868480727	60	127
133.44430839002268	133.51396825396824	60	127
133.66487528344672	134.0015873015873	67	127
133.66487528344672	133.81580498866214	59	127
133.66487528344672	134.0015873015873	64	127
133.86226757369616	134.0364172335601	60	127
133.86226757369616	133.93192743764172	72	127
134.07122448979592	134.14090702947846	55	127
134.07122448979592	134.14090702947846	72	127
134.26861678004536	134.3266439909297	52	127
134.26861678004536	134.3266439909297	72	127
134.4775963718821	135.44122448979593	76	127
134.4775963718821	135.44122448979593	79	127
134.4775963718821	134.70979591836735	71	127
134.4775963718821	134.82589569161	48	127
134.70979591836735	134.87233560090704	72	127
134.91877551020409	134.98843537414967	67	127
135.11614512471655	135.18580498866214	64	127
135.3018820861678	135.87079365079364	58	127
135.3018820861678	135.87079365079364	60	127
135.4760544217687	135.6618140589569	72	127
135.4760544217687	135.6618140589569	76	127
135.6618140589569	135.84757369614513	74	127
135.6618140589569	135.84757369614513	77	127
135.84757369614513	135.98689342403628	76	127
135.84757369614513	135.98689342403628	79	127
136.02172335600906	136.72990929705216	60	127
136.02172335600906	136.2307029478458	81	127
136.02172335600906	136.2307029478458	77	127
136.02172335600906	136.2307029478458	57	127
136.2307029478458	136.46290249433108	53	127
136.2307029478458	136.46290249433108	81	127
136.2307029478458	136.46290249433108	84	127
136.46290249433108	136.68349206349205	82	127
136.46290249433108	136.68349206349205	55	127
136.46290249433108	136.68349206349205	79	127
136.68349206349205	136.90408163265306	57	127
136.68349206349205	136.90408163265306	77	127
136.68349206349205	136.90408163265306	81	127
136.90408163265306	137.10145124716553	76	127
136.90408163265306	137.10145124716553	79	127
136.90408163265306	137.56585034013605	60	127
136.90408163265306	137.56585034013605	58	127
137.10145124716553	137.3452380952381	72	127
137.10145124716553	137.3452380952381	76	127
137.3452380952381	137.519410430839	74	127
137.3452380952381	137.519410430839	77	127
137.519410430839	137.7051700680272	79	127
137.519410430839	137.7051700680272	76	127
137.71678004535147	137.89092970521543	57	127
137.71678004535147	137.89092970521543	77	127
137.71678004535147	137.89092970521543	81	127
137.71678004535147	138.3321088435374	60	127
137.89092970521543	138.0882993197279	53	127
137.89092970521543	138.0882993197279	81	127
137.89092970521543	138.0882993197279	84	127
138.0882993197279	138.28566893424036	82	127
138.0882993197279	138.28566893424036	55	127
138.0882993197279	138.28566893424036	79	127
138.28566893424036	138.51784580498867	81	127
138.28566893424036	138.51784580498867	57	127
138.28566893424036	138.51784580498867	77	127
138.51784580498867	139.23766439909298	58	127
138.51784580498867	138.7500680272109	79	127
138.51784580498867	138.7500680272109	76	127
138.51784580498867	139.23766439909298	60	127
138.7500680272109	138.9706575963719	76	127
138.7500680272109	138.9706575963719	72	127
138.9706575963719	139.19124716553287	74	127
138.9706575963719	139.19124716553287	77	127
139.19124716553287	139.41183673469388	79	127
139.19124716553287	139.41183673469388	76	127
139.43505668934242	139.81818594104308	81	127
139.43505668934242	139.81818594104308	57	127
139.43505668934242	139.66725623582767	76	127
139.43505668934242	139.66725623582767	61	127
139.66725623582767	139.86462585034013	67	127
139.66725623582767	139.86462585034013	64	127
139.91106575963718	139.98072562358277	67	127
139.91106575963718	139.98072562358277	64	127
139.91106575963718	140.65410430839003	73	127
140.14326530612246	140.21292517006802	64	127
140.14326530612246	140.21292517006802	67	127
140.3754648526077	140.60766439909298	67	127
140.3754648526077	140.60766439909298	64	127
140.3754648526077	140.70054421768708	50	127
140.60766439909298	140.7237641723356	62	127
140.60766439909298	140.7237641723356	65	127
140.7701814058957	141.1068934240363	74	127
140.7701814058957	140.83986394557823	65	127
140.7701814058957	140.83986394557823	62	127
140.99079365079365	141.04884353741497	65	127
140.99079365079365	141.04884353741497	62	127
141.19977324263039	141.52485260770976	55	127
141.19977324263039	141.40875283446712	62	127
141.19977324263039	141.40875283446712	65	127
141.40875283446712	141.59451247165532	74	127
141.40875283446712	141.59451247165532	79	127
141.64095238095237	141.71061224489796	77	127
141.64095238095237	141.71061224489796	74	127
141.64095238095237	142.07052154195011	83	127
141.8267120181406	142.02408163265306	74	127
141.8267120181406	142.151768707483	57	127
141.8267120181406	142.02408163265306	77	127
142.02408163265306	142.19820861678005	76	127
142.02408163265306	142.19820861678005	72	127
142.24467120181407	142.31433106575963	76	127
142.24467120181407	142.56975056689342	84	127
142.24467120181407	142.31433106575963	72	127
142.46526077097505	142.52331065759637	76	127
142.46526077097505	142.52331065759637	72	127
142.639410430839	142.9877097505669	74	127
142.639410430839	142.9877097505669	53	127
142.639410430839	142.9877097505669	65	127
142.84839002267574	143.080589569161	81	127
143.080589569161	143.28956916099773	77	127
143.28956916099773	143.521768707483	74	127
143.521768707483	143.88167800453516	55	127
143.521768707483	143.88167800453516	62	127
143.521768707483	143.88167800453516	65	127
143.74235827664398	143.98614512471656	77	127
143.98614512471656	144.16031746031746	74	127
144.16031746031746	144.3460544217687	71	127
144.3460544217687	144.6014739229025	60	127
144.3460544217687	144.6014739229025	52	127
144.3460544217687	144.6014739229025	67	127
144.49698412698413	144.6014739229025	72	127
144.69437641723357	144.74081632653062	74	127
144.75240362811792	144.78725623582767	72	127
144.79886621315194	144.845306122449	71	127
144.8568934240363	144.9033560090703	72	127
144.91496598639455	145.00784580498868	76	127
145.04267573696146	145.37936507936507	72	127
145.04267573696146	145.37936507936507	48	127
145.04267573696146	145.37936507936507	64	127
145.24004535147392	145.42580498866212	79	127
145.47222222222223	145.51868480725625	81	127
145.5302947845805	145.5651247165533	79	127
145.5767120181406	145.62315192743765	78	127
145.63478458049886	145.6812244897959	79	127
145.69283446712018	145.87857142857143	84	127
145.92503401360545	146.2849433106576	53	127
145.92503401360545	146.2849433106576	65	127
145.92503401360545	146.2849433106576	74	127
146.14562358276643	146.36621315192744	81	127
146.36621315192744	146.59839002267574	77	127
146.59839002267574	146.8190022675737	74	127
146.8190022675737	147.14408163265307	62	127
146.8190022675737	147.14408163265307	65	127
146.8190022675737	147.14408163265307	55	127
147.00473922902495	147.23696145124717	77	127
147.23696145124717	147.3646485260771	74	127
147.3646485260771	147.58526077097505	71	127
147.58526077097505	147.95678004535148	64	127
147.58526077097505	148.9552380952381	48	127
147.58526077097505	147.81746031746033	72	127
147.58526077097505	147.95678004535148	60	127
147.81746031746033	148.00321995464853	67	127
148.04965986394558	148.71142857142857	64	127
148.04965986394558	148.54888888888888	67	127
148.04965986394558	148.40956916099773	52	127
148.45600907029478	148.79267573696146	55	127
148.6765986394558	148.87396825396826	68	127
148.87396825396826	149.2338775510204	59	127
148.87396825396826	149.09455782312926	69	127
148.87396825396826	149.09455782312926	65	127
149.09455782312926	149.28031746031746	65	127
149.09455782312926	149.28031746031746	62	127
149.3267573696145	150.22072562358278	65	127
149.3267573696145	150.22072562358278	62	127
149.3267573696145	150.22072562358278	59	127
149.3267573696145	150.38326530612244	36	127
150.22072562358278	150.58061224489796	64	127
150.22072562358278	150.58061224489796	60	127
150.22072562358278	150.58061224489796	60	127
150.45292517006803	150.67351473922903	36	127
150.67351473922903	150.90571428571428	38	127
150.90571428571428	151.16113378684807	40	127
151.16113378684807	152.14798185941044	55	127
151.16113378684807	152.02027210884353	43	127
152.02027210884353	152.67043083900228	41	127
152.21761904761905	152.4150113378685	55	127
152.4150113378685	152.62399092970523	57	127
152.62399092970523	152.832947845805	59	127
152.832947845805	153.83142857142857	67	127
152.832947845805	153.2509297052154	62	127
152.832947845805	153.01873015873016	40	127
153.06517006802721	153.21609977324263	52	127
153.2509297052154	153.28575963718822	62	127
153.2509297052154	153.40185941043083	52	127
153.29736961451246	153.320589569161	60	127
153.320589569161	153.35541950113378	62	127
153.35541950113378	153.36702947845805	60	127
153.37863945578232	153.40185941043083	62	127
153.4134693877551	153.44827664399094	60	127
153.44827664399094	153.4831292517007	62	127
153.44827664399094	153.62244897959184	52	127
153.4831292517007	153.5063492063492	60	127
153.51795918367347	153.55278911564625	62	127
153.55278911564625	153.59920634920636	60	127
153.61083900226757	153.65727891156462	59	127
153.6688888888889	153.85462585034014	52	127
153.6688888888889	154.00555555555556	60	127
153.87786848072562	154.08684807256236	67	127
153.87786848072562	154.0404081632653	52	127
154.08684807256236	154.3190476190476	69	127
154.08684807256236	154.27260770975056	50	127
154.08684807256236	154.4583673469388	65	127
154.3190476190476	154.50480725623584	50	127
154.3190476190476	154.53963718820862	71	127
154.53963718820862	154.69056689342403	48	127
154.53963718820862	155.46843537414966	76	127
154.53963718820862	155.0156462585034	64	127
154.53963718820862	154.9227664399093	74	127
154.73700680272108	154.89954648526077	48	127
154.9227664399093	155.52648526077098	72	127
154.9227664399093	155.1085260770975	48	127
155.15496598639456	155.31750566893425	47	127
155.15496598639456	155.31750566893425	62	127
155.32911564625851	155.79351473922904	60	127
155.32911564625851	155.48004535147393	45	127
155.50326530612244	155.7006349206349	76	127
155.50326530612244	155.65419501133786	45	127
155.7006349206349	155.88639455782314	57	127
155.7006349206349	155.9328344671202	77	127
155.7006349206349	156.07215419501134	72	127
155.9328344671202	156.1185941043084	55	127
155.9328344671202	156.1185941043084	59	127
155.9328344671202	156.16503401360544	79	127
156.16503401360544	156.675873015873	72	127
156.16503401360544	156.32757369614512	53	127
156.16503401360544	156.5597732426304	83	127
156.16503401360544	156.8384126984127	57	127
156.37401360544217	156.51331065759638	53	127
156.5597732426304	157.2215419501134	81	127
156.5597732426304	156.7455328798186	53	127
156.675873015873	156.79197278911565	71	127
156.79197278911565	156.90807256235829	69	127
156.79197278911565	156.98934240362811	52	127
156.90807256235829	157.03578231292516	67	127
157.03578231292516	157.2215419501134	57	127
157.03578231292516	157.2215419501134	50	127
157.03578231292516	157.2215419501134	66	127
157.26798185941044	157.41891156462586	50	127
157.26798185941044	157.41891156462586	50	127
157.26798185941044	157.45374149659864	81	127
157.26798185941044	157.45374149659864	66	127
157.45374149659864	157.68591836734694	83	127
157.45374149659864	158.59151927437642	62	127
157.45374149659864	157.6394784580499	50	127
157.45374149659864	157.68591836734694	67	127
157.68591836734694	157.89489795918368	69	127
157.68591836734694	157.89489795918368	84	127
157.68591836734694	157.84848072562357	48	127
157.89489795918368	158.22	71	127
157.89489795918368	158.11551020408163	47	127
157.89489795918368	158.11551020408163	86	127
158.11551020408163	158.3128798185941	50	127
158.11551020408163	158.26643990929705	83	127
158.3128798185941	158.54507936507937	55	127
158.3128798185941	158.87015873015872	79	127
158.3128798185941	158.49863945578232	74	127
158.54507936507937	158.77727891156462	59	127
158.54507936507937	158.73083900226757	71	127
158.77727891156462	158.92820861678004	62	127
158.77727891156462	158.92820861678004	62	127
158.77727891156462	158.92820861678004	67	127
158.9746485260771	159.0326984126984	81	127
158.9746485260771	159.0326984126984	66	127
158.9746485260771	159.11396825396827	62	127
158.9746485260771	159.0326984126984	60	127
159.16040816326532	159.97310657596373	74	127
159.16040816326532	159.23006802721088	59	127
159.16040816326532	159.23006802721088	67	127
159.16040816326532	159.23006802721088	83	127
159.39260770975056	159.46226757369615	57	127
159.39260770975056	159.46226757369615	69	127
159.39260770975056	159.46226757369615	84	127
159.61319727891157	159.78732426303856	71	127
159.61319727891157	159.8337641723356	55	127
159.61319727891157	159.71768707482994	86	127
159.71768707482994	159.8337641723356	83	127
159.8337641723356	160.05437641723356	47	127
159.8337641723356	160.0079365079365	67	127
159.8337641723356	159.9498866213152	86	127
159.9498866213152	160.05437641723356	83	127
160.05437641723356	160.5071655328798	62	127
160.05437641723356	160.5071655328798	79	127
160.05437641723356	160.1356462585034	74	127
160.05437641723356	160.24013605442178	50	127
160.1356462585034	160.24013605442178	71	127
160.24013605442178	160.3562358276644	74	127
160.24013605442178	160.47233560090703	55	127
160.3562358276644	160.47233560090703	71	127
160.47233560090703	160.60002267573697	59	127
160.47233560090703	160.60002267573697	67	127
160.646485260771	160.71614512471655	60	127
160.646485260771	160.71614512471655	66	127
160.646485260771	160.71614512471655	81	127
160.646485260771	160.83224489795919	62	127
160.87868480725623	161.44757369614513	74	127
160.87868480725623	160.92512471655328	59	127
160.87868480725623	160.92512471655328	67	127
160.87868480725623	160.92512471655328	83	127
161.0644217687075	161.13410430839002	84	127
161.0644217687075	161.13410430839002	57	127
161.0644217687075	161.13410430839002	69	127
161.28503401360544	161.61011337868482	55	127
161.28503401360544	161.37791383219954	86	127
161.28503401360544	161.44757369614513	71	127
161.37791383219954	161.49401360544218	83	127
161.49401360544218	161.58689342403628	86	127
161.58689342403628	161.67977324263038	83	127
161.67977324263038	161.78426303854874	71	127
161.67977324263038	161.78426303854874	74	127
161.67977324263038	161.84231292517006	79	127
161.78426303854874	161.8887528344671	72	127
161.78426303854874	161.8887528344671	69	127
161.8887528344671	162.01646258503402	71	127
161.8887528344671	162.01646258503402	74	127
162.01646258503402	162.13256235827666	69	127
162.01646258503402	162.13256235827666	72	127
162.13256235827666	162.24866213151927	83	127
162.13256235827666	162.31832199546486	71	127
162.13256235827666	162.31832199546486	67	127
162.24866213151927	162.3647619047619	79	127
162.3647619047619	162.41120181405896	83	127
162.41120181405896	162.5273015873016	79	127
162.5273015873016	162.63179138321996	71	127
162.5273015873016	162.63179138321996	67	127
162.5273015873016	162.70142857142858	76	127
162.63179138321996	162.74786848072563	69	127
162.63179138321996	162.74786848072563	66	127
162.74786848072563	162.87560090702948	67	127
162.74786848072563	162.87560090702948	71	127
162.87560090702948	163.00328798185942	66	127
162.87560090702948	163.00328798185942	69	127
163.00328798185942	163.20068027210885	64	127
163.00328798185942	163.13102040816327	79	127
163.00328798185942	163.20068027210885	67	127
163.13102040816327	163.2471201814059	76	127
163.2471201814059	163.31678004535146	76	127
163.31678004535146	163.4096598639456	67	127
163.31678004535146	164.07142857142858	71	127
163.31678004535146	163.4096598639456	64	127
163.4096598639456	163.514126984127	66	127
163.4096598639456	163.514126984127	63	127
163.514126984127	163.61861678004536	64	127
163.514126984127	163.61861678004536	67	127
163.61861678004536	163.73473922902494	63	127
163.61861678004536	163.73473922902494	66	127
163.73473922902494	164.5706575963719	67	127
163.73473922902494	164.5706575963719	64	127
163.73473922902494	164.5706575963719	57	127
164.28038548752835	164.3384580498866	74	127
164.36167800453515	164.41972789115647	73	127
164.43133786848074	164.51260770975057	74	127
164.52421768707484	164.58226757369616	73	127
164.5938775510204	164.70997732426304	71	127
164.7215873015873	164.77963718820862	73	127
164.80285714285714	164.93056689342404	74	127
164.80285714285714	165.05827664399092	66	127
164.80285714285714	165.23242630385488	50	127
164.80285714285714	165.05827664399092	62	127
164.93056689342404	165.05827664399092	76	127
165.05827664399092	165.27886621315193	62	127
165.05827664399092	165.1975963718821	78	127
165.05827664399092	165.27886621315193	57	127
165.1975963718821	165.32530612244898	79	127
165.32530612244898	165.49945578231294	81	127
165.32530612244898	165.3833560090703	62	127
165.32530612244898	165.3833560090703	66	127
165.54589569160999	165.62716553287981	66	127
165.54589569160999	165.62716553287981	62	127
165.80131519274377	165.92902494331065	73	127
165.80131519274377	166.1380045351474	50	127
165.92902494331065	166.0102947845805	74	127
166.0102947845805	166.18444444444444	67	127
166.0102947845805	166.18444444444444	61	127
166.0102947845805	166.11478458049888	76	127
166.11478458049888	166.2308843537415	78	127
166.2308843537415	166.37020408163266	61	127
166.2308843537415	166.37020408163266	64	127
166.2308843537415	166.37020408163266	79	127
166.4166439909297	166.6024036281179	67	127
166.4166439909297	166.6024036281179	76	127
166.4166439909297	166.6024036281179	61	127
166.64884353741496	166.78814058956917	74	127
166.64884353741496	166.90426303854875	66	127
166.64884353741496	166.90426303854875	62	127
166.64884353741496	167.03197278911566	50	127
166.78814058956917	166.90426303854875	76	127
166.90426303854875	167.09002267573698	62	127
166.90426303854875	167.00875283446712	78	127
166.90426303854875	167.09002267573698	57	127
167.00875283446712	167.13646258503402	79	127
167.13646258503402	167.2641723356009	81	127
167.13646258503402	167.19448979591837	66	127
167.13646258503402	167.19448979591837	62	127
167.31061224489795	167.36866213151927	66	127
167.31061224489795	167.36866213151927	62	127
167.53120181405896	167.87950113378685	50	127
167.53120181405896	167.6473015873016	73	127
167.6473015873016	167.7401814058957	74	127
167.7401814058957	167.9259410430839	67	127
167.7401814058957	167.9259410430839	61	127
167.7401814058957	167.85628117913834	76	127
167.85628117913834	167.97238095238095	78	127
167.97238095238095	168.12331065759636	61	127
167.97238095238095	168.0536507936508	64	127
167.97238095238095	168.0768707482993	79	127
168.0768707482993	168.16972789115647	76	127
168.0768707482993	168.1465306122449	67	127
168.16972789115647	168.28585034013605	79	127
168.16972789115647	168.26263038548754	64	127
168.16972789115647	168.35551020408164	61	127
168.28585034013605	168.4019501133787	76	127
168.28585034013605	168.37873015873015	67	127
168.4019501133787	168.6457596371882	74	127
168.4019501133787	168.57607709750567	66	127
168.4019501133787	168.50643990929706	50	127
168.4019501133787	168.50643990929706	62	127
168.57607709750567	168.69219954648526	69	127
168.69219954648526	168.7734693877551	61	127
168.69219954648526	168.81990929705216	78	127
168.69219954648526	168.81990929705216	67	127
168.69219954648526	168.7734693877551	45	127
168.81990929705216	168.93598639455783	76	127
168.81990929705216	168.93598639455783	69	127
168.93598639455783	169.04049886621314	66	127
168.93598639455783	168.9940589569161	62	127
168.93598639455783	168.9940589569161	50	127
168.93598639455783	169.121768707483	74	127
169.04049886621314	169.16820861678005	69	127
169.16820861678005	169.2843083900227	67	127
169.16820861678005	169.23786848072564	61	127
169.16820861678005	169.23786848072564	45	127
169.16820861678005	169.2843083900227	78	127
169.2843083900227	169.4468253968254	69	127
169.2843083900227	169.4468253968254	76	127
169.4468253968254	170.03895691609978	66	127
169.4468253968254	170.03895691609978	74	127
169.4468253968254	170.03895691609978	50	127
169.4468253968254	170.03895691609978	62	127
170.46850340136055	170.6891156462585	55	127
170.46850340136055	170.6891156462585	62	127
170.71233560090704	171.2580045351474	71	127
170.71233560090704	171.2580045351474	79	127
170.71233560090704	171.2580045351474	55	127
170.71233560090704	170.92131519274378	59	127
170.71233560090704	170.92131519274378	62	127
170.71233560090704	170.88648526077097	43	127
170.71233560090704	171.2580045351474	62	127
170.92131519274378	171.13027210884354	59	127
170.92131519274378	171.13027210884354	43	127
170.92131519274378	171.13027210884354	55	127
171.17673469387756	171.24639455782312	62	127
171.17673469387756	171.24639455782312	59	127
171.17673469387756	171.3508843537415	43	127
171.39732426303854	171.46698412698413	62	127
171.39732426303854	171.5714739229025	43	127
171.39732426303854	171.51342403628118	83	127
171.39732426303854	171.46698412698413	59	127
171.51342403628118	171.61791383219955	81	127
171.61791383219955	171.98943310657597	43	127
171.61791383219955	171.98943310657597	59	127
171.61791383219955	171.98943310657597	62	127
171.61791383219955	171.65274376417233	79	127
171.7340136054422	171.76884353741497	78	127
171.85009070294785	171.8849433106576	76	127
171.96621315192743	172.00102040816327	74	127
172.08231292517007	172.11714285714285	72	127
172.18680272108844	172.22163265306122	71	127
172.30290249433108	172.3261224489796	69	127
172.3841723356009	172.4190022675737	67	127
172.50027210884355	173.49873015873015	60	127
172.50027210884355	173.49873015873015	57	127
172.50027210884355	173.49873015873015	62	127
172.50027210884355	172.6163492063492	66	127
172.6163492063492	172.7324716553288	69	127
172.7324716553288	172.84857142857143	67	127
172.84857142857143	172.9530612244898	71	127
172.9530612244898	173.02269841269842	69	127
173.02269841269842	173.1271882086168	72	127
173.1271882086168	173.22009070294786	71	127
173.22009070294786	173.31297052154196	74	127
173.31297052154196	173.4290702947846	66	127
173.31297052154196	173.6728798185941	72	127
173.4290702947846	173.5451700680272	69	127
173.5451700680272	173.64965986394557	67	127
173.64965986394557	173.7657596371882	71	127
173.7657596371882	173.89344671201815	69	127
173.89344671201815	173.99793650793652	72	127
173.99793650793652	174.0908390022676	71	127
174.0908390022676	174.19532879818595	74	127
174.19532879818595	174.26498866213151	50	127
174.19532879818595	174.31142857142856	81	127
174.19532879818595	174.38108843537415	66	127
174.19532879818595	174.41591836734693	72	127
174.31142857142856	174.41591836734693	80	127
174.41591836734693	174.4971882086168	50	127
174.41591836734693	174.46235827664398	84	127
174.41591836734693	174.81063492063493	66	127
174.41591836734693	174.62489795918367	69	127
174.55521541950114	174.5900680272109	83	127
174.67133786848072	174.7409977324263	50	127
174.67133786848072	174.78743764172336	81	127
174.67133786848072	174.89192743764173	72	127
174.78743764172336	174.89192743764173	80	127
174.89192743764173	175.11251700680273	66	127
174.89192743764173	175.11251700680273	69	127
174.89192743764173	174.97319727891156	50	127
174.89192743764173	174.9267573696145	84	127
175.01961451247166	175.07768707482992	83	127
175.15895691609978	175.51886621315194	66	127
175.15895691609978	175.8091156462585	50	127
175.15895691609978	175.51886621315194	76	127
175.15895691609978	175.19378684807256	81	127
175.27503401360545	175.3098866213152	79	127
175.39115646258503	175.42596371882087	78	127
175.50725623582767	175.53045351473924	76	127
175.60013605442177	175.6233560090703	74	127
175.69301587301587	175.72784580498868	72	127
175.8091156462585	175.9948752834467	66	127
175.8091156462585	175.9948752834467	62	127
175.8091156462585	175.9948752834467	48	127
175.8091156462585	175.84394557823128	71	127
175.92521541950114	175.96004535147392	69	127
176.0412925170068	176.3780045351474	62	127
176.0412925170068	176.1574149659864	67	127
176.0412925170068	176.3780045351474	67	127
176.0412925170068	176.3780045351474	47	127
176.1574149659864	176.2502947845805	71	127
176.2502947845805	176.35478458049886	69	127
176.35478458049886	176.48249433106577	72	127
176.48249433106577	176.5985941043084	71	127
176.5985941043084	176.67986394557823	74	127
176.67986394557823	176.77274376417233	72	127
176.77274376417233	176.8772335600907	76	127
176.8772335600907	176.98172335600907	55	127
176.8772335600907	177.20231292517008	74	127
176.98172335600907	177.07460317460317	59	127
177.07460317460317	177.17909297052154	57	127
177.17909297052154	177.2835827664399	60	127
177.2835827664399	177.38807256235827	59	127
177.38807256235827	177.48095238095237	62	127
177.48095238095237	177.597052154195	60	127
177.597052154195	177.70154195011338	64	127
177.70154195011338	178.0846485260771	62	127
177.70154195011338	177.81764172335602	71	127
177.81764172335602	177.93371882086169	74	127
177.93371882086169	178.06145124716554	72	127
178.06145124716554	178.17755102040817	76	127
178.17755102040817	178.27043083900227	74	127
178.27043083900227	178.37492063492064	77	127
178.37492063492064	178.4909977324263	76	127
178.4909977324263	178.6071201814059	79	127
178.6071201814059	178.71160997732426	74	127
178.6071201814059	178.97863945578231	77	127
178.71160997732426	178.8277097505669	76	127
178.8277097505669	178.95539682539683	77	127
178.95539682539683	179.0482993197279	76	127
179.0482993197279	179.33854875283447	77	127
179.0482993197279	179.09473922902495	74	127
179.09473922902495	179.19922902494332	72	127
179.19922902494332	179.31532879818593	71	127
179.31532879818593	179.43142857142857	69	127
179.43142857142857	180.51115646258503	62	127
179.43142857142857	180.51115646258503	68	127
179.43142857142857	179.65201814058958	77	127
179.43142857142857	179.5475283446712	52	127
179.5475283446712	179.65201814058958	56	127
179.65201814058958	179.8261678004535	76	127
179.65201814058958	179.75650793650794	54	127
179.75650793650794	179.8725850340136	57	127
179.8725850340136	180.5227664399093	76	127
179.8725850340136	179.9887074829932	56	127
179.9887074829932	180.09319727891156	59	127
180.09319727891156	180.19768707482993	57	127
180.19768707482993	180.32539682539684	60	127
180.32539682539684	180.685306122449	59	127
180.55759637188208	180.73174603174604	76	127
180.76657596371882	180.95233560090702	76	127
180.76657596371882	181.19614512471657	74	127
180.76657596371882	181.19614512471657	68	127
180.99875283446713	181.16131519274376	76	127
181.19614512471657	181.31224489795918	45	127
181.19614512471657	181.56766439909296	76	127
181.19614512471657	182.26426303854876	72	127
181.19614512471657	182.26426303854876	69	127
181.31224489795918	181.4283446712018	48	127
181.4283446712018	181.54444444444445	47	127
181.54444444444445	181.66052154195012	50	127
181.66052154195012	182.1713605442177	81	127
181.66052154195012	181.7650113378685	48	127
181.7650113378685	181.86950113378686	52	127
181.86950113378686	181.96240362811793	50	127
181.96240362811793	182.07850340136054	53	127
182.07850340136054	182.41519274376418	52	127
182.29909297052154	182.46163265306123	81	127
182.496462585034	182.86798185941043	64	127
182.496462585034	182.86798185941043	60	127
182.496462585034	182.68219954648526	83	127
182.7286621315193	182.91442176870748	84	127
182.96086167800453	183.92448979591836	60	127
182.96086167800453	183.92448979591836	66	127
182.96086167800453	183.16984126984127	84	127
182.96086167800453	183.05374149659863	50	127
183.05374149659863	183.16984126984127	54	127
183.16984126984127	183.2859410430839	52	127
183.16984126984127	183.35560090702947	74	127
183.2859410430839	183.39043083900228	55	127
183.39043083900228	183.46009070294784	54	127
183.39043083900228	183.8548299319728	74	127
183.46009070294784	183.5413605442177	57	127
183.5413605442177	183.64585034013606	55	127
183.64585034013606	183.76192743764173	59	127
183.76192743764173	184.06378684807257	57	127
183.9477097505669	184.1102494331066	74	127
184.14507936507937	184.48176870748298	69	127
184.14507936507937	184.48176870748298	66	127
184.14507936507937	184.31920634920635	74	127
184.3540589569161	184.5281859410431	74	127
184.57462585034014	185.63115646258504	71	127
184.57462585034014	185.63115646258504	67	127
184.57462585034014	184.6791156462585	43	127
184.57462585034014	184.78360544217688	74	127
184.6791156462585	184.78360544217688	47	127
184.78360544217688	184.8881179138322	45	127
184.78360544217688	184.95777777777778	79	127
184.8881179138322	185.00421768707483	48	127
185.00421768707483	185.12031746031747	47	127
185.00421768707483	185.53827664399094	79	127
185.12031746031747	185.2364172335601	50	127
185.2364172335601	185.3292970521542	48	127
185.3292970521542	185.44537414965987	52	127
185.44537414965987	185.80528344671202	50	127
185.6775963718821	185.84013605442178	79	127
185.88657596371883	186.0491156462585	81	127
185.88657596371883	186.21163265306123	66	127
185.88657596371883	186.21163265306123	69	127
186.09555555555556	186.25809523809525	83	127
186.3045351473923	186.53673469387755	83	127
186.3045351473923	186.4206349206349	52	127
186.3045351473923	186.4902947845805	67	127
186.3045351473923	186.4902947845805	64	127
186.4206349206349	186.53673469387755	55	127
186.53673469387755	186.73410430839002	72	127
186.53673469387755	186.66444444444446	54	127
186.66444444444446	186.78054421768707	57	127
186.78054421768707	187.00113378684807	67	127
186.78054421768707	187.00113378684807	64	127
186.78054421768707	186.95469387755102	55	127
187.00113378684807	187.14045351473922	67	127
187.00113378684807	187.14045351473922	71	127
187.00113378684807	187.14045351473922	72	127
187.16367346938776	187.26816326530613	54	127
187.16367346938776	187.3726530612245	72	127
187.26816326530613	187.3726530612245	57	127
187.3726530612245	187.51197278911565	81	127
187.3726530612245	187.45392290249433	55	127
187.45392290249433	187.54680272108843	59	127
187.54680272108843	187.7790022675737	72	127
187.54680272108843	187.7790022675737	69	127
187.54680272108843	187.73256235827665	57	127
187.7790022675737	187.91832199546485	81	127
187.7790022675737	187.91832199546485	69	127
187.7790022675737	187.91832199546485	66	127
187.9647619047619	188.23179138321996	81	127
187.9647619047619	188.08086167800454	51	127
188.08086167800454	188.23179138321996	54	127
188.23179138321996	188.3478911564626	52	127
188.23179138321996	188.41755102040815	71	127
188.3478911564626	188.46396825396826	55	127
188.46396825396826	188.67297052154194	66	127
188.46396825396826	188.67297052154194	63	127
188.46396825396826	188.6265306122449	54	127
188.67297052154194	188.81229024943312	69	127
188.67297052154194	188.81229024943312	66	127
188.67297052154194	188.81229024943312	71	127
188.8471201814059	188.92839002267573	52	127
188.8471201814059	189.04448979591837	71	127
188.92839002267573	189.04448979591837	55	127
189.04448979591837	189.21863945578232	79	127
189.04448979591837	189.14897959183673	54	127
189.14897959183673	189.26507936507937	57	127
189.26507936507937	189.4392290249433	55	127
189.26507936507937	189.49727891156462	71	127
189.26507936507937	189.49727891156462	67	127
189.49727891156462	189.68303854875285	64	127
189.49727891156462	189.68303854875285	79	127
189.49727891156462	189.68303854875285	67	127
189.7294784580499	190.0661678004535	48	127
189.7294784580499	189.85718820861678	76	127
189.85718820861678	189.97328798185941	75	127
189.97328798185941	190.042947845805	78	127
190.042947845805	190.12421768707483	76	127
190.12421768707483	190.28675736961452	79	127
190.12421768707483	190.2519274376417	69	127
190.12421768707483	190.2519274376417	60	127
190.2519274376417	190.33319727891157	59	127
190.2519274376417	190.33319727891157	68	127
190.33319727891157	190.4492970521542	62	127
190.33319727891157	190.4492970521542	71	127
190.4492970521542	190.55378684807258	60	127
190.4492970521542	190.55378684807258	69	127
190.55378684807258	190.71632653061224	64	127
190.55378684807258	190.8556462585034	48	127
190.55378684807258	190.71632653061224	72	127
190.55378684807258	190.65827664399092	72	127
190.65827664399092	190.76276643990929	71	127
190.76276643990929	190.8556462585034	74	127
190.8556462585034	190.93691609977324	72	127
190.93691609977324	191.05301587301588	60	127
190.93691609977324	191.05301587301588	57	127
190.93691609977324	191.12267573696144	76	127
191.05301587301588	191.1691156462585	59	127
191.05301587301588	191.1691156462585	56	127
191.1691156462585	191.27360544217686	59	127
191.1691156462585	191.27360544217686	60	127
191.27360544217686	191.3897052154195	59	127
191.27360544217686	191.3897052154195	57	127
191.3897052154195	191.4825850340136	69	127
191.3897052154195	192.3301133786848	48	127
191.3897052154195	192.3301133786848	60	127
191.3897052154195	192.3301133786848	64	127
191.4825850340136	191.59868480725623	68	127
191.59868480725623	191.71478458049887	71	127
191.71478458049887	191.80766439909297	69	127
191.80766439909297	191.9237641723356	72	127
191.9237641723356	192.0166439909297	71	127
192.0166439909297	192.07469387755103	74	127
192.07469387755103	192.16757369614513	72	127
192.16757369614513	192.28367346938776	76	127
192.28367346938776	192.37655328798186	74	127
192.37655328798186	192.59714285714287	60	127
192.37655328798186	192.48104308390023	78	127
192.37655328798186	192.59714285714287	69	127
192.37655328798186	192.82934240362812	62	127
192.48104308390023	192.59714285714287	76	127
192.59714285714287	192.71324263038548	79	127
192.59714285714287	192.82934240362812	67	127
192.59714285714287	192.82934240362812	59	127
192.71324263038548	192.82934240362812	78	127
192.82934240362812	193.06154195011337	60	127
192.82934240362812	193.06154195011337	57	127
192.82934240362812	193.06154195011337	66	127
192.82934240362812	192.94544217687076	81	127
192.94544217687076	193.03832199546486	79	127
193.06154195011337	193.177641723356	83	127
193.06154195011337	193.4330612244898	55	127
193.06154195011337	193.5259410430839	59	127
193.06154195011337	194.1528798185941	67	127
193.177641723356	193.29374149659864	81	127
193.29374149659864	193.40984126984128	79	127
193.40984126984128	193.5259410430839	78	127
193.5259410430839	193.8742403628118	47	127
193.5259410430839	193.68848072562358	62	127
193.5259410430839	193.63043083900226	81	127
193.63043083900226	193.73492063492063	79	127
193.73492063492063	193.85102040816327	78	127
193.73492063492063	193.92068027210885	55	127
193.85102040816327	193.9322902494331	76	127
193.95551020408163	194.69854875283445	57	127
193.95551020408163	194.07160997732427	75	127
193.95551020408163	194.3386394557823	48	127
194.07160997732427	194.21092970521542	76	127
194.21092970521542	194.32702947845806	74	127
194.32702947845806	194.43151927437643	72	127
194.43151927437643	194.5360090702948	71	127
194.43151927437643	194.7798185941043	52	127
194.43151927437643	195.07006802721088	67	127
194.5360090702948	194.6521088435374	69	127
194.6521088435374	194.75659863945577	71	127
194.75659863945577	194.84947845804987	72	127
194.8726984126984	195.00040816326532	74	127
194.8726984126984	195.07006802721088	59	127
194.8726984126984	195.07006802721088	50	127
195.00040816326532	195.1281179138322	72	127
195.1281179138322	195.32548752834467	59	127
195.1281179138322	195.32548752834467	67	127
195.1281179138322	195.24421768707484	71	127
195.1281179138322	195.32548752834467	50	127
195.24421768707484	195.37192743764172	72	127
195.37192743764172	195.55768707482994	59	127
195.37192743764172	195.48802721088435	74	127
195.37192743764172	195.55768707482994	67	127
195.37192743764172	195.55768707482994	50	127
195.48802721088435	195.604126984127	76	127
195.604126984127	195.7898866213152	67	127
195.604126984127	195.7898866213152	50	127
195.604126984127	195.7202267573696	78	127
195.604126984127	195.7898866213152	59	127
195.7202267573696	195.81310657596373	79	127
195.82471655328797	195.89437641723356	71	127
195.82471655328797	196.02208616780047	60	127
195.82471655328797	196.02208616780047	66	127
195.82471655328797	196.02208616780047	50	127
195.90598639455783	195.96403628117915	69	127
195.98725623582766	196.05691609977325	71	127
196.06852607709752	196.13818594104308	69	127
196.06852607709752	196.25428571428571	50	127
196.06852607709752	196.25428571428571	60	127
196.06852607709752	196.25428571428571	66	127
196.14979591836735	196.20784580498866	71	127
196.23106575963718	196.2891156462585	69	127
196.30072562358276	196.48648526077096	60	127
196.30072562358276	196.48648526077096	66	127
196.30072562358276	196.48648526077096	50	127
196.30072562358276	196.37038548752835	71	127
196.3819954648526	196.4400453514739	69	127
196.46326530612245	196.52131519274377	71	127
196.53292517006804	196.71868480725624	60	127
196.53292517006804	196.59097505668933	69	127
196.53292517006804	196.71868480725624	66	127
196.53292517006804	196.71868480725624	50	127
196.61419501133787	196.6722448979592	67	127
196.68385487528346	196.77673469387756	69	127
196.81156462585034	197.2295238095238	43	127
196.81156462585034	197.2295238095238	59	127
196.81156462585034	197.2295238095238	67	127
197.34562358276645	197.6707029478458	55	127
197.78680272108843	197.92612244897958	59	127
197.78680272108843	197.92612244897958	74	127
198.21637188208618	198.37891156462584	59	127
198.21637188208618	198.37891156462584	74	127
198.72721088435375	199.13356009070296	67	127
198.72721088435375	199.13356009070296	43	127
198.72721088435375	199.3425396825397	73	127
198.72721088435375	199.3425396825397	58	127
199.22643990929706	199.60956916099772	67	127
199.22643990929706	199.60956916099772	55	127
199.37736961451247	199.51668934240362	74	127
199.37736961451247	199.51668934240362	59	127
199.53990929705216	199.5863492063492	71	127
199.53990929705216	199.5863492063492	55	127
199.70244897959185	200.06235827664398	50	127
199.70244897959185	200.45709750566894	67	127
199.70244897959185	199.81854875283446	58	127
199.70244897959185	199.81854875283446	73	127
199.8649886621315	199.96947845804988	59	127
199.8649886621315	199.96947845804988	74	127
200.0043083900227	200.05074829931974	55	127
200.0043083900227	200.05074829931974	71	127
200.16684807256235	200.29455782312925	73	127
200.16684807256235	200.5615873015873	47	127
200.16684807256235	200.29455782312925	58	127
200.3409977324263	200.45709750566894	74	127
200.3409977324263	200.45709750566894	59	127
200.49192743764172	200.54997732426304	71	127
200.49192743764172	200.54997732426304	55	127
200.66607709750568	200.9679365079365	59	127
200.66607709750568	200.9679365079365	74	127
200.66607709750568	201.0608163265306	43	127
200.66607709750568	201.0608163265306	67	127
201.03759637188207	201.14208616780044	55	127
201.03759637188207	201.14208616780044	71	127
201.17691609977325	201.54843537414965	59	127
201.17691609977325	201.54843537414965	74	127
201.6645351473923	201.8851247165533	63	127
201.8851247165533	202.32630385487528	79	127
201.8851247165533	202.1289342403628	64	127
202.1289342403628	202.32630385487528	61	127
202.32630385487528	202.55850340136055	62	127
202.32630385487528	202.80231292517007	78	127
202.55850340136055	202.80231292517007	59	127
202.80231292517007	203.25510204081633	76	127
202.80231292517007	203.0461224489796	60	127
203.0461224489796	203.25510204081633	58	127
203.25510204081633	203.48730158730157	59	127
203.25510204081633	203.48730158730157	56	127
203.25510204081633	203.48730158730157	65	127
203.25510204081633	203.48730158730157	74	127
203.48730158730157	203.71950113378685	57	127
203.48730158730157	203.71950113378685	64	127
203.48730158730157	203.71950113378685	61	127
203.48730158730157	203.71950113378685	73	127
203.71950113378685	203.96331065759637	54	127
203.71950113378685	203.96331065759637	72	127
203.71950113378685	203.96331065759637	69	127
203.71950113378685	203.96331065759637	63	127
203.96331065759637	204.2419501133787	55	127
203.96331065759637	204.2419501133787	62	127
203.96331065759637	204.2419501133787	67	127
203.96331065759637	204.2419501133787	71	127
204.2419501133787	204.520589569161	57	127
204.2419501133787	204.520589569161	76	127
204.2419501133787	204.520589569161	67	127
204.2419501133787	204.520589569161	49	127
204.520589569161	205.4609977324263	62	127
204.520589569161	205.15913832199547	59	127
204.520589569161	205.15913832199547	67	127
204.520589569161	205.4609977324263	50	127
205.15913832199547	205.4609977324263	57	127
205.15913832199547	205.4609977324263	66	127
205.69319727891155	205.85573696145124	74	127
205.69319727891155	205.85573696145124	59	127
206.23886621315194	206.37818594104309	59	127
206.23886621315194	206.37818594104309	74	127
206.73809523809524	207.38825396825396	58	127
206.73809523809524	207.38825396825396	73	127
206.73809523809524	206.8774149659864	79	127
207.21410430839003	207.36503401360545	79	127
207.38825396825396	207.5275736961451	74	127
207.38825396825396	207.5275736961451	59	127
207.55079365079365	207.5972335600907	71	127
207.55079365079365	207.5972335600907	55	127
207.71333333333334	208.39832199546484	79	127
207.71333333333334	207.86426303854876	73	127
207.71333333333334	207.86426303854876	58	127
207.86426303854876	207.9803628117914	74	127
207.86426303854876	207.9803628117914	59	127
208.01519274376417	208.06163265306122	55	127
208.01519274376417	208.06163265306122	71	127
208.1661224489796	208.32866213151928	58	127
208.1661224489796	208.32866213151928	73	127
208.32866213151928	208.44476190476192	59	127
208.32866213151928	208.44476190476192	74	127
208.39832199546484	208.58408163265307	83	127
208.4795918367347	208.52603174603175	71	127
208.4795918367347	208.52603174603175	55	127
208.63052154195012	208.92077097505668	59	127
208.63052154195012	208.92077097505668	74	127
208.63052154195012	208.7930612244898	78	127
208.7930612244898	208.83950113378685	81	127
208.96721088435373	209.01365079365078	79	127
209.00204081632654	209.09492063492064	71	127
209.00204081632654	209.09492063492064	55	127
209.11814058956915	209.52448979591836	74	127
209.11814058956915	209.52448979591836	59	127
209.11814058956915	209.17619047619047	77	127
209.2922902494331	209.33873015873016	76	127
209.4548299319728	209.50126984126985	74	127
209.61736961451248	209.66380952380953	72	127
209.7682993197279	209.81473922902495	71	127
209.91922902494332	209.9540589569161	69	127
210.05854875283447	210.522947845805	47	127
210.05854875283447	210.522947845805	55	127
210.05854875283447	210.522947845805	62	127
210.05854875283447	210.2094784580499	67	127
210.2094784580499	210.2675283446712	69	127
210.37201814058957	210.41845804988662	65	127
210.522947845805	210.88285714285715	48	127
210.522947845805	210.65065759637187	64	127
210.522947845805	210.88285714285715	55	127
210.522947845805	210.65065759637187	60	127
210.66226757369614	210.7087074829932	76	127
210.66226757369614	210.7087074829932	79	127
210.82480725623583	210.87124716553288	78	127
210.82480725623583	210.87124716553288	74	127
210.97573696145125	211.0221768707483	72	127
210.97573696145125	211.0221768707483	76	127
210.97573696145125	211.35886621315194	67	127
210.97573696145125	211.38208616780045	48	127
211.1498866213152	211.2079365079365	74	127
211.1498866213152	211.2079365079365	71	127
211.31242630385486	211.35886621315194	72	127
211.31242630385486	211.35886621315194	69	127
211.35886621315194	211.45174603174604	64	127
211.50979591836736	212.20639455782313	62	127
211.50979591836736	211.88131519274376	50	127
211.50979591836736	211.67233560090702	67	127
211.50979591836736	211.67233560090702	71	127
211.67233560090702	211.71877551020407	72	127
211.67233560090702	211.71877551020407	76	127
211.82326530612244	211.86970521541951	71	127
211.82326530612244	211.86970521541951	74	127
211.98580498866212	212.03224489795917	72	127
211.98580498866212	212.03224489795917	69	127
211.98580498866212	212.34571428571428	50	127
212.13673469387754	212.1831746031746	71	127
212.13673469387754	212.1831746031746	67	127
212.20639455782313	212.3805442176871	60	127
212.28766439909296	212.33410430839	66	127
212.28766439909296	212.33410430839	69	127
212.41537414965987	212.76367346938775	67	127
212.41537414965987	212.76367346938775	43	127
212.41537414965987	212.5314739229025	59	127
212.55469387755102	212.5895238095238	74	127
212.70562358276644	212.75206349206348	72	127
212.85655328798185	212.9029931972789	71	127
212.85655328798185	213.32095238095238	55	127
212.995873015873	213.04231292517008	69	127
213.14680272108845	213.1932426303855	67	127
213.32095238095238	213.76213151927436	57	127
213.32095238095238	213.3790022675737	66	127
213.48349206349206	213.52993197278911	64	127
213.6228117913832	213.66925170068026	62	127
213.76213151927436	214.24975056689343	66	127
213.76213151927436	214.36585034013606	74	127
213.76213151927436	213.80857142857144	60	127
213.76213151927436	214.15687074829933	50	127
213.80857142857144	213.84340136054422	62	127
213.84340136054422	213.878231292517	60	127
213.878231292517	214.06399092970523	59	127
214.06399092970523	214.21492063492065	60	127
214.24975056689343	214.71414965986395	67	127
214.24975056689343	214.60965986394558	59	127
214.38907029478457	214.43551020408162	86	127
214.55160997732426	214.5980498866213	84	127
214.71414965986395	214.760589569161	83	127
214.71414965986395	215.09727891156462	62	127
214.71414965986395	215.19015873015874	55	127
214.86507936507937	214.91151927437642	81	127
215.01600907029479	215.0740589569161	79	127
215.19015873015874	215.2365986394558	78	127
215.19015873015874	215.6661678004535	57	127
215.34108843537416	215.39913832199545	76	127
215.5152380952381	215.56167800453514	74	127
215.6661678004535	216.03768707482993	62	127
215.6661678004535	216.13056689342403	78	127
215.6661678004535	215.71260770975056	72	127
215.6661678004535	216.03768707482993	50	127
215.71260770975056	215.74743764172337	74	127
215.74743764172337	215.78226757369615	72	127
215.78226757369615	215.93319727891156	71	127
215.93319727891156	216.09573696145125	72	127
216.13056689342403	216.25827664399094	62	127
216.13056689342403	216.4904761904762	71	127
216.13056689342403	216.56013605442178	79	127
216.28149659863945	216.3279365079365	74	127
216.44403628117914	216.47886621315192	72	127
216.56013605442178	216.60657596371883	71	127
216.56013605442178	216.94326530612244	74	127
216.56013605442178	217.03614512471654	55	127
216.7110657596372	216.75750566893424	69	127
216.8619954648526	216.92004535147393	67	127
217.03614512471654	217.48893424036282	57	127
217.03614512471654	217.08258503401362	66	127
217.19868480725623	217.24512471655328	64	127
217.36122448979592	217.40766439909297	62	127
217.48893424036282	217.86045351473922	66	127
217.48893424036282	217.5237641723356	60	127
217.48893424036282	217.86045351473922	50	127
217.48893424036282	218.0926530612245	74	127
217.5237641723356	217.55859410430838	62	127
217.55859410430838	217.5934240362812	60	127
217.5934240362812	217.76757369614512	59	127
217.76757369614512	217.9301133786848	60	127
217.9649433106576	218.34807256235828	59	127
217.9649433106576	218.34807256235828	67	127
218.115873015873	218.16231292517006	86	127
218.29002267573696	218.336462585034	84	127
218.46417233560092	218.83569160997732	62	127
218.46417233560092	218.91696145124718	55	127
218.46417233560092	218.51061224489797	83	127
218.62671201814058	218.67315192743763	81	127
218.777641723356	218.8124716553288	79	127
218.91696145124718	219.3117006802721	57	127
218.91696145124718	218.95179138321996	78	127
219.05628117913832	219.10272108843537	76	127
219.1839909297052	219.23043083900228	74	127
219.3117006802721	219.35814058956916	72	127
219.3117006802721	219.68321995464854	62	127
219.3117006802721	219.68321995464854	50	127
219.3117006802721	219.68321995464854	78	127
219.35814058956916	219.39297052154194	74	127
219.39297052154194	219.42780045351475	72	127
219.42780045351475	219.5903401360544	71	127
219.5903401360544	219.74126984126985	72	127
219.77609977324263	219.9038095238095	62	127
219.77609977324263	220.1360090702948	74	127
219.77609977324263	220.1360090702948	79	127
219.92702947845805	219.9734693877551	74	127
220.07795918367347	220.12439909297052	72	127
220.2288888888889	220.64684807256236	74	127
220.2288888888889	220.2869387755102	71	127
220.2288888888889	220.71650793650792	55	127
220.40303854875285	220.4494784580499	69	127
220.5655782312925	220.62362811791382	67	127
220.71650793650792	220.83260770975056	66	127
220.71650793650792	221.1344671201814	57	127
220.86743764172334	220.91387755102042	64	127
220.98353741496598	221.02997732426303	62	127
221.1344671201814	221.18090702947845	60	127
221.1344671201814	221.50598639455782	50	127
221.1344671201814	221.50598639455782	78	127
221.29700680272109	221.34344671201814	59	127
221.4479365079365	221.49437641723355	57	127
221.59886621315192	221.71496598639456	79	127
221.59886621315192	221.78462585034015	74	127
221.59886621315192	221.78462585034015	55	127
221.59886621315192	221.78462585034015	47	127
221.71496598639456	221.74979591836734	78	127
221.8542857142857	221.88911564625852	83	127
221.8542857142857	221.97038548752835	62	127
221.8542857142857	221.97038548752835	55	127
221.8542857142857	221.97038548752835	47	127
221.97038548752835	222.00521541950113	81	127
222.08648526077098	222.12131519274377	79	127
222.08648526077098	222.31868480725623	47	127
222.08648526077098	222.31868480725623	62	127
222.08648526077098	222.31868480725623	55	127
222.2025850340136	222.2374149659864	78	127
222.31868480725623	222.353514739229	76	127
222.4231746031746	222.45800453514738	74	127
222.53927437641724	222.57410430839002	72	127
222.65537414965988	222.69020408163266	71	127
222.74825396825398	222.78308390022676	69	127
222.8643537414966	222.88757369614513	67	127
222.9572335600907	223.07333333333332	66	127
223.07333333333332	223.10816326530613	67	127
223.18943310657596	223.22426303854874	69	127
223.3055328798186	223.34036281179138	67	127
223.42163265306124	223.53773242630385	76	127
223.42163265306124	223.60739229024944	67	127
223.42163265306124	223.60739229024944	48	127
223.42163265306124	223.60739229024944	72	127
223.53773242630385	223.57256235827666	74	127
223.65383219954649	223.76993197278912	48	127
223.65383219954649	223.76993197278912	52	127
223.65383219954649	223.76993197278912	60	127
223.65383219954649	223.68866213151927	79	127
223.76993197278912	223.8047619047619	78	127
223.897641723356	224.14145124716552	48	127
223.897641723356	224.14145124716552	60	127
223.897641723356	224.14145124716552	52	127
223.897641723356	223.9324716553288	76	127
224.01374149659864	224.04857142857142	74	127
224.14145124716552	224.17628117913833	72	127
224.25755102040816	224.29238095238094	71	127
224.3736507936508	224.3968707482993	69	127
224.47814058956916	224.51297052154194	67	127
224.5942403628118	224.60585034013604	66	127
224.6871201814059	224.72195011337868	64	127
224.79160997732427	224.89609977324264	63	127
224.89609977324264	225.01219954648525	64	127
225.01219954648525	225.04702947845806	66	127
225.11668934240362	225.15151927437643	64	127
225.24439909297053	225.43015873015872	66	127
225.24439909297053	225.3721088435374	72	127
225.24439909297053	225.43015873015872	69	127
225.24439909297053	225.43015873015872	50	127
225.3721088435374	225.47659863945577	71	127
225.47659863945577	225.51142857142858	76	127
225.47659863945577	225.5926984126984	50	127
225.47659863945577	225.5926984126984	57	127
225.47659863945577	225.5926984126984	54	127
225.5926984126984	225.61591836734695	74	127
225.69718820861678	225.92938775510203	50	127
225.69718820861678	225.92938775510203	54	127
225.69718820861678	225.92938775510203	57	127
225.69718820861678	225.73201814058956	72	127
225.81328798185942	225.8481179138322	71	127
225.92938775510203	225.96421768707484	69	127
226.0338775510204	226.0687074829932	67	127
226.14997732426303	226.1848072562358	66	127
226.24285714285713	226.27768707482994	64	127
226.35895691609977	226.39378684807255	62	127
226.4750566893424	226.49827664399092	60	127
226.5679365079365	226.68403628117915	59	127
226.68403628117915	226.80013605442176	60	127
226.80013605442176	226.8233560090703	62	127
226.90462585034012	226.93945578231293	60	127
227.02072562358276	227.26453514739228	50	127
227.02072562358276	227.11360544217686	59	127
227.02072562358276	227.26453514739228	55	127
227.02072562358276	227.26453514739228	43	127
227.1368253968254	227.24131519274377	60	127
227.26453514739228	227.3574149659864	62	127
227.38063492063492	227.47351473922902	64	127
227.49673469387756	227.58961451247166	66	127
227.6128344671202	227.69410430839002	67	127
227.71732426303853	227.81020408163266	69	127
227.83342403628117	227.92630385487527	71	127
227.9495238095238	228.03079365079364	72	127
228.05401360544218	228.135283446712	74	127
228.15850340136055	228.25138321995465	76	127
228.2746031746032	228.34426303854875	78	127
228.35587301587302	228.44875283446711	79	127
228.47197278911565	228.55324263038548	81	127
228.57646258503402	228.63451247165534	83	127
228.64612244897958	228.75061224489795	84	127
228.76222222222222	229.4239909297052	59	127
228.76222222222222	228.93637188208618	41	127
228.76222222222222	229.4239909297052	86	127
228.76222222222222	228.8667120181406	55	127
228.8667120181406	228.98281179138323	67	127
228.98281179138323	229.16857142857143	53	127
228.98281179138323	229.09891156462584	66	127
229.09891156462584	229.21501133786848	67	127
229.21501133786848	229.3659410430839	53	127
229.21501133786848	229.3311111111111	69	127
229.3311111111111	229.37755102040816	67	127
229.37755102040816	229.4936507936508	66	127
229.37755102040816	229.55170068027212	53	127
229.4936507936508	229.59814058956917	67	127
229.59814058956917	229.78390022675737	53	127
229.59814058956917	230.37600907029477	59	127
229.59814058956917	230.37600907029477	62	127
229.59814058956917	229.71424036281178	55	127
229.71424036281178	229.8419501133787	67	127
229.8419501133787	230.0625396825397	53	127
229.8419501133787	229.96965986394557	66	127
229.96965986394557	230.10897959183674	67	127
230.10897959183674	230.2134693877551	69	127
230.10897959183674	230.28312925170067	53	127
230.2134693877551	230.32956916099772	67	127
230.32956916099772	230.44566893424036	66	127
230.32956916099772	230.51532879818595	53	127
230.44566893424036	230.561768707483	67	127
230.561768707483	230.67786848072564	55	127
230.561768707483	230.75913832199547	40	127
230.561768707483	231.32802721088436	60	127
230.561768707483	231.32802721088436	55	127
230.67786848072564	230.80557823129251	67	127
230.80557823129251	230.91006802721088	66	127
230.80557823129251	230.97972789115647	52	127
230.91006802721088	231.02616780045352	67	127
231.02616780045352	231.23514739229026	52	127
231.02616780045352	231.1538775510204	69	127
231.1538775510204	231.2815873015873	67	127
231.2815873015873	231.39768707482995	66	127
231.2815873015873	231.4673469387755	52	127
231.39768707482995	231.51378684807256	67	127
231.51378684807256	231.9665759637188	57	127
231.51378684807256	231.9665759637188	88	127
231.51378684807256	231.58344671201814	55	127
231.51378684807256	231.58344671201814	37	127
231.58344671201814	231.7227664399093	49	127
231.58344671201814	231.65310657596373	66	127
231.65310657596373	231.76920634920634	67	127
231.76920634920634	231.8736961451247	69	127
231.76920634920634	231.9433560090703	49	127
231.8736961451247	231.95496598639457	67	127
231.95496598639457	232.10589569161	49	127
231.95496598639457	232.0362358276644	66	127
232.0362358276644	232.15233560090704	67	127
232.15233560090704	232.33809523809524	38	127
232.15233560090704	232.26843537414965	59	127
232.15233560090704	232.87215419501135	62	127
232.15233560090704	232.87215419501135	86	127
232.26843537414965	232.38453514739228	71	127
232.38453514739228	232.50063492063492	69	127
232.38453514739228	232.5702947845805	50	127
232.50063492063492	232.59351473922902	71	127
232.59351473922902	232.77927437641722	50	127
232.59351473922902	232.70961451247166	72	127
232.70961451247166	232.8257142857143	71	127
232.8257142857143	233.0114739229025	50	127
232.8257142857143	232.9418140589569	69	127
232.9418140589569	233.05791383219955	71	127
233.05791383219955	233.24367346938774	38	127
233.05791383219955	233.11596371882086	79	127
233.05791383219955	233.17401360544218	62	127
233.05791383219955	233.11596371882086	62	127
233.12757369614513	233.1972335600907	60	127
233.12757369614513	233.1972335600907	78	127
233.17401360544218	233.2901133786848	69	127
233.20884353741496	233.26689342403628	62	127
233.20884353741496	233.26689342403628	79	127
233.2901133786848	233.3481632653061	78	127
233.2901133786848	233.47587301587302	50	127
233.2901133786848	233.40621315192743	67	127
233.2901133786848	233.3481632653061	60	127
233.35977324263038	233.42943310657597	62	127
233.35977324263038	233.42943310657597	79	127
233.40621315192743	233.52231292517007	69	127
233.44104308390024	233.49909297052153	60	127
233.44104308390024	233.49909297052153	78	127
233.52231292517007	233.5803628117914	62	127
233.52231292517007	233.70807256235827	50	127
233.52231292517007	233.6384126984127	71	127
233.52231292517007	233.5803628117914	79	127
233.6035827664399	233.66163265306122	78	127
233.6035827664399	233.66163265306122	60	127
233.6384126984127	233.74290249433108	69	127
233.68485260770976	233.7312925170068	79	127
233.68485260770976	233.7312925170068	62	127
233.74290249433108	233.8938321995465	50	127
233.74290249433108	233.8241723356009	67	127
233.74290249433108	233.77773242630386	60	127
233.74290249433108	233.77773242630386	78	127
233.78934240362813	233.84739229024945	76	127
233.78934240362813	233.84739229024945	59	127
233.8241723356009	233.94027210884354	69	127
233.87061224489796	233.92866213151927	60	127
233.87061224489796	233.92866213151927	78	127
233.94027210884354	234.3001814058957	79	127
233.94027210884354	234.3001814058957	59	127
233.94027210884354	234.9619501133787	67	127
233.94027210884354	234.137641723356	43	127
234.16086167800452	234.34662131519275	43	127
234.3930612244898	234.71814058956917	62	127
234.3930612244898	234.578820861678	43	127
234.62526077097505	234.75297052154195	43	127
234.799410430839	235.18253968253967	59	127
234.799410430839	234.9851700680272	43	127
235.03160997732425	235.22897959183675	67	127
235.03160997732425	235.22897959183675	43	127
235.2754195011338	235.60049886621314	55	127
235.2754195011338	235.42634920634922	69	127
235.2754195011338	235.42634920634922	43	127
235.461179138322	235.6469387755102	71	127
235.461179138322	235.6469387755102	43	127
235.69337868480724	236.07650793650794	54	127
235.69337868480724	236.81954648526076	74	127
235.69337868480724	235.87913832199547	43	127
235.69337868480724	236.07650793650794	74	127
235.9371882086168	236.122947845805	43	127
236.1809977324263	236.57573696145124	57	127
236.1809977324263	236.57573696145124	72	127
236.1809977324263	236.3667573696145	43	127
236.42480725623582	236.6221768707483	43	127
236.66861678004534	236.83115646258503	43	127
236.66861678004534	236.99369614512472	54	127
236.87759637188208	237.04013605442177	43	127
236.87759637188208	237.04013605442177	74	127
237.08657596371881	237.2491156462585	43	127
237.08657596371881	237.4116553287982	50	127
237.08657596371881	237.2491156462585	76	127
237.29555555555555	237.45809523809524	78	127
237.29555555555555	237.45809523809524	43	127
237.5045351473923	237.88766439909298	81	127
237.5045351473923	237.70190476190476	43	127
237.5045351473923	237.88766439909298	59	127
237.7483446712018	237.98054421768708	66	127
237.7483446712018	237.93410430839003	43	127
237.98054421768708	238.32884353741497	79	127
237.98054421768708	238.16630385487528	43	127
237.98054421768708	238.21274376417233	67	127
237.98054421768708	238.32884353741497	62	127
238.21274376417233	238.4101133786848	66	127
238.21274376417233	238.36367346938775	43	127
238.4101133786848	238.56104308390022	43	127
238.4101133786848	238.58426303854876	67	127
238.4101133786848	238.7235827664399	59	127
238.58426303854876	238.77002267573695	43	127
238.58426303854876	238.816462585034	68	127
238.816462585034	239.15315192743765	55	127
238.816462585034	238.96739229024942	43	127
238.816462585034	239.0138321995465	69	127
239.0138321995465	239.23442176870748	71	127
239.0138321995465	239.18798185941043	43	127
239.23442176870748	240.56956916099773	72	127
239.23442176870748	239.59433106575963	54	127
239.23442176870748	239.40857142857143	43	127
239.45501133786848	239.64077097505668	43	127
239.45501133786848	239.64077097505668	73	127
239.68721088435373	240.0471201814059	57	127
239.68721088435373	239.8613605442177	74	127
239.68721088435373	239.8613605442177	43	127
239.90780045351474	240.09356009070294	73	127
239.90780045351474	240.09356009070294	43	127
240.12839002267575	240.25609977324262	43	127
240.12839002267575	240.25609977324262	74	127
240.12839002267575	240.39541950113377	54	127
240.29092970521543	240.43024943310658	43	127
240.29092970521543	240.43024943310658	75	127
240.47668934240363	240.63922902494332	76	127
240.47668934240363	240.82498866213152	50	127
240.47668934240363	240.63922902494332	43	127
240.6740589569161	240.87142857142857	43	127
240.6740589569161	240.87142857142857	78	127
240.91786848072562	241.99759637188208	62	127
240.91786848072562	241.3009977324263	79	127
240.91786848072562	241.1732879818594	71	127
240.91786848072562	241.12684807256235	43	127
241.1732879818594	241.3938775510204	74	127
241.3938775510204	241.5796371882086	47	127
241.3938775510204	241.62607709750566	71	127
241.62607709750566	241.84666666666666	67	127
241.84666666666666	242.09047619047618	66	127
241.84666666666666	242.02081632653062	50	127
242.09047619047618	242.28784580498865	62	127
242.09047619047618	242.33428571428573	62	127
242.33428571428573	242.52004535147393	38	127
242.33428571428573	242.52004535147393	64	127
242.33428571428573	242.5548752834467	60	127
242.5548752834467	242.75224489795917	66	127
242.5548752834467	242.79868480725622	57	127
242.79868480725622	243.1934240362812	69	127
242.79868480725622	243.82036281179137	86	127
242.79868480725622	242.99605442176872	55	127
242.79868480725622	242.99605442176872	43	127
243.04249433106577	243.23986394557824	59	127
243.28630385487529	243.64621315192744	67	127
243.28630385487529	243.47206349206348	74	127
243.28630385487529	243.47206349206348	59	127
243.51850340136053	243.64621315192744	79	127
243.66943310657595	243.8435827664399	62	127
243.66943310657595	243.8435827664399	78	127
243.89002267573696	244.05256235827665	76	127
243.89002267573696	244.05256235827665	84	127
244.0990022675737	244.29637188208616	83	127
244.0990022675737	244.29637188208616	50	127
244.0990022675737	244.29637188208616	74	127
244.35442176870748	244.51696145124717	81	127
244.35442176870748	244.51696145124717	72	127
244.56340136054422	244.93492063492064	78	127
244.56340136054422	245.5734693877551	62	127
244.56340136054422	244.79560090702947	69	127
244.56340136054422	244.74916099773242	43	127
244.79560090702947	245.02780045351474	71	127
245.02780045351474	245.37609977324263	79	127
245.02780045351474	245.26	74	127
245.02780045351474	245.21356009070294	47	127
245.26	245.44575963718822	67	127
245.44575963718822	245.64312925170069	66	127
245.44575963718822	245.59668934240364	50	127
245.64312925170069	245.8869387755102	62	127
245.64312925170069	245.84049886621315	62	127
245.8869387755102	246.0726984126984	64	127
245.8869387755102	246.0726984126984	38	127
245.8869387755102	246.11913832199548	60	127
246.11913832199548	246.2932879818594	66	127
246.11913832199548	246.2932879818594	57	127
246.35133786848073	246.58353741496597	59	127
246.35133786848073	246.72285714285715	69	127
246.35133786848073	247.40784580498865	86	127
246.35133786848073	246.53709750566892	43	127
246.58353741496597	246.7692970521542	62	127
246.81573696145125	247.18725623582768	67	127
246.81573696145125	247.00149659863945	59	127
246.81573696145125	247.0479365079365	74	127
247.0479365079365	247.22208616780046	79	127
247.24530612244897	247.4310657596372	62	127
247.24530612244897	247.47750566893424	78	127
247.47750566893424	247.62843537414966	84	127
247.47750566893424	247.66326530612244	76	127
247.66326530612244	247.84902494331067	50	127
247.66326530612244	247.88385487528345	74	127
247.66326530612244	247.84902494331067	83	127
247.88385487528345	248.08122448979591	72	127
247.88385487528345	248.03478458049887	81	127
248.08122448979591	248.29020408163265	70	127
248.08122448979591	248.29020408163265	78	127
248.08122448979591	249.16095238095238	43	127
248.29020408163265	248.48757369614512	71	127
248.29020408163265	248.48757369614512	79	127
248.29020408163265	248.48757369614512	62	127
248.53401360544217	248.60367346938776	79	127
248.53401360544217	248.75460317460318	62	127
248.53401360544217	248.60367346938776	71	127
248.80104308390023	248.84748299319727	79	127
248.80104308390023	248.9635827664399	62	127
248.80104308390023	248.84748299319727	71	127
249.01002267573696	249.35832199546485	71	127
249.01002267573696	249.35832199546485	62	127
249.01002267573696	249.35832199546485	79	127
249.20739229024943	249.45120181405895	43	127
249.45120181405895	249.67179138321995	45	127
249.67179138321995	249.9039909297052	47	127
249.9039909297052	250.35678004535148	50	127
250.13619047619048	250.35678004535148	57	127
250.13619047619048	250.35678004535148	67	127
250.13619047619048	250.35678004535148	64	127
250.35678004535148	250.44965986394558	79	127
250.35678004535148	250.44965986394558	64	127
250.35678004535148	250.44965986394558	69	127
250.35678004535148	250.97210884353743	48	127
250.56575963718822	250.6238095238095	79	127
250.56575963718822	250.6238095238095	64	127
250.56575963718822	250.6238095238095	69	127
250.77473922902493	251.15786848072563	79	127
250.77473922902493	251.15786848072563	64	127
250.77473922902493	251.15786848072563	69	127
251.01854875283448	251.27396825396826	45	127
251.27396825396826	251.49455782312924	47	127
251.49455782312924	251.71514739229025	48	127
251.71514739229025	252.144716553288	52	127
251.9473469387755	252.144716553288	65	127
251.9473469387755	252.144716553288	59	127
251.9473469387755	252.144716553288	67	127
252.144716553288	252.2608163265306	65	127
252.144716553288	252.2608163265306	79	127
252.144716553288	252.2608163265306	71	127
252.144716553288	252.7368253968254	50	127
252.34208616780046	252.41174603174602	71	127
252.34208616780046	252.41174603174602	79	127
252.34208616780046	252.41174603174602	65	127
252.5742857142857	252.89936507936508	65	127
252.5742857142857	252.89936507936508	71	127
252.5742857142857	252.89936507936508	79	127
252.77165532879818	252.99224489795918	47	127
252.99224489795918	253.22444444444446	48	127
253.22444444444446	253.4566439909297	50	127
253.4566439909297	253.955873015873	53	127
253.68884353741495	253.955873015873	67	127
253.68884353741495	253.955873015873	60	127
253.68884353741495	253.955873015873	67	127
253.955873015873	254.07197278911565	67	127
253.955873015873	254.07197278911565	79	127
253.955873015873	254.07197278911565	72	127
253.955873015873	254.60603174603173	52	127
254.1880725623583	254.25773242630385	72	127
254.1880725623583	254.25773242630385	67	127
254.1880725623583	254.25773242630385	79	127
254.40866213151926	254.80340136054423	67	127
254.40866213151926	254.80340136054423	72	127
254.40866213151926	254.80340136054423	79	127
254.6524716553288	254.89628117913833	48	127
254.89628117913833	255.17492063492062	50	127
255.17492063492062	255.45356009070295	52	127
255.45356009070295	256.6261678004535	76	127
255.45356009070295	256.6261678004535	55	127
255.45356009070295	256.6261678004535	70	127
255.45356009070295	256.6261678004535	72	127
256.6958276643991	256.96285714285716	53	127
256.6958276643991	256.96285714285716	77	127
256.6958276643991	256.96285714285716	74	127
256.6958276643991	256.96285714285716	69	127
256.96285714285716	257.2182766439909	52	127
256.96285714285716	257.2182766439909	67	127
256.96285714285716	257.2182766439909	76	127
256.96285714285716	257.2182766439909	79	127
257.2182766439909	257.42725623582766	50	127
257.2182766439909	257.42725623582766	81	127
257.2182766439909	257.42725623582766	77	127
257.2182766439909	257.42725623582766	65	127
257.46208616780046	259.1223129251701	72	127
257.46208616780046	258.6695238095238	56	127
257.46208616780046	259.1687528344671	65	127
257.46208616780046	259.1687528344671	62	127
258.91333333333336	259.41256235827666	55	127
259.2732426303855	259.5518820861678	71	127
259.5518820861678	259.7956916099773	77	127
259.7956916099773	260.05108843537414	74	127
260.05108843537414	260.352970521542	72	127
260.352970521542	260.4922902494331	71	127
260.4922902494331	260.70126984126983	62	127
260.4922902494331	260.70126984126983	74	127
260.70126984126983	260.9334693877551	71	127
260.70126984126983	260.9334693877551	59	127
260.9334693877551	261.14244897959185	69	127
260.9334693877551	261.14244897959185	57	127
261.14244897959185	261.3514285714286	55	127
261.14244897959185	261.3514285714286	67	127
261.3514285714286	261.5720181405896	69	127
261.3514285714286	261.5720181405896	57	127
261.5720181405896	261.722947845805	53	127
261.5720181405896	261.722947845805	65	127
261.76938775510206	261.943537414966	64	127
261.76938775510206	261.943537414966	52	127
261.943537414966	262.18734693877553	62	127
261.943537414966	262.18734693877553	50	127
262.18734693877553	262.45437641723356	52	127
262.18734693877553	262.45437641723356	64	127
262.45437641723356	262.6981859410431	53	127
262.45437641723356	262.6981859410431	65	127
262.6981859410431	262.9187528344671	54	127
262.6981859410431	262.9187528344671	66	127
262.9187528344671	263.1625850340136	55	127
262.9187528344671	263.1625850340136	67	127
263.1625850340136	263.5224943310658	57	127
263.1625850340136	263.5224943310658	69	127
263.5224943310658	263.708253968254	71	127
263.5224943310658	263.708253968254	59	127
263.754693877551	263.96367346938774	64	127
263.754693877551	263.9172335600907	58	127
263.754693877551	264.75312925170067	72	127
263.754693877551	264.1029931972789	60	127
263.96367346938774	264.1726530612245	65	127
263.96367346938774	264.13782312925173	58	127
264.1726530612245	264.37002267573695	58	127
264.1726530612245	264.416462585034	64	127
264.416462585034	264.59061224489795	58	127
264.416462585034	264.63705215419503	65	127
264.63705215419503	264.91569160997733	64	127
264.63705215419503	264.75312925170067	58	127
264.77637188208615	264.93891156462587	58	127
264.77637188208615	264.9737414965986	72	127
264.9737414965986	265.13628117913834	58	127
264.9737414965986	265.17108843537414	74	127
265.17108843537414	265.3917006802721	76	127
265.17108843537414	265.3452607709751	58	127
265.3917006802721	265.60068027210883	76	127
265.3917006802721	265.5542403628118	58	127
265.3917006802721	266.2508390022676	81	127
265.3917006802721	266.35532879818595	60	127
265.60068027210883	265.82126984126984	77	127
265.60068027210883	265.76321995464855	58	127
265.82126984126984	266.00702947845804	58	127
265.82126984126984	266.04185941043085	76	127
266.04185941043085	266.2043990929705	58	127
266.04185941043085	266.2508390022676	77	127
266.2508390022676	266.5294784580499	79	127
266.2508390022676	266.3785487528345	58	127
266.2508390022676	266.5294784580499	76	127
266.41337868480724	266.622358276644	60	127
266.41337868480724	266.57591836734696	58	127
266.622358276644	266.80809523809523	58	127
266.622358276644	266.8661678004535	62	127
266.8661678004535	267.1215873015873	64	127
266.8661678004535	267.07514739229026	58	127
267.1215873015873	268.21292517006805	72	127
267.1215873015873	268.05038548752833	69	127
267.1215873015873	267.29573696145127	58	127
267.1215873015873	267.35378684807256	64	127
267.35378684807256	267.551156462585	58	127
267.35378684807256	267.5975963718821	65	127
267.5975963718821	267.8181859410431	64	127
267.5975963718821	267.77174603174603	58	127
267.8181859410431	268.05038548752833	65	127
267.8181859410431	268.0039455782313	58	127
268.05038548752833	268.4219047619048	67	127
268.05038548752833	268.4219047619048	64	127
268.05038548752833	268.2361224489796	58	127
268.2825850340136	268.45673469387754	58	127
268.2825850340136	268.5031746031746	72	127
268.5031746031746	268.65410430839	58	127
268.5031746031746	268.7005442176871	74	127
268.7005442176871	268.93274376417236	76	127
268.7005442176871	268.8863038548753	58	127
268.93274376417236	269.5945124716553	81	127
268.93274376417236	269.11850340136056	58	127
268.93274376417236	269.1649433106576	76	127
268.93274376417236	269.72222222222223	60	127
269.1649433106576	269.26943310657595	58	127
269.1649433106576	269.2810430839002	77	127
269.2810430839002	269.3739229024943	76	127
269.2810430839002	269.33909297052156	58	127
269.3739229024943	269.5945124716553	77	127
269.3739229024943	269.5480725623583	58	127
269.5945124716553	269.74544217687077	58	127
269.5945124716553	269.93120181405897	79	127
269.5945124716553	269.93120181405897	76	127
269.7918820861678	269.97761904761904	58	127
269.7918820861678	270.0124716553288	60	127
270.0124716553288	270.1749886621315	58	127
270.0124716553288	270.2330612244898	62	127
270.2330612244898	270.4884580498866	64	127
270.2330612244898	270.418820861678	58	127
270.4884580498866	270.66263038548755	57	127
270.4884580498866	271.4288888888889	69	127
270.4884580498866	271.5914285714286	73	127
270.4884580498866	270.72068027210884	64	127
270.72068027210884	270.90643990929703	57	127
270.72068027210884	270.9528798185941	65	127
270.9528798185941	271.19666666666666	64	127
270.9528798185941	271.12702947845804	57	127
271.19666666666666	271.4288888888889	65	127
271.19666666666666	271.38244897959186	57	127
271.4288888888889	271.7655782312925	67	127
271.4288888888889	271.5914285714286	57	127
271.4288888888889	271.7655782312925	64	127
271.6378684807256	271.8584580498866	74	127
271.6378684807256	271.8119954648526	57	127
271.8584580498866	271.9977777777778	57	127
271.8584580498866	272.0442176870748	76	127
272.0442176870748	272.2648072562358	77	127
272.0442176870748	272.2183446712018	57	127
272.2648072562358	272.47378684807256	76	127
272.2648072562358	272.43895691609976	57	127
272.2648072562358	273.15877551020407	81	127
272.2648072562358	273.3445124716553	61	127
272.47378684807256	272.6479365079365	57	127
272.47378684807256	272.69437641723357	77	127
272.69437641723357	272.88013605442177	57	127
272.69437641723357	272.92657596371885	76	127
272.92657596371885	273.11233560090704	57	127
272.92657596371885	273.15877551020407	77	127
273.15877551020407	273.5302947845805	76	127
273.15877551020407	273.5302947845805	79	127
273.15877551020407	273.3445124716553	57	127
273.39097505668934	273.57673469387754	57	127
273.39097505668934	273.6231746031746	64	127
273.6231746031746	273.7508616780045	57	127
273.6231746031746	273.79732426303855	67	127
273.79732426303855	273.9714739229025	69	127
273.79732426303855	273.92503401360545	57	127
273.9714739229025	274.0875736961451	55	127
273.9714739229025	274.1224036281179	61	127
273.9714739229025	274.7725396825397	72	127
273.9714739229025	274.93510204081633	76	127
274.1224036281179	274.2849433106576	55	127
274.1224036281179	274.33138321995466	62	127
274.33138321995466	274.51714285714286	55	127
274.33138321995466	274.56358276643994	61	127
274.56358276643994	274.7725396825397	62	127
274.56358276643994	274.7261224489796	55	127
274.7725396825397	275.10925170068026	70	127
274.7725396825397	275.10925170068026	61	127
274.7725396825397	274.93510204081633	55	127
274.96993197278914	275.19049886621315	77	127
274.96993197278914	275.14408163265307	55	127
275.19049886621315	275.37628117913835	55	127
275.19049886621315	275.42272108843537	79	127
275.42272108843537	275.59684807256235	55	127
275.42272108843537	275.6433106575964	81	127
275.6433106575964	276.28185941043085	64	127
275.6433106575964	275.8522902494331	73	127
275.6433106575964	275.8174603174603	55	127
275.6433106575964	276.3979591836735	84	127
275.8522902494331	276.0496598639456	74	127
275.8522902494331	276.00319727891156	55	127
276.0496598639456	276.18897959183676	55	127
276.0496598639456	276.2354195011338	73	127
276.2354195011338	276.3979591836735	74	127
276.2354195011338	276.37473922902495	55	127
276.3979591836735	276.5837188208617	64	127
276.3979591836735	276.5837188208617	55	127
276.3979591836735	276.7694784580499	82	127
276.3979591836735	276.7694784580499	73	127
276.6301587301587	276.81591836734697	55	127
276.6301587301587	276.862358276644	67	127
276.862358276644	277.0365079365079	55	127
276.862358276644	277.082947845805	70	127
277.082947845805	277.31514739229027	67	127
277.082947845805	277.2570975056689	55	127
277.31514739229027	278.1510430839002	75	127
277.31514739229027	277.4892970521542	53	127
277.31514739229027	277.5357142857143	70	127
277.31514739229027	278.3368253968254	77	127
277.5357142857143	277.68666666666667	53	127
277.5357142857143	277.73310657596375	72	127
277.73310657596375	277.9304761904762	70	127
277.73310657596375	277.8956462585034	53	127
277.9304761904762	278.10462585034014	53	127
277.9304761904762	278.1510430839002	72	127
278.1510430839002	278.51097505668935	74	127
278.1510430839002	278.3368253968254	53	127
278.1510430839002	278.51097505668935	70	127
278.38326530612244	278.5922448979592	82	127
278.38326530612244	278.5573922902494	53	127
278.5922448979592	278.8128344671202	86	127
278.5922448979592	278.76637188208616	53	127
278.8128344671202	279.0218140589569	82	127
278.8128344671202	278.9869841269841	53	127
279.0218140589569	279.2424036281179	69	127
279.0218140589569	279.19596371882085	53	127
279.0218140589569	279.8809523809524	89	127
279.0218140589569	280.05510204081634	60	127
279.2424036281179	279.4049433106576	53	127
279.2424036281179	279.4281632653061	70	127
279.4281632653061	279.6139229024943	53	127
279.4281632653061	279.6603628117914	69	127
279.6603628117914	279.83451247165533	53	127
279.6603628117914	279.8809523809524	70	127
279.8809523809524	280.05510204081634	53	127
279.8809523809524	280.13637188208617	69	127
279.8809523809524	280.13637188208617	87	127
280.10154195011336	280.18281179138324	53	127
280.10154195011336	280.22925170068027	65	127
280.22925170068027	280.40337868480725	53	127
280.22925170068027	280.4498412698413	69	127
280.4498412698413	280.5659410430839	81	127
280.4498412698413	280.63560090702947	53	127
280.4498412698413	280.68204081632655	65	127
280.68204081632655	280.7981405895692	53	127
280.68204081632655	280.9142176870748	84	127
280.68204081632655	280.7981405895692	69	127
280.9142176870748	281.0187074829932	75	127
280.9142176870748	281.0187074829932	72	127
280.9142176870748	281.0187074829932	41	127
281.1348299319728	281.36702947845805	69	127
281.1348299319728	281.36702947845805	53	127
281.1348299319728	281.36702947845805	60	127
281.36702947845805	281.4831292517007	75	127
281.5992290249433	281.77337868480726	81	127
281.77337868480726	281.90108843537416	72	127
281.77337868480726	281.90108843537416	63	127
281.77337868480726	281.90108843537416	41	127
282.0171882086168	282.22616780045354	57	127
282.0171882086168	282.22616780045354	63	127
282.0171882086168	282.22616780045354	53	127
282.22616780045354	282.3887074829932	72	127
282.49319727891157	282.5744671201814	75	127
282.69056689342403	282.7485941043084	69	127
282.69056689342403	282.7485941043084	57	127
282.69056689342403	282.7485941043084	57	127
282.85308390022675	282.96920634920633	72	127
282.85308390022675	282.96920634920633	60	127
282.85308390022675	282.96920634920633	60	127
283.0620634920635	283.17818594104307	65	127
283.0620634920635	283.17818594104307	53	127
283.0620634920635	283.17818594104307	53	127
283.2942857142857	283.41038548752834	72	127
283.2942857142857	283.41038548752834	60	127
283.2942857142857	283.41038548752834	60	127
283.526485260771	283.63097505668935	64	127
283.526485260771	283.63097505668935	52	127
283.526485260771	283.63097505668935	52	127
283.747074829932	283.8747619047619	60	127
283.747074829932	283.8747619047619	60	127
283.747074829932	283.8747619047619	72	127
283.9560544217687	284.01410430839	51	127
283.9560544217687	284.01410430839	63	127
283.9560544217687	284.01410430839	51	127
284.13020408163266	284.3740136054422	52	127
284.13020408163266	284.3740136054422	52	127
284.13020408163266	284.3740136054422	64	127
284.13020408163266	284.2463038548753	64	127
284.3740136054422	284.49009070294784	68	127
284.57138321995467	284.80356009070294	56	127
284.57138321995467	284.80356009070294	59	127
284.57138321995467	284.80356009070294	64	127
284.57138321995467	284.80356009070294	62	127
284.57138321995467	284.6874829931973	71	127
284.80356009070294	284.9312925170068	64	127
285.04739229024943	285.2795918367347	57	127
285.04739229024943	285.2795918367347	60	127
285.04739229024943	285.2795918367347	64	127
285.04739229024943	285.1634920634921	72	127
285.04739229024943	285.2795918367347	57	127
285.2795918367347	285.4072789115646	69	127
285.511768707483	285.62789115646257	81	127
285.511768707483	285.73238095238094	53	127
285.511768707483	285.73238095238094	57	127
285.511768707483	285.73238095238094	69	127
285.73238095238094	285.8484807256236	75	127
285.9645804988662	286.08068027210885	59	127
285.9645804988662	286.26643990929705	52	127
285.9645804988662	286.08068027210885	68	127
285.9645804988662	286.08068027210885	76	127
286.17356009070295	286.2548299319728	71	127
286.17356009070295	286.2548299319728	56	127
286.17356009070295	286.2548299319728	64	127
286.3477097505669	286.39414965986396	74	127
286.3477097505669	286.39414965986396	80	127
286.3477097505669	286.39414965986396	59	127
286.48702947845806	286.57990929705215	68	127
286.48702947845806	286.57990929705215	76	127
286.48702947845806	286.57990929705215	52	127
286.6960090702948	286.81210884353743	81	127
286.6960090702948	286.81210884353743	76	127
286.6960090702948	286.81210884353743	60	127
286.92820861678007	287.02108843537417	72	127
286.92820861678007	287.02108843537417	76	127
286.92820861678007	287.02108843537417	57	127
287.1371882086168	287.26489795918366	69	127
287.1371882086168	287.26489795918366	84	127
287.1371882086168	287.26489795918366	69	127
287.3577551020408	287.4738775510204	63	127
287.3577551020408	287.4738775510204	66	127
287.3577551020408	287.4738775510204	81	127
287.58997732426303	287.9614739229025	88	127
287.58997732426303	287.9614739229025	68	127
287.58997732426303	288.56521541950116	40	127
287.58997732426303	287.9614739229025	64	127
288.56521541950116	288.7974149659864	42	127
288.7974149659864	288.9947619047619	44	127
288.9947619047619	289.28503401360547	45	127
289.28503401360547	290.13256235827663	48	127
289.5172335600907	289.57528344671204	69	127
289.5172335600907	289.57528344671204	65	127
289.71460317460316	289.79587301587304	69	127
289.71460317460316	289.94680272108843	65	127
289.94680272108843	290.0977324263039	64	127
289.94680272108843	290.0048299319728	69	127
290.13256235827663	290.48086167800454	47	127
290.13256235827663	290.35315192743764	64	127
290.13256235827663	290.35315192743764	69	127
290.35315192743764	290.5272789115646	71	127
290.35315192743764	290.5272789115646	63	127
290.35315192743764	290.57374149659864	54	127
290.57374149659864	290.8059410430839	71	127
290.57374149659864	290.8059410430839	55	127
290.57374149659864	290.6434013605442	63	127
290.8059410430839	291.0497505668934	57	127
290.8059410430839	290.8756009070295	63	127
290.8059410430839	291.0033106575964	72	127
291.0497505668934	292.1294784580499	40	127
291.0497505668934	291.32839002267576	72	127
291.0497505668934	291.32839002267576	63	127
291.0497505668934	291.32839002267576	57	127
291.32839002267576	291.5025396825397	71	127
291.32839002267576	291.5025396825397	56	127
291.32839002267576	291.5025396825397	64	127
291.54895691609977	291.5954195011338	64	127
291.54895691609977	291.5954195011338	56	127
291.54895691609977	291.5954195011338	71	127
291.74632653061224	291.8160090702948	71	127
291.74632653061224	291.8160090702948	64	127
291.74632653061224	291.8160090702948	56	127
291.92049886621317	292.2571655328798	64	127
291.92049886621317	292.2571655328798	71	127
291.92049886621317	292.2571655328798	56	127
292.1294784580499	292.3500680272109	42	127
292.3500680272109	292.52421768707484	44	127
292.52421768707484	292.7331972789116	45	127
292.7331972789116	293.55750566893425	48	127
292.9537868480726	293.0002267573696	69	127
292.9537868480726	293.0002267573696	65	127
293.1627664399093	293.2208163265306	69	127
293.1627664399093	293.3833333333333	65	127
293.3833333333333	293.52267573696145	64	127
293.3833333333333	293.4181859410431	69	127
293.55750566893425	293.9058049886621	47	127
293.55750566893425	293.7548752834467	69	127
293.55750566893425	293.7548752834467	64	127
293.7548752834467	293.99866213151927	54	127
293.7548752834467	293.9522448979592	63	127
293.7548752834467	293.9522448979592	71	127
293.99866213151927	294.207641723356	56	127
293.99866213151927	294.207641723356	71	127
293.99866213151927	294.1612244897959	63	127
294.207641723356	294.3934240362812	57	127
294.207641723356	294.3585941043084	63	127
294.207641723356	294.3585941043084	72	127
294.3934240362812	294.6256235827664	57	127
294.3934240362812	294.6256235827664	72	127
294.3934240362812	294.6256235827664	63	127
294.3934240362812	295.50798185941045	40	127
294.6256235827664	294.8113605442177	56	127
294.6256235827664	294.8113605442177	64	127
294.6256235827664	294.8113605442177	71	127
294.86943310657597	294.92748299319726	71	127
294.86943310657597	294.92748299319726	56	127
294.86943310657597	294.92748299319726	64	127
295.1132426303855	295.1829024943311	64	127
295.1132426303855	295.1829024943311	56	127
295.1132426303855	295.1829024943311	71	127
295.32219954648525	295.7169614512472	56	127
295.32219954648525	295.7169614512472	71	127
295.32219954648525	295.7169614512472	64	127
295.56603174603174	295.64730158730157	44	127
295.8098412698413	295.87950113378685	47	127
296.04201814058956	296.10009070294785	50	127
296.2742403628118	296.72702947845806	53	127
296.2742403628118	296.4367800453515	59	127
296.2742403628118	296.4367800453515	56	127
296.4832199546485	296.8431292517007	56	127
296.4832199546485	296.55285714285714	62	127
296.4832199546485	296.8431292517007	59	127
296.72702947845806	297.0288888888889	52	127
296.72702947845806	296.7966893424036	68	127
296.9360090702948	297.19142857142856	56	127
296.9360090702948	297.19142857142856	59	127
296.9360090702948	296.97083900226755	71	127
297.11015873015873	297.45845804988664	76	127
297.23786848072564	297.59777777777776	56	127
297.23786848072564	297.2959183673469	44	127
297.23786848072564	297.59777777777776	59	127
297.45845804988664	297.5281179138322	47	127
297.45845804988664	297.82997732426304	74	127
297.69065759637186	298.09700680272107	59	127
297.69065759637186	298.09700680272107	56	127
297.69065759637186	297.7603174603175	50	127
297.91124716553287	298.3756462585034	53	127
298.14344671201815	298.2131065759637	62	127
298.14344671201815	298.50333333333333	56	127
298.14344671201815	298.50333333333333	59	127
298.3756462585034	298.445306122449	68	127
298.3756462585034	298.67750566893426	52	127
298.5614058956916	298.60784580498864	71	127
298.5614058956916	298.92131519274375	56	127
298.5614058956916	298.92131519274375	59	127
298.77038548752836	299.2231746031746	76	127
299.00256235827663	299.0606349206349	59	127
299.00256235827663	299.2231746031746	64	127
299.00256235827663	299.2231746031746	56	127
299.2231746031746	299.5714739229025	74	127
299.2231746031746	299.4437641723356	59	127
299.2231746031746	299.4437641723356	68	127
299.2231746031746	299.2928344671202	52	127
299.4437641723356	299.50181405895694	56	127
299.4437641723356	299.6643537414966	64	127
299.4437641723356	299.6643537414966	71	127
299.6643537414966	299.78045351473924	73	127
299.6643537414966	300.03585034013605	69	127
299.6643537414966	300.03585034013605	64	127
299.6643537414966	300.27968253968254	57	127
299.8965532879819	300.0126530612245	76	127
300.1171428571429	300.27968253968254	79	127
300.27968253968254	300.46544217687074	58	127
300.27968253968254	300.3957823129252	73	127
300.27968253968254	300.3957823129252	64	127
300.50027210884355	301.12721088435376	57	127
300.50027210884355	300.72086167800455	76	127
300.50027210884355	300.72086167800455	67	127
300.72086167800455	300.8369614512472	73	127
300.9298412698413	301.12721088435376	76	127
301.12721088435376	301.3245804988662	58	127
301.12721088435376	301.25489795918367	64	127
301.12721088435376	301.25489795918367	67	127
301.37102040816325	301.7425396825397	57	127
301.37102040816325	301.6032199546485	73	127
301.37102040816325	301.6032199546485	67	127
301.6032199546485	301.71931972789116	67	127
301.81219954648526	301.9282993197279	70	127
302.0095691609977	302.1488888888889	64	127
302.0095691609977	302.1488888888889	55	127
302.21854875283447	302.2998185941043	67	127
302.21854875283447	302.2998185941043	58	127
302.40430839002266	302.49718820861676	61	127
302.40430839002266	302.49718820861676	52	127
302.60167800453513	302.71777777777777	64	127
302.60167800453513	302.71777777777777	55	127
302.8338775510204	302.9383673469388	57	127
302.8338775510204	302.9383673469388	49	127
303.0544671201814	303.41437641723354	50	127
303.0544671201814	303.1125170068027	65	127
303.0544671201814	303.1125170068027	74	127
303.2750566893424	303.5188662131519	69	127
303.2750566893424	303.344716553288	65	127
303.2750566893424	303.344716553288	74	127
303.5188662131519	303.7394557823129	73	127
303.5188662131519	303.5885260770975	67	127
303.5188662131519	303.5885260770975	76	127
303.7394557823129	303.80909297052153	67	127
303.7394557823129	303.9252154195011	76	127
303.7394557823129	303.80909297052153	76	127
303.9716553287982	304.35478458049886	82	127
303.9716553287982	304.04131519274375	65	127
303.9716553287982	304.04131519274375	74	127
304.1574149659864	304.21546485260774	65	127
304.1574149659864	304.21546485260774	74	127
304.35478458049886	304.7263038548753	81	127
304.35478458049886	304.4128344671202	74	127
304.35478458049886	304.7263038548753	45	127
304.35478458049886	304.4128344671202	65	127
304.4360544217687	304.49410430839004	64	127
304.4360544217687	304.49410430839004	73	127
304.5057142857143	304.57537414965986	65	127
304.5057142857143	304.57537414965986	74	127
304.58698412698413	304.6450340136054	73	127
304.58698412698413	304.6450340136054	64	127
304.66825396825396	304.7263038548753	71	127
304.66825396825396	304.7263038548753	62	127
304.7378911564626	304.80757369614514	73	127
304.7378911564626	304.80757369614514	64	127
304.8191836734694	304.88884353741497	65	127
304.8191836734694	304.88884353741497	74	127
304.8191836734694	305.1907029478458	50	127
305.05138321995463	305.12104308390025	65	127
305.05138321995463	305.2835827664399	69	127
305.05138321995463	305.12104308390025	74	127
305.2835827664399	305.4809523809524	73	127
305.2835827664399	305.36485260770974	67	127
305.2835827664399	305.36485260770974	76	127
305.4809523809524	305.6899319727891	76	127
305.4809523809524	305.5390022675737	76	127
305.4809523809524	305.5390022675737	67	127
305.6899319727891	305.7363718820862	74	127
305.6899319727891	305.9569387755102	82	127
305.6899319727891	305.7363718820862	65	127
305.7363718820862	305.7944217687075	65	127
305.7363718820862	305.7944217687075	74	127
305.9569387755102	306.3284807256236	45	127
305.9569387755102	306.3284807256236	81	127
305.9569387755102	306.0150113378685	65	127
305.9569387755102	306.0150113378685	74	127
306.038231292517	306.0962811791383	73	127
306.038231292517	306.0962811791383	64	127
306.1078911564626	306.17755102040815	65	127
306.1078911564626	306.17755102040815	74	127
306.1891609977324	306.24721088435376	73	127
306.1891609977324	306.24721088435376	64	127
306.2704081632653	306.3284807256236	62	127
306.2704081632653	306.3284807256236	71	127
306.34009070294786	306.4097505668934	64	127
306.34009070294786	306.4097505668934	73	127
306.43297052154196	306.61873015873016	74	127
306.43297052154196	306.5142403628118	50	127
306.43297052154196	306.61873015873016	66	127
306.6767573696145	307.0831065759637	66	127
306.6767573696145	306.75804988662134	54	127
306.6767573696145	307.0831065759637	69	127
306.94380952380953	307.0134693877551	57	127
307.1875963718821	307.24566893424037	60	127
307.1875963718821	307.5126984126984	69	127
307.1875963718821	307.5126984126984	66	127
307.3733786848073	307.8377777777778	63	127
307.5939455782313	307.97709750566895	69	127
307.5939455782313	307.6520181405896	72	127
307.5939455782313	307.97709750566895	66	127
307.8377777777778	308.2092743764172	62	127
307.8377777777778	307.9074149659864	78	127
308.06997732426305	308.464716553288	66	127
308.06997732426305	308.464716553288	69	127
308.06997732426305	308.1396371882086	81	127
308.3021768707483	308.685306122449	86	127
308.51113378684806	308.75496598639455	69	127
308.51113378684806	308.5808163265306	54	127
308.51113378684806	308.75496598639455	66	127
308.685306122449	308.952335600907	84	127
308.685306122449	308.70852607709753	57	127
308.8362358276644	309.19614512471657	69	127
308.8362358276644	308.88267573696146	60	127
308.8362358276644	309.19614512471657	66	127
309.0568253968254	309.50961451247167	63	127
309.28902494331066	309.3586848072562	72	127
309.28902494331066	309.6257142857143	69	127
309.28902494331066	309.6257142857143	66	127
309.50961451247167	309.56766439909296	78	127
309.50961451247167	309.83469387755105	62	127
309.69537414965987	309.76503401360543	81	127
309.69537414965987	310.05526077097505	69	127
309.69537414965987	310.05526077097505	66	127
309.92757369614515	310.33392290249435	86	127
310.1017233560091	310.47324263038547	69	127
310.1017233560091	310.47324263038547	66	127
310.1017233560091	310.17138321995463	54	127
310.33392290249435	310.6822222222222	84	127
310.33392290249435	310.4035827664399	57	127
310.55448979591836	310.61256235827665	60	127
310.55448979591836	310.9028117913832	69	127
310.55448979591836	310.9028117913832	66	127
310.7634693877551	311.20467120181405	63	127
310.9956916099773	311.06535147392293	78	127
310.9956916099773	311.33238095238096	66	127
310.9956916099773	311.33238095238096	69	127
311.20467120181405	311.27430839002267	80	127
311.20467120181405	311.56458049886623	62	127
311.42526077097506	311.4949206349206	81	127
311.42526077097506	311.61102040816326	66	127
311.42526077097506	311.61102040816326	69	127
311.65746031746033	312.1334693877551	55	127
311.65746031746033	311.994126984127	67	127
311.65746031746033	311.994126984127	67	127
311.65746031746033	311.773560090703	83	127
311.86643990929707	311.97092970521544	86	127
312.0870294784581	312.261179138322	77	127
312.261179138322	312.43532879818594	56	127
312.261179138322	312.3656689342404	74	127
312.261179138322	312.3656689342404	83	127
312.4933786848073	312.7139455782313	74	127
312.4933786848073	312.7139455782313	71	127
312.4933786848073	313.00421768707486	55	127
312.7139455782313	312.8068253968254	80	127
312.91131519274376	313.1202947845805	74	127
313.1202947845805	313.2364172335601	77	127
313.1202947845805	313.2364172335601	71	127
313.1202947845805	313.3060770975057	56	127
313.3525170068027	313.73562358276644	55	127
313.3525170068027	313.584716553288	62	127
313.3525170068027	313.584716553288	71	127
313.584716553288	313.7124263038549	77	127
313.82850340136054	313.9446258503401	71	127
314.01428571428573	314.1187755102041	74	127
314.01428571428573	314.1187755102041	53	127
314.2116553287982	314.32775510204084	56	127
314.2116553287982	314.32775510204084	65	127
314.4554648526077	314.5831746031746	50	127
314.4554648526077	314.5831746031746	68	127
314.68766439909297	314.79215419501134	62	127
314.68766439909297	314.79215419501134	53	127
314.908253968254	315.0011337868481	65	127
314.908253968254	315.0011337868481	47	127
315.1172335600907	315.47714285714284	48	127
315.1172335600907	315.175283446712	72	127
315.1172335600907	315.175283446712	63	127
315.349433106576	315.4074829931973	72	127
315.349433106576	315.4074829931973	63	127
315.349433106576	315.57	67	127
315.57	315.77897959183673	71	127
315.57	315.63968253968255	74	127
315.57	315.63968253968255	65	127
315.77897959183673	315.8486621315193	74	127
315.77897959183673	315.8486621315193	65	127
315.77897959183673	315.9995918367347	74	127
315.9995918367347	316.37111111111113	80	127
315.9995918367347	316.0692517006803	63	127
315.9995918367347	316.0692517006803	72	127
316.1505215419501	316.2085714285714	63	127
316.1505215419501	316.2085714285714	72	127
316.37111111111113	316.76585034013607	43	127
316.37111111111113	316.76585034013607	79	127
316.37111111111113	316.46399092970523	63	127
316.37111111111113	316.46399092970523	72	127
316.46399092970523	316.5336507936508	62	127
316.46399092970523	316.5336507936508	71	127
316.5336507936508	316.6149206349206	63	127
316.5336507936508	316.6149206349206	72	127
316.6149206349206	316.7078004535147	71	127
316.6149206349206	316.7078004535147	62	127
316.7078004535147	316.77746031746034	60	127
316.7078004535147	316.77746031746034	69	127
316.77746031746034	316.85873015873017	71	127
316.77746031746034	316.85873015873017	62	127
316.85873015873017	317.1954195011338	48	127
316.85873015873017	316.9283900226757	63	127
316.85873015873017	316.9283900226757	72	127
317.0677097505669	317.13736961451247	72	127
317.0677097505669	317.2882993197279	67	127
317.0677097505669	317.13736961451247	63	127
317.2882993197279	317.52049886621313	71	127
317.2882993197279	317.3579591836735	74	127
317.2882993197279	317.3579591836735	65	127
317.52049886621313	317.5785487528345	65	127
317.52049886621313	317.5785487528345	74	127
317.52049886621313	317.7062585034014	74	127
317.7062585034014	317.7526984126984	63	127
317.7062585034014	317.7526984126984	72	127
317.7062585034014	318.05455782312924	80	127
317.83396825396824	317.90362811791385	72	127
317.83396825396824	317.90362811791385	63	127
318.05455782312924	318.4492970521542	79	127
318.05455782312924	318.14743764172334	72	127
318.05455782312924	318.14743764172334	63	127
318.05455782312924	318.4492970521542	43	127
318.14743764172334	318.21709750566896	71	127
318.14743764172334	318.21709750566896	62	127
318.21709750566896	318.2983673469388	72	127
318.21709750566896	318.2983673469388	63	127
318.2983673469388	318.3796371882086	62	127
318.2983673469388	318.3796371882086	71	127
318.3796371882086	318.46090702947845	60	127
318.3796371882086	318.46090702947845	69	127
318.46090702947845	318.5421768707483	71	127
318.46090702947845	318.5421768707483	62	127
318.5421768707483	318.6118367346939	72	127
318.5421768707483	318.6118367346939	63	127
318.5421768707483	318.91369614512473	48	127
318.77437641723355	319.00657596371883	72	127
318.77437641723355	318.84401360544217	67	127
318.77437641723355	318.84401360544217	63	127
319.00657596371883	319.2387755102041	75	127
319.00657596371883	319.0762358276644	67	127
319.00657596371883	319.0762358276644	63	127
319.2387755102041	319.2852154195011	67	127
319.2387755102041	319.2852154195011	63	127
319.2387755102041	319.3432653061225	79	127
319.3432653061225	319.7496145124717	82	127
319.3432653061225	319.41292517006804	64	127
319.3432653061225	319.41292517006804	67	127
319.5174149659864	319.7496145124717	41	127
319.5174149659864	319.58707482993196	64	127
319.5174149659864	319.58707482993196	67	127
319.7496145124717	320.0166439909297	44	127
319.7496145124717	319.81927437641724	65	127
319.7496145124717	319.81927437641724	68	127
319.7496145124717	320.1443537414966	80	127
320.0166439909297	320.2372335600907	48	127
320.0166439909297	320.08630385487527	65	127
320.0166439909297	320.08630385487527	68	127
320.2372335600907	320.66680272108846	51	127
320.2372335600907	320.3068934240363	65	127
320.2372335600907	320.3068934240363	68	127
320.469433106576	320.66680272108846	70	127
320.469433106576	320.515873015873	68	127
320.469433106576	320.515873015873	65	127
320.66680272108846	320.7132426303855	68	127
320.66680272108846	320.7132426303855	65	127
320.66680272108846	320.8641723356009	74	127
320.66680272108846	320.99185941043083	50	127
320.8641723356009	321.03832199546486	77	127
320.8641723356009	320.9338321995465	68	127
320.8641723356009	320.9338321995465	65	127
321.03832199546486	321.1079818594104	62	127
321.03832199546486	321.1079818594104	65	127
321.03832199546486	321.4678911564626	80	127
321.25891156462586	321.4678911564626	39	127
321.25891156462586	321.3053514739229	65	127
321.25891156462586	321.3053514739229	62	127
321.4678911564626	321.5143310657596	67	127
321.4678911564626	321.5143310657596	63	127
321.4678911564626	321.66526077097507	43	127
321.4678911564626	321.80455782312924	79	127
321.66526077097507	321.7349206349206	67	127
321.66526077097507	321.8858503401361	46	127
321.66526077097507	321.7349206349206	63	127
321.8858503401361	322.30380952380955	50	127
321.8858503401361	321.9322902494331	67	127
321.8858503401361	321.9322902494331	63	127
322.08321995464854	322.14126984126983	67	127
322.08321995464854	322.30380952380955	68	127
322.08321995464854	322.14126984126983	63	127
322.30380952380955	322.3734693877551	63	127
322.30380952380955	322.6637188208617	48	127
322.30380952380955	322.53600907029477	72	127
322.30380952380955	322.3734693877551	67	127
322.53600907029477	322.6056689342404	63	127
322.53600907029477	322.7565986394558	75	127
322.53600907029477	322.6056689342404	67	127
322.7565986394558	323.20938775510206	79	127
322.7565986394558	322.8146485260771	61	127
322.7565986394558	322.8146485260771	64	127
322.9771882086168	323.04684807256234	64	127
322.9771882086168	323.04684807256234	61	127
322.9771882086168	323.20938775510206	38	127
323.20938775510206	323.4067573696145	41	127
323.20938775510206	323.5460544217687	77	127
323.20938775510206	323.26743764172335	62	127
323.20938775510206	323.26743764172335	65	127
323.4067573696145	323.4764172335601	65	127
323.4067573696145	323.4764172335601	62	127
323.4067573696145	323.62734693877553	44	127
323.62734693877553	323.6853968253968	62	127
323.62734693877553	324.03369614512474	48	127
323.62734693877553	323.6853968253968	65	127
323.824716553288	323.89437641723356	65	127
323.824716553288	324.03369614512474	67	127
323.824716553288	323.89437641723356	62	127
324.03369614512474	324.1033560090703	65	127
324.03369614512474	324.2891156462585	71	127
324.03369614512474	324.1033560090703	62	127
324.03369614512474	324.4168253968254	47	127
324.2891156462585	324.5097052154195	74	127
324.2891156462585	324.3587528344671	65	127
324.2891156462585	324.3587528344671	62	127
324.5097052154195	324.56773242630385	62	127
324.5097052154195	324.56773242630385	59	127
324.5097052154195	324.9508843537415	77	127
324.71868480725624	324.7883446712018	62	127
324.71868480725624	324.7883446712018	59	127
324.71868480725624	324.9508843537415	48	127
324.9508843537415	325.0785714285714	63	127
324.9508843537415	325.0785714285714	60	127
324.9508843537415	325.2411337868481	44	127
324.9508843537415	325.38043083900226	75	127
325.2411337868481	325.31079365079364	63	127
325.2411337868481	325.47333333333336	43	127
325.2411337868481	325.31079365079364	60	127
325.47333333333336	325.84485260770975	60	127
325.47333333333336	325.84485260770975	63	127
325.47333333333336	325.84485260770975	42	127
325.84485260770975	325.97256235827666	84	127
326.0538321995465	326.1351020408163	87	127
326.1351020408163	326.25120181405896	75	127
326.1351020408163	326.25120181405896	72	127
326.1351020408163	326.25120181405896	42	127
326.4137188208617	326.6807709750567	54	127
326.4137188208617	326.6807709750567	63	127
326.4137188208617	326.6807709750567	69	127
326.6807709750567	326.8084807256236	81	127
326.88975056689344	327.0522902494331	84	127
327.0522902494331	327.1451700680272	42	127
327.0522902494331	327.1451700680272	69	127
327.0522902494331	327.1451700680272	72	127
327.24965986394557	327.57473922902494	63	127
327.24965986394557	327.57473922902494	60	127
327.24965986394557	327.57473922902494	54	127
327.4586394557823	327.5515192743764	78	127
327.6792290249433	327.76049886621314	81	127
327.8765986394558	327.9926984126984	48	127
327.8765986394558	327.9926984126984	60	127
327.8765986394558	327.9926984126984	72	127
328.10879818594105	328.2132879818594	51	127
328.10879818594105	328.2132879818594	63	127
328.10879818594105	328.2132879818594	75	127
328.3177777777778	328.4106575963719	45	127
328.3177777777778	328.4106575963719	57	127
328.3177777777778	328.4106575963719	69	127
328.52675736961453	328.64285714285717	72	127
328.52675736961453	328.64285714285717	48	127
328.52675736961453	328.64285714285717	60	127
328.74734693877554	328.8518367346939	66	127
328.74734693877554	328.8518367346939	54	127
328.74734693877554	328.8518367346939	42	127
328.9563265306123	329.0840362811791	67	127
328.9563265306123	329.20013605442176	43	127
328.9563265306123	329.20013605442176	55	127
328.9563265306123	329.20013605442176	67	127
329.20013605442176	329.3162358276644	55	127
329.39750566893423	329.6297052154195	65	127
329.39750566893423	329.6297052154195	55	127
329.39750566893423	329.6297052154195	47	127
329.39750566893423	329.6297052154195	62	127
329.39750566893423	329.5019954648526	67	127
329.6297052154195	329.74580498866214	62	127
329.8619047619048	330.0708843537415	60	127
329.8619047619048	330.0708843537415	48	127
329.8619047619048	329.96639455782315	63	127
329.8619047619048	330.0708843537415	63	127
329.8619047619048	330.0708843537415	55	127
330.0708843537415	330.21020408163264	60	127
330.3263038548753	330.5468934240363	44	127
330.3263038548753	330.5468934240363	60	127
330.3263038548753	330.5468934240363	60	127
330.3263038548753	330.4540136054422	72	127
330.5468934240363	330.6629931972789	66	127
330.70943310657594	331.0809523809524	43	127
330.70943310657594	330.8255328798186	67	127
330.70943310657594	330.8255328798186	59	127
330.70943310657594	330.8255328798186	62	127
330.9416326530612	331.05773242630386	62	127
330.9416326530612	331.05773242630386	59	127
330.9416326530612	331.05773242630386	55	127
331.1738321995465	331.27832199546486	62	127
331.1738321995465	331.27832199546486	65	127
331.1738321995465	331.27832199546486	71	127
331.38281179138323	331.46408163265306	67	127
331.38281179138323	331.46408163265306	55	127
331.38281179138323	331.46408163265306	59	127
331.55696145124716	331.66145124716553	63	127
331.55696145124716	331.66145124716553	67	127
331.55696145124716	331.66145124716553	72	127
331.7659410430839	331.84721088435373	60	127
331.7659410430839	331.84721088435373	67	127
331.7659410430839	331.84721088435373	63	127
331.96331065759637	332.079410430839	72	127
331.96331065759637	332.079410430839	60	127
331.96331065759637	332.079410430839	75	127
332.1839002267574	332.3	72	127
332.1839002267574	332.3	57	127
332.1839002267574	332.3	66	127
332.41609977324265	332.7992290249433	67	127
332.41609977324265	333.4261678004535	43	127
332.41609977324265	332.7992290249433	79	127
332.41609977324265	332.7992290249433	59	127
333.4261678004535	333.6815873015873	45	127
333.6815873015873	333.9021768707483	47	127
333.9021768707483	334.1227664399093	48	127
334.1227664399093	335.0283446712018	51	127
334.36657596371884	334.4362358276644	72	127
334.36657596371884	334.4362358276644	69	127
334.59877551020406	334.7961224489796	69	127
334.59877551020406	334.6684353741497	72	127
334.7961224489796	334.86580498866215	72	127
334.7961224489796	334.9702947845805	67	127
335.0283446712018	335.39984126984126	50	127
335.0283446712018	335.2605442176871	67	127
335.0283446712018	335.2605442176871	72	127
335.2605442176871	335.4114739229025	66	127
335.2605442176871	335.4114739229025	74	127
335.2605442176871	335.45791383219955	57	127
335.45791383219955	335.6901133786848	59	127
335.45791383219955	335.6901133786848	74	127
335.45791383219955	335.5275736961451	66	127
335.6901133786848	335.91068027210883	60	127
335.6901133786848	335.86426303854876	75	127
335.6901133786848	335.7597732426304	66	127
335.91068027210883	336.1312925170068	75	127
335.91068027210883	336.1312925170068	66	127
335.91068027210883	336.1312925170068	60	127
335.91068027210883	337.00204081632654	43	127
336.1312925170068	336.2938321995465	59	127
336.1312925170068	336.2938321995465	67	127
336.1312925170068	336.2938321995465	74	127
336.3402721088435	336.40993197278914	74	127
336.3402721088435	336.40993197278914	67	127
336.3402721088435	336.5260090702948	59	127
336.5724716553288	336.758231292517	59	127
336.5724716553288	336.63049886621314	67	127
336.5724716553288	336.63049886621314	74	127
336.8046712018141	337.1181405895692	67	127
336.8046712018141	337.1181405895692	59	127
336.8046712018141	337.1181405895692	74	127
337.00204081632654	337.22263038548755	45	127
337.22263038548755	337.44319727891155	47	127
337.44319727891155	337.640589569161	48	127
337.640589569161	338.522947845805	51	127
337.8843990929705	337.9540362811791	69	127
337.8843990929705	337.9540362811791	72	127
338.09337868480725	338.27913832199545	69	127
338.09337868480725	338.1514285714286	72	127
338.27913832199545	338.47648526077097	67	127
338.27913832199545	338.36040816326533	72	127
338.522947845805	338.82480725623583	50	127
338.522947845805	338.72031746031746	67	127
338.522947845805	338.72031746031746	72	127
338.72031746031746	338.8712471655329	74	127
338.72031746031746	338.90607709750566	57	127
338.72031746031746	338.8712471655329	66	127
338.90607709750566	339.13827664399093	59	127
338.90607709750566	338.9757369614513	66	127
338.90607709750566	339.13827664399093	74	127
339.13827664399093	339.3356462585034	75	127
339.13827664399093	339.3820861678005	60	127
339.13827664399093	339.21954648526076	66	127
339.3820861678005	339.73038548752834	59	127
339.3820861678005	339.60267573696143	66	127
339.3820861678005	339.60267573696143	75	127
339.3820861678005	340.39215419501136	43	127
339.60267573696143	339.7768253968254	74	127
339.60267573696143	339.7768253968254	67	127
339.80002267573695	339.8697052154195	71	127
339.80002267573695	339.8697052154195	74	127
340.04385487528344	340.1018820861678	71	127
340.04385487528344	340.1018820861678	74	127
340.2760544217687	340.554693877551	74	127
340.2760544217687	341.2396825396825	55	127
340.2760544217687	340.554693877551	67	127
340.4269841269841	340.6475736961451	43	127
340.6475736961451	340.8797732426304	47	127
340.8797732426304	341.01909297052157	50	127
341.0655328798186	341.30934240362814	55	127
341.0655328798186	342.1917006802721	67	127
341.30934240362814	341.5531519274376	59	127
341.30934240362814	341.5531519274376	53	127
341.5531519274376	341.79696145124717	50	127
341.5531519274376	341.79696145124717	62	127
341.79696145124717	342.0407709750567	65	127
341.79696145124717	342.0407709750567	47	127
342.0407709750567	342.36585034013603	43	127
342.0407709750567	342.26136054421767	67	127
342.0407709750567	343.06244897959186	79	127
342.26136054421767	342.4471201814059	65	127
342.26136054421767	342.4471201814059	71	127
342.4471201814059	342.67931972789114	62	127
342.4471201814059	342.67931972789114	74	127
342.67931972789114	342.89990929705215	77	127
342.67931972789114	342.89990929705215	59	127
342.89990929705215	343.1321088435374	79	127
342.89990929705215	343.2714058956916	55	127
343.1321088435374	343.3643083900227	77	127
343.1321088435374	343.3643083900227	83	127
343.3643083900227	343.5965079365079	74	127
343.3643083900227	343.5965079365079	86	127
343.5965079365079	343.8287074829932	89	127
343.5965079365079	343.7822448979592	71	127
343.8287074829932	344.06090702947847	91	127
343.8287074829932	344.20020408163265	67	127
343.8287074829932	344.20020408163265	55	127
343.8287074829932	344.20020408163265	62	127
343.8287074829932	344.20020408163265	59	127
344.06090702947847	344.29308390022675	89	127
344.29308390022675	344.52530612244897	86	127
344.52530612244897	344.7110430839002	83	127
344.75750566893424	345.52374149659863	91	127
344.75750566893424	345.73272108843537	43	127
344.75750566893424	345.73272108843537	65	127
344.75750566893424	345.73272108843537	55	127
344.75750566893424	345.73272108843537	71	127
344.75750566893424	345.73272108843537	62	127
345.52374149659863	345.83721088435374	89	127
345.83721088435374	346.06943310657596	86	127
346.06943310657596	346.2784126984127	83	127
347.36972789115646	347.439410430839	60	127
347.36972789115646	348.4030385487528	64	127
347.36972789115646	348.4030385487528	72	127
347.57873015873014	347.6367800453515	60	127
347.79931972789115	347.8573696145125	60	127
348.0082993197279	348.0779365079365	60	127
348.2288888888889	348.29854875283445	60	127
348.4494784580499	348.51913832199546	60	127
348.4494784580499	348.6816780045352	64	127
348.4494784580499	348.6816780045352	72	127
348.6816780045352	348.92548752834466	65	127
348.6816780045352	348.92548752834466	74	127
348.6816780045352	348.762947845805	60	127
348.92548752834466	348.9951473922903	60	127
348.92548752834466	349.09961451247165	67	127
348.92548752834466	349.09961451247165	76	127
349.11124716553286	349.1692970521542	60	127
349.11124716553286	349.9471655328798	79	127
349.11124716553286	349.9471655328798	70	127
349.11124716553286	349.9471655328798	64	127
349.3202267573696	349.37827664399094	60	127
349.4943764172336	349.56403628117914	60	127
349.7265759637188	349.7962358276644	60	127
349.9471655328798	350.0168253968254	60	127
349.9471655328798	350.31868480725626	77	127
349.9471655328798	350.31868480725626	69	127
349.9471655328798	350.31868480725626	65	127
350.1793650793651	350.24902494331064	60	127
350.41156462585036	350.4812244897959	60	127
350.64374149659864	350.7134240362812	60	127
350.87596371882086	351.95569160997735	71	127
350.87596371882086	351.95569160997735	74	127
350.87596371882086	350.9572335600907	60	127
351.10816326530613	351.1778231292517	60	127
351.32875283446714	351.3984126984127	60	127
351.5609297052154	351.630612244898	60	127
351.7699319727891	351.8395918367347	60	127
351.9905215419501	352.1530612244898	71	127
351.9905215419501	352.1530612244898	74	127
351.9905215419501	352.04857142857145	60	127
352.1530612244898	352.2111111111111	60	127
352.1530612244898	352.36204081632656	76	127
352.1530612244898	352.36204081632656	72	127
352.36204081632656	352.45492063492065	77	127
352.36204081632656	352.4317006802721	60	127
352.36204081632656	352.45492063492065	74	127
352.4781179138322	353.2560090702948	81	127
352.4781179138322	353.2560090702948	77	127
352.4781179138322	353.2560090702948	71	127
352.4781179138322	352.54780045351475	60	127
352.68709750566893	352.7567800453515	60	127
352.86126984126986	352.9077097505669	60	127
353.0354195011338	353.10507936507935	60	127
353.2560090702948	353.6275283446712	76	127
353.2560090702948	353.6275283446712	72	127
353.2560090702948	353.6275283446712	79	127
353.2560090702948	353.32566893424035	60	127
353.48820861678007	353.55786848072563	60	127
353.7204081632653	353.7900680272109	60	127
353.95260770975057	354.0222675736961	60	127
354.1731972789116	354.35895691609977	72	127
354.1731972789116	354.4750566893424	60	127
354.1731972789116	355.1948752834467	79	127
354.1731972789116	354.35895691609977	76	127
354.35895691609977	354.55632653061224	71	127
354.35895691609977	354.55632653061224	74	127
354.55632653061224	354.8001360544218	76	127
354.55632653061224	354.8001360544218	72	127
354.8001360544218	355.03231292517006	71	127
354.8001360544218	355.03231292517006	74	127
355.03231292517006	355.3806349206349	76	127
355.03231292517006	355.1948752834467	60	127
355.03231292517006	355.3806349206349	72	127
355.2412925170068	355.31097505668936	79	127
355.473514739229	355.54315192743763	81	127
355.473514739229	355.6592743764172	59	127
355.7057142857143	355.7869841269841	83	127
355.93791383219957	356.2862131519274	57	127
355.93791383219957	356.1468934240363	69	127
355.93791383219957	356.1468934240363	72	127
355.93791383219957	356.1468934240363	84	127
356.1468934240363	356.3442630385488	67	127
356.1468934240363	356.3442630385488	71	127
356.1468934240363	356.30943310657597	76	127
356.3442630385488	356.8434920634921	77	127
356.3442630385488	356.576462585034	69	127
356.3442630385488	356.576462585034	72	127
356.576462585034	356.76222222222225	71	127
356.576462585034	356.76222222222225	67	127
356.76222222222225	356.9363718820862	57	127
356.76222222222225	357.08730158730157	72	127
356.76222222222225	357.08730158730157	69	127
356.9828117913832	357.017641723356	76	127
357.1801587301587	357.3659410430839	55	127
357.1801587301587	357.26145124716555	77	127
357.4239909297052	357.50526077097504	79	127
357.6445804988662	357.9696598639456	53	127
357.6445804988662	357.79548752834467	69	127
357.6445804988662	357.79548752834467	65	127
357.6445804988662	357.8419501133787	81	127
357.8419501133787	358.0160997732426	64	127
357.8419501133787	358.0160997732426	73	127
357.8419501133787	358.0160997732426	67	127
358.0625396825397	358.22507936507935	65	127
358.0625396825397	358.22507936507935	69	127
358.0625396825397	358.120589569161	74	127
358.27151927437643	358.341179138322	76	127
358.27151927437643	358.45727891156463	67	127
358.27151927437643	358.45727891156463	61	127
358.27151927437643	358.45727891156463	57	127
358.5036961451247	358.80557823129254	50	127
358.5036961451247	358.67786848072564	77	127
358.5036961451247	358.6430385487528	62	127
358.5036961451247	358.6430385487528	65	127
358.67786848072564	358.85201814058956	69	127
358.67786848072564	358.85201814058956	64	127
358.67786848072564	358.85201814058956	60	127
358.8868480725624	359.07260770975057	62	127
358.8868480725624	359.07260770975057	65	127
358.8868480725624	358.95650793650793	74	127
359.11902494331065	359.30480725623585	62	127
359.11902494331065	359.30480725623585	66	127
359.11902494331065	359.30480725623585	69	127
359.11902494331065	359.1887074829932	72	127
359.35124716553287	359.7227664399093	67	127
359.35124716553287	359.7227664399093	55	127
359.35124716553287	359.7227664399093	67	127
359.35124716553287	359.5950566893424	72	127
359.5950566893424	359.76920634920634	71	127
359.7924263038549	360.152335600907	59	127
359.7924263038549	360.152335600907	55	127
359.7924263038549	359.86208616780044	69	127
360.0130158730159	360.0362358276644	67	127
360.152335600907	360.593514739229	60	127
360.152335600907	360.593514739229	57	127
360.152335600907	360.372925170068	66	127
360.372925170068	360.593514739229	67	127
360.593514739229	361.0114739229025	62	127
360.593514739229	360.66315192743764	65	127
360.593514739229	361.0114739229025	59	127
360.8257142857143	360.8837641723356	62	127
361.0114739229025	361.30172335600906	60	127
361.0114739229025	361.97510204081635	60	127
361.0114739229025	361.30172335600906	60	127
361.1739909297052	361.2436734693878	36	127
361.39460317460316	361.4642630385488	40	127
361.62680272108844	361.6848299319728	43	127
361.8357823129252	362.88068027210886	48	127
361.8357823129252	362.1724716553288	48	127
362.03315192743764	362.25374149659865	60	127
362.25374149659865	362.62526077097505	36	127
362.25374149659865	362.4859410430839	62	127
362.4859410430839	362.71814058956915	64	127
362.71814058956915	363.4495691609977	67	127
362.71814058956915	363.76303854875283	57	127
362.9503401360544	363.1825396825397	49	127
362.9503401360544	363.02	38	127
363.1825396825397	363.240589569161	41	127
363.1825396825397	363.4031292517007	50	127
363.4031292517007	363.6353287981859	52	127
363.4031292517007	363.47278911564626	45	127
363.6353287981859	363.98362811791384	65	127
363.6353287981859	364.64537414965986	53	127
363.6353287981859	363.98362811791384	50	127
363.8326984126984	364.07650793650794	57	127
364.07650793650794	364.29709750566894	59	127
364.07650793650794	364.4131972789116	38	127
364.29709750566894	364.4944671201814	60	127
364.4944671201814	365.1910657596372	60	127
364.4944671201814	365.48131519274375	62	127
364.7266666666667	364.9588662131519	54	127
364.7266666666667	364.8079365079365	43	127
364.9588662131519	365.01691609977325	47	127
364.9588662131519	365.14462585034016	55	127
365.14462585034016	365.1910657596372	50	127
365.14462585034016	365.34199546485263	57	127
365.34199546485263	365.667052154195	59	127
365.34199546485263	365.667052154195	55	127
365.34199546485263	365.667052154195	59	127
365.5277551020408	365.70190476190476	62	127
365.74834467120183	366.15469387755104	43	127
365.74834467120183	366.4101133786848	50	127
365.74834467120183	365.93410430839003	64	127
366.0037641723356	366.21274376417233	65	127
366.2591836734694	367.2228117913832	59	127
366.2591836734694	366.87451247165535	69	127
366.4797505668934	366.6655328798186	51	127
366.4797505668934	366.549433106576	40	127
366.6655328798186	366.8629024943311	52	127
366.6655328798186	366.71197278911563	43	127
366.8629024943311	367.06027210884355	54	127
366.8629024943311	366.8977097505669	47	127
367.06027210884355	367.3853514739229	52	127
367.06027210884355	367.3853514739229	67	127
367.06027210884355	368.1167573696145	55	127
367.28086167800456	367.46662131519275	59	127
367.46662131519275	367.69882086167803	60	127
367.46662131519275	367.83814058956915	40	127
367.69882086167803	367.93102040816325	62	127
367.93102040816325	368.9991383219955	64	127
367.93102040816325	368.66244897959183	62	127
368.1632199546485	368.2328798185941	45	127
368.1632199546485	368.3954195011338	55	127
368.3954195011338	368.6160090702948	57	127
368.3954195011338	368.46507936507936	48	127
368.6160090702948	368.68566893424037	52	127
368.6160090702948	368.8365759637188	59	127
368.8365759637188	369.19650793650794	57	127
368.8365759637188	369.19650793650794	60	127
368.8365759637188	369.0339455782313	60	127
369.0804081632653	369.3009977324263	64	127
369.0804081632653	369.3009977324263	60	127
369.3009977324263	369.69573696145125	58	127
369.3009977324263	369.69573696145125	55	127
369.3009977324263	369.5563945578231	62	127
369.3009977324263	369.5563945578231	65	127
369.5563945578231	369.78861678004534	67	127
369.5563945578231	369.78861678004534	64	127
369.78861678004534	370.32267573696146	53	127
369.78861678004534	370.22979591836736	57	127
369.78861678004534	370.05564625850343	65	127
369.78861678004534	370.05564625850343	69	127
370.05564625850343	370.32267573696146	72	127
370.05564625850343	370.32267573696146	69	127
370.32267573696146	370.566485260771	70	127
370.32267573696146	370.566485260771	55	127
370.32267573696146	370.566485260771	67	127
370.566485260771	370.78707482993195	65	127
370.566485260771	370.78707482993195	69	127
370.566485260771	370.78707482993195	57	127
370.78707482993195	370.9960544217687	64	127
370.78707482993195	371.46045351473924	58	127
370.78707482993195	372.2963718820862	60	127
370.78707482993195	370.9960544217687	67	127
370.9960544217687	371.2166439909297	64	127
370.9960544217687	371.2166439909297	60	127
371.2166439909297	371.4372335600907	62	127
371.2166439909297	371.4372335600907	65	127
371.4372335600907	371.5997505668934	64	127
371.4372335600907	371.5997505668934	67	127
371.64621315192744	371.8435827664399	57	127
371.64621315192744	371.8435827664399	65	127
371.64621315192744	371.8435827664399	69	127
371.8435827664399	372.0409523809524	53	127
371.8435827664399	372.0409523809524	84	127
371.8435827664399	372.0409523809524	81	127
372.0409523809524	372.2615419501134	79	127
372.0409523809524	372.2615419501134	55	127
372.0409523809524	372.2615419501134	82	127
372.2615419501134	372.45891156462585	57	127
372.2615419501134	372.45891156462585	77	127
372.2615419501134	372.45891156462585	81	127
372.45891156462585	372.6911111111111	76	127
372.45891156462585	372.6911111111111	79	127
372.45891156462585	373.19034013605443	60	127
372.45891156462585	373.19034013605443	58	127
372.6911111111111	372.9349206349206	76	127
372.6911111111111	372.9349206349206	72	127
372.9349206349206	373.14390022675735	77	127
372.9349206349206	373.14390022675735	74	127
373.14390022675735	373.31804988662134	76	127
373.14390022675735	373.31804988662134	79	127
373.36448979591836	373.6199092970522	76	127
373.36448979591836	373.6199092970522	61	127
373.36448979591836	373.77083900226756	57	127
373.36448979591836	373.86371882086166	81	127
373.6199092970522	373.81727891156464	67	127
373.6199092970522	373.81727891156464	64	127
373.86371882086166	373.9333786848073	67	127
373.86371882086166	373.9333786848073	64	127
373.86371882086166	374.72285714285715	73	127
374.06108843537413	374.13074829931975	64	127
374.06108843537413	374.13074829931975	67	127
374.2932879818594	374.5254875283447	64	127
374.2932879818594	374.5254875283447	67	127
374.2932879818594	374.6531972789116	50	127
374.5254875283447	374.68802721088434	66	127
374.5254875283447	374.68802721088434	62	127
374.72285714285715	374.7925170068027	66	127
374.72285714285715	375.09437641723355	74	127
374.72285714285715	374.7925170068027	62	127
374.9550566893424	375.024716553288	66	127
374.9550566893424	375.024716553288	62	127
375.18725623582765	375.57038548752837	55	127
375.18725623582765	375.4194557823129	65	127
375.18725623582765	375.4194557823129	62	127
375.4194557823129	375.6168253968254	77	127
375.4194557823129	375.6168253968254	74	127
375.66326530612247	375.7097052154195	77	127
375.66326530612247	375.7097052154195	74	127
375.66326530612247	376.34825396825397	83	127
375.7097052154195	375.76775510204084	74	127
375.7097052154195	375.76775510204084	77	127
375.8838321995465	376.12766439909296	74	127
375.8838321995465	376.2553741496599	57	127
375.8838321995465	376.12766439909296	77	127
376.12766439909296	376.30179138321995	76	127
376.12766439909296	376.30179138321995	72	127
376.34825396825397	376.71977324263037	84	127
376.34825396825397	376.41791383219953	76	127
376.34825396825397	376.41791383219953	72	127
376.58045351473925	376.6501133786848	76	127
376.58045351473925	376.6501133786848	72	127
376.8126303854875	376.9403628117914	86	127
376.8126303854875	376.98680272108845	57	127
376.8126303854875	376.98680272108845	60	127
376.9403628117914	377.01	88	127
377.0332426303855	377.1261224489796	84	127
377.1493424036281	377.17256235827665	81	127
377.1957823129252	377.93879818594104	76	127
377.1957823129252	377.3118820861678	72	127
377.1957823129252	377.3118820861678	69	127
377.3118820861678	377.42795918367347	71	127
377.3118820861678	377.42795918367347	68	127
377.42795918367347	377.54408163265305	69	127
377.42795918367347	377.54408163265305	72	127
377.54408163265305	377.6601814058957	68	127
377.54408163265305	377.6601814058957	71	127
377.6601814058957	378.49609977324263	62	127
377.6601814058957	378.49609977324263	69	127
377.6601814058957	378.49609977324263	72	127
378.17102040816326	378.2871201814059	79	127
378.2871201814059	378.3683900226757	78	127
378.3683900226757	378.4496371882086	79	127
378.4496371882086	378.53092970521544	78	127
378.53092970521544	378.6121995464853	76	127
378.6121995464853	378.68185941043083	78	127
378.68185941043083	379.0533560090703	55	127
378.68185941043083	378.9256689342404	67	127
378.68185941043083	378.9256689342404	71	127
378.68185941043083	378.80956916099774	79	127
378.80956916099774	378.9256689342404	81	127
378.9256689342404	379.03015873015875	83	127
378.9256689342404	379.0998185941043	62	127
378.9256689342404	379.0998185941043	67	127
379.03015873015875	379.1462585034014	84	127
379.1462585034014	379.21591836734694	67	127
379.1462585034014	379.3320181405896	86	127
379.1462585034014	379.21591836734694	71	127
379.3784580498866	379.4481179138322	67	127
379.3784580498866	379.4481179138322	71	127
379.58743764172334	379.93573696145125	55	127
379.58743764172334	379.6919274376417	78	127
379.6919274376417	379.80802721088435	79	127
379.80802721088435	379.9125170068027	81	127
379.80802721088435	379.97056689342406	66	127
379.80802721088435	380.0170068027211	72	127
379.9125170068027	380.0170068027211	83	127
380.0170068027211	380.26081632653063	69	127
380.0170068027211	380.2259863945578	84	127
380.0170068027211	380.2259863945578	66	127
380.26081632653063	380.44657596371883	66	127
380.26081632653063	380.44657596371883	81	127
380.26081632653063	380.48140589569164	72	127
380.48140589569164	380.8761451247166	55	127
380.48140589569164	380.5975056689342	79	127
380.48140589569164	380.6787755102041	67	127
380.48140589569164	380.7252154195011	71	127
380.5975056689342	380.7252154195011	81	127
380.7252154195011	380.9109750566893	67	127
380.7252154195011	380.9109750566893	62	127
380.7252154195011	380.85292517006803	83	127
380.85292517006803	380.9574149659864	84	127
380.9574149659864	381.02707482993196	71	127
380.9574149659864	381.02707482993196	67	127
380.9574149659864	381.11995464852606	86	127
381.11995464852606	381.13156462585033	71	127
381.11995464852606	381.13156462585033	67	127
381.2824943310658	381.66562358276644	55	127
381.2824943310658	381.3985941043084	78	127
381.3985941043084	381.52630385487527	79	127
381.52630385487527	381.71206349206346	66	127
381.52630385487527	381.6424036281179	81	127
381.52630385487527	381.71206349206346	72	127
381.6424036281179	381.72367346938773	83	127
381.7468934240363	381.93265306122447	66	127
381.7468934240363	381.8629931972789	69	127
381.7468934240363	381.8629931972789	84	127
381.8629931972789	381.97909297052155	72	127
381.8629931972789	381.97909297052155	81	127
381.97909297052155	382.1532426303855	66	127
381.97909297052155	382.0951927437642	69	127
381.97909297052155	382.0951927437642	84	127
382.0951927437642	382.19968253968256	72	127
382.0951927437642	382.176462585034	81	127
382.19968253968256	382.2693424036281	67	127
382.19968253968256	382.397052154195	79	127
382.19968253968256	382.3157823129252	71	127
382.19968253968256	382.2693424036281	55	127
382.3157823129252	382.44349206349204	74	127
382.44349206349204	382.57120181405895	71	127
382.44349206349204	382.52476190476193	50	127
382.44349206349204	382.57120181405895	83	127
382.44349206349204	382.52476190476193	66	127
382.57120181405895	382.69891156462586	74	127
382.57120181405895	382.60603174603176	81	127
382.69891156462586	382.838231292517	71	127
382.69891156462586	382.7801814058957	67	127
382.69891156462586	382.7801814058957	55	127
382.69891156462586	382.9078911564626	79	127
382.838231292517	382.9543310657596	74	127
382.9543310657596	383.07043083900226	71	127
382.9543310657596	383.07043083900226	83	127
382.9543310657596	383.02399092970523	50	127
382.9543310657596	383.02399092970523	66	127
383.07043083900226	383.1865306122449	74	127
383.07043083900226	383.10526077097506	81	127
383.1865306122449	383.60448979591837	79	127
383.1865306122449	383.60448979591837	55	127
383.1865306122449	383.60448979591837	67	127
383.1865306122449	383.60448979591837	71	127
384.1849886621315	384.2778684807256	64	127
384.3126984126984	384.8119274376417	64	127
384.3126984126984	384.8119274376417	72	127
384.3126984126984	384.8119274376417	79	127
384.3126984126984	384.55650793650796	48	127
384.3126984126984	384.55650793650796	64	127
384.3126984126984	384.55650793650796	67	127
384.55650793650796	384.7654875283447	60	127
384.55650793650796	384.7654875283447	48	127
384.55650793650796	384.7654875283447	64	127
384.8119274376417	384.9048072562358	67	127
384.8119274376417	384.9048072562358	64	127
384.8119274376417	385.0325170068027	48	127
384.96285714285716	384.9976870748299	77	127
385.0789569160998	385.14861678004536	64	127
385.0789569160998	385.2531065759637	48	127
385.0789569160998	385.11378684807255	76	127
385.0789569160998	385.14861678004536	67	127
385.18344671201817	385.2182766439909	74	127
385.29954648526075	385.6710657596372	64	127
385.29954648526075	385.6710657596372	67	127
385.29954648526075	385.33437641723356	72	127
385.29954648526075	385.6710657596372	48	127
385.4156462585034	385.4504761904762	71	127
385.531746031746	385.56657596371883	69	127
385.64784580498866	385.6710657596372	67	127
385.74072562358276	385.7639455782313	65	127
385.84521541950113	385.88004535147394	64	127
385.96131519274377	385.9845351473923	62	127
386.06580498866214	386.0890249433107	60	127
386.15868480725624	386.28639455782314	59	127
386.15868480725624	387.15714285714284	53	127
386.15868480725624	387.15714285714284	55	127
386.15868480725624	387.15714285714284	50	127
386.28639455782314	386.367664399093	62	127
386.367664399093	386.4605442176871	60	127
386.4605442176871	386.51859410430836	64	127
386.51859410430836	386.62308390022673	62	127
386.62308390022673	386.75079365079364	65	127
386.75079365079364	386.8668934240363	64	127
386.8668934240363	386.97138321995465	67	127
386.97138321995465	387.0874829931973	59	127
386.97138321995465	387.33129251700683	65	127
387.0874829931973	387.19197278911565	62	127
387.19197278911565	387.3080725623583	60	127
387.3080725623583	387.42417233560093	64	127
387.42417233560093	387.517052154195	62	127
387.517052154195	387.63315192743767	65	127
387.63315192743767	387.73764172335603	64	127
387.73764172335603	387.8537414965986	67	127
387.8537414965986	388.0278911564626	65	127
387.8537414965986	388.0278911564626	62	127
387.8537414965986	388.0278911564626	55	127
387.8537414965986	387.9350113378685	77	127
387.9350113378685	388.01628117913833	79	127
388.0278911564626	388.06272108843535	81	127
388.0278911564626	388.22526077097507	62	127
388.0278911564626	388.22526077097507	59	127
388.0278911564626	388.22526077097507	43	127
388.14399092970524	388.178820861678	79	127
388.2717006802721	388.3413605442177	55	127
388.2717006802721	388.3413605442177	62	127
388.2717006802721	388.3065306122449	77	127
388.2717006802721	388.3413605442177	65	127
388.399410430839	388.4342403628118	76	127
388.51551020408164	388.5851700680272	55	127
388.51551020408164	388.55034013605444	74	127
388.51551020408164	388.5851700680272	65	127
388.51551020408164	388.5851700680272	62	127
388.6316099773243	388.666439909297	72	127
388.7477097505669	388.97990929705213	65	127
388.7477097505669	388.86380952380955	71	127
388.7477097505669	389.4094784580499	55	127
388.7477097505669	388.97990929705213	62	127
388.86380952380955	388.97990929705213	72	127
388.97990929705213	389.1656689342404	59	127
388.97990929705213	389.01473922902494	74	127
388.97990929705213	389.1656689342404	62	127
389.09600907029477	389.1308390022676	72	127
389.20049886621314	389.3398185941043	62	127
389.20049886621314	389.3398185941043	59	127
389.20049886621314	389.23532879818595	71	127
389.29337868480724	389.3049886621315	69	127
389.3746485260771	389.4326984126984	62	127
389.3746485260771	389.3978684807256	67	127
389.3746485260771	389.4326984126984	59	127
389.4791383219955	389.502358276644	65	127
389.5836281179138	389.92031746031745	60	127
389.5836281179138	389.6881179138322	64	127
389.5836281179138	389.92031746031745	60	127
389.5836281179138	389.92031746031745	48	127
389.6881179138322	389.8042176870748	67	127
389.8042176870748	389.8970975056689	65	127
389.8970975056689	390.0015873015873	69	127
390.0015873015873	390.10607709750565	67	127
390.10607709750565	390.2221768707483	70	127
390.2221768707483	390.3034467120181	69	127
390.3034467120181	390.4079365079365	72	127
390.4079365079365	390.76784580498867	70	127
390.4079365079365	390.51242630385485	60	127
390.4079365079365	390.48920634920637	64	127
390.51242630385485	390.6285260770975	67	127
390.51242630385485	390.6285260770975	64	127
390.6285260770975	390.7446258503401	65	127
390.6285260770975	390.7446258503401	62	127
390.7446258503401	390.86072562358277	65	127
390.7446258503401	390.86072562358277	69	127
390.86072562358277	390.96521541950113	64	127
390.86072562358277	390.96521541950113	67	127
390.96521541950113	391.09292517006804	70	127
390.96521541950113	391.09292517006804	67	127
391.09292517006804	391.2090249433107	65	127
391.09292517006804	391.2090249433107	69	127
391.2090249433107	391.33673469387753	69	127
391.2090249433107	391.33673469387753	72	127
391.33673469387753	391.74308390022674	70	127
391.33673469387753	391.74308390022674	67	127
391.33673469387753	391.45283446712017	76	127
391.45283446712017	391.5689342403628	79	127
391.5689342403628	391.708253968254	77	127
391.708253968254	391.83596371882084	81	127
391.83596371882084	391.9520634920635	79	127
391.9520634920635	392.0797732426304	82	127
392.0797732426304	392.18426303854875	81	127
392.18426303854875	392.2887528344671	84	127
392.2887528344671	392.40485260770976	79	127
392.2887528344671	392.5790022675737	82	127
392.40485260770976	392.49773242630386	81	127
392.49773242630386	392.5790022675737	82	127
392.5790022675737	392.6138321995465	79	127
392.5790022675737	392.8344217687075	82	127
392.6138321995465	392.71832199546486	77	127
392.71832199546486	392.81120181405896	76	127
392.81120181405896	392.9273015873016	74	127
392.9273015873016	393.1595011337869	82	127
392.9273015873016	393.04340136054424	45	127
392.9273015873016	394.26244897959185	73	127
392.9273015873016	394.26244897959185	67	127
393.04340136054424	393.1595011337869	49	127
393.1595011337869	393.31043083900227	81	127
393.1595011337869	393.2639909297052	47	127
393.2639909297052	393.36848072562356	50	127
393.36848072562356	393.4845804988662	49	127
393.36848072562356	394.1463492063492	81	127
393.4845804988662	393.60068027210883	52	127
393.60068027210883	393.71678004535147	50	127
393.71678004535147	393.85609977324265	53	127
393.85609977324265	394.22761904761904	52	127
394.32049886621314	394.63396825396825	79	127
394.32049886621314	394.63396825396825	73	127
394.32049886621314	394.5643083900227	81	127
394.63396825396825	395.94589569160996	74	127
394.63396825396825	394.7500680272109	50	127
394.63396825396825	394.9706575963719	81	127
394.63396825396825	395.94589569160996	77	127
394.7500680272109	394.8661678004535	53	127
394.8661678004535	394.9706575963719	52	127
394.9706575963719	395.08675736961453	55	127
394.9706575963719	395.063537414966	77	127
395.08675736961453	395.6440362811791	81	127
395.08675736961453	395.20285714285717	53	127
395.20285714285717	395.31895691609975	57	127
395.31895691609975	395.4350566893424	55	127
395.4350566893424	395.551156462585	58	127
395.551156462585	395.9110657596372	57	127
395.7833560090703	395.99233560090704	86	127
395.99233560090704	396.2941950113379	65	127
395.99233560090704	396.14326530612243	85	127
395.99233560090704	396.2941950113379	57	127
396.14326530612243	396.2941950113379	86	127
396.2941950113379	396.4102947845805	40	127
396.2941950113379	397.5596825396825	64	127
396.2941950113379	397.5596825396825	56	127
396.2941950113379	396.52639455782315	86	127
396.4102947845805	396.52639455782315	44	127
396.52639455782315	396.71215419501135	76	127
396.52639455782315	396.64249433106573	42	127
396.64249433106573	396.7585941043084	45	127
396.7585941043084	396.874693877551	44	127
396.7585941043084	397.44358276643993	76	127
396.874693877551	396.9791836734694	47	127
396.9791836734694	397.095283446712	45	127
397.095283446712	397.1881632653061	48	127
397.1881632653061	397.53646258503403	47	127
397.6061224489796	398.02408163265306	68	127
397.6061224489796	398.02408163265306	74	127
397.6061224489796	397.93120181405897	76	127
398.02408163265306	398.1401814058957	45	127
398.02408163265306	398.3607709750567	76	127
398.02408163265306	399.2663492063492	72	127
398.02408163265306	399.2663492063492	69	127
398.1401814058957	398.25628117913834	48	127
398.25628117913834	398.3607709750567	47	127
398.3607709750567	398.4536507936508	77	127
398.3607709750567	398.47687074829935	50	127
398.47687074829935	398.9644897959184	76	127
398.47687074829935	398.58136054421766	48	127
398.58136054421766	398.66263038548755	52	127
398.66263038548755	398.7671201814059	50	127
398.7671201814059	398.8716099773243	53	127
398.8716099773243	399.2315192743764	52	127
399.09219954648523	399.3243990929705	81	127
399.3243990929705	399.6378684807256	60	127
399.3243990929705	399.6378684807256	57	127
399.3243990929705	399.5449886621315	83	127
399.5449886621315	399.71913832199544	84	127
399.71913832199544	399.8236281179138	41	127
399.71913832199544	399.89328798185943	60	127
399.71913832199544	399.93972789115645	84	127
399.71913832199544	399.89328798185943	57	127
399.8236281179138	399.93972789115645	45	127
399.93972789115645	400.0558276643991	74	127
399.93972789115645	400.0558276643991	43	127
400.0558276643991	400.1719274376417	46	127
400.1719274376417	400.38090702947846	45	127
400.1719274376417	400.4273469387755	60	127
400.1719274376417	400.4273469387755	65	127
400.4273469387755	400.53183673469385	69	127
400.4273469387755	400.5898866213152	74	127
400.4273469387755	400.53183673469385	65	127
400.6363265306122	400.75242630385486	53	127
400.6363265306122	400.8685260770975	74	127
400.75242630385486	400.8685260770975	57	127
400.8685260770975	400.98462585034014	55	127
400.8685260770975	400.98462585034014	84	127
400.98462585034014	401.1007256235828	58	127
401.1007256235828	401.3097052154195	57	127
401.1007256235828	401.3097052154195	72	127
401.1007256235828	401.3097052154195	77	127
401.3097052154195	401.4141950113379	69	127
401.3097052154195	401.4374149659864	84	127
401.3097052154195	401.4141950113379	72	127
401.44902494331063	401.553514739229	43	127
401.44902494331063	401.6812244897959	84	127
401.553514739229	401.6812244897959	46	127
401.6812244897959	401.79732426303855	76	127
401.6812244897959	401.79732426303855	45	127
401.79732426303855	401.9134240362812	48	127
401.9134240362812	402.1224036281179	64	127
401.9134240362812	402.1224036281179	55	127
401.9134240362812	402.07596371882084	47	127
402.1224036281179	402.3081632653061	76	127
402.1224036281179	402.23850340136056	60	127
402.1224036281179	402.23850340136056	67	127
402.34299319727893	402.435873015873	55	127
402.34299319727893	402.55197278911567	76	127
402.435873015873	402.55197278911567	58	127
402.55197278911567	402.6216326530612	57	127
402.55197278911567	402.6216326530612	84	127
402.6216326530612	402.70290249433106	60	127
402.70290249433106	402.9118820861678	58	127
402.70290249433106	402.95832199546487	64	127
402.70290249433106	402.95832199546487	79	127
402.95832199546487	403.06281179138324	76	127
402.95832199546487	403.06281179138324	67	127
402.95832199546487	403.1324716553288	84	127
403.1789115646259	403.29501133786846	77	127
403.1789115646259	403.29501133786846	69	127
403.1789115646259	403.538820861678	57	127
403.1789115646259	403.29501133786846	84	127
403.29501133786846	403.4111111111111	76	127
403.29501133786846	403.4111111111111	67	127
403.4111111111111	403.51560090702947	79	127
403.4111111111111	403.51560090702947	71	127
403.51560090702947	403.6317006802721	77	127
403.51560090702947	403.6317006802721	69	127
403.6317006802721	403.79424036281176	81	127
403.6317006802721	403.74780045351474	81	127
403.6317006802721	403.79424036281176	72	127
403.74780045351474	403.84068027210884	80	127
403.84068027210884	403.9567800453515	83	127
403.9567800453515	404.0728798185941	81	127
404.0728798185941	404.4443990929705	45	127
404.0728798185941	404.1773696145125	65	127
404.0728798185941	404.1773696145125	57	127
404.0728798185941	404.24702947845805	84	127
404.1773696145125	404.2934693877551	55	127
404.1773696145125	404.2934693877551	64	127
404.2934693877551	404.4095691609977	58	127
404.2934693877551	404.4095691609977	67	127
404.4095691609977	404.50244897959186	65	127
404.4095691609977	404.50244897959186	57	127
404.50244897959186	404.60693877551023	77	127
404.50244897959186	404.6765986394558	69	127
404.50244897959186	404.6765986394558	60	127
404.60693877551023	404.7230385487528	76	127
404.7230385487528	404.81591836734697	79	127
404.81591836734697	404.9204081632653	77	127
404.9204081632653	405.09455782312926	81	127
404.9204081632653	405.0365079365079	65	127
404.9204081632653	405.2687074829932	53	127
404.9204081632653	405.0365079365079	74	127
405.0365079365079	405.129387755102	64	127
405.0365079365079	405.129387755102	72	127
405.129387755102	405.24548752834465	76	127
405.129387755102	405.24548752834465	67	127
405.24548752834465	405.3615873015873	74	127
405.24548752834465	405.3615873015873	65	127
405.3615873015873	405.5357369614512	69	127
405.3615873015873	405.47768707482993	74	127
405.3615873015873	405.5357369614512	79	127
405.47768707482993	405.5821768707483	73	127
405.5821768707483	405.65183673469386	76	127
405.65183673469386	405.7563265306122	74	127
405.7563265306122	405.87242630385487	77	127
405.87242630385487	405.9885260770975	79	127
405.9885260770975	406.1742857142857	59	127
405.9885260770975	406.10462585034014	77	127
405.9885260770975	406.1742857142857	50	127
405.9885260770975	406.1742857142857	53	127
406.10462585034014	406.2207256235828	76	127
406.2207256235828	406.41809523809525	52	127
406.2207256235828	406.41809523809525	55	127
406.2207256235828	406.41809523809525	60	127
406.2207256235828	406.3484353741497	74	127
406.3484353741497	406.452925170068	72	127
406.452925170068	406.627074829932	62	127
406.452925170068	406.627074829932	53	127
406.452925170068	406.627074829932	57	127
406.452925170068	406.55741496598637	71	127
406.55741496598637	406.6502947845805	69	127
406.673514739229	406.85927437641726	60	127
406.673514739229	407.04503401360546	55	127
406.673514739229	406.85927437641726	67	127
406.673514739229	406.85927437641726	64	127
406.9057142857143	407.0798639455782	60	127
406.9057142857143	406.9985941043084	69	127
406.9057142857143	407.0798639455782	64	127
407.0218140589569	407.10308390022675	71	127
407.1263038548753	407.2075736961451	72	127
407.1263038548753	407.3004535147392	60	127
407.1263038548753	407.3004535147392	64	127
407.1263038548753	407.47460317460315	52	127
407.23079365079366	407.32367346938776	74	127
407.3468934240363	407.50943310657595	64	127
407.3468934240363	407.4397732426304	76	127
407.3468934240363	407.50943310657595	60	127
407.46299319727893	407.5210430839002	77	127
407.5326530612245	407.7184126984127	60	127
407.5326530612245	407.64875283446713	79	127
407.5326530612245	407.7184126984127	64	127
407.64875283446713	407.7184126984127	77	127
407.74163265306123	407.9041723356009	60	127
407.74163265306123	407.8112925170068	76	127
407.74163265306123	407.9041723356009	64	127
407.83451247165533	407.9390022675737	77	127
407.96222222222224	408.14798185941044	60	127
407.96222222222224	408.2989115646258	57	127
407.96222222222224	408.05510204081634	79	127
407.96222222222224	408.14798185941044	64	127
408.0783219954649	408.171201814059	81	127
408.18281179138324	408.3453514739229	60	127
408.18281179138324	408.2640816326531	83	127
408.18281179138324	408.3453514739229	64	127
408.2873015873016	408.36857142857144	84	127
408.3801814058957	408.5659410430839	60	127
408.3801814058957	408.49628117913835	80	127
408.3801814058957	408.74009070294784	53	127
408.3801814058957	408.5659410430839	62	127
408.49628117913835	408.61238095238093	81	127
408.61238095238093	408.7865306122449	62	127
408.61238095238093	408.6936507936508	83	127
408.61238095238093	408.7865306122449	60	127
408.7168707482993	408.8097505668934	81	127
408.83297052154194	409.2044897959184	50	127
408.83297052154194	408.92585034013604	79	127
408.83297052154194	409.01873015873014	62	127
408.83297052154194	409.01873015873014	60	127
408.9490702947846	409.0419501133787	77	127
409.0651700680272	409.1580498866213	76	127
409.0651700680272	409.2625396825397	62	127
409.0651700680272	409.2625396825397	60	127
409.18126984126985	409.2857596371882	74	127
409.30897959183676	409.3902494331066	76	127
409.30897959183676	409.6688888888889	55	127
409.30897959183676	409.4715192743764	59	127
409.30897959183676	409.4715192743764	65	127
409.3902494331066	409.4482993197279	74	127
409.4482993197279	409.5179591836735	76	127
409.5179591836735	409.58761904761906	74	127
409.5179591836735	409.71532879818596	59	127
409.5179591836735	409.71532879818596	65	127
409.58761904761906	409.68049886621316	76	127
409.68049886621316	409.761768707483	74	127
409.761768707483	409.95913832199545	65	127
409.761768707483	410.1681179138322	43	127
409.761768707483	409.83142857142855	76	127
409.761768707483	409.95913832199545	71	127
409.83142857142855	409.91269841269843	74	127
409.91269841269843	410.00557823129253	76	127
410.00557823129253	410.0752380952381	74	127
410.00557823129253	410.202947845805	71	127
410.00557823129253	410.202947845805	65	127
410.0752380952381	410.17972789115646	72	127
410.17972789115646	410.249387755102	74	127
410.249387755102	410.7021768707483	64	127
410.249387755102	410.7021768707483	48	127
410.249387755102	410.7021768707483	72	127
410.8414965986395	411.22462585034015	60	127
411.30589569161	411.44521541950115	79	127
411.30589569161	411.44521541950115	64	127
411.78190476190474	411.9328344671202	79	127
411.78190476190474	411.9328344671202	64	127
412.25791383219956	412.6526530612245	72	127
412.25791383219956	412.6526530612245	48	127
412.25791383219956	412.95451247165533	63	127
412.25791383219956	412.95451247165533	78	127
412.76875283446714	413.1867120181406	72	127
412.76875283446714	413.1867120181406	60	127
412.95451247165533	413.08222222222224	64	127
412.95451247165533	413.08222222222224	79	127
413.117052154195	413.17510204081634	60	127
413.117052154195	413.17510204081634	76	127
413.2795918367347	413.4305215419501	78	127
413.2795918367347	413.4305215419501	63	127
413.2795918367347	414.5915192743764	72	127
413.2795918367347	413.6511111111111	55	127
413.4305215419501	413.558231292517	64	127
413.4305215419501	413.558231292517	79	127
413.58145124716555	413.62789115646257	76	127
413.58145124716555	413.62789115646257	60	127
413.73238095238094	414.1039002267574	52	127
413.73238095238094	413.8833106575964	63	127
413.73238095238094	413.8833106575964	78	127
413.8833106575964	414.0342403628118	64	127
413.8833106575964	414.0342403628118	79	127
414.0342403628118	414.08068027210885	76	127
414.0342403628118	414.08068027210885	60	127
414.1851700680272	414.5915192743764	48	127
414.1851700680272	414.5682993197279	79	127
414.1851700680272	414.5682993197279	64	127
414.5682993197279	414.661179138322	60	127
414.5682993197279	414.661179138322	76	127
414.6843990929705	415.04430839002265	79	127
414.6843990929705	415.04430839002265	64	127
415.1371882086168	415.45065759637185	68	127
415.45065759637185	415.6364172335601	69	127
415.45065759637185	415.8570068027211	84	127
415.6364172335601	415.8570068027211	66	127
415.8570068027211	416.3214058956916	83	127
415.8570068027211	416.08920634920634	67	127
416.08920634920634	416.3214058956916	64	127
416.3214058956916	416.7858049886621	81	127
416.3214058956916	416.5419954648526	65	127
416.5419954648526	416.7858049886621	63	127
416.7858049886621	417.0528344671202	61	127
416.7858049886621	417.0528344671202	79	127
416.7858049886621	417.0528344671202	64	127
416.7858049886621	417.0528344671202	70	127
417.0528344671202	417.2734240362812	66	127
417.0528344671202	417.2734240362812	78	127
417.0528344671202	417.2734240362812	62	127
417.0528344671202	417.2734240362812	69	127
417.2734240362812	417.5056235827664	68	127
417.2734240362812	417.5056235827664	77	127
417.2734240362812	417.5056235827664	74	127
417.2734240362812	417.5056235827664	59	127
417.5056235827664	417.7842630385488	72	127
417.5056235827664	417.7842630385488	76	127
417.5056235827664	417.7842630385488	67	127
417.5056235827664	417.7842630385488	60	127
417.7842630385488	418.03968253968253	54	127
417.7842630385488	418.03968253968253	81	127
417.7842630385488	418.03968253968253	72	127
417.7842630385488	418.03968253968253	62	127
418.03968253968253	418.7362811791383	64	127
418.03968253968253	419.16585034013605	67	127
418.03968253968253	419.16585034013605	55	127
418.03968253968253	418.7362811791383	72	127
418.7362811791383	419.2819501133787	71	127
418.7362811791383	419.2819501133787	62	127
419.3748299319728	419.51414965986396	64	127
419.3748299319728	419.51414965986396	79	127
419.9437188208617	420.0830385487528	64	127
419.9437188208617	420.0830385487528	79	127
420.38489795918366	420.70997732426304	84	127
420.38489795918366	420.93056689342404	63	127
420.38489795918366	420.93056689342404	78	127
420.80285714285714	421.19759637188207	84	127
420.96539682539685	421.08149659863943	79	127
420.96539682539685	421.08149659863943	64	127
421.1395464852608	421.1859863945578	76	127
421.1395464852608	421.1859863945578	60	127
421.2788662131519	421.4065759637188	78	127
421.2788662131519	421.9406349206349	84	127
421.2788662131519	421.4065759637188	63	127
421.42979591836735	421.54589569161	64	127
421.42979591836735	421.54589569161	79	127
421.5807256235828	421.61555555555555	60	127
421.5807256235828	421.61555555555555	76	127
421.7200453514739	421.83614512471655	63	127
421.7200453514739	421.83614512471655	78	127
421.8593650793651	421.987074829932	64	127
421.8593650793651	421.987074829932	79	127
421.9406349206349	422.1263945578231	88	127
422.0102947845805	422.05673469387756	60	127
422.0102947845805	422.05673469387756	76	127
422.1728344671202	422.3237641723356	83	127
422.1728344671202	422.52113378684805	64	127
422.1728344671202	422.4514739229025	79	127
422.3237641723356	422.4514739229025	86	127
422.4863038548753	422.5327437641723	84	127
422.52113378684805	422.6256235827664	76	127
422.52113378684805	422.6256235827664	60	127
422.64884353741496	422.7185034013605	83	127
422.64884353741496	423.0784126984127	79	127
422.64884353741496	423.0784126984127	64	127
422.83460317460316	422.88104308390024	81	127
422.9971428571429	423.0435827664399	79	127
423.1712925170068	423.2061224489796	77	127
423.310612244898	423.357052154195	76	127
423.47315192743764	423.5195918367347	74	127
423.6240816326531	424.00721088435375	52	127
423.6240816326531	424.41356009070296	60	127
423.6240816326531	423.78662131519275	72	127
423.6240816326531	424.0884807256236	67	127
423.78662131519275	423.83306122448977	74	127
423.93755102040814	423.9839909297052	70	127
424.0884807256236	424.41356009070296	53	127
424.0884807256236	424.13492063492066	69	127
424.0884807256236	424.13492063492066	65	127
424.22780045351476	424.2742403628118	81	127
424.22780045351476	424.2742403628118	84	127
424.3555102040816	424.4019501133787	79	127
424.3555102040816	424.4019501133787	83	127
424.50643990929706	424.5528798185941	77	127
424.50643990929706	424.87795918367345	53	127
424.50643990929706	424.5528798185941	81	127
424.50643990929706	424.8547392290249	72	127
424.6689795918367	424.7154195011338	76	127
424.6689795918367	424.7154195011338	79	127
424.81990929705216	424.8663492063492	74	127
424.81990929705216	424.8663492063492	77	127
424.8547392290249	424.9592290249433	69	127
424.9592290249433	425.09854875283446	72	127
424.9592290249433	425.09854875283446	76	127
424.9592290249433	425.3075283446712	55	127
424.9592290249433	425.6326077097506	67	127
425.09854875283446	425.14498866213154	81	127
425.09854875283446	425.14498866213154	77	127
425.2610884353742	425.2959183673469	76	127
425.2610884353742	425.2959183673469	79	127
425.388798185941	425.77192743764175	55	127
425.388798185941	425.4352380952381	74	127
425.388798185941	425.4352380952381	77	127
425.55133786848074	425.59777777777776	76	127
425.55133786848074	425.59777777777776	72	127
425.6326077097506	425.81836734693877	65	127
425.70226757369613	425.7487074829932	74	127
425.70226757369613	425.7487074829932	71	127
425.86480725623585	425.9925170068027	64	127
425.86480725623585	426.23632653061225	72	127
425.86480725623585	426.23632653061225	48	127
426.0273469387755	426.0737868480726	67	127
426.17827664399096	426.224716553288	65	127
426.32920634920634	426.3756462585034	64	127
426.32920634920634	426.7819954648526	48	127
426.491746031746	426.5381859410431	62	127
426.64267573696145	426.68911564625853	60	127
426.7819954648526	427.2463945578231	50	127
426.7819954648526	426.82843537414965	59	127
426.9445351473923	426.99097505668936	57	127
427.08385487528346	427.1302947845805	55	127
427.2463945578231	427.28122448979593	53	127
427.2463945578231	427.6991836734694	43	127
427.2463945578231	427.6991836734694	59	127
427.2463945578231	427.59469387755104	67	127
427.28122448979593	427.3160544217687	55	127
427.3160544217687	427.36249433106576	53	127
427.36249433106576	427.50181405895694	52	127
427.50181405895694	427.6527437641723	53	127
427.6991836734694	428.1635827664399	60	127
427.6991836734694	428.0707029478458	52	127
427.6991836734694	427.81528344671204	67	127
427.8501133786848	427.8965532879819	79	127
428.0126530612245	428.05909297052153	77	127
428.1635827664399	428.5815419501134	48	127
428.1635827664399	428.210022675737	76	127
428.1635827664399	428.5815419501134	55	127
428.3261224489796	428.36095238095237	74	127
428.46544217687074	428.4886621315193	72	127
428.5815419501134	428.62798185941045	71	127
428.5815419501134	429.0111111111111	50	127
428.7324716553288	428.77891156462584	69	127
428.8834013605442	428.90662131519275	67	127
429.0111111111111	429.49873015873015	43	127
429.0111111111111	429.49873015873015	71	127
429.0111111111111	429.40585034013606	67	127
429.0111111111111	429.05755102040814	65	127
429.05755102040814	429.09238095238095	67	127
429.09238095238095	429.138820861678	65	127
429.138820861678	429.3013605442177	64	127
429.3013605442177	429.45229024943313	65	127
429.49873015873015	429.8818594104308	72	127
429.49873015873015	429.800589569161	64	127
429.49873015873015	429.6148299319728	67	127
429.6496598639456	429.6960997732426	79	127
429.77736961451245	429.7889795918367	77	127
429.8818594104308	430.3346485260771	48	127
429.8818594104308	429.9282993197279	76	127
429.8818594104308	430.3346485260771	67	127
430.04439909297054	430.0792290249433	74	127
430.1721088435374	430.21854875283447	72	127
430.3346485260771	430.3810884353741	71	127
430.3346485260771	430.76421768707485	50	127
430.4739682539683	430.5204081632653	69	127
430.63650793650794	430.68294784580496	67	127
430.76421768707485	431.0892970521542	79	127
430.76421768707485	430.7990476190476	65	127
430.76421768707485	431.1821768707483	43	127
430.76421768707485	431.1821768707483	59	127
430.7990476190476	430.8338775510204	67	127
430.8338775510204	430.8803174603175	65	127
430.8803174603175	431.00802721088434	64	127
431.00802721088434	431.13573696145124	65	127
431.1821768707483	431.2866666666667	79	127
431.1821768707483	431.54208616780045	64	127
431.1821768707483	431.63496598639455	60	127
431.3331065759637	431.44920634920635	88	127
431.48403628117916	431.611746031746	86	127
431.63496598639455	432.0645351473923	48	127
431.63496598639455	432.0645351473923	55	127
431.63496598639455	431.7510657596372	84	127
431.78589569161	431.89038548752836	83	127
431.9252154195011	432.0297052154195	81	127
432.0645351473923	432.1922448979592	79	127
432.0645351473923	432.49410430839004	50	127
432.21546485260774	432.3431746031746	77	127
432.3780045351474	432.4708843537415	76	127
432.49410430839004	432.8772335600907	55	127
432.49410430839004	432.5289342403628	74	127
432.49410430839004	432.9701133786848	83	127
432.49410430839004	432.9701133786848	43	127
432.5289342403628	432.57537414965986	76	127
432.57537414965986	432.6102040816327	74	127
432.6102040816327	432.77274376417233	72	127
432.77274376417233	432.9236734693878	74	127
432.9701133786848	433.3184126984127	76	127
432.9701133786848	433.07460317460317	55	127
432.9701133786848	433.43451247165535	84	127
433.109433106576	433.155873015873	67	127
433.26036281179137	433.30680272108845	65	127
433.43451247165535	433.4809523809524	64	127
433.43451247165535	433.8292517006803	48	127
433.43451247165535	433.8292517006803	79	127
433.597052154195	433.6434920634921	62	127
433.74798185941046	433.7828117913832	60	127
433.8292517006803	433.95696145124714	59	127
433.8292517006803	434.30526077097505	50	127
433.99179138321995	434.11950113378686	57	127
434.15433106575966	434.27043083900224	55	127
434.30526077097505	434.74643990929707	43	127
434.30526077097505	434.67678004535145	83	127
434.30526077097505	434.4213605442177	53	127
434.4561904761905	434.58390022675735	52	127
434.6071201814059	434.7232199546485	50	127
434.74643990929707	434.8625396825397	84	127
434.74643990929707	434.920589569161	67	127
434.74643990929707	434.920589569161	48	127
434.74643990929707	434.920589569161	40	127
434.8625396825397	434.89736961451246	83	127
434.9554195011338	435.0599092970522	60	127
434.9554195011338	435.0599092970522	55	127
434.9554195011338	435.0599092970522	52	127
434.9554195011338	434.99024943310656	81	127
435.0599092970522	435.0947392290249	79	127
435.1760090702948	435.40820861678003	52	127
435.1760090702948	435.40820861678003	60	127
435.1760090702948	435.40820861678003	55	127
435.1760090702948	435.1992290249433	77	127
435.2921088435374	435.3269387755102	76	127
435.40820861678003	435.4546485260771	74	127
435.53591836734694	435.57074829931975	72	127
435.6520181405896	435.7681179138322	71	127
435.7681179138322	435.80294784580497	72	127
435.88421768707485	435.9190476190476	74	127
435.97709750566895	436.00031746031743	72	127
436.0815873015873	436.1860770975057	71	127
436.1860770975057	436.19768707482996	72	127
436.244126984127	436.2789569160998	76	127
436.3253968253968	436.3602267573696	72	127
436.44149659863945	436.5575963718821	81	127
436.44149659863945	436.62725623582764	41	127
436.44149659863945	436.62725623582764	48	127
436.44149659863945	436.62725623582764	69	127
436.5575963718821	436.5924263038549	79	127
436.6736961451247	436.7781859410431	53	127
436.6736961451247	436.7781859410431	57	127
436.6736961451247	436.70852607709753	77	127
436.6736961451247	436.7781859410431	60	127
436.7781859410431	436.8130158730159	76	127
436.89428571428573	437.12648526077095	53	127
436.89428571428573	436.9291156462585	74	127
436.89428571428573	437.12648526077095	60	127
436.89428571428573	437.12648526077095	57	127
437.01038548752837	437.0452154195011	72	127
437.12648526077095	437.16131519274376	71	127
437.2425850340136	437.2774149659864	69	127
437.3586848072562	437.47478458049886	68	127
437.47478458049886	437.57927437641723	69	127
437.57927437641723	437.60249433106577	71	127
437.6837641723356	437.7185941043084	69	127
437.78825396825397	437.89274376417234	68	127
437.89274376417234	437.92757369614515	69	127
438.008843537415	438.0436734693877	72	127
438.1017233560091	438.1249433106576	69	127
438.20621315192744	438.39197278911564	43	127
438.20621315192744	438.3223129251701	77	127
438.20621315192744	438.39197278911564	50	127
438.20621315192744	438.39197278911564	71	127
438.3223129251701	438.35714285714283	76	127
438.4384126984127	438.47324263038547	74	127
438.4384126984127	438.5429024943311	62	127
438.4384126984127	438.5429024943311	59	127
438.4384126984127	438.5429024943311	55	127
438.5429024943311	438.57773242630384	72	127
438.67061224489794	438.70544217687075	71	127
438.67061224489794	438.89120181405895	62	127
438.67061224489794	438.89120181405895	59	127
438.67061224489794	438.89120181405895	55	127
438.7867120181406	438.8215419501134	69	127
438.89120181405895	438.937641723356	67	127
439.0073015873016	439.0421315192744	65	127
439.1234013605442	439.2162811791383	64	127
439.2162811791383	439.25111111111113	65	127
439.3207709750567	439.3556009070295	67	127
439.42526077097506	439.4368707482993	65	127
439.5065306122449	439.6226303854875	64	127
439.6226303854875	439.65746031746033	65	127
439.73873015873016	439.773560090703	69	127
439.8548299319728	439.88965986394555	65	127
439.97092970521544	440.34244897959184	48	127
439.97092970521544	440.34244897959184	55	127
439.97092970521544	440.34244897959184	60	127
439.97092970521544	440.11024943310656	64	127
440.11024943310656	440.14507936507937	67	127
440.23795918367347	440.261179138322	65	127
440.33083900226757	440.3540589569161	64	127
440.43532879818594	440.47015873015874	65	127
440.5514285714286	440.5862585034014	67	127
440.6443083900227	440.6791383219955	69	127
440.74879818594104	440.78362811791385	71	127
440.8532879818594	440.96938775510205	72	127
440.96938775510205	441.0738775510204	71	127
441.0738775510204	441.09709750566896	72	127
441.1667573696145	441.1783673469388	74	127
441.2596371882086	441.364126984127	76	127
441.364126984127	441.3989569160998	77	127
441.46861678004535	441.50344671201816	79	127
441.584716553288	441.60793650793653	81	127
441.68920634920636	442.37419501133786	82	127
441.68920634920636	441.805306122449	55	127
441.68920634920636	441.87496598639456	61	127
441.68920634920636	441.87496598639456	40	127
441.805306122449	441.90979591836737	67	127
441.90979591836737	442.06072562358275	52	127
441.90979591836737	442.00267573696146	66	127
441.90979591836737	442.06072562358275	61	127
442.00267573696146	442.10716553287983	67	127
442.10716553287983	442.22326530612247	69	127
442.10716553287983	442.28131519274376	52	127
442.10716553287983	442.28131519274376	61	127
442.22326530612247	442.32775510204084	67	127
442.32775510204084	442.51351473922904	61	127
442.32775510204084	442.4438548752834	65	127
442.32775510204084	442.51351473922904	52	127
442.4438548752834	442.55995464852606	67	127
442.55995464852606	442.7457142857143	52	127
442.55995464852606	442.6760544217687	67	127
442.55995464852606	443.2565532879819	61	127
442.55995464852606	442.7457142857143	67	127
442.6760544217687	442.78054421768707	70	127
442.78054421768707	442.954693877551	52	127
442.78054421768707	442.954693877551	67	127
442.78054421768707	442.88503401360543	69	127
442.88503401360543	443.0011337868481	70	127
443.0011337868481	443.1172335600907	72	127
443.0011337868481	443.175283446712	67	127
443.0011337868481	443.175283446712	52	127
443.1172335600907	443.2217233560091	70	127
443.2217233560091	443.395873015873	52	127
443.2217233560091	443.395873015873	67	127
443.2217233560091	443.32621315192745	69	127
443.32621315192745	443.4423129251701	70	127
443.4423129251701	443.5584126984127	62	127
443.4423129251701	444.04603174603176	62	127
443.4423129251701	443.6280725623583	65	127
443.4423129251701	443.6280725623583	41	127
443.5584126984127	443.6629024943311	69	127
443.6629024943311	443.7441723356009	67	127
443.6629024943311	443.7790022675737	65	127
443.6629024943311	443.7790022675737	53	127
443.7441723356009	443.8022222222222	69	127
443.8022222222222	443.88349206349204	71	127
443.8022222222222	443.95315192743766	65	127
443.8022222222222	443.95315192743766	53	127
443.88349206349204	443.9995918367347	69	127
443.9995918367347	444.1853514739229	65	127
443.9995918367347	444.1853514739229	53	127
443.9995918367347	444.1156916099773	67	127
444.1156916099773	444.23179138321996	69	127
444.23179138321996	444.4059410430839	63	127
444.23179138321996	444.4059410430839	42	127
444.23179138321996	444.3362811791383	69	127
444.23179138321996	444.8935600907029	81	127
444.3362811791383	444.45238095238096	72	127
444.45238095238096	444.60331065759635	63	127
444.45238095238096	444.60331065759635	54	127
444.45238095238096	444.54526077097506	71	127
444.54526077097506	444.63814058956916	72	127
444.63814058956916	444.8122902494331	54	127
444.63814058956916	444.8122902494331	63	127
444.63814058956916	444.74263038548753	74	127
444.74263038548753	444.8471201814059	72	127
444.8471201814059	445.0328798185941	54	127
444.8471201814059	444.96321995464854	71	127
444.8471201814059	445.0328798185941	63	127
444.96321995464854	445.0793197278912	72	127
445.0793197278912	445.7991383219955	79	127
445.0793197278912	445.1954195011338	67	127
445.0793197278912	445.24185941043083	64	127
445.0793197278912	445.24185941043083	43	127
445.1954195011338	445.2882993197279	72	127
445.2882993197279	445.4740589569161	64	127
445.2882993197279	445.4043990929705	71	127
445.2882993197279	445.4740589569161	55	127
445.4043990929705	445.50888888888886	72	127
445.50888888888886	445.7062585034014	55	127
445.50888888888886	445.7062585034014	64	127
445.50888888888886	445.6249886621315	74	127
445.6249886621315	445.7526984126984	72	127
445.7526984126984	445.86879818594105	71	127
445.7526984126984	445.9384580498866	64	127
445.7526984126984	445.9384580498866	55	127
445.86879818594105	445.9848979591837	72	127
445.9848979591837	446.1706575963719	43	127
445.9848979591837	446.0661678004535	72	127
445.9848979591837	446.1009977324263	55	127
445.9848979591837	446.1706575963719	65	127
446.0661678004535	446.1358276643991	71	127
446.1009977324263	446.21709750566896	62	127
446.1358276643991	446.21709750566896	72	127
446.21709750566896	446.3912471655329	65	127
446.21709750566896	446.33319727891154	60	127
446.21709750566896	446.3912471655329	55	127
446.21709750566896	446.2983673469388	71	127
446.2983673469388	446.36802721088435	72	127
446.33319727891154	446.4376870748299	62	127
446.36802721088435	446.4376870748299	71	127
446.4376870748299	446.6002267573696	55	127
446.4376870748299	446.5189569160998	72	127
446.4376870748299	446.6002267573696	65	127
446.4376870748299	446.55378684807255	64	127
446.5189569160998	446.5770068027211	71	127
446.55378684807255	446.64666666666665	62	127
446.5770068027211	446.64666666666665	72	127
446.64666666666665	446.82081632653063	65	127
446.64666666666665	446.751156462585	60	127
446.64666666666665	446.82081632653063	55	127
446.64666666666665	446.704716553288	71	127
446.704716553288	446.7859863945578	69	127
446.751156462585	446.8904761904762	62	127
446.7859863945578	446.8440362811791	71	127
446.8904761904762	447.0762358276644	36	127
446.8904761904762	447.2619954648526	64	127
446.8904761904762	447.8889342403628	60	127
446.8904761904762	447.2619954648526	72	127
447.12267573696147	447.30843537414967	48	127
447.3432653061225	447.7612244897959	55	127
447.3432653061225	447.50580498866213	48	127
447.54063492063494	447.7147845804989	48	127
447.7612244897959	448.1559637188209	52	127
447.7612244897959	447.90054421768707	48	127
447.94698412698415	448.1559637188209	60	127
447.94698412698415	448.1095238095238	48	127
448.1559637188209	448.35333333333335	62	127
448.1559637188209	448.31850340136054	48	127
448.1559637188209	448.5855328798186	48	127
448.35333333333335	448.5855328798186	64	127
448.35333333333335	448.53909297052155	48	127
448.5855328798186	448.8990022675737	67	127
448.5855328798186	448.72485260770975	48	127
448.5855328798186	449.5259410430839	67	127
448.5855328798186	448.8990022675737	59	127
448.7712925170068	448.9338321995465	48	127
448.9686621315193	449.13120181405895	48	127
448.9686621315193	449.36340136054423	62	127
448.9686621315193	449.27052154195013	65	127
449.17764172335603	449.31696145124715	48	127
449.36340136054423	449.54916099773243	48	127
449.36340136054423	449.86263038548753	59	127
449.6072108843537	449.8045804988662	48	127
449.6072108843537	449.86263038548753	67	127
449.86263038548753	450.06	48	127
449.86263038548753	450.1064399092971	69	127
449.86263038548753	450.3734693877551	55	127
450.1064399092971	450.32702947845803	48	127
450.1064399092971	450.3734693877551	71	127
450.3734693877551	450.5592290249433	48	127
450.3734693877551	450.7449886621315	64	127
450.3734693877551	450.8378684807256	74	127
450.61727891156465	450.8378684807256	71	127
450.61727891156465	450.7914285714286	48	127
450.8378684807256	451.2790476190476	67	127
450.8378684807256	451.0120181405896	48	127
450.8378684807256	451.1977777777778	72	127
450.8378684807256	451.0584580498866	72	127
451.0584580498866	451.2790476190476	71	127
451.0584580498866	451.2442176870748	48	127
451.2790476190476	451.62734693877553	64	127
451.2790476190476	451.48802721088435	72	127
451.2790476190476	451.4415873015873	48	127
451.48802721088435	451.62734693877553	48	127
451.48802721088435	451.62734693877553	73	127
451.62734693877553	452.0569160997732	60	127
451.62734693877553	451.7898866213152	48	127
451.62734693877553	451.83632653061227	74	127
451.83632653061227	452.0569160997732	76	127
451.83632653061227	452.02208616780047	48	127
452.0569160997732	452.4168253968254	71	127
452.0569160997732	452.2426757369615	48	127
452.0569160997732	453.4617233560091	77	127
452.2891156462585	452.4632653061224	48	127
452.2891156462585	452.49809523809523	78	127
452.49809523809523	452.71868480725624	79	127
452.49809523809523	452.67224489795916	48	127
452.49809523809523	452.93927437641725	74	127
452.71868480725624	452.89283446712017	48	127
452.71868480725624	452.93927437641725	78	127
452.93927437641725	453.12503401360544	48	127
452.93927437641725	453.1714739229025	79	127
452.93927437641725	453.40367346938774	71	127
453.1714739229025	453.40367346938774	80	127
453.1714739229025	453.3572335600907	48	127
453.40367346938774	453.8332426303855	67	127
453.40367346938774	453.5546031746032	48	127
453.40367346938774	453.6010430839002	81	127
453.6010430839002	453.8332426303855	83	127
453.6010430839002	453.78680272108846	48	127
453.8332426303855	454.06544217687076	76	127
453.8332426303855	454.0190022675737	48	127
453.8332426303855	454.9129705215419	55	127
453.8332426303855	454.2628117913832	84	127
454.06544217687076	454.29764172335604	79	127
454.29764172335604	454.52984126984126	76	127
454.29764172335604	454.48340136054424	52	127
454.52984126984126	454.76204081632653	72	127
454.76204081632653	454.9942403628118	71	127
454.76204081632653	454.94780045351473	55	127
454.9942403628118	455.2148299319728	67	127
454.9942403628118	455.2148299319728	55	127
455.2148299319728	455.38897959183674	43	127
455.2148299319728	455.4238095238095	57	127
455.2148299319728	455.4238095238095	65	127
455.4238095238095	455.6792290249433	59	127
455.4238095238095	455.621179138322	62	127
455.6792290249433	455.85337868480724	48	127
455.6792290249433	455.8998185941043	64	127
455.6792290249433	456.1204081632653	62	127
455.6792290249433	456.73573696145127	79	127
455.8998185941043	456.35260770975054	67	127
456.1204081632653	456.3061678004535	52	127
456.1204081632653	456.48031746031745	60	127
456.35260770975054	456.57319727891155	72	127
456.57319727891155	456.75895691609975	55	127
456.57319727891155	456.8053968253968	71	127
456.8053968253968	457.02598639455783	77	127
456.8053968253968	457.02598639455783	69	127
457.02598639455783	457.24657596371884	43	127
457.02598639455783	457.29301587301586	76	127
457.02598639455783	457.29301587301586	67	127
457.29301587301586	457.52521541950114	65	127
457.29301587301586	457.52521541950114	74	127
457.52521541950114	458.55850340136055	67	127
457.52521541950114	457.71097505668934	48	127
457.52521541950114	457.7574149659864	63	127
457.52521541950114	458.0012244897959	71	127
457.7574149659864	458.0012244897959	64	127
458.0012244897959	458.2218140589569	67	127
458.0012244897959	458.1753741496599	64	127
458.0012244897959	458.3611337868481	72	127
458.2218140589569	458.43079365079365	72	127
458.43079365079365	458.6281632653061	71	127
458.43079365079365	458.5817233560091	67	127
458.6281632653061	458.8255328798186	67	127
458.6281632653061	458.8255328798186	67	127
458.8255328798186	458.976462585034	69	127
458.8255328798186	458.93002267573695	55	127
458.8255328798186	458.976462585034	65	127
458.976462585034	459.20866213151925	71	127
458.976462585034	459.15061224489796	62	127
459.1390022675737	459.18544217687077	79	127
459.20866213151925	459.3944217687075	60	127
459.20866213151925	459.56857142857143	74	127
459.20866213151925	460.2071201814059	91	127
459.20866213151925	459.4408616780045	64	127
459.4408616780045	459.60340136054424	67	127
459.64984126984126	459.97492063492064	72	127
459.64984126984126	459.858820861678	79	127
459.64984126984126	459.812380952381	64	127
459.858820861678	460.00975056689344	84	127
460.05619047619047	460.2767800453515	83	127
460.05619047619047	460.2303401360544	67	127
460.2767800453515	460.4857596371882	81	127
460.2767800453515	460.43931972789113	89	127
460.4857596371882	460.65990929705214	55	127
460.4857596371882	460.65990929705214	88	127
460.4857596371882	460.7063492063492	79	127
460.7063492063492	460.9385487528345	77	127
460.7063492063492	460.8921088435374	86	127
460.9385487528345	461.9834467120181	48	127
460.9385487528345	461.13591836734696	83	127
460.9385487528345	461.13591836734696	75	127
461.13591836734696	461.32167800453516	84	127
461.13591836734696	461.32167800453516	67	127
461.13591836734696	461.32167800453516	76	127
461.3681179138322	461.5770975056689	67	127
461.3681179138322	461.44938775510207	84	127
461.3681179138322	461.44938775510207	76	127
461.6119274376417	461.6815873015873	84	127
461.6119274376417	461.6815873015873	76	127
461.6119274376417	461.7628571428571	67	127
461.8092970521542	462.19242630385486	76	127
461.8092970521542	462.19242630385486	67	127
461.8092970521542	462.19242630385486	84	127
462.05310657596374	462.28530612244896	48	127
462.28530612244896	462.5291156462585	50	127
462.5291156462585	462.78453514739226	52	127
462.78453514739226	463.2489342403628	55	127
463.01673469387754	463.2489342403628	69	127
463.01673469387754	463.2489342403628	62	127
463.01673469387754	463.2489342403628	72	127
463.2489342403628	463.3766439909297	74	127
463.2489342403628	463.3766439909297	84	127
463.2489342403628	463.8526530612245	53	127
463.2489342403628	463.3766439909297	69	127
463.49274376417236	463.55079365079365	84	127
463.49274376417236	463.55079365079365	74	127
463.49274376417236	463.655283446712	69	127
463.7017233560091	464.0268027210884	69	127
463.7017233560091	464.0268027210884	74	127
463.7017233560091	464.0268027210884	84	127
463.92231292517005	464.08485260770976	50	127
464.08485260770976	464.31705215419504	52	127
464.31705215419504	464.54925170068026	53	127
464.54925170068026	464.9904308390023	57	127
464.758231292517	464.9904308390023	70	127
464.758231292517	464.9904308390023	64	127
464.758231292517	464.9904308390023	72	127
464.9904308390023	465.0717006802721	84	127
464.9904308390023	465.0717006802721	70	127
464.9904308390023	465.53609977324265	55	127
464.9904308390023	465.0717006802721	76	127
465.1645804988662	465.3387301587302	70	127
465.1645804988662	465.22263038548755	76	127
465.1645804988662	465.22263038548755	84	127
465.3851700680272	465.7102494331066	76	127
465.3851700680272	465.7102494331066	70	127
465.3851700680272	465.7102494331066	84	127
465.59414965986394	465.8031292517007	52	127
465.8031292517007	466.0469387755102	53	127
466.0469387755102	466.302358276644	55	127
466.302358276644	466.75514739229027	58	127
466.53455782312926	466.75514739229027	72	127
466.53455782312926	466.75514739229027	65	127
466.53455782312926	466.75514739229027	72	127
466.75514739229027	466.8712471655329	77	127
466.75514739229027	466.8712471655329	72	127
466.75514739229027	467.3472562358277	57	127
466.75514739229027	466.8712471655329	84	127
466.9873469387755	467.04539682539684	77	127
466.9873469387755	467.13827664399093	84	127
466.9873469387755	467.04539682539684	72	127
467.18471655328796	467.5562358276644	72	127
467.18471655328796	467.5562358276644	84	127
467.18471655328796	467.5562358276644	77	127
467.41691609977323	467.6491156462585	53	127
467.6491156462585	467.85809523809525	55	127
467.85809523809525	468.2180045351474	57	127
468.2180045351474	469.3325623582766	78	127
468.2180045351474	469.3325623582766	81	127
468.2180045351474	469.3325623582766	60	127
468.2180045351474	469.3325623582766	75	127
469.40222222222224	469.71569160997734	58	127
469.40222222222224	469.71569160997734	74	127
469.40222222222224	469.71569160997734	79	127
469.40222222222224	469.71569160997734	82	127
469.71569160997734	469.93628117913835	81	127
469.71569160997734	469.93628117913835	72	127
469.71569160997734	469.93628117913835	57	127
469.71569160997734	469.93628117913835	84	127
469.93628117913835	470.26136054421767	55	127
469.93628117913835	470.26136054421767	86	127
469.93628117913835	470.26136054421767	82	127
469.93628117913835	470.26136054421767	70	127
470.26136054421767	471.49201814058955	70	127
470.26136054421767	471.1321088435374	67	127
470.26136054421767	471.1321088435374	61	127
470.26136054421767	471.46879818594107	77	127
471.30625850340135	471.8287074829932	60	127
471.61972789115646	471.9215873015873	76	127
471.9215873015873	472.1421768707483	82	127
472.1421768707483	472.3743764172336	79	127
472.3743764172336	472.57174603174604	77	127
472.57174603174604	472.7691156462585	76	127
472.7691156462585	472.90843537414963	67	127
472.7691156462585	472.90843537414963	79	127
472.90843537414963	473.0593650793651	76	127
472.90843537414963	473.10580498866216	64	127
473.10580498866216	473.3380045351474	74	127
473.10580498866216	473.3380045351474	62	127
473.3380045351474	473.5469841269841	60	127
473.3380045351474	473.5469841269841	72	127
473.5469841269841	473.7675736961451	74	127
473.5469841269841	473.7675736961451	62	127
473.7675736961451	473.94172335600905	70	127
473.7675736961451	473.94172335600905	58	127
473.9881632653061	474.2435827664399	69	127
473.9881632653061	474.2435827664399	57	127
474.2435827664399	474.47578231292516	67	127
474.2435827664399	474.47578231292516	55	127
474.47578231292516	474.6847619047619	66	127
474.47578231292516	474.6847619047619	54	127
474.6847619047619	474.8705215419501	67	127
474.6847619047619	474.8705215419501	55	127
474.8705215419501	475.1027210884354	56	127
474.8705215419501	475.1027210884354	68	127
475.1027210884354	475.3233106575964	57	127
475.1027210884354	475.3233106575964	69	127
475.3233106575964	475.6019501133787	70	127
475.3233106575964	475.6019501133787	58	127
475.6019501133787	475.7877097505669	59	127
475.6019501133787	475.7877097505669	71	127
475.83414965986395	476.05473922902496	58	127
475.83414965986395	476.24049886621316	60	127
475.83414965986395	476.101179138322	64	127
475.83414965986395	476.9138775510204	72	127
476.101179138322	476.33337868480726	65	127
476.101179138322	476.2869387755102	58	127
476.33337868480726	476.51913832199546	64	127
476.33337868480726	476.47269841269843	58	127
476.51913832199546	476.75133786848073	65	127
476.51913832199546	476.7165079365079	58	127
476.75133786848073	477.0996371882086	64	127
476.75133786848073	476.93709750566893	58	127
476.983537414966	477.19251700680275	73	127
476.983537414966	477.14607709750567	58	127
477.19251700680275	477.4014965986395	74	127
477.19251700680275	477.37827664399094	58	127
477.4014965986395	477.62208616780043	76	127
477.4014965986395	477.5756462585034	58	127
477.62208616780043	477.7962358276644	57	127
477.62208616780043	477.9819954648526	79	127
477.62208616780043	478.6089342403628	60	127
477.8542857142857	478.06326530612245	72	127
477.8542857142857	478.02843537414964	57	127
478.06326530612245	478.24902494331064	69	127
478.06326530612245	478.3651247165533	77	127
478.06326530612245	478.2141950113379	57	127
478.24902494331064	478.4463945578231	65	127
478.24902494331064	478.41156462585036	57	127
478.4463945578231	478.8643537414966	64	127
478.4463945578231	478.6321541950113	58	127
478.6669841269841	478.82952380952383	58	127
478.6669841269841	478.82952380952383	61	127
478.8643537414966	479.29392290249433	67	127
478.8643537414966	479.0268934240363	62	127
478.8643537414966	479.0268934240363	58	127
479.0733333333333	479.2590929705215	58	127
479.0733333333333	479.2590929705215	64	127
479.29392290249433	479.677052154195	67	127
479.29392290249433	480.29238095238094	72	127
479.29392290249433	479.4796825396825	57	127
479.5261224489796	479.7118820861678	57	127
479.5261224489796	479.7583219954648	72	127
479.7583219954648	480.0834013605442	65	127
479.7583219954648	480.00213151927437	69	127
479.7583219954648	479.95569160997735	57	127
480.00213151927437	480.1530612244898	65	127
480.00213151927437	480.1298412698413	57	127
480.1530612244898	480.3156009070295	58	127
480.1530612244898	480.5942403628118	64	127
480.1530612244898	481.1631292517007	60	127
480.37365079365077	480.54780045351475	58	127
480.37365079365077	480.54780045351475	73	127
480.5942403628118	481.01219954648525	67	127
480.5942403628118	480.73356009070295	74	127
480.5942403628118	480.73356009070295	58	127
480.78	480.9657596371882	76	127
480.78	480.9657596371882	58	127
481.01219954648525	481.221179138322	79	127
481.01219954648525	481.17473922902496	57	127
481.221179138322	481.4301587301587	61	127
481.221179138322	481.3837188208617	57	127
481.221179138322	481.4301587301587	65	127
481.221179138322	481.3837188208617	77	127
481.4301587301587	481.9409977324263	72	127
481.4301587301587	481.6159183673469	58	127
481.4301587301587	481.662358276644	69	127
481.4301587301587	481.662358276644	62	127
481.662358276644	481.882947845805	64	127
481.662358276644	481.882947845805	67	127
481.662358276644	481.8481179138322	58	127
481.882947845805	482.0338775510204	57	127
481.882947845805	482.0803174603175	67	127
481.882947845805	482.0803174603175	64	127
482.0803174603175	482.3009070294785	65	127
482.0803174603175	482.3009070294785	65	127
482.0803174603175	482.2544671201814	57	127
482.0803174603175	482.2544671201814	73	127
482.3009070294785	482.4750566893424	74	127
482.3009070294785	482.4750566893424	58	127
482.3009070294785	482.52149659863943	69	127
482.3009070294785	482.71886621315195	60	127
482.52149659863943	482.6724263038549	67	127
482.52149659863943	482.6724263038549	76	127
482.52149659863943	482.6724263038549	58	127
482.71886621315195	482.92784580498864	60	127
482.71886621315195	482.8930158730159	57	127
482.71886621315195	482.92784580498864	64	127
482.71886621315195	482.92784580498864	79	127
482.92784580498864	483.1019954648526	57	127
482.92784580498864	483.1019954648526	60	127
482.92784580498864	483.1019954648526	65	127
482.92784580498864	483.1019954648526	77	127
483.14843537414964	483.3225850340136	58	127
483.14843537414964	483.6708843537415	72	127
483.14843537414964	483.3225850340136	69	127
483.14843537414964	483.3225850340136	62	127
483.36902494331065	483.5431746031746	58	127
483.36902494331065	483.5431746031746	64	127
483.36902494331065	483.5431746031746	67	127
483.58961451247166	483.7985941043084	67	127
483.58961451247166	483.7521541950113	64	127
483.58961451247166	483.7521541950113	57	127
483.7985941043084	483.96113378684805	57	127
483.7985941043084	483.96113378684805	65	127
483.7985941043084	483.96113378684805	65	127
483.7985941043084	483.96113378684805	73	127
483.9843537414966	484.3442630385488	60	127
483.9843537414966	484.1701133786848	58	127
483.9843537414966	484.1701133786848	74	127
483.9843537414966	484.1701133786848	69	127
484.21655328798187	484.36748299319726	76	127
484.21655328798187	484.36748299319726	67	127
484.21655328798187	484.36748299319726	58	127
484.3907029478458	484.6112925170068	79	127
484.3907029478458	484.5648526077097	57	127
484.3907029478458	484.6112925170068	60	127
484.3907029478458	484.6112925170068	64	127
484.6112925170068	484.797052154195	65	127
484.6112925170068	484.797052154195	77	127
484.6112925170068	484.797052154195	60	127
484.6112925170068	484.797052154195	57	127
484.8434920634921	485.0524716553288	67	127
484.8434920634921	485.00603174603174	57	127
485.0524716553288	485.22662131519274	60	127
485.0524716553288	485.22662131519274	72	127
485.0524716553288	485.22662131519274	57	127
485.0524716553288	485.22662131519274	65	127
485.2730612244898	485.4356009070295	52	127
485.2730612244898	485.4704308390023	81	127
485.2730612244898	485.4704308390023	72	127
485.4704308390023	485.6445804988662	70	127
485.4704308390023	485.6445804988662	52	127
485.4704308390023	485.6445804988662	79	127
485.4704308390023	485.6445804988662	60	127
485.69102040816324	485.8767800453515	52	127
485.69102040816324	485.88839002267576	69	127
485.88839002267576	486.0625396825397	52	127
485.88839002267576	486.0625396825397	70	127
485.88839002267576	486.0625396825397	67	127
485.88839002267576	486.0625396825397	72	127
486.1089795918367	486.2831292517007	53	127
486.1089795918367	486.31795918367345	82	127
486.1089795918367	486.31795918367345	79	127
486.31795918367345	486.4688888888889	53	127
486.31795918367345	486.4688888888889	60	127
486.31795918367345	486.4688888888889	77	127
486.31795918367345	486.4688888888889	81	127
486.5153287981859	486.72430839002266	71	127
486.5153287981859	486.67786848072564	53	127
486.72430839002266	486.81718820861676	53	127
486.72430839002266	486.81718820861676	69	127
486.72430839002266	486.81718820861676	72	127
486.72430839002266	486.81718820861676	81	127
486.86362811791383	487.08421768707484	83	127
486.86362811791383	487.03777777777776	54	127
486.86362811791383	487.08421768707484	75	127
487.08421768707484	487.25836734693877	54	127
487.08421768707484	487.25836734693877	69	127
487.08421768707484	487.25836734693877	76	127
487.08421768707484	487.25836734693877	84	127
487.30480725623585	487.52539682539685	71	127
487.30480725623585	487.4673469387755	54	127
487.52539682539685	487.6995464852608	84	127
487.52539682539685	487.6995464852608	76	127
487.52539682539685	487.6995464852608	54	127
487.52539682539685	487.6995464852608	72	127
487.73437641723353	487.95496598639454	76	127
487.73437641723353	487.9085260770975	55	127
487.73437641723353	487.95496598639454	84	127
487.95496598639454	488.1291156462585	72	127
487.95496598639454	488.1291156462585	55	127
487.95496598639454	488.1291156462585	79	127
487.95496598639454	488.1291156462585	64	127
488.17555555555555	488.326485260771	55	127
488.17555555555555	488.372925170068	72	127
488.372925170068	488.52385487528346	67	127
488.372925170068	488.52385487528346	55	127
488.372925170068	488.52385487528346	72	127
488.372925170068	488.52385487528346	76	127
488.5702947845805	488.7328344671202	55	127
488.5702947845805	488.7792743764172	79	127
488.5702947845805	488.7792743764172	76	127
488.7792743764172	488.8837641723356	77	127
488.7792743764172	488.8837641723356	55	127
488.7792743764172	488.8837641723356	59	127
488.7792743764172	488.8837641723356	74	127
488.93020408163267	489.1624036281179	67	127
488.93020408163267	489.1043537414966	55	127
489.1624036281179	489.34816326530614	55	127
489.1624036281179	489.34816326530614	71	127
489.1624036281179	489.34816326530614	74	127
489.1624036281179	489.34816326530614	65	127
489.39460317460316	489.7661224489796	64	127
489.39460317460316	489.4642630385488	48	127
489.39460317460316	489.4642630385488	72	127
489.39460317460316	489.7661224489796	72	127
489.62680272108844	489.696462585034	52	127
489.62680272108844	489.696462585034	67	127
489.8357823129252	489.90544217687074	55	127
489.8357823129252	489.90544217687074	72	127
490.06798185941045	490.12603174603174	60	127
490.06798185941045	490.12603174603174	76	127
490.2885714285714	490.5904308390023	79	127
490.2885714285714	490.5904308390023	64	127
490.5091609977324	490.5556009070295	79	127
490.5091609977324	490.5556009070295	64	127
490.66009070294785	491.02	77	127
490.66009070294785	490.7297505668934	67	127
490.66009070294785	490.7297505668934	83	127
490.66009070294785	491.02	62	127
490.88068027210886	490.9503401360544	71	127
490.88068027210886	490.9503401360544	86	127
491.1128798185941	491.6353287981859	89	127
491.1128798185941	491.28702947845807	74	127
491.1128798185941	491.1825396825397	55	127
491.1825396825397	491.2638095238095	67	127
491.28702947845807	491.43795918367346	71	127
491.28702947845807	491.37990929705217	67	127
491.28702947845807	491.3566893424036	55	127
491.4031292517007	491.43795918367346	67	127
491.43795918367346	491.47278911564626	62	127
491.43795918367346	492.07650793650794	67	127
491.43795918367346	491.4960090702948	67	127
491.5192290249433	491.61210884353744	67	127
491.6353287981859	491.72820861678	67	127
491.6353287981859	491.8210884353741	86	127
491.6353287981859	491.70498866213154	59	127
491.75142857142856	491.84430839002266	67	127
491.8675283446712	491.9604081632653	60	127
491.8675283446712	492.4712471655329	88	127
491.98362811791384	492.0532879818594	72	127
492.07650793650794	492.1461678004535	48	127
492.07650793650794	492.16938775510204	72	127
492.07650793650794	492.26226757369614	64	127
492.1926077097506	492.2854875283447	72	127
492.3087074829932	492.5989569160998	60	127
492.3087074829932	492.3203174603175	55	127
492.3087074829932	492.34353741496597	72	127
492.3667573696145	492.44802721088433	72	127
492.4712471655329	492.54090702947843	52	127
492.4712471655329	492.564126984127	72	127
492.4712471655329	492.6337868480726	84	127
492.5873469387755	492.65700680272107	72	127
492.6802267573696	493.33038548752836	81	127
492.6802267573696	492.85437641723354	53	127
492.6802267573696	492.7731065759637	65	127
492.6802267573696	492.7731065759637	72	127
492.79632653061225	492.8775963718821	72	127
492.79632653061225	492.8775963718821	65	127
492.9008163265306	492.98208616780045	72	127
492.9008163265306	493.0633560090703	52	127
492.9008163265306	492.98208616780045	65	127
492.9936961451247	493.0865759637188	72	127
492.9936961451247	493.0865759637188	65	127
493.10979591836735	493.20267573696145	69	127
493.10979591836735	493.2839455782313	53	127
493.10979591836735	493.20267573696145	77	127
493.22589569161	493.3071655328798	77	127
493.22589569161	493.3071655328798	69	127
493.33038548752836	493.5045351473923	50	127
493.33038548752836	493.5045351473923	86	127
493.33038548752836	493.42326530612246	69	127
493.33038548752836	493.42326530612246	77	127
493.446485260771	493.51614512471656	77	127
493.446485260771	493.51614512471656	69	127
493.5393650793651	493.84122448979593	84	127
493.5393650793651	493.70190476190476	55	127
493.5393650793651	493.6322448979592	67	127
493.5393650793651	493.6322448979592	76	127
493.64385487528347	493.7251247165533	76	127
493.64385487528347	493.7251247165533	67	127
493.73673469387757	493.8063945578231	67	127
493.73673469387757	493.88766439909296	53	127
493.73673469387757	493.8063945578231	76	127
493.8180045351474	493.8992743764172	76	127
493.8180045351474	493.8992743764172	67	127
493.92249433106576	493.98054421768705	84	127
493.92249433106576	493.9921541950113	74	127
493.92249433106576	493.9921541950113	65	127
493.92249433106576	494.0850340136054	55	127
493.98054421768705	494.06181405895694	83	127
494.01537414965986	494.10825396825396	74	127
494.01537414965986	494.10825396825396	65	127
494.06181405895694	494.11986394557823	84	127
494.11986394557823	494.21274376417233	65	127
494.11986394557823	494.30562358276643	43	127
494.11986394557823	494.20113378684806	83	127
494.11986394557823	494.21274376417233	74	127
494.20113378684806	494.2824036281179	81	127
494.23596371882087	494.3172335600907	65	127
494.23596371882087	494.3172335600907	74	127
494.2824036281179	494.32884353741497	83	127
494.32884353741497	494.39850340136053	48	127
494.32884353741497	494.39850340136053	72	127
494.32884353741497	494.65392290249434	64	127
494.32884353741497	494.65392290249434	84	127
494.5378231292517	494.595873015873	67	127
494.5378231292517	494.595873015873	52	127
494.74680272108844	494.80485260770973	72	127
494.74680272108844	494.80485260770973	55	127
494.9790022675737	495.0486621315193	60	127
494.9790022675737	495.0486621315193	76	127
495.21120181405894	495.5478911564626	79	127
495.21120181405894	495.5478911564626	64	127
495.43179138321995	495.4898412698413	64	127
495.43179138321995	495.4898412698413	79	127
495.6059410430839	495.6756009070295	67	127
495.6059410430839	495.93102040816325	77	127
495.6059410430839	495.93102040816325	62	127
495.6059410430839	495.6756009070295	83	127
495.79170068027213	495.8613605442177	86	127
495.79170068027213	495.8613605442177	71	127
496.02390022675735	496.18643990929706	74	127
496.02390022675735	496.09356009070297	55	127
496.02390022675735	496.18643990929706	89	127
496.11678004535145	496.2096598639456	67	127
496.2328798185941	496.3257596371882	67	127
496.2328798185941	496.41863945578234	71	127
496.2328798185941	496.41863945578234	55	127
496.2328798185941	496.56956916099773	89	127
496.3489795918367	496.4418594104308	67	127
496.46507936507936	496.6160090702948	62	127
496.46507936507936	496.5347392290249	67	127
496.46507936507936	496.96430839002267	67	127
496.5463492063492	496.6392290249433	67	127
496.66244897959183	496.7321088435374	67	127
496.66244897959183	496.82498866213155	59	127
496.66244897959183	496.82498866213155	86	127
496.75532879818593	496.84820861678	67	127
496.87142857142857	497.05718820861676	88	127
496.87142857142857	496.96430839002267	60	127
496.9875283446712	497.0804081632653	72	127
497.0804081632653	497.37065759637187	88	127
497.0804081632653	497.15006802721086	72	127
497.0804081632653	497.2197278911565	64	127
497.0804081632653	497.2197278911565	48	127
497.1732879818594	497.24294784580496	72	127
497.2661678004535	497.56802721088434	60	127
497.2661678004535	497.32421768707485	72	127
497.2661678004535	497.41709750566895	55	127
497.34743764172333	497.4403174603175	72	127
497.46353741496597	497.6144671201814	84	127
497.46353741496597	497.6144671201814	52	127
497.46353741496597	497.5215873015873	72	127
497.5448072562358	497.63768707482996	72	127
497.66090702947844	497.8466666666667	53	127
497.66090702947844	497.75378684807254	72	127
497.66090702947844	497.75378684807254	65	127
497.66090702947844	497.8466666666667	81	127
497.7770068027211	497.8698866213152	65	127
497.7770068027211	497.8698866213152	72	127
497.8931065759637	498.2646258503401	81	127
497.8931065759637	497.9859863945578	72	127
497.8931065759637	497.9859863945578	65	127
497.8931065759637	498.0788662131519	52	127
498.00920634920635	498.10208616780045	72	127
498.00920634920635	498.10208616780045	65	127
498.125306122449	498.2181859410431	69	127
498.125306122449	498.3110657596372	53	127
498.125306122449	498.2181859410431	77	127
498.2414058956916	498.32267573696146	69	127
498.2414058956916	498.32267573696146	77	127
498.3342857142857	498.41555555555556	77	127
498.3342857142857	498.41555555555556	69	127
498.3342857142857	498.46199546485263	86	127
498.3342857142857	498.46199546485263	50	127
498.41555555555556	498.47360544217685	69	127
498.41555555555556	498.47360544217685	77	127
498.4968253968254	498.78707482993195	84	127
498.4968253968254	498.63614512471656	55	127
498.4968253968254	498.566485260771	67	127
498.4968253968254	498.566485260771	76	127
498.5780952380952	498.63614512471656	76	127
498.5780952380952	498.63614512471656	67	127
498.6593650793651	498.74063492063493	76	127
498.6593650793651	498.74063492063493	67	127
498.6593650793651	498.8102947845805	53	127
498.76385487528347	498.83351473922903	76	127
498.76385487528347	498.83351473922903	67	127
498.85673469387757	499.04249433106577	55	127
498.85673469387757	498.94961451247167	65	127
498.85673469387757	498.94961451247167	74	127
498.85673469387757	498.92639455782313	84	127
498.9380045351474	498.9960544217687	83	127
498.9728344671202	499.0657142857143	74	127
498.9728344671202	499.0657142857143	65	127
499.01927437641723	499.0773242630386	84	127
499.0889342403628	499.1585941043084	83	127
499.0889342403628	499.27469387755104	43	127
499.0889342403628	499.1818140589569	65	127
499.0889342403628	499.1818140589569	74	127
499.1702040816327	499.22825396825397	81	127
499.2514739229025	499.3095238095238	83	127
499.32113378684807	500.20349206349204	64	127
499.32113378684807	499.68104308390025	84	127
499.32113378684807	499.50689342403626	48	127
499.32113378684807	500.20349206349204	72	127
499.55333333333334	499.715873015873	48	127
499.7623129251701	499.92485260770974	48	127
499.9712925170068	500.157052154195	48	127
500.20349206349204	500.3892517006803	48	127
500.20349206349204	501.1090702947846	65	127
500.20349206349204	501.1090702947846	81	127
500.4356916099773	500.598231292517	48	127
500.64467120181405	500.83043083900225	48	127
500.8768707482993	501.0626303854875	48	127
501.1090702947846	501.28321995464853	48	127
501.1090702947846	501.96820861678003	79	127
501.1090702947846	501.96820861678003	64	127
501.1090702947846	502.13074829931975	67	127
501.32965986394555	501.50380952380954	48	127
501.55024943310656	501.701179138322	48	127
501.747619047619	501.921768707483	48	127
501.96820861678003	502.6415873015873	62	127
501.96820861678003	502.6415873015873	77	127
501.96820861678003	502.15396825396823	48	127
502.2004081632653	502.31650793650795	48	127
502.2004081632653	502.31650793650795	67	127
502.36294784580497	502.5487074829932	48	127
502.36294784580497	502.5487074829932	69	127
502.59514739229024	502.78090702947844	71	127
502.59514739229024	502.78090702947844	48	127
502.8389569160998	503.7793650793651	60	127
502.8389569160998	503.7793650793651	76	127
502.8389569160998	503.03632653061226	48	127
502.8389569160998	503.03632653061226	74	127
503.0827664399093	503.26852607709753	72	127
503.0827664399093	503.26852607709753	48	127
503.31496598639455	503.50072562358275	48	127
503.54716553287983	503.73292517006803	48	127
503.7793650793651	504.6965532879819	69	127
503.7793650793651	504.6965532879819	77	127
503.7793650793651	503.9651247165533	48	127
504.0115646258503	504.1857142857143	48	127
504.23215419501133	504.41791383219953	48	127
504.4643537414966	504.6501133786848	48	127
504.6965532879819	505.6253514739229	67	127
504.6965532879819	505.7878911564626	79	127
504.6965532879819	505.6253514739229	76	127
504.6965532879819	504.8823129251701	48	127
504.9287528344671	505.1145124716553	48	127
505.1609523809524	505.3467120181406	48	127
505.39315192743766	505.57891156462586	48	127
505.6253514739229	505.81111111111113	48	127
505.6253514739229	506.3683900226757	65	127
505.6253514739229	506.3683900226757	74	127
505.85755102040815	506.04331065759635	79	127
505.85755102040815	506.04331065759635	48	127
506.07814058956916	506.26390022675736	81	127
506.07814058956916	506.26390022675736	48	127
506.3219501133787	506.53092970521544	83	127
506.3219501133787	506.53092970521544	48	127
506.57736961451246	507.18108843537414	48	127
506.57736961451246	507.18108843537414	64	127
506.57736961451246	507.18108843537414	72	127
506.57736961451246	506.821179138322	86	127
506.821179138322	507.12303854875285	84	127
507.18108843537414	507.40167800453514	43	127
507.18108843537414	507.40167800453514	55	127
507.18108843537414	507.40167800453514	64	127
507.18108843537414	507.40167800453514	84	127
507.77319727891154	507.924126984127	55	127
507.77319727891154	507.924126984127	84	127
507.77319727891154	507.924126984127	64	127
507.77319727891154	507.924126984127	40	127
508.26081632653063	508.5162358276644	43	127
508.26081632653063	508.5162358276644	55	127
508.26081632653063	508.5162358276644	64	127
508.26081632653063	508.5162358276644	84	127
509.1083446712018	509.94426303854874	64	127
509.1083446712018	509.94426303854874	84	127
509.1083446712018	509.94426303854874	55	127
509.1083446712018	509.94426303854874	36	127
