# onset,offset,note,velocity
0.33589569160997734	1.613015873015873	53	127
0.33589569160997734	1.613015873015873	60	127
0.33589569160997734	1.613015873015873	69	127
0.33589569160997734	1.3924263038548752	72	127
1.613015873015873	2.808843537414966	45	127
1.613015873015873	3.099092970521542	65	127
1.613015873015873	3.459002267573696	60	127
1.613015873015873	3.459002267573696	57	127
2.808843537414966	4.039501133786848	48	127
3.459002267573696	4.039501133786848	64	127
3.459002267573696	4.039501133786848	67	127
3.459002267573696	3.7724716553287982	58	127
3.7724716553287982	4.039501133786848	55	127
4.039501133786848	5.339818594104308	70	127
4.039501133786848	5.339818594104308	67	127
4.039501133786848	5.339818594104308	52	127
4.039501133786848	6.628526077097506	41	127
5.339818594104308	6.419546485260771	69	127
5.339818594104308	5.850634920634921	53	127
5.339818594104308	5.850634920634921	65	127
5.955147392290249	6.628526077097506	53	127
5.955147392290249	6.628526077097506	65	127
6.628526077097506	7.197414965986394	64	127
6.628526077097506	7.197414965986394	55	127
7.197414965986394	8.335192743764173	65	127
7.197414965986394	7.801133786848072	63	127
7.197414965986394	7.801133786848072	57	127
7.801133786848072	8.43968253968254	62	127
7.801133786848072	8.335192743764173	53	127
7.801133786848072	8.43968253968254	58	127
8.43968253968254	9.472947845804988	70	127
8.43968253968254	9.681950113378685	65	127
8.43968253968254	9.681950113378685	62	127
9.031791383219955	9.58907029478458	50	127
9.681950113378685	10.73845804988662	74	127
9.681950113378685	11.028707482993198	70	127
9.681950113378685	11.028707482993198	65	127
10.216009070294785	10.912607709750567	46	127
11.028707482993198	11.713696145124716	74	127
11.028707482993198	11.713696145124716	70	127
11.028707482993198	11.60920634920635	77	127
11.713696145124716	12.468344671201814	76	127
11.713696145124716	12.863083900226757	41	127
11.713696145124716	12.863083900226757	65	127
11.713696145124716	12.468344671201814	72	127
12.468344671201814	12.549614512471654	72	127
12.468344671201814	12.549614512471654	76	127
12.572834467120181	12.642494331065759	74	127
12.572834467120181	12.642494331065759	70	127
12.665714285714285	12.781814058956916	76	127
12.665714285714285	12.781814058956916	72	127
12.805034013605443	12.886303854875283	70	127
12.805034013605443	12.886303854875283	74	127
12.90952380952381	13.014013605442177	72	127
12.90952380952381	13.014013605442177	69	127
13.025623582766439	13.106893424036281	70	127
13.025623582766439	13.106893424036281	74	127
13.118503401360543	14.105351473922903	72	127
13.118503401360543	14.105351473922903	69	127
13.722222222222221	14.349160997732426	53	127
14.349160997732426	15.068979591836735	55	127
15.068979591836735	15.800408163265306	57	127
15.800408163265306	17.76249433106576	67	127
15.800408163265306	16.868526077097506	62	127
15.800408163265306	16.868526077097506	65	127
15.800408163265306	16.20673469387755	47	127
16.50861678004535	16.79886621315193	47	127
17.089115646258502	18.923492063492063	60	127
17.089115646258502	17.994693877551022	64	127
17.089115646258502	17.367755102040817	48	127
17.64639455782313	17.936643990929706	48	127
18.22689342403628	20.397936507936507	63	127
18.22689342403628	19.167301587301587	69	127
18.22689342403628	18.52875283446712	42	127
18.819002267573698	19.10925170068027	42	127
19.39950113378685	20.618548752834467	72	127
19.39950113378685	19.79424036281179	43	127
19.39950113378685	20.397936507936507	54	127
20.04965986394558	20.32829931972789	43	127
20.618548752834467	22.104603174603174	70	127
20.618548752834467	20.93201814058957	43	127
20.618548752834467	21.21065759637188	62	127
20.618548752834467	21.570566893424036	55	127
21.21065759637188	21.79113378684807	64	127
21.21065759637188	21.51251700680272	43	127
21.79113378684807	22.84766439909297	48	127
21.79113378684807	22.151065759637188	45	127
21.79113378684807	23.06825396825397	65	127
22.429705215419503	22.789614512471655	45	127
22.429705215419503	22.9637641723356	69	127
23.06825396825397	23.567460317460316	50	127
23.06825396825397	23.358503401360544	46	127
23.06825396825397	23.486213151927437	69	127
23.06825396825397	24.055102040816326	62	127
23.381723356009072	23.73002267573696	67	127
23.69517006802721	23.985442176870748	46	127
23.69517006802721	23.939002267573695	55	127
23.706802721088437	23.985442176870748	70	127
23.973832199546486	24.36857142857143	62	127
23.985442176870748	24.26408163265306	58	127
24.33374149659864	25.71532879818594	65	127
24.33374149659864	25.390249433106575	60	127
24.33374149659864	24.728480725623584	48	127
24.33374149659864	25.390249433106575	57	127
25.018730158730158	25.320589569160997	48	127
25.6340589569161	26.713786848072562	64	127
25.6340589569161	26.713786848072562	60	127
25.6340589569161	25.93591836734694	48	127
25.680498866213153	27.027256235827664	67	127
26.226167800453513	26.655736961451247	48	127
26.934376417233562	27.375555555555554	65	127
26.934376417233562	27.375555555555554	69	127
26.934376417233562	28.165034013605442	60	127
26.934376417233562	28.165034013605442	41	127
27.43360544217687	27.514875283446713	67	127
27.43360544217687	27.514875283446713	70	127
27.526485260770976	27.607755102040816	69	127
27.526485260770976	27.607755102040816	65	127
27.642585034013607	27.73546485260771	64	127
27.642585034013607	27.73546485260771	67	127
27.758684807256238	28.03732426303855	69	127
27.758684807256238	28.03732426303855	65	127
28.083764172335602	28.33918367346939	67	127
28.083764172335602	28.33918367346939	70	127
28.397233560090704	29.30281179138322	72	127
28.397233560090704	29.30281179138322	69	127
28.989342403628118	29.535011337868482	53	127
29.535011337868482	30.127120181405896	60	127
30.127120181405896	30.881768707482994	58	127
30.881768707482994	31.880226757369613	60	127
30.881768707482994	31.880226757369613	77	127
30.881768707482994	31.36938775510204	72	127
30.881768707482994	31.195238095238096	57	127
31.48548752834467	31.98471655328798	72	127
31.48548752834467	31.810566893424035	57	127
32.10081632653061	32.62326530612245	70	127
32.10081632653061	32.62326530612245	72	127
32.10081632653061	32.62326530612245	76	127
32.10081632653061	32.42589569160998	55	127
32.774195011337866	33.099274376417235	53	127
32.774195011337866	33.261814058956915	77	127
32.774195011337866	33.261814058956915	72	127
32.774195011337866	33.261814058956915	69	127
33.366303854875284	33.79587301587301	67	127
33.366303854875284	33.79587301587301	79	127
33.366303854875284	33.62172335600907	52	127
33.366303854875284	34.50408163265306	72	127
33.911972789115644	34.60857142857143	65	127
33.911972789115644	34.446009070294785	50	127
33.911972789115644	34.60857142857143	81	127
34.72467120181406	35.83920634920635	72	127
34.72467120181406	35.560589569160996	82	127
34.72467120181406	35.83920634920635	64	127
34.72467120181406	35.83920634920635	48	127
35.6534693877551	35.80439909297052	79	127
35.827619047619045	36.07142857142857	76	127
36.106258503401364	36.21072562358277	72	127
36.24557823129252	36.814467120181405	70	127
36.95378684807256	37.55750566893424	48	127
36.95378684807256	37.55750566893424	64	127
36.95378684807256	37.97546485260771	70	127
37.55750566893424	38.184444444444445	52	127
37.55750566893424	38.184444444444445	67	127
38.184444444444445	38.81138321995465	69	127
38.184444444444445	38.93909297052154	53	127
38.184444444444445	38.93909297052154	65	127
38.2424716553288	38.62560090702948	69	127
38.683673469387756	38.93909297052154	77	127
38.93909297052154	41.203038548752836	65	127
38.93909297052154	40.11170068027211	74	127
38.93909297052154	39.4847619047619	46	127
38.97392290249433	40.13492063492063	77	127
39.77498866213152	40.11170068027211	46	127
40.08848072562358	40.39034013605442	74	127
40.11170068027211	40.401927437641724	70	127
40.367120181405895	42.09700680272109	72	127
40.401927437641724	41.957687074829934	69	127
40.401927437641724	40.703809523809525	48	127
41.07532879818594	41.45845804988662	48	127
41.737097505668935	42.73555555555556	64	127
41.737097505668935	42.02734693877551	48	127
42.050544217687076	42.340816326530614	73	127
42.29437641723356	42.60784580498866	70	127
42.29437641723356	42.67750566893424	48	127
42.31759637188209	42.68909297052154	74	127
42.65428571428571	42.886485260770975	70	127
42.67750566893424	42.92131519274376	67	127
42.96775510204082	44.43061224489796	53	127
42.96775510204082	43.69916099773243	60	127
42.96775510204082	43.30444444444444	67	127
42.96775510204082	43.30444444444444	70	127
43.30444444444444	43.61791383219955	65	127
43.30444444444444	43.61791383219955	69	127
43.69916099773243	43.85011337868481	64	127
43.69916099773243	43.85011337868481	58	127
43.69916099773243	43.85011337868481	67	127
44.01265306122449	44.18680272108843	57	127
44.01265306122449	44.18680272108843	65	127
44.43061224489796	46.056009070294785	57	127
44.43061224489796	45.54517006802721	65	127
44.43061224489796	46.056009070294785	60	127
45.069160997732425	45.82380952380952	41	127
45.82380952380952	46.4275283446712	45	127
46.125668934240366	46.34625850340136	61	127
46.4275283446712	46.752585034013606	62	127
46.4275283446712	47.46081632653061	48	127
46.4275283446712	46.752585034013606	58	127
46.822267573696145	47.205396825396825	58	127
46.822267573696145	47.205396825396825	55	127
47.46081632653061	47.77428571428572	53	127
47.46081632653061	48.401224489795915	53	127
47.46081632653061	47.77428571428572	57	127
48.00648526077097	48.28512471655329	72	127
48.06453514739229	48.354784580498865	65	127
48.06453514739229	48.354784580498865	69	127
48.31995464852608	48.59859410430839	71	127
48.621814058956915	49.179092970521545	74	127
48.63342403628118	48.92367346938776	69	127
48.63342403628118	48.92367346938776	65	127
49.13265306122449	49.68993197278912	72	127
49.19070294784581	49.51578231292517	53	127
49.19070294784581	49.51578231292517	69	127
49.19070294784581	49.51578231292517	65	127
49.51578231292517	49.840861678004536	52	127
49.840861678004536	50.711609977324265	55	127
49.840861678004536	50.29365079365079	69	127
49.840861678004536	50.29365079365079	60	127
50.66517006802721	51.00185941043084	72	127
50.711609977324265	51.094739229024945	69	127
50.711609977324265	51.094739229024945	60	127
50.711609977324265	51.39659863945578	53	127
51.39659863945578	52.36022675736962	52	127
51.39659863945578	51.686848072562356	60	127
51.39659863945578	51.686848072562356	67	127
51.89582766439909	52.25573696145125	72	127
51.94226757369614	52.31378684807256	64	127
51.94226757369614	52.31378684807256	67	127
52.23251700680272	52.65047619047619	71	127
52.63886621315193	53.18453514739229	74	127
52.65047619047619	52.9291156462585	67	127
52.65047619047619	52.9291156462585	64	127
53.1497052154195	53.33546485260771	72	127
53.19614512471655	53.544444444444444	52	127
53.19614512471655	53.544444444444444	64	127
53.19614512471655	53.544444444444444	67	127
53.544444444444444	53.823083900226756	50	127
53.823083900226756	54.55451247165533	53	127
53.823083900226756	54.1249433106576	60	127
53.823083900226756	54.1249433106576	67	127
54.51968253968254	54.809931972789116	72	127
54.55451247165533	54.92603174603175	60	127
54.55451247165533	54.92603174603175	67	127
54.55451247165533	55.239501133786845	52	127
55.239501133786845	55.56458049886621	72	127
55.239501133786845	56.21473922902494	50	127
55.239501133786845	55.56458049886621	62	127
55.85482993197279	56.15668934240363	72	127
55.85482993197279	56.15668934240363	62	127
55.85482993197279	56.15668934240363	77	127
56.15668934240363	56.493378684807254	76	127
56.493378684807254	56.80684807256236	62	127
56.493378684807254	56.80684807256236	72	127
56.493378684807254	57.08548752834467	79	127
57.08548752834467	57.526666666666664	77	127
57.08548752834467	57.34090702947846	72	127
57.08548752834467	57.34090702947846	62	127
57.08548752834467	57.34090702947846	55	127
57.34090702947846	57.84013605442177	54	127
57.84013605442177	58.11877551020408	71	127
57.84013605442177	58.513514739229024	57	127
57.84013605442177	58.11877551020408	62	127
58.513514739229024	58.98952380952381	77	127
58.513514739229024	58.78054421768707	62	127
58.513514739229024	58.78054421768707	71	127
58.513514739229024	59.09401360544218	55	127
59.09401360544218	60.20857142857143	48	127
59.09401360544218	59.44231292517007	60	127
59.10562358276644	59.465532879818596	72	127
59.76739229024943	60.162131519274375	67	127
59.76739229024943	60.162131519274375	76	127
59.779002267573695	60.1853514739229	72	127
60.162131519274375	60.498820861678006	74	127
60.498820861678006	61.05609977324263	77	127
60.498820861678006	60.78907029478458	67	127
60.545260770975055	60.83551020408163	72	127
61.05609977324263	61.381179138322	60	127
61.05609977324263	61.381179138322	67	127
61.05609977324263	61.54371882086168	76	127
61.07931972789115	61.40439909297052	72	127
61.381179138322	61.65981859410431	59	127
61.65981859410431	62.05455782312925	67	127
61.65981859410431	62.37963718820862	62	127
61.694648526077096	62.135827664399095	72	127
62.37963718820862	62.86725623582767	60	127
62.37963718820862	62.86725623582767	76	127
62.37963718820862	62.69310657596372	67	127
62.402857142857144	62.71632653061224	72	127
63.006575963718824	64.16757369614513	52	127
63.006575963718824	63.30843537414966	70	127
63.04140589569161	63.34326530612245	72	127
63.63351473922903	63.97020408163265	79	127
63.65673469387755	63.981814058956914	70	127
63.65673469387755	64.12113378684808	72	127
63.97020408163265	64.37655328798186	78	127
64.38816326530612	64.65519274376418	70	127
64.41138321995464	64.70163265306122	72	127
64.41138321995464	64.92222222222222	81	127
64.89900226757369	65.15442176870748	52	127
64.89900226757369	65.15442176870748	70	127
64.91061224489796	65.177641723356	72	127
64.93383219954649	65.25891156462585	79	127
65.15442176870748	65.44467120181406	50	127
65.44467120181406	66.31541950113379	53	127
65.44467120181406	65.80458049886622	70	127
65.46789115646258	65.83938775510204	72	127
66.30380952380952	66.66371882086167	72	127
66.30380952380952	66.73335600907029	80	127
66.31541950113379	66.66371882086167	70	127
66.31541950113379	66.80303854875284	52	127
66.91913832199546	67.22097505668934	69	127
66.91913832199546	67.22097505668934	72	127
66.91913832199546	67.92920634920635	53	127
67.5344671201814	67.82471655328798	65	127
67.5344671201814	67.83632653061224	81	127
67.54607709750567	67.83632653061224	72	127
67.82471655328798	68.17301587301587	80	127
68.17301587301587	68.45165532879818	65	127
68.1962358276644	68.75349206349206	82	127
68.26589569160998	68.5445351473923	72	127
68.7302947845805	69.02054421768707	65	127
68.7302947845805	69.02054421768707	72	127
68.7302947845805	69.02054421768707	53	127
68.75349206349206	69.22952380952381	81	127
69.02054421768707	69.33401360544218	52	127
69.33401360544218	69.62424036281179	72	127
69.33401360544218	70.04222222222222	55	127
69.33401360544218	69.62424036281179	60	127
69.9841723356009	70.30925170068028	72	127
70.04222222222222	70.50662131519275	53	127
70.04222222222222	70.32086167800453	60	127
70.15829931972789	70.50662131519275	81	127
70.62272108843537	71.00585034013605	60	127
70.62272108843537	71.83015873015873	54	127
70.62272108843537	71.00585034013605	57	127
71.3657596371882	71.77210884353741	60	127
71.3657596371882	71.77210884353741	57	127
71.4121768707483	71.81854875283447	74	127
71.8069387755102	72.13201814058957	73	127
72.13201814058957	72.48031746031747	60	127
72.13201814058957	72.48031746031747	57	127
72.15523809523809	72.6660544217687	76	127
72.74734693877551	73.01437641723356	60	127
72.74734693877551	73.01437641723356	57	127
72.74734693877551	73.01437641723356	54	127
72.77056689342403	73.24657596371883	74	127
73.01437641723356	73.36267573696145	52	127
73.36267573696145	73.71095238095238	60	127
73.36267573696145	73.71095238095238	57	127
73.36267573696145	74.00122448979592	55	127
74.00122448979592	74.66299319727891	54	127
74.00122448979592	74.30308390022675	60	127
74.00122448979592	74.30308390022675	57	127
74.07086167800453	74.59333333333333	74	127
74.66299319727891	75.48730158730159	55	127
74.66299319727891	75.48730158730159	59	127
74.66299319727891	75.48730158730159	74	127
74.66299319727891	76.04458049886621	55	127
75.64984126984127	75.98650793650793	59	127
75.64984126984127	76.14907029478458	67	127
75.64984126984127	75.98650793650793	62	127
75.98650793650793	76.25356009070295	57	127
75.98650793650793	76.25356009070295	60	127
76.25356009070295	76.35804988662132	66	127
76.25356009070295	76.90371882086168	60	127
76.25356009070295	76.90371882086168	64	127
76.36963718820861	76.50897959183673	67	127
76.520589569161	76.59024943310658	69	127
76.6134693877551	78.44784580498866	67	127
76.90371882086168	77.37972789115646	62	127
76.90371882086168	77.37972789115646	59	127
76.90371882086168	77.20557823129252	43	127
77.20557823129252	77.53065759637188	42	127
77.53065759637188	78.19242630385487	45	127
78.19242630385487	79.00512471655328	43	127
78.19242630385487	78.5639455782313	60	127
78.19242630385487	78.5639455782313	64	127
78.5639455782313	79.00512471655328	62	127
78.5639455782313	79.00512471655328	59	127
79.00512471655328	79.56240362811792	62	127
79.00512471655328	79.0980045351474	66	127
79.00512471655328	79.56240362811792	65	127
79.10961451247165	79.17927437641724	67	127
79.20249433106576	79.27215419501134	69	127
79.29537414965986	80.94399092970522	67	127
79.56240362811792	79.80621315192744	43	127
79.56240362811792	80.0384126984127	60	127
79.56240362811792	80.0384126984127	64	127
79.86426303854876	80.09646258503402	42	127
80.15448979591837	80.64213151927437	45	127
80.78145124716553	81.1065306122449	65	127
80.78145124716553	81.1065306122449	62	127
80.78145124716553	81.4315873015873	43	127
81.1065306122449	81.5592970521542	61	127
81.1065306122449	81.5592970521542	64	127
81.5592970521542	82.07013605442177	67	127
81.5592970521542	82.07013605442177	64	127
81.5592970521542	81.65219954648526	77	127
81.66380952380952	81.73346938775511	79	127
81.75668934240363	81.81471655328798	81	127
81.83795918367348	83.74199546485261	79	127
82.07013605442177	82.40684807256235	43	127
82.07013605442177	82.63904761904762	62	127
82.07013605442177	82.63904761904762	65	127
82.46489795918367	82.70868480725623	42	127
82.75514739229025	83.25437641723356	45	127
83.35886621315193	83.91614512471655	43	127
83.35886621315193	83.68394557823129	64	127
83.35886621315193	83.68394557823129	67	127
83.68394557823129	84.11349206349206	66	127
83.68394557823129	84.11349206349206	63	127
84.11349206349206	84.1831746031746	77	127
84.11349206349206	84.70562358276644	69	127
84.11349206349206	84.70562358276644	65	127
84.21798185941043	84.29927437641723	79	127
84.34569160997732	84.41537414965987	81	127
84.4385941043084	87.31786848072562	79	127
84.70562358276644	85.3441723356009	43	127
84.70562358276644	85.3441723356009	67	127
84.70562358276644	85.3441723356009	64	127
85.3441723356009	86.00591836734694	47	127
85.3441723356009	86.00591836734694	62	127
85.3441723356009	86.00591836734694	65	127
86.00591836734694	86.7954195011338	48	127
86.00591836734694	86.7954195011338	64	127
86.00591836734694	86.7954195011338	60	127
86.7954195011338	88.52530612244898	59	127
86.7954195011338	88.52530612244898	62	127
86.7954195011338	88.52530612244898	55	127
87.51521541950113	88.24666666666667	79	127
88.24666666666667	88.52530612244898	78	127
88.52530612244898	88.92002267573696	81	127
88.92002267573696	89.24512471655329	79	127
89.24512471655329	89.5237641723356	77	127
89.5237641723356	89.81399092970521	76	127
89.81399092970521	90.11587301587302	79	127
90.11587301587302	90.45253968253968	77	127
90.45253968253968	90.75442176870749	76	127
90.75442176870749	91.02145124716553	74	127
91.02145124716553	91.32328798185941	65	127
91.02145124716553	91.32328798185941	62	127
91.02145124716553	91.32328798185941	73	127
91.02145124716553	91.32328798185941	55	127
91.32328798185941	91.46263038548753	74	127
91.61356009070295	91.91541950113378	55	127
91.61356009070295	91.91541950113378	62	127
91.61356009070295	91.91541950113378	65	127
91.61356009070295	91.91541950113378	73	127
91.91541950113378	92.08954648526077	74	127
92.24049886621316	92.86743764172336	55	127
92.24049886621316	92.86743764172336	62	127
92.24049886621316	92.86743764172336	73	127
92.24049886621316	92.86743764172336	65	127
92.86743764172336	93.01836734693877	74	127
94.00519274376417	94.15614512471656	74	127
94.15614512471656	94.28385487528345	77	127
94.28385487528345	94.43478458049887	76	127
94.43478458049887	94.58571428571429	74	127
94.58571428571429	94.71342403628118	72	127
94.71342403628118	94.85274376417233	71	127
94.85274376417233	95.28231292517007	69	127
95.28231292517007	95.67705215419501	65	127
95.28231292517007	95.67705215419501	59	127
95.28231292517007	95.67705215419501	69	127
95.28231292517007	95.67705215419501	62	127
95.67705215419501	95.85120181405895	67	127
96.01374149659864	96.45492063492064	59	127
96.01374149659864	96.45492063492064	62	127
96.01374149659864	96.45492063492064	65	127
96.01374149659864	96.45492063492064	69	127
96.45492063492064	96.61746031746031	67	127
96.75678004535148	97.23278911564626	65	127
96.75678004535148	97.07024943310658	69	127
96.75678004535148	97.23278911564626	59	127
96.75678004535148	97.23278911564626	62	127
97.23278911564626	97.44176870748299	67	127
99.39224489795919	99.74054421768707	48	127
99.39224489795919	100.35587301587302	60	127
99.74054421768707	100.01918367346939	47	127
100.01918367346939	100.2978231292517	48	127
100.2978231292517	100.63451247165533	43	127
100.63451247165533	101.08730158730158	60	127
100.63451247165533	100.90154195011338	48	127
100.90154195011338	101.22662131519274	47	127
101.22662131519274	101.51687074829933	48	127
101.22662131519274	101.679410430839	60	127
101.51687074829933	101.83034013605442	43	127
101.83034013605442	102.24829931972789	60	127
101.83034013605442	102.10897959183673	48	127
102.10897959183673	102.39922902494331	47	127
102.39922902494331	102.95650793650793	60	127
102.39922902494331	102.75913832199547	48	127
102.75913832199547	103.15387755102041	43	127
103.15387755102041	104.1291156462585	60	127
103.15387755102041	105.03469387755102	55	127
103.15387755102041	104.1291156462585	65	127
103.15387755102041	103.5021768707483	50	127
103.5021768707483	103.79242630385488	49	127
103.79242630385488	104.05945578231292	50	127
104.05945578231292	104.32648526077098	43	127
104.32648526077098	104.59351473922902	50	127
104.32648526077098	105.27850340136054	59	127
104.32648526077098	104.77927437641723	65	127
104.59351473922902	104.90698412698413	49	127
104.90698412698413	105.22045351473923	50	127
104.90698412698413	105.44104308390023	65	127
105.22045351473923	105.58036281179139	43	127
105.58036281179139	106.06798185941044	65	127
105.58036281179139	105.8590022675737	50	127
105.8590022675737	106.19569160997733	49	127
106.19569160997733	106.4859410430839	50	127
106.19569160997733	106.7065306122449	65	127
106.4859410430839	106.82263038548753	43	127
106.82263038548753	107.15931972789116	48	127
106.82263038548753	107.78625850340136	72	127
106.82263038548753	107.78625850340136	65	127
106.82263038548753	108.66861678004535	67	127
107.15931972789116	107.44956916099773	47	127
107.44956916099773	107.72820861678005	48	127
107.72820861678005	108.01845804988662	43	127
108.01845804988662	108.92403628117914	64	127
108.01845804988662	108.44802721088435	72	127
108.01845804988662	108.28548752834467	48	127
108.28548752834467	108.56412698412699	47	127
108.56412698412699	109.04013605442177	72	127
108.56412698412699	108.8427664399093	48	127
108.8427664399093	109.17945578231293	43	127
109.17945578231293	109.64385487528345	72	127
109.17945578231293	109.4697052154195	48	127
109.4697052154195	109.73673469387755	47	127
109.73673469387755	110.32884353741497	72	127
109.73673469387755	110.06181405895691	48	127
110.06181405895691	110.43333333333334	43	127
110.43333333333334	112.33736961451247	67	127
110.43333333333334	111.43179138321996	77	127
110.43333333333334	111.43179138321996	72	127
110.43333333333334	110.74680272108843	50	127
110.74680272108843	111.04866213151928	49	127
111.04866213151928	111.37374149659864	50	127
111.37374149659864	111.66399092970522	43	127
111.66399092970522	112.581179138322	71	127
111.66399092970522	112.11678004535148	77	127
111.66399092970522	111.94263038548753	50	127
111.94263038548753	112.22126984126984	49	127
112.22126984126984	112.52312925170068	50	127
112.22126984126984	112.69727891156462	77	127
112.52312925170068	112.82498866213152	43	127
112.82498866213152	113.1152380952381	50	127
112.82498866213152	113.28938775510204	77	127
113.1152380952381	113.46353741496598	49	127
113.46353741496598	113.78861678004534	50	127
113.46353741496598	113.95115646258503	77	127
113.78861678004534	114.07886621315193	43	127
114.07886621315193	115.49528344671202	67	127
114.07886621315193	115.49528344671202	70	127
114.07886621315193	114.98444444444445	77	127
114.07886621315193	114.35750566893424	48	127
114.35750566893424	114.64775510204082	47	127
114.64775510204082	114.92639455782313	48	127
114.92639455782313	115.20503401360544	43	127
115.20503401360544	115.71587301587302	76	127
115.20503401360544	115.55333333333333	48	127
115.55333333333333	115.82036281179138	47	127
115.82036281179138	116.33120181405896	67	127
115.82036281179138	116.33120181405896	76	127
115.82036281179138	116.33120181405896	82	127
115.82036281179138	116.16866213151927	48	127
116.16866213151927	116.43569160997733	43	127
116.43569160997733	116.77238095238096	48	127
116.43569160997733	116.93492063492063	67	127
116.43569160997733	116.93492063492063	76	127
116.43569160997733	116.93492063492063	82	127
116.77238095238096	117.039410430839	47	127
117.039410430839	117.55024943310657	67	127
117.039410430839	117.55024943310657	76	127
117.039410430839	117.55024943310657	82	127
117.039410430839	117.36448979591837	48	127
117.36448979591837	117.67795918367347	43	127
117.67795918367347	118.69963718820861	40	127
117.67795918367347	118.69963718820861	60	127
117.67795918367347	118.69963718820861	70	127
117.67795918367347	118.69963718820861	79	127
117.67795918367347	118.69963718820861	72	127
117.67795918367347	118.69963718820861	82	127
119.3033560090703	120.19732426303855	81	127
119.3033560090703	120.19732426303855	72	127
119.3033560090703	120.19732426303855	41	127
119.3033560090703	120.19732426303855	60	127
119.3033560090703	120.19732426303855	77	127
119.3033560090703	120.19732426303855	69	127
122.55414965986395	123.48294784580499	74	127
122.55414965986395	123.48294784580499	69	127
122.55414965986395	123.48294784580499	72	127
122.55414965986395	123.48294784580499	65	127
123.71514739229025	124.57428571428571	65	127
123.71514739229025	124.57428571428571	74	127
123.71514739229025	124.57428571428571	72	127
123.71514739229025	124.57428571428571	69	127
124.69038548752835	125.57274376417233	72	127
124.69038548752835	125.57274376417233	74	127
124.69038548752835	125.57274376417233	69	127
124.69038548752835	125.57274376417233	65	127
125.71206349206349	126.33900226757369	74	127
125.71206349206349	126.33900226757369	69	127
125.71206349206349	126.33900226757369	72	127
125.71206349206349	126.33900226757369	65	127
126.45510204081633	127.01238095238095	74	127
126.45510204081633	127.01238095238095	72	127
126.45510204081633	127.01238095238095	69	127
126.45510204081633	127.01238095238095	65	127
127.12848072562359	128.13854875283448	68	127
127.12848072562359	127.44195011337868	74	127
127.12848072562359	128.13854875283448	72	127
127.12848072562359	128.13854875283448	65	127
127.44195011337868	127.56965986394557	75	127
127.56965986394557	127.79024943310658	77	127
127.79024943310658	128.08049886621316	75	127
128.08049886621316	128.37074829931973	74	127
128.37074829931973	128.8815873015873	65	127
128.37074829931973	128.8815873015873	74	127
128.37074829931973	128.8815873015873	72	127
128.37074829931973	128.8815873015873	68	127
128.99768707482994	129.53174603174602	74	127
128.99768707482994	129.53174603174602	68	127
128.99768707482994	129.53174603174602	72	127
128.99768707482994	129.53174603174602	65	127
129.65945578231293	130.23993197278912	74	127
129.65945578231293	130.23993197278912	72	127
129.65945578231293	130.23993197278912	68	127
129.65945578231293	130.23993197278912	65	127
130.34444444444443	130.80884353741496	65	127
130.34444444444443	130.80884353741496	68	127
130.34444444444443	130.80884353741496	72	127
130.34444444444443	130.80884353741496	74	127
130.9249433106576	132.09755102040816	69	127
130.9249433106576	132.38777777777779	62	127
130.9249433106576	132.38777777777779	54	127
130.9249433106576	133.6881179138322	60	127
132.09755102040816	132.38777777777779	74	127
132.38777777777779	133.6881179138322	55	127
132.38777777777779	133.6881179138322	72	127
132.38777777777779	133.6881179138322	64	127
133.6881179138322	135.00004535147391	56	127
133.6881179138322	135.00004535147391	62	127
133.6881179138322	135.00004535147391	65	127
133.6881179138322	135.00004535147391	71	127
135.00004535147391	136.53256235827664	57	127
135.00004535147391	136.10299319727892	60	127
135.00004535147391	136.10299319727892	64	127
135.00004535147391	137.53102040816327	72	127
136.10299319727892	136.7995918367347	60	127
136.10299319727892	136.7995918367347	48	127
136.7995918367347	137.39167800453515	49	127
136.7995918367347	137.80965986394557	45	127
136.7995918367347	137.39167800453515	61	127
137.39167800453515	138.05346938775511	62	127
137.39167800453515	138.05346938775511	50	127
138.05346938775511	138.73845804988662	63	127
138.05346938775511	139.14480725623582	43	127
138.05346938775511	138.73845804988662	51	127
138.05346938775511	138.12312925170068	72	127
138.1463492063492	138.22761904761904	70	127
138.2392290249433	138.401768707483	72	127
138.43659863945578	138.54108843537415	70	127
138.5643083900227	138.63396825396825	72	127
138.6571882086168	138.7152380952381	70	127
138.73845804988662	139.36539682539683	64	127
138.73845804988662	139.36539682539683	52	127
138.73845804988662	138.8081179138322	72	127
138.84294784580499	138.93582766439908	70	127
138.94743764172335	139.04031746031745	72	127
139.05192743764172	139.1564172335601	70	127
139.17963718820863	139.2492970521542	69	127
139.27251700680273	139.3421768707483	70	127
139.36539682539683	139.82979591836735	65	127
139.36539682539683	139.82979591836735	53	127
139.36539682539683	140.0503628117914	69	127
139.36539682539683	140.57283446712017	41	127
140.24775510204083	140.5147619047619	65	127
140.24775510204083	140.89791383219955	81	127
140.24775510204083	140.5147619047619	72	127
140.79342403628118	141.1765306122449	72	127
140.79342403628118	141.1765306122449	65	127
141.1765306122449	141.24621315192744	82	127
141.26943310657597	141.33909297052153	81	127
141.36231292517007	141.4319501133787	79	127
141.45519274376417	141.79185941043085	65	127
141.45519274376417	141.72222222222223	81	127
141.45519274376417	141.79185941043085	72	127
141.79185941043085	142.0124716553288	83	127
142.12857142857143	143.2198866213152	53	127
142.12857142857143	142.5813605442177	65	127
142.12857142857143	142.5813605442177	72	127
142.12857142857143	142.52331065759637	86	127
142.5813605442177	142.8019501133787	84	127
142.88321995464852	143.10380952380953	83	127
142.88321995464852	143.16185941043085	72	127
142.88321995464852	143.16185941043085	65	127
143.16185941043085	143.38244897959183	81	127
143.44049886621315	145.29809523809524	79	127
143.44049886621315	144.70596371882087	52	127
143.44049886621315	144.04421768707482	72	127
143.44049886621315	146.6448299319728	67	127
144.21836734693878	145.41419501133788	79	127
145.0891156462585	145.95986394557823	50	127
145.63478458049886	146.18045351473924	77	127
145.63478458049886	146.18045351473924	81	127
146.18045351473924	147.39950113378686	48	127
146.18045351473924	146.74931972789116	77	127
146.18045351473924	146.74931972789116	83	127
146.74931972789116	147.6084807256236	76	127
146.74931972789116	147.6084807256236	84	127
147.6084807256236	148.00321995464853	79	127
147.6084807256236	148.07287981859412	55	127
148.07287981859412	148.2934693877551	78	127
148.33990929705215	148.65337868480725	72	127
148.33990929705215	148.65337868480725	55	127
148.33990929705215	148.5837188208617	77	127
148.33990929705215	148.65337868480725	64	127
148.65337868480725	148.89716553287982	76	127
148.94362811791385	149.1525850340136	76	127
148.94362811791385	149.43124716553288	72	127
148.94362811791385	149.43124716553288	65	127
148.94362811791385	149.43124716553288	55	127
149.1525850340136	149.43124716553288	74	127
149.43124716553288	149.60539682539684	76	127
149.60539682539684	149.75632653061226	74	127
149.75632653061226	149.90725623582767	76	127
149.75632653061226	150.0581859410431	72	127
149.75632653061226	150.0581859410431	65	127
149.75632653061226	150.0581859410431	55	127
149.90725623582767	150.0581859410431	74	127
150.0581859410431	150.19750566893424	76	127
150.19750566893424	150.32519274376418	74	127
150.32519274376418	150.75478458049886	71	127
150.32519274376418	150.75478458049886	65	127
150.32519274376418	150.75478458049886	55	127
150.32519274376418	150.41809523809525	76	127
150.41809523809525	150.66190476190476	74	127
150.66190476190476	150.75478458049886	76	127
150.75478458049886	150.84766439909296	74	127
150.84766439909296	150.94052154195012	76	127
150.94052154195012	151.02181405895692	74	127
151.02181405895692	151.34687074829932	55	127
151.02181405895692	151.34687074829932	65	127
151.02181405895692	151.34687074829932	71	127
151.02181405895692	151.1263038548753	76	127
151.1263038548753	151.24240362811793	74	127
151.24240362811793	151.34687074829932	76	127
151.34687074829932	151.48621315192744	74	127
151.48621315192744	151.67197278911564	72	127
151.67197278911564	151.76485260770974	74	127
151.76485260770974	155.79351473922904	72	127
151.76485260770974	155.79351473922904	64	127
151.76485260770974	152.49628117913832	48	127
151.76485260770974	152.9838775510204	72	127
152.63560090702947	152.86780045351475	48	127
152.92585034013607	153.1580498866213	47	127
153.20448979591836	153.87786848072562	50	127
153.99396825396826	154.43514739229025	48	127
153.99396825396826	154.27260770975056	72	127
154.27260770975056	154.53963718820862	71	127
154.53963718820862	155.12013605442178	74	127
155.12013605442178	155.79351473922904	72	127
155.12013605442178	155.68902494331067	48	127
155.79351473922904	159.4274149659864	65	127
155.79351473922904	159.4274149659864	71	127
155.79351473922904	156.36238095238096	76	127
156.36238095238096	156.62943310657596	48	127
156.36238095238096	156.88485260770975	74	127
156.71070294784582	156.94290249433107	47	127
156.98934240362811	157.558231292517	50	127
157.66272108843538	157.98780045351475	74	127
157.66272108843538	158.15031746031747	48	127
157.98780045351475	158.2896598639456	73	127
158.2896598639456	158.8469387755102	76	127
158.8469387755102	159.4274149659864	74	127
158.8469387755102	159.31133786848073	48	127
159.4274149659864	160.06598639455783	77	127
159.4274149659864	162.00485260770975	67	127
159.4274149659864	162.00485260770975	70	127
160.06598639455783	160.56521541950113	76	127
160.06598639455783	160.30979591836734	48	127
160.37945578231293	160.63487528344672	47	127
160.69292517006804	161.27342403628117	50	127
161.3895238095238	161.8887528344671	48	127
161.3895238095238	161.69138321995464	77	127
161.69138321995464	162.00485260770975	76	127
162.00485260770975	163.2587074829932	69	127
162.00485260770975	163.2587074829932	65	127
162.00485260770975	162.63179138321996	79	127
162.63179138321996	162.92204081632653	48	127
162.63179138321996	163.14263038548754	77	127
162.98009070294785	163.18907029478459	47	127
163.2587074829932	164.54743764172335	60	127
163.2587074829932	163.80439909297053	50	127
163.2587074829932	164.54743764172335	69	127
163.9088888888889	164.19913832199546	79	127
163.9088888888889	164.44294784580498	48	127
164.19913832199546	164.54743764172335	78	127
164.54743764172335	166.91587301587302	64	127
164.54743764172335	166.91587301587302	58	127
164.54743764172335	165.09310657596373	81	127
165.09310657596373	165.62716553287981	79	127
165.09310657596373	165.34852607709752	48	127
165.42979591836735	165.67360544217686	47	127
165.73165532879818	166.24249433106576	50	127
166.34698412698413	166.81138321995465	48	127
166.34698412698413	166.56757369614513	81	127
166.61401360544218	166.8578231292517	79	127
166.91587301587302	168.0652380952381	65	127
166.91587301587302	167.38027210884354	82	127
166.91587301587302	168.0652380952381	57	127
167.49637188208618	167.9259410430839	81	127
167.49637188208618	167.71696145124716	48	127
167.7634013605442	167.98399092970521	47	127
168.0652380952381	168.6225396825397	50	127
168.0652380952381	169.51650793650794	53	127
168.0652380952381	169.51650793650794	57	127
168.76185941043084	169.38879818594106	48	127
168.76185941043084	169.17981859410432	82	127
169.22625850340137	169.45845804988662	81	127
169.51650793650794	170.70072562358277	52	127
169.51650793650794	169.95766439909298	84	127
169.51650793650794	170.70072562358277	55	127
170.08539682539683	170.57299319727892	82	127
170.08539682539683	170.34081632653061	48	127
170.38725623582766	170.64267573696145	47	127
170.70072562358277	173.69609977324262	52	127
170.70072562358277	173.69609977324262	55	127
170.70072562358277	171.71079365079365	50	127
171.82689342403629	172.10551020408164	70	127
171.82689342403629	172.3841723356009	48	127
172.1519501133787	172.477052154195	69	127
172.55832199546487	173.1271882086168	72	127
173.1736507936508	174.79904761904763	70	127
174.97319727891156	175.73945578231292	71	127
175.73945578231292	176.2154648526077	72	127
175.73945578231292	176.2154648526077	69	127
175.73945578231292	176.79596371882087	60	127
175.73945578231292	176.79596371882087	53	127
176.2154648526077	176.36639455782313	65	127
176.2154648526077	176.36639455782313	69	127
176.36639455782313	176.8772335600907	72	127
176.36639455782313	176.8772335600907	69	127
176.8772335600907	177.01655328798185	65	127
176.8772335600907	177.01655328798185	69	127
177.01655328798185	178.3517006802721	45	127
177.01655328798185	179.15278911564627	60	127
177.01655328798185	179.15278911564627	65	127
177.01655328798185	178.78126984126985	57	127
178.5722902494331	179.53591836734694	48	127
179.15278911564627	179.37337868480725	58	127
179.15278911564627	179.75650793650794	67	127
179.15278911564627	179.75650793650794	64	127
179.4662358276644	179.69845804988663	55	127
179.75650793650794	180.81301587301587	52	127
179.75650793650794	181.1032426303855	70	127
179.75650793650794	181.98562358276644	41	127
179.75650793650794	180.81301587301587	67	127
181.1032426303855	181.86950113378686	65	127
181.1032426303855	181.86950113378686	53	127
181.1032426303855	182.3107029478458	69	127
181.86950113378686	182.54290249433106	65	127
181.86950113378686	182.54290249433106	53	127
182.54290249433106	183.1350113378685	55	127
182.54290249433106	183.1350113378685	64	127
183.1350113378685	184.2031292517007	65	127
183.1350113378685	183.75034013605443	57	127
183.1350113378685	183.75034013605443	63	127
183.75034013605443	184.38888888888889	62	127
183.75034013605443	184.38888888888889	53	127
183.75034013605443	184.38888888888889	58	127
184.2031292517007	184.5165986394558	62	127
184.5165986394558	185.52666666666667	65	127
184.5165986394558	185.46861678004535	70	127
184.5165986394558	185.52666666666667	62	127
185.15514739229025	185.63115646258504	50	127
185.46861678004535	185.74725623582768	65	127
185.74725623582768	186.75732426303856	65	127
185.74725623582768	186.75732426303856	70	127
185.74725623582768	186.69927437641724	74	127
186.37419501133786	187.08238095238096	46	127
186.69927437641724	187.25655328798186	70	127
187.25655328798186	188.08086167800454	77	127
187.25655328798186	187.72095238095238	70	127
187.25655328798186	188.08086167800454	74	127
187.86027210884353	189.14897959183673	65	127
187.86027210884353	189.14897959183673	41	127
188.16213151927437	188.498820861678	76	127
188.16213151927437	188.498820861678	73	127
188.55687074829933	188.80068027210885	72	127
188.55687074829933	188.80068027210885	75	127
188.90517006802722	189.3231292517007	74	127
188.90517006802722	189.3231292517007	70	127
189.36956916099774	190.26353741496598	72	127
189.36956916099774	190.26353741496598	69	127
189.9152380952381	190.5073469387755	53	127
190.5073469387755	191.3897052154195	50	127
191.3897052154195	192.09791383219954	48	127
192.09791383219954	193.13120181405895	62	127
192.09791383219954	193.6768707482993	67	127
192.09791383219954	192.46943310657596	47	127
192.09791383219954	193.13120181405895	65	127
192.73646258503402	193.0847619047619	47	127
193.36340136054423	193.73492063492063	48	127
193.36340136054423	195.42997732426304	60	127
193.36340136054423	194.36185941043084	64	127
194.00195011337868	194.3154195011338	48	127
194.00195011337868	194.14126984126983	69	127
194.16448979591837	194.26897959183674	67	127
194.3154195011338	194.41990929705216	66	127
194.44312925170067	194.5592290249433	67	127
194.58244897959185	195.2906575963719	70	127
194.58244897959185	194.9075283446712	42	127
194.58244897959185	195.6621768707483	63	127
195.2906575963719	195.9175963718821	69	127
195.2906575963719	195.59251700680272	42	127
195.9175963718821	196.49809523809523	72	127
195.9175963718821	196.49809523809523	54	127
195.9175963718821	196.49809523809523	63	127
195.9175963718821	196.21945578231293	43	127
196.49809523809523	197.12503401360544	55	127
196.49809523809523	196.84639455782312	43	127
196.49809523809523	197.12503401360544	70	127
196.49809523809523	197.12503401360544	62	127
197.12503401360544	199.0522902494331	70	127
197.12503401360544	197.47333333333333	37	127
197.12503401360544	198.43696145124716	64	127
197.12503401360544	198.43696145124716	55	127
197.74036281179139	198.0538321995465	37	127
198.43696145124716	198.7039909297052	38	127
198.43696145124716	199.42380952380952	53	127
198.43696145124716	199.42380952380952	65	127
199.0522902494331	199.37736961451247	38	127
199.0522902494331	199.72566893424036	69	127
199.72566893424036	200.10879818594105	69	127
199.72566893424036	200.10879818594105	46	127
199.72566893424036	201.01437641723356	62	127
199.72566893424036	201.01437641723356	58	127
200.10879818594105	200.39904761904762	67	127
200.39904761904762	200.70090702947846	70	127
200.39904761904762	200.70090702947846	46	127
200.70090702947846	201.01437641723356	62	127
201.01437641723356	201.4787755102041	48	127
201.01437641723356	202.3611337868481	60	127
201.01437641723356	202.3611337868481	57	127
201.01437641723356	201.7922448979592	65	127
201.7922448979592	202.08249433106576	48	127
201.7922448979592	202.3611337868481	66	127
202.3611337868481	202.65138321995465	48	127
202.3611337868481	202.96485260770976	67	127
202.3611337868481	203.4524716553288	64	127
202.3611337868481	203.4524716553288	60	127
202.96485260770976	203.38281179138323	48	127
202.96485260770976	203.77755102040817	68	127
203.77755102040817	204.1722902494331	65	127
203.77755102040817	205.03142857142856	60	127
203.77755102040817	204.1722902494331	69	127
203.77755102040817	205.03142857142856	41	127
204.23034013605442	204.31160997732425	70	127
204.23034013605442	204.31160997732425	67	127
204.32321995464852	204.5554195011338	69	127
204.32321995464852	204.5554195011338	65	127
204.5786394557823	204.6482993197279	67	127
204.5786394557823	204.6482993197279	64	127
204.6715192743764	204.90371882086168	65	127
204.6715192743764	204.90371882086168	69	127
204.95015873015873	205.19396825396825	70	127
204.95015873015873	205.19396825396825	67	127
205.25201814058957	206.32013605442177	72	127
205.25201814058957	206.32013605442177	69	127
206.00666666666666	206.55233560090704	60	127
206.55233560090704	207.1908843537415	59	127
207.1908843537415	208.0035827664399	58	127
208.0035827664399	209.55931972789116	72	127
208.0035827664399	209.02526077097505	60	127
208.0035827664399	208.7930612244898	77	127
208.0035827664399	208.53764172335602	57	127
208.6653514739229	209.1645804988662	57	127
208.96721088435373	209.11814058956915	79	127
209.1413605442177	209.2922902494331	77	127
209.2922902494331	209.93083900226756	55	127
209.2922902494331	209.93083900226756	70	127
209.2922902494331	209.93083900226756	76	127
209.93083900226756	210.55777777777777	77	127
209.93083900226756	210.55777777777777	72	127
209.93083900226756	210.55777777777777	69	127
209.93083900226756	210.55777777777777	53	127
210.55777777777777	211.18471655328798	79	127
210.55777777777777	211.18471655328798	72	127
210.55777777777777	211.18471655328798	67	127
210.55777777777777	211.18471655328798	52	127
211.18471655328798	212.0554648526077	65	127
211.18471655328798	212.0554648526077	81	127
211.18471655328798	212.0554648526077	72	127
211.18471655328798	212.0554648526077	50	127
212.0554648526077	213.36739229024943	64	127
212.0554648526077	213.36739229024943	48	127
212.0554648526077	213.10036281179137	82	127
212.0554648526077	213.36739229024943	72	127
213.18163265306123	213.33256235827665	79	127
213.35578231292516	213.49510204081633	76	127
213.51832199546485	213.65764172335602	72	127
213.68086167800453	214.29619047619047	70	127
214.3542403628118	215.56167800453514	70	127
214.3542403628118	214.99278911564625	48	127
214.3542403628118	214.99278911564625	64	127
214.99278911564625	215.56167800453514	67	127
214.99278911564625	215.56167800453514	49	127
215.56167800453514	216.24666666666667	65	127
215.56167800453514	216.24666666666667	69	127
215.56167800453514	216.24666666666667	50	127
215.61972789115646	215.89836734693878	69	127
215.94480725623583	216.22344671201813	77	127
216.24666666666667	217.73274376417234	65	127
216.24666666666667	216.9897052154195	74	127
216.24666666666667	216.9897052154195	77	127
216.24666666666667	216.60657596371883	46	127
216.88521541950112	217.48893424036282	46	127
217.48893424036282	217.90689342403627	70	127
217.48893424036282	217.90689342403627	74	127
217.95333333333335	218.39451247165533	65	127
217.95333333333335	218.23197278911564	48	127
217.95333333333335	218.16231292517006	69	127
217.95333333333335	218.16231292517006	72	127
218.23197278911564	218.31324263038547	81	127
218.23197278911564	218.31324263038547	77	127
218.51061224489797	219.1259410430839	60	127
218.51061224489797	218.63832199546485	79	127
218.51061224489797	218.63832199546485	76	127
218.51061224489797	218.87052154195013	48	127
218.87052154195013	218.9750113378685	74	127
218.87052154195013	218.9750113378685	77	127
219.24204081632652	219.32331065759638	76	127
219.24204081632652	219.50907029478458	48	127
219.24204081632652	219.32331065759638	72	127
219.50907029478458	219.60195011337868	70	127
219.50907029478458	219.60195011337868	74	127
219.91541950113378	220.0663492063492	72	127
219.91541950113378	220.0663492063492	69	127
219.91541950113378	220.2869387755102	48	127
219.91541950113378	220.50752834467121	60	127
220.2869387755102	220.36820861678004	70	127
220.2869387755102	220.36820861678004	67	127
220.62362811791382	221.7033560090703	53	127
220.62362811791382	220.96031746031747	70	127
220.62362811791382	220.96031746031747	67	127
220.62362811791382	221.1344671201814	60	127
220.96031746031747	221.29700680272109	65	127
220.96031746031747	221.34344671201814	69	127
221.34344671201814	221.50598639455782	67	127
221.34344671201814	221.50598639455782	64	127
221.34344671201814	221.58725623582765	58	127
221.64530612244897	221.78462585034015	65	127
221.64530612244897	221.78462585034015	57	127
221.9239455782313	222.15614512471655	57	127
221.9239455782313	222.15614512471655	60	127
221.9239455782313	223.02689342403627	65	127
222.21419501133786	222.31868480725623	69	127
222.21419501133786	222.31868480725623	65	127
222.62054421768707	222.72503401360544	64	127
222.62054421768707	222.72503401360544	67	127
222.62054421768707	223.10816326530613	45	127
222.9572335600907	223.0501133786848	62	127
222.9572335600907	223.0501133786848	65	127
223.2126530612245	223.3055328798186	60	127
223.2126530612245	223.3055328798186	64	127
223.2126530612245	223.82798185941044	48	127
223.57256235827666	223.65383219954649	58	127
223.57256235827666	223.65383219954649	62	127
223.94408163265305	224.17628117913833	60	127
223.94408163265305	224.17628117913833	57	127
223.94408163265305	224.67551020408163	40	127
224.38526077097507	224.54780045351475	58	127
224.38526077097507	224.54780045351475	55	127
224.81482993197278	226.26607709750567	72	127
224.81482993197278	225.221179138322	39	127
224.81482993197278	225.221179138322	53	127
224.81482993197278	225.221179138322	57	127
225.47659863945577	225.7784580498866	39	127
225.47659863945577	225.7784580498866	53	127
225.47659863945577	225.7784580498866	57	127
226.0338775510204	226.35895691609977	39	127
226.0338775510204	226.35895691609977	57	127
226.0338775510204	226.35895691609977	53	127
226.35895691609977	226.6608163265306	79	127
226.6608163265306	226.93945578231293	77	127
226.6608163265306	226.93945578231293	53	127
226.6608163265306	226.93945578231293	39	127
226.6608163265306	226.93945578231293	57	127
226.93945578231293	227.21809523809523	75	127
227.21809523809523	227.56639455782312	57	127
227.21809523809523	227.56639455782312	74	127
227.21809523809523	227.56639455782312	65	127
227.21809523809523	227.56639455782312	51	127
227.56639455782312	227.86825396825398	72	127
227.86825396825398	228.35587301587302	60	127
227.86825396825398	228.35587301587302	70	127
227.86825396825398	228.35587301587302	65	127
227.86825396825398	228.35587301587302	51	127
228.35587301587302	228.66934240362812	69	127
228.66934240362812	229.02925170068028	62	127
228.66934240362812	229.02925170068028	65	127
228.66934240362812	229.34272108843538	72	127
229.34272108843538	229.66780045351473	62	127
229.34272108843538	229.83034013605442	70	127
229.34272108843538	229.6097505668934	50	127
229.34272108843538	229.66780045351473	65	127
229.66780045351473	229.88839002267574	48	127
229.93482993197279	230.3992290249433	51	127
229.93482993197279	230.2134693877551	58	127
229.93482993197279	230.2134693877551	65	127
230.50371882086168	230.81718820861678	58	127
230.50371882086168	230.81718820861678	65	127
230.50371882086168	230.75913832199547	70	127
230.50371882086168	231.00294784580498	50	127
230.81718820861678	231.08421768707484	69	127
231.2815873015873	231.6298866213152	65	127
231.2815873015873	231.89691609977325	72	127
231.2815873015873	231.6298866213152	62	127
231.89691609977325	232.37292517006802	71	127
231.89691609977325	232.17555555555555	62	127
231.89691609977325	232.17555555555555	65	127
232.47741496598638	233.12757369614513	74	127
232.47741496598638	232.83732426303854	63	127
232.47741496598638	232.83732426303854	65	127
233.12757369614513	233.35977324263038	45	127
233.12757369614513	233.4178231292517	65	127
233.12757369614513	233.4178231292517	63	127
233.12757369614513	233.59197278911566	72	127
233.4178231292517	233.6384126984127	43	127
233.70807256235827	234.31179138321994	46	127
233.70807256235827	234.10281179138323	63	127
233.70807256235827	234.10281179138323	65	127
234.42789115646258	234.76458049886622	72	127
234.42789115646258	234.83424036281178	63	127
234.42789115646258	234.83424036281178	65	127
234.42789115646258	234.99678004535147	45	127
234.83424036281178	235.0548299319728	71	127
235.12448979591838	235.44956916099773	63	127
235.12448979591838	235.44956916099773	65	127
235.12448979591838	235.71659863945578	74	127
235.71659863945578	236.32031746031745	72	127
235.71659863945578	236.122947845805	63	127
235.71659863945578	236.122947845805	65	127
236.42480725623582	236.7150566893424	66	127
236.42480725623582	236.7150566893424	60	127
236.42480725623582	236.99369614512472	75	127
236.99369614512472	237.27233560090704	57	127
236.99369614512472	237.35360544217687	66	127
236.99369614512472	237.35360544217687	60	127
236.99369614512472	237.51614512471656	74	127
237.35360544217687	237.58580498866212	55	127
237.70190476190476	238.37528344671202	58	127
237.70190476190476	238.1314739229025	60	127
237.70190476190476	238.1314739229025	66	127
238.5378231292517	238.8512925170068	66	127
238.5378231292517	238.78163265306122	74	127
238.5378231292517	239.0718820861678	57	127
238.5378231292517	238.8512925170068	60	127
238.8512925170068	239.11832199546484	73	127
239.18798185941043	239.478231292517	66	127
239.18798185941043	239.478231292517	60	127
239.18798185941043	239.66399092970522	75	127
239.7684807256236	240.0471201814059	60	127
239.7684807256236	240.29092970521543	74	127
239.7684807256236	240.0471201814059	66	127
240.43024943310658	242.41555555555556	74	127
240.43024943310658	241.2661678004535	67	127
240.43024943310658	241.2661678004535	58	127
241.41709750566892	241.93954648526076	58	127
241.41709750566892	241.71895691609978	55	127
241.41709750566892	241.93954648526076	67	127
241.76539682539683	242.00920634920635	54	127
242.09047619047618	242.69419501133788	57	127
242.09047619047618	242.69419501133788	67	127
242.09047619047618	242.69419501133788	58	127
242.8102947845805	243.37918367346938	55	127
242.8102947845805	243.15859410430838	82	127
242.8102947845805	243.37918367346938	67	127
242.8102947845805	243.37918367346938	62	127
243.20503401360546	243.44884353741497	81	127
243.51850340136053	244.01773242630387	67	127
243.51850340136053	244.01773242630387	84	127
243.51850340136053	244.01773242630387	62	127
244.14544217687074	244.598231292517	82	127
244.14544217687074	244.598231292517	67	127
244.14544217687074	244.598231292517	62	127
244.71433106575964	245.19034013605443	67	127
244.71433106575964	245.39931972789117	70	127
244.71433106575964	245.19034013605443	65	127
245.39931972789117	245.92176870748298	67	127
245.39931972789117	245.65473922902495	49	127
245.39931972789117	245.92176870748298	69	127
245.39931972789117	245.92176870748298	65	127
245.701179138322	246.00303854875284	47	127
246.0726984126984	246.6067573696145	67	127
246.0726984126984	246.6067573696145	50	127
246.0726984126984	246.6067573696145	65	127
246.7344671201814	247.29174603174604	49	127
246.7344671201814	247.29174603174604	65	127
246.7344671201814	247.29174603174604	67	127
246.7344671201814	247.0827664399093	69	127
247.12920634920636	247.37301587301587	68	127
247.4310657596372	248.09283446712018	70	127
247.4310657596372	247.94190476190477	65	127
247.4310657596372	247.94190476190477	67	127
248.09283446712018	248.5920634920635	65	127
248.09283446712018	248.5920634920635	69	127
248.09283446712018	248.5920634920635	67	127
248.69655328798186	249.16095238095238	65	127
248.69655328798186	249.16095238095238	62	127
248.69655328798186	250.25229024943312	69	127
249.34671201814058	249.59052154195012	50	127
249.34671201814058	249.8111111111111	62	127
249.34671201814058	249.8111111111111	65	127
249.63696145124717	249.8807709750567	49	127
249.9736507936508	250.49609977324263	65	127
249.9736507936508	250.49609977324263	52	127
249.9736507936508	250.49609977324263	62	127
250.63541950113378	250.8560090702948	77	127
250.63541950113378	251.14625850340136	69	127
250.63541950113378	251.14625850340136	62	127
250.63541950113378	251.14625850340136	50	127
250.9140589569161	251.20430839002267	76	127
251.262358276644	251.9473469387755	79	127
251.262358276644	251.81963718820862	69	127
251.262358276644	251.81963718820862	62	127
251.9473469387755	252.52784580498866	62	127
251.9473469387755	252.52784580498866	69	127
251.9473469387755	252.52784580498866	77	127
252.67877551020408	253.38698412698412	69	127
252.67877551020408	252.94580498866213	65	127
252.67877551020408	252.94580498866213	62	127
253.38698412698412	253.88621315192745	67	127
253.38698412698412	253.70045351473922	65	127
253.38698412698412	253.70045351473922	62	127
253.38698412698412	253.6191836734694	46	127
253.70045351473922	253.955873015873	45	127
254.01392290249433	254.32739229024943	65	127
254.01392290249433	254.32739229024943	62	127
254.01392290249433	254.5247619047619	48	127
254.66408163265305	254.97755102040816	62	127
254.66408163265305	254.97755102040816	65	127
254.66408163265305	254.9078911564626	67	127
254.66408163265305	255.17492063492062	46	127
254.97755102040816	255.2445804988662	66	127
255.3142403628118	255.60448979591837	65	127
255.3142403628118	255.60448979591837	62	127
255.3142403628118	255.87151927437642	69	127
255.87151927437642	256.2198185941043	65	127
255.87151927437642	256.4984580498866	67	127
255.87151927437642	256.4984580498866	46	127
255.87151927437642	256.2198185941043	62	127
256.6726077097506	257.19503401360544	79	127
256.6726077097506	256.9512471655329	65	127
256.6726077097506	256.9512471655329	62	127
257.19503401360544	257.4968934240363	62	127
257.19503401360544	257.65945578231293	77	127
257.19503401360544	257.4968934240363	67	127
257.19503401360544	257.4388662131519	47	127
257.4968934240363	257.7291156462585	45	127
257.77555555555557	258.15868480725624	67	127
257.77555555555557	258.15868480725624	65	127
257.77555555555557	258.15868480725624	62	127
257.77555555555557	258.367664399093	48	127
258.53020408163263	258.78562358276645	67	127
258.53020408163263	258.84367346938774	67	127
258.53020408163263	258.84367346938774	65	127
258.53020408163263	258.84367346938774	62	127
258.53020408163263	259.029410430839	47	127
258.84367346938774	259.0874829931973	66	127
259.13390022675736	259.4822222222222	67	127
259.13390022675736	259.4822222222222	62	127
259.13390022675736	259.8653514739229	69	127
259.13390022675736	259.4822222222222	65	127
259.8653514739229	260.352970521542	67	127
259.8653514739229	260.352970521542	47	127
259.8653514739229	260.178820861678	62	127
259.8653514739229	260.178820861678	65	127
259.8653514739229	260.178820861678	67	127
260.4922902494331	260.79414965986393	60	127
260.4922902494331	260.79414965986393	65	127
260.4922902494331	261.04956916099775	79	127
260.4922902494331	260.79414965986393	67	127
261.04956916099775	261.27015873015876	48	127
261.04956916099775	261.32820861678005	67	127
261.04956916099775	261.32820861678005	65	127
261.04956916099775	261.32820861678005	60	127
261.04956916099775	261.51396825396824	77	127
261.32820861678005	261.5720181405896	47	127
261.6184580498866	261.9087074829932	67	127
261.6184580498866	262.1176870748299	50	127
261.6184580498866	261.9087074829932	60	127
261.6184580498866	261.9087074829932	65	127
262.2453968253968	262.6285260770975	65	127
262.2453968253968	262.48920634920637	67	127
262.2453968253968	262.6285260770975	67	127
262.2453968253968	262.6285260770975	60	127
262.2453968253968	262.82589569160996	48	127
262.6285260770975	262.9187528344671	66	127
262.9768253968254	263.4760544217687	69	127
262.9768253968254	263.27868480725624	60	127
262.9768253968254	263.27868480725624	65	127
262.9768253968254	263.27868480725624	67	127
263.6037641723356	264.0217233560091	65	127
263.6037641723356	264.0217233560091	67	127
263.6037641723356	264.2422902494331	48	127
263.6037641723356	264.2422902494331	67	127
263.6037641723356	264.0217233560091	60	127
264.34678004535147	264.7879818594104	65	127
264.34678004535147	264.8924716553288	79	127
264.34678004535147	264.7879818594104	59	127
264.34678004535147	264.7879818594104	67	127
264.8924716553288	265.1943310657596	49	127
264.8924716553288	265.3684580498866	77	127
264.8924716553288	265.3684580498866	67	127
264.8924716553288	265.3684580498866	65	127
264.8924716553288	265.3684580498866	59	127
265.1943310657596	265.4845804988662	48	127
265.4845804988662	265.9721995464853	65	127
265.4845804988662	265.9721995464853	59	127
265.4845804988662	266.1115192743764	51	127
265.4845804988662	265.9721995464853	67	127
266.1115192743764	266.66879818594106	49	127
266.1115192743764	266.3669387755102	79	127
266.1115192743764	266.66879818594106	71	127
266.1115192743764	266.66879818594106	65	127
266.44820861678005	266.7152380952381	77	127
266.90097505668933	267.35378684807256	71	127
266.90097505668933	267.35378684807256	65	127
266.90097505668933	267.4582766439909	80	127
267.4582766439909	268.1084353741497	71	127
267.4582766439909	268.1084353741497	65	127
267.4582766439909	268.1084353741497	49	127
267.4582766439909	268.1084353741497	77	127
268.27097505668934	268.9559410430839	67	127
268.27097505668934	268.5960544217687	77	127
268.27097505668934	268.9559410430839	72	127
268.27097505668934	269.67578231292515	48	127
268.5960544217687	268.9559410430839	76	127
268.9559410430839	269.1649433106576	74	127
268.9559410430839	269.84993197278914	67	127
268.9559410430839	269.1649433106576	65	127
269.58290249433105	269.8151020408163	64	127
269.58290249433105	269.8151020408163	72	127
269.9660317460318	270.03569160997733	71	127
269.9660317460318	270.9528798185941	36	127
270.0589115646259	270.12857142857143	72	127
270.15179138322	270.22145124716553	74	127
270.2794784580499	272.9149659863946	72	127
270.56975056689345	270.8367800453515	64	127
270.56975056689345	270.8367800453515	67	127
270.8948072562358	271.1154195011338	66	127
270.8948072562358	271.1154195011338	62	127
271.1734693877551	271.7307482993197	69	127
271.1734693877551	271.7307482993197	65	127
271.7307482993197	272.3112471655329	64	127
271.7307482993197	272.3112471655329	67	127
271.7307482993197	272.0906575963719	52	127
272.0906575963719	272.42732426303854	48	127
272.42732426303854	273.0426530612245	70	127
272.42732426303854	273.0426530612245	64	127
272.42732426303854	273.0426530612245	55	127
273.0426530612245	273.33292517006805	72	127
273.0426530612245	273.6812244897959	53	127
273.0426530612245	273.57673469387754	65	127
273.0426530612245	273.57673469387754	69	127
273.39097505668934	273.6231746031746	71	127
273.6812244897959	274.36619047619047	74	127
273.6812244897959	274.36619047619047	59	127
274.36619047619047	274.83061224489796	72	127
274.36619047619047	274.83061224489796	60	127
274.36619047619047	274.61002267573696	69	127
274.36619047619047	274.61002267573696	65	127
274.65646258503403	274.9118820861678	68	127
274.65646258503403	274.9118820861678	64	127
274.96993197278914	275.51560090702947	70	127
274.96993197278914	275.9916099773243	72	127
274.96993197278914	275.51560090702947	67	127
275.65492063492064	275.8871201814059	53	127
275.65492063492064	276.1309297052154	65	127
275.65492063492064	276.1309297052154	69	127
275.93356009070294	276.18897959183676	48	127
276.24702947845805	276.9552380952381	72	127
276.24702947845805	276.83913832199545	72	127
276.24702947845805	276.9552380952381	57	127
276.24702947845805	276.9552380952381	66	127
276.9552380952381	277.3964172335601	70	127
276.9552380952381	277.18743764172336	84	127
276.9552380952381	277.3964172335601	67	127
276.9552380952381	277.524126984127	55	127
277.23385487528344	277.46607709750566	83	127
277.524126984127	278.1510430839002	59	127
277.524126984127	278.1510430839002	86	127
278.1510430839002	278.7199546485261	60	127
278.1510430839002	278.7199546485261	84	127
278.1510430839002	278.4297052154195	67	127
278.1510430839002	278.4297052154195	70	127
278.4877551020408	278.78961451247164	69	127
278.4877551020408	278.78961451247164	65	127
278.847664399093	279.4397732426304	69	127
278.847664399093	279.83451247165533	84	127
278.847664399093	279.4397732426304	72	127
279.4397732426304	279.73002267573696	55	127
279.4397732426304	279.99702947845805	70	127
279.4397732426304	279.99702947845805	67	127
279.73002267573696	280.1131519274376	48	127
280.1131519274376	280.7517006802721	58	127
280.1131519274376	280.7517006802721	74	127
280.1131519274376	280.7517006802721	64	127
280.1131519274376	284.9312925170068	84	127
280.7517006802721	281.4250566893424	72	127
280.7517006802721	281.4250566893424	57	127
280.7517006802721	282.0171882086168	65	127
281.4250566893424	282.0171882086168	71	127
281.4250566893424	282.0171882086168	56	127
282.0171882086168	282.8879365079365	55	127
282.0171882086168	282.8879365079365	70	127
282.0171882086168	282.8879365079365	64	127
282.8879365079365	283.526485260771	69	127
282.8879365079365	283.526485260771	53	127
282.8879365079365	283.526485260771	65	127
283.526485260771	284.36240362811793	68	127
283.526485260771	284.36240362811793	47	127
283.526485260771	284.36240362811793	65	127
284.36240362811793	285.67433106575965	67	127
284.36240362811793	285.67433106575965	48	127
284.36240362811793	285.67433106575965	64	127
285.2447619047619	285.5930612244898	84	127
285.5930612244898	286.20839002267576	83	127
286.20839002267576	286.4754195011338	86	127
286.4754195011338	286.76566893424035	84	127
286.76566893424035	287.0094784580499	82	127
287.0094784580499	287.39260770975056	81	127
287.39260770975056	287.6480272108844	84	127
287.6480272108844	287.89183673469387	82	127
287.89183673469387	288.1124263038549	81	127
288.1124263038549	288.4142857142857	79	127
288.4142857142857	288.98315192743763	48	127
288.4142857142857	288.98315192743763	64	127
288.4142857142857	288.98315192743763	70	127
288.4142857142857	288.913514739229	78	127
288.98315192743763	289.13410430839	79	127
289.28503401360547	289.56367346938777	78	127
289.28503401360547	289.6449433106576	70	127
289.28503401360547	289.6449433106576	64	127
289.28503401360547	289.6449433106576	48	127
289.6449433106576	289.79587301587304	79	127
289.93519274376416	290.22544217687073	64	127
289.93519274376416	290.22544217687073	70	127
289.93519274376416	290.16739229024944	78	127
289.93519274376416	290.22544217687073	48	127
290.22544217687073	290.57374149659864	79	127
291.29356009070295	291.4444671201814	79	127
291.5373696145125	291.66507936507935	82	127
291.69990929705216	291.8043990929705	81	127
291.82761904761907	291.955306122449	79	127
292.01337868480726	292.1410884353742	77	127
292.1642857142857	292.268798185941	76	127
292.30362811791383	292.4081179138322	74	127
292.43133786848074	292.8144671201814	70	127
292.43133786848074	292.8144671201814	64	127
292.43133786848074	292.8144671201814	64	127
292.43133786848074	292.69836734693877	74	127
292.8144671201814	293.1627664399093	72	127
293.29047619047617	293.74326530612245	64	127
293.29047619047617	293.74326530612245	64	127
293.29047619047617	293.61555555555555	74	127
293.29047619047617	293.74326530612245	70	127
293.74326530612245	293.9174149659864	72	127
294.05673469387756	294.4166439909297	64	127
294.05673469387756	294.3585941043084	74	127
294.05673469387756	294.4166439909297	70	127
294.05673469387756	294.4166439909297	64	127
294.4166439909297	294.64884353741496	72	127
296.680589569161	297.7254875283447	65	127
296.680589569161	297.0753287981859	53	127
297.0753287981859	297.3771655328798	52	127
297.3771655328798	297.6674376417234	53	127
297.6674376417234	297.9460770975057	48	127
297.9460770975057	298.2595464852608	53	127
297.9460770975057	298.445306122449	65	127
298.2595464852608	298.54979591836735	52	127
298.54979591836735	299.0258049886621	65	127
298.54979591836735	298.86326530612246	53	127
298.86326530612246	299.14190476190475	48	127
299.14190476190475	299.4205215419501	53	127
299.14190476190475	299.59469387755104	65	127
299.4205215419501	299.7107936507937	52	127
299.7107936507937	300.0242403628118	53	127
299.7107936507937	300.1984126984127	65	127
300.0242403628118	300.3493424036281	48	127
300.3493424036281	300.6744217687075	55	127
300.3493424036281	301.31297052154196	65	127
300.3493424036281	301.31297052154196	70	127
300.3493424036281	302.26498866213154	60	127
300.6744217687075	300.9762811791383	54	127
300.9762811791383	301.2665306122449	55	127
301.2665306122449	301.54517006802723	48	127
301.54517006802723	302.462358276644	64	127
301.54517006802723	302.0560090702948	70	127
301.54517006802723	301.8702267573696	55	127
301.8702267573696	302.1488888888889	54	127
302.1488888888889	302.60167800453513	70	127
302.1488888888889	302.41591836734693	55	127
302.41591836734693	302.7061678004535	48	127
302.7061678004535	303.1937641723356	70	127
302.7061678004535	303.0312471655329	55	127
303.0312471655329	303.29825396825396	54	127
303.29825396825396	303.9600453514739	70	127
303.29825396825396	303.6814058956916	55	127
303.6814058956916	304.07614512471656	48	127
304.07614512471656	305.8756916099773	72	127
304.07614512471656	304.9701133786848	70	127
304.07614512471656	304.9701133786848	77	127
304.07614512471656	304.35478458049886	53	127
304.35478458049886	304.6334013605442	52	127
304.6334013605442	304.9236734693878	53	127
304.9236734693878	305.1907029478458	48	127
305.1907029478458	306.1078911564626	69	127
305.1907029478458	305.6667120181406	77	127
305.1907029478458	305.5041723356009	53	127
305.5041723356009	305.77120181405894	52	127
305.77120181405894	306.25882086167803	77	127
305.77120181405894	306.0498412698413	53	127
306.0498412698413	306.3632879818594	48	127
306.3632879818594	306.874126984127	77	127
306.3632879818594	306.71160997732426	53	127
306.71160997732426	306.97861678004534	52	127
306.97861678004534	307.3269387755102	53	127
306.97861678004534	307.5475283446712	77	127
307.3269387755102	307.66362811791385	48	127
307.66362811791385	309.50961451247167	72	127
307.66362811791385	308.6388662131519	77	127
307.66362811791385	308.6388662131519	82	127
307.66362811791385	308.0467573696145	55	127
308.0467573696145	308.3137641723356	54	127
308.3137641723356	308.5924263038549	55	127
308.5924263038549	308.84784580498865	48	127
308.84784580498865	309.28902494331066	82	127
308.84784580498865	309.74179138321995	76	127
308.84784580498865	309.11487528344674	55	127
309.11487528344674	309.4051247165533	54	127
309.4051247165533	309.8695238095238	82	127
309.4051247165533	309.6837641723356	55	127
309.6837641723356	309.9972335600907	48	127
309.9972335600907	310.47324263038547	82	127
309.9972335600907	310.29909297052154	55	127
310.29909297052154	310.5893424036281	54	127
310.5893424036281	310.9492517006803	55	127
310.5893424036281	311.2162811791383	82	127
310.9492517006803	311.3207709750567	48	127
311.3207709750567	312.21473922902493	82	127
311.3207709750567	312.65591836734694	75	127
311.3207709750567	312.65591836734694	72	127
311.3207709750567	311.6226303854875	53	127
311.6226303854875	311.8896371882086	52	127
311.8896371882086	312.15668934240364	53	127
312.15668934240364	312.42371882086167	48	127
312.42371882086167	312.8648979591837	81	127
312.42371882086167	312.702335600907	53	127
312.702335600907	313.0506575963719	52	127
313.0506575963719	313.3989569160998	53	127
313.0506575963719	313.56149659863945	87	127
313.0506575963719	313.56149659863945	81	127
313.0506575963719	313.56149659863945	72	127
313.3989569160998	313.7124263038549	48	127
313.7124263038549	314.1768253968254	81	127
313.7124263038549	314.1768253968254	87	127
313.7124263038549	314.00267573696146	53	127
313.7124263038549	314.1768253968254	72	127
314.00267573696146	314.31614512471657	52	127
314.31614512471657	314.7224943310658	53	127
314.31614512471657	314.88503401360543	87	127
314.31614512471657	314.88503401360543	81	127
314.31614512471657	314.88503401360543	72	127
314.7224943310658	315.18689342403627	48	127
315.18689342403627	316.3014512471655	45	127
315.18689342403627	316.3014512471655	65	127
315.18689342403627	316.3014512471655	75	127
315.18689342403627	316.3014512471655	84	127
315.18689342403627	316.3014512471655	87	127
315.18689342403627	316.3014512471655	77	127
316.55687074829933	318.43766439909297	77	127
316.55687074829933	318.43766439909297	46	127
316.55687074829933	318.43766439909297	86	127
316.55687074829933	318.43766439909297	74	127
316.55687074829933	318.43766439909297	82	127
316.55687074829933	318.43766439909297	65	127
319.78444444444443	320.6551927437642	62	127
319.78444444444443	320.6551927437642	67	127
319.78444444444443	320.6551927437642	65	127
319.78444444444443	320.6551927437642	58	127
321.0615419501134	321.5143310657596	67	127
321.0615419501134	321.5143310657596	62	127
321.0615419501134	321.5143310657596	65	127
321.0615419501134	321.5143310657596	58	127
321.6536507936508	322.14126984126983	62	127
321.6536507936508	322.14126984126983	65	127
321.6536507936508	322.14126984126983	67	127
321.6536507936508	322.14126984126983	58	127
322.25736961451247	322.7914285714286	58	127
322.25736961451247	322.7914285714286	67	127
322.25736961451247	322.7914285714286	65	127
322.25736961451247	322.7914285714286	62	127
322.93072562358276	323.58090702947845	67	127
322.93072562358276	323.58090702947845	62	127
322.93072562358276	323.58090702947845	65	127
322.93072562358276	323.58090702947845	58	127
323.7318367346939	324.7419047619048	61	127
323.7318367346939	324.7419047619048	58	127
323.7318367346939	324.0685260770975	67	127
323.7318367346939	324.7419047619048	65	127
324.0685260770975	324.20784580498866	68	127
324.20784580498866	324.3703854875283	70	127
324.3703854875283	324.68385487528343	68	127
324.68385487528343	324.97408163265305	67	127
324.97408163265305	325.47333333333336	65	127
324.97408163265305	325.47333333333336	67	127
324.97408163265305	325.47333333333336	61	127
324.97408163265305	325.47333333333336	58	127
325.62426303854875	326.15832199546486	58	127
325.62426303854875	326.15832199546486	65	127
325.62426303854875	326.15832199546486	61	127
325.62426303854875	326.15832199546486	67	127
326.3208616780045	326.94780045351473	61	127
326.3208616780045	326.94780045351473	67	127
326.3208616780045	326.94780045351473	58	127
326.3208616780045	326.94780045351473	65	127
327.0871201814059	327.5863492063492	65	127
327.0871201814059	327.5863492063492	67	127
327.0871201814059	327.5863492063492	58	127
327.0871201814059	327.5863492063492	61	127
327.7256689342404	328.944716553288	62	127
327.7256689342404	329.23496598639457	55	127
327.7256689342404	330.7326530612245	53	127
327.7256689342404	329.23496598639457	47	127
328.944716553288	329.23496598639457	67	127
329.23496598639457	330.7326530612245	48	127
329.23496598639457	330.7326530612245	65	127
329.23496598639457	330.7326530612245	57	127
330.7326530612245	332.7063492063492	49	127
330.7326530612245	332.7063492063492	52	127
330.7326530612245	331.0809523809524	69	127
330.7326530612245	332.7063492063492	58	127
331.0809523809524	332.14907029478456	67	127
332.14907029478456	332.7063492063492	65	127
332.7063492063492	334.13437641723357	57	127
332.7063492063492	334.13437641723357	65	127
332.7063492063492	334.13437641723357	53	127
332.7063492063492	334.13437641723357	50	127
336.537641723356	336.8278911564626	41	127
336.537641723356	337.5476870748299	53	127
336.8278911564626	337.12975056689345	40	127
337.12975056689345	337.50126984126985	41	127
337.50126984126985	337.75666666666666	36	127
337.75666666666666	338.0469387755102	41	127
337.75666666666666	338.22108843537416	53	127
338.0469387755102	338.34879818594106	40	127
338.34879818594106	338.6042176870748	41	127
338.34879818594106	338.789977324263	53	127
338.6042176870748	338.98732426303854	36	127
338.98732426303854	339.3820861678005	41	127
338.98732426303854	339.5678458049887	53	127
339.3820861678005	339.6955328798186	40	127
339.6955328798186	340.2528344671202	53	127
339.6955328798186	340.0206349206349	41	127
340.0206349206349	340.3689342403628	36	127
340.3689342403628	341.3441723356009	53	127
340.3689342403628	341.3441723356009	58	127
340.3689342403628	340.6824036281179	43	127
340.6824036281179	341.0074829931973	42	127
341.0074829931973	341.2861224489796	43	127
341.2861224489796	341.5647619047619	36	127
341.5647619047619	341.83179138322	43	127
341.5647619047619	342.4819501133787	52	127
341.5647619047619	342.0059410430839	58	127
341.83179138322	342.1104308390023	42	127
342.1104308390023	342.5980498866213	58	127
342.1104308390023	342.43551020408165	43	127
342.43551020408165	342.71414965986395	36	127
342.71414965986395	343.0160090702948	43	127
342.71414965986395	343.1901587301587	58	127
343.0160090702948	343.37589569160997	42	127
343.37589569160997	343.6893650793651	43	127
343.37589569160997	343.85192743764173	58	127
343.6893650793651	343.9564172335601	36	127
343.9564172335601	344.2350566893424	41	127
343.9564172335601	344.8968253968254	58	127
343.9564172335601	344.8968253968254	65	127
343.9564172335601	346.0926530612245	60	127
344.2350566893424	344.5601360544218	40	127
344.5601360544218	344.85038548752834	41	127
344.85038548752834	345.12902494331064	36	127
345.12902494331064	345.5005442176871	41	127
345.12902494331064	346.41773242630387	56	127
345.12902494331064	345.8140136054422	65	127
345.5005442176871	345.91850340136057	40	127
345.91850340136057	346.3480498866213	41	127
345.91850340136057	346.5454195011338	65	127
346.3480498866213	346.66154195011336	36	127
346.66154195011336	347.1839909297052	65	127
346.66154195011336	346.998231292517	41	127
346.998231292517	347.2536507936508	40	127
347.2536507936508	347.48585034013604	41	127
347.2536507936508	347.66	65	127
347.48585034013604	347.7644897959184	36	127
347.7644897959184	348.73972789115646	65	127
347.7644897959184	349.5756462585034	60	127
347.7644897959184	348.73972789115646	70	127
347.7644897959184	348.101179138322	43	127
348.101179138322	348.3914058956916	42	127
348.3914058956916	348.6816780045352	43	127
348.6816780045352	348.93709750566893	36	127
348.93709750566893	349.81943310657596	64	127
348.93709750566893	349.3666666666667	70	127
348.93709750566893	349.20410430839	43	127
349.20410430839	349.47115646258504	42	127
349.47115646258504	349.7614058956916	43	127
349.47115646258504	349.91233560090706	70	127
349.7614058956916	350.0284126984127	36	127
350.0284126984127	350.4463945578231	70	127
350.0284126984127	350.2954648526077	43	127
350.2954648526077	350.56249433106575	42	127
350.56249433106575	351.06172335600905	70	127
350.56249433106575	350.8643537414966	43	127
350.8643537414966	351.1778231292517	36	127
351.1778231292517	351.4912925170068	41	127
351.1778231292517	352.10662131519274	72	127
351.1778231292517	353.04702947845806	60	127
351.1778231292517	352.10662131519274	70	127
351.4912925170068	351.78154195011336	40	127
351.78154195011336	352.04857142857145	41	127
352.04857142857145	352.338820861678	36	127
352.338820861678	353.2908163265306	68	127
352.338820861678	352.60585034013604	41	127
352.338820861678	352.76839002267576	72	127
352.60585034013604	352.8844671201814	40	127
352.8844671201814	353.39530612244897	72	127
352.8844671201814	353.221179138322	41	127
353.221179138322	353.51142857142855	36	127
353.51142857142855	353.7900680272109	44	127
353.51142857142855	354.46344671201814	65	127
353.51142857142855	353.95260770975057	72	127
353.7900680272109	354.0803174603175	43	127
354.0803174603175	354.5679365079365	72	127
354.0803174603175	354.40539682539685	44	127
354.40539682539685	354.7304535147392	41	127
354.7304535147392	355.6708843537415	73	127
354.7304535147392	355.05555555555554	46	127
354.7304535147392	355.6708843537415	72	127
354.7304535147392	356.71578231292517	65	127
355.05555555555554	355.3225850340136	45	127
355.3225850340136	355.6128344671202	46	127
355.6128344671202	355.93791383219957	41	127
355.93791383219957	356.30943310657597	49	127
355.93791383219957	356.50680272108843	73	127
355.93791383219957	359.3164172335601	70	127
356.30943310657597	356.6112925170068	48	127
356.6112925170068	357.0640816326531	73	127
356.6112925170068	356.90154195011337	49	127
356.90154195011337	357.1801587301587	46	127
357.1801587301587	357.48201814058956	43	127
357.1801587301587	358.0973469387755	63	127
357.1801587301587	357.6445804988662	73	127
357.48201814058956	357.7490702947846	41	127
357.7490702947846	358.20183673469387	73	127
357.7490702947846	358.0277097505669	43	127
358.0277097505669	358.3295691609977	39	127
358.3295691609977	359.3164172335601	73	127
358.3295691609977	360.2568253968254	63	127
358.3295691609977	358.6198185941043	44	127
358.6198185941043	358.9797278911565	43	127
358.9797278911565	359.25836734693877	44	127
359.25836734693877	359.54861678004534	39	127
359.54861678004534	360.02462585034016	72	127
359.54861678004534	361.40621315192743	68	127
359.54861678004534	359.8504761904762	48	127
359.8504761904762	360.1407029478458	46	127
360.1407029478458	360.593514739229	72	127
360.1407029478458	360.43097505668936	48	127
360.43097505668936	360.70961451247166	44	127
360.70961451247166	361.66163265306125	62	127
360.70961451247166	360.9998639455782	41	127
360.70961451247166	361.1739909297052	72	127
360.9998639455782	361.2901133786848	40	127
361.2901133786848	361.7661224489796	72	127
361.2901133786848	361.6035827664399	41	127
361.6035827664399	361.870612244898	38	127
361.870612244898	362.31179138321994	72	127
361.870612244898	362.1492517006803	43	127
361.870612244898	363.3566893424036	62	127
361.870612244898	362.31179138321994	69	127
362.1492517006803	362.4511111111111	41	127
362.4511111111111	362.9619501133787	71	127
362.4511111111111	363.47278911564626	67	127
362.4511111111111	362.78780045351476	43	127
362.78780045351476	363.10126984126987	38	127
363.10126984126987	363.414716553288	46	127
363.10126984126987	363.5888888888889	70	127
363.414716553288	363.70498866213154	44	127
363.70498866213154	364.2158276643991	61	127
363.70498866213154	364.2158276643991	67	127
363.70498866213154	364.2158276643991	70	127
363.70498866213154	364.0300453514739	46	127
364.0300453514739	364.33190476190475	43	127
364.33190476190475	365.33038548752836	60	127
364.33190476190475	364.83115646258506	70	127
364.33190476190475	364.83115646258506	67	127
364.33190476190475	364.6221768707483	40	127
364.6221768707483	364.9588662131519	38	127
364.9588662131519	365.43487528344673	67	127
364.9588662131519	365.272335600907	40	127
364.9588662131519	365.43487528344673	70	127
365.272335600907	365.5393650793651	36	127
365.5393650793651	366.05020408163267	70	127
365.5393650793651	366.05020408163267	67	127
365.5393650793651	365.8528344671202	41	127
365.5393650793651	366.9790022675737	60	127
365.8528344671202	366.1895238095238	40	127
366.1895238095238	366.6307029478458	69	127
366.1895238095238	366.46816326530615	41	127
366.1895238095238	367.09507936507936	65	127
366.46816326530615	366.7351927437642	36	127
366.7351927437642	367.037052154195	44	127
366.7351927437642	367.1995691609977	68	127
367.037052154195	367.37374149659865	43	127
367.37374149659865	367.7336507936508	44	127
367.37374149659865	367.8961904761905	68	127
367.37374149659865	367.8961904761905	65	127
367.37374149659865	367.8961904761905	60	127
367.7336507936508	368.01226757369614	41	127
368.01226757369614	368.51151927437644	68	127
368.01226757369614	368.51151927437644	65	127
368.01226757369614	368.3489795918367	49	127
368.01226757369614	368.51151927437644	56	127
368.3489795918367	368.68566893424037	48	127
368.68566893424037	369.19650793650794	49	127
368.68566893424037	369.3938775510204	68	127
368.68566893424037	369.3938775510204	65	127
368.68566893424037	369.3938775510204	53	127
369.19650793650794	369.8350566893424	48	127
369.8350566893424	370.94961451247167	61	127
369.8350566893424	370.94961451247167	65	127
369.8350566893424	370.94961451247167	46	127
369.8350566893424	370.94961451247167	67	127
371.2514739229025	371.8784126984127	61	127
371.2514739229025	371.8784126984127	67	127
371.2514739229025	371.8784126984127	65	127
371.2514739229025	371.8784126984127	46	127
371.99451247165536	372.4473015873016	46	127
371.99451247165536	372.4473015873016	65	127
371.99451247165536	372.4473015873016	61	127
371.99451247165536	372.4473015873016	67	127
372.55179138321995	373.1671201814059	65	127
372.55179138321995	373.1671201814059	67	127
372.55179138321995	373.1671201814059	46	127
372.55179138321995	373.1671201814059	61	127
373.41092970521544	373.95659863945576	46	127
373.41092970521544	373.95659863945576	67	127
373.41092970521544	373.95659863945576	65	127
373.41092970521544	373.95659863945576	61	127
374.06108843537413	374.9550566893424	46	127
374.06108843537413	374.9550566893424	61	127
374.06108843537413	374.9550566893424	64	127
374.06108843537413	374.9550566893424	67	127
374.06108843537413	374.362925170068	79	127
374.362925170068	374.4906575963719	80	127
374.4906575963719	374.62997732426305	82	127
374.62997732426305	374.90861678004535	80	127
374.90861678004535	375.18725623582765	79	127
375.18725623582765	375.8258049886621	61	127
375.18725623582765	375.8258049886621	64	127
375.18725623582765	375.8258049886621	67	127
375.18725623582765	375.8258049886621	79	127
375.18725623582765	375.8258049886621	46	127
375.95351473922904	376.6036507936508	46	127
375.95351473922904	376.6036507936508	64	127
375.95351473922904	376.6036507936508	61	127
375.95351473922904	376.6036507936508	67	127
375.95351473922904	376.6036507936508	79	127
376.73138321995464	377.8807709750567	47	127
376.73138321995464	377.8807709750567	62	127
376.73138321995464	377.8807709750567	68	127
376.73138321995464	377.0912925170068	77	127
376.73138321995464	377.8807709750567	65	127
377.0912925170068	377.2538321995465	79	127
377.2538321995465	377.48603174603176	80	127
377.48603174603176	377.7878911564626	79	127
377.7878911564626	378.11297052154197	77	127
378.11297052154197	378.6934693877551	77	127
378.11297052154197	378.6934693877551	68	127
378.11297052154197	378.6934693877551	47	127
378.11297052154197	378.6934693877551	65	127
378.11297052154197	378.6934693877551	62	127
378.821179138322	379.3204081632653	65	127
378.821179138322	379.3204081632653	77	127
378.821179138322	379.3204081632653	68	127
378.821179138322	379.3204081632653	62	127
378.821179138322	379.3204081632653	47	127
379.49455782312924	380.6903854875283	60	127
379.49455782312924	380.6903854875283	69	127
379.49455782312924	380.6903854875283	77	127
379.49455782312924	380.6903854875283	65	127
379.49455782312924	380.6903854875283	48	127
381.1431746031746	382.3622222222222	58	127
381.1431746031746	381.47986394557824	81	127
381.1431746031746	382.3622222222222	49	127
381.1431746031746	382.3622222222222	64	127
381.47986394557824	382.3041723356009	79	127
382.3041723356009	382.91950113378687	77	127
382.91950113378687	384.0921088435374	50	127
382.91950113378687	383.58126984126983	65	127
382.91950113378687	383.58126984126983	57	127
382.91950113378687	384.3126984126984	77	127
383.6857596371882	384.3126984126984	53	127
383.6857596371882	384.3126984126984	65	127
384.3126984126984	385.05573696145126	66	127
384.3126984126984	385.05573696145126	54	127
384.3126984126984	385.4504761904762	48	127
384.3126984126984	385.70589569160995	76	127
385.05573696145126	385.70589569160995	55	127
385.05573696145126	385.70589569160995	67	127
385.70589569160995	386.28639455782314	68	127
385.70589569160995	386.9597732426304	75	127
385.70589569160995	386.7275736961451	41	127
385.70589569160995	386.28639455782314	56	127
386.28639455782314	386.9597732426304	69	127
386.28639455782314	386.9597732426304	57	127
386.9597732426304	387.7144217687075	73	127
386.9597732426304	388.0743310657596	46	127
386.9597732426304	387.5867120181406	58	127
386.9597732426304	387.5867120181406	70	127
387.7144217687075	388.22526077097507	58	127
387.7144217687075	388.22526077097507	65	127
387.7144217687075	388.50390022675737	74	127
388.3413605442177	388.8057596371882	65	127
388.3413605442177	388.8057596371882	58	127
388.50390022675737	388.6316099773243	76	127
388.6316099773243	388.78253968253966	74	127
388.78253968253966	388.92185941043084	72	127
388.92185941043084	389.04956916099775	74	127
388.92185941043084	389.36303854875285	65	127
388.92185941043084	389.36303854875285	58	127
389.04956916099775	389.20049886621314	76	127
389.20049886621314	389.3398185941043	74	127
389.3398185941043	389.4907482993197	76	127
389.4907482993197	390.68657596371884	46	127
389.4907482993197	389.98997732426307	79	127
389.4907482993197	390.164126984127	65	127
389.4907482993197	390.164126984127	58	127
389.98997732426307	390.3034467120181	77	127
390.3034467120181	390.8375056689342	58	127
390.3034467120181	390.8375056689342	65	127
390.3034467120181	390.6285260770975	76	127
390.6285260770975	390.9768253968254	74	127
390.9768253968254	394.2043990929705	60	127
390.9768253968254	392.53256235827666	72	127
390.9768253968254	392.0101133786848	45	127
390.9768253968254	391.53410430839	65	127
391.68503401360545	393.0550113378685	72	127
392.2307029478458	393.4381405895692	43	127
393.0550113378685	393.54263038548754	74	127
393.0550113378685	393.6587301587302	71	127
393.6587301587302	394.9358276643991	41	127
393.6587301587302	394.3669387755102	70	127
393.6587301587302	394.2043990929705	76	127
394.3669387755102	395.20285714285717	69	127
394.3669387755102	395.04031746031745	77	127
395.20285714285717	395.6440362811791	48	127
395.20285714285717	395.6440362811791	72	127
395.6440362811791	395.9110657596372	71	127
395.9110657596372	396.2825850340136	70	127
395.9110657596372	396.2825850340136	65	127
395.9110657596372	396.2825850340136	57	127
395.9110657596372	396.2825850340136	48	127
396.2825850340136	396.6308843537415	69	127
396.6308843537415	396.7005442176871	67	127
396.6308843537415	396.95596371882084	48	127
396.6308843537415	396.95596371882084	58	127
396.6308843537415	396.95596371882084	65	127
396.71215419501135	396.80503401360545	69	127
396.8166439909297	396.93274376417236	67	127
396.95596371882084	397.0372335600907	69	127
397.0604535147392	397.1533333333333	67	127
397.17655328798185	397.24621315192746	69	127
397.26943310657595	397.33909297052156	67	127
397.26943310657595	397.5712925170068	65	127
397.26943310657595	397.5712925170068	58	127
397.26943310657595	397.5712925170068	48	127
397.35070294784583	397.44358276643993	69	127
397.4668027210884	397.53646258503403	67	127
397.5712925170068	397.6409523809524	69	127
397.6641723356009	397.75705215419504	67	127
397.7802721088435	397.8731519274376	69	127
397.89637188208616	398.0124716553288	67	127
397.89637188208616	398.2330612244898	58	127
397.89637188208616	398.2330612244898	48	127
397.89637188208616	398.2330612244898	64	127
398.02408163265306	398.11696145124716	69	127
398.12857142857143	398.20984126984126	67	127
398.2330612244898	398.31433106575963	69	127
398.33755102040817	398.4652607709751	67	127
398.48848072562356	398.5581405895692	69	127
398.58136054421766	398.88321995464855	48	127
398.58136054421766	398.88321995464855	58	127
398.58136054421766	398.88321995464855	64	127
398.58136054421766	398.6510204081633	67	127
398.66263038548755	398.75551020408165	69	127
398.7671201814059	398.86	67	127
398.88321995464855	399.0573696145125	65	127
399.3243990929705	399.47532879818596	67	127
399.4985487528345	400.70598639455784	65	127
399.4985487528345	399.98616780045353	41	127
399.4985487528345	399.7307482993197	57	127
399.4985487528345	399.98616780045353	65	127
399.78879818594106	400.1370975056689	57	127
400.34607709750566	400.6479365079365	60	127
400.34607709750566	400.5898866213152	57	127
400.6479365079365	400.88013605442177	57	127
400.6479365079365	400.92657596371885	59	127
400.92657596371885	401.1936054421769	53	127
400.92657596371885	401.42580498866215	45	127
400.92657596371885	401.5419047619048	62	127
401.25165532879817	401.4954648526077	53	127
401.5419047619048	402.0991836734694	60	127
401.5419047619048	401.83215419501136	53	127
401.9134240362812	402.15723356009073	53	127
402.23850340136056	402.4939229024943	57	127
402.23850340136056	402.7145124716553	41	127
402.55197278911567	402.7725623582766	57	127
402.8190022675737	403.34145124716554	60	127
402.8190022675737	403.05120181405897	57	127
403.1789115646259	403.4807709750567	57	127
403.6781405895692	404.02643990929704	52	127
403.6781405895692	406.2671655328798	70	127
403.6781405895692	404.3631292517007	43	127
404.09609977324266	404.421179138322	52	127
404.46761904761905	404.7578684807256	60	127
404.46761904761905	404.69981859410433	52	127
404.7578684807256	404.9784580498866	52	127
404.7578684807256	405.01328798185943	59	127
405.01328798185943	405.46607709750566	40	127
405.01328798185943	405.2338775510204	55	127
405.01328798185943	405.57056689342403	62	127
405.303537414966	405.524126984127	55	127
405.57056689342403	406.1278458049887	60	127
405.57056689342403	405.87242630385487	55	127
405.9304761904762	406.2207256235828	55	127
406.2671655328798	406.5341950113379	52	127
406.2671655328798	407.2540136054422	67	127
406.2671655328798	406.82444444444445	46	127
406.5922448979592	406.88249433106574	52	127
406.9289342403628	407.4281632653061	60	127
406.9289342403628	407.19596371882085	52	127
407.2540136054422	407.5210430839002	55	127
407.2540136054422	407.5907029478458	64	127
407.5907029478458	408.2640816326531	45	127
407.5907029478458	408.04349206349207	53	127
407.5907029478458	409.81981859410433	72	127
408.0899319727891	408.32213151927436	53	127
408.36857142857144	408.63560090702947	65	127
408.36857142857144	408.5775510204082	53	127
408.63560090702947	408.9374603174603	64	127
408.63560090702947	408.8910204081633	53	127
408.9374603174603	409.1928798185941	53	127
408.9374603174603	409.5992290249433	45	127
408.9374603174603	409.7037188208617	67	127
409.2625396825397	409.6572789115646	53	127
409.7037188208617	409.91269841269843	53	127
409.7037188208617	410.1332879818594	65	127
409.9707482993197	410.17972789115646	53	127
410.27260770975056	410.6209070294785	53	127
410.27260770975056	411.572925170068	74	127
410.27260770975056	410.89954648526077	46	127
410.67895691609976	410.94598639455785	53	127
411.0272562358277	411.2594557823129	53	127
411.0272562358277	411.46843537414964	65	127
411.31750566893425	411.5148752834467	53	127
411.572925170068	414.08068027210885	65	127
411.572925170068	411.793514739229	57	127
411.572925170068	412.0257142857143	48	127
411.85156462585036	412.07215419501136	57	127
412.13020408163266	412.40884353741495	60	127
412.13020408163266	412.35079365079366	57	127
412.40884353741495	412.7339229024943	57	127
412.40884353741495	412.7919727891156	59	127
412.7919727891156	413.41891156462583	62	127
412.7919727891156	413.31442176870746	48	127
412.7919727891156	413.0241723356009	57	127
413.1054421768707	413.36086167800454	57	127
413.41891156462583	413.9065306122449	60	127
413.41891156462583	413.67433106575965	57	127
413.7439909297052	413.95297052154194	57	127
414.08068027210885	414.3128798185941	52	127
414.08068027210885	414.5682993197279	36	127
414.08068027210885	415.369387755102	67	127
414.3709297052154	414.62634920634923	52	127
414.7888888888889	415.26489795918366	60	127
414.7888888888889	415.0094784580499	52	127
415.0675283446712	415.31133786848073	52	127
415.369387755102	415.7409070294785	55	127
415.369387755102	416.71614512471655	70	127
415.369387755102	416.0195464852608	41	127
415.8221768707483	416.0659863945578	55	127
416.1124263038549	416.3910657596372	55	127
416.1124263038549	416.4491156462585	60	127
416.4491156462585	416.65809523809526	55	127
416.4491156462585	416.71614512471655	59	127
416.71614512471655	417.47079365079367	62	127
416.71614512471655	416.97156462585036	53	127
416.71614512471655	417.3314739229025	53	127
416.71614512471655	417.80748299319725	69	127
417.07605442176873	417.38952380952384	53	127
417.47079365079367	417.7029931972789	53	127
417.47079365079367	417.9119727891156	60	127
417.74943310657596	417.9584126984127	53	127
418.0048526077097	418.70145124716555	57	127
418.0048526077097	418.34154195011337	65	127
418.3995918367347	418.75950113378684	65	127
418.8291609977324	419.38643990929705	60	127
418.8291609977324	419.1542403628118	65	127
419.20068027210885	419.44448979591834	65	127
419.52575963718823	421.9058049886621	82	127
419.52575963718823	420.11786848072563	55	127
419.52575963718823	419.8740589569161	64	127
419.92049886621317	420.16430839002265	64	127
420.222358276644	420.442947845805	64	127
420.222358276644	420.48938775510203	72	127
420.48938775510203	420.7680272108843	71	127
420.48938775510203	420.70997732426304	64	127
420.7680272108843	421.3601360544218	74	127
420.7680272108843	421.2324263038549	52	127
420.7680272108843	420.98861678004533	67	127
421.0350566893424	421.30208616780044	67	127
421.3601360544218	421.5807256235828	67	127
421.3601360544218	421.7897052154195	72	127
421.6271655328798	421.8477551020408	67	127
421.9058049886621	422.915873015873	79	127
421.9058049886621	422.4863038548753	58	127
421.9058049886621	422.14961451247166	64	127
422.2192743764172	422.59079365079367	64	127
422.64884353741496	423.19451247165534	72	127
422.64884353741496	422.86943310657597	64	127
422.915873015873	423.3222222222222	76	127
422.915873015873	423.25256235827663	67	127
423.3222222222222	423.87950113378685	57	127
423.3222222222222	425.3075283446712	84	127
423.3222222222222	423.5892517006803	65	127
423.6356916099773	423.9607709750567	65	127
424.018820861678	424.22780045351476	65	127
424.018820861678	424.28585034013605	77	127
424.28585034013605	424.5760997732426	76	127
424.28585034013605	424.5180498866213	65	127
424.5760997732426	425.3075283446712	79	127
424.5760997732426	424.9360090702948	64	127
424.5760997732426	426.10861678004534	57	127
424.9940589569161	425.2494784580499	64	127
425.3075283446712	425.95768707482995	64	127
425.3075283446712	426.32920634920634	85	127
425.3075283446712	426.224716553288	77	127
426.0273469387755	426.27115646258505	64	127
426.32920634920634	426.99097505668936	58	127
426.32920634920634	426.60784580498864	62	127
426.32920634920634	426.99097505668936	86	127
426.66589569161	426.932925170068	62	127
426.99097505668936	427.23478458049885	68	127
426.99097505668936	427.58308390022677	59	127
426.99097505668936	427.58308390022677	77	127
426.99097505668936	427.58308390022677	89	127
427.3857142857143	427.64113378684806	68	127
427.6991836734694	428.45383219954647	60	127
427.6991836734694	428.22163265306125	69	127
427.6991836734694	429.82380952380953	77	127
428.27968253968254	428.5118820861678	69	127
428.5815419501134	428.8021315192744	69	127
428.5815419501134	428.8601814058957	72	127
428.8601814058957	429.09238095238095	69	127
428.8601814058957	429.15043083900224	71	127
429.15043083900224	429.71931972789116	74	127
429.15043083900224	429.59160997732425	48	127
429.15043083900224	429.37102040816325	69	127
429.4290702947846	429.6612698412698	69	127
429.71931972789116	429.9631292517007	69	127
429.71931972789116	430.18371882086166	72	127
430.021179138322	430.241768707483	69	127
430.2998185941043	430.7758276643991	48	127
430.2998185941043	430.40430839002266	81	127
430.2998185941043	430.54362811791384	64	127
430.41591836734693	430.49718820861676	79	127
430.50879818594103	430.60167800453513	81	127
430.6132879818594	430.85709750566895	64	127
430.6132879818594	430.68294784580496	79	127
430.7061678004535	430.7758276643991	81	127
430.82226757369614	430.90353741496597	79	127
430.9615873015873	431.2982766439909	81	127
430.9615873015873	431.6581859410431	70	127
430.9615873015873	431.4375963718821	64	127
431.3098866213152	431.39115646258506	79	127
431.40276643990927	431.48403628117916	81	127
431.4956462585034	431.565306122449	79	127
431.4956462585034	431.7162358276644	64	127
431.5885260770975	431.6581859410431	77	127
431.6814058956916	431.76267573696146	79	127
431.78589569161	432.052925170068	69	127
431.78589569161	432.052925170068	65	127
431.78589569161	432.7263038548753	77	127
432.11097505668937	432.3315646258503	60	127
432.11097505668937	432.3315646258503	69	127
432.38961451247167	432.6102040816327	69	127
432.38961451247167	432.6102040816327	53	127
432.38961451247167	432.6102040816327	60	127
432.66825396825396	432.99333333333334	69	127
432.66825396825396	432.99333333333334	52	127
432.66825396825396	432.99333333333334	60	127
433.0629931972789	433.9221315192744	55	127
433.0629931972789	433.35324263038547	69	127
433.0629931972789	433.35324263038547	60	127
433.4112925170068	433.86408163265304	69	127
433.4112925170068	433.86408163265304	60	127
433.9221315192744	434.17755102040815	69	127
433.9221315192744	434.17755102040815	60	127
433.9221315192744	434.4213605442177	53	127
434.2356009070295	434.479410430839	69	127
434.2356009070295	434.479410430839	60	127
434.52585034013606	434.74643990929707	60	127
434.52585034013606	434.9554195011338	75	127
434.52585034013606	434.74643990929707	69	127
434.80448979591836	435.02507936507936	69	127
434.80448979591836	435.02507936507936	60	127
435.07151927437644	435.361768707483	60	127
435.07151927437644	435.582358276644	53	127
435.07151927437644	435.361768707483	69	127
435.4198185941043	435.6404081632653	69	127
435.4198185941043	435.6404081632653	60	127
435.71006802721087	435.9306575963719	70	127
435.71006802721087	436.1512471655329	74	127
435.71006802721087	435.9306575963719	58	127
435.9887074829932	436.22090702947844	65	127
435.9887074829932	436.22090702947844	58	127
436.29056689342406	436.5459863945578	58	127
436.29056689342406	436.60403628117916	53	127
436.29056689342406	436.5459863945578	65	127
436.60403628117916	436.9639455782313	52	127
436.60403628117916	436.91750566893427	58	127
436.60403628117916	436.91750566893427	65	127
436.9639455782313	437.25419501133786	58	127
436.9639455782313	437.25419501133786	65	127
436.9639455782313	437.48639455782313	73	127
436.9639455782313	437.5908843537415	55	127
437.3122448979592	437.5444444444444	64	127
437.3122448979592	437.5444444444444	58	127
437.5908843537415	437.8695238095238	58	127
437.5908843537415	438.0901133786848	53	127
437.5908843537415	437.8695238095238	64	127
437.92757369614515	438.15977324263037	58	127
437.92757369614515	438.15977324263037	64	127
438.26426303854873	438.5545124716553	65	127
438.26426303854873	440.20312925170066	72	127
438.26426303854873	438.5545124716553	57	127
438.61256235827665	438.8447619047619	63	127
438.61256235827665	438.8447619047619	57	127
438.89120181405895	439.1814512471655	63	127
438.89120181405895	439.4368707482993	53	127
438.89120181405895	439.1814512471655	57	127
439.23950113378686	439.5297505668934	57	127
439.23950113378686	439.5297505668934	63	127
439.6342403628118	439.86643990929707	65	127
439.6342403628118	439.86643990929707	62	127
439.92448979591836	440.15668934240364	65	127
439.92448979591836	440.15668934240364	62	127
440.20312925170066	440.4585487528345	62	127
440.20312925170066	440.4585487528345	65	127
440.20312925170066	440.51659863945576	41	127
440.20312925170066	440.80684807256233	71	127
440.51659863945576	440.7604081632653	62	127
440.51659863945576	440.7604081632653	65	127
440.51659863945576	440.80684807256233	40	127
440.80684807256233	442.1768253968254	70	127
440.80684807256233	441.21319727891154	64	127
440.80684807256233	441.21319727891154	61	127
440.80684807256233	441.584716553288	43	127
441.2712471655329	441.52666666666664	64	127
441.2712471655329	441.52666666666664	61	127
441.584716553288	441.851746031746	61	127
441.584716553288	441.851746031746	64	127
441.584716553288	442.072335600907	41	127
441.90979591836737	442.1303854875284	61	127
441.90979591836737	442.1303854875284	64	127
442.1768253968254	443.4307029478458	69	127
442.1768253968254	442.40902494331067	65	127
442.1768253968254	442.40902494331067	60	127
442.4902947845805	442.7689342403628	60	127
442.4902947845805	442.7689342403628	65	127
442.8153741496599	443.0824036281179	60	127
442.8153741496599	443.0824036281179	65	127
442.8153741496599	443.4307029478458	41	127
443.2101133786848	443.5816326530612	65	127
443.2101133786848	443.5816326530612	60	127
443.6280725623583	443.8486621315193	61	127
443.6280725623583	445.54371882086167	67	127
443.6280725623583	443.8486621315193	52	127
443.9067120181406	444.1505215419501	52	127
443.9067120181406	444.1505215419501	61	127
444.2550113378685	444.5336507936508	41	127
444.2550113378685	444.4756009070295	61	127
444.2550113378685	444.4756009070295	52	127
444.5336507936508	444.82390022675736	40	127
444.5336507936508	444.7542403628118	61	127
444.5336507936508	444.7542403628118	52	127
444.82390022675736	445.10253968253966	60	127
444.82390022675736	445.10253968253966	52	127
444.82390022675736	445.54371882086167	43	127
445.1721995464853	445.4856689342404	60	127
445.1721995464853	445.4856689342404	52	127
445.54371882086167	445.77591836734695	69	127
445.54371882086167	446.0313378684807	52	127
445.54371882086167	446.2519274376417	41	127
445.54371882086167	446.0313378684807	60	127
445.9384580498866	446.05455782312924	67	127
446.08938775510205	446.1938775510204	66	127
446.08938775510205	446.2983673469388	60	127
446.08938775510205	446.2983673469388	52	127
446.21709750566896	446.3448072562358	67	127
446.36802721088435	447.32004535147394	72	127
446.36802721088435	446.6118367346939	58	127
446.36802721088435	446.6118367346939	52	127
446.6582766439909	446.86725623582765	58	127
446.6582766439909	446.86725623582765	52	127
446.925306122449	447.4825850340136	41	127
446.925306122449	447.1691156462585	52	127
446.925306122449	447.1691156462585	58	127
447.27360544217686	447.54063492063494	52	127
447.27360544217686	447.54063492063494	58	127
447.6683446712018	448.00503401360544	53	127
447.6683446712018	448.00503401360544	57	127
447.6683446712018	448.2372335600907	65	127
447.6683446712018	448.074693877551	41	127
448.074693877551	448.31850340136054	48	127
448.074693877551	448.31850340136054	57	127
448.074693877551	448.37655328798184	40	127
448.37655328798184	448.6203628117914	48	127
448.37655328798184	448.69002267573694	41	127
448.37655328798184	448.6203628117914	57	127
448.69002267573694	449.3053514739229	48	127
448.69002267573694	449.3053514739229	57	127
448.69002267573694	449.36340136054423	36	127
449.36340136054423	450.1528798185941	41	127
449.36340136054423	450.06	57	127
449.36340136054423	451.0584580498866	65	127
449.36340136054423	450.06	48	127
450.1528798185941	451.1048979591837	57	127
450.1528798185941	451.2442176870748	40	127
450.1528798185941	451.1048979591837	48	127
451.2442176870748	451.9175963718821	41	127
451.2442176870748	451.604126984127	48	127
451.2442176870748	451.604126984127	57	127
451.9175963718821	452.90444444444444	48	127
451.9175963718821	452.90444444444444	57	127
451.9175963718821	453.03215419501134	36	127
453.03215419501134	453.6939229024943	65	127
453.03215419501134	453.5197732426304	41	127
453.03215419501134	453.4617233560091	48	127
453.03215419501134	453.4617233560091	57	127
453.5197732426304	453.7635827664399	57	127
453.5197732426304	453.8332426303855	40	127
453.5197732426304	453.7635827664399	48	127
453.8332426303855	454.4950113378685	41	127
453.8332426303855	454.1002721088435	48	127
453.8332426303855	454.1002721088435	57	127
454.4950113378685	454.87814058956917	57	127
454.4950113378685	454.94780045351473	36	127
454.4950113378685	454.87814058956917	48	127
454.94780045351473	458.5004535147392	48	127
454.94780045351473	458.5004535147392	41	127
454.94780045351473	458.5004535147392	57	127
454.94780045351473	455.2148299319728	64	127
455.2148299319728	455.3309297052154	65	127
455.3309297052154	455.4934693877551	67	127
455.4934693877551	458.5004535147392	65	127
