# onset,offset,note,velocity
0.6493877551020408	0.8583673469387755	76	127
0.8583673469387755	1.0441269841269842	77	127
1.0441269841269842	1.1718367346938776	78	127
1.1718367346938776	1.322766439909297	79	127
1.322766439909297	1.4736961451247166	81	127
1.4736961451247166	1.6942857142857144	79	127
1.6942857142857144	1.926485260770975	77	127
1.926485260770975	2.112222222222222	74	127
2.112222222222222	2.2747845804988662	64	127
2.112222222222222	2.2747845804988662	57	127
2.112222222222222	2.2747845804988662	72	127
2.112222222222222	2.2747845804988662	60	127
2.6114512471655327	2.750793650793651	64	127
2.6114512471655327	2.750793650793651	60	127
2.6114512471655327	2.750793650793651	57	127
2.6114512471655327	2.750793650793651	72	127
2.9017233560090703	3.017823129251701	60	127
2.9017233560090703	3.017823129251701	57	127
2.9017233560090703	3.017823129251701	64	127
2.9017233560090703	3.017823129251701	72	127
3.3545124716553287	3.447392290249433	77	127
3.3545124716553287	3.447392290249433	62	127
3.3545124716553287	3.447392290249433	60	127
3.3545124716553287	3.447392290249433	50	127
3.749251700680272	3.8189115646258505	77	127
3.749251700680272	3.8189115646258505	62	127
3.749251700680272	3.8189115646258505	60	127
3.749251700680272	3.8189115646258505	50	127
4.0859410430839	4.190430839002268	77	127
4.0859410430839	4.190430839002268	62	127
4.0859410430839	4.190430839002268	50	127
4.0859410430839	4.190430839002268	60	127
4.422607709750567	4.805759637188209	59	127
4.422607709750567	4.805759637188209	55	127
4.422607709750567	4.805759637188209	65	127
4.422607709750567	4.805759637188209	62	127
5.258548752834467	5.397868480725624	59	127
5.258548752834467	5.397868480725624	47	127
5.258548752834467	5.397868480725624	59	127
5.409478458049887	5.5836281179138325	43	127
5.409478458049887	5.5836281179138325	55	127
5.409478458049887	5.5836281179138325	55	127
5.606848072562358	5.780997732426304	48	127
5.606848072562358	5.780997732426304	60	127
5.606848072562358	5.780997732426304	60	127
5.80421768707483	5.978367346938776	55	127
5.80421768707483	5.978367346938776	43	127
5.80421768707483	5.978367346938776	55	127
6.001587301587302	6.129297052154195	62	127
6.001587301587302	6.129297052154195	50	127
6.001587301587302	6.129297052154195	62	127
6.1525170068027215	6.315056689342404	55	127
6.1525170068027215	6.315056689342404	55	127
6.1525170068027215	6.315056689342404	43	127
6.315056689342404	6.489206349206349	64	127
6.315056689342404	6.489206349206349	52	127
6.315056689342404	6.489206349206349	64	127
6.500816326530612	6.709795918367347	43	127
6.500816326530612	6.709795918367347	55	127
6.500816326530612	6.709795918367347	55	127
6.733015873015873	7.150975056689342	65	127
6.733015873015873	7.150975056689342	62	127
6.733015873015873	7.150975056689342	65	127
6.733015873015873	7.150975056689342	55	127
7.673424036281179	7.812743764172335	71	127
7.673424036281179	7.928843537414966	65	127
7.812743764172335	7.998503401360544	67	127
7.998503401360544	8.28875283446712	64	127
7.998503401360544	8.149433106575964	72	127
8.149433106575964	8.346802721088435	67	127
8.346802721088435	8.613832199546485	62	127
8.346802721088435	8.462902494331066	74	127
8.462902494331066	8.706712018140589	67	127
8.706712018140589	9.008571428571429	60	127
8.706712018140589	8.880861678004536	76	127
8.880861678004536	9.101451247165533	67	127
9.101451247165533	9.809659863945578	59	127
9.101451247165533	9.310430839002267	79	127
9.310430839002267	9.414920634920636	78	127
9.414920634920636	9.600657596371882	77	127
9.600657596371882	9.809659863945578	74	127
9.809659863945578	10.030249433106576	76	127
9.809659863945578	10.239229024943311	60	127
10.030249433106576	10.239229024943311	72	127
10.239229024943311	10.45981859410431	76	127
10.239229024943311	10.552698412698414	64	127
10.45981859410431	10.633968253968254	75	127
10.633968253968254	10.819727891156463	74	127
10.633968253968254	10.935827664399094	80	127
10.819727891156463	11.017097505668934	71	127
11.017097505668934	11.284126984126985	81	127
11.017097505668934	11.19124716553288	72	127
11.19124716553288	11.376984126984127	69	127
11.376984126984127	11.585986394557823	62	127
11.376984126984127	11.690453514739229	62	127
11.585986394557823	11.783356009070294	61	127
11.783356009070294	11.887845804988663	69	127
11.783356009070294	11.980725623582767	78	127
11.783356009070294	11.887845804988663	60	127
11.887845804988663	12.07360544217687	57	127
11.887845804988663	12.07360544217687	72	127
12.07360544217687	12.410294784580499	71	127
12.07360544217687	12.189705215419501	59	127
12.07360544217687	12.329024943310658	79	127
12.189705215419501	12.410294784580499	55	127
12.410294784580499	12.60766439909297	57	127
12.410294784580499	12.735374149659863	69	127
12.410294784580499	12.538004535147392	57	127
12.60766439909297	12.805034013605443	56	127
12.805034013605443	12.897913832199546	69	127
12.805034013605443	12.979183673469388	76	127
12.805034013605443	12.979183673469388	55	127
12.805034013605443	13.095283446712019	85	127
12.979183673469388	13.188163265306123	52	127
12.979183673469388	13.188163265306123	79	127
13.188163265306123	13.29265306122449	69	127
13.188163265306123	13.536462585034014	86	127
13.188163265306123	13.640952380952381	78	127
13.188163265306123	13.397142857142857	54	127
13.397142857142857	13.640952380952381	50	127
13.640952380952381	15.034149659863946	42	127
13.640952380952381	15.289569160997733	62	127
13.640952380952381	15.034149659863946	57	127
13.640952380952381	15.034149659863946	60	127
15.034149659863946	15.336009070294784	43	127
15.034149659863946	15.336009070294784	55	127
15.034149659863946	15.336009070294784	59	127
15.289569160997733	15.440498866213153	64	127
15.54498866213152	15.603038548752835	66	127
15.684308390022675	15.812018140589569	67	127
15.89328798185941	15.986167800453515	69	127
16.171927437641724	16.322857142857142	72	127
16.171927437641724	16.438956916099773	52	127
16.171927437641724	16.438956916099773	55	127
16.171927437641724	16.438956916099773	67	127
16.41573696145125	16.520226757369613	74	127
16.624716553287982	16.764036281179138	76	127
16.856916099773244	16.88013605442177	78	127
16.938185941043084	17.054285714285715	79	127
17.07750566893424	17.11233560090703	81	127
17.205215419501133	17.356145124716555	74	127
17.205215419501133	17.449024943310658	83	127
17.205215419501133	17.449024943310658	79	127
17.449024943310658	17.65800453514739	81	127
17.449024943310658	17.65800453514739	84	127
17.65800453514739	17.797301587301586	74	127
17.65800453514739	17.890204081632653	82	127
17.65800453514739	17.890204081632653	85	127
17.890204081632653	17.983061224489795	86	127
17.890204081632653	17.983061224489795	83	127
17.983061224489795	18.215283446712018	81	127
17.983061224489795	18.215283446712018	78	127
18.215283446712018	18.540362811791383	79	127
18.215283446712018	18.540362811791383	67	127
18.865442176870747	19.167301587301587	62	127
18.865442176870747	19.10925170068027	67	127
18.865442176870747	19.167301587301587	47	127
18.865442176870747	19.167301587301587	55	127
19.10925170068027	19.271791383219956	74	127
19.37628117913832	19.631678004535146	74	127
19.37628117913832	19.67814058956916	64	127
19.37628117913832	19.67814058956916	55	127
19.37628117913832	19.67814058956916	48	127
19.631678004535146	19.78263038548753	72	127
19.887097505668933	20.09609977324263	72	127
20.09609977324263	20.14251700680272	71	127
20.235419501133787	20.5140589569161	50	127
20.235419501133787	20.5140589569161	54	127
20.235419501133787	20.5140589569161	60	127
20.235419501133787	20.46761904761905	71	127
20.46761904761905	20.606938775510205	69	127
20.676598639455783	20.93201814058957	52	127
20.676598639455783	20.93201814058957	55	127
20.676598639455783	20.93201814058957	59	127
20.676598639455783	20.885578231292516	69	127
20.885578231292516	21.024897959183672	67	127
21.106167800453516	21.21065759637188	67	127
21.21065759637188	21.338367346938774	74	127
21.384807256235828	21.605396825396827	59	127
21.384807256235828	21.570566893424036	74	127
21.384807256235828	21.605396825396827	62	127
21.384807256235828	21.605396825396827	47	127
21.570566893424036	21.69827664399093	72	127
21.79113378684807	22.058185941043085	48	127
21.79113378684807	22.058185941043085	59	127
21.79113378684807	22.058185941043085	64	127
21.79113378684807	22.023356009070294	72	127
22.023356009070294	22.17426303854875	71	127
22.26716553287982	22.325215419501134	71	127
22.325215419501134	22.46453514739229	69	127
22.557414965986396	22.870861678004534	54	127
22.557414965986396	22.870861678004534	60	127
22.557414965986396	22.801224489795917	69	127
22.557414965986396	22.870861678004534	50	127
22.801224489795917	22.9637641723356	67	127
23.06825396825397	23.462993197278912	59	127
23.06825396825397	23.462993197278912	55	127
23.06825396825397	23.462993197278912	43	127
23.06825396825397	23.462993197278912	67	127
23.939002267573695	24.136371882086166	76	127
24.136371882086166	24.287301587301588	77	127
24.287301587301588	24.438231292517006	78	127
24.438231292517006	24.5659410430839	79	127
24.5659410430839	24.75170068027211	81	127
24.75170068027211	24.94907029478458	79	127
24.94907029478458	25.158049886621317	77	127
25.158049886621317	25.297369614512473	74	127
25.297369614512473	25.44829931972789	60	127
25.297369614512473	25.44829931972789	72	127
25.297369614512473	25.44829931972789	64	127
25.297369614512473	25.44829931972789	57	127
25.796598639455784	25.86625850340136	60	127
25.796598639455784	25.86625850340136	57	127
25.796598639455784	25.86625850340136	64	127
25.796598639455784	25.86625850340136	72	127
26.144897959183673	26.249387755102042	57	127
26.144897959183673	26.249387755102042	60	127
26.144897959183673	26.249387755102042	64	127
26.144897959183673	26.249387755102042	72	127
26.539637188208616	26.66734693877551	77	127
26.539637188208616	26.66734693877551	62	127
26.539637188208616	26.66734693877551	60	127
26.539637188208616	26.66734693877551	50	127
26.945986394557824	27.08530612244898	60	127
26.945986394557824	27.08530612244898	77	127
26.945986394557824	27.08530612244898	62	127
26.945986394557824	27.08530612244898	50	127
27.35233560090703	27.480045351473922	50	127
27.35233560090703	27.480045351473922	60	127
27.35233560090703	27.480045351473922	62	127
27.35233560090703	27.480045351473922	77	127
27.689024943310656	28.095374149659865	55	127
27.689024943310656	28.095374149659865	65	127
27.689024943310656	28.095374149659865	62	127
27.689024943310656	28.095374149659865	59	127
28.455283446712016	28.641043083900225	47	127
28.455283446712016	28.641043083900225	59	127
28.455283446712016	28.641043083900225	59	127
28.664263038548754	28.850022675736962	55	127
28.664263038548754	28.850022675736962	55	127
28.664263038548754	28.850022675736962	43	127
28.850022675736962	29.012562358276643	60	127
28.850022675736962	29.012562358276643	60	127
28.850022675736962	29.012562358276643	48	127
29.03578231292517	29.163492063492065	55	127
29.03578231292517	29.163492063492065	43	127
29.03578231292517	29.163492063492065	55	127
29.163492063492065	29.349251700680274	62	127
29.163492063492065	29.349251700680274	62	127
29.163492063492065	29.349251700680274	50	127
29.3724716553288	29.50018140589569	55	127
29.3724716553288	29.50018140589569	43	127
29.3724716553288	29.50018140589569	55	127
29.523401360544216	29.720770975056688	52	127
29.523401360544216	29.720770975056688	64	127
29.523401360544216	29.720770975056688	64	127
29.743990929705216	29.941360544217687	55	127
29.743990929705216	29.941360544217687	43	127
29.743990929705216	29.941360544217687	55	127
29.964580498866212	30.428979591836736	65	127
29.964580498866212	30.428979591836736	55	127
29.964580498866212	30.428979591836736	65	127
29.964580498866212	30.428979591836736	62	127
30.93981859410431	31.055918367346937	71	127
30.93981859410431	31.13718820861678	65	127
31.055918367346937	31.241678004535146	67	127
31.241678004535146	31.555147392290248	64	127
31.241678004535146	31.427437641723355	72	127
31.427437641723355	31.624807256235826	67	127
31.624807256235826	31.764126984126985	74	127
31.624807256235826	31.857006802721088	62	127
31.764126984126985	31.926666666666666	67	127
31.926666666666666	32.26335600907029	60	127
31.926666666666666	32.1356462585034	76	127
32.1356462585034	32.36784580498866	67	127
32.36784580498866	32.530362811791385	79	127
32.36784580498866	33.07605442176871	59	127
32.530362811791385	32.65807256235828	78	127
32.65807256235828	32.86707482993197	77	127
32.86707482993197	33.07605442176871	74	127
33.07605442176871	33.55204081632653	60	127
33.07605442176871	33.30825396825397	76	127
33.30825396825397	33.55204081632653	72	127
33.55204081632653	33.85392290249433	64	127
33.55204081632653	33.749433106575964	76	127
33.749433106575964	33.92358276643991	75	127
33.92358276643991	34.15578231292517	80	127
33.92358276643991	34.03968253968254	74	127
34.03968253968254	34.23705215419501	71	127
34.23705215419501	34.43439909297052	72	127
34.23705215419501	34.53891156462585	81	127
34.43439909297052	34.585351473922906	69	127
34.585351473922906	34.794331065759636	62	127
34.585351473922906	34.898820861678004	62	127
34.794331065759636	34.968480725623586	61	127
34.968480725623586	35.16585034013605	69	127
34.968480725623586	35.16585034013605	60	127
34.968480725623586	35.29356009070295	78	127
35.16585034013605	35.398049886621315	57	127
35.16585034013605	35.398049886621315	72	127
35.398049886621315	35.54897959183673	59	127
35.398049886621315	35.59541950113379	79	127
35.398049886621315	35.6534693877551	71	127
35.54897959183673	35.6534693877551	55	127
35.6534693877551	35.75795918367347	57	127
35.6534693877551	35.83920634920635	57	127
35.6534693877551	35.96691609977324	69	127
35.83920634920635	36.05981859410431	56	127
36.05981859410431	36.21072562358277	76	127
36.05981859410431	36.19913832199546	69	127
36.05981859410431	36.35004535147392	85	127
36.05981859410431	36.21072562358277	55	127
36.21072562358277	36.44294784580499	79	127
36.21072562358277	36.44294784580499	52	127
36.44294784580499	36.86090702947846	78	127
36.44294784580499	36.768027210884355	86	127
36.44294784580499	36.6287074829932	54	127
36.44294784580499	36.547437641723356	69	127
36.6287074829932	36.86090702947846	50	127
36.86090702947846	38.300544217687076	57	127
36.86090702947846	38.300544217687076	42	127
36.86090702947846	38.55596371882086	62	127
36.86090702947846	38.300544217687076	60	127
38.300544217687076	38.614013605442175	59	127
38.300544217687076	38.614013605442175	55	127
38.300544217687076	38.614013605442175	43	127
38.55596371882086	38.70689342403628	64	127
38.79977324263039	38.93909297052154	66	127
39.00873015873016	39.12485260770975	67	127
39.18290249433107	39.27578231292517	69	127
39.333832199546485	39.42671201814059	71	127
39.51956916099773	39.64727891156463	72	127
39.51956916099773	39.78662131519275	52	127
39.51956916099773	39.78662131519275	55	127
39.51956916099773	39.78662131519275	67	127
39.74018140589569	39.86789115646258	74	127
39.96077097505669	40.100090702947846	76	127
40.19297052154195	40.29746031746032	78	127
40.367120181405895	40.401927437641724	79	127
40.436780045351476	40.50643990929705	81	127
40.59931972789116	40.72702947845805	74	127
40.59931972789116	40.83151927437642	83	127
40.59931972789116	40.83151927437642	79	127
40.83151927437642	41.05210884353742	84	127
40.83151927437642	41.05210884353742	81	127
41.05210884353742	41.203038548752836	74	127
41.05210884353742	41.29589569160998	85	127
41.05210884353742	41.29589569160998	82	127
41.29589569160998	41.353968253968254	86	127
41.29589569160998	41.353968253968254	83	127
41.353968253968254	41.516507936507935	81	127
41.353968253968254	41.42360544217687	74	127
41.353968253968254	41.516507936507935	84	127
41.516507936507935	41.737097505668935	81	127
41.516507936507935	41.737097505668935	78	127
41.737097505668935	41.79512471655329	79	127
41.737097505668935	41.79512471655329	67	127
42.31759637188209	42.5962358276644	47	127
42.31759637188209	42.5962358276644	55	127
42.31759637188209	42.5962358276644	62	127
42.31759637188209	42.549795918367344	67	127
42.549795918367344	42.73555555555556	74	127
42.85165532879819	43.09546485260771	74	127
42.85165532879819	43.14190476190476	64	127
42.85165532879819	43.14190476190476	55	127
42.85165532879819	43.14190476190476	48	127
43.09546485260771	43.199931972789116	72	127
43.29283446712018	43.51342403628118	72	127
43.51342403628118	43.55986394557823	71	127
43.64113378684807	43.85011337868481	71	127
43.64113378684807	43.89655328798186	50	127
43.64113378684807	43.89655328798186	54	127
43.64113378684807	43.89655328798186	60	127
43.85011337868481	43.9778231292517	69	127
44.08229024943311	44.39578231292517	52	127
44.08229024943311	44.39578231292517	55	127
44.08229024943311	44.39578231292517	59	127
44.08229024943311	44.34934240362812	69	127
44.34934240362812	44.48866213151928	67	127
44.523492063492064	44.639591836734695	67	127
44.639591836734695	44.755691609977326	74	127
44.77891156462585	45.05755102040816	47	127
44.77891156462585	45.05755102040816	59	127
44.77891156462585	44.99950113378685	74	127
44.77891156462585	45.05755102040816	62	127
44.99950113378685	45.15043083900227	72	127
45.19687074829932	45.4871201814059	59	127
45.19687074829932	45.4871201814059	64	127
45.19687074829932	45.42907029478458	72	127
45.19687074829932	45.4871201814059	48	127
45.42907029478458	45.58	71	127
45.61482993197279	45.66126984126984	71	127
45.66126984126984	45.81219954648526	69	127
45.91668934240363	46.18371882086168	50	127
45.91668934240363	46.18371882086168	54	127
45.91668934240363	46.18371882086168	60	127
45.91668934240363	46.125668934240366	69	127
46.125668934240366	46.276598639455784	67	127
46.369455782312926	46.822267573696145	67	127
46.369455782312926	46.822267573696145	59	127
46.369455782312926	46.822267573696145	55	127
46.369455782312926	46.822267573696145	43	127
47.25181405895692	47.37952380952381	54	127
47.25181405895692	47.37952380952381	66	127
47.25181405895692	47.37952380952381	66	127
47.37952380952381	47.588526077097505	67	127
47.37952380952381	47.588526077097505	55	127
47.37952380952381	47.588526077097505	67	127
47.588526077097505	47.751065759637186	56	127
47.588526077097505	47.751065759637186	68	127
47.588526077097505	47.751065759637186	68	127
47.751065759637186	47.96004535147392	69	127
47.751065759637186	47.96004535147392	69	127
47.751065759637186	47.96004535147392	57	127
47.96004535147392	48.076145124716554	58	127
47.96004535147392	48.076145124716554	70	127
47.96004535147392	48.076145124716554	70	127
48.076145124716554	48.27351473922902	57	127
48.076145124716554	48.27351473922902	69	127
48.076145124716554	48.27351473922902	69	127
48.27351473922902	48.470884353741496	55	127
48.27351473922902	48.470884353741496	67	127
48.27351473922902	48.470884353741496	67	127
48.470884353741496	48.64503401360544	64	127
48.470884353741496	48.64503401360544	64	127
48.470884353741496	48.64503401360544	52	127
48.64503401360544	48.784353741496595	62	127
48.64503401360544	48.784353741496595	50	127
48.64503401360544	48.784353741496595	62	127
49.004943310657595	49.0978231292517	62	127
49.004943310657595	49.0978231292517	62	127
49.004943310657595	49.0978231292517	50	127
49.37646258503401	49.48095238095238	50	127
49.37646258503401	49.48095238095238	62	127
49.37646258503401	49.48095238095238	62	127
49.79442176870748	49.93374149659864	67	127
49.79442176870748	49.93374149659864	55	127
49.79442176870748	49.93374149659864	67	127
50.17755102040816	50.28204081632653	67	127
50.17755102040816	50.28204081632653	67	127
50.17755102040816	50.28204081632653	55	127
50.6071201814059	50.67678004535147	67	127
50.6071201814059	50.67678004535147	67	127
50.6071201814059	50.67678004535147	55	127
50.978639455782314	51.141179138321995	58	127
50.978639455782314	52.09319727891157	58	127
50.978639455782314	52.09319727891157	58	127
50.978639455782314	52.09319727891157	46	127
51.61718820861678	51.860997732426306	72	127
51.860997732426306	52.09319727891157	74	127
52.09319727891157	52.789795918367346	62	127
52.09319727891157	52.31378684807256	75	127
52.09319727891157	53.18453514739229	46	127
52.09319727891157	53.18453514739229	74	127
52.31378684807256	52.53437641723356	76	127
52.53437641723356	52.7433560090703	77	127
52.7433560090703	52.98716553287982	78	127
52.98716553287982	53.35868480725624	64	127
52.98716553287982	53.230975056689346	79	127
53.230975056689346	53.45156462585034	80	127
53.45156462585034	53.602494331065756	45	127
53.45156462585034	53.602494331065756	74	127
53.45156462585034	53.602494331065756	81	127
53.45156462585034	53.602494331065756	65	127
53.96240362811791	54.03206349206349	57	127
53.96240362811791	54.03206349206349	81	127
53.96240362811791	54.03206349206349	74	127
53.96240362811791	54.03206349206349	65	127
54.32231292517007	54.357142857142854	65	127
54.32231292517007	54.357142857142854	57	127
54.32231292517007	54.357142857142854	74	127
54.32231292517007	54.357142857142854	81	127
54.46163265306122	54.49646258503402	57	127
54.46163265306122	54.49646258503402	64	127
54.46163265306122	54.49646258503402	73	127
54.46163265306122	54.49646258503402	67	127
54.78671201814059	54.8447619047619	64	127
54.78671201814059	54.8447619047619	57	127
54.78671201814059	54.8447619047619	67	127
54.78671201814059	54.8447619047619	73	127
55.16984126984127	55.27433106575964	57	127
55.16984126984127	55.36721088435374	54	127
55.16984126984127	55.27433106575964	64	127
55.16984126984127	55.27433106575964	67	127
55.16984126984127	55.27433106575964	73	127
55.36721088435374	55.47170068027211	55	127
55.47170068027211	56.48176870748299	72	127
55.47170068027211	56.14507936507937	66	127
55.47170068027211	55.70390022675737	56	127
55.47170068027211	56.48176870748299	62	127
55.70390022675737	55.91287981859411	57	127
55.91287981859411	56.09863945578231	58	127
56.09863945578231	56.30761904761905	57	127
56.30761904761905	56.51659863945578	54	127
56.30761904761905	56.51659863945578	69	127
56.51659863945578	56.73718820861678	50	127
56.51659863945578	56.73718820861678	66	127
56.73718820861678	57.097097505668934	67	127
56.73718820861678	57.097097505668934	60	127
56.73718820861678	57.2015873015873	72	127
56.73718820861678	57.097097505668934	55	127
57.2015873015873	57.317687074829934	71	127
57.44539682539683	57.63115646258503	52	127
57.44539682539683	57.82852607709751	67	127
57.63115646258503	57.82852607709751	53	127
57.82852607709751	58.04911564625851	54	127
57.82852607709751	58.73410430839002	60	127
57.82852607709751	58.43224489795919	64	127
57.82852607709751	58.73410430839002	70	127
58.04911564625851	58.21165532879819	55	127
58.21165532879819	58.37419501133787	57	127
58.37419501133787	58.59478458049887	55	127
58.59478458049887	58.792154195011335	52	127
58.59478458049887	58.792154195011335	67	127
58.792154195011335	59.059183673469384	48	127
58.792154195011335	59.059183673469384	64	127
59.059183673469384	59.47714285714286	65	127
59.059183673469384	59.558412698412695	70	127
59.059183673469384	59.47714285714286	53	127
59.059183673469384	59.47714285714286	60	127
59.558412698412695	59.82544217687075	69	127
59.97637188208617	60.115691609977326	77	127
60.115691609977326	60.162131519274375	79	127
60.162131519274375	60.30145124716553	80	127
60.162131519274375	60.91678004535147	65	127
60.162131519274375	60.91678004535147	72	127
60.30145124716553	60.48721088435374	81	127
60.48721088435374	60.68458049886621	82	127
60.68458049886621	60.91678004535147	81	127
60.91678004535147	61.33473922902494	70	127
60.91678004535147	61.160589569161	79	127
60.91678004535147	61.33473922902494	61	127
61.160589569161	61.33473922902494	76	127
61.33473922902494	61.95006802721088	62	127
61.33473922902494	61.4740589569161	76	127
61.33473922902494	61.95006802721088	69	127
61.4740589569161	61.601768707483	77	127
61.601768707483	61.77591836734694	79	127
61.77591836734694	61.95006802721088	77	127
61.95006802721088	62.14743764172336	76	127
61.95006802721088	62.344807256235825	64	127
61.95006802721088	62.344807256235825	67	127
62.14743764172336	62.344807256235825	73	127
62.344807256235825	62.681496598639455	65	127
62.344807256235825	62.47251700680272	73	127
62.344807256235825	63.111065759637185	69	127
62.47251700680272	62.681496598639455	74	127
62.681496598639455	62.92530612244898	76	127
62.681496598639455	63.02979591836735	62	127
62.681496598639455	63.111065759637185	53	127
62.92530612244898	63.111065759637185	74	127
63.111065759637185	63.32004535147392	72	127
63.111065759637185	63.32004535147392	57	127
63.111065759637185	63.43614512471655	62	127
63.111065759637185	63.505804988662135	54	127
63.32004535147392	63.505804988662135	69	127
63.32004535147392	63.505804988662135	60	127
63.505804988662135	64.44621315192744	67	127
63.505804988662135	63.668344671201815	61	127
63.505804988662135	63.79605442176871	59	127
63.505804988662135	63.79605442176871	55	127
63.668344671201815	63.888934240362815	62	127
63.888934240362815	64.10952380952381	64	127
63.888934240362815	64.22562358276645	43	127
64.10952380952381	64.28367346938775	62	127
64.28367346938775	64.49265306122449	62	127
64.28367346938775	64.49265306122449	60	127
64.49265306122449	64.73646258503402	57	127
64.49265306122449	64.73646258503402	63	127
64.73646258503402	65.00349206349206	59	127
64.73646258503402	65.5259410430839	67	127
64.73646258503402	64.88739229024944	64	127
64.88739229024944	65.06154195011338	65	127
65.06154195011338	65.27052154195012	67	127
65.06154195011338	65.37501133786849	47	127
65.27052154195012	65.37501133786849	65	127
65.37501133786849	65.57238095238095	64	127
65.37501133786849	65.81616780045351	48	127
65.57238095238095	65.81616780045351	60	127
65.81616780045351	66.26897959183674	59	127
65.81616780045351	66.26897959183674	43	127
65.81616780045351	66.26897959183674	67	127
65.81616780045351	66.26897959183674	62	127
66.26897959183674	66.501179138322	55	127
66.26897959183674	66.501179138322	79	127
66.66371882086167	66.98879818594105	79	127
66.66371882086167	66.84947845804989	71	127
66.66371882086167	66.84947845804989	74	127
66.84947845804989	67.09326530612245	72	127
66.84947845804989	67.09326530612245	75	127
67.09326530612245	67.33709750566894	76	127
67.09326530612245	68.33555555555556	79	127
67.09326530612245	67.33709750566894	73	127
67.33709750566894	67.37192743764173	74	127
67.33709750566894	67.37192743764173	77	127
67.37192743764173	67.5344671201814	79	127
67.37192743764173	67.5344671201814	76	127
67.37192743764173	67.69700680272109	59	127
67.5344671201814	67.69700680272109	77	127
67.5344671201814	67.69700680272109	74	127
67.69700680272109	67.87115646258503	76	127
67.69700680272109	67.87115646258503	72	127
67.69700680272109	68.1033560090703	60	127
67.87115646258503	68.1033560090703	69	127
67.87115646258503	68.1033560090703	72	127
68.1033560090703	68.4748752834467	55	127
68.1033560090703	68.4748752834467	74	127
68.1033560090703	68.4748752834467	71	127
68.33555555555556	68.5445351473923	78	127
68.5445351473923	68.75349206349206	79	127
68.75349206349206	68.90444444444445	77	127
68.90444444444445	69.09020408163265	76	127
68.90444444444445	69.09020408163265	72	127
69.09020408163265	69.26433106575963	74	127
69.09020408163265	69.26433106575963	77	127
69.26433106575963	69.42689342403628	78	127
69.26433106575963	69.42689342403628	75	127
69.42689342403628	69.64746031746031	76	127
69.42689342403628	69.64746031746031	79	127
69.64746031746031	69.81002267573696	77	127
69.64746031746031	69.81002267573696	81	127
69.81002267573696	69.87965986394558	79	127
69.81002267573696	69.87965986394558	76	127
69.87965986394558	70.1118820861678	66	127
69.87965986394558	70.1118820861678	77	127
69.87965986394558	70.1118820861678	74	127
70.1118820861678	70.34408163265306	67	127
70.1118820861678	70.34408163265306	74	127
70.1118820861678	70.34408163265306	71	127
70.34408163265306	70.4253514739229	72	127
70.34408163265306	70.50662131519275	68	127
70.50662131519275	70.70399092970521	69	127
70.70399092970521	70.80848072562358	64	127
70.70399092970521	70.80848072562358	72	127
70.70399092970521	70.8665306122449	70	127
70.8665306122449	71.06390022675737	69	127
71.06390022675737	71.20321995464853	72	127
71.06390022675737	71.20321995464853	64	127
71.06390022675737	71.2728798185941	67	127
71.06390022675737	71.2728798185941	47	127
71.2728798185941	71.48185941043084	64	127
71.2728798185941	71.48185941043084	48	127
71.48185941043084	71.57473922902494	57	127
71.48185941043084	71.57473922902494	77	127
71.48185941043084	71.57473922902494	62	127
71.48185941043084	71.64439909297052	49	127
71.64439909297052	71.841768707483	50	127
71.841768707483	72.01591836734694	52	127
71.841768707483	71.95786848072562	62	127
71.841768707483	71.95786848072562	57	127
71.841768707483	71.95786848072562	77	127
72.01591836734694	72.19006802721088	50	127
72.19006802721088	72.32938775510205	57	127
72.19006802721088	72.42226757369615	48	127
72.19006802721088	72.32938775510205	62	127
72.19006802721088	72.32938775510205	77	127
72.42226757369615	72.60802721088436	45	127
72.60802721088436	72.96793650793651	43	127
72.60802721088436	72.96793650793651	65	127
72.60802721088436	72.96793650793651	59	127
72.60802721088436	72.96793650793651	62	127
73.36267573696145	73.53682539682539	47	127
73.36267573696145	73.53682539682539	59	127
73.36267573696145	73.53682539682539	59	127
73.58324263038548	73.73419501133787	43	127
73.58324263038548	73.73419501133787	55	127
73.58324263038548	73.73419501133787	55	127
73.7574149659864	73.91995464852607	60	127
73.7574149659864	73.91995464852607	48	127
73.7574149659864	73.91995464852607	60	127
73.96639455782314	74.14054421768708	55	127
73.96639455782314	74.14054421768708	55	127
73.96639455782314	74.14054421768708	43	127
74.17537414965986	74.2914739229025	50	127
74.17537414965986	74.2914739229025	62	127
74.17537414965986	74.2914739229025	62	127
74.31469387755102	74.44240362811792	43	127
74.31469387755102	74.44240362811792	55	127
74.31469387755102	74.44240362811792	55	127
74.48884353741497	74.66299319727891	64	127
74.48884353741497	74.66299319727891	64	127
74.48884353741497	74.66299319727891	52	127
74.709410430839	74.90680272108844	43	127
74.709410430839	74.90680272108844	55	127
74.709410430839	74.90680272108844	55	127
74.95324263038549	75.33637188208617	62	127
74.95324263038549	75.33637188208617	55	127
74.95324263038549	75.33637188208617	65	127
74.95324263038549	75.33637188208617	65	127
75.88204081632654	76.0909977324263	65	127
75.88204081632654	76.06780045351474	71	127
76.06780045351474	76.1722902494331	67	127
76.1722902494331	76.55541950113378	64	127
76.1722902494331	76.41609977324264	72	127
76.41609977324264	76.6250566893424	67	127
76.6250566893424	76.741179138322	74	127
76.6250566893424	76.85725623582766	62	127
76.741179138322	76.96176870748299	67	127
76.96176870748299	77.24038548752834	60	127
76.96176870748299	77.10108843537415	76	127
77.10108843537415	77.32167800453514	67	127
77.32167800453514	77.54226757369615	79	127
77.32167800453514	78.1227664399093	59	127
77.54226757369615	77.72802721088435	78	127
77.72802721088435	77.91378684807256	77	127
77.91378684807256	78.1227664399093	74	127
78.1227664399093	78.54072562358277	60	127
78.1227664399093	78.30852607709751	76	127
78.30852607709751	78.54072562358277	72	127
78.54072562358277	78.80775510204082	60	127
78.54072562358277	78.69165532879819	72	127
78.69165532879819	78.88902494331066	71	127
78.88902494331066	79.07478458049887	70	127
78.88902494331066	79.20249433106576	76	127
79.07478458049887	79.26054421768707	67	127
79.26054421768707	79.42308390022676	69	127
79.26054421768707	79.56240362811792	77	127
79.42308390022676	79.6320634920635	65	127
79.6320634920635	79.87587301587301	69	127
79.6320634920635	80.0384126984127	69	127
79.87587301587301	80.10807256235827	68	127
80.10807256235827	80.30541950113378	85	127
80.10807256235827	80.29383219954649	67	127
80.10807256235827	80.29383219954649	76	127
80.29383219954649	80.38671201814059	64	127
80.29383219954649	80.38671201814059	79	127
80.38671201814059	80.45637188208617	66	127
80.38671201814059	80.58408163265307	86	127
80.38671201814059	80.66532879818594	78	127
80.45637188208617	80.66532879818594	62	127
80.66532879818594	80.90916099773243	55	127
80.66532879818594	81.04845804988662	67	127
80.66532879818594	81.04845804988662	55	127
80.90916099773243	81.14136054421769	54	127
81.14136054421769	81.38517006802721	53	127
81.14136054421769	81.48965986394558	67	127
81.14136054421769	81.48965986394558	83	127
81.38517006802721	81.59414965986394	50	127
81.59414965986394	81.79151927437641	52	127
81.59414965986394	81.9192290249433	67	127
81.59414965986394	81.9192290249433	84	127
81.79151927437641	82.01210884353742	48	127
82.01210884353742	83.04539682539682	60	127
82.01210884353742	83.04539682539682	62	127
82.01210884353742	83.04539682539682	57	127
82.01210884353742	83.04539682539682	41	127
83.44013605442177	83.80004535147393	60	127
83.44013605442177	83.80004535147393	57	127
83.44013605442177	83.80004535147393	42	127
83.44013605442177	83.63750566893424	62	127
83.67233560090703	83.84648526077098	64	127
83.89292517006803	84.00902494331066	66	127
84.07868480725624	84.20639455782313	67	127
84.24120181405895	84.32249433106576	69	127
84.4037641723356	84.47340136054422	71	127
84.56630385487529	84.97265306122449	64	127
84.56630385487529	84.97265306122449	60	127
84.56630385487529	84.97265306122449	43	127
84.56630385487529	84.728820861678	72	127
84.83333333333333	84.97265306122449	74	127
85.07714285714286	85.21646258503401	76	127
85.30934240362812	85.46027210884354	77	127
85.55315192743764	85.71569160997733	79	127
85.80857142857143	85.88984126984127	76	127
85.80857142857143	85.88984126984127	79	127
85.80857142857143	85.94789115646259	67	127
85.88984126984127	86.04077097505669	78	127
85.88984126984127	85.98272108843537	75	127
86.04077097505669	86.27297052154195	67	127
86.04077097505669	86.15687074829933	77	127
86.04077097505669	86.15687074829933	74	127
86.15687074829933	86.319410430839	72	127
86.15687074829933	86.33102040816327	76	127
86.33102040816327	86.51675736961451	77	127
86.33102040816327	86.48195011337869	74	127
86.33102040816327	86.58643990929706	67	127
86.51675736961451	86.67931972789115	74	127
86.51675736961451	86.6328798185941	71	127
86.67931972789115	86.91151927437642	72	127
86.67931972789115	86.91151927437642	60	127
87.50362811791383	87.67777777777778	72	127
87.50362811791383	87.81709750566894	60	127
87.50362811791383	87.81709750566894	52	127
87.50362811791383	87.81709750566894	67	127
87.67777777777778	87.81709750566894	79	127
87.90997732426304	88.22344671201814	53	127
87.90997732426304	88.11895691609978	79	127
87.90997732426304	88.22344671201814	69	127
87.90997732426304	88.22344671201814	60	127
88.11895691609978	88.22344671201814	77	127
88.31632653061224	88.46725623582766	77	127
88.46725623582766	88.56013605442178	76	127
88.6414058956916	88.96648526077098	65	127
88.6414058956916	88.96648526077098	59	127
88.6414058956916	88.96648526077098	55	127
88.6414058956916	88.85038548752834	76	127
88.85038548752834	88.96648526077098	74	127
89.05936507936508	89.37283446712019	57	127
89.05936507936508	89.24512471655329	74	127
89.05936507936508	89.37283446712019	64	127
89.05936507936508	89.37283446712019	60	127
89.24512471655329	89.37283446712019	72	127
89.45410430839003	89.63986394557823	72	127
89.63986394557823	89.70952380952382	79	127
89.75596371882087	89.98816326530613	79	127
89.75596371882087	90.12748299319728	67	127
89.75596371882087	90.12748299319728	52	127
89.75596371882087	90.12748299319728	60	127
89.98816326530613	90.12748299319728	77	127
90.16231292517007	90.33646258503401	77	127
90.16231292517007	90.44095238095238	69	127
90.16231292517007	90.44095238095238	60	127
90.16231292517007	90.44095238095238	53	127
90.33646258503401	90.44095238095238	76	127
90.52222222222223	90.66154195011337	76	127
90.66154195011337	90.75442176870749	74	127
90.82408163265306	91.06786848072562	74	127
90.82408163265306	91.20721088435374	55	127
90.82408163265306	91.20721088435374	59	127
90.82408163265306	91.20721088435374	65	127
91.06786848072562	91.20721088435374	72	127
91.30009070294784	91.61356009070295	60	127
91.30009070294784	91.9734693877551	72	127
91.30009070294784	91.61356009070295	48	127
91.30009070294784	91.61356009070295	64	127
92.101179138322	92.31015873015873	60	127
92.101179138322	92.42625850340136	79	127
92.101179138322	92.42625850340136	60	127
92.101179138322	92.42625850340136	40	127
92.31015873015873	92.42625850340136	67	127
92.49591836734695	92.89065759637188	57	127
92.49591836734695	92.73972789115646	67	127
92.49591836734695	93.20412698412699	81	127
92.49591836734695	92.89065759637188	41	127
92.73972789115646	92.89065759637188	65	127
92.99514739229025	93.19251700680272	65	127
93.19251700680272	93.22734693877551	64	127
93.27378684807256	93.56403628117914	83	127
93.27378684807256	93.56403628117914	43	127
93.27378684807256	93.56403628117914	53	127
93.27378684807256	93.45954648526077	64	127
93.45954648526077	93.56403628117914	62	127
93.61047619047619	93.81945578231293	62	127
93.61047619047619	93.95877551020408	52	127
93.61047619047619	93.95877551020408	45	127
93.61047619047619	94.26061224489796	84	127
93.81945578231293	93.95877551020408	60	127
94.06326530612245	94.21419501133786	60	127
94.21419501133786	94.3302947845805	67	127
94.4231746031746	94.62052154195011	58	127
94.4231746031746	94.73664399092971	79	127
94.4231746031746	94.73664399092971	40	127
94.4231746031746	94.62052154195011	67	127
94.62052154195011	94.73664399092971	57	127
94.62052154195011	94.73664399092971	65	127
94.79469387755103	95.02689342403629	57	127
94.79469387755103	95.10816326530612	81	127
94.79469387755103	95.10816326530612	41	127
94.79469387755103	95.02689342403629	65	127
95.02689342403629	95.10816326530612	55	127
95.02689342403629	95.10816326530612	64	127
95.16621315192744	95.3635827664399	55	127
95.16621315192744	95.3635827664399	64	127
95.16621315192744	95.46807256235827	81	127
95.16621315192744	95.46807256235827	38	127
95.3635827664399	95.46807256235827	53	127
95.3635827664399	95.46807256235827	62	127
95.56095238095239	95.61900226757369	84	127
95.56095238095239	95.78154195011338	62	127
95.56095238095239	95.92086167800454	43	127
95.56095238095239	95.78154195011338	53	127
95.63061224489796	95.68866213151928	83	127
95.70027210884354	95.75832199546485	84	127
95.78154195011338	95.92086167800454	52	127
95.78154195011338	95.92086167800454	60	127
95.78154195011338	95.8395918367347	83	127
95.86281179138322	95.92086167800454	81	127
95.92086167800454	95.97891156462585	83	127
95.99052154195012	96.38526077097505	36	127
95.99052154195012	96.38526077097505	52	127
95.99052154195012	96.38526077097505	60	127
95.99052154195012	96.38526077097505	84	127
96.95414965986394	97.12829931972789	66	127
96.95414965986394	97.12829931972789	54	127
96.95414965986394	97.12829931972789	66	127
97.12829931972789	97.26761904761905	55	127
97.12829931972789	97.26761904761905	67	127
97.12829931972789	97.26761904761905	67	127
97.26761904761905	97.45337868480726	56	127
97.26761904761905	97.45337868480726	68	127
97.26761904761905	97.45337868480726	68	127
97.45337868480726	97.70879818594105	69	127
97.45337868480726	97.70879818594105	69	127
97.45337868480726	97.70879818594105	57	127
97.70879818594105	97.91777777777777	58	127
97.70879818594105	97.91777777777777	70	127
97.70879818594105	97.91777777777777	70	127
97.91777777777777	98.02226757369614	69	127
97.91777777777777	98.02226757369614	69	127
97.91777777777777	98.02226757369614	57	127
98.02226757369614	98.1964172335601	55	127
98.02226757369614	98.1964172335601	67	127
98.02226757369614	98.1964172335601	67	127
98.1964172335601	98.42861678004535	52	127
98.1964172335601	98.42861678004535	64	127
98.1964172335601	98.42861678004535	64	127
98.42861678004535	98.53310657596371	50	127
98.42861678004535	98.53310657596371	62	127
98.42861678004535	98.53310657596371	62	127
98.70725623582767	98.8233560090703	50	127
98.70725623582767	98.8233560090703	62	127
98.70725623582767	98.8233560090703	62	127
99.1368253968254	99.2645351473923	50	127
99.1368253968254	99.2645351473923	62	127
99.1368253968254	99.2645351473923	62	127
99.58961451247166	99.71732426303855	67	127
99.58961451247166	99.71732426303855	67	127
99.58961451247166	99.71732426303855	55	127
100.04240362811791	100.15850340136055	67	127
100.04240362811791	100.15850340136055	67	127
100.04240362811791	100.15850340136055	55	127
100.35587301587302	100.46036281179138	67	127
100.35587301587302	100.46036281179138	55	127
100.35587301587302	100.46036281179138	67	127
100.71578231292517	101.92321995464853	58	127
100.71578231292517	101.07569160997733	58	127
100.71578231292517	101.92321995464853	58	127
100.71578231292517	101.92321995464853	46	127
101.57492063492063	101.74907029478459	72	127
101.74907029478459	101.92321995464853	74	127
101.92321995464853	102.97972789115646	46	127
101.92321995464853	102.97972789115646	74	127
101.92321995464853	102.60820861678005	62	127
101.92321995464853	102.15541950113379	75	127
102.15541950113379	102.35278911564626	76	127
102.35278911564626	102.57337868480725	77	127
102.57337868480725	102.79396825396826	78	127
102.79396825396826	103.02616780045352	79	127
102.79396825396826	103.16548752834467	64	127
103.02616780045352	103.26997732426304	80	127
103.26997732426304	103.4092970521542	65	127
103.26997732426304	103.4092970521542	74	127
103.26997732426304	103.4092970521542	81	127
103.26997732426304	103.4092970521542	45	127
103.75759637188209	103.8156462585034	65	127
103.75759637188209	103.8156462585034	57	127
103.75759637188209	103.8156462585034	74	127
103.75759637188209	103.8156462585034	81	127
104.19877551020409	104.25682539682539	73	127
104.19877551020409	104.25682539682539	67	127
104.19877551020409	104.25682539682539	57	127
104.19877551020409	104.25682539682539	64	127
104.55868480725624	104.69800453514739	67	127
104.55868480725624	104.69800453514739	73	127
104.55868480725624	104.69800453514739	64	127
104.55868480725624	104.69800453514739	57	127
104.96503401360545	105.11596371882086	54	127
104.96503401360545	105.04630385487529	64	127
104.96503401360545	105.04630385487529	57	127
104.96503401360545	105.04630385487529	73	127
104.96503401360545	105.04630385487529	67	127
105.11596371882086	105.3249433106576	55	127
105.3249433106576	106.30018140589569	72	127
105.3249433106576	106.30018140589569	62	127
105.3249433106576	105.9867120181406	66	127
105.3249433106576	105.5455328798186	56	127
105.5455328798186	105.70807256235828	57	127
105.70807256235828	105.94027210884354	58	127
105.94027210884354	106.10281179138322	57	127
106.10281179138322	106.34662131519275	69	127
106.10281179138322	106.34662131519275	54	127
106.34662131519275	106.59043083900227	50	127
106.34662131519275	106.59043083900227	66	127
106.59043083900227	107.06643990929705	72	127
106.59043083900227	106.97356009070295	60	127
106.59043083900227	106.97356009070295	55	127
106.59043083900227	106.97356009070295	67	127
107.06643990929705	107.11287981859411	71	127
107.25219954648526	107.57727891156462	67	127
107.25219954648526	107.40312925170068	52	127
107.40312925170068	107.57727891156462	53	127
107.57727891156462	108.16938775510204	64	127
107.57727891156462	108.50607709750567	70	127
107.57727891156462	108.50607709750567	60	127
107.57727891156462	107.76303854875283	54	127
107.76303854875283	107.9604081632653	55	127
107.9604081632653	108.12294784580499	57	127
108.12294784580499	108.34353741496598	55	127
108.34353741496598	108.55251700680272	67	127
108.34353741496598	108.55251700680272	52	127
108.55251700680272	108.79632653061225	64	127
108.55251700680272	108.79632653061225	48	127
108.79632653061225	109.21428571428571	65	127
108.79632653061225	109.31877551020408	70	127
108.79632653061225	109.21428571428571	53	127
108.79632653061225	109.21428571428571	60	127
109.31877551020408	109.59741496598639	69	127
109.7831746031746	109.94571428571429	77	127
109.94571428571429	109.99215419501134	79	127
109.99215419501134	110.68875283446712	72	127
109.99215419501134	110.68875283446712	65	127
109.99215419501134	110.15469387755103	80	127
110.15469387755103	110.36367346938775	81	127
110.36367346938775	110.44494331065759	82	127
110.44494331065759	110.68875283446712	81	127
110.68875283446712	111.09510204081633	70	127
110.68875283446712	110.93256235827664	79	127
110.68875283446712	111.09510204081633	61	127
110.93256235827664	111.09510204081633	76	127
111.09510204081633	111.75687074829932	69	127
111.09510204081633	111.28086167800454	76	127
111.09510204081633	111.75687074829932	62	127
111.28086167800454	111.48984126984126	77	127
111.48984126984126	111.65238095238095	79	127
111.65238095238095	111.75687074829932	77	127
111.75687074829932	112.15160997732427	64	127
111.75687074829932	111.96585034013606	76	127
111.75687074829932	112.15160997732427	67	127
111.96585034013606	112.15160997732427	73	127
112.15160997732427	112.47668934240363	65	127
112.15160997732427	112.87142857142857	69	127
112.15160997732427	112.27931972789116	73	127
112.27931972789116	112.47668934240363	74	127
112.47668934240363	112.62761904761905	76	127
112.47668934240363	112.87142857142857	53	127
112.47668934240363	112.7669387755102	62	127
112.62761904761905	112.87142857142857	74	127
112.87142857142857	113.31260770975057	54	127
112.87142857142857	113.09201814058957	57	127
112.87142857142857	113.09201814058957	72	127
112.87142857142857	113.23133786848072	62	127
113.09201814058957	113.31260770975057	69	127
113.09201814058957	113.31260770975057	60	127
113.31260770975057	113.5215873015873	61	127
113.31260770975057	114.20657596371882	67	127
113.31260770975057	113.6492970521542	55	127
113.31260770975057	113.6492970521542	59	127
113.5215873015873	113.71895691609977	62	127
113.71895691609977	113.92793650793651	64	127
113.71895691609977	114.04403628117913	43	127
113.92793650793651	114.0556462585034	62	127
114.0556462585034	114.24140589569161	60	127
114.0556462585034	114.24140589569161	62	127
114.24140589569161	114.41555555555556	63	127
114.24140589569161	114.41555555555556	57	127
114.41555555555556	115.36757369614513	67	127
114.41555555555556	114.63614512471655	64	127
114.41555555555556	114.75224489795919	59	127
114.63614512471655	114.83351473922903	65	127
114.83351473922903	115.23986394557824	47	127
114.83351473922903	115.0308843537415	67	127
115.0308843537415	115.23986394557824	65	127
115.23986394557824	115.62299319727892	48	127
115.23986394557824	115.40240362811791	64	127
115.40240362811791	115.62299319727892	60	127
115.62299319727892	116.02934240362812	62	127
115.62299319727892	116.02934240362812	67	127
115.62299319727892	116.02934240362812	43	127
115.62299319727892	116.02934240362812	59	127
116.02934240362812	116.20349206349206	55	127
116.02934240362812	116.20349206349206	79	127
116.43569160997733	116.60984126984127	74	127
116.43569160997733	116.60984126984127	71	127
116.43569160997733	116.70272108843537	79	127
116.60984126984127	116.77238095238096	75	127
116.60984126984127	116.77238095238096	72	127
116.77238095238096	118.07269841269841	79	127
116.77238095238096	116.95814058956915	76	127
116.77238095238096	116.95814058956915	73	127
116.95814058956915	117.039410430839	77	127
116.95814058956915	117.039410430839	74	127
117.039410430839	117.45736961451247	59	127
117.039410430839	117.24839002267574	76	127
117.039410430839	117.24839002267574	79	127
117.24839002267574	117.45736961451247	74	127
117.24839002267574	117.45736961451247	77	127
117.45736961451247	117.59668934240362	76	127
117.45736961451247	117.81727891156463	60	127
117.45736961451247	117.59668934240362	72	127
117.59668934240362	117.81727891156463	72	127
117.59668934240362	117.81727891156463	69	127
117.81727891156463	118.20040816326531	74	127
117.81727891156463	118.20040816326531	71	127
117.81727891156463	118.20040816326531	55	127
118.07269841269841	118.29328798185941	78	127
118.29328798185941	118.4209977324263	79	127
118.4209977324263	118.59514739229024	77	127
118.59514739229024	118.78090702947846	72	127
118.59514739229024	118.78090702947846	76	127
118.78090702947846	119.00149659863946	77	127
118.78090702947846	119.00149659863946	74	127
119.00149659863946	119.1756462585034	75	127
119.00149659863946	119.1756462585034	78	127
119.1756462585034	119.33818594104308	76	127
119.1756462585034	119.33818594104308	79	127
119.33818594104308	119.52394557823129	77	127
119.33818594104308	119.52394557823129	81	127
119.52394557823129	119.69809523809523	76	127
119.52394557823129	119.69809523809523	79	127
119.69809523809523	119.91868480725624	66	127
119.69809523809523	119.91868480725624	77	127
119.69809523809523	119.91868480725624	74	127
119.91868480725624	120.10444444444444	74	127
119.91868480725624	120.10444444444444	71	127
119.91868480725624	120.10444444444444	67	127
120.10444444444444	120.26698412698413	68	127
120.10444444444444	120.19732426303855	72	127
120.26698412698413	120.42952380952381	69	127
120.42952380952381	120.61528344671201	70	127
120.42952380952381	120.53401360544218	64	127
120.42952380952381	120.53401360544218	72	127
120.61528344671201	120.8126530612245	69	127
120.8126530612245	121.02163265306122	47	127
120.8126530612245	121.02163265306122	67	127
120.8126530612245	120.94036281179139	64	127
120.8126530612245	120.94036281179139	72	127
121.02163265306122	121.20739229024943	64	127
121.02163265306122	121.20739229024943	48	127
121.20739229024943	121.32349206349207	77	127
121.20739229024943	121.36993197278912	49	127
121.20739229024943	121.32349206349207	62	127
121.20739229024943	121.32349206349207	57	127
121.36993197278912	121.59052154195011	50	127
121.59052154195011	121.67179138321995	57	127
121.59052154195011	121.67179138321995	77	127
121.59052154195011	121.69501133786848	52	127
121.59052154195011	121.67179138321995	62	127
121.69501133786848	121.90399092970522	50	127
121.90399092970522	122.00848072562358	77	127
121.90399092970522	122.10136054421768	48	127
121.90399092970522	122.00848072562358	62	127
121.90399092970522	122.00848072562358	57	127
122.10136054421768	122.29873015873015	45	127
122.29873015873015	122.6586394557823	43	127
122.29873015873015	122.6586394557823	62	127
122.29873015873015	122.6586394557823	59	127
122.29873015873015	122.6586394557823	65	127
123.0998185941043	123.262358276644	59	127
123.0998185941043	123.262358276644	47	127
123.0998185941043	123.262358276644	59	127
123.32040816326531	123.48294784580499	43	127
123.32040816326531	123.48294784580499	55	127
123.32040816326531	123.48294784580499	55	127
123.52938775510204	123.6687074829932	48	127
123.52938775510204	123.6687074829932	60	127
123.52938775510204	123.6687074829932	60	127
123.69192743764172	123.78480725623582	55	127
123.69192743764172	123.78480725623582	43	127
123.69192743764172	123.78480725623582	55	127
123.84285714285714	124.01700680272108	62	127
123.84285714285714	124.01700680272108	50	127
123.84285714285714	124.01700680272108	62	127
124.06344671201813	124.19115646258503	43	127
124.06344671201813	124.19115646258503	55	127
124.06344671201813	124.19115646258503	55	127
124.22598639455782	124.40013605442176	52	127
124.22598639455782	124.40013605442176	64	127
124.22598639455782	124.40013605442176	64	127
124.43496598639456	124.62072562358277	43	127
124.43496598639456	124.62072562358277	55	127
124.43496598639456	124.62072562358277	55	127
124.65555555555555	125.09673469387755	55	127
124.65555555555555	125.09673469387755	65	127
124.65555555555555	125.09673469387755	62	127
124.65555555555555	125.09673469387755	65	127
125.64240362811792	125.96748299319728	65	127
125.64240362811792	125.83977324263039	71	127
125.83977324263039	126.00231292517007	67	127
126.00231292517007	126.26934240362812	64	127
126.00231292517007	126.16485260770975	72	127
126.16485260770975	126.37383219954648	67	127
126.37383219954648	126.6524716553288	62	127
126.37383219954648	126.51315192743765	74	127
126.51315192743765	126.74535147392291	67	127
126.74535147392291	126.90789115646258	76	127
126.74535147392291	127.0007709750567	60	127
126.90789115646258	127.08204081632653	67	127
127.08204081632653	127.89473922902495	59	127
127.08204081632653	127.31424036281179	79	127
127.31424036281179	127.52321995464852	78	127
127.52321995464852	127.66253968253969	77	127
127.66253968253969	127.89473922902495	74	127
127.89473922902495	128.35913832199546	60	127
127.89473922902495	128.1269387755102	76	127
128.1269387755102	128.35913832199546	72	127
128.35913832199546	128.48684807256237	72	127
128.35913832199546	128.5681179138322	60	127
128.48684807256237	128.67260770975057	71	127
128.67260770975057	128.93963718820862	76	127
128.67260770975057	128.8815873015873	70	127
128.8815873015873	128.99768707482994	67	127
128.99768707482994	129.2879365079365	77	127
128.99768707482994	129.16022675736963	69	127
129.16022675736963	129.34598639455783	65	127
129.34598639455783	129.5433560090703	69	127
129.34598639455783	129.65945578231293	69	127
129.5433560090703	129.7755328798186	68	127
129.7755328798186	130.14707482993197	85	127
129.7755328798186	130.00775510204082	67	127
129.7755328798186	130.00775510204082	76	127
130.00775510204082	130.23993197278912	79	127
130.00775510204082	130.23993197278912	64	127
130.23993197278912	130.2631746031746	86	127
130.23993197278912	130.2631746031746	66	127
130.23993197278912	130.3560544217687	78	127
130.2631746031746	130.3560544217687	62	127
130.3560544217687	130.59986394557822	55	127
130.3560544217687	130.7507709750567	67	127
130.3560544217687	130.7507709750567	55	127
130.59986394557822	130.855283446712	54	127
130.855283446712	131.08748299319728	53	127
130.855283446712	131.22680272108843	83	127
130.855283446712	131.22680272108843	67	127
131.08748299319728	131.31968253968253	50	127
131.31968253968253	131.6795918367347	67	127
131.31968253968253	131.5518820861678	52	127
131.31968253968253	131.6795918367347	84	127
131.5518820861678	131.77244897959184	48	127
131.77244897959184	132.81736961451247	41	127
131.77244897959184	132.81736961451247	57	127
131.77244897959184	132.81736961451247	60	127
131.77244897959184	132.81736961451247	62	127
133.16566893424036	133.56038548752835	57	127
133.16566893424036	133.56038548752835	60	127
133.16566893424036	133.36303854875283	62	127
133.16566893424036	133.56038548752835	42	127
133.40945578231293	133.60684807256237	64	127
133.65328798185942	133.72294784580498	66	127
133.81580498866214	133.943537414966	67	127
134.0364172335601	134.14090702947846	69	127
134.21056689342404	134.29183673469387	71	127
134.39632653061224	134.77945578231294	64	127
134.39632653061224	134.55886621315193	72	127
134.39632653061224	134.77945578231294	43	127
134.39632653061224	134.77945578231294	60	127
134.65174603174603	134.77945578231294	74	127
134.86072562358277	134.98843537414967	76	127
135.08131519274377	135.19739229024944	77	127
135.2902947845805	135.34832199546486	79	127
135.45281179138323	135.75469387755103	67	127
135.45281179138323	135.6385941043084	76	127
135.45281179138323	135.68503401360545	79	127
135.68503401360545	135.8243537414966	78	127
135.68503401360545	135.77791383219954	75	127
135.8243537414966	135.99850340136055	74	127
135.8243537414966	136.03333333333333	77	127
135.8243537414966	136.12621315192743	67	127
136.03333333333333	136.19587301587302	76	127
136.03333333333333	136.17265306122448	72	127
136.19587301587302	136.3584126984127	77	127
136.19587301587302	136.33519274376417	74	127
136.19587301587302	136.46290249433108	67	127
136.3584126984127	136.50934240362812	71	127
136.3584126984127	136.56739229024944	74	127
136.56739229024944	136.81120181405896	72	127
136.56739229024944	136.81120181405896	60	127
137.31043083900227	137.62390022675737	60	127
137.31043083900227	137.50780045351473	72	127
137.31043083900227	137.62390022675737	67	127
137.31043083900227	137.62390022675737	52	127
137.50780045351473	137.62390022675737	79	127
137.71678004535147	138.06507936507936	53	127
137.71678004535147	138.06507936507936	69	127
137.71678004535147	137.91414965986394	79	127
137.71678004535147	138.06507936507936	60	127
137.91414965986394	138.06507936507936	77	127
138.09990929705216	138.26242630385488	77	127
138.26242630385488	138.37854875283446	76	127
138.45981859410432	138.78489795918367	55	127
138.45981859410432	138.78489795918367	59	127
138.45981859410432	138.78489795918367	65	127
138.45981859410432	138.6804081632653	76	127
138.6804081632653	138.78489795918367	74	127
138.88938775510204	139.20285714285714	60	127
138.88938775510204	139.20285714285714	57	127
138.88938775510204	139.07514739229026	74	127
138.88938775510204	139.20285714285714	64	127
139.07514739229026	139.20285714285714	72	127
139.28410430839003	139.51632653061225	72	127
139.51632653061225	139.59759637188208	79	127
139.63242630385488	139.92267573696145	52	127
139.63242630385488	139.85301587301586	79	127
139.63242630385488	139.92267573696145	67	127
139.63242630385488	139.92267573696145	60	127
139.85301587301586	139.92267573696145	77	127
140.01555555555555	140.1897052154195	77	127
140.01555555555555	140.32902494331066	69	127
140.01555555555555	140.32902494331066	60	127
140.01555555555555	140.32902494331066	53	127
140.1897052154195	140.32902494331066	76	127
140.39868480725625	140.58444444444444	76	127
140.58444444444444	140.65410430839003	74	127
140.70054421768708	141.06045351473924	65	127
140.70054421768708	140.92111111111112	74	127
140.70054421768708	141.06045351473924	55	127
140.70054421768708	141.06045351473924	59	127
140.92111111111112	141.06045351473924	72	127
141.1649433106576	141.74544217687074	72	127
141.1649433106576	141.46680272108844	48	127
141.1649433106576	141.46680272108844	60	127
141.1649433106576	141.46680272108844	64	127
141.88476190476192	142.24467120181407	60	127
141.88476190476192	142.11696145124716	60	127
141.88476190476192	142.24467120181407	79	127
141.88476190476192	142.24467120181407	40	127
142.11696145124716	142.24467120181407	67	127
142.34916099773244	142.94126984126984	81	127
142.34916099773244	142.5581179138322	67	127
142.34916099773244	142.70904761904762	57	127
142.34916099773244	142.70904761904762	41	127
142.5581179138322	142.70904761904762	65	127
142.8019501133787	142.92965986394557	65	127
142.92965986394557	143.01092970521543	64	127
143.080589569161	143.38244897959183	83	127
143.080589569161	143.38244897959183	53	127
143.080589569161	143.38244897959183	43	127
143.080589569161	143.28956916099773	64	127
143.28956916099773	143.38244897959183	62	127
143.45210884353742	143.64947845804988	62	127
143.45210884353742	144.16031746031746	84	127
143.45210884353742	143.8004081632653	45	127
143.45210884353742	143.8004081632653	52	127
143.64947845804988	143.8004081632653	60	127
143.8932879818594	144.1138775510204	60	127
144.1138775510204	144.183537414966	67	127
144.26480725623583	144.40412698412698	67	127
144.26480725623583	144.40412698412698	58	127
144.26480725623583	144.5550566893424	79	127
144.26480725623583	144.5550566893424	40	127
144.40412698412698	144.5550566893424	65	127
144.40412698412698	144.5550566893424	57	127
144.63632653061225	145.01945578231292	41	127
144.63632653061225	145.01945578231292	81	127
144.63632653061225	144.8685260770975	57	127
144.63632653061225	144.8685260770975	65	127
144.8685260770975	145.01945578231292	55	127
144.8685260770975	145.01945578231292	64	127
145.11231292517007	145.36773242630386	64	127
145.11231292517007	145.50707482993198	38	127
145.11231292517007	145.50707482993198	81	127
145.11231292517007	145.36773242630386	55	127
145.36773242630386	145.50707482993198	53	127
145.36773242630386	145.50707482993198	62	127
145.5883446712018	146.07596371882087	43	127
145.5883446712018	145.6580045351474	84	127
145.5883446712018	145.85537414965987	53	127
145.5883446712018	145.85537414965987	62	127
145.66961451247167	145.7508843537415	83	127
145.76249433106577	145.8437641723356	84	127
145.85537414965987	145.9830612244898	83	127
145.85537414965987	146.07596371882087	60	127
145.85537414965987	146.07596371882087	52	127
145.99469387755101	146.07596371882087	81	127
146.08755102040817	146.14562358276643	83	127
146.16884353741497	146.59839002267574	36	127
146.16884353741497	146.59839002267574	52	127
146.16884353741497	146.59839002267574	60	127
146.16884353741497	146.59839002267574	84	127
147.6317006802721	148.200589569161	67	127
148.200589569161	148.74625850340135	72	127
148.200589569161	148.4443990929705	67	127
148.200589569161	148.4443990929705	63	127
148.5140589569161	148.6998185941043	63	127
148.5140589569161	148.6998185941043	60	127
148.74625850340135	149.09455782312926	48	127
148.74625850340135	148.87396825396826	63	127
148.74625850340135	148.87396825396826	67	127
148.96684807256236	149.09455782312926	63	127
148.96684807256236	149.09455782312926	67	127
149.16421768707482	149.29192743764173	63	127
149.16421768707482	149.57056689342403	75	127
149.16421768707482	149.29192743764173	67	127
149.34997732426305	149.4892970521542	63	127
149.34997732426305	149.4892970521542	67	127
149.57056689342403	149.69827664399094	63	127
149.57056689342403	149.8143537414966	79	127
149.57056689342403	149.69827664399094	67	127
149.69827664399094	149.76791383219955	63	127
149.69827664399094	149.76791383219955	60	127
149.8143537414966	149.94208616780045	67	127
149.8143537414966	150.1510657596372	48	127
149.8143537414966	149.94208616780045	63	127
150.03496598639455	150.1510657596372	63	127
150.03496598639455	150.1510657596372	67	127
150.2439455782313	150.34843537414966	63	127
150.2439455782313	150.34843537414966	67	127
150.2439455782313	150.59224489795918	84	127
150.42968253968255	150.5574149659864	63	127
150.42968253968255	150.5574149659864	67	127
150.59224489795918	150.75478458049886	63	127
150.59224489795918	151.4049433106576	87	127
150.59224489795918	150.75478458049886	67	127
150.8012244897959	150.98698412698414	60	127
150.8012244897959	150.98698412698414	63	127
151.02181405895692	151.1495238095238	67	127
151.02181405895692	151.32367346938776	48	127
151.02181405895692	151.1495238095238	63	127
151.20757369614512	151.32367346938776	67	127
151.20757369614512	151.32367346938776	63	127
151.4049433106576	151.5326530612245	67	127
151.4049433106576	151.5326530612245	63	127
151.4049433106576	151.6255328798186	86	127
151.4049433106576	151.74163265306123	36	127
151.6255328798186	151.74163265306123	63	127
151.6255328798186	151.83451247165533	84	127
151.83451247165533	152.20603174603175	43	127
151.83451247165533	152.0086621315193	67	127
151.83451247165533	152.0086621315193	62	127
151.83451247165533	152.20603174603175	83	127
152.05510204081634	152.24086167800453	62	127
152.05510204081634	152.24086167800453	59	127
152.28730158730158	152.4150113378685	62	127
152.28730158730158	152.63560090702947	55	127
152.28730158730158	152.4150113378685	67	127
152.49628117913832	152.63560090702947	67	127
152.49628117913832	152.63560090702947	62	127
152.72845804988663	152.90263038548753	86	127
152.72845804988663	152.85619047619048	67	127
152.72845804988663	152.85619047619048	62	127
152.90263038548753	153.07678004535148	62	127
152.90263038548753	153.07678004535148	71	127
152.90263038548753	153.34378684807257	77	127
153.12321995464853	153.29736961451246	59	127
153.12321995464853	153.29736961451246	67	127
153.34378684807257	153.4831292517007	62	127
153.34378684807257	153.70369614512472	55	127
153.34378684807257	153.4831292517007	71	127
153.56439909297052	153.70369614512472	62	127
153.56439909297052	153.70369614512472	71	127
153.78498866213152	154.09845804988663	80	127
153.78498866213152	153.85462585034014	71	127
153.78498866213152	153.85462585034014	62	127
153.87786848072562	154.00555555555556	62	127
153.87786848072562	154.00555555555556	71	127
154.09845804988663	154.49319727891157	71	127
154.09845804988663	154.26097505668935	62	127
154.09845804988663	154.26097505668935	65	127
154.30743764172337	154.4583673469388	55	127
154.30743764172337	154.4583673469388	62	127
154.49319727891157	154.6092970521542	62	127
154.49319727891157	154.6092970521542	65	127
154.49319727891157	154.81827664399094	43	127
154.69056689342403	154.81827664399094	62	127
154.69056689342403	154.81827664399094	65	127
154.8879365079365	155.32911564625851	59	127
154.8879365079365	155.0156462585034	65	127
154.8879365079365	155.0156462585034	62	127
155.09691609977324	155.22462585034015	65	127
155.09691609977324	155.22462585034015	62	127
155.32911564625851	156.10696145124717	68	127
155.32911564625851	155.50326530612244	59	127
155.32911564625851	155.50326530612244	62	127
155.50326530612244	155.66580498866213	59	127
155.50326530612244	155.66580498866213	55	127
155.7006349206349	155.81673469387755	62	127
155.7006349206349	156.0257142857143	55	127
155.7006349206349	155.81673469387755	59	127
155.90961451247165	156.0257142857143	59	127
155.90961451247165	156.0257142857143	62	127
156.10696145124717	156.21147392290248	59	127
156.10696145124717	156.29274376417234	67	127
156.10696145124717	156.408820861678	43	127
156.10696145124717	156.21147392290248	62	127
156.29274376417234	156.408820861678	62	127
156.29274376417234	156.408820861678	59	127
156.29274376417234	156.47850340136054	65	127
156.47850340136054	156.8384126984127	60	127
156.47850340136054	156.8384126984127	63	127
156.47850340136054	156.6526530612245	60	127
156.47850340136054	156.8384126984127	48	127
156.69909297052155	156.88485260770975	63	127
156.9312925170068	157.0822222222222	62	127
156.9312925170068	157.26798185941044	60	127
157.12863945578232	157.3144217687075	63	127
157.36086167800454	157.69755102040816	75	127
157.36086167800454	157.53498866213152	65	127
157.56984126984128	157.73238095238096	63	127
157.76721088435374	158.57990929705215	67	127
157.76721088435374	157.80204081632652	65	127
157.76721088435374	158.57990929705215	61	127
157.80204081632652	157.83687074829933	63	127
157.84848072562357	157.8717006802721	65	127
157.88331065759638	157.9065306122449	63	127
157.91814058956916	157.95297052154194	65	127
157.95297052154194	157.98780045351475	63	127
157.98780045351475	158.1271201814059	62	127
158.17356009070295	158.33609977324264	63	127
158.3825396825397	158.5334693877551	63	127
158.57990929705215	158.73083900226757	63	127
158.57990929705215	158.99786848072563	60	127
158.57990929705215	158.99786848072563	68	127
158.77727891156462	158.95142857142858	63	127
158.99786848072563	159.63641723356008	55	127
158.99786848072563	159.63641723356008	73	127
158.99786848072563	159.0326984126984	65	127
159.0326984126984	159.06750566893425	63	127
159.06750566893425	159.102358276644	65	127
159.11396825396827	159.13718820861678	63	127
159.14879818594105	159.1719954648526	65	127
159.18362811791383	159.21845804988664	63	127
159.21845804988664	159.33455782312924	62	127
159.35777777777778	159.40421768707483	63	127
159.4274149659864	159.58997732426303	63	127
159.63641723356008	159.8221768707483	56	127
159.63641723356008	159.77573696145126	63	127
159.63641723356008	159.8221768707483	72	127
159.8221768707483	160.0079365079365	68	127
159.8221768707483	159.97310657596373	63	127
159.8221768707483	160.0079365079365	60	127
160.0079365079365	160.36784580498866	61	127
160.0079365079365	160.03115646258505	65	127
160.0079365079365	160.36784580498866	67	127
160.04274376417234	160.0775963718821	63	127
160.0775963718821	160.11242630385487	65	127
160.11242630385487	160.14725623582765	63	127
160.15886621315192	160.18208616780046	65	127
160.19367346938776	160.21691609977324	63	127
160.2285260770975	160.4142857142857	62	127
160.46072562358276	160.63487528344672	63	127
160.46072562358276	160.7625850340136	61	127
160.46072562358276	160.7625850340136	67	127
160.646485260771	160.82063492063492	63	127
160.85544217687075	161.31984126984128	68	127
160.85544217687075	161.0528344671202	63	127
160.85544217687075	161.09927437641724	60	127
161.09927437641724	161.31984126984128	56	127
161.09927437641724	161.27342403628117	63	127
161.31984126984128	161.54045351473923	73	127
161.31984126984128	161.34308390022676	65	127
161.31984126984128	161.49401360544218	55	127
161.35469387755103	161.3895238095238	63	127
161.3895238095238	161.41274376417235	65	127
161.4243537414966	161.49401360544218	62	127
161.54045351473923	161.71460317460318	63	127
161.54045351473923	161.85392290249433	55	127
161.54045351473923	161.76104308390023	75	127
161.76104308390023	161.8887528344671	63	127
161.76104308390023	161.93519274376416	73	127
161.93519274376416	162.1209523809524	56	127
161.93519274376416	162.1209523809524	72	127
161.93519274376416	162.08609977324264	63	127
162.1209523809524	162.3647619047619	60	127
162.1209523809524	162.31832199546486	63	127
162.1209523809524	162.3647619047619	68	127
162.3647619047619	162.68984126984128	67	127
162.3647619047619	162.5273015873016	58	127
162.3647619047619	162.5273015873016	63	127
162.56213151927437	162.73628117913833	55	127
162.56213151927437	162.73628117913833	58	127
162.78272108843538	163.10777777777778	70	127
162.78272108843538	162.89882086167802	63	127
162.78272108843538	162.89882086167802	67	127
162.96848072562358	163.10777777777778	67	127
162.96848072562358	163.10777777777778	63	127
163.18907029478459	163.31678004535146	67	127
163.18907029478459	163.31678004535146	63	127
163.18907029478459	163.5257596371882	75	127
163.18907029478459	163.5257596371882	46	127
163.39804988662132	163.5257596371882	67	127
163.39804988662132	163.5257596371882	63	127
163.60702947845806	163.9321088435374	51	127
163.60702947845806	163.9321088435374	79	127
163.60702947845806	163.76954648526078	67	127
163.60702947845806	163.76954648526078	63	127
163.8160090702948	163.9785260770975	58	127
163.8160090702948	163.9785260770975	63	127
164.02496598639456	164.1526984126984	75	127
164.02496598639456	164.1526984126984	67	127
164.02496598639456	164.19913832199546	82	127
164.25718820861678	164.5938775510204	55	127
164.25718820861678	164.38487528344672	67	127
164.25718820861678	164.5938775510204	87	127
164.25718820861678	164.38487528344672	75	127
164.4777777777778	164.5938775510204	75	127
164.4777777777778	164.5938775510204	67	127
164.67514739229026	164.84929705215418	67	127
164.67514739229026	165.02344671201814	58	127
164.67514739229026	165.3136961451247	82	127
164.67514739229026	164.84929705215418	75	127
164.884126984127	165.05827664399092	63	127
164.884126984127	165.05827664399092	79	127
165.10471655328797	165.2208163265306	62	127
165.10471655328797	165.2208163265306	70	127
165.3136961451247	165.44140589569162	70	127
165.3136961451247	165.44140589569162	63	127
165.3136961451247	165.53428571428572	81	127
165.53428571428572	165.76646258503402	80	127
165.53428571428572	165.67360544217686	70	127
165.53428571428572	165.67360544217686	65	127
165.53428571428572	165.89419501133787	62	127
165.76646258503402	165.98707482993197	77	127
165.76646258503402	165.89419501133787	70	127
165.76646258503402	165.89419501133787	68	127
165.98707482993197	166.428231292517	63	127
165.98707482993197	166.428231292517	75	127
165.98707482993197	166.428231292517	70	127
165.98707482993197	166.428231292517	67	127
166.86943310657597	167.31061224489795	67	127
167.31061224489795	167.4847619047619	63	127
167.31061224489795	167.4847619047619	67	127
167.31061224489795	167.7401814058957	72	127
167.5195918367347	167.69374149659865	63	127
167.5195918367347	167.69374149659865	60	127
167.7401814058957	168.12331065759636	48	127
167.7401814058957	167.86789115646258	67	127
167.7401814058957	167.86789115646258	63	127
167.96074829931973	168.12331065759636	67	127
167.96074829931973	168.12331065759636	63	127
168.21616780045352	168.3206575963719	63	127
168.21616780045352	168.3206575963719	67	127
168.21616780045352	168.5528798185941	75	127
168.4019501133787	168.46	63	127
168.4019501133787	168.46	67	127
168.5528798185941	168.69219954648526	67	127
168.5528798185941	168.83149659863946	79	127
168.5528798185941	168.69219954648526	63	127
168.69219954648526	168.79668934240362	63	127
168.69219954648526	168.79668934240362	60	127
168.83149659863946	168.9592290249433	63	127
168.83149659863946	168.9592290249433	67	127
168.83149659863946	169.17981859410432	48	127
169.0521088435374	169.17981859410432	67	127
169.0521088435374	169.17981859410432	63	127
169.27269841269842	169.65582766439908	84	127
169.27269841269842	169.38879818594106	63	127
169.27269841269842	169.38879818594106	67	127
169.4468253968254	169.58616780045352	67	127
169.4468253968254	169.58616780045352	63	127
169.65582766439908	170.48013605442176	87	127
169.65582766439908	169.8415873015873	63	127
169.65582766439908	169.8415873015873	67	127
169.88802721088436	169.99251700680273	60	127
169.88802721088436	169.99251700680273	63	127
170.03895691609978	170.16666666666666	67	127
170.03895691609978	170.16666666666666	63	127
170.03895691609978	170.38725623582766	48	127
170.25954648526078	170.38725623582766	63	127
170.25954648526078	170.38725623582766	67	127
170.48013605442176	170.60784580498867	67	127
170.48013605442176	170.8284126984127	36	127
170.48013605442176	170.70072562358277	86	127
170.48013605442176	170.60784580498867	63	127
170.70072562358277	170.88648526077097	84	127
170.70072562358277	170.8284126984127	63	127
170.88648526077097	171.2347619047619	83	127
170.88648526077097	171.2347619047619	43	127
170.88648526077097	171.06063492063493	62	127
170.88648526077097	171.06063492063493	67	127
171.0954648526077	171.29283446712017	59	127
171.0954648526077	171.29283446712017	62	127
171.32766439909298	171.69918367346938	55	127
171.32766439909298	171.45537414965986	67	127
171.32766439909298	171.45537414965986	62	127
171.55986394557823	171.69918367346938	62	127
171.55986394557823	171.69918367346938	67	127
171.7920634920635	171.91977324263038	67	127
171.7920634920635	171.91977324263038	62	127
171.7920634920635	171.93138321995465	86	127
171.93138321995465	172.33773242630386	77	127
171.93138321995465	172.10551020408164	71	127
171.93138321995465	172.10551020408164	62	127
172.1519501133787	172.3261224489796	67	127
172.1519501133787	172.3261224489796	59	127
172.33773242630386	172.46544217687074	71	127
172.33773242630386	172.68603174603174	55	127
172.33773242630386	172.46544217687074	62	127
172.5467120181406	172.68603174603174	62	127
172.5467120181406	172.68603174603174	71	127
172.77891156462584	172.90662131519275	71	127
172.77891156462584	172.90662131519275	62	127
172.77891156462584	173.19687074829932	80	127
172.9762811791383	173.10399092970522	71	127
172.9762811791383	173.10399092970522	62	127
173.19687074829932	173.66126984126984	71	127
173.19687074829932	173.37102040816328	65	127
173.19687074829932	173.37102040816328	62	127
173.41746031746032	173.6148299319728	62	127
173.41746031746032	173.6148299319728	55	127
173.66126984126984	173.93990929705217	43	127
173.66126984126984	173.78895691609978	62	127
173.66126984126984	173.78895691609978	65	127
173.82380952380953	173.93990929705217	62	127
173.82380952380953	173.93990929705217	65	127
174.00956916099773	174.14886621315193	65	127
174.00956916099773	174.14886621315193	62	127
174.00956916099773	174.41591836734693	59	127
174.23015873015873	174.34625850340137	62	127
174.23015873015873	174.34625850340137	65	127
174.41591836734693	174.57845804988662	62	127
174.41591836734693	174.57845804988662	59	127
174.41591836734693	175.13573696145124	68	127
174.6132879818594	174.70616780045353	55	127
174.6132879818594	174.70616780045353	59	127
174.70616780045353	174.84548752834468	59	127
174.70616780045353	174.84548752834468	62	127
174.70616780045353	175.0544671201814	55	127
174.9151247165533	175.0544671201814	59	127
174.9151247165533	175.0544671201814	62	127
175.13573696145124	175.3331065759637	67	127
175.13573696145124	175.27503401360545	59	127
175.13573696145124	175.27503401360545	62	127
175.13573696145124	175.46081632653062	43	127
175.3331065759637	175.55369614512472	65	127
175.3331065759637	175.46081632653062	59	127
175.3331065759637	175.46081632653062	62	127
175.55369614512472	175.9019954648526	60	127
175.55369614512472	175.72784580498868	60	127
175.55369614512472	175.9019954648526	63	127
175.55369614512472	175.9019954648526	48	127
175.78587301587302	175.94843537414965	63	127
175.98326530612246	176.1574149659864	62	127
175.98326530612246	176.3083446712018	60	127
176.18063492063493	176.36639455782313	63	127
176.41283446712018	176.77274376417233	75	127
176.41283446712018	176.58698412698413	65	127
176.63342403628118	176.81918367346938	63	127
176.8540136054422	176.88884353741497	65	127
176.8540136054422	177.62027210884355	67	127
176.8540136054422	177.62027210884355	61	127
176.90045351473924	176.92367346938775	63	127
176.93528344671202	176.9584807256236	65	127
176.9701133786848	177.0049433106576	63	127
177.0049433106576	177.0397732426304	65	127
177.0397732426304	177.07460317460317	63	127
177.08621315192744	177.23714285714286	62	127
177.2835827664399	177.4228798185941	63	127
177.43451247165532	177.58544217687074	63	127
177.62027210884355	178.0846485260771	68	127
177.62027210884355	177.79442176870748	63	127
177.62027210884355	178.0846485260771	60	127
177.84086167800453	178.038231292517	63	127
178.0846485260771	178.11950113378686	65	127
178.0846485260771	178.81609977324263	73	127
178.0846485260771	178.81609977324263	55	127
178.11950113378686	178.15433106575964	63	127
178.1659410430839	178.18913832199547	65	127
178.20077097505668	178.22399092970522	63	127
178.23557823129252	178.24721088435373	65	127
178.24721088435373	178.37492063492064	62	127
178.4213605442177	178.54907029478457	63	127
178.59548752834468	178.76965986394558	63	127
178.81609977324263	179.02507936507936	56	127
178.81609977324263	179.02507936507936	72	127
178.81609977324263	178.99024943310658	63	127
179.02507936507936	179.2340589569161	60	127
179.02507936507936	179.18761904761905	63	127
179.02507936507936	179.2340589569161	68	127
179.2340589569161	179.582358276644	67	127
179.2340589569161	179.26888888888888	65	127
179.2340589569161	179.582358276644	61	127
179.26888888888888	179.3037188208617	63	127
179.31532879818593	179.33854875283447	65	127
179.35015873015874	179.37337868480725	63	127
179.38498866213152	179.3965986394558	65	127
179.40820861678006	179.44303854875284	63	127
179.44303854875284	179.62879818594104	62	127
179.66362811791385	180.023537414966	61	127
179.66362811791385	179.84938775510204	63	127
179.66362811791385	180.023537414966	67	127
179.8958276643991	180.06997732426305	63	127
180.1164172335601	180.3021768707483	60	127
180.1164172335601	180.25573696145125	63	127
180.1164172335601	180.48791383219955	68	127
180.3021768707483	180.44149659863945	63	127
180.3021768707483	180.48791383219955	56	127
180.48791383219955	180.5227664399093	65	127
180.48791383219955	180.74333333333334	55	127
180.48791383219955	180.82462585034014	73	127
180.5227664399093	180.53437641723357	63	127
180.53437641723357	180.56920634920635	65	127
180.58081632653062	180.60403628117913	63	127
180.6156462585034	180.62725623582767	63	127
180.63884353741497	180.7781859410431	62	127
180.82462585034014	181.13809523809525	55	127
180.82462585034014	181.03360544217688	75	127
180.82462585034014	180.99875283446713	63	127
181.03360544217688	181.1845351473923	63	127
181.03360544217688	181.23097505668935	73	127
181.23097505668935	181.3702947845805	63	127
181.23097505668935	181.41673469387754	56	127
181.23097505668935	181.41673469387754	72	127
181.41673469387754	181.60249433106577	63	127
181.41673469387754	181.64893424036282	68	127
181.41673469387754	181.64893424036282	60	127
181.64893424036282	181.78825396825397	63	127
181.64893424036282	181.95079365079366	67	127
181.64893424036282	181.78825396825397	58	127
181.83469387755102	181.9972335600907	55	127
181.83469387755102	181.9972335600907	58	127
182.04367346938776	182.14816326530612	67	127
182.04367346938776	182.36875283446713	70	127
182.04367346938776	182.14816326530612	63	127
182.22943310657595	182.36875283446713	63	127
182.22943310657595	182.36875283446713	67	127
182.45002267573696	182.79832199546485	75	127
182.45002267573696	182.79832199546485	46	127
182.45002267573696	182.5893424036281	67	127
182.45002267573696	182.5893424036281	63	127
182.68219954648526	182.79832199546485	67	127
182.68219954648526	182.79832199546485	63	127
182.891179138322	183.1930612244898	51	127
182.891179138322	183.1930612244898	79	127
182.891179138322	183.0653514739229	63	127
182.891179138322	183.0653514739229	67	127
183.08857142857144	183.23950113378686	63	127
183.08857142857144	183.23950113378686	58	127
183.2859410430839	183.50650793650794	82	127
183.2859410430839	183.4136507936508	75	127
183.2859410430839	183.4136507936508	67	127
183.46009070294784	183.50650793650794	67	127
183.46009070294784	183.50650793650794	75	127
183.5645804988662	183.93609977324263	55	127
183.5645804988662	183.93609977324263	87	127
183.5645804988662	183.70390022675738	67	127
183.5645804988662	183.70390022675738	75	127
183.79678004535148	183.93609977324263	75	127
183.79678004535148	183.93609977324263	67	127
184.01734693877552	184.21473922902496	75	127
184.01734693877552	184.21473922902496	67	127
184.01734693877552	184.38888888888889	58	127
184.01734693877552	184.6791156462585	82	127
184.261179138322	184.42369614512472	79	127
184.261179138322	184.42369614512472	63	127
184.45854875283447	184.58625850340135	70	127
184.45854875283447	184.58625850340135	62	127
184.6791156462585	184.89972789115646	81	127
184.6791156462585	184.80684807256236	70	127
184.6791156462585	184.80684807256236	63	127
184.89972789115646	185.05065759637188	70	127
184.89972789115646	185.05065759637188	65	127
184.89972789115646	185.14353741496598	80	127
184.89972789115646	185.28285714285715	62	127
185.14353741496598	185.36412698412698	77	127
185.14353741496598	185.28285714285715	68	127
185.14353741496598	185.28285714285715	70	127
185.36412698412698	185.8285260770975	67	127
185.36412698412698	185.8285260770975	75	127
185.36412698412698	185.8285260770975	70	127
185.36412698412698	185.8285260770975	63	127
186.37419501133786	186.53673469387755	82	127
186.53673469387755	186.95469387755102	76	127
186.53673469387755	186.68766439909297	67	127
186.53673469387755	186.68766439909297	70	127
186.73410430839002	186.91986394557824	64	127
186.73410430839002	186.91986394557824	67	127
186.95469387755102	187.34943310657596	61	127
186.95469387755102	187.1172335600907	70	127
186.95469387755102	187.1172335600907	67	127
187.22172335600908	187.34943310657596	67	127
187.22172335600908	187.34943310657596	70	127
187.4422902494331	187.74414965986395	79	127
187.4422902494331	187.5584126984127	67	127
187.4422902494331	187.5584126984127	70	127
187.63968253968255	187.7093424036281	70	127
187.63968253968255	187.7093424036281	67	127
187.74414965986395	188.1853514739229	70	127
187.74414965986395	187.91832199546485	67	127
187.74414965986395	187.91832199546485	64	127
187.9647619047619	188.13891156462586	64	127
187.9647619047619	188.13891156462586	55	127
188.1853514739229	188.3711111111111	67	127
188.1853514739229	188.3711111111111	58	127
188.1853514739229	188.58009070294784	52	127
188.47560090702947	188.58009070294784	67	127
188.47560090702947	188.58009070294784	58	127
188.67297052154194	188.80068027210885	58	127
188.67297052154194	188.80068027210885	67	127
188.67297052154194	189.09092970521542	64	127
188.88195011337868	188.99804988662132	67	127
188.88195011337868	188.99804988662132	58	127
189.09092970521542	189.18380952380951	55	127
189.09092970521542	189.78752834467122	73	127
189.09092970521542	189.18380952380951	52	127
189.20702947845805	189.33473922902493	58	127
189.20702947845805	189.33473922902493	55	127
189.38115646258504	189.5088888888889	52	127
189.38115646258504	189.71786848072563	48	127
189.38115646258504	189.5088888888889	55	127
189.59015873015872	189.71786848072563	52	127
189.59015873015872	189.71786848072563	55	127
189.78752834467122	190.01972789115646	72	127
189.78752834467122	189.92684807256236	52	127
189.78752834467122	189.92684807256236	55	127
189.78752834467122	190.1474149659864	36	127
190.01972789115646	190.1474149659864	55	127
190.01972789115646	190.1474149659864	52	127
190.01972789115646	190.24031746031747	70	127
190.24031746031747	190.61183673469387	68	127
190.24031746031747	190.42607709750567	56	127
190.24031746031747	190.42607709750567	53	127
190.24031746031747	190.61183673469387	41	127
190.484126984127	190.6350566893424	60	127
190.484126984127	190.6350566893424	56	127
190.68149659863946	190.77437641723355	68	127
190.68149659863946	190.77437641723355	60	127
190.68149659863946	191.00657596371883	53	127
190.84403628117914	191.00657596371883	68	127
190.84403628117914	191.00657596371883	60	127
191.09945578231293	191.23877551020408	68	127
191.09945578231293	191.23877551020408	60	127
191.09945578231293	191.2968253968254	84	127
191.2968253968254	191.40131519274377	72	127
191.2968253968254	191.40131519274377	69	127
191.2968253968254	191.66834467120182	78	127
191.44775510204082	191.62190476190477	69	127
191.44775510204082	191.62190476190477	60	127
191.66834467120182	192.03986394557822	63	127
191.66834467120182	191.7960544217687	69	127
191.66834467120182	191.7960544217687	72	127
191.8889342403628	192.03986394557822	69	127
191.8889342403628	192.03986394557822	72	127
192.1443537414966	192.46943310657596	81	127
192.1443537414966	192.28367346938776	72	127
192.1443537414966	192.28367346938776	69	127
192.3301133786848	192.4578231292517	72	127
192.3301133786848	192.4578231292517	69	127
192.46943310657596	192.81773242630385	72	127
192.46943310657596	192.57392290249433	66	127
192.46943310657596	192.57392290249433	69	127
192.62036281179138	192.7712925170068	66	127
192.62036281179138	192.7712925170068	56	127
192.81773242630385	193.20086167800454	54	127
192.81773242630385	192.96866213151927	60	127
192.81773242630385	192.96866213151927	69	127
193.07315192743764	193.20086167800454	60	127
193.07315192743764	193.20086167800454	69	127
193.29374149659864	193.38662131519274	69	127
193.29374149659864	193.66526077097507	66	127
193.29374149659864	193.38662131519274	60	127
193.45628117913833	193.59560090702948	60	127
193.45628117913833	193.59560090702948	69	127
193.66526077097507	193.839410430839	54	127
193.66526077097507	193.839410430839	57	127
193.66526077097507	194.501179138322	75	127
193.86263038548753	194.03678004535146	56	127
193.86263038548753	194.03678004535146	60	127
194.0832199546485	194.21092970521542	57	127
194.0832199546485	194.4082993197279	50	127
194.0832199546485	194.21092970521542	54	127
194.280589569161	194.4082993197279	57	127
194.280589569161	194.4082993197279	54	127
194.501179138322	194.6288888888889	57	127
194.501179138322	194.8146485260771	38	127
194.501179138322	194.6869387755102	74	127
194.501179138322	194.6288888888889	54	127
194.6869387755102	194.8146485260771	57	127
194.6869387755102	194.8146485260771	54	127
194.6869387755102	194.8726984126984	72	127
194.8726984126984	195.1977777777778	71	127
194.8726984126984	195.02362811791383	55	127
194.8726984126984	195.1977777777778	43	127
194.8726984126984	195.1977777777778	55	127
195.07006802721088	195.24421768707484	67	127
195.27904761904762	195.45319727891157	66	127
195.27904761904762	195.59251700680272	55	127
195.47641723356008	195.63895691609977	67	127
195.68539682539682	195.9756462585034	55	127
195.68539682539682	195.9756462585034	79	127
195.68539682539682	195.82471655328797	63	127
195.85954648526078	196.02208616780047	60	127
196.06852607709752	196.35877551020408	55	127
196.06852607709752	196.35877551020408	62	127
196.06852607709752	196.35877551020408	59	127
196.06852607709752	196.25428571428571	78	127
196.25428571428571	196.4400453514739	79	127
196.4400453514739	196.79995464852607	55	127
196.4400453514739	196.79995464852607	59	127
196.4400453514739	196.66063492063492	80	127
196.66063492063492	196.88122448979593	79	127
196.88122448979593	197.05537414965985	75	127
196.88122448979593	197.1018140589569	60	127
196.88122448979593	197.21791383219954	67	127
196.88122448979593	197.21791383219954	55	127
197.1018140589569	197.31079365079364	63	127
197.1018140589569	197.2643537414966	72	127
197.31079365079364	197.65909297052156	55	127
197.31079365079364	197.65909297052156	62	127
197.31079365079364	197.65909297052156	71	127
197.31079365079364	197.53138321995465	66	127
197.53138321995465	197.74036281179139	67	127
197.74036281179139	198.06544217687076	43	127
197.74036281179139	198.06544217687076	74	127
197.74036281179139	198.06544217687076	59	127
197.74036281179139	197.92612244897958	68	127
197.92612244897958	198.1467120181406	67	127
198.1467120181406	198.3324716553288	63	127
198.1467120181406	198.51823129251702	79	127
198.1467120181406	198.3324716553288	60	127
198.1467120181406	198.51823129251702	43	127
198.3673015873016	198.56467120181406	51	127
198.3673015873016	198.56467120181406	60	127
198.61111111111111	198.83170068027212	80	127
198.61111111111111	198.959410430839	59	127
198.61111111111111	198.959410430839	50	127
198.61111111111111	198.959410430839	43	127
198.83170068027212	199.04068027210883	79	127
199.04068027210883	199.3657596371882	55	127
199.04068027210883	199.3657596371882	62	127
199.04068027210883	199.23804988662133	78	127
199.04068027210883	199.3657596371882	59	127
199.23804988662133	199.4354195011338	79	127
199.4354195011338	199.60956916099772	75	127
199.4354195011338	199.65600907029477	60	127
199.4354195011338	199.7721088435374	67	127
199.4354195011338	199.7721088435374	55	127
199.65600907029477	199.85337868480727	63	127
199.65600907029477	199.81854875283446	72	127
199.85337868480727	200.0043083900227	68	127
199.85337868480727	200.14362811791383	62	127
199.85337868480727	200.14362811791383	55	127
199.85337868480727	200.14362811791383	71	127
200.01591836734693	200.22489795918366	67	127
200.22489795918366	200.5615873015873	59	127
200.22489795918366	200.4338775510204	66	127
200.22489795918366	200.5615873015873	74	127
200.22489795918366	200.5615873015873	43	127
200.4338775510204	200.6544671201814	67	127
200.6544671201814	200.97954648526078	43	127
200.6544671201814	200.85183673469388	62	127
200.6544671201814	200.80539682539683	65	127
200.85183673469388	201.04920634920634	59	127
200.85183673469388	201.0027664399093	62	127
201.04920634920634	201.46716553287982	48	127
201.04920634920634	201.25818594104308	60	127
201.04920634920634	201.25818594104308	63	127
201.29301587301586	201.51360544217687	55	127
201.29301587301586	201.51360544217687	60	127
201.56004535147392	201.75741496598638	75	127
201.56004535147392	201.69936507936507	60	127
201.56004535147392	201.69936507936507	67	127
201.73419501133787	201.80385487528343	60	127
201.73419501133787	201.80385487528343	67	127
201.8502947845805	202.18698412698413	51	127
201.8502947845805	202.02444444444444	67	127
201.8502947845805	202.02444444444444	60	127
201.8502947845805	202.18698412698413	79	127
202.0708843537415	202.23342403628118	67	127
202.0708843537415	202.23342403628118	60	127
202.27986394557823	202.46562358276643	72	127
202.27986394557823	202.6281632653061	55	127
202.27986394557823	202.46562358276643	63	127
202.5120634920635	202.68621315192743	60	127
202.5120634920635	202.68621315192743	67	127
202.7210430839002	202.9184126984127	84	127
202.7210430839002	202.84875283446712	75	127
202.7210430839002	202.84875283446712	67	127
202.84875283446712	202.9184126984127	67	127
202.84875283446712	202.9184126984127	75	127
202.9532426303855	203.3247619047619	87	127
202.9532426303855	203.12739229024945	75	127
202.9532426303855	203.12739229024945	67	127
202.9532426303855	203.3247619047619	60	127
203.18544217687074	203.37120181405896	67	127
203.18544217687074	203.37120181405896	75	127
203.417641723356	204.20712018140588	63	127
203.417641723356	203.5801814058957	72	127
203.417641723356	203.5801814058957	68	127
203.62662131519275	203.77755102040817	66	127
203.62662131519275	203.77755102040817	69	127
203.81238095238095	204.11424036281178	78	127
203.81238095238095	203.9517006802721	72	127
203.81238095238095	203.9517006802721	68	127
203.9865306122449	204.16068027210883	68	127
203.9865306122449	204.16068027210883	72	127
204.20712018140588	204.36965986394557	72	127
204.20712018140588	204.54380952380953	90	127
204.20712018140588	204.41609977324262	62	127
204.20712018140588	204.36965986394557	68	127
204.41609977324262	204.63668934240363	60	127
204.41609977324262	204.59024943310658	68	127
204.41609977324262	204.59024943310658	72	127
204.63668934240363	204.81083900226758	67	127
204.63668934240363	204.9849886621315	59	127
204.63668934240363	204.81083900226758	74	127
204.85727891156463	205.03142857142856	62	127
204.85727891156463	205.03142857142856	71	127
205.0778684807256	205.2171882086168	91	127
205.0778684807256	205.12430839002266	79	127
205.0778684807256	205.12430839002266	71	127
205.12430839002266	205.26362811791384	79	127
205.12430839002266	205.26362811791384	71	127
205.29845804988662	205.47260770975058	79	127
205.29845804988662	205.47260770975058	71	127
205.29845804988662	205.63514739229024	86	127
205.29845804988662	205.63514739229024	65	127
205.51904761904763	205.6815873015873	71	127
205.51904761904763	205.6815873015873	79	127
205.72802721088436	205.92539682539683	77	127
205.72802721088436	205.92539682539683	62	127
205.72802721088436	206.09954648526076	59	127
205.97183673469388	206.16920634920635	65	127
205.97183673469388	206.16920634920635	74	127
206.2156462585034	206.4014058956916	89	127
206.2156462585034	206.35496598639455	68	127
206.2156462585034	206.35496598639455	77	127
206.35496598639455	206.4362358276644	68	127
206.35496598639455	206.4362358276644	77	127
206.48267573696145	206.66843537414965	68	127
206.48267573696145	206.66843537414965	77	127
206.48267573696145	206.8425850340136	83	127
206.48267573696145	206.8425850340136	62	127
206.70326530612246	206.88902494331066	77	127
206.70326530612246	206.88902494331066	68	127
206.9354648526077	207.10961451247167	68	127
206.9354648526077	207.24893424036281	53	127
206.9354648526077	207.10961451247167	74	127
207.15605442176872	207.29537414965986	62	127
207.15605442176872	207.29537414965986	59	127
207.33020408163264	207.4114739229025	86	127
207.33020408163264	207.45791383219955	62	127
207.33020408163264	207.45791383219955	68	127
207.5043537414966	207.67850340136056	68	127
207.5043537414966	207.67850340136056	62	127
207.5043537414966	207.87587301587303	77	127
207.5043537414966	207.87587301587303	47	127
207.73655328798185	207.93392290249434	62	127
207.73655328798185	207.93392290249434	68	127
207.96875283446713	208.7930612244898	56	127
207.96875283446713	208.1661224489796	62	127
207.96875283446713	208.1661224489796	65	127
208.21256235827664	208.3867120181406	62	127
208.21256235827664	208.3867120181406	59	127
208.42154195011338	208.54925170068026	65	127
208.42154195011338	208.71179138321995	71	127
208.42154195011338	208.54925170068026	62	127
208.59569160997734	208.74662131519275	62	127
208.59569160997734	208.74662131519275	65	127
208.7930612244898	208.99043083900227	55	127
208.7930612244898	208.96721088435373	65	127
208.7930612244898	208.96721088435373	62	127
208.7930612244898	209.12975056689342	83	127
208.99043083900227	209.21102040816328	53	127
208.99043083900227	209.1645804988662	62	127
208.99043083900227	209.1645804988662	65	127
209.21102040816328	210.29074829931972	52	127
209.21102040816328	209.40839002267575	67	127
209.21102040816328	209.40839002267575	61	127
209.44321995464853	209.62897959183672	55	127
209.44321995464853	209.62897959183672	58	127
209.66380952380953	210.01210884353742	70	127
209.66380952380953	209.84956916099773	60	127
209.66380952380953	209.84956916099773	67	127
209.89600907029478	210.05854875283447	60	127
209.89600907029478	210.05854875283447	67	127
210.1165986394558	210.29074829931972	67	127
210.1165986394558	210.29074829931972	60	127
210.1165986394558	210.41845804988662	82	127
210.33718820861677	210.46489795918367	60	127
210.33718820861677	210.46489795918367	67	127
210.51133786848072	211.47496598639455	60	127
210.51133786848072	211.2427664399093	65	127
210.51133786848072	211.17310657596371	53	127
210.51133786848072	210.91768707482993	82	127
210.91768707482993	211.2427664399093	80	127
211.30081632653062	211.61428571428573	79	127
211.30081632653062	211.61428571428573	55	127
211.30081632653062	211.61428571428573	64	127
211.67233560090702	212.3108843537415	57	127
211.67233560090702	212.06707482993198	79	127
211.67233560090702	212.3108843537415	60	127
211.67233560090702	212.67079365079366	72	127
212.06707482993198	212.4037641723356	77	127
212.48503401360543	212.86816326530612	78	127
212.48503401360543	212.86816326530612	62	127
212.48503401360543	212.86816326530612	56	127
212.96104308390022	213.40222222222224	78	127
212.96104308390022	213.3093424036281	55	127
212.96104308390022	213.3093424036281	72	127
212.96104308390022	213.3093424036281	63	127
213.40222222222224	213.64603174603175	79	127
213.80857142857144	214.07560090702947	65	127
213.80857142857144	214.07560090702947	43	127
213.80857142857144	214.07560090702947	62	127
213.80857142857144	214.07560090702947	71	127
214.2613605442177	214.60965986394558	63	127
214.2613605442177	214.60965986394558	72	127
214.2613605442177	214.60965986394558	36	127
214.2613605442177	214.60965986394558	60	127
214.70253968253968	215.08566893424037	48	127
215.3526984126984	215.6661678004535	82	127
215.6661678004535	215.85192743764173	67	127
215.6661678004535	216.10734693877552	76	127
215.6661678004535	215.85192743764173	70	127
215.89836734693878	216.06090702947847	67	127
215.89836734693878	216.06090702947847	64	127
216.10734693877552	216.2350566893424	70	127
216.10734693877552	216.2350566893424	67	127
216.10734693877552	216.4556462585034	61	127
216.3279365079365	216.4556462585034	70	127
216.3279365079365	216.4556462585034	67	127
216.5485260770975	216.67623582766439	67	127
216.5485260770975	216.83877551020407	79	127
216.5485260770975	216.67623582766439	70	127
216.74589569160997	216.81555555555556	70	127
216.74589569160997	216.81555555555556	67	127
216.83877551020407	217.0245351473923	67	127
216.83877551020407	217.0245351473923	64	127
216.83877551020407	217.3031746031746	70	127
217.07097505668935	217.25673469387755	64	127
217.07097505668935	217.25673469387755	55	127
217.3031746031746	217.62825396825397	52	127
217.3031746031746	217.4308843537415	67	127
217.3031746031746	217.4308843537415	58	127
217.51215419501133	217.62825396825397	67	127
217.51215419501133	217.62825396825397	58	127
217.72113378684807	217.84884353741498	67	127
217.72113378684807	218.13909297052155	64	127
217.72113378684807	217.84884353741498	58	127
217.94172335600908	218.0578231292517	67	127
217.94172335600908	218.0578231292517	58	127
218.13909297052155	218.91696145124718	73	127
218.13909297052155	218.31324263038547	52	127
218.13909297052155	218.31324263038547	55	127
218.35968253968255	218.5222222222222	58	127
218.35968253968255	218.5222222222222	55	127
218.55705215419502	218.8473015873016	48	127
218.55705215419502	218.6615419501134	55	127
218.55705215419502	218.6615419501134	52	127
218.73120181405895	218.8473015873016	52	127
218.73120181405895	218.8473015873016	55	127
218.91696145124718	219.24204081632652	36	127
218.91696145124718	219.02145124716554	52	127
218.91696145124718	219.1259410430839	72	127
218.91696145124718	219.02145124716554	55	127
219.1259410430839	219.33492063492062	70	127
219.1259410430839	219.24204081632652	52	127
219.1259410430839	219.24204081632652	55	127
219.33492063492062	219.50907029478458	56	127
219.33492063492062	219.67160997732427	68	127
219.33492063492062	219.67160997732427	41	127
219.33492063492062	219.50907029478458	53	127
219.55551020408163	219.68321995464854	60	127
219.55551020408163	219.68321995464854	56	127
219.72965986394559	219.86897959183673	60	127
219.72965986394559	219.86897959183673	68	127
219.72965986394559	220.07795918367347	53	127
219.95024943310656	220.07795918367347	60	127
219.95024943310656	220.07795918367347	68	127
220.17083900226757	220.321768707483	68	127
220.17083900226757	220.321768707483	60	127
220.17083900226757	220.43786848072563	84	127
220.40303854875285	220.42625850340136	60	127
220.40303854875285	220.42625850340136	68	127
220.43786848072563	220.61201814058956	72	127
220.43786848072563	220.8790476190476	78	127
220.43786848072563	220.61201814058956	69	127
220.65845804988663	220.83260770975056	69	127
220.65845804988663	220.83260770975056	60	127
220.8790476190476	221.0415873015873	69	127
220.8790476190476	221.0415873015873	72	127
220.8790476190476	221.3550566893424	63	127
221.12285714285716	221.3550566893424	69	127
221.12285714285716	221.3550566893424	72	127
221.4479365079365	221.6104761904762	81	127
221.4479365079365	221.58725623582765	69	127
221.4479365079365	221.58725623582765	72	127
221.6104761904762	221.98199546485262	72	127
221.6104761904762	221.7614058956916	66	127
221.6104761904762	221.7614058956916	69	127
221.7962358276644	221.93555555555557	56	127
221.7962358276644	221.93555555555557	66	127
221.98199546485262	222.3302947845805	54	127
221.98199546485262	222.1097052154195	69	127
221.98199546485262	222.1097052154195	60	127
222.2025850340136	222.3302947845805	60	127
222.2025850340136	222.3302947845805	69	127
222.41156462585033	222.5508843537415	60	127
222.41156462585033	222.5508843537415	69	127
222.41156462585033	222.8295238095238	66	127
222.63215419501134	222.7714739229025	60	127
222.63215419501134	222.7714739229025	69	127
222.8295238095238	223.00367346938776	57	127
222.8295238095238	223.00367346938776	54	127
222.8295238095238	223.66544217687076	75	127
223.0501133786848	223.2126530612245	56	127
223.0501133786848	223.2126530612245	60	127
223.25909297052155	223.38680272108843	57	127
223.25909297052155	223.59578231292517	50	127
223.25909297052155	223.38680272108843	54	127
223.47968253968253	223.59578231292517	57	127
223.47968253968253	223.59578231292517	54	127
223.66544217687076	223.88603174603173	74	127
223.66544217687076	223.9673015873016	38	127
223.66544217687076	223.8047619047619	57	127
223.66544217687076	223.8047619047619	54	127
223.88603174603173	223.9673015873016	57	127
223.88603174603173	224.04857142857142	72	127
223.88603174603173	223.9673015873016	54	127
224.04857142857142	224.3968707482993	43	127
224.04857142857142	224.3968707482993	55	127
224.04857142857142	224.3968707482993	71	127
224.04857142857142	224.22272108843538	55	127
224.25755102040816	224.44331065759638	67	127
224.4665306122449	224.6174603174603	66	127
224.4665306122449	224.79160997732427	55	127
224.66390022675736	224.82643990929705	67	127
224.8728798185941	225.16312925170067	55	127
224.8728798185941	225.16312925170067	79	127
224.8728798185941	224.98897959183674	63	127
225.02380952380952	225.1863492063492	60	127
225.221179138322	225.43015873015872	78	127
225.221179138322	225.55786848072563	59	127
225.221179138322	225.55786848072563	62	127
225.221179138322	225.55786848072563	55	127
225.43015873015872	225.63913832199546	79	127
225.63913832199546	225.99904761904762	59	127
225.63913832199546	225.99904761904762	55	127
225.63913832199546	225.87133786848074	80	127
225.87133786848074	226.01065759637189	79	127
226.01065759637189	226.17319727891157	60	127
226.01065759637189	226.12675736961452	75	127
226.01065759637189	226.30090702947845	55	127
226.01065759637189	226.30090702947845	67	127
226.17319727891157	226.39378684807255	63	127
226.17319727891157	226.3473469387755	72	127
226.39378684807255	226.74208616780047	55	127
226.39378684807255	226.74208616780047	62	127
226.39378684807255	226.74208616780047	71	127
226.39378684807255	226.61437641723356	66	127
226.61437641723356	226.8233560090703	67	127
226.8233560090703	227.12521541950113	74	127
226.8233560090703	227.12521541950113	59	127
226.8233560090703	227.12521541950113	43	127
226.8233560090703	226.98589569160998	68	127
226.98589569160998	227.21809523809523	67	127
227.21809523809523	227.3922448979592	63	127
227.21809523809523	227.3922448979592	60	127
227.21809523809523	227.56639455782312	79	127
227.21809523809523	227.56639455782312	43	127
227.43868480725624	227.6128344671202	51	127
227.43868480725624	227.6128344671202	60	127
227.65927437641724	227.99596371882086	43	127
227.65927437641724	227.99596371882086	50	127
227.65927437641724	227.86825396825398	80	127
227.65927437641724	227.99596371882086	59	127
227.86825396825398	228.08884353741496	79	127
228.08884353741496	228.44875283446711	59	127
228.08884353741496	228.30943310657597	78	127
228.08884353741496	228.44875283446711	62	127
228.08884353741496	228.44875283446711	55	127
228.30943310657597	228.53002267573697	79	127
228.53002267573697	228.87832199546486	67	127
228.53002267573697	228.76222222222222	60	127
228.53002267573697	228.71578231292517	75	127
228.53002267573697	228.87832199546486	55	127
228.76222222222222	228.98281179138323	63	127
228.76222222222222	228.9247619047619	72	127
228.98281179138323	229.30789115646257	55	127
228.98281179138323	229.30789115646257	62	127
228.98281179138323	229.30789115646257	71	127
228.98281179138323	229.14535147392291	68	127
229.19179138321996	229.38916099773243	67	127
229.38916099773243	229.7722902494331	74	127
229.38916099773243	229.7722902494331	43	127
229.38916099773243	229.7722902494331	59	127
229.38916099773243	229.62136054421768	66	127
229.62136054421768	229.85356009070296	67	127
229.85356009070296	230.07414965986393	65	127
229.85356009070296	230.12058956916098	62	127
229.85356009070296	230.27151927437643	43	127
230.12058956916098	230.31795918367348	62	127
230.12058956916098	230.3992290249433	59	127
230.3992290249433	230.79396825396825	48	127
230.3992290249433	230.5849886621315	63	127
230.3992290249433	230.5849886621315	60	127
230.63142857142856	230.8404081632653	60	127
230.63142857142856	230.8404081632653	55	127
230.88684807256234	231.0609977324263	67	127
230.88684807256234	231.0609977324263	60	127
230.88684807256234	231.223537414966	75	127
231.10743764172335	231.26997732426304	60	127
231.10743764172335	231.26997732426304	67	127
231.3164172335601	231.5950566893424	79	127
231.3164172335601	231.43251700680273	60	127
231.3164172335601	231.5950566893424	51	127
231.3164172335601	231.43251700680273	67	127
231.47895691609978	231.64149659863946	60	127
231.47895691609978	231.64149659863946	67	127
231.67632653061224	231.8736961451247	63	127
231.67632653061224	231.8736961451247	72	127
231.67632653061224	232.04784580498867	55	127
231.92013605442176	232.09428571428572	67	127
231.92013605442176	232.09428571428572	60	127
232.15233560090704	232.29165532879819	67	127
232.15233560090704	232.29165532879819	84	127
232.15233560090704	232.29165532879819	75	127
232.29165532879819	232.33809523809524	67	127
232.29165532879819	232.33809523809524	75	127
232.38453514739228	232.74444444444444	87	127
232.38453514739228	232.55868480725624	67	127
232.38453514739228	232.55868480725624	75	127
232.38453514739228	232.74444444444444	60	127
232.6051247165533	232.77927437641722	67	127
232.6051247165533	232.77927437641722	75	127
232.8257142857143	233.6384126984127	63	127
232.8257142857143	233.0114739229025	72	127
232.8257142857143	233.0114739229025	68	127
233.034693877551	233.20884353741496	69	127
233.034693877551	233.20884353741496	66	127
233.24367346938774	233.54553287981858	78	127
233.24367346938774	233.37138321995465	72	127
233.24367346938774	233.37138321995465	68	127
233.4178231292517	233.59197278911566	68	127
233.4178231292517	233.59197278911566	72	127
233.6384126984127	233.9867120181406	90	127
233.6384126984127	233.8590022675737	62	127
233.6384126984127	233.81256235827664	68	127
233.6384126984127	233.81256235827664	72	127
233.8590022675737	234.03315192743764	68	127
233.8590022675737	234.0795918367347	60	127
233.8590022675737	234.03315192743764	72	127
234.0795918367347	234.25374149659865	74	127
234.0795918367347	234.25374149659865	67	127
234.0795918367347	234.42789115646258	59	127
234.28857142857143	234.47433106575963	62	127
234.28857142857143	234.47433106575963	71	127
234.50916099773244	234.59043083900227	71	127
234.50916099773244	234.59043083900227	79	127
234.50916099773244	234.63687074829932	91	127
234.59043083900227	234.68331065759637	79	127
234.59043083900227	234.68331065759637	71	127
234.72975056689341	234.90390022675737	71	127
234.72975056689341	234.90390022675737	79	127
234.72975056689341	235.07804988662133	86	127
234.72975056689341	235.07804988662133	65	127
234.95034013605442	235.12448979591838	71	127
234.95034013605442	235.12448979591838	79	127
235.17092970521543	235.57727891156463	59	127
235.17092970521543	235.3682993197279	62	127
235.17092970521543	235.3682993197279	77	127
235.42634920634922	235.6121088435374	74	127
235.42634920634922	235.6121088435374	65	127
235.65854875283446	235.8443083900227	68	127
235.65854875283446	235.8443083900227	77	127
235.65854875283446	235.8443083900227	89	127
235.8443083900227	235.8675283446712	68	127
235.8443083900227	235.8675283446712	77	127
235.90235827664398	236.26226757369614	62	127
235.90235827664398	236.26226757369614	83	127
235.90235827664398	236.0881179138322	68	127
235.90235827664398	236.0881179138322	77	127
236.13455782312926	236.29709750566894	77	127
236.13455782312926	236.29709750566894	68	127
236.343537414966	236.69183673469388	53	127
236.343537414966	236.51768707482992	68	127
236.343537414966	236.51768707482992	74	127
236.56412698412697	236.73827664399093	59	127
236.56412698412697	236.73827664399093	62	127
236.7731065759637	236.83115646258503	68	127
236.7731065759637	236.83115646258503	62	127
236.7731065759637	236.9356462585034	86	127
236.8427664399093	236.98208616780045	62	127
236.8427664399093	236.98208616780045	68	127
237.01691609977325	237.3768253968254	47	127
237.01691609977325	237.3768253968254	77	127
237.01691609977325	237.20267573696145	62	127
237.01691609977325	237.20267573696145	68	127
237.23750566893423	237.4116553287982	62	127
237.23750566893423	237.4116553287982	68	127
237.45809523809524	237.5974149659864	62	127
237.45809523809524	238.2243537414966	56	127
237.45809523809524	237.5974149659864	65	127
237.64385487528344	237.78317460317461	62	127
237.64385487528344	237.78317460317461	59	127
237.82961451247166	237.99215419501132	65	127
237.82961451247166	238.154693877551	71	127
237.82961451247166	237.99215419501132	62	127
238.01537414965986	238.17791383219955	62	127
238.01537414965986	238.17791383219955	65	127
238.2243537414966	238.37528344671202	62	127
238.2243537414966	238.56104308390022	83	127
238.2243537414966	238.42172335600907	55	127
238.2243537414966	238.37528344671202	65	127
238.42172335600907	238.64231292517007	53	127
238.42172335600907	238.60748299319727	62	127
238.42172335600907	238.60748299319727	65	127
238.64231292517007	238.83968253968254	67	127
238.64231292517007	238.83968253968254	61	127
238.64231292517007	239.74526077097505	52	127
238.89773242630386	239.08349206349206	58	127
238.89773242630386	239.08349206349206	55	127
239.14154195011338	239.33891156462585	60	127
239.14154195011338	239.33891156462585	67	127
239.14154195011338	239.48984126984126	70	127
239.3853514739229	239.5362811791383	60	127
239.3853514739229	239.5362811791383	67	127
239.58272108843536	239.89619047619047	82	127
239.58272108843536	239.74526077097505	60	127
239.58272108843536	239.74526077097505	67	127
239.7917006802721	239.93102040816328	60	127
239.7917006802721	239.93102040816328	67	127
239.97746031746033	240.73210884353742	65	127
239.97746031746033	240.4186394557823	82	127
239.97746031746033	240.66244897959183	53	127
239.97746031746033	240.9875283446712	60	127
240.4186394557823	240.73210884353742	80	127
240.81337868480725	241.1732879818594	64	127
240.81337868480725	241.1732879818594	79	127
240.81337868480725	241.1732879818594	55	127
241.2661678004535	241.8931065759637	57	127
241.2661678004535	242.2181859410431	72	127
241.2661678004535	241.8931065759637	60	127
241.2661678004535	241.67251700680274	79	127
241.67251700680274	241.97437641723357	77	127
242.0556462585034	242.39233560090702	62	127
242.0556462585034	242.39233560090702	56	127
242.0556462585034	242.39233560090702	78	127
242.47360544217688	242.89156462585035	78	127
242.47360544217688	242.8102947845805	63	127
242.47360544217688	242.8102947845805	55	127
242.47360544217688	242.8102947845805	72	127
242.89156462585035	243.15859410430838	79	127
243.3443537414966	243.64621315192744	43	127
243.3443537414966	243.64621315192744	71	127
243.3443537414966	243.64621315192744	65	127
243.3443537414966	243.64621315192744	62	127
243.95968253968255	244.40086167800453	72	127
243.95968253968255	244.40086167800453	63	127
243.95968253968255	244.40086167800453	36	127
243.95968253968255	244.40086167800453	60	127
244.52857142857144	245.05102040816325	48	127
245.91015873015874	246.50226757369614	76	127
246.50226757369614	246.71124716553288	77	127
246.71124716553288	246.8621768707483	78	127
246.8621768707483	247.01310657596372	79	127
247.01310657596372	247.2104761904762	81	127
247.2104761904762	247.3614058956916	79	127
247.3614058956916	247.54716553287983	77	127
247.54716553287983	247.7097052154195	74	127
247.7097052154195	247.8374149659864	57	127
247.7097052154195	247.8374149659864	60	127
247.7097052154195	247.8374149659864	64	127
247.7097052154195	247.8374149659864	72	127
248.13927437641723	248.29020408163265	57	127
248.13927437641723	248.29020408163265	60	127
248.13927437641723	248.29020408163265	64	127
248.13927437641723	248.29020408163265	72	127
248.5920634920635	248.66172335600908	64	127
248.5920634920635	248.66172335600908	72	127
248.5920634920635	248.66172335600908	57	127
248.5920634920635	248.66172335600908	60	127
248.92875283446713	249.02163265306123	50	127
248.92875283446713	249.02163265306123	60	127
248.92875283446713	249.02163265306123	62	127
248.92875283446713	249.02163265306123	77	127
249.2190022675737	249.30027210884353	62	127
249.2190022675737	249.30027210884353	77	127
249.2190022675737	249.30027210884353	60	127
249.2190022675737	249.30027210884353	50	127
249.56730158730159	249.67179138321995	77	127
249.56730158730159	249.67179138321995	50	127
249.56730158730159	249.67179138321995	60	127
249.56730158730159	249.67179138321995	62	127
249.938820861678	250.40321995464853	65	127
249.938820861678	250.40321995464853	62	127
249.938820861678	250.40321995464853	59	127
249.938820861678	250.40321995464853	55	127
250.821179138322	251.03015873015872	47	127
250.821179138322	251.03015873015872	59	127
250.821179138322	251.03015873015872	59	127
251.05337868480726	251.2275283446712	43	127
251.05337868480726	251.2275283446712	55	127
251.05337868480726	251.2275283446712	55	127
251.25074829931972	251.4132879818594	60	127
251.25074829931972	251.4132879818594	60	127
251.25074829931972	251.4132879818594	48	127
251.42489795918368	251.58743764172337	55	127
251.42489795918368	251.58743764172337	55	127
251.42489795918368	251.58743764172337	43	127
251.5990476190476	251.68031746031747	62	127
251.5990476190476	251.68031746031747	62	127
251.5990476190476	251.68031746031747	50	127
251.6919274376417	251.8544671201814	55	127
251.6919274376417	251.8544671201814	55	127
251.6919274376417	251.8544671201814	43	127
251.8892970521542	252.0750566893424	52	127
251.8892970521542	252.0750566893424	64	127
251.8892970521542	252.0750566893424	64	127
252.09827664399094	252.40013605442178	43	127
252.09827664399094	252.40013605442178	55	127
252.09827664399094	252.40013605442178	55	127
252.4233560090703	252.94580498866213	65	127
252.4233560090703	252.94580498866213	62	127
252.4233560090703	252.94580498866213	65	127
252.4233560090703	252.94580498866213	55	127
253.44503401360544	253.59596371882085	71	127
253.44503401360544	253.7120634920635	65	127
253.59596371882085	253.75850340136054	67	127
253.75850340136054	253.83977324263037	72	127
253.75850340136054	253.955873015873	64	127
253.83977324263037	254.0487528344671	67	127
254.0487528344671	254.31578231292517	62	127
254.0487528344671	254.19968253968253	74	127
254.19968253968253	254.40866213151926	67	127
254.40866213151926	254.69891156462586	60	127
254.40866213151926	254.58281179138322	76	127
254.58281179138322	254.76857142857142	67	127
254.76857142857142	255.38390022675736	59	127
254.76857142857142	254.97755102040816	79	127
254.97755102040816	255.12848072562358	78	127
255.12848072562358	255.34907029478458	77	127
255.34907029478458	255.5696598639456	74	127
255.5696598639456	255.95278911564625	60	127
255.5696598639456	255.73219954648525	76	127
255.73219954648525	255.95278911564625	72	127
255.95278911564625	256.1849886621315	76	127
255.95278911564625	256.2662585034014	64	127
256.1849886621315	256.3475283446712	75	127
256.3475283446712	256.5100680272109	74	127
256.3475283446712	256.64938775510205	80	127
256.5100680272109	256.7538775510204	71	127
256.7538775510204	256.96285714285716	81	127
256.7538775510204	256.8931746031746	72	127
256.8931746031746	257.0325170068027	69	127
257.0325170068027	257.2531065759637	62	127
257.0325170068027	257.3575963718821	62	127
257.2531065759637	257.4388662131519	61	127
257.4388662131519	257.65945578231293	60	127
257.4388662131519	257.65945578231293	69	127
257.4388662131519	257.74072562358276	78	127
257.65945578231293	257.83360544217686	72	127
257.65945578231293	257.83360544217686	57	127
257.83360544217686	257.92648526077096	59	127
257.83360544217686	258.0425850340136	71	127
257.83360544217686	257.9497052154195	79	127
257.92648526077096	258.0425850340136	55	127
258.0425850340136	258.2631746031746	57	127
258.0425850340136	258.1702947845805	57	127
258.0425850340136	258.3560544217687	69	127
258.2631746031746	258.3908843537415	56	127
258.3908843537415	258.7740136054422	85	127
258.3908843537415	258.634693877551	55	127
258.3908843537415	258.634693877551	76	127
258.3908843537415	258.5418140589569	69	127
258.634693877551	258.87850340136055	79	127
258.634693877551	258.87850340136055	52	127
258.87850340136055	259.2616326530612	86	127
258.87850340136055	259.3545124716553	78	127
258.87850340136055	259.0178231292517	69	127
258.87850340136055	259.1107029478458	54	127
259.1107029478458	259.3545124716553	50	127
259.3545124716553	260.5851700680272	60	127
259.3545124716553	260.5851700680272	57	127
259.3545124716553	260.9682993197279	62	127
259.3545124716553	260.5851700680272	42	127
260.7244897959184	261.01473922902494	43	127
260.7244897959184	261.01473922902494	55	127
260.7244897959184	261.01473922902494	59	127
260.9682993197279	261.1192290249433	64	127
261.2121088435374	261.3514285714286	66	127
261.3978684807256	261.51396825396824	67	127
261.5371882086168	261.64167800453515	69	127
261.722947845805	261.7925850340136	71	127
261.8738775510204	262.1525170068027	52	127
261.8738775510204	262.1525170068027	55	127
261.8738775510204	262.1525170068027	67	127
261.8738775510204	262.01319727891155	72	127
262.1060544217687	262.23378684807255	74	127
262.32666666666665	262.4775963718821	76	127
262.5704761904762	262.6168934240363	78	127
262.6168934240363	262.73301587301586	79	127
262.7910657596372	262.8026757369615	81	127
262.8955555555556	263.0232426303855	74	127
262.8955555555556	263.09292517006804	83	127
262.8955555555556	263.09292517006804	79	127
263.09292517006804	263.3019047619048	81	127
263.09292517006804	263.3019047619048	84	127
263.3019047619048	263.4180045351474	82	127
263.3019047619048	263.4180045351474	85	127
263.3019047619048	263.4180045351474	74	127
263.4180045351474	263.59215419501135	83	127
263.4180045351474	263.59215419501135	86	127
263.59215419501135	263.708253968254	74	127
263.59215419501135	263.81274376417235	84	127
263.59215419501135	263.81274376417235	81	127
263.81274376417235	264.03333333333336	78	127
263.81274376417235	264.03333333333336	81	127
264.03333333333336	264.1726530612245	67	127
264.03333333333336	264.1726530612245	79	127
264.7067120181406	264.95052154195014	67	127
264.7067120181406	264.99696145124716	47	127
264.7067120181406	264.99696145124716	55	127
264.7067120181406	264.99696145124716	62	127
264.95052154195014	265.1130612244898	74	127
265.18272108843536	265.41492063492063	74	127
265.18272108843536	265.4613605442177	64	127
265.18272108843536	265.4613605442177	55	127
265.18272108843536	265.4613605442177	48	127
265.41492063492063	265.57743764172335	72	127
265.6587301587302	265.82126984126984	72	127
265.82126984126984	265.8909297052154	71	127
265.960589569161	266.2392290249433	60	127
265.960589569161	266.2392290249433	54	127
265.960589569161	266.2392290249433	50	127
265.960589569161	266.1927664399093	71	127
266.1927664399093	266.35532879818595	69	127
266.41337868480724	266.72684807256235	59	127
266.41337868480724	266.72684807256235	52	127
266.41337868480724	266.72684807256235	55	127
266.41337868480724	266.6804081632653	69	127
266.6804081632653	266.81972789115645	67	127
266.88938775510206	267.0170975056689	67	127
267.0170975056689	267.10995464852607	74	127
267.1564172335601	267.44666666666666	62	127
267.1564172335601	267.44666666666666	47	127
267.1564172335601	267.40022675736964	74	127
267.1564172335601	267.44666666666666	59	127
267.40022675736964	267.551156462585	72	127
267.6092063492064	267.8762358276644	64	127
267.6092063492064	267.8762358276644	48	127
267.6092063492064	267.8762358276644	59	127
267.6092063492064	267.8297732426304	72	127
267.8297732426304	267.95750566893423	71	127
267.99233560090704	268.07360544217687	71	127
268.07360544217687	268.2361224489796	69	127
268.2941950113379	268.607664399093	60	127
268.2941950113379	268.607664399093	54	127
268.2941950113379	268.607664399093	50	127
268.2941950113379	268.5612244897959	69	127
268.5612244897959	268.7237641723356	67	127
268.7934240362812	269.0720634920635	43	127
268.7934240362812	269.0720634920635	55	127
268.7934240362812	269.0720634920635	59	127
268.7934240362812	269.0720634920635	67	127
269.58290249433105	269.8267120181406	66	127
269.58290249433105	269.8267120181406	66	127
269.58290249433105	269.8267120181406	54	127
269.8267120181406	269.98925170068026	67	127
269.8267120181406	269.98925170068026	67	127
269.8267120181406	269.98925170068026	55	127
269.98925170068026	270.1401814058957	68	127
269.98925170068026	270.1401814058957	68	127
269.98925170068026	270.1401814058957	56	127
270.1401814058957	270.31433106575963	57	127
270.1401814058957	270.31433106575963	69	127
270.1401814058957	270.31433106575963	69	127
270.31433106575963	270.5465306122449	70	127
270.31433106575963	270.5465306122449	70	127
270.31433106575963	270.5465306122449	58	127
270.5465306122449	270.7439002267574	57	127
270.5465306122449	270.7439002267574	69	127
270.5465306122449	270.7439002267574	69	127
270.7439002267574	270.88321995464855	55	127
270.7439002267574	270.88321995464855	67	127
270.7439002267574	270.88321995464855	67	127
270.88321995464855	271.0573696145125	52	127
270.88321995464855	271.0573696145125	64	127
270.88321995464855	271.0573696145125	64	127
271.0573696145125	271.16185941043085	62	127
271.0573696145125	271.16185941043085	62	127
271.0573696145125	271.16185941043085	50	127
271.4288888888889	271.521768707483	62	127
271.4288888888889	271.521768707483	50	127
271.4288888888889	271.521768707483	62	127
271.75396825396825	271.8584580498866	62	127
271.75396825396825	271.8584580498866	50	127
271.75396825396825	271.8584580498866	62	127
272.16031746031746	272.3112471655329	55	127
272.16031746031746	272.3112471655329	67	127
272.16031746031746	272.3112471655329	67	127
272.60149659863947	272.7175963718821	67	127
272.60149659863947	272.7175963718821	67	127
272.60149659863947	272.7175963718821	55	127
272.9962358276644	273.1007256235828	67	127
272.9962358276644	273.1007256235828	67	127
272.9962358276644	273.1007256235828	55	127
273.3097052154195	273.6347845804989	58	127
273.3097052154195	274.4939229024943	58	127
273.3097052154195	274.4939229024943	58	127
273.3097052154195	274.4939229024943	46	127
274.0875736961451	274.29655328798185	72	127
274.29655328798185	274.4939229024943	74	127
274.4939229024943	275.43433106575964	74	127
274.4939229024943	275.43433106575964	46	127
274.4939229024943	274.7145124716553	75	127
274.4939229024943	275.15569160997734	62	127
274.7145124716553	274.93510204081633	76	127
274.93510204081633	275.10925170068026	77	127
275.10925170068026	275.30662131519273	78	127
275.30662131519273	275.62009070294783	64	127
275.30662131519273	275.4807709750567	79	127
275.4807709750567	275.71297052154193	80	127
275.71297052154193	275.84068027210884	81	127
275.71297052154193	275.84068027210884	74	127
275.71297052154193	275.84068027210884	65	127
275.71297052154193	275.84068027210884	45	127
276.3979591836735	276.52566893424034	81	127
276.3979591836735	276.52566893424034	57	127
276.3979591836735	276.52566893424034	74	127
276.3979591836735	276.52566893424034	65	127
277.09455782312926	277.2106575963719	57	127
277.09455782312926	277.2106575963719	64	127
277.09455782312926	277.2106575963719	73	127
277.09455782312926	277.2106575963719	67	127
277.524126984127	277.6286167800454	73	127
277.524126984127	277.6286167800454	67	127
277.524126984127	277.6286167800454	64	127
277.524126984127	277.6286167800454	57	127
277.524126984127	277.69827664399094	54	127
277.69827664399094	277.8608163265306	55	127
277.8608163265306	278.847664399093	62	127
277.8608163265306	278.06979591836733	56	127
277.8608163265306	278.4993650793651	66	127
277.8608163265306	278.847664399093	72	127
278.06979591836733	278.27877551020407	57	127
278.27877551020407	278.45290249433106	58	127
278.45290249433106	278.673514739229	57	127
278.673514739229	278.89410430839	69	127
278.673514739229	278.89410430839	54	127
278.89410430839	279.114693877551	50	127
278.89410430839	279.114693877551	66	127
279.114693877551	279.5210430839002	67	127
279.114693877551	279.6139229024943	72	127
279.114693877551	279.5210430839002	55	127
279.114693877551	279.5210430839002	60	127
279.6139229024943	279.74163265306123	71	127
279.74163265306123	279.9738321995465	52	127
279.74163265306123	280.14798185941044	67	127
279.9738321995465	280.14798185941044	53	127
280.14798185941044	280.82136054421767	64	127
280.14798185941044	281.18126984126985	60	127
280.14798185941044	280.36857142857144	54	127
280.14798185941044	281.18126984126985	70	127
280.36857142857144	280.61238095238093	55	127
280.61238095238093	280.7981405895692	57	127
280.7981405895692	280.9839002267574	55	127
280.9839002267574	281.21607709750566	52	127
280.9839002267574	281.21607709750566	67	127
281.21607709750566	281.45990929705215	48	127
281.21607709750566	281.45990929705215	64	127
281.45990929705215	281.9707482993197	70	127
281.45990929705215	281.8778684807256	53	127
281.45990929705215	281.8778684807256	60	127
281.45990929705215	281.8778684807256	65	127
281.9707482993197	282.2958276643991	69	127
282.3887074829932	282.5280272108844	77	127
282.5280272108844	282.5744671201814	79	127
282.5744671201814	283.3291156462585	65	127
282.5744671201814	283.3291156462585	72	127
282.5744671201814	282.7137868480726	80	127
282.7137868480726	282.87632653061223	81	127
282.87632653061223	283.1085260770975	82	127
283.1085260770975	283.3291156462585	81	127
283.3291156462585	283.747074829932	61	127
283.3291156462585	283.747074829932	70	127
283.3291156462585	283.57290249433106	79	127
283.57290249433106	283.747074829932	76	127
283.747074829932	283.8980045351474	76	127
283.747074829932	284.35079365079366	69	127
283.747074829932	284.35079365079366	62	127
283.8980045351474	283.967664399093	77	127
283.967664399093	284.17664399092973	79	127
284.17664399092973	284.35079365079366	77	127
284.35079365079366	284.7455328798186	64	127
284.35079365079366	284.7455328798186	67	127
284.35079365079366	284.53655328798186	76	127
284.53655328798186	284.7455328798186	73	127
284.7455328798186	284.90807256235826	73	127
284.7455328798186	285.117052154195	65	127
284.7455328798186	285.44213151927437	69	127
284.90807256235826	285.117052154195	74	127
285.117052154195	285.36086167800454	62	127
285.117052154195	285.36086167800454	53	127
285.117052154195	285.2447619047619	76	127
285.2447619047619	285.44213151927437	74	127
285.44213151927437	285.7904308390023	62	127
285.44213151927437	285.63950113378684	57	127
285.44213151927437	285.63950113378684	72	127
285.44213151927437	285.7904308390023	54	127
285.63950113378684	285.8484807256236	60	127
285.63950113378684	285.8484807256236	69	127
285.8484807256236	286.1503401360544	55	127
285.8484807256236	286.7772789115646	67	127
285.8484807256236	286.1503401360544	59	127
285.8484807256236	286.02260770975056	61	127
286.02260770975056	286.22	62	127
286.22	286.5566893424036	43	127
286.22	286.4173696145125	64	127
286.4173696145125	286.6495691609977	62	127
286.6495691609977	286.7772789115646	60	127
286.6495691609977	286.7772789115646	62	127
286.7772789115646	287.02108843537417	57	127
286.7772789115646	287.02108843537417	63	127
287.02108843537417	287.93827664399095	67	127
287.02108843537417	287.3809977324263	59	127
287.02108843537417	287.2416780045352	64	127
287.2416780045352	287.4622675736961	65	127
287.4622675736961	287.70607709750567	67	127
287.4622675736961	287.79895691609977	47	127
287.70607709750567	287.8337868480726	65	127
287.8337868480726	288.1124263038549	48	127
287.8337868480726	287.97308390022675	64	127
287.97308390022675	288.18208616780043	60	127
288.18208616780043	288.5071655328798	43	127
288.18208616780043	288.5071655328798	59	127
288.18208616780043	288.5071655328798	62	127
288.18208616780043	288.5071655328798	67	127
288.6000453514739	288.8554648526077	79	127
288.6000453514739	288.8554648526077	55	127
288.9599546485261	289.16893424036283	71	127
288.9599546485261	289.2385941043084	79	127
288.9599546485261	289.16893424036283	74	127
289.16893424036283	289.29662131519274	72	127
289.16893424036283	289.29662131519274	75	127
289.29662131519274	289.4939909297052	73	127
289.29662131519274	290.60857142857145	79	127
289.29662131519274	289.4939909297052	76	127
289.4939909297052	289.6101133786848	77	127
289.4939909297052	289.6101133786848	74	127
289.6101133786848	289.8655328798186	59	127
289.6101133786848	289.79587301587304	76	127
289.6101133786848	289.79587301587304	79	127
289.79587301587304	289.93519274376416	74	127
289.79587301587304	289.93519274376416	77	127
289.93519274376416	290.12095238095236	76	127
289.93519274376416	290.2718820861678	60	127
289.93519274376416	290.12095238095236	72	127
290.12095238095236	290.3647619047619	69	127
290.12095238095236	290.3647619047619	72	127
290.3647619047619	290.7362811791383	74	127
290.3647619047619	290.7362811791383	71	127
290.3647619047619	290.7362811791383	55	127
290.60857142857145	290.82913832199546	78	127
290.82913832199546	291.0381179138322	79	127
291.0381179138322	291.1774603174603	77	127
291.1774603174603	291.3980498866213	72	127
291.1774603174603	291.3980498866213	76	127
291.3980498866213	291.54895691609977	77	127
291.3980498866213	291.54895691609977	74	127
291.54895691609977	291.6882993197279	75	127
291.54895691609977	291.6882993197279	78	127
291.6882993197279	291.8160090702948	76	127
291.6882993197279	291.8160090702948	79	127
291.8160090702948	292.0365986394558	81	127
291.8160090702948	292.0365986394558	77	127
292.0365986394558	292.2571655328798	79	127
292.0365986394558	292.2571655328798	76	127
292.2571655328798	292.48938775510203	66	127
292.2571655328798	292.48938775510203	74	127
292.2571655328798	292.48938775510203	77	127
292.48938775510203	292.65192743764175	74	127
292.48938775510203	292.65192743764175	71	127
292.48938775510203	292.65192743764175	67	127
292.65192743764175	292.74480725623584	72	127
292.65192743764175	292.80285714285714	68	127
292.80285714285714	292.9421768707483	69	127
292.9421768707483	293.0931065759637	70	127
292.9421768707483	293.0118367346939	72	127
292.9421768707483	293.0118367346939	64	127
293.0931065759637	293.3136961451247	69	127
293.3136961451247	293.42979591836735	64	127
293.3136961451247	293.4878231292517	47	127
293.3136961451247	293.4878231292517	67	127
293.3136961451247	293.42979591836735	72	127
293.4878231292517	293.69680272108843	64	127
293.4878231292517	293.69680272108843	48	127
293.69680272108843	293.83614512471655	48	127
293.69680272108843	293.7316553287982	62	127
293.69680272108843	293.7316553287982	57	127
293.69680272108843	293.7316553287982	77	127
293.83614512471655	294.0451247165533	50	127
294.0451247165533	294.18444444444447	52	127
294.0451247165533	294.1612244897959	62	127
294.0451247165533	294.1612244897959	57	127
294.0451247165533	294.1612244897959	77	127
294.18444444444447	294.3934240362812	50	127
294.3934240362812	294.59079365079367	48	127
294.3934240362812	294.4863038548753	62	127
294.3934240362812	294.4863038548753	57	127
294.3934240362812	294.4863038548753	77	127
294.59079365079367	294.7997732426304	45	127
294.7997732426304	295.1132426303855	65	127
294.7997732426304	295.1132426303855	62	127
294.7997732426304	295.1132426303855	59	127
294.7997732426304	295.1132426303855	43	127
295.5892517006803	295.7634013605442	59	127
295.5892517006803	295.7634013605442	59	127
295.5892517006803	295.7634013605442	47	127
295.82145124716556	295.9956009070295	43	127
295.82145124716556	295.9956009070295	55	127
295.82145124716556	295.9956009070295	55	127
296.018820861678	296.14650793650793	48	127
296.018820861678	296.14650793650793	60	127
296.018820861678	296.14650793650793	60	127
296.15814058956914	296.3438775510204	55	127
296.15814058956914	296.3438775510204	55	127
296.15814058956914	296.3438775510204	43	127
296.37873015873015	296.54126984126987	50	127
296.37873015873015	296.54126984126987	62	127
296.37873015873015	296.54126984126987	62	127
296.56448979591835	296.73863945578233	43	127
296.56448979591835	296.73863945578233	55	127
296.56448979591835	296.73863945578233	55	127
296.78507936507935	296.95920634920634	64	127
296.78507936507935	296.95920634920634	64	127
296.78507936507935	296.95920634920634	52	127
297.00566893424036	297.2146485260771	43	127
297.00566893424036	297.2146485260771	55	127
297.00566893424036	297.2146485260771	55	127
297.2610884353742	297.69065759637186	62	127
297.2610884353742	297.69065759637186	55	127
297.2610884353742	297.69065759637186	65	127
297.2610884353742	297.69065759637186	65	127
298.2595464852608	298.51496598639454	65	127
298.2595464852608	298.3756462585034	71	127
298.3756462585034	298.5730158730159	67	127
298.5730158730159	298.7007029478458	72	127
298.5730158730159	298.8400453514739	64	127
298.7007029478458	298.92131519274375	67	127
298.92131519274375	299.153514739229	62	127
298.92131519274375	299.00256235827663	74	127
299.00256235827663	299.23478458049885	67	127
299.23478458049885	299.4321541950113	76	127
299.23478458049885	299.5714739229025	60	127
299.4321541950113	299.6527437641723	67	127
299.6527437641723	300.40739229024945	59	127
299.6527437641723	299.8501133786848	79	127
299.8501133786848	300.00104308390024	78	127
300.00104308390024	300.18680272108844	77	127
300.18680272108844	300.40739229024945	74	127
300.40739229024945	300.8253514739229	60	127
300.40739229024945	300.6163718820862	76	127
300.6163718820862	300.8253514739229	72	127
300.8253514739229	300.9878911564626	72	127
300.8253514739229	301.1039909297052	60	127
300.9878911564626	301.1968707482993	71	127
301.1968707482993	301.56836734693877	76	127
301.1968707482993	301.4290702947846	70	127
301.4290702947846	301.6148299319728	67	127
301.6148299319728	301.68448979591835	69	127
301.6148299319728	301.7889795918367	77	127
301.68448979591835	301.82380952380953	65	127
301.82380952380953	301.99795918367346	69	127
301.82380952380953	302.12566893424037	69	127
301.99795918367346	302.21854875283447	68	127
302.21854875283447	302.4391383219955	76	127
302.21854875283447	302.4391383219955	67	127
302.21854875283447	302.54362811791384	85	127
302.4391383219955	302.5668480725624	79	127
302.4391383219955	302.5668480725624	64	127
302.5668480725624	302.72938775510204	86	127
302.5668480725624	302.6945351473923	66	127
302.5668480725624	302.7874149659864	78	127
302.6945351473923	302.7874149659864	62	127
302.7874149659864	303.17056689342405	55	127
302.7874149659864	303.0312471655329	55	127
302.7874149659864	303.17056689342405	67	127
303.0312471655329	303.2750566893424	54	127
303.2750566893424	303.6581859410431	67	127
303.2750566893424	303.6581859410431	83	127
303.2750566893424	303.5072335600907	53	127
303.5072335600907	303.7394557823129	50	127
303.7394557823129	304.13419501133785	84	127
303.7394557823129	304.13419501133785	67	127
303.7394557823129	303.99487528344673	52	127
303.99487528344673	304.227052154195	48	127
304.227052154195	305.3184126984127	57	127
304.227052154195	305.3184126984127	60	127
304.227052154195	305.3184126984127	41	127
304.227052154195	305.80603174603175	62	127
305.6086621315193	305.9801814058957	42	127
305.6086621315193	305.9801814058957	57	127
305.6086621315193	305.9801814058957	60	127
305.8524489795918	306.038231292517	64	127
306.08467120181405	306.2239909297052	66	127
306.30526077097505	306.43297052154196	67	127
306.49102040816325	306.5955102040816	69	127
306.65356009070297	306.7348299319728	71	127
306.8277097505669	307.1760090702948	43	127
306.8277097505669	307.1760090702948	60	127
306.8277097505669	307.1760090702948	64	127
306.8277097505669	306.9670294784581	72	127
307.0482993197279	307.1760090702948	74	127
307.2804988662132	307.4198185941043	76	127
307.5126984126984	307.6520181405896	77	127
307.6520181405896	307.7332879818594	79	127
307.8377777777778	308.03514739229024	76	127
307.8377777777778	308.12802721088434	67	127
307.8377777777778	308.06997732426305	79	127
308.06997732426305	308.16285714285715	78	127
308.06997732426305	308.1396371882086	75	127
308.16285714285715	308.3370068027211	74	127
308.16285714285715	308.3718367346939	77	127
308.16285714285715	308.51113378684806	67	127
308.3718367346939	308.5575963718821	72	127
308.3718367346939	308.60403628117916	76	127
308.60403628117916	308.8594557823129	67	127
308.60403628117916	308.7665759637188	77	127
308.60403628117916	308.7201133786848	74	127
308.7665759637188	308.952335600907	74	127
308.7665759637188	308.90589569161	71	127
308.952335600907	309.2193650793651	72	127
308.952335600907	309.2193650793651	60	127
309.69537414965987	310.07850340136054	67	127
309.69537414965987	310.07850340136054	60	127
309.69537414965987	310.07850340136054	52	127
309.69537414965987	309.89274376417234	72	127
309.9391836734694	310.1249433106576	79	127
310.14814058956915	310.47324263038547	60	127
310.14814058956915	310.47324263038547	53	127
310.14814058956915	310.3223129251701	79	127
310.14814058956915	310.47324263038547	69	127
310.3223129251701	310.47324263038547	77	127
310.5429024943311	310.6938321995465	77	127
310.6938321995465	310.7867120181406	76	127
310.86795918367346	311.1234013605442	76	127
310.86795918367346	311.25111111111113	65	127
310.86795918367346	311.25111111111113	59	127
310.86795918367346	311.25111111111113	55	127
311.1234013605442	311.25111111111113	74	127
311.3439909297052	311.7155102040816	60	127
311.3439909297052	311.7155102040816	57	127
311.3439909297052	311.5761904761905	74	127
311.3439909297052	311.7155102040816	64	127
311.5761904761905	311.7155102040816	72	127
311.8083900226757	312.01736961451246	72	127
312.01736961451246	312.0754195011338	79	127
312.12185941043083	312.47015873015874	67	127
312.12185941043083	312.3540589569161	79	127
312.12185941043083	312.47015873015874	52	127
312.12185941043083	312.47015873015874	60	127
312.3540589569161	312.47015873015874	77	127
312.52820861678003	312.7371882086168	77	127
312.52820861678003	312.87650793650795	53	127
312.52820861678003	312.87650793650795	60	127
312.52820861678003	312.87650793650795	69	127
312.7371882086168	312.87650793650795	76	127
312.9577777777778	313.15514739229025	76	127
313.15514739229025	313.2596371882086	74	127
313.3292970521542	313.51505668934243	74	127
313.3292970521542	313.60793650793653	55	127
313.3292970521542	313.60793650793653	65	127
313.3292970521542	313.60793650793653	59	127
313.51505668934243	313.60793650793653	72	127
313.68920634920636	314.01428571428573	64	127
313.68920634920636	314.01428571428573	60	127
313.68920634920636	314.01428571428573	48	127
313.68920634920636	314.3625850340136	72	127
314.54832199546485	314.8966439909297	40	127
314.54832199546485	314.8966439909297	60	127
314.54832199546485	314.78054421768707	60	127
314.54832199546485	314.8966439909297	79	127
314.78054421768707	314.908253968254	67	127
314.9895238095238	315.6512925170068	81	127
314.9895238095238	315.2217233560091	67	127
314.9895238095238	315.36102040816326	57	127
314.9895238095238	315.36102040816326	41	127
315.2217233560091	315.37265306122447	65	127
315.4074829931973	315.60485260770974	65	127
315.60485260770974	315.69773242630384	64	127
315.69773242630384	315.9067120181406	64	127
315.69773242630384	315.96476190476193	43	127
315.69773242630384	315.96476190476193	53	127
315.69773242630384	315.96476190476193	83	127
315.9067120181406	315.9879818594104	62	127
316.0692517006803	316.2898185941043	62	127
316.0692517006803	316.6961678004535	84	127
316.0692517006803	316.3826984126984	52	127
316.0692517006803	316.3826984126984	45	127
316.2898185941043	316.3826984126984	60	127
316.45238095238096	316.64975056689343	60	127
316.64975056689343	316.76585034013607	67	127
316.82390022675736	317.160589569161	40	127
316.82390022675736	317.160589569161	79	127
316.82390022675736	317.04448979591837	58	127
316.82390022675736	317.04448979591837	67	127
317.04448979591837	317.18380952380954	57	127
317.04448979591837	317.18380952380954	65	127
317.23024943310656	317.59015873015875	81	127
317.23024943310656	317.45083900226757	57	127
317.23024943310656	317.59015873015875	41	127
317.23024943310656	317.45083900226757	65	127
317.45083900226757	317.6133560090703	55	127
317.45083900226757	317.6133560090703	64	127
317.6598185941043	317.8920181405896	55	127
317.6598185941043	317.8920181405896	64	127
317.6598185941043	318.0661678004535	81	127
317.6598185941043	318.0661678004535	38	127
317.8920181405896	318.08938775510205	62	127
317.8920181405896	318.08938775510205	53	127
318.1706575963719	318.6582766439909	43	127
318.1706575963719	318.4725170068027	53	127
318.1706575963719	318.4725170068027	62	127
318.1706575963719	318.24031746031744	84	127
318.263537414966	318.3448072562358	83	127
318.3564172335601	318.43766439909297	84	127
318.4725170068027	318.6931065759637	60	127
318.4725170068027	318.5421768707483	83	127
318.4725170068027	318.6931065759637	52	127
318.5770068027211	318.6582766439909	81	127
318.68149659863946	318.7627664399093	83	127
318.77437641723355	319.2503628117914	36	127
318.77437641723355	319.2503628117914	52	127
318.77437641723355	319.2503628117914	60	127
318.77437641723355	319.2503628117914	84	127
