# onset,offset,note,velocity
0.3475283446712018	0.405578231292517	79	127
0.521655328798186	0.5913378684807257	79	127
0.707437641723356	1.0905668934240362	60	127
0.707437641723356	1.299546485260771	79	127
0.707437641723356	0.9280272108843537	67	127
0.707437641723356	0.9280272108843537	64	127
0.9280272108843537	1.0905668934240362	64	127
0.9280272108843537	1.0905668934240362	60	127
1.0905668934240362	1.299546485260771	67	127
1.0905668934240362	1.299546485260771	64	127
1.299546485260771	1.4853061224489796	84	127
1.4853061224489796	1.6826757369614513	65	127
1.4853061224489796	1.6826757369614513	62	127
1.4853061224489796	1.8684353741496598	55	127
1.4853061224489796	2.089024943310658	83	127
1.6826757369614513	1.8684353741496598	62	127
1.6826757369614513	1.8684353741496598	59	127
1.8684353741496598	2.089024943310658	65	127
1.8684353741496598	2.089024943310658	62	127
2.089024943310658	2.2399546485260773	77	127
2.2399546485260773	2.437301587301587	76	127
2.2399546485260773	2.437301587301587	48	127
2.437301587301587	2.6346938775510202	72	127
2.437301587301587	2.6346938775510202	67	127
2.437301587301587	2.6346938775510202	52	127
2.6346938775510202	2.832063492063492	69	127
2.6346938775510202	2.832063492063492	60	127
2.6346938775510202	2.832063492063492	53	127
2.832063492063492	3.017823129251701	74	127
2.832063492063492	3.017823129251701	69	127
2.832063492063492	3.017823129251701	54	127
3.017823129251701	3.1919727891156464	72	127
3.017823129251701	3.1919727891156464	64	127
3.017823129251701	3.389342403628118	55	127
3.1919727891156464	3.3545124716553287	71	127
3.1919727891156464	3.3545124716553287	62	127
3.1919727891156464	3.3545124716553287	67	127
3.389342403628118	3.5286621315192743	67	127
3.389342403628118	3.5286621315192743	66	127
3.5983219954648527	3.726031746031746	67	127
3.5983219954648527	3.726031746031746	65	127
3.807301587301587	3.8537414965986394	72	127
3.807301587301587	3.8537414965986394	67	127
3.807301587301587	3.8537414965986394	64	127
3.993061224489796	4.051111111111111	72	127
3.993061224489796	4.051111111111111	67	127
3.993061224489796	4.051111111111111	64	127
4.190430839002268	4.248458049886621	73	127
4.190430839002268	4.248458049886621	67	127
4.190430839002268	4.248458049886621	64	127
4.387800453514739	4.4458503401360545	64	127
4.387800453514739	4.4458503401360545	73	127
4.387800453514739	4.4458503401360545	67	127
4.527120181405896	4.585170068027211	74	127
4.527120181405896	4.585170068027211	67	127
4.527120181405896	4.585170068027211	59	127
4.724467120181406	4.782539682539682	74	127
4.724467120181406	4.782539682539682	67	127
4.724467120181406	4.782539682539682	59	127
4.88702947845805	4.945056689342404	75	127
4.88702947845805	4.945056689342404	67	127
4.88702947845805	4.945056689342404	59	127
5.072766439909297	5.096009070294785	75	127
5.072766439909297	5.096009070294785	67	127
5.072766439909297	5.096009070294785	59	127
5.235328798185941	5.444308390022676	76	127
5.235328798185941	5.444308390022676	67	127
5.235328798185941	5.444308390022676	60	127
5.444308390022676	5.641678004535147	79	127
5.444308390022676	5.641678004535147	64	127
5.444308390022676	5.641678004535147	58	127
5.444308390022676	5.815827664399093	72	127
5.641678004535147	5.815827664399093	65	127
5.641678004535147	5.815827664399093	77	127
5.641678004535147	5.815827664399093	57	127
5.815827664399093	6.001587301587302	72	127
5.815827664399093	6.001587301587302	60	127
5.815827664399093	6.001587301587302	53	127
5.815827664399093	6.001587301587302	81	127
6.001587301587302	6.222176870748299	72	127
6.001587301587302	6.419546485260771	67	127
6.001587301587302	6.419546485260771	55	127
6.001587301587302	6.222176870748299	76	127
6.222176870748299	6.373106575963718	74	127
6.222176870748299	6.373106575963718	71	127
6.419546485260771	6.477596371882086	79	127
6.570476190476191	6.616916099773243	79	127
6.733015873015873	6.837505668934241	64	127
6.733015873015873	6.837505668934241	60	127
6.733015873015873	6.860725623582766	48	127
6.733015873015873	7.348344671201814	79	127
6.837505668934241	6.930385487528345	60	127
6.837505668934241	6.930385487528345	55	127
6.930385487528345	7.034875283446712	64	127
6.930385487528345	7.034875283446712	60	127
6.930385487528345	7.058095238095238	48	127
7.034875283446712	7.13936507936508	60	127
7.034875283446712	7.13936507936508	55	127
7.13936507936508	7.25546485260771	48	127
7.13936507936508	7.348344671201814	64	127
7.13936507936508	7.348344671201814	60	127
7.348344671201814	7.545714285714285	84	127
7.545714285714285	7.661814058956916	65	127
7.545714285714285	7.661814058956916	62	127
7.545714285714285	7.685034013605442	55	127
7.545714285714285	8.172630385487528	83	127
7.661814058956916	7.754693877551021	62	127
7.661814058956916	7.754693877551021	59	127
7.754693877551021	7.859183673469388	65	127
7.754693877551021	7.859183673469388	62	127
7.754693877551021	7.882403628117914	55	127
7.859183673469388	7.975283446712018	62	127
7.859183673469388	7.975283446712018	59	127
7.975283446712018	8.091383219954649	55	127
7.975283446712018	8.172630385487528	65	127
7.975283446712018	8.172630385487528	62	127
8.172630385487528	8.323582766439909	77	127
8.323582766439909	8.416462585034013	60	127
8.323582766439909	8.486122448979591	76	127
8.486122448979591	8.695102040816327	72	127
8.486122448979591	8.695102040816327	67	127
8.486122448979591	8.695102040816327	52	127
8.695102040816327	8.892471655328798	69	127
8.695102040816327	8.892471655328798	60	127
8.695102040816327	8.892471655328798	53	127
8.892471655328798	9.078231292517007	74	127
8.892471655328798	9.078231292517007	69	127
8.892471655328798	9.078231292517007	54	127
9.078231292517007	9.240770975056689	64	127
9.078231292517007	9.275600907029478	72	127
9.078231292517007	9.275600907029478	55	127
9.275600907029478	9.333650793650794	71	127
9.275600907029478	9.333650793650794	62	127
9.275600907029478	9.333650793650794	53	127
9.461360544217687	9.519410430839002	72	127
9.461360544217687	9.519410430839002	60	127
9.461360544217687	9.519410430839002	55	127
9.461360544217687	9.519410430839002	52	127
9.647120181405896	9.693537414965986	72	127
9.647120181405896	9.693537414965986	60	127
9.647120181405896	9.693537414965986	55	127
9.647120181405896	9.693537414965986	52	127
9.82124716553288	9.879319727891156	74	127
9.82124716553288	9.879319727891156	60	127
9.82124716553288	9.879319727891156	57	127
9.82124716553288	9.879319727891156	53	127
10.00702947845805	10.076666666666666	74	127
10.00702947845805	10.076666666666666	60	127
10.00702947845805	10.076666666666666	57	127
10.00702947845805	10.076666666666666	53	127
10.204399092970522	10.2740589569161	76	127
10.204399092970522	10.2740589569161	60	127
10.204399092970522	10.2740589569161	58	127
10.204399092970522	10.2740589569161	55	127
10.424965986394557	10.483038548752834	76	127
10.424965986394557	10.483038548752834	60	127
10.424965986394557	10.483038548752834	58	127
10.424965986394557	10.483038548752834	55	127
10.610748299319727	10.65718820861678	77	127
10.610748299319727	10.65718820861678	72	127
10.610748299319727	10.65718820861678	60	127
10.610748299319727	10.65718820861678	57	127
10.796507936507936	10.854557823129252	77	127
10.796507936507936	10.854557823129252	72	127
10.796507936507936	10.854557823129252	60	127
10.796507936507936	10.854557823129252	57	127
10.993854875283446	11.051927437641723	78	127
10.993854875283446	11.051927437641723	72	127
10.993854875283446	11.051927437641723	62	127
10.993854875283446	11.051927437641723	56	127
11.19124716553288	11.260907029478458	78	127
11.19124716553288	11.260907029478458	72	127
11.19124716553288	11.260907029478458	62	127
11.19124716553288	11.260907029478458	56	127
11.400226757369614	11.527936507936507	64	127
11.400226757369614	11.527936507936507	55	127
11.400226757369614	11.60920634920635	79	127
11.400226757369614	11.713696145124716	72	127
11.60920634920635	11.713696145124716	60	127
11.60920634920635	11.713696145124716	55	127
11.60920634920635	11.76013605442177	76	127
11.794965986394558	11.887845804988663	79	127
11.794965986394558	11.887845804988663	76	127
11.794965986394558	11.899455782312925	67	127
11.794965986394558	11.899455782312925	55	127
11.887845804988663	11.980725623582767	77	127
11.887845804988663	11.980725623582767	74	127
11.980725623582767	12.085215419501134	76	127
11.980725623582767	12.085215419501134	72	127
11.980725623582767	12.10843537414966	67	127
11.980725623582767	12.10843537414966	55	127
12.085215419501134	12.178095238095239	74	127
12.085215419501134	12.178095238095239	71	127
12.178095238095239	12.329024943310658	72	127
12.178095238095239	12.329024943310658	64	127
12.178095238095239	12.329024943310658	48	127
12.619274376417234	12.665714285714285	60	127
12.619274376417234	12.665714285714285	60	127
12.619274376417234	12.665714285714285	48	127
12.793424036281179	12.863083900226757	60	127
12.793424036281179	12.863083900226757	60	127
12.793424036281179	12.863083900226757	48	127
13.095283446712019	13.281043083900228	59	127
13.095283446712019	13.281043083900228	59	127
13.095283446712019	13.281043083900228	47	127
13.652562358276644	13.710612244897959	77	127
13.849931972789115	13.90798185941043	77	127
14.047301587301588	14.198231292517006	43	127
14.047301587301588	14.29111111111111	77	127
14.29111111111111	14.383990929705215	79	127
14.29111111111111	14.407210884353741	55	127
14.383990929705215	14.488480725623583	81	127
14.488480725623583	14.546530612244897	65	127
14.488480725623583	14.546530612244897	62	127
14.488480725623583	14.581360544217688	79	127
14.488480725623583	14.604580498866213	55	127
14.581360544217688	14.685850340136055	77	127
14.685850340136055	14.74390022675737	65	127
14.685850340136055	14.74390022675737	62	127
14.685850340136055	14.790340136054422	76	127
14.685850340136055	14.801950113378684	55	127
14.790340136054422	14.883219954648526	74	127
14.883219954648526	15.01092970521542	55	127
14.883219954648526	15.092199546485261	72	127
14.883219954648526	15.092199546485261	65	127
14.883219954648526	15.382448979591837	64	127
15.092199546485261	15.185079365079366	67	127
15.092199546485261	15.20829931972789	55	127
15.092199546485261	15.498548752834466	71	127
15.185079365079366	15.301179138321995	69	127
15.301179138321995	15.3940589569161	67	127
15.301179138321995	15.417278911564626	55	127
15.3940589569161	15.498548752834466	65	127
15.498548752834466	15.62625850340136	64	127
15.498548752834466	15.637868480725624	55	127
15.498548752834466	15.707528344671202	64	127
15.498548752834466	15.74235827664399	72	127
15.62625850340136	15.74235827664399	62	127
15.74235827664399	15.997777777777777	60	127
15.74235827664399	15.9281179138322	55	127
15.74235827664399	15.962947845804988	65	127
15.74235827664399	15.997777777777777	73	127
15.997777777777777	16.171927437641724	74	127
15.997777777777777	16.218367346938777	59	127
16.218367346938777	16.322857142857142	60	127
16.218367346938777	16.322857142857142	60	127
16.218367346938777	16.322857142857142	48	127
16.49700680272109	16.555056689342404	60	127
16.49700680272109	16.555056689342404	60	127
16.49700680272109	16.555056689342404	48	127
16.7756462585034	16.926575963718822	59	127
16.7756462585034	16.926575963718822	59	127
16.7756462585034	16.926575963718822	47	127
17.29809523809524	17.356145124716555	77	127
17.49546485260771	17.553514739229026	77	127
17.692834467120182	17.8553514739229	77	127
17.692834467120182	17.8553514739229	43	127
17.901814058956916	17.983061224489795	79	127
17.901814058956916	18.075963718820862	55	127
18.017913832199547	18.099183673469387	81	127
18.122403628117915	18.18045351473923	65	127
18.122403628117915	18.18045351473923	62	127
18.122403628117915	18.192063492063493	79	127
18.122403628117915	18.273333333333333	55	127
18.215283446712018	18.296553287981858	77	127
18.33138321995465	18.41265306122449	65	127
18.33138321995465	18.41265306122449	62	127
18.33138321995465	18.435873015873018	76	127
18.33138321995465	18.517142857142858	55	127
18.44748299319728	18.52875283446712	74	127
18.551972789115645	18.71451247165533	72	127
18.551972789115645	18.71451247165533	65	127
18.551972789115645	18.71451247165533	55	127
18.551972789115645	19.039591836734694	62	127
18.760952380952382	18.842222222222222	67	127
18.760952380952382	18.923492063492063	55	127
18.760952380952382	19.086031746031747	71	127
18.865442176870747	18.94671201814059	69	127
18.958321995464853	19.039591836734694	67	127
18.958321995464853	19.120861678004534	55	127
19.062789115646257	19.144081632653062	65	127
19.167301587301587	19.248571428571427	64	127
19.167301587301587	19.32984126984127	72	127
19.167301587301587	19.32984126984127	64	127
19.167301587301587	19.32984126984127	55	127
19.260181405895693	19.37628117913832	62	127
19.422721088435374	19.67814058956916	76	127
19.422721088435374	19.67814058956916	60	127
19.422721088435374	19.67814058956916	66	127
19.422721088435374	19.67814058956916	55	127
19.67814058956916	19.875510204081632	74	127
19.67814058956916	19.875510204081632	59	127
19.67814058956916	19.875510204081632	67	127
19.910340136054423	19.968390022675738	79	127
20.119319727891156	20.17736961451247	79	127
20.316689342403627	20.537278911564627	67	127
20.316689342403627	20.537278911564627	64	127
20.316689342403627	20.78108843537415	60	127
20.316689342403627	20.955238095238094	79	127
20.537278911564627	20.78108843537415	64	127
20.537278911564627	20.78108843537415	60	127
20.78108843537415	20.955238095238094	67	127
20.78108843537415	20.955238095238094	64	127
20.955238095238094	21.175827664399094	84	127
21.175827664399094	21.40800453514739	65	127
21.175827664399094	21.40800453514739	62	127
21.175827664399094	21.61700680272109	55	127
21.175827664399094	21.81437641723356	83	127
21.40800453514739	21.61700680272109	62	127
21.40800453514739	21.61700680272109	59	127
21.61700680272109	21.81437641723356	65	127
21.61700680272109	21.81437641723356	62	127
21.81437641723356	22.034965986394557	77	127
22.034965986394557	22.209115646258503	76	127
22.034965986394557	22.209115646258503	48	127
22.209115646258503	22.406485260770975	72	127
22.209115646258503	22.406485260770975	67	127
22.209115646258503	22.406485260770975	52	127
22.406485260770975	22.603854875283446	69	127
22.406485260770975	22.603854875283446	60	127
22.406485260770975	22.603854875283446	53	127
22.603854875283446	22.812834467120183	74	127
22.603854875283446	22.812834467120183	69	127
22.603854875283446	22.812834467120183	54	127
22.812834467120183	23.03342403628118	71	127
22.812834467120183	23.03342403628118	62	127
22.812834467120183	23.03342403628118	55	127
23.03342403628118	23.242403628117913	76	127
23.03342403628118	23.242403628117913	71	127
23.03342403628118	23.242403628117913	56	127
23.242403628117913	23.474603174603175	72	127
23.242403628117913	23.474603174603175	64	127
23.242403628117913	23.474603174603175	57	127
23.474603174603175	23.69517006802721	77	127
23.474603174603175	23.69517006802721	72	127
23.474603174603175	23.69517006802721	60	127
23.474603174603175	23.69517006802721	45	127
23.69517006802721	23.927392290249433	74	127
23.69517006802721	24.008662131519273	67	127
23.69517006802721	24.008662131519273	65	127
23.69517006802721	24.29891156462585	47	127
24.008662131519273	24.136371882086166	79	127
24.008662131519273	24.136371882086166	77	127
24.008662131519273	24.136371882086166	62	127
25.18126984126984	25.239319727891157	79	127
25.343809523809522	25.401859410430838	79	127
25.48312925170068	25.610839002267575	72	127
25.48312925170068	25.610839002267575	64	127
25.48312925170068	25.610839002267575	60	127
25.48312925170068	26.086848072562358	79	127
25.680498866213153	25.796598639455784	72	127
25.680498866213153	25.796598639455784	64	127
25.680498866213153	25.796598639455784	60	127
25.877868480725624	26.005578231292517	72	127
25.877868480725624	26.005578231292517	64	127
25.877868480725624	26.005578231292517	60	127
26.086848072562358	26.29582766439909	80	127
26.29582766439909	26.43514739229025	72	127
26.29582766439909	26.43514739229025	62	127
26.29582766439909	26.43514739229025	53	127
26.29582766439909	26.934376417233562	81	127
26.528027210884353	26.655736961451247	72	127
26.528027210884353	26.655736961451247	62	127
26.528027210884353	26.655736961451247	53	127
26.737006802721087	26.853106575963718	72	127
26.737006802721087	26.853106575963718	62	127
26.737006802721087	26.853106575963718	53	127
26.934376417233562	27.027256235827664	77	127
27.027256235827664	27.131746031746033	74	127
27.131746031746033	27.259455782312926	64	127
27.131746031746033	27.27106575963719	55	127
27.131746031746033	27.630975056689344	72	127
27.131746031746033	27.85156462585034	67	127
27.259455782312926	27.43360544217687	67	127
27.43360544217687	27.538095238095238	64	127
27.43360544217687	27.561315192743763	55	127
27.538095238095238	27.630975056689344	67	127
27.630975056689344	27.74707482993197	64	127
27.630975056689344	27.7702947845805	55	127
27.630975056689344	27.85156462585034	76	127
27.74707482993197	27.85156462585034	67	127
27.85156462585034	27.93283446712018	65	127
27.85156462585034	27.95605442176871	55	127
27.85156462585034	28.03732426303855	74	127
27.85156462585034	28.03732426303855	59	127
27.93283446712018	28.03732426303855	67	127
28.03732426303855	28.19986394557823	48	127
28.03732426303855	28.327573696145123	72	127
28.03732426303855	28.327573696145123	64	127
28.03732426303855	28.327573696145123	60	127
28.524943310657598	28.606213151927438	60	127
28.524943310657598	28.606213151927438	60	127
28.524943310657598	28.606213151927438	48	127
28.76875283446712	28.826802721088434	60	127
28.76875283446712	28.826802721088434	60	127
28.76875283446712	28.826802721088434	48	127
29.00095238095238	29.140272108843536	55	127
29.00095238095238	29.140272108843536	55	127
29.00095238095238	29.140272108843536	43	127
29.41891156462585	29.476961451247167	64	127
29.41891156462585	29.476961451247167	64	127
29.41891156462585	29.476961451247167	52	127
29.627891156462585	29.6859410430839	64	127
29.627891156462585	29.6859410430839	64	127
29.627891156462585	29.6859410430839	52	127
29.813650793650794	29.87170068027211	60	127
29.813650793650794	29.87170068027211	60	127
29.813650793650794	29.87170068027211	48	127
30.011020408163265	30.06907029478458	67	127
30.011020408163265	30.06907029478458	67	127
30.011020408163265	30.06907029478458	55	127
30.208390022675736	30.278049886621314	64	127
30.208390022675736	30.278049886621314	64	127
30.208390022675736	30.278049886621314	52	127
30.41736961451247	30.498639455782314	72	127
30.41736961451247	30.498639455782314	72	127
30.41736961451247	30.498639455782314	60	127
30.63795918367347	30.684399092970523	67	127
30.63795918367347	30.684399092970523	67	127
30.63795918367347	30.684399092970523	55	127
30.80049886621315	30.858548752834466	76	127
30.80049886621315	30.858548752834466	64	127
30.80049886621315	30.858548752834466	64	127
30.98625850340136	31.032698412698412	72	127
30.98625850340136	31.032698412698412	60	127
31.160408163265306	31.21845804988662	79	127
31.160408163265306	31.21845804988662	67	127
31.357777777777777	31.40421768707483	76	127
31.357777777777777	31.40421768707483	64	127
31.555147392290248	31.613197278911564	84	127
31.555147392290248	31.613197278911564	72	127
31.555147392290248	31.613197278911564	72	127
31.75251700680272	31.810566893424035	79	127
31.75251700680272	31.810566893424035	67	127
31.949886621315194	31.961496598639457	88	127
31.949886621315194	31.961496598639457	76	127
32.08920634920635	32.15884353741497	59	127
32.08920634920635	32.15884353741497	56	127
32.08920634920635	32.20530612244898	50	127
32.08920634920635	32.66968253968254	89	127
32.182086167800456	32.25174603174603	59	127
32.182086167800456	32.25174603174603	56	127
32.274965986394555	32.3562358276644	59	127
32.274965986394555	32.3562358276644	56	127
32.274965986394555	32.391065759637186	50	127
32.36784580498866	32.43750566893424	59	127
32.36784580498866	32.43750566893424	56	127
32.43750566893424	32.51877551020408	59	127
32.43750566893424	32.51877551020408	56	127
32.43750566893424	32.553605442176874	50	127
32.54197278911565	32.60004535147392	59	127
32.54197278911565	32.60004535147392	56	127
32.62326530612245	32.70453514739229	59	127
32.62326530612245	32.70453514739229	56	127
32.62326530612245	32.73936507936508	50	127
32.72775510204082	32.80902494331066	59	127
32.72775510204082	32.80902494331066	56	127
32.82063492063492	32.90190476190476	59	127
32.82063492063492	32.90190476190476	56	127
32.82063492063492	32.948344671201816	50	127
32.82063492063492	33.44757369614513	65	127
32.92510204081633	33.00639455782313	59	127
32.92510204081633	33.00639455782313	56	127
33.00639455782313	33.06444444444445	59	127
33.00639455782313	33.06444444444445	56	127
33.00639455782313	33.1108843537415	50	127
33.08766439909297	33.16891156462585	59	127
33.08766439909297	33.16891156462585	56	127
33.19215419501134	33.27342403628118	59	127
33.19215419501134	33.27342403628118	56	127
33.19215419501134	33.3314739229025	50	127
33.30825396825397	33.38952380952381	59	127
33.30825396825397	33.38952380952381	56	127
33.41274376417233	33.49401360544218	59	127
33.41274376417233	33.49401360544218	56	127
33.41274376417233	33.528843537414964	50	127
33.5172335600907	33.58689342403628	59	127
33.5172335600907	33.58689342403628	56	127
33.598503401360546	33.761043083900226	57	127
33.598503401360546	33.94680272108844	48	127
33.598503401360546	33.65655328798186	64	127
33.598503401360546	33.761043083900226	60	127
33.80746031746032	33.87714285714286	72	127
33.80746031746032	34.144172335600906	81	127
33.80746031746032	34.144172335600906	76	127
34.028072562358275	34.086122448979594	69	127
34.028072562358275	34.31829931972789	57	127
34.202222222222225	34.26027210884354	76	127
34.202222222222225	34.562108843537416	76	127
34.202222222222225	34.562108843537416	72	127
34.39959183673469	34.45764172335601	72	127
34.39959183673469	34.72467120181406	52	127
34.59696145124717	34.66662131519274	81	127
34.59696145124717	34.92204081632653	72	127
34.59696145124717	34.92204081632653	69	127
34.8059410430839	34.86399092970522	76	127
34.8059410430839	35.08458049886622	60	127
34.99170068027211	35.03814058956916	84	127
34.99170068027211	35.131020408163266	69	127
34.99170068027211	35.131020408163266	64	127
35.16585034013605	35.2471201814059	57	127
35.16585034013605	35.2471201814059	54	127
35.16585034013605	35.32836734693878	48	127
35.16585034013605	35.781179138321995	87	127
35.27034013605442	35.351609977324266	57	127
35.27034013605442	35.351609977324266	54	127
35.36321995464853	35.444489795918365	57	127
35.36321995464853	35.444489795918365	54	127
35.36321995464853	35.52575963718821	48	127
35.4677097505669	35.53736961451247	57	127
35.4677097505669	35.53736961451247	54	127
35.560589569160996	35.63024943310658	57	127
35.560589569160996	35.63024943310658	54	127
35.560589569160996	35.69990929705215	48	127
35.6534693877551	35.72312925170068	57	127
35.6534693877551	35.72312925170068	54	127
35.74634920634921	35.827619047619045	57	127
35.74634920634921	35.827619047619045	54	127
35.74634920634921	35.90888888888889	48	127
35.83920634920635	35.92049886621315	57	127
35.83920634920635	35.92049886621315	54	127
35.943718820861676	36.02498866213152	57	127
35.943718820861676	36.02498866213152	54	127
35.943718820861676	36.09462585034014	48	127
35.943718820861676	36.59385487528345	63	127
36.048208616780045	36.106258503401364	57	127
36.048208616780045	36.106258503401364	54	127
36.12947845804989	36.21072562358277	57	127
36.12947845804989	36.21072562358277	54	127
36.12947845804989	36.30362811791383	48	127
36.24557823129252	36.326848072562356	57	127
36.24557823129252	36.326848072562356	54	127
36.33843537414966	36.41972789115646	57	127
36.33843537414966	36.41972789115646	54	127
36.33843537414966	36.500997732426306	48	127
36.44294784580499	36.52421768707483	57	127
36.44294784580499	36.52421768707483	54	127
36.55904761904762	36.6287074829932	57	127
36.55904761904762	36.6287074829932	54	127
36.55904761904762	36.698367346938774	48	127
36.64031746031746	36.72156462585034	57	127
36.64031746031746	36.72156462585034	54	127
36.74480725623583	36.80285714285714	62	127
36.74480725623583	36.930566893424036	58	127
36.74480725623583	36.930566893424036	55	127
36.74480725623583	37.081496598639454	46	127
36.96539682539682	37.02344671201814	70	127
36.96539682539682	37.313696145124716	79	127
36.96539682539682	37.313696145124716	74	127
37.17437641723356	37.24403628117914	67	127
37.17437641723356	37.4762358276644	55	127
37.39496598639456	37.44140589569161	74	127
37.39496598639456	37.731632653061226	74	127
37.39496598639456	37.731632653061226	70	127
37.55750566893424	37.615532879818595	70	127
37.55750566893424	37.88258503401361	50	127
37.76648526077098	37.82453514739229	79	127
37.76648526077098	38.09156462585034	70	127
37.76648526077098	38.09156462585034	67	127
37.963854875283445	38.021904761904764	74	127
37.963854875283445	38.2424716553288	58	127
38.16122448979592	38.230884353741494	86	127
38.16122448979592	38.26571428571429	67	127
38.16122448979592	38.26571428571429	62	127
38.300544217687076	38.381791383219955	70	127
38.300544217687076	38.381791383219955	55	127
38.300544217687076	38.405034013605444	51	127
38.300544217687076	38.881020408163266	85	127
38.39342403628118	38.463083900226756	70	127
38.39342403628118	38.463083900226756	55	127
38.48630385487528	38.55596371882086	70	127
38.48630385487528	38.55596371882086	55	127
38.48630385487528	38.59079365079365	51	127
38.57918367346939	38.64884353741497	70	127
38.57918367346939	38.64884353741497	55	127
38.672063492063494	38.75331065759637	70	127
38.672063492063494	38.75331065759637	55	127
38.672063492063494	38.788163265306125	51	127
38.77655328798186	38.8578231292517	70	127
38.77655328798186	38.8578231292517	55	127
38.8578231292517	38.91587301587302	70	127
38.8578231292517	38.91587301587302	55	127
38.8578231292517	38.97392290249433	51	127
38.93909297052154	39.04358276643991	70	127
38.93909297052154	39.04358276643991	55	127
39.066802721088436	39.14807256235828	69	127
39.066802721088436	39.14807256235828	54	127
39.066802721088436	39.19451247165533	51	127
39.066802721088436	39.74018140589569	61	127
39.15968253968254	39.24095238095238	69	127
39.15968253968254	39.24095238095238	54	127
39.25256235827664	39.34544217687075	69	127
39.25256235827664	39.34544217687075	54	127
39.25256235827664	39.380272108843535	51	127
39.35705215419501	39.438321995464854	69	127
39.35705215419501	39.438321995464854	54	127
39.46154195011338	39.56603174603175	67	127
39.46154195011338	39.56603174603175	55	127
39.46154195011338	39.600861678004534	51	127
39.58925170068027	39.68213151927438	67	127
39.58925170068027	39.68213151927438	55	127
39.69374149659864	39.77498866213152	67	127
39.69374149659864	39.77498866213152	55	127
39.69374149659864	39.80984126984127	51	127
39.79823129251701	39.85628117913832	67	127
39.79823129251701	39.85628117913832	55	127
39.879501133786846	39.94916099773243	66	127
39.879501133786846	39.94916099773243	57	127
39.879501133786846	39.983990929705215	50	127
39.879501133786846	40.00721088435374	62	127
39.97238095238095	40.03040816326531	66	127
39.97238095238095	40.03040816326531	57	127
40.053650793650796	40.13492063492063	66	127
40.053650793650796	40.13492063492063	57	127
40.053650793650796	40.16975056689343	48	127
40.14650793650794	40.22780045351474	66	127
40.14650793650794	40.22780045351474	57	127
40.251020408163264	40.30907029478458	74	127
40.251020408163264	40.33229024943311	70	127
40.251020408163264	40.33229024943311	62	127
40.251020408163264	40.367120181405895	46	127
40.35551020408163	40.425170068027214	70	127
40.35551020408163	40.425170068027214	62	127
40.44839002267574	40.50643990929705	74	127
40.44839002267574	40.52963718820862	70	127
40.44839002267574	40.52963718820862	62	127
40.44839002267574	40.57609977324263	43	127
40.55287981859411	40.634149659863944	70	127
40.55287981859411	40.634149659863944	62	127
40.645759637188206	40.703809523809525	69	127
40.645759637188206	40.703809523809525	60	127
40.645759637188206	40.73863945578231	42	127
40.645759637188206	40.76185941043084	74	127
40.71541950113379	40.785056689342404	69	127
40.71541950113379	40.785056689342404	60	127
40.808299319727894	40.90117913832199	69	127
40.808299319727894	40.90117913832199	60	127
40.808299319727894	40.93600907029479	38	127
40.9127664399093	40.9940589569161	69	127
40.9127664399093	40.9940589569161	60	127
41.04047619047619	41.09854875283447	86	127
41.04047619047619	41.12176870748299	67	127
41.04047619047619	41.12176870748299	58	127
41.04047619047619	41.14498866213152	43	127
41.133378684807255	41.203038548752836	67	127
41.133378684807255	41.203038548752836	58	127
41.22625850340136	41.284285714285716	86	127
41.22625850340136	41.307528344671205	67	127
41.22625850340136	41.307528344671205	58	127
41.22625850340136	41.34235827664399	46	127
41.33074829931973	41.41199546485261	67	127
41.33074829931973	41.41199546485261	58	127
41.41199546485261	41.49328798185941	66	127
41.41199546485261	41.49328798185941	57	127
41.41199546485261	41.5397052154195	50	127
41.41199546485261	41.574557823129254	86	127
41.516507936507935	41.59777777777778	66	127
41.516507936507935	41.59777777777778	57	127
41.620997732426304	41.690657596371885	66	127
41.620997732426304	41.690657596371885	57	127
41.620997732426304	41.737097505668935	48	127
41.71387755102041	41.79512471655329	66	127
41.71387755102041	41.79512471655329	57	127
41.81836734693878	41.88802721088435	74	127
41.81836734693878	41.94607709750567	70	127
41.81836734693878	41.94607709750567	62	127
41.81836734693878	41.98090702947846	46	127
41.957687074829934	42.03895691609977	70	127
41.957687074829934	42.03895691609977	62	127
42.0621768707483	42.120226757369615	74	127
42.0621768707483	42.14344671201814	70	127
42.0621768707483	42.14344671201814	62	127
42.0621768707483	42.17825396825397	43	127
42.166666666666664	42.236326530612246	70	127
42.166666666666664	42.236326530612246	62	127
42.24793650793651	42.30596371882086	74	127
42.24793650793651	42.32920634920635	69	127
42.24793650793651	42.32920634920635	60	127
42.24793650793651	42.35242630385488	42	127
42.340816326530614	42.41047619047619	69	127
42.340816326530614	42.41047619047619	60	127
42.42208616780045	42.49174603174603	74	127
42.42208616780045	42.503356009070295	69	127
42.42208616780045	42.503356009070295	60	127
42.42208616780045	42.549795918367344	38	127
42.52657596371882	42.63106575963719	69	127
42.52657596371882	42.63106575963719	60	127
42.65428571428571	42.71233560090703	86	127
42.65428571428571	42.73555555555556	67	127
42.65428571428571	42.73555555555556	58	127
42.65428571428571	42.75877551020408	43	127
42.73555555555556	42.816802721088436	67	127
42.73555555555556	42.816802721088436	58	127
42.840045351473925	42.89809523809524	86	127
42.840045351473925	42.92131519274376	67	127
42.840045351473925	42.92131519274376	58	127
42.840045351473925	42.956145124716556	46	127
42.94451247165533	43.02580498866213	67	127
42.94451247165533	43.02580498866213	58	127
43.049024943310656	43.16512471655329	50	127
43.049024943310656	43.385714285714286	86	127
43.049024943310656	43.385714285714286	66	127
43.049024943310656	43.385714285714286	57	127
43.67596371882086	43.73401360544218	74	127
43.67596371882086	43.73401360544218	69	127
43.67596371882086	43.73401360544218	66	127
43.67596371882086	43.73401360544218	62	127
43.8849433106576	43.94299319727891	74	127
43.8849433106576	43.94299319727891	69	127
43.8849433106576	43.94299319727891	66	127
43.8849433106576	43.94299319727891	62	127
44.093922902494334	44.26807256235828	74	127
44.093922902494334	44.26807256235828	69	127
44.093922902494334	44.26807256235828	66	127
44.093922902494334	44.26807256235828	62	127
44.53510204081633	44.59312925170068	71	127
44.720839002267574	44.77891156462585	71	127
44.92984126984127	45.96312925170068	71	127
45.11560090702948	45.289750566893424	55	127
45.32458049886621	45.521950113378686	67	127
45.603197278911566	45.719319727891154	67	127
45.800589569161	45.91668934240363	67	127
45.99795918367347	46.11403628117914	72	127
45.99795918367347	46.125668934240366	67	127
46.11403628117914	46.2069387755102	74	127
46.2069387755102	46.26498866213152	76	127
46.2069387755102	46.334648526077096	67	127
46.40430839002268	46.46235827664399	76	127
46.40430839002268	46.52040816326531	67	127
46.555238095238096	46.6481179138322	66	127
46.555238095238096	46.72938775510204	76	127
46.72938775510204	46.84548752834467	66	127
46.72938775510204	46.891927437641726	69	127
46.92675736961451	46.984807256235825	74	127
46.92675736961451	47.05446712018141	65	127
47.124104308390024	47.19378684807256	74	127
47.124104308390024	47.25181405895692	65	127
47.33310657596372	47.425986394557825	64	127
47.33310657596372	47.4956462585034	74	127
47.4956462585034	47.588526077097505	64	127
47.4956462585034	47.634965986394555	67	127
47.66979591836735	47.72784580498866	72	127
47.66979591836735	47.78589569160998	63	127
47.86716553287982	47.9368253968254	72	127
47.86716553287982	47.99487528344671	63	127
48.076145124716554	48.3431746031746	72	127
48.076145124716554	48.42444444444445	62	127
48.401224489795915	48.48249433106576	74	127
48.505714285714284	48.74952380952381	71	127
48.505714285714284	48.83079365079365	64	127
48.80757369614513	48.888843537414964	72	127
48.900453514739226	49.23714285714286	69	127
48.900453514739226	49.26036281179138	60	127
49.23714285714286	49.295192743764176	71	127
49.3184126984127	49.62027210884354	67	127
49.3184126984127	49.64349206349206	61	127
49.62027210884354	49.70154195011338	69	127
49.71315192743764	49.945351473922905	62	127
49.71315192743764	49.945351473922905	66	127
49.945351473922905	50.13111111111111	57	127
49.945351473922905	50.13111111111111	69	127
50.17755102040816	50.23560090702948	69	127
50.17755102040816	50.23560090702948	57	127
50.36331065759637	50.421360544217684	69	127
50.36331065759637	50.421360544217684	57	127
50.57229024943311	50.758049886621315	69	127
50.57229024943311	50.758049886621315	57	127
50.758049886621315	50.90897959183673	70	127
50.758049886621315	50.90897959183673	58	127
50.758049886621315	50.90897959183673	54	127
50.95541950113379	51.0134693877551	71	127
50.95541950113379	51.0134693877551	59	127
50.95541950113379	51.0134693877551	55	127
51.141179138321995	51.199229024943314	71	127
51.141179138321995	51.199229024943314	59	127
51.141179138321995	51.199229024943314	55	127
51.33854875283447	51.53591836734694	55	127
51.33854875283447	52.290566893424035	71	127
51.33854875283447	52.290566893424035	59	127
51.53591836734694	51.69845804988662	51	127
51.53591836734694	51.69845804988662	42	127
51.744897959183675	51.791337868480724	52	127
51.744897959183675	51.791337868480724	43	127
51.93065759637188	51.9887074829932	52	127
51.93065759637188	51.9887074829932	43	127
52.11641723356009	52.33700680272109	52	127
52.11641723356009	52.464716553287985	43	127
52.33700680272109	52.44149659863945	73	127
52.33700680272109	52.49954648526077	58	127
52.33700680272109	52.49954648526077	52	127
52.44149659863945	52.54598639455782	74	127
52.54598639455782	52.60403628117914	76	127
52.54598639455782	52.60403628117914	70	127
52.54598639455782	52.60403628117914	61	127
52.54598639455782	52.60403628117914	55	127
52.75496598639456	52.81301587301587	76	127
52.75496598639456	52.81301587301587	70	127
52.75496598639456	52.81301587301587	61	127
52.75496598639456	52.81301587301587	55	127
52.95233560090703	53.161315192743764	76	127
52.95233560090703	53.161315192743764	70	127
52.95233560090703	53.161315192743764	61	127
52.95233560090703	53.161315192743764	55	127
53.161315192743764	53.33546485260771	69	127
53.161315192743764	53.33546485260771	62	127
53.161315192743764	53.33546485260771	54	127
53.381904761904764	53.45156462585034	74	127
53.381904761904764	53.45156462585034	68	127
53.381904761904764	53.45156462585034	59	127
53.381904761904764	53.45156462585034	53	127
53.590884353741494	53.64893424036281	74	127
53.590884353741494	53.64893424036281	68	127
53.590884353741494	53.64893424036281	59	127
53.590884353741494	53.64893424036281	53	127
53.79986394557823	53.985623582766436	74	127
53.79986394557823	53.985623582766436	68	127
53.79986394557823	53.985623582766436	59	127
53.79986394557823	53.985623582766436	53	127
53.985623582766436	54.13655328798186	67	127
53.985623582766436	54.13655328798186	60	127
53.985623582766436	54.13655328798186	52	127
54.17138321995465	54.24104308390023	72	127
54.17138321995465	54.24104308390023	67	127
54.17138321995465	54.24104308390023	60	127
54.17138321995465	54.24104308390023	51	127
54.380362811791386	54.4384126984127	72	127
54.380362811791386	54.4384126984127	67	127
54.380362811791386	54.4384126984127	60	127
54.380362811791386	54.4384126984127	51	127
54.56612244897959	54.89120181405896	72	127
54.56612244897959	54.90281179138322	66	127
54.56612244897959	54.90281179138322	57	127
54.56612244897959	54.90281179138322	50	127
54.89120181405896	54.99569160997732	74	127
54.99569160997732	55.30916099773243	71	127
54.99569160997732	55.33238095238095	55	127
54.99569160997732	55.33238095238095	52	127
54.99569160997732	55.727120181405894	67	127
55.30916099773243	55.413650793650795	72	127
55.413650793650795	55.460090702947845	71	127
55.413650793650795	55.727120181405894	48	127
55.413650793650795	55.82	64	127
55.47170068027211	55.529750566893426	69	127
55.54136054421769	55.599410430839	71	127
55.61102040816326	55.66907029478458	69	127
55.680680272108845	55.727120181405894	71	127
55.73873015873016	55.80839002267574	69	127
55.82	55.87804988662131	71	127
55.82	56.017369614512475	62	127
55.82	56.15668934240363	66	127
55.82	56.15668934240363	50	127
55.88965986394558	55.947709750566894	69	127
55.959319727891156	56.005759637188206	71	127
56.017369614512475	56.07541950113379	69	127
56.017369614512475	56.23795918367347	60	127
56.08702947845805	56.15668934240363	67	127
56.16829931972789	56.21473922902494	69	127
56.23795918367347	56.41210884353742	67	127
56.23795918367347	56.63269841269841	67	127
56.23795918367347	56.63269841269841	59	127
56.23795918367347	56.63269841269841	43	127
56.783628117913835	56.91133786848073	73	127
56.91133786848073	56.992607709750565	74	127
57.00421768707483	57.03904761904762	73	127
57.108707482993196	57.13192743764172	74	127
57.2015873015873	57.29446712018141	76	127
57.2015873015873	57.35251700680272	59	127
57.2015873015873	57.35251700680272	62	127
57.2015873015873	57.35251700680272	55	127
57.2015873015873	57.35251700680272	55	127
57.29446712018141	57.375736961451246	74	127
57.39895691609977	57.4221768707483	73	127
57.39895691609977	57.56149659863946	62	127
57.39895691609977	57.56149659863946	59	127
57.39895691609977	57.56149659863946	55	127
57.49183673469388	57.526666666666664	74	127
57.596326530612245	57.68920634920635	72	127
57.596326530612245	57.74725623582766	59	127
57.596326530612245	57.74725623582766	62	127
57.596326530612245	57.74725623582766	55	127
57.596326530612245	57.74725623582766	43	127
57.68920634920635	57.77047619047619	71	127
57.78208616780045	57.816916099773245	69	127
57.78208616780045	57.933015873015876	62	127
57.78208616780045	57.933015873015876	59	127
57.78208616780045	57.933015873015876	55	127
57.87496598639456	57.89818594104308	67	127
57.96784580498866	58.06072562358277	67	127
57.96784580498866	58.28131519274376	60	127
57.96784580498866	58.28131519274376	62	127
57.96784580498866	58.28131519274376	57	127
57.96784580498866	58.28131519274376	50	127
58.06072562358277	58.141995464852606	66	127
58.16521541950113	58.18843537414966	64	127
58.25809523809524	58.292925170068024	62	127
58.42063492063492	58.54834467120181	73	127
58.54834467120181	58.61800453514739	74	127
58.64122448979592	58.66444444444444	73	127
58.73410430839002	58.745714285714286	74	127
58.81537414965987	58.91986394557823	76	127
58.81537414965987	58.97791383219955	57	127
58.81537414965987	58.97791383219955	66	127
58.81537414965987	58.97791383219955	60	127
58.81537414965987	58.97791383219955	62	127
58.81537414965987	58.97791383219955	50	127
58.91986394557823	59.00113378684807	74	127
59.0243537414966	59.04757369614512	72	127
59.0243537414966	59.186893424036285	66	127
59.0243537414966	59.186893424036285	57	127
59.0243537414966	59.186893424036285	62	127
59.0243537414966	59.186893424036285	60	127
59.1172335600907	59.16367346938775	71	127
59.2449433106576	59.3378231292517	69	127
59.2449433106576	59.44231292517007	66	127
59.2449433106576	59.44231292517007	57	127
59.2449433106576	59.44231292517007	60	127
59.2449433106576	59.44231292517007	62	127
59.2449433106576	59.44231292517007	38	127
59.3378231292517	59.453922902494334	71	127
59.465532879818596	59.50036281179138	72	127
59.465532879818596	59.62807256235828	57	127
59.465532879818596	59.62807256235828	66	127
59.465532879818596	59.62807256235828	62	127
59.465532879818596	59.62807256235828	60	127
59.570022675736965	59.59324263038549	74	127
59.662902494331064	59.779002267573695	72	127
59.662902494331064	60.02281179138322	55	127
59.662902494331064	60.02281179138322	67	127
59.662902494331064	60.02281179138322	59	127
59.662902494331064	60.02281179138322	62	127
59.662902494331064	60.02281179138322	43	127
59.779002267573695	59.88349206349206	71	127
59.895102040816326	59.92993197278911	69	127
59.999591836734695	60.03442176870748	67	127
60.10408163265306	60.19696145124716	73	127
60.19696145124716	60.278231292517006	74	127
60.30145124716553	60.336281179138325	73	127
60.39433106575964	60.41755102040816	74	127
60.48721088435374	60.59170068027211	76	127
60.48721088435374	60.649750566893424	62	127
60.48721088435374	60.649750566893424	59	127
60.48721088435374	60.649750566893424	55	127
60.48721088435374	60.649750566893424	55	127
60.59170068027211	60.67297052154195	74	127
60.68458049886621	60.719410430839005	73	127
60.68458049886621	60.82390022675737	62	127
60.68458049886621	60.82390022675737	59	127
60.68458049886621	60.82390022675737	55	127
60.77746031746032	60.80068027210884	74	127
60.87034013605442	60.96321995464853	72	127
60.87034013605442	61.02126984126984	59	127
60.87034013605442	61.02126984126984	62	127
60.87034013605442	61.02126984126984	55	127
60.87034013605442	61.02126984126984	43	127
60.96321995464853	61.05609977324263	71	127
61.07931972789115	61.102539682539685	69	127
61.07931972789115	61.2534693877551	62	127
61.07931972789115	61.2534693877551	59	127
61.07931972789115	61.2534693877551	55	127
61.18380952380952	61.218639455782316	67	127
61.28829931972789	61.39278911564626	67	127
61.28829931972789	61.601768707483	62	127
61.28829931972789	61.601768707483	60	127
61.28829931972789	61.601768707483	57	127
61.28829931972789	61.601768707483	50	127
61.39278911564626	61.462448979591834	66	127
61.4740589569161	61.50888888888889	64	127
61.578548752834465	61.61337868480726	62	127
61.68303854875283	61.77591836734694	73	127
61.77591836734694	61.868798185941046	74	127
61.89201814058957	61.915238095238095	73	127
61.98489795918368	62.019727891156464	74	127
62.11260770975057	62.21709750566893	76	127
62.11260770975057	62.27514739229025	66	127
62.11260770975057	62.27514739229025	57	127
62.11260770975057	62.27514739229025	62	127
62.11260770975057	62.27514739229025	60	127
62.11260770975057	62.27514739229025	50	127
62.21709750566893	62.28675736961451	74	127
62.30997732426304	62.344807256235825	72	127
62.30997732426304	62.48412698412698	57	127
62.30997732426304	62.48412698412698	66	127
62.30997732426304	62.48412698412698	62	127
62.30997732426304	62.48412698412698	60	127
62.42607709750567	62.44929705215419	71	127
62.518956916099775	62.69310657596372	38	127
62.518956916099775	62.635056689342406	69	127
62.518956916099775	62.69310657596372	66	127
62.518956916099775	62.69310657596372	57	127
62.518956916099775	62.69310657596372	60	127
62.518956916099775	62.69310657596372	62	127
62.635056689342406	62.71632653061224	71	127
62.739546485260774	62.7627664399093	72	127
62.739546485260774	62.89047619047619	57	127
62.739546485260774	62.89047619047619	66	127
62.739546485260774	62.89047619047619	62	127
62.739546485260774	62.89047619047619	60	127
62.832426303854874	62.86725623582767	74	127
62.93691609977324	63.04140589569161	72	127
62.93691609977324	63.09945578231292	43	127
62.93691609977324	63.25038548752835	55	127
62.93691609977324	63.25038548752835	67	127
62.93691609977324	63.25038548752835	62	127
62.93691609977324	63.25038548752835	59	127
63.04140589569161	63.111065759637185	71	127
63.13428571428572	63.169115646258504	69	127
63.13428571428572	63.2968253968254	43	127
63.23877551020408	63.26199546485261	67	127
63.331655328798185	63.43614512471655	78	127
63.331655328798185	64.66680272108843	55	127
63.43614512471655	63.5174149659864	79	127
63.54063492063492	63.56385487528345	81	127
63.54063492063492	63.74961451247165	62	127
63.54063492063492	63.74961451247165	59	127
63.63351473922903	63.668344671201815	79	127
63.74961451247165	63.80766439909297	64	127
63.74961451247165	63.80766439909297	60	127
63.74961451247165	63.84249433106576	78	127
63.84249433106576	63.9237641723356	76	127
63.94698412698413	63.981814058956914	75	127
63.94698412698413	64.00503401360544	66	127
63.94698412698413	64.00503401360544	62	127
64.05145124716553	64.07469387755103	76	127
64.13274376417233	64.19079365079365	67	127
64.13274376417233	64.19079365079365	64	127
64.13274376417233	64.22562358276645	74	127
64.22562358276645	64.28367346938775	72	127
64.29528344671202	64.33011337868481	71	127
64.29528344671202	64.3649433106576	69	127
64.29528344671202	64.3649433106576	66	127
64.39977324263039	64.43458049886621	72	127
64.50426303854876	64.60875283446713	71	127
64.50426303854876	64.82934240362812	71	127
64.50426303854876	64.82934240362812	67	127
64.60875283446713	64.69	72	127
64.7132426303855	64.74807256235827	74	127
64.7132426303855	64.87578231292517	43	127
64.81770975056689	64.84095238095239	76	127
64.91061224489796	65.01510204081633	78	127
64.91061224489796	65.9438775510204	55	127
65.01510204081633	65.1195918367347	79	127
65.13120181405895	65.16603174603175	81	127
65.13120181405895	65.32854875283446	62	127
65.13120181405895	65.32854875283446	59	127
65.23569160997732	65.27052154195012	79	127
65.32854875283446	65.38662131519274	64	127
65.32854875283446	65.38662131519274	60	127
65.32854875283446	65.42145124716554	78	127
65.42145124716554	65.50272108843538	76	127
65.5259410430839	65.54916099773243	75	127
65.5259410430839	65.58396825396825	66	127
65.5259410430839	65.58396825396825	62	127
65.618820861678	65.6536507936508	76	127
65.72331065759637	65.78136054421769	67	127
65.72331065759637	65.78136054421769	64	127
65.72331065759637	65.80458049886622	74	127
65.80458049886622	65.88585034013606	72	127
65.89746031746031	65.93229024943311	71	127
65.89746031746031	65.95551020408163	69	127
65.89746031746031	65.95551020408163	66	127
66.00195011337868	66.02517006802721	72	127
66.10643990929705	66.1992970521542	71	127
66.10643990929705	66.25736961451247	62	127
66.10643990929705	66.25736961451247	67	127
66.10643990929705	66.25736961451247	55	127
66.1992970521542	66.280589569161	72	127
66.30380952380952	66.32700680272109	74	127
66.39668934240363	66.43151927437641	76	127
66.501179138322	66.6056462585034	78	127
66.501179138322	66.89591836734694	69	127
66.501179138322	66.89591836734694	54	127
66.501179138322	67.05845804988662	62	127
66.6056462585034	66.67532879818594	79	127
66.69854875283447	66.73335600907029	81	127
66.80303854875284	66.82625850340136	79	127
66.89591836734694	67.0004081632653	78	127
66.89591836734694	67.05845804988662	67	127
66.89591836734694	67.05845804988662	55	127
67.0004081632653	67.08167800453515	76	127
67.10489795918367	67.1281179138322	75	127
67.19777777777777	67.23260770975057	76	127
67.30226757369614	67.38353741496599	74	127
67.30226757369614	67.67378684807257	69	127
67.30226757369614	67.67378684807257	54	127
67.30226757369614	67.83632653061224	62	127
67.38353741496599	67.45319727891156	72	127
67.47639455782313	67.51124716553288	71	127
67.58090702947845	67.60410430839002	72	127
67.67378684807257	67.77827664399094	72	127
67.67378684807257	67.83632653061224	67	127
67.67378684807257	67.83632653061224	55	127
67.77827664399094	67.85952380952381	71	127
67.8827664399093	67.91759637188208	76	127
68.04530612244898	68.1033560090703	74	127
68.17301587301587	68.26589569160998	73	127
68.17301587301587	68.55614512471655	69	127
68.17301587301587	68.55614512471655	54	127
68.17301587301587	68.71868480725624	62	127
68.26589569160998	68.34716553287981	74	127
68.37036281179138	68.39360544217688	76	127
68.46326530612245	68.48648526077098	74	127
68.55614512471655	68.67224489795919	72	127
68.55614512471655	68.71868480725624	67	127
68.55614512471655	68.71868480725624	55	127
68.67224489795919	68.71868480725624	71	127
68.7302947845805	68.76512471655329	76	127
68.83478458049886	68.84639455782313	74	127
68.9160544217687	69.00891156462585	73	127
68.9160544217687	69.31079365079366	69	127
68.9160544217687	69.31079365079366	54	127
68.9160544217687	69.47333333333333	62	127
69.00891156462585	69.09020408163265	74	127
69.11340136054422	69.14825396825397	76	127
69.21791383219954	69.22952380952381	74	127
69.31079365079366	69.40367346938775	72	127
69.31079365079366	69.47333333333333	67	127
69.31079365079366	69.47333333333333	55	127
69.40367346938775	69.4965306122449	71	127
69.50816326530612	69.55460317460317	76	127
69.63587301587302	69.67070294784581	74	127
69.75195011337868	69.84485260770975	73	127
69.75195011337868	70.21637188208616	69	127
69.75195011337868	70.21637188208616	54	127
69.75195011337868	70.41371882086167	62	127
69.84485260770975	69.93773242630385	74	127
69.9841723356009	70.00736961451247	76	127
70.08866213151927	70.12349206349207	74	127
70.21637188208616	70.35569160997733	72	127
70.21637188208616	70.41371882086167	67	127
70.21637188208616	70.41371882086167	55	127
70.35569160997733	70.43696145124717	71	127
70.44857142857143	70.48340136054422	76	127
70.5530612244898	70.57628117913832	74	127
70.66916099773243	70.76204081632653	73	127
70.66916099773243	71.18	69	127
70.66916099773243	71.18	54	127
70.66916099773243	71.35414965986395	62	127
70.76204081632653	70.8665306122449	74	127
70.90133786848072	70.93619047619048	76	127
71.06390022675737	71.09873015873016	74	127
71.18	71.35414965986395	67	127
71.18	71.35414965986395	55	127
71.18	71.4121768707483	72	127
71.4121768707483	71.66759637188208	71	127
71.66759637188208	71.8998185941043	76	127
71.8998185941043	72.09718820861679	74	127
72.09718820861679	72.82861678004535	74	127
72.88666666666667	73.67614512471656	75	127
72.88666666666667	73.67614512471656	63	127
73.07240362811791	73.17689342403628	58	127
73.07240362811791	73.17689342403628	55	127
73.25818594104308	73.38589569160997	58	127
73.25818594104308	73.38589569160997	55	127
73.45553287981859	73.59487528344671	58	127
73.45553287981859	73.59487528344671	55	127
73.67614512471656	74.45399092970521	70	127
73.67614512471656	74.45399092970521	58	127
73.88512471655329	73.98961451247166	53	127
73.88512471655329	73.98961451247166	50	127
74.07086167800453	74.18698412698413	53	127
74.07086167800453	74.18698412698413	50	127
74.24503401360545	74.37274376417234	53	127
74.24503401360545	74.37274376417234	50	127
74.45399092970521	74.76748299319728	67	127
74.45399092970521	74.76748299319728	55	127
74.65138321995465	74.76748299319728	58	127
74.65138321995465	74.76748299319728	51	127
74.84875283446712	74.97646258503401	58	127
74.84875283446712	74.97646258503401	51	127
75.04612244897959	75.17383219954648	58	127
75.04612244897959	75.17383219954648	51	127
75.04612244897959	75.24349206349207	67	127
75.04612244897959	75.24349206349207	55	127
75.24349206349207	75.46408163265306	70	127
75.24349206349207	75.46408163265306	58	127
75.46408163265306	75.58018140589569	58	127
75.46408163265306	75.58018140589569	56	127
75.46408163265306	75.66145124716553	74	127
75.46408163265306	75.66145124716553	62	127
75.66145124716553	75.77755102040817	58	127
75.66145124716553	75.77755102040817	56	127
75.66145124716553	75.87043083900227	77	127
75.66145124716553	75.87043083900227	65	127
75.87043083900227	75.99814058956916	58	127
75.87043083900227	75.99814058956916	56	127
75.87043083900227	76.06780045351474	74	127
75.87043083900227	76.06780045351474	62	127
76.06780045351474	76.89210884353741	75	127
76.06780045351474	76.89210884353741	63	127
76.27678004535147	76.39287981859411	58	127
76.27678004535147	76.39287981859411	55	127
76.48575963718821	76.6134693877551	58	127
76.48575963718821	76.6134693877551	55	127
76.69473922902495	76.81083900226757	58	127
76.69473922902495	76.81083900226757	55	127
76.89210884353741	77.6815873015873	70	127
76.89210884353741	77.6815873015873	58	127
77.11267573696145	77.24038548752834	53	127
77.11267573696145	77.24038548752834	50	127
77.28684807256236	77.43777777777778	53	127
77.28684807256236	77.43777777777778	50	127
77.47260770975056	77.64675736961452	53	127
77.47260770975056	77.64675736961452	50	127
77.6815873015873	78.0066439909297	67	127
77.6815873015873	78.0066439909297	55	127
77.87893424036281	78.04149659863945	58	127
77.87893424036281	78.04149659863945	51	127
78.07632653061225	78.22725623582767	58	127
78.07632653061225	78.22725623582767	51	127
78.27369614512472	78.4362358276644	67	127
78.27369614512472	78.4362358276644	55	127
78.27369614512472	78.4362358276644	58	127
78.27369614512472	78.4362358276644	51	127
78.47106575963718	78.71487528344672	70	127
78.47106575963718	78.71487528344672	58	127
78.71487528344672	78.84258503401361	58	127
78.71487528344672	78.84258503401361	56	127
78.71487528344672	78.94707482993198	74	127
78.71487528344672	78.94707482993198	62	127
78.94707482993198	79.0631746031746	58	127
78.94707482993198	79.0631746031746	56	127
78.94707482993198	79.14444444444445	77	127
78.94707482993198	79.14444444444445	65	127
79.14444444444445	79.27215419501134	58	127
79.14444444444445	79.27215419501134	56	127
79.14444444444445	79.35342403628118	74	127
79.14444444444445	79.35342403628118	62	127
79.35342403628118	80.1312925170068	75	127
79.35342403628118	80.1312925170068	63	127
79.53916099773242	79.65528344671202	58	127
79.53916099773242	79.65528344671202	55	127
79.7249433106576	79.85265306122449	58	127
79.7249433106576	79.85265306122449	55	127
79.93392290249433	80.05	58	127
79.93392290249433	80.05	55	127
80.1312925170068	80.25900226757369	57	127
80.1312925170068	80.25900226757369	54	127
80.1312925170068	81.07170068027212	74	127
80.1312925170068	81.1065306122449	62	127
80.31705215419501	80.43312925170068	57	127
80.31705215419501	80.43312925170068	54	127
80.49120181405895	80.61891156462585	56	127
80.49120181405895	80.61891156462585	53	127
80.68854875283446	80.80467120181406	56	127
80.68854875283446	80.80467120181406	53	127
80.87433106575963	81.1065306122449	55	127
80.87433106575963	81.52448979591837	52	127
81.1065306122449	81.26907029478458	72	127
81.1065306122449	81.3038775510204	60	127
81.1065306122449	81.3038775510204	54	127
81.3038775510204	81.48965986394558	55	127
81.3038775510204	82.02371882086167	72	127
81.3038775510204	82.12820861678004	60	127
81.48965986394558	81.69863945578231	57	127
81.69863945578231	81.90761904761905	58	127
81.69863945578231	82.37201814058957	51	127
81.90761904761905	82.12820861678004	54	127
82.12820861678004	82.30235827664399	55	127
82.12820861678004	82.46489795918367	73	127
82.12820861678004	82.55777777777777	61	127
82.30235827664399	82.55777777777777	57	127
82.55777777777777	82.73192743764173	50	127
82.55777777777777	83.26598639455783	74	127
82.55777777777777	83.26598639455783	62	127
82.55777777777777	83.26598639455783	59	127
82.77836734693878	82.96410430839002	50	127
82.99895691609977	83.17310657596371	50	127
83.2195238095238	83.39369614512472	50	127
83.44013605442177	83.60265306122449	50	127
83.44013605442177	84.11349206349206	66	127
83.44013605442177	84.11349206349206	60	127
83.44013605442177	84.11349206349206	57	127
83.64911564625851	83.81165532879818	50	127
83.85807256235827	84.02063492063492	50	127
84.06707482993197	84.22961451247166	50	127
84.26444444444445	84.34569160997732	67	127
84.26444444444445	84.60111111111111	59	127
84.26444444444445	84.60111111111111	55	127
84.26444444444445	84.60111111111111	43	127
84.36893424036282	84.45020408163265	66	127
84.47340136054422	84.56630385487529	64	127
84.57791383219954	84.67079365079366	62	127
84.69401360544218	84.77528344671202	64	127
84.79850340136055	84.86816326530612	66	127
84.89138321995465	84.97265306122449	67	127
84.99587301587302	85.07714285714286	69	127
85.08875283446712	85.17002267573696	71	127
85.08875283446712	85.40222222222222	67	127
85.08875283446712	85.40222222222222	62	127
85.08875283446712	85.40222222222222	55	127
85.19324263038548	85.27451247165533	69	127
85.29773242630385	85.35578231292517	67	127
85.3790022675737	85.4718820861678	66	127
85.49507936507936	85.57637188208616	67	127
85.58798185941043	85.66925170068028	69	127
85.70408163265306	85.7853514739229	71	127
85.80857142857143	85.88984126984127	72	127
85.9130612244898	85.99433106575964	76	127
85.9130612244898	86.24975056689343	71	127
85.9130612244898	86.24975056689343	67	127
85.9130612244898	86.24975056689343	43	127
86.01755102040816	86.098820861678	74	127
86.11043083900226	86.20331065759638	72	127
86.2265306122449	86.30780045351474	71	127
86.33102040816327	86.41229024943311	72	127
86.42390022675737	86.50517006802721	74	127
86.52839002267574	86.58643990929706	76	127
86.60965986394558	86.6677097505669	78	127
86.69092970521542	86.7721768707483	79	127
86.69092970521542	87.00437641723356	74	127
86.69092970521542	87.00437641723356	71	127
86.69092970521542	87.00437641723356	55	127
86.7954195011338	86.8534693877551	78	127
86.86507936507937	86.94634920634921	76	127
86.96956916099774	87.06244897959184	74	127
87.08566893424036	87.19015873015873	76	127
87.201768707483	87.28301587301587	78	127
87.30625850340137	87.38750566893424	79	127
87.39913832199547	87.48040816326531	81	127
87.50362811791383	87.58489795918368	83	127
87.50362811791383	87.84031746031746	79	127
87.50362811791383	87.84031746031746	74	127
87.50362811791383	87.84031746031746	43	127
87.61972789115646	87.7009977324263	81	127
87.71260770975057	87.79387755102042	79	127
87.81709750566894	87.89834467120181	78	127
87.92158730158731	87.99124716553288	79	127
88.01446712018141	88.09573696145125	81	127
88.11895691609978	88.20022675736962	83	127
88.21183673469388	88.29310657596372	84	127
88.31632653061224	89.44249433106576	86	127
88.49047619047619	88.68784580498867	71	127
88.68784580498867	88.74589569160997	71	127
88.68784580498867	88.83877551020409	83	127
88.87360544217687	88.90843537414966	71	127
88.87360544217687	89.00131519274376	81	127
89.04773242630385	89.2102947845805	71	127
89.04773242630385	89.44249433106576	80	127
89.24512471655329	89.40766439909297	64	127
89.44249433106576	89.51215419501133	69	127
89.44249433106576	89.83723356009071	85	127
89.44249433106576	89.83723356009071	79	127
89.6514739229025	89.70952380952382	69	127
89.83723356009071	90.04619047619047	69	127
89.83723356009071	90.16231292517007	84	127
89.83723356009071	90.24358276643991	78	127
90.04619047619047	90.20875283446712	62	127
90.24358276643991	90.30160997732426	83	127
90.24358276643991	90.30160997732426	77	127
90.24358276643991	90.30160997732426	62	127
90.24358276643991	90.30160997732426	55	127
90.42931972789115	90.4990022675737	83	127
90.42931972789115	90.4990022675737	77	127
90.42931972789115	90.4990022675737	67	127
90.42931972789115	90.4990022675737	55	127
90.63832199546485	90.87052154195011	83	127
90.63832199546485	90.87052154195011	77	127
90.63832199546485	90.87052154195011	55	127
90.87052154195011	91.06786848072562	84	127
90.87052154195011	91.06786848072562	76	127
90.87052154195011	91.06786848072562	67	127
90.87052154195011	91.06786848072562	48	127
91.10272108843537	91.17238095238095	82	127
91.10272108843537	91.17238095238095	76	127
91.10272108843537	91.17238095238095	61	127
91.10272108843537	91.17238095238095	54	127
91.31170068027211	91.38136054421769	82	127
91.31170068027211	91.38136054421769	76	127
91.31170068027211	91.38136054421769	66	127
91.31170068027211	91.38136054421769	54	127
91.5322902494331	91.72965986394559	82	127
91.5322902494331	91.72965986394559	76	127
91.5322902494331	91.72965986394559	54	127
91.72965986394559	91.89219954648526	83	127
91.72965986394559	91.89219954648526	75	127
91.72965986394559	91.89219954648526	66	127
91.72965986394559	91.89219954648526	47	127
91.92702947845805	91.98507936507937	80	127
91.92702947845805	91.98507936507937	74	127
91.92702947845805	91.98507936507937	59	127
91.92702947845805	91.98507936507937	52	127
92.17083900226757	92.25210884353741	80	127
92.17083900226757	92.25210884353741	74	127
92.17083900226757	92.25210884353741	64	127
92.17083900226757	92.25210884353741	52	127
92.39142857142858	92.57718820861678	80	127
92.39142857142858	92.57718820861678	74	127
92.39142857142858	92.57718820861678	52	127
92.57718820861678	92.73972789115646	81	127
92.57718820861678	92.73972789115646	73	127
92.57718820861678	92.73972789115646	64	127
92.57718820861678	92.73972789115646	45	127
92.77455782312926	92.83260770975056	78	127
92.77455782312926	92.83260770975056	72	127
92.77455782312926	92.83260770975056	57	127
92.77455782312926	92.83260770975056	50	127
92.98351473922902	93.0415873015873	78	127
92.98351473922902	93.0415873015873	72	127
92.98351473922902	93.0415873015873	62	127
92.98351473922902	93.0415873015873	50	127
93.19251700680272	93.40149659863945	78	127
93.19251700680272	93.40149659863945	72	127
93.19251700680272	93.40149659863945	50	127
93.40149659863945	93.56403628117914	79	127
93.40149659863945	93.56403628117914	71	127
93.40149659863945	93.56403628117914	62	127
93.40149659863945	93.56403628117914	43	127
93.61047619047619	93.66852607709751	73	127
93.61047619047619	93.66852607709751	70	127
93.61047619047619	93.66852607709751	55	127
93.61047619047619	93.66852607709751	52	127
93.80784580498866	93.86589569160998	73	127
93.80784580498866	93.86589569160998	70	127
93.80784580498866	93.86589569160998	67	127
93.80784580498866	93.86589569160998	52	127
94.00519274376417	94.16775510204081	50	127
94.00519274376417	94.69020408163266	74	127
94.00519274376417	94.69020408163266	71	127
94.00519274376417	94.69020408163266	67	127
94.24902494331066	94.38832199546485	50	127
94.46961451247165	94.60893424036281	50	127
94.69020408163266	94.81791383219955	50	127
94.69020408163266	94.8643537414966	79	127
94.69020408163266	94.8643537414966	74	127
94.69020408163266	94.8643537414966	71	127
94.8991836734694	95.07333333333334	50	127
94.8991836734694	95.58417233560091	71	127
94.8991836734694	95.58417233560091	67	127
94.8991836734694	95.58417233560091	62	127
95.16621315192744	95.3055328798186	50	127
95.38680272108843	95.50290249433107	50	127
95.58417233560091	95.7118820861678	72	127
95.58417233560091	95.7118820861678	69	127
95.58417233560091	95.72349206349206	50	127
95.58417233560091	95.76993197278911	60	127
95.7118820861678	95.8047619047619	69	127
95.7118820861678	95.8047619047619	66	127
95.8047619047619	96.15306122448979	67	127
95.8047619047619	96.15306122448979	59	127
95.8047619047619	96.15306122448979	43	127
96.84965986394558	96.96575963718821	68	127
96.84965986394558	97.2792290249433	66	127
96.84965986394558	97.2792290249433	62	127
96.84965986394558	97.69718820861678	60	127
96.96575963718821	97.05863945578231	69	127
97.05863945578231	97.17473922902494	71	127
97.17473922902494	97.2792290249433	72	127
97.2792290249433	97.37210884353742	73	127
97.2792290249433	97.69718820861678	69	127
97.2792290249433	97.69718820861678	66	127
97.37210884353742	97.47659863945579	74	127
97.47659863945579	97.56947845804989	76	127
97.56947845804989	97.69718820861678	74	127
97.69718820861678	98.09192743764173	74	127
97.69718820861678	98.09192743764173	71	127
97.69718820861678	98.09192743764173	67	127
97.69718820861678	98.09192743764173	59	127
98.09192743764173	98.2544671201814	79	127
98.09192743764173	98.2544671201814	67	127
98.09192743764173	98.2544671201814	59	127
98.09192743764173	98.2544671201814	52	127
98.56793650793651	98.96267573696146	69	127
98.56793650793651	98.96267573696146	67	127
98.56793650793651	98.96267573696146	64	127
98.56793650793651	98.96267573696146	48	127
98.96267573696146	99.1368253968254	74	127
98.96267573696146	99.1368253968254	66	127
98.96267573696146	99.1368253968254	57	127
98.96267573696146	99.1368253968254	50	127
99.40385487528344	99.87986394557824	72	127
99.40385487528344	99.87986394557824	69	127
99.40385487528344	99.87986394557824	66	127
99.40385487528344	99.87986394557824	52	127
99.87986394557824	100.05401360544218	71	127
99.87986394557824	100.05401360544218	67	127
99.87986394557824	100.05401360544218	67	127
99.87986394557824	100.05401360544218	52	127
100.32104308390022	100.44875283446711	68	127
100.32104308390022	100.72739229024943	64	127
100.32104308390022	100.72739229024943	60	127
100.32104308390022	101.07569160997733	48	127
100.46036281179138	100.56485260770975	69	127
100.58807256235828	100.69256235827665	71	127
100.71578231292517	100.78544217687075	72	127
100.80866213151927	100.88993197278911	73	127
100.80866213151927	101.16857142857143	66	127
100.80866213151927	101.16857142857143	57	127
100.91315192743764	101.00603174603175	74	127
101.01764172335601	101.1105215419501	76	127
101.1453514739229	101.22662131519274	74	127
101.24984126984127	101.69102040816327	74	127
101.24984126984127	101.69102040816327	67	127
101.24984126984127	101.69102040816327	55	127
101.24984126984127	101.69102040816327	47	127
101.69102040816327	101.84195011337869	79	127
101.69102040816327	101.84195011337869	64	127
101.69102040816327	101.84195011337869	58	127
101.69102040816327	101.86517006802721	49	127
102.09736961451247	102.53854875283447	67	127
102.09736961451247	102.53854875283447	62	127
102.09736961451247	102.53854875283447	59	127
102.09736961451247	103.02616780045352	50	127
102.53854875283447	102.71269841269842	71	127
102.53854875283447	102.95650793650793	66	127
102.53854875283447	102.95650793650793	60	127
102.79396825396826	102.99133786848073	69	127
103.02616780045352	103.23514739229024	67	127
103.02616780045352	103.23514739229024	59	127
103.02616780045352	103.23514739229024	55	127
103.5370068027211	103.57183673469387	64	127
103.5370068027211	103.67632653061224	71	127
103.5370068027211	103.67632653061224	67	127
103.71115646258504	103.76920634920634	64	127
103.9085260770975	104.04784580498867	72	127
103.9085260770975	104.04784580498867	69	127
103.9085260770975	104.09428571428572	64	127
104.09428571428572	104.24521541950114	57	127
104.30326530612246	104.36131519274376	62	127
104.30326530612246	104.46580498866213	69	127
104.30326530612246	104.46580498866213	66	127
104.50063492063492	104.5702947845805	62	127
104.74444444444444	104.90698412698413	71	127
104.74444444444444	104.90698412698413	67	127
104.74444444444444	104.94181405895692	62	127
104.94181405895692	105.06952380952382	55	127
105.11596371882086	105.16240362811791	52	127
105.11596371882086	105.25528344671201	79	127
105.11596371882086	105.25528344671201	71	127
105.11596371882086	105.25528344671201	64	127
105.30172335600908	105.35977324263038	52	127
105.49909297052154	105.66163265306122	81	127
105.49909297052154	105.66163265306122	72	127
105.49909297052154	105.66163265306122	64	127
105.49909297052154	105.69646258503401	52	127
105.69646258503401	105.87061224489796	45	127
105.917052154195	105.9867120181406	50	127
105.917052154195	106.09120181405896	78	127
105.917052154195	106.09120181405896	69	127
105.917052154195	106.09120181405896	62	127
106.13764172335601	106.19569160997733	50	127
106.34662131519275	106.47433106575964	79	127
106.34662131519275	106.47433106575964	67	127
106.34662131519275	106.47433106575964	62	127
106.34662131519275	106.49755102040817	50	127
106.49755102040817	106.67170068027211	43	127
106.7065306122449	106.77619047619048	88	127
106.7065306122449	106.86907029478458	79	127
106.7065306122449	106.86907029478458	69	127
106.7065306122449	106.86907029478458	49	127
106.91551020408163	106.97356009070295	88	127
107.12448979591836	107.28702947845805	79	127
107.12448979591836	107.28702947845805	69	127
107.12448979591836	107.28702947845805	50	127
107.12448979591836	107.32185941043083	88	127
107.32185941043083	107.43795918367347	81	127
107.47278911564626	107.5540589569161	86	127
107.47278911564626	107.68176870748299	78	127
107.47278911564626	107.68176870748299	72	127
107.47278911564626	107.68176870748299	38	127
107.76303854875283	107.82108843537415	86	127
107.98362811791384	108.16938775510204	79	127
107.98362811791384	108.16938775510204	71	127
107.98362811791384	108.16938775510204	43	127
107.98362811791384	108.20421768707483	86	127
108.20421768707483	108.36675736961452	79	127
108.4015873015873	108.45963718820862	79	127
108.4015873015873	108.45963718820862	67	127
108.4015873015873	108.45963718820862	67	127
108.61056689342404	108.66861678004535	79	127
108.61056689342404	108.66861678004535	69	127
108.61056689342404	108.66861678004535	66	127
108.79632653061225	108.85437641723357	79	127
108.79632653061225	108.85437641723357	71	127
108.79632653061225	108.85437641723357	65	127
108.79632653061225	108.85437641723357	62	127
108.99369614512472	109.05174603174603	79	127
108.99369614512472	109.05174603174603	72	127
108.99369614512472	109.05174603174603	64	127
108.99369614512472	109.05174603174603	60	127
109.19106575963718	109.2491156462585	79	127
109.19106575963718	109.2491156462585	74	127
109.19106575963718	109.2491156462585	62	127
109.19106575963718	109.2491156462585	59	127
109.35360544217687	109.41165532879819	79	127
109.35360544217687	109.41165532879819	76	127
109.35360544217687	109.41165532879819	60	127
109.35360544217687	109.41165532879819	57	127
109.55097505668934	109.74834467120182	81	127
109.55097505668934	109.95732426303854	77	127
109.55097505668934	109.95732426303854	59	127
109.55097505668934	109.95732426303854	55	127
109.74834467120182	109.92249433106576	79	127
109.95732426303854	110.01537414965986	79	127
109.95732426303854	110.01537414965986	67	127
109.95732426303854	110.01537414965986	67	127
110.14308390022676	110.20113378684808	79	127
110.14308390022676	110.20113378684808	69	127
110.14308390022676	110.20113378684808	66	127
110.3520634920635	110.41011337868481	79	127
110.3520634920635	110.41011337868481	71	127
110.3520634920635	110.41011337868481	65	127
110.3520634920635	110.41011337868481	62	127
110.54943310657596	110.60748299319728	79	127
110.54943310657596	110.60748299319728	72	127
110.54943310657596	110.60748299319728	64	127
110.54943310657596	110.60748299319728	60	127
110.78163265306122	110.83968253968254	79	127
110.78163265306122	110.83968253968254	74	127
110.78163265306122	110.83968253968254	62	127
110.78163265306122	110.83968253968254	59	127
110.99061224489796	111.04866213151928	79	127
110.99061224489796	111.04866213151928	76	127
110.99061224489796	111.04866213151928	60	127
110.99061224489796	111.04866213151928	57	127
111.18798185941043	111.40857142857143	81	127
111.18798185941043	111.698820861678	77	127
111.18798185941043	111.698820861678	59	127
111.18798185941043	111.698820861678	55	127
111.40857142857143	111.64077097505668	79	127
112.74371882086167	112.80176870748299	79	127
112.94108843537416	112.99913832199546	79	127
113.13845804988662	113.33582766439909	67	127
113.13845804988662	113.33582766439909	63	127
113.13845804988662	113.45192743764173	60	127
113.13845804988662	113.71895691609977	79	127
113.33582766439909	113.53319727891156	63	127
113.33582766439909	113.53319727891156	60	127
113.53319727891156	113.71895691609977	67	127
113.53319727891156	113.71895691609977	63	127
113.71895691609977	113.91632653061224	84	127
113.91632653061224	114.11369614512472	65	127
113.91632653061224	114.11369614512472	62	127
113.91632653061224	114.22979591836734	55	127
113.91632653061224	114.52004535147393	83	127
114.11369614512472	114.32267573696146	62	127
114.11369614512472	114.32267573696146	59	127
114.32267573696146	114.52004535147393	65	127
114.32267573696146	114.52004535147393	62	127
114.52004535147393	114.71741496598639	77	127
114.71741496598639	114.91478458049886	75	127
114.71741496598639	114.91478458049886	48	127
114.91478458049886	115.11215419501134	72	127
114.91478458049886	115.11215419501134	51	127
114.91478458049886	115.22825396825397	67	127
115.11215419501134	115.30952380952381	68	127
115.11215419501134	115.30952380952381	53	127
115.30952380952381	115.4720634920635	65	127
115.30952380952381	115.50689342403628	74	127
115.30952380952381	115.50689342403628	50	127
115.50689342403628	115.72748299319728	72	127
115.50689342403628	115.72748299319728	63	127
115.50689342403628	115.85519274376418	55	127
115.72748299319728	115.78553287981859	71	127
115.72748299319728	115.89002267573696	62	127
115.72748299319728	115.89002267573696	67	127
115.92485260770975	116.0061224489796	67	127
115.92485260770975	116.0990022675737	66	127
116.15705215419501	116.20349206349206	67	127
116.15705215419501	116.29637188208616	65	127
116.34281179138323	116.5401814058957	72	127
116.34281179138323	116.5401814058957	63	127
116.34281179138323	117.13229024943311	67	127
116.5401814058957	116.73755102040816	71	127
116.5401814058957	116.73755102040816	62	127
116.73755102040816	116.93492063492063	72	127
116.73755102040816	116.93492063492063	63	127
116.93492063492063	117.13229024943311	75	127
116.93492063492063	117.13229024943311	60	127
117.13229024943311	117.31804988662131	74	127
117.13229024943311	117.31804988662131	59	127
117.13229024943311	117.72439909297051	67	127
117.31804988662131	117.51541950113379	73	127
117.31804988662131	117.51541950113379	57	127
117.51541950113379	117.72439909297051	74	127
117.51541950113379	117.72439909297051	59	127
117.72439909297051	117.921768707483	77	127
117.72439909297051	117.921768707483	59	127
117.72439909297051	117.921768707483	55	127
117.921768707483	118.14235827664399	75	127
117.921768707483	118.14235827664399	60	127
117.921768707483	118.75768707482993	60	127
118.14235827664399	118.35133786848073	79	127
118.14235827664399	118.35133786848073	64	127
118.14235827664399	118.35133786848073	58	127
118.35133786848073	118.5487074829932	77	127
118.35133786848073	118.5487074829932	65	127
118.35133786848073	118.5487074829932	56	127
118.5487074829932	118.75768707482993	80	127
118.5487074829932	118.75768707482993	72	127
118.5487074829932	118.75768707482993	53	127
118.75768707482993	118.96666666666667	75	127
118.75768707482993	118.96666666666667	72	127
118.75768707482993	119.18725623582766	67	127
118.75768707482993	119.18725623582766	55	127
118.96666666666667	119.18725623582766	74	127
118.96666666666667	119.18725623582766	71	127
119.18725623582766	119.24530612244898	79	127
119.38462585034014	119.3962358276644	79	127
119.54716553287982	119.65165532879818	64	127
119.54716553287982	119.65165532879818	60	127
119.54716553287982	119.7097052154195	48	127
119.54716553287982	120.05800453514739	79	127
119.65165532879818	119.77936507936508	60	127
119.65165532879818	119.77936507936508	55	127
119.77936507936508	119.87224489795918	64	127
119.77936507936508	119.87224489795918	60	127
119.77936507936508	119.94190476190477	48	127
119.87224489795918	119.97673469387755	60	127
119.87224489795918	119.97673469387755	55	127
119.97673469387755	120.13927437641723	48	127
119.97673469387755	120.18571428571428	64	127
119.97673469387755	120.18571428571428	60	127
120.18571428571428	120.3366439909297	84	127
120.3714739229025	120.47596371882086	65	127
120.3714739229025	120.47596371882086	62	127
120.3714739229025	120.54562358276644	55	127
120.3714739229025	120.94036281179139	83	127
120.47596371882086	120.60367346938776	62	127
120.47596371882086	120.60367346938776	59	127
120.60367346938776	120.69655328798186	65	127
120.60367346938776	120.69655328798186	62	127
120.60367346938776	120.75460317460318	55	127
120.69655328798186	120.82426303854875	62	127
120.69655328798186	120.82426303854875	59	127
120.82426303854875	121.02163265306122	55	127
120.82426303854875	121.05646258503401	65	127
120.82426303854875	121.05646258503401	62	127
121.05646258503401	121.2190022675737	77	127
121.25383219954648	121.39315192743764	75	127
121.25383219954648	121.39315192743764	60	127
121.39315192743764	121.60213151927438	72	127
121.39315192743764	121.60213151927438	67	127
121.39315192743764	121.60213151927438	51	127
121.60213151927438	121.82272108843537	69	127
121.60213151927438	121.82272108843537	60	127
121.60213151927438	121.82272108843537	53	127
121.82272108843537	122.00848072562358	74	127
121.82272108843537	122.00848072562358	69	127
121.82272108843537	122.00848072562358	54	127
122.00848072562358	122.20585034013605	71	127
122.00848072562358	122.20585034013605	62	127
122.00848072562358	122.20585034013605	55	127
122.20585034013605	122.39160997732426	75	127
122.20585034013605	122.39160997732426	67	127
122.20585034013605	122.39160997732426	43	127
122.39160997732426	122.58897959183673	72	127
122.39160997732426	122.58897959183673	63	127
122.39160997732426	122.58897959183673	44	127
122.58897959183673	122.7863492063492	77	127
122.58897959183673	122.7863492063492	72	127
122.58897959183673	122.7863492063492	45	127
122.7863492063492	123.0069387755102	74	127
122.7863492063492	123.0069387755102	65	127
122.7863492063492	123.0069387755102	46	127
123.0069387755102	123.2275283446712	79	127
123.0069387755102	123.2275283446712	74	127
123.0069387755102	123.2275283446712	47	127
123.2275283446712	123.43650793650794	75	127
123.2275283446712	123.43650793650794	67	127
123.2275283446712	123.43650793650794	48	127
123.43650793650794	123.59904761904762	63	127
123.43650793650794	123.6338775510204	80	127
123.43650793650794	123.6338775510204	75	127
123.43650793650794	123.6338775510204	36	127
123.6338775510204	123.84285714285714	68	127
123.6338775510204	123.91251700680272	77	127
123.6338775510204	123.91251700680272	70	127
123.6338775510204	124.0750566893424	38	127
123.91251700680272	124.1098866213152	82	127
123.91251700680272	124.1098866213152	80	127
123.91251700680272	124.1098866213152	65	127
125.31732426303854	125.37537414965986	70	127
125.57274376417233	125.63079365079365	70	127
125.77011337868481	125.93265306122449	67	127
125.77011337868481	125.93265306122449	63	127
125.77011337868481	126.1184126984127	51	127
125.77011337868481	126.54798185941043	70	127
125.96748299319728	126.16485260770975	63	127
125.96748299319728	126.16485260770975	58	127
126.19968253968254	126.50154195011338	67	127
126.19968253968254	126.50154195011338	63	127
126.54798185941043	126.74535147392291	75	127
126.74535147392291	126.90789115646258	68	127
126.74535147392291	126.90789115646258	65	127
126.74535147392291	127.058820861678	46	127
126.74535147392291	127.25619047619048	74	127
126.95433106575963	127.0936507936508	65	127
126.95433106575963	127.0936507936508	62	127
127.11687074829932	127.23297052154194	68	127
127.11687074829932	127.23297052154194	65	127
127.25619047619048	127.41873015873016	68	127
127.41873015873016	127.55804988662132	67	127
127.41873015873016	127.55804988662132	63	127
127.55804988662132	127.70897959183674	70	127
127.55804988662132	127.70897959183674	67	127
127.74380952380952	127.80185941043084	61	127
127.91795918367347	127.98761904761905	61	127
128.11532879818594	128.26625850340136	61	127
128.32430839002268	128.48684807256237	55	127
128.52167800453515	128.57972789115647	73	127
128.52167800453515	128.57972789115647	58	127
128.73065759637188	128.7887074829932	73	127
128.73065759637188	128.7887074829932	58	127
128.9512471655329	129.17183673469387	73	127
128.9512471655329	129.17183673469387	58	127
129.17183673469387	129.33437641723356	67	127
129.17183673469387	129.33437641723356	52	127
129.3808163265306	129.43886621315193	70	127
129.57818594104307	129.64784580498866	70	127
129.83360544217686	129.97292517006804	70	127
129.97292517006804	130.08902494331065	64	127
130.1122448979592	130.15868480725624	72	127
130.29800453514738	130.3560544217687	72	127
130.53020408163266	130.68113378684808	68	127
130.53020408163266	130.68113378684808	65	127
130.53020408163266	130.84367346938777	53	127
130.53020408163266	131.0178231292517	72	127
130.72757369614513	130.87850340136055	65	127
130.72757369614513	130.87850340136055	60	127
130.93655328798187	131.1107029478458	68	127
130.93655328798187	131.1107029478458	65	127
131.1455328798186	131.3080725623583	77	127
131.34290249433107	131.50544217687076	70	127
131.34290249433107	131.50544217687076	67	127
131.34290249433107	131.65637188208618	48	127
131.34290249433107	131.81891156462586	76	127
131.54027210884354	131.69120181405896	67	127
131.54027210884354	131.69120181405896	64	127
131.737641723356	131.88857142857142	70	127
131.737641723356	131.88857142857142	67	127
131.93501133786847	132.09755102040816	70	127
132.10916099773243	132.28328798185942	69	127
132.10916099773243	132.28328798185942	65	127
132.28328798185942	132.42263038548754	72	127
132.28328798185942	132.42263038548754	69	127
132.4690702947846	132.5271201814059	63	127
132.68963718820862	132.77092970521542	63	127
132.89861678004536	133.08439909297053	63	127
133.08439909297053	133.23532879818595	57	127
133.25854875283446	133.33981859410432	75	127
133.25854875283446	133.33981859410432	60	127
133.47913832199546	133.53718820861678	75	127
133.47913832199546	133.53718820861678	60	127
133.69972789115647	133.9087074829932	75	127
133.69972789115647	133.9087074829932	60	127
133.9087074829932	134.0944671201814	69	127
133.9087074829932	134.0944671201814	53	127
134.1292970521542	134.21056689342404	87	127
134.1292970521542	134.21056689342404	84	127
134.37310657596373	134.41954648526078	87	127
134.37310657596373	134.41954648526078	84	127
134.54725623582766	134.67496598639457	87	127
134.54725623582766	134.67496598639457	84	127
134.67496598639457	134.83748299319728	81	127
134.67496598639457	134.83748299319728	78	127
134.8839455782313	134.94197278911565	84	127
134.8839455782313	134.94197278911565	81	127
134.8839455782313	134.94197278911565	66	127
134.8839455782313	134.94197278911565	63	127
135.09290249433107	135.15097505668933	84	127
135.09290249433107	135.15097505668933	81	127
135.09290249433107	135.15097505668933	66	127
135.09290249433107	135.15097505668933	63	127
135.2902947845805	135.5108843537415	84	127
135.2902947845805	135.5108843537415	81	127
135.2902947845805	135.5108843537415	66	127
135.2902947845805	135.5108843537415	63	127
135.5108843537415	135.67342403628118	78	127
135.5108843537415	135.67342403628118	75	127
135.5108843537415	135.67342403628118	72	127
135.5108843537415	135.67342403628118	69	127
135.708231292517	135.76630385487528	81	127
135.708231292517	135.76630385487528	78	127
135.708231292517	135.76630385487528	63	127
135.708231292517	135.76630385487528	59	127
135.90562358276645	135.975283446712	81	127
135.90562358276645	135.975283446712	78	127
135.90562358276645	135.975283446712	63	127
135.90562358276645	135.975283446712	59	127
136.12621315192743	136.32356009070295	81	127
136.12621315192743	136.32356009070295	78	127
136.12621315192743	136.32356009070295	63	127
136.12621315192743	136.32356009070295	59	127
136.32356009070295	136.4861224489796	75	127
136.32356009070295	136.4861224489796	71	127
136.32356009070295	136.4861224489796	69	127
136.32356009070295	136.4861224489796	66	127
136.5209523809524	136.57897959183674	83	127
136.5209523809524	136.57897959183674	71	127
136.71832199546486	136.77637188208618	83	127
136.71832199546486	136.77637188208618	71	127
136.9273015873016	137.1130612244898	83	127
136.9273015873016	137.1130612244898	71	127
137.1130612244898	137.27560090702949	76	127
137.1130612244898	137.27560090702949	64	127
137.31043083900227	137.48458049886622	52	127
137.31043083900227	137.65873015873015	79	127
137.31043083900227	137.65873015873015	64	127
137.31043083900227	137.65873015873015	71	127
137.53102040816327	137.69356009070296	52	127
137.71678004535147	137.9257596371882	52	127
137.71678004535147	138.04185941043085	78	127
137.71678004535147	138.04185941043085	64	127
137.71678004535147	138.04185941043085	73	127
137.9257596371882	138.06507936507936	46	127
138.11149659863946	138.2740589569161	66	127
138.11149659863946	138.4249886621315	82	127
138.11149659863946	138.4249886621315	73	127
138.11149659863946	138.4249886621315	76	127
138.3088888888889	138.47142857142856	66	127
138.50625850340137	138.7152380952381	66	127
138.50625850340137	138.83133786848072	83	127
138.50625850340137	138.83133786848072	66	127
138.50625850340137	138.83133786848072	74	127
138.7152380952381	138.86616780045352	59	127
138.91260770975057	138.9706575963719	59	127
138.91260770975057	138.9706575963719	47	127
138.91260770975057	139.22607709750568	86	127
138.91260770975057	139.22607709750568	71	127
138.91260770975057	139.22607709750568	78	127
139.10997732426304	139.16802721088436	59	127
139.10997732426304	139.16802721088436	47	127
139.3073469387755	139.48149659863947	59	127
139.3073469387755	139.48149659863947	47	127
139.3073469387755	139.64401360544218	85	127
139.3073469387755	139.64401360544218	80	127
139.3073469387755	139.64401360544218	71	127
139.51632653061225	139.67886621315193	53	127
139.51632653061225	139.67886621315193	41	127
139.72530612244898	139.7949433106576	85	127
139.72530612244898	139.7949433106576	73	127
139.93428571428572	139.99233560090704	85	127
139.93428571428572	139.99233560090704	73	127
140.12004535147392	140.27097505668934	85	127
140.12004535147392	140.27097505668934	73	127
140.30578231292517	140.47995464852607	78	127
140.30578231292517	140.47995464852607	66	127
140.5380045351474	140.5960544217687	54	127
140.5380045351474	140.8514739229025	81	127
140.5380045351474	140.8514739229025	66	127
140.5380045351474	140.8514739229025	73	127
140.73537414965986	140.79342403628118	54	127
140.92111111111112	141.08367346938775	54	127
140.92111111111112	141.24621315192744	80	127
140.92111111111112	141.24621315192744	66	127
140.92111111111112	141.24621315192744	75	127
141.11850340136056	141.28102040816327	48	127
141.32746031746032	141.38553287981858	68	127
141.32746031746032	141.64095238095237	84	127
141.32746031746032	141.64095238095237	75	127
141.32746031746032	141.64095238095237	78	127
141.52485260770976	141.58290249433108	68	127
141.72222222222223	141.90798185941043	68	127
141.72222222222223	142.03569160997733	85	127
141.72222222222223	142.03569160997733	73	127
141.72222222222223	142.03569160997733	76	127
141.90798185941043	142.07052154195011	61	127
142.1053514739229	142.18662131519275	49	127
142.1053514739229	142.29111111111112	61	127
142.1053514739229	142.45362811791384	88	127
142.1053514739229	142.45362811791384	73	127
142.1053514739229	142.45362811791384	80	127
142.33755102040817	142.3956009070295	49	127
142.33755102040817	142.4884807256236	61	127
142.53492063492064	142.74390022675738	61	127
142.53492063492064	142.74390022675738	49	127
142.53492063492064	142.86	87	127
142.53492063492064	142.86	82	127
142.53492063492064	142.86	73	127
142.74390022675738	142.9528798185941	55	127
142.74390022675738	142.9528798185941	43	127
142.9877097505669	143.15024943310658	87	127
142.9877097505669	143.15024943310658	75	127
143.28956916099773	143.34761904761905	87	127
143.28956916099773	143.34761904761905	75	127
143.47530612244898	143.63786848072561	87	127
143.47530612244898	143.63786848072561	75	127
143.63786848072561	143.8004081632653	80	127
143.63786848072561	143.8004081632653	68	127
143.84684807256235	143.90489795918367	83	127
143.84684807256235	143.90489795918367	71	127
143.84684807256235	143.90489795918367	68	127
143.84684807256235	143.90489795918367	56	127
144.04421768707482	144.1138775510204	83	127
144.04421768707482	144.1138775510204	71	127
144.04421768707482	144.1138775510204	68	127
144.04421768707482	144.1138775510204	56	127
144.25319727891156	144.43895691609978	83	127
144.25319727891156	144.43895691609978	71	127
144.25319727891156	144.43895691609978	68	127
144.25319727891156	144.43895691609978	56	127
144.43895691609978	144.57827664399093	76	127
144.43895691609978	144.57827664399093	64	127
144.43895691609978	144.57827664399093	61	127
144.43895691609978	144.57827664399093	49	127
144.6131065759637	144.67115646258503	80	127
144.6131065759637	144.67115646258503	68	127
144.6131065759637	144.67115646258503	64	127
144.6131065759637	144.67115646258503	52	127
144.79886621315194	144.8685260770975	80	127
144.79886621315194	144.8685260770975	68	127
144.79886621315194	144.8685260770975	64	127
144.79886621315194	144.8685260770975	52	127
144.9962358276644	145.1819954648526	80	127
144.9962358276644	145.1819954648526	68	127
144.9962358276644	145.1819954648526	64	127
144.9962358276644	145.1819954648526	52	127
145.1819954648526	145.3445351473923	73	127
145.1819954648526	145.3445351473923	61	127
145.1819954648526	145.3445351473923	57	127
145.1819954648526	145.3445351473923	45	127
145.37936507936507	145.4374149659864	64	127
145.37936507936507	145.4374149659864	61	127
145.37936507936507	145.4374149659864	49	127
145.37936507936507	145.4374149659864	76	127
145.5767120181406	145.63478458049886	76	127
145.5767120181406	145.63478458049886	64	127
145.5767120181406	145.63478458049886	61	127
145.5767120181406	145.63478458049886	49	127
145.78571428571428	145.9714739229025	76	127
145.78571428571428	145.9714739229025	64	127
145.78571428571428	145.9714739229025	61	127
145.78571428571428	145.9714739229025	49	127
145.9714739229025	146.13399092970522	69	127
145.9714739229025	146.13399092970522	57	127
145.9714739229025	146.13399092970522	54	127
145.9714739229025	146.13399092970522	42	127
146.16884353741497	146.2268934240363	85	127
146.16884353741497	146.2268934240363	73	127
146.16884353741497	146.2268934240363	69	127
146.16884353741497	146.2268934240363	57	127
146.3778231292517	146.43587301587303	85	127
146.3778231292517	146.43587301587303	73	127
146.3778231292517	146.43587301587303	69	127
146.3778231292517	146.43587301587303	57	127
146.5635827664399	146.76095238095238	85	127
146.5635827664399	146.76095238095238	73	127
146.5635827664399	146.76095238095238	69	127
146.5635827664399	146.76095238095238	57	127
146.76095238095238	146.9118820861678	78	127
146.76095238095238	146.9118820861678	66	127
146.76095238095238	146.9118820861678	63	127
146.76095238095238	146.9118820861678	51	127
146.95832199546484	147.01637188208616	81	127
146.95832199546484	147.01637188208616	69	127
146.95832199546484	147.01637188208616	66	127
146.95832199546484	147.01637188208616	54	127
147.15566893424037	147.21374149659863	81	127
147.15566893424037	147.21374149659863	69	127
147.15566893424037	147.21374149659863	66	127
147.15566893424037	147.21374149659863	54	127
147.34145124716554	147.58526077097505	81	127
147.34145124716554	147.58526077097505	69	127
147.34145124716554	147.58526077097505	66	127
147.34145124716554	147.58526077097505	54	127
147.58526077097505	147.73619047619047	80	127
147.58526077097505	147.73619047619047	68	127
147.58526077097505	147.73619047619047	64	127
147.58526077097505	147.73619047619047	52	127
147.78263038548752	147.84068027210884	78	127
147.78263038548752	147.84068027210884	66	127
147.78263038548752	147.84068027210884	63	127
147.78263038548752	147.84068027210884	51	127
147.99160997732426	148.04965986394558	76	127
147.99160997732426	148.04965986394558	64	127
147.99160997732426	148.04965986394558	61	127
147.99160997732426	148.04965986394558	49	127
148.200589569161	148.25863945578232	59	127
148.200589569161	148.72303854875284	75	127
148.200589569161	148.72303854875284	83	127
148.200589569161	148.72303854875284	59	127
148.200589569161	148.72303854875284	47	127
148.25863945578232	148.72303854875284	71	127
148.25863945578232	148.72303854875284	66	127
149.79115646258504	149.84920634920636	71	127
149.97691609977323	150.00013605442177	71	127
150.1162358276644	150.36004535147393	68	127
150.1162358276644	150.36004535147393	64	127
150.1162358276644	150.56902494331067	52	127
150.1162358276644	150.70834467120181	71	127
150.3948752834467	150.60385487528345	64	127
150.3948752834467	150.60385487528345	59	127
150.6502947845805	150.7895918367347	68	127
150.6502947845805	150.7895918367347	64	127
150.83603174603175	151.01020408163265	76	127
151.0450113378685	151.26562358276644	69	127
151.0450113378685	151.26562358276644	66	127
151.0450113378685	151.41655328798186	47	127
151.0450113378685	151.5907029478458	75	127
151.28884353741498	151.4513605442177	66	127
151.28884353741498	151.4513605442177	63	127
151.50943310657595	151.67197278911564	69	127
151.50943310657595	151.67197278911564	66	127
151.69519274376418	151.83451247165533	69	127
151.88095238095238	152.14798185941044	68	127
151.88095238095238	152.14798185941044	64	127
151.88095238095238	152.29891156462585	59	127
151.88095238095238	152.29891156462585	52	127
152.18281179138322	152.35696145124717	71	127
152.18281179138322	152.35696145124717	68	127
153.36702947845805	153.3902494331066	71	127
153.43668934240364	153.47151927437642	71	127
153.5760090702948	153.73854875283448	67	127
153.5760090702948	153.73854875283448	64	127
153.5760090702948	153.90108843537416	52	127
153.5760090702948	154.0752380952381	71	127
153.78498866213152	153.9475283446712	64	127
153.78498866213152	153.9475283446712	59	127
153.99396825396826	154.17972789115646	67	127
153.99396825396826	154.17972789115646	64	127
154.2145351473923	154.43514739229025	76	127
154.4815873015873	154.63251700680271	69	127
154.4815873015873	154.63251700680271	66	127
154.4815873015873	154.80666666666667	47	127
154.4815873015873	154.98079365079366	75	127
154.69056689342403	154.85310657596372	66	127
154.69056689342403	154.85310657596372	63	127
154.8879365079365	155.0504761904762	69	127
154.8879365079365	155.0504761904762	66	127
155.08530612244897	155.23621315192744	69	127
155.2710657596372	155.50326530612244	67	127
155.2710657596372	155.50326530612244	64	127
155.2710657596372	155.73546485260772	59	127
155.2710657596372	155.73546485260772	52	127
155.50326530612244	155.65419501133786	71	127
155.50326530612244	155.65419501133786	67	127
156.62943310657596	156.675873015873	71	127
156.82680272108843	156.9661224489796	67	127
156.82680272108843	156.9661224489796	64	127
156.82680272108843	157.19832199546485	52	127
156.82680272108843	157.4073015873016	71	127
156.9661224489796	157.0822222222222	64	127
156.9661224489796	157.0822222222222	59	127
157.0822222222222	157.17507936507937	67	127
157.0822222222222	157.17507936507937	64	127
157.17507936507937	157.32603174603176	64	127
157.17507936507937	157.32603174603176	59	127
157.32603174603176	157.48857142857142	67	127
157.32603174603176	157.48857142857142	64	127
157.52340136054423	157.68591836734694	76	127
157.70916099773243	157.8136507936508	71	127
157.70916099773243	157.8136507936508	67	127
157.70916099773243	158.06907029478458	52	127
157.70916099773243	158.23160997732427	76	127
157.8136507936508	157.9065306122449	67	127
157.8136507936508	157.9065306122449	64	127
157.9065306122449	158.02263038548753	71	127
157.9065306122449	158.02263038548753	67	127
158.02263038548753	158.15031746031747	67	127
158.02263038548753	158.15031746031747	64	127
158.15031746031747	158.30124716553289	71	127
158.15031746031747	158.30124716553289	67	127
158.3477097505669	158.51024943310657	79	127
158.54507936507937	158.7192290249433	79	127
158.54507936507937	158.85854875283448	59	127
158.54507936507937	158.85854875283448	55	127
158.54507936507937	158.85854875283448	50	127
158.7540589569161	158.881768707483	77	127
158.92820861678004	158.98625850340136	67	127
158.92820861678004	158.98625850340136	67	127
159.11396825396827	159.1719954648526	69	127
159.11396825396827	159.1719954648526	66	127
159.32292517006803	159.3809977324263	71	127
159.32292517006803	159.3809977324263	65	127
159.32292517006803	159.3809977324263	62	127
159.52031746031747	159.57834467120182	72	127
159.52031746031747	159.57834467120182	64	127
159.52031746031747	159.57834467120182	60	127
159.71768707482994	159.79895691609977	74	127
159.71768707482994	159.79895691609977	62	127
159.71768707482994	159.79895691609977	59	127
159.92666666666668	159.984716553288	76	127
159.92666666666668	159.984716553288	60	127
159.92666666666668	159.984716553288	57	127
160.11242630385487	160.30979591836734	79	127
160.11242630385487	160.4839455782313	59	127
160.11242630385487	160.4839455782313	55	127
160.30979591836734	160.46072562358276	77	127
160.4839455782313	160.55358276643992	71	127
160.4839455782313	160.55358276643992	67	127
160.4839455782313	160.55358276643992	67	127
160.69292517006804	160.75097505668936	72	127
160.69292517006804	160.75097505668936	69	127
160.69292517006804	160.75097505668936	66	127
160.8902947845805	160.94834467120182	74	127
160.8902947845805	160.94834467120182	71	127
160.8902947845805	160.94834467120182	65	127
160.8902947845805	160.94834467120182	62	127
161.09927437641724	161.15732426303856	76	127
161.09927437641724	161.15732426303856	72	127
161.09927437641724	161.15732426303856	64	127
161.09927437641724	161.15732426303856	60	127
161.2966439909297	161.35469387755103	77	127
161.2966439909297	161.35469387755103	74	127
161.2966439909297	161.35469387755103	62	127
161.2966439909297	161.35469387755103	59	127
161.49401360544218	161.5520634920635	79	127
161.49401360544218	161.5520634920635	76	127
161.49401360544218	161.5520634920635	60	127
161.49401360544218	161.5520634920635	57	127
161.67977324263038	161.8655328798186	81	127
161.67977324263038	162.08609977324264	77	127
161.67977324263038	162.08609977324264	59	127
161.67977324263038	162.08609977324264	55	127
161.8655328798186	161.94680272108843	79	127
162.08609977324264	162.1441723356009	79	127
162.29510204081632	162.3647619047619	79	127
162.50408163265305	162.66662131519274	77	127
162.50408163265305	162.66662131519274	59	127
162.50408163265305	162.66662131519274	62	127
162.50408163265305	162.66662131519274	43	127
162.50408163265305	162.7130612244898	81	127
162.7130612244898	162.7711111111111	79	127
162.91043083900226	163.07297052154195	77	127
162.91043083900226	163.07297052154195	62	127
162.91043083900226	163.07297052154195	59	127
162.91043083900226	163.07297052154195	43	127
162.91043083900226	163.46768707482994	81	127
163.46768707482994	163.54897959183674	79	127
163.69990929705216	163.85083900226758	77	127
163.69990929705216	163.85083900226758	62	127
163.69990929705216	163.85083900226758	59	127
163.69990929705216	163.85083900226758	43	127
163.69990929705216	163.89727891156463	81	127
163.89727891156463	163.95532879818595	79	127
165.66197278911565	165.7200453514739	79	127
165.84775510204082	165.87097505668933	79	127
166.0102947845805	166.25410430839003	67	127
166.0102947845805	166.25410430839003	64	127
166.0102947845805	166.46308390022676	60	127
166.0102947845805	166.66045351473923	79	127
166.25410430839003	166.46308390022676	64	127
166.25410430839003	166.46308390022676	60	127
166.46308390022676	166.66045351473923	67	127
166.46308390022676	166.66045351473923	64	127
166.66045351473923	166.82299319727892	84	127
166.82299319727892	167.0203628117914	65	127
166.82299319727892	167.0203628117914	62	127
166.82299319727892	167.25256235827663	55	127
166.82299319727892	167.43832199546486	83	127
167.0203628117914	167.25256235827663	62	127
167.0203628117914	167.25256235827663	59	127
167.25256235827663	167.43832199546486	65	127
167.25256235827663	167.43832199546486	62	127
167.43832199546486	167.63569160997733	77	127
167.63569160997733	167.84467120181407	76	127
167.63569160997733	167.84467120181407	48	127
167.84467120181407	168.0536507936508	72	127
167.84467120181407	168.0536507936508	67	127
167.84467120181407	168.0536507936508	52	127
168.0536507936508	168.22780045351473	69	127
168.0536507936508	168.22780045351473	60	127
168.0536507936508	168.22780045351473	53	127
168.22780045351473	168.39034013605442	74	127
168.22780045351473	168.39034013605442	69	127
168.22780045351473	168.39034013605442	54	127
168.39034013605442	168.59931972789116	72	127
168.39034013605442	168.59931972789116	64	127
168.39034013605442	168.78507936507935	55	127
168.59931972789116	168.75024943310657	71	127
168.59931972789116	168.75024943310657	62	127
168.59931972789116	168.78507936507935	67	127
168.78507936507935	168.85473922902494	67	127
168.78507936507935	169.00566893424036	66	127
169.00566893424036	169.06371882086168	67	127
169.00566893424036	169.2146485260771	65	127
169.2146485260771	169.27269841269842	72	127
169.2146485260771	169.27269841269842	67	127
169.2146485260771	169.27269841269842	64	127
169.4004081632653	169.45845804988662	72	127
169.4004081632653	169.45845804988662	67	127
169.4004081632653	169.45845804988662	64	127
169.59775510204082	169.66743764172335	73	127
169.59775510204082	169.66743764172335	67	127
169.59775510204082	169.66743764172335	64	127
169.80673469387756	169.86480725623582	73	127
169.80673469387756	169.86480725623582	67	127
169.80673469387756	169.86480725623582	64	127
169.9692970521542	170.004126984127	74	127
169.9692970521542	170.004126984127	67	127
169.9692970521542	170.004126984127	59	127
170.14344671201815	170.20149659863947	74	127
170.14344671201815	170.20149659863947	67	127
170.14344671201815	170.20149659863947	59	127
170.34081632653061	170.3756462585034	75	127
170.34081632653061	170.3756462585034	67	127
170.34081632653061	170.3756462585034	59	127
170.51496598639457	170.57299319727892	75	127
170.51496598639457	170.57299319727892	67	127
170.51496598639457	170.57299319727892	59	127
170.71233560090704	170.88648526077097	76	127
170.71233560090704	170.88648526077097	67	127
170.71233560090704	170.88648526077097	60	127
170.88648526077097	171.0722448979592	79	127
170.88648526077097	171.0722448979592	64	127
170.88648526077097	171.0722448979592	58	127
170.88648526077097	171.2580045351474	72	127
171.0722448979592	171.2580045351474	77	127
171.0722448979592	171.2580045351474	65	127
171.0722448979592	171.2580045351474	57	127
171.2580045351474	171.46698412698413	81	127
171.2580045351474	171.46698412698413	72	127
171.2580045351474	171.46698412698413	60	127
171.2580045351474	171.46698412698413	53	127
171.46698412698413	171.6643537414966	76	127
171.46698412698413	171.6643537414966	72	127
171.46698412698413	171.86172335600907	67	127
171.46698412698413	171.86172335600907	55	127
171.6643537414966	171.82689342403629	74	127
171.6643537414966	171.82689342403629	71	127
171.86172335600907	171.93138321995465	79	127
172.08231292517007	172.1519501133787	79	127
172.27968253968254	172.37256235827664	64	127
172.27968253968254	172.37256235827664	60	127
172.27968253968254	172.43061224489796	48	127
172.27968253968254	172.871768707483	79	127
172.37256235827664	172.477052154195	60	127
172.37256235827664	172.477052154195	55	127
172.477052154195	172.5699319727891	64	127
172.477052154195	172.5699319727891	60	127
172.477052154195	172.6395918367347	48	127
172.5699319727891	172.67442176870748	60	127
172.5699319727891	172.67442176870748	55	127
172.67442176870748	172.83696145124716	48	127
172.67442176870748	172.871768707483	64	127
172.67442176870748	172.871768707483	60	127
172.871768707483	173.06916099773244	84	127
173.06916099773244	173.15043083900227	65	127
173.06916099773244	173.15043083900227	62	127
173.06916099773244	173.2084807256236	55	127
173.06916099773244	173.64965986394557	83	127
173.15043083900227	173.25492063492064	62	127
173.15043083900227	173.25492063492064	59	127
173.25492063492064	173.34780045351474	65	127
173.25492063492064	173.34780045351474	62	127
173.25492063492064	173.41746031746032	55	127
173.34780045351474	173.4522902494331	62	127
173.34780045351474	173.4522902494331	59	127
173.4522902494331	173.6148299319728	55	127
173.4522902494331	173.64965986394557	65	127
173.4522902494331	173.64965986394557	62	127
173.64965986394557	173.8354195011338	77	127
173.8354195011338	174.04437641723356	76	127
173.8354195011338	174.04437641723356	60	127
174.04437641723356	174.2533560090703	72	127
174.04437641723356	174.2533560090703	67	127
174.04437641723356	174.2533560090703	52	127
174.2533560090703	174.43913832199547	69	127
174.2533560090703	174.43913832199547	60	127
174.2533560090703	174.43913832199547	53	127
174.43913832199547	174.63650793650794	74	127
174.43913832199547	174.63650793650794	69	127
174.43913832199547	174.63650793650794	54	127
174.63650793650794	174.8338775510204	72	127
174.63650793650794	174.8338775510204	64	127
174.63650793650794	174.8338775510204	55	127
174.8338775510204	174.98480725623583	71	127
174.8338775510204	174.98480725623583	62	127
174.8338775510204	174.98480725623583	53	127
175.03124716553287	175.0892970521542	72	127
175.03124716553287	175.0892970521542	60	127
175.03124716553287	175.0892970521542	55	127
175.03124716553287	175.0892970521542	52	127
175.19378684807256	175.2402267573696	72	127
175.19378684807256	175.2402267573696	60	127
175.19378684807256	175.2402267573696	55	127
175.19378684807256	175.2402267573696	52	127
175.37954648526076	175.43759637188208	74	127
175.37954648526076	175.43759637188208	60	127
175.37954648526076	175.43759637188208	57	127
175.37954648526076	175.43759637188208	53	127
175.57689342403629	175.64657596371882	74	127
175.57689342403629	175.64657596371882	60	127
175.57689342403629	175.64657596371882	57	127
175.57689342403629	175.64657596371882	53	127
175.78587301587302	175.84394557823128	76	127
175.78587301587302	175.84394557823128	60	127
175.78587301587302	175.84394557823128	58	127
175.78587301587302	175.84394557823128	55	127
175.9948752834467	176.05292517006802	76	127
175.9948752834467	176.05292517006802	60	127
175.9948752834467	176.05292517006802	58	127
175.9948752834467	176.05292517006802	55	127
176.16902494331066	176.2154648526077	77	127
176.16902494331066	176.2154648526077	72	127
176.16902494331066	176.2154648526077	60	127
176.16902494331066	176.2154648526077	57	127
176.34317460317462	176.38961451247167	77	127
176.34317460317462	176.38961451247167	72	127
176.34317460317462	176.38961451247167	60	127
176.34317460317462	176.38961451247167	57	127
176.52893424036282	176.58698412698413	78	127
176.52893424036282	176.58698412698413	72	127
176.52893424036282	176.58698412698413	62	127
176.52893424036282	176.58698412698413	56	127
176.72630385487528	176.77274376417233	78	127
176.72630385487528	176.77274376417233	72	127
176.72630385487528	176.77274376417233	62	127
176.72630385487528	176.77274376417233	56	127
176.91204081632654	177.07460317460317	64	127
176.91204081632654	177.07460317460317	55	127
176.91204081632654	177.10943310657598	79	127
176.91204081632654	177.34163265306123	72	127
177.10943310657598	177.24875283446713	76	127
177.10943310657598	177.2835827664399	60	127
177.10943310657598	177.2835827664399	55	127
177.34163265306123	177.5041723356009	79	127
177.34163265306123	177.5041723356009	76	127
177.34163265306123	177.56222222222223	67	127
177.34163265306123	177.56222222222223	55	127
177.5041723356009	177.60866213151928	77	127
177.5041723356009	177.60866213151928	74	127
177.60866213151928	177.70154195011338	76	127
177.60866213151928	177.70154195011338	72	127
177.60866213151928	177.77120181405897	67	127
177.60866213151928	177.77120181405897	55	127
177.70154195011338	177.80603174603175	74	127
177.70154195011338	177.80603174603175	71	127
177.80603174603175	177.96857142857144	72	127
177.80603174603175	177.96857142857144	64	127
177.80603174603175	177.96857142857144	48	127
178.27043083900227	178.3517006802721	60	127
178.27043083900227	178.3517006802721	60	127
178.27043083900227	178.3517006802721	48	127
178.4909977324263	178.58390022675738	60	127
178.4909977324263	178.58390022675738	60	127
178.4909977324263	178.58390022675738	48	127
178.7464172335601	178.86253968253968	59	127
178.7464172335601	178.86253968253968	59	127
178.7464172335601	178.86253968253968	47	127
179.36174603174604	179.4198185941043	77	127
179.5475283446712	179.60557823129253	77	127
179.74489795918367	179.9538775510204	77	127
179.74489795918367	179.9538775510204	43	127
179.9887074829932	180.06997732426305	79	127
179.9887074829932	180.15124716553288	55	127
180.09319727891156	180.16285714285715	81	127
180.18607709750566	180.24412698412698	65	127
180.18607709750566	180.24412698412698	62	127
180.18607709750566	180.26734693877552	79	127
180.18607709750566	180.36022675736962	55	127
180.3021768707483	180.38342403628118	77	127
180.3950566893424	180.46471655328799	65	127
180.3950566893424	180.46471655328799	62	127
180.3950566893424	180.47632653061225	76	127
180.3950566893424	180.55759637188208	55	127
180.49954648526077	180.58081632653062	74	127
180.60403628117913	180.7781859410431	72	127
180.60403628117913	180.7781859410431	65	127
180.60403628117913	180.7781859410431	55	127
180.60403628117913	181.12648526077098	64	127
180.8362358276644	180.91750566893424	67	127
180.8362358276644	181.01038548752834	55	127
180.8362358276644	181.16131519274376	71	127
180.95233560090702	181.0219954648526	69	127
181.04521541950115	181.12648526077098	67	127
181.04521541950115	181.2077551020408	55	127
181.14968253968254	181.23097505668935	65	127
181.24258503401362	181.32385487528344	64	127
181.24258503401362	181.40510204081633	72	127
181.24258503401362	181.40510204081633	64	127
181.24258503401362	181.40510204081633	55	127
181.34707482993198	181.4283446712018	62	127
181.45156462585035	181.60249433106577	65	127
181.45156462585035	181.60249433106577	55	127
181.45156462585035	181.64893424036282	73	127
181.45156462585035	181.64893424036282	60	127
181.64893424036282	181.92757369614512	74	127
181.64893424036282	181.92757369614512	59	127
181.96240362811793	182.02043083900227	60	127
181.96240362811793	182.02043083900227	60	127
181.96240362811793	182.02043083900227	48	127
182.13655328798185	182.20621315192744	60	127
182.13655328798185	182.20621315192744	60	127
182.13655328798185	182.20621315192744	48	127
182.36875283446713	182.61256235827665	59	127
182.36875283446713	182.61256235827665	59	127
182.36875283446713	182.61256235827665	47	127
183.08857142857144	183.1465986394558	77	127
183.2859410430839	183.34399092970523	77	127
183.42526077097506	183.59941043083901	43	127
183.42526077097506	183.64585034013606	77	127
183.64585034013606	183.73873015873016	79	127
183.64585034013606	183.79678004535148	55	127
183.73873015873016	183.84321995464853	81	127
183.84321995464853	183.90126984126985	65	127
183.84321995464853	183.90126984126985	62	127
183.84321995464853	183.93609977324263	79	127
183.84321995464853	184.00575963718822	55	127
183.93609977324263	184.040589569161	77	127
184.040589569161	184.1102494331066	65	127
184.040589569161	184.1102494331066	62	127
184.040589569161	184.16827664399094	76	127
184.040589569161	184.2263492063492	55	127
184.16827664399094	184.261179138322	74	127
184.261179138322	184.42369614512472	55	127
184.261179138322	184.5165986394558	72	127
184.261179138322	184.5165986394558	65	127
184.261179138322	184.91133786848073	62	127
184.5165986394558	184.6094784580499	67	127
184.5165986394558	184.6675283446712	55	127
184.5165986394558	184.91133786848073	71	127
184.6094784580499	184.71396825396826	69	127
184.71396825396826	184.80684807256236	67	127
184.71396825396826	184.87650793650795	55	127
184.80684807256236	184.91133786848073	65	127
184.91133786848073	185.05065759637188	64	127
184.91133786848073	185.1087074829932	55	127
184.91133786848073	185.18995464852608	72	127
184.91133786848073	185.18995464852608	64	127
185.05065759637188	185.18995464852608	62	127
185.18995464852608	185.38734693877552	76	127
185.18995464852608	185.38734693877552	55	127
185.18995464852608	185.46861678004535	60	127
185.18995464852608	185.46861678004535	66	127
185.46861678004535	185.75886621315192	74	127
185.46861678004535	185.75886621315192	59	127
185.46861678004535	185.75886621315192	67	127
185.80528344671202	185.8633560090703	79	127
186.02589569160997	186.0839455782313	79	127
186.22326530612244	186.43224489795918	67	127
186.22326530612244	186.43224489795918	64	127
186.22326530612244	186.5599546485261	60	127
186.22326530612244	186.82696145124717	79	127
186.43224489795918	186.64122448979592	64	127
186.43224489795918	186.64122448979592	60	127
186.64122448979592	186.82696145124717	67	127
186.64122448979592	186.82696145124717	64	127
186.82696145124717	187.0243537414966	84	127
187.0243537414966	187.22172335600908	65	127
187.0243537414966	187.22172335600908	62	127
187.0243537414966	187.34943310657596	55	127
187.0243537414966	187.59321995464853	83	127
187.22172335600908	187.41909297052155	62	127
187.22172335600908	187.41909297052155	59	127
187.41909297052155	187.59321995464853	65	127
187.41909297052155	187.59321995464853	62	127
187.59321995464853	187.7790022675737	77	127
187.7790022675737	187.97637188208617	76	127
187.7790022675737	187.97637188208617	48	127
187.97637188208617	188.1853514739229	72	127
187.97637188208617	188.1853514739229	67	127
187.97637188208617	188.1853514739229	52	127
188.1853514739229	188.41755102040815	69	127
188.1853514739229	188.41755102040815	60	127
188.1853514739229	188.41755102040815	53	127
188.41755102040815	188.61489795918368	74	127
188.41755102040815	188.61489795918368	69	127
188.41755102040815	188.61489795918368	54	127
188.61489795918368	188.81229024943312	71	127
188.61489795918368	188.81229024943312	62	127
188.61489795918368	188.81229024943312	55	127
188.81229024943312	189.02124716553288	76	127
188.81229024943312	189.02124716553288	71	127
188.81229024943312	189.02124716553288	56	127
189.02124716553288	189.2534693877551	72	127
189.02124716553288	189.2534693877551	64	127
189.02124716553288	189.2534693877551	57	127
189.2534693877551	189.45083900226757	77	127
189.2534693877551	189.45083900226757	72	127
189.2534693877551	189.45083900226757	60	127
189.2534693877551	189.45083900226757	45	127
189.45083900226757	189.7294784580499	74	127
189.45083900226757	189.7294784580499	67	127
189.45083900226757	189.7294784580499	65	127
189.45083900226757	190.0081179138322	47	127
189.7294784580499	189.90362811791383	79	127
189.7294784580499	189.90362811791383	77	127
189.7294784580499	189.90362811791383	62	127
190.97174603174602	191.02979591836734	79	127
191.1342857142857	191.1691156462585	79	127
191.32004535147394	191.44775510204082	72	127
191.32004535147394	191.44775510204082	64	127
191.32004535147394	191.44775510204082	60	127
191.32004535147394	191.9237641723356	79	127
191.5174149659864	191.633514739229	72	127
191.5174149659864	191.633514739229	64	127
191.5174149659864	191.633514739229	60	127
191.71478458049887	191.8308843537415	72	127
191.71478458049887	191.8308843537415	64	127
191.71478458049887	191.8308843537415	60	127
191.9237641723356	192.1095238095238	80	127
192.1095238095238	192.23723356009071	72	127
192.1095238095238	192.23723356009071	62	127
192.1095238095238	192.23723356009071	53	127
192.1095238095238	192.72485260770975	81	127
192.31850340136054	192.43460317460318	72	127
192.31850340136054	192.43460317460318	62	127
192.31850340136054	192.43460317460318	53	127
192.515873015873	192.64358276643992	72	127
192.515873015873	192.64358276643992	62	127
192.515873015873	192.64358276643992	53	127
192.72485260770975	192.8409523809524	77	127
192.8409523809524	192.9338321995465	74	127
192.9338321995465	193.02671201814059	64	127
192.9338321995465	193.04993197278912	55	127
192.9338321995465	193.50272108843538	72	127
192.9338321995465	193.71170068027212	67	127
193.02671201814059	193.14281179138322	67	127
193.14281179138322	193.25891156462586	64	127
193.14281179138322	193.3053514739229	55	127
193.25891156462586	193.50272108843538	67	127
193.50272108843538	193.59560090702948	64	127
193.50272108843538	193.61882086167802	55	127
193.50272108843538	193.71170068027212	76	127
193.59560090702948	193.71170068027212	67	127
193.71170068027212	193.81619047619049	65	127
193.71170068027212	193.82780045351473	55	127
193.71170068027212	193.90907029478458	74	127
193.71170068027212	193.90907029478458	59	127
193.81619047619049	193.90907029478458	67	127
193.90907029478458	194.09482993197278	64	127
193.90907029478458	194.09482993197278	60	127
193.90907029478458	194.09482993197278	48	127
193.90907029478458	194.16448979591837	72	127
194.38507936507938	194.44312925170067	60	127
194.38507936507938	194.44312925170067	60	127
194.38507936507938	194.44312925170067	48	127
194.58244897959185	194.64049886621316	60	127
194.58244897959185	194.64049886621316	60	127
194.58244897959185	194.64049886621316	48	127
194.76820861678004	194.95396825396824	55	127
194.76820861678004	194.95396825396824	55	127
194.76820861678004	194.95396825396824	43	127
195.18616780045352	195.24421768707484	64	127
195.18616780045352	195.24421768707484	64	127
195.18616780045352	195.24421768707484	52	127
195.38353741496599	195.4415873015873	64	127
195.38353741496599	195.4415873015873	64	127
195.38353741496599	195.4415873015873	52	127
195.59251700680272	195.65056689342404	60	127
195.59251700680272	195.65056689342404	60	127
195.59251700680272	195.65056689342404	48	127
195.81310657596373	195.85954648526078	67	127
195.81310657596373	195.85954648526078	67	127
195.81310657596373	195.85954648526078	55	127
196.0104761904762	196.06852607709752	64	127
196.0104761904762	196.06852607709752	64	127
196.0104761904762	196.06852607709752	52	127
196.1962358276644	196.25428571428571	72	127
196.1962358276644	196.25428571428571	72	127
196.1962358276644	196.25428571428571	60	127
196.39360544217686	196.45165532879818	67	127
196.39360544217686	196.45165532879818	67	127
196.39360544217686	196.45165532879818	55	127
196.5793650793651	196.63741496598638	76	127
196.5793650793651	196.63741496598638	64	127
196.5793650793651	196.63741496598638	64	127
196.7651247165533	196.8231746031746	72	127
196.7651247165533	196.8231746031746	60	127
196.96249433106576	197.02054421768707	79	127
196.96249433106576	197.02054421768707	67	127
197.15986394557822	197.2295238095238	76	127
197.15986394557822	197.2295238095238	64	127
197.36884353741496	197.42689342403628	84	127
197.36884353741496	197.42689342403628	72	127
197.36884353741496	197.42689342403628	72	127
197.56621315192743	197.62426303854875	79	127
197.56621315192743	197.62426303854875	67	127
197.86807256235826	197.92612244897958	62	127
197.86807256235826	197.92612244897958	55	127
197.86807256235826	197.92612244897958	47	127
197.86807256235826	198.4601814058957	89	127
197.9609523809524	198.03061224489795	62	127
197.9609523809524	198.03061224489795	55	127
198.06544217687076	198.12349206349205	62	127
198.06544217687076	198.12349206349205	55	127
198.06544217687076	198.12349206349205	55	127
198.16993197278913	198.22798185941042	62	127
198.16993197278913	198.22798185941042	55	127
198.26281179138323	198.32086167800455	62	127
198.26281179138323	198.32086167800455	55	127
198.26281179138323	198.32086167800455	50	127
198.3324716553288	198.37891156462584	62	127
198.3324716553288	198.37891156462584	55	127
198.41374149659865	198.4834013605442	62	127
198.41374149659865	198.4834013605442	55	127
198.41374149659865	198.4834013605442	59	127
198.51823129251702	198.57628117913833	62	127
198.51823129251702	198.57628117913833	55	127
198.62272108843538	198.69238095238094	62	127
198.62272108843538	198.69238095238094	59	127
198.62272108843538	198.69238095238094	55	127
198.62272108843538	199.33092970521542	65	127
198.72721088435375	198.78526077097504	62	127
198.72721088435375	198.78526077097504	59	127
198.83170068027212	198.90136054421768	62	127
198.83170068027212	198.90136054421768	59	127
198.83170068027212	198.90136054421768	62	127
198.94780045351473	199.04068027210883	62	127
198.94780045351473	199.04068027210883	59	127
199.0871201814059	199.1451700680272	67	127
199.0871201814059	199.1451700680272	62	127
199.0871201814059	199.1451700680272	59	127
199.19160997732428	199.24965986394557	67	127
199.19160997732428	199.24965986394557	62	127
199.28448979591838	199.35414965986394	67	127
199.28448979591838	199.35414965986394	62	127
199.28448979591838	199.35414965986394	67	127
199.38897959183674	199.44702947845806	67	127
199.38897959183674	199.44702947845806	62	127
199.4934693877551	199.53990929705216	64	127
199.4934693877551	199.53990929705216	67	127
199.4934693877551	199.53990929705216	60	127
199.4934693877551	200.09718820861679	60	127
199.57473922902494	199.63278911564626	67	127
199.57473922902494	199.63278911564626	60	127
199.6792290249433	199.73727891156463	72	127
199.6792290249433	199.73727891156463	67	127
199.6792290249433	199.73727891156463	60	127
199.7721088435374	199.83015873015873	67	127
199.7721088435374	199.83015873015873	60	127
199.8649886621315	199.92303854875283	67	127
199.8649886621315	199.92303854875283	64	127
199.8649886621315	199.92303854875283	60	127
199.96947845804988	200.0275283446712	64	127
199.96947845804988	200.0275283446712	60	127
200.06235827664398	200.10879818594105	76	127
200.06235827664398	200.10879818594105	64	127
200.06235827664398	200.10879818594105	60	127
200.1552380952381	200.20167800453515	64	127
200.1552380952381	200.20167800453515	60	127
200.2481179138322	200.30616780045352	72	127
200.2481179138322	200.30616780045352	67	127
200.2481179138322	200.30616780045352	64	127
200.2481179138322	200.87505668934241	48	127
200.3409977324263	200.39904761904762	67	127
200.3409977324263	200.39904761904762	64	127
200.44548752834467	200.503537414966	79	127
200.44548752834467	200.503537414966	67	127
200.44548752834467	200.503537414966	64	127
200.53836734693877	200.60802721088436	67	127
200.53836734693877	200.60802721088436	64	127
200.64285714285714	200.6892970521542	76	127
200.64285714285714	200.6892970521542	72	127
200.64285714285714	200.6892970521542	67	127
200.73573696145124	200.79378684807256	72	127
200.73573696145124	200.79378684807256	67	127
200.82861678004537	200.88666666666666	84	127
200.82861678004537	200.88666666666666	72	127
200.82861678004537	200.88666666666666	67	127
200.9331065759637	200.99115646258502	72	127
200.9331065759637	200.99115646258502	67	127
201.02598639455783	201.0956462585034	59	127
201.02598639455783	201.0956462585034	52	127
201.02598639455783	201.0956462585034	44	127
201.02598639455783	201.61809523809524	86	127
201.11886621315193	201.17691609977325	59	127
201.11886621315193	201.17691609977325	52	127
201.2233560090703	201.28140589569162	59	127
201.2233560090703	201.28140589569162	52	127
201.2233560090703	201.28140589569162	52	127
201.3162358276644	201.35106575963718	59	127
201.3162358276644	201.35106575963718	52	127
201.39750566893423	201.45555555555555	59	127
201.39750566893423	201.45555555555555	52	127
201.39750566893423	201.45555555555555	47	127
201.49038548752836	201.5368253968254	59	127
201.49038548752836	201.5368253968254	52	127
201.5716553287982	201.6297052154195	59	127
201.5716553287982	201.6297052154195	52	127
201.5716553287982	201.6297052154195	56	127
201.67614512471656	201.73419501133787	59	127
201.67614512471656	201.73419501133787	52	127
201.76902494331065	201.82707482993197	59	127
201.76902494331065	201.82707482993197	56	127
201.76902494331065	201.82707482993197	52	127
201.76902494331065	202.37274376417233	62	127
201.8502947845805	201.89673469387756	59	127
201.8502947845805	201.89673469387756	56	127
201.9431746031746	201.98961451247166	59	127
201.9431746031746	201.98961451247166	56	127
201.9431746031746	201.98961451247166	59	127
202.02444444444444	202.09410430839003	59	127
202.02444444444444	202.09410430839003	56	127
202.14054421768708	202.1985941043084	64	127
202.14054421768708	202.1985941043084	59	127
202.14054421768708	202.1985941043084	56	127
202.24503401360545	202.314693877551	64	127
202.24503401360545	202.314693877551	59	127
202.34952380952382	202.39596371882087	64	127
202.34952380952382	202.39596371882087	59	127
202.34952380952382	202.39596371882087	64	127
202.44240362811792	202.50045351473923	64	127
202.44240362811792	202.50045351473923	59	127
202.52367346938775	202.58172335600906	60	127
202.52367346938775	202.58172335600906	64	127
202.52367346938775	202.58172335600906	57	127
202.52367346938775	203.1738321995465	57	127
202.6049433106576	202.66299319727892	64	127
202.6049433106576	202.66299319727892	57	127
202.6978231292517	202.77909297052153	69	127
202.6978231292517	202.77909297052153	64	127
202.6978231292517	202.77909297052153	57	127
202.81392290249434	202.87197278911566	64	127
202.81392290249434	202.87197278911566	57	127
202.9184126984127	202.98807256235827	64	127
202.9184126984127	202.98807256235827	60	127
202.9184126984127	202.98807256235827	57	127
203.02290249433108	203.09256235827664	60	127
203.02290249433108	203.09256235827664	57	127
203.1390022675737	203.197052154195	72	127
203.1390022675737	203.197052154195	60	127
203.1390022675737	203.197052154195	57	127
203.24349206349206	203.3247619047619	60	127
203.24349206349206	203.3247619047619	57	127
203.3595918367347	203.42925170068028	69	127
203.3595918367347	203.42925170068028	64	127
203.3595918367347	203.42925170068028	60	127
203.3595918367347	203.9517006802721	45	127
203.47569160997733	203.53374149659865	64	127
203.47569160997733	203.53374149659865	60	127
203.56857142857143	203.63823129251702	76	127
203.56857142857143	203.63823129251702	64	127
203.56857142857143	203.63823129251702	60	127
203.6730612244898	203.73111111111112	64	127
203.6730612244898	203.73111111111112	60	127
203.77755102040817	203.82399092970522	72	127
203.77755102040817	203.82399092970522	69	127
203.77755102040817	203.82399092970522	64	127
203.858820861678	203.88204081632654	69	127
203.858820861678	203.88204081632654	64	127
203.91687074829932	203.96331065759637	84	127
203.91687074829932	203.96331065759637	69	127
203.91687074829932	203.96331065759637	64	127
203.99814058956918	204.06780045351474	69	127
203.99814058956918	204.06780045351474	64	127
204.10263038548752	204.16068027210883	55	127
204.10263038548752	204.16068027210883	48	127
204.10263038548752	204.16068027210883	40	127
204.10263038548752	204.741179138322	82	127
204.20712018140588	204.2651700680272	55	127
204.20712018140588	204.2651700680272	48	127
204.3	204.3580498866213	55	127
204.3	204.3580498866213	48	127
204.3	204.3580498866213	48	127
204.40448979591838	204.46253968253967	55	127
204.40448979591838	204.46253968253967	48	127
204.50897959183675	204.56702947845804	55	127
204.50897959183675	204.56702947845804	48	127
204.50897959183675	204.56702947845804	43	127
204.60185941043085	204.65990929705217	55	127
204.60185941043085	204.65990929705217	48	127
204.70634920634922	204.76439909297054	55	127
204.70634920634922	204.76439909297054	48	127
204.70634920634922	204.76439909297054	52	127
204.79922902494332	204.86888888888888	55	127
204.79922902494332	204.86888888888888	48	127
204.90371882086168	204.961768707483	55	127
204.90371882086168	204.961768707483	52	127
204.90371882086168	204.961768707483	48	127
204.90371882086168	205.50743764172336	58	127
204.99659863945578	205.0546485260771	55	127
204.99659863945578	205.0546485260771	52	127
205.08947845804988	205.1475283446712	55	127
205.08947845804988	205.1475283446712	52	127
205.08947845804988	205.1475283446712	55	127
205.17074829931974	205.22879818594103	55	127
205.17074829931974	205.22879818594103	52	127
205.26362811791384	205.3332879818594	60	127
205.26362811791384	205.3332879818594	55	127
205.26362811791384	205.3332879818594	52	127
205.3681179138322	205.42616780045353	60	127
205.3681179138322	205.42616780045353	55	127
205.47260770975058	205.5306575963719	60	127
205.47260770975058	205.5306575963719	55	127
205.47260770975058	205.5306575963719	60	127
205.5538775510204	205.61192743764173	60	127
205.5538775510204	205.61192743764173	55	127
205.65836734693877	205.7164172335601	57	127
205.65836734693877	205.7164172335601	60	127
205.65836734693877	205.7164172335601	53	127
205.65836734693877	206.3085260770975	53	127
205.75124716553287	205.82090702947846	60	127
205.75124716553287	205.82090702947846	53	127
205.85573696145124	205.91378684807256	65	127
205.85573696145124	205.91378684807256	60	127
205.85573696145124	205.91378684807256	53	127
205.9602267573696	206.04149659863947	60	127
205.9602267573696	206.04149659863947	53	127
206.07632653061225	206.13437641723357	60	127
206.07632653061225	206.13437641723357	57	127
206.07632653061225	206.13437641723357	53	127
206.18081632653062	206.23886621315194	57	127
206.18081632653062	206.23886621315194	53	127
206.285306122449	206.32013605442177	69	127
206.285306122449	206.32013605442177	57	127
206.285306122449	206.32013605442177	53	127
206.35496598639455	206.41301587301587	57	127
206.35496598639455	206.41301587301587	53	127
206.45945578231292	206.50589569160996	65	127
206.45945578231292	206.50589569160996	60	127
206.45945578231292	206.50589569160996	57	127
206.45945578231292	207.05156462585035	41	127
206.54072562358277	206.61038548752833	60	127
206.54072562358277	206.61038548752833	57	127
206.64521541950114	206.70326530612246	72	127
206.64521541950114	206.70326530612246	60	127
206.64521541950114	206.70326530612246	57	127
206.7497052154195	206.80775510204083	60	127
206.7497052154195	206.80775510204083	57	127
206.8425850340136	206.91224489795917	69	127
206.8425850340136	206.91224489795917	65	127
206.8425850340136	206.91224489795917	60	127
206.94707482993198	206.9702947845805	65	127
206.94707482993198	206.9702947845805	60	127
207.0051247165533	207.07478458049886	81	127
207.0051247165533	207.07478458049886	65	127
207.0051247165533	207.07478458049886	60	127
207.10961451247167	207.16766439909298	65	127
207.10961451247167	207.16766439909298	60	127
207.21410430839003	207.27215419501132	57	127
207.21410430839003	207.27215419501132	50	127
207.21410430839003	207.27215419501132	42	127
207.21410430839003	207.86426303854876	84	127
207.30698412698413	207.36503401360545	57	127
207.30698412698413	207.36503401360545	50	127
207.4114739229025	207.46952380952382	57	127
207.4114739229025	207.46952380952382	50	127
207.4114739229025	207.46952380952382	50	127
207.51596371882087	207.5740136054422	57	127
207.51596371882087	207.5740136054422	50	127
207.60884353741497	207.6668934240363	57	127
207.60884353741497	207.6668934240363	50	127
207.60884353741497	207.6668934240363	45	127
207.7249433106576	207.7829931972789	57	127
207.7249433106576	207.7829931972789	50	127
207.8178231292517	207.88748299319727	57	127
207.8178231292517	207.88748299319727	50	127
207.8178231292517	207.88748299319727	54	127
207.9107029478458	207.95714285714286	57	127
207.9107029478458	207.95714285714286	50	127
208.0035827664399	208.06163265306122	57	127
208.0035827664399	208.06163265306122	54	127
208.0035827664399	208.06163265306122	50	127
208.0035827664399	208.5724716553288	60	127
208.096462585034	208.1661224489796	57	127
208.096462585034	208.1661224489796	54	127
208.18934240362813	208.24739229024942	57	127
208.18934240362813	208.24739229024942	54	127
208.18934240362813	208.24739229024942	57	127
208.28222222222223	208.3518820861678	57	127
208.28222222222223	208.3518820861678	54	127
208.36349206349206	208.42154195011338	62	127
208.36349206349206	208.42154195011338	57	127
208.36349206349206	208.42154195011338	54	127
208.46798185941043	208.52603174603175	62	127
208.46798185941043	208.52603174603175	57	127
208.54925170068026	208.58408163265307	62	127
208.54925170068026	208.58408163265307	57	127
208.54925170068026	208.58408163265307	62	127
208.63052154195012	208.68857142857144	62	127
208.63052154195012	208.68857142857144	57	127
208.72340136054422	208.78145124716553	62	127
208.72340136054422	208.78145124716553	55	127
208.72340136054422	208.78145124716553	55	127
208.72340136054422	208.89755102040817	59	127
208.81628117913831	208.89755102040817	62	127
208.81628117913831	208.89755102040817	55	127
208.93238095238095	208.99043083900227	62	127
208.93238095238095	208.99043083900227	55	127
208.93238095238095	208.99043083900227	53	127
209.02526077097505	209.08331065759637	62	127
209.02526077097505	209.08331065759637	55	127
209.12975056689342	209.18780045351474	67	127
209.12975056689342	209.18780045351474	63	127
209.12975056689342	209.18780045351474	55	127
209.12975056689342	209.18780045351474	51	127
209.2342403628118	209.2922902494331	63	127
209.2342403628118	209.2922902494331	55	127
209.3271201814059	209.3851700680272	67	127
209.3271201814059	209.3851700680272	63	127
209.3271201814059	209.3851700680272	55	127
209.3271201814059	209.3851700680272	48	127
209.43160997732426	209.4780498866213	63	127
209.43160997732426	209.4780498866213	55	127
209.51287981859412	209.58253968253968	53	127
209.51287981859412	209.58253968253968	47	127
209.51287981859412	209.68702947845804	67	127
209.51287981859412	209.58253968253968	62	127
209.62897959183672	209.68702947845804	62	127
209.62897959183672	209.68702947845804	53	127
209.74507936507936	209.80312925170068	62	127
209.74507936507936	209.80312925170068	53	127
209.74507936507936	209.80312925170068	43	127
209.83795918367346	209.89600907029478	62	127
209.83795918367346	209.89600907029478	53	127
209.9540589569161	210.01210884353742	79	127
209.9540589569161	210.01210884353742	51	127
209.9540589569161	210.01210884353742	48	127
209.9540589569161	210.01210884353742	60	127
210.0469387755102	210.1165986394558	60	127
210.0469387755102	210.1165986394558	51	127
210.15142857142857	210.2094784580499	79	127
210.15142857142857	210.2094784580499	60	127
210.15142857142857	210.2094784580499	51	127
210.15142857142857	210.2094784580499	36	127
210.25591836734694	210.32557823129252	60	127
210.25591836734694	210.32557823129252	51	127
210.3604081632653	210.41845804988662	59	127
210.3604081632653	210.41845804988662	43	127
210.3604081632653	210.522947845805	79	127
210.3604081632653	210.41845804988662	50	127
210.46489795918367	210.522947845805	59	127
210.46489795918367	210.522947845805	50	127
210.55777777777777	210.6158276643991	59	127
210.55777777777777	210.6158276643991	50	127
210.55777777777777	210.6158276643991	53	127
210.65065759637187	210.72031746031746	59	127
210.65065759637187	210.72031746031746	50	127
210.7667573696145	210.82480725623583	67	127
210.7667573696145	210.82480725623583	63	127
210.7667573696145	210.82480725623583	55	127
210.7667573696145	210.82480725623583	51	127
210.8596371882086	210.91768707482993	63	127
210.8596371882086	210.91768707482993	55	127
210.9525170068027	211.01056689342403	67	127
210.9525170068027	211.01056689342403	63	127
210.9525170068027	211.01056689342403	55	127
210.9525170068027	211.01056689342403	48	127
211.05700680272108	211.1150566893424	63	127
211.05700680272108	211.1150566893424	55	127
211.1498866213152	211.2079365079365	67	127
211.1498866213152	211.2079365079365	62	127
211.1498866213152	211.2079365079365	53	127
211.1498866213152	211.2079365079365	47	127
211.25437641723357	211.32403628117913	62	127
211.25437641723357	211.32403628117913	53	127
211.35886621315194	211.4285260770975	67	127
211.35886621315194	211.4285260770975	62	127
211.35886621315194	211.4285260770975	53	127
211.35886621315194	211.4285260770975	43	127
211.46335600907028	211.5214058956916	62	127
211.46335600907028	211.5214058956916	53	127
211.56784580498865	211.62589569160997	79	127
211.56784580498865	211.62589569160997	60	127
211.56784580498865	211.62589569160997	51	127
211.56784580498865	211.62589569160997	48	127
211.66072562358278	211.78843537414966	60	127
211.66072562358278	211.78843537414966	51	127
211.8348752834467	211.89292517006803	79	127
211.8348752834467	211.89292517006803	60	127
211.8348752834467	211.89292517006803	51	127
211.8348752834467	211.89292517006803	36	127
211.9277551020408	211.9974149659864	60	127
211.9277551020408	211.9974149659864	51	127
212.03224489795917	212.2180045351474	43	127
212.03224489795917	212.32249433106577	79	127
212.03224489795917	212.32249433106577	59	127
212.03224489795917	212.32249433106577	50	127
212.61274376417234	212.67079365079366	67	127
212.61274376417234	212.67079365079366	62	127
212.61274376417234	212.67079365079366	59	127
212.61274376417234	212.67079365079366	55	127
212.82172335600907	212.8797732426304	59	127
212.82172335600907	212.8797732426304	67	127
212.82172335600907	212.8797732426304	62	127
212.82172335600907	212.8797732426304	55	127
213.01909297052154	213.18163265306123	67	127
213.01909297052154	213.18163265306123	62	127
213.01909297052154	213.18163265306123	59	127
213.01909297052154	213.18163265306123	55	127
213.41383219954648	213.48349206349206	76	127
213.63442176870748	213.6924716553288	76	127
213.82018140589568	214.79541950113378	76	127
214.0059410430839	214.1336507936508	60	127
214.21492063492065	214.2845804988662	72	127
214.4122902494331	214.47034013605443	72	127
214.5980498866213	214.71414965986395	72	127
214.79541950113378	214.89990929705215	77	127
214.79541950113378	214.91151927437642	72	127
214.89990929705215	214.981179138322	79	127
214.981179138322	215.03922902494332	81	127
214.981179138322	215.03922902494332	72	127
214.981179138322	215.14371882086166	66	127
215.19015873015874	215.24820861678003	81	127
215.19015873015874	215.24820861678003	72	127
215.3875283446712	215.5500680272109	67	127
215.3875283446712	215.58489795918368	81	127
215.3875283446712	215.58489795918368	71	127
215.58489795918368	215.7358276643991	74	127
215.58489795918368	215.68938775510205	71	127
215.77065759637188	215.8287074829932	79	127
215.77065759637188	215.8287074829932	70	127
215.77065759637188	215.9215873015873	64	127
215.9564172335601	216.02607709750566	79	127
215.9564172335601	216.02607709750566	70	127
216.1653968253968	216.3279365079365	65	127
216.1653968253968	216.37437641723355	79	127
216.1653968253968	216.37437641723355	69	127
216.37437641723355	216.46725623582768	69	127
216.37437641723355	216.51369614512473	72	127
216.5485260770975	216.60657596371883	77	127
216.5485260770975	216.60657596371883	68	127
216.5485260770975	216.7110657596372	62	127
216.78072562358275	216.83877551020407	77	127
216.78072562358275	216.83877551020407	68	127
217.00131519274376	217.29156462585033	77	127
217.00131519274376	217.3960544217687	59	127
217.00131519274376	217.63986394557824	67	127
217.29156462585033	217.3960544217687	79	127
217.3960544217687	217.69791383219956	76	127
217.3960544217687	217.79079365079366	60	127
217.69791383219956	217.79079365079366	77	127
217.79079365079366	218.08104308390023	74	127
217.79079365079366	218.19714285714286	65	127
217.79079365079366	218.44095238095238	69	127
218.08104308390023	218.19714285714286	76	127
218.19714285714286	218.4990022675737	72	127
218.19714285714286	218.60349206349207	66	127
218.4990022675737	218.60349206349207	74	127
218.60349206349207	218.8124716553288	71	127
218.60349206349207	218.8124716553288	67	127
218.60349206349207	219.05628117913832	67	127
218.8124716553288	219.00984126984127	74	127
218.8124716553288	219.00984126984127	62	127
219.05628117913832	219.13755102040815	74	127
219.05628117913832	219.13755102040815	62	127
219.26526077097506	219.32331065759638	74	127
219.26526077097506	219.32331065759638	62	127
219.45102040816326	219.5903401360544	74	127
219.45102040816326	219.5903401360544	62	127
219.61356009070295	219.81092970521541	74	127
219.61356009070295	219.81092970521541	63	127
219.61356009070295	219.81092970521541	59	127
219.81092970521541	219.86897959183673	76	127
219.81092970521541	219.86897959183673	64	127
219.81092970521541	219.86897959183673	60	127
220.01990929705215	220.0663492063492	76	127
220.01990929705215	220.0663492063492	64	127
220.01990929705215	220.0663492063492	60	127
220.20566893424035	220.3798185941043	60	127
220.20566893424035	221.204126984127	76	127
220.20566893424035	221.204126984127	64	127
220.4146485260771	220.57718820861678	56	127
220.4146485260771	220.57718820861678	47	127
220.62362811791382	220.68167800453514	57	127
220.62362811791382	220.68167800453514	48	127
220.80938775510205	220.86743764172334	57	127
220.80938775510205	220.86743764172334	48	127
221.0183673469388	221.204126984127	57	127
221.0183673469388	221.36666666666667	48	127
221.23895691609977	221.32022675736962	78	127
221.23895691609977	221.40149659863945	63	127
221.23895691609977	221.40149659863945	57	127
221.34344671201814	221.424716553288	79	127
221.4479365079365	221.52920634920636	81	127
221.4479365079365	221.52920634920636	75	127
221.4479365079365	221.52920634920636	66	127
221.4479365079365	221.52920634920636	60	127
221.6685260770975	221.72657596371883	81	127
221.6685260770975	221.72657596371883	75	127
221.6685260770975	221.72657596371883	66	127
221.6685260770975	221.72657596371883	60	127
221.86589569160998	222.06326530612245	81	127
221.86589569160998	222.06326530612245	75	127
221.86589569160998	222.06326530612245	66	127
221.86589569160998	222.06326530612245	60	127
222.06326530612245	222.2025850340136	74	127
222.06326530612245	222.2025850340136	67	127
222.06326530612245	222.2025850340136	59	127
222.27224489795918	222.353514739229	79	127
222.27224489795918	222.353514739229	73	127
222.27224489795918	222.353514739229	64	127
222.27224489795918	222.353514739229	58	127
222.48122448979592	222.53927437641724	79	127
222.48122448979592	222.53927437641724	73	127
222.48122448979592	222.53927437641724	64	127
222.48122448979592	222.53927437641724	58	127
222.6785941043084	222.87596371882086	79	127
222.6785941043084	222.87596371882086	73	127
222.6785941043084	222.87596371882086	64	127
222.6785941043084	222.87596371882086	58	127
222.87596371882086	222.9920634920635	72	127
222.87596371882086	222.9920634920635	65	127
222.87596371882086	222.9920634920635	57	127
223.07333333333332	223.1429931972789	77	127
223.07333333333332	223.1429931972789	72	127
223.07333333333332	223.1429931972789	60	127
223.07333333333332	223.1429931972789	56	127
223.28231292517006	223.34036281179138	77	127
223.28231292517006	223.34036281179138	72	127
223.28231292517006	223.34036281179138	60	127
223.28231292517006	223.34036281179138	56	127
223.47968253968253	223.78154195011336	77	127
223.47968253968253	223.79315192743763	71	127
223.47968253968253	223.79315192743763	62	127
223.47968253968253	223.79315192743763	55	127
223.78154195011336	223.8744217687075	79	127
223.8744217687075	224.29238095238094	60	127
223.8744217687075	224.1878911564626	76	127
223.8744217687075	224.29238095238094	57	127
223.8744217687075	224.69873015873017	72	127
224.1878911564626	224.29238095238094	77	127
224.29238095238094	224.35043083900226	76	127
224.29238095238094	224.78	69	127
224.29238095238094	224.78	53	127
224.35043083900226	224.43170068027212	74	127
224.43170068027212	224.559410430839	76	127
224.559410430839	224.62907029478458	74	127
224.62907029478458	224.7103401360544	76	127
224.7103401360544	224.78	74	127
224.78	224.8496598639456	76	127
224.78	224.97736961451247	67	127
224.78	225.10507936507938	71	127
224.78	225.1863492063492	55	127
224.8496598639456	224.91931972789115	74	127
224.91931972789115	224.97736961451247	76	127
224.97736961451247	225.04702947845806	74	127
224.97736961451247	225.1863492063492	65	127
225.04702947845806	225.11668934240362	72	127
225.11668934240362	225.1863492063492	74	127
225.1863492063492	225.39532879818594	72	127
225.1863492063492	225.5926984126984	72	127
225.1863492063492	225.5926984126984	64	127
225.1863492063492	225.5926984126984	48	127
225.72040816326532	225.8248979591837	78	127
225.8248979591837	225.90616780045352	79	127
225.9177777777778	225.95260770975057	78	127
226.02226757369615	226.04548752834467	79	127
226.12675736961452	226.1848072562358	67	127
226.12675736961452	226.1848072562358	64	127
226.12675736961452	226.1848072562358	60	127
226.12675736961452	226.21963718820862	81	127
226.12675736961452	226.27768707482994	60	127
226.21963718820862	226.30090702947845	79	127
226.33573696145126	226.35895691609977	78	127
226.33573696145126	226.39378684807255	67	127
226.33573696145126	226.39378684807255	60	127
226.33573696145126	226.39378684807255	64	127
226.42861678004536	226.45183673469387	79	127
226.52149659863946	226.57954648526078	67	127
226.52149659863946	226.57954648526078	64	127
226.52149659863946	226.57954648526078	60	127
226.52149659863946	226.62598639455783	77	127
226.52149659863946	226.68403628117915	48	127
226.62598639455783	226.6956462585034	76	127
226.7304761904762	226.76530612244898	74	127
226.7304761904762	226.78852607709752	67	127
226.7304761904762	226.78852607709752	60	127
226.7304761904762	226.78852607709752	64	127
226.83496598639456	226.84657596371883	72	127
226.9162358276644	227.02072562358276	72	127
226.9162358276644	227.24131519274377	67	127
226.9162358276644	227.24131519274377	65	127
226.9162358276644	227.24131519274377	62	127
226.9162358276644	227.24131519274377	55	127
227.02072562358276	227.09038548752835	71	127
227.12521541950113	227.14843537414967	69	127
227.21809523809523	227.25292517006804	67	127
227.3225850340136	227.4154648526077	78	127
227.4154648526077	227.49673469387756	79	127
227.53156462585034	227.56639455782312	78	127
227.6360544217687	227.65927437641724	79	127
227.71732426303853	227.77537414965985	67	127
227.71732426303853	227.77537414965985	71	127
227.71732426303853	227.77537414965985	62	127
227.71732426303853	227.77537414965985	65	127
227.71732426303853	227.8218140589569	81	127
227.71732426303853	227.87986394557822	55	127
227.8218140589569	227.91469387755103	79	127
227.93791383219954	227.96113378684808	77	127
227.93791383219954	227.99596371882086	71	127
227.93791383219954	227.99596371882086	67	127
227.93791383219954	227.99596371882086	62	127
227.93791383219954	227.99596371882086	65	127
228.03079365079364	228.06562358276645	76	127
228.135283446712	228.19333333333333	71	127
228.135283446712	228.19333333333333	67	127
228.135283446712	228.19333333333333	65	127
228.135283446712	228.19333333333333	62	127
228.135283446712	228.23977324263038	74	127
228.135283446712	228.30943310657597	43	127
228.23977324263038	228.32104308390024	76	127
228.34426303854875	228.37909297052155	77	127
228.34426303854875	228.40231292517007	67	127
228.34426303854875	228.40231292517007	71	127
228.34426303854875	228.40231292517007	62	127
228.34426303854875	228.40231292517007	65	127
228.44875283446711	228.47197278911565	79	127
228.5416326530612	228.64612244897958	77	127
228.5416326530612	228.8667120181406	67	127
228.5416326530612	228.8667120181406	72	127
228.5416326530612	228.8667120181406	60	127
228.5416326530612	228.8667120181406	48	127
228.5416326530612	228.8667120181406	64	127
228.64612244897958	228.72739229024944	76	127
228.7390022675737	228.7738321995465	74	127
228.84349206349205	228.87832199546486	72	127
228.9595918367347	229.0524716553288	78	127
229.0524716553288	229.13374149659865	79	127
229.15696145124716	229.19179138321996	78	127
229.238231292517	229.26145124716552	79	127
229.3311111111111	229.38916099773243	67	127
229.3311111111111	229.38916099773243	64	127
229.3311111111111	229.38916099773243	60	127
229.3311111111111	229.43560090702948	81	127
229.3311111111111	229.4936507936508	60	127
229.43560090702948	229.5168707482993	79	127
229.52848072562358	229.56331065759636	78	127
229.52848072562358	229.59814058956917	67	127
229.52848072562358	229.59814058956917	60	127
229.52848072562358	229.59814058956917	64	127
229.63297052154195	229.66780045351473	79	127
229.73746031746032	229.79551020408164	67	127
229.73746031746032	229.79551020408164	64	127
229.73746031746032	229.79551020408164	60	127
229.73746031746032	229.83034013605442	77	127
229.73746031746032	229.88839002267574	48	127
229.83034013605442	229.91160997732428	76	127
229.93482993197279	229.9928798185941	67	127
229.93482993197279	229.95804988662132	74	127
229.93482993197279	229.9928798185941	60	127
229.93482993197279	229.9928798185941	64	127
230.02770975056688	230.0857596371882	72	127
230.16702947845806	230.52693877551022	65	127
230.16702947845806	230.52693877551022	55	127
230.16702947845806	230.27151927437643	72	127
230.16702947845806	230.52693877551022	62	127
230.16702947845806	230.52693877551022	67	127
230.27151927437643	230.37600907029477	71	127
230.38761904761904	230.4688888888889	69	127
230.50371882086168	230.52693877551022	67	127
230.61981859410432	230.68947845804988	78	127
230.68947845804988	230.77074829931973	79	127
230.79396825396825	230.81718820861678	78	127
230.85201814058956	230.86362811791383	79	127
230.93328798185942	231.07260770975057	55	127
230.93328798185942	230.9681179138322	71	127
230.93328798185942	230.9681179138322	62	127
230.93328798185942	231.01455782312925	81	127
230.93328798185942	230.9681179138322	65	127
230.93328798185942	230.9681179138322	67	127
231.01455782312925	231.08421768707484	79	127
231.10743764172335	231.16548752834467	65	127
231.10743764172335	231.16548752834467	67	127
231.10743764172335	231.14226757369613	77	127
231.10743764172335	231.16548752834467	62	127
231.10743764172335	231.16548752834467	71	127
231.21192743764172	231.23514739229026	76	127
231.3164172335601	231.38607709750568	65	127
231.3164172335601	231.38607709750568	62	127
231.3164172335601	231.42090702947846	74	127
231.3164172335601	231.38607709750568	71	127
231.3164172335601	231.38607709750568	67	127
231.3164172335601	231.47895691609978	43	127
231.42090702947846	231.5021768707483	76	127
231.5370068027211	231.5950566893424	65	127
231.5370068027211	231.5602267573696	77	127
231.5370068027211	231.5950566893424	62	127
231.5370068027211	231.5950566893424	67	127
231.5370068027211	231.5950566893424	71	127
231.64149659863946	231.67632653061224	79	127
231.74598639455783	232.07106575963718	72	127
231.74598639455783	232.07106575963718	60	127
231.74598639455783	232.07106575963718	67	127
231.74598639455783	231.83886621315193	77	127
231.74598639455783	232.07106575963718	64	127
231.74598639455783	231.92013605442176	48	127
231.83886621315193	231.93174603174603	76	127
231.95496598639457	232.11750566893423	48	127
231.95496598639457	231.98979591836735	74	127
232.05945578231294	232.08267573696145	72	127
232.15233560090704	232.24521541950114	83	127
232.15233560090704	233.4874829931973	60	127
232.24521541950114	232.3497052154195	84	127
232.3497052154195	232.38453514739228	86	127
232.3497052154195	232.55868480725624	64	127
232.3497052154195	232.55868480725624	67	127
232.45419501133787	232.48902494331065	84	127
232.55868480725624	232.6631746031746	83	127
232.55868480725624	232.6283446712018	69	127
232.55868480725624	232.6283446712018	65	127
232.6631746031746	232.74444444444444	81	127
232.76766439909298	232.8257142857143	71	127
232.76766439909298	232.80249433106576	80	127
232.76766439909298	232.8257142857143	67	127
232.87215419501135	232.89537414965986	81	127
232.96503401360545	233.02308390022677	72	127
232.96503401360545	233.02308390022677	69	127
232.96503401360545	233.06952380952382	79	127
233.06952380952382	233.15079365079364	77	127
233.16240362811791	233.1972335600907	76	127
233.16240362811791	233.2320634920635	74	127
233.16240362811791	233.2320634920635	71	127
233.26689342403628	233.30172335600906	77	127
233.37138321995465	233.65002267573695	76	127
233.37138321995465	233.44104308390024	76	127
233.37138321995465	233.65002267573695	72	127
233.44104308390024	233.53392290249434	77	127
233.53392290249434	233.55714285714285	79	127
233.53392290249434	233.69646258503403	48	127
233.6384126984127	233.66163265306122	81	127
233.7312925170068	234.77619047619046	60	127
233.7312925170068	233.84739229024945	83	127
233.84739229024945	233.92866213151927	84	127
233.94027210884354	234.14925170068028	67	127
233.94027210884354	233.97510204081632	86	127
233.94027210884354	234.14925170068028	64	127
234.0447619047619	234.0795918367347	84	127
234.14925170068028	234.2073015873016	69	127
234.14925170068028	234.2305215419501	83	127
234.14925170068028	234.2073015873016	65	127
234.2305215419501	234.31179138321994	81	127
234.33501133786848	234.3930612244898	71	127
234.33501133786848	234.3930612244898	67	127
234.33501133786848	234.35823129251702	80	127
234.42789115646258	234.4627210884354	81	127
234.53238095238095	234.63687074829932	79	127
234.53238095238095	234.59043083900227	72	127
234.53238095238095	234.59043083900227	69	127
234.63687074829932	234.71814058956917	77	127
234.72975056689341	234.78780045351473	74	127
234.72975056689341	234.76458049886622	76	127
234.72975056689341	234.78780045351473	71	127
234.83424036281178	234.85746031746032	77	127
234.92712018140588	235.240589569161	72	127
234.92712018140588	235.240589569161	76	127
234.92712018140588	235.03160997732425	76	127
235.03160997732425	235.10126984126984	77	127
235.12448979591838	235.1477097505669	79	127
235.12448979591838	235.2754195011338	48	127
235.21736961451248	235.25219954648526	81	127
235.33346938775512	235.43795918367346	83	127
235.33346938775512	236.38997732426304	60	127
235.43795918367346	235.50761904761904	84	127
235.53083900226758	235.56566893424036	86	127
235.53083900226758	235.72820861678005	64	127
235.53083900226758	235.72820861678005	67	127
235.63532879818595	235.65854875283446	84	127
235.72820861678005	235.80947845804988	65	127
235.72820861678005	235.80947845804988	69	127
235.72820861678005	235.8443083900227	83	127
235.8443083900227	235.9371882086168	81	127
235.9604081632653	235.98362811791384	80	127
235.9604081632653	236.01845804988662	67	127
235.9604081632653	236.01845804988662	71	127
236.0532879818594	236.0881179138322	81	127
236.15777777777777	236.2506575963719	79	127
236.15777777777777	236.2158276643991	72	127
236.15777777777777	236.2158276643991	69	127
236.2506575963719	236.33192743764172	77	127
236.35514739229026	236.4015873015873	74	127
236.35514739229026	236.37836734693877	76	127
236.35514739229026	236.4015873015873	71	127
236.44802721088436	236.47124716553287	77	127
236.54090702947846	236.64539682539683	76	127
236.54090702947846	236.70344671201815	60	127
236.54090702947846	236.70344671201815	67	127
236.54090702947846	236.70344671201815	72	127
236.64539682539683	236.72666666666666	77	127
236.7498866213152	236.7731065759637	79	127
236.86598639455784	236.90081632653062	81	127
236.97047619047618	237.42326530612246	67	127
236.97047619047618	237.0633560090703	83	127
236.97047619047618	237.36521541950114	59	127
236.97047619047618	237.36521541950114	74	127
237.0633560090703	237.14462585034013	84	127
237.16784580498867	237.20267573696145	86	127
237.27233560090704	237.29555555555555	84	127
237.36521541950114	237.4697052154195	83	127
237.36521541950114	237.52775510204083	60	127
237.36521541950114	237.42326530612246	72	127
237.4697052154195	237.5625850340136	81	127
237.5625850340136	237.5974149659864	80	127
237.67868480725625	237.71351473922903	81	127
237.78317460317461	238.18952380952382	74	127
237.78317460317461	238.25918367346938	67	127
237.78317460317461	237.8760544217687	79	127
237.78317460317461	238.18952380952382	59	127
237.8760544217687	237.95732426303854	77	127
237.98054421768708	238.0037641723356	76	127
238.08503401360545	238.11986394557823	77	127
238.18952380952382	238.25918367346938	72	127
238.18952380952382	238.36367346938775	60	127
238.18952380952382	238.30562358276643	77	127
238.30562358276643	238.39850340136056	76	127
238.39850340136056	238.43333333333334	81	127
238.50299319727893	238.5378231292517	79	127
238.60748299319727	239.0718820861678	67	127
238.60748299319727	239.0138321995465	74	127
238.60748299319727	239.0138321995465	59	127
238.60748299319727	238.7003628117914	78	127
238.7003628117914	238.78163265306122	79	127
238.816462585034	238.83968253968254	81	127
238.90934240362813	238.9441723356009	79	127
239.0138321995465	239.11832199546484	77	127
239.0138321995465	239.16476190476192	60	127
239.0138321995465	239.0718820861678	72	127
239.11832199546484	239.18798185941043	76	127
239.1995918367347	239.23442176870748	81	127
239.30408163265307	239.32730158730158	79	127
239.39696145124717	239.80331065759637	67	127
239.39696145124717	239.50145124716553	78	127
239.39696145124717	239.75687074829932	59	127
239.39696145124717	239.75687074829932	74	127
239.50145124716553	239.57111111111112	79	127
239.59433106575963	239.61755102040817	81	127
239.68721088435373	239.71043083900227	79	127
239.75687074829932	239.80331065759637	60	127
239.75687074829932	239.8265306122449	77	127
239.75687074829932	239.80331065759637	72	127
239.8265306122449	240.1051700680272	59	127
239.8265306122449	239.84975056689342	78	127
239.8265306122449	240.1051700680272	74	127
239.8265306122449	240.11678004535148	67	127
239.84975056689342	239.90780045351474	79	127
239.919410430839	239.94263038548752	81	127
240.0122902494331	240.0471201814059	79	127
240.1051700680272	240.11678004535148	72	127
240.1051700680272	240.11678004535148	60	127
240.1051700680272	240.15160997732426	77	127
240.15160997732426	240.22126984126984	76	127
240.24448979591835	240.30253968253967	59	127
240.24448979591835	240.30253968253967	74	127
240.24448979591835	240.34897959183672	67	127
240.30253968253967	240.34897959183672	72	127
240.30253968253967	240.4882993197279	77	127
240.30253968253967	240.34897959183672	60	127
240.4882993197279	240.68566893424037	76	127
240.68566893424037	240.8598185941043	81	127
240.8598185941043	241.09201814058957	79	127
241.09201814058957	241.80022675736961	79	127
241.80022675736961	242.5897052154195	80	127
241.80022675736961	242.5897052154195	68	127
242.02081632653062	242.13691609977323	60	127
242.02081632653062	242.13691609977323	63	127
242.2181859410431	242.33428571428573	63	127
242.2181859410431	242.33428571428573	60	127
242.39233560090702	242.52004535147393	63	127
242.39233560090702	242.52004535147393	60	127
242.5897052154195	243.39079365079365	63	127
242.5897052154195	243.39079365079365	75	127
242.79868480725622	242.91478458049886	58	127
242.79868480725622	242.91478458049886	55	127
243.00766439909296	243.13537414965987	55	127
243.00766439909296	243.13537414965987	58	127
243.2166439909297	243.32113378684807	58	127
243.2166439909297	243.32113378684807	55	127
243.39079365079365	243.80875283446713	72	127
243.39079365079365	243.80875283446713	60	127
243.6229931972789	243.73909297052154	56	127
243.6229931972789	243.73909297052154	63	127
243.80875283446713	243.92485260770974	56	127
243.80875283446713	243.92485260770974	63	127
244.0061224489796	244.12222222222223	56	127
244.0061224489796	244.16866213151928	60	127
244.0061224489796	244.16866213151928	72	127
244.0061224489796	244.12222222222223	63	127
244.20349206349206	244.4124716553288	75	127
244.20349206349206	244.4124716553288	63	127
244.4124716553288	244.54018140589568	61	127
244.4124716553288	244.54018140589568	63	127
244.4124716553288	244.62145124716554	79	127
244.4124716553288	244.62145124716554	67	127
244.62145124716554	244.73755102040818	61	127
244.62145124716554	244.83043083900228	70	127
244.62145124716554	244.73755102040818	63	127
244.62145124716554	244.83043083900228	82	127
244.83043083900228	244.94653061224489	63	127
244.83043083900228	244.94653061224489	61	127
244.83043083900228	245.02780045351474	67	127
244.83043083900228	245.02780045351474	79	127
245.02780045351474	245.89854875283447	68	127
245.02780045351474	245.89854875283447	80	127
245.2251700680272	245.35287981859412	60	127
245.2251700680272	245.35287981859412	63	127
245.44575963718822	245.56185941043083	60	127
245.44575963718822	245.56185941043083	63	127
245.65473922902495	245.8172789115646	63	127
245.65473922902495	245.8172789115646	60	127
245.89854875283447	246.6764172335601	63	127
245.89854875283447	246.6764172335601	75	127
246.09591836734694	246.25845804988663	58	127
246.09591836734694	246.25845804988663	55	127
246.30489795918368	246.43260770975056	55	127
246.30489795918368	246.43260770975056	58	127
246.4790476190476	246.6415873015873	58	127
246.4790476190476	246.6415873015873	55	127
246.6764172335601	247.0479365079365	72	127
246.6764172335601	247.0479365079365	60	127
246.88539682539684	247.0827664399093	56	127
246.88539682539684	247.0827664399093	63	127
247.1175963718821	247.2685260770975	63	127
247.1175963718821	247.2685260770975	56	127
247.31496598639455	247.46589569160997	60	127
247.31496598639455	247.46589569160997	72	127
247.31496598639455	247.46589569160997	63	127
247.31496598639455	247.46589569160997	56	127
247.51233560090702	247.7097052154195	75	127
247.51233560090702	247.7097052154195	63	127
247.7097052154195	247.91868480725623	67	127
247.7097052154195	247.91868480725623	79	127
247.7097052154195	247.8374149659864	61	127
247.7097052154195	247.8374149659864	63	127
247.91868480725623	248.12766439909296	70	127
247.91868480725623	248.12766439909296	82	127
247.91868480725623	248.04639455782313	63	127
247.91868480725623	248.04639455782313	61	127
248.12766439909296	248.3366439909297	79	127
248.12766439909296	248.25537414965987	61	127
248.12766439909296	248.3366439909297	67	127
248.12766439909296	248.25537414965987	63	127
248.3366439909297	249.1261224489796	68	127
248.3366439909297	249.1261224489796	80	127
248.53401360544217	248.66172335600908	60	127
248.53401360544217	248.66172335600908	63	127
248.7429931972789	248.88231292517005	63	127
248.7429931972789	248.88231292517005	60	127
248.95197278911564	249.06807256235828	60	127
248.95197278911564	249.06807256235828	63	127
249.1261224489796	250.20585034013607	67	127
249.1261224489796	250.20585034013607	79	127
249.1261224489796	249.25383219954648	59	127
249.1261224489796	249.25383219954648	62	127
249.33510204081634	249.4744217687075	62	127
249.33510204081634	249.4744217687075	59	127
249.56730158730159	249.6950113378685	58	127
249.56730158730159	249.6950113378685	61	127
249.77628117913832	249.91560090702947	61	127
249.77628117913832	249.91560090702947	58	127
249.99687074829933	250.20585034013607	60	127
249.99687074829933	250.63541950113378	57	127
250.20585034013607	250.36839002267573	77	127
250.20585034013607	250.40321995464853	59	127
250.20585034013607	250.36839002267573	65	127
250.40321995464853	251.15786848072563	77	127
250.40321995464853	250.58897959183673	60	127
250.40321995464853	251.15786848072563	65	127
250.58897959183673	250.79795918367347	62	127
250.79795918367347	251.40167800453514	56	127
250.79795918367347	250.97210884353743	63	127
250.97210884353743	251.15786848072563	59	127
251.15786848072563	251.55260770975056	66	127
251.15786848072563	251.3552380952381	60	127
251.15786848072563	251.55260770975056	78	127
251.3552380952381	251.55260770975056	62	127
251.55260770975056	251.70353741496598	55	127
251.55260770975056	252.2027664399093	63	127
251.55260770975056	252.34208616780046	79	127
251.55260770975056	252.34208616780046	67	127
251.78480725623584	251.90090702947845	55	127
251.97056689342404	252.08666666666667	55	127
252.15632653061223	252.2608163265306	55	127
252.34208616780046	253.02707482993196	62	127
252.34208616780046	253.2128344671202	65	127
252.34208616780046	253.2128344671202	71	127
252.34208616780046	252.4814058956916	55	127
252.56267573696144	252.67877551020408	55	127
252.76004535147393	252.87614512471654	55	127
252.99224489795918	253.1199546485261	55	127
253.2128344671202	254.617641723356	56	127
253.2128344671202	253.43342403628117	63	127
253.2128344671202	254.22290249433107	72	127
253.2128344671202	253.43342403628117	60	127
253.43342403628117	253.70045351473922	59	127
253.43342403628117	253.70045351473922	62	127
253.70045351473922	253.94426303854874	63	127
253.70045351473922	253.94426303854874	60	127
253.94426303854874	254.22290249433107	61	127
253.94426303854874	254.22290249433107	65	127
254.22290249433107	255.30263038548753	60	127
254.22290249433107	254.47832199546485	63	127
254.22290249433107	254.47832199546485	66	127
254.47832199546485	254.72213151927437	66	127
254.47832199546485	254.72213151927437	70	127
254.72213151927437	254.94272108843538	65	127
254.72213151927437	254.94272108843538	68	127
254.94272108843538	255.30263038548753	63	127
254.94272108843538	255.30263038548753	66	127
255.30263038548753	255.47678004535146	65	127
255.30263038548753	255.47678004535146	61	127
255.30263038548753	255.720589569161	61	127
255.30263038548753	256.1965986394558	49	127
255.51160997732427	255.63931972789115	65	127
255.51160997732427	255.63931972789115	61	127
255.51160997732427	255.63931972789115	56	127
255.720589569161	255.87151927437642	56	127
255.720589569161	255.87151927437642	65	127
255.720589569161	255.87151927437642	61	127
255.94117913832198	256.05727891156465	56	127
255.94117913832198	256.05727891156465	65	127
255.94117913832198	256.05727891156465	61	127
256.1965986394558	256.9512471655329	44	127
256.38235827664397	256.48684807256234	63	127
256.38235827664397	256.48684807256234	56	127
256.38235827664397	256.48684807256234	60	127
256.5681179138322	256.70743764172335	60	127
256.5681179138322	256.70743764172335	56	127
256.5681179138322	256.70743764172335	63	127
256.77709750566896	256.86997732426306	63	127
256.77709750566896	256.86997732426306	56	127
256.77709750566896	256.86997732426306	60	127
256.9512471655329	257.3459863945578	41	127
256.9512471655329	257.68267573696147	85	127
257.14861678004536	257.311156462585	56	127
257.14861678004536	257.311156462585	65	127
257.14861678004536	257.311156462585	61	127
257.3459863945578	257.5085260770975	65	127
257.3459863945578	257.5085260770975	56	127
257.3459863945578	257.5085260770975	61	127
257.5433560090703	257.6362358276644	56	127
257.5433560090703	257.6362358276644	61	127
257.5433560090703	257.6362358276644	41	127
257.5433560090703	257.6362358276644	65	127
257.68267573696147	258.47215419501134	80	127
257.68267573696147	257.88004535147394	44	127
257.88004535147394	258.03097505668933	63	127
257.88004535147394	258.03097505668933	56	127
257.88004535147394	258.06580498866214	48	127
257.88004535147394	258.03097505668933	66	127
258.06580498866214	258.2167120181406	66	127
258.06580498866214	258.2167120181406	56	127
258.06580498866214	258.2167120181406	63	127
258.06580498866214	258.2631746031746	51	127
258.2631746031746	258.4256916099773	66	127
258.2631746031746	258.47215419501134	48	127
258.2631746031746	258.4256916099773	63	127
258.2631746031746	258.4256916099773	56	127
258.47215419501134	259.3080725623583	49	127
258.47215419501134	258.7972335600907	77	127
258.6695238095238	258.84367346938774	65	127
258.6695238095238	258.84367346938774	61	127
258.6695238095238	258.84367346938774	68	127
258.87850340136055	259.0526530612245	68	127
258.87850340136055	259.0526530612245	65	127
258.87850340136055	259.0526530612245	61	127
259.0874829931973	259.2616326530612	61	127
259.0874829931973	259.2616326530612	68	127
259.0874829931973	259.2616326530612	77	127
259.0874829931973	259.2616326530612	65	127
259.3080725623583	259.4822222222222	80	127
259.3080725623583	260.0743310657596	44	127
259.4822222222222	259.64473922902494	60	127
259.4822222222222	259.64473922902494	63	127
259.4822222222222	259.64473922902494	68	127
259.4822222222222	259.6795918367347	84	127
259.6795918367347	259.83052154195013	60	127
259.6795918367347	259.83052154195013	63	127
259.6795918367347	259.83052154195013	68	127
259.6795918367347	259.8653514739229	87	127
259.8653514739229	260.0743310657596	84	127
259.8653514739229	260.0278911564626	60	127
259.8653514739229	260.0278911564626	63	127
259.8653514739229	260.0278911564626	68	127
260.0743310657596	260.399410430839	41	127
260.0743310657596	260.8753968253968	85	127
260.28331065759636	260.4342403628118	65	127
260.28331065759636	260.4342403628118	61	127
260.28331065759636	260.4342403628118	68	127
260.4806802721088	260.64321995464854	65	127
260.4806802721088	260.64321995464854	68	127
260.4806802721088	260.64321995464854	61	127
260.6780498866213	260.840589569161	41	127
260.6780498866213	260.840589569161	68	127
260.6780498866213	260.840589569161	65	127
260.6780498866213	260.840589569161	61	127
260.8753968253968	261.09600907029477	44	127
260.8753968253968	261.69972789115644	80	127
261.09600907029477	261.2469387755102	63	127
261.09600907029477	261.29337868480724	48	127
261.09600907029477	261.2469387755102	66	127
261.09600907029477	261.2469387755102	68	127
261.29337868480724	261.45591836734695	68	127
261.29337868480724	261.45591836734695	66	127
261.29337868480724	261.502358276644	51	127
261.29337868480724	261.45591836734695	63	127
261.502358276644	261.6648979591837	66	127
261.502358276644	261.6648979591837	63	127
261.502358276644	261.69972789115644	48	127
261.502358276644	261.6648979591837	68	127
261.69972789115644	262.0364172335601	77	127
261.69972789115644	262.50081632653064	49	127
261.92031746031745	262.0712471655329	61	127
261.92031746031745	262.0712471655329	65	127
261.92031746031745	262.0712471655329	68	127
262.1292970521542	262.30342403628117	65	127
262.1292970521542	262.30342403628117	61	127
262.1292970521542	262.30342403628117	68	127
262.32666666666665	262.46598639455783	61	127
262.32666666666665	262.46598639455783	68	127
262.32666666666665	262.46598639455783	65	127
262.32666666666665	262.46598639455783	77	127
262.50081632653064	262.7097732426304	80	127
262.50081632653064	263.33673469387753	44	127
262.7097732426304	262.9419954648526	84	127
262.7097732426304	262.8955555555556	68	127
262.7097732426304	262.8955555555556	63	127
262.7097732426304	262.8955555555556	60	127
262.9419954648526	263.15097505668933	87	127
262.9419954648526	263.1045351473923	60	127
262.9419954648526	263.1045351473923	68	127
262.9419954648526	263.1045351473923	63	127
263.15097505668933	263.33673469387753	84	127
263.15097505668933	263.3019047619048	63	127
263.15097505668933	263.3019047619048	60	127
263.15097505668933	263.3019047619048	68	127
263.33673469387753	264.12621315192746	41	127
263.33673469387753	264.12621315192746	85	127
263.54571428571427	263.6734240362812	61	127
263.54571428571427	263.6734240362812	68	127
263.54571428571427	263.6734240362812	65	127
263.754693877551	263.87079365079364	68	127
263.754693877551	263.87079365079364	61	127
263.754693877551	263.87079365079364	65	127
263.9520634920635	264.0681632653061	68	127
263.9520634920635	264.0681632653061	65	127
263.9520634920635	264.0681632653061	61	127
264.12621315192746	264.93891156462587	84	127
264.12621315192746	264.93891156462587	42	127
264.3235827664399	264.43968253968256	69	127
264.3235827664399	264.43968253968256	63	127
264.5093424036281	264.63705215419503	63	127
264.5093424036281	264.63705215419503	69	127
264.72993197278913	264.84603174603177	69	127
264.72993197278913	264.84603174603177	63	127
264.93891156462587	265.7864172335601	43	127
264.93891156462587	265.7864172335601	79	127
265.13628117913834	265.252380952381	63	127
265.13628117913834	265.252380952381	67	127
265.35687074829934	265.49619047619046	63	127
265.35687074829934	265.49619047619046	67	127
265.58907029478456	265.7051700680272	67	127
265.58907029478456	265.7051700680272	63	127
265.7864172335601	266.54108843537415	71	127
265.7864172335601	266.54108843537415	44	127
265.94897959183675	266.0650793650794	65	127
265.94897959183675	266.0650793650794	62	127
266.1463492063492	266.26244897959185	62	127
266.1463492063492	266.26244897959185	65	127
266.3437188208617	266.4598185941043	65	127
266.3437188208617	266.4598185941043	62	127
266.54108843537415	267.4350566893424	72	127
266.54108843537415	267.4350566893424	45	127
266.7384580498866	266.8777777777778	63	127
266.7384580498866	266.8777777777778	66	127
266.99387755102043	267.13319727891155	63	127
266.99387755102043	267.13319727891155	66	127
267.20285714285717	267.3421768707483	66	127
267.20285714285717	267.3421768707483	63	127
267.4350566893424	268.1897052154195	44	127
267.4350566893424	268.1897052154195	66	127
267.63242630385486	267.7833560090703	60	127
267.63242630385486	267.7833560090703	51	127
267.80657596371884	267.9691156462585	60	127
267.80657596371884	267.9691156462585	51	127
267.99233560090704	268.14326530612243	60	127
267.99233560090704	268.14326530612243	51	127
268.1897052154195	268.30580498866215	43	127
268.1897052154195	268.9791836734694	60	127
268.1897052154195	268.9791836734694	52	127
268.1897052154195	268.9791836734694	67	127
268.387074829932	268.5031746031746	43	127
268.58444444444444	268.71215419501135	43	127
268.8166439909297	268.93274376417236	43	127
268.9791836734694	269.8731292517007	53	127
268.9791836734694	269.1068934240363	43	127
268.9791836734694	269.8731292517007	62	127
268.9791836734694	269.8731292517007	59	127
269.1881632653061	269.315873015873	43	127
269.39714285714285	269.5480725623583	43	127
269.62934240362813	269.7918820861678	43	127
269.8731292517007	269.9660317460318	60	127
269.8731292517007	270.2678911564626	36	127
269.8731292517007	270.2678911564626	52	127
269.8731292517007	270.2678911564626	48	127
269.98925170068026	270.08213151927436	59	127
270.15179138322	270.22145124716553	57	127
270.24467120181407	270.3259410430839	55	127
270.34916099773244	270.418820861678	57	127
270.43043083900227	270.50009070294783	59	127
270.52331065759637	270.56975056689345	60	127
270.592947845805	270.6742403628118	62	127
270.6858276643991	271.0573696145125	60	127
270.6858276643991	271.0573696145125	48	127
270.6858276643991	270.7787301587302	64	127
270.6858276643991	271.0573696145125	55	127
270.80195011337867	270.8716099773243	62	127
270.88321995464855	271.0109297052154	60	127
271.03414965986394	271.1154195011338	59	127
271.1386394557823	271.2315192743764	60	127
271.2431292517007	271.3360090702948	62	127
271.3592290249433	271.44049886621315	64	127
271.4637188208617	271.5449886621315	65	127
271.56820861678005	271.9048979591837	64	127
271.56820861678005	271.9048979591837	36	127
271.56820861678005	271.6494784580499	69	127
271.56820861678005	271.9048979591837	60	127
271.6843083900227	271.7655782312925	67	127
271.7771882086168	271.8584580498866	65	127
271.88167800453516	271.962947845805	64	127
271.98616780045353	272.06743764172336	65	127
272.0790476190476	272.16031746031746	67	127
272.183537414966	272.2648072562358	69	127
272.2764172335601	272.3576870748299	71	127
272.38090702947846	272.4621768707483	72	127
272.38090702947846	272.69437641723357	48	127
272.38090702947846	272.69437641723357	64	127
272.38090702947846	272.69437641723357	67	127
272.48539682539683	272.56666666666666	71	127
272.57827664399093	272.6479365079365	69	127
272.67115646258503	272.76403628117913	67	127
272.78725623582767	272.85691609977323	69	127
272.88013605442177	272.94979591836733	71	127
272.97301587301587	273.07750566893424	72	127
273.0891156462585	273.17038548752834	74	127
273.1936054421769	273.507074829932	36	127
273.1936054421769	273.507074829932	67	127
273.1936054421769	273.507074829932	72	127
273.1936054421769	273.2748752834467	76	127
273.29809523809524	273.3677551020408	74	127
273.3793650793651	273.4606349206349	72	127
273.48385487528344	273.56512471655327	71	127
273.57673469387754	273.6579818594104	72	127
273.6812244897959	273.76249433106574	74	127
273.7857142857143	273.8669841269841	76	127
273.8785941043084	273.95984126984126	77	127
273.994693877551	275.24857142857144	79	127
274.215283446712	274.4126530612245	64	127
274.4126530612245	274.48231292517005	64	127
274.4126530612245	274.6216326530612	76	127
274.6216326530612	274.83061224489796	74	127
274.6216326530612	274.6796598639456	64	127
274.83061224489796	275.24857142857144	73	127
274.83061224489796	274.9931519274376	64	127
275.02798185941043	275.21374149659863	57	127
275.24857142857144	275.65492063492064	72	127
275.24857142857144	275.65492063492064	78	127
275.24857142857144	275.30662131519273	62	127
275.43433106575964	275.5039909297052	62	127
275.65492063492064	275.8058276643991	62	127
275.65492063492064	276.0496598639456	71	127
275.65492063492064	276.0496598639456	77	127
275.8522902494331	276.01482993197277	55	127
276.0496598639456	276.1076870748299	70	127
276.0496598639456	276.1076870748299	55	127
276.0496598639456	276.1076870748299	48	127
276.0496598639456	276.1076870748299	76	127
276.37473922902495	276.4443990929705	48	127
276.37473922902495	276.4443990929705	70	127
276.37473922902495	276.4443990929705	76	127
276.37473922902495	276.4443990929705	60	127
276.6301587301587	276.82750566893424	70	127
276.6301587301587	276.82750566893424	48	127
276.6301587301587	276.82750566893424	76	127
276.82750566893424	276.9784580498866	77	127
276.82750566893424	276.9784580498866	60	127
276.82750566893424	276.9784580498866	41	127
276.82750566893424	276.9784580498866	69	127
277.01328798185943	277.0713378684807	54	127
277.01328798185943	277.0713378684807	75	127
277.01328798185943	277.0713378684807	69	127
277.01328798185943	277.0713378684807	47	127
277.2222675736962	277.2687074829932	75	127
277.2222675736962	277.2687074829932	59	127
277.2222675736962	277.2687074829932	47	127
277.2222675736962	277.2687074829932	69	127
277.41963718820864	277.60539682539684	47	127
277.41963718820864	277.60539682539684	69	127
277.41963718820864	277.60539682539684	75	127
277.60539682539684	277.77954648526077	68	127
277.60539682539684	277.77954648526077	40	127
277.60539682539684	277.77954648526077	76	127
277.60539682539684	277.77954648526077	71	127
277.8143764172336	277.87242630385487	57	127
277.8143764172336	277.87242630385487	85	127
277.8143764172336	277.87242630385487	79	127
277.8143764172336	277.87242630385487	64	127
278.0233560090703	278.0814058956916	79	127
278.0233560090703	278.0814058956916	85	127
278.0233560090703	278.0814058956916	57	127
278.0233560090703	278.0814058956916	69	127
278.2555328798186	278.45290249433106	79	127
278.2555328798186	278.45290249433106	57	127
278.2555328798186	278.45290249433106	85	127
278.45290249433106	278.5922448979592	69	127
278.45290249433106	278.5922448979592	50	127
278.45290249433106	278.5922448979592	78	127
278.45290249433106	278.5922448979592	86	127
278.63868480725625	278.69673469387754	77	127
278.63868480725625	278.69673469387754	55	127
278.63868480725625	278.69673469387754	62	127
278.63868480725625	278.69673469387754	83	127
278.87086167800453	278.9289342403628	83	127
278.87086167800453	278.9289342403628	77	127
278.87086167800453	278.9289342403628	55	127
278.87086167800453	278.9289342403628	67	127
279.05664399092973	279.26562358276647	55	127
279.05664399092973	279.26562358276647	77	127
279.05664399092973	279.26562358276647	83	127
279.26562358276647	279.41655328798186	76	127
279.26562358276647	279.41655328798186	48	127
279.26562358276647	279.41655328798186	67	127
279.26562358276647	279.41655328798186	84	127
279.46299319727893	279.5210430839002	57	127
279.46299319727893	279.5210430839002	75	127
279.46299319727893	279.5210430839002	78	127
279.46299319727893	279.5210430839002	60	127
279.6603628117914	279.7184126984127	75	127
279.6603628117914	279.7184126984127	72	127
279.6603628117914	279.7184126984127	57	127
279.6603628117914	279.7184126984127	78	127
279.8461224489796	280.438231292517	72	127
279.8461224489796	280.438231292517	76	127
279.8461224489796	280.438231292517	79	127
279.8461224489796	279.9738321995465	55	127
280.04349206349207	280.171201814059	55	127
280.2524716553288	280.36857142857144	55	127
280.438231292517	280.63560090702947	76	127
280.438231292517	280.55433106575964	55	127
280.438231292517	280.63560090702947	79	127
280.438231292517	280.63560090702947	84	127
280.63560090702947	281.32056689342403	67	127
280.63560090702947	280.7633106575964	55	127
280.63560090702947	281.32056689342403	76	127
280.63560090702947	281.32056689342403	72	127
280.879410430839	281.0303401360544	55	127
281.1115873015873	281.2277097505669	55	127
281.32056689342403	281.49473922902496	77	127
281.32056689342403	281.5179591836735	55	127
281.32056689342403	281.49473922902496	74	127
281.32056689342403	281.5992290249433	65	127
281.49473922902496	281.5992290249433	71	127
281.49473922902496	281.5992290249433	74	127
281.5992290249433	282.1565079365079	48	127
281.5992290249433	282.1565079365079	72	127
281.5992290249433	282.1565079365079	64	127
282.6092970521542	282.72539682539684	73	127
282.6092970521542	282.9575736961451	67	127
282.6092970521542	282.9575736961451	71	127
282.6092970521542	283.27106575963717	65	127
282.72539682539684	282.81827664399094	74	127
282.81827664399094	282.9227664399093	76	127
282.9227664399093	283.0272562358277	77	127
283.0272562358277	283.13174603174605	78	127
283.0272562358277	283.35233560090705	71	127
283.0272562358277	283.35233560090705	74	127
283.13174603174605	283.2362358276644	79	127
283.2362358276644	283.3291156462585	81	127
283.3291156462585	283.4336054421769	79	127
283.4336054421769	283.8399546485261	76	127
283.4336054421769	283.8399546485261	72	127
283.4336054421769	283.8399546485261	79	127
283.4336054421769	283.8399546485261	64	127
283.8399546485261	284.0257142857143	72	127
283.8399546485261	284.0257142857143	57	127
283.8399546485261	284.0257142857143	84	127
283.8399546485261	284.0257142857143	64	127
284.3043537414966	284.72231292517006	69	127
284.3043537414966	284.72231292517006	74	127
284.3043537414966	284.72231292517006	72	127
284.3043537414966	284.72231292517006	53	127
284.72231292517006	284.9196825396825	79	127
284.72231292517006	284.9196825396825	62	127
284.72231292517006	284.9196825396825	55	127
284.72231292517006	284.9196825396825	71	127
285.25637188208617	285.6627210884354	57	127
285.25637188208617	285.6627210884354	74	127
285.25637188208617	285.6627210884354	71	127
285.25637188208617	285.6627210884354	77	127
285.6627210884354	285.8368707482993	72	127
285.6627210884354	285.8368707482993	76	127
285.6627210884354	285.8368707482993	72	127
285.6627210884354	285.8368707482993	57	127
286.08068027210885	286.42895691609976	57	127
286.08068027210885	286.7772789115646	41	127
286.08068027210885	286.17356009070295	61	127
286.08068027210885	286.42895691609976	53	127
286.17356009070295	286.30126984126986	62	127
286.30126984126986	286.4057596371882	64	127
286.4057596371882	286.52185941043086	65	127
286.52185941043086	286.6379365079365	66	127
286.52185941043086	286.90498866213153	59	127
286.52185941043086	286.90498866213153	50	127
286.6379365079365	286.7308390022676	67	127
286.7308390022676	286.881768707483	69	127
286.881768707483	286.9746485260771	67	127
286.9746485260771	287.3809977324263	40	127
286.9746485260771	287.3809977324263	60	127
286.9746485260771	287.3809977324263	67	127
286.9746485260771	287.3809977324263	48	127
287.3809977324263	287.58997732426303	57	127
287.3809977324263	287.61319727891157	42	127
287.3809977324263	287.58997732426303	72	127
287.3809977324263	287.58997732426303	51	127
287.97308390022675	288.867074829932	43	127
287.97308390022675	288.4142857142857	52	127
287.97308390022675	288.4142857142857	55	127
287.97308390022675	288.4142857142857	60	127
288.4142857142857	288.867074829932	59	127
288.4142857142857	288.867074829932	53	127
288.4142857142857	288.65809523809526	64	127
288.65809523809526	288.867074829932	62	127
288.867074829932	289.0528344671202	48	127
288.867074829932	289.0528344671202	52	127
288.867074829932	289.0528344671202	60	127
289.26181405895693	289.4475736961451	60	127
289.26181405895693	289.3198639455782	57	127
289.26181405895693	289.4475736961451	64	127
289.48240362811794	289.5520634920635	57	127
289.70297052154194	289.9119501133787	57	127
289.70297052154194	289.87714285714287	65	127
289.70297052154194	289.87714285714287	62	127
289.9119501133787	290.0861224489796	50	127
290.13256235827663	290.2834920634921	62	127
290.13256235827663	290.2834920634921	59	127
290.13256235827663	290.190612244898	55	127
290.3299319727891	290.38798185941044	55	127
290.51569160997735	290.7130612244898	60	127
290.51569160997735	290.7130612244898	64	127
290.51569160997735	290.7478911564626	55	127
290.7478911564626	290.9336281179138	48	127
290.98009070294785	291.1542403628118	57	127
290.98009070294785	291.1542403628118	64	127
290.98009070294785	291.1542403628118	72	127
290.98009070294785	291.0613605442177	45	127
291.1890702947846	291.2471201814059	45	127
291.3980498866213	291.5838095238095	65	127
291.3980498866213	291.60702947845806	45	127
291.3980498866213	291.5838095238095	57	127
291.3980498866213	291.5838095238095	74	127
291.60702947845806	291.7695691609977	38	127
291.8043990929705	291.9669387755102	71	127
291.8043990929705	291.9669387755102	62	127
291.8043990929705	291.9669387755102	55	127
291.8043990929705	292.01337868480726	43	127
292.01337868480726	292.07142857142856	43	127
292.1875283446712	292.3500680272109	60	127
292.1875283446712	292.3500680272109	72	127
292.1875283446712	292.38489795918366	43	127
292.1875283446712	292.3500680272109	55	127
292.38489795918366	292.5474376417234	36	127
292.58226757369613	292.74480725623584	72	127
292.58226757369613	292.74480725623584	42	127
292.58226757369613	292.65192743764175	81	127
292.58226757369613	292.74480725623584	62	127
292.8144671201814	292.87249433106575	81	127
293.0118367346939	293.1743537414966	43	127
293.0118367346939	293.2672562358277	81	127
293.0118367346939	293.1743537414966	62	127
293.0118367346939	293.1743537414966	72	127
293.2672562358277	293.4530158730159	74	127
293.4878231292517	293.6619954648526	65	127
293.4878231292517	293.55750566893425	79	127
293.4878231292517	293.6619954648526	71	127
293.4878231292517	293.6619954648526	43	127
293.70843537414964	293.77809523809526	79	127
293.87097505668936	294.02190476190475	72	127
293.87097505668936	294.02190476190475	64	127
293.87097505668936	294.02190476190475	36	127
293.87097505668936	294.02190476190475	79	127
294.05673469387756	294.1263945578231	72	127
294.2657142857143	294.3121541950113	60	127
294.2657142857143	294.3121541950113	72	127
294.2657142857143	294.3121541950113	60	127
294.4398639455782	294.4979138321996	72	127
294.4398639455782	294.4979138321996	62	127
294.4398639455782	294.4979138321996	59	127
294.64884353741496	294.69528344671204	64	127
294.64884353741496	294.69528344671204	55	127
294.64884353741496	294.69528344671204	58	127
294.64884353741496	294.69528344671204	72	127
294.84621315192743	294.9042630385488	72	127
294.84621315192743	294.9042630385488	65	127
294.84621315192743	294.9042630385488	53	127
294.84621315192743	294.9042630385488	57	127
295.0435827664399	295.090022675737	72	127
295.0435827664399	295.090022675737	67	127
295.0435827664399	295.090022675737	52	127
295.0435827664399	295.090022675737	55	127
295.2177324263039	295.2757823129252	50	127
295.2177324263039	295.2757823129252	53	127
295.2177324263039	295.2757823129252	72	127
295.2177324263039	295.2757823129252	69	127
295.43832199546483	295.82145124716556	70	127
295.43832199546483	295.82145124716556	48	127
295.43832199546483	295.82145124716556	52	127
295.43832199546483	295.6240816326531	74	127
295.6240816326531	295.6821315192744	72	127
295.82145124716556	295.87950113378685	72	127
295.82145124716556	295.87950113378685	72	127
295.82145124716556	295.87950113378685	84	127
296.0304308390023	296.0884807256236	84	127
296.0304308390023	296.0884807256236	71	127
296.0304308390023	296.0884807256236	74	127
296.23941043083903	296.3090702947846	76	127
296.23941043083903	296.3090702947846	67	127
296.23941043083903	296.3090702947846	70	127
296.23941043083903	296.3090702947846	84	127
296.44836734693877	296.50643990929706	77	127
296.44836734693877	296.50643990929706	84	127
296.44836734693877	296.50643990929706	69	127
296.44836734693877	296.50643990929706	65	127
296.64575963718823	296.7038095238095	64	127
296.64575963718823	296.7038095238095	67	127
296.64575963718823	296.7038095238095	79	127
296.64575963718823	296.7038095238095	84	127
296.8431292517007	296.901179138322	84	127
296.8431292517007	296.901179138322	62	127
296.8431292517007	296.901179138322	65	127
296.8431292517007	296.901179138322	81	127
297.04049886621317	297.4468480725624	60	127
297.04049886621317	297.4468480725624	64	127
297.04049886621317	297.2494784580499	86	127
297.04049886621317	297.4468480725624	82	127
297.2494784580499	297.4004081632653	84	127
297.4468480725624	297.50489795918367	84	127
297.6558276643991	297.7254875283447	84	127
297.86480725623585	298.10861678004534	84	127
298.10861678004534	298.27115646258505	83	127
298.2943537414966	298.3524263038549	83	127
298.49172335600906	298.54979591836735	82	127
298.68911564625853	299.4785941043084	61	127
298.68911564625853	299.4785941043084	76	127
298.68911564625853	298.886485260771	82	127
298.68911564625853	299.4785941043084	79	127
298.886485260771	299.0374149659864	81	127
299.08385487528346	299.14190476190475	81	127
299.28122448979593	299.3392743764172	81	127
299.4785941043084	299.8965532879819	75	127
299.4785941043084	299.67596371882087	81	127
299.4785941043084	299.81528344671204	60	127
299.4785941043084	299.8965532879819	78	127
299.67596371882087	299.8501133786848	81	127
299.8965532879819	299.95460317460316	81	127
300.09392290249434	300.1635827664399	80	127
300.31451247165535	300.6744217687075	74	127
300.31451247165535	300.4886621315193	80	127
300.31451247165535	300.6744217687075	59	127
300.31451247165535	300.6744217687075	77	127
300.4886621315193	300.6395691609977	79	127
300.6744217687075	301.40585034013606	72	127
300.6744217687075	301.0227210884354	60	127
300.6744217687075	300.7440589569161	79	127
300.6744217687075	301.40585034013606	76	127
300.84854875283446	300.90662131519275	79	127
301.0227210884354	301.1968707482993	79	127
301.0227210884354	301.40585034013606	57	127
301.1968707482993	301.37102040816325	77	127
301.40585034013606	302.17208616780044	71	127
301.40585034013606	302.17208616780044	74	127
301.40585034013606	301.82380952380953	59	127
301.40585034013606	301.4755102040816	77	127
301.62643990929706	301.68448979591835	77	127
301.82380952380953	301.974716553288	77	127
301.82380952380953	302.17208616780044	56	127
301.974716553288	302.13727891156464	76	127
302.17208616780044	303.39115646258506	69	127
302.17208616780044	302.21854875283447	76	127
302.17208616780044	302.5552380952381	57	127
302.17208616780044	303.39115646258506	72	127
302.35786848072564	302.4275283446712	76	127
302.5552380952381	302.76421768707485	76	127
302.5552380952381	302.9615873015873	53	127
302.76421768707485	302.9267573696145	74	127
302.9615873015873	303.39115646258506	54	127
302.9615873015873	303.0196371882086	74	127
303.1589569160998	303.2518367346939	74	127
303.39115646258506	303.7742857142857	67	127
303.39115646258506	303.6233560090703	76	127
303.39115646258506	303.7742857142857	71	127
303.39115646258506	303.7742857142857	55	127
303.6233560090703	303.82072562358275	74	127
303.8671655328798	303.9135827664399	74	127
304.052925170068	304.11097505668937	74	127
304.29673469387757	304.6334013605442	57	127
304.29673469387757	304.6334013605442	66	127
304.29673469387757	304.5057142857143	76	127
304.29673469387757	304.6334013605442	60	127
304.5057142857143	304.67986394557823	74	127
304.71469387755104	304.77274376417233	74	127
304.88884353741497	304.94689342403626	74	127
305.109433106576	305.4460997732426	55	127
305.109433106576	305.4460997732426	67	127
305.109433106576	305.4460997732426	59	127
305.109433106576	305.330022675737	76	127
305.330022675737	305.4809523809524	74	127
305.52739229024945	305.58544217687074	74	127
305.71315192743765	305.77120181405894	74	127
305.89891156462585	306.34009070294786	60	127
305.89891156462585	306.34009070294786	57	127
305.89891156462585	306.34009070294786	42	127
305.89891156462585	306.21238095238095	75	127
306.21238095238095	306.37489795918367	74	127
306.4561904761905	306.56068027210887	74	127
306.7348299319728	306.7928798185941	74	127
306.93219954648526	307.29208616780045	75	127
306.93219954648526	307.47786848072565	59	127
306.93219954648526	307.47786848072565	55	127
306.93219954648526	307.47786848072565	43	127
307.29208616780045	307.57074829931975	74	127
308.10478458049886	308.16285714285715	74	127
308.3021768707483	308.3602267573696	74	127
308.90589569161	308.9639455782313	79	127
309.11487528344674	309.172925170068	79	127
309.33544217687074	309.4515646258503	48	127
309.33544217687074	309.4399319727891	67	127
309.33544217687074	309.89274376417234	79	127
309.33544217687074	309.4399319727891	64	127
309.4399319727891	309.5328117913832	60	127
309.4399319727891	309.5328117913832	64	127
309.5328117913832	309.6373015873016	67	127
309.5328117913832	309.6373015873016	64	127
309.5328117913832	309.66054421768706	48	127
309.6373015873016	309.74179138321995	64	127
309.6373015873016	309.74179138321995	60	127
309.74179138321995	309.88113378684807	67	127
309.74179138321995	309.88113378684807	64	127
309.74179138321995	309.8462811791383	48	127
309.92757369614515	310.06689342403627	84	127
310.0901133786848	310.1946031746032	62	127
310.0901133786848	310.64739229024946	83	127
310.0901133786848	310.20621315192744	43	127
310.0901133786848	310.1946031746032	65	127
310.1946031746032	310.2874829931973	59	127
310.1946031746032	310.2874829931973	62	127
310.2874829931973	310.4151927437642	43	127
310.2874829931973	310.39197278911564	65	127
310.2874829931973	310.39197278911564	62	127
310.39197278911564	310.48485260770974	59	127
310.39197278911564	310.48485260770974	62	127
310.48485260770974	310.61256235827665	43	127
310.48485260770974	310.64739229024946	62	127
310.48485260770974	310.64739229024946	65	127
310.6938321995465	310.8447619047619	77	127
310.89120181405895	311.0769387755102	76	127
310.89120181405895	311.05374149659866	48	127
311.0769387755102	311.27430839002267	67	127
311.0769387755102	311.27430839002267	72	127
311.0769387755102	311.23950113378686	52	127
311.27430839002267	311.4949206349206	69	127
311.27430839002267	311.4949206349206	60	127
311.27430839002267	311.4484807256236	53	127
311.4949206349206	311.6922902494331	74	127
311.4949206349206	311.6922902494331	69	127
311.4949206349206	311.64585034013606	53	127
311.6922902494331	311.8896371882086	71	127
311.6922902494331	311.8548299319728	55	127
311.6922902494331	311.8896371882086	62	127
311.8896371882086	312.05219954648527	76	127
311.8896371882086	312.02897959183673	55	127
311.8896371882086	312.05219954648527	71	127
312.05219954648527	312.23795918367347	57	127
312.05219954648527	312.2727891156463	72	127
312.05219954648527	312.2727891156463	64	127
312.2727891156463	312.5398185941043	60	127
312.2727891156463	312.481768707483	45	127
312.2727891156463	312.5398185941043	77	127
312.2727891156463	312.5398185941043	72	127
312.5398185941043	313.00421768707486	47	127
312.5398185941043	312.8184580498866	67	127
312.5398185941043	312.8184580498866	65	127
312.5398185941043	312.8184580498866	74	127
312.8184580498866	313.0506575963719	62	127
312.8184580498866	313.0506575963719	79	127
312.8184580498866	313.0506575963719	77	127
313.9446258503401	314.00267573696146	79	127
314.10716553287983	314.1652154195011	79	127
314.29292517006803	314.7573015873016	79	127
314.29292517006803	315.1172335600907	64	127
314.29292517006803	314.38580498866213	60	127
314.46707482993196	314.59478458049887	60	127
314.46707482993196	314.6760544217687	72	127
314.6760544217687	314.8153741496599	60	127
314.6760544217687	314.8966439909297	71	127
314.8966439909297	315.1172335600907	70	127
314.8966439909297	315.04757369614515	60	127
314.8966439909297	315.0824036281179	80	127
315.1172335600907	315.7209523809524	69	127
315.1172335600907	315.32621315192745	64	127
315.1172335600907	315.7209523809524	81	127
315.1172335600907	315.2449433106576	53	127
315.32621315192745	315.5235827664399	61	127
315.32621315192745	315.4423129251701	53	127
315.5235827664399	315.7209523809524	62	127
315.5235827664399	315.63968253968255	53	127
315.7209523809524	315.91832199546485	69	127
315.7209523809524	315.82544217687075	62	127
315.7209523809524	315.82544217687075	77	127
315.7209523809524	315.837052154195	53	127
315.82544217687075	315.91832199546485	65	127
315.82544217687075	315.91832199546485	74	127
315.91832199546485	316.5220408163265	72	127
315.91832199546485	316.0228117913832	64	127
315.91832199546485	316.04603174603176	55	127
315.91832199546485	316.5220408163265	67	127
316.0228117913832	316.1273015873016	67	127
316.1273015873016	316.2434013605442	55	127
316.1273015873016	316.2201814058957	64	127
316.2201814058957	316.32467120181406	67	127
316.32467120181406	316.4407709750567	55	127
316.32467120181406	316.41755102040815	64	127
316.41755102040815	316.5220408163265	67	127
316.5220408163265	316.7078004535147	59	127
316.5220408163265	316.6265306122449	55	127
316.5220408163265	316.6149206349206	76	127
316.5220408163265	316.6149206349206	65	127
316.6149206349206	316.7078004535147	74	127
316.6149206349206	316.7078004535147	67	127
316.7078004535147	317.05609977324264	48	127
316.7078004535147	316.91678004535146	60	127
316.7078004535147	316.91678004535146	72	127
316.7078004535147	316.91678004535146	64	127
316.91678004535146	317.13736961451247	64	127
316.91678004535146	317.13736961451247	67	127
317.13736961451247	317.31149659863945	65	127
317.13736961451247	317.31149659863945	62	127
317.13736961451247	317.6598185941043	79	127
317.31149659863945	317.49727891156465	60	127
317.31149659863945	317.49727891156465	64	127
317.49727891156465	318.2867573696145	53	127
317.49727891156465	317.6946485260771	59	127
317.49727891156465	317.6946485260771	62	127
317.6946485260771	317.90362811791385	55	127
317.6946485260771	317.77591836734695	81	127
317.6946485260771	317.90362811791385	59	127
317.7991383219955	317.8804081632653	79	127
317.90362811791385	318.4492970521542	79	127
317.90362811791385	318.1009977324263	57	127
317.90362811791385	318.1009977324263	60	127
318.1009977324263	318.2867573696145	59	127
318.1009977324263	318.2867573696145	62	127
318.2867573696145	318.484126984127	64	127
318.2867573696145	318.484126984127	60	127
318.2867573696145	318.704716553288	52	127
318.484126984127	318.704716553288	67	127
318.484126984127	318.5653968253968	78	127
318.484126984127	318.704716553288	64	127
318.58861678004536	318.6931065759637	79	127
318.704716553288	319.27360544217686	79	127
318.704716553288	318.90208616780046	65	127
318.704716553288	318.90208616780046	62	127
318.90208616780046	319.09945578231293	60	127
318.90208616780046	319.09945578231293	64	127
319.09945578231293	319.91215419501134	41	127
319.09945578231293	319.30843537414967	62	127
319.09945578231293	319.30843537414967	59	127
319.30843537414967	319.3897052154195	81	127
319.30843537414967	319.50580498866213	59	127
319.30843537414967	319.50580498866213	55	127
319.41292517006804	319.49419501133787	79	127
319.50580498866213	320.09791383219954	79	127
319.50580498866213	319.7147845804989	60	127
319.50580498866213	319.7147845804989	57	127
319.7147845804989	319.91215419501134	59	127
319.7147845804989	319.91215419501134	62	127
319.91215419501134	320.1559637188209	60	127
319.91215419501134	320.35333333333335	40	127
319.91215419501134	320.1559637188209	64	127
320.1559637188209	320.35333333333335	64	127
320.1559637188209	320.35333333333335	67	127
320.1559637188209	320.2372335600907	78	127
320.26045351473925	320.3417233560091	79	127
320.35333333333335	320.8757823129252	79	127
320.35333333333335	320.53909297052155	62	127
320.35333333333335	320.53909297052155	65	127
320.53909297052155	320.72485260770975	60	127
320.53909297052155	320.72485260770975	64	127
320.72485260770975	320.91061224489795	62	127
320.72485260770975	321.54916099773243	53	127
320.72485260770975	320.91061224489795	59	127
320.91061224489795	321.1079818594104	55	127
320.91061224489795	320.99185941043083	81	127
320.91061224489795	321.1079818594104	59	127
321.0151020408163	321.08473922902493	79	127
321.1079818594104	321.3053514739229	60	127
321.1079818594104	321.7000680272109	79	127
321.1079818594104	321.3053514739229	57	127
321.3053514739229	321.54916099773243	59	127
321.3053514739229	321.54916099773243	62	127
321.54916099773243	321.7000680272109	52	127
321.54916099773243	321.7000680272109	64	127
321.54916099773243	321.7000680272109	60	127
321.7465306122449	321.9206802721088	79	127
321.95551020408163	322.11802721088435	65	127
321.95551020408163	322.11802721088435	74	127
321.95551020408163	322.11802721088435	59	127
322.17609977324264	322.36185941043084	79	127
322.4082993197279	322.71015873015875	60	127
322.4082993197279	322.71015873015875	76	127
322.4082993197279	322.71015873015875	79	127
322.4082993197279	322.71015873015875	64	127
322.71015873015875	322.8146485260771	77	127
322.71015873015875	322.8146485260771	62	127
322.71015873015875	322.8146485260771	81	127
322.71015873015875	322.8146485260771	59	127
322.8146485260771	323.1281179138322	64	127
322.8146485260771	323.1281179138322	76	127
322.8146485260771	323.1281179138322	60	127
322.8146485260771	323.1281179138322	79	127
323.1281179138322	323.2325850340136	77	127
323.1281179138322	323.2325850340136	59	127
323.1281179138322	323.2325850340136	62	127
323.1281179138322	323.2325850340136	81	127
323.2325850340136	323.3487074829932	79	127
323.2325850340136	323.3487074829932	64	127
323.2325850340136	323.3487074829932	76	127
323.2325850340136	323.3487074829932	60	127
323.3487074829932	323.45319727891155	62	127
323.3487074829932	323.45319727891155	59	127
323.3487074829932	323.45319727891155	77	127
323.3487074829932	323.45319727891155	81	127
323.45319727891155	323.5460544217687	64	127
323.45319727891155	323.5460544217687	60	127
323.45319727891155	323.5460544217687	79	127
323.45319727891155	323.5460544217687	76	127
323.5460544217687	323.65054421768707	62	127
323.5460544217687	323.65054421768707	77	127
323.5460544217687	323.65054421768707	81	127
323.5460544217687	323.65054421768707	59	127
323.65054421768707	323.75503401360544	76	127
323.65054421768707	323.75503401360544	79	127
323.65054421768707	323.75503401360544	60	127
323.65054421768707	323.75503401360544	64	127
323.75503401360544	323.84791383219954	62	127
323.75503401360544	323.84791383219954	59	127
323.75503401360544	323.84791383219954	77	127
323.75503401360544	323.84791383219954	81	127
323.84791383219954	323.9524036281179	76	127
323.84791383219954	323.9524036281179	64	127
323.84791383219954	323.9524036281179	79	127
323.84791383219954	323.9524036281179	60	127
323.9524036281179	324.0568934240363	81	127
323.9524036281179	324.0568934240363	77	127
323.9524036281179	324.0568934240363	59	127
323.9524036281179	324.0568934240363	62	127
324.0568934240363	324.17301587301586	64	127
324.0568934240363	324.17301587301586	60	127
324.0568934240363	324.17301587301586	76	127
324.0568934240363	324.17301587301586	79	127
324.17301587301586	324.2775056689342	81	127
324.17301587301586	324.2775056689342	77	127
324.17301587301586	324.2775056689342	59	127
324.17301587301586	324.2775056689342	62	127
324.2775056689342	324.3819954648526	76	127
324.2775056689342	324.3819954648526	64	127
324.2775056689342	324.3819954648526	60	127
324.2775056689342	324.3819954648526	79	127
324.3819954648526	324.48648526077096	77	127
324.3819954648526	324.48648526077096	62	127
324.3819954648526	324.48648526077096	81	127
324.3819954648526	324.48648526077096	59	127
324.48648526077096	324.6025850340136	76	127
324.48648526077096	324.6025850340136	64	127
324.48648526077096	324.6025850340136	79	127
324.48648526077096	324.6025850340136	60	127
324.6025850340136	324.70707482993197	81	127
324.6025850340136	324.70707482993197	62	127
324.6025850340136	324.70707482993197	59	127
324.6025850340136	324.70707482993197	77	127
324.70707482993197	324.8231746031746	79	127
324.70707482993197	324.8231746031746	76	127
324.70707482993197	324.8231746031746	64	127
324.70707482993197	324.8231746031746	60	127
324.8231746031746	324.9160544217687	77	127
324.8231746031746	324.9160544217687	62	127
324.8231746031746	324.9160544217687	59	127
324.8231746031746	324.9160544217687	81	127
324.9160544217687	324.97408163265305	76	127
324.9160544217687	324.97408163265305	64	127
324.9160544217687	325.06698412698415	79	127
324.9160544217687	325.06698412698415	60	127
325.0089342403628	325.06698412698415	67	127
325.0089342403628	325.06698412698415	76	127
325.1018140589569	325.2643537414966	48	127
325.1018140589569	325.1714739229025	76	127
325.1018140589569	325.1714739229025	67	127
325.1018140589569	325.2643537414966	88	127
325.2063038548753	325.2643537414966	76	127
325.2063038548753	325.2643537414966	67	127
325.31079365079364	325.368843537415	71	127
325.31079365079364	325.47333333333336	50	127
325.31079365079364	325.368843537415	65	127
325.40367346938774	325.47333333333336	65	127
325.40367346938774	325.47333333333336	71	127
325.5081632653061	325.56621315192746	65	127
325.5081632653061	325.6707029478458	86	127
325.5081632653061	325.6707029478458	50	127
325.5081632653061	325.56621315192746	71	127
325.6126530612245	325.6707029478458	71	127
325.6126530612245	325.6707029478458	65	127
325.7055328798186	325.8680725623583	52	127
325.7055328798186	325.7635827664399	72	127
325.7055328798186	325.7635827664399	64	127
325.81002267573695	325.8680725623583	64	127
325.81002267573695	325.8680725623583	72	127
325.9028798185941	326.06544217687076	84	127
325.9028798185941	326.06544217687076	52	127
325.9028798185941	325.97256235827666	72	127
325.9028798185941	325.97256235827666	64	127
326.0073922902494	326.06544217687076	64	127
326.0073922902494	326.06544217687076	72	127
326.1118820861678	326.2744217687075	53	127
326.1118820861678	326.16993197278913	72	127
326.1118820861678	326.16993197278913	62	127
326.21637188208615	326.2744217687075	72	127
326.21637188208615	326.2744217687075	62	127
326.3208616780045	326.47179138321997	53	127
326.3208616780045	326.47179138321997	81	127
326.3208616780045	326.37891156462587	62	127
326.3208616780045	326.37891156462587	72	127
326.4137188208617	326.47179138321997	62	127
326.4137188208617	326.47179138321997	72	127
326.5065986394558	326.5414512471655	72	127
326.5065986394558	326.6459410430839	55	127
326.5065986394558	326.5414512471655	64	127
326.5878911564626	326.6459410430839	72	127
326.5878911564626	326.6459410430839	64	127
326.692380952381	326.8665306122449	55	127
326.692380952381	326.8665306122449	79	127
326.692380952381	326.75043083900226	72	127
326.692380952381	326.75043083900226	64	127
326.8084807256236	326.8665306122449	72	127
326.8084807256236	326.8665306122449	64	127
326.912947845805	326.97102040816327	62	127
326.912947845805	326.97102040816327	65	127
326.912947845805	327.07551020408164	43	127
327.01743764172335	327.07551020408164	65	127
327.01743764172335	327.07551020408164	62	127
327.1219274376417	327.29609977324264	43	127
327.1219274376417	327.29609977324264	71	127
327.1219274376417	327.18	65	127
327.1219274376417	327.18	62	127
327.2264172335601	327.29609977324264	65	127
327.2264172335601	327.29609977324264	62	127
327.33090702947845	327.66761904761904	72	127
327.33090702947845	327.5282766439909	60	127
327.33090702947845	327.5282766439909	48	127
327.33090702947845	327.4934693877551	64	127
327.5282766439909	327.73725623582766	52	127
327.5282766439909	327.73725623582766	55	127
327.73725623582766	327.92303854875286	53	127
327.73725623582766	328.062358276644	67	127
327.73725623582766	327.92303854875286	50	127
327.92303854875286	328.14360544217686	52	127
327.92303854875286	328.14360544217686	48	127
328.14360544217686	328.34099773242633	47	127
328.14360544217686	328.34099773242633	50	127
328.14360544217686	328.92149659863946	89	127
328.34099773242633	328.42226757369616	69	127
328.34099773242633	328.5383673469388	43	127
328.34099773242633	328.5383673469388	59	127
328.4454875283447	328.52675736961453	67	127
328.5383673469388	328.724126984127	45	127
328.5383673469388	328.724126984127	60	127
328.5383673469388	329.0840362811791	67	127
328.724126984127	328.92149659863946	62	127
328.724126984127	328.92149659863946	47	127
328.92149659863946	329.11886621315193	48	127
328.92149659863946	329.3162358276644	88	127
328.92149659863946	329.11886621315193	64	127
329.11886621315193	329.3162358276644	52	127
329.11886621315193	329.20013605442176	66	127
329.11886621315193	329.3162358276644	55	127
329.2233560090703	329.30462585034013	67	127
329.3162358276644	329.89673469387753	67	127
329.3162358276644	329.5368253968254	50	127
329.3162358276644	329.5368253968254	53	127
329.5368253968254	329.74580498866214	48	127
329.5368253968254	329.74580498866214	52	127
329.74580498866214	329.9431746031746	50	127
329.74580498866214	330.5120634920635	77	127
329.74580498866214	329.9431746031746	47	127
329.9431746031746	330.0128344671202	69	127
329.9431746031746	330.1289342403628	43	127
329.9431746031746	330.1289342403628	59	127
330.0360544217687	330.10571428571427	67	127
330.1289342403628	330.6629931972789	67	127
330.1289342403628	330.314693877551	45	127
330.1289342403628	330.314693877551	60	127
330.314693877551	330.5120634920635	47	127
330.314693877551	330.5120634920635	62	127
330.5120634920635	330.70943310657594	64	127
330.5120634920635	330.70943310657594	48	127
330.5120634920635	330.90678004535147	76	127
330.70943310657594	330.90678004535147	52	127
330.70943310657594	330.90678004535147	55	127
330.70943310657594	330.79070294784583	66	127
330.8022902494331	330.88358276643993	67	127
330.90678004535147	331.1273922902494	50	127
330.90678004535147	331.1273922902494	53	127
330.90678004535147	331.49891156462587	67	127
331.1273922902494	331.3595918367347	48	127
331.1273922902494	331.3595918367347	52	127
331.3595918367347	331.5453514739229	47	127
331.3595918367347	331.5453514739229	50	127
331.3595918367347	332.1722902494331	65	127
331.5453514739229	331.75433106575963	59	127
331.5453514739229	331.638231292517	69	127
331.5453514739229	331.75433106575963	43	127
331.64984126984126	331.7311111111111	67	127
331.75433106575963	331.96331065759637	60	127
331.75433106575963	331.96331065759637	45	127
331.96331065759637	332.1722902494331	62	127
331.96331065759637	332.1722902494331	47	127
332.1722902494331	332.3928798185941	64	127
332.1722902494331	332.3928798185941	48	127
332.1722902494331	332.3928798185941	60	127
332.1722902494331	332.3928798185941	67	127
332.4509297052154	332.60185941043085	79	127
332.6482766439909	332.8572789115646	77	127
332.6482766439909	332.8572789115646	59	127
332.6482766439909	332.8572789115646	62	127
332.8921088435374	333.05462585034013	79	127
333.0894784580499	333.41455782312926	76	127
333.0894784580499	333.41455782312926	60	127
333.0894784580499	333.41455782312926	79	127
333.0894784580499	333.41455782312926	64	127
333.41455782312926	333.5190476190476	59	127
333.41455782312926	333.5190476190476	81	127
333.41455782312926	333.5190476190476	77	127
333.41455782312926	333.5190476190476	62	127
333.5190476190476	333.83251700680273	64	127
333.5190476190476	333.83251700680273	60	127
333.5190476190476	333.83251700680273	79	127
333.5190476190476	333.83251700680273	76	127
333.83251700680273	333.96022675736964	77	127
333.83251700680273	333.96022675736964	59	127
333.83251700680273	333.96022675736964	62	127
333.83251700680273	333.96022675736964	81	127
333.96022675736964	334.064716553288	79	127
333.96022675736964	334.064716553288	60	127
333.96022675736964	334.064716553288	76	127
333.96022675736964	334.064716553288	64	127
334.064716553288	334.18079365079365	59	127
334.064716553288	334.18079365079365	62	127
334.064716553288	334.18079365079365	81	127
334.064716553288	334.18079365079365	77	127
334.18079365079365	334.285283446712	64	127
334.18079365079365	334.285283446712	79	127
334.18079365079365	334.285283446712	60	127
334.18079365079365	334.285283446712	76	127
334.285283446712	334.3897959183673	77	127
334.285283446712	334.3897959183673	59	127
334.285283446712	334.3897959183673	81	127
334.285283446712	334.3897959183673	62	127
334.3897959183673	334.4826530612245	60	127
334.3897959183673	334.4826530612245	79	127
334.3897959183673	334.4826530612245	64	127
334.3897959183673	334.4826530612245	76	127
334.4826530612245	334.58714285714285	77	127
334.4826530612245	334.58714285714285	62	127
334.4826530612245	334.58714285714285	81	127
334.4826530612245	334.58714285714285	59	127
334.58714285714285	334.6916326530612	64	127
334.58714285714285	334.6916326530612	76	127
334.58714285714285	334.6916326530612	79	127
334.58714285714285	334.6916326530612	60	127
334.6916326530612	334.7845124716553	62	127
334.6916326530612	334.7845124716553	77	127
334.6916326530612	334.7845124716553	81	127
334.6916326530612	334.7845124716553	59	127
334.7845124716553	334.9006349206349	79	127
334.7845124716553	334.9006349206349	64	127
334.7845124716553	334.9006349206349	60	127
334.7845124716553	334.9006349206349	76	127
334.9006349206349	334.99349206349206	62	127
334.9006349206349	334.99349206349206	77	127
334.9006349206349	334.99349206349206	59	127
334.9006349206349	334.99349206349206	81	127
334.99349206349206	335.0979818594104	76	127
334.99349206349206	335.0979818594104	79	127
334.99349206349206	335.0979818594104	60	127
334.99349206349206	335.0979818594104	64	127
335.0979818594104	335.2024716553288	62	127
335.0979818594104	335.2024716553288	59	127
335.0979818594104	335.2024716553288	77	127
335.0979818594104	335.2024716553288	81	127
335.2024716553288	335.2953741496599	79	127
335.2024716553288	335.2953741496599	64	127
335.2024716553288	335.2953741496599	76	127
335.2024716553288	335.2953741496599	60	127
335.2953741496599	335.39984126984126	77	127
335.2953741496599	335.39984126984126	81	127
335.2953741496599	335.39984126984126	59	127
335.2953741496599	335.39984126984126	62	127
335.39984126984126	335.49274376417236	60	127
335.39984126984126	335.49274376417236	79	127
335.39984126984126	335.49274376417236	64	127
335.39984126984126	335.49274376417236	76	127
335.49274376417236	335.59723356009073	81	127
335.49274376417236	335.59723356009073	62	127
335.49274376417236	335.59723356009073	59	127
335.49274376417236	335.59723356009073	77	127
335.59723356009073	335.655283446712	64	127
335.59723356009073	335.71331065759637	60	127
335.59723356009073	335.655283446712	76	127
335.59723356009073	335.7597732426304	79	127
335.7017233560091	335.7597732426304	64	127
335.7017233560091	335.7597732426304	79	127
335.7946031746032	335.92231292517005	48	127
335.7946031746032	335.8526530612245	79	127
335.7946031746032	335.8526530612245	64	127
335.7946031746032	335.95714285714286	88	127
335.89909297052156	335.95714285714286	64	127
335.89909297052156	335.95714285714286	79	127
336.00358276643993	336.11965986394557	50	127
336.00358276643993	336.0616326530612	79	127
336.00358276643993	336.0616326530612	67	127
336.09646258503403	336.1545124716553	77	127
336.09646258503403	336.1545124716553	71	127
336.2009523809524	336.31705215419504	50	127
336.2009523809524	336.2590022675737	77	127
336.2009523809524	336.2590022675737	71	127
336.2009523809524	336.36349206349206	86	127
336.2938321995465	336.36349206349206	77	127
336.2938321995465	336.36349206349206	71	127
336.39832199546487	336.45637188208616	71	127
336.39832199546487	336.45637188208616	77	127
336.39832199546487	336.5144217687075	52	127
336.50281179138324	336.5608616780045	76	127
336.50281179138324	336.5608616780045	72	127
336.59569160997734	336.6537414965986	76	127
336.59569160997734	336.72340136054424	52	127
336.59569160997734	336.758231292517	84	127
336.59569160997734	336.6537414965986	72	127
336.7001814058957	336.758231292517	72	127
336.7001814058957	336.758231292517	76	127
336.7930612244898	336.9207709750567	53	127
336.7930612244898	336.86272108843536	76	127
336.7930612244898	336.86272108843536	67	127
336.8975510204082	336.95560090702946	74	127
336.8975510204082	336.95560090702946	65	127
337.00204081632654	337.1181405895692	53	127
337.00204081632654	337.06009070294783	74	127
337.00204081632654	337.06009070294783	65	127
337.00204081632654	337.15297052154193	81	127
337.09492063492064	337.15297052154193	65	127
337.09492063492064	337.15297052154193	74	127
337.199410430839	337.3271201814059	55	127
337.199410430839	337.2574603174603	65	127
337.199410430839	337.2574603174603	74	127
337.2922902494331	337.37356009070294	72	127
337.2922902494331	337.37356009070294	64	127
337.40839002267575	337.46643990929704	64	127
337.40839002267575	337.46643990929704	72	127
337.40839002267575	337.53609977324265	55	127
337.40839002267575	337.59414965986394	79	127
337.5244897959184	337.59414965986394	72	127
337.5244897959184	337.59414965986394	64	127
337.640589569161	337.72185941043085	64	127
337.640589569161	337.8031292517007	43	127
337.640589569161	337.72185941043085	67	127
337.77990929705214	337.8379591836735	65	127
337.77990929705214	337.8379591836735	62	127
337.90761904761905	338.0469387755102	71	127
337.90761904761905	338.0121088435374	43	127
337.90761904761905	337.9540362811791	65	127
337.90761904761905	337.9540362811791	62	127
337.9888888888889	338.0469387755102	62	127
337.9888888888889	338.0469387755102	65	127
338.09337868480725	338.2094784580499	48	127
338.09337868480725	338.25591836734696	60	127
338.09337868480725	338.53455782312926	72	127
338.09337868480725	338.25591836734696	64	127
338.53455782312926	338.94090702947847	67	127
338.53455782312926	338.59260770975055	57	127
338.53455782312926	338.94090702947847	73	127
338.743537414966	338.81319727891156	57	127
338.94090702947847	339.31242630385486	74	127
338.94090702947847	339.1150566893424	57	127
338.94090702947847	339.31242630385486	65	127
339.1150566893424	339.2775963718821	50	127
339.31242630385486	339.71877551020407	76	127
339.31242630385486	339.3704761904762	48	127
339.31242630385486	339.71877551020407	70	127
339.50979591836733	339.57945578231295	48	127
339.71877551020407	340.1018820861678	77	127
339.71877551020407	340.1018820861678	69	127
339.71877551020407	339.9045124716553	48	127
339.9045124716553	340.067074829932	41	127
340.1018820861678	340.51984126984127	60	127
340.1018820861678	340.287664399093	53	127
340.1018820861678	340.1831746031746	81	127
340.32249433106574	340.3805442176871	81	127
340.51984126984127	340.6940136054422	55	127
340.51984126984127	340.94943310657595	59	127
340.51984126984127	340.76367346938775	81	127
340.76367346938775	340.90299319727893	74	127
340.94943310657595	341.12356009070294	43	127
340.94943310657595	341.12356009070294	71	127
340.94943310657595	341.12356009070294	65	127
340.94943310657595	341.0074829931973	79	127
341.1584126984127	341.21646258503404	79	127
341.35578231292516	341.5183219954649	72	127
341.35578231292516	341.5183219954649	48	127
341.35578231292516	341.7273015873016	72	127
341.35578231292516	341.5647619047619	79	127
341.35578231292516	341.5183219954649	64	127
341.5647619047619	341.68086167800453	72	127
341.7273015873016	342.1452607709751	73	127
341.7273015873016	342.0639909297052	67	127
341.7273015873016	341.7853514739229	57	127
341.93628117913835	341.99433106575964	57	127
342.1452607709751	342.34263038548755	57	127
342.1452607709751	342.4819501133787	65	127
342.1452607709751	342.5980498866213	74	127
342.34263038548755	342.5167800453515	50	127
342.5980498866213	342.65609977324266	48	127
342.5980498866213	342.9231292517007	70	127
342.5980498866213	343.0043990929705	76	127
342.80702947845805	342.8650566893424	48	127
343.0043990929705	343.2249886621315	48	127
343.0043990929705	343.3643083900227	69	127
343.0043990929705	343.44557823129253	77	127
343.2249886621315	343.39913832199545	41	127
343.44557823129253	343.5036281179138	81	127
343.44557823129253	343.5965079365079	53	127
343.44557823129253	343.75904761904764	60	127
343.642947845805	343.7009977324263	81	127
343.84031746031746	344.0144671201814	55	127
343.84031746031746	344.1770068027211	59	127
343.84031746031746	344.0492970521542	81	127
344.0492970521542	344.21183673469386	74	127
344.25827664399094	344.40920634920633	43	127
344.25827664399094	344.40920634920633	71	127
344.25827664399094	344.40920634920633	65	127
344.25827664399094	344.31632653061223	79	127
344.4556462585034	344.52530612244897	79	127
344.7691156462585	344.9316553287982	48	127
344.7691156462585	344.9316553287982	72	127
344.7691156462585	344.9316553287982	64	127
344.7691156462585	344.966485260771	79	127
344.966485260771	345.12902494331064	72	127
345.1754648526077	345.2451247165533	69	127
345.1754648526077	345.2451247165533	45	127
345.1754648526077	345.2451247165533	57	127
345.38444444444445	345.45410430839	45	127
345.38444444444445	345.45410430839	69	127
345.38444444444445	345.45410430839	57	127
345.60503401360546	345.80240362811793	69	127
345.60503401360546	345.80240362811793	45	127
345.60503401360546	345.80240362811793	57	127
345.80240362811793	345.9649433106576	50	127
345.80240362811793	345.9649433106576	62	127
345.80240362811793	345.9649433106576	38	127
345.9997732426304	346.06943310657596	43	127
345.9997732426304	346.06943310657596	55	127
345.9997732426304	346.06943310657596	67	127
346.20875283446713	346.2668027210884	67	127
346.20875283446713	346.2668027210884	43	127
346.20875283446713	346.2668027210884	55	127
346.4061224489796	346.60349206349207	43	127
346.4061224489796	346.60349206349207	67	127
346.4061224489796	346.60349206349207	55	127
346.60349206349207	346.76603174603173	36	127
346.60349206349207	346.6847619047619	60	127
346.60349206349207	346.76603174603173	48	127
346.60349206349207	346.76603174603173	60	127
346.70798185941044	347.0098412698413	55	127
346.80086167800454	347.0098412698413	43	127
346.80086167800454	347.0098412698413	62	127
346.80086167800454	347.0098412698413	71	127
346.80086167800454	346.8588888888889	67	127
346.80086167800454	346.8588888888889	55	127
347.1027210884354	347.1607482993197	67	127
347.1027210884354	347.1607482993197	55	127
347.1956009070295	347.5090702947846	55	127
347.30009070294784	347.57873015873014	67	127
347.30009070294784	347.5090702947846	48	127
347.30009070294784	347.5090702947846	72	127
347.30009070294784	347.5090702947846	64	127
347.30009070294784	347.57873015873014	55	127
347.57873015873014	347.77607709750566	48	127
347.57873015873014	347.77607709750566	60	127
347.70643990929705	348.01990929705215	67	127
347.8225396825397	348.01990929705215	83	127
347.8225396825397	348.01990929705215	74	127
347.8225396825397	347.9038095238095	79	127
347.8225396825397	347.9038095238095	67	127
347.8225396825397	348.01990929705215	43	127
348.14761904761906	348.2521088435374	67	127
348.14761904761906	348.2521088435374	79	127
348.29854875283445	348.64684807256236	67	127
348.4146485260771	348.64684807256236	36	127
348.4146485260771	348.69326530612244	79	127
348.4146485260771	348.64684807256236	84	127
348.4146485260771	348.64684807256236	76	127
348.4146485260771	348.69326530612244	67	127
348.69326530612244	348.9022448979592	60	127
348.69326530612244	348.9022448979592	72	127
