# onset,offset,note,velocity
1.3459863945578232	1.589795918367347	48	127
2.112222222222222	2.4024943310657596	48	127
4.701269841269841	4.979909297052155	48	127
5.374625850340136	5.711337868480726	48	127
6.1525170068027215	9.182721088435374	56	127
6.1525170068027215	6.419546485260771	48	127
6.814285714285714	7.081315192743764	48	127
7.545714285714285	10.564308390022676	63	127
7.545714285714285	7.882403628117914	48	127
8.277142857142858	8.648639455782313	48	127
9.182721088435374	13.640952380952381	81	127
9.182721088435374	10.564308390022676	55	127
9.182721088435374	9.565827664399093	48	127
9.937369614512471	10.192789115646258	48	127
10.564308390022676	11.562766439909296	54	127
10.564308390022676	11.80657596371882	62	127
10.564308390022676	10.8081179138322	48	127
11.19124716553288	11.435056689342403	48	127
11.80657596371882	14.453650793650795	55	127
11.80657596371882	13.640952380952381	61	127
11.80657596371882	12.050385487528345	47	127
12.514784580498866	13.095283446712019	47	127
13.640952380952381	13.989251700680272	47	127
13.640952380952381	16.137097505668933	62	127
13.640952380952381	15.452108843537415	79	127
14.453650793650795	15.022539682539682	47	127
14.453650793650795	15.452108843537415	57	127
15.452108843537415	16.137097505668933	59	127
15.452108843537415	16.868526077097506	78	127
15.452108843537415	15.69591836734694	47	127
16.137097505668933	16.462154195011337	47	127
16.137097505668933	16.868526077097506	69	127
16.137097505668933	16.868526077097506	60	127
16.868526077097506	19.887097505668933	79	127
16.868526077097506	17.8437641723356	62	127
16.868526077097506	17.8437641723356	71	127
16.868526077097506	17.402585034013605	47	127
17.8437641723356	18.296553287981858	47	127
17.8437641723356	18.749319727891155	72	127
17.8437641723356	18.749319727891155	69	127
18.749319727891155	19.75938775510204	74	127
18.749319727891155	19.51560090702948	47	127
18.749319727891155	19.75938775510204	71	127
19.887097505668933	20.618548752834467	42	127
19.887097505668933	20.618548752834467	81	127
20.618548752834467	21.651836734693877	43	127
20.618548752834467	21.651836734693877	82	127
21.651836734693877	22.38326530612245	45	127
21.651836734693877	22.38326530612245	84	127
22.38326530612245	23.555873015873015	85	127
22.38326530612245	22.673514739229024	46	127
22.986984126984126	23.219183673469388	46	127
23.555873015873015	23.8112925170068	46	127
25.076780045351473	25.355419501133788	46	127
26.05201814058957	26.330657596371882	46	127
26.05201814058957	29.999410430839003	54	127
27.305895691609976	27.58453514739229	46	127
27.990884353741496	28.38562358276644	46	127
27.990884353741496	31.415827664399092	61	127
28.88485260770975	29.395691609977323	46	127
29.999410430839003	31.415827664399092	53	127
29.999410430839003	30.37092970521542	46	127
29.999410430839003	34.062879818594105	79	127
30.7540589569161	31.044308390022675	46	127
31.415827664399092	32.75097505668934	52	127
31.415827664399092	31.70607709750567	46	127
31.415827664399092	32.75097505668934	60	127
32.112426303854875	32.379455782312924	46	127
32.75097505668934	34.062879818594105	59	127
32.75097505668934	34.70142857142857	53	127
32.75097505668934	32.994784580498866	45	127
33.38952380952381	33.679750566893425	45	127
34.062879818594105	34.32993197278912	45	127
34.062879818594105	37.22081632653061	60	127
34.062879818594105	36.19913832199546	77	127
34.70142857142857	35.81600907029478	45	127
34.70142857142857	36.19913832199546	55	127
36.19913832199546	38.16122448979592	76	127
36.19913832199546	36.75641723356009	45	127
36.19913832199546	37.22081632653061	57	127
37.22081632653061	38.16122448979592	67	127
37.22081632653061	37.754875283446715	45	127
37.22081632653061	38.16122448979592	58	127
38.16122448979592	38.950702947845805	45	127
38.16122448979592	40.9940589569161	77	127
38.16122448979592	39.32222222222222	69	127
38.16122448979592	39.32222222222222	60	127
39.32222222222222	40.239410430839	67	127
39.32222222222222	39.86789115646258	45	127
39.32222222222222	40.239410430839	70	127
40.239410430839	40.62253968253968	45	127
40.239410430839	40.866349206349206	72	127
40.239410430839	40.866349206349206	69	127
40.9940589569161	41.91124716553288	79	127
40.9940589569161	41.91124716553288	40	127
41.91124716553288	42.56138321995465	80	127
41.91124716553288	42.56138321995465	41	127
42.56138321995465	43.44374149659864	43	127
42.56138321995465	43.44374149659864	82	127
43.44374149659864	43.73401360544218	44	127
43.44374149659864	44.8253514739229	84	127
44.198412698412696	44.44222222222222	44	127
44.198412698412696	44.8253514739229	52	127
44.8253514739229	49.3184126984127	65	127
44.8253514739229	45.17365079365079	44	127
44.8253514739229	45.64965986394558	53	127
45.64965986394558	46.11403628117914	44	127
45.64965986394558	46.555238095238096	55	127
46.555238095238096	47.77428571428572	56	127
46.555238095238096	47.29827664399093	44	127
47.77428571428572	48.61020408163265	57	127
47.77428571428572	48.134195011337866	44	127
48.61020408163265	48.86562358276644	43	127
48.61020408163265	50.93219954648526	59	127
49.3184126984127	49.991791383219955	43	127
49.3184126984127	50.421360544217684	62	127
50.421360544217684	50.93219954648526	43	127
50.421360544217684	54.82154195011338	63	127
51.32693877551021	52.27895691609977	51	127
51.32693877551021	51.69845804988662	43	127
52.27895691609977	52.56920634920635	43	127
52.27895691609977	52.998775510204084	53	127
52.998775510204084	54.206213151927436	55	127
52.998775510204084	53.660544217687075	43	127
54.206213151927436	58.1768253968254	56	127
54.206213151927436	54.48485260770975	41	127
54.972471655328796	55.2859410430839	41	127
54.972471655328796	55.355600907029476	65	127
54.972471655328796	55.66907029478458	72	127
55.355600907029476	55.66907029478458	63	127
55.66907029478458	56.609478458049885	74	127
55.66907029478458	56.017369614512475	41	127
55.66907029478458	59.92993197278911	62	127
56.609478458049885	56.95777777777778	41	127
56.609478458049885	57.46861678004535	75	127
57.46861678004535	58.30453514739229	77	127
57.46861678004535	57.92140589569161	41	127
58.30453514739229	58.98952380952381	78	127
58.30453514739229	58.55995464852608	41	127
58.98952380952381	59.92993197278911	55	127
58.98952380952381	61.72947845804989	39	127
58.98952380952381	61.05609977324263	79	127
60.05764172335601	60.707800453514736	67	127
60.05764172335601	60.707800453514736	59	127
60.707800453514736	62.48412698412698	60	127
60.707800453514736	61.578548752834465	65	127
61.578548752834465	62.785986394557824	63	127
61.578548752834465	62.785986394557824	72	127
62.785986394557824	63.610294784580496	62	127
62.785986394557824	65.10798185941043	72	127
62.785986394557824	63.610294784580496	74	127
63.610294784580496	64.38816326530612	75	127
63.610294784580496	64.38816326530612	60	127
64.38816326530612	66.29219954648526	62	127
64.38816326530612	68.03369614512472	77	127
65.22408163265307	66.03678004535148	71	127
65.22408163265307	66.03678004535148	43	127
66.03678004535148	66.67532879818594	44	127
66.03678004535148	66.67532879818594	72	127
66.67532879818594	67.33709750566894	55	127
66.67532879818594	67.33709750566894	45	127
66.67532879818594	67.33709750566894	73	127
67.33709750566894	68.18462585034014	46	127
67.33709750566894	70.40213151927438	74	127
67.33709750566894	71.05229024943311	67	127
68.18462585034014	68.83478458049886	47	127
68.83478458049886	71.31931972789116	76	127
68.83478458049886	71.87659863945578	48	127
70.62272108843537	71.31931972789116	72	127
71.31931972789116	73.0027664399093	75	127
71.31931972789116	72.28294784580498	70	127
72.28294784580498	73.0027664399093	69	127
72.28294784580498	73.0027664399093	60	127
73.0027664399093	73.79224489795918	59	127
73.0027664399093	73.79224489795918	68	127
73.0027664399093	74.74426303854875	74	127
73.79224489795918	74.74426303854875	67	127
73.79224489795918	74.74426303854875	58	127
73.79224489795918	74.74426303854875	58	127
74.74426303854875	76.59024943310658	57	127
74.74426303854875	77.47260770975056	67	127
74.74426303854875	77.33328798185941	72	127
74.74426303854875	75.58018140589569	60	127
75.58018140589569	76.59024943310658	62	127
76.59024943310658	79.9107029478458	56	127
76.59024943310658	77.33328798185941	63	127
77.33328798185941	77.70480725623582	74	127
77.33328798185941	78.06471655328798	64	127
77.70480725623582	78.06471655328798	72	127
78.06471655328798	79.05156462585035	65	127
78.06471655328798	79.05156462585035	65	127
78.06471655328798	78.48267573696145	71	127
78.48267573696145	79.05156462585035	72	127
79.05156462585035	79.9107029478458	60	127
79.05156462585035	79.9107029478458	66	127
79.05156462585035	79.58562358276644	74	127
79.58562358276644	79.9107029478458	72	127
79.9107029478458	81.21102040816326	67	127
79.9107029478458	81.21102040816326	71	127
79.9107029478458	81.21102040816326	62	127
79.9107029478458	80.58408163265307	55	127
80.80467120181406	81.57092970521542	66	127
81.57092970521542	83.17310657596371	67	127
82.51133786848072	83.17310657596371	74	127
82.51133786848072	83.17310657596371	71	127
83.17310657596371	84.29927437641723	75	127
83.17310657596371	84.29927437641723	72	127
84.29927437641723	85.13519274376418	72	127
84.29927437641723	85.13519274376418	63	127
84.29927437641723	85.13519274376418	66	127
85.13519274376418	86.29619047619047	71	127
85.13519274376418	86.29619047619047	67	127
85.13519274376418	86.29619047619047	62	127
85.9130612244898	86.54	54	127
86.54	88.6762358276644	55	127
87.96802721088436	88.6762358276644	74	127
87.96802721088436	88.6762358276644	65	127
88.6762358276644	89.53537414965986	63	127
88.6762358276644	89.53537414965986	72	127
89.53537414965986	90.30160997732426	54	127
89.53537414965986	90.30160997732426	60	127
89.53537414965986	90.30160997732426	69	127
90.30160997732426	91.76448979591837	67	127
90.30160997732426	91.76448979591837	55	127
90.30160997732426	91.76448979591837	59	127
91.21882086167801	92.101179138322	42	127
92.101179138322	94.12131519274377	43	127
93.41310657596372	94.12131519274377	59	127
93.41310657596372	94.12131519274377	62	127
93.41310657596372	94.12131519274377	53	127
94.12131519274377	95.21265306122449	60	127
94.12131519274377	95.21265306122449	63	127
94.12131519274377	95.21265306122449	51	127
95.21265306122449	95.96730158730159	57	127
95.21265306122449	95.96730158730159	54	127
95.21265306122449	95.96730158730159	60	127
95.96730158730159	98.23124716553288	55	127
95.96730158730159	97.49981859410431	59	127
95.96730158730159	98.23124716553288	55	127
96.94253968253969	97.85972789115647	43	127
97.85972789115647	98.80013605442177	47	127
98.80013605442177	99.6360544217687	49	127
98.80013605442177	99.6360544217687	55	127
98.80013605442177	99.6360544217687	59	127
98.80013605442177	99.6360544217687	52	127
99.6360544217687	100.58807256235828	55	127
99.6360544217687	104.02462585034013	53	127
99.6360544217687	100.58807256235828	50	127
99.6360544217687	100.58807256235828	59	127
100.58807256235828	101.64458049886622	55	127
100.58807256235828	101.64458049886622	47	127
100.58807256235828	101.64458049886622	59	127
101.64458049886622	102.561768707483	55	127
101.64458049886622	102.561768707483	59	127
102.561768707483	103.52539682539683	43	127
102.561768707483	103.52539682539683	61	127
102.561768707483	103.52539682539683	58	127
103.52539682539683	105.9867120181406	62	127
103.52539682539683	104.60512471655329	47	127
103.52539682539683	106.57882086167801	59	127
104.60512471655329	105.4526530612245	49	127
104.60512471655329	105.4526530612245	52	127
105.4526530612245	106.57882086167801	50	127
105.4526530612245	106.99678004535147	53	127
106.57882086167801	107.14770975056689	59	127
106.57882086167801	107.27541950113378	47	127
106.57882086167801	107.14770975056689	62	127
107.27541950113378	109.67868480725623	53	127
107.27541950113378	108.26226757369615	59	127
107.27541950113378	108.26226757369615	62	127
108.26226757369615	109.08657596371881	64	127
108.26226757369615	109.08657596371881	61	127
108.26226757369615	109.08657596371881	43	127
109.08657596371881	110.21274376417233	47	127
109.08657596371881	111.42018140589569	62	127
109.08657596371881	111.42018140589569	65	127
110.21274376417233	111.03705215419501	49	127
110.21274376417233	111.03705215419501	58	127
111.03705215419501	111.84975056689342	59	127
111.03705215419501	111.84975056689342	50	127
111.84975056689342	113.27777777777777	65	127
111.84975056689342	113.27777777777777	55	127
111.84975056689342	113.27777777777777	47	127
111.84975056689342	113.27777777777777	74	127
113.38226757369614	117.4457596371882	62	127
113.38226757369614	117.4457596371882	72	127
113.38226757369614	117.4457596371882	65	127
113.38226757369614	117.4457596371882	43	127
117.4457596371882	122.33356009070295	65	127
117.4457596371882	117.70117913832199	71	127
117.4457596371882	122.33356009070295	62	127
117.4457596371882	122.33356009070295	43	127
117.70117913832199	118.15396825396826	72	127
118.15396825396826	118.64158730158731	74	127
118.64158730158731	119.1756462585034	72	127
119.1756462585034	122.33356009070295	71	127
124.33047619047619	124.5162358276644	64	127
124.33047619047619	124.5162358276644	60	127
124.33047619047619	125.21283446712017	72	127
124.56267573696145	124.71360544217687	64	127
124.56267573696145	124.71360544217687	60	127
124.76004535147392	124.91097505668934	60	127
124.76004535147392	124.91097505668934	64	127
124.95741496598639	125.09673469387755	60	127
124.95741496598639	125.09673469387755	64	127
125.13156462585034	125.23605442176871	64	127
125.13156462585034	125.23605442176871	60	127
125.28249433106576	125.4566439909297	64	127
125.28249433106576	125.4914739229025	72	127
125.28249433106576	125.4566439909297	60	127
125.4914739229025	125.70045351473922	65	127
125.4914739229025	125.65401360544217	60	127
125.4914739229025	125.70045351473922	74	127
125.70045351473922	125.8978231292517	76	127
125.70045351473922	125.8978231292517	67	127
125.70045351473922	125.85138321995466	60	127
125.8978231292517	126.07197278911565	69	127
125.8978231292517	126.07197278911565	60	127
125.8978231292517	126.4318820861678	79	127
126.1184126984127	126.26934240362812	60	127
126.1184126984127	126.26934240362812	69	127
126.31578231292517	126.32739229024943	69	127
126.31578231292517	126.32739229024943	60	127
126.32739229024943	126.39705215419501	69	127
126.32739229024943	126.39705215419501	60	127
126.4318820861678	126.59442176870748	69	127
126.4318820861678	126.59442176870748	60	127
126.4318820861678	126.8730612244898	77	127
126.64086167800454	126.82662131519274	60	127
126.64086167800454	126.82662131519274	69	127
126.8730612244898	127.058820861678	69	127
126.8730612244898	127.058820861678	60	127
127.10526077097505	127.29102040816326	69	127
127.10526077097505	127.29102040816326	60	127
127.33746031746031	127.51160997732427	59	127
127.33746031746031	128.24301587301588	74	127
127.33746031746031	127.51160997732427	67	127
127.54643990929705	127.66253968253969	67	127
127.54643990929705	127.66253968253969	59	127
127.70897959183674	127.85990929705216	57	127
127.70897959183674	127.85990929705216	72	127
127.9063492063492	128.0688888888889	72	127
127.9063492063492	128.0688888888889	57	127
128.11532879818594	128.2546485260771	71	127
128.11532879818594	128.2546485260771	55	127
128.30108843537414	128.45199546485262	74	127
128.30108843537414	128.44040816326532	55	127
128.30108843537414	128.44040816326532	71	127
128.45199546485262	128.61455782312925	76	127
128.45199546485262	128.57972789115647	71	127
128.45199546485262	128.57972789115647	53	127
128.61455782312925	128.75385487528345	71	127
128.61455782312925	128.75385487528345	53	127
128.61455782312925	128.80031746031747	77	127
128.80031746031747	128.8815873015873	71	127
128.80031746031747	128.8815873015873	52	127
128.80031746031747	129.48530612244897	81	127
128.90480725623584	129.02090702947845	52	127
128.90480725623584	129.0673469387755	71	127
129.0673469387755	129.26469387755103	72	127
129.0673469387755	129.21825396825398	52	127
129.26469387755103	129.48530612244897	71	127
129.26469387755103	129.43886621315193	52	127
129.48530612244897	129.81038548752835	79	127
129.48530612244897	129.61301587301588	72	127
129.48530612244897	129.61301587301588	64	127
129.65945578231293	129.7639455782313	67	127
129.65945578231293	129.7639455782313	64	127
129.81038548752835	129.99614512471655	59	127
129.81038548752835	129.99614512471655	74	127
130.03095238095239	130.19351473922902	59	127
130.03095238095239	130.19351473922902	67	127
130.23993197278912	131.13392290249433	79	127
130.23993197278912	130.39086167800454	60	127
130.23993197278912	130.39086167800454	76	127
130.43732426303856	130.6114739229025	60	127
130.43732426303856	130.6114739229025	76	127
130.65791383219954	130.79721088435375	76	127
130.65791383219954	130.79721088435375	60	127
130.84367346938777	131.02943310657596	76	127
130.84367346938777	131.02943310657596	60	127
131.07587301587301	131.13392290249433	76	127
131.07587301587301	131.13392290249433	72	127
131.1455328798186	131.27324263038548	76	127
131.1455328798186	131.1571201814059	79	127
131.1455328798186	131.27324263038548	72	127
131.31968253968253	131.38934240362812	81	127
131.31968253968253	131.43578231292517	71	127
131.31968253968253	131.43578231292517	74	127
131.47061224489795	131.60993197278913	71	127
131.47061224489795	131.52866213151927	83	127
131.47061224489795	131.60993197278913	74	127
131.65637188208618	131.78408163265306	84	127
131.65637188208618	131.78408163265306	69	127
131.65637188208618	131.78408163265306	72	127
131.78408163265306	131.93501133786847	76	127
131.78408163265306	131.96984126984128	71	127
131.78408163265306	131.96984126984128	68	127
131.96984126984128	132.15560090702948	69	127
131.96984126984128	132.15560090702948	72	127
131.96984126984128	132.27170068027212	77	127
132.15560090702948	132.2368707482993	71	127
132.15560090702948	132.2368707482993	68	127
132.2368707482993	132.36458049886622	72	127
132.2368707482993	132.36458049886622	69	127
132.41102040816327	132.57356009070295	72	127
132.41102040816327	132.48068027210886	76	127
132.41102040816327	132.57356009070295	69	127
132.60839002267574	132.7825396825397	67	127
132.60839002267574	132.66643990929705	77	127
132.60839002267574	132.7825396825397	70	127
132.82897959183674	132.95668934240362	70	127
132.82897959183674	132.95668934240362	67	127
132.82897959183674	132.88702947845806	79	127
132.9682993197279	133.0960090702948	65	127
132.9682993197279	133.0960090702948	69	127
132.9682993197279	133.14244897959185	81	127
133.14244897959185	133.29337868480727	73	127
133.14244897959185	133.24693877551022	69	127
133.14244897959185	133.24693877551022	65	127
133.29337868480727	133.47913832199546	64	127
133.29337868480727	133.47913832199546	67	127
133.29337868480727	133.5255782312925	74	127
133.5255782312925	133.69972789115647	76	127
133.5255782312925	133.66487528344672	67	127
133.5255782312925	133.66487528344672	64	127
133.69972789115647	133.81580498866214	77	127
133.69972789115647	133.76938775510203	62	127
133.69972789115647	133.76938775510203	65	127
133.81580498866214	134.0015873015873	62	127
133.81580498866214	134.04802721088436	69	127
133.81580498866214	134.0015873015873	65	127
134.04802721088436	134.23378684807255	74	127
134.04802721088436	134.1873469387755	69	127
134.04802721088436	134.1873469387755	54	127
134.23378684807255	134.38471655328797	69	127
134.23378684807255	134.43113378684808	72	127
134.23378684807255	134.38471655328797	54	127
134.43113378684808	134.74462585034013	62	127
134.43113378684808	134.95360544217687	55	127
134.43113378684808	134.62852607709752	72	127
134.62852607709752	134.74462585034013	71	127
134.74462585034013	135.03487528344672	59	127
134.74462585034013	134.93038548752835	69	127
134.93038548752835	135.11614512471655	67	127
135.11614512471655	135.24385487528346	66	127
135.24385487528346	135.39478458049888	67	127
135.39478458049888	135.5573015873016	65	127
135.5573015873016	135.67342403628118	62	127
135.708231292517	136.6254195011338	60	127
135.708231292517	135.83596371882086	52	127
135.83596371882086	136.05655328798187	55	127
135.83596371882086	135.90562358276645	36	127
136.05655328798187	136.12621315192743	40	127
136.05655328798187	136.28875283446712	60	127
136.28875283446712	136.49773242630386	55	127
136.28875283446712	136.3584126984127	43	127
136.49773242630386	136.77637188208618	48	127
136.49773242630386	136.86925170068028	52	127
136.68349206349205	136.86925170068028	60	127
136.86925170068028	136.9505215419501	59	127
136.86925170068028	136.9505215419501	62	127
136.9505215419501	137.1130612244898	60	127
136.9505215419501	137.1130612244898	64	127
137.1130612244898	137.87931972789116	64	127
137.1130612244898	137.87931972789116	67	127
137.298820861678	137.35687074829931	55	127
137.4497505668934	137.49616780045352	55	127
137.65873015873015	137.72839002267574	55	127
137.87931972789116	138.20439909297053	62	127
137.87931972789116	138.03024943310658	54	127
137.87931972789116	138.20439909297053	65	127
138.07668934240363	138.25083900226758	55	127
138.07668934240363	138.13473922902494	67	127
138.29727891156463	138.35532879818595	67	127
138.29727891156463	138.35532879818595	50	127
138.50625850340137	138.57591836734693	47	127
138.50625850340137	138.57591836734693	67	127
138.69201814058957	138.78489795918367	66	127
138.69201814058957	139.36539682539683	62	127
138.69201814058957	138.76167800453516	43	127
138.69201814058957	139.36539682539683	59	127
138.78489795918367	138.84294784580499	43	127
138.78489795918367	138.9009977324263	67	127
138.9009977324263	138.92421768707484	62	127
138.9009977324263	138.92421768707484	47	127
139.04031746031745	139.10997732426304	50	127
139.04031746031745	139.10997732426304	59	127
139.20285714285714	139.4698866213152	55	127
139.20285714285714	139.4698866213152	55	127
139.3885941043084	139.5395238095238	62	127
139.3885941043084	139.5395238095238	59	127
139.5395238095238	139.74850340136055	64	127
139.5395238095238	139.74850340136055	60	127
139.74850340136055	139.94589569161	62	127
139.74850340136055	139.94589569161	65	127
139.94589569161	140.65410430839003	65	127
139.94589569161	140.65410430839003	69	127
140.08521541950114	140.14326530612246	60	127
140.30578231292517	140.3754648526077	60	127
140.5380045351474	140.5960544217687	60	127
140.65410430839003	140.93274376417233	67	127
140.65410430839003	140.79342403628118	59	127
140.65410430839003	140.93274376417233	64	127
140.81662131519275	140.97918367346938	60	127
140.81662131519275	140.86308390022677	72	127
141.02560090702949	141.08367346938775	72	127
141.02560090702949	141.08367346938775	55	127
141.24621315192744	141.2578231292517	72	127
141.24621315192744	141.2578231292517	52	127
141.31587301587302	142.09374149659865	79	127
141.31587301587302	141.5132426303855	71	127
141.31587301587302	141.65256235827664	48	127
141.31587301587302	142.09374149659865	76	127
141.5132426303855	141.6990022675737	72	127
141.74544217687074	141.81510204081633	67	127
141.94278911564626	142.5581179138322	58	127
141.94278911564626	142.5581179138322	60	127
142.151768707483	142.36077097505668	72	127
142.151768707483	142.36077097505668	76	127
142.36077097505668	142.5117006802721	77	127
142.36077097505668	142.5117006802721	74	127
142.5117006802721	142.68585034013606	79	127
142.5117006802721	142.68585034013606	76	127
142.7322902494331	142.91802721088436	77	127
142.7322902494331	142.91802721088436	57	127
142.7322902494331	142.91802721088436	81	127
142.7322902494331	143.28956916099773	60	127
142.91802721088436	143.12702947845804	81	127
142.91802721088436	143.12702947845804	53	127
142.91802721088436	143.12702947845804	84	127
143.12702947845804	143.26634920634922	55	127
143.12702947845804	143.26634920634922	82	127
143.12702947845804	143.26634920634922	79	127
143.26634920634922	143.41727891156464	81	127
143.26634920634922	143.41727891156464	77	127
143.26634920634922	143.41727891156464	57	127
143.41727891156464	144.07904761904763	60	127
143.41727891156464	144.07904761904763	58	127
143.41727891156464	143.60303854875283	79	127
143.41727891156464	143.60303854875283	76	127
143.60303854875283	143.81201814058957	72	127
143.60303854875283	143.81201814058957	76	127
143.81201814058957	144.03260770975058	74	127
143.81201814058957	144.03260770975058	77	127
144.03260770975058	144.21836734693878	79	127
144.03260770975058	144.21836734693878	76	127
144.24156462585034	144.3692970521542	77	127
144.24156462585034	144.74081632653062	60	127
144.24156462585034	144.3692970521542	57	127
144.24156462585034	144.3692970521542	81	127
144.3692970521542	144.5550566893424	84	127
144.3692970521542	144.5550566893424	81	127
144.3692970521542	144.5550566893424	53	127
144.5550566893424	144.74081632653062	55	127
144.5550566893424	144.74081632653062	82	127
144.5550566893424	144.74081632653062	79	127
144.74081632653062	144.91496598639455	77	127
144.74081632653062	144.91496598639455	57	127
144.74081632653062	144.91496598639455	81	127
144.91496598639455	145.11231292517007	79	127
144.91496598639455	145.41419501133788	58	127
144.91496598639455	145.41419501133788	60	127
144.91496598639455	145.11231292517007	76	127
145.11231292517007	145.2516553287982	72	127
145.11231292517007	145.2516553287982	76	127
145.2516553287982	145.37936507936507	77	127
145.2516553287982	145.37936507936507	74	127
145.37936507936507	145.5651247165533	79	127
145.37936507936507	145.5651247165533	76	127
145.5883446712018	145.92503401360545	81	127
145.5883446712018	145.78571428571428	76	127
145.5883446712018	145.78571428571428	61	127
145.5883446712018	145.92503401360545	57	127
145.78571428571428	145.95986394557823	64	127
145.78571428571428	145.95986394557823	67	127
146.00630385487528	146.05274376417233	64	127
146.00630385487528	146.05274376417233	67	127
146.00630385487528	146.48231292517008	73	127
146.09918367346938	146.16884353741497	67	127
146.09918367346938	146.16884353741497	64	127
146.27333333333334	146.5635827664399	50	127
146.27333333333334	146.44748299319727	67	127
146.27333333333334	146.44748299319727	64	127
146.44748299319727	146.61002267573696	62	127
146.44748299319727	146.61002267573696	65	127
146.656462585034	146.99315192743765	74	127
146.656462585034	146.7261224489796	62	127
146.656462585034	146.7261224489796	65	127
146.877052154195	146.93510204081633	65	127
146.877052154195	146.93510204081633	62	127
147.07442176870748	147.41108843537415	55	127
147.07442176870748	147.28340136054422	65	127
147.07442176870748	147.28340136054422	62	127
147.28340136054422	147.45755102040818	79	127
147.28340136054422	147.45755102040818	74	127
147.50399092970522	147.57365079365078	77	127
147.50399092970522	147.57365079365078	74	127
147.50399092970522	148.0380498866213	83	127
147.759410430839	147.99160997732426	74	127
147.759410430839	147.99160997732426	77	127
147.759410430839	148.13090702947846	57	127
147.99160997732426	148.18897959183673	76	127
147.99160997732426	148.18897959183673	72	127
148.23541950113378	148.37473922902495	84	127
148.23541950113378	148.30507936507937	76	127
148.23541950113378	148.30507936507937	72	127
148.421179138322	148.7694784580499	53	127
148.421179138322	148.7694784580499	65	127
148.421179138322	148.7694784580499	74	127
148.64174603174604	148.85074829931972	81	127
148.85074829931972	149.03650793650795	77	127
149.03650793650795	149.16421768707482	74	127
149.16421768707482	149.52412698412698	62	127
149.16421768707482	149.52412698412698	55	127
149.16421768707482	149.52412698412698	65	127
149.38480725623583	149.61700680272108	77	127
149.61700680272108	149.73310657596372	74	127
149.73310657596372	149.8956462585034	71	127
149.8956462585034	150.18589569160997	52	127
149.8956462585034	150.18589569160997	67	127
149.8956462585034	150.18589569160997	60	127
150.0697732426304	150.18589569160997	72	127
150.27875283446713	150.32519274376418	74	127
150.3368253968254	150.3716553287982	72	127
150.38326530612244	150.52258503401362	76	127
150.56902494331067	150.85927437641723	72	127
150.56902494331067	150.85927437641723	64	127
150.56902494331067	150.85927437641723	48	127
150.75478458049886	150.90571428571428	79	127
150.95215419501133	150.99859410430838	81	127
151.01020408163265	151.0566439909297	79	127
151.06825396825397	151.11469387755102	79	127
151.1263038548753	151.24240362811793	84	127
151.28884353741498	151.5907029478458	65	127
151.28884353741498	151.5907029478458	74	127
151.28884353741498	151.5907029478458	53	127
151.47460317460317	151.6255328798186	81	127
151.6255328798186	151.79968253968255	77	127
151.79968253968255	151.97383219954648	74	127
151.97383219954648	152.29891156462585	65	127
151.97383219954648	152.29891156462585	55	127
151.97383219954648	152.29891156462585	62	127
152.19442176870749	152.36857142857144	77	127
152.36857142857144	152.54272108843537	74	127
152.54272108843537	152.68201814058958	71	127
152.68201814058958	153.03034013605443	60	127
152.68201814058958	153.03034013605443	64	127
152.68201814058958	152.89102040816326	72	127
152.68201814058958	154.12167800453514	48	127
152.89102040816326	153.07678004535148	67	127
153.12321995464853	153.51795918367347	52	127
153.12321995464853	153.6688888888889	67	127
153.12321995464853	153.85462585034014	64	127
153.58761904761906	153.93591836734694	55	127
153.80820861678004	154.01718820861677	68	127
154.01718820861677	154.28421768707483	59	127
154.01718820861677	154.2261678004535	69	127
154.01718820861677	154.2261678004535	65	127
154.2261678004535	154.28421768707483	62	127
154.2261678004535	154.28421768707483	65	127
154.28421768707483	154.85310657596372	62	127
154.28421768707483	154.85310657596372	59	127
154.28421768707483	154.85310657596372	65	127
154.28421768707483	154.98079365079366	36	127
154.85310657596372	155.16657596371883	60	127
154.85310657596372	155.16657596371883	60	127
154.85310657596372	155.16657596371883	64	127
155.0272335600907	155.25945578231293	36	127
155.25945578231293	155.37555555555556	38	127
155.37555555555556	155.56131519274376	40	127
155.56131519274376	156.35079365079366	43	127
155.56131519274376	156.47850340136054	55	127
156.35079365079366	156.8384126984127	41	127
156.53655328798186	156.62943310657596	55	127
156.62943310657596	156.80358276643992	57	127
156.80358276643992	157.02414965986395	59	127
157.02414965986395	157.91814058956916	67	127
157.02414965986395	157.20993197278912	40	127
157.02414965986395	157.43049886621316	62	127
157.25637188208617	157.3840589569161	52	127
157.43049886621316	157.53498866213152	52	127
157.43049886621316	157.44213151927437	62	127
157.45374149659864	157.4653514739229	60	127
157.4653514739229	157.48857142857142	62	127
157.48857142857142	157.5001814058957	60	127
157.51179138321996	157.53498866213152	62	127
157.53498866213152	157.558231292517	60	127
157.558231292517	157.7439909297052	52	127
157.558231292517	157.5930612244898	62	127
157.60467120181406	157.6278911564626	60	127
157.6394784580499	157.67433106575965	62	127
157.67433106575965	157.7207709750567	60	127
157.73238095238096	157.76721088435374	59	127
157.76721088435374	158.10390022675736	60	127
157.76721088435374	157.92975056689343	52	127
157.9645804988662	158.17356009070295	67	127
157.9645804988662	158.13873015873017	52	127
158.17356009070295	158.3825396825397	69	127
158.17356009070295	158.49863945578232	65	127
158.17356009070295	158.33609977324264	50	127
158.3825396825397	158.5334693877551	50	127
158.3825396825397	158.55666666666667	71	127
158.55666666666667	158.89337868480726	74	127
158.55666666666667	159.33455782312924	76	127
158.55666666666667	158.68439909297052	48	127
158.55666666666667	158.92820861678004	64	127
158.68439909297052	158.8469387755102	48	127
158.89337868480726	159.4390476190476	72	127
158.89337868480726	159.02108843537414	48	127
159.02108843537414	159.1719954648526	62	127
159.02108843537414	159.1719954648526	47	127
159.1952380952381	159.6944671201814	60	127
159.1952380952381	159.35777777777778	45	127
159.40421768707483	159.6015873015873	76	127
159.40421768707483	159.55514739229025	45	127
159.6015873015873	159.92666666666668	72	127
159.6015873015873	159.78732426303856	77	127
159.6015873015873	159.75251700680272	57	127
159.78732426303856	160.01954648526078	79	127
159.78732426303856	159.97310657596373	55	127
159.78732426303856	159.97310657596373	59	127
160.01954648526078	160.55358276643992	57	127
160.01954648526078	160.46072562358276	72	127
160.01954648526078	160.3562358276644	83	127
160.01954648526078	160.1704761904762	53	127
160.19367346938776	160.3214058956916	53	127
160.3562358276644	160.7625850340136	81	127
160.3562358276644	160.51877551020408	53	127
160.46072562358276	160.51877551020408	71	127
160.51877551020408	160.6697052154195	52	127
160.51877551020408	160.62326530612245	69	127
160.62326530612245	160.69292517006804	67	127
160.69292517006804	160.7625850340136	50	127
160.69292517006804	160.7625850340136	57	127
160.69292517006804	160.7625850340136	66	127
160.7974149659864	160.99478458049887	81	127
160.7974149659864	160.99478458049887	66	127
160.7974149659864	160.94834467120182	50	127
160.7974149659864	160.94834467120182	50	127
160.99478458049887	161.18054421768707	50	127
160.99478458049887	161.2037641723356	67	127
160.99478458049887	161.2037641723356	83	127
160.99478458049887	162.00485260770975	62	127
161.2037641723356	161.34308390022676	69	127
161.2037641723356	161.34308390022676	84	127
161.2037641723356	161.2966439909297	48	127
161.34308390022676	161.66816326530613	71	127
161.34308390022676	161.5520634920635	86	127
161.34308390022676	161.5520634920635	47	127
161.5520634920635	161.70299319727891	83	127
161.5520634920635	161.74943310657596	50	127
161.74943310657596	161.97002267573697	55	127
161.74943310657596	162.2718820861678	79	127
161.74943310657596	161.92358276643992	74	127
161.97002267573697	162.13256235827666	71	127
161.97002267573697	162.1790022675737	59	127
162.1790022675737	162.3647619047619	67	127
162.1790022675737	162.3647619047619	62	127
162.1790022675737	162.3647619047619	62	127
162.41120181405896	162.4344217687075	60	127
162.41120181405896	162.4344217687075	81	127
162.41120181405896	162.4344217687075	62	127
162.41120181405896	162.4344217687075	66	127
162.46925170068027	163.0265306122449	74	127
162.46925170068027	162.53891156462586	83	127
162.46925170068027	162.53891156462586	67	127
162.46925170068027	162.53891156462586	59	127
162.64340136054423	162.70142857142858	57	127
162.64340136054423	162.70142857142858	84	127
162.64340136054423	162.70142857142858	69	127
162.8407709750567	162.96848072562358	55	127
162.8407709750567	162.94526077097507	71	127
162.8407709750567	162.89882086167802	86	127
162.89882086167802	162.96848072562358	83	127
162.96848072562358	163.06136054421768	67	127
162.96848072562358	163.0265306122449	86	127
162.96848072562358	163.10777777777778	47	127
163.0265306122449	163.10777777777778	83	127
163.10777777777778	163.20068027210885	74	127
163.10777777777778	163.5257596371882	79	127
163.10777777777778	163.31678004535146	50	127
163.10777777777778	163.5257596371882	62	127
163.20068027210885	163.31678004535146	71	127
163.31678004535146	163.42126984126983	74	127
163.31678004535146	163.44448979591837	55	127
163.42126984126983	163.44448979591837	71	127
163.44448979591837	163.61861678004536	59	127
163.44448979591837	163.61861678004536	67	127
163.6534693877551	163.71151927437643	66	127
163.6534693877551	163.82761904761904	62	127
163.6534693877551	163.71151927437643	81	127
163.6534693877551	163.71151927437643	60	127
163.86244897959185	164.26879818594105	74	127
164.02496598639456	164.04820861678004	57	127
164.02496598639456	164.04820861678004	84	127
164.02496598639456	164.04820861678004	69	127
164.0946485260771	164.21074829931973	86	127
164.0946485260771	164.44294784580498	55	127
164.0946485260771	164.26879818594105	71	127
164.21074829931973	164.3152380952381	83	127
164.3152380952381	164.41972789115647	86	127
164.41972789115647	164.52421768707484	83	127
164.52421768707484	164.6402947845805	74	127
164.52421768707484	164.6402947845805	71	127
164.52421768707484	164.70997732426304	79	127
164.6402947845805	164.73319727891158	69	127
164.6402947845805	164.73319727891158	72	127
164.73319727891158	164.83768707482994	71	127
164.73319727891158	164.83768707482994	74	127
164.83768707482994	164.9421768707483	72	127
164.83768707482994	164.9421768707483	69	127
164.9421768707483	164.96539682539682	83	127
164.9421768707483	165.01183673469387	67	127
164.9421768707483	165.01183673469387	71	127
164.96539682539682	165.0350566893424	79	127
165.0350566893424	165.05827664399092	83	127
165.05827664399092	165.10471655328797	79	127
165.10471655328797	165.27886621315193	76	127
165.10471655328797	165.2208163265306	67	127
165.10471655328797	165.2208163265306	71	127
165.2208163265306	165.32530612244898	69	127
165.2208163265306	165.32530612244898	66	127
165.32530612244898	165.41818594104308	67	127
165.32530612244898	165.41818594104308	71	127
165.41818594104308	165.53428571428572	66	127
165.41818594104308	165.53428571428572	69	127
165.53428571428572	165.68521541950113	64	127
165.53428571428572	165.63877551020408	79	127
165.53428571428572	165.68521541950113	67	127
165.63877551020408	165.73165532879818	76	127
165.73165532879818	165.84775510204082	79	127
165.84775510204082	165.87097505668933	76	127
165.87097505668933	165.98707482993197	64	127
165.87097505668933	165.98707482993197	67	127
165.87097505668933	166.46308390022676	71	127
165.98707482993197	166.1031746031746	63	127
165.98707482993197	166.1031746031746	66	127
166.1031746031746	166.16122448979593	67	127
166.1031746031746	166.16122448979593	64	127
166.16122448979593	166.20766439909298	66	127
166.16122448979593	166.20766439909298	63	127
166.20766439909298	166.8578231292517	57	127
166.20766439909298	166.8578231292517	67	127
166.20766439909298	166.8578231292517	64	127
166.63721088435375	166.695283446712	74	127
166.71850340136055	166.75333333333333	73	127
166.7649433106576	166.81138321995465	74	127
166.81138321995465	166.86943310657597	73	127
166.88104308390024	166.9507029478458	71	127
166.96231292517007	167.0203628117914	73	127
167.04356009070295	167.29897959183674	50	127
167.04356009070295	167.10163265306122	74	127
167.04356009070295	167.19448979591837	62	127
167.04356009070295	167.19448979591837	66	127
167.10163265306122	167.19448979591837	76	127
167.19448979591837	167.27578231292517	78	127
167.19448979591837	167.34544217687076	62	127
167.19448979591837	167.34544217687076	57	127
167.27578231292517	167.3918820861678	79	127
167.3918820861678	167.4267120181406	62	127
167.3918820861678	167.53120181405896	81	127
167.3918820861678	167.4267120181406	66	127
167.577641723356	167.6473015873016	66	127
167.577641723356	167.6473015873016	62	127
167.78662131519275	167.8098185941043	73	127
167.78662131519275	168.04204081632653	50	127
167.8098185941043	167.9259410430839	74	127
167.9259410430839	168.018820861678	76	127
167.9259410430839	168.08848072562358	67	127
167.9259410430839	168.08848072562358	61	127
168.018820861678	168.13492063492063	78	127
168.13492063492063	168.3090702947846	61	127
168.13492063492063	168.3090702947846	64	127
168.13492063492063	168.3090702947846	79	127
168.3206575963719	168.4019501133787	76	127
168.3206575963719	168.4019501133787	67	127
168.3206575963719	168.4019501133787	61	127
168.44839002267574	168.6457596371882	66	127
168.44839002267574	168.54126984126984	74	127
168.44839002267574	168.7734693877551	50	127
168.44839002267574	168.6457596371882	62	127
168.54126984126984	168.6457596371882	76	127
168.6457596371882	168.81990929705216	57	127
168.6457596371882	168.81990929705216	62	127
168.6457596371882	168.75024943310657	78	127
168.75024943310657	168.8663492063492	79	127
168.8663492063492	168.92439909297053	62	127
168.8663492063492	168.98242630385488	81	127
168.8663492063492	168.92439909297053	66	127
168.98242630385488	169.04049886621314	66	127
168.98242630385488	169.04049886621314	62	127
169.16820861678005	169.45845804988662	50	127
169.16820861678005	169.22625850340137	73	127
169.22625850340137	169.34233560090703	74	127
169.34233560090703	169.49328798185942	67	127
169.34233560090703	169.49328798185942	61	127
169.34233560090703	169.4352380952381	76	127
169.4352380952381	169.53972789115647	78	127
169.53972789115647	169.6209977324263	64	127
169.53972789115647	169.63260770975057	79	127
169.53972789115647	169.66743764172335	61	127
169.63260770975057	169.6906575963719	67	127
169.63260770975057	169.7022448979592	76	127
169.7022448979592	169.77192743764172	79	127
169.7022448979592	169.81836734693877	61	127
169.7022448979592	169.77192743764172	64	127
169.77192743764172	169.86480725623582	76	127
169.77192743764172	169.8415873015873	67	127
169.86480725623582	169.9344671201814	50	127
169.86480725623582	170.03895691609978	74	127
169.86480725623582	169.98090702947846	66	127
169.86480725623582	169.9344671201814	62	127
169.98090702947846	170.08539682539683	69	127
170.08539682539683	170.15505668934242	61	127
170.08539682539683	170.20149659863947	67	127
170.08539682539683	170.15505668934242	45	127
170.08539682539683	170.20149659863947	78	127
170.20149659863947	170.30598639455783	69	127
170.20149659863947	170.30598639455783	76	127
170.30598639455783	170.36401360544218	62	127
170.30598639455783	170.4104761904762	66	127
170.30598639455783	170.36401360544218	50	127
170.30598639455783	170.42208616780044	74	127
170.4104761904762	170.45691609977325	69	127
170.45691609977325	170.48013605442176	45	127
170.45691609977325	170.49174603174603	67	127
170.45691609977325	170.49174603174603	78	127
170.45691609977325	170.48013605442176	61	127
170.49174603174603	170.5962358276644	76	127
170.49174603174603	170.5962358276644	69	127
170.5962358276644	170.9445351473923	74	127
170.5962358276644	170.9445351473923	66	127
170.5962358276644	170.9445351473923	50	127
170.5962358276644	170.9445351473923	62	127
171.38569160997733	171.4785941043084	55	127
171.38569160997733	171.4785941043084	62	127
171.4901814058957	172.01265306122448	62	127
171.4901814058957	171.72240362811792	59	127
171.4901814058957	171.67596371882087	43	127
171.4901814058957	172.01265306122448	55	127
171.4901814058957	172.01265306122448	79	127
171.4901814058957	172.01265306122448	71	127
171.4901814058957	171.72240362811792	62	127
171.72240362811792	171.8965306122449	55	127
171.72240362811792	171.8965306122449	59	127
171.72240362811792	171.8965306122449	43	127
171.94299319727892	172.00102040816327	62	127
171.94299319727892	172.09392290249434	43	127
171.94299319727892	172.00102040816327	59	127
172.11714285714285	172.18680272108844	62	127
172.11714285714285	172.24485260770976	43	127
172.11714285714285	172.18680272108844	59	127
172.11714285714285	172.18680272108844	83	127
172.18680272108844	172.26807256235827	81	127
172.26807256235827	172.30290249433108	79	127
172.26807256235827	172.6163492063492	62	127
172.26807256235827	172.6163492063492	59	127
172.26807256235827	172.6163492063492	43	127
172.3841723356009	172.4190022675737	78	127
172.48866213151928	172.52349206349206	76	127
172.59315192743765	172.62798185941043	74	127
172.70925170068028	172.74408163265306	72	127
172.80213151927438	172.81374149659865	71	127
172.8834013605442	172.89501133786848	69	127
172.96467120181407	172.9762811791383	67	127
173.05755102040817	173.78895691609978	57	127
173.05755102040817	173.78895691609978	62	127
173.05755102040817	173.78895691609978	60	127
173.05755102040817	173.09238095238095	66	127
173.09238095238095	173.15043083900227	69	127
173.15043083900227	173.24331065759637	67	127
173.24331065759637	173.28975056689342	71	127
173.28975056689342	173.32458049886623	69	127
173.32458049886623	173.40585034013606	72	127
173.40585034013606	173.49873015873015	71	127
173.49873015873015	173.6148299319728	74	127
173.6148299319728	173.97473922902495	72	127
173.6148299319728	173.73092970521543	66	127
173.73092970521543	173.8354195011338	69	127
173.8354195011338	173.9515192743764	67	127
173.9515192743764	174.06761904761905	71	127
174.06761904761905	174.16049886621315	69	127
174.16049886621315	174.23015873015873	72	127
174.23015873015873	174.32303854875283	71	127
174.32303854875283	174.4275283446712	74	127
174.4275283446712	174.4971882086168	50	127
174.4275283446712	174.54362811791384	81	127
174.4275283446712	174.63650793650794	72	127
174.4275283446712	174.6132879818594	66	127
174.54362811791384	174.63650793650794	80	127
174.63650793650794	174.78743764172336	69	127
174.63650793650794	174.69455782312926	50	127
174.63650793650794	174.6597052154195	84	127
174.63650793650794	174.96158730158731	66	127
174.72938775510204	174.76419501133788	83	127
174.8338775510204	174.93836734693878	81	127
174.8338775510204	174.9964172335601	72	127
174.8338775510204	174.89192743764173	50	127
174.93836734693878	174.9964172335601	80	127
174.9964172335601	175.15895691609978	69	127
174.9964172335601	175.01961451247166	84	127
174.9964172335601	175.15895691609978	66	127
174.9964172335601	175.04285714285714	50	127
175.0892970521542	175.12412698412697	83	127
175.19378684807256	175.2170068027211	81	127
175.19378684807256	175.4956462585034	66	127
175.19378684807256	175.79750566893424	50	127
175.19378684807256	175.4956462585034	76	127
175.29827664399093	175.3331065759637	79	127
175.41437641723357	175.42596371882087	78	127
175.4724263038549	175.50725623582767	76	127
175.5885260770975	175.6233560090703	74	127
175.70462585034014	175.72784580498868	72	127
175.79750566893424	175.83231292517007	71	127
175.79750566893424	175.9716553287982	66	127
175.79750566893424	175.9716553287982	62	127
175.79750566893424	175.9716553287982	48	127
175.9019954648526	175.93680272108844	69	127
175.9716553287982	176.22707482993198	67	127
175.9716553287982	176.22707482993198	47	127
175.9716553287982	175.98326530612246	67	127
175.9716553287982	176.22707482993198	62	127
175.98326530612246	176.08775510204083	71	127
176.08775510204083	176.20385487528344	69	127
176.20385487528344	176.31995464852608	72	127
176.31995464852608	176.41283446712018	71	127
176.41283446712018	176.51732426303855	74	127
176.51732426303855	176.62181405895691	72	127
176.62181405895691	176.67986394557823	76	127
176.67986394557823	176.9468934240363	74	127
176.67986394557823	176.76113378684806	55	127
176.76113378684806	176.83079365079365	59	127
176.83079365079365	176.92367346938775	57	127
176.92367346938775	177.0397732426304	60	127
177.0397732426304	177.15587301587303	59	127
177.15587301587303	177.27197278911564	62	127
177.27197278911564	177.376462585034	60	127
177.376462585034	177.46931972789116	64	127
177.46931972789116	177.48095238095237	71	127
177.46931972789116	177.71315192743765	62	127
177.48095238095237	177.597052154195	74	127
177.597052154195	177.70154195011338	72	127
177.70154195011338	177.7828117913832	76	127
177.7828117913832	177.87569160997734	74	127
177.87569160997734	177.96857142857144	77	127
177.96857142857144	178.06145124716554	76	127
178.06145124716554	178.15433106575964	79	127
178.15433106575964	178.4909977324263	77	127
178.15433106575964	178.258820861678	74	127
178.258820861678	178.36331065759637	76	127
178.36331065759637	178.46780045351474	77	127
178.46780045351474	178.56068027210884	76	127
178.56068027210884	178.6419501133787	74	127
178.56068027210884	178.79287981859412	77	127
178.6419501133787	178.69997732426305	72	127
178.69997732426305	178.76965986394558	71	127
178.76965986394558	178.87414965986395	69	127
178.87414965986395	179.03668934240363	77	127
178.87414965986395	179.74489795918367	68	127
178.87414965986395	178.97863945578231	52	127
178.87414965986395	179.74489795918367	62	127
178.97863945578231	179.03668934240363	56	127
179.03668934240363	179.19922902494332	76	127
179.03668934240363	179.12956916099773	54	127
179.12956916099773	179.24566893424037	57	127
179.24566893424037	179.75650793650794	76	127
179.24566893424037	179.29210884353742	56	127
179.29210884353742	179.36174603174604	59	127
179.36174603174604	179.47786848072562	57	127
179.47786848072562	179.55913832199548	60	127
179.55913832199548	179.91904761904763	59	127
179.79133786848072	179.9538775510204	76	127
179.97707482993198	180.3718367346939	74	127
179.97707482993198	180.1280045351474	76	127
179.97707482993198	180.3718367346939	68	127
180.17446712018142	180.32539682539684	76	127
180.3718367346939	181.23097505668935	69	127
180.3718367346939	181.23097505668935	72	127
180.3718367346939	180.46471655328799	45	127
180.3718367346939	180.66208616780045	76	127
180.46471655328799	180.55759637188208	48	127
180.55759637188208	180.66208616780045	47	127
180.66208616780045	180.75496598639455	50	127
180.75496598639455	180.81301587301587	48	127
180.75496598639455	181.1845351473923	81	127
180.81301587301587	180.89426303854876	52	127
180.89426303854876	180.98716553287983	50	127
180.98716553287983	181.1032426303855	53	127
181.1032426303855	181.3702947845805	52	127
181.24258503401362	181.41673469387754	81	127
181.4631746031746	181.60249433106577	83	127
181.4631746031746	181.71859410430838	64	127
181.4631746031746	181.71859410430838	60	127
181.63732426303855	181.7650113378685	84	127
181.79986394557824	182.00884353741498	84	127
181.79986394557824	182.76349206349207	60	127
181.79986394557824	182.76349206349207	66	127
181.79986394557824	181.9043537414966	50	127
181.9043537414966	182.00884353741498	54	127
182.00884353741498	182.19460317460317	74	127
182.00884353741498	182.12492063492064	52	127
182.12492063492064	182.2178231292517	55	127
182.2178231292517	182.67061224489797	74	127
182.2178231292517	182.2526530612245	54	127
182.2526530612245	182.35714285714286	57	127
182.35714285714286	182.46163265306123	55	127
182.46163265306123	182.57773242630387	59	127
182.57773242630387	182.90281179138321	57	127
182.80993197278912	182.90281179138321	74	127
182.90281179138321	183.18145124716554	69	127
182.90281179138321	183.18145124716554	66	127
182.90281179138321	183.0653514739229	74	127
183.10018140589568	183.2278911564626	74	127
183.27433106575964	183.36721088435374	43	127
183.27433106575964	183.46009070294784	74	127
183.27433106575964	184.06378684807257	71	127
183.27433106575964	184.06378684807257	67	127
183.36721088435374	183.46009070294784	47	127
183.46009070294784	183.57619047619048	45	127
183.46009070294784	183.64585034013606	79	127
183.57619047619048	183.6922902494331	48	127
183.6922902494331	183.98253968253968	79	127
183.6922902494331	183.79678004535148	47	127
183.79678004535148	183.88965986394558	50	127
183.88965986394558	183.93609977324263	48	127
183.93609977324263	183.95931972789117	52	127
183.95931972789117	184.19151927437642	50	127
184.07541950113378	184.23795918367347	79	127
184.28439909297052	184.59786848072562	66	127
184.28439909297052	184.59786848072562	69	127
184.28439909297052	184.4469387755102	81	127
184.49337868480725	184.64430839002267	83	127
184.65591836734694	184.87650793650795	83	127
184.65591836734694	184.7604081632653	52	127
184.65591836734694	184.83004535147393	67	127
184.65591836734694	184.83004535147393	64	127
184.7604081632653	184.87650793650795	55	127
184.87650793650795	185.00421768707483	72	127
184.87650793650795	184.9345351473923	54	127
184.9345351473923	185.03902494331066	57	127
185.03902494331066	185.2364172335601	67	127
185.03902494331066	185.2364172335601	64	127
185.03902494331066	185.22480725623583	55	127
185.2364172335601	185.30607709750566	67	127
185.2364172335601	185.30607709750566	71	127
185.2364172335601	185.30607709750566	72	127
185.31768707482993	185.53827664399094	72	127
185.31768707482993	185.43378684807257	54	127
185.43378684807257	185.53827664399094	57	127
185.53827664399094	185.6775963718821	81	127
185.53827664399094	185.65437641723355	55	127
185.65437641723355	185.70079365079366	59	127
185.70079365079366	185.87496598639456	69	127
185.70079365079366	185.8285260770975	57	127
185.70079365079366	185.87496598639456	72	127
185.87496598639456	186.03750566893424	66	127
185.87496598639456	186.03750566893424	69	127
185.87496598639456	186.03750566893424	81	127
186.0839455782313	186.25809523809525	81	127
186.0839455782313	186.1419954648526	51	127
186.1419954648526	186.25809523809525	54	127
186.25809523809525	186.37419501133786	52	127
186.25809523809525	186.44385487528345	71	127
186.37419501133786	186.47868480725623	55	127
186.47868480725623	186.5831746031746	54	127
186.47868480725623	186.62961451247165	63	127
186.47868480725623	186.62961451247165	66	127
186.62961451247165	186.76893424036282	71	127
186.62961451247165	186.76893424036282	69	127
186.62961451247165	186.76893424036282	66	127
186.8037641723356	186.91986394557824	52	127
186.8037641723356	187.0243537414966	71	127
186.91986394557824	187.0243537414966	55	127
187.0243537414966	187.19850340136054	79	127
187.0243537414966	187.12884353741498	54	127
187.12884353741498	187.2449433106576	57	127
187.2449433106576	187.36104308390023	55	127
187.2449433106576	187.395873015873	67	127
187.2449433106576	187.395873015873	71	127
187.395873015873	187.53519274376418	79	127
187.395873015873	187.53519274376418	64	127
187.395873015873	187.53519274376418	67	127
187.58163265306123	187.82544217687075	48	127
187.58163265306123	187.66290249433106	76	127
187.66290249433106	187.6977097505669	75	127
187.6977097505669	187.8022222222222	78	127
187.8022222222222	187.89510204081634	76	127
187.89510204081634	188.04603174603176	79	127
187.89510204081634	187.98798185941044	69	127
187.89510204081634	187.98798185941044	60	127
187.98798185941044	188.0924716553288	68	127
187.98798185941044	188.0924716553288	59	127
188.0924716553288	188.20854875283447	62	127
188.0924716553288	188.20854875283447	71	127
188.20854875283447	188.28984126984128	69	127
188.20854875283447	188.28984126984128	60	127
188.28984126984128	188.3594784580499	72	127
188.28984126984128	188.42916099773242	64	127
188.28984126984128	188.42916099773242	72	127
188.28984126984128	188.55687074829933	48	127
188.3594784580499	188.47560090702947	71	127
188.47560090702947	188.55687074829933	74	127
188.55687074829933	188.6265306122449	72	127
188.6265306122449	188.71938775510205	60	127
188.6265306122449	188.78907029478458	76	127
188.6265306122449	188.71938775510205	57	127
188.71938775510205	188.83551020408163	56	127
188.71938775510205	188.83551020408163	59	127
188.83551020408163	188.92839002267573	59	127
188.83551020408163	188.92839002267573	60	127
188.92839002267573	188.97480725623583	59	127
188.92839002267573	188.97480725623583	57	127
188.97480725623583	189.90362811791383	60	127
188.97480725623583	189.0677097505669	69	127
188.97480725623583	189.90362811791383	64	127
188.97480725623583	189.90362811791383	48	127
189.0677097505669	189.160589569161	68	127
189.160589569161	189.2534693877551	71	127
189.2534693877551	189.33473922902493	69	127
189.33473922902493	189.45083900226757	72	127
189.45083900226757	189.5669387755102	71	127
189.5669387755102	189.67142857142858	74	127
189.67142857142858	189.7526984126984	72	127
189.7526984126984	189.85718820861678	76	127
189.85718820861678	189.93845804988663	74	127
189.93845804988663	190.03133786848073	78	127
189.93845804988663	190.27514739229025	62	127
189.93845804988663	190.1358276643991	60	127
189.93845804988663	190.1358276643991	69	127
190.03133786848073	190.1358276643991	76	127
190.1358276643991	190.27514739229025	67	127
190.1358276643991	190.27514739229025	59	127
190.1358276643991	190.24031746031747	79	127
190.24031746031747	190.27514739229025	78	127
190.27514739229025	190.36802721088435	81	127
190.27514739229025	190.42607709750567	66	127
190.27514739229025	190.42607709750567	60	127
190.27514739229025	190.42607709750567	57	127
190.36802721088435	190.40285714285713	79	127
190.42607709750567	191.30843537414967	67	127
190.42607709750567	190.47251700680272	83	127
190.42607709750567	190.77437641723355	59	127
190.42607709750567	190.71632653061224	55	127
190.47251700680272	190.5770068027211	81	127
190.5770068027211	190.69310657596372	79	127
190.69310657596372	190.77437641723355	78	127
190.77437641723355	190.87886621315192	81	127
190.77437641723355	191.06462585034015	47	127
190.77437641723355	190.93691609977324	62	127
190.87886621315192	190.9833560090703	79	127
190.9833560090703	191.08784580498866	55	127
190.9833560090703	191.06462585034015	78	127
191.06462585034015	191.09945578231293	76	127
191.12267573696144	191.23877551020408	75	127
191.12267573696144	191.7960544217687	57	127
191.12267573696144	191.47097505668935	48	127
191.23877551020408	191.35487528344672	76	127
191.35487528344672	191.47097505668935	74	127
191.47097505668935	191.56385487528345	72	127
191.56385487528345	192.06308390022676	67	127
191.56385487528345	191.84249433106575	52	127
191.56385487528345	191.66834467120182	71	127
191.66834467120182	191.7728344671202	69	127
191.7728344671202	191.81927437641724	71	127
191.81927437641724	191.91215419501134	72	127
191.93537414965985	192.06308390022676	59	127
191.93537414965985	192.06308390022676	50	127
191.93537414965985	192.0166439909297	74	127
192.0166439909297	192.09791383219954	72	127
192.09791383219954	192.21401360544218	71	127
192.09791383219954	192.28367346938776	59	127
192.09791383219954	192.28367346938776	67	127
192.09791383219954	192.28367346938776	50	127
192.21401360544218	192.3301133786848	72	127
192.3301133786848	192.43460317460318	74	127
192.3301133786848	192.4926530612245	50	127
192.3301133786848	192.4926530612245	67	127
192.3301133786848	192.4926530612245	59	127
192.43460317460318	192.53909297052155	76	127
192.53909297052155	192.71324263038548	59	127
192.53909297052155	192.71324263038548	67	127
192.53909297052155	192.71324263038548	50	127
192.53909297052155	192.65519274376416	78	127
192.65519274376416	192.73646258503402	79	127
192.73646258503402	192.85256235827666	66	127
192.73646258503402	192.85256235827666	50	127
192.73646258503402	192.85256235827666	60	127
192.73646258503402	192.75968253968253	71	127
192.75968253968253	192.80612244897958	69	127
192.82934240362812	192.8641723356009	71	127
192.8641723356009	193.02671201814059	60	127
192.8641723356009	192.92222222222222	69	127
192.8641723356009	193.02671201814059	50	127
192.8641723356009	193.02671201814059	66	127
192.9338321995465	192.98027210884354	71	127
193.00349206349208	193.06154195011337	69	127
193.07315192743764	193.13120181405895	71	127
193.07315192743764	193.2473015873016	50	127
193.07315192743764	193.2473015873016	66	127
193.07315192743764	193.2473015873016	60	127
193.14281179138322	193.20086167800454	69	127
193.22408163265305	193.2705215419501	71	127
193.28213151927437	193.44467120181406	66	127
193.28213151927437	193.31696145124715	69	127
193.28213151927437	193.44467120181406	60	127
193.28213151927437	193.44467120181406	50	127
193.3401814058957	193.398231292517	67	127
193.40984126984128	193.47950113378684	69	127
193.4911111111111	193.839410430839	59	127
193.4911111111111	193.839410430839	43	127
193.4911111111111	193.839410430839	67	127
193.92068027210885	194.25736961451247	55	127
194.35024943310657	194.4663492063492	59	127
194.35024943310657	194.4663492063492	74	127
194.75659863945577	194.89591836734695	74	127
194.75659863945577	194.89591836734695	59	127
195.18616780045352	195.5344671201814	67	127
195.18616780045352	195.74344671201814	73	127
195.18616780045352	195.74344671201814	58	127
195.18616780045352	195.5344671201814	43	127
195.6273469387755	195.9408163265306	67	127
195.6273469387755	195.9408163265306	55	127
195.77827664399092	195.8827664399093	74	127
195.77827664399092	195.8827664399093	59	127
195.90598639455783	195.9175963718821	71	127
195.90598639455783	195.9175963718821	55	127
196.0336961451247	196.14979591836735	73	127
196.0336961451247	196.39360544217686	50	127
196.0336961451247	196.14979591836735	58	127
196.0336961451247	196.70707482993197	67	127
196.18462585034013	196.30072562358276	59	127
196.18462585034013	196.30072562358276	74	127
196.33555555555554	196.3819954648526	55	127
196.33555555555554	196.3819954648526	71	127
196.46326530612245	196.79995464852607	47	127
196.46326530612245	196.5793650793651	73	127
196.46326530612245	196.5793650793651	58	127
196.61419501133787	196.70707482993197	74	127
196.61419501133787	196.70707482993197	59	127
196.74190476190475	196.78834467120183	71	127
196.74190476190475	196.78834467120183	55	127
196.8928344671202	197.1366439909297	74	127
196.8928344671202	197.21791383219954	43	127
196.8928344671202	197.21791383219954	67	127
196.8928344671202	197.1366439909297	59	127
197.20630385487527	197.28757369614513	71	127
197.20630385487527	197.28757369614513	55	127
197.31079365079364	197.58943310657597	74	127
197.31079365079364	197.58943310657597	59	127
197.68231292517007	197.85646258503402	63	127
197.85646258503402	198.08866213151927	64	127
197.85646258503402	198.32086167800455	79	127
198.08866213151927	198.32086167800455	61	127
198.32086167800455	198.54145124716553	62	127
198.32086167800455	198.75043083900226	78	127
198.54145124716553	198.75043083900226	59	127
198.75043083900226	198.97102040816327	60	127
198.75043083900226	199.1451700680272	76	127
198.97102040816327	199.1451700680272	58	127
199.1451700680272	199.37736961451247	74	127
199.1451700680272	199.37736961451247	59	127
199.1451700680272	199.37736961451247	56	127
199.1451700680272	199.37736961451247	65	127
199.37736961451247	199.59795918367348	57	127
199.37736961451247	199.59795918367348	64	127
199.37736961451247	199.59795918367348	61	127
199.37736961451247	199.59795918367348	73	127
199.59795918367348	199.81854875283446	63	127
199.59795918367348	199.81854875283446	69	127
199.59795918367348	199.81854875283446	54	127
199.59795918367348	199.81854875283446	72	127
199.81854875283446	200.01591836734693	67	127
199.81854875283446	200.01591836734693	71	127
199.81854875283446	200.01591836734693	55	127
199.81854875283446	200.01591836734693	62	127
200.01591836734693	200.21328798185942	76	127
200.01591836734693	200.21328798185942	67	127
200.01591836734693	200.21328798185942	57	127
200.01591836734693	200.21328798185942	49	127
200.21328798185942	200.9679365079365	50	127
200.21328798185942	200.9679365079365	62	127
200.21328798185942	200.66607709750568	67	127
200.21328798185942	200.66607709750568	59	127
200.66607709750568	200.9679365079365	66	127
200.66607709750568	200.9679365079365	57	127
201.1536961451247	201.28140589569162	74	127
201.1536961451247	201.28140589569162	59	127
201.59487528344673	201.73419501133787	59	127
201.59487528344673	201.73419501133787	74	127
202.02444444444444	202.15215419501135	79	127
202.02444444444444	202.61655328798187	58	127
202.02444444444444	202.61655328798187	73	127
202.4772335600907	202.6049433106576	79	127
202.61655328798187	202.73265306122448	74	127
202.61655328798187	202.73265306122448	59	127
202.74426303854875	202.7907029478458	55	127
202.74426303854875	202.7907029478458	71	127
202.87197278911566	203.0112925170068	73	127
202.87197278911566	203.49891156462584	79	127
202.87197278911566	203.0112925170068	58	127
203.0112925170068	203.12739229024945	74	127
203.0112925170068	203.12739229024945	59	127
203.16222222222223	203.20866213151928	55	127
203.16222222222223	203.20866213151928	71	127
203.31315192743764	203.42925170068028	58	127
203.31315192743764	203.42925170068028	73	127
203.42925170068028	203.5453514739229	74	127
203.42925170068028	203.5453514739229	59	127
203.49891156462584	203.68467120181407	83	127
203.5801814058957	203.62662131519275	55	127
203.5801814058957	203.62662131519275	71	127
203.73111111111112	203.9865306122449	59	127
203.73111111111112	203.9865306122449	74	127
203.73111111111112	203.858820861678	78	127
203.858820861678	203.90526077097505	81	127
204.02136054421769	204.06780045351474	79	127
204.05619047619047	204.1490702947846	71	127
204.05619047619047	204.1490702947846	55	127
204.1722902494331	204.50897959183675	74	127
204.1722902494331	204.50897959183675	59	127
204.1722902494331	204.21873015873015	77	127
204.31160997732425	204.3580498866213	76	127
204.43931972789116	204.4857596371882	74	127
204.60185941043085	204.6482993197279	72	127
204.741179138322	204.75278911564627	71	127
204.79922902494332	204.82244897959183	69	127
204.9269387755102	205.35650793650794	62	127
204.9269387755102	205.35650793650794	47	127
204.9269387755102	205.35650793650794	55	127
204.9269387755102	205.0778684807256	67	127
205.0778684807256	205.12430839002266	69	127
205.2171882086168	205.26362811791384	65	127
205.35650793650794	205.48421768707482	64	127
205.35650793650794	205.72802721088436	48	127
205.35650793650794	205.72802721088436	55	127
205.35650793650794	205.48421768707482	60	127
205.50743764172336	205.5538775510204	76	127
205.50743764172336	205.5538775510204	79	127
205.66997732426304	205.7164172335601	78	127
205.66997732426304	205.7164172335601	74	127
205.82090702947846	205.85573696145124	76	127
205.82090702947846	205.85573696145124	72	127
205.82090702947846	206.09954648526076	67	127
205.82090702947846	206.11115646258503	48	127
205.94861678004534	205.9950566893424	71	127
205.94861678004534	205.9950566893424	74	127
206.0531065759637	206.09954648526076	72	127
206.0531065759637	206.09954648526076	69	127
206.09954648526076	206.18081632653062	64	127
206.20403628117913	206.35496598639455	67	127
206.20403628117913	206.35496598639455	71	127
206.20403628117913	206.56394557823128	50	127
206.20403628117913	206.83097505668934	62	127
206.35496598639455	206.4014058956916	72	127
206.35496598639455	206.4014058956916	76	127
206.50589569160996	206.55233560090704	71	127
206.50589569160996	206.55233560090704	74	127
206.63360544217687	206.90063492063493	50	127
206.63360544217687	206.65682539682538	69	127
206.63360544217687	206.65682539682538	72	127
206.76131519274375	206.80775510204083	71	127
206.76131519274375	206.80775510204083	67	127
206.83097505668934	206.94707482993198	60	127
206.86580498866212	206.88902494331066	69	127
206.86580498866212	206.88902494331066	66	127
206.98190476190476	207.26054421768708	67	127
206.98190476190476	207.26054421768708	43	127
206.98190476190476	207.03995464852608	59	127
207.06317460317462	207.0980045351474	74	127
207.21410430839003	207.24893424036281	72	127
207.35342403628118	207.39986394557823	71	127
207.35342403628118	207.7597732426304	55	127
207.49274376417233	207.51596371882087	69	127
207.62045351473924	207.65528344671202	67	127
207.7597732426304	208.0732426303855	57	127
207.7597732426304	207.7829931972789	66	127
207.86426303854876	207.89909297052154	64	127
207.96875283446713	208.01519274376417	62	127
208.0732426303855	208.49120181405897	66	127
208.0732426303855	208.61891156462585	74	127
208.0732426303855	208.39832199546484	50	127
208.0732426303855	208.11968253968254	60	127
208.11968253968254	208.15451247165532	62	127
208.15451247165532	208.18934240362813	60	127
208.18934240362813	208.30544217687074	59	127
208.30544217687074	208.45637188208616	60	127
208.49120181405897	208.80467120181405	59	127
208.49120181405897	208.89755102040817	67	127
208.63052154195012	208.67696145124717	86	127
208.758231292517	208.7930612244898	84	127
208.89755102040817	209.22263038548752	62	127
208.89755102040817	209.30390022675738	55	127
208.89755102040817	208.94399092970522	83	127
209.0484807256236	209.0717006802721	81	127
209.15297052154196	209.199410430839	79	127
209.30390022675738	209.35034013605443	78	127
209.30390022675738	209.71024943310658	57	127
209.43160997732426	209.4780498866213	76	127
209.5709297052154	209.6057596371882	74	127
209.71024943310658	210.16303854875284	78	127
209.71024943310658	209.74507936507936	72	127
209.71024943310658	210.07015873015874	62	127
209.71024943310658	210.07015873015874	50	127
209.74507936507936	209.77990929705214	74	127
209.77990929705214	209.81473922902495	72	127
209.81473922902495	209.97727891156464	71	127
209.97727891156464	210.12820861678006	72	127
210.16303854875284	210.29074829931972	62	127
210.16303854875284	210.34879818594104	79	127
210.16303854875284	210.34879818594104	71	127
210.31396825396826	210.34879818594104	74	127
210.34879818594104	210.7667573696145	55	127
210.34879818594104	210.39523809523808	71	127
210.34879818594104	210.68548752834468	74	127
210.46489795918367	210.51133786848072	69	127
210.6158276643991	210.66226757369614	67	127
210.7667573696145	210.81319727891156	66	127
210.7667573696145	211.18471655328798	57	127
210.89446712018142	210.94090702947847	64	127
211.04539682539684	211.08022675736962	62	127
211.18471655328798	211.66072562358278	74	127
211.18471655328798	211.23115646258503	60	127
211.18471655328798	211.5214058956916	50	127
211.18471655328798	211.5214058956916	66	127
211.23115646258503	211.2659863945578	62	127
211.2659863945578	211.30081632653062	60	127
211.30081632653062	211.4285260770975	59	127
211.4285260770975	211.56784580498865	60	127
211.5910657596372	211.8348752834467	67	127
211.5910657596372	211.8348752834467	59	127
211.6839455782313	211.71877551020407	86	127
211.7768253968254	211.82326530612244	84	127
211.9277551020408	211.97419501133786	83	127
211.9277551020408	212.25283446712018	62	127
211.9277551020408	212.33410430839	55	127
212.0554648526077	212.10190476190476	81	127
212.19478458049886	212.2412244897959	79	127
212.33410430839	212.63596371882088	57	127
212.33410430839	212.3805442176871	78	127
212.45020408163265	212.4966439909297	76	127
212.54308390022675	212.5663038548753	74	127
212.63596371882088	212.9726530612245	62	127
212.63596371882088	212.9726530612245	50	127
212.63596371882088	212.9726530612245	78	127
212.63596371882088	212.67079365079366	72	127
212.67079365079366	212.70562358276644	74	127
212.70562358276644	212.72884353741497	72	127
212.72884353741497	212.8797732426304	71	127
212.8797732426304	213.0307029478458	72	127
213.0655328798186	213.1932426303855	62	127
213.0655328798186	213.3093424036281	74	127
213.0655328798186	213.3093424036281	79	127
213.1932426303855	213.22807256235828	74	127
213.27451247165533	213.29773242630387	72	127
213.41383219954648	213.73891156462585	74	127
213.41383219954648	213.46027210884353	71	127
213.41383219954648	213.84340136054422	55	127
213.5647619047619	213.61120181405894	69	127
213.6924716553288	213.7156916099773	67	127
213.84340136054422	213.95950113378686	66	127
213.84340136054422	214.24975056689343	57	127
213.99433106575964	214.0407709750567	64	127
214.12204081632652	214.14526077097506	62	127
214.24975056689343	214.56321995464853	50	127
214.24975056689343	214.56321995464853	78	127
214.24975056689343	214.29619047619047	60	127
214.3774603174603	214.42390022675738	59	127
214.52839002267575	214.55160997732426	57	127
214.5980498866213	214.78380952380954	47	127
214.5980498866213	214.71414965986395	79	127
214.5980498866213	214.78380952380954	55	127
214.5980498866213	214.78380952380954	74	127
214.71414965986395	214.74897959183673	78	127
214.8302494331066	214.86507936507937	83	127
214.8302494331066	214.9231292517007	47	127
214.8302494331066	214.9231292517007	62	127
214.8302494331066	214.9231292517007	55	127
214.9231292517007	214.95795918367347	81	127
215.03922902494332	215.0740589569161	79	127
215.03922902494332	215.2598185941043	62	127
215.03922902494332	215.2598185941043	47	127
215.03922902494332	215.2598185941043	55	127
215.15532879818593	215.19015873015874	78	127
215.2598185941043	215.28303854875284	76	127
215.36430839002267	215.37591836734694	74	127
215.43396825396826	215.46879818594104	72	127
215.53845804988663	215.5732879818594	71	127
215.65455782312924	215.68938775510205	69	127
215.7590476190476	215.78226757369615	67	127
215.8287074829932	215.9215873015873	66	127
215.9215873015873	215.94480725623583	67	127
216.00285714285715	216.03768707482993	69	127
216.0725170068027	216.10734693877552	67	127
216.17700680272108	216.33954648526077	67	127
216.17700680272108	216.33954648526077	48	127
216.17700680272108	216.28149659863945	76	127
216.17700680272108	216.33954648526077	72	127
216.28149659863945	216.31632653061226	74	127
216.38598639455782	216.46725623582768	60	127
216.38598639455782	216.46725623582768	52	127
216.38598639455782	216.46725623582768	48	127
216.38598639455782	216.40920634920636	79	127
216.46725623582768	216.50208616780046	78	127
216.5833560090703	216.7691156462585	52	127
216.5833560090703	216.60657596371883	76	127
216.5833560090703	216.7691156462585	48	127
216.5833560090703	216.7691156462585	60	127
216.68784580498865	216.7110657596372	74	127
216.7691156462585	216.8039455782313	72	127
216.88521541950112	216.92004535147393	71	127
216.9897052154195	217.00131519274376	69	127
217.05936507936508	217.08258503401362	67	127
217.16385487528345	217.18707482993196	66	127
217.24512471655328	217.26834467120182	64	127
217.32639455782314	217.41927437641723	63	127
217.41927437641723	217.51215419501133	64	127
217.51215419501133	217.5237641723356	66	127
217.5934240362812	217.62825396825397	64	127
217.7095238095238	217.88367346938776	69	127
217.7095238095238	217.88367346938776	50	127
217.7095238095238	217.81401360544217	72	127
217.7095238095238	217.88367346938776	66	127
217.81401360544217	217.9301133786848	71	127
217.9301133786848	217.9649433106576	76	127
217.9301133786848	218.04621315192745	50	127
217.9301133786848	218.04621315192745	57	127
217.9301133786848	218.04621315192745	54	127
218.04621315192745	218.08104308390023	74	127
218.15070294784582	218.17392290249433	72	127
218.15070294784582	218.35968253968255	54	127
218.15070294784582	218.35968253968255	57	127
218.15070294784582	218.35968253968255	50	127
218.2435827664399	218.2784126984127	71	127
218.35968253968255	218.3712925170068	69	127
218.45256235827665	218.48739229024943	67	127
218.55705215419502	218.5918820861678	66	127
218.62671201814058	218.6615419501134	64	127
218.7195918367347	218.7544217687075	62	127
218.83569160997732	218.85891156462586	60	127
218.9053514739229	219.02145124716554	59	127
219.02145124716554	219.07950113378683	60	127
219.07950113378683	219.11433106575964	62	127
219.17238095238096	219.20721088435374	60	127
219.27687074829933	219.3465306122449	59	127
219.27687074829933	219.46263038548753	50	127
219.27687074829933	219.46263038548753	43	127
219.27687074829933	219.46263038548753	55	127
219.35814058956916	219.45102040816326	60	127
219.46263038548753	219.55551020408163	62	127
219.57873015873017	219.67160997732427	64	127
219.69482993197278	219.7877097505669	66	127
219.81092970521541	219.8457596371882	67	127
219.85736961451246	219.93863945578232	69	127
219.96185941043083	220.03151927437642	71	127
220.03151927437642	220.0663492063492	72	127
220.07795918367347	220.1592290249433	74	127
220.17083900226757	220.26371882086167	76	127
220.2869387755102	220.36820861678004	78	127
220.36820861678004	220.46108843537414	79	127
220.48430839002268	220.5655782312925	81	127
220.58879818594104	220.64684807256236	83	127
220.64684807256236	220.71650793650792	84	127
220.7281179138322	220.84421768707483	55	127
220.7281179138322	221.41310657596372	59	127
220.7281179138322	221.41310657596372	86	127
220.7281179138322	220.91387755102042	41	127
220.84421768707483	220.96031746031747	67	127
220.96031746031747	221.1344671201814	53	127
220.96031746031747	221.07641723356008	66	127
221.07641723356008	221.18090702947845	67	127
221.18090702947845	221.29700680272109	69	127
221.18090702947845	221.36666666666667	53	127
221.29700680272109	221.40149659863945	67	127
221.40149659863945	221.43632653061223	66	127
221.40149659863945	221.50598639455782	53	127
221.43632653061223	221.55242630385487	67	127
221.55242630385487	221.73818594104307	53	127
221.55242630385487	222.27224489795918	62	127
221.55242630385487	222.27224489795918	59	127
221.55242630385487	221.6685260770975	55	127
221.6685260770975	221.7614058956916	67	127
221.7614058956916	221.9471655328798	53	127
221.7614058956916	221.87750566893425	66	127
221.87750566893425	222.00521541950113	67	127
222.00521541950113	222.1097052154195	69	127
222.00521541950113	222.17936507936508	53	127
222.1097052154195	222.22580498866213	67	127
222.22580498866213	222.31868480725623	66	127
222.22580498866213	222.37673469387755	53	127
222.31868480725623	222.4231746031746	67	127
222.4231746031746	223.10816326530613	55	127
222.4231746031746	222.5857142857143	40	127
222.4231746031746	222.5160544217687	55	127
222.4231746031746	223.10816326530613	60	127
222.5160544217687	222.62054421768707	67	127
222.62054421768707	222.78308390022676	52	127
222.62054421768707	222.71342403628117	66	127
222.71342403628117	222.8295238095238	67	127
222.8295238095238	223.015283446712	52	127
222.8295238095238	222.94562358276644	69	127
222.94562358276644	223.06172335600908	67	127
223.06172335600908	223.1778231292517	66	127
223.06172335600908	223.235873015873	52	127
223.1778231292517	223.28231292517006	67	127
223.28231292517006	223.76993197278912	88	127
223.28231292517006	223.42163265306124	37	127
223.28231292517006	223.76993197278912	57	127
223.28231292517006	223.3984126984127	55	127
223.3984126984127	223.42163265306124	67	127
223.42163265306124	223.4912925170068	66	127
223.42163265306124	223.5609523809524	49	127
223.4912925170068	223.5841723356009	67	127
223.5841723356009	223.68866213151927	49	127
223.5841723356009	223.6190022675737	69	127
223.6190022675737	223.73510204081632	67	127
223.73510204081632	223.8744217687075	49	127
223.73510204081632	223.82798185941044	66	127
223.82798185941044	223.92086167800454	67	127
223.92086167800454	224.03696145124715	59	127
223.92086167800454	224.10662131519274	38	127
223.92086167800454	224.57102040816326	86	127
223.92086167800454	224.57102040816326	62	127
224.03696145124715	224.1530612244898	71	127
224.1530612244898	224.26916099773243	69	127
224.1530612244898	224.33882086167802	50	127
224.26916099773243	224.36204081632653	71	127
224.36204081632653	224.43170068027212	72	127
224.36204081632653	224.48975056689343	50	127
224.43170068027212	224.52458049886621	71	127
224.52458049886621	224.62907029478458	69	127
224.52458049886621	224.64068027210885	50	127
224.62907029478458	224.6871201814059	71	127
224.6871201814059	224.79160997732427	62	127
224.6871201814059	224.82643990929705	38	127
224.6871201814059	224.74517006802722	62	127
224.6871201814059	224.74517006802722	79	127
224.75678004535146	224.79160997732427	78	127
224.75678004535146	224.79160997732427	60	127
224.79160997732427	224.82643990929705	69	127
224.79160997732427	224.82643990929705	62	127
224.79160997732427	224.82643990929705	79	127
224.82643990929705	224.8728798185941	60	127
224.82643990929705	224.8728798185941	78	127
224.82643990929705	224.91931972789115	67	127
224.82643990929705	224.98897959183674	50	127
224.88448979591837	224.9425396825397	79	127
224.88448979591837	224.9425396825397	62	127
224.91931972789115	225.02380952380952	69	127
224.95414965986396	225.01219954648525	60	127
224.95414965986396	225.01219954648525	78	127
225.02380952380952	225.19795918367348	50	127
225.02380952380952	225.08185941043084	79	127
225.02380952380952	225.08185941043084	62	127
225.02380952380952	225.1282993197279	71	127
225.0934693877551	225.15151927437643	60	127
225.0934693877551	225.15151927437643	78	127
225.1282993197279	225.24439909297053	69	127
225.17473922902494	225.23278911564626	79	127
225.17473922902494	225.23278911564626	62	127
225.24439909297053	225.3488888888889	67	127
225.24439909297053	225.30244897959184	78	127
225.24439909297053	225.30244897959184	60	127
225.24439909297053	225.41854875283445	50	127
225.3140589569161	225.3721088435374	76	127
225.3140589569161	225.3721088435374	59	127
225.3488888888889	225.46498866213153	69	127
225.39532879818594	225.45337868480726	60	127
225.39532879818594	225.45337868480726	78	127
225.46498866213153	226.42861678004536	67	127
225.46498866213153	225.63913832199546	43	127
225.46498866213153	225.81328798185942	79	127
225.46498866213153	225.81328798185942	59	127
225.6855782312925	225.85972789115647	43	127
225.90616780045352	226.20802721088435	62	127
225.90616780045352	226.0687074829932	43	127
226.10353741496598	226.21963718820862	43	127
226.26607709750567	226.61437641723356	59	127
226.26607709750567	226.45183673469387	43	127
226.49827664399092	226.6608163265306	67	127
226.49827664399092	226.6608163265306	43	127
226.70725623582766	226.83496598639456	43	127
226.70725623582766	226.9742857142857	55	127
226.70725623582766	226.83496598639456	69	127
226.85818594104308	227.02072562358276	43	127
226.85818594104308	227.02072562358276	71	127
227.0671655328798	227.2297052154195	43	127
227.0671655328798	227.3922448979592	54	127
227.0671655328798	228.08884353741496	74	127
227.0671655328798	227.3922448979592	74	127
227.27614512471655	227.42707482993197	43	127
227.47351473922902	227.83342403628117	72	127
227.47351473922902	227.65927437641724	43	127
227.47351473922902	227.83342403628117	57	127
227.7057142857143	227.87986394557822	43	127
227.92630385487527	228.2049433106576	54	127
227.92630385487527	228.10045351473923	43	127
228.1120634920635	228.22816326530614	74	127
228.1120634920635	228.22816326530614	43	127
228.25138321995465	228.36748299319729	76	127
228.25138321995465	228.50680272108843	50	127
228.25138321995465	228.36748299319729	43	127
228.40231292517007	228.55324263038548	78	127
228.40231292517007	228.55324263038548	43	127
228.59968253968253	228.94798185941042	81	127
228.59968253968253	228.78544217687076	43	127
228.59968253968253	228.94798185941042	59	127
228.8318820861678	228.9944217687075	43	127
228.8318820861678	229.04086167800455	66	127
229.04086167800455	229.2730612244898	67	127
229.04086167800455	229.37755102040816	62	127
229.04086167800455	229.22662131519274	43	127
229.04086167800455	229.37755102040816	79	127
229.2730612244898	229.4007709750567	43	127
229.2730612244898	229.44721088435375	66	127
229.44721088435375	229.54009070294785	43	127
229.44721088435375	229.55170068027212	67	127
229.44721088435375	229.679410430839	59	127
229.55170068027212	229.72585034013605	43	127
229.55170068027212	229.7722902494331	68	127
229.7722902494331	229.92321995464852	43	127
229.7722902494331	230.10897959183674	55	127
229.7722902494331	229.96965986394557	69	127
229.96965986394557	230.13219954648525	43	127
229.96965986394557	230.1786394557823	71	127
230.1786394557823	230.36439909297053	43	127
230.1786394557823	230.55015873015873	54	127
230.1786394557823	231.4092970521542	72	127
230.41083900226758	230.57337868480727	43	127
230.41083900226758	230.57337868480727	73	127
230.61981859410432	230.75913832199547	43	127
230.61981859410432	230.91006802721088	57	127
230.61981859410432	230.75913832199547	74	127
230.79396825396825	230.95650793650793	43	127
230.79396825396825	230.95650793650793	73	127
231.00294784580498	231.11904761904762	74	127
231.00294784580498	231.25836734693877	54	127
231.00294784580498	231.11904761904762	43	127
231.16548752834467	231.30480725623582	43	127
231.16548752834467	231.30480725623582	75	127
231.3164172335601	231.6298866213152	50	127
231.3164172335601	231.47895691609978	76	127
231.3164172335601	231.47895691609978	43	127
231.5021768707483	231.66471655328797	78	127
231.5021768707483	231.66471655328797	43	127
231.69954648526078	231.86208616780044	43	127
231.69954648526078	231.98979591836735	79	127
231.69954648526078	232.59351473922902	62	127
231.69954648526078	231.89691609977325	71	127
231.89691609977325	232.08267573696145	74	127
232.08267573696145	232.2568253968254	47	127
232.08267573696145	232.29165532879819	71	127
232.29165532879819	232.46580498866214	67	127
232.46580498866214	232.6631746031746	66	127
232.46580498866214	232.61673469387756	50	127
232.6631746031746	232.89537414965986	62	127
232.6631746031746	232.8489342403628	62	127
232.89537414965986	233.12757369614513	60	127
232.89537414965986	233.09274376417233	64	127
232.89537414965986	233.09274376417233	38	127
233.12757369614513	233.30172335600906	57	127
233.12757369614513	233.26689342403628	66	127
233.30172335600906	233.66163265306122	69	127
233.30172335600906	233.47587301587302	55	127
233.30172335600906	234.18408163265306	86	127
233.30172335600906	233.47587301587302	43	127
233.52231292517007	233.69646258503403	59	127
233.71968253968254	234.02154195011337	67	127
233.71968253968254	233.90544217687074	59	127
233.71968253968254	233.90544217687074	74	127
233.9518820861678	234.02154195011337	79	127
234.03315192743764	234.2073015873016	62	127
234.03315192743764	234.2073015873016	78	127
234.25374149659865	234.42789115646258	84	127
234.25374149659865	234.42789115646258	76	127
234.47433106575963	234.64848072562359	74	127
234.47433106575963	234.64848072562359	83	127
234.47433106575963	234.64848072562359	50	127
234.69492063492063	234.82263038548754	81	127
234.69492063492063	234.82263038548754	72	127
234.8690702947846	235.78625850340137	62	127
234.8690702947846	235.02	43	127
234.8690702947846	235.12448979591838	78	127
234.8690702947846	235.06643990929706	69	127
235.06643990929706	235.19414965986394	71	127
235.19414965986394	235.42634920634922	74	127
235.19414965986394	235.56566893424036	79	127
235.19414965986394	235.37990929705217	47	127
235.42634920634922	235.65854875283446	67	127
235.65854875283446	235.8443083900227	66	127
235.65854875283446	235.80947845804988	50	127
235.8443083900227	236.01845804988662	62	127
235.8443083900227	236.06489795918367	62	127
236.06489795918367	236.2506575963719	64	127
236.06489795918367	236.29709750566894	60	127
236.06489795918367	236.2506575963719	38	127
236.29709750566894	236.41319727891155	57	127
236.29709750566894	236.41319727891155	66	127
236.4596371882086	236.81954648526076	69	127
236.4596371882086	236.63378684807256	43	127
236.4596371882086	236.6802267573696	59	127
236.4596371882086	237.33038548752833	86	127
236.6802267573696	236.85437641723357	62	127
236.87759637188208	237.10979591836735	74	127
236.87759637188208	237.16784580498867	67	127
236.87759637188208	237.0633560090703	59	127
237.10979591836735	237.16784580498867	79	127
237.16784580498867	237.40004535147392	78	127
237.16784580498867	237.35360544217687	62	127
237.40004535147392	237.6322448979592	76	127
237.40004535147392	237.58580498866212	84	127
237.6322448979592	237.79478458049886	83	127
237.6322448979592	237.8412244897959	74	127
237.6322448979592	237.79478458049886	50	127
237.8412244897959	237.92249433106576	81	127
237.8412244897959	237.9689342403628	72	127
237.9689342403628	238.18952380952382	78	127
237.9689342403628	238.8861224489796	43	127
237.9689342403628	238.18952380952382	70	127
238.18952380952382	238.30562358276643	71	127
238.18952380952382	238.30562358276643	79	127
238.18952380952382	238.30562358276643	62	127
238.35206349206348	238.50299319727893	62	127
238.35206349206348	238.39850340136056	79	127
238.35206349206348	238.39850340136056	71	127
238.5378231292517	238.59587301587302	71	127
238.5378231292517	238.71197278911563	62	127
238.5378231292517	238.59587301587302	79	127
238.74680272108844	239.04866213151928	79	127
238.74680272108844	239.04866213151928	71	127
238.74680272108844	239.04866213151928	62	127
238.90934240362813	239.14154195011338	43	127
239.14154195011338	239.33891156462585	45	127
239.33891156462585	239.5362811791383	47	127
239.5362811791383	239.93102040816328	50	127
239.71043083900227	239.93102040816328	67	127
239.71043083900227	239.93102040816328	64	127
239.71043083900227	239.93102040816328	57	127
239.93102040816328	240.03551020408165	79	127
239.93102040816328	240.03551020408165	64	127
239.93102040816328	240.03551020408165	69	127
239.93102040816328	240.4882993197279	48	127
240.15160997732426	240.22126984126984	69	127
240.15160997732426	240.22126984126984	79	127
240.15160997732426	240.22126984126984	64	127
240.33736961451248	240.54634920634922	79	127
240.33736961451248	240.54634920634922	69	127
240.33736961451248	240.54634920634922	64	127
240.53473922902495	240.63922902494332	45	127
240.63922902494332	240.8365986394558	47	127
240.8365986394558	241.0571882086168	48	127
241.0571882086168	241.47514739229024	52	127
241.25455782312926	241.47514739229024	67	127
241.25455782312926	241.47514739229024	59	127
241.25455782312926	241.47514739229024	65	127
241.47514739229024	241.59124716553288	79	127
241.47514739229024	242.07886621315194	50	127
241.47514739229024	241.59124716553288	65	127
241.47514739229024	241.59124716553288	71	127
241.69573696145125	241.76539682539683	79	127
241.69573696145125	241.76539682539683	65	127
241.69573696145125	241.76539682539683	71	127
241.91632653061225	242.26462585034014	71	127
241.91632653061225	242.26462585034014	65	127
241.91632653061225	242.26462585034014	79	127
242.13691609977323	242.34589569160997	47	127
242.34589569160997	242.56648526077097	48	127
242.56648526077097	242.7754648526077	50	127
242.7754648526077	243.18181405895692	53	127
242.97283446712018	243.18181405895692	67	127
242.97283446712018	243.18181405895692	67	127
242.97283446712018	243.18181405895692	60	127
243.18181405895692	243.27469387755102	67	127
243.18181405895692	243.27469387755102	72	127
243.18181405895692	243.27469387755102	79	127
243.18181405895692	243.76231292517008	52	127
243.39079365079365	243.46045351473924	79	127
243.39079365079365	243.46045351473924	67	127
243.39079365079365	243.46045351473924	72	127
243.5997732426304	243.92485260770974	67	127
243.5997732426304	243.92485260770974	79	127
243.5997732426304	243.92485260770974	72	127
243.80875283446713	244.0061224489796	48	127
244.0061224489796	244.20349206349206	50	127
244.20349206349206	244.36603174603175	52	127
244.36603174603175	245.2251700680272	70	127
244.36603174603175	245.2251700680272	72	127
244.36603174603175	245.2251700680272	55	127
244.36603174603175	245.2251700680272	76	127
245.2948299319728	245.50380952380954	74	127
245.2948299319728	245.50380952380954	77	127
245.2948299319728	245.50380952380954	53	127
245.2948299319728	245.50380952380954	69	127
245.50380952380954	245.71278911564625	67	127
245.50380952380954	245.71278911564625	52	127
245.50380952380954	245.71278911564625	76	127
245.50380952380954	245.71278911564625	79	127
245.71278911564625	245.87532879818593	50	127
245.71278911564625	245.87532879818593	77	127
245.71278911564625	245.87532879818593	81	127
245.71278911564625	245.87532879818593	65	127
245.89854875283447	246.98988662131518	65	127
245.89854875283447	246.96666666666667	72	127
245.89854875283447	246.61836734693878	56	127
245.89854875283447	246.98988662131518	62	127
246.80412698412698	247.15242630385487	55	127
247.0479365079365	247.23369614512472	71	127
247.23369614512472	247.46589569160997	77	127
247.46589569160997	247.6168253968254	74	127
247.6168253968254	247.82580498866213	72	127
247.82580498866213	247.95351473922904	71	127
247.95351473922904	248.12766439909296	74	127
247.95351473922904	248.12766439909296	62	127
248.12766439909296	248.34825396825397	71	127
248.12766439909296	248.34825396825397	59	127
248.34825396825397	248.56884353741498	57	127
248.34825396825397	248.56884353741498	69	127
248.56884353741498	248.70816326530613	67	127
248.56884353741498	248.70816326530613	55	127
248.70816326530613	248.94036281179137	57	127
248.70816326530613	248.94036281179137	69	127
248.94036281179137	249.10290249433106	65	127
248.94036281179137	249.10290249433106	53	127
249.13773242630384	249.32349206349207	52	127
249.13773242630384	249.32349206349207	64	127
249.32349206349207	249.5324716553288	50	127
249.32349206349207	249.5324716553288	62	127
249.5324716553288	249.59052154195012	52	127
249.5324716553288	249.59052154195012	64	127
249.59052154195012	249.82272108843537	53	127
249.59052154195012	249.82272108843537	65	127
249.82272108843537	249.99687074829933	66	127
249.82272108843537	249.99687074829933	54	127
249.99687074829933	250.1942403628118	55	127
249.99687074829933	250.1942403628118	67	127
250.1942403628118	250.41482993197278	57	127
250.1942403628118	250.41482993197278	69	127
250.41482993197278	250.58897959183673	59	127
250.41482993197278	250.58897959183673	71	127
250.63541950113378	250.9140589569161	60	127
250.63541950113378	250.79795918367347	58	127
250.63541950113378	250.83278911564625	64	127
250.63541950113378	251.5758276643991	72	127
250.83278911564625	250.9488888888889	58	127
250.83278911564625	250.99532879818594	65	127
250.99532879818594	251.18108843537414	58	127
250.99532879818594	251.2275283446712	64	127
251.2275283446712	251.39006802721087	58	127
251.2275283446712	251.43650793650792	65	127
251.43650793650792	251.58743764172337	58	127
251.43650793650792	251.64548752834466	64	127
251.61065759637188	251.6919274376417	72	127
251.61065759637188	251.6919274376417	58	127
251.6919274376417	251.84285714285716	74	127
251.6919274376417	251.8312471655329	58	127
251.84285714285716	251.99378684807257	58	127
251.84285714285716	252.02861678004535	76	127
252.02861678004535	252.19115646258504	58	127
252.02861678004535	252.8877551020408	81	127
252.02861678004535	253.0502947845805	60	127
252.02861678004535	252.2375963718821	76	127
252.2375963718821	252.44657596371883	77	127
252.2375963718821	252.40013605442178	58	127
252.44657596371883	252.65555555555557	76	127
252.44657596371883	252.60911564625852	58	127
252.65555555555557	252.84131519274376	58	127
252.65555555555557	252.8877551020408	77	127
252.8877551020408	253.2128344671202	76	127
252.8877551020408	253.2128344671202	79	127
252.8877551020408	253.073514739229	58	127
253.10834467120182	253.3057142857143	60	127
253.10834467120182	253.25927437641724	58	127
253.3057142857143	253.4914739229025	62	127
253.3057142857143	253.4566439909297	58	127
253.4914739229025	253.68884353741495	64	127
253.4914739229025	253.6424036281179	58	127
253.68884353741495	254.47832199546485	72	127
253.68884353741495	253.85138321995464	58	127
253.68884353741495	253.8978231292517	64	127
253.68884353741495	254.38544217687075	69	127
253.8978231292517	254.10680272108843	65	127
253.8978231292517	254.07197278911565	58	127
254.10680272108843	254.29256235827665	64	127
254.10680272108843	254.25773242630385	58	127
254.29256235827665	254.38544217687075	58	127
254.29256235827665	254.38544217687075	65	127
254.38544217687075	254.66408163265305	67	127
254.38544217687075	254.66408163265305	64	127
254.38544217687075	254.5015419501134	58	127
254.53637188208617	254.69891156462586	58	127
254.53637188208617	254.73374149659864	72	127
254.73374149659864	254.89628117913833	58	127
254.73374149659864	254.94272108843538	74	127
254.94272108843538	255.16331065759638	76	127
254.94272108843538	255.12848072562358	58	127
255.16331065759638	255.3374603174603	58	127
255.16331065759638	256.1849886621315	60	127
255.16331065759638	256.02244897959184	81	127
255.16331065759638	255.38390022675736	76	127
255.38390022675736	255.60448979591837	77	127
255.38390022675736	255.55804988662132	58	127
255.60448979591837	255.76702947845806	58	127
255.60448979591837	255.79024943310657	76	127
255.79024943310657	255.9760090702948	58	127
255.79024943310657	256.02244897959184	77	127
256.02244897959184	256.38235827664397	79	127
256.02244897959184	256.38235827664397	76	127
256.02244897959184	256.20820861678004	58	127
256.24303854875285	256.4752154195011	60	127
256.24303854875285	256.42879818594105	58	127
256.4752154195011	256.6958276643991	62	127
256.4752154195011	256.64938775510205	58	127
256.6958276643991	256.88156462585033	58	127
256.6958276643991	256.9164172335601	64	127
256.9164172335601	257.06734693877553	64	127
256.9164172335601	257.0325170068027	57	127
256.9164172335601	257.61301587301585	69	127
256.9164172335601	257.77555555555557	73	127
257.06734693877553	257.14861678004536	57	127
257.06734693877553	257.19503401360544	65	127
257.19503401360544	257.33437641723356	57	127
257.19503401360544	257.38081632653063	64	127
257.38081632653063	257.56657596371883	57	127
257.38081632653063	257.61301587301585	65	127
257.61301587301585	257.9497052154195	67	127
257.61301587301585	257.9497052154195	64	127
257.61301587301585	257.77555555555557	57	127
257.8219954648526	257.9961451247166	57	127
257.8219954648526	258.0425850340136	74	127
258.0425850340136	258.1702947845805	76	127
258.0425850340136	258.1238548752834	57	127
258.1702947845805	258.4024943310658	77	127
258.1702947845805	258.3560544217687	57	127
258.4024943310658	259.3080725623583	61	127
258.4024943310658	259.15714285714284	81	127
258.4024943310658	258.56503401360544	57	127
258.4024943310658	258.6114739229025	76	127
258.6114739229025	258.8320408163265	77	127
258.6114739229025	258.78562358276645	57	127
258.8320408163265	258.9249206349206	57	127
258.8320408163265	258.97138321995465	76	127
258.97138321995465	259.15714285714284	77	127
258.97138321995465	259.1107029478458	57	127
259.15714285714284	259.3080725623583	57	127
259.15714285714284	259.4938321995465	76	127
259.15714285714284	259.4938321995465	79	127
259.3545124716553	259.5751020408163	64	127
259.3545124716553	259.5286621315193	57	127
259.5751020408163	259.7724716553288	67	127
259.5751020408163	259.72603174603177	57	127
259.7724716553288	259.9350113378685	69	127
259.7724716553288	259.92340136054423	57	127
259.9350113378685	260.70126984126983	72	127
259.9350113378685	260.14399092970524	61	127
259.9350113378685	260.86380952380955	76	127
259.9350113378685	260.1207709750567	55	127
260.14399092970524	260.32975056689344	62	127
260.14399092970524	260.28331065759636	55	127
260.32975056689344	260.51551020408164	61	127
260.32975056689344	260.4806802721088	55	127
260.51551020408164	260.6780498866213	55	127
260.51551020408164	260.70126984126983	62	127
260.70126984126983	261.0379591836735	70	127
260.70126984126983	260.86380952380955	55	127
260.70126984126983	261.0379591836735	61	127
260.91024943310657	261.09600907029477	77	127
260.91024943310657	261.08437641723356	55	127
261.09600907029477	261.27015873015876	55	127
261.09600907029477	261.3165986394558	79	127
261.3165986394558	261.502358276644	55	127
261.3165986394558	261.54879818594105	81	127
261.54879818594105	262.0248072562358	64	127
261.54879818594105	261.7461678004535	73	127
261.54879818594105	261.7113378684807	55	127
261.54879818594105	262.17573696145126	84	127
261.7461678004535	261.89707482993197	74	127
261.7461678004535	261.8738775510204	55	127
261.89707482993197	262.0248072562358	73	127
261.89707482993197	261.98997732426307	55	127
262.0248072562358	262.1292970521542	55	127
262.0248072562358	262.17573696145126	74	127
262.17573696145126	262.3382766439909	55	127
262.17573696145126	262.4775963718821	73	127
262.17573696145126	262.4775963718821	82	127
262.17573696145126	262.3382766439909	64	127
262.3382766439909	262.5240362811791	55	127
262.3382766439909	262.5704761904762	67	127
262.5704761904762	262.73301587301586	55	127
262.5704761904762	262.76784580498867	70	127
262.76784580498867	262.9884353741497	67	127
262.76784580498867	262.95360544217687	55	127
262.9884353741497	263.7430612244898	75	127
262.9884353741497	263.18580498866214	70	127
262.9884353741497	263.15097505668933	53	127
262.9884353741497	263.8475736961451	77	127
263.18580498866214	263.3019047619048	53	127
263.18580498866214	263.3019047619048	72	127
263.3019047619048	263.4760544217687	53	127
263.3019047619048	263.5224943310658	70	127
263.5224943310658	263.6966439909297	53	127
263.5224943310658	263.7430612244898	72	127
263.7430612244898	263.8475736961451	53	127
263.7430612244898	264.0217233560091	74	127
263.7430612244898	264.0217233560091	70	127
263.8940136054422	264.1146031746032	82	127
263.8940136054422	264.0681632653061	53	127
264.1146031746032	264.3003628117914	86	127
264.1146031746032	264.2655328798186	53	127
264.3003628117914	264.4280725623583	82	127
264.3003628117914	264.416462585034	53	127
264.4280725623583	265.41492063492063	60	127
264.4280725623583	265.2407709750567	89	127
264.4280725623583	264.6138321995465	53	127
264.4280725623583	264.66024943310657	69	127
264.66024943310657	264.8344217687075	70	127
264.66024943310657	264.82281179138323	53	127
264.8344217687075	264.9737414965986	53	127
264.8344217687075	265.0201814058957	69	127
265.0201814058957	265.2407709750567	70	127
265.0201814058957	265.2059410430839	53	127
265.2407709750567	265.41492063492063	53	127
265.2407709750567	265.54263038548754	87	127
265.2407709750567	265.54263038548754	69	127
265.4613605442177	265.63551020408164	65	127
265.4613605442177	265.58907029478456	53	127
265.63551020408164	265.7980498866213	53	127
265.63551020408164	265.8444897959184	69	127
265.8444897959184	266.00702947845804	65	127
265.8444897959184	265.9257596371882	81	127
265.8444897959184	265.960589569161	53	127
266.00702947845804	266.09990929705214	53	127
266.00702947845804	266.1579591836735	84	127
266.00702947845804	266.09990929705214	69	127
266.1579591836735	266.2508390022676	75	127
266.1579591836735	266.2508390022676	41	127
266.1579591836735	266.2508390022676	72	127
266.39013605442176	266.622358276644	53	127
266.39013605442176	266.622358276644	60	127
266.39013605442176	266.622358276644	69	127
266.622358276644	266.7384580498866	75	127
266.85455782312926	266.90097505668933	81	127
266.90097505668933	266.99387755102043	41	127
266.90097505668933	266.99387755102043	63	127
266.90097505668933	266.99387755102043	72	127
267.08675736961453	267.30734693877554	53	127
267.08675736961453	267.30734693877554	57	127
267.08675736961453	267.30734693877554	63	127
267.30734693877554	267.4234240362812	72	127
267.53954648526076	267.57437641723357	75	127
267.63242630385486	267.71369614512474	57	127
267.63242630385486	267.71369614512474	57	127
267.63242630385486	267.71369614512474	69	127
267.8181859410431	267.89945578231294	60	127
267.8181859410431	267.89945578231294	60	127
267.8181859410431	267.89945578231294	72	127
267.99233560090704	268.0968253968254	65	127
267.99233560090704	268.0968253968254	53	127
267.99233560090704	268.0968253968254	53	127
268.2013151927438	268.2941950113379	60	127
268.2013151927438	268.2941950113379	72	127
268.2013151927438	268.2941950113379	60	127
268.39868480725625	268.5147845804989	52	127
268.39868480725625	268.5147845804989	52	127
268.39868480725625	268.5147845804989	64	127
268.61927437641725	268.65410430839	72	127
268.61927437641725	268.65410430839	60	127
268.61927437641725	268.65410430839	60	127
268.7585941043084	268.874693877551	51	127
268.7585941043084	268.874693877551	51	127
268.7585941043084	268.874693877551	63	127
268.9559410430839	269.0604535147392	64	127
268.9559410430839	269.15331065759636	52	127
268.9559410430839	269.15331065759636	64	127
268.9559410430839	269.15331065759636	52	127
269.15331065759636	269.2229931972789	68	127
269.315873015873	269.5132426303855	56	127
269.315873015873	269.4087528344671	71	127
269.315873015873	269.5132426303855	62	127
269.315873015873	269.5132426303855	64	127
269.315873015873	269.5132426303855	59	127
269.5132426303855	269.61773242630386	64	127
269.7338321995465	269.93120181405897	64	127
269.7338321995465	269.93120181405897	57	127
269.7338321995465	269.8615419501134	72	127
269.7338321995465	269.93120181405897	60	127
269.7338321995465	269.93120181405897	57	127
269.93120181405897	270.0473015873016	69	127
270.1401814058957	270.34916099773244	57	127
270.1401814058957	270.34916099773244	69	127
270.1401814058957	270.24467120181407	81	127
270.1401814058957	270.34916099773244	53	127
270.34916099773244	270.4536507936508	75	127
270.5117006802721	270.61619047619047	76	127
270.5117006802721	270.7671201814059	52	127
270.5117006802721	270.61619047619047	59	127
270.5117006802721	270.61619047619047	68	127
270.62780045351474	270.7439002267574	71	127
270.62780045351474	270.7439002267574	64	127
270.62780045351474	270.7439002267574	56	127
270.8367800453515	270.94126984126984	74	127
270.8367800453515	270.94126984126984	80	127
270.8367800453515	270.94126984126984	59	127
271.03414965986394	271.12702947845804	68	127
271.03414965986394	271.12702947845804	52	127
271.03414965986394	271.12702947845804	76	127
271.1850793650794	271.25473922902495	81	127
271.1850793650794	271.25473922902495	60	127
271.1850793650794	271.25473922902495	76	127
271.3708390022676	271.4521088435374	76	127
271.3708390022676	271.4521088435374	57	127
271.3708390022676	271.4521088435374	72	127
271.56820861678005	271.66108843537415	69	127
271.56820861678005	271.66108843537415	69	127
271.56820861678005	271.66108843537415	84	127
271.7655782312925	271.88167800453516	81	127
271.7655782312925	271.88167800453516	63	127
271.7655782312925	271.88167800453516	66	127
271.93972789115645	272.1487074829932	88	127
271.93972789115645	272.83367346938775	40	127
271.93972789115645	272.1487074829932	64	127
271.93972789115645	272.1487074829932	68	127
272.83367346938775	273.01945578231295	42	127
273.01945578231295	273.1819954648526	44	127
273.1819954648526	273.4374149659864	45	127
273.4374149659864	274.168820861678	48	127
273.6231746031746	273.6812244897959	65	127
273.6231746031746	273.6812244897959	69	127
273.83215419501136	273.8669841269841	69	127
273.83215419501136	273.9714739229025	65	127
273.9714739229025	274.1224036281179	64	127
273.9714739229025	274.0295238095238	69	127
274.168820861678	274.51714285714286	47	127
274.168820861678	274.38943310657595	69	127
274.168820861678	274.38943310657595	64	127
274.38943310657595	274.56358276643994	71	127
274.38943310657595	274.5984126984127	54	127
274.38943310657595	274.56358276643994	63	127
274.5984126984127	274.8073922902494	71	127
274.5984126984127	274.8073922902494	55	127
274.5984126984127	274.6680725623583	63	127
274.8073922902494	274.8654421768708	63	127
274.8073922902494	274.9815192743764	72	127
274.8073922902494	275.01637188208616	57	127
275.01637188208616	275.2253514739229	57	127
275.01637188208616	275.2253514739229	72	127
275.01637188208616	275.8522902494331	40	127
275.01637188208616	275.2253514739229	63	127
275.2253514739229	275.4111111111111	64	127
275.2253514739229	275.4111111111111	56	127
275.2253514739229	275.4111111111111	71	127
275.4575510204082	275.51560090702947	64	127
275.4575510204082	275.51560090702947	56	127
275.4575510204082	275.51560090702947	71	127
275.6781405895692	275.7361904761905	56	127
275.6781405895692	275.7361904761905	71	127
275.6781405895692	275.7361904761905	64	127
275.759410430839	275.9916099773243	71	127
275.759410430839	275.9916099773243	56	127
275.759410430839	275.9916099773243	64	127
275.8522902494331	276.06126984126985	42	127
276.06126984126985	276.2702494331066	44	127
276.2702494331066	276.4908390022676	45	127
276.4908390022676	277.19904761904763	48	127
276.6649886621315	276.72301587301587	69	127
276.6649886621315	276.72301587301587	65	127
276.8043083900227	277.00167800453517	65	127
276.8043083900227	276.862358276644	69	127
277.00167800453517	277.0713378684807	69	127
277.00167800453517	277.18743764172336	64	127
277.19904761904763	277.41963718820864	69	127
277.19904761904763	277.41963718820864	64	127
277.19904761904763	277.55895691609976	47	127
277.41963718820864	277.59378684807257	63	127
277.41963718820864	277.59378684807257	71	127
277.41963718820864	277.64020408163265	54	127
277.64020408163265	277.82598639455784	63	127
277.64020408163265	277.8375963718821	56	127
277.64020408163265	277.8375963718821	71	127
277.8375963718821	278.0233560090703	72	127
277.8375963718821	278.05818594104306	57	127
277.8375963718821	278.0233560090703	63	127
278.05818594104306	278.2671655328798	57	127
278.05818594104306	278.2671655328798	72	127
278.05818594104306	278.2671655328798	63	127
278.05818594104306	278.9289342403628	40	127
278.2671655328798	278.37165532879817	71	127
278.2671655328798	278.37165532879817	64	127
278.2671655328798	278.37165532879817	56	127
278.41809523809525	278.47614512471654	56	127
278.41809523809525	278.47614512471654	71	127
278.41809523809525	278.47614512471654	64	127
278.56902494331064	278.60385487528345	64	127
278.56902494331064	278.60385487528345	56	127
278.56902494331064	278.60385487528345	71	127
278.7547845804989	279.10308390022675	71	127
278.7547845804989	279.10308390022675	64	127
278.7547845804989	279.10308390022675	56	127
278.96374149659863	279.0334240362812	44	127
279.19596371882085	279.26562358276647	47	127
279.4049433106576	279.46299319727893	50	127
279.5790702947846	280.04349206349207	53	127
279.5790702947846	279.76485260770977	56	127
279.5790702947846	279.76485260770977	59	127
279.82290249433106	279.8925396825397	62	127
279.82290249433106	280.10154195011336	59	127
279.82290249433106	280.10154195011336	56	127
280.04349206349207	280.1595918367347	52	127
280.04349206349207	280.0667120181406	68	127
280.14798185941044	280.3801814058957	59	127
280.14798185941044	280.3801814058957	56	127
280.2524716553288	280.6936507936508	76	127
280.46145124716554	280.5311111111111	44	127
280.46145124716554	280.7981405895692	59	127
280.46145124716554	280.7981405895692	56	127
280.6936507936508	280.99551020408165	74	127
280.6936507936508	280.74009070294784	47	127
280.8910204081633	281.2509297052154	56	127
280.8910204081633	280.9374603174603	50	127
280.8910204081633	281.2509297052154	59	127
281.08839002267575	281.4831292517007	53	127
281.2973696145125	281.5992290249433	59	127
281.2973696145125	281.33219954648524	62	127
281.2973696145125	281.5992290249433	56	127
281.4831292517007	281.73854875283445	52	127
281.4831292517007	281.541179138322	68	127
281.63403628117914	281.93589569160997	56	127
281.63403628117914	281.93589569160997	59	127
281.63403628117914	281.6688888888889	71	127
281.80820861678006	282.22616780045354	76	127
282.00557823129253	282.22616780045354	64	127
282.00557823129253	282.22616780045354	56	127
282.00557823129253	282.0636281179138	59	127
282.22616780045354	282.44673469387754	68	127
282.22616780045354	282.44673469387754	59	127
282.22616780045354	282.2958276643991	52	127
282.22616780045354	282.5512244897959	74	127
282.44673469387754	282.64410430839	71	127
282.44673469387754	282.64410430839	64	127
282.44673469387754	282.49319727891157	56	127
282.64410430839	282.8879365079365	64	127
282.64410430839	282.72539682539684	73	127
282.64410430839	283.13174603174605	57	127
282.64410430839	282.8879365079365	69	127
282.8414965986395	282.87632653061223	76	127
282.94598639455785	283.13174603174605	79	127
283.13174603174605	283.2130158730159	64	127
283.13174603174605	283.2130158730159	73	127
283.13174603174605	283.28267573696144	58	127
283.3291156462585	283.57290249433106	76	127
283.3291156462585	283.8863945578231	57	127
283.3291156462585	283.57290249433106	67	127
283.57290249433106	283.6541950113379	73	127
283.747074829932	283.8863945578231	76	127
283.8863945578231	284.00249433106575	67	127
283.8863945578231	284.07215419501136	58	127
283.8863945578231	284.00249433106575	64	127
284.1185941043084	284.40884353741495	57	127
284.1185941043084	284.31596371882085	73	127
284.1185941043084	284.31596371882085	67	127
284.31596371882085	284.3972335600907	67	127
284.44367346938776	284.53655328798186	70	127
284.6062131519274	284.7107029478458	55	127
284.6062131519274	284.7107029478458	64	127
284.8268027210884	284.90807256235826	67	127
284.8268027210884	284.90807256235826	58	127
285.0241723356009	285.1518820861678	52	127
285.0241723356009	285.1518820861678	61	127
285.1867120181406	285.26798185941044	64	127
285.1867120181406	285.26798185941044	55	127
285.3840816326531	285.4769614512472	57	127
285.3840816326531	285.4769614512472	49	127
285.558231292517	285.80204081632655	50	127
285.558231292517	285.58145124716555	74	127
285.558231292517	285.58145124716555	65	127
285.70916099773245	285.7556009070295	65	127
285.70916099773245	285.7556009070295	74	127
285.70916099773245	285.89492063492065	69	127
285.89492063492065	286.04585034013604	73	127
285.89492063492065	285.9645804988662	76	127
285.89492063492065	285.9645804988662	67	127
286.04585034013604	286.11551020408166	76	127
286.04585034013604	286.11551020408166	67	127
286.04585034013604	286.22	76	127
286.26643990929705	286.5102494331066	82	127
286.26643990929705	286.3244671201814	65	127
286.26643990929705	286.3244671201814	74	127
286.5102494331066	286.5682993197279	74	127
286.5102494331066	286.89337868480726	45	127
286.5102494331066	286.89337868480726	81	127
286.5102494331066	286.5682993197279	65	127
286.5915192743764	286.6495691609977	73	127
286.5915192743764	286.6495691609977	64	127
286.661179138322	286.74242630385487	74	127
286.661179138322	286.74242630385487	65	127
286.7540589569161	286.81210884353743	73	127
286.7540589569161	286.81210884353743	64	127
286.83532879818597	286.89337868480726	71	127
286.83532879818597	286.89337868480726	62	127
286.90498866213153	286.9746485260771	64	127
286.90498866213153	286.9746485260771	73	127
286.98625850340136	287.07913832199546	74	127
286.98625850340136	287.3577551020408	50	127
286.98625850340136	287.07913832199546	65	127
287.21845804988664	287.4506349206349	69	127
287.21845804988664	287.2881179138322	65	127
287.21845804988664	287.2881179138322	74	127
287.4506349206349	287.5087074829932	76	127
287.4506349206349	287.5551247165533	73	127
287.4506349206349	287.5087074829932	67	127
287.5551247165533	287.62480725623584	67	127
287.5551247165533	287.76410430839	76	127
287.5551247165533	287.62480725623584	76	127
287.76410430839	287.8221768707483	74	127
287.76410430839	287.8221768707483	65	127
287.76410430839	288.1124263038549	82	127
287.9266666666667	287.99632653061224	65	127
287.9266666666667	287.99632653061224	74	127
288.1124263038549	288.42589569161	81	127
288.1124263038549	288.1704535147392	65	127
288.1124263038549	288.1704535147392	74	127
288.1124263038549	288.42589569161	45	127
288.1936961451247	288.25174603174605	73	127
288.1936961451247	288.25174603174605	64	127
288.2633560090703	288.30979591836734	65	127
288.2633560090703	288.30979591836734	74	127
288.3214058956916	288.37943310657596	64	127
288.3214058956916	288.37943310657596	73	127
288.3910657596372	288.42589569161	62	127
288.3910657596372	288.42589569161	71	127
288.43750566893425	288.5071655328798	64	127
288.43750566893425	288.5071655328798	73	127
288.5187755102041	288.6812925170068	74	127
288.5187755102041	288.6812925170068	66	127
288.5187755102041	288.58843537414964	50	127
288.7277551020408	288.78578231292516	54	127
288.7277551020408	289.02961451247165	69	127
288.7277551020408	289.02961451247165	66	127
288.90190476190475	288.9599546485261	57	127
289.1108843537415	289.15732426303856	60	127
289.1108843537415	289.4127437641723	66	127
289.1108843537415	289.4127437641723	69	127
289.2734240362812	289.70297052154194	63	127
289.48240362811794	289.5520634920635	72	127
289.48240362811794	289.8190929705215	66	127
289.48240362811794	289.8190929705215	69	127
289.70297052154194	289.9932426303855	62	127
289.70297052154194	289.76104308390023	78	127
289.8655328798186	290.22544217687073	66	127
289.8655328798186	290.22544217687073	69	127
289.8655328798186	289.93519274376416	81	127
290.0512925170068	290.44603174603174	86	127
290.2718820861678	290.34154195011337	54	127
290.2718820861678	290.57374149659864	66	127
290.2718820861678	290.57374149659864	69	127
290.44603174603174	290.5040816326531	57	127
290.44603174603174	290.70145124716555	84	127
290.60857142857145	290.6550113378685	60	127
290.60857142857145	290.92204081632656	69	127
290.60857142857145	290.92204081632656	66	127
290.79433106575965	291.2239002267574	63	127
291.0033106575964	291.2703401360544	66	127
291.0033106575964	291.2703401360544	69	127
291.0033106575964	291.0613605442177	72	127
291.2239002267574	291.5025396825397	62	127
291.3632199546485	291.7231292517007	69	127
291.3632199546485	291.7231292517007	66	127
291.3632199546485	291.43287981859413	81	127
291.5954195011338	291.92049886621317	86	127
291.7231292517007	292.02498866213153	66	127
291.7231292517007	292.02498866213153	69	127
291.7231292517007	291.7695691609977	54	127
291.92049886621317	292.1642857142857	84	127
291.92049886621317	291.97854875283446	57	127
292.05979591836734	292.38489795918366	66	127
292.05979591836734	292.0946485260771	60	127
292.05979591836734	292.38489795918366	69	127
292.2571655328798	292.65192743764175	63	127
292.47777777777776	292.52421768707484	78	127
292.47777777777776	292.7796371882086	69	127
292.47777777777776	292.7796371882086	66	127
292.65192743764175	292.9769841269841	62	127
292.65192743764175	292.7215873015873	80	127
292.8609070294785	293.02344671201814	66	127
292.8609070294785	292.93056689342404	81	127
292.8609070294785	293.02344671201814	69	127
293.0698866213152	293.4530158730159	55	127
293.0698866213152	293.30208616780044	67	127
293.0698866213152	293.1743537414966	83	127
293.0698866213152	293.30208616780044	67	127
293.2556462585034	293.29047619047617	86	127
293.3601360544218	293.5807256235828	77	127
293.5807256235828	293.6619954648526	74	127
293.5807256235828	293.6619954648526	83	127
293.5807256235828	293.7316553287982	56	127
293.77809523809526	293.987074829932	71	127
293.77809523809526	293.987074829932	74	127
293.77809523809526	294.2657142857143	55	127
293.987074829932	294.0683446712018	80	127
294.18444444444447	294.3237641723356	74	127
294.3237641723356	294.3934240362812	77	127
294.3237641723356	294.46308390022676	56	127
294.3237641723356	294.3934240362812	71	127
294.50950113378684	294.83460317460316	55	127
294.50950113378684	294.74172335600906	71	127
294.50950113378684	294.74172335600906	62	127
294.74172335600906	294.82297052154195	77	127
294.92748299319726	294.9507029478458	71	127
295.0203401360544	295.136462585034	74	127
295.0203401360544	295.136462585034	53	127
295.24095238095236	295.34544217687073	65	127
295.24095238095236	295.34544217687073	56	127
295.4499319727891	295.56603174603174	68	127
295.4499319727891	295.56603174603174	50	127
295.65891156462584	295.7750113378685	53	127
295.65891156462584	295.7750113378685	62	127
295.82145124716556	295.9259410430839	47	127
295.82145124716556	295.9259410430839	65	127
296.04201814058956	296.0884807256236	72	127
296.04201814058956	296.0884807256236	63	127
296.04201814058956	296.3438775510204	48	127
296.2161904761905	296.2742403628118	72	127
296.2161904761905	296.2742403628118	63	127
296.2161904761905	296.4019501133787	67	127
296.4019501133787	296.47160997732425	74	127
296.4019501133787	296.47160997732425	65	127
296.4019501133787	296.5180498866213	71	127
296.5180498866213	296.73863945578233	74	127
296.5180498866213	296.5877097505669	74	127
296.5180498866213	296.5877097505669	65	127
296.73863945578233	296.8082993197279	63	127
296.73863945578233	296.8082993197279	72	127
296.73863945578233	297.121768707483	80	127
296.94761904761907	297.01727891156463	72	127
296.94761904761907	297.01727891156463	63	127
297.121768707483	297.19142857142856	72	127
297.121768707483	297.4468480725624	43	127
297.121768707483	297.4468480725624	79	127
297.121768707483	297.19142857142856	63	127
297.19142857142856	297.23786848072564	62	127
297.19142857142856	297.23786848072564	71	127
297.23786848072564	297.31913832199547	72	127
297.23786848072564	297.31913832199547	63	127
297.31913832199547	297.388798185941	71	127
297.31913832199547	297.388798185941	62	127
297.388798185941	297.45845804988664	69	127
297.388798185941	297.45845804988664	60	127
297.45845804988664	297.5397278911565	62	127
297.45845804988664	297.5397278911565	71	127
297.5397278911565	297.59777777777776	72	127
297.5397278911565	297.86480725623585	48	127
297.5397278911565	297.59777777777776	63	127
297.73709750566894	297.95768707482995	67	127
297.73709750566894	297.8067573696145	72	127
297.73709750566894	297.8067573696145	63	127
297.95768707482995	298.0273469387755	65	127
297.95768707482995	298.0273469387755	74	127
297.95768707482995	298.08537414965986	71	127
298.08537414965986	298.1318367346939	65	127
298.08537414965986	298.2827664399093	74	127
298.08537414965986	298.1318367346939	74	127
298.2827664399093	298.3524263038549	72	127
298.2827664399093	298.3524263038549	63	127
298.2827664399093	298.59621315192743	80	127
298.4801360544218	298.54979591836735	63	127
298.4801360544218	298.54979591836735	72	127
298.59621315192743	298.67750566893426	63	127
298.59621315192743	298.95614512471656	79	127
298.59621315192743	298.67750566893426	72	127
298.59621315192743	298.95614512471656	43	127
298.67750566893426	298.73555555555555	71	127
298.67750566893426	298.73555555555555	62	127
298.73555555555555	298.8168253968254	63	127
298.73555555555555	298.8168253968254	72	127
298.8168253968254	298.89809523809527	71	127
298.8168253968254	298.89809523809527	62	127
298.89809523809527	298.9677551020408	60	127
298.89809523809527	298.9677551020408	69	127
298.9677551020408	299.04902494331066	62	127
298.9677551020408	299.04902494331066	71	127
299.04902494331066	299.1186848072562	63	127
299.04902494331066	299.3508843537415	48	127
299.04902494331066	299.1186848072562	72	127
299.23478458049885	299.2928344671202	67	127
299.23478458049885	299.4437641723356	72	127
299.23478458049885	299.2928344671202	63	127
299.4437641723356	299.5134013605442	63	127
299.4437641723356	299.5134013605442	67	127
299.4437641723356	299.54825396825396	75	127
299.54825396825396	299.59469387755104	63	127
299.54825396825396	299.67596371882087	79	127
299.54825396825396	299.59469387755104	67	127
299.67596371882087	299.7456235827664	67	127
299.67596371882087	299.7456235827664	64	127
299.67596371882087	300.04748299319726	82	127
299.81528344671204	299.8849433106576	67	127
299.81528344671204	299.8849433106576	64	127
299.81528344671204	300.04748299319726	41	127
300.04748299319726	300.1171428571429	65	127
300.04748299319726	300.40739229024945	80	127
300.04748299319726	300.1171428571429	68	127
300.04748299319726	300.26807256235827	44	127
300.26807256235827	300.3377097505669	65	127
300.26807256235827	300.4886621315193	48	127
300.26807256235827	300.3377097505669	68	127
300.4886621315193	300.5466893424036	65	127
300.4886621315193	300.77891156462584	51	127
300.4886621315193	300.5466893424036	68	127
300.6047619047619	300.65120181405894	65	127
300.6047619047619	300.65120181405894	68	127
300.6047619047619	300.77891156462584	70	127
300.77891156462584	300.99950113378685	74	127
300.77891156462584	301.12721088435376	50	127
300.77891156462584	300.84854875283446	65	127
300.77891156462584	300.84854875283446	68	127
300.99950113378685	301.18526077097505	77	127
300.99950113378685	301.0575283446712	68	127
300.99950113378685	301.0575283446712	65	127
301.18526077097505	301.25489795918367	62	127
301.18526077097505	301.25489795918367	65	127
301.18526077097505	301.6032199546485	80	127
301.3826303854875	301.44068027210886	65	127
301.3826303854875	301.6032199546485	39	127
301.3826303854875	301.44068027210886	62	127
301.6032199546485	301.93990929705217	79	127
301.6032199546485	301.6728798185941	63	127
301.6032199546485	301.82380952380953	43	127
301.6032199546485	301.6728798185941	67	127
301.82380952380953	302.021179138322	46	127
301.82380952380953	301.8934693877551	63	127
301.82380952380953	301.8934693877551	67	127
302.021179138322	302.09083900226756	63	127
302.021179138322	302.35786848072564	50	127
302.021179138322	302.09083900226756	67	127
302.1836961451247	302.35786848072564	68	127
302.1836961451247	302.23015873015873	67	127
302.1836961451247	302.23015873015873	63	127
302.35786848072564	302.57845804988665	72	127
302.35786848072564	302.7061678004535	48	127
302.35786848072564	302.41591836734693	63	127
302.35786848072564	302.41591836734693	67	127
302.57845804988665	302.63650793650794	63	127
302.57845804988665	302.63650793650794	67	127
302.57845804988665	302.7990476190476	75	127
302.7990476190476	302.8454875283447	64	127
302.7990476190476	303.1008843537415	79	127
302.7990476190476	302.8454875283447	61	127
302.8803174603175	303.1008843537415	38	127
302.8803174603175	302.94997732426305	64	127
302.8803174603175	302.94997732426305	61	127
303.1008843537415	303.13573696145124	65	127
303.1008843537415	303.13573696145124	62	127
303.1008843537415	303.2866666666667	41	127
303.1008843537415	303.3795464852608	77	127
303.2866666666667	303.32149659863944	65	127
303.2866666666667	303.4608163265306	44	127
303.2866666666667	303.32149659863944	62	127
303.4608163265306	303.5072335600907	62	127
303.4608163265306	303.85555555555555	48	127
303.4608163265306	303.5072335600907	65	127
303.6233560090703	303.6930158730159	65	127
303.6233560090703	303.85555555555555	67	127
303.6233560090703	303.6930158730159	62	127
303.85555555555555	304.0645351473923	71	127
303.85555555555555	303.9252154195011	65	127
303.85555555555555	303.9252154195011	62	127
303.85555555555555	304.1922448979592	47	127
304.0645351473923	304.27351473922903	74	127
304.0645351473923	304.13419501133785	65	127
304.0645351473923	304.13419501133785	62	127
304.27351473922903	304.5637641723356	77	127
304.27351473922903	304.3315646258503	62	127
304.27351473922903	304.3315646258503	59	127
304.3663945578231	304.5637641723356	48	127
304.3663945578231	304.4360544217687	62	127
304.3663945578231	304.4360544217687	59	127
304.5637641723356	304.62181405895694	63	127
304.5637641723356	304.77274376417233	44	127
304.5637641723356	304.62181405895694	60	127
304.5637641723356	304.86562358276643	75	127
304.77274376417233	304.94689342403626	43	127
304.77274376417233	304.7959637188209	63	127
304.77274376417233	304.7959637188209	60	127
304.94689342403626	305.1442403628118	42	127
304.94689342403626	305.1442403628118	60	127
304.94689342403626	305.1442403628118	63	127
305.1442403628118	305.24873015873015	84	127
305.3532199546485	305.5157823129252	87	127
305.5157823129252	305.6318820861678	75	127
305.5157823129252	305.6318820861678	42	127
305.5157823129252	305.6318820861678	72	127
305.74798185941046	305.9685714285714	69	127
305.74798185941046	305.9685714285714	63	127
305.74798185941046	305.9685714285714	54	127
305.9685714285714	306.08467120181405	81	127
306.1427210884354	306.2704081632653	84	127
306.2704081632653	306.3865306122449	42	127
306.2704081632653	306.3865306122449	69	127
306.2704081632653	306.3865306122449	72	127
306.49102040816325	306.83931972789117	54	127
306.49102040816325	306.83931972789117	60	127
306.49102040816325	306.83931972789117	63	127
306.7	306.8160997732426	78	127
306.920589569161	306.93219954648526	81	127
307.02507936507936	307.141179138322	72	127
307.02507936507936	307.141179138322	60	127
307.02507936507936	307.141179138322	48	127
307.2340589569161	307.3269387755102	51	127
307.2340589569161	307.3269387755102	75	127
307.2340589569161	307.3269387755102	63	127
307.38496598639455	307.47786848072565	69	127
307.38496598639455	307.47786848072565	45	127
307.38496598639455	307.47786848072565	57	127
307.57074829931975	307.6752380952381	60	127
307.57074829931975	307.6752380952381	48	127
307.57074829931975	307.6752380952381	72	127
307.7681179138322	307.8377777777778	54	127
307.7681179138322	307.8377777777778	66	127
307.7681179138322	307.8377777777778	42	127
307.9306575963719	308.1396371882086	67	127
307.9306575963719	308.023537414966	67	127
307.9306575963719	308.1396371882086	55	127
307.9306575963719	308.1396371882086	43	127
308.1396371882086	308.2325170068027	55	127
308.3253968253968	308.4879365079365	55	127
308.3253968253968	308.3950566893424	67	127
308.3253968253968	308.4879365079365	47	127
308.3253968253968	308.4879365079365	62	127
308.3253968253968	308.4879365079365	65	127
308.4879365079365	308.60403628117916	62	127
308.70852607709753	308.89428571428573	63	127
308.70852607709753	308.89428571428573	48	127
308.70852607709753	308.89428571428573	55	127
308.70852607709753	308.80140589569163	63	127
308.70852607709753	308.89428571428573	60	127
308.89428571428573	308.952335600907	60	127
309.0568253968254	309.1380952380952	72	127
309.0568253968254	309.2309523809524	44	127
309.0568253968254	309.2309523809524	60	127
309.0568253968254	309.2309523809524	60	127
309.2309523809524	309.33544217687074	66	127
309.4399319727891	309.5328117913832	59	127
309.4399319727891	309.74179138321995	43	127
309.4399319727891	309.5328117913832	62	127
309.4399319727891	309.5328117913832	67	127
309.6257142857143	309.7185941043084	59	127
309.6257142857143	309.7185941043084	55	127
309.6257142857143	309.7185941043084	62	127
309.8230839002268	309.89274376417234	65	127
309.8230839002268	309.89274376417234	71	127
309.8230839002268	309.89274376417234	62	127
310.008843537415	310.06689342403627	67	127
310.008843537415	310.06689342403627	55	127
310.008843537415	310.06689342403627	59	127
310.1365532879819	310.2526303854875	63	127
310.1365532879819	310.2526303854875	67	127
310.1365532879819	310.2526303854875	72	127
310.3571201814059	310.4035827664399	67	127
310.3571201814059	310.4035827664399	60	127
310.3571201814059	310.4035827664399	63	127
310.51968253968255	310.6241723356009	75	127
310.51968253968255	310.6241723356009	60	127
310.51968253968255	310.6241723356009	72	127
310.7286621315193	310.8447619047619	72	127
310.7286621315193	310.8447619047619	57	127
310.7286621315193	310.8447619047619	66	127
310.96086167800456	311.1930612244898	59	127
310.96086167800456	311.1930612244898	79	127
310.96086167800456	311.1930612244898	67	127
310.96086167800456	311.8548299319728	43	127
311.8548299319728	312.040589569161	45	127
312.040589569161	312.2031065759637	47	127
312.2031065759637	312.43532879818594	48	127
312.43532879818594	313.2596371882086	51	127
312.62108843537413	312.6675283446712	72	127
312.62108843537413	312.6675283446712	69	127
312.83006802721087	312.91131519274376	72	127
312.83006802721087	313.0506575963719	69	127
313.0506575963719	313.1087074829932	72	127
313.0506575963719	313.2131746031746	67	127
313.2596371882086	313.5266439909297	50	127
313.2596371882086	313.4453968253968	67	127
313.2596371882086	313.4453968253968	72	127
313.4453968253968	313.59632653061226	57	127
313.4453968253968	313.5498866213152	74	127
313.4453968253968	313.5498866213152	66	127
313.59632653061226	313.805306122449	74	127
313.59632653061226	313.65437641723355	66	127
313.59632653061226	313.805306122449	59	127
313.805306122449	313.9794557823129	60	127
313.805306122449	313.87496598639456	66	127
313.805306122449	313.9562358276644	75	127
313.9794557823129	314.2116553287982	75	127
313.9794557823129	314.96630385487526	43	127
313.9794557823129	314.2116553287982	66	127
313.9794557823129	314.2116553287982	60	127
314.2116553287982	314.32775510204084	59	127
314.2116553287982	314.32775510204084	74	127
314.2116553287982	314.32775510204084	67	127
314.37419501133786	314.4322448979592	67	127
314.37419501133786	314.5367346938776	59	127
314.37419501133786	314.4322448979592	74	127
314.5715646258503	314.64122448979595	74	127
314.5715646258503	314.7108843537415	59	127
314.5715646258503	314.64122448979595	67	127
314.7573015873016	315.0591609977324	74	127
314.7573015873016	315.0591609977324	59	127
314.7573015873016	315.0591609977324	67	127
314.96630385487526	315.14045351473925	45	127
315.14045351473925	315.3029931972789	47	127
315.3029931972789	315.5351927437642	48	127
315.5351927437642	316.2898185941043	51	127
315.7209523809524	315.76739229024946	72	127
315.7209523809524	315.76739229024946	69	127
315.8951020408163	315.95315192743766	72	127
315.8951020408163	316.0924716553288	69	127
316.0924716553288	316.2434013605442	67	127
316.0924716553288	316.13891156462586	72	127
316.2898185941043	316.5336507936508	67	127
316.2898185941043	316.6149206349206	50	127
316.2898185941043	316.5336507936508	72	127
316.5336507936508	316.67297052154197	57	127
316.5336507936508	316.64975056689343	66	127
316.5336507936508	316.64975056689343	74	127
316.67297052154197	316.893537414966	59	127
316.67297052154197	316.73102040816326	66	127
316.67297052154197	316.893537414966	74	127
316.893537414966	317.0328798185941	75	127
316.893537414966	316.96321995464854	66	127
316.893537414966	317.04448979591837	60	127
317.04448979591837	317.160589569161	75	127
317.04448979591837	317.8455782312925	43	127
317.04448979591837	317.27668934240364	59	127
317.04448979591837	317.160589569161	66	127
317.160589569161	317.31149659863945	67	127
317.160589569161	317.31149659863945	74	127
317.3463492063492	317.3927891156463	71	127
317.3463492063492	317.3927891156463	74	127
317.52049886621313	317.5669387755102	74	127
317.52049886621313	317.5669387755102	71	127
317.72947845804987	317.9848979591837	67	127
317.72947845804987	317.9848979591837	74	127
317.72947845804987	318.62344671201816	55	127
317.8920181405896	318.0777777777778	43	127
318.0777777777778	318.24031746031744	47	127
318.24031746031744	318.4144671201814	50	127
318.46090702947845	319.44775510204084	67	127
318.46090702947845	318.6931065759637	55	127
318.6931065759637	318.93691609977327	59	127
318.6931065759637	318.93691609977327	53	127
318.93691609977327	319.09945578231293	62	127
318.93691609977327	319.09945578231293	50	127
319.09945578231293	319.2968253968254	47	127
319.09945578231293	319.2968253968254	65	127
319.2968253968254	319.4593424036281	67	127
319.2968253968254	320.17918367346937	79	127
319.2968253968254	319.5638321995465	43	127
319.4593424036281	319.6451247165533	71	127
319.4593424036281	319.6451247165533	65	127
319.6451247165533	319.8656916099773	62	127
319.6451247165533	319.8656916099773	74	127
319.8656916099773	320.028253968254	77	127
319.8656916099773	320.028253968254	59	127
320.028253968254	320.3881632653061	55	127
320.028253968254	320.248843537415	79	127
320.248843537415	320.48102040816326	83	127
320.248843537415	320.48102040816326	77	127
320.48102040816326	320.6087528344671	74	127
320.48102040816326	320.6087528344671	86	127
320.6087528344671	320.75968253968256	89	127
320.6087528344671	320.7132426303855	71	127
320.75968253968256	321.1079818594104	67	127
320.75968253968256	321.1079818594104	55	127
320.75968253968256	321.1079818594104	59	127
320.75968253968256	321.1079818594104	62	127
320.75968253968256	320.98027210884356	91	127
320.98027210884356	321.2008616780045	89	127
321.2008616780045	321.31696145124715	86	127
321.31696145124715	321.4330612244898	83	127
321.47950113378687	321.89746031746034	65	127
321.47950113378687	321.89746031746034	43	127
321.47950113378687	321.7465306122449	91	127
321.47950113378687	321.89746031746034	55	127
321.47950113378687	321.89746031746034	62	127
321.47950113378687	321.89746031746034	71	127
321.7465306122449	322.0019501133787	89	127
322.0019501133787	322.26897959183674	86	127
323.33707482993196	323.4067573696145	60	127
323.33707482993196	324.25426303854874	72	127
323.33707482993196	324.25426303854874	64	127
323.5460544217687	323.5925170068027	60	127
323.871156462585	323.94081632653064	60	127
324.0685260770975	324.1381859410431	60	127
324.2891156462585	324.5097052154195	64	127
324.2891156462585	324.5097052154195	72	127
324.2891156462585	324.3587528344671	60	127
324.5097052154195	324.5561451247166	60	127
324.5097052154195	324.6954648526077	65	127
324.5097052154195	324.6954648526077	74	127
324.6954648526077	324.8695918367347	76	127
324.6954648526077	324.7419047619048	60	127
324.6954648526077	324.8695918367347	67	127
324.89283446712017	325.5546031746032	70	127
324.89283446712017	325.5546031746032	79	127
324.89283446712017	325.5546031746032	64	127
324.89283446712017	324.9508843537415	60	127
325.09020408163263	325.1134240362812	60	127
325.148253968254	325.21791383219954	60	127
325.34562358276645	325.415283446712	60	127
325.5546031746032	325.9261224489796	69	127
325.5546031746032	325.62426303854875	60	127
325.5546031746032	325.9261224489796	65	127
325.5546031746032	325.9261224489796	77	127
325.78680272108846	325.856462585034	60	127
326.0190022675737	326.07705215419503	60	127
326.2395918367347	326.3092290249433	60	127
326.48340136054424	327.35414965986394	71	127
326.48340136054424	326.5530612244898	60	127
326.48340136054424	327.35414965986394	74	127
326.7155782312925	326.7736507936508	60	127
326.7736507936508	326.8317006802721	60	127
326.97102040816327	327.04068027210883	60	127
327.1916099773243	327.26126984126984	60	127
327.400589569161	327.4586394557823	60	127
327.400589569161	327.5979591836735	71	127
327.400589569161	327.5979591836735	74	127
327.5979591836735	327.79532879818595	76	127
327.5979591836735	327.6560090702948	60	127
327.5979591836735	327.79532879818595	72	127
327.79532879818595	327.85337868480724	77	127
327.79532879818595	327.8185487528345	60	127
327.79532879818595	327.85337868480724	74	127
327.8765986394558	328.51514739229026	81	127
327.8765986394558	327.9462358276644	60	127
327.8765986394558	328.51514739229026	71	127
327.8765986394558	328.51514739229026	77	127
328.10879818594105	328.1784580498866	60	127
328.34099773242633	328.4106575963719	60	127
328.51514739229026	328.8634240362812	79	127
328.51514739229026	328.5848072562358	60	127
328.51514739229026	328.8634240362812	72	127
328.51514739229026	328.8634240362812	76	127
328.74734693877554	328.79378684807256	60	127
328.9563265306123	329.02598639455783	60	127
329.1885260770975	329.2581859410431	60	127
329.42072562358277	329.79224489795916	60	127
329.42072562358277	330.37274376417236	79	127
329.42072562358277	329.65292517006804	72	127
329.42072562358277	329.65292517006804	76	127
329.65292517006804	329.87351473922905	74	127
329.65292517006804	329.87351473922905	71	127
329.87351473922905	330.0708843537415	72	127
329.87351473922905	330.0708843537415	76	127
330.0708843537415	330.2334240362812	71	127
330.0708843537415	330.2334240362812	74	127
330.2334240362812	330.37274376417236	60	127
330.2334240362812	330.50043083900226	72	127
330.2334240362812	330.50043083900226	76	127
330.4191836734694	330.488843537415	79	127
330.59331065759636	330.7674829931973	59	127
330.59331065759636	330.6629931972789	81	127
330.8139229024943	330.88358276643993	83	127
330.96485260770976	331.3015419501134	57	127
330.96485260770976	331.18544217687077	69	127
330.96485260770976	331.18544217687077	72	127
330.96485260770976	331.18544217687077	84	127
331.18544217687077	331.38281179138323	67	127
331.18544217687077	331.3479818594104	76	127
331.18544217687077	331.38281179138323	71	127
331.38281179138323	331.55696145124716	72	127
331.38281179138323	331.55696145124716	69	127
331.38281179138323	331.7659410430839	77	127
331.55696145124716	331.68467120181407	71	127
331.55696145124716	331.68467120181407	67	127
331.68467120181407	332.0213605442177	69	127
331.68467120181407	331.83560090702946	57	127
331.68467120181407	332.0213605442177	72	127
331.88204081632654	331.9517006802721	76	127
332.1142403628118	332.1722902494331	77	127
332.1142403628118	332.24195011337866	55	127
332.28839002267574	332.3580498866213	79	127
332.50897959183675	332.7643990929705	53	127
332.50897959183675	332.6134693877551	65	127
332.50897959183675	332.6482766439909	81	127
332.50897959183675	332.6134693877551	69	127
332.6482766439909	332.8108390022676	67	127
332.6482766439909	332.8108390022676	73	127
332.6482766439909	332.8108390022676	64	127
332.8572789115646	332.9269387755102	74	127
332.8572789115646	333.0314285714286	69	127
332.8572789115646	333.0314285714286	65	127
333.0778684807256	333.2055782312925	67	127
333.0778684807256	333.2055782312925	57	127
333.0778684807256	333.2055782312925	61	127
333.0778684807256	333.1126984126984	76	127
333.2519954648526	333.35648526077097	65	127
333.2519954648526	333.35648526077097	62	127
333.2519954648526	333.37972789115645	77	127
333.2519954648526	333.4958276643991	50	127
333.37972789115645	333.54226757369617	64	127
333.37972789115645	333.54226757369617	60	127
333.37972789115645	333.54226757369617	69	127
333.5887074829932	333.7628344671202	62	127
333.5887074829932	333.7628344671202	65	127
333.5887074829932	333.6583673469388	74	127
333.8092970521542	333.87895691609975	72	127
333.8092970521542	333.9834467120181	66	127
333.8092970521542	333.9834467120181	69	127
333.8092970521542	333.9834467120181	62	127
334.0298866213152	334.2156462585034	72	127
334.0298866213152	334.32013605442177	55	127
334.0298866213152	334.32013605442177	67	127
334.0298866213152	334.32013605442177	67	127
334.2156462585034	334.3433560090703	71	127
334.3781632653061	334.4478458049887	69	127
334.3781632653061	334.72648526077097	55	127
334.3781632653061	334.72648526077097	59	127
334.58714285714285	334.61038548752833	67	127
334.72648526077097	335.14444444444445	60	127
334.72648526077097	335.14444444444445	57	127
334.72648526077097	334.9354648526077	66	127
334.9354648526077	335.14444444444445	67	127
335.14444444444445	335.58562358276646	62	127
335.14444444444445	335.58562358276646	59	127
335.14444444444445	335.21410430839	65	127
335.3766439909297	335.4463038548753	62	127
335.58562358276646	336.4331292517007	60	127
335.58562358276646	335.8526530612245	60	127
335.58562358276646	335.8526530612245	60	127
335.73655328798185	335.80621315192747	36	127
335.89909297052156	335.9339229024943	40	127
336.05002267573695	336.11965986394557	43	127
336.2938321995465	337.12975056689345	48	127
336.2938321995465	336.6189115646259	48	127
336.50281179138324	336.68857142857144	60	127
336.68857142857144	337.0136507936508	36	127
336.68857142857144	336.8859410430839	62	127
336.8859410430839	337.08331065759637	64	127
337.08331065759637	337.5128798185941	67	127
337.08331065759637	337.84956916099776	57	127
337.17619047619047	337.40839002267575	49	127
337.17619047619047	337.2458276643991	38	127
337.40839002267575	337.42	41	127
337.40839002267575	337.46643990929704	50	127
337.46643990929704	337.6986394557823	52	127
337.46643990929704	337.53609977324265	45	127
337.6986394557823	338.0121088435374	50	127
337.6986394557823	338.0121088435374	65	127
337.6986394557823	338.6158276643991	53	127
337.8960090702948	338.09337868480725	57	127
338.09337868480725	338.4300680272109	38	127
338.09337868480725	338.302358276644	59	127
338.302358276644	338.4648752834467	60	127
338.4648752834467	339.1150566893424	60	127
338.4648752834467	339.40530612244896	62	127
338.67385487528344	338.85963718820864	54	127
338.67385487528344	338.72031746031746	43	127
338.85963718820864	338.9292970521542	47	127
338.85963718820864	339.08020408163264	55	127
339.08020408163264	339.26598639455784	57	127
339.08020408163264	339.12666666666667	50	127
339.26598639455784	339.54462585034014	55	127
339.26598639455784	339.54462585034014	59	127
339.26598639455784	339.54462585034014	59	127
339.44013605442177	339.5910430839002	62	127
339.63750566893424	339.9045124716553	43	127
339.63750566893424	339.7768253968254	64	127
339.63750566893424	340.11349206349206	50	127
339.81165532879817	339.95097505668934	65	127
339.9974149659864	340.9378231292517	59	127
339.9974149659864	340.61272108843536	69	127
340.17156462585035	340.22961451247164	40	127
340.17156462585035	340.3689342403628	51	127
340.3689342403628	340.5663038548753	52	127
340.3689342403628	340.4385941043084	43	127
340.5663038548753	340.63596371882085	47	127
340.5663038548753	340.79850340136056	54	127
340.79850340136056	341.03068027210884	67	127
340.79850340136056	341.58798185941043	55	127
340.79850340136056	341.03068027210884	52	127
340.98426303854876	341.08875283446713	59	127
341.08875283446713	341.20485260770977	60	127
341.08875283446713	341.30934240362814	40	127
341.20485260770977	341.40222222222224	62	127
341.40222222222224	342.02916099773245	62	127
341.40222222222224	342.36585034013603	64	127
341.62281179138324	341.6924716553288	45	127
341.62281179138324	341.80857142857144	55	127
341.80857142857144	341.878231292517	48	127
341.80857142857144	341.98272108843537	57	127
341.98272108843537	342.2033106575964	59	127
341.98272108843537	342.052358276644	52	127
342.2033106575964	342.3890702947846	60	127
342.2033106575964	342.56319727891156	60	127
342.2033106575964	342.56319727891156	57	127
342.43551020408165	342.6328798185941	60	127
342.43551020408165	342.6328798185941	64	127
342.6328798185941	342.8302494331066	62	127
342.6328798185941	342.981179138322	58	127
342.6328798185941	342.981179138322	55	127
342.6328798185941	342.8302494331066	65	127
342.8302494331066	343.07403628117913	64	127
342.8302494331066	343.07403628117913	67	127
343.07403628117913	343.43396825396826	57	127
343.07403628117913	343.3178684807256	65	127
343.07403628117913	343.3178684807256	69	127
343.07403628117913	343.46879818594107	53	127
343.3178684807256	343.46879818594107	69	127
343.3178684807256	343.46879818594107	72	127
343.46879818594107	343.6081179138322	55	127
343.46879818594107	343.6081179138322	67	127
343.46879818594107	343.6081179138322	70	127
343.6081179138322	343.8170975056689	57	127
343.6081179138322	343.8170975056689	65	127
343.6081179138322	343.8170975056689	69	127
343.8170975056689	344.02607709750566	64	127
343.8170975056689	345.233514739229	60	127
343.8170975056689	344.43242630385487	58	127
343.8170975056689	344.02607709750566	67	127
344.02607709750566	344.21183673469386	64	127
344.02607709750566	344.21183673469386	60	127
344.21183673469386	344.38598639455785	65	127
344.21183673469386	344.38598639455785	62	127
344.38598639455785	344.53691609977324	67	127
344.38598639455785	344.53691609977324	64	127
344.5833560090703	344.8155328798186	57	127
344.5833560090703	344.8155328798186	69	127
344.5833560090703	344.8155328798186	65	127
344.8155328798186	345.01290249433106	84	127
344.8155328798186	345.01290249433106	81	127
344.8155328798186	345.01290249433106	53	127
345.01290249433106	345.187074829932	79	127
345.01290249433106	345.187074829932	55	127
345.01290249433106	345.187074829932	82	127
345.187074829932	345.3728344671202	77	127
345.187074829932	345.3728344671202	81	127
345.187074829932	345.3728344671202	57	127
345.3728344671202	345.5818140589569	79	127
345.3728344671202	345.9881632653061	58	127
345.3728344671202	345.5818140589569	76	127
345.3728344671202	345.9881632653061	60	127
345.5818140589569	345.7443537414966	72	127
345.5818140589569	345.7443537414966	76	127
345.7443537414966	345.9533333333333	77	127
345.7443537414966	345.9533333333333	74	127
345.9533333333333	346.0926530612245	76	127
345.9533333333333	346.0926530612245	79	127
346.1390702947846	346.4641723356009	57	127
346.1390702947846	346.3248526077098	76	127
346.1390702947846	346.3248526077098	61	127
346.1390702947846	346.557052154195	81	127
346.3248526077098	346.51061224489797	64	127
346.3248526077098	346.51061224489797	67	127
346.557052154195	346.6267120181406	67	127
346.557052154195	347.2884807256236	73	127
346.557052154195	346.6267120181406	64	127
346.69637188208617	346.76603174603173	64	127
346.69637188208617	346.76603174603173	67	127
346.8588888888889	347.1956009070295	50	127
346.8588888888889	347.06789115646257	64	127
346.8588888888889	347.06789115646257	67	127
347.06789115646257	347.24204081632655	66	127
347.06789115646257	347.24204081632655	62	127
347.2884807256236	347.3581405895692	62	127
347.2884807256236	347.57873015873014	74	127
347.2884807256236	347.3581405895692	66	127
347.4742176870748	347.5439002267574	66	127
347.4742176870748	347.5439002267574	62	127
347.64839002267576	347.86897959183676	65	127
347.64839002267576	347.97344671201813	55	127
347.64839002267576	347.86897959183676	62	127
347.86897959183676	348.01990929705215	77	127
347.86897959183676	348.01990929705215	74	127
348.06634920634923	348.1360090702948	77	127
348.06634920634923	348.1360090702948	74	127
348.06634920634923	348.78616780045354	83	127
348.29854875283445	348.36820861678007	74	127
348.29854875283445	348.36820861678007	77	127
348.4378684807256	348.6004081632653	74	127
348.4378684807256	348.6004081632653	77	127
348.4378684807256	348.7281179138322	57	127
348.6004081632653	348.762947845805	72	127
348.6004081632653	348.762947845805	76	127
348.78616780045354	349.0880272108844	84	127
348.78616780045354	348.84421768707483	76	127
348.78616780045354	348.84421768707483	72	127
348.983537414966	349.0415873015873	72	127
348.983537414966	349.0415873015873	76	127
349.1692970521542	349.3085941043084	57	127
349.1692970521542	349.25056689342404	86	127
349.1692970521542	349.3085941043084	60	127
349.25056689342404	349.33183673469387	88	127
349.3550566893424	349.42471655328796	84	127
349.42471655328796	349.43632653061223	81	127
349.4595464852608	350.0748752834467	76	127
349.4595464852608	349.56403628117914	69	127
349.4595464852608	349.56403628117914	72	127
349.56403628117914	349.65691609977324	71	127
349.56403628117914	349.65691609977324	68	127
349.65691609977324	349.7730158730159	69	127
349.65691609977324	349.7730158730159	72	127
349.7730158730159	349.87750566893425	68	127
349.7730158730159	349.87750566893425	71	127
349.87750566893425	350.4580045351474	69	127
349.87750566893425	350.4580045351474	72	127
349.87750566893425	350.4580045351474	62	127
350.22578231292516	350.28385487528345	79	127
350.28385487528345	350.34190476190474	78	127
350.34190476190474	350.41156462585036	79	127
350.41156462585036	350.4928344671202	78	127
350.4928344671202	350.53925170068027	76	127
350.53925170068027	350.59732426303856	78	127
350.59732426303856	350.7134240362812	79	127
350.59732426303856	350.81791383219957	67	127
350.59732426303856	350.81791383219957	71	127
350.59732426303856	350.8643537414966	55	127
350.7134240362812	350.81791383219957	81	127
350.81791383219957	350.91079365079366	62	127
350.81791383219957	350.91079365079366	67	127
350.81791383219957	350.8411111111111	83	127
350.8411111111111	350.9572335600907	84	127
350.9572335600907	351.0268934240363	67	127
350.9572335600907	351.09655328798186	86	127
350.9572335600907	351.0268934240363	71	127
351.10816326530613	351.1662131519274	67	127
351.10816326530613	351.1662131519274	71	127
351.32875283446714	351.4332426303855	78	127
351.32875283446714	351.6654195011338	55	127
351.4332426303855	351.5377324263039	79	127
351.5377324263039	351.7467120181406	72	127
351.5377324263039	351.64222222222224	81	127
351.5377324263039	351.70027210884354	66	127
351.64222222222224	351.7467120181406	83	127
351.7467120181406	351.851201814059	84	127
351.7467120181406	351.851201814059	66	127
351.7467120181406	351.88603174603173	69	127
351.88603174603173	352.0834013605442	72	127
351.88603174603173	352.0369614512472	66	127
351.88603174603173	352.0369614512472	81	127
352.0834013605442	352.23433106575965	67	127
352.0834013605442	352.1646485260771	79	127
352.0834013605442	352.28077097505667	71	127
352.0834013605442	352.4084807256236	55	127
352.1646485260771	352.28077097505667	81	127
352.28077097505667	352.38526077097504	83	127
352.28077097505667	352.45492063492065	62	127
352.28077097505667	352.45492063492065	67	127
352.38526077097504	352.5013605442177	84	127
352.5013605442177	352.6290702947846	86	127
352.5013605442177	352.5710204081633	67	127
352.5013605442177	352.5710204081633	71	127
352.67551020408166	352.7451700680272	67	127
352.67551020408166	352.7451700680272	71	127
352.9077097505669	353.000589569161	78	127
352.9077097505669	353.2443990929705	55	127
353.000589569161	353.10507936507935	79	127
353.10507936507935	353.221179138322	81	127
353.10507936507935	353.2908163265306	72	127
353.10507936507935	353.2908163265306	66	127
353.221179138322	353.3024489795918	83	127
353.32566893424035	353.4069387755102	69	127
353.32566893424035	353.4069387755102	84	127
353.32566893424035	353.4301587301587	66	127
353.4069387755102	353.4301587301587	72	127
353.4069387755102	353.4301587301587	81	127
353.4301587301587	353.5230385487528	69	127
353.4301587301587	353.58108843537417	66	127
353.4301587301587	353.5230385487528	84	127
353.5230385487528	353.6275283446712	72	127
353.5230385487528	353.6042857142857	81	127
353.6275283446712	353.74362811791383	71	127
353.6275283446712	353.6971882086168	55	127
353.6275283446712	353.6971882086168	67	127
353.6275283446712	353.81326530612245	79	127
353.74362811791383	353.82489795918366	74	127
353.82489795918366	353.9409977324263	83	127
353.82489795918366	353.8945578231293	66	127
353.82489795918366	353.8945578231293	50	127
353.82489795918366	353.9409977324263	71	127
353.9409977324263	354.0338775510204	74	127
353.9409977324263	353.95260770975057	81	127
354.0338775510204	354.103537414966	67	127
354.0338775510204	354.14997732426303	71	127
354.0338775510204	354.21961451247165	79	127
354.0338775510204	354.103537414966	55	127
354.14997732426303	354.2544671201814	74	127
354.2544671201814	354.37056689342404	71	127
354.2544671201814	354.32410430839	50	127
354.2544671201814	354.37056689342404	83	127
354.2544671201814	354.32410430839	66	127
354.37056689342404	354.4866666666667	74	127
354.37056689342404	354.40539682539685	81	127
354.4866666666667	354.7536961451247	67	127
354.4866666666667	354.7536961451247	79	127
354.4866666666667	354.7536961451247	71	127
354.4866666666667	354.7536961451247	55	127
355.18326530612245	355.27614512471655	64	127
355.2993650793651	355.71732426303856	79	127
355.2993650793651	355.5083446712018	67	127
355.2993650793651	355.5083446712018	64	127
355.2993650793651	355.5083446712018	48	127
355.2993650793651	355.71732426303856	64	127
355.2993650793651	355.71732426303856	72	127
355.5083446712018	355.6708843537415	48	127
355.5083446712018	355.6708843537415	60	127
355.5083446712018	355.6708843537415	64	127
355.71732426303856	355.77537414965985	64	127
355.71732426303856	355.8914739229025	48	127
355.71732426303856	355.77537414965985	67	127
355.82181405895693	355.85662131519274	77	127
355.9263038548753	356.10045351473923	48	127
355.9263038548753	355.99596371882086	67	127
355.9263038548753	355.99596371882086	64	127
355.9263038548753	355.96113378684805	76	127
356.04240362811794	356.0656235827664	74	127
356.1468934240363	356.4835827664399	67	127
356.1468934240363	356.4835827664399	64	127
356.1468934240363	356.4835827664399	48	127
356.1468934240363	356.1701133786848	72	127
356.2513832199547	356.2862131519274	71	127
356.3442630385488	356.3790929705215	69	127
356.4603401360544	356.49519274376416	67	127
356.58807256235826	356.6229024943311	64	127
356.69256235827663	356.72739229024944	62	127
356.7738095238095	356.797052154195	60	127
356.85510204081635	357.7374603174603	50	127
356.85510204081635	357.7374603174603	55	127
356.85510204081635	357.7374603174603	53	127
356.85510204081635	356.9363718820862	59	127
356.9363718820862	357.017641723356	62	127
357.017641723356	357.1105215419501	60	127
357.1105215419501	357.19179138321994	64	127
357.19179138321994	357.2730612244898	62	127
357.2730612244898	357.3427210884354	65	127
357.3427210884354	357.4356009070295	64	127
357.4356009070295	357.5517006802721	67	127
357.5517006802721	357.88839002267576	65	127
357.5517006802721	357.66780045351476	59	127
357.66780045351476	357.7722902494331	62	127
357.7722902494331	357.8651700680272	60	127
357.8651700680272	357.9696598639456	64	127
357.9696598639456	358.0509297052154	62	127
358.0509297052154	358.1554195011338	65	127
358.1554195011338	358.2482993197279	64	127
358.2482993197279	358.29473922902497	67	127
358.29473922902497	358.5036961451247	62	127
358.29473922902497	358.5036961451247	55	127
358.29473922902497	358.5036961451247	65	127
358.29473922902497	358.4108163265306	77	127
358.4108163265306	358.48049886621317	79	127
358.5036961451247	358.53854875283446	81	127
358.5036961451247	358.6894784580499	43	127
358.5036961451247	358.6894784580499	62	127
358.5036961451247	358.6894784580499	59	127
358.6198185941043	358.6546485260771	79	127
358.7359183673469	358.7939682539683	65	127
358.7359183673469	358.7939682539683	55	127
358.7359183673469	358.75913832199547	77	127
358.7359183673469	358.7939682539683	62	127
358.828798185941	358.86362811791383	76	127
358.9332879818594	358.95650793650793	55	127
358.9332879818594	358.95650793650793	62	127
358.9332879818594	358.95650793650793	65	127
359.002947845805	359.03777777777776	72	127
359.11902494331065	359.30480725623585	62	127
359.11902494331065	359.1887074829932	71	127
359.11902494331065	359.71115646258505	55	127
359.11902494331065	359.30480725623585	65	127
359.1887074829932	359.30480725623585	72	127
359.30480725623585	359.44412698412697	59	127
359.30480725623585	359.44412698412697	62	127
359.30480725623585	359.3396371882086	74	127
359.3744671201814	359.4092970521542	72	127
359.4789569160998	359.6298639455782	62	127
359.4789569160998	359.5137868480726	71	127
359.4789569160998	359.6298639455782	59	127
359.58344671201814	359.5950566893424	69	127
359.67632653061224	359.7343537414966	59	127
359.67632653061224	359.71115646258505	67	127
359.67632653061224	359.7343537414966	62	127
359.76920634920634	359.7924263038549	65	127
359.8736961451247	360.1639455782313	48	127
359.8736961451247	360.1639455782313	60	127
359.8736961451247	359.9665759637188	64	127
359.8736961451247	360.1639455782313	60	127
359.9665759637188	360.0362358276644	67	127
360.0362358276644	360.1407029478458	65	127
360.1407029478458	360.2568253968254	69	127
360.2568253968254	360.372925170068	67	127
360.372925170068	360.4658049886621	70	127
360.4658049886621	360.547074829932	69	127
360.547074829932	360.6399546485261	72	127
360.6399546485261	360.75603174603174	60	127
360.6399546485261	360.9766439909297	70	127
360.6399546485261	360.7328344671202	64	127
360.75603174603174	360.8721541950113	64	127
360.75603174603174	360.8721541950113	67	127
360.8721541950113	360.9650113378685	65	127
360.8721541950113	360.9650113378685	62	127
360.9650113378685	361.06950113378684	65	127
360.9650113378685	361.06950113378684	69	127
361.06950113378684	361.16238095238094	67	127
361.06950113378684	361.16238095238094	64	127
361.16238095238094	361.2436734693878	67	127
361.16238095238094	361.2436734693878	70	127
361.2436734693878	361.2901133786848	65	127
361.2436734693878	361.2901133786848	69	127
361.2901133786848	361.40621315192743	69	127
361.2901133786848	361.40621315192743	72	127
361.40621315192743	361.70807256235827	67	127
361.40621315192743	361.70807256235827	70	127
361.40621315192743	361.5107029478458	76	127
361.5107029478458	361.59197278911563	79	127
361.59197278911563	361.6848299319728	77	127
361.6848299319728	361.7893424036281	81	127
361.7893424036281	361.88219954648525	79	127
361.88219954648525	361.99832199546483	82	127
361.99832199546483	362.1028117913832	81	127
362.1028117913832	362.19566893424036	84	127
362.19566893424036	362.31179138321994	79	127
362.19566893424036	362.4511111111111	82	127
362.31179138321994	362.34662131519275	81	127
362.34662131519275	362.4278911564626	82	127
362.4278911564626	362.5439909297052	81	127
362.5439909297052	362.84585034013605	82	127
362.5439909297052	362.66009070294785	79	127
362.66009070294785	362.7297505668934	77	127
362.7297505668934	362.84585034013605	76	127
362.84585034013605	362.93873015873015	74	127
362.93873015873015	363.02	45	127
362.93873015873015	363.12448979591835	82	127
362.93873015873015	364.1345351473923	73	127
362.93873015873015	364.1345351473923	67	127
363.02	363.12448979591835	49	127
363.12448979591835	363.25219954648526	81	127
363.12448979591835	363.1825396825397	47	127
363.1825396825397	363.29863945578234	50	127
363.29863945578234	363.9952380952381	81	127
363.29863945578234	363.414716553288	49	127
363.414716553288	363.51920634920634	52	127
363.51920634920634	363.61210884353744	50	127
363.61210884353744	363.7281859410431	53	127
363.7281859410431	364.0881179138322	52	127
364.1926077097506	364.5292970521542	79	127
364.1926077097506	364.5292970521542	73	127
364.1926077097506	364.4363945578231	81	127
364.5292970521542	365.73673469387757	74	127
364.5292970521542	364.64537414965986	50	127
364.5292970521542	365.73673469387757	77	127
364.5292970521542	364.8659863945578	81	127
364.64537414965986	364.7498639455782	53	127
364.7498639455782	364.8659863945578	52	127
364.8659863945578	364.9704761904762	55	127
364.8659863945578	364.9472335600907	77	127
364.9704761904762	365.07496598639455	53	127
364.9704761904762	365.5045351473923	81	127
365.07496598639455	365.1910657596372	57	127
365.1910657596372	365.3071655328798	55	127
365.3071655328798	365.4116553287982	58	127
365.4116553287982	365.70190476190476	57	127
365.64385487528347	365.79478458049886	86	127
365.79478458049886	365.96891156462584	85	127
365.79478458049886	366.14308390022677	57	127
365.79478458049886	366.14308390022677	65	127
365.96891156462584	366.14308390022677	86	127
366.14308390022677	366.32884353741497	86	127
366.14308390022677	367.2924716553288	56	127
366.14308390022677	367.2924716553288	64	127
366.14308390022677	366.24757369614514	40	127
366.24757369614514	366.32884353741497	44	127
366.32884353741497	366.5029931972789	76	127
366.32884353741497	366.4449433106576	42	127
366.4449433106576	366.549433106576	45	127
366.549433106576	367.1647619047619	76	127
366.549433106576	366.6307029478458	44	127
366.6307029478458	366.74680272108844	47	127
366.74680272108844	366.83968253968254	45	127
366.83968253968254	366.93256235827664	48	127
366.93256235827664	367.257641723356	47	127
367.33891156462585	367.6756009070295	74	127
367.33891156462585	367.65238095238095	76	127
367.33891156462585	367.6756009070295	68	127
367.6756009070295	367.78009070294786	45	127
367.6756009070295	368.7088888888889	72	127
367.6756009070295	367.9426303854875	76	127
367.6756009070295	368.7088888888889	69	127
367.78009070294786	367.8613605442177	48	127
367.8613605442177	367.9426303854875	47	127
367.9426303854875	368.05873015873016	50	127
367.9426303854875	368.0355102040816	77	127
368.05873015873016	368.5463492063492	76	127
368.05873015873016	368.1283900226757	48	127
368.1283900226757	368.2328798185941	52	127
368.2328798185941	368.3489795918367	50	127
368.3489795918367	368.46507936507936	53	127
368.46507936507936	368.6740589569161	52	127
368.6160090702948	368.7669387755102	81	127
368.7669387755102	369.0804081632653	60	127
368.7669387755102	369.0804081632653	57	127
368.7669387755102	368.97591836734694	83	127
368.97591836734694	369.15006802721086	84	127
369.15006802721086	369.37065759637187	84	127
369.15006802721086	369.3358276643991	57	127
369.15006802721086	369.2661678004535	41	127
369.15006802721086	369.3358276643991	60	127
369.2661678004535	369.37065759637187	45	127
369.37065759637187	369.47514739229024	74	127
369.37065759637187	369.47514739229024	43	127
369.47514739229024	369.5912471655329	46	127
369.5912471655329	369.7537641723356	60	127
369.5912471655329	369.7189569160998	45	127
369.5912471655329	369.7537641723356	65	127
369.7537641723356	369.8698866213152	69	127
369.7537641723356	369.8698866213152	65	127
369.7537641723356	369.9395464852608	74	127
369.97437641723354	370.05564625850343	53	127
369.97437641723354	370.14852607709753	74	127
370.05564625850343	370.14852607709753	57	127
370.14852607709753	370.22979591836736	84	127
370.14852607709753	370.22979591836736	55	127
370.22979591836736	370.3342857142857	58	127
370.3342857142857	370.4968253968254	72	127
370.3342857142857	370.4968253968254	57	127
370.3342857142857	370.4968253968254	77	127
370.4968253968254	370.64775510204083	84	127
370.4968253968254	370.5780725623583	69	127
370.4968253968254	370.5780725623583	72	127
370.69419501133785	370.8799319727891	84	127
370.69419501133785	370.7986848072562	43	127
370.7986848072562	370.8799319727891	46	127
370.8799319727891	370.9728344671202	45	127
370.8799319727891	370.9728344671202	76	127
370.9728344671202	371.0657142857143	48	127
371.0657142857143	371.22825396825397	47	127
371.0657142857143	371.2862811791383	64	127
371.0657142857143	371.2862811791383	55	127
371.2862811791383	371.4024036281179	76	127
371.2862811791383	371.3443537414966	60	127
371.2862811791383	371.3443537414966	67	127
371.448843537415	371.61138321995463	76	127
371.448843537415	371.50689342403626	55	127
371.50689342403626	371.61138321995463	58	127
371.61138321995463	371.669433106576	84	127
371.61138321995463	371.669433106576	57	127
371.669433106576	371.7507029478458	60	127
371.7507029478458	371.99451247165536	64	127
371.7507029478458	371.99451247165536	79	127
371.7507029478458	371.9480725623583	58	127
371.99451247165536	372.110589569161	76	127
371.99451247165536	372.18027210884355	84	127
371.99451247165536	372.110589569161	67	127
372.21507936507936	372.3195918367347	84	127
372.21507936507936	372.3195918367347	69	127
372.21507936507936	372.45891156462585	57	127
372.21507936507936	372.3195918367347	77	127
372.3195918367347	372.3428117913832	76	127
372.3195918367347	372.3428117913832	67	127
372.3428117913832	372.45891156462585	79	127
372.3428117913832	372.45891156462585	71	127
372.45891156462585	372.5285714285714	69	127
372.45891156462585	372.5285714285714	77	127
372.5285714285714	372.67950113378686	81	127
372.5285714285714	372.6098412698413	81	127
372.5285714285714	372.67950113378686	72	127
372.6098412698413	372.72591836734694	80	127
372.72591836734694	372.7839909297052	83	127
372.7839909297052	372.8768707482993	81	127
372.8768707482993	372.99297052154196	84	127
372.8768707482993	372.9697505668934	65	127
372.8768707482993	373.13226757369614	45	127
372.8768707482993	372.9697505668934	57	127
372.9697505668934	373.0161904761905	55	127
372.9697505668934	373.0161904761905	64	127
373.0161904761905	373.1090702947846	67	127
373.0161904761905	373.1090702947846	58	127
373.1090702947846	373.22517006802724	65	127
373.1090702947846	373.22517006802724	57	127
373.22517006802724	373.3296371882086	77	127
373.22517006802724	373.39931972789117	69	127
373.22517006802724	373.39931972789117	60	127
373.3296371882086	373.4457596371882	76	127
373.4457596371882	373.55024943310656	79	127
373.55024943310656	373.6547392290249	77	127
373.6547392290249	373.77083900226756	65	127
373.6547392290249	373.81727891156464	81	127
373.6547392290249	373.77083900226756	74	127
373.6547392290249	373.99142857142857	53	127
373.77083900226756	373.8404761904762	64	127
373.77083900226756	373.8404761904762	72	127
373.8404761904762	373.95659863945576	76	127
373.8404761904762	373.95659863945576	67	127
373.95659863945576	374.08430839002267	65	127
373.95659863945576	374.08430839002267	74	127
374.08430839002267	374.1655782312925	69	127
374.08430839002267	374.1655782312925	79	127
374.08430839002267	374.1655782312925	74	127
374.1655782312925	374.2004081632653	73	127
374.2004081632653	374.31650793650795	76	127
374.31650793650795	374.3861678004535	74	127
374.3861678004535	374.46743764172334	77	127
374.46743764172334	374.5602947845805	79	127
374.5602947845805	374.6996371882086	59	127
374.5602947845805	374.6996371882086	50	127
374.5602947845805	374.6996371882086	53	127
374.5602947845805	374.6531972789116	77	127
374.6531972789116	374.72285714285715	76	127
374.72285714285715	374.8389569160998	74	127
374.72285714285715	374.90861678004535	60	127
374.72285714285715	374.90861678004535	55	127
374.72285714285715	374.90861678004535	52	127
374.8389569160998	374.94344671201816	72	127
374.94344671201816	375.1175963718821	57	127
374.94344671201816	375.1175963718821	53	127
374.94344671201816	375.1175963718821	62	127
374.94344671201816	375.0479365079365	71	127
375.0479365079365	375.12920634920636	69	127
375.1408163265306	375.291746031746	67	127
375.1408163265306	375.291746031746	60	127
375.1408163265306	375.44267573696146	55	127
375.1408163265306	375.291746031746	64	127
375.3381859410431	375.47748299319727	64	127
375.3381859410431	375.47748299319727	60	127
375.3381859410431	375.4310657596372	69	127
375.44267573696146	375.50072562358275	71	127
375.5239455782313	375.59360544217685	72	127
375.5239455782313	375.84902494331067	52	127
375.5239455782313	375.66326530612247	64	127
375.5239455782313	375.66326530612247	60	127
375.6168253968254	375.686462585034	74	127
375.7097052154195	375.84902494331067	64	127
375.7097052154195	375.8025850340136	76	127
375.7097052154195	375.84902494331067	60	127
375.8258049886621	375.86063492063494	77	127
375.8838321995465	376.0115646258503	60	127
375.8838321995465	375.95351473922904	79	127
375.8838321995465	376.0115646258503	64	127
375.95351473922904	376.03478458049887	77	127
376.0580045351474	376.1857142857143	60	127
376.0580045351474	376.1508843537415	76	127
376.0580045351474	376.1857142857143	64	127
376.1624943310658	376.1973015873016	77	127
376.22054421768706	376.3830839002268	60	127
376.22054421768706	376.3830839002268	64	127
376.22054421768706	376.4991609977324	57	127
376.22054421768706	376.30179138321995	79	127
376.32503401360543	376.39467120181405	81	127
376.4062811791383	376.54562358276644	64	127
376.4062811791383	376.4643537414966	83	127
376.4062811791383	376.54562358276644	60	127
376.48757369614515	376.568843537415	84	127
376.6036507936508	376.7546031746032	60	127
376.6036507936508	376.7546031746032	62	127
376.6036507936508	376.71977324263037	80	127
376.6036507936508	376.9287528344671	53	127
376.71977324263037	376.789433106576	81	127
376.789433106576	376.9751927437642	62	127
376.789433106576	376.9751927437642	60	127
376.789433106576	376.8823129251701	83	127
376.9055328798186	376.9984126984127	81	127
377.0216326530612	377.4047619047619	50	127
377.0216326530612	377.2189795918367	60	127
377.0216326530612	377.1261224489796	79	127
377.0216326530612	377.2189795918367	62	127
377.1493424036281	377.2422222222222	77	127
377.26544217687075	377.45120181405895	60	127
377.26544217687075	377.35832199546485	76	127
377.26544217687075	377.45120181405895	62	127
377.3815419501134	377.4744217687075	74	127
377.48603174603176	377.6601814058957	59	127
377.48603174603176	377.79950113378686	55	127
377.48603174603176	377.6601814058957	65	127
377.48603174603176	377.5556916099773	76	127
377.5556916099773	377.62532879818593	74	127
377.62532879818593	377.70662131519276	76	127
377.70662131519276	377.7298185941043	74	127
377.70662131519276	377.8459410430839	59	127
377.70662131519276	377.8459410430839	65	127
377.7298185941043	377.81111111111113	76	127
377.81111111111113	377.8807709750567	74	127
377.8807709750567	378.20585034013607	43	127
377.8807709750567	377.93879818594104	76	127
377.8807709750567	378.02009070294787	65	127
377.8807709750567	378.02009070294787	71	127
377.93879818594104	377.98526077097506	74	127
377.98526077097506	378.0665306122449	76	127
378.0665306122449	378.2406575963719	65	127
378.0665306122449	378.2406575963719	71	127
378.0665306122449	378.1361678004535	74	127
378.1361678004535	378.21746031746034	72	127
378.21746031746034	378.26390022675736	74	127
378.26390022675736	378.58897959183673	72	127
378.26390022675736	378.58897959183673	48	127
378.26390022675736	378.58897959183673	64	127
378.68185941043083	379.0533560090703	60	127
379.1462585034014	379.2971882086168	79	127
379.1462585034014	379.2971882086168	64	127
379.62226757369615	379.7731746031746	79	127
379.62226757369615	379.7731746031746	64	127
380.0170068027211	380.57428571428574	63	127
380.0170068027211	380.57428571428574	78	127
380.0170068027211	380.35369614512473	48	127
380.0170068027211	380.35369614512473	72	127
380.44657596371883	380.7948752834467	72	127
380.44657596371883	380.7948752834467	60	127
380.57428571428574	380.7019954648526	79	127
380.57428571428574	380.7019954648526	64	127
380.7368253968254	380.7832653061225	76	127
380.7368253968254	380.7832653061225	60	127
380.88775510204084	381.25927437641724	55	127
380.88775510204084	382.0487528344671	72	127
380.88775510204084	381.03868480725623	63	127
380.88775510204084	381.03868480725623	78	127
381.03868480725623	381.16639455782314	79	127
381.03868480725623	381.16639455782314	64	127
381.1896145124717	381.2360544217687	60	127
381.1896145124717	381.2360544217687	76	127
381.35215419501134	381.47986394557824	78	127
381.35215419501134	381.47986394557824	63	127
381.35215419501134	381.6540136054422	52	127
381.47986394557824	381.60757369614515	64	127
381.47986394557824	381.60757369614515	79	127
381.60757369614515	381.6540136054422	76	127
381.60757369614515	381.6540136054422	60	127
381.71206349206346	382.02553287981857	79	127
381.71206349206346	382.02553287981857	64	127
381.71206349206346	382.0487528344671	48	127
382.02553287981857	382.1184126984127	76	127
382.02553287981857	382.1184126984127	60	127
382.1416326530612	382.4899319727891	79	127
382.1416326530612	382.4899319727891	64	127
382.5828117913832	382.82662131519277	68	127
382.82662131519277	383.058820861678	69	127
382.82662131519277	383.2678004535147	84	127
383.058820861678	383.2678004535147	66	127
383.2678004535147	383.67414965986393	83	127
383.2678004535147	383.48839002267573	67	127
383.48839002267573	383.67414965986393	64	127
383.67414965986393	383.8715192743764	65	127
383.67414965986393	384.0921088435374	81	127
383.8715192743764	384.0921088435374	63	127
384.0921088435374	384.3243083900227	61	127
384.0921088435374	384.3243083900227	64	127
384.0921088435374	384.3243083900227	79	127
384.0921088435374	384.3243083900227	70	127
384.3243083900227	384.5448979591837	69	127
384.3243083900227	384.5448979591837	66	127
384.3243083900227	384.5448979591837	78	127
384.3243083900227	384.5448979591837	62	127
384.5448979591837	384.74226757369615	68	127
384.5448979591837	384.74226757369615	77	127
384.5448979591837	384.74226757369615	59	127
384.5448979591837	384.74226757369615	74	127
384.74226757369615	384.9164172335601	72	127
384.74226757369615	384.9164172335601	76	127
384.74226757369615	384.9164172335601	67	127
384.74226757369615	384.9164172335601	60	127
384.9164172335601	385.1253968253968	62	127
384.9164172335601	385.1253968253968	81	127
384.9164172335601	385.1253968253968	54	127
384.9164172335601	385.1253968253968	72	127
385.1253968253968	385.5781859410431	64	127
385.1253968253968	385.86843537414967	67	127
385.1253968253968	385.5781859410431	72	127
385.1253968253968	385.86843537414967	55	127
385.5781859410431	385.96131519274377	71	127
385.5781859410431	385.96131519274377	62	127
386.05419501133787	386.19351473922904	79	127
386.05419501133787	386.19351473922904	64	127
386.50698412698415	386.64630385487527	64	127
386.50698412698415	386.64630385487527	79	127
386.87850340136055	387.3893424036281	78	127
386.87850340136055	387.19197278911565	84	127
386.87850340136055	387.3893424036281	63	127
387.28485260770975	387.63315192743767	84	127
387.42417233560093	387.5402721088435	64	127
387.42417233560093	387.5402721088435	79	127
387.5751020408163	387.6215419501134	76	127
387.5751020408163	387.6215419501134	60	127
387.73764172335603	387.8653514739229	78	127
387.73764172335603	388.45746031746035	84	127
387.73764172335603	387.8653514739229	63	127
387.8885714285714	388.0278911564626	64	127
387.8885714285714	388.0278911564626	79	127
388.06272108843535	388.10916099773243	60	127
388.06272108843535	388.10916099773243	76	127
388.22526077097507	388.3413605442177	78	127
388.22526077097507	388.3413605442177	63	127
388.37619047619046	388.46907029478456	79	127
388.37619047619046	388.46907029478456	64	127
388.45746031746035	388.56195011337866	88	127
388.4922902494331	388.51551020408164	76	127
388.4922902494331	388.51551020408164	60	127
388.60839002267574	388.9334693877551	64	127
388.60839002267574	388.7593197278912	83	127
388.60839002267574	388.86380952380955	79	127
388.7593197278912	388.86380952380955	86	127
388.8986394557823	388.9450793650794	84	127
388.9334693877551	389.0263492063492	76	127
388.9334693877551	389.0263492063492	60	127
389.04956916099775	389.09600907029477	83	127
389.04956916099775	389.42108843537414	79	127
389.04956916099775	389.42108843537414	64	127
389.2121088435374	389.2585487528345	81	127
389.36303854875285	389.4094784580499	79	127
389.51396825396824	389.5604081632653	77	127
389.6648979591837	389.6881179138322	76	127
389.76938775510206	389.8042176870748	74	127
389.8854875283447	390.3150566893424	67	127
389.8854875283447	390.0364172335601	72	127
389.8854875283447	390.23378684807255	52	127
389.8854875283447	390.6285260770975	60	127
390.0364172335601	390.0712471655329	74	127
390.164126984127	390.210566893424	70	127
390.3150566893424	390.6285260770975	53	127
390.3150566893424	390.36149659863946	65	127
390.3150566893424	390.36149659863946	69	127
390.431156462585	390.4775963718821	81	127
390.431156462585	390.4775963718821	84	127
390.58208616780047	390.6169160997732	83	127
390.58208616780047	390.6169160997732	79	127
390.7214058956916	390.76784580498867	81	127
390.7214058956916	390.96521541950113	53	127
390.7214058956916	390.76784580498867	77	127
390.7214058956916	390.96521541950113	72	127
390.8142857142857	390.86072562358277	79	127
390.8142857142857	390.86072562358277	76	127
390.95360544217687	390.96521541950113	77	127
390.95360544217687	390.96521541950113	74	127
390.96521541950113	391.04648526077096	69	127
391.04648526077096	391.1974149659864	72	127
391.04648526077096	391.74308390022674	67	127
391.04648526077096	391.42961451247163	55	127
391.04648526077096	391.1974149659864	76	127
391.1974149659864	391.24385487528343	81	127
391.1974149659864	391.24385487528343	77	127
391.35995464852607	391.4180045351474	79	127
391.35995464852607	391.4180045351474	76	127
391.5224943310658	391.8475736961451	55	127
391.5224943310658	391.5689342403628	77	127
391.5224943310658	391.5689342403628	74	127
391.6618140589569	391.708253968254	72	127
391.6618140589569	391.708253968254	76	127
391.74308390022674	391.87079365079364	65	127
391.8011337868481	391.8243537414966	74	127
391.8011337868481	391.8243537414966	71	127
391.9172335600907	392.24231292517004	48	127
391.9172335600907	392.0101133786848	64	127
391.9172335600907	392.24231292517004	72	127
392.03333333333336	392.0681632653061	67	127
392.18426303854875	392.2307029478458	65	127
392.3235827664399	392.6951020408163	48	127
392.3235827664399	392.37002267573695	64	127
392.4861224489796	392.5093424036281	62	127
392.5790022675737	392.6138321995465	60	127
392.6951020408163	392.72993197278913	59	127
392.6951020408163	393.1130612244898	50	127
392.8344217687075	392.8808616780045	57	127
392.9737414965986	393.00857142857143	55	127
393.1130612244898	393.54263038548754	59	127
393.1130612244898	393.54263038548754	43	127
393.1130612244898	393.4729705215419	67	127
393.1130612244898	393.1478911564626	53	127
393.1478911564626	393.18272108843536	55	127
393.18272108843536	393.22916099773244	53	127
393.22916099773244	393.36848072562356	52	127
393.36848072562356	393.519410430839	53	127
393.54263038548754	393.90253968253967	60	127
393.54263038548754	393.6471201814059	67	127
393.54263038548754	393.8328798185941	52	127
393.68195011337866	393.71678004535147	79	127
393.77482993197276	393.82126984126984	77	127
393.90253968253967	394.26244897959185	55	127
393.90253968253967	393.9373696145125	76	127
393.90253968253967	394.26244897959185	48	127
394.00702947845804	394.0534693877551	74	127
394.1463492063492	394.19278911564624	72	127
394.26244897959185	394.7152380952381	50	127
394.26244897959185	394.3088888888889	71	127
394.401768707483	394.44820861678005	69	127
394.5643083900227	394.622358276644	67	127
394.7152380952381	394.7384580498866	65	127
394.7152380952381	395.04031746031745	67	127
394.7152380952381	395.13319727891155	43	127
394.7152380952381	395.13319727891155	71	127
394.7384580498866	394.7732879818594	67	127
394.7732879818594	394.81972789115645	65	127
394.81972789115645	394.9358276643991	64	127
394.9358276643991	395.08675736961453	65	127
395.13319727891155	395.48149659863947	64	127
395.13319727891155	395.53954648526076	72	127
395.13319727891155	395.2492970521542	67	127
395.284126984127	395.330566893424	79	127
395.4234467120181	395.4698866213152	77	127
395.53954648526076	395.8878458049887	67	127
395.53954648526076	395.58598639455784	76	127
395.53954648526076	395.8878458049887	48	127
395.6440362811791	395.67886621315193	74	127
395.7369160997732	395.7833560090703	72	127
395.8878458049887	396.3290249433107	50	127
395.8878458049887	395.9342857142857	71	127
396.03877551020406	396.08521541950114	69	127
396.2013151927438	396.2477551020408	67	127
396.3290249433107	396.607664399093	79	127
396.3290249433107	396.6889342403628	43	127
396.3290249433107	396.6889342403628	59	127
396.3290249433107	396.35224489795917	65	127
396.35224489795917	396.387074829932	65	127
396.387074829932	396.5031746031746	64	127
396.5031746031746	396.64249433106573	65	127
396.6889342403628	396.7818140589569	79	127
396.6889342403628	396.95596371882084	64	127
396.6889342403628	397.04884353741494	60	127
396.8166439909297	396.874693877551	88	127
396.89791383219955	397.02562358276646	86	127
397.04884353741494	397.49002267573695	55	127
397.04884353741494	397.17655328798185	84	127
397.04884353741494	397.49002267573695	48	127
397.1997732426304	397.30426303854875	83	127
397.33909297052156	397.4551927437642	81	127
397.49002267573695	397.6061224489796	79	127
397.49002267573695	397.9079818594104	50	127
397.62934240362813	397.75705215419504	77	127
397.7918820861678	397.8731519274376	76	127
397.9079818594104	397.94281179138324	74	127
397.9079818594104	398.34916099773244	43	127
397.9079818594104	398.34916099773244	83	127
397.9079818594104	398.25628117913834	55	127
397.94281179138324	397.977641723356	76	127
397.977641723356	398.0124716553288	74	127
398.0124716553288	398.16340136054424	72	127
398.16340136054424	398.30272108843536	74	127
398.34916099773244	398.58136054421766	76	127
398.34916099773244	398.4652607709751	55	127
398.34916099773244	398.639410430839	84	127
398.50009070294783	398.5465306122449	67	127
398.5581405895692	398.56975056689345	65	127
398.639410430839	398.99931972789113	79	127
398.639410430839	398.685850340136	64	127
398.639410430839	398.99931972789113	48	127
398.7903401360544	398.8251700680272	62	127
398.89482993197277	398.9180498866213	60	127
398.99931972789113	399.44049886621315	50	127
398.99931972789113	399.1386394557823	59	127
399.16185941043085	399.28956916099776	57	127
399.30117913832197	399.40566893424034	55	127
399.44049886621315	399.5565986394558	53	127
399.44049886621315	399.89328798185943	43	127
399.44049886621315	399.80040816326533	83	127
399.5798185941043	399.69591836734696	52	127
399.7307482993197	399.8584580498866	50	127
399.89328798185943	400.00938775510207	84	127
399.89328798185943	400.0442176870748	67	127
399.89328798185943	400.0442176870748	48	127
399.89328798185943	400.0442176870748	40	127
400.00938775510207	400.03260770975055	83	127
400.06743764172336	400.1487074829932	55	127
400.06743764172336	400.1487074829932	60	127
400.06743764172336	400.1487074829932	52	127
400.06743764172336	400.0906575963719	81	127
400.1487074829932	400.183537414966	79	127
400.2648072562358	400.52022675736964	55	127
400.2648072562358	400.3112471655329	77	127
400.2648072562358	400.52022675736964	60	127
400.2648072562358	400.52022675736964	52	127
400.404126984127	400.43895691609976	76	127
400.52022675736964	400.5550566893424	74	127
400.62471655328795	400.65954648526076	72	127
400.7408163265306	400.8104761904762	71	127
400.8104761904762	400.84530612244896	72	127
400.92657596371885	400.9614058956916	74	127
401.0426757369614	401.06589569160997	72	127
401.1471655328798	401.15877551020407	71	127
401.2400453514739	401.2748752834467	76	127
401.35614512471653	401.39097505668934	72	127
401.4606349206349	401.56512471655327	81	127
401.4606349206349	401.6347845804989	48	127
401.4606349206349	401.6347845804989	41	127
401.4606349206349	401.6347845804989	69	127
401.56512471655327	401.5999546485261	79	127
401.6812244897959	401.7857142857143	60	127
401.6812244897959	401.7857142857143	57	127
401.6812244897959	401.7160544217687	77	127
401.6812244897959	401.7857142857143	53	127
401.7857142857143	401.8205442176871	76	127
401.9134240362812	402.05274376417236	60	127
401.9134240362812	401.948253968254	74	127
401.9134240362812	402.05274376417236	57	127
401.9134240362812	402.05274376417236	53	127
402.05274376417236	402.0875736961451	71	127
402.16884353741494	402.20367346938775	69	127
402.2733333333333	402.3197732426304	68	127
402.3197732426304	402.4126530612245	69	127
402.4126530612245	402.4474829931973	71	127
402.5287528344671	402.56358276643994	69	127
402.64485260770977	402.7261224489796	68	127
402.7261224489796	402.74934240362813	69	127
402.8073922902494	402.84222222222223	72	127
402.92349206349206	402.95832199546487	69	127
403.0395918367347	403.21374149659863	71	127
403.0395918367347	403.21374149659863	43	127
403.0395918367347	403.21374149659863	50	127
403.0395918367347	403.15569160997734	77	127
403.15569160997734	403.1905215419501	76	127
403.2601814058957	403.3646712018141	59	127
403.2601814058957	403.29501133786846	74	127
403.2601814058957	403.3646712018141	55	127
403.2601814058957	403.3646712018141	62	127
403.3646712018141	403.3995011337868	72	127
403.4807709750567	403.4923809523809	71	127
403.4807709750567	403.60848072562356	59	127
403.4807709750567	403.60848072562356	55	127
403.4807709750567	403.60848072562356	62	127
403.5039909297052	403.538820861678	69	127
403.60848072562356	403.6317006802721	67	127
403.70136054421766	403.7361904761905	65	127
403.78263038548755	403.87551020408165	64	127
403.87551020408165	403.9103401360544	65	127
404.0032199546485	404.0380498866213	67	127
404.0844897959184	404.11931972789114	65	127
404.1773696145125	404.2702494331066	64	127
404.2702494331066	404.2934693877551	65	127
404.3631292517007	404.3979591836735	69	127
404.4792290249433	404.50244897959186	65	127
404.5837188208617	404.90879818594107	55	127
404.5837188208617	404.90879818594107	48	127
404.5837188208617	404.90879818594107	60	127
404.5837188208617	404.6649886621315	64	127
404.6649886621315	404.69981859410433	67	127
404.78108843537416	404.81591836734697	65	127
404.8971882086168	404.90879818594107	64	127
404.9436281179138	404.9784580498866	65	127
405.05972789115646	405.082947845805	67	127
405.129387755102	405.1642176870748	69	127
405.2570975056689	405.29192743764173	71	127
405.3615873015873	405.47768707482993	72	127
405.47768707482993	405.524126984127	71	127
405.524126984127	405.5357369614512	72	127
405.6170068027211	405.65183673469386	74	127
405.7098866213152	405.82598639455784	76	127
405.82598639455784	405.8492063492063	77	127
405.9072562358277	405.9304761904762	79	127
406.0001360544218	406.0233560090703	81	127
406.10462585034014	406.7663945578231	82	127
406.10462585034014	406.2207256235828	55	127
406.10462585034014	406.29038548752834	40	127
406.10462585034014	406.29038548752834	61	127
406.2207256235828	406.3019954648526	67	127
406.3019954648526	406.452925170068	52	127
406.3019954648526	406.452925170068	61	127
406.3019954648526	406.3948752834467	66	127
406.3948752834467	406.4877551020408	67	127
406.4877551020408	406.60385487528345	69	127
406.4877551020408	406.673514739229	61	127
406.4877551020408	406.673514739229	52	127
406.60385487528345	406.7199546485261	67	127
406.7199546485261	406.9057142857143	61	127
406.7199546485261	406.9057142857143	52	127
406.7199546485261	406.8360544217687	65	127
406.8360544217687	406.95215419501136	67	127
406.95215419501136	407.1263038548753	52	127
406.95215419501136	407.1263038548753	67	127
406.95215419501136	407.55587301587303	61	127
406.95215419501136	407.05664399092973	67	127
407.05664399092973	407.1495238095238	70	127
407.1495238095238	407.2191836734694	69	127
407.1495238095238	407.2540136054422	67	127
407.1495238095238	407.2540136054422	52	127
407.2191836734694	407.28884353741495	70	127
407.28884353741495	407.46299319727893	52	127
407.28884353741495	407.46299319727893	67	127
407.28884353741495	407.4049433106576	72	127
407.4049433106576	407.50943310657595	70	127
407.50943310657595	407.69519274376415	67	127
407.50943310657595	407.6255328798186	69	127
407.50943310657595	407.69519274376415	52	127
407.6255328798186	407.74163265306123	70	127
407.74163265306123	407.8461224489796	62	127
407.74163265306123	407.91578231292516	41	127
407.74163265306123	408.3569614512472	62	127
407.74163265306123	407.91578231292516	65	127
407.8461224489796	407.9390022675737	69	127
407.9390022675737	408.0318820861678	67	127
407.9390022675737	408.0899319727891	65	127
407.9390022675737	408.0899319727891	53	127
408.0318820861678	408.1247619047619	69	127
408.1247619047619	408.3105215419501	65	127
408.1247619047619	408.3105215419501	53	127
408.1247619047619	408.24086167800453	71	127
408.24086167800453	408.33374149659863	69	127
408.33374149659863	408.4846712018141	53	127
408.33374149659863	408.41501133786846	67	127
408.33374149659863	408.4846712018141	65	127
408.41501133786846	408.50789115646256	69	127
408.50789115646256	409.1928798185941	81	127
408.50789115646256	408.64721088435374	63	127
408.50789115646256	408.5775510204082	69	127
408.50789115646256	408.64721088435374	42	127
408.5775510204082	408.6936507936508	72	127
408.6936507936508	408.86780045351475	54	127
408.6936507936508	408.7981405895692	71	127
408.6936507936508	408.86780045351475	63	127
408.7981405895692	408.91424036281177	72	127
408.91424036281177	409.1	54	127
408.91424036281177	409.0303401360544	74	127
408.91424036281177	409.1	63	127
409.0303401360544	409.14643990929704	72	127
409.14643990929704	409.2509297052154	71	127
409.14643990929704	409.30897959183676	54	127
409.14643990929704	409.30897959183676	63	127
409.2509297052154	409.3554195011338	72	127
409.3554195011338	409.5295691609977	43	127
409.3554195011338	409.5295691609977	64	127
409.3554195011338	410.0636281179138	79	127
409.3554195011338	409.45990929705215	67	127
409.45990929705215	409.5760090702948	72	127
409.5760090702948	409.761768707483	64	127
409.5760090702948	409.761768707483	55	127
409.5760090702948	409.6921088435374	71	127
409.6921088435374	409.7965986394558	72	127
409.7965986394558	409.9707482993197	64	127
409.7965986394558	409.90108843537416	74	127
409.7965986394558	409.9707482993197	55	127
409.90108843537416	410.0171882086168	72	127
410.0171882086168	410.1332879818594	71	127
410.0171882086168	410.19133786848073	64	127
410.0171882086168	410.19133786848073	55	127
410.1332879818594	410.22616780045354	72	127
410.22616780045354	410.3422675736961	55	127
410.22616780045354	410.40031746031747	65	127
410.22616780045354	410.30743764172337	72	127
410.22616780045354	410.40031746031747	43	127
410.30743764172337	410.36548752834466	71	127
410.3422675736961	410.4351473922903	62	127
410.36548752834466	410.4351473922903	72	127
410.4351473922903	410.59768707482993	65	127
410.4351473922903	410.50480725623584	71	127
410.4351473922903	410.59768707482993	55	127
410.4351473922903	410.5280272108844	60	127
410.50480725623584	410.5628571428571	72	127
410.5280272108844	410.64412698412696	62	127
410.5628571428571	410.64412698412696	71	127
410.64412698412696	410.8298866213152	55	127
410.64412698412696	410.7602267573696	64	127
410.64412698412696	410.8298866213152	65	127
410.64412698412696	410.72539682539684	72	127
410.72539682539684	410.7950566893424	71	127
410.7602267573696	410.87632653061223	62	127
410.7950566893424	410.87632653061223	72	127
410.87632653061223	410.99242630385487	60	127
410.87632653061223	410.94598639455785	71	127
410.87632653061223	411.0504761904762	55	127
410.87632653061223	411.0504761904762	65	127
410.94598639455785	411.0156462585034	69	127
410.99242630385487	411.09691609977324	62	127
411.0156462585034	411.0736961451247	71	127
411.09691609977324	411.3871655328798	72	127
411.09691609977324	411.3871655328798	64	127
411.09691609977324	411.8863945578231	60	127
411.09691609977324	411.2362358276644	36	127
411.27106575963717	411.4336054421769	48	127
411.46843537414964	411.81673469387755	55	127
411.46843537414964	411.59614512471654	48	127
411.63097505668935	411.793514739229	48	127
411.81673469387755	411.8980045351474	48	127
411.81673469387755	412.1185941043084	52	127
411.94444444444446	412.09537414965985	48	127
411.94444444444446	412.1185941043084	60	127
412.1185941043084	412.26952380952383	48	127
412.1185941043084	412.26952380952383	62	127
412.1185941043084	412.45528344671203	48	127
412.26952380952383	412.40884353741495	48	127
412.26952380952383	412.45528344671203	64	127
412.45528344671203	412.7455328798186	67	127
412.45528344671203	413.36086167800454	67	127
412.45528344671203	412.58299319727894	48	127
412.45528344671203	412.7455328798186	59	127
412.62943310657596	412.7919727891156	48	127
412.8384126984127	413.00095238095236	48	127
412.8384126984127	413.25637188208617	62	127
412.8384126984127	413.1867120181406	65	127
413.04739229024943	413.22154195011336	48	127
413.25637188208617	413.6046712018141	59	127
413.25637188208617	413.3840816326531	48	127
413.4305215419501	413.5698412698413	48	127
413.4305215419501	413.6046712018141	67	127
413.6046712018141	413.81365079365077	69	127
413.6046712018141	413.76721088435374	48	127
413.6046712018141	414.0342403628118	55	127
413.81365079365077	413.98780045351475	48	127
413.81365079365077	414.0342403628118	71	127
414.0342403628118	414.4173696145125	74	127
414.0342403628118	414.1619501133787	48	127
414.0342403628118	414.3360997732426	64	127
414.1967800453515	414.4173696145125	71	127
414.1967800453515	414.3825396825397	48	127
414.4173696145125	414.63795918367344	72	127
414.4173696145125	414.8701587301587	67	127
414.4173696145125	414.7772789115646	72	127
414.4173696145125	414.5915192743764	48	127
414.63795918367344	414.8237188208617	48	127
414.63795918367344	414.8701587301587	71	127
414.8701587301587	415.02108843537417	48	127
414.8701587301587	415.04430839002265	72	127
414.8701587301587	415.2416780045352	64	127
415.04430839002265	415.20684807256237	48	127
415.04430839002265	415.2416780045352	73	127
415.2416780045352	415.43904761904764	74	127
415.2416780045352	415.39260770975056	48	127
415.2416780045352	415.6480272108844	60	127
415.43904761904764	415.61319727891157	48	127
415.43904761904764	415.6480272108844	76	127
415.6480272108844	415.9731065759637	71	127
415.6480272108844	415.8221768707483	48	127
415.6480272108844	416.9251247165533	77	127
415.8570068027211	416.0543764172336	78	127
415.8570068027211	416.0079365079365	48	127
416.0543764172336	416.25174603174605	79	127
416.0543764172336	416.42589569161	74	127
416.0543764172336	416.205306122449	48	127
416.25174603174605	416.42589569161	78	127
416.25174603174605	416.4142857142857	48	127
416.42589569161	416.646485260771	79	127
416.42589569161	416.6000453514739	48	127
416.42589569161	416.87868480725626	71	127
416.646485260771	416.8322448979592	48	127
416.646485260771	416.87868480725626	80	127
416.87868480725626	417.21537414965985	67	127
416.87868480725626	417.0063945578231	48	127
416.87868480725626	417.0528344671202	81	127
417.0528344671202	417.21537414965985	83	127
417.0528344671202	417.1921541950113	48	127
417.21537414965985	417.38952380952384	48	127
417.21537414965985	417.6101133786848	84	127
417.21537414965985	418.22544217687073	55	127
417.21537414965985	417.43596371882086	76	127
417.43596371882086	417.6449433106576	79	127
417.6449433106576	417.8655328798186	76	127
417.6449433106576	417.8190929705215	52	127
417.8655328798186	418.07451247165534	72	127
418.07451247165534	418.2834920634921	71	127
418.07451247165534	418.24866213151927	55	127
418.2834920634921	418.4692517006803	67	127
418.2834920634921	418.4692517006803	55	127
418.4692517006803	418.6898412698413	65	127
418.4692517006803	418.6898412698413	57	127
418.4692517006803	418.6550113378685	43	127
418.6898412698413	418.8291609977324	62	127
418.6898412698413	418.8756009070295	59	127
418.8756009070295	419.88566893424036	79	127
418.8756009070295	419.10780045351476	64	127
418.8756009070295	419.0613605442177	48	127
418.8756009070295	419.29356009070295	62	127
419.10780045351476	419.4909297052154	67	127
419.29356009070295	419.4560997732426	52	127
419.29356009070295	419.6302494331066	60	127
419.4909297052154	419.7231292517007	72	127
419.7231292517007	419.8972789115646	71	127
419.7231292517007	419.88566893424036	55	127
419.8972789115646	420.0946485260771	77	127
419.8972789115646	420.0946485260771	69	127
420.0946485260771	420.222358276644	43	127
420.0946485260771	420.268798185941	67	127
420.0946485260771	420.268798185941	76	127
420.268798185941	420.442947845805	65	127
420.268798185941	420.442947845805	74	127
420.442947845805	420.60548752834467	48	127
420.442947845805	420.83768707482994	71	127
420.442947845805	420.65192743764175	63	127
420.442947845805	421.42979591836735	67	127
420.65192743764175	420.83768707482994	64	127
420.83768707482994	421.0118367346939	64	127
420.83768707482994	421.05827664399095	67	127
420.83768707482994	421.19759637188207	72	127
421.05827664399095	421.2788662131519	72	127
421.2788662131519	421.4994557823129	71	127
421.2788662131519	421.4530158730159	67	127
421.4994557823129	421.6968253968254	67	127
421.4994557823129	421.6968253968254	67	127
421.6968253968254	421.8593650793651	69	127
421.6968253968254	421.8593650793651	65	127
421.6968253968254	421.812925170068	55	127
421.8593650793651	422.0799546485261	71	127
421.8593650793651	422.033514739229	62	127
422.02190476190475	422.0683446712018	79	127
422.0799546485261	422.24249433106576	60	127
422.0799546485261	422.9971428571429	91	127
422.0799546485261	422.4166439909297	74	127
422.0799546485261	422.28893424036283	64	127
422.28893424036283	422.4514739229025	67	127
422.4979138321996	422.6720634920635	64	127
422.4979138321996	422.84621315192743	72	127
422.4979138321996	422.7185034013605	79	127
422.7185034013605	422.84621315192743	84	127
422.84621315192743	423.02036281179136	67	127
422.84621315192743	423.06680272108844	83	127
423.06680272108844	423.2990022675737	81	127
423.06680272108844	423.25256235827663	89	127
423.2990022675737	423.47315192743764	55	127
423.2990022675737	423.47315192743764	88	127
423.2990022675737	423.50798185941045	79	127
423.50798185941045	423.64730158730157	86	127
423.50798185941045	423.6821315192744	77	127
423.6821315192744	424.5877097505669	48	127
423.6821315192744	423.8911111111111	75	127
423.6821315192744	423.8911111111111	83	127
423.8911111111111	424.0536507936508	84	127
423.8911111111111	424.0536507936508	67	127
423.8911111111111	424.0536507936508	76	127
424.0768707482993	424.23941043083903	67	127
424.0768707482993	424.1465306122449	76	127
424.0768707482993	424.1465306122449	84	127
424.2742403628118	424.32068027210886	76	127
424.2742403628118	424.4019501133787	67	127
424.2742403628118	424.32068027210886	84	127
424.4483900226757	424.7618594104308	84	127
424.4483900226757	424.7618594104308	67	127
424.4483900226757	424.7618594104308	76	127
424.64575963718823	424.8547392290249	48	127
424.8547392290249	425.09854875283446	50	127
425.09854875283446	425.33074829931974	52	127
425.33074829931974	425.7487074829932	55	127
425.5397278911565	425.7487074829932	72	127
425.5397278911565	425.7487074829932	62	127
425.5397278911565	425.7487074829932	69	127
425.7487074829932	426.3059863945578	53	127
425.7487074829932	425.8067573696145	74	127
425.7487074829932	425.8067573696145	69	127
425.7487074829932	425.8067573696145	84	127
425.92285714285714	425.98090702947843	84	127
425.92285714285714	426.09700680272107	69	127
425.92285714285714	425.98090702947843	74	127
426.14344671201815	426.51496598639454	74	127
426.14344671201815	426.51496598639454	69	127
426.14344671201815	426.51496598639454	84	127
426.3756462585034	426.60784580498864	50	127
426.60784580498864	426.8516553287982	52	127
426.8516553287982	426.9793650793651	53	127
426.9793650793651	427.30444444444447	57	127
427.1186848072562	427.30444444444447	70	127
427.1186848072562	427.30444444444447	64	127
427.1186848072562	427.30444444444447	72	127
427.30444444444447	427.42054421768705	84	127
427.30444444444447	427.42054421768705	70	127
427.30444444444447	427.78045351473924	55	127
427.30444444444447	427.42054421768705	76	127
427.50181405895694	427.6295238095238	70	127
427.50181405895694	427.5250340136054	84	127
427.50181405895694	427.5250340136054	76	127
427.67596371882087	427.96621315192743	76	127
427.67596371882087	427.96621315192743	70	127
427.67596371882087	427.96621315192743	84	127
427.8385034013605	428.0242630385487	52	127
428.0242630385487	428.1635827664399	53	127
428.1635827664399	428.40739229024945	55	127
428.40739229024945	428.8485714285714	58	127
428.63959183673467	428.8485714285714	65	127
428.63959183673467	428.8485714285714	72	127
428.63959183673467	428.8485714285714	72	127
428.8485714285714	429.3361904761905	57	127
428.8485714285714	428.9530612244898	84	127
428.8485714285714	428.9530612244898	77	127
428.8485714285714	428.9530612244898	72	127
429.04594104308393	429.0691609977324	72	127
429.04594104308393	429.0691609977324	77	127
429.04594104308393	429.1736507936508	84	127
429.22009070294786	429.54517006802723	72	127
429.22009070294786	429.54517006802723	84	127
429.22009070294786	429.54517006802723	77	127
429.40585034013606	429.63804988662133	53	127
429.63804988662133	429.87024943310655	55	127
429.87024943310655	430.1140589569161	57	127
430.1140589569161	431.17056689342405	81	127
430.1140589569161	431.17056689342405	60	127
430.1140589569161	431.17056689342405	78	127
430.1140589569161	431.17056689342405	75	127
431.2402267573696	431.4375963718821	82	127
431.2402267573696	431.4375963718821	74	127
431.2402267573696	431.4375963718821	79	127
431.2402267573696	431.4375963718821	58	127
431.4375963718821	431.6001360544218	57	127
431.4375963718821	431.6001360544218	84	127
431.4375963718821	431.6001360544218	81	127
431.4375963718821	431.6001360544218	72	127
431.6001360544218	431.8091156462585	86	127
431.6001360544218	431.8091156462585	55	127
431.6001360544218	431.8091156462585	70	127
431.6001360544218	431.8091156462585	82	127
431.8091156462585	432.49410430839004	61	127
431.8091156462585	432.8307936507936	77	127
431.8091156462585	432.49410430839004	67	127
431.8091156462585	432.85401360544216	70	127
432.66825396825396	433.02816326530615	60	127
432.90045351473924	433.12104308390025	76	127
433.12104308390025	433.35324263038547	82	127
433.35324263038547	433.58544217687074	79	127
433.58544217687074	433.74798185941046	77	127
433.74798185941046	433.89891156462585	76	127
433.89891156462585	434.1078911564626	67	127
433.89891156462585	434.1078911564626	79	127
434.1078911564626	434.2820408163265	76	127
434.1078911564626	434.3284807256236	64	127
434.3284807256236	434.479410430839	74	127
434.3284807256236	434.479410430839	62	127
434.479410430839	434.65356009070297	72	127
434.479410430839	434.65356009070297	60	127
434.65356009070297	434.8857596371882	74	127
434.65356009070297	434.8857596371882	62	127
434.8857596371882	435.0599092970522	58	127
434.8857596371882	435.0599092970522	70	127
435.1063492063492	435.3269387755102	57	127
435.1063492063492	435.3269387755102	69	127
435.3269387755102	435.47786848072565	55	127
435.3269387755102	435.47786848072565	67	127
435.47786848072565	435.6752380952381	54	127
435.47786848072565	435.6752380952381	66	127
435.6752380952381	435.7448979591837	67	127
435.6752380952381	435.7448979591837	55	127
435.7448979591837	435.9654875283447	68	127
435.7448979591837	435.9654875283447	56	127
435.9654875283447	436.20929705215417	69	127
435.9654875283447	436.20929705215417	57	127
436.20929705215417	436.44149659863945	58	127
436.20929705215417	436.44149659863945	70	127
436.44149659863945	436.5459863945578	59	127
436.44149659863945	436.5459863945578	71	127
436.56920634920635	436.75496598639455	58	127
436.56920634920635	436.80140589569163	64	127
436.56920634920635	436.9291156462585	60	127
436.56920634920635	437.61410430839004	72	127
436.80140589569163	437.0219954648526	65	127
436.80140589569163	436.97555555555556	58	127
437.0219954648526	437.25419501133786	64	127
437.0219954648526	437.20775510204084	58	127
437.25419501133786	437.43995464852605	58	127
437.25419501133786	437.4515646258503	65	127
437.4515646258503	437.6257142857143	58	127
437.4515646258503	437.76503401360543	64	127
437.6489342403628	437.79986394557824	58	127
437.6489342403628	437.84630385487526	73	127
437.84630385487526	438.02045351473924	74	127
437.84630385487526	437.97401360544217	58	127
438.02045351473924	438.20621315192744	58	127
438.02045351473924	438.24104308390025	76	127
438.24104308390025	438.51968253968255	79	127
438.24104308390025	439.16984126984124	60	127
438.24104308390025	438.35714285714283	57	127
438.4035827664399	438.56612244897957	57	127
438.4035827664399	438.61256235827665	72	127
438.61256235827665	438.96086167800456	77	127
438.61256235827665	438.8215419501134	69	127
438.61256235827665	438.7867120181406	57	127
438.8215419501134	439.0421315192744	65	127
438.8215419501134	439.0073015873016	57	127
439.0421315192744	439.4484807256236	64	127
439.0421315192744	439.1814512471655	58	127
439.2278911564626	439.4020408163265	58	127
439.2278911564626	439.4020408163265	61	127
439.4484807256236	439.6342403628118	62	127
439.4484807256236	439.9128798185941	67	127
439.4484807256236	439.6342403628118	58	127
439.6806802721088	439.86643990929707	58	127
439.6806802721088	439.86643990929707	64	127
439.9128798185941	440.7371882086168	72	127
439.9128798185941	440.2727891156463	67	127
439.9128798185941	440.0870294784581	57	127
440.1334693877551	440.3192290249433	57	127
440.1334693877551	440.3656689342404	72	127
440.3656689342404	440.56303854875284	69	127
440.3656689342404	440.62108843537413	65	127
440.3656689342404	440.52820861678003	57	127
440.56303854875284	440.62108843537413	57	127
440.56303854875284	440.62108843537413	65	127
440.62108843537413	440.74879818594104	58	127
440.62108843537413	440.9809977324263	64	127
440.62108843537413	441.4802267573696	60	127
440.7952380952381	440.93455782312924	58	127
440.7952380952381	440.93455782312924	73	127
440.9809977324263	441.41056689342406	67	127
440.9809977324263	441.143537414966	58	127
440.9809977324263	441.143537414966	74	127
441.18997732426305	441.37573696145125	58	127
441.18997732426305	441.37573696145125	76	127
441.41056689342406	441.5382766439909	79	127
441.41056689342406	441.4918367346939	57	127
441.5382766439909	441.7240362811791	57	127
441.5382766439909	441.7240362811791	77	127
441.5382766439909	441.7704761904762	65	127
441.5382766439909	441.7704761904762	61	127
441.7704761904762	441.9910657596372	62	127
441.7704761904762	441.9910657596372	69	127
441.7704761904762	441.9562358276644	58	127
441.7704761904762	442.2697052154195	72	127
441.9910657596372	442.18843537414966	64	127
441.9910657596372	442.1419954648526	58	127
441.9910657596372	442.18843537414966	67	127
442.18843537414966	442.37419501133786	64	127
442.18843537414966	442.37419501133786	67	127
442.18843537414966	442.33936507936505	57	127
442.37419501133786	442.5831746031746	65	127
442.37419501133786	442.5367346938776	73	127
442.37419501133786	442.5831746031746	65	127
442.37419501133786	442.5367346938776	57	127
442.5831746031746	442.7457142857143	58	127
442.5831746031746	442.97791383219953	60	127
442.5831746031746	442.79215419501134	69	127
442.5831746031746	442.7457142857143	74	127
442.79215419501134	442.9314739229025	67	127
442.79215419501134	442.9314739229025	76	127
442.79215419501134	442.9314739229025	58	127
442.97791383219953	443.1172335600907	60	127
442.97791383219953	443.07079365079363	57	127
442.97791383219953	443.1172335600907	64	127
442.97791383219953	443.1172335600907	79	127
443.1172335600907	443.3029931972789	60	127
443.1172335600907	443.3029931972789	65	127
443.1172335600907	443.3029931972789	77	127
443.1172335600907	443.3029931972789	57	127
443.349433106576	443.5235827664399	58	127
443.349433106576	443.5235827664399	62	127
443.349433106576	443.8718820861678	72	127
443.349433106576	443.5235827664399	69	127
443.5584126984127	443.7441723356009	67	127
443.5584126984127	443.7441723356009	58	127
443.5584126984127	443.7441723356009	64	127
443.79061224489794	443.9415419501134	57	127
443.79061224489794	443.97637188208614	67	127
443.79061224489794	443.9415419501134	64	127
443.97637188208614	444.10408163265305	65	127
443.97637188208614	444.10408163265305	57	127
443.97637188208614	444.10408163265305	65	127
443.97637188208614	444.10408163265305	73	127
444.10408163265305	444.27823129251703	74	127
444.10408163265305	444.4756009070295	60	127
444.10408163265305	444.27823129251703	58	127
444.10408163265305	444.27823129251703	69	127
444.32467120181406	444.5220408163265	58	127
444.32467120181406	444.5220408163265	76	127
444.32467120181406	444.5220408163265	67	127
444.5684807256236	444.73102040816326	79	127
444.5684807256236	444.73102040816326	60	127
444.5684807256236	444.73102040816326	57	127
444.5684807256236	444.73102040816326	64	127
444.73102040816326	444.8122902494331	65	127
444.73102040816326	444.8122902494331	60	127
444.73102040816326	444.8122902494331	77	127
444.73102040816326	444.8122902494331	57	127
444.85873015873017	445.05609977324264	67	127
444.85873015873017	445.00965986394556	57	127
445.05609977324264	445.23024943310656	72	127
445.05609977324264	445.23024943310656	60	127
445.05609977324264	445.23024943310656	65	127
445.05609977324264	445.23024943310656	57	127
445.27668934240364	445.4740589569161	72	127
445.27668934240364	445.4740589569161	81	127
445.27668934240364	445.42761904761903	52	127
445.4740589569161	445.61337868480723	79	127
445.4740589569161	445.61337868480723	60	127
445.4740589569161	445.61337868480723	52	127
445.4740589569161	445.61337868480723	70	127
445.6249886621315	445.7875283446712	69	127
445.6249886621315	445.77591836734695	52	127
445.7875283446712	445.92684807256234	72	127
445.7875283446712	445.92684807256234	52	127
445.7875283446712	445.92684807256234	70	127
445.7875283446712	445.92684807256234	67	127
445.9732879818594	446.08938775510205	53	127
445.9732879818594	446.08938775510205	82	127
445.9732879818594	446.08938775510205	79	127
446.08938775510205	446.263537414966	77	127
446.08938775510205	446.263537414966	60	127
446.08938775510205	446.263537414966	53	127
446.08938775510205	446.263537414966	81	127
446.30997732426306	446.484126984127	53	127
446.30997732426306	446.530566893424	71	127
446.530566893424	446.704716553288	69	127
446.530566893424	446.704716553288	72	127
446.530566893424	446.704716553288	81	127
446.530566893424	446.704716553288	53	127
446.751156462585	446.8788662131519	54	127
446.751156462585	446.925306122449	75	127
446.751156462585	446.925306122449	83	127
446.925306122449	447.08784580498866	69	127
446.925306122449	447.08784580498866	84	127
446.925306122449	447.08784580498866	76	127
446.925306122449	447.08784580498866	54	127
447.13428571428574	447.3548752834467	71	127
447.13428571428574	447.30843537414967	54	127
447.3548752834467	447.49419501133787	76	127
447.3548752834467	447.49419501133787	84	127
447.3548752834467	447.49419501133787	72	127
447.3548752834467	447.49419501133787	54	127
447.5174149659864	447.7496145124717	76	127
447.5174149659864	447.7496145124717	84	127
447.5174149659864	447.7031746031746	55	127
447.7496145124717	447.94698412698415	72	127
447.7496145124717	447.94698412698415	55	127
447.7496145124717	447.94698412698415	64	127
447.7496145124717	447.94698412698415	79	127
447.99342403628117	448.1095238095238	72	127
447.99342403628117	448.09791383219954	55	127
448.1095238095238	448.2372335600907	76	127
448.1095238095238	448.2372335600907	67	127
448.1095238095238	448.2372335600907	55	127
448.1095238095238	448.2372335600907	72	127
448.28367346938774	448.4810430839002	79	127
448.28367346938774	448.4346031746032	55	127
448.28367346938774	448.4810430839002	76	127
448.4810430839002	448.6551927437642	77	127
448.4810430839002	448.6551927437642	74	127
448.4810430839002	448.6551927437642	55	127
448.4810430839002	448.6551927437642	59	127
448.7016326530612	448.8641723356009	67	127
448.7016326530612	448.81773242630385	55	127
448.8641723356009	449.0499319727891	55	127
448.8641723356009	449.0499319727891	65	127
448.8641723356009	449.0499319727891	74	127
448.8641723356009	449.0499319727891	71	127
449.09637188208615	449.38662131519277	64	127
449.09637188208615	449.16603174603176	48	127
449.09637188208615	449.38662131519277	72	127
449.09637188208615	449.16603174603176	72	127
449.2821315192744	449.3285714285714	67	127
449.2821315192744	449.3285714285714	52	127
449.44467120181406	449.50272108843535	72	127
449.44467120181406	449.50272108843535	55	127
449.6536507936508	449.7000907029478	60	127
449.6536507936508	449.7000907029478	76	127
449.8278004535147	450.12965986394556	79	127
449.8278004535147	450.12965986394556	64	127
450.0251700680272	450.0716099773243	79	127
450.0251700680272	450.0716099773243	64	127
450.1993197278912	450.2457596371882	67	127
450.1993197278912	450.54761904761904	77	127
450.1993197278912	450.2457596371882	83	127
450.1993197278912	450.54761904761904	62	127
450.4082993197279	450.4779591836735	86	127
450.4082993197279	450.4779591836735	71	127
450.64049886621314	450.76820861678004	74	127
450.64049886621314	450.6637188208617	55	127
450.64049886621314	451.13972789115644	89	127
450.6637188208617	450.7449886621315	67	127
450.76820861678004	450.8378684807256	55	127
450.76820861678004	450.86108843537414	67	127
450.76820861678004	450.95396825396824	71	127
450.8843083900227	450.95396825396824	67	127
450.9771882086168	451.4996371882086	67	127
450.9771882086168	451.0700680272109	67	127
450.9771882086168	451.04684807256234	62	127
451.08167800453515	451.13972789115644	67	127
451.13972789115644	451.2558276643991	86	127
451.13972789115644	451.162947845805	59	127
451.13972789115644	451.1861678004535	67	127
451.1861678004535	451.2790476190476	67	127
451.30226757369616	451.871156462585	88	127
451.30226757369616	451.383537414966	60	127
451.4067573696145	451.4764172335601	72	127
451.4996371882086	451.6853968253968	64	127
451.4996371882086	451.5692970521542	48	127
451.4996371882086	451.5925170068027	72	127
451.61573696145126	451.6970068027211	72	127
451.6970068027211	451.7898866213152	72	127
451.6970068027211	452.0104761904762	60	127
451.6970068027211	451.76666666666665	55	127
451.81310657596373	451.871156462585	72	127
451.871156462585	451.94081632653064	52	127
451.871156462585	452.0569160997732	84	127
451.871156462585	451.9640362811791	72	127
451.98725623582766	452.0685260770975	72	127
452.08013605442176	452.66063492063495	81	127
452.08013605442176	452.26589569160996	53	127
452.08013605442176	452.17301587301586	65	127
452.08013605442176	452.17301587301586	72	127
452.1962358276644	452.2891156462585	65	127
452.1962358276644	452.2891156462585	72	127
452.31233560090703	452.3703854875283	65	127
452.31233560090703	452.4632653061224	52	127
452.31233560090703	452.3703854875283	72	127
452.39360544217686	452.4632653061224	65	127
452.39360544217686	452.4632653061224	72	127
452.4748752834467	452.61419501133787	53	127
452.4748752834467	452.5677551020408	69	127
452.4748752834467	452.5677551020408	77	127
452.59097505668933	452.6374149659864	69	127
452.59097505668933	452.6374149659864	77	127
452.66063492063495	452.84639455782315	50	127
452.66063492063495	452.75351473922905	77	127
452.66063492063495	452.75351473922905	69	127
452.66063492063495	452.84639455782315	86	127
452.77673469387753	452.8696145124716	69	127
452.77673469387753	452.8696145124716	77	127
452.89283446712017	452.97410430839	76	127
452.89283446712017	452.97410430839	67	127
452.89283446712017	453.1714739229025	84	127
452.89283446712017	453.03215419501134	55	127
452.99732426303854	453.0553741496599	76	127
452.99732426303854	453.0553741496599	67	127
453.06698412698415	453.1366439909297	76	127
453.06698412698415	453.2063038548753	53	127
453.06698412698415	453.1366439909297	67	127
453.148253968254	453.2295238095238	67	127
453.148253968254	453.2295238095238	76	127
453.25274376417235	453.3340136054422	84	127
453.25274376417235	453.34562358276645	74	127
453.25274376417235	453.415283446712	55	127
453.25274376417235	453.34562358276645	65	127
453.3340136054422	453.39206349206347	83	127
453.368843537415	453.43850340136055	74	127
453.368843537415	453.43850340136055	65	127
453.39206349206347	453.4617233560091	84	127
453.4617233560091	453.62426303854875	43	127
453.4617233560091	453.5429931972789	83	127
453.4617233560091	453.5546031746032	65	127
453.4617233560091	453.5546031746032	74	127
453.5429931972789	453.62426303854875	81	127
453.5778231292517	453.635873015873	65	127
453.5778231292517	453.635873015873	74	127
453.62426303854875	453.65909297052156	83	127
453.65909297052156	453.71714285714285	48	127
453.65909297052156	453.90290249433104	84	127
453.65909297052156	453.71714285714285	72	127
453.65909297052156	453.90290249433104	64	127
453.8216326530612	453.856462585034	52	127
453.8216326530612	453.856462585034	67	127
453.99578231292514	454.0422222222222	72	127
453.99578231292514	454.0422222222222	55	127
454.2047619047619	454.2628117913832	76	127
454.2047619047619	454.2628117913832	60	127
454.37891156462587	454.738820861678	79	127
454.37891156462587	454.738820861678	64	127
454.5995011337869	454.65755102040816	79	127
454.5995011337869	454.65755102040816	64	127
454.8317006802721	454.9013605442177	83	127
454.8317006802721	455.18	62	127
454.8317006802721	454.9013605442177	67	127
454.8317006802721	455.18	77	127
455.0522902494331	455.12195011337866	71	127
455.0522902494331	455.12195011337866	86	127
455.2728798185941	455.3077097505669	89	127
455.2728798185941	455.29609977324264	55	127
455.2728798185941	455.3077097505669	74	127
455.29609977324264	455.3309297052154	67	127
455.35414965986394	455.66761904761904	89	127
455.35414965986394	455.44702947845803	67	127
455.35414965986394	455.53990929705213	71	127
455.35414965986394	455.53990929705213	55	127
455.4702494331066	455.53990929705213	67	127
455.53990929705213	455.621179138322	67	127
455.53990929705213	455.6908390022676	62	127
455.53990929705213	456.0043083900227	67	127
455.6443990929705	455.7140589569161	67	127
455.7372789115646	455.8765986394558	59	127
455.7372789115646	455.79532879818595	67	127
455.7372789115646	455.8765986394558	86	127
455.8185487528345	455.8998185941043	67	127
455.9114285714286	456.062358276644	88	127
455.9114285714286	456.0043083900227	60	127
456.0275283446712	456.07396825396825	72	127
456.0971882086168	456.1552380952381	72	127
456.0971882086168	456.38743764172335	88	127
456.0971882086168	456.2481179138322	48	127
456.0971882086168	456.2481179138322	64	127
456.1784580498866	456.2713378684807	72	127
456.29455782312925	456.43387755102043	55	127
456.29455782312925	456.6196371882086	60	127
456.29455782312925	456.34099773242633	72	127
456.3642176870748	456.4570975056689	72	127
456.48031746031745	456.57319727891155	72	127
456.48031746031745	456.66607709750565	52	127
456.48031746031745	456.66607709750565	84	127
456.5964172335601	456.6892970521542	72	127
456.7125170068027	456.79378684807256	72	127
456.7125170068027	456.88666666666666	81	127
456.7125170068027	456.79378684807256	65	127
456.7125170068027	456.88666666666666	53	127
456.8170068027211	456.9098866213152	65	127
456.8170068027211	456.9098866213152	72	127
456.93310657596373	457.02598639455783	65	127
456.93310657596373	457.11886621315193	52	127
456.93310657596373	457.23496598639457	81	127
456.93310657596373	457.02598639455783	72	127
457.0492063492064	457.14208616780047	72	127
457.0492063492064	457.14208616780047	65	127
457.16530612244895	457.2697959183673	53	127
457.16530612244895	457.20013605442176	77	127
457.16530612244895	457.20013605442176	69	127
457.2233560090703	457.29301587301586	77	127
457.2233560090703	457.29301587301586	69	127
457.3162358276644	457.3510657596372	77	127
457.3162358276644	457.3510657596372	69	127
457.3162358276644	457.3626757369615	86	127
457.3162358276644	457.3626757369615	50	127
457.3626757369615	457.3742857142857	69	127
457.3626757369615	457.3742857142857	77	127
457.39750566893423	457.43233560090704	67	127
457.39750566893423	457.49038548752833	55	127
457.39750566893423	457.43233560090704	76	127
457.39750566893423	457.6645351473923	84	127
457.4439455782313	457.51360544217687	67	127
457.4439455782313	457.51360544217687	76	127
457.5368253968254	457.61809523809524	76	127
457.5368253968254	457.71097505668934	53	127
457.5368253968254	457.61809523809524	67	127
457.6413151927438	457.7341950113379	76	127
457.6413151927438	457.7341950113379	67	127
457.7574149659864	457.8502947845805	74	127
457.7574149659864	457.8502947845805	65	127
457.7574149659864	457.827074829932	84	127
457.7574149659864	457.9431746031746	55	127
457.83868480725624	457.89673469387753	83	127
457.87351473922905	457.96639455782315	65	127
457.87351473922905	457.96639455782315	74	127
457.9199546485261	457.9780045351474	84	127
457.98961451247163	458.08249433106573	65	127
457.98961451247163	458.05927437641725	83	127
457.98961451247163	458.1753741496599	43	127
457.98961451247163	458.08249433106573	74	127
458.0708843537415	458.1289342403628	81	127
458.15215419501135	458.21020408163264	83	127
458.2218140589569	458.55850340136055	84	127
458.2218140589569	458.9880725623583	72	127
458.2218140589569	458.39596371882084	48	127
458.2218140589569	458.9880725623583	64	127
458.4424036281179	458.6049433106576	48	127
458.6397732426304	458.8139229024943	48	127
458.8603628117914	458.976462585034	48	127
458.9880725623583	459.87043083900227	65	127
458.9880725623583	459.87043083900227	81	127
458.9880725623583	459.1738321995465	48	127
459.2202721088435	459.3944217687075	48	127
459.4408616780045	459.59179138321997	48	127
459.638231292517	459.8239909297052	48	127
459.87043083900227	460.65990929705214	67	127
459.87043083900227	460.0213605442177	48	127
459.87043083900227	460.5902494331066	79	127
459.87043083900227	460.5902494331066	64	127
460.06780045351474	460.14907029478456	48	127
460.19551020408164	460.3580498866213	48	127
460.38126984126984	460.55541950113377	48	127
460.5902494331066	461.182358276644	77	127
460.5902494331066	461.182358276644	62	127
460.5902494331066	460.6715192743764	48	127
460.7179591836735	460.88049886621314	67	127
460.7179591836735	460.88049886621314	48	127
460.9269387755102	461.10108843537415	69	127
460.9269387755102	461.10108843537415	48	127
461.13591836734696	461.32167800453516	71	127
461.13591836734696	461.32167800453516	48	127
461.3681179138322	461.54226757369617	74	127
461.3681179138322	462.22725623582767	60	127
461.3681179138322	461.54226757369617	48	127
461.3681179138322	462.22725623582767	76	127
461.60031746031746	461.78607709750565	72	127
461.60031746031746	461.78607709750565	48	127
461.83251700680273	461.9950566893424	48	127
462.04149659863947	462.1808163265306	48	127
462.22725623582767	462.42462585034014	48	127
462.22725623582767	463.01673469387754	77	127
462.22725623582767	463.01673469387754	69	127
462.4710657596372	462.6219954648526	48	127
462.6684353741497	462.8425850340136	48	127
462.86580498866215	463.01673469387754	48	127
463.01673469387754	463.7249433106576	76	127
463.01673469387754	463.8874829931973	79	127
463.01673469387754	463.7249433106576	67	127
463.01673469387754	463.10961451247164	48	127
463.1560544217687	463.2953741496599	48	127
463.33020408163264	463.45791383219955	48	127
463.49274376417236	463.67850340136056	48	127
463.7249433106576	463.9107029478458	48	127
463.7249433106576	464.39832199546487	74	127
463.7249433106576	464.39832199546487	65	127
463.95714285714286	464.14290249433105	79	127
463.95714285714286	464.14290249433105	48	127
464.17773242630386	464.30544217687077	48	127
464.17773242630386	464.30544217687077	81	127
464.3518820861678	464.5260317460317	48	127
464.3518820861678	464.5260317460317	83	127
464.5724716553288	465.0368707482993	48	127
464.5724716553288	464.8046712018141	86	127
464.5724716553288	465.0368707482993	64	127
464.5724716553288	465.0368707482993	72	127
464.8046712018141	464.9904308390023	84	127
465.0368707482993	465.199410430839	84	127
465.0368707482993	465.199410430839	64	127
465.0368707482993	465.199410430839	55	127
465.0368707482993	465.199410430839	43	127
465.53609977324265	465.68702947845804	40	127
465.53609977324265	465.68702947845804	55	127
465.53609977324265	465.68702947845804	84	127
465.53609977324265	465.68702947845804	64	127
466.1049886621315	466.2675283446712	55	127
466.1049886621315	466.2675283446712	64	127
466.1049886621315	466.2675283446712	43	127
466.1049886621315	466.2675283446712	84	127
466.6506575963719	467.09183673469386	84	127
466.6506575963719	467.09183673469386	55	127
466.6506575963719	467.09183673469386	64	127
466.6506575963719	467.09183673469386	36	127
