# onset,offset,note,velocity
0.35913832199546486	1.7639455782312925	53	127
0.35913832199546486	1.7639455782312925	60	127
0.35913832199546486	1.7639455782312925	69	127
0.35913832199546486	1.311156462585034	72	127
1.7639455782312925	3.389342403628118	45	127
1.7639455782312925	3.8537414965986394	65	127
1.7639455782312925	4.35297052154195	60	127
1.7639455782312925	4.35297052154195	57	127
3.389342403628118	5.00312925170068	48	127
4.35297052154195	5.00312925170068	64	127
4.35297052154195	5.00312925170068	67	127
4.35297052154195	4.7128798185941045	58	127
4.7128798185941045	5.00312925170068	55	127
5.00312925170068	6.164126984126984	70	127
5.00312925170068	6.164126984126984	67	127
5.00312925170068	6.164126984126984	52	127
5.00312925170068	7.4412244897959186	41	127
6.164126984126984	7.162585034013605	69	127
6.164126984126984	6.686575963718821	53	127
6.164126984126984	6.686575963718821	65	127
6.791065759637188	7.4412244897959186	53	127
6.791065759637188	7.4412244897959186	65	127
7.4412244897959186	8.20748299319728	64	127
7.4412244897959186	8.20748299319728	55	127
8.20748299319728	9.705170068027211	65	127
8.20748299319728	8.996938775510204	63	127
8.20748299319728	8.996938775510204	57	127
8.996938775510204	9.844489795918367	62	127
8.996938775510204	9.705170068027211	53	127
8.996938775510204	9.844489795918367	58	127
9.844489795918367	10.900975056689342	70	127
9.844489795918367	11.22607709750567	65	127
9.844489795918367	11.22607709750567	62	127
10.517845804988662	11.063537414965987	50	127
11.22607709750567	12.270975056689343	74	127
11.22607709750567	12.503174603174603	70	127
11.22607709750567	12.503174603174603	65	127
11.80657596371882	12.398684807256236	46	127
12.503174603174603	13.176553287981859	74	127
12.503174603174603	13.176553287981859	70	127
12.503174603174603	13.072063492063492	77	127
13.176553287981859	13.745442176870748	76	127
13.176553287981859	14.105351473922903	41	127
13.176553287981859	14.105351473922903	65	127
13.176553287981859	13.745442176870748	72	127
13.745442176870748	13.815102040816326	72	127
13.745442176870748	13.815102040816326	76	127
13.838321995464852	13.919591836734694	74	127
13.838321995464852	13.919591836734694	70	127
13.94281179138322	14.012471655328799	76	127
13.94281179138322	14.012471655328799	72	127
14.05891156462585	14.140181405895692	70	127
14.05891156462585	14.140181405895692	74	127
14.175011337868481	14.256281179138321	72	127
14.175011337868481	14.256281179138321	69	127
14.279501133786848	14.62780045351474	70	127
14.279501133786848	14.62780045351474	74	127
14.639410430839002	15.951337868480726	72	127
14.639410430839002	15.951337868480726	69	127
15.62625850340136	16.19514739229025	53	127
16.19514739229025	17.11233560090703	55	127
17.11233560090703	17.808934240362813	57	127
17.808934240362813	19.933560090702947	67	127
17.808934240362813	18.784172335600907	62	127
17.808934240362813	18.784172335600907	65	127
17.808934240362813	18.134013605442178	47	127
18.42426303854875	18.737732426303854	47	127
19.039591836734694	21.558956916099774	60	127
19.039591836734694	20.17736961451247	64	127
19.039591836734694	19.39950113378685	48	127
19.771020408163267	20.13092970521542	48	127
20.66498866213152	23.26562358276644	63	127
20.66498866213152	21.825986394557823	69	127
20.66498866213152	21.09453514739229	42	127
21.40800453514739	21.77954648526077	42	127
22.058185941043085	23.53265306122449	72	127
22.058185941043085	22.510975056689343	43	127
22.058185941043085	23.26562358276644	54	127
22.801224489795917	23.195963718820863	43	127
23.53265306122449	25.459909297052153	70	127
23.53265306122449	23.950612244897957	43	127
23.53265306122449	24.240861678004535	62	127
23.53265306122449	24.995510204081633	55	127
24.240861678004535	25.21609977324263	64	127
24.240861678004535	24.937460317460317	43	127
25.21609977324263	26.168117913832198	48	127
25.21609977324263	25.506349206349206	45	127
25.21609977324263	26.423537414965985	65	127
25.796598639455784	26.09845804988662	45	127
25.796598639455784	26.31904761904762	69	127
26.423537414965985	26.934376417233562	50	127
26.423537414965985	26.7021768707483	46	127
26.423537414965985	26.81827664399093	69	127
26.423537414965985	27.480045351473922	62	127
26.725396825396825	27.08530612244898	67	127
27.05047619047619	27.398775510204082	46	127
27.05047619047619	27.28267573696145	55	127
27.062086167800455	27.398775510204082	70	127
27.38716553287982	27.898004535147393	62	127
27.398775510204082	27.805124716553287	58	127
27.863174603174603	29.314421768707483	65	127
27.863174603174603	29.012562358276643	60	127
27.863174603174603	28.31596371882086	48	127
27.863174603174603	29.012562358276643	57	127
28.594603174603176	28.942902494331065	48	127
29.244761904761905	30.463809523809523	64	127
29.244761904761905	30.463809523809523	60	127
29.244761904761905	29.662721088435376	48	127
29.279591836734692	30.80049886621315	67	127
29.964580498866212	30.405759637188208	48	127
30.684399092970523	31.032698412698412	65	127
30.684399092970523	31.032698412698412	69	127
30.684399092970523	31.845396825396826	60	127
30.684399092970523	31.845396825396826	41	127
31.079138321995465	31.160408163265306	67	127
31.079138321995465	31.160408163265306	70	127
31.183628117913834	31.253287981859412	69	127
31.183628117913834	31.253287981859412	65	127
31.29972789115646	31.380997732426305	64	127
31.29972789115646	31.380997732426305	67	127
31.40421768707483	31.67124716553288	69	127
31.40421768707483	31.67124716553288	65	127
31.764126984126985	32.05437641723356	67	127
31.764126984126985	32.05437641723356	70	127
32.112426303854875	33.12249433106576	72	127
32.112426303854875	33.12249433106576	69	127
32.774195011337866	33.62172335600907	53	127
33.62172335600907	34.248662131519275	60	127
34.248662131519275	35.07294784580499	58	127
35.07294784580499	36.164308390022676	60	127
35.07294784580499	36.164308390022676	77	127
35.07294784580499	35.618639455782315	72	127
35.07294784580499	35.444489795918365	57	127
35.734739229024946	36.28040816326531	72	127
35.734739229024946	36.09462585034014	57	127
36.39650793650794	36.884126984126986	70	127
36.39650793650794	36.884126984126986	72	127
36.39650793650794	36.884126984126986	76	127
36.39650793650794	36.72156462585034	55	127
37.00022675736962	37.267256235827666	53	127
37.00022675736962	37.418185941043085	77	127
37.00022675736962	37.418185941043085	72	127
37.00022675736962	37.418185941043085	69	127
37.52267573696145	38.35859410430839	67	127
37.52267573696145	38.35859410430839	79	127
37.52267573696145	37.917414965986396	52	127
37.52267573696145	39.066802721088436	72	127
38.48630385487528	39.171292517006805	65	127
38.48630385487528	39.00873015873016	50	127
38.48630385487528	39.171292517006805	81	127
39.287392290249436	40.37873015873016	72	127
39.287392290249436	40.14650793650794	82	127
39.287392290249436	40.37873015873016	64	127
39.287392290249436	40.37873015873016	48	127
40.22780045351474	40.33229024943311	79	127
40.367120181405895	40.49482993197279	76	127
40.52963718820862	40.634149659863944	72	127
40.66897959183674	41.4352380952381	70	127
41.56294784580499	42.24793650793651	48	127
41.56294784580499	42.24793650793651	64	127
41.56294784580499	42.79360544217687	70	127
42.24793650793651	43.002585034013606	52	127
42.24793650793651	43.002585034013606	67	127
43.002585034013606	43.47859410430839	69	127
43.002585034013606	43.583061224489796	53	127
43.002585034013606	43.583061224489796	65	127
43.06061224489796	43.30444444444444	69	127
43.3508843537415	43.583061224489796	77	127
43.583061224489796	45.84702947845805	65	127
43.583061224489796	44.8253514739229	74	127
43.583061224489796	43.919773242630384	46	127
43.62952380952381	44.84854875283447	77	127
44.22163265306123	44.8253514739229	46	127
44.802131519274376	45.17365079365079	74	127
44.8253514739229	45.185260770975056	70	127
45.138820861678006	46.86868480725624	72	127
45.185260770975056	46.508798185941046	69	127
45.185260770975056	45.46390022675737	48	127
45.73090702947846	46.009569160997735	48	127
46.28820861678005	47.73945578231292	64	127
46.28820861678005	46.78743764172336	48	127
46.822267573696145	47.205396825396825	73	127
47.124104308390024	47.46081632653061	70	127
47.124104308390024	47.55369614512472	48	127
47.1821768707483	47.56530612244898	74	127
47.53047619047619	47.91360544217687	70	127
47.55369614512472	47.94843537414966	67	127
47.99487528344671	49.58544217687075	53	127
47.99487528344671	48.94689342403628	60	127
47.99487528344671	48.38961451247165	67	127
47.99487528344671	48.38961451247165	70	127
48.38961451247165	48.900453514739226	65	127
48.38961451247165	48.900453514739226	69	127
48.94689342403628	49.08621315192744	64	127
48.94689342403628	49.08621315192744	58	127
48.94689342403628	49.08621315192744	67	127
49.225532879818594	49.43451247165533	57	127
49.225532879818594	49.43451247165533	65	127
49.58544217687075	51.257278911564626	57	127
49.58544217687075	50.711609977324265	65	127
49.58544217687075	51.257278911564626	60	127
50.30526077097505	50.978639455782314	41	127
50.978639455782314	51.686848072562356	45	127
51.31532879818594	51.640408163265306	61	127
51.686848072562356	51.953877551020405	62	127
51.686848072562356	52.42988662131519	48	127
51.686848072562356	51.953877551020405	58	127
52.023537414965986	52.3021768707483	58	127
52.023537414965986	52.3021768707483	55	127
52.42988662131519	52.894285714285715	53	127
52.42988662131519	53.67215419501134	53	127
52.42988662131519	52.894285714285715	57	127
53.24258503401361	53.55605442176871	72	127
53.33546485260771	53.62571428571429	65	127
53.33546485260771	53.62571428571429	69	127
53.590884353741494	53.86952380952381	71	127
53.89274376417234	54.83315192743764	74	127
53.9043537414966	54.25265306122449	69	127
53.9043537414966	54.25265306122449	65	127
54.78671201814059	55.49492063492063	72	127
54.8447619047619	55.20467120181406	53	127
54.8447619047619	55.20467120181406	69	127
54.8447619047619	55.20467120181406	65	127
55.20467120181406	55.599410430839	52	127
55.599410430839	56.342448979591836	55	127
55.599410430839	56.040589569161	69	127
55.599410430839	56.040589569161	60	127
56.30761904761905	56.5746485260771	72	127
56.342448979591836	56.772018140589566	69	127
56.342448979591836	56.772018140589566	60	127
56.342448979591836	57.07387755102041	53	127
57.07387755102041	58.13038548752834	52	127
57.07387755102041	57.49183673469388	60	127
57.07387755102041	57.49183673469388	67	127
57.712426303854876	58.06072562358277	72	127
57.77047619047619	58.083945578231294	64	127
57.77047619047619	58.083945578231294	67	127
58.03750566893424	58.362585034013605	71	127
58.35097505668934	59.10562358276644	74	127
58.362585034013605	58.64122448979592	67	127
58.362585034013605	58.64122448979592	64	127
59.059183673469384	59.349433106575965	72	127
59.1172335600907	59.58163265306123	52	127
59.1172335600907	59.58163265306123	64	127
59.1172335600907	59.58163265306123	67	127
59.58163265306123	60.02281179138322	50	127
60.02281179138322	60.73102040816327	53	127
60.02281179138322	60.41755102040816	60	127
60.02281179138322	60.41755102040816	67	127
60.67297052154195	60.928390022675735	72	127
60.73102040816327	61.032879818594104	60	127
60.73102040816327	61.032879818594104	67	127
60.73102040816327	61.311519274376415	52	127
61.311519274376415	61.694648526077096	72	127
61.311519274376415	62.42607709750567	50	127
61.311519274376415	61.694648526077096	62	127
61.99650793650794	62.36802721088436	72	127
61.99650793650794	62.36802721088436	62	127
61.99650793650794	62.36802721088436	77	127
62.36802721088436	62.71632653061224	76	127
62.71632653061224	63.09945578231292	62	127
62.71632653061224	63.09945578231292	72	127
62.71632653061224	63.43614512471655	79	127
63.43614512471655	64.07469387755103	77	127
63.43614512471655	63.877324263038545	72	127
63.43614512471655	63.877324263038545	62	127
63.43614512471655	63.877324263038545	55	127
63.877324263038545	64.20240362811792	54	127
64.20240362811792	64.5622902494331	71	127
64.20240362811792	64.87578231292517	57	127
64.20240362811792	64.5622902494331	62	127
64.87578231292517	65.37501133786849	77	127
64.87578231292517	65.20083900226757	62	127
64.87578231292517	65.20083900226757	71	127
64.87578231292517	65.49111111111111	55	127
65.49111111111111	66.88430839002268	48	127
65.49111111111111	65.88585034013606	60	127
65.50272108843538	65.90907029478458	72	127
66.17609977324263	66.8146485260771	67	127
66.17609977324263	66.8146485260771	76	127
66.21092970521542	66.84947845804989	72	127
66.8146485260771	67.18616780045352	74	127
67.18616780045352	67.82471655328798	77	127
67.18616780045352	67.5344671201814	67	127
67.22097505668934	67.58090702947845	72	127
67.82471655328798	68.4168253968254	60	127
67.82471655328798	68.4168253968254	67	127
67.82471655328798	68.59097505668935	76	127
67.84793650793651	68.44004535147393	72	127
68.4168253968254	68.7302947845805	59	127
68.7302947845805	69.0437641723356	67	127
68.7302947845805	69.42689342403628	62	127
68.76512471655329	69.09020408163265	72	127
69.42689342403628	70.00736961451247	60	127
69.42689342403628	70.00736961451247	76	127
69.42689342403628	69.78680272108843	67	127
69.4501133786848	69.81002267573696	72	127
70.12349206349207	71.0871201814059	52	127
70.12349206349207	70.4253514739229	70	127
70.15829931972789	70.4601814058957	72	127
70.69238095238096	71.00585034013605	79	127
70.70399092970521	71.01746031746032	70	127
70.70399092970521	71.04068027210884	72	127
71.00585034013605	71.48185941043084	78	127
71.4934693877551	71.78371882086168	70	127
71.51668934240362	71.85337868480725	72	127
71.51668934240362	72.17843537414966	81	127
72.15523809523809	72.56156462585034	52	127
72.15523809523809	72.56156462585034	70	127
72.16684807256236	72.74734693877551	72	127
72.21328798185941	72.82861678004535	79	127
72.56156462585034	73.14208616780046	50	127
73.14208616780046	73.90834467120182	53	127
73.14208616780046	73.4439455782313	70	127
73.16530612244898	73.47877551020409	72	127
73.89673469387755	74.37274376417234	72	127
73.89673469387755	74.44240362811792	80	127
73.90834467120182	74.37274376417234	70	127
73.90834467120182	74.55850340136054	52	127
74.709410430839	75.01129251700681	69	127
74.709410430839	75.01129251700681	72	127
74.709410430839	75.62662131519275	53	127
75.30154195011337	75.56857142857143	65	127
75.30154195011337	75.58018140589569	81	127
75.31315192743764	75.58018140589569	72	127
75.56857142857143	75.84721088435374	80	127
75.84721088435374	76.12585034013605	65	127
75.87043083900227	76.47412698412698	82	127
75.92848072562359	76.26517006802722	72	127
76.45092970521542	76.72954648526077	65	127
76.45092970521542	76.72954648526077	72	127
76.45092970521542	76.72954648526077	53	127
76.47412698412698	77.06625850340136	81	127
76.72954648526077	77.1475283446712	52	127
77.1475283446712	77.53065759637188	72	127
77.1475283446712	77.89056689342404	55	127
77.1475283446712	77.53065759637188	60	127
77.86734693877551	78.19242630385487	72	127
77.89056689342404	78.36657596371882	53	127
77.89056689342404	78.20403628117914	60	127
78.04149659863945	78.36657596371882	81	127
78.50589569160998	78.98190476190476	60	127
78.50589569160998	79.74816326530612	54	127
78.50589569160998	78.98190476190476	57	127
79.30698412698413	79.67850340136054	60	127
79.30698412698413	79.67850340136054	57	127
79.35342403628118	79.73655328798186	74	127
79.71333333333334	80.0035827664399	73	127
80.0035827664399	80.4795918367347	60	127
80.0035827664399	80.4795918367347	57	127
80.02678004535147	80.67696145124717	76	127
80.96721088435375	81.26907029478458	60	127
80.96721088435375	81.26907029478458	57	127
80.96721088435375	81.26907029478458	54	127
80.99043083900227	81.5477097505669	74	127
81.26907029478458	81.67541950113379	52	127
81.67541950113379	82.09337868480726	60	127
81.67541950113379	82.09337868480726	57	127
81.67541950113379	82.37201814058957	55	127
82.37201814058957	83.08022675736962	54	127
82.37201814058957	82.73192743764173	60	127
82.37201814058957	82.73192743764173	57	127
82.43006802721088	83.01056689342404	74	127
83.08022675736962	83.61428571428571	55	127
83.08022675736962	83.61428571428571	59	127
83.08022675736962	83.61428571428571	74	127
83.08022675736962	84.19478458049886	55	127
83.73036281179138	84.10190476190476	59	127
83.73036281179138	84.3108843537415	67	127
83.73036281179138	84.10190476190476	62	127
84.10190476190476	84.42698412698412	57	127
84.10190476190476	84.42698412698412	60	127
84.42698412698412	84.55469387755102	66	127
84.42698412698412	85.18163265306123	60	127
84.42698412698412	85.18163265306123	64	127
84.58952380952381	84.68240362811791	67	127
84.70562358276644	84.79850340136055	69	127
84.83333333333333	86.94634920634921	67	127
85.18163265306123	85.73891156462585	62	127
85.18163265306123	85.73891156462585	59	127
85.18163265306123	85.57637188208616	43	127
85.57637188208616	85.84340136054422	42	127
85.84340136054422	86.62124716553288	45	127
86.62124716553288	87.36430839002267	43	127
86.62124716553288	87.08566893424036	60	127
86.62124716553288	87.08566893424036	64	127
87.08566893424036	87.36430839002267	62	127
87.08566893424036	87.36430839002267	59	127
87.36430839002267	88.0260544217687	62	127
87.36430839002267	87.45718820861678	66	127
87.36430839002267	88.0260544217687	65	127
87.46879818594104	87.55006802721088	67	127
87.58489795918368	87.65455782312925	69	127
87.67777777777778	89.69791383219955	67	127
88.0260544217687	88.3627664399093	43	127
88.0260544217687	88.59496598639456	60	127
88.0260544217687	88.59496598639456	64	127
88.42081632653061	88.65301587301587	42	127
88.69945578231292	89.37283446712019	45	127
89.5237641723356	89.81399092970521	65	127
89.5237641723356	89.81399092970521	62	127
89.5237641723356	90.12748299319728	43	127
89.81399092970521	90.23197278911564	61	127
89.81399092970521	90.23197278911564	64	127
90.23197278911564	90.9053514739229	67	127
90.23197278911564	90.9053514739229	64	127
90.23197278911564	90.44095238095238	77	127
90.45253968253968	90.52222222222223	79	127
90.54544217687075	90.61510204081632	81	127
90.64993197278912	92.83260770975056	79	127
90.9053514739229	91.25365079365079	43	127
90.9053514739229	91.48585034013605	62	127
90.9053514739229	91.48585034013605	65	127
91.31170068027211	91.54390022675737	42	127
91.59034013605442	92.17083900226757	45	127
92.29854875283446	92.99514739229025	43	127
92.29854875283446	92.77455782312926	64	127
92.29854875283446	92.77455782312926	67	127
92.77455782312926	93.19251700680272	66	127
92.77455782312926	93.19251700680272	63	127
93.19251700680272	93.27378684807256	77	127
93.19251700680272	93.81945578231293	69	127
93.19251700680272	93.81945578231293	65	127
93.34342403628118	93.40149659863945	79	127
93.42471655328798	93.4943537414966	81	127
93.51759637188209	96.51297052154194	79	127
93.81945578231293	94.50444444444445	43	127
93.81945578231293	94.50444444444445	67	127
93.81945578231293	94.50444444444445	64	127
94.50444444444445	95.1778231292517	47	127
94.50444444444445	95.1778231292517	62	127
94.50444444444445	95.1778231292517	65	127
95.1778231292517	95.97891156462585	48	127
95.1778231292517	95.97891156462585	64	127
95.1778231292517	95.97891156462585	60	127
95.97891156462585	97.20956916099773	59	127
95.97891156462585	97.20956916099773	62	127
95.97891156462585	97.20956916099773	55	127
96.62907029478458	96.93092970521542	79	127
96.93092970521542	97.20956916099773	78	127
97.20956916099773	97.80167800453515	81	127
97.80167800453515	98.11514739229025	79	127
98.11514739229025	98.40539682539682	77	127
98.40539682539682	98.68403628117913	76	127
98.68403628117913	99.09038548752835	79	127
99.09038548752835	99.3574149659864	77	127
99.3574149659864	99.72893424036282	76	127
99.72893424036282	100.15850340136055	74	127
100.15850340136055	100.48358276643991	65	127
100.15850340136055	100.48358276643991	62	127
100.15850340136055	100.48358276643991	73	127
100.15850340136055	100.48358276643991	55	127
100.48358276643991	100.69256235827665	74	127
100.86671201814059	101.19179138321995	55	127
100.86671201814059	101.19179138321995	62	127
100.86671201814059	101.19179138321995	65	127
100.86671201814059	101.19179138321995	73	127
101.19179138321995	101.34272108843537	74	127
101.57492063492063	101.87678004535148	55	127
101.57492063492063	101.87678004535148	62	127
101.57492063492063	101.87678004535148	73	127
101.57492063492063	101.87678004535148	65	127
101.87678004535148	102.01609977324263	74	127
103.5950566893424	103.76920634920634	74	127
103.76920634920634	103.9085260770975	77	127
103.9085260770975	104.0710657596372	76	127
104.0710657596372	104.3497052154195	74	127
104.3497052154195	104.50063492063492	72	127
104.50063492063492	104.63995464852607	71	127
104.63995464852607	104.90698412698413	69	127
104.90698412698413	105.17401360544218	65	127
104.90698412698413	105.17401360544218	59	127
104.90698412698413	105.17401360544218	69	127
104.90698412698413	105.17401360544218	62	127
105.17401360544218	105.39460317460318	67	127
105.60358276643991	105.89383219954648	59	127
105.60358276643991	105.89383219954648	62	127
105.60358276643991	105.89383219954648	65	127
105.60358276643991	105.89383219954648	69	127
105.89383219954648	106.03315192743764	67	127
106.28857142857143	106.71814058956916	65	127
106.28857142857143	106.59043083900227	69	127
106.28857142857143	106.71814058956916	59	127
106.28857142857143	106.71814058956916	62	127
106.71814058956916	106.85746031746032	67	127
109.73673469387755	110.15469387755103	48	127
109.73673469387755	110.82807256235827	60	127
110.15469387755103	110.49138321995464	47	127
110.49138321995464	110.77002267573697	48	127
110.77002267573697	111.14154195011338	43	127
111.14154195011338	111.65238095238095	60	127
111.14154195011338	111.47823129251701	48	127
111.47823129251701	111.83814058956916	47	127
111.83814058956916	112.18643990929705	48	127
111.83814058956916	112.360589569161	60	127
112.18643990929705	112.5463492063492	43	127
112.5463492063492	113.13845804988662	60	127
112.5463492063492	112.90625850340136	48	127
112.90625850340136	113.30099773242631	47	127
113.30099773242631	113.82344671201814	60	127
113.30099773242631	113.59124716553288	48	127
113.59124716553288	113.99759637188208	43	127
113.99759637188208	115.29791383219954	60	127
113.99759637188208	116.33120181405896	55	127
113.99759637188208	115.29791383219954	65	127
113.99759637188208	114.52004535147393	50	127
114.52004535147393	114.93800453514739	49	127
114.93800453514739	115.23986394557824	50	127
115.23986394557824	115.5301133786848	43	127
115.5301133786848	115.89002267573696	50	127
115.5301133786848	116.60984126984127	59	127
115.5301133786848	116.0641723356009	65	127
115.89002267573696	116.18027210884354	49	127
116.18027210884354	116.5401814058957	50	127
116.18027210884354	116.7259410430839	65	127
116.5401814058957	116.8536507936508	43	127
116.8536507936508	117.43414965986395	65	127
116.8536507936508	117.21356009070294	50	127
117.21356009070294	117.55024943310657	49	127
117.55024943310657	117.86371882086168	50	127
117.55024943310657	118.20040816326531	65	127
117.86371882086168	118.36294784580498	43	127
118.36294784580498	118.71124716553288	48	127
118.36294784580498	119.41945578231292	72	127
118.36294784580498	119.41945578231292	65	127
118.36294784580498	120.45274376417234	67	127
118.71124716553288	119.04793650793651	47	127
119.04793650793651	119.33818594104308	48	127
119.33818594104308	119.66326530612245	43	127
119.66326530612245	120.92875283446712	64	127
119.66326530612245	120.22054421768708	72	127
119.66326530612245	120.04639455782313	48	127
120.04639455782313	120.34825396825397	47	127
120.34825396825397	121.04485260770976	72	127
120.34825396825397	120.63850340136054	48	127
120.63850340136054	121.1841723356009	43	127
121.1841723356009	121.81111111111112	72	127
121.1841723356009	121.61374149659864	48	127
121.61374149659864	121.91560090702947	47	127
121.91560090702947	122.43804988662131	72	127
121.91560090702947	122.1942403628118	48	127
122.1942403628118	122.57736961451248	43	127
122.57736961451248	124.81809523809524	67	127
122.57736961451248	123.72675736961452	77	127
122.57736961451248	123.72675736961452	72	127
122.57736961451248	122.86761904761904	50	127
122.86761904761904	123.32040816326531	49	127
123.32040816326531	123.64548752834467	50	127
123.64548752834467	123.93573696145124	43	127
123.93573696145124	125.10834467120182	71	127
123.93573696145124	124.56267573696145	77	127
123.93573696145124	124.38852607709751	50	127
124.38852607709751	124.67877551020408	49	127
124.67877551020408	125.03868480725623	50	127
124.67877551020408	125.22444444444444	77	127
125.03868480725623	125.43342403628118	43	127
125.43342403628118	125.75850340136054	50	127
125.43342403628118	125.93265306122449	77	127
125.75850340136054	126.09519274376417	49	127
126.09519274376417	126.45510204081633	50	127
126.09519274376417	126.61764172335602	77	127
126.45510204081633	126.81501133786848	43	127
126.81501133786848	128.5448979591837	67	127
126.81501133786848	128.5448979591837	70	127
126.81501133786848	128.0340589569161	77	127
126.81501133786848	127.39551020408163	48	127
127.39551020408163	127.67414965986394	47	127
127.67414965986394	127.96439909297052	48	127
127.96439909297052	128.24301587301588	43	127
128.24301587301588	128.76548752834466	76	127
128.24301587301588	128.60292517006803	48	127
128.60292517006803	128.8815873015873	47	127
128.8815873015873	129.47367346938776	67	127
128.8815873015873	129.47367346938776	76	127
128.8815873015873	129.47367346938776	82	127
128.8815873015873	129.2879365079365	48	127
129.2879365079365	129.58979591836734	43	127
129.58979591836734	130.4257142857143	48	127
129.58979591836734	130.58825396825398	67	127
129.58979591836734	130.58825396825398	76	127
129.58979591836734	130.58825396825398	82	127
130.4257142857143	130.69274376417235	47	127
130.69274376417235	131.1455328798186	67	127
130.69274376417235	131.1455328798186	76	127
130.69274376417235	131.1455328798186	82	127
130.69274376417235	130.97138321995465	48	127
130.97138321995465	131.25002267573697	43	127
131.25002267573697	133.35142857142858	40	127
131.25002267573697	133.35142857142858	60	127
131.25002267573697	133.35142857142858	70	127
131.25002267573697	133.35142857142858	79	127
131.25002267573697	133.35142857142858	72	127
131.25002267573697	133.35142857142858	82	127
133.58362811791383	134.46598639455783	81	127
133.58362811791383	134.46598639455783	72	127
133.58362811791383	134.46598639455783	41	127
133.58362811791383	134.46598639455783	60	127
133.58362811791383	134.46598639455783	77	127
133.58362811791383	134.46598639455783	69	127
135.90562358276645	136.9505215419501	74	127
135.90562358276645	136.9505215419501	69	127
135.90562358276645	136.9505215419501	72	127
135.90562358276645	136.9505215419501	65	127
137.17111111111112	137.98380952380953	65	127
137.17111111111112	137.98380952380953	74	127
137.17111111111112	137.98380952380953	72	127
137.17111111111112	137.98380952380953	69	127
138.12312925170068	138.61074829931974	72	127
138.12312925170068	138.61074829931974	74	127
138.12312925170068	138.61074829931974	69	127
138.12312925170068	138.61074829931974	65	127
138.73845804988662	139.27251700680273	74	127
138.73845804988662	139.27251700680273	69	127
138.73845804988662	139.27251700680273	72	127
138.73845804988662	139.27251700680273	65	127
139.3885941043084	140.00392290249434	74	127
139.3885941043084	140.00392290249434	72	127
139.3885941043084	140.00392290249434	69	127
139.3885941043084	140.00392290249434	65	127
140.10843537414965	141.2578231292517	68	127
140.10843537414965	140.5380045351474	74	127
140.10843537414965	141.2578231292517	72	127
140.10843537414965	141.2578231292517	65	127
140.5380045351474	140.6889342403628	75	127
140.6889342403628	140.82825396825396	77	127
140.82825396825396	141.15333333333334	75	127
141.15333333333334	141.78027210884355	74	127
141.78027210884355	142.5581179138322	65	127
141.78027210884355	142.5581179138322	74	127
141.78027210884355	142.5581179138322	72	127
141.78027210884355	142.5581179138322	68	127
142.6742403628118	143.45210884353742	74	127
142.6742403628118	143.45210884353742	68	127
142.6742403628118	143.45210884353742	72	127
142.6742403628118	143.45210884353742	65	127
143.56820861678005	144.13709750566895	74	127
143.56820861678005	144.13709750566895	72	127
143.56820861678005	144.13709750566895	68	127
143.56820861678005	144.13709750566895	65	127
144.24156462585034	144.7756462585034	65	127
144.24156462585034	144.7756462585034	68	127
144.24156462585034	144.7756462585034	72	127
144.24156462585034	144.7756462585034	74	127
144.88013605442177	145.91342403628119	69	127
144.88013605442177	146.5055328798186	62	127
144.88013605442177	146.5055328798186	54	127
144.88013605442177	147.98	60	127
145.91342403628119	146.5055328798186	74	127
146.5055328798186	147.98	55	127
146.5055328798186	147.98	72	127
146.5055328798186	147.98	64	127
147.98	149.2687074829932	56	127
147.98	149.2687074829932	62	127
147.98	149.2687074829932	65	127
147.98	149.2687074829932	71	127
149.2687074829932	150.7895918367347	57	127
149.2687074829932	150.25555555555556	60	127
149.2687074829932	150.25555555555556	64	127
149.2687074829932	152.04349206349207	72	127
150.25555555555556	151.0450113378685	60	127
150.25555555555556	151.0450113378685	48	127
151.0450113378685	151.89256235827665	49	127
151.0450113378685	152.4150113378685	45	127
151.0450113378685	151.89256235827665	61	127
151.89256235827665	152.64721088435374	62	127
151.89256235827665	152.64721088435374	50	127
152.64721088435374	153.494716553288	63	127
152.64721088435374	154.00555555555556	43	127
152.64721088435374	153.494716553288	51	127
152.64721088435374	152.77492063492065	72	127
152.90263038548753	152.99551020408163	70	127
153.0071201814059	153.12321995464853	72	127
153.1348299319728	153.2392970521542	70	127
153.26253968253968	153.35541950113378	72	127
153.3902494331066	153.47151927437642	70	127
153.494716553288	154.28421768707483	64	127
153.494716553288	154.28421768707483	52	127
153.494716553288	153.56439909297052	72	127
153.58761904761906	153.6688888888889	70	127
153.71532879818594	153.8198185941043	72	127
153.83142857142857	154.01718820861677	70	127
154.08684807256236	154.1681179138322	69	127
154.19133786848073	154.26097505668935	70	127
154.28421768707483	154.80666666666667	65	127
154.28421768707483	154.80666666666667	53	127
154.28421768707483	155.0504761904762	69	127
154.28421768707483	155.72385487528345	41	127
155.1781859410431	155.64256235827665	65	127
155.1781859410431	156.1185941043084	81	127
155.1781859410431	155.64256235827665	72	127
156.01410430839002	156.29274376417234	72	127
156.01410430839002	156.29274376417234	65	127
156.29274376417234	156.36238095238096	82	127
156.38562358276644	156.45528344671203	81	127
156.47850340136054	156.54816326530613	79	127
156.57138321995464	156.91965986394558	65	127
156.57138321995464	156.8384126984127	81	127
156.57138321995464	156.91965986394558	72	127
156.91965986394558	157.1518820861678	83	127
157.25637188208617	158.70761904761906	53	127
157.25637188208617	158.08068027210885	65	127
157.25637188208617	158.08068027210885	72	127
157.25637188208617	158.02263038548753	86	127
158.08068027210885	158.30124716553289	84	127
158.3477097505669	158.59151927437642	83	127
158.3477097505669	158.64956916099774	72	127
158.3477097505669	158.64956916099774	65	127
158.64956916099774	158.87015873015872	81	127
158.92820861678004	160.70451247165533	79	127
158.92820861678004	160.1704761904762	52	127
158.92820861678004	159.52031746031747	72	127
158.92820861678004	162.07451247165534	67	127
159.64802721088435	160.84385487528345	79	127
160.44909297052155	161.40113378684808	50	127
161.0760544217687	161.6217006802721	77	127
161.0760544217687	161.6217006802721	81	127
161.6217006802721	162.96848072562358	48	127
161.6217006802721	162.1790022675737	77	127
161.6217006802721	162.1790022675737	83	127
162.1790022675737	163.17746031746032	76	127
162.1790022675737	163.17746031746032	84	127
163.17746031746032	163.45609977324264	79	127
163.17746031746032	163.514126984127	55	127
163.514126984127	163.79278911564626	78	127
163.8392290249433	164.45455782312925	72	127
163.8392290249433	164.45455782312925	55	127
163.8392290249433	164.2455782312925	77	127
163.8392290249433	164.45455782312925	64	127
164.45455782312925	164.70997732426304	76	127
164.7564172335601	165.00020408163266	76	127
164.7564172335601	165.17437641723356	72	127
164.7564172335601	165.17437641723356	65	127
164.7564172335601	165.17437641723356	55	127
165.00020408163266	165.17437641723356	74	127
165.17437641723356	165.36013605442176	76	127
165.36013605442176	165.54589569160999	74	127
165.54589569160999	165.77809523809523	76	127
165.54589569160999	165.91739229024944	72	127
165.54589569160999	165.91739229024944	65	127
165.54589569160999	165.91739229024944	55	127
165.77809523809523	165.91739229024944	74	127
165.91739229024944	166.12639455782312	76	127
166.12639455782312	166.2889342403628	74	127
166.2889342403628	166.81138321995465	71	127
166.2889342403628	166.81138321995465	65	127
166.2889342403628	166.81138321995465	55	127
166.2889342403628	166.49791383219954	76	127
166.49791383219954	166.70689342403628	74	127
166.70689342403628	166.81138321995465	76	127
166.81138321995465	166.90426303854875	74	127
166.90426303854875	167.00875283446712	76	127
167.00875283446712	167.09002267573698	74	127
167.09002267573698	167.46154195011337	55	127
167.09002267573698	167.46154195011337	65	127
167.09002267573698	167.46154195011337	71	127
167.09002267573698	167.22934240362812	76	127
167.22934240362812	167.357052154195	74	127
167.357052154195	167.46154195011337	76	127
167.46154195011337	167.7401814058957	74	127
167.7401814058957	167.84467120181407	72	127
167.84467120181407	167.99560090702948	74	127
167.99560090702948	172.58154195011338	72	127
167.99560090702948	172.58154195011338	64	127
167.99560090702948	168.7270068027211	48	127
167.99560090702948	169.19140589569162	72	127
168.83149659863946	169.07532879818595	48	127
169.13337868480727	169.35396825396825	47	127
169.4004081632653	170.32920634920634	50	127
170.46850340136055	170.96775510204083	48	127
170.46850340136055	170.7819954648526	72	127
170.7819954648526	171.0722448979592	71	127
171.0722448979592	171.72240362811792	74	127
171.72240362811792	172.58154195011338	72	127
171.72240362811792	172.477052154195	48	127
172.58154195011338	176.76113378684806	65	127
172.58154195011338	176.76113378684806	71	127
172.58154195011338	173.15043083900227	76	127
173.15043083900227	173.3942403628118	48	127
173.15043083900227	173.6728798185941	74	127
173.4522902494331	173.93990929705217	47	127
174.00956916099773	174.682947845805	50	127
174.78743764172336	175.17054421768708	74	127
174.78743764172336	175.34471655328798	48	127
175.17054421768708	175.44920634920635	73	127
175.44920634920635	175.9948752834467	76	127
175.9948752834467	176.76113378684806	74	127
175.9948752834467	176.58698412698413	48	127
176.76113378684806	177.33002267573696	77	127
176.76113378684806	179.43142857142857	67	127
176.76113378684806	179.43142857142857	70	127
177.33002267573696	177.87569160997734	76	127
177.33002267573696	177.597052154195	48	127
177.6782993197279	177.9221315192744	47	127
177.98015873015873	178.67678004535148	50	127
178.78126984126985	179.3269387755102	48	127
178.78126984126985	179.09473922902495	77	127
179.09473922902495	179.43142857142857	76	127
179.43142857142857	180.75496598639455	69	127
179.43142857142857	180.75496598639455	65	127
179.43142857142857	180.0467573696145	79	127
180.0467573696145	180.26734693877552	48	127
180.0467573696145	180.6156462585034	77	127
180.44149659863945	180.69691609977323	47	127
180.75496598639455	182.14816326530612	60	127
180.75496598639455	181.39351473922903	50	127
180.75496598639455	182.14816326530612	69	127
181.5095918367347	181.85791383219956	79	127
181.5095918367347	182.04367346938776	48	127
181.85791383219956	182.14816326530612	78	127
182.14816326530612	184.99260770975056	64	127
182.14816326530612	184.99260770975056	58	127
182.14816326530612	182.69383219954648	81	127
182.69383219954648	183.52975056689343	79	127
182.69383219954648	182.9724716553288	48	127
183.07696145124717	183.58780045351475	47	127
183.64585034013606	184.17990929705215	50	127
184.28439909297052	184.8532879818594	48	127
184.28439909297052	184.57462585034014	81	127
184.6326984126984	184.89972789115646	79	127
184.99260770975056	186.3277551020408	65	127
184.99260770975056	185.52666666666667	82	127
184.99260770975056	186.3277551020408	57	127
185.65437641723355	186.20004535147393	81	127
185.65437641723355	185.88657596371883	48	127
185.94462585034015	186.2697052154195	47	127
186.3277551020408	186.8734240362812	50	127
186.3277551020408	187.7790022675737	53	127
186.3277551020408	187.7790022675737	57	127
186.9895238095238	187.62807256235828	48	127
186.9895238095238	187.36104308390023	82	127
187.45392290249433	187.7093424036281	81	127
187.7790022675737	189.05609977324264	52	127
187.7790022675737	188.2201814058957	84	127
187.7790022675737	189.05609977324264	55	127
188.33628117913833	188.85873015873017	82	127
188.33628117913833	188.55687074829933	48	127
188.60331065759638	188.9167800453515	47	127
189.05609977324264	191.71478458049887	52	127
189.05609977324264	191.71478458049887	55	127
189.05609977324264	189.70625850340136	50	127
189.8455782312925	190.07777777777778	70	127
189.8455782312925	190.4144671201814	48	127
190.18226757369615	190.47251700680272	69	127
190.53056689342404	191.09945578231293	72	127
191.1342857142857	192.52748299319728	70	127
192.59714285714287	193.20086167800454	71	127
193.20086167800454	193.7465306122449	72	127
193.20086167800454	193.7465306122449	69	127
193.20086167800454	194.501179138322	60	127
193.20086167800454	194.501179138322	53	127
193.7465306122449	193.90907029478458	65	127
193.7465306122449	193.90907029478458	69	127
193.90907029478458	194.76820861678004	72	127
193.90907029478458	194.76820861678004	69	127
194.76820861678004	194.91913832199546	65	127
194.76820861678004	194.91913832199546	69	127
194.91913832199546	196.23106575963718	45	127
194.91913832199546	197.36884353741496	60	127
194.91913832199546	197.36884353741496	65	127
194.91913832199546	196.86961451247166	57	127
196.48648526077096	197.90290249433107	48	127
197.36884353741496	197.7635827664399	58	127
197.36884353741496	198.18154195011337	67	127
197.36884353741496	198.18154195011337	64	127
197.84485260770975	198.12349206349205	55	127
198.18154195011337	199.31931972789116	52	127
198.18154195011337	199.59795918367348	70	127
198.18154195011337	200.35260770975057	41	127
198.18154195011337	199.31931972789116	67	127
199.59795918367348	200.2481179138322	65	127
199.59795918367348	200.2481179138322	53	127
199.59795918367348	200.80539682539683	69	127
200.2481179138322	201.26979591836735	65	127
200.2481179138322	201.26979591836735	53	127
201.26979591836735	201.93156462585034	55	127
201.26979591836735	201.93156462585034	64	127
201.93156462585034	203.18544217687074	65	127
201.93156462585034	202.7907029478458	57	127
201.93156462585034	202.7907029478458	63	127
202.7907029478458	203.417641723356	62	127
202.7907029478458	203.417641723356	53	127
202.7907029478458	203.417641723356	58	127
203.18544217687074	203.56857142857143	62	127
203.56857142857143	204.72956916099773	65	127
203.56857142857143	204.63668934240363	70	127
203.56857142857143	204.72956916099773	62	127
204.28839002267574	204.84566893424036	50	127
204.63668934240363	204.95015873015873	65	127
204.95015873015873	205.9950566893424	65	127
204.95015873015873	205.9950566893424	70	127
204.95015873015873	205.9370068027211	74	127
205.57709750566895	206.36657596371882	46	127
205.9370068027211	206.50589569160996	70	127
206.50589569160996	207.30698412698413	77	127
206.50589569160996	206.95868480725625	70	127
206.50589569160996	207.30698412698413	74	127
207.07478458049886	208.3867120181406	65	127
207.07478458049886	208.3867120181406	41	127
207.48113378684806	207.7597732426304	76	127
207.48113378684806	207.7597732426304	73	127
207.80621315192744	208.06163265306122	72	127
207.80621315192744	208.06163265306122	75	127
208.15451247165532	208.56086167800453	74	127
208.15451247165532	208.56086167800453	70	127
208.60730158730158	209.52448979591836	72	127
208.60730158730158	209.52448979591836	69	127
209.17619047619047	209.74507936507936	53	127
209.74507936507936	210.89446712018142	50	127
210.89446712018142	211.71877551020407	48	127
211.71877551020407	212.68240362811792	62	127
211.71877551020407	213.2861224489796	67	127
211.71877551020407	212.06707482993198	47	127
211.71877551020407	212.68240362811792	65	127
212.34571428571428	212.63596371882088	47	127
212.98426303854876	213.35578231292516	48	127
212.98426303854876	215.46879818594104	60	127
212.98426303854876	214.07560090702947	64	127
213.68086167800453	214.01755102040818	48	127
213.68086167800453	213.82018140589568	69	127
213.84340136054422	213.9711111111111	67	127
214.01755102040818	214.14526077097506	66	127
214.1684807256236	214.319410430839	67	127
214.34263038548752	215.3294784580499	70	127
214.34263038548752	215.01600907029479	42	127
214.34263038548752	215.88675736961451	63	127
215.3294784580499	216.18861678004535	69	127
215.3294784580499	215.8287074829932	42	127
216.18861678004535	216.79233560090702	72	127
216.18861678004535	216.79233560090702	54	127
216.18861678004535	216.79233560090702	63	127
216.18861678004535	216.47886621315192	43	127
216.79233560090702	217.3960544217687	55	127
216.79233560090702	217.12902494331067	43	127
216.79233560090702	217.3960544217687	70	127
216.79233560090702	217.3960544217687	62	127
217.3960544217687	219.76448979591837	70	127
217.3960544217687	218.01138321995464	37	127
217.3960544217687	218.89374149659864	64	127
217.3960544217687	218.89374149659864	55	127
218.31324263038547	218.61510204081634	37	127
218.89374149659864	219.41619047619048	38	127
218.89374149659864	220.14761904761906	53	127
218.89374149659864	220.14761904761906	65	127
219.76448979591837	220.08956916099774	38	127
219.76448979591837	220.36820861678004	69	127
220.36820861678004	220.6932879818594	69	127
220.36820861678004	220.6932879818594	46	127
220.36820861678004	221.8542857142857	62	127
220.36820861678004	221.8542857142857	58	127
220.6932879818594	220.9719274376417	67	127
220.9719274376417	221.56403628117914	70	127
220.9719274376417	221.56403628117914	46	127
221.56403628117914	221.8542857142857	62	127
221.8542857142857	222.24902494331064	48	127
221.8542857142857	223.16621315192745	60	127
221.8542857142857	223.16621315192745	57	127
221.8542857142857	222.53927437641724	65	127
222.53927437641724	222.87596371882086	48	127
222.53927437641724	223.16621315192745	66	127
223.16621315192745	223.6190022675737	48	127
223.16621315192745	223.92086167800454	67	127
223.16621315192745	224.3039909297052	64	127
223.16621315192745	224.3039909297052	60	127
223.92086167800454	224.2459410430839	48	127
223.92086167800454	224.6871201814059	68	127
224.6871201814059	224.90770975056688	65	127
224.6871201814059	226.0338775510204	60	127
224.6871201814059	224.90770975056688	69	127
224.6871201814059	226.0338775510204	41	127
224.95414965986396	225.0354195011338	70	127
224.95414965986396	225.0354195011338	67	127
225.04702947845806	225.441768707483	69	127
225.04702947845806	225.441768707483	65	127
225.47659863945577	225.55786848072563	67	127
225.47659863945577	225.55786848072563	64	127
225.58108843537414	225.88294784580498	65	127
225.58108843537414	225.88294784580498	69	127
225.92938775510203	226.28929705215418	70	127
225.92938775510203	226.28929705215418	67	127
226.3473469387755	227.47351473922902	72	127
226.3473469387755	227.47351473922902	69	127
227.14843537414967	227.8218140589569	60	127
227.8218140589569	228.82027210884354	59	127
228.82027210884354	229.50526077097507	58	127
229.50526077097507	231.223537414966	72	127
229.50526077097507	230.57337868480727	60	127
229.50526077097507	230.29473922902494	77	127
229.50526077097507	229.96965986394557	57	127
230.1786394557823	230.72430839002268	57	127
230.51532879818595	230.67786848072564	79	127
230.70108843537415	230.9681179138322	77	127
230.9681179138322	231.5602267573696	55	127
230.9681179138322	231.5602267573696	70	127
230.9681179138322	231.5602267573696	76	127
231.5602267573696	232.1639455782313	77	127
231.5602267573696	232.1639455782313	72	127
231.5602267573696	232.1639455782313	69	127
231.5602267573696	232.1639455782313	53	127
232.1639455782313	232.89537414965986	79	127
232.1639455782313	232.89537414965986	72	127
232.1639455782313	232.89537414965986	67	127
232.1639455782313	232.89537414965986	52	127
232.89537414965986	233.83578231292518	65	127
232.89537414965986	233.83578231292518	81	127
232.89537414965986	233.83578231292518	72	127
232.89537414965986	233.83578231292518	50	127
233.83578231292518	235.0548299319728	64	127
233.83578231292518	235.0548299319728	48	127
233.83578231292518	234.64848072562359	82	127
233.83578231292518	235.0548299319728	72	127
234.77619047619046	235.00839002267574	79	127
235.04321995464852	235.240589569161	76	127
235.26380952380953	235.3915192743764	72	127
235.41473922902495	235.97201814058957	70	127
236.0300680272109	237.38843537414965	70	127
236.0300680272109	236.61056689342405	48	127
236.0300680272109	236.61056689342405	64	127
236.61056689342405	237.38843537414965	67	127
236.61056689342405	237.38843537414965	49	127
237.38843537414965	238.20113378684806	65	127
237.38843537414965	238.20113378684806	69	127
237.38843537414965	238.20113378684806	50	127
237.4348752834467	237.7251247165533	69	127
237.8760544217687	238.17791383219955	77	127
238.20113378684806	239.6059410430839	65	127
238.20113378684806	239.16476190476192	74	127
238.20113378684806	239.16476190476192	77	127
238.20113378684806	238.51460317460317	46	127
239.04866213151928	239.45501133786848	46	127
239.45501133786848	239.8265306122449	70	127
239.45501133786848	239.8265306122449	74	127
239.89619047619047	240.43024943310658	65	127
239.89619047619047	240.2328798185941	48	127
239.89619047619047	240.11678004535148	69	127
239.89619047619047	240.11678004535148	72	127
240.2328798185941	240.33736961451248	81	127
240.2328798185941	240.33736961451248	77	127
240.581179138322	241.1732879818594	60	127
240.581179138322	240.6740589569161	79	127
240.581179138322	240.6740589569161	76	127
240.581179138322	240.8946485260771	48	127
240.8946485260771	241.03396825396825	74	127
240.8946485260771	241.03396825396825	77	127
241.3009977324263	241.40548752834468	76	127
241.3009977324263	241.61446712018142	48	127
241.3009977324263	241.40548752834468	72	127
241.61446712018142	241.7421768707483	70	127
241.61446712018142	241.7421768707483	74	127
242.04403628117913	242.1485260770975	72	127
242.04403628117913	242.1485260770975	69	127
242.04403628117913	242.34589569160997	48	127
242.04403628117913	242.6245351473923	60	127
242.34589569160997	242.4968253968254	70	127
242.34589569160997	242.4968253968254	67	127
242.72902494331066	243.68104308390022	53	127
242.72902494331066	243.04249433106577	70	127
242.72902494331066	243.04249433106577	67	127
242.72902494331066	243.2166439909297	60	127
243.04249433106577	243.28630385487529	65	127
243.04249433106577	243.33274376417233	69	127
243.33274376417233	243.47206349206348	67	127
243.33274376417233	243.47206349206348	64	127
243.33274376417233	243.55333333333334	58	127
243.6229931972789	243.76231292517008	65	127
243.6229931972789	243.76231292517008	57	127
244.15705215419501	244.6678911564626	57	127
244.15705215419501	244.6678911564626	60	127
244.15705215419501	245.42253968253968	65	127
244.7259410430839	244.818820861678	69	127
244.7259410430839	244.818820861678	65	127
245.08585034013606	245.1671201814059	64	127
245.08585034013606	245.1671201814059	67	127
245.08585034013606	245.53863945578232	45	127
245.36448979591836	245.44575963718822	62	127
245.36448979591836	245.44575963718822	65	127
245.64312925170069	245.89854875283447	60	127
245.64312925170069	245.89854875283447	64	127
245.64312925170069	246.3281179138322	48	127
246.142358276644	246.22362811791382	58	127
246.142358276644	246.22362811791382	62	127
246.44421768707483	246.6067573696145	60	127
246.44421768707483	246.6067573696145	57	127
246.44421768707483	247.03632653061226	40	127
246.82734693877552	246.94344671201813	58	127
246.82734693877552	246.94344671201813	55	127
247.16403628117914	248.9635827664399	72	127
247.16403628117914	247.53555555555556	39	127
247.16403628117914	247.53555555555556	53	127
247.16403628117914	247.53555555555556	57	127
247.9302947845805	248.35986394557824	39	127
247.9302947845805	248.35986394557824	53	127
247.9302947845805	248.35986394557824	57	127
248.73138321995464	249.02163265306123	39	127
248.73138321995464	249.02163265306123	57	127
248.73138321995464	249.02163265306123	53	127
249.02163265306123	249.32349206349207	79	127
249.32349206349207	249.91560090702947	77	127
249.32349206349207	249.91560090702947	53	127
249.32349206349207	249.91560090702947	39	127
249.32349206349207	249.91560090702947	57	127
249.91560090702947	250.2174603174603	75	127
250.2174603174603	250.58897959183673	57	127
250.2174603174603	250.58897959183673	74	127
250.2174603174603	250.58897959183673	65	127
250.2174603174603	250.58897959183673	51	127
250.58897959183673	250.8792290249433	72	127
250.8792290249433	251.25074829931972	60	127
250.8792290249433	251.25074829931972	70	127
250.8792290249433	251.25074829931972	65	127
250.8792290249433	251.25074829931972	51	127
251.25074829931972	251.5990476190476	69	127
251.5990476190476	251.8892970521542	62	127
251.5990476190476	251.8892970521542	65	127
251.5990476190476	252.1679365079365	72	127
252.1679365079365	252.5510657596372	62	127
252.1679365079365	252.7368253968254	70	127
252.1679365079365	252.4814058956916	50	127
252.1679365079365	252.5510657596372	65	127
252.5510657596372	252.80648526077098	48	127
252.8645351473923	253.4914739229025	51	127
252.8645351473923	253.3289342403628	58	127
252.8645351473923	253.3289342403628	65	127
253.60757369614512	254.14163265306124	58	127
253.60757369614512	254.14163265306124	65	127
253.60757369614512	254.03714285714287	70	127
253.60757369614512	254.31578231292517	50	127
254.14163265306124	254.36222222222221	69	127
254.42027210884353	254.73374149659864	65	127
254.42027210884353	255.0007709750567	72	127
254.42027210884353	254.73374149659864	62	127
255.0007709750567	255.51160997732427	71	127
255.0007709750567	255.34907029478458	62	127
255.0007709750567	255.34907029478458	65	127
255.61609977324264	256.39396825396824	74	127
255.61609977324264	256.0108390022676	63	127
255.61609977324264	256.0108390022676	65	127
256.39396825396824	256.70743764172335	45	127
256.39396825396824	256.83514739229025	65	127
256.39396825396824	256.83514739229025	63	127
256.39396825396824	257.044126984127	72	127
256.83514739229025	257.09054421768707	43	127
257.14861678004536	257.77555555555557	46	127
257.14861678004536	257.4504761904762	63	127
257.14861678004536	257.4504761904762	65	127
257.9032426303855	258.1702947845805	72	127
257.9032426303855	258.23995464852607	63	127
257.9032426303855	258.23995464852607	65	127
257.9032426303855	258.43732426303853	45	127
258.23995464852607	258.4837641723356	71	127
258.56503401360544	258.9017233560091	63	127
258.56503401360544	258.9017233560091	65	127
258.56503401360544	259.33129251700683	74	127
259.33129251700683	259.83052154195013	72	127
259.33129251700683	259.65637188208615	63	127
259.33129251700683	259.65637188208615	65	127
259.9814512471655	260.3878004535147	66	127
259.9814512471655	260.3878004535147	60	127
259.9814512471655	260.68965986394556	75	127
260.68965986394556	261.04956916099775	57	127
260.68965986394556	261.10761904761904	66	127
260.68965986394556	261.10761904761904	60	127
260.68965986394556	261.4094784580499	74	127
261.10761904761904	261.4791383219955	55	127
261.54879818594105	262.1292970521542	58	127
261.54879818594105	261.8854875283447	60	127
261.54879818594105	261.8854875283447	66	127
262.23378684807255	262.54725623582766	66	127
262.23378684807255	262.50081632653064	74	127
262.23378684807255	262.7562358276644	57	127
262.23378684807255	262.54725623582766	60	127
262.54725623582766	262.8026757369615	73	127
262.87233560090704	263.1741950113379	66	127
262.87233560090704	263.1741950113379	60	127
262.87233560090704	263.37156462585034	75	127
263.4760544217687	263.8591836734694	60	127
263.4760544217687	264.1029931972789	74	127
263.4760544217687	263.8591836734694	66	127
264.2074829931973	266.2856689342404	74	127
264.2074829931973	264.9621088435374	67	127
264.2074829931973	264.9621088435374	58	127
265.0665986394558	265.6587301587302	58	127
265.0665986394558	265.35687074829934	55	127
265.0665986394558	265.6587301587302	67	127
265.4613605442177	265.72839002267574	54	127
265.90253968253967	266.5294784580499	57	127
265.90253968253967	266.5294784580499	67	127
265.90253968253967	266.5294784580499	58	127
266.6455782312925	267.6092063492064	55	127
266.6455782312925	267.27251700680273	82	127
266.6455782312925	267.6092063492064	67	127
266.6455782312925	267.6092063492064	62	127
267.4350566893424	267.66725623582767	81	127
267.725283446712	268.1548752834467	67	127
267.725283446712	268.1548752834467	84	127
267.725283446712	268.1548752834467	62	127
268.27097505668934	268.71215419501135	82	127
268.27097505668934	268.71215419501135	67	127
268.27097505668934	268.71215419501135	62	127
268.828253968254	269.44358276643993	67	127
268.828253968254	269.62934240362813	70	127
268.828253968254	269.44358276643993	65	127
269.62934240362813	270.22145124716553	67	127
269.62934240362813	269.9544217687075	49	127
269.62934240362813	270.22145124716553	69	127
269.62934240362813	270.22145124716553	65	127
270.0008616780045	270.2911111111111	47	127
270.372380952381	270.80195011337867	67	127
270.372380952381	270.80195011337867	50	127
270.372380952381	270.80195011337867	65	127
271.0921768707483	271.70750566893423	49	127
271.0921768707483	271.70750566893423	65	127
271.0921768707483	271.70750566893423	67	127
271.0921768707483	271.4521088435374	69	127
271.51013605442176	271.7771882086168	68	127
271.8352380952381	272.5550566893424	70	127
271.8352380952381	272.34607709750566	65	127
271.8352380952381	272.34607709750566	67	127
272.5550566893424	273.11233560090704	65	127
272.5550566893424	273.11233560090704	69	127
272.5550566893424	273.11233560090704	67	127
273.24002267573695	273.77410430839	65	127
273.24002267573695	273.77410430839	62	127
273.24002267573695	274.9002721088435	69	127
273.9018140589569	274.15723356009073	50	127
273.9018140589569	274.47068027210884	62	127
273.9018140589569	274.47068027210884	65	127
274.23850340136056	274.5403628117914	49	127
274.61002267573696	275.2949886621315	65	127
274.61002267573696	275.2949886621315	52	127
274.61002267573696	275.2949886621315	62	127
275.43433106575964	275.6781405895692	77	127
275.43433106575964	275.92195011337867	69	127
275.43433106575964	275.92195011337867	62	127
275.43433106575964	275.92195011337867	50	127
275.759410430839	276.00319727891156	76	127
276.15414965986395	276.8507482993197	79	127
276.15414965986395	276.7346485260771	69	127
276.15414965986395	276.7346485260771	62	127
276.8507482993197	277.41963718820864	62	127
276.8507482993197	277.41963718820864	69	127
276.8507482993197	277.41963718820864	77	127
277.5473469387755	278.3484353741497	69	127
277.5473469387755	277.88403628117914	65	127
277.5473469387755	277.88403628117914	62	127
278.3484353741497	278.91732426303855	67	127
278.3484353741497	278.7547845804989	65	127
278.3484353741497	278.7547845804989	62	127
278.3484353741497	278.673514739229	46	127
278.7547845804989	278.9753514739229	45	127
279.0334240362812	279.4397732426304	65	127
279.0334240362812	279.4397732426304	62	127
279.0334240362812	279.68356009070294	48	127
279.86934240362814	280.14798185941044	62	127
279.86934240362814	280.14798185941044	65	127
279.86934240362814	280.08990929705215	67	127
279.86934240362814	280.3453514739229	46	127
280.14798185941044	280.40337868480725	66	127
280.5078684807256	280.82136054421767	65	127
280.5078684807256	280.82136054421767	62	127
280.5078684807256	281.21607709750566	69	127
281.21607709750566	281.58761904761906	65	127
281.21607709750566	281.86625850340135	67	127
281.21607709750566	281.86625850340135	46	127
281.21607709750566	281.58761904761906	62	127
282.0171882086168	282.69056689342403	79	127
282.0171882086168	282.40031746031747	65	127
282.0171882086168	282.40031746031747	62	127
282.69056689342403	283.1201360544218	62	127
282.69056689342403	283.3291156462585	77	127
282.69056689342403	283.1201360544218	67	127
282.69056689342403	282.96920634920633	47	127
283.1201360544218	283.3987755102041	45	127
283.44521541950115	283.7702721088435	67	127
283.44521541950115	283.7702721088435	65	127
283.44521541950115	283.7702721088435	62	127
283.44521541950115	283.97925170068027	48	127
284.26952380952383	284.54816326530613	67	127
284.26952380952383	284.6062131519274	67	127
284.26952380952383	284.6062131519274	65	127
284.26952380952383	284.6062131519274	62	127
284.26952380952383	284.7803628117914	47	127
284.6062131519274	284.8384126984127	66	127
284.8848526077098	285.2447619047619	67	127
284.8848526077098	285.2447619047619	62	127
284.8848526077098	285.53501133786847	69	127
284.8848526077098	285.2447619047619	65	127
285.53501133786847	286.1851700680272	67	127
285.53501133786847	286.1851700680272	47	127
285.53501133786847	285.8717006802721	62	127
285.53501133786847	285.8717006802721	65	127
285.53501133786847	285.8717006802721	67	127
286.33607709750567	286.6379365079365	60	127
286.33607709750567	286.6379365079365	65	127
286.33607709750567	286.9165986394558	79	127
286.33607709750567	286.6379365079365	67	127
286.9165986394558	287.1952380952381	48	127
286.9165986394558	287.2765079365079	67	127
286.9165986394558	287.2765079365079	65	127
286.9165986394558	287.2765079365079	60	127
286.9165986394558	287.4622675736961	77	127
287.2765079365079	287.5203174603175	47	127
287.57836734693876	287.98471655328797	67	127
287.57836734693876	288.21691609977324	50	127
287.57836734693876	287.98471655328797	60	127
287.57836734693876	287.98471655328797	65	127
288.40267573696144	288.7741950113379	65	127
288.40267573696144	288.7045351473923	67	127
288.40267573696144	288.7741950113379	67	127
288.40267573696144	288.7741950113379	60	127
288.40267573696144	288.9599546485261	48	127
288.7741950113379	289.02961451247165	66	127
289.2734240362812	289.7262131519274	69	127
289.2734240362812	289.56367346938777	60	127
289.2734240362812	289.56367346938777	65	127
289.2734240362812	289.56367346938777	67	127
289.8307029478458	290.1441723356009	65	127
289.8307029478458	290.1441723356009	67	127
289.8307029478458	290.35315192743764	48	127
289.8307029478458	290.35315192743764	67	127
289.8307029478458	290.1441723356009	60	127
290.57374149659864	291.0381179138322	65	127
290.57374149659864	291.1426303854875	79	127
290.57374149659864	291.0381179138322	59	127
290.57374149659864	291.0381179138322	67	127
291.1426303854875	291.57219954648525	49	127
291.1426303854875	291.79278911564626	77	127
291.1426303854875	291.79278911564626	67	127
291.1426303854875	291.79278911564626	65	127
291.1426303854875	291.79278911564626	59	127
291.57219954648525	291.9088888888889	48	127
291.9088888888889	292.5009977324263	65	127
291.9088888888889	292.5009977324263	59	127
291.9088888888889	292.60548752834467	51	127
291.9088888888889	292.5009977324263	67	127
292.60548752834467	293.20920634920634	49	127
292.60548752834467	292.88412698412696	79	127
292.60548752834467	293.20920634920634	71	127
292.60548752834467	293.20920634920634	65	127
292.9537868480726	293.2556462585034	77	127
293.4065759637188	293.87097505668936	71	127
293.4065759637188	293.87097505668936	65	127
293.4065759637188	293.97546485260773	80	127
293.97546485260773	294.56757369614513	71	127
293.97546485260773	294.56757369614513	65	127
293.97546485260773	294.56757369614513	49	127
293.97546485260773	294.56757369614513	77	127
294.78816326530614	295.6124716553288	67	127
294.78816326530614	295.3338095238095	77	127
294.78816326530614	295.6124716553288	72	127
294.78816326530614	296.04201814058956	48	127
295.3338095238095	295.6124716553288	76	127
295.6124716553288	295.7634013605442	74	127
295.6124716553288	296.1813605442177	67	127
295.6124716553288	295.7634013605442	65	127
295.9491609977324	296.14650793650793	64	127
295.9491609977324	296.14650793650793	72	127
296.28585034013605	296.44836734693877	71	127
296.28585034013605	297.77192743764175	36	127
296.4948299319728	296.5760997732426	72	127
296.6109297052154	296.69219954648526	74	127
296.7734693877551	299.72238095238095	72	127
297.27267573696145	297.5745351473923	64	127
297.27267573696145	297.5745351473923	67	127
297.69065759637186	297.9344671201814	66	127
297.69065759637186	297.9344671201814	62	127
297.9925170068027	298.5381859410431	69	127
297.9925170068027	298.5381859410431	65	127
298.5381859410431	299.04902494331066	64	127
298.5381859410431	299.04902494331066	67	127
298.5381859410431	298.86326530612246	52	127
298.86326530612246	299.18834467120183	48	127
299.18834467120183	299.8268707482993	70	127
299.18834467120183	299.8268707482993	64	127
299.18834467120183	299.8268707482993	55	127
299.8268707482993	300.09392290249434	72	127
299.8268707482993	300.6744217687075	53	127
299.8268707482993	300.3957823129252	65	127
299.8268707482993	300.3957823129252	69	127
300.210022675737	300.4886621315193	71	127
300.6744217687075	301.40585034013606	74	127
300.6744217687075	301.40585034013606	59	127
301.40585034013606	302.0095691609977	72	127
301.40585034013606	302.0095691609977	60	127
301.40585034013606	301.6728798185941	69	127
301.40585034013606	301.6728798185941	65	127
301.71931972789116	302.0560090702948	68	127
301.71931972789116	302.0560090702948	64	127
302.1488888888889	302.682925170068	70	127
302.1488888888889	303.17056689342405	72	127
302.1488888888889	302.682925170068	67	127
302.7990476190476	303.0660770975057	53	127
302.7990476190476	303.3331065759637	65	127
302.7990476190476	303.3331065759637	69	127
303.1125170068027	303.3795464852608	48	127
303.44920634920635	304.1458049886621	72	127
303.44920634920635	303.9600453514739	72	127
303.44920634920635	304.1458049886621	57	127
303.44920634920635	304.1458049886621	66	127
304.1458049886621	304.77274376417233	70	127
304.1458049886621	304.5637641723356	84	127
304.1458049886621	304.77274376417233	67	127
304.1458049886621	304.90045351473924	55	127
304.6102040816327	304.8307709750567	83	127
304.90045351473924	305.5041723356009	59	127
304.90045351473924	305.5041723356009	86	127
305.5041723356009	306.2936507936508	60	127
305.5041723356009	306.2936507936508	84	127
305.5041723356009	305.89891156462585	67	127
305.5041723356009	305.89891156462585	70	127
305.9569387755102	306.35170068027213	69	127
305.9569387755102	306.35170068027213	65	127
306.4097505668934	307.03668934240363	69	127
306.4097505668934	307.52430839002267	84	127
306.4097505668934	307.03668934240363	72	127
307.03668934240363	307.38496598639455	55	127
307.03668934240363	307.62879818594104	70	127
307.03668934240363	307.62879818594104	67	127
307.38496598639455	307.84938775510204	48	127
307.84938775510204	308.70852607709753	58	127
307.84938775510204	308.70852607709753	74	127
307.84938775510204	308.70852607709753	64	127
307.84938775510204	312.84167800453514	84	127
308.70852607709753	309.8462811791383	72	127
308.70852607709753	309.8462811791383	57	127
308.70852607709753	310.3687528344671	65	127
309.8462811791383	310.3687528344671	71	127
309.8462811791383	310.3687528344671	56	127
310.3687528344671	310.9028117913832	55	127
310.3687528344671	310.9028117913832	70	127
310.3687528344671	310.9028117913832	64	127
310.9028117913832	311.4949206349206	69	127
310.9028117913832	311.4949206349206	53	127
310.9028117913832	311.4949206349206	65	127
311.4949206349206	312.23795918367347	68	127
311.4949206349206	312.23795918367347	47	127
311.4949206349206	312.23795918367347	65	127
312.23795918367347	313.34090702947844	67	127
312.23795918367347	313.34090702947844	48	127
312.23795918367347	313.34090702947844	64	127
312.96938775510205	313.2596371882086	84	127
313.2596371882086	313.7124263038549	83	127
313.7124263038549	313.9794557823129	86	127
313.9794557823129	314.2697052154195	84	127
314.2697052154195	314.6760544217687	82	127
314.6760544217687	315.0243537414966	81	127
315.0243537414966	315.29138321995464	84	127
315.29138321995464	315.82544217687075	82	127
315.82544217687075	316.04603174603176	81	127
316.04603174603176	316.3362811791383	79	127
316.3362811791383	316.6613605442177	48	127
316.3362811791383	316.6613605442177	64	127
316.3362811791383	316.6613605442177	70	127
316.3362811791383	316.59167800453514	78	127
316.6613605442177	317.05609977324264	79	127
317.23024943310656	317.4392290249433	78	127
317.23024943310656	317.5088662131519	70	127
317.23024943310656	317.5088662131519	64	127
317.23024943310656	317.5088662131519	48	127
317.5088662131519	317.6946485260771	79	127
317.96167800453514	318.5770068027211	64	127
317.96167800453514	318.5770068027211	70	127
317.96167800453514	318.5073469387755	78	127
317.96167800453514	318.5770068027211	48	127
318.5770068027211	318.71632653061226	79	127
319.7031746031746	320.08630385487527	79	127
320.1095238095238	320.28367346938774	82	127
320.3765306122449	320.48102040816326	81	127
320.50426303854874	320.63197278911565	79	127
320.6551927437642	320.7712925170068	77	127
320.8757823129252	321.00349206349205	76	127
321.03832199546486	321.29371882086167	74	127
321.31696145124715	321.6536507936508	70	127
321.31696145124715	321.6536507936508	64	127
321.31696145124715	321.6536507936508	64	127
321.31696145124715	321.5956009070295	74	127
321.6536507936508	321.8278004535147	72	127
321.95551020408163	322.6869387755102	64	127
321.95551020408163	322.6869387755102	64	127
321.95551020408163	322.6288662131519	74	127
321.95551020408163	322.6869387755102	70	127
322.6869387755102	322.8262358276644	72	127
322.95396825396824	323.42997732426306	64	127
322.95396825396824	323.3719274376417	74	127
322.95396825396824	323.42997732426306	70	127
322.95396825396824	323.42997732426306	64	127
323.42997732426306	323.5692970521542	72	127
325.34562358276645	327.2148299319728	65	127
325.34562358276645	326.4601814058957	53	127
326.4601814058957	326.7272108843537	52	127
326.7272108843537	327.15678004535147	53	127
327.15678004535147	327.4353968253968	48	127
327.4353968253968	328.24809523809523	53	127
327.4353968253968	328.5383673469388	65	127
328.24809523809523	328.65444444444444	52	127
328.65444444444444	329.1304761904762	65	127
328.65444444444444	328.944716553288	53	127
328.944716553288	329.24657596371884	48	127
329.24657596371884	329.5948752834467	53	127
329.24657596371884	329.80385487528343	65	127
329.5948752834467	329.9199546485261	52	127
329.9199546485261	330.21020408163264	53	127
329.9199546485261	330.3843537414966	65	127
330.21020408163264	330.50043083900226	48	127
330.50043083900226	330.9532426303855	55	127
330.50043083900226	331.78916099773244	65	127
330.50043083900226	331.78916099773244	70	127
330.50043083900226	332.7992290249433	60	127
330.9532426303855	331.2667120181406	54	127
331.2667120181406	331.60340136054424	55	127
331.60340136054424	332.00975056689344	48	127
332.00975056689344	333.1126984126984	64	127
332.00975056689344	332.55541950113377	70	127
332.00975056689344	332.3348072562358	55	127
332.3348072562358	332.6715192743764	54	127
332.6715192743764	333.24040816326533	70	127
332.6715192743764	333.06625850340134	55	127
333.06625850340134	333.35648526077097	48	127
333.35648526077097	333.82090702947846	70	127
333.35648526077097	333.6583673469388	55	127
333.6583673469388	333.94861678004537	54	127
333.94861678004537	334.4942857142857	70	127
333.94861678004537	334.3085260770975	55	127
334.3085260770975	334.59877551020406	48	127
334.59877551020406	336.6653514739229	72	127
334.59877551020406	335.7946031746032	70	127
334.59877551020406	335.7946031746032	77	127
334.59877551020406	335.17927437641725	53	127
335.17927437641725	335.4463038548753	52	127
335.4463038548753	335.7481632653061	53	127
335.7481632653061	336.0151700680272	48	127
336.0151700680272	337.0717006802721	69	127
336.0151700680272	336.45637188208616	77	127
336.0151700680272	336.2938321995465	53	127
336.2938321995465	336.5608616780045	52	127
336.5608616780045	337.18780045351474	77	127
336.5608616780045	336.932358276644	53	127
336.932358276644	337.36195011337867	48	127
337.36195011337867	338.1165986394558	77	127
337.36195011337867	337.9192290249433	53	127
337.9192290249433	338.2326984126984	52	127
338.2326984126984	338.54616780045353	53	127
338.2326984126984	338.7087074829932	77	127
338.54616780045353	338.81319727891156	48	127
338.81319727891156	340.9378231292517	72	127
338.81319727891156	339.8348752834467	77	127
338.81319727891156	339.8348752834467	82	127
338.81319727891156	339.1498866213152	55	127
339.1498866213152	339.50979591836733	54	127
339.50979591836733	339.7884353741497	55	127
339.7884353741497	340.07868480725625	48	127
340.07868480725625	340.67079365079366	82	127
340.07868480725625	341.2861224489796	76	127
340.07868480725625	340.39215419501136	55	127
340.39215419501136	340.8217006802721	54	127
340.8217006802721	341.40222222222224	82	127
340.8217006802721	341.11197278911567	55	127
341.11197278911567	341.5067120181406	48	127
341.5067120181406	341.9711111111111	82	127
341.5067120181406	341.7853514739229	55	127
341.7853514739229	342.08721088435374	54	127
342.08721088435374	342.4819501133787	55	127
342.08721088435374	343.1088888888889	82	127
342.4819501133787	343.24820861678006	48	127
343.24820861678006	344.15378684807257	82	127
343.24820861678006	344.66462585034014	75	127
343.24820861678006	344.66462585034014	72	127
343.24820861678006	343.5500680272109	53	127
343.5500680272109	343.8287074829932	52	127
343.8287074829932	344.0957142857143	53	127
344.0957142857143	344.38598639455785	48	127
344.38598639455785	344.9316553287982	81	127
344.38598639455785	344.7110430839002	53	127
344.7110430839002	345.0477551020408	52	127
345.0477551020408	345.3612244897959	53	127
345.0477551020408	345.53537414965984	87	127
345.0477551020408	345.53537414965984	81	127
345.0477551020408	345.53537414965984	72	127
345.3612244897959	345.6863038548753	48	127
345.6863038548753	346.39451247165533	81	127
345.6863038548753	346.39451247165533	87	127
345.6863038548753	346.01138321995467	53	127
345.6863038548753	346.39451247165533	72	127
346.01138321995467	346.5454195011338	52	127
346.5454195011338	346.8473015873016	53	127
346.5454195011338	347.0098412698413	87	127
346.5454195011338	347.0098412698413	81	127
346.5454195011338	347.0098412698413	72	127
346.8473015873016	347.1839909297052	48	127
347.1839909297052	348.29854875283445	45	127
347.1839909297052	348.29854875283445	65	127
347.1839909297052	348.29854875283445	75	127
347.1839909297052	348.29854875283445	84	127
347.1839909297052	348.29854875283445	87	127
347.1839909297052	348.29854875283445	77	127
348.61201814058956	350.15614512471655	77	127
348.61201814058956	350.15614512471655	46	127
348.61201814058956	350.15614512471655	86	127
348.61201814058956	350.15614512471655	74	127
348.61201814058956	350.15614512471655	82	127
348.61201814058956	350.15614512471655	65	127
351.51451247165534	353.0238095238095	62	127
351.51451247165534	353.0238095238095	67	127
351.51451247165534	353.0238095238095	65	127
351.51451247165534	353.0238095238095	58	127
353.3837188208617	354.0338775510204	67	127
353.3837188208617	354.0338775510204	62	127
353.3837188208617	354.0338775510204	65	127
353.3837188208617	354.0338775510204	58	127
354.1615873015873	354.68403628117915	62	127
354.1615873015873	354.68403628117915	65	127
354.1615873015873	354.68403628117915	67	127
354.1615873015873	354.68403628117915	58	127
354.81174603174605	355.252925170068	58	127
354.81174603174605	355.252925170068	67	127
354.81174603174605	355.252925170068	65	127
354.81174603174605	355.252925170068	62	127
355.3806349206349	355.8334240362812	67	127
355.3806349206349	355.8334240362812	62	127
355.3806349206349	355.8334240362812	65	127
355.3806349206349	355.8334240362812	58	127
355.94950113378684	356.94798185941045	61	127
355.94950113378684	356.94798185941045	58	127
355.94950113378684	356.21655328798187	67	127
355.94950113378684	356.94798185941045	65	127
356.21655328798187	356.3907029478458	68	127
356.3907029478458	356.5532426303855	70	127
356.5532426303855	356.8899319727891	68	127
356.8899319727891	357.31950113378684	67	127
357.31950113378684	357.79548752834467	65	127
357.31950113378684	357.79548752834467	67	127
357.31950113378684	357.79548752834467	61	127
357.31950113378684	357.79548752834467	58	127
358.0509297052154	358.58498866213154	58	127
358.0509297052154	358.58498866213154	65	127
358.0509297052154	358.58498866213154	61	127
358.0509297052154	358.58498866213154	67	127
358.7010884353742	359.23514739229023	61	127
358.7010884353742	359.23514739229023	67	127
358.7010884353742	359.23514739229023	58	127
358.7010884353742	359.23514739229023	65	127
359.3396371882086	359.8504761904762	65	127
359.3396371882086	359.8504761904762	67	127
359.3396371882086	359.8504761904762	58	127
359.3396371882086	359.8504761904762	61	127
360.0014058956916	361.1856235827664	62	127
360.0014058956916	361.52231292517007	55	127
360.0014058956916	363.11285714285714	53	127
360.0014058956916	361.52231292517007	47	127
361.1856235827664	361.52231292517007	67	127
361.52231292517007	363.11285714285714	48	127
361.52231292517007	363.11285714285714	65	127
361.52231292517007	363.11285714285714	57	127
363.11285714285714	365.36519274376417	49	127
363.11285714285714	365.36519274376417	52	127
363.11285714285714	363.902358276644	69	127
363.11285714285714	365.36519274376417	58	127
363.902358276644	365.05172335600906	67	127
365.05172335600906	365.36519274376417	65	127
365.36519274376417	366.32884353741497	57	127
365.36519274376417	366.32884353741497	65	127
365.36519274376417	366.32884353741497	53	127
365.36519274376417	366.32884353741497	50	127
370.2994557823129	370.85673469387757	41	127
370.2994557823129	371.7855328798186	53	127
370.85673469387757	371.36757369614514	40	127
371.36757369614514	371.73909297052154	41	127
371.73909297052154	372.01773242630384	36	127
372.01773242630384	372.30795918367346	41	127
372.01773242630384	372.4705215419501	53	127
372.30795918367346	372.58662131519276	40	127
372.58662131519276	372.8884807256236	41	127
372.58662131519276	373.0626303854875	53	127
372.8884807256236	373.1671201814059	36	127
373.1671201814059	373.72439909297054	41	127
373.1671201814059	373.8985487528345	53	127
373.72439909297054	374.09591836734694	40	127
374.09591836734694	374.5719274376417	53	127
374.09591836734694	374.3861678004535	41	127
374.3861678004535	374.6764172335601	36	127
374.6764172335601	375.6980952380952	53	127
374.6764172335601	375.6980952380952	58	127
374.6764172335601	375.0131065759637	43	127
375.0131065759637	375.3381859410431	42	127
375.3381859410431	375.6516553287982	43	127
375.6516553287982	375.94190476190477	36	127
375.94190476190477	376.26698412698414	43	127
375.94190476190477	376.9751927437642	52	127
375.94190476190477	376.45274376417234	58	127
376.26698412698414	376.5920634920635	42	127
376.5920634920635	377.1261224489796	58	127
376.5920634920635	376.9287528344671	43	127
376.9287528344671	377.23061224489794	36	127
377.23061224489794	377.6834013605442	43	127
377.23061224489794	377.8459410430839	58	127
377.6834013605442	377.98526077097506	42	127
377.98526077097506	378.35678004535146	43	127
377.98526077097506	378.58897959183673	58	127
378.35678004535146	378.6934693877551	36	127
378.6934693877551	378.98371882086167	41	127
378.6934693877551	379.7848072562358	58	127
378.6934693877551	379.7848072562358	65	127
378.6934693877551	380.74843537414966	60	127
378.98371882086167	379.40167800453514	40	127
379.40167800453514	379.7383673469388	41	127
379.7383673469388	380.0518367346939	36	127
380.0518367346939	380.34208616780046	41	127
380.0518367346939	380.96902494331067	56	127
380.0518367346939	380.5162358276644	65	127
380.34208616780046	380.6439455782313	40	127
380.6439455782313	380.9109750566893	41	127
380.6439455782313	381.0851247165533	65	127
380.9109750566893	381.1896145124717	36	127
381.1896145124717	381.688843537415	65	127
381.1896145124717	381.514693877551	41	127
381.514693877551	381.8397732426304	40	127
381.8397732426304	382.5015419501134	41	127
381.8397732426304	382.8034013605442	65	127
382.5015419501134	382.9078911564626	36	127
382.9078911564626	384.0340589569161	65	127
382.9078911564626	385.05573696145126	60	127
382.9078911564626	384.0340589569161	70	127
382.9078911564626	383.30263038548753	43	127
383.30263038548753	383.61609977324264	42	127
383.61609977324264	383.97600907029477	43	127
383.97600907029477	384.3243083900227	36	127
384.3243083900227	385.39242630385485	64	127
384.3243083900227	384.823537414966	70	127
384.3243083900227	384.6609977324263	43	127
384.6609977324263	384.9396371882086	42	127
384.9396371882086	385.24149659863946	43	127
384.9396371882086	385.5085260770975	70	127
385.24149659863946	385.6362358276644	36	127
385.6362358276644	386.1702947845805	70	127
385.6362358276644	385.9961451247166	43	127
385.9961451247166	386.3096145124717	42	127
386.3096145124717	387.0410430839002	70	127
386.3096145124717	386.82045351473926	43	127
386.82045351473926	387.2616326530612	36	127
387.2616326530612	387.6215419501134	41	127
387.2616326530612	388.2600907029478	72	127
387.2616326530612	389.1656689342404	60	127
387.2616326530612	388.2600907029478	70	127
387.6215419501134	387.9350113378685	40	127
387.9350113378685	388.20204081632653	41	127
388.20204081632653	388.4806802721088	36	127
388.4806802721088	389.38625850340134	68	127
388.4806802721088	388.7593197278912	41	127
388.4806802721088	388.9450793650794	72	127
388.7593197278912	389.061179138322	40	127
389.061179138322	389.502358276644	72	127
389.061179138322	389.32820861678005	41	127
389.32820861678005	389.7113378684807	36	127
389.7113378684807	390.0944671201814	44	127
389.7113378684807	391.0697052154195	65	127
389.7113378684807	390.32666666666665	72	127
390.0944671201814	390.50081632653064	43	127
390.50081632653064	391.2206349206349	72	127
390.50081632653064	390.9768253968254	44	127
390.9768253968254	391.3831746031746	41	127
391.3831746031746	392.49773242630386	73	127
391.3831746031746	391.7663038548753	46	127
391.3831746031746	392.49773242630386	72	127
391.3831746031746	393.49619047619046	65	127
391.7663038548753	392.05655328798184	45	127
392.05655328798184	392.4280725623583	46	127
392.4280725623583	392.7531519274376	41	127
392.7531519274376	393.0550113378685	49	127
392.7531519274376	393.2407709750567	73	127
392.7531519274376	396.36385487528344	70	127
393.0550113378685	393.35687074829934	48	127
393.35687074829934	393.8677097505669	73	127
393.35687074829934	393.6587301587302	49	127
393.6587301587302	393.9838095238095	46	127
393.9838095238095	394.26244897959185	43	127
393.9838095238095	395.0287074829932	63	127
393.9838095238095	394.4249886621315	73	127
394.26244897959185	394.5526984126984	41	127
394.5526984126984	395.1564172335601	73	127
394.5526984126984	394.842947845805	43	127
394.842947845805	395.27251700680273	39	127
395.27251700680273	396.36385487528344	73	127
395.27251700680273	397.58290249433105	63	127
395.27251700680273	395.53954648526076	44	127
395.53954648526076	395.85301587301586	43	127
395.85301587301586	396.30580498866215	44	127
396.30580498866215	396.7005442176871	39	127
396.7005442176871	397.2578231292517	72	127
396.7005442176871	398.84839002267574	68	127
396.7005442176871	397.04884353741494	48	127
397.04884353741494	397.4203628117914	46	127
397.4203628117914	397.9195918367347	72	127
397.4203628117914	397.75705215419504	48	127
397.75705215419504	398.0705215419501	44	127
398.0705215419501	399.1154195011338	62	127
398.0705215419501	398.33755102040817	41	127
398.0705215419501	398.52331065759637	72	127
398.33755102040817	398.6974603174603	40	127
398.6974603174603	399.21990929705214	72	127
398.6974603174603	399.0573696145125	41	127
399.0573696145125	399.3243990929705	38	127
399.3243990929705	399.84684807256235	72	127
399.3243990929705	399.6726984126984	43	127
399.3243990929705	401.01945578231295	62	127
399.3243990929705	399.84684807256235	69	127
399.6726984126984	400.1719274376417	41	127
400.1719274376417	400.67115646258503	71	127
400.1719274376417	401.1355555555556	67	127
400.1719274376417	400.4621768707483	43	127
400.4621768707483	400.79886621315194	38	127
400.79886621315194	401.07750566893424	46	127
400.79886621315194	401.26326530612243	70	127
401.07750566893424	401.3677551020408	44	127
401.3677551020408	401.92503401360545	61	127
401.3677551020408	401.92503401360545	67	127
401.3677551020408	401.92503401360545	70	127
401.3677551020408	401.70444444444445	46	127
401.70444444444445	402.07596371882084	43	127
402.07596371882084	403.21374149659863	60	127
402.07596371882084	402.56358276643994	70	127
402.07596371882084	402.56358276643994	67	127
402.07596371882084	402.38943310657595	40	127
402.38943310657595	402.7609523809524	38	127
402.7609523809524	403.32984126984127	67	127
402.7609523809524	403.14408163265307	40	127
402.7609523809524	403.32984126984127	70	127
403.14408163265307	403.56204081632654	36	127
403.56204081632654	404.21219954648524	70	127
403.56204081632654	404.21219954648524	67	127
403.56204081632654	404.0380498866213	41	127
403.56204081632654	405.129387755102	60	127
404.0380498866213	404.3166893424036	40	127
404.3166893424036	404.78108843537416	69	127
404.3166893424036	404.59532879818596	41	127
404.3166893424036	405.24548752834465	65	127
404.59532879818596	404.8971882086168	36	127
404.8971882086168	405.18743764172336	44	127
404.8971882086168	405.3964172335601	68	127
405.18743764172336	405.51251700680274	43	127
405.51251700680274	405.87242630385487	44	127
405.51251700680274	406.06979591836733	68	127
405.51251700680274	406.06979591836733	65	127
405.51251700680274	406.06979591836733	60	127
405.87242630385487	406.23233560090705	41	127
406.23233560090705	406.73156462585035	68	127
406.23233560090705	406.73156462585035	65	127
406.23233560090705	406.55741496598637	49	127
406.23233560090705	406.73156462585035	56	127
406.55741496598637	406.8360544217687	48	127
406.8360544217687	407.4978231292517	49	127
406.8360544217687	407.77646258503404	68	127
406.8360544217687	407.77646258503404	65	127
406.8360544217687	407.77646258503404	53	127
407.4978231292517	407.8809523809524	48	127
407.8809523809524	409.1	61	127
407.8809523809524	409.1	65	127
407.8809523809524	409.1	46	127
407.8809523809524	409.1	67	127
409.45990929705215	410.0636281179138	61	127
409.45990929705215	410.0636281179138	67	127
409.45990929705215	410.0636281179138	65	127
409.45990929705215	410.0636281179138	46	127
410.17972789115646	410.72539682539684	46	127
410.17972789115646	410.72539682539684	65	127
410.17972789115646	410.72539682539684	61	127
410.17972789115646	410.72539682539684	67	127
410.91115646258504	411.4219954648526	65	127
410.91115646258504	411.4219954648526	67	127
410.91115646258504	411.4219954648526	46	127
410.91115646258504	411.4219954648526	61	127
411.572925170068	412.16503401360546	46	127
411.572925170068	412.16503401360546	67	127
411.572925170068	412.16503401360546	65	127
411.572925170068	412.16503401360546	61	127
412.28113378684805	413.39569160997735	46	127
412.28113378684805	413.39569160997735	61	127
412.28113378684805	413.39569160997735	64	127
412.28113378684805	413.39569160997735	67	127
412.28113378684805	412.6178231292517	79	127
412.6178231292517	412.896462585034	80	127
412.896462585034	413.04739229024943	82	127
413.04739229024943	413.34925170068027	80	127
413.34925170068027	413.62789115646257	79	127
413.62789115646257	414.26643990929705	61	127
413.62789115646257	414.26643990929705	64	127
413.62789115646257	414.26643990929705	67	127
413.62789115646257	414.26643990929705	79	127
413.62789115646257	414.26643990929705	46	127
414.39414965986396	414.92820861678007	46	127
414.39414965986396	414.92820861678007	64	127
414.39414965986396	414.92820861678007	61	127
414.39414965986396	414.92820861678007	67	127
414.39414965986396	414.92820861678007	79	127
415.0559183673469	416.40267573696144	47	127
415.0559183673469	416.40267573696144	62	127
415.0559183673469	416.40267573696144	68	127
415.0559183673469	415.45065759637185	77	127
415.0559183673469	416.40267573696144	65	127
415.45065759637185	415.6015873015873	79	127
415.6015873015873	415.76412698412696	80	127
415.76412698412696	416.34462585034015	79	127
416.34462585034015	416.68131519274374	77	127
416.68131519274374	417.2385941043084	77	127
416.68131519274374	417.2385941043084	68	127
416.68131519274374	417.2385941043084	47	127
416.68131519274374	417.2385941043084	65	127
416.68131519274374	417.2385941043084	62	127
417.37791383219957	417.87714285714287	65	127
417.37791383219957	417.87714285714287	77	127
417.37791383219957	417.87714285714287	68	127
417.37791383219957	417.87714285714287	62	127
417.37791383219957	417.87714285714287	47	127
417.9932426303855	419.7695691609977	60	127
417.9932426303855	419.7695691609977	69	127
417.9932426303855	419.7695691609977	77	127
417.9932426303855	419.7695691609977	65	127
417.9932426303855	419.7695691609977	48	127
420.02498866213153	421.0466666666667	58	127
420.02498866213153	420.30362811791383	81	127
420.02498866213153	421.0466666666667	49	127
420.02498866213153	421.0466666666667	64	127
420.30362811791383	420.98861678004533	79	127
420.98861678004533	421.4065759637188	77	127
421.4065759637188	422.77655328798187	50	127
421.4065759637188	422.033514739229	65	127
421.4065759637188	422.033514739229	57	127
421.4065759637188	423.00875283446715	77	127
422.1728344671202	423.00875283446715	53	127
422.1728344671202	423.00875283446715	65	127
423.00875283446715	424.0420408163265	66	127
423.00875283446715	424.0420408163265	54	127
423.00875283446715	424.4483900226757	48	127
423.00875283446715	424.6689795918367	76	127
424.0420408163265	424.6689795918367	55	127
424.0420408163265	424.6689795918367	67	127
424.6689795918367	425.2610884353742	68	127
424.6689795918367	425.92285714285714	75	127
424.6689795918367	425.69065759637186	41	127
424.6689795918367	425.2610884353742	56	127
425.2610884353742	425.92285714285714	69	127
425.2610884353742	425.92285714285714	57	127
425.92285714285714	426.86326530612246	73	127
425.92285714285714	427.36249433106576	46	127
425.92285714285714	426.67750566893426	58	127
425.92285714285714	426.67750566893426	70	127
426.86326530612246	427.54825396825396	58	127
426.86326530612246	427.54825396825396	65	127
426.86326530612246	427.82689342403626	74	127
427.68757369614514	428.2912925170068	65	127
427.68757369614514	428.2912925170068	58	127
427.82689342403626	428.05909297052153	76	127
428.05909297052153	428.26807256235827	74	127
428.26807256235827	428.4190022675737	72	127
428.4190022675737	428.6163718820862	74	127
428.4190022675737	429.0111111111111	65	127
428.4190022675737	429.0111111111111	58	127
428.6163718820862	428.77891156462584	76	127
428.77891156462584	428.9762811791383	74	127
428.9762811791383	429.15043083900224	76	127
429.15043083900224	430.82226757369614	46	127
429.15043083900224	429.95151927437644	79	127
429.15043083900224	430.12566893424037	65	127
429.15043083900224	430.12566893424037	58	127
429.95151927437644	430.4855782312925	77	127
430.4855782312925	430.9267573696145	58	127
430.4855782312925	430.9267573696145	65	127
430.4855782312925	430.76421768707485	76	127
430.76421768707485	431.07768707482995	74	127
431.07768707482995	434.65356009070297	60	127
431.07768707482995	432.7030839002268	72	127
431.07768707482995	432.20385487528347	45	127
431.07768707482995	431.6581859410431	65	127
431.85555555555555	433.3416326530612	72	127
432.4360544217687	433.86408163265304	43	127
433.3416326530612	433.9685714285714	74	127
433.3416326530612	434.08467120181405	71	127
434.08467120181405	435.2688888888889	41	127
434.08467120181405	434.80448979591836	70	127
434.08467120181405	434.65356009070297	76	127
434.80448979591836	435.57074829931975	69	127
434.80448979591836	435.4198185941043	77	127
435.57074829931975	435.8726077097506	48	127
435.57074829931975	435.8726077097506	72	127
435.8726077097506	436.1860770975057	71	127
436.1860770975057	436.62725623582764	70	127
436.1860770975057	436.62725623582764	65	127
436.1860770975057	436.62725623582764	57	127
436.1860770975057	436.62725623582764	48	127
436.62725623582764	436.94072562358275	69	127
436.94072562358275	437.0219954648526	67	127
436.94072562358275	437.28902494331066	48	127
436.94072562358275	437.28902494331066	58	127
436.94072562358275	437.28902494331066	65	127
437.03360544217685	437.16131519274376	69	127
437.172925170068	437.2658049886621	67	127
437.28902494331066	437.3586848072562	69	127
437.38190476190476	437.4515646258503	67	127
437.53283446712015	437.60249433106577	69	127
437.6489342403628	437.7766439909297	67	127
437.6489342403628	437.98562358276644	65	127
437.6489342403628	437.98562358276644	58	127
437.6489342403628	437.98562358276644	48	127
437.78825396825397	437.8695238095238	69	127
437.88113378684807	437.9507936507936	67	127
437.98562358276644	438.06689342403627	69	127
438.11333333333334	438.229433106576	67	127
438.25265306122446	438.3223129251701	69	127
438.3455328798186	438.6357823129252	67	127
438.3455328798186	438.9956916099773	58	127
438.3455328798186	438.9956916099773	48	127
438.3455328798186	438.9956916099773	64	127
438.65900226757367	438.7867120181406	69	127
438.79832199546485	438.89120181405895	67	127
438.9956916099773	439.0885714285714	69	127
439.1350113378685	439.2162811791383	67	127
439.23950113378686	439.3091609977324	69	127
439.33238095238096	439.70390022675736	48	127
439.33238095238096	439.70390022675736	58	127
439.33238095238096	439.70390022675736	64	127
439.33238095238096	439.47170068027214	67	127
439.48331065759635	439.5761904761905	69	127
439.5878004535147	439.6690702947846	67	127
439.70390022675736	440.1334693877551	65	127
440.20312925170066	440.3192290249433	67	127
440.34244897959184	441.7356462585034	65	127
440.34244897959184	441.2015873015873	41	127
440.34244897959184	440.93455782312924	57	127
440.34244897959184	441.2015873015873	65	127
440.9926077097506	441.2712471655329	57	127
441.34090702947844	441.6427664399093	60	127
441.34090702947844	441.5731065759637	57	127
441.6427664399093	441.9794557823129	57	127
441.6427664399093	442.02589569161	59	127
442.02589569161	442.37419501133786	53	127
442.02589569161	442.6180045351474	45	127
442.02589569161	442.73410430839004	62	127
442.4438548752834	442.68766439909297	53	127
442.73410430839004	443.3378231292517	60	127
442.73410430839004	442.9895238095238	53	127
443.16367346938773	443.395873015873	53	127
443.46553287981857	443.79061224489794	57	127
443.46553287981857	444.0692517006803	41	127
443.88349206349204	444.1273015873016	57	127
444.2085714285714	444.7542403628118	60	127
444.2085714285714	444.5336507936508	57	127
444.5917006802721	444.8122902494331	57	127
444.85873015873017	445.207029478458	52	127
444.85873015873017	447.69156462585033	70	127
444.85873015873017	445.5669387755102	43	127
445.27668934240364	445.6249886621315	52	127
445.68303854875285	445.99650793650795	60	127
445.68303854875285	445.9384580498866	52	127
445.99650793650795	446.2287074829932	52	127
445.99650793650795	446.33319727891154	59	127
446.33319727891154	447.00657596371883	40	127
446.33319727891154	446.64666666666665	55	127
446.33319727891154	447.13428571428574	62	127
446.7627664399093	447.0762358276644	55	127
447.13428571428574	447.58707482993196	60	127
447.13428571428574	447.36648526077096	55	127
447.4245351473923	447.6451247165533	55	127
447.69156462585033	448.06308390022673	52	127
447.69156462585033	448.736462585034	67	127
447.69156462585033	448.3068934240363	46	127
448.1211337868481	448.3649433106576	52	127
448.4346031746032	448.8990022675737	60	127
448.4346031746032	448.67841269841267	52	127
448.736462585034	448.957052154195	55	127
448.736462585034	449.00349206349205	64	127
449.00349206349205	449.7465306122449	45	127
449.00349206349205	449.2473015873016	53	127
449.00349206349205	451.4415873015873	72	127
449.3053514739229	449.81619047619046	53	127
449.9787301587302	450.3386394557823	65	127
449.9787301587302	450.26897959183674	53	127
450.3386394557823	450.61727891156465	64	127
450.3386394557823	450.5708390022676	53	127
450.61727891156465	450.9191383219955	53	127
450.61727891156465	451.1977777777778	45	127
450.61727891156465	451.3138775510204	67	127
450.9771882086168	451.26743764172335	53	127
451.3138775510204	451.604126984127	53	127
451.3138775510204	451.8479365079365	65	127
451.6621768707483	451.89437641723356	53	127
451.9756462585034	452.26589569160996	53	127
451.9756462585034	453.3804535147392	74	127
451.9756462585034	452.6954648526077	46	127
452.3355555555556	452.7419047619048	53	127
452.79995464852607	453.0205442176871	53	127
452.79995464852607	453.2759637188209	65	127
453.07859410430837	453.3224036281179	53	127
453.3804535147392	456.1436281179138	65	127
453.3804535147392	453.7635827664399	57	127
453.3804535147392	454.0538321995465	48	127
453.8680725623583	454.1002721088435	57	127
454.16993197278913	454.47179138321997	60	127
454.16993197278913	454.4137414965986	57	127
454.47179138321997	454.692380952381	57	127
454.47179138321997	454.75043083900226	59	127
454.75043083900226	455.5631292517007	62	127
454.75043083900226	455.43541950113377	48	127
454.75043083900226	455.15678004535147	57	127
455.2148299319728	455.4934693877551	57	127
455.5631292517007	456.0275283446712	60	127
455.5631292517007	455.79532879818595	57	127
455.8649886621315	456.07396825396825	57	127
456.1436281179138	456.4454875283447	52	127
456.1436281179138	456.770566893424	36	127
456.1436281179138	457.60648526077097	67	127
456.503537414966	456.8170068027211	52	127
456.8750566893424	457.39750566893423	60	127
456.8750566893424	457.15369614512474	52	127
457.21174603174603	457.49038548752833	52	127
457.60648526077097	458.0012244897959	55	127
457.60648526077097	458.9880725623583	70	127
457.60648526077097	458.268253968254	41	127
458.08249433106573	458.314693877551	55	127
458.37274376417236	458.61655328798184	55	127
458.37274376417236	458.6746031746032	60	127
458.6746031746032	458.93002267573695	55	127
458.6746031746032	458.9880725623583	59	127
458.9880725623583	459.83560090702946	62	127
458.9880725623583	459.38281179138323	53	127
458.9880725623583	459.69628117913834	53	127
458.9880725623583	460.1839002267574	69	127
459.4408616780045	459.75433106575963	53	127
459.83560090702946	460.079410430839	53	127
459.83560090702946	460.3	60	127
460.1258503401361	460.4044897959184	53	127
460.46253968253967	460.97337868480724	57	127
460.46253968253967	460.69473922902495	65	127
460.75278911564624	461.0198185941043	65	127
461.14752834467123	461.7164172335601	60	127
461.14752834467123	461.4958276643991	65	127
461.54226757369617	461.7628571428571	65	127
461.91378684807256	464.64213151927436	82	127
461.91378684807256	462.61038548752833	55	127
461.91378684807256	462.36657596371884	64	127
462.41301587301587	462.6568253968254	64	127
462.7148752834467	462.9354648526077	64	127
462.7148752834467	462.9819047619048	72	127
462.9819047619048	463.2605442176871	71	127
462.9819047619048	463.20249433106574	64	127
463.2605442176871	464.09646258503403	74	127
463.2605442176871	463.9803628117914	52	127
463.2605442176871	463.77138321995466	67	127
463.8178231292517	464.0384126984127	67	127
464.09646258503403	464.31705215419504	67	127
464.09646258503403	464.5260317460317	72	127
464.36349206349206	464.58408163265307	67	127
464.64213151927436	465.5244897959184	79	127
464.64213151927436	465.09492063492064	58	127
464.64213151927436	464.86272108843536	64	127
464.90916099773244	465.1645804988662	64	127
465.22263038548755	465.7566893424036	72	127
465.22263038548755	465.4780498866213	64	127
465.5244897959184	465.9772789115646	76	127
465.5244897959184	465.8379591836735	67	127
465.9772789115646	466.68548752834465	57	127
465.9772789115646	467.9625850340136	84	127
465.9772789115646	466.3371882086168	65	127
466.4184580498866	466.77836734693875	65	127
466.8364172335601	467.0686167800454	65	127
466.8364172335601	467.1150566893424	77	127
467.1150566893424	467.35886621315194	76	127
467.1150566893424	467.32403628117913	65	127
467.35886621315194	467.9625850340136	79	127
467.35886621315194	467.57945578231295	64	127
467.35886621315194	468.31088435374147	57	127
467.63750566893424	467.8697052154195	64	127
467.9625850340136	468.1831746031746	64	127
467.9625850340136	468.4966439909297	85	127
467.9625850340136	468.4269841269841	77	127
468.2528344671202	468.4734240362812	64	127
468.4966439909297	469.1235827664399	58	127
468.4966439909297	468.72884353741495	62	127
468.4966439909297	469.1235827664399	86	127
468.7868934240363	469.0655328798186	62	127
469.1235827664399	469.3673922902494	68	127
469.1235827664399	469.5995918367347	59	127
469.1235827664399	469.5995918367347	77	127
469.1235827664399	469.5995918367347	89	127
469.4254421768708	469.657641723356	68	127
469.71569160997734	470.8882993197279	60	127
469.71569160997734	470.65609977324266	69	127
469.71569160997734	472.53691609977324	77	127
470.7257596371882	470.9695691609977	69	127
471.02761904761905	471.25981859410433	69	127
471.02761904761905	471.35269841269843	72	127
471.35269841269843	471.57328798185944	69	127
471.35269841269843	471.6313378684807	71	127
471.6313378684807	472.43242630385487	74	127
471.6313378684807	472.15378684807257	48	127
471.6313378684807	471.89836734693876	69	127
471.9564172335601	472.3743764172336	69	127
472.43242630385487	472.71106575963717	69	127
472.43242630385487	472.9316553287982	72	127
472.7691156462585	472.9897052154195	69	127
473.0477551020408	473.5469841269841	48	127
473.0477551020408	473.12902494331064	81	127
473.0477551020408	473.2799546485261	64	127
473.1406349206349	473.233514739229	79	127
473.2451247165533	473.3263945578231	81	127
473.3612244897959	473.60503401360546	64	127
473.3612244897959	473.44249433106575	79	127
473.47732426303855	473.5469841269841	81	127
473.57020408163265	473.6514739229025	79	127
473.6863038548753	473.80240362811793	81	127
473.6863038548753	474.16231292517006	70	127
473.6863038548753	473.94172335600905	64	127
473.8140136054422	473.895283446712	79	127
473.9068934240363	473.9881632653061	81	127
473.9997732426304	474.06943310657596	79	127
473.9997732426304	474.2203628117914	64	127
474.0926530612245	474.16231292517006	77	127
474.1855328798186	474.25519274376416	79	127
474.2784126984127	474.48739229024943	69	127
474.2784126984127	474.48739229024943	65	127
474.2784126984127	475.17238095238093	77	127
474.5454421768707	474.76603174603173	60	127
474.5454421768707	474.76603174603173	69	127
474.8240816326531	475.0446712018141	69	127
474.8240816326531	475.0446712018141	53	127
474.8240816326531	475.0446712018141	60	127
475.1027210884354	475.4161904761905	69	127
475.1027210884354	475.4161904761905	52	127
475.1027210884354	475.4161904761905	60	127
475.8573696145125	476.7165079365079	55	127
475.8573696145125	476.2288888888889	69	127
475.8573696145125	476.2288888888889	60	127
476.3101587301587	476.64684807256236	69	127
476.3101587301587	476.64684807256236	60	127
476.7165079365079	476.96031746031747	69	127
476.7165079365079	476.96031746031747	60	127
476.7165079365079	477.20412698412696	53	127
477.02997732426303	477.2737868480726	69	127
477.02997732426303	477.2737868480726	60	127
477.3202267573696	477.5408163265306	60	127
477.3202267573696	477.7265759637188	75	127
477.3202267573696	477.5408163265306	69	127
477.56403628117914	477.78462585034015	69	127
477.56403628117914	477.78462585034015	60	127
477.83106575963717	478.0516553287982	60	127
477.83106575963717	478.2722448979592	53	127
477.83106575963717	478.0516553287982	69	127
478.1097052154195	478.34190476190474	69	127
478.1097052154195	478.34190476190474	60	127
478.3883446712018	478.8063038548753	70	127
478.3883446712018	479.1662131519274	74	127
478.3883446712018	478.8063038548753	58	127
478.9456235827664	479.2707029478458	65	127
478.9456235827664	479.2707029478458	58	127
479.32875283446714	479.6190022675737	58	127
479.32875283446714	479.677052154195	53	127
479.32875283446714	479.6190022675737	65	127
479.677052154195	479.9440816326531	52	127
479.677052154195	479.897641723356	58	127
479.677052154195	479.897641723356	65	127
479.9440816326531	480.1762811791383	58	127
479.9440816326531	480.1762811791383	65	127
479.9440816326531	480.47814058956914	73	127
479.9440816326531	480.5942403628118	55	127
480.23433106575965	480.5361904761905	64	127
480.23433106575965	480.5361904761905	58	127
480.5942403628118	480.9077097505669	58	127
480.5942403628118	481.1515192743764	53	127
480.5942403628118	480.9077097505669	64	127
480.9657596371882	481.2095691609977	58	127
480.9657596371882	481.2095691609977	64	127
481.2560090702948	481.5230385487528	65	127
481.2560090702948	483.1600453514739	72	127
481.2560090702948	481.5230385487528	57	127
481.6159183673469	481.929387755102	63	127
481.6159183673469	481.929387755102	57	127
481.9758276643991	482.23124716553286	63	127
481.9758276643991	482.46344671201814	53	127
481.9758276643991	482.23124716553286	57	127
482.2892970521542	482.5331065759637	57	127
482.2892970521542	482.5331065759637	63	127
482.5795464852608	482.8001360544218	65	127
482.5795464852608	482.8001360544218	62	127
482.8581859410431	483.1136054421769	65	127
482.8581859410431	483.1136054421769	62	127
483.1600453514739	483.427074829932	62	127
483.1600453514739	483.427074829932	65	127
483.1600453514739	483.4851247165533	41	127
483.1600453514739	483.8914739229025	71	127
483.4851247165533	483.7985941043084	62	127
483.4851247165533	483.7985941043084	65	127
483.4851247165533	483.8914739229025	40	127
483.8914739229025	485.4007709750567	70	127
483.8914739229025	484.18172335600906	64	127
483.8914739229025	484.18172335600906	61	127
483.8914739229025	484.78544217687073	43	127
484.32104308390024	484.7390022675737	64	127
484.32104308390024	484.7390022675737	61	127
484.78544217687073	485.017641723356	61	127
484.78544217687073	485.017641723356	64	127
484.78544217687073	485.28467120181404	41	127
485.0756916099773	485.35433106575965	61	127
485.0756916099773	485.35433106575965	64	127
485.4007709750567	486.5501587301587	69	127
485.4007709750567	485.6213605442177	65	127
485.4007709750567	485.6213605442177	60	127
485.69102040816324	485.91160997732425	60	127
485.69102040816324	485.91160997732425	65	127
485.9580498866213	486.25990929705216	60	127
485.9580498866213	486.25990929705216	65	127
485.9580498866213	486.5501587301587	41	127
486.31795918367345	486.63142857142856	65	127
486.31795918367345	486.63142857142856	60	127
486.67786848072564	486.89845804988664	61	127
486.67786848072564	488.6980045351474	67	127
486.67786848072564	486.89845804988664	52	127
486.95650793650793	487.21192743764175	52	127
486.95650793650793	487.21192743764175	61	127
487.26997732426304	487.53700680272107	41	127
487.26997732426304	487.4789569160998	61	127
487.26997732426304	487.4789569160998	52	127
487.53700680272107	487.885306122449	40	127
487.53700680272107	487.76920634920634	61	127
487.53700680272107	487.76920634920634	52	127
487.885306122449	488.14072562358274	60	127
487.885306122449	488.14072562358274	52	127
487.885306122449	488.6980045351474	43	127
488.1987755102041	488.61673469387756	60	127
488.1987755102041	488.61673469387756	52	127
488.6980045351474	488.8721541950113	69	127
488.6980045351474	488.9766439909297	52	127
488.6980045351474	489.2785034013605	41	127
488.6980045351474	488.9766439909297	60	127
488.89537414965986	489.02308390022677	67	127
489.0579138321996	489.20884353741496	66	127
489.0579138321996	489.3249433106576	60	127
489.0579138321996	489.3249433106576	52	127
489.2320634920635	489.3597732426304	67	127
489.40621315192743	490.47433106575966	72	127
489.40621315192743	489.68485260770973	58	127
489.40621315192743	489.68485260770973	52	127
489.7429024943311	489.98671201814057	58	127
489.7429024943311	489.98671201814057	52	127
490.12603174603174	490.5904308390023	41	127
490.12603174603174	490.358231292517	52	127
490.12603174603174	490.358231292517	58	127
490.4162811791383	490.6484807256236	52	127
490.4162811791383	490.6484807256236	58	127
490.7065306122449	491.10126984126987	53	127
490.7065306122449	491.10126984126987	57	127
490.7065306122449	491.3566893424036	65	127
490.7065306122449	491.15931972789116	41	127
491.15931972789116	491.6004988662132	48	127
491.15931972789116	491.6004988662132	57	127
491.15931972789116	491.67015873015873	40	127
491.67015873015873	491.9255782312925	48	127
491.67015873015873	491.98362811791384	41	127
491.67015873015873	491.9255782312925	57	127
491.98362811791384	492.26226757369614	48	127
491.98362811791384	492.26226757369614	57	127
491.98362811791384	492.3203174603175	36	127
492.3203174603175	492.7731065759637	41	127
492.3203174603175	492.70344671201815	57	127
492.3203174603175	493.0285260770975	65	127
492.3203174603175	492.70344671201815	48	127
492.7731065759637	493.10979591836735	57	127
492.7731065759637	494.1779138321995	40	127
492.7731065759637	493.10979591836735	48	127
494.1779138321995	494.4913832199546	41	127
494.1779138321995	494.42172335600907	48	127
494.1779138321995	494.42172335600907	57	127
494.4913832199546	495.55950113378685	48	127
494.4913832199546	495.55950113378685	57	127
494.4913832199546	495.61755102040814	36	127
495.61755102040814	496.10517006802723	65	127
495.61755102040814	495.93102040816325	41	127
495.61755102040814	495.87297052154196	48	127
495.61755102040814	495.87297052154196	57	127
495.93102040816325	496.1632199546485	57	127
495.93102040816325	496.2212698412698	40	127
495.93102040816325	496.1632199546485	48	127
496.2212698412698	496.59278911564627	41	127
496.2212698412698	496.52312925170065	48	127
496.2212698412698	496.52312925170065	57	127
496.59278911564627	496.8133786848073	57	127
496.59278911564627	496.87142857142857	36	127
496.59278911564627	496.8133786848073	48	127
496.87142857142857	499.7855328798186	48	127
496.87142857142857	499.7855328798186	41	127
496.87142857142857	499.7855328798186	57	127
496.87142857142857	497.0455782312925	64	127
497.0455782312925	497.15006802721086	65	127
497.15006802721086	497.3009977324263	67	127
497.3009977324263	499.7855328798186	65	127
