# onset,offset,note,velocity
1.2647165532879818	1.5665759637188208	67	127
1.60140589569161	2.112222222222222	74	127
1.60140589569161	2.112222222222222	55	127
1.60140589569161	2.112222222222222	67	127
1.60140589569161	2.112222222222222	71	127
2.112222222222222	2.6463038548752835	79	127
2.112222222222222	2.5998639455782313	67	127
2.112222222222222	2.5998639455782313	62	127
2.112222222222222	2.5998639455782313	59	127
2.6463038548752835	3.447392290249433	72	127
2.6463038548752835	3.0526530612244898	79	127
2.6463038548752835	3.447392290249433	60	127
2.6463038548752835	3.447392290249433	57	127
3.2151927437641725	3.447392290249433	78	127
3.447392290249433	3.667981859410431	76	127
3.447392290249433	3.667981859410431	71	127
3.447392290249433	3.667981859410431	64	127
3.447392290249433	3.667981859410431	55	127
3.691201814058957	4.167210884353741	57	127
3.691201814058957	3.9234013605442177	74	127
3.691201814058957	4.167210884353741	69	127
3.691201814058957	4.167210884353741	54	127
3.9234013605442177	4.167210884353741	75	127
4.167210884353741	4.979909297052155	64	127
4.167210884353741	4.399410430839002	76	127
4.167210884353741	4.643219954648526	56	127
4.167210884353741	5.339818594104308	71	127
4.399410430839002	4.643219954648526	71	127
4.643219954648526	5.339818594104308	74	127
4.643219954648526	5.572018140589569	57	127
4.979909297052155	5.339818594104308	68	127
5.339818594104308	5.560408163265306	69	127
5.339818594104308	5.572018140589569	69	127
5.339818594104308	5.560408163265306	72	127
6.001587301587302	6.0712471655328795	74	127
6.001587301587302	6.535646258503402	45	127
6.001587301587302	6.582086167800454	57	127
6.001587301587302	7.127755102040816	64	127
6.0712471655328795	6.129297052154195	72	127
6.129297052154195	6.222176870748299	74	127
6.222176870748299	6.268616780045352	72	127
6.268616780045352	6.326666666666667	74	127
6.326666666666667	6.407936507936508	72	127
6.407936507936508	6.500816326530612	71	127
6.500816326530612	6.582086167800454	72	127
6.582086167800454	7.069705215419501	48	127
6.582086167800454	6.860725623582766	52	127
6.582086167800454	6.72140589569161	74	127
6.72140589569161	6.860725623582766	72	127
6.860725623582766	7.127755102040816	60	127
6.860725623582766	6.976825396825397	71	127
6.976825396825397	7.127755102040816	69	127
7.127755102040816	7.882403628117914	62	127
7.127755102040816	7.63859410430839	67	127
7.127755102040816	7.63859410430839	59	127
7.127755102040816	7.882403628117914	50	127
7.63859410430839	7.882403628117914	66	127
7.63859410430839	7.882403628117914	57	127
7.882403628117914	8.091383219954649	52	127
7.882403628117914	8.114603174603175	64	127
7.882403628117914	8.114603174603175	61	127
7.882403628117914	8.114603174603175	55	127
8.114603174603175	9.43814058956916	62	127
8.114603174603175	8.370022675736962	62	127
8.114603174603175	9.05501133786848	54	127
8.114603174603175	9.147891156462585	57	127
8.370022675736962	8.637052154195011	74	127
8.637052154195011	8.904081632653062	73	127
8.904081632653062	9.147891156462585	72	127
9.147891156462585	9.670340136054422	70	127
9.147891156462585	9.856099773242631	55	127
9.147891156462585	9.670340136054422	60	127
9.43814058956916	9.670340136054422	66	127
9.670340136054422	9.89092970521542	71	127
9.670340136054422	9.89092970521542	67	127
9.670340136054422	9.89092970521542	59	127
10.181179138321996	10.900975056689342	69	127
10.970657596371883	11.109977324263038	74	127
11.109977324263038	11.22607709750567	72	127
11.22607709750567	11.342154195011338	71	127
11.342154195011338	11.551156462585034	69	127
11.551156462585034	12.131655328798185	66	127
11.551156462585034	12.131655328798185	57	127
11.551156462585034	12.131655328798185	62	127
11.551156462585034	12.131655328798185	48	127
12.131655328798185	12.37546485260771	59	127
12.131655328798185	12.37546485260771	67	127
12.131655328798185	12.37546485260771	47	127
12.630884353741497	13.095283446712019	69	127
13.14172335600907	13.257823129251701	74	127
13.257823129251701	13.408752834467121	72	127
13.408752834467121	13.52485260770975	71	127
13.52485260770975	13.652562358276644	69	127
13.652562358276644	14.151791383219955	78	127
13.652562358276644	14.151791383219955	62	127
13.652562358276644	14.151791383219955	69	127
13.652562358276644	14.151791383219955	60	127
14.151791383219955	14.407210884353741	79	127
14.151791383219955	14.407210884353741	71	127
14.151791383219955	14.407210884353741	59	127
14.790340136054422	15.219909297052155	81	127
15.266349206349206	15.382448979591837	86	127
15.382448979591837	15.498548752834466	84	127
15.498548752834466	15.614648526077097	83	127
15.614648526077097	15.730748299319728	81	127
15.730748299319728	17.449024943310658	67	127
15.730748299319728	16.22997732426304	87	127
15.730748299319728	16.69437641723356	57	127
15.730748299319728	16.69437641723356	49	127
16.22997732426304	16.69437641723356	88	127
16.69437641723356	17.449024943310658	50	127
16.69437641723356	17.449024943310658	59	127
16.69437641723356	17.774104308390022	79	127
17.449024943310658	18.04113378684807	66	127
17.449024943310658	18.04113378684807	60	127
17.449024943310658	18.04113378684807	51	127
17.774104308390022	17.92501133786848	83	127
17.92501133786848	18.04113378684807	81	127
18.04113378684807	18.56358276643991	67	127
18.04113378684807	18.56358276643991	79	127
18.04113378684807	18.56358276643991	59	127
18.04113378684807	18.56358276643991	52	127
19.1324716553288	19.248571428571427	68	127
19.248571428571427	19.36467120181406	69	127
19.36467120181406	19.48077097505669	72	127
19.48077097505669	19.59687074829932	71	127
19.59687074829932	19.724580498866214	74	127
19.724580498866214	19.840680272108845	72	127
19.840680272108845	19.956780045351476	71	127
19.956780045351476	20.13092970521542	69	127
20.13092970521542	21.222244897959182	49	127
20.13092970521542	20.374739229024943	75	127
20.13092970521542	21.222244897959182	67	127
20.13092970521542	21.222244897959182	58	127
20.490839002267574	20.688208616780045	76	127
20.757868480725623	20.920408163265307	78	127
20.990068027210885	21.152607709750566	79	127
21.222244897959182	21.709886621315192	50	127
21.222244897959182	21.709886621315192	62	127
21.222244897959182	21.709886621315192	59	127
21.222244897959182	22.151065759637188	67	127
21.767936507936508	22.46453514739229	60	127
21.767936507936508	22.46453514739229	54	127
21.767936507936508	22.46453514739229	38	127
22.17426303854875	22.313605442176872	71	127
22.336825396825397	22.452925170068028	69	127
22.46453514739229	22.940544217687076	67	127
22.46453514739229	22.940544217687076	59	127
22.46453514739229	22.940544217687076	55	127
22.46453514739229	22.940544217687076	43	127
23.462993197278912	23.671972789115646	55	127
23.69517006802721	24.21764172335601	43	127
23.69517006802721	24.21764172335601	62	127
23.69517006802721	24.21764172335601	59	127
24.21764172335601	24.693650793650793	62	127
24.21764172335601	24.693650793650793	67	127
24.21764172335601	24.693650793650793	47	127
24.740090702947846	25.506349206349206	60	127
24.740090702947846	25.262539682539682	67	127
24.740090702947846	25.506349206349206	45	127
25.262539682539682	25.506349206349206	66	127
25.506349206349206	25.761768707482993	43	127
25.506349206349206	25.761768707482993	67	127
25.506349206349206	25.761768707482993	64	127
25.506349206349206	25.761768707482993	59	127
25.796598639455784	26.28421768707483	57	127
25.796598639455784	26.040408163265305	62	127
25.796598639455784	26.28421768707483	74	127
25.796598639455784	26.28421768707483	42	127
26.040408163265305	26.28421768707483	63	127
26.28421768707483	26.655736961451247	64	127
26.28421768707483	26.853106575963718	79	127
26.28421768707483	26.609297052154194	43	127
26.28421768707483	27.28267573696145	59	127
26.655736961451247	26.876326530612246	55	127
26.655736961451247	26.876326530612246	59	127
26.89954648526077	27.375555555555554	79	127
26.89954648526077	27.375555555555554	62	127
26.89954648526077	27.375555555555554	59	127
27.375555555555554	27.65419501133787	78	127
27.375555555555554	27.65419501133787	60	127
27.375555555555554	27.65419501133787	57	127
27.375555555555554	28.141814058956918	62	127
27.65419501133787	27.874784580498865	76	127
27.65419501133787	27.874784580498865	59	127
27.65419501133787	27.874784580498865	55	127
27.898004535147393	28.165034013605442	74	127
27.898004535147393	28.35079365079365	54	127
27.898004535147393	28.362403628117914	57	127
28.165034013605442	28.397233560090704	75	127
28.165034013605442	28.397233560090704	69	127
28.397233560090704	28.664263038548754	76	127
28.397233560090704	28.664263038548754	71	127
28.397233560090704	28.850022675736962	56	127
28.664263038548754	28.873242630385487	71	127
28.664263038548754	28.873242630385487	68	127
28.896462585034012	29.41891156462585	64	127
28.896462585034012	29.918140589569163	57	127
28.896462585034012	29.41891156462585	74	127
29.163492063492065	29.22154195011338	69	127
29.22154195011338	29.279591836734692	68	127
29.279591836734692	29.395691609977323	66	127
29.395691609977323	29.4653514739229	67	127
29.4653514739229	29.75560090702948	69	127
29.4653514739229	29.743990929705216	73	127
29.4653514739229	30.463809523809523	57	127
29.75560090702948	29.98780045351474	64	127
30.03424036281179	30.951428571428572	50	127
30.03424036281179	30.463809523809523	67	127
30.278049886621314	30.33609977324263	74	127
30.33609977324263	30.394149659863945	72	127
30.394149659863945	30.45219954648526	71	127
30.45219954648526	30.510249433106576	72	127
30.510249433106576	30.80049886621315	74	127
30.510249433106576	30.997868480725625	66	127
30.510249433106576	31.427437641723355	62	127
30.80049886621315	31.02108843537415	69	127
31.044308390022675	31.926666666666666	55	127
31.044308390022675	31.48548752834467	70	127
31.2881179138322	31.346167800453514	67	127
31.346167800453514	31.40421768707483	66	127
31.40421768707483	31.473877551020408	64	127
31.473877551020408	31.531927437641723	66	127
31.531927437641723	31.97310657596372	59	127
31.531927437641723	31.764126984126985	71	127
31.531927437641723	31.78734693877551	67	127
31.78734693877551	32.007936507936506	63	127
32.05437641723356	32.34462585034014	66	127
32.34462585034014	32.5768253968254	71	127
32.34462585034014	32.5768253968254	52	127
32.34462585034014	32.5768253968254	79	127
32.34462585034014	32.797392290249434	64	127
32.5768253968254	32.797392290249434	54	127
32.5768253968254	32.797392290249434	69	127
32.5768253968254	32.797392290249434	78	127
32.797392290249434	33.08766439909297	76	127
32.797392290249434	33.01800453514739	71	127
32.797392290249434	33.08766439909297	67	127
32.797392290249434	33.08766439909297	55	127
33.08766439909297	33.981632653061226	69	127
33.08766439909297	33.65655328798186	66	127
33.08766439909297	33.319863945578234	57	127
33.08766439909297	33.65655328798186	74	127
33.34308390022676	33.702993197278914	45	127
33.702993197278914	33.981632653061226	57	127
33.702993197278914	33.981632653061226	73	127
33.702993197278914	33.981632653061226	64	127
33.981632653061226	34.22544217687075	62	127
33.981632653061226	34.22544217687075	68	127
33.981632653061226	34.26027210884354	71	127
33.981632653061226	34.26027210884354	59	127
34.26027210884354	34.75950113378685	69	127
34.26027210884354	34.75950113378685	64	127
34.26027210884354	34.469251700680275	69	127
34.26027210884354	34.75950113378685	61	127
34.4924716553288	34.794331065759636	81	127
34.794331065759636	35.014920634920635	80	127
35.014920634920635	35.235510204081635	79	127
35.25873015873016	35.79278911564626	66	127
35.25873015873016	35.514149659863946	78	127
35.25873015873016	35.79278911564626	69	127
35.25873015873016	35.79278911564626	62	127
35.53736961451247	35.827619047619045	86	127
35.827619047619045	36.09462585034014	85	127
36.09462585034014	36.33843537414966	84	127
36.36167800453515	40.56448979591837	83	127
36.59385487528345	36.82607709750567	59	127
36.82607709750567	37.05827664399093	60	127
37.05827664399093	37.29047619047619	61	127
37.29047619047619	37.534285714285716	62	127
37.534285714285716	37.847755102040814	63	127
37.534285714285716	37.847755102040814	59	127
37.847755102040814	38.079954648526076	64	127
37.847755102040814	38.079954648526076	60	127
38.079954648526076	38.31215419501134	65	127
38.079954648526076	38.31215419501134	61	127
38.31215419501134	38.5443537414966	62	127
38.31215419501134	38.521133786848075	66	127
38.5443537414966	38.81138321995465	63	127
38.5443537414966	38.81138321995465	47	127
38.5443537414966	38.81138321995465	71	127
38.81138321995465	39.03197278911565	48	127
38.81138321995465	39.264149659863946	64	127
38.81138321995465	39.03197278911565	69	127
39.03197278911565	39.34544217687075	49	127
39.03197278911565	39.34544217687075	67	127
39.34544217687075	39.6124716553288	66	127
39.34544217687075	39.6124716553288	62	127
39.34544217687075	39.635668934240364	50	127
39.635668934240364	39.879501133786846	72	127
39.635668934240364	39.879501133786846	69	127
39.635668934240364	39.879501133786846	51	127
39.879501133786846	40.11170068027211	67	127
39.879501133786846	40.11170068027211	52	127
39.879501133786846	40.11170068027211	71	127
40.11170068027211	40.35551020408163	69	127
40.11170068027211	40.35551020408163	66	127
40.11170068027211	40.35551020408163	54	127
40.35551020408163	40.88956916099773	67	127
40.35551020408163	40.88956916099773	64	127
40.35551020408163	40.88956916099773	55	127
40.587709750566894	41.133378684807255	83	127
41.133378684807255	41.44684807256236	82	127
41.44684807256236	41.67902494331066	81	127
41.67902494331066	41.91124716553288	80	127
41.91124716553288	42.14344671201814	71	127
41.91124716553288	42.14344671201814	79	127
42.14344671201814	42.3756462585034	69	127
42.14344671201814	42.3756462585034	78	127
42.3756462585034	42.60784580498866	76	127
42.3756462585034	42.60784580498866	67	127
42.60784580498866	42.816802721088436	75	127
42.60784580498866	42.816802721088436	66	127
42.840045351473925	43.09546485260771	67	127
42.840045351473925	43.09546485260771	76	127
42.840045351473925	43.09546485260771	59	127
42.840045351473925	43.09546485260771	55	127
43.09546485260771	43.32764172335601	78	127
43.09546485260771	43.32764172335601	69	127
43.09546485260771	43.32764172335601	57	127
43.09546485260771	43.32764172335601	54	127
43.32764172335601	43.55986394557823	55	127
43.32764172335601	43.55986394557823	79	127
43.32764172335601	43.55986394557823	71	127
43.32764172335601	43.55986394557823	52	127
43.55986394557823	43.6643537414966	45	127
43.55986394557823	44.01265306122449	74	127
43.55986394557823	44.01265306122449	66	127
43.55986394557823	44.22163265306123	57	127
43.82687074829932	43.919773242630384	57	127
44.05909297052154	44.97625850340136	58	127
44.05909297052154	44.26807256235828	64	127
44.05909297052154	44.48866213151928	73	127
44.2912925170068	44.5118820861678	55	127
44.2912925170068	44.5118820861678	52	127
44.53510204081633	45.603197278911566	67	127
44.53510204081633	45.603197278911566	64	127
44.76730158730159	44.88340136054422	79	127
44.89501133786848	44.99950113378685	78	127
45.01111111111111	45.127210884353744	81	127
45.138820861678006	45.46390022675737	79	127
45.46390022675737	45.568390022675736	77	127
45.58	45.68448979591837	76	127
45.69609977324263	46.13727891156463	74	127
45.92829931972789	46.16049886621315	57	127
46.18371882086168	47.588526077097505	58	127
46.18371882086168	46.63650793650794	73	127
46.41591836734694	46.659727891156464	55	127
46.41591836734694	46.659727891156464	52	127
46.68294784580499	47.90199546485261	64	127
46.68294784580499	47.90199546485261	67	127
46.97319727891156	47.07768707482993	79	127
47.089297052154194	47.19378684807256	78	127
47.205396825396825	47.34471655328798	81	127
47.34471655328798	47.46081632653061	79	127
47.46081632653061	47.56530612244898	77	127
47.56530612244898	47.68140589569161	76	127
47.68140589569161	47.809115646258505	74	127
47.809115646258505	47.9368253968254	73	127
47.9368253968254	48.38961451247165	61	127
47.9368253968254	48.18063492063492	58	127
47.9368253968254	48.05292517006803	79	127
47.9368253968254	48.38961451247165	64	127
48.05292517006803	48.18063492063492	78	127
48.18063492063492	48.93528344671202	57	127
48.18063492063492	48.31995464852608	81	127
48.31995464852608	48.459274376417234	79	127
48.459274376417234	48.691473922902496	62	127
48.459274376417234	48.59859410430839	77	127
48.459274376417234	48.691473922902496	65	127
48.59859410430839	48.71469387755102	76	127
48.71469387755102	48.93528344671202	67	127
48.71469387755102	48.83079365079365	74	127
48.71469387755102	48.93528344671202	64	127
48.83079365079365	48.958503401360545	73	127
48.958503401360545	49.457732426303856	61	127
48.958503401360545	49.15587301587301	79	127
48.958503401360545	49.271972789115644	58	127
48.958503401360545	49.457732426303856	64	127
49.15587301587301	49.271972789115644	78	127
49.271972789115644	49.388072562358275	81	127
49.271972789115644	49.945351473922905	57	127
49.388072562358275	49.504172335600906	79	127
49.504172335600906	49.608662131519274	77	127
49.504172335600906	49.70154195011338	65	127
49.504172335600906	49.70154195011338	62	127
49.608662131519274	49.724761904761905	76	127
49.724761904761905	51.35015873015873	64	127
49.724761904761905	51.257278911564626	74	127
49.724761904761905	51.35015873015873	67	127
49.96857142857143	50.24721088435374	45	127
50.270430839002266	50.3865306122449	57	127
50.52585034013605	50.61873015873016	57	127
50.758049886621315	51.75650793650794	57	127
51.303718820861675	51.35015873015873	73	127
51.51269841269841	51.55913832199546	74	127
51.51269841269841	51.55913832199546	66	127
51.51269841269841	51.55913832199546	62	127
51.628798185941044	51.67523809523809	76	127
51.628798185941044	51.67523809523809	61	127
51.628798185941044	51.67523809523809	64	127
51.73328798185941	51.77972789115646	59	127
51.73328798185941	51.77972789115646	78	127
51.73328798185941	51.77972789115646	62	127
51.87260770975057	52.54598639455782	57	127
51.87260770975057	52.54598639455782	79	127
51.87260770975057	52.54598639455782	61	127
52.778185941043084	52.98716553287982	57	127
53.010385487528346	53.48639455782313	57	127
53.010385487528346	53.48639455782313	66	127
53.010385487528346	53.48639455782313	50	127
53.53283446712018	53.93918367346939	50	127
53.53283446712018	53.93918367346939	66	127
53.53283446712018	53.93918367346939	57	127
54.00884353741497	54.94925170068027	50	127
54.00884353741497	54.090113378684805	66	127
54.00884353741497	54.94925170068027	57	127
54.159773242630386	54.206213151927436	65	127
54.27587301587302	54.32231292517007	66	127
54.39197278911565	54.45002267573696	65	127
54.51968253968254	54.647392290249435	66	127
54.79832199546485	55.01891156462585	66	127
55.05374149659864	55.87804988662131	69	127
55.32077097505669	55.42526077097506	38	127
55.32077097505669	55.42526077097506	54	127
55.58780045351474	56.15668934240363	50	127
55.58780045351474	55.947709750566894	66	127
55.947709750566894	56.179909297052156	57	127
55.947709750566894	56.226349206349205	66	127
56.226349206349205	56.93455782312925	69	127
56.48176870748299	56.58625850340136	38	127
56.48176870748299	56.58625850340136	54	127
56.772018140589566	57.00421768707483	66	127
56.772018140589566	57.22480725623583	50	127
57.00421768707483	57.24802721088435	57	127
57.00421768707483	57.27124716553288	66	127
57.27124716553288	57.758866213151926	59	127
57.27124716553288	57.758866213151926	64	127
57.27124716553288	57.758866213151926	43	127
57.80530612244898	58.246485260770974	59	127
57.80530612244898	58.246485260770974	64	127
57.80530612244898	58.246485260770974	43	127
58.292925170068024	59.31460317460318	43	127
58.292925170068024	58.33936507936508	64	127
58.292925170068024	59.31460317460318	59	127
58.50190476190476	58.54834467120181	63	127
58.629614512471655	58.676054421768704	64	127
58.745714285714286	58.792154195011335	63	127
58.896643990929704	58.98952380952381	64	127
59.15206349206349	59.453922902494334	64	127
59.453922902494334	60.10408163265306	67	127
59.70934240362812	59.80222222222222	43	127
59.70934240362812	59.80222222222222	52	127
59.941541950113375	60.17374149659864	59	127
59.941541950113375	60.37111111111111	55	127
60.17374149659864	60.41755102040816	64	127
60.17374149659864	60.39433106575964	55	127
60.41755102040816	61.18380952380952	67	127
60.67297052154195	60.765850340136055	52	127
60.67297052154195	60.765850340136055	43	127
60.94	61.18380952380952	64	127
60.94	61.462448979591834	55	127
61.18380952380952	61.485668934240366	61	127
61.18380952380952	61.50888888888889	64	127
61.50888888888889	62.50734693877551	54	127
61.50888888888889	62.04294784580499	62	127
61.82235827664399	62.28675736961451	57	127
62.1009977324263	62.55378684807256	63	127
62.344807256235825	62.87886621315193	57	127
62.58861678004535	63.64512471655329	49	127
62.58861678004535	63.122675736961455	64	127
62.902086167800455	63.36648526077097	57	127
63.169115646258504	63.7031746031746	65	127
63.41292517006803	64.01664399092971	57	127
63.74961451247165	64.2720634920635	66	127
63.74961451247165	64.2720634920635	50	127
64.03986394557823	64.29528344671202	62	127
64.31850340136054	64.75968253968254	43	127
64.31850340136054	64.43458049886621	67	127
64.31850340136054	64.43458049886621	64	127
64.43458049886621	64.5507029478458	69	127
64.43458049886621	64.5507029478458	66	127
64.5507029478458	64.6784126984127	71	127
64.5507029478458	64.6784126984127	67	127
64.6784126984127	64.84095238095239	67	127
64.6784126984127	64.84095238095239	64	127
64.84095238095239	65.31696145124717	62	127
64.84095238095239	64.95705215419501	45	127
64.84095238095239	65.31696145124717	66	127
64.95705215419501	65.07312925170068	44	127
65.07312925170068	65.20083900226757	45	127
65.20083900226757	65.31696145124717	44	127
65.31696145124717	65.6536507936508	45	127
65.31696145124717	65.6536507936508	64	127
65.31696145124717	65.6536507936508	61	127
65.66526077097505	65.9438775510204	69	127
65.9438775510204	66.38507936507936	62	127
65.9438775510204	66.38507936507936	78	127
65.9438775510204	66.38507936507936	69	127
66.1877097505669	66.44312925170068	50	127
66.45471655328798	66.89591836734694	62	127
66.45471655328798	66.89591836734694	78	127
66.45471655328798	66.89591836734694	69	127
66.69854875283447	66.91913832199546	50	127
66.94235827664399	68.26589569160998	69	127
66.94235827664399	66.97718820861678	78	127
66.94235827664399	66.97718820861678	62	127
67.08167800453515	67.1281179138322	61	127
67.08167800453515	67.1281179138322	77	127
67.19777777777777	67.24421768707484	62	127
67.19777777777777	67.40675736961451	50	127
67.19777777777777	67.24421768707484	78	127
67.31387755102041	67.36031746031746	61	127
67.31387755102041	67.36031746031746	77	127
67.42997732426304	67.55768707482993	78	127
67.42997732426304	67.55768707482993	62	127
67.42997732426304	67.75505668934241	50	127
67.76666666666667	68.03369614512472	78	127
67.76666666666667	68.03369614512472	62	127
68.05691609977325	68.71868480725624	81	127
68.05691609977325	68.71868480725624	66	127
68.28911564625851	68.52131519274377	69	127
68.28911564625851	68.38199546485261	38	127
68.52131519274377	69.21791383219954	50	127
68.52131519274377	69.22952380952381	74	127
68.79995464852608	69.03215419501134	62	127
68.79995464852608	69.00891156462585	78	127
69.03215419501134	69.67070294784581	81	127
69.03215419501134	69.67070294784581	66	127
69.25274376417234	69.50816326530612	69	127
69.25274376417234	69.3572335600907	38	127
69.50816326530612	69.9841723356009	74	127
69.50816326530612	69.9841723356009	50	127
69.75195011337868	70.0190022675737	78	127
69.75195011337868	70.05383219954649	62	127
70.05383219954649	70.49501133786848	76	127
70.05383219954649	70.49501133786848	69	127
70.05383219954649	70.49501133786848	61	127
70.30925170068028	70.52984126984127	55	127
70.54145124716554	71.01746031746032	61	127
70.54145124716554	71.01746031746032	76	127
70.54145124716554	71.01746031746032	69	127
70.80848072562358	71.04068027210884	55	127
71.06390022675737	71.13356009070294	61	127
71.06390022675737	71.13356009070294	76	127
71.06390022675737	72.4687074829932	69	127
71.23804988662131	71.2844671201814	75	127
71.23804988662131	71.2844671201814	60	127
71.35414965986395	71.400589569161	76	127
71.35414965986395	71.400589569161	61	127
71.35414965986395	71.59795918367347	55	127
71.48185941043084	71.55151927437642	75	127
71.48185941043084	71.55151927437642	60	127
71.62117913832199	71.78371882086168	76	127
71.62117913832199	71.78371882086168	61	127
71.62117913832199	71.96947845804989	55	127
71.98108843537415	72.22489795918368	76	127
71.98108843537415	72.22489795918368	61	127
72.2481179138322	72.92147392290249	64	127
72.2481179138322	72.92147392290249	79	127
72.49192743764172	72.75895691609978	57	127
72.49192743764172	72.61963718820861	43	127
72.75895691609978	73.51360544217687	69	127
72.75895691609978	73.51360544217687	55	127
73.01437641723356	73.26979591836735	61	127
73.01437641723356	73.24657596371883	76	127
73.26979591836735	74.00122448979592	79	127
73.26979591836735	74.00122448979592	64	127
73.53682539682539	73.83866213151927	57	127
73.53682539682539	73.64131519274376	43	127
73.83866213151927	74.80231292517007	69	127
73.83866213151927	74.26825396825397	55	127
74.07086167800453	74.31469387755102	61	127
74.07086167800453	74.2914739229025	76	127
74.31469387755102	75.30154195011337	54	127
74.31469387755102	74.80231292517007	74	127
74.31469387755102	74.80231292517007	62	127
74.80231292517007	75.30154195011337	75	127
74.80231292517007	75.30154195011337	72	127
74.80231292517007	75.30154195011337	69	127
75.30154195011337	75.78916099773242	67	127
75.30154195011337	75.78916099773242	76	127
75.30154195011337	75.78916099773242	71	127
75.30154195011337	75.78916099773242	55	127
75.78916099773242	76.31160997732427	71	127
75.78916099773242	76.31160997732427	77	127
75.78916099773242	76.31160997732427	74	127
75.78916099773242	76.31160997732427	56	127
76.31160997732427	76.79922902494332	69	127
76.31160997732427	76.7527664399093	78	127
76.31160997732427	76.7527664399093	74	127
76.31160997732427	77.28684807256236	57	127
76.79922902494332	76.91532879818594	78	127
76.79922902494332	76.91532879818594	81	127
76.79922902494332	77.28684807256236	67	127
76.92693877551021	77.03142857142858	76	127
76.92693877551021	77.03142857142858	79	127
77.04303854875283	77.15913832199547	78	127
77.04303854875283	77.15913832199547	74	127
77.17074829931973	77.2752380952381	76	127
77.17074829931973	77.2752380952381	73	127
77.28684807256236	77.91378684807256	74	127
77.28684807256236	77.93700680272109	62	127
77.28684807256236	77.43777777777778	74	127
77.28684807256236	77.93700680272109	66	127
77.50743764172336	77.57709750566893	76	127
77.63514739229025	77.6815873015873	78	127
77.82090702947846	77.86734693877551	79	127
77.93700680272109	77.98344671201814	81	127
78.05310657596372	78.11115646258503	83	127
78.18081632653062	78.22725623582767	85	127
78.29691609977324	78.34335600907029	86	127
78.45945578231293	79.53916099773242	54	127
78.45945578231293	78.93546485260771	62	127
78.45945578231293	78.93546485260771	47	127
78.93546485260771	79.53916099773242	72	127
78.93546485260771	79.53916099773242	63	127
78.93546485260771	79.53916099773242	45	127
79.53916099773242	80.01519274376417	64	127
79.53916099773242	80.01519274376417	71	127
79.53916099773242	80.01519274376417	55	127
79.53916099773242	80.01519274376417	43	127
80.01519274376417	80.56083900226757	44	127
80.01519274376417	80.56083900226757	65	127
80.01519274376417	80.56083900226757	83	127
80.01519274376417	81.04845804988662	62	127
80.56083900226757	81.00204081632653	69	127
80.56083900226757	81.57092970521542	45	127
80.56083900226757	81.00204081632653	66	127
81.04845804988662	81.57092970521542	85	127
81.04845804988662	81.15297052154195	69	127
81.04845804988662	81.28068027210884	64	127
81.17616780045351	81.29229024943311	67	127
81.3038775510204	81.44321995464853	66	127
81.3038775510204	81.5477097505669	55	127
81.4548299319728	81.5592970521542	64	127
81.57092970521542	81.83795918367348	54	127
81.57092970521542	81.83795918367348	86	127
81.57092970521542	81.83795918367348	62	127
81.57092970521542	81.83795918367348	38	127
82.27913832199546	82.3952380952381	86	127
82.3952380952381	82.49972789115647	85	127
82.51133786848072	82.55777777777777	83	127
82.62743764172336	82.67387755102041	81	127
82.74353741496599	82.87124716553288	80	127
82.74353741496599	82.83639455782313	69	127
82.74353741496599	82.83639455782313	64	127
82.74353741496599	82.83639455782313	61	127
82.87124716553288	82.98734693877552	81	127
82.98734693877552	83.08022675736962	69	127
82.98734693877552	83.08022675736962	64	127
82.98734693877552	83.08022675736962	61	127
82.98734693877552	83.10344671201814	80	127
83.10344671201814	83.2195238095238	81	127
83.2195238095238	83.38208616780045	69	127
83.2195238095238	83.38208616780045	64	127
83.2195238095238	83.38208616780045	61	127
83.2195238095238	83.40530612244898	80	127
83.40530612244898	83.52140589569161	81	127
83.52140589569161	83.63750566893424	83	127
83.63750566893424	83.74199546485261	79	127
83.75360544217688	83.9045351473923	62	127
83.75360544217688	83.9045351473923	69	127
83.75360544217688	83.9045351473923	66	127
83.75360544217688	83.92775510204082	77	127
83.92775510204082	84.04385487528344	78	127
84.04385487528344	84.12512471655329	69	127
84.04385487528344	84.12512471655329	66	127
84.04385487528344	84.12512471655329	62	127
84.04385487528344	84.14834467120181	77	127
84.14834467120181	84.26444444444445	78	127
84.26444444444445	84.35732426303855	69	127
84.26444444444445	84.35732426303855	66	127
84.26444444444445	84.35732426303855	62	127
84.26444444444445	84.38054421768707	77	127
84.38054421768707	84.58952380952381	78	127
84.58952380952381	84.70562358276644	81	127
84.70562358276644	84.8101133786848	78	127
84.82172335600907	84.94943310657597	75	127
84.82172335600907	85.05392290249434	55	127
84.94943310657597	85.06553287981859	76	127
85.06553287981859	85.18163265306123	75	127
85.06553287981859	85.2861224489796	71	127
85.06553287981859	85.2861224489796	67	127
85.18163265306123	85.29773242630385	76	127
85.29773242630385	85.54154195011338	52	127
85.29773242630385	85.41383219954649	75	127
85.41383219954649	85.55315192743764	76	127
85.55315192743764	85.6924716553288	79	127
85.55315192743764	85.7853514739229	71	127
85.55315192743764	85.7853514739229	67	127
85.6924716553288	85.79696145124717	76	127
85.80857142857143	86.27297052154195	64	127
85.80857142857143	85.94789115646259	74	127
85.80857142857143	86.29619047619047	57	127
85.80857142857143	86.29619047619047	69	127
85.94789115646259	86.08721088435374	73	127
86.08721088435374	86.20331065759638	71	127
86.20331065759638	86.319410430839	69	127
86.319410430839	86.52839002267574	86	127
86.319410430839	86.52839002267574	74	127
86.52839002267574	86.65609977324263	73	127
86.52839002267574	86.6677097505669	85	127
86.6677097505669	86.71414965986395	83	127
86.6677097505669	86.71414965986395	71	127
86.78380952380952	86.83024943310657	81	127
86.78380952380952	86.83024943310657	69	127
86.92312925170069	87.01600907029479	57	127
86.92312925170069	87.01600907029479	64	127
86.92312925170069	87.01600907029479	49	127
86.92312925170069	87.03922902494331	80	127
86.92312925170069	87.03922902494331	68	127
87.03922902494331	87.15530612244898	81	127
87.03922902494331	87.15530612244898	69	127
87.15530612244898	87.24820861678005	57	127
87.15530612244898	87.24820861678005	64	127
87.15530612244898	87.24820861678005	49	127
87.15530612244898	87.27142857142857	80	127
87.15530612244898	87.27142857142857	68	127
87.27142857142857	87.42235827664399	81	127
87.27142857142857	87.42235827664399	69	127
87.42235827664399	87.55006802721088	57	127
87.42235827664399	87.55006802721088	64	127
87.42235827664399	87.55006802721088	49	127
87.42235827664399	87.57328798185941	80	127
87.42235827664399	87.57328798185941	68	127
87.57328798185941	87.68938775510205	81	127
87.57328798185941	87.68938775510205	69	127
87.68938775510205	87.80548752834467	83	127
87.68938775510205	87.80548752834467	71	127
87.80548752834467	87.90997732426304	79	127
87.80548752834467	87.90997732426304	67	127
87.92158730158731	88.0260544217687	62	127
87.92158730158731	88.0260544217687	57	127
87.92158730158731	88.0260544217687	50	127
87.92158730158731	88.0492970521542	65	127
87.92158730158731	88.06090702947846	77	127
88.06090702947846	88.18861678004535	66	127
88.06090702947846	88.18861678004535	78	127
88.18861678004535	88.30471655328799	62	127
88.18861678004535	88.30471655328799	57	127
88.18861678004535	88.30471655328799	50	127
88.18861678004535	88.32793650793651	77	127
88.18861678004535	88.32793650793651	65	127
88.32793650793651	88.44403628117914	78	127
88.32793650793651	88.44403628117914	66	127
88.44403628117914	88.5833560090703	57	127
88.44403628117914	88.5833560090703	62	127
88.44403628117914	88.5833560090703	50	127
88.44403628117914	88.61818594104308	77	127
88.44403628117914	88.61818594104308	65	127
88.61818594104308	88.75750566893424	78	127
88.61818594104308	88.75750566893424	66	127
88.75750566893424	88.87360544217687	81	127
88.75750566893424	88.87360544217687	69	127
88.87360544217687	88.97809523809524	78	127
88.87360544217687	88.97809523809524	66	127
88.9897052154195	89.10580498866213	75	127
88.9897052154195	89.10580498866213	63	127
88.9897052154195	89.2102947845805	43	127
89.10580498866213	89.22190476190477	76	127
89.10580498866213	89.22190476190477	64	127
89.22190476190477	89.34961451247166	79	127
89.22190476190477	89.34961451247166	67	127
89.22190476190477	89.46571428571428	59	127
89.22190476190477	89.46571428571428	55	127
89.34961451247166	89.47732426303855	76	127
89.34961451247166	89.47732426303855	64	127
89.47732426303855	89.6166439909297	76	127
89.47732426303855	89.6166439909297	64	127
89.47732426303855	89.7443537414966	45	127
89.6166439909297	89.75596371882087	62	127
89.6166439909297	89.75596371882087	74	127
89.75596371882087	89.90689342403628	74	127
89.75596371882087	89.90689342403628	62	127
89.75596371882087	89.99977324263038	55	127
89.75596371882087	89.99977324263038	57	127
89.90689342403628	90.02299319727891	73	127
89.90689342403628	90.02299319727891	61	127
90.03460317460318	91.16077097505669	74	127
90.03460317460318	90.16231292517007	50	127
90.03460317460318	91.16077097505669	57	127
90.03460317460318	91.16077097505669	54	127
90.03460317460318	91.16077097505669	62	127
90.16231292517007	90.2784126984127	52	127
90.2784126984127	90.39451247165533	54	127
90.39451247165533	90.51061224489796	55	127
90.51061224489796	90.75442176870749	57	127
90.75442176870749	90.91696145124716	59	127
90.91696145124716	91.0330612244898	61	127
91.0330612244898	91.13755102040817	62	127
91.16077097505669	92.12439909297052	78	127
91.16077097505669	93.09963718820862	74	127
91.16077097505669	92.99514739229025	62	127
91.16077097505669	92.12439909297052	69	127
91.16077097505669	91.27687074829932	60	127
91.27687074829932	91.39297052154195	59	127
91.39297052154195	91.50907029478458	57	127
91.50907029478458	91.66	55	127
91.66	91.77609977324263	54	127
91.77609977324263	91.89219954648526	52	127
91.89219954648526	92.0082993197279	50	127
92.0082993197279	92.11278911564627	48	127
92.12439909297052	92.99514739229025	79	127
92.12439909297052	92.99514739229025	71	127
92.12439909297052	92.25210884353741	47	127
92.25210884353741	92.36820861678005	48	127
92.36820861678005	92.48430839002268	50	127
92.48430839002268	92.58879818594104	52	127
92.58879818594104	92.70489795918367	54	127
92.70489795918367	92.83260770975056	55	127
92.83260770975056	92.97192743764172	57	127
92.97192743764172	93.08802721088435	59	127
93.09963718820862	93.32022675736961	69	127
93.09963718820862	93.32022675736961	57	127
93.09963718820862	93.43632653061225	78	127
93.09963718820862	93.43632653061225	74	127
93.34342403628118	93.4479365079365	69	127
93.34342403628118	93.4479365079365	57	127
93.47113378684807	93.58725623582767	81	127
93.47113378684807	93.58725623582767	78	127
93.58725623582767	93.70335600907029	69	127
93.58725623582767	93.70335600907029	57	127
93.58725623582767	93.72655328798186	81	127
93.58725623582767	93.72655328798186	78	127
93.72655328798186	93.86589569160998	76	127
93.72655328798186	93.86589569160998	79	127
93.86589569160998	93.97038548752835	57	127
93.86589569160998	93.97038548752835	67	127
93.86589569160998	93.97038548752835	57	127
93.86589569160998	93.99360544217687	78	127
93.86589569160998	93.99360544217687	74	127
93.99360544217687	94.12131519274377	76	127
93.99360544217687	94.12131519274377	73	127
94.13290249433106	95.03850340136054	74	127
94.13290249433106	94.27224489795918	50	127
94.13290249433106	95.03850340136054	66	127
94.13290249433106	95.03850340136054	57	127
94.27224489795918	94.39995464852608	52	127
94.39995464852608	94.5508843537415	54	127
94.5508843537415	94.65537414965986	55	127
94.65537414965986	94.78308390022676	57	127
94.78308390022676	94.91079365079365	59	127
94.91079365079365	95.01528344671202	61	127
95.01528344671202	95.13138321995464	62	127
95.14299319727891	96.10662131519274	78	127
95.14299319727891	95.28231292517007	60	127
95.14299319727891	96.23433106575963	62	127
95.14299319727891	96.10662131519274	69	127
95.28231292517007	95.3984126984127	59	127
95.3984126984127	95.51451247165532	57	127
95.51451247165532	95.63061224489796	55	127
95.63061224489796	95.74671201814058	54	127
95.74671201814058	95.87442176870748	52	127
95.87442176870748	95.99052154195012	50	127
95.99052154195012	96.09501133786848	48	127
96.10662131519274	97.11668934240363	79	127
96.10662131519274	97.11668934240363	71	127
96.10662131519274	96.23433106575963	47	127
96.23433106575963	96.35043083900227	48	127
96.23433106575963	96.35043083900227	64	127
96.35043083900227	96.47814058956916	66	127
96.35043083900227	96.47814058956916	50	127
96.47814058956916	96.58263038548753	52	127
96.47814058956916	96.58263038548753	67	127
96.58263038548753	96.69873015873016	69	127
96.58263038548753	96.69873015873016	54	127
96.69873015873016	96.84965986394558	71	127
96.69873015873016	96.84965986394558	55	127
96.84965986394558	96.97736961451247	57	127
96.84965986394558	96.97736961451247	72	127
96.97736961451247	97.10507936507936	74	127
96.97736961451247	97.10507936507936	59	127
97.11668934240363	97.25600907029478	57	127
97.11668934240363	98.14997732426303	81	127
97.11668934240363	97.25600907029478	72	127
97.11668934240363	98.14997732426303	78	127
97.25600907029478	97.39532879818594	71	127
97.25600907029478	97.39532879818594	55	127
97.39532879818594	97.55786848072562	69	127
97.39532879818594	97.55786848072562	54	127
97.55786848072562	97.67396825396825	52	127
97.55786848072562	97.67396825396825	67	127
97.67396825396825	97.79006802721088	66	127
97.67396825396825	97.79006802721088	50	127
97.79006802721088	97.91777777777777	48	127
97.79006802721088	97.91777777777777	64	127
97.91777777777777	98.03387755102041	47	127
97.91777777777777	98.03387755102041	62	127
98.03387755102041	98.13836734693878	60	127
98.03387755102041	98.13836734693878	45	127
98.14997732426303	99.04394557823129	79	127
98.14997732426303	98.27768707482993	59	127
98.14997732426303	98.27768707482993	43	127
98.14997732426303	99.04394557823129	83	127
98.27768707482993	98.41700680272109	45	127
98.27768707482993	98.41700680272109	60	127
98.41700680272109	98.54471655328798	62	127
98.41700680272109	98.54471655328798	47	127
98.54471655328798	98.64920634920635	48	127
98.54471655328798	98.64920634920635	64	127
98.64920634920635	98.77691609977325	66	127
98.64920634920635	98.77691609977325	50	127
98.77691609977325	98.89301587301587	67	127
98.77691609977325	98.89301587301587	52	127
98.89301587301587	99.02072562358276	54	127
98.89301587301587	99.02072562358276	69	127
99.02072562358276	99.16004535147393	55	127
99.02072562358276	99.16004535147393	71	127
99.17165532879818	99.28775510204082	67	127
99.17165532879818	99.28775510204082	64	127
99.17165532879818	100.18172335600907	45	127
99.17165532879818	99.28775510204082	73	127
99.28775510204082	99.45029478458049	69	127
99.28775510204082	99.45029478458049	66	127
99.28775510204082	99.45029478458049	74	127
99.45029478458049	99.58961451247166	71	127
99.45029478458049	99.58961451247166	67	127
99.45029478458049	99.58961451247166	76	127
99.58961451247166	99.71732426303855	73	127
99.58961451247166	99.71732426303855	69	127
99.58961451247166	99.71732426303855	78	127
99.71732426303855	99.85664399092971	74	127
99.71732426303855	99.85664399092971	71	127
99.71732426303855	99.85664399092971	79	127
99.85664399092971	99.9843537414966	76	127
99.85664399092971	99.9843537414966	73	127
99.85664399092971	99.9843537414966	81	127
99.9843537414966	100.15850340136055	83	127
99.9843537414966	100.15850340136055	78	127
99.9843537414966	100.15850340136055	74	127
100.15850340136055	100.26299319727892	85	127
100.15850340136055	100.26299319727892	79	127
100.15850340136055	100.26299319727892	76	127
100.27460317460317	100.48358276643991	86	127
100.27460317460317	100.48358276643991	78	127
100.27460317460317	100.48358276643991	74	127
100.27460317460317	100.48358276643991	47	127
100.82027210884354	101.04086167800453	83	127
100.82027210884354	101.04086167800453	79	127
100.82027210884354	101.04086167800453	74	127
100.82027210884354	101.04086167800453	55	127
101.28467120181406	101.52848072562358	81	127
101.28467120181406	101.52848072562358	78	127
101.28467120181406	101.52848072562358	74	127
101.28467120181406	101.52848072562358	57	127
101.77229024943311	102.01609977324263	79	127
101.77229024943311	102.01609977324263	76	127
101.77229024943311	102.01609977324263	73	127
101.77229024943311	102.01609977324263	58	127
102.27151927437642	102.41083900226758	79	127
102.27151927437642	102.50371882086168	74	127
102.27151927437642	102.50371882086168	74	127
102.27151927437642	102.50371882086168	59	127
102.41083900226758	102.51532879818595	78	127
102.75913832199547	102.86362811791383	78	127
102.75913832199547	102.9681179138322	71	127
102.75913832199547	102.9681179138322	67	127
102.75913832199547	102.9681179138322	55	127
102.86362811791383	102.97972789115646	76	127
103.26997732426304	103.38607709750566	76	127
103.26997732426304	103.51378684807256	69	127
103.26997732426304	103.51378684807256	66	127
103.26997732426304	103.51378684807256	57	127
103.38607709750566	103.52539682539683	74	127
103.80403628117914	104.0710657596372	45	127
103.80403628117914	103.93174603174603	74	127
103.80403628117914	104.0710657596372	67	127
103.80403628117914	104.0710657596372	64	127
103.93174603174603	104.0710657596372	73	127
104.33809523809524	104.69800453514739	62	127
104.33809523809524	104.69800453514739	74	127
104.33809523809524	104.69800453514739	66	127
104.33809523809524	104.69800453514739	50	127
105.15079365079364	106.14925170068027	62	127
105.15079365079364	106.14925170068027	80	127
105.15079365079364	106.14925170068027	65	127
105.15079365079364	106.14925170068027	59	127
106.19569160997733	107.06643990929705	57	127
106.19569160997733	106.30018140589569	83	127
106.19569160997733	106.90390022675737	66	127
106.19569160997733	106.90390022675737	62	127
106.31179138321995	106.90390022675737	81	127
106.9271201814059	107.02	62	127
106.9271201814059	107.03160997732427	79	127
106.9271201814059	107.02	66	127
107.04321995464852	107.14770975056689	78	127
107.15931972789116	107.56566893424036	45	127
107.15931972789116	107.22897959183673	67	127
107.15931972789116	107.22897959183673	64	127
107.15931972789116	107.240589569161	78	127
107.25219954648526	107.35668934240363	76	127
107.3682993197279	107.461179138322	67	127
107.3682993197279	107.461179138322	64	127
107.3682993197279	107.47278911564626	74	127
107.48439909297052	107.60049886621316	73	127
107.61210884353741	107.8675283446712	62	127
107.61210884353741	107.8675283446712	74	127
107.61210884353741	107.8675283446712	66	127
107.61210884353741	107.8675283446712	50	127
108.26226757369615	109.14462585034013	65	127
108.26226757369615	109.14462585034013	59	127
108.26226757369615	109.14462585034013	80	127
108.26226757369615	109.14462585034013	62	127
109.23750566893425	110.14308390022676	57	127
109.23750566893425	109.3419954648526	83	127
109.23750566893425	109.92249433106576	66	127
109.23750566893425	109.92249433106576	62	127
109.3419954648526	109.92249433106576	81	127
109.94571428571429	110.03859410430839	66	127
109.94571428571429	110.03859410430839	62	127
109.94571428571429	110.05020408163266	79	127
110.06181405895691	110.20113378684808	78	127
110.21274376417233	110.70036281179138	45	127
110.21274376417233	110.3172335600907	67	127
110.21274376417233	110.3172335600907	64	127
110.21274376417233	110.32884353741497	78	127
110.34045351473922	110.47977324263039	76	127
110.49138321995464	110.58426303854876	67	127
110.49138321995464	110.58426303854876	64	127
110.49138321995464	110.59587301587301	74	127
110.61909297052154	110.74680272108843	73	127
110.7584126984127	111.03705215419501	62	127
110.7584126984127	111.03705215419501	74	127
110.7584126984127	111.03705215419501	66	127
110.7584126984127	111.03705215419501	50	127
111.47823129251701	111.58272108843538	76	127
111.47823129251701	111.57111111111111	67	127
111.47823129251701	111.57111111111111	57	127
111.59433106575963	111.68721088435375	79	127
111.698820861678	111.80331065759637	78	127
111.698820861678	111.79170068027211	67	127
111.698820861678	111.79170068027211	57	127
111.81492063492064	111.91941043083901	76	127
111.93102040816326	112.15160997732427	62	127
111.93102040816326	112.15160997732427	74	127
111.93102040816326	112.15160997732427	66	127
112.39541950113379	112.51151927437641	76	127
112.39541950113379	112.48829931972789	85	127
112.39541950113379	112.48829931972789	67	127
112.39541950113379	112.48829931972789	57	127
112.52312925170068	112.65083900226757	79	127
112.66244897959184	112.7669387755102	78	127
112.66244897959184	112.75532879818594	85	127
112.66244897959184	112.75532879818594	67	127
112.66244897959184	112.75532879818594	57	127
112.79015873015874	112.89464852607709	76	127
112.90625850340136	113.31260770975057	66	127
112.90625850340136	113.31260770975057	86	127
112.90625850340136	113.31260770975057	74	127
112.90625850340136	113.31260770975057	62	127
114.0208163265306	114.3691156462585	59	127
114.0208163265306	114.3691156462585	64	127
114.0208163265306	114.3691156462585	62	127
114.0208163265306	114.3691156462585	43	127
114.3691156462585	114.50843537414966	59	127
114.3691156462585	114.50843537414966	64	127
114.3691156462585	114.50843537414966	62	127
114.3691156462585	114.50843537414966	43	127
114.50843537414966	114.9031746031746	44	127
114.50843537414966	114.9031746031746	64	127
114.50843537414966	114.9031746031746	62	127
114.50843537414966	114.9031746031746	59	127
114.9031746031746	115.04249433106575	44	127
114.9031746031746	115.04249433106575	64	127
114.9031746031746	115.04249433106575	62	127
114.9031746031746	115.04249433106575	59	127
115.04249433106575	115.42562358276643	57	127
115.04249433106575	115.42562358276643	66	127
115.04249433106575	115.42562358276643	62	127
115.04249433106575	115.42562358276643	45	127
115.42562358276643	115.55333333333333	57	127
115.42562358276643	115.55333333333333	66	127
115.42562358276643	115.55333333333333	62	127
115.42562358276643	115.55333333333333	45	127
115.55333333333333	115.91324263038548	62	127
115.55333333333333	115.91324263038548	67	127
115.55333333333333	115.91324263038548	55	127
115.55333333333333	115.91324263038548	47	127
115.91324263038548	116.08739229024944	47	127
115.91324263038548	116.08739229024944	67	127
115.91324263038548	116.08739229024944	62	127
115.91324263038548	116.08739229024944	55	127
116.08739229024944	116.33120181405896	57	127
116.08739229024944	116.33120181405896	66	127
116.08739229024944	116.33120181405896	62	127
116.08739229024944	116.33120181405896	45	127
116.58662131519274	116.64467120181406	62	127
116.58662131519274	116.64467120181406	66	127
116.58662131519274	117.00458049886622	55	127
116.58662131519274	117.00458049886622	45	127
116.64467120181406	116.70272108843537	64	127
116.64467120181406	116.70272108843537	61	127
116.70272108843537	116.77238095238096	62	127
116.70272108843537	116.77238095238096	66	127
116.77238095238096	116.83043083900226	61	127
116.77238095238096	116.83043083900226	64	127
116.83043083900226	116.88848072562358	62	127
116.83043083900226	116.88848072562358	66	127
116.88848072562358	116.9465306122449	64	127
116.88848072562358	116.9465306122449	61	127
116.9465306122449	116.99297052154195	62	127
116.9465306122449	116.99297052154195	59	127
116.99297052154195	117.039410430839	61	127
116.99297052154195	117.05102040816327	64	127
117.05102040816327	117.52702947845805	38	127
117.05102040816327	117.51541950113379	62	127
117.05102040816327	117.52702947845805	62	127
117.05102040816327	117.52702947845805	54	127
117.82888888888888	118.58353741496599	62	127
118.60675736961451	118.8273469387755	54	127
118.60675736961451	119.18725623582766	69	127
118.60675736961451	118.8273469387755	62	127
118.60675736961451	118.8273469387755	50	127
119.18725623582766	119.62843537414966	74	127
119.18725623582766	119.38462585034014	69	127
119.18725623582766	119.38462585034014	54	127
119.18725623582766	119.38462585034014	57	127
119.67487528344671	122.2871201814059	52	127
119.67487528344671	120.98680272108844	74	127
119.67487528344671	122.2871201814059	67	127
119.67487528344671	122.2871201814059	64	127
120.9984126984127	121.11451247165533	73	127
121.11451247165533	121.23061224489796	76	127
121.23061224489796	121.3467120181406	74	127
121.3467120181406	121.47442176870749	78	127
121.47442176870749	121.6253514739229	76	127
121.6253514739229	121.74145124716553	79	127
121.74145124716553	121.85755102040817	78	127
121.85755102040817	122.13619047619048	81	127
122.13619047619048	122.39160997732426	79	127
122.39160997732426	122.67024943310658	78	127
122.67024943310658	122.9140589569161	76	127
122.9140589569161	123.15786848072563	74	127
123.15786848072563	123.39006802721089	73	127
123.39006802721089	123.61065759637188	71	127
123.61065759637188	123.85446712018141	69	127
123.85446712018141	124.06344671201813	68	127
124.08666666666667	124.34208616780046	69	127
124.34208616780046	124.8297052154195	70	127
124.8297052154195	124.93419501133786	71	127
124.93419501133786	125.0502947845805	67	127
125.0502947845805	126.46671201814058	67	127
125.59596371882085	126.0835827664399	57	127
125.59596371882085	126.0835827664399	60	127
125.59596371882085	126.0835827664399	51	127
126.23451247165534	126.93111111111111	60	127
126.23451247165534	126.73374149659864	57	127
126.23451247165534	126.73374149659864	51	127
126.50154195011338	126.93111111111111	66	127
126.93111111111111	127.5928798185941	66	127
126.93111111111111	127.34907029478458	72	127
126.93111111111111	127.44195011337868	57	127
126.93111111111111	127.44195011337868	51	127
127.34907029478458	127.5928798185941	71	127
127.5928798185941	128.59133786848074	57	127
127.5928798185941	128.59133786848074	51	127
127.5928798185941	128.59133786848074	71	127
127.5928798185941	128.59133786848074	66	127
129.42725623582766	129.64784580498866	64	127
129.70589569160998	130.41410430839002	52	127
129.70589569160998	130.41410430839002	67	127
129.70589569160998	130.46054421768707	71	127
130.46054421768707	131.25002267573697	76	127
130.46054421768707	131.25002267573697	48	127
130.46054421768707	131.25002267573697	70	127
130.46054421768707	131.25002267573697	67	127
131.3080725623583	133.281768707483	67	127
131.3080725623583	134.81428571428572	47	127
131.3080725623583	132.81736961451247	76	127
131.3080725623583	133.281768707483	70	127
132.8754195011338	132.99151927437643	75	127
132.99151927437643	133.13083900226758	76	127
133.13083900226758	133.25854875283446	78	127
133.25854875283446	133.3746485260771	76	127
133.3746485260771	134.81428571428572	66	127
133.3746485260771	134.81428571428572	69	127
133.3746485260771	133.60684807256237	75	127
133.60684807256237	133.8738775510204	84	127
133.8738775510204	134.10607709750568	83	127
134.10607709750568	134.3266439909297	81	127
134.3266439909297	134.55886621315193	79	127
134.55886621315193	134.83748299319728	78	127
134.83748299319728	135.10453514739228	76	127
135.10453514739228	135.49927437641725	75	127
135.49927437641725	135.77791383219954	72	127
135.77791383219954	136.06814058956917	71	127
136.06814058956917	136.32356009070295	72	127
136.32356009070295	136.55578231292517	69	127
136.55578231292517	137.10145124716553	62	127
136.55578231292517	137.10145124716553	52	127
136.55578231292517	137.10145124716553	59	127
136.55578231292517	137.10145124716553	68	127
136.8924716553288	137.12467120181407	68	127
137.12467120181407	137.38009070294785	71	127
137.38009070294785	137.6122902494331	74	127
137.6122902494331	137.85607709750568	77	127
137.85607709750568	138.0882993197279	76	127
138.0882993197279	138.3321088435374	83	127
138.3321088435374	138.63396825396825	74	127
138.64557823129252	139.17963718820863	45	127
138.64557823129252	139.17963718820863	57	127
138.64557823129252	139.17963718820863	61	127
138.64557823129252	139.17963718820863	67	127
138.95904761904762	139.17963718820863	73	127
139.20285714285714	139.41183673469388	76	127
139.43505668934242	139.64401360544218	67	127
139.66725623582767	140.14326530612246	50	127
139.66725623582767	140.08521541950114	57	127
139.66725623582767	140.08521541950114	66	127
139.66725623582767	140.14326530612246	60	127
139.93428571428572	140.17809523809524	66	127
140.17809523809524	140.41027210884354	69	127
140.41027210884354	140.64249433106576	60	127
140.64249433106576	142.02408163265306	60	127
141.23460317460317	141.67578231292518	53	127
141.23460317460317	141.67578231292518	62	127
141.23460317460317	141.67578231292518	43	127
141.81510204081633	142.17501133786848	43	127
141.81510204081633	142.3259410430839	62	127
141.81510204081633	142.17501133786848	53	127
142.04727891156463	142.3259410430839	59	127
142.3259410430839	142.639410430839	43	127
142.3259410430839	142.77873015873016	59	127
142.3259410430839	142.5581179138322	67	127
142.3259410430839	142.639410430839	50	127
142.5581179138322	142.77873015873016	65	127
142.77873015873016	143.7771882086168	50	127
142.77873015873016	143.7771882086168	43	127
142.77873015873016	143.7771882086168	59	127
142.77873015873016	143.7771882086168	65	127
144.67115646258503	144.8685260770975	48	127
144.89174603174604	145.26326530612246	40	127
144.89174603174604	145.26326530612246	55	127
145.3097052154195	145.77410430839004	36	127
145.3097052154195	145.77410430839004	60	127
145.8205442176871	146.6448299319728	55	127
145.8205442176871	146.83061224489796	60	127
145.8205442176871	146.9118820861678	65	127
145.8205442176871	146.93510204081633	55	127
145.8205442176871	146.93510204081633	62	127
145.8205442176871	147.8871201814059	43	127
146.84222222222223	146.9467120181406	59	127
146.95832199546484	147.0395918367347	64	127
146.95832199546484	147.0395918367347	60	127
146.95832199546484	147.10922902494332	62	127
147.10922902494332	147.21374149659863	60	127
147.21374149659863	147.32984126984127	64	127
147.21374149659863	147.30662131519276	62	127
147.21374149659863	147.30662131519276	59	127
147.32984126984127	147.4459410430839	62	127
147.4459410430839	147.56204081632654	65	127
147.4459410430839	147.538820861678	60	127
147.4459410430839	147.538820861678	57	127
147.56204081632654	147.67814058956915	64	127
147.67814058956915	147.9451700680272	67	127
147.67814058956915	147.78263038548752	59	127
147.67814058956915	147.78263038548752	55	127
147.9451700680272	148.39795918367346	65	127
148.39795918367346	148.9204081632653	64	127
148.9204081632653	149.1525850340136	62	127
149.1525850340136	149.60539682539684	60	127
149.60539682539684	149.83759637188209	59	127
149.87242630385487	150.7895918367347	74	127
150.83603174603175	151.0334240362812	72	127
151.0334240362812	151.1495238095238	71	127
151.1495238095238	151.2772335600907	69	127
151.2772335600907	151.38172335600908	67	127
151.39333333333335	151.5326530612245	65	127
151.5326530612245	151.63714285714286	67	127
151.63714285714286	151.7532426303855	69	127
151.7532426303855	151.88095238095238	67	127
151.88095238095238	151.99705215419502	65	127
151.99705215419502	152.13637188208617	64	127
152.13637188208617	152.2524716553288	62	127
152.2524716553288	152.35696145124717	60	127
152.36857142857144	152.48467120181405	59	127
152.48467120181405	152.6007709750567	60	127
152.6007709750567	152.70526077097506	62	127
152.70526077097506	152.8213605442177	60	127
152.8213605442177	152.93743764172336	59	127
152.93743764172336	153.05356009070294	57	127
153.05356009070294	153.18126984126985	55	127
153.18126984126985	153.28575963718822	53	127
153.29736961451246	153.494716553288	55	127
153.29736961451246	153.494716553288	36	127
153.29736961451246	153.494716553288	58	127
153.29736961451246	153.494716553288	52	127
153.51795918367347	153.93591836734694	52	127
153.51795918367347	153.93591836734694	58	127
153.51795918367347	153.93591836734694	55	127
153.51795918367347	153.7269387755102	48	127
153.75013605442177	153.9591156462585	48	127
153.75013605442177	154.64412698412698	79	127
153.982358276644	154.42353741496598	55	127
153.982358276644	154.19133786848073	48	127
153.982358276644	154.42353741496598	58	127
153.982358276644	154.42353741496598	52	127
154.2145351473923	154.42353741496598	48	127
154.44675736961452	154.89954648526077	58	127
154.44675736961452	154.89954648526077	52	127
154.44675736961452	154.89954648526077	55	127
154.44675736961452	154.66734693877552	48	127
154.69056689342403	154.7950566893424	77	127
154.69056689342403	154.94598639455782	48	127
154.80666666666667	154.9575963718821	76	127
154.98079365079366	155.4219954648526	55	127
154.98079365079366	155.08530612244897	74	127
154.98079365079366	155.2014058956916	48	127
154.98079365079366	155.4219954648526	58	127
154.98079365079366	155.4219954648526	52	127
155.09691609977324	155.21301587301588	72	127
155.22462585034015	155.31750566893425	70	127
155.22462585034015	155.4219954648526	48	127
155.32911564625851	155.43360544217688	72	127
155.44521541950112	155.88639455782314	52	127
155.44521541950112	155.56131519274376	74	127
155.44521541950112	155.6774149659864	48	127
155.44521541950112	155.88639455782314	58	127
155.44521541950112	155.88639455782314	55	127
155.57292517006803	155.68902494331067	72	127
155.7006349206349	155.80512471655328	70	127
155.7006349206349	155.90961451247165	48	127
155.81673469387755	155.92122448979592	69	127
155.9328344671202	156.06054421768707	67	127
155.9328344671202	156.18825396825397	48	127
155.9328344671202	156.42045351473922	58	127
155.9328344671202	156.42045351473922	52	127
155.9328344671202	156.42045351473922	55	127
156.07215419501134	156.19986394557824	65	127
156.21147392290248	156.31596371882085	64	127
156.21147392290248	156.42045351473922	48	127
156.32757369614512	156.4320634920635	65	127
156.44367346938776	156.90807256235829	58	127
156.44367346938776	156.90807256235829	55	127
156.44367346938776	156.54816326530613	67	127
156.44367346938776	156.6642403628118	48	127
156.44367346938776	156.90807256235829	52	127
156.5597732426304	156.675873015873	65	127
156.68748299319728	156.8151927437642	64	127
156.68748299319728	156.95451247165533	48	127
156.82680272108843	156.9661224489796	62	127
156.97773242630385	157.47696145124718	52	127
156.97773242630385	157.47696145124718	55	127
156.97773242630385	157.14027210884353	60	127
156.97773242630385	157.2447619047619	58	127
156.97773242630385	157.2447619047619	48	127
157.1518820861678	157.25637188208617	58	127
157.26798185941044	157.47696145124718	37	127
157.26798185941044	157.47696145124718	57	127
157.26798185941044	157.47696145124718	57	127
157.48857142857142	157.69755102040816	49	127
157.48857142857142	157.9065306122449	52	127
157.48857142857142	157.9065306122449	57	127
157.48857142857142	157.9065306122449	55	127
157.7207709750567	157.92975056689343	49	127
157.7207709750567	158.59151927437642	88	127
157.95297052154194	158.15031746031747	49	127
157.95297052154194	158.3825396825397	57	127
157.95297052154194	158.3825396825397	55	127
157.95297052154194	158.3825396825397	52	127
158.17356009070295	158.3825396825397	49	127
158.40573696145125	158.81208616780046	57	127
158.40573696145125	158.81208616780046	55	127
158.40573696145125	158.81208616780046	52	127
158.40573696145125	158.61473922902493	49	127
158.6263492063492	158.83532879818594	49	127
158.6263492063492	158.73083900226757	86	127
158.74244897959184	158.8469387755102	85	127
158.87015873015872	159.35777777777778	52	127
158.87015873015872	159.0094784580499	83	127
158.87015873015872	159.11396825396827	49	127
158.87015873015872	159.35777777777778	57	127
158.87015873015872	159.35777777777778	55	127
159.02108843537414	159.1255782312925	81	127
159.13718820861678	159.25328798185942	79	127
159.13718820861678	159.35777777777778	49	127
159.26489795918368	159.36938775510205	81	127
159.39260770975056	159.81056689342404	52	127
159.39260770975056	159.49709750566893	82	127
159.39260770975056	159.6015873015873	49	127
159.39260770975056	159.81056689342404	57	127
159.39260770975056	159.81056689342404	55	127
159.5087074829932	159.61319727891157	81	127
159.62480725623584	159.7292970521542	79	127
159.62480725623584	159.8337641723356	49	127
159.74090702947845	159.84539682539682	77	127
159.89183673469387	160.42589569160998	52	127
159.89183673469387	160.01954648526078	76	127
159.89183673469387	160.11242630385487	49	127
159.89183673469387	160.42589569160998	57	127
159.89183673469387	160.42589569160998	55	127
160.03115646258505	160.12403628117914	74	127
160.1356462585034	160.25174603174602	73	127
160.1356462585034	160.42589569160998	49	127
160.2633560090703	160.43750566893425	74	127
160.44909297052155	160.91351473922902	52	127
160.44909297052155	160.56521541950113	76	127
160.44909297052155	160.68131519274377	49	127
160.44909297052155	160.91351473922902	57	127
160.44909297052155	160.91351473922902	55	127
160.5768253968254	160.69292517006804	74	127
160.70451247165533	160.83224489795919	73	127
160.70451247165533	160.93673469387755	49	127
160.84385487528345	160.94834467120182	70	127
160.95993197278912	161.22698412698412	49	127
160.95993197278912	161.09927437641724	69	127
160.95993197278912	161.22698412698412	57	127
160.95993197278912	161.22698412698412	55	127
160.95993197278912	161.22698412698412	52	127
161.11086167800454	161.2385941043084	67	127
161.25020408163266	161.4591836734694	38	127
161.25020408163266	161.4591836734694	57	127
161.25020408163266	161.4591836734694	66	127
161.25020408163266	161.4591836734694	54	127
161.4824036281179	161.8887528344671	60	127
161.4824036281179	161.8887528344671	57	127
161.4824036281179	161.8887528344671	50	127
161.4824036281179	161.67977324263038	50	127
161.4824036281179	161.8887528344671	66	127
161.70299319727891	162.6201814058957	81	127
161.70299319727891	161.91197278911565	50	127
161.93519274376416	162.41120181405896	50	127
161.93519274376416	162.1790022675737	50	127
161.93519274376416	162.41120181405896	66	127
161.93519274376416	162.41120181405896	57	127
161.93519274376416	162.41120181405896	60	127
162.20222222222222	162.41120181405896	50	127
162.4344217687075	162.8639909297052	50	127
162.4344217687075	162.8639909297052	66	127
162.4344217687075	162.8639909297052	57	127
162.4344217687075	162.8639909297052	60	127
162.4344217687075	162.64340136054423	50	127
162.66662131519274	162.88721088435375	50	127
162.66662131519274	162.7711111111111	79	127
162.78272108843538	162.89882086167802	78	127
162.91043083900226	163.39804988662132	50	127
162.91043083900226	163.0265306122449	76	127
162.91043083900226	163.1542403628118	50	127
162.91043083900226	163.39804988662132	57	127
162.91043083900226	163.39804988662132	66	127
162.91043083900226	163.39804988662132	60	127
163.03814058956917	163.16585034013605	74	127
163.17746031746032	163.39804988662132	50	127
163.17746031746032	163.29356009070295	72	127
163.30517006802722	163.4096598639456	74	127
163.42126984126983	163.8392290249433	60	127
163.42126984126983	163.514126984127	76	127
163.42126984126983	163.61861678004536	50	127
163.42126984126983	163.8392290249433	66	127
163.42126984126983	163.8392290249433	57	127
163.42126984126983	163.8392290249433	50	127
163.5257596371882	163.63024943310657	74	127
163.64185941043084	163.86244897959185	50	127
163.64185941043084	163.75795918367348	72	127
163.76954648526078	163.87403628117914	71	127
163.88566893424036	163.99015873015873	69	127
163.88566893424036	164.32684807256237	50	127
163.88566893424036	164.0946485260771	50	127
163.88566893424036	164.32684807256237	60	127
163.88566893424036	164.32684807256237	57	127
163.88566893424036	164.32684807256237	66	127
164.001768707483	164.10625850340136	67	127
164.11786848072563	164.32684807256237	50	127
164.11786848072563	164.222358276644	66	127
164.2339455782313	164.3384580498866	67	127
164.35006802721088	164.45455782312925	69	127
164.35006802721088	164.55904761904762	50	127
164.35006802721088	164.77963718820862	57	127
164.35006802721088	164.77963718820862	66	127
164.35006802721088	164.77963718820862	60	127
164.35006802721088	164.77963718820862	50	127
164.46616780045352	164.5706575963719	67	127
164.5938775510204	164.80285714285714	50	127
164.5938775510204	164.69836734693877	66	127
164.70997732426304	164.8144671201814	64	127
164.82607709750567	165.02344671201814	50	127
164.82607709750567	165.02344671201814	50	127
164.82607709750567	164.91895691609977	62	127
164.82607709750567	165.02344671201814	66	127
164.82607709750567	165.02344671201814	57	127
164.82607709750567	165.02344671201814	60	127
164.93056689342404	165.0698866213152	60	127
165.08149659863946	165.3136961451247	39	127
165.08149659863946	165.3136961451247	57	127
165.08149659863946	165.3136961451247	59	127
165.08149659863946	165.3136961451247	59	127
165.08149659863946	165.3136961451247	66	127
165.33691609977325	165.75487528344672	54	127
165.33691609977325	165.75487528344672	59	127
165.33691609977325	165.75487528344672	57	127
165.33691609977325	165.54589569160999	51	127
165.5691156462585	166.31215419501135	78	127
165.5691156462585	165.77809523809523	51	127
165.80131519274377	166.24249433106576	57	127
165.80131519274377	166.0102947845805	51	127
165.80131519274377	166.24249433106576	59	127
165.80131519274377	166.24249433106576	54	127
166.03351473922902	166.24249433106576	51	127
166.2657142857143	166.71850340136055	59	127
166.2657142857143	166.71850340136055	54	127
166.2657142857143	166.48630385487527	51	127
166.2657142857143	166.71850340136055	57	127
166.5095238095238	166.62562358276645	76	127
166.5095238095238	166.74172335600906	51	127
166.64884353741496	166.74172335600906	75	127
166.7649433106576	167.22934240362812	57	127
166.7649433106576	166.86943310657597	73	127
166.7649433106576	166.9855328798186	51	127
166.7649433106576	167.22934240362812	59	127
166.7649433106576	167.22934240362812	54	127
166.89263038548754	166.9855328798186	71	127
167.00875283446712	167.12485260770976	69	127
167.00875283446712	167.22934240362812	51	127
167.13646258503402	167.2409523809524	71	127
167.25256235827663	167.6588888888889	54	127
167.25256235827663	167.46154195011337	51	127
167.25256235827663	167.6588888888889	59	127
167.25256235827663	167.6588888888889	57	127
167.25256235827663	167.357052154195	72	127
167.36866213151927	167.47315192743764	71	127
167.4847619047619	167.68213151927438	51	127
167.4847619047619	167.577641723356	69	127
167.58925170068028	167.69374149659865	67	127
167.70532879818595	168.15814058956917	59	127
167.70532879818595	168.15814058956917	54	127
167.70532879818595	167.8098185941043	66	127
167.70532879818595	167.91430839002268	51	127
167.70532879818595	168.15814058956917	57	127
167.82145124716553	167.93755102040816	64	127
167.94916099773243	168.0536507936508	63	127
167.94916099773243	168.15814058956917	51	127
168.0652380952381	168.16972789115647	64	127
168.18136054421768	168.61092970521543	54	127
168.18136054421768	168.3090702947846	66	127
168.18136054421768	168.42514739229026	51	127
168.18136054421768	168.61092970521543	59	127
168.18136054421768	168.61092970521543	57	127
168.3206575963719	168.43678004535147	64	127
168.44839002267574	168.54126984126984	63	127
168.44839002267574	168.63414965986394	51	127
168.5528798185941	168.6457596371882	60	127
168.65736961451248	168.8663492063492	51	127
168.65736961451248	169.13337868480727	59	127
168.65736961451248	168.76185941043084	59	127
168.65736961451248	168.8663492063492	57	127
168.65736961451248	168.8663492063492	54	127
168.7734693877551	168.87795918367348	57	127
168.88956916099772	169.13337868480727	55	127
168.88956916099772	169.13337868480727	55	127
168.88956916099772	169.13337868480727	52	127
168.88956916099772	169.35396825396825	52	127
169.15659863945578	169.57455782312925	64	127
169.15659863945578	169.27269841269842	67	127
169.15659863945578	169.57455782312925	71	127
169.27269841269842	169.3771882086168	69	127
169.3771882086168	169.6209977324263	67	127
169.6209977324263	169.7138775510204	67	127
169.6209977324263	169.82997732426304	64	127
169.6209977324263	169.82997732426304	71	127
169.8531746031746	170.3756462585034	48	127
170.13183673469388	170.5962358276644	67	127
170.13183673469388	170.25954648526078	70	127
170.13183673469388	170.5962358276644	76	127
170.25954648526078	170.4104761904762	71	127
170.4104761904762	170.64267573696145	70	127
170.64267573696145	170.8516553287982	76	127
170.64267573696145	170.8516553287982	64	127
170.64267573696145	170.73555555555555	70	127
170.87485260770976	171.3508843537415	47	127
171.10707482993197	171.55986394557823	66	127
171.10707482993197	171.55986394557823	75	127
171.10707482993197	171.24639455782312	71	127
171.24639455782312	171.37410430839003	72	127
171.37410430839003	171.60630385487528	71	127
171.60630385487528	171.81528344671202	75	127
171.60630385487528	171.81528344671202	66	127
171.60630385487528	171.69918367346938	71	127
171.85009070294785	172.39578231292518	51	127
172.10551020408164	172.6163492063492	81	127
172.10551020408164	172.24485260770976	71	127
172.10551020408164	172.6163492063492	66	127
172.24485260770976	172.43061224489796	72	127
172.43061224489796	172.66281179138323	71	127
172.66281179138323	172.871768707483	81	127
172.66281179138323	172.871768707483	66	127
172.66281179138323	172.75569160997733	71	127
172.89501133786848	173.05755102040817	64	127
172.89501133786848	173.37102040816328	80	127
172.89501133786848	173.05755102040817	71	127
172.89501133786848	173.05755102040817	52	127
173.138820861678	173.31297052154196	64	127
173.138820861678	173.31297052154196	71	127
173.138820861678	173.31297052154196	52	127
173.37102040816328	173.533537414966	64	127
173.37102040816328	173.7657596371882	79	127
173.37102040816328	173.533537414966	71	127
173.37102040816328	173.533537414966	52	127
173.60321995464852	173.7077097505669	64	127
173.60321995464852	173.7077097505669	71	127
173.60321995464852	173.7077097505669	52	127
173.7657596371882	173.9515192743764	72	127
173.7657596371882	173.97473922902495	79	127
173.7657596371882	173.90507936507936	57	127
173.7657596371882	173.9515192743764	60	127
173.97473922902495	174.17210884353742	77	127
173.97473922902495	174.1140589569161	57	127
173.97473922902495	174.17210884353742	72	127
173.97473922902495	174.17210884353742	69	127
174.17210884353742	174.40428571428572	67	127
174.17210884353742	174.5204081632653	76	127
174.17210884353742	174.3346485260771	59	127
174.17210884353742	174.40428571428572	71	127
174.40428571428572	174.63650793650794	69	127
174.40428571428572	174.63650793650794	66	127
174.40428571428572	174.56684807256235	59	127
174.5204081632653	174.63650793650794	75	127
174.63650793650794	174.79904761904763	64	127
174.63650793650794	175.10090702947846	76	127
174.63650793650794	174.79904761904763	67	127
174.63650793650794	174.79904761904763	60	127
174.8687074829932	175.03124716553287	64	127
174.8687074829932	175.03124716553287	67	127
174.8687074829932	175.03124716553287	60	127
175.10090702947846	175.25183673469388	64	127
175.10090702947846	175.57689342403629	72	127
175.10090702947846	175.25183673469388	69	127
175.10090702947846	175.25183673469388	57	127
175.3214739229025	175.4956462585034	64	127
175.3214739229025	175.4956462585034	69	127
175.3214739229025	175.4956462585034	57	127
175.57689342403629	175.73945578231292	59	127
175.57689342403629	175.73945578231292	64	127
175.57689342403629	176.0412925170068	71	127
175.57689342403629	175.73945578231292	67	127
175.8091156462585	175.9716553287982	64	127
175.8091156462585	175.9716553287982	67	127
175.8091156462585	175.9716553287982	59	127
176.0412925170068	176.20385487528344	63	127
176.0412925170068	176.50571428571428	81	127
176.0412925170068	176.20385487528344	66	127
176.0412925170068	176.20385487528344	47	127
176.27351473922903	176.43605442176872	63	127
176.27351473922903	176.43605442176872	66	127
176.27351473922903	176.43605442176872	47	127
176.50571428571428	176.66825396825396	64	127
176.50571428571428	176.98172335600907	80	127
176.50571428571428	176.66825396825396	64	127
176.50571428571428	176.66825396825396	52	127
176.73791383219955	176.91204081632654	64	127
176.73791383219955	176.91204081632654	71	127
176.73791383219955	176.91204081632654	52	127
176.98172335600907	177.1326530612245	64	127
176.98172335600907	177.4228798185941	79	127
176.98172335600907	177.1326530612245	71	127
176.98172335600907	177.1326530612245	52	127
177.20231292517008	177.36485260770976	64	127
177.20231292517008	177.36485260770976	71	127
177.20231292517008	177.36485260770976	52	127
177.4228798185941	177.597052154195	79	127
177.4228798185941	177.597052154195	60	127
177.4228798185941	177.55061224489796	57	127
177.4228798185941	177.597052154195	72	127
177.62027210884355	177.82922902494332	57	127
177.62027210884355	177.87569160997734	77	127
177.62027210884355	177.89891156462585	72	127
177.62027210884355	177.89891156462585	69	127
177.89891156462585	178.13111111111112	67	127
177.89891156462585	178.21238095238095	76	127
177.89891156462585	178.06145124716554	59	127
177.89891156462585	178.13111111111112	71	127
178.13111111111112	178.36331065759637	69	127
178.13111111111112	178.36331065759637	66	127
178.13111111111112	178.29365079365078	59	127
178.24721088435373	178.3517006802721	75	127
178.36331065759637	178.53746031746033	64	127
178.36331065759637	178.83931972789117	76	127
178.36331065759637	178.53746031746033	67	127
178.36331065759637	178.53746031746033	60	127
178.6071201814059	178.76965986394558	64	127
178.6071201814059	178.76965986394558	67	127
178.6071201814059	178.76965986394558	60	127
178.83931972789117	179.35015873015874	72	127
178.83931972789117	179.0134693877551	69	127
178.83931972789117	179.0134693877551	64	127
178.83931972789117	179.0134693877551	57	127
179.09473922902495	179.26888888888888	57	127
179.09473922902495	179.26888888888888	69	127
179.09473922902495	179.26888888888888	64	127
179.35015873015874	179.51269841269843	67	127
179.35015873015874	179.51269841269843	59	127
179.35015873015874	179.81455782312926	71	127
179.35015873015874	179.51269841269843	64	127
179.582358276644	179.74489795918367	64	127
179.582358276644	179.74489795918367	67	127
179.582358276644	179.74489795918367	59	127
179.81455782312926	179.97707482993198	57	127
179.81455782312926	180.29056689342403	63	127
179.81455782312926	179.97707482993198	66	127
179.81455782312926	179.97707482993198	47	127
180.0467573696145	180.2092970521542	57	127
180.0467573696145	180.2092970521542	66	127
180.0467573696145	180.2092970521542	47	127
180.29056689342403	180.51115646258503	52	127
180.29056689342403	180.51115646258503	64	127
180.29056689342403	180.51115646258503	55	127
180.75496598639455	180.8362358276644	47	127
180.75496598639455	180.85945578231292	66	127
180.75496598639455	180.8362358276644	57	127
180.85945578231292	180.97555555555556	69	127
180.97555555555556	181.06843537414966	47	127
180.97555555555556	181.0916553287982	67	127
180.97555555555556	181.06843537414966	57	127
181.0916553287982	181.21936507936508	66	127
181.21936507936508	181.31224489795918	55	127
181.21936507936508	181.4631746031746	64	127
181.21936507936508	181.31224489795918	52	127
181.74181405895692	181.83469387755102	59	127
181.74181405895692	181.83469387755102	75	127
181.74181405895692	181.85791383219956	66	127
181.85791383219956	181.97401360544217	69	127
181.97401360544217	182.11333333333334	67	127
181.97401360544217	182.0901133786848	75	127
181.97401360544217	182.0901133786848	59	127
182.11333333333334	182.22943310657595	66	127
182.22943310657595	182.33392290249432	76	127
182.22943310657595	182.46163265306123	64	127
182.22943310657595	182.33392290249432	64	127
182.70544217687075	182.79832199546485	59	127
182.70544217687075	182.80993197278912	78	127
182.70544217687075	182.79832199546485	69	127
182.70544217687075	182.79832199546485	63	127
182.80993197278912	182.93764172335602	81	127
182.93764172335602	183.03052154195012	59	127
182.93764172335602	183.0653514739229	79	127
182.93764172335602	183.03052154195012	69	127
182.93764172335602	183.03052154195012	63	127
183.0653514739229	183.18145124716554	78	127
183.18145124716554	183.27433106575964	64	127
183.18145124716554	183.40201814058958	76	127
183.18145124716554	183.27433106575964	67	127
183.18145124716554	183.27433106575964	60	127
184.1102494331066	184.56303854875284	66	127
184.1102494331066	184.56303854875284	64	127
184.1102494331066	184.56303854875284	45	127
184.1102494331066	184.56303854875284	60	127
184.56303854875284	184.6791156462585	45	127
184.56303854875284	184.6791156462585	66	127
184.56303854875284	184.6791156462585	64	127
184.56303854875284	184.6791156462585	60	127
184.6791156462585	185.03902494331066	61	127
184.6791156462585	185.03902494331066	46	127
184.6791156462585	185.03902494331066	66	127
184.6791156462585	185.03902494331066	64	127
185.03902494331066	185.15514739229025	64	127
185.03902494331066	185.15514739229025	46	127
185.03902494331066	185.15514739229025	66	127
185.03902494331066	185.15514739229025	61	127
185.15514739229025	185.48022675736962	64	127
185.15514739229025	185.48022675736962	47	127
185.15514739229025	185.48022675736962	67	127
185.15514739229025	185.48022675736962	59	127
185.48022675736962	185.5963038548753	64	127
185.48022675736962	185.5963038548753	47	127
185.48022675736962	185.5963038548753	67	127
185.48022675736962	185.5963038548753	59	127
185.5963038548753	185.94462585034015	64	127
185.5963038548753	185.94462585034015	48	127
185.5963038548753	185.94462585034015	69	127
185.5963038548753	185.94462585034015	57	127
185.94462585034015	186.0607029478458	64	127
185.94462585034015	186.0607029478458	48	127
185.94462585034015	186.0607029478458	69	127
185.94462585034015	186.0607029478458	57	127
186.0607029478458	186.28131519274376	47	127
186.0607029478458	186.28131519274376	67	127
186.0607029478458	186.28131519274376	64	127
186.0607029478458	186.28131519274376	59	127
186.5599546485261	186.8037641723356	47	127
186.5599546485261	186.8037641723356	57	127
186.5599546485261	186.62961451247165	67	127
186.5599546485261	186.64122448979592	64	127
186.64122448979592	186.7108843537415	63	127
186.64122448979592	186.68766439909297	66	127
186.7108843537415	186.75732426303856	67	127
186.7108843537415	186.75732426303856	64	127
186.75732426303856	186.81537414965987	66	127
186.75732426303856	186.81537414965987	63	127
186.81537414965987	186.8734240362812	64	127
186.81537414965987	186.8734240362812	67	127
186.8734240362812	186.93145124716554	66	127
186.8734240362812	186.93145124716554	63	127
186.93145124716554	186.9895238095238	60	127
186.93145124716554	186.9895238095238	64	127
186.9895238095238	187.04757369614512	66	127
186.9895238095238	187.04757369614512	63	127
187.04757369614512	187.48873015873016	55	127
187.04757369614512	187.51197278911565	64	127
187.04757369614512	187.48873015873016	64	127
187.04757369614512	187.48873015873016	40	127
188.33628117913833	190.17065759637188	50	127
188.33628117913833	190.24031746031747	43	127
188.33628117913833	189.6598185941043	65	127
188.33628117913833	190.65827664399092	59	127
189.68303854875285	189.822358276644	67	127
189.822358276644	189.95006802721088	69	127
189.95006802721088	190.07777777777778	67	127
190.07777777777778	190.19387755102042	65	127
190.19387755102042	190.3215873015873	52	127
190.19387755102042	190.3215873015873	64	127
190.3215873015873	190.4144671201814	62	127
190.3215873015873	190.4144671201814	53	127
190.42607709750567	190.65827664399092	53	127
190.42607709750567	190.65827664399092	62	127
190.42607709750567	190.86725623582765	48	127
190.65827664399092	190.9136961451247	60	127
190.65827664399092	190.9136961451247	60	127
190.65827664399092	190.9136961451247	52	127
190.93691609977324	191.67995464852606	72	127
191.44775510204082	192.37655328798186	50	127
191.44775510204082	192.75968253968253	66	127
191.44775510204082	192.16757369614513	57	127
191.72639455782314	191.84249433106575	74	127
191.84249433106575	191.9585941043084	76	127
191.9585941043084	192.07469387755103	74	127
192.07469387755103	192.19079365079364	72	127
192.19079365079364	192.35333333333332	59	127
192.19079365079364	192.35333333333332	71	127
192.35333333333332	192.48104308390023	69	127
192.35333333333332	192.46943310657596	60	127
192.48104308390023	192.75968253968253	60	127
192.48104308390023	192.96866213151927	55	127
192.48104308390023	192.75968253968253	69	127
192.75968253968253	192.9918820861678	67	127
192.75968253968253	192.9918820861678	59	127
192.75968253968253	192.9918820861678	67	127
193.01510204081632	193.70009070294785	79	127
193.4678911564626	194.38507936507938	57	127
193.4678911564626	194.19931972789115	64	127
193.4678911564626	194.38507936507938	73	127
193.7233106575964	193.85102040816327	81	127
193.85102040816327	193.9903401360544	83	127
193.9903401360544	194.10643990929705	81	127
194.10643990929705	194.23414965986396	79	127
194.23414965986396	194.36185941043084	78	127
194.23414965986396	194.36185941043084	66	127
194.36185941043084	194.4663492063492	67	127
194.36185941043084	194.47795918367348	76	127
194.47795918367348	194.64049886621316	66	127
194.47795918367348	194.9655782312925	74	127
194.47795918367348	194.64049886621316	74	127
194.47795918367348	194.64049886621316	59	127
194.71015873015872	194.8726984126984	66	127
194.71015873015872	194.8726984126984	74	127
194.71015873015872	194.8726984126984	59	127
194.9655782312925	195.41836734693877	75	127
194.9655782312925	195.1281179138322	72	127
194.9655782312925	195.1281179138322	66	127
194.9655782312925	195.1281179138322	57	127
195.1977777777778	195.3487074829932	57	127
195.1977777777778	195.3487074829932	66	127
195.1977777777778	195.3487074829932	72	127
195.41836734693877	195.59251700680272	55	127
195.41836734693877	195.59251700680272	67	127
195.41836734693877	195.90598639455783	76	127
195.41836734693877	195.59251700680272	71	127
195.6621768707483	195.82471655328797	67	127
195.6621768707483	195.82471655328797	71	127
195.6621768707483	195.82471655328797	55	127
195.90598639455783	196.06852607709752	63	127
195.90598639455783	196.3819954648526	78	127
195.90598639455783	196.06852607709752	69	127
195.90598639455783	196.06852607709752	54	127
196.13818594104308	196.31233560090703	63	127
196.13818594104308	196.31233560090703	69	127
196.13818594104308	196.31233560090703	54	127
196.3819954648526	196.54453514739228	64	127
196.3819954648526	196.61419501133787	81	127
196.3819954648526	196.54453514739228	67	127
196.3819954648526	196.54453514739228	52	127
196.61419501133787	196.78834467120183	64	127
196.61419501133787	196.8580045351474	79	127
196.61419501133787	196.78834467120183	67	127
196.61419501133787	196.78834467120183	52	127
196.8580045351474	197.02054421768707	55	127
196.8580045351474	197.02054421768707	71	127
196.8580045351474	197.02054421768707	59	127
196.8580045351474	197.19469387755103	78	127
197.09020408163266	197.24113378684808	55	127
197.09020408163266	197.24113378684808	71	127
197.09020408163266	197.24113378684808	67	127
197.19469387755103	197.31079365079364	76	127
197.31079365079364	197.49655328798187	66	127
197.31079365079364	197.81002267573697	74	127
197.31079365079364	197.49655328798187	69	127
197.31079365079364	197.49655328798187	57	127
197.56621315192743	197.74036281179139	66	127
197.56621315192743	197.74036281179139	69	127
197.56621315192743	197.74036281179139	57	127
197.81002267573697	197.97256235827663	64	127
197.81002267573697	198.27442176870747	73	127
197.81002267573697	197.97256235827663	67	127
197.81002267573697	197.97256235827663	58	127
198.04222222222222	198.2047619047619	64	127
198.04222222222222	198.2047619047619	67	127
198.04222222222222	198.2047619047619	58	127
198.27442176870747	198.75043083900226	74	127
198.27442176870747	198.44857142857143	66	127
198.27442176870747	198.44857142857143	62	127
198.27442176870747	198.44857142857143	59	127
198.51823129251702	198.6807709750567	59	127
198.51823129251702	198.6807709750567	66	127
198.51823129251702	198.6807709750567	62	127
198.75043083900226	198.9361904761905	60	127
198.75043083900226	198.9361904761905	66	127
198.75043083900226	198.9361904761905	57	127
198.75043083900226	199.22643990929706	75	127
199.00585034013605	199.15678004535147	60	127
199.00585034013605	199.15678004535147	66	127
199.00585034013605	199.15678004535147	57	127
199.22643990929706	199.40058956916099	59	127
199.22643990929706	199.70244897959185	76	127
199.22643990929706	199.40058956916099	64	127
199.22643990929706	199.40058956916099	55	127
199.47024943310657	199.63278911564626	59	127
199.47024943310657	199.63278911564626	64	127
199.47024943310657	199.63278911564626	55	127
199.70244897959185	199.8649886621315	57	127
199.70244897959185	200.16684807256235	78	127
199.70244897959185	199.8649886621315	63	127
199.70244897959185	199.8649886621315	54	127
199.9346485260771	200.09718820861679	57	127
199.9346485260771	200.09718820861679	63	127
199.9346485260771	200.09718820861679	54	127
200.16684807256235	200.32938775510203	55	127
200.16684807256235	200.39904761904762	79	127
200.16684807256235	200.32938775510203	64	127
200.16684807256235	200.32938775510203	52	127
200.39904761904762	200.5615873015873	55	127
200.39904761904762	200.5615873015873	52	127
200.39904761904762	200.51514739229026	81	127
200.39904761904762	200.5615873015873	64	127
200.51514739229026	200.63124716553287	83	127
200.63124716553287	200.75895691609978	81	127
200.63124716553287	200.80539682539683	64	127
200.63124716553287	200.80539682539683	59	127
200.63124716553287	200.80539682539683	55	127
200.75895691609978	200.87505668934241	79	127
200.87505668934241	201.03759637188207	55	127
200.87505668934241	201.0027664399093	78	127
200.87505668934241	201.03759637188207	67	127
200.87505668934241	201.03759637188207	59	127
201.0027664399093	201.10725623582766	76	127
201.10725623582766	201.26979591836735	57	127
201.10725623582766	201.61809523809524	74	127
201.10725623582766	201.26979591836735	66	127
201.10725623582766	201.26979591836735	57	127
201.33945578231294	201.54843537414965	57	127
201.33945578231294	201.54843537414965	66	127
201.33945578231294	201.54843537414965	57	127
201.61809523809524	202.1057142857143	73	127
201.61809523809524	201.7922448979592	64	127
201.61809523809524	201.7922448979592	55	127
201.61809523809524	201.7922448979592	45	127
201.86190476190475	202.0360544217687	45	127
201.86190476190475	202.0360544217687	64	127
201.86190476190475	202.0360544217687	55	127
202.1057142857143	202.32630385487528	74	127
202.1057142857143	202.32630385487528	62	127
202.1057142857143	202.32630385487528	50	127
202.1057142857143	202.32630385487528	54	127
202.59333333333333	202.6978231292517	55	127
202.59333333333333	202.6978231292517	61	127
202.59333333333333	202.6978231292517	45	127
202.59333333333333	202.7210430839002	64	127
202.7210430839002	202.84875283446712	67	127
202.84875283446712	202.99968253968254	66	127
202.84875283446712	202.976462585034	61	127
202.84875283446712	202.976462585034	55	127
202.84875283446712	202.976462585034	45	127
202.99968253968254	203.1041723356009	64	127
203.1041723356009	203.197052154195	54	127
203.1041723356009	203.38281179138323	62	127
203.1041723356009	203.197052154195	62	127
203.1041723356009	203.197052154195	50	127
203.62662131519275	203.71950113378685	57	127
203.62662131519275	203.7427210884354	64	127
203.62662131519275	203.71950113378685	73	127
203.62662131519275	203.71950113378685	67	127
203.7427210884354	203.858820861678	67	127
203.858820861678	203.9517006802721	57	127
203.858820861678	203.97492063492064	66	127
203.858820861678	203.9517006802721	73	127
203.858820861678	203.9517006802721	67	127
203.97492063492064	204.09102040816327	64	127
204.09102040816327	204.18390022675737	66	127
204.09102040816327	204.31160997732425	62	127
204.09102040816327	204.18390022675737	74	127
204.09102040816327	204.18390022675737	62	127
204.5554195011338	204.6482993197279	67	127
204.5554195011338	204.6482993197279	85	127
204.5554195011338	204.6482993197279	57	127
204.5554195011338	204.6715192743764	76	127
204.6715192743764	204.79922902494332	79	127
204.79922902494332	204.91532879818595	78	127
204.79922902494332	204.89210884353741	85	127
204.79922902494332	204.89210884353741	67	127
204.79922902494332	204.89210884353741	57	127
204.91532879818595	205.08947845804988	76	127
205.08947845804988	205.18235827664398	66	127
205.08947845804988	205.32167800453516	74	127
205.08947845804988	205.18235827664398	86	127
205.08947845804988	205.18235827664398	59	127
206.1459863945578	206.56394557823128	62	127
206.1459863945578	206.56394557823128	43	127
206.1459863945578	206.56394557823128	64	127
206.1459863945578	206.56394557823128	59	127
206.56394557823128	206.68004535147392	62	127
206.56394557823128	206.68004535147392	43	127
206.56394557823128	206.68004535147392	64	127
206.56394557823128	206.68004535147392	59	127
206.68004535147392	207.05156462585035	44	127
206.68004535147392	207.05156462585035	64	127
206.68004535147392	207.05156462585035	62	127
206.68004535147392	207.05156462585035	59	127
207.05156462585035	207.15605442176872	64	127
207.05156462585035	207.15605442176872	62	127
207.05156462585035	207.15605442176872	59	127
207.05156462585035	207.15605442176872	44	127
207.15605442176872	207.5275736961451	57	127
207.15605442176872	207.5275736961451	66	127
207.15605442176872	207.5275736961451	62	127
207.15605442176872	207.5275736961451	45	127
207.5275736961451	207.65528344671202	57	127
207.5275736961451	207.65528344671202	45	127
207.5275736961451	207.65528344671202	66	127
207.5275736961451	207.65528344671202	62	127
207.65528344671202	208.01519274376417	62	127
207.65528344671202	208.01519274376417	47	127
207.65528344671202	208.01519274376417	67	127
207.65528344671202	208.01519274376417	55	127
208.01519274376417	208.1661224489796	62	127
208.01519274376417	208.1661224489796	47	127
208.01519274376417	208.1661224489796	67	127
208.01519274376417	208.1661224489796	55	127
208.1661224489796	208.3867120181406	62	127
208.1661224489796	208.3867120181406	45	127
208.1661224489796	208.3867120181406	66	127
208.1661224489796	208.3867120181406	57	127
208.63052154195012	208.93238095238095	55	127
208.63052154195012	208.93238095238095	45	127
208.63052154195012	208.78145124716553	66	127
208.63052154195012	208.78145124716553	62	127
208.78145124716553	208.83950113378685	64	127
208.78145124716553	208.83950113378685	61	127
208.83950113378685	208.89755102040817	66	127
208.83950113378685	208.89755102040817	62	127
208.89755102040817	208.9556009070295	64	127
208.89755102040817	208.9556009070295	61	127
208.9556009070295	209.01365079365078	66	127
208.9556009070295	209.01365079365078	62	127
209.01365079365078	209.0717006802721	64	127
209.01365079365078	209.0717006802721	61	127
209.0717006802721	209.12975056689342	59	127
209.0717006802721	209.12975056689342	62	127
209.12975056689342	209.17619047619047	64	127
209.12975056689342	209.17619047619047	61	127
209.17619047619047	209.66380952380953	38	127
209.17619047619047	209.66380952380953	62	127
209.17619047619047	209.66380952380953	54	127
210.3604081632653	210.59260770975058	66	127
210.3604081632653	210.59260770975058	69	127
210.87124716553288	210.9525170068027	69	127
210.87124716553288	210.9525170068027	66	127
210.9525170068027	211.0221768707483	64	127
210.9525170068027	211.0221768707483	67	127
211.0221768707483	211.08022675736962	69	127
211.0221768707483	211.08022675736962	66	127
211.08022675736962	211.13827664399093	64	127
211.08022675736962	211.13827664399093	67	127
211.13827664399093	211.19632653061225	69	127
211.13827664399093	211.19632653061225	66	127
211.19632653061225	211.25437641723357	64	127
211.19632653061225	211.25437641723357	67	127
211.25437641723357	211.31242630385486	62	127
211.25437641723357	211.31242630385486	66	127
211.31242630385486	211.37047619047618	67	127
211.31242630385486	211.37047619047618	64	127
211.37047619047618	211.82326530612244	62	127
211.37047619047618	211.57945578231292	54	127
211.37047619047618	211.82326530612244	66	127
211.37047619047618	211.57945578231292	57	127
211.82326530612244	211.89292517006803	54	127
211.82326530612244	211.89292517006803	57	127
211.89292517006803	211.95097505668934	52	127
211.89292517006803	211.95097505668934	55	127
211.95097505668934	212.02063492063493	57	127
211.95097505668934	212.02063492063493	54	127
212.02063492063493	212.10190476190476	52	127
212.02063492063493	212.10190476190476	55	127
212.10190476190476	212.19478458049886	57	127
212.10190476190476	212.19478458049886	54	127
212.19478458049886	212.26444444444445	52	127
212.19478458049886	212.26444444444445	55	127
212.26444444444445	212.35732426303855	54	127
212.26444444444445	212.35732426303855	50	127
212.41537414965987	212.86816326530612	50	127
212.41537414965987	212.65918367346939	69	127
212.41537414965987	212.86816326530612	54	127
212.41537414965987	212.65918367346939	72	127
212.9029931972789	212.96104308390022	69	127
212.9029931972789	212.96104308390022	72	127
212.96104308390022	213.01909297052154	71	127
212.96104308390022	213.01909297052154	67	127
213.01909297052154	213.08875283446713	72	127
213.01909297052154	213.08875283446713	69	127
213.08875283446713	213.14680272108845	71	127
213.08875283446713	213.14680272108845	67	127
213.14680272108845	213.216462585034	69	127
213.14680272108845	213.216462585034	72	127
213.216462585034	213.27451247165533	71	127
213.216462585034	213.27451247165533	67	127
213.27451247165533	213.34417233560092	66	127
213.27451247165533	213.34417233560092	69	127
213.34417233560092	213.40222222222224	71	127
213.34417233560092	213.40222222222224	67	127
213.40222222222224	213.66925170068026	57	127
213.40222222222224	213.92467120181405	66	127
213.40222222222224	213.66925170068026	60	127
213.40222222222224	213.92467120181405	69	127
213.92467120181405	213.99433106575964	57	127
213.92467120181405	213.99433106575964	60	127
213.99433106575964	214.05238095238096	59	127
213.99433106575964	214.05238095238096	55	127
214.05238095238096	214.1336507936508	57	127
214.05238095238096	214.1336507936508	60	127
214.1336507936508	214.1917006802721	59	127
214.1336507936508	214.1917006802721	55	127
214.1917006802721	214.24975056689343	57	127
214.1917006802721	214.24975056689343	60	127
214.24975056689343	214.319410430839	59	127
214.24975056689343	214.319410430839	55	127
214.319410430839	214.38907029478457	57	127
214.319410430839	214.38907029478457	54	127
214.4471201814059	214.67931972789117	76	127
214.4471201814059	214.67931972789117	72	127
214.4471201814059	214.67931972789117	57	127
214.4471201814059	214.67931972789117	54	127
214.9231292517007	214.99278911564625	76	127
214.9231292517007	214.99278911564625	72	127
214.99278911564625	215.05083900226757	71	127
214.99278911564625	215.05083900226757	74	127
215.05083900226757	215.09727891156462	76	127
215.05083900226757	215.09727891156462	72	127
215.09727891156462	215.15532879818593	71	127
215.09727891156462	215.15532879818593	74	127
215.15532879818593	215.21337868480725	76	127
215.15532879818593	215.21337868480725	72	127
215.21337868480725	215.28303854875284	71	127
215.21337868480725	215.28303854875284	74	127
215.28303854875284	215.34108843537416	72	127
215.28303854875284	215.34108843537416	69	127
215.34108843537416	215.41074829931972	71	127
215.34108843537416	215.41074829931972	74	127
215.41074829931972	215.85192743764173	72	127
215.41074829931972	215.85192743764173	69	127
215.85192743764173	216.26988662131518	81	127
215.85192743764173	216.26988662131518	62	127
215.85192743764173	216.26988662131518	72	127
216.31632653061226	217.3960544217687	72	127
216.31632653061226	216.43242630385487	62	127
216.31632653061226	217.3960544217687	69	127
216.31632653061226	217.51215419501133	79	127
216.43242630385487	216.59496598639456	61	127
216.59496598639456	216.7110657596372	62	127
216.7110657596372	216.82716553287983	61	127
216.82716553287983	216.94326530612244	62	127
216.94326530612244	217.05936507936508	61	127
217.05936507936508	217.17546485260772	62	127
217.17546485260772	217.29156462585033	61	127
217.29156462585033	218.336462585034	62	127
217.3960544217687	217.51215419501133	71	127
217.3960544217687	217.51215419501133	68	127
217.51215419501133	217.62825396825397	69	127
217.51215419501133	217.62825396825397	72	127
217.51215419501133	217.7443537414966	78	127
217.62825396825397	217.7443537414966	71	127
217.62825396825397	217.7443537414966	68	127
217.7443537414966	217.86045351473922	69	127
217.7443537414966	217.86045351473922	72	127
217.7443537414966	217.97655328798186	84	127
217.86045351473922	217.97655328798186	68	127
217.86045351473922	217.97655328798186	71	127
217.97655328798186	218.10426303854877	72	127
217.97655328798186	218.10426303854877	69	127
217.97655328798186	218.22036281179138	81	127
218.10426303854877	218.22036281179138	68	127
218.10426303854877	218.22036281179138	71	127
218.22036281179138	219.3117006802721	72	127
218.22036281179138	219.48585034013607	79	127
218.22036281179138	219.3117006802721	69	127
218.336462585034	218.4990022675737	61	127
218.4990022675737	218.61510204081634	62	127
218.61510204081634	218.73120181405895	61	127
218.73120181405895	218.8473015873016	62	127
218.8473015873016	218.96340136054422	61	127
218.96340136054422	219.07950113378683	62	127
219.07950113378683	219.19560090702947	61	127
219.19560090702947	222.43478458049887	62	127
219.3117006802721	219.48585034013607	71	127
219.3117006802721	219.48585034013607	68	127
219.48585034013607	219.6367800453515	69	127
219.48585034013607	219.6367800453515	72	127
219.48585034013607	219.7528798185941	78	127
219.6367800453515	219.7528798185941	71	127
219.6367800453515	219.7528798185941	68	127
219.7528798185941	219.92702947845805	69	127
219.7528798185941	219.92702947845805	72	127
219.7528798185941	220.0663492063492	84	127
219.92702947845805	220.0663492063492	71	127
219.92702947845805	220.0663492063492	68	127
220.0663492063492	220.1940589569161	69	127
220.0663492063492	220.1940589569161	72	127
220.0663492063492	220.31015873015872	81	127
220.1940589569161	220.31015873015872	71	127
220.1940589569161	220.31015873015872	68	127
220.31015873015872	220.8558276643991	69	127
220.31015873015872	220.6004081632653	79	127
220.31015873015872	220.8558276643991	72	127
220.6004081632653	221.08802721088435	78	127
220.8558276643991	221.33183673469387	71	127
220.8558276643991	221.33183673469387	67	127
221.08802721088435	221.5756462585034	76	127
221.33183673469387	221.93555555555557	69	127
221.33183673469387	221.93555555555557	66	127
221.5756462585034	222.17936507936508	74	127
221.93555555555557	222.43478458049887	64	127
221.93555555555557	222.43478458049887	67	127
222.17936507936508	222.7714739229025	72	127
222.43478458049887	223.03850340136054	62	127
222.43478458049887	224.78	50	127
222.43478458049887	223.03850340136054	66	127
222.7714739229025	223.29392290249433	71	127
223.03850340136054	223.59578231292517	60	127
223.03850340136054	223.59578231292517	64	127
223.29392290249433	223.90925170068027	69	127
223.59578231292517	224.19950113378684	62	127
223.59578231292517	224.19950113378684	59	127
223.90925170068027	224.19950113378684	67	127
224.19950113378684	224.72195011337868	57	127
224.19950113378684	224.72195011337868	60	127
224.4665306122449	224.75678004535146	66	127
224.78	225.26761904761904	67	127
224.78	225.26761904761904	55	127
224.78	225.3140589569161	74	127
224.78	225.26761904761904	59	127
225.3140589569161	225.76684807256237	74	127
225.3140589569161	225.76684807256237	62	127
225.3140589569161	225.76684807256237	59	127
225.3140589569161	225.81328798185942	79	127
225.81328798185942	226.57954648526078	60	127
225.81328798185942	226.57954648526078	57	127
225.81328798185942	226.20802721088435	79	127
225.81328798185942	226.57954648526078	72	127
226.35895691609977	226.57954648526078	78	127
226.57954648526078	226.78852607709752	71	127
226.57954648526078	226.78852607709752	55	127
226.57954648526078	226.78852607709752	76	127
226.57954648526078	226.78852607709752	64	127
226.81174603174603	227.2297052154195	57	127
226.81174603174603	227.2297052154195	54	127
226.81174603174603	227.0439455782313	74	127
226.81174603174603	227.2297052154195	69	127
227.0439455782313	227.27614512471655	75	127
227.27614512471655	227.7289342403628	56	127
227.27614512471655	228.00757369614513	64	127
227.27614512471655	227.53156462585034	76	127
227.27614512471655	227.7289342403628	71	127
227.53156462585034	227.75215419501134	71	127
227.77537414965985	228.48358276643992	57	127
227.77537414965985	228.00757369614513	68	127
227.77537414965985	228.28621315192743	74	127
228.00757369614513	228.28621315192743	68	127
228.00757369614513	228.28621315192743	69	127
228.28621315192743	228.50680272108843	64	127
228.28621315192743	228.50680272108843	69	127
228.28621315192743	228.50680272108843	72	127
228.75061224489795	229.38916099773243	45	127
228.75061224489795	229.8651700680272	64	127
228.75061224489795	228.9247619047619	74	127
228.75061224489795	229.38916099773243	57	127
228.9247619047619	229.02925170068028	72	127
229.02925170068028	229.0873015873016	74	127
229.0873015873016	229.14535147392291	72	127
229.14535147392291	229.2034013605442	74	127
229.2034013605442	229.30789115646257	72	127
229.30789115646257	229.37755102040816	71	127
229.37755102040816	229.43560090702948	72	127
229.43560090702948	229.91160997732428	48	127
229.43560090702948	229.56331065759636	74	127
229.43560090702948	229.6561904761905	52	127
229.56331065759636	229.679410430839	72	127
229.679410430839	229.83034013605442	71	127
229.679410430839	229.98126984126984	60	127
229.83034013605442	229.98126984126984	69	127
229.98126984126984	231.0377777777778	50	127
229.98126984126984	230.72430839002268	59	127
229.98126984126984	231.0377777777778	62	127
229.98126984126984	230.6546485260771	67	127
230.72430839002268	231.11904761904762	66	127
230.72430839002268	231.11904761904762	57	127
231.11904761904762	231.3744671201814	61	127
231.11904761904762	231.3744671201814	55	127
231.11904761904762	231.3744671201814	52	127
231.11904761904762	231.39768707482995	64	127
231.39768707482995	232.21038548752836	57	127
231.39768707482995	232.21038548752836	54	127
231.39768707482995	231.5950566893424	62	127
231.39768707482995	231.80403628117915	62	127
231.61827664399092	231.8504761904762	74	127
231.8504761904762	232.07106575963718	73	127
231.8504761904762	232.5122448979592	69	127
232.07106575963718	232.28004535147392	72	127
232.30326530612246	232.72122448979593	60	127
232.30326530612246	232.86054421768708	55	127
232.30326530612246	232.72122448979593	70	127
232.5354648526077	232.76766439909298	66	127
232.76766439909298	232.98825396825396	59	127
232.76766439909298	232.98825396825396	71	127
232.76766439909298	232.98825396825396	67	127
233.2320634920635	233.65002267573695	69	127
233.69646258503403	233.81256235827664	74	127
233.81256235827664	233.94027210884354	72	127
233.94027210884354	234.05637188208615	71	127
234.05637188208615	234.21891156462584	69	127
234.21891156462584	234.75297052154195	62	127
234.21891156462584	234.75297052154195	48	127
234.21891156462584	234.75297052154195	57	127
234.21891156462584	234.75297052154195	66	127
234.75297052154195	235.08965986394557	59	127
234.75297052154195	235.08965986394557	67	127
234.75297052154195	235.08965986394557	47	127
235.33346938775512	235.7746485260771	69	127
235.82108843537415	235.9371882086168	74	127
235.9371882086168	236.0532879818594	72	127
236.0532879818594	236.16938775510204	71	127
236.16938775510204	236.30870748299319	69	127
236.30870748299319	236.83115646258503	62	127
236.30870748299319	236.83115646258503	60	127
236.30870748299319	236.83115646258503	78	127
236.30870748299319	236.83115646258503	69	127
236.83115646258503	237.04013605442177	59	127
236.83115646258503	237.04013605442177	79	127
236.83115646258503	237.04013605442177	71	127
237.33038548752833	237.7483446712018	81	127
237.79478458049886	237.9108843537415	86	127
237.9108843537415	238.02698412698413	84	127
238.02698412698413	238.14308390022677	83	127
238.14308390022677	238.2940136054422	81	127
238.2940136054422	239.9542403628118	67	127
238.2940136054422	239.46662131519275	49	127
238.2940136054422	238.96739229024942	87	127
238.2940136054422	239.46662131519275	57	127
238.96739229024942	239.4201814058957	88	127
239.46662131519275	239.9542403628118	50	127
239.46662131519275	240.1980498866213	79	127
239.46662131519275	239.9542403628118	59	127
239.9542403628118	240.49990929705214	60	127
239.9542403628118	240.49990929705214	66	127
239.9542403628118	240.49990929705214	51	127
240.22126984126984	240.34897959183672	83	127
240.34897959183672	240.49990929705214	81	127
240.49990929705214	241.18489795918367	59	127
240.49990929705214	241.18489795918367	52	127
240.49990929705214	241.18489795918367	79	127
240.49990929705214	241.18489795918367	67	127
241.7421768707483	242.5897052154195	68	127
241.7421768707483	242.5897052154195	71	127
241.7421768707483	242.5897052154195	62	127
241.7421768707483	242.41555555555556	76	127
242.45038548752834	242.56648526077097	79	127
242.56648526077097	242.6825850340136	77	127
242.6825850340136	242.9031746031746	60	127
242.6825850340136	242.9031746031746	72	127
242.6825850340136	242.9031746031746	69	127
242.6825850340136	242.9031746031746	76	127
243.77392290249432	243.90163265306123	68	127
243.90163265306123	244.06417233560092	69	127
244.06417233560092	244.1918820861678	72	127
244.1918820861678	244.30798185941043	71	127
244.30798185941043	244.42408163265307	74	127
244.42408163265307	244.55179138321995	72	127
244.55179138321995	244.67950113378686	71	127
244.67950113378686	244.79560090702947	69	127
244.79560090702947	245.701179138322	58	127
244.79560090702947	245.701179138322	49	127
244.79560090702947	244.95814058956915	75	127
244.79560090702947	245.701179138322	67	127
245.02780045351474	245.19034013605443	76	127
245.27160997732426	245.46897959183673	78	127
245.5502494331066	245.72439909297051	79	127
245.80566893424037	246.39777777777778	50	127
245.80566893424037	246.71124716553288	67	127
245.80566893424037	246.39777777777778	62	127
245.80566893424037	246.39777777777778	59	127
246.46743764172336	246.97827664399094	60	127
246.46743764172336	246.97827664399094	38	127
246.46743764172336	246.97827664399094	54	127
246.7344671201814	246.85056689342403	71	127
246.85056689342403	246.97827664399094	69	127
246.97827664399094	247.51233560090702	67	127
246.97827664399094	247.51233560090702	59	127
246.97827664399094	247.51233560090702	55	127
246.97827664399094	247.51233560090702	43	127
247.94190476190477	248.1508843537415	55	127
248.16249433106577	248.56884353741498	43	127
248.16249433106577	248.61528344671203	62	127
248.16249433106577	248.56884353741498	59	127
248.61528344671203	249.0332426303855	47	127
248.61528344671203	249.0332426303855	67	127
248.61528344671203	249.0332426303855	62	127
249.0912925170068	249.55569160997732	67	127
249.0912925170068	249.89238095238096	45	127
249.0912925170068	249.89238095238096	60	127
249.60213151927437	249.89238095238096	66	127
249.89238095238096	250.11297052154194	67	127
249.89238095238096	250.11297052154194	64	127
249.89238095238096	250.11297052154194	59	127
249.89238095238096	250.11297052154194	43	127
250.13619047619048	250.8792290249433	42	127
250.13619047619048	250.33356009070295	62	127
250.13619047619048	250.54253968253968	57	127
250.13619047619048	250.58897959183673	74	127
250.35678004535148	250.58897959183673	63	127
250.58897959183673	251.15786848072563	79	127
250.58897959183673	251.58743764172337	59	127
250.58897959183673	250.8792290249433	64	127
250.8792290249433	251.18108843537414	59	127
250.8792290249433	251.18108843537414	55	127
251.20430839002267	251.63387755102042	79	127
251.20430839002267	251.63387755102042	59	127
251.20430839002267	251.63387755102042	62	127
251.6687074829932	251.92412698412699	60	127
251.6687074829932	252.36530612244897	62	127
251.6687074829932	251.92412698412699	78	127
251.6687074829932	251.92412698412699	57	127
251.92412698412699	252.13310657596372	59	127
251.92412698412699	252.13310657596372	76	127
251.92412698412699	252.13310657596372	55	127
252.15632653061223	252.58589569160998	57	127
252.15632653061223	252.3885260770975	74	127
252.15632653061223	252.56267573696144	54	127
252.3885260770975	252.60911564625852	75	127
252.3885260770975	252.58589569160998	69	127
252.60911564625852	252.87614512471654	76	127
252.60911564625852	252.87614512471654	71	127
252.60911564625852	253.1199546485261	56	127
252.87614512471654	253.09673469387755	68	127
252.87614512471654	253.09673469387755	71	127
253.1199546485261	253.6424036281179	74	127
253.1199546485261	254.1184126984127	57	127
253.1199546485261	253.6424036281179	64	127
253.37537414965988	253.43342403628117	69	127
253.43342403628117	253.53791383219954	68	127
253.53791383219954	253.63079365079366	66	127
253.63079365079366	253.68884353741495	67	127
253.68884353741495	254.62925170068027	57	127
253.68884353741495	253.955873015873	69	127
253.68884353741495	253.96748299319728	73	127
253.97909297052155	254.1880725623583	64	127
254.2112925170068	254.62925170068027	67	127
254.2112925170068	255.05882086167802	50	127
254.4318820861678	254.48993197278912	74	127
254.48993197278912	254.55959183673468	72	127
254.55959183673468	254.617641723356	71	127
254.617641723356	254.67569160997732	72	127
254.67569160997732	255.10526077097506	66	127
254.67569160997732	255.60448979591837	62	127
254.67569160997732	254.89628117913833	74	127
254.91950113378684	255.12848072562358	69	127
255.1517006802721	256.05727891156465	55	127
255.1517006802721	255.60448979591837	72	127
255.4071201814059	255.46517006802722	67	127
255.46517006802722	255.52321995464854	66	127
255.52321995464854	255.5928798185941	64	127
255.5928798185941	255.6857596371882	66	127
255.6857596371882	255.91795918367347	67	127
255.6857596371882	255.89473922902494	55	127
255.6857596371882	255.9063492063492	71	127
255.91795918367347	256.3591383219955	71	127
255.91795918367347	256.1269387755102	63	127
256.15015873015875	256.3591383219955	64	127
256.15015873015875	256.3591383219955	48	127
256.38235827664397	256.68419501133786	76	127
256.38235827664397	256.68419501133786	60	127
256.38235827664397	256.68419501133786	81	127
256.38235827664397	256.68419501133786	69	127
256.70743764172335	256.92802721088435	74	127
256.70743764172335	256.92802721088435	59	127
256.70743764172335	256.92802721088435	83	127
256.70743764172335	256.92802721088435	68	127
256.9512471655329	257.1718367346939	72	127
256.9512471655329	257.4040136054422	57	127
256.9512471655329	257.1718367346939	84	127
256.9512471655329	257.1718367346939	69	127
257.19503401360544	257.97292517006804	62	127
257.19503401360544	257.705873015873	79	127
257.19503401360544	257.705873015873	71	127
257.42725623582766	257.7291156462585	62	127
257.78716553287984	258.01936507936506	69	127
257.78716553287984	258.01936507936506	50	127
257.78716553287984	258.01936507936506	78	127
258.0425850340136	258.25156462585034	55	127
258.0425850340136	258.4837641723356	76	127
258.0425850340136	258.25156462585034	61	127
258.0425850340136	258.25156462585034	52	127
258.2747845804989	258.72755102040816	62	127
258.2747845804989	258.72755102040816	54	127
258.2747845804989	258.72755102040816	57	127
258.50698412698415	258.7624036281179	74	127
258.7624036281179	259.0178231292517	73	127
259.0178231292517	259.25002267573694	72	127
259.25002267573694	259.7492290249433	55	127
259.25002267573694	259.7492290249433	62	127
259.25002267573694	259.7492290249433	59	127
259.25002267573694	259.517052154195	71	127
259.517052154195	259.7724716553288	79	127
259.7724716553288	260.19043083900226	78	127
260.19043083900226	260.4342403628118	77	127
260.4342403628118	262.8375056689342	76	127
260.6664172335601	260.8986394557823	64	127
260.8986394557823	261.1540589569161	65	127
261.1540589569161	261.3978684807256	66	127
261.3978684807256	261.64167800453515	67	127
261.64167800453515	261.89707482993197	64	127
261.64167800453515	261.89707482993197	68	127
261.89707482993197	262.1525170068027	69	127
261.89707482993197	262.1525170068027	65	127
262.1525170068027	262.384716553288	66	127
262.1525170068027	262.36149659863946	70	127
262.384716553288	262.64013605442176	71	127
262.384716553288	262.64013605442176	67	127
262.64013605442176	262.90716553287984	76	127
262.64013605442176	262.90716553287984	52	127
262.64013605442176	262.90716553287984	68	127
262.90716553287984	263.1625850340136	53	127
262.90716553287984	264.75312925170067	88	127
262.90716553287984	263.1625850340136	74	127
262.90716553287984	263.35995464852607	69	127
263.1625850340136	263.40639455782315	72	127
263.1625850340136	263.40639455782315	54	127
263.40639455782315	263.6385714285714	71	127
263.40639455782315	263.6153741496599	67	127
263.40639455782315	263.6385714285714	55	127
263.6385714285714	263.87079365079364	74	127
263.6385714285714	263.87079365079364	77	127
263.6385714285714	263.87079365079364	56	127
263.87079365079364	264.27714285714285	76	127
263.87079365079364	264.27714285714285	72	127
263.87079365079364	264.27714285714285	57	127
264.27714285714285	264.54417233560093	59	127
264.27714285714285	264.54417233560093	71	127
264.27714285714285	264.5093424036281	74	127
264.54417233560093	265.08984126984126	60	127
264.54417233560093	265.08984126984126	69	127
264.54417233560093	265.08984126984126	72	127
264.77637188208615	265.12467120181407	88	127
265.12467120181407	265.35687074829934	87	127
265.35687074829934	265.58907029478456	86	127
265.58907029478456	265.82126984126984	85	127
265.82126984126984	266.07668934240365	84	127
265.82126984126984	266.0534693877551	76	127
266.07668934240365	266.2856689342404	74	127
266.07668934240365	266.3088888888889	83	127
266.3088888888889	266.5178684807256	72	127
266.3088888888889	266.5178684807256	81	127
266.54108843537415	266.7500680272109	80	127
266.54108843537415	266.7500680272109	71	127
266.7732879818594	267.0054648526077	72	127
266.7732879818594	267.0054648526077	60	127
266.7732879818594	267.0054648526077	81	127
266.7732879818594	267.0054648526077	64	127
267.0054648526077	267.22607709750565	74	127
267.0054648526077	267.22607709750565	59	127
267.0054648526077	267.22607709750565	83	127
267.0054648526077	267.22607709750565	62	127
267.22607709750565	267.49310657596374	84	127
267.22607709750565	267.49310657596374	57	127
267.22607709750565	267.49310657596374	76	127
267.22607709750565	267.49310657596374	60	127
267.49310657596374	268.2477551020408	62	127
267.49310657596374	267.7020861678005	50	127
267.49310657596374	267.94589569160996	79	127
267.49310657596374	267.94589569160996	71	127
267.725283446712	267.9691156462585	62	127
267.99233560090704	269.0024036281179	63	127
267.99233560090704	268.2941950113379	69	127
267.99233560090704	268.30580498866215	78	127
268.3174149659864	268.5379818594104	60	127
268.3174149659864	268.5379818594104	57	127
268.5612244897959	269.43197278911566	72	127
268.5612244897959	269.43197278911566	69	127
268.7934240362812	268.9095238095238	84	127
268.9095238095238	269.048820861678	83	127
269.048820861678	269.15331065759636	86	127
269.15331065759636	269.2926530612245	84	127
269.2926530612245	269.4087528344671	82	127
269.4087528344671	269.53646258503403	81	127
269.53646258503403	269.9660317460318	79	127
269.7686394557823	269.98925170068026	62	127
270.0124716553288	271.0225396825397	63	127
270.0124716553288	270.2330612244898	78	127
270.24467120181407	270.4652607709751	60	127
270.24467120181407	270.4652607709751	57	127
270.4884580498866	271.7307482993197	72	127
270.4884580498866	271.7307482993197	69	127
270.75551020408165	270.94126984126984	84	127
270.94126984126984	271.0573696145125	83	127
271.0573696145125	271.1734693877551	86	127
271.1734693877551	271.28956916099776	84	127
271.28956916099776	271.4056462585034	82	127
271.4056462585034	271.521768707483	81	127
271.521768707483	271.6378684807256	79	127
271.6378684807256	271.75396825396825	78	127
271.75396825396825	272.29963718820864	66	127
271.75396825396825	271.8700680272109	84	127
271.75396825396825	272.0442176870748	63	127
271.75396825396825	272.29963718820864	69	127
271.8700680272109	272.06743764172336	83	127
272.06743764172336	272.78725623582767	62	127
272.06743764172336	272.20675736961454	86	127
272.20675736961454	272.34607709750566	84	127
272.34607709750566	272.5550566893424	67	127
272.34607709750566	272.4621768707483	82	127
272.34607709750566	272.5550566893424	70	127
272.4621768707483	272.57827664399093	81	127
272.57827664399093	272.69437641723357	79	127
272.57827664399093	272.78725623582767	72	127
272.57827664399093	272.78725623582767	69	127
272.69437641723357	272.8104761904762	78	127
272.8104761904762	273.24002267573695	66	127
272.8104761904762	272.92657596371885	84	127
272.8104761904762	273.01945578231295	63	127
272.8104761904762	273.24002267573695	69	127
272.92657596371885	273.0426530612245	83	127
273.0426530612245	273.1819954648526	86	127
273.0426530612245	273.8553514739229	62	127
273.1819954648526	273.286485260771	84	127
273.286485260771	273.61156462585035	70	127
273.286485260771	273.507074829932	82	127
273.286485260771	273.61156462585035	67	127
273.507074829932	273.6231746031746	81	127
273.6347845804989	275.21374149659863	79	127
273.6347845804989	275.27179138322	69	127
273.6347845804989	275.27179138322	72	127
273.9018140589569	274.2268934240363	50	127
274.27331065759637	274.3778231292517	62	127
274.51714285714286	274.61002267573696	62	127
274.74934240362813	275.1789115646259	62	127
275.21374149659863	275.27179138322	78	127
275.34145124716554	275.3878684807256	79	127
275.34145124716554	275.3878684807256	67	127
275.34145124716554	275.3878684807256	71	127
275.4459410430839	275.492358276644	81	127
275.4459410430839	275.492358276644	66	127
275.4459410430839	275.492358276644	69	127
275.5736507936508	275.62009070294783	83	127
275.5736507936508	275.62009070294783	64	127
275.5736507936508	275.62009070294783	67	127
275.68975056689345	276.1425396825397	66	127
275.68975056689345	276.1425396825397	62	127
275.68975056689345	276.1425396825397	84	127
276.3979591836735	276.74625850340135	62	127
276.74625850340135	277.15260770975055	71	127
276.74625850340135	277.15260770975055	55	127
276.74625850340135	277.15260770975055	62	127
277.19904761904763	277.60539682539684	71	127
277.19904761904763	277.60539682539684	62	127
277.19904761904763	277.60539682539684	55	127
277.65183673469386	278.5225850340136	55	127
277.65183673469386	278.5225850340136	62	127
277.65183673469386	277.69827664399094	71	127
277.7679365079365	277.8143764172336	70	127
277.8956462585034	277.9420634920635	71	127
278.0233560090703	278.06979591836733	70	127
278.13945578231295	278.36002267573696	71	127
278.38326530612244	278.47614512471654	71	127
278.63868480725625	279.46299319727893	74	127
278.87086167800453	279.1495238095238	59	127
278.87086167800453	279.28884353741495	43	127
279.28884353741495	279.50943310657595	71	127
279.28884353741495	279.9738321995465	55	127
279.5326530612245	279.7532426303855	62	127
279.5326530612245	279.7532426303855	71	127
279.77646258503404	280.4730612244898	74	127
280.00866213151926	280.1247619047619	59	127
280.00866213151926	280.2640816326531	43	127
280.2640816326531	280.55433106575964	71	127
280.2640816326531	280.7865306122449	55	127
280.5775510204082	280.80972789115646	62	127
280.5775510204082	280.80972789115646	71	127
280.8910204081633	281.30897959183676	64	127
280.8910204081633	281.30897959183676	48	127
280.8910204081633	281.30897959183676	69	127
281.36702947845805	281.9243083900227	64	127
281.36702947845805	281.9243083900227	48	127
281.36702947845805	281.9243083900227	69	127
281.9707482993197	282.87632653061223	48	127
281.9707482993197	282.0171882086168	69	127
281.9707482993197	282.87632653061223	64	127
282.08684807256236	282.13326530612244	68	127
282.202947845805	282.249387755102	69	127
282.31904761904764	282.3770975056689	68	127
282.469977324263	282.67895691609976	69	127
282.7021768707483	282.94598639455785	69	127
282.96920634920633	283.67739229024943	72	127
283.2478458049887	283.5148752834467	48	127
283.2478458049887	283.3639229024943	57	127
283.5148752834467	284.2114739229025	60	127
283.5148752834467	283.72385487528345	64	127
283.747074829932	283.97925170068027	69	127
283.747074829932	283.97925170068027	60	127
284.00249433106575	284.66426303854877	72	127
284.2463038548753	284.3391836734694	57	127
284.2463038548753	284.50172335600905	48	127
284.50172335600905	284.7107029478458	69	127
284.50172335600905	284.9777324263039	60	127
284.7455328798186	285.0009297052154	66	127
284.7455328798186	285.0009297052154	69	127
285.0241723356009	285.9297505668934	59	127
285.0241723356009	285.5234013605442	67	127
285.30278911564625	285.7556009070295	62	127
285.5698412698413	285.9761904761905	68	127
285.80204081632655	285.999410430839	62	127
286.02260770975056	286.42895691609976	69	127
286.02260770975056	286.93979591836734	54	127
286.2548299319728	286.70761904761906	62	127
286.4754195011338	286.98625850340136	70	127
286.80049886621316	287.3345578231293	62	127
287.03269841269844	287.543537414966	55	127
287.03269841269844	287.543537414966	71	127
287.3577551020408	287.5667573696145	67	127
287.58997732426303	287.70607709750567	72	127
287.58997732426303	288.0079365079365	48	127
287.58997732426303	287.70607709750567	69	127
287.71768707482994	287.8221768707483	74	127
287.71768707482994	287.8221768707483	71	127
287.8337868480726	287.93827664399095	76	127
287.8337868480726	287.93827664399095	72	127
287.93827664399095	288.0427664399093	72	127
287.93827664399095	288.0427664399093	69	127
288.0543764172336	288.15886621315195	50	127
288.0543764172336	288.47231292517006	71	127
288.0543764172336	288.47231292517006	67	127
288.1704535147392	288.2749433106576	49	127
288.2865759637188	288.3910657596372	50	127
288.40267573696144	288.5071655328798	49	127
288.5187755102041	288.84385487528345	66	127
288.5187755102041	288.84385487528345	69	127
288.5187755102041	288.84385487528345	50	127
288.8554648526077	289.1108843537415	74	127
289.13410430839	289.56367346938777	83	127
289.13410430839	289.56367346938777	74	127
289.13410430839	289.56367346938777	67	127
289.37791383219957	289.5984807256236	43	127
289.6101133786848	290.06290249433107	74	127
289.6101133786848	290.06290249433107	67	127
289.6101133786848	290.06290249433107	83	127
289.84231292517006	290.0861224489796	43	127
290.10931972789115	290.15578231292517	67	127
290.10931972789115	291.32839002267576	74	127
290.10931972789115	290.15578231292517	83	127
290.22544217687073	290.2718820861678	82	127
290.22544217687073	290.2718820861678	66	127
290.34154195011337	290.38798185941044	83	127
290.34154195011337	290.5505215419501	43	127
290.34154195011337	290.38798185941044	67	127
290.457641723356	290.5040816326531	82	127
290.457641723356	290.5040816326531	66	127
290.57374149659864	290.82913832199546	43	127
290.57374149659864	290.70145124716555	83	127
290.57374149659864	290.70145124716555	67	127
290.84077097505667	291.0961904761905	67	127
290.84077097505667	291.0961904761905	83	127
291.119410430839	291.75795918367345	86	127
291.119410430839	291.75795918367345	71	127
291.35160997732424	291.560589569161	74	127
291.35160997732424	291.560589569161	43	127
291.5838095238095	292.30362811791383	55	127
291.5838095238095	292.30362811791383	79	127
291.82761904761907	292.02498866213153	83	127
291.82761904761907	292.02498866213153	67	127
292.05979591836734	292.7215873015873	71	127
292.05979591836734	292.7215873015873	86	127
292.32684807256237	292.5358276643991	43	127
292.32684807256237	292.5358276643991	74	127
292.55904761904765	292.9769841269841	79	127
292.55904761904765	292.9769841269841	55	127
292.79124716553287	293.0002267573696	83	127
292.79124716553287	293.0002267573696	67	127
293.02344671201814	293.4530158730159	81	127
293.02344671201814	293.4530158730159	66	127
293.02344671201814	293.4530158730159	74	127
293.2672562358277	293.4994557823129	48	127
293.5110657596372	293.987074829932	81	127
293.5110657596372	293.987074829932	66	127
293.5110657596372	293.987074829932	74	127
293.80131519274374	293.99866213151927	48	127
294.10315192743764	295.2990022675737	74	127
294.10315192743764	294.14961451247166	81	127
294.10315192743764	294.14961451247166	66	127
294.2192743764172	294.2657142857143	65	127
294.2192743764172	294.2657142857143	80	127
294.33537414965986	294.55596371882086	48	127
294.33537414965986	294.38181405895693	81	127
294.33537414965986	294.38181405895693	66	127
294.46308390022676	294.50950113378684	80	127
294.46308390022676	294.50950113378684	65	127
294.5791836734694	294.6720634920635	81	127
294.5791836734694	294.6720634920635	66	127
294.5791836734694	294.7997732426304	48	127
294.8113605442177	295.0203401360544	81	127
294.8113605442177	295.0203401360544	66	127
295.0435827664399	295.72857142857146	69	127
295.0435827664399	295.72857142857146	84	127
295.32219954648525	295.531179138322	36	127
295.32219954648525	295.531179138322	62	127
295.55442176870747	296.2974603174603	74	127
295.55442176870747	296.2974603174603	48	127
295.8098412698413	296.0536507936508	81	127
295.8098412698413	296.0536507936508	66	127
296.06526077097504	296.73863945578233	84	127
296.06526077097504	296.73863945578233	69	127
296.32068027210886	296.54126984126987	62	127
296.32068027210886	296.54126984126987	48	127
296.56448979591835	297.00566893424036	60	127
296.56448979591835	297.5745351473923	74	127
296.81990929705216	297.0288888888889	66	127
296.81990929705216	297.0288888888889	81	127
297.05210884353744	297.5745351473923	79	127
297.05210884353744	297.5745351473923	67	127
297.05210884353744	298.05056689342405	59	127
297.5745351473923	298.05056689342405	77	127
297.5745351473923	298.05056689342405	74	127
297.5745351473923	298.05056689342405	80	127
298.05056689342405	298.50333333333333	76	127
298.05056689342405	298.50333333333333	81	127
298.05056689342405	298.50333333333333	60	127
298.05056689342405	298.50333333333333	72	127
298.50333333333333	299.40893424036284	79	127
298.50333333333333	298.99097505668936	82	127
298.50333333333333	298.99097505668936	76	127
298.50333333333333	298.99097505668936	61	127
298.99097505668936	300.18680272108844	62	127
298.99097505668936	299.45537414965986	74	127
298.99097505668936	299.40893424036284	83	127
299.45537414965986	299.55986394557823	86	127
299.45537414965986	300.18680272108844	72	127
299.45537414965986	299.55986394557823	83	127
299.5714739229025	299.9313605442177	84	127
299.5714739229025	299.9313605442177	81	127
299.9429931972789	300.04748299319726	83	127
299.9429931972789	300.04748299319726	79	127
300.05909297052153	300.1635827664399	81	127
300.05909297052153	300.1635827664399	78	127
300.18680272108844	300.6163718820862	67	127
300.18680272108844	300.6163718820862	79	127
300.18680272108844	300.6163718820862	71	127
300.18680272108844	300.27968253968254	79	127
300.2912925170068	300.3957823129252	78	127
300.40739229024945	300.5118820861678	76	127
300.5234920634921	300.62798185941045	74	127
300.6395691609977	300.7440589569161	72	127
300.7556916099773	300.8601814058957	71	127
300.87179138321994	300.9762811791383	69	127
300.9878911564626	301.09238095238095	67	127
301.1039909297052	302.0095691609977	59	127
301.1039909297052	301.5567800453515	55	127
301.1039909297052	301.5567800453515	67	127
301.1039909297052	301.5567800453515	52	127
301.6032199546485	302.12566893424037	50	127
301.6032199546485	302.12566893424037	68	127
301.6032199546485	302.12566893424037	65	127
302.12566893424037	302.5552380952381	64	127
302.12566893424037	302.5552380952381	48	127
302.12566893424037	302.5552380952381	60	127
302.12566893424037	302.5552380952381	69	127
302.60167800453513	303.4956462585034	67	127
302.60167800453513	303.0892970521542	76	127
302.60167800453513	303.0892970521542	70	127
302.60167800453513	303.0892970521542	49	127
303.0892970521542	303.4956462585034	62	127
303.0892970521542	303.4956462585034	71	127
303.0892970521542	303.76267573696146	50	127
303.76267573696146	304.3431746031746	78	127
303.76267573696146	303.99487528344673	74	127
303.76267573696146	304.11097505668937	69	127
303.99487528344673	304.11097505668937	72	127
304.11097505668937	304.3431746031746	60	127
304.11097505668937	304.227052154195	71	127
304.227052154195	304.3315646258503	69	127
304.3431746031746	304.6566439909297	79	127
304.3431746031746	304.6566439909297	67	127
304.3431746031746	304.6566439909297	59	127
304.3431746031746	304.6566439909297	43	127
305.02816326530615	305.1442403628118	79	127
305.1442403628118	305.24873015873015	78	127
305.26036281179137	305.30680272108845	76	127
305.376462585034	305.4112925170068	74	127
305.4809523809524	305.5738321995465	54	127
305.4809523809524	305.597052154195	73	127
305.4809523809524	305.5738321995465	69	127
305.4809523809524	305.5738321995465	62	127
305.597052154195	305.71315192743765	74	127
305.71315192743765	305.80603174603175	54	127
305.71315192743765	305.8292517006803	73	127
305.71315192743765	305.80603174603175	69	127
305.71315192743765	305.80603174603175	62	127
305.8292517006803	305.9453514739229	74	127
305.9453514739229	306.038231292517	62	127
305.9453514739229	306.06142857142856	73	127
305.9453514739229	306.038231292517	69	127
305.9453514739229	306.038231292517	54	127
306.06142857142856	306.17755102040815	74	127
306.17755102040815	306.2936507936508	76	127
306.2936507936508	306.39814058956915	72	127
306.4097505668934	306.5026303854875	55	127
306.4097505668934	306.52585034013606	70	127
306.4097505668934	306.5026303854875	62	127
306.4097505668934	306.5026303854875	67	127
306.52585034013606	306.66517006802724	71	127
306.66517006802724	306.7812471655329	70	127
306.66517006802724	306.75804988662134	67	127
306.66517006802724	306.75804988662134	62	127
306.66517006802724	306.75804988662134	55	127
306.7812471655329	306.9089795918367	71	127
306.9089795918367	307.0018594104308	55	127
306.9089795918367	307.02507936507936	70	127
306.9089795918367	307.0018594104308	67	127
306.9089795918367	307.0018594104308	62	127
307.02507936507936	307.141179138322	71	127
307.141179138322	307.25727891156464	74	127
307.25727891156464	307.361768707483	71	127
307.3733786848073	307.5126984126984	68	127
307.3733786848073	307.66362811791385	48	127
307.5126984126984	307.6752380952381	69	127
307.6752380952381	307.8958276643991	64	127
307.6752380952381	307.8958276643991	60	127
307.6752380952381	307.79133786848075	68	127
307.79133786848075	307.9074149659864	69	127
307.9074149659864	308.023537414966	68	127
307.9074149659864	308.12802721088434	45	127
308.023537414966	308.1512471655329	69	127
308.1512471655329	308.3602267573696	64	127
308.1512471655329	308.3602267573696	60	127
308.1512471655329	308.2673469387755	72	127
308.2673469387755	308.3718367346939	69	127
308.38344671201816	308.91750566893427	62	127
308.38344671201816	308.91750566893427	50	127
308.38344671201816	308.51113378684806	67	127
308.38344671201816	308.8710657596372	57	127
308.51113378684806	308.62725623582764	66	127
308.62725623582764	308.7665759637188	64	127
308.7665759637188	308.92909297052154	62	127
308.94072562358275	309.126462585034	79	127
308.94072562358275	309.126462585034	67	127
309.126462585034	309.2309523809524	78	127
309.126462585034	309.2309523809524	66	127
309.2425850340136	309.28902494331066	64	127
309.2425850340136	309.28902494331066	76	127
309.3586848072562	309.4051247165533	74	127
309.3586848072562	309.4051247165533	62	127
309.47478458049886	309.5908843537415	57	127
309.47478458049886	309.5908843537415	50	127
309.47478458049886	309.5908843537415	42	127
309.47478458049886	309.61410430839004	73	127
309.47478458049886	309.61410430839004	61	127
309.61410430839004	309.7302040816327	62	127
309.61410430839004	309.7302040816327	74	127
309.7302040816327	309.83469387755105	57	127
309.7302040816327	309.83469387755105	42	127
309.7302040816327	309.85791383219953	61	127
309.7302040816327	309.83469387755105	50	127
309.7302040816327	309.85791383219953	73	127
309.85791383219953	309.98562358276644	62	127
309.85791383219953	309.98562358276644	74	127
309.98562358276644	310.07850340136054	50	127
309.98562358276644	310.07850340136054	57	127
309.98562358276644	310.07850340136054	42	127
309.98562358276644	310.11333333333334	73	127
309.98562358276644	310.11333333333334	61	127
310.11333333333334	310.229433106576	74	127
310.11333333333334	310.229433106576	62	127
310.229433106576	310.3455328798186	76	127
310.229433106576	310.3455328798186	64	127
310.3455328798186	310.450022675737	72	127
310.3455328798186	310.450022675737	60	127
310.46160997732426	310.57773242630384	58	127
310.46160997732426	310.55448979591836	43	127
310.46160997732426	310.57773242630384	70	127
310.57773242630384	310.717052154195	59	127
310.57773242630384	310.717052154195	71	127
310.717052154195	310.8563718820862	58	127
310.717052154195	310.83315192743765	43	127
310.717052154195	310.8563718820862	70	127
310.717052154195	310.83315192743765	50	127
310.717052154195	310.83315192743765	55	127
310.8563718820862	310.9956916099773	59	127
310.8563718820862	310.9956916099773	71	127
310.9956916099773	311.11179138321995	43	127
310.9956916099773	311.14662131519276	58	127
310.9956916099773	311.11179138321995	50	127
310.9956916099773	311.11179138321995	55	127
310.9956916099773	311.14662131519276	70	127
311.14662131519276	311.2627210884354	59	127
311.14662131519276	311.2627210884354	71	127
311.2627210884354	311.3556009070295	50	127
311.2627210884354	311.3556009070295	55	127
311.2627210884354	311.37879818594104	74	127
311.2627210884354	311.37879818594104	62	127
311.37879818594104	311.4832879818594	71	127
311.37879818594104	311.4832879818594	59	127
311.4949206349206	311.73873015873016	48	127
311.4949206349206	311.6342403628118	71	127
311.4949206349206	311.6342403628118	59	127
311.6342403628118	311.75034013605443	57	127
311.6342403628118	311.75034013605443	69	127
311.75034013605443	311.93609977324263	55	127
311.75034013605443	311.86643990929707	56	127
311.75034013605443	311.93609977324263	67	127
311.75034013605443	311.86643990929707	68	127
311.86643990929707	311.9825396825397	57	127
311.86643990929707	311.9825396825397	69	127
311.9825396825397	312.2727891156463	50	127
311.9825396825397	312.1334693877551	72	127
311.9825396825397	312.1334693877551	60	127
312.1334693877551	312.28439909297055	59	127
312.1334693877551	312.28439909297055	71	127
312.28439909297055	312.50496598639455	55	127
312.28439909297055	312.50496598639455	67	127
312.28439909297055	312.43532879818594	70	127
312.28439909297055	312.43532879818594	58	127
312.43532879818594	312.5398185941043	59	127
312.43532879818594	312.5398185941043	71	127
312.5514285714286	312.7604081632653	52	127
312.5514285714286	312.6675283446712	74	127
312.5514285714286	312.6675283446712	62	127
312.6675283446712	312.7720181405896	72	127
312.6675283446712	312.7720181405896	60	127
312.7720181405896	312.8881179138322	59	127
312.7720181405896	312.8648979591837	55	127
312.7720181405896	312.8881179138322	71	127
312.7720181405896	312.8648979591837	67	127
312.8881179138322	313.0158049886621	60	127
312.8881179138322	313.0158049886621	72	127
313.0158049886621	313.1319274376417	59	127
313.0158049886621	313.1087074829932	55	127
313.0158049886621	313.1319274376417	71	127
313.0158049886621	313.1087074829932	67	127
313.1319274376417	313.24802721088435	60	127
313.1319274376417	313.24802721088435	72	127
313.24802721088435	313.364126984127	64	127
313.24802721088435	313.34090702947844	67	127
313.24802721088435	313.364126984127	76	127
313.24802721088435	313.34090702947844	55	127
313.364126984127	313.46861678004535	60	127
313.364126984127	313.46861678004535	72	127
313.4918367346939	313.60793650793653	72	127
313.4918367346939	313.73562358276644	50	127
313.4918367346939	313.60793650793653	60	127
313.60793650793653	313.74725623582765	59	127
313.60793650793653	313.74725623582765	71	127
313.74725623582765	313.87496598639456	70	127
313.74725623582765	313.87496598639456	58	127
313.74725623582765	313.9446258503401	55	127
313.74725623582765	313.9446258503401	67	127
313.87496598639456	313.9910657596372	71	127
313.87496598639456	313.9910657596372	59	127
313.9910657596372	314.22326530612247	52	127
313.9910657596372	314.10716553287983	74	127
313.9910657596372	314.10716553287983	62	127
314.10716553287983	314.23485260770974	60	127
314.10716553287983	314.23485260770974	72	127
314.23485260770974	314.42063492063494	55	127
314.23485260770974	314.3509750566893	59	127
314.23485260770974	314.42063492063494	67	127
314.23485260770974	314.3509750566893	71	127
314.3509750566893	314.4554648526077	60	127
314.3509750566893	314.4554648526077	72	127
314.46707482993196	314.7108843537415	53	127
314.46707482993196	314.6180045351474	76	127
314.46707482993196	314.6180045351474	64	127
314.6180045351474	314.7224943310658	62	127
314.6180045351474	314.7224943310658	74	127
314.7224943310658	314.88503401360543	61	127
314.7224943310658	314.8618140589569	67	127
314.7224943310658	314.88503401360543	73	127
314.7224943310658	314.8618140589569	55	127
314.88503401360543	315.01274376417234	74	127
314.88503401360543	315.01274376417234	62	127
315.01274376417234	315.14045351473925	73	127
315.01274376417234	315.1172335600907	55	127
315.01274376417234	315.1172335600907	67	127
315.01274376417234	315.14045351473925	61	127
315.14045351473925	315.2565532879819	74	127
315.14045351473925	315.2565532879819	62	127
315.2565532879819	315.37265306122447	65	127
315.2565532879819	315.349433106576	55	127
315.2565532879819	315.37265306122447	77	127
315.2565532879819	315.349433106576	67	127
315.37265306122447	315.47714285714284	62	127
315.37265306122447	315.47714285714284	74	127
315.5003628117914	315.73256235827665	52	127
315.5003628117914	315.6280725623583	74	127
315.5003628117914	315.6280725623583	62	127
315.6280725623583	315.7441723356009	60	127
315.6280725623583	315.7441723356009	72	127
315.7441723356009	315.9415419501134	67	127
315.7441723356009	315.87185941043083	59	127
315.7441723356009	315.9415419501134	55	127
315.7441723356009	315.87185941043083	71	127
315.87185941043083	315.9995918367347	60	127
315.87185941043083	315.9995918367347	72	127
315.9995918367347	316.2434013605442	47	127
315.9995918367347	316.1156916099773	76	127
315.9995918367347	316.1156916099773	64	127
316.1156916099773	316.2550113378685	62	127
316.1156916099773	316.2550113378685	74	127
316.2550113378685	316.45238095238096	55	127
316.2550113378685	316.3826984126984	73	127
316.2550113378685	316.3826984126984	61	127
316.2550113378685	316.45238095238096	67	127
316.3826984126984	316.4871882086168	62	127
316.3826984126984	316.4871882086168	74	127
316.498820861678	316.7542403628118	48	127
316.498820861678	316.63814058956916	77	127
316.498820861678	316.63814058956916	65	127
316.63814058956916	316.77746031746034	76	127
316.63814058956916	316.77746031746034	64	127
316.77746031746034	316.90514739229025	63	127
316.77746031746034	316.8819501133787	67	127
316.77746031746034	316.90514739229025	75	127
316.77746031746034	316.8819501133787	55	127
316.90514739229025	317.0212698412698	64	127
316.90514739229025	317.0212698412698	76	127
317.0212698412698	317.13736961451247	63	127
317.0212698412698	317.1141496598639	67	127
317.0212698412698	317.13736961451247	75	127
317.0212698412698	317.1141496598639	55	127
317.13736961451247	317.2534693877551	64	127
317.13736961451247	317.2534693877551	76	127
317.2534693877551	317.36956916099774	67	127
317.2534693877551	317.3463492063492	55	127
317.2534693877551	317.36956916099774	79	127
317.2534693877551	317.3463492063492	67	127
317.36956916099774	317.4740589569161	64	127
317.36956916099774	317.4740589569161	76	127
317.4856689342404	317.9500680272109	57	127
317.4856689342404	317.6249886621315	67	127
317.4856689342404	317.6249886621315	79	127
317.6249886621315	317.74108843537414	78	127
317.6249886621315	317.74108843537414	66	127
317.74108843537414	317.86879818594105	65	127
317.74108843537414	317.83396825396824	62	127
317.74108843537414	317.83396825396824	60	127
317.74108843537414	317.86879818594105	77	127
317.86879818594105	317.99650793650795	66	127
317.86879818594105	317.99650793650795	78	127
317.99650793650795	318.1126077097506	65	127
317.99650793650795	318.08938775510205	60	127
317.99650793650795	318.1126077097506	77	127
317.99650793650795	318.08938775510205	62	127
318.1126077097506	318.22868480725623	66	127
318.1126077097506	318.22868480725623	78	127
318.22868480725623	318.3448072562358	72	127
318.22868480725623	318.32158730158733	62	127
318.22868480725623	318.3448072562358	81	127
318.22868480725623	318.32158730158733	57	127
318.3448072562358	318.46090702947845	69	127
318.3448072562358	318.46090702947845	78	127
318.4725170068027	319.4593424036281	79	127
318.4725170068027	318.6582766439909	55	127
318.4725170068027	319.4593424036281	71	127
318.6582766439909	318.77437641723355	57	127
318.77437641723355	318.8788662131519	59	127
318.8788662131519	318.99496598639456	60	127
318.99496598639456	319.1110657596372	62	127
319.1110657596372	319.22716553287984	64	127
319.22716553287984	319.3432653061225	66	127
319.3432653061225	319.4593424036281	67	127
319.4593424036281	320.4346031746032	83	127
319.4593424036281	319.58707482993196	65	127
319.4593424036281	320.4346031746032	74	127
319.4593424036281	321.36340136054423	79	127
319.58707482993196	319.7031746031746	64	127
319.7031746031746	319.8424943310658	62	127
319.8424943310658	319.9585941043084	60	127
319.9585941043084	320.07467120181406	59	127
320.07467120181406	320.2024036281179	57	127
320.2024036281179	320.31850340136054	55	127
320.31850340136054	320.4346031746032	53	127
320.4346031746032	321.36340136054423	84	127
320.4346031746032	320.5507029478458	52	127
320.4346031746032	321.36340136054423	76	127
320.5507029478458	320.66680272108846	53	127
320.66680272108846	320.7712925170068	55	127
320.7712925170068	320.88736961451247	57	127
320.88736961451247	321.00349206349205	59	127
321.00349206349205	321.13120181405895	60	127
321.13120181405895	321.2473015873016	62	127
321.2473015873016	321.36340136054423	64	127
321.36340136054423	321.7349206349206	83	127
321.36340136054423	321.7349206349206	79	127
321.36340136054423	321.58399092970524	62	127
321.6071882086168	321.7465306122449	62	127
321.76975056689344	321.95551020408163	83	127
321.76975056689344	321.95551020408163	86	127
321.9671201814059	322.08321995464854	83	127
321.9671201814059	322.08321995464854	86	127
321.9671201814059	322.06	62	127
322.08321995464854	322.1993197278912	81	127
322.08321995464854	322.1993197278912	84	127
322.1993197278912	322.30380952380955	62	127
322.1993197278912	322.32702947845803	83	127
322.1993197278912	322.32702947845803	79	127
322.32702947845803	322.44312925170067	81	127
322.32702947845803	322.44312925170067	78	127
322.44312925170067	323.30226757369616	79	127
322.44312925170067	323.30226757369616	62	127
322.44312925170067	322.5592290249433	55	127
322.44312925170067	323.30226757369616	59	127
322.5592290249433	322.6985487528345	57	127
322.6985487528345	322.80303854875285	59	127
322.80303854875285	322.9191383219955	60	127
322.9191383219955	323.04684807256234	62	127
323.04684807256234	323.162947845805	64	127
323.162947845805	323.2790476190476	66	127
323.2790476190476	323.4067573696145	67	127
323.4067573696145	325.2643537414966	55	127
323.4067573696145	323.5692970521542	65	127
323.4067573696145	324.2775056689342	71	127
323.4067573696145	324.2775056689342	62	127
323.5692970521542	323.6853968253968	64	127
323.6853968253968	323.80149659863946	62	127
323.80149659863946	323.90598639455783	60	127
323.90598639455783	324.02208616780047	59	127
324.02208616780047	324.1381859410431	57	127
324.1381859410431	324.25426303854874	55	127
324.25426303854874	324.3703854875283	53	127
324.3703854875283	325.2643537414966	72	127
324.3703854875283	324.49809523809523	52	127
324.3703854875283	324.49809523809523	55	127
324.3703854875283	325.2643537414966	64	127
324.49809523809523	324.62580498866214	57	127
324.49809523809523	324.62580498866214	53	127
324.62580498866214	324.75351473922905	59	127
324.62580498866214	324.75351473922905	55	127
324.75351473922905	324.8580045351474	60	127
324.75351473922905	324.8580045351474	57	127
324.8580045351474	324.99732426303854	59	127
324.8580045351474	324.99732426303854	62	127
324.99732426303854	325.1134240362812	60	127
324.99732426303854	325.1134240362812	64	127
325.1134240362812	325.2411337868481	62	127
325.1134240362812	325.2411337868481	65	127
325.2411337868481	325.3572335600907	67	127
325.2411337868481	325.3572335600907	64	127
325.3572335600907	326.2395918367347	71	127
325.3572335600907	325.4849206349206	65	127
325.3572335600907	325.4849206349206	62	127
325.3572335600907	327.2380498866213	67	127
325.3572335600907	326.2395918367347	74	127
325.4849206349206	325.62426303854875	64	127
325.4849206349206	325.62426303854875	60	127
325.62426303854875	325.75197278911565	59	127
325.62426303854875	325.75197278911565	62	127
325.75197278911565	325.8680725623583	57	127
325.75197278911565	325.8680725623583	60	127
325.8680725623583	325.98417233560093	55	127
325.8680725623583	325.98417233560093	59	127
325.98417233560093	326.10024943310657	53	127
325.98417233560093	326.10024943310657	57	127
326.10024943310657	326.21637188208615	55	127
326.10024943310657	326.21637188208615	52	127
326.21637188208615	326.34408163265306	50	127
326.21637188208615	326.34408163265306	53	127
326.34408163265306	327.2380498866213	72	127
326.34408163265306	327.2380498866213	76	127
326.34408163265306	326.48340136054424	52	127
326.34408163265306	326.48340136054424	48	127
326.48340136054424	326.61108843537414	50	127
326.48340136054424	326.61108843537414	53	127
326.61108843537414	326.76204081632653	52	127
326.61108843537414	326.76204081632653	55	127
326.76204081632653	326.8665306122449	57	127
326.76204081632653	326.8665306122449	53	127
326.8665306122449	326.98263038548754	55	127
326.8665306122449	326.98263038548754	59	127
326.98263038548754	327.0987301587302	57	127
326.98263038548754	327.0987301587302	60	127
327.0987301587302	327.2148299319728	62	127
327.0987301587302	327.2148299319728	59	127
327.2148299319728	327.33090702947845	64	127
327.2148299319728	327.33090702947845	60	127
327.33090702947845	327.79532879818595	59	127
327.33090702947845	327.4702494331066	77	127
327.33090702947845	327.4702494331066	74	127
327.33090702947845	327.79532879818595	67	127
327.4702494331066	327.60956916099775	76	127
327.4702494331066	327.60956916099775	72	127
327.60956916099775	327.7256689342404	71	127
327.60956916099775	327.7256689342404	74	127
327.7256689342404	327.841746031746	69	127
327.7256689342404	327.841746031746	72	127
327.841746031746	327.9578684807256	71	127
327.841746031746	327.9578684807256	67	127
327.9578684807256	328.0971882086168	69	127
327.9578684807256	328.0971882086168	65	127
328.0971882086168	328.2132879818594	64	127
328.0971882086168	328.2132879818594	67	127
328.2132879818594	328.32938775510206	65	127
328.2132879818594	328.32938775510206	62	127
328.32938775510206	328.4454875283447	64	127
328.32938775510206	328.4454875283447	60	127
328.32938775510206	328.770566893424	60	127
328.32938775510206	328.770566893424	64	127
328.4454875283447	328.5848072562358	62	127
328.4454875283447	328.5848072562358	59	127
328.5848072562358	328.70090702947846	57	127
328.5848072562358	328.70090702947846	60	127
328.70090702947846	328.8053968253968	59	127
328.70090702947846	328.8053968253968	55	127
328.8053968253968	328.8982766439909	57	127
328.8053968253968	328.8982766439909	53	127
328.8982766439909	329.01437641723356	55	127
328.8982766439909	329.01437641723356	52	127
329.01437641723356	329.11886621315193	50	127
329.01437641723356	329.11886621315193	53	127
329.11886621315193	329.23496598639457	52	127
329.11886621315193	329.23496598639457	48	127
329.23496598639457	329.3510657596372	60	127
329.23496598639457	329.3510657596372	57	127
329.23496598639457	329.3510657596372	66	127
329.23496598639457	330.09408163265306	50	127
329.3510657596372	329.5019954648526	62	127
329.3510657596372	329.5019954648526	59	127
329.3510657596372	329.5019954648526	67	127
329.5019954648526	329.61809523809524	69	127
329.5019954648526	329.61809523809524	64	127
329.5019954648526	329.61809523809524	60	127
329.61809523809524	329.7341950113379	62	127
329.61809523809524	329.7341950113379	71	127
329.61809523809524	329.7341950113379	66	127
329.7341950113379	329.83868480725624	67	127
329.7341950113379	329.83868480725624	72	127
329.7341950113379	329.83868480725624	64	127
329.83868480725624	329.9547845804989	74	127
329.83868480725624	329.9547845804989	69	127
329.83868480725624	329.9547845804989	66	127
329.9547845804989	330.0708843537415	71	127
329.9547845804989	330.0708843537415	76	127
329.9547845804989	330.0708843537415	67	127
330.0708843537415	330.18696145124716	78	127
330.0708843537415	330.18696145124716	72	127
330.0708843537415	330.18696145124716	69	127
330.18696145124716	330.30308390022674	52	127
330.18696145124716	330.6281632653061	79	127
330.18696145124716	330.6281632653061	71	127
330.18696145124716	330.6281632653061	67	127
330.30308390022674	330.4191836734694	54	127
330.4191836734694	330.52367346938775	55	127
330.52367346938775	330.6281632653061	57	127
330.6281632653061	330.74426303854875	59	127
330.74426303854875	330.8603628117914	61	127
330.8603628117914	330.976462585034	62	127
330.976462585034	331.09256235827667	64	127
331.09256235827667	332.0213605442177	57	127
331.09256235827667	331.2086394557823	73	127
331.09256235827667	331.2086394557823	67	127
331.09256235827667	331.2086394557823	64	127
331.2086394557823	331.33637188208615	69	127
331.2086394557823	331.33637188208615	66	127
331.2086394557823	331.33637188208615	74	127
331.33637188208615	331.47569160997733	71	127
331.33637188208615	331.47569160997733	67	127
331.33637188208615	331.47569160997733	76	127
331.47569160997733	331.59179138321997	78	127
331.47569160997733	331.59179138321997	73	127
331.47569160997733	331.59179138321997	69	127
331.59179138321997	331.75433106575963	74	127
331.59179138321997	331.75433106575963	79	127
331.59179138321997	331.75433106575963	71	127
331.75433106575963	331.88204081632654	73	127
331.75433106575963	331.88204081632654	81	127
331.75433106575963	331.88204081632654	76	127
331.88204081632654	331.9981405895692	74	127
331.88204081632654	331.9981405895692	78	127
331.88204081632654	331.9981405895692	83	127
331.9981405895692	332.13743764172335	85	127
331.9981405895692	332.13743764172335	79	127
331.9981405895692	332.13743764172335	76	127
332.13743764172335	332.4857596371882	86	127
332.13743764172335	332.4857596371882	78	127
332.13743764172335	332.4857596371882	74	127
332.13743764172335	332.4857596371882	50	127
332.7760090702948	332.9965986394558	84	127
332.7760090702948	332.9965986394558	81	127
332.7760090702948	332.9965986394558	74	127
332.7760090702948	332.9965986394558	54	127
333.2519954648526	333.47260770975055	83	127
333.2519954648526	333.47260770975055	79	127
333.2519954648526	333.47260770975055	74	127
333.2519954648526	333.47260770975055	55	127
333.7164172335601	333.9370068027211	81	127
333.7164172335601	333.9370068027211	76	127
333.7164172335601	333.9370068027211	72	127
333.7164172335601	333.9370068027211	60	127
334.18079365079365	334.4014058956916	79	127
334.18079365079365	334.4014058956916	74	127
334.18079365079365	334.4014058956916	71	127
334.18079365079365	334.4014058956916	62	127
334.6568253968254	334.86580498866215	78	127
334.6568253968254	334.86580498866215	72	127
334.6568253968254	334.86580498866215	69	127
334.6568253968254	334.86580498866215	63	127
335.10961451247164	335.2257142857143	81	127
335.10961451247164	335.33020408163264	71	127
335.10961451247164	335.33020408163264	67	127
335.10961451247164	335.33020408163264	64	127
335.2257142857143	335.3418140589569	79	127
335.58562358276646	335.71331065759637	78	127
335.58562358276646	335.81780045351474	72	127
335.58562358276646	335.81780045351474	69	127
335.58562358276646	335.81780045351474	54	127
335.71331065759637	335.81780045351474	76	127
336.0616326530612	336.2009523809524	73	127
336.0616326530612	336.2938321995465	71	127
336.0616326530612	336.2938321995465	62	127
336.0616326530612	336.2938321995465	55	127
336.2009523809524	336.30544217687077	74	127
336.67696145124717	336.78145124716553	74	127
336.67696145124717	336.90916099773244	69	127
336.67696145124717	336.90916099773244	64	127
336.67696145124717	336.90916099773244	48	127
336.78145124716553	336.9207709750567	72	127
337.15297052154193	337.26907029478457	72	127
337.15297052154193	337.40839002267575	67	127
337.15297052154193	337.40839002267575	62	127
337.15297052154193	337.40839002267575	50	127
337.26907029478457	337.42	71	127
337.6754195011338	337.8960090702948	66	127
337.6754195011338	337.7915192743764	71	127
337.6754195011338	337.8960090702948	60	127
337.6754195011338	337.8960090702948	50	127
337.7915192743764	337.8960090702948	69	127
338.2907482993197	338.5113378684807	67	127
338.2907482993197	338.5113378684807	59	127
338.2907482993197	338.5113378684807	43	127
338.8015873015873	339.7071655328798	72	127
338.8015873015873	339.7071655328798	58	127
338.8015873015873	339.7071655328798	55	127
338.8015873015873	339.7071655328798	52	127
339.7536054421769	340.508253968254	59	127
339.7536054421769	339.85809523809525	76	127
339.7536054421769	340.508253968254	55	127
339.7536054421769	340.67079365079366	50	127
339.8697052154195	340.508253968254	74	127
340.5314739229025	340.63596371882085	72	127
340.5314739229025	340.7868934240363	59	127
340.5314739229025	340.7868934240363	55	127
340.6475736961451	340.79850340136056	71	127
340.81011337868483	341.39061224489797	38	127
340.81011337868483	340.9146031746032	71	127
340.81011337868483	341.01909297052157	60	127
340.81011337868483	341.01909297052157	57	127
340.9378231292517	341.03068027210884	69	127
341.04231292517005	341.4254421768708	57	127
341.04231292517005	341.21646258503404	67	127
341.04231292517005	341.4254421768708	60	127
341.2280498866213	341.43702947845804	66	127
341.44866213151926	341.66925170068026	43	127
341.44866213151926	341.66925170068026	67	127
341.44866213151926	341.66925170068026	59	127
341.44866213151926	341.66925170068026	55	127
341.9246712018141	342.74897959183676	67	127
341.9246712018141	342.74897959183676	85	127
341.9246712018141	342.74897959183676	70	127
341.9246712018141	342.74897959183676	64	127
342.8302494331066	343.49201814058955	71	127
342.8302494331066	343.7009977324263	62	127
342.8302494331066	342.93473922902496	88	127
342.8302494331066	343.49201814058955	67	127
342.9463492063492	343.49201814058955	86	127
343.5152380952381	343.7242176870748	67	127
343.5152380952381	343.61972789115646	84	127
343.5152380952381	343.7242176870748	71	127
343.6313378684807	343.7358276643991	83	127
343.74743764172337	344.21183673469386	50	127
343.74743764172337	343.88673469387754	83	127
343.74743764172337	344.0028571428571	72	127
343.74743764172337	344.0028571428571	69	127
343.89836734693876	344.0144671201814	81	127
344.02607709750566	344.2350566893424	69	127
344.02607709750566	344.13056689342403	79	127
344.02607709750566	344.2350566893424	72	127
344.1421768707483	344.24666666666667	78	127
344.25827664399094	344.5136961451247	79	127
344.25827664399094	344.5136961451247	71	127
344.25827664399094	344.5136961451247	67	127
344.25827664399094	344.5136961451247	55	127
344.75750566893424	344.8619954648526	60	127
344.75750566893424	344.8619954648526	50	127
344.75750566893424	344.88521541950115	69	127
344.88521541950115	344.9897052154195	72	127
344.9897052154195	345.10580498866216	71	127
344.9897052154195	345.0825850340136	60	127
344.9897052154195	345.0825850340136	50	127
345.10580498866216	345.2218820861678	69	127
345.2218820861678	345.3147619047619	55	127
345.2218820861678	345.3147619047619	59	127
345.2218820861678	345.44249433106575	67	127
345.70952380952383	345.84884353741495	69	127
345.70952380952383	345.80240362811793	78	127
345.70952380952383	345.80240362811793	60	127
345.70952380952383	345.80240362811793	50	127
345.84884353741495	346.01138321995467	72	127
346.01138321995467	346.1390702947846	71	127
346.01138321995467	346.11587301587304	78	127
346.01138321995467	346.11587301587304	60	127
346.01138321995467	346.11587301587304	50	127
346.1390702947846	346.2668027210884	69	127
346.2668027210884	346.3596825396825	55	127
346.2668027210884	346.3596825396825	79	127
346.2668027210884	346.3596825396825	59	127
346.2668027210884	346.51061224489797	67	127
346.76603174603173	346.88213151927437	69	127
346.76603174603173	346.8588888888889	60	127
346.76603174603173	346.96337868480725	50	127
346.88213151927437	347.0098412698413	72	127
347.0098412698413	347.1027210884354	60	127
347.0098412698413	347.1027210884354	50	127
347.0098412698413	347.1259410430839	71	127
347.1259410430839	347.24204081632655	69	127
347.24204081632655	347.3465306122449	55	127
347.24204081632655	347.3465306122449	59	127
347.24204081632655	347.4742176870748	67	127
347.7180498866213	347.8109297052154	84	127
347.7180498866213	347.8109297052154	78	127
347.7180498866213	347.8109297052154	62	127
347.7180498866213	347.9154195011338	69	127
347.9154195011338	348.05473922902496	72	127
348.05473922902496	348.20566893424035	84	127
348.05473922902496	348.20566893424035	78	127
348.05473922902496	348.20566893424035	62	127
348.05473922902496	348.2637188208617	71	127
348.2637188208617	348.4030385487528	69	127
348.4030385487528	348.5307482993197	83	127
348.4030385487528	348.5307482993197	79	127
348.4030385487528	348.5307482993197	64	127
348.4030385487528	348.69326530612244	67	127
349.42471655328796	349.7962358276644	69	127
349.42471655328796	349.7962358276644	67	127
349.42471655328796	349.7962358276644	64	127
349.42471655328796	349.7962358276644	48	127
349.7962358276644	349.91233560090706	67	127
349.7962358276644	349.91233560090706	69	127
349.7962358276644	349.91233560090706	64	127
349.7962358276644	349.91233560090706	48	127
349.91233560090706	350.307074829932	67	127
349.91233560090706	350.307074829932	64	127
349.91233560090706	350.307074829932	69	127
349.91233560090706	350.307074829932	49	127
350.307074829932	350.42317460317463	69	127
350.307074829932	350.42317460317463	67	127
350.307074829932	350.42317460317463	64	127
350.307074829932	350.42317460317463	49	127
350.42317460317463	350.81791383219957	71	127
350.42317460317463	350.81791383219957	67	127
350.42317460317463	350.81791383219957	62	127
350.42317460317463	350.81791383219957	50	127
350.81791383219957	350.96884353741495	71	127
350.81791383219957	350.96884353741495	67	127
350.81791383219957	350.96884353741495	62	127
350.81791383219957	350.96884353741495	50	127
350.96884353741495	351.4332426303855	72	127
350.96884353741495	351.4332426303855	67	127
350.96884353741495	351.4332426303855	60	127
350.96884353741495	351.4332426303855	52	127
351.4332426303855	351.6190022675737	72	127
351.4332426303855	351.6190022675737	67	127
351.4332426303855	351.6190022675737	60	127
351.4332426303855	351.6190022675737	52	127
351.6190022675737	351.897641723356	62	127
351.6190022675737	351.897641723356	71	127
351.6190022675737	351.897641723356	67	127
351.6190022675737	351.897641723356	50	127
352.2459410430839	352.32721088435375	67	127
352.2459410430839	352.5710204081633	60	127
352.2459410430839	352.5710204081633	50	127
352.2459410430839	352.5710204081633	62	127
352.2459410430839	352.32721088435375	71	127
352.32721088435375	352.4084807256236	66	127
352.32721088435375	352.4084807256236	69	127
352.4084807256236	352.5013605442177	67	127
352.4084807256236	352.5013605442177	71	127
352.5013605442177	352.5942403628118	69	127
352.5013605442177	352.5942403628118	66	127
352.5942403628118	352.69873015873014	67	127
352.5942403628118	352.69873015873014	71	127
352.69873015873014	352.7567800453515	66	127
352.69873015873014	352.7567800453515	69	127
352.7567800453515	352.8380498866213	67	127
352.7567800453515	352.8380498866213	64	127
352.8380498866213	352.9077097505669	69	127
352.8380498866213	352.9077097505669	66	127
352.9077097505669	353.45337868480726	59	127
352.9077097505669	353.45337868480726	62	127
352.9077097505669	353.5346485260771	43	127
352.9077097505669	353.5694784580499	67	127
