# onset,offset,note,velocity
0.32430839002267575	0.6261678004535147	67	127
0.6261678004535147	0.8699773242630385	69	127
0.719047619047619	0.9744671201814059	67	127
0.9744671201814059	1.0789569160997732	66	127
1.0789569160997732	1.3924263038548752	67	127
1.3924263038548752	2.0774149659863945	72	127
2.0774149659863945	2.6695238095238096	36	127
2.0774149659863945	3.2732426303854876	72	127
2.6695238095238096	3.2732426303854876	48	127
2.6695238095238096	4.004671201814059	64	127
2.6695238095238096	4.004671201814059	55	127
2.6695238095238096	4.004671201814059	60	127
3.2732426303854876	4.004671201814059	48	127
4.004671201814059	5.5836281179138325	64	127
4.004671201814059	4.910249433106576	48	127
4.004671201814059	5.5836281179138325	55	127
4.004671201814059	5.5836281179138325	60	127
4.910249433106576	5.5836281179138325	48	127
4.910249433106576	5.223718820861678	72	127
5.223718820861678	5.328208616780046	74	127
5.3165986394557825	5.432698412698413	72	127
5.432698412698413	5.5836281179138325	71	127
5.5836281179138325	6.0364172335600905	72	127
5.5836281179138325	6.3382766439909295	64	127
5.5836281179138325	6.3382766439909295	60	127
5.5836281179138325	6.3382766439909295	48	127
5.5836281179138325	6.3382766439909295	55	127
6.0364172335600905	6.3382766439909295	76	127
6.3382766439909295	7.081315192743764	36	127
6.3382766439909295	7.882403628117914	76	127
7.081315192743764	8.509342403628118	64	127
7.081315192743764	7.882403628117914	48	127
7.081315192743764	8.509342403628118	55	127
7.081315192743764	8.509342403628118	60	127
7.882403628117914	8.509342403628118	48	127
8.509342403628118	9.832879818594105	48	127
8.509342403628118	10.54108843537415	64	127
8.509342403628118	10.54108843537415	60	127
8.509342403628118	10.54108843537415	55	127
9.832879818594105	10.54108843537415	48	127
9.832879818594105	10.204399092970522	76	127
10.204399092970522	10.30888888888889	77	127
10.297256235827664	10.436598639455783	76	127
10.436598639455783	10.54108843537415	74	127
10.54108843537415	11.27251700680272	55	127
10.54108843537415	11.27251700680272	48	127
10.54108843537415	10.92421768707483	76	127
10.54108843537415	11.27251700680272	64	127
10.54108843537415	11.27251700680272	60	127
10.92421768707483	11.27251700680272	79	127
11.27251700680272	12.120045351473923	36	127
11.27251700680272	12.828253968253968	79	127
12.120045351473923	12.828253968253968	48	127
12.120045351473923	13.478412698412699	55	127
12.120045351473923	13.478412698412699	64	127
12.120045351473923	13.478412698412699	60	127
12.828253968253968	13.478412698412699	48	127
13.478412698412699	15.034149659863946	64	127
13.478412698412699	14.349160997732426	48	127
13.478412698412699	15.034149659863946	55	127
13.478412698412699	15.034149659863946	60	127
14.349160997732426	14.720680272108844	77	127
14.349160997732426	15.034149659863946	48	127
14.720680272108844	15.034149659863946	76	127
15.034149659863946	15.835238095238095	64	127
15.034149659863946	15.835238095238095	48	127
15.034149659863946	15.475328798185942	74	127
15.034149659863946	15.835238095238095	67	127
15.475328798185942	15.835238095238095	72	127
15.835238095238095	16.49700680272109	76	127
15.835238095238095	17.15875283446712	55	127
15.835238095238095	16.49700680272109	67	127
15.835238095238095	17.15875283446712	71	127
16.49700680272109	17.15875283446712	65	127
16.49700680272109	16.61310657596372	76	127
16.61310657596372	16.72920634920635	74	127
16.72920634920635	16.833696145124716	76	127
16.833696145124716	16.938185941043084	74	127
16.938185941043084	17.031043083900226	72	127
17.031043083900226	17.15875283446712	74	127
17.15875283446712	17.890204081632653	64	127
17.15875283446712	17.890204081632653	48	127
17.15875283446712	17.797301587301586	72	127
18.006303854875284	18.61002267573696	67	127
18.006303854875284	18.61002267573696	71	127
18.61002267573696	19.32984126984127	69	127
18.61002267573696	19.32984126984127	65	127
19.32984126984127	20.04965986394558	67	127
19.32984126984127	20.04965986394558	64	127
20.04965986394558	21.535714285714285	53	127
20.04965986394558	21.106167800453516	67	127
20.04965986394558	21.106167800453516	64	127
20.04965986394558	22.290385487528344	60	127
21.106167800453516	21.291927437641725	71	127
21.106167800453516	21.291927437641725	67	127
21.291927437641725	21.50090702947846	69	127
21.291927437641725	21.50090702947846	65	127
21.535714285714285	22.046553287981858	67	127
21.535714285714285	22.046553287981858	64	127
21.535714285714285	22.1162358276644	48	127
22.290385487528344	22.92891156462585	64	127
22.290385487528344	22.92891156462585	60	127
22.290385487528344	22.92891156462585	55	127
22.92891156462585	23.544263038548753	64	127
22.92891156462585	23.544263038548753	60	127
22.92891156462585	23.544263038548753	55	127
23.544263038548753	24.240861678004535	64	127
23.544263038548753	24.240861678004535	60	127
23.544263038548753	24.240861678004535	55	127
24.240861678004535	25.494739229024944	64	127
24.240861678004535	25.494739229024944	60	127
24.240861678004535	25.494739229024944	55	127
24.240861678004535	25.924308390022677	43	127
25.494739229024944	25.66888888888889	67	127
25.494739229024944	25.66888888888889	64	127
25.494739229024944	25.924308390022677	59	127
25.66888888888889	25.924308390022677	65	127
25.66888888888889	25.924308390022677	62	127
25.924308390022677	26.388707482993198	60	127
25.924308390022677	26.388707482993198	60	127
25.924308390022677	26.493197278911566	64	127
25.924308390022677	26.493197278911566	48	127
26.632517006802722	27.294285714285714	60	127
26.632517006802722	27.294285714285714	55	127
26.632517006802722	27.294285714285714	52	127
27.294285714285714	27.921224489795918	60	127
27.294285714285714	27.921224489795918	52	127
27.294285714285714	27.921224489795918	55	127
27.921224489795918	28.582993197278913	60	127
27.921224489795918	28.582993197278913	55	127
27.921224489795918	28.582993197278913	52	127
28.582993197278913	29.6859410430839	52	127
28.582993197278913	29.6859410430839	60	127
28.582993197278913	29.6859410430839	55	127
28.582993197278913	30.301269841269843	43	127
29.6859410430839	30.13873015873016	64	127
29.6859410430839	30.301269841269843	53	127
30.13873015873016	30.301269841269843	62	127
30.301269841269843	30.707619047619048	36	127
30.301269841269843	31.032698412698412	60	127
30.301269841269843	31.032698412698412	52	127
31.148798185941043	31.90344671201814	48	127
31.90344671201814	32.58843537414966	48	127
32.58843537414966	33.215374149659866	48	127
33.215374149659866	33.85392290249433	48	127
33.215374149659866	35.177460317460316	57	127
33.215374149659866	36.53582766439909	50	127
33.85392290249433	34.50408163265306	42	127
34.50408163265306	37.151156462585035	42	127
35.177460317460316	35.85083900226758	59	127
35.177460317460316	35.85083900226758	69	127
35.85083900226758	38.86943310657596	60	127
35.85083900226758	36.53582766439909	69	127
36.53582766439909	37.151156462585035	69	127
36.53582766439909	37.151156462585035	52	127
37.151156462585035	40.33229024943311	53	127
37.151156462585035	37.963854875283445	69	127
37.151156462585035	40.33229024943311	43	127
37.963854875283445	38.86943310657596	62	127
38.86943310657596	40.00721088435374	59	127
38.86943310657596	39.64727891156463	62	127
39.64727891156463	40.33229024943311	67	127
40.00721088435374	40.33229024943311	57	127
40.33229024943311	41.05210884353742	67	127
40.33229024943311	41.400408163265304	55	127
40.33229024943311	41.400408163265304	52	127
40.33229024943311	41.79512471655329	36	127
41.05210884353742	41.79512471655329	67	127
41.400408163265304	41.79512471655329	57	127
41.400408163265304	41.79512471655329	50	127
41.79512471655329	42.44530612244898	48	127
41.79512471655329	42.44530612244898	67	127
41.79512471655329	43.16512471655329	58	127
41.79512471655329	43.86172335600907	41	127
42.44530612244898	42.770385487528344	50	127
42.44530612244898	43.16512471655329	60	127
42.770385487528344	43.16512471655329	52	127
43.16512471655329	43.86172335600907	53	127
43.16512471655329	43.86172335600907	57	127
43.16512471655329	44.50027210884354	60	127
43.86172335600907	44.50027210884354	77	127
43.86172335600907	44.50027210884354	57	127
43.86172335600907	44.50027210884354	53	127
44.50027210884354	45.359410430839006	77	127
44.50027210884354	45.359410430839006	59	127
44.50027210884354	45.359410430839006	50	127
45.359410430839006	45.986326530612246	77	127
45.359410430839006	45.986326530612246	60	127
45.359410430839006	45.986326530612246	48	127
45.986326530612246	46.334648526077096	79	127
45.986326530612246	47.27505668934241	47	127
45.986326530612246	47.89038548752834	55	127
45.986326530612246	47.89038548752834	62	127
46.334648526077096	46.62487528344671	77	127
46.62487528344671	46.9615873015873	76	127
46.9615873015873	47.27505668934241	74	127
47.27505668934241	47.588526077097505	72	127
47.27505668934241	49.840861678004536	53	127
47.588526077097505	47.89038548752834	71	127
47.89038548752834	48.21546485260771	60	127
47.89038548752834	48.517324263038546	79	127
47.89038548752834	48.21546485260771	69	127
48.21546485260771	48.517324263038546	59	127
48.21546485260771	48.517324263038546	67	127
48.517324263038546	48.842403628117914	60	127
48.517324263038546	49.15587301587301	79	127
48.517324263038546	48.842403628117914	69	127
48.842403628117914	49.15587301587301	57	127
48.842403628117914	49.15587301587301	72	127
49.15587301587301	49.46934240362812	71	127
49.15587301587301	49.46934240362812	62	127
49.15587301587301	49.840861678004536	79	127
49.46934240362812	49.840861678004536	59	127
49.46934240362812	49.840861678004536	74	127
49.840861678004536	50.13111111111111	81	127
49.840861678004536	50.444580498866216	69	127
49.840861678004536	51.10634920634921	60	127
49.840861678004536	51.10634920634921	52	127
50.13111111111111	50.444580498866216	79	127
50.444580498866216	51.07151927437642	67	127
50.444580498866216	50.804489795918364	77	127
50.804489795918364	51.10634920634921	76	127
51.10634920634921	51.75650793650794	74	127
51.10634920634921	52.406666666666666	64	127
51.10634920634921	52.406666666666666	57	127
51.75650793650794	52.75496598639456	72	127
51.75650793650794	52.406666666666666	60	127
52.406666666666666	53.056825396825396	64	127
52.406666666666666	53.056825396825396	67	127
52.406666666666666	53.6837641723356	55	127
52.60403628117914	52.75496598639456	74	127
52.75496598639456	52.90589569160998	76	127
52.90589569160998	53.056825396825396	77	127
53.056825396825396	53.207755102040814	79	127
53.056825396825396	53.6837641723356	72	127
53.056825396825396	53.6837641723356	64	127
53.207755102040814	53.35868480725624	81	127
53.35868480725624	53.498004535147395	83	127
53.53283446712018	53.64893424036281	84	127
53.6837641723356	54.194603174603174	62	127
53.6837641723356	53.83469387755102	83	127
53.6837641723356	54.194603174603174	53	127
53.6837641723356	54.194603174603174	72	127
53.83469387755102	53.997233560090706	81	127
53.997233560090706	54.159773242630386	80	127
54.159773242630386	54.357142857142854	81	127
54.357142857142854	54.577732426303854	80	127
54.577732426303854	54.72866213151927	81	127
54.72866213151927	54.8795918367347	79	127
54.8795918367347	55.030521541950115	77	127
55.030521541950115	55.18145124716553	76	127
55.030521541950115	55.518140589569164	72	127
55.030521541950115	55.518140589569164	64	127
55.030521541950115	55.518140589569164	55	127
55.18145124716553	55.33238095238095	79	127
55.33238095238095	55.49492063492063	78	127
55.49492063492063	55.71551020408163	79	127
55.71551020408163	55.86643990929705	78	127
55.86643990929705	56.005759637188206	79	127
56.005759637188206	56.15668934240363	81	127
56.15668934240363	56.30761904761905	79	127
56.30761904761905	56.64430839002267	79	127
56.30761904761905	56.830068027210885	71	127
56.30761904761905	56.830068027210885	65	127
56.30761904761905	56.830068027210885	43	127
56.64430839002267	57.07387755102041	77	127
57.07387755102041	57.375736961451246	76	127
57.375736961451246	57.67759637188209	74	127
57.67759637188209	58.21165532879819	72	127
57.67759637188209	57.909795918367344	36	127
57.67759637188209	58.21165532879819	64	127
57.67759637188209	58.699274376417236	72	127
57.92140589569161	58.10716553287982	40	127
58.11877551020408	58.316145124716556	41	127
58.32775510204082	58.513514739229024	43	127
58.525124716553286	58.73410430839002	45	127
58.745714285714286	58.93147392290249	47	127
58.97791383219955	60.41755102040816	48	127
59.233333333333334	59.47714285714286	52	127
59.47714285714286	59.69773242630386	53	127
59.70934240362812	59.92993197278911	55	127
59.941541950113375	60.20857142857143	57	127
60.220181405895694	60.47560090702948	59	127
60.47560090702948	60.97482993197279	60	127
60.69619047619047	60.881950113378686	64	127
60.89356009070295	61.13736961451247	65	127
61.148979591836735	61.33473922902494	67	127
61.34634920634921	61.55532879818594	69	127
61.5669387755102	61.752698412698415	71	127
61.7875283446712	63.26199546485261	64	127
61.7875283446712	66.02517006802721	72	127
61.7875283446712	62.05455782312925	48	127
61.7875283446712	63.26199546485261	79	127
62.05455782312925	62.298367346938775	52	127
62.298367346938775	62.53056689342404	53	127
62.53056689342404	62.75115646258504	55	127
62.75115646258504	62.97174603174603	57	127
62.97174603174603	63.26199546485261	59	127
63.26199546485261	63.505804988662135	60	127
63.26199546485261	63.74961451247165	76	127
63.26199546485261	63.74961451247165	67	127
63.505804988662135	63.72639455782313	59	127
63.72639455782313	63.935374149659864	60	127
63.935374149659864	64.41138321995464	79	127
63.935374149659864	64.41138321995464	64	127
63.935374149659864	64.17916099773242	55	127
64.17916099773242	64.38816326530612	54	127
64.38816326530612	64.60875283446713	55	127
64.60875283446713	64.81770975056689	52	127
64.60875283446713	65.10798185941043	79	127
64.60875283446713	65.10798185941043	60	127
64.81770975056689	65.04993197278911	50	127
65.04993197278911	65.29374149659864	52	127
65.29374149659864	65.79297052154195	64	127
65.29374149659864	65.79297052154195	79	127
65.29374149659864	65.51433106575963	48	127
65.51433106575963	65.75814058956917	47	127
65.76975056689342	65.96709750566893	48	127
66.02517006802721	70.08866213151927	74	127
66.02517006802721	66.29219954648526	47	127
66.02517006802721	67.34868480725623	79	127
66.02517006802721	67.34868480725623	62	127
66.29219954648526	66.48956916099773	50	127
66.48956916099773	66.6869387755102	52	127
66.6869387755102	66.91913832199546	54	127
66.91913832199546	67.13972789115647	55	127
67.13972789115647	67.34868480725623	57	127
67.34868480725623	67.9872335600907	74	127
67.34868480725623	67.9872335600907	67	127
67.34868480725623	67.5692970521542	59	127
67.5692970521542	67.76666666666667	57	127
67.76666666666667	67.9872335600907	59	127
67.9872335600907	68.20784580498866	54	127
67.9872335600907	68.42843537414966	71	127
67.9872335600907	68.42843537414966	79	127
68.20784580498866	68.40521541950113	52	127
68.40521541950113	68.66063492063492	54	127
68.66063492063492	69.18308390022676	79	127
68.66063492063492	69.18308390022676	59	127
68.66063492063492	68.90444444444445	50	127
68.90444444444445	69.15986394557824	48	127
69.15986394557824	69.38045351473923	50	127
69.38045351473923	69.62424036281179	47	127
69.38045351473923	69.87965986394558	79	127
69.38045351473923	69.87965986394558	62	127
69.62424036281179	69.81002267573696	45	127
69.82163265306123	70.07705215419502	47	127
70.08866213151927	71.48185941043084	72	127
70.08866213151927	70.29764172335601	45	127
70.08866213151927	71.48185941043084	64	127
70.08866213151927	71.48185941043084	79	127
70.29764172335601	70.57628117913832	48	127
70.57628117913832	70.8665306122449	52	127
70.8665306122449	71.07551020408164	57	127
71.07551020408164	71.2844671201814	60	127
71.2844671201814	71.48185941043084	59	127
71.48185941043084	74.2566439909297	62	127
71.48185941043084	71.96947845804989	78	127
71.48185941043084	71.96947845804989	72	127
71.48185941043084	71.7140589569161	57	127
71.7140589569161	71.91142857142857	59	127
71.91142857142857	72.12040816326531	55	127
71.96947845804989	72.12040816326531	79	127
71.96947845804989	72.12040816326531	71	127
72.12040816326531	72.63124716553288	81	127
72.12040816326531	72.35260770975057	54	127
72.12040816326531	72.63124716553288	69	127
72.35260770975057	72.57319727891156	55	127
72.57319727891156	72.7821768707483	52	127
72.63124716553288	72.7821768707483	83	127
72.63124716553288	72.7821768707483	67	127
72.7821768707483	73.57165532879819	66	127
72.7821768707483	73.01437641723356	50	127
72.7821768707483	73.57165532879819	84	127
73.01437641723356	73.2814058956916	57	127
73.2814058956916	73.57165532879819	55	127
73.57165532879819	73.8502947845805	54	127
73.57165532879819	74.2566439909297	72	127
73.57165532879819	74.2566439909297	69	127
73.8502947845805	74.03605442176871	52	127
74.04766439909297	74.21020408163265	50	127
74.2566439909297	76.35804988662132	62	127
74.2566439909297	74.36113378684807	71	127
74.2566439909297	74.47723356009071	43	127
74.2566439909297	76.35804988662132	69	127
74.3843537414966	74.45399092970521	72	127
74.47723356009071	74.67460317460318	47	127
74.47723356009071	74.55850340136054	74	127
74.5817006802721	75.39442176870749	72	127
74.67460317460318	74.87197278911565	48	127
74.87197278911565	75.05773242630386	50	127
75.05773242630386	75.3595918367347	52	127
75.3595918367347	75.64984126984127	54	127
75.64984126984127	76.77600907029479	71	127
75.64984126984127	75.91687074829932	55	127
75.91687074829932	76.13746031746032	54	127
76.13746031746032	76.35804988662132	55	127
76.35804988662132	76.8340589569161	59	127
76.35804988662132	76.60183673469388	50	127
76.35804988662132	76.8340589569161	55	127
76.60183673469388	76.81083900226757	48	127
76.81083900226757	77.06625850340136	50	127
77.06625850340136	77.56548752834468	59	127
77.06625850340136	77.26360544217687	47	127
77.06625850340136	77.56548752834468	62	127
77.26360544217687	77.53065759637188	45	127
77.53065759637188	77.73963718820862	47	127
77.73963718820862	78.28530612244899	62	127
77.73963718820862	78.0298866213152	43	127
77.73963718820862	78.28530612244899	65	127
78.0298866213152	78.25047619047619	42	127
78.25047619047619	78.47106575963718	43	127
78.51748299319728	79.12122448979592	55	127
78.51748299319728	78.91224489795918	60	127
78.51748299319728	79.12122448979592	60	127
78.51748299319728	79.12122448979592	48	127
78.51748299319728	79.12122448979592	64	127
78.91224489795918	79.07478458049887	62	127
79.07478458049887	79.26054421768707	64	127
79.26054421768707	79.39986394557823	65	127
79.39986394557823	79.55079365079365	67	127
79.55079365079365	79.69011337868481	69	127
79.69011337868481	79.84104308390023	71	127
79.84104308390023	80.02678004535147	72	127
80.02678004535147	80.17770975056689	67	127
80.17770975056689	80.34027210884354	76	127
80.34027210884354	80.49120181405895	72	127
80.49120181405895	80.64213151927437	79	127
80.64213151927437	80.79303854875283	76	127
80.79303854875283	80.94399092970522	84	127
80.94399092970522	81.12975056689342	79	127
81.12975056689342	81.28068027210884	88	127
81.12975056689342	81.67541950113379	67	127
81.12975056689342	81.67541950113379	60	127
81.12975056689342	81.67541950113379	48	127
81.28068027210884	81.47804988662132	86	127
81.47804988662132	81.65219954648526	84	127
81.65219954648526	81.80312925170068	83	127
81.80312925170068	81.96566893424037	81	127
81.96566893424037	82.11659863945579	79	127
82.11659863945579	82.25591836734694	78	127
82.25591836734694	82.38362811791383	76	127
82.40684807256235	82.9292970521542	62	127
82.40684807256235	82.46489795918367	76	127
82.40684807256235	82.9292970521542	67	127
82.40684807256235	82.9292970521542	47	127
82.4881179138322	82.55777777777777	74	127
82.58097505668934	82.68548752834467	72	127
82.68548752834467	82.76675736961451	74	127
82.76675736961451	82.9292970521542	76	127
82.9292970521542	83.08022675736962	78	127
83.08022675736962	83.23115646258503	79	127
83.23115646258503	83.38208616780045	81	127
83.38208616780045	83.53301587301587	83	127
83.53301587301587	83.68394557823129	84	127
83.68394557823129	83.83485260770975	86	127
83.83485260770975	83.96256235827664	82	127
83.96256235827664	84.11349206349206	83	127
84.11349206349206	84.26444444444445	78	127
84.26444444444445	84.42698412698412	79	127
84.42698412698412	84.57791383219954	73	127
84.57791383219954	84.74045351473923	74	127
84.74045351473923	84.90299319727892	70	127
84.87977324263039	85.51832199546486	67	127
84.87977324263039	85.51832199546486	62	127
84.87977324263039	85.51832199546486	59	127
84.90299319727892	85.05392290249434	71	127
85.05392290249434	85.20485260770975	66	127
85.20485260770975	85.3790022675737	67	127
85.3790022675737	85.57637188208616	62	127
85.57637188208616	85.72730158730158	67	127
85.72730158730158	85.87820861678004	71	127
85.87820861678004	86.01755102040816	76	127
86.01755102040816	86.16848072562358	74	127
86.16848072562358	86.760589569161	62	127
86.16848072562358	86.33102040816327	74	127
86.16848072562358	86.760589569161	57	127
86.16848072562358	86.760589569161	66	127
86.33102040816327	86.49353741496599	72	127
86.49353741496599	86.6444671201814	71	127
86.6444671201814	86.7954195011338	72	127
86.7954195011338	86.95795918367347	72	127
86.95795918367347	87.12049886621315	76	127
87.12049886621315	87.27142857142857	81	127
87.27142857142857	87.44557823129252	79	127
87.44557823129252	87.58489795918368	79	127
87.44557823129252	88.06090702947846	72	127
87.44557823129252	88.06090702947846	69	127
87.44557823129252	88.06090702947846	62	127
87.58489795918368	87.77063492063492	78	127
87.77063492063492	87.93319727891156	84	127
87.93319727891156	88.09573696145125	83	127
88.09573696145125	88.24666666666667	83	127
88.24666666666667	88.39759637188209	81	127
88.39759637188209	88.5485260770975	81	127
88.5485260770975	88.79231292517007	79	127
88.79231292517007	89.59342403628118	60	127
88.79231292517007	89.59342403628118	50	127
88.79231292517007	89.09419501133787	79	127
88.79231292517007	89.59342403628118	66	127
88.79231292517007	89.59342403628118	69	127
88.79231292517007	89.59342403628118	62	127
89.09419501133787	89.24512471655329	78	127
89.24512471655329	89.45410430839003	78	127
89.45410430839003	89.62825396825397	76	127
89.62825396825397	89.79077097505669	76	127
89.79077097505669	89.93011337868481	74	127
89.93011337868481	90.0578231292517	74	127
90.08104308390023	90.20875283446712	72	127
90.23197278911564	90.64993197278912	72	127
90.64993197278912	90.82408163265306	71	127
90.82408163265306	93.42471655328798	71	127
90.82408163265306	91.55551020408163	62	127
90.82408163265306	91.55551020408163	55	127
90.82408163265306	91.55551020408163	43	127
91.55551020408163	92.25210884353741	62	127
91.55551020408163	92.25210884353741	55	127
91.55551020408163	92.25210884353741	67	127
92.25210884353741	92.99514739229025	67	127
92.25210884353741	92.99514739229025	62	127
92.25210884353741	92.99514739229025	55	127
92.99514739229025	93.61047619047619	55	127
92.99514739229025	93.61047619047619	67	127
92.99514739229025	93.61047619047619	62	127
93.61047619047619	94.20258503401361	71	127
93.61047619047619	94.20258503401361	67	127
93.61047619047619	94.20258503401361	62	127
93.61047619047619	94.20258503401361	55	127
94.20258503401361	98.30090702947845	70	127
94.88757369614513	95.58417233560091	55	127
94.88757369614513	95.58417233560091	39	127
94.88757369614513	95.58417233560091	63	127
95.58417233560091	96.21111111111111	63	127
95.58417233560091	96.21111111111111	51	127
95.58417233560091	96.21111111111111	67	127
96.21111111111111	96.89609977324263	63	127
96.21111111111111	96.89609977324263	51	127
96.21111111111111	96.89609977324263	67	127
96.89609977324263	97.55786848072562	67	127
96.89609977324263	97.55786848072562	63	127
96.89609977324263	97.55786848072562	51	127
97.55786848072562	98.30090702947845	67	127
97.55786848072562	98.30090702947845	63	127
97.55786848072562	98.30090702947845	51	127
98.30090702947845	99.11360544217688	60	127
98.30090702947845	99.11360544217688	48	127
98.30090702947845	99.11360544217688	63	127
98.30090702947845	98.6956462585034	69	127
98.6956462585034	98.88140589569161	70	127
98.88140589569161	99.03233560090703	69	127
99.03233560090703	99.1368253968254	67	127
99.14843537414966	99.43868480725624	69	127
99.45029478458049	99.74054421768707	70	127
99.75215419501134	100.32104308390022	72	127
100.98281179138321	101.56331065759638	66	127
100.98281179138321	101.56331065759638	60	127
100.98281179138321	101.56331065759638	57	127
100.98281179138321	101.56331065759638	50	127
102.20185941043084	103.65310657596372	43	127
102.20185941043084	103.65310657596372	67	127
102.20185941043084	103.65310657596372	58	127
102.20185941043084	103.65310657596372	55	127
104.40775510204081	105.03469387755102	74	127
105.03469387755102	105.6384126984127	74	127
105.6384126984127	106.2653514739229	74	127
106.2653514739229	108.94725623582767	54	127
106.2653514739229	106.57882086167801	74	127
106.57882086167801	106.799410430839	73	127
106.799410430839	107.00839002267574	69	127
107.00839002267574	107.20575963718821	74	127
107.20575963718821	107.43795918367347	73	127
107.43795918367347	107.65854875283446	69	127
107.65854875283446	107.89074829931972	74	127
107.89074829931972	108.11133786848073	72	127
108.11133786848073	108.35514739229025	69	127
108.35514739229025	108.54090702947846	74	127
108.35514739229025	108.94725623582767	62	127
108.55251700680272	108.73827664399093	72	127
108.7498866213152	108.9356462585034	69	127
108.94725623582767	110.15469387755103	55	127
108.94725623582767	109.1562358276644	70	127
108.94725623582767	109.55097505668934	62	127
109.1562358276644	109.35360544217687	74	127
109.35360544217687	109.55097505668934	72	127
109.55097505668934	109.73673469387755	70	127
109.55097505668934	110.15469387755103	62	127
109.74834467120182	109.93410430839002	69	127
109.94571428571429	110.1314739229025	67	127
110.15469387755103	110.38689342403629	62	127
110.15469387755103	113.99759637188208	50	127
110.15469387755103	110.87451247165532	66	127
110.38689342403629	110.65392290249433	61	127
110.65392290249433	110.87451247165532	57	127
110.87451247165532	112.15160997732427	69	127
110.87451247165532	111.0718820861678	62	127
111.0718820861678	111.2924716553288	61	127
111.2924716553288	111.52467120181406	57	127
111.52467120181406	111.72204081632653	62	127
111.72204081632653	111.91941043083901	60	127
111.91941043083901	112.15160997732427	57	127
112.15160997732427	112.34897959183674	62	127
112.15160997732427	112.74371882086167	86	127
112.15160997732427	112.74371882086167	66	127
112.34897959183674	112.5463492063492	60	127
112.5463492063492	112.74371882086167	57	127
112.74371882086167	113.39387755102041	86	127
112.74371882086167	112.97591836734694	58	127
112.74371882086167	113.69573696145125	67	127
112.97591836734694	113.17328798185942	62	127
113.17328798185942	113.39387755102041	60	127
113.39387755102041	113.57963718820862	58	127
113.39387755102041	113.99759637188208	86	127
113.59124716553288	113.77700680272109	57	127
113.69573696145125	113.84666666666666	69	127
113.78861678004534	113.95115646258503	55	127
113.99759637188208	114.20657596371882	86	127
113.99759637188208	114.69419501133787	69	127
113.99759637188208	114.69419501133787	54	127
113.99759637188208	117.96820861678005	38	127
114.20657596371882	114.47360544217688	85	127
114.47360544217688	114.69419501133787	81	127
114.69419501133787	116.05256235827665	57	127
114.69419501133787	114.91478458049886	86	127
114.69419501133787	116.05256235827665	66	127
114.91478458049886	115.13537414965987	85	127
115.13537414965987	115.39079365079365	81	127
115.39079365079365	115.63460317460317	86	127
115.63460317460317	115.84358276643991	84	127
115.84358276643991	116.05256235827665	81	127
116.05256235827665	116.65628117913832	54	127
116.05256235827665	116.27315192743764	86	127
116.05256235827665	117.30643990929705	62	127
116.27315192743764	116.47052154195012	84	127
116.47052154195012	116.65628117913832	81	127
116.65628117913832	116.86526077097506	82	127
116.65628117913832	117.30643990929705	55	127
116.86526077097506	117.08585034013605	86	127
117.08585034013605	117.30643990929705	84	127
117.30643990929705	117.96820861678005	58	127
117.30643990929705	117.50380952380952	82	127
117.30643990929705	117.96820861678005	74	127
117.50380952380952	117.68956916099773	81	127
117.71278911564626	117.91015873015873	79	127
117.96820861678005	118.27006802721088	74	127
117.96820861678005	118.27006802721088	74	127
117.96820861678005	118.27006802721088	62	127
118.27006802721088	118.51387755102041	73	127
118.27006802721088	118.51387755102041	73	127
118.27006802721088	118.51387755102041	61	127
118.51387755102041	118.72285714285714	69	127
118.51387755102041	118.72285714285714	69	127
118.51387755102041	118.72285714285714	57	127
118.72285714285714	118.90861678004535	74	127
118.72285714285714	118.90861678004535	74	127
118.72285714285714	118.90861678004535	62	127
118.90861678004535	119.09437641723356	61	127
118.90861678004535	119.09437641723356	73	127
118.90861678004535	119.09437641723356	73	127
119.10598639455782	119.3033560090703	57	127
119.10598639455782	119.3033560090703	69	127
119.10598639455782	119.3033560090703	69	127
119.3033560090703	119.51233560090704	62	127
119.3033560090703	119.51233560090704	74	127
119.3033560090703	119.51233560090704	74	127
119.51233560090704	119.74453514739228	60	127
119.51233560090704	119.74453514739228	72	127
119.51233560090704	119.74453514739228	72	127
119.74453514739228	119.9302947845805	69	127
119.74453514739228	119.9302947845805	69	127
119.74453514739228	119.9302947845805	57	127
119.9302947845805	120.12766439909296	74	127
119.9302947845805	120.12766439909296	74	127
119.9302947845805	120.12766439909296	62	127
120.12766439909296	120.31342403628118	72	127
120.12766439909296	120.31342403628118	72	127
120.12766439909296	120.31342403628118	60	127
120.31342403628118	120.51079365079364	69	127
120.31342403628118	120.51079365079364	69	127
120.31342403628118	120.51079365079364	57	127
120.51079365079364	120.7429931972789	70	127
120.51079365079364	120.7429931972789	70	127
120.51079365079364	120.7429931972789	58	127
120.7429931972789	120.98680272108844	74	127
120.7429931972789	120.98680272108844	74	127
120.7429931972789	120.98680272108844	62	127
120.98680272108844	121.2190022675737	72	127
120.98680272108844	121.2190022675737	72	127
120.98680272108844	121.2190022675737	60	127
121.2190022675737	121.39315192743764	70	127
121.2190022675737	121.39315192743764	70	127
121.2190022675737	121.39315192743764	58	127
121.42798185941044	121.63696145124716	69	127
121.42798185941044	121.63696145124716	69	127
121.42798185941044	121.63696145124716	57	127
121.68340136054422	121.86916099773242	67	127
121.68340136054422	121.86916099773242	67	127
121.68340136054422	121.86916099773242	55	127
121.92721088435374	122.00848072562358	74	127
121.92721088435374	122.00848072562358	74	127
121.92721088435374	122.00848072562358	62	127
122.00848072562358	122.18263038548753	73	127
122.00848072562358	122.18263038548753	73	127
122.00848072562358	122.18263038548753	61	127
122.18263038548753	122.26390022675737	74	127
122.18263038548753	122.26390022675737	74	127
122.18263038548753	122.26390022675737	62	127
122.26390022675737	122.33356009070295	73	127
122.26390022675737	122.33356009070295	73	127
122.26390022675737	122.33356009070295	61	127
122.33356009070295	122.41482993197279	74	127
122.33356009070295	122.41482993197279	74	127
122.33356009070295	122.41482993197279	62	127
122.41482993197279	122.53092970521541	73	127
122.41482993197279	122.53092970521541	73	127
122.41482993197279	122.53092970521541	61	127
122.53092970521541	122.61219954648526	74	127
122.53092970521541	122.61219954648526	74	127
122.53092970521541	122.61219954648526	62	127
122.61219954648526	122.68185941043085	73	127
122.61219954648526	122.68185941043085	73	127
122.61219954648526	122.68185941043085	61	127
122.68185941043085	122.75151927437642	74	127
122.68185941043085	122.75151927437642	74	127
122.68185941043085	122.75151927437642	62	127
122.75151927437642	122.83278911564626	73	127
122.75151927437642	122.83278911564626	73	127
122.75151927437642	122.83278911564626	61	127
122.83278911564626	122.90244897959184	71	127
122.83278911564626	122.90244897959184	71	127
122.83278911564626	122.90244897959184	59	127
122.90244897959184	122.97210884353741	73	127
122.90244897959184	122.97210884353741	73	127
122.90244897959184	122.97210884353741	61	127
122.98371882086168	123.47133786848073	74	127
122.98371882086168	123.47133786848073	74	127
122.98371882086168	123.47133786848073	62	127
123.55260770975056	125.15478458049887	62	127
123.55260770975056	125.15478458049887	62	127
123.55260770975056	125.15478458049887	50	127
125.42181405895691	126.14163265306122	62	127
126.32739229024943	126.58281179138322	62	127
126.64086167800454	127.24458049886621	62	127
127.24458049886621	128.49843537414966	67	127
127.24458049886621	127.9063492063492	47	127
127.24458049886621	128.55650793650793	62	127
127.24458049886621	128.55650793650793	55	127
127.9063492063492	128.55650793650793	47	127
128.55650793650793	129.8568253968254	62	127
128.55650793650793	129.16022675736963	67	127
128.55650793650793	129.16022675736963	47	127
128.55650793650793	129.8568253968254	55	127
129.16022675736963	129.8568253968254	71	127
129.16022675736963	129.8568253968254	47	127
129.8568253968254	130.4953514739229	67	127
129.8568253968254	130.4953514739229	62	127
129.8568253968254	130.4953514739229	55	127
129.8568253968254	130.4953514739229	47	127
130.4953514739229	131.76086167800455	66	127
131.13392290249433	132.41102040816327	55	127
131.13392290249433	131.76086167800455	48	127
131.13392290249433	132.41102040816327	60	127
131.76086167800455	132.41102040816327	48	127
131.76086167800455	133.07278911564626	64	127
132.41102040816327	133.07278911564626	48	127
132.41102040816327	133.73455782312925	60	127
132.41102040816327	133.73455782312925	55	127
133.07278911564626	133.73455782312925	48	127
133.07278911564626	134.11768707482995	64	127
133.73455782312925	134.43113378684808	55	127
133.73455782312925	134.43113378684808	60	127
133.73455782312925	134.43113378684808	48	127
134.11768707482995	134.43113378684808	64	127
134.43113378684808	136.38163265306122	64	127
135.1393650793651	136.69510204081632	60	127
135.1393650793651	135.99850340136055	48	127
135.1393650793651	136.69510204081632	57	127
135.99850340136055	136.69510204081632	48	127
136.38163265306122	136.5441723356009	66	127
136.5441723356009	136.69510204081632	68	127
136.69510204081632	138.11149659863946	64	127
136.69510204081632	136.8924716553288	69	127
136.69510204081632	137.41492063492063	48	127
136.69510204081632	138.11149659863946	60	127
136.8924716553288	137.08981859410432	68	127
137.08981859410432	137.24074829931973	71	127
137.24074829931973	137.41492063492063	69	127
137.41492063492063	138.11149659863946	45	127
137.41492063492063	137.57746031746032	72	127
137.57746031746032	137.7515873015873	71	127
137.7515873015873	137.9257596371882	74	127
137.9257596371882	138.11149659863946	72	127
138.11149659863946	138.34371882086168	75	127
138.11149659863946	138.85455782312926	64	127
138.11149659863946	138.85455782312926	60	127
138.11149659863946	138.85455782312926	45	127
138.34371882086168	138.50625850340137	76	127
138.50625850340137	138.63396825396825	72	127
138.66879818594106	138.83133786848072	69	127
138.85455782312926	139.85301587301586	67	127
139.49308390022676	140.90952380952382	62	127
139.49308390022676	140.90952380952382	57	127
139.49308390022676	140.21292517006802	38	127
139.85301587301586	140.01555555555555	69	127
140.01555555555555	140.21292517006802	67	127
140.21292517006802	141.55968253968254	66	127
140.21292517006802	140.90952380952382	50	127
140.90952380952382	141.55968253968254	62	127
140.90952380952382	141.55968253968254	54	127
140.90952380952382	141.55968253968254	50	127
141.55968253968254	142.2330612244898	57	127
141.55968253968254	142.2330612244898	66	127
141.55968253968254	142.2330612244898	48	127
141.55968253968254	142.5581179138322	74	127
142.2330612244898	142.90643990929706	69	127
142.2330612244898	142.90643990929706	66	127
142.2330612244898	142.90643990929706	48	127
142.5581179138322	142.8019501133787	74	127
142.90643990929706	143.51015873015874	74	127
143.51015873015874	143.88167800453516	79	127
143.8932879818594	144.5898866213152	71	127
143.8932879818594	144.5898866213152	67	127
143.8932879818594	144.5898866213152	47	127
144.31124716553288	144.62471655328798	74	127
144.62471655328798	144.9381859410431	74	127
144.9381859410431	145.2748752834467	81	127
145.28648526077097	145.89020408163265	72	127
145.28648526077097	145.89020408163265	66	127
145.28648526077097	145.89020408163265	45	127
145.59995464852608	145.83213151927438	74	127
145.92503401360545	146.33138321995466	74	127
146.33138321995466	146.61002267573696	83	127
146.656462585034	147.65492063492064	67	127
146.656462585034	147.65492063492064	43	127
146.656462585034	147.65492063492064	71	127
147.0395918367347	147.46916099773242	74	127
147.65492063492064	151.67197278911564	72	127
147.65492063492064	151.67197278911564	62	127
147.65492063492064	151.67197278911564	62	127
147.65492063492064	151.67197278911564	42	127
147.65492063492064	151.67197278911564	69	127
148.13090702947846	148.47922902494332	74	127
148.47922902494332	148.79267573696146	86	127
148.79267573696146	149.09455782312926	84	127
149.09455782312926	149.4080045351474	81	127
149.4080045351474	149.69827664399094	78	127
149.69827664399094	150.0581859410431	74	127
150.0581859410431	150.40648526077098	72	127
150.40648526077098	150.73156462585035	69	127
150.73156462585035	151.0566439909297	66	127
151.0566439909297	151.35850340136054	62	127
151.35850340136054	151.5907029478458	74	127
151.67197278911564	152.29891156462585	74	127
152.29891156462585	152.71687074829933	79	127
152.72845804988663	153.21609977324263	74	127
152.72845804988663	153.21609977324263	62	127
152.72845804988663	153.21609977324263	59	127
153.04195011337868	153.2509297052154	74	127
153.34378684807257	153.65727891156462	74	127
153.34378684807257	153.83142857142857	72	127
153.34378684807257	153.83142857142857	66	127
153.34378684807257	153.83142857142857	57	127
153.65727891156462	153.93591836734694	81	127
153.9475283446712	154.53963718820862	72	127
153.9475283446712	154.53963718820862	66	127
153.9475283446712	154.53963718820862	57	127
154.3190476190476	154.56285714285715	74	127
154.65573696145125	154.98079365079366	74	127
154.65573696145125	155.16657596371883	71	127
154.65573696145125	155.16657596371883	67	127
154.65573696145125	155.16657596371883	55	127
154.98079365079366	155.28267573696147	83	127
155.2942857142857	155.96766439909297	71	127
155.2942857142857	155.96766439909297	67	127
155.2942857142857	155.96766439909297	55	127
155.78190476190477	156.01410430839002	74	127
156.15340136054422	156.4901133786848	69	127
156.15340136054422	156.4901133786848	62	127
156.15340136054422	156.4901133786848	54	127
156.15340136054422	156.50172335600908	74	127
156.50172335600908	156.6526530612245	84	127
156.6526530612245	156.82680272108843	83	127
156.82680272108843	156.97773242630385	86	127
156.97773242630385	157.12863945578232	84	127
157.12863945578232	157.26798185941044	83	127
157.26798185941044	157.3840589569161	81	127
157.3840589569161	157.53498866213152	79	127
157.53498866213152	157.68591836734694	78	127
157.68591836734694	157.83687074829933	81	127
157.83687074829933	157.98780045351475	79	127
157.98780045351475	158.1271201814059	83	127
158.1271201814059	158.27804988662132	81	127
158.27804988662132	158.42897959183674	79	127
158.42897959183674	158.57990929705215	78	127
158.57990929705215	158.74244897959184	76	127
158.74244897959184	158.89337868480726	74	127
158.89337868480726	159.06750566893425	78	127
159.06750566893425	159.23006802721088	76	127
159.23006802721088	159.39260770975056	74	127
159.39260770975056	159.54353741496598	72	127
159.54353741496598	159.6712471655329	71	127
159.70607709750567	159.84539682539682	69	127
159.9498866213152	160.47233560090703	65	127
159.9498866213152	160.47233560090703	59	127
159.9498866213152	160.47233560090703	55	127
159.9498866213152	165.01183673469387	67	127
160.58843537414967	161.08766439909297	59	127
160.58843537414967	161.08766439909297	55	127
160.58843537414967	161.08766439909297	65	127
161.2037641723356	161.71460317460318	60	127
161.2037641723356	161.71460317460318	48	127
161.2037641723356	161.71460317460318	63	127
161.84231292517006	162.34151927437642	63	127
161.84231292517006	162.34151927437642	60	127
161.84231292517006	162.34151927437642	48	127
162.46925170068027	162.96848072562358	55	127
162.46925170068027	162.96848072562358	62	127
162.46925170068027	162.96848072562358	46	127
163.08458049886622	163.58380952380952	55	127
163.08458049886622	163.58380952380952	62	127
163.08458049886622	163.58380952380952	46	127
163.71151927437643	164.30362811791383	61	127
163.71151927437643	164.30362811791383	57	127
163.71151927437643	164.30362811791383	45	127
164.44294784580498	164.95378684807255	57	127
164.44294784580498	164.95378684807255	61	127
164.44294784580498	164.95378684807255	45	127
165.0698866213152	165.54589569160999	60	127
165.0698866213152	165.54589569160999	57	127
165.0698866213152	165.54589569160999	51	127
165.0698866213152	166.25410430839003	66	127
165.6968253968254	166.1380045351474	60	127
165.6968253968254	166.1380045351474	57	127
165.6968253968254	166.1380045351474	51	127
166.25410430839003	166.7649433106576	55	127
166.25410430839003	166.7649433106576	52	127
166.25410430839003	167.6124716553288	67	127
166.25410430839003	166.7649433106576	59	127
166.89263038548754	167.4847619047619	59	127
166.89263038548754	167.4847619047619	55	127
166.89263038548754	167.4847619047619	52	127
167.6124716553288	168.6457596371882	69	127
168.27424036281178	168.93598639455783	48	127
168.27424036281178	168.93598639455783	67	127
168.27424036281178	168.93598639455783	64	127
168.6457596371882	168.79668934240362	71	127
168.79668934240362	168.94761904761904	72	127
168.97083900226758	169.36557823129252	76	127
169.36557823129252	170.01573696145124	74	127
169.66743764172335	170.32920634920634	59	127
169.66743764172335	170.32920634920634	67	127
169.66743764172335	170.32920634920634	50	127
170.01573696145124	170.17827664399093	72	127
170.21308390022676	170.34081632653061	71	127
170.36401360544218	170.6891156462585	74	127
170.6891156462585	171.33925170068028	72	127
171.02580498866214	171.7572335600907	60	127
171.02580498866214	171.7572335600907	62	127
171.02580498866214	171.7572335600907	50	127
171.33925170068028	171.53664399092972	71	127
171.53664399092972	171.68757369614514	69	127
171.7572335600907	172.2912925170068	55	127
171.7572335600907	172.2912925170068	67	127
171.7572335600907	172.2912925170068	62	127
171.7572335600907	172.2912925170068	59	127
172.51185941043084	173.22009070294786	50	127
172.51185941043084	172.98789115646258	69	127
172.51185941043084	172.98789115646258	66	127
172.51185941043084	173.22009070294786	62	127
173.01111111111112	173.09238095238095	67	127
173.01111111111112	173.09238095238095	71	127
173.09238095238095	173.22009070294786	69	127
173.09238095238095	173.22009070294786	72	127
173.22009070294786	173.75414965986394	43	127
173.22009070294786	173.68448979591838	67	127
173.22009070294786	173.68448979591838	62	127
173.22009070294786	173.75414965986394	71	127
173.88185941043085	174.32303854875283	69	127
173.88185941043085	174.26498866213151	72	127
174.3578684807256	174.41591836734693	74	127
174.3578684807256	174.4275283446712	71	127
174.4275283446712	174.48557823129252	76	127
174.4275283446712	174.48557823129252	72	127
174.5087755102041	174.98480725623583	74	127
174.5087755102041	174.98480725623583	71	127
175.10090702947846	175.565306122449	50	127
175.6581859410431	175.7162358276644	52	127
175.72784580498868	175.8091156462585	54	127
175.82072562358277	181.17292517006803	79	127
175.82072562358277	176.49410430839004	55	127
176.49410430839004	176.84240362811792	55	127
176.49410430839004	177.07460317460317	53	127
176.92367346938775	176.99333333333334	57	127
177.0049433106576	177.06297052154196	59	127
177.07460317460317	178.02662131519276	60	127
177.07460317460317	177.6667120181406	52	127
177.6667120181406	178.27043083900227	52	127
177.6667120181406	178.02662131519276	60	127
178.11950113378686	178.17755102040817	62	127
178.18913832199547	178.24721088435373	64	127
178.27043083900227	179.12956916099773	59	127
178.27043083900227	179.24566893424037	50	127
178.27043083900227	179.7100680272109	65	127
179.24566893424037	179.7100680272109	67	127
179.24566893424037	179.94226757369614	50	127
179.802947845805	179.8609977324263	69	127
179.8725850340136	179.93065759637187	71	127
179.94226757369614	180.56920634920635	48	127
179.94226757369614	181.17292517006803	72	127
179.94226757369614	181.17292517006803	64	127
180.56920634920635	181.17292517006803	48	127
180.8710657596372	181.0219954648526	81	127
181.0219954648526	181.17292517006803	83	127
181.17292517006803	182.5893424036281	66	127
181.17292517006803	182.5893424036281	84	127
181.17292517006803	181.79986394557824	45	127
181.17292517006803	181.79986394557824	62	127
181.79986394557824	182.5893424036281	45	127
181.79986394557824	182.22943310657595	74	127
182.4035827664399	182.496462585034	76	127
182.50807256235828	182.5661224489796	78	127
182.5893424036281	183.99414965986395	83	127
182.5893424036281	183.33238095238096	43	127
182.5893424036281	183.70390022675738	79	127
183.33238095238096	183.99414965986395	43	127
183.33238095238096	183.70390022675738	71	127
183.80836734693878	183.90126984126985	72	127
183.92448979591836	183.98253968253968	74	127
183.99414965986395	184.6791156462585	48	127
183.99414965986395	184.31920634920635	81	127
183.99414965986395	184.6791156462585	76	127
183.99414965986395	184.6791156462585	72	127
184.31920634920635	184.80684807256236	88	127
184.80684807256236	185.1087074829932	84	127
185.1087074829932	185.4221768707483	81	127
185.4221768707483	185.7704761904762	79	127
185.4221768707483	185.96784580498866	74	127
185.4221768707483	185.96784580498866	71	127
185.4221768707483	185.96784580498866	50	127
185.7704761904762	186.13038548752834	86	127
186.13038548752834	186.43224489795918	83	127
186.43224489795918	186.75732426303856	79	127
186.75732426303856	187.08238095238096	78	127
186.75732426303856	187.2797732426304	72	127
186.75732426303856	187.2797732426304	69	127
186.75732426303856	187.2797732426304	50	127
187.08238095238096	187.4655328798186	84	127
187.4655328798186	187.76739229024943	81	127
187.76739229024943	188.15052154195013	78	127
188.15052154195013	188.3478911564626	43	127
188.15052154195013	188.81229024943312	79	127
188.15052154195013	189.5088888888889	67	127
188.15052154195013	190.12421768707483	71	127
188.3478911564626	188.56848072562357	47	127
188.56848072562357	188.81229024943312	48	127
188.81229024943312	189.31151927437642	91	127
188.81229024943312	189.0677097505669	50	127
189.0677097505669	189.28829931972788	52	127
189.28829931972788	189.5088888888889	54	127
189.33473922902493	189.42761904761906	90	127
189.42761904761906	189.49727891156462	88	127
189.5088888888889	190.86725623582765	55	127
189.5088888888889	190.86725623582765	86	127
189.70625850340136	189.90362811791383	59	127
189.9152380952381	190.11260770975056	60	127
190.12421768707483	190.42607709750567	62	127
190.12421768707483	190.704716553288	79	127
190.42607709750567	190.64666666666668	64	127
190.64666666666668	190.86725623582765	66	127
190.704716553288	190.78598639455782	78	127
190.78598639455782	190.8556462585034	76	127
190.86725623582765	192.80612244897958	74	127
190.86725623582765	191.02979591836734	86	127
190.86725623582765	191.06462585034015	67	127
191.06462585034015	191.32004535147394	69	127
191.06462585034015	191.28521541950113	84	127
191.32004535147394	191.52902494331065	71	127
191.32004535147394	191.4825850340136	83	127
191.52902494331065	192.1443537414966	72	127
191.52902494331065	191.97020408163266	38	127
191.52902494331065	191.67995464852606	81	127
191.73800453514738	191.91215419501134	79	127
191.94698412698412	192.1095238095238	81	127
191.99342403628117	192.06308390022676	40	127
192.06308390022676	192.13274376417235	42	127
192.1443537414966	194.07160997732427	83	127
192.1443537414966	192.35333333333332	71	127
192.1443537414966	193.45628117913833	43	127
192.35333333333332	192.5507029478458	59	127
192.5507029478458	192.80612244897958	60	127
192.80612244897958	193.01510204081632	62	127
192.80612244897958	193.25891156462586	79	127
193.01510204081632	193.22408163265305	64	127
193.22408163265305	193.45628117913833	66	127
193.2705215419501	193.37501133786847	78	127
193.37501133786847	193.44467120181406	76	127
193.45628117913833	195.49963718820862	67	127
193.45628117913833	194.86108843537414	74	127
193.6536507936508	193.8742403628118	47	127
193.8742403628118	194.07160997732427	48	127
194.07160997732427	194.36185941043084	50	127
194.07160997732427	194.6521088435374	67	127
194.36185941043084	194.6521088435374	52	127
194.6521088435374	194.75659863945577	66	127
194.6521088435374	194.86108843537414	54	127
194.75659863945577	194.86108843537414	64	127
194.86108843537414	196.64902494331065	62	127
194.86108843537414	195.09328798185942	55	127
195.09328798185942	195.27904761904762	72	127
195.09328798185942	195.2906575963719	57	127
195.2906575963719	195.47641723356008	71	127
195.2906575963719	195.49963718820862	59	127
195.49963718820862	196.1033560090703	60	127
195.49963718820862	195.59251700680272	71	127
195.49963718820862	195.95242630385488	50	127
195.59251700680272	195.68539682539682	69	127
195.6970068027211	195.89437641723356	67	127
195.90598639455783	196.09174603174603	66	127
196.1033560090703	196.64902494331065	67	127
196.1033560090703	196.64902494331065	55	127
196.1033560090703	196.64902494331065	59	127
197.2991836734694	197.85646258503402	79	127
197.2991836734694	197.85646258503402	71	127
197.2991836734694	197.85646258503402	62	127
197.2991836734694	197.85646258503402	43	127
200.23650793650793	200.42226757369613	59	127
200.23650793650793	200.42226757369613	67	127
200.23650793650793	200.42226757369613	62	127
200.23650793650793	200.42226757369613	55	127
200.42226757369613	201.08403628117915	62	127
200.42226757369613	201.08403628117915	68	127
200.42226757369613	201.08403628117915	59	127
200.42226757369613	201.08403628117915	53	127
201.9083446712018	202.52367346938775	80	127
201.9083446712018	202.52367346938775	74	127
201.9083446712018	202.52367346938775	71	127
201.9083446712018	202.52367346938775	41	127
204.34643990929706	204.49736961451248	68	127
204.34643990929706	204.49736961451248	62	127
204.34643990929706	204.49736961451248	59	127
204.34643990929706	204.49736961451248	53	127
204.49736961451248	205.18235827664398	67	127
204.49736961451248	205.18235827664398	63	127
204.49736961451248	205.18235827664398	60	127
204.49736961451248	205.18235827664398	51	127
206.23886621315194	206.79614512471656	79	127
206.23886621315194	206.79614512471656	72	127
206.23886621315194	206.79614512471656	67	127
206.23886621315194	206.79614512471656	39	127
208.52603174603175	208.71179138321995	67	127
208.52603174603175	208.71179138321995	60	127
208.52603174603175	208.71179138321995	51	127
208.72340136054422	209.26907029478457	65	127
208.72340136054422	209.26907029478457	60	127
208.72340136054422	209.26907029478457	50	127
210.03532879818593	210.98734693877552	77	127
210.03532879818593	210.98734693877552	59	127
210.03532879818593	210.98734693877552	43	127
211.6839455782313	211.98580498866212	67	127
211.98580498866212	212.0902947845805	69	127
212.07868480725622	212.26444444444445	67	127
212.26444444444445	212.36893424036282	66	127
212.36893424036282	212.67079365079366	67	127
212.67079365079366	213.18163265306123	72	127
213.18163265306123	214.67931972789117	72	127
213.18163265306123	214.0407709750567	36	127
214.0407709750567	215.3294784580499	64	127
214.0407709750567	214.67931972789117	48	127
214.0407709750567	215.3294784580499	55	127
214.0407709750567	215.3294784580499	60	127
214.67931972789117	215.3294784580499	48	127
215.3294784580499	216.6414058956916	60	127
215.3294784580499	216.6414058956916	55	127
215.3294784580499	215.9564172335601	48	127
215.3294784580499	216.6414058956916	64	127
215.9564172335601	216.6414058956916	48	127
215.9564172335601	216.28149659863945	72	127
216.28149659863945	216.4208163265306	74	127
216.40920634920636	216.52530612244897	72	127
216.52530612244897	216.6414058956916	71	127
216.6414058956916	217.26834467120182	60	127
216.6414058956916	216.96648526077098	72	127
216.6414058956916	217.26834467120182	55	127
216.6414058956916	217.26834467120182	64	127
216.6414058956916	217.26834467120182	48	127
216.96648526077098	217.26834467120182	76	127
217.26834467120182	217.95333333333335	36	127
217.26834467120182	218.6615419501134	76	127
217.95333333333335	218.6615419501134	48	127
217.95333333333335	219.42780045351475	55	127
217.95333333333335	219.42780045351475	64	127
217.95333333333335	219.42780045351475	60	127
218.6615419501134	219.42780045351475	48	127
219.42780045351475	220.4146485260771	48	127
219.42780045351475	221.05319727891157	55	127
219.42780045351475	221.05319727891157	60	127
219.42780045351475	221.05319727891157	64	127
220.4146485260771	221.05319727891157	48	127
220.4146485260771	220.73972789115646	76	127
220.73972789115646	220.84421768707483	77	127
220.83260770975056	220.93709750566893	76	127
220.93709750566893	221.05319727891157	74	127
221.05319727891157	221.7962358276644	64	127
221.05319727891157	221.41310657596372	76	127
221.05319727891157	221.7962358276644	55	127
221.05319727891157	221.7962358276644	60	127
221.05319727891157	221.7962358276644	48	127
221.41310657596372	221.7962358276644	79	127
221.7962358276644	223.235873015873	79	127
221.7962358276644	222.5160544217687	36	127
222.5160544217687	223.9673015873016	60	127
222.5160544217687	223.235873015873	48	127
222.5160544217687	223.9673015873016	64	127
222.5160544217687	223.9673015873016	55	127
223.235873015873	223.9673015873016	48	127
223.9673015873016	225.3721088435374	55	127
223.9673015873016	224.69873015873017	48	127
223.9673015873016	225.3721088435374	64	127
223.9673015873016	225.3721088435374	60	127
224.69873015873017	225.0354195011338	77	127
224.69873015873017	225.3721088435374	48	127
225.0354195011338	225.3721088435374	76	127
225.3721088435374	226.19641723356008	64	127
225.3721088435374	225.8248979591837	74	127
225.3721088435374	226.19641723356008	67	127
225.3721088435374	226.19641723356008	48	127
225.8248979591837	226.19641723356008	72	127
226.19641723356008	226.96267573696144	76	127
226.19641723356008	226.96267573696144	67	127
226.19641723356008	227.55478458049888	71	127
226.19641723356008	227.55478458049888	55	127
226.96267573696144	227.55478458049888	65	127
226.96267573696144	227.05555555555554	76	127
227.05555555555554	227.14843537414967	74	127
227.14843537414967	227.25292517006804	76	127
227.25292517006804	227.3574149659864	74	127
227.3574149659864	227.4502947845805	72	127
227.4502947845805	227.55478458049888	74	127
227.55478458049888	228.08884353741496	72	127
227.55478458049888	228.15850340136055	64	127
227.55478458049888	228.15850340136055	48	127
228.33265306122448	228.93637188208618	71	127
228.33265306122448	228.93637188208618	67	127
228.93637188208618	229.54009070294785	65	127
228.93637188208618	229.54009070294785	69	127
229.54009070294785	230.27151927437643	64	127
229.54009070294785	230.27151927437643	67	127
230.27151927437643	232.47741496598638	60	127
230.27151927437643	231.36285714285714	64	127
230.27151927437643	231.7808163265306	53	127
230.27151927437643	231.36285714285714	67	127
231.36285714285714	231.57183673469387	71	127
231.36285714285714	231.57183673469387	67	127
231.57183673469387	231.74598639455783	69	127
231.57183673469387	231.74598639455783	65	127
231.7808163265306	232.24521541950114	67	127
231.7808163265306	232.24521541950114	64	127
231.7808163265306	232.31487528344672	48	127
232.47741496598638	233.13918367346938	64	127
232.47741496598638	233.13918367346938	60	127
232.47741496598638	233.13918367346938	55	127
233.13918367346938	233.75451247165532	64	127
233.13918367346938	233.75451247165532	60	127
233.13918367346938	233.75451247165532	55	127
233.75451247165532	234.4162811791383	64	127
233.75451247165532	234.4162811791383	60	127
233.75451247165532	234.4162811791383	55	127
234.4162811791383	235.62371882086168	64	127
234.4162811791383	235.62371882086168	60	127
234.4162811791383	235.62371882086168	55	127
234.4162811791383	236.0300680272109	43	127
235.62371882086168	235.8443083900227	64	127
235.62371882086168	236.0300680272109	59	127
235.62371882086168	235.8443083900227	67	127
235.8443083900227	236.0300680272109	65	127
235.8443083900227	236.0300680272109	62	127
236.0300680272109	236.50607709750568	60	127
236.0300680272109	236.56412698412697	48	127
236.0300680272109	236.56412698412697	64	127
236.0300680272109	236.50607709750568	60	127
236.6802267573696	237.30716553287982	60	127
236.6802267573696	237.30716553287982	52	127
236.6802267573696	237.30716553287982	55	127
237.30716553287982	237.88766439909298	52	127
237.30716553287982	237.88766439909298	60	127
237.30716553287982	237.88766439909298	55	127
237.88766439909298	238.54943310657598	52	127
237.88766439909298	238.54943310657598	55	127
237.88766439909298	238.54943310657598	60	127
238.54943310657598	239.65238095238095	52	127
238.54943310657598	240.02390022675738	43	127
238.54943310657598	239.65238095238095	60	127
238.54943310657598	239.65238095238095	55	127
239.65238095238095	240.02390022675738	53	127
239.65238095238095	239.8613605442177	64	127
239.8613605442177	240.02390022675738	62	127
240.02390022675738	240.4186394557823	36	127
240.02390022675738	240.69727891156464	60	127
240.02390022675738	240.69727891156464	52	127
240.81337868480725	241.70734693877552	48	127
241.70734693877552	242.48521541950115	48	127
242.48521541950115	243.18181405895692	48	127
243.18181405895692	243.8435827664399	48	127
243.8435827664399	244.45891156462585	42	127
244.49374149659863	245.89854875283447	42	127
245.1322902494331	246.15396825396826	74	127
245.1322902494331	246.15396825396826	60	127
245.1322902494331	246.15396825396826	54	127
246.15396825396826	246.80412698412698	74	127
246.15396825396826	246.80412698412698	60	127
246.15396825396826	246.80412698412698	54	127
246.80412698412698	247.46589569160997	74	127
246.80412698412698	247.46589569160997	60	127
246.80412698412698	247.46589569160997	54	127
247.46589569160997	248.1160544217687	74	127
247.46589569160997	248.1160544217687	60	127
247.46589569160997	248.1160544217687	54	127
248.1160544217687	248.69655328798186	67	127
248.1160544217687	248.69655328798186	59	127
248.1160544217687	248.69655328798186	55	127
248.73138321995464	249.96204081632652	67	127
248.73138321995464	249.96204081632652	58	127
248.73138321995464	249.96204081632652	55	127
249.35832199546485	250.04331065759638	46	127
250.04331065759638	250.7631292517007	46	127
250.7631292517007	251.43650793650792	46	127
251.43650793650792	252.08666666666667	46	127
252.08666666666667	252.76004535147393	40	127
252.79487528344671	254.03714285714287	40	127
253.38698412698412	254.10680272108843	72	127
253.38698412698412	254.10680272108843	58	127
253.38698412698412	254.10680272108843	52	127
254.10680272108843	254.75696145124718	72	127
254.10680272108843	254.75696145124718	58	127
254.10680272108843	254.75696145124718	52	127
254.75696145124718	255.38390022675736	72	127
254.75696145124718	255.38390022675736	58	127
254.75696145124718	255.38390022675736	52	127
255.38390022675736	256.0340589569161	72	127
255.38390022675736	256.0340589569161	58	127
255.38390022675736	256.0340589569161	52	127
256.0340589569161	256.7190476190476	65	127
256.0340589569161	256.7190476190476	57	127
256.0340589569161	256.7190476190476	53	127
256.7654875283447	258.00773242630385	65	127
256.7654875283447	258.00773242630385	56	127
256.7654875283447	258.00773242630385	53	127
257.38081632653063	258.15868480725624	44	127
258.15868480725624	258.9017233560091	44	127
258.9017233560091	259.92340136054423	44	127
259.92340136054423	264.05655328798184	65	127
259.92340136054423	260.70126984126983	44	127
259.92340136054423	264.05655328798184	61	127
260.70126984126983	261.3746485260771	37	127
261.3746485260771	264.05655328798184	37	127
262.0364172335601	262.8375056689342	68	127
262.8375056689342	263.45283446712017	68	127
263.45283446712017	264.05655328798184	68	127
264.05655328798184	267.8762358276644	63	127
264.05655328798184	264.6718820861678	68	127
264.05655328798184	265.32204081632653	36	127
264.05655328798184	267.8762358276644	66	127
264.6718820861678	265.1943310657596	78	127
265.32204081632653	265.9373696145125	78	127
265.32204081632653	267.8762358276644	48	127
265.9373696145125	266.5643083900227	68	127
266.5643083900227	267.2492970521542	68	127
267.2492970521542	267.8762358276644	68	127
267.8762358276644	269.46678004535147	49	127
267.8762358276644	272.0906575963719	61	127
267.8762358276644	272.0906575963719	65	127
267.8762358276644	268.80503401360545	68	127
268.80503401360545	269.3274829931973	77	127
269.46678004535147	272.0906575963719	37	127
269.46678004535147	270.198231292517	77	127
270.198231292517	270.81356009070294	68	127
270.81356009070294	271.4869387755102	68	127
271.4869387755102	272.0906575963719	68	127
272.0906575963719	285.08222222222224	63	127
272.0906575963719	285.08222222222224	66	127
272.0906575963719	272.89174603174604	69	127
272.0906575963719	273.6347845804989	36	127
272.89174603174604	273.4722448979592	78	127
273.6347845804989	276.7346485260771	48	127
273.6347845804989	274.6216326530612	78	127
274.6216326530612	275.4459410430839	69	127
275.4459410430839	276.0728798185941	69	127
276.0728798185941	276.7346485260771	69	127
276.7346485260771	277.3383446712018	69	127
276.7346485260771	278.04655328798185	47	127
277.3383446712018	277.9304761904762	78	127
278.04655328798185	280.7633106575964	59	127
278.04655328798185	278.7547845804989	78	127
278.7547845804989	279.45138321995466	69	127
279.45138321995466	280.1131519274376	69	127
280.1131519274376	280.7633106575964	69	127
280.7633106575964	281.63403628117914	70	127
280.7633106575964	282.31904761904764	58	127
281.63403628117914	282.202947845805	78	127
282.31904761904764	285.08222222222224	46	127
282.31904761904764	282.9343764172336	78	127
282.9343764172336	283.6541950113379	70	127
283.6541950113379	284.25791383219956	70	127
284.25791383219956	285.08222222222224	70	127
285.08222222222224	286.661179138322	44	127
285.08222222222224	287.5087074829932	63	127
285.08222222222224	289.6449433106576	66	127
285.08222222222224	285.89492063492065	72	127
285.89492063492065	286.53344671201813	78	127
286.661179138322	289.6449433106576	56	127
286.661179138322	287.5087074829932	78	127
287.5087074829932	288.2865759637188	60	127
287.5087074829932	288.2865759637188	75	127
288.2865759637188	288.93673469387755	74	127
288.2865759637188	288.93673469387755	59	127
288.93673469387755	289.6449433106576	72	127
288.93673469387755	289.6449433106576	60	127
289.6449433106576	291.6766893424036	67	127
289.6449433106576	289.9235827664399	43	127
289.6449433106576	291.6766893424036	62	127
289.6449433106576	291.6766893424036	71	127
289.9235827664399	290.1441723356009	47	127
290.1441723356009	290.411201814059	50	127
290.411201814059	290.60857142857145	55	127
290.60857142857145	290.84077097505667	59	127
290.84077097505667	291.0497505668934	57	127
291.0497505668934	291.2703401360544	55	127
291.2703401360544	291.4677097505669	54	127
291.4677097505669	291.6766893424036	55	127
291.6766893424036	292.23396825396827	55	127
291.6766893424036	291.9437188208617	50	127
291.6766893424036	292.23396825396827	79	127
291.6766893424036	292.23396825396827	59	127
291.9437188208617	292.15267573696144	48	127
292.15267573696144	292.3616553287982	50	127
292.3616553287982	292.89573696145123	79	127
292.3616553287982	292.5938775510204	47	127
292.3616553287982	292.89573696145123	62	127
292.3616553287982	292.89573696145123	59	127
292.5938775510204	292.8144671201814	45	127
292.8144671201814	293.02344671201814	47	127
293.02344671201814	293.18596371882086	43	127
293.02344671201814	293.4878231292517	79	127
293.02344671201814	293.4878231292517	65	127
293.02344671201814	293.4878231292517	62	127
293.2208163265306	293.3601360544218	42	127
293.39496598639454	293.5807256235828	43	127
293.65038548752835	295.1829024943311	63	127
293.65038548752835	293.8941723356009	48	127
293.65038548752835	295.1829024943311	79	127
293.65038548752835	295.1829024943311	60	127
293.8941723356009	294.1263945578231	51	127
294.1263945578231	294.3585941043084	55	127
294.3585941043084	294.66045351473923	60	127
294.66045351473923	294.9855328798186	63	127
294.9855328798186	295.1829024943311	62	127
295.1829024943311	295.87950113378685	63	127
295.1829024943311	295.43832199546483	60	127
295.1829024943311	295.87950113378685	75	127
295.1829024943311	295.87950113378685	67	127
295.43832199546483	295.64730158730157	59	127
295.64730158730157	295.87950113378685	60	127
295.87950113378685	296.32068027210886	79	127
295.87950113378685	296.0768707482993	55	127
295.87950113378685	296.32068027210886	72	127
295.87950113378685	296.32068027210886	63	127
296.0768707482993	296.2509977324263	54	127
296.2509977324263	296.44836734693877	55	127
296.44836734693877	296.94761904761907	60	127
296.44836734693877	296.63414965986397	51	127
296.44836734693877	296.94761904761907	79	127
296.44836734693877	296.94761904761907	55	127
296.63414965986397	296.8431292517007	50	127
296.8431292517007	297.0753287981859	51	127
297.0636961451247	297.23786848072564	48	127
297.0753287981859	297.64421768707484	79	127
297.0753287981859	297.64421768707484	63	127
297.0753287981859	297.64421768707484	60	127
297.27267573696145	297.4932879818594	47	127
297.55133786848074	297.7254875283447	48	127
297.79514739229023	297.9925170068027	43	127
297.79514739229023	299.81528344671204	62	127
297.79514739229023	299.153514739229	79	127
297.79514739229023	299.81528344671204	59	127
297.9925170068027	298.3059863945578	47	127
298.3059863945578	298.5265759637188	50	127
298.5265759637188	298.73555555555555	55	127
298.73555555555555	298.9445351473923	59	127
298.9445351473923	299.153514739229	57	127
299.153514739229	299.81528344671204	67	127
299.153514739229	299.36249433106576	55	127
299.36249433106576	299.5714739229025	54	127
299.5714739229025	299.81528344671204	55	127
299.81528344671204	300.44219954648526	55	127
299.81528344671204	300.14036281179136	50	127
299.81528344671204	300.44219954648526	79	127
299.81528344671204	300.44219954648526	59	127
300.14036281179136	300.3377097505669	48	127
300.3377097505669	300.5699319727891	50	127
300.5699319727891	301.1039909297052	62	127
300.5699319727891	301.1039909297052	79	127
300.5699319727891	300.8021315192744	47	127
300.5699319727891	301.1039909297052	59	127
300.8021315192744	301.0111111111111	45	127
301.0111111111111	301.25489795918367	47	127
301.2433106575964	301.4174603174603	43	127
301.25489795918367	301.75414965986397	65	127
301.25489795918367	301.75414965986397	79	127
301.25489795918367	301.75414965986397	62	127
301.45229024943313	301.6148299319728	42	127
301.6728798185941	301.82380952380953	43	127
301.8818594104308	303.2866666666667	79	127
301.8818594104308	302.1024489795918	48	127
301.8818594104308	303.2866666666667	63	127
301.8818594104308	303.2866666666667	60	127
302.1024489795918	302.3346485260771	51	127
302.3346485260771	302.54362811791384	55	127
302.54362811791384	302.7409977324263	60	127
302.7409977324263	302.9731972789116	63	127
302.9731972789116	303.2866666666667	62	127
303.2866666666667	303.90199546485263	75	127
303.2866666666667	303.90199546485263	67	127
303.2866666666667	303.90199546485263	63	127
303.2866666666667	303.4724263038549	60	127
303.4724263038549	303.70460317460316	59	127
303.70460317460316	303.90199546485263	60	127
303.90199546485263	304.40122448979594	63	127
303.90199546485263	304.0993650793651	55	127
303.90199546485263	304.40122448979594	79	127
303.90199546485263	304.40122448979594	72	127
304.0993650793651	304.29673469387757	54	127
304.29673469387757	304.5173242630386	55	127
304.5173242630386	304.76113378684806	51	127
304.5173242630386	305.0629931972789	79	127
304.5173242630386	305.0629931972789	60	127
304.5173242630386	305.0629931972789	55	127
304.76113378684806	304.9701133786848	50	127
304.9701133786848	305.2835827664399	51	127
305.27197278911564	305.4460997732426	48	127
305.2835827664399	305.77120181405894	79	127
305.2835827664399	305.77120181405894	63	127
305.2835827664399	305.77120181405894	60	127
305.4809523809524	305.6434920634921	47	127
305.6899319727891	305.84086167800456	48	127
305.89891156462585	307.141179138322	43	127
305.89891156462585	305.9453514739229	67	127
305.89891156462585	307.141179138322	59	127
305.89891156462585	307.7448979591837	62	127
305.9569387755102	305.99179138321995	69	127
306.0034013605442	306.038231292517	67	127
306.0498412698413	306.17755102040815	67	127
306.2007709750567	306.3284807256236	69	127
306.35170068027213	306.46777777777777	71	127
306.5026303854875	306.63034013605443	72	127
306.6767573696145	306.7928798185941	74	127
306.83931972789117	306.9554195011338	76	127
306.99024943310656	307.1063492063492	78	127
307.141179138322	307.38496598639455	79	127
307.4546485260771	307.57074829931975	81	127
307.5939455782313	307.72167800453514	83	127
307.7448979591837	307.8726077097506	84	127
307.7448979591837	308.2325170068027	79	127
307.8958276643991	308.023537414966	86	127
308.0467573696145	308.1744671201814	88	127
308.19768707482996	308.3137641723356	90	127
308.34861678004535	309.5444217687075	62	127
308.34861678004535	308.464716553288	91	127
308.34861678004535	308.82460317460317	79	127
308.34861678004535	309.5444217687075	59	127
308.4995464852608	308.61562358276643	90	127
308.6504761904762	308.7665759637188	88	127
308.80140589569163	308.91750566893427	86	127
308.952335600907	309.06843537414966	84	127
308.952335600907	309.42834467120184	79	127
309.10326530612247	309.2193650793651	83	127
309.25419501133786	309.3702947845805	81	127
309.5444217687075	309.69537414965987	83	127
309.5444217687075	310.8215419501134	64	127
309.5444217687075	310.14814058956915	79	127
309.5444217687075	310.8215419501134	61	127
309.69537414965987	309.8462811791383	81	127
309.8462811791383	309.9972335600907	80	127
309.9972335600907	310.14814058956915	81	127
310.14814058956915	310.8215419501134	69	127
310.14814058956915	310.3223129251701	80	127
310.3223129251701	310.496462585034	81	127
310.496462585034	310.64739229024946	80	127
310.64739229024946	310.8215419501134	81	127
310.8215419501134	310.97244897959183	81	127
310.8215419501134	311.4136507936508	69	127
310.8215419501134	312.09861678004535	62	127
310.8215419501134	312.09861678004535	65	127
310.97244897959183	311.1234013605442	85	127
311.1234013605442	311.27430839002267	86	127
311.27430839002267	311.4136507936508	85	127
311.4136507936508	311.9825396825397	77	127
311.4136507936508	311.64585034013606	86	127
311.64585034013606	311.79678004535145	88	127
311.79678004535145	311.9477097505669	89	127
311.9477097505669	312.09861678004535	88	127
312.09861678004535	313.3292970521542	60	127
312.09861678004535	312.24956916099774	89	127
312.09861678004535	312.5862585034014	77	127
312.09861678004535	313.3292970521542	64	127
312.24956916099774	312.4121088435374	88	127
312.4121088435374	312.56303854875284	86	127
312.56303854875284	312.7139455782313	88	127
312.7139455782313	313.2015873015873	77	127
312.7139455782313	312.8648979591837	86	127
312.8648979591837	313.02743764172334	84	127
313.02743764172334	313.143537414966	83	127
313.1783673469388	313.2944671201814	81	127
313.3292970521542	314.5251247165533	59	127
313.3292970521542	313.46861678004535	81	127
313.3292970521542	313.92140589569163	77	127
313.3292970521542	314.5251247165533	62	127
313.46861678004535	313.6195464852608	79	127
313.6195464852608	313.7704761904762	78	127
313.7704761904762	313.92140589569163	79	127
313.92140589569163	314.5251247165533	67	127
313.92140589569163	314.072335600907	78	127
314.072335600907	314.22326530612247	79	127
314.22326530612247	314.37419501133786	81	127
314.37419501133786	314.5251247165533	79	127
314.5251247165533	315.77897959183673	64	127
314.5251247165533	314.6760544217687	79	127
314.5251247165533	315.14045351473925	67	127
314.5251247165533	315.77897959183673	60	127
314.6760544217687	314.82698412698414	83	127
314.82698412698414	314.9895238095238	84	127
314.9895238095238	315.14045351473925	83	127
315.14045351473925	315.29138321995464	84	127
315.14045351473925	315.6512925170068	76	127
315.29138321995464	315.45392290249436	87	127
315.45392290249436	315.616462585034	88	127
315.616462585034	315.77897959183673	87	127
315.77897959183673	317.00965986394556	62	127
315.77897959183673	317.00965986394556	59	127
315.77897959183673	315.9299319727891	88	127
315.77897959183673	316.26662131519276	76	127
315.9299319727891	316.08083900226757	86	127
316.08083900226757	316.23179138321996	84	127
316.23179138321996	316.3826984126984	86	127
316.3826984126984	316.85873015873017	76	127
316.3826984126984	316.5336507936508	84	127
316.5336507936508	316.68458049886624	83	127
316.68458049886624	316.8006575963719	81	127
316.83551020408163	316.9748299319728	79	127
317.00965986394556	318.2054875283447	57	127
317.00965986394556	318.2054875283447	60	127
317.00965986394556	317.160589569161	79	127
317.00965986394556	317.6249886621315	76	127
317.160589569161	317.31149659863945	77	127
317.31149659863945	317.46244897959184	76	127
317.46244897959184	317.6249886621315	77	127
317.6249886621315	318.2054875283447	65	127
317.6249886621315	317.7643083900227	76	127
317.7643083900227	317.90362811791385	77	127
317.90362811791385	318.05455782312924	76	127
318.05455782312924	318.2054875283447	77	127
318.2054875283447	319.49419501133787	62	127
318.2054875283447	318.3796371882086	77	127
318.2054875283447	318.8556462585034	65	127
318.2054875283447	319.49419501133787	59	127
318.3796371882086	318.5421768707483	83	127
318.5421768707483	318.704716553288	86	127
318.704716553288	318.8556462585034	84	127
318.8556462585034	319.49419501133787	74	127
318.8556462585034	319.00657596371883	83	127
319.00657596371883	319.18072562358276	86	127
319.18072562358276	319.3432653061225	89	127
319.3432653061225	319.49419501133787	88	127
319.49419501133787	320.75968253968256	55	127
319.49419501133787	319.6451247165533	86	127
319.49419501133787	320.75968253968256	59	127
319.49419501133787	320.1211337868481	77	127
319.6451247165533	319.7960544217687	84	127
319.7960544217687	319.94698412698415	83	127
319.94698412698415	320.1211337868481	84	127
320.1211337868481	320.28367346938774	83	127
320.1211337868481	320.75968253968256	74	127
320.28367346938774	320.4346031746032	81	127
320.4346031746032	320.57390022675736	79	127
320.6087528344671	320.72485260770975	78	127
320.75968253968256	321.16603174603176	77	127
321.16603174603176	321.4678911564626	76	127
321.4678911564626	322.280589569161	67	127
321.4678911564626	322.280589569161	60	127
321.4678911564626	322.280589569161	48	127
321.4678911564626	324.9160544217687	76	127
322.280589569161	322.76820861678004	67	127
322.280589569161	322.76820861678004	60	127
322.280589569161	322.76820861678004	72	127
322.95396825396824	323.5692970521542	67	127
322.95396825396824	323.5692970521542	60	127
322.95396825396824	323.5692970521542	72	127
323.6853968253968	324.30072562358276	67	127
323.6853968253968	324.30072562358276	60	127
323.6853968253968	324.30072562358276	72	127
324.4284353741497	324.9160544217687	72	127
324.4284353741497	324.9160544217687	67	127
324.4284353741497	324.9160544217687	60	127
325.0553741496599	329.32784580498867	75	127
325.7403628117914	326.5995011337869	44	127
325.7403628117914	326.5995011337869	68	127
325.7403628117914	326.5995011337869	60	127
326.5995011337869	327.06390022675737	68	127
326.5995011337869	327.06390022675737	72	127
326.5995011337869	327.06390022675737	56	127
327.24965986394557	327.76049886621314	68	127
327.24965986394557	327.76049886621314	56	127
327.24965986394557	327.76049886621314	72	127
327.8765986394558	328.3758276643991	72	127
327.8765986394558	328.3758276643991	68	127
327.8765986394558	328.3758276643991	56	127
328.4919274376417	329.0840362811791	68	127
328.4919274376417	329.0840362811791	72	127
328.4919274376417	329.0840362811791	56	127
329.32784580498867	330.24503401360545	68	127
329.32784580498867	329.79224489795916	74	127
329.32784580498867	330.24503401360545	65	127
329.32784580498867	330.24503401360545	53	127
329.9199546485261	330.0360544217687	75	127
330.047664399093	330.15215419501135	74	127
330.1753741496599	330.30308390022674	72	127
330.314693877551	330.8255328798186	74	127
330.8487528344671	330.99968253968257	75	127
330.99968253968257	331.84721088435373	77	127
332.2071201814059	332.7643990929705	71	127
332.2071201814059	332.7643990929705	65	127
332.2071201814059	332.7643990929705	62	127
332.2071201814059	332.7643990929705	55	127
333.47260770975055	334.70326530612243	48	127
333.47260770975055	334.70326530612243	72	127
333.47260770975055	334.70326530612243	63	127
333.47260770975055	334.70326530612243	60	127
335.3418140589569	335.81780045351474	67	127
335.9455328798186	336.4215192743764	67	127
337.0717006802721	337.55931972789114	67	127
337.6754195011338	340.1831746031746	47	127
337.6754195011338	337.87278911564624	67	127
337.87278911564624	338.0701587301587	66	127
338.0701587301587	338.2907482993197	62	127
338.2907482993197	338.4881179138322	67	127
338.4881179138322	338.7087074829932	66	127
338.7087074829932	338.90607709750566	62	127
338.90607709750566	339.1150566893424	67	127
339.1150566893424	339.31242630385486	65	127
339.31242630385486	339.53301587301587	62	127
339.53301587301587	339.73038548752834	67	127
339.53301587301587	340.0554648526077	55	127
339.7419954648526	339.9625850340136	65	127
339.9625850340136	340.17156462585035	62	127
340.17156462585035	340.4618140589569	63	127
340.1831746031746	340.79850340136056	55	127
340.1831746031746	341.62281179138324	48	127
340.4618140589569	340.6940136054422	67	127
340.6940136054422	340.92619047619047	65	127
340.92619047619047	341.1584126984127	63	127
340.92619047619047	341.5067120181406	55	127
341.17002267573696	341.3441723356009	62	127
341.3790022675737	341.57637188208616	60	127
341.62281179138324	347.52068027210885	43	127
341.62281179138324	341.88984126984127	55	127
341.62281179138324	342.3774603174603	59	127
341.88984126984127	342.1336507936508	54	127
342.1336507936508	342.3774603174603	50	127
342.3774603174603	342.6096598639456	55	127
342.3774603174603	343.642947845805	62	127
342.6096598639456	342.80702947845805	54	127
342.80702947845805	343.0043990929705	50	127
343.0043990929705	343.201768707483	55	127
343.201768707483	343.422358276644	53	127
343.422358276644	343.642947845805	50	127
343.642947845805	344.2698866213152	59	127
343.642947845805	343.863537414966	55	127
343.642947845805	344.1421768707483	79	127
343.863537414966	344.0492970521542	53	127
344.0492970521542	344.2698866213152	50	127
344.2698866213152	345.187074829932	60	127
344.2698866213152	344.47886621315195	51	127
344.2698866213152	344.75750566893424	79	127
344.47886621315195	344.6762358276644	55	127
344.6762358276644	344.8736054421769	53	127
344.8736054421769	345.07097505668935	51	127
344.8736054421769	345.4657142857143	79	127
345.0825850340136	345.3728344671202	50	127
345.187074829932	345.4308843537415	62	127
345.38444444444445	345.5469841269841	48	127
345.4308843537415	345.5585941043084	63	127
345.5818140589569	348.14761904761906	59	127
345.5818140589569	345.8140136054422	79	127
345.5818140589569	347.52068027210885	55	127
345.5818140589569	348.14761904761906	62	127
345.8140136054422	346.01138321995467	78	127
346.01138321995467	346.2319727891157	74	127
346.2319727891157	346.4525623582766	79	127
346.4525623582766	346.66154195011336	78	127
346.66154195011336	346.88213151927437	74	127
346.88213151927437	347.0911111111111	79	127
347.0911111111111	347.3233106575964	77	127
347.3233106575964	347.52068027210885	74	127
347.52068027210885	348.0315192743764	55	127
347.52068027210885	348.0315192743764	67	127
347.52068027210885	347.74126984126985	79	127
347.74126984126985	347.9386394557823	77	127
347.9386394557823	348.14761904761906	74	127
348.14761904761906	349.59886621315195	60	127
348.14761904761906	348.4030385487528	75	127
348.14761904761906	348.73972789115646	67	127
348.14761904761906	348.73972789115646	55	127
348.14761904761906	349.59886621315195	63	127
348.4030385487528	348.6352380952381	79	127
348.6352380952381	348.86743764172337	77	127
348.86743764172337	349.42471655328796	67	127
348.86743764172337	349.42471655328796	55	127
348.86743764172337	349.0764172335601	75	127
349.0764172335601	349.33183673469387	74	127
349.34344671201814	349.5408163265306	72	127
349.59886621315195	349.91233560090706	55	127
349.59886621315195	349.91233560090706	67	127
349.59886621315195	349.91233560090706	67	127
349.9239229024943	350.1097052154195	66	127
349.9239229024943	350.1097052154195	66	127
349.9239229024943	350.1097052154195	54	127
350.1212925170068	350.307074829932	62	127
350.1212925170068	350.307074829932	62	127
350.1212925170068	350.307074829932	50	127
350.33027210884353	350.51605442176873	67	127
350.33027210884353	350.51605442176873	67	127
350.33027210884353	350.51605442176873	55	127
350.53925170068027	350.73662131519274	66	127
350.53925170068027	350.73662131519274	66	127
350.53925170068027	350.73662131519274	54	127
350.74825396825395	350.9456009070295	62	127
350.74825396825395	350.9456009070295	62	127
350.74825396825395	350.9456009070295	50	127
350.96884353741495	351.13138321995467	67	127
350.96884353741495	351.13138321995467	67	127
350.96884353741495	351.13138321995467	55	127
351.14297052154194	351.32875283446714	65	127
351.14297052154194	351.32875283446714	65	127
351.14297052154194	351.32875283446714	53	127
351.3519501133787	351.54934240362815	62	127
351.3519501133787	351.54934240362815	62	127
351.3519501133787	351.54934240362815	50	127
351.5725623582766	351.8047619047619	67	127
351.5725623582766	351.8047619047619	67	127
351.5725623582766	351.8047619047619	55	127
351.8163718820862	351.9905215419501	65	127
351.8163718820862	351.9905215419501	65	127
351.8163718820862	351.9905215419501	53	127
352.01374149659864	352.2111111111111	62	127
352.01374149659864	352.2111111111111	62	127
352.01374149659864	352.2111111111111	50	127
352.23433106575965	352.4433106575964	63	127
352.23433106575965	352.4433106575964	63	127
352.23433106575965	352.4433106575964	51	127
352.4665306122449	352.6522902494331	67	127
352.4665306122449	352.6522902494331	67	127
352.4665306122449	352.6522902494331	55	127
352.6639002267574	352.9077097505669	65	127
352.6639002267574	352.9077097505669	65	127
352.6639002267574	352.9077097505669	53	127
352.9309297052154	353.1631292517007	63	127
352.9309297052154	353.1631292517007	63	127
352.9309297052154	353.1631292517007	51	127
353.221179138322	353.4069387755102	62	127
353.221179138322	353.4069387755102	62	127
353.221179138322	353.4069387755102	50	127
353.4301587301587	353.63913832199546	60	127
353.4301587301587	353.63913832199546	60	127
353.4301587301587	353.63913832199546	48	127
353.65074829931973	353.73201814058956	67	127
353.65074829931973	353.73201814058956	67	127
353.65074829931973	353.73201814058956	55	127
353.73201814058956	353.8016553287982	66	127
353.73201814058956	353.8016553287982	66	127
353.73201814058956	353.8016553287982	54	127
353.81326530612245	353.8945578231293	67	127
353.81326530612245	353.8945578231293	67	127
353.81326530612245	353.8945578231293	55	127
353.8945578231293	353.9758276643991	66	127
353.8945578231293	353.9758276643991	66	127
353.8945578231293	353.9758276643991	54	127
353.96421768707484	354.04548752834467	67	127
353.96421768707484	354.04548752834467	67	127
353.96421768707484	354.04548752834467	55	127
354.04548752834467	354.1151247165533	66	127
354.04548752834467	354.1151247165533	66	127
354.04548752834467	354.1151247165533	54	127
354.1151247165533	354.1964172335601	67	127
354.1151247165533	354.1964172335601	67	127
354.1151247165533	354.1964172335601	55	127
354.1964172335601	354.27768707482994	66	127
354.1964172335601	354.27768707482994	66	127
354.1964172335601	354.27768707482994	54	127
354.27768707482994	354.3473469387755	67	127
354.27768707482994	354.3473469387755	67	127
354.27768707482994	354.3473469387755	55	127
354.3473469387755	354.4402267573696	66	127
354.3473469387755	354.4402267573696	66	127
354.3473469387755	354.4402267573696	54	127
354.4402267573696	354.5214739229025	64	127
354.4402267573696	354.5214739229025	64	127
354.4402267573696	354.5214739229025	52	127
354.5214739229025	354.5795464852608	66	127
354.5214739229025	354.5795464852608	66	127
354.5214739229025	354.5795464852608	54	127
354.59115646258505	355.0439455782313	67	127
354.59115646258505	355.0439455782313	67	127
354.59115646258505	355.0439455782313	55	127
355.1600453514739	356.7738095238095	55	127
355.1600453514739	356.7738095238095	43	127
355.1600453514739	356.7738095238095	43	127
357.0292517006803	357.81873015873015	55	127
358.0160997732426	358.2831292517007	55	127
358.3295691609977	359.03777777777776	55	127
359.03777777777776	360.39614512471655	48	127
359.03777777777776	359.6879365079365	40	127
359.03777777777776	360.152335600907	60	127
359.03777777777776	360.39614512471655	55	127
359.6879365079365	360.39614512471655	40	127
360.39614512471655	361.08113378684806	60	127
360.39614512471655	361.08113378684806	40	127
360.39614512471655	361.71968253968254	55	127
360.39614512471655	361.71968253968254	48	127
361.08113378684806	361.71968253968254	64	127
361.08113378684806	361.71968253968254	40	127
361.71968253968254	362.4975283446712	48	127
361.71968253968254	362.4975283446712	60	127
361.71968253968254	362.4975283446712	55	127
361.71968253968254	362.4975283446712	40	127
362.4975283446712	363.89074829931974	59	127
363.240589569161	363.89074829931974	41	127
363.240589569161	364.57573696145124	60	127
363.240589569161	364.57573696145124	48	127
363.89074829931974	364.57573696145124	41	127
363.89074829931974	365.272335600907	57	127
364.57573696145124	365.9457142857143	60	127
364.57573696145124	365.272335600907	41	127
364.57573696145124	365.9457142857143	53	127
365.272335600907	365.9457142857143	41	127
365.272335600907	366.28238095238095	57	127
365.9457142857143	366.61909297052154	61	127
365.9457142857143	366.61909297052154	52	127
365.9457142857143	366.61909297052154	41	127
366.28238095238095	366.61909297052154	57	127
366.61909297052154	367.5478911564626	57	127
367.2344217687075	368.56956916099773	50	127
367.2344217687075	368.56956916099773	62	127
367.2344217687075	367.8961904761905	41	127
367.5478911564626	367.6756009070295	59	127
367.7104081632653	367.8613605442177	60	127
367.8961904761905	368.56956916099773	41	127
367.8961904761905	368.01226757369614	64	127
368.0471201814059	368.1632199546485	62	127
368.19804988662133	368.32573696145124	65	127
368.38380952380953	368.534716553288	64	127
368.56956916099773	369.1848979591837	41	127
368.56956916099773	368.68566893424037	67	127
368.56956916099773	369.1848979591837	50	127
368.56956916099773	369.8698866213152	57	127
368.7088888888889	368.8365759637188	65	127
368.8598185941043	368.9991383219955	69	127
369.022358276644	369.16167800453513	67	127
369.1848979591837	369.8698866213152	41	127
369.1848979591837	369.37065759637187	70	127
369.1848979591837	369.8698866213152	53	127
369.3938775510204	369.5331972789116	69	127
369.56802721088434	369.684126984127	67	127
369.7189569160998	369.8350566893424	65	127
369.8698866213152	370.5200453514739	53	127
369.8698866213152	370.5200453514739	41	127
369.8698866213152	369.9975963718821	64	127
369.8698866213152	370.5200453514739	57	127
370.04403628117916	370.1601133786848	62	127
370.19496598639455	370.3110657596372	65	127
370.34589569161	370.4735827664399	62	127
370.5200453514739	371.6578231292517	60	127
371.33274376417233	372.7491609977324	55	127
371.33274376417233	372.7491609977324	50	127
371.33274376417233	372.0409523809524	43	127
371.6578231292517	371.8551927437642	62	127
371.8551927437642	372.0409523809524	60	127
372.0409523809524	373.45736961451246	59	127
372.0409523809524	372.7491609977324	43	127
372.7491609977324	373.45736961451246	43	127
372.7491609977324	374.0494557823129	59	127
372.7491609977324	374.0494557823129	50	127
373.45736961451246	374.35131519274375	67	127
373.45736961451246	374.0494557823129	43	127
374.0494557823129	374.6531972789116	62	127
374.0494557823129	374.6531972789116	59	127
374.0494557823129	374.6531972789116	53	127
374.35131519274375	374.5602947845805	67	127
374.6531972789116	374.9550566893424	67	127
374.9550566893424	375.34979591836736	72	127
375.36140589569163	375.9302947845805	64	127
375.36140589569163	375.9302947845805	60	127
375.36140589569163	375.9302947845805	52	127
375.66326530612247	375.8722448979592	67	127
375.95351473922904	376.26698412698414	67	127
376.26698412698414	376.53401360544217	74	127
376.5572335600907	377.1841723356009	65	127
376.5572335600907	377.1841723356009	59	127
376.5572335600907	377.1841723356009	50	127
376.89392290249435	377.13773242630384	67	127
377.2538321995465	377.62532879818593	67	127
377.62532879818593	377.93879818594104	76	127
377.95043083900225	378.9604761904762	60	127
377.95043083900225	378.9604761904762	64	127
377.95043083900225	378.9604761904762	48	127
378.4612698412698	378.86761904761903	67	127
378.9604761904762	383.1749206349206	55	127
378.9604761904762	383.1749206349206	65	127
378.9604761904762	383.1749206349206	55	127
378.9604761904762	383.1749206349206	62	127
378.9604761904762	383.1749206349206	47	127
379.43650793650795	379.80802721088435	67	127
379.80802721088435	380.2375963718821	79	127
380.2375963718821	380.57428571428574	77	127
380.57428571428574	380.89936507936505	74	127
380.89936507936505	381.21283446712016	71	127
381.21283446712016	381.5959637188209	67	127
381.5959637188209	381.88621315192745	65	127
381.88621315192745	382.19968253968256	62	127
382.19968253968256	382.53637188208614	59	127
382.53637188208614	382.84984126984125	55	127
382.84984126984125	383.0820408163265	79	127
383.1749206349206	383.8134693877551	79	127
383.70897959183674	384.02244897959184	84	127
384.08049886621313	384.7538775510204	79	127
384.08049886621313	384.7538775510204	67	127
384.08049886621313	384.7538775510204	64	127
384.42879818594105	384.6609977324263	79	127
384.7538775510204	385.05573696145126	79	127
384.7538775510204	385.044126984127	77	127
384.7538775510204	385.044126984127	71	127
384.7538775510204	385.044126984127	62	127
385.05573696145126	385.3459863945578	86	127
385.3575963718821	386.0077551020408	77	127
385.3575963718821	386.0077551020408	71	127
385.3575963718821	386.0077551020408	62	127
385.70589569160995	385.9148752834467	79	127
386.0077551020408	386.41410430839	76	127
386.0077551020408	386.41410430839	72	127
386.0077551020408	386.41410430839	60	127
386.0077551020408	386.42571428571426	79	127
386.42571428571426	386.78562358276645	88	127
386.7972335600907	387.5402721088435	72	127
386.7972335600907	387.5402721088435	76	127
386.7972335600907	387.5402721088435	60	127
387.1803628117914	387.4357823129252	79	127
387.5402721088435	387.9814512471655	74	127
387.5402721088435	387.9814512471655	67	127
387.5402721088435	387.9814512471655	59	127
387.5402721088435	388.00467120181406	79	127
388.00467120181406	388.15560090702945	89	127
388.15560090702945	388.29492063492063	88	127
388.29492063492063	388.42263038548754	91	127
388.42263038548754	388.56195011337866	89	127
388.56195011337866	388.64321995464854	88	127
388.64321995464854	388.70126984126983	86	127
388.70126984126983	388.8521995464853	84	127
388.8521995464853	389.00312925170067	83	127
389.00312925170067	389.1540589569161	86	127
389.1540589569161	389.3049886621315	84	127
389.3049886621315	389.45591836734695	88	127
389.45591836734695	389.60684807256234	86	127
389.60684807256234	389.7577777777778	84	127
389.7577777777778	389.9087074829932	83	127
389.9087074829932	390.0596371882086	81	127
390.0596371882086	390.19895691609975	79	127
390.19895691609975	390.3498866213152	83	127
390.3498866213152	390.50081632653064	81	127
390.50081632653064	390.65174603174603	79	127
390.65174603174603	390.8142857142857	77	127
390.8142857142857	391.0697052154195	76	127
391.0697052154195	391.18580498866214	74	127
391.2206349206349	391.8940136054422	64	127
391.2206349206349	391.8940136054422	70	127
391.2206349206349	391.8940136054422	48	127
391.2206349206349	396.3754648526077	72	127
391.8940136054422	392.4745124716553	64	127
391.8940136054422	392.4745124716553	48	127
391.8940136054422	392.4745124716553	70	127
392.4745124716553	393.08984126984126	65	127
392.4745124716553	393.08984126984126	53	127
392.4745124716553	393.08984126984126	68	127
393.08984126984126	393.71678004535147	65	127
393.08984126984126	393.71678004535147	53	127
393.08984126984126	393.71678004535147	68	127
393.71678004535147	394.4249886621315	60	127
393.71678004535147	394.4249886621315	51	127
393.71678004535147	394.4249886621315	67	127
394.4249886621315	395.0287074829932	60	127
394.4249886621315	395.0287074829932	51	127
394.4249886621315	395.0287074829932	67	127
395.0287074829932	395.67886621315193	66	127
395.0287074829932	395.67886621315193	50	127
395.0287074829932	395.67886621315193	62	127
395.67886621315193	396.3754648526077	66	127
395.67886621315193	396.3754648526077	62	127
395.67886621315193	396.3754648526077	50	127
396.3754648526077	396.9791836734694	65	127
396.3754648526077	396.4799546485261	71	127
396.3754648526077	396.9791836734694	44	127
396.3754648526077	396.9791836734694	62	127
396.4799546485261	396.5728344671202	72	127
396.5728344671202	396.67732426303854	71	127
396.67732426303854	396.77020408163264	72	127
396.77020408163264	396.874693877551	71	127
396.874693877551	396.9791836734694	72	127
396.9791836734694	397.62934240362813	44	127
396.9791836734694	397.0720634920635	71	127
396.9791836734694	397.62934240362813	65	127
396.9791836734694	397.62934240362813	62	127
397.0720634920635	397.1881632653061	72	127
397.1881632653061	397.3274829931973	71	127
397.3274829931973	397.4784126984127	69	127
397.4784126984127	397.62934240362813	71	127
397.62934240362813	398.2795011337868	64	127
397.62934240362813	398.2795011337868	60	127
397.62934240362813	398.2795011337868	45	127
397.62934240362813	398.97609977324265	72	127
398.2795011337868	398.97609977324265	64	127
398.2795011337868	398.97609977324265	60	127
398.2795011337868	398.97609977324265	45	127
398.97609977324265	399.2779591836735	73	127
399.2779591836735	399.93972789115645	74	127
399.62625850340135	400.28802721088437	53	127
399.62625850340135	400.28802721088437	69	127
399.62625850340135	400.28802721088437	60	127
399.93972789115645	400.1138775510204	76	127
400.1138775510204	400.3344671201814	77	127
400.3344671201814	400.6363265306122	81	127
400.6363265306122	401.25165532879817	79	127
400.93818594104306	401.5419047619048	55	127
400.93818594104306	401.5419047619048	64	127
400.93818594104306	401.5419047619048	60	127
401.25165532879817	401.42580498866215	77	127
401.42580498866215	401.57673469387754	76	127
401.57673469387754	401.92503401360545	76	127
401.92503401360545	402.55197278911567	74	127
402.25011337868483	402.877052154195	55	127
402.25011337868483	402.877052154195	65	127
402.25011337868483	402.877052154195	62	127
402.55197278911567	402.7145124716553	72	127
402.7145124716553	402.8538321995465	71	127
402.877052154195	403.5968707482993	72	127
402.877052154195	403.5968707482993	64	127
402.877052154195	403.5968707482993	60	127
402.877052154195	403.5968707482993	60	127
403.5968707482993	404.0496598639456	74	127
403.5968707482993	404.0496598639456	71	127
403.5968707482993	404.2354195011338	67	127
403.5968707482993	404.2354195011338	55	127
404.06126984126985	404.1425396825397	76	127
404.06126984126985	404.1425396825397	72	127
404.1425396825397	404.2238095238095	74	127
404.1425396825397	404.2238095238095	77	127
404.2354195011338	404.87396825396826	67	127
404.2354195011338	404.87396825396826	48	127
404.2354195011338	404.90879818594107	76	127
404.2354195011338	404.90879818594107	72	127
404.90879818594107	405.3615873015873	77	127
404.90879818594107	405.3615873015873	74	127
405.3615873015873	405.43124716553285	79	127
405.3615873015873	405.43124716553285	76	127
405.43124716553285	405.50090702947847	81	127
405.43124716553285	405.50090702947847	77	127
405.51251700680274	406.7663945578231	79	127
405.51251700680274	406.7663945578231	76	127
406.1162358276644	406.54580498866216	43	127
406.56902494331064	406.66190476190474	45	127
406.66190476190474	406.7547845804989	47	127
406.7663945578231	407.50943310657595	48	127
407.50943310657595	408.24086167800453	48	127
407.50943310657595	407.96222222222224	50	127
407.96222222222224	408.1247619047619	52	127
408.1247619047619	408.24086167800453	54	127
408.24086167800453	408.9839002267574	55	127
408.24086167800453	408.9839002267574	47	127
408.9839002267574	410.00557823129253	53	127
408.9839002267574	409.4366893424036	55	127
408.9839002267574	409.6688888888889	47	127
409.4366893424036	409.541179138322	57	127
409.541179138322	409.6688888888889	59	127
409.6688888888889	410.3422675736961	46	127
409.6688888888889	411.6077551020408	60	127
410.00557823129253	410.3422675736961	52	127
410.3422675736961	410.67895691609976	50	127
410.3422675736961	410.9808163265306	46	127
410.3422675736961	410.81827664399094	60	127
410.67895691609976	410.9808163265306	48	127
410.9808163265306	411.9212244897959	65	127
410.9808163265306	411.6077551020408	48	127
410.9808163265306	411.6077551020408	45	127
411.6077551020408	412.234693877551	62	127
411.6077551020408	412.234693877551	57	127
411.6077551020408	412.234693877551	65	127
411.9212244897959	412.01410430839	67	127
412.01410430839	412.13020408163266	69	127
412.13020408163266	412.234693877551	70	127
412.234693877551	412.8848526077098	64	127
412.234693877551	412.8848526077098	58	127
412.234693877551	412.8848526077098	55	127
412.234693877551	413.1867120181406	72	127
412.8848526077098	413.5001814058957	70	127
412.8848526077098	413.5001814058957	60	127
412.8848526077098	413.5001814058957	55	127
413.1867120181406	413.34925170068027	74	127
413.34925170068027	413.5001814058957	76	127
413.5001814058957	414.4986394557823	77	127
413.5001814058957	414.1039002267574	53	127
413.5001814058957	414.1039002267574	60	127
413.5001814058957	414.1039002267574	69	127
414.4986394557823	414.57990929705215	79	127
414.5915192743764	414.67278911564625	81	127
414.6960090702948	414.7772789115646	83	127
414.7888888888889	415.102358276644	84	127
414.7888888888889	415.4622675736961	74	127
414.7888888888889	415.4622675736961	69	127
414.7888888888889	415.4622675736961	53	127
415.102358276644	415.49709750566893	84	127
415.49709750566893	415.79895691609977	81	127
415.79895691609977	416.1008163265306	77	127
416.1008163265306	416.40267573696144	76	127
416.1008163265306	416.68131519274374	72	127
416.1008163265306	416.68131519274374	67	127
416.1008163265306	416.68131519274374	55	127
416.40267573696144	416.71614512471655	81	127
416.71614512471655	417.0992743764172	79	127
417.0992743764172	417.40113378684805	76	127
417.40113378684805	417.7029931972789	74	127
417.40113378684805	418.016462585034	71	127
417.40113378684805	418.016462585034	65	127
417.40113378684805	418.016462585034	43	127
417.7029931972789	418.0512925170068	79	127
418.0512925170068	418.48086167800454	77	127
418.48086167800454	418.7827210884354	74	127
418.7827210884354	419.3748299319728	72	127
418.7827210884354	419.0033106575964	36	127
418.7827210884354	419.3748299319728	64	127
418.7827210884354	419.4096598639456	72	127
419.0033106575964	419.2239002267574	40	127
419.2239002267574	419.4096598639456	41	127
419.4096598639456	419.92049886621317	84	127
419.4096598639456	419.69990929705216	43	127
419.69990929705216	419.92049886621317	45	127
419.92049886621317	420.02498866213153	83	127
419.92049886621317	420.1294784580499	47	127
420.02498866213153	420.1294784580499	81	127
420.1294784580499	421.5691156462585	48	127
420.1294784580499	421.74326530612245	79	127
420.3500680272109	420.6403174603175	52	127
420.6403174603175	420.8609070294785	53	127
420.8609070294785	421.2208163265306	72	127
420.8609070294785	421.0466666666667	55	127
421.0466666666667	421.3485260770975	57	127
421.2324263038549	421.38335600907027	71	127
421.3485260770975	421.5691156462585	59	127
421.4065759637188	421.5691156462585	69	127
421.5691156462585	423.577641723356	67	127
421.5691156462585	421.77809523809526	60	127
421.77809523809526	421.987074829932	77	127
421.77809523809526	421.987074829932	62	127
421.987074829932	422.20766439909295	64	127
421.987074829932	422.20766439909295	76	127
422.20766439909295	422.8926530612245	65	127
422.20766439909295	422.47469387755103	43	127
422.20766439909295	422.30054421768705	76	127
422.3121541950113	422.4050340136054	74	127
422.4050340136054	422.59079365079367	72	127
422.4979138321996	422.61401360544215	45	127
422.59079365079367	422.83460317460316	74	127
422.66045351473923	422.8113832199546	47	127
422.8926530612245	424.28585034013605	64	127
422.8926530612245	423.1248526077097	48	127
422.8926530612245	424.28585034013605	72	127
423.1248526077097	423.38027210884354	52	127
423.38027210884354	423.577641723356	53	127
423.577641723356	424.0536507936508	72	127
423.577641723356	423.78662131519275	55	127
423.78662131519275	424.0536507936508	57	127
424.0536507936508	424.1697505668934	71	127
424.0536507936508	424.28585034013605	59	127
424.1697505668934	424.28585034013605	69	127
424.28585034013605	425.6326077097506	67	127
424.28585034013605	424.50643990929706	60	127
424.50643990929706	424.7038095238095	64	127
424.50643990929706	424.7038095238095	60	127
424.7038095238095	424.9592290249433	59	127
424.7038095238095	424.9592290249433	62	127
424.9592290249433	425.16820861678	57	127
424.9592290249433	425.16820861678	60	127
425.16820861678	425.41201814058957	59	127
425.16820861678	425.41201814058957	55	127
425.41201814058957	425.6326077097506	57	127
425.41201814058957	425.6326077097506	53	127
425.6326077097506	426.3408163265306	52	127
425.6326077097506	426.3408163265306	55	127
425.8531972789116	426.1318367346939	65	127
426.1318367346939	426.3408163265306	64	127
426.3408163265306	426.886485260771	79	127
426.3408163265306	426.4801360544218	64	127
426.3408163265306	427.04902494331066	53	127
426.3408163265306	427.04902494331066	43	127
426.491746031746	426.58462585034016	62	127
426.58462585034016	426.8052154195011	60	127
426.8052154195011	427.0374149659864	62	127
427.04902494331066	427.26961451247166	52	127
427.04902494331066	428.3493424036281	36	127
427.04902494331066	428.3493424036281	84	127
427.04902494331066	427.26961451247166	60	127
427.26961451247166	427.4785941043084	60	127
427.26961451247166	427.4785941043084	64	127
427.4785941043084	427.7572335600907	65	127
427.4785941043084	427.7572335600907	62	127
427.7572335600907	427.989433106576	64	127
427.7572335600907	427.989433106576	67	127
427.989433106576	428.1984126984127	65	127
427.989433106576	428.1984126984127	69	127
428.1984126984127	428.4190022675737	71	127
428.1984126984127	428.4190022675737	62	127
428.4190022675737	428.62798185941045	64	127
428.4190022675737	428.62798185941045	72	127
428.62798185941045	428.8253514739229	76	127
428.62798185941045	428.8253514739229	67	127
428.8253514739229	429.1156009070295	74	127
428.8253514739229	429.1156009070295	65	127
429.1156009070295	429.3942403628118	72	127
429.12721088435376	429.3942403628118	64	127
429.3942403628118	429.59160997732425	62	127
429.3942403628118	429.59160997732425	71	127
429.59160997732425	429.81219954648526	64	127
429.59160997732425	429.81219954648526	72	127
429.81219954648526	431.0660770975057	55	127
429.81219954648526	430.03278911564627	71	127
429.81219954648526	430.03278911564627	62	127
429.81219954648526	429.9282993197279	84	127
429.9282993197279	430.021179138322	83	127
430.021179138322	430.241768707483	74	127
430.021179138322	430.241768707483	71	127
430.03278911564627	430.1488888888889	84	127
430.1488888888889	430.241768707483	83	127
430.241768707483	430.45074829931974	77	127
430.241768707483	430.45074829931974	74	127
430.2533786848073	430.3462585034014	84	127
430.3462585034014	430.45074829931974	83	127
430.45074829931974	430.6481179138322	81	127
430.45074829931974	430.6481179138322	77	127
430.45074829931974	430.54362811791384	84	127
430.5552380952381	430.6481179138322	83	127
430.6481179138322	430.8454875283447	76	127
430.6481179138322	430.8454875283447	79	127
430.6481179138322	430.7409977324263	84	127
430.7526077097506	430.8454875283447	83	127
430.8454875283447	431.0544671201814	77	127
430.8454875283447	431.0544671201814	74	127
430.85709750566895	430.94997732426305	81	127
430.94997732426305	431.0544671201814	83	127
431.0660770975057	432.6102040816327	84	127
431.0660770975057	431.344716553288	76	127
431.0660770975057	431.344716553288	72	127
431.0660770975057	431.7742857142857	60	127
431.344716553288	431.5536961451247	79	127
431.344716553288	431.5536961451247	76	127
431.5536961451247	431.85555555555555	77	127
431.5536961451247	431.85555555555555	74	127
431.8439455782313	432.052925170068	72	127
431.8439455782313	432.052925170068	76	127
432.0645351473923	432.38961451247167	67	127
432.0645351473923	432.4128344671202	76	127
432.4128344671202	432.62181405895694	74	127
432.4128344671202	432.57537414965986	65	127
432.6102040816327	432.8307936507936	72	127
432.6102040816327	432.8307936507936	64	127
432.8424036281179	433.0629931972789	71	127
432.8424036281179	433.0629931972789	67	127
433.0629931972789	433.4693424036281	69	127
433.0629931972789	433.4693424036281	65	127
433.4693424036281	433.6899319727891	67	127
433.4693424036281	433.6899319727891	64	127
433.6899319727891	433.9221315192744	65	127
433.6899319727891	433.9221315192744	62	127
433.9221315192744	434.1891609977324	64	127
433.9221315192744	434.1891609977324	60	127
434.1891609977324	435.8726077097506	59	127
434.1891609977324	434.479410430839	77	127
434.1891609977324	435.8726077097506	55	127
434.1891609977324	435.8726077097506	62	127
434.479410430839	434.74643990929707	74	127
434.74643990929707	435.02507936507936	71	127
435.02507936507936	435.2804988662132	67	127
435.2921088435374	435.5591383219955	69	127
435.57074829931975	435.6752380952381	65	127
435.8726077097506	437.7185941043084	65	127
435.8726077097506	437.7185941043084	62	127
435.8726077097506	437.7185941043084	59	127
435.8726077097506	437.7185941043084	48	127
435.8726077097506	437.7185941043084	55	127
437.7185941043084	438.8215419501134	64	127
437.7185941043084	438.8215419501134	55	127
437.7185941043084	438.8215419501134	60	127
437.7185941043084	438.8215419501134	60	127
437.7185941043084	438.8215419501134	36	127
439.9128798185941	439.9477097505669	55	127
