# onset,offset,note,velocity
1.5665759637188208	3.0294331065759637	74	127
1.5665759637188208	3.0294331065759637	50	127
1.938095238095238	2.1006349206349206	57	127
1.938095238095238	2.1006349206349206	53	127
2.3676643990929707	2.553424036281179	53	127
2.3676643990929707	2.553424036281179	57	127
2.7043537414965986	2.855283446712018	57	127
2.7043537414965986	2.855283446712018	53	127
3.0294331065759637	4.422607709750567	48	127
3.0294331065759637	3.9001814058956916	62	127
3.366122448979592	3.5402721088435376	53	127
3.366122448979592	3.5402721088435376	57	127
3.714421768707483	3.8769614512471655	53	127
3.714421768707483	3.8769614512471655	57	127
4.039501133786848	4.422607709750567	62	127
4.039501133786848	4.225260770975057	57	127
4.039501133786848	4.225260770975057	53	127
4.422607709750567	5.7693877551020405	46	127
4.422607709750567	4.515510204081632	64	127
4.515510204081632	4.585170068027211	62	127
4.585170068027211	4.666439909297052	64	127
4.666439909297052	4.73609977324263	62	127
4.73609977324263	4.875419501133787	58	127
4.73609977324263	4.875419501133787	53	127
4.73609977324263	4.805759637188209	64	127
4.805759637188209	4.875419501133787	62	127
4.875419501133787	5.072766439909297	61	127
5.072766439909297	5.235328798185941	58	127
5.072766439909297	5.235328798185941	53	127
5.072766439909297	5.421065759637188	62	127
5.455918367346939	5.6184580498866215	58	127
5.455918367346939	5.6184580498866215	53	127
5.455918367346939	5.746167800453515	62	127
5.7693877551020405	7.116145124716553	45	127
5.7693877551020405	6.791065759637188	62	127
6.106077097505669	6.268616780045352	57	127
6.106077097505669	6.268616780045352	65	127
6.431156462585034	6.582086167800454	57	127
6.431156462585034	6.791065759637188	65	127
6.791065759637188	7.116145124716553	62	127
6.791065759637188	7.116145124716553	77	127
6.791065759637188	6.953605442176871	57	127
7.116145124716553	7.975283446712018	77	127
7.116145124716553	8.404852607709751	43	127
7.499274376417233	7.801133786848072	62	127
7.499274376417233	7.650204081632653	58	127
7.801133786848072	7.975283446712018	58	127
7.801133786848072	8.126213151927438	61	127
7.975283446712018	8.126213151927438	76	127
8.126213151927438	8.404852607709751	64	127
8.126213151927438	8.253922902494331	74	127
8.126213151927438	8.253922902494331	58	127
8.253922902494331	8.404852607709751	73	127
8.404852607709751	9.798049886621316	45	127
8.404852607709751	9.113061224489796	70	127
8.729931972789116	8.904081632653062	61	127
8.729931972789116	8.904081632653062	52	127
9.113061224489796	9.333650793650794	52	127
9.113061224489796	9.333650793650794	61	127
9.113061224489796	9.484580498866213	69	127
9.484580498866213	9.798049886621316	67	127
9.484580498866213	9.647120181405896	61	127
9.484580498866213	9.647120181405896	52	127
9.798049886621316	9.97219954648526	65	127
9.798049886621316	10.45981859410431	38	127
9.798049886621316	10.45981859410431	50	127
9.798049886621316	9.97219954648526	62	127
10.16954648526077	10.483038548752834	67	127
10.16954648526077	10.483038548752834	70	127
10.483038548752834	10.796507936507936	65	127
10.483038548752834	10.796507936507936	69	127
10.796507936507936	11.133197278911565	68	127
10.796507936507936	11.133197278911565	64	127
11.133197278911565	11.435056689342403	65	127
11.133197278911565	11.725283446712018	69	127
11.435056689342403	11.76013605442177	67	127
11.435056689342403	11.76013605442177	64	127
11.76013605442177	12.189705215419501	65	127
11.76013605442177	12.189705215419501	62	127
12.189705215419501	12.503174603174603	61	127
12.189705215419501	12.503174603174603	64	127
12.503174603174603	12.944353741496599	62	127
12.503174603174603	13.919591836734694	86	127
12.503174603174603	12.944353741496599	62	127
12.944353741496599	13.188163265306123	62	127
12.944353741496599	13.188163265306123	65	127
12.944353741496599	13.188163265306123	69	127
13.362312925170068	13.513242630385488	65	127
13.362312925170068	13.513242630385488	62	127
13.362312925170068	13.513242630385488	69	127
13.617732426303855	13.768662131519275	65	127
13.617732426303855	13.768662131519275	69	127
13.617732426303855	13.768662131519275	62	127
13.919591836734694	15.01092970521542	74	127
14.233061224489797	14.430430839002268	66	127
14.233061224489797	14.430430839002268	60	127
14.233061224489797	14.430430839002268	69	127
14.59297052154195	14.801950113378684	69	127
14.59297052154195	14.801950113378684	66	127
14.59297052154195	14.801950113378684	60	127
15.01092970521542	15.16185941043084	66	127
15.01092970521542	15.16185941043084	69	127
15.01092970521542	15.16185941043084	60	127
15.01092970521542	15.31278911564626	74	127
15.31278911564626	15.3940589569161	76	127
15.3940589569161	15.463718820861677	74	127
15.463718820861677	15.54498866213152	76	127
15.54498866213152	15.614648526077097	74	127
15.614648526077097	15.788798185941044	62	127
15.614648526077097	15.684308390022675	76	127
15.614648526077097	15.788798185941044	67	127
15.614648526077097	15.788798185941044	59	127
15.684308390022675	15.788798185941044	74	127
15.788798185941044	15.939727891156462	73	127
15.939727891156462	16.090657596371884	62	127
15.939727891156462	16.090657596371884	67	127
15.939727891156462	16.090657596371884	59	127
15.939727891156462	16.276394557823128	74	127
16.276394557823128	16.717573696145124	62	127
16.276394557823128	16.717573696145124	67	127
16.276394557823128	16.717573696145124	59	127
16.276394557823128	16.868526077097506	74	127
16.868526077097506	17.785714285714285	74	127
17.15875283446712	17.309705215419502	77	127
17.15875283446712	17.309705215419502	68	127
17.15875283446712	17.309705215419502	58	127
17.46063492063492	17.623174603174604	58	127
17.46063492063492	17.785714285714285	77	127
17.46063492063492	17.623174603174604	68	127
17.785714285714285	18.087573696145125	74	127
17.785714285714285	17.936643990929706	58	127
17.785714285714285	18.087573696145125	89	127
17.785714285714285	17.936643990929706	68	127
18.087573696145125	19.318208616780044	57	127
18.087573696145125	18.760952380952382	68	127
18.087573696145125	18.900272108843538	89	127
18.087573696145125	18.900272108843538	74	127
18.760952380952382	19.39950113378685	69	127
18.900272108843538	19.062789115646257	73	127
18.900272108843538	19.062789115646257	88	127
19.062789115646257	19.225351473922903	86	127
19.062789115646257	19.225351473922903	77	127
19.225351473922903	19.39950113378685	76	127
19.225351473922903	19.39950113378685	85	127
19.39950113378685	20.003219954648525	82	127
19.39950113378685	20.003219954648525	79	127
19.724580498866214	20.003219954648525	57	127
20.003219954648525	20.316689342403627	59	127
20.003219954648525	20.316689342403627	81	127
20.003219954648525	20.316689342403627	77	127
20.316689342403627	20.618548752834467	76	127
20.316689342403627	20.618548752834467	61	127
20.316689342403627	20.78108843537415	79	127
20.618548752834467	20.966825396825396	69	127
20.618548752834467	20.966825396825396	62	127
20.78108843537415	20.966825396825396	77	127
20.966825396825396	21.12938775510204	76	127
20.966825396825396	21.12938775510204	70	127
20.966825396825396	21.338367346938774	55	127
21.12938775510204	21.338367346938774	67	127
21.12938775510204	21.338367346938774	82	127
21.338367346938774	21.50090702947846	67	127
21.338367346938774	21.50090702947846	82	127
21.338367346938774	21.721496598639455	57	127
21.50090702947846	21.721496598639455	81	127
21.50090702947846	21.721496598639455	65	127
21.721496598639455	22.046553287981858	57	127
21.721496598639455	21.88403628117914	73	127
21.721496598639455	21.88403628117914	64	127
21.88403628117914	22.046553287981858	67	127
21.88403628117914	22.046553287981858	76	127
22.046553287981858	22.696734693877552	62	127
22.046553287981858	22.696734693877552	74	127
22.046553287981858	22.696734693877552	65	127
22.371655328798187	22.592244897959183	57	127
22.74315192743764	22.940544217687076	53	127
23.103083900226757	23.33528344671202	50	127
23.462993197278912	23.764852607709752	45	127
23.462993197278912	24.356961451247166	57	127
23.764852607709752	24.07832199546485	57	127
24.07832199546485	24.356961451247166	57	127
24.356961451247166	24.64721088435374	74	127
24.356961451247166	24.64721088435374	81	127
24.356961451247166	24.64721088435374	65	127
24.356961451247166	24.64721088435374	57	127
24.64721088435374	24.740090702947846	81	127
24.64721088435374	24.75170068027211	65	127
24.64721088435374	25.378639455782313	74	127
24.64721088435374	25.076780045351473	57	127
24.75170068027211	24.83297052154195	79	127
24.75170068027211	24.83297052154195	64	127
24.83297052154195	24.902630385487527	81	127
24.83297052154195	24.902630385487527	65	127
24.902630385487527	25.076780045351473	64	127
24.902630385487527	25.076780045351473	79	127
25.076780045351473	25.158049886621317	62	127
25.076780045351473	25.378639455782313	57	127
25.076780045351473	25.158049886621317	78	127
25.158049886621317	25.227709750566895	64	127
25.158049886621317	25.227709750566895	79	127
25.227709750566895	25.355419501133788	81	127
25.227709750566895	25.378639455782313	65	127
25.378639455782313	25.75015873015873	82	127
25.378639455782313	25.75015873015873	73	127
25.378639455782313	25.75015873015873	67	127
25.378639455782313	25.75015873015873	57	127
25.75015873015873	26.09845804988662	67	127
25.75015873015873	25.924308390022677	73	127
25.75015873015873	25.924308390022677	70	127
25.75015873015873	26.09845804988662	57	127
26.09845804988662	26.260997732426304	69	127
26.09845804988662	26.423537414965985	65	127
26.09845804988662	26.423537414965985	57	127
26.09845804988662	26.260997732426304	74	127
26.423537414965985	26.609297052154194	76	127
26.423537414965985	26.760226757369615	69	127
26.423537414965985	26.760226757369615	64	127
26.423537414965985	26.760226757369615	61	127
26.760226757369615	27.038866213151927	62	127
26.760226757369615	27.062086167800455	79	127
26.760226757369615	27.062086167800455	76	127
26.760226757369615	27.062086167800455	62	127
27.062086167800455	27.36394557823129	56	127
27.062086167800455	27.131746031746033	79	127
27.062086167800455	27.131746031746033	76	127
27.131746031746033	27.20140589569161	74	127
27.131746031746033	27.20140589569161	77	127
27.20140589569161	27.28267573696145	73	127
27.20140589569161	27.28267573696145	76	127
27.28267573696145	27.36394557823129	77	127
27.28267573696145	27.36394557823129	74	127
27.36394557823129	27.944444444444443	76	127
27.36394557823129	27.689024943310656	57	127
27.36394557823129	27.944444444444443	73	127
27.700634920634922	27.828344671201815	69	127
27.828344671201815	27.979274376417234	68	127
27.979274376417234	28.11859410430839	69	127
28.11859410430839	28.443673469387754	68	127
28.443673469387754	28.594603174603176	69	127
28.594603174603176	28.745532879818594	68	127
28.745532879818594	29.65111111111111	57	127
28.745532879818594	29.07061224489796	45	127
28.745532879818594	29.65111111111111	69	127
29.07061224489796	29.360861678004536	57	127
29.360861678004536	29.65111111111111	57	127
29.65111111111111	29.98780045351474	81	127
29.65111111111111	29.98780045351474	86	127
29.65111111111111	29.98780045351474	65	127
29.65111111111111	29.98780045351474	57	127
29.98780045351474	30.103900226757368	65	127
29.98780045351474	30.63795918367347	86	127
29.98780045351474	30.103900226757368	81	127
29.98780045351474	30.324489795918367	57	127
30.103900226757368	30.17356009070295	64	127
30.103900226757368	30.17356009070295	79	127
30.17356009070295	30.243219954648527	81	127
30.17356009070295	30.243219954648527	65	127
30.243219954648527	30.324489795918367	64	127
30.243219954648527	30.324489795918367	79	127
30.324489795918367	30.394149659863945	62	127
30.324489795918367	30.63795918367347	57	127
30.324489795918367	30.394149659863945	78	127
30.394149659863945	30.48702947845805	64	127
30.394149659863945	30.48702947845805	79	127
30.48702947845805	30.63795918367347	65	127
30.48702947845805	30.63795918367347	81	127
30.63795918367347	30.951428571428572	85	127
30.63795918367347	30.951428571428572	82	127
30.63795918367347	30.951428571428572	67	127
30.63795918367347	30.951428571428572	57	127
30.951428571428572	31.346167800453514	67	127
30.951428571428572	31.183628117913834	82	127
30.951428571428572	31.183628117913834	73	127
30.951428571428572	31.346167800453514	57	127
31.346167800453514	31.70607709750567	57	127
31.346167800453514	31.497097505668933	81	127
31.346167800453514	31.497097505668933	74	127
31.346167800453514	31.70607709750567	65	127
31.70607709750567	32.0427664399093	61	127
31.70607709750567	31.89183673469388	76	127
31.70607709750567	32.43750566893424	69	127
31.70607709750567	31.89183673469388	79	127
32.0427664399093	32.14725623582766	79	127
32.0427664399093	32.43750566893424	76	127
32.0427664399093	32.43750566893424	62	127
32.14725623582766	32.21691609977324	77	127
32.21691609977324	32.36784580498866	79	127
32.36784580498866	32.43750566893424	77	127
32.43750566893424	32.62326530612245	79	127
32.43750566893424	32.86707482993197	56	127
32.43750566893424	32.62326530612245	76	127
32.43750566893424	32.86707482993197	71	127
32.62326530612245	32.716145124716554	77	127
32.62326530612245	32.716145124716554	74	127
32.716145124716554	32.78578231292517	73	127
32.716145124716554	32.78578231292517	76	127
32.78578231292517	32.86707482993197	77	127
32.78578231292517	32.86707482993197	74	127
32.86707482993197	33.435963718820865	57	127
32.86707482993197	33.01800453514739	76	127
32.86707482993197	33.435963718820865	64	127
32.86707482993197	33.482403628117915	73	127
33.01800453514739	33.180521541950114	80	127
33.180521541950114	33.3314739229025	81	127
33.3314739229025	33.482403628117915	80	127
33.482403628117915	33.62172335600907	81	127
33.62172335600907	33.84231292517007	80	127
33.84231292517007	34.028072562358275	77	127
33.84231292517007	34.028072562358275	81	127
34.028072562358275	34.190589569161	74	127
34.028072562358275	34.190589569161	77	127
34.190589569161	34.32993197278912	73	127
34.190589569161	34.469251700680275	76	127
34.32993197278912	34.48086167800454	68	127
34.48086167800454	34.62018140589569	69	127
34.62018140589569	34.794331065759636	68	127
34.794331065759636	34.92204081632653	69	127
34.92204081632653	35.07294784580499	68	127
35.07294784580499	35.235510204081635	69	127
35.07294784580499	35.235510204081635	65	127
35.235510204081635	35.398049886621315	65	127
35.235510204081635	35.398049886621315	62	127
35.398049886621315	35.57219954648526	61	127
35.398049886621315	35.734739229024946	64	127
35.57219954648526	35.74634920634921	56	127
35.74634920634921	35.92049886621315	57	127
35.92049886621315	36.117868480725626	56	127
36.117868480725626	36.268798185941044	57	127
36.268798185941044	36.47775510204082	56	127
36.47775510204082	36.651927437641724	57	127
36.47775510204082	36.651927437641724	53	127
36.651927437641724	36.83768707482993	53	127
36.651927437641724	36.83768707482993	50	127
36.83768707482993	37.00022675736962	49	127
36.83768707482993	37.11632653061225	52	127
37.00022675736962	37.13954648526077	44	127
37.13954648526077	37.302086167800454	45	127
37.302086167800454	37.52267573696145	44	127
37.52267573696145	37.685215419501134	45	127
37.685215419501134	37.83614512471655	44	127
37.83614512471655	38.0102947845805	45	127
38.0102947845805	38.2424716553288	41	127
38.2424716553288	38.997142857142855	82	127
38.2424716553288	38.997142857142855	72	127
38.2424716553288	38.997142857142855	64	127
38.2424716553288	38.997142857142855	79	127
38.2424716553288	38.997142857142855	60	127
38.2424716553288	38.997142857142855	48	127
38.2424716553288	38.997142857142855	40	127
39.19451247165533	39.821451247165534	60	127
39.19451247165533	39.821451247165534	58	127
39.19451247165533	39.821451247165534	55	127
39.19451247165533	39.821451247165534	52	127
40.00721088435374	40.50643990929705	60	127
40.00721088435374	40.50643990929705	57	127
40.00721088435374	40.50643990929705	53	127
40.00721088435374	40.50643990929705	51	127
40.50643990929705	40.93600907029479	60	127
40.50643990929705	40.93600907029479	57	127
40.50643990929705	40.93600907029479	53	127
40.50643990929705	40.93600907029479	51	127
41.307528344671205	41.470068027210885	62	127
41.307528344671205	41.470068027210885	58	127
41.307528344671205	41.470068027210885	53	127
41.307528344671205	41.470068027210885	50	127
41.620997732426304	41.9692970521542	62	127
41.620997732426304	41.9692970521542	59	127
41.620997732426304	42.24793650793651	53	127
41.620997732426304	42.24793650793651	45	127
41.9692970521542	42.20149659863946	63	127
41.9692970521542	42.20149659863946	60	127
42.665895691609975	42.80521541950113	63	127
42.665895691609975	42.80521541950113	60	127
42.665895691609975	42.80521541950113	57	127
42.665895691609975	43.29283446712018	65	127
42.956145124716556	43.29283446712018	58	127
42.956145124716556	43.29283446712018	58	127
42.956145124716556	43.64113378684807	62	127
43.29283446712018	43.64113378684807	57	127
43.29283446712018	43.64113378684807	60	127
43.29283446712018	43.64113378684807	66	127
43.64113378684807	43.954580498866214	67	127
43.64113378684807	43.954580498866214	64	127
43.64113378684807	43.954580498866214	58	127
43.64113378684807	43.954580498866214	55	127
43.954580498866214	44.32612244897959	69	127
43.954580498866214	44.32612244897959	65	127
43.954580498866214	44.32612244897959	57	127
43.954580498866214	44.32612244897959	53	127
44.32612244897959	44.84854875283447	60	127
44.32612244897959	44.61637188208617	72	127
44.32612244897959	44.84854875283447	55	127
44.32612244897959	44.84854875283447	52	127
44.61637188208617	44.81374149659864	70	127
45.185260770975056	45.54517006802721	52	127
45.185260770975056	45.54517006802721	70	127
45.185260770975056	45.54517006802721	67	127
45.185260770975056	45.54517006802721	60	127
45.54517006802721	45.939909297052154	65	127
45.54517006802721	45.939909297052154	69	127
45.54517006802721	45.939909297052154	53	127
45.54517006802721	47.158956916099775	65	127
45.939909297052154	46.56684807256236	67	127
45.939909297052154	46.56684807256236	70	127
46.23015873015873	46.56684807256236	53	127
46.56684807256236	47.21700680272109	71	127
46.56684807256236	47.21700680272109	68	127
46.91514739229025	47.21700680272109	53	127
47.21700680272109	47.55369614512472	65	127
47.21700680272109	47.96004535147392	72	127
47.21700680272109	47.96004535147392	69	127
47.55369614512472	47.96004535147392	64	127
47.55369614512472	47.96004535147392	53	127
47.96004535147392	49.074603174603176	73	127
47.96004535147392	48.354784580498865	63	127
47.96004535147392	49.074603174603176	69	127
48.354784580498865	49.074603174603176	62	127
48.354784580498865	48.99333333333333	46	127
49.074603174603176	49.26036281179138	76	127
49.074603174603176	49.26036281179138	72	127
49.26036281179138	49.4112925170068	74	127
49.26036281179138	49.4112925170068	70	127
49.4112925170068	49.78281179138322	46	127
49.4112925170068	49.62027210884354	72	127
49.4112925170068	49.62027210884354	69	127
49.4112925170068	49.62027210884354	55	127
49.62027210884354	49.78281179138322	67	127
49.62027210884354	49.78281179138322	62	127
49.62027210884354	49.78281179138322	70	127
49.78281179138322	50.421360544217684	69	127
49.78281179138322	50.374920634920635	60	127
49.78281179138322	50.421360544217684	65	127
49.78281179138322	50.421360544217684	48	127
50.421360544217684	50.816099773242634	67	127
50.421360544217684	50.816099773242634	64	127
50.421360544217684	51.094739229024945	60	127
51.094739229024945	51.26888888888889	59	127
51.26888888888889	51.32693877551021	60	127
51.32693877551021	51.39659863945578	59	127
51.39659863945578	51.477868480725625	60	127
51.477868480725625	51.5475283446712	59	127
51.5475283446712	51.628798185941044	60	127
51.628798185941044	51.69845804988662	59	127
51.69845804988662	51.77972789115646	60	127
51.77972789115646	51.84938775510204	59	127
51.84938775510204	52.511156462585035	65	127
51.84938775510204	51.953877551020405	60	127
51.84938775510204	52.18607709750567	74	127
51.953877551020405	52.03514739229025	59	127
52.03514739229025	52.11641723356009	60	127
52.11641723356009	52.18607709750567	59	127
52.18607709750567	52.511156462585035	67	127
52.18607709750567	52.25573696145125	60	127
52.25573696145125	52.33700680272109	59	127
52.33700680272109	52.406666666666666	57	127
52.406666666666666	52.49954648526077	59	127
52.511156462585035	53.010385487528346	67	127
52.511156462585035	53.010385487528346	64	127
52.511156462585035	53.114875283446715	60	127
53.010385487528346	53.18453514739229	69	127
53.010385487528346	53.18453514739229	65	127
53.18453514739229	53.50961451247166	67	127
53.18453514739229	53.50961451247166	64	127
53.18453514739229	53.69537414965986	48	127
53.69537414965986	53.881133786848075	49	127
53.881133786848075	53.974013605442174	51	127
53.974013605442174	54.043673469387755	49	127
54.043673469387755	54.13655328798186	51	127
54.13655328798186	54.2178231292517	49	127
54.2178231292517	54.32231292517007	51	127
54.32231292517007	54.46163265306122	49	127
54.46163265306122	54.55451247165533	51	127
54.55451247165533	54.63578231292517	49	127
54.63578231292517	54.972471655328796	68	127
54.63578231292517	54.71705215419501	51	127
54.63578231292517	54.972471655328796	77	127
54.71705215419501	54.79832199546485	49	127
54.79832199546485	54.89120181405896	51	127
54.89120181405896	54.972471655328796	49	127
54.972471655328796	55.30916099773243	65	127
54.972471655328796	55.04213151927438	51	127
54.972471655328796	55.30916099773243	71	127
55.04213151927438	55.135011337868484	49	127
55.135011337868484	55.20467120181406	48	127
55.20467120181406	55.2859410430839	49	127
55.30916099773243	56.005759637188206	65	127
55.30916099773243	55.97092970521542	48	127
55.30916099773243	56.005759637188206	71	127
55.64585034013606	55.796780045351476	48	127
56.005759637188206	56.30761904761905	72	127
56.005759637188206	56.31922902494331	60	127
56.005759637188206	56.30761904761905	64	127
56.31922902494331	56.493378684807254	58	127
56.64430839002267	58.76893424036281	60	127
56.64430839002267	57.46861678004535	58	127
57.050657596371884	57.27124716553288	65	127
57.46861678004535	57.77047619047619	77	127
57.46861678004535	58.095555555555556	57	127
57.77047619047619	57.92140589569161	75	127
58.095555555555556	59.80222222222222	65	127
58.095555555555556	58.76893424036281	75	127
58.42063492063492	58.61800453514739	46	127
58.76893424036281	59.082403628117916	73	127
58.76893424036281	59.082403628117916	58	127
58.76893424036281	59.082403628117916	58	127
59.082403628117916	59.4307029478458	72	127
59.082403628117916	59.26816326530612	56	127
59.082403628117916	59.4307029478458	60	127
59.4307029478458	60.8471201814059	62	127
59.4307029478458	60.17374149659864	72	127
59.4307029478458	60.8471201814059	55	127
59.80222222222222	59.96476190476191	55	127
60.17374149659864	60.8471201814059	71	127
60.17374149659864	60.52204081632653	67	127
60.52204081632653	60.68458049886621	65	127
60.8471201814059	62.228707482993194	70	127
60.8471201814059	61.59015873015873	65	127
60.8471201814059	62.844036281179136	48	127
61.17219954648526	61.40439909297052	67	127
61.59015873015873	61.93845804988662	64	127
61.59015873015873	61.93845804988662	79	127
61.93845804988662	62.53056689342404	62	127
61.93845804988662	62.077777777777776	77	127
62.228707482993194	62.844036281179136	77	127
62.53056689342404	62.69310657596372	79	127
62.53056689342404	62.844036281179136	60	127
62.844036281179136	63.19233560090703	69	127
62.844036281179136	63.19233560090703	84	127
62.844036281179136	63.401315192743766	48	127
62.844036281179136	63.19233560090703	76	127
63.19233560090703	63.401315192743766	82	127
63.19233560090703	63.401315192743766	72	127
63.19233560090703	63.401315192743766	67	127
63.401315192743766	63.505804988662135	50	127
63.505804988662135	63.610294784580496	52	127
63.610294784580496	63.91215419501134	65	127
63.610294784580496	63.7031746031746	80	127
63.610294784580496	63.91215419501134	72	127
63.610294784580496	63.91215419501134	53	127
63.7031746031746	63.772834467120184	81	127
63.935374149659864	64.00503401360544	76	127
64.00503401360544	64.08630385487528	77	127
64.2372335600907	64.59714285714286	65	127
64.2372335600907	64.59714285714286	46	127
64.2372335600907	64.31850340136054	73	127
64.2372335600907	64.59714285714286	67	127
64.31850340136054	64.38816326530612	74	127
64.60875283446713	64.70163265306122	66	127
64.70163265306122	64.7712925170068	67	127
64.92222222222222	65.27052154195012	65	127
64.92222222222222	65.27052154195012	60	127
64.92222222222222	65.1195918367347	72	127
64.92222222222222	65.27052154195012	45	127
65.1195918367347	65.18925170068027	74	127
65.18925170068027	65.27052154195012	72	127
65.27052154195012	65.34018140589569	71	127
65.27052154195012	65.72331065759637	62	127
65.27052154195012	65.72331065759637	58	127
65.27052154195012	65.72331065759637	46	127
65.34018140589569	65.47950113378685	72	127
65.47950113378685	65.618820861678	74	127
65.72331065759637	66.0715873015873	57	127
65.72331065759637	66.0715873015873	48	127
65.72331065759637	66.0715873015873	65	127
65.72331065759637	66.0715873015873	60	127
66.0715873015873	66.25736961451247	48	127
66.0715873015873	66.41990929705216	64	127
66.0715873015873	66.41990929705216	58	127
66.0715873015873	66.41990929705216	55	127
66.41990929705216	67.162947845805	65	127
66.41990929705216	67.162947845805	41	127
66.721768707483	66.87269841269841	57	127
66.721768707483	66.87269841269841	53	127
66.87269841269841	67.04684807256236	65	127
66.87269841269841	67.04684807256236	57	127
67.04684807256236	67.1281179138322	65	127
67.04684807256236	67.1281179138322	57	127
67.19777777777777	67.36031746031746	57	127
67.19777777777777	67.36031746031746	65	127
67.36031746031746	67.51124716553288	65	127
67.36031746031746	67.51124716553288	57	127
67.51124716553288	67.68539682539682	65	127
67.51124716553288	67.68539682539682	57	127
67.68539682539682	67.84793650793651	57	127
67.68539682539682	67.84793650793651	65	127
67.84793650793651	68.49807256235827	45	127
67.84793650793651	68.53292517006803	65	127
67.99886621315193	68.16140589569162	60	127
67.99886621315193	68.16140589569162	57	127
68.16140589569162	68.37036281179138	65	127
68.16140589569162	68.37036281179138	60	127
68.37036281179138	68.46326530612245	65	127
68.37036281179138	68.46326530612245	60	127
68.53292517006803	68.7302947845805	65	127
68.53292517006803	68.7302947845805	60	127
68.53292517006803	68.7302947845805	64	127
68.7302947845805	68.88120181405895	65	127
68.7302947845805	68.88120181405895	60	127
68.88120181405895	69.0437641723356	70	127
68.88120181405895	69.0437641723356	65	127
68.88120181405895	69.0437641723356	60	127
69.0437641723356	69.31079365079366	69	127
69.0437641723356	69.31079365079366	65	127
69.0437641723356	69.31079365079366	60	127
69.31079365079366	69.64746031746031	69	127
69.31079365079366	70.21637188208616	46	127
69.4849433106576	69.64746031746031	62	127
69.4849433106576	69.64746031746031	55	127
69.64746031746031	70.05383219954649	65	127
69.64746031746031	70.05383219954649	62	127
69.64746031746031	70.14671201814059	67	127
70.05383219954649	70.14671201814059	62	127
70.05383219954649	70.14671201814059	65	127
70.25120181405896	70.43696145124717	65	127
70.25120181405896	70.43696145124717	62	127
70.43696145124717	70.58789115646259	65	127
70.43696145124717	70.58789115646259	62	127
70.58789115646259	70.73882086167801	65	127
70.58789115646259	70.73882086167801	62	127
70.73882086167801	70.88975056689343	65	127
70.73882086167801	70.88975056689343	62	127
70.88975056689343	71.02904761904762	66	127
70.88975056689343	71.44702947845805	48	127
71.02904761904762	71.18	58	127
71.02904761904762	71.18	67	127
71.02904761904762	71.18	55	127
71.18	71.33092970521542	64	127
71.18	71.33092970521542	58	127
71.18	71.33092970521542	69	127
71.33092970521542	71.4121768707483	64	127
71.33092970521542	71.4121768707483	58	127
71.33092970521542	71.48185941043084	67	127
71.48185941043084	71.70244897959184	64	127
71.48185941043084	71.70244897959184	70	127
71.48185941043084	71.70244897959184	58	127
71.70244897959184	71.87659863945578	69	127
71.70244897959184	71.87659863945578	64	127
71.70244897959184	71.87659863945578	58	127
71.87659863945578	72.0275283446712	74	127
71.87659863945578	72.0275283446712	64	127
71.87659863945578	72.0275283446712	58	127
72.0275283446712	72.19006802721088	64	127
72.0275283446712	72.19006802721088	72	127
72.0275283446712	72.19006802721088	58	127
72.19006802721088	72.97954648526077	50	127
72.19006802721088	72.64285714285714	70	127
72.48031746031747	72.64285714285714	53	127
72.48031746031747	72.64285714285714	57	127
72.64285714285714	72.85183673469388	65	127
72.64285714285714	72.85183673469388	57	127
72.64285714285714	72.93310657596372	69	127
72.85183673469388	72.93310657596372	57	127
72.85183673469388	72.93310657596372	65	127
73.02598639455782	73.2233560090703	65	127
73.02598639455782	73.2233560090703	57	127
73.2233560090703	73.37428571428572	65	127
73.2233560090703	73.37428571428572	57	127
73.37428571428572	73.54843537414966	65	127
73.37428571428572	73.54843537414966	57	127
73.54843537414966	73.69936507936508	65	127
73.54843537414966	73.69936507936508	57	127
73.69936507936508	74.41918367346939	77	127
73.69936507936508	74.3843537414966	45	127
73.86190476190477	74.03605442176871	57	127
73.86190476190477	74.03605442176871	60	127
74.03605442176871	74.22181405895692	60	127
74.03605442176871	74.22181405895692	65	127
74.22181405895692	74.2914739229025	60	127
74.22181405895692	74.2914739229025	65	127
74.41918367346939	74.5817006802721	65	127
74.41918367346939	74.5817006802721	76	127
74.41918367346939	74.5817006802721	60	127
74.5817006802721	74.76748299319728	77	127
74.5817006802721	74.76748299319728	65	127
74.5817006802721	74.76748299319728	60	127
74.76748299319728	75.01129251700681	65	127
74.76748299319728	75.01129251700681	82	127
74.76748299319728	75.01129251700681	60	127
75.01129251700681	75.17383219954648	81	127
75.01129251700681	75.17383219954648	65	127
75.01129251700681	75.17383219954648	60	127
75.17383219954648	75.61501133786848	81	127
75.17383219954648	75.95170068027211	46	127
75.37120181405896	75.61501133786848	55	127
75.37120181405896	75.61501133786848	62	127
75.61501133786848	75.81238095238095	62	127
75.61501133786848	75.81238095238095	65	127
75.61501133786848	76.13746031746032	79	127
75.81238095238095	75.91687074829932	65	127
75.81238095238095	75.91687074829932	62	127
75.98650793650793	76.13746031746032	62	127
75.98650793650793	76.13746031746032	65	127
76.13746031746032	76.28839002267574	77	127
76.13746031746032	76.28839002267574	65	127
76.13746031746032	76.28839002267574	62	127
76.28839002267574	76.43931972789116	76	127
76.28839002267574	76.43931972789116	62	127
76.28839002267574	76.43931972789116	65	127
76.43931972789116	76.59024943310658	74	127
76.43931972789116	76.59024943310658	65	127
76.43931972789116	76.59024943310658	62	127
76.59024943310658	77.20557823129252	48	127
76.59024943310658	76.95015873015873	74	127
76.76439909297052	76.95015873015873	55	127
76.76439909297052	76.95015873015873	58	127
76.95015873015873	77.10108843537415	64	127
76.95015873015873	77.10108843537415	58	127
76.95015873015873	77.5887074829932	72	127
77.10108843537415	77.17074829931973	64	127
77.10108843537415	77.17074829931973	58	127
77.25201814058957	77.5887074829932	64	127
77.25201814058957	77.5887074829932	58	127
77.5887074829932	77.79768707482994	70	127
77.5887074829932	77.79768707482994	64	127
77.5887074829932	77.79768707482994	58	127
77.79768707482994	77.94861678004536	64	127
77.79768707482994	77.94861678004536	58	127
77.79768707482994	77.94861678004536	69	127
77.94861678004536	78.09954648526077	67	127
77.94861678004536	78.09954648526077	64	127
77.94861678004536	78.09954648526077	58	127
78.09954648526077	78.78453514739229	53	127
78.09954648526077	78.18081632653062	65	127
78.09954648526077	78.18081632653062	57	127
78.09954648526077	78.78453514739229	65	127
78.32013605442177	78.48267573696145	69	127
78.32013605442177	78.48267573696145	65	127
78.48267573696145	78.64519274376417	67	127
78.48267573696145	78.64519274376417	64	127
78.64519274376417	78.81936507936508	65	127
78.64519274376417	78.81936507936508	62	127
78.81936507936508	79.08639455782313	61	127
78.81936507936508	79.08639455782313	64	127
79.08639455782313	79.33020408163266	65	127
79.08639455782313	79.33020408163266	62	127
79.33020408163266	79.48113378684808	64	127
79.33020408163266	79.48113378684808	60	127
79.48113378684808	79.66687074829932	62	127
79.48113378684808	79.66687074829932	58	127
79.66687074829932	80.40990929705215	45	127
79.66687074829932	79.73655328798186	57	127
79.66687074829932	79.8178231292517	60	127
79.66687074829932	80.17770975056689	65	127
79.8178231292517	80.02678004535147	60	127
80.10807256235827	80.17770975056689	65	127
80.10807256235827	80.28219954648526	60	127
80.21256235827664	80.3518820861678	64	127
80.28219954648526	80.37510204081633	60	127
80.3518820861678	80.4447619047619	65	127
80.4447619047619	80.52603174603175	57	127
80.4447619047619	80.5724716553288	69	127
80.4447619047619	80.80467120181406	65	127
80.5724716553288	80.71179138321996	67	127
80.61891156462585	80.73501133786849	60	127
80.71179138321996	80.80467120181406	65	127
80.80467120181406	81.21102040816326	60	127
80.80467120181406	80.95560090702948	72	127
80.80467120181406	80.8859410430839	65	127
80.95560090702948	81.08331065759637	70	127
81.00204081632653	81.11814058956917	60	127
81.08331065759637	81.21102040816326	69	127
81.21102040816326	81.36195011337868	57	127
81.21102040816326	81.9192290249433	46	127
81.21102040816326	81.60575963718821	66	127
81.4315873015873	81.50126984126985	62	127
81.60575963718821	81.80312925170068	62	127
81.60575963718821	81.68700680272109	65	127
81.60575963718821	81.861179138322	67	127
81.80312925170068	81.861179138322	62	127
81.9540589569161	82.33718820861678	74	127
81.9540589569161	82.10498866213152	57	127
82.18625850340136	82.25591836734694	62	127
82.33718820861678	82.62743764172336	67	127
82.33718820861678	82.40684807256235	65	127
82.47650793650794	82.55777777777777	62	127
82.62743764172336	83.23115646258503	48	127
82.62743764172336	82.70868480725623	55	127
82.62743764172336	82.73192743764173	82	127
82.73192743764173	82.84802721088435	81	127
82.78997732426303	82.88285714285715	60	127
82.84802721088435	82.95251700680272	79	127
82.95251700680272	83.06859410430839	77	127
82.95251700680272	83.04539682539682	64	127
82.95251700680272	83.11505668934241	60	127
83.06859410430839	83.16149659863946	76	127
83.11505668934241	83.19630385487528	60	127
83.16149659863946	83.26598639455783	74	127
83.26598639455783	83.45172335600907	72	127
83.26598639455783	83.39369614512472	55	127
83.26598639455783	83.74199546485261	70	127
83.45172335600907	83.62589569160998	71	127
83.57943310657596	83.64911564625851	60	127
83.62589569160998	83.74199546485261	72	127
83.74199546485261	83.82326530612245	64	127
83.74199546485261	83.85807256235827	73	127
83.74199546485261	84.05546485260771	67	127
83.85807256235827	83.95097505668934	74	127
83.9045351473923	83.97419501133787	60	127
83.95097505668934	84.05546485260771	70	127
84.05546485260771	84.36893424036282	68	127
84.05546485260771	84.65918367346939	50	127
84.05546485260771	84.12512471655329	53	127
84.21798185941043	84.28766439909298	57	127
84.36893424036282	84.69401360544218	62	127
84.36893424036282	84.45020408163265	65	127
84.36893424036282	84.6243537414966	69	127
84.55469387755102	84.6243537414966	57	127
84.70562358276644	84.78689342403628	53	127
84.70562358276644	85.01909297052154	74	127
84.86816326530612	84.94943310657597	57	127
85.01909297052154	85.10036281179138	65	127
85.01909297052154	85.40222222222222	69	127
85.17002267573696	85.32095238095238	57	127
85.40222222222222	85.52993197278911	65	127
85.40222222222222	85.50671201814059	57	127
85.40222222222222	86.20331065759638	45	127
85.52993197278911	85.65764172335601	69	127
85.59959183673469	85.77374149659865	60	127
85.65764172335601	85.85501133786848	72	127
85.85501133786848	86.01755102040816	77	127
85.85501133786848	86.07560090702948	60	127
85.85501133786848	85.92467120181406	65	127
86.01755102040816	86.12204081632653	81	127
86.07560090702948	86.15687074829933	60	127
86.12204081632653	86.23814058956916	84	127
86.23814058956916	86.30780045351474	57	127
86.23814058956916	86.33102040816327	89	127
86.23814058956916	86.54	72	127
86.33102040816327	86.43551020408164	88	127
86.38904761904762	86.45873015873016	60	127
86.43551020408164	86.54	86	127
86.54	86.6328798185941	84	127
86.54	86.60965986394558	65	127
86.54	86.8534693877551	69	127
86.6328798185941	86.760589569161	82	127
86.71414965986395	86.78380952380952	60	127
86.760589569161	86.8534693877551	81	127
86.8534693877551	87.53843537414966	46	127
86.8534693877551	86.93473922902494	55	127
86.8534693877551	86.98117913832199	79	127
86.98117913832199	87.09727891156463	81	127
87.02759637188208	87.12049886621315	62	127
87.09727891156463	87.19015873015873	78	127
87.19015873015873	87.36430839002267	79	127
87.19015873015873	87.27142857142857	65	127
87.19015873015873	87.42235827664399	62	127
87.36430839002267	87.42235827664399	82	127
87.42235827664399	87.50362811791383	62	127
87.48040816326531	87.52684807256236	81	127
87.57328798185941	87.7358276643991	55	127
87.57328798185941	87.75904761904762	82	127
87.57328798185941	87.95641723356009	74	127
87.75904761904762	87.85192743764172	81	127
87.80548752834467	87.88675736961451	62	127
87.85192743764172	87.95641723356009	79	127
87.95641723356009	88.28147392290249	70	127
87.95641723356009	88.0260544217687	65	127
87.95641723356009	88.03768707482993	77	127
88.08412698412698	88.16539682539683	76	127
88.13056689342403	88.20022675736962	62	127
88.1770068027211	88.25827664399092	74	127
88.28147392290249	88.62979591836735	65	127
88.28147392290249	88.37437641723356	72	127
88.28147392290249	88.62979591836735	69	127
88.37437641723356	88.52530612244898	74	127
88.52530612244898	88.62979591836735	71	127
88.62979591836735	89.36122448979592	65	127
88.62979591836735	88.72267573696145	72	127
88.62979591836735	88.94326530612246	60	127
88.62979591836735	88.94326530612246	45	127
88.72267573696145	88.82716553287982	77	127
88.82716553287982	88.94326530612246	65	127
88.94326530612246	89.36122448979592	46	127
88.94326530612246	89.02453514739229	67	127
88.94326530612246	89.36122448979592	62	127
89.02453514739229	89.09419501133787	69	127
89.09419501133787	89.29156462585034	67	127
89.29156462585034	89.36122448979592	69	127
89.36122448979592	89.73274376417234	48	127
89.36122448979592	89.46571428571428	67	127
89.36122448979592	89.53537414965986	60	127
89.36122448979592	89.73274376417234	64	127
89.46571428571428	89.53537414965986	69	127
89.53537414965986	89.6514739229025	65	127
89.53537414965986	89.73274376417234	58	127
89.6514739229025	89.73274376417234	67	127
89.73274376417234	90.52222222222223	65	127
89.73274376417234	91.33492063492064	57	127
89.73274376417234	90.10426303854875	53	127
89.73274376417234	90.48739229024943	65	127
90.10426303854875	90.82408163265306	51	127
90.52222222222223	91.33492063492064	66	127
90.82408163265306	91.09108843537415	50	127
91.10272108843537	91.31170068027211	48	127
91.33492063492064	91.71804988662132	62	127
91.33492063492064	91.50907029478458	67	127
91.33492063492064	91.50907029478458	46	127
91.71804988662132	91.95024943310658	66	127
91.71804988662132	91.95024943310658	69	127
91.71804988662132	91.95024943310658	45	127
92.11278911564627	92.26371882086168	70	127
92.11278911564627	92.26371882086168	67	127
92.11278911564627	92.26371882086168	43	127
92.4146485260771	92.58879818594104	72	127
92.4146485260771	92.58879818594104	69	127
92.4146485260771	92.58879818594104	41	127
92.75133786848073	92.93709750566893	73	127
92.75133786848073	92.93709750566893	69	127
92.93709750566893	93.13446712018141	74	127
92.93709750566893	93.13446712018141	70	127
93.13446712018141	93.21571428571428	62	127
93.13446712018141	93.21571428571428	70	127
93.13446712018141	93.55242630385487	46	127
93.3898866213152	93.45954648526077	58	127
93.3898866213152	93.45954648526077	67	127
93.55242630385487	93.93555555555555	65	127
93.55242630385487	93.93555555555555	57	127
93.55242630385487	94.26061224489796	48	127
93.93555555555555	94.26061224489796	64	127
93.93555555555555	94.26061224489796	55	127
94.26061224489796	94.66698412698413	57	127
94.26061224489796	94.66698412698413	53	127
94.26061224489796	95.11977324263039	77	127
94.26061224489796	95.11977324263039	65	127
94.66698412698413	95.52612244897959	72	127
94.66698412698413	95.52612244897959	63	127
95.11977324263039	95.82798185941043	66	127
95.11977324263039	95.82798185941043	78	127
95.52612244897959	95.74671201814058	70	127
95.52612244897959	95.74671201814058	62	127
95.74671201814058	95.82798185941043	60	127
95.74671201814058	95.82798185941043	69	127
95.82798185941043	95.97891156462585	74	127
95.82798185941043	95.97891156462585	79	127
95.82798185941043	95.97891156462585	67	127
95.82798185941043	95.97891156462585	58	127
96.17628117913833	96.32721088435375	66	127
96.17628117913833	96.32721088435375	81	127
96.17628117913833	96.32721088435375	69	127
96.17628117913833	96.32721088435375	57	127
96.52458049886621	96.73356009070295	55	127
96.52458049886621	96.73356009070295	82	127
96.52458049886621	96.73356009070295	70	127
96.52458049886621	96.73356009070295	67	127
96.93092970521542	97.0934693877551	69	127
96.93092970521542	97.0934693877551	84	127
96.93092970521542	97.0934693877551	72	127
96.93092970521542	97.0934693877551	53	127
97.29083900226757	97.46498866213152	73	127
97.29083900226757	97.46498866213152	85	127
97.29083900226757	97.46498866213152	69	127
97.46498866213152	97.6275283446712	74	127
97.46498866213152	97.6275283446712	86	127
97.46498866213152	97.6275283446712	70	127
97.6275283446712	97.96421768707484	46	127
97.6275283446712	97.69718820861678	82	127
97.6275283446712	97.69718820861678	70	127
97.6275283446712	97.69718820861678	62	127
97.8132879818594	97.88294784580499	79	127
97.8132879818594	97.88294784580499	67	127
97.8132879818594	97.88294784580499	58	127
97.96421768707484	98.62598639455783	48	127
97.96421768707484	98.30090702947845	77	127
97.96421768707484	98.30090702947845	65	127
97.96421768707484	98.30090702947845	57	127
98.30090702947845	98.62598639455783	76	127
98.30090702947845	98.62598639455783	64	127
98.30090702947845	98.62598639455783	55	127
98.62598639455783	98.97428571428571	57	127
98.62598639455783	98.77691609977325	65	127
98.62598639455783	98.97428571428571	41	127
98.62598639455783	98.97428571428571	77	127
98.77691609977325	98.88140589569161	69	127
98.88140589569161	98.98589569160998	72	127
98.98589569160998	99.06716553287981	72	127
99.11360544217688	99.16004535147393	72	127
99.20648526077098	99.27614512471655	72	127
99.38063492063492	99.55478458049886	76	127
99.38063492063492	99.50834467120181	72	127
99.38063492063492	99.55478458049886	70	127
99.50834467120181	99.60122448979592	72	127
99.60122448979592	99.70571428571428	72	127
99.70571428571428	99.85664399092971	76	127
99.70571428571428	99.79859410430839	72	127
99.70571428571428	99.85664399092971	70	127
99.79859410430839	99.90308390022676	72	127
99.90308390022676	99.99596371882086	72	127
100.01918367346939	100.19333333333333	77	127
100.01918367346939	100.13528344671202	72	127
100.01918367346939	100.19333333333333	69	127
100.13528344671202	100.23977324263039	72	127
100.23977324263039	100.6112925170068	72	127
100.6112925170068	100.76222222222222	77	127
100.6112925170068	100.71578231292517	72	127
100.6112925170068	100.76222222222222	69	127
100.71578231292517	100.8318820861678	72	127
100.8318820861678	100.92476190476191	72	127
100.92476190476191	101.08730158730158	79	127
100.92476190476191	101.02925170068028	72	127
100.92476190476191	101.08730158730158	64	127
101.02925170068028	101.1453514739229	72	127
101.1453514739229	101.43560090702948	72	127
101.43560090702948	101.5865306122449	64	127
101.43560090702948	101.51687074829933	81	127
101.43560090702948	101.54009070294785	72	127
101.51687074829933	101.5865306122449	79	127
101.54009070294785	101.63297052154195	72	127
101.5865306122449	101.679410430839	77	127
101.63297052154195	101.74907029478459	72	127
101.679410430839	101.74907029478459	79	127
101.74907029478459	101.9	81	127
101.74907029478459	101.85356009070294	72	127
101.74907029478459	101.9	65	127
101.85356009070294	101.94643990929706	77	127
101.94643990929706	102.05092970521542	77	127
102.05092970521542	102.22507936507937	82	127
102.05092970521542	102.17863945578232	77	127
102.05092970521542	102.22507936507937	62	127
102.17863945578232	102.30634920634921	77	127
102.30634920634921	102.41083900226758	77	127
102.41083900226758	102.64303854875284	84	127
102.41083900226758	102.58498866213152	77	127
102.41083900226758	102.64303854875284	57	127
102.58498866213152	102.68947845804989	77	127
102.68947845804989	102.80557823129251	77	127
102.80557823129251	102.95650793650793	86	127
102.80557823129251	102.89845804988663	77	127
102.80557823129251	102.95650793650793	58	127
102.89845804988663	102.99133786848073	77	127
103.00294784580498	103.17709750566894	77	127
103.1887074829932	103.38607709750566	57	127
103.1887074829932	103.33963718820861	77	127
103.1887074829932	103.38607709750566	86	127
103.33963718820861	103.44412698412698	77	127
103.38607709750566	103.5370068027211	84	127
103.44412698412698	103.5370068027211	77	127
103.5370068027211	103.61827664399092	82	127
103.5370068027211	103.67632653061224	77	127
103.5370068027211	103.7227664399093	62	127
103.67632653061224	103.79242630385488	77	127
103.7227664399093	103.8156462585034	81	127
103.79242630385488	103.88530612244898	77	127
103.88530612244898	104.18716553287982	81	127
103.88530612244898	103.98979591836735	77	127
103.88530612244898	104.0362358276644	60	127
103.98979591836735	104.08267573696145	79	127
104.08267573696145	104.18716553287982	77	127
104.18716553287982	104.33809523809524	48	127
104.18716553287982	104.25682539682539	81	127
104.18716553287982	104.29165532879819	76	127
104.25682539682539	104.33809523809524	79	127
104.29165532879819	104.38453514739228	74	127
104.33809523809524	104.40775510204081	77	127
104.38453514739228	104.48902494331065	76	127
104.40775510204081	104.48902494331065	79	127
104.48902494331065	104.76766439909296	77	127
104.48902494331065	104.58190476190477	53	127
104.58190476190477	104.68639455782314	57	127
104.68639455782314	104.79088435374149	60	127
104.79088435374149	104.86054421768708	60	127
104.8837641723356	105.16240362811791	60	127
105.18562358276644	105.30172335600908	60	127
105.3249433106576	105.5107029478458	64	127
105.3249433106576	105.42943310657597	60	127
105.3249433106576	105.5107029478458	58	127
105.4526530612245	105.5455328798186	60	127
105.56875283446712	105.6384126984127	60	127
105.66163265306122	105.88222222222223	64	127
105.66163265306122	105.78934240362811	60	127
105.66163265306122	105.88222222222223	58	127
105.83578231292518	105.90544217687075	60	127
105.94027210884354	106.03315192743764	60	127
106.05637188208617	106.16086167800454	60	127
106.05637188208617	106.23052154195011	65	127
106.05637188208617	106.23052154195011	57	127
106.18408163265306	106.25374149659864	60	127
106.28857142857143	106.3930612244898	60	127
106.41628117913832	106.56721088435374	65	127
106.41628117913832	106.4859410430839	60	127
106.41628117913832	106.56721088435374	57	127
106.52077097505669	106.59043083900227	60	127
106.66009070294784	106.81102040816326	60	127
106.8342403628118	106.98517006802722	67	127
106.8342403628118	106.90390022675737	60	127
106.8342403628118	106.98517006802722	52	127
106.9271201814059	107.00839002267574	60	127
107.03160997732427	107.11287981859411	60	127
107.13609977324263	107.28702947845805	52	127
107.13609977324263	107.20575963718821	69	127
107.13609977324263	107.20575963718821	60	127
107.20575963718821	107.28702947845805	67	127
107.22897959183673	107.31024943310658	60	127
107.28702947845805	107.3682993197279	65	127
107.34507936507937	107.43795918367347	60	127
107.3682993197279	107.47278911564626	67	127
107.47278911564626	107.91396825396825	69	127
107.47278911564626	107.60049886621316	60	127
107.47278911564626	107.75142857142858	53	127
107.62371882086168	107.78625850340136	65	127
107.82108843537415	107.89074829931972	65	127
107.91396825396825	108.09972789115646	50	127
107.91396825396825	108.01845804988662	65	127
107.91396825396825	108.09972789115646	70	127
108.04167800453514	108.12294784580499	65	127
108.15777777777778	108.22743764172336	65	127
108.25065759637188	108.33192743764172	65	127
108.25065759637188	108.4015873015873	72	127
108.25065759637188	108.4015873015873	45	127
108.35514739229025	108.42480725623582	65	127
108.44802721088435	108.54090702947846	65	127
108.57573696145124	108.76149659863945	74	127
108.57573696145124	108.66861678004535	65	127
108.57573696145124	108.76149659863945	46	127
108.7150566893424	108.79632653061225	65	127
108.81954648526077	108.91242630385487	65	127
108.94725623582767	109.30716553287982	45	127
108.94725623582767	109.02852607709751	65	127
108.94725623582767	109.12140589569161	74	127
109.05174603174603	109.14462585034013	65	127
109.12140589569161	109.30716553287982	72	127
109.16784580498866	109.2839455782313	65	127
109.30716553287982	109.70190476190476	50	127
109.30716553287982	109.3768253968254	70	127
109.30716553287982	109.3768253968254	65	127
109.41165532879819	109.57419501133786	65	127
109.55097505668934	109.62063492063493	69	127
109.59741496598639	109.66707482993198	65	127
109.70190476190476	109.79478458049887	65	127
109.70190476190476	110.01537414965986	69	127
109.70190476190476	110.01537414965986	48	127
109.79478458049887	109.9108843537415	67	127
109.9108843537415	110.01537414965986	65	127
110.01537414965986	110.15469387755103	64	127
110.01537414965986	110.10825396825396	69	127
110.01537414965986	110.37528344671202	36	127
110.10825396825396	110.20113378684808	67	127
110.15469387755103	110.2591836734694	62	127
110.20113378684808	110.29401360544217	65	127
110.2591836734694	110.37528344671202	64	127
110.29401360544217	110.37528344671202	67	127
110.37528344671202	111.02544217687075	41	127
110.37528344671202	111.02544217687075	65	127
110.37528344671202	111.02544217687075	65	127
110.47977324263039	110.58426303854876	77	127
110.58426303854876	110.7235827664399	81	127
110.7235827664399	110.83968253968254	84	127
110.83968253968254	110.90934240362812	84	127
110.95578231292517	111.01383219954648	84	127
111.06027210884353	111.31569160997732	84	127
111.55950113378685	111.80331065759637	72	127
111.55950113378685	111.80331065759637	82	127
111.55950113378685	111.91941043083901	60	127
111.81492063492064	111.91941043083901	79	127
111.81492063492064	111.91941043083901	69	127
111.93102040816326	112.7669387755102	65	127
111.93102040816326	112.7669387755102	53	127
111.93102040816326	112.7669387755102	77	127
112.0471201814059	112.16321995464853	65	127
112.16321995464853	112.34897959183674	69	127
112.34897959183674	112.46507936507936	72	127
112.46507936507936	112.52312925170068	72	127
112.66244897959184	112.72049886621315	72	127
112.7669387755102	112.92947845804989	72	127
113.10362811791383	113.5215873015873	48	127
113.10362811791383	113.4287074829932	70	127
113.10362811791383	113.4287074829932	55	127
113.4287074829932	113.5215873015873	67	127
113.4287074829932	113.5215873015873	52	127
113.5215873015873	114.64775510204082	41	127
113.5215873015873	113.91632653061224	65	127
113.5215873015873	113.91632653061224	53	127
113.67251700680272	113.78861678004534	60	127
113.78861678004534	113.91632653061224	65	127
113.91632653061224	114.10208616780045	60	127
113.91632653061224	114.03242630385488	69	127
113.91632653061224	114.10208616780045	53	127
114.03242630385488	114.10208616780045	69	127
114.1485260770975	114.21818594104309	69	127
114.2762358276644	114.45038548752835	69	127
114.2762358276644	114.6245351473923	60	127
114.2762358276644	114.6245351473923	53	127
114.64775510204082	115.01927437641723	53	127
115.01927437641723	116.24993197278911	53	127
115.13537414965987	115.29791383219954	62	127
115.29791383219954	115.44884353741497	68	127
115.44884353741497	115.5649433106576	71	127
115.44884353741497	115.63460317460317	68	127
115.44884353741497	115.63460317460317	62	127
115.5649433106576	115.63460317460317	71	127
115.69265306122449	115.75070294784581	71	127
115.84358276643991	115.93646258503401	71	127
115.84358276643991	116.23832199546486	68	127
115.84358276643991	116.23832199546486	62	127
116.24993197278911	116.73755102040816	52	127
116.73755102040816	117.86371882086168	52	127
116.8536507936508	117.01619047619047	64	127
117.01619047619047	117.14390022675737	67	127
117.14390022675737	117.23678004535148	73	127
117.14390022675737	117.28321995464853	67	127
117.14390022675737	117.28321995464853	58	127
117.23678004535148	117.28321995464853	73	127
117.3528798185941	117.41092970521542	73	127
117.480589569161	117.84049886621315	67	127
117.480589569161	117.67795918367347	73	127
117.480589569161	117.84049886621315	57	127
117.86371882086168	118.87378684807257	57	127
118.87378684807257	120.23215419501133	74	127
118.87378684807257	120.23215419501133	50	127
119.18725623582766	119.34979591836735	57	127
119.18725623582766	119.34979591836735	53	127
119.51233560090704	119.69809523809523	53	127
119.51233560090704	119.69809523809523	57	127
119.87224489795918	120.08122448979591	57	127
119.87224489795918	120.08122448979591	53	127
120.23215419501133	121.83433106575964	48	127
120.23215419501133	121.1841723356009	62	127
120.55723356009071	120.71977324263038	57	127
120.55723356009071	120.71977324263038	53	127
120.9055328798186	121.10290249433106	53	127
120.9055328798186	121.10290249433106	57	127
121.32349206349207	121.60213151927438	57	127
121.32349206349207	121.60213151927438	53	127
121.32349206349207	121.83433106575964	62	127
121.83433106575964	123.27396825396825	46	127
121.83433106575964	121.90399092970522	64	127
121.90399092970522	121.97365079365079	62	127
121.97365079365079	122.05492063492063	64	127
122.05492063492063	122.159410430839	62	127
122.159410430839	122.24068027210885	64	127
122.159410430839	122.31034013605442	58	127
122.159410430839	122.31034013605442	53	127
122.24068027210885	122.31034013605442	62	127
122.31034013605442	122.50770975056689	61	127
122.50770975056689	122.76312925170068	53	127
122.50770975056689	122.93727891156463	62	127
122.50770975056689	122.76312925170068	58	127
122.98371882086168	123.1346485260771	53	127
122.98371882086168	123.23913832199547	62	127
122.98371882086168	123.1346485260771	58	127
123.27396825396825	124.66716553287982	45	127
123.27396825396825	124.2956462585034	62	127
123.59904761904762	123.78480725623582	65	127
123.59904761904762	123.78480725623582	57	127
123.95895691609978	124.09827664399093	57	127
123.95895691609978	124.2956462585034	65	127
124.2956462585034	124.46979591836735	57	127
124.2956462585034	124.66716553287982	77	127
124.2956462585034	124.66716553287982	62	127
124.66716553287982	126.00231292517007	43	127
124.66716553287982	125.50308390022676	77	127
125.02707482993198	125.34054421768707	62	127
125.02707482993198	125.18961451247165	58	127
125.34054421768707	125.50308390022676	58	127
125.34054421768707	125.66562358276644	61	127
125.50308390022676	125.66562358276644	76	127
125.66562358276644	125.81655328798186	58	127
125.66562358276644	126.00231292517007	64	127
125.66562358276644	125.81655328798186	74	127
125.81655328798186	126.00231292517007	73	127
126.00231292517007	127.4071201814059	45	127
126.00231292517007	126.74535147392291	70	127
126.4318820861678	126.58281179138322	52	127
126.4318820861678	126.58281179138322	61	127
126.74535147392291	127.058820861678	69	127
126.74535147392291	126.90789115646258	61	127
126.74535147392291	126.90789115646258	52	127
127.058820861678	127.22136054421769	61	127
127.058820861678	127.22136054421769	52	127
127.058820861678	127.4071201814059	67	127
127.4071201814059	127.56965986394557	65	127
127.4071201814059	127.56965986394557	62	127
127.4071201814059	128.1269387755102	50	127
127.4071201814059	128.1269387755102	38	127
127.72058956916099	128.18498866213153	70	127
127.72058956916099	128.18498866213153	67	127
128.18498866213153	128.52167800453515	69	127
128.18498866213153	128.52167800453515	65	127
128.52167800453515	128.8815873015873	68	127
128.52167800453515	128.8815873015873	64	127
128.8815873015873	129.21825396825398	65	127
128.8815873015873	129.5433560090703	69	127
129.21825396825398	129.57818594104307	67	127
129.21825396825398	129.57818594104307	64	127
129.57818594104307	129.89165532879818	65	127
129.57818594104307	129.89165532879818	62	127
129.89165532879818	130.37927437641724	61	127
129.89165532879818	130.37927437641724	64	127
130.37927437641724	130.72757369614513	62	127
130.37927437641724	130.72757369614513	62	127
130.37927437641724	131.9001814058957	86	127
130.72757369614513	130.9249433106576	65	127
130.72757369614513	130.9249433106576	62	127
130.72757369614513	130.9249433106576	69	127
131.25002267573697	131.4009523809524	65	127
131.25002267573697	131.4009523809524	62	127
131.25002267573697	131.4009523809524	69	127
131.5518820861678	131.74925170068028	65	127
131.5518820861678	131.74925170068028	69	127
131.5518820861678	131.74925170068028	62	127
131.9001814058957	132.86380952380952	74	127
132.2136507936508	132.3761904761905	60	127
132.2136507936508	132.3761904761905	69	127
132.2136507936508	132.3761904761905	66	127
132.5271201814059	132.67804988662132	66	127
132.5271201814059	132.67804988662132	60	127
132.5271201814059	132.67804988662132	69	127
132.86380952380952	133.01473922902494	69	127
132.86380952380952	133.01473922902494	66	127
132.86380952380952	133.01473922902494	60	127
132.86380952380952	133.30496598639456	74	127
133.30496598639456	133.39786848072563	76	127
133.39786848072563	133.4675283446712	74	127
133.4675283446712	133.54879818594105	76	127
133.54879818594105	133.6184580498866	74	127
133.6184580498866	133.69972789115647	76	127
133.6184580498866	133.83904761904762	59	127
133.6184580498866	133.83904761904762	62	127
133.6184580498866	133.83904761904762	67	127
133.69972789115647	133.83904761904762	74	127
133.83904761904762	134.01319727891158	73	127
134.01319727891158	134.4079365079365	62	127
134.01319727891158	134.4079365079365	59	127
134.01319727891158	134.5936961451247	74	127
134.01319727891158	134.4079365079365	67	127
134.5936961451247	134.74462585034013	62	127
134.5936961451247	134.74462585034013	67	127
134.5936961451247	134.74462585034013	59	127
134.5936961451247	134.90716553287982	74	127
134.90716553287982	135.975283446712	74	127
135.24385487528346	135.46444444444444	68	127
135.24385487528346	135.46444444444444	58	127
135.24385487528346	135.46444444444444	77	127
135.65020408163267	135.975283446712	77	127
135.65020408163267	135.81272108843538	68	127
135.65020408163267	135.81272108843538	58	127
135.975283446712	136.12621315192743	58	127
135.975283446712	136.28875283446712	89	127
135.975283446712	136.28875283446712	74	127
135.975283446712	136.12621315192743	68	127
136.28875283446712	136.8924716553288	68	127
136.28875283446712	137.4497505668934	57	127
136.28875283446712	137.0434013605442	89	127
136.28875283446712	137.0434013605442	74	127
136.8924716553288	137.519410430839	69	127
137.0434013605442	137.2059410430839	73	127
137.0434013605442	137.2059410430839	88	127
137.2059410430839	137.36848072562358	86	127
137.2059410430839	137.36848072562358	77	127
137.36848072562358	137.519410430839	85	127
137.36848072562358	137.519410430839	76	127
137.519410430839	138.1463492063492	79	127
137.519410430839	138.1463492063492	82	127
137.8328798185941	138.1463492063492	57	127
138.1463492063492	138.51784580498867	81	127
138.1463492063492	138.51784580498867	77	127
138.1463492063492	138.51784580498867	59	127
138.51784580498867	138.81972789115648	76	127
138.51784580498867	138.81972789115648	61	127
138.51784580498867	138.9706575963719	79	127
138.81972789115648	139.1564172335601	69	127
138.81972789115648	139.1564172335601	62	127
138.9706575963719	139.1564172335601	77	127
139.1564172335601	139.3770068027211	76	127
139.1564172335601	139.3770068027211	70	127
139.1564172335601	139.66725623582767	55	127
139.3770068027211	139.66725623582767	82	127
139.3770068027211	139.66725623582767	67	127
139.66725623582767	139.8065759637188	82	127
139.66725623582767	139.8065759637188	67	127
139.66725623582767	140.01555555555555	57	127
139.8065759637188	140.01555555555555	65	127
139.8065759637188	140.01555555555555	81	127
140.01555555555555	140.1897052154195	73	127
140.01555555555555	140.1897052154195	64	127
140.01555555555555	140.3522448979592	57	127
140.1897052154195	140.3522448979592	76	127
140.1897052154195	140.3522448979592	67	127
140.3522448979592	141.00240362811792	65	127
140.3522448979592	141.00240362811792	74	127
140.3522448979592	141.00240362811792	62	127
140.6889342403628	140.874693877551	57	127
141.0372335600907	141.24621315192744	53	127
141.4203628117914	141.6061224489796	50	127
141.79185941043085	142.09374149659865	45	127
141.79185941043085	142.79034013605443	57	127
142.09374149659865	142.47687074829932	57	127
142.47687074829932	142.79034013605443	57	127
142.79034013605443	143.12702947845804	65	127
142.79034013605443	143.12702947845804	57	127
142.79034013605443	143.12702947845804	81	127
142.79034013605443	143.12702947845804	74	127
143.12702947845804	143.18507936507936	81	127
143.12702947845804	143.19668934240363	65	127
143.12702947845804	143.44049886621315	57	127
143.12702947845804	143.78879818594103	74	127
143.19668934240363	143.27795918367346	79	127
143.19668934240363	143.27795918367346	64	127
143.27795918367346	143.35922902494332	81	127
143.27795918367346	143.35922902494332	65	127
143.35922902494332	143.44049886621315	79	127
143.35922902494332	143.44049886621315	64	127
143.44049886621315	143.51015873015874	78	127
143.44049886621315	143.51015873015874	62	127
143.44049886621315	143.78879818594103	57	127
143.51015873015874	143.59142857142857	79	127
143.51015873015874	143.60303854875283	64	127
143.60303854875283	143.75396825396825	81	127
143.60303854875283	143.78879818594103	65	127
143.78879818594103	144.1138775510204	82	127
143.78879818594103	144.1138775510204	73	127
143.78879818594103	144.1138775510204	67	127
143.78879818594103	144.1138775510204	57	127
144.1138775510204	144.3692970521542	73	127
144.1138775510204	144.3692970521542	70	127
144.1138775510204	144.5550566893424	67	127
144.1138775510204	144.5550566893424	57	127
144.5550566893424	144.9033560090703	65	127
144.5550566893424	144.71759637188208	74	127
144.5550566893424	144.71759637188208	69	127
144.5550566893424	144.9033560090703	57	127
144.9033560090703	145.2516553287982	69	127
144.9033560090703	145.2516553287982	64	127
144.9033560090703	145.06589569160997	76	127
144.9033560090703	145.2516553287982	61	127
145.2516553287982	145.61156462585035	62	127
145.2516553287982	145.63478458049886	79	127
145.2516553287982	145.63478458049886	76	127
145.2516553287982	145.63478458049886	62	127
145.63478458049886	145.99469387755101	56	127
145.63478458049886	145.73927437641723	79	127
145.63478458049886	145.73927437641723	76	127
145.73927437641723	145.83213151927438	74	127
145.73927437641723	145.83213151927438	77	127
145.83213151927438	145.91342403628119	73	127
145.83213151927438	145.91342403628119	76	127
145.91342403628119	145.99469387755101	74	127
145.91342403628119	145.99469387755101	77	127
145.99469387755101	146.52875283446713	73	127
145.99469387755101	146.2501133786848	57	127
145.99469387755101	146.52875283446713	76	127
146.26172335600907	146.4126530612245	69	127
146.4126530612245	146.5635827664399	68	127
146.5635827664399	146.7261224489796	69	127
146.7261224489796	146.9467120181406	68	127
146.9467120181406	147.17891156462585	69	127
147.17891156462585	147.42272108843537	68	127
147.42272108843537	147.73619047619047	45	127
147.42272108843537	148.38632653061225	57	127
147.42272108843537	148.38632653061225	69	127
147.73619047619047	148.06126984126985	57	127
148.06126984126985	148.38632653061225	57	127
148.38632653061225	148.6765986394558	81	127
148.38632653061225	148.6765986394558	86	127
148.38632653061225	148.6765986394558	65	127
148.38632653061225	148.6765986394558	57	127
148.6765986394558	149.43124716553288	86	127
148.6765986394558	149.11777777777777	57	127
148.6765986394558	148.88557823129253	65	127
148.6765986394558	148.88557823129253	81	127
148.88557823129253	148.9552380952381	79	127
148.88557823129253	148.9552380952381	64	127
148.9552380952381	149.03650793650795	65	127
148.9552380952381	149.03650793650795	81	127
149.03650793650795	149.11777777777777	79	127
149.03650793650795	149.11777777777777	64	127
149.11777777777777	149.43124716553288	57	127
149.11777777777777	149.21065759637187	78	127
149.11777777777777	149.21065759637187	62	127
149.21065759637187	149.28031746031746	64	127
149.21065759637187	149.28031746031746	79	127
149.28031746031746	149.43124716553288	81	127
149.28031746031746	149.43124716553288	65	127
149.43124716553288	149.79115646258504	85	127
149.43124716553288	149.79115646258504	82	127
149.43124716553288	149.79115646258504	67	127
149.43124716553288	149.79115646258504	57	127
149.79115646258504	150.1162358276644	82	127
149.79115646258504	150.1162358276644	73	127
149.79115646258504	150.26716553287983	67	127
149.79115646258504	150.26716553287983	57	127
150.26716553287983	150.40648526077098	81	127
150.26716553287983	150.40648526077098	74	127
150.26716553287983	150.5574149659864	65	127
150.26716553287983	150.5574149659864	57	127
150.5574149659864	151.33528344671203	69	127
150.5574149659864	150.71995464852608	79	127
150.5574149659864	150.71995464852608	76	127
150.5574149659864	150.8708843537415	61	127
150.8708843537415	150.99859410430838	79	127
150.8708843537415	151.33528344671203	62	127
150.8708843537415	151.33528344671203	76	127
150.99859410430838	151.06825396825397	77	127
151.06825396825397	151.17274376417234	79	127
151.17274376417234	151.33528344671203	77	127
151.33528344671203	151.42816326530613	76	127
151.33528344671203	151.6835827664399	56	127
151.33528344671203	151.42816326530613	79	127
151.33528344671203	151.6835827664399	71	127
151.42816326530613	151.4978231292517	77	127
151.42816326530613	151.4978231292517	74	127
151.4978231292517	151.5907029478458	76	127
151.4978231292517	151.5907029478458	73	127
151.5907029478458	151.6835827664399	77	127
151.5907029478458	151.6835827664399	74	127
151.6835827664399	152.27569160997732	57	127
151.6835827664399	151.8461224489796	76	127
151.6835827664399	152.31052154195012	73	127
151.6835827664399	152.27569160997732	64	127
151.8461224489796	152.0086621315193	80	127
152.0086621315193	152.1595918367347	81	127
152.1595918367347	152.31052154195012	80	127
152.31052154195012	152.46145124716554	81	127
152.46145124716554	152.67043083900228	80	127
152.67043083900228	152.8213605442177	81	127
152.67043083900228	152.8213605442177	77	127
152.8213605442177	152.99551020408163	77	127
152.8213605442177	152.99551020408163	74	127
152.99551020408163	153.18126984126985	73	127
152.99551020408163	153.320589569161	76	127
153.18126984126985	153.33219954648527	68	127
153.33219954648527	153.5063492063492	69	127
153.5063492063492	153.65727891156462	68	127
153.65727891156462	153.84303854875284	69	127
153.84303854875284	154.02879818594104	68	127
154.02879818594104	154.19133786848073	65	127
154.02879818594104	154.19133786848073	69	127
154.19133786848073	154.34226757369615	65	127
154.19133786848073	154.34226757369615	62	127
154.34226757369615	154.64412698412698	64	127
154.34226757369615	154.51639455782313	61	127
154.51639455782313	154.66734693877552	56	127
154.66734693877552	154.89954648526077	57	127
154.89954648526077	155.06208616780046	56	127
155.06208616780046	155.2710657596372	57	127
155.2710657596372	155.44521541950112	56	127
155.44521541950112	155.61936507936508	57	127
155.44521541950112	155.61936507936508	53	127
155.61936507936508	155.79351473922904	53	127
155.61936507936508	155.79351473922904	50	127
155.79351473922904	155.9560544217687	49	127
155.79351473922904	156.07215419501134	52	127
155.9560544217687	156.09537414965988	44	127
156.09537414965988	156.29274376417234	45	127
156.29274376417234	156.53655328798186	44	127
156.53655328798186	156.68748299319728	45	127
156.68748299319728	156.86163265306124	44	127
156.86163265306124	157.03578231292516	45	127
157.03578231292516	157.32603174603176	41	127
157.32603174603176	158.16195011337868	48	127
157.32603174603176	158.16195011337868	82	127
157.32603174603176	158.16195011337868	72	127
157.32603174603176	158.16195011337868	64	127
157.32603174603176	158.16195011337868	79	127
157.32603174603176	158.16195011337868	60	127
157.32603174603176	158.16195011337868	40	127
158.35931972789115	158.90498866213153	60	127
158.35931972789115	158.90498866213153	58	127
158.35931972789115	158.90498866213153	55	127
158.35931972789115	158.90498866213153	52	127
159.13718820861678	159.47387755102042	60	127
159.13718820861678	159.47387755102042	57	127
159.13718820861678	159.47387755102042	53	127
159.13718820861678	159.47387755102042	51	127
159.47387755102042	159.77573696145126	60	127
159.47387755102042	159.77573696145126	57	127
159.47387755102042	159.77573696145126	53	127
159.47387755102042	159.77573696145126	51	127
160.2285260770975	160.4142857142857	62	127
160.2285260770975	160.4142857142857	58	127
160.2285260770975	160.4142857142857	53	127
160.2285260770975	160.4142857142857	50	127
160.56521541950113	160.8902947845805	62	127
160.56521541950113	160.8902947845805	59	127
160.56521541950113	161.30825396825398	53	127
160.56521541950113	161.30825396825398	45	127
160.8902947845805	161.22698412698412	63	127
160.8902947845805	161.22698412698412	60	127
161.74943310657596	161.91197278911565	63	127
161.74943310657596	161.91197278911565	60	127
161.74943310657596	161.91197278911565	57	127
161.74943310657596	162.37637188208618	65	127
162.06290249433107	162.37637188208618	58	127
162.06290249433107	162.37637188208618	58	127
162.06290249433107	162.68984126984128	62	127
162.37637188208618	162.68984126984128	57	127
162.37637188208618	162.68984126984128	60	127
162.37637188208618	162.68984126984128	66	127
162.68984126984128	163.0265306122449	64	127
162.68984126984128	163.0265306122449	67	127
162.68984126984128	163.0265306122449	58	127
162.68984126984128	163.0265306122449	55	127
163.0265306122449	163.37482993197278	65	127
163.0265306122449	163.37482993197278	57	127
163.0265306122449	163.37482993197278	53	127
163.0265306122449	163.37482993197278	69	127
163.37482993197278	163.73473922902494	72	127
163.37482993197278	164.01337868480726	60	127
163.37482993197278	164.01337868480726	55	127
163.37482993197278	164.01337868480726	52	127
163.73473922902494	163.9785260770975	70	127
164.38487528344672	164.70997732426304	67	127
164.38487528344672	164.70997732426304	70	127
164.38487528344672	164.70997732426304	60	127
164.38487528344672	164.70997732426304	52	127
164.70997732426304	165.08149659863946	69	127
164.70997732426304	166.34698412698413	65	127
164.70997732426304	165.08149659863946	65	127
164.70997732426304	165.08149659863946	53	127
165.08149659863946	165.7897052154195	70	127
165.08149659863946	165.7897052154195	67	127
165.40655328798186	165.7897052154195	53	127
165.7897052154195	166.4166439909297	71	127
165.7897052154195	166.4166439909297	68	127
166.11478458049888	166.4166439909297	53	127
166.4166439909297	166.8346031746032	65	127
166.4166439909297	167.19448979591837	72	127
166.4166439909297	167.19448979591837	69	127
166.8346031746032	167.19448979591837	64	127
166.8346031746032	167.19448979591837	53	127
167.19448979591837	167.6588888888889	63	127
167.19448979591837	168.4019501133787	73	127
167.19448979591837	168.4019501133787	69	127
167.6588888888889	168.35551020408164	46	127
167.6588888888889	168.4019501133787	62	127
168.4019501133787	168.59931972789116	76	127
168.4019501133787	168.59931972789116	72	127
168.59931972789116	168.75024943310657	70	127
168.59931972789116	168.75024943310657	74	127
168.75024943310657	169.0521088435374	46	127
168.75024943310657	168.901179138322	69	127
168.75024943310657	168.901179138322	55	127
168.75024943310657	168.901179138322	72	127
168.901179138322	169.0521088435374	67	127
168.901179138322	169.0521088435374	70	127
168.901179138322	169.0521088435374	62	127
169.0521088435374	169.77192743764172	60	127
169.0521088435374	169.80673469387756	69	127
169.0521088435374	169.80673469387756	65	127
169.0521088435374	169.80673469387756	48	127
169.80673469387756	170.51496598639457	60	127
169.80673469387756	170.32920634920634	67	127
169.80673469387756	170.32920634920634	64	127
170.51496598639457	170.67750566893423	59	127
170.67750566893423	170.7587755102041	60	127
170.7587755102041	170.8284126984127	59	127
170.8284126984127	170.89809523809524	60	127
170.89809523809524	170.97934240362812	59	127
170.97934240362812	171.04902494331066	60	127
171.04902494331066	171.13027210884354	59	127
171.13027210884354	171.19995464852607	60	127
171.19995464852607	171.26961451247166	59	127
171.26961451247166	171.58308390022677	74	127
171.26961451247166	171.36249433106576	60	127
171.26961451247166	171.93138321995465	65	127
171.36249433106576	171.43215419501135	59	127
171.43215419501135	171.51342403628118	60	127
171.51342403628118	171.58308390022677	59	127
171.58308390022677	171.67596371882087	60	127
171.58308390022677	171.93138321995465	67	127
171.67596371882087	171.74560090702948	59	127
171.74560090702948	171.86172335600907	57	127
171.86172335600907	171.91977324263038	59	127
171.93138321995465	172.62798185941043	60	127
171.93138321995465	172.51185941043084	67	127
171.93138321995465	172.51185941043084	64	127
172.51185941043084	172.66281179138323	69	127
172.51185941043084	172.66281179138323	65	127
172.66281179138323	173.1736507936508	48	127
172.66281179138323	172.9530612244898	67	127
172.66281179138323	172.9530612244898	64	127
173.1736507936508	173.4290702947846	49	127
173.4290702947846	173.533537414966	51	127
173.533537414966	173.6148299319728	49	127
173.6148299319728	173.7077097505669	51	127
173.7077097505669	173.78895691609978	49	127
173.78895691609978	173.89344671201815	51	127
173.89344671201815	173.98634920634922	49	127
173.98634920634922	174.0908390022676	51	127
174.0908390022676	174.19532879818595	49	127
174.19532879818595	174.5204081632653	68	127
174.19532879818595	174.28820861678005	51	127
174.19532879818595	174.5204081632653	77	127
174.28820861678005	174.3578684807256	49	127
174.3578684807256	174.45074829931974	51	127
174.45074829931974	174.5204081632653	49	127
174.5204081632653	174.8338775510204	71	127
174.5204081632653	174.5900680272109	51	127
174.5204081632653	174.8338775510204	65	127
174.5900680272109	174.67133786848072	49	127
174.67133786848072	174.75260770975058	48	127
174.75260770975058	174.82226757369614	49	127
174.8338775510204	175.43759637188208	48	127
174.8338775510204	175.48403628117913	71	127
174.8338775510204	175.48403628117913	65	127
175.17054421768708	175.3331065759637	48	127
175.48403628117913	175.76267573696146	72	127
175.48403628117913	175.76267573696146	64	127
175.48403628117913	175.77428571428572	60	127
175.77428571428572	175.92521541950114	58	127
176.07614512471656	178.3284807256236	60	127
176.07614512471656	176.92367346938775	58	127
176.447641723356	176.62181405895691	65	127
176.92367346938775	177.57380952380953	57	127
176.92367346938775	177.2835827664399	77	127
177.2835827664399	177.4228798185941	75	127
177.57380952380953	179.44303854875284	65	127
177.57380952380953	178.3284807256236	75	127
177.98015873015873	178.17755102040817	46	127
178.3284807256236	178.68839002267575	73	127
178.3284807256236	178.68839002267575	58	127
178.3284807256236	178.68839002267575	58	127
178.68839002267575	178.85090702947846	56	127
178.68839002267575	179.00183673469388	72	127
178.68839002267575	179.00183673469388	60	127
179.00183673469388	180.53437641723357	62	127
179.00183673469388	179.84938775510204	72	127
179.00183673469388	180.53437641723357	55	127
179.44303854875284	179.66362811791385	55	127
179.84938775510204	180.2092970521542	67	127
179.84938775510204	180.53437641723357	71	127
180.2092970521542	180.3718367346939	65	127
180.53437641723357	182.11333333333334	70	127
180.53437641723357	182.70544217687075	48	127
180.53437641723357	181.43995464852608	65	127
181.0568253968254	181.2541723356009	67	127
181.43995464852608	181.7534240362812	79	127
181.43995464852608	181.7534240362812	64	127
181.7534240362812	182.4035827664399	62	127
181.7534240362812	181.95079365079366	77	127
182.11333333333334	182.70544217687075	77	127
182.4035827664399	182.70544217687075	60	127
182.4035827664399	182.55451247165533	79	127
182.70544217687075	183.01891156462585	69	127
182.70544217687075	183.18145124716554	48	127
182.70544217687075	183.01891156462585	84	127
182.70544217687075	183.01891156462585	76	127
183.01891156462585	183.18145124716554	82	127
183.01891156462585	183.18145124716554	72	127
183.01891156462585	183.18145124716554	67	127
183.18145124716554	183.27433106575964	50	127
183.27433106575964	183.34399092970523	52	127
183.34399092970523	183.64585034013606	65	127
183.34399092970523	183.4136507936508	80	127
183.34399092970523	183.64585034013606	53	127
183.34399092970523	183.64585034013606	72	127
183.4136507936508	183.49492063492065	81	127
183.66907029478458	183.73873015873016	76	127
183.73873015873016	183.82	77	127
184.05219954648527	184.42369614512472	65	127
184.05219954648527	184.12185941043083	73	127
184.05219954648527	184.42369614512472	46	127
184.05219954648527	184.42369614512472	67	127
184.12185941043083	184.261179138322	74	127
184.4469387755102	184.5398185941043	66	127
184.5398185941043	184.6094784580499	67	127
184.7604081632653	185.0854648526077	60	127
184.7604081632653	184.9345351473923	72	127
184.7604081632653	185.0854648526077	65	127
184.7604081632653	185.0854648526077	45	127
184.9345351473923	185.0158276643991	74	127
185.0158276643991	185.0854648526077	72	127
185.0854648526077	185.41056689342403	58	127
185.0854648526077	185.41056689342403	46	127
185.0854648526077	185.15514739229025	71	127
185.0854648526077	185.41056689342403	62	127
185.16675736961452	185.2364172335601	72	127
185.2364172335601	185.3408843537415	74	127
185.41056689342403	185.78208616780046	48	127
185.41056689342403	185.78208616780046	65	127
185.41056689342403	185.78208616780046	60	127
185.41056689342403	185.78208616780046	57	127
185.78208616780046	186.22326530612244	64	127
185.78208616780046	186.02589569160997	48	127
185.78208616780046	186.22326530612244	58	127
185.78208616780046	186.22326530612244	55	127
186.22326530612244	186.91986394557824	41	127
186.22326530612244	186.91986394557824	65	127
186.47868480725623	186.6528344671202	57	127
186.47868480725623	186.6528344671202	53	127
186.6528344671202	186.8037641723356	65	127
186.6528344671202	186.8037641723356	57	127
186.8037641723356	186.88503401360543	57	127
186.8037641723356	186.88503401360543	65	127
186.95469387755102	187.12884353741498	65	127
186.95469387755102	187.12884353741498	57	127
187.12884353741498	187.2797732426304	65	127
187.12884353741498	187.2797732426304	57	127
187.2797732426304	187.43070294784582	57	127
187.2797732426304	187.43070294784582	65	127
187.43070294784582	187.61646258503401	65	127
187.43070294784582	187.61646258503401	57	127
187.61646258503401	188.39433106575964	45	127
187.61646258503401	188.42916099773242	65	127
187.76739229024943	187.98798185941044	57	127
187.76739229024943	187.98798185941044	60	127
187.98798185941044	188.20854875283447	65	127
187.98798185941044	188.20854875283447	60	127
188.20854875283447	188.33628117913833	60	127
188.20854875283447	188.33628117913833	65	127
188.42916099773242	188.58009070294784	64	127
188.42916099773242	188.58009070294784	65	127
188.42916099773242	188.58009070294784	60	127
188.58009070294784	188.73102040816326	60	127
188.58009070294784	188.73102040816326	65	127
188.73102040816326	188.88195011337868	70	127
188.73102040816326	188.88195011337868	65	127
188.73102040816326	188.88195011337868	60	127
188.88195011337868	189.05609977324264	69	127
188.88195011337868	189.05609977324264	65	127
188.88195011337868	189.05609977324264	60	127
189.05609977324264	189.4740589569161	69	127
189.05609977324264	189.77591836734695	46	127
189.29990929705215	189.4740589569161	55	127
189.29990929705215	189.4740589569161	62	127
189.4740589569161	189.6598185941043	65	127
189.4740589569161	189.6598185941043	62	127
189.4740589569161	189.7410657596372	67	127
189.6598185941043	189.7410657596372	65	127
189.6598185941043	189.7410657596372	62	127
189.81074829931973	190.07777777777778	62	127
189.81074829931973	190.07777777777778	65	127
190.07777777777778	190.26353741496598	65	127
190.07777777777778	190.26353741496598	62	127
190.26353741496598	190.40285714285713	65	127
190.26353741496598	190.40285714285713	62	127
190.40285714285713	190.56539682539682	62	127
190.40285714285713	190.56539682539682	65	127
190.56539682539682	190.704716553288	66	127
190.56539682539682	191.2271655328798	48	127
190.704716553288	190.86725623582765	55	127
190.704716553288	190.86725623582765	67	127
190.704716553288	190.86725623582765	58	127
190.86725623582765	191.09945578231293	64	127
190.86725623582765	191.09945578231293	58	127
190.86725623582765	191.09945578231293	69	127
191.09945578231293	191.26199546485262	67	127
191.09945578231293	191.19233560090703	64	127
191.09945578231293	191.19233560090703	58	127
191.26199546485262	191.47097505668935	64	127
191.26199546485262	191.47097505668935	70	127
191.26199546485262	191.47097505668935	58	127
191.47097505668935	191.62190476190477	64	127
191.47097505668935	191.62190476190477	69	127
191.47097505668935	191.62190476190477	58	127
191.62190476190477	191.7960544217687	64	127
191.62190476190477	191.7960544217687	74	127
191.62190476190477	191.7960544217687	58	127
191.7960544217687	191.9585941043084	72	127
191.7960544217687	191.9585941043084	64	127
191.7960544217687	191.9585941043084	58	127
191.9585941043084	192.96866213151927	50	127
191.9585941043084	192.69002267573697	70	127
192.5507029478458	192.69002267573697	57	127
192.5507029478458	192.69002267573697	53	127
192.69002267573697	192.85256235827666	65	127
192.69002267573697	192.85256235827666	57	127
192.69002267573697	192.92222222222222	69	127
192.85256235827666	192.92222222222222	65	127
192.85256235827666	192.92222222222222	57	127
193.00349206349208	193.16603174603173	65	127
193.00349206349208	193.16603174603173	57	127
193.16603174603173	193.32857142857142	57	127
193.16603174603173	193.32857142857142	65	127
193.32857142857142	193.47950113378684	57	127
193.32857142857142	193.47950113378684	65	127
193.47950113378684	193.6536507936508	65	127
193.47950113378684	193.6536507936508	57	127
193.6536507936508	194.23414965986396	45	127
193.6536507936508	194.26897959183674	77	127
193.79297052154195	193.94390022675736	57	127
193.79297052154195	193.94390022675736	60	127
193.94390022675736	194.10643990929705	65	127
193.94390022675736	194.10643990929705	60	127
194.10643990929705	194.18770975056688	65	127
194.10643990929705	194.18770975056688	60	127
194.26897959183674	194.41990929705216	76	127
194.26897959183674	194.41990929705216	65	127
194.26897959183674	194.41990929705216	60	127
194.41990929705216	194.5592290249433	77	127
194.41990929705216	194.5592290249433	65	127
194.41990929705216	194.5592290249433	60	127
194.5592290249433	194.74498866213153	82	127
194.5592290249433	194.74498866213153	65	127
194.5592290249433	194.74498866213153	60	127
194.74498866213153	194.89591836734695	81	127
194.74498866213153	194.89591836734695	65	127
194.74498866213153	194.89591836734695	60	127
194.89591836734695	195.23260770975057	81	127
194.89591836734695	195.55768707482994	46	127
195.04684807256237	195.23260770975057	55	127
195.04684807256237	195.23260770975057	62	127
195.23260770975057	195.45319727891157	62	127
195.23260770975057	195.8479365079365	79	127
195.23260770975057	195.45319727891157	65	127
195.45319727891157	195.52285714285713	62	127
195.45319727891157	195.52285714285713	65	127
195.604126984127	195.8479365079365	62	127
195.604126984127	195.8479365079365	65	127
195.8479365079365	195.99886621315193	77	127
195.8479365079365	195.99886621315193	62	127
195.8479365079365	195.99886621315193	65	127
195.99886621315193	196.18462585034013	76	127
195.99886621315193	196.18462585034013	65	127
195.99886621315193	196.18462585034013	62	127
196.18462585034013	196.35877551020408	65	127
196.18462585034013	196.35877551020408	74	127
196.18462585034013	196.35877551020408	62	127
196.35877551020408	196.6954648526077	74	127
196.35877551020408	196.99732426303854	48	127
196.52131519274377	196.6954648526077	55	127
196.52131519274377	196.6954648526077	58	127
196.6954648526077	196.88122448979593	58	127
196.6954648526077	196.88122448979593	64	127
196.6954648526077	197.20630385487527	72	127
196.88122448979593	196.9508843537415	64	127
196.88122448979593	196.9508843537415	58	127
197.03215419501134	197.20630385487527	58	127
197.03215419501134	197.20630385487527	64	127
197.20630385487527	197.5081632653061	64	127
197.20630385487527	197.5081632653061	70	127
197.20630385487527	197.5081632653061	58	127
197.5081632653061	197.68231292517007	64	127
197.5081632653061	197.68231292517007	58	127
197.5081632653061	197.68231292517007	69	127
197.68231292517007	197.84485260770975	67	127
197.68231292517007	197.84485260770975	64	127
197.68231292517007	197.84485260770975	58	127
197.84485260770975	198.5530612244898	53	127
197.84485260770975	197.91451247165534	65	127
197.84485260770975	197.91451247165534	57	127
197.84485260770975	198.5530612244898	65	127
197.99578231292517	198.2395918367347	69	127
197.99578231292517	198.2395918367347	65	127
198.2395918367347	198.42535147392292	67	127
198.2395918367347	198.42535147392292	64	127
198.42535147392292	198.58789115646258	65	127
198.42535147392292	198.58789115646258	62	127
198.58789115646258	198.87814058956917	61	127
198.58789115646258	198.87814058956917	64	127
198.87814058956917	199.04068027210883	62	127
198.87814058956917	199.04068027210883	65	127
199.04068027210883	199.19160997732428	64	127
199.04068027210883	199.19160997732428	60	127
199.19160997732428	199.37736961451247	62	127
199.19160997732428	199.37736961451247	58	127
199.37736961451247	200.1552380952381	45	127
199.37736961451247	199.44702947845806	57	127
199.37736961451247	199.56312925170067	60	127
199.37736961451247	199.841768707483	65	127
199.56312925170067	199.64439909297053	60	127
199.76049886621314	199.92303854875283	60	127
199.76049886621314	199.83015873015873	65	127
199.85337868480727	199.96947845804988	64	127
199.92303854875283	199.99269841269842	60	127
199.96947845804988	200.21328798185942	65	127
200.21328798185942	200.28294784580498	57	127
200.21328798185942	200.3177777777778	69	127
200.21328798185942	200.64285714285714	65	127
200.3177777777778	200.54997732426304	67	127
200.39904761904762	200.57319727891158	60	127
200.54997732426304	200.64285714285714	65	127
200.64285714285714	200.9331065759637	60	127
200.64285714285714	200.724126984127	65	127
200.64285714285714	200.7473469387755	72	127
200.7473469387755	200.85183673469388	70	127
200.79378684807256	200.86344671201815	60	127
200.85183673469388	200.9331065759637	69	127
200.9331065759637	201.0027664399093	57	127
200.9331065759637	201.23496598639457	66	127
200.9331065759637	201.60648526077097	46	127
201.07242630385488	201.16530612244898	62	127
201.23496598639457	201.39750566893423	62	127
201.23496598639457	201.32784580498867	65	127
201.23496598639457	201.5716553287982	67	127
201.39750566893423	201.5716553287982	62	127
201.64131519274378	201.98961451247166	74	127
201.64131519274378	201.71097505668934	57	127
201.80385487528343	201.8851247165533	62	127
201.98961451247166	202.2914739229025	67	127
201.98961451247166	202.05927437641722	65	127
202.14054421768708	202.21020408163264	62	127
202.2914739229025	202.50045351473923	82	127
202.2914739229025	202.4772335600907	55	127
202.2914739229025	202.99968253968254	48	127
202.50045351473923	202.6049433106576	81	127
202.55850340136055	202.6281632653061	60	127
202.6049433106576	202.70943310657597	79	127
202.70943310657597	202.7907029478458	64	127
202.70943310657597	202.82553287981858	77	127
202.70943310657597	202.8835827664399	60	127
202.82553287981858	202.94163265306122	76	127
202.8835827664399	202.96485260770976	60	127
202.94163265306122	203.03451247165532	74	127
203.03451247165532	203.1738321995465	72	127
203.03451247165532	203.48730158730157	70	127
203.03451247165532	203.12739229024945	55	127
203.1738321995465	203.39442176870747	71	127
203.24349206349206	203.417641723356	60	127
203.39442176870747	203.48730158730157	72	127
203.48730158730157	203.8356009070295	67	127
203.48730158730157	203.61501133786848	64	127
203.48730158730157	203.63823129251702	73	127
203.63823129251702	203.73111111111112	74	127
203.68467120181407	203.7659410430839	60	127
203.73111111111112	203.8356009070295	70	127
203.8356009070295	204.19551020408164	68	127
203.8356009070295	203.90526077097505	53	127
203.8356009070295	204.47414965986394	50	127
204.03297052154196	204.11424036281178	57	127
204.19551020408164	204.4277097505669	69	127
204.19551020408164	204.27678004535147	65	127
204.19551020408164	204.49736961451248	62	127
204.3580498866213	204.4277097505669	57	127
204.520589569161	204.86888888888888	74	127
204.520589569161	204.63668934240363	53	127
204.71795918367346	204.78761904761905	57	127
204.86888888888888	204.95015873015873	65	127
204.86888888888888	205.25201814058957	69	127
205.0546485260771	205.13591836734693	57	127
205.25201814058957	205.34489795918367	57	127
205.25201814058957	206.0531065759637	45	127
205.25201814058957	205.3681179138322	65	127
205.3681179138322	205.50743764172336	69	127
205.44938775510204	205.5306575963719	60	127
205.50743764172336	205.69319727891155	72	127
205.69319727891155	205.83251700680273	65	127
205.69319727891155	205.85573696145124	77	127
205.69319727891155	205.9021768707483	60	127
205.85573696145124	205.9602267573696	81	127
205.9021768707483	205.9950566893424	60	127
205.9602267573696	206.08793650793652	84	127
206.08793650793652	206.16920634920635	57	127
206.08793650793652	206.1924263038549	89	127
206.08793650793652	206.38979591836735	72	127
206.1924263038549	206.285306122449	88	127
206.23886621315194	206.3085260770975	60	127
206.285306122449	206.38979591836735	86	127
206.38979591836735	206.6916553287982	69	127
206.38979591836735	206.45945578231292	65	127
206.38979591836735	206.49428571428572	84	127
206.49428571428572	206.58716553287982	82	127
206.54072562358277	206.61038548752833	60	127
206.58716553287982	206.6916553287982	81	127
206.6916553287982	206.77292517006802	55	127
206.6916553287982	206.79614512471656	79	127
206.6916553287982	207.42308390022677	46	127
206.79614512471656	206.95868480725625	81	127
206.91224489795917	206.98190476190476	62	127
206.95868480725625	207.06317460317462	78	127
207.06317460317462	207.1908843537415	79	127
207.06317460317462	207.13283446712018	65	127
207.06317460317462	207.24893424036281	62	127
207.1908843537415	207.24893424036281	82	127
207.24893424036281	207.38825396825396	62	127
207.36503401360545	207.4114739229025	81	127
207.45791383219955	207.55079365079365	55	127
207.45791383219955	207.5740136054422	82	127
207.45791383219955	207.77138321995466	74	127
207.5740136054422	207.67850340136056	81	127
207.62045351473924	207.70172335600907	62	127
207.67850340136056	207.77138321995466	79	127
207.77138321995466	208.10807256235827	70	127
207.77138321995466	207.8526530612245	77	127
207.77138321995466	207.8526530612245	65	127
207.87587301587303	207.9803628117914	76	127
207.9455328798186	208.03841269841269	62	127
207.99197278911564	208.08485260770976	74	127
208.10807256235827	208.45637188208616	65	127
208.10807256235827	208.23578231292518	72	127
208.10807256235827	208.45637188208616	69	127
208.23578231292518	208.3518820861678	74	127
208.3518820861678	208.45637188208616	71	127
208.45637188208616	208.59569160997734	72	127
208.45637188208616	208.86272108843536	45	127
208.45637188208616	208.86272108843536	60	127
208.45637188208616	209.199410430839	65	127
208.59569160997734	208.758231292517	77	127
208.758231292517	208.86272108843536	65	127
208.86272108843536	208.93238095238095	67	127
208.86272108843536	209.199410430839	62	127
208.86272108843536	209.199410430839	46	127
208.93238095238095	209.01365079365078	69	127
209.01365079365078	209.1065306122449	67	127
209.1065306122449	209.199410430839	69	127
209.199410430839	209.5709297052154	48	127
209.199410430839	209.26907029478457	67	127
209.199410430839	209.3851700680272	60	127
209.199410430839	209.5709297052154	64	127
209.26907029478457	209.3851700680272	69	127
209.3851700680272	209.5709297052154	58	127
209.3851700680272	209.50126984126985	65	127
209.50126984126985	209.5709297052154	67	127
209.5709297052154	210.33718820861677	65	127
209.5709297052154	209.97727891156464	53	127
209.5709297052154	210.37201814058957	65	127
209.5709297052154	211.10344671201815	57	127
209.97727891156464	210.73192743764173	51	127
210.37201814058957	211.10344671201815	66	127
210.73192743764173	211.01056689342403	50	127
211.0221768707483	211.09183673469389	48	127
211.10344671201815	211.25437641723357	67	127
211.10344671201815	211.25437641723357	46	127
211.10344671201815	211.56784580498865	62	127
211.56784580498865	211.7419954648526	66	127
211.56784580498865	211.7419954648526	69	127
211.56784580498865	211.7419954648526	45	127
211.95097505668934	212.11351473922903	70	127
211.95097505668934	212.11351473922903	67	127
211.95097505668934	212.11351473922903	43	127
212.3108843537415	212.51986394557824	69	127
212.3108843537415	212.51986394557824	72	127
212.3108843537415	212.51986394557824	41	127
212.70562358276644	212.92621315192744	73	127
212.70562358276644	212.92621315192744	69	127
212.92621315192744	213.10036281179137	70	127
212.92621315192744	213.10036281179137	74	127
213.10036281179137	213.216462585034	70	127
213.10036281179137	213.216462585034	62	127
213.10036281179137	213.51832199546485	46	127
213.36739229024943	213.43705215419502	58	127
213.36739229024943	213.43705215419502	67	127
213.51832199546485	213.86662131519273	65	127
213.51832199546485	213.86662131519273	57	127
213.51832199546485	214.319410430839	48	127
213.86662131519273	214.319410430839	64	127
213.86662131519273	214.319410430839	55	127
214.319410430839	214.70253968253968	53	127
214.319410430839	214.70253968253968	57	127
214.319410430839	215.03922902494332	77	127
214.319410430839	215.03922902494332	65	127
214.70253968253968	215.44557823129253	72	127
214.70253968253968	215.44557823129253	63	127
215.03922902494332	215.77065759637188	78	127
215.03922902494332	215.77065759637188	66	127
215.44557823129253	215.67777777777778	70	127
215.44557823129253	215.67777777777778	62	127
215.67777777777778	215.77065759637188	69	127
215.67777777777778	215.77065759637188	60	127
215.77065759637188	215.93319727891156	79	127
215.77065759637188	215.93319727891156	67	127
215.77065759637188	215.93319727891156	74	127
215.77065759637188	215.93319727891156	58	127
216.2350566893424	216.43242630385487	57	127
216.2350566893424	216.43242630385487	81	127
216.2350566893424	216.43242630385487	69	127
216.2350566893424	216.43242630385487	66	127
216.5833560090703	216.7342857142857	70	127
216.5833560090703	216.7342857142857	67	127
216.5833560090703	216.7342857142857	82	127
216.5833560090703	216.7342857142857	55	127
216.90843537414966	217.08258503401362	84	127
216.90843537414966	217.08258503401362	72	127
216.90843537414966	217.08258503401362	69	127
216.90843537414966	217.08258503401362	53	127
217.3380045351474	217.50054421768706	85	127
217.3380045351474	217.50054421768706	73	127
217.3380045351474	217.50054421768706	69	127
217.50054421768706	217.6863038548753	86	127
217.50054421768706	217.6863038548753	74	127
217.50054421768706	217.6863038548753	70	127
217.6863038548753	217.76757369614512	62	127
217.6863038548753	217.76757369614512	82	127
217.6863038548753	217.76757369614512	70	127
217.6863038548753	218.03460317460318	46	127
217.8372335600907	217.95333333333335	67	127
217.8372335600907	217.95333333333335	58	127
217.8372335600907	217.95333333333335	79	127
218.03460317460318	218.34807256235828	77	127
218.03460317460318	218.34807256235828	65	127
218.03460317460318	218.34807256235828	57	127
218.03460317460318	218.7195918367347	48	127
218.34807256235828	218.7195918367347	64	127
218.34807256235828	218.7195918367347	55	127
218.34807256235828	218.7195918367347	76	127
218.7195918367347	218.8124716553288	65	127
218.7195918367347	219.02145124716554	77	127
218.7195918367347	219.02145124716554	57	127
218.7195918367347	219.02145124716554	41	127
218.8124716553288	218.91696145124718	69	127
218.91696145124718	219.03306122448978	72	127
219.03306122448978	219.0911111111111	72	127
219.13755102040815	219.1839909297052	72	127
219.27687074829933	219.439410430839	72	127
219.54390022675736	219.70643990929705	72	127
219.54390022675736	219.7528798185941	76	127
219.54390022675736	219.7528798185941	70	127
219.70643990929705	219.81092970521541	72	127
219.81092970521541	219.95024943310656	72	127
219.95024943310656	220.05473922902493	72	127
219.95024943310656	220.10117913832198	76	127
219.95024943310656	220.10117913832198	70	127
220.05473922902493	220.14761904761906	72	127
220.14761904761906	220.2288888888889	72	127
220.26371882086167	220.36820861678004	72	127
220.26371882086167	220.4146485260771	77	127
220.26371882086167	220.4146485260771	69	127
220.36820861678004	220.46108843537414	72	127
220.46108843537414	220.57718820861678	72	127
220.57718820861678	220.79777777777778	72	127
220.57718820861678	220.89065759637188	77	127
220.57718820861678	220.89065759637188	69	127
220.79777777777778	220.93709750566893	72	127
220.93709750566893	221.0415873015873	72	127
221.0415873015873	221.23895691609977	79	127
221.0415873015873	221.18090702947845	72	127
221.0415873015873	221.23895691609977	64	127
221.18090702947845	221.29700680272109	72	127
221.29700680272109	221.5175963718821	72	127
221.5175963718821	221.59886621315192	81	127
221.5175963718821	221.62208616780046	72	127
221.5175963718821	221.6685260770975	64	127
221.59886621315192	221.6685260770975	79	127
221.62208616780046	221.72657596371883	72	127
221.6685260770975	221.74979591836734	77	127
221.72657596371883	221.8310657596372	72	127
221.74979591836734	221.8310657596372	79	127
221.8310657596372	221.98199546485262	81	127
221.8310657596372	221.93555555555557	72	127
221.8310657596372	221.98199546485262	65	127
221.93555555555557	222.04004535147394	77	127
222.04004535147394	222.15614512471655	77	127
222.15614512471655	222.2606349206349	77	127
222.15614512471655	222.34190476190477	82	127
222.15614512471655	222.34190476190477	62	127
222.2606349206349	222.38834467120182	77	127
222.38834467120182	222.5160544217687	77	127
222.5160544217687	222.62054421768707	77	127
222.5160544217687	222.66698412698412	84	127
222.5160544217687	222.66698412698412	57	127
222.62054421768707	222.71342403628117	77	127
222.71342403628117	222.87596371882086	77	127
222.87596371882086	222.96884353741495	77	127
222.87596371882086	223.02689342403627	86	127
222.87596371882086	223.02689342403627	58	127
222.96884353741495	223.0849433106576	77	127
223.0849433106576	223.2707029478458	77	127
223.29392290249433	223.3984126984127	77	127
223.29392290249433	223.4680725623583	86	127
223.29392290249433	223.4680725623583	57	127
223.3984126984127	223.53773242630385	77	127
223.4680725623583	223.64222222222222	84	127
223.53773242630385	223.64222222222222	77	127
223.64222222222222	223.7118820861678	82	127
223.64222222222222	223.73510204081632	77	127
223.64222222222222	223.90925170068027	62	127
223.73510204081632	223.9673015873016	77	127
223.90925170068027	223.9905215419501	81	127
223.9673015873016	224.0601814058957	77	127
224.0601814058957	224.16467120181406	77	127
224.0601814058957	224.2111111111111	60	127
224.0601814058957	224.36204081632653	81	127
224.16467120181406	224.26916099773243	79	127
224.26916099773243	224.36204081632653	77	127
224.36204081632653	224.4665306122449	76	127
224.36204081632653	224.44331065759638	81	127
224.36204081632653	224.51297052154194	48	127
224.44331065759638	224.51297052154194	79	127
224.4665306122449	224.60585034013604	74	127
224.51297052154194	224.64068027210885	77	127
224.60585034013604	224.7103401360544	76	127
224.64068027210885	224.7103401360544	79	127
224.7103401360544	224.98897959183674	77	127
224.7103401360544	224.81482993197278	53	127
224.81482993197278	224.90770975056688	57	127
224.90770975056688	225.01219954648525	60	127
225.01219954648525	225.08185941043084	60	127
225.11668934240362	225.1863492063492	60	127
225.20956916099775	225.4998185941043	60	127
225.52303854875282	225.70879818594105	58	127
225.52303854875282	225.5926984126984	60	127
225.52303854875282	225.70879818594105	64	127
225.61591836734695	225.73201814058956	60	127
225.7552380952381	225.8248979591837	60	127
225.87133786848074	225.9409977324263	60	127
225.87133786848074	226.01065759637189	64	127
225.87133786848074	226.01065759637189	58	127
225.96421768707484	226.05709750566893	60	127
226.08031746031747	226.14997732426303	60	127
226.17319727891157	226.35895691609977	65	127
226.17319727891157	226.2544671201814	60	127
226.17319727891157	226.35895691609977	57	127
226.27768707482994	226.3821768707483	60	127
226.42861678004536	226.49827664399092	60	127
226.52149659863946	226.62598639455783	60	127
226.52149659863946	226.6956462585034	65	127
226.52149659863946	226.6956462585034	57	127
226.64920634920634	226.71886621315193	60	127
226.74208616780047	226.83496598639456	60	127
226.86979591836734	226.9742857142857	60	127
226.86979591836734	227.0439455782313	67	127
226.86979591836734	227.0439455782313	52	127
226.99750566893425	227.0671655328798	60	127
227.09038548752835	227.18326530612245	60	127
227.20648526077096	227.40385487528346	52	127
227.20648526077096	227.3225850340136	69	127
227.20648526077096	227.3225850340136	60	127
227.3225850340136	227.40385487528346	67	127
227.3574149659864	227.42707482993197	60	127
227.40385487528346	227.47351473922902	65	127
227.4502947845805	227.64766439909297	60	127
227.47351473922902	227.69410430839002	67	127
227.69410430839002	227.87986394557822	60	127
227.69410430839002	227.97274376417235	53	127
227.69410430839002	228.12367346938777	69	127
227.91469387755103	227.99596371882086	65	127
228.0191836734694	228.08884353741496	65	127
228.12367346938777	228.2049433106576	65	127
228.12367346938777	228.2978231292517	70	127
228.12367346938777	228.2978231292517	50	127
228.22816326530614	228.33265306122448	65	127
228.35587301587302	228.4255328798186	65	127
228.44875283446711	228.63451247165534	45	127
228.44875283446711	228.55324263038548	65	127
228.44875283446711	228.63451247165534	72	127
228.57646258503402	228.69256235827663	65	127
228.72739229024944	228.797052154195	65	127
228.82027210884354	228.98281179138323	46	127
228.82027210884354	228.98281179138323	74	127
228.82027210884354	228.90154195011337	65	127
228.9247619047619	229.00603174603174	65	127
229.07569160997733	229.14535147392291	65	127
229.16857142857143	229.31950113378684	74	127
229.16857142857143	229.24984126984128	65	127
229.16857142857143	229.52848072562358	45	127
229.2730612244898	229.34272108843538	65	127
229.31950113378684	229.52848072562358	72	127
229.3659410430839	229.50526077097507	65	127
229.52848072562358	229.59814058956917	70	127
229.52848072562358	229.91160997732428	50	127
229.52848072562358	229.59814058956917	65	127
229.679410430839	229.7722902494331	65	127
229.7490702947846	229.81873015873015	69	127
229.79551020408164	229.88839002267574	65	127
229.91160997732428	230.02770975056688	65	127
229.91160997732428	230.27151927437643	69	127
229.91160997732428	230.27151927437643	48	127
230.02770975056688	230.14380952380952	67	127
230.14380952380952	230.27151927437643	65	127
230.27151927437643	230.61981859410432	36	127
230.27151927437643	230.341179138322	69	127
230.27151927437643	230.3992290249433	64	127
230.341179138322	230.4688888888889	67	127
230.3992290249433	230.51532879818595	62	127
230.4688888888889	230.55015873015873	65	127
230.51532879818595	230.61981859410432	64	127
230.55015873015873	230.61981859410432	67	127
230.61981859410432	231.29319727891158	65	127
230.61981859410432	231.29319727891158	65	127
230.61981859410432	231.29319727891158	41	127
230.72430839002268	230.86362811791383	77	127
230.86362811791383	230.9913378684807	81	127
230.9913378684807	231.09582766439908	84	127
231.09582766439908	231.1538775510204	84	127
231.23514739229026	231.2815873015873	84	127
231.32802721088436	231.51378684807256	84	127
231.8156462585034	232.10589569161	82	127
231.8156462585034	232.10589569161	72	127
231.8156462585034	232.18716553287982	60	127
232.11750566893423	232.1987755102041	79	127
232.11750566893423	232.1987755102041	69	127
232.21038548752836	232.9185941043084	65	127
232.21038548752836	232.9185941043084	77	127
232.21038548752836	232.9185941043084	53	127
232.3497052154195	232.45419501133787	65	127
232.45419501133787	232.59351473922902	69	127
232.59351473922902	232.70961451247166	72	127
232.70961451247166	232.76766439909298	72	127
232.81410430839003	232.86054421768708	72	127
232.9185941043084	233.17401360544218	72	127
233.3249433106576	233.70807256235827	48	127
233.3249433106576	233.62680272108844	70	127
233.3249433106576	233.62680272108844	55	127
233.62680272108844	233.70807256235827	52	127
233.62680272108844	233.70807256235827	67	127
233.70807256235827	234.0795918367347	53	127
233.70807256235827	234.0795918367347	65	127
233.70807256235827	234.83424036281178	41	127
233.8590022675737	233.97510204081632	60	127
233.97510204081632	234.0795918367347	65	127
234.0795918367347	234.25374149659865	60	127
234.0795918367347	234.25374149659865	53	127
234.0795918367347	234.19569160997733	69	127
234.19569160997733	234.25374149659865	69	127
234.31179138321994	234.36984126984126	69	127
234.47433106575963	234.63687074829932	69	127
234.47433106575963	234.82263038548754	60	127
234.47433106575963	234.82263038548754	53	127
234.83424036281178	235.2057596371882	53	127
235.2057596371882	236.4944671201814	53	127
235.3682993197279	235.5540589569161	62	127
235.5540589569161	235.78625850340137	68	127
235.78625850340137	235.90235827664398	71	127
235.78625850340137	236.13455782312926	68	127
235.78625850340137	236.13455782312926	62	127
235.90235827664398	235.9604081632653	71	127
236.01845804988662	236.07650793650794	71	127
236.13455782312926	237.4116553287982	68	127
236.13455782312926	236.30870748299319	71	127
236.13455782312926	236.4944671201814	62	127
236.4944671201814	237.4116553287982	65	127
236.4944671201814	236.97047619047618	50	127
236.97047619047618	238.23596371882087	50	127
237.10979591836735	237.27233560090704	58	127
237.27233560090704	237.4116553287982	65	127
237.4116553287982	237.53936507936507	68	127
237.4116553287982	237.79478458049886	65	127
237.4116553287982	237.79478458049886	58	127
237.53936507936507	237.5974149659864	68	127
237.67868480725625	237.73673469387754	68	127
237.79478458049886	238.23596371882087	65	127
237.79478458049886	238.23596371882087	58	127
237.79478458049886	237.8760544217687	68	127
238.23596371882087	238.67714285714285	56	127
238.23596371882087	238.67714285714285	62	127
238.23596371882087	238.67714285714285	46	127
238.67714285714285	240.03551020408165	75	127
238.67714285714285	239.11832199546484	55	127
238.67714285714285	240.15160997732426	51	127
238.67714285714285	239.11832199546484	63	127
238.67714285714285	239.45501133786848	63	127
238.67714285714285	239.45501133786848	55	127
239.11832199546484	239.33891156462585	58	127
239.11832199546484	239.33891156462585	55	127
239.50145124716553	239.66399092970522	58	127
239.50145124716553	239.81492063492064	55	127
239.8265306122449	240.09356009070294	55	127
239.8265306122449	240.00068027210884	58	127
240.15160997732426	241.69573696145125	49	127
240.15160997732426	240.30253968253967	55	127
240.15160997732426	241.12684807256235	63	127
240.54634920634922	240.69727891156464	58	127
240.54634920634922	240.69727891156464	55	127
240.94108843537416	241.16167800453513	58	127
240.94108843537416	241.3009977324263	55	127
241.32421768707482	241.50997732426305	58	127
241.32421768707482	241.62607709750566	63	127
241.69573696145125	243.06571428571428	47	127
241.69573696145125	241.77700680272108	65	127
241.77700680272108	241.84666666666666	63	127
241.84666666666666	241.92793650793652	65	127
241.92793650793652	242.02081632653062	63	127
242.02081632653062	242.19496598639455	59	127
242.02081632653062	242.19496598639455	56	127
242.02081632653062	242.125306122449	65	127
242.125306122449	242.19496598639455	63	127
242.19496598639455	242.38072562358278	62	127
242.38072562358278	242.54326530612244	56	127
242.38072562358278	242.70580498866212	63	127
242.38072562358278	242.54326530612244	59	127
242.70580498866212	242.85673469387754	59	127
242.70580498866212	242.85673469387754	56	127
242.70580498866212	243.06571428571428	63	127
243.06571428571428	244.64467120181405	46	127
243.06571428571428	244.64467120181405	63	127
243.4372335600907	243.66943310657595	55	127
243.4372335600907	243.66943310657595	61	127
243.86680272108845	244.11061224489796	61	127
243.86680272108845	244.11061224489796	55	127
244.2847619047619	244.47052154195012	55	127
244.2847619047619	244.47052154195012	61	127
244.64467120181405	246.0726984126984	44	127
244.64467120181405	244.71433106575964	65	127
244.71433106575964	244.80721088435374	63	127
244.80721088435374	244.9117006802721	65	127
244.9117006802721	244.99297052154196	63	127
244.99297052154196	245.24839002267575	59	127
244.99297052154196	245.24839002267575	56	127
244.99297052154196	245.0974603174603	65	127
245.0974603174603	245.24839002267575	63	127
245.24839002267575	245.39931972789117	62	127
245.39931972789117	245.5502494331066	56	127
245.39931972789117	245.74761904761905	63	127
245.39931972789117	245.5502494331066	59	127
245.74761904761905	245.8869387755102	56	127
245.74761904761905	246.0726984126984	63	127
245.74761904761905	245.8869387755102	59	127
246.0726984126984	247.64004535147393	42	127
246.0726984126984	247.64004535147393	63	127
246.52548752834468	246.74607709750566	51	127
246.52548752834468	246.74607709750566	58	127
246.96666666666667	247.12920634920636	51	127
246.96666666666667	247.12920634920636	58	127
247.30335600907028	247.4542857142857	58	127
247.30335600907028	247.4542857142857	51	127
247.64004535147393	253.87460317460318	57	127
247.64004535147393	247.73292517006803	65	127
247.64004535147393	250.79795918367347	41	127
247.64004535147393	250.79795918367347	48	127
247.73292517006803	247.907074829932	63	127
247.907074829932	247.99995464852609	65	127
247.99995464852609	248.1160544217687	63	127
248.1160544217687	248.20893424036282	65	127
248.20893424036282	248.29020408163265	63	127
248.29020408163265	248.44113378684807	62	127
248.44113378684807	248.8707029478458	63	127
248.8707029478458	249.2190022675737	63	127
249.2190022675737	250.5077097505669	63	127
250.5077097505669	250.79795918367347	64	127
250.79795918367347	252.5162358276644	60	127
250.79795918367347	250.93727891156462	41	127
250.79795918367347	252.5162358276644	52	127
250.93727891156462	251.0069387755102	40	127
251.0069387755102	251.08820861678004	41	127
251.08820861678004	251.1694784580499	40	127
251.1694784580499	251.25074829931972	41	127
251.25074829931972	251.3204081632653	40	127
251.3204081632653	251.482947845805	39	127
251.482947845805	251.91251700680272	40	127
252.0750566893424	252.24920634920636	40	127
252.5162358276644	253.87460317460318	40	127
252.5162358276644	252.58589569160998	53	127
252.5162358276644	254.84984126984128	59	127
252.58589569160998	252.6671655328798	52	127
252.6671655328798	252.7368253968254	53	127
252.7368253968254	252.8297052154195	52	127
252.8297052154195	252.91097505668935	53	127
252.91097505668935	253.10834467120182	52	127
253.10834467120182	253.24766439909297	51	127
253.24766439909297	253.3985941043084	52	127
253.5495238095238	253.70045351473922	52	127
253.87460317460318	254.00231292517006	41	127
253.87460317460318	255.47678004535146	52	127
253.87460317460318	256.1037188208617	60	127
254.00231292517006	254.07197278911565	40	127
254.07197278911565	254.3041723356009	41	127
254.3041723356009	254.40866213151926	40	127
254.40866213151926	254.5247619047619	41	127
254.5247619047619	254.62925170068027	40	127
254.62925170068027	254.84984126984128	39	127
254.84984126984128	255.0007709750567	40	127
254.84984126984128	255.47678004535146	57	127
255.16331065759638	255.3142403628118	40	127
255.47678004535146	256.7654875283447	40	127
255.47678004535146	255.54643990929705	53	127
255.47678004535146	257.46208616780046	62	127
255.54643990929705	255.61609977324264	52	127
255.61609977324264	255.70897959183674	53	127
255.70897959183674	255.77863945578233	52	127
255.77863945578233	255.85990929705216	53	127
255.85990929705216	255.92956916099774	52	127
255.92956916099774	256.1037188208617	51	127
256.1037188208617	256.7654875283447	59	127
256.1037188208617	256.30108843537414	52	127
256.4520181405896	256.61455782312925	52	127
256.7654875283447	258.19351473922904	52	127
256.7654875283447	256.9164172335601	41	127
256.7654875283447	258.19351473922904	64	127
256.9164172335601	256.9976870748299	40	127
256.9976870748299	257.09054421768707	41	127
257.09054421768707	257.18344671201817	40	127
257.18344671201817	257.2531065759637	41	127
257.2531065759637	257.33437641723356	40	127
257.33437641723356	257.46208616780046	39	127
257.46208616780046	257.61301587301585	40	127
257.46208616780046	258.19351473922904	60	127
257.7639455782313	257.97292517006804	40	127
258.19351473922904	258.855283446712	65	127
258.19351473922904	258.3096145124717	53	127
258.19351473922904	262.30342403628117	40	127
258.3096145124717	258.37927437641724	52	127
258.37927437641724	258.4605442176871	53	127
258.4605442176871	258.53020408163263	52	127
258.53020408163263	258.6230612244898	53	127
258.53020408163263	259.1687528344671	62	127
258.6230612244898	258.69274376417235	52	127
258.69274376417235	258.855283446712	51	127
258.855283446712	259.00621315192745	52	127
258.855283446712	259.50544217687076	64	127
259.1687528344671	259.50544217687076	60	127
259.1687528344671	259.31968253968256	52	127
259.50544217687076	260.9798866213152	63	127
259.50544217687076	259.6099319727891	55	127
259.50544217687076	260.9798866213152	60	127
259.6099319727891	259.7028117913832	54	127
259.7028117913832	259.8421315192744	55	127
259.8421315192744	259.91179138321996	54	127
259.91179138321996	260.03950113378687	55	127
260.03950113378687	260.10916099773243	54	127
260.10916099773243	260.32975056689344	52	127
260.32975056689344	260.4806802721088	54	127
260.6548299319728	260.82897959183674	54	127
260.9798866213152	262.30342403628117	62	127
260.9798866213152	261.04956916099775	57	127
260.9798866213152	262.30342403628117	59	127
261.04956916099775	261.1308390022676	56	127
261.1308390022676	261.20049886621314	57	127
261.20049886621314	261.281746031746	56	127
261.281746031746	261.3514285714286	57	127
261.3514285714286	261.4443083900227	56	127
261.4443083900227	261.60684807256234	54	127
261.60684807256234	261.76938775510206	56	127
261.98997732426307	262.1525170068027	56	127
262.30342403628117	262.7097732426304	45	127
262.30342403628117	262.7097732426304	60	127
262.30342403628117	262.7097732426304	57	127
262.30342403628117	262.7097732426304	57	127
262.7097732426304	263.13936507936506	77	127
262.7097732426304	263.13936507936506	80	127
262.7097732426304	263.13936507936506	74	127
262.7097732426304	263.13936507936506	59	127
263.13936507936506	263.487664399093	81	127
263.13936507936506	263.487664399093	76	127
263.13936507936506	263.487664399093	72	127
263.13936507936506	263.487664399093	60	127
263.487664399093	263.65020408163264	77	127
263.487664399093	263.65020408163264	74	127
263.487664399093	263.65020408163264	71	127
263.487664399093	263.65020408163264	56	127
263.8591836734694	264.05655328798184	76	127
263.8591836734694	264.05655328798184	72	127
263.8591836734694	264.05655328798184	64	127
263.8591836734694	264.05655328798184	57	127
264.27714285714285	264.416462585034	71	127
264.27714285714285	264.416462585034	74	127
264.27714285714285	264.416462585034	65	127
264.27714285714285	264.416462585034	50	127
264.6138321995465	264.81120181405896	69	127
264.6138321995465	264.81120181405896	64	127
264.6138321995465	264.81120181405896	52	127
264.6138321995465	264.81120181405896	72	127
265.00857142857143	265.21755102040817	52	127
265.00857142857143	265.21755102040817	71	127
265.00857142857143	265.21755102040817	68	127
265.00857142857143	265.21755102040817	64	127
265.519410430839	268.3754648526077	70	127
266.76167800453516	267.22607709750565	55	127
266.76167800453516	267.22607709750565	52	127
266.76167800453516	267.22607709750565	61	127
267.22607709750565	268.1548752834467	61	127
267.22607709750565	268.1548752834467	55	127
267.22607709750565	268.1548752834467	52	127
268.39868480725625	268.6657142857143	70	127
268.39868480725625	268.8166439909297	62	127
268.39868480725625	268.8166439909297	57	127
268.39868480725625	268.8166439909297	53	127
268.8166439909297	269.1417233560091	65	127
268.8166439909297	269.1417233560091	68	127
268.8166439909297	269.1417233560091	59	127
268.8166439909297	269.1417233560091	50	127
269.1417233560091	269.4203628117914	69	127
269.1417233560091	269.4203628117914	64	127
269.1417233560091	269.4203628117914	60	127
269.1417233560091	269.4203628117914	48	127
269.52485260770976	269.74544217687077	65	127
269.52485260770976	269.74544217687077	62	127
269.52485260770976	269.74544217687077	56	127
269.52485260770976	269.9079818594104	47	127
269.9079818594104	270.0937414965986	64	127
269.9079818594104	270.0937414965986	60	127
269.9079818594104	270.0937414965986	48	127
269.9079818594104	270.24467120181407	57	127
270.39560090702946	270.6742403628118	62	127
270.39560090702946	270.6742403628118	59	127
270.39560090702946	270.6742403628118	50	127
270.8716099773243	271.0225396825397	60	127
270.8716099773243	271.0225396825397	57	127
270.8716099773243	271.0225396825397	52	127
271.1734693877551	271.3360090702948	59	127
271.1734693877551	271.3360090702948	56	127
271.1734693877551	271.3360090702948	40	127
271.47532879818596	272.9614058956916	69	127
272.9614058956916	274.0875736961451	57	127
274.0875736961451	274.5984126984127	57	127
274.5984126984127	275.8290702947846	70	127
274.5984126984127	274.70290249433106	58	127
274.70290249433106	274.7725396825397	57	127
274.7725396825397	274.8538321995465	58	127
274.8538321995465	274.92349206349206	57	127
274.92349206349206	274.9931519274376	58	127
274.92349206349206	275.2253514739229	50	127
274.9931519274376	275.0744217687075	57	127
275.0744217687075	275.2253514739229	56	127
275.2253514739229	275.5039909297052	49	127
275.2253514739229	275.5039909297052	57	127
275.5039909297052	275.8290702947846	57	127
275.5039909297052	275.8290702947846	50	127
275.8290702947846	277.32675736961454	57	127
275.8290702947846	276.862358276644	58	127
276.15414965986395	276.50244897959186	53	127
276.50244897959186	276.862358276644	52	127
276.862358276644	277.32675736961454	58	127
276.862358276644	277.32675736961454	50	127
277.32675736961454	280.10154195011336	55	127
277.32675736961454	277.4892970521542	60	127
277.32675736961454	278.63868480725625	73	127
277.4892970521542	277.57056689342403	58	127
277.57056689342403	277.64020408163265	60	127
277.64020408163265	277.7214965986395	58	127
277.7214965986395	277.79115646258504	60	127
277.7214965986395	278.0233560090703	52	127
277.79115646258504	277.87242630385487	58	127
277.87242630385487	278.0233560090703	57	127
278.0233560090703	278.3484353741497	58	127
278.0233560090703	278.3484353741497	51	127
278.3484353741497	278.63868480725625	58	127
278.3484353741497	278.63868480725625	52	127
278.63868480725625	279.7996825396825	61	127
278.63868480725625	280.10154195011336	58	127
279.01020408163265	279.4745804988662	55	127
279.4745804988662	279.7996825396825	53	127
279.7996825396825	280.10154195011336	61	127
279.7996825396825	280.10154195011336	52	127
280.10154195011336	280.42662131519273	53	127
280.10154195011336	280.77492063492065	62	127
280.10154195011336	280.77492063492065	57	127
280.10154195011336	281.45990929705215	62	127
280.42662131519273	280.77492063492065	62	127
280.77492063492065	281.1348299319728	64	127
281.1348299319728	281.45990929705215	65	127
281.45990929705215	282.53963718820864	50	127
281.81981859410433	282.13326530612244	65	127
282.13326530612244	282.53963718820864	64	127
282.53963718820864	282.86471655328796	62	127
282.53963718820864	282.86471655328796	50	127
282.86471655328796	284.1534240362812	75	127
282.86471655328796	282.9343764172336	52	127
282.9343764172336	283.00403628117914	50	127
283.00403628117914	283.08530612244897	52	127
283.08530612244897	283.1549433106576	50	127
283.1549433106576	283.2362358276644	52	127
283.1549433106576	283.4568253968254	67	127
283.2362358276644	283.30589569161	50	127
283.30589569161	283.4568253968254	49	127
283.4568253968254	283.81673469387755	66	127
283.4568253968254	283.81673469387755	50	127
283.81673469387755	284.1534240362812	67	127
283.81673469387755	284.1534240362812	50	127
284.1534240362812	285.558231292517	50	127
284.1534240362812	285.23315192743763	63	127
284.47850340136057	284.85002267573697	70	127
284.85002267573697	285.23315192743763	69	127
285.23315192743763	285.558231292517	63	127
285.23315192743763	285.558231292517	67	127
285.558231292517	288.2401360544218	48	127
285.558231292517	285.63950113378684	65	127
285.558231292517	286.76566893424035	78	127
285.63950113378684	285.70916099773245	63	127
285.70916099773245	285.778820861678	65	127
285.778820861678	285.86009070294784	63	127
285.86009070294784	285.9297505668934	65	127
285.86009070294784	286.1619501133787	67	127
285.9297505668934	286.0110204081633	63	127
286.0110204081633	286.1619501133787	62	127
286.1619501133787	286.4754195011338	63	127
286.1619501133787	286.4754195011338	66	127
286.4754195011338	286.76566893424035	67	127
286.4754195011338	286.76566893424035	63	127
286.76566893424035	287.8685941043084	66	127
286.76566893424035	288.2401360544218	63	127
287.0907482993197	287.48548752834466	72	127
287.48548752834466	287.8685941043084	70	127
287.8685941043084	288.2401360544218	66	127
287.8685941043084	288.2401360544218	69	127
288.2401360544218	289.0180045351474	46	127
288.2401360544218	289.0528344671202	67	127
288.2401360544218	289.0180045351474	62	127
288.3562358276644	288.4839229024943	62	127
288.4839229024943	288.58843537414964	67	127
288.58843537414964	288.7741950113379	70	127
288.7741950113379	288.913514739229	70	127
288.9599546485261	289.0063945578231	70	127
289.0528344671202	290.29510204081635	86	127
289.0528344671202	289.34308390022676	70	127
289.35469387755103	289.66816326530613	58	127
289.6797732426304	290.6201587301587	55	127
289.7842630385488	289.87714285714287	67	127
289.87714285714287	289.98163265306124	70	127
289.98163265306124	290.0977324263039	74	127
290.0977324263039	290.1441723356009	74	127
290.190612244898	290.24866213151927	74	127
290.29510204081635	290.5969614512472	74	127
290.29510204081635	290.457641723356	84	127
290.457641723356	290.6201587301587	82	127
290.6201587301587	290.9336281179138	81	127
290.6201587301587	291.1309977324263	58	127
290.9336281179138	291.1309977324263	79	127
291.1309977324263	292.05979591836734	60	127
291.1309977324263	291.43287981859413	77	127
291.23548752834466	291.33997732426303	55	127
291.33997732426303	291.43287981859413	58	127
291.43287981859413	291.74632653061224	76	127
291.43287981859413	291.54895691609977	64	127
291.54895691609977	291.5954195011338	64	127
291.65344671201814	291.69990929705216	64	127
291.74632653061224	293.0118367346939	79	127
291.74632653061224	292.0482086167801	64	127
292.05979591836734	292.39650793650793	52	127
292.39650793650793	293.27884353741496	48	127
292.48938775510203	292.5938775510204	60	127
292.5938775510204	292.70997732426304	67	127
292.70997732426304	292.80285714285714	70	127
292.80285714285714	292.8609070294785	70	127
292.9073469387755	292.9537868480726	70	127
293.0118367346939	293.2672562358277	70	127
293.0118367346939	293.1395464852608	77	127
293.1395464852608	293.27884353741496	76	127
293.27884353741496	293.42979591836735	74	127
293.27884353741496	293.5807256235828	52	127
293.42979591836735	293.5807256235828	72	127
293.5807256235828	294.64884353741496	53	127
293.5807256235828	293.92902494331065	70	127
293.69680272108843	293.80131519274374	53	127
293.80131519274374	293.92902494331065	60	127
293.92902494331065	294.05673469387756	65	127
293.92902494331065	294.33537414965986	69	127
294.05673469387756	294.10315192743764	65	127
294.207641723356	294.28893424036283	65	127
294.33537414965986	294.6256235827664	65	127
294.33537414965986	295.8330385487528	84	127
294.64884353741496	295.05519274376417	57	127
295.05519274376417	296.1697505668934	53	127
295.1712925170068	295.2990022675737	65	127
295.2990022675737	295.4266893424036	69	127
295.4266893424036	295.6240816326531	72	127
295.6240816326531	295.6821315192744	72	127
295.7401587301587	295.78662131519275	72	127
295.8330385487528	296.15814058956914	72	127
295.8330385487528	296.018820861678	82	127
296.018820861678	296.1697505668934	81	127
296.1697505668934	296.47160997732425	57	127
296.1697505668934	296.32068027210886	79	127
296.32068027210886	296.47160997732425	77	127
296.47160997732425	296.854716553288	76	127
296.47160997732425	297.5281179138322	58	127
296.5760997732426	296.69219954648526	53	127
296.69219954648526	296.854716553288	58	127
296.854716553288	296.9360090702948	62	127
296.854716553288	297.13337868480727	74	127
296.9360090702948	296.9940589569161	62	127
297.05210884353744	297.09854875283446	62	127
297.1565986394558	298.4336961451247	77	127
297.1565986394558	297.51650793650794	62	127
297.5281179138322	297.8415873015873	62	127
297.8415873015873	298.82843537414965	58	127
297.9460770975057	298.0389569160998	58	127
298.0389569160998	298.1318367346939	62	127
298.1318367346939	298.23632653061225	65	127
298.23632653061225	298.2827664399093	65	127
298.32920634920634	298.3872562358277	65	127
298.4336961451247	298.7819954648526	65	127
298.4336961451247	298.58462585034016	76	127
298.58462585034016	298.82843537414965	74	127
298.82843537414965	299.0722448979592	72	127
298.82843537414965	299.2463945578231	50	127
299.0722448979592	299.2463945578231	70	127
299.2463945578231	299.59469387755104	69	127
299.2463945578231	300.31451247165535	52	127
299.36249433106576	299.46698412698413	55	127
299.46698412698413	299.59469387755104	58	127
299.59469387755104	299.72238095238095	61	127
299.59469387755104	299.9429931972789	67	127
299.72238095238095	299.76884353741497	61	127
299.86172335600907	299.90816326530614	61	127
299.95460317460316	301.18526077097505	82	127
299.95460317460316	300.3029024943311	61	127
300.31451247165535	300.6163718820862	55	127
300.6163718820862	301.49873015873015	50	127
300.72086167800455	300.81374149659865	55	127
300.81374149659865	300.918231292517	58	127
300.918231292517	300.96467120181404	62	127
301.0111111111111	301.0691609977324	62	127
301.0807709750567	301.12721088435376	62	127
301.18526077097505	301.4755102040816	62	127
301.18526077097505	301.8702267573696	70	127
301.49873015873015	301.8702267573696	55	127
301.8702267573696	302.8803174603175	49	127
301.8702267573696	302.5668480725624	69	127
301.99795918367346	302.1140589569161	55	127
302.1140589569161	302.2069387755102	64	127
302.2069387755102	302.31142857142856	69	127
302.31142857142856	302.35786848072564	69	127
302.4275283446712	302.49718820861676	69	127
302.5668480725624	303.7742857142857	88	127
302.5668480725624	302.85709750566895	69	127
302.5668480725624	303.7742857142857	79	127
302.8803174603175	303.1821768707483	52	127
303.1821768707483	304.40122448979594	45	127
303.2750566893424	303.3795464852608	57	127
303.3795464852608	303.48403628117916	61	127
303.48403628117916	303.57691609977326	64	127
303.57691609977326	303.6233560090703	64	127
303.6814058956916	303.72784580498865	64	127
303.7742857142857	304.71469387755104	79	127
303.7742857142857	304.71469387755104	73	127
303.7742857142857	304.38961451247167	64	127
304.40122448979594	304.71469387755104	57	127
304.71469387755104	305.3880725623583	62	127
304.71469387755104	305.05138321995463	78	127
304.71469387755104	305.05138321995463	74	127
305.05138321995463	305.3880725623583	69	127
305.05138321995463	305.3880725623583	62	127
305.05138321995463	305.3880725623583	77	127
305.3880725623583	305.7363718820862	76	127
305.3880725623583	305.7363718820862	70	127
305.3880725623583	305.7363718820862	67	127
305.3880725623583	305.7363718820862	61	127
305.7363718820862	306.0962811791383	60	127
305.7363718820862	306.0962811791383	75	127
305.7363718820862	306.39814058956915	66	127
305.7363718820862	306.39814058956915	69	127
306.0962811791383	306.71160997732426	59	127
306.0962811791383	306.24721088435376	74	127
306.24721088435376	306.39814058956915	73	127
306.39814058956915	307.0831065759637	62	127
306.39814058956915	306.56068027210887	74	127
306.39814058956915	307.0831065759637	67	127
306.56068027210887	306.71160997732426	73	127
306.71160997732426	307.4662585034014	58	127
306.71160997732426	306.9089795918367	74	127
306.9089795918367	307.0831065759637	77	127
307.0831065759637	307.30371882086166	61	127
307.0831065759637	307.4662585034014	68	127
307.0831065759637	307.30371882086166	76	127
307.30371882086166	307.4662585034014	74	127
307.30371882086166	307.4662585034014	62	127
307.4662585034014	308.1860770975057	57	127
307.4662585034014	308.1512471655329	64	127
307.4662585034014	308.1860770975057	69	127
307.5591383219955	307.66362811791385	73	127
307.66362811791385	307.79133786848075	76	127
307.79133786848075	307.8958276643991	81	127
307.8958276643991	308.03514739229024	81	127
308.0931972789116	308.1396371882086	81	127
308.1860770975057	308.47632653061225	81	127
308.4879365079365	308.731746031746	81	127
308.4879365079365	308.731746031746	65	127
308.731746031746	308.88267573696146	77	127
308.731746031746	308.88267573696146	62	127
308.88267573696146	309.47478458049886	61	127
308.88267573696146	309.47478458049886	76	127
308.9871655328798	309.10326530612247	61	127
309.10326530612247	309.20775510204084	64	127
309.20775510204084	309.3122448979592	69	127
309.3122448979592	309.3586848072562	69	127
309.4051247165533	309.4631746031746	69	127
309.50961451247167	310.008843537415	69	127
310.0901133786848	310.3223129251701	77	127
310.0901133786848	310.3223129251701	69	127
310.33392290249435	310.4035827664399	74	127
310.33392290249435	310.4035827664399	65	127
310.42680272108845	311.23950113378686	64	127
310.42680272108845	313.28285714285715	45	127
310.42680272108845	311.0885714285714	73	127
310.51968253968255	310.6822222222222	49	127
310.6822222222222	310.7751020408163	52	127
310.7751020408163	310.89120181405895	57	127
310.89120181405895	310.9492517006803	57	127
311.0073015873016	311.0769387755102	57	127
311.1350113378685	313.43378684807254	57	127
311.23950113378686	311.33238095238096	57	127
311.33238095238096	311.47170068027214	61	127
311.47170068027214	311.61102040816326	64	127
311.61102040816326	311.6690702947846	64	127
311.73873015873016	311.79678004535145	64	127
311.8548299319728	313.28285714285715	64	127
311.8548299319728	313.28285714285715	61	127
311.9825396825397	312.0754195011338	61	127
312.0754195011338	312.2727891156463	64	127
312.2727891156463	312.43532879818594	69	127
312.43532879818594	312.51659863945576	69	127
312.56303854875284	312.6094557823129	69	127
312.6675283446712	312.8068253968254	69	127
312.9577777777778	313.28285714285715	69	127
313.28285714285715	314.15360544217685	65	127
313.28285714285715	316.4291609977324	45	127
313.28285714285715	315.0359637188209	70	127
313.28285714285715	314.15360544217685	62	127
313.43378684807254	313.5266439909297	50	127
313.5266439909297	313.7704761904762	53	127
313.7704761904762	313.8865759637188	57	127
313.8865759637188	313.9329931972789	57	127
313.9794557823129	314.06072562358275	57	127
314.15360544217685	316.58009070294787	58	127
314.15360544217685	314.22326530612247	65	127
314.15360544217685	314.22326530612247	62	127
314.29292517006803	314.40902494331067	58	127
314.40902494331067	314.5251247165533	62	127
314.5251247165533	314.68766439909297	65	127
314.68766439909297	314.7689342403628	65	127
314.8153741496599	314.88503401360543	65	127
314.9430839002268	316.4291609977324	65	127
314.9430839002268	316.4291609977324	62	127
315.0359637188209	315.1520634920635	62	127
315.1520634920635	315.32621315192745	65	127
315.32621315192745	315.47714285714284	70	127
315.47714285714284	315.5351927437642	70	127
315.6280725623583	315.67448979591836	70	127
315.7209523809524	315.8834693877551	70	127
316.057641723356	316.4291609977324	70	127
316.4291609977324	318.8904761904762	45	127
316.4291609977324	317.36956916099774	55	127
316.4291609977324	317.36956916099774	64	127
316.4291609977324	318.1706575963719	73	127
316.58009070294787	316.67297052154197	55	127
316.67297052154197	316.77746031746034	61	127
316.77746031746034	316.893537414966	64	127
316.893537414966	316.9748299319728	64	127
317.1025170068027	317.14897959183673	64	127
317.2186394557823	318.8904761904762	64	127
317.36956916099774	317.54371882086167	61	127
317.54371882086167	317.68303854875285	64	127
317.68303854875285	317.81074829931976	67	127
317.81074829931976	317.8571882086168	67	127
317.9152380952381	317.99650793650795	67	127
318.042947845805	318.8904761904762	67	127
318.042947845805	318.8904761904762	57	127
318.1706575963719	318.3331746031746	64	127
318.3331746031746	318.46090702947845	67	127
318.46090702947845	318.5653968253968	73	127
318.5653968253968	318.62344671201816	73	127
318.68149659863946	318.80920634920636	73	127
318.8904761904762	319.35485260770974	67	127
318.8904761904762	319.35485260770974	64	127
318.8904761904762	319.1691156462585	73	127
318.8904761904762	319.35485260770974	57	127
319.09945578231293	319.22716553287984	49	127
319.22716553287984	319.35485260770974	52	127
319.35485260770974	320.53909297052155	73	127
319.35485260770974	320.1443537414966	57	127
320.1443537414966	320.3301133786848	57	127
320.3881632653061	320.469433106576	57	127
320.53909297052155	322.08321995464854	74	127
320.53909297052155	322.08321995464854	50	127
321.08473922902493	321.2821315192744	57	127
321.08473922902493	321.2821315192744	53	127
321.44467120181406	321.618820861678	57	127
321.44467120181406	321.618820861678	53	127
321.76975056689344	321.9206802721088	53	127
321.76975056689344	321.9206802721088	57	127
322.08321995464854	322.95396825396824	62	127
322.08321995464854	323.44156462585033	48	127
322.44312925170067	322.6056689342404	57	127
322.44312925170067	322.6056689342404	53	127
322.7798185941043	322.93072562358276	57	127
322.7798185941043	322.93072562358276	53	127
323.08167800453515	323.44156462585033	62	127
323.08167800453515	323.2790476190476	53	127
323.08167800453515	323.2790476190476	57	127
323.44156462585033	324.8812244897959	46	127
323.44156462585033	323.5460544217687	64	127
323.5460544217687	323.62734693877553	62	127
323.62734693877553	323.72022675736963	64	127
323.72022675736963	323.80149659863946	62	127
323.80149659863946	323.8827664399093	64	127
323.80149659863946	324.0104761904762	58	127
323.80149659863946	324.0104761904762	53	127
323.8827664399093	324.0104761904762	62	127
324.0104761904762	324.20784580498866	61	127
324.20784580498866	324.3819954648526	53	127
324.20784580498866	324.49809523809523	62	127
324.20784580498866	324.3819954648526	58	127
324.5561451247166	324.71868480725624	58	127
324.5561451247166	324.71868480725624	53	127
324.5561451247166	324.8580045351474	62	127
324.8812244897959	326.37891156462587	45	127
324.8812244897959	325.9028798185941	62	127
325.2063038548753	325.34562358276645	65	127
325.2063038548753	325.34562358276645	57	127
325.49655328798184	325.9028798185941	65	127
325.49655328798184	325.6707029478458	57	127
325.9028798185941	326.21637188208615	57	127
325.9028798185941	326.37891156462587	77	127
325.9028798185941	326.37891156462587	62	127
326.37891156462587	327.6792290249433	43	127
326.37891156462587	327.16839002267574	77	127
326.70399092970524	326.85492063492063	58	127
326.70399092970524	327.01743764172335	62	127
327.01743764172335	327.34253968253967	61	127
327.01743764172335	327.16839002267574	58	127
327.16839002267574	327.34253968253967	76	127
327.34253968253967	327.5282766439909	58	127
327.34253968253967	327.6792290249433	64	127
327.34253968253967	327.5282766439909	74	127
327.5282766439909	327.6792290249433	73	127
327.6792290249433	329.07242630385485	45	127
327.6792290249433	328.3758276643991	70	127
328.0275283446712	328.2132879818594	61	127
328.0275283446712	328.2132879818594	52	127
328.3758276643991	328.5383673469388	61	127
328.3758276643991	328.5383673469388	52	127
328.3758276643991	328.770566893424	69	127
328.770566893424	329.07242630385485	67	127
328.770566893424	328.9098866213152	61	127
328.770566893424	328.9098866213152	52	127
329.07242630385485	329.24657596371884	65	127
329.07242630385485	329.24657596371884	62	127
329.07242630385485	329.69936507936507	50	127
329.07242630385485	329.69936507936507	38	127
329.39750566893423	329.7225850340136	70	127
329.39750566893423	329.7225850340136	67	127
329.7225850340136	330.1637641723356	69	127
329.7225850340136	330.1637641723356	65	127
330.1637641723356	330.59331065759636	68	127
330.1637641723356	330.59331065759636	64	127
330.59331065759636	330.9184126984127	65	127
330.59331065759636	331.19705215419503	69	127
330.9184126984127	331.2318820861678	67	127
330.9184126984127	331.2318820861678	64	127
331.2318820861678	331.5801814058957	65	127
331.2318820861678	331.5801814058957	62	127
331.5801814058957	332.14907029478456	61	127
331.5801814058957	332.14907029478456	64	127
331.83560090702946	331.91687074829935	62	127
332.06780045351474	332.13743764172335	74	127
332.14907029478456	332.4509297052154	62	127
332.14907029478456	333.3913378684807	86	127
332.14907029478456	332.4509297052154	62	127
332.4509297052154	332.6250793650794	69	127
332.4509297052154	332.6250793650794	65	127
332.4509297052154	332.6250793650794	62	127
332.78761904761905	332.9385487528345	65	127
332.78761904761905	332.9385487528345	69	127
332.78761904761905	332.9385487528345	62	127
333.0894784580499	333.24040816326533	65	127
333.0894784580499	333.24040816326533	62	127
333.0894784580499	333.24040816326533	69	127
333.3913378684807	334.51750566893423	74	127
333.69319727891155	334.01827664399093	69	127
333.69319727891155	334.01827664399093	66	127
333.69319727891155	334.01827664399093	60	127
334.2040362811791	334.3549659863946	66	127
334.2040362811791	334.3549659863946	60	127
334.2040362811791	334.3549659863946	69	127
334.51750566893423	334.72648526077097	69	127
334.51750566893423	334.72648526077097	66	127
334.51750566893423	334.72648526077097	60	127
334.51750566893423	334.8890022675737	74	127
334.8890022675737	334.95868480725625	76	127
334.95868480725625	335.0399546485261	74	127
335.0399546485261	335.10961451247164	76	127
335.10961451247164	335.1908843537415	74	127
335.1908843537415	335.3534240362812	59	127
335.1908843537415	335.2605442176871	76	127
335.1908843537415	335.3534240362812	62	127
335.1908843537415	335.3534240362812	67	127
335.2605442176871	335.3534240362812	74	127
335.3534240362812	335.50433106575963	73	127
335.50433106575963	335.6901133786848	67	127
335.50433106575963	335.6901133786848	59	127
335.50433106575963	335.8526530612245	74	127
335.50433106575963	335.6901133786848	62	127
335.8526530612245	336.1661224489796	74	127
335.8526530612245	336.0268027210884	62	127
335.8526530612245	336.0268027210884	67	127
335.8526530612245	336.0268027210884	59	127
336.1661224489796	337.4316099773243	74	127
336.49120181405897	336.7466213151927	68	127
336.49120181405897	336.7466213151927	58	127
336.49120181405897	336.7466213151927	77	127
336.9207709750567	337.2574603174603	68	127
336.9207709750567	337.2574603174603	58	127
336.9207709750567	337.4316099773243	77	127
337.4316099773243	337.5825396825397	68	127
337.4316099773243	337.5825396825397	58	127
337.4316099773243	337.7334693877551	89	127
337.4316099773243	337.7334693877551	74	127
337.7334693877551	338.3719954648526	68	127
337.7334693877551	338.522947845805	89	127
337.7334693877551	338.522947845805	74	127
337.7334693877551	338.8944671201814	57	127
338.3719954648526	338.9757369614513	69	127
338.522947845805	338.67385487528344	73	127
338.522947845805	338.67385487528344	88	127
338.67385487528344	338.82480725623583	86	127
338.67385487528344	338.82480725623583	77	127
338.82480725623583	338.9757369614513	76	127
338.82480725623583	338.9757369614513	85	127
338.9757369614513	339.71877551020407	82	127
338.9757369614513	339.71877551020407	79	127
339.41691609977323	339.71877551020407	57	127
339.71877551020407	340.0090022675737	81	127
339.71877551020407	340.0090022675737	77	127
339.71877551020407	340.0090022675737	59	127
340.0090022675737	340.33410430839	76	127
340.0090022675737	340.33410430839	61	127
340.0090022675737	340.554693877551	79	127
340.33410430839	340.72884353741495	62	127
340.33410430839	340.72884353741495	69	127
340.554693877551	340.72884353741495	77	127
340.72884353741495	340.9610430839002	76	127
340.72884353741495	340.9610430839002	70	127
340.72884353741495	341.1584126984127	55	127
340.9610430839002	341.1584126984127	82	127
340.9610430839002	341.1584126984127	67	127
341.1584126984127	341.30934240362814	67	127
341.1584126984127	341.30934240362814	82	127
341.1584126984127	341.4718820861678	57	127
341.30934240362814	341.4718820861678	65	127
341.30934240362814	341.4718820861678	81	127
341.4718820861678	341.6343990929705	64	127
341.4718820861678	341.6343990929705	73	127
341.4718820861678	341.80857142857144	57	127
341.6343990929705	341.80857142857144	67	127
341.6343990929705	341.80857142857144	76	127
341.80857142857144	342.5748299319728	74	127
341.80857142857144	342.5748299319728	65	127
341.80857142857144	342.5748299319728	62	127
342.2033106575964	342.43551020408165	57	127
342.6096598639456	342.7838095238095	53	127
342.9463492063492	343.12049886621315	50	127
343.3294784580499	343.65455782312927	45	127
343.3294784580499	344.3627664399093	57	127
343.65455782312927	344.02607709750566	57	127
344.02607709750566	344.3627664399093	57	127
344.3627664399093	344.74589569161	74	127
344.3627664399093	344.74589569161	65	127
344.3627664399093	344.74589569161	81	127
344.3627664399093	344.74589569161	57	127
344.74589569161	345.3612244897959	74	127
344.74589569161	344.8155328798186	81	127
344.74589569161	344.8271655328798	65	127
344.74589569161	345.07097505668935	57	127
344.8271655328798	344.9084126984127	64	127
344.8271655328798	344.9084126984127	79	127
344.9084126984127	345.0013151927438	81	127
344.9084126984127	345.0013151927438	65	127
345.0013151927438	345.07097505668935	64	127
345.0013151927438	345.07097505668935	79	127
345.07097505668935	345.1522448979592	78	127
345.07097505668935	345.1522448979592	62	127
345.07097505668935	345.3612244897959	57	127
345.1522448979592	345.2102947845805	64	127
345.1522448979592	345.2102947845805	79	127
345.2102947845805	345.32637188208616	81	127
345.2102947845805	345.3612244897959	65	127
345.3612244897959	345.6863038548753	82	127
345.3612244897959	345.6863038548753	73	127
345.3612244897959	345.6863038548753	67	127
345.3612244897959	345.6863038548753	57	127
345.6863038548753	345.88367346938776	73	127
345.6863038548753	345.88367346938776	70	127
345.6863038548753	346.0462131519274	67	127
345.6863038548753	346.0462131519274	57	127
346.0462131519274	346.2784126984127	74	127
346.0462131519274	346.2784126984127	69	127
346.0462131519274	346.42934240362814	65	127
346.0462131519274	346.42934240362814	57	127
346.42934240362814	346.7543990929705	69	127
346.42934240362814	346.58027210884353	76	127
346.42934240362814	346.7543990929705	64	127
346.42934240362814	346.7543990929705	61	127
346.7543990929705	347.05625850340135	79	127
346.7543990929705	347.05625850340135	76	127
346.7543990929705	347.0446712018141	62	127
346.7543990929705	347.05625850340135	62	127
347.05625850340135	347.3581405895692	56	127
347.05625850340135	347.1375510204082	79	127
347.05625850340135	347.1375510204082	76	127
347.1375510204082	347.20721088435374	74	127
347.1375510204082	347.20721088435374	77	127
347.20721088435374	347.2884807256236	76	127
347.20721088435374	347.2884807256236	73	127
347.2884807256236	347.3581405895692	77	127
347.2884807256236	347.3581405895692	74	127
347.3581405895692	347.66	57	127
347.3581405895692	347.96185941043086	76	127
347.3581405895692	347.96185941043086	73	127
347.6948299319728	347.8457596371882	69	127
347.8457596371882	347.9966893424036	68	127
347.9966893424036	348.14761904761906	69	127
348.14761904761906	348.4030385487528	68	127
348.4030385487528	348.7281179138322	69	127
348.7281179138322	348.9022448979592	68	127
348.9022448979592	349.2970068027211	45	127
348.9022448979592	349.9239229024943	69	127
348.9022448979592	349.9239229024943	57	127
349.2970068027211	349.62208616780043	57	127
349.62208616780043	349.9239229024943	57	127
349.9239229024943	350.307074829932	65	127
349.9239229024943	350.307074829932	86	127
349.9239229024943	350.307074829932	81	127
349.9239229024943	350.307074829932	57	127
350.307074829932	350.37673469387755	81	127
350.307074829932	350.37673469387755	65	127
350.307074829932	350.6089342403628	57	127
350.307074829932	350.8991836734694	86	127
350.37673469387755	350.4580045351474	79	127
350.37673469387755	350.4580045351474	64	127
350.4580045351474	350.527664399093	81	127
350.4580045351474	350.527664399093	65	127
350.527664399093	350.6089342403628	79	127
350.527664399093	350.6089342403628	64	127
350.6089342403628	350.8991836734694	57	127
350.6089342403628	350.6785941043084	78	127
350.6089342403628	350.6785941043084	62	127
350.6785941043084	350.7598639455782	64	127
350.6785941043084	350.7598639455782	79	127
350.7598639455782	350.8991836734694	65	127
350.7598639455782	350.8991836734694	81	127
350.8991836734694	351.2126530612245	57	127
350.8991836734694	351.2126530612245	85	127
350.8991836734694	351.2126530612245	82	127
350.8991836734694	351.2126530612245	67	127
351.2126530612245	351.37519274376416	82	127
351.2126530612245	351.37519274376416	73	127
351.2126530612245	351.5377324263039	67	127
351.2126530612245	351.5377324263039	57	127
351.5377324263039	351.7118820861678	81	127
351.5377324263039	351.7118820861678	74	127
351.5377324263039	351.92086167800454	65	127
351.5377324263039	351.92086167800454	57	127
351.92086167800454	352.28077097505667	61	127
351.92086167800454	352.1298412698413	79	127
351.92086167800454	352.1298412698413	76	127
351.92086167800454	352.76839002267576	69	127
352.28077097505667	352.76839002267576	76	127
352.28077097505667	352.5361904761905	79	127
352.28077097505667	352.76839002267576	62	127
352.5361904761905	352.6174603174603	77	127
352.6174603174603	352.68709750566893	79	127
352.68709750566893	352.76839002267576	77	127
352.76839002267576	352.8380498866213	76	127
352.76839002267576	353.1282993197279	71	127
352.76839002267576	352.8380498866213	79	127
352.76839002267576	353.1282993197279	56	127
352.8380498866213	352.91931972789115	77	127
352.8380498866213	352.91931972789115	74	127
352.91931972789115	353.000589569161	76	127
352.91931972789115	353.000589569161	73	127
353.000589569161	353.1282993197279	77	127
353.000589569161	353.1282993197279	74	127
353.1282993197279	353.26761904761906	76	127
353.1282993197279	353.68557823129254	64	127
353.1282993197279	353.68557823129254	57	127
353.1282993197279	353.7204081632653	73	127
353.26761904761906	353.41854875283445	80	127
353.41854875283445	353.5694784580499	81	127
353.5694784580499	353.7204081632653	80	127
353.7204081632653	353.87133786848074	81	127
353.87133786848074	354.0687074829932	80	127
354.0687074829932	354.21961451247165	81	127
354.0687074829932	354.21961451247165	77	127
354.21961451247165	354.4169841269841	77	127
354.21961451247165	354.4169841269841	74	127
354.4169841269841	354.5331065759637	73	127
354.4169841269841	354.6724263038549	76	127
354.5331065759637	354.6956462585034	68	127
354.6956462585034	354.8465759637188	69	127
354.8465759637188	355.05555555555554	68	127
355.05555555555554	355.252925170068	69	127
355.252925170068	355.40385487528346	68	127
355.40385487528346	355.5663945578231	69	127
355.40385487528346	355.5663945578231	65	127
355.5663945578231	355.71732426303856	65	127
355.5663945578231	355.71732426303856	62	127
355.71732426303856	355.90308390022676	61	127
355.71732426303856	356.04240362811794	64	127
355.90308390022676	356.0539909297052	56	127
356.0539909297052	356.2049433106576	57	127
356.2049433106576	356.44875283446714	56	127
356.44875283446714	356.6112925170068	57	127
356.6112925170068	356.78544217687073	56	127
356.78544217687073	356.94798185941045	57	127
356.78544217687073	356.94798185941045	53	127
356.94798185941045	357.13374149659865	53	127
356.94798185941045	357.13374149659865	50	127
357.13374149659865	357.2962811791383	49	127
357.13374149659865	357.4356009070295	52	127
357.2962811791383	357.44721088435375	44	127
357.44721088435375	357.679410430839	45	127
357.679410430839	357.8767800453515	44	127
357.8767800453515	358.07414965986396	45	127
358.07414965986396	358.2366893424036	44	127
358.2366893424036	358.44566893424036	45	127
358.44566893424036	358.77074829931973	41	127
358.77074829931973	360.0710657596372	82	127
358.77074829931973	360.0710657596372	55	127
358.77074829931973	360.0710657596372	64	127
358.77074829931973	360.0710657596372	73	127
358.77074829931973	360.0710657596372	64	127
358.77074829931973	360.0710657596372	40	127
360.0710657596372	360.6051247165533	61	127
360.0710657596372	360.6051247165533	55	127
360.0710657596372	360.6051247165533	52	127
360.6051247165533	360.93020408163267	62	127
360.6051247165533	360.93020408163267	53	127
360.6051247165533	360.93020408163267	53	127
360.93020408163267	361.1043537414966	62	127
360.93020408163267	361.1043537414966	53	127
360.93020408163267	361.1043537414966	53	127
361.5803401360544	361.8241723356009	62	127
361.5803401360544	361.8241723356009	54	127
361.5803401360544	361.8241723356009	54	127
362.4162811791383	362.69489795918366	55	127
362.4162811791383	362.69489795918366	63	127
362.4162811791383	362.69489795918366	55	127
363.28702947845807	363.414716553288	60	127
363.28702947845807	363.414716553288	57	127
363.28702947845807	363.414716553288	66	127
363.57727891156463	363.902358276644	69	127
363.57727891156463	363.902358276644	66	127
363.57727891156463	363.902358276644	60	127
363.902358276644	364.29709750566894	67	127
363.902358276644	364.29709750566894	67	127
363.902358276644	364.29709750566894	58	127
364.7150566893424	365.005306122449	64	127
364.7150566893424	365.005306122449	56	127
365.005306122449	365.3535827664399	65	127
365.005306122449	365.713514739229	57	127
365.005306122449	366.34045351473924	64	127
365.3535827664399	365.713514739229	66	127
365.713514739229	366.34045351473924	59	127
365.713514739229	366.01537414965986	67	127
366.01537414965986	366.34045351473924	68	127
366.34045351473924	366.7235827664399	62	127
366.34045351473924	366.7235827664399	68	127
366.34045351473924	366.7235827664399	71	127
366.34045351473924	366.7235827664399	65	127
366.7235827664399	367.09507936507936	60	127
366.7235827664399	367.09507936507936	69	127
366.7235827664399	367.09507936507936	64	127
366.7235827664399	367.09507936507936	69	127
367.55950113378685	367.8845804988662	49	127
367.55950113378685	367.8845804988662	64	127
367.55950113378685	368.0238775510204	69	127
367.8845804988662	368.5231065759637	65	127
367.8845804988662	369.1732879818594	69	127
367.8845804988662	368.5231065759637	50	127
368.0238775510204	368.37219954648526	70	127
368.37219954648526	368.7088888888889	71	127
368.5231065759637	369.1732879818594	67	127
368.5231065759637	369.1732879818594	52	127
368.7088888888889	369.0339455782313	72	127
369.0339455782313	369.3358276643991	73	127
369.1732879818594	369.4867573696145	69	127
369.1732879818594	369.4867573696145	53	127
369.3358276643991	369.4867573696145	74	127
369.4867573696145	369.8118367346939	49	127
369.4867573696145	369.63768707482996	77	127
369.4867573696145	369.8118367346939	67	127
369.4867573696145	370.19496598639455	69	127
369.63768707482996	369.8118367346939	76	127
369.8118367346939	369.97437641723354	79	127
369.8118367346939	370.19496598639455	65	127
369.8118367346939	370.19496598639455	50	127
369.97437641723354	370.19496598639455	77	127
370.19496598639455	370.50843537414966	61	127
370.19496598639455	370.34589569161	81	127
370.19496598639455	370.50843537414966	52	127
370.19496598639455	370.8799319727891	69	127
370.34589569161	370.50843537414966	79	127
370.50843537414966	370.6593650793651	82	127
370.50843537414966	371.5765532879819	62	127
370.50843537414966	370.8799319727891	53	127
370.6593650793651	370.8799319727891	81	127
370.8799319727891	371.08891156462585	84	127
370.8799319727891	371.27469387755104	67	127
370.8799319727891	371.27469387755104	55	127
371.08891156462585	371.27469387755104	82	127
371.27469387755104	371.42562358276643	81	127
371.27469387755104	371.5765532879819	74	127
371.27469387755104	371.5765532879819	58	127
371.42562358276643	371.5765532879819	79	127
371.5765532879819	371.99451247165536	70	127
371.5765532879819	371.8435827664399	77	127
371.5765532879819	371.99451247165536	64	127
371.5765532879819	371.99451247165536	55	127
371.8435827664399	371.99451247165536	76	127
371.99451247165536	372.7956009070295	57	127
371.99451247165536	372.7607709750567	57	127
371.99451247165536	372.7956009070295	74	127
371.99451247165536	372.7956009070295	65	127
372.7956009070295	373.0742403628118	64	127
372.7956009070295	373.0742403628118	73	127
372.7956009070295	373.2483900226757	69	127
373.2483900226757	373.4457596371882	68	127
373.4457596371882	373.63151927437644	69	127
373.63151927437644	373.96820861678003	68	127
373.96820861678003	374.0726984126984	69	127
374.0726984126984	374.142358276644	68	127
374.142358276644	374.2468480725624	69	127
374.2468480725624	374.31650793650795	68	127
374.31650793650795	374.40938775510205	69	127
374.40938775510205	374.583537414966	68	127
374.583537414966	374.66478458049886	69	127
374.583537414966	374.7344671201814	76	127
374.583537414966	374.7344671201814	74	127
374.66478458049886	374.7344671201814	68	127
374.7344671201814	374.81573696145125	69	127
374.81573696145125	374.8853968253968	68	127
374.8853968253968	374.9782766439909	69	127
374.8853968253968	375.0479365079365	76	127
374.8853968253968	375.0479365079365	74	127
374.9782766439909	375.0479365079365	68	127
375.0479365079365	375.1059863945578	66	127
375.1175963718821	375.18725623582765	68	127
375.1988662131519	375.66326530612247	73	127
375.1988662131519	375.66326530612247	76	127
375.1988662131519	375.8025850340136	69	127
375.66326530612247	375.84902494331067	77	127
375.66326530612247	375.84902494331067	74	127
375.84902494331067	376.2089342403628	76	127
375.84902494331067	376.2089342403628	73	127
375.84902494331067	376.44113378684807	45	127
376.44113378684807	376.615283446712	46	127
376.615283446712	376.76621315192745	48	127
376.76621315192745	376.835873015873	46	127
376.835873015873	376.95197278911564	48	127
376.95197278911564	377.0216326530612	46	127
377.0216326530612	377.13773242630384	48	127
377.13773242630384	377.2189795918367	46	127
377.2189795918367	377.3118820861678	48	127
377.3118820861678	377.4163718820862	46	127
377.4163718820862	377.48603174603176	48	127
377.4163718820862	377.71823129251703	86	127
377.4163718820862	377.71823129251703	77	127
377.4163718820862	377.71823129251703	62	127
377.48603174603176	377.5673015873016	46	127
377.5673015873016	377.63696145124715	48	127
377.63696145124715	377.71823129251703	46	127
377.71823129251703	378.03167800453514	80	127
377.71823129251703	377.7878911564626	48	127
377.71823129251703	378.03167800453514	74	127
377.71823129251703	378.03167800453514	65	127
377.7878911564626	377.8459410430839	46	127
377.8807709750567	377.93879818594104	45	127
377.95043083900225	378.0084807256236	46	127
378.03167800453514	378.7282993197279	74	127
378.03167800453514	378.7282993197279	65	127
378.03167800453514	378.3683900226757	45	127
378.03167800453514	378.7282993197279	80	127
378.3683900226757	378.7282993197279	45	127
378.7282993197279	379.0533560090703	81	127
378.7282993197279	379.0533560090703	73	127
378.7282993197279	379.0533560090703	64	127
378.7282993197279	379.08820861678004	57	127
379.08820861678004	379.25074829931975	55	127
379.4481179138322	380.144716553288	55	127
379.4481179138322	381.5611337868481	57	127
379.8312471655329	380.144716553288	62	127
380.144716553288	380.8297052154195	54	127
380.144716553288	380.52784580498866	74	127
380.52784580498866	380.6787755102041	72	127
380.8297052154195	382.66408163265305	62	127
380.8297052154195	381.5611337868481	72	127
381.2360544217687	381.5611337868481	43	127
381.5611337868481	381.909433106576	55	127
381.5611337868481	381.909433106576	55	127
381.5611337868481	381.909433106576	70	127
381.909433106576	382.0951927437642	69	127
381.909433106576	382.0951927437642	53	127
381.909433106576	382.29256235827665	57	127
382.29256235827665	383.8134693877551	52	127
382.29256235827665	382.97755102040816	69	127
382.29256235827665	384.1269387755102	59	127
382.66408163265305	382.97755102040816	52	127
382.97755102040816	383.47678004535146	64	127
382.97755102040816	383.8134693877551	68	127
383.47678004535146	383.65092970521545	62	127
383.8134693877551	385.485306122449	67	127
383.8134693877551	384.42879818594105	62	127
383.8134693877551	385.78716553287984	45	127
384.1269387755102	384.42879818594105	64	127
384.42879818594105	384.7654875283447	61	127
384.42879818594105	384.7654875283447	76	127
384.7654875283447	384.98607709750564	74	127
384.7654875283447	384.98607709750564	59	127
385.1718367346939	385.78716553287984	74	127
385.1718367346939	385.78716553287984	57	127
385.485306122449	385.78716553287984	76	127
385.78716553287984	386.3096145124717	45	127
385.78716553287984	386.14707482993197	73	127
385.78716553287984	386.4837641723356	64	127
385.78716553287984	386.14707482993197	81	127
386.14707482993197	386.3096145124717	79	127
386.14707482993197	386.3096145124717	69	127
386.3096145124717	386.3908843537415	47	127
386.4837641723356	386.78562358276645	62	127
386.4837641723356	386.78562358276645	69	127
386.4837641723356	386.56503401360544	76	127
386.4837641723356	386.78562358276645	50	127
386.56503401360544	386.65791383219954	77	127
386.82045351473926	386.91333333333336	73	127
386.91333333333336	386.9829931972789	74	127
387.1339229024943	387.2732426303855	69	127
387.1339229024943	387.5286621315193	64	127
387.1339229024943	387.5286621315193	61	127
387.1339229024943	387.5286621315193	43	127
387.2732426303855	387.37773242630385	70	127
387.5402721088435	387.6447619047619	66	127
387.6447619047619	387.72603174603177	67	127
387.87696145124715	388.31814058956917	41	127
387.87696145124715	388.13238095238097	69	127
387.87696145124715	388.31814058956917	57	127
387.87696145124715	388.7244897959184	62	127
388.13238095238097	388.2484807256236	70	127
388.2484807256236	388.31814058956917	69	127
388.31814058956917	388.7244897959184	43	127
388.31814058956917	388.3878004535147	67	127
388.31814058956917	388.7244897959184	55	127
388.3878004535147	388.4922902494331	69	127
388.4922902494331	388.7244897959184	70	127
388.7244897959184	389.0843990929705	62	127
388.7244897959184	389.0843990929705	53	127
388.7244897959184	389.0843990929705	45	127
388.7244897959184	389.38625850340134	57	127
389.0843990929705	389.38625850340134	61	127
389.0843990929705	389.38625850340134	52	127
389.0843990929705	389.23532879818595	45	127
389.38625850340134	390.0712471655329	62	127
389.38625850340134	390.0712471655329	38	127
389.5836281179138	389.73455782312925	57	127
389.5836281179138	389.73455782312925	53	127
389.73455782312925	389.95514739229026	62	127
389.73455782312925	389.95514739229026	53	127
389.95514739229026	390.0364172335601	62	127
389.95514739229026	390.1176870748299	53	127
390.1176870748299	390.4427664399093	53	127
390.1176870748299	390.4427664399093	62	127
390.4427664399093	390.59369614512474	62	127
390.4427664399093	390.59369614512474	53	127
390.59369614512474	390.76784580498867	62	127
390.59369614512474	390.76784580498867	53	127
390.76784580498867	390.90716553287984	53	127
390.76784580498867	390.90716553287984	62	127
390.90716553287984	391.5108843537415	41	127
390.90716553287984	391.55732426303854	74	127
391.0697052154195	391.23224489795916	57	127
391.0697052154195	391.23224489795916	50	127
391.23224489795916	391.40639455782315	62	127
391.23224489795916	391.40639455782315	57	127
391.40639455782315	391.4760544217687	62	127
391.40639455782315	391.4760544217687	57	127
391.55732426303854	391.81274376417235	62	127
391.55732426303854	391.81274376417235	57	127
391.55732426303854	391.81274376417235	73	127
391.81274376417235	391.96367346938774	74	127
391.81274376417235	391.96367346938774	62	127
391.81274376417235	391.96367346938774	57	127
391.96367346938774	392.1146031746032	77	127
391.96367346938774	392.1146031746032	62	127
391.96367346938774	392.1146031746032	57	127
392.1146031746032	392.2655328798186	76	127
392.1146031746032	392.2655328798186	62	127
392.1146031746032	392.2655328798186	57	127
392.2655328798186	392.6951020408163	73	127
392.2655328798186	393.0201814058957	43	127
392.4745124716553	392.6951020408163	58	127
392.4745124716553	392.6951020408163	50	127
392.6951020408163	392.8808616780045	62	127
392.6951020408163	392.8808616780045	58	127
392.6951020408163	393.03179138321997	74	127
392.8808616780045	392.9737414965986	62	127
392.8808616780045	392.9737414965986	58	127
393.0666213151927	393.2639909297052	62	127
393.0666213151927	393.2639909297052	58	127
393.2639909297052	393.4265306122449	62	127
393.2639909297052	393.4265306122449	58	127
393.4265306122449	393.5774603174603	62	127
393.4265306122449	393.5774603174603	58	127
393.5774603174603	393.74	62	127
393.5774603174603	393.74	58	127
393.74	394.2043990929705	74	127
393.74	394.50625850340134	45	127
393.9721995464853	394.2043990929705	57	127
393.9721995464853	394.2043990929705	53	127
394.2043990929705	394.35532879818595	65	127
394.2043990929705	394.85455782312926	81	127
394.2043990929705	394.35532879818595	62	127
394.35532879818595	394.4714285714286	65	127
394.35532879818595	394.4714285714286	62	127
394.54108843537415	394.7036281179138	62	127
394.54108843537415	394.7036281179138	65	127
394.7036281179138	394.85455782312926	62	127
394.7036281179138	394.85455782312926	65	127
394.85455782312926	395.00548752834464	79	127
394.85455782312926	395.00548752834464	65	127
394.85455782312926	395.00548752834464	62	127
395.00548752834464	395.1564172335601	65	127
395.00548752834464	395.1564172335601	77	127
395.00548752834464	395.1564172335601	62	127
395.1564172335601	395.504716553288	76	127
395.1564172335601	396.07360544217687	46	127
395.330566893424	395.504716553288	62	127
395.330566893424	395.504716553288	53	127
395.504716553288	395.86462585034013	62	127
395.504716553288	395.86462585034013	65	127
395.504716553288	396.0968253968254	74	127
395.86462585034013	396.0155555555556	65	127
395.86462585034013	396.0155555555556	62	127
396.12004535147395	396.3174149659864	65	127
396.12004535147395	396.3174149659864	62	127
396.3174149659864	396.4683446712018	65	127
396.3174149659864	396.4683446712018	62	127
396.4683446712018	396.61927437641725	65	127
396.4683446712018	396.61927437641725	62	127
396.61927437641725	396.7934240362812	65	127
396.61927437641725	396.7934240362812	62	127
396.7934240362812	397.1997732426304	74	127
396.7934240362812	397.49002267573695	53	127
396.99079365079365	397.1997732426304	62	127
396.99079365079365	397.1997732426304	57	127
397.1997732426304	397.35070294784583	69	127
397.1997732426304	397.80349206349206	86	127
397.1997732426304	397.35070294784583	65	127
397.35070294784583	397.4551927437642	69	127
397.35070294784583	397.4551927437642	65	127
397.52485260770976	397.6641723356009	65	127
397.52485260770976	397.6641723356009	69	127
397.6641723356009	397.80349206349206	69	127
397.6641723356009	397.80349206349206	65	127
397.80349206349206	397.9544217687075	69	127
397.80349206349206	397.9544217687075	62	127
397.80349206349206	398.1401814058957	77	127
397.9544217687075	398.1401814058957	69	127
397.9544217687075	398.1401814058957	62	127
398.1401814058957	398.48848072562356	75	127
398.1401814058957	399.0225396825397	55	127
398.30272108843536	398.48848072562356	67	127
398.30272108843536	398.48848072562356	58	127
398.48848072562356	398.89482993197277	63	127
398.48848072562356	398.89482993197277	70	127
398.48848072562356	399.3592290249433	79	127
398.89482993197277	398.9877097505669	70	127
398.89482993197277	398.9877097505669	63	127
399.0573696145125	399.20829931972787	70	127
399.0573696145125	399.20829931972787	63	127
399.20829931972787	399.3592290249433	70	127
399.20829931972787	399.3592290249433	63	127
399.3592290249433	399.5101587301587	67	127
399.3592290249433	399.5101587301587	62	127
399.3592290249433	399.66108843537415	82	127
399.5101587301587	399.66108843537415	62	127
399.5101587301587	399.66108843537415	67	127
399.66108843537415	400.03260770975055	82	127
399.66108843537415	400.38090702947846	57	127
399.84684807256235	400.03260770975055	64	127
399.84684807256235	400.03260770975055	61	127
400.03260770975055	400.20675736961454	62	127
400.03260770975055	400.20675736961454	65	127
400.03260770975055	400.6827664399093	81	127
400.20675736961454	400.29963718820864	62	127
400.20675736961454	400.29963718820864	65	127
400.38090702947846	400.53183673469385	62	127
400.38090702947846	401.1355555555556	45	127
400.38090702947846	400.53183673469385	65	127
400.53183673469385	400.6827664399093	62	127
400.53183673469385	400.6827664399093	65	127
400.6827664399093	400.8336961451247	64	127
400.6827664399093	400.8336961451247	67	127
400.6827664399093	401.1355555555556	73	127
400.8336961451247	401.1355555555556	67	127
400.8336961451247	401.1355555555556	64	127
401.1355555555556	401.2400453514739	65	127
401.1355555555556	401.2400453514739	62	127
401.1355555555556	401.8669841269841	74	127
401.1355555555556	401.8669841269841	50	127
401.33292517006805	401.553514739229	67	127
401.33292517006805	401.553514739229	70	127
401.553514739229	401.727664399093	69	127
401.553514739229	401.727664399093	65	127
401.727664399093	401.9018140589569	68	127
401.727664399093	401.9018140589569	64	127
401.9018140589569	402.26172335600904	69	127
401.9018140589569	402.26172335600904	65	127
402.26172335600904	402.4126530612245	64	127
402.26172335600904	402.4126530612245	67	127
402.4126530612245	402.65646258503403	65	127
402.4126530612245	402.65646258503403	62	127
402.65646258503403	402.8654421768708	61	127
402.65646258503403	402.8654421768708	64	127
402.8654421768708	403.12086167800453	62	127
402.8654421768708	403.56204081632654	50	127
402.8654421768708	403.0047619047619	62	127
402.8654421768708	403.3646712018141	74	127
403.12086167800453	403.1905215419501	57	127
403.2834013605442	403.4459410430839	62	127
403.2834013605442	403.3646712018141	62	127
403.38789115646256	403.4923809523809	73	127
403.4459410430839	403.52721088435374	57	127
403.4923809523809	403.5968707482993	74	127
403.5968707482993	403.70136054421766	77	127
403.5968707482993	403.6781405895692	53	127
403.5968707482993	403.93356009070294	69	127
403.70136054421766	403.8290702947846	76	127
403.74780045351474	403.8522902494331	57	127
403.8290702947846	403.93356009070294	74	127
403.93356009070294	404.02643990929704	81	127
403.93356009070294	404.01482993197277	62	127
403.93356009070294	404.2354195011338	65	127
404.0380498866213	404.1309297052154	79	127
404.0844897959184	404.1657596371882	57	127
404.1309297052154	404.21219954648524	77	127
404.2354195011338	404.6301587301587	76	127
404.2354195011338	404.3166893424036	55	127
404.2354195011338	404.96684807256236	55	127
404.3979591836735	404.46761904761905	58	127
404.6301587301587	404.862358276644	64	127
404.6301587301587	404.69981859410433	62	127
404.6301587301587	404.9784580498866	74	127
404.862358276644	404.93201814058955	58	127
405.00167800453517	405.349977324263	70	127
405.00167800453517	405.0713378684807	55	127
405.1642176870748	405.2687074829932	58	127
405.349977324263	405.43124716553285	62	127
405.349977324263	405.65183673469386	67	127
405.51251700680274	405.5821768707483	58	127
405.65183673469386	406.38326530612244	57	127
405.65183673469386	405.8492063492063	57	127
405.65183673469386	405.87242630385487	62	127
405.87242630385487	406.0001360544218	73	127
405.9420861678004	406.0233560090703	62	127
406.0001360544218	406.10462585034014	74	127
406.10462585034014	406.25555555555553	62	127
406.10462585034014	406.19750566893424	65	127
406.10462585034014	406.2207256235828	75	127
406.2207256235828	406.32521541950115	76	127
406.25555555555553	406.3484353741497	62	127
406.32521541950115	406.452925170068	77	127
406.452925170068	406.55741496598637	78	127
406.452925170068	406.5341950113379	57	127
406.452925170068	406.7663945578231	74	127
406.55741496598637	406.6502947845805	79	127
406.60385487528345	406.6851247165533	62	127
406.6502947845805	406.7663945578231	80	127
406.7663945578231	406.8360544217687	65	127
406.7663945578231	406.847664399093	81	127
406.7663945578231	407.06825396825394	69	127
406.8708843537415	406.9405442176871	79	127
406.91732426303855	406.9869841269841	62	127
406.9637641723356	407.04503401360546	77	127
407.06825396825394	407.8809523809524	58	127
407.06825396825394	407.1611337868481	58	127
407.06825396825394	407.5210430839002	76	127
407.3120634920635	407.4281632653061	62	127
407.5210430839002	407.5907029478458	65	127
407.5210430839002	407.7068027210884	62	127
407.5210430839002	407.9041723356009	74	127
407.7068027210884	407.83451247165533	62	127
407.92739229024943	408.2524716553288	74	127
407.92739229024943	407.997052154195	58	127
408.10154195011336	408.18281179138324	62	127
408.2524716553288	408.55433106575964	70	127
408.2524716553288	408.33374149659863	65	127
408.4034013605442	408.4846712018141	62	127
408.55433106575964	408.72848072562357	57	127
408.55433106575964	408.7517006802721	62	127
408.55433106575964	409.320589569161	53	127
408.7517006802721	408.8561904761905	65	127
408.7981405895692	408.90263038548756	62	127
408.8561904761905	408.99551020408165	69	127
408.99551020408165	409.1232199546485	65	127
408.99551020408165	409.1580498866213	74	127
408.99551020408165	409.2044897959184	69	127
409.1580498866213	409.2509297052154	77	127
409.2044897959184	409.27414965986395	62	127
409.2509297052154	409.3554195011338	81	127
409.3554195011338	409.4482993197279	86	127
409.3554195011338	409.6572789115646	77	127
409.3554195011338	409.42507936507934	57	127
409.4482993197279	409.55278911564625	84	127
409.5063492063492	409.5760090702948	62	127
409.55278911564625	409.6572789115646	82	127
409.6572789115646	409.7269387755102	65	127
409.6572789115646	409.73854875283445	81	127
409.6572789115646	409.95913832199545	74	127
409.7501587301587	409.83142857142855	79	127
409.80820861678006	409.8778684807256	62	127
409.8546485260771	409.9359183673469	77	127
409.95913832199545	410.08684807256236	76	127
409.95913832199545	410.05201814058955	58	127
409.95913832199545	410.64412698412696	55	127
410.08684807256236	410.19133786848073	77	127
410.1332879818594	410.23777777777775	62	127
410.19133786848073	410.30743764172337	75	127
410.30743764172337	410.5164172335601	58	127
410.30743764172337	410.3887074829932	64	127
410.30743764172337	410.423537414966	76	127
410.423537414966	410.5164172335601	79	127
410.5164172335601	410.6092970521542	62	127
410.5744671201814	410.63251700680274	78	127
410.67895691609976	410.7950566893424	58	127
410.67895691609976	410.81827664399094	79	127
410.67895691609976	411.0156462585034	70	127
410.81827664399094	410.91115646258504	77	127
410.86471655328796	410.94598639455785	62	127
410.91115646258504	411.0156462585034	76	127
411.0156462585034	411.09691609977324	64	127
411.0156462585034	411.1201360544218	74	127
411.0156462585034	411.31750566893425	67	127
411.1201360544218	411.2130158730159	72	127
411.1665759637188	411.2362358276644	62	127
411.2130158730159	411.31750566893425	70	127
411.31750566893425	411.6541950113379	57	127
411.31750566893425	411.50326530612244	69	127
411.31750566893425	411.6541950113379	65	127
411.31750566893425	411.6541950113379	62	127
411.50326530612244	411.6541950113379	81	127
411.6541950113379	412.3972335600907	58	127
411.6541950113379	411.747074829932	79	127
411.6541950113379	412.03732426303856	58	127
411.6541950113379	412.3972335600907	62	127
411.747074829932	411.8399546485261	77	127
411.8399546485261	411.90961451247165	76	127
411.90961451247165	412.03732426303856	74	127
412.03732426303856	412.1185941043084	77	127
412.03732426303856	412.3972335600907	55	127
412.1185941043084	412.25791383219956	76	127
412.25791383219956	412.3275736961451	77	127
412.3275736961451	412.3972335600907	76	127
412.3972335600907	412.8035827664399	61	127
412.3972335600907	412.47850340136057	77	127
412.3972335600907	412.54816326530613	57	127
412.3972335600907	412.8035827664399	57	127
412.47850340136057	412.54816326530613	76	127
412.54816326530613	412.8035827664399	55	127
412.54816326530613	412.6526530612245	74	127
412.66426303854877	412.7919727891156	76	127
412.8035827664399	413.2447619047619	50	127
412.8035827664399	413.54662131519274	74	127
412.8035827664399	413.58145124716555	62	127
412.8035827664399	413.58145124716555	53	127
413.2447619047619	413.95297052154194	48	127
413.58145124716555	414.3825396825397	63	127
413.58145124716555	414.3825396825397	54	127
413.95297052154194	414.30126984126986	46	127
414.30126984126986	414.3825396825397	45	127
414.3825396825397	414.7540589569161	62	127
414.3825396825397	414.7540589569161	55	127
414.3825396825397	414.7540589569161	46	127
414.7540589569161	414.90498866213153	45	127
414.7540589569161	414.90498866213153	66	127
414.7540589569161	414.90498866213153	60	127
415.102358276644	415.2532879818594	67	127
415.102358276644	415.2532879818594	62	127
415.102358276644	415.2532879818594	46	127
415.49709750566893	415.67124716553286	69	127
415.49709750566893	415.67124716553286	63	127
415.49709750566893	415.67124716553286	54	127
415.8802267573696	416.0659863945578	70	127
415.8802267573696	416.0659863945578	62	127
415.8802267573696	416.0659863945578	55	127
416.3214058956916	416.472335600907	68	127
416.3214058956916	416.472335600907	53	127
416.3214058956916	416.472335600907	71	127
416.6348752834467	416.7858049886621	72	127
416.6348752834467	416.7858049886621	67	127
416.6348752834467	416.7858049886621	52	127
416.99478458049884	417.13410430839	73	127
416.99478458049884	417.13410430839	70	127
416.99478458049884	417.13410430839	55	127
417.30825396825395	417.56367346938777	74	127
417.30825396825395	417.65655328798186	69	127
417.30825396825395	417.65655328798186	53	127
417.56367346938777	417.65655328798186	69	127
417.65655328798186	418.0977324263039	67	127
417.65655328798186	418.0977324263039	70	127
417.65655328798186	418.16739229024944	55	127
418.0977324263039	418.16739229024944	67	127
418.0977324263039	418.16739229024944	64	127
418.16739229024944	418.4924716553288	65	127
418.16739229024944	418.4924716553288	62	127
418.16739229024944	418.4924716553288	57	127
418.4924716553288	418.84077097505667	64	127
418.4924716553288	418.84077097505667	61	127
418.4924716553288	418.84077097505667	45	127
418.84077097505667	419.2355102040816	62	127
418.84077097505667	419.2355102040816	50	127
418.84077097505667	419.57219954648525	74	127
418.84077097505667	419.57219954648525	62	127
419.2355102040816	419.9553287981859	69	127
419.2355102040816	419.9553287981859	60	127
419.57219954648525	420.3500680272109	75	127
419.57219954648525	420.3500680272109	63	127
419.9553287981859	420.23396825396827	67	127
419.9553287981859	420.23396825396827	58	127
420.23396825396827	420.3500680272109	66	127
420.23396825396827	420.3500680272109	57	127
420.3500680272109	420.8144671201814	74	127
420.3500680272109	420.8144671201814	62	127
420.3500680272109	420.8144671201814	67	127
420.3500680272109	420.8144671201814	58	127
420.8144671201814	420.98861678004533	78	127
420.8144671201814	420.98861678004533	66	127
420.8144671201814	420.98861678004533	60	127
420.8144671201814	420.98861678004533	57	127
421.1395464852608	421.4065759637188	79	127
421.1395464852608	421.4065759637188	67	127
421.1395464852608	421.4065759637188	62	127
421.1395464852608	421.4065759637188	58	127
421.5691156462585	421.7316553287982	81	127
421.5691156462585	421.7316553287982	69	127
421.5691156462585	421.7316553287982	63	127
421.5691156462585	421.7316553287982	54	127
421.92902494331065	422.1612244897959	82	127
421.92902494331065	422.1612244897959	70	127
421.92902494331065	422.1612244897959	62	127
421.92902494331065	422.1612244897959	55	127
422.3121541950113	422.4863038548753	83	127
422.3121541950113	422.4863038548753	71	127
422.3121541950113	422.4863038548753	68	127
422.3121541950113	422.4863038548753	53	127
422.6372335600907	422.78816326530614	84	127
422.6372335600907	422.78816326530614	72	127
422.6372335600907	422.78816326530614	67	127
422.6372335600907	422.78816326530614	52	127
423.0435827664399	423.19451247165534	55	127
423.0435827664399	423.19451247165534	85	127
423.0435827664399	423.19451247165534	73	127
423.0435827664399	423.19451247165534	70	127
423.38027210884354	423.6124716553288	74	127
423.38027210884354	423.6124716553288	86	127
423.38027210884354	423.7169614512472	69	127
423.38027210884354	423.7169614512472	53	127
423.6124716553288	423.7169614512472	81	127
423.6124716553288	423.7169614512472	69	127
423.7169614512472	424.0768707482993	67	127
423.7169614512472	424.0768707482993	82	127
423.7169614512472	424.0768707482993	70	127
423.7169614512472	424.1465306122449	55	127
424.0768707482993	424.1465306122449	64	127
424.0768707482993	424.1465306122449	67	127
424.0768707482993	424.1465306122449	79	127
424.1465306122449	424.5180498866213	62	127
424.1465306122449	424.5180498866213	77	127
424.1465306122449	424.5180498866213	57	127
424.1465306122449	424.5180498866213	65	127
424.5180498866213	424.8895691609977	76	127
424.5180498866213	424.8895691609977	64	127
424.5180498866213	424.8895691609977	61	127
424.5180498866213	424.8895691609977	45	127
424.8895691609977	425.01727891156463	62	127
424.8895691609977	425.3539682539683	74	127
424.8895691609977	425.3539682539683	62	127
424.8895691609977	425.3539682539683	50	127
425.01727891156463	425.2610884353742	65	127
425.2610884353742	425.388798185941	69	127
425.388798185941	425.47006802721086	69	127
425.6674376417234	425.7138775510204	69	127
425.7603174603175	425.92285714285714	69	127
425.9925170068027	426.0621768707483	69	127
425.9925170068027	426.14344671201815	73	127
425.9925170068027	426.14344671201815	67	127
426.0853968253968	426.1666666666667	69	127
426.18988662131517	426.2827664399093	69	127
426.3059863945578	426.45691609977325	73	127
426.3059863945578	426.3756462585034	69	127
426.3059863945578	426.45691609977325	67	127
426.3988662131519	426.4801360544218	69	127
426.5033560090703	426.5730158730159	69	127
426.60784580498864	426.68911564625853	69	127
426.60784580498864	426.7587755102041	74	127
426.60784580498864	426.7587755102041	65	127
426.712335600907	426.7819954648526	69	127
426.7936054421769	426.86326530612246	69	127
426.8748752834467	426.95614512471656	69	127
426.8748752834467	427.0258049886621	74	127
426.8748752834467	427.0258049886621	65	127
426.9793650793651	427.0606349206349	69	127
427.09546485260773	427.1651247165533	69	127
427.18834467120183	427.36249433106576	76	127
427.18834467120183	427.2928344671202	69	127
427.18834467120183	427.36249433106576	61	127
427.3160544217687	427.3857142857143	69	127
427.40893424036284	427.49020408163267	69	127
427.51342403628115	427.58308390022677	69	127
427.51342403628115	427.58308390022677	77	127
427.51342403628115	427.68757369614514	61	127
427.58308390022677	427.68757369614514	76	127
427.64113378684806	427.7107936507937	69	127
427.68757369614514	427.7920634920635	74	127
427.73401360544216	427.8501133786848	69	127
427.7920634920635	427.86172335600907	76	127
427.87333333333333	428.05909297052153	62	127
427.87333333333333	427.9429931972789	69	127
427.87333333333333	428.1984126984127	77	127
427.989433106576	428.0823129251701	74	127
428.1055328798186	428.18680272108844	74	127
428.1984126984127	428.26807256235827	74	127
428.1984126984127	428.3493424036281	78	127
428.1984126984127	428.3493424036281	60	127
428.2912925170068	428.37256235827664	74	127
428.3957823129252	428.46544217687074	74	127
428.50027210884355	428.7905215419501	59	127
428.50027210884355	428.7905215419501	79	127
428.50027210884355	428.5699319727891	74	127
428.6163718820862	428.8253514739229	74	127
428.8485714285714	428.918231292517	74	127
428.94145124716556	429.03433106575966	74	127
428.94145124716556	429.1039909297052	80	127
428.94145124716556	429.1039909297052	58	127
429.05755102040814	429.12721088435376	74	127
429.1620408163265	429.2317006802721	74	127
429.3245804988662	429.4174603174603	74	127
429.3245804988662	429.4871201814059	57	127
429.3245804988662	429.5683900226757	81	127
429.44068027210886	429.5103401360544	74	127
429.53356009070296	429.6148299319728	74	127
429.5683900226757	429.63804988662133	77	127
429.63804988662133	429.71931972789116	74	127
429.63804988662133	429.8354195011338	55	127
429.63804988662133	429.90507936507936	82	127
429.7889795918367	429.85863945578234	74	127
429.8818594104308	429.9631292517007	74	127
429.90507936507936	429.9863492063492	79	127
429.9863492063492	430.0560090702948	74	127
429.9863492063492	430.13727891156464	57	127
429.9863492063492	430.27659863945576	77	127
430.09083900226756	430.1488888888889	76	127
430.1721088435374	430.2533786848073	74	127
430.27659863945576	430.41591836734693	57	127
430.27659863945576	430.3462585034014	77	127
430.27659863945576	430.3462585034014	73	127
430.3462585034014	430.41591836734693	76	127
430.3694784580499	430.4391383219955	71	127
430.41591836734693	430.4855782312925	74	127
430.462358276644	430.54362811791384	73	127
430.4855782312925	430.5552380952381	76	127
430.57845804988665	431.32149659863944	74	127
430.57845804988665	430.67133786848075	50	127
430.57845804988665	430.8919274376417	74	127
430.67133786848075	430.78743764172333	53	127
430.78743764172333	430.90353741496597	57	127
430.90353741496597	430.9615873015873	57	127
431.00802721088434	431.0544671201814	57	127
431.26344671201815	431.3098866213152	57	127
431.35632653061225	431.611746031746	55	127
431.35632653061225	431.4375963718821	57	127
431.35632653061225	431.611746031746	61	127
431.5188662131519	431.611746031746	57	127
431.7162358276644	431.79750566893426	57	127
431.85555555555555	432.0645351473923	61	127
431.85555555555555	431.90199546485263	57	127
431.85555555555555	432.0645351473923	55	127
431.9716553287982	432.0645351473923	57	127
432.1225850340136	432.1922448979592	57	127
432.2386848072562	432.4128344671202	62	127
432.2386848072562	432.29673469387757	57	127
432.2386848072562	432.4128344671202	53	127
432.3663945578231	432.4128344671202	57	127
432.5173242630386	432.5637641723356	57	127
432.71469387755104	432.8772335600907	62	127
432.71469387755104	432.76113378684806	57	127
432.71469387755104	432.8772335600907	53	127
432.8191836734694	432.8772335600907	57	127
432.9236734693878	432.9701133786848	57	127
433.02816326530615	433.1907029478458	49	127
433.02816326530615	433.07460317460317	57	127
433.02816326530615	433.1907029478458	64	127
433.12104308390025	433.1907029478458	57	127
433.2371428571429	433.2835827664399	57	127
433.376462585034	433.45773242630383	65	127
433.376462585034	433.43451247165535	57	127
433.376462585034	433.52739229024945	49	127
433.45773242630383	433.52739229024945	64	127
433.4809523809524	433.52739229024945	57	127
433.52739229024945	433.6086621315193	62	127
433.58544217687074	433.6318820861678	57	127
433.6086621315193	433.67832199546484	64	127
433.6899319727891	434.0498412698413	65	127
433.6899319727891	433.77120181405894	57	127
433.6899319727891	434.0498412698413	50	127
433.84086167800456	433.89891156462585	62	127
433.95696145124714	434.0034013605442	62	127
434.0498412698413	434.3284807256236	66	127
434.0498412698413	434.0962811791383	62	127
434.0498412698413	434.3284807256236	48	127
434.15433106575966	434.2007709750567	62	127
434.24721088435376	434.30526077097505	62	127
434.36331065759634	434.4213605442177	62	127
434.479410430839	434.52585034013606	62	127
434.6071201814059	434.6883900226757	62	127
434.74643990929707	434.85092970521544	62	127
434.93219954648526	435.15278911564627	62	127
435.1992290249433	435.24566893424037	62	127
435.30371882086166	435.6404081632653	67	127
435.30371882086166	435.35015873015874	62	127
435.30371882086166	435.6404081632653	47	127
435.39659863945576	435.4662585034014	62	127
435.52430839002267	435.5939682539682	62	127
435.6404081632653	435.71006802721087	62	127
435.6404081632653	435.9887074829932	68	127
435.6404081632653	435.9887074829932	46	127
435.75650793650794	435.80294784580497	62	127
435.88421768707485	435.9538775510204	62	127
436.00031746031743	436.0931972789116	62	127
436.1512471655329	436.19768707482996	62	127
436.34861678004535	436.3950566893424	62	127
436.44149659863945	436.4879365079365	62	127
436.60403628117916	436.6736961451247	62	127
436.72013605442174	436.78979591836736	62	127
436.8362358276644	437.0916553287982	69	127
436.8362358276644	436.89428571428573	62	127
436.8362358276644	437.0219954648526	45	127
436.9639455782313	437.0219954648526	62	127
437.06843537414966	437.12648526077095	62	127
437.0916553287982	437.172925170068	65	127
437.172925170068	437.39351473922903	70	127
437.172925170068	437.2193650793651	62	127
437.172925170068	437.3238548752835	43	127
437.2658049886621	437.3238548752835	62	127
437.3702947845805	437.50961451247167	62	127
437.39351473922903	437.56766439909296	67	127
437.56766439909296	437.6837641723356	62	127
437.56766439909296	438.0901133786848	65	127
437.56766439909296	438.0901133786848	45	127
437.6837641723356	437.9624036281179	64	127
437.9624036281179	438.0901133786848	62	127
438.0901133786848	438.2178231292517	65	127
438.0901133786848	438.24104308390025	61	127
438.0901133786848	438.450022675737	45	127
438.2178231292517	438.2874829931973	64	127
438.24104308390025	438.3455328798186	59	127
438.2874829931973	438.3687528344671	62	127
438.3455328798186	438.450022675737	61	127
438.3687528344671	438.450022675737	64	127
438.450022675737	439.0421315192744	62	127
438.450022675737	439.0421315192744	62	127
438.450022675737	439.0421315192744	38	127
438.5545124716553	438.65900226757367	74	127
438.65900226757367	438.76349206349204	77	127
438.76349206349204	438.8679818594104	81	127
438.8679818594104	438.9144217687075	81	127
438.9724716553288	439.0305215419501	81	127
439.07696145124714	439.33238095238096	81	127
439.3556009070295	439.599410430839	79	127
439.3556009070295	439.599410430839	64	127
439.3556009070295	439.6922902494331	57	127
439.61102040816326	439.6690702947846	76	127
439.61102040816326	439.6690702947846	61	127
439.6922902494331	440.3540589569161	62	127
439.6922902494331	440.3540589569161	74	127
439.6922902494331	440.3540589569161	50	127
439.7851700680272	439.97092970521544	62	127
439.97092970521544	440.0754195011338	65	127
440.0754195011338	440.1682993197279	69	127
440.1682993197279	440.21473922902493	69	127
440.2727891156463	440.3192290249433	69	127
440.3540589569161	440.70235827664396	69	127
440.7255782312925	441.09709750566896	67	127
440.7255782312925	441.09709750566896	52	127
440.7255782312925	441.2015873015873	45	127
441.09709750566896	441.2015873015873	49	127
441.09709750566896	441.2015873015873	64	127
441.2015873015873	441.51505668934243	50	127
441.2015873015873	442.40902494331067	38	127
441.2015873015873	441.51505668934243	62	127
441.3060770975057	441.41056689342406	57	127
441.41056689342406	441.51505668934243	62	127
441.51505668934243	441.6195464852608	65	127
441.51505668934243	441.6775963718821	50	127
441.51505668934243	441.9562358276644	57	127
441.6195464852608	441.6775963718821	65	127
441.851746031746	441.8981859410431	65	127
441.9562358276644	442.3974149659864	57	127
441.9562358276644	442.3974149659864	65	127
441.9562358276644	442.3974149659864	50	127
442.40902494331067	442.7457142857143	50	127
442.8153741496599	443.128843537415	51	127
442.91986394557824	443.0243537414966	57	127
443.0243537414966	443.128843537415	60	127
443.128843537415	443.2565532879819	66	127
443.128843537415	443.5003628117914	50	127
443.128843537415	443.32621315192745	57	127
443.128843537415	443.32621315192745	50	127
443.2565532879819	443.32621315192745	66	127
443.38426303854874	443.4423129251701	66	127
443.5003628117914	443.88349206349204	66	127
443.5003628117914	443.88349206349204	57	127
443.5003628117914	443.88349206349204	50	127
443.5003628117914	443.9067120181406	48	127
443.9067120181406	444.2434013605442	50	127
444.3130612244898	445.2882993197279	47	127
444.4059410430839	444.51043083900225	55	127
444.51043083900225	444.6265306122449	62	127
444.6265306122449	444.73102040816326	67	127
444.6265306122449	444.7890702947846	57	127
444.6265306122449	444.7890702947846	50	127
444.73102040816326	444.7890702947846	67	127
444.83551020408163	444.8819501133787	67	127
444.94	445.2650793650794	57	127
444.94	445.2650793650794	67	127
444.94	445.2650793650794	50	127
445.2882993197279	445.61337868480723	50	127
445.7062585034014	446.0777777777778	52	127
445.8455782312925	445.9732879818594	56	127
445.9732879818594	446.0777777777778	62	127
446.0777777777778	446.2054875283447	68	127
446.0777777777778	446.2519274376417	59	127
446.0777777777778	446.2519274376417	52	127
446.0777777777778	446.4376870748299	50	127
446.2054875283447	446.2519274376417	68	127
446.32158730158733	446.36802721088435	68	127
446.4376870748299	446.7627664399093	59	127
446.4376870748299	446.7627664399093	52	127
446.4376870748299	446.7627664399093	68	127
446.4376870748299	446.80920634920636	49	127
446.80920634920636	447.13428571428574	50	127
447.21555555555557	448.3997732426304	45	127
447.3316553287982	447.4361451247166	57	127
447.4361451247166	447.58707482993196	62	127
447.58707482993196	447.81927437641724	53	127
447.58707482993196	447.7496145124717	69	127
447.58707482993196	447.81927437641724	62	127
447.7496145124717	447.81927437641724	69	127
447.86571428571426	447.9237641723356	69	127
448.0166439909297	448.37655328798184	53	127
448.0166439909297	448.37655328798184	62	127
448.0166439909297	448.37655328798184	69	127
448.3997732426304	448.66680272108846	53	127
448.736462585034	449.7465306122449	43	127
448.8409523809524	448.957052154195	55	127
448.957052154195	449.0615419501134	63	127
449.0615419501134	449.18925170068024	70	127
449.0615419501134	449.2473015873016	63	127
449.0615419501134	449.2473015873016	55	127
449.18925170068024	449.2473015873016	70	127
449.2937414965986	449.36340136054423	70	127
449.4214512471655	449.7465306122449	55	127
449.4214512471655	449.72331065759636	70	127
449.4214512471655	449.7465306122449	63	127
449.7465306122449	450.08321995464854	67	127
449.7465306122449	450.08321995464854	58	127
449.7465306122449	450.08321995464854	51	127
450.08321995464854	450.8378684807256	67	127
450.08321995464854	450.45473922902494	57	127
450.08321995464854	450.45473922902494	49	127
450.45473922902494	450.8146485260771	69	127
450.45473922902494	450.8378684807256	61	127
450.45473922902494	450.8378684807256	45	127
450.8378684807256	451.20938775510206	46	127
450.8378684807256	451.62734693877553	65	127
450.8378684807256	451.20938775510206	62	127
451.20938775510206	451.62734693877553	74	127
451.20938775510206	451.62734693877553	57	127
451.20938775510206	451.62734693877553	41	127
451.62734693877553	451.9640362811791	43	127
451.62734693877553	451.9640362811791	64	127
451.62734693877553	451.9640362811791	58	127
451.9640362811791	452.31233560090703	46	127
451.9640362811791	452.2891156462585	64	127
451.9640362811791	452.31233560090703	62	127
451.9640362811791	452.31233560090703	55	127
452.31233560090703	452.68385487528343	57	127
452.31233560090703	453.0553741496599	61	127
452.31233560090703	452.68385487528343	45	127
452.68385487528343	453.0553741496599	55	127
452.68385487528343	453.0553741496599	69	127
452.68385487528343	453.0553741496599	45	127
453.0553741496599	453.78680272108846	50	127
453.0553741496599	453.2063038548753	62	127
453.0553741496599	453.2643537414966	62	127
453.0553741496599	453.78680272108846	53	127
453.2063038548753	453.3224036281179	65	127
453.3224036281179	453.4268934240363	69	127
453.4268934240363	453.62426303854875	65	127
453.4268934240363	453.5546031746032	62	127
453.5546031746032	453.6823129251701	65	127
453.6823129251701	453.84485260770975	69	127
453.84485260770975	454.0886621315193	69	127
453.84485260770975	454.0073922902494	62	127
454.0073922902494	454.1351020408163	65	127
454.1351020408163	454.25120181405896	69	127
454.25120181405896	454.3556916099773	64	127
454.25120181405896	454.6111111111111	57	127
454.25120181405896	454.3324716553288	74	127
454.25120181405896	454.6111111111111	57	127
454.3324716553288	454.4253514739229	73	127
454.3556916099773	454.4601814058957	67	127
454.4253514739229	454.5066213151927	71	127
454.48340136054424	454.5878911564626	69	127
454.5066213151927	454.5878911564626	73	127
454.6111111111111	454.8200907029478	62	127
454.6111111111111	455.07551020408164	74	127
454.6111111111111	455.48185941043084	50	127
454.6111111111111	455.48185941043084	57	127
454.8200907029478	454.94780045351473	65	127
454.94780045351473	455.07551020408164	69	127
455.07551020408164	455.2148299319728	62	127
455.07551020408164	455.3077097505669	69	127
455.2148299319728	455.3657596371882	65	127
455.3657596371882	455.52829931972786	69	127
455.52829931972786	455.6443990929705	62	127
455.52829931972786	455.70244897959185	77	127
455.6443990929705	455.74888888888887	65	127
455.74888888888887	455.8649886621315	69	127
455.8649886621315	456.2132879818594	45	127
455.8649886621315	455.9578684807256	77	127
455.8649886621315	455.98108843537415	64	127
455.8649886621315	456.2132879818594	61	127
455.9578684807256	456.03913832199544	76	127
455.98108843537415	456.0971882086168	67	127
456.03913832199544	456.1320181405896	74	127
456.0971882086168	456.2132879818594	69	127
456.1320181405896	456.2132879818594	76	127
456.2132879818594	456.60802721088436	74	127
456.2132879818594	457.01437641723356	50	127
456.2132879818594	457.01437641723356	62	127
456.2132879818594	456.3642176870748	62	127
456.3642176870748	456.48031746031745	65	127
456.48031746031745	456.60802721088436	69	127
456.60802721088436	456.8518367346939	77	127
456.60802721088436	456.79378684807256	62	127
456.79378684807256	456.92149659863946	65	127
456.92149659863946	457.0956462585034	69	127
457.0956462585034	457.21174603174603	62	127
457.0956462585034	457.2814058956916	81	127
457.21174603174603	457.33945578231294	65	127
457.33945578231294	457.4555555555556	69	127
457.4555555555556	457.57165532879816	64	127
457.4555555555556	457.74580498866214	69	127
457.4555555555556	457.74580498866214	57	127
457.4555555555556	457.74580498866214	69	127
457.4555555555556	457.74580498866214	76	127
457.4555555555556	457.74580498866214	85	127
457.57165532879816	457.6645351473923	67	127
457.6877551020408	457.79224489795916	69	127
458.0012244897959	458.7326530612245	62	127
458.0012244897959	458.7326530612245	86	127
458.0012244897959	458.7326530612245	74	127
458.0012244897959	458.7326530612245	57	127
458.0012244897959	458.7326530612245	65	127
458.0012244897959	458.7326530612245	69	127
458.0012244897959	458.7326530612245	50	127
