# onset,offset,note,velocity
0.20820861678004535	0.44040816326530613	74	127
0.20820861678004535	0.44040816326530613	62	127
0.5100680272108844	0.6261678004535147	62	127
0.5100680272108844	0.6261678004535147	74	127
0.6261678004535147	3.644761904761905	62	127
0.6261678004535147	1.1486167800453515	74	127
1.1486167800453515	1.5781859410430839	69	127
1.5781859410430839	2.0541950113378684	77	127
1.5781859410430839	1.8800453514739228	69	127
1.5781859410430839	1.8800453514739228	65	127
1.938095238095238	2.0541950113378684	65	127
1.938095238095238	2.0541950113378684	69	127
2.0541950113378684	2.448934240362812	70	127
2.0541950113378684	2.448934240362812	67	127
2.0541950113378684	2.25156462585034	77	127
2.25156462585034	2.448934240362812	76	127
2.448934240362812	2.855283446712018	67	127
2.448934240362812	2.855283446712018	64	127
2.448934240362812	2.6463038548752835	74	127
2.6463038548752835	2.855283446712018	73	127
2.855283446712018	3.2732426303854876	69	127
2.855283446712018	3.2732426303854876	65	127
2.855283446712018	3.064263038548753	74	127
3.064263038548753	3.2732426303854876	77	127
3.2732426303854876	3.644761904761905	65	127
3.2732426303854876	3.644761904761905	62	127
3.2732426303854876	3.6331519274376416	81	127
3.679591836734694	4.027891156462585	81	127
4.062721088435374	4.457460317460318	81	127
4.062721088435374	4.318140589569161	65	127
4.062721088435374	4.318140589569161	62	127
4.062721088435374	4.318140589569161	62	127
4.387800453514739	4.50390022675737	62	127
4.387800453514739	4.50390022675737	62	127
4.387800453514739	4.50390022675737	65	127
4.50390022675737	4.945056689342404	81	127
4.50390022675737	5.815827664399093	61	127
4.50390022675737	4.945056689342404	64	127
4.50390022675737	4.945056689342404	69	127
4.945056689342404	5.2817687074829935	73	127
4.945056689342404	5.2817687074829935	76	127
4.945056689342404	5.2817687074829935	69	127
5.374625850340136	5.815827664399093	76	127
5.374625850340136	5.630068027210885	79	127
5.699727891156463	5.815827664399093	79	127
5.815827664399093	6.257006802721088	64	127
5.815827664399093	6.257006802721088	60	127
5.815827664399093	6.257006802721088	60	127
5.815827664399093	6.245396825396825	79	127
6.291836734693877	6.547256235827664	79	127
6.558866213151927	7.000045351473923	79	127
6.558866213151927	6.860725623582766	64	127
6.558866213151927	6.860725623582766	60	127
6.558866213151927	6.860725623582766	60	127
6.930385487528345	7.046485260770975	60	127
6.930385487528345	7.046485260770975	60	127
6.930385487528345	7.046485260770975	64	127
7.046485260770975	7.464444444444444	79	127
7.046485260770975	7.464444444444444	62	127
7.046485260770975	8.311972789115647	59	127
7.046485260770975	7.464444444444444	67	127
7.464444444444444	7.812743764172335	74	127
7.464444444444444	7.812743764172335	67	127
7.464444444444444	7.812743764172335	71	127
7.894013605442177	8.149433106575964	77	127
7.894013605442177	8.311972789115647	74	127
8.20748299319728	8.311972789115647	77	127
8.311972789115647	8.718321995464853	62	127
8.311972789115647	8.718321995464853	58	127
8.311972789115647	8.718321995464853	68	127
8.311972789115647	8.706712018140589	77	127
8.753151927437642	8.996938775510204	77	127
9.043401360544218	9.43814058956916	77	127
9.043401360544218	9.751609977324263	62	127
9.043401360544218	9.484580498866213	68	127
9.043401360544218	9.298820861678005	58	127
9.368480725623582	9.484580498866213	58	127
9.484580498866213	9.97219954648526	57	127
9.484580498866213	10.84294784580499	69	127
9.484580498866213	9.751609977324263	77	127
9.751609977324263	9.960589569160998	76	127
9.751609977324263	9.960589569160998	61	127
9.97219954648526	10.204399092970522	76	127
9.97219954648526	10.424965986394557	55	127
9.97219954648526	10.204399092970522	61	127
10.204399092970522	10.413378684807256	73	127
10.204399092970522	10.413378684807256	64	127
10.424965986394557	10.84294784580499	74	127
10.424965986394557	10.84294784580499	62	127
10.424965986394557	10.84294784580499	53	127
10.84294784580499	11.237687074829932	67	127
10.84294784580499	11.237687074829932	76	127
10.84294784580499	11.237687074829932	58	127
10.84294784580499	11.237687074829932	55	127
11.27251700680272	11.702086167800454	69	127
11.27251700680272	11.702086167800454	57	127
11.27251700680272	11.702086167800454	57	127
11.27251700680272	11.702086167800454	65	127
11.725283446712018	12.131655328798185	73	127
11.725283446712018	12.131655328798185	45	127
11.725283446712018	12.131655328798185	55	127
11.725283446712018	12.131655328798185	64	127
12.154875283446712	13.199773242630386	74	127
12.154875283446712	13.106893424036281	53	127
12.154875283446712	13.199773242630386	50	127
12.154875283446712	13.106893424036281	62	127
13.199773242630386	13.571292517006803	74	127
13.199773242630386	13.571292517006803	62	127
13.67578231292517	13.791882086167801	62	127
13.67578231292517	13.791882086167801	74	127
13.791882086167801	14.221451247165533	74	127
13.791882086167801	16.69437641723356	62	127
14.221451247165533	14.685850340136055	69	127
14.685850340136055	15.080589569160997	77	127
14.685850340136055	14.918049886621315	69	127
14.685850340136055	14.918049886621315	65	127
14.97609977324263	15.080589569160997	65	127
14.97609977324263	15.080589569160997	69	127
15.080589569160997	15.498548752834466	70	127
15.080589569160997	15.498548752834466	67	127
15.080589569160997	15.289569160997733	77	127
15.289569160997733	15.498548752834466	76	127
15.498548752834466	15.89328798185941	67	127
15.498548752834466	15.89328798185941	64	127
15.498548752834466	15.69591836734694	74	127
15.69591836734694	15.89328798185941	73	127
15.89328798185941	16.288027210884355	69	127
15.89328798185941	16.090657596371884	74	127
15.89328798185941	16.288027210884355	65	127
16.090657596371884	16.288027210884355	77	127
16.288027210884355	16.69437641723356	62	127
16.288027210884355	16.682766439909297	81	127
16.288027210884355	16.69437641723356	65	127
16.72920634920635	17.054285714285715	81	127
17.100702947845804	17.48385487528345	81	127
17.100702947845804	17.356145124716555	65	127
17.100702947845804	17.356145124716555	62	127
17.100702947845804	17.356145124716555	62	127
17.414172335600906	17.530294784580498	62	127
17.414172335600906	17.530294784580498	62	127
17.414172335600906	17.530294784580498	65	127
17.530294784580498	17.95986394557823	81	127
17.530294784580498	18.888662131519276	61	127
17.530294784580498	17.95986394557823	64	127
17.530294784580498	17.95986394557823	69	127
17.95986394557823	18.33138321995465	69	127
17.95986394557823	18.33138321995465	76	127
17.95986394557823	18.33138321995465	73	127
18.435873015873018	18.888662131519276	76	127
18.435873015873018	18.702902494331067	79	127
18.772562358276645	18.888662131519276	79	127
18.888662131519276	19.32984126984127	60	127
18.888662131519276	19.32984126984127	60	127
18.888662131519276	19.318208616780044	79	127
18.888662131519276	19.32984126984127	64	127
19.36467120181406	19.57362811791383	79	127
19.620090702947845	20.04965986394558	79	127
19.620090702947845	19.887097505668933	64	127
19.620090702947845	19.887097505668933	60	127
19.620090702947845	19.887097505668933	60	127
19.956780045351476	20.09609977324263	60	127
19.956780045351476	20.09609977324263	60	127
19.956780045351476	20.09609977324263	64	127
20.09609977324263	20.54888888888889	79	127
20.09609977324263	21.40800453514739	59	127
20.09609977324263	20.54888888888889	62	127
20.09609977324263	20.54888888888889	67	127
20.54888888888889	20.89718820861678	67	127
20.54888888888889	20.89718820861678	74	127
20.54888888888889	20.89718820861678	71	127
20.990068027210885	21.40800453514739	74	127
20.990068027210885	21.245487528344672	77	127
21.31514739229025	21.40800453514739	77	127
21.40800453514739	21.81437641723356	58	127
21.40800453514739	21.8027664399093	77	127
21.40800453514739	21.81437641723356	62	127
21.40800453514739	21.81437641723356	68	127
21.837596371882086	22.18589569160998	77	127
22.232312925170067	22.68512471655329	68	127
22.232312925170067	22.905714285714286	62	127
22.232312925170067	22.487732426303854	58	127
22.232312925170067	22.627074829931974	77	127
22.557414965986396	22.68512471655329	58	127
22.68512471655329	23.950612244897957	69	127
22.68512471655329	22.905714285714286	77	127
22.68512471655329	23.103083900226757	57	127
22.905714285714286	23.091473922902495	61	127
22.905714285714286	23.091473922902495	76	127
23.103083900226757	23.555873015873015	55	127
23.103083900226757	23.33528344671202	76	127
23.103083900226757	23.33528344671202	61	127
23.33528344671202	23.544263038548753	73	127
23.33528344671202	23.544263038548753	64	127
23.555873015873015	23.950612244897957	62	127
23.555873015873015	23.950612244897957	74	127
23.555873015873015	23.950612244897957	53	127
23.950612244897957	24.33374149659864	76	127
23.950612244897957	24.33374149659864	58	127
23.950612244897957	24.33374149659864	55	127
23.950612244897957	24.33374149659864	67	127
24.356961451247166	24.821360544217686	69	127
24.356961451247166	24.821360544217686	57	127
24.356961451247166	24.821360544217686	57	127
24.356961451247166	24.821360544217686	65	127
24.844580498866215	25.274149659863944	73	127
24.844580498866215	25.274149659863944	45	127
24.844580498866215	25.274149659863944	55	127
24.844580498866215	25.274149659863944	64	127
25.297369614512473	26.31904761904762	74	127
25.297369614512473	26.260997732426304	53	127
25.297369614512473	26.31904761904762	50	127
25.297369614512473	26.260997732426304	62	127
26.31904761904762	26.67895691609977	74	127
26.67895691609977	26.78344671201814	74	127
26.78344671201814	27.758684807256238	56	127
26.78344671201814	27.24784580498866	77	127
26.78344671201814	27.24784580498866	62	127
26.78344671201814	27.758684807256238	71	127
27.24784580498866	27.723854875283447	65	127
27.24784580498866	27.642585034013607	74	127
27.758684807256238	28.083764172335602	71	127
28.083764172335602	28.176643990929705	71	127
28.176643990929705	29.047392290249434	57	127
28.176643990929705	28.641043083900225	72	127
28.176643990929705	28.641043083900225	64	127
28.176643990929705	29.047392290249434	69	127
28.641043083900225	28.931292517006803	76	127
28.641043083900225	29.012562358276643	60	127
29.047392290249434	29.3724716553288	72	127
29.3724716553288	29.48857142857143	72	127
29.48857142857143	29.883310657596372	76	127
29.883310657596372	30.359319727891158	72	127
29.883310657596372	30.359319727891158	64	127
29.883310657596372	30.359319727891158	45	127
29.883310657596372	30.359319727891158	69	127
30.359319727891158	30.788888888888888	69	127
30.359319727891158	30.788888888888888	53	127
30.359319727891158	30.788888888888888	57	127
30.359319727891158	30.788888888888888	63	127
30.812108843537416	31.276507936507937	68	127
30.812108843537416	31.276507936507937	59	127
30.812108843537416	31.729297052154195	64	127
30.812108843537416	37.615532879818595	52	127
31.276507936507937	31.613197278911564	71	127
31.276507936507937	31.613197278911564	56	127
31.729297052154195	32.1356462585034	68	127
31.729297052154195	32.1356462585034	64	127
31.729297052154195	32.03113378684807	76	127
32.03113378684807	32.1356462585034	76	127
32.1356462585034	33.40113378684807	75	127
32.1356462585034	32.530362811791385	69	127
32.1356462585034	32.530362811791385	66	127
32.530362811791385	32.97156462585034	71	127
32.530362811791385	32.97156462585034	68	127
32.97156462585034	33.40113378684807	72	127
32.97156462585034	33.40113378684807	69	127
33.40113378684807	33.79587301587301	68	127
33.40113378684807	33.79587301587301	74	127
33.40113378684807	33.79587301587301	71	127
33.79587301587301	34.26027210884354	66	127
33.79587301587301	34.26027210884354	69	127
34.26027210884354	34.72467120181406	68	127
34.26027210884354	34.60857142857143	74	127
34.26027210884354	35.119410430839004	64	127
34.60857142857143	34.72467120181406	74	127
34.72467120181406	35.95532879818594	73	127
34.72467120181406	35.119410430839004	67	127
35.119410430839004	35.514149659863946	69	127
35.119410430839004	35.514149659863946	66	127
35.514149659863946	35.95532879818594	70	127
35.514149659863946	35.95532879818594	67	127
35.95532879818594	36.384897959183675	66	127
35.95532879818594	36.384897959183675	69	127
35.95532879818594	36.384897959183675	72	127
36.384897959183675	36.79124716553288	64	127
36.384897959183675	36.79124716553288	67	127
36.79124716553288	37.093106575963716	72	127
36.79124716553288	37.197596371882085	66	127
36.79124716553288	37.197596371882085	63	127
37.093106575963716	37.197596371882085	72	127
37.197596371882085	37.39496598639456	64	127
37.197596371882085	37.615532879818595	62	127
37.197596371882085	37.615532879818595	71	127
37.39496598639456	37.615532879818595	65	127
37.615532879818595	37.81292517006803	64	127
37.615532879818595	38.03351473922903	59	127
37.615532879818595	38.03351473922903	68	127
37.615532879818595	38.03351473922903	50	127
37.81292517006803	38.03351473922903	65	127
38.03351473922903	38.230884353741494	64	127
38.03351473922903	38.47469387755102	48	127
38.03351473922903	38.47469387755102	60	127
38.03351473922903	38.47469387755102	69	127
38.230884353741494	38.47469387755102	65	127
38.47469387755102	39.27578231292517	74	127
38.47469387755102	38.69528344671202	64	127
38.47469387755102	38.89265306122449	56	127
38.47469387755102	38.89265306122449	47	127
38.69528344671202	38.89265306122449	65	127
38.89265306122449	39.09002267573696	64	127
38.89265306122449	39.27578231292517	44	127
38.89265306122449	39.27578231292517	59	127
39.09002267573696	39.27578231292517	65	127
39.27578231292517	39.496371882086166	64	127
39.27578231292517	39.937551020408165	57	127
39.27578231292517	39.72857142857143	45	127
39.27578231292517	39.72857142857143	72	127
39.496371882086166	39.72857142857143	69	127
39.72857142857143	40.16975056689343	65	127
39.72857142857143	39.937551020408165	72	127
39.72857142857143	40.16975056689343	50	127
39.937551020408165	40.16975056689343	71	127
39.937551020408165	40.16975056689343	62	127
40.16975056689343	40.680589569161	69	127
40.16975056689343	40.680589569161	64	127
40.16975056689343	40.680589569161	60	127
40.16975056689343	40.680589569161	52	127
40.680589569161	41.00566893424036	52	127
40.680589569161	41.133378684807255	59	127
40.680589569161	41.00566893424036	74	127
40.680589569161	41.133378684807255	68	127
41.00566893424036	41.133378684807255	52	127
41.00566893424036	41.133378684807255	74	127
41.133378684807255	42.050544217687076	67	127
41.133378684807255	42.503356009070295	73	127
41.133378684807255	41.5397052154195	57	127
41.133378684807255	41.574557823129254	45	127
41.574557823129254	42.015736961451246	57	127
42.050544217687076	42.3756462585034	79	127
42.050544217687076	42.3756462585034	57	127
42.3756462585034	42.503356009070295	57	127
42.3756462585034	42.503356009070295	79	127
42.503356009070295	43.89655328798186	78	127
42.503356009070295	42.92131519274376	72	127
42.503356009070295	42.956145124716556	50	127
42.956145124716556	43.36249433106576	62	127
43.39732426303855	43.78045351473923	50	127
43.39732426303855	43.78045351473923	72	127
43.78045351473923	43.89655328798186	50	127
43.78045351473923	43.89655328798186	72	127
43.89655328798186	45.37102040816327	71	127
43.89655328798186	44.40739229024943	77	127
43.89655328798186	44.40739229024943	43	127
44.40739229024943	44.91823129251701	55	127
44.953061224489794	45.27814058956916	77	127
44.953061224489794	45.27814058956916	55	127
45.27814058956916	45.37102040816327	55	127
45.27814058956916	45.37102040816327	77	127
45.37102040816327	46.706167800453514	76	127
45.37102040816327	45.800589569161	70	127
45.37102040816327	45.800589569161	48	127
45.800589569161	46.2069387755102	60	127
46.24174603174603	46.59006802721088	70	127
46.24174603174603	46.59006802721088	48	127
46.59006802721088	46.706167800453514	48	127
46.59006802721088	46.706167800453514	70	127
46.706167800453514	47.1821768707483	41	127
46.706167800453514	48.192244897959185	69	127
46.706167800453514	47.1821768707483	75	127
47.1821768707483	47.693015873015874	53	127
47.72784580498866	48.05292517006803	75	127
47.72784580498866	48.05292517006803	53	127
48.05292517006803	48.192244897959185	75	127
48.05292517006803	48.192244897959185	53	127
48.192244897959185	48.61020408163265	74	127
48.192244897959185	49.062993197278914	53	127
48.192244897959185	51.04829931972789	46	127
48.192244897959185	48.61020408163265	70	127
48.61020408163265	49.062993197278914	70	127
48.61020408163265	49.062993197278914	62	127
49.062993197278914	49.666712018140586	69	127
49.062993197278914	49.666712018140586	52	127
49.062993197278914	49.666712018140586	64	127
49.666712018140586	50.09628117913832	68	127
49.666712018140586	50.09628117913832	50	127
49.666712018140586	50.09628117913832	65	127
50.11950113378685	50.58390022675737	68	127
50.11950113378685	50.58390022675737	49	127
50.11950113378685	50.58390022675737	64	127
50.6071201814059	51.025079365079364	68	127
50.6071201814059	51.025079365079364	50	127
50.6071201814059	51.025079365079364	62	127
51.04829931972789	51.582358276643994	52	127
51.04829931972789	51.582358276643994	61	127
51.04829931972789	51.582358276643994	45	127
51.04829931972789	51.582358276643994	69	127
52.128027210884355	52.406666666666666	74	127
52.128027210884355	52.406666666666666	62	127
52.47632653061225	52.58081632653061	62	127
52.47632653061225	52.58081632653061	74	127
52.58081632653061	55.70390022675737	62	127
52.58081632653061	53.17292517006803	74	127
53.17292517006803	53.614104308390026	69	127
53.614104308390026	54.043673469387755	77	127
53.614104308390026	53.86952380952381	69	127
53.614104308390026	53.86952380952381	65	127
53.927573696145124	54.043673469387755	65	127
53.927573696145124	54.043673469387755	69	127
54.043673469387755	54.473242630385485	67	127
54.043673469387755	54.264263038548755	77	127
54.043673469387755	54.473242630385485	70	127
54.264263038548755	54.473242630385485	76	127
54.473242630385485	54.90281179138322	67	127
54.473242630385485	54.90281179138322	64	127
54.473242630385485	54.68222222222222	74	127
54.68222222222222	54.90281179138322	73	127
54.90281179138322	55.30916099773243	69	127
54.90281179138322	55.30916099773243	65	127
54.90281179138322	55.11179138321995	74	127
55.11179138321995	55.30916099773243	77	127
55.30916099773243	55.70390022675737	65	127
55.30916099773243	55.70390022675737	62	127
55.30916099773243	55.69229024943311	81	127
55.73873015873016	56.005759637188206	81	127
56.05219954648526	56.45854875283447	81	127
56.05219954648526	56.330839002267574	65	127
56.05219954648526	56.330839002267574	62	127
56.05219954648526	56.330839002267574	62	127
56.388888888888886	56.50498866213152	62	127
56.388888888888886	56.50498866213152	62	127
56.388888888888886	56.50498866213152	65	127
56.50498866213152	56.992607709750565	81	127
56.50498866213152	56.992607709750565	69	127
56.50498866213152	56.992607709750565	64	127
56.50498866213152	57.89818594104308	61	127
56.992607709750565	57.36412698412698	76	127
56.992607709750565	57.36412698412698	73	127
56.992607709750565	57.36412698412698	69	127
57.45700680272109	57.89818594104308	76	127
57.45700680272109	57.72403628117914	79	127
57.78208616780045	57.89818594104308	79	127
57.89818594104308	58.33936507936508	64	127
57.89818594104308	58.33936507936508	60	127
57.89818594104308	58.33936507936508	60	127
57.89818594104308	58.32775510204082	79	127
58.37419501133787	58.687664399092974	79	127
58.72249433106576	59.00113378684807	64	127
58.72249433106576	59.00113378684807	60	127
58.72249433106576	59.15206349206349	79	127
58.72249433106576	59.00113378684807	60	127
59.070793650793654	59.19850340136055	60	127
59.070793650793654	59.19850340136055	60	127
59.070793650793654	59.19850340136055	64	127
59.19850340136055	59.63968253968254	79	127
59.19850340136055	60.52204081632653	59	127
59.19850340136055	59.63968253968254	67	127
59.19850340136055	59.63968253968254	62	127
59.63968253968254	59.98798185941043	74	127
59.63968253968254	59.98798185941043	71	127
59.63968253968254	59.98798185941043	67	127
60.08086167800454	60.52204081632653	74	127
60.08086167800454	60.34789115646259	77	127
60.4059410430839	60.52204081632653	77	127
60.52204081632653	60.95160997732426	68	127
60.52204081632653	60.96321995464853	77	127
60.52204081632653	60.95160997732426	58	127
60.52204081632653	60.95160997732426	62	127
60.97482993197279	61.32312925170068	77	127
61.34634920634921	61.77591836734694	77	127
61.34634920634921	62.019727891156464	62	127
61.34634920634921	61.799138321995464	68	127
61.34634920634921	61.62498866213152	58	127
61.68303854875283	61.799138321995464	58	127
61.799138321995464	63.15750566893424	69	127
61.799138321995464	62.019727891156464	77	127
61.799138321995464	62.251927437641726	57	127
62.019727891156464	62.24031746031746	61	127
62.019727891156464	62.24031746031746	76	127
62.251927437641726	62.70471655328798	55	127
62.251927437641726	62.47251700680272	76	127
62.251927437641726	62.47251700680272	61	127
62.47251700680272	62.69310657596372	73	127
62.47251700680272	62.69310657596372	64	127
62.70471655328798	63.15750566893424	62	127
62.70471655328798	63.15750566893424	74	127
62.70471655328798	63.15750566893424	53	127
63.15750566893424	63.56385487528345	76	127
63.15750566893424	63.56385487528345	58	127
63.15750566893424	63.56385487528345	55	127
63.15750566893424	63.56385487528345	67	127
63.58707482993197	64.05145124716553	69	127
63.58707482993197	64.05145124716553	57	127
63.58707482993197	64.05145124716553	57	127
63.58707482993197	64.05145124716553	65	127
64.07469387755103	64.48104308390023	73	127
64.07469387755103	64.48104308390023	45	127
64.07469387755103	64.48104308390023	55	127
64.07469387755103	64.48104308390023	64	127
64.50426303854876	65.5259410430839	50	127
64.50426303854876	65.46789115646258	62	127
64.50426303854876	65.46789115646258	53	127
64.50426303854876	65.5259410430839	74	127
65.5259410430839	65.85102040816327	74	127
65.85102040816327	65.99034013605443	74	127
65.99034013605443	67.0004081632653	71	127
65.99034013605443	66.45471655328798	77	127
65.99034013605443	66.45471655328798	62	127
65.99034013605443	67.0004081632653	56	127
66.45471655328798	66.96555555555555	65	127
66.45471655328798	66.88430839002268	74	127
67.0004081632653	67.32548752834467	71	127
67.32548752834467	67.4415873015873	71	127
67.4415873015873	68.28911564625851	57	127
67.4415873015873	67.8827664399093	72	127
67.4415873015873	67.8827664399093	64	127
67.4415873015873	68.28911564625851	69	127
67.8827664399093	68.17301587301587	76	127
67.8827664399093	68.25428571428571	60	127
68.28911564625851	68.64902494331066	72	127
68.64902494331066	68.76512471655329	72	127
68.76512471655329	69.13662131519274	76	127
69.13662131519274	69.60104308390022	69	127
69.13662131519274	69.60104308390022	72	127
69.13662131519274	69.60104308390022	64	127
69.13662131519274	69.60104308390022	45	127
69.60104308390022	70.05383219954649	63	127
69.60104308390022	70.05383219954649	57	127
69.60104308390022	70.05383219954649	53	127
69.60104308390022	70.05383219954649	69	127
70.07705215419502	70.51820861678004	68	127
70.07705215419502	77.11267573696145	52	127
70.07705215419502	70.98263038548752	64	127
70.07705215419502	70.51820861678004	59	127
70.51820861678004	70.8317006802721	71	127
70.51820861678004	70.8317006802721	56	127
70.98263038548752	71.2844671201814	76	127
70.98263038548752	71.38897959183673	68	127
70.98263038548752	71.38897959183673	64	127
71.2844671201814	71.38897959183673	76	127
71.38897959183673	71.91142857142857	66	127
71.38897959183673	72.7937641723356	75	127
71.38897959183673	71.91142857142857	69	127
71.91142857142857	72.36421768707483	71	127
71.91142857142857	72.36421768707483	68	127
72.36421768707483	72.7937641723356	69	127
72.36421768707483	72.7937641723356	72	127
72.7937641723356	73.21174603174603	68	127
72.7937641723356	73.21174603174603	71	127
72.7937641723356	73.21174603174603	74	127
73.21174603174603	73.67614512471656	69	127
73.21174603174603	73.67614512471656	66	127
73.67614512471656	74.15215419501133	68	127
73.67614512471656	74.55850340136054	64	127
73.67614512471656	74.03605442176871	74	127
74.03605442176871	74.15215419501133	74	127
74.15215419501133	75.42925170068027	73	127
74.15215419501133	74.55850340136054	67	127
74.55850340136054	74.99968253968254	69	127
74.55850340136054	74.99968253968254	66	127
74.99968253968254	75.42925170068027	67	127
74.99968253968254	75.42925170068027	70	127
75.42925170068027	75.84721088435374	66	127
75.42925170068027	75.84721088435374	72	127
75.42925170068027	75.84721088435374	69	127
75.84721088435374	76.28839002267574	64	127
75.84721088435374	76.28839002267574	67	127
76.28839002267574	76.69473922902495	66	127
76.28839002267574	76.69473922902495	63	127
76.28839002267574	76.57863945578231	72	127
76.57863945578231	76.69473922902495	72	127
76.69473922902495	77.11267573696145	71	127
76.69473922902495	77.11267573696145	62	127
76.69473922902495	76.89210884353741	64	127
76.89210884353741	77.11267573696145	65	127
77.11267573696145	77.53065759637188	68	127
77.11267573696145	77.53065759637188	59	127
77.11267573696145	77.53065759637188	50	127
77.11267573696145	77.33328798185941	64	127
77.33328798185941	77.53065759637188	65	127
77.53065759637188	77.98344671201814	69	127
77.53065759637188	77.98344671201814	60	127
77.53065759637188	77.98344671201814	48	127
77.53065759637188	77.75122448979592	64	127
77.75122448979592	77.98344671201814	65	127
77.98344671201814	78.40140589569161	56	127
77.98344671201814	78.81936507936508	74	127
77.98344671201814	78.40140589569161	47	127
77.98344671201814	78.20403628117914	64	127
78.20403628117914	78.40140589569161	65	127
78.40140589569161	78.81936507936508	59	127
78.40140589569161	78.59877551020408	64	127
78.40140589569161	78.81936507936508	44	127
78.59877551020408	78.81936507936508	65	127
78.81936507936508	79.29537414965986	45	127
78.81936507936508	79.55079365079365	57	127
78.81936507936508	79.03995464852608	64	127
78.81936507936508	79.29537414965986	72	127
79.03995464852608	79.29537414965986	69	127
79.29537414965986	79.77136054421769	65	127
79.29537414965986	79.77136054421769	50	127
79.29537414965986	79.55079365079365	72	127
79.55079365079365	79.77136054421769	62	127
79.55079365079365	79.77136054421769	71	127
79.77136054421769	80.27061224489796	69	127
79.77136054421769	80.27061224489796	60	127
79.77136054421769	80.27061224489796	52	127
79.77136054421769	80.27061224489796	64	127
80.27061224489796	80.60730158730159	74	127
80.27061224489796	80.72340136054422	59	127
80.27061224489796	80.72340136054422	68	127
80.27061224489796	80.60730158730159	52	127
80.60730158730159	80.72340136054422	52	127
80.60730158730159	80.72340136054422	74	127
80.72340136054422	81.68700680272109	67	127
80.72340136054422	82.12820861678004	73	127
80.72340136054422	81.11814058956917	57	127
80.72340136054422	81.15297052154195	45	127
81.15297052154195	81.65219954648526	57	127
81.68700680272109	82.01210884353742	57	127
81.68700680272109	82.01210884353742	79	127
82.01210884353742	82.12820861678004	79	127
82.01210884353742	82.12820861678004	57	127
82.12820861678004	83.53301587301587	78	127
82.12820861678004	82.53455782312925	72	127
82.12820861678004	82.56938775510204	50	127
82.56938775510204	82.98734693877552	62	127
83.0221768707483	83.40530612244898	72	127
83.0221768707483	83.40530612244898	50	127
83.40530612244898	83.53301587301587	50	127
83.40530612244898	83.53301587301587	72	127
83.53301587301587	84.13673469387756	77	127
83.53301587301587	84.90299319727892	71	127
83.53301587301587	84.13673469387756	43	127
84.13673469387756	84.56630385487529	55	127
84.60111111111111	84.89138321995465	55	127
84.60111111111111	84.89138321995465	77	127
84.89138321995465	84.90299319727892	77	127
84.89138321995465	84.90299319727892	55	127
84.90299319727892	85.33256235827665	48	127
84.90299319727892	85.33256235827665	70	127
84.90299319727892	86.29619047619047	76	127
85.33256235827665	85.73891156462585	60	127
85.77374149659865	86.18009070294785	70	127
85.77374149659865	86.18009070294785	48	127
86.18009070294785	86.29619047619047	70	127
86.18009070294785	86.29619047619047	48	127
86.29619047619047	86.78380952380952	75	127
86.29619047619047	87.79387755102042	69	127
86.29619047619047	86.78380952380952	41	127
86.78380952380952	87.2946485260771	53	127
87.35269841269842	87.67777777777778	53	127
87.35269841269842	87.67777777777778	75	127
87.67777777777778	87.79387755102042	75	127
87.67777777777778	87.79387755102042	53	127
87.79387755102042	88.24666666666667	74	127
87.79387755102042	88.78072562358277	53	127
87.79387755102042	90.85891156462586	46	127
87.79387755102042	88.24666666666667	70	127
88.24666666666667	88.78072562358277	70	127
88.24666666666667	88.78072562358277	62	127
88.78072562358277	89.24512471655329	69	127
88.78072562358277	89.24512471655329	52	127
88.78072562358277	89.24512471655329	64	127
89.24512471655329	89.75596371882087	68	127
89.24512471655329	89.75596371882087	50	127
89.24512471655329	89.75596371882087	65	127
89.77918367346939	90.24358276643991	68	127
89.77918367346939	90.24358276643991	49	127
89.77918367346939	90.24358276643991	64	127
90.26680272108844	90.83566893424036	68	127
90.26680272108844	90.83566893424036	50	127
90.26680272108844	90.83566893424036	62	127
90.85891156462586	91.32328798185941	52	127
90.85891156462586	91.32328798185941	69	127
90.85891156462586	91.32328798185941	61	127
90.85891156462586	91.32328798185941	45	127
91.96183673469388	92.25210884353741	74	127
91.96183673469388	92.25210884353741	62	127
92.32176870748299	92.4146485260771	62	127
92.32176870748299	92.4146485260771	74	127
92.4146485260771	95.4912925170068	62	127
92.4146485260771	92.86743764172336	74	127
92.86743764172336	93.32022675736961	69	127
93.32022675736961	93.74977324263038	77	127
93.32022675736961	93.5756462585034	69	127
93.32022675736961	93.5756462585034	65	127
93.64530612244899	93.74977324263038	69	127
93.64530612244899	93.74977324263038	65	127
93.74977324263038	94.20258503401361	70	127
93.74977324263038	94.20258503401361	67	127
93.74977324263038	93.98197278911564	77	127
93.98197278911564	94.20258503401361	76	127
94.20258503401361	94.64376417233561	67	127
94.20258503401361	94.64376417233561	64	127
94.20258503401361	94.4231746031746	74	127
94.4231746031746	94.64376417233561	73	127
94.64376417233561	95.09655328798186	69	127
94.64376417233561	95.09655328798186	65	127
94.64376417233561	94.8759410430839	74	127
94.8759410430839	95.09655328798186	77	127
95.09655328798186	95.4912925170068	65	127
95.09655328798186	95.4912925170068	62	127
95.09655328798186	95.46807256235827	81	127
95.51451247165532	95.8395918367347	81	127
95.87442176870748	96.14145124716553	62	127
95.87442176870748	96.14145124716553	65	127
95.87442176870748	96.14145124716553	62	127
95.87442176870748	96.26916099773243	81	127
96.21111111111111	96.31560090702948	65	127
96.21111111111111	96.31560090702948	62	127
96.21111111111111	96.31560090702948	62	127
96.31560090702948	96.75678004535148	69	127
96.31560090702948	96.75678004535148	81	127
96.31560090702948	96.75678004535148	64	127
96.31560090702948	97.65074829931973	61	127
96.75678004535148	97.11668934240363	76	127
96.75678004535148	97.11668934240363	69	127
96.75678004535148	97.11668934240363	73	127
97.20956916099773	97.47659863945579	79	127
97.20956916099773	97.65074829931973	76	127
97.54625850340136	97.65074829931973	79	127
97.65074829931973	98.13836734693878	64	127
97.65074829931973	98.13836734693878	60	127
97.65074829931973	98.13836734693878	60	127
97.65074829931973	98.11514739229025	79	127
98.1615873015873	98.48666666666666	79	127
98.50988662131519	98.84657596371882	60	127
98.50988662131519	98.97428571428571	79	127
98.50988662131519	98.84657596371882	64	127
98.50988662131519	98.84657596371882	60	127
98.9162358276644	99.02072562358276	60	127
98.9162358276644	99.02072562358276	64	127
98.9162358276644	99.02072562358276	60	127
99.02072562358276	100.2978231292517	59	127
99.02072562358276	99.43868480725624	79	127
99.02072562358276	99.43868480725624	67	127
99.02072562358276	99.43868480725624	62	127
99.43868480725624	99.78698412698412	74	127
99.43868480725624	99.78698412698412	71	127
99.43868480725624	99.78698412698412	67	127
99.87986394557824	100.2978231292517	74	127
99.87986394557824	100.12367346938775	77	127
100.19333333333333	100.2978231292517	77	127
100.2978231292517	100.71578231292517	68	127
100.2978231292517	100.71578231292517	58	127
100.2978231292517	100.71578231292517	77	127
100.2978231292517	100.71578231292517	62	127
100.7390022675737	101.0524716553288	77	127
101.07569160997733	101.76068027210884	62	127
101.07569160997733	101.35433106575964	58	127
101.07569160997733	101.50526077097506	77	127
101.07569160997733	101.52848072562358	68	127
101.42399092970521	101.52848072562358	58	127
101.52848072562358	101.9928798185941	57	127
101.52848072562358	102.94489795918368	69	127
101.52848072562358	101.76068027210884	77	127
101.76068027210884	101.98126984126984	76	127
101.76068027210884	101.98126984126984	61	127
101.9928798185941	102.24829931972789	61	127
101.9928798185941	102.48049886621315	55	127
101.9928798185941	102.24829931972789	76	127
102.24829931972789	102.46888888888888	73	127
102.24829931972789	102.46888888888888	64	127
102.48049886621315	102.94489795918368	74	127
102.48049886621315	102.94489795918368	62	127
102.48049886621315	102.94489795918368	53	127
102.94489795918368	103.39768707482993	76	127
102.94489795918368	103.39768707482993	58	127
102.94489795918368	103.39768707482993	55	127
102.94489795918368	103.39768707482993	67	127
103.43251700680273	103.9085260770975	69	127
103.43251700680273	103.9085260770975	57	127
103.43251700680273	103.9085260770975	57	127
103.43251700680273	103.9085260770975	65	127
103.93174603174603	104.39614512471655	64	127
103.93174603174603	104.39614512471655	55	127
103.93174603174603	104.39614512471655	45	127
103.93174603174603	104.39614512471655	73	127
104.43097505668935	106.40467120181405	62	127
104.43097505668935	106.40467120181405	53	127
104.43097505668935	106.47433106575964	74	127
104.43097505668935	106.47433106575964	50	127
106.47433106575964	106.67170068027211	62	127
106.67170068027211	107.18253968253968	66	127
107.18253968253968	107.39151927437642	66	127
107.39151927437642	107.9604081632653	69	127
107.9604081632653	108.33192743764172	69	127
108.33192743764172	108.69183673469388	74	127
108.69183673469388	108.8079365079365	74	127
108.8079365079365	109.16784580498866	78	127
109.16784580498866	109.2839455782313	78	127
109.2839455782313	109.64385487528345	81	127
109.64385487528345	109.75995464852608	81	127
109.75995464852608	110.11986394557823	86	127
110.11986394557823	110.23596371882086	86	127
110.23596371882086	110.3172335600907	85	127
110.3172335600907	110.43333333333334	85	127
110.43333333333334	110.82807256235827	88	127
110.82807256235827	110.94417233560091	88	127
110.94417233560091	111.39696145124717	91	127
111.39696145124717	111.52467120181406	91	127
111.52467120181406	111.91941043083901	79	127
111.91941043083901	112.90625850340136	79	127
112.90625850340136	113.03396825396825	83	127
113.03396825396825	113.6144671201814	79	127
113.6144671201814	113.76539682539682	79	127
113.76539682539682	114.13691609977325	78	127
114.13691609977325	114.25301587301587	78	127
114.25301587301587	114.42716553287981	81	127
114.42716553287981	114.54326530612245	81	127
114.54326530612245	114.9031746031746	78	127
114.9031746031746	115.0308843537415	78	127
115.0308843537415	115.37918367346938	76	127
115.37918367346938	115.50689342403628	76	127
115.50689342403628	115.80875283446711	79	127
115.80875283446711	115.93646258503401	79	127
115.93646258503401	116.4124716553288	76	127
116.4124716553288	116.5401814058957	76	127
116.5401814058957	116.87687074829932	74	127
116.87687074829932	117.00458049886622	74	127
117.00458049886622	117.39931972789115	78	127
117.39931972789115	117.55024943310657	78	127
117.55024943310657	117.91015873015873	62	127
117.91015873015873	119.31496598639455	62	127
119.31496598639455	119.47750566893424	62	127
119.47750566893424	119.99995464852607	66	127
119.99995464852607	120.32503401360545	66	127
120.32503401360545	120.82426303854875	69	127
120.82426303854875	121.01002267573696	69	127
121.01002267573696	121.36993197278912	74	127
121.36993197278912	121.48603174603174	74	127
121.48603174603174	121.83433106575964	78	127
121.83433106575964	121.96204081632654	78	127
121.96204081632654	122.41482993197279	81	127
122.41482993197279	122.54253968253968	81	127
122.54253968253968	122.85600907029479	86	127
122.85600907029479	122.98371882086168	86	127
122.98371882086168	123.04176870748299	85	127
123.04176870748299	123.15786848072563	85	127
123.15786848072563	123.5409977324263	88	127
123.5409977324263	123.65709750566893	88	127
123.65709750566893	124.01700680272108	91	127
124.01700680272108	124.15632653061225	91	127
124.15632653061225	124.59750566893425	79	127
124.59750566893425	125.65401360544217	79	127
125.65401360544217	125.77011337868481	83	127
125.77011337868481	126.16485260770975	79	127
126.16485260770975	126.30417233560091	79	127
126.30417233560091	126.68730158730159	78	127
126.68730158730159	126.80340136054421	78	127
126.80340136054421	127.10526077097505	81	127
127.10526077097505	127.22136054421769	81	127
127.22136054421769	127.5928798185941	78	127
127.5928798185941	127.72058956916099	78	127
127.72058956916099	128.05727891156462	76	127
128.05727891156462	128.17337868480726	76	127
128.17337868480726	128.53328798185942	79	127
128.53328798185942	128.64938775510205	79	127
128.64938775510205	129.03251700680272	76	127
129.03251700680272	129.16022675736963	76	127
129.16022675736963	129.5201133786848	74	127
129.5201133786848	129.6362358276644	74	127
129.6362358276644	130.03095238095239	78	127
130.03095238095239	130.14707482993197	78	127
130.14707482993197	130.65791383219954	62	127
130.65791383219954	131.8073015873016	62	127
131.8073015873016	131.92337868480726	62	127
131.92337868480726	132.27170068027212	78	127
132.27170068027212	132.38777777777779	78	127
132.38777777777779	132.74770975056688	79	127
132.74770975056688	132.85219954648525	79	127
132.85219954648525	133.22371882086168	69	127
133.22371882086168	133.35142857142858	69	127
133.35142857142858	133.71131519274377	88	127
133.71131519274377	134.68655328798187	88	127
134.68655328798187	134.80267573696145	69	127
134.80267573696145	135.1393650793651	76	127
135.1393650793651	135.2554648526077	76	127
135.2554648526077	135.60374149659864	78	127
135.60374149659864	135.71986394557823	78	127
135.71986394557823	136.06814058956917	74	127
136.06814058956917	136.18426303854875	74	127
136.18426303854875	136.5441723356009	90	127
136.5441723356009	137.55424036281178	90	127
137.55424036281178	137.67034013605442	71	127
137.67034013605442	138.03024943310658	86	127
138.03024943310658	139.0867573696145	86	127
139.0867573696145	139.2144671201814	62	127
139.2144671201814	139.51632653061225	80	127
139.51632653061225	140.54961451247166	80	127
140.54961451247166	140.66569160997733	83	127
140.66569160997733	141.02560090702949	81	127
141.02560090702949	141.3507029478458	81	127
141.58290249433108	141.87315192743765	85	127
142.1401814058957	142.70904761904762	88	127
143.03414965986394	144.24156462585034	93	127
144.7756462585034	144.89174603174604	62	127
144.7756462585034	144.8685260770975	50	127
144.89174603174604	145.28648526077097	66	127
144.89174603174604	145.21680272108844	54	127
145.28648526077097	145.4025850340136	66	127
145.28648526077097	145.4025850340136	54	127
145.4025850340136	145.77410430839004	57	127
145.4025850340136	145.77410430839004	69	127
145.77410430839004	145.92503401360545	69	127
145.77410430839004	145.92503401360545	57	127
145.92503401360545	146.29655328798185	62	127
145.92503401360545	146.29655328798185	74	127
146.29655328798185	146.4126530612245	74	127
146.29655328798185	146.4126530612245	62	127
146.4126530612245	146.77256235827664	66	127
146.4126530612245	146.77256235827664	78	127
146.77256235827664	146.88866213151928	78	127
146.77256235827664	146.88866213151928	66	127
146.88866213151928	147.59687074829932	81	127
146.88866213151928	147.59687074829932	69	127
147.59687074829932	147.78263038548752	81	127
147.59687074829932	147.78263038548752	69	127
147.78263038548752	148.14253968253968	74	127
147.78263038548752	148.14253968253968	86	127
148.14253968253968	148.25863945578232	86	127
148.14253968253968	148.25863945578232	74	127
148.25863945578232	148.3282993197279	85	127
148.25863945578232	148.3282993197279	73	127
148.3282993197279	148.43278911564627	73	127
148.3282993197279	148.43278911564627	85	127
148.43278911564627	148.7694784580499	76	127
148.43278911564627	148.7694784580499	88	127
148.7694784580499	148.89716553287982	88	127
148.7694784580499	148.89716553287982	76	127
148.89716553287982	149.2338775510204	79	127
148.89716553287982	149.2338775510204	91	127
149.2338775510204	149.3615873015873	91	127
149.2338775510204	149.3615873015873	79	127
149.3615873015873	149.7098866213152	67	127
149.3615873015873	149.7098866213152	79	127
149.7098866213152	150.18589569160997	79	127
149.7098866213152	150.18589569160997	67	127
151.11469387755102	151.23079365079366	71	127
151.11469387755102	151.23079365079366	83	127
151.23079365079366	151.57909297052154	79	127
151.23079365079366	151.57909297052154	67	127
151.57909297052154	151.70678004535148	67	127
151.57909297052154	151.70678004535148	79	127
151.70678004535148	152.06668934240363	66	127
151.70678004535148	152.06668934240363	78	127
152.06668934240363	152.19442176870749	78	127
152.06668934240363	152.19442176870749	66	127
152.19442176870749	152.54272108843537	69	127
152.19442176870749	152.54272108843537	81	127
152.54272108843537	152.67043083900228	81	127
152.54272108843537	152.67043083900228	69	127
152.67043083900228	153.05356009070294	66	127
152.67043083900228	153.05356009070294	78	127
153.05356009070294	153.20448979591836	78	127
153.05356009070294	153.20448979591836	66	127
153.20448979591836	153.56439909297052	64	127
153.20448979591836	153.56439909297052	76	127
153.56439909297052	153.69210884353743	76	127
153.56439909297052	153.69210884353743	64	127
153.69210884353743	154.0404081632653	67	127
153.69210884353743	154.0404081632653	79	127
154.0404081632653	154.202947845805	79	127
154.0404081632653	154.202947845805	67	127
154.202947845805	154.55124716553289	76	127
154.202947845805	154.55124716553289	64	127
154.55124716553289	154.72537414965987	64	127
154.55124716553289	154.72537414965987	76	127
154.72537414965987	155.08530612244897	62	127
154.72537414965987	155.08530612244897	74	127
155.08530612244897	155.21301587301588	74	127
155.08530612244897	155.21301587301588	62	127
155.21301587301588	155.56131519274376	66	127
155.21301587301588	155.56131519274376	78	127
155.56131519274376	155.7006349206349	78	127
155.56131519274376	155.7006349206349	66	127
155.7006349206349	156.23469387755102	50	127
155.7006349206349	156.23469387755102	62	127
156.23469387755102	157.03578231292516	50	127
156.23469387755102	157.558231292517	62	127
157.558231292517	157.69755102040816	62	127
157.69755102040816	158.01102040816326	78	127
158.01102040816326	158.13873015873017	78	127
158.13873015873017	158.49863945578232	79	127
158.49863945578232	158.61473922902493	79	127
158.61473922902493	159.0094784580499	69	127
159.0094784580499	159.11396825396827	69	127
159.11396825396827	159.49709750566893	88	127
159.49709750566893	160.47233560090703	88	127
160.47233560090703	160.58843537414967	69	127
160.58843537414967	160.91351473922902	76	127
160.91351473922902	161.01800453514738	76	127
161.01800453514738	161.37791383219954	78	127
161.37791383219954	161.49401360544218	78	127
161.49401360544218	161.85392290249433	74	127
161.85392290249433	161.97002267573697	74	127
161.97002267573697	162.35315192743764	90	127
162.35315192743764	163.47931972789115	90	127
163.47931972789115	163.53736961451247	71	127
163.53736961451247	163.85083900226758	86	127
163.85083900226758	164.93056689342404	86	127
164.93056689342404	165.0466439909297	62	127
165.0466439909297	165.40655328798186	80	127
165.40655328798186	166.52113378684808	80	127
166.52113378684808	166.66045351473923	83	127
166.66045351473923	167.05519274376417	81	127
167.05519274376417	167.32222222222222	81	127
167.56603174603174	168.15814058956917	85	127
168.4715873015873	168.8663492063492	88	127
169.1449886621315	169.72548752834467	93	127
170.84004535147392	171.0374149659864	62	127
170.84004535147392	171.01419501133788	50	127
171.0374149659864	171.36249433106576	54	127
171.0374149659864	171.43215419501135	66	127
171.43215419501135	171.5714739229025	66	127
171.43215419501135	171.5714739229025	54	127
171.5714739229025	172.02426303854875	57	127
171.5714739229025	172.02426303854875	69	127
172.02426303854875	172.1403628117914	57	127
172.02426303854875	172.1403628117914	69	127
172.1403628117914	172.55832199546487	74	127
172.1403628117914	172.55832199546487	62	127
172.55832199546487	172.67442176870748	62	127
172.55832199546487	172.67442176870748	74	127
172.67442176870748	173.03433106575963	78	127
172.67442176870748	173.03433106575963	66	127
173.03433106575963	173.15043083900227	66	127
173.03433106575963	173.15043083900227	78	127
173.15043083900227	173.66126984126984	81	127
173.15043083900227	173.66126984126984	69	127
173.66126984126984	173.98634920634922	69	127
173.66126984126984	173.98634920634922	81	127
173.98634920634922	174.3346485260771	74	127
173.98634920634922	174.3346485260771	86	127
174.3346485260771	174.38108843537415	86	127
174.3346485260771	174.38108843537415	74	127
174.38108843537415	174.5087755102041	73	127
174.38108843537415	174.5087755102041	85	127
174.5087755102041	174.62489795918367	73	127
174.5087755102041	174.62489795918367	85	127
174.62489795918367	175.01961451247166	88	127
174.62489795918367	175.01961451247166	76	127
175.01961451247166	175.12412698412697	76	127
175.01961451247166	175.12412698412697	88	127
175.12412698412697	175.5885260770975	91	127
175.12412698412697	175.5885260770975	79	127
175.5885260770975	175.70462585034014	79	127
175.5885260770975	175.70462585034014	91	127
175.70462585034014	176.1225850340136	79	127
175.70462585034014	176.1225850340136	67	127
176.1225850340136	176.63342403628118	67	127
176.1225850340136	176.63342403628118	79	127
177.36485260770976	177.49256235827664	83	127
177.36485260770976	177.49256235827664	71	127
177.49256235827664	177.87569160997734	79	127
177.49256235827664	177.87569160997734	67	127
177.87569160997734	178.00340136054422	79	127
177.87569160997734	178.00340136054422	67	127
178.00340136054422	178.39814058956915	78	127
178.00340136054422	178.39814058956915	66	127
178.39814058956915	178.5142403628118	66	127
178.39814058956915	178.5142403628118	78	127
178.5142403628118	178.87414965986395	69	127
178.5142403628118	178.87414965986395	81	127
178.87414965986395	178.99024943310658	81	127
178.87414965986395	178.99024943310658	69	127
178.99024943310658	179.37337868480725	66	127
178.99024943310658	179.37337868480725	78	127
179.37337868480725	179.4894784580499	78	127
179.37337868480725	179.4894784580499	66	127
179.4894784580499	179.8609977324263	64	127
179.4894784580499	179.8609977324263	76	127
179.8609977324263	179.9887074829932	76	127
179.8609977324263	179.9887074829932	64	127
179.9887074829932	180.34861678004535	67	127
179.9887074829932	180.34861678004535	79	127
180.34861678004535	180.47632653061225	79	127
180.34861678004535	180.47632653061225	67	127
180.47632653061225	180.89426303854876	64	127
180.47632653061225	180.89426303854876	76	127
180.89426303854876	181.04521541950115	64	127
180.89426303854876	181.04521541950115	76	127
181.04521541950115	181.4631746031746	74	127
181.04521541950115	181.4631746031746	62	127
181.4631746031746	181.57927437641723	62	127
181.4631746031746	181.57927437641723	74	127
181.57927437641723	181.9391836734694	66	127
181.57927437641723	181.9391836734694	78	127
181.9391836734694	182.05528344671202	78	127
181.9391836734694	182.05528344671202	66	127
182.05528344671202	182.496462585034	50	127
182.05528344671202	182.496462585034	62	127
182.496462585034	184.702358276644	50	127
182.496462585034	185.3292970521542	62	127
185.3292970521542	185.7356462585034	74	127
185.3292970521542	185.65437641723355	62	127
185.7356462585034	185.84013605442178	74	127
185.7356462585034	185.81691609977324	62	127
185.84013605442178	186.33936507936508	74	127
185.84013605442178	202.17537414965986	62	127
186.33936507936508	190.64666666666668	69	127
190.64666666666668	198.97102040816327	77	127
190.64666666666668	198.7968707482993	69	127
190.64666666666668	198.7968707482993	65	127
198.8665306122449	198.97102040816327	65	127
198.8665306122449	198.97102040816327	69	127
198.97102040816327	199.19160997732428	77	127
198.97102040816327	199.41219954648525	67	127
198.97102040816327	199.41219954648525	70	127
199.19160997732428	199.41219954648525	76	127
199.41219954648525	199.841768707483	67	127
199.41219954648525	199.841768707483	64	127
199.41219954648525	199.63278911564626	74	127
199.63278911564626	199.841768707483	73	127
199.841768707483	201.71097505668934	69	127
199.841768707483	201.71097505668934	65	127
199.841768707483	200.20167800453515	74	127
200.20167800453515	201.71097505668934	77	127
201.71097505668934	202.17537414965986	65	127
201.71097505668934	202.17537414965986	62	127
201.71097505668934	202.15215419501135	81	127
202.1985941043084	202.6049433106576	81	127
202.65138321995465	203.09256235827664	81	127
202.65138321995465	202.96485260770976	65	127
202.65138321995465	202.96485260770976	62	127
202.65138321995465	202.96485260770976	62	127
203.03451247165532	203.1390022675737	62	127
203.03451247165532	203.1390022675737	62	127
203.03451247165532	203.1390022675737	65	127
203.1390022675737	203.5801814058957	81	127
203.1390022675737	203.5801814058957	64	127
203.1390022675737	204.49736961451248	61	127
203.1390022675737	203.5801814058957	69	127
203.5801814058957	203.9865306122449	76	127
203.5801814058957	203.9865306122449	69	127
203.5801814058957	203.9865306122449	73	127
204.05619047619047	204.32321995464852	79	127
204.05619047619047	204.49736961451248	76	127
204.3928798185941	204.49736961451248	79	127
204.49736961451248	204.95015873015873	64	127
204.49736961451248	204.95015873015873	60	127
204.49736961451248	204.95015873015873	60	127
204.49736961451248	204.9269387755102	79	127
204.97337868480724	205.15913832199547	79	127
205.20557823129252	205.623537414966	64	127
205.20557823129252	205.76285714285714	79	127
205.20557823129252	205.623537414966	60	127
205.20557823129252	205.623537414966	60	127
205.70480725623582	205.8092970521542	60	127
205.70480725623582	205.8092970521542	64	127
205.70480725623582	205.8092970521542	60	127
205.8092970521542	206.23886621315194	79	127
205.8092970521542	207.1212244897959	59	127
205.8092970521542	206.23886621315194	67	127
205.8092970521542	206.23886621315194	62	127
206.23886621315194	206.5987755102041	67	127
206.23886621315194	206.5987755102041	74	127
206.23886621315194	206.5987755102041	71	127
206.68004535147392	206.95868480725625	77	127
206.68004535147392	207.1212244897959	74	127
207.0283446712018	207.1212244897959	77	127
207.1212244897959	207.55079365079365	62	127
207.1212244897959	207.55079365079365	58	127
207.1212244897959	207.55079365079365	68	127
207.1212244897959	207.5275736961451	77	127
207.5740136054422	207.82943310657598	77	127
207.86426303854876	208.29383219954647	77	127
207.86426303854876	208.5724716553288	62	127
207.86426303854876	208.34027210884355	68	127
207.86426303854876	208.14290249433105	58	127
208.2241723356009	208.34027210884355	58	127
208.34027210884355	208.5724716553288	77	127
208.34027210884355	208.78145124716553	57	127
208.34027210884355	209.65219954648526	69	127
208.5724716553288	208.76984126984127	76	127
208.5724716553288	208.76984126984127	61	127
208.78145124716553	208.99043083900227	61	127
208.78145124716553	208.99043083900227	76	127
208.78145124716553	209.21102040816328	55	127
208.99043083900227	209.199410430839	73	127
208.99043083900227	209.199410430839	64	127
209.21102040816328	209.65219954648526	62	127
209.21102040816328	209.65219954648526	53	127
209.21102040816328	209.65219954648526	74	127
209.65219954648526	210.05854875283447	76	127
209.65219954648526	210.05854875283447	55	127
209.65219954648526	210.05854875283447	58	127
209.65219954648526	210.05854875283447	67	127
210.07015873015874	210.47650793650794	57	127
210.07015873015874	210.47650793650794	69	127
210.07015873015874	210.47650793650794	65	127
210.07015873015874	210.47650793650794	57	127
210.49972789115645	210.97573696145125	64	127
210.49972789115645	210.97573696145125	45	127
210.49972789115645	210.97573696145125	55	127
210.49972789115645	210.97573696145125	73	127
210.9989569160998	211.88131519274376	53	127
210.9989569160998	211.88131519274376	62	127
210.9989569160998	211.9625850340136	74	127
210.9989569160998	211.9625850340136	50	127
211.9625850340136	212.34571428571428	74	127
212.34571428571428	212.48503401360543	74	127
212.48503401360543	213.39061224489797	71	127
212.48503401360543	212.94943310657595	77	127
212.48503401360543	212.94943310657595	62	127
212.48503401360543	213.39061224489797	56	127
212.94943310657595	213.36739229024943	65	127
212.94943310657595	213.2861224489796	74	127
213.39061224489797	213.73891156462585	71	127
213.73891156462585	213.84340136054422	71	127
213.84340136054422	214.80702947845805	69	127
213.84340136054422	214.319410430839	72	127
213.84340136054422	214.319410430839	64	127
213.84340136054422	214.80702947845805	57	127
214.319410430839	214.78380952380954	60	127
214.319410430839	214.6677097505669	76	127
214.80702947845805	215.27142857142857	72	127
215.27142857142857	215.37591836734694	72	127
215.37591836734694	215.642947845805	76	127
215.642947845805	216.11895691609976	69	127
215.642947845805	216.11895691609976	64	127
215.642947845805	216.11895691609976	45	127
215.642947845805	216.11895691609976	72	127
216.11895691609976	216.6181859410431	69	127
216.11895691609976	216.6181859410431	57	127
216.11895691609976	216.6181859410431	53	127
216.11895691609976	216.6181859410431	63	127
216.6414058956916	217.07097505668935	68	127
216.6414058956916	217.48893424036282	64	127
216.6414058956916	223.54934240362812	52	127
216.6414058956916	217.07097505668935	59	127
217.07097505668935	217.38444444444445	71	127
217.07097505668935	217.38444444444445	56	127
217.48893424036282	217.91850340136054	68	127
217.48893424036282	217.91850340136054	64	127
217.48893424036282	217.81401360544217	76	127
217.81401360544217	217.91850340136054	76	127
217.91850340136054	219.19560090702947	75	127
217.91850340136054	218.35968253968255	69	127
217.91850340136054	218.35968253968255	66	127
218.35968253968255	218.76603174603176	68	127
218.35968253968255	218.76603174603176	71	127
218.76603174603176	219.19560090702947	69	127
218.76603174603176	219.19560090702947	72	127
219.19560090702947	219.6367800453515	74	127
219.19560090702947	219.6367800453515	71	127
219.19560090702947	219.6367800453515	68	127
219.6367800453515	220.07795918367347	69	127
219.6367800453515	220.07795918367347	66	127
220.07795918367347	220.55396825396826	68	127
220.07795918367347	220.9719274376417	64	127
220.07795918367347	220.4146485260771	74	127
220.4146485260771	220.55396825396826	74	127
220.55396825396826	221.8310657596372	73	127
220.55396825396826	220.9719274376417	67	127
220.9719274376417	221.424716553288	69	127
220.9719274376417	221.424716553288	66	127
221.424716553288	221.8310657596372	67	127
221.424716553288	221.8310657596372	70	127
221.8310657596372	222.28385487528345	66	127
221.8310657596372	222.28385487528345	72	127
221.8310657596372	222.28385487528345	69	127
222.28385487528345	222.71342403628117	64	127
222.28385487528345	222.71342403628117	67	127
222.71342403628117	223.0501133786848	72	127
222.71342403628117	223.15460317460318	63	127
222.71342403628117	223.15460317460318	66	127
223.0501133786848	223.15460317460318	72	127
223.15460317460318	223.54934240362812	62	127
223.15460317460318	223.35197278911565	64	127
223.15460317460318	223.54934240362812	71	127
223.35197278911565	223.54934240362812	65	127
223.54934240362812	224.01374149659864	68	127
223.54934240362812	224.01374149659864	59	127
223.54934240362812	224.01374149659864	50	127
223.54934240362812	223.78154195011336	64	127
223.78154195011336	224.01374149659864	65	127
224.01374149659864	224.45492063492063	69	127
224.01374149659864	224.45492063492063	48	127
224.01374149659864	224.45492063492063	60	127
224.01374149659864	224.2459410430839	64	127
224.2459410430839	224.45492063492063	65	127
224.45492063492063	225.29083900226757	74	127
224.45492063492063	224.67551020408163	64	127
224.45492063492063	224.90770975056688	56	127
224.45492063492063	224.90770975056688	47	127
224.67551020408163	224.90770975056688	65	127
224.90770975056688	225.29083900226757	44	127
224.90770975056688	225.0934693877551	64	127
224.90770975056688	225.29083900226757	59	127
225.0934693877551	225.29083900226757	65	127
225.29083900226757	225.72040816326532	72	127
225.29083900226757	225.4998185941043	64	127
225.29083900226757	225.72040816326532	45	127
225.29083900226757	225.96421768707484	57	127
225.4998185941043	225.72040816326532	69	127
225.72040816326532	226.19641723356008	65	127
225.72040816326532	226.19641723356008	50	127
225.72040816326532	225.96421768707484	72	127
225.96421768707484	226.19641723356008	62	127
225.96421768707484	226.19641723356008	71	127
226.19641723356008	226.6608163265306	69	127
226.19641723356008	226.6608163265306	60	127
226.19641723356008	226.6608163265306	52	127
226.19641723356008	226.6608163265306	64	127
226.6608163265306	227.10199546485262	68	127
226.6608163265306	227.10199546485262	59	127
226.6608163265306	226.99750566893425	74	127
226.6608163265306	226.99750566893425	52	127
226.99750566893425	227.10199546485262	52	127
226.99750566893425	227.10199546485262	74	127
227.10199546485262	227.5431746031746	45	127
227.10199546485262	227.51995464852607	57	127
227.10199546485262	228.0424036281179	67	127
227.10199546485262	228.49519274376416	73	127
227.5431746031746	228.0191836734694	57	127
228.0424036281179	228.3907029478458	79	127
228.0424036281179	228.3907029478458	57	127
228.3907029478458	228.49519274376416	57	127
228.3907029478458	228.49519274376416	79	127
228.49519274376416	228.9247619047619	72	127
228.49519274376416	228.94798185941042	50	127
228.49519274376416	229.87678004535147	78	127
228.94798185941042	229.35433106575962	62	127
229.37755102040816	229.7722902494331	50	127
229.37755102040816	229.7722902494331	72	127
229.7722902494331	229.87678004535147	50	127
229.7722902494331	229.87678004535147	72	127
229.87678004535147	231.2815873015873	71	127
229.87678004535147	230.32956916099772	77	127
229.87678004535147	230.32956916099772	43	127
230.32956916099772	230.8404081632653	55	127
230.86362811791383	231.17709750566894	55	127
230.86362811791383	231.17709750566894	77	127
231.17709750566894	231.2815873015873	55	127
231.17709750566894	231.2815873015873	77	127
231.2815873015873	231.7227664399093	48	127
231.2815873015873	231.7227664399093	70	127
231.2815873015873	232.6051247165533	76	127
231.7227664399093	232.14072562358277	60	127
232.1639455782313	232.50063492063492	70	127
232.1639455782313	232.50063492063492	48	127
232.50063492063492	232.6051247165533	70	127
232.50063492063492	232.6051247165533	48	127
232.6051247165533	233.11596371882086	75	127
232.6051247165533	234.12603174603174	69	127
232.6051247165533	233.11596371882086	41	127
233.11596371882086	233.61519274376417	53	127
233.6384126984127	234.0099319727891	53	127
233.6384126984127	234.0099319727891	75	127
234.0099319727891	234.12603174603174	75	127
234.0099319727891	234.12603174603174	53	127
234.12603174603174	234.59043083900227	74	127
234.12603174603174	235.08965986394557	53	127
234.12603174603174	237.0633560090703	46	127
234.12603174603174	234.59043083900227	70	127
234.59043083900227	235.08965986394557	70	127
234.59043083900227	235.08965986394557	62	127
235.08965986394557	235.57727891156463	69	127
235.08965986394557	235.57727891156463	52	127
235.08965986394557	235.57727891156463	64	127
235.57727891156463	236.06489795918367	68	127
235.57727891156463	236.06489795918367	50	127
235.57727891156463	236.06489795918367	65	127
236.0881179138322	236.54090702947846	68	127
236.0881179138322	236.54090702947846	49	127
236.0881179138322	236.54090702947846	64	127
236.56412698412697	237.04013605442177	68	127
236.56412698412697	237.04013605442177	50	127
236.56412698412697	237.04013605442177	62	127
237.0633560090703	237.52775510204083	52	127
237.0633560090703	237.52775510204083	61	127
237.0633560090703	237.52775510204083	69	127
237.0633560090703	237.52775510204083	45	127
238.0966439909297	238.39850340136056	62	127
238.0966439909297	238.39850340136056	74	127
238.4797732426304	238.58426303854876	74	127
238.4797732426304	238.58426303854876	62	127
238.58426303854876	241.5564172335601	62	127
238.58426303854876	239.1067120181406	74	127
239.1067120181406	239.48984126984126	69	127
239.48984126984126	239.74526077097505	69	127
239.48984126984126	239.74526077097505	65	127
239.48984126984126	239.90780045351474	77	127
239.80331065759637	239.90780045351474	69	127
239.80331065759637	239.90780045351474	65	127
239.90780045351474	240.34897959183672	67	127
239.90780045351474	240.12839002267575	77	127
239.90780045351474	240.34897959183672	70	127
240.12839002267575	240.34897959183672	76	127
240.34897959183672	240.73210884353742	67	127
240.34897959183672	240.73210884353742	64	127
240.34897959183672	240.54634920634922	74	127
240.54634920634922	240.73210884353742	73	127
240.73210884353742	240.96430839002267	74	127
240.73210884353742	241.16167800453513	69	127
240.73210884353742	241.16167800453513	65	127
240.96430839002267	241.16167800453513	77	127
241.16167800453513	241.53319727891156	81	127
241.16167800453513	241.5564172335601	65	127
241.16167800453513	241.5564172335601	62	127
241.5796371882086	241.88149659863944	81	127
241.92793650793652	242.17174603174604	62	127
241.92793650793652	242.17174603174604	65	127
241.92793650793652	242.17174603174604	62	127
241.92793650793652	242.29945578231292	81	127
242.2414058956916	242.34589569160997	65	127
242.2414058956916	242.34589569160997	62	127
242.2414058956916	242.34589569160997	62	127
242.34589569160997	242.78707482993198	81	127
242.34589569160997	242.78707482993198	69	127
242.34589569160997	243.7507029478458	61	127
242.34589569160997	242.78707482993198	64	127
242.78707482993198	243.1934240362812	76	127
242.78707482993198	243.1934240362812	73	127
242.78707482993198	243.1934240362812	69	127
243.27469387755102	243.7507029478458	76	127
243.27469387755102	243.57655328798185	79	127
243.64621315192744	243.7507029478458	79	127
243.7507029478458	244.18027210884352	60	127
243.7507029478458	244.18027210884352	64	127
243.7507029478458	244.15705215419501	79	127
243.7507029478458	244.18027210884352	60	127
244.20349206349206	244.5053514739229	79	127
244.55179138321995	244.8884807256236	60	127
244.55179138321995	244.8884807256236	64	127
244.55179138321995	244.8884807256236	60	127
244.55179138321995	245.02780045351474	79	127
244.96975056689342	245.08585034013606	64	127
244.96975056689342	245.08585034013606	60	127
244.96975056689342	245.08585034013606	60	127
245.08585034013606	245.6082993197279	79	127
245.08585034013606	245.6082993197279	67	127
245.08585034013606	245.6082993197279	62	127
245.08585034013606	246.4558276643991	59	127
245.6082993197279	245.9565986394558	71	127
245.6082993197279	245.9565986394558	74	127
245.6082993197279	245.9565986394558	67	127
246.03786848072562	246.28167800453514	77	127
246.03786848072562	246.4558276643991	74	127
246.35133786848073	246.4558276643991	77	127
246.4558276643991	246.8621768707483	62	127
246.4558276643991	246.8621768707483	68	127
246.4558276643991	246.8621768707483	58	127
246.4558276643991	246.8621768707483	77	127
246.88539682539684	247.25691609977324	77	127
247.28013605442177	247.7097052154195	68	127
247.28013605442177	247.54716553287983	58	127
247.28013605442177	247.68648526077098	77	127
247.28013605442177	247.9302947845805	62	127
247.6168253968254	247.7097052154195	58	127
247.7097052154195	247.9302947845805	77	127
247.7097052154195	249.0912925170068	69	127
247.7097052154195	248.17410430839	57	127
247.9302947845805	248.16249433106577	76	127
247.9302947845805	248.16249433106577	61	127
248.17410430839	248.62689342403627	55	127
248.17410430839	248.38308390022675	76	127
248.17410430839	248.38308390022675	61	127
248.38308390022675	248.60367346938776	64	127
248.38308390022675	248.60367346938776	73	127
248.62689342403627	248.98680272108842	53	127
248.62689342403627	248.98680272108842	74	127
248.62689342403627	248.98680272108842	62	127
249.0912925170068	249.52086167800454	76	127
249.0912925170068	249.52086167800454	67	127
249.0912925170068	249.52086167800454	58	127
249.0912925170068	249.52086167800454	55	127
249.54408163265308	249.98526077097506	57	127
249.54408163265308	249.98526077097506	69	127
249.54408163265308	249.98526077097506	65	127
249.54408163265308	249.98526077097506	57	127
250.08975056689343	250.54253968253968	64	127
250.08975056689343	250.54253968253968	55	127
250.08975056689343	250.54253968253968	73	127
250.08975056689343	250.54253968253968	45	127
250.67024943310656	252.05183673469386	74	127
250.67024943310656	251.97056689342404	62	127
250.67024943310656	251.97056689342404	53	127
250.67024943310656	252.05183673469386	50	127
