# onset,offset,note,velocity
2.530204081632653	2.739183673469388	77	127
2.739183673469388	2.9481632653061225	81	127
2.9481632653061225	3.400952380952381	84	127
3.400952380952381	3.6215419501133788	84	127
3.8305215419501133	3.946621315192744	84	127
4.062721088435374	4.167210884353741	86	127
4.062721088435374	4.283310657596372	65	127
4.167210884353741	5.2817687074829935	84	127
4.283310657596372	4.492290249433107	69	127
4.492290249433107	4.7128798185941045	65	127
4.7128798185941045	4.910249433106576	69	127
4.910249433106576	5.096009070294785	65	127
5.096009070294785	5.2817687074829935	69	127
5.2817687074829935	5.479138321995465	67	127
5.2817687074829935	5.374625850340136	86	127
5.374625850340136	6.419546485260771	84	127
5.479138321995465	5.676507936507937	70	127
5.676507936507937	5.873877551020408	67	127
5.873877551020408	6.059637188208617	70	127
6.059637188208617	6.245396825396825	67	127
6.245396825396825	6.419546485260771	70	127
6.419546485260771	6.628526077097506	86	127
6.419546485260771	6.628526077097506	69	127
6.628526077097506	6.849115646258503	84	127
6.628526077097506	6.849115646258503	72	127
6.849115646258503	7.058095238095238	86	127
6.849115646258503	7.058095238095238	69	127
7.058095238095238	7.232244897959184	84	127
7.058095238095238	7.232244897959184	72	127
7.232244897959184	7.394784580498866	86	127
7.232244897959184	7.394784580498866	69	127
7.394784580498866	7.603764172335601	84	127
7.394784580498866	7.603764172335601	72	127
7.603764172335601	7.824353741496599	86	127
7.603764172335601	7.824353741496599	70	127
7.824353741496599	7.986893424036281	84	127
7.824353741496599	7.986893424036281	74	127
7.986893424036281	8.20748299319728	70	127
7.986893424036281	8.20748299319728	82	127
8.20748299319728	8.381632653061224	81	127
8.20748299319728	8.381632653061224	74	127
8.381632653061224	9.043401360544218	79	127
8.381632653061224	8.602222222222222	70	127
8.602222222222222	8.741519274376417	74	127
8.741519274376417	8.857641723356009	72	127
8.857641723356009	9.043401360544218	76	127
9.043401360544218	9.252380952380953	79	127
9.043401360544218	9.252380952380953	72	127
9.252380952380953	9.43814058956916	76	127
9.43814058956916	9.635510204081633	79	127
9.43814058956916	9.635510204081633	72	127
9.635510204081633	9.844489795918367	76	127
9.844489795918367	10.041836734693877	79	127
9.844489795918367	10.250839002267574	65	127
10.041836734693877	10.250839002267574	81	127
10.250839002267574	10.65718820861678	77	127
10.65718820861678	10.854557823129252	74	127
10.65718820861678	10.854557823129252	62	127
10.854557823129252	11.063537414965987	77	127
10.854557823129252	11.063537414965987	65	127
11.063537414965987	11.388616780045352	69	127
11.063537414965987	11.27251700680272	38	127
11.063537414965987	11.388616780045352	81	127
11.27251700680272	11.388616780045352	41	127
11.388616780045352	11.597573696145124	81	127
11.388616780045352	11.597573696145124	69	127
11.388616780045352	11.702086167800454	65	127
11.388616780045352	11.597573696145124	38	127
11.597573696145124	11.818163265306122	41	127
11.702086167800454	11.818163265306122	69	127
11.818163265306122	12.027165532879819	38	127
11.818163265306122	12.027165532879819	81	127
11.818163265306122	12.027165532879819	69	127
11.818163265306122	12.236145124716554	74	127
12.027165532879819	12.236145124716554	41	127
12.236145124716554	12.352244897959183	82	127
12.236145124716554	12.352244897959183	70	127
12.236145124716554	12.445124716553288	40	127
12.352244897959183	13.385532879818594	81	127
12.352244897959183	13.385532879818594	69	127
12.445124716553288	12.654104308390023	49	127
12.654104308390023	12.897913832199546	67	127
12.654104308390023	12.874693877551021	40	127
12.874693877551021	12.99079365079365	49	127
12.897913832199546	12.99079365079365	73	127
12.99079365079365	13.188163265306123	40	127
12.99079365079365	13.385532879818594	76	127
13.188163265306123	13.385532879818594	49	127
13.385532879818594	13.606122448979592	82	127
13.385532879818594	13.606122448979592	70	127
13.385532879818594	13.606122448979592	41	127
13.606122448979592	13.791882086167801	81	127
13.606122448979592	13.791882086167801	69	127
13.606122448979592	13.791882086167801	50	127
13.791882086167801	13.989251700680272	70	127
13.791882086167801	13.989251700680272	41	127
13.791882086167801	13.989251700680272	82	127
13.791882086167801	14.09374149659864	65	127
13.989251700680272	14.186621315192744	50	127
13.989251700680272	14.186621315192744	81	127
13.989251700680272	14.186621315192744	69	127
14.09374149659864	14.186621315192744	69	127
14.186621315192744	14.383990929705215	70	127
14.186621315192744	14.59297052154195	74	127
14.186621315192744	14.383990929705215	41	127
14.186621315192744	14.383990929705215	82	127
14.383990929705215	14.59297052154195	50	127
14.383990929705215	14.59297052154195	81	127
14.383990929705215	14.59297052154195	69	127
14.59297052154195	14.801950113378684	80	127
14.59297052154195	14.801950113378684	68	127
14.59297052154195	14.801950113378684	38	127
14.801950113378684	14.952879818594104	47	127
14.801950113378684	14.952879818594104	67	127
14.801950113378684	14.952879818594104	79	127
14.952879818594104	15.219909297052155	65	127
14.952879818594104	15.150249433106575	38	127
14.952879818594104	15.150249433106575	80	127
14.952879818594104	15.150249433106575	68	127
15.150249433106575	15.31278911564626	79	127
15.150249433106575	15.31278911564626	67	127
15.150249433106575	15.31278911564626	47	127
15.219909297052155	15.31278911564626	71	127
15.31278911564626	15.672698412698413	74	127
15.31278911564626	15.486938775510204	80	127
15.31278911564626	15.486938775510204	68	127
15.31278911564626	15.486938775510204	38	127
15.486938775510204	15.672698412698413	47	127
15.486938775510204	15.672698412698413	67	127
15.486938775510204	15.672698412698413	79	127
15.672698412698413	15.986167800453515	64	127
15.672698412698413	15.881678004535148	40	127
15.672698412698413	15.881678004535148	81	127
15.672698412698413	15.881678004535148	69	127
15.881678004535148	16.090657596371884	79	127
15.881678004535148	16.090657596371884	67	127
15.881678004535148	16.090657596371884	48	127
15.986167800453515	16.090657596371884	67	127
16.090657596371884	16.288027210884355	69	127
16.090657596371884	16.49700680272109	72	127
16.090657596371884	16.288027210884355	40	127
16.090657596371884	16.288027210884355	81	127
16.288027210884355	16.49700680272109	79	127
16.288027210884355	16.49700680272109	67	127
16.288027210884355	16.49700680272109	48	127
16.49700680272109	16.69437641723356	65	127
16.49700680272109	16.61310657596372	45	127
16.49700680272109	16.69437641723356	77	127
16.49700680272109	16.69437641723356	60	127
16.69437641723356	16.903333333333332	76	127
16.69437641723356	16.79886621315193	48	127
16.69437641723356	16.903333333333332	64	127
16.903333333333332	17.135555555555555	76	127
16.903333333333332	17.135555555555555	64	127
16.903333333333332	17.135555555555555	69	127
16.903333333333332	17.135555555555555	41	127
17.135555555555555	17.34453514739229	74	127
17.135555555555555	17.34453514739229	62	127
17.34453514739229	17.402585034013605	76	127
17.34453514739229	17.402585034013605	64	127
17.402585034013605	17.46063492063492	74	127
17.402585034013605	17.46063492063492	62	127
17.46063492063492	17.507074829931973	76	127
17.46063492063492	17.507074829931973	64	127
17.507074829931973	17.553514739229026	74	127
17.507074829931973	17.553514739229026	62	127
17.553514739229026	17.704444444444444	72	127
17.553514739229026	17.704444444444444	60	127
17.704444444444444	17.92501133786848	74	127
17.704444444444444	17.92501133786848	62	127
17.704444444444444	17.92501133786848	59	127
17.704444444444444	17.92501133786848	43	127
17.92501133786848	18.122403628117915	76	127
17.92501133786848	18.122403628117915	64	127
18.122403628117915	18.33138321995465	72	127
18.122403628117915	18.33138321995465	60	127
18.122403628117915	18.33138321995465	60	127
18.122403628117915	18.33138321995465	36	127
18.52875283446712	18.737732426303854	48	127
18.958321995464853	19.167301587301587	77	127
19.167301587301587	19.387891156462587	81	127
19.387891156462587	19.817460317460316	84	127
19.817460317460316	19.98	84	127
20.17736961451247	20.235419501133787	84	127
20.386349206349205	20.595328798185943	65	127
20.386349206349205	20.490839002267574	86	127
20.490839002267574	21.570566893424036	84	127
20.595328798185943	20.804308390022676	69	127
20.804308390022676	20.990068027210885	65	127
20.990068027210885	21.187437641723356	69	127
21.187437641723356	21.384807256235828	65	127
21.384807256235828	21.570566893424036	69	127
21.570566893424036	21.686666666666667	86	127
21.570566893424036	21.79113378684807	67	127
21.686666666666667	22.673514739229024	84	127
21.79113378684807	21.988526077097507	70	127
21.988526077097507	22.127845804988663	67	127
22.127845804988663	22.313605442176872	70	127
22.313605442176872	22.487732426303854	67	127
22.487732426303854	22.673514739229024	70	127
22.673514739229024	22.894104308390023	86	127
22.673514739229024	22.894104308390023	69	127
22.894104308390023	23.091473922902495	84	127
22.894104308390023	23.091473922902495	72	127
23.091473922902495	23.288843537414966	86	127
23.091473922902495	23.288843537414966	69	127
23.288843537414966	23.462993197278912	84	127
23.288843537414966	23.462993197278912	72	127
23.462993197278912	23.660362811791384	86	127
23.462993197278912	23.660362811791384	69	127
23.660362811791384	23.88095238095238	84	127
23.660362811791384	23.88095238095238	72	127
23.88095238095238	24.06671201814059	86	127
23.88095238095238	24.06671201814059	70	127
24.06671201814059	24.26408163265306	84	127
24.06671201814059	24.26408163265306	74	127
24.26408163265306	24.426621315192744	82	127
24.26408163265306	24.426621315192744	70	127
24.426621315192744	24.623990929705215	81	127
24.426621315192744	24.623990929705215	74	127
24.623990929705215	24.83297052154195	70	127
24.623990929705215	25.390249433106575	79	127
24.83297052154195	24.972290249433108	74	127
24.972290249433108	25.18126984126984	72	127
25.18126984126984	25.390249433106575	76	127
25.390249433106575	25.587619047619047	79	127
25.390249433106575	25.587619047619047	72	127
25.587619047619047	25.773378684807255	76	127
25.773378684807255	25.970748299319727	79	127
25.773378684807255	25.970748299319727	72	127
25.970748299319727	26.144897959183673	76	127
26.144897959183673	26.31904761904762	79	127
26.144897959183673	26.51641723356009	65	127
26.31904761904762	26.51641723356009	81	127
26.51641723356009	26.89954648526077	77	127
26.89954648526077	27.120136054421767	74	127
26.89954648526077	27.120136054421767	62	127
27.120136054421767	27.329115646258504	65	127
27.120136054421767	27.329115646258504	77	127
27.329115646258504	27.65419501133787	69	127
27.329115646258504	27.456825396825398	38	127
27.329115646258504	27.65419501133787	81	127
27.456825396825398	27.65419501133787	41	127
27.65419501133787	27.863174603174603	69	127
27.65419501133787	27.863174603174603	81	127
27.65419501133787	27.979274376417234	65	127
27.65419501133787	27.863174603174603	38	127
27.863174603174603	28.083764172335602	41	127
27.979274376417234	28.083764172335602	69	127
28.083764172335602	28.292743764172336	38	127
28.083764172335602	28.292743764172336	81	127
28.083764172335602	28.292743764172336	69	127
28.083764172335602	28.513333333333332	74	127
28.292743764172336	28.513333333333332	41	127
28.513333333333332	28.606213151927438	82	127
28.513333333333332	28.606213151927438	70	127
28.513333333333332	28.710702947845807	40	127
28.606213151927438	29.709160997732425	69	127
28.606213151927438	29.709160997732425	81	127
28.710702947845807	28.931292517006803	49	127
28.931292517006803	29.128662131519274	40	127
28.931292517006803	29.22154195011338	67	127
29.128662131519274	29.337641723356008	49	127
29.22154195011338	29.337641723356008	73	127
29.337641723356008	29.48857142857143	40	127
29.337641723356008	29.709160997732425	76	127
29.48857142857143	29.709160997732425	49	127
29.709160997732425	29.918140589569163	41	127
29.709160997732425	29.918140589569163	82	127
29.709160997732425	29.918140589569163	70	127
29.918140589569163	30.115510204081634	81	127
29.918140589569163	30.115510204081634	69	127
29.918140589569163	30.115510204081634	50	127
30.115510204081634	30.324489795918367	82	127
30.115510204081634	30.324489795918367	70	127
30.115510204081634	30.324489795918367	41	127
30.115510204081634	30.428979591836736	65	127
30.324489795918367	30.5334693877551	69	127
30.324489795918367	30.5334693877551	81	127
30.324489795918367	30.5334693877551	50	127
30.428979591836736	30.5334693877551	69	127
30.5334693877551	30.74244897959184	70	127
30.5334693877551	30.91659863945578	74	127
30.5334693877551	30.74244897959184	41	127
30.5334693877551	30.74244897959184	82	127
30.74244897959184	30.91659863945578	50	127
30.74244897959184	30.91659863945578	81	127
30.74244897959184	30.91659863945578	69	127
30.91659863945578	31.12557823129252	80	127
30.91659863945578	31.12557823129252	68	127
30.91659863945578	31.12557823129252	38	127
31.12557823129252	31.334557823129252	79	127
31.12557823129252	31.334557823129252	67	127
31.12557823129252	31.334557823129252	47	127
31.334557823129252	31.6015873015873	65	127
31.334557823129252	31.52031746031746	80	127
31.334557823129252	31.52031746031746	68	127
31.334557823129252	31.52031746031746	38	127
31.52031746031746	31.70607709750567	47	127
31.52031746031746	31.70607709750567	67	127
31.52031746031746	31.70607709750567	79	127
31.6015873015873	31.70607709750567	71	127
31.70607709750567	31.926666666666666	80	127
31.70607709750567	31.926666666666666	68	127
31.70607709750567	31.926666666666666	38	127
31.70607709750567	32.065986394557825	74	127
31.926666666666666	32.065986394557825	79	127
31.926666666666666	32.065986394557825	67	127
31.926666666666666	32.065986394557825	47	127
32.065986394557825	32.26335600907029	81	127
32.065986394557825	32.26335600907029	69	127
32.065986394557825	32.26335600907029	40	127
32.065986394557825	32.36784580498866	64	127
32.26335600907029	32.47233560090703	48	127
32.26335600907029	32.47233560090703	79	127
32.26335600907029	32.47233560090703	67	127
32.36784580498866	32.47233560090703	67	127
32.47233560090703	32.68131519274377	69	127
32.47233560090703	32.90190476190476	72	127
32.47233560090703	32.68131519274377	81	127
32.47233560090703	32.68131519274377	40	127
32.68131519274377	32.90190476190476	48	127
32.68131519274377	32.90190476190476	79	127
32.68131519274377	32.90190476190476	67	127
32.90190476190476	33.1108843537415	77	127
32.90190476190476	33.00639455782313	45	127
32.90190476190476	33.1108843537415	65	127
32.90190476190476	33.1108843537415	60	127
33.1108843537415	33.19215419501134	48	127
33.1108843537415	33.296621315192745	76	127
33.1108843537415	33.296621315192745	64	127
33.296621315192745	33.50562358276644	76	127
33.296621315192745	33.50562358276644	64	127
33.296621315192745	33.50562358276644	69	127
33.296621315192745	33.50562358276644	41	127
33.50562358276644	33.71460317460318	62	127
33.50562358276644	33.71460317460318	74	127
33.71460317460318	33.761043083900226	64	127
33.71460317460318	33.761043083900226	76	127
33.761043083900226	33.819092970521545	74	127
33.761043083900226	33.819092970521545	62	127
33.819092970521545	33.87714285714286	76	127
33.819092970521545	33.87714285714286	64	127
33.87714285714286	33.911972789115644	74	127
33.87714285714286	33.911972789115644	62	127
33.911972789115644	34.132562358276644	72	127
33.911972789115644	34.132562358276644	60	127
34.132562358276644	34.34154195011338	74	127
34.132562358276644	34.34154195011338	62	127
34.132562358276644	34.34154195011338	59	127
34.132562358276644	34.34154195011338	43	127
34.34154195011338	34.562108843537416	76	127
34.34154195011338	34.562108843537416	64	127
34.562108843537416	34.747891156462586	60	127
34.562108843537416	34.747891156462586	72	127
34.562108843537416	34.747891156462586	60	127
34.562108843537416	34.747891156462586	36	127
34.945238095238096	35.14263038548753	48	127
35.34	35.560589569160996	60	127
35.34	35.560589569160996	52	127
35.560589569160996	35.76956916099773	64	127
35.560589569160996	35.76956916099773	60	127
35.76956916099773	36.17591836734694	67	127
35.76956916099773	36.17591836734694	64	127
36.17591836734694	36.35004535147392	64	127
36.17591836734694	36.35004535147392	67	127
36.55904761904762	36.768027210884355	64	127
36.55904761904762	36.768027210884355	67	127
36.91895691609977	37.02344671201814	65	127
36.91895691609977	37.12793650793651	84	127
36.91895691609977	37.02344671201814	68	127
37.02344671201814	38.1031746031746	67	127
37.02344671201814	38.1031746031746	64	127
37.12793650793651	37.3485260770975	72	127
37.3485260770975	37.534285714285716	84	127
37.3485260770975	37.74324263038549	36	127
37.534285714285716	37.74324263038549	72	127
37.74324263038549	38.1031746031746	48	127
37.74324263038549	37.90580498866213	84	127
37.90580498866213	38.1031746031746	72	127
38.1031746031746	38.31215419501134	84	127
38.1031746031746	38.20766439909297	70	127
38.1031746031746	38.20766439909297	67	127
38.20766439909297	39.2990022675737	65	127
38.20766439909297	39.2990022675737	68	127
38.31215419501134	38.48630385487528	73	127
38.48630385487528	38.904263038548756	36	127
38.48630385487528	38.683673469387756	84	127
38.683673469387756	38.904263038548756	73	127
38.904263038548756	39.10163265306122	84	127
38.904263038548756	39.2990022675737	48	127
39.10163265306122	39.2990022675737	73	127
39.2990022675737	39.380272108843535	67	127
39.2990022675737	39.380272108843535	70	127
39.2990022675737	39.47315192743764	84	127
39.380272108843535	40.47160997732426	69	127
39.380272108843535	40.47160997732426	66	127
39.47315192743764	39.670521541950116	74	127
39.670521541950116	39.89108843537415	84	127
39.670521541950116	40.100090702947846	36	127
39.89108843537415	40.100090702947846	74	127
40.100090702947846	40.320680272108845	84	127
40.100090702947846	40.47160997732426	48	127
40.320680272108845	40.47160997732426	74	127
40.47160997732426	46.752585034013606	48	127
40.47160997732426	40.66897959183674	84	127
40.47160997732426	41.249478458049886	70	127
40.47160997732426	41.249478458049886	67	127
40.66897959183674	40.84312925170068	75	127
40.84312925170068	41.04047619047619	84	127
41.04047619047619	41.249478458049886	76	127
41.249478458049886	41.65582766439909	72	127
41.249478458049886	41.65582766439909	69	127
41.249478458049886	41.45845804988662	84	127
41.45845804988662	41.65582766439909	77	127
41.65582766439909	46.31142857142857	72	127
41.65582766439909	42.03895691609977	63	127
41.65582766439909	41.82997732426304	84	127
41.82997732426304	42.03895691609977	78	127
42.03895691609977	42.41047619047619	64	127
42.03895691609977	42.20149659863946	84	127
42.20149659863946	42.41047619047619	79	127
42.41047619047619	42.840045351473925	65	127
42.41047619047619	42.619455782312926	84	127
42.619455782312926	42.840045351473925	80	127
42.840045351473925	43.23478458049887	66	127
42.840045351473925	43.02580498866213	84	127
43.02580498866213	43.23478458049887	81	127
43.23478458049887	43.61791383219955	67	127
43.23478458049887	43.432154195011336	84	127
43.432154195011336	43.61791383219955	82	127
43.61791383219955	44.04748299319728	65	127
43.61791383219955	43.82687074829932	84	127
43.82687074829932	44.04748299319728	83	127
44.04748299319728	44.477052154195015	64	127
44.04748299319728	44.26807256235828	84	127
44.26807256235828	44.477052154195015	82	127
44.477052154195015	44.87179138321996	65	127
44.477052154195015	44.686031746031745	84	127
44.686031746031745	44.87179138321996	81	127
44.87179138321996	44.97625850340136	84	127
44.87179138321996	45.185260770975056	72	127
44.97625850340136	45.185260770975056	80	127
45.185260770975056	45.336190476190474	84	127
45.185260770975056	45.510340136054424	71	127
45.336190476190474	45.510340136054424	79	127
45.510340136054424	45.88185941043084	70	127
45.510340136054424	45.73090702947846	84	127
45.73090702947846	45.88185941043084	78	127
45.88185941043084	46.09083900226757	84	127
45.88185941043084	46.31142857142857	69	127
46.09083900226757	46.31142857142857	77	127
46.31142857142857	46.752585034013606	71	127
46.31142857142857	46.752585034013606	68	127
46.31142857142857	46.53201814058957	84	127
46.53201814058957	46.752585034013606	76	127
46.752585034013606	47.53047619047619	36	127
46.752585034013606	46.9615873015873	84	127
46.752585034013606	47.53047619047619	70	127
46.752585034013606	47.53047619047619	67	127
46.9615873015873	47.1821768707483	75	127
47.1821768707483	47.367936507936506	84	127
47.367936507936506	47.53047619047619	75	127
47.53047619047619	47.9368253968254	69	127
47.53047619047619	47.73945578231292	84	127
47.53047619047619	47.9368253968254	66	127
47.53047619047619	47.9368253968254	48	127
47.73945578231292	47.9368253968254	74	127
47.9368253968254	48.14580498866213	84	127
47.9368253968254	48.72630385487528	65	127
47.9368253968254	48.72630385487528	68	127
47.9368253968254	48.72630385487528	36	127
48.14580498866213	48.36639455782313	73	127
48.36639455782313	48.55215419501134	84	127
48.55215419501134	48.72630385487528	73	127
48.72630385487528	49.121043083900226	67	127
48.72630385487528	49.121043083900226	64	127
48.72630385487528	49.121043083900226	48	127
48.72630385487528	48.842403628117914	72	127
48.93528344671202	49.01655328798186	76	127
49.121043083900226	49.23714285714286	79	127
49.341632653061225	49.42290249433107	84	127
49.46934240362812	49.887301587301586	67	127
49.46934240362812	49.68993197278912	74	127
49.46934240362812	49.887301587301586	65	127
49.46934240362812	49.887301587301586	43	127
49.68993197278912	49.887301587301586	83	127
49.887301587301586	49.98018140589569	72	127
49.887301587301586	50.28204081632653	64	127
49.887301587301586	50.28204081632653	55	127
49.887301587301586	50.28204081632653	48	127
50.09628117913832	50.18916099773243	76	127
50.28204081632653	50.36331065759637	79	127
50.479410430839	50.51424036281179	84	127
50.61873015873016	50.804489795918364	74	127
50.61873015873016	51.025079365079364	65	127
50.61873015873016	51.025079365079364	67	127
50.61873015873016	51.025079365079364	43	127
50.804489795918364	51.025079365079364	83	127
51.025079365079364	51.43142857142857	64	127
51.025079365079364	51.2340589569161	55	127
51.025079365079364	51.2340589569161	48	127
51.025079365079364	51.43142857142857	84	127
51.2340589569161	51.33854875283447	59	127
51.2340589569161	51.33854875283447	47	127
51.43142857142857	51.524308390022675	60	127
51.43142857142857	51.524308390022675	48	127
51.628798185941044	51.72167800453515	58	127
51.628798185941044	51.72167800453515	46	127
51.81455782312925	52.00031746031746	57	127
51.81455782312925	52.00031746031746	45	127
52.00031746031746	52.18607709750567	48	127
52.00031746031746	52.18607709750567	60	127
52.18607709750567	52.58081632653061	65	127
52.18607709750567	52.58081632653061	53	127
52.58081632653061	52.76657596371882	53	127
52.58081632653061	52.76657596371882	41	127
52.96394557823129	53.17292517006803	53	127
52.96394557823129	53.17292517006803	41	127
53.381904761904764	53.50961451247166	43	127
53.381904761904764	53.614104308390026	77	127
53.50961451247166	54.62417233560091	41	127
53.614104308390026	53.823083900226756	65	127
53.823083900226756	54.043673469387755	77	127
53.823083900226756	54.148163265306124	69	127
53.823083900226756	54.148163265306124	81	127
54.043673469387755	54.25265306122449	65	127
54.148163265306124	54.25265306122449	72	127
54.148163265306124	54.25265306122449	84	127
54.25265306122449	54.473242630385485	77	127
54.25265306122449	54.62417233560091	87	127
54.25265306122449	54.62417233560091	75	127
54.473242630385485	54.62417233560091	65	127
54.62417233560091	54.82154195011338	77	127
54.62417233560091	54.72866213151927	43	127
54.72866213151927	55.82	41	127
54.82154195011338	55.030521541950115	65	127
55.030521541950115	55.25111111111111	77	127
55.030521541950115	55.355600907029476	74	127
55.030521541950115	55.355600907029476	62	127
55.25111111111111	55.44848072562358	65	127
55.355600907029476	55.44848072562358	82	127
55.355600907029476	55.44848072562358	70	127
55.44848072562358	55.82	86	127
55.44848072562358	55.82	74	127
55.44848072562358	55.64585034013606	77	127
55.64585034013606	55.82	65	127
55.82	56.005759637188206	76	127
55.82	56.005759637188206	43	127
56.005759637188206	56.21473922902494	41	127
56.005759637188206	56.21473922902494	64	127
56.21473922902494	56.36566893424036	76	127
56.21473922902494	56.36566893424036	43	127
56.21473922902494	56.47015873015873	79	127
56.21473922902494	56.47015873015873	67	127
56.36566893424036	56.58625850340136	41	127
56.36566893424036	56.58625850340136	64	127
56.47015873015873	56.58625850340136	82	127
56.47015873015873	56.58625850340136	70	127
56.58625850340136	56.772018140589566	76	127
56.58625850340136	56.772018140589566	43	127
56.58625850340136	56.9809977324263	85	127
56.58625850340136	56.9809977324263	73	127
56.772018140589566	56.9809977324263	41	127
56.772018140589566	56.9809977324263	64	127
56.9809977324263	57.166757369614515	75	127
56.9809977324263	57.166757369614515	43	127
57.166757369614515	57.375736961451246	63	127
57.166757369614515	57.375736961451246	41	127
57.375736961451246	57.56149659863946	43	127
57.375736961451246	57.56149659863946	75	127
57.375736961451246	57.66598639455783	72	127
57.375736961451246	57.66598639455783	60	127
57.56149659863946	57.758866213151926	63	127
57.56149659863946	57.758866213151926	41	127
57.66598639455783	57.758866213151926	81	127
57.66598639455783	57.758866213151926	69	127
57.758866213151926	58.11877551020408	84	127
57.758866213151926	57.9562358276644	75	127
57.758866213151926	57.9562358276644	43	127
57.758866213151926	58.11877551020408	72	127
57.9562358276644	58.11877551020408	41	127
57.9562358276644	58.11877551020408	63	127
58.11877551020408	58.33936507936508	74	127
58.11877551020408	58.33936507936508	43	127
58.33936507936508	58.513514739229024	62	127
58.33936507936508	58.513514739229024	41	127
58.513514739229024	58.66444444444444	43	127
58.513514739229024	58.66444444444444	74	127
58.513514739229024	58.75732426303855	72	127
58.513514739229024	58.75732426303855	60	127
58.66444444444444	58.86181405895692	62	127
58.66444444444444	58.86181405895692	41	127
58.75732426303855	58.86181405895692	77	127
58.75732426303855	58.86181405895692	65	127
58.86181405895692	59.04757369614512	43	127
58.86181405895692	59.04757369614512	74	127
58.86181405895692	59.16367346938775	84	127
58.86181405895692	59.16367346938775	72	127
59.04757369614512	59.16367346938775	41	127
59.04757369614512	59.16367346938775	62	127
59.16367346938775	59.37265306122449	73	127
59.16367346938775	59.37265306122449	43	127
59.37265306122449	59.60485260770975	61	127
59.37265306122449	59.60485260770975	41	127
59.60485260770975	59.81383219954648	73	127
59.60485260770975	59.81383219954648	43	127
59.60485260770975	59.92993197278911	71	127
59.60485260770975	59.92993197278911	59	127
59.81383219954648	60.03442176870748	61	127
59.81383219954648	60.03442176870748	41	127
59.92993197278911	60.03442176870748	80	127
59.92993197278911	60.03442176870748	68	127
60.03442176870748	60.24340136054422	73	127
60.03442176870748	60.24340136054422	43	127
60.03442176870748	60.45238095238095	83	127
60.03442176870748	60.45238095238095	71	127
60.24340136054422	60.45238095238095	61	127
60.24340136054422	60.45238095238095	41	127
60.45238095238095	60.649750566893424	60	127
60.45238095238095	60.649750566893424	40	127
60.45238095238095	60.812290249433104	84	127
60.45238095238095	60.812290249433104	72	127
60.649750566893424	60.812290249433104	43	127
60.649750566893424	60.812290249433104	64	127
60.812290249433104	61.24185941043084	82	127
60.812290249433104	61.24185941043084	70	127
60.812290249433104	61.24185941043084	67	127
60.812290249433104	60.91678004535147	36	127
61.02126984126984	61.12575963718821	40	127
61.24185941043084	61.34634920634921	41	127
61.24185941043084	61.462448979591834	81	127
61.24185941043084	61.462448979591834	69	127
61.24185941043084	61.67142857142857	65	127
61.45083900226757	61.55532879818594	45	127
61.55532879818594	61.67142857142857	69	127
61.55532879818594	61.67142857142857	81	127
61.67142857142857	61.77591836734694	46	127
61.67142857142857	61.88040816326531	62	127
61.67142857142857	62.08938775510204	79	127
61.67142857142857	62.08938775510204	67	127
61.88040816326531	61.98489795918368	43	127
61.88040816326531	62.08938775510204	58	127
62.08938775510204	62.53056689342404	77	127
62.08938775510204	62.20548752834467	48	127
62.08938775510204	62.53056689342404	65	127
62.08938775510204	62.53056689342404	57	127
62.30997732426304	62.42607709750567	46	127
62.53056689342404	62.97174603174603	55	127
62.53056689342404	62.65827664399093	48	127
62.53056689342404	62.97174603174603	76	127
62.53056689342404	62.97174603174603	64	127
62.7627664399093	62.86725623582767	36	127
62.97174603174603	63.19233560090703	65	127
62.97174603174603	63.08784580498866	77	127
62.97174603174603	63.19233560090703	57	127
62.97174603174603	63.19233560090703	41	127
63.19233560090703	63.2968253968254	81	127
63.401315192743766	63.505804988662135	82	127
63.62190476190476	63.72639455782313	84	127
63.830884353741496	63.935374149659864	86	127
64.05145124716553	64.09791383219955	88	127
64.10952380952381	64.38816326530612	89	127
64.38816326530612	64.49265306122449	62	127
64.38816326530612	64.66680272108843	69	127
64.38816326530612	64.66680272108843	65	127
64.38816326530612	64.88739229024944	89	127
64.88739229024944	64.9918820861678	62	127
64.88739229024944	65.38662131519274	69	127
64.88739229024944	65.38662131519274	65	127
64.88739229024944	65.60721088435375	89	127
65.60721088435375	66.65210884353742	91	127
65.75814058956917	65.96709750566893	65	127
65.75814058956917	65.86263038548753	58	127
65.75814058956917	65.96709750566893	74	127
66.1877097505669	66.40829931972789	65	127
66.1877097505669	66.40829931972789	74	127
66.1877097505669	66.29219954648526	58	127
66.65210884353742	67.70861678004535	84	127
67.04684807256236	67.162947845805	60	127
67.04684807256236	67.47639455782313	67	127
67.04684807256236	67.47639455782313	64	127
67.47639455782313	67.99886621315193	67	127
67.47639455782313	67.60410430839002	60	127
67.47639455782313	67.99886621315193	70	127
67.70861678004535	67.81310657596372	86	127
67.81310657596372	67.99886621315193	88	127
67.99886621315193	68.23106575963719	65	127
67.99886621315193	68.12657596371882	53	127
67.99886621315193	68.23106575963719	69	127
67.99886621315193	68.4168253968254	89	127
68.86961451247166	69.0785941043084	60	127
68.86961451247166	69.0785941043084	52	127
69.0785941043084	69.31079365079366	64	127
69.0785941043084	69.31079365079366	60	127
69.31079365079366	69.70553287981859	67	127
69.31079365079366	69.70553287981859	64	127
69.70553287981859	69.84485260770975	67	127
69.70553287981859	69.84485260770975	64	127
70.06544217687075	70.27442176870748	67	127
70.06544217687075	70.27442176870748	64	127
70.49501133786848	70.57628117913832	68	127
70.49501133786848	70.57628117913832	65	127
70.49501133786848	70.68077097505669	84	127
70.57628117913832	71.70244897959184	64	127
70.57628117913832	71.70244897959184	67	127
70.68077097505669	70.90133786848072	72	127
70.90133786848072	71.33092970521542	36	127
70.90133786848072	71.11034013605442	84	127
71.11034013605442	71.33092970521542	72	127
71.33092970521542	71.70244897959184	48	127
71.33092970521542	71.51668934240362	84	127
71.51668934240362	71.70244897959184	72	127
71.70244897959184	71.8998185941043	84	127
71.70244897959184	71.79530612244898	70	127
71.70244897959184	71.79530612244898	67	127
71.79530612244898	72.9098866213152	68	127
71.79530612244898	72.9098866213152	65	127
71.8998185941043	72.09718820861679	73	127
72.09718820861679	72.48031746031747	36	127
72.09718820861679	72.28294784580498	84	127
72.28294784580498	72.48031746031747	73	127
72.48031746031747	72.9098866213152	48	127
72.48031746031747	72.70090702947846	84	127
72.70090702947846	72.9098866213152	73	127
72.9098866213152	73.10725623582766	84	127
72.9098866213152	72.99115646258504	70	127
72.9098866213152	72.99115646258504	67	127
72.99115646258504	74.09410430839003	69	127
72.99115646258504	74.09410430839003	66	127
73.10725623582766	73.2814058956916	74	127
73.2814058956916	73.66453514739229	36	127
73.2814058956916	73.46716553287982	84	127
73.46716553287982	73.66453514739229	74	127
73.66453514739229	74.09410430839003	48	127
73.66453514739229	73.88512471655329	84	127
73.88512471655329	74.09410430839003	74	127
74.09410430839003	80.37510204081633	48	127
74.09410430839003	74.30308390022675	84	127
74.09410430839003	74.87197278911565	70	127
74.09410430839003	74.87197278911565	67	127
74.30308390022675	74.50045351473923	75	127
74.50045351473923	74.67460317460318	84	127
74.67460317460318	74.87197278911565	76	127
74.87197278911565	75.08095238095238	84	127
74.87197278911565	75.30154195011337	69	127
74.87197278911565	75.30154195011337	72	127
75.08095238095238	75.30154195011337	77	127
75.30154195011337	75.49891156462586	84	127
75.30154195011337	75.6730612244898	63	127
75.30154195011337	79.96875283446713	72	127
75.49891156462586	75.6730612244898	78	127
75.6730612244898	75.83560090702947	84	127
75.6730612244898	76.05619047619048	64	127
75.83560090702947	76.05619047619048	79	127
76.05619047619048	76.46253968253968	65	127
76.05619047619048	76.25356009070295	84	127
76.25356009070295	76.46253968253968	80	127
76.46253968253968	76.86888888888889	66	127
76.46253968253968	76.68312925170068	84	127
76.68312925170068	76.86888888888889	81	127
76.86888888888889	77.21718820861678	67	127
76.86888888888889	77.03142857142858	84	127
77.03142857142858	77.21718820861678	82	127
77.21718820861678	77.63514739229025	65	127
77.21718820861678	77.43777777777778	84	127
77.43777777777778	77.63514739229025	83	127
77.63514739229025	78.05310657596372	64	127
77.63514739229025	77.85573696145124	84	127
77.85573696145124	78.05310657596372	82	127
78.05310657596372	78.25047619047619	84	127
78.05310657596372	78.44784580498866	65	127
78.25047619047619	78.44784580498866	81	127
78.44784580498866	78.87741496598639	72	127
78.44784580498866	78.66843537414967	84	127
78.66843537414967	78.87741496598639	80	127
78.87741496598639	79.30698412698413	71	127
78.87741496598639	79.08639455782313	84	127
79.08639455782313	79.30698412698413	79	127
79.30698412698413	79.39986394557823	84	127
79.30698412698413	79.5972335600907	70	127
79.39986394557823	79.5972335600907	78	127
79.5972335600907	79.75977324263039	84	127
79.5972335600907	79.96875283446713	69	127
79.75977324263039	79.96875283446713	77	127
79.96875283446713	80.16612244897959	84	127
79.96875283446713	80.37510204081633	71	127
79.96875283446713	80.37510204081633	68	127
80.16612244897959	80.37510204081633	76	127
80.37510204081633	81.18780045351474	70	127
80.37510204081633	80.5724716553288	84	127
80.37510204081633	81.18780045351474	36	127
80.37510204081633	81.18780045351474	67	127
80.5724716553288	80.76984126984127	75	127
80.76984126984127	80.978820861678	84	127
80.978820861678	81.18780045351474	75	127
81.18780045351474	81.59414965986394	48	127
81.18780045351474	81.42	84	127
81.18780045351474	81.59414965986394	69	127
81.18780045351474	81.59414965986394	66	127
81.42	81.59414965986394	74	127
81.59414965986394	82.40684807256235	65	127
81.59414965986394	81.81471655328798	84	127
81.59414965986394	82.40684807256235	68	127
81.59414965986394	82.40684807256235	36	127
81.81471655328798	81.9888888888889	73	127
81.9888888888889	82.19784580498866	84	127
82.19784580498866	82.40684807256235	73	127
82.40684807256235	82.51133786848072	72	127
82.40684807256235	82.8015873015873	67	127
82.40684807256235	82.8015873015873	64	127
82.40684807256235	82.8015873015873	48	127
82.62743764172336	82.70868480725623	76	127
82.8015873015873	82.90607709750567	79	127
83.0221768707483	83.10344671201814	84	127
83.14988662131519	83.35886621315193	74	127
83.14988662131519	83.56784580498866	65	127
83.14988662131519	83.56784580498866	67	127
83.14988662131519	83.56784580498866	43	127
83.35886621315193	83.56784580498866	83	127
83.56784580498866	83.98578231292517	55	127
83.56784580498866	83.67233560090703	72	127
83.56784580498866	83.98578231292517	64	127
83.56784580498866	83.98578231292517	48	127
83.7768253968254	83.88131519274377	76	127
83.98578231292517	84.09027210884354	79	127
84.1831746031746	84.21798185941043	84	127
84.3108843537415	84.7172335600907	67	127
84.3108843537415	84.7172335600907	43	127
84.3108843537415	84.50825396825397	74	127
84.3108843537415	84.7172335600907	65	127
84.50825396825397	84.7172335600907	83	127
84.7172335600907	84.89138321995465	55	127
84.7172335600907	84.89138321995465	48	127
84.7172335600907	85.05392290249434	84	127
84.7172335600907	85.05392290249434	64	127
84.89138321995465	84.97265306122449	59	127
84.89138321995465	84.97265306122449	47	127
85.05392290249434	85.1584126984127	60	127
85.05392290249434	85.1584126984127	48	127
85.2861224489796	85.39061224489797	46	127
85.2861224489796	85.39061224489797	58	127
85.48349206349206	85.68086167800453	57	127
85.48349206349206	85.68086167800453	45	127
85.68086167800453	85.87820861678004	60	127
85.68086167800453	85.87820861678004	48	127
85.87820861678004	86.24975056689343	65	127
85.87820861678004	86.24975056689343	53	127
86.24975056689343	86.47034013605442	53	127
86.24975056689343	86.47034013605442	41	127
86.67931972789115	86.89988662131519	53	127
86.67931972789115	86.89988662131519	41	127
87.12049886621315	87.34108843537415	77	127
87.12049886621315	87.22498866213152	43	127
87.22498866213152	88.32793650793651	41	127
87.34108843537415	87.55006802721088	65	127
87.55006802721088	87.77063492063492	77	127
87.55006802721088	87.87514739229024	81	127
87.55006802721088	87.87514739229024	69	127
87.77063492063492	87.96802721088436	65	127
87.87514739229024	87.96802721088436	72	127
87.87514739229024	87.96802721088436	84	127
87.96802721088436	88.1537641723356	77	127
87.96802721088436	88.32793650793651	87	127
87.96802721088436	88.32793650793651	75	127
88.1537641723356	88.32793650793651	65	127
88.32793650793651	88.43242630385488	43	127
88.32793650793651	88.53689342403628	77	127
88.43242630385488	89.48893424036281	41	127
88.53689342403628	88.72267573696145	65	127
88.72267573696145	89.04773242630385	74	127
88.72267573696145	89.04773242630385	62	127
88.72267573696145	88.93165532879819	77	127
88.93165532879819	89.14063492063492	65	127
89.04773242630385	89.14063492063492	70	127
89.04773242630385	89.14063492063492	82	127
89.14063492063492	89.30315192743764	77	127
89.14063492063492	89.48893424036281	86	127
89.14063492063492	89.48893424036281	74	127
89.30315192743764	89.48893424036281	65	127
89.48893424036281	89.66308390022675	43	127
89.48893424036281	89.66308390022675	76	127
89.66308390022675	89.88367346938776	64	127
89.66308390022675	89.88367346938776	41	127
89.88367346938776	90.0926530612245	43	127
89.88367346938776	90.0926530612245	76	127
89.88367346938776	90.1971201814059	79	127
89.88367346938776	90.1971201814059	67	127
90.0926530612245	90.26680272108844	64	127
90.0926530612245	90.26680272108844	41	127
90.1971201814059	90.26680272108844	82	127
90.1971201814059	90.26680272108844	70	127
90.26680272108844	90.47578231292518	76	127
90.26680272108844	90.47578231292518	43	127
90.26680272108844	90.67315192743764	85	127
90.26680272108844	90.67315192743764	73	127
90.47578231292518	90.67315192743764	64	127
90.47578231292518	90.67315192743764	41	127
90.67315192743764	90.89374149659864	43	127
90.67315192743764	90.89374149659864	75	127
90.89374149659864	91.04467120181405	63	127
90.89374149659864	91.04467120181405	41	127
91.04467120181405	91.21882086167801	43	127
91.04467120181405	91.21882086167801	75	127
91.04467120181405	91.31170068027211	72	127
91.04467120181405	91.31170068027211	60	127
91.21882086167801	91.41619047619048	63	127
91.21882086167801	91.41619047619048	41	127
91.31170068027211	91.41619047619048	69	127
91.31170068027211	91.41619047619048	81	127
91.41619047619048	91.63678004535147	75	127
91.41619047619048	91.63678004535147	43	127
91.41619047619048	91.83412698412698	84	127
91.41619047619048	91.83412698412698	72	127
91.63678004535147	91.83412698412698	63	127
91.63678004535147	91.83412698412698	41	127
91.83412698412698	92.03151927437642	74	127
91.83412698412698	92.03151927437642	43	127
92.03151927437642	92.21725623582766	62	127
92.03151927437642	92.21725623582766	41	127
92.21725623582766	92.36820861678005	74	127
92.21725623582766	92.36820861678005	43	127
92.21725623582766	92.44947845804988	72	127
92.21725623582766	92.44947845804988	60	127
92.36820861678005	92.55396825396825	62	127
92.36820861678005	92.55396825396825	41	127
92.44947845804988	92.55396825396825	77	127
92.44947845804988	92.55396825396825	65	127
92.55396825396825	92.76294784580499	74	127
92.55396825396825	92.76294784580499	43	127
92.55396825396825	92.97192743764172	84	127
92.55396825396825	92.97192743764172	72	127
92.76294784580499	92.97192743764172	62	127
92.76294784580499	92.97192743764172	41	127
92.97192743764172	93.18090702947846	73	127
92.97192743764172	93.18090702947846	43	127
93.18090702947846	93.40149659863945	41	127
93.18090702947846	93.40149659863945	61	127
93.40149659863945	93.62206349206349	73	127
93.40149659863945	93.62206349206349	43	127
93.40149659863945	93.72655328798186	71	127
93.40149659863945	93.72655328798186	59	127
93.62206349206349	93.84267573696145	61	127
93.62206349206349	93.84267573696145	41	127
93.72655328798186	93.84267573696145	80	127
93.72655328798186	93.84267573696145	68	127
93.84267573696145	94.04004535147392	73	127
93.84267573696145	94.04004535147392	43	127
93.84267573696145	94.26061224489796	83	127
93.84267573696145	94.26061224489796	71	127
94.04004535147392	94.26061224489796	61	127
94.04004535147392	94.26061224489796	41	127
94.26061224489796	94.46961451247165	40	127
94.26061224489796	94.46961451247165	60	127
94.26061224489796	94.70181405895691	84	127
94.26061224489796	94.70181405895691	72	127
94.46961451247165	94.70181405895691	64	127
94.46961451247165	94.70181405895691	43	127
94.70181405895691	95.0849433106576	67	127
94.70181405895691	95.0849433106576	82	127
94.70181405895691	95.0849433106576	70	127
94.70181405895691	94.80630385487528	36	127
94.91079365079365	94.98045351473922	40	127
95.0849433106576	95.51451247165532	65	127
95.0849433106576	95.20104308390023	41	127
95.0849433106576	95.31714285714285	81	127
95.0849433106576	95.31714285714285	69	127
95.3055328798186	95.41002267573697	45	127
95.41002267573697	95.51451247165532	81	127
95.41002267573697	95.51451247165532	69	127
95.51451247165532	95.75832199546485	62	127
95.51451247165532	95.65383219954649	46	127
95.51451247165532	95.97891156462585	79	127
95.51451247165532	95.97891156462585	67	127
95.75832199546485	95.97891156462585	58	127
95.75832199546485	95.87442176870748	43	127
95.97891156462585	96.09501133786848	48	127
95.97891156462585	96.40848072562358	77	127
95.97891156462585	96.40848072562358	65	127
95.97891156462585	96.40848072562358	57	127
96.19950113378685	96.30399092970522	46	127
96.40848072562358	96.51297052154194	48	127
96.40848072562358	96.84965986394558	76	127
96.40848072562358	96.84965986394558	64	127
96.40848072562358	96.84965986394558	55	127
96.62907029478458	96.7451700680272	36	127
96.84965986394558	96.95414965986394	77	127
96.84965986394558	97.07024943310658	65	127
96.84965986394558	97.07024943310658	57	127
96.84965986394558	97.07024943310658	41	127
97.07024943310658	97.1863492063492	81	127
97.29083900226757	97.39532879818594	82	127
97.49981859410431	97.61591836734694	84	127
97.7204081632653	97.77845804988662	86	127
97.77845804988662	97.91777777777777	89	127
97.91777777777777	98.02226757369614	62	127
97.91777777777777	98.21963718820862	69	127
97.91777777777777	98.21963718820862	65	127
97.91777777777777	98.44022675736962	89	127
98.44022675736962	98.54471655328798	62	127
98.44022675736962	98.81174603174603	69	127
98.44022675736962	98.81174603174603	65	127
98.44022675736962	99.03233560090703	89	127
99.03233560090703	100.2049433106576	91	127
99.34580498866214	99.46190476190476	58	127
99.34580498866214	99.56639455782313	74	127
99.34580498866214	99.56639455782313	65	127
99.77537414965987	99.99596371882086	65	127
99.77537414965987	99.89147392290249	58	127
99.77537414965987	99.99596371882086	74	127
100.2049433106576	101.28467120181406	84	127
100.6461224489796	100.75061224489797	60	127
100.6461224489796	101.07569160997733	64	127
100.6461224489796	101.07569160997733	67	127
101.07569160997733	101.49365079365079	67	127
101.07569160997733	101.16857142857143	60	127
101.07569160997733	101.49365079365079	70	127
101.28467120181406	101.38916099773243	86	127
101.38916099773243	101.49365079365079	88	127
101.49365079365079	101.85356009070294	69	127
101.49365079365079	101.85356009070294	65	127
101.49365079365079	102.03931972789115	89	127
101.49365079365079	101.73746031746032	53	127
102.49210884353741	102.85201814058956	69	127
102.49210884353741	102.85201814058956	65	127
102.95650793650793	103.17709750566894	70	127
102.95650793650793	103.17709750566894	67	127
103.17709750566894	103.39768707482993	72	127
103.17709750566894	103.39768707482993	69	127
103.39768707482993	103.49056689342403	84	127
103.39768707482993	103.5950566893424	74	127
103.39768707482993	103.5950566893424	70	127
103.5950566893424	103.68793650793651	72	127
103.5950566893424	103.68793650793651	69	127
103.80403628117914	103.9085260770975	84	127
103.80403628117914	103.9085260770975	70	127
103.80403628117914	103.9085260770975	67	127
103.97818594104308	104.08267573696145	69	127
103.97818594104308	104.08267573696145	65	127
104.19877551020409	104.29165532879819	84	127
104.19877551020409	104.29165532879819	67	127
104.19877551020409	104.29165532879819	64	127
104.37292517006803	104.4774149659864	65	127
104.37292517006803	104.4774149659864	69	127
104.58190476190477	104.67478458049887	84	127
104.58190476190477	104.67478458049887	70	127
104.58190476190477	104.67478458049887	67	127
104.75605442176871	104.86054421768708	69	127
104.75605442176871	104.86054421768708	65	127
104.95342403628118	105.05791383219955	84	127
104.95342403628118	105.05791383219955	67	127
104.95342403628118	105.05791383219955	64	127
105.15079365079364	105.25528344671201	65	127
105.15079365079364	105.25528344671201	62	127
105.35977324263038	105.47587301587302	48	127
105.35977324263038	105.76612244897959	84	127
105.35977324263038	105.76612244897959	64	127
105.35977324263038	105.76612244897959	60	127
105.76612244897959	106.19569160997733	76	127
105.76612244897959	106.19569160997733	67	127
105.76612244897959	106.19569160997733	58	127
106.19569160997733	106.63687074829932	65	127
106.19569160997733	106.31179138321995	53	127
106.19569160997733	106.63687074829932	77	127
106.19569160997733	106.63687074829932	57	127
106.63687074829932	106.74136054421768	76	127
106.63687074829932	106.74136054421768	64	127
106.63687074829932	106.74136054421768	60	127
106.63687074829932	106.74136054421768	48	127
106.74136054421768	106.84585034013605	79	127
107.05482993197279	107.15931972789116	77	127
107.05482993197279	107.15931972789116	72	127
107.05482993197279	107.15931972789116	62	127
107.05482993197279	107.15931972789116	41	127
107.15931972789116	107.26380952380953	81	127
107.461179138322	107.56566893424036	74	127
107.461179138322	107.56566893424036	77	127
107.461179138322	107.56566893424036	67	127
107.461179138322	107.56566893424036	43	127
107.56566893424036	107.67015873015873	83	127
107.89074829931972	107.9952380952381	36	127
107.89074829931972	107.9952380952381	76	127
107.89074829931972	108.09972789115646	67	127
107.9952380952381	108.09972789115646	84	127
108.32031746031745	108.42480725623582	48	127
108.77310657596372	109.21428571428571	69	127
108.77310657596372	109.21428571428571	65	127
109.21428571428571	109.42326530612245	70	127
109.21428571428571	109.42326530612245	67	127
109.42326530612245	109.63224489795918	72	127
109.42326530612245	109.63224489795918	69	127
109.63224489795918	109.73673469387755	84	127
109.63224489795918	109.82961451247165	74	127
109.63224489795918	109.82961451247165	70	127
109.82961451247165	109.93410430839002	72	127
109.82961451247165	109.93410430839002	69	127
110.01537414965986	110.1314739229025	84	127
110.01537414965986	110.1314739229025	70	127
110.01537414965986	110.1314739229025	67	127
110.21274376417233	110.3172335600907	69	127
110.21274376417233	110.3172335600907	65	127
110.42172335600907	110.49138321995464	84	127
110.42172335600907	110.49138321995464	67	127
110.42172335600907	110.49138321995464	64	127
110.57265306122449	110.67714285714285	69	127
110.57265306122449	110.67714285714285	65	127
110.77002267573697	110.87451247165532	84	127
110.77002267573697	110.87451247165532	70	127
110.77002267573697	110.87451247165532	67	127
110.95578231292517	111.04866213151928	69	127
110.95578231292517	111.04866213151928	65	127
111.15315192743765	111.24603174603175	84	127
111.15315192743765	111.24603174603175	67	127
111.15315192743765	111.24603174603175	64	127
111.32730158730159	111.43179138321996	65	127
111.32730158730159	111.43179138321996	62	127
111.52467120181406	111.93102040816326	60	127
111.52467120181406	111.93102040816326	84	127
111.52467120181406	111.93102040816326	64	127
111.52467120181406	112.360589569161	48	127
111.93102040816326	112.360589569161	67	127
111.93102040816326	112.360589569161	58	127
111.93102040816326	112.360589569161	88	127
112.360589569161	112.7669387755102	89	127
112.360589569161	112.7669387755102	65	127
112.360589569161	112.7669387755102	57	127
112.360589569161	112.7669387755102	50	127
112.7669387755102	112.95269841269841	65	127
112.7669387755102	112.87142857142857	77	127
112.7669387755102	112.95269841269841	55	127
112.7669387755102	112.95269841269841	46	127
112.87142857142857	112.95269841269841	86	127
113.17328798185942	113.27777777777777	74	127
113.27777777777777	113.38226757369614	82	127
113.6144671201814	113.73056689342404	70	127
113.6144671201814	113.73056689342404	64	127
113.6144671201814	113.85827664399093	48	127
113.6144671201814	113.73056689342404	60	127
113.73056689342404	113.85827664399093	79	127
114.06725623582767	114.19496598639456	69	127
114.06725623582767	114.29945578231292	65	127
114.06725623582767	114.29945578231292	60	127
114.06725623582767	114.29945578231292	41	127
114.19496598639456	114.29945578231292	77	127
114.50843537414966	114.72902494331066	53	127
114.94961451247165	115.29791383219954	65	127
114.94961451247165	115.29791383219954	69	127
115.37918367346938	115.62299319727892	70	127
115.37918367346938	115.62299319727892	67	127
115.62299319727892	115.84358276643991	72	127
115.62299319727892	115.84358276643991	69	127
115.84358276643991	115.94807256235828	84	127
115.84358276643991	116.0641723356009	74	127
115.84358276643991	116.0641723356009	70	127
116.0641723356009	116.12222222222222	69	127
116.0641723356009	116.12222222222222	72	127
116.20349206349206	116.29637188208616	84	127
116.20349206349206	116.29637188208616	70	127
116.20349206349206	116.29637188208616	67	127
116.4124716553288	116.49374149659864	69	127
116.4124716553288	116.49374149659864	65	127
116.59823129251701	116.67950113378684	84	127
116.59823129251701	116.67950113378684	67	127
116.59823129251701	116.67950113378684	64	127
116.77238095238096	116.87687074829932	69	127
116.77238095238096	116.87687074829932	65	127
116.9813605442177	117.08585034013605	84	127
116.9813605442177	117.08585034013605	70	127
116.9813605442177	117.08585034013605	67	127
117.19034013605442	117.30643990929705	69	127
117.19034013605442	117.30643990929705	65	127
117.41092970521542	117.46897959183673	84	127
117.41092970521542	117.46897959183673	67	127
117.41092970521542	117.46897959183673	64	127
117.49219954648527	117.59668934240362	65	127
117.49219954648527	117.59668934240362	62	127
117.71278911564626	117.80566893424036	48	127
117.71278911564626	118.11913832199546	84	127
117.71278911564626	118.11913832199546	64	127
117.71278911564626	118.11913832199546	60	127
118.11913832199546	118.53709750566894	76	127
118.11913832199546	118.53709750566894	67	127
118.11913832199546	118.53709750566894	58	127
118.53709750566894	118.64158730158731	53	127
118.53709750566894	118.9550566893424	77	127
118.53709750566894	118.9550566893424	65	127
118.53709750566894	118.9550566893424	57	127
118.9550566893424	119.07115646258504	76	127
118.9550566893424	119.07115646258504	64	127
118.9550566893424	119.07115646258504	60	127
118.9550566893424	119.07115646258504	48	127
119.07115646258504	119.1756462585034	79	127
119.3962358276644	119.51233560090704	62	127
119.3962358276644	119.51233560090704	77	127
119.3962358276644	119.51233560090704	41	127
119.3962358276644	119.51233560090704	72	127
119.51233560090704	119.61682539682539	81	127
119.82580498866213	119.95351473922902	74	127
119.82580498866213	119.95351473922902	77	127
119.82580498866213	119.95351473922902	67	127
119.82580498866213	119.95351473922902	43	127
119.95351473922902	120.05800453514739	83	127
120.26698412698413	120.3714739229025	76	127
120.26698412698413	120.3714739229025	36	127
120.26698412698413	120.48757369614512	67	127
120.3714739229025	120.48757369614512	84	127
120.6849433106576	120.9055328798186	48	127
121.26544217687075	121.70662131519275	65	127
121.26544217687075	121.70662131519275	69	127
121.70662131519275	121.91560090702947	70	127
121.70662131519275	121.91560090702947	67	127
121.91560090702947	122.13619047619048	72	127
121.91560090702947	122.13619047619048	69	127
122.13619047619048	122.20585034013605	84	127
122.13619047619048	122.29873015873015	74	127
122.13619047619048	122.29873015873015	70	127
122.29873015873015	122.39160997732426	72	127
122.29873015873015	122.39160997732426	69	127
122.50770975056689	122.61219954648526	84	127
122.50770975056689	122.61219954648526	70	127
122.50770975056689	122.61219954648526	67	127
122.6934693877551	122.7863492063492	69	127
122.6934693877551	122.7863492063492	65	127
122.90244897959184	122.98371882086168	84	127
122.90244897959184	122.98371882086168	67	127
122.90244897959184	122.98371882086168	64	127
123.07659863945578	123.16947845804988	69	127
123.07659863945578	123.16947845804988	65	127
123.28557823129252	123.39006802721089	84	127
123.28557823129252	123.39006802721089	70	127
123.28557823129252	123.39006802721089	67	127
123.47133786848073	123.56421768707483	65	127
123.47133786848073	123.56421768707483	69	127
123.68031746031745	123.72675736961452	84	127
123.68031746031745	123.72675736961452	64	127
123.68031746031745	123.72675736961452	67	127
123.74997732426304	123.85446712018141	62	127
123.74997732426304	123.85446712018141	65	127
123.95895691609978	124.84131519274376	48	127
123.95895691609978	124.38852607709751	84	127
123.95895691609978	124.38852607709751	64	127
123.95895691609978	124.38852607709751	60	127
124.38852607709751	124.84131519274376	67	127
124.38852607709751	124.84131519274376	58	127
124.38852607709751	124.84131519274376	88	127
124.84131519274376	125.2708843537415	50	127
124.84131519274376	125.2708843537415	89	127
124.84131519274376	125.2708843537415	65	127
124.84131519274376	125.2708843537415	57	127
125.2708843537415	125.4914739229025	55	127
125.2708843537415	125.37537414965986	77	127
125.2708843537415	125.4914739229025	65	127
125.2708843537415	125.4914739229025	46	127
125.37537414965986	125.4914739229025	86	127
125.68884353741497	125.79333333333334	74	127
125.79333333333334	125.90943310657596	82	127
126.1184126984127	126.22290249433107	64	127
126.1184126984127	126.22290249433107	70	127
126.1184126984127	126.22290249433107	60	127
126.1184126984127	126.32739229024943	48	127
126.22290249433107	126.32739229024943	79	127
126.57120181405895	126.78018140589569	60	127
126.57120181405895	126.67569160997732	69	127
126.57120181405895	126.78018140589569	41	127
126.57120181405895	126.78018140589569	65	127
126.67569160997732	126.78018140589569	77	127
127.0007709750567	127.23297052154194	53	127
127.45356009070295	127.67414965986394	58	127
127.45356009070295	127.89473922902495	82	127
127.45356009070295	127.67414965986394	62	127
127.45356009070295	127.89473922902495	41	127
127.67414965986394	127.89473922902495	62	127
127.67414965986394	127.89473922902495	65	127
127.89473922902495	128.09208616780046	63	127
127.89473922902495	128.09208616780046	60	127
127.89473922902495	128.73065759637188	81	127
127.89473922902495	131.57510204081632	41	127
128.09208616780046	128.3126984126984	58	127
128.09208616780046	128.3126984126984	62	127
128.3126984126984	128.52167800453515	63	127
128.3126984126984	128.52167800453515	60	127
128.52167800453515	128.73065759637188	60	127
128.52167800453515	128.73065759637188	53	127
128.73065759637188	129.16022675736963	82	127
128.73065759637188	128.84675736961452	58	127
128.73065759637188	128.84675736961452	62	127
128.9512471655329	129.05573696145126	65	127
128.9512471655329	129.05573696145126	62	127
129.16022675736963	129.3691836734694	81	127
129.16022675736963	129.3691836734694	63	127
129.16022675736963	129.3691836734694	60	127
129.3691836734694	129.55496598639456	79	127
129.3691836734694	129.55496598639456	62	127
129.3691836734694	129.55496598639456	58	127
129.55496598639456	129.7755328798186	63	127
129.55496598639456	129.7755328798186	60	127
129.55496598639456	129.7755328798186	81	127
129.7755328798186	129.88002267573697	77	127
129.7755328798186	129.98451247165534	60	127
129.7755328798186	129.98451247165534	57	127
129.98451247165534	130.0774149659864	86	127
129.98451247165534	130.0774149659864	62	127
129.98451247165534	130.0774149659864	58	127
130.19351473922902	130.29800453514738	82	127
130.19351473922902	130.29800453514738	62	127
130.19351473922902	130.29800453514738	65	127
130.40249433106575	130.5766439909297	63	127
130.40249433106575	130.5766439909297	60	127
130.40249433106575	131.1687528344671	81	127
130.5766439909297	130.7624036281179	62	127
130.5766439909297	130.7624036281179	58	127
130.7624036281179	130.95977324263038	63	127
130.7624036281179	130.95977324263038	60	127
130.95977324263038	131.1687528344671	60	127
130.95977324263038	131.1687528344671	53	127
131.1687528344671	131.57510204081632	82	127
131.1687528344671	131.27324263038548	62	127
131.1687528344671	131.27324263038548	58	127
131.36612244897958	131.48222222222222	65	127
131.36612244897958	131.48222222222222	62	127
131.57510204081632	131.74925170068028	81	127
131.57510204081632	131.74925170068028	63	127
131.57510204081632	131.74925170068028	60	127
131.74925170068028	131.91179138321996	58	127
131.74925170068028	131.91179138321996	79	127
131.74925170068028	131.91179138321996	62	127
131.91179138321996	132.09755102040816	63	127
131.91179138321996	132.09755102040816	60	127
131.91179138321996	132.28328798185942	53	127
131.91179138321996	132.09755102040816	81	127
132.09755102040816	132.17879818594105	77	127
132.09755102040816	132.28328798185942	60	127
132.09755102040816	132.28328798185942	57	127
132.28328798185942	132.7128798185941	46	127
132.28328798185942	132.38777777777779	86	127
132.28328798185942	132.38777777777779	62	127
132.28328798185942	132.38777777777779	58	127
132.4922902494331	132.59678004535147	65	127
132.4922902494331	132.59678004535147	62	127
132.4922902494331	132.59678004535147	82	127
132.7128798185941	132.88702947845806	78	127
132.7128798185941	132.88702947845806	60	127
132.7128798185941	132.88702947845806	57	127
132.88702947845806	133.08439909297053	55	127
132.88702947845806	133.08439909297053	76	127
132.88702947845806	133.08439909297053	58	127
133.08439909297053	133.281768707483	60	127
133.08439909297053	133.281768707483	57	127
133.08439909297053	133.47913832199546	50	127
133.08439909297053	133.281768707483	78	127
133.281768707483	133.3746485260771	74	127
133.281768707483	133.47913832199546	57	127
133.281768707483	133.47913832199546	54	127
133.47913832199546	133.58362811791383	55	127
133.47913832199546	133.58362811791383	82	127
133.47913832199546	133.58362811791383	58	127
133.47913832199546	133.89709750566894	43	127
133.6881179138322	133.80421768707484	62	127
133.6881179138322	133.80421768707484	58	127
133.6881179138322	133.80421768707484	79	127
133.89709750566894	134.05963718820863	58	127
133.89709750566894	134.05963718820863	55	127
133.89709750566894	134.05963718820863	76	127
134.05963718820863	134.22215419501134	74	127
134.05963718820863	134.22215419501134	57	127
134.05963718820863	134.22215419501134	53	127
134.22215419501134	134.64013605442176	48	127
134.22215419501134	134.4427664399093	76	127
134.22215419501134	134.4427664399093	58	127
134.22215419501134	134.4427664399093	55	127
134.4427664399093	134.64013605442176	55	127
134.4427664399093	134.64013605442176	52	127
134.4427664399093	134.64013605442176	72	127
134.64013605442176	134.74462585034013	57	127
134.64013605442176	134.74462585034013	53	127
134.64013605442176	134.81428571428572	81	127
134.64013605442176	134.98843537414967	41	127
134.81428571428572	134.8839455782313	57	127
134.81428571428572	134.98843537414967	77	127
134.81428571428572	134.8839455782313	60	127
134.98843537414967	135.4180045351474	62	127
134.98843537414967	135.09290249433107	78	127
134.98843537414967	135.4180045351474	58	127
134.98843537414967	135.4180045351474	46	127
135.09290249433107	135.22063492063492	79	127
135.4180045351474	135.52249433106576	81	127
135.52249433106576	135.62698412698413	82	127
135.84757369614513	135.98689342403628	85	127
135.84757369614513	136.10299319727892	65	127
135.84757369614513	136.10299319727892	56	127
135.84757369614513	136.3584126984127	47	127
135.98689342403628	136.10299319727892	86	127
136.10299319727892	136.3584126984127	53	127
136.3584126984127	136.81120181405896	60	127
136.3584126984127	136.81120181405896	77	127
136.3584126984127	136.81120181405896	69	127
136.3584126984127	137.31043083900227	48	127
136.81120181405896	137.1130612244898	67	127
136.81120181405896	137.1130612244898	76	127
137.31043083900227	137.74	69	127
137.31043083900227	137.74	65	127
137.74	137.97219954648526	70	127
137.74	137.97219954648526	67	127
137.97219954648526	138.20439909297053	72	127
137.97219954648526	138.20439909297053	69	127
138.20439909297053	138.3088888888889	84	127
138.20439909297053	138.41337868480727	74	127
138.20439909297053	138.41337868480727	70	127
138.41337868480727	138.50625850340137	72	127
138.41337868480727	138.50625850340137	69	127
138.61074829931974	138.7268253968254	67	127
138.61074829931974	138.7268253968254	84	127
138.61074829931974	138.7268253968254	70	127
138.83133786848072	138.93582766439908	69	127
138.83133786848072	138.93582766439908	65	127
139.04031746031745	139.14480725623582	67	127
139.04031746031745	139.14480725623582	84	127
139.04031746031745	139.14480725623582	64	127
139.2492970521542	139.3421768707483	69	127
139.2492970521542	139.3421768707483	65	127
139.44666666666666	139.50471655328798	84	127
139.44666666666666	139.50471655328798	70	127
139.44666666666666	139.50471655328798	67	127
139.62081632653062	139.72530612244898	69	127
139.62081632653062	139.72530612244898	65	127
139.81818594104308	139.92267573696145	84	127
139.81818594104308	139.92267573696145	67	127
139.81818594104308	139.92267573696145	64	127
140.01555555555555	140.12004535147392	62	127
140.01555555555555	140.12004535147392	65	127
140.2245351473923	140.61927437641722	84	127
140.2245351473923	140.61927437641722	60	127
140.2245351473923	141.04884353741497	48	127
140.2245351473923	140.61927437641722	64	127
140.61927437641722	141.04884353741497	76	127
140.61927437641722	141.04884353741497	70	127
140.61927437641722	141.04884353741497	67	127
141.04884353741497	141.46680272108844	69	127
141.04884353741497	141.46680272108844	77	127
141.04884353741497	141.46680272108844	65	127
141.04884353741497	141.46680272108844	53	127
141.46680272108844	141.53643990929706	76	127
141.46680272108844	141.53643990929706	67	127
141.46680272108844	141.53643990929706	64	127
141.46680272108844	141.64095238095237	60	127
141.53643990929706	141.64095238095237	79	127
141.86154195011338	142.07052154195011	53	127
141.86154195011338	141.96603174603175	77	127
141.86154195011338	141.96603174603175	62	127
141.86154195011338	141.96603174603175	60	127
141.96603174603175	142.07052154195011	81	127
142.29111111111112	142.3956009070295	77	127
142.29111111111112	142.3956009070295	67	127
142.29111111111112	142.3956009070295	74	127
142.29111111111112	142.50009070294786	55	127
142.3956009070295	142.50009070294786	83	127
142.7322902494331	142.94126984126984	48	127
142.7322902494331	142.83678004535147	76	127
142.7322902494331	142.83678004535147	67	127
142.83678004535147	142.94126984126984	84	127
143.15024943310658	143.26634920634922	60	127
143.57979591836735	144.00938775510204	81	127
143.57979591836735	144.00938775510204	65	127
144.00938775510204	144.22997732426305	82	127
144.00938775510204	144.22997732426305	67	127
144.22997732426305	144.43895691609978	84	127
144.22997732426305	144.43895691609978	69	127
144.43895691609978	144.6131065759637	86	127
144.43895691609978	144.48539682539683	72	127
144.43895691609978	144.6131065759637	70	127
144.6131065759637	144.71759637188208	84	127
144.6131065759637	144.71759637188208	69	127
144.82208616780045	144.92657596371882	82	127
144.82208616780045	144.92657596371882	72	127
144.82208616780045	144.92657596371882	67	127
145.0310657596372	145.13555555555556	81	127
145.0310657596372	145.13555555555556	65	127
145.21680272108844	145.32131519274375	79	127
145.21680272108844	145.32131519274375	72	127
145.21680272108844	145.32131519274375	64	127
145.41419501133788	145.51868480725625	81	127
145.41419501133788	145.51868480725625	65	127
145.5883446712018	145.6812244897959	82	127
145.5883446712018	145.6812244897959	72	127
145.5883446712018	145.6812244897959	67	127
145.78571428571428	145.89020408163265	81	127
145.78571428571428	145.89020408163265	65	127
145.99469387755101	146.09918367346938	79	127
145.99469387755101	146.09918367346938	72	127
145.99469387755101	146.09918367346938	64	127
146.20367346938775	146.30816326530612	77	127
146.20367346938775	146.30816326530612	62	127
146.4126530612245	146.51714285714286	76	127
146.4126530612245	146.51714285714286	60	127
146.4126530612245	146.84222222222223	72	127
146.62163265306123	146.7261224489796	58	127
146.62163265306123	146.7261224489796	74	127
146.84222222222223	147.19052154195012	76	127
146.84222222222223	146.90024943310658	72	127
146.84222222222223	146.90024943310658	57	127
146.98154195011338	147.08603174603175	70	127
146.98154195011338	147.08603174603175	55	127
147.19052154195012	147.56204081632654	69	127
147.19052154195012	147.56204081632654	77	127
147.19052154195012	147.56204081632654	53	127
147.56204081632654	147.65492063492064	65	127
147.56204081632654	147.91034013605443	46	127
147.65492063492064	147.74780045351474	74	127
147.91034013605443	148.0264172335601	62	127
148.0264172335601	148.13090702947846	70	127
148.33990929705215	148.45600907029478	58	127
148.45600907029478	148.56049886621315	67	127
148.7694784580499	149.19904761904763	48	127
148.7694784580499	148.88557823129253	57	127
148.88557823129253	148.9900680272109	64	127
149.19904761904763	149.30351473922903	52	127
149.30351473922903	149.4196371882086	60	127
149.62861678004535	150.04657596371882	65	127
149.62861678004535	149.73310657596372	57	127
149.73310657596372	149.84920634920636	65	127
150.04657596371882	150.1510657596372	53	127
150.04657596371882	150.44131519274376	65	127
150.1510657596372	150.25555555555556	62	127
150.44131519274376	150.54580498866213	50	127
150.44131519274376	150.84766439909296	65	127
150.44131519274376	150.84766439909296	70	127
150.54580498866213	150.63868480725623	58	127
150.84766439909296	151.30043083900227	74	127
150.84766439909296	150.95215419501133	46	127
150.84766439909296	151.30043083900227	58	127
150.95215419501133	151.07986394557824	55	127
151.30043083900227	151.4049433106576	43	127
151.30043083900227	152.07832199546485	70	127
151.30043083900227	152.44984126984127	72	127
151.4049433106576	151.50943310657595	52	127
151.6835827664399	151.78807256235828	40	127
151.78807256235828	151.88095238095238	48	127
152.07832199546485	152.26408163265307	41	127
152.07832199546485	152.1595918367347	81	127
152.07832199546485	152.44984126984127	69	127
152.1595918367347	152.26408163265307	89	127
152.44984126984127	152.63560090702947	65	127
152.44984126984127	152.5311111111111	77	127
152.44984126984127	152.63560090702947	67	127
152.44984126984127	152.63560090702947	46	127
152.5311111111111	152.63560090702947	86	127
152.8445804988662	152.92585034013607	74	127
152.92585034013607	153.03034013605443	82	127
153.2277097505669	153.33219954648527	70	127
153.33219954648527	153.43668934240364	79	127
153.64566893424038	153.73854875283448	67	127
153.64566893424038	153.84303854875284	58	127
153.64566893424038	153.84303854875284	55	127
153.64566893424038	153.84303854875284	48	127
153.73854875283448	153.84303854875284	76	127
154.05201814058958	154.14489795918368	76	127
154.14489795918368	154.26097505668935	84	127
154.46995464852608	154.5744671201814	70	127
154.46995464852608	154.5744671201814	67	127
154.46995464852608	154.5744671201814	60	127
154.46995464852608	154.5744671201814	36	127
154.5744671201814	154.69056689342403	76	127
154.89954648526077	155.07369614512473	69	127
154.89954648526077	155.07369614512473	41	127
154.89954648526077	155.1781859410431	60	127
154.89954648526077	155.1781859410431	65	127
155.07369614512473	155.1781859410431	77	127
155.39877551020408	155.50326530612244	53	127
155.82834467120182	156.03732426303856	58	127
155.82834467120182	156.2578911564626	82	127
155.82834467120182	156.2578911564626	41	127
155.82834467120182	156.03732426303856	62	127
156.03732426303856	156.2578911564626	62	127
156.03732426303856	156.2578911564626	65	127
156.2578911564626	156.46689342403627	60	127
156.2578911564626	157.0822222222222	81	127
156.2578911564626	156.46689342403627	63	127
156.2578911564626	159.8570068027211	41	127
156.46689342403627	156.675873015873	62	127
156.46689342403627	156.675873015873	58	127
156.675873015873	156.86163265306124	60	127
156.675873015873	156.86163265306124	63	127
156.86163265306124	157.0822222222222	60	127
156.86163265306124	157.0822222222222	53	127
157.0822222222222	157.48857142857142	82	127
157.0822222222222	157.18671201814058	62	127
157.0822222222222	157.18671201814058	58	127
157.29120181405895	157.3840589569161	65	127
157.29120181405895	157.3840589569161	62	127
157.48857142857142	157.70916099773243	60	127
157.48857142857142	157.70916099773243	81	127
157.48857142857142	157.70916099773243	63	127
157.70916099773243	157.91814058956916	62	127
157.70916099773243	157.91814058956916	58	127
157.70916099773243	157.91814058956916	79	127
157.91814058956916	158.11551020408163	81	127
157.91814058956916	158.11551020408163	63	127
157.91814058956916	158.11551020408163	60	127
158.11551020408163	158.20839002267573	77	127
158.11551020408163	158.3128798185941	60	127
158.11551020408163	158.3128798185941	57	127
158.3128798185941	158.42897959183674	58	127
158.3128798185941	158.42897959183674	86	127
158.3128798185941	158.42897959183674	62	127
158.52185941043084	158.6263492063492	65	127
158.52185941043084	158.6263492063492	62	127
158.52185941043084	158.6263492063492	82	127
158.73083900226757	158.9398185941043	60	127
158.73083900226757	159.55514739229025	81	127
158.73083900226757	158.9398185941043	63	127
158.9398185941043	159.14879818594105	58	127
158.9398185941043	159.14879818594105	62	127
159.14879818594105	159.34616780045351	63	127
159.14879818594105	159.34616780045351	60	127
159.34616780045351	159.55514739229025	60	127
159.34616780045351	159.55514739229025	53	127
159.55514739229025	159.8570068027211	82	127
159.55514739229025	159.65963718820862	58	127
159.55514739229025	159.65963718820862	62	127
159.764126984127	159.8570068027211	65	127
159.764126984127	159.8570068027211	62	127
159.8570068027211	160.0079365079365	81	127
159.8570068027211	160.0079365079365	63	127
159.8570068027211	160.0079365079365	60	127
160.0079365079365	160.2285260770975	58	127
160.0079365079365	160.2285260770975	79	127
160.0079365079365	160.2285260770975	62	127
160.2285260770975	160.4142857142857	60	127
160.2285260770975	160.4142857142857	81	127
160.2285260770975	160.62326530612245	53	127
160.2285260770975	160.4142857142857	63	127
160.4142857142857	160.62326530612245	60	127
160.4142857142857	160.51877551020408	77	127
160.4142857142857	160.62326530612245	57	127
160.62326530612245	160.72775510204082	86	127
160.62326530612245	160.72775510204082	62	127
160.62326530612245	160.72775510204082	58	127
160.62326530612245	161.02961451247165	46	127
160.83224489795919	160.91351473922902	82	127
160.83224489795919	160.91351473922902	65	127
160.83224489795919	160.91351473922902	62	127
161.02961451247165	161.2037641723356	57	127
161.02961451247165	161.2037641723356	60	127
161.02961451247165	161.2037641723356	78	127
161.2037641723356	161.40113378684808	55	127
161.2037641723356	161.40113378684808	76	127
161.2037641723356	161.40113378684808	58	127
161.40113378684808	161.56367346938777	57	127
161.40113378684808	161.56367346938777	78	127
161.40113378684808	161.76104308390023	50	127
161.40113378684808	161.56367346938777	60	127
161.56367346938777	161.76104308390023	57	127
161.56367346938777	161.66816326530613	74	127
161.56367346938777	161.76104308390023	54	127
161.76104308390023	161.8655328798186	82	127
161.76104308390023	161.8655328798186	58	127
161.76104308390023	161.8655328798186	55	127
161.76104308390023	162.1209523809524	43	127
161.93519274376416	162.03968253968253	79	127
161.93519274376416	162.03968253968253	62	127
161.93519274376416	162.03968253968253	58	127
162.1209523809524	162.34151927437642	58	127
162.1209523809524	162.34151927437642	55	127
162.1209523809524	162.34151927437642	76	127
162.34151927437642	162.5273015873016	74	127
162.34151927437642	162.5273015873016	57	127
162.34151927437642	162.5273015873016	53	127
162.5273015873016	162.9336507936508	48	127
162.5273015873016	162.72467120181406	76	127
162.5273015873016	162.72467120181406	58	127
162.5273015873016	162.72467120181406	55	127
162.72467120181406	162.9336507936508	55	127
162.72467120181406	162.9336507936508	52	127
162.72467120181406	162.9336507936508	72	127
162.9336507936508	163.1542403628118	81	127
162.9336507936508	163.03814058956917	57	127
162.9336507936508	163.03814058956917	53	127
162.9336507936508	163.36319727891157	41	127
163.1542403628118	163.2587074829932	57	127
163.1542403628118	163.36319727891157	77	127
163.1542403628118	163.2587074829932	60	127
163.36319727891157	163.75795918367348	62	127
163.36319727891157	163.46768707482994	78	127
163.36319727891157	163.75795918367348	58	127
163.36319727891157	163.75795918367348	46	127
163.46768707482994	163.560589569161	79	127
163.75795918367348	163.86244897959185	81	127
163.86244897959185	163.96693877551022	82	127
164.17591836734695	164.28038548752835	85	127
164.17591836734695	164.39650793650793	65	127
164.17591836734695	164.39650793650793	56	127
164.17591836734695	164.6287074829932	47	127
164.28038548752835	164.39650793650793	86	127
164.39650793650793	164.6287074829932	53	127
164.6287074829932	165.08149659863946	60	127
164.6287074829932	165.08149659863946	77	127
164.6287074829932	165.08149659863946	69	127
164.6287074829932	165.5691156462585	48	127
165.08149659863946	165.44140589569162	67	127
165.08149659863946	165.44140589569162	76	127
165.5691156462585	166.0102947845805	69	127
165.5691156462585	166.0102947845805	65	127
166.0102947845805	166.2773015873016	70	127
166.0102947845805	166.2773015873016	67	127
166.2773015873016	166.49791383219954	72	127
166.2773015873016	166.49791383219954	69	127
166.49791383219954	166.6024036281179	84	127
166.49791383219954	166.70689342403628	74	127
166.49791383219954	166.70689342403628	70	127
166.70689342403628	166.81138321995465	72	127
166.70689342403628	166.81138321995465	69	127
166.91587301587302	167.00875283446712	70	127
166.91587301587302	167.00875283446712	84	127
166.91587301587302	167.00875283446712	67	127
167.11324263038549	167.21773242630385	65	127
167.11324263038549	167.21773242630385	69	127
167.32222222222222	167.4267120181406	64	127
167.32222222222222	167.4267120181406	67	127
167.32222222222222	167.4267120181406	84	127
167.53120181405896	167.63569160997733	69	127
167.53120181405896	167.63569160997733	65	127
167.72857142857143	167.82145124716553	84	127
167.72857142857143	167.82145124716553	70	127
167.72857142857143	167.82145124716553	67	127
167.89111111111112	167.98399092970521	69	127
167.89111111111112	167.98399092970521	65	127
168.08848072562358	168.19297052154195	84	127
168.08848072562358	168.19297052154195	67	127
168.08848072562358	168.19297052154195	64	127
168.26263038548754	168.3671201814059	62	127
168.26263038548754	168.3671201814059	65	127
168.4715873015873	168.85473922902494	84	127
168.4715873015873	168.85473922902494	60	127
168.4715873015873	169.2843083900227	48	127
168.4715873015873	168.85473922902494	64	127
168.85473922902494	169.2843083900227	76	127
168.85473922902494	169.2843083900227	70	127
168.85473922902494	169.2843083900227	67	127
169.2843083900227	169.73709750566894	69	127
169.2843083900227	169.73709750566894	77	127
169.2843083900227	169.73709750566894	65	127
169.2843083900227	169.73709750566894	53	127
169.73709750566894	169.8415873015873	76	127
169.73709750566894	169.8415873015873	67	127
169.73709750566894	169.8415873015873	64	127
169.73709750566894	169.94607709750568	60	127
169.8415873015873	169.94607709750568	79	127
170.16666666666666	170.27115646258503	60	127
170.16666666666666	170.27115646258503	77	127
170.16666666666666	170.27115646258503	62	127
170.16666666666666	170.3756462585034	53	127
170.27115646258503	170.3756462585034	81	127
170.5962358276644	170.6891156462585	74	127
170.5962358276644	170.6891156462585	77	127
170.5962358276644	170.6891156462585	67	127
170.5962358276644	170.79360544217687	55	127
170.6891156462585	170.79360544217687	83	127
171.01419501133788	171.13027210884354	67	127
171.01419501133788	171.13027210884354	76	127
171.01419501133788	171.2347619047619	48	127
171.13027210884354	171.2347619047619	84	127
171.4785941043084	171.58308390022677	60	127
171.8965306122449	172.31451247165532	81	127
171.8965306122449	172.31451247165532	65	127
172.31451247165532	172.53510204081633	67	127
172.31451247165532	172.53510204081633	82	127
172.53510204081633	172.7324716553288	84	127
172.53510204081633	172.7324716553288	69	127
172.7324716553288	172.83696145124716	72	127
172.7324716553288	172.96467120181407	86	127
172.7324716553288	172.96467120181407	70	127
172.96467120181407	173.06916099773244	84	127
172.96467120181407	173.06916099773244	69	127
173.1736507936508	173.2665306122449	82	127
173.1736507936508	173.2665306122449	72	127
173.1736507936508	173.2665306122449	67	127
173.359410430839	173.46390022675737	81	127
173.359410430839	173.46390022675737	65	127
173.56839002267574	173.6728798185941	79	127
173.56839002267574	173.6728798185941	72	127
173.56839002267574	173.6728798185941	64	127
173.77736961451248	173.8586394557823	81	127
173.77736961451248	173.8586394557823	65	127
173.96312925170068	174.06761904761905	67	127
173.96312925170068	174.06761904761905	82	127
173.96312925170068	174.06761904761905	72	127
174.17210884353742	174.28820861678005	65	127
174.17210884353742	174.28820861678005	81	127
174.38108843537415	174.47396825396825	64	127
174.38108843537415	174.47396825396825	72	127
174.38108843537415	174.47396825396825	79	127
174.56684807256235	174.682947845805	77	127
174.56684807256235	174.682947845805	62	127
174.78743764172336	174.88031746031746	60	127
174.78743764172336	174.88031746031746	76	127
174.78743764172336	175.10090702947846	72	127
174.9267573696145	174.9964172335601	58	127
174.9267573696145	174.9964172335601	74	127
175.10090702947846	175.1821768707483	72	127
175.10090702947846	175.1821768707483	57	127
175.10090702947846	175.46081632653062	76	127
175.28666666666666	175.39115646258503	55	127
175.28666666666666	175.39115646258503	70	127
175.46081632653062	175.86716553287982	77	127
175.46081632653062	175.86716553287982	69	127
175.46081632653062	175.86716553287982	53	127
175.86716553287982	175.9716553287982	65	127
175.86716553287982	176.27351473922903	46	127
175.9716553287982	176.07614512471656	74	127
176.27351473922903	176.3780045351474	62	127
176.3780045351474	176.48249433106577	70	127
176.6914739229025	176.81918367346938	58	127
176.81918367346938	176.92367346938775	67	127
177.1326530612245	177.20231292517008	57	127
177.1326530612245	177.5041723356009	48	127
177.20231292517008	177.29519274376418	64	127
177.5041723356009	177.60866213151928	52	127
177.60866213151928	177.71315192743765	60	127
177.9221315192744	178.3284807256236	65	127
177.9221315192744	178.02662131519276	57	127
178.02662131519276	178.14272108843537	65	127
178.3284807256236	178.43297052154196	53	127
178.3284807256236	178.7580498866213	65	127
178.43297052154196	178.54907029478457	62	127
178.7580498866213	179.18761904761905	65	127
178.7580498866213	179.18761904761905	70	127
178.7580498866213	178.86253968253968	50	127
178.86253968253968	178.96702947845804	58	127
179.18761904761905	179.29210884353742	46	127
179.18761904761905	179.61716553287982	74	127
179.18761904761905	179.61716553287982	58	127
179.29210884353742	179.3965986394558	55	127
179.61716553287982	180.85945578231292	72	127
179.61716553287982	179.7216553287982	43	127
179.61716553287982	180.45310657596372	70	127
179.7216553287982	179.83777777777777	52	127
180.03514739229024	180.1396371882086	40	127
180.1396371882086	180.24412698412698	48	127
180.45310657596372	180.85945578231292	69	127
180.45310657596372	180.55759637188208	81	127
180.45310657596372	180.66208616780045	41	127
180.55759637188208	180.66208616780045	89	127
180.85945578231292	180.95233560090702	77	127
180.85945578231292	181.04521541950115	67	127
180.85945578231292	181.04521541950115	65	127
180.85945578231292	181.04521541950115	46	127
180.95233560090702	181.04521541950115	86	127
181.2541723356009	181.34707482993198	74	127
181.34707482993198	181.45156462585035	82	127
181.64893424036282	181.73020408163265	70	127
181.73020408163265	181.7766439909297	79	127
181.98562358276644	182.10172335600907	67	127
181.98562358276644	182.2178231292517	58	127
181.98562358276644	182.2178231292517	55	127
181.98562358276644	182.2178231292517	48	127
182.10172335600907	182.2178231292517	76	127
182.45002267573696	182.55451247165533	76	127
182.55451247165533	182.67061224489797	84	127
182.8795918367347	182.98408163265307	67	127
182.8795918367347	182.98408163265307	70	127
182.8795918367347	182.98408163265307	60	127
182.8795918367347	182.98408163265307	36	127
182.98408163265307	183.10018140589568	76	127
183.35560090702947	183.5413605442177	41	127
183.35560090702947	183.5413605442177	69	127
183.35560090702947	183.71551020408162	65	127
183.35560090702947	183.71551020408162	60	127
183.5413605442177	183.71551020408162	77	127
183.92448979591836	184.06378684807257	53	127
184.38888888888889	184.59786848072562	77	127
184.59786848072562	184.81845804988663	81	127
184.81845804988663	185.22480725623583	84	127
185.22480725623583	185.37573696145125	84	127
185.5963038548753	185.78208616780046	84	127
185.94462585034015	186.0491156462585	86	127
185.94462585034015	186.15360544217688	65	127
186.0491156462585	187.17528344671203	84	127
186.15360544217688	186.36258503401362	69	127
186.36258503401362	186.57154195011339	65	127
186.57154195011339	186.78054421768707	69	127
186.78054421768707	187.00113378684807	65	127
187.00113378684807	187.17528344671203	69	127
187.17528344671203	187.29138321995464	86	127
187.17528344671203	187.3726530612245	67	127
187.29138321995464	188.33628117913833	84	127
187.3726530612245	187.58163265306123	70	127
187.58163265306123	187.76739229024943	67	127
187.76739229024943	187.9647619047619	70	127
187.9647619047619	188.17374149659864	67	127
188.17374149659864	188.33628117913833	70	127
188.33628117913833	188.54526077097506	86	127
188.33628117913833	188.54526077097506	69	127
188.54526077097506	188.74263038548753	84	127
188.54526077097506	188.74263038548753	72	127
188.74263038548753	188.94	86	127
188.74263038548753	188.94	69	127
188.94	189.12573696145125	72	127
188.94	189.12573696145125	84	127
189.12573696145125	189.3231292517007	86	127
189.12573696145125	189.3231292517007	69	127
189.3231292517007	189.53208616780046	84	127
189.3231292517007	189.53208616780046	72	127
189.53208616780046	189.71786848072563	86	127
189.53208616780046	189.71786848072563	70	127
189.71786848072563	189.92684807256236	84	127
189.71786848072563	189.92684807256236	74	127
189.92684807256236	190.12421768707483	82	127
189.92684807256236	190.12421768707483	70	127
190.12421768707483	190.3215873015873	74	127
190.12421768707483	190.3215873015873	81	127
190.3215873015873	191.00657596371883	79	127
190.3215873015873	190.5073469387755	70	127
190.5073469387755	190.69310657596372	74	127
190.69310657596372	190.80920634920636	72	127
190.80920634920636	191.00657596371883	76	127
191.00657596371883	191.2271655328798	79	127
191.00657596371883	191.2271655328798	72	127
191.2271655328798	191.41292517006804	76	127
191.41292517006804	191.62190476190477	79	127
191.41292517006804	191.62190476190477	72	127
191.62190476190477	191.80766439909297	76	127
191.80766439909297	191.99342403628117	79	127
191.80766439909297	192.19079365079364	65	127
191.99342403628117	192.19079365079364	81	127
192.19079365079364	192.59714285714287	77	127
192.59714285714287	192.81773242630385	74	127
192.59714285714287	192.81773242630385	62	127
192.81773242630385	193.00349206349208	77	127
192.81773242630385	193.00349206349208	65	127
193.00349206349208	193.18925170068027	38	127
193.00349206349208	193.38662131519274	81	127
193.00349206349208	193.38662131519274	69	127
193.18925170068027	193.38662131519274	41	127
193.38662131519274	193.5839909297052	69	127
193.38662131519274	193.5839909297052	81	127
193.38662131519274	193.5839909297052	38	127
193.38662131519274	193.70009070294785	65	127
193.5839909297052	193.80458049886622	41	127
193.70009070294785	193.80458049886622	69	127
193.80458049886622	194.01356009070295	38	127
193.80458049886622	194.23414965986396	74	127
193.80458049886622	194.01356009070295	81	127
193.80458049886622	194.01356009070295	69	127
194.01356009070295	194.23414965986396	41	127
194.23414965986396	194.3386394557823	82	127
194.23414965986396	194.3386394557823	70	127
194.23414965986396	194.44312925170067	40	127
194.3386394557823	195.4415873015873	69	127
194.3386394557823	195.4415873015873	81	127
194.44312925170067	194.66371882086167	49	127
194.66371882086167	194.942358276644	67	127
194.66371882086167	194.83786848072563	40	127
194.83786848072563	195.0584580498866	49	127
194.942358276644	195.0584580498866	73	127
195.0584580498866	195.23260770975057	40	127
195.0584580498866	195.4415873015873	76	127
195.23260770975057	195.4415873015873	49	127
195.4415873015873	195.6621768707483	82	127
195.4415873015873	195.6621768707483	70	127
195.4415873015873	195.6621768707483	41	127
195.6621768707483	195.8479365079365	81	127
195.6621768707483	195.8479365079365	69	127
195.6621768707483	195.8479365079365	50	127
195.8479365079365	196.06852607709752	82	127
195.8479365079365	196.06852607709752	70	127
195.8479365079365	196.06852607709752	41	127
195.8479365079365	196.17301587301588	65	127
196.06852607709752	196.26589569160998	81	127
196.06852607709752	196.26589569160998	69	127
196.06852607709752	196.26589569160998	50	127
196.17301587301588	196.26589569160998	69	127
196.26589569160998	196.48648526077096	70	127
196.26589569160998	196.48648526077096	82	127
196.26589569160998	196.48648526077096	41	127
196.26589569160998	196.66063492063492	74	127
196.48648526077096	196.66063492063492	69	127
196.48648526077096	196.66063492063492	50	127
196.48648526077096	196.66063492063492	81	127
196.66063492063492	196.84639455782312	68	127
196.66063492063492	196.84639455782312	80	127
196.66063492063492	196.84639455782312	38	127
196.84639455782312	197.0437641723356	79	127
196.84639455782312	197.0437641723356	67	127
196.84639455782312	197.0437641723356	47	127
197.0437641723356	197.25274376417232	68	127
197.0437641723356	197.25274376417232	80	127
197.0437641723356	197.25274376417232	38	127
197.0437641723356	197.3572335600907	65	127
197.25274376417232	197.43850340136055	79	127
197.25274376417232	197.43850340136055	67	127
197.25274376417232	197.43850340136055	47	127
197.3572335600907	197.43850340136055	71	127
197.43850340136055	197.61265306122448	80	127
197.43850340136055	197.61265306122448	68	127
197.43850340136055	197.61265306122448	38	127
197.43850340136055	197.75197278911565	74	127
197.61265306122448	197.75197278911565	67	127
197.61265306122448	197.75197278911565	47	127
197.61265306122448	197.75197278911565	79	127
197.75197278911565	197.94934240362812	69	127
197.75197278911565	197.94934240362812	40	127
197.75197278911565	197.94934240362812	81	127
197.75197278911565	198.0538321995465	64	127
197.94934240362812	198.15832199546486	48	127
197.94934240362812	198.15832199546486	79	127
197.94934240362812	198.15832199546486	67	127
198.0538321995465	198.15832199546486	67	127
198.15832199546486	198.3673015873016	40	127
198.15832199546486	198.3673015873016	81	127
198.15832199546486	198.3673015873016	69	127
198.15832199546486	198.57628117913833	72	127
198.3673015873016	198.57628117913833	67	127
198.3673015873016	198.57628117913833	79	127
198.3673015873016	198.57628117913833	48	127
198.57628117913833	198.78526077097504	60	127
198.57628117913833	198.78526077097504	77	127
198.57628117913833	198.78526077097504	65	127
198.57628117913833	198.6807709750567	45	127
198.78526077097504	198.99424036281178	76	127
198.78526077097504	198.8897505668934	48	127
198.78526077097504	198.99424036281178	64	127
198.99424036281178	199.20321995464852	76	127
198.99424036281178	199.20321995464852	64	127
198.99424036281178	199.20321995464852	69	127
198.99424036281178	199.20321995464852	41	127
199.20321995464852	199.41219954648525	74	127
199.20321995464852	199.41219954648525	62	127
199.41219954648525	199.4586394557823	76	127
199.41219954648525	199.4586394557823	64	127
199.4586394557823	199.51668934240362	74	127
199.4586394557823	199.51668934240362	62	127
199.51668934240362	199.56312925170067	76	127
199.51668934240362	199.56312925170067	64	127
199.56312925170067	199.60956916099772	74	127
199.56312925170067	199.60956916099772	62	127
199.60956916099772	199.83015873015873	72	127
199.60956916099772	199.83015873015873	60	127
199.83015873015873	200.05074829931974	74	127
199.83015873015873	200.05074829931974	62	127
199.83015873015873	200.05074829931974	59	127
199.83015873015873	200.05074829931974	43	127
200.05074829931974	200.25972789115647	76	127
200.05074829931974	200.25972789115647	64	127
200.25972789115647	200.503537414966	36	127
200.25972789115647	200.503537414966	72	127
200.25972789115647	200.503537414966	60	127
200.25972789115647	200.503537414966	60	127
200.70090702947846	200.9098866213152	48	127
201.1304761904762	201.35106575963718	60	127
201.1304761904762	201.35106575963718	52	127
201.35106575963718	201.52521541950114	64	127
201.35106575963718	201.52521541950114	60	127
201.52521541950114	201.93156462585034	67	127
201.52521541950114	201.93156462585034	64	127
201.93156462585034	202.1057142857143	64	127
201.93156462585034	202.1057142857143	67	127
202.314693877551	202.40757369614514	64	127
202.314693877551	202.40757369614514	67	127
202.6281632653061	202.6978231292517	65	127
202.6281632653061	202.80231292517007	84	127
202.6281632653061	202.6978231292517	68	127
202.6978231292517	203.81238095238095	67	127
202.6978231292517	203.81238095238095	64	127
202.80231292517007	202.99968253968254	72	127
202.99968253968254	203.40603174603174	36	127
202.99968253968254	203.197052154195	84	127
203.197052154195	203.40603174603174	72	127
203.40603174603174	203.61501133786848	84	127
203.40603174603174	203.81238095238095	48	127
203.61501133786848	203.81238095238095	72	127
203.81238095238095	203.91687074829932	67	127
203.81238095238095	203.91687074829932	70	127
203.81238095238095	204.00975056689342	84	127
203.91687074829932	205.0778684807256	68	127
203.91687074829932	205.0778684807256	65	127
204.00975056689342	204.23034013605442	73	127
204.23034013605442	204.43931972789116	84	127
204.23034013605442	204.6482993197279	36	127
204.43931972789116	204.6482993197279	73	127
204.6482993197279	204.86888888888888	84	127
204.6482993197279	205.0778684807256	48	127
204.86888888888888	205.0778684807256	73	127
205.0778684807256	205.2752380952381	84	127
205.0778684807256	205.18235827664398	70	127
205.0778684807256	205.18235827664398	67	127
205.18235827664398	206.27369614512472	69	127
205.18235827664398	206.27369614512472	66	127
205.2752380952381	205.4609977324263	74	127
205.4609977324263	205.6815873015873	84	127
205.4609977324263	205.8673469387755	36	127
205.6815873015873	205.8673469387755	74	127
205.8673469387755	206.27369614512472	48	127
205.8673469387755	206.08793650793652	84	127
206.08793650793652	206.27369614512472	74	127
206.27369614512472	212.61274376417234	48	127
206.27369614512472	206.47106575963718	84	127
206.27369614512472	207.07478458049886	70	127
206.27369614512472	207.07478458049886	67	127
206.47106575963718	206.65682539682538	75	127
206.65682539682538	206.86580498866212	84	127
206.86580498866212	207.07478458049886	76	127
207.07478458049886	207.46952380952382	69	127
207.07478458049886	207.27215419501132	84	127
207.07478458049886	207.46952380952382	72	127
207.27215419501132	207.46952380952382	77	127
207.46952380952382	207.67850340136056	84	127
207.46952380952382	212.20639455782313	72	127
207.46952380952382	207.8526530612245	63	127
207.67850340136056	207.8526530612245	78	127
207.8526530612245	208.23578231292518	64	127
207.8526530612245	208.03841269841269	84	127
208.03841269841269	208.23578231292518	79	127
208.23578231292518	208.6421315192744	65	127
208.23578231292518	208.42154195011338	84	127
208.42154195011338	208.6421315192744	80	127
208.6421315192744	209.01365079365078	66	127
208.6421315192744	208.81628117913831	84	127
208.81628117913831	209.01365079365078	81	127
209.01365079365078	209.3851700680272	67	127
209.01365079365078	209.21102040816328	84	127
209.21102040816328	209.3851700680272	82	127
209.3851700680272	209.80312925170068	65	127
209.3851700680272	209.6057596371882	84	127
209.6057596371882	209.80312925170068	83	127
209.80312925170068	210.01210884353742	84	127
209.80312925170068	210.22108843537416	64	127
210.01210884353742	210.22108843537416	82	127
210.22108843537416	210.44167800453513	84	127
210.22108843537416	210.63904761904763	65	127
210.44167800453513	210.63904761904763	81	127
210.63904761904763	210.82480725623583	84	127
210.63904761904763	210.98734693877552	72	127
210.82480725623583	210.98734693877552	80	127
210.98734693877552	211.18471655328798	84	127
210.98734693877552	211.34725623582767	71	127
211.18471655328798	211.34725623582767	79	127
211.34725623582767	211.7768253968254	70	127
211.34725623582767	211.5562358276644	84	127
211.5562358276644	211.7768253968254	78	127
211.7768253968254	211.98580498866212	84	127
211.7768253968254	212.20639455782313	69	127
211.98580498866212	212.20639455782313	77	127
212.20639455782313	212.61274376417234	68	127
212.20639455782313	212.41537414965987	84	127
212.20639455782313	212.61274376417234	71	127
212.41537414965987	212.61274376417234	76	127
212.61274376417234	212.82172335600907	84	127
212.61274376417234	213.39061224489797	36	127
212.61274376417234	213.39061224489797	70	127
212.61274376417234	213.39061224489797	67	127
212.82172335600907	213.01909297052154	75	127
213.01909297052154	213.1932426303855	84	127
213.1932426303855	213.39061224489797	75	127
213.39061224489797	213.58798185941043	84	127
213.39061224489797	213.7853514739229	69	127
213.39061224489797	213.7853514739229	66	127
213.39061224489797	213.7853514739229	48	127
213.58798185941043	213.7853514739229	74	127
213.7853514739229	214.60965986394558	65	127
213.7853514739229	213.99433106575964	84	127
213.7853514739229	214.60965986394558	68	127
213.7853514739229	214.60965986394558	36	127
213.99433106575964	214.20331065759638	73	127
214.20331065759638	214.43551020408162	84	127
214.43551020408162	214.60965986394558	73	127
214.60965986394558	214.981179138322	48	127
214.60965986394558	214.6909297052154	72	127
214.60965986394558	214.981179138322	67	127
214.60965986394558	214.981179138322	64	127
214.79541950113378	214.89990929705215	76	127
214.981179138322	215.08566893424037	79	127
215.20176870748298	215.2365986394558	84	127
215.31786848072562	215.53845804988663	74	127
215.31786848072562	215.74743764172337	65	127
215.31786848072562	215.74743764172337	67	127
215.31786848072562	215.74743764172337	43	127
215.53845804988663	215.74743764172337	83	127
215.74743764172337	216.17700680272108	55	127
215.74743764172337	215.85192743764173	72	127
215.74743764172337	216.17700680272108	64	127
215.74743764172337	216.17700680272108	48	127
215.96802721088434	216.0725170068027	76	127
216.17700680272108	216.28149659863945	79	127
216.38598639455782	216.44403628117914	84	127
216.47886621315192	216.8968253968254	67	127
216.47886621315192	216.8968253968254	43	127
216.47886621315192	216.67623582766439	74	127
216.47886621315192	216.8968253968254	65	127
216.67623582766439	216.8968253968254	83	127
216.8968253968254	217.08258503401362	55	127
216.8968253968254	217.08258503401362	48	127
216.8968253968254	217.3031746031746	84	127
216.8968253968254	217.3031746031746	64	127
217.08258503401362	217.19868480725623	59	127
217.08258503401362	217.19868480725623	47	127
217.3031746031746	217.40766439909297	60	127
217.3031746031746	217.40766439909297	48	127
217.51215419501133	217.6166439909297	46	127
217.51215419501133	217.6166439909297	58	127
217.73274376417234	217.91850340136054	57	127
217.73274376417234	217.91850340136054	45	127
217.91850340136054	218.10426303854877	60	127
217.91850340136054	218.10426303854877	48	127
218.10426303854877	218.4990022675737	65	127
218.10426303854877	218.4990022675737	53	127
218.4990022675737	218.7195918367347	53	127
218.4990022675737	218.7195918367347	41	127
218.92857142857142	219.14916099773242	41	127
218.92857142857142	219.14916099773242	53	127
219.32331065759638	219.42780045351475	43	127
219.32331065759638	219.53229024943312	77	127
219.42780045351475	220.62362811791382	41	127
219.53229024943312	219.7528798185941	65	127
219.7528798185941	219.9734693877551	77	127
219.7528798185941	220.07795918367347	81	127
219.7528798185941	220.07795918367347	69	127
219.9734693877551	220.18244897959184	65	127
220.07795918367347	220.18244897959184	72	127
220.07795918367347	220.18244897959184	84	127
220.18244897959184	220.62362811791382	87	127
220.18244897959184	220.62362811791382	75	127
220.18244897959184	220.40303854875285	77	127
220.40303854875285	220.62362811791382	65	127
220.62362811791382	220.7281179138322	43	127
220.62362811791382	220.84421768707483	77	127
220.7281179138322	221.7962358276644	41	127
220.84421768707483	221.05319727891157	65	127
221.05319727891157	221.33183673469387	62	127
221.05319727891157	221.21573696145126	77	127
221.05319727891157	221.33183673469387	74	127
221.21573696145126	221.43632653061223	65	127
221.33183673469387	221.43632653061223	82	127
221.33183673469387	221.43632653061223	70	127
221.43632653061223	221.7962358276644	86	127
221.43632653061223	221.58725623582765	77	127
221.43632653061223	221.7962358276644	74	127
221.58725623582765	221.7962358276644	65	127
221.7962358276644	222.00521541950113	43	127
221.7962358276644	222.00521541950113	76	127
222.00521541950113	222.21419501133786	64	127
222.00521541950113	222.21419501133786	41	127
222.21419501133786	222.53927437641724	67	127
222.21419501133786	222.43478458049887	76	127
222.21419501133786	222.43478458049887	43	127
222.21419501133786	222.53927437641724	79	127
222.43478458049887	222.65537414965988	64	127
222.43478458049887	222.65537414965988	41	127
222.53927437641724	222.65537414965988	70	127
222.53927437641724	222.65537414965988	82	127
222.65537414965988	223.015283446712	73	127
222.65537414965988	222.79469387755103	76	127
222.65537414965988	222.79469387755103	43	127
222.65537414965988	223.015283446712	85	127
222.79469387755103	223.015283446712	64	127
222.79469387755103	223.015283446712	41	127
223.015283446712	223.235873015873	43	127
223.015283446712	223.235873015873	75	127
223.235873015873	223.43324263038548	63	127
223.235873015873	223.43324263038548	41	127
223.43324263038548	223.63061224489795	43	127
223.43324263038548	223.63061224489795	75	127
223.43324263038548	223.7118820861678	72	127
223.43324263038548	223.7118820861678	60	127
223.63061224489795	223.81637188208617	63	127
223.63061224489795	223.81637188208617	41	127
223.7118820861678	223.81637188208617	81	127
223.7118820861678	223.81637188208617	69	127
223.81637188208617	224.03696145124715	75	127
223.81637188208617	224.03696145124715	43	127
223.81637188208617	224.23433106575965	84	127
223.81637188208617	224.23433106575965	72	127
224.03696145124715	224.23433106575965	41	127
224.03696145124715	224.23433106575965	63	127
224.23433106575965	224.45492063492063	74	127
224.23433106575965	224.45492063492063	43	127
224.45492063492063	224.64068027210885	62	127
224.45492063492063	224.64068027210885	41	127
224.64068027210885	224.81482993197278	43	127
224.64068027210885	224.81482993197278	74	127
224.64068027210885	224.91931972789115	72	127
224.64068027210885	224.91931972789115	60	127
224.81482993197278	225.02380952380952	62	127
224.81482993197278	225.02380952380952	41	127
224.91931972789115	225.02380952380952	65	127
224.91931972789115	225.02380952380952	77	127
225.02380952380952	225.24439909297053	74	127
225.02380952380952	225.24439909297053	43	127
225.02380952380952	225.45337868480726	84	127
225.02380952380952	225.45337868480726	72	127
225.24439909297053	225.45337868480726	62	127
225.24439909297053	225.45337868480726	41	127
225.45337868480726	225.70879818594105	73	127
225.45337868480726	225.70879818594105	43	127
225.70879818594105	225.9758276643991	61	127
225.70879818594105	225.9758276643991	41	127
225.9758276643991	226.1848072562358	73	127
225.9758276643991	226.1848072562358	43	127
225.9758276643991	226.30090702947845	71	127
225.9758276643991	226.30090702947845	59	127
226.1848072562358	226.40539682539682	61	127
226.1848072562358	226.40539682539682	41	127
226.30090702947845	226.40539682539682	80	127
226.30090702947845	226.40539682539682	68	127
226.40539682539682	226.61437641723356	73	127
226.40539682539682	226.61437641723356	43	127
226.40539682539682	226.83496598639456	83	127
226.40539682539682	226.83496598639456	71	127
226.61437641723356	226.83496598639456	61	127
226.61437641723356	226.83496598639456	41	127
226.83496598639456	227.0439455782313	60	127
226.83496598639456	227.0439455782313	40	127
226.83496598639456	227.27614512471655	84	127
226.83496598639456	227.27614512471655	72	127
227.0439455782313	227.27614512471655	43	127
227.0439455782313	227.27614512471655	64	127
227.27614512471655	227.38063492063492	36	127
227.27614512471655	227.7057142857143	82	127
227.27614512471655	227.7057142857143	70	127
227.27614512471655	227.7057142857143	67	127
227.4851247165533	227.58961451247166	40	127
227.7057142857143	228.135283446712	65	127
227.7057142857143	227.81020408163266	41	127
227.7057142857143	228.0191836734694	81	127
227.7057142857143	228.0191836734694	69	127
227.91469387755103	228.0191836734694	45	127
228.0191836734694	228.135283446712	81	127
228.0191836734694	228.135283446712	69	127
228.135283446712	228.53002267573697	79	127
228.135283446712	228.23977324263038	46	127
228.135283446712	228.34426303854875	62	127
228.135283446712	228.53002267573697	67	127
228.34426303854875	228.44875283446711	43	127
228.34426303854875	228.53002267573697	58	127
228.53002267573697	228.94798185941042	57	127
228.53002267573697	228.64612244897958	48	127
228.53002267573697	228.94798185941042	77	127
228.53002267573697	228.94798185941042	65	127
228.75061224489795	228.85510204081632	46	127
228.94798185941042	229.37755102040816	64	127
228.94798185941042	229.06408163265306	48	127
228.94798185941042	229.37755102040816	76	127
228.94798185941042	229.37755102040816	55	127
229.16857142857143	229.2730612244898	36	127
229.37755102040816	229.48204081632653	77	127
229.37755102040816	229.59814058956917	65	127
229.37755102040816	229.59814058956917	57	127
229.37755102040816	229.59814058956917	41	127
229.59814058956917	229.70263038548754	81	127
229.8071201814059	229.91160997732428	82	127
230.02770975056688	230.13219954648525	84	127
230.19024943310657	230.20185941043084	88	127
230.20185941043084	230.2134693877551	89	127
230.2134693877551	230.31795918367348	62	127
230.2134693877551	230.42244897959185	69	127
230.2134693877551	230.42244897959185	65	127
230.2134693877551	230.64303854875283	89	127
230.64303854875283	230.7475283446712	62	127
230.64303854875283	231.38607709750568	69	127
230.64303854875283	231.38607709750568	65	127
230.64303854875283	231.60666666666665	89	127
231.60666666666665	232.72122448979593	91	127
231.8156462585034	231.97818594104308	58	127
231.8156462585034	232.08267573696145	74	127
231.8156462585034	232.08267573696145	65	127
232.30326530612246	232.5122448979592	74	127
232.30326530612246	232.40775510204082	58	127
232.30326530612246	232.5122448979592	65	127
232.72122448979593	233.88222222222223	84	127
233.12757369614513	233.26689342403628	60	127
233.12757369614513	233.5803628117914	64	127
233.12757369614513	233.5803628117914	67	127
233.5803628117914	234.09120181405896	70	127
233.5803628117914	233.77773242630386	60	127
233.5803628117914	234.09120181405896	67	127
233.88222222222223	233.9867120181406	86	127
233.9867120181406	234.09120181405896	88	127
234.09120181405896	235.63532879818595	65	127
234.09120181405896	235.82108843537415	89	127
234.09120181405896	235.63532879818595	69	127
234.09120181405896	235.51922902494331	53	127
236.7150566893424	236.83115646258503	89	127
