# onset,offset,note,velocity
0.06888888888888889	2.205124716553288	57	127
0.06888888888888889	2.205124716553288	45	127
0.06888888888888889	2.205124716553288	57	127
2.205124716553288	2.6695238095238096	49	127
2.205124716553288	2.6695238095238096	61	127
2.205124716553288	2.6695238095238096	61	127
2.6927437641723357	3.157142857142857	64	127
2.6927437641723357	3.157142857142857	52	127
2.6927437641723357	3.157142857142857	64	127
3.157142857142857	3.5170521541950115	62	127
3.157142857142857	3.5170521541950115	62	127
3.157142857142857	3.5170521541950115	50	127
4.167210884353741	5.084399092970521	59	127
4.167210884353741	5.084399092970521	59	127
4.167210884353741	5.084399092970521	47	127
5.084399092970521	5.548775510204082	62	127
5.084399092970521	5.548775510204082	62	127
5.084399092970521	5.548775510204082	50	127
5.595215419501134	6.0364172335600905	66	127
5.595215419501134	6.0364172335600905	66	127
5.595215419501134	6.0364172335600905	54	127
6.0364172335600905	6.384716553287982	64	127
6.0364172335600905	6.384716553287982	64	127
6.0364172335600905	6.384716553287982	52	127
7.000045351473923	8.404852607709751	64	127
7.000045351473923	7.359954648526077	76	127
7.000045351473923	8.404852607709751	61	127
7.452834467120182	7.801133786848072	76	127
7.894013605442177	8.300340136054421	76	127
8.404852607709751	9.856099773242631	62	127
8.404852607709751	8.880861678004536	76	127
8.404852607709751	9.856099773242631	66	127
8.880861678004536	9.159501133786849	74	127
9.240770975056689	9.345238095238095	73	127
9.368480725623582	9.751609977324263	71	127
9.856099773242631	10.192789115646258	74	127
9.856099773242631	11.249274376417233	64	127
9.856099773242631	11.249274376417233	68	127
10.285668934240363	10.633968253968254	74	127
10.73845804988662	11.133197278911565	74	127
11.249274376417233	11.748526077097505	74	127
11.249274376417233	11.644036281179138	69	127
11.249274376417233	11.644036281179138	57	127
11.748526077097505	12.027165532879819	73	127
12.096825396825396	12.201315192743763	71	127
12.22453514739229	12.572834467120181	69	127
12.665714285714285	13.548072562358277	69	127
12.665714285714285	12.851473922902494	69	127
13.095283446712019	13.315873015873017	69	127
13.548072562358277	13.803492063492063	69	127
13.548072562358277	13.977641723356008	73	127
14.024081632653061	14.523310657596372	78	127
14.024081632653061	14.523310657596372	69	127
14.523310657596372	14.813560090702948	68	127
14.523310657596372	14.918049886621315	76	127
14.894829931972788	14.987709750566893	66	127
15.01092970521542	15.3940589569161	64	127
15.498548752834466	16.183537414965986	76	127
15.498548752834466	15.765578231292517	67	127
15.498548752834466	15.765578231292517	64	127
15.498548752834466	16.183537414965986	64	127
16.00938775510204	16.032607709750568	64	127
16.00938775510204	16.032607709750568	67	127
16.183537414965986	16.624716553287982	79	127
16.183537414965986	16.42734693877551	67	127
16.183537414965986	16.42734693877551	64	127
16.183537414965986	16.624716553287982	67	127
16.682766439909297	17.123945578231293	64	127
16.682766439909297	17.123945578231293	84	127
16.682766439909297	17.123945578231293	72	127
16.682766439909297	17.123945578231293	67	127
17.123945578231293	17.425804988662133	66	127
17.123945578231293	17.425804988662133	63	127
17.123945578231293	17.507074829931973	83	127
17.123945578231293	17.507074829931973	71	127
17.48385487528345	17.588344671201813	64	127
17.48385487528345	17.588344671201813	61	127
17.61156462585034	17.994693877551022	63	127
17.61156462585034	17.994693877551022	59	127
18.087573696145125	19.039591836734694	76	127
19.039591836734694	19.445918367346938	80	127
19.49238095238095	20.223809523809525	51	127
19.49238095238095	19.887097505668933	85	127
19.887097505668933	20.13092970521542	83	127
20.223809523809525	20.688208616780045	54	127
20.7346485260771	21.686666666666667	64	127
20.7346485260771	21.19904761904762	57	127
21.19904761904762	21.570566893424036	56	127
21.686666666666667	22.104603174603174	68	127
22.16267573696145	23.137913832199548	39	127
22.16267573696145	22.6502947845805	73	127
22.6502947845805	23.03342403628118	71	127
23.137913832199548	23.474603174603175	42	127
23.53265306122449	23.91578231292517	71	127
23.53265306122449	23.91578231292517	83	127
23.53265306122449	23.99705215419501	45	127
23.99705215419501	24.38018140589569	44	127
23.99705215419501	24.38018140589569	83	127
23.99705215419501	24.38018140589569	71	127
24.48467120181406	24.7865306122449	83	127
24.48467120181406	24.7865306122449	71	127
24.891020408163264	25.25092970521542	57	127
24.891020408163264	25.355419501133788	71	127
24.891020408163264	25.25092970521542	63	127
24.891020408163264	25.355419501133788	83	127
25.355419501133788	25.73854875283447	57	127
25.355419501133788	25.645668934240362	69	127
25.355419501133788	25.73854875283447	63	127
25.355419501133788	25.645668934240362	81	127
25.71532879818594	25.808208616780046	68	127
25.71532879818594	25.808208616780046	80	127
25.83142857142857	26.23777777777778	66	127
25.83142857142857	26.23777777777778	78	127
25.83142857142857	26.23777777777778	63	127
25.83142857142857	26.23777777777778	57	127
26.307437641723357	26.771836734693878	63	127
26.307437641723357	26.771836734693878	57	127
26.307437641723357	26.690566893424037	83	127
26.307437641723357	26.690566893424037	71	127
26.771836734693878	27.154965986394558	71	127
26.771836734693878	27.05047619047619	56	127
26.771836734693878	27.154965986394558	83	127
26.771836734693878	27.05047619047619	64	127
27.131746031746033	27.224625850340136	54	127
27.131746031746033	27.224625850340136	66	127
27.24784580498866	27.642585034013607	71	127
27.24784580498866	27.642585034013607	52	127
27.24784580498866	27.642585034013607	83	127
27.24784580498866	27.642585034013607	68	127
27.73546485260771	28.211473922902496	71	127
27.73546485260771	28.211473922902496	57	127
27.73546485260771	28.211473922902496	83	127
27.73546485260771	28.211473922902496	63	127
28.211473922902496	28.606213151927438	57	127
28.211473922902496	28.50172335600907	69	127
28.211473922902496	28.606213151927438	63	127
28.211473922902496	28.50172335600907	81	127
28.582993197278913	28.664263038548754	68	127
28.582993197278913	28.664263038548754	80	127
28.68748299319728	29.093832199546487	66	127
28.68748299319728	29.093832199546487	57	127
28.68748299319728	29.093832199546487	78	127
28.68748299319728	29.093832199546487	63	127
29.198321995464852	29.430521541950114	74	127
29.198321995464852	29.709160997732425	57	127
29.198321995464852	29.430521541950114	83	127
29.198321995464852	29.709160997732425	66	127
29.709160997732425	29.964580498866212	56	127
29.709160997732425	29.964580498866212	65	127
29.709160997732425	29.941360544217687	83	127
29.709160997732425	29.941360544217687	74	127
29.98780045351474	30.080680272108843	66	127
29.98780045351474	30.080680272108843	54	127
30.103900226757368	30.347709750566892	83	127
30.103900226757368	30.347709750566892	74	127
30.103900226757368	30.440589569161	68	127
30.103900226757368	30.440589569161	53	127
30.545079365079363	31.044308390022675	73	127
30.545079365079363	30.788888888888888	82	127
30.545079365079363	30.93981859410431	61	127
30.545079365079363	30.93981859410431	54	127
30.788888888888888	30.997868480725625	78	127
31.044308390022675	31.648027210884354	66	127
31.044308390022675	31.648027210884354	51	127
31.044308390022675	31.415827664399092	72	127
31.044308390022675	31.648027210884354	81	127
31.415827664399092	31.798956916099772	71	127
31.648027210884354	31.857006802721088	80	127
31.648027210884354	31.857006802721088	52	127
31.648027210884354	31.857006802721088	68	127
31.90344671201814	32.30979591836735	69	127
31.90344671201814	32.30979591836735	45	127
31.90344671201814	32.10081632653061	80	127
31.90344671201814	32.30979591836735	73	127
32.14725623582766	32.36784580498866	78	127
32.414263038548754	32.78578231292517	71	127
32.414263038548754	32.78578231292517	47	127
32.414263038548754	32.78578231292517	76	127
32.414263038548754	32.78578231292517	68	127
32.86707482993197	33.261814058956915	69	127
32.86707482993197	33.261814058956915	48	127
32.86707482993197	33.261814058956915	75	127
32.86707482993197	33.261814058956915	66	127
33.35469387755102	33.7378231292517	49	127
33.35469387755102	33.7378231292517	68	127
33.35469387755102	33.7378231292517	64	127
33.35469387755102	33.482403628117915	76	127
33.598503401360546	33.83070294784581	80	127
33.83070294784581	34.09773242630386	78	127
34.09773242630386	34.32993197278912	76	127
34.32993197278912	34.50408163265306	75	127
34.50408163265306	34.678231292517005	73	127
34.678231292517005	35.061360544217685	71	127
34.678231292517005	36.12947845804989	56	127
34.678231292517005	36.12947845804989	59	127
35.15424036281179	35.560589569160996	71	127
35.6534693877551	36.02498866213152	71	127
36.12947845804989	36.59385487528345	71	127
36.12947845804989	37.18598639455782	57	127
36.12947845804989	37.18598639455782	61	127
36.59385487528345	36.82607709750567	69	127
36.884126984126986	36.988616780045355	68	127
37.01183673469388	37.33691609977324	66	127
37.40657596371882	37.7897052154195	47	127
37.40657596371882	38.12637188208617	54	127
37.40657596371882	37.7897052154195	63	127
37.40657596371882	38.12637188208617	69	127
37.87095238095238	38.28893424036281	47	127
37.87095238095238	38.28893424036281	63	127
38.12637188208617	38.37018140589569	66	127
38.12637188208617	38.37018140589569	57	127
38.37018140589569	38.59079365079365	54	127
38.37018140589569	38.59079365079365	69	127
38.37018140589569	38.75331065759637	63	127
38.37018140589569	38.75331065759637	47	127
38.59079365079365	38.81138321995465	66	127
38.59079365079365	38.81138321995465	57	127
38.8578231292517	39.264149659863946	56	127
38.8578231292517	39.264149659863946	40	127
38.8578231292517	39.264149659863946	64	127
40.39034013605442	41.27269841269841	45	127
40.39034013605442	41.27269841269841	57	127
40.39034013605442	41.27269841269841	57	127
41.27269841269841	41.690657596371885	49	127
41.27269841269841	41.690657596371885	61	127
41.27269841269841	41.690657596371885	61	127
41.737097505668935	42.236326530612246	64	127
41.737097505668935	42.236326530612246	52	127
41.737097505668935	42.236326530612246	64	127
42.236326530612246	42.64267573696145	62	127
42.236326530612246	42.64267573696145	62	127
42.236326530612246	42.64267573696145	50	127
43.188321995464854	44.1055328798186	59	127
43.188321995464854	44.1055328798186	47	127
43.188321995464854	44.1055328798186	59	127
44.1055328798186	44.50027210884354	50	127
44.1055328798186	44.50027210884354	62	127
44.1055328798186	44.50027210884354	62	127
44.55832199546485	45.03433106575964	54	127
44.55832199546485	45.03433106575964	66	127
44.55832199546485	45.03433106575964	66	127
45.03433106575964	45.359410430839006	52	127
45.03433106575964	45.359410430839006	64	127
45.03433106575964	45.359410430839006	64	127
45.97473922902494	47.39115646258504	64	127
45.97473922902494	47.39115646258504	61	127
45.97473922902494	46.35784580498866	76	127
46.47396825396825	46.85709750566893	76	127
46.94997732426304	47.33310657596372	76	127
47.39115646258504	48.71469387755102	66	127
47.39115646258504	48.71469387755102	62	127
47.39115646258504	47.82072562358277	76	127
47.82072562358277	48.05292517006803	74	127
48.14580498866213	48.238684807256234	73	127
48.26190476190476	48.621814058956915	71	127
48.71469387755102	50.154331065759635	68	127
48.71469387755102	50.154331065759635	64	127
48.71469387755102	49.08621315192744	74	127
49.179092970521545	49.59705215419501	74	127
49.68993197278912	50.107891156462586	74	127
50.154331065759635	50.537460317460315	69	127
50.154331065759635	50.63034013605442	74	127
50.154331065759635	50.537460317460315	57	127
50.63034013605442	50.86253968253968	73	127
50.95541950113379	51.05990929705215	71	127
51.08312925170068	51.477868480725625	69	127
51.582358276643994	51.80294784580499	69	127
51.582358276643994	52.59242630385488	69	127
52.069977324263036	52.33700680272109	69	127
52.59242630385488	52.778185941043084	69	127
52.59242630385488	52.95233560090703	73	127
52.998775510204084	53.4631746031746	78	127
52.998775510204084	53.4631746031746	69	127
53.4631746031746	53.823083900226756	76	127
53.4631746031746	53.73020408163265	68	127
53.79986394557823	53.9043537414966	66	127
53.927573696145124	54.310702947845805	64	127
54.40358276643991	55.26272108843538	76	127
54.40358276643991	55.26272108843538	64	127
54.40358276643991	54.63578231292517	67	127
54.40358276643991	54.63578231292517	64	127
54.86798185941043	55.076961451247165	67	127
54.86798185941043	55.076961451247165	64	127
55.26272108843538	55.64585034013606	67	127
55.26272108843538	55.47170068027211	67	127
55.26272108843538	55.47170068027211	64	127
55.26272108843538	55.64585034013606	79	127
55.69229024943311	56.1334693877551	67	127
55.69229024943311	56.1334693877551	64	127
55.69229024943311	56.1334693877551	84	127
55.69229024943311	56.1334693877551	72	127
56.1334693877551	56.53981859410431	71	127
56.1334693877551	56.43532879818594	63	127
56.1334693877551	56.53981859410431	83	127
56.1334693877551	56.43532879818594	66	127
56.51659863945578	56.609478458049885	61	127
56.51659863945578	56.609478458049885	64	127
56.63269841269841	57.07387755102041	59	127
56.63269841269841	57.07387755102041	63	127
57.17836734693878	58.07233560090703	76	127
58.07233560090703	58.55995464852608	80	127
58.61800453514739	58.94308390022676	85	127
58.61800453514739	59.3378231292517	51	127
58.94308390022676	59.233333333333334	83	127
59.3378231292517	59.80222222222222	54	127
59.86027210884354	60.34789115646259	57	127
59.86027210884354	60.77746031746032	64	127
60.34789115646259	60.68458049886621	56	127
60.77746031746032	61.18380952380952	68	127
61.23024943310658	61.70625850340136	73	127
61.23024943310658	62.14743764172336	39	127
61.70625850340136	62.05455782312925	71	127
62.14743764172336	62.55378684807256	42	127
62.58861678004535	62.99496598639456	71	127
62.58861678004535	63.0762358276644	45	127
62.58861678004535	62.99496598639456	83	127
63.0762358276644	63.45936507936508	44	127
63.0762358276644	63.45936507936508	83	127
63.0762358276644	63.45936507936508	71	127
63.552244897959184	63.888934240362815	71	127
63.552244897959184	63.888934240362815	83	127
64.00503401360544	64.41138321995464	57	127
64.00503401360544	64.51587301587301	71	127
64.00503401360544	64.41138321995464	63	127
64.00503401360544	64.51587301587301	83	127
64.51587301587301	64.89900226757369	57	127
64.51587301587301	64.79451247165532	69	127
64.51587301587301	64.89900226757369	63	127
64.51587301587301	64.79451247165532	81	127
64.87578231292517	64.98027210884354	68	127
64.87578231292517	64.98027210884354	80	127
65.00349206349206	65.36340136054422	66	127
65.00349206349206	65.36340136054422	57	127
65.00349206349206	65.36340136054422	78	127
65.00349206349206	65.36340136054422	63	127
65.45625850340136	65.79297052154195	71	127
65.45625850340136	65.89746031746031	57	127
65.45625850340136	65.79297052154195	83	127
65.45625850340136	65.89746031746031	63	127
65.89746031746031	66.23414965986395	71	127
65.89746031746031	66.1528798185941	56	127
65.89746031746031	66.23414965986395	83	127
65.89746031746031	66.1528798185941	64	127
66.21092970521542	66.31541950113379	54	127
66.21092970521542	66.31541950113379	66	127
66.33863945578231	66.69854875283447	52	127
66.33863945578231	66.69854875283447	83	127
66.33863945578231	66.69854875283447	71	127
66.33863945578231	66.69854875283447	68	127
66.77981859410431	67.27904761904762	63	127
66.77981859410431	67.27904761904762	57	127
66.77981859410431	67.27904761904762	83	127
66.77981859410431	67.27904761904762	71	127
67.27904761904762	67.6621768707483	57	127
67.27904761904762	67.5692970521542	69	127
67.27904761904762	67.6621768707483	63	127
67.27904761904762	67.5692970521542	81	127
67.63895691609977	67.74344671201814	68	127
67.63895691609977	67.74344671201814	80	127
67.75505668934241	68.16140589569162	66	127
67.75505668934241	68.16140589569162	57	127
67.75505668934241	68.16140589569162	78	127
67.75505668934241	68.16140589569162	63	127
68.25428571428571	68.48648526077098	74	127
68.25428571428571	68.69546485260771	57	127
68.25428571428571	68.48648526077098	83	127
68.25428571428571	68.69546485260771	66	127
68.69546485260771	68.96249433106576	83	127
68.69546485260771	68.96249433106576	74	127
68.69546485260771	69.00891156462585	65	127
68.69546485260771	69.00891156462585	56	127
69.05537414965987	69.14825396825397	66	127
69.05537414965987	69.14825396825397	54	127
69.17147392290249	69.54299319727892	68	127
69.17147392290249	69.54299319727892	53	127
69.17147392290249	69.40367346938775	83	127
69.17147392290249	69.40367346938775	74	127
69.63587301587302	70.0190022675737	54	127
69.63587301587302	70.10027210884354	73	127
69.63587301587302	69.87965986394558	82	127
69.63587301587302	70.0190022675737	61	127
69.87965986394558	70.05383219954649	78	127
70.10027210884354	70.78526077097506	51	127
70.10027210884354	70.54145124716554	72	127
70.10027210884354	70.78526077097506	81	127
70.10027210884354	70.78526077097506	66	127
70.54145124716554	70.93619047619048	71	127
70.78526077097506	70.98263038548752	52	127
70.78526077097506	70.98263038548752	68	127
70.78526077097506	70.98263038548752	80	127
71.04068027210884	71.23804988662131	80	127
71.04068027210884	71.4354195011338	45	127
71.04068027210884	71.4354195011338	73	127
71.04068027210884	71.4354195011338	69	127
71.2844671201814	71.48185941043084	78	127
71.53988662131519	71.88820861678005	47	127
71.53988662131519	71.88820861678005	76	127
71.53988662131519	71.88820861678005	71	127
71.53988662131519	71.88820861678005	68	127
71.94625850340137	72.31777777777778	66	127
71.94625850340137	72.31777777777778	75	127
71.94625850340137	72.31777777777778	69	127
71.94625850340137	72.31777777777778	48	127
72.41065759637188	72.73573696145125	49	127
72.41065759637188	72.49192743764172	76	127
72.41065759637188	72.73573696145125	68	127
72.41065759637188	72.73573696145125	64	127
72.58480725623583	72.85183673469388	80	127
72.85183673469388	73.10725623582766	78	127
73.10725623582766	73.37428571428572	76	127
73.37428571428572	73.59487528344671	75	127
73.59487528344671	73.76902494331065	73	127
73.76902494331065	75.10417233560091	59	127
73.76902494331065	74.12893424036281	71	127
73.76902494331065	75.10417233560091	56	127
74.23342403628118	74.5817006802721	71	127
74.67460317460318	75.02290249433106	71	127
75.10417233560091	76.26517006802722	57	127
75.10417233560091	75.60337868480725	71	127
75.10417233560091	76.26517006802722	61	127
75.60337868480725	75.87043083900227	69	127
75.95170068027211	76.05619047619048	68	127
76.079410430839	76.40448979591837	66	127
76.49734693877551	77.21718820861678	69	127
76.49734693877551	76.89210884353741	63	127
76.49734693877551	76.89210884353741	47	127
76.49734693877551	77.21718820861678	54	127
76.97337868480726	77.36809523809524	63	127
76.97337868480726	77.36809523809524	47	127
77.21718820861678	77.4609977324263	66	127
77.21718820861678	77.4609977324263	57	127
77.4609977324263	77.70480725623582	54	127
77.4609977324263	77.70480725623582	69	127
77.4609977324263	77.86734693877551	63	127
77.4609977324263	77.86734693877551	47	127
77.70480725623582	77.91378684807256	66	127
77.70480725623582	77.91378684807256	57	127
77.97183673469388	78.35496598639456	40	127
77.97183673469388	78.35496598639456	64	127
77.97183673469388	78.35496598639456	56	127
79.45791383219955	79.8178231292517	71	127
79.45791383219955	79.8178231292517	68	127
79.9222902494331	80.28219954648526	71	127
79.9222902494331	80.28219954648526	68	127
80.38671201814059	80.76984126984127	71	127
80.38671201814059	80.76984126984127	68	127
80.86272108843538	82.03532879818594	59	127
80.86272108843538	81.37356009070295	71	127
80.86272108843538	81.37356009070295	68	127
80.86272108843538	82.03532879818594	47	127
81.37356009070295	81.68700680272109	66	127
81.37356009070295	81.68700680272109	69	127
81.75668934240363	81.861179138322	68	127
81.75668934240363	81.861179138322	64	127
81.88439909297053	82.22108843537416	66	127
81.88439909297053	82.22108843537416	63	127
82.31396825396826	82.76675736961451	73	127
82.31396825396826	82.76675736961451	69	127
82.87124716553288	83.3472335600907	73	127
82.87124716553288	83.3472335600907	69	127
83.45172335600907	83.84648526077098	73	127
83.45172335600907	83.84648526077098	69	127
83.93936507936507	85.07714285714286	52	127
83.93936507936507	84.39215419501134	73	127
83.93936507936507	84.39215419501134	69	127
83.93936507936507	85.07714285714286	64	127
84.39215419501134	84.67079365079366	68	127
84.39215419501134	84.67079365079366	71	127
84.7520634920635	84.8449433106576	69	127
84.7520634920635	84.8449433106576	66	127
84.86816326530612	85.27451247165533	64	127
84.86816326530612	85.27451247165533	68	127
86.50517006802721	86.86507936507937	57	127
86.50517006802721	86.86507936507937	61	127
86.96956916099774	87.38750566893424	61	127
86.96956916099774	87.38750566893424	57	127
87.49201814058956	87.85192743764172	57	127
87.49201814058956	87.85192743764172	61	127
87.95641723356009	89.07097505668935	73	127
87.95641723356009	88.38598639455782	61	127
87.95641723356009	88.38598639455782	57	127
87.95641723356009	89.07097505668935	61	127
88.38598639455782	88.6762358276644	56	127
88.38598639455782	88.6762358276644	59	127
88.74589569160997	88.85038548752834	57	127
88.74589569160997	88.85038548752834	54	127
88.87360544217687	89.27995464852607	56	127
88.87360544217687	89.27995464852607	53	127
89.36122448979592	89.72113378684807	62	127
89.36122448979592	89.72113378684807	59	127
89.81399092970521	90.22036281179139	62	127
89.81399092970521	90.22036281179139	59	127
90.29002267573696	90.67315192743764	62	127
90.29002267573696	90.67315192743764	59	127
90.75442176870749	91.79931972789116	78	127
90.75442176870749	91.14916099773242	62	127
90.75442176870749	91.14916099773242	59	127
90.75442176870749	91.79931972789116	66	127
91.14916099773242	91.4509977324263	57	127
91.14916099773242	91.4509977324263	61	127
91.5322902494331	91.62517006802722	59	127
91.5322902494331	91.62517006802722	56	127
91.64839002267574	91.98507936507937	57	127
91.64839002267574	91.98507936507937	54	127
92.0663492063492	97.46498866213152	57	127
92.0663492063492	92.48430839002268	79	127
92.0663492063492	92.48430839002268	67	127
92.0663492063492	92.48430839002268	49	127
92.57718820861678	92.96031746031746	79	127
92.57718820861678	92.96031746031746	67	127
92.57718820861678	92.96031746031746	49	127
93.06480725623582	93.3898866213152	79	127
93.06480725623582	93.3898866213152	67	127
93.06480725623582	93.3898866213152	49	127
93.4827664399093	93.94716553287982	79	127
93.4827664399093	93.94716553287982	67	127
93.4827664399093	93.94716553287982	49	127
93.94716553287982	94.26061224489796	66	127
93.94716553287982	94.26061224489796	78	127
93.94716553287982	94.26061224489796	50	127
94.3302947845805	94.41156462585035	76	127
94.3302947845805	94.41156462585035	64	127
94.3302947845805	94.41156462585035	52	127
94.43478458049887	94.7714739229025	74	127
94.43478458049887	94.7714739229025	62	127
94.43478458049887	94.7714739229025	54	127
94.8759410430839	95.22426303854876	79	127
94.8759410430839	95.22426303854876	67	127
94.8759410430839	95.22426303854876	49	127
95.3055328798186	95.66544217687076	79	127
95.3055328798186	95.66544217687076	67	127
95.3055328798186	95.66544217687076	49	127
95.76993197278911	96.16467120181406	79	127
95.76993197278911	96.16467120181406	67	127
95.76993197278911	96.16467120181406	49	127
96.25755102040816	96.75678004535148	67	127
96.25755102040816	96.75678004535148	79	127
96.25755102040816	96.75678004535148	49	127
96.75678004535148	97.05863945578231	78	127
96.75678004535148	97.05863945578231	66	127
96.75678004535148	97.05863945578231	50	127
97.12829931972789	97.23278911564626	76	127
97.12829931972789	97.23278911564626	64	127
97.12829931972789	97.23278911564626	52	127
97.25600907029478	97.67396825396825	62	127
97.25600907029478	97.67396825396825	74	127
97.25600907029478	97.67396825396825	54	127
97.76684807256235	98.17319727891156	55	127
97.76684807256235	98.17319727891156	83	127
97.76684807256235	98.17319727891156	73	127
97.76684807256235	98.17319727891156	64	127
98.26607709750567	98.63759637188208	55	127
98.26607709750567	98.63759637188208	83	127
98.26607709750567	98.63759637188208	73	127
98.26607709750567	98.63759637188208	64	127
98.7304761904762	99.12521541950113	83	127
98.7304761904762	99.12521541950113	73	127
98.7304761904762	99.12521541950113	64	127
98.7304761904762	99.12521541950113	55	127
99.2297052154195	99.6360544217687	64	127
99.2297052154195	99.6360544217687	83	127
99.2297052154195	99.6360544217687	73	127
99.2297052154195	99.6360544217687	55	127
100.75061224489797	101.28467120181406	73	127
101.28467120181406	101.7142403628118	74	127
101.7142403628118	102.20185941043084	71	127
102.20185941043084	103.16548752834467	66	127
102.20185941043084	102.59659863945578	57	127
102.20185941043084	103.16548752834467	62	127
102.70108843537415	103.07260770975057	57	127
103.16548752834467	103.52539682539683	61	127
103.16548752834467	103.52539682539683	64	127
103.16548752834467	103.52539682539683	57	127
103.61827664399092	104.05945578231292	60	127
103.61827664399092	104.05945578231292	63	127
103.61827664399092	104.05945578231292	57	127
104.05945578231292	104.4774149659864	64	127
104.05945578231292	104.38453514739228	55	127
104.05945578231292	104.4774149659864	59	127
104.45419501133787	104.5354648526077	54	127
104.55868480725624	104.91859410430838	52	127
105.0114739229025	105.49909297052154	69	127
105.0114739229025	105.40621315192743	59	127
105.0114739229025	105.49909297052154	62	127
105.49909297052154	105.97510204081632	67	127
105.49909297052154	105.88222222222223	59	127
105.49909297052154	105.97510204081632	64	127
105.97510204081632	106.36984126984127	62	127
105.97510204081632	106.36984126984127	66	127
105.97510204081632	106.36984126984127	59	127
106.47433106575964	106.95034013605442	59	127
106.47433106575964	106.95034013605442	65	127
106.47433106575964	107.25219954648526	61	127
106.95034013605442	107.25219954648526	57	127
106.95034013605442	107.35668934240363	66	127
107.3334693877551	107.4263492063492	56	127
107.461179138322	107.72820861678005	54	127
107.82108843537415	108.19260770975056	69	127
108.29709750566893	108.68022675736961	69	127
108.29709750566893	108.78471655328798	61	127
108.29709750566893	108.78471655328798	54	127
108.78471655328798	109.71351473922903	69	127
108.78471655328798	109.21428571428571	59	127
108.78471655328798	109.31877551020408	63	127
109.31877551020408	109.80639455782313	64	127
109.31877551020408	110.27079365079365	52	127
109.80639455782313	110.07342403628118	68	127
109.80639455782313	110.27079365079365	59	127
110.14308390022676	110.24757369614512	64	127
110.27079365079365	110.60748299319728	57	127
110.27079365079365	110.60748299319728	61	127
110.27079365079365	111.11832199546485	67	127
110.71197278911565	111.11832199546485	62	127
110.71197278911565	110.96739229024944	62	127
110.71197278911565	111.11832199546485	50	127
111.21120181405895	111.61755102040816	66	127
111.21120181405895	111.46662131519274	62	127
111.21120181405895	111.61755102040816	69	127
111.71043083900227	112.1051700680272	78	127
111.71043083900227	111.96585034013606	62	127
111.71043083900227	112.1051700680272	69	127
112.19804988662132	112.59278911564626	62	127
112.19804988662132	112.59278911564626	68	127
112.19804988662132	112.59278911564626	71	127
112.19804988662132	112.81337868480726	76	127
112.59278911564626	112.94108843537416	64	127
112.59278911564626	112.85981859410431	69	127
112.59278911564626	112.85981859410431	61	127
112.81337868480726	112.91786848072563	78	127
112.91786848072563	112.9875283446712	74	127
112.91786848072563	112.9875283446712	80	127
112.91786848072563	112.9875283446712	59	127
112.99913832199546	113.37065759637188	57	127
112.99913832199546	113.37065759637188	81	127
112.99913832199546	113.37065759637188	73	127
112.99913832199546	113.37065759637188	64	127
113.47514739229025	113.69573696145125	74	127
113.69573696145125	113.93954648526078	76	127
113.93954648526078	114.2762358276644	59	127
113.93954648526078	114.17174603174603	74	127
113.93954648526078	114.2762358276644	64	127
113.93954648526078	114.2762358276644	56	127
114.17174603174603	114.35750566893424	71	127
114.35750566893424	114.60131519274377	73	127
114.35750566893424	114.71741496598639	64	127
114.35750566893424	114.71741496598639	57	127
114.35750566893424	114.71741496598639	57	127
114.60131519274377	114.83351473922903	69	127
114.83351473922903	115.22825396825397	52	127
114.83351473922903	115.22825396825397	64	127
114.83351473922903	115.22825396825397	56	127
114.83351473922903	115.33274376417233	64	127
115.33274376417233	115.82036281179138	63	127
115.82036281179138	116.24993197278911	62	127
116.24993197278911	117.14390022675737	69	127
116.24993197278911	116.62145124716554	61	127
116.24993197278911	121.49764172335601	64	127
116.7259410430839	117.06263038548752	61	127
117.14390022675737	117.480589569161	61	127
117.14390022675737	117.53863945578232	73	127
117.5734693877551	118.0146485260771	61	127
117.5734693877551	118.0146485260771	76	127
118.0146485260771	118.30489795918368	59	127
118.0146485260771	118.39777777777778	74	127
118.36294784580498	118.46743764172335	57	127
118.49065759637188	118.8273469387755	56	127
118.92022675736962	119.84902494331065	50	127
118.92022675736962	119.31496598639455	62	127
118.92022675736962	119.84902494331065	71	127
119.3962358276644	119.75614512471655	62	127
119.84902494331065	120.30181405895692	74	127
119.84902494331065	120.26698412698413	62	127
119.84902494331065	120.30181405895692	47	127
120.35986394557823	120.84748299319727	78	127
120.35986394557823	120.84748299319727	62	127
120.35986394557823	120.84748299319727	44	127
120.84748299319727	121.11451247165533	61	127
120.84748299319727	121.20739229024943	76	127
120.84748299319727	121.20739229024943	45	127
121.1841723356009	121.26544217687075	59	127
121.30027210884354	121.68340136054422	57	127
121.78789115646258	122.70507936507937	66	127
121.78789115646258	121.96204081632654	88	127
121.78789115646258	122.70507936507937	54	127
122.21746031746032	122.43804988662131	88	127
122.70507936507937	123.1346485260771	58	127
122.70507936507937	123.1346485260771	70	127
122.70507936507937	122.93727891156463	88	127
123.15786848072563	123.61065759637188	72	127
123.15786848072563	123.40167800453514	81	127
123.15786848072563	123.61065759637188	88	127
123.15786848072563	123.61065759637188	60	127
123.61065759637188	123.9821768707483	59	127
123.61065759637188	123.84285714285714	81	127
123.61065759637188	123.88929705215419	87	127
123.61065759637188	123.9821768707483	71	127
123.95895691609978	124.04022675736961	85	127
124.06344671201813	124.21437641723357	81	127
124.06344671201813	124.2956462585034	83	127
124.40013605442176	125.41020408163266	64	127
124.40013605442176	124.65555555555555	86	127
124.40013605442176	124.88775510204081	81	127
124.40013605442176	125.41020408163266	52	127
124.88775510204081	125.20122448979592	80	127
124.88775510204081	125.15478458049887	86	127
125.28249433106576	125.38698412698413	78	127
125.41020408163266	125.82816326530612	68	127
125.41020408163266	125.64240362811792	86	127
125.41020408163266	125.79333333333334	76	127
125.41020408163266	125.82816326530612	56	127
125.87460317460318	126.29256235827664	70	127
125.87460317460318	126.0835827664399	79	127
125.87460317460318	126.29256235827664	86	127
125.87460317460318	126.29256235827664	58	127
126.29256235827664	126.68730158730159	57	127
126.29256235827664	126.53637188208617	79	127
126.29256235827664	126.58281179138322	85	127
126.29256235827664	126.68730158730159	69	127
126.66408163265307	126.72213151927437	83	127
126.74535147392291	126.95433106575963	79	127
126.74535147392291	127.0936507936508	81	127
127.1865306122449	127.4071201814059	84	127
127.1865306122449	127.4071201814059	78	127
127.1865306122449	127.4071201814059	69	127
127.1865306122449	127.4071201814059	63	127
127.66253968253969	127.9063492063492	63	127
127.66253968253969	127.9063492063492	84	127
127.66253968253969	127.9063492063492	78	127
127.66253968253969	127.9063492063492	69	127
128.161768707483	128.39396825396827	69	127
128.161768707483	128.39396825396827	84	127
128.161768707483	128.39396825396827	78	127
128.161768707483	128.39396825396827	63	127
128.6609977324263	129.05573696145126	69	127
128.6609977324263	129.05573696145126	84	127
128.6609977324263	129.05573696145126	78	127
128.6609977324263	129.05573696145126	63	127
130.1702947845805	130.58825396825398	73	127
130.1702947845805	130.58825396825398	69	127
130.6695238095238	131.02943310657596	73	127
130.6695238095238	131.02943310657596	69	127
131.13392290249433	131.4590022675737	73	127
131.13392290249433	131.4590022675737	69	127
131.5518820861678	132.00467120181406	73	127
131.5518820861678	131.92337868480726	64	127
131.5518820861678	132.00467120181406	69	127
132.00467120181406	132.3065306122449	71	127
132.00467120181406	132.3065306122449	74	127
132.00467120181406	132.41102040816327	64	127
132.3761904761905	132.48068027210886	75	127
132.3761904761905	132.48068027210886	72	127
132.50390022675737	132.91024943310657	73	127
132.50390022675737	132.91024943310657	76	127
132.50390022675737	132.91024943310657	64	127
132.99151927437643	134.26861678004536	52	127
132.99151927437643	133.42108843537414	64	127
132.99151927437643	133.88548752834467	73	127
132.99151927437643	133.88548752834467	69	127
133.42108843537414	133.88548752834467	63	127
133.88548752834467	134.1873469387755	71	127
133.88548752834467	134.1873469387755	68	127
133.88548752834467	134.26861678004536	62	127
134.26861678004536	134.5008163265306	69	127
134.26861678004536	134.62852607709752	69	127
134.26861678004536	134.62852607709752	61	127
134.26861678004536	134.62852607709752	57	127
134.5008163265306	134.72140589569162	68	127
134.72140589569162	134.96521541950113	69	127
134.96521541950113	135.19739229024944	71	127
135.19739229024944	135.40639455782312	73	127
135.40639455782312	135.65020408163267	74	127
135.65020408163267	135.99850340136055	67	127
135.65020408163267	135.99850340136055	76	127
135.65020408163267	135.99850340136055	58	127
135.65020408163267	135.99850340136055	49	127
136.09138321995465	136.40485260770976	67	127
136.09138321995465	136.40485260770976	76	127
136.09138321995465	136.40485260770976	58	127
136.09138321995465	136.40485260770976	49	127
136.50934240362812	136.83439909297053	67	127
136.50934240362812	136.83439909297053	76	127
136.50934240362812	136.83439909297053	58	127
136.50934240362812	136.83439909297053	49	127
136.93891156462584	137.74	50	127
136.93891156462584	137.43814058956917	76	127
136.93891156462584	137.43814058956917	58	127
136.93891156462584	137.43814058956917	67	127
137.43814058956917	137.74	74	127
137.43814058956917	137.74	59	127
137.43814058956917	137.82126984126984	66	127
137.79804988662133	137.9025396825397	73	127
137.79804988662133	137.9025396825397	61	127
137.9257596371882	138.29727891156463	71	127
137.9257596371882	138.29727891156463	62	127
138.401768707483	139.09836734693877	74	127
138.401768707483	138.79650793650794	68	127
138.401768707483	138.79650793650794	52	127
138.401768707483	139.09836734693877	59	127
138.88938775510204	139.2492970521542	68	127
138.88938775510204	139.2492970521542	52	127
139.09836734693877	139.3421768707483	62	127
139.09836734693877	139.3421768707483	71	127
139.3421768707483	139.6904761904762	68	127
139.3421768707483	139.5395238095238	74	127
139.3421768707483	139.5395238095238	59	127
139.3421768707483	139.6904761904762	52	127
139.5395238095238	139.73691609977325	71	127
139.5395238095238	139.73691609977325	62	127
139.7833560090703	140.2245351473923	45	127
139.7833560090703	140.2245351473923	69	127
139.7833560090703	140.2245351473923	61	127
139.7833560090703	140.2245351473923	69	127
141.26943310657597	141.67578231292518	71	127
141.26943310657597	141.67578231292518	68	127
141.76866213151928	142.1634013605442	71	127
141.76866213151928	142.1634013605442	68	127
142.26789115646258	142.61619047619047	71	127
142.26789115646258	142.61619047619047	68	127
142.72068027210884	143.8932879818594	59	127
142.72068027210884	143.2082993197279	71	127
142.72068027210884	143.2082993197279	68	127
142.72068027210884	143.8932879818594	47	127
143.2082993197279	143.521768707483	66	127
143.2082993197279	143.521768707483	69	127
143.59142857142857	143.68428571428572	68	127
143.59142857142857	143.68428571428572	64	127
143.7075283446712	144.0558276643991	66	127
143.7075283446712	144.0558276643991	63	127
144.16031746031746	144.54344671201815	73	127
144.16031746031746	144.54344671201815	69	127
144.63632653061225	145.00784580498868	73	127
144.63632653061225	145.00784580498868	69	127
145.0891156462585	145.29809523809524	73	127
145.0891156462585	145.29809523809524	69	127
145.39097505668934	146.5055328798186	64	127
145.39097505668934	145.87857142857143	73	127
145.39097505668934	145.87857142857143	69	127
145.39097505668934	146.5055328798186	52	127
145.87857142857143	146.18045351473924	68	127
145.87857142857143	146.18045351473924	71	127
146.2384807256236	146.30816326530612	69	127
146.2384807256236	146.30816326530612	66	127
146.33138321995466	146.71451247165533	68	127
146.33138321995466	146.71451247165533	64	127
148.30507936507937	148.61854875283447	57	127
148.30507936507937	148.61854875283447	61	127
148.72303854875284	149.0132879818594	61	127
148.72303854875284	149.0132879818594	57	127
149.09455782312926	149.47768707482993	57	127
149.09455782312926	149.47768707482993	61	127
149.55893424036282	150.68510204081633	73	127
149.55893424036282	150.00013605442177	61	127
149.55893424036282	150.00013605442177	57	127
149.55893424036282	150.68510204081633	61	127
150.00013605442177	150.3019954648526	56	127
150.00013605442177	150.3019954648526	59	127
150.36004535147393	150.4645351473923	57	127
150.36004535147393	150.4645351473923	54	127
150.4877551020408	150.89410430839	56	127
150.4877551020408	150.89410430839	53	127
151.01020408163265	151.38172335600908	62	127
151.01020408163265	151.38172335600908	59	127
151.48621315192744	151.83451247165533	62	127
151.48621315192744	151.83451247165533	59	127
151.9390022675737	152.2524716553288	62	127
151.9390022675737	152.2524716553288	59	127
152.33374149659863	153.5063492063492	78	127
152.33374149659863	152.832947845805	62	127
152.33374149659863	152.832947845805	59	127
152.33374149659863	153.5063492063492	66	127
152.832947845805	153.12321995464853	57	127
152.832947845805	153.12321995464853	61	127
153.19285714285715	153.28575963718822	59	127
153.19285714285715	153.28575963718822	56	127
153.30897959183673	153.70369614512472	57	127
153.30897959183673	153.70369614512472	54	127
153.78498866213152	158.99786848072563	57	127
153.78498866213152	154.11004535147393	79	127
153.78498866213152	154.11004535147393	67	127
153.78498866213152	154.11004535147393	49	127
154.202947845805	154.52802721088435	79	127
154.202947845805	154.52802721088435	67	127
154.202947845805	154.52802721088435	49	127
154.6208843537415	154.99242630385487	79	127
154.6208843537415	154.99242630385487	67	127
154.6208843537415	154.99242630385487	49	127
155.07369614512473	155.57292517006803	67	127
155.07369614512473	155.57292517006803	79	127
155.07369614512473	155.57292517006803	49	127
155.57292517006803	155.87478458049887	66	127
155.57292517006803	155.87478458049887	78	127
155.57292517006803	155.87478458049887	50	127
155.9560544217687	156.03732426303856	64	127
155.9560544217687	156.03732426303856	76	127
155.9560544217687	156.03732426303856	52	127
156.07215419501134	156.4320634920635	74	127
156.07215419501134	156.4320634920635	62	127
156.07215419501134	156.4320634920635	54	127
156.53655328798186	156.85002267573697	67	127
156.53655328798186	156.85002267573697	79	127
156.53655328798186	156.85002267573697	49	127
156.94290249433107	157.337641723356	67	127
156.94290249433107	157.337641723356	79	127
156.94290249433107	157.337641723356	49	127
157.43049886621316	157.80204081632652	67	127
157.43049886621316	157.80204081632652	79	127
157.43049886621316	157.80204081632652	49	127
157.88331065759638	158.3477097505669	67	127
157.88331065759638	158.3477097505669	79	127
157.88331065759638	158.3477097505669	49	127
158.3477097505669	158.64956916099774	66	127
158.3477097505669	158.64956916099774	78	127
158.3477097505669	158.64956916099774	50	127
158.7192290249433	158.82371882086167	64	127
158.7192290249433	158.82371882086167	76	127
158.7192290249433	158.82371882086167	52	127
158.8469387755102	159.1952380952381	74	127
158.8469387755102	159.1952380952381	54	127
158.8469387755102	159.1952380952381	62	127
159.29972789115646	159.6712471655329	73	127
159.29972789115646	159.6712471655329	55	127
159.29972789115646	159.6712471655329	83	127
159.29972789115646	159.6712471655329	64	127
159.764126984127	160.1704761904762	73	127
159.764126984127	160.1704761904762	55	127
159.764126984127	160.1704761904762	83	127
159.764126984127	160.1704761904762	64	127
160.2633560090703	160.63487528344672	83	127
160.2633560090703	160.63487528344672	73	127
160.2633560090703	160.63487528344672	64	127
160.2633560090703	160.63487528344672	55	127
160.72775510204082	161.13410430839002	73	127
160.72775510204082	161.13410430839002	83	127
160.72775510204082	161.13410430839002	64	127
160.72775510204082	161.13410430839002	55	127
162.23702947845806	162.70142857142858	73	127
162.70142857142858	163.08458049886622	74	127
163.08458049886622	163.560589569161	71	127
163.560589569161	164.52421768707484	66	127
163.560589569161	164.52421768707484	62	127
163.560589569161	163.94371882086168	57	127
164.03659863945578	164.41972789115647	57	127
164.52421768707484	164.9073469387755	64	127
164.52421768707484	164.9073469387755	57	127
164.52421768707484	164.9073469387755	61	127
165.01183673469387	165.51104308390023	63	127
165.01183673469387	165.51104308390023	57	127
165.01183673469387	165.51104308390023	60	127
165.51104308390023	165.74326530612245	59	127
165.51104308390023	165.66197278911565	55	127
165.51104308390023	165.74326530612245	64	127
165.73165532879818	165.81292517006804	54	127
165.83614512471655	166.21927437641725	52	127
166.31215419501135	166.6836507936508	59	127
166.31215419501135	166.7649433106576	62	127
166.31215419501135	166.7649433106576	69	127
166.7649433106576	167.15968253968254	59	127
166.7649433106576	167.2641723356009	64	127
166.7649433106576	167.2641723356009	67	127
167.2641723356009	167.6588888888889	66	127
167.2641723356009	167.6588888888889	59	127
167.2641723356009	167.6588888888889	62	127
167.75179138321997	168.48321995464852	61	127
167.75179138321997	168.19297052154195	65	127
167.75179138321997	168.19297052154195	59	127
168.19297052154195	168.48321995464852	57	127
168.19297052154195	168.5877097505669	66	127
168.56448979591838	168.6457596371882	56	127
168.66897959183675	168.94761904761904	54	127
169.0288888888889	169.4468253968254	69	127
169.55133786848072	169.99251700680273	61	127
169.55133786848072	169.99251700680273	54	127
169.55133786848072	169.89963718820863	69	127
169.99251700680273	170.84004535147392	69	127
169.99251700680273	170.38725623582766	59	127
169.99251700680273	170.48013605442176	63	127
170.48013605442176	171.43215419501135	52	127
170.48013605442176	170.96775510204083	64	127
170.96775510204083	171.43215419501135	59	127
170.96775510204083	171.2347619047619	68	127
171.30444444444444	171.4089342403628	64	127
171.43215419501135	172.2332426303855	67	127
171.43215419501135	171.74560090702948	61	127
171.43215419501135	171.74560090702948	57	127
171.83850340136055	172.2332426303855	62	127
171.83850340136055	172.2332426303855	50	127
171.83850340136055	172.0474829931973	62	127
172.37256235827664	172.6163492063492	62	127
172.37256235827664	172.76727891156463	69	127
172.37256235827664	172.76727891156463	66	127
172.8601814058957	173.1156009070295	62	127
172.8601814058957	173.25492063492064	69	127
172.8601814058957	173.25492063492064	78	127
173.359410430839	173.7657596371882	71	127
173.359410430839	174.021179138322	76	127
173.359410430839	173.7657596371882	68	127
173.359410430839	173.7657596371882	62	127
173.7657596371882	174.05600907029478	61	127
173.7657596371882	174.14886621315193	64	127
173.7657596371882	174.05600907029478	69	127
174.021179138322	174.1140589569161	78	127
174.1140589569161	174.21854875283447	80	127
174.1140589569161	174.21854875283447	59	127
174.1140589569161	174.21854875283447	74	127
174.241768707483	174.63650793650794	73	127
174.241768707483	174.63650793650794	57	127
174.241768707483	174.63650793650794	81	127
174.241768707483	174.63650793650794	64	127
174.71777777777777	174.93836734693878	74	127
174.93836734693878	175.1821768707483	76	127
175.1821768707483	175.565306122449	56	127
175.1821768707483	175.42596371882087	74	127
175.1821768707483	175.565306122449	64	127
175.1821768707483	175.565306122449	59	127
175.42596371882087	175.64657596371882	71	127
175.64657596371882	176.00648526077097	57	127
175.64657596371882	176.00648526077097	57	127
175.64657596371882	175.85555555555555	73	127
175.64657596371882	176.00648526077097	64	127
175.85555555555555	176.09936507936507	69	127
176.09936507936507	176.52893424036282	64	127
176.09936507936507	176.42444444444445	56	127
176.09936507936507	176.42444444444445	52	127
176.09936507936507	176.42444444444445	64	127
176.52893424036282	176.98172335600907	63	127
176.98172335600907	177.36485260770976	62	127
177.36485260770976	178.3517006802721	69	127
177.36485260770976	177.74798185941043	61	127
177.36485260770976	182.67061224489797	64	127
177.86408163265307	178.24721088435373	61	127
178.3517006802721	178.72321995464853	61	127
178.3517006802721	178.78126984126985	73	127
178.81609977324263	179.24566893424037	61	127
178.81609977324263	179.24566893424037	76	127
179.24566893424037	179.52430839002267	59	127
179.24566893424037	179.61716553287982	74	127
179.59396825396826	179.69845804988663	57	127
179.7216553287982	180.00031746031746	56	127
180.09319727891156	181.06843537414966	50	127
180.09319727891156	180.48791383219955	62	127
180.09319727891156	181.06843537414966	71	127
180.58081632653062	180.98716553287983	62	127
181.06843537414966	181.43995464852608	62	127
181.06843537414966	181.48639455782313	74	127
181.06843537414966	181.48639455782313	47	127
181.53283446712018	182.00884353741498	44	127
181.53283446712018	182.00884353741498	78	127
181.53283446712018	182.00884353741498	62	127
182.00884353741498	182.28748299319727	61	127
182.00884353741498	182.39197278911564	45	127
182.00884353741498	182.39197278911564	76	127
182.36875283446713	182.46163265306123	59	127
182.48485260770974	182.86798185941043	57	127
182.93764172335602	183.92448979591836	66	127
182.93764172335602	183.92448979591836	54	127
182.93764172335602	183.16984126984127	88	127
183.42526077097506	183.66907029478458	88	127
183.92448979591836	184.1334693877551	88	127
183.92448979591836	184.33083900226757	58	127
183.92448979591836	184.33083900226757	70	127
184.37727891156462	184.84167800453514	88	127
184.37727891156462	184.84167800453514	60	127
184.37727891156462	184.62108843537416	81	127
184.37727891156462	184.84167800453514	72	127
184.84167800453514	185.1087074829932	87	127
184.84167800453514	185.2015873015873	59	127
184.84167800453514	185.07387755102042	81	127
184.84167800453514	185.2015873015873	71	127
185.17836734693878	185.28285714285715	85	127
185.30607709750566	185.6775963718821	83	127
185.30607709750566	185.52666666666667	81	127
185.78208616780046	186.59478458049887	64	127
185.78208616780046	186.59478458049887	52	127
185.78208616780046	186.00267573696146	86	127
185.78208616780046	186.22326530612244	81	127
186.22326530612244	186.3974149659864	86	127
186.22326530612244	186.45546485260772	80	127
186.50190476190477	186.57154195011339	78	127
186.59478458049887	186.9895238095238	76	127
186.59478458049887	187.03596371882085	56	127
186.59478458049887	186.85020408163265	86	127
186.59478458049887	187.03596371882085	68	127
187.07079365079366	187.54680272108843	86	127
187.07079365079366	187.54680272108843	58	127
187.07079365079366	187.3029931972789	79	127
187.07079365079366	187.54680272108843	70	127
187.54680272108843	187.88349206349207	69	127
187.54680272108843	187.88349206349207	57	127
187.54680272108843	187.75578231292516	79	127
187.54680272108843	187.7790022675737	85	127
187.84863945578232	187.9415419501134	83	127
187.9647619047619	188.15052154195013	79	127
187.9647619047619	188.278231292517	81	127
188.3711111111111	188.61489795918368	69	127
188.3711111111111	188.61489795918368	63	127
188.3711111111111	188.61489795918368	84	127
188.3711111111111	188.61489795918368	78	127
188.8471201814059	189.09092970521542	78	127
188.8471201814059	189.09092970521542	63	127
188.8471201814059	189.09092970521542	84	127
188.8471201814059	189.09092970521542	69	127
189.3231292517007	189.57854875283448	78	127
189.3231292517007	189.57854875283448	63	127
189.3231292517007	189.57854875283448	84	127
189.3231292517007	189.57854875283448	69	127
189.822358276644	190.18226757369615	78	127
189.822358276644	190.18226757369615	63	127
189.822358276644	190.18226757369615	84	127
189.822358276644	190.18226757369615	69	127
191.30843537414967	191.69156462585033	73	127
191.30843537414967	191.69156462585033	69	127
191.7960544217687	192.1443537414966	73	127
191.7960544217687	192.1443537414966	69	127
192.24884353741496	192.56231292517006	73	127
192.24884353741496	192.56231292517006	69	127
192.66680272108843	193.177641723356	73	127
192.66680272108843	193.06154195011337	64	127
192.66680272108843	193.177641723356	69	127
193.177641723356	193.4678911564626	74	127
193.177641723356	193.4678911564626	71	127
193.177641723356	193.5607709750567	64	127
193.53755102040816	193.64204081632653	75	127
193.53755102040816	193.64204081632653	72	127
193.66526077097507	194.03678004535146	73	127
193.66526077097507	194.03678004535146	76	127
193.66526077097507	194.03678004535146	64	127
194.1296598639456	194.5592290249433	64	127
194.1296598639456	195.00040816326532	73	127
194.1296598639456	195.00040816326532	69	127
194.1296598639456	195.41836734693877	52	127
194.5592290249433	195.00040816326532	63	127
195.00040816326532	195.32548752834467	71	127
195.00040816326532	195.32548752834467	68	127
195.00040816326532	195.41836734693877	62	127
195.41836734693877	195.80149659863946	69	127
195.41836734693877	195.6621768707483	69	127
195.41836734693877	195.80149659863946	61	127
195.41836734693877	195.80149659863946	57	127
195.6621768707483	195.90598639455783	68	127
195.90598639455783	196.16140589569162	69	127
196.16140589569162	196.40521541950113	71	127
196.40521541950113	196.6025850340136	73	127
196.6025850340136	196.8231746031746	74	127
196.8231746031746	197.1714739229025	76	127
196.8231746031746	197.1714739229025	58	127
196.8231746031746	197.1714739229025	67	127
196.8231746031746	197.1714739229025	49	127
197.27596371882086	197.62426303854875	76	127
197.27596371882086	197.62426303854875	58	127
197.27596371882086	197.62426303854875	67	127
197.27596371882086	197.62426303854875	49	127
197.72875283446712	198.08866213151927	76	127
197.72875283446712	198.08866213151927	58	127
197.72875283446712	198.08866213151927	67	127
197.72875283446712	198.08866213151927	49	127
198.18154195011337	198.6807709750567	76	127
198.18154195011337	198.6807709750567	58	127
198.18154195011337	198.6807709750567	67	127
198.18154195011337	198.959410430839	50	127
198.6807709750567	198.959410430839	74	127
198.6807709750567	198.959410430839	59	127
198.6807709750567	199.04068027210883	66	127
199.01746031746032	199.1219501133787	73	127
199.01746031746032	199.1219501133787	61	127
199.1451700680272	199.47024943310657	71	127
199.1451700680272	199.47024943310657	62	127
199.57473922902494	199.94625850340137	68	127
199.57473922902494	199.94625850340137	52	127
199.57473922902494	200.30616780045352	74	127
199.57473922902494	200.30616780045352	59	127
200.06235827664398	200.45709750566894	68	127
200.06235827664398	200.45709750566894	52	127
200.30616780045352	200.5615873015873	71	127
200.30616780045352	200.5615873015873	62	127
200.5615873015873	200.82861678004537	74	127
200.5615873015873	200.82861678004537	59	127
200.5615873015873	200.95632653061224	68	127
200.5615873015873	200.95632653061224	52	127
200.82861678004537	201.01437641723356	71	127
200.82861678004537	201.01437641723356	62	127
201.0608163265306	201.46716553287982	61	127
201.0608163265306	201.46716553287982	69	127
201.0608163265306	201.46716553287982	69	127
201.0608163265306	201.46716553287982	45	127
202.55850340136055	204.40448979591838	64	127
202.55850340136055	203.7427210884354	59	127
202.55850340136055	204.40448979591838	68	127
203.05773242630386	203.53374149659865	52	127
203.53374149659865	203.9865306122449	51	127
203.9865306122449	204.45092970521543	61	127
203.9865306122449	204.45092970521543	49	127
204.45092970521543	204.86888888888888	69	127
204.45092970521543	204.86888888888888	54	127
204.45092970521543	204.86888888888888	47	127
204.45092970521543	205.15913832199547	63	127
204.86888888888888	205.32167800453516	66	127
204.86888888888888	205.32167800453516	45	127
204.86888888888888	205.75124716553287	59	127
205.39133786848072	205.75124716553287	64	127
205.39133786848072	205.54226757369614	71	127
205.39133786848072	205.83251700680273	44	127
205.623537414966	205.75124716553287	76	127
205.83251700680273	206.29691609977326	63	127
205.83251700680273	206.29691609977326	42	127
205.83251700680273	206.20403628117913	66	127
205.83251700680273	207.03995464852608	71	127
206.29691609977326	206.7148752834467	64	127
206.29691609977326	206.7148752834467	40	127
206.29691609977326	206.7148752834467	68	127
206.83097505668934	207.03995464852608	66	127
206.83097505668934	207.03995464852608	69	127
206.83097505668934	207.17927437641723	39	127
207.03995464852608	207.24893424036281	66	127
207.03995464852608	207.24893424036281	63	127
207.03995464852608	207.27215419501132	70	127
207.27215419501132	207.46952380952382	69	127
207.27215419501132	207.60884353741497	66	127
207.27215419501132	207.60884353741497	63	127
207.27215419501132	207.60884353741497	47	127
207.46952380952382	207.70172335600907	68	127
207.70172335600907	207.9455328798186	69	127
207.9455328798186	208.20095238095237	66	127
208.20095238095237	209.98888888888888	64	127
208.20095238095237	209.7682993197279	68	127
208.6421315192744	209.1065306122449	52	127
208.6421315192744	209.1065306122449	56	127
209.1065306122449	209.51287981859412	54	127
209.1065306122449	209.51287981859412	51	127
209.51287981859412	209.98888888888888	49	127
209.51287981859412	209.98888888888888	52	127
209.7682993197279	209.81473922902495	69	127
209.81473922902495	209.87278911564627	68	127
209.87278911564627	209.93083900226756	66	127
209.93083900226756	209.98888888888888	68	127
209.98888888888888	210.4300680272109	69	127
209.98888888888888	210.4300680272109	63	127
209.98888888888888	210.4300680272109	54	127
209.98888888888888	210.4300680272109	47	127
210.4300680272109	210.88285714285715	51	127
210.4300680272109	210.88285714285715	66	127
210.4300680272109	210.88285714285715	61	127
210.4300680272109	210.88285714285715	45	127
210.90607709750566	211.67233560090702	71	127
210.90607709750566	211.405306122449	59	127
210.90607709750566	211.405306122449	44	127
210.90607709750566	211.9045351473923	52	127
211.405306122449	211.9045351473923	45	127
211.405306122449	211.9045351473923	61	127
211.67233560090702	211.9045351473923	70	127
211.9045351473923	212.32249433106577	51	127
211.9045351473923	212.15995464852608	69	127
211.9045351473923	212.15995464852608	59	127
211.9045351473923	212.32249433106577	47	127
212.15995464852608	212.3805442176871	66	127
212.15995464852608	212.3805442176871	57	127
212.42698412698414	212.83333333333334	64	127
212.42698412698414	212.83333333333334	56	127
212.42698412698414	212.83333333333334	52	127
212.42698412698414	212.83333333333334	52	127
212.92621315192744	213.32095238095238	47	127
213.42544217687075	213.80857142857144	40	127
213.90145124716554	215.61972789115646	68	127
213.90145124716554	215.01600907029479	59	127
213.90145124716554	215.61972789115646	64	127
214.38907029478457	214.86507936507937	52	127
214.86507936507937	215.21337868480725	51	127
215.21337868480725	215.65455782312924	49	127
215.21337868480725	215.65455782312924	61	127
215.65455782312924	216.13056689342403	47	127
215.65455782312924	216.13056689342403	69	127
215.65455782312924	216.13056689342403	54	127
215.65455782312924	216.43242630385487	63	127
216.13056689342403	216.56013605442178	45	127
216.13056689342403	216.56013605442178	66	127
216.13056689342403	216.94326530612244	59	127
216.6181859410431	217.0245351473923	44	127
216.6181859410431	216.7342857142857	71	127
216.6181859410431	216.94326530612244	64	127
216.82716553287983	216.94326530612244	76	127
217.0245351473923	217.45410430839001	42	127
217.0245351473923	217.37283446712019	66	127
217.0245351473923	217.45410430839001	63	127
217.0245351473923	218.25519274376418	71	127
217.45410430839001	217.88367346938776	64	127
217.45410430839001	217.88367346938776	40	127
217.45410430839001	217.88367346938776	68	127
217.9997732426304	218.25519274376418	69	127
217.9997732426304	218.25519274376418	66	127
217.9997732426304	218.4061224489796	39	127
218.25519274376418	218.48739229024943	66	127
218.25519274376418	218.48739229024943	63	127
218.25519274376418	218.51061224489797	70	127
218.51061224489797	218.7544217687075	69	127
218.51061224489797	218.87052154195013	66	127
218.51061224489797	218.87052154195013	63	127
218.51061224489797	218.87052154195013	47	127
218.7544217687075	218.96340136054422	68	127
218.96340136054422	219.19560090702947	69	127
219.19560090702947	219.45102040816326	66	127
219.45102040816326	221.07641723356008	68	127
219.45102040816326	221.25056689342404	64	127
219.93863945578232	220.4494784580499	52	127
219.93863945578232	220.4494784580499	56	127
220.4494784580499	220.86743764172334	54	127
220.4494784580499	220.86743764172334	51	127
220.86743764172334	221.25056689342404	49	127
220.86743764172334	221.25056689342404	52	127
221.07641723356008	221.1112471655329	69	127
221.1112471655329	221.15768707482994	68	127
221.15768707482994	221.19251700680272	66	127
221.19251700680272	221.25056689342404	68	127
221.25056689342404	221.73818594104307	69	127
221.25056689342404	221.73818594104307	63	127
221.25056689342404	221.73818594104307	54	127
221.25056689342404	221.73818594104307	47	127
221.73818594104307	222.19097505668935	66	127
221.73818594104307	222.19097505668935	61	127
221.73818594104307	222.19097505668935	51	127
221.73818594104307	222.19097505668935	45	127
222.2025850340136	222.65537414965988	44	127
222.2025850340136	222.65537414965988	59	127
222.2025850340136	222.88757369614513	71	127
222.2025850340136	223.06172335600908	52	127
222.65537414965988	223.06172335600908	45	127
222.65537414965988	223.06172335600908	61	127
222.88757369614513	223.06172335600908	70	127
223.06172335600908	223.29392290249433	69	127
223.06172335600908	223.29392290249433	59	127
223.06172335600908	223.44485260770975	51	127
223.06172335600908	223.44485260770975	47	127
223.29392290249433	223.4912925170068	66	127
223.29392290249433	223.4912925170068	57	127
223.53773242630385	223.9324716553288	64	127
223.53773242630385	223.9324716553288	56	127
223.53773242630385	223.9324716553288	52	127
223.53773242630385	223.9324716553288	52	127
224.0253514739229	224.40848072562358	47	127
224.50136054421768	224.9657596371882	40	127
225.07024943310657	225.26761904761904	66	127
225.07024943310657	225.19795918367348	63	127
225.07024943310657	225.4069387755102	59	127
225.07024943310657	225.4069387755102	47	127
225.221179138322	225.30244897959184	66	127
225.26761904761904	225.441768707483	63	127
225.33727891156462	225.46498866213153	71	127
225.4998185941043	226.59115646258505	66	127
225.4998185941043	225.6275283446712	75	127
225.662358276644	225.73201814058956	78	127
225.76684807256237	225.89455782312925	83	127
225.90616780045352	226.02226757369615	78	127
225.90616780045352	226.3821768707483	71	127
225.90616780045352	226.3821768707483	63	127
226.05709750566893	226.1848072562358	75	127
226.20802721088435	226.3473469387755	71	127
226.3821768707483	226.70725623582766	61	127
226.3821768707483	226.48666666666668	76	127
226.3821768707483	226.70725623582766	70	127
226.52149659863946	226.6375963718821	73	127
226.59115646258505	226.74208616780047	73	127
226.6608163265306	226.76530612244898	71	127
226.80013605442176	226.92784580498866	70	127
226.80013605442176	227.87986394557822	66	127
226.96267573696144	227.10199546485262	68	127
227.1368253968254	227.24131519274377	66	127
227.26453514739228	227.42707482993197	64	127
227.26453514739228	227.71732426303853	61	127
227.26453514739228	227.71732426303853	46	127
227.42707482993197	227.55478458049888	66	127
227.58961451247166	227.68249433106575	64	127
227.71732426303853	227.7985941043084	63	127
227.71732426303853	228.0191836734694	59	127
227.71732426303853	228.0191836734694	47	127
227.83342403628117	227.92630385487527	66	127
227.87986394557822	228.0772335600907	63	127
227.96113378684808	228.08884353741496	71	127
228.12367346938777	229.14535147392291	71	127
228.12367346938777	228.21655328798187	75	127
228.12367346938777	229.238231292517	66	127
228.25138321995465	228.33265306122448	78	127
228.36748299319729	228.49519274376416	83	127
228.53002267573697	228.64612244897958	78	127
228.53002267573697	228.98281179138323	63	127
228.66934240362812	228.78544217687076	75	127
228.82027210884354	228.94798185941042	71	127
228.98281179138323	229.12213151927438	76	127
228.98281179138323	229.29628117913833	61	127
229.14535147392291	229.28467120181406	73	127
229.14535147392291	229.28467120181406	70	127
229.238231292517	229.3311111111111	73	127
229.28467120181406	229.34272108843538	71	127
229.28467120181406	229.37755102040816	71	127
229.37755102040816	229.4936507936508	70	127
229.37755102040816	229.7490702947846	73	127
229.37755102040816	230.5849886621315	66	127
229.5168707482993	229.64458049886622	68	127
229.679410430839	229.78390022675737	66	127
229.81873015873015	230.22507936507935	46	127
229.81873015873015	229.9928798185941	64	127
229.81873015873015	230.22507936507935	61	127
229.9928798185941	230.10897959183674	66	127
230.14380952380952	230.22507936507935	64	127
230.22507936507935	230.36439909297053	63	127
230.22507936507935	230.5849886621315	59	127
230.22507936507935	230.5849886621315	47	127
230.38761904761904	230.4921088435374	66	127
230.51532879818595	230.6546485260771	71	127
230.67786848072564	230.80557823129251	75	127
230.8404081632653	230.9681179138322	78	127
230.9913378684807	231.10743764172335	83	127
231.1306575963719	231.60666666666665	63	127
231.1306575963719	231.29319727891158	81	127
231.1306575963719	232.00140589569162	71	127
231.29319727891158	231.42090702947846	80	127
231.45573696145124	231.57183673469387	79	127
231.60666666666665	232.00140589569162	64	127
231.60666666666665	231.76920634920634	81	127
231.76920634920634	231.89691609977325	80	127
231.93174603174603	232.07106575963718	83	127
232.10589569161	232.1639455782313	81	127
232.17555555555555	232.29165532879819	80	127
232.31487528344672	232.33809523809524	78	127
232.33809523809524	232.45419501133787	76	127
232.48902494331065	232.63995464852607	75	127
232.68639455782312	232.80249433106576	73	127
232.8257142857143	232.97664399092972	80	127
232.97664399092972	233.12757369614513	76	127
233.16240362811791	233.2901133786848	73	127
233.3249433106576	233.8590022675737	63	127
233.3249433106576	233.77773242630386	71	127
233.3249433106576	234.16086167800452	54	127
233.8590022675737	234.10281179138323	66	127
233.8590022675737	234.05637188208615	75	127
233.8590022675737	234.36984126984126	58	127
234.10281179138323	234.3234013605442	64	127
234.10281179138323	234.3234013605442	73	127
234.36984126984126	234.78780045351473	63	127
234.36984126984126	234.78780045351473	59	127
234.36984126984126	235.92557823129252	71	127
234.36984126984126	235.240589569161	59	127
234.78780045351473	235.240589569161	61	127
234.78780045351473	235.240589569161	64	127
235.240589569161	235.681768707483	63	127
235.240589569161	235.681768707483	66	127
235.240589569161	235.71659863945578	57	127
235.71659863945578	236.14616780045353	65	127
235.71659863945578	236.14616780045353	68	127
235.71659863945578	236.14616780045353	56	127
235.97201814058957	236.122947845805	74	127
236.14616780045353	236.6221768707483	54	127
236.14616780045353	236.6221768707483	66	127
236.14616780045353	236.6221768707483	69	127
236.6221768707483	237.00530612244899	53	127
236.6221768707483	236.88920634920635	73	127
236.6221768707483	237.00530612244899	71	127
236.6221768707483	237.00530612244899	68	127
236.88920634920635	237.08657596371881	68	127
237.10979591836735	237.57419501133788	63	127
237.10979591836735	237.35360544217687	71	127
237.10979591836735	237.57419501133788	54	127
237.10979591836735	237.57419501133788	66	127
237.35360544217687	237.55097505668934	69	127
237.57419501133788	238.02698412698413	52	127
237.57419501133788	238.02698412698413	68	127
237.57419501133788	238.02698412698413	64	127
238.02698412698413	238.3868934240363	66	127
238.02698412698413	238.25918367346938	73	127
238.02698412698413	238.3868934240363	69	127
238.02698412698413	238.3868934240363	51	127
238.25918367346938	238.43333333333334	71	127
238.4797732426304	238.7235827664399	69	127
238.4797732426304	238.95578231292518	52	127
238.4797732426304	238.86290249433105	59	127
238.4797732426304	238.7235827664399	63	127
238.7235827664399	238.95578231292518	68	127
238.7235827664399	238.95578231292518	64	127
238.95578231292518	239.44340136054421	49	127
238.95578231292518	239.2228117913832	66	127
238.95578231292518	239.2228117913832	63	127
239.2228117913832	239.44340136054421	64	127
239.44340136054421	239.83814058956915	61	127
239.44340136054421	239.68721088435373	71	127
239.44340136054421	239.68721088435373	68	127
239.44340136054421	239.83814058956915	45	127
239.68721088435373	239.919410430839	69	127
239.68721088435373	239.919410430839	66	127
239.93102040816328	240.73210884353742	59	127
239.93102040816328	240.43024943310658	68	127
239.93102040816328	240.43024943310658	64	127
239.93102040816328	240.92947845804989	47	127
240.43024943310658	240.82498866213152	63	127
240.43024943310658	240.82498866213152	66	127
240.92947845804989	241.3358276643991	45	127
241.463537414966	244.74916099773242	83	127
241.463537414966	241.70734693877552	59	127
241.463537414966	242.85673469387754	44	127
241.70734693877552	241.9627664399093	61	127
241.9627664399093	242.16013605442177	59	127
241.9627664399093	242.16013605442177	63	127
242.16013605442177	242.38072562358278	61	127
242.16013605442177	242.38072562358278	64	127
242.38072562358278	242.60131519274375	66	127
242.38072562358278	242.60131519274375	63	127
242.60131519274375	242.79868480725622	64	127
242.60131519274375	242.79868480725622	68	127
242.85673469387754	243.13537414965987	66	127
242.85673469387754	244.08739229024943	42	127
242.85673469387754	243.13537414965987	69	127
243.13537414965987	243.37918367346938	71	127
243.13537414965987	243.37918367346938	68	127
243.37918367346938	243.61138321995466	69	127
243.37918367346938	243.61138321995466	73	127
243.61138321995466	243.86680272108845	71	127
243.61138321995466	243.86680272108845	75	127
243.86680272108845	244.13383219954648	76	127
243.86680272108845	244.13383219954648	73	127
244.13383219954648	244.30798185941043	78	127
244.13383219954648	244.30798185941043	75	127
244.35442176870748	244.74916099773242	80	127
244.35442176870748	244.74916099773242	76	127
244.35442176870748	244.74916099773242	40	127
244.8536507936508	245.2251700680272	84	127
245.2251700680272	245.6663492063492	68	127
245.2251700680272	245.6663492063492	85	127
245.2251700680272	245.6663492063492	76	127
245.2251700680272	245.6663492063492	46	127
245.71278911564625	246.22362811791382	76	127
245.71278911564625	246.22362811791382	68	127
245.71278911564625	246.31650793650795	59	127
245.71278911564625	246.6996371882086	47	127
246.22362811791382	246.362947845805	75	127
246.22362811791382	246.362947845805	66	127
246.4558276643991	246.65319727891156	51	127
246.4558276643991	246.6996371882086	73	127
246.4558276643991	246.6996371882086	69	127
246.6996371882086	246.94344671201813	71	127
246.6996371882086	246.94344671201813	68	127
246.6996371882086	246.90861678004535	52	127
246.6996371882086	246.94344671201813	49	127
246.94344671201813	247.12920634920636	69	127
246.94344671201813	247.12920634920636	66	127
246.94344671201813	247.12920634920636	54	127
246.94344671201813	247.12920634920636	51	127
247.1756462585034	248.9984126984127	64	127
247.1756462585034	247.62843537414966	56	127
247.1756462585034	247.88385487528345	52	127
247.1756462585034	248.7197732426304	68	127
247.62843537414966	248.3366439909297	59	127
247.88385487528345	248.1160544217687	54	127
248.1160544217687	248.30181405895692	51	127
248.30181405895692	248.53401360544217	52	127
248.53401360544217	248.75460317460318	64	127
248.53401360544217	248.75460317460318	49	127
248.75460317460318	248.80104308390023	69	127
248.75460317460318	248.9984126984127	66	127
248.75460317460318	248.9984126984127	51	127
248.80104308390023	248.8707029478458	68	127
248.8707029478458	248.92875283446713	66	127
248.92875283446713	248.9984126984127	68	127
248.9984126984127	249.46281179138322	66	127
248.9984126984127	249.19578231292516	63	127
248.9984126984127	249.19578231292516	47	127
248.9984126984127	249.46281179138322	69	127
249.19578231292516	249.46281179138322	64	127
249.19578231292516	249.46281179138322	49	127
249.46281179138322	249.6950113378685	61	127
249.46281179138322	249.6950113378685	45	127
249.46281179138322	249.8459410430839	63	127
249.46281179138322	249.89238095238096	66	127
249.6950113378685	249.938820861678	63	127
249.6950113378685	249.938820861678	47	127
249.95043083900228	250.1942403628118	64	127
249.95043083900228	250.07814058956916	71	127
249.95043083900228	250.1942403628118	59	127
249.95043083900228	250.1942403628118	44	127
250.1942403628118	250.44965986394558	63	127
250.1942403628118	250.44965986394558	61	127
250.1942403628118	250.44965986394558	45	127
250.1942403628118	250.32195011337868	76	127
250.44965986394558	251.62226757369615	71	127
250.44965986394558	250.68185941043083	66	127
250.44965986394558	250.68185941043083	57	127
250.44965986394558	250.68185941043083	42	127
250.68185941043083	250.92566893424035	59	127
250.68185941043083	250.92566893424035	44	127
250.68185941043083	250.92566893424035	64	127
250.92566893424035	251.14625850340136	56	127
250.92566893424035	251.14625850340136	40	127
250.92566893424035	251.14625850340136	68	127
251.14625850340136	251.33201814058958	66	127
251.14625850340136	251.33201814058958	57	127
251.14625850340136	251.33201814058958	42	127
251.37845804988663	251.62226757369615	69	127
251.37845804988663	251.62226757369615	54	127
251.37845804988663	251.62226757369615	39	127
251.62226757369615	251.79641723356008	51	127
251.62226757369615	251.79641723356008	42	127
251.62226757369615	251.79641723356008	66	127
251.62226757369615	251.8312471655329	70	127
251.8312471655329	252.06344671201813	69	127
251.8312471655329	252.2027664399093	63	127
251.8312471655329	252.2027664399093	54	127
251.8312471655329	252.2027664399093	47	127
252.06344671201813	252.30725623582765	68	127
252.30725623582765	252.59750566893425	69	127
252.59750566893425	252.79487528344671	66	127
252.84131519274376	253.38698412698412	64	127
252.84131519274376	252.9806349206349	68	127
252.84131519274376	252.9806349206349	64	127
252.84131519274376	253.38698412698412	68	127
252.9806349206349	253.10834467120182	68	127
252.9806349206349	253.10834467120182	71	127
253.10834467120182	253.2128344671202	76	127
253.10834467120182	253.2128344671202	71	127
253.24766439909297	254.36222222222221	76	127
253.24766439909297	254.36222222222221	80	127
253.38698412698412	253.5495238095238	69	127
253.38698412698412	253.5495238095238	66	127
253.5495238095238	253.7120634920635	68	127
253.5495238095238	253.7120634920635	64	127
253.7120634920635	253.8629931972789	66	127
253.7120634920635	253.8629931972789	63	127
253.8629931972789	254.0255328798186	68	127
253.8629931972789	254.0255328798186	64	127
254.0255328798186	254.15324263038548	63	127
254.0255328798186	254.15324263038548	66	127
254.1880725623583	254.32739229024943	61	127
254.1880725623583	254.32739229024943	64	127
254.32739229024943	254.47832199546485	66	127
254.32739229024943	254.47832199546485	63	127
254.40866213151926	254.46671201814058	81	127
254.40866213151926	254.46671201814058	78	127
254.46671201814058	254.5247619047619	80	127
254.46671201814058	254.5247619047619	76	127
254.47832199546485	254.60603174603173	64	127
254.47832199546485	254.60603174603173	61	127
254.5247619047619	254.58281179138322	78	127
254.5247619047619	254.58281179138322	75	127
254.58281179138322	254.60603174603173	80	127
254.58281179138322	254.60603174603173	76	127
254.60603174603173	255.03560090702948	81	127
254.60603174603173	254.76857142857142	63	127
254.60603174603173	254.76857142857142	59	127
254.60603174603173	255.03560090702948	78	127
254.76857142857142	254.89628117913833	64	127
254.76857142857142	254.89628117913833	61	127
254.89628117913833	255.03560090702948	59	127
254.89628117913833	255.03560090702948	63	127
255.03560090702948	255.19814058956916	57	127
255.03560090702948	255.41873015873017	75	127
255.03560090702948	255.19814058956916	61	127
255.03560090702948	255.41873015873017	78	127
255.19814058956916	255.36068027210885	63	127
255.19814058956916	255.36068027210885	59	127
255.36068027210885	255.46517006802722	57	127
255.36068027210885	255.46517006802722	61	127
255.52321995464854	255.76702947845806	83	127
255.52321995464854	255.91795918367347	76	127
255.52321995464854	255.91795918367347	59	127
255.52321995464854	255.91795918367347	56	127
255.76702947845806	256.02244897959184	82	127
256.02244897959184	256.2662585034014	81	127
256.02244897959184	256.2662585034014	78	127
256.2662585034014	256.46362811791386	80	127
256.2662585034014	256.46362811791386	76	127
256.46362811791386	256.7190476190476	81	127
256.46362811791386	256.7190476190476	78	127
256.46362811791386	256.7190476190476	59	127
256.46362811791386	256.86997732426306	59	127
256.7190476190476	256.9164172335601	78	127
256.7190476190476	256.9164172335601	75	127
256.7190476190476	256.9164172335601	69	127
256.97446712018143	257.33437641723356	76	127
256.97446712018143	257.33437641723356	68	127
256.97446712018143	257.33437641723356	52	127
257.4388662131519	257.8219954648526	64	127
258.4605442176871	258.59986394557825	63	127
258.4605442176871	258.7159637188209	66	127
258.4605442176871	258.8668934240363	59	127
258.4605442176871	258.8668934240363	47	127
258.634693877551	258.75079365079364	66	127
258.7159637188209	258.9249206349206	63	127
258.7972335600907	258.9481632653061	71	127
258.9829931972789	259.1107029478458	75	127
258.9829931972789	260.0859410430839	66	127
259.13390022675736	259.25002267573694	78	127
259.2732426303855	259.3545124716553	83	127
259.3893424036281	259.517052154195	78	127
259.3893424036281	259.87696145124715	71	127
259.3893424036281	259.87696145124715	63	127
259.54024943310657	259.6795918367347	75	127
259.7028117913832	259.8421315192744	71	127
259.87696145124715	260.23687074829934	61	127
259.87696145124715	259.96984126984125	76	127
259.87696145124715	260.23687074829934	70	127
260.00467120181406	260.14399092970524	73	127
260.0859410430839	260.29492063492063	73	127
260.1672108843537	260.3065306122449	71	127
260.3413605442177	260.45746031746035	70	127
260.3413605442177	261.3978684807256	66	127
260.4922902494331	260.62	68	127
260.6548299319728	260.68965986394556	66	127
260.7244897959184	260.82897959183674	64	127
260.7244897959184	261.1656689342404	61	127
260.7244897959184	261.1656689342404	46	127
260.82897959183674	260.9682993197279	66	127
261.00312925170067	261.1308390022676	64	127
261.1656689342404	261.502358276644	59	127
261.1656689342404	261.29337868480724	63	127
261.1656689342404	261.502358276644	47	127
261.32820861678005	261.4443083900227	66	127
261.3978684807256	261.5604081632653	63	127
261.45591836734695	261.5720181405896	71	127
261.59521541950113	261.722947845805	75	127
261.59521541950113	262.6168934240363	71	127
261.59521541950113	262.67496598639457	66	127
261.7461678004535	261.82743764172335	78	127
261.86226757369616	261.9667573696145	83	127
262.00156462585034	262.1060544217687	78	127
262.00156462585034	262.45437641723356	63	127
262.1292970521542	262.26861678004536	75	127
262.30342403628117	262.431156462585	71	127
262.45437641723356	262.7910657596372	61	127
262.45437641723356	262.58208616780047	76	127
262.6168934240363	262.7097732426304	73	127
262.6168934240363	262.73301587301586	70	127
262.67496598639457	262.8375056689342	73	127
262.73301587301586	262.8375056689342	71	127
262.73301587301586	262.8491156462585	71	127
262.8491156462585	262.96521541950113	70	127
262.8491156462585	264.05655328798184	66	127
262.8491156462585	263.2090249433107	73	127
263.00004535147394	263.1161451247166	68	127
263.15097505668933	263.22061224489795	66	127
263.24385487528343	263.40639455782315	64	127
263.24385487528343	263.6734240362812	46	127
263.24385487528343	263.6734240362812	61	127
263.40639455782315	263.5108843537415	66	127
263.54571428571427	263.65020408163264	64	127
263.6734240362812	264.05655328798184	59	127
263.6734240362812	263.8011337868481	63	127
263.6734240362812	264.05655328798184	47	127
263.8359410430839	263.9520634920635	66	127
263.9868934240363	264.12621315192746	71	127
264.149410430839	264.2655328798186	75	127
264.3003628117914	264.3932426303855	78	127
264.4280725623583	264.53256235827666	83	127
264.5673922902494	265.35687074829934	71	127
264.5673922902494	264.7067120181406	81	127
264.5673922902494	265.04340136054424	63	127
264.7067120181406	264.8344217687075	80	127
264.86925170068025	265.00857142857143	79	127
265.04340136054424	265.35687074829934	64	127
265.04340136054424	265.18272108843536	81	127
265.18272108843536	265.252380952381	80	127
265.2872108843537	265.4265306122449	83	127
265.4613605442177	265.58907029478456	81	127
265.62390022675737	265.76321995464855	80	127
265.7980498866213	265.80965986394557	78	127
265.80965986394557	265.91414965986394	76	127
265.94897959183675	266.09990929705214	75	127
266.1463492063492	266.26244897959185	73	127
266.3088888888889	266.4365986394558	80	127
266.4365986394558	266.57591836734696	76	127
266.6107482993197	266.70360544217687	73	127
266.7384580498866	267.53954648526076	54	127
266.7384580498866	267.13319727891155	71	127
266.7384580498866	267.2492970521542	63	127
267.2492970521542	267.7485260770975	58	127
267.2492970521542	267.4350566893424	75	127
267.2492970521542	267.49310657596374	66	127
267.49310657596374	267.7020861678005	73	127
267.49310657596374	267.7020861678005	64	127
267.7485260770975	269.33909297052156	71	127
267.7485260770975	268.2361224489796	63	127
267.7485260770975	268.2361224489796	59	127
267.7485260770975	268.6657142857143	59	127
268.2361224489796	268.6657142857143	61	127
268.2361224489796	268.6657142857143	64	127
268.6657142857143	269.1301133786848	57	127
268.6657142857143	269.095283446712	66	127
268.6657142857143	269.095283446712	63	127
269.1301133786848	269.65256235827667	65	127
269.1301133786848	269.65256235827667	56	127
269.1301133786848	269.65256235827667	68	127
269.3855328798186	269.61773242630386	74	127
269.65256235827667	270.12857142857143	66	127
269.65256235827667	270.12857142857143	69	127
269.65256235827667	270.12857142857143	54	127
270.12857142857143	270.5465306122449	53	127
270.12857142857143	270.372380952381	73	127
270.12857142857143	270.5465306122449	71	127
270.12857142857143	270.5465306122449	68	127
270.372380952381	270.62780045351474	68	127
270.6510204081633	271.1386394557823	66	127
270.6510204081633	270.9180498866213	71	127
270.6510204081633	271.1386394557823	63	127
270.6510204081633	271.1386394557823	54	127
270.9180498866213	271.1154195011338	69	127
271.1386394557823	271.5914285714286	64	127
271.1386394557823	271.5914285714286	52	127
271.1386394557823	271.5914285714286	68	127
271.5914285714286	271.8584580498866	73	127
271.5914285714286	271.9977777777778	69	127
271.5914285714286	271.9977777777778	66	127
271.5914285714286	271.9977777777778	51	127
271.8584580498866	272.0558276643991	71	127
272.10226757369617	272.5318140589569	52	127
272.10226757369617	272.3228344671202	69	127
272.10226757369617	272.3228344671202	63	127
272.10226757369617	272.43895691609976	59	127
272.3228344671202	272.5318140589569	68	127
272.3228344671202	272.5318140589569	64	127
272.5318140589569	273.0310657596372	49	127
272.5318140589569	272.7756462585034	66	127
272.5318140589569	272.7756462585034	63	127
272.7756462585034	273.0310657596372	64	127
273.0310657596372	273.4490022675737	61	127
273.0310657596372	273.286485260771	71	127
273.0310657596372	273.286485260771	68	127
273.0310657596372	273.4490022675737	45	127
273.286485260771	273.5419047619048	69	127
273.286485260771	273.5419047619048	66	127
273.55349206349206	274.5287528344671	47	127
273.55349206349206	274.07596371882084	68	127
273.55349206349206	274.07596371882084	64	127
273.55349206349206	274.34299319727893	59	127
274.07596371882084	274.435873015873	66	127
274.07596371882084	274.435873015873	63	127
274.5287528344671	274.9467120181406	45	127
275.05120181405897	278.38326530612244	83	127
275.05120181405897	275.2949886621315	59	127
275.05120181405897	276.4792290249433	44	127
275.2949886621315	275.5504308390023	61	127
275.5504308390023	275.7710204081633	63	127
275.5504308390023	275.7710204081633	59	127
275.7710204081633	276.02643990929704	64	127
275.7710204081633	276.02643990929704	61	127
276.02643990929704	276.2354195011338	66	127
276.02643990929704	276.2354195011338	63	127
276.2354195011338	276.43278911564624	64	127
276.2354195011338	276.43278911564624	68	127
276.4792290249433	276.72301587301587	69	127
276.4792290249433	276.72301587301587	66	127
276.4792290249433	277.68666666666667	42	127
276.72301587301587	276.9784580498866	68	127
276.72301587301587	276.9784580498866	71	127
276.9784580498866	277.2222675736962	69	127
276.9784580498866	277.2222675736962	73	127
277.2222675736962	277.4892970521542	71	127
277.2222675736962	277.4892970521542	75	127
277.4892970521542	277.744693877551	76	127
277.4892970521542	277.744693877551	73	127
277.744693877551	277.95367346938775	78	127
277.744693877551	277.95367346938775	75	127
278.0001360544218	278.38326530612244	40	127
278.0001360544218	278.38326530612244	80	127
278.0001360544218	278.38326530612244	76	127
278.47614512471654	278.8360544217687	84	127
278.8360544217687	279.28884353741495	46	127
278.8360544217687	279.28884353741495	85	127
278.8360544217687	279.28884353741495	76	127
278.8360544217687	279.28884353741495	68	127
279.32367346938776	279.9041723356009	59	127
279.32367346938776	279.7996825396825	76	127
279.32367346938776	279.7996825396825	68	127
279.32367346938776	280.2873015873016	47	127
279.7996825396825	279.95061224489797	75	127
279.7996825396825	279.95061224489797	66	127
280.05510204081634	280.24086167800453	51	127
280.05510204081634	280.2873015873016	73	127
280.05510204081634	280.2873015873016	69	127
280.2873015873016	280.46145124716554	52	127
280.2873015873016	280.5078684807256	71	127
280.2873015873016	280.5078684807256	68	127
280.2873015873016	280.5078684807256	49	127
280.5078684807256	280.7168707482993	54	127
280.5078684807256	280.7168707482993	69	127
280.5078684807256	280.7168707482993	66	127
280.5078684807256	280.7168707482993	51	127
280.7633106575964	282.249387755102	68	127
280.7633106575964	282.5628571428571	64	127
280.7633106575964	281.3902494331066	52	127
280.7633106575964	281.18126984126985	56	127
281.18126984126985	281.86625850340135	59	127
281.3902494331066	281.58761904761906	54	127
281.58761904761906	281.80820861678006	51	127
281.80820861678006	282.04038548752834	52	127
282.04038548752834	282.2958276643991	49	127
282.04038548752834	282.2958276643991	64	127
282.2958276643991	282.3770975056689	69	127
282.2958276643991	282.5628571428571	66	127
282.2958276643991	282.5628571428571	51	127
282.3770975056689	282.4351473922903	68	127
282.4351473922903	282.49319727891157	66	127
282.49319727891157	282.5628571428571	68	127
282.5628571428571	283.0620634920635	69	127
282.5628571428571	282.81827664399094	63	127
282.5628571428571	282.81827664399094	47	127
282.5628571428571	283.0620634920635	66	127
282.81827664399094	283.0620634920635	64	127
282.81827664399094	283.0620634920635	49	127
283.0620634920635	283.2942857142857	61	127
283.0620634920635	283.2942857142857	45	127
283.0620634920635	283.44521541950115	63	127
283.0620634920635	283.50326530612244	66	127
283.2942857142857	283.53809523809525	63	127
283.2942857142857	283.53809523809525	47	127
283.5497052154195	283.67739229024943	71	127
283.5497052154195	283.7702721088435	64	127
283.5497052154195	283.7702721088435	59	127
283.5497052154195	283.7702721088435	44	127
283.7702721088435	283.8980045351474	76	127
283.7702721088435	284.00249433106575	63	127
283.7702721088435	284.00249433106575	61	127
283.7702721088435	284.00249433106575	45	127
284.00249433106575	285.1867120181406	71	127
284.00249433106575	284.22308390022675	66	127
284.00249433106575	284.22308390022675	57	127
284.00249433106575	284.22308390022675	42	127
284.22308390022675	284.4320634920635	44	127
284.22308390022675	284.4320634920635	59	127
284.22308390022675	284.4320634920635	64	127
284.4320634920635	284.67587301587304	68	127
284.4320634920635	284.67587301587304	40	127
284.4320634920635	284.67587301587304	56	127
284.67587301587304	284.8848526077098	66	127
284.67587301587304	284.8848526077098	57	127
284.67587301587304	284.8848526077098	42	127
284.9312925170068	285.1867120181406	69	127
284.9312925170068	285.1867120181406	54	127
284.9312925170068	285.1867120181406	39	127
285.1867120181406	285.36086167800454	66	127
285.1867120181406	285.36086167800454	51	127
285.1867120181406	285.36086167800454	42	127
285.1867120181406	285.4072789115646	70	127
285.4072789115646	285.8252380952381	47	127
285.4072789115646	285.67433106575965	69	127
285.4072789115646	285.8252380952381	63	127
285.4072789115646	285.8252380952381	54	127
285.67433106575965	285.9181179138322	68	127
285.9181179138322	286.17356009070295	69	127
286.17356009070295	286.35931972789115	66	127
286.4057596371882	287.0559183673469	68	127
286.4057596371882	286.5682993197279	68	127
286.4057596371882	286.5682993197279	64	127
286.4057596371882	287.0559183673469	64	127
286.5682993197279	286.7308390022676	71	127
286.5682993197279	286.7308390022676	68	127
286.7308390022676	286.85854875283445	76	127
286.7308390022676	286.85854875283445	71	127
286.89337868480726	287.9614739229025	80	127
286.89337868480726	287.9614739229025	76	127
287.0559183673469	287.1836281179138	69	127
287.0559183673469	287.1836281179138	66	127
287.1836281179138	287.322947845805	64	127
287.1836281179138	287.322947845805	68	127
287.322947845805	287.49709750566893	66	127
287.322947845805	287.49709750566893	63	127
287.49709750566893	287.65961451247165	64	127
287.49709750566893	287.65961451247165	68	127
287.65961451247165	287.7873469387755	63	127
287.65961451247165	287.7873469387755	66	127
287.79895691609977	287.93827664399095	64	127
287.79895691609977	287.93827664399095	61	127
287.93827664399095	288.08920634920634	66	127
287.93827664399095	288.08920634920634	63	127
288.0079365079365	288.06596371882085	81	127
288.0079365079365	288.06596371882085	78	127
288.06596371882085	288.12403628117914	80	127
288.06596371882085	288.12403628117914	76	127
288.08920634920634	288.2285260770975	61	127
288.08920634920634	288.2285260770975	64	127
288.12403628117914	288.18208616780043	78	127
288.12403628117914	288.18208616780043	75	127
288.18208616780043	288.2285260770975	76	127
288.18208616780043	288.2285260770975	80	127
288.2285260770975	288.40267573696144	63	127
288.2285260770975	288.40267573696144	59	127
288.2285260770975	288.6812925170068	81	127
288.2285260770975	288.6812925170068	78	127
288.40267573696144	288.5187755102041	64	127
288.40267573696144	288.5187755102041	61	127
288.5187755102041	288.6812925170068	59	127
288.5187755102041	288.6812925170068	63	127
288.6812925170068	288.8322448979592	57	127
288.6812925170068	289.0528344671202	75	127
288.6812925170068	288.8322448979592	61	127
288.6812925170068	289.0528344671202	78	127
288.8322448979592	288.98315192743763	59	127
288.8322448979592	288.98315192743763	63	127
288.98315192743763	289.0992743764172	61	127
288.98315192743763	289.0992743764172	57	127
289.1457142857143	289.38952380952384	83	127
289.1457142857143	289.5404535147392	76	127
289.1457142857143	289.5404535147392	59	127
289.1457142857143	289.5404535147392	56	127
289.38952380952384	289.6449433106576	82	127
289.6449433106576	289.9003628117914	78	127
289.6449433106576	289.9003628117914	81	127
289.9003628117914	290.15578231292517	80	127
289.9003628117914	290.15578231292517	76	127
290.15578231292517	290.411201814059	81	127
290.15578231292517	290.411201814059	78	127
290.15578231292517	290.411201814059	59	127
290.15578231292517	290.5621315192744	59	127
290.411201814059	290.60857142857145	78	127
290.411201814059	290.60857142857145	75	127
290.411201814059	290.60857142857145	69	127
290.66662131519274	291.07297052154195	76	127
290.66662131519274	291.07297052154195	68	127
290.66662131519274	291.07297052154195	52	127
291.1774603174603	291.5838095238095	64	127
292.21074829931973	293.0698866213152	57	127
292.21074829931973	293.0698866213152	57	127
292.21074829931973	293.0698866213152	45	127
293.0698866213152	293.4994557823129	61	127
293.0698866213152	293.4994557823129	61	127
293.0698866213152	293.4994557823129	49	127
293.5342857142857	294.0451247165533	64	127
293.5342857142857	294.0451247165533	64	127
293.5342857142857	294.0451247165533	52	127
294.0451247165533	294.4398639455782	62	127
294.0451247165533	294.4398639455782	62	127
294.0451247165533	294.4398639455782	50	127
295.1132426303855	296.00721088435375	59	127
295.1132426303855	296.00721088435375	59	127
295.1132426303855	296.00721088435375	47	127
296.00721088435375	296.4251700680272	62	127
296.00721088435375	296.4251700680272	62	127
296.00721088435375	296.4251700680272	50	127
296.47160997732425	296.9824489795918	54	127
296.47160997732425	296.9824489795918	66	127
296.47160997732425	296.9824489795918	66	127
296.9824489795918	297.3539682539683	64	127
296.9824489795918	297.3539682539683	64	127
296.9824489795918	297.3539682539683	52	127
297.9808843537415	299.28122448979593	61	127
297.9808843537415	298.224716553288	76	127
297.9808843537415	299.28122448979593	64	127
298.32920634920634	298.7007029478458	76	127
298.80519274376417	299.17673469387756	76	127
299.28122448979593	300.68603174603174	62	127
299.28122448979593	299.73401360544216	76	127
299.28122448979593	300.68603174603174	66	127
299.73401360544216	299.9778231292517	74	127
300.04748299319726	300.15197278911563	73	127
300.18680272108844	300.5815419501134	71	127
300.68603174603174	302.04439909297054	68	127
300.68603174603174	301.03433106575966	74	127
300.68603174603174	302.04439909297054	64	127
301.12721088435376	301.5103401360544	74	127
301.6148299319728	301.9631292517007	74	127
302.04439909297054	302.462358276644	69	127
302.04439909297054	302.462358276644	57	127
302.04439909297054	302.54362811791384	74	127
302.54362811791384	302.71777777777777	73	127
302.7990476190476	302.90353741496597	71	127
302.9267573696145	303.35632653061225	69	127
303.4608163265306	304.26190476190476	69	127
303.4608163265306	303.6581859410431	69	127
303.90199546485263	304.0645351473923	69	127
304.26190476190476	304.44766439909296	69	127
304.26190476190476	304.6102040816327	73	127
304.6450340136054	305.07460317460317	69	127
304.6450340136054	305.07460317460317	78	127
305.07460317460317	305.36485260770974	68	127
305.07460317460317	305.4693424036281	76	127
305.4460997732426	305.550589569161	66	127
305.5738321995465	305.99179138321995	64	127
306.0730612244898	306.2704081632653	67	127
306.0730612244898	306.2704081632653	64	127
306.0730612244898	306.89736961451246	76	127
306.0730612244898	306.89736961451246	64	127
306.5026303854875	306.7	67	127
306.5026303854875	306.7	64	127
306.89736961451246	307.12956916099773	67	127
306.89736961451246	307.12956916099773	64	127
306.89736961451246	307.33854875283447	79	127
306.89736961451246	307.33854875283447	67	127
307.3965759637188	307.79133786848075	84	127
307.3965759637188	307.79133786848075	72	127
307.3965759637188	307.79133786848075	67	127
307.3965759637188	307.79133786848075	64	127
307.79133786848075	308.0467573696145	66	127
307.79133786848075	308.0467573696145	63	127
307.79133786848075	308.11641723356007	83	127
307.79133786848075	308.11641723356007	71	127
308.0931972789116	308.19768707482996	64	127
308.0931972789116	308.19768707482996	61	127
308.22090702947844	308.6388662131519	63	127
308.22090702947844	308.6388662131519	59	127
308.7201133786848	309.61410430839004	76	127
309.61410430839004	309.9043537414966	80	127
309.92757369614515	310.0901133786848	85	127
309.92757369614515	310.61256235827665	51	127
310.0901133786848	310.5080725623583	83	127
310.61256235827665	311.15823129251703	54	127
311.1930612244898	311.6690702947846	57	127
311.1930612244898	312.1682993197279	64	127
311.6690702947846	312.0870294784581	56	127
312.1682993197279	312.65591836734694	68	127
312.702335600907	313.59632653061226	39	127
312.702335600907	313.1667573696145	73	127
313.1667573696145	313.4918367346939	71	127
313.59632653061226	313.96784580498866	42	127
314.00267573696146	314.3625850340136	71	127
314.00267573696146	314.4438321995465	45	127
314.00267573696146	314.3625850340136	83	127
314.4438321995465	314.8153741496599	83	127
314.4438321995465	314.8153741496599	71	127
314.4438321995465	314.8153741496599	44	127
314.91986394557824	315.23333333333335	83	127
314.91986394557824	315.23333333333335	71	127
315.3378231292517	315.63968253968255	63	127
315.3378231292517	315.63968253968255	57	127
315.3378231292517	315.7441723356009	83	127
315.3378231292517	315.7441723356009	71	127
315.7441723356009	316.04603174603176	81	127
315.7441723356009	316.04603174603176	69	127
315.7441723356009	316.13891156462586	63	127
315.7441723356009	316.13891156462586	57	127
316.1156916099773	316.2201814058957	80	127
316.1156916099773	316.2201814058957	68	127
316.2434013605442	316.64975056689343	78	127
316.2434013605442	316.64975056689343	66	127
316.2434013605442	316.64975056689343	63	127
316.2434013605442	316.64975056689343	57	127
316.7542403628118	317.1141496598639	83	127
316.7542403628118	317.1141496598639	71	127
316.7542403628118	317.2070068027211	63	127
316.7542403628118	317.2070068027211	57	127
317.2070068027211	317.45083900226757	64	127
317.2070068027211	317.45083900226757	56	127
317.2070068027211	317.54371882086167	83	127
317.2070068027211	317.54371882086167	71	127
317.52049886621313	317.6249886621315	66	127
317.52049886621313	317.6249886621315	54	127
317.64820861678004	317.99650793650795	83	127
317.64820861678004	317.99650793650795	71	127
317.64820861678004	317.99650793650795	68	127
317.64820861678004	317.99650793650795	52	127
318.0777777777778	318.5189569160998	83	127
318.0777777777778	318.5189569160998	71	127
318.0777777777778	318.5189569160998	63	127
318.0777777777778	318.5189569160998	57	127
318.5189569160998	318.7975963718821	81	127
318.5189569160998	318.7975963718821	69	127
318.5189569160998	318.8788662131519	63	127
318.5189569160998	318.8788662131519	57	127
318.8788662131519	318.93691609977327	80	127
318.8788662131519	318.93691609977327	68	127
318.96013605442175	319.3432653061225	66	127
318.96013605442175	319.3432653061225	78	127
318.96013605442175	319.3432653061225	63	127
318.96013605442175	319.3432653061225	57	127
319.44775510204084	319.7147845804989	74	127
319.44775510204084	319.94698412698415	66	127
319.44775510204084	319.94698412698415	57	127
319.44775510204084	319.7147845804989	83	127
319.94698412698415	320.1559637188209	83	127
319.94698412698415	320.1559637188209	74	127
319.94698412698415	320.2024036281179	65	127
319.94698412698415	320.2024036281179	56	127
320.2720408163265	320.35333333333335	66	127
320.2720408163265	320.35333333333335	54	127
320.3765306122449	320.6087528344671	83	127
320.3765306122449	320.6087528344671	74	127
320.3765306122449	320.7712925170068	68	127
320.3765306122449	320.7712925170068	53	127
320.8757823129252	321.3401814058957	73	127
320.8757823129252	321.1195918367347	82	127
320.8757823129252	321.27052154195013	61	127
320.8757823129252	321.27052154195013	54	127
321.1195918367347	321.29371882086167	78	127
321.3401814058957	321.81619047619046	72	127
321.3401814058957	322.013537414966	81	127
321.3401814058957	322.013537414966	66	127
321.3401814058957	322.013537414966	51	127
321.81619047619046	322.12965986394556	71	127
322.013537414966	322.14126984126983	80	127
322.013537414966	322.14126984126983	68	127
322.013537414966	322.14126984126983	52	127
322.1993197278912	322.4082993197279	80	127
322.1993197278912	322.5940589569161	73	127
322.1993197278912	322.5940589569161	69	127
322.1993197278912	322.5940589569161	45	127
322.45473922902494	322.64049886621314	78	127
322.6985487528345	323.0352154195011	76	127
322.6985487528345	323.0352154195011	71	127
322.6985487528345	323.0352154195011	68	127
322.6985487528345	323.0352154195011	47	127
323.11650793650796	323.4996371882086	69	127
323.11650793650796	323.4996371882086	75	127
323.11650793650796	323.4996371882086	66	127
323.11650793650796	323.4996371882086	48	127
323.604126984127	323.74342403628117	76	127
323.604126984127	323.9988662131519	68	127
323.604126984127	323.9988662131519	64	127
323.604126984127	323.9988662131519	49	127
323.871156462585	324.091746031746	80	127
324.091746031746	324.3239455782313	78	127
324.3239455782313	324.56773242630385	76	127
324.56773242630385	324.7651247165533	75	127
324.7651247165533	324.99732426303854	73	127
324.99732426303854	325.39206349206347	71	127
324.99732426303854	326.3324716553288	59	127
324.99732426303854	326.3324716553288	56	127
325.49655328798184	325.71714285714285	71	127
325.8216326530612	326.2279818594104	71	127
326.3324716553288	327.4353968253968	57	127
326.3324716553288	326.8084807256236	71	127
326.3324716553288	327.4353968253968	61	127
326.8084807256236	327.07551020408164	69	127
327.13356009070293	327.2148299319728	68	127
327.2380498866213	327.6560090702948	66	127
327.76049886621314	328.1320181405896	63	127
327.76049886621314	328.1320181405896	47	127
327.76049886621314	328.4687074829932	69	127
327.76049886621314	328.4687074829932	54	127
328.2248979591837	328.60802721088436	63	127
328.2248979591837	328.60802721088436	47	127
328.4687074829932	328.70090702947846	66	127
328.4687074829932	328.70090702947846	57	127
328.70090702947846	328.92149659863946	69	127
328.70090702947846	328.92149659863946	54	127
328.70090702947846	329.06079365079364	63	127
328.70090702947846	329.06079365079364	47	127
328.92149659863946	329.0956462585034	66	127
328.92149659863946	329.0956462585034	57	127
329.11886621315193	329.49038548752833	64	127
329.11886621315193	329.49038548752833	56	127
329.11886621315193	329.49038548752833	40	127
330.59331065759636	330.976462585034	71	127
330.59331065759636	330.976462585034	68	127
331.05773242630386	331.3479818594104	71	127
331.05773242630386	331.3479818594104	68	127
331.4524716553288	331.812380952381	71	127
331.4524716553288	331.812380952381	68	127
331.91687074829935	332.41609977324265	68	127
331.91687074829935	333.0894784580499	47	127
331.91687074829935	332.41609977324265	71	127
331.91687074829935	333.0894784580499	59	127
332.41609977324265	332.6831292517007	66	127
332.41609977324265	332.6831292517007	69	127
332.7643990929705	332.8688888888889	64	127
332.7643990929705	332.8688888888889	68	127
332.8921088435374	333.2984580498866	66	127
332.8921088435374	333.2984580498866	63	127
333.402947845805	333.85573696145127	73	127
333.402947845805	333.85573696145127	69	127
333.9370068027211	334.285283446712	73	127
333.9370068027211	334.285283446712	69	127
334.3781632653061	334.5291156462585	73	127
334.3781632653061	334.5291156462585	69	127
334.6219954648526	335.10961451247164	73	127
334.6219954648526	335.10961451247164	69	127
334.6219954648526	335.82943310657595	64	127
334.6219954648526	335.82943310657595	52	127
335.10961451247164	335.42308390022674	71	127
335.10961451247164	335.42308390022674	68	127
335.50433106575963	335.608820861678	69	127
335.50433106575963	335.608820861678	66	127
335.6320634920635	335.99197278911566	68	127
335.6320634920635	335.99197278911566	64	127
337.6638095238095	337.9540362811791	61	127
337.6638095238095	337.9540362811791	57	127
338.0585260770975	338.45328798185943	61	127
338.0585260770975	338.45328798185943	57	127
338.5577777777778	338.90607709750566	61	127
338.5577777777778	338.90607709750566	57	127
339.010566893424	340.0554648526077	61	127
339.010566893424	339.4285260770975	61	127
339.010566893424	339.4285260770975	57	127
339.010566893424	340.0554648526077	73	127
339.4285260770975	339.6491156462585	56	127
339.4285260770975	339.6491156462585	59	127
339.73038548752834	339.82326530612244	57	127
339.73038548752834	339.82326530612244	54	127
339.846485260771	340.2528344671202	53	127
339.846485260771	340.2528344671202	56	127
340.3457142857143	340.76367346938775	62	127
340.3457142857143	340.76367346938775	59	127
340.8681632653061	341.2512925170068	62	127
340.8681632653061	341.2512925170068	59	127
341.3209523809524	341.6343990929705	62	127
341.3209523809524	341.6343990929705	59	127
341.7273015873016	342.12204081632655	62	127
341.7273015873016	342.12204081632655	59	127
341.7273015873016	342.7954195011338	78	127
341.7273015873016	342.7954195011338	66	127
342.12204081632655	342.40068027210884	61	127
342.12204081632655	342.40068027210884	57	127
342.4703401360544	342.5748299319728	59	127
342.4703401360544	342.5748299319728	56	127
342.5980498866213	342.96954648526076	57	127
342.5980498866213	342.96954648526076	54	127
343.06244897959186	343.4571882086168	79	127
343.06244897959186	343.4571882086168	67	127
343.06244897959186	343.4571882086168	49	127
343.06244897959186	348.3101587301587	57	127
343.53845804988663	343.9215873015873	67	127
343.53845804988663	343.9215873015873	49	127
343.53845804988663	343.9215873015873	79	127
344.0028571428571	344.25827664399094	67	127
344.0028571428571	344.25827664399094	49	127
344.0028571428571	344.25827664399094	79	127
344.3627664399093	344.8736054421769	67	127
344.3627664399093	344.8736054421769	49	127
344.3627664399093	344.8736054421769	79	127
344.8736054421769	345.187074829932	66	127
344.8736054421769	345.187074829932	50	127
344.8736054421769	345.187074829932	78	127
345.2451247165533	345.34961451247165	76	127
345.2451247165533	345.34961451247165	64	127
345.2451247165533	345.34961451247165	52	127
345.3728344671202	345.7443537414966	62	127
345.3728344671202	345.7443537414966	74	127
345.3728344671202	345.7443537414966	54	127
345.82562358276647	346.1739229024943	49	127
345.82562358276647	346.1739229024943	67	127
345.82562358276647	346.1739229024943	79	127
346.2784126984127	346.66154195011336	67	127
346.2784126984127	346.66154195011336	49	127
346.2784126984127	346.66154195011336	79	127
346.7543990929705	347.0911111111111	67	127
346.7543990929705	347.0911111111111	49	127
346.7543990929705	347.0911111111111	79	127
347.1607482993197	347.66	67	127
347.1607482993197	347.66	49	127
347.1607482993197	347.66	79	127
347.66	347.97344671201813	66	127
347.66	347.97344671201813	50	127
347.66	347.97344671201813	78	127
348.01990929705215	348.101179138322	76	127
348.01990929705215	348.101179138322	64	127
348.01990929705215	348.101179138322	52	127
348.1243990929705	348.5075283446712	62	127
348.1243990929705	348.5075283446712	74	127
348.1243990929705	348.5075283446712	54	127
348.6004081632653	348.983537414966	83	127
348.6004081632653	348.983537414966	73	127
348.6004081632653	348.983537414966	64	127
348.6004081632653	348.983537414966	55	127
349.0764172335601	349.4479365079365	83	127
349.0764172335601	349.4479365079365	73	127
349.0764172335601	349.4479365079365	64	127
349.0764172335601	349.4479365079365	55	127
349.5408163265306	349.7265759637188	83	127
349.5408163265306	349.7265759637188	73	127
349.5408163265306	349.7265759637188	64	127
349.5408163265306	349.7265759637188	55	127
349.7962358276644	350.1445351473923	83	127
349.7962358276644	350.1445351473923	73	127
349.7962358276644	350.1445351473923	64	127
349.7962358276644	350.1445351473923	55	127
351.2707029478458	351.79315192743763	73	127
351.79315192743763	352.28077097505667	74	127
352.28077097505667	352.8148299319728	71	127
352.8148299319728	353.7900680272109	62	127
352.8148299319728	353.1979365079365	57	127
352.8148299319728	353.7900680272109	66	127
353.27922902494333	353.6971882086168	57	127
353.7900680272109	354.14997732426303	64	127
353.7900680272109	354.14997732426303	61	127
353.7900680272109	354.14997732426303	57	127
354.24285714285713	354.74208616780044	60	127
354.24285714285713	354.74208616780044	63	127
354.24285714285713	354.74208616780044	57	127
354.74208616780044	355.0439455782313	55	127
354.74208616780044	355.13680272108843	64	127
354.74208616780044	355.13680272108843	59	127
355.1136054421769	355.1948752834467	54	127
355.21809523809526	355.55478458049885	52	127
355.6592743764172	356.04240362811794	59	127
355.6592743764172	356.13528344671204	69	127
355.6592743764172	356.13528344671204	62	127
356.13528344671204	356.63451247165534	64	127
356.13528344671204	356.530022675737	59	127
356.13528344671204	356.63451247165534	67	127
356.63451247165534	357.017641723356	66	127
356.63451247165534	357.017641723356	62	127
356.63451247165534	357.017641723356	59	127
357.1105215419501	357.48201814058956	65	127
357.1105215419501	357.48201814058956	59	127
357.1105215419501	357.7026303854875	61	127
357.48201814058956	357.7026303854875	57	127
357.48201814058956	357.8071201814059	66	127
357.7839002267574	357.88839002267576	56	127
357.91160997732425	358.2831292517007	54	127
358.38761904761907	358.7359183673469	69	127
358.8404081632653	359.2931972789116	61	127
358.8404081632653	359.2931972789116	54	127
358.8404081632653	359.2003174603175	69	127
359.2931972789116	360.1291156462585	69	127
359.2931972789116	359.67632653061224	59	127
359.2931972789116	359.76920634920634	63	127
359.76920634920634	360.2219954648526	64	127
359.76920634920634	360.70961451247166	52	127
360.2219954648526	360.5122448979592	68	127
360.2219954648526	360.70961451247166	59	127
360.58190476190475	360.67478458049885	64	127
360.70961451247166	361.0463038548753	61	127
360.70961451247166	361.0463038548753	57	127
360.70961451247166	361.5571428571429	67	127
361.1391836734694	361.4178231292517	62	127
361.1391836734694	361.5571428571429	62	127
361.1391836734694	361.5571428571429	50	127
361.66163265306125	362.0795918367347	69	127
361.66163265306125	361.9286621315193	62	127
361.66163265306125	362.0795918367347	66	127
362.19566893424036	362.43950113378685	62	127
362.19566893424036	362.5904308390023	78	127
362.19566893424036	362.5904308390023	69	127
362.6717006802721	363.03160997732425	68	127
362.6717006802721	363.03160997732425	71	127
362.6717006802721	363.03160997732425	62	127
362.6717006802721	363.2289795918367	76	127
363.03160997732425	363.37990929705217	64	127
363.03160997732425	363.2754195011338	69	127
363.03160997732425	363.2754195011338	61	127
363.2289795918367	363.3566893424036	78	127
363.3566893424036	363.4495691609977	80	127
363.3566893424036	363.4495691609977	74	127
363.3566893424036	363.4495691609977	59	127
363.47278911564626	363.85591836734693	81	127
363.47278911564626	363.85591836734693	73	127
363.47278911564626	363.85591836734693	64	127
363.47278911564626	363.85591836734693	57	127
363.9604081632653	364.1926077097506	74	127
364.1926077097506	364.42480725623585	76	127
364.42480725623585	364.65700680272107	74	127
364.42480725623585	364.83115646258506	64	127
364.42480725623585	364.83115646258506	59	127
364.42480725623585	364.83115646258506	56	127
364.65700680272107	364.9356462585034	71	127
364.9356462585034	365.1794557823129	73	127
364.9356462585034	365.3187755102041	64	127
364.9356462585034	365.3187755102041	57	127
364.9356462585034	365.3187755102041	57	127
365.1794557823129	365.4116553287982	69	127
365.4116553287982	365.7715419501134	52	127
365.4116553287982	365.7715419501134	64	127
365.4116553287982	365.7715419501134	56	127
365.4116553287982	365.8644217687075	64	127
365.8644217687075	366.2591836734694	63	127
366.2591836734694	366.6423129251701	62	127
366.6423129251701	371.77392290249435	64	127
366.6423129251701	366.9790022675737	61	127
366.6423129251701	367.5711111111111	69	127
367.0834920634921	367.46662131519275	61	127
367.5711111111111	367.9890702947846	73	127
367.5711111111111	367.9542403628118	61	127
368.0471201814059	368.40702947845807	61	127
368.0471201814059	368.40702947845807	76	127
368.40702947845807	368.581179138322	59	127
368.40702947845807	368.68566893424037	74	127
368.66244897959183	368.7669387755102	57	127
368.79015873015874	369.19650793650794	56	127
369.3009977324263	370.2065759637188	50	127
369.3009977324263	369.63768707482996	62	127
369.3009977324263	370.2065759637188	71	127
369.7421768707483	370.1136961451247	62	127
370.2065759637188	370.5897052154195	74	127
370.2065759637188	370.5897052154195	47	127
370.2065759637188	370.5316553287982	62	127
370.6245351473923	371.1121541950113	62	127
370.6245351473923	371.1121541950113	44	127
370.6245351473923	371.1121541950113	78	127
371.1121541950113	371.3791836734694	61	127
371.1121541950113	371.4720634920635	76	127
371.1121541950113	371.4720634920635	45	127
371.448843537415	371.5417233560091	59	127
371.5649433106576	371.9829024943311	57	127
372.08739229024945	372.27315192743765	88	127
372.08739229024945	372.9813605442177	66	127
372.08739229024945	372.9813605442177	54	127
372.5285714285714	372.73755102040815	88	127
372.9813605442177	373.21356009070297	88	127
372.9813605442177	373.37609977324263	70	127
372.9813605442177	373.37609977324263	58	127
373.434126984127	373.63151927437644	81	127
373.434126984127	373.7940589569161	88	127
373.434126984127	373.7940589569161	72	127
373.434126984127	373.7940589569161	60	127
373.7940589569161	374.0262585034014	81	127
373.7940589569161	374.09591836734694	87	127
373.7940589569161	374.18879818594104	71	127
373.7940589569161	374.18879818594104	59	127
374.1539455782313	374.25843537414966	85	127
374.2932879818594	374.4209977324263	81	127
374.2932879818594	374.50226757369614	83	127
374.6067573696145	374.85056689342406	86	127
374.6067573696145	375.1059863945578	81	127
374.6067573696145	375.58197278911564	52	127
374.6067573696145	375.58197278911564	64	127
375.1059863945578	375.36140589569163	86	127
375.1059863945578	375.4194557823129	80	127
375.4891156462585	375.57038548752837	78	127
375.58197278911564	375.8374149659864	86	127
375.58197278911564	375.94190476190477	76	127
375.58197278911564	375.99995464852606	68	127
375.58197278911564	375.99995464852606	56	127
376.04639455782313	376.31342403628116	79	127
376.04639455782313	376.54562358276644	86	127
376.04639455782313	376.54562358276644	70	127
376.04639455782313	376.54562358276644	58	127
376.54562358276644	376.7546031746032	79	127
376.54562358276644	376.7778231292517	85	127
376.54562358276644	376.8126303854875	69	127
376.54562358276644	376.8126303854875	57	127
376.8126303854875	376.85909297052154	83	127
376.8823129251701	377.11448979591836	79	127
376.8823129251701	377.26544217687075	81	127
377.3699319727891	377.6021315192744	84	127
377.3699319727891	377.6021315192744	78	127
377.3699319727891	377.6021315192744	69	127
377.3699319727891	377.6021315192744	63	127
377.83430839002267	378.08975056689343	84	127
377.83430839002267	378.08975056689343	78	127
377.83430839002267	378.08975056689343	69	127
377.83430839002267	378.08975056689343	63	127
378.333560090703	378.57736961451246	78	127
378.333560090703	378.57736961451246	84	127
378.333560090703	378.57736961451246	69	127
378.333560090703	378.57736961451246	63	127
378.79795918367347	379.12303854875285	69	127
378.79795918367347	379.12303854875285	78	127
378.79795918367347	379.12303854875285	84	127
378.79795918367347	379.12303854875285	63	127
380.2259863945578	380.6439455782313	73	127
380.2259863945578	380.6439455782313	69	127
380.76004535147393	381.0967346938776	73	127
380.76004535147393	381.0967346938776	69	127
381.1896145124717	381.5495238095238	73	127
381.1896145124717	381.5495238095238	69	127
381.6540136054422	381.955873015873	64	127
381.6540136054422	382.0023129251701	73	127
381.6540136054422	382.0023129251701	69	127
382.0023129251701	382.2809523809524	74	127
382.0023129251701	382.2809523809524	71	127
382.0023129251701	382.38544217687075	64	127
382.35061224489795	382.4551020408163	75	127
382.35061224489795	382.4551020408163	72	127
382.4899319727891	382.8150113378685	73	127
382.4899319727891	382.8150113378685	76	127
382.4899319727891	382.8150113378685	64	127
382.9078911564626	383.34907029478455	64	127
382.9078911564626	383.8250793650794	73	127
382.9078911564626	383.8250793650794	69	127
382.9078911564626	384.24303854875285	52	127
383.34907029478455	383.8250793650794	63	127
383.8250793650794	384.161768707483	71	127
383.8250793650794	384.161768707483	68	127
383.8250793650794	384.24303854875285	62	127
384.24303854875285	384.5100680272109	69	127
384.24303854875285	384.6261678004535	69	127
384.24303854875285	384.6261678004535	61	127
384.24303854875285	384.6261678004535	57	127
384.5100680272109	384.7306575963719	68	127
384.7306575963719	384.96285714285716	69	127
384.96285714285716	385.1021768707483	71	127
385.1021768707483	385.311156462585	73	127
385.311156462585	385.52013605442176	74	127
385.52013605442176	385.8916553287982	67	127
385.52013605442176	385.8916553287982	76	127
385.52013605442176	385.8916553287982	58	127
385.52013605442176	385.8916553287982	49	127
385.9845351473923	386.2980045351474	58	127
385.9845351473923	386.2980045351474	76	127
385.9845351473923	386.2980045351474	67	127
385.9845351473923	386.2980045351474	49	127
386.4024943310658	386.75079365079364	76	127
386.4024943310658	386.75079365079364	58	127
386.4024943310658	386.75079365079364	67	127
386.4024943310658	386.75079365079364	49	127
386.855283446712	387.37773242630385	58	127
386.855283446712	387.37773242630385	76	127
386.855283446712	387.37773242630385	67	127
386.855283446712	387.65637188208615	50	127
387.37773242630385	387.65637188208615	59	127
387.37773242630385	387.65637188208615	74	127
387.37773242630385	387.7608616780045	66	127
387.73764172335603	387.83052154195013	73	127
387.73764172335603	387.83052154195013	61	127
387.83052154195013	388.20204081632653	71	127
387.83052154195013	388.20204081632653	62	127
388.3065306122449	388.7244897959184	68	127
388.3065306122449	388.7244897959184	52	127
388.3065306122449	389.09600907029477	74	127
388.3065306122449	389.09600907029477	59	127
388.82897959183674	389.2585487528345	68	127
388.82897959183674	389.2585487528345	52	127
389.09600907029477	389.3398185941043	71	127
389.09600907029477	389.3398185941043	62	127
389.3398185941043	389.5720181405896	74	127
389.3398185941043	389.5720181405896	59	127
389.3398185941043	389.73455782312925	68	127
389.3398185941043	389.73455782312925	52	127
389.5720181405896	389.78099773242633	71	127
389.5720181405896	389.78099773242633	62	127
389.8390476190476	390.2453968253968	69	127
389.8390476190476	390.2453968253968	61	127
389.8390476190476	390.2453968253968	69	127
389.8390476190476	390.2453968253968	45	127
