# onset,offset,note,velocity
0.6377777777777778	0.9048072562358277	39	127
0.9512471655328798	1.3692063492063493	46	127
1.4040362811791383	1.6594557823129252	51	127
1.4040362811791383	3.075873015873016	51	127
1.6942857142857144	2.51859410430839	55	127
1.6942857142857144	1.9613151927437642	55	127
1.9961451247165534	2.51859410430839	58	127
2.553424036281179	3.749251700680272	58	127
2.553424036281179	3.749251700680272	55	127
2.553424036281179	2.820453514739229	63	127
2.8436734693877552	3.749251700680272	62	127
3.122312925170068	3.377732426303855	46	127
3.424172335600907	3.749251700680272	39	127
3.784081632653061	4.155600907029479	46	127
4.202040816326531	5.873877551020408	51	127
4.202040816326531	4.457460317460318	51	127
4.492290249433107	4.73609977324263	55	127
4.492290249433107	5.130839002267574	55	127
4.805759637188209	5.130839002267574	58	127
5.177278911564626	6.686575963718821	55	127
5.177278911564626	5.502358276643991	63	127
5.177278911564626	6.686575963718821	58	127
5.606848072562358	6.686575963718821	62	127
5.908707482993197	6.291836734693877	46	127
6.326666666666667	6.686575963718821	39	127
6.72140589569161	7.046485260770975	46	127
7.092925170068027	7.7430839002267575	55	127
7.092925170068027	8.695102040816327	51	127
7.092925170068027	7.7430839002267575	58	127
7.092925170068027	7.383174603174603	58	127
7.418004535147392	7.7779138321995465	67	127
7.812743764172335	8.358412698412698	55	127
7.812743764172335	8.102993197278911	63	127
7.812743764172335	8.102993197278911	58	127
8.1378231292517	8.404852607709751	63	127
8.1378231292517	8.404852607709751	70	127
8.43968253968254	9.50780045351474	68	127
8.43968253968254	9.50780045351474	62	127
8.43968253968254	9.50780045351474	56	127
8.43968253968254	9.50780045351474	53	127
8.741519274376417	9.101451247165533	46	127
9.147891156462585	9.50780045351474	39	127
9.554240362811791	9.879319727891156	46	127
9.554240362811791	9.879319727891156	67	127
9.554240362811791	9.879319727891156	63	127
9.554240362811791	9.879319727891156	55	127
9.925759637188209	10.181179138321996	65	127
9.925759637188209	11.57437641723356	51	127
9.925759637188209	10.181179138321996	62	127
9.925759637188209	10.181179138321996	56	127
10.239229024943311	10.575918367346938	55	127
10.239229024943311	10.575918367346938	63	127
10.239229024943311	10.575918367346938	60	127
10.69201814058957	10.947437641723356	65	127
10.69201814058957	11.899455782312925	56	127
10.69201814058957	10.947437641723356	62	127
11.005487528344672	11.168027210884354	65	127
11.005487528344672	11.168027210884354	62	127
11.179637188208616	11.318956916099774	67	127
11.179637188208616	11.318956916099774	60	127
11.330566893424036	11.899455782312925	65	127
11.330566893424036	11.899455782312925	62	127
11.60920634920635	11.934285714285714	46	127
11.969115646258503	12.363854875283447	63	127
11.969115646258503	12.363854875283447	39	127
11.969115646258503	12.363854875283447	55	127
12.410294784580499	12.712154195011339	46	127
12.75859410430839	13.431972789115646	55	127
12.75859410430839	13.176553287981859	58	127
12.75859410430839	13.431972789115646	58	127
12.75859410430839	14.500090702947846	51	127
13.211383219954648	13.466802721088435	67	127
13.501632653061224	13.838321995464852	63	127
13.501632653061224	13.838321995464852	58	127
13.501632653061224	14.116961451247166	55	127
13.873151927437641	14.163401360544217	70	127
13.873151927437641	14.163401360544217	63	127
14.198231292517006	15.103809523809524	62	127
14.198231292517006	15.103809523809524	53	127
14.198231292517006	15.103809523809524	68	127
14.198231292517006	15.103809523809524	56	127
14.546530612244897	14.813560090702948	46	127
14.86	15.103809523809524	39	127
15.16185941043084	15.568208616780046	67	127
15.16185941043084	15.568208616780046	46	127
15.16185941043084	15.568208616780046	55	127
15.16185941043084	15.568208616780046	63	127
15.603038548752835	17.251655328798186	51	127
15.603038548752835	15.904897959183673	65	127
15.603038548752835	15.904897959183673	62	127
15.603038548752835	15.904897959183673	56	127
15.951337868480726	16.253197278911564	55	127
15.951337868480726	16.253197278911564	63	127
15.951337868480726	16.253197278911564	60	127
16.288027210884355	16.566666666666666	65	127
16.288027210884355	17.588344671201813	56	127
16.288027210884355	16.566666666666666	62	127
16.601496598639457	16.752426303854875	65	127
16.601496598639457	16.752426303854875	62	127
16.7756462585034	16.926575963718822	67	127
16.7756462585034	16.926575963718822	60	127
16.938185941043084	17.588344671201813	62	127
16.938185941043084	17.588344671201813	65	127
17.286462585034013	17.623174603174604	46	127
17.65800453514739	18.02952380952381	63	127
17.65800453514739	18.02952380952381	55	127
17.65800453514739	18.02952380952381	39	127
18.087573696145125	18.377823129251702	43	127
18.41265306122449	19.41111111111111	51	127
18.41265306122449	19.41111111111111	55	127
18.41265306122449	19.41111111111111	63	127
18.41265306122449	18.71451247165533	63	127
18.41265306122449	18.71451247165533	46	127
18.749319727891155	19.01637188208617	51	127
18.749319727891155	19.01637188208617	67	127
19.051201814058956	19.41111111111111	55	127
19.051201814058956	19.41111111111111	70	127
19.49238095238095	19.74780045351474	67	127
19.49238095238095	20.351519274376418	58	127
19.49238095238095	19.74780045351474	75	127
19.79424036281179	20.06126984126984	70	127
19.79424036281179	20.06126984126984	67	127
19.79424036281179	20.804308390022676	74	127
20.119319727891156	20.270226757369613	63	127
20.119319727891156	20.270226757369613	67	127
20.28185941043084	20.47922902494331	68	127
20.28185941043084	20.47922902494331	65	127
20.490839002267574	20.804308390022676	70	127
20.490839002267574	20.804308390022676	39	127
20.490839002267574	20.804308390022676	67	127
20.839115646258502	21.09453514739229	43	127
21.140997732426303	22.27877551020408	63	127
21.140997732426303	22.27877551020408	51	127
21.140997732426303	21.51251700680272	63	127
21.140997732426303	21.51251700680272	46	127
21.140997732426303	22.27877551020408	55	127
21.5821768707483	21.8956462585034	67	127
21.5821768707483	21.8956462585034	51	127
21.930476190476192	22.27877551020408	55	127
21.930476190476192	22.27877551020408	70	127
22.313605442176872	22.615442176870747	67	127
22.313605442176872	23.14952380952381	58	127
22.313605442176872	22.615442176870747	75	127
22.6502947845805	22.894104308390023	67	127
22.6502947845805	23.14952380952381	74	127
22.6502947845805	22.894104308390023	70	127
22.95215419501134	23.06825396825397	67	127
22.95215419501134	23.06825396825397	63	127
23.079863945578232	23.207573696145126	68	127
23.079863945578232	23.207573696145126	65	127
23.23079365079365	23.544263038548753	67	127
23.23079365079365	23.544263038548753	70	127
23.23079365079365	23.544263038548753	72	127
23.23079365079365	23.544263038548753	43	127
23.579092970521543	23.857732426303855	48	127
23.91578231292517	24.937460317460317	51	127
23.91578231292517	24.937460317460317	63	127
23.91578231292517	24.937460317460317	55	127
23.91578231292517	24.171201814058957	63	127
23.91578231292517	24.171201814058957	51	127
24.21764172335601	24.531111111111112	65	127
24.21764172335601	24.531111111111112	55	127
24.693650793650793	25.48312925170068	60	127
24.693650793650793	24.937460317460317	67	127
24.972290249433108	25.239319727891157	74	127
24.972290249433108	25.239319727891157	67	127
25.274149659863944	25.51795918367347	67	127
25.274149659863944	26.20294784580499	72	127
25.274149659863944	25.51795918367347	70	127
25.55278911564626	25.73854875283447	63	127
25.55278911564626	25.73854875283447	67	127
25.55278911564626	25.91269841269841	55	127
25.75015873015873	25.947528344671202	68	127
25.75015873015873	25.947528344671202	65	127
25.959138321995464	26.20294784580499	67	127
25.959138321995464	26.20294784580499	43	127
25.959138321995464	26.20294784580499	70	127
26.226167800453513	26.469977324263038	48	127
26.574467120181406	27.677414965986394	51	127
26.574467120181406	26.853106575963718	63	127
26.574467120181406	26.853106575963718	51	127
26.574467120181406	27.677414965986394	63	127
26.574467120181406	27.677414965986394	55	127
26.911156462585033	27.28267573696145	65	127
26.911156462585033	27.28267573696145	55	127
27.329115646258504	32.01954648526077	60	127
27.329115646258504	27.677414965986394	67	127
27.712244897959184	27.95605442176871	67	127
27.712244897959184	27.95605442176871	74	127
27.990884353741496	28.26952380952381	70	127
27.990884353741496	28.91968253968254	72	127
27.990884353741496	28.26952380952381	67	127
28.304353741496598	28.42045351473923	63	127
28.304353741496598	28.42045351473923	67	127
28.443673469387754	28.571383219954647	68	127
28.443673469387754	28.571383219954647	65	127
28.594603174603176	28.91968253968254	67	127
28.594603174603176	28.91968253968254	70	127
28.966122448979593	29.26798185941043	74	127
29.30281179138322	29.60467120181406	65	127
29.30281179138322	30.266439909297052	72	127
29.30281179138322	29.60467120181406	68	127
29.639501133786847	29.76721088435374	65	127
29.639501133786847	29.76721088435374	62	127
29.79043083900227	29.918140589569163	67	127
29.79043083900227	29.918140589569163	63	127
29.929750566893425	30.266439909297052	65	127
29.929750566893425	30.266439909297052	68	127
30.33609977324263	30.684399092970523	74	127
30.7540589569161	31.067528344671203	63	127
30.7540589569161	31.70607709750567	72	127
30.7540589569161	31.067528344671203	67	127
31.10235827664399	31.264897959183674	63	127
31.10235827664399	31.264897959183674	60	127
31.311337868480727	31.43904761904762	65	127
31.311337868480727	31.43904761904762	62	127
31.462267573696145	31.70607709750567	63	127
31.462267573696145	31.70607709750567	67	127
31.740907029478457	31.880226757369613	63	127
31.740907029478457	32.15884353741497	74	127
31.740907029478457	31.880226757369613	60	127
31.90344671201814	32.170476190476194	65	127
31.90344671201814	32.170476190476194	62	127
32.19369614512472	32.46072562358277	72	127
32.19369614512472	32.46072562358277	63	127
32.19369614512472	34.852380952380955	58	127
32.19369614512472	32.46072562358277	67	127
32.50716553287982	33.702993197278914	74	127
32.50716553287982	33.55204081632653	63	127
32.50716553287982	33.55204081632653	60	127
33.57528344671202	33.71460317460318	62	127
33.57528344671202	33.71460317460318	65	127
33.7378231292517	33.981632653061226	72	127
33.7378231292517	33.981632653061226	63	127
33.7378231292517	33.981632653061226	67	127
34.03968253968254	34.2718820861678	74	127
34.03968253968254	34.15578231292517	63	127
34.03968253968254	34.15578231292517	60	127
34.17900226757369	34.295102040816325	65	127
34.17900226757369	34.295102040816325	62	127
34.31829931972789	34.53891156462585	67	127
34.31829931972789	34.53891156462585	63	127
34.31829931972789	34.53891156462585	72	127
34.585351473922906	34.88721088435374	65	127
34.585351473922906	34.88721088435374	62	127
34.585351473922906	34.88721088435374	74	127
34.93365079365079	36.930566893424036	60	127
34.93365079365079	35.177460317460316	75	127
34.93365079365079	35.177460317460316	63	127
34.93365079365079	35.177460317460316	44	127
35.22390022675737	37.85934240362812	51	127
35.63024943310658	35.97854875283447	63	127
35.63024943310658	36.44294784580499	56	127
36.01337868480726	36.489387755102044	72	127
36.52421768707483	37.255646258503404	68	127
36.52421768707483	36.930566893424036	68	127
36.97698412698413	37.29047619047619	56	127
36.97698412698413	37.29047619047619	77	127
37.32530612244898	38.31215419501134	75	127
37.32530612244898	37.60394557823129	61	127
37.32530612244898	37.85934240362812	67	127
37.65038548752835	37.76648526077098	60	127
37.7897052154195	37.90580498866213	58	127
37.94063492063492	39.02036281179139	63	127
37.94063492063492	39.380272108843535	60	127
37.94063492063492	38.31215419501134	44	127
38.451473922902494	38.71850340136054	72	127
38.451473922902494	40.7734693877551	51	127
38.75331065759637	39.04358276643991	70	127
39.09002267573696	39.40349206349207	65	127
39.09002267573696	39.40349206349207	68	127
39.449931972789116	39.79823129251701	70	127
39.449931972789116	39.79823129251701	67	127
39.449931972789116	40.03040816326531	61	127
39.833061224489796	39.96077097505669	70	127
39.833061224489796	39.96077097505669	67	127
39.96077097505669	40.100090702947846	65	127
39.96077097505669	40.100090702947846	72	127
40.11170068027211	40.436780045351476	61	127
40.11170068027211	40.7734693877551	67	127
40.11170068027211	40.7734693877551	70	127
40.52963718820862	40.680589569161	61	127
40.69219954648526	40.866349206349206	63	127
40.87795918367347	41.249478458049886	44	127
40.87795918367347	42.63106575963719	60	127
40.87795918367347	41.249478458049886	63	127
41.36557823129252	43.50181405895692	51	127
41.667414965986396	42.236326530612246	56	127
41.667414965986396	41.92283446712018	63	127
41.9692970521542	42.27115646258503	72	127
42.30596371882086	42.92131519274376	68	127
42.30596371882086	42.63106575963719	68	127
42.70072562358277	42.956145124716556	56	127
42.70072562358277	42.956145124716556	77	127
42.990975056689344	43.50181405895692	67	127
42.990975056689344	43.24639455782313	61	127
42.990975056689344	44.00104308390023	75	127
43.28122448979592	43.39732426303855	60	127
43.42054421768707	43.54825396825397	58	127
43.571451247165534	45.05755102040816	60	127
43.571451247165534	44.00104308390023	44	127
43.571451247165534	44.62798185941043	63	127
44.05909297052154	44.337709750566894	72	127
44.05909297052154	46.334648526077096	51	127
44.38417233560091	44.744081632653064	70	127
44.77891156462585	45.09235827664399	68	127
44.77891156462585	45.09235827664399	65	127
45.16204081632653	45.719319727891154	61	127
45.16204081632653	45.452290249433105	70	127
45.16204081632653	45.452290249433105	67	127
45.47548752834467	45.63804988662132	70	127
45.47548752834467	45.63804988662132	67	127
45.64965986394558	45.77736961451247	72	127
45.64965986394558	45.77736961451247	65	127
45.788979591836735	46.334648526077096	70	127
45.788979591836735	46.07922902494331	61	127
45.788979591836735	46.334648526077096	67	127
46.125668934240366	46.25337868480726	61	127
46.26498866213152	46.38108843537415	63	127
46.41591836734694	47.309886621315194	44	127
46.41591836734694	47.588526077097505	60	127
46.41591836734694	48.54054421768708	63	127
47.37952380952381	47.62335600907029	63	127
47.37952380952381	47.89038548752834	51	127
47.65818594104309	47.925215419501136	72	127
47.65818594104309	47.78589569160998	60	127
47.809115646258505	47.9368253968254	61	127
47.96004535147392	48.54054421768708	48	127
47.96004535147392	48.86562358276644	60	127
47.96004535147392	48.28512471655329	68	127
48.31995464852608	48.5637641723356	77	127
48.61020408163265	49.49256235827664	75	127
48.61020408163265	48.888843537414964	56	127
48.61020408163265	49.121043083900226	44	127
48.92367346938776	49.03977324263039	60	127
48.92367346938776	49.15587301587301	66	127
49.062993197278914	49.179092970521545	61	127
49.19070294784581	49.89891156462585	45	127
49.19070294784581	50.34009070294785	60	127
49.19070294784581	51.24566893424036	65	127
49.96857142857143	50.61873015873016	51	127
49.96857142857143	50.374920634920635	65	127
50.40975056689342	50.653560090702946	72	127
50.40975056689342	50.537460317460315	60	127
50.54907029478458	50.67678004535147	61	127
50.68839002267574	51.24566893424036	48	127
50.68839002267574	51.00185941043084	69	127
50.68839002267574	51.582358276643994	60	127
51.036689342403626	51.15278911564626	77	127
51.17600907029478	51.29210884353741	78	127
51.31532879818594	51.61718820861678	57	127
51.31532879818594	52.25573696145125	77	127
51.31532879818594	51.87260770975057	45	127
51.66362811791383	51.77972789115646	60	127
51.66362811791383	51.93065759637188	66	127
51.80294784580499	51.965487528344674	61	127
51.9887074829932	52.847845804988665	62	127
51.9887074829932	53.67215419501134	65	127
51.9887074829932	52.5227664399093	46	127
52.59242630385488	53.12648526077098	53	127
52.59242630385488	52.87106575963719	65	127
52.91750566893424	53.1497052154195	74	127
52.91750566893424	53.03360544217687	62	127
53.056825396825396	53.17292517006803	63	127
53.19614512471655	54.06689342403628	62	127
53.19614512471655	53.42834467120181	70	127
53.19614512471655	53.67215419501134	50	127
53.47478458049886	53.706984126984125	79	127
53.74181405895692	54.68222222222222	77	127
53.74181405895692	54.10172335600907	58	127
53.74181405895692	54.357142857142854	46	127
54.13655328798186	54.39197278911565	68	127
54.13655328798186	54.27587301587302	62	127
54.28748299319728	54.41519274376417	63	127
54.4384126984127	56.063809523809525	67	127
54.4384126984127	54.90281179138322	47	127
54.4384126984127	55.193061224489796	62	127
54.972471655328796	55.22789115646258	67	127
54.972471655328796	55.49492063492063	53	127
55.27433106575964	55.40204081632653	62	127
55.27433106575964	55.529750566893426	74	127
55.42526077097506	55.54136054421769	63	127
55.56458049886621	56.37727891156462	62	127
55.56458049886621	55.80839002267574	71	127
55.56458049886621	56.063809523809525	50	127
55.843219954648525	55.959319727891156	79	127
55.98253968253968	56.12185941043084	80	127
56.14507936507937	56.713968253968254	47	127
56.14507936507937	57.02743764172335	79	127
56.14507936507937	56.41210884353742	59	127
56.47015873015873	56.7604081632653	68	127
56.47015873015873	56.62108843537415	62	127
56.64430839002267	56.772018140589566	63	127
56.7952380952381	57.02743764172335	67	127
56.7952380952381	56.91133786848073	64	127
56.7952380952381	57.02743764172335	48	127
56.93455782312925	57.050657596371884	52	127
57.097097505668934	57.22480725623583	55	127
57.24802721088435	57.375736961451246	60	127
57.39895691609977	57.63115646258503	64	127
57.39895691609977	57.5150566893424	67	127
57.53827664399093	57.65437641723356	72	127
57.66598639455783	57.79369614512472	76	127
57.80530612244898	57.933015873015876	79	127
57.94462585034014	58.095555555555556	38	127
57.94462585034014	58.23487528344671	77	127
57.94462585034014	59.453922902494334	62	127
57.94462585034014	59.453922902494334	55	127
58.10716553287982	58.25809523809524	41	127
58.2697052154195	58.39741496598639	77	127
58.2697052154195	58.39741496598639	43	127
58.409024943310655	58.53673469387755	79	127
58.409024943310655	58.53673469387755	47	127
58.54834467120181	59.453922902494334	77	127
58.54834467120181	58.676054421768704	50	127
58.687664399092974	58.83859410430839	53	127
58.850204081632654	59.0243537414966	55	127
59.03596371882086	59.186893424036285	59	127
59.19850340136055	59.453922902494334	62	127
59.48875283446712	59.75578231292517	76	127
59.48875283446712	59.75578231292517	67	127
59.48875283446712	59.75578231292517	60	127
59.48875283446712	59.75578231292517	60	127
59.79061224489796	60.05764172335601	67	127
59.79061224489796	60.05764172335601	62	127
59.79061224489796	60.05764172335601	59	127
59.79061224489796	60.05764172335601	74	127
60.0924716553288	60.39433106575964	72	127
60.0924716553288	60.39433106575964	57	127
60.0924716553288	60.39433106575964	62	127
60.0924716553288	60.220181405895694	64	127
60.24340136054422	60.4059410430839	66	127
60.429160997732424	60.67297052154195	71	127
60.429160997732424	60.67297052154195	62	127
60.429160997732424	60.67297052154195	55	127
60.429160997732424	60.67297052154195	67	127
60.707800453514736	61.00965986394558	64	127
60.707800453514736	61.00965986394558	48	127
60.707800453514736	61.00965986394558	69	127
60.707800453514736	61.00965986394558	67	127
61.07931972789115	61.34634920634921	59	127
61.07931972789115	61.34634920634921	67	127
61.07931972789115	61.34634920634921	50	127
61.39278911564626	61.62498866213152	60	127
61.39278911564626	61.52049886621315	64	127
61.39278911564626	61.62498866213152	74	127
61.39278911564626	61.62498866213152	50	127
61.54371882086168	61.65981859410431	66	127
61.68303854875283	61.915238095238095	43	127
61.68303854875283	61.915238095238095	59	127
61.68303854875283	61.915238095238095	67	127
61.95006802721088	62.27514739229025	60	127
61.95006802721088	62.135827664399095	54	127
61.95006802721088	62.27514739229025	50	127
61.95006802721088	62.135827664399095	69	127
62.14743764172336	62.298367346938775	57	127
62.14743764172336	62.298367346938775	66	127
62.30997732426304	62.57700680272109	67	127
62.30997732426304	62.57700680272109	43	127
62.30997732426304	62.57700680272109	55	127
62.30997732426304	62.57700680272109	59	127
62.611836734693874	62.89047619047619	60	127
62.611836734693874	62.77437641723356	54	127
62.611836734693874	62.89047619047619	50	127
62.611836734693874	62.77437641723356	69	127
62.785986394557824	62.91369614512472	66	127
62.785986394557824	62.91369614512472	57	127
62.92530612244898	63.19233560090703	67	127
62.92530612244898	63.19233560090703	59	127
62.92530612244898	63.19233560090703	55	127
62.92530612244898	63.19233560090703	43	127
63.227165532879816	63.5174149659864	50	127
63.227165532879816	63.389705215419504	69	127
63.227165532879816	63.389705215419504	54	127
63.227165532879816	63.5174149659864	60	127
63.401315192743766	63.52902494331066	66	127
63.401315192743766	63.52902494331066	57	127
63.552244897959184	63.830884353741496	67	127
63.552244897959184	63.830884353741496	43	127
63.552244897959184	63.830884353741496	55	127
63.552244897959184	63.830884353741496	59	127
63.86571428571428	64.12113378684808	64	127
63.86571428571428	63.993424036281176	55	127
63.86571428571428	64.12113378684808	48	127
63.86571428571428	63.993424036281176	58	127
64.01664399092971	64.13274376417233	58	127
64.01664399092971	64.13274376417233	61	127
64.15596371882086	64.43458049886621	41	127
64.15596371882086	64.43458049886621	56	127
64.15596371882086	64.43458049886621	65	127
64.15596371882086	64.43458049886621	60	127
64.46943310657596	64.7132426303855	58	127
64.46943310657596	64.5855328798186	67	127
64.46943310657596	64.7132426303855	48	127
64.46943310657596	64.5855328798186	52	127
64.60875283446713	64.72485260770975	64	127
64.60875283446713	64.72485260770975	55	127
64.74807256235827	65.00349206349206	56	127
64.74807256235827	65.00349206349206	56	127
64.74807256235827	65.00349206349206	41	127
64.74807256235827	65.00349206349206	65	127
65.03832199546486	65.28213151927437	62	127
65.03832199546486	65.28213151927437	46	127
65.03832199546486	65.28213151927437	58	127
65.03832199546486	65.16603174603175	56	127
65.18925170068027	65.3053514739229	53	127
65.32854875283446	65.58396825396825	63	127
65.32854875283446	65.58396825396825	39	127
65.32854875283446	65.58396825396825	55	127
65.32854875283446	65.58396825396825	58	127
65.6536507936508	65.78136054421769	50	127
65.6536507936508	65.92068027210884	46	127
65.6536507936508	65.78136054421769	65	127
65.6536507936508	65.92068027210884	58	127
65.80458049886622	65.9438775510204	62	127
65.80458049886622	65.9438775510204	53	127
65.95551020408163	66.24575963718821	58	127
65.95551020408163	66.09480725623582	39	127
65.95551020408163	66.24575963718821	63	127
65.95551020408163	66.24575963718821	55	127
66.10643990929705	66.26897959183674	41	127
66.280589569161	66.5940589569161	59	127
66.280589569161	66.5940589569161	53	127
66.280589569161	66.5940589569161	43	127
66.280589569161	66.5940589569161	62	127
66.6288888888889	66.80303854875284	51	127
66.6288888888889	69.0785941043084	36	127
66.6288888888889	66.91913832199546	60	127
66.8146485260771	66.94235827664399	55	127
66.98879818594105	67.1281179138322	60	127
67.13972789115647	67.26743764172336	63	127
67.27904761904762	67.46480725623583	67	127
67.27904761904762	69.64746031746031	67	127
67.48802721088435	67.61573696145125	72	127
67.62734693877552	67.74344671201814	75	127
67.76666666666667	67.8827664399093	79	127
67.90598639455783	68.17301587301587	79	127
67.90598639455783	68.17301587301587	77	127
68.24265306122449	68.39360544217688	77	127
68.24265306122449	68.53292517006803	80	127
68.4168253968254	68.5445351473923	79	127
68.56775510204082	69.39204081632653	77	127
68.56775510204082	68.81156462585034	81	127
68.85800453514739	69.11340136054422	83	127
69.14825396825397	69.64746031746031	84	127
69.14825396825397	69.64746031746031	48	127
69.43850340136055	69.67070294784581	75	127
69.71714285714286	70.23959183673469	45	127
69.71714285714286	69.83324263038548	84	127
69.71714285714286	69.97256235827665	74	127
69.71714285714286	69.97256235827665	65	127
69.85646258503401	69.99578231292517	86	127
70.0190022675737	70.14671201814059	86	127
70.0190022675737	70.27442176870748	72	127
70.0190022675737	70.27442176870748	63	127
70.15829931972789	70.29764172335601	87	127
70.30925170068028	71.14517006802721	86	127
70.30925170068028	70.57628117913832	70	127
70.30925170068028	70.57628117913832	62	127
70.30925170068028	70.8665306122449	50	127
70.61111111111111	70.90133786848072	60	127
70.61111111111111	70.90133786848072	69	127
70.93619047619048	71.18	67	127
70.93619047619048	71.42380952380952	38	127
70.93619047619048	71.18	58	127
71.21482993197279	71.34253968253968	74	127
71.21482993197279	71.45863945578232	66	127
71.21482993197279	71.34253968253968	57	127
71.35414965986395	71.48185941043084	78	127
71.35414965986395	71.48185941043084	60	127
71.4934693877551	71.8069387755102	67	127
71.4934693877551	71.8069387755102	43	127
71.4934693877551	71.8069387755102	58	127
71.4934693877551	71.69083900226758	79	127
71.70244897959184	71.81854875283447	82	127
71.841768707483	73.54843537414966	86	127
71.841768707483	72.09718820861679	60	127
71.841768707483	71.96947845804989	69	127
71.99269841269842	72.10879818594104	66	127
72.13201814058957	72.3758276643991	58	127
72.13201814058957	72.3758276643991	67	127
72.41065759637188	72.6660544217687	60	127
72.41065759637188	72.6660544217687	38	127
72.41065759637188	72.52675736961451	69	127
72.56156462585034	72.67768707482993	66	127
72.70090702947846	72.96793650793651	67	127
72.70090702947846	72.96793650793651	58	127
72.70090702947846	72.81698412698412	43	127
72.84022675736962	72.97954648526077	46	127
73.0027664399093	73.23496598639456	60	127
73.0027664399093	73.23496598639456	50	127
73.0027664399093	73.11886621315193	69	127
73.14208616780046	73.25818594104308	66	127
73.2814058956916	73.54843537414966	58	127
73.2814058956916	73.54843537414966	43	127
73.2814058956916	73.54843537414966	67	127
73.59487528344671	73.73419501133787	58	127
73.59487528344671	73.73419501133787	72	127
73.59487528344671	73.8502947845805	64	127
73.59487528344671	73.8502947845805	48	127
73.7574149659864	73.87351473922902	76	127
73.7574149659864	73.87351473922902	55	127
73.89673469387755	74.21020408163265	65	127
73.89673469387755	74.21020408163265	41	127
73.89673469387755	74.21020408163265	56	127
73.89673469387755	74.09410430839003	77	127
74.11732426303855	74.23342403628118	80	127
74.24503401360545	74.48884353741497	58	127
74.24503401360545	75.94009070294784	84	127
74.24503401360545	74.37274376417234	67	127
74.3843537414966	74.51206349206349	64	127
74.52367346938776	74.76748299319728	56	127
74.52367346938776	74.76748299319728	65	127
74.80231292517007	75.08095238095238	58	127
74.80231292517007	75.08095238095238	36	127
74.80231292517007	74.96482993197279	67	127
74.97646258503401	75.10417233560091	64	127
75.11578231292518	75.37120181405896	65	127
75.11578231292518	75.37120181405896	56	127
75.11578231292518	75.25510204081633	41	127
75.2667120181406	75.39442176870749	44	127
75.41764172335601	75.66145124716553	58	127
75.41764172335601	75.5453514739229	67	127
75.41764172335601	75.66145124716553	48	127
75.55696145124716	75.6730612244898	64	127
75.69628117913832	75.94009070294784	65	127
75.69628117913832	75.94009070294784	41	127
75.69628117913832	75.94009070294784	56	127
75.97492063492064	76.25356009070295	62	127
75.97492063492064	76.11421768707483	56	127
75.97492063492064	76.25356009070295	46	127
75.97492063492064	76.11421768707483	70	127
76.13746031746032	76.26517006802722	53	127
76.13746031746032	76.26517006802722	74	127
76.28839002267574	76.57863945578231	63	127
76.28839002267574	76.57863945578231	39	127
76.28839002267574	76.57863945578231	55	127
76.28839002267574	76.42770975056689	75	127
76.45092970521542	76.59024943310658	79	127
76.6482993197279	76.76439909297052	65	127
76.6482993197279	76.89210884353741	56	127
76.6482993197279	76.89210884353741	82	127
76.78761904761905	76.90371882086168	62	127
76.92693877551021	77.182358276644	63	127
76.92693877551021	77.182358276644	55	127
77.22879818594105	77.4609977324263	46	127
77.22879818594105	77.4609977324263	56	127
77.22879818594105	77.34489795918367	65	127
77.36809523809524	77.48421768707483	62	127
77.50743764172336	77.78607709750567	63	127
77.50743764172336	77.78607709750567	55	127
77.50743764172336	77.63514739229025	51	127
77.65836734693877	77.82090702947846	55	127
77.84412698412699	78.35496598639456	58	127
77.84412698412699	77.94861678004536	65	127
77.84412698412699	78.07632653061225	56	127
77.97183673469388	78.09954648526077	62	127
78.1227664399093	78.35496598639456	55	127
78.1227664399093	78.35496598639456	63	127
78.38977324263038	78.55233560090703	70	127
78.38977324263038	78.69165532879819	53	127
78.5639455782313	78.71487528344672	68	127
78.5639455782313	78.71487528344672	74	127
78.72648526077097	78.9702947845805	51	127
78.72648526077097	78.85419501133786	75	127
78.72648526077097	78.9702947845805	67	127
78.86580498866213	78.99351473922903	78	127
79.00512471655328	79.13283446712018	50	127
79.00512471655328	79.28374149659864	82	127
79.00512471655328	79.13283446712018	68	127
79.14444444444445	79.30698412698413	53	127
79.14444444444445	79.30698412698413	65	127
79.31859410430839	79.56240362811792	67	127
79.31859410430839	79.56240362811792	51	127
79.5972335600907	79.86426303854876	48	127
79.5972335600907	79.71333333333334	44	127
79.5972335600907	79.71333333333334	68	127
79.73655328798186	79.88748299319728	48	127
79.73655328798186	79.88748299319728	67	127
79.9107029478458	80.0384126984127	49	127
79.9107029478458	80.18934240362812	49	127
79.9107029478458	80.18934240362812	65	127
80.0732426303855	80.20095238095239	53	127
80.22417233560091	80.46798185941043	56	127
80.22417233560091	80.34027210884354	67	127
80.22417233560091	80.46798185941043	48	127
80.36349206349206	80.4795918367347	63	127
80.50281179138322	80.78145124716553	65	127
80.50281179138322	80.78145124716553	49	127
80.81628117913833	80.93238095238095	67	127
80.81628117913833	80.93238095238095	68	127
80.81628117913833	81.09492063492064	51	127
80.95560090702948	81.1065306122449	63	127
80.95560090702948	81.1065306122449	72	127
81.12975056689342	83.41691609977325	61	127
81.12975056689342	83.41691609977325	56	127
81.12975056689342	83.41691609977325	53	127
81.12975056689342	81.24585034013606	73	127
81.12975056689342	83.41691609977325	41	127
81.26907029478458	81.38517006802721	77	127
81.40839002267573	81.5128798185941	80	127
81.53609977324263	81.640589569161	79	127
81.66380952380952	81.76829931972789	77	127
81.79151927437641	81.90761904761905	75	127
81.93083900226758	82.0469387755102	73	127
82.05854875283447	82.18625850340136	72	127
82.19784580498866	82.3604081632653	70	127
82.38362811791383	82.51133786848072	68	127
82.52294784580499	82.65065759637189	67	127
82.67387755102041	82.8015873015873	65	127
82.82480725623583	82.96410430839002	63	127
82.99895691609977	83.16149659863946	65	127
83.17310657596371	83.32401360544218	61	127
83.3356462585034	83.48657596371882	60	127
83.49818594104309	83.78843537414966	59	127
83.49818594104309	85.26290249433107	55	127
83.49818594104309	85.01909297052154	59	127
83.49818594104309	83.63750566893424	43	127
83.67233560090703	83.81165532879818	55	127
83.84648526077098	84.09027210884354	67	127
83.84648526077098	83.96256235827664	62	127
83.98578231292517	84.10190476190476	60	127
84.12512471655329	84.38054421768707	62	127
84.12512471655329	84.25283446712018	59	127
84.2760544217687	84.39215419501134	57	127
84.41537414965987	84.58952380952381	55	127
84.41537414965987	84.7172335600907	71	127
84.61274376417234	84.728820861678	53	127
84.7520634920635	84.86816326530612	51	127
84.7520634920635	85.01909297052154	67	127
84.89138321995465	85.03070294784581	50	127
85.06553287981859	85.18163265306123	48	127
85.06553287981859	85.44866213151927	67	127
85.06553287981859	85.18163265306123	67	127
85.19324263038548	85.30934240362812	47	127
85.19324263038548	85.30934240362812	74	127
85.33256235827665	85.94789115646259	72	127
85.33256235827665	85.61120181405896	45	127
85.33256235827665	85.94789115646259	57	127
85.48349206349206	85.63442176870748	66	127
85.65764172335601	85.83179138321995	64	127
85.65764172335601	85.97111111111111	38	127
85.85501133786848	86.06399092970521	66	127
86.11043083900226	86.760589569161	67	127
86.11043083900226	88.57174603174603	43	127
86.11043083900226	86.33102040816327	71	127
86.3542403628118	86.49353741496599	79	127
86.50517006802721	86.80702947845805	55	127
86.50517006802721	86.6677097505669	86	127
86.67931972789115	86.83024943310657	84	127
86.84185941043084	86.95795918367347	83	127
86.84185941043084	87.06244897959184	50	127
86.84185941043084	88.1421768707483	79	127
86.96956916099774	87.08566893424036	81	127
87.09727891156463	87.22498866213152	79	127
87.09727891156463	87.36430839002267	59	127
87.23659863945578	87.38750566893424	77	127
87.39913832199547	87.53843537414966	75	127
87.39913832199547	87.67777777777778	55	127
87.55006802721088	87.7009977324263	74	127
87.71260770975057	87.84031746031746	72	127
87.71260770975057	87.84031746031746	55	127
87.87514739229024	88.00285714285714	71	127
87.87514739229024	88.00285714285714	62	127
88.01446712018141	88.57174603174603	69	127
88.01446712018141	88.57174603174603	60	127
88.16539682539683	88.29310657596372	78	127
88.31632653061224	88.43242630385488	76	127
88.46725623582766	88.62979591836735	78	127
88.65301587301587	88.90843537414966	79	127
88.65301587301587	88.90843537414966	43	127
88.65301587301587	88.90843537414966	59	127
88.65301587301587	88.78072562358277	67	127
88.80394557823129	88.90843537414966	71	127
88.93165532879819	89.04773242630385	59	127
88.93165532879819	89.04773242630385	74	127
88.93165532879819	89.04773242630385	71	127
89.07097505668935	89.18707482993197	72	127
89.07097505668935	89.18707482993197	69	127
89.07097505668935	89.18707482993197	62	127
89.2102947845805	89.70952380952382	60	127
89.2102947845805	89.33800453514739	71	127
89.2102947845805	89.33800453514739	67	127
89.2102947845805	89.46571428571428	38	127
89.36122448979592	89.47732426303855	66	127
89.36122448979592	89.47732426303855	69	127
89.50054421768708	89.6166439909297	67	127
89.50054421768708	89.6166439909297	64	127
89.50054421768708	89.75596371882087	50	127
89.63986394557823	89.77918367346939	69	127
89.63986394557823	89.77918367346939	66	127
89.80240362811791	90.03460317460318	67	127
89.80240362811791	89.91848072562358	67	127
89.80240362811791	90.03460317460318	59	127
89.80240362811791	90.03460317460318	43	127
89.9417006802721	90.0578231292517	71	127
90.08104308390023	90.20875283446712	71	127
90.08104308390023	90.20875283446712	59	127
90.08104308390023	90.20875283446712	74	127
90.23197278911564	90.34807256235828	69	127
90.23197278911564	90.34807256235828	62	127
90.23197278911564	90.34807256235828	72	127
90.37129251700681	90.88213151927438	60	127
90.37129251700681	90.48739229024943	71	127
90.37129251700681	90.48739229024943	67	127
90.37129251700681	90.61510204081632	38	127
90.4990022675737	90.63832199546485	66	127
90.4990022675737	90.63832199546485	69	127
90.64993197278912	90.91696145124716	50	127
90.64993197278912	90.78925170068027	67	127
90.64993197278912	90.78925170068027	64	127
90.80086167800454	90.94015873015873	66	127
90.80086167800454	90.94015873015873	69	127
90.95179138321996	91.21882086167801	67	127
90.95179138321996	91.21882086167801	43	127
90.95179138321996	91.21882086167801	59	127
91.25365079365079	91.40458049886621	50	127
91.25365079365079	91.40458049886621	74	127
91.25365079365079	91.40458049886621	62	127
91.41619047619048	91.5322902494331	86	127
91.41619047619048	91.5322902494331	70	127
91.41619047619048	91.5322902494331	62	127
91.54390022675737	91.81092970521541	38	127
91.54390022675737	91.81092970521541	74	127
91.54390022675737	91.81092970521541	62	127
91.54390022675737	91.81092970521541	50	127
91.84575963718821	91.9734693877551	74	127
91.84575963718821	91.9734693877551	62	127
91.84575963718821	91.9734693877551	50	127
91.84575963718821	92.08954648526077	50	127
91.98507936507937	92.11278911564627	74	127
91.98507936507937	92.11278911564627	62	127
91.98507936507937	92.11278911564627	86	127
92.13600907029479	92.46108843537415	74	127
92.13600907029479	92.46108843537415	38	127
92.13600907029479	92.46108843537415	50	127
92.13600907029479	92.46108843537415	62	127
92.49591836734695	92.65845804988662	50	127
92.49591836734695	92.65845804988662	74	127
92.49591836734695	92.65845804988662	62	127
92.68167800453514	92.79777777777778	86	127
92.68167800453514	92.79777777777778	74	127
92.68167800453514	92.79777777777778	62	127
92.8209977324263	93.06480725623582	50	127
92.8209977324263	93.06480725623582	74	127
92.8209977324263	93.06480725623582	62	127
92.8209977324263	93.06480725623582	38	127
93.09963718820862	93.34342403628118	39	127
93.09963718820862	93.21571428571428	62	127
93.09963718820862	93.21571428571428	74	127
93.09963718820862	93.21571428571428	50	127
93.23893424036281	93.3550566893424	75	127
93.23893424036281	93.3550566893424	63	127
93.23893424036281	93.3550566893424	51	127
93.37827664399093	93.64530612244899	65	127
93.37827664399093	93.64530612244899	41	127
93.37827664399093	93.64530612244899	53	127
93.37827664399093	93.64530612244899	77	127
93.68013605442177	93.7962358276644	53	127
93.68013605442177	93.7962358276644	77	127
93.68013605442177	93.9239455782313	77	127
93.83106575963718	93.94716553287982	65	127
93.83106575963718	93.94716553287982	89	127
93.97038548752835	94.23739229024943	77	127
93.97038548752835	94.23739229024943	41	127
93.97038548752835	94.23739229024943	53	127
93.97038548752835	94.23739229024943	65	127
94.28385487528345	94.53927437641724	77	127
94.28385487528345	94.4231746031746	53	127
94.28385487528345	94.53927437641724	53	127
94.28385487528345	94.4231746031746	77	127
94.44639455782313	94.56249433106576	89	127
94.44639455782313	94.56249433106576	65	127
94.57410430839002	95.00365079365079	53	127
94.57410430839002	95.00365079365079	77	127
94.57410430839002	95.00365079365079	65	127
94.57410430839002	95.00365079365079	41	127
95.03850340136054	95.28231292517007	77	127
95.03850340136054	95.16621315192744	77	127
95.03850340136054	95.16621315192744	53	127
95.1778231292517	95.3055328798186	65	127
95.1778231292517	95.3055328798186	89	127
95.31714285714285	95.56095238095239	53	127
95.31714285714285	95.56095238095239	77	127
95.31714285714285	95.56095238095239	65	127
95.64222222222222	95.90925170068027	77	127
95.94408163265307	96.17628117913833	78	127
95.94408163265307	97.03541950113379	63	127
96.22272108843538	96.50136054421769	77	127
96.22272108843538	96.75678004535148	65	127
96.53619047619047	96.79160997732426	81	127
96.82643990929705	97.07024943310658	77	127
96.82643990929705	97.32566893424037	65	127
97.10507936507936	97.36049886621315	82	127
97.10507936507936	98.30090702947845	62	127
97.39532879818594	97.67396825396825	77	127
97.39532879818594	98.02226757369614	65	127
97.39532879818594	97.67396825396825	53	127
97.70879818594105	98.04548752834467	41	127
98.09192743764173	98.32412698412699	77	127
98.09192743764173	98.6027664399093	65	127
98.37056689342404	99.45029478458049	60	127
98.37056689342404	98.6027664399093	75	127
98.66081632653061	98.9162358276644	74	127
98.66081632653061	99.18326530612245	66	127
98.97428571428571	99.21809523809524	75	127
99.25292517006802	99.74054421768707	66	127
99.25292517006802	99.48512471655329	77	127
99.51995464852608	100.69256235827665	58	127
99.51995464852608	99.77537414965987	75	127
99.81020408163265	100.06562358276643	53	127
99.81020408163265	100.06562358276643	74	127
99.81020408163265	100.06562358276643	67	127
100.10045351473923	100.39070294784581	41	127
100.10045351473923	100.39070294784581	63	127
100.42553287981859	100.72739229024943	62	127
100.42553287981859	100.72739229024943	77	127
100.76222222222222	101.30789115646259	57	127
100.76222222222222	100.99442176870748	78	127
100.76222222222222	100.99442176870748	63	127
101.0524716553288	101.34272108843537	77	127
101.0524716553288	101.60975056689342	63	127
101.38916099773243	101.87678004535148	53	127
101.38916099773243	101.64458049886622	81	127
101.679410430839	102.15541950113379	63	127
101.679410430839	101.91160997732426	77	127
101.94643990929706	102.17863945578232	82	127
101.94643990929706	102.75913832199547	65	127
102.22507936507937	102.46888888888888	53	127
102.22507936507937	102.46888888888888	77	127
102.22507936507937	102.46888888888888	62	127
102.51532879818595	102.78235827664399	60	127
102.51532879818595	102.78235827664399	41	127
102.81718820861678	103.13065759637188	62	127
102.81718820861678	103.13065759637188	77	127
102.81718820861678	103.13065759637188	58	127
103.16548752834467	103.4092970521542	77	127
103.16548752834467	103.4092970521542	57	127
103.16548752834467	103.4092970521542	60	127
103.44412698412698	103.71115646258504	75	127
103.44412698412698	103.71115646258504	55	127
103.44412698412698	103.71115646258504	41	127
103.44412698412698	103.71115646258504	58	127
103.74598639455782	103.98979591836735	74	127
103.74598639455782	103.98979591836735	53	127
103.74598639455782	103.98979591836735	53	127
103.74598639455782	103.98979591836735	57	127
104.02462585034013	104.30326530612246	51	127
104.02462585034013	104.30326530612246	72	127
104.02462585034013	104.30326530612246	66	127
104.02462585034013	104.30326530612246	41	127
104.33809523809524	104.59351473922902	46	127
104.33809523809524	104.59351473922902	70	127
104.33809523809524	104.82571428571428	65	127
104.33809523809524	104.82571428571428	50	127
104.61673469387755	104.86054421768708	53	127
104.61673469387755	104.86054421768708	68	127
104.89537414965986	105.15079365079364	58	127
105.18562358276644	105.42943310657597	65	127
105.5107029478458	105.78934240362811	66	127
105.5107029478458	106.05637188208617	51	127
105.8241723356009	106.38145124716553	57	127
105.8241723356009	106.07959183673469	65	127
106.13764172335601	106.40467120181405	69	127
106.13764172335601	106.68331065759637	53	127
106.45111111111112	106.97356009070295	60	127
106.45111111111112	106.7065306122449	65	127
106.76458049886621	107.240589569161	50	127
106.76458049886621	107.00839002267574	70	127
107.04321995464852	107.27541950113378	65	127
107.04321995464852	107.53083900226757	58	127
107.31024943310658	107.8675283446712	46	127
107.61210884353741	108.20421768707483	65	127
107.61210884353741	108.20421768707483	62	127
107.93718820861677	108.45963718820862	44	127
108.23904761904762	108.51768707482994	62	127
108.23904761904762	108.51768707482994	59	127
108.55251700680272	108.8079365079365	60	127
108.55251700680272	108.8079365079365	63	127
108.55251700680272	109.05174603174603	45	127
108.8427664399093	109.08657596371881	62	127
108.8427664399093	109.08657596371881	65	127
109.13301587301588	109.40004535147392	60	127
109.13301587301588	109.64385487528345	46	127
109.13301587301588	109.40004535147392	63	127
109.43487528344671	109.6902947845805	62	127
109.43487528344671	109.6902947845805	58	127
109.72512471655328	110.5378231292517	70	127
109.72512471655328	110.2243537414966	41	127
110.01537414965986	110.24757369614512	65	127
110.29401360544217	110.5378231292517	67	127
110.29401360544217	110.81646258503402	39	127
110.59587301587301	110.83968253968254	65	127
110.59587301587301	110.83968253968254	69	127
110.87451247165532	111.68721088435375	72	127
110.87451247165532	111.14154195011338	69	127
110.87451247165532	111.37374149659864	41	127
111.17637188208617	111.40857142857143	65	127
111.44340136054421	111.96585034013606	38	127
111.44340136054421	111.68721088435375	70	127
111.72204081632653	112.00068027210884	70	127
111.72204081632653	112.00068027210884	65	127
112.0471201814059	112.92947845804989	77	127
112.0471201814059	112.56956916099773	44	127
112.34897959183674	112.61600907029478	74	127
112.65083900226757	112.92947845804989	74	127
112.65083900226757	113.2081179138322	42	127
112.96430839002268	113.24294784580499	75	127
112.96430839002268	113.24294784580499	72	127
113.27777777777777	113.6144671201814	74	127
113.27777777777777	113.92793650793651	70	127
113.27777777777777	113.6144671201814	43	127
113.69573696145125	113.97437641723356	39	127
113.69573696145125	114.25301587301587	72	127
114.00920634920635	114.25301587301587	69	127
114.00920634920635	114.25301587301587	41	127
114.29945578231292	114.70580498866214	70	127
114.29945578231292	114.70580498866214	46	127
114.29945578231292	114.70580498866214	70	127
114.76385487528344	115.04249433106575	58	127
115.11215419501134	115.37918367346938	77	127
115.11215419501134	115.37918367346938	65	127
115.41401360544218	115.64621315192744	78	127
115.41401360544218	115.64621315192744	66	127
115.68104308390022	115.89002267573696	65	127
115.68104308390022	115.89002267573696	77	127
115.92485260770975	116.16866213151927	81	127
115.92485260770975	116.16866213151927	69	127
116.20349206349206	116.44730158730158	65	127
116.20349206349206	116.44730158730158	53	127
116.20349206349206	116.44730158730158	41	127
116.20349206349206	116.44730158730158	77	127
116.48213151927438	116.76077097505669	84	127
116.48213151927438	116.76077097505669	42	127
116.48213151927438	116.76077097505669	54	127
116.48213151927438	116.76077097505669	72	127
116.79560090702948	117.039410430839	53	127
116.79560090702948	117.039410430839	65	127
116.79560090702948	117.039410430839	41	127
116.79560090702948	117.039410430839	77	127
117.07424036281179	117.32965986394558	45	127
117.07424036281179	117.32965986394558	57	127
117.41092970521542	117.66634920634921	77	127
117.41092970521542	117.66634920634921	53	127
117.41092970521542	117.66634920634921	41	127
117.41092970521542	117.66634920634921	65	127
117.70117913832199	117.9798185941043	60	127
117.70117913832199	117.9798185941043	78	127
117.70117913832199	117.9798185941043	66	127
117.70117913832199	117.9798185941043	48	127
118.0146485260771	118.25845804988663	53	127
118.0146485260771	118.25845804988663	77	127
118.0146485260771	118.25845804988663	65	127
118.0146485260771	118.25845804988663	41	127
118.30489795918368	118.53709750566894	81	127
118.30489795918368	118.53709750566894	69	127
118.58353741496599	118.81573696145125	65	127
118.58353741496599	118.81573696145125	53	127
118.58353741496599	118.81573696145125	41	127
118.58353741496599	118.81573696145125	77	127
118.87378684807257	119.10598639455782	87	127
118.87378684807257	119.10598639455782	42	127
118.87378684807257	119.10598639455782	54	127
118.87378684807257	119.10598639455782	75	127
119.14081632653061	119.37301587301587	53	127
119.14081632653061	119.37301587301587	65	127
119.14081632653061	119.37301587301587	41	127
119.14081632653061	119.37301587301587	77	127
119.40784580498867	119.69809523809523	45	127
119.40784580498867	119.69809523809523	57	127
119.73292517006803	120.02317460317461	77	127
119.73292517006803	120.02317460317461	41	127
119.73292517006803	120.02317460317461	53	127
119.73292517006803	120.02317460317461	65	127
120.05800453514739	120.62689342403628	63	127
120.05800453514739	120.32503401360545	87	127
120.05800453514739	120.32503401360545	72	127
120.35986394557823	120.66172335600908	41	127
120.35986394557823	120.66172335600908	77	127
120.35986394557823	120.66172335600908	65	127
120.70816326530613	121.23061224489796	53	127
120.70816326530613	120.97519274376417	51	127
121.02163265306122	121.26544217687075	41	127
121.02163265306122	121.26544217687075	77	127
121.02163265306122	121.26544217687075	65	127
121.3118820861678	121.55569160997733	87	127
121.3118820861678	121.55569160997733	75	127
121.3118820861678	121.81111111111112	63	127
121.59052154195011	121.8459410430839	65	127
121.59052154195011	121.8459410430839	77	127
121.59052154195011	121.8459410430839	41	127
121.88077097505669	122.17102040816326	51	127
121.88077097505669	122.41482993197279	53	127
122.20585034013605	122.43804988662131	41	127
122.20585034013605	122.43804988662131	77	127
122.20585034013605	122.43804988662131	65	127
122.48448979591836	122.7282993197279	87	127
122.48448979591836	123.0069387755102	63	127
122.48448979591836	122.7282993197279	75	127
122.77473922902495	123.04176870748299	42	127
122.77473922902495	123.04176870748299	78	127
122.77473922902495	123.04176870748299	66	127
123.11142857142858	123.69192743764172	54	127
123.11142857142858	123.39006802721089	51	127
123.42489795918367	123.72675736961452	42	127
123.42489795918367	123.72675736961452	78	127
123.42489795918367	123.72675736961452	66	127
123.7615873015873	124.02861678004535	87	127
123.7615873015873	124.02861678004535	75	127
123.7615873015873	124.35369614512472	63	127
124.0750566893424	124.40013605442176	78	127
124.0750566893424	124.40013605442176	42	127
124.0750566893424	124.40013605442176	66	127
124.44657596371881	125.00385487528345	54	127
124.44657596371881	124.7019954648526	51	127
124.7368253968254	125.0502947845805	42	127
124.7368253968254	125.0502947845805	86	127
124.7368253968254	125.0502947845805	74	127
125.08512471655328	126.18807256235827	66	127
125.08512471655328	125.21283446712017	86	127
125.08512471655328	125.60757369614512	72	127
125.23605442176871	125.3637641723356	87	127
125.38698412698413	125.64240362811792	50	127
125.38698412698413	125.51469387755103	87	127
125.53791383219955	125.65401360544217	86	127
125.6772335600907	125.93265306122449	69	127
125.6772335600907	125.93265306122449	60	127
125.6772335600907	125.80494331065759	86	127
125.82816326530612	125.94426303854875	90	127
125.96748299319728	126.09519274376417	90	127
125.96748299319728	126.22290249433107	72	127
125.96748299319728	126.22290249433107	50	127
126.1184126984127	126.23451247165534	86	127
126.25773242630386	127.39551020408163	67	127
126.25773242630386	126.37383219954648	86	127
126.25773242630386	126.76857142857143	71	127
126.39705215419501	126.51315192743765	91	127
126.53637188208617	126.81501133786848	50	127
126.53637188208617	126.66408163265307	91	127
126.69891156462585	126.86145124716553	86	127
126.88467120181406	127.11687074829932	59	127
126.88467120181406	127.11687074829932	67	127
127.16331065759637	127.43034013605443	50	127
127.16331065759637	127.43034013605443	71	127
127.16331065759637	127.43034013605443	86	127
127.4651700680272	128.55650793650793	72	127
127.4651700680272	127.5928798185941	86	127
127.4651700680272	127.96439909297052	69	127
127.60448979591837	127.73219954648526	84	127
127.74380952380952	127.9992290249433	50	127
127.74380952380952	127.88312925170068	84	127
127.89473922902495	128.0340589569161	83	127
128.04566893424035	128.19657596371883	83	127
128.04566893424035	128.3126984126984	66	127
128.04566893424035	128.3126984126984	57	127
128.20820861678004	128.33591836734695	84	127
128.34750566893425	128.4752380952381	84	127
128.34750566893425	128.59133786848074	50	127
128.34750566893425	128.59133786848074	69	127
128.48684807256237	128.61455782312925	86	127
128.62616780045352	129.72909297052155	71	127
128.62616780045352	128.75385487528345	86	127
128.62616780045352	128.75385487528345	67	127
128.76548752834466	128.90480725623584	69	127
128.76548752834466	128.90480725623584	84	127
128.91641723356008	129.1950566893424	50	127
128.91641723356008	129.0673469387755	84	127
128.91641723356008	129.0673469387755	69	127
129.09056689342404	129.20666666666668	83	127
129.09056689342404	129.20666666666668	71	127
129.2298866213152	129.48530612244897	59	127
129.2298866213152	129.48530612244897	71	127
129.5201133786848	129.7639455782313	74	127
129.5201133786848	129.7639455782313	50	127
129.5201133786848	129.7639455782313	86	127
129.79877551020408	129.926485260771	86	127
129.79877551020408	130.95977324263038	66	127
129.79877551020408	130.39086167800454	72	127
129.96131519274377	130.0774149659864	87	127
130.10063492063492	130.28637188208617	87	127
130.10063492063492	130.4257142857143	50	127
130.30961451247165	130.43732426303856	86	127
130.46054421768707	130.68113378684808	60	127
130.46054421768707	130.56503401360544	86	127
130.46054421768707	130.68113378684808	69	127
130.58825396825398	130.7043537414966	90	127
130.72757369614513	130.98299319727892	50	127
130.72757369614513	130.98299319727892	72	127
130.72757369614513	130.855283446712	90	127
130.87850340136055	131.00619047619048	86	127
131.02943310657596	132.10916099773243	67	127
131.02943310657596	131.1455328798186	86	127
131.02943310657596	131.50544217687076	71	127
131.1687528344671	131.28485260770975	91	127
131.3080725623583	131.4241723356009	91	127
131.3080725623583	131.54027210884354	50	127
131.43578231292517	131.56349206349208	86	127
131.57510204081632	131.81891156462586	59	127
131.57510204081632	131.70281179138323	71	127
131.7144217687075	131.8653514739229	74	127
131.8769387755102	132.1439909297052	50	127
131.8769387755102	132.1439909297052	86	127
131.8769387755102	132.01628117913833	79	127
132.03950113378684	132.16721088435375	83	127
132.17879818594105	132.3065306122449	86	127
132.17879818594105	133.25854875283446	62	127
132.17879818594105	132.42263038548754	81	127
132.31814058956917	132.44585034013605	84	127
132.45746031746032	132.7128798185941	80	127
132.45746031746032	132.7128798185941	38	127
132.45746031746032	132.59678004535147	84	127
132.60839002267574	132.73609977324264	83	127
132.74770975056688	132.99151927437643	50	127
132.74770975056688	132.8754195011338	83	127
132.74770975056688	132.99151927437643	81	127
132.88702947845806	133.00312925170067	84	127
133.0263492063492	133.29337868480727	83	127
133.0263492063492	133.29337868480727	38	127
133.0263492063492	133.16566893424036	84	127
133.1888888888889	133.30496598639456	86	127
133.32820861678005	133.58362811791383	81	127
133.32820861678005	134.41954648526078	63	127
133.32820861678005	133.44430839002268	86	127
133.4675283446712	133.5952380952381	84	127
133.64167800453515	133.88548752834467	79	127
133.64167800453515	133.88548752834467	39	127
133.64167800453515	133.7577777777778	84	127
133.7809977324263	133.89709750566894	83	127
133.9202947845805	134.164126984127	81	127
133.9202947845805	134.164126984127	51	127
133.9202947845805	134.0364172335601	83	127
134.05963718820863	134.1757142857143	84	127
134.19895691609977	134.45437641723356	39	127
134.19895691609977	134.3266439909297	84	127
134.19895691609977	134.45437641723356	83	127
134.3498866213152	134.46598639455783	86	127
134.48920634920634	134.72140589569162	81	127
134.48920634920634	135.5573015873016	64	127
134.48920634920634	134.60530612244898	86	127
134.62852607709752	134.74462585034013	84	127
134.76784580498867	135.00004535147391	80	127
134.76784580498867	134.8839455782313	84	127
134.76784580498867	135.00004535147391	40	127
134.90716553287982	135.02326530612245	83	127
135.05809523809523	135.2902947845805	52	127
135.05809523809523	135.17419501133787	83	127
135.05809523809523	135.2902947845805	81	127
135.19739229024944	135.31351473922902	84	127
135.3251247165533	135.4760544217687	84	127
135.3251247165533	135.59215419501135	83	127
135.3251247165533	135.59215419501135	40	127
135.48766439909298	135.61537414965986	86	127
135.62698412698413	136.83439909297053	65	127
135.62698412698413	135.77791383219954	86	127
135.62698412698413	135.89401360544218	81	127
135.7895238095238	135.975283446712	84	127
135.98689342403628	136.12621315192743	84	127
135.98689342403628	136.24231292517007	41	127
135.98689342403628	136.24231292517007	80	127
136.1378231292517	136.2655328798186	83	127
136.27714285714285	136.53256235827664	53	127
136.27714285714285	136.41646258503403	83	127
136.27714285714285	136.53256235827664	81	127
136.42807256235827	136.55578231292517	84	127
136.56739229024944	136.86925170068028	83	127
136.56739229024944	136.86925170068028	41	127
136.56739229024944	136.75315192743764	84	127
136.7647619047619	136.8924716553288	86	127
136.9273015873016	137.24074829931973	84	127
136.9273015873016	137.24074829931973	53	127
136.9273015873016	137.24074829931973	87	127
137.27560090702949	137.53102040816327	41	127
137.27560090702949	137.53102040816327	86	127
137.27560090702949	137.53102040816327	82	127
137.27560090702949	137.53102040816327	53	127
137.56585034013605	137.79804988662133	81	127
137.56585034013605	137.79804988662133	65	127
137.56585034013605	137.79804988662133	84	127
137.8328798185941	138.13473922902494	41	127
137.8328798185941	138.13473922902494	86	127
137.8328798185941	138.13473922902494	82	127
137.8328798185941	138.13473922902494	53	127
138.16956916099772	138.44820861678005	84	127
138.16956916099772	138.44820861678005	53	127
138.16956916099772	138.44820861678005	87	127
138.48303854875283	138.7268253968254	86	127
138.48303854875283	138.7268253968254	82	127
138.48303854875283	138.7268253968254	53	127
138.48303854875283	138.7268253968254	41	127
138.77326530612245	139.00548752834467	84	127
138.77326530612245	139.00548752834467	65	127
138.77326530612245	139.00548752834467	81	127
139.05192743764172	139.29573696145124	41	127
139.05192743764172	139.29573696145124	86	127
139.05192743764172	139.29573696145124	82	127
139.05192743764172	139.29573696145124	65	127
139.3421768707483	139.58598639455784	66	127
139.3421768707483	139.58598639455784	78	127
139.3421768707483	139.58598639455784	87	127
139.62081632653062	139.86462585034013	77	127
139.62081632653062	139.86462585034013	41	127
139.62081632653062	139.86462585034013	65	127
139.62081632653062	139.74850340136055	87	127
139.76013605442176	139.88784580498867	86	127
139.89943310657597	140.15485260770976	48	127
139.89943310657597	140.15485260770976	87	127
139.89943310657597	140.15485260770976	81	127
139.89943310657597	140.15485260770976	69	127
140.1897052154195	140.4451247165533	65	127
140.1897052154195	140.4451247165533	77	127
140.1897052154195	140.32902494331066	87	127
140.1897052154195	140.4451247165533	41	127
140.34063492063493	140.49156462585034	89	127
140.5031746031746	140.74698412698413	86	127
140.5031746031746	140.74698412698413	82	127
140.5031746031746	140.74698412698413	70	127
140.7818140589569	140.90952380952382	86	127
140.7818140589569	141.02560090702949	77	127
140.7818140589569	141.02560090702949	65	127
140.7818140589569	141.02560090702949	41	127
140.92111111111112	141.0372335600907	84	127
141.06045351473924	141.3507029478458	86	127
141.06045351473924	141.3507029478458	46	127
141.38553287981858	141.50163265306122	86	127
141.38553287981858	141.64095238095237	41	127
141.38553287981858	141.64095238095237	65	127
141.38553287981858	141.64095238095237	77	127
141.52485260770976	141.65256235827664	87	127
141.67578231292518	141.9195918367347	63	127
141.67578231292518	141.9195918367347	75	127
141.67578231292518	141.9195918367347	84	127
141.95442176870748	142.19820861678005	74	127
141.95442176870748	142.19820861678005	41	127
141.95442176870748	142.19820861678005	62	127
141.95442176870748	142.07052154195011	84	127
142.09374149659865	142.20984126984126	83	127
142.2330612244898	142.50009070294786	84	127
142.2330612244898	142.50009070294786	75	127
142.2330612244898	142.50009070294786	63	127
142.2330612244898	142.50009070294786	45	127
142.53492063492064	142.7671201814059	65	127
142.53492063492064	142.7671201814059	41	127
142.53492063492064	142.65102040816328	84	127
142.53492063492064	142.7671201814059	77	127
142.6742403628118	142.79034013605443	86	127
142.813537414966	143.0457596371882	84	127
142.813537414966	143.0457596371882	46	127
142.813537414966	143.0457596371882	63	127
142.813537414966	143.0457596371882	75	127
143.09219954648526	143.34761904761905	41	127
143.09219954648526	143.2315192743764	82	127
143.09219954648526	143.34761904761905	74	127
143.09219954648526	143.34761904761905	62	127
143.25473922902495	143.3708390022676	81	127
143.38244897959183	143.51015873015874	82	127
143.38244897959183	143.68428571428572	50	127
143.521768707483	143.7075283446712	84	127
143.71913832199547	143.962947845805	77	127
143.71913832199547	143.84684807256235	86	127
143.71913832199547	143.962947845805	46	127
143.71913832199547	143.962947845805	65	127
143.85845804988662	143.98614512471656	89	127
143.99777777777777	144.21836734693878	66	127
143.99777777777777	144.21836734693878	87	127
143.99777777777777	144.21836734693878	78	127
144.24156462585034	144.48539682539683	65	127
144.24156462585034	144.48539682539683	41	127
144.24156462585034	144.3692970521542	87	127
144.24156462585034	144.48539682539683	77	127
144.38090702947846	144.50861678004534	86	127
144.5202267573696	144.76403628117913	87	127
144.5202267573696	144.76403628117913	69	127
144.5202267573696	144.76403628117913	48	127
144.5202267573696	144.76403628117913	80	127
144.79886621315194	144.91496598639455	87	127
144.79886621315194	145.04267573696146	41	127
144.79886621315194	145.04267573696146	65	127
144.79886621315194	145.04267573696146	77	127
144.9381859410431	145.05428571428573	89	127
145.07750566893424	145.32131519274375	70	127
145.07750566893424	145.32131519274375	82	127
145.07750566893424	145.32131519274375	86	127
145.35614512471656	145.5883446712018	77	127
145.35614512471656	145.5883446712018	41	127
145.35614512471656	145.5883446712018	65	127
145.35614512471656	145.47222222222223	86	127
145.48385487528344	145.59995464852608	84	127
145.62315192743765	145.87857142857143	46	127
145.62315192743765	145.87857142857143	86	127
145.91342403628119	146.1572335600907	77	127
145.91342403628119	146.1572335600907	41	127
145.91342403628119	146.1572335600907	65	127
145.91342403628119	146.02952380952382	86	127
146.05274376417233	146.16884353741497	87	127
146.19206349206348	146.43587301587303	63	127
146.19206349206348	146.43587301587303	75	127
146.19206349206348	146.43587301587303	84	127
146.48231292517008	146.71451247165533	74	127
146.48231292517008	146.71451247165533	41	127
146.48231292517008	146.71451247165533	62	127
146.48231292517008	146.59839002267574	84	127
146.62163265306123	146.73773242630386	83	127
146.76095238095238	147.00473922902495	84	127
146.76095238095238	147.00473922902495	63	127
146.76095238095238	147.00473922902495	45	127
146.76095238095238	147.00473922902495	75	127
147.05120181405897	147.16730158730158	84	127
147.05120181405897	147.28340136054422	41	127
147.05120181405897	147.28340136054422	65	127
147.05120181405897	147.28340136054422	77	127
147.17891156462585	147.30662131519276	86	127
147.318231292517	147.58526077097505	63	127
147.318231292517	147.58526077097505	75	127
147.318231292517	147.58526077097505	82	127
147.6200680272109	147.8522902494331	74	127
147.6200680272109	147.8522902494331	62	127
147.6200680272109	147.74780045351474	82	127
147.6200680272109	147.8522902494331	41	127
147.759410430839	147.87548752834468	81	127
147.8871201814059	148.17734693877551	82	127
147.8871201814059	148.17734693877551	50	127
148.21219954648527	148.45600907029478	62	127
148.21219954648527	148.45600907029478	74	127
148.21219954648527	148.33990929705215	82	127
148.21219954648527	148.45600907029478	46	127
148.35151927437641	148.47922902494332	84	127
148.49083900226756	148.7346485260771	86	127
148.49083900226756	148.7346485260771	62	127
148.49083900226756	148.7346485260771	45	127
148.49083900226756	148.7346485260771	66	127
148.7694784580499	148.88557823129253	86	127
148.7694784580499	149.0132879818594	61	127
148.7694784580499	149.0132879818594	64	127
148.90879818594104	149.02489795918368	85	127
149.04809523809524	149.29192743764173	86	127
149.04809523809524	149.29192743764173	57	127
149.04809523809524	149.29192743764173	62	127
149.04809523809524	149.29192743764173	66	127
149.3267573696145	149.57056689342403	64	127
149.3267573696145	149.44285714285715	86	127
149.3267573696145	149.57056689342403	67	127
149.3267573696145	149.57056689342403	45	127
149.46607709750566	149.5821768707483	88	127
149.60539682539684	149.84920634920636	86	127
149.60539682539684	149.84920634920636	66	127
149.60539682539684	149.84920634920636	62	127
149.88403628117914	150.00013605442177	85	127
149.88403628117914	150.12784580498865	45	127
149.88403628117914	150.12784580498865	61	127
149.88403628117914	150.12784580498865	64	127
150.02333333333334	150.13945578231292	83	127
150.16267573696146	150.41809523809525	55	127
150.16267573696146	150.29038548752834	84	127
150.31360544217688	150.4645351473923	86	127
150.4877551020408	150.71995464852608	66	127
150.4877551020408	150.71995464852608	54	127
150.4877551020408	150.71995464852608	62	127
150.4877551020408	150.60385487528345	88	127
150.62707482993198	150.7431746031746	90	127
150.76639455782313	150.98698412698414	64	127
150.76639455782313	150.98698412698414	91	127
150.76639455782313	150.98698412698414	67	127
150.76639455782313	150.98698412698414	52	127
151.02181405895692	151.26562358276644	52	127
151.02181405895692	151.1495238095238	91	127
151.02181405895692	151.26562358276644	66	127
151.02181405895692	151.26562358276644	63	127
151.16113378684807	151.28884353741498	90	127
151.30043083900227	151.54426303854876	91	127
151.30043083900227	151.54426303854876	67	127
151.30043083900227	151.54426303854876	64	127
151.57909297052154	151.8461224489796	69	127
151.57909297052154	151.8461224489796	45	127
151.57909297052154	151.8461224489796	66	127
151.57909297052154	151.7184126984127	91	127
151.74163265306123	151.8693424036281	93	127
151.89256235827665	152.18281179138322	91	127
151.89256235827665	152.18281179138322	47	127
151.89256235827665	152.18281179138322	64	127
151.89256235827665	152.18281179138322	67	127
152.21761904761905	152.46145124716554	59	127
152.21761904761905	152.3453514739229	90	127
152.21761904761905	152.46145124716554	66	127
152.21761904761905	152.46145124716554	62	127
152.35696145124717	152.48467120181405	88	127
152.49628117913832	152.62399092970523	86	127
152.49628117913832	152.7517006802721	47	127
152.658820861678	152.76331065759638	88	127
152.7865306122449	152.9142403628118	66	127
152.7865306122449	152.9142403628118	62	127
152.7865306122449	152.9142403628118	90	127
152.93743764172336	153.05356009070294	67	127
152.93743764172336	153.05356009070294	91	127
152.93743764172336	153.05356009070294	64	127
153.07678004535148	153.30897959183673	69	127
153.07678004535148	153.30897959183673	66	127
153.07678004535148	153.30897959183673	50	127
153.07678004535148	153.30897959183673	93	127
153.34378684807257	153.47151927437642	84	127
153.34378684807257	153.59920634920636	38	127
153.34378684807257	153.59920634920636	62	127
153.34378684807257	153.59920634920636	66	127
153.494716553288	153.61083900226757	83	127
153.6340589569161	153.87786848072562	64	127
153.6340589569161	153.87786848072562	67	127
153.6340589569161	153.87786848072562	84	127
153.9126984126984	154.19133786848073	69	127
153.9126984126984	154.19133786848073	38	127
153.9126984126984	154.19133786848073	66	127
153.9126984126984	154.0404081632653	84	127
154.09845804988663	154.2145351473923	86	127
154.24938775510205	154.74861678004535	71	127
154.24938775510205	154.74861678004535	67	127
154.24938775510205	154.50480725623584	84	127
154.24938775510205	154.50480725623584	43	127
154.55124716553289	154.77181405895692	55	127
154.55124716553289	154.65573696145125	83	127
154.67895691609976	154.7950566893424	84	127
154.81827664399094	154.93437641723355	83	127
154.81827664399094	155.30589569160998	69	127
154.81827664399094	155.06208616780046	47	127
154.81827664399094	155.30589569160998	66	127
154.94598639455782	155.08530612244897	85	127
155.09691609977324	155.22462585034015	85	127
155.09691609977324	155.34072562358276	59	127
155.23621315192744	155.3639455782313	87	127
155.37555555555556	155.59614512471654	52	127
155.37555555555556	155.59614512471654	67	127
155.37555555555556	155.59614512471654	88	127
155.37555555555556	155.59614512471654	64	127
155.63097505668935	155.75868480725623	79	127
155.63097505668935	155.88639455782314	40	127
155.63097505668935	155.88639455782314	61	127
155.63097505668935	155.88639455782314	64	127
155.7702947845805	155.90961451247165	78	127
155.92122448979592	156.19986394557824	62	127
155.92122448979592	156.19986394557824	66	127
155.92122448979592	156.19986394557824	79	127
156.23469387755102	156.51331065759638	67	127
156.23469387755102	156.51331065759638	52	127
156.23469387755102	156.51331065759638	64	127
156.23469387755102	156.38562358276644	79	127
156.3972335600907	156.5249433106576	83	127
156.54816326530613	156.82680272108843	81	127
156.54816326530613	156.82680272108843	45	127
156.54816326530613	157.0822222222222	69	127
156.54816326530613	157.0822222222222	66	127
156.86163265306124	156.97773242630385	81	127
156.86163265306124	157.11705215419502	57	127
157.00095238095238	157.16349206349207	80	127
157.18671201814058	157.70916099773243	67	127
157.18671201814058	157.30281179138322	81	127
157.18671201814058	157.70916099773243	64	127
157.32603174603176	157.44213151927437	83	127
157.4653514739229	157.60467120181406	83	127
157.4653514739229	157.7439909297052	45	127
157.6278911564626	157.75560090702947	85	127
157.778820861678	158.01102040816326	86	127
157.778820861678	158.01102040816326	38	127
157.778820861678	158.01102040816326	62	127
157.778820861678	158.01102040816326	66	127
158.0574603174603	158.27804988662132	61	127
158.0574603174603	158.17356009070295	81	127
158.0574603174603	158.27804988662132	64	127
158.18517006802722	158.30124716553289	82	127
158.32448979591837	158.56829931972788	50	127
158.32448979591837	158.56829931972788	66	127
158.32448979591837	158.56829931972788	62	127
158.32448979591837	158.56829931972788	81	127
158.61473922902493	158.8469387755102	38	127
158.61473922902493	158.73083900226757	81	127
158.61473922902493	158.8469387755102	67	127
158.61473922902493	158.8469387755102	64	127
158.7540589569161	158.87015873015872	79	127
158.881768707483	159.11396825396827	78	127
158.881768707483	159.11396825396827	66	127
158.881768707483	159.11396825396827	62	127
159.14879818594105	159.26489795918368	78	127
159.14879818594105	159.36938775510205	45	127
159.14879818594105	159.36938775510205	61	127
159.14879818594105	159.36938775510205	64	127
159.27648526077098	159.39260770975056	79	127
159.40421768707483	159.6828344671202	57	127
159.40421768707483	159.54353741496598	76	127
159.55514739229025	159.70607709750567	78	127
159.71768707482994	159.96149659863946	64	127
159.71768707482994	159.96149659863946	45	127
159.71768707482994	159.96149659863946	61	127
159.71768707482994	159.84539682539682	79	127
159.8570068027211	159.984716553288	76	127
159.99632653061224	160.30979591836734	50	127
159.99632653061224	160.30979591836734	86	127
159.99632653061224	160.30979591836734	65	127
159.99632653061224	160.30979591836734	62	127
160.34460317460318	160.58843537414967	64	127
160.34460317460318	160.58843537414967	61	127
160.34460317460318	160.46072562358276	81	127
160.4839455782313	160.60002267573697	82	127
160.62326530612245	160.8902947845805	65	127
160.62326530612245	160.8902947845805	62	127
160.62326530612245	160.8902947845805	50	127
160.62326530612245	160.8902947845805	81	127
160.92512471655328	161.04122448979592	81	127
160.92512471655328	161.15732426303856	38	127
160.92512471655328	161.15732426303856	64	127
160.92512471655328	161.15732426303856	67	127
161.0644217687075	161.1689342403628	79	127
161.19215419501134	161.43596371882086	62	127
161.19215419501134	161.43596371882086	65	127
161.19215419501134	161.43596371882086	77	127
161.4707709750567	161.57526077097506	77	127
161.4707709750567	161.69138321995464	45	127
161.4707709750567	161.69138321995464	61	127
161.4707709750567	161.69138321995464	64	127
161.59850340136055	161.70299319727891	79	127
161.72619047619048	162.01646258503402	57	127
161.72619047619048	161.84231292517006	76	127
161.8887528344671	162.0512925170068	77	127
162.07451247165534	162.3067120181406	58	127
162.07451247165534	162.3067120181406	45	127
162.07451247165534	162.3067120181406	55	127
162.07451247165534	162.19061224489795	79	127
162.07451247165534	162.3067120181406	64	127
162.2138321995465	162.32993197278913	76	127
162.35315192743764	162.60857142857142	58	127
162.35315192743764	162.60857142857142	55	127
162.35315192743764	162.60857142857142	64	127
162.35315192743764	162.60857142857142	73	127
162.65501133786847	162.88721088435375	57	127
162.65501133786847	162.7711111111111	74	127
162.65501133786847	162.88721088435375	62	127
162.65501133786847	162.88721088435375	54	127
162.65501133786847	162.88721088435375	38	127
162.78272108843538	162.91043083900226	76	127
162.92204081632653	163.17746031746032	50	127
162.92204081632653	163.06136054421768	74	127
163.07297052154195	163.20068027210885	69	127
163.21226757369615	163.46768707482994	57	127
163.21226757369615	163.46768707482994	62	127
163.21226757369615	163.46768707482994	38	127
163.21226757369615	163.46768707482994	54	127
163.21226757369615	163.35160997732427	67	127
163.36319727891157	163.49092970521542	66	127
163.5025396825397	163.73473922902494	54	127
163.5025396825397	163.73473922902494	57	127
163.5025396825397	163.73473922902494	62	127
163.76954648526078	164.01337868480726	58	127
163.76954648526078	164.01337868480726	38	127
163.76954648526078	164.01337868480726	55	127
163.76954648526078	163.89727891156463	63	127
163.76954648526078	164.01337868480726	61	127
163.9088888888889	164.03659863945578	66	127
164.04820861678004	164.29201814058956	67	127
164.04820861678004	164.29201814058956	50	127
164.32684807256237	164.5938775510204	58	127
164.32684807256237	164.5938775510204	38	127
164.32684807256237	164.5938775510204	55	127
164.32684807256237	164.46616780045352	67	127
164.32684807256237	164.5938775510204	61	127
164.4893650793651	164.60548752834467	70	127
164.6287074829932	164.9073469387755	55	127
164.6287074829932	164.9073469387755	58	127
164.6287074829932	164.9073469387755	64	127
164.9421768707483	165.2208163265306	62	127
164.9421768707483	165.2208163265306	38	127
164.9421768707483	165.2208163265306	53	127
164.9421768707483	165.08149659863946	69	127
164.9421768707483	165.2208163265306	57	127
165.10471655328797	165.23242630385488	76	127
165.25562358276645	165.54589569160999	50	127
165.25562358276645	165.3833560090703	74	127
165.42979591836735	165.5691156462585	69	127
165.59233560090703	165.84775510204082	38	127
165.59233560090703	165.84775510204082	53	127
165.59233560090703	165.84775510204082	57	127
165.59233560090703	165.7200453514739	67	127
165.59233560090703	165.84775510204082	62	127
165.74326530612245	165.87097505668933	65	127
165.89419501133787	166.1380045351474	62	127
165.89419501133787	166.1380045351474	57	127
165.89419501133787	166.1380045351474	53	127
166.18444444444444	166.4166439909297	38	127
166.18444444444444	166.4166439909297	61	127
166.18444444444444	166.4166439909297	58	127
166.18444444444444	166.4166439909297	55	127
166.18444444444444	166.30054421768708	64	127
166.32376417233561	166.43986394557822	65	127
166.46308390022676	166.6836507936508	67	127
166.46308390022676	166.6836507936508	50	127
166.71850340136055	166.97392290249434	58	127
166.71850340136055	166.97392290249434	38	127
166.71850340136055	166.97392290249434	55	127
166.71850340136055	166.84621315192743	67	127
166.71850340136055	166.97392290249434	61	127
166.8578231292517	166.99714285714285	70	127
167.00875283446712	167.27578231292517	50	127
167.00875283446712	171.78045351473924	74	127
167.00875283446712	167.27578231292517	57	127
167.00875283446712	167.27578231292517	53	127
167.00875283446712	167.27578231292517	62	127
167.31061224489795	167.43832199546486	50	127
167.31061224489795	167.43832199546486	62	127
167.44990929705216	167.58925170068028	49	127
167.44990929705216	167.58925170068028	61	127
167.60086167800455	167.90272108843538	62	127
167.60086167800455	167.90272108843538	50	127
167.60086167800455	167.90272108843538	50	127
167.94916099773243	168.0768707482993	62	127
167.94916099773243	168.0768707482993	50	127
168.08848072562358	168.20458049886622	49	127
168.08848072562358	168.20458049886622	61	127
168.22780045351473	168.46	62	127
168.22780045351473	168.46	50	127
168.50643990929706	168.6225396825397	50	127
168.50643990929706	168.6225396825397	62	127
168.6457596371882	168.76185941043084	61	127
168.6457596371882	168.76185941043084	49	127
168.78507936507935	169.0288888888889	50	127
168.78507936507935	169.0288888888889	62	127
169.06371882086168	169.3075283446712	62	127
169.06371882086168	169.3075283446712	50	127
169.89963718820863	170.38725623582766	56	127
169.89963718820863	170.38725623582766	46	127
169.89963718820863	170.38725623582766	62	127
169.89963718820863	170.38725623582766	56	127
169.89963718820863	170.38725623582766	53	127
171.14190476190475	171.78045351473924	46	127
171.9778231292517	172.31451247165532	39	127
171.9778231292517	173.75414965986394	75	127
172.34934240362813	172.60476190476192	46	127
172.6395918367347	172.90662131519275	51	127
172.6395918367347	174.1140589569161	51	127
172.94145124716553	173.18526077097505	55	127
172.94145124716553	173.48709750566894	55	127
173.22009070294786	173.48709750566894	58	127
173.5219501133787	174.41591836734693	55	127
173.5219501133787	174.75260770975058	58	127
173.5219501133787	173.78895691609978	63	127
173.82380952380953	174.75260770975058	62	127
173.82380952380953	174.1140589569161	74	127
174.17210884353742	174.43913832199547	70	127
174.17210884353742	174.43913832199547	46	127
174.48557823129252	176.42444444444445	67	127
174.48557823129252	174.75260770975058	39	127
174.48557823129252	174.75260770975058	55	127
174.81063492063493	175.07768707482992	46	127
175.11251700680273	176.80755102040817	51	127
175.11251700680273	175.4027664399093	51	127
175.4724263038549	176.1225850340136	55	127
175.4724263038549	175.78587301587302	55	127
175.82072562358277	176.1225850340136	58	127
176.1574149659864	177.55061224489796	58	127
176.1574149659864	177.14426303854876	55	127
176.1574149659864	176.45927437641723	63	127
176.49410430839004	177.55061224489796	62	127
176.49410430839004	176.80755102040817	62	127
176.8540136054422	177.17909297052154	46	127
176.8540136054422	177.17909297052154	58	127
177.21390022675737	177.55061224489796	55	127
177.21390022675737	177.55061224489796	55	127
177.21390022675737	177.55061224489796	39	127
177.58544217687074	177.89891156462585	46	127
177.58544217687074	177.89891156462585	63	127
177.9453514739229	178.56068027210884	55	127
177.9453514739229	179.59396825396826	51	127
177.9453514739229	178.56068027210884	58	127
177.9453514739229	178.22399092970522	58	127
178.28204081632654	178.59548752834468	67	127
178.63034013605443	179.26888888888888	55	127
178.63034013605443	178.99024943310658	63	127
178.63034013605443	178.99024943310658	58	127
179.0715192743764	179.29210884353742	63	127
179.0715192743764	179.29210884353742	70	127
179.33854875283447	180.31378684807257	68	127
179.33854875283447	180.31378684807257	56	127
179.33854875283447	180.31378684807257	53	127
179.33854875283447	180.31378684807257	62	127
179.62879818594104	179.8958276643991	46	127
179.9538775510204	180.31378684807257	39	127
180.36022675736962	180.62725623582767	63	127
180.36022675736962	180.62725623582767	55	127
180.36022675736962	180.62725623582767	46	127
180.36022675736962	180.62725623582767	67	127
180.66208616780045	180.95233560090702	65	127
180.66208616780045	180.95233560090702	56	127
180.66208616780045	182.1829931972789	51	127
180.66208616780045	180.95233560090702	62	127
180.98716553287983	181.24258503401362	63	127
180.98716553287983	181.24258503401362	55	127
180.98716553287983	181.24258503401362	60	127
181.31224489795918	181.56766439909296	65	127
181.31224489795918	182.496462585034	56	127
181.31224489795918	181.56766439909296	62	127
181.60249433106577	181.7650113378685	65	127
181.60249433106577	181.7650113378685	62	127
181.78825396825397	181.9159410430839	67	127
181.78825396825397	181.9159410430839	60	127
181.9391836734694	182.496462585034	65	127
181.9391836734694	182.496462585034	62	127
182.24104308390022	182.53126984126985	46	127
182.60095238095238	182.94925170068026	39	127
182.60095238095238	182.94925170068026	63	127
182.60095238095238	182.94925170068026	55	127
183.01891156462585	183.23950113378686	46	127
183.2859410430839	183.83160997732426	58	127
183.2859410430839	184.95777777777778	51	127
183.2859410430839	183.5413605442177	58	127
183.2859410430839	183.83160997732426	55	127
183.58780045351475	183.8548299319728	67	127
183.90126984126985	184.59786848072562	55	127
183.90126984126985	184.15668934240364	63	127
183.90126984126985	184.15668934240364	58	127
184.19151927437642	184.6326984126984	63	127
184.19151927437642	184.6326984126984	70	127
184.6675283446712	185.584716553288	62	127
184.6675283446712	185.584716553288	53	127
184.6675283446712	185.584716553288	68	127
184.6675283446712	185.584716553288	56	127
184.99260770975056	185.25963718820861	46	127
185.29444444444445	185.584716553288	39	127
185.6427664399093	186.02589569160997	67	127
185.6427664399093	186.02589569160997	46	127
185.6427664399093	186.02589569160997	55	127
185.6427664399093	186.02589569160997	63	127
186.0607029478458	187.60485260770974	51	127
186.0607029478458	186.3277551020408	65	127
186.0607029478458	186.3277551020408	62	127
186.0607029478458	186.3277551020408	56	127
186.36258503401362	186.68766439909297	63	127
186.36258503401362	186.68766439909297	55	127
186.36258503401362	186.68766439909297	60	127
186.74571428571429	187.00113378684807	62	127
186.74571428571429	187.00113378684807	65	127
186.74571428571429	187.92993197278912	56	127
187.03596371882085	187.16367346938776	62	127
187.03596371882085	187.16367346938776	65	127
187.18687074829933	187.31460317460318	67	127
187.18687074829933	187.31460317460318	60	127
187.33780045351475	187.92993197278912	65	127
187.33780045351475	187.92993197278912	62	127
187.63968253968255	187.9531292517007	46	127
188.01120181405895	188.3711111111111	55	127
188.01120181405895	188.3711111111111	39	127
188.01120181405895	188.3711111111111	63	127
188.42916099773242	188.73102040816326	43	127
188.7774603174603	189.6946485260771	63	127
188.7774603174603	189.07931972789115	63	127
188.7774603174603	189.07931972789115	46	127
188.7774603174603	189.6946485260771	55	127
188.7774603174603	189.6946485260771	51	127
189.11414965986395	189.35795918367347	51	127
189.11414965986395	189.35795918367347	67	127
189.40439909297052	189.6946485260771	70	127
189.40439909297052	189.6946485260771	55	127
189.76430839002268	190.18226757369615	75	127
189.76430839002268	190.71632653061224	58	127
189.76430839002268	190.18226757369615	67	127
190.21709750566893	190.47251700680272	70	127
190.21709750566893	191.02979591836734	74	127
190.21709750566893	190.47251700680272	67	127
190.5073469387755	190.62344671201814	67	127
190.5073469387755	190.62344671201814	63	127
190.64666666666668	190.76276643990929	68	127
190.64666666666668	190.76276643990929	65	127
190.78598639455782	191.02979591836734	70	127
190.78598639455782	191.02979591836734	39	127
190.78598639455782	191.02979591836734	67	127
191.06462585034015	191.2968253968254	43	127
191.33165532879818	192.3301133786848	63	127
191.33165532879818	192.3301133786848	55	127
191.33165532879818	192.3301133786848	51	127
191.33165532879818	191.59868480725623	63	127
191.33165532879818	191.59868480725623	46	127
191.65673469387755	192.03986394557822	51	127
191.65673469387755	192.03986394557822	67	127
192.07469387755103	192.3301133786848	70	127
192.07469387755103	192.3301133786848	55	127
192.38816326530613	192.64358276643992	75	127
192.38816326530613	192.64358276643992	67	127
192.38816326530613	193.18925170068027	58	127
192.69002267573697	192.9338321995465	67	127
192.69002267573697	192.9338321995465	70	127
192.69002267573697	193.18925170068027	74	127
192.98027210884354	193.09637188208617	67	127
192.98027210884354	193.09637188208617	63	127
193.10798185941044	193.25891156462586	68	127
193.10798185941044	193.25891156462586	65	127
193.2705215419501	193.53755102040816	70	127
193.2705215419501	193.53755102040816	72	127
193.2705215419501	193.53755102040816	67	127
193.2705215419501	193.53755102040816	43	127
193.57238095238094	193.79297052154195	48	127
193.82780045351473	194.0832199546485	51	127
193.82780045351473	194.7798185941043	51	127
193.82780045351473	194.7798185941043	63	127
193.82780045351473	194.0832199546485	63	127
193.82780045351473	194.7798185941043	55	127
194.1296598639456	194.45473922902494	55	127
194.1296598639456	194.45473922902494	65	127
194.48956916099775	195.3487074829932	60	127
194.48956916099775	194.7798185941043	67	127
194.82625850340136	195.07006802721088	74	127
194.82625850340136	195.07006802721088	67	127
195.10489795918366	195.38353741496599	67	127
195.10489795918366	196.06852607709752	72	127
195.10489795918366	195.38353741496599	70	127
195.41836734693877	195.5344671201814	67	127
195.41836734693877	195.5344671201814	63	127
195.41836734693877	195.7550566893424	55	127
195.55768707482994	195.76666666666668	68	127
195.55768707482994	195.76666666666668	65	127
195.7898866213152	196.06852607709752	67	127
195.7898866213152	196.06852607709752	43	127
195.7898866213152	196.06852607709752	70	127
196.1033560090703	196.3819954648526	48	127
196.45165532879818	197.31079365079364	51	127
196.45165532879818	196.68385487528346	63	127
196.45165532879818	196.68385487528346	51	127
196.45165532879818	197.31079365079364	63	127
196.45165532879818	197.31079365079364	55	127
196.74190476190475	197.03215419501134	65	127
196.74190476190475	197.03215419501134	55	127
197.0785941043084	201.49038548752836	60	127
197.0785941043084	197.31079365079364	67	127
197.3572335600907	197.60104308390024	67	127
197.3572335600907	197.60104308390024	74	127
197.63587301587302	198.50662131519275	72	127
197.63587301587302	197.8912925170068	70	127
197.63587301587302	197.8912925170068	67	127
197.92612244897958	198.0538321995465	67	127
197.92612244897958	198.0538321995465	63	127
198.06544217687076	198.2047619047619	65	127
198.06544217687076	198.2047619047619	68	127
198.21637188208618	198.50662131519275	70	127
198.21637188208618	198.50662131519275	67	127
198.54145124716553	198.82009070294785	74	127
198.85492063492063	199.13356009070296	65	127
198.85492063492063	199.85337868480727	72	127
198.85492063492063	199.13356009070296	68	127
199.16839002267574	199.29609977324262	65	127
199.16839002267574	199.29609977324262	62	127
199.31931972789116	199.44702947845806	67	127
199.31931972789116	199.44702947845806	63	127
199.47024943310657	199.85337868480727	65	127
199.47024943310657	199.85337868480727	68	127
199.89981859410432	200.17845804988661	74	127
200.22489795918366	200.54997732426304	63	127
200.22489795918366	201.1304761904762	72	127
200.22489795918366	200.54997732426304	67	127
200.5964172335601	200.71251700680273	63	127
200.5964172335601	200.71251700680273	60	127
200.73573696145124	200.85183673469388	65	127
200.73573696145124	200.85183673469388	62	127
200.87505668934241	201.1304761904762	63	127
200.87505668934241	201.1304761904762	67	127
201.17691609977325	201.35106575963718	63	127
201.17691609977325	201.51360544217687	74	127
201.17691609977325	201.35106575963718	60	127
201.37428571428572	201.5368253968254	65	127
201.37428571428572	201.5368253968254	62	127
201.56004535147392	201.86190476190475	72	127
201.56004535147392	201.86190476190475	63	127
201.56004535147392	203.82399092970522	58	127
201.56004535147392	201.86190476190475	67	127
201.89673469387756	202.1637641723356	74	127
201.89673469387756	202.02444444444444	63	127
201.89673469387756	202.02444444444444	60	127
202.0360544217687	202.18698412698413	62	127
202.0360544217687	202.18698412698413	65	127
202.2218140589569	202.53528344671201	72	127
202.2218140589569	202.53528344671201	63	127
202.2218140589569	202.53528344671201	67	127
202.5701133786848	202.7210430839002	63	127
202.5701133786848	203.05773242630386	74	127
202.5701133786848	202.7210430839002	60	127
202.80231292517007	203.08095238095237	65	127
202.80231292517007	203.08095238095237	62	127
203.09256235827664	203.38281179138323	67	127
203.09256235827664	203.38281179138323	63	127
203.09256235827664	203.38281179138323	72	127
203.5801814058957	203.858820861678	74	127
203.5801814058957	203.858820861678	65	127
203.5801814058957	203.858820861678	62	127
204.079410430839	204.59024943310658	75	127
204.079410430839	206.06471655328798	60	127
204.079410430839	204.59024943310658	44	127
204.079410430839	204.59024943310658	63	127
204.63668934240363	206.9354648526077	51	127
205.00820861678005	205.5887074829932	56	127
205.00820861678005	205.28684807256235	63	127
205.32167800453516	205.623537414966	72	127
205.66997732426304	206.06471655328798	68	127
205.66997732426304	206.38979591836735	68	127
206.11115646258503	206.41301587301587	77	127
206.11115646258503	206.41301587301587	56	127
206.45945578231292	206.9354648526077	67	127
206.45945578231292	206.68004535147392	61	127
206.45945578231292	207.35342403628118	75	127
206.72648526077097	206.8425850340136	60	127
206.86580498866212	206.99351473922903	58	127
207.0051247165533	207.9455328798186	63	127
207.0051247165533	208.30544217687074	60	127
207.0051247165533	207.35342403628118	44	127
207.39986394557823	207.6901133786848	72	127
207.39986394557823	209.61736961451248	51	127
207.7249433106576	207.9803628117914	70	127
208.05002267573695	208.34027210884355	65	127
208.05002267573695	208.34027210884355	68	127
208.3867120181406	208.67696145124717	67	127
208.3867120181406	208.67696145124717	70	127
208.3867120181406	208.99043083900227	61	127
208.71179138321995	208.89755102040817	70	127
208.71179138321995	208.89755102040817	67	127
208.92077097505668	209.0484807256236	72	127
208.92077097505668	209.0484807256236	65	127
209.0717006802721	209.61736961451248	70	127
209.0717006802721	209.61736961451248	67	127
209.0717006802721	209.37356009070294	61	127
209.40839002267575	209.52448979591836	61	127
209.5477097505669	209.66380952380953	63	127
209.68702947845804	210.09337868480725	63	127
209.68702947845804	210.09337868480725	44	127
209.68702947845804	211.45174603174604	60	127
210.1398185941043	212.28766439909296	51	127
210.4532879818594	210.84802721088437	63	127
210.4532879818594	211.12666666666667	56	127
210.90607709750566	211.16149659863945	72	127
211.21954648526076	211.71877551020407	68	127
211.21954648526076	211.45174603174604	68	127
211.50979591836736	211.75360544217688	56	127
211.50979591836736	211.75360544217688	77	127
211.78843537414966	212.28766439909296	67	127
211.78843537414966	212.03224489795917	61	127
211.78843537414966	212.69401360544217	75	127
212.07868480725622	212.20639455782313	60	127
212.2180045351474	212.34571428571428	58	127
212.35732426303855	213.72730158730158	60	127
212.35732426303855	212.69401360544217	44	127
212.35732426303855	213.39061224489797	63	127
212.74045351473922	213.07714285714286	72	127
212.74045351473922	215.03922902494332	51	127
213.11197278911564	213.43705215419502	70	127
213.4718820861678	213.77374149659863	68	127
213.4718820861678	213.77374149659863	65	127
213.80857142857144	214.38907029478457	61	127
213.80857142857144	214.12204081632652	70	127
213.80857142857144	214.12204081632652	67	127
214.1684807256236	214.2845804988662	70	127
214.1684807256236	214.2845804988662	67	127
214.30780045351474	214.43551020408162	72	127
214.30780045351474	214.43551020408162	65	127
214.45873015873016	215.03922902494332	70	127
214.45873015873016	214.77219954648527	61	127
214.45873015873016	215.03922902494332	67	127
214.80702947845805	214.9463492063492	61	127
214.96956916099774	215.08566893424037	63	127
215.12049886621315	216.08412698412698	60	127
215.12049886621315	215.80548752834468	44	127
215.12049886621315	217.09419501133786	63	127
215.87514739229024	216.10734693877552	63	127
215.87514739229024	216.38598639455782	51	127
216.1421768707483	216.4208163265306	72	127
216.1421768707483	216.28149659863945	60	127
216.29310657596372	216.44403628117914	61	127
216.4556462585034	217.37283446712019	60	127
216.4556462585034	217.09419501133786	48	127
216.4556462585034	216.8039455782313	68	127
216.8619954648526	217.12902494331067	77	127
217.16385487528345	217.5934240362812	44	127
217.16385487528345	217.91850340136054	75	127
217.16385487528345	217.40766439909297	56	127
217.4308843537415	217.62825396825397	66	127
217.4308843537415	217.53537414965987	60	127
217.53537414965987	217.65147392290248	61	127
217.66308390022675	219.439410430839	65	127
217.66308390022675	218.17392290249433	45	127
217.66308390022675	218.45256235827665	60	127
218.2435827664399	218.51061224489797	65	127
218.2435827664399	218.7544217687075	51	127
218.54544217687075	218.6615419501134	60	127
218.54544217687075	218.78925170068027	72	127
218.6847619047619	218.80086167800454	61	127
218.82408163265305	219.439410430839	48	127
218.82408163265305	219.14916099773242	69	127
218.82408163265305	219.72965986394559	60	127
219.1839909297052	219.3465306122449	77	127
219.36975056689343	219.48585034013607	78	127
219.50907029478458	219.7528798185941	57	127
219.50907029478458	220.33337868480726	77	127
219.50907029478458	220.01990929705215	45	127
219.79931972789115	220.05473922902493	66	127
219.79931972789115	219.92702947845805	60	127
219.95024943310656	220.07795918367347	61	127
220.10117913832198	221.74979591836734	65	127
220.10117913832198	220.58879818594104	46	127
220.10117913832198	220.89065759637188	62	127
220.65845804988663	220.92548752834466	65	127
220.65845804988663	221.18090702947845	53	127
220.96031746031747	221.21573696145126	74	127
220.96031746031747	221.09963718820862	62	127
221.1112471655329	221.23895691609977	63	127
221.25056689342404	222.09809523809523	62	127
221.25056689342404	221.74979591836734	50	127
221.25056689342404	221.50598639455782	70	127
221.5408163265306	221.78462585034015	79	127
221.81945578231293	222.38834467120182	46	127
221.81945578231293	222.13292517006803	58	127
221.81945578231293	222.69020408163266	77	127
222.16775510204081	222.29546485260772	62	127
222.16775510204081	222.4231746031746	68	127
222.31868480725623	222.4231746031746	63	127
222.44639455782314	222.93401360544217	47	127
222.44639455782314	224.04857142857142	67	127
222.44639455782314	223.235873015873	62	127
223.015283446712	223.2707029478458	67	127
223.015283446712	223.51451247165534	53	127
223.3055328798186	223.53773242630385	74	127
223.3055328798186	223.42163265306124	62	127
223.44485260770975	223.5609523809524	63	127
223.5841723356009	224.04857142857142	50	127
223.5841723356009	224.35043083900226	62	127
223.5841723356009	223.8047619047619	71	127
223.85120181405895	223.9673015873016	79	127
223.9905215419501	224.10662131519274	80	127
224.118231292517	224.98897959183674	79	127
224.118231292517	224.38526077097507	59	127
224.118231292517	224.62907029478458	47	127
224.42009070294785	224.54780045351475	62	127
224.42009070294785	224.66390022675736	68	127
224.559410430839	224.6871201814059	63	127
224.69873015873017	224.82643990929705	64	127
224.69873015873017	224.98897959183674	67	127
224.69873015873017	224.98897959183674	48	127
224.83804988662132	225.01219954648525	52	127
225.02380952380952	225.16312925170067	55	127
225.17473922902494	225.33727891156462	60	127
225.3488888888889	225.47659863945577	67	127
225.3488888888889	225.5926984126984	64	127
225.48820861678004	225.61591836734695	72	127
225.6275283446712	225.74362811791383	76	127
225.76684807256237	225.88294784580498	79	127
225.90616780045352	226.02226757369615	38	127
225.90616780045352	226.17319727891157	77	127
225.90616780045352	227.36902494331065	62	127
225.90616780045352	227.36902494331065	55	127
226.05709750566893	226.1848072562358	41	127
226.20802721088435	226.3473469387755	77	127
226.20802721088435	226.3473469387755	43	127
226.37056689342404	226.48666666666668	79	127
226.37056689342404	226.48666666666668	47	127
226.52149659863946	227.36902494331065	77	127
226.52149659863946	226.6375963718821	50	127
226.6608163265306	226.78852607709752	53	127
226.81174603174603	226.93945578231293	55	127
226.96267573696144	227.10199546485262	59	127
227.12521541950113	227.36902494331065	62	127
227.4154648526077	227.64766439909297	60	127
227.4154648526077	227.64766439909297	76	127
227.4154648526077	227.64766439909297	67	127
227.4154648526077	227.64766439909297	60	127
227.7057142857143	227.93791383219954	67	127
227.7057142857143	227.93791383219954	62	127
227.7057142857143	227.93791383219954	59	127
227.7057142857143	227.93791383219954	74	127
227.9843537414966	228.22816326530614	72	127
227.9843537414966	228.22816326530614	57	127
227.9843537414966	228.22816326530614	62	127
227.9843537414966	228.1120634920635	64	127
228.12367346938777	228.26299319727892	66	127
228.28621315192743	228.5416326530612	71	127
228.28621315192743	228.5416326530612	62	127
228.28621315192743	228.5416326530612	55	127
228.28621315192743	228.5416326530612	67	127
228.6112925170068	228.90154195011337	69	127
228.6112925170068	228.90154195011337	48	127
228.6112925170068	228.90154195011337	64	127
228.6112925170068	228.90154195011337	67	127
228.93637188208618	229.2034013605442	50	127
228.93637188208618	229.2034013605442	67	127
228.93637188208618	229.2034013605442	59	127
229.238231292517	229.37755102040816	64	127
229.238231292517	229.47043083900226	60	127
229.238231292517	229.47043083900226	74	127
229.238231292517	229.47043083900226	50	127
229.38916099773243	229.4936507936508	66	127
229.50526077097507	229.78390022675737	67	127
229.50526077097507	229.78390022675737	59	127
229.50526077097507	229.78390022675737	43	127
229.81873015873015	230.07414965986393	50	127
229.81873015873015	229.94643990929706	69	127
229.81873015873015	229.94643990929706	54	127
229.81873015873015	230.07414965986393	60	127
229.96965986394557	230.0857596371882	66	127
229.96965986394557	230.0857596371882	57	127
230.10897959183674	230.36439909297053	67	127
230.10897959183674	230.36439909297053	43	127
230.10897959183674	230.36439909297053	55	127
230.10897959183674	230.36439909297053	59	127
230.3992290249433	230.6546485260771	60	127
230.3992290249433	230.51532879818595	54	127
230.3992290249433	230.6546485260771	50	127
230.3992290249433	230.51532879818595	69	127
230.53854875283446	230.66625850340137	57	127
230.53854875283446	230.66625850340137	66	127
230.68947845804988	230.9681179138322	67	127
230.68947845804988	230.9681179138322	43	127
230.68947845804988	230.9681179138322	55	127
230.68947845804988	230.9681179138322	59	127
230.9913378684807	231.2467573696145	60	127
230.9913378684807	231.1306575963719	69	127
230.9913378684807	231.1306575963719	54	127
230.9913378684807	231.2467573696145	50	127
231.14226757369613	231.26997732426304	66	127
231.14226757369613	231.26997732426304	57	127
231.29319727891158	231.54861678004536	59	127
231.29319727891158	231.54861678004536	43	127
231.29319727891158	231.54861678004536	55	127
231.29319727891158	231.54861678004536	67	127
231.61827664399092	231.8504761904762	64	127
231.61827664399092	231.73437641723356	55	127
231.61827664399092	231.8504761904762	48	127
231.61827664399092	231.73437641723356	58	127
231.75759637188207	231.8736961451247	58	127
231.75759637188207	231.8736961451247	61	127
231.89691609977325	232.10589569161	65	127
231.89691609977325	232.10589569161	41	127
231.89691609977325	232.10589569161	56	127
231.89691609977325	232.10589569161	60	127
232.14072562358277	232.38453514739228	58	127
232.14072562358277	232.26843537414965	52	127
232.14072562358277	232.38453514739228	48	127
232.14072562358277	232.26843537414965	67	127
232.28004535147392	232.40775510204082	55	127
232.28004535147392	232.40775510204082	64	127
232.4193650793651	232.68639455782312	65	127
232.4193650793651	232.68639455782312	41	127
232.4193650793651	232.68639455782312	56	127
232.4193650793651	232.68639455782312	56	127
232.72122448979593	233.04630385487528	46	127
232.72122448979593	232.86054421768708	56	127
232.72122448979593	233.04630385487528	62	127
232.72122448979593	233.04630385487528	58	127
232.87215419501135	233.06952380952382	53	127
233.08113378684808	233.3481632653061	58	127
233.08113378684808	233.3481632653061	39	127
233.08113378684808	233.3481632653061	55	127
233.08113378684808	233.3481632653061	63	127
233.38299319727892	233.6384126984127	58	127
233.38299319727892	233.5107029478458	50	127
233.38299319727892	233.6384126984127	46	127
233.38299319727892	233.5107029478458	65	127
233.53392290249434	233.66163265306122	53	127
233.53392290249434	233.66163265306122	62	127
233.6732426303855	233.9867120181406	63	127
233.6732426303855	233.9867120181406	55	127
233.6732426303855	233.9867120181406	58	127
233.6732426303855	233.80095238095237	39	127
233.8241723356009	233.99832199546486	41	127
234.02154195011337	234.2653514739229	62	127
234.02154195011337	234.2653514739229	43	127
234.02154195011337	234.2653514739229	53	127
234.02154195011337	234.2653514739229	59	127
234.3001814058957	234.4162811791383	51	127
234.3001814058957	234.56721088435373	60	127
234.3001814058957	236.56412698412697	36	127
234.4627210884354	234.578820861678	55	127
234.60204081632654	234.74136054421768	60	127
234.76458049886622	234.88068027210883	63	127
234.92712018140588	237.1562358276644	67	127
234.92712018140588	235.04321995464852	67	127
235.06643990929706	235.18253968253967	72	127
235.2057596371882	235.32185941043085	75	127
235.34507936507936	235.47278911564626	79	127
235.49600907029478	235.73981859410432	79	127
235.49600907029478	235.73981859410432	77	127
235.78625850340137	236.00684807256235	80	127
235.78625850340137	235.89074829931974	77	127
235.91396825396825	236.0300680272109	79	127
236.0532879818594	236.9124263038549	77	127
236.0532879818594	236.29709750566894	81	127
236.343537414966	236.6221768707483	83	127
236.6570068027211	237.1562358276644	48	127
236.6570068027211	237.1562358276644	84	127
236.94725623582767	237.19106575963718	75	127
237.22589569160996	237.53936507936507	74	127
237.22589569160996	237.53936507936507	65	127
237.22589569160996	237.78317460317461	45	127
237.22589569160996	237.40004535147392	84	127
237.42326530612246	237.5625850340136	86	127
237.57419501133788	237.8180045351474	72	127
237.57419501133788	237.8180045351474	63	127
237.57419501133788	237.70190476190476	86	127
237.71351473922903	237.82961451247166	87	127
237.85283446712018	238.36367346938775	50	127
237.85283446712018	238.64231292517007	86	127
237.85283446712018	238.0966439909297	70	127
237.85283446712018	238.0966439909297	62	127
238.1314739229025	238.39850340136056	60	127
238.1314739229025	238.39850340136056	69	127
238.43333333333334	238.92095238095237	38	127
238.43333333333334	238.67714285714285	67	127
238.43333333333334	238.67714285714285	58	127
238.71197278911563	238.82807256235827	57	127
238.71197278911563	238.95578231292518	66	127
238.71197278911563	238.82807256235827	74	127
238.8512925170068	238.96739229024942	60	127
238.8512925170068	238.96739229024942	78	127
238.99061224489796	239.1067120181406	79	127
238.99061224489796	239.23442176870748	43	127
238.99061224489796	239.23442176870748	58	127
238.99061224489796	239.23442176870748	67	127
239.1299319727891	239.24603174603175	82	127
239.2692517006803	241.02235827664398	86	127
239.2692517006803	239.3853514739229	69	127
239.2692517006803	239.5362811791383	60	127
239.43179138321995	239.55950113378685	66	127
239.58272108843536	239.81492063492064	67	127
239.58272108843536	239.81492063492064	58	127
239.8613605442177	240.1051700680272	38	127
239.8613605442177	239.98907029478457	69	127
239.8613605442177	240.1051700680272	60	127
240.0122902494331	240.12839002267575	66	127
240.14	240.38380952380953	58	127
240.14	240.2677097505669	43	127
240.14	240.38380952380953	67	127
240.27931972789116	240.40702947845804	46	127
240.4186394557823	240.54634920634922	69	127
240.4186394557823	240.75532879818593	50	127
240.4186394557823	240.75532879818593	60	127
240.65083900226756	240.77854875283447	66	127
240.79015873015874	241.02235827664398	67	127
240.79015873015874	241.02235827664398	43	127
240.79015873015874	241.02235827664398	58	127
241.0571882086168	241.3009977324263	64	127
241.0571882086168	241.3009977324263	48	127
241.0571882086168	241.18489795918367	72	127
241.0571882086168	241.18489795918367	58	127
241.19650793650794	241.32421768707482	76	127
241.19650793650794	241.32421768707482	55	127
241.34743764172336	241.59124716553288	41	127
241.34743764172336	241.47514739229024	77	127
241.34743764172336	241.59124716553288	65	127
241.34743764172336	241.59124716553288	56	127
241.4867573696145	241.61446712018142	80	127
241.62607709750566	243.33274376417233	84	127
241.62607709750566	241.75378684807256	67	127
241.62607709750566	241.88149659863944	58	127
241.77700680272108	241.8931065759637	64	127
241.91632653061225	242.17174603174604	56	127
241.91632653061225	242.17174603174604	65	127
242.20657596371882	242.4968253968254	36	127
242.20657596371882	242.32267573696146	67	127
242.20657596371882	242.4968253968254	58	127
242.34589569160997	242.50843537414966	64	127
242.5316553287982	242.7754648526077	56	127
242.5316553287982	242.6477551020408	41	127
242.5316553287982	242.7754648526077	65	127
242.67097505668934	242.78707482993198	44	127
242.8102947845805	242.9380045351474	67	127
242.8102947845805	243.06571428571428	48	127
242.8102947845805	243.06571428571428	58	127
242.9612244897959	243.07732426303855	64	127
243.1005442176871	243.33274376417233	65	127
243.1005442176871	243.33274376417233	56	127
243.1005442176871	243.33274376417233	41	127
243.37918367346938	243.49528344671202	70	127
243.37918367346938	243.49528344671202	56	127
243.37918367346938	243.6229931972789	62	127
243.37918367346938	243.6229931972789	46	127
243.51850340136053	243.64621315192744	74	127
243.51850340136053	243.64621315192744	53	127
243.66943310657595	243.936462585034	39	127
243.66943310657595	243.936462585034	55	127
243.66943310657595	243.936462585034	63	127
243.66943310657595	243.82036281179137	75	127
243.8435827664399	243.95968253968255	79	127
243.99451247165533	244.23832199546484	56	127
243.99451247165533	244.13383219954648	65	127
243.99451247165533	244.23832199546484	82	127
244.14544217687074	244.26154195011338	62	127
244.27315192743765	244.51696145124717	55	127
244.27315192743765	244.51696145124717	63	127
244.55179138321995	244.67950113378686	65	127
244.55179138321995	244.818820861678	46	127
244.55179138321995	244.818820861678	56	127
244.6911111111111	244.84204081632652	62	127
244.8536507936508	245.0974603174603	55	127
244.8536507936508	244.96975056689342	51	127
244.8536507936508	245.0974603174603	63	127
244.9813605442177	245.1322902494331	55	127
245.17873015873016	245.71278911564625	58	127
245.17873015873016	245.44575963718822	56	127
245.17873015873016	245.3180498866213	65	127
245.34126984126985	245.46897959183673	62	127
245.480589569161	245.71278911564625	63	127
245.480589569161	245.71278911564625	55	127
245.75922902494332	246.06108843537416	53	127
245.75922902494332	245.87532879818593	70	127
245.89854875283447	246.0726984126984	74	127
245.89854875283447	246.0726984126984	68	127
246.09591836734694	246.21201814058958	75	127
246.09591836734694	246.3281179138322	51	127
246.09591836734694	246.3281179138322	67	127
246.2352380952381	246.33972789115646	78	127
246.362947845805	246.4790476190476	50	127
246.362947845805	246.4790476190476	68	127
246.362947845805	246.6067573696145	82	127
246.50226757369614	246.61836734693878	65	127
246.50226757369614	246.61836734693878	53	127
246.6415873015873	246.88539682539684	51	127
246.6415873015873	246.88539682539684	67	127
246.92022675736962	247.16403628117914	48	127
246.92022675736962	247.03632653061226	68	127
246.92022675736962	247.03632653061226	44	127
247.05954648526077	247.1756462585034	48	127
247.05954648526077	247.1756462585034	67	127
247.19886621315192	247.46589569160997	49	127
247.19886621315192	247.31496598639455	49	127
247.19886621315192	247.46589569160997	65	127
247.3381859410431	247.4891156462585	53	127
247.51233560090702	247.62843537414966	67	127
247.51233560090702	247.75614512471654	48	127
247.51233560090702	247.75614512471654	56	127
247.6516553287982	247.77936507936508	63	127
247.81419501133786	248.06961451247165	49	127
247.81419501133786	248.06961451247165	65	127
248.10444444444445	248.25537414965987	67	127
248.10444444444445	248.25537414965987	68	127
248.10444444444445	248.38308390022675	51	127
248.2669841269841	248.4063038548753	63	127
248.2669841269841	248.4063038548753	72	127
248.41791383219956	250.61219954648527	53	127
248.41791383219956	250.61219954648527	61	127
248.41791383219956	250.61219954648527	56	127
248.41791383219956	248.54562358276644	73	127
248.41791383219956	250.61219954648527	41	127
248.56884353741498	248.69655328798186	77	127
248.70816326530613	248.835873015873	80	127
248.84748299319727	248.97519274376418	79	127
248.98680272108842	249.11451247165533	77	127
249.1261224489796	249.25383219954648	75	127
249.26544217687075	249.39315192743763	73	127
249.4047619047619	249.5324716553288	72	127
249.54408163265308	249.68340136054422	70	127
249.70662131519273	249.83433106575964	68	127
249.85755102040815	249.9736507936508	67	127
249.99687074829933	250.11297052154194	65	127
250.13619047619048	250.25229024943312	63	127
250.27551020408163	250.39160997732426	65	127
250.41482993197278	250.51931972789114	61	127
250.54253968253968	250.65863945578232	60	127
250.68185941043083	252.19115646258504	59	127
250.68185941043083	252.43496598639456	55	127
250.68185941043083	250.80956916099774	43	127
250.68185941043083	250.99532879818594	59	127
250.83278911564625	251.0069387755102	55	127
251.03015873015872	251.14625850340136	62	127
251.03015873015872	251.27396825396826	67	127
251.1694784580499	251.29718820861677	60	127
251.3204081632653	251.43650793650792	59	127
251.3204081632653	251.5758276643991	62	127
251.482947845805	251.5990476190476	57	127
251.62226757369615	251.7615873015873	55	127
251.62226757369615	251.91251700680272	71	127
251.78480725623584	251.93573696145125	53	127
251.95895691609977	252.19115646258504	67	127
251.95895691609977	252.06344671201813	51	127
252.0750566893424	252.21437641723355	50	127
252.22598639455782	252.35369614512473	67	127
252.22598639455782	252.6439455782313	67	127
252.22598639455782	252.35369614512473	48	127
252.36530612244897	252.50462585034015	74	127
252.36530612244897	252.50462585034015	47	127
252.5162358276644	252.9225850340136	45	127
252.5162358276644	253.22444444444446	57	127
252.5162358276644	253.22444444444446	72	127
252.6671655328798	252.9574149659864	66	127
252.96902494331067	253.1431746031746	64	127
252.96902494331067	253.25927437641724	38	127
253.15478458049887	253.28249433106575	66	127
253.29410430839002	253.83977324263037	67	127
253.29410430839002	255.6625396825397	43	127
253.29410430839002	253.43342403628117	71	127
253.44503401360544	253.60757369614512	79	127
253.6191836734694	253.87460317460318	55	127
253.6191836734694	253.75850340136054	86	127
253.7701133786848	253.88621315192745	84	127
253.90943310657596	255.19814058956916	79	127
253.90943310657596	254.0255328798186	83	127
253.90943310657596	254.16485260770975	50	127
254.0487528344671	254.17646258503402	81	127
254.19968253968253	254.31578231292517	79	127
254.19968253968253	254.44349206349207	59	127
254.3390022675737	254.4551020408163	77	127
254.47832199546485	254.75696145124718	55	127
254.47832199546485	254.617641723356	75	127
254.64086167800454	254.7801814058957	74	127
254.80340136054423	254.9311111111111	55	127
254.80340136054423	254.9311111111111	72	127
254.95433106575965	255.05882086167802	62	127
254.95433106575965	255.05882086167802	71	127
255.08204081632653	255.6625396825397	69	127
255.08204081632653	255.6625396825397	60	127
255.2445804988662	255.4071201814059	78	127
255.4303401360544	255.55804988662132	76	127
255.58126984126983	255.70897959183674	78	127
255.73219954648525	255.8831292517007	67	127
255.73219954648525	255.9992290249433	43	127
255.73219954648525	255.9992290249433	59	127
255.73219954648525	255.9992290249433	79	127
255.9063492063492	256.02244897959184	71	127
256.0456689342404	256.161768707483	59	127
256.0456689342404	256.161768707483	71	127
256.0456689342404	256.161768707483	74	127
256.1849886621315	256.30108843537414	69	127
256.1849886621315	256.30108843537414	62	127
256.1849886621315	256.30108843537414	72	127
256.3126984126984	256.83514739229025	60	127
256.3126984126984	256.4404081632653	71	127
256.3126984126984	256.4404081632653	67	127
256.3126984126984	256.55650793650796	38	127
256.4520181405896	256.61455782312925	66	127
256.4520181405896	256.61455782312925	69	127
256.6261678004535	256.88156462585033	50	127
256.6261678004535	256.7538775510204	67	127
256.6261678004535	256.7538775510204	64	127
256.7654875283447	256.8931746031746	66	127
256.7654875283447	256.8931746031746	69	127
256.9048072562358	257.1602267573696	67	127
256.9048072562358	257.1602267573696	43	127
256.9048072562358	257.1602267573696	59	127
256.9048072562358	257.0325170068027	67	127
257.044126984127	257.18344671201817	71	127
257.19503401360544	257.3227664399093	59	127
257.19503401360544	257.3227664399093	74	127
257.19503401360544	257.3227664399093	71	127
257.33437641723356	257.47369614512473	72	127
257.33437641723356	257.47369614512473	62	127
257.33437641723356	257.47369614512473	69	127
257.485306122449	257.61301587301585	71	127
257.485306122449	257.7175056689342	38	127
257.485306122449	257.9845351473923	60	127
257.485306122449	257.61301587301585	67	127
257.6246258503401	257.7291156462585	69	127
257.6246258503401	257.7291156462585	66	127
257.75233560090703	258.01936507936506	50	127
257.75233560090703	257.88004535147394	67	127
257.75233560090703	257.88004535147394	64	127
257.91485260770975	258.03097505668933	69	127
257.91485260770975	258.03097505668933	66	127
258.05419501133787	258.28639455782314	43	127
258.05419501133787	258.28639455782314	59	127
258.05419501133787	258.28639455782314	67	127
258.32120181405895	258.47215419501134	50	127
258.32120181405895	258.47215419501134	74	127
258.32120181405895	258.47215419501134	62	127
258.4953741496599	258.59986394557825	86	127
258.4953741496599	258.59986394557825	62	127
258.4953741496599	258.59986394557825	70	127
258.6114739229025	258.9481632653061	74	127
258.6114739229025	258.9481632653061	50	127
258.6114739229025	258.9481632653061	38	127
258.6114739229025	258.9481632653061	62	127
258.9829931972789	259.09909297052155	74	127
258.9829931972789	259.23839002267573	50	127
258.9829931972789	259.09909297052155	50	127
258.9829931972789	259.09909297052155	62	127
259.13390022675736	259.25002267573694	74	127
259.13390022675736	259.25002267573694	86	127
259.13390022675736	259.25002267573694	62	127
259.2732426303855	259.5286621315193	62	127
259.2732426303855	259.5286621315193	38	127
259.2732426303855	259.5286621315193	50	127
259.2732426303855	259.5286621315193	74	127
259.5751020408163	259.69120181405896	50	127
259.5751020408163	259.69120181405896	74	127
259.5751020408163	259.69120181405896	62	127
259.7144217687075	259.83052154195013	86	127
259.7144217687075	259.83052154195013	62	127
259.7144217687075	259.83052154195013	74	127
259.8537188208617	260.0859410430839	74	127
259.8537188208617	260.0859410430839	50	127
259.8537188208617	260.0859410430839	38	127
259.8537188208617	260.0859410430839	62	127
260.13238095238097	260.2484807256236	74	127
260.13238095238097	260.37619047619046	39	127
260.13238095238097	260.2484807256236	50	127
260.13238095238097	260.2484807256236	62	127
260.2717006802721	260.399410430839	51	127
260.2717006802721	260.399410430839	75	127
260.2717006802721	260.399410430839	63	127
260.41102040816327	260.73609977324264	53	127
260.41102040816327	260.73609977324264	41	127
260.41102040816327	260.73609977324264	77	127
260.41102040816327	260.73609977324264	65	127
260.77090702947845	260.8986394557823	77	127
260.77090702947845	260.8986394557823	53	127
260.77090702947845	261.01473922902494	77	127
260.91024943310657	261.0379591836735	89	127
260.91024943310657	261.0379591836735	65	127
261.04956916099775	261.32820861678005	65	127
261.04956916099775	261.32820861678005	41	127
261.04956916099775	261.32820861678005	53	127
261.04956916099775	261.32820861678005	77	127
261.36303854875285	261.60684807256234	77	127
261.36303854875285	261.49072562358276	53	127
261.36303854875285	261.60684807256234	53	127
261.36303854875285	261.49072562358276	77	127
261.502358276644	261.6300680272109	65	127
261.502358276644	261.6300680272109	89	127
261.64167800453515	261.92031746031745	77	127
261.64167800453515	261.92031746031745	41	127
261.64167800453515	261.92031746031745	53	127
261.64167800453515	261.92031746031745	65	127
262.00156462585034	262.1176870748299	53	127
262.00156462585034	262.1176870748299	77	127
262.00156462585034	262.2453968253968	77	127
262.14090702947846	262.2570068027211	89	127
262.14090702947846	262.2570068027211	65	127
262.26861678004536	262.64013605442176	53	127
262.26861678004536	262.64013605442176	77	127
262.26861678004536	262.64013605442176	65	127
262.7097732426304	262.95360544217687	77	127
262.9884353741497	264.05655328798184	63	127
262.9884353741497	263.2554648526077	78	127
263.2902947845805	263.754693877551	65	127
263.2902947845805	263.49927437641725	77	127
263.54571428571427	263.77791383219954	81	127
263.8243537414966	264.0797732426304	77	127
263.8243537414966	264.3932426303855	65	127
264.12621315192746	264.4280725623583	82	127
264.12621315192746	265.32204081632653	62	127
264.46290249433105	264.72993197278913	53	127
264.46290249433105	265.04340136054424	65	127
264.46290249433105	264.72993197278913	77	127
264.76473922902494	265.078231292517	41	127
265.1130612244898	265.35687074829934	77	127
265.1130612244898	265.63551020408164	65	127
265.3917006802721	266.48303854875286	60	127
265.3917006802721	265.63551020408164	75	127
265.67034013605445	265.9373696145125	74	127
265.67034013605445	266.1927664399093	66	127
265.9721995464853	266.22761904761904	75	127
266.2740589569161	266.5178684807256	77	127
266.2740589569161	266.76167800453516	66	127
266.5526984126984	266.79650793650796	75	127
266.5526984126984	267.6556462585034	58	127
266.8313378684807	267.07514739229026	53	127
266.8313378684807	267.07514739229026	74	127
266.8313378684807	267.07514739229026	67	127
267.10995464852607	267.3770068027211	63	127
267.10995464852607	267.3770068027211	41	127
267.4118140589569	267.67886621315193	77	127
267.4118140589569	267.67886621315193	62	127
267.725283446712	268.2245351473923	57	127
267.725283446712	267.95750566893423	63	127
267.725283446712	267.95750566893423	78	127
268.0039455782313	268.27097505668934	77	127
268.0039455782313	268.5728344671202	63	127
268.30580498866215	268.607664399093	81	127
268.30580498866215	268.8863038548753	53	127
268.6424716553288	269.21138321995466	63	127
268.6424716553288	268.9211337868481	77	127
268.9559410430839	269.7686394557823	65	127
268.9559410430839	269.24621315192746	82	127
269.2810430839002	269.52485260770976	53	127
269.2810430839002	269.52485260770976	77	127
269.2810430839002	269.52485260770976	62	127
269.55965986394557	269.80349206349206	41	127
269.55965986394557	269.80349206349206	60	127
269.83832199546487	270.11696145124716	58	127
269.83832199546487	270.11696145124716	77	127
269.83832199546487	270.11696145124716	62	127
270.15179138322	270.418820861678	77	127
270.15179138322	270.418820861678	60	127
270.15179138322	270.418820861678	57	127
270.4536507936508	270.70907029478457	58	127
270.4536507936508	270.70907029478457	75	127
270.4536507936508	270.70907029478457	55	127
270.4536507936508	270.70907029478457	41	127
270.7439002267574	270.9877097505669	74	127
270.7439002267574	270.9877097505669	53	127
270.7439002267574	270.9877097505669	53	127
270.7439002267574	270.9877097505669	57	127
271.03414965986394	271.2779591836735	72	127
271.03414965986394	271.2779591836735	41	127
271.03414965986394	271.2779591836735	51	127
271.03414965986394	271.2779591836735	66	127
271.31278911564624	271.78879818594106	50	127
271.31278911564624	271.53337868480725	70	127
271.31278911564624	271.53337868480725	46	127
271.31278911564624	271.78879818594106	65	127
271.5798185941043	271.8119954648526	68	127
271.5798185941043	271.8119954648526	53	127
271.8700680272109	272.1370975056689	58	127
272.183537414966	272.450566893424	65	127
272.5086167800454	272.9962358276644	51	127
272.5086167800454	272.7408163265306	66	127
272.7756462585034	273.0310657596372	65	127
272.7756462585034	273.26326530612243	57	127
273.06589569160997	273.5419047619048	53	127
273.06589569160997	273.29809523809524	69	127
273.33292517006805	273.83215419501136	60	127
273.33292517006805	273.57673469387754	65	127
273.61156462585035	274.11079365079365	50	127
273.61156462585035	273.8669841269841	70	127
273.9018140589569	274.168820861678	65	127
273.9018140589569	274.4126530612245	58	127
274.20367346938775	274.74934240362813	46	127
274.48231292517005	275.12086167800453	65	127
274.48231292517005	275.12086167800453	62	127
274.87702947845804	275.37628117913835	44	127
275.15569160997734	275.4111111111111	62	127
275.15569160997734	275.4111111111111	59	127
275.4575510204082	275.68975056689345	63	127
275.4575510204082	275.68975056689345	60	127
275.4575510204082	275.9567800453515	45	127
275.7361904761905	275.98	62	127
275.7361904761905	275.98	65	127
276.02643990929704	276.2934693877551	63	127
276.02643990929704	276.2934693877551	60	127
276.02643990929704	276.56049886621315	46	127
276.3282993197279	276.5837188208617	58	127
276.3282993197279	276.5837188208617	62	127
276.6185260770975	277.1409977324263	41	127
276.6185260770975	277.4544671201814	70	127
276.93201814058955	277.1758276643991	65	127
277.2106575963719	277.4544671201814	67	127
277.2106575963719	277.69827664399094	39	127
277.4892970521542	277.73310657596375	69	127
277.4892970521542	277.73310657596375	65	127
277.77954648526077	278.0349659863946	69	127
277.77954648526077	278.627074829932	72	127
277.77954648526077	278.29038548752834	41	127
278.06979591836733	278.32521541950115	65	127
278.36002267573696	278.627074829932	70	127
278.36002267573696	278.88249433106574	38	127
278.6618820861678	278.9289342403628	65	127
278.6618820861678	278.9289342403628	70	127
278.96374149659863	279.7532426303855	77	127
278.96374149659863	279.45138321995466	44	127
279.2424036281179	279.4745804988662	74	127
279.5210430839002	280.04349206349207	42	127
279.5210430839002	279.7532426303855	74	127
279.7996825396825	280.0783219954649	72	127
279.7996825396825	280.0783219954649	75	127
280.14798185941044	280.7052380952381	70	127
280.14798185941044	280.40337868480725	74	127
280.14798185941044	280.40337868480725	43	127
280.46145124716554	281.0187074829932	72	127
280.46145124716554	280.74009070294784	39	127
280.77492063492065	281.0187074829932	69	127
280.77492063492065	281.0187074829932	41	127
281.05356009070294	281.541179138322	70	127
281.05356009070294	281.541179138322	46	127
281.05356009070294	281.541179138322	70	127
281.58761904761906	281.90108843537416	58	127
281.93589569160997	282.1681179138322	77	127
281.93589569160997	282.1681179138322	65	127
282.202947845805	282.36548752834466	66	127
282.202947845805	282.36548752834466	78	127
282.3887074829932	282.63251700680274	77	127
282.3887074829932	282.63251700680274	65	127
282.6673469387755	282.91115646258504	81	127
282.6673469387755	282.91115646258504	69	127
282.94598639455785	283.17818594104307	77	127
282.94598639455785	283.17818594104307	41	127
282.94598639455785	283.17818594104307	53	127
282.94598639455785	283.17818594104307	65	127
283.2130158730159	283.4684126984127	54	127
283.2130158730159	283.4684126984127	84	127
283.2130158730159	283.4684126984127	72	127
283.2130158730159	283.4684126984127	42	127
283.50326530612244	283.7354648526077	41	127
283.50326530612244	283.7354648526077	77	127
283.50326530612244	283.7354648526077	65	127
283.50326530612244	283.7354648526077	53	127
283.78190476190474	284.0257142857143	57	127
283.78190476190474	284.0257142857143	45	127
284.07215419501136	284.3275736961451	77	127
284.07215419501136	284.3275736961451	53	127
284.07215419501136	284.3275736961451	41	127
284.07215419501136	284.3275736961451	65	127
284.36240362811793	284.6178231292517	78	127
284.36240362811793	284.6178231292517	60	127
284.36240362811793	284.6178231292517	48	127
284.36240362811793	284.6178231292517	66	127
284.66426303854877	284.9196825396825	77	127
284.66426303854877	284.9196825396825	41	127
284.66426303854877	284.9196825396825	53	127
284.66426303854877	284.9196825396825	65	127
284.95451247165533	285.1983219954649	81	127
284.95451247165533	285.1983219954649	69	127
285.23315192743763	285.48857142857145	65	127
285.23315192743763	285.48857142857145	53	127
285.23315192743763	285.48857142857145	41	127
285.23315192743763	285.48857142857145	77	127
285.5234013605442	285.7556009070295	42	127
285.5234013605442	285.7556009070295	87	127
285.5234013605442	285.7556009070295	75	127
285.5234013605442	285.7556009070295	54	127
285.7904308390023	286.0110204081633	41	127
285.7904308390023	286.0110204081633	77	127
285.7904308390023	286.0110204081633	65	127
285.7904308390023	286.0110204081633	53	127
286.0342403628118	286.26643990929705	45	127
286.0342403628118	286.26643990929705	57	127
286.30126984126986	286.5682993197279	41	127
286.30126984126986	286.5682993197279	77	127
286.30126984126986	286.5682993197279	65	127
286.30126984126986	286.5682993197279	53	127
286.61473922902496	286.85854875283445	72	127
286.61473922902496	287.102358276644	63	127
286.61473922902496	286.85854875283445	87	127
286.89337868480726	287.1371882086168	65	127
286.89337868480726	287.1371882086168	77	127
286.89337868480726	287.1371882086168	41	127
287.17201814058956	287.48548752834466	51	127
287.17201814058956	287.77573696145123	53	127
287.53192743764174	287.79895691609977	41	127
287.53192743764174	287.79895691609977	77	127
287.53192743764174	287.79895691609977	65	127
287.84539682539685	288.07759637188207	87	127
287.84539682539685	288.07759637188207	75	127
287.84539682539685	288.3214058956916	63	127
288.12403628117914	288.3562358276644	77	127
288.12403628117914	288.3562358276644	65	127
288.12403628117914	288.3562358276644	41	127
288.3910657596372	288.6812925170068	51	127
288.3910657596372	288.93673469387755	53	127
288.71614512471655	288.97156462585036	77	127
288.71614512471655	288.97156462585036	41	127
288.71614512471655	288.97156462585036	65	127
289.0063945578231	289.5056009070295	63	127
289.0063945578231	289.25020408163266	87	127
289.0063945578231	289.25020408163266	75	127
289.28503401360547	289.5404535147392	78	127
289.28503401360547	289.5404535147392	66	127
289.28503401360547	289.5404535147392	42	127
289.57528344671204	290.0977324263039	54	127
289.57528344671204	289.85392290249433	51	127
289.88875283446714	290.13256235827663	42	127
289.88875283446714	290.13256235827663	78	127
289.88875283446714	290.13256235827663	66	127
290.2138095238095	290.7362811791383	63	127
290.2138095238095	290.4692517006803	87	127
290.2138095238095	290.4692517006803	75	127
290.5040816326531	290.7711111111111	78	127
290.5040816326531	290.7711111111111	42	127
290.5040816326531	290.7711111111111	66	127
290.82913832199546	291.1309977324263	51	127
290.82913832199546	291.3980498866213	54	127
291.16585034013605	291.4560997732426	86	127
291.16585034013605	291.4560997732426	42	127
291.16585034013605	291.4560997732426	74	127
291.4909297052154	291.61863945578233	86	127
291.4909297052154	292.01337868480726	72	127
291.4909297052154	292.5938775510204	66	127
291.64183673469387	291.75795918367345	87	127
291.781179138322	292.0365986394558	50	127
291.781179138322	291.92049886621317	87	127
291.9437188208617	292.05979591836734	86	127
292.0830385487528	292.32684807256237	69	127
292.0830385487528	292.32684807256237	60	127
292.0830385487528	292.19913832199546	86	127
292.222358276644	292.3500680272109	90	127
292.3616553287982	292.6287074829932	50	127
292.3616553287982	292.6287074829932	72	127
292.3616553287982	292.51260770975057	90	127
292.52421768707484	292.65192743764175	86	127
292.6751247165533	293.6619954648526	67	127
292.6751247165533	292.79124716553287	86	127
292.6751247165533	293.11632653061224	71	127
292.79124716553287	292.89573696145123	91	127
292.9073469387755	293.15115646258505	50	127
292.9073469387755	293.0350566893424	91	127
293.0466666666667	293.1743537414966	86	127
293.18596371882086	293.42979591836735	59	127
293.18596371882086	293.42979591836735	67	127
293.46462585034016	293.69680272108843	71	127
293.46462585034016	293.69680272108843	50	127
293.46462585034016	293.69680272108843	86	127
293.7316553287982	294.2308843537415	69	127
293.7316553287982	294.8113605442177	72	127
293.7316553287982	293.8477551020408	86	127
293.87097505668936	293.987074829932	84	127
294.0102947845805	294.2657142857143	50	127
294.0102947845805	294.1263945578231	84	127
294.14961451247166	294.27732426303857	83	127
294.3121541950113	294.55596371882086	66	127
294.3121541950113	294.55596371882086	57	127
294.3121541950113	294.42825396825396	83	127
294.4514739229025	294.56757369614513	84	127
294.59079365079367	294.84621315192743	69	127
294.59079365079367	294.7068934240363	84	127
294.59079365079367	294.84621315192743	50	127
294.7301133786848	294.88104308390024	86	127
294.9042630385488	295.97238095238095	71	127
294.9042630385488	295.0203401360544	86	127
294.9042630385488	295.0203401360544	67	127
295.0435827664399	295.15968253968254	84	127
295.0435827664399	295.15968253968254	69	127
295.19451247165534	295.310612244898	84	127
295.19451247165534	295.4266893424036	50	127
295.19451247165534	295.310612244898	69	127
295.3338095238095	295.4499319727891	71	127
295.3338095238095	295.4499319727891	83	127
295.47315192743764	295.7169614512472	71	127
295.47315192743764	295.7169614512472	59	127
295.7634013605442	295.9956009070295	50	127
295.7634013605442	295.9956009070295	86	127
295.7634013605442	295.9956009070295	74	127
296.04201814058956	296.2045804988662	86	127
296.04201814058956	296.59931972789116	72	127
296.04201814058956	297.1798185941043	66	127
296.2161904761905	296.3438775510204	87	127
296.35548752834467	296.63414965986397	50	127
296.35548752834467	296.5180498866213	87	127
296.5296598639456	296.6573469387755	86	127
296.6689795918367	296.9360090702948	69	127
296.6689795918367	296.9360090702948	60	127
296.6689795918367	296.81990929705216	86	127
296.83151927437643	296.95920634920634	90	127
296.97083900226755	297.22625850340137	72	127
296.97083900226755	297.22625850340137	50	127
296.97083900226755	297.09854875283446	90	127
297.11015873015873	297.2494784580499	86	127
297.2610884353742	297.77192743764175	71	127
297.2610884353742	298.3408163265306	67	127
297.2610884353742	297.41201814058957	86	127
297.42362811791384	297.55133786848074	91	127
297.562947845805	297.69065759637186	91	127
297.562947845805	297.8067573696145	50	127
297.70226757369613	297.81836734693877	86	127
297.8415873015873	298.08537414965986	59	127
297.8415873015873	297.95768707482995	71	127
297.9808843537415	298.09700680272107	74	127
298.1202267573696	298.3756462585034	86	127
298.1202267573696	298.2479365079365	79	127
298.1202267573696	298.3756462585034	50	127
298.27115646258505	298.3872562358277	83	127
298.4104761904762	298.51496598639454	86	127
298.4104761904762	299.46698412698413	62	127
298.4104761904762	298.64267573696145	81	127
298.5381859410431	298.6542857142857	84	127
298.67750566893426	298.92131519274375	38	127
298.67750566893426	298.7936054421769	84	127
298.67750566893426	298.92131519274375	80	127
298.8168253968254	298.932925170068	83	127
298.95614512471656	299.0722448979592	83	127
298.95614512471656	299.2231746031746	50	127
298.95614512471656	299.2231746031746	81	127
299.09546485260773	299.23478458049885	84	127
299.2580045351474	299.49020408163267	38	127
299.2580045351474	299.37410430839003	84	127
299.2580045351474	299.49020408163267	83	127
299.39732426303857	299.5134013605442	86	127
299.5366439909297	299.76884353741497	81	127
299.5366439909297	300.53510204081635	63	127
299.5366439909297	299.6527437641723	86	127
299.67596371882087	299.78045351473924	84	127
299.8036734693878	300.0242403628118	79	127
299.8036734693878	299.90816326530614	84	127
299.8036734693878	300.0242403628118	39	127
299.9313605442177	300.04748299319726	83	127
300.05909297052153	300.3029024943311	51	127
300.05909297052153	300.18680272108844	83	127
300.05909297052153	300.3029024943311	81	127
300.1984126984127	300.3261224489796	84	127
300.3377097505669	300.46544217687074	84	127
300.3377097505669	300.5699319727891	39	127
300.3377097505669	300.5699319727891	83	127
300.477052154195	300.59315192743765	86	127
300.6047619047619	300.7324716553288	86	127
300.6047619047619	301.73092970521543	64	127
300.6047619047619	300.84854875283446	81	127
300.7440589569161	300.87179138321994	84	127
300.8834013605442	301.1736507936508	80	127
300.8834013605442	301.03433106575966	84	127
300.8834013605442	301.1736507936508	40	127
301.0575283446712	301.1968707482993	83	127
301.2084807256236	301.4871201814059	52	127
301.2084807256236	301.37102040816325	83	127
301.2084807256236	301.4871201814059	81	127
301.3826303854875	301.5103401360544	84	127
301.5219501133787	301.76573696145124	40	127
301.5219501133787	301.76573696145124	83	127
301.5219501133787	301.63804988662133	84	127
301.66124716553287	301.77736961451245	86	127
301.800589569161	303.0312471655329	65	127
301.800589569161	301.9631292517007	86	127
301.800589569161	302.1140589569161	81	127
301.99795918367346	302.1488888888889	84	127
302.1836961451247	302.49718820861676	41	127
302.1836961451247	302.32303854875283	84	127
302.1836961451247	302.49718820861676	80	127
302.3462585034014	302.50879818594103	83	127
302.53201814058957	302.7758276643991	81	127
302.53201814058957	302.7758276643991	53	127
302.53201814058957	302.6481179138322	83	127
302.67133786848075	302.7874149659864	84	127
302.81065759637187	302.9383673469388	84	127
302.81065759637187	303.0660770975057	41	127
302.81065759637187	303.0660770975057	83	127
302.9615873015873	303.07768707482995	86	127
303.1008843537415	303.3331065759637	87	127
303.1008843537415	303.3331065759637	53	127
303.1008843537415	303.3331065759637	84	127
303.3795464852608	303.61172335600907	41	127
303.3795464852608	303.61172335600907	86	127
303.3795464852608	303.61172335600907	82	127
303.3795464852608	303.61172335600907	53	127
303.66979591836736	303.9252154195011	81	127
303.66979591836736	303.9252154195011	65	127
303.66979591836736	303.9252154195011	84	127
303.9716553287982	304.21546485260774	41	127
303.9716553287982	304.21546485260774	86	127
303.9716553287982	304.21546485260774	82	127
303.9716553287982	304.21546485260774	53	127
304.2502947845805	304.52891156462584	53	127
304.2502947845805	304.52891156462584	84	127
304.2502947845805	304.52891156462584	87	127
304.5637641723356	304.8424036281179	86	127
304.5637641723356	304.8424036281179	41	127
304.5637641723356	304.8424036281179	53	127
304.5637641723356	304.8424036281179	82	127
304.8772335600907	305.109433106576	65	127
304.8772335600907	305.109433106576	84	127
304.8772335600907	305.109433106576	81	127
305.1442403628118	305.39968253968254	86	127
305.1442403628118	305.39968253968254	82	127
305.1442403628118	305.39968253968254	65	127
305.1442403628118	305.39968253968254	41	127
305.43451247165535	305.67832199546484	78	127
305.43451247165535	305.67832199546484	66	127
305.43451247165535	305.67832199546484	87	127
305.71315192743765	305.9569387755102	77	127
305.71315192743765	305.9569387755102	41	127
305.71315192743765	305.9569387755102	65	127
305.71315192743765	305.8292517006803	87	127
305.8524489795918	305.9685714285714	86	127
305.99179138321995	306.2704081632653	87	127
305.99179138321995	306.2704081632653	69	127
305.99179138321995	306.2704081632653	48	127
305.99179138321995	306.2704081632653	81	127
306.30526077097505	306.4213605442177	87	127
306.30526077097505	306.5490702947846	41	127
306.30526077097505	306.5490702947846	65	127
306.30526077097505	306.5490702947846	77	127
306.44458049886623	306.56068027210887	89	127
306.58390022675735	306.83931972789117	70	127
306.58390022675735	306.83931972789117	82	127
306.58390022675735	306.83931972789117	86	127
306.874126984127	307.11795918367346	77	127
306.874126984127	306.99024943310656	86	127
306.874126984127	307.11795918367346	65	127
306.874126984127	307.11795918367346	41	127
307.0134693877551	307.12956916099773	84	127
307.15278911564627	307.38496598639455	46	127
307.15278911564627	307.38496598639455	86	127
307.43142857142857	307.69843537414965	77	127
307.43142857142857	307.69843537414965	41	127
307.43142857142857	307.69843537414965	65	127
307.43142857142857	307.5591383219955	86	127
307.582358276644	307.72167800453514	87	127
307.7448979591837	307.9887074829932	63	127
307.7448979591837	307.9887074829932	75	127
307.7448979591837	307.9887074829932	84	127
308.023537414966	308.25573696145125	74	127
308.023537414966	308.25573696145125	41	127
308.023537414966	308.25573696145125	62	127
308.023537414966	308.1396371882086	84	127
308.1512471655329	308.2789569160998	83	127
308.2789569160998	308.53437641723355	84	127
308.2789569160998	308.53437641723355	45	127
308.2789569160998	308.53437641723355	63	127
308.2789569160998	308.53437641723355	75	127
308.56920634920635	308.82460317460317	41	127
308.56920634920635	308.69691609977326	84	127
308.56920634920635	308.82460317460317	77	127
308.56920634920635	308.82460317460317	65	127
308.7201133786848	308.84784580498865	86	127
308.8594557823129	309.10326530612247	75	127
308.8594557823129	309.10326530612247	63	127
308.8594557823129	309.10326530612247	46	127
308.8594557823129	309.10326530612247	84	127
309.1380952380952	309.2658049886621	82	127
309.1380952380952	309.38190476190476	41	127
309.1380952380952	309.38190476190476	62	127
309.1380952380952	309.38190476190476	74	127
309.2774149659864	309.4051247165533	81	127
309.4167346938776	309.66054421768706	50	127
309.4167346938776	309.5328117913832	82	127
309.5560544217687	309.67215419501133	84	127
309.69537414965987	309.97401360544217	77	127
309.69537414965987	309.97401360544217	46	127
309.69537414965987	309.97401360544217	65	127
309.69537414965987	309.8114739229025	86	127
309.83469387755105	309.98562358276644	89	127
310.008843537415	310.2526303854875	78	127
310.008843537415	310.2526303854875	87	127
310.008843537415	310.2526303854875	66	127
310.2874829931973	310.55448979591836	41	127
310.2874829931973	310.55448979591836	65	127
310.2874829931973	310.55448979591836	77	127
310.2874829931973	310.42680272108845	87	127
310.450022675737	310.5660997732426	86	127
310.5893424036281	310.83315192743765	80	127
310.5893424036281	310.83315192743765	69	127
310.5893424036281	310.83315192743765	48	127
310.5893424036281	310.83315192743765	87	127
310.86795918367346	310.98408163265304	87	127
310.86795918367346	311.1001814058957	41	127
310.86795918367346	311.1001814058957	65	127
310.86795918367346	311.1001814058957	77	127
311.0073015873016	311.1234013605442	89	127
311.14662131519276	311.37879818594104	82	127
311.14662131519276	311.37879818594104	70	127
311.14662131519276	311.37879818594104	86	127
311.42526077097506	311.65746031746033	41	127
311.42526077097506	311.5413605442177	86	127
311.42526077097506	311.65746031746033	77	127
311.42526077097506	311.65746031746033	65	127
311.56458049886623	311.6806575963719	84	127
311.70390022675736	311.95931972789117	86	127
311.70390022675736	311.95931972789117	46	127
311.994126984127	312.2263492063492	41	127
311.994126984127	312.12185941043083	86	127
311.994126984127	312.2263492063492	77	127
311.994126984127	312.2263492063492	65	127
312.1334693877551	312.24956916099774	87	127
312.261179138322	312.50496598639455	84	127
312.261179138322	312.50496598639455	75	127
312.261179138322	312.50496598639455	63	127
312.5398185941043	312.78362811791385	74	127
312.5398185941043	312.78362811791385	41	127
312.5398185941043	312.78362811791385	62	127
312.5398185941043	312.6675283446712	84	127
312.6791383219955	312.8068253968254	83	127
312.8184580498866	313.0738775510204	84	127
312.8184580498866	313.0738775510204	63	127
312.8184580498866	313.0738775510204	45	127
312.8184580498866	313.0738775510204	75	127
313.1087074829932	313.2364172335601	84	127
313.1087074829932	313.3525170068027	41	127
313.1087074829932	313.3525170068027	65	127
313.1087074829932	313.3525170068027	77	127
313.24802721088435	313.364126984127	86	127
313.3873469387755	313.6195464852608	63	127
313.3873469387755	313.6195464852608	75	127
313.3873469387755	313.6195464852608	82	127
313.65437641723355	313.8865759637188	74	127
313.65437641723355	313.8865759637188	41	127
313.65437641723355	313.7704761904762	82	127
313.65437641723355	313.8865759637188	62	127
313.7936961451247	313.8865759637188	81	127
313.90979591836737	314.20004535147393	82	127
313.90979591836737	314.20004535147393	50	127
314.23485260770974	314.46707482993196	62	127
314.23485260770974	314.3509750566893	82	127
314.23485260770974	314.46707482993196	74	127
314.23485260770974	314.46707482993196	46	127
314.37419501133786	314.47868480725623	84	127
314.50190476190477	314.7457142857143	66	127
314.50190476190477	314.7457142857143	62	127
314.50190476190477	314.7457142857143	45	127
314.50190476190477	314.7457142857143	86	127
314.78054421768707	314.91986394557824	86	127
314.78054421768707	315.0359637188209	61	127
314.78054421768707	315.0359637188209	64	127
314.9430839002268	315.0591609977324	85	127
315.0824036281179	315.3146031746032	86	127
315.0824036281179	315.3146031746032	62	127
315.0824036281179	315.3146031746032	57	127
315.0824036281179	315.3146031746032	66	127
315.36102040816326	315.5932426303855	67	127
315.36102040816326	315.5932426303855	45	127
315.36102040816326	315.5932426303855	64	127
315.36102040816326	315.47714285714284	86	127
315.5003628117914	315.60485260770974	88	127
315.616462585034	315.8486621315193	62	127
315.616462585034	315.8486621315193	86	127
315.616462585034	315.8486621315193	66	127
315.8834693877551	316.1273015873016	64	127
315.8834693877551	316.1273015873016	45	127
315.8834693877551	316.1273015873016	61	127
315.8834693877551	315.9995918367347	85	127
316.01120181405895	316.1505215419501	83	127
316.1621315192744	316.4059410430839	55	127
316.1621315192744	316.2898185941043	84	127
316.3014512471655	316.4291609977324	86	127
316.4407709750567	316.68458049886624	66	127
316.4407709750567	316.68458049886624	54	127
316.4407709750567	316.68458049886624	62	127
316.4407709750567	316.5684807256236	88	127
316.58009070294787	316.7078004535147	90	127
316.719410430839	316.96321995464854	91	127
316.719410430839	316.96321995464854	52	127
316.719410430839	316.96321995464854	64	127
316.719410430839	316.96321995464854	67	127
317.00965986394556	317.2650793650794	52	127
317.00965986394556	317.13736961451247	91	127
317.00965986394556	317.2650793650794	66	127
317.00965986394556	317.2650793650794	63	127
317.160589569161	317.27668934240364	90	127
317.2999092970522	317.54371882086167	67	127
317.2999092970522	317.54371882086167	91	127
317.2999092970522	317.54371882086167	64	127
317.601768707483	317.8920181405896	45	127
317.601768707483	317.74108843537414	91	127
317.601768707483	317.8920181405896	69	127
317.601768707483	317.8920181405896	66	127
317.77591836734695	317.90362811791385	93	127
317.9268253968254	318.1938775510204	67	127
317.9268253968254	318.1938775510204	64	127
317.9268253968254	318.1938775510204	47	127
317.9268253968254	318.1938775510204	91	127
318.21709750566896	318.32158730158733	90	127
318.21709750566896	318.4492970521542	59	127
318.21709750566896	318.4492970521542	62	127
318.21709750566896	318.4492970521542	66	127
318.3448072562358	318.46090702947845	88	127
318.484126984127	318.71632653061226	47	127
318.484126984127	318.6002267573696	86	127
318.62344671201816	318.7395238095238	88	127
318.7627664399093	318.8904761904762	62	127
318.7627664399093	318.8904761904762	90	127
318.7627664399093	318.8904761904762	66	127
318.91369614512473	319.02979591836737	91	127
318.91369614512473	319.02979591836737	64	127
318.91369614512473	319.02979591836737	67	127
319.0529931972789	319.2968253968254	93	127
319.0529931972789	319.2968253968254	50	127
319.0529931972789	319.2968253968254	66	127
319.0529931972789	319.2968253968254	69	127
319.3432653061225	319.58707482993196	66	127
319.3432653061225	319.4709750566893	84	127
319.3432653061225	319.58707482993196	62	127
319.3432653061225	319.58707482993196	38	127
319.4825850340136	319.6102947845805	83	127
319.6219047619048	319.8656916099773	84	127
319.6219047619048	319.8656916099773	67	127
319.6219047619048	319.8656916099773	64	127
319.90054421768707	320.16755102040815	69	127
319.90054421768707	320.16755102040815	38	127
319.90054421768707	320.16755102040815	66	127
319.90054421768707	320.0514739229025	84	127
320.0630612244898	320.19079365079364	86	127
320.2024036281179	320.72485260770975	71	127
320.2024036281179	320.44621315192745	84	127
320.2024036281179	320.44621315192745	43	127
320.2024036281179	320.72485260770975	67	127
320.48102040816326	320.75968253968256	55	127
320.48102040816326	320.6435827664399	83	127
320.6551927437642	320.7828798185941	84	127
320.7945124716553	321.0499319727891	47	127
320.7945124716553	321.29371882086167	66	127
320.7945124716553	321.29371882086167	69	127
320.7945124716553	320.9222222222222	83	127
320.94544217687076	321.0615419501134	85	127
321.08473922902493	321.3285714285714	59	127
321.08473922902493	321.2008616780045	85	127
321.22408163265305	321.3401814058957	87	127
321.35179138321996	321.57238095238097	67	127
321.35179138321996	321.57238095238097	64	127
321.35179138321996	321.57238095238097	52	127
321.35179138321996	321.57238095238097	88	127
321.6071882086168	321.8742403628118	40	127
321.6071882086168	321.7349206349206	79	127
321.6071882086168	321.8742403628118	64	127
321.6071882086168	321.8742403628118	61	127
321.75814058956917	321.8858503401361	78	127
321.9090476190476	322.14126984126983	79	127
321.9090476190476	322.14126984126983	66	127
321.9090476190476	322.14126984126983	62	127
322.17609977324264	322.2921995464853	79	127
322.17609977324264	322.4315192743764	67	127
322.17609977324264	322.4315192743764	52	127
322.17609977324264	322.4315192743764	64	127
322.3153968253968	322.44312925170067	83	127
322.4663492063492	323.0004081632653	69	127
322.4663492063492	322.721746031746	81	127
322.4663492063492	322.721746031746	45	127
322.4663492063492	323.0004081632653	66	127
322.76820861678004	323.02362811791386	57	127
322.76820861678004	322.8843083900227	81	127
322.9075283446712	323.04684807256234	80	127
323.0932879818594	323.5692970521542	67	127
323.0932879818594	323.5692970521542	64	127
323.0932879818594	323.20938775510206	81	127
323.2325850340136	323.3487074829932	83	127
323.36031746031745	323.48802721088435	83	127
323.36031746031745	323.604126984127	45	127
323.4996371882086	323.62734693877553	85	127
323.6389569160998	323.8827664399093	66	127
323.6389569160998	323.8827664399093	62	127
323.6389569160998	323.8827664399093	38	127
323.6389569160998	323.8827664399093	86	127
323.9175963718821	324.045306122449	81	127
323.9175963718821	324.16138321995464	61	127
323.9175963718821	324.16138321995464	64	127
324.0568934240363	324.1846258503401	82	127
324.1962358276644	324.44004535147394	81	127
324.1962358276644	324.44004535147394	62	127
324.1962358276644	324.44004535147394	50	127
324.1962358276644	324.44004535147394	66	127
324.4748752834467	324.59097505668933	81	127
324.4748752834467	324.70707482993197	38	127
324.4748752834467	324.70707482993197	64	127
324.4748752834467	324.70707482993197	67	127
324.6025850340136	324.7302947845805	79	127
324.7419047619048	324.98571428571427	62	127
324.7419047619048	324.98571428571427	66	127
324.7419047619048	324.98571428571427	78	127
325.0205442176871	325.1366439909297	78	127
325.0205442176871	325.3224036281179	45	127
325.0205442176871	325.3224036281179	61	127
325.0205442176871	325.3224036281179	64	127
325.15986394557825	325.3340136054422	79	127
325.368843537415	325.47333333333336	76	127
325.368843537415	325.6010430839002	57	127
325.49655328798184	325.6126530612245	78	127
325.635873015873	325.87968253968256	61	127
325.635873015873	325.7635827664399	79	127
325.635873015873	325.87968253968256	64	127
325.635873015873	325.87968253968256	45	127
325.78680272108846	325.89126984126983	76	127
325.9145124716553	326.15832199546486	65	127
325.9145124716553	326.15832199546486	62	127
325.9145124716553	326.15832199546486	50	127
325.9145124716553	326.15832199546486	86	127
326.19315192743767	326.3092290249433	81	127
326.19315192743767	326.4253514739229	61	127
326.19315192743767	326.4253514739229	64	127
326.3324716553288	326.4485714285714	82	127
326.47179138321997	326.7155782312925	65	127
326.47179138321997	326.7155782312925	81	127
326.47179138321997	326.7155782312925	50	127
326.47179138321997	326.7155782312925	62	127
326.76204081632653	327.0058503401361	64	127
326.76204081632653	327.0058503401361	38	127
326.76204081632653	326.88975056689344	81	127
326.76204081632653	327.0058503401361	67	127
326.912947845805	327.02907029478456	79	127
327.0522902494331	327.2844897959184	77	127
327.0522902494331	327.2844897959184	65	127
327.0522902494331	327.2844897959184	62	127
327.3193197278912	327.5631292517007	61	127
327.3193197278912	327.5631292517007	45	127
327.3193197278912	327.44702947845803	77	127
327.3193197278912	327.5631292517007	64	127
327.4586394557823	327.5863492063492	79	127
327.60956916099775	327.76049886621314	76	127
327.60956916099775	327.8649886621315	57	127
327.7721088435374	327.88820861678005	77	127
327.8998185941043	328.14360544217686	55	127
327.8998185941043	328.14360544217686	64	127
327.8998185941043	328.0275283446712	79	127
327.8998185941043	328.14360544217686	45	127
327.8998185941043	328.14360544217686	58	127
328.0391156462585	328.16684807256235	76	127
328.1784580498866	328.4106575963719	64	127
328.1784580498866	328.4106575963719	58	127
328.1784580498866	328.4106575963719	55	127
328.1784580498866	328.4106575963719	73	127
328.4454875283447	328.57319727891155	74	127
328.4454875283447	328.6892970521542	38	127
328.4454875283447	328.6892970521542	62	127
328.4454875283447	328.6892970521542	57	127
328.4454875283447	328.6892970521542	54	127
328.5848072562358	328.70090702947846	76	127
328.724126984127	328.96791383219954	50	127
328.724126984127	328.84022675736963	74	127
328.8634240362812	328.97954648526076	69	127
329.01437641723356	329.15369614512474	67	127
329.01437641723356	329.2814058956916	38	127
329.01437641723356	329.2814058956916	57	127
329.01437641723356	329.2814058956916	54	127
329.01437641723356	329.2814058956916	62	127
329.1769160997732	329.29301587301586	66	127
329.30462585034013	329.56004535147395	57	127
329.30462585034013	329.56004535147395	62	127
329.30462585034013	329.56004535147395	54	127
329.5948752834467	329.827074829932	58	127
329.5948752834467	329.827074829932	38	127
329.5948752834467	329.69936507936507	63	127
329.5948752834467	329.827074829932	61	127
329.5948752834467	329.827074829932	55	127
329.7225850340136	329.83868480725624	66	127
329.8619047619048	330.11732426303854	67	127
329.8619047619048	330.11732426303854	50	127
330.1637641723356	330.3959410430839	38	127
330.1637641723356	330.27986394557826	67	127
330.1637641723356	330.3959410430839	61	127
330.1637641723356	330.3959410430839	58	127
330.1637641723356	330.3959410430839	55	127
330.30308390022674	330.43079365079365	70	127
330.4540136054422	330.68621315192746	58	127
330.4540136054422	330.68621315192746	64	127
330.4540136054422	330.68621315192746	55	127
330.7326530612245	330.9416326530612	62	127
330.7326530612245	330.9416326530612	38	127
330.7326530612245	330.8255328798186	69	127
330.7326530612245	330.9416326530612	57	127
330.7326530612245	330.9416326530612	53	127
330.8487528344671	330.96485260770976	76	127
330.976462585034	331.10414965986394	74	127
330.976462585034	331.24349206349206	50	127
331.1157596371882	331.2667120181406	69	127
331.27832199546486	331.55696145124716	38	127
331.27832199546486	331.41761904761904	67	127
331.27832199546486	331.55696145124716	62	127
331.27832199546486	331.55696145124716	57	127
331.27832199546486	331.55696145124716	53	127
331.42925170068025	331.59179138321997	65	127
331.60340136054424	331.83560090702946	62	127
331.60340136054424	331.83560090702946	57	127
331.60340136054424	331.83560090702946	53	127
331.87043083900227	332.14907029478456	55	127
331.87043083900227	332.14907029478456	38	127
331.87043083900227	332.00975056689344	64	127
331.87043083900227	332.14907029478456	61	127
331.87043083900227	332.14907029478456	58	127
332.0213605442177	332.1722902494331	65	127
332.1839002267574	332.4392970521542	50	127
332.1839002267574	332.4392970521542	67	127
332.47414965986394	332.5902494331066	67	127
332.47414965986394	332.741156462585	61	127
332.47414965986394	332.741156462585	55	127
332.47414965986394	332.741156462585	38	127
332.47414965986394	332.741156462585	58	127
332.6134693877551	332.75278911564624	70	127
332.7760090702948	333.0198185941043	57	127
332.7760090702948	333.0198185941043	53	127
332.7760090702948	337.36195011337867	74	127
332.7760090702948	333.0198185941043	50	127
332.7760090702948	333.0198185941043	62	127
333.05462585034013	333.14752834467123	50	127
333.05462585034013	333.14752834467123	62	127
333.1707482993197	333.28684807256235	49	127
333.1707482993197	333.28684807256235	61	127
333.3100680272109	333.5887074829932	62	127
333.3100680272109	333.5887074829932	50	127
333.3100680272109	333.5887074829932	50	127
333.623537414966	333.73963718820863	50	127
333.623537414966	333.73963718820863	62	127
333.7628344671202	333.844126984127	49	127
333.7628344671202	333.844126984127	61	127
333.86732426303854	334.11115646258503	62	127
333.86732426303854	334.11115646258503	50	127
334.1575963718821	334.27367346938775	50	127
334.1575963718821	334.27367346938775	62	127
334.2969160997732	334.41301587301587	61	127
334.2969160997732	334.41301587301587	49	127
334.4362358276644	334.72648526077097	50	127
334.4362358276644	334.72648526077097	62	127
334.8077551020408	335.05156462585035	50	127
334.8077551020408	335.05156462585035	62	127
335.6204535147392	336.2473922902494	56	127
335.6204535147392	336.2473922902494	46	127
335.6204535147392	336.2473922902494	62	127
335.6204535147392	336.2473922902494	53	127
335.6204535147392	336.2473922902494	56	127
336.71179138322	337.36195011337867	46	127
337.5128798185941	338.0469387755102	51	127
337.5128798185941	338.0469387755102	51	127
337.5128798185941	338.0469387755102	75	127
337.5128798185941	339.9974149659864	63	127
338.12820861678006	338.302358276644	51	127
338.12820861678006	338.302358276644	75	127
338.3255782312925	338.4300680272109	50	127
338.3255782312925	338.4300680272109	74	127
338.45328798185943	338.6970975056689	75	127
338.45328798185943	338.6970975056689	51	127
338.75514739229027	338.8828344671202	51	127
338.75514739229027	338.8828344671202	75	127
338.90607709750566	339.0221768707483	74	127
338.90607709750566	339.0221768707483	50	127
339.04539682539684	339.2775963718821	51	127
339.04539682539684	339.2775963718821	75	127
339.3008163265306	339.41691609977323	75	127
339.3008163265306	339.41691609977323	51	127
339.4285260770975	339.5678458049887	50	127
339.4285260770975	339.5678458049887	74	127
339.57945578231295	339.80002267573695	51	127
339.57945578231295	339.80002267573695	75	127
339.82326530612244	340.0206349206349	75	127
339.82326530612244	340.0206349206349	51	127
340.0554648526077	342.08721088435374	63	127
340.57791383219956	340.8333333333333	54	127
340.57791383219956	340.8333333333333	75	127
340.57791383219956	340.8333333333333	57	127
340.57791383219956	340.8333333333333	47	127
341.6460090702948	342.08721088435374	47	127
342.15684807256235	342.3890702947846	52	127
342.43551020408165	342.6676870748299	59	127
342.7838095238095	343.85192743764173	71	127
342.7838095238095	343.02761904761905	71	127
342.7838095238095	343.28301587301587	64	127
342.7838095238095	343.28301587301587	64	127
343.06244897959186	343.3178684807256	79	127
343.3643083900227	343.6081179138322	76	127
343.3643083900227	343.85192743764173	67	127
343.642947845805	343.88673469387754	83	127
343.9215873015873	344.1770068027211	52	127
343.9215873015873	344.7807256235828	76	127
343.9215873015873	344.7807256235828	81	127
343.9215873015873	344.7807256235828	72	127
344.21183673469386	344.47886621315195	64	127
344.5136961451247	344.7807256235828	52	127
344.8155328798186	345.1173922902494	79	127
345.1522448979592	345.4308843537415	78	127
345.1522448979592	346.8124716553288	72	127
345.1522448979592	346.8124716553288	69	127
345.4657142857143	345.73272108843537	76	127
345.7791836734694	345.9997732426304	78	127
346.0345804988662	346.1507029478458	78	127
346.1739229024943	346.29002267573696	79	127
346.3132426303855	346.8124716553288	78	127
346.3132426303855	346.557052154195	40	127
346.60349206349207	346.8588888888889	52	127
346.89374149659864	347.1607482993197	40	127
346.89374149659864	347.1607482993197	71	127
346.89374149659864	347.1607482993197	67	127
347.61356009070295	348.101179138322	71	127
347.61356009070295	348.101179138322	52	127
347.61356009070295	347.86897959183676	71	127
347.61356009070295	347.86897959183676	59	127
347.9038095238095	348.1360090702948	67	127
347.9038095238095	348.1360090702948	79	127
348.15922902494333	348.6700680272109	64	127
348.15922902494333	348.6700680272109	55	127
348.15922902494333	348.4146485260771	76	127
348.15922902494333	348.4146485260771	64	127
348.4494784580499	348.70489795918365	83	127
348.4494784580499	348.70489795918365	71	127
348.75133786848073	349.23895691609977	60	127
348.75133786848073	349.23895691609977	81	127
348.75133786848073	349.23895691609977	76	127
348.75133786848073	349.23895691609977	69	127
349.3085941043084	349.56403628117914	69	127
349.3085941043084	349.56403628117914	81	127
349.3085941043084	349.56403628117914	59	127
349.3085941043084	349.56403628117914	76	127
349.6104535147392	349.84267573696144	67	127
349.6104535147392	349.84267573696144	52	127
349.6104535147392	349.84267573696144	79	127
349.87750566893425	351.5841723356009	72	127
349.87750566893425	350.19097505668935	57	127
349.87750566893425	350.19097505668935	78	127
349.87750566893425	350.19097505668935	66	127
350.2374149659864	350.46961451247165	52	127
350.2374149659864	350.46961451247165	76	127
350.2374149659864	350.46961451247165	64	127
350.51605442176873	350.74825396825395	78	127
350.51605442176873	350.74825396825395	57	127
350.51605442176873	350.74825396825395	66	127
350.78308390022676	351.0385034013606	52	127
350.78308390022676	350.91079365079366	66	127
350.78308390022676	350.91079365079366	78	127
350.92240362811793	351.06172335600905	79	127
350.92240362811793	351.06172335600905	67	127
351.0733333333333	351.5841723356009	66	127
351.0733333333333	351.3055328798186	48	127
351.0733333333333	351.5841723356009	78	127
351.3403628117914	351.6190022675737	45	127
351.6654195011338	351.9092517006803	40	127
351.6654195011338	351.9092517006803	67	127
351.6654195011338	351.9092517006803	71	127
351.9440816326531	352.2575510204082	47	127
351.9440816326531	352.2575510204082	64	127
351.9440816326531	352.2575510204082	55	127
352.3039909297052	352.76839002267576	64	127
352.3039909297052	352.76839002267576	55	127
352.3039909297052	352.5245804988662	43	127
352.559410430839	352.8032199546485	52	127
352.8380498866213	353.08185941043087	60	127
352.8380498866213	353.91777777777776	48	127
352.8380498866213	353.08185941043087	76	127
352.8380498866213	353.91777777777776	67	127
353.1166893424036	353.91777777777776	64	127
353.1166893424036	353.3488888888889	84	127
353.3837188208617	353.65074829931973	79	127
353.68557823129254	353.9409977324263	88	127
353.9874376417234	354.21961451247165	67	127
353.9874376417234	355.0787755102041	83	127
353.9874376417234	354.21961451247165	40	127
353.9874376417234	354.21961451247165	71	127
354.2660770975057	354.49827664399095	47	127
354.2660770975057	355.0787755102041	55	127
354.2660770975057	355.0787755102041	64	127
354.55632653061224	354.81174603174605	43	127
354.8465759637188	355.1136054421769	52	127
355.14843537414964	355.40385487528346	76	127
355.14843537414964	356.21655328798187	48	127
355.14843537414964	355.40385487528346	60	127
355.14843537414964	356.21655328798187	67	127
355.43866213151927	355.68249433106575	84	127
355.43866213151927	356.21655328798187	64	127
355.71732426303856	355.96113378684805	79	127
355.99596371882086	356.2513832199547	88	127
356.2862131519274	356.530022675737	67	127
356.2862131519274	356.530022675737	83	127
356.2862131519274	356.530022675737	71	127
356.2862131519274	356.530022675737	40	127
356.5648299319728	356.68095238095236	83	127
356.5648299319728	357.4239909297052	55	127
356.5648299319728	356.8318820861678	47	127
356.5648299319728	357.4239909297052	64	127
356.7041723356009	356.8434920634921	84	127
356.8667120181406	357.1221315192744	43	127
356.8667120181406	357.4239909297052	83	127
357.1569614512472	357.458820861678	52	127
357.49362811791383	357.7490702947846	76	127
357.49362811791383	358.6081859410431	48	127
357.49362811791383	357.7490702947846	60	127
357.49362811791383	358.6081859410431	67	127
357.79548752834467	358.6081859410431	64	127
357.79548752834467	358.0625396825397	84	127
358.1089795918367	358.341179138322	79	127
358.38761904761907	358.63142857142856	88	127
358.66625850340137	358.94489795918366	43	127
358.66625850340137	358.94489795918366	71	127
358.66625850340137	358.94489795918366	67	127
358.66625850340137	359.7459863945578	86	127
358.9797278911565	359.223514739229	50	127
358.9797278911565	359.7459863945578	59	127
358.9797278911565	359.7459863945578	62	127
359.25836734693877	359.49056689342405	47	127
359.52539682539685	359.7808163265306	55	127
359.8156462585034	360.0710657596372	57	127
359.8156462585034	360.0710657596372	78	127
359.8156462585034	360.94181405895694	66	127
359.8156462585034	360.94181405895694	50	127
360.10589569161	360.36131519274375	86	127
360.10589569161	360.94181405895694	60	127
360.39614512471655	360.67478458049885	81	127
360.7328344671202	360.9766439909297	90	127
361.0114739229025	361.2785034013605	71	127
361.0114739229025	362.137641723356	59	127
361.0114739229025	361.2785034013605	86	127
361.0114739229025	361.2785034013605	43	127
361.31333333333333	361.5571428571429	50	127
361.31333333333333	361.42943310657597	86	127
361.31333333333333	362.137641723356	62	127
361.4526530612245	361.56875283446715	88	127
361.59197278911563	362.137641723356	86	127
361.59197278911563	361.8357823129252	47	127
361.88219954648525	362.16086167800455	55	127
362.2073015873016	363.28702947845807	50	127
362.2073015873016	362.4511111111111	78	127
362.2073015873016	362.4511111111111	57	127
362.2073015873016	363.28702947845807	66	127
362.4975283446712	362.7297505668934	86	127
362.4975283446712	363.28702947845807	60	127
362.7645804988662	363.0432199546485	81	127
363.07804988662133	363.3218594104308	90	127
363.3566893424036	364.4363945578231	58	127
363.3566893424036	363.6004988662132	43	127
363.3566893424036	363.6004988662132	86	127
363.3566893424036	363.6004988662132	70	127
363.6353287981859	363.76303854875283	86	127
363.6353287981859	363.87913832199547	50	127
363.6353287981859	364.4363945578231	62	127
363.7746485260771	363.902358276644	87	127
363.9139682539683	364.1809977324263	46	127
363.9139682539683	364.4363945578231	86	127
364.2158276643991	364.4712471655329	55	127
364.5060770975057	364.76149659863944	57	127
364.5060770975057	365.6902947845805	66	127
364.5060770975057	364.76149659863944	78	127
364.5060770975057	365.6902947845805	50	127
364.79632653061225	365.05172335600906	86	127
364.79632653061225	365.6902947845805	60	127
365.0865759637188	365.4116553287982	81	127
365.4697052154195	365.7251247165533	90	127
365.7599546485261	367.9774603174603	86	127
365.7599546485261	365.9921541950113	43	127
365.7599546485261	365.9921541950113	58	127
365.7599546485261	365.9921541950113	74	127
366.0385941043084	366.8629024943311	62	127
366.0385941043084	366.32884353741497	50	127
366.0385941043084	366.8629024943311	70	127
366.37528344671205	366.60748299319727	46	127
366.6423129251701	366.8977097505669	55	127
366.93256235827664	367.18798185941046	77	127
366.93256235827664	367.18798185941046	46	127
366.93256235827664	367.18798185941046	65	127
367.2344217687075	367.9774603174603	74	127
367.2344217687075	367.9774603174603	68	127
367.2344217687075	367.46662131519275	53	127
367.4898412698413	367.7336507936508	50	127
367.7684807256236	368.0238775510204	56	127
368.05873015873016	369.15006802721086	87	127
368.05873015873016	368.3489795918367	43	127
368.05873015873016	368.3489795918367	75	127
368.05873015873016	368.3489795918367	58	127
368.38380952380953	369.15006802721086	67	127
368.38380952380953	368.6275963718821	51	127
368.38380952380953	369.15006802721086	70	127
368.66244897959183	368.9062585034014	46	127
368.9410657596372	369.1848979591837	55	127
369.2197278911565	369.47514739229024	64	127
369.2197278911565	369.47514739229024	79	127
369.2197278911565	370.3110657596372	88	127
369.2197278911565	369.47514739229024	48	127
369.50997732426305	369.7421768707483	55	127
369.50997732426305	370.3110657596372	70	127
369.50997732426305	370.3110657596372	76	127
369.8118367346939	370.05564625850343	52	127
370.10208616780045	370.3342857142857	58	127
370.38072562358275	370.6825850340136	60	127
370.38072562358275	370.6825850340136	77	127
370.38072562358275	370.6825850340136	36	127
370.38072562358275	372.6098412698413	89	127
370.7174149659864	371.49526077097505	68	127
370.7174149659864	370.96122448979594	44	127
370.7174149659864	371.49526077097505	72	127
371.00766439909296	371.2514739229025	41	127
371.2862811791383	371.5301133786848	48	127
371.5649433106576	371.8087528344671	59	127
371.5649433106576	371.8087528344671	37	127
371.5649433106576	371.8087528344671	80	127
371.8435827664399	372.08739229024945	44	127
371.8435827664399	372.6098412698413	68	127
371.8435827664399	372.6098412698413	77	127
372.1222222222222	372.36603174603175	41	127
372.40086167800456	372.64467120181405	47	127
372.67950113378686	372.9465306122449	58	127
372.67950113378686	374.6996371882086	37	127
372.67950113378686	373.7940589569161	90	127
372.67950113378686	372.9465306122449	78	127
372.9813605442177	373.7940589569161	70	127
372.9813605442177	373.22517006802724	61	127
373.26	373.55024943310656	54	127
373.58507936507937	373.81727891156464	58	127
373.8869387755102	374.1191383219955	56	127
373.8869387755102	374.9550566893424	75	127
373.8869387755102	374.1191383219955	72	127
373.8869387755102	374.9550566893424	84	127
374.18879818594104	374.3048979591837	56	127
374.18879818594104	374.9550566893424	78	127
374.3281179138322	374.44421768707485	58	127
374.4558049886621	374.9550566893424	56	127
374.7344671201814	374.9898866213152	37	127
375.024716553288	377.01	37	127
375.024716553288	375.2801133786848	77	127
375.024716553288	375.2801133786848	50	127
375.024716553288	376.0696145124717	85	127
375.024716553288	376.0696145124717	77	127
375.31496598639455	376.0696145124717	73	127
375.31496598639455	375.5587755102041	56	127
375.59360544217685	375.8374149659864	53	127
375.8722448979592	376.1044444444444	61	127
376.13927437641723	376.4062811791383	59	127
376.13927437641723	377.26544217687075	71	127
376.13927437641723	376.4062811791383	71	127
376.13927437641723	377.26544217687075	77	127
376.44113378684807	376.54562358276644	59	127
376.44113378684807	377.26544217687075	74	127
376.568843537415	376.6965532879819	61	127
376.71977324263037	377.26544217687075	59	127
377.04485260770974	377.30027210884356	37	127
377.3351020408163	378.4264399092971	78	127
377.3351020408163	378.4264399092971	70	127
377.3351020408163	377.62532879818593	70	127
377.3351020408163	377.62532879818593	49	127
377.3351020408163	379.34362811791385	37	127
377.67179138321995	378.4264399092971	73	127
377.67179138321995	377.90399092970523	58	127
377.95043083900225	378.1826303854875	54	127
378.2290702947846	378.4612698412698	61	127
378.49609977324263	378.7863492063492	72	127
378.49609977324263	379.5990476190476	72	127
378.49609977324263	379.5990476190476	63	127
378.49609977324263	378.7863492063492	54	127
378.821179138322	379.5990476190476	68	127
378.821179138322	378.9488888888889	54	127
378.9604761904762	379.08820861678004	56	127
379.0998185941043	379.5990476190476	54	127
379.3784580498866	379.6338775510204	37	127
379.6686848072562	380.46979591836737	53	127
379.6686848072562	379.924126984127	37	127
379.6686848072562	379.924126984127	73	127
379.6686848072562	379.924126984127	65	127
379.9589569160998	380.0866439909297	73	127
379.9589569160998	380.21437641723355	44	127
379.9589569160998	380.7716553287982	68	127
380.1098866213152	380.2259863945578	76	127
380.24920634920636	381.0967346938776	73	127
380.24920634920636	380.5162358276644	41	127
380.5510657596372	380.80648526077096	49	127
380.5510657596372	380.6787755102041	53	127
380.7019954648526	380.8180952380952	56	127
380.84131519274376	381.63079365079363	53	127
380.84131519274376	381.0967346938776	65	127
380.84131519274376	381.0967346938776	37	127
381.13156462585033	381.24766439909297	73	127
381.13156462585033	381.909433106576	68	127
381.13156462585033	381.38698412698415	44	127
381.2708843537415	381.3985941043084	76	127
381.4218140589569	381.97909297052155	73	127
381.4218140589569	381.6540136054422	41	127
381.70045351473925	381.81655328798183	53	127
381.70045351473925	381.93265306122447	49	127
381.8397732426304	381.955873015873	56	127
381.97909297052155	382.2345124716553	53	127
381.97909297052155	382.2345124716553	74	127
381.97909297052155	382.2345124716553	65	127
381.97909297052155	382.2345124716553	37	127
382.2693424036281	382.4086621315193	73	127
382.2693424036281	382.4086621315193	53	127
382.2693424036281	383.01238095238097	68	127
382.2693424036281	382.51315192743766	44	127
382.42027210884356	382.53637188208614	75	127
382.42027210884356	382.53637188208614	56	127
382.5479818594104	382.7685714285714	40	127
382.5479818594104	382.7685714285714	53	127
382.5479818594104	382.7685714285714	73	127
382.8034013605442	382.93111111111114	73	127
382.8034013605442	383.0472108843537	49	127
382.8034013605442	382.93111111111114	53	127
382.94272108843535	383.07043083900226	75	127
382.94272108843535	383.07043083900226	56	127
383.0820408163265	383.33746031746034	65	127
383.0820408163265	383.33746031746034	37	127
383.0820408163265	383.33746031746034	73	127
383.0820408163265	383.33746031746034	53	127
383.3722902494331	383.60448979591837	44	127
383.3722902494331	383.5	73	127
383.3722902494331	384.15015873015875	68	127
383.3722902494331	383.5	53	127
383.51160997732427	383.61609977324264	56	127
383.51160997732427	383.61609977324264	75	127
383.6277097505669	383.9063492063492	40	127
383.6277097505669	383.9063492063492	73	127
383.6277097505669	383.9063492063492	53	127
383.941179138322	384.1849886621315	49	127
383.941179138322	384.05727891156465	53	127
383.941179138322	384.05727891156465	73	127
384.08049886621313	384.1965986394558	75	127
384.08049886621313	384.1965986394558	56	127
384.2198185941043	384.8583673469388	65	127
384.2198185941043	385.4040362811791	73	127
384.2198185941043	384.8583673469388	49	127
384.2198185941043	384.8583673469388	56	127
385.47369614512473	385.70589569160995	61	127
385.47369614512473	386.5766439909297	73	127
385.75233560090703	385.86843537414967	61	127
385.8916553287982	386.03097505668933	63	127
386.06580498866214	386.3096145124717	61	127
386.34444444444443	386.47215419501134	61	127
386.4837641723356	386.634693877551	63	127
386.64630385487527	387.1455328798186	61	127
386.64630385487527	387.69120181405896	73	127
387.7608616780045	388.2717006802721	61	127
387.7608616780045	388.01628117913833	37	127
387.7608616780045	388.9682993197279	73	127
388.0511111111111	388.178820861678	37	127
388.20204081632653	388.3413605442177	39	127
388.3878004535147	388.6316099773243	37	127
388.666439909297	388.79414965986393	37	127
388.8173696145125	389.0379591836735	39	127
389.09600907029477	390.65174603174603	73	127
389.09600907029477	390.65174603174603	64	127
389.09600907029477	390.65174603174603	64	127
389.09600907029477	390.65174603174603	57	127
389.09600907029477	390.65174603174603	69	127
389.09600907029477	390.65174603174603	37	127
390.76784580498867	391.8243537414966	73	127
390.76784580498867	391.8243537414966	64	127
390.76784580498867	391.8243537414966	57	127
390.76784580498867	391.8243537414966	69	127
390.76784580498867	391.8243537414966	64	127
391.8940136054422	392.3816326530612	57	127
391.8940136054422	392.3816326530612	69	127
391.8940136054422	392.3816326530612	73	127
391.8940136054422	392.3816326530612	64	127
391.8940136054422	392.3816326530612	64	127
392.4512925170068	392.90408163265306	69	127
392.4512925170068	392.90408163265306	61	127
392.4512925170068	392.90408163265306	64	127
392.4512925170068	392.90408163265306	57	127
392.4512925170068	392.90408163265306	64	127
392.9853514739229	393.4845804988662	64	127
392.9853514739229	393.4845804988662	64	127
392.9853514739229	393.4845804988662	57	127
392.9853514739229	393.4845804988662	61	127
393.5542403628118	394.0186394557823	69	127
393.5542403628118	394.0186394557823	57	127
393.5542403628118	394.0186394557823	64	127
393.5542403628118	394.0186394557823	73	127
393.5542403628118	394.0186394557823	61	127
394.0302494331066	394.3785487528345	69	127
394.0302494331066	394.3785487528345	57	127
394.0302494331066	394.3785487528345	61	127
394.0302494331066	394.3785487528345	64	127
394.4365986394558	394.842947845805	57	127
394.4365986394558	394.842947845805	64	127
394.4365986394558	394.842947845805	76	127
394.4365986394558	394.842947845805	73	127
394.4365986394558	394.842947845805	69	127
394.6455782312925	394.8777777777778	40	127
394.91260770975055	396.52639455782315	74	127
394.91260770975055	396.52639455782315	62	127
394.91260770975055	395.1564172335601	41	127
394.91260770975055	396.52639455782315	71	127
395.1912471655329	395.41183673469385	40	127
395.6904761904762	395.9691156462585	40	127
396.0039455782313	396.27097505668934	44	127
396.30580498866215	396.5612244897959	40	127
396.5960544217687	397.095283446712	73	127
396.5960544217687	396.83986394557826	45	127
396.5960544217687	397.095283446712	61	127
396.5960544217687	397.095283446712	69	127
396.86308390022674	397.1301133786848	40	127
397.1649433106576	397.67578231292515	71	127
397.1649433106576	397.67578231292515	68	127
397.1649433106576	397.67578231292515	59	127
397.1649433106576	397.4087528344671	47	127
397.4668027210884	397.6990022675737	40	127
397.74544217687077	398.17501133786845	66	127
397.74544217687077	397.977641723356	49	127
397.74544217687077	398.17501133786845	69	127
397.74544217687077	398.17501133786845	57	127
398.0124716553288	398.22145124716553	40	127
398.25628117913834	399.080589569161	59	127
398.25628117913834	399.080589569161	68	127
398.25628117913834	398.52331065759637	50	127
398.25628117913834	399.080589569161	71	127
398.5581405895692	398.8367800453515	40	127
398.8716099773243	399.1154195011338	49	127
399.1502494331066	399.4288888888889	40	127
399.1502494331066	399.4288888888889	73	127
399.1502494331066	399.4288888888889	61	127
399.1502494331066	399.4288888888889	69	127
399.4985487528345	401.1819954648526	71	127
399.4985487528345	401.1819954648526	59	127
399.4985487528345	399.7771882086168	50	127
399.4985487528345	401.1819954648526	68	127
399.81201814058954	400.0442176870748	40	127
400.3576870748299	400.6363265306122	49	127
400.69437641723357	400.93818594104306	50	127
400.97301587301587	401.26326530612243	40	127
401.3097052154195	401.8437641723356	73	127
401.3097052154195	401.8437641723356	61	127
401.3097052154195	401.57673469387754	49	127
401.3097052154195	401.8437641723356	69	127
401.6347845804989	401.8669841269841	40	127
401.9018140589569	402.4126530612245	62	127
401.9018140589569	402.4126530612245	71	127
401.9018140589569	402.15723356009073	47	127
401.9018140589569	402.4126530612245	74	127
402.1920634920635	402.4474829931973	40	127
402.5055328798186	403.01637188208616	76	127
402.5055328798186	403.01637188208616	64	127
402.5055328798186	403.01637188208616	73	127
402.5055328798186	402.7609523809524	44	127
402.79578231292516	403.0744217687075	40	127
403.2601814058957	403.92195011337867	73	127
403.2601814058957	403.92195011337867	69	127
403.2601814058957	404.61854875283444	45	127
403.2601814058957	404.61854875283444	52	127
403.2601814058957	403.92195011337867	64	127
403.2601814058957	404.61854875283444	49	127
404.7230385487528	405.9420861678004	49	127
404.7230385487528	405.9420861678004	45	127
404.7230385487528	405.9420861678004	52	127
406.01174603174604	406.47614512471654	48	127
406.01174603174604	406.47614512471654	45	127
406.01174603174604	406.47614512471654	52	127
406.54580498866216	407.05664399092973	45	127
406.54580498866216	407.05664399092973	52	127
406.54580498866216	407.05664399092973	57	127
406.54580498866216	407.05664399092973	48	127
407.114693877551	407.67197278911567	52	127
407.114693877551	407.67197278911567	48	127
407.114693877551	407.67197278911567	45	127
407.78807256235825	408.3569614512472	60	127
407.78807256235825	408.3569614512472	52	127
407.78807256235825	408.3569614512472	45	127
408.5311111111111	409.1232199546485	52	127
408.5311111111111	409.1232199546485	57	127
408.5311111111111	409.1232199546485	45	127
409.18126984126985	409.81981859410433	64	127
409.18126984126985	409.81981859410433	57	127
409.18126984126985	409.81981859410433	60	127
409.55278911564625	409.8894784580499	76	127
409.9243083900227	410.1565079365079	77	127
409.9243083900227	411.50326530612244	62	127
409.9243083900227	411.50326530612244	57	127
409.9243083900227	411.50326530612244	59	127
410.202947845805	410.4351473922903	76	127
410.7950566893424	410.99242630385487	76	127
411.0156462585034	411.2594557823129	80	127
411.2942857142857	411.53809523809525	76	127
411.572925170068	412.0837641723356	64	127
411.572925170068	412.0837641723356	60	127
411.572925170068	416.87868480725626	57	127
411.572925170068	411.8283446712018	81	127
411.8631746031746	412.1185941043084	76	127
412.1534240362812	412.3972335600907	83	127
412.1534240362812	412.64104308390023	59	127
412.1534240362812	412.64104308390023	62	127
412.4320634920635	412.67587301587304	76	127
412.7107029478458	413.14027210884353	57	127
412.7107029478458	413.14027210884353	60	127
412.95451247165533	413.17510204081634	84	127
413.2099319727891	413.95297052154194	62	127
413.2099319727891	413.95297052154194	59	127
413.2099319727891	413.44213151927437	86	127
413.4769614512472	413.70916099773245	76	127
413.7439909297052	413.9761904761905	84	127
414.0226303854875	414.26643990929705	64	127
414.0226303854875	414.26643990929705	76	127
414.0226303854875	414.26643990929705	60	127
414.3128798185941	415.81056689342404	59	127
414.3128798185941	414.5334693877551	83	127
414.3128798185941	415.81056689342404	62	127
414.5682993197279	414.80049886621316	76	127
414.83532879818597	415.03269841269844	81	127
415.0675283446712	415.29972789115646	76	127
415.3345578231293	415.5551473922902	83	127
415.58997732426303	415.84539682539685	76	127
415.8570068027211	416.1008163265306	84	127
415.8570068027211	416.3214058956916	60	127
415.8570068027211	416.3214058956916	57	127
416.1356462585034	416.3562358276644	76	127
416.3910657596372	416.87868480725626	62	127
416.3910657596372	416.6348752834467	86	127
416.3910657596372	416.87868480725626	59	127
416.6697052154195	416.913514739229	76	127
416.9483446712018	417.38952380952384	64	127
416.9483446712018	417.16893424036283	88	127
416.9483446712018	417.16893424036283	60	127
416.9483446712018	417.16893424036283	57	127
417.2037641723356	417.40113378684805	84	127
417.2037641723356	417.40113378684805	58	127
417.2037641723356	417.40113378684805	55	127
417.4475736961451	417.66816326530613	57	127
417.4475736961451	417.66816326530613	65	127
417.4475736961451	417.5520634920635	53	127
417.4475736961451	417.66816326530613	89	127
417.57528344671204	417.6913832199547	60	127
417.71460317460316	417.8307029478458	57	127
417.85392290249433	417.97002267573697	65	127
417.9932426303855	418.237052154195	60	127
417.9932426303855	418.237052154195	65	127
417.9932426303855	418.237052154195	53	127
417.9932426303855	418.1093424036281	72	127
417.9932426303855	418.237052154195	69	127
418.12095238095236	418.26027210884354	81	127
418.2718820861678	418.3763718820862	77	127
418.3763718820862	418.4924716553288	84	127
418.5040816326531	418.8639909297052	67	127
418.5040816326531	418.70145124716555	82	127
418.5040816326531	418.70145124716555	73	127
418.70145124716555	418.79433106575965	82	127
418.70145124716555	418.898820861678	74	127
418.8059410430839	418.92204081632656	84	127
418.93365079365077	419.0497505668934	43	127
418.93365079365077	419.38643990929705	58	127
418.93365079365077	419.69990929705216	82	127
418.93365079365077	419.16585034013605	75	127
419.0613605442177	419.16585034013605	52	127
419.1774603174603	419.42126984126986	76	127
419.1774603174603	419.3051700680272	48	127
419.3167800453515	419.43287981859413	55	127
419.4560997732426	419.69990929705216	57	127
419.4560997732426	419.69990929705216	77	127
419.73473922902497	419.9669387755102	65	127
419.73473922902497	419.9669387755102	81	127
419.73473922902497	419.9669387755102	69	127
420.001768707483	420.11786848072563	41	127
420.001768707483	420.24557823129254	71	127
420.001768707483	420.24557823129254	79	127
420.001768707483	420.48938775510203	57	127
420.1410884353742	420.25718820861675	48	127
420.2804081632653	420.39650793650793	45	127
420.2804081632653	420.52421768707484	72	127
420.2804081632653	420.52421768707484	77	127
420.41972789115647	420.5358276643991	53	127
420.55904761904765	420.97700680272106	64	127
420.55904761904765	420.79124716553287	79	127
420.55904761904765	420.79124716553287	73	127
420.8260770975057	421.2672562358277	74	127
420.8260770975057	421.0002267573696	77	127
421.0466666666667	421.5342857142857	55	127
421.0466666666667	421.17437641723353	40	127
421.0466666666667	421.29047619047617	76	127
421.19759637188207	421.3136961451247	50	127
421.33691609977325	421.5691156462585	81	127
421.33691609977325	421.5691156462585	73	127
421.33691609977325	421.4530158730159	45	127
421.4762358276644	421.592335600907	52	127
421.6039455782313	421.8593650793651	38	127
421.6039455782313	421.7316553287982	50	127
421.6039455782313	421.8593650793651	77	127
421.6039455782313	421.8593650793651	74	127
421.74326530612245	421.88258503401363	57	127
421.89419501133784	422.02190476190475	53	127
422.033514739229	422.1612244897959	62	127
422.1728344671202	422.42825396825396	65	127
422.1728344671202	422.3237641723356	69	127
422.1728344671202	422.42825396825396	69	127
422.1728344671202	422.42825396825396	57	127
422.1728344671202	422.42825396825396	50	127
422.33537414965986	422.4514739229025	77	127
422.46308390022676	422.59079365079367	74	127
422.60240362811794	422.64884353741496	81	127
422.66045351473923	422.9042630385488	79	127
422.66045351473923	422.9042630385488	69	127
422.66045351473923	423.1132426303855	64	127
422.93909297052153	423.0319727891156	77	127
422.93909297052153	423.14807256235827	70	127
423.0435827664399	423.15968253968254	81	127
423.1829024943311	423.93755102040814	79	127
423.1829024943311	423.2990022675737	40	127
423.1829024943311	423.64730158730157	55	127
423.1829024943311	423.42671201814056	71	127
423.3222222222222	423.43832199546483	49	127
423.46154195011337	423.6821315192744	73	127
423.46154195011337	423.577641723356	45	127
423.5892517006803	423.69374149659865	52	127
423.7169614512472	423.93755102040814	53	127
423.7169614512472	423.93755102040814	74	127
423.97238095238095	424.1813605442177	65	127
423.97238095238095	424.1813605442177	62	127
423.97238095238095	424.1813605442177	77	127
424.2161904761905	424.4483900226757	76	127
424.2161904761905	424.33229024943313	38	127
424.2161904761905	424.4483900226757	67	127
424.2161904761905	424.69219954648526	53	127
424.3555102040816	424.47160997732425	45	127
424.4948299319728	424.7154195011338	68	127
424.4948299319728	424.59931972789116	41	127
424.4948299319728	424.7154195011338	74	127
424.6225396825397	424.73863945578233	50	127
424.7618594104308	424.9940589569161	60	127
424.7618594104308	424.9940589569161	75	127
424.7618594104308	424.9940589569161	69	127
425.04049886621317	425.50489795918367	70	127
425.04049886621317	425.2494784580499	58	127
425.04049886621317	425.2494784580499	74	127
425.28430839002266	425.42362811791384	36	127
425.28430839002266	425.5397278911565	72	127
425.28430839002266	425.5397278911565	51	127
425.4352380952381	425.562947845805	45	127
425.5745578231292	425.8415873015873	77	127
425.5745578231292	425.8415873015873	53	127
425.5745578231292	425.70226757369613	41	127
425.5745578231292	425.8415873015873	69	127
425.7138775510204	425.86480725623585	48	127
425.8996371882086	426.1550566893424	72	127
425.8996371882086	426.1550566893424	54	127
425.8996371882086	426.1550566893424	75	127
426.18988662131517	426.4336961451247	74	127
426.18988662131517	426.4336961451247	53	127
426.18988662131517	426.66589569161	65	127
426.4685260770975	426.70072562358274	72	127
426.4685260770975	426.70072562358274	57	127
426.4685260770975	426.70072562358274	36	127
426.73555555555555	426.9445351473923	77	127
426.73555555555555	426.9445351473923	53	127
426.73555555555555	426.9445351473923	45	127
426.73555555555555	426.9445351473923	65	127
426.9793650793651	427.23478458049885	60	127
426.9793650793651	427.23478458049885	41	127
426.9793650793651	427.23478458049885	69	127
426.9793650793651	427.23478458049885	75	127
427.26961451247166	427.8036734693878	65	127
427.26961451247166	427.5714739229025	48	127
427.26961451247166	427.5714739229025	74	127
427.26961451247166	427.5714739229025	53	127
427.6063038548753	427.8385034013605	72	127
427.87333333333333	428.09392290249434	65	127
427.87333333333333	428.09392290249434	77	127
427.87333333333333	428.09392290249434	53	127
428.1171428571429	428.31451247165535	72	127
428.1171428571429	428.31451247165535	54	127
428.1171428571429	428.31451247165535	75	127
428.36095238095237	428.5234920634921	74	127
428.36095238095237	428.7673015873016	65	127
428.36095238095237	428.5234920634921	53	127
428.5699319727891	428.8021315192744	72	127
428.5699319727891	428.8021315192744	57	127
428.5699319727891	428.8021315192744	36	127
428.8369614512472	429.0807709750567	65	127
428.8369614512472	429.0807709750567	77	127
428.8369614512472	429.0807709750567	53	127
428.8369614512472	429.0807709750567	45	127
429.1156009070295	429.359410430839	75	127
429.1156009070295	429.359410430839	60	127
429.1156009070295	429.359410430839	41	127
429.1156009070295	429.359410430839	69	127
429.3942403628118	429.6148299319728	74	127
429.3942403628118	429.8354195011338	65	127
429.3942403628118	429.6148299319728	48	127
429.3942403628118	429.6148299319728	57	127
429.63804988662133	429.87024943310655	63	127
429.63804988662133	429.87024943310655	72	127
429.8934693877551	430.13727891156464	60	127
429.8934693877551	430.13727891156464	65	127
429.8934693877551	430.13727891156464	77	127
430.1721088435374	430.27659863945576	77	127
430.1721088435374	430.40430839002266	75	127
430.1721088435374	430.40430839002266	39	127
430.1721088435374	430.40430839002266	60	127
430.2998185941043	430.41591836734693	78	127
430.4391383219955	430.67133786848075	58	127
430.4391383219955	430.67133786848075	40	127
430.4391383219955	430.5552380952381	78	127
430.4391383219955	430.67133786848075	73	127
430.5668480725624	430.68294784580496	77	127
430.7061678004535	430.82226757369614	77	127
430.7061678004535	430.94997732426305	72	127
430.7061678004535	430.94997732426305	57	127
430.7061678004535	431.1589569160998	41	127
430.8454875283447	430.9615873015873	81	127
430.98480725623585	431.0660770975057	81	127
430.98480725623585	431.19378684807253	77	127
430.98480725623585	431.19378684807253	61	127
431.0892970521542	431.2053968253968	77	127
431.22861678004534	431.44920634920635	60	127
431.22861678004534	431.344716553288	77	127
431.22861678004534	431.44920634920635	75	127
431.3679365079365	431.4608163265306	84	127
431.48403628117916	431.7162358276644	73	127
431.48403628117916	431.7162358276644	58	127
431.48403628117916	431.6001360544218	84	127
431.6233560090703	431.7394557823129	77	127
431.76267573696146	431.9716553287982	72	127
431.76267573696146	431.9716553287982	57	127
432.006485260771	432.21546485260774	61	127
432.006485260771	432.21546485260774	77	127
432.006485260771	432.21546485260774	37	127
432.2502947845805	432.48249433106577	75	127
432.2502947845805	432.48249433106577	39	127
432.2502947845805	432.3780045351474	77	127
432.2502947845805	432.48249433106577	60	127
432.38961451247167	432.5057142857143	78	127
432.5173242630386	432.76113378684806	73	127
432.5173242630386	432.76113378684806	40	127
432.5173242630386	432.76113378684806	58	127
432.5173242630386	432.6450340136054	78	127
432.6566439909297	432.7959637188209	77	127
432.80757369614514	432.935283446712	77	127
432.80757369614514	433.05138321995463	72	127
432.80757369614514	433.05138321995463	57	127
432.80757369614514	433.2951927437642	41	127
432.94689342403626	433.07460317460317	81	127
433.08621315192744	433.330022675737	77	127
433.08621315192744	433.330022675737	61	127
433.08621315192744	433.21392290249435	81	127
433.2255328798186	433.35324263038547	77	127
433.36485260770974	433.58544217687074	75	127
433.36485260770974	433.58544217687074	60	127
433.36485260770974	433.4809523809524	77	127
433.49256235827664	433.6086621315193	84	127
433.62027210884355	433.7363718820862	84	127
433.62027210884355	433.86408163265304	58	127
433.62027210884355	433.86408163265304	73	127
433.75959183673467	433.8756916099773	77	127
433.89891156462585	434.02662131519276	77	127
433.89891156462585	434.15433106575966	57	127
433.89891156462585	434.15433106575966	72	127
434.0498412698413	434.1659410430839	85	127
434.1891609977324	434.4213605442177	77	127
434.1891609977324	434.4213605442177	46	127
434.1891609977324	434.4213605442177	61	127
434.1891609977324	434.2936507936508	85	127
434.3168707482993	434.43297052154196	77	127
434.479410430839	434.7696598639456	45	127
434.479410430839	434.5955102040816	78	127
434.479410430839	434.7696598639456	75	127
434.479410430839	434.7696598639456	60	127
434.61873015873016	434.7812698412698	87	127
434.80448979591836	434.93219954648526	87	127
434.9554195011338	435.03668934240363	84	127
435.0599092970522	435.16439909297054	84	127
435.187619047619	435.30371882086166	81	127
435.3269387755102	435.44303854875284	81	127
435.3269387755102	435.44303854875284	69	127
435.4662585034014	435.52430839002267	66	127
435.4662585034014	435.52430839002267	78	127
435.53591836734694	435.6520181405896	78	127
435.53591836734694	435.7681179138322	57	127
435.53591836734694	435.7681179138322	50	127
435.53591836734694	435.6520181405896	66	127
435.53591836734694	435.7681179138322	60	127
435.6752380952381	435.79133786848075	63	127
435.6752380952381	435.79133786848075	75	127
435.81455782312923	435.9306575963719	63	127
435.81455782312923	435.9306575963719	75	127
435.81455782312923	435.9306575963719	63	127
435.94226757369614	436.1048072562358	72	127
435.94226757369614	436.1048072562358	60	127
435.94226757369614	436.1048072562358	60	127
436.11641723356007	436.244126984127	60	127
436.11641723356007	436.244126984127	48	127
436.11641723356007	436.244126984127	60	127
436.11641723356007	436.244126984127	72	127
436.25573696145125	436.3718367346939	45	127
436.25573696145125	436.3718367346939	57	127
436.25573696145125	436.3718367346939	57	127
436.25573696145125	436.3718367346939	69	127
436.38344671201816	436.511156462585	69	127
436.38344671201816	436.511156462585	57	127
436.38344671201816	436.511156462585	57	127
436.38344671201816	436.511156462585	45	127
436.5227664399093	436.6504761904762	50	127
436.5227664399093	436.6504761904762	62	127
436.5227664399093	436.6504761904762	74	127
436.5227664399093	436.6504761904762	62	127
436.66208616780045	436.9291156462585	55	127
436.66208616780045	436.9291156462585	62	127
436.66208616780045	436.9291156462585	59	127
436.66208616780045	436.9291156462585	67	127
436.66208616780045	436.9291156462585	43	127
436.9639455782313	437.2309750566893	50	127
437.2658049886621	437.50961451247167	67	127
437.2658049886621	437.50961451247167	55	127
437.5444444444444	437.79986394557824	67	127
437.5444444444444	437.79986394557824	71	127
437.83469387755105	438.07850340136054	71	127
437.83469387755105	438.07850340136054	74	127
437.83469387755105	438.07850340136054	55	127
438.11333333333334	438.35714285714283	79	127
438.11333333333334	438.35714285714283	74	127
438.11333333333334	438.35714285714283	59	127
438.39197278911564	439.1814512471655	74	127
438.39197278911564	438.6357823129252	62	127
438.39197278911564	439.1814512471655	78	127
438.67061224489794	438.9028117913832	67	127
438.937641723356	439.1814512471655	66	127
439.2278911564626	439.4484807256236	74	127
439.2278911564626	439.4484807256236	71	127
439.2278911564626	439.4484807256236	59	127
439.4949206349206	439.73873015873016	67	127
439.4949206349206	439.73873015873016	64	127
439.4949206349206	439.73873015873016	71	127
439.773560090703	440.040589569161	76	127
439.773560090703	440.040589569161	72	127
439.773560090703	439.9012698412698	64	127
439.773560090703	440.040589569161	45	127
439.9128798185941	440.06380952380954	66	127
440.0754195011338	440.33083900226757	67	127
440.0754195011338	440.33083900226757	47	127
440.0754195011338	440.33083900226757	71	127
440.0754195011338	440.33083900226757	74	127
440.3656689342404	440.65591836734694	48	127
440.3656689342404	440.65591836734694	69	127
440.3656689342404	440.5398185941043	64	127
440.3656689342404	440.65591836734694	72	127
440.5514285714286	440.6791383219955	66	127
440.69074829931975	440.9461678004535	62	127
440.69074829931975	440.9461678004535	71	127
440.69074829931975	440.9461678004535	67	127
440.69074829931975	440.9461678004535	50	127
440.9809977324263	441.2596371882086	60	127
440.9809977324263	441.2596371882086	38	127
440.9809977324263	441.1319274376417	64	127
440.9809977324263	441.2596371882086	69	127
441.143537414966	441.28285714285715	66	127
441.2944671201814	441.5498866213152	43	127
441.2944671201814	441.5498866213152	67	127
441.2944671201814	441.5498866213152	59	127
441.584716553288	441.8285260770975	50	127
441.87496598639456	442.1652154195011	67	127
441.87496598639456	442.1652154195011	55	127
442.2116553287982	442.4554648526077	67	127
442.2116553287982	442.4554648526077	71	127
442.4902947845805	442.7224943310658	74	127
442.4902947845805	442.7224943310658	71	127
442.4902947845805	442.7224943310658	55	127
442.7573242630385	443.0011337868481	79	127
442.7573242630385	443.0011337868481	74	127
442.7573242630385	443.0011337868481	59	127
443.04757369614515	443.8022222222222	74	127
443.04757369614515	443.8022222222222	78	127
443.04757369614515	443.2681632653061	62	127
443.3146031746032	443.5235827664399	67	127
443.57002267573694	443.8022222222222	66	127
443.837052154195	444.0808616780045	71	127
443.837052154195	444.0808616780045	74	127
443.837052154195	444.0808616780045	59	127
444.1156916099773	444.3943310657596	71	127
444.1156916099773	444.3943310657596	38	127
444.1156916099773	445.52049886621313	67	127
444.1156916099773	444.3943310657596	64	127
444.4291609977324	444.67297052154197	60	127
444.4291609977324	444.67297052154197	43	127
444.4291609977324	444.67297052154197	76	127
444.719410430839	444.9864399092971	50	127
444.719410430839	444.9864399092971	74	127
444.719410430839	444.9864399092971	59	127
445.0212698412698	445.2534693877551	55	127
445.0212698412698	445.2534693877551	55	127
445.0212698412698	445.2534693877551	71	127
445.27668934240364	445.52049886621313	67	127
445.27668934240364	445.52049886621313	59	127
445.27668934240364	445.77591836734695	50	127
445.55532879818594	445.81074829931976	72	127
445.55532879818594	445.81074829931976	64	127
445.55532879818594	445.68303854875285	67	127
445.7062585034014	445.82235827664397	66	127
445.8455782312925	446.08938775510205	62	127
445.8455782312925	446.08938775510205	71	127
445.8455782312925	446.08938775510205	67	127
446.1242176870748	446.36802721088435	59	127
446.1242176870748	446.36802721088435	67	127
446.1242176870748	446.24031746031744	67	127
446.263537414966	446.3796371882086	66	127
446.40285714285716	447.86571428571426	67	127
446.40285714285716	446.68149659863946	38	127
446.40285714285716	446.68149659863946	55	127
446.40285714285716	446.68149659863946	62	127
446.71632653061226	446.93691609977327	60	127
446.71632653061226	446.93691609977327	75	127
446.71632653061226	446.93691609977327	43	127
446.9833560090703	447.22716553287984	74	127
446.9833560090703	447.22716553287984	58	127
446.9833560090703	447.22716553287984	50	127
447.27360544217686	447.55224489795916	70	127
447.27360544217686	447.55224489795916	55	127
447.27360544217686	447.55224489795916	55	127
447.58707482993196	447.86571428571426	58	127
447.58707482993196	447.86571428571426	67	127
447.58707482993196	448.09791383219954	50	127
447.90054421768707	448.0166439909297	67	127
447.90054421768707	448.13274376417235	63	127
447.90054421768707	448.13274376417235	72	127
448.028253968254	448.1559637188209	66	127
448.1675736961451	448.41138321995464	70	127
448.1675736961451	448.41138321995464	62	127
448.1675736961451	448.41138321995464	67	127
448.4346031746032	448.5274829931973	67	127
448.4346031746032	448.6203628117914	58	127
448.4346031746032	448.6203628117914	67	127
448.53909297052155	448.6435827664399	66	127
448.6551927437642	448.8990022675737	62	127
448.6551927437642	450.0135600907029	67	127
448.6551927437642	448.8990022675737	38	127
448.6551927437642	448.8990022675737	55	127
448.9338321995465	449.17764172335603	60	127
448.9338321995465	449.17764172335603	43	127
448.9338321995465	449.17764172335603	75	127
449.2124716553288	449.45628117913833	74	127
449.2124716553288	449.45628117913833	50	127
449.2124716553288	449.45628117913833	58	127
449.49111111111114	449.7465306122449	70	127
449.49111111111114	449.7465306122449	55	127
449.49111111111114	449.7465306122449	55	127
449.7813605442177	450.0135600907029	67	127
449.7813605442177	450.2457596371882	51	127
449.7813605442177	450.0135600907029	58	127
450.03678004535146	450.2921995464853	60	127
450.03678004535146	450.2921995464853	79	127
450.03678004535146	450.2921995464853	69	127
450.3386394557823	450.62888888888887	46	127
450.3386394557823	450.62888888888887	70	127
450.3386394557823	450.62888888888887	62	127
450.3386394557823	450.62888888888887	77	127
450.67532879818594	450.76820861678004	70	127
450.67532879818594	450.8726984126984	74	127
450.67532879818594	450.8726984126984	58	127
450.7914285714286	450.89591836734695	69	127
450.9191383219955	451.1513378684807	53	127
450.9191383219955	451.1513378684807	70	127
450.9191383219955	451.1513378684807	41	127
450.9191383219955	452.30072562358276	70	127
451.1977777777778	451.45319727891155	67	127
451.1977777777778	451.45319727891155	46	127
451.1977777777778	451.45319727891155	76	127
451.48802721088435	451.7434467120181	65	127
451.48802721088435	451.7434467120181	53	127
451.48802721088435	451.7434467120181	74	127
451.7782766439909	452.03369614512474	70	127
451.7782766439909	452.03369614512474	62	127
451.7782766439909	452.03369614512474	58	127
452.0685260770975	452.30072562358276	58	127
452.0685260770975	452.53292517006804	53	127
452.0685260770975	452.30072562358276	65	127
452.3355555555556	452.4516553287982	70	127
452.3355555555556	452.5677551020408	63	127
452.3355555555556	452.5677551020408	79	127
452.4632653061224	452.59097505668933	69	127
452.6025850340136	452.84639455782315	77	127
452.6025850340136	452.84639455782315	70	127
452.6025850340136	452.84639455782315	62	127
452.8812244897959	452.99732426303854	70	127
452.8812244897959	453.07859410430837	74	127
452.8812244897959	453.07859410430837	58	127
453.0089342403628	453.09020408163263	69	127
453.1134240362812	453.415283446712	53	127
453.1134240362812	454.48340136054424	70	127
453.1134240362812	453.415283446712	41	127
453.1134240362812	453.415283446712	70	127
453.4501133786848	453.7055328798186	75	127
453.4501133786848	453.7055328798186	46	127
453.4501133786848	453.7055328798186	67	127
453.7287528344671	453.9493424036281	74	127
453.7287528344671	453.9493424036281	65	127
453.7287528344671	453.9493424036281	53	127
453.98417233560093	454.2279818594104	70	127
453.98417233560093	454.2279818594104	62	127
453.98417233560093	454.2279818594104	58	127
454.2628117913832	454.48340136054424	58	127
454.2628117913832	455.04068027210883	53	127
454.2628117913832	454.48340136054424	65	127
454.52984126984126	454.76204081632653	67	127
454.52984126984126	454.6459410430839	70	127
454.52984126984126	454.76204081632653	82	127
454.66916099773243	454.78526077097507	69	127
454.8084807256236	455.04068027210883	63	127
454.8084807256236	455.04068027210883	79	127
454.8084807256236	455.04068027210883	70	127
455.07551020408164	455.3193197278912	77	127
455.07551020408164	455.3193197278912	62	127
455.07551020408164	455.3193197278912	58	127
455.07551020408164	455.20321995464855	70	127
455.2148299319728	455.34253968253967	69	127
455.35414965986394	455.5863492063492	58	127
455.35414965986394	455.5863492063492	70	127
455.35414965986394	456.16684807256235	53	127
455.621179138322	455.76049886621314	70	127
455.621179138322	455.8765986394558	67	127
455.621179138322	455.8765986394558	82	127
455.7721088435374	455.8998185941043	69	127
455.9114285714286	456.16684807256235	79	127
455.9114285714286	456.16684807256235	70	127
455.9114285714286	456.16684807256235	63	127
456.1784580498866	456.3990476190476	58	127
456.1784580498866	456.3990476190476	77	127
456.1784580498866	456.3061678004535	70	127
456.1784580498866	456.3990476190476	62	127
456.3177777777778	456.42226757369616	69	127
456.43387755102043	456.6544671201814	53	127
456.43387755102043	456.6544671201814	70	127
456.43387755102043	456.6544671201814	58	127
456.6892970521542	456.8170068027211	72	127
456.6892970521542	456.9563265306123	56	127
456.6892970521542	456.8170068027211	60	127
456.6892970521542	456.9563265306123	84	127
456.84022675736963	456.9679365079365	62	127
456.84022675736963	456.9679365079365	74	127
456.97954648526076	457.2233560090703	55	127
456.97954648526076	457.2233560090703	75	127
456.97954648526076	457.2233560090703	63	127
456.97954648526076	457.2233560090703	82	127
457.2581859410431	457.5019954648526	51	127
457.2581859410431	457.3742857142857	63	127
457.2581859410431	457.3742857142857	75	127
457.2581859410431	457.5019954648526	79	127
457.39750566893423	457.51360544217687	74	127
457.39750566893423	457.51360544217687	62	127
457.5368253968254	457.79224489795916	63	127
457.5368253968254	457.79224489795916	75	127
457.5368253968254	458.29147392290247	46	127
457.8154648526077	458.047664399093	84	127
457.8154648526077	457.93156462585034	75	127
457.8154648526077	458.047664399093	68	127
457.9547845804989	458.0708843537415	74	127
458.09410430839	458.314693877551	75	127
458.09410430839	458.314693877551	67	127
458.09410430839	458.314693877551	82	127
458.3611337868481	458.5933333333333	51	127
458.3611337868481	458.4772335600907	75	127
458.3611337868481	458.5933333333333	63	127
458.3611337868481	458.5933333333333	79	127
458.5004535147392	458.61655328798184	74	127
458.6397732426304	458.9068027210884	75	127
458.6397732426304	458.9068027210884	39	127
458.6397732426304	458.9068027210884	58	127
458.9416326530612	459.0693424036281	63	127
458.9416326530612	459.0693424036281	39	127
458.9416326530612	459.18544217687077	79	127
458.9416326530612	459.18544217687077	84	127
459.0809523809524	459.20866213151925	65	127
459.0809523809524	459.20866213151925	41	127
459.2202721088435	459.4873015873016	83	127
459.2202721088435	459.4873015873016	71	127
459.2202721088435	459.4873015873016	67	127
459.2202721088435	459.4873015873016	79	127
459.2202721088435	459.4873015873016	55	127
459.2202721088435	459.4873015873016	62	127
459.2202721088435	459.4873015873016	43	127
459.52213151927435	459.66145124716553	67	127
459.6730612244898	459.8007709750567	79	127
459.812380952381	460.0329705215419	55	127
459.812380952381	460.0329705215419	43	127
459.812380952381	460.0329705215419	67	127
460.06780045351474	460.2071201814059	67	127
460.06780045351474	460.2071201814059	55	127
460.06780045351474	460.32321995464855	55	127
460.2187301587302	460.33482993197276	79	127
460.2187301587302	460.33482993197276	54	127
460.3580498866213	460.60185941043085	43	127
460.3580498866213	460.60185941043085	67	127
460.3580498866213	460.60185941043085	55	127
460.63668934240366	460.75278911564624	67	127
460.7760090702948	460.88049886621314	79	127
460.9037188208617	461.14752834467123	67	127
460.9037188208617	461.14752834467123	43	127
460.9037188208617	461.14752834467123	55	127
461.182358276644	461.402947845805	45	127
461.182358276644	461.2984580498866	55	127
461.182358276644	461.2984580498866	67	127
461.32167800453516	461.402947845805	69	127
461.32167800453516	461.402947845805	57	127
461.4261678004535	461.64675736961453	58	127
461.4261678004535	461.64675736961453	70	127
461.4261678004535	461.64675736961453	46	127
461.6815873015873	461.82090702947846	58	127
461.6815873015873	461.82090702947846	70	127
461.844126984127	461.96022675736964	57	127
461.844126984127	461.96022675736964	82	127
461.9834467120181	462.22725623582767	58	127
461.9834467120181	462.22725623582767	70	127
462.33174603174604	462.42462585034014	70	127
462.4478458049887	462.5639455782313	69	127
462.4478458049887	462.5639455782313	82	127
462.5755555555556	462.8774149659864	46	127
462.5755555555556	462.8774149659864	58	127
462.5755555555556	462.8774149659864	70	127
462.92385487528344	463.05156462585035	70	127
462.92385487528344	463.05156462585035	58	127
463.0631746031746	463.1908843537415	82	127
463.0631746031746	463.1908843537415	57	127
463.20249433106574	463.58562358276646	70	127
463.20249433106574	463.58562358276646	58	127
463.6204535147392	463.8874829931973	82	127
463.6204535147392	463.8874829931973	70	127
463.92231292517005	464.17773242630386	71	127
463.92231292517005	464.17773242630386	41	127
463.92231292517005	464.17773242630386	56	127
463.92231292517005	464.17773242630386	83	127
464.21256235827667	464.46798185941043	70	127
464.21256235827667	464.3402721088435	56	127
464.21256235827667	464.46798185941043	50	127
464.21256235827667	464.46798185941043	82	127
464.36349206349206	464.4795918367347	58	127
464.50281179138324	464.72340136054424	74	127
464.50281179138324	464.72340136054424	56	127
464.50281179138324	464.72340136054424	86	127
464.50281179138324	464.72340136054424	46	127
464.758231292517	465.00204081632654	70	127
464.758231292517	464.87433106575963	56	127
464.758231292517	465.00204081632654	82	127
464.8975510204082	465.0136507936508	58	127
465.0368707482993	465.26907029478457	39	127
465.0368707482993	465.26907029478457	87	127
465.0368707482993	465.26907029478457	75	127
465.0368707482993	465.26907029478457	55	127
465.3039002267574	465.54770975056687	51	127
465.3039002267574	465.42	55	127
465.3039002267574	465.54770975056687	82	127
465.3039002267574	465.54770975056687	70	127
465.4432199546485	465.55931972789114	58	127
465.5825396825397	465.81473922902495	55	127
465.5825396825397	465.81473922902495	46	127
465.861179138322	465.96566893424034	55	127
465.861179138322	466.081768707483	82	127
465.861179138322	466.081768707483	70	127
465.9888888888889	466.1049886621315	58	127
466.12820861678006	466.3836281179138	80	127
466.12820861678006	466.3836281179138	47	127
466.12820861678006	466.3836281179138	53	127
466.12820861678006	466.3836281179138	68	127
466.4300680272109	466.6506575963719	67	127
466.4300680272109	466.54616780045353	53	127
466.4300680272109	466.6506575963719	50	127
466.4300680272109	466.6506575963719	79	127
466.5577777777778	466.6738775510204	56	127
466.68548752834465	466.9292970521542	53	127
466.68548752834465	466.9292970521542	68	127
466.68548752834465	466.9292970521542	47	127
466.68548752834465	466.9292970521542	80	127
466.964126984127	467.2079365079365	70	127
466.964126984127	467.09183673469386	53	127
466.964126984127	467.2079365079365	82	127
467.1034467120181	467.23115646258503	56	127
467.2427664399093	467.4749659863946	80	127
467.2427664399093	467.4749659863946	48	127
467.2427664399093	467.4749659863946	53	127
467.2427664399093	467.4749659863946	68	127
467.50979591836733	467.67233560090705	51	127
467.50979591836733	467.7884353741497	67	127
467.50979591836733	467.7884353741497	43	127
467.50979591836733	467.7884353741497	79	127
467.6839455782313	467.81165532879817	50	127
467.82326530612244	468.0554648526077	51	127
467.82326530612244	468.0554648526077	36	127
468.0902947845805	468.2063945578231	55	127
468.0902947845805	468.33410430839	70	127
468.0902947845805	468.33410430839	82	127
468.22961451247164	468.3457142857143	58	127
468.3689342403628	468.6127437641723	83	127
468.3689342403628	468.6127437641723	41	127
468.3689342403628	468.6127437641723	50	127
468.3689342403628	468.6127437641723	71	127
468.6475736961451	468.90299319727893	70	127
468.6475736961451	468.76367346938775	50	127
468.6475736961451	468.90299319727893	46	127
468.6475736961451	468.90299319727893	82	127
468.7868934240363	468.9146031746032	53	127
468.9378231292517	469.1468027210884	74	127
468.9378231292517	469.1468027210884	44	127
468.9378231292517	469.1468027210884	86	127
468.9378231292517	469.1468027210884	50	127
469.17002267573696	469.40222222222224	82	127
469.17002267573696	469.2861224489796	50	127
469.17002267573696	469.40222222222224	70	127
469.29773242630387	469.4138321995465	53	127
469.437052154195	469.657641723356	43	127
469.437052154195	469.657641723356	75	127
469.437052154195	469.657641723356	87	127
469.437052154195	469.657641723356	51	127
469.7040816326531	469.9711111111111	70	127
469.7040816326531	469.85501133786846	51	127
469.7040816326531	469.9711111111111	82	127
469.7040816326531	469.9711111111111	46	127
469.878231292517	469.99433106575964	55	127
470.0175510204082	470.2381405895692	43	127
470.0175510204082	470.2381405895692	51	127
470.27297052154194	470.5167800453515	82	127
470.27297052154194	470.5167800453515	73	127
470.27297052154194	470.40068027210884	51	127
470.4122902494331	470.54	55	127
470.5516099773243	470.80702947845805	82	127
470.5516099773243	470.80702947845805	44	127
470.5516099773243	470.80702947845805	52	127
470.5516099773243	470.80702947845805	73	127
470.84185941043086	471.0972789115646	72	127
470.84185941043086	471.0972789115646	80	127
470.84185941043086	470.981179138322	53	127
470.84185941043086	471.0972789115646	41	127
470.99278911564625	471.12049886621315	56	127
471.1321088435374	471.35269841269843	58	127
471.1321088435374	471.35269841269843	70	127
471.1321088435374	471.35269841269843	79	127
471.3759183673469	471.6081179138322	77	127
471.3759183673469	471.6081179138322	68	127
471.3759183673469	471.6081179138322	46	127
471.3759183673469	471.5036281179138	60	127
471.5152380952381	471.6313378684807	62	127
471.642947845805	471.8751473922903	62	127
471.642947845805	471.8751473922903	77	127
471.642947845805	471.8751473922903	68	127
471.642947845805	471.8751473922903	51	127
471.909977324263	472.1421768707483	46	127
471.909977324263	472.1421768707483	63	127
471.909977324263	472.1421768707483	67	127
471.909977324263	472.1421768707483	75	127
472.1770068027211	472.47886621315195	39	127
472.52530612244897	472.7807256235828	70	127
472.80394557823126	473.02453514739227	71	127
472.80394557823126	473.02453514739227	56	127
473.0593650793651	473.1754648526077	56	127
473.0593650793651	473.29156462585036	70	127
473.0593650793651	473.51215419501136	62	127
473.19868480725626	473.31478458049884	58	127
473.34961451247165	473.53537414965984	56	127
473.34961451247165	473.53537414965984	74	127
473.5818140589569	473.8140136054422	70	127
473.5818140589569	473.6863038548753	56	127
473.5818140589569	474.0578231292517	65	127
473.70952380952383	473.8372335600907	58	127
473.8604535147392	474.0926530612245	55	127
473.8604535147392	474.0926530612245	75	127
474.1274829931973	474.5918820861678	63	127
474.1274829931973	474.3596825396825	70	127
474.1274829931973	474.25519274376416	55	127
474.2668027210884	474.38290249433106	58	127
474.39451247165533	474.6267120181406	55	127
474.66154195011336	475.17238095238093	70	127
474.66154195011336	474.777641723356	55	127
474.66154195011336	475.17238095238093	67	127
474.78925170068027	474.9169614512472	51	127
474.92857142857144	475.17238095238093	49	127
475.20721088435374	475.4510204081633	67	127
475.20721088435374	475.4510204081633	64	127
475.20721088435374	475.33492063492065	49	127
475.3465306122449	475.4626303854875	48	127
475.48585034013604	475.7296598639456	49	127
475.48585034013604	475.7296598639456	65	127
475.48585034013604	475.7296598639456	68	127
475.7760997732426	476.0315192743764	67	127
475.7760997732426	476.0315192743764	70	127
475.7760997732426	475.89219954648524	49	127
475.9154195011338	476.0431292517007	50	127
476.06634920634923	476.3565986394558	68	127
476.06634920634923	476.3565986394558	51	127
476.06634920634923	476.3565986394558	65	127
476.39142857142855	476.6236281179138	63	127
476.39142857142855	476.5075283446712	51	127
476.39142857142855	476.6236281179138	67	127
476.5307482993197	476.6352380952381	50	127
476.6700680272109	477.42471655328796	75	127
476.6700680272109	476.8906575963719	75	127
476.6700680272109	476.8906575963719	51	127
476.92548752834466	477.02997732426303	46	127
476.92548752834466	477.14607709750567	70	127
477.05319727891157	477.1692970521542	45	127
477.19251700680275	477.42471655328796	44	127
477.19251700680275	477.42471655328796	71	127
477.47115646258504	477.61047619047616	44	127
477.47115646258504	477.7265759637188	74	127
477.47115646258504	477.7265759637188	70	127
477.6336961451247	477.74979591836734	46	127
477.7614058956916	478.4928344671202	77	127
477.7614058956916	478.00521541950116	44	127
477.7614058956916	478.00521541950116	74	127
478.0400453514739	478.2606349206349	70	127
478.0400453514739	478.1445351473923	44	127
478.15614512471655	478.28385487528345	46	127
478.2954648526077	478.4928344671202	75	127
478.2954648526077	478.4928344671202	43	127
478.527664399093	478.65537414965985	43	127
478.527664399093	478.7714739229025	70	127
478.527664399093	478.7714739229025	75	127
478.6669841269841	478.794693877551	46	127
478.82952380952383	479.09655328798186	49	127
478.82952380952383	479.65383219954646	82	127
479.13138321995467	479.65383219954646	79	127
479.13138321995467	479.24748299319725	49	127
479.2707029478458	479.38680272108843	51	127
479.41002267573697	479.65383219954646	49	127
479.68866213151927	479.8047619047619	49	127
479.68866213151927	479.9324716553288	77	127
479.68866213151927	479.9324716553288	80	127
479.82798185941044	479.9440816326531	50	127
479.96730158730156	480.2227210884354	51	127
479.96730158730156	480.2227210884354	75	127
479.96730158730156	480.2227210884354	79	127
480.2575510204082	480.5245804988662	77	127
480.2575510204082	480.5245804988662	68	127
480.2575510204082	480.37365079365077	46	127
480.42009070294785	480.54780045351475	47	127
480.5710204081633	480.8496598639456	68	127
480.5710204081633	480.8496598639456	48	127
480.5710204081633	480.8496598639456	77	127
480.9077097505669	481.1515192743764	46	127
480.9077097505669	481.1515192743764	67	127
480.9077097505669	481.1515192743764	75	127
481.19795918367345	481.441768707483	39	127
481.4998185941043	481.77845804988664	70	127
481.4998185941043	481.77845804988664	82	127
481.8132879818594	481.96421768707484	83	127
481.8132879818594	481.96421768707484	71	127
481.99904761904764	482.2544671201814	70	127
481.99904761904764	482.2544671201814	82	127
482.2892970521542	482.4750566893424	74	127
482.2892970521542	482.4750566893424	86	127
482.5098866213152	482.73047619047617	58	127
482.5098866213152	482.73047619047617	70	127
482.5098866213152	482.73047619047617	46	127
482.5098866213152	482.73047619047617	82	127
482.765306122449	483.0091156462585	59	127
482.765306122449	483.0091156462585	89	127
482.765306122449	483.0091156462585	77	127
482.765306122449	483.0091156462585	47	127
483.0439455782313	483.2877551020408	46	127
483.0439455782313	483.2877551020408	58	127
483.0439455782313	483.2877551020408	70	127
483.0439455782313	483.2877551020408	82	127
483.3225850340136	483.5663945578231	50	127
483.3225850340136	483.5663945578231	62	127
483.6012244897959	483.84503401360547	58	127
483.6012244897959	483.84503401360547	70	127
483.6012244897959	483.84503401360547	82	127
483.6012244897959	483.84503401360547	46	127
483.8798639455782	484.13528344671204	53	127
483.8798639455782	484.13528344671204	83	127
483.8798639455782	484.13528344671204	71	127
483.8798639455782	484.13528344671204	65	127
484.1701133786848	484.4835827664399	82	127
484.1701133786848	484.4835827664399	46	127
484.1701133786848	484.4835827664399	70	127
484.1701133786848	484.4835827664399	58	127
484.5184126984127	484.6693424036281	74	127
484.5184126984127	484.6693424036281	86	127
484.71578231292517	484.9595918367347	58	127
484.71578231292517	484.9595918367347	46	127
484.71578231292517	484.9595918367347	70	127
484.71578231292517	484.9595918367347	82	127
485.00603174603174	485.2150113378685	59	127
485.00603174603174	485.2150113378685	80	127
485.00603174603174	485.2150113378685	47	127
485.00603174603174	485.2150113378685	92	127
485.2498412698413	485.458820861678	46	127
485.2498412698413	485.458820861678	82	127
485.2498412698413	485.458820861678	58	127
485.2498412698413	485.458820861678	70	127
485.4820408163265	485.72585034013605	50	127
485.4820408163265	485.72585034013605	62	127
485.76068027210886	485.9928798185941	46	127
485.76068027210886	485.9928798185941	82	127
485.76068027210886	485.9928798185941	58	127
485.76068027210886	485.9928798185941	70	127
486.0277097505669	486.27151927437643	80	127
486.0277097505669	486.57337868480727	68	127
486.0277097505669	486.27151927437643	56	127
486.0277097505669	486.27151927437643	92	127
486.3063492063492	486.60820861678	70	127
486.3063492063492	486.60820861678	82	127
486.3063492063492	486.60820861678	46	127
486.6430385487528	487.16548752834467	58	127
486.6430385487528	486.86362811791383	56	127
486.89845804988664	487.2003174603175	70	127
486.89845804988664	487.2003174603175	82	127
486.89845804988664	487.2003174603175	46	127
487.23514739229023	487.71115646258505	68	127
487.23514739229023	487.4673469387755	92	127
487.23514739229023	487.4673469387755	80	127
487.5021768707483	487.7459863945578	82	127
487.5021768707483	487.7459863945578	46	127
487.5021768707483	487.7459863945578	70	127
487.7808163265306	488.26843537414965	58	127
487.7808163265306	488.0130158730159	56	127
488.04784580498864	488.2916553287982	46	127
488.04784580498864	488.2916553287982	70	127
488.33809523809526	488.52385487528346	80	127
488.33809523809526	488.8257142857143	68	127
488.5702947845805	488.84893424036284	71	127
488.5702947845805	488.84893424036284	47	127
488.89537414965986	489.3829931972789	59	127
488.89537414965986	489.11596371882086	56	127
489.1507936507937	489.42943310657597	47	127
489.1507936507937	489.42943310657597	71	127
489.4642630385488	489.9518820861678	68	127
489.4642630385488	489.70807256235827	80	127
489.7429024943311	489.98671201814057	71	127
489.7429024943311	489.98671201814057	47	127
490.0215419501134	490.578820861678	59	127
490.0215419501134	490.2769614512472	56	127
490.3234013605442	490.6136507936508	47	127
490.578820861678	490.6136507936508	71	127
490.6484807256236	490.90390022675734	43	127
490.6484807256236	490.7761904761905	55	127
490.6484807256236	492.76149659863944	79	127
490.6484807256236	491.1360997732426	77	127
490.799410430839	490.9155102040816	56	127
490.93873015873015	491.1709297052154	50	127
490.93873015873015	491.0432199546485	56	127
491.06643990929706	491.1825396825397	55	127
491.20575963718824	491.3218594104308	55	127
491.20575963718824	491.4495691609977	74	127
491.20575963718824	491.4495691609977	53	127
491.34507936507936	491.4495691609977	59	127
491.47278911564626	491.5888888888889	74	127
491.47278911564626	491.70498866213154	43	127
491.47278911564626	491.5888888888889	59	127
491.6004988662132	491.7165986394558	55	127
491.6004988662132	491.7165986394558	77	127
491.7398185941043	492.20421768707484	76	127
491.7398185941043	491.9604081632653	43	127
491.7398185941043	491.84430839002266	55	127
491.85591836734693	491.97201814058957	60	127
491.9952380952381	492.11133786848075	60	127
491.9952380952381	492.2274376417234	48	127
492.1345578231292	492.25065759637187	55	127
492.2738775510204	492.5060770975057	72	127
492.2738775510204	492.5060770975057	52	127
492.5525170068027	492.79632653061225	55	127
492.5525170068027	492.79632653061225	43	127
492.5525170068027	492.6918367346939	72	127
492.7150566893424	492.8079365079365	76	127
492.76149659863944	492.8079365079365	77	127
492.8079365079365	493.22589569161	74	127
492.8079365079365	492.92403628117916	55	127
492.8079365079365	493.0285260770975	43	127
492.8079365079365	493.84122448979593	79	127
492.9356462585034	493.051746031746	53	127
493.0633560090703	493.1562358276644	53	127
493.0633560090703	493.26072562358274	47	127
493.16784580498864	493.2839455782313	52	127
493.29555555555555	493.43487528344673	52	127
493.29555555555555	493.5858049886621	55	127
493.29555555555555	493.5858049886621	71	127
493.446485260771	493.60902494331066	53	127
493.6206349206349	493.74834467120183	53	127
493.6206349206349	493.74834467120183	71	127
493.6206349206349	493.8760544217687	43	127
493.7599546485261	493.8992743764172	55	127
493.7599546485261	493.8992743764172	74	127
493.84122448979593	493.8992743764172	72	127
493.9108843537415	494.0385941043084	55	127
493.9108843537415	494.0385941043084	72	127
493.9108843537415	494.99061224489793	79	127
493.9108843537415	494.14308390022677	52	127
494.05020408163267	494.1663038548753	53	127
494.05020408163267	494.1663038548753	74	127
494.1779138321995	494.29401360544216	53	127
494.1779138321995	494.42172335600907	48	127
494.1779138321995	494.29401360544216	74	127
494.3172335600907	494.43333333333334	76	127
494.3172335600907	494.43333333333334	52	127
494.4565532879819	494.74680272108844	43	127
494.4565532879819	494.74680272108844	76	127
494.78163265306125	495.02544217687074	55	127
494.78163265306125	495.02544217687074	79	127
494.78163265306125	495.02544217687074	55	127
494.99061224489793	495.0486621315193	71	127
495.06027210884355	495.2924716553288	43	127
495.06027210884355	496.09356009070297	79	127
495.06027210884355	495.1763718820862	55	127
495.06027210884355	495.52467120181404	77	127
495.19959183673467	495.30408163265304	56	127
495.3273015873016	495.43179138321995	56	127
495.3273015873016	495.55950113378685	50	127
495.4550113378685	495.5711111111111	55	127
495.59433106575966	495.83814058956915	74	127
495.59433106575966	495.83814058956915	53	127
495.59433106575966	495.7220408163265	55	127
495.74526077097505	495.8613605442177	59	127
495.8845804988662	496.00068027210887	74	127
495.8845804988662	496.00068027210887	59	127
495.8845804988662	496.11678004535145	43	127
496.02390022675735	496.14	55	127
496.02390022675735	496.14	77	127
496.09356009070297	496.15160997732426	72	127
496.1632199546485	496.27931972789116	55	127
496.1632199546485	496.37219954648526	43	127
496.1632199546485	496.59278911564627	76	127
496.1632199546485	497.15006802721086	79	127
496.27931972789116	496.38380952380953	60	127
496.40702947845807	496.51151927437644	60	127
496.40702947845807	496.627619047619	48	127
496.52312925170065	496.65083900226756	55	127
496.66244897959183	496.79015873015874	64	127
496.66244897959183	496.9062585034014	52	127
496.66244897959183	496.79015873015874	60	127
496.801768707483	496.9294784580499	67	127
496.801768707483	496.9294784580499	55	127
496.9410884353741	497.05718820861676	72	127
496.9410884353741	497.05718820861676	52	127
496.9410884353741	497.19650793650794	43	127
497.06879818594103	497.2197278911565	76	127
497.06879818594103	497.2197278911565	48	127
497.23133786848075	497.34743764172333	76	127
497.23133786848075	498.2414058956916	43	127
497.23133786848075	497.34743764172333	79	127
497.3590476190476	497.47514739229024	77	127
497.3590476190476	497.47514739229024	74	127
497.4867573696145	497.60285714285715	74	127
497.4867573696145	497.60285714285715	77	127
497.4867573696145	498.2414058956916	50	127
497.4867573696145	497.7189569160998	50	127
497.6144671201814	497.7421768707483	73	127
497.6144671201814	497.7421768707483	76	127
497.75378684807254	498.2646258503401	59	127
497.75378684807254	497.88149659863944	76	127
497.75378684807254	497.88149659863944	73	127
497.8931065759637	498.00920634920635	74	127
497.8931065759637	498.00920634920635	77	127
498.0324263038549	498.14852607709753	77	127
498.0324263038549	498.14852607709753	74	127
498.0324263038549	498.2646258503401	53	127
498.171746031746	498.2762358276644	79	127
498.171746031746	498.2762358276644	76	127
498.2994557823129	499.27469387755104	44	127
498.2994557823129	498.41555555555556	76	127
498.2994557823129	498.41555555555556	79	127
498.4387755102041	498.54326530612246	74	127
498.4387755102041	498.54326530612246	77	127
498.55487528344673	498.64775510204083	77	127
498.55487528344673	499.27469387755104	50	127
498.55487528344673	498.64775510204083	74	127
498.55487528344673	498.7754648526077	50	127
498.6709750566893	498.78707482993195	76	127
498.6709750566893	498.78707482993195	73	127
498.7986848072562	498.9031746031746	73	127
498.7986848072562	498.9031746031746	76	127
498.7986848072562	499.3095238095238	59	127
498.92639455782313	499.0308843537415	77	127
498.92639455782313	499.0308843537415	74	127
499.05410430839004	499.3095238095238	53	127
499.05410430839004	499.1702040816327	77	127
499.05410430839004	499.1702040816327	74	127
499.19342403628116	499.32113378684807	79	127
499.19342403628116	499.32113378684807	76	127
499.3443537414966	500.3892517006803	45	127
499.3443537414966	499.46045351473924	76	127
499.3443537414966	499.46045351473924	79	127
499.4836734693878	499.58816326530615	77	127
499.4836734693878	499.58816326530615	74	127
499.61138321995463	500.3892517006803	53	127
499.61138321995463	499.73909297052154	74	127
499.61138321995463	499.73909297052154	77	127
499.61138321995463	499.8784126984127	53	127
499.7623129251701	499.9016326530612	73	127
499.7623129251701	499.9016326530612	76	127
499.92485260770974	500.42408163265304	62	127
499.92485260770974	500.0293424036281	76	127
499.92485260770974	500.0293424036281	73	127
500.05256235827665	500.18027210884355	74	127
500.05256235827665	500.18027210884355	77	127
500.1918820861678	500.42408163265304	57	127
500.1918820861678	500.3195918367347	77	127
500.1918820861678	500.3195918367347	74	127
500.33120181405894	500.4473015873016	79	127
500.33120181405894	500.4473015873016	76	127
500.45891156462585	501.5154195011338	46	127
500.45891156462585	500.58662131519276	79	127
500.45891156462585	500.58662131519276	76	127
500.598231292517	500.7259410430839	74	127
500.598231292517	500.7259410430839	77	127
500.73755102040815	500.99297052154196	53	127
500.73755102040815	500.86526077097506	77	127
500.73755102040815	501.5154195011338	53	127
500.73755102040815	500.86526077097506	74	127
500.8768707482993	501.0161904761905	76	127
500.8768707482993	501.0161904761905	73	127
501.0278004535147	501.5386394557823	62	127
501.0278004535147	501.1555102040816	73	127
501.0278004535147	501.1555102040816	76	127
501.1671201814059	501.2948299319728	74	127
501.1671201814059	501.2948299319728	77	127
501.30643990929707	501.4341496598639	74	127
501.30643990929707	501.4341496598639	77	127
501.30643990929707	501.5386394557823	56	127
501.4457596371882	501.5618594104308	76	127
501.4457596371882	501.5618594104308	79	127
501.5734693877551	501.68956916099773	77	127
501.5734693877551	501.68956916099773	80	127
501.5734693877551	502.7112471655329	46	127
501.7127891156463	501.8404988662131	75	127
501.7127891156463	501.8404988662131	79	127
501.86371882086166	501.9798185941043	79	127
501.86371882086166	502.7112471655329	53	127
501.86371882086166	502.1191383219955	53	127
501.86371882086166	501.9798185941043	75	127
502.0146485260771	502.13074829931975	77	127
502.0146485260771	502.13074829931975	74	127
502.15396825396823	502.28167800453514	74	127
502.15396825396823	502.28167800453514	77	127
502.15396825396823	502.4326077097506	62	127
502.3048979591837	502.44421768707485	79	127
502.3048979591837	502.44421768707485	75	127
502.46743764172334	502.6067573696145	79	127
502.46743764172334	502.6067573696145	75	127
502.46743764172334	502.7692970521542	56	127
502.62997732426305	502.78090702947844	80	127
502.62997732426305	502.78090702947844	77	127
502.804126984127	502.9202267573696	77	127
502.804126984127	502.9202267573696	80	127
502.804126984127	503.9767346938776	46	127
502.9550566893424	503.0827664399093	75	127
502.9550566893424	503.0827664399093	79	127
503.1059863945578	503.3033560090703	79	127
503.1059863945578	503.4310657596372	53	127
503.1059863945578	503.9767346938776	53	127
503.1059863945578	503.3033560090703	75	127
503.3265759637188	503.45428571428573	77	127
503.3265759637188	503.45428571428573	74	127
503.4775056689342	503.72131519274376	62	127
503.4775056689342	503.59360544217685	77	127
503.4775056689342	503.59360544217685	74	127
503.6168253968254	503.7445351473923	75	127
503.6168253968254	503.7445351473923	79	127
503.76775510204084	503.99995464852606	56	127
503.76775510204084	503.8838548752834	79	127
503.76775510204084	503.8838548752834	75	127
503.90707482993196	504.0231746031746	80	127
503.90707482993196	504.0231746031746	77	127
504.04639455782313	504.2902040816327	41	127
504.04639455782313	504.2902040816327	77	127
504.04639455782313	504.2902040816327	60	127
504.04639455782313	504.2902040816327	80	127
504.32503401360543	504.58045351473925	50	127
504.32503401360543	504.4643537414966	80	127
504.32503401360543	504.58045351473925	58	127
504.32503401360543	504.4643537414966	77	127
504.4759637188209	504.60367346938773	79	127
504.4759637188209	504.60367346938773	76	127
504.615283446712	504.8474829931973	77	127
504.615283446712	504.8474829931973	80	127
504.615283446712	504.8474829931973	62	127
504.615283446712	504.8474829931973	46	127
504.8823129251701	505.1261224489796	58	127
504.8823129251701	505.1261224489796	41	127
504.8823129251701	505.01002267573693	77	127
504.8823129251701	505.01002267573693	80	127
505.0216326530612	505.1493424036281	79	127
505.0216326530612	505.1493424036281	82	127
505.1609523809524	505.39315192743766	75	127
505.1609523809524	505.39315192743766	79	127
505.1609523809524	505.39315192743766	63	127
505.1609523809524	505.39315192743766	39	127
505.4163718820862	505.63696145124715	51	127
505.4163718820862	505.5208616780045	79	127
505.4163718820862	505.63696145124715	58	127
505.4163718820862	505.5208616780045	75	127
505.5324716553288	505.6485714285714	74	127
505.5324716553288	505.6485714285714	77	127
505.67179138321995	505.9156009070295	75	127
505.67179138321995	505.9156009070295	46	127
505.67179138321995	505.9156009070295	79	127
505.95043083900225	506.20585034013607	39	127
505.95043083900225	506.0665306122449	75	127
505.95043083900225	506.20585034013607	58	127
505.95043083900225	506.0665306122449	79	127
506.08975056689343	506.21746031746034	77	127
506.08975056689343	506.21746031746034	80	127
506.2406802721088	506.5077097505669	56	127
506.2406802721088	506.5077097505669	47	127
506.2406802721088	506.5077097505669	74	127
506.2406802721088	506.5077097505669	77	127
506.54253968253965	506.7863492063492	55	127
506.54253968253965	506.6586394557823	77	127
506.54253968253965	506.7863492063492	55	127
506.54253968253965	506.6586394557823	74	127
506.68185941043083	506.79795918367347	73	127
506.68185941043083	506.79795918367347	76	127
506.821179138322	507.0649886621315	50	127
506.821179138322	507.0649886621315	74	127
506.821179138322	507.0649886621315	77	127
506.821179138322	507.0649886621315	56	127
507.1114285714286	507.3320181405896	47	127
507.1114285714286	507.21591836734694	77	127
507.1114285714286	507.21591836734694	74	127
507.1114285714286	507.3320181405896	58	127
507.2391383219955	507.3552380952381	79	127
507.2391383219955	507.3552380952381	75	127
507.3784580498866	507.62226757369615	56	127
507.3784580498866	507.62226757369615	77	127
507.3784580498866	507.62226757369615	48	127
507.3784580498866	507.62226757369615	74	127
507.68031746031744	507.924126984127	55	127
507.68031746031744	507.80802721088435	75	127
507.68031746031744	507.80802721088435	72	127
507.68031746031744	507.924126984127	55	127
507.8312471655329	507.9473469387755	71	127
507.8312471655329	507.9473469387755	74	127
507.9589569160998	508.2027664399093	51	127
507.9589569160998	508.08666666666664	75	127
507.9589569160998	508.08666666666664	72	127
508.0982766439909	508.2259863945578	77	127
508.0982766439909	508.2259863945578	74	127
508.24920634920636	508.49301587301585	58	127
508.24920634920636	508.49301587301585	48	127
508.24920634920636	508.37691609977327	75	127
508.24920634920636	508.37691609977327	79	127
508.3885260770975	508.5162358276644	79	127
508.3885260770975	508.5162358276644	82	127
508.52784580498866	508.7832653061225	80	127
508.52784580498866	508.7832653061225	41	127
508.52784580498866	508.7832653061225	59	127
508.52784580498866	508.7832653061225	77	127
508.8180952380952	508.9574149659864	80	127
508.8180952380952	509.07351473922904	50	127
508.8180952380952	508.9574149659864	77	127
508.8180952380952	509.07351473922904	58	127
508.96902494331067	509.0967346938776	76	127
508.96902494331067	509.0967346938776	79	127
509.1083446712018	509.35215419501134	80	127
509.1083446712018	509.35215419501134	62	127
509.1083446712018	509.35215419501134	46	127
509.1083446712018	509.35215419501134	77	127
509.38698412698415	509.63079365079363	41	127
509.38698412698415	509.5030839002268	77	127
509.38698412698415	509.63079365079363	58	127
509.38698412698415	509.5030839002268	80	127
509.52630385487527	509.6424036281179	82	127
509.52630385487527	509.6424036281179	79	127
509.66562358276644	509.909433106576	39	127
509.66562358276644	509.909433106576	75	127
509.66562358276644	509.909433106576	63	127
509.66562358276644	509.909433106576	79	127
509.93265306122447	510.16485260770975	51	127
509.93265306122447	510.0487528344671	75	127
509.93265306122447	510.0487528344671	79	127
509.93265306122447	510.16485260770975	58	127
510.07197278911565	510.176462585034	74	127
510.07197278911565	510.176462585034	77	127
510.19968253968256	510.4318820861678	75	127
510.19968253968256	510.4318820861678	46	127
510.19968253968256	510.4318820861678	79	127
510.44349206349204	510.5479818594104	79	127
510.44349206349204	510.6873015873016	58	127
510.44349206349204	510.6873015873016	39	127
510.44349206349204	510.5479818594104	75	127
510.57120181405895	510.69891156462586	77	127
510.57120181405895	510.69891156462586	80	127
510.7221315192744	510.9659410430839	77	127
510.7221315192744	510.9659410430839	56	127
510.7221315192744	510.9659410430839	74	127
510.7221315192744	510.9659410430839	47	127
511.01238095238097	511.1284807256236	74	127
511.01238095238097	511.2445804988662	55	127
511.01238095238097	511.1284807256236	77	127
511.01238095238097	511.2445804988662	55	127
511.1517006802721	511.2678004535147	76	127
511.1517006802721	511.2678004535147	73	127
511.29102040816326	511.52321995464854	74	127
511.29102040816326	511.52321995464854	56	127
511.29102040816326	511.52321995464854	77	127
511.29102040816326	511.52321995464854	50	127
511.56965986394556	511.80185941043084	43	127
511.56965986394556	511.6857596371882	74	127
511.56965986394556	511.80185941043084	58	127
511.56965986394556	511.6857596371882	77	127
511.69736961451247	511.8250793650794	79	127
511.69736961451247	511.8250793650794	71	127
511.83668934240364	512.1153287981859	75	127
511.83668934240364	512.1153287981859	56	127
511.83668934240364	512.1153287981859	48	127
511.83668934240364	512.1153287981859	72	127
512.1501587301588	512.382358276644	55	127
512.1501587301588	512.2778684807256	72	127
512.1501587301588	512.2778684807256	75	127
512.1501587301588	512.382358276644	55	127
512.2894784580499	512.4055782312926	74	127
512.2894784580499	512.4055782312926	71	127
512.4171882086168	512.6609977324263	75	127
512.4171882086168	512.6609977324263	51	127
512.4171882086168	512.6609977324263	72	127
512.6958276643991	512.8119274376418	72	127
512.6958276643991	512.8119274376418	75	127
512.6958276643991	512.9280272108844	55	127
512.6958276643991	512.9280272108844	48	127
512.823537414966	512.9512471655329	77	127
512.823537414966	512.9512471655329	74	127
512.9628571428572	513.2066666666667	67	127
512.9628571428572	513.2066666666667	71	127
512.9628571428572	513.2066666666667	79	127
512.9628571428572	513.2066666666667	50	127
513.2414739229025	513.5085260770975	69	127
513.2414739229025	513.5085260770975	66	127
513.2414739229025	513.3808163265306	79	127
513.4040362811792	513.5201360544218	78	127
513.5433560090703	513.7871655328798	71	127
513.5433560090703	513.7871655328798	67	127
513.5433560090703	513.7871655328798	79	127
513.5433560090703	513.7871655328798	62	127
513.8219954648526	513.9380952380952	79	127
513.8219954648526	514.0657823129252	72	127
513.8219954648526	514.0657823129252	50	127
513.8219954648526	514.0657823129252	69	127
513.9613151927438	514.0773922902495	81	127
514.1006349206349	514.3212244897959	71	127
514.1006349206349	514.3212244897959	67	127
514.1006349206349	514.3212244897959	79	127
514.3560544217687	514.5998639455782	69	127
514.3560544217687	514.5998639455782	50	127
514.3560544217687	514.4953741496598	78	127
514.3560544217687	514.5998639455782	66	127
514.5185941043084	514.6230839002268	76	127
514.6230839002268	514.7159637188208	78	127
514.6230839002268	514.8204535147393	60	127
514.7391836734694	514.8320634920635	79	127
514.8552834467121	514.9713832199546	81	127
514.8552834467121	515.0758730158731	71	127
514.8552834467121	515.0758730158731	59	127
514.8552834467121	515.0758730158731	67	127
514.9829931972789	515.0990702947846	83	127
515.12231292517	515.3661224489796	69	127
515.12231292517	515.3661224489796	72	127
515.12231292517	515.3661224489796	84	127
515.12231292517	515.3661224489796	57	127
515.4009523809524	515.6447619047619	71	127
515.4009523809524	515.5286621315192	84	127
515.4009523809524	515.6447619047619	68	127
515.4009523809524	515.6447619047619	45	127
515.5402721088435	515.6679818594105	83	127
515.6795918367347	515.9234013605442	69	127
515.6795918367347	515.9234013605442	84	127
515.6795918367347	515.9234013605442	72	127
515.958231292517	516.1904308390023	50	127
515.958231292517	516.1904308390023	74	127
515.958231292517	516.1904308390023	71	127
515.958231292517	516.0743310657597	84	127
516.085941043084	516.2136507936508	86	127
516.2252607709751	516.4690702947846	52	127
516.2252607709751	516.4690702947846	84	127
516.2252607709751	516.4690702947846	69	127
516.2252607709751	516.4690702947846	72	127
516.5154875283447	516.7709297052154	64	127
516.5154875283447	516.7709297052154	67	127
516.5154875283447	516.6548299319728	83	127
516.5154875283447	516.7709297052154	71	127
516.6664399092971	516.7825396825397	81	127
516.8057596371882	516.9218367346939	79	127
516.8057596371882	517.0495691609977	52	127
516.9450793650793	517.061179138322	81	127
517.0843990929706	517.2004988662131	71	127
517.0843990929706	517.2004988662131	83	127
517.0843990929706	517.2004988662131	67	127
517.2237188208617	517.3397959183674	72	127
517.2237188208617	517.3397959183674	69	127
517.2237188208617	517.3397959183674	84	127
517.3630385487528	517.6300680272109	71	127
517.3630385487528	517.6300680272109	86	127
517.3630385487528	517.6300680272109	55	127
517.3630385487528	517.6300680272109	74	127
517.6648979591837	517.9087074829932	71	127
517.6648979591837	517.9087074829932	67	127
517.6648979591837	517.7809977324263	89	127
517.6648979591837	517.9087074829932	43	127
517.8042176870748	517.9203174603175	88	127
517.943514739229	518.11768707483	72	127
517.943514739229	518.11768707483	69	127
517.943514739229	518.11768707483	89	127
518.1524943310658	518.384716553288	43	127
518.1524943310658	518.384716553288	71	127
518.1524943310658	518.384716553288	74	127
518.1524943310658	518.2686167800454	89	127
518.2918367346939	518.4079365079365	91	127
518.431156462585	518.8955555555556	76	127
518.431156462585	518.651746031746	89	127
518.431156462585	518.651746031746	48	127
518.431156462585	518.8955555555556	72	127
518.6981859410431	518.9187755102041	60	127
518.6981859410431	518.8142857142857	88	127
518.8375056689342	518.9419954648527	89	127
518.9419954648527	519.4296145124716	74	127
518.9419954648527	519.1857823129252	40	127
518.9419954648527	519.0697052154195	88	127
518.9419954648527	519.4296145124716	71	127
519.0813151927438	519.2090249433106	90	127
519.2206349206349	519.487664399093	52	127
519.2206349206349	519.3483446712019	90	127
519.3599546485261	519.5108843537415	92	127
519.5224943310658	519.7895011337869	69	127
519.5224943310658	519.7895011337869	93	127
519.5224943310658	519.7895011337869	72	127
519.5224943310658	519.7895011337869	57	127
519.8243537414966	520.0797732426304	69	127
519.8243537414966	520.0797732426304	66	127
519.8243537414966	519.9520634920635	84	127
519.8243537414966	520.0797732426304	45	127
519.9636734693878	520.1029931972789	83	127
520.1146031746032	520.3468027210885	71	127
520.1146031746032	520.3468027210885	84	127
520.1146031746032	520.3468027210885	67	127
520.3816326530613	520.637052154195	69	127
520.3816326530613	520.5093424036281	84	127
520.3816326530613	520.637052154195	72	127
520.3816326530613	520.637052154195	57	127
520.5325623582767	520.6602721088435	88	127
520.683492063492	521.2175283446712	71	127
520.683492063492	521.2175283446712	74	127
520.683492063492	520.9737414965987	86	127
520.683492063492	520.9737414965987	50	127
521.0085487528345	521.2523809523809	62	127
521.0085487528345	521.1246712018141	86	127
521.1478911564626	521.2639909297052	85	127
521.2872108843537	521.7516099773243	69	127
521.2872108843537	521.3917006802722	86	127
521.2872108843537	521.7516099773243	72	127
521.4149206349207	521.5078004535147	88	127
521.5310204081633	521.7864399092971	50	127
521.5310204081633	521.6587301587301	88	127
521.6819501133787	521.7980498866214	90	127
521.8212698412699	522.0534467120182	91	127
521.8212698412699	522.0534467120182	71	127
521.8212698412699	522.0534467120182	43	127
521.8212698412699	522.0534467120182	67	127
522.0999092970521	522.3437188208617	66	127
522.0999092970521	522.3437188208617	69	127
522.0999092970521	522.2276190476191	86	127
522.2508163265306	522.3669387755102	88	127
522.3901587301588	522.622358276644	67	127
522.3901587301588	522.622358276644	55	127
522.3901587301588	522.622358276644	86	127
522.3901587301588	522.622358276644	71	127
522.6687755102041	522.7848979591837	86	127
522.6687755102041	522.889387755102	72	127
522.6687755102041	522.889387755102	43	127
522.6687755102041	522.889387755102	69	127
522.796507936508	522.9126077097505	84	127
522.9242176870748	523.1680272108844	67	127
522.9242176870748	523.1680272108844	83	127
522.9242176870748	523.1680272108844	71	127
523.2028571428572	523.4698639455783	50	127
523.2028571428572	523.4698639455783	66	127
523.2028571428572	523.3537868480726	83	127
523.2028571428572	523.4698639455783	69	127
523.3653968253968	523.4931065759637	84	127
523.504716553288	523.6324263038549	81	127
523.504716553288	523.7485260770975	62	127
523.6440362811792	523.771746031746	83	127
523.7833560090703	524.0271655328798	69	127
523.7833560090703	523.9110657596372	84	127
523.7833560090703	524.0271655328798	66	127
523.7833560090703	524.0271655328798	50	127
523.9226757369614	524.0503854875284	81	127
524.0619954648527	524.2941723356009	70	127
524.0619954648527	524.2941723356009	67	127
524.0619954648527	524.2941723356009	50	127
524.0619954648527	524.2941723356009	91	127
524.3290249433106	524.5844444444444	69	127
524.3290249433106	524.5844444444444	66	127
524.3290249433106	524.4567346938776	86	127
524.4799546485261	524.5960544217687	87	127
524.6192743764173	524.8514739229025	70	127
524.6192743764173	524.8514739229025	55	127
524.6192743764173	524.8514739229025	86	127
524.6192743764173	524.8514739229025	67	127
524.8863038548753	525.141723356009	72	127
524.8863038548753	525.141723356009	43	127
524.8863038548753	525.0140136054422	86	127
524.8863038548753	525.141723356009	69	127
525.0372335600907	525.1533333333333	84	127
525.1765532879818	525.4203628117914	70	127
525.1765532879818	525.4203628117914	82	127
525.1765532879818	525.4203628117914	67	127
525.4551927437642	525.5712925170068	82	127
525.4551927437642	525.6990022675737	69	127
525.4551927437642	525.6990022675737	38	127
525.4551927437642	525.6990022675737	66	127
525.5945124716553	525.710612244898	84	127
525.7338095238096	525.8499319727891	81	127
525.7338095238096	525.9428117913832	50	127
525.8615419501134	525.9544217687074	82	127
525.977641723356	526.2214512471655	69	127
525.977641723356	526.2214512471655	63	127
525.977641723356	526.2214512471655	60	127
525.977641723356	526.2214512471655	38	127
525.977641723356	526.0937414965987	84	127
526.1285487528345	526.2446712018141	81	127
526.2795011337869	526.5117006802722	60	127
526.2795011337869	526.5117006802722	63	127
526.2795011337869	526.5117006802722	78	127
526.2795011337869	526.5117006802722	69	127
526.546507936508	526.7903401360544	43	127
526.546507936508	526.6742403628118	79	127
526.546507936508	526.7903401360544	67	127
526.546507936508	526.7903401360544	59	127
526.546507936508	526.7903401360544	62	127
526.6858503401361	526.8135600907029	81	127
526.8367800453515	526.9644897959183	79	127
526.8367800453515	527.080589569161	55	127
526.9760997732426	527.1038095238096	74	127
527.1154195011338	527.3824489795918	59	127
527.1154195011338	527.3824489795918	43	127
527.1154195011338	527.3824489795918	67	127
527.1154195011338	527.2779591836735	72	127
527.1154195011338	527.3824489795918	62	127
527.2895691609978	527.4056689342403	71	127
527.4172789115646	527.6494784580499	67	127
527.4172789115646	527.6494784580499	62	127
527.4172789115646	527.6494784580499	59	127
527.6843083900227	527.916507936508	63	127
527.6843083900227	527.916507936508	43	127
527.6843083900227	527.916507936508	60	127
527.6843083900227	527.8004081632653	69	127
527.6843083900227	527.916507936508	66	127
527.8120181405895	527.9281179138322	71	127
527.9397278911565	528.1719047619048	72	127
527.9397278911565	528.1719047619048	55	127
528.2067573696145	528.3344671201814	72	127
528.2067573696145	528.450566893424	66	127
528.2067573696145	528.450566893424	43	127
528.2067573696145	528.450566893424	63	127
528.2067573696145	528.450566893424	60	127
528.35768707483	528.4621768707483	75	127
528.4853968253968	528.7408163265306	69	127
528.4853968253968	528.7408163265306	60	127
528.4853968253968	528.7408163265306	63	127
528.7756462585035	529.0426757369614	62	127
528.7756462585035	529.0426757369614	67	127
528.7756462585035	528.9149659863946	74	127
528.7756462585035	529.0426757369614	43	127
528.7756462585035	529.0426757369614	58	127
528.9381859410431	529.0542857142857	81	127
529.0775056689342	529.2168253968254	79	127
529.0775056689342	529.3445351473923	55	127
529.2400453514739	529.3561451247166	74	127
529.3793650793651	529.5999319727891	62	127
529.3793650793651	529.5999319727891	43	127
529.3793650793651	529.5999319727891	67	127
529.3793650793651	529.5999319727891	58	127
529.3793650793651	529.4954648526077	72	127
529.507074829932	529.6231746031746	70	127
529.6463945578231	529.8785941043084	67	127
529.6463945578231	529.8785941043084	58	127
529.6463945578231	529.8785941043084	62	127
529.9250340136055	530.168843537415	43	127
529.9250340136055	530.168843537415	60	127
529.9250340136055	530.168843537415	66	127
529.9250340136055	530.168843537415	63	127
529.9250340136055	530.0527437641723	69	127
530.0759637188208	530.1920634920635	70	127
530.2268707482993	530.4707029478458	55	127
530.2268707482993	530.4707029478458	72	127
530.5055328798186	530.7493424036281	63	127
530.5055328798186	530.7493424036281	66	127
530.5055328798186	530.7493424036281	43	127
530.5055328798186	530.6332199546486	72	127
530.5055328798186	530.7493424036281	60	127
530.6448526077097	530.7725623582767	75	127
530.7145124716553	530.7841723356009	67	127
530.7841723356009	531.051179138322	79	127
530.7841723356009	531.051179138322	58	127
530.7841723356009	531.051179138322	62	127
530.7841723356009	531.8755102040816	62	127
530.7841723356009	531.8755102040816	55	127
531.0860317460317	531.3298412698413	78	127
531.0860317460317	531.225351473923	58	127
531.225351473923	531.3530612244898	57	127
531.3646712018141	531.6084807256236	79	127
531.3646712018141	531.6084807256236	58	127
531.6548979591837	531.9103401360544	81	127
531.6548979591837	531.7826303854876	58	127
531.7942403628118	531.9219501133787	57	127
531.9567800453515	532.2354195011338	58	127
531.9567800453515	533.0597278911565	64	127
531.9567800453515	533.0597278911565	48	127
531.9567800453515	532.2354195011338	79	127
532.2702267573696	532.3863492063492	58	127
532.2702267573696	532.5256689342403	78	127
532.421179138322	532.5488888888889	57	127
532.5721088435374	532.815918367347	79	127
532.5721088435374	532.815918367347	58	127
532.8507482993198	533.0945351473923	84	127
532.8507482993198	532.9668480725624	58	127
532.9900680272109	533.1061678004535	57	127
533.129387755102	534.1626757369614	55	127
533.129387755102	533.3731972789116	58	127
533.129387755102	533.3731972789116	79	127
533.129387755102	534.1626757369614	62	127
533.4080272108844	533.6286167800454	78	127
533.4080272108844	533.5125170068027	58	127
533.5357369614512	533.6518367346939	57	127
533.6750566893425	533.9072335600907	58	127
533.6750566893425	533.9072335600907	79	127
533.9536961451247	534.0697959183674	58	127
533.9536961451247	534.18589569161	80	127
534.0930158730159	534.2091156462585	59	127
534.2207256235828	534.4761451247166	63	127
534.2207256235828	534.4761451247166	60	127
534.2207256235828	534.7199319727891	48	127
534.2207256235828	534.4761451247166	79	127
534.5109523809524	534.7547845804988	78	127
534.5109523809524	534.6386848072563	63	127
534.5109523809524	534.7547845804988	58	127
534.6502947845805	534.7780045351474	62	127
534.7896145124716	535.3004535147393	41	127
534.7896145124716	535.3004535147393	57	127
534.7896145124716	535.0450340136055	63	127
534.7896145124716	535.0450340136055	79	127
535.0798639455783	535.3352607709751	84	127
535.0798639455783	535.2075736961451	63	127
535.2191836734694	535.3585034013605	65	127
535.3701133786848	535.6371428571429	82	127
535.3701133786848	535.8809523809524	67	127
535.3701133786848	537.5759863945578	46	127
535.3701133786848	535.8809523809524	58	127
535.6719727891157	535.7880725623583	82	127
535.8112925170068	535.9273922902495	81	127
535.950589569161	536.217641723356	58	127
535.950589569161	536.217641723356	82	127
535.950589569161	537.0303401360544	55	127
536.2524716553288	536.3685487528345	82	127
536.2524716553288	536.4962811791384	63	127
536.3917913832199	536.5078911564626	81	127
536.5311111111112	536.658820861678	82	127
536.5311111111112	536.7981405895691	67	127
536.6820408163265	536.8097505668934	84	127
536.8329705215419	537.0651700680272	70	127
536.8329705215419	536.9374603174604	86	127
536.9606575963719	537.0767800453515	87	127
537.1	537.8894784580499	53	127
537.1	537.8894784580499	68	127
537.1	537.2160997732426	89	127
537.2393197278911	537.3554195011338	91	127
537.3786167800454	537.4831292517007	89	127
537.5063492063492	537.6224489795918	86	127
537.6456689342403	537.8894784580499	39	127
537.6456689342403	537.8894784580499	82	127
537.935918367347	538.1681179138322	51	127
537.935918367347	538.1681179138322	46	127
537.935918367347	538.1681179138322	67	127
537.935918367347	538.0520181405896	82	127
538.0636281179138	538.1913151927438	81	127
538.202925170068	538.469977324263	65	127
538.202925170068	539.6658049886621	51	127
538.202925170068	538.469977324263	82	127
538.202925170068	538.469977324263	56	127
538.5164172335601	538.644126984127	82	127
538.5164172335601	538.7602267573697	55	127
538.5164172335601	538.7602267573697	63	127
538.6557369614512	538.7834467120182	81	127
538.7950566893425	539.0388662131519	62	127
538.7950566893425	539.0388662131519	56	127
538.7950566893425	539.0388662131519	65	127
538.7950566893425	539.0388662131519	82	127
539.0736961451247	539.2129931972789	65	127
539.0736961451247	539.2129931972789	56	127
539.0736961451247	539.5380952380953	82	127
539.0736961451247	539.2129931972789	62	127
539.2246031746032	539.3871655328799	67	127
539.2246031746032	539.3871655328799	60	127
539.3987755102041	539.9560544217687	65	127
539.3987755102041	539.9560544217687	56	127
539.3987755102041	539.9560544217687	62	127
539.5497052154195	539.6774149659864	84	127
539.7006349206349	539.9908843537415	46	127
539.7006349206349	539.8631746031746	82	127
539.8863945578231	540.0024943310658	77	127
540.0256916099773	540.2695238095238	39	127
540.0256916099773	540.5481632653061	67	127
540.0256916099773	540.5481632653061	58	127
540.0256916099773	540.2695238095238	82	127
540.3043537414966	540.5829931972789	46	127
540.3043537414966	540.4204535147393	82	127
540.4785034013605	540.5946031746032	81	127
540.6178231292517	541.9645804988662	51	127
540.6178231292517	540.8732426303854	58	127
540.6178231292517	541.6626984126984	55	127
540.6178231292517	540.8732426303854	82	127
540.9080725623583	541.024172335601	82	127
540.9080725623583	541.1518820861678	63	127
541.0473696145125	541.1634920634921	81	127
541.1867120181406	541.3144217687075	82	127
541.1867120181406	541.4305215419502	67	127
541.337641723356	541.4537414965987	84	127
541.465328798186	541.5814512471655	86	127
541.465328798186	541.685918367347	70	127
541.6046712018141	541.7091609977324	87	127
541.7323809523809	542.5682993197279	68	127
541.7323809523809	542.5682993197279	53	127
541.7323809523809	541.8484807256236	89	127
541.8716780045352	541.9878004535148	91	127
541.999410430839	542.1271201814059	89	127
541.999410430839	542.2432199546486	46	127
542.1387301587301	542.3012698412698	86	127
542.3244897959183	542.5682993197279	39	127
542.3244897959183	542.5682993197279	82	127
542.6031292517007	542.881768707483	55	127
542.6031292517007	542.881768707483	46	127
542.6031292517007	542.881768707483	67	127
542.6031292517007	542.7540589569161	82	127
542.7656689342404	542.9049659863946	81	127
542.9165986394557	543.148798185941	65	127
542.9165986394557	543.148798185941	56	127
542.9165986394557	544.3329931972789	51	127
542.9165986394557	543.148798185941	82	127
543.1836281179138	543.3113151927438	82	127
543.1836281179138	543.4390476190476	55	127
543.1836281179138	543.4390476190476	63	127
543.3345578231292	543.4622675736962	81	127
543.4738775510205	543.717664399093	82	127
543.4738775510205	543.717664399093	62	127
543.4738775510205	543.717664399093	65	127
543.4738775510205	543.717664399093	56	127
543.7409070294784	543.8570068027211	82	127
543.7409070294784	543.8570068027211	62	127
543.7409070294784	543.8570068027211	65	127
543.7409070294784	543.8570068027211	56	127
543.8802267573697	544.0079365079365	67	127
543.8802267573697	544.0079365079365	60	127
543.8802267573697	544.0079365079365	81	127
544.031156462585	544.5768253968254	56	127
544.031156462585	544.1588662131519	82	127
544.031156462585	544.5768253968254	65	127
544.031156462585	544.5768253968254	62	127
544.1820861678004	544.3446258503401	84	127
544.3678458049886	544.4839455782313	82	127
544.3678458049886	544.6116553287982	46	127
544.5071655328799	544.6232653061224	77	127
544.6697052154195	544.9135147392291	63	127
544.6697052154195	544.9135147392291	39	127
544.6697052154195	544.9135147392291	67	127
544.6697052154195	544.9135147392291	58	127
544.6697052154195	545.3546712018141	82	127
544.9483219954649	545.180544217687	46	127
544.9483219954649	545.0644444444445	67	127
544.9483219954649	545.0644444444445	63	127
544.9483219954649	545.0644444444445	58	127
545.087664399093	545.2037641723356	68	127
545.087664399093	545.2037641723356	65	127
545.2269841269841	545.7146031746032	63	127
545.2269841269841	545.7146031746032	67	127
545.2269841269841	546.6434013605442	51	127
545.2269841269841	545.7146031746032	58	127
545.3779138321995	545.4940136054422	84	127
545.5172335600907	545.6333333333333	82	127
545.6565532879819	545.7610204081633	79	127
545.7842630385487	546.016462585034	62	127
545.7842630385487	546.016462585034	65	127
545.7842630385487	546.5156916099774	82	127
545.7842630385487	546.016462585034	56	127
546.0512925170068	546.2254421768707	56	127
546.0512925170068	546.2254421768707	65	127
546.0512925170068	546.2254421768707	62	127
546.237052154195	546.364739229025	67	127
546.237052154195	546.364739229025	60	127
546.3763492063492	546.898820861678	65	127
546.3763492063492	546.898820861678	56	127
546.3763492063492	546.898820861678	62	127
546.5273015873016	546.6666213151927	84	127
546.678231292517	546.8175510204081	82	127
546.678231292517	546.9568707482994	46	127
546.8291609977324	546.9916780045352	77	127
547.0033106575963	547.6999092970522	82	127
547.0033106575963	547.2587301587301	67	127
547.0033106575963	547.2587301587301	55	127
547.0033106575963	547.2587301587301	39	127
547.0033106575963	547.2587301587301	63	127
547.293560090703	547.4212698412698	58	127
547.293560090703	547.4212698412698	67	127
547.293560090703	547.5489795918368	46	127
547.293560090703	547.4212698412698	63	127
547.4328798185941	547.560589569161	65	127
547.4328798185941	547.560589569161	68	127
547.5838095238096	548.0598185941043	63	127
547.5838095238096	548.0598185941043	58	127
547.5838095238096	549.0234240362812	51	127
547.5838095238096	548.0598185941043	67	127
547.7231292517007	547.8392290249433	84	127
547.8624489795918	547.9669387755102	82	127
547.9901587301588	548.1062585034014	79	127
548.1178684807256	548.3848979591837	62	127
548.1178684807256	548.837664399093	82	127
548.1178684807256	548.3848979591837	65	127
548.1178684807256	548.3848979591837	56	127
548.4197052154195	548.5358276643991	65	127
548.4197052154195	548.5358276643991	62	127
548.4197052154195	548.5358276643991	56	127
548.5590476190476	548.6867573696145	67	127
548.5590476190476	548.6867573696145	60	127
548.709977324263	549.2788662131519	65	127
548.709977324263	549.2788662131519	62	127
548.709977324263	549.2788662131519	56	127
548.884126984127	549.0350340136055	84	127
549.0582766439909	549.1743764172336	82	127
549.0582766439909	549.3020861678004	46	127
549.2092063492064	549.325306122449	77	127
549.3485260770975	549.6039455782313	67	127
549.3485260770975	549.4762358276644	82	127
549.3485260770975	550.4050340136055	51	127
549.3485260770975	549.6039455782313	51	127
549.4994557823129	549.6271655328799	84	127
549.6503628117914	549.766485260771	82	127
549.6503628117914	549.766485260771	67	127
549.6503628117914	549.8825850340136	55	127
549.7897052154195	549.9058049886621	80	127
549.7897052154195	549.9058049886621	68	127
549.9174149659864	550.0451020408163	79	127
549.9174149659864	550.1612244897959	58	127
549.9174149659864	550.4050340136055	67	127
550.0567120181406	550.1844444444445	80	127
550.1960544217687	550.4398639455783	63	127
550.1960544217687	550.3237641723356	79	127
550.3353741496599	550.4630612244898	77	127
550.4746712018141	550.6024036281179	76	127
550.4746712018141	551.6008616780045	64	127
550.4746712018141	552.8431292517007	61	127
550.4746712018141	551.6008616780045	46	127
550.6140136054422	550.7417233560091	77	127
550.7533333333333	550.8810204081633	76	127
550.8926530612245	551.0319727891157	73	127
551.04358276644	551.1712925170068	72	127
551.1829024943311	551.3222222222222	73	127
551.3802721088435	551.5079818594104	72	127
551.5312018140589	551.6473015873016	70	127
551.7285714285714	551.8446712018141	68	127
551.7285714285714	552.018820861678	41	127
551.7285714285714	552.018820861678	65	127
551.8910884353742	552.0304308390023	70	127
552.0536507936508	552.3206802721088	44	127
552.0536507936508	552.2161904761905	65	127
552.0536507936508	552.2161904761905	68	127
552.239410430839	552.3322902494331	67	127
552.3555102040816	552.8431292517007	65	127
552.3555102040816	552.4716099773243	65	127
552.3555102040816	552.5993197278912	49	127
552.4948299319728	552.6109297052154	67	127
552.6457596371882	552.7618594104308	65	127
552.6457596371882	552.8779591836735	53	127
552.7850793650794	552.9360090702947	63	127
552.9824489795918	554.0737868480726	53	127
552.9824489795918	553.1101587301588	62	127
552.9824489795918	554.0737868480726	59	127
552.9824489795918	554.0737868480726	56	127
552.9824489795918	554.0737868480726	38	127
553.1333560090703	553.2610884353742	63	127
553.2843083900227	553.4120181405896	62	127
553.4352380952381	553.562947845805	60	127
553.5861678004535	553.7138775510205	59	127
553.737074829932	553.8531972789116	62	127
553.8764172335601	553.9925170068027	65	127
554.004126984127	554.1666666666666	68	127
554.1782766439909	554.445306122449	60	127
554.1782766439909	556.4538321995465	36	127
554.1782766439909	554.7355555555556	72	127
554.4917460317461	555.0258049886621	55	127
554.4917460317461	555.0258049886621	52	127
554.8052154195011	554.9329251700681	67	127
554.9445351473923	555.0954648526077	72	127
555.107074829932	555.3392743764173	52	127
555.107074829932	555.3392743764173	55	127
555.107074829932	555.2347845804989	76	127
555.2463945578231	555.3624716553288	79	127
555.3740816326531	555.594693877551	77	127
555.6295238095238	556.1403628117914	55	127
555.6295238095238	556.1403628117914	53	127
555.6295238095238	555.7572335600908	77	127
555.7804308390023	555.9081632653061	79	127
555.9313832199547	556.4538321995465	77	127
556.2332426303855	556.4886621315193	53	127
556.2332426303855	556.4886621315193	55	127
556.5234920634921	557.0691609977324	76	127
556.5234920634921	557.0691609977324	60	127
556.5234920634921	558.7990476190477	48	127
556.8369614512471	557.3478004535148	55	127
556.8369614512471	557.3478004535148	52	127
557.138820861678	557.3710204081633	74	127
557.138820861678	557.2549206349206	55	127
557.2781405895691	557.4058276643991	60	127
557.4290476190477	557.533560090703	64	127
557.4290476190477	557.6496598639455	55	127
557.4290476190477	557.6496598639455	52	127
557.4290476190477	557.6496598639455	72	127
557.5567800453515	557.6728798185941	67	127
557.6960997732426	558.195328798186	74	127
557.6960997732426	557.9282993197279	65	127
557.9631292517007	558.508798185941	53	127
557.9631292517007	558.508798185941	55	127
557.9631292517007	558.1024489795918	65	127
558.1140589569161	558.2533786848072	67	127
558.2649886621315	558.5436281179138	71	127
558.2649886621315	558.7990476190477	65	127
558.5784580498866	558.8338775510205	67	127
558.5784580498866	558.8338775510205	55	127
558.5784580498866	558.8338775510205	53	127
558.8687074829932	559.3679365079365	72	127
558.8687074829932	559.3679365079365	36	127
558.8687074829932	559.3679365079365	64	127
559.1473469387755	559.6814058956916	52	127
559.1473469387755	559.6814058956916	55	127
559.4607936507937	559.5885260770975	67	127
559.4607936507937	559.7162358276644	62	127
559.4607936507937	561.1326530612245	48	127
559.6117460317461	559.7278458049886	72	127
559.7510657596372	559.9948752834467	55	127
559.7510657596372	559.9948752834467	60	127
559.7510657596372	559.8671428571429	76	127
559.7510657596372	559.9948752834467	52	127
559.8903854875283	560.006485260771	79	127
560.0297052154195	560.2851020408164	77	127
560.0297052154195	560.2851020408164	62	127
560.319954648526	560.842403628118	53	127
560.319954648526	560.5637641723356	62	127
560.319954648526	560.842403628118	55	127
560.319954648526	560.4360544217687	77	127
560.4592743764173	560.5753741496599	79	127
560.5985941043084	561.1326530612245	77	127
560.5985941043084	560.8772335600908	59	127
560.9120634920635	561.155873015873	53	127
560.9120634920635	561.155873015873	55	127
560.9120634920635	561.155873015873	55	127
561.2023129251701	561.7015192743764	63	127
561.2023129251701	561.4345124716554	75	127
561.2023129251701	561.7015192743764	36	127
561.4809523809524	561.7363718820861	72	127
561.4809523809524	561.99179138322	51	127
561.4809523809524	561.99179138322	55	127
561.7828117913832	561.9104988662132	67	127
561.7828117913832	563.5475056689343	48	127
561.7828117913832	562.038231292517	62	127
561.9221088435374	562.0730612244898	72	127
562.0846712018141	562.3400907029478	55	127
562.0846712018141	562.3400907029478	51	127
562.0846712018141	562.2239909297052	75	127
562.0846712018141	562.3400907029478	60	127
562.2356009070295	562.3633106575963	79	127
562.3749206349206	562.653560090703	77	127
562.3749206349206	562.653560090703	62	127
562.6883900226758	562.9554195011337	62	127
562.6883900226758	563.2224489795918	53	127
562.6883900226758	562.8160997732426	77	127
562.6883900226758	563.2224489795918	55	127
562.8277097505669	562.9902494331066	79	127
563.0018594104308	563.5475056689343	77	127
563.0018594104308	563.2572789115646	59	127
563.2921088435374	563.582358276644	53	127
563.2921088435374	563.582358276644	55	127
563.2921088435374	563.582358276644	55	127
563.6171882086168	563.8726077097506	75	127
563.6171882086168	564.7665532879819	48	127
563.6171882086168	564.1164172335601	67	127
563.9074376417234	564.4066666666666	55	127
563.9074376417234	564.023537414966	75	127
563.9074376417234	564.4066666666666	51	127
564.0467573696145	564.1744444444445	77	127
564.1976870748299	565.1148752834467	75	127
564.1976870748299	564.4414965986394	65	127
564.4763265306123	564.8014058956916	51	127
564.4763265306123	564.8014058956916	55	127
564.4763265306123	564.8014058956916	63	127
564.8478458049887	565.8927437641723	47	127
564.8478458049887	565.3702947845806	67	127
565.1497052154195	565.6257142857143	55	127
565.1497052154195	565.2658049886621	75	127
565.1497052154195	565.6257142857143	51	127
565.2890249433107	565.4167346938775	77	127
565.439954648526	566.2526530612245	75	127
565.439954648526	565.6489342403628	65	127
565.6953741496599	565.9275736961451	63	127
565.6953741496599	565.9275736961451	51	127
565.6953741496599	565.9275736961451	55	127
565.962403628118	566.5196825396825	67	127
565.962403628118	567.1350113378685	46	127
566.2874829931973	566.4384126984127	75	127
566.2874829931973	566.8215192743764	55	127
566.2874829931973	566.8215192743764	51	127
566.4500226757369	566.5893424036282	77	127
566.6009523809524	566.8563718820861	65	127
566.6009523809524	567.4600907029478	75	127
566.891201814059	567.1698412698413	55	127
566.891201814059	567.1698412698413	63	127
566.891201814059	567.1698412698413	51	127
567.2046712018141	567.7271201814059	70	127
567.2046712018141	568.5398185941043	44	127
567.4949206349206	568.1218594104308	51	127
567.4949206349206	567.6226303854876	75	127
567.4949206349206	568.1218594104308	55	127
567.6574603174603	567.773560090703	77	127
567.8431972789116	568.2611564625851	79	127
567.8431972789116	568.2611564625851	68	127
568.2960090702948	568.6210884353742	55	127
568.2960090702948	568.4469160997733	79	127
568.2960090702948	568.6210884353742	51	127
568.2960090702948	568.6210884353742	67	127
568.4701360544218	568.6326984126985	80	127
568.65589569161	569.2828344671202	67	127
568.65589569161	569.2828344671202	82	127
568.65589569161	569.0042176870749	51	127
568.65589569161	569.9446258503401	43	127
569.0390476190477	569.1551473922902	51	127
569.2015873015873	569.3292970521542	53	127
569.3525170068027	569.9446258503401	51	127
569.3525170068027	569.584716553288	65	127
569.3525170068027	569.584716553288	80	127
569.6543764172336	569.9678458049887	63	127
569.6543764172336	569.9678458049887	79	127
570.0142857142857	570.3045124716554	68	127
570.0142857142857	570.3045124716554	48	127
570.0142857142857	570.5483446712018	40	127
570.0142857142857	570.3045124716554	84	127
570.3509750566893	570.5831746031746	82	127
570.3509750566893	570.5831746031746	67	127
570.3509750566893	570.467074829932	48	127
570.4786848072563	570.6063945578231	49	127
570.6180045351474	571.1520634920635	48	127
570.6180045351474	571.4771428571429	48	127
570.6180045351474	570.8966439909298	80	127
570.6180045351474	570.8966439909298	65	127
570.9314739229025	571.1868934240363	79	127
570.9314739229025	571.1868934240363	64	127
571.2217233560091	572.3014512471656	41	127
571.2217233560091	571.7325396825397	80	127
571.2217233560091	571.7325396825397	65	127
571.5119727891157	571.6396825396826	48	127
571.6512925170068	571.7906122448979	50	127
571.8022222222222	572.057641723356	79	127
571.8022222222222	572.057641723356	70	127
571.8022222222222	572.057641723356	52	127
572.0924716553288	572.3362585034014	77	127
572.0924716553288	572.3362585034014	53	127
572.0924716553288	572.3362585034014	68	127
572.3711111111111	572.6613605442177	67	127
572.3711111111111	572.6613605442177	82	127
572.3711111111111	572.6613605442177	50	127
572.3711111111111	573.6714285714286	46	127
572.6961904761905	572.8122902494331	51	127
572.6961904761905	572.94	65	127
572.6961904761905	572.94	80	127
572.8355102040816	572.9515873015873	53	127
572.9748299319727	573.3115192743765	55	127
572.9748299319727	573.3115192743765	79	127
572.9748299319727	573.3115192743765	63	127
573.3463492063493	573.7062585034014	77	127
573.3463492063493	573.7062585034014	62	127
573.3463492063493	573.7062585034014	56	127
573.7410884353742	574.8904761904762	47	127
573.7410884353742	573.9848752834467	63	127
573.7410884353742	574.2983673469388	75	127
573.7410884353742	573.9848752834467	54	127
574.042947845805	574.1938548752835	54	127
574.042947845805	574.3215873015873	71	127
574.2170975056689	574.3448072562359	56	127
574.3796145124717	574.6698866213152	76	127
574.3796145124717	575.2155328798186	54	127
574.3796145124717	574.6698866213152	73	127
574.704716553288	574.9369160997733	78	127
574.704716553288	574.9369160997733	75	127
574.9717460317461	575.2155328798186	78	127
574.9717460317461	575.2155328798186	75	127
574.9717460317461	576.0863038548753	42	127
575.2503854875283	575.3897052154196	54	127
575.2503854875283	575.5058049886621	76	127
575.2503854875283	575.5058049886621	73	127
575.4012925170068	575.5290249433107	56	127
575.540634920635	575.807641723356	71	127
575.540634920635	575.807641723356	54	127
575.540634920635	575.807641723356	75	127
575.8424943310657	576.1211337868481	52	127
575.8424943310657	576.1211337868481	70	127
575.8424943310657	576.1211337868481	73	127
576.1559637188209	577.4330612244898	43	127
576.1559637188209	576.7596825396826	70	127
576.1559637188209	577.0615419501133	75	127
576.4810430839002	576.6551927437641	51	127
576.6784126984127	576.8177324263039	53	127
576.8525396825397	577.839410430839	51	127
576.8525396825397	577.0963718820861	68	127
577.1428117913832	577.4678684807257	67	127
577.1428117913832	577.3053514739229	75	127
577.3401814058957	577.4795011337868	77	127
577.5027210884354	578.5127891156462	75	127
577.5027210884354	577.839410430839	72	127
577.5027210884354	578.0832199546485	44	127
577.8742176870749	577.9903401360544	51	127
577.8742176870749	578.1412698412698	68	127
578.013560090703	578.1993197278912	53	127
578.2225396825397	578.5360090702948	67	127
578.2225396825397	578.5360090702948	55	127
578.2225396825397	581.9725623582766	48	127
578.5824489795918	578.8494784580499	75	127
578.5824489795918	578.988798185941	56	127
578.5824489795918	578.988798185941	65	127
578.8842857142857	579.0236281179139	77	127
579.0584580498867	579.4415873015873	75	127
579.0584580498867	581.9725623582766	65	127
579.0584580498867	581.9725623582766	56	127
579.4880045351474	579.9175736961452	72	127
579.9524263038548	580.3471655328798	70	127
580.3819954648526	580.7186621315193	68	127
580.7651247165533	581.0321541950113	79	127
581.0902040816327	581.415283446712	75	127
581.4501133786848	581.6939229024944	74	127
581.7287528344672	582.0190022675737	72	127
582.1815419501133	583.4121995464852	41	127
582.1815419501133	582.5298412698413	79	127
582.1815419501133	583.4121995464852	57	127
582.1815419501133	585.1769160997733	63	127
582.5646485260771	582.8317006802721	75	127
582.8665306122449	583.1451700680273	74	127
583.1915873015873	583.4354195011338	72	127
583.4818594104308	585.1769160997733	46	127
583.4818594104308	585.1769160997733	58	127
583.4818594104308	583.9578684807257	84	127
583.4818594104308	585.1769160997733	55	127
584.0275283446712	584.3177777777778	82	127
584.3642176870749	584.6892970521542	81	127
584.724126984127	585.2697959183673	80	127
585.3046258503401	588.8688888888889	46	127
585.3046258503401	588.3232199546485	55	127
585.3046258503401	585.652925170068	79	127
585.3046258503401	588.8688888888889	53	127
585.3046258503401	588.8688888888889	62	127
585.6877551020408	586.2334240362812	78	127
586.3030839002267	586.662970521542	77	127
586.6978231292517	587.1041723356009	76	127
587.1390022675737	587.3944217687075	75	127
587.4292517006803	587.6846485260771	74	127
587.7195011337868	587.9633106575964	73	127
587.9981405895692	588.2883673469388	72	127
588.3232199546485	588.6134693877551	71	127
588.3232199546485	588.8688888888889	56	127
588.6599092970522	588.8921088435375	70	127
588.9385487528344	589.2171882086168	69	127
589.2752380952381	589.5190249433107	68	127
589.5538775510204	589.7976870748299	67	127
589.8325170068027	590.0763265306123	66	127
590.1111564625851	590.5755555555555	65	127
590.680045351474	591.2024943310657	64	127
591.2489342403628	592.0732426303855	63	127
591.2489342403628	591.8062131519274	39	127
591.8410430839002	592.1080725623583	46	127
592.1545124716554	593.7799092970522	51	127
592.1545124716554	592.4447619047619	51	127
592.4795918367347	592.7698412698413	55	127
592.4795918367347	593.1181405895692	55	127
592.804671201814	593.1181405895692	58	127
593.152970521542	593.4780498866213	63	127
593.152970521542	594.081768707483	58	127
593.152970521542	594.081768707483	55	127
593.5477097505669	594.081768707483	62	127
593.8263265306123	594.1165986394558	46	127
594.3255782312925	594.5809977324263	39	127
594.6274149659864	594.9176870748299	46	127
594.9525170068027	596.682380952381	51	127
594.9525170068027	595.2659863945578	51	127
595.3008163265306	595.9741950113379	55	127
595.3008163265306	595.5678458049887	55	127
595.62589569161	595.9741950113379	58	127
596.0090249433107	596.3224943310657	63	127
596.0090249433107	597.4718820861679	55	127
596.0090249433107	596.9610430839002	58	127
596.3689342403628	597.4718820861679	62	127
596.7172335600907	597.0074829931973	46	127
597.0539229024944	597.4718820861679	39	127
597.0539229024944	597.4718820861679	58	127
597.5066893424037	597.7969614512472	46	127
597.83179138322	598.1684807256236	58	127
597.83179138322	598.5632199546485	55	127
597.83179138322	599.5384353741497	51	127
597.83179138322	598.5632199546485	58	127
598.2845804988663	598.586439909297	67	127
598.6212698412699	598.8534693877551	63	127
598.6212698412699	598.8534693877551	58	127
598.6212698412699	599.1437188208616	55	127
598.9115192743765	599.1901587301587	70	127
598.9115192743765	599.1901587301587	63	127
599.2598185941043	600.3743764172335	53	127
599.2598185941043	600.3743764172335	56	127
599.2598185941043	600.3743764172335	62	127
599.2598185941043	600.3743764172335	68	127
599.5732879818594	599.8751473922903	46	127
600.0144671201814	600.3743764172335	39	127
600.4324263038549	600.7342857142858	63	127
600.4324263038549	600.7342857142858	55	127
600.4324263038549	600.7342857142858	46	127
600.4324263038549	600.7342857142858	67	127
600.7690929705216	601.0941950113379	65	127
600.7690929705216	601.0941950113379	62	127
600.7690929705216	601.0941950113379	56	127
600.7690929705216	602.4177324263038	51	127
601.140634920635	601.5121541950114	60	127
601.140634920635	601.5121541950114	55	127
601.140634920635	601.5121541950114	63	127
601.5469841269842	601.848843537415	62	127
601.5469841269842	601.848843537415	65	127
601.5469841269842	602.7195918367347	56	127
601.8836734693878	601.9997505668935	62	127
601.8836734693878	601.9997505668935	65	127
602.0229931972789	602.1390929705216	60	127
602.0229931972789	602.1390929705216	67	127
602.1623129251701	602.7195918367347	62	127
602.1623129251701	602.7195918367347	65	127
602.510612244898	602.777641723356	46	127
602.9285714285714	603.2187981859411	39	127
602.9285714285714	603.2187981859411	55	127
602.9285714285714	603.2187981859411	58	127
603.265260770975	603.6367573696145	46	127
603.7180498866213	605.3898866213152	51	127
603.7180498866213	604.4030385487529	58	127
603.7180498866213	604.4030385487529	55	127
603.7180498866213	604.101179138322	58	127
604.2056689342404	604.4378458049887	67	127
604.4726984126984	604.7281179138322	63	127
604.4726984126984	605.0299773242631	55	127
604.4726984126984	604.7281179138322	58	127
604.762947845805	605.0647845804989	63	127
604.762947845805	605.0647845804989	70	127
605.0996371882086	606.2374149659864	68	127
605.0996371882086	606.2374149659864	53	127
605.0996371882086	606.2374149659864	62	127
605.0996371882086	606.2374149659864	56	127
605.424716553288	605.8426757369615	46	127
605.9471655328798	606.2374149659864	39	127
606.2722448979592	606.6205442176871	63	127
606.2722448979592	606.6205442176871	55	127
606.2722448979592	606.6205442176871	67	127
606.2722448979592	606.6205442176871	46	127
606.6553741496599	608.3271882086168	51	127
606.6553741496599	606.9107709750567	65	127
606.6553741496599	606.9107709750567	56	127
606.6553741496599	606.9107709750567	62	127
606.9456235827664	607.3868027210884	60	127
606.9456235827664	607.3868027210884	63	127
606.9456235827664	607.3868027210884	55	127
607.4216326530612	608.6406802721089	56	127
607.4216326530612	607.7118594104309	62	127
607.4216326530612	607.7118594104309	65	127
607.7583219954648	607.8976417233561	65	127
607.7583219954648	607.8976417233561	62	127
607.9208390022676	608.0369614512472	60	127
607.9208390022676	608.0369614512472	67	127
608.0601814058957	608.7916099773242	62	127
608.0601814058957	608.6406802721089	65	127
608.385260770975	608.6755102040817	46	127
608.7916099773242	609.1166893424037	55	127
608.7916099773242	609.1166893424037	63	127
608.7916099773242	609.1166893424037	39	127
609.1514965986395	609.441768707483	43	127
609.4882086167801	610.8001360544217	51	127
609.4882086167801	609.7668253968254	63	127
609.4882086167801	610.5563265306123	63	127
609.4882086167801	609.7668253968254	46	127
609.4882086167801	610.8001360544217	55	127
609.8597278911565	610.1848072562358	51	127
609.8597278911565	610.1848072562358	65	127
610.2544671201814	610.5563265306123	55	127
610.2544671201814	610.5563265306123	67	127
610.5911337868481	610.8349659863945	67	127
610.5911337868481	611.4851247165533	58	127
610.5911337868481	610.8349659863945	75	127
610.8814058956916	611.160045351474	67	127
610.8814058956916	611.160045351474	70	127
610.8814058956916	611.9611337868481	74	127
611.206462585034	611.3458049886622	67	127
611.206462585034	611.3458049886622	63	127
611.3922222222222	611.5431746031746	65	127
611.3922222222222	611.5431746031746	68	127
611.5895918367347	611.9611337868481	70	127
611.5895918367347	611.9611337868481	39	127
611.5895918367347	611.9611337868481	67	127
612.0307936507936	612.2978231292517	43	127
612.3326530612245	613.5517006802721	55	127
612.3326530612245	612.576462585034	63	127
612.3326530612245	613.284671201814	63	127
612.3326530612245	612.576462585034	46	127
612.3326530612245	613.5517006802721	51	127
612.6112925170069	612.9363718820862	65	127
612.6112925170069	612.9363718820862	51	127
612.9828117913833	613.284671201814	55	127
612.9828117913833	613.284671201814	67	127
613.3311111111111	614.1786394557823	58	127
613.3311111111111	613.5749206349207	67	127
613.3311111111111	613.5749206349207	75	127
613.6213605442177	614.1786394557823	74	127
613.6213605442177	613.9116099773242	67	127
613.6213605442177	613.9116099773242	70	127
613.9696598639456	614.0973696145124	63	127
613.9696598639456	614.0973696145124	67	127
614.1089795918367	614.2947392290249	68	127
614.1089795918367	614.2947392290249	65	127
614.3063492063492	614.6314285714286	72	127
614.3063492063492	614.6314285714286	43	127
614.3063492063492	614.6314285714286	67	127
614.3063492063492	614.6314285714286	70	127
614.6546485260772	614.8984580498866	48	127
614.9332879818594	615.9201360544217	63	127
614.9332879818594	616.152335600907	51	127
614.9332879818594	615.2119274376417	63	127
614.9332879818594	615.2119274376417	51	127
614.9332879818594	616.152335600907	55	127
615.2699546485261	615.618276643991	65	127
615.2699546485261	615.618276643991	55	127
615.6531065759638	616.4541950113379	60	127
615.6531065759638	615.9201360544217	67	127
615.9549659863945	616.1871655328798	74	127
615.9549659863945	616.1871655328798	67	127
616.2219954648526	616.500612244898	67	127
616.2219954648526	616.500612244898	70	127
616.2219954648526	617.1507936507936	72	127
616.5354648526077	616.6980045351474	63	127
616.5354648526077	616.6980045351474	67	127
616.5354648526077	616.8373242630386	55	127
616.721201814059	616.8605442176871	65	127
616.721201814059	616.8605442176871	68	127
616.8837641723356	617.1507936507936	67	127
616.8837641723356	617.1507936507936	43	127
616.8837641723356	617.1507936507936	70	127
617.1856235827664	617.4410430839002	48	127
617.4990929705216	617.7777324263038	63	127
617.4990929705216	618.625260770975	63	127
617.4990929705216	618.8690702947846	55	127
617.4990929705216	617.7777324263038	51	127
617.4990929705216	618.8690702947846	51	127
617.8822222222223	618.1956916099773	55	127
617.8822222222223	618.1956916099773	65	127
618.2421315192744	619.1592970521542	60	127
618.2421315192744	618.625260770975	67	127
618.6600907029479	618.9039002267574	74	127
618.6600907029479	618.9039002267574	67	127
618.9387301587302	619.8210884353741	72	127
618.9387301587302	619.1941496598639	67	127
618.9387301587302	619.1941496598639	70	127
619.2289795918367	619.3798866213152	63	127
619.2289795918367	619.3798866213152	67	127
619.2289795918367	619.5424489795919	55	127
619.4031292517006	619.5656462585034	65	127
619.4031292517006	619.5656462585034	68	127
619.5772562358277	619.8210884353741	67	127
619.5772562358277	619.8210884353741	60	127
619.5772562358277	619.8210884353741	70	127
619.8559183673469	621.3884353741497	62	127
619.8559183673469	619.9720181405896	65	127
619.8559183673469	621.3884353741497	71	127
619.8559183673469	620.5525170068028	53	127
619.9952154195012	620.1113378684807	67	127
620.1345578231293	621.3884353741497	68	127
620.6337868480725	621.005283446712	56	127
621.0401360544217	622.0850340136054	50	127
621.4232426303855	622.7584126984127	68	127
621.4232426303855	622.7584126984127	59	127
621.4232426303855	621.5393650793651	62	127
621.5625850340136	621.7019047619048	63	127
621.7251247165533	622.7584126984127	65	127
622.1779138321996	622.4217233560091	53	127
622.4681632653061	623.4085714285715	47	127
622.8048526077098	624.2212698412699	56	127
622.8048526077098	624.2212698412699	65	127
622.8048526077098	622.9441723356009	59	127
622.9673922902494	623.083492063492	60	127
623.0951020408163	624.2212698412699	62	127
623.4898412698412	623.8961904761904	50	127
623.9310204081632	624.9875283446712	44	127
624.2560997732427	625.3358276643991	62	127
624.2560997732427	625.3358276643991	53	127
624.2560997732427	624.4534693877551	56	127
624.4650793650794	624.6392290249433	58	127
624.6508390022676	627.4024036281179	59	127
625.0571882086168	625.3706575963719	47	127
625.417097505669	629.3992970521542	62	127
625.417097505669	626.4155555555556	41	127
625.417097505669	629.3992970521542	56	127
626.4852154195012	629.3992970521542	40	127
627.4836734693878	628.3544217687075	58	127
628.4821315192744	629.3992970521542	56	127
629.3992970521542	629.5038095238095	63	127
629.5038095238095	630.3397278911565	39	127
629.5038095238095	632.8706802721089	55	127
629.5038095238095	631.3614058956916	75	127
629.5038095238095	632.8706802721089	58	127
630.3745578231293	630.6764172335601	43	127
630.7344671201814	631.0363038548753	46	127
631.0827664399093	631.419455782313	51	127
631.46589569161	632.8706802721089	73	127
631.46589569161	631.7909750566894	52	127
631.8258049886622	632.2321541950114	55	127
632.2669614512472	632.5340136054422	58	127
632.5804535147392	632.9287528344671	61	127
632.9635827664399	633.4395918367347	62	127
632.9635827664399	635.6454875283447	53	127
632.9635827664399	635.6454875283447	56	127
632.9635827664399	634.5657596371882	71	127
633.4743990929705	633.8227210884354	59	127
633.8807482993197	634.2522902494331	56	127
634.3103174603175	634.5889795918367	53	127
634.6354195011338	634.9488888888889	50	127
634.6354195011338	636.2027664399093	77	127
634.9837188208617	635.6803174603175	47	127
635.7151473922903	635.9589569160997	44	127
635.7151473922903	636.2027664399093	59	127
635.7151473922903	636.2027664399093	62	127
635.9937868480725	636.2375963718821	41	127
636.2724263038549	639.0936507936508	58	127
636.2724263038549	637.7236734693878	55	127
636.2724263038549	641.9497052154195	39	127
636.2724263038549	636.6903854875284	63	127
636.2724263038549	637.7236734693878	63	127
636.7252154195012	636.9922448979592	67	127
637.0386848072562	637.4102040816326	70	127
637.468253968254	637.7585034013606	75	127
637.7933333333333	639.0936507936508	61	127
637.7933333333333	638.1184126984127	76	127
638.1764399092971	638.4667120181406	79	127
638.5131519274377	638.838231292517	82	127
638.8730612244898	639.1168707482993	85	127
639.1633106575964	639.5464399092971	84	127
639.1633106575964	640.4984580498866	60	127
639.1633106575964	640.4984580498866	57	127
639.5928798185942	639.8715192743764	81	127
639.9527891156463	640.2314058956916	78	127
640.2662585034013	640.5332879818594	75	127
640.5681179138322	641.9497052154195	56	127
640.5681179138322	640.8583673469387	74	127
640.5681179138322	641.9497052154195	65	127
640.9164172335601	641.2647165532879	71	127
641.2995464852607	641.659433106576	68	127
641.6942857142857	642.0657823129252	65	127
642.1238548752834	642.4024943310658	63	127
642.1238548752834	643.4009523809524	58	127
642.1238548752834	644.9102494331066	39	127
642.1238548752834	643.4009523809524	55	127
642.4605442176871	642.808843537415	67	127
642.8436734693878	643.1339229024943	70	127
643.1687528344671	643.4473922902495	75	127
643.4822222222223	644.9102494331066	53	127
643.4822222222223	644.9102494331066	56	127
643.4822222222223	643.9001587301588	74	127
643.4822222222223	644.9102494331066	59	127
643.9466213151927	644.2368707482993	71	127
644.2949206349207	644.5851700680272	68	127
644.6432199546485	644.9450793650793	65	127
644.9915192743764	646.3150566893424	58	127
644.9915192743764	647.7663038548753	39	127
644.9915192743764	646.3150566893424	55	127
644.9915192743764	645.3630385487528	67	127
645.3978684807256	645.722947845805	70	127
645.7577551020408	646.0364172335601	75	127
646.0712471655329	646.3498639455782	79	127
646.384716553288	647.7663038548753	53	127
646.384716553288	646.7097959183674	77	127
646.384716553288	647.7663038548753	56	127
646.384716553288	647.7663038548753	59	127
646.7446258503402	647.0116553287982	74	127
647.0580952380952	647.4760544217687	71	127
647.5108843537415	648.0100907029479	68	127
648.1029931972789	648.4396825396825	67	127
648.1029931972789	648.7415419501134	58	127
648.1029931972789	648.7415419501134	55	127
648.1029931972789	648.7415419501134	39	127
648.4745124716553	648.7879818594105	63	127
648.9969614512472	649.2523809523809	67	127
649.298820861678	649.5426303854875	70	127
649.5890702947846	649.8560997732426	74	127
649.9141496598639	650.181179138322	75	127
650.2160090702948	650.4481859410431	79	127
650.4830385487528	651.063514739229	82	127
651.0983673469387	651.8181859410431	86	127
651.8878231292517	651.94589569161	87	127
651.9575056689342	652.0387755102041	89	127
652.0503854875284	653.6061224489796	63	127
652.0503854875284	653.6061224489796	67	127
652.0503854875284	653.6061224489796	70	127
652.0503854875284	653.2578231292517	87	127
653.2926530612245	653.6641723356009	82	127
653.6990022675737	654.5348979591837	80	127
654.6045804988662	654.7322902494332	79	127
654.8135600907029	655.6146485260771	79	127
655.7655555555556	656.6479365079365	63	127
655.7655555555556	656.6479365079365	55	127
655.7655555555556	656.5202267573696	77	127
655.7655555555556	656.6479365079365	58	127
656.578253968254	656.7059863945578	75	127
656.7175963718821	656.9497959183674	75	127
656.9846031746032	657.3909750566894	70	127
657.4374149659864	658.2849433106576	68	127
658.2965532879819	658.3662131519275	67	127
658.3778231292517	658.4474829931972	68	127
658.4590929705215	658.5984126984127	67	127
658.6912925170068	659.7478004535147	63	127
658.6912925170068	659.7478004535147	67	127
659.6317006802722	660.7694784580499	58	127
659.6317006802722	660.7694784580499	51	127
659.7710204081633	659.8871201814059	65	127
659.7710204081633	659.8871201814059	62	127
659.9103401360544	660.0380498866214	67	127
659.9103401360544	660.0380498866214	63	127
660.0612471655329	660.1889795918368	65	127
660.0612471655329	660.1889795918368	68	127
660.2121995464853	662.9869841269841	67	127
660.2121995464853	662.9869841269841	63	127
660.8391383219955	661.349977324263	51	127
660.8391383219955	662.9869841269841	58	127
661.4080272108844	662.9869841269841	51	127
663.0566439909297	665.274149659864	63	127
663.0566439909297	665.274149659864	58	127
663.0566439909297	665.274149659864	39	127
663.0566439909297	665.274149659864	55	127
665.3670068027211	668.2230839002268	39	127
665.3670068027211	668.2230839002268	58	127
665.3670068027211	668.2230839002268	55	127
665.3670068027211	668.2230839002268	63	127
