# onset,offset,note,velocity
0.23142857142857143	1.7058956916099772	67	127
0.23142857142857143	1.7058956916099772	74	127
0.23142857142857143	1.7058956916099772	70	127
1.7058956916099772	2.3908843537414968	69	127
1.7058956916099772	2.3908843537414968	79	127
1.7058956916099772	2.3908843537414968	75	127
2.3908843537414968	4.863809523809524	74	127
2.3908843537414968	4.863809523809524	70	127
2.3908843537414968	4.863809523809524	77	127
3.0294331065759637	3.96984126984127	46	127
3.0294331065759637	3.96984126984127	62	127
3.0294331065759637	3.96984126984127	58	127
3.0294331065759637	3.96984126984127	53	127
3.96984126984127	4.271700680272109	62	127
3.96984126984127	4.271700680272109	53	127
3.96984126984127	4.271700680272109	46	127
3.96984126984127	4.271700680272109	58	127
4.271700680272109	6.9071655328798185	62	127
4.271700680272109	6.9071655328798185	58	127
4.271700680272109	6.9071655328798185	53	127
4.271700680272109	6.9071655328798185	46	127
8.892471655328798	10.529478458049887	70	127
8.892471655328798	10.529478458049887	67	127
8.892471655328798	10.529478458049887	74	127
10.529478458049887	11.214444444444444	69	127
10.529478458049887	11.214444444444444	75	127
10.529478458049887	11.214444444444444	79	127
11.214444444444444	13.594512471655328	74	127
11.214444444444444	13.594512471655328	77	127
11.214444444444444	13.594512471655328	70	127
11.80657596371882	12.688934240362812	58	127
11.80657596371882	12.688934240362812	46	127
11.80657596371882	12.688934240362812	53	127
11.80657596371882	12.688934240362812	62	127
12.688934240362812	12.99079365079365	58	127
12.688934240362812	12.99079365079365	53	127
12.688934240362812	12.99079365079365	46	127
12.688934240362812	12.99079365079365	62	127
12.99079365079365	15.533378684807257	53	127
12.99079365079365	15.533378684807257	62	127
12.99079365079365	15.533378684807257	58	127
12.99079365079365	15.533378684807257	46	127
17.425804988662133	18.83061224489796	74	127
17.425804988662133	18.83061224489796	70	127
17.425804988662133	18.83061224489796	67	127
18.83061224489796	19.71297052154195	79	127
18.83061224489796	19.71297052154195	75	127
18.83061224489796	19.71297052154195	69	127
19.71297052154195	20.908798185941045	77	127
19.71297052154195	20.908798185941045	74	127
19.71297052154195	20.908798185941045	70	127
20.316689342403627	21.51251700680272	46	127
20.316689342403627	21.51251700680272	53	127
20.908798185941045	21.51251700680272	70	127
20.908798185941045	21.51251700680272	65	127
20.908798185941045	21.51251700680272	74	127
21.51251700680272	22.719954648526077	70	127
21.51251700680272	22.719954648526077	74	127
21.51251700680272	22.719954648526077	65	127
22.127845804988663	23.61392290249433	46	127
22.127845804988663	23.61392290249433	53	127
22.719954648526077	23.61392290249433	62	127
22.719954648526077	23.61392290249433	70	127
22.719954648526077	23.61392290249433	65	127
23.61392290249433	24.856190476190477	70	127
23.61392290249433	24.856190476190477	65	127
23.61392290249433	24.856190476190477	62	127
24.26408163265306	25.48312925170068	53	127
24.26408163265306	25.48312925170068	46	127
24.856190476190477	25.48312925170068	65	127
24.856190476190477	25.48312925170068	58	127
24.856190476190477	25.48312925170068	62	127
25.48312925170068	26.66734693877551	57	127
25.48312925170068	26.66734693877551	65	127
25.48312925170068	26.66734693877551	62	127
26.075238095238095	27.329115646258504	48	127
26.075238095238095	27.329115646258504	41	127
26.66734693877551	27.329115646258504	57	127
26.66734693877551	27.329115646258504	60	127
26.66734693877551	27.329115646258504	63	127
27.329115646258504	28.106984126984127	53	127
27.329115646258504	28.106984126984127	46	127
27.329115646258504	28.43206349206349	62	127
27.329115646258504	28.745532879818594	58	127
28.106984126984127	28.745532879818594	55	127
28.106984126984127	28.745532879818594	39	127
28.43206349206349	28.745532879818594	60	127
28.745532879818594	29.047392290249434	62	127
28.745532879818594	29.38408163265306	41	127
28.745532879818594	29.38408163265306	57	127
28.745532879818594	29.38408163265306	57	127
29.047392290249434	29.38408163265306	63	127
29.38408163265306	30.06907029478458	58	127
29.38408163265306	30.428979591836736	62	127
29.38408163265306	30.71922902494331	58	127
29.38408163265306	30.06907029478458	46	127
30.06907029478458	30.71922902494331	39	127
30.06907029478458	30.71922902494331	55	127
30.428979591836736	30.71922902494331	60	127
30.71922902494331	31.5087074829932	57	127
30.71922902494331	31.5087074829932	57	127
30.71922902494331	31.5087074829932	41	127
30.71922902494331	31.113968253968252	62	127
31.113968253968252	31.5087074829932	63	127
31.5087074829932	33.47079365079365	46	127
31.5087074829932	32.86707482993197	58	127
31.5087074829932	32.86707482993197	62	127
31.5087074829932	32.25174603174603	58	127
32.25174603174603	32.86707482993197	53	127
32.86707482993197	33.47079365079365	51	127
32.86707482993197	33.47079365079365	60	127
32.86707482993197	33.47079365079365	57	127
33.47079365079365	35.97854875283447	53	127
33.47079365079365	35.97854875283447	46	127
33.47079365079365	35.97854875283447	50	127
33.47079365079365	35.97854875283447	58	127
37.963854875283445	39.600861678004534	77	127
37.963854875283445	39.600861678004534	74	127
37.963854875283445	39.600861678004534	82	127
39.600861678004534	40.239410430839	78	127
39.600861678004534	40.239410430839	84	127
39.600861678004534	40.239410430839	87	127
40.239410430839	42.67750566893424	79	127
40.239410430839	42.67750566893424	86	127
40.239410430839	42.67750566893424	82	127
40.87795918367347	41.783537414965984	43	127
40.87795918367347	41.783537414965984	50	127
40.87795918367347	41.783537414965984	55	127
40.87795918367347	41.783537414965984	58	127
41.783537414965984	42.073786848072565	55	127
41.783537414965984	42.073786848072565	43	127
41.783537414965984	42.073786848072565	58	127
41.783537414965984	42.073786848072565	50	127
42.073786848072565	44.5118820861678	43	127
42.073786848072565	44.5118820861678	50	127
42.073786848072565	44.5118820861678	55	127
42.073786848072565	44.5118820861678	58	127
46.69455782312925	48.06453514739229	79	127
46.69455782312925	48.06453514739229	82	127
48.06453514739229	48.66825396825397	87	127
48.06453514739229	48.66825396825397	78	127
48.06453514739229	48.66825396825397	84	127
48.66825396825397	51.07151927437642	86	127
48.66825396825397	51.07151927437642	79	127
48.66825396825397	51.07151927437642	82	127
49.225532879818594	50.1659410430839	58	127
49.225532879818594	50.1659410430839	55	127
49.225532879818594	50.1659410430839	50	127
49.225532879818594	50.1659410430839	43	127
50.1659410430839	50.46780045351474	58	127
50.1659410430839	50.46780045351474	43	127
50.1659410430839	50.46780045351474	50	127
50.1659410430839	50.46780045351474	55	127
50.46780045351474	52.95233560090703	50	127
50.46780045351474	52.95233560090703	58	127
50.46780045351474	52.95233560090703	55	127
50.46780045351474	52.95233560090703	43	127
54.99569160997732	56.31922902494331	82	127
54.99569160997732	56.31922902494331	79	127
56.31922902494331	56.92294784580499	84	127
56.31922902494331	56.92294784580499	87	127
56.31922902494331	56.92294784580499	78	127
56.92294784580499	58.11877551020408	77	127
56.92294784580499	58.11877551020408	82	127
56.92294784580499	58.11877551020408	86	127
57.5150566893424	58.73410430839002	46	127
57.5150566893424	58.73410430839002	53	127
58.11877551020408	58.73410430839002	74	127
58.11877551020408	58.73410430839002	77	127
58.11877551020408	58.73410430839002	82	127
58.73410430839002	59.90671201814059	74	127
58.73410430839002	59.90671201814059	77	127
58.73410430839002	59.90671201814059	82	127
59.32621315192744	60.6265306122449	46	127
59.32621315192744	60.6265306122449	53	127
59.90671201814059	60.6265306122449	77	127
59.90671201814059	60.6265306122449	70	127
59.90671201814059	60.6265306122449	74	127
60.6265306122449	61.83396825396825	77	127
60.6265306122449	61.83396825396825	74	127
60.6265306122449	61.83396825396825	70	127
61.23024943310658	62.48412698412698	53	127
61.23024943310658	62.48412698412698	46	127
61.83396825396825	62.48412698412698	65	127
61.83396825396825	62.48412698412698	74	127
61.83396825396825	62.48412698412698	70	127
62.48412698412698	63.668344671201815	74	127
62.48412698412698	64.43458049886621	69	127
62.48412698412698	63.668344671201815	65	127
63.064625850340136	64.43458049886621	48	127
63.064625850340136	64.43458049886621	41	127
63.668344671201815	64.43458049886621	72	127
63.668344671201815	64.43458049886621	63	127
64.43458049886621	65.0847619047619	43	127
64.43458049886621	65.0847619047619	62	127
64.43458049886621	65.7465306122449	55	127
64.43458049886621	65.7465306122449	67	127
64.43458049886621	65.38662131519274	70	127
65.0847619047619	65.7465306122449	48	127
65.0847619047619	66.39668934240363	63	127
65.38662131519274	65.7465306122449	69	127
65.7465306122449	66.08321995464853	70	127
65.7465306122449	67.77827664399094	55	127
65.7465306122449	67.77827664399094	67	127
65.7465306122449	66.39668934240363	36	127
66.08321995464853	66.39668934240363	72	127
66.39668934240363	67.01201814058957	43	127
66.39668934240363	67.38353741496599	70	127
66.39668934240363	67.01201814058957	62	127
67.01201814058957	67.77827664399094	48	127
67.01201814058957	68.86961451247166	63	127
67.38353741496599	67.77827664399094	69	127
67.77827664399094	68.44004535147393	70	127
67.77827664399094	68.86961451247166	36	127
67.77827664399094	68.86961451247166	55	127
67.77827664399094	68.86961451247166	67	127
68.44004535147393	68.86961451247166	72	127
68.86961451247166	72.28294784580498	43	127
68.86961451247166	70.07705215419502	55	127
68.86961451247166	70.07705215419502	67	127
68.86961451247166	70.07705215419502	70	127
68.86961451247166	69.4849433106576	62	127
69.4849433106576	70.07705215419502	55	127
70.07705215419502	70.68077097505669	51	127
70.07705215419502	70.68077097505669	60	127
70.07705215419502	70.68077097505669	67	127
70.68077097505669	72.28294784580498	67	127
70.68077097505669	72.28294784580498	50	127
70.68077097505669	72.28294784580498	58	127
72.28294784580498	73.2001133786848	74	127
73.2233560090703	73.83866213151927	57	127
73.2233560090703	73.83866213151927	50	127
73.2233560090703	73.83866213151927	62	127
73.2233560090703	73.83866213151927	57	127
73.2233560090703	73.83866213151927	66	127
73.2233560090703	73.83866213151927	74	127
73.83866213151927	74.47723356009071	69	127
74.47723356009071	75.01129251700681	66	127
75.01129251700681	75.64984126984127	51	127
75.01129251700681	75.64984126984127	60	127
75.01129251700681	75.64984126984127	51	127
75.01129251700681	75.64984126984127	67	127
75.01129251700681	75.64984126984127	55	127
75.64984126984127	76.520589569161	60	127
76.520589569161	76.71795918367347	60	127
76.71795918367347	77.2752380952381	60	127
76.71795918367347	77.2752380952381	67	127
76.71795918367347	77.2752380952381	55	127
76.71795918367347	77.2752380952381	60	127
76.71795918367347	77.2752380952381	51	127
76.71795918367347	77.2752380952381	45	127
77.2752380952381	77.87893424036281	62	127
77.87893424036281	78.57555555555555	63	127
78.57555555555555	79.26054421768707	57	127
78.57555555555555	79.26054421768707	57	127
78.57555555555555	79.26054421768707	69	127
78.57555555555555	79.26054421768707	63	127
78.57555555555555	79.26054421768707	42	127
78.57555555555555	79.26054421768707	48	127
79.26054421768707	79.85265306122449	62	127
79.85265306122449	80.38671201814059	74	127
80.38671201814059	80.94399092970522	62	127
80.38671201814059	80.94399092970522	66	127
80.38671201814059	80.94399092970522	69	127
80.38671201814059	80.65374149659864	75	127
80.65374149659864	80.94399092970522	74	127
80.94399092970522	81.48965986394558	69	127
81.48965986394558	82.00049886621315	66	127
82.00049886621315	82.51133786848072	67	127
82.00049886621315	82.51133786848072	72	127
82.00049886621315	82.51133786848072	67	127
82.00049886621315	82.51133786848072	63	127
82.51133786848072	83.31242630385488	60	127
83.31242630385488	83.57943310657596	60	127
83.57943310657596	84.14834467120181	67	127
83.57943310657596	84.14834467120181	60	127
83.57943310657596	84.14834467120181	57	127
83.57943310657596	84.14834467120181	63	127
84.14834467120181	84.67079365079366	62	127
84.67079365079366	85.2512925170068	63	127
85.2512925170068	85.8201814058957	69	127
85.2512925170068	85.8201814058957	60	127
85.2512925170068	85.8201814058957	54	127
85.2512925170068	86.41229024943311	65	127
86.41229024943311	86.94634920634921	62	127
86.94634920634921	88.1537641723356	63	127
87.50362811791383	88.11895691609978	50	127
87.50362811791383	87.80548752834467	54	127
87.50362811791383	88.11895691609978	60	127
87.50362811791383	88.11895691609978	57	127
88.1537641723356	88.7691156462585	62	127
88.7691156462585	89.31478458049887	67	127
89.31478458049887	89.87206349206349	66	127
89.87206349206349	90.98662131519275	70	127
90.45253968253968	90.98662131519275	66	127
90.45253968253968	90.98662131519275	57	127
90.45253968253968	90.98662131519275	60	127
90.45253968253968	90.98662131519275	50	127
90.45253968253968	90.98662131519275	38	127
90.98662131519275	91.32328798185941	69	127
91.32328798185941	91.89219954648526	54	127
91.32328798185941	92.40303854875283	75	127
91.32328798185941	92.17083900226757	72	127
91.32328798185941	91.89219954648526	38	127
91.89219954648526	92.40303854875283	50	127
91.89219954648526	92.40303854875283	45	127
92.17083900226757	92.40303854875283	69	127
92.40303854875283	92.70489795918367	71	127
92.40303854875283	92.99514739229025	74	127
92.40303854875283	92.99514739229025	57	127
92.40303854875283	92.99514739229025	42	127
92.70489795918367	92.99514739229025	72	127
92.99514739229025	93.86589569160998	72	127
92.99514739229025	94.16775510204081	75	127
92.99514739229025	93.56403628117914	38	127
92.99514739229025	93.56403628117914	54	127
93.56403628117914	94.16775510204081	45	127
93.56403628117914	94.16775510204081	50	127
93.86589569160998	94.16775510204081	69	127
94.16775510204081	94.75986394557823	42	127
94.16775510204081	94.75986394557823	57	127
94.16775510204081	94.46961451247165	71	127
94.16775510204081	94.75986394557823	74	127
94.46961451247165	94.75986394557823	72	127
94.75986394557823	95.3635827664399	72	127
94.75986394557823	95.3635827664399	54	127
94.75986394557823	95.3635827664399	38	127
94.75986394557823	95.3635827664399	81	127
95.3635827664399	95.8047619047619	78	127
95.82798185941043	96.3736507936508	74	127
96.39687074829932	96.95414965986394	72	127
96.97736961451247	97.54625850340136	69	127
97.56947845804989	97.87133786848072	66	127
97.90616780045352	98.47505668934241	62	127
98.49827664399093	99.18326530612245	60	127
99.20648526077098	99.92630385487529	57	127
99.96113378684807	106.85746031746032	55	127
99.96113378684807	101.24984126984127	74	127
99.96113378684807	100.63451247165533	71	127
100.63451247165533	101.24984126984127	62	127
101.24984126984127	101.79551020408164	69	127
101.24984126984127	101.79551020408164	72	127
101.79551020408164	102.73591836734694	71	127
101.79551020408164	102.17863945578232	67	127
102.17863945578232	102.73591836734694	62	127
102.73591836734694	103.33963718820861	60	127
102.73591836734694	103.33963718820861	69	127
103.33963718820861	103.89691609977324	67	127
103.33963718820861	104.46580498866213	62	127
103.33963718820861	103.89691609977324	59	127
103.89691609977324	104.46580498866213	62	127
103.89691609977324	106.85746031746032	62	127
104.46580498866213	105.05791383219955	57	127
104.46580498866213	105.05791383219955	60	127
105.05791383219955	105.62680272108844	55	127
105.05791383219955	106.25374149659864	59	127
105.62680272108844	106.25374149659864	62	127
106.25374149659864	106.85746031746032	72	127
106.25374149659864	106.85746031746032	57	127
106.85746031746032	113.6492970521542	55	127
106.85746031746032	107.43795918367347	70	127
106.85746031746032	108.04167800453514	74	127
106.85746031746032	108.04167800453514	55	127
107.43795918367347	108.04167800453514	62	127
108.04167800453514	108.63378684807256	69	127
108.04167800453514	108.1809977324263	72	127
108.1809977324263	108.33192743764172	74	127
108.33192743764172	108.48285714285714	72	127
108.48285714285714	108.63378684807256	71	127
108.63378684807256	109.07496598639456	67	127
108.63378684807256	109.57419501133786	70	127
109.07496598639456	109.57419501133786	62	127
109.57419501133786	109.71351473922903	69	127
109.57419501133786	110.07342403628118	60	127
109.71351473922903	109.84122448979592	70	127
109.84122448979592	109.94571428571429	69	127
109.94571428571429	110.07342403628118	70	127
110.07342403628118	111.257641723356	62	127
110.07342403628118	110.6307029478458	58	127
110.07342403628118	110.6307029478458	67	127
110.6307029478458	113.6492970521542	62	127
110.6307029478458	111.257641723356	62	127
111.257641723356	111.39696145124717	60	127
111.257641723356	111.81492063492064	57	127
111.39696145124717	111.54789115646258	62	127
111.54789115646258	111.698820861678	60	127
111.698820861678	111.81492063492064	59	127
111.81492063492064	112.43024943310658	55	127
111.81492063492064	113.06879818594105	58	127
112.43024943310658	113.06879818594105	62	127
113.06879818594105	113.6492970521542	60	127
113.06879818594105	113.21972789115647	57	127
113.21972789115647	113.37065759637188	58	127
113.37065759637188	113.50997732426303	57	127
113.50997732426303	113.6492970521542	58	127
113.6492970521542	114.22979591836734	55	127
113.6492970521542	114.22979591836734	58	127
113.6492970521542	114.22979591836734	67	127
113.6492970521542	114.22979591836734	58	127
114.22979591836734	114.76385487528344	60	127
114.22979591836734	114.76385487528344	51	127
114.22979591836734	114.76385487528344	55	127
114.22979591836734	114.76385487528344	69	127
114.76385487528344	115.36757369614513	53	127
114.76385487528344	115.36757369614513	70	127
114.76385487528344	115.36757369614513	46	127
114.76385487528344	115.36757369614513	62	127
115.36757369614513	116.55179138321995	51	127
115.36757369614513	115.9712925170068	58	127
115.36757369614513	115.9712925170068	67	127
115.36757369614513	116.55179138321995	55	127
115.9712925170068	116.55179138321995	60	127
115.9712925170068	116.55179138321995	69	127
116.55179138321995	117.05102040816327	62	127
116.55179138321995	117.05102040816327	46	127
116.55179138321995	117.05102040816327	53	127
116.55179138321995	117.05102040816327	70	127
117.05102040816327	117.55024943310657	63	127
117.05102040816327	117.55024943310657	55	127
117.05102040816327	118.03786848072562	48	127
117.05102040816327	118.03786848072562	51	127
117.55024943310657	118.03786848072562	57	127
117.55024943310657	118.03786848072562	65	127
118.03786848072562	118.65319727891156	43	127
118.03786848072562	118.65319727891156	50	127
118.03786848072562	118.65319727891156	67	127
118.03786848072562	118.65319727891156	58	127
118.65319727891156	119.19886621315193	63	127
118.65319727891156	119.75614512471655	48	127
118.65319727891156	119.75614512471655	51	127
118.65319727891156	119.19886621315193	55	127
119.19886621315193	119.75614512471655	57	127
119.19886621315193	119.75614512471655	65	127
119.75614512471655	120.35986394557823	43	127
119.75614512471655	120.35986394557823	67	127
119.75614512471655	120.35986394557823	58	127
119.75614512471655	120.35986394557823	50	127
120.20893424036281	120.35986394557823	59	127
120.20893424036281	120.35986394557823	62	127
120.35986394557823	122.70507936507937	50	127
120.35986394557823	121.55569160997733	71	127
120.35986394557823	121.55569160997733	74	127
120.66172335600908	120.96358276643991	52	127
120.96358276643991	121.26544217687075	50	127
121.26544217687075	121.55569160997733	38	127
121.55569160997733	122.159410430839	72	127
121.55569160997733	122.159410430839	69	127
122.159410430839	123.27396825396825	67	127
122.159410430839	123.27396825396825	71	127
122.40321995464852	122.70507936507937	52	127
122.70507936507937	123.27396825396825	62	127
122.70507936507937	122.99532879818594	50	127
122.99532879818594	123.27396825396825	38	127
123.27396825396825	123.90090702947846	60	127
123.27396825396825	123.90090702947846	69	127
123.27396825396825	123.90090702947846	66	127
123.90090702947846	124.52784580498866	43	127
123.90090702947846	124.52784580498866	59	127
123.90090702947846	124.52784580498866	71	127
123.90090702947846	124.52784580498866	67	127
124.52784580498866	125.11995464852608	36	127
124.52784580498866	125.11995464852608	64	127
124.52784580498866	124.8297052154195	69	127
124.8297052154195	125.11995464852608	71	127
125.11995464852608	125.39859410430839	72	127
125.11995464852608	125.70045351473922	66	127
125.11995464852608	125.70045351473922	38	127
125.39859410430839	126.30417233560091	70	127
125.70045351473922	126.30417233560091	43	127
125.70045351473922	126.30417233560091	67	127
126.30417233560091	126.89628117913833	36	127
126.30417233560091	126.60603174603175	69	127
126.30417233560091	126.89628117913833	64	127
126.60603174603175	126.89628117913833	70	127
126.89628117913833	127.48839002267573	65	127
126.89628117913833	127.1865306122449	72	127
126.89628117913833	127.48839002267573	38	127
127.48839002267573	128.68421768707483	43	127
127.48839002267573	128.68421768707483	71	127
127.48839002267573	128.68421768707483	67	127
127.48839002267573	128.08049886621316	50	127
128.08049886621316	128.68421768707483	62	127
128.68421768707483	129.3227664399093	67	127
128.68421768707483	129.3227664399093	64	127
128.68421768707483	129.3227664399093	60	127
128.68421768707483	129.3227664399093	55	127
129.34598639455783	131.12231292517006	67	127
129.34598639455783	131.12231292517006	59	127
129.34598639455783	131.12231292517006	55	127
129.34598639455783	131.12231292517006	62	127
131.18036281179138	131.77244897959184	79	127
131.79569160997733	132.19043083900226	83	127
131.79569160997733	133.061179138322	86	127
131.79569160997733	135.11614512471655	55	127
132.19043083900226	132.4922902494331	74	127
132.4922902494331	132.7825396825397	86	127
132.7825396825397	133.061179138322	83	127
133.061179138322	133.32820861678005	81	127
133.061179138322	133.63006802721088	84	127
133.32820861678005	133.63006802721088	74	127
133.63006802721088	134.67496598639457	83	127
133.63006802721088	133.88548752834467	79	127
133.88548752834467	134.11768707482995	74	127
134.11768707482995	134.4079365079365	71	127
134.4079365079365	134.67496598639457	74	127
134.67496598639457	135.11614512471655	81	127
134.67496598639457	134.94197278911565	72	127
134.94197278911565	135.11614512471655	74	127
135.11614512471655	135.4180045351474	62	127
135.11614512471655	135.708231292517	79	127
135.11614512471655	135.708231292517	71	127
135.11614512471655	135.708231292517	43	127
135.4180045351474	135.708231292517	71	127
135.708231292517	136.2655328798186	74	127
135.708231292517	136.01011337868482	74	127
135.708231292517	139.02868480725624	55	127
135.708231292517	136.82281179138323	74	127
136.01011337868482	136.2655328798186	71	127
136.2655328798186	136.82281179138323	72	127
136.2655328798186	136.55578231292517	69	127
136.55578231292517	136.82281179138323	62	127
136.82281179138323	137.298820861678	71	127
136.82281179138323	137.06662131519275	67	127
137.06662131519275	137.32204081632653	62	127
137.32204081632653	137.57746031746032	59	127
137.32204081632653	137.82126984126984	71	127
137.57746031746032	137.84448979591838	62	127
137.84448979591838	138.15795918367348	60	127
137.84448979591838	138.4249886621315	69	127
138.15795918367348	138.44820861678005	62	127
138.29727891156463	138.44820861678005	58	127
138.44820861678005	138.73845804988662	70	127
138.44820861678005	141.4784126984127	55	127
138.44820861678005	139.4698866213152	86	127
138.73845804988662	139.02868480725624	74	127
139.02868480725624	139.33056689342405	79	127
139.33056689342405	139.4698866213152	82	127
139.4698866213152	139.74850340136055	81	127
139.4698866213152	139.99233560090704	84	127
139.74850340136055	139.99233560090704	74	127
139.99233560090704	140.25934240362812	79	127
139.99233560090704	140.93274376417233	82	127
140.25934240362812	140.5147619047619	74	127
140.5147619047619	140.7585941043084	70	127
140.7585941043084	140.93274376417233	74	127
140.93274376417233	141.4784126984127	81	127
140.93274376417233	141.21138321995466	72	127
141.21138321995466	141.4784126984127	74	127
141.4784126984127	142.09374149659865	79	127
141.4784126984127	141.78027210884355	62	127
141.4784126984127	142.09374149659865	43	127
141.4784126984127	142.09374149659865	70	127
141.78027210884355	142.09374149659865	70	127
142.09374149659865	142.6742403628118	74	127
142.09374149659865	144.57827664399093	55	127
142.09374149659865	142.3956009070295	74	127
142.09374149659865	143.080589569161	74	127
142.3956009070295	142.6742403628118	70	127
142.6742403628118	142.94126984126984	69	127
142.6742403628118	143.080589569161	72	127
142.94126984126984	143.080589569161	62	127
143.080589569161	143.32437641723357	67	127
143.080589569161	143.53337868480725	70	127
143.32437641723357	143.55659863945579	62	127
143.55659863945579	143.97455782312926	70	127
143.55659863945579	143.7771882086168	58	127
143.7771882086168	143.99777777777777	62	127
143.99777777777777	144.28802721088437	60	127
143.99777777777777	144.54344671201815	69	127
144.28802721088437	144.57827664399093	62	127
144.57827664399093	144.845306122449	58	127
144.57827664399093	145.07750566893424	55	127
144.57827664399093	145.07750566893424	67	127
144.845306122449	145.07750566893424	62	127
145.07750566893424	145.6580045351474	53	127
145.07750566893424	145.6580045351474	69	127
145.07750566893424	145.35614512471656	63	127
145.35614512471656	145.6580045351474	60	127
145.6580045351474	146.20367346938775	58	127
145.6580045351474	146.20367346938775	70	127
145.6580045351474	145.9366439909297	62	127
145.9366439909297	146.20367346938775	65	127
146.20367346938775	146.79578231292518	67	127
146.20367346938775	146.79578231292518	70	127
146.20367346938775	146.49390022675738	74	127
146.49390022675738	146.79578231292518	79	127
146.79578231292518	146.9118820861678	77	127
146.79578231292518	147.1324716553288	69	127
146.79578231292518	147.1324716553288	72	127
146.9118820861678	147.1324716553288	75	127
147.1324716553288	147.64331065759637	70	127
147.1324716553288	147.64331065759637	74	127
147.1324716553288	147.39950113378686	74	127
147.39950113378686	147.64331065759637	77	127
147.64331065759637	148.11931972789117	58	127
147.64331065759637	148.11931972789117	70	127
147.64331065759637	147.92192743764173	61	127
147.92192743764173	148.11931972789117	65	127
148.11931972789117	148.71142857142857	56	127
148.11931972789117	148.71142857142857	72	127
148.11931972789117	148.40956916099773	66	127
148.40956916099773	148.71142857142857	63	127
148.71142857142857	149.2687074829932	73	127
148.71142857142857	148.96684807256236	65	127
148.71142857142857	149.2687074829932	61	127
148.96684807256236	149.2687074829932	68	127
149.2687074829932	149.64022675736962	70	127
149.2687074829932	149.64022675736962	73	127
149.2687074829932	149.46607709750566	77	127
149.46607709750566	149.64022675736962	82	127
149.64022675736962	150.22072562358278	75	127
149.64022675736962	150.22072562358278	72	127
149.64022675736962	149.93047619047618	80	127
149.93047619047618	150.22072562358278	78	127
150.22072562358278	150.59224489795918	77	127
150.22072562358278	150.59224489795918	73	127
150.22072562358278	150.38326530612244	77	127
150.38326530612244	150.59224489795918	80	127
150.59224489795918	150.89410430839	73	127
150.59224489795918	151.64875283446713	66	127
150.59224489795918	151.64875283446713	70	127
150.59224489795918	151.10308390022675	82	127
150.89410430839	151.10308390022675	70	127
151.10308390022675	151.64875283446713	84	127
151.10308390022675	151.39333333333335	75	127
151.39333333333335	151.64875283446713	72	127
151.64875283446713	152.06668934240363	85	127
151.64875283446713	152.06668934240363	61	127
151.64875283446713	152.06668934240363	68	127
151.64875283446713	151.90417233560092	77	127
151.90417233560092	152.06668934240363	73	127
152.06668934240363	152.39179138321995	82	127
152.06668934240363	152.33374149659863	73	127
152.06668934240363	152.99551020408163	70	127
152.06668934240363	152.99551020408163	66	127
152.33374149659863	152.39179138321995	70	127
152.39179138321995	152.99551020408163	84	127
152.39179138321995	152.6936507936508	75	127
152.6936507936508	152.99551020408163	72	127
152.99551020408163	153.494716553288	61	127
152.99551020408163	153.494716553288	68	127
152.99551020408163	153.2509297052154	77	127
152.99551020408163	153.494716553288	85	127
153.2509297052154	153.494716553288	73	127
153.494716553288	154.3190476190476	66	127
153.494716553288	154.3190476190476	63	127
153.494716553288	153.78498866213152	70	127
153.494716553288	153.93591836734694	78	127
153.78498866213152	153.93591836734694	66	127
153.93591836734694	154.3190476190476	80	127
153.93591836734694	154.2145351473923	72	127
154.2145351473923	154.3190476190476	68	127
154.3190476190476	154.7950566893424	58	127
154.3190476190476	154.6208843537415	73	127
154.3190476190476	154.7950566893424	82	127
154.3190476190476	154.7950566893424	65	127
154.6208843537415	154.7950566893424	70	127
154.7950566893424	155.6774149659864	66	127
154.7950566893424	155.21301587301588	78	127
154.7950566893424	155.03886621315192	70	127
154.7950566893424	155.6774149659864	63	127
155.03886621315192	155.21301587301588	66	127
155.21301587301588	155.6774149659864	80	127
155.21301587301588	155.37555555555556	72	127
155.37555555555556	155.6774149659864	68	127
155.6774149659864	156.18825396825397	82	127
155.6774149659864	156.18825396825397	65	127
155.6774149659864	156.18825396825397	58	127
155.6774149659864	155.97927437641724	73	127
155.97927437641724	156.18825396825397	70	127
156.18825396825397	159.16040816326532	65	127
156.18825396825397	157.19832199546485	74	127
156.18825396825397	157.19832199546485	77	127
156.37401360544217	156.60621315192745	55	127
156.60621315192745	156.89646258503402	53	127
156.89646258503402	157.19832199546485	41	127
157.19832199546485	157.67433106575965	75	127
157.19832199546485	157.67433106575965	72	127
157.67433106575965	158.66115646258504	70	127
157.67433106575965	158.66115646258504	74	127
157.86009070294784	158.06907029478458	55	127
158.06907029478458	158.35931972789115	53	127
158.35931972789115	158.66115646258504	41	127
158.66115646258504	159.16040816326532	69	127
158.66115646258504	159.16040816326532	72	127
159.16040816326532	159.70607709750567	46	127
159.16040816326532	159.984716553288	74	127
159.16040816326532	159.70607709750567	70	127
159.40421768707483	159.70607709750567	58	127
159.70607709750567	160.29816326530613	39	127
159.70607709750567	159.984716553288	55	127
159.70607709750567	160.29816326530613	67	127
159.984716553288	160.29816326530613	51	127
159.984716553288	160.29816326530613	72	127
160.29816326530613	160.58843537414967	74	127
160.29816326530613	160.7974149659864	41	127
160.29816326530613	160.7974149659864	69	127
160.58843537414967	160.70451247165533	53	127
160.58843537414967	160.7974149659864	75	127
160.7974149659864	161.54045351473923	74	127
160.7974149659864	161.25020408163266	46	127
160.7974149659864	161.25020408163266	70	127
161.02961451247165	161.25020408163266	58	127
161.25020408163266	161.80748299319728	39	127
161.25020408163266	161.54045351473923	55	127
161.25020408163266	161.80748299319728	67	127
161.54045351473923	161.80748299319728	51	127
161.54045351473923	161.80748299319728	72	127
161.80748299319728	162.41120181405896	69	127
161.80748299319728	162.10934240362812	41	127
161.80748299319728	162.10934240362812	74	127
162.10934240362812	162.41120181405896	42	127
162.10934240362812	162.41120181405896	75	127
162.10934240362812	162.22544217687076	60	127
162.41120181405896	163.27034013605441	59	127
162.41120181405896	162.96848072562358	43	127
162.41120181405896	162.96848072562358	74	127
162.7130612244898	162.96848072562358	71	127
162.96848072562358	163.560589569161	76	127
162.96848072562358	163.560589569161	36	127
162.96848072562358	163.27034013605441	67	127
163.27034013605441	163.560589569161	57	127
163.27034013605441	163.560589569161	64	127
163.560589569161	163.86244897959185	59	127
163.560589569161	164.1526984126984	74	127
163.560589569161	164.1526984126984	38	127
163.86244897959185	163.96693877551022	66	127
163.86244897959185	164.1526984126984	60	127
164.1526984126984	164.74478458049887	74	127
164.1526984126984	164.74478458049887	43	127
164.1526984126984	165.02344671201814	59	127
164.45455782312925	164.74478458049887	71	127
164.74478458049887	165.32530612244898	76	127
164.74478458049887	165.02344671201814	67	127
164.74478458049887	165.32530612244898	48	127
165.02344671201814	165.32530612244898	64	127
165.02344671201814	165.32530612244898	57	127
165.32530612244898	165.62716553287981	59	127
165.32530612244898	165.9754648526077	74	127
165.32530612244898	165.9754648526077	50	127
165.62716553287981	165.9754648526077	60	127
165.62716553287981	165.75487528344672	66	127
165.9754648526077	166.74172335600906	55	127
165.9754648526077	167.05519274376417	74	127
165.9754648526077	167.05519274376417	59	127
165.9754648526077	167.357052154195	67	127
166.74172335600906	167.357052154195	52	127
167.05519274376417	167.34544217687076	72	127
167.05519274376417	167.357052154195	57	127
167.357052154195	168.10009070294785	64	127
167.357052154195	168.10009070294785	48	127
167.357052154195	167.7401814058957	74	127
167.357052154195	167.75179138321997	59	127
167.75179138321997	168.10009070294785	60	127
167.75179138321997	168.08848072562358	76	127
168.10009070294785	169.16820861678005	55	127
168.10009070294785	169.16820861678005	71	127
168.10009070294785	168.8663492063492	52	127
168.10009070294785	168.8663492063492	67	127
168.8663492063492	169.56294784580498	64	127
168.8663492063492	169.56294784580498	48	127
169.16820861678005	169.56294784580498	54	127
169.16820861678005	169.50489795918367	69	127
169.56294784580498	170.17827664399093	60	127
169.56294784580498	170.17827664399093	45	127
169.56294784580498	169.8415873015873	71	127
169.56294784580498	169.8531746031746	55	127
169.8531746031746	170.17827664399093	57	127
169.8531746031746	170.16666666666666	72	127
170.17827664399093	171.71079365079365	50	127
170.17827664399093	171.71079365079365	62	127
170.17827664399093	171.71079365079365	71	127
170.17827664399093	171.0838321995465	54	127
171.0838321995465	171.71079365079365	52	127
171.71079365079365	172.3841723356009	65	127
171.71079365079365	172.3841723356009	60	127
171.71079365079365	172.3841723356009	38	127
171.71079365079365	172.3841723356009	57	127
172.3841723356009	173.33619047619047	59	127
172.3841723356009	173.24331065759637	43	127
172.3841723356009	173.96312925170068	50	127
172.3841723356009	173.66126984126984	67	127
173.33619047619047	173.9282993197279	43	127
173.66126984126984	173.96312925170068	65	127
173.96312925170068	174.2533560090703	67	127
174.2533560090703	174.6597052154195	69	127
174.6597052154195	175.28666666666666	67	127
174.6597052154195	176.5985941043084	43	127
174.6597052154195	175.26344671201815	55	127
174.6597052154195	175.63496598639455	67	127
175.28666666666666	175.93680272108844	55	127
175.63496598639455	175.9716553287982	66	127
175.9716553287982	176.57537414965986	55	127
175.9716553287982	176.2967120181406	67	127
176.2967120181406	176.5985941043084	69	127
176.5985941043084	177.5041723356009	79	127
176.5985941043084	177.17909297052154	55	127
176.5985941043084	176.88884353741497	53	127
176.5985941043084	178.39814058956915	41	127
176.5985941043084	177.20231292517008	67	127
177.20231292517008	177.7828117913832	55	127
177.20231292517008	177.49256235827664	53	127
177.5041723356009	177.80603174603175	78	127
177.80603174603175	178.37492063492064	55	127
177.80603174603175	178.0846485260771	53	127
177.80603174603175	178.10789115646259	79	127
178.10789115646259	178.39814058956915	80	127
178.39814058956915	180.31378684807257	39	127
178.39814058956915	179.37337868480725	67	127
178.39814058956915	179.0134693877551	79	127
178.39814058956915	178.99024943310658	55	127
178.39814058956915	178.69997732426305	51	127
179.0134693877551	179.65201814058958	55	127
179.0134693877551	179.36174603174604	51	127
179.37337868480725	179.6752380952381	66	127
179.6752380952381	180.023537414966	67	127
179.6752380952381	180.29056689342403	55	127
179.6752380952381	180.00031746031746	51	127
180.023537414966	180.31378684807257	68	127
180.31378684807257	180.89426303854876	55	127
180.31378684807257	180.60403628117913	53	127
180.31378684807257	182.11333333333334	38	127
180.31378684807257	180.91750566893424	67	127
180.31378684807257	181.21936507936508	79	127
180.91750566893424	181.2077551020408	53	127
180.91750566893424	181.4980045351474	55	127
181.21936507936508	181.5212244897959	78	127
181.5212244897959	181.8114739229025	53	127
181.5212244897959	182.0901133786848	55	127
181.5212244897959	181.82308390022675	79	127
181.82308390022675	182.11333333333334	80	127
182.11333333333334	184.74879818594104	80	127
182.11333333333334	183.23950113378686	51	127
182.11333333333334	183.23950113378686	63	127
182.11333333333334	182.93764172335602	36	127
182.93764172335602	183.5413605442177	48	127
183.23950113378686	183.5413605442177	50	127
183.23950113378686	183.5413605442177	62	127
183.5413605442177	184.12185941043083	48	127
183.5413605442177	183.84321995464853	51	127
183.5413605442177	183.84321995464853	63	127
183.84321995464853	184.14507936507937	53	127
183.84321995464853	184.14507936507937	65	127
184.14507936507937	185.03902494331066	51	127
184.14507936507937	185.03902494331066	63	127
184.14507936507937	184.72557823129253	47	127
184.74879818594104	185.30607709750566	47	127
184.74879818594104	185.3292970521542	82	127
185.03902494331066	185.3292970521542	62	127
185.03902494331066	185.3292970521542	50	127
185.3292970521542	185.93301587301588	83	127
185.3292970521542	185.63115646258504	63	127
185.3292970521542	185.63115646258504	51	127
185.3292970521542	185.8981859410431	47	127
185.63115646258504	185.93301587301588	53	127
185.63115646258504	185.93301587301588	65	127
185.93301587301588	186.50190476190477	46	127
185.93301587301588	186.82696145124717	50	127
185.93301587301588	186.82696145124717	62	127
185.93301587301588	186.52512471655328	83	127
186.52512471655328	187.01274376417234	46	127
186.52512471655328	187.03596371882085	82	127
186.82696145124717	187.03596371882085	48	127
186.82696145124717	187.03596371882085	60	127
187.03596371882085	187.63968253968255	80	127
187.03596371882085	187.33780045351475	62	127
187.03596371882085	187.60485260770974	46	127
187.03596371882085	187.33780045351475	50	127
187.33780045351475	187.63968253968255	51	127
187.33780045351475	187.63968253968255	63	127
187.63968253968255	188.52204081632652	62	127
187.63968253968255	188.2201814058957	80	127
187.63968253968255	188.52204081632652	50	127
187.63968253968255	188.19696145124718	46	127
188.2201814058957	188.82390022675736	78	127
188.2201814058957	188.80068027210885	46	127
188.52204081632652	188.82390022675736	60	127
188.52204081632652	188.82390022675736	48	127
188.82390022675736	189.42761904761906	77	127
188.82390022675736	189.39278911564625	46	127
188.82390022675736	189.12573696145125	50	127
188.82390022675736	189.12573696145125	62	127
189.12573696145125	189.42761904761906	68	127
189.12573696145125	189.42761904761906	56	127
189.42761904761906	192.69002267573697	66	127
189.42761904761906	191.43614512471655	54	127
189.42761904761906	191.43614512471655	59	127
189.42761904761906	190.42607709750567	75	127
189.42761904761906	190.08938775510205	47	127
190.11260770975056	190.71632653061224	47	127
190.42607709750567	190.7975963718821	74	127
190.7975963718821	191.1110657596372	75	127
190.7975963718821	191.40131519274377	47	127
191.1110657596372	191.43614512471655	76	127
191.43614512471655	192.64358276643992	75	127
191.43614512471655	192.06308390022676	47	127
191.43614512471655	193.29374149659864	54	127
191.43614512471655	193.29374149659864	58	127
192.0863038548753	192.66680272108843	47	127
192.69002267573697	193.2705215419501	73	127
192.69002267573697	193.2705215419501	47	127
192.69002267573697	193.29374149659864	64	127
193.29374149659864	195.32548752834467	59	127
193.29374149659864	195.32548752834467	54	127
193.29374149659864	194.29219954648525	75	127
193.29374149659864	193.94390022675736	47	127
193.29374149659864	196.56775510204082	66	127
193.97873015873017	194.66371882086167	47	127
194.29219954648525	194.69854875283445	74	127
194.69854875283445	195.00040816326532	75	127
194.69854875283445	195.30226757369616	47	127
195.00040816326532	195.32548752834467	76	127
195.32548752834467	197.24113378684808	58	127
195.32548752834467	197.24113378684808	54	127
195.32548752834467	196.52131519274377	75	127
195.32548752834467	195.9408163265306	47	127
195.96403628117915	196.54453514739228	47	127
196.56775510204082	197.21791383219954	73	127
196.56775510204082	197.21791383219954	47	127
196.56775510204082	197.24113378684808	64	127
197.24113378684808	197.83324263038548	75	127
197.24113378684808	197.83324263038548	63	127
197.24113378684808	197.83324263038548	54	127
197.24113378684808	199.07551020408164	47	127
197.86807256235826	198.43696145124716	58	127
197.86807256235826	198.43696145124716	64	127
197.86807256235826	198.43696145124716	73	127
198.4601814058957	199.0522902494331	59	127
198.4601814058957	199.0522902494331	63	127
198.4601814058957	199.0522902494331	71	127
199.07551020408164	199.59795918367348	75	127
199.07551020408164	199.59795918367348	66	127
199.07551020408164	199.59795918367348	54	127
199.07551020408164	200.5267573696145	47	127
199.621179138322	200.20167800453515	73	127
199.621179138322	200.20167800453515	58	127
199.621179138322	200.20167800453515	64	127
200.22489795918366	200.80539682539683	59	127
200.22489795918366	200.80539682539683	63	127
200.22489795918366	200.80539682539683	71	127
200.5267573696145	200.82861678004537	49	127
200.82861678004537	201.38589569161	63	127
200.82861678004537	201.38589569161	58	127
200.82861678004537	204.32321995464852	51	127
200.82861678004537	201.38589569161	79	127
201.42072562358277	201.98961451247166	77	127
201.42072562358277	201.98961451247166	62	127
201.42072562358277	201.98961451247166	68	127
202.01283446712017	202.5701133786848	63	127
202.01283446712017	202.5701133786848	75	127
202.01283446712017	202.5701133786848	67	127
202.59333333333333	203.20866213151928	58	127
202.59333333333333	203.20866213151928	63	127
202.59333333333333	203.20866213151928	79	127
203.24349206349206	203.7659410430839	62	127
203.24349206349206	203.7659410430839	77	127
203.24349206349206	203.7659410430839	68	127
203.78916099773244	204.3	75	127
203.78916099773244	204.3	63	127
203.78916099773244	204.3	67	127
204.32321995464852	206.06471655328798	51	127
204.32321995464852	204.85727891156463	75	127
204.32321995464852	204.85727891156463	67	127
204.32321995464852	204.85727891156463	55	127
204.89210884353741	205.41455782312926	59	127
204.89210884353741	205.41455782312926	65	127
204.89210884353741	205.41455782312926	74	127
205.43777777777777	206.04149659863947	60	127
205.43777777777777	206.04149659863947	63	127
205.43777777777777	206.04149659863947	72	127
206.06471655328798	206.61038548752833	62	127
206.06471655328798	206.61038548752833	67	127
206.06471655328798	207.87587301587303	52	127
206.06471655328798	206.61038548752833	70	127
206.64521541950114	207.26054421768708	60	127
206.64521541950114	207.26054421768708	69	127
206.64521541950114	207.26054421768708	67	127
207.2837641723356	207.8526530612245	70	127
207.2837641723356	207.8526530612245	67	127
207.2837641723356	207.8526530612245	62	127
207.87587301587303	208.15451247165532	72	127
207.87587301587303	208.99043083900227	77	127
207.87587301587303	208.99043083900227	74	127
208.15451247165532	208.24739229024942	70	127
208.24739229024942	208.39832199546484	65	127
208.39832199546484	208.7001814058957	62	127
208.99043083900227	209.2922902494331	58	127
208.99043083900227	209.5709297052154	74	127
208.99043083900227	209.5709297052154	70	127
209.2922902494331	209.5709297052154	62	127
209.5709297052154	210.75514739229024	70	127
209.5709297052154	210.75514739229024	74	127
209.5709297052154	209.84956916099773	67	127
209.84956916099773	210.00049886621315	65	127
210.00049886621315	210.15142857142857	62	127
210.15142857142857	210.46489795918367	58	127
210.75514739229024	211.0221768707483	53	127
210.75514739229024	211.30081632653062	70	127
210.75514739229024	211.30081632653062	65	127
211.0221768707483	211.30081632653062	58	127
211.30081632653062	212.42698412698414	70	127
211.30081632653062	211.57945578231292	63	127
211.30081632653062	212.42698412698414	65	127
211.57945578231292	211.73038548752834	62	127
211.73038548752834	211.88131519274376	58	127
211.88131519274376	212.17156462585035	53	127
212.42698412698414	212.995873015873	62	127
212.42698412698414	212.995873015873	65	127
212.42698412698414	212.70562358276644	50	127
212.70562358276644	212.995873015873	53	127
212.995873015873	213.29773242630387	58	127
212.995873015873	214.15687074829933	65	127
212.995873015873	214.15687074829933	62	127
213.29773242630387	213.44866213151928	57	127
213.44866213151928	213.5995918367347	53	127
213.5995918367347	213.90145124716554	50	127
214.15687074829933	214.73736961451246	63	127
214.15687074829933	214.73736961451246	60	127
214.15687074829933	214.43551020408162	57	127
214.43551020408162	214.73736961451246	53	127
214.73736961451246	215.34108843537416	58	127
214.73736961451246	215.642947845805	62	127
214.73736961451246	215.03922902494332	58	127
215.03922902494332	215.19015873015874	55	127
215.19015873015874	215.34108843537416	57	127
215.34108843537416	216.25827664399094	58	127
215.34108843537416	216.56013605442178	55	127
215.642947845805	215.94480725623583	60	127
215.94480725623583	216.25827664399094	62	127
216.25827664399094	216.56013605442178	57	127
216.25827664399094	216.56013605442178	63	127
216.56013605442178	216.85038548752834	58	127
216.56013605442178	217.1406349206349	58	127
216.56013605442178	217.44249433106575	62	127
216.85038548752834	217.00131519274376	55	127
217.00131519274376	217.1406349206349	57	127
217.1406349206349	218.41773242630384	55	127
217.1406349206349	218.04621315192745	58	127
217.44249433106575	217.7443537414966	60	127
217.7443537414966	218.04621315192745	62	127
218.04621315192745	218.41773242630384	63	127
218.04621315192745	218.41773242630384	57	127
218.41773242630384	219.1259410430839	58	127
218.41773242630384	219.1259410430839	58	127
218.41773242630384	219.71804988662132	62	127
219.1259410430839	219.71804988662132	57	127
219.1259410430839	220.31015873015872	57	127
219.71804988662132	220.31015873015872	53	127
219.71804988662132	220.31015873015872	60	127
220.31015873015872	220.93709750566893	51	127
220.31015873015872	221.56403628117914	58	127
220.93709750566893	221.56403628117914	50	127
224.9425396825397	225.3721088435374	74	127
225.3721088435374	225.85972789115647	77	127
225.85972789115647	226.9742857142857	62	127
225.85972789115647	226.13836734693876	84	127
225.85972789115647	226.9742857142857	65	127
226.13836734693876	226.30090702947845	82	127
226.13836734693876	226.45183673469387	91	127
226.30090702947845	226.45183673469387	77	127
226.45183673469387	226.70725623582766	89	127
226.45183673469387	226.70725623582766	74	127
226.70725623582766	226.9742857142857	82	127
226.9742857142857	227.56639455782312	58	127
226.9742857142857	227.27614512471655	74	127
226.9742857142857	227.56639455782312	62	127
227.27614512471655	227.56639455782312	77	127
227.56639455782312	227.8566439909297	79	127
227.56639455782312	228.72739229024944	58	127
227.56639455782312	228.72739229024944	62	127
227.8566439909297	227.97274376417235	77	127
227.8566439909297	228.12367346938777	87	127
227.97274376417235	228.12367346938777	74	127
228.12367346938777	228.4255328798186	70	127
228.12367346938777	228.4255328798186	86	127
228.4255328798186	228.72739229024944	81	127
228.72739229024944	229.017641723356	70	127
228.72739229024944	229.30789115646257	53	127
228.72739229024944	229.30789115646257	58	127
229.017641723356	229.30789115646257	74	127
229.30789115646257	230.50371882086168	53	127
229.30789115646257	230.50371882086168	58	127
229.30789115646257	229.5865306122449	75	127
229.5865306122449	229.91160997732428	87	127
229.5865306122449	229.76068027210886	74	127
229.76068027210886	229.91160997732428	70	127
229.91160997732428	230.20185941043084	65	127
229.91160997732428	230.20185941043084	86	127
230.20185941043084	230.50371882086168	77	127
230.50371882086168	231.10743764172335	53	127
230.50371882086168	230.81718820861678	65	127
230.50371882086168	231.10743764172335	50	127
230.81718820861678	231.10743764172335	70	127
231.10743764172335	231.42090702947846	72	127
231.10743764172335	232.24521541950114	50	127
231.10743764172335	232.24521541950114	53	127
231.42090702947846	231.66471655328797	84	127
231.42090702947846	231.57183673469387	70	127
231.57183673469387	231.66471655328797	65	127
231.66471655328797	231.95496598639457	82	127
231.66471655328797	231.95496598639457	62	127
231.95496598639457	232.24521541950114	77	127
232.24521541950114	232.54707482993197	63	127
232.24521541950114	232.8257142857143	51	127
232.24521541950114	232.8257142857143	48	127
232.24521541950114	232.54707482993197	79	127
232.54707482993197	232.8257142857143	60	127
232.54707482993197	232.8257142857143	81	127
232.8257142857143	233.70807256235827	50	127
232.8257142857143	233.40621315192743	62	127
232.8257142857143	233.11596371882086	83	127
232.8257142857143	236.4364172335601	43	127
233.11596371882086	233.40621315192743	84	127
233.40621315192743	233.70807256235827	65	127
233.40621315192743	233.70807256235827	83	127
233.70807256235827	234.0099319727891	48	127
233.70807256235827	234.63687074829932	79	127
233.70807256235827	234.0099319727891	63	127
234.0099319727891	234.33501133786848	50	127
234.0099319727891	234.33501133786848	62	127
234.33501133786848	234.63687074829932	60	127
234.33501133786848	234.63687074829932	51	127
234.63687074829932	235.22897959183675	62	127
234.63687074829932	235.53083900226758	50	127
234.63687074829932	234.92712018140588	83	127
234.92712018140588	235.22897959183675	84	127
235.22897959183675	235.53083900226758	83	127
235.22897959183675	235.53083900226758	65	127
235.53083900226758	235.83269841269842	48	127
235.53083900226758	235.83269841269842	63	127
235.53083900226758	236.4364172335601	79	127
235.83269841269842	236.13455782312926	62	127
235.83269841269842	236.13455782312926	50	127
236.13455782312926	236.4364172335601	51	127
236.13455782312926	236.4364172335601	60	127
236.4364172335601	236.87759637188208	59	127
236.4364172335601	236.5873469387755	83	127
236.4364172335601	236.87759637188208	62	127
236.4364172335601	236.87759637188208	50	127
236.4364172335601	238.816462585034	43	127
236.5873469387755	236.73827664399093	84	127
236.73827664399093	236.87759637188208	83	127
236.87759637188208	237.01691609977325	55	127
236.87759637188208	237.01691609977325	79	127
236.87759637188208	237.01691609977325	60	127
236.87759637188208	237.01691609977325	63	127
237.01691609977325	237.16784580498867	83	127
237.01691609977325	237.4697052154195	55	127
237.01691609977325	237.4697052154195	62	127
237.01691609977325	237.4697052154195	59	127
237.16784580498867	237.3187755102041	84	127
237.3187755102041	237.4697052154195	83	127
237.4697052154195	237.62063492063493	55	127
237.4697052154195	237.62063492063493	63	127
237.4697052154195	237.62063492063493	79	127
237.4697052154195	237.62063492063493	60	127
237.62063492063493	238.08503401360545	55	127
237.62063492063493	238.08503401360545	59	127
237.62063492063493	238.08503401360545	62	127
237.62063492063493	237.75995464852608	83	127
237.75995464852608	237.92249433106576	84	127
237.92249433106576	238.08503401360545	83	127
238.08503401360545	238.24757369614514	63	127
238.08503401360545	238.24757369614514	60	127
238.08503401360545	238.24757369614514	55	127
238.08503401360545	238.24757369614514	79	127
238.24757369614514	238.816462585034	59	127
238.24757369614514	238.3868934240363	83	127
238.24757369614514	238.816462585034	62	127
238.24757369614514	238.816462585034	55	127
238.3868934240363	238.51460317460317	84	127
238.51460317460317	238.66553287981858	83	127
238.66553287981858	238.816462585034	79	127
238.816462585034	238.9790022675737	79	127
238.9790022675737	239.08349206349206	81	127
239.08349206349206	239.15315192743765	79	127
239.15315192743765	239.31569160997734	74	127
239.31569160997734	239.44340136054421	74	127
239.44340136054421	239.54789115646258	75	127
239.54789115646258	239.66399092970522	74	127
239.66399092970522	239.81492063492064	71	127
239.81492063492064	240.94108843537416	71	127
239.81492063492064	240.94108843537416	74	127
239.81492063492064	240.07034013605443	69	127
240.07034013605443	240.1980498866213	67	127
240.1980498866213	240.34897959183672	62	127
240.34897959183672	240.65083900226756	59	127
240.94108843537416	241.242947845805	59	127
240.94108843537416	241.54480725623583	67	127
240.94108843537416	241.54480725623583	71	127
241.242947845805	241.54480725623583	62	127
241.54480725623583	242.74063492063493	71	127
241.54480725623583	242.74063492063493	67	127
241.54480725623583	241.84666666666666	63	127
241.84666666666666	241.9859863945578	62	127
241.9859863945578	242.13691609977323	59	127
242.13691609977323	242.45038548752834	55	127
242.74063492063493	243.04249433106577	50	127
242.74063492063493	243.3443537414966	67	127
242.74063492063493	243.3443537414966	62	127
243.04249433106577	243.3443537414966	55	127
243.3443537414966	244.5053514739229	62	127
243.3443537414966	243.6578231292517	60	127
243.3443537414966	244.5053514739229	67	127
243.6578231292517	243.80875283446713	59	127
243.80875283446713	243.9132426303855	55	127
243.9132426303855	244.21510204081633	50	127
244.5053514739229	245.0974603174603	62	127
244.5053514739229	245.0974603174603	55	127
244.5053514739229	245.0974603174603	59	127
244.5053514739229	244.80721088435374	50	127
244.80721088435374	245.0974603174603	55	127
245.0974603174603	246.30489795918368	59	127
245.0974603174603	246.30489795918368	62	127
245.0974603174603	245.4109297052154	60	127
245.0974603174603	246.30489795918368	55	127
245.4109297052154	245.5734693877551	59	127
245.5734693877551	245.71278911564625	55	127
245.71278911564625	246.0146485260771	50	127
246.30489795918368	246.6067573696145	50	127
246.30489795918368	246.90861678004535	59	127
246.30489795918368	246.90861678004535	55	127
246.6067573696145	247.2104761904762	55	127
246.90861678004535	248.08122448979591	60	127
246.90861678004535	248.08122448979591	56	127
247.2104761904762	247.3614058956916	53	127
247.3614058956916	247.50072562358275	48	127
247.50072562358275	247.79097505668935	53	127
248.08122448979591	248.4063038548753	58	127
248.08122448979591	249.27705215419502	65	127
248.08122448979591	249.27705215419502	60	127
248.4063038548753	248.54562358276644	56	127
248.54562358276644	248.6849433106576	53	127
248.6849433106576	248.97519274376418	56	127
249.27705215419502	250.40321995464853	68	127
249.27705215419502	250.40321995464853	65	127
249.27705215419502	249.54408163265308	61	127
249.54408163265308	249.68340136054422	60	127
249.68340136054422	249.82272108843537	56	127
249.82272108843537	250.1245804988662	60	127
250.40321995464853	250.70507936507937	67	127
250.40321995464853	251.51777777777778	72	127
250.40321995464853	251.51777777777778	68	127
250.70507936507937	250.8560090702948	65	127
250.8560090702948	250.97210884353743	60	127
250.97210884353743	251.262358276644	65	127
251.51777777777778	252.63233560090703	72	127
251.51777777777778	252.63233560090703	77	127
251.51777777777778	251.81963718820862	70	127
251.81963718820862	251.95895691609977	68	127
251.95895691609977	252.0750566893424	65	127
252.0750566893424	252.34208616780046	68	127
252.63233560090703	253.65401360544217	80	127
252.63233560090703	253.65401360544217	77	127
252.63233560090703	252.9225850340136	73	127
252.9225850340136	253.03868480725623	72	127
253.03868480725623	253.15478458049887	68	127
253.15478458049887	253.42181405895693	72	127
253.65401360544217	254.838231292517	62	127
253.65401360544217	254.838231292517	70	127
253.65401360544217	254.838231292517	77	127
253.65401360544217	254.838231292517	80	127
254.838231292517	255.14009070294784	67	127
254.838231292517	255.95278911564625	77	127
254.838231292517	255.95278911564625	74	127
254.838231292517	255.95278911564625	70	127
254.838231292517	255.95278911564625	68	127
255.14009070294784	255.29102040816326	65	127
255.29102040816326	255.44195011337868	62	127
255.44195011337868	255.720589569161	58	127
255.95278911564625	257.6710657596372	68	127
255.95278911564625	257.6710657596372	74	127
255.95278911564625	257.6710657596372	65	127
255.95278911564625	257.6710657596372	70	127
256.46362811791386	256.7654875283447	60	127
256.7654875283447	256.9164172335601	58	127
256.9164172335601	257.06734693877553	53	127
257.06734693877553	257.36920634920637	50	127
257.6710657596372	257.96131519274377	65	127
257.6710657596372	258.25156462585034	62	127
257.6710657596372	258.25156462585034	68	127
257.6710657596372	258.25156462585034	70	127
258.2747845804989	258.9017233560091	68	127
258.2747845804989	258.9017233560091	65	127
258.2747845804989	258.9017233560091	62	127
258.2747845804989	258.6114739229025	58	127
258.2747845804989	258.6230612244898	55	127
258.6230612244898	258.7740136054422	53	127
258.7740136054422	258.9249206349206	50	127
258.9249206349206	259.54024943310657	65	127
258.9249206349206	259.22680272108846	46	127
258.9249206349206	259.54024943310657	62	127
258.9249206349206	259.54024943310657	62	127
258.9249206349206	259.2151927437642	56	127
258.9249206349206	259.2151927437642	58	127
259.56349206349205	259.8537188208617	53	127
259.56349206349205	260.13238095238097	62	127
259.56349206349205	260.13238095238097	56	127
259.56349206349205	260.13238095238097	58	127
260.1555782312925	260.7477097505669	56	127
260.1555782312925	260.7477097505669	58	127
260.1555782312925	260.7477097505669	53	127
260.1555782312925	260.4690476190476	51	127
260.4690476190476	260.62	50	127
260.62	260.77090702947845	46	127
260.77090702947845	261.3398185941043	56	127
260.77090702947845	261.36303854875285	50	127
260.77090702947845	261.3398185941043	53	127
260.77090702947845	261.3398185941043	58	127
261.36303854875285	261.943537414966	53	127
261.36303854875285	261.943537414966	56	127
261.36303854875285	261.943537414966	58	127
261.9783673469388	262.54725623582766	53	127
261.9783673469388	262.54725623582766	56	127
261.9783673469388	262.54725623582766	58	127
261.9783673469388	262.28022675736963	51	127
262.28022675736963	262.41954648526075	50	127
262.41954648526075	262.5704761904762	48	127
262.5704761904762	263.18580498866214	50	127
262.5704761904762	263.1625850340136	53	127
262.5704761904762	263.1625850340136	56	127
262.5704761904762	263.1625850340136	58	127
263.18580498866214	263.754693877551	53	127
263.18580498866214	263.754693877551	58	127
263.18580498866214	263.754693877551	56	127
263.7895238095238	264.149410430839	51	127
263.7895238095238	264.4861224489796	58	127
263.7895238095238	264.4861224489796	56	127
263.7895238095238	264.4861224489796	53	127
264.149410430839	264.3003628117914	50	127
264.3003628117914	264.53256235827666	48	127
264.53256235827666	265.18272108843536	58	127
264.53256235827666	265.18272108843536	56	127
264.53256235827666	265.18272108843536	53	127
264.53256235827666	265.18272108843536	50	127
265.18272108843536	265.85609977324265	58	127
265.85609977324265	266.4598185941043	62	127
266.4598185941043	267.0519274376417	65	127
267.0519274376417	267.85301587301586	68	127
267.85301587301586	268.45673469387754	62	127
267.85301587301586	268.45673469387754	72	127
267.85301587301586	268.45673469387754	68	127
268.45673469387754	270.40721088435373	63	127
268.45673469387754	270.40721088435373	70	127
268.45673469387754	270.40721088435373	67	127
269.1068934240363	270.0473015873016	46	127
269.1068934240363	270.0473015873016	55	127
269.1068934240363	270.0473015873016	51	127
269.1068934240363	270.0473015873016	39	127
270.0473015873016	270.40721088435373	39	127
270.0473015873016	270.40721088435373	55	127
270.0473015873016	270.40721088435373	51	127
270.0473015873016	270.40721088435373	46	127
270.40721088435373	271.6378684807256	46	127
270.40721088435373	271.6378684807256	39	127
270.40721088435373	271.6378684807256	55	127
270.40721088435373	271.6378684807256	51	127
271.0457596371882	271.6378684807256	67	127
271.6378684807256	272.229977324263	68	127
271.6378684807256	272.229977324263	72	127
271.6378684807256	272.229977324263	62	127
272.229977324263	274.25011337868483	70	127
272.229977324263	274.25011337868483	63	127
272.229977324263	274.25011337868483	67	127
272.94979591836733	273.95984126984126	46	127
272.94979591836733	273.95984126984126	55	127
272.94979591836733	273.95984126984126	51	127
272.94979591836733	273.95984126984126	39	127
273.95984126984126	274.25011337868483	51	127
273.95984126984126	274.25011337868483	46	127
273.95984126984126	274.25011337868483	39	127
273.95984126984126	274.25011337868483	55	127
274.25011337868483	275.5039909297052	46	127
274.25011337868483	275.5039909297052	39	127
274.25011337868483	275.5039909297052	55	127
274.25011337868483	275.5039909297052	51	127
274.9118820861678	275.5039909297052	67	127
274.9118820861678	275.5039909297052	70	127
275.5039909297052	276.0728798185941	75	127
275.5039909297052	276.0728798185941	66	127
275.5039909297052	276.0728798185941	69	127
276.0728798185941	277.87242630385487	74	127
276.0728798185941	277.87242630385487	67	127
276.0728798185941	277.87242630385487	70	127
276.6649886621315	277.57056689342403	50	127
276.6649886621315	277.57056689342403	55	127
276.6649886621315	277.57056689342403	58	127
276.6649886621315	277.57056689342403	43	127
277.57056689342403	277.87242630385487	50	127
277.57056689342403	277.87242630385487	55	127
277.57056689342403	277.87242630385487	58	127
277.57056689342403	277.87242630385487	43	127
277.87242630385487	279.1611337868481	50	127
277.87242630385487	279.1611337868481	55	127
277.87242630385487	279.1611337868481	58	127
277.87242630385487	279.1611337868481	43	127
278.4993650793651	279.1611337868481	70	127
278.4993650793651	279.1611337868481	67	127
279.1611337868481	279.85773242630387	72	127
279.1611337868481	279.85773242630387	66	127
279.1611337868481	279.85773242630387	75	127
279.85773242630387	281.72691609977323	67	127
279.85773242630387	281.72691609977323	74	127
279.85773242630387	281.72691609977323	70	127
280.46145124716554	281.40185941043086	58	127
280.46145124716554	281.40185941043086	55	127
280.46145124716554	281.40185941043086	50	127
280.46145124716554	281.40185941043086	43	127
281.40185941043086	281.72691609977323	55	127
281.40185941043086	281.72691609977323	43	127
281.40185941043086	281.72691609977323	50	127
281.40185941043086	281.72691609977323	58	127
281.72691609977323	282.3422448979592	43	127
281.72691609977323	282.3422448979592	55	127
281.72691609977323	282.3422448979592	50	127
281.72691609977323	282.3422448979592	58	127
282.3422448979592	283.03886621315195	67	127
282.3422448979592	283.03886621315195	70	127
282.3422448979592	283.03886621315195	74	127
283.03886621315195	283.7354648526077	75	127
283.03886621315195	283.7354648526077	79	127
283.03886621315195	283.7354648526077	69	127
283.7354648526077	284.9312925170068	70	127
283.7354648526077	284.9312925170068	77	127
283.7354648526077	284.9312925170068	74	127
284.3275736961451	285.558231292517	53	127
284.3275736961451	285.558231292517	46	127
284.9312925170068	285.558231292517	65	127
284.9312925170068	285.558231292517	74	127
284.9312925170068	285.558231292517	70	127
285.558231292517	286.7772789115646	65	127
285.558231292517	286.7772789115646	74	127
285.558231292517	286.7772789115646	70	127
286.1851700680272	287.5087074829932	46	127
286.1851700680272	287.5087074829932	53	127
286.7772789115646	287.5087074829932	65	127
286.7772789115646	287.5087074829932	62	127
286.7772789115646	287.5087074829932	70	127
287.5087074829932	288.7625850340136	65	127
287.5087074829932	288.7625850340136	62	127
287.5087074829932	288.7625850340136	70	127
288.1124263038549	289.65655328798186	53	127
288.1124263038549	289.65655328798186	46	127
288.7625850340136	289.65655328798186	62	127
288.7625850340136	289.65655328798186	65	127
288.7625850340136	289.65655328798186	58	127
289.65655328798186	290.8639909297052	62	127
289.65655328798186	290.8639909297052	65	127
289.65655328798186	291.52575963718823	57	127
290.237052154195	291.52575963718823	41	127
290.8639909297052	291.52575963718823	63	127
290.8639909297052	291.52575963718823	60	127
291.52575963718823	292.10625850340136	58	127
291.52575963718823	292.4081179138322	62	127
292.10625850340136	292.7680045351474	55	127
292.4081179138322	292.7680045351474	60	127
292.7680045351474	293.05827664399095	62	127
292.7680045351474	293.3485260770975	57	127
293.05827664399095	293.3485260770975	63	127
293.3485260770975	293.9522448979592	58	127
293.3485260770975	294.25410430839	62	127
293.9522448979592	294.55596371882086	55	127
294.25410430839	294.55596371882086	60	127
294.55596371882086	294.8578231292517	62	127
294.55596371882086	295.15968253968254	57	127
294.8578231292517	295.15968253968254	63	127
295.15968253968254	296.55285714285714	53	127
295.15968253968254	296.55285714285714	62	127
295.15968253968254	295.9259410430839	58	127
295.9259410430839	296.55285714285714	62	127
296.55285714285714	297.1565986394558	60	127
296.55285714285714	297.1565986394558	55	127
296.55285714285714	297.1565986394558	51	127
297.1565986394558	297.783514739229	50	127
297.1565986394558	297.783514739229	58	127
299.30444444444447	300.6163718820862	65	127
299.30444444444447	300.6163718820862	70	127
299.30444444444447	300.6163718820862	74	127
299.9197732426304	301.44068027210886	53	127
300.6163718820862	301.44068027210886	72	127
300.6163718820862	301.44068027210886	63	127
300.6163718820862	301.44068027210886	67	127
301.44068027210886	302.71777777777777	65	127
301.44068027210886	302.71777777777777	70	127
301.44068027210886	302.71777777777777	58	127
301.44068027210886	302.71777777777777	62	127
303.48403628117916	304.7495238095238	65	127
303.48403628117916	304.7495238095238	70	127
303.48403628117916	304.7495238095238	74	127
303.48403628117916	303.6001360544218	82	127
303.79750566893426	303.90199546485263	86	127
304.0993650793651	304.2386848072562	89	127
304.4360544217687	304.4708843537415	86	127
304.7495238095238	305.3532199546485	69	127
304.7495238095238	305.3532199546485	63	127
304.7495238095238	304.86562358276643	93	127
304.7495238095238	305.3532199546485	72	127
305.05138321995463	305.3532199546485	89	127
305.3532199546485	305.4693424036281	94	127
305.3532199546485	305.9221315192744	65	127
305.3532199546485	305.9221315192744	62	127
305.3532199546485	305.9221315192744	70	127
305.6434920634921	305.7595691609977	82	127
305.9221315192744	306.479410430839	69	127
305.9221315192744	306.038231292517	86	127
305.9221315192744	306.479410430839	62	127
305.9221315192744	306.479410430839	66	127
305.9221315192744	306.479410430839	60	127
306.21238095238095	306.479410430839	81	127
306.479410430839	307.0482993197279	67	127
306.479410430839	307.0482993197279	62	127
306.479410430839	307.0482993197279	58	127
306.479410430839	306.57226757369614	91	127
306.74643990929707	307.0482993197279	79	127
307.0482993197279	307.35015873015874	82	127
307.0482993197279	307.6520181405896	65	127
307.0482993197279	307.6520181405896	62	127
307.0482993197279	307.6520181405896	54	127
307.0482993197279	308.244126984127	58	127
307.35015873015874	307.6520181405896	77	127
307.6520181405896	308.244126984127	63	127
307.6520181405896	308.244126984127	55	127
307.6520181405896	307.7681179138322	87	127
307.6520181405896	308.244126984127	63	127
307.9654875283447	308.244126984127	75	127
308.244126984127	308.88267573696146	59	127
308.244126984127	308.88267573696146	53	127
308.244126984127	308.5808163265306	79	127
308.244126984127	308.88267573696146	62	127
308.244126984127	309.5444217687075	55	127
308.5808163265306	308.88267573696146	74	127
308.88267573696146	309.5444217687075	51	127
308.88267573696146	308.9987755102041	84	127
308.88267573696146	309.5444217687075	60	127
309.2309523809524	309.34707482993196	72	127
309.5444217687075	310.1829931972789	59	127
309.5444217687075	309.67215419501133	86	127
309.5444217687075	309.88113378684807	55	127
309.5444217687075	310.1829931972789	65	127
309.5444217687075	310.20621315192744	50	127
309.89274376417234	310.0320634920635	74	127
310.20621315192744	310.33392290249435	87	127
310.20621315192744	310.5429024943311	55	127
310.20621315192744	311.1350113378685	48	127
310.20621315192744	311.01891156462585	60	127
310.20621315192744	311.01891156462585	63	127
310.55448979591836	310.8099319727891	75	127
311.1350113378685	313.3060770975057	58	127
311.1350113378685	313.3060770975057	62	127
311.1350113378685	313.3060770975057	89	127
311.1350113378685	313.3060770975057	53	127
311.1350113378685	313.3060770975057	53	127
313.9794557823129	315.349433106576	81	127
313.9794557823129	315.349433106576	41	127
313.9794557823129	315.349433106576	53	127
313.9794557823129	315.349433106576	60	127
313.9794557823129	315.349433106576	63	127
315.9415419501134	316.719410430839	82	127
315.9415419501134	316.719410430839	62	127
315.9415419501134	316.719410430839	58	127
315.9415419501134	316.719410430839	53	127
315.9415419501134	317.3579591836735	46	127
316.719410430839	317.3579591836735	77	127
317.3579591836735	317.9732879818594	74	127
317.9732879818594	321.8278004535147	65	127
317.9732879818594	321.2008616780045	63	127
317.9732879818594	318.6002267573696	75	127
317.9732879818594	319.8656916099773	59	127
318.6002267573696	318.90208616780046	53	127
318.6002267573696	319.5290249433107	68	127
318.91369614512473	319.22716553287984	47	127
319.2387755102041	319.5174149659864	51	127
319.5290249433107	319.8656916099773	68	127
319.5290249433107	319.85410430839005	44	127
319.8656916099773	321.2008616780045	60	127
319.8656916099773	320.57390022675736	68	127
320.57390022675736	320.8757823129252	47	127
320.57390022675736	321.2008616780045	70	127
320.88736961451247	321.1892290249433	41	127
321.2008616780045	321.8278004535147	63	127
321.2008616780045	321.49111111111114	45	127
321.2008616780045	321.8278004535147	71	127
321.5143310657596	321.81619047619046	39	127
321.8278004535147	322.48956916099775	70	127
321.8278004535147	322.4663492063492	46	127
321.8278004535147	322.48956916099775	62	127
322.48956916099775	323.1861678004535	65	127
323.1861678004535	323.80149659863946	62	127
323.80149659863946	326.25120181405896	59	127
323.80149659863946	326.9013605442177	53	127
323.80149659863946	326.25120181405896	63	127
323.80149659863946	324.40521541950113	63	127
324.40521541950113	324.6954648526077	89	127
324.40521541950113	325.3340136054422	56	127
324.70707482993197	324.99732426303854	83	127
325.0089342403628	325.3224036281179	87	127
325.3340136054422	325.635873015873	56	127
325.3340136054422	325.635873015873	80	127
325.635873015873	326.25120181405896	56	127
326.25120181405896	326.87814058956917	63	127
326.25120181405896	326.9013605442177	58	127
326.25120181405896	326.57628117913833	58	127
326.25120181405896	326.57628117913833	82	127
326.5878911564626	326.88975056689344	77	127
326.9013605442177	327.20321995464855	57	127
326.9013605442177	327.48185941043084	63	127
326.9013605442177	327.20321995464855	81	127
326.9013605442177	327.5050793650794	59	127
326.9013605442177	327.5050793650794	53	127
327.2148299319728	327.4934693877551	77	127
327.5050793650794	328.1320181405896	58	127
327.5050793650794	328.1320181405896	58	127
327.5050793650794	328.1320181405896	62	127
327.5050793650794	328.1320181405896	58	127
327.5050793650794	328.1320181405896	82	127
329.6877551020408	330.27986394557826	69	127
329.6877551020408	331.4524716553288	65	127
329.6877551020408	331.4524716553288	75	127
330.27986394557826	330.8951927437642	70	127
330.27986394557826	330.4075736961451	84	127
330.59331065759636	330.70943310657594	77	127
330.8951927437642	331.4524716553288	72	127
330.8951927437642	330.99968253968257	81	127
331.1622222222222	331.27832199546486	77	127
331.4524716553288	332.0445804988662	82	127
331.4524716553288	332.0445804988662	74	127
331.4524716553288	332.0445804988662	70	127
331.4524716553288	332.0445804988662	58	127
333.19396825396825	334.1692063492064	72	127
333.19396825396825	334.1692063492064	63	127
333.19396825396825	334.1692063492064	57	127
333.19396825396825	334.1692063492064	48	127
333.19396825396825	334.1692063492064	41	127
333.19396825396825	334.1692063492064	81	127
334.1692063492064	334.4826530612245	78	127
334.1692063492064	334.4826530612245	66	127
334.4826530612245	334.7961224489796	60	127
334.4826530612245	334.7961224489796	72	127
334.7961224489796	335.17927437641725	63	127
334.7961224489796	335.17927437641725	75	127
335.17927437641725	335.5275736961451	57	127
335.17927437641725	335.5275736961451	69	127
335.5275736961451	336.1312925170068	70	127
335.5275736961451	336.1312925170068	82	127
335.5275736961451	336.1312925170068	62	127
335.5275736961451	336.1312925170068	62	127
335.5275736961451	336.1312925170068	58	127
335.5275736961451	336.1312925170068	53	127
335.5275736961451	336.1312925170068	46	127
338.31396825396826	339.48657596371885	74	127
338.31396825396826	339.48657596371885	77	127
338.31396825396826	338.8944671201814	72	127
338.8944671201814	339.4633560090703	46	127
338.8944671201814	339.48657596371885	70	127
338.8944671201814	340.2760544217687	53	127
339.48657596371885	340.33410430839	74	127
339.48657596371885	340.33410430839	70	127
339.48657596371885	340.33410430839	69	127
340.33410430839	340.9610430839002	67	127
340.33410430839	341.5647619047619	74	127
340.33410430839	341.5647619047619	70	127
340.9610430839002	341.5415192743764	46	127
340.9610430839002	341.5647619047619	66	127
340.9610430839002	342.21492063492065	53	127
341.5647619047619	342.27297052154194	65	127
341.5647619047619	342.27297052154194	70	127
341.5647619047619	342.27297052154194	67	127
342.27297052154194	343.7009977324263	70	127
342.27297052154194	343.7009977324263	67	127
342.27297052154194	343.0043990929705	64	127
343.0043990929705	344.2698866213152	53	127
343.0043990929705	343.7009977324263	63	127
343.0043990929705	343.6777777777778	46	127
343.7009977324263	344.3279365079365	65	127
343.7009977324263	344.3279365079365	62	127
344.3279365079365	344.9548752834467	64	127
344.3279365079365	344.9548752834467	61	127
344.3279365079365	345.5585941043084	65	127
344.9548752834467	345.53537414965984	46	127
344.9548752834467	345.5585941043084	60	127
344.9548752834467	346.2203628117914	53	127
344.9548752834467	345.5585941043084	63	127
345.5585941043084	346.2668027210884	58	127
345.5585941043084	346.2668027210884	62	127
346.2668027210884	347.5903401360544	61	127
346.2668027210884	348.3101587301587	57	127
346.2668027210884	348.3101587301587	41	127
346.2668027210884	346.951768707483	53	127
346.951768707483	347.5903401360544	52	127
347.5903401360544	348.3101587301587	51	127
347.5903401360544	348.3101587301587	60	127
348.3101587301587	348.97192743764174	53	127
348.3101587301587	349.4479365079365	58	127
348.3101587301587	348.97192743764174	50	127
348.3101587301587	350.46961451247165	46	127
348.3101587301587	348.97192743764174	58	127
348.97192743764174	350.46961451247165	55	127
348.97192743764174	350.46961451247165	51	127
349.4479365079365	349.78462585034015	57	127
349.78462585034015	350.1212925170068	58	127
350.1212925170068	350.46961451247165	60	127
350.46961451247165	351.13138321995467	53	127
350.46961451247165	351.13138321995467	50	127
350.46961451247165	351.46807256235826	58	127
350.46961451247165	352.95414965986396	46	127
351.13138321995467	352.95414965986396	51	127
351.13138321995467	352.95414965986396	54	127
351.46807256235826	351.79315192743763	57	127
351.79315192743763	352.3968707482993	58	127
352.3968707482993	352.95414965986396	60	127
352.95414965986396	354.5331065759637	46	127
352.95414965986396	354.5331065759637	53	127
352.95414965986396	363.7281859410431	58	127
352.95414965986396	354.5331065759637	50	127
355.2412925170068	356.71578231292517	53	127
355.2412925170068	356.71578231292517	46	127
355.2412925170068	356.71578231292517	50	127
357.91160997732425	363.7281859410431	46	127
357.91160997732425	363.7281859410431	53	127
357.91160997732425	363.7281859410431	62	127
361.650022675737	363.7281859410431	65	127
361.650022675737	363.7281859410431	74	127
