# onset,offset,note,velocity
0.20820861678004535	0.2546258503401361	77	127
0.32430839002267575	0.3707482993197279	79	127
0.4984580498866213	1.8800453514739228	56	127
0.4984580498866213	0.5332879818594104	80	127
0.4984580498866213	1.1602267573696146	60	127
0.4984580498866213	1.1602267573696146	41	127
0.6029251700680273	0.6493877551020408	77	127
0.707437641723356	0.7538775510204082	74	127
0.8235374149659864	0.8699773242630385	72	127
0.9512471655328798	1.6594557823129252	46	127
0.9512471655328798	1.6594557823129252	62	127
0.9512471655328798	0.986077097505669	68	127
1.0673469387755101	1.1137868480725623	67	127
1.1834467120181407	1.2298866213151927	65	127
1.311156462585034	1.3575963718820863	72	127
1.4388662131519274	1.5433560090702947	70	127
1.4388662131519274	2.147074829931973	63	127
1.4388662131519274	2.3908843537414968	55	127
1.4388662131519274	2.3908843537414968	39	127
1.6826757369614513	2.170294784580499	67	127
2.170294784580499	2.2747845804988662	67	127
2.170294784580499	2.2747845804988662	58	127
2.2747845804988662	2.3908843537414968	61	127
2.2747845804988662	2.3908843537414968	70	127
2.3908843537414968	2.4837641723356008	60	127
2.3908843537414968	2.4837641723356008	68	127
2.3908843537414968	3.0526530612244898	53	127
2.3908843537414968	3.0526530612244898	44	127
2.6114512471655327	2.7275736961451247	58	127
2.6114512471655327	2.7275736961451247	67	127
2.878503401360544	3.2848526077097504	50	127
2.878503401360544	3.3080725623582765	56	127
2.878503401360544	3.3080725623582765	65	127
2.878503401360544	3.5518820861678004	46	127
3.3080725623582765	4.271700680272109	39	127
3.3080725623582765	3.5634920634920637	51	127
3.3080725623582765	3.807301587301587	55	127
3.3080725623582765	3.807301587301587	63	127
3.5751020408163265	3.807301587301587	55	127
3.807301587301587	4.039501133786848	55	127
3.807301587301587	4.260090702947846	58	127
4.051111111111111	4.1439909297052155	77	127
4.051111111111111	4.271700680272109	63	127
4.051111111111111	4.271700680272109	58	127
4.1439909297052155	4.271700680272109	79	127
4.271700680272109	4.387800453514739	80	127
4.271700680272109	4.724467120181406	60	127
4.271700680272109	4.724467120181406	41	127
4.271700680272109	5.177278911564626	56	127
4.387800453514739	4.50390022675737	77	127
4.50390022675737	4.62	74	127
4.62	4.7477097505668935	72	127
4.7477097505668935	4.863809523809524	68	127
4.7477097505668935	5.2004761904761905	62	127
4.7477097505668935	5.2004761904761905	46	127
4.863809523809524	4.979909297052155	67	127
4.979909297052155	5.107619047619048	65	127
5.107619047619048	5.212108843537415	72	127
5.212108843537415	5.444308390022676	70	127
5.212108843537415	5.65328798185941	39	127
5.212108843537415	5.676507936507937	55	127
5.212108843537415	5.908707482993197	63	127
5.444308390022676	5.908707482993197	67	127
5.676507936507937	6.1525170068027215	51	127
5.676507936507937	6.1525170068027215	36	127
5.908707482993197	6.024807256235827	63	127
5.908707482993197	6.024807256235827	72	127
6.0364172335600905	6.1525170068027215	72	127
6.0364172335600905	6.1525170068027215	75	127
6.1525170068027215	6.245396825396825	70	127
6.1525170068027215	6.245396825396825	74	127
6.1525170068027215	6.396326530612245	50	127
6.1525170068027215	7.081315192743764	38	127
6.396326530612245	6.442766439909297	69	127
6.396326530612245	6.442766439909297	72	127
6.396326530612245	6.6401360544217685	62	127
6.524036281179138	6.558866213151927	67	127
6.524036281179138	6.558866213151927	70	127
6.6401360544217685	6.895555555555555	50	127
6.6401360544217685	7.127755102040816	66	127
6.6401360544217685	7.127755102040816	69	127
6.895555555555555	7.127755102040816	60	127
7.127755102040816	7.429614512471655	58	127
7.127755102040816	7.685034013605442	58	127
7.127755102040816	7.685034013605442	62	127
7.127755102040816	7.685034013605442	67	127
7.127755102040816	7.685034013605442	43	127
7.429614512471655	7.487664399092971	58	127
7.568934240362812	7.603764172335601	57	127
7.685034013605442	7.7779138321995465	55	127
7.917233560090703	7.963673469387755	77	127
8.044920634920635	8.079773242630386	79	127
8.161043083900227	8.20748299319728	80	127
8.161043083900227	8.892471655328798	60	127
8.161043083900227	8.892471655328798	41	127
8.161043083900227	9.565827664399093	56	127
8.277142857142858	8.323582766439909	77	127
8.393219954648526	8.43968253968254	74	127
8.567392290249433	8.602222222222222	72	127
8.683492063492064	8.729931972789116	68	127
8.683492063492064	9.368480725623582	62	127
8.683492063492064	9.368480725623582	46	127
8.799591836734693	8.846031746031747	67	127
8.904081632653062	8.950521541950113	65	127
9.031791383219955	9.066621315192744	72	127
9.147891156462585	10.099909297052154	55	127
9.147891156462585	10.099909297052154	39	127
9.147891156462585	9.240770975056689	70	127
9.147891156462585	9.844489795918367	63	127
9.380090702947847	9.856099773242631	67	127
9.856099773242631	9.97219954648526	67	127
9.856099773242631	9.983809523809525	58	127
9.983809523809525	10.099909297052154	61	127
9.983809523809525	10.099909297052154	70	127
10.099909297052154	10.192789115646258	60	127
10.099909297052154	10.192789115646258	68	127
10.099909297052154	10.773265306122449	53	127
10.099909297052154	10.773265306122449	44	127
10.320498866213152	10.436598639455783	58	127
10.320498866213152	10.436598639455783	67	127
10.575918367346938	10.993854875283446	50	127
10.575918367346938	11.017097505668934	56	127
10.575918367346938	11.017097505668934	65	127
10.575918367346938	11.237687074829932	46	127
11.017097505668934	11.249274376417233	51	127
11.017097505668934	11.481496598639456	55	127
11.017097505668934	11.481496598639456	63	127
11.017097505668934	11.980725623582767	39	127
11.249274376417233	11.481496598639456	55	127
11.481496598639456	11.748526077097505	55	127
11.481496598639456	11.969115646258503	58	127
11.748526077097505	11.876235827664399	77	127
11.748526077097505	11.980725623582767	63	127
11.748526077097505	11.980725623582767	58	127
11.876235827664399	11.980725623582767	79	127
11.980725623582767	12.096825396825396	80	127
11.980725623582767	12.445124716553288	60	127
11.980725623582767	12.445124716553288	41	127
11.980725623582767	12.90952380952381	56	127
12.096825396825396	12.212925170068027	77	127
12.212925170068027	12.34063492063492	74	127
12.34063492063492	12.468344671201814	72	127
12.468344671201814	12.584444444444445	68	127
12.468344671201814	12.921133786848072	62	127
12.468344671201814	12.921133786848072	46	127
12.584444444444445	12.723764172335601	67	127
12.723764172335601	12.839863945578232	65	127
12.839863945578232	12.944353741496599	72	127
12.944353741496599	13.211383219954648	70	127
12.944353741496599	13.385532879818594	39	127
12.944353741496599	13.397142857142857	55	127
12.944353741496599	13.629342403628119	63	127
13.211383219954648	13.629342403628119	67	127
13.397142857142857	13.861541950113379	51	127
13.397142857142857	13.861541950113379	36	127
13.629342403628119	13.733832199546486	63	127
13.629342403628119	13.733832199546486	72	127
13.745442176870748	13.861541950113379	72	127
13.745442176870748	13.861541950113379	75	127
13.861541950113379	13.954421768707483	70	127
13.861541950113379	13.954421768707483	74	127
13.861541950113379	14.105351473922903	50	127
13.861541950113379	14.732290249433106	38	127
14.105351473922903	14.140181405895692	69	127
14.105351473922903	14.140181405895692	72	127
14.105351473922903	14.314331065759637	62	127
14.20984126984127	14.256281179138321	67	127
14.20984126984127	14.256281179138321	70	127
14.314331065759637	14.546530612244897	50	127
14.314331065759637	14.767120181405895	66	127
14.314331065759637	14.767120181405895	69	127
14.546530612244897	14.767120181405895	60	127
14.767120181405895	15.022539682539682	58	127
14.767120181405895	15.254739229024944	58	127
14.767120181405895	15.254739229024944	62	127
14.767120181405895	15.254739229024944	67	127
14.767120181405895	15.254739229024944	43	127
15.022539682539682	15.057369614512472	58	127
15.138639455782313	15.185079365079366	57	127
15.254739229024944	15.347619047619048	55	127
15.51015873015873	15.54498866213152	67	127
15.51015873015873	15.54498866213152	70	127
15.62625850340136	15.672698412698413	68	127
15.62625850340136	15.672698412698413	72	127
15.74235827664399	15.846848072562358	73	127
15.74235827664399	15.97455782312925	70	127
15.74235827664399	15.97455782312925	36	127
15.846848072562358	15.97455782312925	70	127
15.97455782312925	16.090657596371884	67	127
15.97455782312925	16.450566893424035	70	127
16.090657596371884	16.20673469387755	65	127
16.20673469387755	16.322857142857142	64	127
16.20673469387755	16.450566893424035	48	127
16.322857142857142	16.450566893424035	65	127
16.450566893424035	16.485396825396826	58	127
16.450566893424035	16.555056689342404	67	127
16.450566893424035	16.659546485260773	64	127
16.555056689342404	16.601496598639457	60	127
16.555056689342404	16.659546485260773	68	127
16.659546485260773	16.752426303854875	61	127
16.659546485260773	16.868526077097506	67	127
16.659546485260773	16.868526077097506	70	127
16.659546485260773	16.868526077097506	41	127
16.752426303854875	16.868526077097506	60	127
16.868526077097506	16.984625850340137	56	127
16.868526077097506	17.321315192743764	65	127
16.868526077097506	17.321315192743764	68	127
16.984625850340137	17.100702947845804	55	127
17.100702947845804	17.216825396825396	53	127
17.216825396825396	17.321315192743764	55	127
17.321315192743764	17.425804988662133	67	127
17.321315192743764	17.425804988662133	56	127
17.321315192743764	17.425804988662133	70	127
17.321315192743764	17.530294784580498	53	127
17.425804988662133	17.530294784580498	68	127
17.425804988662133	17.530294784580498	60	127
17.425804988662133	17.530294784580498	72	127
17.530294784580498	17.64639455782313	73	127
17.530294784580498	17.774104308390022	70	127
17.530294784580498	17.774104308390022	52	127
17.530294784580498	17.774104308390022	36	127
17.64639455782313	17.774104308390022	70	127
17.774104308390022	17.890204081632653	67	127
17.774104308390022	18.25011337868481	70	127
17.890204081632653	18.006303854875284	65	127
18.006303854875284	18.122403628117915	64	127
18.006303854875284	18.25011337868481	48	127
18.122403628117915	18.25011337868481	65	127
18.25011337868481	18.366190476190475	58	127
18.25011337868481	18.366190476190475	67	127
18.25011337868481	18.482312925170067	64	127
18.366190476190475	18.482312925170067	60	127
18.366190476190475	18.482312925170067	68	127
18.482312925170067	18.71451247165533	70	127
18.482312925170067	18.71451247165533	41	127
18.482312925170067	18.598412698412698	61	127
18.482312925170067	18.71451247165533	67	127
18.598412698412698	18.71451247165533	60	127
18.71451247165533	18.80736961451247	56	127
18.71451247165533	19.144081632653062	65	127
18.71451247165533	19.144081632653062	68	127
18.80736961451247	18.923492063492063	55	127
18.923492063492063	19.01637188208617	53	127
19.01637188208617	19.144081632653062	55	127
19.144081632653062	19.236961451247165	65	127
19.144081632653062	19.236961451247165	56	127
19.144081632653062	19.236961451247165	68	127
19.144081632653062	19.341451247165534	53	127
19.236961451247165	19.341451247165534	67	127
19.236961451247165	19.341451247165534	60	127
19.236961451247165	19.341451247165534	70	127
19.341451247165534	19.457551020408165	71	127
19.341451247165534	19.585260770975058	68	127
19.341451247165534	19.585260770975058	50	127
19.341451247165534	19.585260770975058	46	127
19.457551020408165	19.585260770975058	68	127
19.585260770975058	19.701337868480724	65	127
19.585260770975058	20.06126984126984	68	127
19.701337868480724	19.829070294784582	63	127
19.829070294784582	19.94517006802721	62	127
19.829070294784582	20.06126984126984	58	127
19.94517006802721	20.06126984126984	63	127
20.06126984126984	20.200589569160996	56	127
20.06126984126984	20.200589569160996	65	127
20.06126984126984	20.316689342403627	62	127
20.200589569160996	20.316689342403627	58	127
20.200589569160996	20.316689342403627	67	127
20.316689342403627	20.44439909297052	59	127
20.316689342403627	20.560498866213152	65	127
20.316689342403627	20.560498866213152	68	127
20.316689342403627	20.560498866213152	51	127
20.44439909297052	20.560498866213152	58	127
20.560498866213152	20.676598639455783	55	127
20.560498866213152	21.01328798185941	63	127
20.560498866213152	21.01328798185941	67	127
20.676598639455783	20.78108843537415	53	127
20.78108843537415	20.908798185941045	51	127
20.908798185941045	21.01328798185941	53	127
21.01328798185941	21.12938775510204	65	127
21.01328798185941	21.12938775510204	55	127
21.01328798185941	21.12938775510204	68	127
21.01328798185941	21.245487528344672	51	127
21.12938775510204	21.245487528344672	67	127
21.12938775510204	21.245487528344672	58	127
21.12938775510204	21.245487528344672	70	127
21.245487528344672	21.373197278911565	71	127
21.245487528344672	21.489297052154196	68	127
21.245487528344672	21.489297052154196	50	127
21.245487528344672	21.489297052154196	46	127
21.373197278911565	21.489297052154196	68	127
21.489297052154196	21.675056689342405	65	127
21.489297052154196	22.023356009070294	68	127
21.675056689342405	21.8027664399093	63	127
21.8027664399093	21.930476190476192	62	127
21.930476190476192	22.023356009070294	63	127
22.023356009070294	22.139455782312925	56	127
22.023356009070294	22.139455782312925	65	127
22.023356009070294	22.243945578231294	62	127
22.023356009070294	22.243945578231294	46	127
22.139455782312925	22.243945578231294	58	127
22.139455782312925	22.243945578231294	67	127
22.243945578231294	22.371655328798187	59	127
22.243945578231294	22.46453514739229	65	127
22.243945578231294	22.46453514739229	68	127
22.243945578231294	22.46453514739229	51	127
22.371655328798187	22.46453514739229	58	127
22.46453514739229	22.56902494331066	55	127
22.46453514739229	22.894104308390023	63	127
22.46453514739229	22.894104308390023	67	127
22.56902494331066	22.673514739229024	53	127
22.673514739229024	22.801224489795917	51	127
22.801224489795917	22.894104308390023	53	127
22.894104308390023	22.986984126984126	65	127
22.894104308390023	22.986984126984126	55	127
22.894104308390023	22.986984126984126	68	127
22.894104308390023	23.091473922902495	51	127
22.986984126984126	23.091473922902495	67	127
22.986984126984126	23.091473922902495	58	127
22.986984126984126	23.091473922902495	70	127
23.091473922902495	23.207573696145126	68	127
23.091473922902495	23.207573696145126	50	127
23.091473922902495	23.207573696145126	71	127
23.091473922902495	23.323673469387757	46	127
23.207573696145126	23.323673469387757	67	127
23.207573696145126	23.323673469387757	51	127
23.207573696145126	23.323673469387757	70	127
23.323673469387757	23.439750566893423	65	127
23.323673469387757	23.439750566893423	53	127
23.323673469387757	23.439750566893423	68	127
23.439750566893423	23.555873015873015	56	127
23.439750566893423	23.555873015873015	65	127
23.555873015873015	23.68358276643991	59	127
23.555873015873015	23.68358276643991	62	127
23.68358276643991	23.79968253968254	56	127
23.68358276643991	23.79968253968254	65	127
23.79968253968254	23.91578231292517	65	127
23.79968253968254	23.91578231292517	53	127
23.79968253968254	23.91578231292517	68	127
23.79968253968254	24.0318820861678	46	127
23.91578231292517	24.0318820861678	67	127
23.91578231292517	24.0318820861678	51	127
23.91578231292517	24.0318820861678	70	127
24.0318820861678	24.147981859410432	68	127
24.0318820861678	24.147981859410432	50	127
24.0318820861678	24.147981859410432	71	127
24.0318820861678	24.26408163265306	46	127
24.147981859410432	24.26408163265306	67	127
24.147981859410432	24.26408163265306	51	127
24.147981859410432	24.26408163265306	70	127
24.26408163265306	24.391791383219953	65	127
24.26408163265306	24.391791383219953	53	127
24.26408163265306	24.391791383219953	68	127
24.391791383219953	24.507891156462584	56	127
24.391791383219953	24.507891156462584	65	127
24.507891156462584	24.635600907029477	59	127
24.507891156462584	24.635600907029477	62	127
24.635600907029477	24.76331065759637	56	127
24.635600907029477	24.76331065759637	65	127
24.76331065759637	24.879410430839002	65	127
24.76331065759637	24.879410430839002	53	127
24.76331065759637	24.879410430839002	68	127
24.76331065759637	24.995510204081633	46	127
24.879410430839002	24.995510204081633	67	127
24.879410430839002	24.995510204081633	51	127
24.879410430839002	24.995510204081633	70	127
24.995510204081633	25.123219954648526	68	127
24.995510204081633	25.123219954648526	50	127
24.995510204081633	25.123219954648526	71	127
24.995510204081633	25.239319727891157	46	127
25.123219954648526	25.239319727891157	67	127
25.123219954648526	25.239319727891157	51	127
25.123219954648526	25.239319727891157	70	127
25.239319727891157	25.355419501133788	65	127
25.239319727891157	25.355419501133788	53	127
25.239319727891157	25.355419501133788	68	127
25.355419501133788	25.506349206349206	62	127
25.355419501133788	25.506349206349206	56	127
25.355419501133788	25.506349206349206	65	127
25.506349206349206	25.645668934240362	68	127
25.506349206349206	25.645668934240362	50	127
25.506349206349206	25.645668934240362	71	127
25.506349206349206	25.761768707482993	46	127
25.645668934240362	25.761768707482993	67	127
25.645668934240362	25.761768707482993	51	127
25.645668934240362	25.761768707482993	70	127
25.761768707482993	25.877868480725624	65	127
25.761768707482993	25.877868480725624	53	127
25.761768707482993	25.877868480725624	68	127
25.877868480725624	25.993968253968255	62	127
25.877868480725624	25.993968253968255	56	127
25.877868480725624	25.993968253968255	65	127
25.993968253968255	26.13328798185941	68	127
25.993968253968255	26.13328798185941	50	127
25.993968253968255	26.13328798185941	71	127
25.993968253968255	26.249387755102042	46	127
26.13328798185941	26.249387755102042	67	127
26.13328798185941	26.249387755102042	51	127
26.13328798185941	26.249387755102042	70	127
26.249387755102042	26.365487528344673	65	127
26.249387755102042	26.365487528344673	53	127
26.249387755102042	26.365487528344673	68	127
26.365487528344673	26.493197278911566	62	127
26.365487528344673	26.493197278911566	56	127
26.365487528344673	26.493197278911566	65	127
26.493197278911566	26.62090702947846	68	127
26.493197278911566	26.62090702947846	50	127
26.493197278911566	26.62090702947846	71	127
26.493197278911566	26.737006802721087	46	127
26.62090702947846	26.737006802721087	67	127
26.62090702947846	26.737006802721087	51	127
26.62090702947846	26.737006802721087	70	127
26.737006802721087	26.89954648526077	65	127
26.737006802721087	26.89954648526077	53	127
26.737006802721087	26.89954648526077	68	127
26.89954648526077	27.015646258503402	62	127
26.89954648526077	27.015646258503402	56	127
26.89954648526077	27.015646258503402	65	127
27.015646258503402	27.561315192743763	68	127
27.015646258503402	27.561315192743763	50	127
27.015646258503402	27.561315192743763	71	127
27.015646258503402	27.561315192743763	46	127
27.561315192743763	29.22154195011338	70	127
27.561315192743763	29.337641723356008	62	127
27.561315192743763	29.337641723356008	56	127
27.561315192743763	29.337641723356008	53	127
29.22154195011338	29.337641723356008	72	127
29.337641723356008	29.45374149659864	70	127
29.45374149659864	29.581451247165532	69	127
29.581451247165532	29.720770975056688	70	127
29.720770975056688	29.83687074829932	72	127
29.83687074829932	29.964580498866212	74	127
29.964580498866212	30.103900226757368	75	127
30.103900226757368	30.22	77	127
30.22	30.33609977324263	75	127
30.33609977324263	30.45219954648526	74	127
30.45219954648526	30.591519274376417	72	127
30.591519274376417	30.730839002267572	74	127
30.730839002267572	30.82371882086168	75	127
30.82371882086168	30.93981859410431	65	127
30.82371882086168	30.93981859410431	77	127
30.93981859410431	31.090748299319728	67	127
30.93981859410431	31.090748299319728	79	127
31.090748299319728	31.183628117913834	41	127
31.090748299319728	31.20684807256236	68	127
31.090748299319728	31.58997732426304	72	127
31.090748299319728	31.58997732426304	80	127
31.20684807256236	31.346167800453514	65	127
31.346167800453514	31.43904761904762	53	127
31.346167800453514	31.462267573696145	62	127
31.462267573696145	31.58997732426304	60	127
31.58997732426304	31.67124716553288	46	127
31.58997732426304	31.694467120181407	56	127
31.58997732426304	31.810566893424035	74	127
31.58997732426304	32.05437641723356	82	127
31.694467120181407	31.810566893424035	55	127
31.810566893424035	31.90344671201814	50	127
31.810566893424035	31.926666666666666	53	127
31.810566893424035	32.05437641723356	75	127
31.926666666666666	32.05437641723356	60	127
32.05437641723356	32.14725623582766	39	127
32.05437641723356	32.274965986394555	75	127
32.05437641723356	32.274965986394555	58	127
32.05437641723356	32.50716553287982	79	127
32.274965986394555	32.36784580498866	51	127
32.274965986394555	32.50716553287982	70	127
32.274965986394555	32.73936507936508	55	127
32.50716553287982	32.60004535147392	46	127
32.50716553287982	32.69292517006803	87	127
32.50716553287982	32.73936507936508	67	127
32.73936507936508	32.832244897959185	43	127
32.73936507936508	32.85546485260771	55	127
32.73936507936508	32.994784580498866	63	127
32.85546485260771	32.994784580498866	58	127
32.994784580498866	33.08766439909297	56	127
32.994784580498866	33.08766439909297	41	127
32.994784580498866	33.19215419501134	60	127
32.994784580498866	33.19215419501134	87	127
33.19215419501134	33.28503401360544	55	127
33.19215419501134	33.28503401360544	46	127
33.19215419501134	33.44757369614513	62	127
33.19215419501134	33.44757369614513	82	127
33.44757369614513	33.54045351473923	38	127
33.44757369614513	33.679750566893425	65	127
33.44757369614513	33.679750566893425	80	127
33.44757369614513	33.87714285714286	53	127
33.679750566893425	33.77265306122449	46	127
33.679750566893425	33.78426303854875	63	127
33.679750566893425	33.78426303854875	79	127
33.78426303854875	33.87714285714286	62	127
33.78426303854875	33.87714285714286	77	127
33.87714285714286	34.09773242630386	75	127
33.87714285714286	34.34154195011338	55	127
33.87714285714286	33.9584126984127	39	127
33.87714285714286	34.09773242630386	63	127
34.09773242630386	34.190589569161	46	127
34.09773242630386	34.34154195011338	65	127
34.09773242630386	34.562108843537416	70	127
34.34154195011338	34.43439909297052	43	127
34.34154195011338	34.562108843537416	67	127
34.562108843537416	34.65501133786848	39	127
34.562108843537416	34.678231292517005	55	127
34.562108843537416	34.8059410430839	70	127
34.678231292517005	34.8059410430839	58	127
34.8059410430839	34.95684807256236	56	127
34.8059410430839	34.95684807256236	41	127
34.8059410430839	35.09619047619048	60	127
35.09619047619048	35.18907029478458	55	127
35.09619047619048	35.18907029478458	46	127
35.09619047619048	35.351609977324266	62	127
35.351609977324266	35.444489795918365	38	127
35.351609977324266	35.59541950113379	65	127
35.351609977324266	35.83920634920635	53	127
35.59541950113379	35.64185941043084	68	127
35.59541950113379	35.68829931972789	46	127
35.59541950113379	35.72312925170068	63	127
35.72312925170068	35.75795918367347	72	127
35.72312925170068	35.83920634920635	62	127
35.83920634920635	35.932108843537414	70	127
35.83920634920635	35.932108843537414	39	127
35.83920634920635	35.95532879818594	55	127
35.83920634920635	36.07142857142857	63	127
35.95532879818594	36.07142857142857	56	127
36.07142857142857	36.164308390022676	68	127
36.07142857142857	36.164308390022676	46	127
36.07142857142857	36.19913832199546	55	127
36.07142857142857	36.315238095238094	65	127
36.19913832199546	36.315238095238094	53	127
36.315238095238094	36.4081179138322	39	127
36.315238095238094	36.431337868480725	51	127
36.315238095238094	36.547437641723356	58	127
36.315238095238094	36.77963718820862	67	127
36.431337868480725	36.547437641723356	53	127
36.547437641723356	36.64031746031746	46	127
36.547437641723356	36.66353741496599	55	127
36.547437641723356	36.77963718820862	70	127
36.66353741496599	36.77963718820862	58	127
36.77963718820862	36.872517006802724	56	127
36.77963718820862	36.872517006802724	41	127
36.77963718820862	36.988616780045355	60	127
36.988616780045355	37.081496598639454	55	127
36.988616780045355	37.081496598639454	46	127
36.988616780045355	37.232403628117915	62	127
37.232403628117915	37.33691609977324	38	127
37.232403628117915	37.4762358276644	65	127
37.232403628117915	37.731632653061226	53	127
37.4762358276644	37.52267573696145	68	127
37.4762358276644	37.5691156462585	46	127
37.4762358276644	37.60394557823129	63	127
37.60394557823129	37.65038548752835	72	127
37.60394557823129	37.731632653061226	62	127
37.731632653061226	37.82453514739229	70	127
37.731632653061226	37.82453514739229	39	127
37.731632653061226	37.847755102040814	55	127
37.731632653061226	37.963854875283445	63	127
37.847755102040814	37.963854875283445	56	127
37.963854875283445	38.05673469387755	68	127
37.963854875283445	38.05673469387755	46	127
37.963854875283445	38.09156462585034	55	127
37.963854875283445	38.20766439909297	65	127
38.09156462585034	38.20766439909297	53	127
38.20766439909297	38.28893424036281	67	127
38.20766439909297	38.28893424036281	39	127
38.20766439909297	38.41664399092971	58	127
38.20766439909297	38.41664399092971	51	127
38.41664399092971	38.451473922902494	75	127
38.41664399092971	38.451473922902494	84	127
38.53274376417234	38.5443537414966	79	127
38.53274376417234	38.5443537414966	87	127
38.614013605442175	38.683673469387756	85	127
38.614013605442175	38.70689342403628	51	127
38.614013605442175	38.82299319727891	77	127
38.614013605442175	39.0784126984127	46	127
38.70689342403628	38.82299319727891	55	127
38.82299319727891	38.91587301587302	84	127
38.82299319727891	38.950702947845805	61	127
38.82299319727891	39.0784126984127	75	127
38.950702947845805	39.0784126984127	55	127
39.0784126984127	39.19451247165533	51	127
39.0784126984127	39.31061224489796	73	127
39.0784126984127	39.554421768707485	82	127
39.19451247165533	39.31061224489796	55	127
39.31061224489796	39.438321995464854	61	127
39.31061224489796	39.554421768707485	75	127
39.31061224489796	39.554421768707485	39	127
39.438321995464854	39.554421768707485	55	127
39.554421768707485	39.670521541950116	51	127
39.554421768707485	39.670521541950116	84	127
39.554421768707485	39.79823129251701	72	127
39.554421768707485	40.042040816326534	44	127
39.670521541950116	39.79823129251701	56	127
39.670521541950116	39.79823129251701	85	127
39.79823129251701	39.9259410430839	60	127
39.79823129251701	39.9259410430839	84	127
39.79823129251701	40.042040816326534	75	127
39.9259410430839	40.042040816326534	56	127
39.9259410430839	40.042040816326534	82	127
40.042040816326534	40.158140589569165	51	127
40.042040816326534	40.158140589569165	80	127
40.042040816326534	40.28585034013606	72	127
40.042040816326534	40.587709750566894	48	127
40.158140589569165	40.28585034013606	56	127
40.158140589569165	40.28585034013606	82	127
40.28585034013606	40.436780045351476	60	127
40.28585034013606	40.436780045351476	84	127
40.28585034013606	40.587709750566894	68	127
40.436780045351476	40.587709750566894	56	127
40.436780045351476	40.587709750566894	87	127
40.587709750566894	40.680589569161	85	127
40.587709750566894	40.703809523809525	51	127
40.587709750566894	40.819909297052156	77	127
40.587709750566894	41.06371882086168	46	127
40.703809523809525	40.819909297052156	55	127
40.819909297052156	40.924399092970525	84	127
40.819909297052156	40.94761904761905	61	127
40.819909297052156	41.06371882086168	75	127
40.94761904761905	41.06371882086168	55	127
41.06371882086168	41.168185941043085	51	127
41.06371882086168	41.284285714285716	73	127
41.06371882086168	41.5397052154195	82	127
41.168185941043085	41.284285714285716	55	127
41.284285714285716	41.42360544217687	61	127
41.284285714285716	41.5397052154195	75	127
41.284285714285716	41.5397052154195	39	127
41.42360544217687	41.5397052154195	55	127
41.5397052154195	41.67902494331066	51	127
41.5397052154195	41.67902494331066	84	127
41.5397052154195	41.80673469387755	72	127
41.5397052154195	42.050544217687076	44	127
41.67902494331066	41.80673469387755	56	127
41.67902494331066	41.80673469387755	85	127
41.80673469387755	41.93446712018141	60	127
41.80673469387755	41.93446712018141	84	127
41.80673469387755	42.050544217687076	75	127
41.93446712018141	42.050544217687076	56	127
41.93446712018141	42.050544217687076	82	127
42.050544217687076	42.166666666666664	51	127
42.050544217687076	42.166666666666664	80	127
42.050544217687076	42.282766439909295	72	127
42.050544217687076	42.282766439909295	48	127
42.166666666666664	42.282766439909295	56	127
42.166666666666664	42.282766439909295	84	127
42.282766439909295	42.32920634920635	77	127
42.282766439909295	42.41047619047619	60	127
42.282766439909295	42.41047619047619	89	127
42.282766439909295	42.51496598639456	44	127
42.41047619047619	42.44530612244898	79	127
42.41047619047619	42.51496598639456	56	127
42.41047619047619	42.51496598639456	91	127
42.51496598639456	42.63106575963719	80	127
42.51496598639456	42.63106575963719	53	127
42.51496598639456	42.63106575963719	92	127
42.51496598639456	42.74716553287982	41	127
42.63106575963719	42.74716553287982	77	127
42.63106575963719	42.74716553287982	56	127
42.63106575963719	42.74716553287982	89	127
42.74716553287982	42.87487528344671	74	127
42.74716553287982	42.87487528344671	60	127
42.74716553287982	42.87487528344671	86	127
42.74716553287982	43.01419501133787	53	127
42.87487528344671	43.01419501133787	72	127
42.87487528344671	43.01419501133787	56	127
42.87487528344671	43.01419501133787	84	127
43.01419501133787	43.153514739229024	68	127
43.01419501133787	43.153514739229024	53	127
43.01419501133787	43.153514739229024	80	127
43.01419501133787	43.28122448979592	46	127
43.153514739229024	43.28122448979592	67	127
43.153514739229024	43.28122448979592	56	127
43.153514739229024	43.28122448979592	79	127
43.28122448979592	43.39732426303855	65	127
43.28122448979592	43.39732426303855	62	127
43.28122448979592	43.39732426303855	77	127
43.28122448979592	43.51342403628118	58	127
43.39732426303855	43.51342403628118	72	127
43.39732426303855	43.51342403628118	56	127
43.39732426303855	43.51342403628118	84	127
43.51342403628118	43.61791383219955	70	127
43.51342403628118	43.61791383219955	82	127
43.51342403628118	43.64113378684807	55	127
43.51342403628118	43.78045351473923	39	127
43.64113378684807	43.78045351473923	58	127
43.78045351473923	43.89655328798186	63	127
43.78045351473923	44.01265306122449	51	127
43.78045351473923	44.21	67	127
43.78045351473923	44.21	79	127
43.89655328798186	44.01265306122449	58	127
44.01265306122449	44.093922902494334	55	127
44.01265306122449	44.21	46	127
44.093922902494334	44.21	58	127
44.21	44.24485260770975	67	127
44.21	44.24485260770975	79	127
44.21	44.32612244897959	55	127
44.21	44.44222222222222	43	127
44.32612244897959	44.372562358276646	70	127
44.32612244897959	44.372562358276646	82	127
44.32612244897959	44.44222222222222	51	127
44.44222222222222	44.53510204081633	72	127
44.44222222222222	44.53510204081633	80	127
44.44222222222222	44.67442176870748	53	127
44.44222222222222	44.67442176870748	56	127
44.44222222222222	44.67442176870748	41	127
44.67442176870748	44.76730158730159	70	127
44.67442176870748	44.76730158730159	79	127
44.89501133786848	45.138820861678006	58	127
44.89501133786848	45.138820861678006	62	127
44.89501133786848	45.138820861678006	46	127
44.89501133786848	45.38263038548753	68	127
44.89501133786848	45.38263038548753	77	127
45.38263038548753	45.49873015873016	63	127
45.38263038548753	45.49873015873016	75	127
45.38263038548753	45.49873015873016	51	127
45.38263038548753	45.64965986394558	67	127
45.49873015873016	45.64965986394558	62	127
45.49873015873016	45.64965986394558	74	127
45.49873015873016	45.64965986394558	50	127
45.64965986394558	45.76575963718821	63	127
45.64965986394558	45.76575963718821	75	127
45.64965986394558	45.76575963718821	51	127
45.76575963718821	45.90507936507937	62	127
45.76575963718821	45.90507936507937	74	127
45.76575963718821	45.90507936507937	50	127
45.90507936507937	46.14888888888889	63	127
45.90507936507937	46.14888888888889	75	127
45.90507936507937	46.14888888888889	51	127
46.14888888888889	46.38108843537415	58	127
46.14888888888889	46.38108843537415	70	127
46.14888888888889	46.38108843537415	46	127
46.38108843537415	46.61326530612245	60	127
46.38108843537415	46.61326530612245	72	127
46.38108843537415	46.61326530612245	48	127
46.61326530612245	46.84548752834467	62	127
46.61326530612245	46.84548752834467	74	127
46.61326530612245	46.84548752834467	50	127
46.84548752834467	47.11251700680272	63	127
46.84548752834467	47.11251700680272	75	127
46.84548752834467	47.11251700680272	51	127
47.11251700680272	47.34471655328798	58	127
47.11251700680272	47.34471655328798	70	127
47.11251700680272	47.34471655328798	46	127
47.34471655328798	47.57691609977324	60	127
47.34471655328798	47.57691609977324	72	127
47.34471655328798	47.57691609977324	48	127
47.57691609977324	47.82072562358277	62	127
47.57691609977324	47.82072562358277	74	127
47.57691609977324	47.82072562358277	50	127
47.82072562358277	48.076145124716554	63	127
47.82072562358277	48.076145124716554	75	127
47.82072562358277	48.076145124716554	51	127
48.076145124716554	48.308344671201816	58	127
48.076145124716554	48.308344671201816	70	127
48.076145124716554	48.308344671201816	46	127
48.308344671201816	48.86562358276644	48	127
48.308344671201816	48.86562358276644	55	127
48.308344671201816	48.86562358276644	63	127
48.308344671201816	48.86562358276644	55	127
48.308344671201816	48.86562358276644	63	127
48.308344671201816	48.86562358276644	72	127
48.308344671201816	48.86562358276644	48	127
48.86562358276644	49.4112925170068	50	127
48.86562358276644	49.4112925170068	59	127
48.86562358276644	49.4112925170068	67	127
48.86562358276644	49.4112925170068	55	127
48.86562358276644	49.4112925170068	62	127
48.86562358276644	49.4112925170068	71	127
48.86562358276644	49.4112925170068	43	127
49.4112925170068	49.991791383219955	48	127
49.4112925170068	49.991791383219955	55	127
49.4112925170068	49.991791383219955	63	127
49.4112925170068	49.991791383219955	55	127
49.4112925170068	49.991791383219955	63	127
49.4112925170068	49.991791383219955	72	127
49.4112925170068	49.991791383219955	36	127
50.51424036281179	50.63034013605442	75	127
50.51424036281179	50.63034013605442	51	127
50.63034013605442	50.76965986394558	74	127
50.63034013605442	50.76965986394558	50	127
50.76965986394558	50.88575963718821	75	127
50.76965986394558	50.88575963718821	51	127
50.88575963718821	51.00185941043084	74	127
50.88575963718821	51.00185941043084	50	127
51.00185941043084	51.24566893424036	75	127
51.00185941043084	51.24566893424036	51	127
51.24566893424036	51.33854875283447	70	127
51.24566893424036	51.33854875283447	46	127
51.48947845804989	51.582358276643994	72	127
51.48947845804989	51.582358276643994	48	127
51.75650793650794	51.84938775510204	74	127
51.75650793650794	51.84938775510204	50	127
52.00031746031746	52.09319727891157	75	127
52.00031746031746	52.09319727891157	51	127
52.27895691609977	52.37183673469388	70	127
52.27895691609977	52.37183673469388	46	127
52.511156462585035	52.60403628117914	72	127
52.511156462585035	52.60403628117914	48	127
52.789795918367346	52.88267573696145	74	127
52.789795918367346	52.88267573696145	50	127
53.03360544217687	53.12648526077098	75	127
53.03360544217687	53.12648526077098	51	127
53.28902494331066	53.439954648526076	70	127
53.28902494331066	53.439954648526076	46	127
53.75342403628118	54.264263038548755	74	127
53.75342403628118	54.264263038548755	67	127
53.75342403628118	54.264263038548755	70	127
53.75342403628118	54.264263038548755	50	127
54.264263038548755	54.856371882086165	74	127
54.264263038548755	54.856371882086165	66	127
54.264263038548755	54.856371882086165	69	127
54.264263038548755	54.856371882086165	50	127
54.856371882086165	55.42526077097506	74	127
54.856371882086165	55.42526077097506	67	127
54.856371882086165	55.42526077097506	70	127
54.856371882086165	55.42526077097506	43	127
55.680680272108845	55.77356009070295	86	127
55.91287981859411	56.16829931972789	87	127
55.91287981859411	56.58625850340136	79	127
55.91287981859411	56.58625850340136	75	127
56.16829931972789	56.388888888888886	86	127
56.388888888888886	56.58625850340136	87	127
56.58625850340136	56.830068027210885	80	127
56.58625850340136	56.830068027210885	77	127
56.58625850340136	56.830068027210885	82	127
56.830068027210885	57.06226757369615	84	127
56.830068027210885	57.526666666666664	79	127
56.830068027210885	57.526666666666664	75	127
57.06226757369615	57.29446712018141	86	127
57.29446712018141	57.526666666666664	87	127
57.526666666666664	57.758866213151926	80	127
57.526666666666664	57.758866213151926	77	127
57.526666666666664	57.758866213151926	82	127
57.758866213151926	57.99106575963719	84	127
57.758866213151926	58.45546485260771	79	127
57.758866213151926	58.45546485260771	75	127
57.99106575963719	58.22326530612245	86	127
58.22326530612245	58.45546485260771	87	127
58.45546485260771	58.676054421768704	77	127
58.45546485260771	58.676054421768704	74	127
58.45546485260771	58.676054421768704	82	127
58.676054421768704	58.91986394557823	80	127
58.676054421768704	59.41909297052154	75	127
58.676054421768704	59.41909297052154	72	127
58.91986394557823	59.15206349206349	82	127
59.15206349206349	59.41909297052154	84	127
59.41909297052154	59.68612244897959	74	127
59.41909297052154	59.68612244897959	70	127
59.41909297052154	59.68612244897959	79	127
59.68612244897959	59.895102040816326	77	127
59.68612244897959	60.382721088435375	72	127
59.68612244897959	60.382721088435375	68	127
59.895102040816326	60.13891156462585	79	127
60.13891156462585	60.382721088435375	80	127
60.382721088435375	60.649750566893424	73	127
60.382721088435375	60.649750566893424	70	127
60.382721088435375	60.649750566893424	76	127
60.649750566893424	60.90517006802721	77	127
60.649750566893424	61.381179138322	72	127
60.649750566893424	61.381179138322	68	127
60.90517006802721	61.148979591836735	79	127
61.148979591836735	61.381179138322	80	127
61.381179138322	61.62498866213152	73	127
61.381179138322	61.62498866213152	70	127
61.381179138322	61.62498866213152	76	127
61.62498866213152	61.868798185941046	77	127
61.62498866213152	62.12421768707483	72	127
61.62498866213152	62.12421768707483	68	127
61.868798185941046	62.12421768707483	79	127
62.12421768707483	62.39124716553288	80	127
62.12421768707483	62.66988662131519	68	127
62.12421768707483	62.66988662131519	65	127
62.39124716553288	62.66988662131519	79	127
62.66988662131519	62.91369614512472	79	127
62.66988662131519	63.169115646258504	70	127
62.66988662131519	63.169115646258504	67	127
62.91369614512472	63.169115646258504	77	127
63.169115646258504	63.43614512471655	68	127
63.169115646258504	63.43614512471655	77	127
63.169115646258504	63.69156462585034	72	127
63.43614512471655	63.69156462585034	69	127
63.43614512471655	63.69156462585034	75	127
63.69156462585034	63.79605442176871	70	127
63.69156462585034	63.90054421768708	70	127
63.69156462585034	64.3649433106576	74	127
63.79605442176871	63.90054421768708	69	127
63.90054421768708	64.01664399092971	70	127
64.01664399092971	64.13274376417233	69	127
64.13274376417233	64.3649433106576	70	127
64.13274376417233	64.72485260770975	53	127
64.3649433106576	64.46943310657596	65	127
64.3649433106576	64.60875283446713	77	127
64.60875283446713	64.70163265306122	70	127
64.60875283446713	64.70163265306122	74	127
64.72485260770975	64.84095238095239	52	127
64.84095238095239	64.92222222222222	72	127
64.84095238095239	64.92222222222222	75	127
64.84095238095239	64.94541950113378	53	127
64.94541950113378	65.07312925170068	52	127
65.07312925170068	65.16603174603175	74	127
65.07312925170068	65.3053514739229	53	127
65.07312925170068	65.54916099773243	77	127
65.3053514739229	65.39823129251701	65	127
65.3053514739229	65.39823129251701	53	127
65.54916099773243	65.64204081632653	70	127
65.54916099773243	65.64204081632653	74	127
65.54916099773243	65.66526077097505	53	127
65.66526077097505	65.78136054421769	52	127
65.78136054421769	65.87424036281179	72	127
65.78136054421769	65.87424036281179	75	127
65.78136054421769	65.90907029478458	53	127
65.90907029478458	66.03678004535148	52	127
66.03678004535148	66.12965986394558	74	127
66.03678004535148	66.26897959183674	53	127
66.03678004535148	66.51278911564626	77	127
66.26897959183674	66.36185941043084	65	127
66.26897959183674	66.51278911564626	53	127
66.51278911564626	66.6056462585034	72	127
66.51278911564626	67.17455782312925	75	127
66.51278911564626	67.55768707482993	53	127
66.6056462585034	66.721768707483	71	127
66.721768707483	66.83784580498866	72	127
66.83784580498866	66.96555555555555	71	127
66.96555555555555	67.17455782312925	72	127
67.17455782312925	67.27904761904762	65	127
67.17455782312925	67.45319727891156	77	127
67.45319727891156	67.54607709750567	72	127
67.45319727891156	67.54607709750567	75	127
67.55768707482993	67.67378684807257	52	127
67.67378684807257	67.76666666666667	74	127
67.67378684807257	67.76666666666667	77	127
67.67378684807257	67.80149659863946	53	127
67.80149659863946	67.91759637188208	52	127
67.91759637188208	68.0104761904762	75	127
67.91759637188208	68.14979591836735	53	127
67.91759637188208	68.39360544217688	79	127
68.14979591836735	68.24265306122449	65	127
68.14979591836735	68.24265306122449	53	127
68.39360544217688	68.48648526077098	72	127
68.39360544217688	68.48648526077098	75	127
68.39360544217688	68.5097052154195	53	127
68.5097052154195	68.62578231292517	52	127
68.62578231292517	68.7302947845805	74	127
68.62578231292517	68.7302947845805	77	127
68.62578231292517	68.76512471655329	53	127
68.76512471655329	68.89283446712018	52	127
68.89283446712018	68.98571428571428	75	127
68.89283446712018	69.12503401360544	53	127
68.89283446712018	69.368820861678	79	127
69.12503401360544	69.21791383219954	65	127
69.12503401360544	69.21791383219954	53	127
69.368820861678	69.47333333333333	74	127
69.368820861678	69.47333333333333	77	127
69.368820861678	70.36730158730158	58	127
69.47333333333333	69.60104308390022	76	127
69.47333333333333	69.60104308390022	73	127
69.60104308390022	69.72875283446712	77	127
69.60104308390022	69.72875283446712	74	127
69.72875283446712	69.83324263038548	73	127
69.72875283446712	69.83324263038548	76	127
69.83324263038548	70.030589569161	77	127
69.83324263038548	70.030589569161	74	127
70.030589569161	70.1118820861678	70	127
70.030589569161	70.1118820861678	74	127
70.26278911564626	70.34408163265306	74	127
70.26278911564626	70.34408163265306	77	127
70.36730158730158	70.4601814058957	57	127
70.4601814058957	70.5530612244898	75	127
70.4601814058957	70.5530612244898	79	127
70.4601814058957	70.58789115646259	58	127
70.58789115646259	70.70399092970521	57	127
70.70399092970521	70.78526077097506	77	127
70.70399092970521	70.78526077097506	80	127
70.70399092970521	70.92458049886622	58	127
70.92458049886622	71.00585034013605	74	127
70.92458049886622	71.00585034013605	58	127
70.92458049886622	71.00585034013605	77	127
71.18	71.2728798185941	75	127
71.18	71.2728798185941	79	127
71.18	71.2728798185941	43	127
71.18	71.29609977324263	58	127
71.29609977324263	71.4121768707483	57	127
71.4121768707483	71.51668934240362	77	127
71.4121768707483	71.51668934240362	80	127
71.4121768707483	71.51668934240362	46	127
71.4121768707483	71.53988662131519	58	127
71.53988662131519	71.65600907029479	57	127
71.65600907029479	71.74888888888889	79	127
71.65600907029479	71.74888888888889	82	127
71.65600907029479	71.74888888888889	51	127
71.65600907029479	71.88820861678005	58	127
71.88820861678005	71.99269841269842	75	127
71.88820861678005	71.99269841269842	58	127
71.88820861678005	71.99269841269842	79	127
71.88820861678005	71.99269841269842	43	127
72.13201814058957	72.22489795918368	39	127
72.13201814058957	72.2481179138322	60	127
72.13201814058957	72.36421768707483	77	127
72.13201814058957	72.36421768707483	81	127
72.2481179138322	72.36421768707483	59	127
72.36421768707483	72.4687074829932	41	127
72.36421768707483	72.49192743764172	60	127
72.36421768707483	72.60802721088436	79	127
72.36421768707483	72.60802721088436	82	127
72.49192743764172	72.60802721088436	59	127
72.60802721088436	72.68927437641723	48	127
72.60802721088436	72.82861678004535	81	127
72.60802721088436	72.82861678004535	60	127
72.60802721088436	72.82861678004535	84	127
72.82861678004535	72.93310657596372	60	127
72.82861678004535	72.93310657596372	41	127
72.82861678004535	73.07240362811791	77	127
72.82861678004535	73.07240362811791	81	127
73.07240362811791	73.54843537414966	77	127
73.07240362811791	73.54843537414966	65	127
73.07240362811791	73.16530612244898	82	127
73.07240362811791	73.30460317460317	38	127
73.30460317460317	73.4091156462585	84	127
73.54843537414966	73.64131519274376	77	127
73.54843537414966	73.64131519274376	74	127
73.54843537414966	74.02444444444444	46	127
73.54843537414966	74.50045351473923	86	127
73.78063492063492	73.88512471655329	74	127
73.78063492063492	73.88512471655329	70	127
74.02444444444444	74.11732426303855	70	127
74.02444444444444	74.11732426303855	67	127
74.02444444444444	74.2566439909297	43	127
74.2566439909297	74.36113378684807	72	127
74.2566439909297	74.36113378684807	69	127
74.50045351473923	74.59333333333333	74	127
74.50045351473923	74.59333333333333	70	127
74.50045351473923	74.97646258503401	55	127
74.50045351473923	75.3247619047619	82	127
74.7326530612245	74.8371201814059	70	127
74.7326530612245	74.8371201814059	67	127
74.97646258503401	75.06934240362811	67	127
74.97646258503401	75.06934240362811	63	127
74.97646258503401	75.22024943310657	51	127
75.22024943310657	75.31315192743764	69	127
75.22024943310657	75.31315192743764	65	127
75.3247619047619	75.41764172335601	70	127
75.3247619047619	75.41764172335601	67	127
75.3247619047619	75.8007709750567	39	127
75.3247619047619	76.32321995464852	79	127
75.56857142857143	75.66145124716553	67	127
75.56857142857143	75.66145124716553	63	127
75.8007709750567	75.94009070294784	63	127
75.8007709750567	75.94009070294784	60	127
75.8007709750567	76.0909977324263	36	127
76.0909977324263	76.18390022675737	65	127
76.0909977324263	76.18390022675737	62	127
76.32321995464852	76.41609977324264	67	127
76.32321995464852	76.41609977324264	63	127
76.32321995464852	76.82244897959184	48	127
76.32321995464852	77.07786848072563	75	127
76.56702947845805	76.65990929705215	63	127
76.56702947845805	76.65990929705215	60	127
76.82244897959184	77.07786848072563	60	127
76.82244897959184	77.07786848072563	57	127
76.82244897959184	77.07786848072563	41	127
77.07786848072563	77.17074829931973	74	127
77.07786848072563	77.35650793650794	62	127
77.07786848072563	77.35650793650794	58	127
77.35650793650794	77.4609977324263	72	127
77.35650793650794	77.63514739229025	63	127
77.35650793650794	77.63514739229025	60	127
77.35650793650794	77.63514739229025	41	127
77.63514739229025	77.72802721088435	77	127
77.63514739229025	77.89056689342404	69	127
77.63514739229025	77.89056689342404	63	127
77.89056689342404	78.01827664399093	70	127
77.89056689342404	78.14598639455782	46	127
77.89056689342404	78.6219954648526	74	127
77.89056689342404	80.79303854875283	58	127
77.89056689342404	80.79303854875283	62	127
78.01827664399093	78.14598639455782	69	127
78.14598639455782	78.26206349206349	70	127
78.14598639455782	78.6219954648526	53	127
78.26206349206349	78.37818594104309	69	127
78.37818594104309	78.6219954648526	70	127
78.6219954648526	78.71487528344672	65	127
78.6219954648526	78.71487528344672	53	127
78.6219954648526	78.85419501133786	77	127
78.85419501133786	78.94707482993198	70	127
78.85419501133786	78.94707482993198	74	127
78.85419501133786	78.94707482993198	46	127
79.0980045351474	79.1908843537415	72	127
79.0980045351474	79.1908843537415	75	127
79.0980045351474	79.57401360544218	53	127
79.33020408163266	79.42308390022676	74	127
79.33020408163266	79.42308390022676	77	127
79.57401360544218	79.67850340136054	65	127
79.57401360544218	79.67850340136054	53	127
79.8178231292517	79.9107029478458	70	127
79.8178231292517	79.9107029478458	46	127
79.8178231292517	80.06163265306122	74	127
80.06163265306122	80.15448979591837	72	127
80.06163265306122	80.29383219954649	75	127
80.06163265306122	80.54925170068027	53	127
80.29383219954649	80.38671201814059	74	127
80.29383219954649	80.54925170068027	77	127
80.54925170068027	80.64213151927437	65	127
80.54925170068027	80.64213151927437	53	127
80.79303854875283	80.8859410430839	44	127
80.79303854875283	80.90916099773243	71	127
80.79303854875283	81.5128798185941	75	127
80.79303854875283	84.36893424036282	59	127
80.79303854875283	84.36893424036282	63	127
80.90916099773243	81.03687074829932	70	127
81.03687074829932	81.5128798185941	54	127
81.03687074829932	81.15297052154195	71	127
81.15297052154195	81.26907029478458	70	127
81.26907029478458	81.5128798185941	71	127
81.5128798185941	81.65219954648526	70	127
81.5128798185941	81.65219954648526	54	127
81.5128798185941	81.80312925170068	74	127
81.80312925170068	81.89600907029478	71	127
81.80312925170068	81.89600907029478	75	127
81.80312925170068	81.89600907029478	44	127
82.0469387755102	82.13981859410431	74	127
82.0469387755102	82.13981859410431	77	127
82.0469387755102	82.61582766439909	54	127
82.34879818594105	82.44167800453515	75	127
82.34879818594105	82.44167800453515	78	127
82.61582766439909	82.70868480725623	70	127
82.61582766439909	82.70868480725623	74	127
82.61582766439909	82.70868480725623	54	127
83.25437641723356	83.3472335600907	71	127
83.25437641723356	83.3472335600907	75	127
83.25437641723356	83.3472335600907	44	127
83.50979591836735	83.60265306122449	74	127
83.50979591836735	83.60265306122449	77	127
83.50979591836735	84.00902494331066	54	127
83.74199546485261	83.83485260770975	75	127
83.74199546485261	83.83485260770975	78	127
84.00902494331066	84.14834467120181	71	127
84.00902494331066	84.14834467120181	75	127
84.00902494331066	84.14834467120181	54	127
84.36893424036282	84.48503401360544	71	127
84.36893424036282	84.48503401360544	77	127
84.36893424036282	84.48503401360544	44	127
84.36893424036282	86.8534693877551	53	127
84.36893424036282	86.8534693877551	59	127
84.64757369614513	84.7520634920635	75	127
84.64757369614513	84.7520634920635	78	127
84.64757369614513	85.1584126984127	49	127
84.89138321995465	84.98424036281179	77	127
84.89138321995465	84.98424036281179	80	127
85.1584126984127	85.2512925170068	71	127
85.1584126984127	85.2512925170068	77	127
85.1584126984127	85.2512925170068	49	127
85.41383219954649	85.94789115646259	71	127
85.41383219954649	85.94789115646259	77	127
85.41383219954649	85.94789115646259	44	127
86.11043083900226	86.20331065759638	75	127
86.11043083900226	86.20331065759638	78	127
86.11043083900226	86.59804988662131	49	127
86.3542403628118	86.4471201814059	77	127
86.3542403628118	86.4471201814059	80	127
86.59804988662131	86.70253968253968	71	127
86.59804988662131	86.70253968253968	77	127
86.59804988662131	86.70253968253968	49	127
86.8534693877551	86.94634920634921	70	127
86.8534693877551	86.94634920634921	78	127
86.8534693877551	86.94634920634921	42	127
86.8534693877551	87.85192743764172	54	127
86.8534693877551	87.85192743764172	58	127
87.12049886621315	87.21337868480725	73	127
87.12049886621315	87.21337868480725	80	127
87.12049886621315	87.6081179138322	49	127
87.35269841269842	87.44557823129252	78	127
87.35269841269842	87.44557823129252	82	127
87.6081179138322	87.7009977324263	70	127
87.6081179138322	87.7009977324263	78	127
87.6081179138322	87.7009977324263	49	127
87.85192743764172	87.94480725623583	70	127
87.85192743764172	87.94480725623583	78	127
87.85192743764172	87.94480725623583	42	127
87.85192743764172	88.96648526077098	54	127
87.85192743764172	88.96648526077098	58	127
88.25827664399092	88.35115646258504	73	127
88.25827664399092	88.35115646258504	80	127
88.25827664399092	88.73428571428572	49	127
88.49047619047619	88.59496598639456	78	127
88.49047619047619	88.59496598639456	82	127
88.73428571428572	88.82716553287982	70	127
88.73428571428572	88.82716553287982	78	127
88.73428571428572	88.82716553287982	49	127
88.96648526077098	89.2102947845805	74	127
88.96648526077098	89.2102947845805	82	127
88.96648526077098	89.2102947845805	41	127
88.96648526077098	89.95333333333333	53	127
88.96648526077098	89.95333333333333	56	127
89.2102947845805	89.44249433106576	80	127
89.2102947845805	89.44249433106576	84	127
89.2102947845805	89.68628117913832	46	127
89.44249433106576	89.68628117913832	82	127
89.44249433106576	89.68628117913832	86	127
89.68628117913832	89.95333333333333	74	127
89.68628117913832	89.95333333333333	82	127
89.68628117913832	89.95333333333333	46	127
90.67315192743764	90.81244897959184	77	127
90.81244897959184	90.92857142857143	79	127
90.92857142857143	91.05628117913832	80	127
90.92857142857143	91.39297052154195	60	127
90.92857142857143	91.39297052154195	41	127
90.92857142857143	91.83412698412698	56	127
91.05628117913832	91.17238095238095	77	127
91.17238095238095	91.30009070294784	74	127
91.30009070294784	91.39297052154195	72	127
91.39297052154195	91.52068027210885	68	127
91.39297052154195	91.83412698412698	62	127
91.39297052154195	91.83412698412698	46	127
91.52068027210885	91.62517006802722	67	127
91.62517006802722	91.70641723356009	65	127
91.70641723356009	91.83412698412698	72	127
91.83412698412698	92.04312925170068	70	127
91.83412698412698	92.28693877551021	63	127
91.83412698412698	92.79777777777778	55	127
91.83412698412698	92.79777777777778	39	127
92.04312925170068	92.542358276644	67	127
92.28693877551021	92.542358276644	58	127
92.542358276644	92.67006802721089	58	127
92.542358276644	92.67006802721089	67	127
92.67006802721089	92.79777777777778	61	127
92.67006802721089	92.79777777777778	70	127
92.79777777777778	92.89065759637188	60	127
92.79777777777778	92.89065759637188	68	127
92.79777777777778	93.23893424036281	53	127
92.79777777777778	93.23893424036281	44	127
93.02997732426304	93.12285714285714	58	127
93.02997732426304	93.12285714285714	67	127
93.23893424036281	93.74977324263038	56	127
93.23893424036281	93.74977324263038	50	127
93.23893424036281	93.74977324263038	65	127
93.23893424036281	93.74977324263038	46	127
93.74977324263038	93.87748299319728	55	127
93.74977324263038	94.24902494331066	51	127
93.74977324263038	94.24902494331066	63	127
93.74977324263038	94.24902494331066	39	127
93.87748299319728	93.99360544217687	58	127
93.99360544217687	94.10968253968254	63	127
94.10968253968254	94.24902494331066	67	127
94.24902494331066	94.44639455782313	70	127
94.44639455782313	94.57410430839002	75	127
94.57410430839002	94.64376417233561	77	127
94.57410430839002	94.64376417233561	89	127
94.64376417233561	94.70181405895691	79	127
94.64376417233561	94.70181405895691	91	127
94.70181405895691	94.81791383219955	80	127
94.70181405895691	94.81791383219955	92	127
94.70181405895691	94.93401360544217	60	127
94.70181405895691	94.93401360544217	41	127
94.81791383219955	94.93401360544217	77	127
94.81791383219955	94.93401360544217	89	127
94.93401360544217	95.06172335600907	74	127
94.93401360544217	95.06172335600907	86	127
94.93401360544217	95.18943310657596	56	127
94.93401360544217	95.18943310657596	53	127
95.06172335600907	95.18943310657596	72	127
95.06172335600907	95.18943310657596	84	127
95.18943310657596	95.42163265306122	43	127
95.18943310657596	95.3055328798186	71	127
95.18943310657596	95.3055328798186	83	127
95.18943310657596	95.42163265306122	65	127
95.3055328798186	95.42163265306122	80	127
95.3055328798186	95.42163265306122	68	127
95.42163265306122	97.66235827664399	67	127
95.42163265306122	97.66235827664399	79	127
95.42163265306122	97.79006802721088	59	127
95.42163265306122	97.79006802721088	55	127
97.66235827664399	97.79006802721088	89	127
97.66235827664399	97.79006802721088	77	127
97.79006802721088	98.01065759637189	67	127
97.79006802721088	98.01065759637189	87	127
97.79006802721088	98.01065759637189	48	127
97.79006802721088	98.26607709750567	75	127
98.01065759637189	98.26607709750567	60	127
98.01065759637189	98.76530612244898	48	127
98.01065759637189	98.76530612244898	60	127
98.01065759637189	98.76530612244898	84	127
98.26607709750567	98.71886621315193	40	127
98.26607709750567	98.76530612244898	72	127
98.76530612244898	98.85818594104309	84	127
98.76530612244898	98.88140589569161	79	127
98.76530612244898	99.09038548752835	48	127
98.76530612244898	99.09038548752835	60	127
98.88140589569161	99.00911564625851	82	127
99.00911564625851	99.09038548752835	84	127
99.00911564625851	99.09038548752835	80	127
99.00911564625851	99.09038548752835	41	127
99.09038548752835	99.20648526077098	84	127
99.20648526077098	99.33419501133787	79	127
99.33419501133787	99.45029478458049	82	127
99.45029478458049	99.6708843537415	80	127
99.6708843537415	99.77537414965987	76	127
99.77537414965987	99.87986394557824	79	127
99.87986394557824	100.62290249433107	77	127
99.87986394557824	100.62290249433107	65	127
100.12367346938775	100.25138321995465	71	127
100.12367346938775	100.25138321995465	59	127
100.25138321995465	100.39070294784581	73	127
100.25138321995465	100.39070294784581	61	127
100.39070294784581	100.62290249433107	72	127
100.39070294784581	100.62290249433107	60	127
100.62290249433107	100.75061224489797	67	127
100.62290249433107	100.75061224489797	55	127
100.75061224489797	100.87832199546486	70	127
100.75061224489797	100.87832199546486	58	127
100.87832199546486	101.1105215419501	68	127
100.87832199546486	101.1105215419501	56	127
101.1105215419501	101.22662131519274	64	127
101.1105215419501	101.22662131519274	52	127
101.1105215419501	101.34272108843537	60	127
101.1105215419501	101.57492063492063	72	127
101.22662131519274	101.34272108843537	67	127
101.22662131519274	101.34272108843537	55	127
101.34272108843537	101.57492063492063	60	127
101.34272108843537	101.57492063492063	65	127
101.34272108843537	101.57492063492063	53	127
101.57492063492063	101.70263038548752	62	127
101.57492063492063	101.70263038548752	47	127
101.57492063492063	102.07414965986395	67	127
101.57492063492063	102.07414965986395	55	127
101.70263038548752	101.81873015873016	65	127
101.70263038548752	101.81873015873016	50	127
101.81873015873016	102.07414965986395	63	127
101.81873015873016	102.07414965986395	48	127
102.07414965986395	102.20185941043084	62	127
102.07414965986395	102.20185941043084	47	127
102.07414965986395	102.561768707483	55	127
102.20185941043084	102.31795918367347	65	127
102.20185941043084	102.31795918367347	50	127
102.31795918367347	102.561768707483	67	127
102.31795918367347	102.561768707483	63	127
102.31795918367347	102.561768707483	48	127
102.561768707483	102.68947845804989	62	127
102.561768707483	102.68947845804989	47	127
102.561768707483	103.38607709750566	67	127
102.561768707483	103.38607709750566	55	127
102.68947845804989	102.85201814058956	65	127
102.68947845804989	102.85201814058956	50	127
102.85201814058956	103.38607709750566	63	127
102.85201814058956	103.38607709750566	48	127
103.38607709750566	103.51378684807256	62	127
103.38607709750566	103.51378684807256	47	127
103.38607709750566	103.71115646258504	67	127
103.38607709750566	104.09428571428572	55	127
103.51378684807256	103.71115646258504	65	127
103.51378684807256	103.71115646258504	50	127
103.71115646258504	104.09428571428572	67	127
103.71115646258504	104.09428571428572	63	127
103.71115646258504	104.09428571428572	48	127
104.09428571428572	104.38453514739228	69	127
104.38453514739228	104.81410430839003	70	127
104.38453514739228	104.81410430839003	55	127
104.38453514739228	104.81410430839003	62	127
104.38453514739228	104.81410430839003	43	127
104.81410430839003	104.94181405895692	69	127
104.94181405895692	105.11596371882086	67	127
105.11596371882086	105.88222222222223	69	127
105.11596371882086	105.88222222222223	57	127
105.11596371882086	105.88222222222223	41	127
105.11596371882086	106.68331065759637	62	127
105.88222222222223	106.36984126984127	74	127
106.36984126984127	107.04321995464852	67	127
106.36984126984127	107.04321995464852	39	127
106.68331065759637	107.04321995464852	63	127
107.04321995464852	107.50761904761904	60	127
107.04321995464852	107.7746485260771	69	127
107.04321995464852	107.7746485260771	41	127
107.50761904761904	108.00684807256236	57	127
107.7746485260771	108.29709750566893	65	127
107.7746485260771	108.29709750566893	38	127
108.00684807256236	108.13455782312926	58	127
108.13455782312926	108.29709750566893	60	127
108.29709750566893	109.06335600907029	62	127
108.29709750566893	109.06335600907029	58	127
108.29709750566893	109.06335600907029	46	127
108.29709750566893	109.7831746031746	58	127
109.06335600907029	109.3419954648526	60	127
109.06335600907029	109.7831746031746	51	127
109.3419954648526	109.7831746031746	62	127
109.7831746031746	110.05020408163266	63	127
109.7831746031746	110.6307029478458	57	127
109.7831746031746	110.86290249433107	48	127
110.05020408163266	110.1895238095238	62	127
110.1895238095238	110.3172335600907	60	127
110.3172335600907	110.86290249433107	62	127
110.6307029478458	110.74680272108843	55	127
110.74680272108843	110.86290249433107	54	127
110.86290249433107	111.6059410430839	67	127
110.86290249433107	111.6059410430839	55	127
110.86290249433107	111.97746031746031	46	127
111.6059410430839	112.40702947845806	60	127
111.6059410430839	112.40702947845806	55	127
111.97746031746031	112.15160997732427	45	127
112.15160997732427	112.40702947845806	43	127
112.40702947845806	112.90625850340136	62	127
112.40702947845806	112.90625850340136	54	127
112.40702947845806	112.90625850340136	45	127
112.90625850340136	113.63768707482993	58	127
112.90625850340136	113.63768707482993	55	127
112.90625850340136	113.63768707482993	43	127
113.63768707482993	114.24140589569161	55	127
113.63768707482993	114.24140589569161	51	127
113.63768707482993	114.85673469387756	48	127
114.24140589569161	114.39233560090703	79	127
114.24140589569161	114.85673469387756	63	127
114.24140589569161	114.85673469387756	55	127
114.5897052154195	114.71741496598639	81	127
114.85673469387756	115.32113378684807	82	127
114.85673469387756	115.62299319727892	62	127
114.85673469387756	115.62299319727892	58	127
114.85673469387756	116.18027210884354	55	127
115.32113378684807	115.4720634920635	81	127
115.4720634920635	115.62299319727892	79	127
115.62299319727892	116.18027210884354	75	127
115.62299319727892	116.18027210884354	72	127
115.62299319727892	116.18027210884354	81	127
116.18027210884354	116.71433106575964	69	127
116.18027210884354	116.71433106575964	86	127
116.18027210884354	116.71433106575964	53	127
116.18027210884354	117.51541950113379	74	127
116.71433106575964	117.51541950113379	79	127
116.71433106575964	117.51541950113379	51	127
116.71433106575964	118.18879818594104	67	127
117.51541950113379	118.18879818594104	72	127
117.51541950113379	118.18879818594104	81	127
117.51541950113379	118.18879818594104	63	127
118.18879818594104	118.69963718820861	69	127
118.18879818594104	118.69963718820861	77	127
118.18879818594104	118.69963718820861	62	127
118.18879818594104	119.32657596371882	65	127
118.69963718820861	119.32657596371882	74	127
118.69963718820861	119.32657596371882	58	127
118.69963718820861	122.70507936507937	70	127
119.32657596371882	119.46589569160997	72	127
119.32657596371882	120.30181405895692	63	127
119.32657596371882	122.70507936507937	67	127
119.99995464852607	120.10444444444444	74	127
120.30181405895692	120.58045351473923	75	127
120.30181405895692	120.82426303854875	60	127
120.58045351473923	120.69655328798186	74	127
120.69655328798186	120.82426303854875	72	127
120.82426303854875	121.4047619047619	74	127
120.82426303854875	121.4047619047619	58	127
121.4047619047619	121.96204081632654	79	127
121.4047619047619	121.96204081632654	55	127
121.96204081632654	122.70507936507937	72	127
121.96204081632654	122.70507936507937	51	127
122.70507936507937	123.40167800453514	69	127
122.70507936507937	123.40167800453514	65	127
122.70507936507937	123.40167800453514	74	127
122.70507936507937	123.40167800453514	53	127
123.40167800453514	124.13310657596372	65	127
123.40167800453514	124.13310657596372	62	127
123.40167800453514	124.13310657596372	70	127
123.40167800453514	124.92258503401361	46	127
124.13310657596372	124.92258503401361	62	127
124.13310657596372	124.92258503401361	58	127
124.13310657596372	124.92258503401361	65	127
124.92258503401361	125.25927437641724	63	127
124.92258503401361	125.25927437641724	57	127
124.92258503401361	125.4914739229025	72	127
124.92258503401361	126.00231292517007	41	127
125.25927437641724	125.4914739229025	70	127
125.25927437641724	125.4914739229025	67	127
125.4914739229025	125.77011337868481	69	127
125.4914739229025	125.77011337868481	65	127
125.4914739229025	126.00231292517007	74	127
125.77011337868481	126.00231292517007	67	127
125.77011337868481	126.00231292517007	63	127
126.00231292517007	126.47832199546485	65	127
126.00231292517007	126.47832199546485	62	127
126.00231292517007	126.73374149659864	70	127
126.00231292517007	127.34907029478458	46	127
126.47832199546485	126.73374149659864	63	127
126.47832199546485	126.73374149659864	60	127
126.73374149659864	127.10526077097505	62	127
126.73374149659864	127.10526077097505	58	127
126.73374149659864	127.34907029478458	65	127
127.10526077097505	127.34907029478458	65	127
127.10526077097505	127.34907029478458	62	127
127.34907029478458	127.60448979591837	63	127
127.34907029478458	127.60448979591837	60	127
127.34907029478458	127.87151927437641	72	127
127.34907029478458	128.46362811791383	41	127
127.60448979591837	127.87151927437641	70	127
127.60448979591837	127.87151927437641	67	127
127.87151927437641	128.11532879818594	69	127
127.87151927437641	128.11532879818594	65	127
127.87151927437641	128.46362811791383	74	127
128.11532879818594	128.46362811791383	67	127
128.11532879818594	128.46362811791383	63	127
128.46362811791383	128.74226757369615	65	127
128.46362811791383	128.74226757369615	62	127
128.46362811791383	128.98607709750567	70	127
128.46362811791383	129.6942857142857	46	127
128.74226757369615	128.98607709750567	63	127
128.74226757369615	128.98607709750567	60	127
128.98607709750567	129.4504761904762	62	127
128.98607709750567	129.4504761904762	58	127
128.98607709750567	129.6942857142857	65	127
129.4504761904762	129.6942857142857	65	127
129.4504761904762	129.6942857142857	62	127
129.6942857142857	129.926485260771	70	127
129.6942857142857	129.926485260771	54	127
129.6942857142857	130.4257142857143	75	127
129.6942857142857	130.4257142857143	42	127
129.926485260771	130.4257142857143	66	127
129.926485260771	130.4257142857143	58	127
130.4257142857143	130.65791383219954	72	127
130.4257142857143	130.65791383219954	56	127
130.4257142857143	130.9017006802721	77	127
130.4257142857143	130.9017006802721	44	127
130.65791383219954	130.9017006802721	68	127
130.65791383219954	130.9017006802721	60	127
130.9017006802721	131.1571201814059	53	127
130.9017006802721	131.4590022675737	73	127
130.9017006802721	131.4590022675737	37	127
130.9017006802721	132.2368707482993	65	127
131.1571201814059	131.4590022675737	56	127
131.4590022675737	131.92337868480726	49	127
131.4590022675737	132.2368707482993	68	127
131.92337868480726	132.2368707482993	53	127
132.2368707482993	132.4690702947846	70	127
132.2368707482993	132.4690702947846	54	127
132.2368707482993	132.840589569161	75	127
132.2368707482993	132.840589569161	42	127
132.4690702947846	132.840589569161	66	127
132.4690702947846	132.840589569161	58	127
132.840589569161	133.08439909297053	72	127
132.840589569161	133.08439909297053	56	127
132.840589569161	133.32820861678005	77	127
132.840589569161	133.32820861678005	44	127
133.08439909297053	133.32820861678005	68	127
133.08439909297053	133.32820861678005	60	127
133.32820861678005	133.58362811791383	53	127
133.32820861678005	133.82743764172335	73	127
133.32820861678005	133.82743764172335	37	127
133.32820861678005	134.52403628117915	65	127
133.58362811791383	133.82743764172335	56	127
133.82743764172335	134.2570068027211	61	127
133.82743764172335	134.52403628117915	68	127
134.2570068027211	134.52403628117915	65	127
134.52403628117915	134.89555555555555	60	127
134.52403628117915	135.15097505668933	77	127
134.52403628117915	139.58598639455784	65	127
134.52403628117915	139.58598639455784	45	127
134.52403628117915	139.58598639455784	53	127
134.89555555555555	135.15097505668933	62	127
135.15097505668933	135.40639455782312	63	127
135.15097505668933	135.6618140589569	72	127
135.40639455782312	135.52249433106576	62	127
135.52249433106576	135.6618140589569	60	127
135.6618140589569	136.01011337868482	60	127
135.6618140589569	136.28875283446712	77	127
136.01011337868482	136.28875283446712	62	127
136.28875283446712	136.55578231292517	63	127
136.28875283446712	137.08981859410432	72	127
136.55578231292517	136.72990929705216	62	127
136.72990929705216	137.08981859410432	60	127
137.08981859410432	137.53102040816327	60	127
137.08981859410432	137.82126984126984	77	127
137.53102040816327	137.82126984126984	62	127
137.82126984126984	138.06507936507936	63	127
137.82126984126984	138.3088888888889	72	127
138.06507936507936	138.181179138322	62	127
138.181179138322	138.3088888888889	60	127
138.3088888888889	138.5643083900227	60	127
138.3088888888889	138.8081179138322	77	127
138.5643083900227	138.8081179138322	62	127
138.8081179138322	139.31895691609978	63	127
138.8081179138322	139.58598639455784	72	127
139.31895691609978	139.45827664399093	62	127
139.45827664399093	139.58598639455784	60	127
139.58598639455784	139.81818594104308	69	127
139.58598639455784	140.08521541950114	78	127
139.58598639455784	144.00938775510204	50	127
139.58598639455784	144.00938775510204	60	127
139.81818594104308	140.08521541950114	70	127
140.08521541950114	140.3754648526077	72	127
140.08521541950114	140.61927437641722	74	127
140.3754648526077	140.5031746031746	70	127
140.5031746031746	140.61927437641722	69	127
140.61927437641722	140.89791383219955	69	127
140.61927437641722	141.1649433106576	78	127
140.89791383219955	141.1649433106576	70	127
141.1649433106576	141.4435827664399	72	127
141.1649433106576	141.68736961451248	74	127
141.4435827664399	141.5712925170068	70	127
141.5712925170068	141.68736961451248	69	127
141.68736961451248	141.9195918367347	69	127
141.68736961451248	142.17501133786848	78	127
141.9195918367347	142.17501133786848	70	127
142.17501133786848	142.53492063492064	72	127
142.17501133786848	142.8019501133787	74	127
142.53492063492064	142.6742403628118	70	127
142.6742403628118	142.8019501133787	69	127
142.8019501133787	143.03414965986394	69	127
142.8019501133787	143.33600907029478	78	127
143.03414965986394	143.33600907029478	70	127
143.33600907029478	143.74235827664398	72	127
143.33600907029478	144.00938775510204	74	127
143.74235827664398	143.88167800453516	70	127
143.88167800453516	144.00938775510204	69	127
144.00938775510204	144.10226757369614	79	127
144.00938775510204	144.12548752834468	59	127
144.00938775510204	144.25319727891156	67	127
144.00938775510204	144.98462585034014	55	127
144.12548752834468	144.25319727891156	62	127
144.25319727891156	144.35768707482993	81	127
144.25319727891156	144.38090702947846	59	127
144.38090702947846	144.48539682539683	62	127
144.48539682539683	144.6014739229025	59	127
144.48539682539683	144.71759637188208	83	127
144.6014739229025	144.71759637188208	62	127
144.71759637188208	144.845306122449	59	127
144.71759637188208	144.845306122449	81	127
144.845306122449	144.98462585034014	62	127
144.845306122449	144.98462585034014	79	127
144.98462585034014	145.10072562358278	56	127
144.98462585034014	145.46063492063493	81	127
144.98462585034014	145.46063492063493	54	127
145.10072562358278	145.21680272108844	62	127
145.21680272108844	145.3445351473923	56	127
145.3445351473923	145.46063492063493	62	127
145.46063492063493	145.5883446712018	59	127
145.46063492063493	145.9830612244898	86	127
145.46063492063493	145.9830612244898	53	127
145.5883446712018	145.73927437641723	62	127
145.73927437641723	145.86698412698414	59	127
145.86698412698414	145.9830612244898	62	127
145.9830612244898	146.13399092970522	55	127
145.9830612244898	146.51714285714286	79	127
145.9830612244898	146.51714285714286	52	127
146.13399092970522	146.26172335600907	59	127
146.26172335600907	146.389410430839	55	127
146.389410430839	146.51714285714286	59	127
146.51714285714286	146.6332426303855	54	127
146.51714285714286	146.99315192743765	83	127
146.51714285714286	146.99315192743765	50	127
146.6332426303855	146.74931972789116	59	127
146.74931972789116	146.877052154195	54	127
146.877052154195	146.99315192743765	59	127
146.99315192743765	147.10922902494332	52	127
146.99315192743765	147.46916099773242	81	127
146.99315192743765	147.46916099773242	49	127
147.10922902494332	147.2253514739229	57	127
147.2253514739229	147.3530612244898	52	127
147.3530612244898	147.46916099773242	57	127
147.46916099773242	147.58526077097505	50	127
147.46916099773242	147.9451700680272	78	127
147.46916099773242	147.9451700680272	48	127
147.58526077097505	147.7013605442177	57	127
147.7013605442177	147.82907029478457	50	127
147.82907029478457	147.9451700680272	57	127
147.9451700680272	148.0380498866213	79	127
147.9451700680272	148.06126984126985	50	127
147.9451700680272	148.421179138322	47	127
148.06126984126985	148.18897959183673	55	127
148.18897959183673	148.28183673469388	81	127
148.18897959183673	148.30507936507937	50	127
148.30507936507937	148.421179138322	55	127
148.421179138322	148.53725623582767	50	127
148.421179138322	148.66498866213152	83	127
148.421179138322	148.89716553287982	43	127
148.53725623582767	148.66498866213152	59	127
148.66498866213152	148.78108843537416	50	127
148.66498866213152	148.78108843537416	81	127
148.78108843537416	148.89716553287982	59	127
148.78108843537416	148.89716553287982	79	127
148.89716553287982	149.0132879818594	50	127
148.89716553287982	149.4080045351474	81	127
148.89716553287982	149.4080045351474	42	127
149.0132879818594	149.1409977324263	57	127
149.1409977324263	149.25707482993198	50	127
149.25707482993198	149.4080045351474	57	127
149.4080045351474	149.52412698412698	50	127
149.4080045351474	149.88403628117914	86	127
149.4080045351474	149.88403628117914	41	127
149.52412698412698	149.6518367346939	57	127
149.6518367346939	149.76791383219955	50	127
149.76791383219955	149.88403628117914	57	127
149.88403628117914	150.00013605442177	50	127
149.88403628117914	150.36004535147393	79	127
149.88403628117914	150.36004535147393	40	127
150.00013605442177	150.12784580498865	55	127
150.12784580498865	150.2439455782313	50	127
150.2439455782313	150.36004535147393	55	127
150.36004535147393	150.47614512471657	50	127
150.36004535147393	150.83603174603175	83	127
150.36004535147393	150.83603174603175	38	127
150.47614512471657	150.60385487528345	54	127
150.60385487528345	150.71995464852608	50	127
150.71995464852608	150.83603174603175	54	127
150.83603174603175	150.95215419501133	52	127
150.83603174603175	151.3120634920635	81	127
150.83603174603175	151.3120634920635	37	127
150.95215419501133	151.07986394557824	55	127
151.07986394557824	151.1959410430839	52	127
151.1959410430839	151.3120634920635	55	127
151.3120634920635	151.42816326530613	57	127
151.3120634920635	151.78807256235828	78	127
151.3120634920635	151.78807256235828	38	127
151.42816326530613	151.55585034013606	60	127
151.55585034013606	151.67197278911564	57	127
151.67197278911564	151.78807256235828	60	127
151.78807256235828	152.07832199546485	67	127
151.78807256235828	152.07832199546485	55	127
151.78807256235828	152.07832199546485	43	127
152.07832199546485	152.19442176870749	79	127
152.07832199546485	152.31052154195012	57	127
152.19442176870749	152.31052154195012	78	127
152.31052154195012	152.4265986394558	79	127
152.31052154195012	152.55433106575964	58	127
152.4265986394558	152.55433106575964	74	127
152.55433106575964	152.67043083900228	57	127
152.55433106575964	152.67043083900228	72	127
152.67043083900228	152.79814058956916	55	127
152.67043083900228	152.79814058956916	70	127
152.79814058956916	152.9142403628118	72	127
152.79814058956916	153.2509297052154	57	127
152.9142403628118	153.01873015873016	75	127
153.01873015873016	153.1348299319728	74	127
153.1348299319728	153.2509297052154	72	127
153.2509297052154	153.36702947845805	70	127
153.2509297052154	153.761768707483	62	127
153.36702947845805	153.52956916099774	69	127
153.52956916099774	153.64566893424038	67	127
153.64566893424038	153.761768707483	66	127
153.761768707483	153.86625850340135	67	127
153.761768707483	154.17972789115646	55	127
153.86625850340135	153.99396825396826	70	127
153.99396825396826	154.08684807256236	69	127
154.08684807256236	154.17972789115646	67	127
154.17972789115646	154.2958276643991	65	127
154.17972789115646	154.65573696145125	57	127
154.2958276643991	154.42353741496598	64	127
154.42353741496598	154.53963718820862	62	127
154.53963718820862	154.65573696145125	61	127
154.65573696145125	154.77181405895692	62	127
154.65573696145125	155.1433560090703	53	127
154.77181405895692	154.89954648526077	64	127
154.89954648526077	155.0156462585034	65	127
155.0156462585034	155.1433560090703	64	127
155.1433560090703	155.25945578231293	65	127
155.1433560090703	155.63097505668935	50	127
155.25945578231293	155.38714285714286	67	127
155.38714285714286	155.5148752834467	69	127
155.5148752834467	155.63097505668935	71	127
155.63097505668935	155.74705215419502	72	127
155.63097505668935	155.89798185941044	72	127
155.63097505668935	157.12863945578232	48	127
155.89798185941044	155.9908843537415	74	127
155.89798185941044	156.01410430839002	60	127
156.01410430839002	156.14181405895692	59	127
156.14181405895692	156.2695238095238	60	127
156.14181405895692	156.38562358276644	75	127
156.2695238095238	156.38562358276644	55	127
156.38562358276644	156.50172335600908	74	127
156.38562358276644	156.50172335600908	53	127
156.50172335600908	156.64104308390023	72	127
156.50172335600908	156.64104308390023	51	127
156.64104308390023	156.76873015873016	53	127
156.64104308390023	157.12863945578232	74	127
156.76873015873016	156.89646258503402	56	127
156.89646258503402	157.01256235827665	55	127
157.01256235827665	157.12863945578232	53	127
157.12863945578232	157.25637188208617	51	127
157.12863945578232	157.5930612244898	79	127
157.12863945578232	157.5930612244898	55	127
157.25637188208617	157.3724716553288	50	127
157.3724716553288	157.48857142857142	48	127
157.48857142857142	157.5930612244898	47	127
157.5930612244898	157.70916099773243	48	127
157.5930612244898	158.0574603174603	72	127
157.5930612244898	158.0574603174603	55	127
157.70916099773243	157.82526077097506	51	127
157.82526077097506	157.94133786848073	48	127
157.94133786848073	158.0574603174603	46	127
158.0574603174603	158.18517006802722	54	127
158.0574603174603	158.18517006802722	45	127
158.0574603174603	158.55666666666667	74	127
158.18517006802722	158.30124716553289	55	127
158.18517006802722	158.30124716553289	43	127
158.30124716553289	158.440589569161	57	127
158.30124716553289	158.440589569161	42	127
158.440589569161	158.55666666666667	60	127
158.440589569161	158.55666666666667	38	127
158.55666666666667	158.64956916099774	58	127
158.55666666666667	158.68439909297052	43	127
158.55666666666667	159.05591836734695	70	127
158.68439909297052	158.80049886621316	45	127
158.80049886621316	158.91657596371883	60	127
158.80049886621316	158.9398185941043	46	127
158.9398185941043	159.05591836734695	45	127
159.05591836734695	159.18362811791383	46	127
159.05591836734695	159.58997732426303	67	127
159.05591836734695	159.58997732426303	62	127
159.18362811791383	159.29972789115646	48	127
159.29972789115646	159.4274149659864	50	127
159.4274149659864	159.58997732426303	43	127
159.58997732426303	159.71768707482994	72	127
159.58997732426303	160.04274376417234	67	127
159.58997732426303	160.04274376417234	87	127
159.58997732426303	160.04274376417234	48	127
159.71768707482994	159.8337641723356	75	127
159.8337641723356	159.93825396825397	72	127
159.93825396825397	160.04274376417234	70	127
160.04274376417234	160.1704761904762	69	127
160.04274376417234	160.1704761904762	66	127
160.04274376417234	160.28657596371883	86	127
160.04274376417234	160.49555555555557	50	127
160.1704761904762	160.28657596371883	67	127
160.1704761904762	160.28657596371883	67	127
160.28657596371883	160.40267573696144	66	127
160.28657596371883	160.40267573696144	69	127
160.28657596371883	160.49555555555557	84	127
160.40267573696144	160.49555555555557	62	127
160.40267573696144	160.49555555555557	72	127
160.49555555555557	160.62326530612245	67	127
160.49555555555557	160.7393650793651	70	127
160.49555555555557	160.97156462585033	46	127
160.49555555555557	161.43596371882086	86	127
160.62326530612245	160.7393650793651	69	127
160.7393650793651	160.85544217687075	70	127
160.7393650793651	160.97156462585033	72	127
160.85544217687075	160.97156462585033	69	127
160.97156462585033	161.09927437641724	70	127
160.97156462585033	161.43596371882086	74	127
160.97156462585033	161.43596371882086	43	127
161.09927437641724	161.2153514739229	72	127
161.2153514739229	161.31984126984128	74	127
161.31984126984128	161.43596371882086	79	127
161.43596371882086	161.56367346938777	72	127
161.43596371882086	161.92358276643992	79	127
161.43596371882086	161.92358276643992	87	127
161.43596371882086	161.92358276643992	48	127
161.56367346938777	161.67977324263038	75	127
161.67977324263038	161.80748299319728	72	127
161.80748299319728	161.92358276643992	70	127
161.92358276643992	162.0512925170068	78	127
161.92358276643992	162.0512925170068	69	127
161.92358276643992	162.15578231292517	86	127
161.92358276643992	162.38798185941044	50	127
162.0512925170068	162.15578231292517	79	127
162.0512925170068	162.15578231292517	67	127
162.15578231292517	162.2718820861678	81	127
162.15578231292517	162.2718820861678	66	127
162.15578231292517	162.38798185941044	84	127
162.2718820861678	162.38798185941044	84	127
162.2718820861678	162.38798185941044	62	127
162.38798185941044	162.51569160997732	67	127
162.38798185941044	162.63179138321996	82	127
162.38798185941044	162.8639909297052	86	127
162.38798185941044	162.8639909297052	46	127
162.51569160997732	162.63179138321996	69	127
162.63179138321996	162.74786848072563	70	127
162.63179138321996	162.8639909297052	84	127
162.74786848072563	162.8639909297052	69	127
162.8639909297052	162.99170068027212	70	127
162.8639909297052	163.10777777777778	86	127
162.8639909297052	163.35160997732427	82	127
162.8639909297052	163.35160997732427	43	127
162.99170068027212	163.10777777777778	67	127
163.10777777777778	163.20068027210885	74	127
163.10777777777778	163.22390022675737	62	127
163.22390022675737	163.35160997732427	58	127
163.35160997732427	163.5025396825397	75	127
163.35160997732427	163.87403628117914	58	127
163.35160997732427	163.87403628117914	87	127
163.35160997732427	163.87403628117914	42	127
163.5025396825397	163.61861678004536	78	127
163.61861678004536	163.73473922902494	75	127
163.73473922902494	163.87403628117914	74	127
163.87403628117914	163.99015873015873	72	127
163.87403628117914	163.99015873015873	57	127
163.87403628117914	164.10625850340136	41	127
163.87403628117914	164.35006802721088	89	127
163.99015873015873	164.10625850340136	70	127
163.99015873015873	164.10625850340136	58	127
164.10625850340136	164.222358276644	69	127
164.10625850340136	164.222358276644	60	127
164.10625850340136	164.35006802721088	39	127
164.222358276644	164.35006802721088	65	127
164.222358276644	164.35006802721088	63	127
164.35006802721088	164.46616780045352	70	127
164.35006802721088	164.58226757369616	62	127
164.35006802721088	164.83768707482994	86	127
164.35006802721088	165.3136961451247	41	127
164.46616780045352	164.58226757369616	72	127
164.58226757369616	164.69836734693877	74	127
164.58226757369616	164.83768707482994	63	127
164.69836734693877	164.83768707482994	72	127
164.83768707482994	164.95378684807255	74	127
164.83768707482994	165.3136961451247	65	127
164.83768707482994	165.3136961451247	82	127
164.95378684807255	165.0698866213152	75	127
165.0698866213152	165.18598639455783	77	127
165.18598639455783	165.3136961451247	82	127
165.3136961451247	165.42979591836735	63	127
165.3136961451247	165.7897052154195	70	127
165.3136961451247	165.7897052154195	87	127
165.3136961451247	165.7897052154195	42	127
165.42979591836735	165.54589569160999	66	127
165.54589569160999	165.66197278911565	63	127
165.66197278911565	165.7897052154195	62	127
165.7897052154195	165.90580498866214	69	127
165.7897052154195	165.90580498866214	60	127
165.7897052154195	166.03351473922902	41	127
165.7897052154195	166.2773015873016	89	127
165.90580498866214	166.03351473922902	70	127
165.90580498866214	166.03351473922902	58	127
166.03351473922902	166.14961451247166	72	127
166.03351473922902	166.14961451247166	57	127
166.03351473922902	166.2773015873016	39	127
166.14961451247166	166.2773015873016	75	127
166.14961451247166	166.2773015873016	53	127
166.2773015873016	166.39342403628117	58	127
166.2773015873016	166.5095238095238	74	127
166.2773015873016	166.75333333333333	86	127
166.2773015873016	167.22934240362812	41	127
166.39342403628117	166.5095238095238	60	127
166.5095238095238	166.62562358276645	62	127
166.5095238095238	166.75333333333333	75	127
166.62562358276645	166.75333333333333	60	127
166.75333333333333	166.86943310657597	62	127
166.75333333333333	166.9855328798186	77	127
166.75333333333333	167.22934240362812	82	127
166.86943310657597	166.9855328798186	63	127
166.9855328798186	167.0784126984127	74	127
166.9855328798186	167.10163265306122	65	127
167.10163265306122	167.22934240362812	70	127
167.22934240362812	167.34544217687076	87	127
167.22934240362812	167.70532879818595	78	127
167.22934240362812	167.70532879818595	75	127
167.22934240362812	167.70532879818595	45	127
167.34544217687076	167.46154195011337	89	127
167.46154195011337	167.577641723356	90	127
167.577641723356	167.70532879818595	87	127
167.70532879818595	167.82145124716553	84	127
167.70532879818595	167.93755102040816	77	127
167.70532879818595	167.93755102040816	74	127
167.82145124716553	167.93755102040816	86	127
167.93755102040816	168.0536507936508	87	127
167.93755102040816	168.0536507936508	45	127
167.93755102040816	168.18136054421768	75	127
167.93755102040816	168.18136054421768	72	127
168.0536507936508	168.18136054421768	90	127
168.0536507936508	168.18136054421768	46	127
168.18136054421768	168.29746031746032	81	127
168.18136054421768	168.29746031746032	48	127
168.18136054421768	168.6457596371882	75	127
168.18136054421768	168.6457596371882	72	127
168.29746031746032	168.41356009070296	82	127
168.29746031746032	168.41356009070296	46	127
168.41356009070296	168.51804988662133	84	127
168.41356009070296	168.51804988662133	45	127
168.51804988662133	168.6457596371882	82	127
168.51804988662133	168.6457596371882	43	127
168.6457596371882	168.76185941043084	81	127
168.6457596371882	168.87795918367348	74	127
168.6457596371882	168.87795918367348	70	127
168.6457596371882	168.87795918367348	42	127
168.76185941043084	168.87795918367348	82	127
168.87795918367348	168.9940589569161	84	127
168.87795918367348	169.121768707483	72	127
168.87795918367348	169.121768707483	68	127
168.9940589569161	169.121768707483	87	127
169.121768707483	169.22625850340137	75	127
169.121768707483	169.58616780045352	66	127
169.121768707483	169.58616780045352	63	127
169.121768707483	169.58616780045352	51	127
169.22625850340137	169.34233560090703	77	127
169.34233560090703	169.45845804988662	78	127
169.45845804988662	169.58616780045352	75	127
169.58616780045352	169.7022448979592	72	127
169.58616780045352	169.81836734693877	65	127
169.58616780045352	169.81836734693877	62	127
169.7022448979592	169.81836734693877	74	127
169.81836734693877	169.9344671201814	75	127
169.81836734693877	169.9344671201814	51	127
169.81836734693877	170.06215419501135	63	127
169.81836734693877	170.06215419501135	60	127
169.9344671201814	170.06215419501135	78	127
169.9344671201814	170.06215419501135	53	127
170.06215419501135	170.16666666666666	69	127
170.06215419501135	170.16666666666666	54	127
170.06215419501135	170.5265759637188	63	127
170.06215419501135	170.5265759637188	60	127
170.16666666666666	170.2827664399093	70	127
170.16666666666666	170.2827664399093	53	127
170.2827664399093	170.39886621315193	72	127
170.2827664399093	170.39886621315193	51	127
170.39886621315193	170.5265759637188	70	127
170.39886621315193	170.5265759637188	50	127
170.5265759637188	170.64267573696145	69	127
170.5265759637188	170.7587755102041	65	127
170.5265759637188	170.7587755102041	62	127
170.5265759637188	170.7587755102041	48	127
170.64267573696145	170.7587755102041	70	127
170.7587755102041	170.9097052154195	72	127
170.7587755102041	171.0374149659864	66	127
170.7587755102041	171.0374149659864	63	127
170.9097052154195	171.0374149659864	75	127
170.97934240362812	171.0374149659864	67	127
171.0374149659864	171.15351473922902	55	127
171.0374149659864	171.26961451247166	58	127
171.0374149659864	171.26961451247166	62	127
171.0374149659864	171.53664399092972	70	127
171.0374149659864	171.53664399092972	74	127
171.15351473922902	171.26961451247166	57	127
171.26961451247166	171.39732426303854	58	127
171.39732426303854	171.53664399092972	57	127
171.53664399092972	171.65274376417233	55	127
171.53664399092972	171.76884353741497	69	127
171.53664399092972	171.76884353741497	72	127
171.65274376417233	171.76884353741497	57	127
171.76884353741497	171.8849433106576	58	127
171.76884353741497	172.00102040816327	67	127
171.76884353741497	172.00102040816327	70	127
171.8849433106576	172.00102040816327	62	127
172.00102040816327	172.11714285714285	46	127
172.00102040816327	172.50027210884355	74	127
172.00102040816327	172.50027210884355	82	127
172.11714285714285	172.24485260770976	48	127
172.24485260770976	172.3841723356009	50	127
172.3841723356009	172.50027210884355	48	127
172.50027210884355	172.6163492063492	46	127
172.50027210884355	172.75569160997733	72	127
172.50027210884355	172.75569160997733	81	127
172.6163492063492	172.75569160997733	48	127
172.75569160997733	172.8834013605442	50	127
172.75569160997733	172.99950113378685	70	127
172.75569160997733	172.99950113378685	79	127
172.8834013605442	172.99950113378685	55	127
172.99950113378685	173.1156009070295	43	127
172.99950113378685	173.47551020408164	82	127
172.99950113378685	173.47551020408164	86	127
173.1156009070295	173.23167800453515	45	127
173.23167800453515	173.359410430839	46	127
173.359410430839	173.47551020408164	45	127
173.47551020408164	173.59160997732425	43	127
173.47551020408164	173.7077097505669	81	127
173.47551020408164	173.7077097505669	84	127
173.59160997732425	173.7077097505669	45	127
173.7077097505669	173.8354195011338	46	127
173.7077097505669	174.07922902494332	79	127
173.7077097505669	174.07922902494332	82	127
173.8354195011338	174.07922902494332	50	127
174.07922902494332	174.19532879818595	40	127
174.07922902494332	174.55521541950114	85	127
174.07922902494332	174.55521541950114	94	127
174.19532879818595	174.31142857142856	41	127
174.31142857142856	174.43913832199547	43	127
174.43913832199547	174.55521541950114	41	127
174.55521541950114	174.67133786848072	40	127
174.55521541950114	174.78743764172336	84	127
174.55521541950114	174.78743764172336	93	127
174.67133786848072	174.78743764172336	41	127
174.78743764172336	174.9151247165533	43	127
174.78743764172336	175.0544671201814	82	127
174.78743764172336	175.0544671201814	91	127
174.9151247165533	175.0544671201814	46	127
175.0544671201814	175.17054421768708	57	127
175.0544671201814	175.28666666666666	81	127
175.0544671201814	175.28666666666666	41	127
175.0544671201814	176.9584807256236	89	127
175.17054421768708	175.28666666666666	58	127
175.28666666666666	175.41437641723357	60	127
175.28666666666666	175.53045351473924	82	127
175.28666666666666	175.53045351473924	41	127
175.41437641723357	175.53045351473924	58	127
175.53045351473924	175.64657596371882	57	127
175.53045351473924	175.76267573696146	84	127
175.64657596371882	175.76267573696146	58	127
175.76267573696146	175.89038548752833	82	127
175.76267573696146	175.89038548752833	60	127
175.76267573696146	176.00648526077097	41	127
175.89038548752833	176.00648526077097	81	127
175.89038548752833	176.00648526077097	63	127
176.00648526077097	176.1225850340136	58	127
176.00648526077097	176.23868480725625	41	127
176.00648526077097	176.48249433106577	82	127
176.1225850340136	176.23868480725625	60	127
176.23868480725625	176.36639455782313	62	127
176.23868480725625	176.48249433106577	41	127
176.36639455782313	176.48249433106577	60	127
176.48249433106577	176.5985941043084	58	127
176.48249433106577	176.9584807256236	86	127
176.5985941043084	176.714693877551	60	127
176.714693877551	176.84240362811792	62	127
176.714693877551	176.9584807256236	41	127
176.84240362811792	176.9584807256236	65	127
176.9584807256236	177.07460317460317	57	127
176.9584807256236	177.1907029478458	41	127
176.9584807256236	177.4461224489796	79	127
176.9584807256236	177.4461224489796	87	127
177.07460317460317	177.1907029478458	58	127
177.1907029478458	177.33002267573696	60	127
177.1907029478458	177.4461224489796	41	127
177.33002267573696	177.4461224489796	58	127
177.4461224489796	177.56222222222223	57	127
177.4461224489796	177.9221315192744	81	127
177.4461224489796	177.9221315192744	89	127
177.56222222222223	177.6782993197279	58	127
177.6782993197279	177.80603174603175	60	127
177.6782993197279	177.9221315192744	41	127
177.80603174603175	177.9221315192744	63	127
177.9221315192744	178.038231292517	58	127
177.9221315192744	178.17755102040817	41	127
177.9221315192744	178.46780045351474	77	127
177.9221315192744	178.46780045351474	86	127
178.038231292517	178.17755102040817	60	127
178.17755102040817	178.3517006802721	62	127
178.17755102040817	178.46780045351474	41	127
178.3517006802721	178.46780045351474	60	127
178.46780045351474	178.58390022675738	58	127
178.46780045351474	178.95539682539683	74	127
178.46780045351474	178.95539682539683	82	127
178.58390022675738	178.71160997732426	60	127
178.71160997732426	178.83931972789117	62	127
178.71160997732426	178.95539682539683	41	127
178.83931972789117	178.95539682539683	65	127
178.95539682539683	179.0715192743764	57	127
178.95539682539683	179.21081632653062	72	127
178.95539682539683	179.21081632653062	41	127
178.95539682539683	179.94226757369614	81	127
179.0715192743764	179.21081632653062	58	127
179.21081632653062	179.3269387755102	60	127
179.21081632653062	179.4662358276644	74	127
179.21081632653062	179.4662358276644	41	127
179.3269387755102	179.4662358276644	58	127
179.4662358276644	179.582358276644	57	127
179.4662358276644	179.7100680272109	75	127
179.582358276644	179.7100680272109	58	127
179.7100680272109	179.8261678004535	74	127
179.7100680272109	179.8261678004535	60	127
179.7100680272109	179.94226757369614	41	127
179.8261678004535	179.94226757369614	72	127
179.8261678004535	179.94226757369614	63	127
179.94226757369614	180.05836734693878	58	127
179.94226757369614	180.18607709750566	41	127
179.94226757369614	180.41827664399094	74	127
179.94226757369614	180.88267573696146	82	127
180.05836734693878	180.18607709750566	60	127
180.18607709750566	180.3021768707483	62	127
180.18607709750566	180.41827664399094	41	127
180.3021768707483	180.41827664399094	60	127
180.41827664399094	180.53437641723357	58	127
180.41827664399094	180.88267573696146	79	127
180.53437641723357	180.65047619047618	60	127
180.65047619047618	180.76657596371882	62	127
180.65047619047618	180.88267573696146	41	127
180.76657596371882	180.88267573696146	65	127
180.88267573696146	180.99875283446713	53	127
180.88267573696146	181.16131519274376	53	127
180.88267573696146	181.40510204081633	72	127
180.88267573696146	181.40510204081633	75	127
180.99875283446713	181.16131519274376	55	127
181.16131519274376	181.2774149659864	57	127
181.16131519274376	181.40510204081633	53	127
181.2774149659864	181.40510204081633	55	127
181.40510204081633	181.5212244897959	53	127
181.40510204081633	181.88113378684807	74	127
181.40510204081633	181.88113378684807	69	127
181.40510204081633	181.88113378684807	77	127
181.5212244897959	181.64893424036282	55	127
181.64893424036282	181.7650113378685	57	127
181.64893424036282	181.88113378684807	53	127
181.7650113378685	181.88113378684807	60	127
181.88113378684807	181.9972335600907	58	127
181.88113378684807	182.13655328798185	53	127
181.88113378684807	182.36875283446713	70	127
181.88113378684807	182.91442176870748	65	127
181.88113378684807	182.91442176870748	74	127
181.9972335600907	182.13655328798185	60	127
182.13655328798185	182.2526530612245	62	127
182.13655328798185	182.36875283446713	53	127
182.2526530612245	182.36875283446713	60	127
182.36875283446713	182.48485260770974	58	127
182.36875283446713	182.91442176870748	65	127
182.48485260770974	182.64739229024943	60	127
182.64739229024943	182.79832199546485	62	127
182.64739229024943	182.91442176870748	53	127
182.79832199546485	182.91442176870748	65	127
182.91442176870748	183.03052154195012	53	127
182.91442176870748	183.16984126984127	53	127
182.91442176870748	183.4717006802721	72	127
182.91442176870748	183.4717006802721	75	127
183.03052154195012	183.16984126984127	55	127
183.16984126984127	183.35560090702947	57	127
183.16984126984127	183.4717006802721	53	127
183.35560090702947	183.4717006802721	55	127
183.4717006802721	183.58780045351475	53	127
183.4717006802721	183.9477097505669	74	127
183.4717006802721	183.9477097505669	69	127
183.4717006802721	183.9477097505669	77	127
183.58780045351475	183.71551020408162	55	127
183.71551020408162	183.83160997732426	57	127
183.71551020408162	183.9477097505669	53	127
183.83160997732426	183.9477097505669	60	127
183.9477097505669	184.07541950113378	58	127
183.9477097505669	184.2031292517007	53	127
183.9477097505669	184.43532879818594	70	127
183.9477097505669	185.2364172335601	65	127
183.9477097505669	185.2364172335601	74	127
184.07541950113378	184.2031292517007	60	127
184.2031292517007	184.31920634920635	62	127
184.2031292517007	184.43532879818594	53	127
184.31920634920635	184.43532879818594	60	127
184.43532879818594	184.74879818594104	58	127
184.43532879818594	185.2364172335601	65	127
184.74879818594104	184.98099773242632	60	127
184.98099773242632	185.12031746031747	62	127
184.98099773242632	185.2364172335601	53	127
185.12031746031747	185.2364172335601	65	127
185.2364172335601	185.3525170068027	65	127
185.2364172335601	185.72403628117914	75	127
185.2364172335601	189.55532879818594	57	127
185.2364172335601	189.55532879818594	63	127
185.2364172335601	189.55532879818594	41	127
185.3525170068027	185.4918367346939	67	127
185.4918367346939	185.6079365079365	69	127
185.6079365079365	185.72403628117914	67	127
185.72403628117914	185.97945578231293	65	127
185.72403628117914	186.36258503401362	77	127
185.97945578231293	186.11877551020407	67	127
186.11877551020407	186.24648526077098	69	127
186.24648526077098	186.36258503401362	72	127
186.36258503401362	186.53673469387755	65	127
186.36258503401362	186.95469387755102	75	127
186.53673469387755	186.7108843537415	67	127
186.7108843537415	186.83859410430838	69	127
186.83859410430838	186.95469387755102	67	127
186.95469387755102	187.07079365079366	65	127
186.95469387755102	187.45392290249433	77	127
187.07079365079366	187.2101133786848	67	127
187.2101133786848	187.32621315192745	69	127
187.32621315192745	187.45392290249433	72	127
187.45392290249433	187.60485260770974	65	127
187.45392290249433	187.73256235827665	75	127
187.60485260770974	187.73256235827665	67	127
187.73256235827665	187.84863945578232	69	127
187.73256235827665	187.9647619047619	77	127
187.84863945578232	187.9647619047619	72	127
187.9647619047619	188.19696145124718	69	127
187.9647619047619	188.32467120181406	79	127
188.19696145124718	188.32467120181406	70	127
188.32467120181406	188.4407709750567	72	127
188.32467120181406	188.55687074829933	81	127
188.4407709750567	188.55687074829933	75	127
188.55687074829933	188.69619047619048	65	127
188.55687074829933	188.81229024943312	82	127
188.69619047619048	188.81229024943312	67	127
188.81229024943312	188.92839002267573	69	127
188.81229024943312	189.05609977324264	84	127
188.92839002267573	189.05609977324264	72	127
189.05609977324264	189.19541950113378	69	127
189.05609977324264	189.31151927437642	86	127
189.19541950113378	189.31151927437642	70	127
189.31151927437642	189.4392290249433	72	127
189.31151927437642	189.55532879818594	87	127
189.4392290249433	189.55532879818594	75	127
189.55532879818594	189.8455782312925	74	127
189.55532879818594	189.8455782312925	58	127
189.55532879818594	189.8455782312925	62	127
189.55532879818594	189.8455782312925	86	127
189.55532879818594	189.8455782312925	46	127
189.8455782312925	190.1358276643991	84	127
189.8455782312925	190.1358276643991	48	127
189.8455782312925	194.25736961451247	65	127
189.8455782312925	194.25736961451247	53	127
190.1358276643991	190.37963718820862	86	127
190.1358276643991	190.37963718820862	50	127
190.37963718820862	190.55378684807258	84	127
190.37963718820862	190.55378684807258	48	127
190.55378684807258	190.6698866213152	82	127
190.55378684807258	190.6698866213152	46	127
190.6698866213152	191.23877551020408	84	127
190.6698866213152	191.23877551020408	48	127
191.23877551020408	191.94698412698412	89	127
191.23877551020408	191.94698412698412	53	127
191.94698412698412	192.4578231292517	82	127
191.94698412698412	192.4578231292517	46	127
192.4578231292517	192.9918820861678	84	127
192.4578231292517	192.9918820861678	48	127
192.9918820861678	193.50272108843538	81	127
192.9918820861678	193.50272108843538	45	127
193.50272108843538	194.25736961451247	77	127
193.50272108843538	194.25736961451247	41	127
194.25736961451247	194.67532879818594	79	127
194.25736961451247	194.67532879818594	43	127
194.25736961451247	198.65755102040816	62	127
194.25736961451247	198.65755102040816	50	127
194.67532879818594	194.89591836734695	81	127
194.67532879818594	194.89591836734695	45	127
194.89591836734695	195.17455782312925	82	127
194.89591836734695	195.17455782312925	46	127
195.17455782312925	195.30226757369616	81	127
195.17455782312925	195.30226757369616	45	127
195.30226757369616	195.40675736961452	79	127
195.30226757369616	195.40675736961452	43	127
195.40675736961452	195.89437641723356	81	127
195.40675736961452	195.89437641723356	45	127
195.89437641723356	196.47487528344672	86	127
195.89437641723356	196.47487528344672	50	127
196.47487528344672	197.05537414965985	79	127
196.47487528344672	197.05537414965985	43	127
197.05537414965985	197.5778231292517	81	127
197.05537414965985	197.5778231292517	45	127
197.5778231292517	198.13510204081632	77	127
197.5778231292517	198.13510204081632	41	127
198.13510204081632	198.65755102040816	74	127
198.13510204081632	198.65755102040816	38	127
198.65755102040816	198.8897505668934	67	127
198.65755102040816	198.8897505668934	55	127
198.65755102040816	198.8897505668934	72	127
198.65755102040816	198.8897505668934	39	127
198.8897505668934	199.13356009070296	74	127
199.13356009070296	199.3657596371882	75	127
199.3657596371882	199.48185941043084	74	127
199.48185941043084	199.5863492063492	72	127
199.5863492063492	199.76049886621314	73	127
199.5863492063492	199.76049886621314	55	127
199.5863492063492	199.76049886621314	82	127
199.5863492063492	199.76049886621314	40	127
199.76049886621314	200.03913832199547	57	127
200.03913832199547	200.5964172335601	58	127
200.5964172335601	200.73573696145124	57	127
200.73573696145124	201.03759637188207	55	127
201.03759637188207	201.29301587301586	70	127
201.03759637188207	201.29301587301586	62	127
201.03759637188207	201.29301587301586	41	127
201.29301587301586	201.54843537414965	72	127
201.54843537414965	201.8154648526077	74	127
201.8154648526077	202.00122448979593	72	127
202.00122448979593	202.2914739229025	70	127
202.2914739229025	202.84875283446712	78	127
202.2914739229025	202.84875283446712	60	127
202.2914739229025	202.84875283446712	63	127
202.2914739229025	202.84875283446712	69	127
202.2914739229025	202.84875283446712	41	127
202.2914739229025	204.49736961451248	78	127
204.49736961451248	205.41455782312926	77	127
205.41455782312926	206.35496598639455	75	127
206.35496598639455	206.7148752834467	73	127
206.7148752834467	207.06317460317462	72	127
207.06317460317462	207.1908843537415	63	127
207.06317460317462	207.29537414965986	70	127
207.1908843537415	207.29537414965986	65	127
207.29537414965986	207.42308390022677	66	127
207.29537414965986	208.4099319727891	69	127
207.29537414965986	208.4099319727891	41	127
207.29537414965986	208.68857142857144	63	127
207.42308390022677	207.53918367346938	63	127
207.53918367346938	207.67850340136056	60	127
207.67850340136056	207.87587301587303	58	127
207.87587301587303	207.99197278911564	57	127
207.99197278911564	208.10807256235827	60	127
208.10807256235827	208.23578231292518	63	127
208.23578231292518	208.4099319727891	66	127
208.4099319727891	208.5028117913832	65	127
208.4099319727891	209.43160997732426	70	127
208.4099319727891	209.43160997732426	46	127
208.68857142857144	208.96721088435373	62	127
208.68857142857144	209.18780045351474	62	127
208.96721088435373	209.18780045351474	58	127
209.18780045351474	209.31551020408162	60	127
209.18780045351474	209.43160997732426	65	127
209.31551020408162	209.43160997732426	62	127
209.43160997732426	209.5477097505669	63	127
209.43160997732426	210.46489795918367	57	127
209.43160997732426	210.46489795918367	41	127
209.43160997732426	210.65065759637187	75	127
209.5477097505669	209.67541950113377	60	127
209.67541950113377	209.81473922902495	57	127
209.81473922902495	209.96566893424037	54	127
209.96566893424037	210.10498866213152	53	127
210.10498866213152	210.22108843537416	57	127
210.22108843537416	210.34879818594104	60	127
210.34879818594104	210.46489795918367	63	127
210.46489795918367	210.65065759637187	58	127
210.46489795918367	210.65065759637187	62	127
210.46489795918367	211.44013605442177	46	127
210.65065759637187	210.89446712018142	65	127
210.65065759637187	210.89446712018142	74	127
210.65065759637187	211.17310657596371	58	127
210.89446712018142	211.17310657596371	62	127
210.89446712018142	211.17310657596371	70	127
211.17310657596371	211.31242630385486	60	127
211.17310657596371	211.31242630385486	57	127
211.17310657596371	211.44013605442177	77	127
211.31242630385486	211.44013605442177	62	127
211.31242630385486	211.44013605442177	58	127
211.44013605442177	211.56784580498865	60	127
211.44013605442177	211.97419501133786	63	127
211.44013605442177	212.43859410430838	41	127
211.44013605442177	212.63596371882088	75	127
211.56784580498865	211.69555555555556	57	127
211.69555555555556	211.85809523809525	54	127
211.85809523809525	211.97419501133786	53	127
211.97419501133786	212.0902947845805	51	127
211.97419501133786	212.43859410430838	72	127
212.0902947845805	212.20639455782313	53	127
212.20639455782313	212.32249433106577	54	127
212.32249433106577	212.43859410430838	60	127
212.43859410430838	212.50825396825397	72	127
212.43859410430838	212.50825396825397	58	127
212.43859410430838	212.8797732426304	46	127
212.63596371882088	212.76367346938775	74	127
212.63596371882088	213.11197278911564	70	127
212.63596371882088	213.11197278911564	53	127
212.76367346938775	212.8797732426304	72	127
212.8797732426304	213.11197278911564	74	127
212.8797732426304	213.3790022675737	41	127
213.11197278911564	213.26290249433106	65	127
213.11197278911564	213.26290249433106	57	127
213.11197278911564	213.63442176870748	75	127
213.26290249433106	213.3790022675737	72	127
213.26290249433106	213.3790022675737	60	127
213.3790022675737	213.63442176870748	72	127
213.3790022675737	213.63442176870748	58	127
213.3790022675737	213.8550113378685	46	127
213.63442176870748	213.73891156462585	74	127
213.63442176870748	214.11043083900228	70	127
213.63442176870748	214.11043083900228	53	127
213.73891156462585	213.8550113378685	72	127
213.8550113378685	214.11043083900228	74	127
213.8550113378685	214.38907029478457	41	127
214.11043083900228	214.27297052154196	65	127
214.11043083900228	214.27297052154196	57	127
214.11043083900228	214.5980498866213	75	127
214.27297052154196	214.38907029478457	72	127
214.27297052154196	214.38907029478457	60	127
214.38907029478457	214.5980498866213	72	127
214.38907029478457	214.5980498866213	58	127
214.38907029478457	214.8302494331066	46	127
214.5980498866213	214.71414965986395	74	127
214.5980498866213	215.0740589569161	70	127
214.5980498866213	215.0740589569161	53	127
214.71414965986395	214.8302494331066	72	127
214.8302494331066	215.0740589569161	74	127
214.8302494331066	215.34108843537416	41	127
215.0740589569161	215.21337868480725	57	127
215.0740589569161	215.34108843537416	65	127
215.0740589569161	215.45718820861677	75	127
215.21337868480725	215.34108843537416	60	127
215.34108843537416	216.47886621315192	65	127
215.34108843537416	216.47886621315192	59	127
215.34108843537416	219.52068027210885	49	127
215.45718820861677	215.6081179138322	73	127
215.6081179138322	215.7590476190476	71	127
215.7590476190476	215.87514739229024	68	127
215.87514739229024	216.0144671201814	65	127
216.0144671201814	216.15378684807257	68	127
216.15378684807257	216.35115646258504	71	127
216.35115646258504	216.47886621315192	75	127
216.47886621315192	216.7342857142857	73	127
216.47886621315192	217.5469841269841	66	127
216.47886621315192	217.5469841269841	58	127
216.7342857142857	217.26834467120182	70	127
217.26834467120182	217.40766439909297	70	127
217.40766439909297	217.5469841269841	73	127
217.5469841269841	217.65147392290248	71	127
217.5469841269841	218.5222222222222	65	127
217.5469841269841	218.5222222222222	59	127
217.8024036281179	217.89528344671203	70	127
218.04621315192745	218.5222222222222	68	127
218.5222222222222	219.03306122448978	70	127
218.5222222222222	219.52068027210885	66	127
218.5222222222222	219.52068027210885	58	127
219.27687074829933	219.4045804988662	68	127
219.4045804988662	219.52068027210885	70	127
219.52068027210885	219.6367800453515	71	127
219.52068027210885	220.4494784580499	59	127
219.52068027210885	220.4494784580499	53	127
219.52068027210885	222.44639455782314	37	127
219.6367800453515	219.76448979591837	70	127
219.76448979591837	219.86897959183673	68	127
219.86897959183673	219.98507936507937	66	127
219.98507936507937	220.08956916099774	65	127
220.08956916099774	220.21727891156462	68	127
220.21727891156462	220.33337868480726	71	127
220.33337868480726	220.4494784580499	75	127
220.4494784580499	220.70489795918368	73	127
220.4494784580499	221.45954648526077	58	127
220.4494784580499	221.45954648526077	54	127
220.70489795918368	221.19251700680272	70	127
221.19251700680272	221.32022675736962	70	127
221.32022675736962	221.45954648526077	73	127
221.45954648526077	221.55242630385487	71	127
221.45954648526077	222.44639455782314	59	127
221.45954648526077	222.44639455782314	53	127
221.7033560090703	221.7962358276644	70	127
221.9239455782313	222.44639455782314	68	127
222.44639455782314	222.72503401360544	42	127
222.44639455782314	222.93401360544217	66	127
222.44639455782314	223.1778231292517	58	127
222.44639455782314	223.1778231292517	54	127
222.72503401360544	222.93401360544217	46	127
222.93401360544217	223.1778231292517	78	127
222.93401360544217	223.1778231292517	49	127
223.1778231292517	223.3055328798186	73	127
223.1778231292517	223.42163265306124	54	127
223.3055328798186	223.42163265306124	73	127
223.42163265306124	223.54934240362812	74	127
223.42163265306124	223.54934240362812	56	127
223.42163265306124	223.67705215419502	64	127
223.42163265306124	223.67705215419502	71	127
223.42163265306124	223.67705215419502	80	127
223.42163265306124	223.67705215419502	40	127
223.54934240362812	223.67705215419502	73	127
223.54934240362812	223.67705215419502	56	127
223.67705215419502	223.8047619047619	71	127
223.67705215419502	223.8047619047619	59	127
223.67705215419502	223.92086167800454	52	127
223.8047619047619	223.92086167800454	69	127
223.8047619047619	223.92086167800454	59	127
223.92086167800454	224.07179138321996	68	127
223.92086167800454	224.07179138321996	52	127
223.92086167800454	224.1878911564626	64	127
223.92086167800454	224.1878911564626	74	127
223.92086167800454	224.1878911564626	83	127
223.92086167800454	224.1878911564626	40	127
224.07179138321996	224.1878911564626	71	127
224.07179138321996	224.1878911564626	52	127
224.1878911564626	224.3039909297052	74	127
224.1878911564626	224.3039909297052	56	127
224.1878911564626	224.43170068027212	52	127
224.3039909297052	224.43170068027212	78	127
224.3039909297052	224.43170068027212	56	127
224.43170068027212	224.559410430839	57	127
224.43170068027212	224.67551020408163	76	127
224.43170068027212	224.67551020408163	64	127
224.43170068027212	224.67551020408163	73	127
224.43170068027212	224.67551020408163	81	127
224.43170068027212	224.67551020408163	40	127
224.559410430839	224.67551020408163	57	127
224.67551020408163	224.80321995464854	61	127
224.67551020408163	224.9657596371882	52	127
224.67551020408163	225.221179138322	73	127
224.80321995464854	224.9657596371882	61	127
224.9657596371882	225.10507936507938	52	127
224.9657596371882	225.221179138322	69	127
224.9657596371882	225.221179138322	76	127
224.9657596371882	225.221179138322	85	127
224.9657596371882	225.221179138322	40	127
225.10507936507938	225.221179138322	52	127
225.221179138322	225.33727891156462	73	127
225.221179138322	225.33727891156462	57	127
225.221179138322	225.441768707483	52	127
225.33727891156462	225.441768707483	76	127
225.33727891156462	225.441768707483	57	127
225.441768707483	225.5346485260771	74	127
225.441768707483	225.5694784580499	56	127
225.441768707483	225.6855782312925	64	127
225.441768707483	225.6855782312925	71	127
225.441768707483	225.6855782312925	78	127
225.441768707483	225.6855782312925	40	127
225.5694784580499	225.6855782312925	56	127
225.6855782312925	225.7784580498866	73	127
225.6855782312925	225.80167800453515	59	127
225.6855782312925	225.9177777777778	52	127
225.80167800453515	225.9177777777778	59	127
225.9177777777778	226.04548752834467	52	127
225.9177777777778	226.1615873015873	64	127
225.9177777777778	226.1615873015873	74	127
225.9177777777778	226.1615873015873	83	127
225.9177777777778	226.1615873015873	40	127
225.9177777777778	226.39378684807255	71	127
226.04548752834467	226.1615873015873	52	127
226.1615873015873	226.27768707482994	56	127
226.1615873015873	226.39378684807255	52	127
226.27768707482994	226.39378684807255	56	127
226.39378684807255	226.53310657596373	57	127
226.39378684807255	226.64920634920634	64	127
226.39378684807255	226.64920634920634	73	127
226.39378684807255	226.64920634920634	81	127
226.39378684807255	226.64920634920634	40	127
226.39378684807255	226.92784580498866	69	127
226.53310657596373	226.64920634920634	57	127
226.64920634920634	226.76530612244898	61	127
226.64920634920634	226.92784580498866	52	127
226.76530612244898	226.92784580498866	61	127
226.92784580498866	227.09038548752835	52	127
226.92784580498866	227.20648526077096	69	127
226.92784580498866	227.20648526077096	76	127
226.92784580498866	227.20648526077096	85	127
226.92784580498866	227.20648526077096	40	127
227.09038548752835	227.20648526077096	52	127
227.20648526077096	227.3225850340136	69	127
227.20648526077096	227.3225850340136	57	127
227.20648526077096	227.43868480725624	52	127
227.3225850340136	227.43868480725624	73	127
227.3225850340136	227.43868480725624	57	127
227.43868480725624	227.56639455782312	74	127
227.43868480725624	227.56639455782312	56	127
227.43868480725624	227.67088435374149	64	127
227.43868480725624	227.67088435374149	71	127
227.43868480725624	227.67088435374149	80	127
227.43868480725624	227.67088435374149	40	127
227.56639455782312	227.67088435374149	73	127
227.56639455782312	227.67088435374149	56	127
227.67088435374149	227.78698412698412	71	127
227.67088435374149	227.78698412698412	59	127
227.67088435374149	227.90308390022676	52	127
227.78698412698412	227.90308390022676	69	127
227.78698412698412	227.90308390022676	59	127
227.90308390022676	228.03079365079364	68	127
227.90308390022676	228.03079365079364	52	127
227.90308390022676	228.14689342403628	64	127
227.90308390022676	228.14689342403628	74	127
227.90308390022676	228.14689342403628	83	127
227.90308390022676	228.14689342403628	40	127
228.03079365079364	228.14689342403628	71	127
228.03079365079364	228.14689342403628	52	127
228.14689342403628	228.26299319727892	74	127
228.14689342403628	228.26299319727892	56	127
228.14689342403628	228.37909297052155	52	127
228.26299319727892	228.37909297052155	78	127
228.26299319727892	228.37909297052155	56	127
228.37909297052155	228.50680272108843	57	127
228.37909297052155	228.62290249433107	76	127
228.37909297052155	228.62290249433107	64	127
228.37909297052155	228.62290249433107	73	127
228.37909297052155	228.62290249433107	81	127
228.37909297052155	228.62290249433107	40	127
228.50680272108843	228.62290249433107	57	127
228.62290249433107	228.7390022675737	61	127
228.62290249433107	228.87832199546486	52	127
228.62290249433107	229.12213151927438	73	127
228.7390022675737	228.87832199546486	61	127
228.87832199546486	229.00603174603174	52	127
228.87832199546486	229.12213151927438	69	127
228.87832199546486	229.12213151927438	76	127
228.87832199546486	229.12213151927438	85	127
228.87832199546486	229.12213151927438	40	127
229.00603174603174	229.12213151927438	52	127
229.12213151927438	229.16857142857143	71	127
229.12213151927438	229.16857142857143	74	127
229.12213151927438	229.238231292517	57	127
229.12213151927438	229.35433106575962	52	127
229.238231292517	229.28467120181406	73	127
229.238231292517	229.28467120181406	76	127
229.238231292517	229.35433106575962	57	127
229.35433106575962	229.4007709750567	74	127
229.35433106575962	229.4007709750567	77	127
229.35433106575962	229.59814058956917	50	127
229.35433106575962	229.59814058956917	59	127
229.35433106575962	229.59814058956917	43	127
229.48204081632653	229.52848072562358	72	127
229.48204081632653	229.52848072562358	76	127
229.59814058956917	229.64458049886622	71	127
229.59814058956917	229.64458049886622	74	127
229.59814058956917	229.8419501133787	55	127
229.71424036281178	229.76068027210886	69	127
229.71424036281178	229.76068027210886	72	127
229.8419501133787	229.87678004535147	67	127
229.8419501133787	229.87678004535147	71	127
229.8419501133787	230.0857596371882	55	127
229.8419501133787	230.0857596371882	65	127
229.8419501133787	230.0857596371882	71	127
229.8419501133787	230.0857596371882	43	127
229.95804988662132	230.01609977324264	71	127
229.95804988662132	230.01609977324264	74	127
230.0857596371882	230.13219954648525	74	127
230.0857596371882	230.13219954648525	77	127
230.0857596371882	230.3063492063492	55	127
230.1786394557823	230.22507936507935	77	127
230.1786394557823	230.22507936507935	81	127
230.3063492063492	230.3992290249433	76	127
230.3063492063492	230.3992290249433	79	127
230.3063492063492	230.53854875283446	48	127
230.3063492063492	230.53854875283446	55	127
230.3063492063492	230.53854875283446	64	127
230.3063492063492	230.53854875283446	43	127
230.53854875283446	230.782358276644	55	127
230.53854875283446	231.01455782312925	72	127
230.53854875283446	231.01455782312925	76	127
230.782358276644	231.01455782312925	55	127
230.782358276644	231.01455782312925	64	127
230.782358276644	231.01455782312925	72	127
230.782358276644	231.01455782312925	43	127
231.01455782312925	231.1538775510204	67	127
231.01455782312925	231.1538775510204	55	127
231.1538775510204	231.26997732426304	67	127
231.1538775510204	231.26997732426304	55	127
231.26997732426304	231.38607709750568	68	127
231.26997732426304	231.38607709750568	56	127
231.38607709750568	231.5021768707483	67	127
231.38607709750568	231.5021768707483	55	127
231.5021768707483	231.61827664399092	65	127
231.5021768707483	231.61827664399092	53	127
231.61827664399092	231.76920634920634	63	127
231.61827664399092	231.76920634920634	51	127
231.76920634920634	231.88530612244898	62	127
231.76920634920634	231.88530612244898	50	127
231.88530612244898	232.00140589569162	65	127
231.88530612244898	232.00140589569162	53	127
232.00140589569162	232.11750566893423	65	127
232.00140589569162	232.11750566893423	68	127
232.00140589569162	232.11750566893423	77	127
232.00140589569162	232.11750566893423	56	127
232.11750566893423	232.24521541950114	66	127
232.11750566893423	232.24521541950114	72	127
232.11750566893423	232.24521541950114	78	127
232.11750566893423	232.24521541950114	60	127
232.24521541950114	232.37292517006802	67	127
232.24521541950114	232.37292517006802	79	127
232.24521541950114	232.7560544217687	70	127
232.24521541950114	232.7560544217687	58	127
232.37292517006802	232.5122448979592	65	127
232.37292517006802	232.5122448979592	77	127
232.5122448979592	232.6283446712018	63	127
232.5122448979592	232.6283446712018	75	127
232.6283446712018	232.7560544217687	62	127
232.6283446712018	232.7560544217687	74	127
232.7560544217687	232.86054421768708	63	127
232.7560544217687	232.86054421768708	75	127
232.86054421768708	232.97664399092972	67	127
232.86054421768708	232.97664399092972	79	127
232.97664399092972	233.09274376417233	70	127
232.97664399092972	233.09274376417233	67	127
232.97664399092972	233.09274376417233	82	127
232.97664399092972	233.09274376417233	55	127
233.09274376417233	233.22045351473923	75	127
233.09274376417233	233.22045351473923	67	127
233.09274376417233	233.22045351473923	87	127
233.09274376417233	233.22045351473923	55	127
233.22045351473923	233.30172335600906	74	127
233.22045351473923	233.30172335600906	86	127
233.22045351473923	233.31333333333333	68	127
233.22045351473923	233.31333333333333	56	127
233.31333333333333	233.42943310657597	67	127
233.31333333333333	233.42943310657597	55	127
233.42943310657597	233.54553287981858	65	127
233.42943310657597	233.54553287981858	53	127
233.42943310657597	233.90544217687074	70	127
233.42943310657597	233.90544217687074	82	127
233.54553287981858	233.6732426303855	63	127
233.54553287981858	233.6732426303855	51	127
233.6732426303855	233.78934240362813	62	127
233.6732426303855	233.78934240362813	50	127
233.78934240362813	233.90544217687074	65	127
233.78934240362813	233.90544217687074	53	127
233.90544217687074	234.02154195011337	65	127
233.90544217687074	234.02154195011337	68	127
233.90544217687074	234.02154195011337	77	127
233.90544217687074	234.02154195011337	56	127
234.02154195011337	234.12603174603174	66	127
234.02154195011337	234.12603174603174	72	127
234.02154195011337	234.12603174603174	78	127
234.02154195011337	234.12603174603174	60	127
234.12603174603174	234.21891156462584	70	127
234.12603174603174	234.21891156462584	58	127
234.12603174603174	234.24213151927438	67	127
234.12603174603174	234.24213151927438	79	127
234.24213151927438	234.35823129251702	65	127
234.24213151927438	234.35823129251702	77	127
234.35823129251702	234.47433106575963	63	127
234.35823129251702	234.47433106575963	75	127
234.35823129251702	234.83424036281178	67	127
234.35823129251702	234.83424036281178	55	127
234.47433106575963	234.60204081632654	62	127
234.47433106575963	234.60204081632654	74	127
234.60204081632654	234.71814058956917	63	127
234.60204081632654	234.71814058956917	75	127
234.71814058956917	234.83424036281178	67	127
234.71814058956917	234.83424036281178	79	127
234.83424036281178	234.95034013605442	70	127
234.83424036281178	234.95034013605442	67	127
234.83424036281178	234.95034013605442	82	127
234.83424036281178	234.95034013605442	55	127
234.95034013605442	235.07804988662133	75	127
234.95034013605442	235.07804988662133	67	127
234.95034013605442	235.07804988662133	87	127
234.95034013605442	235.07804988662133	55	127
235.07804988662133	235.17092970521543	72	127
235.07804988662133	235.17092970521543	84	127
235.07804988662133	235.2057596371882	68	127
235.07804988662133	235.2057596371882	56	127
235.2057596371882	235.32185941043085	67	127
235.2057596371882	235.32185941043085	55	127
235.32185941043085	235.43795918367346	65	127
235.32185941043085	235.43795918367346	53	127
235.32185941043085	235.89074829931974	68	127
235.32185941043085	235.89074829931974	80	127
235.43795918367346	235.5888888888889	63	127
235.43795918367346	235.5888888888889	51	127
235.5888888888889	235.7746485260771	50	127
235.5888888888889	235.89074829931974	62	127
235.7746485260771	235.89074829931974	53	127
235.89074829931974	236.00684807256235	68	127
235.89074829931974	236.00684807256235	65	127
235.89074829931974	236.00684807256235	75	127
235.89074829931974	236.00684807256235	56	127
236.00684807256235	236.09972789115648	68	127
236.00684807256235	236.09972789115648	65	127
236.00684807256235	236.09972789115648	75	127
236.00684807256235	236.09972789115648	60	127
236.09972789115648	236.1809977324263	68	127
236.09972789115648	236.1809977324263	65	127
236.09972789115648	236.1809977324263	74	127
236.09972789115648	236.20421768707482	58	127
236.20421768707482	236.32031746031745	55	127
236.32031746031745	236.4364172335601	56	127
236.32031746031745	236.79632653061225	65	127
236.32031746031745	236.79632653061225	62	127
236.32031746031745	236.79632653061225	70	127
236.4364172335601	236.56412698412697	55	127
236.56412698412697	236.6802267573696	53	127
236.6802267573696	236.79632653061225	56	127
236.79632653061225	236.9124263038549	72	127
236.79632653061225	236.9124263038549	68	127
236.79632653061225	236.9124263038549	79	127
236.79632653061225	236.9124263038549	60	127
236.9124263038549	237.04013605442177	72	127
236.9124263038549	237.04013605442177	68	127
236.9124263038549	237.04013605442177	79	127
236.9124263038549	237.04013605442177	63	127
237.04013605442177	237.12140589569162	71	127
237.04013605442177	237.12140589569162	68	127
237.04013605442177	237.12140589569162	77	127
237.04013605442177	237.14462585034013	62	127
237.14462585034013	237.26072562358277	60	127
237.26072562358277	237.38843537414965	59	127
237.26072562358277	237.73673469387754	68	127
237.26072562358277	237.73673469387754	65	127
237.26072562358277	237.73673469387754	74	127
237.38843537414965	237.5045351473923	56	127
237.5045351473923	237.62063492063493	55	127
237.62063492063493	237.73673469387754	59	127
237.73673469387754	237.86444444444444	77	127
237.73673469387754	237.86444444444444	74	127
237.73673469387754	237.86444444444444	82	127
237.73673469387754	237.86444444444444	62	127
237.86444444444444	237.98054421768708	77	127
237.86444444444444	237.98054421768708	74	127
237.86444444444444	237.98054421768708	82	127
237.86444444444444	237.98054421768708	67	127
237.98054421768708	238.07342403628118	74	127
237.98054421768708	238.07342403628118	71	127
237.98054421768708	238.07342403628118	80	127
237.98054421768708	238.0966439909297	65	127
238.0966439909297	238.21274376417233	63	127
238.21274376417233	238.32884353741497	62	127
238.21274376417233	238.65392290249434	71	127
238.21274376417233	238.65392290249434	68	127
238.21274376417233	238.65392290249434	77	127
238.32884353741497	238.43333333333334	60	127
238.43333333333334	238.5378231292517	59	127
238.5378231292517	238.65392290249434	62	127
238.65392290249434	238.78163265306122	77	127
238.65392290249434	238.78163265306122	74	127
238.65392290249434	238.78163265306122	84	127
238.65392290249434	238.78163265306122	65	127
238.78163265306122	238.89773242630386	77	127
238.78163265306122	238.89773242630386	74	127
238.78163265306122	238.89773242630386	84	127
238.78163265306122	238.89773242630386	68	127
238.89773242630386	239.0138321995465	77	127
238.89773242630386	239.0138321995465	74	127
238.89773242630386	239.1299319727891	67	127
238.89773242630386	239.40857142857143	83	127
239.0138321995465	239.1299319727891	77	127
239.0138321995465	239.1299319727891	65	127
239.1299319727891	239.2692517006803	74	127
239.1299319727891	239.2692517006803	62	127
239.1299319727891	239.8845804988662	43	127
239.2692517006803	239.40857142857143	72	127
239.2692517006803	239.40857142857143	60	127
239.40857142857143	239.52467120181407	71	127
239.40857142857143	239.52467120181407	59	127
239.52467120181407	239.64077097505668	74	127
239.52467120181407	239.64077097505668	62	127
239.64077097505668	239.7684807256236	77	127
239.64077097505668	239.7684807256236	65	127
239.64077097505668	239.7684807256236	84	127
239.7684807256236	239.8845804988662	80	127
239.7684807256236	239.8845804988662	68	127
239.7684807256236	239.8845804988662	84	127
239.8845804988662	240.00068027210884	79	127
239.8845804988662	240.00068027210884	67	127
239.8845804988662	240.11678004535148	55	127
239.8845804988662	240.38380952380953	83	127
240.00068027210884	240.11678004535148	77	127
240.00068027210884	240.11678004535148	65	127
240.11678004535148	240.24448979591835	74	127
240.11678004535148	240.24448979591835	62	127
240.11678004535148	240.8598185941043	43	127
240.24448979591835	240.38380952380953	72	127
240.24448979591835	240.38380952380953	60	127
240.38380952380953	240.49990929705214	71	127
240.38380952380953	240.49990929705214	59	127
240.49990929705214	240.61600907029478	74	127
240.49990929705214	240.61600907029478	62	127
240.61600907029478	240.7437188208617	77	127
240.61600907029478	240.7437188208617	65	127
240.61600907029478	240.7437188208617	84	127
240.7437188208617	240.8598185941043	80	127
240.7437188208617	240.8598185941043	68	127
240.7437188208617	240.8598185941043	84	127
240.8598185941043	240.97591836734694	82	127
240.8598185941043	241.10362811791384	79	127
240.8598185941043	241.10362811791384	67	127
240.97591836734694	241.10362811791384	84	127
241.10362811791384	241.23133786848072	85	127
241.10362811791384	241.34743764172336	48	127
241.10362811791384	241.59124716553288	76	127
241.10362811791384	241.59124716553288	64	127
241.23133786848072	241.34743764172336	82	127
241.34743764172336	241.47514739229024	79	127
241.34743764172336	241.59124716553288	60	127
241.47514739229024	241.59124716553288	84	127
241.59124716553288	241.71895691609978	78	127
241.59124716553288	241.71895691609978	66	127
241.59124716553288	241.71895691609978	85	127
241.59124716553288	241.8350566893424	57	127
241.71895691609978	241.8350566893424	78	127
241.71895691609978	241.8350566893424	66	127
241.71895691609978	241.8350566893424	87	127
241.8350566893424	241.95115646258503	86	127
241.8350566893424	242.06725623582767	77	127
241.8350566893424	242.06725623582767	65	127
241.95115646258503	242.06725623582767	84	127
242.06725623582767	242.19496598639455	82	127
242.06725623582767	242.29945578231292	46	127
242.06725623582767	242.5316553287982	74	127
242.06725623582767	242.5316553287982	62	127
242.19496598639455	242.29945578231292	77	127
242.29945578231292	242.41555555555556	76	127
242.29945578231292	242.5316553287982	58	127
242.41555555555556	242.5316553287982	79	127
242.5316553287982	242.65936507936507	76	127
242.5316553287982	242.65936507936507	64	127
242.5316553287982	242.65936507936507	82	127
242.5316553287982	242.7754648526077	55	127
242.65936507936507	242.7754648526077	76	127
242.65936507936507	242.7754648526077	64	127
242.65936507936507	242.7754648526077	85	127
242.7754648526077	242.89156462585035	84	127
242.7754648526077	243.00766439909296	75	127
242.7754648526077	243.00766439909296	63	127
242.7754648526077	243.00766439909296	56	127
242.89156462585035	243.00766439909296	75	127
243.00766439909296	243.14698412698414	74	127
243.00766439909296	243.14698412698414	71	127
243.00766439909296	243.14698412698414	80	127
243.00766439909296	243.27469387755102	53	127
243.14698412698414	243.27469387755102	74	127
243.14698412698414	243.27469387755102	71	127
243.14698412698414	243.27469387755102	83	127
243.27469387755102	243.40240362811792	82	127
243.27469387755102	243.54172335600907	73	127
243.27469387755102	243.54172335600907	70	127
243.27469387755102	243.54172335600907	54	127
243.40240362811792	243.54172335600907	73	127
243.54172335600907	243.66943310657595	72	127
243.54172335600907	243.66943310657595	69	127
243.54172335600907	243.66943310657595	78	127
243.54172335600907	243.7855328798186	51	127
243.66943310657595	243.7855328798186	72	127
243.66943310657595	243.7855328798186	69	127
243.66943310657595	243.7855328798186	81	127
243.7855328798186	243.89002267573696	80	127
243.7855328798186	244.0061224489796	71	127
243.7855328798186	244.0061224489796	69	127
243.7855328798186	244.0061224489796	52	127
243.89002267573696	244.0061224489796	71	127
244.0061224489796	244.13383219954648	70	127
244.0061224489796	244.13383219954648	67	127
244.0061224489796	244.13383219954648	76	127
244.0061224489796	244.2499319727891	49	127
244.13383219954648	244.2499319727891	70	127
244.13383219954648	244.2499319727891	67	127
244.13383219954648	244.2499319727891	79	127
244.2499319727891	244.36603174603175	78	127
244.2499319727891	244.4821315192744	69	127
244.2499319727891	244.4821315192744	66	127
244.2499319727891	244.4821315192744	50	127
244.36603174603175	244.4821315192744	69	127
244.4821315192744	244.60984126984127	68	127
244.4821315192744	244.60984126984127	65	127
244.4821315192744	244.60984126984127	74	127
244.4821315192744	244.7259410430839	47	127
244.60984126984127	244.7259410430839	68	127
244.60984126984127	244.7259410430839	65	127
244.60984126984127	244.7259410430839	77	127
244.7259410430839	244.83043083900228	76	127
244.7259410430839	244.94653061224489	67	127
244.7259410430839	244.94653061224489	63	127
244.7259410430839	244.94653061224489	48	127
244.83043083900228	244.94653061224489	67	127
244.94653061224489	245.06263038548752	68	127
244.94653061224489	245.06263038548752	65	127
244.94653061224489	245.06263038548752	74	127
244.94653061224489	245.19034013605443	47	127
245.06263038548752	245.19034013605443	68	127
245.06263038548752	245.19034013605443	65	127
245.06263038548752	245.19034013605443	77	127
245.19034013605443	245.3180498866213	76	127
245.19034013605443	245.44575963718822	67	127
245.19034013605443	245.44575963718822	63	127
245.19034013605443	245.44575963718822	48	127
245.3180498866213	245.44575963718822	67	127
245.44575963718822	245.56185941043083	68	127
245.44575963718822	245.56185941043083	65	127
245.44575963718822	245.56185941043083	74	127
245.44575963718822	245.67795918367347	47	127
245.56185941043083	245.67795918367347	68	127
245.56185941043083	245.67795918367347	65	127
245.56185941043083	245.67795918367347	77	127
245.67795918367347	245.7940589569161	76	127
245.67795918367347	245.9565986394558	67	127
245.67795918367347	245.9565986394558	64	127
245.67795918367347	245.9565986394558	48	127
245.7940589569161	245.9565986394558	67	127
245.9565986394558	246.08430839002267	68	127
245.9565986394558	246.08430839002267	65	127
245.9565986394558	246.08430839002267	74	127
245.9565986394558	246.2004081632653	47	127
246.08430839002267	246.2004081632653	68	127
246.08430839002267	246.2004081632653	65	127
246.08430839002267	246.2004081632653	77	127
246.2004081632653	246.31650793650795	76	127
246.2004081632653	246.44421768707483	67	127
246.2004081632653	246.44421768707483	64	127
246.2004081632653	246.44421768707483	48	127
246.31650793650795	246.44421768707483	67	127
246.44421768707483	246.56031746031746	68	127
246.44421768707483	246.56031746031746	65	127
246.44421768707483	246.56031746031746	74	127
246.44421768707483	246.6764172335601	47	127
246.56031746031746	246.6764172335601	68	127
246.56031746031746	246.6764172335601	65	127
246.56031746031746	246.6764172335601	77	127
246.6764172335601	246.81573696145125	64	127
246.6764172335601	246.81573696145125	76	127
246.6764172335601	246.94344671201813	67	127
246.6764172335601	246.94344671201813	48	127
246.81573696145125	246.94344671201813	60	127
246.94344671201813	247.15242630385487	55	127
247.15242630385487	247.2685260770975	52	127
247.2685260770975	247.51233560090702	48	127
247.38462585034014	247.4310657596372	84	127
247.51233560090702	247.54716553287983	84	127
247.7445351473923	247.8606349206349	86	127
247.7445351473923	248.69655328798186	53	127
247.7445351473923	250.61219954648527	56	127
247.7445351473923	250.61219954648527	59	127
247.8606349206349	247.98834467120182	83	127
247.98834467120182	248.10444444444445	80	127
248.10444444444445	248.22054421768706	77	127
248.22054421768706	248.4643537414966	74	127
248.4643537414966	248.4991836734694	74	127
248.58045351473922	248.62689342403627	74	127
248.69655328798186	248.8126530612245	76	127
248.69655328798186	249.6950113378685	52	127
248.8126530612245	248.94036281179137	71	127
248.94036281179137	249.06807256235828	68	127
249.06807256235828	249.18417233560092	66	127
249.18417233560092	249.46281179138322	64	127
249.46281179138322	249.497641723356	88	127
249.57891156462586	249.6253514739229	88	127
249.6950113378685	249.8111111111111	89	127
249.6950113378685	250.61219954648527	50	127
249.8111111111111	249.938820861678	86	127
249.938820861678	250.05492063492065	83	127
250.05492063492065	250.17102040816326	81	127
250.17102040816326	250.4728798185941	80	127
250.4728798185941	250.51931972789114	79	127
250.61219954648527	250.71668934240364	80	127
250.61219954648527	251.55260770975056	53	127
250.61219954648527	251.55260770975056	59	127
250.61219954648527	251.55260770975056	49	127
250.71668934240364	250.84439909297052	77	127
250.84439909297052	250.96049886621316	73	127
250.96049886621316	251.0765986394558	72	127
251.0765986394558	251.3204081632653	71	127
251.3204081632653	251.43650793650792	89	127
251.43650793650792	251.55260770975056	89	127
251.55260770975056	251.65709750566893	88	127
251.55260770975056	252.01700680272108	60	127
251.55260770975056	252.49301587301588	48	127
251.55260770975056	252.49301587301588	52	127
251.65709750566893	251.78480725623584	84	127
251.78480725623584	251.90090702947845	79	127
251.90090702947845	252.01700680272108	77	127
252.01700680272108	252.2608163265306	76	127
252.01700680272108	252.49301587301588	55	127
252.2608163265306	252.37691609977324	77	127
252.37691609977324	252.49301587301588	77	127
252.49301587301588	252.60911564625852	78	127
252.49301587301588	253.5263038548753	57	127
252.49301587301588	253.5263038548753	47	127
252.49301587301588	253.5263038548753	51	127
252.60911564625852	252.7368253968254	75	127
252.7368253968254	252.8645351473923	71	127
252.8645351473923	252.9806349206349	70	127
252.9806349206349	253.25927437641724	69	127
253.25927437641724	253.3985941043084	87	127
253.3985941043084	253.5263038548753	87	127
253.5263038548753	253.70045351473922	86	127
253.5263038548753	254.09519274376416	58	127
253.5263038548753	255.6857596371882	46	127
253.5263038548753	255.6857596371882	50	127
253.70045351473922	253.81655328798186	82	127
253.81655328798186	253.97909297052155	79	127
253.97909297052155	254.09519274376416	77	127
254.09519274376416	255.4303401360544	75	127
254.09519274376416	255.6857596371882	53	127
255.4303401360544	255.54643990929705	77	127
255.54643990929705	255.6857596371882	77	127
255.6857596371882	255.8134693877551	79	127
255.6857596371882	258.72755102040816	49	127
255.6857596371882	258.72755102040816	55	127
255.6857596371882	258.72755102040816	45	127
255.6857596371882	258.72755102040816	52	127
255.8134693877551	255.92956916099774	76	127
255.92956916099774	256.0456689342404	73	127
255.92956916099774	256.0456689342404	90	127
256.0456689342404	256.1965986394558	69	127
256.0456689342404	256.1965986394558	90	127
256.1965986394558	256.3475283446712	67	127
256.1965986394558	256.3475283446712	91	127
256.3475283446712	256.4752154195011	69	127
256.3475283446712	256.4752154195011	88	127
256.4752154195011	256.5913378684807	73	127
256.4752154195011	256.5913378684807	85	127
256.5913378684807	256.74226757369615	76	127
256.5913378684807	256.74226757369615	81	127
256.74226757369615	256.88156462585033	79	127
256.88156462585033	256.9976870748299	76	127
256.88156462585033	256.9976870748299	81	127
256.9976870748299	257.11378684807255	73	127
256.9976870748299	257.11378684807255	85	127
257.11378684807255	257.24149659863946	69	127
257.11378684807255	257.24149659863946	88	127
257.24149659863946	257.55496598639456	67	127
257.24149659863946	257.55496598639456	91	127
257.55496598639456	257.6710657596372	69	127
257.55496598639456	257.6710657596372	88	127
257.6710657596372	257.8103628117914	73	127
257.6710657596372	257.8103628117914	85	127
257.8103628117914	257.92648526077096	76	127
257.8103628117914	257.92648526077096	81	127
257.92648526077096	258.05419501133787	79	127
258.05419501133787	258.1819047619048	76	127
258.05419501133787	258.1819047619048	81	127
258.1819047619048	258.2980045351474	73	127
258.1819047619048	258.2980045351474	85	127
258.2980045351474	258.4837641723356	69	127
258.2980045351474	258.4837641723356	88	127
258.4837641723356	258.6114739229025	91	127
258.4837641723356	258.97138321995465	67	127
258.6114739229025	258.72755102040816	88	127
258.72755102040816	258.84367346938774	85	127
258.84367346938774	258.97138321995465	81	127
260.09755102040816	260.2136507936508	91	127
260.2136507936508	260.3878004535147	91	127
260.3878004535147	260.51551020408164	90	127
260.3878004535147	264.4745124716553	54	127
260.3878004535147	264.4745124716553	45	127
260.3878004535147	264.4745124716553	38	127
260.51551020408164	260.88702947845803	86	127
260.88702947845803	261.01473922902494	81	127
260.88702947845803	260.9450793650794	62	127
261.01473922902494	261.061179138322	62	127
261.01473922902494	261.2237188208617	79	127
261.2237188208617	264.12621315192746	62	127
261.2237188208617	264.4745124716553	78	127
264.12621315192746	264.2422902494331	66	127
264.2422902494331	264.3584126984127	69	127
264.3584126984127	264.4745124716553	72	127
264.71832199546486	264.76473922902494	79	127
264.8344217687075	264.8808616780045	79	127
264.95052154195014	265.078231292517	80	127
265.078231292517	265.58907029478456	77	127
265.58907029478456	265.63551020408164	67	127
265.58907029478456	265.90253968253967	74	127
265.90253968253967	265.9721995464853	67	127
265.90253968253967	266.1115192743764	72	127
266.1115192743764	271.89328798185943	70	127
266.1115192743764	266.401768707483	68	127
266.401768707483	266.6920181405896	65	127
266.6920181405896	266.7384580498866	55	127
266.6920181405896	266.81972789115645	62	127
266.81972789115645	267.330566893424	60	127
266.81972789115645	266.9590476190476	55	127
267.330566893424	267.5627664399093	56	127
267.330566893424	271.3940589569161	58	127
267.5627664399093	267.67886621315193	53	127
267.67886621315193	267.7369160997732	43	127
267.67886621315193	267.80657596371884	50	127
267.80657596371884	267.85301587301586	43	127
267.80657596371884	271.3940589569161	48	127
270.8716099773243	271.03414965986394	44	127
271.03414965986394	271.1502494331066	41	127
271.1502494331066	271.2663492063492	39	127
271.2663492063492	271.3940589569161	38	127
271.3940589569161	271.89328798185943	68	127
271.3940589569161	271.89328798185943	53	127
271.3940589569161	271.89328798185943	38	127
274.23850340136056	274.2849433106576	77	127
274.36619047619047	274.4126530612245	79	127
274.6216326530612	274.65646258503403	80	127
274.6216326530612	275.10925170068026	60	127
274.6216326530612	275.10925170068026	53	127
274.6216326530612	275.5504308390023	56	127
274.73773242630386	274.78414965986394	77	127
274.8538321995465	274.9118820861678	74	127
274.9815192743764	275.02798185941043	72	127
275.10925170068026	275.14408163265307	68	127
275.10925170068026	275.5504308390023	62	127
275.10925170068026	275.5504308390023	46	127
275.2253514739229	275.27179138322	65	127
275.318231292517	275.3530612244898	62	127
275.42272108843537	275.46916099773244	72	127
275.5504308390023	275.78263038548755	70	127
275.5504308390023	276.02643990929704	63	127
275.5504308390023	276.02643990929704	51	127
275.5504308390023	276.4908390022676	55	127
275.78263038548755	276.2586394557823	67	127
276.02643990929704	276.11931972789114	58	127
276.02643990929704	276.4908390022676	39	127
276.2586394557823	276.37473922902495	58	127
276.2586394557823	276.37473922902495	67	127
276.37473922902495	276.4908390022676	61	127
276.37473922902495	276.4908390022676	70	127
276.4908390022676	276.5837188208617	60	127
276.4908390022676	276.5837188208617	68	127
276.4908390022676	276.93201814058955	53	127
276.4908390022676	276.93201814058955	44	127
276.7114285714286	276.7926984126984	58	127
276.7114285714286	276.7926984126984	67	127
276.93201814058955	277.40802721088437	56	127
276.93201814058955	277.40802721088437	50	127
276.93201814058955	277.40802721088437	65	127
276.93201814058955	277.40802721088437	46	127
277.40802721088437	277.66344671201813	51	127
277.40802721088437	277.9420634920635	55	127
277.40802721088437	278.19750566893424	39	127
277.40802721088437	277.9420634920635	63	127
277.66344671201813	277.9420634920635	55	127
277.9420634920635	278.19750566893424	58	127
277.9420634920635	278.19750566893424	55	127
278.19750566893424	278.29038548752834	77	127
278.19750566893424	278.41809523809525	63	127
278.19750566893424	278.41809523809525	58	127
278.29038548752834	278.41809523809525	79	127
278.41809523809525	278.5341950113379	80	127
278.41809523809525	278.89410430839	60	127
278.41809523809525	278.89410430839	41	127
278.41809523809525	279.32367346938776	56	127
278.5341950113379	278.6502947845805	77	127
278.6502947845805	278.76637188208616	74	127
278.76637188208616	278.89410430839	72	127
278.89410430839	279.32367346938776	62	127
278.89410430839	278.9985941043084	68	127
278.89410430839	279.32367346938776	46	127
278.9985941043084	279.0914739229025	67	127
279.0914739229025	279.19596371882085	65	127
279.19596371882085	279.32367346938776	72	127
279.32367346938776	279.55587301587303	70	127
279.32367346938776	279.7880498866213	55	127
279.32367346938776	279.7880498866213	39	127
279.32367346938776	280.0202721088435	63	127
279.55587301587303	280.0202721088435	67	127
279.7880498866213	280.2524716553288	51	127
279.7880498866213	280.2524716553288	36	127
280.0202721088435	280.14798185941044	63	127
280.0202721088435	280.14798185941044	72	127
280.14798185941044	280.2524716553288	72	127
280.14798185941044	280.2524716553288	75	127
280.2524716553288	280.4846712018141	70	127
280.2524716553288	280.4846712018141	50	127
280.2524716553288	280.4846712018141	74	127
280.2524716553288	280.72848072562357	38	127
280.4846712018141	280.61238095238093	69	127
280.4846712018141	280.61238095238093	72	127
280.4846712018141	280.72848072562357	62	127
280.61238095238093	280.72848072562357	67	127
280.61238095238093	280.72848072562357	70	127
280.72848072562357	280.96068027210885	50	127
280.72848072562357	281.21607709750566	66	127
280.72848072562357	281.21607709750566	69	127
280.72848072562357	281.21607709750566	38	127
280.96068027210885	281.21607709750566	60	127
281.21607709750566	281.30897959183676	58	127
281.21607709750566	281.7501587301587	62	127
281.21607709750566	281.7501587301587	67	127
281.21607709750566	281.7501587301587	43	127
281.4715192743764	281.6108390022676	58	127
281.6108390022676	281.7501587301587	57	127
281.7501587301587	281.982358276644	55	127
281.982358276644	282.0752380952381	67	127
281.982358276644	282.0752380952381	70	127
282.0752380952381	282.19133786848073	68	127
282.0752380952381	282.19133786848073	72	127
282.19133786848073	282.30743764172337	73	127
282.19133786848073	282.423537414966	70	127
282.19133786848073	282.423537414966	36	127
282.30743764172337	282.423537414966	70	127
282.423537414966	282.5280272108844	67	127
282.423537414966	282.85308390022675	70	127
282.5280272108844	282.63251700680274	65	127
282.63251700680274	282.7370068027211	64	127
282.63251700680274	282.85308390022675	48	127
282.7370068027211	282.85308390022675	65	127
282.85308390022675	282.96920634920633	58	127
282.85308390022675	282.96920634920633	67	127
282.85308390022675	283.08530612244897	64	127
282.96920634920633	283.08530612244897	60	127
282.96920634920633	283.08530612244897	68	127
283.08530612244897	283.18979591836734	61	127
283.08530612244897	283.30589569161	67	127
283.08530612244897	283.30589569161	70	127
283.08530612244897	283.30589569161	41	127
283.18979591836734	283.30589569161	60	127
283.30589569161	283.4336054421769	56	127
283.30589569161	283.7354648526077	65	127
283.30589569161	283.7354648526077	68	127
283.4336054421769	283.5497052154195	55	127
283.5497052154195	283.6541950113379	53	127
283.6541950113379	283.7354648526077	55	127
283.7354648526077	283.78190476190474	70	127
283.7354648526077	283.8631746031746	67	127
283.7354648526077	283.8631746031746	56	127
283.7354648526077	283.97925170068027	53	127
283.8631746031746	283.8980045351474	72	127
283.8631746031746	283.97925170068027	68	127
283.8631746031746	283.97925170068027	60	127
283.97925170068027	284.09537414965985	73	127
283.97925170068027	284.2114739229025	70	127
283.97925170068027	284.2114739229025	52	127
283.97925170068027	284.2114739229025	36	127
284.09537414965985	284.2114739229025	70	127
284.2114739229025	284.3391836734694	67	127
284.2114739229025	284.6874829931973	70	127
284.3391836734694	284.45528344671203	65	127
284.45528344671203	284.57138321995467	64	127
284.45528344671203	284.6874829931973	48	127
284.57138321995467	284.6874829931973	65	127
284.6874829931973	284.81519274376416	58	127
284.6874829931973	284.81519274376416	67	127
284.6874829931973	284.8848526077098	64	127
284.81519274376416	284.8848526077098	60	127
284.81519274376416	284.8848526077098	68	127
284.8848526077098	284.98934240362814	61	127
284.8848526077098	285.0938321995465	67	127
284.8848526077098	285.0938321995465	70	127
284.8848526077098	285.0938321995465	41	127
284.98934240362814	285.0938321995465	60	127
285.0938321995465	285.20990929705215	56	127
285.0938321995465	285.53501133786847	65	127
285.0938321995465	285.53501133786847	68	127
285.20990929705215	285.32603174603173	55	127
285.32603174603173	285.41891156462583	53	127
285.41891156462583	285.53501133786847	55	127
285.53501133786847	285.62789115646257	65	127
285.53501133786847	285.62789115646257	56	127
285.53501133786847	285.62789115646257	68	127
285.53501133786847	285.7439909297052	53	127
285.62789115646257	285.7439909297052	67	127
285.62789115646257	285.7439909297052	60	127
285.62789115646257	285.7439909297052	70	127
285.7439909297052	285.86009070294784	71	127
285.7439909297052	285.999410430839	68	127
285.7439909297052	285.999410430839	50	127
285.7439909297052	285.999410430839	46	127
285.86009070294784	285.999410430839	68	127
285.999410430839	286.1503401360544	65	127
285.999410430839	286.4986394557823	68	127
286.1503401360544	286.26643990929705	63	127
286.26643990929705	286.3825396825397	62	127
286.26643990929705	286.4986394557823	58	127
286.3825396825397	286.4986394557823	63	127
286.4986394557823	286.62634920634923	56	127
286.4986394557823	286.62634920634923	65	127
286.4986394557823	286.7308390022676	62	127
286.62634920634923	286.7308390022676	58	127
286.62634920634923	286.7308390022676	67	127
286.7308390022676	286.84691609977324	59	127
286.7308390022676	286.9630385487528	65	127
286.7308390022676	286.9630385487528	68	127
286.7308390022676	286.9630385487528	51	127
286.84691609977324	286.9630385487528	58	127
286.9630385487528	287.0907482993197	55	127
286.9630385487528	287.4506349206349	63	127
286.9630385487528	287.4506349206349	67	127
287.0907482993197	287.20684807256237	53	127
287.20684807256237	287.322947845805	51	127
287.322947845805	287.4506349206349	53	127
287.4506349206349	287.543537414966	65	127
287.4506349206349	287.543537414966	55	127
287.4506349206349	287.543537414966	68	127
287.4506349206349	287.65961451247165	51	127
287.543537414966	287.65961451247165	67	127
287.543537414966	287.65961451247165	58	127
287.543537414966	287.65961451247165	70	127
287.65961451247165	287.77573696145123	71	127
287.65961451247165	287.89183673469387	68	127
287.65961451247165	287.89183673469387	50	127
287.65961451247165	287.89183673469387	46	127
287.77573696145123	287.89183673469387	68	127
287.89183673469387	288.0079365079365	65	127
287.89183673469387	288.3330158730159	68	127
288.0079365079365	288.1124263038549	63	127
288.1124263038549	288.21691609977324	62	127
288.21691609977324	288.3330158730159	63	127
288.3330158730159	288.4491156462585	56	127
288.3330158730159	288.4491156462585	65	127
288.3330158730159	288.56521541950116	62	127
288.3330158730159	288.56521541950116	46	127
288.4491156462585	288.56521541950116	58	127
288.4491156462585	288.56521541950116	67	127
288.56521541950116	288.6812925170068	59	127
288.56521541950116	288.80902494331065	65	127
288.56521541950116	288.80902494331065	68	127
288.56521541950116	288.80902494331065	51	127
288.6812925170068	288.80902494331065	58	127
288.80902494331065	288.93673469387755	55	127
288.80902494331065	289.3198639455782	63	127
288.80902494331065	289.3198639455782	67	127
288.93673469387755	289.06444444444446	53	127
289.06444444444446	289.1805442176871	51	127
289.1805442176871	289.3198639455782	53	127
289.3198639455782	289.4939909297052	65	127
289.3198639455782	289.4939909297052	55	127
289.3198639455782	289.4939909297052	68	127
289.3198639455782	289.6101133786848	51	127
289.4939909297052	289.6101133786848	67	127
289.4939909297052	289.6101133786848	58	127
289.4939909297052	289.6101133786848	70	127
289.6101133786848	289.7262131519274	68	127
289.6101133786848	289.7262131519274	50	127
289.6101133786848	289.7262131519274	71	127
289.6101133786848	289.8655328798186	46	127
289.7262131519274	289.8655328798186	67	127
289.7262131519274	289.8655328798186	51	127
289.7262131519274	289.8655328798186	70	127
289.8655328798186	289.98163265306124	65	127
289.8655328798186	289.98163265306124	53	127
289.8655328798186	289.98163265306124	68	127
289.98163265306124	290.10931972789115	56	127
289.98163265306124	290.10931972789115	65	127
290.10931972789115	290.22544217687073	59	127
290.10931972789115	290.22544217687073	62	127
290.22544217687073	290.35315192743764	56	127
290.22544217687073	290.35315192743764	65	127
290.35315192743764	290.4692517006803	65	127
290.35315192743764	290.4692517006803	53	127
290.35315192743764	290.4692517006803	68	127
290.35315192743764	290.5853514739229	46	127
290.4692517006803	290.5853514739229	67	127
290.4692517006803	290.5853514739229	51	127
290.4692517006803	290.5853514739229	70	127
290.5853514739229	290.70145124716555	68	127
290.5853514739229	290.70145124716555	50	127
290.5853514739229	290.70145124716555	71	127
290.5853514739229	290.82913832199546	46	127
290.70145124716555	290.82913832199546	67	127
290.70145124716555	290.82913832199546	51	127
290.70145124716555	290.82913832199546	70	127
290.82913832199546	290.9568707482993	65	127
290.82913832199546	290.9568707482993	53	127
290.82913832199546	290.9568707482993	68	127
290.9568707482993	291.07297052154195	56	127
290.9568707482993	291.07297052154195	65	127
291.07297052154195	291.1890702947846	59	127
291.07297052154195	291.1890702947846	62	127
291.1890702947846	291.32839002267576	56	127
291.1890702947846	291.32839002267576	65	127
291.32839002267576	291.4444671201814	65	127
291.32839002267576	291.4444671201814	53	127
291.32839002267576	291.4444671201814	68	127
291.32839002267576	291.560589569161	46	127
291.4444671201814	291.560589569161	67	127
291.4444671201814	291.560589569161	51	127
291.4444671201814	291.560589569161	70	127
291.560589569161	291.66507936507935	68	127
291.560589569161	291.66507936507935	50	127
291.560589569161	291.66507936507935	71	127
291.560589569161	291.8043990929705	46	127
291.66507936507935	291.8043990929705	67	127
291.66507936507935	291.8043990929705	51	127
291.66507936507935	291.8043990929705	70	127
291.8043990929705	291.92049886621317	65	127
291.8043990929705	291.92049886621317	53	127
291.8043990929705	291.92049886621317	68	127
291.92049886621317	292.02498866213153	62	127
291.92049886621317	292.02498866213153	56	127
291.92049886621317	292.02498866213153	65	127
292.02498866213153	292.1410884353742	68	127
292.02498866213153	292.1410884353742	50	127
292.02498866213153	292.1410884353742	71	127
292.02498866213153	292.268798185941	46	127
292.1410884353742	292.268798185941	67	127
292.1410884353742	292.268798185941	51	127
292.1410884353742	292.268798185941	70	127
292.268798185941	292.3732879818594	65	127
292.268798185941	292.3732879818594	53	127
292.268798185941	292.3732879818594	68	127
292.3732879818594	292.48938775510203	62	127
292.3732879818594	292.48938775510203	56	127
292.3732879818594	292.48938775510203	65	127
292.48938775510203	292.60548752834467	68	127
292.48938775510203	292.60548752834467	50	127
292.48938775510203	292.60548752834467	71	127
292.48938775510203	292.7331972789116	46	127
292.60548752834467	292.7331972789116	67	127
292.60548752834467	292.7331972789116	51	127
292.60548752834467	292.7331972789116	70	127
292.7331972789116	292.88412698412696	65	127
292.7331972789116	292.88412698412696	53	127
292.7331972789116	292.88412698412696	68	127
292.88412698412696	293.0118367346939	62	127
292.88412698412696	293.0118367346939	56	127
292.88412698412696	293.0118367346939	65	127
293.0118367346939	293.1279365079365	68	127
293.0118367346939	293.1279365079365	50	127
293.0118367346939	293.1279365079365	71	127
293.0118367346939	293.2672562358277	46	127
293.1279365079365	293.2672562358277	67	127
293.1279365079365	293.2672562358277	51	127
293.1279365079365	293.2672562358277	70	127
293.2672562358277	293.39496598639454	65	127
293.2672562358277	293.39496598639454	53	127
293.2672562358277	293.39496598639454	68	127
293.39496598639454	293.5110657596372	62	127
293.39496598639454	293.5110657596372	56	127
293.39496598639454	293.5110657596372	65	127
293.5110657596372	294.10315192743764	68	127
293.5110657596372	294.10315192743764	50	127
293.5110657596372	294.10315192743764	71	127
293.5110657596372	294.10315192743764	46	127
294.10315192743764	295.7750113378685	70	127
294.10315192743764	295.8911111111111	62	127
294.10315192743764	295.8911111111111	56	127
294.10315192743764	295.8911111111111	53	127
295.7750113378685	295.8911111111111	72	127
295.8911111111111	296.00721088435375	70	127
296.00721088435375	296.1233106575964	69	127
296.1233106575964	296.2509977324263	70	127
296.2509977324263	296.3671201814059	72	127
296.3671201814059	296.4832199546485	74	127
296.4832199546485	296.5877097505669	75	127
296.5877097505669	296.7154195011338	77	127
296.7154195011338	296.83151927437643	75	127
296.83151927437643	296.94761904761907	74	127
296.94761904761907	297.09854875283446	72	127
297.09854875283446	297.22625850340137	74	127
297.22625850340137	297.2610884353742	75	127
297.2610884353742	297.36557823129255	65	127
297.2610884353742	297.36557823129255	77	127
297.36557823129255	297.4816780045351	67	127
297.36557823129255	297.4816780045351	79	127
297.4816780045351	297.5745351473923	41	127
297.4816780045351	298.00412698412697	80	127
297.4816780045351	298.00412698412697	72	127
297.4816780045351	297.60938775510203	68	127
297.60938775510203	297.7603174603175	65	127
297.7603174603175	297.8531972789116	53	127
297.7603174603175	297.8880045351474	62	127
297.8880045351474	298.00412698412697	60	127
298.00412698412697	298.09700680272107	46	127
298.00412698412697	298.1318367346939	56	127
298.00412698412697	298.50333333333333	82	127
298.00412698412697	298.27115646258505	74	127
298.1318367346939	298.27115646258505	55	127
298.27115646258505	298.36403628117915	50	127
298.27115646258505	298.50333333333333	77	127
298.27115646258505	298.3872562358277	53	127
298.3872562358277	298.50333333333333	60	127
298.50333333333333	298.59621315192743	39	127
298.50333333333333	298.7471655328798	75	127
298.50333333333333	298.7471655328798	58	127
298.50333333333333	298.9793650793651	79	127
298.7471655328798	298.8400453514739	51	127
298.7471655328798	299.2463945578231	55	127
298.7471655328798	298.9793650793651	70	127
298.9793650793651	299.0722448979592	46	127
298.9793650793651	299.72238095238095	87	127
298.9793650793651	299.2463945578231	67	127
299.2463945578231	299.3392743764172	43	127
299.2463945578231	299.4785941043084	63	127
299.2463945578231	299.2928344671202	55	127
299.36249433106576	299.40893424036284	58	127
299.4785941043084	299.72238095238095	60	127
299.4785941043084	299.58308390022677	56	127
299.4785941043084	299.58308390022677	41	127
299.72238095238095	299.81528344671204	55	127
299.72238095238095	299.81528344671204	46	127
299.72238095238095	299.9429931972789	82	127
299.72238095238095	299.9429931972789	62	127
299.9429931972789	300.04748299319726	38	127
299.9429931972789	300.18680272108844	80	127
299.9429931972789	300.40739229024945	53	127
299.9429931972789	300.18680272108844	65	127
300.18680272108844	300.3029024943311	63	127
300.18680272108844	300.3029024943311	79	127
300.18680272108844	300.27968253968254	46	127
300.3029024943311	300.40739229024945	62	127
300.3029024943311	300.40739229024945	77	127
300.40739229024945	300.5118820861678	39	127
300.40739229024945	300.65120181405894	63	127
300.40739229024945	300.65120181405894	75	127
300.40739229024945	300.8834013605442	55	127
300.65120181405894	301.138820861678	70	127
300.65120181405894	300.8834013605442	65	127
300.65120181405894	300.7440589569161	46	127
300.8834013605442	300.99950113378685	43	127
300.8834013605442	301.138820861678	67	127
301.138820861678	301.18526077097505	55	127
301.138820861678	301.2317006802721	39	127
301.138820861678	301.37102040816325	70	127
301.25489795918367	301.3013605442177	58	127
301.37102040816325	301.4755102040816	56	127
301.37102040816325	301.62643990929706	60	127
301.37102040816325	301.4755102040816	41	127
301.62643990929706	301.71931972789116	55	127
301.62643990929706	301.71931972789116	46	127
301.62643990929706	301.84702947845807	62	127
301.84702947845807	301.95151927437644	38	127
301.84702947845807	302.09083900226756	65	127
301.84702947845807	302.2998185941043	53	127
302.09083900226756	302.12566893424037	68	127
302.09083900226756	302.17208616780044	46	127
302.09083900226756	302.1953287981859	63	127
302.1953287981859	302.241768707483	72	127
302.1953287981859	302.2998185941043	62	127
302.2998185941043	302.40430839002266	39	127
302.2998185941043	302.4275283446712	55	127
302.2998185941043	302.40430839002266	70	127
302.2998185941043	302.54362811791384	63	127
302.4275283446712	302.54362811791384	56	127
302.54362811791384	302.62489795918367	46	127
302.54362811791384	302.7526077097506	65	127
302.54362811791384	302.62489795918367	55	127
302.54362811791384	302.62489795918367	68	127
302.62489795918367	302.7526077097506	53	127
302.7526077097506	303.04285714285714	58	127
302.7526077097506	303.2866666666667	67	127
302.7526077097506	302.8803174603175	39	127
302.7526077097506	302.9267573696145	51	127
302.9267573696145	303.04285714285714	53	127
303.04285714285714	303.1473469387755	46	127
303.04285714285714	303.17056689342405	55	127
303.04285714285714	303.2866666666667	70	127
303.17056689342405	303.2866666666667	58	127
303.2866666666667	303.3795464852608	41	127
303.2866666666667	303.3795464852608	56	127
303.2866666666667	303.5188662131519	60	127
303.5188662131519	303.61172335600907	55	127
303.5188662131519	303.61172335600907	46	127
303.5188662131519	303.76267573696146	62	127
303.76267573696146	303.85555555555555	38	127
303.76267573696146	303.99487528344673	65	127
303.76267573696146	304.2386848072562	53	127
303.99487528344673	304.08775510204083	46	127
303.99487528344673	304.11097505668937	63	127
303.99487528344673	304.04131519274375	68	127
304.11097505668937	304.1574149659864	72	127
304.11097505668937	304.2386848072562	62	127
304.2386848072562	304.3315646258503	70	127
304.2386848072562	304.3315646258503	39	127
304.2386848072562	304.35478458049886	55	127
304.2386848072562	304.48249433106577	63	127
304.35478458049886	304.48249433106577	56	127
304.48249433106577	304.57537414965986	68	127
304.48249433106577	304.57537414965986	46	127
304.48249433106577	304.5985941043084	55	127
304.48249433106577	304.7263038548753	65	127
304.5985941043084	304.7263038548753	53	127
304.7263038548753	304.80757369614514	67	127
304.7263038548753	304.80757369614514	39	127
304.7263038548753	304.95850340136053	58	127
304.7263038548753	304.95850340136053	51	127
304.95850340136053	305.0049433106576	84	127
304.95850340136053	305.0049433106576	75	127
305.07460317460317	305.12104308390025	87	127
305.07460317460317	305.12104308390025	79	127
305.2023129251701	305.43451247165535	77	127
305.2023129251701	305.43451247165535	46	127
305.2023129251701	305.3184126984127	51	127
305.2023129251701	305.2951927437642	85	127
305.3184126984127	305.43451247165535	55	127
305.43451247165535	305.5390022675737	61	127
305.43451247165535	305.5157823129252	84	127
305.43451247165535	305.6667120181406	75	127
305.5390022675737	305.6667120181406	55	127
305.6667120181406	305.89891156462585	39	127
305.6667120181406	305.89891156462585	73	127
305.6667120181406	305.7828117913832	51	127
305.6667120181406	306.11950113378686	82	127
305.7828117913832	305.89891156462585	55	127
305.89891156462585	306.11950113378686	75	127
305.89891156462585	306.0150113378685	61	127
306.0150113378685	306.11950113378686	55	127
306.11950113378686	306.2356009070295	51	127
306.11950113378686	306.2356009070295	84	127
306.11950113378686	306.35170068027213	44	127
306.11950113378686	306.35170068027213	72	127
306.2356009070295	306.35170068027213	56	127
306.2356009070295	306.35170068027213	85	127
306.35170068027213	306.46777777777777	60	127
306.35170068027213	306.46777777777777	84	127
306.35170068027213	306.5955102040816	75	127
306.46777777777777	306.5955102040816	82	127
306.46777777777777	306.5955102040816	56	127
306.5955102040816	306.8277097505669	48	127
306.5955102040816	306.71160997732426	80	127
306.5955102040816	306.8277097505669	72	127
306.5955102040816	306.71160997732426	51	127
306.71160997732426	306.8277097505669	82	127
306.71160997732426	306.8277097505669	56	127
306.8277097505669	306.9554195011338	60	127
306.8277097505669	307.12956916099773	68	127
306.8277097505669	306.9554195011338	84	127
306.9554195011338	307.12956916099773	87	127
306.9554195011338	307.12956916099773	56	127
307.12956916099773	307.361768707483	77	127
307.12956916099773	307.24566893424037	51	127
307.12956916099773	307.361768707483	46	127
307.12956916099773	307.22244897959183	85	127
307.24566893424037	307.361768707483	55	127
307.361768707483	307.582358276644	75	127
307.361768707483	307.4546485260771	84	127
307.361768707483	307.4662585034014	61	127
307.4662585034014	307.582358276644	55	127
307.582358276644	307.69843537414965	51	127
307.582358276644	307.81455782312923	73	127
307.582358276644	307.81455782312923	39	127
307.582358276644	308.0467573696145	82	127
307.69843537414965	307.81455782312923	55	127
307.81455782312923	307.9306575963719	61	127
307.81455782312923	308.0467573696145	75	127
307.9306575963719	308.0467573696145	55	127
308.0467573696145	308.2789569160998	72	127
308.0467573696145	308.16285714285715	84	127
308.0467573696145	308.2789569160998	44	127
308.0467573696145	308.16285714285715	51	127
308.16285714285715	308.2789569160998	56	127
308.16285714285715	308.2789569160998	85	127
308.2789569160998	308.3950566893424	60	127
308.2789569160998	308.5227664399093	75	127
308.2789569160998	308.3950566893424	84	127
308.3950566893424	308.5227664399093	82	127
308.3950566893424	308.5227664399093	56	127
308.5227664399093	308.75496598639455	72	127
308.5227664399093	308.6388662131519	80	127
308.5227664399093	308.75496598639455	44	127
308.5227664399093	308.75496598639455	51	127
308.6388662131519	308.75496598639455	84	127
308.75496598639455	308.8594557823129	89	127
308.75496598639455	308.8594557823129	80	127
308.8594557823129	308.89428571428573	82	127
308.8594557823129	308.89428571428573	91	127
308.89428571428573	309.10326530612247	60	127
308.89428571428573	309.10326530612247	41	127
308.89428571428573	308.9871655328798	84	127
308.89428571428573	308.9871655328798	92	127
308.9871655328798	309.10326530612247	89	127
308.9871655328798	309.10326530612247	80	127
309.10326530612247	309.34707482993196	56	127
309.10326530612247	309.2193650793651	86	127
309.10326530612247	309.2193650793651	77	127
309.10326530612247	309.34707482993196	53	127
309.2193650793651	309.34707482993196	84	127
309.2193650793651	309.34707482993196	75	127
309.34707482993196	309.5908843537415	43	127
309.34707482993196	309.4631746031746	74	127
309.34707482993196	309.4631746031746	83	127
309.34707482993196	309.5908843537415	65	127
309.4631746031746	309.5908843537415	72	127
309.4631746031746	309.5908843537415	80	127
309.5908843537415	309.7766439909297	71	127
309.5908843537415	309.9043537414966	55	127
309.5908843537415	309.9043537414966	62	127
309.5908843537415	309.7766439909297	79	127
309.5908843537415	309.9043537414966	59	127
309.7766439909297	309.9043537414966	80	127
309.7766439909297	309.9043537414966	89	127
309.9043537414966	310.1365532879819	60	127
309.9043537414966	310.1365532879819	63	127
309.9043537414966	309.9972335600907	48	127
309.9043537414966	310.4035827664399	79	127
309.9043537414966	310.1365532879819	87	127
310.1365532879819	310.6589795918367	84	127
310.1365532879819	310.6589795918367	48	127
310.1365532879819	310.24104308390025	60	127
310.1365532879819	310.6589795918367	60	127
310.4035827664399	310.9028117913832	40	127
310.4035827664399	310.6589795918367	72	127
310.6589795918367	311.1350113378685	60	127
310.6589795918367	311.1350113378685	48	127
310.6589795918367	310.7867120181406	79	127
310.6589795918367	311.1350113378685	84	127
310.7867120181406	310.9028117913832	82	127
310.9028117913832	311.1350113378685	80	127
310.9028117913832	311.1350113378685	41	127
311.1350113378685	311.61102040816326	77	127
311.1350113378685	311.61102040816326	48	127
311.1350113378685	311.61102040816326	60	127
311.1350113378685	311.2627210884354	83	127
311.2627210884354	311.37879818594104	85	127
311.37879818594104	312.12185941043083	84	127
311.37879818594104	311.8896371882086	40	127
311.61102040816326	312.12185941043083	48	127
311.61102040816326	312.12185941043083	60	127
311.61102040816326	311.773560090703	79	127
311.773560090703	311.8896371882086	82	127
311.8896371882086	312.12185941043083	41	127
311.8896371882086	312.12185941043083	80	127
312.12185941043083	312.6094557823129	48	127
312.12185941043083	312.6094557823129	60	127
312.12185941043083	312.6094557823129	77	127
312.12185941043083	312.24956916099774	83	127
312.24956916099774	312.3656689342404	85	127
312.3656689342404	313.0854875283447	84	127
312.3656689342404	312.8532879818594	40	127
312.6094557823129	313.0854875283447	48	127
312.6094557823129	313.0854875283447	60	127
312.6094557823129	312.7371882086168	79	127
312.7371882086168	312.8532879818594	82	127
312.8532879818594	313.0854875283447	80	127
312.8532879818594	313.0854875283447	41	127
313.0854875283447	313.2131746031746	83	127
313.2131746031746	313.3292970521542	85	127
313.3292970521542	313.5498866213152	84	127
313.5498866213152	313.68920634920636	79	127
313.68920634920636	313.7936961451247	82	127
313.7936961451247	314.00267573696146	80	127
314.00267573696146	314.09555555555556	76	127
314.09555555555556	314.2116553287982	79	127
314.2116553287982	314.908253968254	77	127
314.2116553287982	314.908253968254	65	127
314.4438321995465	314.5715646258503	59	127
314.4438321995465	314.5715646258503	71	127
314.5715646258503	314.68766439909297	61	127
314.5715646258503	314.68766439909297	73	127
314.68766439909297	314.908253968254	72	127
314.68766439909297	314.908253968254	60	127
314.908253968254	315.0359637188209	67	127
314.908253968254	315.0359637188209	55	127
315.0359637188209	315.1636507936508	58	127
315.0359637188209	315.1636507936508	70	127
315.1636507936508	315.395873015873	56	127
315.1636507936508	315.395873015873	68	127
315.395873015873	315.5235827664399	52	127
315.395873015873	315.5235827664399	64	127
315.395873015873	315.8951020408163	60	127
315.395873015873	315.8951020408163	72	127
315.5235827664399	315.63968253968255	67	127
315.5235827664399	315.63968253968255	55	127
315.63968253968255	315.8951020408163	65	127
315.63968253968255	315.8951020408163	53	127
315.8951020408163	316.46399092970523	55	127
315.8951020408163	316.46399092970523	67	127
315.8951020408163	316.0228117913832	62	127
315.8951020408163	316.0228117913832	47	127
316.0228117913832	316.13891156462586	50	127
316.0228117913832	316.13891156462586	65	127
316.13891156462586	316.46399092970523	48	127
316.13891156462586	316.46399092970523	63	127
316.46399092970523	317.68303854875285	55	127
316.46399092970523	317.68303854875285	67	127
316.46399092970523	317.0793197278912	47	127
316.46399092970523	317.0793197278912	62	127
317.0793197278912	317.2070068027211	65	127
317.0793197278912	317.2070068027211	50	127
317.2070068027211	317.68303854875285	48	127
317.2070068027211	317.68303854875285	63	127
317.68303854875285	317.81074829931976	47	127
317.68303854875285	318.263537414966	55	127
317.68303854875285	318.263537414966	67	127
317.68303854875285	317.81074829931976	62	127
317.81074829931976	317.9848979591837	65	127
317.81074829931976	317.9848979591837	50	127
317.9848979591837	318.263537414966	48	127
317.9848979591837	318.263537414966	63	127
318.263537414966	318.4144671201814	62	127
318.263537414966	318.4144671201814	47	127
318.263537414966	318.6582766439909	55	127
318.263537414966	318.55378684807255	67	127
318.4144671201814	318.55378684807255	65	127
318.4144671201814	318.55378684807255	50	127
318.55378684807255	318.6582766439909	63	127
318.55378684807255	319.04138321995464	67	127
318.55378684807255	318.7975963718821	48	127
318.7975963718821	318.90208616780046	63	127
318.7975963718821	318.90208616780046	55	127
318.7975963718821	319.04138321995464	50	127
319.04138321995464	319.36648526077096	51	127
319.04138321995464	319.6102947845805	72	127
319.36648526077096	319.4825850340136	50	127
319.36648526077096	319.4593424036281	67	127
319.36648526077096	319.4593424036281	63	127
319.4825850340136	319.6102947845805	48	127
319.6102947845805	320.1443537414966	50	127
319.6102947845805	320.1443537414966	70	127
319.90054421768707	320.4346031746032	58	127
319.90054421768707	320.1443537414966	65	127
320.1443537414966	320.7712925170068	67	127
320.1443537414966	320.7712925170068	55	127
320.1443537414966	320.4346031746032	62	127
320.4346031746032	320.53909297052155	58	127
320.4346031746032	320.7712925170068	62	127
320.7712925170068	321.47950113378687	63	127
320.7712925170068	321.47950113378687	48	127
321.03832199546486	321.47950113378687	58	127
321.03832199546486	321.47950113378687	58	127
321.47950113378687	322.12965986394556	50	127
321.47950113378687	321.839410430839	65	127
321.839410430839	322.12965986394556	65	127
321.839410430839	322.12965986394556	68	127
321.839410430839	322.12965986394556	58	127
322.12965986394556	322.6521088435374	67	127
322.12965986394556	322.6521088435374	46	127
322.4082993197279	322.6521088435374	58	127
322.4082993197279	322.6521088435374	62	127
322.6521088435374	322.93072562358276	58	127
322.6521088435374	323.65054421768707	63	127
322.6521088435374	323.65054421768707	43	127
322.6521088435374	322.93072562358276	55	127
322.93072562358276	323.2906575963719	58	127
322.93072562358276	323.2906575963719	55	127
323.65054421768707	324.16138321995464	65	127
323.65054421768707	323.92920634920637	41	127
323.92920634920637	324.16138321995464	56	127
323.92920634920637	324.16138321995464	60	127
323.92920634920637	324.16138321995464	43	127
324.16138321995464	324.6954648526077	72	127
324.16138321995464	324.4168253968254	44	127
324.4168253968254	324.57936507936506	43	127
324.4168253968254	324.6954648526077	65	127
324.4168253968254	324.6954648526077	56	127
324.57936507936506	324.6954648526077	41	127
324.6954648526077	325.40367346938774	71	127
324.6954648526077	325.40367346938774	43	127
324.93927437641725	325.40367346938774	62	127
324.93927437641725	325.40367346938774	59	127
325.40367346938774	325.89126984126983	48	127
325.40367346938774	325.65909297052156	67	127
325.40367346938774	325.65909297052156	63	127
325.40367346938774	325.89126984126983	75	127
325.65909297052156	325.75197278911565	63	127
325.65909297052156	325.75197278911565	67	127
325.89126984126983	326.2279818594104	74	127
325.89126984126983	326.5878911564626	41	127
326.2279818594104	326.5878911564626	68	127
326.2279818594104	326.5878911564626	63	127
326.2279818594104	326.5878911564626	72	127
326.5878911564626	327.11034013605445	71	127
326.5878911564626	327.11034013605445	43	127
326.85492063492063	327.11034013605445	62	127
326.85492063492063	327.11034013605445	65	127
327.11034013605445	327.60956916099775	39	127
327.11034013605445	329.38589569160996	72	127
327.35414965986394	327.60956916099775	63	127
327.35414965986394	327.60956916099775	67	127
327.60956916099775	327.85337868480724	62	127
327.60956916099775	328.1204081632653	36	127
327.60956916099775	327.85337868480724	65	127
327.85337868480724	327.9462358276644	63	127
327.85337868480724	327.9462358276644	60	127
328.1204081632653	328.9563265306123	72	127
328.9563265306123	329.38589569160996	74	127
329.38589569160996	329.6297052154195	75	127
329.38589569160996	330.55850340136055	79	127
329.6297052154195	329.87351473922905	74	127
329.87351473922905	329.9895918367347	72	127
329.9895918367347	330.55850340136055	74	127
330.55850340136055	331.27832199546486	74	127
330.55850340136055	331.27832199546486	79	127
331.27832199546486	331.56857142857143	77	127
331.27832199546486	331.91687074829935	72	127
331.56857142857143	331.91687074829935	80	127
331.91687074829935	332.4509297052154	74	127
331.91687074829935	332.19551020408164	79	127
332.19551020408164	332.4509297052154	77	127
332.4509297052154	332.7760090702948	75	127
332.4509297052154	333.05462585034013	70	127
332.7760090702948	333.05462585034013	77	127
333.05462585034013	333.63514739229026	67	127
333.05462585034013	333.3332879818594	79	127
333.3332879818594	333.46097505668934	80	127
333.46097505668934	333.63514739229026	82	127
333.63514739229026	333.9950566893424	65	127
333.63514739229026	333.9950566893424	80	127
333.9950566893424	334.285283446712	79	127
333.9950566893424	334.285283446712	67	127
334.285283446712	334.61038548752833	77	127
334.285283446712	334.61038548752833	68	127
334.61038548752833	335.23732426303854	84	127
334.61038548752833	334.7845124716553	67	127
334.7845124716553	334.9354648526077	65	127
334.9354648526077	335.51596371882084	67	127
335.23732426303854	335.39984126984126	82	127
335.39984126984126	335.51596371882084	80	127
335.51596371882084	336.00358276643993	51	127
335.51596371882084	336.00358276643993	72	127
335.51596371882084	336.00358276643993	79	127
336.00358276643993	336.45637188208616	77	127
336.00358276643993	336.45637188208616	56	127
336.00358276643993	336.81628117913834	65	127
336.45637188208616	336.81628117913834	72	127
336.45637188208616	336.81628117913834	60	127
336.81628117913834	337.15297052154193	58	127
336.81628117913834	337.3851700680272	67	127
336.81628117913834	337.15297052154193	79	127
337.15297052154193	337.3851700680272	62	127
337.15297052154193	337.3851700680272	74	127
337.3851700680272	337.8031292517007	58	127
337.3851700680272	337.8031292517007	75	127
337.3851700680272	338.0701587301587	63	127
337.8031292517007	338.0701587301587	63	127
337.8031292517007	338.0701587301587	70	127
338.0701587301587	338.5577777777778	58	127
338.0701587301587	338.3255782312925	55	127
338.0701587301587	338.3255782312925	82	127
338.3255782312925	338.5577777777778	51	127
338.3255782312925	338.5577777777778	79	127
338.5577777777778	338.8828344671202	77	127
338.5577777777778	338.8828344671202	56	127
338.5577777777778	339.1614965986395	65	127
338.8828344671202	339.1614965986395	60	127
338.8828344671202	339.1614965986395	72	127
339.1614965986395	339.4633560090703	79	127
339.1614965986395	339.7071655328798	67	127
339.1614965986395	339.4633560090703	58	127
339.4633560090703	339.7071655328798	74	127
339.4633560090703	339.7071655328798	62	127
339.7071655328798	340.1251247165533	58	127
339.7071655328798	340.1251247165533	75	127
339.7071655328798	340.4153514739229	63	127
340.1251247165533	340.4153514739229	63	127
340.1251247165533	340.4153514739229	70	127
340.4153514739229	340.67079365079366	55	127
340.4153514739229	340.67079365079366	82	127
340.4153514739229	340.9146031746032	58	127
340.67079365079366	340.9146031746032	79	127
340.67079365079366	340.9146031746032	51	127
340.9146031746032	341.2512925170068	59	127
340.9146031746032	341.5415192743764	68	127
340.9146031746032	341.2512925170068	80	127
341.2512925170068	341.5415192743764	75	127
341.2512925170068	341.5415192743764	63	127
341.5415192743764	341.83179138322	82	127
341.5415192743764	342.08721088435374	70	127
341.5415192743764	341.83179138322	61	127
341.83179138322	342.08721088435374	65	127
341.83179138322	342.08721088435374	77	127
342.08721088435374	342.40068027210884	78	127
342.08721088435374	342.6676870748299	66	127
342.08721088435374	342.40068027210884	61	127
342.40068027210884	342.6676870748299	66	127
342.40068027210884	342.6676870748299	73	127
342.6676870748299	342.89990929705215	58	127
342.6676870748299	342.89990929705215	85	127
342.6676870748299	343.201768707483	61	127
342.89990929705215	343.201768707483	82	127
342.89990929705215	343.201768707483	54	127
343.201768707483	343.52684807256236	59	127
343.201768707483	343.52684807256236	80	127
343.201768707483	343.79385487528344	68	127
343.52684807256236	343.79385487528344	63	127
343.52684807256236	343.79385487528344	75	127
343.79385487528344	344.40920634920633	70	127
343.79385487528344	344.16539682539684	82	127
343.79385487528344	344.16539682539684	61	127
344.16539682539684	344.40920634920633	77	127
344.16539682539684	344.40920634920633	65	127
344.40920634920633	345.0013151927438	66	127
344.40920634920633	344.7342857142857	78	127
344.40920634920633	344.7342857142857	61	127
344.7342857142857	345.0013151927438	66	127
344.7342857142857	345.0013151927438	73	127
345.0013151927438	345.4889342403628	61	127
345.0013151927438	345.233514739229	58	127
345.0013151927438	345.233514739229	85	127
345.233514739229	345.4889342403628	82	127
345.233514739229	345.4889342403628	54	127
345.4889342403628	345.7791836734694	78	127
345.4889342403628	345.7791836734694	58	127
345.4889342403628	346.0345804988662	66	127
345.4889342403628	351.32875283446714	42	127
345.7791836734694	346.0345804988662	73	127
345.7791836734694	346.0345804988662	54	127
346.0345804988662	346.51061224489797	61	127
346.0345804988662	346.2668027210884	58	127
346.0345804988662	346.2668027210884	85	127
346.2668027210884	346.51061224489797	54	127
346.2668027210884	346.51061224489797	82	127
346.51061224489797	347.3117006802721	66	127
346.51061224489797	346.74281179138325	78	127
346.51061224489797	346.74281179138325	58	127
346.74281179138325	347.3117006802721	73	127
346.74281179138325	347.3117006802721	54	127
347.3117006802721	347.5439002267574	85	127
347.3117006802721	347.5439002267574	58	127
347.3117006802721	347.79931972789115	61	127
347.5439002267574	347.79931972789115	54	127
347.5439002267574	347.79931972789115	82	127
347.79931972789115	348.0315192743764	58	127
347.79931972789115	348.28691609977324	66	127
347.79931972789115	348.0315192743764	78	127
348.0315192743764	348.28691609977324	54	127
348.0315192743764	348.28691609977324	73	127
348.28691609977324	348.51913832199546	85	127
348.28691609977324	348.51913832199546	58	127
348.28691609977324	348.762947845805	61	127
348.51913832199546	348.762947845805	82	127
348.51913832199546	348.762947845805	54	127
348.762947845805	348.9951473922903	58	127
348.762947845805	348.9951473922903	78	127
348.762947845805	350.8527437641723	66	127
348.9951473922903	350.8527437641723	73	127
348.9951473922903	350.8527437641723	54	127
350.8527437641723	351.0849433106576	58	127
350.8527437641723	351.0849433106576	85	127
350.8527437641723	351.32875283446714	61	127
351.0849433106576	351.32875283446714	54	127
351.0849433106576	351.32875283446714	82	127
351.32875283446714	351.5725623582766	58	127
351.32875283446714	351.92086167800454	62	127
351.32875283446714	351.5725623582766	80	127
351.32875283446714	358.4108163265306	41	127
351.5725623582766	351.92086167800454	56	127
351.5725623582766	351.92086167800454	74	127
351.92086167800454	352.1530612244898	86	127
351.92086167800454	355.2877551020408	58	127
351.92086167800454	352.1530612244898	58	127
352.1530612244898	355.2877551020408	56	127
352.1530612244898	355.2877551020408	82	127
355.2877551020408	355.53156462585036	58	127
355.2877551020408	355.77537414965985	62	127
355.2877551020408	355.53156462585036	80	127
355.53156462585036	355.77537414965985	74	127
355.53156462585036	355.77537414965985	56	127
355.77537414965985	356.00757369614513	58	127
355.77537414965985	356.00757369614513	86	127
355.77537414965985	356.2513832199547	58	127
356.00757369614513	356.2513832199547	82	127
356.00757369614513	356.2513832199547	56	127
356.2513832199547	356.4835827664399	80	127
356.2513832199547	356.4835827664399	58	127
356.2513832199547	356.8667120181406	62	127
356.4835827664399	356.8667120181406	74	127
356.4835827664399	356.8667120181406	56	127
356.8667120181406	357.3659410430839	58	127
356.8667120181406	357.1105215419501	58	127
356.8667120181406	357.1105215419501	86	127
357.1105215419501	357.3659410430839	56	127
357.1105215419501	357.3659410430839	82	127
357.3659410430839	357.85356009070296	62	127
357.3659410430839	357.59814058956914	80	127
357.3659410430839	357.59814058956914	58	127
357.59814058956914	357.85356009070296	56	127
357.59814058956914	357.85356009070296	74	127
357.85356009070296	358.4108163265306	58	127
357.85356009070296	358.0973469387755	86	127
357.85356009070296	358.0973469387755	58	127
358.0973469387755	358.4108163265306	56	127
358.0973469387755	358.4108163265306	82	127
359.39768707482995	359.6298639455782	56	127
359.6298639455782	359.6995464852608	50	127
359.7575963718821	359.9665759637188	63	127
359.7575963718821	359.9665759637188	75	127
359.9665759637188	360.1987755102041	77	127
359.9665759637188	360.1987755102041	65	127
360.1987755102041	360.5006349206349	79	127
360.1987755102041	360.5006349206349	67	127
360.5006349206349	360.62834467120183	77	127
360.5006349206349	360.62834467120183	65	127
360.62834467120183	360.74444444444447	63	127
360.62834467120183	360.74444444444447	75	127
360.74444444444447	361.1972335600907	77	127
360.74444444444447	361.1972335600907	65	127
360.74444444444447	360.9650113378685	46	127
360.74444444444447	360.9650113378685	62	127
360.9650113378685	361.1972335600907	48	127
360.9650113378685	361.1972335600907	63	127
361.1972335600907	361.42943310657597	65	127
361.1972335600907	361.42943310657597	50	127
361.1972335600907	361.6384126984127	70	127
361.1972335600907	361.6384126984127	82	127
361.42943310657597	361.5455328798186	63	127
361.42943310657597	361.5455328798186	48	127
361.5455328798186	361.6384126984127	62	127
361.5455328798186	361.6384126984127	46	127
361.6384126984127	361.89383219954647	63	127
361.6384126984127	361.89383219954647	75	127
361.6384126984127	361.89383219954647	51	127
361.6384126984127	361.89383219954647	67	127
361.89383219954647	362.12603174603174	65	127
361.89383219954647	362.12603174603174	77	127
362.12603174603174	362.38145124716556	79	127
362.12603174603174	362.38145124716556	67	127
362.38145124716556	362.4975283446712	65	127
362.38145124716556	362.4975283446712	77	127
362.4975283446712	362.62526077097505	63	127
362.4975283446712	362.62526077097505	75	127
362.62526077097505	363.10126984126987	65	127
362.62526077097505	363.10126984126987	77	127
362.62526077097505	362.8690702947846	62	127
362.62526077097505	362.8690702947846	46	127
362.8690702947846	363.10126984126987	63	127
362.8690702947846	363.10126984126987	48	127
363.10126984126987	363.53083900226756	70	127
363.10126984126987	363.53083900226756	82	127
363.10126984126987	363.34507936507936	65	127
363.10126984126987	363.34507936507936	50	127
363.34507936507936	363.43795918367346	48	127
363.34507936507936	363.43795918367346	63	127
363.43795918367346	363.53083900226756	62	127
363.43795918367346	363.53083900226756	46	127
363.53083900226756	363.6469387755102	66	127
363.53083900226756	363.6469387755102	60	127
363.53083900226756	363.7746485260771	75	127
363.53083900226756	363.6469387755102	63	127
363.53083900226756	363.7746485260771	45	127
363.6469387755102	363.7746485260771	63	127
363.6469387755102	363.7746485260771	66	127
363.6469387755102	363.7746485260771	60	127
363.7746485260771	363.89074829931974	63	127
363.7746485260771	363.89074829931974	60	127
363.7746485260771	364.0068480725624	77	127
363.7746485260771	363.89074829931974	66	127
363.89074829931974	364.0068480725624	63	127
363.89074829931974	364.0068480725624	66	127
363.89074829931974	364.0068480725624	60	127
364.0068480725624	364.11133786848075	66	127
364.0068480725624	364.11133786848075	63	127
364.0068480725624	364.11133786848075	60	127
364.0068480725624	364.20421768707484	78	127
364.11133786848075	364.20421768707484	63	127
364.11133786848075	364.20421768707484	66	127
364.11133786848075	364.20421768707484	60	127
364.20421768707484	364.3203174603175	77	127
364.20421768707484	364.3203174603175	63	127
364.20421768707484	364.3203174603175	66	127
364.20421768707484	364.3203174603175	60	127
364.3203174603175	364.42480725623585	60	127
364.3203174603175	364.42480725623585	75	127
364.3203174603175	364.42480725623585	63	127
364.3203174603175	364.42480725623585	66	127
364.42480725623585	364.65700680272107	38	127
364.42480725623585	364.5292970521542	59	127
364.42480725623585	364.5292970521542	56	127
364.42480725623585	364.5292970521542	65	127
364.42480725623585	364.65700680272107	77	127
364.5292970521542	364.65700680272107	65	127
364.5292970521542	364.65700680272107	59	127
364.5292970521542	364.65700680272107	56	127
364.65700680272107	364.7731065759637	56	127
364.65700680272107	364.88920634920635	79	127
364.65700680272107	364.7731065759637	59	127
364.65700680272107	364.7731065759637	65	127
364.7731065759637	364.88920634920635	59	127
364.7731065759637	364.88920634920635	56	127
364.7731065759637	364.88920634920635	65	127
364.88920634920635	365.01691609977325	56	127
364.88920634920635	365.01691609977325	65	127
364.88920634920635	365.01691609977325	59	127
364.88920634920635	365.14462585034016	80	127
365.01691609977325	365.14462585034016	56	127
365.01691609977325	365.14462585034016	59	127
365.01691609977325	365.14462585034016	65	127
365.14462585034016	365.24911564625853	56	127
365.14462585034016	365.24911564625853	79	127
365.14462585034016	365.24911564625853	59	127
365.14462585034016	365.24911564625853	65	127
365.24911564625853	365.36519274376417	56	127
365.24911564625853	365.36519274376417	65	127
365.24911564625853	365.36519274376417	77	127
365.24911564625853	365.36519274376417	59	127
365.36519274376417	365.5974149659864	40	127
365.36519274376417	365.4697052154195	61	127
365.36519274376417	365.4697052154195	58	127
365.36519274376417	365.5974149659864	79	127
365.36519274376417	365.4697052154195	55	127
365.4697052154195	365.5974149659864	58	127
365.4697052154195	365.5974149659864	55	127
365.4697052154195	365.5974149659864	61	127
365.5974149659864	365.713514739229	55	127
365.5974149659864	365.713514739229	58	127
365.5974149659864	365.82961451247166	80	127
365.5974149659864	365.713514739229	61	127
365.713514739229	365.82961451247166	55	127
365.713514739229	365.82961451247166	61	127
365.713514739229	365.82961451247166	58	127
365.82961451247166	365.9573242630386	55	127
365.82961451247166	365.9573242630386	61	127
365.82961451247166	366.0850340136054	82	127
365.82961451247166	365.9573242630386	58	127
365.9573242630386	366.0850340136054	61	127
365.9573242630386	366.0850340136054	58	127
365.9573242630386	366.0850340136054	55	127
366.0850340136054	366.21274376417233	61	127
366.0850340136054	366.21274376417233	55	127
366.0850340136054	366.21274376417233	80	127
366.0850340136054	366.21274376417233	58	127
366.21274376417233	366.32884353741497	55	127
366.21274376417233	366.32884353741497	79	127
366.21274376417233	366.32884353741497	58	127
366.21274376417233	366.32884353741497	61	127
366.2707936507937	366.32884353741497	60	127
366.32884353741497	366.5842403628118	39	127
366.32884353741497	366.5842403628118	84	127
366.32884353741497	366.4449433106576	51	127
366.32884353741497	366.5842403628118	68	127
366.4449433106576	366.5842403628118	51	127
366.5842403628118	366.70036281179136	51	127
366.5842403628118	366.816462585034	86	127
366.5842403628118	366.816462585034	70	127
366.70036281179136	366.816462585034	51	127
366.816462585034	367.06027210884355	87	127
366.816462585034	367.06027210884355	72	127
366.816462585034	367.5478911564626	39	127
366.816462585034	366.9441723356009	51	127
366.9441723356009	367.06027210884355	51	127
367.06027210884355	367.1763718820862	86	127
367.06027210884355	367.1763718820862	70	127
367.06027210884355	367.1763718820862	51	127
367.1763718820862	367.2924716553288	84	127
367.1763718820862	367.2924716553288	51	127
367.1763718820862	367.2924716553288	68	127
367.2924716553288	367.5478911564626	84	127
367.2924716553288	367.43179138321995	51	127
367.2924716553288	367.5478911564626	68	127
367.43179138321995	367.5478911564626	51	127
367.5478911564626	367.7568707482993	82	127
367.5478911564626	367.6407709750567	51	127
367.5478911564626	367.7568707482993	67	127
367.6407709750567	367.7568707482993	51	127
367.7568707482993	368.00068027210887	84	127
367.7568707482993	367.8845804988662	48	127
367.7568707482993	368.00068027210887	68	127
367.7568707482993	368.5231065759637	36	127
367.8845804988662	368.00068027210887	48	127
368.00068027210887	368.14	48	127
368.00068027210887	368.14	82	127
368.00068027210887	368.14	67	127
368.14	368.2560997732426	65	127
368.14	368.2560997732426	80	127
368.14	368.2560997732426	48	127
368.2560997732426	368.3954195011338	48	127
368.2560997732426	368.5231065759637	80	127
368.2560997732426	368.5231065759637	65	127
368.3954195011338	368.5231065759637	48	127
368.5231065759637	368.6392290249433	48	127
368.5231065759637	368.75532879818593	63	127
368.5231065759637	368.75532879818593	79	127
368.6392290249433	368.75532879818593	48	127
368.75532879818593	368.9062585034014	56	127
368.75532879818593	369.4867573696145	44	127
368.75532879818593	369.022358276644	65	127
368.75532879818593	369.022358276644	80	127
368.9062585034014	369.022358276644	56	127
369.022358276644	369.13843537414965	79	127
369.022358276644	369.13843537414965	56	127
369.022358276644	369.13843537414965	63	127
369.13843537414965	369.25455782312923	56	127
369.13843537414965	369.25455782312923	77	127
369.13843537414965	369.25455782312923	61	127
369.25455782312923	369.4867573696145	61	127
369.25455782312923	369.4867573696145	77	127
369.25455782312923	369.38226757369614	56	127
369.38226757369614	369.4867573696145	56	127
369.4867573696145	369.7189569160998	75	127
369.4867573696145	369.7189569160998	60	127
369.4867573696145	369.60285714285715	56	127
369.60285714285715	369.7189569160998	56	127
369.7189569160998	370.4735827664399	41	127
369.7189569160998	369.96274376417233	61	127
369.7189569160998	369.96274376417233	77	127
369.7189569160998	369.8466666666667	53	127
369.8466666666667	369.96274376417233	53	127
369.96274376417233	370.0788662131519	60	127
369.96274376417233	370.0788662131519	75	127
369.96274376417233	370.0788662131519	53	127
370.0788662131519	370.19496598639455	53	127
370.0788662131519	370.19496598639455	73	127
370.0788662131519	370.19496598639455	58	127
370.19496598639455	370.34589569161	53	127
370.19496598639455	370.4735827664399	73	127
370.19496598639455	370.4735827664399	58	127
370.34589569161	370.4735827664399	53	127
370.4735827664399	370.72902494331066	72	127
370.4735827664399	370.60131519274375	53	127
370.4735827664399	370.72902494331066	57	127
370.60131519274375	370.72902494331066	53	127
370.72902494331066	370.9728344671202	77	127
370.72902494331066	370.9728344671202	61	127
370.72902494331066	376.4759637188209	41	127
370.72902494331066	370.85673469387757	53	127
370.85673469387757	370.9728344671202	53	127
370.9728344671202	371.08891156462585	53	127
370.9728344671202	371.08891156462585	75	127
370.9728344671202	371.08891156462585	60	127
371.08891156462585	371.22825396825397	53	127
371.08891156462585	371.22825396825397	58	127
371.08891156462585	371.22825396825397	73	127
371.22825396825397	371.4720634920635	73	127
371.22825396825397	371.3559637188209	53	127
371.22825396825397	371.4720634920635	58	127
371.3559637188209	371.4720634920635	53	127
371.4720634920635	371.5997505668934	53	127
371.4720634920635	371.7042403628118	57	127
371.4720634920635	371.7042403628118	72	127
371.5997505668934	371.7042403628118	53	127
371.7042403628118	371.9480725623583	61	127
371.7042403628118	371.83197278911564	53	127
371.7042403628118	371.9480725623583	77	127
371.83197278911564	371.9480725623583	53	127
371.9480725623583	372.0641723356009	60	127
371.9480725623583	372.0641723356009	75	127
371.9480725623583	372.0641723356009	53	127
372.0641723356009	372.18027210884355	53	127
372.0641723356009	372.18027210884355	58	127
372.0641723356009	372.18027210884355	73	127
372.18027210884355	372.42408163265304	73	127
372.18027210884355	372.30795918367346	53	127
372.18027210884355	372.42408163265304	58	127
372.30795918367346	372.42408163265304	53	127
372.42408163265304	372.6562811791383	72	127
372.42408163265304	372.5401814058957	53	127
372.42408163265304	372.6562811791383	57	127
372.5401814058957	372.6562811791383	53	127
372.6562811791383	372.7839909297052	53	127
372.6562811791383	372.91170068027213	77	127
372.6562811791383	372.91170068027213	61	127
372.7839909297052	372.91170068027213	53	127
372.91170068027213	373.1555102040816	60	127
372.91170068027213	373.1555102040816	75	127
372.91170068027213	373.02777777777777	53	127
373.02777777777777	373.1555102040816	53	127
373.1555102040816	373.27160997732426	53	127
373.1555102040816	373.3877097505669	58	127
373.1555102040816	373.3877097505669	73	127
373.27160997732426	373.3877097505669	53	127
373.3877097505669	373.50380952380954	53	127
373.3877097505669	373.6199092970522	72	127
373.3877097505669	373.6199092970522	57	127
373.50380952380954	373.6199092970522	53	127
373.6199092970522	373.8521088435374	61	127
373.6199092970522	373.7360090702948	53	127
373.6199092970522	373.8521088435374	77	127
373.7360090702948	373.8521088435374	53	127
373.8521088435374	373.96820861678003	53	127
373.8521088435374	374.08430839002267	60	127
373.8521088435374	374.08430839002267	75	127
373.96820861678003	374.08430839002267	53	127
374.08430839002267	374.2120181405896	53	127
374.08430839002267	374.5602947845805	73	127
374.08430839002267	374.31650793650795	58	127
374.2120181405896	374.31650793650795	53	127
374.31650793650795	374.4326077097506	53	127
374.31650793650795	374.5602947845805	70	127
374.4326077097506	374.5602947845805	53	127
374.5602947845805	377.4163718820862	72	127
374.5602947845805	374.6764172335601	53	127
374.5602947845805	374.7925170068027	69	127
374.6764172335601	374.7925170068027	53	127
374.7925170068027	375.26852607709753	57	127
374.7925170068027	374.9202267573696	53	127
374.9202267573696	375.0479365079365	53	127
375.0479365079365	375.1524263038549	53	127
375.1524263038549	375.26852607709753	53	127
375.26852607709753	375.512335600907	69	127
375.26852607709753	375.38460317460317	53	127
375.38460317460317	375.512335600907	53	127
375.512335600907	375.62843537414966	53	127
375.512335600907	375.75614512471657	68	127
375.62843537414966	375.75614512471657	53	127
375.75614512471657	376.23215419501133	56	127
375.75614512471657	375.8722448979592	53	127
375.8722448979592	375.99995464852606	53	127
375.99995464852606	376.1160544217687	53	127
376.1160544217687	376.23215419501133	53	127
376.23215419501133	376.4759637188209	68	127
376.23215419501133	376.34825396825397	53	127
376.34825396825397	376.4759637188209	53	127
376.4759637188209	376.6965532879819	67	127
376.4759637188209	376.58045351473925	55	127
376.4759637188209	377.4163718820862	39	127
376.58045351473925	376.6965532879819	55	127
376.6965532879819	376.8126303854875	55	127
376.6965532879819	377.1841723356009	55	127
376.8126303854875	376.9403628117914	55	127
376.9403628117914	377.0680725623583	55	127
377.0680725623583	377.1841723356009	55	127
377.1841723356009	377.4163718820862	67	127
377.1841723356009	377.30027210884356	55	127
377.30027210884356	377.4163718820862	55	127
377.4163718820862	379.8196371882086	74	127
377.4163718820862	377.5324716553288	57	127
377.4163718820862	377.6485714285714	38	127
377.4163718820862	379.8196371882086	66	127
377.5324716553288	377.6485714285714	57	127
377.6485714285714	377.76467120181405	57	127
377.6485714285714	377.90399092970523	51	127
377.76467120181405	377.90399092970523	57	127
377.90399092970523	378.1478004535147	50	127
377.90399092970523	378.02009070294787	57	127
378.02009070294787	378.1478004535147	57	127
378.1478004535147	378.26390022675736	57	127
378.1478004535147	378.6121995464853	38	127
378.26390022675736	378.39160997732426	57	127
378.39160997732426	378.5077097505669	57	127
378.5077097505669	378.6121995464853	57	127
378.6121995464853	378.8559863945578	51	127
378.6121995464853	378.7282993197279	57	127
378.7282993197279	378.8559863945578	57	127
378.8559863945578	378.9721088435374	57	127
378.8559863945578	379.08820861678004	50	127
378.9721088435374	379.08820861678004	57	127
379.08820861678004	379.2043083900227	57	127
379.08820861678004	379.5758049886621	38	127
379.2043083900227	379.3320181405896	57	127
379.3320181405896	379.4597278911565	57	127
379.4597278911565	379.5758049886621	57	127
379.5758049886621	379.6919274376417	57	127
379.5758049886621	379.8196371882086	51	127
379.6919274376417	379.8196371882086	57	127
379.8196371882086	379.93573696145125	57	127
379.8196371882086	379.93573696145125	66	127
379.8196371882086	380.07505668934243	74	127
379.8196371882086	379.93573696145125	50	127
379.93573696145125	380.07505668934243	66	127
379.93573696145125	380.07505668934243	57	127
379.93573696145125	380.07505668934243	50	127
380.07505668934243	380.2027664399093	66	127
380.07505668934243	380.2027664399093	50	127
380.07505668934243	380.3304761904762	87	127
380.07505668934243	380.2027664399093	57	127
380.2027664399093	380.3304761904762	50	127
380.2027664399093	380.3304761904762	66	127
380.2027664399093	380.3304761904762	57	127
380.3304761904762	380.46979591836737	50	127
380.3304761904762	380.58589569161	86	127
380.3304761904762	380.46979591836737	66	127
380.3304761904762	380.46979591836737	57	127
380.46979591836737	380.58589569161	66	127
380.46979591836737	380.58589569161	57	127
380.46979591836737	380.58589569161	50	127
380.58589569161	380.7019954648526	57	127
380.58589569161	381.0502947845805	74	127
380.58589569161	380.7019954648526	50	127
380.58589569161	380.7019954648526	66	127
380.7019954648526	380.84131519274376	57	127
380.7019954648526	380.84131519274376	66	127
380.7019954648526	380.84131519274376	50	127
380.84131519274376	380.9574149659864	66	127
380.84131519274376	380.9574149659864	50	127
380.84131519274376	380.9574149659864	57	127
380.9574149659864	381.0502947845805	57	127
380.9574149659864	381.0502947845805	66	127
380.9574149659864	381.0502947845805	50	127
381.0502947845805	381.29410430839005	87	127
381.0502947845805	381.16639455782314	57	127
381.0502947845805	381.16639455782314	66	127
381.0502947845805	381.16639455782314	50	127
381.16639455782314	381.29410430839005	50	127
381.16639455782314	381.29410430839005	57	127
381.16639455782314	381.29410430839005	66	127
381.29410430839005	381.4102040816326	50	127
381.29410430839005	381.52630385487527	86	127
381.29410430839005	381.4102040816326	57	127
381.29410430839005	381.4102040816326	66	127
381.4102040816326	381.52630385487527	50	127
381.4102040816326	381.52630385487527	57	127
381.4102040816326	381.52630385487527	66	127
381.52630385487527	381.63079365079363	57	127
381.52630385487527	381.63079365079363	50	127
381.52630385487527	381.9210430839002	74	127
381.52630385487527	381.63079365079363	66	127
381.63079365079363	381.75850340136054	66	127
381.63079365079363	381.75850340136054	57	127
381.63079365079363	381.75850340136054	50	127
381.9210430839002	382.1416326530612	87	127
382.1416326530612	382.3622222222222	86	127
382.3622222222222	382.8034013605442	74	127
382.8034013605442	383.0472108843537	87	127
383.0472108843537	383.279410430839	86	127
383.279410430839	383.6393197278912	74	127
383.6393197278912	383.6857596371882	74	127
383.7554195011338	383.8134693877551	87	127
383.92956916099774	383.9992290249433	86	127
384.06888888888886	384.1037188208617	74	127
384.1849886621315	384.2198185941043	74	127
384.28947845804987	384.30108843537414	87	127
384.33591836734695	384.3707482993197	74	127
384.42879818594105	384.47523809523807	74	127
384.42879818594105	384.47523809523807	62	127
384.5332879818594	384.57972789115644	75	127
384.5332879818594	384.57972789115644	87	127
384.6609977324263	384.7887074829932	74	127
384.6609977324263	384.7887074829932	86	127
384.8815873015873	384.9164172335601	62	127
384.8815873015873	384.9164172335601	74	127
384.98607709750564	385.0325170068027	74	127
384.98607709750564	385.0325170068027	62	127
385.1021768707483	385.14861678004536	75	127
385.1021768707483	385.14861678004536	87	127
385.2182766439909	385.264716553288	74	127
385.2182766439909	385.264716553288	86	127
385.3227664399093	385.39242630385485	74	127
385.3227664399093	385.39242630385485	62	127
385.47369614512473	385.52013605442176	50	127
385.47369614512473	385.52013605442176	62	127
385.47369614512473	385.52013605442176	74	127
385.5897959183674	385.6362358276644	87	127
385.5897959183674	385.6362358276644	63	127
385.5897959183674	385.6362358276644	75	127
385.65945578231293	385.70589569160995	62	127
385.65945578231293	385.70589569160995	74	127
385.65945578231293	385.70589569160995	86	127
385.77555555555557	385.8103854875283	50	127
385.77555555555557	385.8103854875283	74	127
385.77555555555557	385.8103854875283	62	127
385.8916553287982	385.93809523809523	62	127
385.8916553287982	385.93809523809523	74	127
385.8916553287982	385.93809523809523	50	127
385.9961451247166	386.0425850340136	75	127
385.9961451247166	386.0425850340136	87	127
385.9961451247166	386.0425850340136	63	127
386.11224489795916	386.15868480725624	62	127
386.11224489795916	386.15868480725624	74	127
386.11224489795916	386.15868480725624	86	127
386.2167346938775	386.23995464852607	74	127
386.2167346938775	386.23995464852607	50	127
386.2167346938775	386.23995464852607	62	127
386.2980045351474	386.34444444444443	74	127
386.2980045351474	386.34444444444443	38	127
386.2980045351474	386.34444444444443	50	127
386.2980045351474	386.34444444444443	62	127
386.41410430839	386.4605442176871	75	127
386.41410430839	386.4605442176871	87	127
386.41410430839	386.4605442176871	51	127
386.41410430839	386.4605442176871	63	127
386.53020408163263	386.5766439909297	50	127
386.53020408163263	386.5766439909297	62	127
386.53020408163263	386.5766439909297	86	127
386.53020408163263	386.5766439909297	74	127
386.65791383219954	386.69274376417235	74	127
386.65791383219954	386.69274376417235	38	127
386.65791383219954	386.69274376417235	50	127
386.65791383219954	386.69274376417235	62	127
386.7740136054422	386.82045351473926	74	127
386.7740136054422	386.82045351473926	62	127
386.7740136054422	386.82045351473926	50	127
386.7740136054422	386.82045351473926	38	127
386.8901133786848	386.92494331065757	51	127
386.8901133786848	386.92494331065757	87	127
386.8901133786848	386.92494331065757	75	127
386.8901133786848	386.92494331065757	63	127
386.9946031746032	387.0410430839002	86	127
386.9946031746032	387.0410430839002	62	127
386.9946031746032	387.0410430839002	74	127
386.9946031746032	387.0410430839002	50	127
387.1223129251701	387.1687528344671	74	127
387.1223129251701	387.1687528344671	38	127
387.1223129251701	387.1687528344671	62	127
387.1223129251701	387.1687528344671	50	127
387.2384126984127	387.47061224489795	62	127
387.2384126984127	387.47061224489795	46	127
387.2384126984127	387.47061224489795	53	127
387.2384126984127	387.47061224489795	56	127
387.2384126984127	387.28485260770975	74	127
387.3545124716553	387.4009523809524	91	127
387.47061224489795	387.517052154195	89	127
387.59832199546486	387.6447619047619	86	127
387.7144217687075	387.7608616780045	82	127
387.83052154195013	387.87696145124715	80	127
387.9466213151928	387.9930612244898	77	127
388.0743310657596	388.10916099773243	75	127
388.15560090702945	388.2717006802721	74	127
388.2717006802721	388.352970521542	70	127
388.352970521542	388.4458503401361	77	127
388.4458503401361	388.56195011337866	74	127
388.56195011337866	388.6780498866213	70	127
388.6780498866213	388.78253968253966	68	127
388.78253968253966	388.91024943310657	65	127
388.91024943310657	389.01473922902494	63	127
389.01473922902494	389.2585487528345	50	127
389.01473922902494	389.2585487528345	62	127
389.01473922902494	389.2585487528345	50	127
389.01473922902494	389.1308390022676	62	127
389.1308390022676	389.2585487528345	58	127
389.2585487528345	389.502358276644	65	127
389.2585487528345	389.502358276644	53	127
389.2585487528345	389.502358276644	53	127
389.2585487528345	389.38625850340134	65	127
389.38625850340134	389.502358276644	58	127
389.502358276644	389.7461678004535	56	127
389.502358276644	389.6184580498866	68	127
389.502358276644	389.7461678004535	56	127
389.502358276644	389.7461678004535	68	127
389.6184580498866	389.7461678004535	58	127
389.7461678004535	389.86226757369616	69	127
389.7461678004535	389.9783673469388	69	127
389.7461678004535	389.9783673469388	57	127
389.7461678004535	389.9783673469388	57	127
389.86226757369616	389.9783673469388	58	127
389.9783673469388	390.1292970521542	70	127
389.9783673469388	390.28022675736963	58	127
389.9783673469388	390.28022675736963	58	127
389.9783673469388	390.28022675736963	70	127
390.1292970521542	390.28022675736963	62	127
390.28022675736963	390.4079365079365	74	127
390.28022675736963	390.5240362811791	62	127
390.28022675736963	390.5240362811791	62	127
390.28022675736963	390.5240362811791	74	127
390.4079365079365	390.5240362811791	62	127
390.5240362811791	390.64013605442176	77	127
390.5240362811791	390.76784580498867	77	127
390.5240362811791	390.76784580498867	65	127
390.5240362811791	390.76784580498867	65	127
390.64013605442176	390.76784580498867	62	127
390.76784580498867	390.8955555555556	82	127
390.76784580498867	391.24385487528343	70	127
390.76784580498867	391.24385487528343	58	127
390.76784580498867	391.24385487528343	82	127
390.8955555555556	391.24385487528343	62	127
391.24385487528343	391.487664399093	75	127
391.24385487528343	391.35995464852607	70	127
391.24385487528343	391.35995464852607	63	127
391.24385487528343	391.35995464852607	67	127
391.35995464852607	391.487664399093	67	127
391.35995464852607	391.487664399093	63	127
391.35995464852607	391.487664399093	70	127
391.487664399093	391.65020408163264	63	127
391.487664399093	391.65020408163264	67	127
391.487664399093	391.65020408163264	70	127
391.487664399093	391.7663038548753	77	127
391.65020408163264	391.7663038548753	67	127
391.65020408163264	391.7663038548753	70	127
391.65020408163264	391.7663038548753	63	127
391.7663038548753	391.8940136054422	70	127
391.7663038548753	392.0217233560091	79	127
391.7663038548753	391.8940136054422	63	127
391.7663038548753	391.8940136054422	67	127
391.8940136054422	392.0217233560091	63	127
391.8940136054422	392.0217233560091	70	127
391.8940136054422	392.0217233560091	67	127
392.0217233560091	392.1610430839002	70	127
392.0217233560091	392.1610430839002	67	127
392.0217233560091	392.1610430839002	77	127
392.0217233560091	392.1610430839002	63	127
392.1610430839002	392.27714285714285	67	127
392.1610430839002	392.27714285714285	63	127
392.1610430839002	392.27714285714285	75	127
392.1610430839002	392.27714285714285	70	127
392.27714285714285	392.3932426303855	65	127
392.27714285714285	392.3932426303855	70	127
392.27714285714285	392.3932426303855	62	127
392.27714285714285	392.7415419501134	77	127
392.3932426303855	392.5209523809524	62	127
392.3932426303855	392.5209523809524	65	127
392.3932426303855	392.5209523809524	70	127
392.5209523809524	392.63705215419503	65	127
392.5209523809524	392.63705215419503	70	127
392.5209523809524	392.63705215419503	62	127
392.63705215419503	392.7415419501134	62	127
392.63705215419503	392.7415419501134	70	127
392.63705215419503	392.7415419501134	65	127
392.7415419501134	393.2059410430839	82	127
392.7415419501134	392.857641723356	70	127
392.7415419501134	392.857641723356	65	127
392.7415419501134	392.857641723356	61	127
392.857641723356	392.9853514739229	70	127
392.857641723356	392.9853514739229	65	127
392.857641723356	392.9853514739229	61	127
392.9853514739229	393.08984126984126	65	127
392.9853514739229	393.08984126984126	70	127
392.9853514739229	393.08984126984126	61	127
393.08984126984126	393.2059410430839	70	127
393.08984126984126	393.2059410430839	61	127
393.08984126984126	393.2059410430839	65	127
393.2059410430839	393.69356009070293	75	127
393.2059410430839	393.32204081632653	63	127
393.2059410430839	393.32204081632653	60	127
393.2059410430839	393.32204081632653	67	127
393.32204081632653	393.4613605442177	60	127
393.32204081632653	393.4613605442177	67	127
393.32204081632653	393.4613605442177	63	127
393.4613605442177	393.5774603174603	67	127
393.4613605442177	393.5774603174603	60	127
393.4613605442177	393.5774603174603	63	127
393.5774603174603	393.69356009070293	63	127
393.5774603174603	393.69356009070293	67	127
393.5774603174603	393.69356009070293	60	127
393.69356009070293	393.80965986394557	67	127
393.69356009070293	393.80965986394557	58	127
393.69356009070293	394.2043990929705	79	127
393.69356009070293	393.80965986394557	62	127
393.80965986394557	393.9373696145125	62	127
393.80965986394557	393.9373696145125	67	127
393.80965986394557	393.9373696145125	58	127
393.9373696145125	394.0534693877551	58	127
393.9373696145125	394.0534693877551	62	127
393.9373696145125	394.0534693877551	67	127
394.0534693877551	394.2043990929705	62	127
394.0534693877551	394.2043990929705	58	127
394.0534693877551	394.2043990929705	67	127
394.2043990929705	394.32049886621314	57	127
394.2043990929705	394.32049886621314	60	127
394.2043990929705	394.6804081632653	77	127
394.2043990929705	394.32049886621314	65	127
394.32049886621314	394.44820861678005	60	127
394.32049886621314	394.44820861678005	65	127
394.32049886621314	394.44820861678005	57	127
394.44820861678005	394.5643083900227	57	127
394.44820861678005	394.5643083900227	65	127
394.44820861678005	394.5643083900227	60	127
394.5643083900227	394.6804081632653	60	127
394.5643083900227	394.6804081632653	57	127
394.5643083900227	394.6804081632653	65	127
394.6804081632653	394.79650793650796	65	127
394.6804081632653	394.79650793650796	58	127
394.6804081632653	395.1564172335601	74	127
394.6804081632653	394.79650793650796	56	127
394.79650793650796	394.9242176870748	65	127
394.79650793650796	394.9242176870748	56	127
394.79650793650796	394.9242176870748	58	127
394.9242176870748	395.04031746031745	58	127
394.9242176870748	395.04031746031745	65	127
394.9242176870748	395.04031746031745	56	127
395.04031746031745	395.1564172335601	58	127
395.04031746031745	395.1564172335601	65	127
395.04031746031745	395.1564172335601	56	127
395.1564172335601	395.27251700680273	63	127
395.1564172335601	395.27251700680273	58	127
395.1564172335601	395.27251700680273	55	127
395.1564172335601	395.40022675736964	75	127
395.27251700680273	395.40022675736964	55	127
395.27251700680273	395.40022675736964	58	127
395.27251700680273	395.40022675736964	63	127
395.40022675736964	395.6208163265306	87	127
395.40022675736964	395.6208163265306	75	127
395.40022675736964	395.5163265306122	58	127
395.40022675736964	395.5163265306122	63	127
395.40022675736964	395.5163265306122	55	127
395.5163265306122	395.6208163265306	58	127
395.5163265306122	395.6208163265306	55	127
395.5163265306122	395.6208163265306	63	127
395.6208163265306	395.7369160997732	58	127
395.6208163265306	395.86462585034013	79	127
395.6208163265306	395.86462585034013	91	127
395.6208163265306	395.7369160997732	55	127
395.6208163265306	395.7369160997732	51	127
395.7369160997732	395.86462585034013	51	127
395.7369160997732	395.86462585034013	55	127
395.7369160997732	395.86462585034013	58	127
395.86462585034013	395.98072562358277	55	127
395.86462585034013	395.98072562358277	89	127
395.86462585034013	395.98072562358277	51	127
395.86462585034013	395.98072562358277	77	127
395.86462585034013	395.98072562358277	58	127
395.98072562358277	396.0968253968254	58	127
395.98072562358277	396.0968253968254	51	127
395.98072562358277	396.0968253968254	55	127
395.98072562358277	396.0968253968254	87	127
395.98072562358277	396.0968253968254	75	127
396.0968253968254	396.5728344671202	89	127
396.0968253968254	396.5728344671202	77	127
396.0968253968254	396.21292517006805	58	127
396.0968253968254	396.21292517006805	53	127
396.0968253968254	396.21292517006805	50	127
396.21292517006805	396.3406349206349	50	127
396.21292517006805	396.3406349206349	58	127
396.21292517006805	396.3406349206349	53	127
396.3406349206349	396.45673469387754	53	127
396.3406349206349	396.45673469387754	50	127
396.3406349206349	396.45673469387754	58	127
396.45673469387754	396.5728344671202	58	127
396.45673469387754	396.5728344671202	53	127
396.45673469387754	396.5728344671202	50	127
396.5728344671202	396.6889342403628	58	127
396.5728344671202	396.6889342403628	49	127
396.5728344671202	397.04884353741494	94	127
396.5728344671202	397.04884353741494	82	127
396.5728344671202	396.6889342403628	53	127
396.6889342403628	396.8166439909297	53	127
396.6889342403628	396.8166439909297	49	127
396.6889342403628	396.8166439909297	58	127
396.8166439909297	396.93274376417236	49	127
396.8166439909297	396.93274376417236	58	127
396.8166439909297	396.93274376417236	53	127
396.93274376417236	397.04884353741494	53	127
396.93274376417236	397.04884353741494	58	127
396.93274376417236	397.04884353741494	49	127
397.04884353741494	397.5016326530612	75	127
397.04884353741494	397.1649433106576	55	127
397.04884353741494	397.1649433106576	48	127
397.04884353741494	397.1649433106576	51	127
397.04884353741494	397.5016326530612	87	127
397.1649433106576	397.2926530612245	51	127
397.1649433106576	397.2926530612245	55	127
397.1649433106576	397.2926530612245	48	127
397.2926530612245	397.3855328798186	48	127
397.2926530612245	397.3855328798186	55	127
397.2926530612245	397.3855328798186	51	127
397.3855328798186	397.5016326530612	51	127
397.3855328798186	397.5016326530612	48	127
397.3855328798186	397.5016326530612	55	127
397.5016326530612	397.61773242630386	46	127
397.5016326530612	397.61773242630386	50	127
397.5016326530612	397.61773242630386	55	127
397.5016326530612	397.9660317460318	79	127
397.5016326530612	397.9660317460318	91	127
397.61773242630386	397.7338321995465	55	127
397.61773242630386	397.7338321995465	46	127
397.61773242630386	397.7338321995465	50	127
397.7338321995465	397.84993197278914	50	127
397.7338321995465	397.84993197278914	46	127
397.7338321995465	397.84993197278914	55	127
397.84993197278914	397.9660317460318	50	127
397.84993197278914	397.9660317460318	46	127
397.84993197278914	397.9660317460318	55	127
397.9660317460318	398.0937414965986	45	127
397.9660317460318	398.43043083900227	89	127
397.9660317460318	398.43043083900227	77	127
397.9660317460318	398.0937414965986	51	127
397.9660317460318	398.0937414965986	60	127
398.0937414965986	398.20984126984126	51	127
398.0937414965986	398.20984126984126	45	127
398.0937414965986	398.20984126984126	60	127
398.20984126984126	398.31433106575963	60	127
398.20984126984126	398.31433106575963	45	127
398.20984126984126	398.31433106575963	51	127
398.31433106575963	398.43043083900227	45	127
398.31433106575963	398.43043083900227	51	127
398.31433106575963	398.43043083900227	60	127
398.43043083900227	398.90643990929703	74	127
398.43043083900227	398.5581405895692	44	127
398.43043083900227	398.5581405895692	53	127
398.43043083900227	398.90643990929703	86	127
398.43043083900227	398.5581405895692	58	127
398.5581405895692	398.6742403628118	58	127
398.5581405895692	398.6742403628118	53	127
398.5581405895692	398.6742403628118	44	127
398.6742403628118	398.7903401360544	44	127
398.6742403628118	398.7903401360544	53	127
398.6742403628118	398.7903401360544	58	127
398.7903401360544	398.90643990929703	53	127
398.7903401360544	398.90643990929703	44	127
398.7903401360544	398.90643990929703	58	127
398.90643990929703	399.38244897959186	87	127
398.90643990929703	399.38244897959186	75	127
398.90643990929703	399.03414965986394	58	127
398.90643990929703	399.03414965986394	51	127
398.90643990929703	399.03414965986394	43	127
399.03414965986394	399.1502494331066	43	127
399.03414965986394	399.1502494331066	51	127
399.03414965986394	399.1502494331066	58	127
399.1502494331066	399.2663492063492	58	127
399.1502494331066	399.2663492063492	51	127
399.1502494331066	399.2663492063492	43	127
399.2663492063492	399.38244897959186	51	127
399.2663492063492	399.38244897959186	58	127
399.2663492063492	399.38244897959186	43	127
399.38244897959186	399.5101587301587	46	127
399.38244897959186	399.8584580498866	79	127
399.38244897959186	399.5101587301587	55	127
399.38244897959186	399.8584580498866	91	127
399.38244897959186	399.5101587301587	50	127
399.5101587301587	399.62625850340135	46	127
399.5101587301587	399.62625850340135	50	127
399.5101587301587	399.62625850340135	55	127
399.62625850340135	399.742358276644	46	127
399.62625850340135	399.742358276644	50	127
399.62625850340135	399.742358276644	55	127
399.742358276644	399.8584580498866	55	127
399.742358276644	399.8584580498866	46	127
399.742358276644	399.8584580498866	50	127
399.8584580498866	399.97455782312926	45	127
399.8584580498866	400.3228571428571	89	127
399.8584580498866	399.97455782312926	51	127
399.8584580498866	400.3228571428571	77	127
399.8584580498866	399.97455782312926	60	127
399.97455782312926	400.0906575963719	60	127
399.97455782312926	400.0906575963719	45	127
399.97455782312926	400.0906575963719	51	127
400.0906575963719	400.20675736961454	51	127
400.0906575963719	400.20675736961454	45	127
400.0906575963719	400.20675736961454	60	127
400.20675736961454	400.3228571428571	60	127
400.20675736961454	400.3228571428571	45	127
400.20675736961454	400.3228571428571	51	127
400.3228571428571	400.78725623582767	86	127
400.3228571428571	400.450566893424	44	127
400.3228571428571	400.78725623582767	74	127
400.3228571428571	400.450566893424	53	127
400.3228571428571	400.450566893424	58	127
400.450566893424	400.5550566893424	44	127
400.450566893424	400.5550566893424	58	127
400.450566893424	400.5550566893424	53	127
400.5550566893424	400.67115646258503	53	127
400.5550566893424	400.67115646258503	44	127
400.5550566893424	400.67115646258503	58	127
400.67115646258503	400.78725623582767	58	127
400.67115646258503	400.78725623582767	53	127
400.67115646258503	400.78725623582767	44	127
400.78725623582767	400.88013605442177	75	127
400.78725623582767	400.88013605442177	87	127
400.78725623582767	400.88013605442177	58	127
400.78725623582767	400.88013605442177	43	127
400.88013605442177	400.9962358276644	75	127
400.88013605442177	400.9962358276644	87	127
400.88013605442177	400.9962358276644	43	127
400.88013605442177	400.9962358276644	58	127
400.9962358276644	401.11233560090704	91	127
400.9962358276644	401.11233560090704	62	127
400.9962358276644	401.11233560090704	46	127
400.9962358276644	401.11233560090704	67	127
401.11233560090704	401.2168253968254	62	127
401.11233560090704	401.2168253968254	67	127
401.11233560090704	401.2168253968254	46	127
401.11233560090704	401.2168253968254	91	127
401.2168253968254	401.35614512471653	45	127
401.2168253968254	401.35614512471653	63	127
401.2168253968254	401.35614512471653	72	127
401.2168253968254	401.35614512471653	89	127
401.35614512471653	401.4722448979592	89	127
401.35614512471653	401.4722448979592	45	127
401.35614512471653	401.4722448979592	72	127
401.35614512471653	401.4722448979592	63	127
401.4722448979592	401.5883446712018	86	127
401.4722448979592	401.5883446712018	44	127
401.4722448979592	401.5883446712018	70	127
401.4722448979592	401.5883446712018	65	127
401.5883446712018	401.70444444444445	70	127
401.5883446712018	401.70444444444445	86	127
401.5883446712018	401.70444444444445	44	127
401.5883446712018	401.70444444444445	65	127
401.70444444444445	401.83215419501136	87	127
401.70444444444445	401.83215419501136	43	127
401.70444444444445	401.83215419501136	75	127
401.70444444444445	401.83215419501136	58	127
401.83215419501136	401.9366439909297	75	127
401.83215419501136	401.9366439909297	43	127
401.83215419501136	401.9366439909297	87	127
401.83215419501136	401.9366439909297	58	127
401.9366439909297	402.0411337868481	62	127
401.9366439909297	402.0411337868481	46	127
401.9366439909297	402.0411337868481	91	127
401.9366439909297	402.0411337868481	67	127
402.0411337868481	402.15723356009073	46	127
402.0411337868481	402.15723356009073	67	127
402.0411337868481	402.15723356009073	91	127
402.0411337868481	402.15723356009073	62	127
402.15723356009073	402.2849433106576	72	127
402.15723356009073	402.2849433106576	45	127
402.15723356009073	402.2849433106576	63	127
402.15723356009073	402.2849433106576	89	127
402.2849433106576	402.4010430839002	89	127
402.2849433106576	402.4010430839002	72	127
402.2849433106576	402.4010430839002	45	127
402.2849433106576	402.4010430839002	63	127
402.4010430839002	402.51714285714286	44	127
402.4010430839002	402.51714285714286	86	127
402.4010430839002	402.51714285714286	70	127
402.4010430839002	402.51714285714286	65	127
402.51714285714286	402.6332426303855	65	127
402.51714285714286	402.6332426303855	70	127
402.51714285714286	402.6332426303855	44	127
402.51714285714286	402.6332426303855	86	127
402.6332426303855	402.7609523809524	43	127
402.6332426303855	402.7609523809524	58	127
402.6332426303855	402.7609523809524	75	127
402.6332426303855	402.7609523809524	87	127
402.7609523809524	402.877052154195	87	127
402.7609523809524	402.877052154195	58	127
402.7609523809524	402.877052154195	43	127
402.7609523809524	402.877052154195	75	127
402.877052154195	402.9931519274376	46	127
402.877052154195	402.9931519274376	62	127
402.877052154195	402.9931519274376	67	127
402.877052154195	402.9931519274376	91	127
402.9931519274376	403.10925170068026	67	127
402.9931519274376	403.10925170068026	91	127
402.9931519274376	403.10925170068026	62	127
402.9931519274376	403.10925170068026	46	127
403.10925170068026	403.23696145124717	89	127
403.10925170068026	403.23696145124717	63	127
403.10925170068026	403.23696145124717	72	127
403.10925170068026	403.23696145124717	45	127
403.23696145124717	403.3530612244898	72	127
403.23696145124717	403.3530612244898	89	127
403.23696145124717	403.3530612244898	63	127
403.23696145124717	403.3530612244898	45	127
403.3530612244898	403.46916099773244	65	127
403.3530612244898	403.46916099773244	86	127
403.3530612244898	403.46916099773244	44	127
403.3530612244898	403.46916099773244	70	127
403.46916099773244	403.5736507936508	70	127
403.46916099773244	403.5736507936508	86	127
403.46916099773244	403.5736507936508	44	127
403.46916099773244	403.5736507936508	65	127
403.5736507936508	403.70136054421766	87	127
403.5736507936508	403.70136054421766	43	127
403.5736507936508	403.70136054421766	58	127
403.5736507936508	403.70136054421766	75	127
403.70136054421766	403.8174603174603	75	127
403.70136054421766	403.8174603174603	43	127
403.70136054421766	403.8174603174603	58	127
403.70136054421766	403.8174603174603	87	127
403.8174603174603	403.93356009070294	91	127
403.8174603174603	403.93356009070294	46	127
403.8174603174603	403.93356009070294	73	127
403.8174603174603	403.93356009070294	64	127
403.93356009070294	404.06126984126985	91	127
403.93356009070294	404.06126984126985	64	127
403.93356009070294	404.06126984126985	73	127
403.93356009070294	404.06126984126985	46	127
404.06126984126985	404.18897959183676	65	127
404.06126984126985	404.18897959183676	72	127
404.06126984126985	404.18897959183676	89	127
404.06126984126985	404.18897959183676	44	127
404.18897959183676	404.3282993197279	89	127
404.18897959183676	404.3282993197279	44	127
404.18897959183676	404.3282993197279	65	127
404.18897959183676	404.3282993197279	72	127
404.3282993197279	404.4443990929705	40	127
404.3282993197279	404.4443990929705	85	127
404.3282993197279	404.4443990929705	67	127
404.3282993197279	404.4443990929705	94	127
404.4443990929705	404.56049886621315	94	127
404.4443990929705	404.56049886621315	40	127
404.4443990929705	404.56049886621315	85	127
404.4443990929705	404.56049886621315	67	127
404.56049886621315	404.8043083900227	41	127
404.56049886621315	404.68820861678006	92	127
404.56049886621315	404.8043083900227	68	127
404.56049886621315	404.8043083900227	60	127
404.56049886621315	404.68820861678006	84	127
404.68820861678006	404.8043083900227	89	127
404.68820861678006	404.8043083900227	80	127
404.8043083900227	404.9204081632653	86	127
404.8043083900227	404.9204081632653	77	127
404.9204081632653	405.0365079365079	75	127
404.9204081632653	405.0365079365079	84	127
405.0365079365079	405.29192743764173	62	127
405.0365079365079	405.29192743764173	46	127
405.0365079365079	405.29192743764173	56	127
405.0365079365079	405.1758276643991	80	127
405.0365079365079	405.1758276643991	74	127
405.1758276643991	405.29192743764173	77	127
405.1758276643991	405.29192743764173	72	127
405.29192743764173	405.40802721088437	74	127
405.29192743764173	405.40802721088437	70	127
405.40802721088437	405.5357369614512	80	127
405.40802721088437	405.5357369614512	84	127
405.5357369614512	405.7679365079365	55	127
405.5357369614512	405.7679365079365	82	127
405.5357369614512	405.6286167800454	79	127
405.5357369614512	405.7679365079365	63	127
405.5357369614512	405.7679365079365	39	127
405.7679365079365	406.2207256235828	51	127
405.7679365079365	406.452925170068	79	127
405.7679365079365	406.452925170068	51	127
405.7679365079365	406.2207256235828	75	127
406.2207256235828	406.452925170068	46	127
406.2207256235828	406.452925170068	74	127
406.452925170068	406.69673469387754	73	127
406.452925170068	406.69673469387754	43	127
406.452925170068	406.69673469387754	52	127
406.452925170068	406.56902494331064	79	127
406.56902494331064	406.69673469387754	82	127
406.69673469387754	407.19596371882085	44	127
406.69673469387754	406.8012244897959	72	127
406.69673469387754	407.19596371882085	53	127
406.69673469387754	406.9405442176871	80	127
406.9405442176871	407.0334240362812	70	127
406.9405442176871	407.0334240362812	79	127
407.19596371882085	407.7184126984127	77	127
407.19596371882085	407.4397732426304	46	127
407.19596371882085	407.7184126984127	68	127
407.19596371882085	407.2540136054422	50	127
407.2540136054422	407.3120634920635	48	127
407.3120634920635	407.38172335600905	50	127
407.38172335600905	407.4397732426304	48	127
407.4397732426304	407.7184126984127	46	127
407.4397732426304	407.50943310657595	50	127
407.50943310657595	407.5907029478458	48	127
407.5907029478458	407.64875283446713	50	127
407.64875283446713	407.7184126984127	48	127
407.7184126984127	408.3453514739229	75	127
407.7184126984127	407.83451247165533	51	127
407.7184126984127	408.3453514739229	67	127
407.7184126984127	408.3453514739229	39	127
407.83451247165533	407.95061224489797	55	127
407.95061224489797	408.217641723356	58	127
408.217641723356	408.3453514739229	62	127
408.3453514739229	408.5775510204082	63	127
408.3453514739229	408.46145124716554	77	127
408.46145124716554	408.5775510204082	79	127
408.5775510204082	408.6936507936508	65	127
408.5775510204082	408.6936507936508	80	127
408.6936507936508	408.82136054421767	67	127
408.6936507936508	408.82136054421767	82	127
408.82136054421767	410.00557823129253	68	127
408.82136054421767	408.96068027210885	68	127
408.82136054421767	409.42507936507934	41	127
408.82136054421767	409.42507936507934	84	127
408.96068027210885	409.1348299319728	65	127
409.1348299319728	409.2973696145125	62	127
409.2973696145125	409.42507936507934	60	127
409.42507936507934	410.00557823129253	86	127
409.42507936507934	410.00557823129253	46	127
409.42507936507934	409.58761904761906	56	127
409.58761904761906	409.761768707483	55	127
409.761768707483	409.8778684807256	53	127
409.8778684807256	410.00557823129253	60	127
410.00557823129253	410.49319727891157	87	127
410.00557823129253	410.249387755102	58	127
410.00557823129253	410.49319727891157	67	127
410.00557823129253	411.0156462585034	39	127
410.249387755102	410.7486167800453	55	127
410.49319727891157	411.0156462585034	63	127
410.49319727891157	410.7486167800453	82	127
410.7486167800453	410.87632653061223	55	127
410.7486167800453	411.0156462585034	79	127
410.87632653061223	411.0156462585034	58	127
411.0156462585034	411.5497052154195	41	127
411.0156462585034	411.5497052154195	60	127
411.0156462585034	411.27106575963717	77	127
411.0156462585034	411.1085260770975	56	127
411.27106575963717	411.5497052154195	79	127
411.27106575963717	411.3987755102041	55	127
411.5497052154195	412.17664399092973	53	127
411.5497052154195	412.17664399092973	62	127
411.5497052154195	411.8631746031746	80	127
411.5497052154195	412.17664399092973	46	127
411.8631746031746	412.0489342403628	79	127
412.0489342403628	412.17664399092973	77	127
412.17664399092973	413.80204081632655	39	127
412.17664399092973	412.7455328798186	51	127
412.17664399092973	412.2927437641723	63	127
412.17664399092973	412.7455328798186	75	127
412.2927437641723	412.4668934240363	58	127
412.4668934240363	412.58299319727894	55	127
412.58299319727894	412.7455328798186	58	127
412.7455328798186	412.86163265306124	63	127
412.7455328798186	415.70607709750567	87	127
412.86163265306124	413.04739229024943	67	127
413.04739229024943	413.1634920634921	65	127
413.04739229024943	413.1634920634921	68	127
413.1634920634921	413.291201814059	67	127
413.1634920634921	413.291201814059	70	127
413.291201814059	413.41891156462583	68	127
413.291201814059	413.80204081632655	72	127
413.41891156462583	413.54662131519274	65	127
413.54662131519274	413.6627210884354	62	127
413.6627210884354	413.80204081632655	60	127
413.80204081632655	414.2780498866213	46	127
413.80204081632655	414.2780498866213	74	127
413.80204081632655	413.91814058956913	56	127
413.91814058956913	414.0342403628118	55	127
414.0342403628118	414.1619501133787	53	127
414.1619501133787	414.2780498866213	60	127
414.2780498866213	414.7540589569161	39	127
414.2780498866213	414.5102494331066	58	127
414.2780498866213	414.7540589569161	75	127
414.5102494331066	414.98625850340136	55	127
414.7540589569161	414.98625850340136	70	127
414.7540589569161	415.2300680272109	46	127
414.98625850340136	415.11396825396827	55	127
414.98625850340136	415.2300680272109	67	127
415.11396825396827	415.2300680272109	58	127
415.2300680272109	415.322947845805	56	127
415.2300680272109	415.322947845805	65	127
415.2300680272109	415.70607709750567	39	127
415.4622675736961	415.5551473922902	67	127
415.4622675736961	415.5551473922902	55	127
415.70607709750567	416.40267573696144	82	127
415.70607709750567	416.40267573696144	46	127
415.70607709750567	416.1472562358277	68	127
415.70607709750567	416.40267573696144	53	127
416.1472562358277	416.27496598639453	67	127
416.27496598639453	416.40267573696144	65	127
416.40267573696144	416.9483446712018	87	127
416.40267573696144	416.53038548752835	55	127
416.40267573696144	421.37174603174606	39	127
416.40267573696144	416.68131519274374	63	127
416.68131519274374	416.7741950113379	51	127
416.68131519274374	416.9483446712018	67	127
416.9483446712018	417.5404535147392	82	127
416.9483446712018	417.25020408163266	68	127
416.9483446712018	417.5404535147392	53	127
417.25020408163266	417.38952380952384	67	127
417.38952380952384	417.5404535147392	65	127
417.5404535147392	417.6333333333333	55	127
417.5404535147392	417.87714285714287	63	127
417.5404535147392	418.13256235827663	87	127
417.87714285714287	418.13256235827663	67	127
417.87714285714287	417.97002267573697	51	127
418.13256235827663	418.72467120181403	82	127
418.13256235827663	418.72467120181403	53	127
418.13256235827663	418.457641723356	68	127
418.457641723356	418.5853514739229	67	127
418.5853514739229	418.72467120181403	65	127
418.72467120181403	419.0033106575964	63	127
418.72467120181403	419.25873015873015	87	127
418.72467120181403	418.85238095238094	55	127
419.0033106575964	419.25873015873015	67	127
419.0033106575964	419.10780045351476	51	127
419.25873015873015	419.8624489795918	53	127
419.25873015873015	419.61863945578233	68	127
419.25873015873015	419.8624489795918	82	127
419.61863945578233	419.7463492063492	67	127
419.7463492063492	419.8624489795918	65	127
419.8624489795918	420.1526984126984	55	127
419.8624489795918	420.5474376417234	87	127
419.8624489795918	420.30362811791383	63	127
420.30362811791383	420.5474376417234	67	127
420.30362811791383	420.4081179138322	51	127
420.5474376417234	420.8260770975057	68	127
420.5474376417234	421.37174603174606	53	127
420.5474376417234	421.37174603174606	82	127
420.8260770975057	421.2556462585034	67	127
421.2556462585034	421.37174603174606	65	127
421.37174603174606	421.48784580498864	75	127
421.37174603174606	421.48784580498864	63	127
421.37174603174606	421.48784580498864	87	127
421.37174603174606	421.48784580498864	51	127
421.48784580498864	421.61555555555555	86	127
421.48784580498864	421.61555555555555	51	127
421.48784580498864	421.61555555555555	50	127
421.48784580498864	421.61555555555555	63	127
421.61555555555555	421.74326530612245	51	127
421.61555555555555	421.74326530612245	87	127
421.61555555555555	421.74326530612245	63	127
421.61555555555555	421.74326530612245	75	127
421.74326530612245	421.8593650793651	50	127
421.74326530612245	421.8593650793651	51	127
421.74326530612245	421.8593650793651	63	127
421.74326530612245	421.8593650793651	86	127
421.8593650793651	421.97546485260773	63	127
421.8593650793651	421.97546485260773	75	127
421.8593650793651	422.09156462585037	51	127
421.8593650793651	422.09156462585037	87	127
421.97546485260773	422.09156462585037	51	127
421.97546485260773	422.09156462585037	63	127
422.09156462585037	422.33537414965986	46	127
422.09156462585037	422.2308843537415	75	127
422.09156462585037	422.20766439909295	82	127
422.09156462585037	422.2308843537415	63	127
422.2308843537415	422.33537414965986	51	127
422.2308843537415	422.33537414965986	63	127
422.33537414965986	422.6372335600907	48	127
422.33537414965986	422.6372335600907	84	127
422.33537414965986	422.4514739229025	63	127
422.33537414965986	422.4514739229025	75	127
422.4514739229025	422.6372335600907	63	127
422.4514739229025	422.6372335600907	51	127
422.6372335600907	422.8926530612245	86	127
422.6372335600907	422.8926530612245	50	127
422.6372335600907	422.7649433106576	63	127
422.6372335600907	422.7649433106576	75	127
422.7649433106576	422.8926530612245	63	127
422.7649433106576	422.8926530612245	51	127
422.8926530612245	423.0319727891156	75	127
422.8926530612245	423.1829024943311	87	127
422.8926530612245	423.1829024943311	51	127
422.8926530612245	423.0319727891156	63	127
423.0319727891156	423.1829024943311	63	127
423.0319727891156	423.1829024943311	51	127
423.1829024943311	423.41510204081635	82	127
423.1829024943311	423.2990022675737	63	127
423.1829024943311	423.2990022675737	75	127
423.1829024943311	423.41510204081635	46	127
423.2990022675737	423.41510204081635	51	127
423.2990022675737	423.41510204081635	63	127
423.41510204081635	423.6821315192744	48	127
423.41510204081635	423.53120181405893	63	127
423.41510204081635	423.53120181405893	75	127
423.41510204081635	423.6821315192744	84	127
423.53120181405893	423.6821315192744	63	127
423.53120181405893	423.6821315192744	51	127
423.6821315192744	423.9491609977324	50	127
423.6821315192744	423.8098412698413	63	127
423.6821315192744	423.8098412698413	75	127
423.6821315192744	423.9491609977324	86	127
423.8098412698413	423.9491609977324	51	127
423.8098412698413	423.9491609977324	63	127
423.9491609977324	424.06526077097504	75	127
423.9491609977324	424.06526077097504	63	127
423.9491609977324	424.19297052154195	51	127
423.9491609977324	424.19297052154195	87	127
424.06526077097504	424.19297052154195	63	127
424.06526077097504	424.19297052154195	51	127
424.19297052154195	424.4251700680272	46	127
424.19297052154195	424.3090702947846	75	127
424.19297052154195	424.3090702947846	63	127
424.19297052154195	424.4251700680272	82	127
424.3090702947846	424.4251700680272	51	127
424.3090702947846	424.4251700680272	63	127
424.4251700680272	424.8895691609977	75	127
424.4251700680272	424.8895691609977	84	127
424.4251700680272	424.8895691609977	48	127
424.4251700680272	424.5296598639456	63	127
424.4251700680272	424.8895691609977	67	127
424.4251700680272	424.5296598639456	75	127
424.5296598639456	424.65736961451245	63	127
424.5296598639456	424.65736961451245	51	127
424.65736961451245	424.7734693877551	63	127
424.65736961451245	424.7734693877551	75	127
424.7734693877551	424.8895691609977	63	127
424.7734693877551	424.8895691609977	51	127
424.8895691609977	425.36557823129255	67	127
424.8895691609977	425.00566893424036	62	127
424.8895691609977	425.36557823129255	74	127
424.8895691609977	425.36557823129255	43	127
424.8895691609977	425.00566893424036	74	127
424.8895691609977	425.36557823129255	83	127
425.00566893424036	425.13337868480727	62	127
425.00566893424036	425.13337868480727	50	127
425.13337868480727	425.2494784580499	74	127
425.13337868480727	425.2494784580499	62	127
425.2494784580499	425.36557823129255	62	127
425.2494784580499	425.36557823129255	50	127
425.36557823129255	425.4816780045351	75	127
425.36557823129255	425.78353741496596	48	127
425.36557823129255	425.78353741496596	67	127
425.36557823129255	425.78353741496596	84	127
425.36557823129255	425.4816780045351	63	127
425.36557823129255	425.78353741496596	75	127
425.4816780045351	425.59777777777776	51	127
425.4816780045351	425.59777777777776	63	127
425.59777777777776	425.6674376417234	63	127
425.59777777777776	425.6674376417234	75	127
425.6674376417234	425.78353741496596	51	127
425.6674376417234	425.78353741496596	63	127
425.78353741496596	426.2479365079365	74	127
425.78353741496596	426.2479365079365	83	127
425.78353741496596	426.2479365079365	43	127
425.78353741496596	426.2479365079365	67	127
425.78353741496596	425.88802721088433	62	127
425.78353741496596	425.88802721088433	74	127
425.88802721088433	426.01573696145124	62	127
425.88802721088433	426.01573696145124	50	127
426.01573696145124	426.1318367346939	74	127
426.01573696145124	426.1318367346939	62	127
426.1318367346939	426.2479365079365	62	127
426.1318367346939	426.2479365079365	50	127
426.2479365079365	426.3408163265306	75	127
426.2479365079365	426.58462585034016	67	127
426.2479365079365	426.58462585034016	84	127
426.2479365079365	426.58462585034016	75	127
426.2479365079365	426.58462585034016	48	127
426.2479365079365	426.3408163265306	63	127
426.3408163265306	426.4336961451247	63	127
426.3408163265306	426.4336961451247	51	127
426.4336961451247	426.491746031746	75	127
426.4336961451247	426.491746031746	63	127
426.491746031746	426.58462585034016	51	127
426.491746031746	426.58462585034016	63	127
426.58462585034016	427.0606349206349	43	127
426.58462585034016	427.0606349206349	83	127
426.58462585034016	427.0606349206349	67	127
426.58462585034016	426.70072562358274	62	127
426.58462585034016	427.0606349206349	74	127
426.58462585034016	426.70072562358274	74	127
426.70072562358274	426.82843537414965	62	127
426.70072562358274	426.82843537414965	50	127
426.82843537414965	426.9445351473923	74	127
426.82843537414965	426.9445351473923	62	127
426.9445351473923	427.0606349206349	62	127
426.9445351473923	427.0606349206349	50	127
427.0606349206349	427.17673469387756	75	127
427.0606349206349	427.4785941043084	84	127
427.0606349206349	427.4785941043084	75	127
427.0606349206349	427.4785941043084	67	127
427.0606349206349	427.4785941043084	48	127
427.0606349206349	427.17673469387756	63	127
427.17673469387756	427.2580045351474	51	127
427.17673469387756	427.2580045351474	63	127
427.2580045351474	427.36249433106576	75	127
427.2580045351474	427.36249433106576	63	127
427.36249433106576	427.4785941043084	51	127
427.36249433106576	427.4785941043084	63	127
427.4785941043084	427.82689342403626	86	127
427.4785941043084	427.82689342403626	77	127
427.4785941043084	427.54825396825396	77	127
427.4785941043084	427.54825396825396	65	127
427.4785941043084	427.82689342403626	46	127
427.54825396825396	427.59469387755104	53	127
427.54825396825396	427.59469387755104	65	127
427.59469387755104	427.7107936507937	77	127
427.59469387755104	427.7107936507937	65	127
427.7107936507937	427.82689342403626	65	127
427.7107936507937	427.82689342403626	53	127
427.82689342403626	428.2912925170068	55	127
427.82689342403626	428.2912925170068	70	127
427.82689342403626	428.2912925170068	55	127
427.82689342403626	428.2912925170068	63	127
427.82689342403626	428.2912925170068	63	127
427.82689342403626	428.2912925170068	39	127
427.82689342403626	428.2912925170068	79	127
427.82689342403626	428.2912925170068	46	127
427.82689342403626	428.2912925170068	87	127
428.8485714285714	429.4290702947846	58	127
428.8485714285714	429.4290702947846	63	127
428.8485714285714	429.4290702947846	51	127
428.8485714285714	429.4290702947846	39	127
428.8485714285714	429.4290702947846	55	127
428.8485714285714	429.4290702947846	55	127
429.4290702947846	430.4739682539683	55	127
429.4290702947846	430.4739682539683	39	127
429.4290702947846	430.4739682539683	55	127
429.4290702947846	430.4739682539683	51	127
429.4290702947846	430.4739682539683	58	127
429.4290702947846	430.4739682539683	63	127
430.4739682539683	431.565306122449	63	127
430.4739682539683	431.565306122449	55	127
430.4739682539683	431.565306122449	55	127
430.4739682539683	431.565306122449	58	127
430.4739682539683	431.565306122449	39	127
430.4739682539683	431.565306122449	51	127
