# onset,offset,note,velocity
1.5317460317460319	2.762380952380952	67	127
1.5317460317460319	2.762380952380952	74	127
1.5317460317460319	2.762380952380952	70	127
2.762380952380952	3.366122448979592	69	127
2.762380952380952	3.366122448979592	79	127
2.762380952380952	3.366122448979592	75	127
3.366122448979592	5.780997732426304	74	127
3.366122448979592	5.780997732426304	70	127
3.366122448979592	5.780997732426304	77	127
3.981451247165533	4.88702947845805	46	127
3.981451247165533	4.88702947845805	62	127
3.981451247165533	4.88702947845805	58	127
3.981451247165533	4.88702947845805	53	127
4.88702947845805	5.188888888888889	62	127
4.88702947845805	5.188888888888889	53	127
4.88702947845805	5.188888888888889	46	127
4.88702947845805	5.188888888888889	58	127
5.188888888888889	7.661814058956916	62	127
5.188888888888889	7.661814058956916	58	127
5.188888888888889	7.661814058956916	53	127
5.188888888888889	7.661814058956916	46	127
8.880861678004536	10.088299319727891	70	127
8.880861678004536	10.088299319727891	67	127
8.880861678004536	10.088299319727891	74	127
10.088299319727891	10.69201814058957	69	127
10.088299319727891	10.69201814058957	75	127
10.088299319727891	10.69201814058957	79	127
10.69201814058957	13.095283446712019	74	127
10.69201814058957	13.095283446712019	77	127
10.69201814058957	13.095283446712019	70	127
11.27251700680272	12.189705215419501	58	127
11.27251700680272	12.189705215419501	46	127
11.27251700680272	12.189705215419501	53	127
11.27251700680272	12.189705215419501	62	127
12.189705215419501	12.503174603174603	58	127
12.189705215419501	12.503174603174603	53	127
12.189705215419501	12.503174603174603	46	127
12.189705215419501	12.503174603174603	62	127
12.503174603174603	15.138639455782313	53	127
12.503174603174603	15.138639455782313	62	127
12.503174603174603	15.138639455782313	58	127
12.503174603174603	15.138639455782313	46	127
16.50861678004535	17.716054421768707	74	127
16.50861678004535	17.716054421768707	70	127
16.50861678004535	17.716054421768707	67	127
17.716054421768707	18.517142857142858	79	127
17.716054421768707	18.517142857142858	75	127
17.716054421768707	18.517142857142858	69	127
18.517142857142858	19.74780045351474	77	127
18.517142857142858	19.74780045351474	74	127
18.517142857142858	19.74780045351474	70	127
19.144081632653062	20.351519274376418	46	127
19.144081632653062	20.351519274376418	53	127
19.74780045351474	20.351519274376418	70	127
19.74780045351474	20.351519274376418	65	127
19.74780045351474	20.351519274376418	74	127
20.351519274376418	21.59378684807256	70	127
20.351519274376418	21.59378684807256	74	127
20.351519274376418	21.59378684807256	65	127
20.990068027210885	22.27877551020408	46	127
20.990068027210885	22.27877551020408	53	127
21.59378684807256	22.27877551020408	62	127
21.59378684807256	22.27877551020408	70	127
21.59378684807256	22.27877551020408	65	127
22.27877551020408	23.61392290249433	70	127
22.27877551020408	23.61392290249433	65	127
22.27877551020408	23.61392290249433	62	127
22.92891156462585	24.345351473922904	53	127
22.92891156462585	24.345351473922904	46	127
23.61392290249433	24.345351473922904	65	127
23.61392290249433	24.345351473922904	58	127
23.61392290249433	24.345351473922904	62	127
24.345351473922904	25.622448979591837	57	127
24.345351473922904	25.622448979591837	65	127
24.345351473922904	25.622448979591837	62	127
25.007120181405895	26.23777777777778	48	127
25.007120181405895	26.23777777777778	41	127
25.622448979591837	26.23777777777778	57	127
25.622448979591837	26.23777777777778	60	127
25.622448979591837	26.23777777777778	63	127
26.23777777777778	26.911156462585033	53	127
26.23777777777778	26.911156462585033	46	127
26.23777777777778	27.224625850340136	62	127
26.23777777777778	27.538095238095238	58	127
26.911156462585033	27.538095238095238	55	127
26.911156462585033	27.538095238095238	39	127
27.224625850340136	27.538095238095238	60	127
27.538095238095238	27.93283446712018	62	127
27.538095238095238	28.281133786848073	41	127
27.538095238095238	28.281133786848073	57	127
27.538095238095238	28.281133786848073	57	127
27.93283446712018	28.281133786848073	63	127
28.281133786848073	29.140272108843536	58	127
28.281133786848073	29.442131519274376	62	127
28.281133786848073	29.743990929705216	58	127
28.281133786848073	29.140272108843536	46	127
29.140272108843536	29.743990929705216	39	127
29.140272108843536	29.743990929705216	55	127
29.442131519274376	29.743990929705216	60	127
29.743990929705216	30.440589569161	57	127
29.743990929705216	30.440589569161	57	127
29.743990929705216	30.440589569161	41	127
29.743990929705216	30.080680272108843	62	127
30.080680272108843	30.440589569161	63	127
30.440589569161	32.50716553287982	46	127
30.440589569161	31.915056689342403	58	127
30.440589569161	31.915056689342403	62	127
30.440589569161	31.29972789115646	58	127
31.29972789115646	31.915056689342403	53	127
31.915056689342403	32.50716553287982	51	127
31.915056689342403	32.50716553287982	60	127
31.915056689342403	32.50716553287982	57	127
32.50716553287982	34.92204081632653	53	127
32.50716553287982	34.92204081632653	46	127
32.50716553287982	34.92204081632653	50	127
32.50716553287982	34.92204081632653	58	127
36.73319727891157	37.95224489795918	77	127
36.73319727891157	37.95224489795918	74	127
36.73319727891157	37.95224489795918	82	127
37.95224489795918	38.53274376417234	78	127
37.95224489795918	38.53274376417234	84	127
37.95224489795918	38.53274376417234	87	127
38.53274376417234	40.924399092970525	79	127
38.53274376417234	40.924399092970525	86	127
38.53274376417234	40.924399092970525	82	127
39.113242630385486	40.018798185941044	43	127
39.113242630385486	40.018798185941044	50	127
39.113242630385486	40.018798185941044	55	127
39.113242630385486	40.018798185941044	58	127
40.018798185941044	40.30907029478458	55	127
40.018798185941044	40.30907029478458	43	127
40.018798185941044	40.30907029478458	58	127
40.018798185941044	40.30907029478458	50	127
40.30907029478458	42.73555555555556	43	127
40.30907029478458	42.73555555555556	50	127
40.30907029478458	42.73555555555556	55	127
40.30907029478458	42.73555555555556	58	127
44.89501133786848	46.102448979591834	79	127
44.89501133786848	46.102448979591834	82	127
46.102448979591834	46.46235827664399	87	127
46.102448979591834	46.46235827664399	78	127
46.102448979591834	46.46235827664399	84	127
46.46235827664399	47.971655328798185	86	127
46.46235827664399	47.971655328798185	79	127
46.46235827664399	47.971655328798185	82	127
46.775827664399095	47.21700680272109	58	127
46.775827664399095	47.21700680272109	55	127
46.775827664399095	47.21700680272109	50	127
46.775827664399095	47.21700680272109	43	127
47.21700680272109	47.39115646258504	58	127
47.21700680272109	47.39115646258504	43	127
47.21700680272109	47.39115646258504	50	127
47.21700680272109	47.39115646258504	55	127
47.39115646258504	49.78281179138322	50	127
47.39115646258504	49.78281179138322	58	127
47.39115646258504	49.78281179138322	55	127
47.39115646258504	49.78281179138322	43	127
53.04521541950113	54.39197278911565	82	127
53.04521541950113	54.39197278911565	79	127
54.39197278911565	55.01891156462585	84	127
54.39197278911565	55.01891156462585	87	127
54.39197278911565	55.01891156462585	78	127
55.01891156462585	56.21473922902494	77	127
55.01891156462585	56.21473922902494	82	127
55.01891156462585	56.21473922902494	86	127
55.61102040816326	56.9809977324263	46	127
55.61102040816326	56.9809977324263	53	127
56.21473922902494	56.9809977324263	74	127
56.21473922902494	56.9809977324263	77	127
56.21473922902494	56.9809977324263	82	127
56.9809977324263	58.1768253968254	74	127
56.9809977324263	58.1768253968254	77	127
56.9809977324263	58.1768253968254	82	127
57.57310657596372	59.09401360544218	46	127
57.57310657596372	59.09401360544218	53	127
58.1768253968254	59.09401360544218	77	127
58.1768253968254	59.09401360544218	70	127
58.1768253968254	59.09401360544218	74	127
59.09401360544218	60.37111111111111	77	127
59.09401360544218	60.37111111111111	74	127
59.09401360544218	60.37111111111111	70	127
59.69773242630386	61.102539682539685	53	127
59.69773242630386	61.102539682539685	46	127
60.37111111111111	61.102539682539685	65	127
60.37111111111111	61.102539682539685	74	127
60.37111111111111	61.102539682539685	70	127
61.102539682539685	62.35641723356009	74	127
61.102539682539685	63.08784580498866	69	127
61.102539682539685	62.35641723356009	65	127
61.74108843537415	63.08784580498866	48	127
61.74108843537415	63.08784580498866	41	127
62.35641723356009	63.08784580498866	72	127
62.35641723356009	63.08784580498866	63	127
63.08784580498866	63.74961451247165	43	127
63.08784580498866	63.74961451247165	62	127
63.08784580498866	64.57392290249433	55	127
63.08784580498866	64.57392290249433	67	127
63.08784580498866	64.19079365079365	70	127
63.74961451247165	64.57392290249433	48	127
63.74961451247165	65.177641723356	63	127
64.19079365079365	64.57392290249433	69	127
64.57392290249433	64.86417233560091	70	127
64.57392290249433	66.6288888888889	55	127
64.57392290249433	66.6288888888889	67	127
64.57392290249433	65.177641723356	36	127
64.86417233560091	65.177641723356	72	127
65.177641723356	65.76975056689342	43	127
65.177641723356	66.11804988662132	70	127
65.177641723356	65.76975056689342	62	127
65.76975056689342	66.6288888888889	48	127
65.76975056689342	67.60410430839002	63	127
66.11804988662132	66.6288888888889	69	127
66.6288888888889	67.23260770975057	70	127
66.6288888888889	67.60410430839002	36	127
66.6288888888889	67.60410430839002	55	127
66.6288888888889	67.60410430839002	67	127
67.23260770975057	67.60410430839002	72	127
67.60410430839002	70.90133786848072	43	127
67.60410430839002	68.90444444444445	55	127
67.60410430839002	68.90444444444445	67	127
67.60410430839002	68.90444444444445	70	127
67.60410430839002	68.26589569160998	62	127
68.26589569160998	68.90444444444445	55	127
68.90444444444445	69.5778231292517	51	127
68.90444444444445	69.5778231292517	60	127
68.90444444444445	69.5778231292517	67	127
69.5778231292517	70.90133786848072	67	127
69.5778231292517	70.90133786848072	50	127
69.5778231292517	70.90133786848072	58	127
70.90133786848072	71.57473922902494	74	127
71.59795918367347	72.22489795918368	57	127
71.59795918367347	72.22489795918368	50	127
71.59795918367347	72.22489795918368	62	127
71.59795918367347	72.22489795918368	57	127
71.59795918367347	72.22489795918368	66	127
71.59795918367347	72.22489795918368	74	127
72.22489795918368	72.86344671201815	69	127
72.86344671201815	73.46716553287982	66	127
73.46716553287982	74.12893424036281	51	127
73.46716553287982	74.12893424036281	60	127
73.46716553287982	74.12893424036281	51	127
73.46716553287982	74.12893424036281	67	127
73.46716553287982	74.12893424036281	55	127
74.12893424036281	75.06934240362811	60	127
75.06934240362811	75.37120181405896	60	127
75.37120181405896	75.97492063492064	60	127
75.37120181405896	75.97492063492064	67	127
75.37120181405896	75.97492063492064	55	127
75.37120181405896	75.97492063492064	60	127
75.37120181405896	75.97492063492064	51	127
75.37120181405896	75.97492063492064	45	127
75.97492063492064	76.57863945578231	62	127
76.57863945578231	77.22879818594105	63	127
77.22879818594105	77.84412698412699	57	127
77.22879818594105	77.84412698412699	57	127
77.22879818594105	77.84412698412699	69	127
77.22879818594105	77.84412698412699	63	127
77.22879818594105	77.84412698412699	42	127
77.22879818594105	77.84412698412699	48	127
77.84412698412699	78.44784580498866	62	127
78.44784580498866	79.01673469387755	74	127
79.01673469387755	79.62045351473922	62	127
79.01673469387755	79.62045351473922	66	127
79.01673469387755	79.62045351473922	69	127
79.01673469387755	79.31859410430839	75	127
79.31859410430839	79.62045351473922	74	127
79.62045351473922	80.17770975056689	69	127
80.17770975056689	80.76984126984127	66	127
80.76984126984127	81.3271201814059	67	127
80.76984126984127	81.3271201814059	72	127
80.76984126984127	81.3271201814059	67	127
80.76984126984127	81.3271201814059	63	127
81.3271201814059	82.22108843537416	60	127
82.22108843537416	82.51133786848072	60	127
82.51133786848072	83.13827664399093	67	127
82.51133786848072	83.13827664399093	60	127
82.51133786848072	83.13827664399093	57	127
82.51133786848072	83.13827664399093	63	127
83.13827664399093	83.76521541950113	62	127
83.76521541950113	84.4037641723356	63	127
84.4037641723356	85.01909297052154	69	127
84.4037641723356	85.01909297052154	60	127
84.4037641723356	85.01909297052154	54	127
84.4037641723356	85.61120181405896	65	127
85.61120181405896	86.20331065759638	62	127
86.20331065759638	87.44557823129252	63	127
86.83024943310657	87.41072562358276	50	127
86.83024943310657	87.12049886621315	54	127
86.83024943310657	87.41072562358276	60	127
86.83024943310657	87.41072562358276	57	127
87.44557823129252	88.03768707482993	62	127
88.03768707482993	88.92002267573696	67	127
88.92002267573696	89.40766439909297	66	127
89.40766439909297	90.55702947845805	70	127
89.9417006802721	90.55702947845805	66	127
89.9417006802721	90.55702947845805	57	127
89.9417006802721	90.55702947845805	60	127
89.9417006802721	90.55702947845805	50	127
89.9417006802721	90.55702947845805	38	127
90.55702947845805	91.10272108843537	69	127
91.10272108843537	91.68321995464852	54	127
91.10272108843537	92.24049886621316	75	127
91.10272108843537	91.98507936507937	72	127
91.10272108843537	91.68321995464852	38	127
91.68321995464852	92.24049886621316	50	127
91.68321995464852	92.24049886621316	45	127
91.98507936507937	92.24049886621316	69	127
92.24049886621316	92.542358276644	71	127
92.24049886621316	92.80938775510204	74	127
92.24049886621316	92.80938775510204	57	127
92.24049886621316	92.80938775510204	42	127
92.542358276644	92.80938775510204	72	127
92.80938775510204	93.68013605442177	72	127
92.80938775510204	93.95877551020408	75	127
92.80938775510204	93.37827664399093	38	127
92.80938775510204	93.37827664399093	54	127
93.37827664399093	93.95877551020408	45	127
93.37827664399093	93.95877551020408	50	127
93.68013605442177	93.95877551020408	69	127
93.95877551020408	94.53927437641724	42	127
93.95877551020408	94.53927437641724	57	127
93.95877551020408	94.24902494331066	71	127
93.95877551020408	94.53927437641724	74	127
94.24902494331066	94.53927437641724	72	127
94.53927437641724	95.14299319727891	72	127
94.53927437641724	95.14299319727891	54	127
94.53927437641724	95.14299319727891	38	127
94.53927437641724	95.14299319727891	81	127
95.14299319727891	95.64222222222222	78	127
95.66544217687076	96.17628117913833	74	127
96.19950113378685	96.7451700680272	72	127
96.76839002267573	97.36049886621315	69	127
97.38371882086167	97.92938775510204	66	127
97.96421768707484	98.53310657596371	62	127
98.55632653061224	99.1368253968254	60	127
99.17165532879818	99.77537414965987	57	127
99.81020408163265	106.9271201814059	55	127
99.81020408163265	101.01764172335601	74	127
99.81020408163265	100.40231292517007	71	127
100.40231292517007	101.01764172335601	62	127
101.01764172335601	101.64458049886622	69	127
101.01764172335601	101.64458049886622	72	127
101.64458049886622	102.84040816326531	71	127
101.64458049886622	102.23668934240362	67	127
102.23668934240362	102.84040816326531	62	127
102.84040816326531	103.43251700680273	60	127
102.84040816326531	103.43251700680273	69	127
103.43251700680273	104.02462585034013	67	127
103.43251700680273	104.62834467120182	62	127
103.43251700680273	104.02462585034013	59	127
104.02462585034013	104.62834467120182	62	127
104.02462585034013	106.9271201814059	62	127
104.62834467120182	105.20884353741496	57	127
104.62834467120182	105.20884353741496	60	127
105.20884353741496	105.77773242630386	55	127
105.20884353741496	106.358231292517	59	127
105.77773242630386	106.358231292517	62	127
106.358231292517	106.9271201814059	72	127
106.358231292517	106.9271201814059	57	127
106.9271201814059	113.4287074829932	55	127
106.9271201814059	107.43795918367347	70	127
106.9271201814059	108.03006802721089	74	127
106.9271201814059	108.03006802721089	55	127
107.43795918367347	108.03006802721089	62	127
108.03006802721089	108.6221768707483	69	127
108.03006802721089	108.1809977324263	72	127
108.1809977324263	108.32031746031745	74	127
108.32031746031745	108.47124716553287	72	127
108.47124716553287	108.6221768707483	71	127
108.6221768707483	109.04013605442177	67	127
108.6221768707483	109.48131519274376	70	127
109.04013605442177	109.48131519274376	62	127
109.48131519274376	109.62063492063493	69	127
109.48131519274376	110.06181405895691	60	127
109.62063492063493	109.75995464852608	70	127
109.75995464852608	109.9108843537415	69	127
109.9108843537415	110.06181405895691	70	127
110.06181405895691	111.21120181405895	62	127
110.06181405895691	110.64231292517007	58	127
110.06181405895691	110.64231292517007	67	127
110.64231292517007	113.4287074829932	62	127
110.64231292517007	111.21120181405895	62	127
111.21120181405895	111.36213151927437	60	127
111.21120181405895	111.80331065759637	57	127
111.36213151927437	111.51306122448979	62	127
111.51306122448979	111.65238095238095	60	127
111.65238095238095	111.80331065759637	59	127
111.80331065759637	112.37219954648526	55	127
111.80331065759637	112.89464852607709	58	127
112.37219954648526	112.89464852607709	62	127
112.89464852607709	113.4287074829932	60	127
112.89464852607709	113.01074829931973	57	127
113.01074829931973	113.15006802721088	58	127
113.15006802721088	113.30099773242631	57	127
113.30099773242631	113.4287074829932	58	127
113.4287074829932	113.98598639455783	55	127
113.4287074829932	113.98598639455783	58	127
113.4287074829932	113.98598639455783	67	127
113.4287074829932	113.98598639455783	58	127
113.98598639455783	114.54326530612245	60	127
113.98598639455783	114.54326530612245	51	127
113.98598639455783	114.54326530612245	55	127
113.98598639455783	114.54326530612245	69	127
114.54326530612245	115.08893424036282	53	127
114.54326530612245	115.08893424036282	70	127
114.54326530612245	115.08893424036282	46	127
114.54326530612245	115.08893424036282	62	127
115.08893424036282	116.24993197278911	51	127
115.08893424036282	115.6578231292517	58	127
115.08893424036282	115.6578231292517	67	127
115.08893424036282	116.24993197278911	55	127
115.6578231292517	116.24993197278911	60	127
115.6578231292517	116.24993197278911	69	127
116.24993197278911	116.8536507936508	62	127
116.24993197278911	116.8536507936508	46	127
116.24993197278911	116.8536507936508	53	127
116.24993197278911	116.8536507936508	70	127
116.8536507936508	117.480589569161	63	127
116.8536507936508	117.480589569161	55	127
116.8536507936508	118.07269841269841	48	127
116.8536507936508	118.07269841269841	51	127
117.480589569161	118.07269841269841	57	127
117.480589569161	118.07269841269841	65	127
118.07269841269841	118.67641723356009	43	127
118.07269841269841	118.67641723356009	50	127
118.07269841269841	118.67641723356009	67	127
118.07269841269841	118.67641723356009	58	127
118.67641723356009	119.31496598639455	63	127
118.67641723356009	119.9302947845805	48	127
118.67641723356009	119.9302947845805	51	127
118.67641723356009	119.31496598639455	55	127
119.31496598639455	119.9302947845805	57	127
119.31496598639455	119.9302947845805	65	127
119.9302947845805	120.67333333333333	43	127
119.9302947845805	120.67333333333333	67	127
119.9302947845805	120.67333333333333	58	127
119.9302947845805	120.67333333333333	50	127
120.45274376417234	120.67333333333333	59	127
120.45274376417234	120.67333333333333	62	127
120.67333333333333	123.07659863945578	50	127
120.67333333333333	121.86916099773242	71	127
120.67333333333333	121.86916099773242	74	127
120.97519274376417	121.277052154195	52	127
121.277052154195	121.57891156462586	50	127
121.57891156462586	121.86916099773242	38	127
121.86916099773242	122.47287981859411	72	127
121.86916099773242	122.47287981859411	69	127
122.47287981859411	123.703537414966	67	127
122.47287981859411	123.703537414966	71	127
122.77473922902495	123.07659863945578	52	127
123.07659863945578	123.703537414966	62	127
123.07659863945578	123.41328798185941	50	127
123.41328798185941	123.703537414966	38	127
123.703537414966	124.35369614512472	60	127
123.703537414966	124.35369614512472	69	127
123.703537414966	124.35369614512472	66	127
124.35369614512472	124.98063492063493	43	127
124.35369614512472	124.98063492063493	59	127
124.35369614512472	124.98063492063493	71	127
124.35369614512472	124.98063492063493	67	127
124.98063492063493	125.57274376417233	36	127
124.98063492063493	125.57274376417233	64	127
124.98063492063493	125.28249433106576	69	127
125.28249433106576	125.57274376417233	71	127
125.57274376417233	125.87460317460318	72	127
125.57274376417233	126.17646258503402	66	127
125.57274376417233	126.17646258503402	38	127
125.87460317460318	126.78018140589569	70	127
126.17646258503402	126.78018140589569	43	127
126.17646258503402	126.78018140589569	67	127
126.78018140589569	127.43034013605443	36	127
126.78018140589569	127.10526077097505	69	127
126.78018140589569	127.43034013605443	64	127
127.10526077097505	127.43034013605443	70	127
127.43034013605443	128.05727891156462	65	127
127.43034013605443	127.75541950113379	72	127
127.43034013605443	128.05727891156462	38	127
128.05727891156462	129.27632653061224	43	127
128.05727891156462	129.27632653061224	71	127
128.05727891156462	129.27632653061224	67	127
128.05727891156462	128.6609977324263	50	127
128.6609977324263	129.27632653061224	62	127
129.27632653061224	130.14707482993197	67	127
129.27632653061224	130.14707482993197	64	127
129.27632653061224	130.14707482993197	60	127
129.27632653061224	130.14707482993197	55	127
130.1702947845805	131.63315192743764	67	127
130.1702947845805	131.63315192743764	59	127
130.1702947845805	131.63315192743764	55	127
130.1702947845805	131.63315192743764	62	127
131.69120181405896	132.27170068027212	79	127
132.29492063492063	132.59678004535147	83	127
132.29492063492063	133.502358276644	86	127
132.29492063492063	135.89401360544218	55	127
132.59678004535147	132.89861678004536	74	127
132.89861678004536	133.2004761904762	86	127
133.2004761904762	133.502358276644	83	127
133.502358276644	133.79260770975057	81	127
133.502358276644	134.0944671201814	84	127
133.79260770975057	134.0944671201814	74	127
134.0944671201814	135.3018820861678	83	127
134.0944671201814	134.39632653061224	79	127
134.39632653061224	134.69818594104308	74	127
134.69818594104308	135.00004535147391	71	127
135.00004535147391	135.3018820861678	74	127
135.3018820861678	135.89401360544218	81	127
135.3018820861678	135.59215419501135	72	127
135.59215419501135	135.89401360544218	74	127
135.89401360544218	136.19587301587302	62	127
135.89401360544218	136.49773242630386	79	127
135.89401360544218	136.49773242630386	71	127
135.89401360544218	136.49773242630386	43	127
136.19587301587302	136.49773242630386	71	127
136.49773242630386	137.10145124716553	74	127
136.49773242630386	136.7995918367347	74	127
136.49773242630386	140.0968253968254	55	127
136.49773242630386	137.69356009070296	74	127
136.7995918367347	137.10145124716553	71	127
137.10145124716553	137.69356009070296	72	127
137.10145124716553	137.40331065759636	69	127
137.40331065759636	137.69356009070296	62	127
137.69356009070296	138.26242630385488	71	127
137.69356009070296	137.98380952380953	67	127
137.98380952380953	138.28566893424036	62	127
138.28566893424036	138.5875283446712	59	127
138.28566893424036	138.86616780045352	71	127
138.5875283446712	138.88938775510204	62	127
138.88938775510204	139.20285714285714	60	127
138.88938775510204	139.4698866213152	69	127
139.20285714285714	139.49308390022676	62	127
139.3421768707483	139.49308390022676	58	127
139.49308390022676	139.7949433106576	70	127
139.49308390022676	142.8019501133787	55	127
139.49308390022676	140.5960544217687	86	127
139.7949433106576	140.0968253968254	74	127
140.0968253968254	140.39868480725625	79	127
140.39868480725625	140.5960544217687	82	127
140.5960544217687	140.8514739229025	81	127
140.5960544217687	141.14172335600907	84	127
140.8514739229025	141.14172335600907	74	127
141.14172335600907	141.4435827664399	79	127
141.14172335600907	142.22145124716553	82	127
141.4435827664399	141.74544217687074	74	127
141.74544217687074	141.94278911564626	70	127
141.94278911564626	142.22145124716553	74	127
142.22145124716553	142.8019501133787	81	127
142.22145124716553	142.5117006802721	72	127
142.5117006802721	142.8019501133787	74	127
142.8019501133787	143.38244897959183	79	127
142.8019501133787	143.09219954648526	62	127
142.8019501133787	143.38244897959183	43	127
142.8019501133787	143.38244897959183	70	127
143.09219954648526	143.38244897959183	70	127
143.38244897959183	143.8932879818594	74	127
143.38244897959183	146.26172335600907	55	127
143.38244897959183	143.64947845804988	74	127
143.38244897959183	144.4621768707483	74	127
143.64947845804988	143.8932879818594	70	127
143.8932879818594	144.16031746031746	69	127
143.8932879818594	144.4621768707483	72	127
144.16031746031746	144.4621768707483	62	127
144.4621768707483	144.76403628117913	67	127
144.4621768707483	145.04267573696146	70	127
144.76403628117913	145.06589569160997	62	127
145.06589569160997	145.63478458049886	70	127
145.06589569160997	145.36773242630386	58	127
145.36773242630386	145.6580045351474	62	127
145.6580045351474	145.95986394557823	60	127
145.6580045351474	146.2268934240363	69	127
145.95986394557823	146.26172335600907	62	127
146.26172335600907	146.52875283446713	58	127
146.26172335600907	146.83061224489796	55	127
146.26172335600907	146.83061224489796	67	127
146.52875283446713	146.83061224489796	62	127
146.83061224489796	147.4459410430839	53	127
146.83061224489796	147.4459410430839	69	127
146.83061224489796	147.14408163265307	63	127
147.14408163265307	147.4459410430839	60	127
147.4459410430839	148.0380498866213	58	127
147.4459410430839	148.0380498866213	70	127
147.4459410430839	147.73619047619047	62	127
147.73619047619047	148.0380498866213	65	127
148.0380498866213	148.61854875283447	67	127
148.0380498866213	148.61854875283447	70	127
148.0380498866213	148.3282993197279	74	127
148.3282993197279	148.61854875283447	79	127
148.61854875283447	148.89716553287982	77	127
148.61854875283447	149.18743764172336	69	127
148.61854875283447	149.18743764172336	72	127
148.89716553287982	149.18743764172336	75	127
149.18743764172336	149.7098866213152	70	127
149.18743764172336	149.7098866213152	74	127
149.18743764172336	149.44285714285715	74	127
149.44285714285715	149.7098866213152	77	127
149.7098866213152	150.25555555555556	58	127
149.7098866213152	150.25555555555556	70	127
149.7098866213152	149.97691609977323	61	127
149.97691609977323	150.25555555555556	65	127
150.25555555555556	150.8012244897959	56	127
150.25555555555556	150.8012244897959	72	127
150.25555555555556	150.49936507936508	66	127
150.49936507936508	150.8012244897959	63	127
150.8012244897959	151.38172335600908	73	127
150.8012244897959	151.10308390022675	65	127
150.8012244897959	151.38172335600908	61	127
151.10308390022675	151.38172335600908	68	127
151.38172335600908	151.92739229024943	70	127
151.38172335600908	151.92739229024943	73	127
151.38172335600908	151.66036281179137	77	127
151.66036281179137	151.92739229024943	82	127
151.92739229024943	152.46145124716554	75	127
151.92739229024943	152.46145124716554	72	127
151.92739229024943	152.19442176870749	80	127
152.19442176870749	152.46145124716554	78	127
152.46145124716554	152.96068027210885	77	127
152.46145124716554	152.96068027210885	73	127
152.46145124716554	152.68201814058958	77	127
152.68201814058958	152.96068027210885	80	127
152.96068027210885	153.26253968253968	73	127
152.96068027210885	154.08684807256236	66	127
152.96068027210885	154.08684807256236	70	127
152.96068027210885	153.541179138322	82	127
153.26253968253968	153.541179138322	70	127
153.541179138322	154.08684807256236	84	127
153.541179138322	153.8198185941043	75	127
153.8198185941043	154.08684807256236	72	127
154.08684807256236	154.63251700680271	85	127
154.08684807256236	154.63251700680271	61	127
154.08684807256236	154.63251700680271	68	127
154.08684807256236	154.35387755102042	77	127
154.35387755102042	154.63251700680271	73	127
154.63251700680271	155.1781859410431	82	127
154.63251700680271	154.89954648526077	73	127
154.63251700680271	155.7702947845805	70	127
154.63251700680271	155.7702947845805	66	127
154.89954648526077	155.1781859410431	70	127
155.1781859410431	155.7702947845805	84	127
155.1781859410431	155.48004535147393	75	127
155.48004535147393	155.7702947845805	72	127
155.7702947845805	156.2578911564626	61	127
155.7702947845805	156.2578911564626	68	127
155.7702947845805	155.9908843537415	77	127
155.7702947845805	156.2578911564626	85	127
155.9908843537415	156.2578911564626	73	127
156.2578911564626	157.4653514739229	66	127
156.2578911564626	157.4653514739229	63	127
156.2578911564626	156.5597732426304	70	127
156.2578911564626	156.86163265306124	78	127
156.5597732426304	156.86163265306124	66	127
156.86163265306124	157.4653514739229	80	127
156.86163265306124	157.16349206349207	72	127
157.16349206349207	157.4653514739229	68	127
157.4653514739229	158.0574603174603	58	127
157.4653514739229	157.76721088435374	73	127
157.4653514739229	158.0574603174603	82	127
157.4653514739229	158.0574603174603	65	127
157.76721088435374	158.0574603174603	70	127
158.0574603174603	159.24167800453515	66	127
158.0574603174603	158.64956916099774	78	127
158.0574603174603	158.3477097505669	70	127
158.0574603174603	159.24167800453515	63	127
158.3477097505669	158.64956916099774	66	127
158.64956916099774	159.24167800453515	80	127
158.64956916099774	158.9398185941043	72	127
158.9398185941043	159.24167800453515	68	127
159.24167800453515	159.88022675736963	82	127
159.24167800453515	159.88022675736963	65	127
159.24167800453515	159.88022675736963	58	127
159.24167800453515	159.57834467120182	73	127
159.57834467120182	159.88022675736963	70	127
159.88022675736963	163.6882993197279	65	127
159.88022675736963	161.2037641723356	74	127
159.88022675736963	161.2037641723356	77	127
160.18208616780046	160.4839455782313	55	127
160.4839455782313	160.7974149659864	53	127
160.7974149659864	161.2037641723356	41	127
161.2037641723356	161.84231292517006	75	127
161.2037641723356	161.84231292517006	72	127
161.84231292517006	163.07297052154195	70	127
161.84231292517006	163.07297052154195	74	127
162.1441723356009	162.44603174603174	55	127
162.44603174603174	162.7711111111111	53	127
162.7711111111111	163.07297052154195	41	127
163.07297052154195	163.6882993197279	69	127
163.07297052154195	163.6882993197279	72	127
163.6882993197279	164.4081179138322	46	127
163.6882993197279	164.73319727891158	74	127
163.6882993197279	164.4081179138322	70	127
164.04820861678004	164.4081179138322	58	127
164.4081179138322	165.09310657596373	39	127
164.4081179138322	164.73319727891158	55	127
164.4081179138322	165.09310657596373	67	127
164.73319727891158	165.09310657596373	51	127
164.73319727891158	165.09310657596373	72	127
165.09310657596373	165.39496598639457	74	127
165.09310657596373	165.6968253968254	41	127
165.09310657596373	165.6968253968254	69	127
165.39496598639457	165.51104308390023	53	127
165.39496598639457	165.6968253968254	75	127
165.6968253968254	166.6024036281179	74	127
165.6968253968254	166.30054421768708	46	127
165.6968253968254	166.30054421768708	70	127
165.99868480725624	166.30054421768708	58	127
166.30054421768708	166.9274829931973	39	127
166.30054421768708	166.6024036281179	55	127
166.30054421768708	166.9274829931973	67	127
166.6024036281179	166.9274829931973	51	127
166.6024036281179	166.9274829931973	72	127
166.9274829931973	167.55439909297053	69	127
166.9274829931973	167.22934240362812	41	127
166.9274829931973	167.22934240362812	74	127
167.22934240362812	167.55439909297053	42	127
167.22934240362812	167.55439909297053	75	127
167.22934240362812	167.36866213151927	60	127
167.55439909297053	168.48321995464852	59	127
167.55439909297053	168.16972789115647	43	127
167.55439909297053	168.16972789115647	74	127
167.85628117913834	168.16972789115647	71	127
168.16972789115647	168.78507936507935	76	127
168.16972789115647	168.78507936507935	36	127
168.16972789115647	168.48321995464852	67	127
168.48321995464852	168.78507936507935	57	127
168.48321995464852	168.78507936507935	64	127
168.78507936507935	169.11015873015873	59	127
168.78507936507935	169.42362811791384	74	127
168.78507936507935	169.42362811791384	38	127
169.11015873015873	169.23786848072564	66	127
169.11015873015873	169.42362811791384	60	127
169.42362811791384	170.0273469387755	74	127
169.42362811791384	170.0273469387755	43	127
169.42362811791384	170.34081632653061	59	127
169.72548752834467	170.0273469387755	71	127
170.0273469387755	170.63106575963718	76	127
170.0273469387755	170.34081632653061	67	127
170.0273469387755	170.63106575963718	48	127
170.34081632653061	170.63106575963718	64	127
170.34081632653061	170.63106575963718	57	127
170.63106575963718	170.93292517006802	59	127
170.63106575963718	171.3160544217687	74	127
170.63106575963718	171.3160544217687	50	127
170.93292517006802	171.3160544217687	60	127
170.93292517006802	171.0954648526077	66	127
171.3160544217687	171.95460317460316	55	127
171.3160544217687	172.26807256235827	74	127
171.3160544217687	172.26807256235827	59	127
171.3160544217687	172.58154195011338	67	127
171.95460317460316	172.58154195011338	52	127
172.26807256235827	172.5699319727891	72	127
172.26807256235827	172.58154195011338	57	127
172.58154195011338	173.37102040816328	64	127
172.58154195011338	173.37102040816328	48	127
172.58154195011338	172.91823129251702	74	127
172.58154195011338	172.92984126984126	59	127
172.92984126984126	173.37102040816328	60	127
172.92984126984126	173.359410430839	76	127
173.37102040816328	174.27659863945578	55	127
173.37102040816328	174.27659863945578	71	127
173.37102040816328	173.97473922902495	52	127
173.37102040816328	173.97473922902495	67	127
173.97473922902495	174.96158730158731	64	127
173.97473922902495	174.96158730158731	48	127
174.27659863945578	174.96158730158731	54	127
174.27659863945578	174.78743764172336	69	127
174.96158730158731	175.63496598639455	60	127
174.96158730158731	175.63496598639455	45	127
174.96158730158731	175.2402267573696	71	127
174.96158730158731	175.25183673469388	55	127
175.25183673469388	175.63496598639455	57	127
175.25183673469388	175.60013605442177	72	127
175.63496598639455	176.9701133786848	50	127
175.63496598639455	176.9701133786848	62	127
175.63496598639455	176.9701133786848	71	127
175.63496598639455	176.35478458049886	54	127
176.35478458049886	176.9701133786848	52	127
176.9701133786848	177.64349206349206	65	127
176.9701133786848	177.64349206349206	60	127
176.9701133786848	177.64349206349206	38	127
176.9701133786848	177.64349206349206	57	127
177.64349206349206	178.8277097505669	59	127
177.64349206349206	178.58390022675738	43	127
177.64349206349206	179.43142857142857	50	127
177.64349206349206	179.12956916099773	67	127
178.8277097505669	179.3965986394558	43	127
179.12956916099773	179.43142857142857	65	127
179.43142857142857	179.7216553287982	67	127
179.7216553287982	180.24412698412698	69	127
180.24412698412698	180.8478231292517	67	127
180.24412698412698	182.11333333333334	43	127
180.24412698412698	180.82462585034014	55	127
180.24412698412698	181.16131519274376	67	127
180.8478231292517	181.43995464852608	55	127
181.16131519274376	181.47478458049886	66	127
181.47478458049886	182.0901133786848	55	127
181.47478458049886	181.8114739229025	67	127
181.8114739229025	182.11333333333334	69	127
182.11333333333334	183.01891156462585	79	127
182.11333333333334	182.69383219954648	55	127
182.11333333333334	182.4035827664399	53	127
182.11333333333334	183.92448979591836	41	127
182.11333333333334	182.71705215419502	67	127
182.71705215419502	183.2975283446712	55	127
182.71705215419502	183.00730158730158	53	127
183.01891156462585	183.3207709750567	78	127
183.3207709750567	183.90126984126985	55	127
183.3207709750567	183.59941043083901	53	127
183.3207709750567	183.62263038548753	79	127
183.62263038548753	183.92448979591836	80	127
183.92448979591836	185.74725623582768	39	127
183.92448979591836	184.84167800453514	67	127
183.92448979591836	184.5281859410431	79	127
183.92448979591836	184.50498866213152	55	127
183.92448979591836	184.21473922902496	51	127
184.5281859410431	185.12031746031747	55	127
184.5281859410431	184.83004535147393	51	127
184.84167800453514	185.14353741496598	66	127
185.14353741496598	185.44537414965987	67	127
185.14353741496598	185.72403628117914	55	127
185.14353741496598	185.4221768707483	51	127
185.44537414965987	185.74725623582768	68	127
185.74725623582768	186.3161224489796	55	127
185.74725623582768	186.02589569160997	53	127
185.74725623582768	187.53519274376418	38	127
185.74725623582768	186.33936507936508	67	127
185.74725623582768	186.64122448979592	79	127
186.33936507936508	186.62961451247165	53	127
186.33936507936508	186.91986394557824	55	127
186.64122448979592	186.94308390022675	78	127
186.94308390022675	187.23331065759638	53	127
186.94308390022675	187.51197278911565	55	127
186.94308390022675	187.2449433106576	79	127
187.2449433106576	187.53519274376418	80	127
187.53519274376418	189.96167800453514	80	127
187.53519274376418	188.48721088435374	51	127
187.53519274376418	188.48721088435374	63	127
187.53519274376418	188.1853514739229	36	127
188.1853514739229	188.78907029478458	48	127
188.48721088435374	188.78907029478458	50	127
188.48721088435374	188.78907029478458	62	127
188.78907029478458	189.35795918367347	48	127
188.78907029478458	189.09092970521542	51	127
188.78907029478458	189.09092970521542	63	127
189.09092970521542	189.38115646258504	53	127
189.09092970521542	189.38115646258504	65	127
189.38115646258504	190.26353741496598	51	127
189.38115646258504	190.26353741496598	63	127
189.38115646258504	189.95006802721088	47	127
189.96167800453514	190.5421768707483	47	127
189.96167800453514	190.56539682539682	82	127
190.26353741496598	190.56539682539682	62	127
190.26353741496598	190.56539682539682	50	127
190.56539682539682	191.1691156462585	83	127
190.56539682539682	190.86725623582765	63	127
190.56539682539682	190.86725623582765	51	127
190.56539682539682	191.1342857142857	47	127
190.86725623582765	191.1691156462585	53	127
190.86725623582765	191.1691156462585	65	127
191.1691156462585	191.74961451247165	46	127
191.1691156462585	192.07469387755103	50	127
191.1691156462585	192.07469387755103	62	127
191.1691156462585	191.7728344671202	83	127
191.7728344671202	192.35333333333332	46	127
191.7728344671202	192.37655328798186	82	127
192.07469387755103	192.37655328798186	48	127
192.07469387755103	192.37655328798186	60	127
192.37655328798186	192.98027210884354	80	127
192.37655328798186	192.6784126984127	62	127
192.37655328798186	192.94544217687076	46	127
192.37655328798186	192.6784126984127	50	127
192.6784126984127	192.98027210884354	51	127
192.6784126984127	192.98027210884354	63	127
192.98027210884354	193.92068027210885	62	127
192.98027210884354	193.60721088435375	80	127
192.98027210884354	193.92068027210885	50	127
192.98027210884354	193.5839909297052	46	127
193.60721088435375	194.2225396825397	78	127
193.60721088435375	194.19931972789115	46	127
193.92068027210885	194.2225396825397	60	127
193.92068027210885	194.2225396825397	48	127
194.2225396825397	194.84947845804987	77	127
194.2225396825397	194.8146485260771	46	127
194.2225396825397	194.54761904761904	50	127
194.2225396825397	194.54761904761904	62	127
194.54761904761904	194.84947845804987	68	127
194.54761904761904	194.84947845804987	56	127
194.84947845804987	198.15832199546486	66	127
194.84947845804987	196.9508843537415	54	127
194.84947845804987	196.9508843537415	59	127
194.84947845804987	195.85954648526078	75	127
194.84947845804987	195.47641723356008	47	127
195.49963718820862	196.14979591836735	47	127
195.85954648526078	196.17301587301588	74	127
196.17301587301588	196.5097052154195	75	127
196.17301587301588	196.9160544217687	47	127
196.5097052154195	196.9508843537415	76	127
196.9508843537415	198.1118820861678	75	127
196.9508843537415	197.51977324263038	47	127
196.9508843537415	198.82009070294785	54	127
196.9508843537415	198.82009070294785	58	127
197.54299319727892	198.13510204081632	47	127
198.15832199546486	198.7968707482993	73	127
198.15832199546486	198.7968707482993	47	127
198.15832199546486	198.82009070294785	64	127
198.82009070294785	200.6892970521542	59	127
198.82009070294785	200.6892970521542	54	127
198.82009070294785	199.7488888888889	75	127
198.82009070294785	199.41219954648525	47	127
198.82009070294785	201.96639455782312	66	127
199.4354195011338	200.05074829931974	47	127
199.7488888888889	200.07396825396825	74	127
200.07396825396825	200.37582766439908	75	127
200.07396825396825	200.6544671201814	47	127
200.37582766439908	200.6892970521542	76	127
200.6892970521542	202.5701133786848	58	127
200.6892970521542	202.5701133786848	54	127
200.6892970521542	201.91995464852607	75	127
200.6892970521542	201.35106575963718	47	127
201.37428571428572	201.9431746031746	47	127
201.96639455782312	202.54689342403628	73	127
201.96639455782312	202.54689342403628	47	127
201.96639455782312	202.5701133786848	64	127
202.5701133786848	203.1390022675737	75	127
202.5701133786848	203.1390022675737	63	127
202.5701133786848	203.1390022675737	54	127
202.5701133786848	204.36965986394557	47	127
203.16222222222223	203.7427210884354	58	127
203.16222222222223	203.7427210884354	64	127
203.16222222222223	203.7427210884354	73	127
203.7659410430839	204.34643990929706	59	127
203.7659410430839	204.34643990929706	63	127
203.7659410430839	204.34643990929706	71	127
204.36965986394557	204.9269387755102	75	127
204.36965986394557	204.9269387755102	66	127
204.36965986394557	204.9269387755102	54	127
204.36965986394557	205.89056689342402	47	127
204.95015873015873	205.54226757369614	73	127
204.95015873015873	205.54226757369614	58	127
204.95015873015873	205.54226757369614	64	127
205.56548752834468	206.16920634920635	59	127
205.56548752834468	206.16920634920635	63	127
205.56548752834468	206.16920634920635	71	127
205.89056689342402	206.1924263038549	49	127
206.1924263038549	206.76131519274375	63	127
206.1924263038549	206.76131519274375	58	127
206.1924263038549	209.77990929705214	51	127
206.1924263038549	206.76131519274375	79	127
206.79614512471656	207.3418140589569	77	127
206.79614512471656	207.3418140589569	62	127
206.79614512471656	207.3418140589569	68	127
207.36503401360545	207.9455328798186	63	127
207.36503401360545	207.9455328798186	75	127
207.36503401360545	207.9455328798186	67	127
207.96875283446713	208.54925170068026	58	127
207.96875283446713	208.54925170068026	63	127
207.96875283446713	208.54925170068026	79	127
208.59569160997734	209.15297052154196	62	127
208.59569160997734	209.15297052154196	77	127
208.59569160997734	209.15297052154196	68	127
209.17619047619047	209.75668934240363	75	127
209.17619047619047	209.75668934240363	63	127
209.17619047619047	209.75668934240363	67	127
209.77990929705214	211.67233560090702	51	127
209.77990929705214	210.33718820861677	75	127
209.77990929705214	210.33718820861677	67	127
209.77990929705214	210.33718820861677	55	127
210.37201814058957	210.9292970521542	59	127
210.37201814058957	210.9292970521542	65	127
210.37201814058957	210.9292970521542	74	127
210.9525170068027	211.63750566893424	60	127
210.9525170068027	211.63750566893424	63	127
210.9525170068027	211.63750566893424	72	127
211.67233560090702	212.36893424036282	62	127
211.67233560090702	212.36893424036282	67	127
211.67233560090702	213.86662131519273	52	127
211.67233560090702	212.36893424036282	70	127
212.4037641723356	213.05392290249432	60	127
212.4037641723356	213.05392290249432	69	127
212.4037641723356	213.05392290249432	67	127
213.07714285714286	213.84340136054422	70	127
213.07714285714286	213.84340136054422	67	127
213.07714285714286	213.84340136054422	62	127
213.86662131519273	214.1917006802721	72	127
213.86662131519273	215.10888888888888	77	127
213.86662131519273	215.10888888888888	74	127
214.1917006802721	214.36585034013606	70	127
214.36585034013606	214.51678004535148	65	127
214.51678004535148	214.81863945578232	62	127
215.10888888888888	215.41074829931972	58	127
215.10888888888888	215.7590476190476	74	127
215.10888888888888	215.7590476190476	70	127
215.41074829931972	215.7590476190476	62	127
215.7590476190476	216.97809523809525	70	127
215.7590476190476	216.97809523809525	74	127
215.7590476190476	216.06090702947847	67	127
216.06090702947847	216.2118367346939	65	127
216.2118367346939	216.37437641723355	62	127
216.37437641723355	216.68784580498865	58	127
216.97809523809525	217.3031746031746	53	127
216.97809523809525	217.60503401360543	70	127
216.97809523809525	217.60503401360543	65	127
217.3031746031746	217.60503401360543	58	127
217.60503401360543	218.88213151927437	70	127
217.60503401360543	217.98816326530613	63	127
217.60503401360543	218.88213151927437	65	127
217.98816326530613	218.15070294784582	62	127
218.15070294784582	218.30163265306123	58	127
218.30163265306123	218.5918820861678	53	127
218.88213151927437	219.48585034013607	62	127
218.88213151927437	219.48585034013607	65	127
218.88213151927437	219.19560090702947	50	127
219.19560090702947	219.48585034013607	53	127
219.48585034013607	219.76448979591837	58	127
219.48585034013607	220.65845804988663	65	127
219.48585034013607	220.65845804988663	62	127
219.76448979591837	219.91541950113378	57	127
219.91541950113378	220.0663492063492	53	127
220.0663492063492	220.36820861678004	50	127
220.65845804988663	221.38988662131518	63	127
220.65845804988663	221.38988662131518	60	127
220.65845804988663	220.99514739229025	57	127
220.99514739229025	221.38988662131518	53	127
221.38988662131518	222.1097052154195	58	127
221.38988662131518	222.43478458049887	62	127
221.38988662131518	221.7962358276644	58	127
221.7962358276644	221.95877551020408	55	127
221.95877551020408	222.1097052154195	57	127
222.1097052154195	223.06172335600908	58	127
222.1097052154195	223.37519274376416	55	127
222.43478458049887	222.75986394557822	60	127
222.75986394557822	223.06172335600908	62	127
223.06172335600908	223.37519274376416	57	127
223.06172335600908	223.37519274376416	63	127
223.37519274376416	223.7118820861678	58	127
223.37519274376416	224.03696145124715	58	127
223.37519274376416	224.35043083900226	62	127
223.7118820861678	223.88603174603173	55	127
223.88603174603173	224.03696145124715	57	127
224.03696145124715	225.47659863945577	55	127
224.03696145124715	225.16312925170067	58	127
224.35043083900226	224.81482993197278	60	127
224.81482993197278	225.16312925170067	62	127
225.16312925170067	225.47659863945577	63	127
225.16312925170067	225.47659863945577	57	127
225.47659863945577	226.24285714285713	58	127
225.47659863945577	226.24285714285713	58	127
225.47659863945577	226.8814058956916	62	127
226.24285714285713	226.8814058956916	57	127
226.24285714285713	227.4851247165533	57	127
226.8814058956916	227.4851247165533	53	127
226.8814058956916	227.4851247165533	60	127
227.4851247165533	228.10045351473923	51	127
227.4851247165533	228.72739229024944	58	127
228.10045351473923	228.72739229024944	50	127
233.05791383219955	233.68485260770976	74	127
233.68485260770976	234.27696145124716	77	127
234.27696145124716	235.681768707483	62	127
234.27696145124716	234.69492063492063	84	127
234.27696145124716	235.681768707483	65	127
234.69492063492063	234.85746031746032	82	127
234.69492063492063	235.03160997732425	91	127
234.85746031746032	235.03160997732425	77	127
235.03160997732425	235.35668934240363	89	127
235.03160997732425	235.35668934240363	74	127
235.35668934240363	235.681768707483	82	127
235.681768707483	236.33192743764172	58	127
235.681768707483	235.9952380952381	74	127
235.681768707483	236.33192743764172	62	127
235.9952380952381	236.33192743764172	77	127
236.33192743764172	236.63378684807256	79	127
236.33192743764172	237.57419501133788	58	127
236.33192743764172	237.57419501133788	62	127
236.63378684807256	236.78471655328798	77	127
236.63378684807256	236.9356462585034	87	127
236.78471655328798	236.9356462585034	74	127
236.9356462585034	237.27233560090704	70	127
236.9356462585034	237.27233560090704	86	127
237.27233560090704	237.57419501133788	81	127
237.57419501133788	237.92249433106576	70	127
237.57419501133788	238.21274376417233	53	127
237.57419501133788	238.21274376417233	58	127
237.92249433106576	238.21274376417233	74	127
238.21274376417233	239.45501133786848	53	127
238.21274376417233	239.45501133786848	58	127
238.21274376417233	238.52621315192744	75	127
238.52621315192744	238.83968253968254	87	127
238.52621315192744	238.67714285714285	74	127
238.67714285714285	238.83968253968254	70	127
238.83968253968254	239.15315192743765	65	127
238.83968253968254	239.15315192743765	86	127
239.15315192743765	239.45501133786848	77	127
239.45501133786848	240.14	53	127
239.45501133786848	239.84975056689342	65	127
239.45501133786848	240.14	50	127
239.84975056689342	240.14	70	127
240.14	240.5115192743764	72	127
240.14	241.463537414966	50	127
240.14	241.463537414966	53	127
240.5115192743764	240.81337868480725	84	127
240.5115192743764	240.66244897959183	70	127
240.66244897959183	240.81337868480725	65	127
240.81337868480725	241.12684807256235	82	127
240.81337868480725	241.12684807256235	62	127
241.12684807256235	241.463537414966	77	127
241.463537414966	241.8350566893424	63	127
241.463537414966	242.19496598639455	51	127
241.463537414966	242.19496598639455	48	127
241.463537414966	241.8350566893424	79	127
241.8350566893424	242.19496598639455	60	127
241.8350566893424	242.19496598639455	81	127
242.19496598639455	243.17020408163265	50	127
242.19496598639455	242.8683446712018	62	127
242.19496598639455	242.54326530612244	83	127
242.19496598639455	245.9798185941043	43	127
242.54326530612244	242.8683446712018	84	127
242.8683446712018	243.17020408163265	65	127
242.8683446712018	243.17020408163265	83	127
243.17020408163265	243.47206349206348	48	127
243.17020408163265	244.08739229024943	79	127
243.17020408163265	243.47206349206348	63	127
243.47206349206348	243.7855328798186	50	127
243.47206349206348	243.7855328798186	62	127
243.7855328798186	244.08739229024943	60	127
243.7855328798186	244.08739229024943	51	127
244.08739229024943	244.70272108843537	62	127
244.08739229024943	245.01619047619047	50	127
244.08739229024943	244.37764172335602	83	127
244.37764172335602	244.70272108843537	84	127
244.70272108843537	245.01619047619047	83	127
244.70272108843537	245.01619047619047	65	127
245.01619047619047	245.37609977324263	48	127
245.01619047619047	245.37609977324263	63	127
245.01619047619047	245.9798185941043	79	127
245.37609977324263	245.67795918367347	62	127
245.37609977324263	245.67795918367347	50	127
245.67795918367347	245.9798185941043	51	127
245.67795918367347	245.9798185941043	60	127
245.9798185941043	246.49065759637188	59	127
245.9798185941043	246.142358276644	83	127
245.9798185941043	246.49065759637188	62	127
245.9798185941043	246.49065759637188	50	127
245.9798185941043	248.7429931972789	43	127
246.142358276644	246.31650793650795	84	127
246.31650793650795	246.49065759637188	83	127
246.49065759637188	246.6764172335601	55	127
246.49065759637188	246.6764172335601	79	127
246.49065759637188	246.6764172335601	60	127
246.49065759637188	246.6764172335601	63	127
246.6764172335601	246.89700680272108	83	127
246.6764172335601	247.19886621315192	55	127
246.6764172335601	247.19886621315192	62	127
246.6764172335601	247.19886621315192	59	127
246.89700680272108	247.0479365079365	84	127
247.0479365079365	247.19886621315192	83	127
247.19886621315192	247.34979591836733	55	127
247.19886621315192	247.34979591836733	63	127
247.19886621315192	247.34979591836733	79	127
247.19886621315192	247.34979591836733	60	127
247.34979591836733	247.8374149659864	55	127
247.34979591836733	247.8374149659864	59	127
247.34979591836733	247.8374149659864	62	127
247.34979591836733	247.50072562358275	83	127
247.50072562358275	247.68648526077098	84	127
247.68648526077098	247.8374149659864	83	127
247.8374149659864	247.99995464852609	63	127
247.8374149659864	247.99995464852609	60	127
247.8374149659864	247.99995464852609	55	127
247.8374149659864	247.99995464852609	79	127
247.99995464852609	248.7429931972789	59	127
247.99995464852609	248.17410430839	83	127
247.99995464852609	248.7429931972789	62	127
247.99995464852609	248.7429931972789	55	127
248.17410430839	248.4063038548753	84	127
248.4063038548753	248.5572335600907	83	127
248.5572335600907	248.7429931972789	79	127
248.7429931972789	248.89392290249432	79	127
248.89392290249432	249.056462585034	81	127
249.056462585034	249.20739229024943	79	127
249.20739229024943	249.4047619047619	74	127
249.4047619047619	249.56730158730159	74	127
249.56730158730159	249.718231292517	75	127
249.718231292517	249.92721088435374	74	127
249.92721088435374	250.07814058956916	71	127
250.07814058956916	251.36684807256236	71	127
250.07814058956916	251.36684807256236	74	127
250.07814058956916	250.41482993197278	69	127
250.41482993197278	250.55414965986395	67	127
250.55414965986395	250.70507936507937	62	127
250.70507936507937	251.06498866213153	59	127
251.36684807256236	251.81963718820862	59	127
251.36684807256236	252.144716553288	67	127
251.36684807256236	252.144716553288	71	127
251.81963718820862	252.144716553288	62	127
252.144716553288	253.3637641723356	71	127
252.144716553288	253.3637641723356	67	127
252.144716553288	252.44657596371883	63	127
252.44657596371883	252.59750566893425	62	127
252.59750566893425	252.76004535147393	59	127
252.76004535147393	253.06190476190477	55	127
253.3637641723356	253.66562358276644	50	127
253.3637641723356	254.0487528344671	67	127
253.3637641723356	254.0487528344671	62	127
253.66562358276644	254.0487528344671	55	127
254.0487528344671	255.38390022675736	62	127
254.0487528344671	254.4551020408163	60	127
254.0487528344671	255.38390022675736	67	127
254.4551020408163	254.60603174603173	59	127
254.60603174603173	254.75696145124718	55	127
254.75696145124718	255.05882086167802	50	127
255.38390022675736	256.02244897959184	62	127
255.38390022675736	256.02244897959184	55	127
255.38390022675736	256.02244897959184	59	127
255.38390022675736	255.70897959183674	50	127
255.70897959183674	256.02244897959184	55	127
256.02244897959184	257.2995238095238	59	127
256.02244897959184	257.2995238095238	62	127
256.02244897959184	256.3591383219955	60	127
256.02244897959184	257.2995238095238	55	127
256.3591383219955	256.5100680272109	59	127
256.5100680272109	256.6609977324263	55	127
256.6609977324263	256.97446712018143	50	127
257.2995238095238	257.6246258503401	50	127
257.2995238095238	257.91485260770975	59	127
257.2995238095238	257.91485260770975	55	127
257.6246258503401	258.25156462585034	55	127
257.91485260770975	259.33129251700683	60	127
257.91485260770975	259.33129251700683	56	127
258.25156462585034	258.41408163265305	53	127
258.41408163265305	258.59986394557825	48	127
258.59986394557825	259.029410430839	53	127
259.33129251700683	259.64473922902494	58	127
259.33129251700683	260.5619274376417	65	127
259.33129251700683	260.5619274376417	60	127
259.64473922902494	259.7956916099773	56	127
259.7956916099773	259.9466213151928	53	127
259.9466213151928	260.2484807256236	56	127
260.5619274376417	262.605306122449	68	127
260.5619274376417	262.605306122449	65	127
260.5619274376417	260.86380952380955	61	127
260.86380952380955	261.09600907029477	60	127
261.09600907029477	261.2469387755102	56	127
261.2469387755102	262.18734693877553	60	127
262.605306122449	262.9187528344671	67	127
262.605306122449	263.9520634920635	72	127
262.605306122449	263.9520634920635	68	127
262.9187528344671	263.09292517006804	65	127
263.09292517006804	263.37156462585034	60	127
263.37156462585034	263.6618140589569	65	127
263.9520634920635	265.17108843537414	72	127
263.9520634920635	265.17108843537414	77	127
263.9520634920635	264.25390022675737	70	127
264.25390022675737	264.416462585034	68	127
264.416462585034	264.5673922902494	65	127
264.5673922902494	264.86925170068025	68	127
265.17108843537414	266.3321088435374	80	127
265.17108843537414	266.3321088435374	77	127
265.17108843537414	265.472947845805	73	127
265.472947845805	265.62390022675737	72	127
265.62390022675737	265.7748072562358	68	127
265.7748072562358	266.07668934240365	72	127
266.3321088435374	267.4698866213152	62	127
266.3321088435374	267.4698866213152	70	127
266.3321088435374	267.4698866213152	77	127
266.3321088435374	267.4698866213152	80	127
267.4698866213152	267.7485260770975	67	127
267.4698866213152	268.65410430839	77	127
267.4698866213152	268.65410430839	74	127
267.4698866213152	268.65410430839	70	127
267.4698866213152	268.65410430839	68	127
267.7485260770975	267.89945578231294	65	127
267.89945578231294	268.05038548752833	62	127
268.05038548752833	268.35224489795917	58	127
268.65410430839	270.47687074829935	68	127
268.65410430839	270.47687074829935	74	127
268.65410430839	270.47687074829935	65	127
268.65410430839	270.47687074829935	70	127
269.2346031746032	269.5480725623583	60	127
269.5480725623583	269.6990022675737	58	127
269.6990022675737	269.84993197278914	53	127
269.84993197278914	270.16340136054424	50	127
270.47687074829935	270.7787301587302	65	127
270.47687074829935	271.0457596371882	62	127
270.47687074829935	271.0457596371882	68	127
270.47687074829935	271.0457596371882	70	127
271.06897959183675	271.6726984126984	68	127
271.06897959183675	271.6726984126984	65	127
271.06897959183675	271.6726984126984	62	127
271.06897959183675	271.3592290249433	58	127
271.06897959183675	271.3708390022676	55	127
271.3708390022676	271.53337868480725	53	127
271.53337868480725	271.69591836734696	50	127
271.69591836734696	272.4157369614513	65	127
271.69591836734696	272.11385487528344	46	127
271.69591836734696	272.4157369614513	62	127
271.69591836734696	272.4157369614513	62	127
271.69591836734696	272.10226757369617	56	127
271.69591836734696	272.10226757369617	58	127
272.43895691609976	272.76403628117913	53	127
272.43895691609976	273.06589569160997	62	127
272.43895691609976	273.06589569160997	56	127
272.43895691609976	273.06589569160997	58	127
273.0891156462585	273.6928344671202	56	127
273.0891156462585	273.6928344671202	58	127
273.0891156462585	273.6928344671202	53	127
273.0891156462585	273.39097505668934	51	127
273.39097505668934	273.5419047619048	50	127
273.5419047619048	273.727664399093	46	127
273.727664399093	274.38943310657595	56	127
273.727664399093	274.4126530612245	50	127
273.727664399093	274.38943310657595	53	127
273.727664399093	274.38943310657595	58	127
274.4126530612245	275.05120181405897	53	127
274.4126530612245	275.05120181405897	56	127
274.4126530612245	275.05120181405897	58	127
275.0860090702948	275.9103401360544	53	127
275.0860090702948	275.9103401360544	56	127
275.0860090702948	275.9103401360544	58	127
275.0860090702948	275.5736507936508	51	127
275.5736507936508	275.78263038548755	50	127
275.78263038548755	275.93356009070294	48	127
275.93356009070294	276.59532879818596	50	127
275.93356009070294	276.56049886621315	53	127
275.93356009070294	276.56049886621315	56	127
275.93356009070294	276.56049886621315	58	127
276.59532879818596	277.2106575963719	53	127
276.59532879818596	277.2106575963719	58	127
276.59532879818596	277.2106575963719	56	127
277.24548752834465	277.60539682539684	51	127
277.24548752834465	277.91886621315194	58	127
277.24548752834465	277.91886621315194	56	127
277.24548752834465	277.91886621315194	53	127
277.60539682539684	277.79115646258504	50	127
277.79115646258504	277.9420634920635	48	127
277.9420634920635	278.6502947845805	58	127
277.9420634920635	278.6502947845805	56	127
277.9420634920635	278.6502947845805	53	127
277.9420634920635	278.6502947845805	50	127
278.6502947845805	279.32367346938776	58	127
279.32367346938776	279.9738321995465	62	127
279.9738321995465	280.658820861678	65	127
280.658820861678	281.4831292517007	68	127
281.4831292517007	282.31904761904764	62	127
281.4831292517007	282.31904761904764	72	127
281.4831292517007	282.31904761904764	68	127
282.31904761904764	285.32603174603173	63	127
282.31904761904764	285.32603174603173	70	127
282.31904761904764	285.32603174603173	67	127
283.22462585034015	284.16503401360546	46	127
283.22462585034015	284.16503401360546	55	127
283.22462585034015	284.16503401360546	51	127
283.22462585034015	284.16503401360546	39	127
284.16503401360546	285.32603174603173	39	127
284.16503401360546	285.32603174603173	55	127
284.16503401360546	285.32603174603173	51	127
284.16503401360546	285.32603174603173	46	127
285.32603174603173	286.52185941043086	46	127
285.32603174603173	286.52185941043086	39	127
285.32603174603173	286.52185941043086	55	127
285.32603174603173	286.52185941043086	51	127
285.9181179138322	286.52185941043086	67	127
286.52185941043086	287.17201814058956	68	127
286.52185941043086	287.17201814058956	72	127
286.52185941043086	287.17201814058956	62	127
287.17201814058956	290.0048299319728	70	127
287.17201814058956	290.0048299319728	63	127
287.17201814058956	290.0048299319728	67	127
287.90344671201814	289.70297052154194	46	127
287.90344671201814	289.70297052154194	55	127
287.90344671201814	289.70297052154194	51	127
287.90344671201814	289.70297052154194	39	127
289.70297052154194	290.0048299319728	51	127
289.70297052154194	290.0048299319728	46	127
289.70297052154194	290.0048299319728	39	127
289.70297052154194	290.0048299319728	55	127
290.0048299319728	291.23548752834466	46	127
290.0048299319728	291.23548752834466	39	127
290.0048299319728	291.23548752834466	55	127
290.0048299319728	291.23548752834466	51	127
290.6201587301587	291.23548752834466	67	127
290.6201587301587	291.23548752834466	70	127
291.23548752834466	291.82761904761907	75	127
291.23548752834466	291.82761904761907	66	127
291.23548752834466	291.82761904761907	69	127
291.82761904761907	293.69680272108843	74	127
291.82761904761907	293.69680272108843	67	127
291.82761904761907	293.69680272108843	70	127
292.442947845805	293.37174603174606	50	127
292.442947845805	293.37174603174606	55	127
292.442947845805	293.37174603174606	58	127
292.442947845805	293.37174603174606	43	127
293.37174603174606	293.69680272108843	50	127
293.37174603174606	293.69680272108843	55	127
293.37174603174606	293.69680272108843	58	127
293.37174603174606	293.69680272108843	43	127
293.69680272108843	295.5428117913832	50	127
293.69680272108843	295.5428117913832	55	127
293.69680272108843	295.5428117913832	58	127
293.69680272108843	295.5428117913832	43	127
294.86943310657597	295.5428117913832	70	127
294.86943310657597	295.5428117913832	67	127
295.5428117913832	296.3438775510204	72	127
295.5428117913832	296.3438775510204	66	127
295.5428117913832	296.3438775510204	75	127
296.3438775510204	298.60784580498864	67	127
296.3438775510204	298.60784580498864	74	127
296.3438775510204	298.60784580498864	70	127
296.9824489795918	298.3059863945578	58	127
296.9824489795918	298.3059863945578	55	127
296.9824489795918	298.3059863945578	50	127
296.9824489795918	298.3059863945578	43	127
298.3059863945578	298.60784580498864	55	127
298.3059863945578	298.60784580498864	43	127
298.3059863945578	298.60784580498864	50	127
298.3059863945578	298.60784580498864	58	127
298.60784580498864	299.26961451247166	43	127
298.60784580498864	299.26961451247166	55	127
298.60784580498864	299.26961451247166	50	127
298.60784580498864	299.26961451247166	58	127
299.26961451247166	300.18680272108844	67	127
299.26961451247166	300.18680272108844	70	127
299.26961451247166	300.18680272108844	74	127
300.18680272108844	300.94145124716556	75	127
300.18680272108844	300.94145124716556	79	127
300.18680272108844	300.94145124716556	69	127
300.94145124716556	302.13727891156464	70	127
300.94145124716556	302.13727891156464	77	127
300.94145124716556	302.13727891156464	74	127
301.53356009070296	302.7526077097506	53	127
301.53356009070296	302.7526077097506	46	127
302.13727891156464	302.7526077097506	65	127
302.13727891156464	302.7526077097506	74	127
302.13727891156464	302.7526077097506	70	127
302.7526077097506	304.006485260771	65	127
302.7526077097506	304.006485260771	74	127
302.7526077097506	304.006485260771	70	127
303.39115646258506	304.62181405895694	46	127
303.39115646258506	304.62181405895694	53	127
304.006485260771	304.62181405895694	65	127
304.006485260771	304.62181405895694	62	127
304.006485260771	304.62181405895694	70	127
304.62181405895694	306.0150113378685	65	127
304.62181405895694	306.0150113378685	62	127
304.62181405895694	306.0150113378685	70	127
305.376462585034	307.9654875283447	53	127
305.376462585034	307.9654875283447	46	127
306.0150113378685	307.9654875283447	62	127
306.0150113378685	307.9654875283447	65	127
306.0150113378685	307.9654875283447	58	127
307.9654875283447	309.4515646258503	62	127
307.9654875283447	309.4515646258503	65	127
307.9654875283447	310.06689342403627	57	127
308.80140589569163	310.06689342403627	41	127
309.4515646258503	310.06689342403627	63	127
309.4515646258503	310.06689342403627	60	127
310.06689342403627	310.7751020408163	58	127
310.06689342403627	311.11179138321995	62	127
310.7751020408163	311.5413605442177	55	127
311.11179138321995	311.5413605442177	60	127
311.5413605442177	311.95931972789117	62	127
311.5413605442177	312.307619047619	57	127
311.95931972789117	312.307619047619	63	127
312.307619047619	313.06226757369615	58	127
312.307619047619	313.3989569160998	62	127
313.06226757369615	313.73562358276644	55	127
313.3989569160998	313.73562358276644	60	127
313.73562358276644	314.246462585034	62	127
313.73562358276644	314.7457142857143	57	127
314.246462585034	314.7457142857143	63	127
314.7457142857143	316.3014512471655	53	127
314.7457142857143	316.3014512471655	62	127
314.7457142857143	315.45392290249436	58	127
315.45392290249436	316.3014512471655	62	127
316.3014512471655	316.95160997732427	60	127
316.3014512471655	316.95160997732427	55	127
316.3014512471655	316.95160997732427	51	127
316.95160997732427	317.63659863945577	50	127
316.95160997732427	317.63659863945577	58	127
319.40131519274377	320.63197278911565	65	127
319.40131519274377	320.63197278911565	70	127
319.40131519274377	320.63197278911565	74	127
320.03986394557825	321.4214512471655	53	127
320.63197278911565	321.4214512471655	72	127
320.63197278911565	321.4214512471655	63	127
320.63197278911565	321.4214512471655	67	127
321.4214512471655	324.11496598639457	65	127
321.4214512471655	324.11496598639457	70	127
321.4214512471655	324.11496598639457	58	127
321.4214512471655	324.11496598639457	62	127
324.7419047619048	325.9609523809524	65	127
324.7419047619048	325.9609523809524	70	127
324.7419047619048	325.9609523809524	74	127
324.7419047619048	324.8580045351474	82	127
325.0437641723356	325.15986394557825	86	127
325.34562358276645	325.4617233560091	89	127
325.6474829931973	325.6823129251701	86	127
325.9609523809524	326.57628117913833	69	127
325.9609523809524	326.57628117913833	63	127
325.9609523809524	326.07705215419503	93	127
325.9609523809524	326.57628117913833	72	127
326.2744217687075	326.57628117913833	89	127
326.57628117913833	326.692380952381	94	127
326.57628117913833	327.20321995464855	65	127
326.57628117913833	327.20321995464855	62	127
326.57628117913833	327.20321995464855	70	127
326.88975056689344	327.0058503401361	82	127
327.20321995464855	327.8185487528345	69	127
327.20321995464855	327.3193197278912	86	127
327.20321995464855	327.8185487528345	62	127
327.20321995464855	327.8185487528345	66	127
327.20321995464855	327.8185487528345	60	127
327.5050793650794	327.8185487528345	81	127
327.8185487528345	328.54995464852607	67	127
327.8185487528345	328.54995464852607	62	127
327.8185487528345	328.54995464852607	58	127
327.8185487528345	327.9578684807256	91	127
328.20167800453515	328.54995464852607	79	127
328.54995464852607	328.92149659863946	82	127
328.54995464852607	329.29301587301586	65	127
328.54995464852607	329.29301587301586	62	127
328.54995464852607	329.29301587301586	54	127
328.54995464852607	330.11732426303854	58	127
328.92149659863946	329.29301587301586	77	127
329.29301587301586	330.11732426303854	63	127
329.29301587301586	330.11732426303854	55	127
329.29301587301586	329.4091156462585	87	127
329.29301587301586	330.11732426303854	63	127
329.6877551020408	330.11732426303854	75	127
330.11732426303854	330.99968253968257	59	127
330.11732426303854	330.99968253968257	53	127
330.11732426303854	330.65138321995465	79	127
330.11732426303854	330.99968253968257	62	127
330.11732426303854	331.68467120181407	55	127
330.65138321995465	330.99968253968257	74	127
330.99968253968257	331.68467120181407	51	127
330.99968253968257	331.1738321995465	84	127
330.99968253968257	331.68467120181407	60	127
331.37120181405896	331.4873015873016	72	127
331.68467120181407	332.3580498866213	59	127
331.68467120181407	331.8007709750567	86	127
331.68467120181407	331.9865306122449	55	127
331.68467120181407	332.3580498866213	65	127
331.68467120181407	332.38126984126984	50	127
331.9981405895692	332.1722902494331	74	127
332.38126984126984	332.75278911564624	87	127
332.38126984126984	332.91532879818595	55	127
332.38126984126984	333.26360544217687	48	127
332.38126984126984	333.24040816326533	60	127
332.38126984126984	333.24040816326533	63	127
332.9269387755102	333.05462585034013	75	127
333.26360544217687	334.4710657596372	58	127
333.26360544217687	334.4710657596372	62	127
333.26360544217687	334.4710657596372	89	127
333.26360544217687	334.4710657596372	53	127
333.26360544217687	334.4710657596372	53	127
335.3185941043084	336.8278911564626	81	127
335.3185941043084	336.8278911564626	41	127
335.3185941043084	336.8278911564626	53	127
335.3185941043084	336.8278911564626	60	127
335.3185941043084	336.8278911564626	63	127
337.9308390022676	339.71877551020407	82	127
337.9308390022676	339.71877551020407	62	127
337.9308390022676	339.71877551020407	58	127
337.9308390022676	339.71877551020407	53	127
337.9308390022676	340.35732426303855	46	127
339.71877551020407	340.35732426303855	77	127
340.35732426303855	341.0655328798186	74	127
341.0655328798186	345.9068934240363	65	127
341.0655328798186	344.9084126984127	63	127
341.0655328798186	341.7273015873016	75	127
341.0655328798186	343.0160090702948	59	127
341.7273015873016	342.052358276644	53	127
341.7273015873016	342.7025396825397	68	127
342.0639909297052	342.3774603174603	47	127
342.3890702947846	342.6909297052154	51	127
342.7025396825397	343.0160090702948	68	127
342.7025396825397	343.0043990929705	44	127
343.0160090702948	344.9084126984127	60	127
343.0160090702948	344.16539682539684	68	127
344.16539682539684	344.4556462585034	47	127
344.16539682539684	344.9084126984127	70	127
344.4904761904762	344.8968253968254	41	127
344.9084126984127	345.9068934240363	63	127
344.9084126984127	345.19868480725626	45	127
344.9084126984127	345.9068934240363	71	127
345.2218820861678	345.88367346938776	39	127
345.9068934240363	346.5338321995465	70	127
345.9068934240363	346.51061224489797	46	127
345.9068934240363	346.5338321995465	62	127
346.5338321995465	347.3117006802721	65	127
347.3117006802721	348.0315192743764	62	127
348.0315192743764	350.9920634920635	59	127
348.0315192743764	351.97891156462583	53	127
348.0315192743764	350.9920634920635	63	127
348.0315192743764	348.8558276643991	63	127
348.8558276643991	349.2157369614512	89	127
348.8558276643991	349.8542857142857	56	127
349.2273469387755	349.52920634920633	83	127
349.5408163265306	349.84267573696144	87	127
349.8542857142857	350.15614512471655	56	127
349.8542857142857	350.15614512471655	80	127
350.15614512471655	350.9920634920635	56	127
350.9920634920635	351.95569160997735	63	127
350.9920634920635	351.97891156462583	58	127
350.9920634920635	351.42163265306124	58	127
350.9920634920635	351.42163265306124	82	127
351.4332426303855	351.9672789115646	77	127
351.97891156462583	352.5013605442177	57	127
351.97891156462583	352.91931972789115	63	127
351.97891156462583	352.5013605442177	81	127
351.97891156462583	352.9425396825397	59	127
351.97891156462583	352.9425396825397	53	127
352.5245804988662	352.9309297052154	77	127
352.9425396825397	353.54625850340136	58	127
352.9425396825397	353.54625850340136	58	127
352.9425396825397	353.54625850340136	62	127
352.9425396825397	353.54625850340136	58	127
352.9425396825397	353.54625850340136	82	127
355.58961451247166	356.18172335600906	69	127
355.58961451247166	357.6909977324263	65	127
355.58961451247166	357.6909977324263	75	127
356.18172335600906	356.90154195011337	70	127
356.18172335600906	356.2978231292517	84	127
356.4835827664399	356.59968253968253	77	127
356.90154195011337	357.6909977324263	72	127
356.90154195011337	357.017641723356	81	127
357.2150113378685	357.3311111111111	77	127
357.6909977324263	358.29473922902497	82	127
357.6909977324263	358.29473922902497	74	127
357.6909977324263	358.29473922902497	70	127
357.6909977324263	358.29473922902497	58	127
359.7924263038549	361.16238095238094	72	127
359.7924263038549	361.16238095238094	63	127
359.7924263038549	361.16238095238094	57	127
359.7924263038549	361.16238095238094	48	127
359.7924263038549	361.16238095238094	41	127
359.7924263038549	361.16238095238094	81	127
361.16238095238094	361.47585034013605	78	127
361.16238095238094	361.47585034013605	66	127
361.47585034013605	361.94027210884354	60	127
361.47585034013605	361.94027210884354	72	127
361.94027210884354	362.40467120181404	63	127
361.94027210884354	362.40467120181404	75	127
362.40467120181404	362.81102040816324	57	127
362.40467120181404	362.81102040816324	69	127
362.81102040816324	364.5873469387755	70	127
362.81102040816324	364.5873469387755	82	127
362.81102040816324	364.5873469387755	62	127
362.81102040816324	364.5873469387755	62	127
362.81102040816324	364.5873469387755	58	127
362.81102040816324	364.5873469387755	53	127
362.81102040816324	364.5873469387755	46	127
365.79478458049886	367.01383219954647	74	127
365.79478458049886	367.01383219954647	77	127
365.79478458049886	366.3868707482993	72	127
366.3868707482993	366.990589569161	46	127
366.3868707482993	367.01383219954647	70	127
366.3868707482993	368.15160997732426	53	127
367.01383219954647	368.2096598639456	74	127
367.01383219954647	368.2096598639456	70	127
367.01383219954647	368.2096598639456	69	127
368.2096598639456	368.8133786848073	67	127
368.2096598639456	369.41709750566895	74	127
368.2096598639456	369.41709750566895	70	127
368.8133786848073	369.3938775510204	46	127
368.8133786848073	369.41709750566895	66	127
368.8133786848073	370.566485260771	53	127
369.41709750566895	370.63614512471656	65	127
369.41709750566895	370.63614512471656	70	127
369.41709750566895	370.63614512471656	67	127
370.63614512471656	371.91324263038547	70	127
370.63614512471656	371.91324263038547	67	127
370.63614512471656	371.2979138321995	64	127
371.2979138321995	372.7027210884354	53	127
371.2979138321995	371.91324263038547	63	127
371.2979138321995	371.890022675737	46	127
371.91324263038547	372.80721088435376	65	127
371.91324263038547	372.80721088435376	62	127
372.80721088435376	373.77083900226756	64	127
372.80721088435376	373.77083900226756	61	127
372.80721088435376	374.4558049886621	65	127
373.77083900226756	374.4326077097506	46	127
373.77083900226756	374.4558049886621	60	127
373.77083900226756	375.36140589569163	53	127
373.77083900226756	374.4558049886621	63	127
374.4558049886621	375.40784580498865	58	127
374.4558049886621	375.40784580498865	62	127
375.40784580498865	377.30027210884356	61	127
375.40784580498865	378.5077097505669	57	127
375.40784580498865	378.5077097505669	41	127
375.40784580498865	376.17410430839004	53	127
376.17410430839004	377.30027210884356	52	127
377.30027210884356	378.5077097505669	51	127
377.30027210884356	378.5077097505669	60	127
378.5077097505669	379.27396825396823	53	127
378.5077097505669	379.74997732426306	58	127
378.5077097505669	379.27396825396823	50	127
378.5077097505669	381.34054421768707	46	127
378.5077097505669	379.27396825396823	58	127
379.27396825396823	381.34054421768707	55	127
379.27396825396823	381.34054421768707	51	127
379.74997732426306	380.56267573696147	57	127
380.56267573696147	380.88775510204084	58	127
380.88775510204084	381.34054421768707	60	127
381.34054421768707	382.02553287981857	53	127
381.34054421768707	382.02553287981857	50	127
381.34054421768707	382.3738321995465	58	127
381.34054421768707	384.3126984126984	46	127
382.02553287981857	384.3126984126984	51	127
382.02553287981857	384.3126984126984	54	127
382.3738321995465	383.0936507936508	57	127
383.0936507936508	383.4419501133787	58	127
383.4419501133787	384.3126984126984	60	127
384.3126984126984	385.74072562358276	46	127
384.3126984126984	385.74072562358276	53	127
384.3126984126984	395.4234467120181	58	127
384.3126984126984	385.74072562358276	50	127
386.9597732426304	388.352970521542	53	127
386.9597732426304	388.352970521542	46	127
386.9597732426304	388.352970521542	50	127
389.1656689342404	395.4234467120181	46	127
389.1656689342404	395.4234467120181	53	127
389.1656689342404	395.4234467120181	62	127
391.2554648526077	395.4234467120181	65	127
391.2554648526077	395.4234467120181	74	127
