# onset,offset,note,velocity
0.010839002267573696	0.06888888888888889	77	127
0.15015873015873016	0.19659863945578232	79	127
0.30108843537414964	1.7871655328798186	56	127
0.30108843537414964	0.3707482993197279	80	127
0.30108843537414964	1.0325170068027212	60	127
0.30108843537414964	1.0325170068027212	41	127
0.4520181405895692	0.4984580498866213	77	127
0.5681179138321996	0.6145578231292517	74	127
0.6841950113378685	0.7306575963718821	72	127
0.8351473922902495	1.5317460317460319	46	127
0.8351473922902495	1.5317460317460319	62	127
0.8351473922902495	0.8699773242630385	68	127
0.9512471655328798	0.997687074829932	67	127
1.0557142857142856	1.1021768707482993	65	127
1.1834467120181407	1.2298866213151927	72	127
1.322766439909297	1.4156462585034013	70	127
1.322766439909297	2.0541950113378684	63	127
1.322766439909297	2.3212244897959184	55	127
1.322766439909297	2.3212244897959184	39	127
1.5549659863945577	2.0774149659863945	67	127
2.0774149659863945	2.193514739229025	67	127
2.0774149659863945	2.193514739229025	58	127
2.193514739229025	2.3212244897959184	61	127
2.193514739229025	2.3212244897959184	70	127
2.3212244897959184	2.4024943310657596	60	127
2.3212244897959184	2.4024943310657596	68	127
2.3212244897959184	3.0062131519274375	53	127
2.3212244897959184	3.0062131519274375	44	127
2.5418140589569163	2.6346938775510202	58	127
2.5418140589569163	2.6346938775510202	67	127
2.797233560090703	3.2384126984126986	50	127
2.797233560090703	3.2616326530612243	56	127
2.797233560090703	3.2616326530612243	65	127
2.797233560090703	3.4706122448979593	46	127
3.2616326530612243	4.155600907029479	39	127
3.2616326530612243	3.482222222222222	51	127
3.2616326530612243	3.737641723356009	55	127
3.2616326530612243	3.737641723356009	63	127
3.4938321995464854	3.737641723356009	55	127
3.737641723356009	3.9350113378684806	55	127
3.737641723356009	4.1439909297052155	58	127
3.946621315192744	4.039501133786848	77	127
3.946621315192744	4.155600907029479	63	127
3.946621315192744	4.155600907029479	58	127
4.039501133786848	4.155600907029479	79	127
4.155600907029479	4.248458049886621	80	127
4.155600907029479	4.55031746031746	60	127
4.155600907029479	4.55031746031746	41	127
4.155600907029479	4.956689342403628	56	127
4.248458049886621	4.35297052154195	77	127
4.35297052154195	4.46907029478458	74	127
4.46907029478458	4.573560090702948	72	127
4.573560090702948	4.689659863945578	68	127
4.573560090702948	4.979909297052155	62	127
4.573560090702948	4.979909297052155	46	127
4.689659863945578	4.805759637188209	67	127
4.805759637188209	4.88702947845805	65	127
4.88702947845805	5.0147392290249435	72	127
5.0147392290249435	5.246916099773243	70	127
5.0147392290249435	5.479138321995465	39	127
5.0147392290249435	5.502358276643991	55	127
5.0147392290249435	5.7345578231292516	63	127
5.246916099773243	5.7345578231292516	67	127
5.502358276643991	5.978367346938776	51	127
5.502358276643991	5.978367346938776	36	127
5.7345578231292516	5.850634920634921	63	127
5.7345578231292516	5.850634920634921	72	127
5.862267573696145	5.978367346938776	72	127
5.862267573696145	5.978367346938776	75	127
5.978367346938776	6.0712471655328795	70	127
5.978367346938776	6.0712471655328795	74	127
5.978367346938776	6.210566893424036	50	127
5.978367346938776	6.825895691609977	38	127
6.210566893424036	6.257006802721088	69	127
6.210566893424036	6.257006802721088	72	127
6.210566893424036	6.442766439909297	62	127
6.3382766439909295	6.373106575963718	67	127
6.3382766439909295	6.373106575963718	70	127
6.442766439909297	6.628526077097506	50	127
6.442766439909297	6.8723356009070296	66	127
6.442766439909297	6.8723356009070296	69	127
6.628526077097506	6.8723356009070296	60	127
6.8723356009070296	7.104535147392291	58	127
6.8723356009070296	7.348344671201814	58	127
6.8723356009070296	7.348344671201814	62	127
6.8723356009070296	7.348344671201814	67	127
6.8723356009070296	7.348344671201814	43	127
7.104535147392291	7.150975056689342	58	127
7.232244897959184	7.267074829931973	57	127
7.348344671201814	7.40639455782313	55	127
7.534104308390023	7.580544217687075	77	127
7.661814058956916	7.696643990929705	79	127
7.766303854875283	7.812743764172335	80	127
7.766303854875283	8.451292517006802	60	127
7.766303854875283	8.451292517006802	41	127
7.766303854875283	9.05501133786848	56	127
7.882403628117914	7.928843537414966	77	127
7.998503401360544	8.044920634920635	74	127
8.126213151927438	8.161043083900227	72	127
8.242312925170069	8.28875283446712	68	127
8.242312925170069	8.846031746031747	62	127
8.242312925170069	8.846031746031747	46	127
8.358412698412698	8.404852607709751	67	127
8.462902494331066	8.509342403628118	65	127
8.579002267573696	8.602222222222222	72	127
8.625442176870749	9.484580498866213	55	127
8.625442176870749	9.484580498866213	39	127
8.625442176870749	8.718321995464853	70	127
8.625442176870749	9.322040816326531	63	127
8.857641723356009	9.333650793650794	67	127
9.333650793650794	9.43814058956916	67	127
9.333650793650794	9.449750566893425	58	127
9.449750566893425	9.484580498866213	61	127
9.449750566893425	9.484580498866213	70	127
9.484580498866213	9.577460317460318	60	127
9.484580498866213	9.577460317460318	68	127
9.484580498866213	10.146349206349207	53	127
9.484580498866213	10.146349206349207	44	127
9.716780045351474	9.82124716553288	58	127
9.716780045351474	9.82124716553288	67	127
9.948956916099773	10.390136054421768	50	127
9.948956916099773	10.413378684807256	56	127
9.948956916099773	10.413378684807256	65	127
9.948956916099773	10.622358276643991	46	127
10.413378684807256	10.633968253968254	51	127
10.413378684807256	10.866145124716553	55	127
10.413378684807256	10.866145124716553	63	127
10.413378684807256	11.330566893424036	39	127
10.633968253968254	10.866145124716553	55	127
10.866145124716553	11.07514739229025	55	127
10.866145124716553	11.318956916099774	58	127
11.07514739229025	11.214444444444444	77	127
11.07514739229025	11.330566893424036	63	127
11.07514739229025	11.330566893424036	58	127
11.214444444444444	11.330566893424036	79	127
11.330566893424036	11.446666666666667	80	127
11.330566893424036	11.771746031746032	60	127
11.330566893424036	11.771746031746032	41	127
11.330566893424036	12.154875283446712	56	127
11.446666666666667	11.562766439909296	77	127
11.562766439909296	11.678866213151927	74	127
11.678866213151927	11.794965986394558	72	127
11.794965986394558	11.887845804988663	68	127
11.794965986394558	12.166485260770974	62	127
11.794965986394558	12.166485260770974	46	127
11.887845804988663	12.015555555555556	67	127
12.015555555555556	12.085215419501134	65	127
12.085215419501134	12.178095238095239	72	127
12.178095238095239	12.410294784580499	70	127
12.178095238095239	12.60766439909297	39	127
12.178095238095239	12.630884353741497	55	127
12.178095238095239	12.863083900226757	63	127
12.410294784580499	12.863083900226757	67	127
12.630884353741497	13.095283446712019	51	127
12.630884353741497	13.095283446712019	36	127
12.863083900226757	12.967573696145125	63	127
12.863083900226757	12.967573696145125	72	127
12.979183673469388	13.095283446712019	72	127
12.979183673469388	13.095283446712019	75	127
13.095283446712019	13.176553287981859	70	127
13.095283446712019	13.176553287981859	74	127
13.095283446712019	13.315873015873017	50	127
13.095283446712019	13.931201814058957	38	127
13.315873015873017	13.350702947845805	69	127
13.315873015873017	13.350702947845805	72	127
13.315873015873017	13.513242630385488	62	127
13.408752834467121	13.455192743764172	67	127
13.408752834467121	13.455192743764172	70	127
13.513242630385488	13.733832199546486	50	127
13.513242630385488	13.966031746031746	66	127
13.513242630385488	13.966031746031746	69	127
13.733832199546486	13.966031746031746	60	127
13.966031746031746	14.198231292517006	58	127
13.966031746031746	14.407210884353741	58	127
13.966031746031746	14.407210884353741	62	127
13.966031746031746	14.407210884353741	67	127
13.966031746031746	14.407210884353741	43	127
14.198231292517006	14.233061224489797	58	127
14.302721088435375	14.337551020408164	57	127
14.407210884353741	14.500090702947846	55	127
14.651020408163266	14.685850340136055	67	127
14.651020408163266	14.685850340136055	70	127
14.74390022675737	14.77873015873016	68	127
14.74390022675737	14.77873015873016	72	127
14.77873015873016	14.894829931972788	73	127
14.77873015873016	15.022539682539682	70	127
14.77873015873016	15.022539682539682	36	127
14.894829931972788	15.022539682539682	70	127
15.022539682539682	15.068979591836735	67	127
15.022539682539682	15.370839002267573	70	127
15.068979591836735	15.12702947845805	65	127
15.12702947845805	15.24312925170068	64	127
15.12702947845805	15.370839002267573	48	127
15.24312925170068	15.370839002267573	65	127
15.370839002267573	15.405668934240364	58	127
15.370839002267573	15.486938775510204	67	127
15.370839002267573	15.603038548752835	64	127
15.486938775510204	15.533378684807257	60	127
15.486938775510204	15.603038548752835	68	127
15.603038548752835	15.707528344671202	61	127
15.603038548752835	15.835238095238095	67	127
15.603038548752835	15.835238095238095	70	127
15.603038548752835	15.835238095238095	41	127
15.707528344671202	15.835238095238095	60	127
15.835238095238095	15.939727891156462	56	127
15.835238095238095	16.276394557823128	65	127
15.835238095238095	16.276394557823128	68	127
15.939727891156462	16.055827664399093	55	127
16.055827664399093	16.171927437641724	53	127
16.171927437641724	16.276394557823128	55	127
16.276394557823128	16.357687074829933	67	127
16.276394557823128	16.357687074829933	56	127
16.276394557823128	16.357687074829933	70	127
16.276394557823128	16.462154195011337	53	127
16.357687074829933	16.462154195011337	68	127
16.357687074829933	16.462154195011337	60	127
16.357687074829933	16.462154195011337	72	127
16.462154195011337	16.555056689342404	73	127
16.462154195011337	16.659546485260773	70	127
16.462154195011337	16.659546485260773	52	127
16.462154195011337	16.659546485260773	36	127
16.555056689342404	16.659546485260773	70	127
16.659546485260773	16.7756462585034	67	127
16.659546485260773	17.123945578231293	70	127
16.7756462585034	16.89174603174603	65	127
16.89174603174603	17.007845804988662	64	127
16.89174603174603	17.123945578231293	48	127
17.007845804988662	17.123945578231293	65	127
17.123945578231293	17.228412698412697	58	127
17.123945578231293	17.228412698412697	67	127
17.123945578231293	17.34453514739229	64	127
17.228412698412697	17.34453514739229	60	127
17.228412698412697	17.34453514739229	68	127
17.34453514739229	17.57673469387755	70	127
17.34453514739229	17.57673469387755	41	127
17.34453514739229	17.46063492063492	61	127
17.34453514739229	17.57673469387755	67	127
17.46063492063492	17.57673469387755	60	127
17.57673469387755	17.64639455782313	56	127
17.57673469387755	17.983061224489795	65	127
17.57673469387755	17.983061224489795	68	127
17.64639455782313	17.76249433106576	55	127
17.76249433106576	17.87859410430839	53	127
17.87859410430839	17.983061224489795	55	127
17.983061224489795	18.087573696145125	53	127
17.983061224489795	18.087573696145125	67	127
17.983061224489795	18.087573696145125	60	127
17.983061224489795	18.087573696145125	70	127
18.087573696145125	18.203673469387756	71	127
18.087573696145125	18.319773242630387	68	127
18.087573696145125	18.319773242630387	50	127
18.087573696145125	18.319773242630387	46	127
18.203673469387756	18.319773242630387	68	127
18.319773242630387	18.42426303854875	65	127
18.319773242630387	18.784172335600907	68	127
18.42426303854875	18.56358276643991	63	127
18.56358276643991	18.691292517006804	62	127
18.56358276643991	18.784172335600907	58	127
18.691292517006804	18.784172335600907	63	127
18.784172335600907	18.853832199546485	56	127
18.784172335600907	18.853832199546485	65	127
18.784172335600907	18.969931972789116	62	127
18.853832199546485	18.969931972789116	58	127
18.853832199546485	18.969931972789116	67	127
18.969931972789116	19.086031746031747	59	127
18.969931972789116	19.19049886621315	65	127
18.969931972789116	19.19049886621315	68	127
18.969931972789116	19.19049886621315	51	127
19.086031746031747	19.19049886621315	58	127
19.19049886621315	19.283401360544218	55	127
19.19049886621315	19.654920634920636	63	127
19.19049886621315	19.654920634920636	67	127
19.283401360544218	19.41111111111111	53	127
19.41111111111111	19.538820861678005	51	127
19.538820861678005	19.654920634920636	53	127
19.654920634920636	19.771020408163267	65	127
19.654920634920636	19.771020408163267	55	127
19.654920634920636	19.771020408163267	68	127
19.654920634920636	19.887097505668933	51	127
19.771020408163267	19.887097505668933	67	127
19.771020408163267	19.887097505668933	58	127
19.771020408163267	19.887097505668933	70	127
19.887097505668933	20.014807256235827	71	127
19.887097505668933	20.13092970521542	68	127
19.887097505668933	20.13092970521542	50	127
19.887097505668933	20.13092970521542	46	127
20.014807256235827	20.13092970521542	68	127
20.13092970521542	20.24702947845805	65	127
20.13092970521542	20.537278911564627	68	127
20.24702947845805	20.374739229024943	63	127
20.374739229024943	20.490839002267574	62	127
20.490839002267574	20.537278911564627	63	127
20.537278911564627	20.63015873015873	56	127
20.537278911564627	20.63015873015873	65	127
20.537278911564627	20.74625850340136	62	127
20.537278911564627	20.74625850340136	46	127
20.63015873015873	20.74625850340136	58	127
20.63015873015873	20.74625850340136	67	127
20.74625850340136	20.873968253968254	59	127
20.74625850340136	20.990068027210885	65	127
20.74625850340136	20.990068027210885	68	127
20.74625850340136	20.990068027210885	51	127
20.873968253968254	20.990068027210885	58	127
20.990068027210885	21.106167800453516	55	127
20.990068027210885	21.454467120181405	63	127
20.990068027210885	21.454467120181405	67	127
21.106167800453516	21.222244897959182	53	127
21.222244897959182	21.338367346938774	51	127
21.338367346938774	21.454467120181405	53	127
21.454467120181405	21.570566893424036	65	127
21.454467120181405	21.570566893424036	55	127
21.454467120181405	21.570566893424036	68	127
21.454467120181405	21.69827664399093	51	127
21.570566893424036	21.69827664399093	67	127
21.570566893424036	21.69827664399093	58	127
21.570566893424036	21.69827664399093	70	127
21.69827664399093	21.825986394557823	68	127
21.69827664399093	21.825986394557823	50	127
21.69827664399093	21.825986394557823	71	127
21.69827664399093	21.942086167800454	46	127
21.825986394557823	21.942086167800454	67	127
21.825986394557823	21.942086167800454	51	127
21.825986394557823	21.942086167800454	70	127
21.942086167800454	22.058185941043085	65	127
21.942086167800454	22.058185941043085	53	127
21.942086167800454	22.058185941043085	68	127
22.058185941043085	22.17426303854875	56	127
22.058185941043085	22.17426303854875	65	127
22.17426303854875	22.301972789115645	59	127
22.17426303854875	22.301972789115645	62	127
22.301972789115645	22.418095238095237	56	127
22.301972789115645	22.418095238095237	65	127
22.418095238095237	22.510975056689343	65	127
22.418095238095237	22.510975056689343	53	127
22.418095238095237	22.510975056689343	68	127
22.418095238095237	22.615442176870747	46	127
22.510975056689343	22.615442176870747	67	127
22.510975056689343	22.615442176870747	51	127
22.510975056689343	22.615442176870747	70	127
22.615442176870747	22.74315192743764	68	127
22.615442176870747	22.74315192743764	50	127
22.615442176870747	22.74315192743764	71	127
22.615442176870747	22.824444444444445	46	127
22.74315192743764	22.824444444444445	67	127
22.74315192743764	22.824444444444445	51	127
22.74315192743764	22.824444444444445	70	127
22.824444444444445	22.940544217687076	65	127
22.824444444444445	22.940544217687076	53	127
22.824444444444445	22.940544217687076	68	127
22.940544217687076	23.04503401360544	56	127
22.940544217687076	23.04503401360544	65	127
23.04503401360544	23.172743764172335	59	127
23.04503401360544	23.172743764172335	62	127
23.172743764172335	23.288843537414966	56	127
23.172743764172335	23.288843537414966	65	127
23.288843537414966	23.404943310657597	65	127
23.288843537414966	23.404943310657597	53	127
23.288843537414966	23.404943310657597	68	127
23.288843537414966	23.521043083900228	46	127
23.404943310657597	23.521043083900228	67	127
23.404943310657597	23.521043083900228	51	127
23.404943310657597	23.521043083900228	70	127
23.521043083900228	23.63714285714286	68	127
23.521043083900228	23.63714285714286	50	127
23.521043083900228	23.63714285714286	71	127
23.521043083900228	23.741632653061224	46	127
23.63714285714286	23.741632653061224	67	127
23.63714285714286	23.741632653061224	51	127
23.63714285714286	23.741632653061224	70	127
23.741632653061224	23.83451247165533	65	127
23.741632653061224	23.83451247165533	53	127
23.741632653061224	23.83451247165533	68	127
23.83451247165533	23.950612244897957	62	127
23.83451247165533	23.950612244897957	56	127
23.83451247165533	23.950612244897957	65	127
23.950612244897957	24.07832199546485	68	127
23.950612244897957	24.07832199546485	50	127
23.950612244897957	24.07832199546485	71	127
23.950612244897957	24.159591836734695	46	127
24.07832199546485	24.159591836734695	67	127
24.07832199546485	24.159591836734695	51	127
24.07832199546485	24.159591836734695	70	127
24.159591836734695	24.275691609977326	65	127
24.159591836734695	24.275691609977326	53	127
24.159591836734695	24.275691609977326	68	127
24.275691609977326	24.391791383219953	62	127
24.275691609977326	24.391791383219953	56	127
24.275691609977326	24.391791383219953	65	127
24.391791383219953	24.519501133786846	68	127
24.391791383219953	24.519501133786846	50	127
24.391791383219953	24.519501133786846	71	127
24.391791383219953	24.635600907029477	46	127
24.519501133786846	24.635600907029477	67	127
24.519501133786846	24.635600907029477	51	127
24.519501133786846	24.635600907029477	70	127
24.635600907029477	24.75170068027211	65	127
24.635600907029477	24.75170068027211	53	127
24.635600907029477	24.75170068027211	68	127
24.75170068027211	24.86780045351474	62	127
24.75170068027211	24.86780045351474	56	127
24.75170068027211	24.86780045351474	65	127
24.86780045351474	25.007120181405895	68	127
24.86780045351474	25.007120181405895	50	127
24.86780045351474	25.007120181405895	71	127
24.86780045351474	25.123219954648526	46	127
25.007120181405895	25.123219954648526	67	127
25.007120181405895	25.123219954648526	51	127
25.007120181405895	25.123219954648526	70	127
25.123219954648526	25.239319727891157	65	127
25.123219954648526	25.239319727891157	53	127
25.123219954648526	25.239319727891157	68	127
25.239319727891157	25.355419501133788	62	127
25.239319727891157	25.355419501133788	56	127
25.239319727891157	25.355419501133788	65	127
25.355419501133788	25.81981859410431	68	127
25.355419501133788	25.81981859410431	50	127
25.355419501133788	25.81981859410431	71	127
25.355419501133788	25.81981859410431	46	127
25.81981859410431	27.36394557823129	70	127
25.81981859410431	27.480045351473922	62	127
25.81981859410431	27.480045351473922	56	127
25.81981859410431	27.480045351473922	53	127
27.36394557823129	27.480045351473922	72	127
27.480045351473922	27.596145124716553	70	127
27.596145124716553	27.700634920634922	69	127
27.700634920634922	27.81673469387755	70	127
27.81673469387755	27.93283446712018	72	127
27.93283446712018	28.03732426303855	74	127
28.03732426303855	28.165034013605442	75	127
28.165034013605442	28.281133786848073	77	127
28.281133786848073	28.397233560090704	75	127
28.397233560090704	28.50172335600907	74	127
28.50172335600907	28.6178231292517	72	127
28.6178231292517	28.69909297052154	74	127
28.69909297052154	28.80358276643991	75	127
28.80358276643991	28.91968253968254	65	127
28.80358276643991	28.91968253968254	77	127
28.91968253968254	29.047392290249434	67	127
28.91968253968254	29.047392290249434	79	127
29.047392290249434	29.140272108843536	41	127
29.047392290249434	29.163492063492065	68	127
29.047392290249434	29.511791383219954	72	127
29.047392290249434	29.511791383219954	80	127
29.163492063492065	29.279591836734692	65	127
29.279591836734692	29.360861678004536	53	127
29.279591836734692	29.38408163265306	62	127
29.38408163265306	29.511791383219954	60	127
29.511791383219954	29.60467120181406	46	127
29.511791383219954	29.627891156462585	56	127
29.511791383219954	29.743990929705216	74	127
29.511791383219954	29.98780045351474	82	127
29.627891156462585	29.743990929705216	55	127
29.743990929705216	29.83687074829932	50	127
29.743990929705216	29.860090702947847	53	127
29.743990929705216	29.98780045351474	75	127
29.860090702947847	29.98780045351474	60	127
29.98780045351474	30.080680272108843	39	127
29.98780045351474	30.22	75	127
29.98780045351474	30.22	58	127
29.98780045351474	30.440589569161	79	127
30.22	30.301269841269843	51	127
30.22	30.440589569161	70	127
30.22	30.661179138321994	55	127
30.440589569161	30.52185941043084	46	127
30.440589569161	30.614739229024945	87	127
30.440589569161	30.661179138321994	67	127
30.661179138321994	30.707619047619048	43	127
30.661179138321994	30.730839002267572	55	127
30.661179138321994	30.858548752834466	63	127
30.730839002267572	30.858548752834466	58	127
30.858548752834466	30.93981859410431	56	127
30.858548752834466	30.93981859410431	41	127
30.858548752834466	31.079138321995465	60	127
30.858548752834466	31.079138321995465	87	127
31.079138321995465	31.183628117913834	55	127
31.079138321995465	31.183628117913834	46	127
31.079138321995465	31.346167800453514	62	127
31.079138321995465	31.346167800453514	82	127
31.346167800453514	31.43904761904762	38	127
31.346167800453514	31.578367346938776	65	127
31.346167800453514	31.578367346938776	80	127
31.346167800453514	31.78734693877551	53	127
31.578367346938776	31.67124716553288	46	127
31.578367346938776	31.694467120181407	63	127
31.578367346938776	31.694467120181407	79	127
31.694467120181407	31.78734693877551	62	127
31.694467120181407	31.78734693877551	77	127
31.78734693877551	32.03113378684807	75	127
31.78734693877551	32.24013605442177	55	127
31.78734693877551	31.89183673469388	39	127
31.78734693877551	32.03113378684807	63	127
32.03113378684807	32.08920634920635	46	127
32.03113378684807	32.24013605442177	65	127
32.03113378684807	32.46072562358277	70	127
32.24013605442177	32.333015873015874	43	127
32.24013605442177	32.46072562358277	67	127
32.46072562358277	32.553605442176874	39	127
32.46072562358277	32.5768253968254	55	127
32.46072562358277	32.70453514739229	70	127
32.5768253968254	32.70453514739229	58	127
32.70453514739229	32.797392290249434	56	127
32.70453514739229	32.797392290249434	41	127
32.70453514739229	32.92510204081633	60	127
32.92510204081633	33.01800453514739	55	127
32.92510204081633	33.01800453514739	46	127
32.92510204081633	33.16891156462585	62	127
33.16891156462585	33.25020408163265	38	127
33.16891156462585	33.34308390022676	65	127
33.16891156462585	33.54045351473923	53	127
33.34308390022676	33.377913832199546	68	127
33.34308390022676	33.42433106575964	46	127
33.34308390022676	33.44757369614513	63	127
33.44757369614513	33.47079365079365	72	127
33.44757369614513	33.54045351473923	62	127
33.54045351473923	33.63333333333333	70	127
33.54045351473923	33.63333333333333	39	127
33.54045351473923	33.65655328798186	55	127
33.54045351473923	33.77265306122449	63	127
33.65655328798186	33.77265306122449	56	127
33.77265306122449	33.85392290249433	68	127
33.77265306122449	33.85392290249433	46	127
33.77265306122449	33.88875283446712	55	127
33.77265306122449	34.00485260770975	65	127
33.88875283446712	34.00485260770975	53	127
34.00485260770975	34.09773242630386	39	127
34.00485260770975	34.12095238095238	51	127
34.00485260770975	34.202222222222225	58	127
34.00485260770975	34.42281179138322	67	127
34.12095238095238	34.202222222222225	53	127
34.202222222222225	34.2718820861678	46	127
34.202222222222225	34.30668934240363	55	127
34.202222222222225	34.42281179138322	70	127
34.30668934240363	34.42281179138322	58	127
34.42281179138322	34.50408163265306	56	127
34.42281179138322	34.50408163265306	41	127
34.42281179138322	34.64340136054422	60	127
34.64340136054422	34.72467120181406	55	127
34.64340136054422	34.72467120181406	46	127
34.64340136054422	34.8175283446712	62	127
34.8175283446712	34.88721088435374	38	127
34.8175283446712	35.00331065759637	65	127
34.8175283446712	35.22390022675737	53	127
35.00331065759637	35.04975056689342	68	127
35.00331065759637	35.07294784580499	46	127
35.00331065759637	35.10780045351474	63	127
35.10780045351474	35.14263038548753	72	127
35.10780045351474	35.22390022675737	62	127
35.22390022675737	35.29356009070295	70	127
35.22390022675737	35.29356009070295	39	127
35.22390022675737	35.31678004535147	55	127
35.22390022675737	35.4328798185941	63	127
35.31678004535147	35.4328798185941	56	127
35.4328798185941	35.52575963718821	68	127
35.4328798185941	35.52575963718821	46	127
35.4328798185941	35.560589569160996	55	127
35.4328798185941	35.67668934240363	65	127
35.560589569160996	35.67668934240363	53	127
35.67668934240363	35.781179138321995	67	127
35.67668934240363	35.781179138321995	39	127
35.67668934240363	35.943718820861676	58	127
35.67668934240363	35.943718820861676	51	127
35.943718820861676	35.99015873015873	75	127
35.943718820861676	35.99015873015873	84	127
36.07142857142857	36.106258503401364	79	127
36.07142857142857	36.106258503401364	87	127
36.14108843537415	36.164308390022676	85	127
36.14108843537415	36.1875283446712	51	127
36.14108843537415	36.30362811791383	77	127
36.14108843537415	36.489387755102044	46	127
36.1875283446712	36.30362811791383	55	127
36.30362811791383	36.37328798185941	84	127
36.30362811791383	36.39650793650794	61	127
36.30362811791383	36.489387755102044	75	127
36.39650793650794	36.489387755102044	55	127
36.489387755102044	36.60546485260771	51	127
36.489387755102044	36.709977324263036	73	127
36.489387755102044	36.9421768707483	82	127
36.60546485260771	36.709977324263036	55	127
36.709977324263036	36.82607709750567	61	127
36.709977324263036	36.9421768707483	75	127
36.709977324263036	36.9421768707483	39	127
36.82607709750567	36.9421768707483	55	127
36.9421768707483	37.04666666666667	51	127
36.9421768707483	37.04666666666667	84	127
36.9421768707483	37.1627664399093	72	127
36.9421768707483	37.40657596371882	44	127
37.04666666666667	37.1627664399093	56	127
37.04666666666667	37.1627664399093	85	127
37.1627664399093	37.29047619047619	60	127
37.1627664399093	37.29047619047619	84	127
37.1627664399093	37.40657596371882	75	127
37.29047619047619	37.40657596371882	56	127
37.29047619047619	37.40657596371882	82	127
37.40657596371882	37.51106575963719	51	127
37.40657596371882	37.51106575963719	80	127
37.40657596371882	37.62716553287982	72	127
37.40657596371882	37.87095238095238	48	127
37.51106575963719	37.62716553287982	56	127
37.51106575963719	37.62716553287982	82	127
37.62716553287982	37.754875283446715	60	127
37.62716553287982	37.754875283446715	84	127
37.62716553287982	37.87095238095238	68	127
37.754875283446715	37.87095238095238	56	127
37.754875283446715	37.87095238095238	87	127
37.87095238095238	37.95224489795918	85	127
37.87095238095238	37.97546485260771	51	127
37.87095238095238	38.09156462585034	77	127
37.87095238095238	38.33537414965986	46	127
37.97546485260771	38.09156462585034	55	127
38.09156462585034	38.19605442176871	84	127
38.09156462585034	38.21927437641723	61	127
38.09156462585034	38.33537414965986	75	127
38.21927437641723	38.33537414965986	55	127
38.33537414965986	38.35859410430839	51	127
38.33537414965986	38.463083900226756	73	127
38.33537414965986	38.69528344671202	82	127
38.35859410430839	38.463083900226756	55	127
38.463083900226756	38.57918367346939	61	127
38.463083900226756	38.69528344671202	75	127
38.463083900226756	38.69528344671202	39	127
38.57918367346939	38.69528344671202	55	127
38.69528344671202	38.81138321995465	51	127
38.69528344671202	38.81138321995465	84	127
38.69528344671202	38.92748299319728	72	127
38.69528344671202	39.171292517006805	44	127
38.81138321995465	38.92748299319728	56	127
38.81138321995465	38.92748299319728	85	127
38.92748299319728	39.055192743764174	60	127
38.92748299319728	39.055192743764174	84	127
38.92748299319728	39.171292517006805	75	127
39.055192743764174	39.171292517006805	56	127
39.055192743764174	39.171292517006805	82	127
39.171292517006805	39.287392290249436	51	127
39.171292517006805	39.287392290249436	80	127
39.171292517006805	39.40349206349207	72	127
39.171292517006805	39.40349206349207	48	127
39.287392290249436	39.40349206349207	56	127
39.287392290249436	39.40349206349207	84	127
39.40349206349207	39.449931972789116	77	127
39.40349206349207	39.53120181405896	60	127
39.40349206349207	39.53120181405896	89	127
39.40349206349207	39.64727891156463	44	127
39.53120181405896	39.57764172335601	79	127
39.53120181405896	39.64727891156463	56	127
39.53120181405896	39.64727891156463	91	127
39.64727891156463	39.76337868480726	80	127
39.64727891156463	39.76337868480726	53	127
39.64727891156463	39.76337868480726	92	127
39.64727891156463	39.879501133786846	41	127
39.76337868480726	39.879501133786846	77	127
39.76337868480726	39.879501133786846	56	127
39.76337868480726	39.879501133786846	89	127
39.879501133786846	40.00721088435374	74	127
39.879501133786846	40.00721088435374	60	127
39.879501133786846	40.00721088435374	86	127
39.879501133786846	40.12331065759637	53	127
40.00721088435374	40.12331065759637	72	127
40.00721088435374	40.12331065759637	56	127
40.00721088435374	40.12331065759637	84	127
40.12331065759637	40.239410430839	68	127
40.12331065759637	40.239410430839	53	127
40.12331065759637	40.239410430839	80	127
40.12331065759637	40.367120181405895	46	127
40.239410430839	40.367120181405895	67	127
40.239410430839	40.367120181405895	56	127
40.239410430839	40.367120181405895	79	127
40.367120181405895	40.483219954648526	65	127
40.367120181405895	40.483219954648526	62	127
40.367120181405895	40.483219954648526	77	127
40.367120181405895	40.587709750566894	58	127
40.483219954648526	40.587709750566894	72	127
40.483219954648526	40.587709750566894	56	127
40.483219954648526	40.587709750566894	84	127
40.587709750566894	40.680589569161	70	127
40.587709750566894	40.680589569161	82	127
40.587709750566894	40.703809523809525	55	127
40.587709750566894	40.83151927437642	39	127
40.703809523809525	40.83151927437642	58	127
40.83151927437642	40.94761904761905	63	127
40.83151927437642	41.06371882086168	51	127
40.83151927437642	41.284285714285716	67	127
40.83151927437642	41.284285714285716	79	127
40.94761904761905	41.06371882086168	58	127
41.06371882086168	41.15659863945578	55	127
41.06371882086168	41.284285714285716	46	127
41.15659863945578	41.284285714285716	58	127
41.284285714285716	41.31913832199547	67	127
41.284285714285716	41.31913832199547	79	127
41.284285714285716	41.353968253968254	55	127
41.284285714285716	41.45845804988662	43	127
41.353968253968254	41.38879818594104	70	127
41.353968253968254	41.38879818594104	82	127
41.353968253968254	41.45845804988662	51	127
41.45845804988662	41.516507936507935	72	127
41.45845804988662	41.516507936507935	80	127
41.45845804988662	41.516507936507935	53	127
41.45845804988662	41.516507936507935	56	127
41.45845804988662	41.516507936507935	41	127
41.516507936507935	41.58616780045352	70	127
41.516507936507935	41.58616780045352	79	127
41.72548752834467	41.9692970521542	58	127
41.72548752834467	41.9692970521542	62	127
41.72548752834467	41.9692970521542	46	127
41.72548752834467	42.20149659863946	68	127
41.72548752834467	42.20149659863946	77	127
42.20149659863946	42.31759637188209	63	127
42.20149659863946	42.31759637188209	75	127
42.20149659863946	42.31759637188209	51	127
42.20149659863946	42.46852607709751	67	127
42.31759637188209	42.46852607709751	62	127
42.31759637188209	42.46852607709751	74	127
42.31759637188209	42.46852607709751	50	127
42.46852607709751	42.58462585034014	63	127
42.46852607709751	42.58462585034014	75	127
42.46852607709751	42.58462585034014	51	127
42.58462585034014	42.70072562358277	62	127
42.58462585034014	42.70072562358277	74	127
42.58462585034014	42.70072562358277	50	127
42.70072562358277	42.94451247165533	63	127
42.70072562358277	42.94451247165533	75	127
42.70072562358277	42.94451247165533	51	127
42.94451247165533	43.188321995464854	58	127
42.94451247165533	43.188321995464854	70	127
42.94451247165533	43.188321995464854	46	127
43.188321995464854	43.432154195011336	60	127
43.188321995464854	43.432154195011336	72	127
43.188321995464854	43.432154195011336	48	127
43.432154195011336	43.6643537414966	62	127
43.432154195011336	43.6643537414966	74	127
43.432154195011336	43.6643537414966	50	127
43.6643537414966	43.89655328798186	63	127
43.6643537414966	43.89655328798186	75	127
43.6643537414966	43.89655328798186	51	127
43.89655328798186	44.08229024943311	58	127
43.89655328798186	44.08229024943311	70	127
43.89655328798186	44.08229024943311	46	127
44.08229024943311	44.32612244897959	60	127
44.08229024943311	44.32612244897959	72	127
44.08229024943311	44.32612244897959	48	127
44.32612244897959	44.55832199546485	62	127
44.32612244897959	44.55832199546485	74	127
44.32612244897959	44.55832199546485	50	127
44.55832199546485	44.802131519274376	63	127
44.55832199546485	44.802131519274376	75	127
44.55832199546485	44.802131519274376	51	127
44.802131519274376	45.0459410430839	58	127
44.802131519274376	45.0459410430839	70	127
44.802131519274376	45.0459410430839	46	127
45.0459410430839	45.49873015873016	48	127
45.0459410430839	45.49873015873016	55	127
45.0459410430839	45.49873015873016	63	127
45.0459410430839	45.49873015873016	55	127
45.0459410430839	45.49873015873016	63	127
45.0459410430839	45.49873015873016	72	127
45.0459410430839	45.49873015873016	48	127
45.49873015873016	45.97473922902494	50	127
45.49873015873016	45.97473922902494	59	127
45.49873015873016	45.97473922902494	67	127
45.49873015873016	45.97473922902494	55	127
45.49873015873016	45.97473922902494	62	127
45.49873015873016	45.97473922902494	71	127
45.49873015873016	45.97473922902494	43	127
45.97473922902494	46.45074829931973	48	127
45.97473922902494	46.45074829931973	55	127
45.97473922902494	46.45074829931973	63	127
45.97473922902494	46.45074829931973	55	127
45.97473922902494	46.45074829931973	63	127
45.97473922902494	46.45074829931973	72	127
45.97473922902494	46.45074829931973	36	127
46.92675736961451	47.042857142857144	75	127
46.92675736961451	47.042857142857144	51	127
47.042857142857144	47.17056689342404	74	127
47.042857142857144	47.17056689342404	50	127
47.17056689342404	47.28666666666667	75	127
47.17056689342404	47.28666666666667	51	127
47.28666666666667	47.4027664399093	74	127
47.28666666666667	47.4027664399093	50	127
47.4027664399093	47.61174603174603	75	127
47.4027664399093	47.61174603174603	51	127
47.61174603174603	47.646575963718824	70	127
47.61174603174603	47.646575963718824	46	127
47.78589569160998	47.87877551020408	72	127
47.78589569160998	47.87877551020408	48	127
48.029705215419504	48.1225850340136	74	127
48.029705215419504	48.1225850340136	50	127
48.26190476190476	48.354784580498865	75	127
48.26190476190476	48.354784580498865	51	127
48.505714285714284	48.59859410430839	70	127
48.505714285714284	48.59859410430839	46	127
48.74952380952381	48.842403628117914	72	127
48.74952380952381	48.842403628117914	48	127
48.99333333333333	49.08621315192744	74	127
48.99333333333333	49.08621315192744	50	127
49.225532879818594	49.30680272108844	75	127
49.225532879818594	49.30680272108844	51	127
49.457732426303856	49.55061224489796	70	127
49.457732426303856	49.55061224489796	46	127
49.68993197278912	50.20077097505669	74	127
49.68993197278912	50.20077097505669	67	127
49.68993197278912	50.20077097505669	70	127
49.68993197278912	50.20077097505669	50	127
50.20077097505669	50.816099773242634	74	127
50.20077097505669	50.816099773242634	66	127
50.20077097505669	50.816099773242634	69	127
50.20077097505669	50.816099773242634	50	127
50.816099773242634	51.31532879818594	74	127
50.816099773242634	51.31532879818594	67	127
50.816099773242634	51.31532879818594	70	127
50.816099773242634	51.31532879818594	43	127
51.55913832199546	51.65201814058957	86	127
51.791337868480724	52.03514739229025	87	127
51.791337868480724	52.49954648526077	79	127
51.791337868480724	52.49954648526077	75	127
52.03514739229025	52.26734693877551	86	127
52.26734693877551	52.49954648526077	87	127
52.49954648526077	52.72013605442177	80	127
52.49954648526077	52.72013605442177	77	127
52.49954648526077	52.72013605442177	82	127
52.72013605442177	52.95233560090703	84	127
52.72013605442177	53.40512471655329	79	127
52.72013605442177	53.40512471655329	75	127
52.95233560090703	53.18453514739229	86	127
53.18453514739229	53.40512471655329	87	127
53.40512471655329	53.602494331065756	80	127
53.40512471655329	53.602494331065756	77	127
53.40512471655329	53.602494331065756	82	127
53.602494331065756	53.823083900226756	84	127
53.602494331065756	54.28748299319728	79	127
53.602494331065756	54.28748299319728	75	127
53.823083900226756	54.043673469387755	86	127
54.043673469387755	54.28748299319728	87	127
54.28748299319728	54.51968253968254	77	127
54.28748299319728	54.51968253968254	74	127
54.28748299319728	54.51968253968254	82	127
54.51968253968254	54.751882086167804	80	127
54.51968253968254	55.20467120181406	75	127
54.51968253968254	55.20467120181406	72	127
54.751882086167804	54.960861678004534	82	127
54.960861678004534	55.20467120181406	84	127
55.20467120181406	55.43687074829932	74	127
55.20467120181406	55.43687074829932	70	127
55.20467120181406	55.43687074829932	79	127
55.43687074829932	55.66907029478458	77	127
55.43687074829932	56.1334693877551	72	127
55.43687074829932	56.1334693877551	68	127
55.66907029478458	55.91287981859411	79	127
55.91287981859411	56.1334693877551	80	127
56.1334693877551	56.284399092970524	73	127
56.1334693877551	56.284399092970524	70	127
56.1334693877551	56.284399092970524	76	127
56.284399092970524	56.51659863945578	77	127
56.284399092970524	56.96938775510204	72	127
56.284399092970524	56.96938775510204	68	127
56.51659863945578	56.7604081632653	79	127
56.7604081632653	56.96938775510204	80	127
56.96938775510204	57.143537414965984	73	127
56.96938775510204	57.143537414965984	70	127
56.96938775510204	57.143537414965984	76	127
57.143537414965984	57.317687074829934	77	127
57.143537414965984	57.56149659863946	72	127
57.143537414965984	57.56149659863946	68	127
57.317687074829934	57.56149659863946	79	127
57.56149659863946	57.80530612244898	80	127
57.56149659863946	58.13038548752834	68	127
57.56149659863946	58.13038548752834	65	127
57.80530612244898	58.13038548752834	79	127
58.13038548752834	58.362585034013605	79	127
58.13038548752834	58.66444444444444	70	127
58.13038548752834	58.66444444444444	67	127
58.362585034013605	58.66444444444444	77	127
58.66444444444444	58.896643990929704	68	127
58.66444444444444	58.896643990929704	77	127
58.66444444444444	59.1172335600907	72	127
58.896643990929704	59.1172335600907	69	127
58.896643990929704	59.1172335600907	75	127
59.1172335600907	59.233333333333334	70	127
59.1172335600907	59.349433106575965	70	127
59.1172335600907	59.75578231292517	74	127
59.233333333333334	59.349433106575965	69	127
59.349433106575965	59.4307029478458	70	127
59.4307029478458	59.54680272108843	69	127
59.54680272108843	59.75578231292517	70	127
59.54680272108843	60.12730158730159	53	127
59.75578231292517	59.848662131519276	65	127
59.75578231292517	60.01120181405896	77	127
60.01120181405896	60.10408163265306	70	127
60.01120181405896	60.10408163265306	74	127
60.12730158730159	60.24340136054422	52	127
60.24340136054422	60.336281179138325	72	127
60.24340136054422	60.336281179138325	75	127
60.24340136054422	60.35950113378685	53	127
60.35950113378685	60.46399092970522	52	127
60.46399092970522	60.545260770975055	74	127
60.46399092970522	60.68458049886621	53	127
60.46399092970522	60.90517006802721	77	127
60.68458049886621	60.75424036281179	65	127
60.68458049886621	60.75424036281179	53	127
60.90517006802721	60.99804988662132	70	127
60.90517006802721	60.99804988662132	74	127
60.90517006802721	61.02126984126984	53	127
61.02126984126984	61.12575963718821	52	127
61.12575963718821	61.218639455782316	72	127
61.12575963718821	61.218639455782316	75	127
61.12575963718821	61.24185941043084	53	127
61.24185941043084	61.35795918367347	52	127
61.35795918367347	61.416009070294784	74	127
61.35795918367347	61.52049886621315	53	127
61.35795918367347	61.752698412698415	77	127
61.52049886621315	61.61337868480726	65	127
61.52049886621315	61.752698412698415	53	127
61.752698412698415	61.868798185941046	72	127
61.752698412698415	62.39124716553288	75	127
61.752698412698415	62.739546485260774	53	127
61.868798185941046	61.98489795918368	71	127
61.98489795918368	62.077777777777776	72	127
62.077777777777776	62.19387755102041	71	127
62.19387755102041	62.39124716553288	72	127
62.39124716553288	62.48412698412698	65	127
62.39124716553288	62.635056689342406	77	127
62.635056689342406	62.71632653061224	72	127
62.635056689342406	62.71632653061224	75	127
62.739546485260774	62.8556462585034	52	127
62.8556462585034	62.93691609977324	74	127
62.8556462585034	62.93691609977324	77	127
62.8556462585034	62.97174603174603	53	127
62.97174603174603	63.0762358276644	52	127
63.0762358276644	63.169115646258504	75	127
63.0762358276644	63.285215419501135	53	127
63.0762358276644	63.52902494331066	79	127
63.285215419501135	63.37809523809524	65	127
63.285215419501135	63.37809523809524	53	127
63.52902494331066	63.610294784580496	72	127
63.52902494331066	63.610294784580496	75	127
63.52902494331066	63.63351473922903	53	127
63.63351473922903	63.73800453514739	52	127
63.73800453514739	63.830884353741496	74	127
63.73800453514739	63.830884353741496	77	127
63.73800453514739	63.86571428571428	53	127
63.86571428571428	63.981814058956914	52	127
63.981814058956914	64.07469387755103	75	127
63.981814058956914	64.21401360544218	53	127
63.981814058956914	64.45782312925171	79	127
64.21401360544218	64.30687074829932	65	127
64.21401360544218	64.30687074829932	53	127
64.45782312925171	64.57392290249433	74	127
64.45782312925171	64.57392290249433	77	127
64.45782312925171	65.35179138321996	58	127
64.57392290249433	64.6435827664399	76	127
64.57392290249433	64.6435827664399	73	127
64.6435827664399	64.74807256235827	77	127
64.6435827664399	64.74807256235827	74	127
64.74807256235827	64.78290249433107	73	127
64.74807256235827	64.78290249433107	76	127
64.78290249433107	65.01510204081633	77	127
64.78290249433107	65.01510204081633	74	127
65.01510204081633	65.10798185941043	70	127
65.01510204081633	65.10798185941043	74	127
65.25891156462585	65.34018140589569	74	127
65.25891156462585	65.34018140589569	77	127
65.35179138321996	65.46789115646258	57	127
65.46789115646258	65.56074829931973	75	127
65.46789115646258	65.56074829931973	79	127
65.46789115646258	65.59560090702948	58	127
65.59560090702948	65.70009070294785	57	127
65.70009070294785	65.79297052154195	77	127
65.70009070294785	65.79297052154195	80	127
65.70009070294785	65.92068027210884	58	127
65.92068027210884	66.01356009070295	74	127
65.92068027210884	66.01356009070295	58	127
65.92068027210884	66.01356009070295	77	127
66.1528798185941	66.22251700680272	75	127
66.1528798185941	66.22251700680272	79	127
66.1528798185941	66.22251700680272	43	127
66.1528798185941	66.24575963718821	58	127
66.24575963718821	66.36185941043084	57	127
66.36185941043084	66.41990929705216	77	127
66.36185941043084	66.41990929705216	80	127
66.36185941043084	66.41990929705216	46	127
66.36185941043084	66.43151927437641	58	127
66.43151927437641	66.53600907029478	57	127
66.53600907029478	66.61727891156463	79	127
66.53600907029478	66.61727891156463	82	127
66.53600907029478	66.61727891156463	51	127
66.53600907029478	66.74498866213152	58	127
66.74498866213152	66.84947845804989	75	127
66.74498866213152	66.84947845804989	58	127
66.74498866213152	66.84947845804989	79	127
66.74498866213152	66.84947845804989	43	127
66.98879818594105	67.08167800453515	39	127
66.98879818594105	67.10489795918367	60	127
66.98879818594105	67.18616780045352	77	127
66.98879818594105	67.18616780045352	81	127
67.10489795918367	67.18616780045352	59	127
67.18616780045352	67.20938775510204	41	127
67.18616780045352	67.23260770975057	60	127
67.18616780045352	67.34868480725623	79	127
67.18616780045352	67.34868480725623	82	127
67.23260770975057	67.34868480725623	59	127
67.34868480725623	67.4415873015873	48	127
67.34868480725623	67.58090702947845	81	127
67.34868480725623	67.58090702947845	60	127
67.34868480725623	67.58090702947845	84	127
67.58090702947845	67.68539682539682	60	127
67.58090702947845	67.68539682539682	41	127
67.58090702947845	67.82471655328798	77	127
67.58090702947845	67.82471655328798	81	127
67.82471655328798	68.27750566893424	77	127
67.82471655328798	68.27750566893424	65	127
67.82471655328798	67.91759637188208	82	127
67.82471655328798	68.05691609977325	38	127
68.05691609977325	68.16140589569162	84	127
68.27750566893424	68.35877551020408	77	127
68.27750566893424	68.35877551020408	74	127
68.27750566893424	68.74190476190476	46	127
68.27750566893424	69.20630385487529	86	127
68.49807256235827	68.6025850340136	74	127
68.49807256235827	68.6025850340136	70	127
68.74190476190476	68.83478458049886	70	127
68.74190476190476	68.83478458049886	67	127
68.74190476190476	68.97410430839003	43	127
68.97410430839003	69.06698412698412	72	127
68.97410430839003	69.06698412698412	69	127
69.20630385487529	69.29918367346939	74	127
69.20630385487529	69.29918367346939	70	127
69.20630385487529	69.68231292517007	55	127
69.20630385487529	69.85646258503401	82	127
69.43850340136055	69.54299319727892	70	127
69.43850340136055	69.54299319727892	67	127
69.68231292517007	69.77517006802721	67	127
69.68231292517007	69.77517006802721	63	127
69.68231292517007	69.85646258503401	51	127
69.85646258503401	69.91451247165533	70	127
69.85646258503401	69.91451247165533	67	127
69.85646258503401	70.29764172335601	39	127
69.85646258503401	70.77362811791383	79	127
70.06544217687075	70.15829931972789	67	127
70.06544217687075	70.15829931972789	63	127
70.29764172335601	70.39049886621315	63	127
70.29764172335601	70.39049886621315	60	127
70.29764172335601	70.54145124716554	36	127
70.54145124716554	70.63433106575964	65	127
70.54145124716554	70.63433106575964	62	127
70.77362811791383	70.8665306122449	67	127
70.77362811791383	70.8665306122449	63	127
70.77362811791383	71.24965986394558	48	127
70.77362811791383	71.45863945578232	75	127
71.01746031746032	71.11034013605442	63	127
71.01746031746032	71.11034013605442	60	127
71.24965986394558	71.45863945578232	60	127
71.24965986394558	71.45863945578232	57	127
71.24965986394558	71.45863945578232	41	127
71.45863945578232	71.53988662131519	74	127
71.45863945578232	71.67922902494331	62	127
71.45863945578232	71.67922902494331	58	127
71.67922902494331	71.76049886621315	72	127
71.67922902494331	71.91142857142857	63	127
71.67922902494331	71.91142857142857	60	127
71.67922902494331	71.91142857142857	41	127
71.91142857142857	72.00430839002267	77	127
71.91142857142857	72.14362811791383	69	127
71.91142857142857	72.14362811791383	63	127
72.14362811791383	72.25972789115646	70	127
72.14362811791383	72.38743764172335	46	127
72.14362811791383	72.84022675736962	74	127
72.14362811791383	74.8371201814059	58	127
72.14362811791383	74.8371201814059	62	127
72.25972789115646	72.38743764172335	69	127
72.38743764172335	72.50353741496599	70	127
72.38743764172335	72.84022675736962	53	127
72.50353741496599	72.61963718820861	69	127
72.61963718820861	72.84022675736962	70	127
72.84022675736962	72.93310657596372	65	127
72.84022675736962	72.93310657596372	53	127
72.84022675736962	73.07240362811791	77	127
73.07240362811791	73.16530612244898	70	127
73.07240362811791	73.16530612244898	74	127
73.07240362811791	73.16530612244898	46	127
73.3162358276644	73.38589569160997	72	127
73.3162358276644	73.38589569160997	75	127
73.3162358276644	73.73419501133787	53	127
73.51360544217687	73.58324263038548	74	127
73.51360544217687	73.58324263038548	77	127
73.73419501133787	73.80385487528345	65	127
73.73419501133787	73.80385487528345	53	127
73.93156462585034	74.02444444444444	70	127
73.93156462585034	74.02444444444444	46	127
73.93156462585034	74.17537414965986	74	127
74.17537414965986	74.2566439909297	72	127
74.17537414965986	74.37274376417234	75	127
74.17537414965986	74.61655328798186	53	127
74.37274376417234	74.46562358276644	74	127
74.37274376417234	74.61655328798186	77	127
74.61655328798186	74.6978231292517	65	127
74.61655328798186	74.6978231292517	53	127
74.8371201814059	74.9184126984127	44	127
74.8371201814059	74.94163265306122	71	127
74.8371201814059	75.53374149659864	75	127
74.8371201814059	78.26206349206349	59	127
74.8371201814059	78.26206349206349	63	127
74.94163265306122	75.06934240362811	70	127
75.06934240362811	75.53374149659864	54	127
75.06934240362811	75.18544217687075	71	127
75.18544217687075	75.30154195011337	70	127
75.30154195011337	75.53374149659864	71	127
75.53374149659864	75.62662131519275	70	127
75.53374149659864	75.62662131519275	54	127
75.53374149659864	75.7659410430839	74	127
75.7659410430839	75.84721088435374	71	127
75.7659410430839	75.84721088435374	75	127
75.7659410430839	75.84721088435374	44	127
75.99814058956916	76.0909977324263	74	127
75.99814058956916	76.0909977324263	77	127
75.99814058956916	76.46253968253968	54	127
76.2187074829932	76.31160997732427	75	127
76.2187074829932	76.31160997732427	78	127
76.46253968253968	76.55541950113378	70	127
76.46253968253968	76.55541950113378	74	127
76.46253968253968	76.55541950113378	54	127
76.69473922902495	76.78761904761905	71	127
76.69473922902495	76.78761904761905	75	127
76.69473922902495	76.78761904761905	44	127
76.92693877551021	77.01981859410431	74	127
76.92693877551021	77.01981859410431	77	127
76.92693877551021	77.48421768707483	54	127
77.15913832199547	77.25201814058957	75	127
77.15913832199547	77.25201814058957	78	127
77.48421768707483	77.5887074829932	71	127
77.48421768707483	77.5887074829932	75	127
77.48421768707483	77.5887074829932	54	127
78.26206349206349	78.35496598639456	71	127
78.26206349206349	78.35496598639456	77	127
78.26206349206349	78.35496598639456	44	127
78.26206349206349	80.15448979591837	53	127
78.26206349206349	80.15448979591837	59	127
78.50589569160998	78.59877551020408	75	127
78.50589569160998	78.59877551020408	78	127
78.50589569160998	78.9702947845805	49	127
78.73809523809524	78.83097505668934	77	127
78.73809523809524	78.83097505668934	80	127
78.9702947845805	79.0631746031746	71	127
78.9702947845805	79.0631746031746	77	127
78.9702947845805	79.0631746031746	49	127
79.20249433106576	79.29537414965986	71	127
79.20249433106576	79.29537414965986	77	127
79.20249433106576	79.29537414965986	44	127
79.44630385487528	79.53916099773242	75	127
79.44630385487528	79.53916099773242	78	127
79.44630385487528	79.9222902494331	49	127
79.67850340136054	79.77136054421769	77	127
79.67850340136054	79.77136054421769	80	127
79.9222902494331	80.01519274376417	71	127
79.9222902494331	80.01519274376417	77	127
79.9222902494331	80.01519274376417	49	127
80.15448979591837	80.24739229024944	70	127
80.15448979591837	80.24739229024944	78	127
80.15448979591837	80.24739229024944	42	127
80.15448979591837	81.1065306122449	54	127
80.15448979591837	81.1065306122449	58	127
80.39832199546485	80.49120181405895	73	127
80.39832199546485	80.49120181405895	80	127
80.39832199546485	80.87433106575963	49	127
80.63052154195012	80.72340136054422	78	127
80.63052154195012	80.72340136054422	82	127
80.87433106575963	80.96721088435375	70	127
80.87433106575963	80.96721088435375	78	127
80.87433106575963	80.96721088435375	49	127
81.1065306122449	81.19941043083901	70	127
81.1065306122449	81.19941043083901	78	127
81.1065306122449	81.19941043083901	42	127
81.1065306122449	82.05854875283447	54	127
81.1065306122449	82.05854875283447	58	127
81.35034013605443	81.44321995464853	73	127
81.35034013605443	81.44321995464853	80	127
81.35034013605443	81.8263492063492	49	127
81.58253968253969	81.68700680272109	78	127
81.58253968253969	81.68700680272109	82	127
81.8263492063492	81.9192290249433	70	127
81.8263492063492	81.9192290249433	78	127
81.8263492063492	81.9192290249433	49	127
82.05854875283447	82.30235827664399	74	127
82.05854875283447	82.30235827664399	82	127
82.05854875283447	82.30235827664399	41	127
82.05854875283447	83.03378684807257	53	127
82.05854875283447	83.03378684807257	56	127
82.30235827664399	82.53455782312925	80	127
82.30235827664399	82.53455782312925	84	127
82.30235827664399	82.77836734693878	46	127
82.53455782312925	82.77836734693878	82	127
82.53455782312925	82.77836734693878	86	127
82.77836734693878	83.03378684807257	74	127
82.77836734693878	83.03378684807257	82	127
82.77836734693878	83.03378684807257	46	127
83.75360544217688	83.8697052154195	77	127
83.8697052154195	84.33410430839002	79	127
84.33410430839002	84.46181405895692	80	127
84.33410430839002	84.92621315192744	60	127
84.33410430839002	84.92621315192744	41	127
84.33410430839002	85.50671201814059	56	127
84.46181405895692	84.60111111111111	77	127
84.60111111111111	84.7172335600907	74	127
84.7172335600907	84.92621315192744	72	127
84.92621315192744	85.07714285714286	68	127
84.92621315192744	85.50671201814059	62	127
84.92621315192744	85.50671201814059	46	127
85.07714285714286	85.19324263038548	67	127
85.19324263038548	85.33256235827665	65	127
85.33256235827665	85.50671201814059	72	127
85.50671201814059	85.7853514739229	70	127
85.50671201814059	86.06399092970521	63	127
85.50671201814059	86.55160997732426	55	127
85.50671201814059	86.55160997732426	39	127
85.7853514739229	86.29619047619047	67	127
86.06399092970521	86.29619047619047	58	127
86.29619047619047	86.41229024943311	58	127
86.29619047619047	86.41229024943311	67	127
86.41229024943311	86.55160997732426	61	127
86.41229024943311	86.55160997732426	70	127
86.55160997732426	86.6444671201814	60	127
86.55160997732426	86.6444671201814	68	127
86.55160997732426	87.03922902494331	53	127
86.55160997732426	87.03922902494331	44	127
86.7954195011338	86.88829931972789	58	127
86.7954195011338	86.88829931972789	67	127
87.03922902494331	87.52684807256236	56	127
87.03922902494331	87.52684807256236	50	127
87.03922902494331	87.52684807256236	65	127
87.03922902494331	87.52684807256236	46	127
87.52684807256236	87.66614512471655	55	127
87.52684807256236	88.06090702947846	51	127
87.52684807256236	88.06090702947846	63	127
87.52684807256236	88.06090702947846	39	127
87.66614512471655	87.78226757369615	58	127
87.78226757369615	87.93319727891156	63	127
87.93319727891156	88.06090702947846	67	127
88.06090702947846	88.1770068027211	70	127
88.1770068027211	88.29310657596372	75	127
88.29310657596372	88.39759637188209	77	127
88.29310657596372	88.39759637188209	89	127
88.39759637188209	88.49047619047619	79	127
88.39759637188209	88.49047619047619	91	127
88.49047619047619	88.60657596371883	80	127
88.49047619047619	88.60657596371883	92	127
88.49047619047619	88.72267573696145	60	127
88.49047619047619	88.72267573696145	41	127
88.60657596371883	88.72267573696145	77	127
88.60657596371883	88.72267573696145	89	127
88.72267573696145	88.82716553287982	74	127
88.72267573696145	88.82716553287982	86	127
88.72267573696145	88.95487528344671	56	127
88.72267573696145	88.95487528344671	53	127
88.82716553287982	88.95487528344671	72	127
88.82716553287982	88.95487528344671	84	127
88.95487528344671	89.17544217687075	43	127
88.95487528344671	89.05936507936508	71	127
88.95487528344671	89.05936507936508	83	127
88.95487528344671	89.17544217687075	65	127
89.05936507936508	89.17544217687075	80	127
89.05936507936508	89.17544217687075	68	127
89.17544217687075	89.29156462585034	67	127
89.17544217687075	89.29156462585034	79	127
89.17544217687075	89.41927437641723	59	127
89.17544217687075	89.41927437641723	55	127
89.29156462585034	89.41927437641723	89	127
89.29156462585034	89.41927437641723	77	127
89.41927437641723	89.62825396825397	67	127
89.41927437641723	89.62825396825397	87	127
89.41927437641723	89.62825396825397	48	127
89.41927437641723	89.83723356009071	75	127
89.62825396825397	89.83723356009071	60	127
89.62825396825397	90.069410430839	48	127
89.62825396825397	90.069410430839	60	127
89.62825396825397	90.069410430839	84	127
89.83723356009071	90.02299319727891	40	127
89.83723356009071	90.069410430839	72	127
90.069410430839	90.16231292517007	84	127
90.069410430839	90.1855328798186	79	127
90.069410430839	90.4641723356009	48	127
90.069410430839	90.4641723356009	60	127
90.1855328798186	90.30160997732426	82	127
90.30160997732426	90.4641723356009	84	127
90.30160997732426	90.4641723356009	80	127
90.30160997732426	90.4641723356009	41	127
90.4641723356009	90.58024943310657	83	127
90.4641723356009	90.92857142857143	48	127
90.4641723356009	90.92857142857143	60	127
90.4641723356009	90.92857142857143	77	127
90.58024943310657	90.69637188208617	85	127
90.69637188208617	90.88213151927438	40	127
90.69637188208617	91.40458049886621	84	127
90.92857142857143	91.04467120181405	79	127
90.92857142857143	91.40458049886621	48	127
90.92857142857143	91.40458049886621	60	127
91.04467120181405	91.17238095238095	82	127
91.17238095238095	91.40458049886621	80	127
91.17238095238095	91.40458049886621	41	127
91.40458049886621	91.52068027210885	83	127
91.40458049886621	91.880589569161	48	127
91.40458049886621	91.880589569161	60	127
91.40458049886621	91.880589569161	77	127
91.52068027210885	91.64839002267574	85	127
91.64839002267574	92.12439909297052	40	127
91.64839002267574	92.35659863945578	84	127
91.880589569161	91.99668934240363	79	127
91.880589569161	92.35659863945578	48	127
91.880589569161	92.35659863945578	60	127
91.99668934240363	92.12439909297052	82	127
92.12439909297052	92.35659863945578	80	127
92.12439909297052	92.35659863945578	41	127
92.35659863945578	92.47267573696145	83	127
92.47267573696145	92.58879818594104	85	127
92.58879818594104	92.80938775510204	84	127
92.80938775510204	92.93709750566893	79	127
92.93709750566893	93.0415873015873	82	127
93.0415873015873	93.27378684807256	80	127
93.27378684807256	93.34342403628118	76	127
93.34342403628118	93.43632653061225	79	127
93.43632653061225	94.13290249433106	77	127
93.43632653061225	94.13290249433106	65	127
93.65691609977324	93.78462585034013	71	127
93.65691609977324	93.78462585034013	59	127
93.78462585034013	93.90072562358277	73	127
93.78462585034013	93.90072562358277	61	127
93.90072562358277	94.13290249433106	72	127
93.90072562358277	94.13290249433106	60	127
94.13290249433106	94.26061224489796	67	127
94.13290249433106	94.26061224489796	55	127
94.26061224489796	94.38832199546485	70	127
94.26061224489796	94.38832199546485	58	127
94.38832199546485	94.62052154195011	68	127
94.38832199546485	94.62052154195011	56	127
94.62052154195011	94.748231292517	64	127
94.62052154195011	94.748231292517	52	127
94.62052154195011	94.8643537414966	60	127
94.62052154195011	95.09655328798186	72	127
94.748231292517	94.8643537414966	67	127
94.748231292517	94.8643537414966	55	127
94.8643537414966	95.09655328798186	60	127
94.8643537414966	95.09655328798186	65	127
94.8643537414966	95.09655328798186	53	127
95.09655328798186	95.23587301587301	62	127
95.09655328798186	95.23587301587301	47	127
95.09655328798186	95.58417233560091	67	127
95.09655328798186	95.58417233560091	55	127
95.23587301587301	95.35197278911565	65	127
95.23587301587301	95.35197278911565	50	127
95.35197278911565	95.58417233560091	63	127
95.35197278911565	95.58417233560091	48	127
95.58417233560091	95.68866213151928	62	127
95.58417233560091	95.68866213151928	47	127
95.58417233560091	96.06018140589569	55	127
95.68866213151928	95.8047619047619	65	127
95.68866213151928	95.8047619047619	50	127
95.8047619047619	96.06018140589569	67	127
95.8047619047619	96.06018140589569	63	127
95.8047619047619	96.06018140589569	48	127
96.06018140589569	96.18789115646258	62	127
96.06018140589569	96.18789115646258	47	127
96.06018140589569	96.60585034013606	67	127
96.06018140589569	96.60585034013606	55	127
96.18789115646258	96.30399092970522	65	127
96.18789115646258	96.30399092970522	50	127
96.30399092970522	96.60585034013606	63	127
96.30399092970522	96.60585034013606	48	127
96.60585034013606	96.73356009070295	62	127
96.60585034013606	96.73356009070295	47	127
96.60585034013606	96.89609977324263	67	127
96.60585034013606	97.29083900226757	55	127
96.73356009070295	96.89609977324263	65	127
96.73356009070295	96.89609977324263	50	127
96.89609977324263	97.29083900226757	67	127
96.89609977324263	97.29083900226757	63	127
96.89609977324263	97.29083900226757	48	127
97.29083900226757	97.54625850340136	69	127
97.54625850340136	97.8481179138322	70	127
97.54625850340136	97.8481179138322	55	127
97.54625850340136	97.8481179138322	62	127
97.54625850340136	97.8481179138322	43	127
97.8481179138322	97.97582766439909	69	127
97.97582766439909	98.11514739229025	67	127
98.11514739229025	98.63759637188208	69	127
98.11514739229025	98.63759637188208	57	127
98.11514739229025	98.63759637188208	41	127
98.11514739229025	99.65927437641723	62	127
98.63759637188208	99.41546485260771	74	127
99.41546485260771	99.9843537414966	67	127
99.41546485260771	99.9843537414966	39	127
99.65927437641723	99.9843537414966	63	127
99.9843537414966	100.22816326530612	60	127
99.9843537414966	100.48358276643991	69	127
99.9843537414966	100.48358276643991	41	127
100.22816326530612	100.71578231292517	57	127
100.48358276643991	101.09891156462585	65	127
100.48358276643991	101.09891156462585	38	127
100.71578231292517	100.95959183673469	58	127
100.95959183673469	101.09891156462585	60	127
101.09891156462585	101.60975056689342	62	127
101.09891156462585	101.60975056689342	58	127
101.09891156462585	101.60975056689342	46	127
101.09891156462585	102.24829931972789	58	127
101.60975056689342	101.85356009070294	60	127
101.60975056689342	102.24829931972789	51	127
101.85356009070294	102.24829931972789	62	127
102.24829931972789	102.58498866213152	63	127
102.24829931972789	103.11904761904762	57	127
102.24829931972789	103.35124716553288	48	127
102.58498866213152	102.75913832199547	62	127
102.75913832199547	102.87523809523809	60	127
102.87523809523809	103.35124716553288	62	127
103.11904761904762	103.23514739229024	55	127
103.23514739229024	103.35124716553288	54	127
103.35124716553288	103.86208616780046	67	127
103.35124716553288	103.86208616780046	55	127
103.35124716553288	104.14072562358277	46	127
103.86208616780046	104.41936507936508	60	127
103.86208616780046	104.41936507936508	55	127
104.14072562358277	104.30326530612246	45	127
104.30326530612246	104.41936507936508	43	127
104.41936507936508	104.95342403628118	62	127
104.41936507936508	104.95342403628118	54	127
104.41936507936508	104.95342403628118	45	127
104.95342403628118	105.58036281179139	58	127
104.95342403628118	105.58036281179139	55	127
104.95342403628118	105.58036281179139	43	127
105.58036281179139	106.09120181405896	55	127
105.58036281179139	106.09120181405896	51	127
105.58036281179139	106.67170068027211	48	127
106.09120181405896	106.19569160997733	79	127
106.09120181405896	106.67170068027211	63	127
106.09120181405896	106.67170068027211	55	127
106.36984126984127	106.49755102040817	81	127
106.67170068027211	106.93873015873015	82	127
106.67170068027211	107.17092970521541	62	127
106.67170068027211	107.17092970521541	58	127
106.67170068027211	107.64693877551021	55	127
106.93873015873015	107.05482993197279	81	127
107.05482993197279	107.17092970521541	79	127
107.17092970521541	107.64693877551021	75	127
107.17092970521541	107.64693877551021	72	127
107.17092970521541	107.64693877551021	81	127
107.64693877551021	108.13455782312926	69	127
107.64693877551021	108.13455782312926	86	127
107.64693877551021	108.13455782312926	53	127
107.64693877551021	108.64539682539683	74	127
108.13455782312926	108.64539682539683	79	127
108.13455782312926	108.64539682539683	51	127
108.13455782312926	109.17945578231293	67	127
108.64539682539683	109.17945578231293	72	127
108.64539682539683	109.17945578231293	81	127
108.64539682539683	109.17945578231293	63	127
109.17945578231293	109.67868480725623	69	127
109.17945578231293	109.67868480725623	77	127
109.17945578231293	109.67868480725623	62	127
109.17945578231293	110.23596371882086	65	127
109.67868480725623	110.23596371882086	74	127
109.67868480725623	110.23596371882086	58	127
109.67868480725623	112.73210884353742	70	127
110.23596371882086	110.32884353741497	72	127
110.23596371882086	110.73519274376417	63	127
110.23596371882086	112.73210884353742	67	127
110.49138321995464	110.58426303854876	74	127
110.73519274376417	111.01383219954648	75	127
110.73519274376417	111.24603174603175	60	127
111.01383219954648	111.12993197278911	74	127
111.12993197278911	111.24603174603175	72	127
111.24603174603175	111.74526077097505	74	127
111.24603174603175	111.74526077097505	58	127
111.74526077097505	112.2328798185941	79	127
111.74526077097505	112.2328798185941	55	127
112.2328798185941	112.73210884353742	72	127
112.2328798185941	112.73210884353742	51	127
112.73210884353742	113.2081179138322	69	127
112.73210884353742	113.2081179138322	65	127
112.73210884353742	113.2081179138322	74	127
112.73210884353742	113.2081179138322	53	127
113.2081179138322	113.7421768707483	65	127
113.2081179138322	113.7421768707483	62	127
113.2081179138322	113.7421768707483	70	127
113.2081179138322	114.2762358276644	46	127
113.7421768707483	114.2762358276644	62	127
113.7421768707483	114.2762358276644	58	127
113.7421768707483	114.2762358276644	65	127
114.2762358276644	114.60131519274377	63	127
114.2762358276644	114.60131519274377	57	127
114.2762358276644	114.82190476190476	72	127
114.2762358276644	115.30952380952381	41	127
114.60131519274377	114.82190476190476	70	127
114.60131519274377	114.82190476190476	67	127
114.82190476190476	115.05410430839002	69	127
114.82190476190476	115.05410430839002	65	127
114.82190476190476	115.30952380952381	74	127
115.05410430839002	115.30952380952381	67	127
115.05410430839002	115.30952380952381	63	127
115.30952380952381	115.55333333333333	65	127
115.30952380952381	115.55333333333333	62	127
115.30952380952381	115.84358276643991	70	127
115.30952380952381	116.38925170068028	46	127
115.55333333333333	115.84358276643991	63	127
115.55333333333333	115.84358276643991	60	127
115.84358276643991	116.14544217687074	62	127
115.84358276643991	116.14544217687074	58	127
115.84358276643991	116.38925170068028	65	127
116.14544217687074	116.38925170068028	65	127
116.14544217687074	116.38925170068028	62	127
116.38925170068028	116.6330612244898	63	127
116.38925170068028	116.6330612244898	60	127
116.38925170068028	116.86526077097506	72	127
116.38925170068028	117.34126984126983	41	127
116.6330612244898	116.86526077097506	70	127
116.6330612244898	116.86526077097506	67	127
116.86526077097506	117.10907029478459	69	127
116.86526077097506	117.10907029478459	65	127
116.86526077097506	117.34126984126983	74	127
117.10907029478459	117.34126984126983	67	127
117.10907029478459	117.34126984126983	63	127
117.34126984126983	117.59668934240362	65	127
117.34126984126983	117.59668934240362	62	127
117.34126984126983	117.82888888888888	70	127
117.34126984126983	118.35133786848073	46	127
117.59668934240362	117.82888888888888	63	127
117.59668934240362	117.82888888888888	60	127
117.82888888888888	118.1075283446712	62	127
117.82888888888888	118.1075283446712	58	127
117.82888888888888	118.35133786848073	65	127
118.1075283446712	118.35133786848073	65	127
118.1075283446712	118.35133786848073	62	127
118.35133786848073	118.58353741496599	70	127
118.35133786848073	118.58353741496599	54	127
118.35133786848073	118.8273469387755	75	127
118.35133786848073	118.8273469387755	42	127
118.58353741496599	118.8273469387755	66	127
118.58353741496599	118.8273469387755	58	127
118.8273469387755	119.05954648526077	72	127
118.8273469387755	119.05954648526077	56	127
118.8273469387755	119.31496598639455	77	127
118.8273469387755	119.31496598639455	44	127
119.05954648526077	119.31496598639455	68	127
119.05954648526077	119.31496598639455	60	127
119.31496598639455	119.54716553287982	53	127
119.31496598639455	119.75614512471655	73	127
119.31496598639455	119.75614512471655	37	127
119.31496598639455	120.23215419501133	65	127
119.54716553287982	119.75614512471655	56	127
119.75614512471655	119.98834467120182	49	127
119.75614512471655	120.23215419501133	68	127
119.98834467120182	120.23215419501133	53	127
120.23215419501133	120.4643537414966	70	127
120.23215419501133	120.4643537414966	54	127
120.23215419501133	120.71977324263038	75	127
120.23215419501133	120.71977324263038	42	127
120.4643537414966	120.71977324263038	66	127
120.4643537414966	120.71977324263038	58	127
120.71977324263038	120.95197278911564	72	127
120.71977324263038	120.95197278911564	56	127
120.71977324263038	121.1841723356009	77	127
120.71977324263038	121.1841723356009	44	127
120.95197278911564	121.1841723356009	68	127
120.95197278911564	121.1841723356009	60	127
121.1841723356009	121.41637188208617	53	127
121.1841723356009	121.66018140589568	73	127
121.1841723356009	121.66018140589568	37	127
121.1841723356009	122.11297052154195	65	127
121.41637188208617	121.66018140589568	56	127
121.66018140589568	121.89238095238095	61	127
121.66018140589568	122.11297052154195	68	127
121.89238095238095	122.11297052154195	65	127
122.11297052154195	122.34517006802722	60	127
122.11297052154195	122.58897959183673	77	127
122.11297052154195	125.96748299319728	65	127
122.11297052154195	125.96748299319728	45	127
122.11297052154195	125.96748299319728	53	127
122.34517006802722	122.58897959183673	62	127
122.58897959183673	122.80956916099774	63	127
122.58897959183673	123.05337868480726	72	127
122.80956916099774	122.92566893424036	62	127
122.92566893424036	123.05337868480726	60	127
123.05337868480726	123.29718820861677	60	127
123.05337868480726	123.5409977324263	77	127
123.29718820861677	123.5409977324263	62	127
123.5409977324263	123.77319727891157	63	127
123.5409977324263	124.01700680272108	72	127
123.77319727891157	123.88929705215419	62	127
123.88929705215419	124.01700680272108	60	127
124.01700680272108	124.26081632653062	60	127
124.01700680272108	124.50462585034013	77	127
124.26081632653062	124.50462585034013	62	127
124.50462585034013	124.7368253968254	63	127
124.50462585034013	125.00385487528345	72	127
124.7368253968254	124.85292517006803	62	127
124.85292517006803	125.00385487528345	60	127
125.00385487528345	125.23605442176871	60	127
125.00385487528345	125.47986394557823	77	127
125.23605442176871	125.47986394557823	62	127
125.47986394557823	125.72367346938775	63	127
125.47986394557823	125.96748299319728	72	127
125.72367346938775	125.83977324263039	62	127
125.83977324263039	125.96748299319728	60	127
125.96748299319728	126.19968253968254	69	127
125.96748299319728	126.44349206349206	78	127
125.96748299319728	129.75233560090703	50	127
125.96748299319728	129.75233560090703	60	127
126.19968253968254	126.44349206349206	70	127
126.44349206349206	126.68730158730159	72	127
126.44349206349206	126.93111111111111	74	127
126.68730158730159	126.81501133786848	70	127
126.81501133786848	126.93111111111111	69	127
126.93111111111111	127.15170068027211	69	127
126.93111111111111	127.39551020408163	78	127
127.15170068027211	127.39551020408163	70	127
127.39551020408163	127.6277097505669	72	127
127.39551020408163	127.87151927437641	74	127
127.6277097505669	127.75541950113379	70	127
127.75541950113379	127.87151927437641	69	127
127.87151927437641	128.10371882086167	69	127
127.87151927437641	128.35913832199546	78	127
128.10371882086167	128.35913832199546	70	127
128.35913832199546	128.59133786848074	72	127
128.35913832199546	128.83514739229025	74	127
128.59133786848074	128.71904761904761	70	127
128.71904761904761	128.83514739229025	69	127
128.83514739229025	129.0673469387755	69	127
128.83514739229025	129.31115646258505	78	127
129.0673469387755	129.31115646258505	70	127
129.31115646258505	129.5433560090703	72	127
129.31115646258505	129.75233560090703	74	127
129.5433560090703	129.64784580498866	70	127
129.64784580498866	129.75233560090703	69	127
129.75233560090703	129.83360544217686	79	127
129.75233560090703	129.8568253968254	59	127
129.75233560090703	129.93809523809523	67	127
129.75233560090703	130.6114739229025	55	127
129.8568253968254	129.93809523809523	62	127
129.93809523809523	130.0425850340136	81	127
129.93809523809523	130.06580498866214	59	127
130.06580498866214	130.18190476190478	62	127
130.18190476190478	130.27478458049887	59	127
130.18190476190478	130.37927437641724	83	127
130.27478458049887	130.37927437641724	62	127
130.37927437641724	130.4953514739229	59	127
130.37927437641724	130.4953514739229	81	127
130.4953514739229	130.6114739229025	62	127
130.4953514739229	130.6114739229025	79	127
130.6114739229025	130.71596371882086	56	127
130.6114739229025	131.07587301587301	81	127
130.6114739229025	131.07587301587301	54	127
130.71596371882086	130.8320634920635	62	127
130.8320634920635	130.95977324263038	56	127
130.95977324263038	131.07587301587301	62	127
131.07587301587301	131.18036281179138	59	127
131.07587301587301	131.48222222222222	86	127
131.07587301587301	131.48222222222222	53	127
131.18036281179138	131.2384126984127	62	127
131.2384126984127	131.36612244897958	59	127
131.36612244897958	131.48222222222222	62	127
131.48222222222222	131.5867120181406	55	127
131.48222222222222	131.91179138321996	79	127
131.48222222222222	131.91179138321996	52	127
131.5867120181406	131.66795918367347	59	127
131.66795918367347	131.79569160997733	55	127
131.79569160997733	131.91179138321996	59	127
131.91179138321996	132.02786848072563	54	127
131.91179138321996	132.38777777777779	83	127
131.91179138321996	132.38777777777779	50	127
132.02786848072563	132.1439909297052	59	127
132.1439909297052	132.27170068027212	54	127
132.27170068027212	132.38777777777779	59	127
132.38777777777779	132.48068027210886	52	127
132.38777777777779	132.840589569161	81	127
132.38777777777779	132.840589569161	49	127
132.48068027210886	132.59678004535147	57	127
132.59678004535147	132.72448979591837	52	127
132.72448979591837	132.840589569161	57	127
132.840589569161	132.92185941043084	50	127
132.840589569161	133.281768707483	78	127
132.840589569161	133.281768707483	48	127
132.92185941043084	133.03795918367348	57	127
133.03795918367348	133.16566893424036	50	127
133.16566893424036	133.281768707483	57	127
133.281768707483	133.33981859410432	79	127
133.281768707483	133.36303854875283	50	127
133.281768707483	133.66487528344672	47	127
133.36303854875283	133.49074829931973	55	127
133.49074829931973	133.58362811791383	81	127
133.49074829931973	133.5952380952381	50	127
133.5952380952381	133.66487528344672	55	127
133.66487528344672	133.69972789115647	50	127
133.66487528344672	133.81580498866214	83	127
133.66487528344672	134.04802721088436	43	127
133.69972789115647	133.81580498866214	59	127
133.81580498866214	133.93192743764172	50	127
133.81580498866214	133.93192743764172	81	127
133.93192743764172	134.04802721088436	59	127
133.93192743764172	134.04802721088436	79	127
134.04802721088436	134.164126984127	50	127
134.04802721088436	134.52403628117915	81	127
134.04802721088436	134.52403628117915	42	127
134.164126984127	134.29183673469387	57	127
134.29183673469387	134.4079365079365	50	127
134.4079365079365	134.52403628117915	57	127
134.52403628117915	134.64013605442176	50	127
134.52403628117915	135.00004535147391	86	127
134.52403628117915	135.00004535147391	41	127
134.64013605442176	134.76784580498867	57	127
134.76784580498867	134.8839455782313	50	127
134.8839455782313	135.00004535147391	57	127
135.00004535147391	135.11614512471655	50	127
135.00004535147391	135.3018820861678	79	127
135.00004535147391	135.3018820861678	40	127
135.11614512471655	135.24385487528346	55	127
135.24385487528346	135.3018820861678	55	127
135.3018820861678	135.4180045351474	50	127
135.3018820861678	135.75469387755103	83	127
135.3018820861678	135.75469387755103	38	127
135.4180045351474	135.53410430839003	54	127
135.53410430839003	135.6385941043084	50	127
135.6385941043084	135.75469387755103	54	127
135.75469387755103	135.87079365079364	52	127
135.75469387755103	136.16104308390024	81	127
135.75469387755103	136.16104308390024	37	127
135.87079365079364	135.975283446712	55	127
135.975283446712	136.06814058956917	52	127
136.06814058956917	136.16104308390024	55	127
136.16104308390024	136.27714285714285	57	127
136.16104308390024	136.637052154195	78	127
136.16104308390024	136.637052154195	38	127
136.27714285714285	136.40485260770976	60	127
136.40485260770976	136.5209523809524	57	127
136.5209523809524	136.637052154195	60	127
136.637052154195	136.88083900226758	67	127
136.637052154195	136.88083900226758	55	127
136.637052154195	136.88083900226758	43	127
136.88083900226758	136.99696145124716	79	127
136.88083900226758	137.1130612244898	57	127
136.99696145124716	137.1130612244898	78	127
137.1130612244898	137.22916099773244	79	127
137.1130612244898	137.35687074829931	58	127
137.22916099773244	137.35687074829931	74	127
137.35687074829931	137.46136054421768	57	127
137.35687074829931	137.46136054421768	72	127
137.46136054421768	137.56585034013605	55	127
137.46136054421768	137.56585034013605	70	127
137.56585034013605	137.6819501133787	72	127
137.56585034013605	138.03024943310658	57	127
137.6819501133787	137.80965986394557	75	127
137.80965986394557	137.9257596371882	74	127
137.9257596371882	138.03024943310658	72	127
138.03024943310658	138.12312925170068	70	127
138.03024943310658	138.47142857142856	62	127
138.12312925170068	138.2392290249433	69	127
138.2392290249433	138.35532879818595	67	127
138.35532879818595	138.47142857142856	66	127
138.47142857142856	138.55269841269842	67	127
138.47142857142856	138.9009977324263	55	127
138.55269841269842	138.6804081632653	70	127
138.6804081632653	138.79650793650794	69	127
138.79650793650794	138.9009977324263	67	127
138.9009977324263	139.00548752834467	65	127
138.9009977324263	139.36539682539683	57	127
139.00548752834467	139.1331746031746	64	127
139.1331746031746	139.2492970521542	62	127
139.2492970521542	139.36539682539683	61	127
139.36539682539683	139.48149659863947	62	127
139.36539682539683	139.8065759637188	53	127
139.48149659863947	139.60920634920635	64	127
139.60920634920635	139.70208616780045	65	127
139.70208616780045	139.8065759637188	64	127
139.8065759637188	139.92267573696145	65	127
139.8065759637188	140.2825850340136	50	127
139.92267573696145	140.0503628117914	67	127
140.0503628117914	140.16648526077097	69	127
140.16648526077097	140.2825850340136	71	127
140.2825850340136	140.3754648526077	72	127
140.2825850340136	140.5031746031746	72	127
140.2825850340136	141.6641723356009	48	127
140.5031746031746	140.5960544217687	74	127
140.5031746031746	140.61927437641722	60	127
140.61927437641722	140.7237641723356	59	127
140.7237641723356	140.83986394557823	60	127
140.7237641723356	140.95596371882087	75	127
140.83986394557823	140.95596371882087	55	127
140.95596371882087	141.07204081632653	74	127
140.95596371882087	141.07204081632653	53	127
141.07204081632653	141.18816326530612	72	127
141.07204081632653	141.18816326530612	51	127
141.18816326530612	141.31587301587302	53	127
141.18816326530612	141.6641723356009	74	127
141.31587301587302	141.4319501133787	56	127
141.4319501133787	141.54807256235827	55	127
141.54807256235827	141.6641723356009	53	127
141.6641723356009	141.79185941043085	51	127
141.6641723356009	142.12857142857143	79	127
141.6641723356009	142.12857142857143	55	127
141.79185941043085	141.89637188208616	50	127
141.89637188208616	142.0124716553288	48	127
142.0124716553288	142.12857142857143	47	127
142.12857142857143	142.2562811791383	48	127
142.12857142857143	142.5813605442177	72	127
142.12857142857143	142.5813605442177	55	127
142.2562811791383	142.36077097505668	51	127
142.36077097505668	142.46526077097505	48	127
142.46526077097505	142.5813605442177	46	127
142.5813605442177	142.69746031746033	54	127
142.5813605442177	142.69746031746033	45	127
142.5813605442177	143.03414965986394	74	127
142.69746031746033	142.8019501133787	55	127
142.69746031746033	142.8019501133787	43	127
142.8019501133787	142.91802721088436	57	127
142.8019501133787	142.91802721088436	42	127
142.91802721088436	143.03414965986394	60	127
142.91802721088436	143.03414965986394	38	127
143.03414965986394	143.1154195011338	58	127
143.03414965986394	143.15024943310658	43	127
143.03414965986394	143.49854875283447	70	127
143.15024943310658	143.26634920634922	45	127
143.26634920634922	143.35922902494332	60	127
143.26634920634922	143.38244897959183	46	127
143.38244897959183	143.49854875283447	45	127
143.49854875283447	143.59142857142857	46	127
143.49854875283447	143.90489795918367	67	127
143.49854875283447	143.90489795918367	62	127
143.59142857142857	143.67269841269842	48	127
143.67269841269842	143.78879818594103	50	127
143.78879818594103	143.90489795918367	43	127
143.90489795918367	144.03260770975058	72	127
143.90489795918367	144.31124716553288	67	127
143.90489795918367	144.31124716553288	87	127
143.90489795918367	144.31124716553288	48	127
144.03260770975058	144.10226757369614	75	127
144.10226757369614	144.1951247165533	72	127
144.1951247165533	144.31124716553288	70	127
144.31124716553288	144.43895691609978	69	127
144.31124716553288	144.43895691609978	66	127
144.31124716553288	144.5550566893424	86	127
144.31124716553288	144.78725623582767	50	127
144.43895691609978	144.5550566893424	67	127
144.43895691609978	144.5550566893424	67	127
144.5550566893424	144.67115646258503	66	127
144.5550566893424	144.67115646258503	69	127
144.5550566893424	144.78725623582767	84	127
144.67115646258503	144.78725623582767	62	127
144.67115646258503	144.78725623582767	72	127
144.78725623582767	144.9033560090703	67	127
144.78725623582767	145.00784580498868	70	127
144.78725623582767	145.24004535147392	46	127
144.78725623582767	145.71605442176872	86	127
144.9033560090703	145.00784580498868	69	127
145.00784580498868	145.1239455782313	70	127
145.00784580498868	145.24004535147392	72	127
145.1239455782313	145.24004535147392	69	127
145.24004535147392	145.36773242630386	70	127
145.24004535147392	145.71605442176872	74	127
145.24004535147392	145.71605442176872	43	127
145.36773242630386	145.48385487528344	72	127
145.48385487528344	145.59995464852608	74	127
145.59995464852608	145.71605442176872	79	127
145.71605442176872	145.8437641723356	72	127
145.71605442176872	146.19206349206348	79	127
145.71605442176872	146.19206349206348	87	127
145.71605442176872	146.19206349206348	48	127
145.8437641723356	145.95986394557823	75	127
145.95986394557823	146.07596371882087	72	127
146.07596371882087	146.19206349206348	70	127
146.19206349206348	146.3197732426304	78	127
146.19206349206348	146.3197732426304	69	127
146.19206349206348	146.43587301587303	86	127
146.19206349206348	146.57519274376418	50	127
146.3197732426304	146.43587301587303	79	127
146.3197732426304	146.43587301587303	67	127
146.43587301587303	146.55197278911564	81	127
146.43587301587303	146.55197278911564	66	127
146.43587301587303	146.57519274376418	84	127
146.55197278911564	146.57519274376418	84	127
146.55197278911564	146.57519274376418	62	127
146.57519274376418	146.6448299319728	67	127
146.57519274376418	146.76095238095238	82	127
146.57519274376418	146.95832199546484	86	127
146.57519274376418	146.95832199546484	46	127
146.6448299319728	146.76095238095238	69	127
146.76095238095238	146.877052154195	70	127
146.76095238095238	146.95832199546484	84	127
146.877052154195	146.95832199546484	69	127
146.95832199546484	147.08603174603175	70	127
146.95832199546484	147.2021315192744	86	127
146.95832199546484	147.4459410430839	82	127
146.95832199546484	147.4459410430839	43	127
147.08603174603175	147.2021315192744	67	127
147.2021315192744	147.2950113378685	74	127
147.2021315192744	147.318231292517	62	127
147.318231292517	147.4459410430839	58	127
147.4459410430839	147.51557823129252	75	127
147.4459410430839	147.87548752834468	58	127
147.4459410430839	147.87548752834468	87	127
147.4459410430839	147.87548752834468	42	127
147.51557823129252	147.6317006802721	78	127
147.6317006802721	147.74780045351474	75	127
147.74780045351474	147.87548752834468	74	127
147.87548752834468	147.96839002267575	72	127
147.87548752834468	147.96839002267575	57	127
147.87548752834468	148.08448979591836	41	127
147.87548752834468	148.3282993197279	89	127
147.96839002267575	148.08448979591836	70	127
147.96839002267575	148.08448979591836	58	127
148.08448979591836	148.200589569161	69	127
148.08448979591836	148.200589569161	60	127
148.08448979591836	148.3282993197279	39	127
148.200589569161	148.3282993197279	65	127
148.200589569161	148.3282993197279	63	127
148.3282993197279	148.4443990929705	70	127
148.3282993197279	148.56049886621315	62	127
148.3282993197279	148.7346485260771	86	127
148.3282993197279	149.1758276643991	41	127
148.4443990929705	148.56049886621315	72	127
148.56049886621315	148.6765986394558	74	127
148.56049886621315	148.7346485260771	63	127
148.6765986394558	148.7346485260771	72	127
148.7346485260771	148.85074829931972	74	127
148.7346485260771	149.1758276643991	65	127
148.7346485260771	149.1758276643991	82	127
148.85074829931972	148.9552380952381	75	127
148.9552380952381	149.07133786848073	77	127
149.07133786848073	149.1758276643991	82	127
149.1758276643991	149.29192743764173	63	127
149.1758276643991	149.64022675736962	70	127
149.1758276643991	149.64022675736962	87	127
149.1758276643991	149.64022675736962	42	127
149.29192743764173	149.3964172335601	66	127
149.3964172335601	149.51249433106577	63	127
149.51249433106577	149.64022675736962	62	127
149.64022675736962	149.75632653061226	69	127
149.64022675736962	149.75632653061226	60	127
149.64022675736962	149.87242630385487	41	127
149.64022675736962	150.10462585034014	89	127
149.75632653061226	149.87242630385487	70	127
149.75632653061226	149.87242630385487	58	127
149.87242630385487	149.97691609977323	72	127
149.87242630385487	149.97691609977323	57	127
149.87242630385487	150.10462585034014	39	127
149.97691609977323	150.10462585034014	75	127
149.97691609977323	150.10462585034014	53	127
150.10462585034014	150.22072562358278	58	127
150.10462585034014	150.32519274376418	74	127
150.10462585034014	150.5574149659864	86	127
150.10462585034014	151.0334240362812	41	127
150.22072562358278	150.32519274376418	60	127
150.32519274376418	150.44131519274376	62	127
150.32519274376418	150.5574149659864	75	127
150.44131519274376	150.5574149659864	60	127
150.5574149659864	150.67351473922903	62	127
150.5574149659864	150.7895918367347	77	127
150.5574149659864	151.0334240362812	82	127
150.67351473922903	150.7895918367347	63	127
150.7895918367347	150.88249433106577	74	127
150.7895918367347	150.90571428571428	65	127
150.90571428571428	151.0334240362812	70	127
151.0334240362812	151.10308390022675	87	127
151.0334240362812	151.34687074829932	78	127
151.0334240362812	151.34687074829932	75	127
151.0334240362812	151.34687074829932	45	127
151.10308390022675	151.1959410430839	89	127
151.1959410430839	151.24240362811793	90	127
151.24240362811793	151.34687074829932	87	127
151.34687074829932	151.4513605442177	84	127
151.34687074829932	151.55585034013606	77	127
151.34687074829932	151.55585034013606	74	127
151.4513605442177	151.55585034013606	86	127
151.55585034013606	151.67197278911564	87	127
151.55585034013606	151.67197278911564	45	127
151.55585034013606	151.79968253968255	75	127
151.55585034013606	151.79968253968255	72	127
151.67197278911564	151.79968253968255	90	127
151.67197278911564	151.79968253968255	46	127
151.79968253968255	151.91578231292516	81	127
151.79968253968255	151.91578231292516	48	127
151.79968253968255	152.27569160997732	75	127
151.79968253968255	152.27569160997732	72	127
151.91578231292516	152.0318820861678	82	127
151.91578231292516	152.0318820861678	46	127
152.0318820861678	152.14798185941044	84	127
152.0318820861678	152.14798185941044	45	127
152.14798185941044	152.27569160997732	82	127
152.14798185941044	152.27569160997732	43	127
152.27569160997732	152.38018140589568	81	127
152.27569160997732	152.49628117913832	74	127
152.27569160997732	152.49628117913832	70	127
152.27569160997732	152.49628117913832	42	127
152.38018140589568	152.49628117913832	82	127
152.49628117913832	152.61238095238096	84	127
152.49628117913832	152.74009070294784	72	127
152.49628117913832	152.74009070294784	68	127
152.61238095238096	152.74009070294784	87	127
152.74009070294784	152.85619047619048	75	127
152.74009070294784	153.2277097505669	66	127
152.74009070294784	153.2277097505669	63	127
152.74009070294784	153.2277097505669	51	127
152.85619047619048	152.97229024943312	77	127
152.97229024943312	153.1	78	127
153.1	153.2277097505669	75	127
153.2277097505669	153.34378684807257	72	127
153.2277097505669	153.45990929705215	65	127
153.2277097505669	153.45990929705215	62	127
153.34378684807257	153.45990929705215	74	127
153.45990929705215	153.5760090702948	75	127
153.45990929705215	153.5760090702948	51	127
153.45990929705215	153.68049886621316	63	127
153.45990929705215	153.68049886621316	60	127
153.5760090702948	153.68049886621316	78	127
153.5760090702948	153.68049886621316	53	127
153.68049886621316	153.7965986394558	69	127
153.68049886621316	153.7965986394558	54	127
153.68049886621316	154.15650793650795	63	127
153.68049886621316	154.15650793650795	60	127
153.7965986394558	153.9126984126984	70	127
153.7965986394558	153.9126984126984	53	127
153.9126984126984	154.02879818594104	72	127
153.9126984126984	154.02879818594104	51	127
154.02879818594104	154.15650793650795	70	127
154.02879818594104	154.15650793650795	50	127
154.15650793650795	154.27260770975056	69	127
154.15650793650795	154.3887074829932	65	127
154.15650793650795	154.3887074829932	62	127
154.15650793650795	154.3887074829932	48	127
154.27260770975056	154.3887074829932	70	127
154.3887074829932	154.50480725623584	72	127
154.3887074829932	154.6092970521542	66	127
154.3887074829932	154.6092970521542	63	127
154.50480725623584	154.6092970521542	75	127
154.55124716553289	154.6092970521542	67	127
154.6092970521542	154.72537414965987	55	127
154.6092970521542	154.84149659863945	58	127
154.6092970521542	154.84149659863945	62	127
154.6092970521542	154.98079365079366	70	127
154.6092970521542	154.98079365079366	74	127
154.72537414965987	154.84149659863945	57	127
154.84149659863945	154.8879365079365	58	127
154.8879365079365	154.98079365079366	57	127
154.98079365079366	155.09691609977324	55	127
154.98079365079366	155.16657596371883	69	127
154.98079365079366	155.16657596371883	72	127
155.09691609977324	155.16657596371883	57	127
155.16657596371883	155.28267573696147	58	127
155.16657596371883	155.39877551020408	67	127
155.16657596371883	155.39877551020408	70	127
155.28267573696147	155.39877551020408	62	127
155.39877551020408	155.5148752834467	46	127
155.39877551020408	155.87478458049887	74	127
155.39877551020408	155.87478458049887	82	127
155.5148752834467	155.63097505668935	48	127
155.63097505668935	155.75868480725623	50	127
155.75868480725623	155.87478458049887	48	127
155.87478458049887	155.9908843537415	46	127
155.87478458049887	156.10696145124717	72	127
155.87478458049887	156.10696145124717	81	127
155.9908843537415	156.10696145124717	48	127
156.10696145124717	156.23469387755102	50	127
156.10696145124717	156.35079365079366	70	127
156.10696145124717	156.35079365079366	79	127
156.23469387755102	156.35079365079366	55	127
156.35079365079366	156.3972335600907	43	127
156.35079365079366	156.72231292517006	82	127
156.35079365079366	156.72231292517006	86	127
156.3972335600907	156.47850340136054	45	127
156.47850340136054	156.60621315192745	46	127
156.60621315192745	156.72231292517006	45	127
156.72231292517006	156.8384126984127	43	127
156.72231292517006	156.95451247165533	81	127
156.72231292517006	156.95451247165533	84	127
156.8384126984127	156.95451247165533	45	127
156.95451247165533	157.0822222222222	46	127
156.95451247165533	157.19832199546485	79	127
156.95451247165533	157.19832199546485	82	127
157.0822222222222	157.19832199546485	50	127
157.19832199546485	157.3144217687075	40	127
157.19832199546485	157.67433106575965	85	127
157.19832199546485	157.67433106575965	94	127
157.3144217687075	157.43049886621316	41	127
157.43049886621316	157.558231292517	43	127
157.558231292517	157.67433106575965	41	127
157.67433106575965	157.7904081632653	40	127
157.67433106575965	157.9065306122449	84	127
157.67433106575965	157.9065306122449	93	127
157.7904081632653	157.9065306122449	41	127
157.9065306122449	158.0342403628118	43	127
157.9065306122449	158.15031746031747	82	127
157.9065306122449	158.15031746031747	91	127
158.0342403628118	158.15031746031747	46	127
158.15031746031747	158.26643990929705	57	127
158.15031746031747	158.3825396825397	81	127
158.15031746031747	158.3825396825397	41	127
158.15031746031747	159.88022675736963	89	127
158.26643990929705	158.3825396825397	58	127
158.3825396825397	158.51024943310657	60	127
158.3825396825397	158.6263492063492	82	127
158.3825396825397	158.6263492063492	41	127
158.51024943310657	158.6263492063492	58	127
158.6263492063492	158.74244897959184	57	127
158.6263492063492	158.85854875283448	84	127
158.74244897959184	158.85854875283448	58	127
158.85854875283448	158.98625850340136	82	127
158.85854875283448	158.98625850340136	60	127
158.85854875283448	159.102358276644	41	127
158.98625850340136	159.102358276644	81	127
158.98625850340136	159.102358276644	63	127
159.102358276644	159.21845804988664	58	127
159.102358276644	159.33455782312924	41	127
159.102358276644	159.40421768707483	82	127
159.21845804988664	159.33455782312924	60	127
159.33455782312924	159.3809977324263	62	127
159.33455782312924	159.40421768707483	41	127
159.3809977324263	159.40421768707483	60	127
159.40421768707483	159.52031746031747	58	127
159.40421768707483	159.88022675736963	86	127
159.52031746031747	159.63641723356008	60	127
159.63641723356008	159.764126984127	62	127
159.63641723356008	159.88022675736963	41	127
159.764126984127	159.88022675736963	65	127
159.88022675736963	159.99632653061224	57	127
159.88022675736963	160.11242630385487	41	127
159.88022675736963	160.3562358276644	79	127
159.88022675736963	160.3562358276644	87	127
159.99632653061224	160.11242630385487	58	127
160.11242630385487	160.24013605442178	60	127
160.11242630385487	160.3562358276644	41	127
160.24013605442178	160.3562358276644	58	127
160.3562358276644	160.47233560090703	57	127
160.3562358276644	160.82063492063492	81	127
160.3562358276644	160.82063492063492	89	127
160.47233560090703	160.58843537414967	58	127
160.58843537414967	160.70451247165533	60	127
160.58843537414967	160.82063492063492	41	127
160.70451247165533	160.82063492063492	63	127
160.82063492063492	160.93673469387755	58	127
160.82063492063492	161.0528344671202	41	127
160.82063492063492	161.2966439909297	77	127
160.82063492063492	161.2966439909297	86	127
160.93673469387755	161.0528344671202	60	127
161.0528344671202	161.18054421768707	62	127
161.0528344671202	161.2966439909297	41	127
161.18054421768707	161.2966439909297	60	127
161.2966439909297	161.41274376417235	58	127
161.2966439909297	161.7726530612245	74	127
161.2966439909297	161.7726530612245	82	127
161.41274376417235	161.52884353741496	60	127
161.52884353741496	161.65655328798186	62	127
161.52884353741496	161.7726530612245	41	127
161.65655328798186	161.7726530612245	65	127
161.7726530612245	161.8887528344671	57	127
161.7726530612245	162.01646258503402	72	127
161.7726530612245	162.01646258503402	41	127
161.7726530612245	162.7130612244898	81	127
161.8887528344671	162.01646258503402	58	127
162.01646258503402	162.13256235827666	60	127
162.01646258503402	162.24866213151927	74	127
162.01646258503402	162.24866213151927	41	127
162.13256235827666	162.24866213151927	58	127
162.24866213151927	162.3647619047619	57	127
162.24866213151927	162.48086167800454	75	127
162.3647619047619	162.48086167800454	58	127
162.48086167800454	162.5969387755102	74	127
162.48086167800454	162.5969387755102	60	127
162.48086167800454	162.7130612244898	41	127
162.5969387755102	162.7130612244898	72	127
162.5969387755102	162.7130612244898	63	127
162.7130612244898	162.82916099773243	58	127
162.7130612244898	162.95684807256237	41	127
162.7130612244898	163.18907029478459	74	127
162.7130612244898	163.6534693877551	82	127
162.82916099773243	162.95684807256237	60	127
162.95684807256237	163.07297052154195	62	127
162.95684807256237	163.18907029478459	41	127
163.07297052154195	163.18907029478459	60	127
163.18907029478459	163.30517006802722	58	127
163.18907029478459	163.6534693877551	79	127
163.30517006802722	163.4328798185941	60	127
163.4328798185941	163.54897959183674	62	127
163.4328798185941	163.6534693877551	41	127
163.54897959183674	163.6534693877551	65	127
163.6534693877551	163.76954648526078	53	127
163.6534693877551	163.89727891156463	53	127
163.6534693877551	164.11786848072563	72	127
163.6534693877551	164.11786848072563	75	127
163.76954648526078	163.89727891156463	55	127
163.89727891156463	164.01337868480726	57	127
163.89727891156463	164.11786848072563	53	127
164.01337868480726	164.11786848072563	55	127
164.11786848072563	164.222358276644	53	127
164.11786848072563	164.58226757369616	74	127
164.11786848072563	164.58226757369616	69	127
164.11786848072563	164.58226757369616	77	127
164.222358276644	164.35006802721088	55	127
164.35006802721088	164.46616780045352	57	127
164.35006802721088	164.58226757369616	53	127
164.46616780045352	164.58226757369616	60	127
164.58226757369616	164.69836734693877	58	127
164.58226757369616	164.82607709750567	53	127
164.58226757369616	165.0466439909297	70	127
164.58226757369616	165.40655328798186	65	127
164.58226757369616	165.40655328798186	74	127
164.69836734693877	164.82607709750567	60	127
164.82607709750567	164.93056689342404	62	127
164.82607709750567	165.0466439909297	53	127
164.93056689342404	165.0466439909297	60	127
165.0466439909297	165.1627664399093	58	127
165.0466439909297	165.40655328798186	65	127
165.1627664399093	165.25562358276645	60	127
165.25562358276645	165.3136961451247	62	127
165.25562358276645	165.40655328798186	53	127
165.3136961451247	165.40655328798186	65	127
165.40655328798186	165.52267573696145	53	127
165.40655328798186	165.63877551020408	53	127
165.40655328798186	165.87097505668933	72	127
165.40655328798186	165.87097505668933	75	127
165.52267573696145	165.63877551020408	55	127
165.63877551020408	165.75487528344672	57	127
165.63877551020408	165.87097505668933	53	127
165.75487528344672	165.87097505668933	55	127
165.87097505668933	165.98707482993197	53	127
165.87097505668933	166.34698412698413	74	127
165.87097505668933	166.34698412698413	69	127
165.87097505668933	166.34698412698413	77	127
165.98707482993197	166.11478458049888	55	127
166.11478458049888	166.2308843537415	57	127
166.11478458049888	166.34698412698413	53	127
166.2308843537415	166.34698412698413	60	127
166.34698412698413	166.46308390022676	58	127
166.34698412698413	166.59079365079364	53	127
166.34698412698413	166.82299319727892	70	127
166.34698412698413	167.22934240362812	65	127
166.34698412698413	167.22934240362812	74	127
166.46308390022676	166.59079365079364	60	127
166.59079365079364	166.70689342403628	62	127
166.59079365079364	166.82299319727892	53	127
166.70689342403628	166.82299319727892	60	127
166.82299319727892	166.93907029478459	58	127
166.82299319727892	167.22934240362812	65	127
166.93907029478459	167.05519274376417	60	127
167.05519274376417	167.13646258503402	62	127
167.05519274376417	167.22934240362812	53	127
167.13646258503402	167.22934240362812	65	127
167.22934240362812	167.34544217687076	65	127
167.22934240362812	167.70532879818595	75	127
167.22934240362812	170.88648526077097	57	127
167.22934240362812	170.88648526077097	63	127
167.22934240362812	170.88648526077097	41	127
167.34544217687076	167.47315192743764	67	127
167.47315192743764	167.58925170068028	69	127
167.58925170068028	167.70532879818595	67	127
167.70532879818595	167.79823129251702	65	127
167.70532879818595	168.12331065759636	77	127
167.79823129251702	167.89111111111112	67	127
167.89111111111112	168.00721088435375	69	127
168.00721088435375	168.12331065759636	72	127
168.12331065759636	168.239410430839	65	127
168.12331065759636	168.56448979591838	75	127
168.239410430839	168.3671201814059	67	127
168.3671201814059	168.44839002267574	69	127
168.44839002267574	168.56448979591838	67	127
168.56448979591838	168.66897959183675	65	127
168.56448979591838	169.01727891156463	77	127
168.66897959183675	168.79668934240362	67	127
168.79668934240362	168.901179138322	69	127
168.901179138322	169.01727891156463	72	127
169.01727891156463	169.121768707483	65	127
169.01727891156463	169.23786848072564	75	127
169.121768707483	169.23786848072564	67	127
169.23786848072564	169.35396825396825	69	127
169.23786848072564	169.47006802721089	77	127
169.35396825396825	169.47006802721089	72	127
169.47006802721089	169.59775510204082	69	127
169.47006802721089	169.7138775510204	79	127
169.59775510204082	169.7138775510204	70	127
169.7138775510204	169.82997732426304	72	127
169.7138775510204	169.94607709750568	81	127
169.82997732426304	169.94607709750568	75	127
169.94607709750568	170.07378684807256	65	127
169.94607709750568	170.1898866213152	82	127
170.07378684807256	170.1898866213152	67	127
170.1898866213152	170.29437641723356	69	127
170.1898866213152	170.4104761904762	84	127
170.29437641723356	170.4104761904762	72	127
170.4104761904762	170.53818594104308	69	127
170.4104761904762	170.65428571428572	86	127
170.53818594104308	170.65428571428572	70	127
170.65428571428572	170.77038548752836	72	127
170.65428571428572	170.88648526077097	87	127
170.77038548752836	170.88648526077097	75	127
170.88648526077097	171.11868480725624	74	127
170.88648526077097	171.11868480725624	58	127
170.88648526077097	171.11868480725624	62	127
170.88648526077097	171.11868480725624	86	127
170.88648526077097	171.11868480725624	46	127
171.11868480725624	171.3508843537415	84	127
171.11868480725624	171.3508843537415	48	127
171.11868480725624	174.67133786848072	65	127
171.11868480725624	174.67133786848072	53	127
171.3508843537415	171.5714739229025	86	127
171.3508843537415	171.5714739229025	50	127
171.5714739229025	171.68757369614514	84	127
171.5714739229025	171.68757369614514	48	127
171.68757369614514	171.81528344671202	82	127
171.68757369614514	171.81528344671202	46	127
171.81528344671202	172.2912925170068	84	127
171.81528344671202	172.2912925170068	48	127
172.2912925170068	172.77891156462584	89	127
172.2912925170068	172.77891156462584	53	127
172.77891156462584	173.24331065759637	82	127
172.77891156462584	173.24331065759637	46	127
173.24331065759637	173.73092970521543	84	127
173.24331065759637	173.73092970521543	48	127
173.73092970521543	174.2069387755102	81	127
173.73092970521543	174.2069387755102	45	127
174.2069387755102	174.67133786848072	77	127
174.2069387755102	174.67133786848072	41	127
174.67133786848072	174.9267573696145	79	127
174.67133786848072	174.9267573696145	43	127
174.67133786848072	178.45619047619047	62	127
174.67133786848072	178.45619047619047	50	127
174.9267573696145	175.15895691609978	81	127
174.9267573696145	175.15895691609978	45	127
175.15895691609978	175.4027664399093	82	127
175.15895691609978	175.4027664399093	46	127
175.4027664399093	175.50725623582767	81	127
175.4027664399093	175.50725623582767	45	127
175.50725623582767	175.6233560090703	79	127
175.50725623582767	175.6233560090703	43	127
175.6233560090703	176.09936507936507	81	127
175.6233560090703	176.09936507936507	45	127
176.09936507936507	176.57537414965986	86	127
176.09936507936507	176.57537414965986	50	127
176.57537414965986	177.06297052154196	79	127
176.57537414965986	177.06297052154196	43	127
177.06297052154196	177.55061224489796	81	127
177.06297052154196	177.55061224489796	45	127
177.55061224489796	178.0150113378685	77	127
177.55061224489796	178.0150113378685	41	127
178.0150113378685	178.45619047619047	74	127
178.0150113378685	178.45619047619047	38	127
178.45619047619047	178.68839002267575	67	127
178.45619047619047	178.68839002267575	55	127
178.45619047619047	178.68839002267575	72	127
178.45619047619047	178.68839002267575	39	127
178.68839002267575	178.920589569161	74	127
178.920589569161	179.10632653061225	75	127
179.10632653061225	179.21081632653062	74	127
179.21081632653062	179.33854875283447	72	127
179.33854875283447	179.57074829931972	73	127
179.33854875283447	179.57074829931972	55	127
179.33854875283447	179.57074829931972	82	127
179.33854875283447	179.57074829931972	40	127
179.57074829931972	179.81455782312926	57	127
179.81455782312926	180.09319727891156	58	127
180.09319727891156	180.22090702947847	57	127
180.22090702947847	180.36022675736962	55	127
180.36022675736962	180.59240362811792	70	127
180.36022675736962	180.59240362811792	62	127
180.36022675736962	180.59240362811792	41	127
180.59240362811792	180.8362358276644	72	127
180.8362358276644	181.06843537414966	74	127
181.06843537414966	181.1845351473923	72	127
181.1845351473923	181.31224489795918	70	127
181.31224489795918	181.55605442176872	78	127
181.31224489795918	181.55605442176872	60	127
181.31224489795918	181.55605442176872	63	127
181.31224489795918	181.55605442176872	69	127
181.31224489795918	181.55605442176872	41	127
181.31224489795918	183.21628117913832	78	127
183.21628117913832	184.17990929705215	77	127
184.17990929705215	185.17836734693878	75	127
185.17836734693878	185.7356462585034	73	127
185.7356462585034	185.97945578231293	72	127
185.97945578231293	186.10714285714286	63	127
185.97945578231293	186.22326530612244	70	127
186.10714285714286	186.22326530612244	65	127
186.22326530612244	186.36258503401362	66	127
186.22326530612244	187.45392290249433	69	127
186.22326530612244	187.45392290249433	41	127
186.22326530612244	187.73256235827665	63	127
186.36258503401362	186.4902947845805	63	127
186.4902947845805	186.6528344671202	60	127
186.6528344671202	186.94308390022675	58	127
186.94308390022675	187.0591836734694	57	127
187.0591836734694	187.17528344671203	60	127
187.17528344671203	187.31460317460318	63	127
187.31460317460318	187.45392290249433	66	127
187.45392290249433	187.5584126984127	65	127
187.45392290249433	188.5104081632653	70	127
187.45392290249433	188.5104081632653	46	127
187.73256235827665	188.01120181405895	62	127
187.73256235827665	188.24340136054423	62	127
188.01120181405895	188.24340136054423	58	127
188.24340136054423	188.38272108843537	60	127
188.24340136054423	188.5104081632653	65	127
188.38272108843537	188.5104081632653	62	127
188.5104081632653	188.64975056689343	63	127
188.5104081632653	189.59015873015872	57	127
188.5104081632653	189.59015873015872	41	127
188.5104081632653	189.822358276644	75	127
188.64975056689343	188.78907029478458	60	127
188.78907029478458	188.9167800453515	57	127
188.9167800453515	189.04448979591837	54	127
189.04448979591837	189.160589569161	53	127
189.160589569161	189.29990929705215	57	127
189.29990929705215	189.4740589569161	60	127
189.4740589569161	189.59015873015872	63	127
189.59015873015872	189.822358276644	58	127
189.59015873015872	189.822358276644	62	127
189.59015873015872	190.5421768707483	46	127
189.822358276644	190.0661678004535	65	127
189.822358276644	190.0661678004535	74	127
189.822358276644	190.2983673469388	58	127
190.0661678004535	190.2983673469388	62	127
190.0661678004535	190.2983673469388	70	127
190.2983673469388	190.42607709750567	60	127
190.2983673469388	190.42607709750567	57	127
190.2983673469388	190.5421768707483	77	127
190.42607709750567	190.5421768707483	62	127
190.42607709750567	190.5421768707483	58	127
190.5421768707483	190.6350566893424	60	127
190.5421768707483	191.01818594104307	63	127
190.5421768707483	191.44775510204082	41	127
190.5421768707483	191.67995464852606	75	127
190.6350566893424	190.75115646258504	57	127
190.75115646258504	190.90208616780046	54	127
190.90208616780046	191.01818594104307	53	127
191.01818594104307	191.1342857142857	51	127
191.01818594104307	191.44775510204082	72	127
191.1342857142857	191.2271655328798	53	127
191.2271655328798	191.34326530612245	54	127
191.34326530612245	191.44775510204082	60	127
191.44775510204082	191.54063492063491	72	127
191.44775510204082	191.54063492063491	58	127
191.44775510204082	191.9237641723356	46	127
191.67995464852606	191.80766439909297	74	127
191.67995464852606	192.15596371882086	70	127
191.67995464852606	192.15596371882086	53	127
191.80766439909297	191.9237641723356	72	127
191.9237641723356	192.15596371882086	74	127
191.9237641723356	192.39977324263037	41	127
192.15596371882086	192.28367346938776	65	127
192.15596371882086	192.28367346938776	57	127
192.15596371882086	192.64358276643992	75	127
192.28367346938776	192.39977324263037	72	127
192.28367346938776	192.39977324263037	60	127
192.39977324263037	192.64358276643992	72	127
192.39977324263037	192.64358276643992	58	127
192.39977324263037	192.85256235827666	46	127
192.64358276643992	192.73646258503402	74	127
192.64358276643992	193.09637188208617	70	127
192.64358276643992	193.09637188208617	53	127
192.73646258503402	192.85256235827666	72	127
192.85256235827666	193.09637188208617	74	127
192.85256235827666	193.3401814058957	41	127
193.09637188208617	193.21247165532878	65	127
193.09637188208617	193.21247165532878	57	127
193.09637188208617	193.5839909297052	75	127
193.21247165532878	193.3401814058957	72	127
193.21247165532878	193.3401814058957	60	127
193.3401814058957	193.5839909297052	72	127
193.3401814058957	193.5839909297052	58	127
193.3401814058957	193.81619047619049	46	127
193.5839909297052	193.70009070294785	74	127
193.5839909297052	194.06	70	127
193.5839909297052	194.06	53	127
193.70009070294785	193.81619047619049	72	127
193.81619047619049	194.06	74	127
193.81619047619049	194.30380952380952	41	127
194.06	194.18770975056688	57	127
194.06	194.30380952380952	65	127
194.06	194.41990929705216	75	127
194.18770975056688	194.30380952380952	60	127
194.30380952380952	195.30226757369616	65	127
194.30380952380952	195.30226757369616	59	127
194.30380952380952	198.28603174603174	49	127
194.41990929705216	194.5592290249433	73	127
194.5592290249433	194.67532879818594	71	127
194.67532879818594	194.79142857142858	68	127
194.79142857142858	194.9075283446712	65	127
194.9075283446712	195.0352380952381	68	127
195.0352380952381	195.17455782312925	71	127
195.17455782312925	195.30226757369616	75	127
195.30226757369616	195.54607709750567	73	127
195.30226757369616	196.27750566893425	66	127
195.30226757369616	196.27750566893425	58	127
195.54607709750567	196.0336961451247	70	127
196.0336961451247	196.14979591836735	70	127
196.14979591836735	196.27750566893425	73	127
196.27750566893425	196.37038548752835	71	127
196.27750566893425	197.28757369614513	65	127
196.27750566893425	197.28757369614513	59	127
196.52131519274377	196.61419501133787	70	127
196.75351473922902	197.28757369614513	68	127
197.28757369614513	197.77519274376417	70	127
197.28757369614513	198.28603174603174	66	127
197.28757369614513	198.28603174603174	58	127
198.0538321995465	198.16993197278913	68	127
198.16993197278913	198.28603174603174	70	127
198.28603174603174	198.40213151927438	71	127
198.28603174603174	199.23804988662133	59	127
198.28603174603174	199.23804988662133	53	127
198.28603174603174	201.2233560090703	37	127
198.40213151927438	198.52984126984126	70	127
198.52984126984126	198.6459410430839	68	127
198.6459410430839	198.76204081632653	66	127
198.76204081632653	198.87814058956917	65	127
198.87814058956917	198.99424036281178	68	127
198.99424036281178	199.1219501133787	71	127
199.1219501133787	199.23804988662133	75	127
199.23804988662133	199.4934693877551	73	127
199.23804988662133	200.23650793650793	58	127
199.23804988662133	200.23650793650793	54	127
199.4934693877551	199.98108843537415	70	127
199.98108843537415	200.10879818594105	70	127
200.10879818594105	200.23650793650793	73	127
200.23650793650793	200.32938775510203	71	127
200.23650793650793	201.2233560090703	59	127
200.23650793650793	201.2233560090703	53	127
200.49192743764172	200.58480725623582	70	127
200.724126984127	201.2233560090703	68	127
201.2233560090703	201.45555555555555	42	127
201.2233560090703	201.68775510204082	66	127
201.2233560090703	201.91995464852607	58	127
201.2233560090703	201.91995464852607	54	127
201.45555555555555	201.68775510204082	46	127
201.68775510204082	201.91995464852607	78	127
201.68775510204082	201.91995464852607	49	127
201.91995464852607	202.0360544217687	73	127
201.91995464852607	202.15215419501135	54	127
202.0360544217687	202.15215419501135	73	127
202.15215419501135	202.26825396825396	74	127
202.15215419501135	202.26825396825396	56	127
202.15215419501135	202.3843537414966	64	127
202.15215419501135	202.3843537414966	71	127
202.15215419501135	202.3843537414966	80	127
202.15215419501135	202.3843537414966	40	127
202.26825396825396	202.3843537414966	73	127
202.26825396825396	202.3843537414966	56	127
202.3843537414966	202.50045351473923	71	127
202.3843537414966	202.50045351473923	59	127
202.3843537414966	202.61655328798187	52	127
202.50045351473923	202.61655328798187	69	127
202.50045351473923	202.61655328798187	59	127
202.61655328798187	202.74426303854875	68	127
202.61655328798187	202.74426303854875	52	127
202.61655328798187	202.8603628117914	64	127
202.61655328798187	202.8603628117914	74	127
202.61655328798187	202.8603628117914	83	127
202.61655328798187	202.8603628117914	40	127
202.74426303854875	202.8603628117914	71	127
202.74426303854875	202.8603628117914	52	127
202.8603628117914	202.96485260770976	74	127
202.8603628117914	202.96485260770976	56	127
202.8603628117914	203.08095238095237	52	127
202.96485260770976	203.08095238095237	78	127
202.96485260770976	203.08095238095237	56	127
203.08095238095237	203.20866213151928	57	127
203.08095238095237	203.31315192743764	76	127
203.08095238095237	203.31315192743764	64	127
203.08095238095237	203.31315192743764	73	127
203.08095238095237	203.31315192743764	81	127
203.08095238095237	203.31315192743764	40	127
203.20866213151928	203.31315192743764	57	127
203.31315192743764	203.42925170068028	61	127
203.31315192743764	203.5453514739229	52	127
203.31315192743764	203.78916099773244	73	127
203.42925170068028	203.5453514739229	61	127
203.5453514739229	203.6730612244898	52	127
203.5453514739229	203.78916099773244	69	127
203.5453514739229	203.78916099773244	76	127
203.5453514739229	203.78916099773244	85	127
203.5453514739229	203.78916099773244	40	127
203.6730612244898	203.78916099773244	52	127
203.78916099773244	203.90526077097505	73	127
203.78916099773244	203.90526077097505	57	127
203.78916099773244	204.02136054421769	52	127
203.90526077097505	204.02136054421769	76	127
203.90526077097505	204.02136054421769	57	127
204.02136054421769	204.11424036281178	74	127
204.02136054421769	204.1490702947846	56	127
204.02136054421769	204.2651700680272	64	127
204.02136054421769	204.2651700680272	71	127
204.02136054421769	204.2651700680272	78	127
204.02136054421769	204.2651700680272	40	127
204.1490702947846	204.2651700680272	56	127
204.2651700680272	204.3580498866213	73	127
204.2651700680272	204.36965986394557	59	127
204.2651700680272	204.4857596371882	52	127
204.36965986394557	204.4857596371882	59	127
204.4857596371882	204.56702947845804	52	127
204.4857596371882	204.5786394557823	64	127
204.4857596371882	204.5786394557823	74	127
204.4857596371882	204.5786394557823	83	127
204.4857596371882	204.5786394557823	40	127
204.4857596371882	204.81083900226758	71	127
204.56702947845804	204.5786394557823	52	127
204.5786394557823	204.69473922902495	56	127
204.5786394557823	204.81083900226758	52	127
204.69473922902495	204.81083900226758	56	127
204.81083900226758	204.93854875283446	57	127
204.81083900226758	205.0546485260771	64	127
204.81083900226758	205.0546485260771	73	127
204.81083900226758	205.0546485260771	81	127
204.81083900226758	205.0546485260771	40	127
204.81083900226758	205.28684807256235	69	127
204.93854875283446	205.0546485260771	57	127
205.0546485260771	205.17074829931974	61	127
205.0546485260771	205.28684807256235	52	127
205.17074829931974	205.28684807256235	61	127
205.28684807256235	205.402947845805	52	127
205.28684807256235	205.50743764172336	69	127
205.28684807256235	205.50743764172336	76	127
205.28684807256235	205.50743764172336	85	127
205.28684807256235	205.50743764172336	40	127
205.402947845805	205.50743764172336	52	127
205.50743764172336	205.623537414966	69	127
205.50743764172336	205.623537414966	57	127
205.50743764172336	205.72802721088436	52	127
205.623537414966	205.72802721088436	73	127
205.623537414966	205.72802721088436	57	127
205.72802721088436	205.83251700680273	74	127
205.72802721088436	205.83251700680273	56	127
205.72802721088436	205.9370068027211	64	127
205.72802721088436	205.9370068027211	71	127
205.72802721088436	205.9370068027211	80	127
205.72802721088436	205.9370068027211	40	127
205.83251700680273	205.9370068027211	73	127
205.83251700680273	205.9370068027211	56	127
205.9370068027211	206.0531065759637	71	127
205.9370068027211	206.0531065759637	59	127
205.9370068027211	206.15759637188208	52	127
206.0531065759637	206.15759637188208	69	127
206.0531065759637	206.15759637188208	59	127
206.15759637188208	206.27369614512472	68	127
206.15759637188208	206.27369614512472	52	127
206.15759637188208	206.37818594104309	64	127
206.15759637188208	206.37818594104309	74	127
206.15759637188208	206.37818594104309	83	127
206.15759637188208	206.37818594104309	40	127
206.27369614512472	206.37818594104309	71	127
206.27369614512472	206.37818594104309	52	127
206.37818594104309	206.48267573696145	74	127
206.37818594104309	206.48267573696145	56	127
206.37818594104309	206.56394557823128	52	127
206.48267573696145	206.56394557823128	78	127
206.48267573696145	206.56394557823128	56	127
206.56394557823128	206.65682539682538	57	127
206.56394557823128	206.76131519274375	76	127
206.56394557823128	206.76131519274375	64	127
206.56394557823128	206.76131519274375	73	127
206.56394557823128	206.76131519274375	81	127
206.56394557823128	206.76131519274375	40	127
206.65682539682538	206.76131519274375	57	127
206.76131519274375	206.86580498866212	61	127
206.76131519274375	206.98190476190476	52	127
206.76131519274375	207.22571428571428	73	127
206.86580498866212	206.98190476190476	61	127
206.98190476190476	207.10961451247167	52	127
206.98190476190476	207.22571428571428	69	127
206.98190476190476	207.22571428571428	76	127
206.98190476190476	207.22571428571428	85	127
206.98190476190476	207.22571428571428	40	127
207.10961451247167	207.22571428571428	52	127
207.22571428571428	207.26054421768708	71	127
207.22571428571428	207.26054421768708	74	127
207.22571428571428	207.33020408163264	57	127
207.22571428571428	207.44630385487528	52	127
207.33020408163264	207.3766439909297	73	127
207.33020408163264	207.3766439909297	76	127
207.33020408163264	207.44630385487528	57	127
207.44630385487528	207.49274376417233	74	127
207.44630385487528	207.49274376417233	77	127
207.44630385487528	207.6901133786848	50	127
207.44630385487528	207.6901133786848	59	127
207.44630385487528	207.6901133786848	43	127
207.5740136054422	207.62045351473924	72	127
207.5740136054422	207.62045351473924	76	127
207.6901133786848	207.73655328798185	71	127
207.6901133786848	207.73655328798185	74	127
207.6901133786848	207.92231292517008	55	127
207.80621315192744	207.8526530612245	69	127
207.80621315192744	207.8526530612245	72	127
207.92231292517008	207.95714285714286	67	127
207.92231292517008	207.95714285714286	71	127
207.92231292517008	208.11968253968254	55	127
207.92231292517008	208.11968253968254	65	127
207.92231292517008	208.11968253968254	71	127
207.92231292517008	208.11968253968254	43	127
208.03841269841269	208.08485260770976	71	127
208.03841269841269	208.08485260770976	74	127
208.11968253968254	208.1661224489796	74	127
208.11968253968254	208.1661224489796	77	127
208.11968253968254	208.29383219954647	55	127
208.23578231292518	208.27061224489796	77	127
208.23578231292518	208.27061224489796	81	127
208.29383219954647	208.36349206349206	76	127
208.29383219954647	208.36349206349206	79	127
208.29383219954647	208.5028117913832	48	127
208.29383219954647	208.5028117913832	55	127
208.29383219954647	208.5028117913832	64	127
208.29383219954647	208.5028117913832	43	127
208.5028117913832	208.73501133786849	55	127
208.5028117913832	208.96721088435373	72	127
208.5028117913832	208.96721088435373	76	127
208.73501133786849	208.96721088435373	55	127
208.73501133786849	208.96721088435373	64	127
208.73501133786849	208.96721088435373	72	127
208.73501133786849	208.96721088435373	43	127
208.96721088435373	209.08331065759637	67	127
208.96721088435373	209.08331065759637	55	127
209.08331065759637	209.18780045351474	67	127
209.08331065759637	209.18780045351474	55	127
209.18780045351474	209.30390022675738	68	127
209.18780045351474	209.30390022675738	56	127
209.30390022675738	209.3851700680272	67	127
209.30390022675738	209.3851700680272	55	127
209.3851700680272	209.50126984126985	65	127
209.3851700680272	209.50126984126985	53	127
209.50126984126985	209.62897959183672	63	127
209.50126984126985	209.62897959183672	51	127
209.62897959183672	209.74507936507936	62	127
209.62897959183672	209.74507936507936	50	127
209.74507936507936	209.84956916099773	65	127
209.74507936507936	209.84956916099773	53	127
209.84956916099773	209.96566893424037	65	127
209.84956916099773	209.96566893424037	68	127
209.84956916099773	209.96566893424037	77	127
209.84956916099773	209.96566893424037	56	127
209.96566893424037	210.09337868480725	66	127
209.96566893424037	210.09337868480725	72	127
209.96566893424037	210.09337868480725	78	127
209.96566893424037	210.09337868480725	60	127
210.09337868480725	210.19786848072562	67	127
210.09337868480725	210.19786848072562	79	127
210.09337868480725	210.5461678004535	70	127
210.09337868480725	210.5461678004535	58	127
210.19786848072562	210.31396825396826	65	127
210.19786848072562	210.31396825396826	77	127
210.31396825396826	210.41845804988662	63	127
210.31396825396826	210.41845804988662	75	127
210.41845804988662	210.5461678004535	62	127
210.41845804988662	210.5461678004535	74	127
210.5461678004535	210.65065759637187	63	127
210.5461678004535	210.65065759637187	75	127
210.65065759637187	210.7667573696145	67	127
210.65065759637187	210.7667573696145	79	127
210.7667573696145	210.84802721088437	70	127
210.7667573696145	210.84802721088437	67	127
210.7667573696145	210.84802721088437	82	127
210.7667573696145	210.84802721088437	55	127
210.84802721088437	210.97573696145125	75	127
210.84802721088437	210.97573696145125	67	127
210.84802721088437	210.97573696145125	87	127
210.84802721088437	210.97573696145125	55	127
210.97573696145125	211.04539682539684	74	127
210.97573696145125	211.04539682539684	86	127
210.97573696145125	211.06861678004535	68	127
210.97573696145125	211.06861678004535	56	127
211.06861678004535	211.18471655328798	67	127
211.06861678004535	211.18471655328798	55	127
211.18471655328798	211.28920634920635	65	127
211.18471655328798	211.28920634920635	53	127
211.18471655328798	211.53301587301587	70	127
211.18471655328798	211.53301587301587	82	127
211.28920634920635	211.3356462585034	63	127
211.28920634920635	211.3356462585034	51	127
211.3356462585034	211.41691609977323	62	127
211.3356462585034	211.41691609977323	50	127
211.41691609977323	211.53301587301587	65	127
211.41691609977323	211.53301587301587	53	127
211.53301587301587	211.6491156462585	65	127
211.53301587301587	211.6491156462585	68	127
211.53301587301587	211.6491156462585	77	127
211.53301587301587	211.6491156462585	56	127
211.6491156462585	211.7768253968254	66	127
211.6491156462585	211.7768253968254	72	127
211.6491156462585	211.7768253968254	78	127
211.6491156462585	211.7768253968254	60	127
211.7768253968254	211.86970521541951	70	127
211.7768253968254	211.86970521541951	58	127
211.7768253968254	211.89292517006803	67	127
211.7768253968254	211.89292517006803	79	127
211.89292517006803	211.9974149659864	65	127
211.89292517006803	211.9974149659864	77	127
211.9974149659864	212.11351473922903	63	127
211.9974149659864	212.11351473922903	75	127
211.9974149659864	212.46181405895692	67	127
211.9974149659864	212.46181405895692	55	127
212.11351473922903	212.2180045351474	62	127
212.11351473922903	212.2180045351474	74	127
212.2180045351474	212.33410430839	63	127
212.2180045351474	212.33410430839	75	127
212.33410430839	212.46181405895692	67	127
212.33410430839	212.46181405895692	79	127
212.46181405895692	212.57791383219956	70	127
212.46181405895692	212.57791383219956	67	127
212.46181405895692	212.57791383219956	82	127
212.46181405895692	212.57791383219956	55	127
212.57791383219956	212.68240362811792	75	127
212.57791383219956	212.68240362811792	67	127
212.57791383219956	212.68240362811792	87	127
212.57791383219956	212.68240362811792	55	127
212.68240362811792	212.77528344671202	72	127
212.68240362811792	212.77528344671202	84	127
212.68240362811792	212.79850340136053	68	127
212.68240362811792	212.79850340136053	56	127
212.79850340136053	212.91460317460317	67	127
212.79850340136053	212.91460317460317	55	127
212.91460317460317	213.0307029478458	65	127
212.91460317460317	213.0307029478458	53	127
212.91460317460317	213.39061224489797	68	127
212.91460317460317	213.39061224489797	80	127
213.0307029478458	213.1584126984127	63	127
213.0307029478458	213.1584126984127	51	127
213.1584126984127	213.27451247165533	50	127
213.1584126984127	213.39061224489797	62	127
213.27451247165533	213.39061224489797	53	127
213.39061224489797	213.48349206349206	68	127
213.39061224489797	213.48349206349206	65	127
213.39061224489797	213.48349206349206	75	127
213.39061224489797	213.48349206349206	56	127
213.48349206349206	213.5995918367347	68	127
213.48349206349206	213.5995918367347	65	127
213.48349206349206	213.5995918367347	75	127
213.48349206349206	213.5995918367347	60	127
213.5995918367347	213.6924716553288	68	127
213.5995918367347	213.6924716553288	65	127
213.5995918367347	213.6924716553288	74	127
213.5995918367347	213.7156916099773	58	127
213.7156916099773	213.83179138321995	55	127
213.83179138321995	213.9478911564626	56	127
213.83179138321995	214.319410430839	65	127
213.83179138321995	214.319410430839	62	127
213.83179138321995	214.319410430839	70	127
213.9478911564626	214.08721088435374	55	127
214.08721088435374	214.20331065759638	53	127
214.20331065759638	214.319410430839	56	127
214.319410430839	214.42390022675738	72	127
214.319410430839	214.42390022675738	68	127
214.319410430839	214.42390022675738	79	127
214.319410430839	214.42390022675738	60	127
214.42390022675738	214.5051700680272	72	127
214.42390022675738	214.5051700680272	68	127
214.42390022675738	214.5051700680272	79	127
214.42390022675738	214.5051700680272	63	127
214.5051700680272	214.52839002267575	71	127
214.5051700680272	214.52839002267575	68	127
214.5051700680272	214.52839002267575	77	127
214.5051700680272	214.55160997732426	62	127
214.55160997732426	214.6677097505669	60	127
214.6677097505669	214.760589569161	59	127
214.6677097505669	215.05083900226757	68	127
214.6677097505669	215.05083900226757	65	127
214.6677097505669	215.05083900226757	74	127
214.760589569161	214.84185941043083	56	127
214.84185941043083	214.93473922902496	55	127
214.93473922902496	215.05083900226757	59	127
215.05083900226757	215.17854875283447	77	127
215.05083900226757	215.17854875283447	74	127
215.05083900226757	215.17854875283447	82	127
215.05083900226757	215.17854875283447	62	127
215.17854875283447	215.2946485260771	77	127
215.17854875283447	215.2946485260771	74	127
215.17854875283447	215.2946485260771	82	127
215.17854875283447	215.2946485260771	67	127
215.2946485260771	215.36430839002267	74	127
215.2946485260771	215.36430839002267	71	127
215.2946485260771	215.36430839002267	80	127
215.2946485260771	215.3875283446712	65	127
215.3875283446712	215.50362811791382	63	127
215.50362811791382	215.6081179138322	62	127
215.50362811791382	215.9564172335601	71	127
215.50362811791382	215.9564172335601	68	127
215.50362811791382	215.9564172335601	77	127
215.6081179138322	215.72421768707483	60	127
215.72421768707483	215.84031746031746	59	127
215.84031746031746	215.9564172335601	62	127
215.9564172335601	216.0725170068027	77	127
215.9564172335601	216.0725170068027	74	127
215.9564172335601	216.0725170068027	84	127
215.9564172335601	216.0725170068027	65	127
216.0725170068027	216.18861678004535	77	127
216.0725170068027	216.18861678004535	74	127
216.0725170068027	216.18861678004535	84	127
216.0725170068027	216.18861678004535	68	127
216.18861678004535	216.29310657596372	77	127
216.18861678004535	216.29310657596372	74	127
216.18861678004535	216.37437641723355	67	127
216.18861678004535	216.59496598639456	83	127
216.29310657596372	216.37437641723355	77	127
216.29310657596372	216.37437641723355	65	127
216.37437641723355	216.4904761904762	74	127
216.37437641723355	216.4904761904762	62	127
216.37437641723355	217.01292517006803	43	127
216.4904761904762	216.59496598639456	72	127
216.4904761904762	216.59496598639456	60	127
216.59496598639456	216.69945578231292	71	127
216.59496598639456	216.69945578231292	59	127
216.69945578231292	216.81555555555556	74	127
216.69945578231292	216.81555555555556	62	127
216.81555555555556	216.93165532879817	77	127
216.81555555555556	216.93165532879817	65	127
216.81555555555556	216.93165532879817	84	127
216.93165532879817	217.01292517006803	80	127
216.93165532879817	217.01292517006803	68	127
216.93165532879817	217.01292517006803	84	127
217.01292517006803	217.12902494331067	79	127
217.01292517006803	217.12902494331067	67	127
217.01292517006803	217.24512471655328	55	127
217.01292517006803	217.50054421768706	83	127
217.12902494331067	217.24512471655328	77	127
217.12902494331067	217.24512471655328	65	127
217.24512471655328	217.37283446712019	74	127
217.24512471655328	217.37283446712019	62	127
217.24512471655328	217.95333333333335	43	127
217.37283446712019	217.50054421768706	72	127
217.37283446712019	217.50054421768706	60	127
217.50054421768706	217.6166439909297	71	127
217.50054421768706	217.6166439909297	59	127
217.6166439909297	217.72113378684807	74	127
217.6166439909297	217.72113378684807	62	127
217.72113378684807	217.8372335600907	77	127
217.72113378684807	217.8372335600907	65	127
217.72113378684807	217.8372335600907	84	127
217.8372335600907	217.95333333333335	80	127
217.8372335600907	217.95333333333335	68	127
217.8372335600907	217.95333333333335	84	127
217.95333333333335	218.06943310657596	82	127
217.95333333333335	218.1855328798186	79	127
217.95333333333335	218.1855328798186	67	127
218.06943310657596	218.1855328798186	84	127
218.1855328798186	218.31324263038547	85	127
218.1855328798186	218.4293424036281	48	127
218.1855328798186	218.6615419501134	76	127
218.1855328798186	218.6615419501134	64	127
218.31324263038547	218.4293424036281	82	127
218.4293424036281	218.54544217687075	79	127
218.4293424036281	218.6615419501134	60	127
218.54544217687075	218.6615419501134	84	127
218.6615419501134	218.78925170068027	78	127
218.6615419501134	218.78925170068027	66	127
218.6615419501134	218.78925170068027	85	127
218.6615419501134	218.89374149659864	57	127
218.78925170068027	218.89374149659864	78	127
218.78925170068027	218.89374149659864	66	127
218.78925170068027	218.89374149659864	87	127
218.89374149659864	218.96340136054422	77	127
218.89374149659864	218.96340136054422	65	127
218.89374149659864	218.96340136054422	84	127
218.96340136054422	219.0911111111111	82	127
218.96340136054422	219.20721088435374	46	127
218.96340136054422	219.35814058956916	74	127
218.96340136054422	219.35814058956916	62	127
219.0911111111111	219.20721088435374	77	127
219.20721088435374	219.24204081632652	76	127
219.20721088435374	219.35814058956916	58	127
219.24204081632652	219.35814058956916	79	127
219.35814058956916	219.45102040816326	76	127
219.35814058956916	219.45102040816326	64	127
219.35814058956916	219.45102040816326	82	127
219.35814058956916	219.5671201814059	55	127
219.45102040816326	219.5671201814059	76	127
219.45102040816326	219.5671201814059	64	127
219.45102040816326	219.5671201814059	85	127
219.5671201814059	219.68321995464854	84	127
219.5671201814059	219.79931972789115	75	127
219.5671201814059	219.79931972789115	63	127
219.5671201814059	219.79931972789115	56	127
219.68321995464854	219.79931972789115	75	127
219.79931972789115	219.92702947845805	74	127
219.79931972789115	219.92702947845805	71	127
219.79931972789115	219.92702947845805	80	127
219.79931972789115	220.0431292517007	53	127
219.92702947845805	220.0431292517007	74	127
219.92702947845805	220.0431292517007	71	127
219.92702947845805	220.0431292517007	83	127
220.0431292517007	220.1592290249433	82	127
220.0431292517007	220.27532879818594	73	127
220.0431292517007	220.27532879818594	70	127
220.0431292517007	220.27532879818594	54	127
220.1592290249433	220.27532879818594	73	127
220.27532879818594	220.40303854875285	72	127
220.27532879818594	220.40303854875285	69	127
220.27532879818594	220.40303854875285	78	127
220.27532879818594	220.51913832199546	51	127
220.40303854875285	220.51913832199546	72	127
220.40303854875285	220.51913832199546	69	127
220.40303854875285	220.51913832199546	81	127
220.51913832199546	220.62362811791382	80	127
220.51913832199546	220.73972789115646	71	127
220.51913832199546	220.73972789115646	69	127
220.51913832199546	220.73972789115646	52	127
220.62362811791382	220.73972789115646	71	127
220.73972789115646	220.86743764172334	70	127
220.73972789115646	220.86743764172334	67	127
220.73972789115646	220.86743764172334	76	127
220.73972789115646	220.9719274376417	49	127
220.86743764172334	220.9719274376417	70	127
220.86743764172334	220.9719274376417	67	127
220.86743764172334	220.9719274376417	79	127
220.9719274376417	221.08802721088435	78	127
220.9719274376417	221.204126984127	69	127
220.9719274376417	221.204126984127	66	127
220.9719274376417	221.204126984127	50	127
221.08802721088435	221.204126984127	69	127
221.204126984127	221.33183673469387	68	127
221.204126984127	221.33183673469387	65	127
221.204126984127	221.33183673469387	74	127
221.204126984127	221.41310657596372	47	127
221.33183673469387	221.41310657596372	68	127
221.33183673469387	221.41310657596372	65	127
221.33183673469387	221.41310657596372	77	127
221.41310657596372	221.52920634920636	76	127
221.41310657596372	221.6685260770975	67	127
221.41310657596372	221.6685260770975	63	127
221.41310657596372	221.6685260770975	48	127
221.52920634920636	221.6685260770975	67	127
221.6685260770975	221.77301587301588	68	127
221.6685260770975	221.77301587301588	65	127
221.6685260770975	221.77301587301588	74	127
221.6685260770975	221.88911564625852	47	127
221.77301587301588	221.88911564625852	68	127
221.77301587301588	221.88911564625852	65	127
221.77301587301588	221.88911564625852	77	127
221.88911564625852	222.0168253968254	76	127
221.88911564625852	222.1445351473923	67	127
221.88911564625852	222.1445351473923	63	127
221.88911564625852	222.1445351473923	48	127
222.0168253968254	222.1445351473923	67	127
222.1445351473923	222.2606349206349	68	127
222.1445351473923	222.2606349206349	65	127
222.1445351473923	222.2606349206349	74	127
222.1445351473923	222.37673469387755	47	127
222.2606349206349	222.37673469387755	68	127
222.2606349206349	222.37673469387755	65	127
222.2606349206349	222.37673469387755	77	127
222.37673469387755	222.45800453514738	76	127
222.37673469387755	222.57410430839002	67	127
222.37673469387755	222.57410430839002	64	127
222.37673469387755	222.57410430839002	48	127
222.45800453514738	222.57410430839002	67	127
222.57410430839002	222.66698412698412	68	127
222.57410430839002	222.66698412698412	65	127
222.57410430839002	222.66698412698412	74	127
222.57410430839002	222.7714739229025	47	127
222.66698412698412	222.7714739229025	68	127
222.66698412698412	222.7714739229025	65	127
222.66698412698412	222.7714739229025	77	127
222.7714739229025	222.88757369614513	76	127
222.7714739229025	223.015283446712	67	127
222.7714739229025	223.015283446712	64	127
222.7714739229025	223.015283446712	48	127
222.88757369614513	223.015283446712	67	127
223.015283446712	223.09655328798186	68	127
223.015283446712	223.09655328798186	65	127
223.015283446712	223.09655328798186	74	127
223.015283446712	223.20104308390023	47	127
223.09655328798186	223.20104308390023	68	127
223.09655328798186	223.20104308390023	65	127
223.09655328798186	223.20104308390023	77	127
223.20104308390023	223.31714285714287	64	127
223.20104308390023	223.31714285714287	76	127
223.20104308390023	223.44485260770975	67	127
223.20104308390023	223.44485260770975	48	127
223.31714285714287	223.44485260770975	60	127
223.44485260770975	223.5609523809524	55	127
223.5609523809524	223.67705215419502	52	127
223.67705215419502	223.92086167800454	48	127
223.79315192743763	223.83959183673468	84	127
223.92086167800454	223.95569160997732	84	127
224.16467120181406	224.2807709750567	86	127
224.16467120181406	225.1282993197279	53	127
224.16467120181406	227.4502947845805	56	127
224.16467120181406	227.4502947845805	59	127
224.2807709750567	224.42009070294785	83	127
224.42009070294785	224.53619047619048	80	127
224.53619047619048	224.6522902494331	77	127
224.6522902494331	224.89609977324264	74	127
224.89609977324264	224.93092970521542	74	127
225.01219954648525	225.05863945578233	74	127
225.1282993197279	225.24439909297053	76	127
225.1282993197279	226.37056689342404	52	127
225.24439909297053	225.3721088435374	71	127
225.3721088435374	225.47659863945577	68	127
225.47659863945577	225.63913832199546	66	127
225.63913832199546	226.02226757369615	64	127
226.02226757369615	226.17319727891157	88	127
226.2544671201814	226.30090702947845	88	127
226.37056689342404	226.48666666666668	89	127
226.37056689342404	227.4502947845805	50	127
226.48666666666668	226.62598639455783	86	127
226.62598639455783	226.74208616780047	83	127
226.74208616780047	226.85818594104308	81	127
226.85818594104308	227.18326530612245	80	127
227.18326530612245	227.2297052154195	79	127
227.33419501133787	227.38063492063492	79	127
227.4502947845805	227.56639455782312	80	127
227.4502947845805	228.41392290249433	53	127
227.4502947845805	228.41392290249433	59	127
227.4502947845805	228.41392290249433	49	127
227.56639455782312	227.69410430839002	77	127
227.69410430839002	227.81020408163266	73	127
227.81020408163266	227.92630385487527	72	127
227.92630385487527	228.17011337868482	71	127
228.17011337868482	228.28621315192743	89	127
228.28621315192743	228.41392290249433	89	127
228.41392290249433	228.53002267573697	88	127
228.41392290249433	228.90154195011337	60	127
228.41392290249433	229.38916099773243	48	127
228.41392290249433	229.38916099773243	52	127
228.53002267573697	228.66934240362812	84	127
228.66934240362812	228.78544217687076	79	127
228.78544217687076	228.90154195011337	77	127
228.90154195011337	229.15696145124716	76	127
228.90154195011337	229.38916099773243	55	127
229.15696145124716	229.2730612244898	77	127
229.2730612244898	229.38916099773243	77	127
229.38916099773243	229.50526077097507	78	127
229.38916099773243	230.37600907029477	57	127
229.38916099773243	230.37600907029477	47	127
229.38916099773243	230.37600907029477	51	127
229.50526077097507	229.63297052154195	75	127
229.63297052154195	229.7490702947846	71	127
229.7490702947846	229.8651700680272	70	127
229.8651700680272	230.10897959183674	69	127
230.10897959183674	230.2482993197279	87	127
230.2482993197279	230.37600907029477	87	127
230.37600907029477	230.51532879818595	86	127
230.37600907029477	230.86362811791383	58	127
230.37600907029477	231.38607709750568	46	127
230.37600907029477	231.38607709750568	50	127
230.51532879818595	230.63142857142856	82	127
230.63142857142856	230.7475283446712	79	127
230.7475283446712	230.86362811791383	77	127
230.86362811791383	231.11904761904762	75	127
230.86362811791383	231.38607709750568	53	127
231.11904761904762	231.25836734693877	77	127
231.25836734693877	231.38607709750568	77	127
231.38607709750568	231.51378684807256	79	127
231.38607709750568	234.0447619047619	49	127
231.38607709750568	234.0447619047619	55	127
231.38607709750568	234.0447619047619	45	127
231.38607709750568	234.0447619047619	52	127
231.51378684807256	231.6298866213152	76	127
231.6298866213152	231.74598639455783	73	127
231.6298866213152	231.74598639455783	90	127
231.74598639455783	231.86208616780044	69	127
231.74598639455783	231.86208616780044	90	127
231.86208616780044	232.00140589569162	67	127
231.86208616780044	232.00140589569162	91	127
232.00140589569162	232.11750566893423	69	127
232.00140589569162	232.11750566893423	88	127
232.11750566893423	232.23360544217687	73	127
232.11750566893423	232.23360544217687	85	127
232.23360544217687	232.3497052154195	76	127
232.23360544217687	232.3497052154195	81	127
232.3497052154195	232.47741496598638	79	127
232.47741496598638	232.59351473922902	76	127
232.47741496598638	232.59351473922902	81	127
232.59351473922902	232.70961451247166	73	127
232.59351473922902	232.70961451247166	85	127
232.70961451247166	232.8257142857143	69	127
232.70961451247166	232.8257142857143	88	127
232.8257142857143	232.95342403628118	67	127
232.8257142857143	232.95342403628118	91	127
232.95342403628118	233.06952380952382	69	127
232.95342403628118	233.06952380952382	88	127
233.06952380952382	233.18562358276645	73	127
233.06952380952382	233.18562358276645	85	127
233.18562358276645	233.30172335600906	76	127
233.18562358276645	233.30172335600906	81	127
233.30172335600906	233.42943310657597	79	127
233.42943310657597	233.55714285714285	76	127
233.42943310657597	233.55714285714285	81	127
233.55714285714285	233.6732426303855	73	127
233.55714285714285	233.6732426303855	85	127
233.6732426303855	233.78934240362813	69	127
233.6732426303855	233.78934240362813	88	127
233.78934240362813	233.92866213151927	91	127
233.78934240362813	234.27696145124716	67	127
233.92866213151927	234.0447619047619	88	127
234.0447619047619	234.16086167800452	85	127
234.16086167800452	234.27696145124716	81	127
235.8675283446712	235.98362811791384	91	127
235.98362811791384	236.09972789115648	91	127
236.09972789115648	236.22743764172336	90	127
236.09972789115648	239.94263038548752	54	127
236.09972789115648	239.94263038548752	45	127
236.09972789115648	239.94263038548752	38	127
236.22743764172336	236.51768707482992	86	127
236.51768707482992	236.73827664399093	81	127
236.51768707482992	236.56412698412697	62	127
236.73827664399093	236.78471655328798	62	127
236.73827664399093	238.0618140589569	79	127
238.0618140589569	239.59433106575963	62	127
238.0618140589569	239.94263038548752	78	127
239.59433106575963	239.71043083900227	66	127
239.71043083900227	239.8265306122449	69	127
239.8265306122449	239.94263038548752	72	127
240.18643990929706	240.2328798185941	79	127
240.30253968253967	240.34897959183672	79	127
240.4186394557823	240.54634920634922	80	127
240.54634920634922	240.801768707483	77	127
240.801768707483	240.8946485260771	67	127
240.801768707483	241.01074829931972	74	127
241.01074829931972	241.25455782312926	67	127
241.01074829931972	241.32421768707482	72	127
241.32421768707482	246.28167800453514	70	127
241.32421768707482	241.5564172335601	68	127
241.5564172335601	241.81183673469388	65	127
241.81183673469388	241.8698866213152	55	127
241.81183673469388	242.1833560090703	62	127
242.1833560090703	242.5897052154195	60	127
242.1833560090703	242.4619954648526	55	127
242.5897052154195	242.8451247165533	56	127
242.5897052154195	245.72439909297051	58	127
242.8451247165533	242.9612244897959	53	127
242.9612244897959	243.01927437641723	43	127
242.9612244897959	243.08893424036282	50	127
243.08893424036282	243.15859410430838	43	127
243.08893424036282	245.72439909297051	48	127
244.6678911564626	244.78399092970523	44	127
244.78399092970523	245.42253968253968	41	127
245.42253968253968	245.53863945578232	39	127
245.53863945578232	245.72439909297051	38	127
245.72439909297051	246.28167800453514	68	127
245.72439909297051	246.28167800453514	53	127
245.72439909297051	246.28167800453514	38	127
248.0231746031746	248.06961451247165	77	127
248.13927437641723	248.18571428571428	79	127
249.04485260770974	249.07968253968255	80	127
249.04485260770974	249.52086167800454	60	127
249.04485260770974	249.52086167800454	53	127
249.04485260770974	250.07814058956916	56	127
249.16095238095238	249.20739229024943	77	127
249.27705215419502	249.32349206349207	74	127
249.39315192743763	249.4395918367347	72	127
249.52086167800454	249.55569160997732	68	127
249.52086167800454	250.07814058956916	62	127
249.52086167800454	250.07814058956916	46	127
249.63696145124717	249.68340136054422	65	127
249.7878911564626	249.8459410430839	62	127
249.92721088435374	249.98526077097506	72	127
250.07814058956916	250.31034013605444	70	127
250.07814058956916	250.57736961451246	63	127
250.07814058956916	250.57736961451246	51	127
250.07814058956916	251.1694784580499	55	127
250.31034013605444	250.86761904761906	67	127
250.57736961451246	250.67024943310656	58	127
250.57736961451246	251.1694784580499	39	127
250.86761904761906	251.041768707483	58	127
250.86761904761906	251.041768707483	67	127
251.041768707483	251.1694784580499	61	127
251.041768707483	251.1694784580499	70	127
251.1694784580499	251.262358276644	60	127
251.1694784580499	251.262358276644	68	127
251.1694784580499	251.64548752834466	53	127
251.1694784580499	251.64548752834466	44	127
251.40167800453514	251.49455782312924	58	127
251.40167800453514	251.49455782312924	67	127
251.64548752834466	252.144716553288	56	127
251.64548752834466	252.144716553288	50	127
251.64548752834466	252.144716553288	65	127
251.64548752834466	252.144716553288	46	127
252.144716553288	252.41174603174602	51	127
252.144716553288	252.65555555555557	55	127
252.144716553288	252.89936507936508	39	127
252.144716553288	252.65555555555557	63	127
252.41174603174602	252.65555555555557	55	127
252.65555555555557	252.89936507936508	58	127
252.65555555555557	252.89936507936508	55	127
252.89936507936508	253.01546485260772	77	127
252.89936507936508	253.1431746031746	63	127
252.89936507936508	253.1431746031746	58	127
253.01546485260772	253.1431746031746	79	127
253.1431746031746	253.25927437641724	80	127
253.1431746031746	253.60757369614512	60	127
253.1431746031746	253.60757369614512	41	127
253.1431746031746	254.03714285714287	56	127
253.25927437641724	253.37537414965988	77	127
253.37537414965988	253.4914739229025	74	127
253.4914739229025	253.60757369614512	72	127
253.60757369614512	254.03714285714287	62	127
253.60757369614512	253.72367346938776	68	127
253.60757369614512	254.03714285714287	46	127
253.72367346938776	253.81655328798186	67	127
253.81655328798186	253.9326530612245	65	127
253.9326530612245	254.03714285714287	72	127
254.03714285714287	254.26934240362812	70	127
254.03714285714287	254.51315192743763	55	127
254.03714285714287	254.51315192743763	39	127
254.03714285714287	254.7453514739229	63	127
254.26934240362812	254.7453514739229	67	127
254.51315192743763	254.97755102040816	51	127
254.51315192743763	254.97755102040816	36	127
254.7453514739229	254.86145124716552	63	127
254.7453514739229	254.86145124716552	72	127
254.86145124716552	254.97755102040816	72	127
254.86145124716552	254.97755102040816	75	127
254.97755102040816	255.19814058956916	70	127
254.97755102040816	255.19814058956916	50	127
254.97755102040816	255.19814058956916	74	127
254.97755102040816	255.4303401360544	38	127
255.19814058956916	255.3142403628118	69	127
255.19814058956916	255.3142403628118	72	127
255.19814058956916	255.4303401360544	62	127
255.3142403628118	255.4303401360544	67	127
255.3142403628118	255.4303401360544	70	127
255.4303401360544	255.65092970521542	50	127
255.4303401360544	255.89473922902494	66	127
255.4303401360544	255.89473922902494	69	127
255.4303401360544	255.89473922902494	38	127
255.65092970521542	255.89473922902494	60	127
255.89473922902494	255.9760090702948	58	127
255.89473922902494	256.3475283446712	62	127
255.89473922902494	256.3475283446712	67	127
255.89473922902494	256.3475283446712	43	127
256.1037188208617	256.2314285714286	58	127
256.2314285714286	256.3475283446712	57	127
256.3475283446712	256.5797052154195	55	127
256.5797052154195	256.70743764172335	67	127
256.5797052154195	256.70743764172335	70	127
256.70743764172335	256.823537414966	68	127
256.70743764172335	256.823537414966	72	127
256.823537414966	256.9396371882086	73	127
256.823537414966	257.05573696145126	70	127
256.823537414966	257.05573696145126	36	127
256.9396371882086	257.05573696145126	70	127
257.05573696145126	257.18344671201817	67	127
257.05573696145126	257.4968934240363	70	127
257.18344671201817	257.264716553288	65	127
257.264716553288	257.38081632653063	64	127
257.264716553288	257.4968934240363	48	127
257.38081632653063	257.4968934240363	65	127
257.4968934240363	257.6246258503401	58	127
257.4968934240363	257.6246258503401	67	127
257.4968934240363	257.75233560090703	64	127
257.6246258503401	257.75233560090703	60	127
257.6246258503401	257.75233560090703	68	127
257.75233560090703	257.86843537414967	61	127
257.75233560090703	257.9961451247166	67	127
257.75233560090703	257.9961451247166	70	127
257.75233560090703	257.9961451247166	41	127
257.86843537414967	257.9961451247166	60	127
257.9961451247166	258.1238548752834	56	127
257.9961451247166	258.3908843537415	65	127
257.9961451247166	258.3908843537415	68	127
258.1238548752834	258.2051247165533	55	127
258.2051247165533	258.2747845804989	53	127
258.2747845804989	258.3908843537415	55	127
258.3908843537415	258.43732426303853	70	127
258.3908843537415	258.5185714285714	67	127
258.3908843537415	258.5185714285714	56	127
258.3908843537415	258.634693877551	53	127
258.5185714285714	258.55342403628117	72	127
258.5185714285714	258.634693877551	68	127
258.5185714285714	258.634693877551	60	127
258.634693877551	258.75079365079364	73	127
258.634693877551	258.8668934240363	70	127
258.634693877551	258.8668934240363	52	127
258.634693877551	258.8668934240363	36	127
258.75079365079364	258.8668934240363	70	127
258.8668934240363	258.97138321995465	67	127
258.8668934240363	259.2732426303855	70	127
258.97138321995465	259.0410430839002	65	127
259.0410430839002	259.15714285714284	64	127
259.0410430839002	259.2732426303855	48	127
259.15714285714284	259.2732426303855	65	127
259.2732426303855	259.4009523809524	58	127
259.2732426303855	259.4009523809524	67	127
259.2732426303855	259.517052154195	64	127
259.4009523809524	259.517052154195	60	127
259.4009523809524	259.517052154195	68	127
259.517052154195	259.6099319727891	61	127
259.517052154195	259.69120181405896	67	127
259.517052154195	259.69120181405896	70	127
259.517052154195	259.69120181405896	41	127
259.6099319727891	259.69120181405896	60	127
259.69120181405896	259.81891156462586	56	127
259.69120181405896	260.14399092970524	65	127
259.69120181405896	260.14399092970524	68	127
259.81891156462586	259.9350113378685	55	127
259.9350113378685	260.0278911564626	53	127
260.0278911564626	260.14399092970524	55	127
260.14399092970524	260.23687074829934	65	127
260.14399092970524	260.23687074829934	56	127
260.14399092970524	260.23687074829934	68	127
260.14399092970524	260.352970521542	53	127
260.23687074829934	260.352970521542	67	127
260.23687074829934	260.352970521542	60	127
260.23687074829934	260.352970521542	70	127
260.352970521542	260.4690476190476	71	127
260.352970521542	260.5619274376417	68	127
260.352970521542	260.5619274376417	50	127
260.352970521542	260.5619274376417	46	127
260.4690476190476	260.5619274376417	68	127
260.5619274376417	260.6780498866213	65	127
260.5619274376417	260.8173696145125	68	127
260.6780498866213	260.7593197278912	63	127
260.7593197278912	260.8173696145125	58	127
260.7593197278912	260.8173696145125	63	127
260.8173696145125	260.9334693877551	56	127
260.8173696145125	260.9334693877551	65	127
260.8173696145125	261.04956916099775	62	127
260.9334693877551	261.04956916099775	58	127
260.9334693877551	261.04956916099775	67	127
261.04956916099775	261.1656689342404	59	127
261.04956916099775	261.3165986394558	65	127
261.04956916099775	261.3165986394558	68	127
261.04956916099775	261.3165986394558	51	127
261.1656689342404	261.3165986394558	58	127
261.3165986394558	261.4443083900227	55	127
261.3165986394558	261.76938775510206	63	127
261.3165986394558	261.76938775510206	67	127
261.4443083900227	261.5371882086168	53	127
261.5371882086168	261.64167800453515	51	127
261.64167800453515	261.76938775510206	53	127
261.76938775510206	261.8854875283447	65	127
261.76938775510206	261.8854875283447	55	127
261.76938775510206	261.8854875283447	68	127
261.76938775510206	262.00156462585034	51	127
261.8854875283447	262.00156462585034	67	127
261.8854875283447	262.00156462585034	58	127
261.8854875283447	262.00156462585034	70	127
262.00156462585034	262.1176870748299	71	127
262.00156462585034	262.23378684807255	68	127
262.00156462585034	262.23378684807255	50	127
262.00156462585034	262.23378684807255	46	127
262.1176870748299	262.23378684807255	68	127
262.23378684807255	262.32666666666665	65	127
262.23378684807255	262.5356462585034	68	127
262.32666666666665	262.431156462585	63	127
262.431156462585	262.48920634920637	62	127
262.48920634920637	262.5356462585034	63	127
262.5356462585034	262.65174603174603	56	127
262.5356462585034	262.65174603174603	65	127
262.5356462585034	262.76784580498867	62	127
262.5356462585034	262.76784580498867	46	127
262.65174603174603	262.76784580498867	58	127
262.65174603174603	262.76784580498867	67	127
262.76784580498867	262.8839455782313	59	127
262.76784580498867	263.0116553287982	65	127
262.76784580498867	263.0116553287982	68	127
262.76784580498867	263.0116553287982	51	127
262.8839455782313	263.0116553287982	58	127
263.0116553287982	263.13936507936506	55	127
263.0116553287982	263.4760544217687	63	127
263.0116553287982	263.4760544217687	67	127
263.13936507936506	263.24385487528343	53	127
263.24385487528343	263.3483446712018	51	127
263.3483446712018	263.4760544217687	53	127
263.4760544217687	263.59215419501135	65	127
263.4760544217687	263.59215419501135	55	127
263.4760544217687	263.59215419501135	68	127
263.4760544217687	263.708253968254	51	127
263.59215419501135	263.708253968254	67	127
263.59215419501135	263.708253968254	58	127
263.59215419501135	263.708253968254	70	127
263.708253968254	263.8243537414966	68	127
263.708253968254	263.8243537414966	50	127
263.708253968254	263.8243537414966	71	127
263.708253968254	263.9520634920635	46	127
263.8243537414966	263.9520634920635	67	127
263.8243537414966	263.9520634920635	51	127
263.8243537414966	263.9520634920635	70	127
263.9520634920635	264.0681632653061	65	127
263.9520634920635	264.0681632653061	53	127
263.9520634920635	264.0681632653061	68	127
264.0681632653061	264.18426303854875	56	127
264.0681632653061	264.18426303854875	65	127
264.18426303854875	264.3003628117914	59	127
264.18426303854875	264.3003628117914	62	127
264.3003628117914	264.4280725623583	56	127
264.3003628117914	264.4280725623583	65	127
264.4280725623583	264.5557596371882	65	127
264.4280725623583	264.5557596371882	53	127
264.4280725623583	264.5557596371882	68	127
264.4280725623583	264.6718820861678	46	127
264.5557596371882	264.6718820861678	67	127
264.5557596371882	264.6718820861678	51	127
264.5557596371882	264.6718820861678	70	127
264.6718820861678	264.7879818594104	68	127
264.6718820861678	264.7879818594104	50	127
264.6718820861678	264.7879818594104	71	127
264.6718820861678	264.91569160997733	46	127
264.7879818594104	264.91569160997733	67	127
264.7879818594104	264.91569160997733	51	127
264.7879818594104	264.91569160997733	70	127
264.91569160997733	265.00857142857143	65	127
264.91569160997733	265.00857142857143	53	127
264.91569160997733	265.00857142857143	68	127
265.00857142857143	265.12467120181407	56	127
265.00857142857143	265.12467120181407	65	127
265.12467120181407	265.2407709750567	59	127
265.12467120181407	265.2407709750567	62	127
265.2407709750567	265.3684580498866	56	127
265.2407709750567	265.3684580498866	65	127
265.3684580498866	265.4845804988662	65	127
265.3684580498866	265.4845804988662	53	127
265.3684580498866	265.4845804988662	68	127
265.3684580498866	265.60068027210883	46	127
265.4845804988662	265.60068027210883	67	127
265.4845804988662	265.60068027210883	51	127
265.4845804988662	265.60068027210883	70	127
265.60068027210883	265.74	68	127
265.60068027210883	265.74	50	127
265.60068027210883	265.74	71	127
265.60068027210883	265.8677097505669	46	127
265.74	265.8677097505669	67	127
265.74	265.8677097505669	51	127
265.74	265.8677097505669	70	127
265.8677097505669	265.98378684807255	65	127
265.8677097505669	265.98378684807255	53	127
265.8677097505669	265.98378684807255	68	127
265.98378684807255	266.09990929705214	62	127
265.98378684807255	266.09990929705214	56	127
265.98378684807255	266.09990929705214	65	127
266.09990929705214	266.2160090702948	68	127
266.09990929705214	266.2160090702948	50	127
266.09990929705214	266.2160090702948	71	127
266.09990929705214	266.35532879818595	46	127
266.2160090702948	266.35532879818595	67	127
266.2160090702948	266.35532879818595	51	127
266.2160090702948	266.35532879818595	70	127
266.35532879818595	266.4714285714286	65	127
266.35532879818595	266.4714285714286	53	127
266.35532879818595	266.4714285714286	68	127
266.4714285714286	266.5875283446712	62	127
266.4714285714286	266.5875283446712	56	127
266.4714285714286	266.5875283446712	65	127
266.5875283446712	266.70360544217687	68	127
266.5875283446712	266.70360544217687	50	127
266.5875283446712	266.70360544217687	71	127
266.5875283446712	266.8313378684807	46	127
266.70360544217687	266.8313378684807	67	127
266.70360544217687	266.8313378684807	51	127
266.70360544217687	266.8313378684807	70	127
266.8313378684807	266.9358276643991	65	127
266.8313378684807	266.9358276643991	53	127
266.8313378684807	266.9358276643991	68	127
266.9358276643991	267.0519274376417	62	127
266.9358276643991	267.0519274376417	56	127
266.9358276643991	267.0519274376417	65	127
267.0519274376417	267.16802721088436	68	127
267.0519274376417	267.16802721088436	50	127
267.0519274376417	267.16802721088436	71	127
267.0519274376417	267.29573696145127	46	127
267.16802721088436	267.29573696145127	67	127
267.16802721088436	267.29573696145127	51	127
267.16802721088436	267.29573696145127	70	127
267.29573696145127	267.4234240362812	65	127
267.29573696145127	267.4234240362812	53	127
267.29573696145127	267.4234240362812	68	127
267.4234240362812	267.53954648526076	62	127
267.4234240362812	267.53954648526076	56	127
267.4234240362812	267.53954648526076	65	127
267.53954648526076	267.99233560090704	68	127
267.53954648526076	267.99233560090704	50	127
267.53954648526076	267.99233560090704	71	127
267.53954648526076	267.99233560090704	46	127
267.99233560090704	269.5480725623583	70	127
267.99233560090704	269.66414965986394	62	127
267.99233560090704	269.66414965986394	56	127
267.99233560090704	269.66414965986394	53	127
269.5480725623583	269.66414965986394	72	127
269.66414965986394	269.7802721088435	70	127
269.7802721088435	269.89637188208616	69	127
269.89637188208616	270.02408163265306	70	127
270.02408163265306	270.1401814058957	72	127
270.1401814058957	270.25628117913834	74	127
270.25628117913834	270.372380952381	75	127
270.372380952381	270.50009070294783	77	127
270.50009070294783	270.61619047619047	75	127
270.61619047619047	270.72068027210884	74	127
270.72068027210884	270.8367800453515	72	127
270.8367800453515	270.9528798185941	74	127
270.9528798185941	271.06897959183675	75	127
271.06897959183675	271.1850793650794	65	127
271.06897959183675	271.1850793650794	77	127
271.1850793650794	271.301156462585	67	127
271.1850793650794	271.301156462585	79	127
271.301156462585	271.3940589569161	41	127
271.301156462585	271.7771882086168	80	127
271.301156462585	271.7771882086168	72	127
271.301156462585	271.4288888888889	68	127
271.4288888888889	271.5449886621315	65	127
271.5449886621315	271.6378684807256	53	127
271.5449886621315	271.66108843537415	62	127
271.66108843537415	271.7771882086168	60	127
271.7771882086168	271.8700680272109	46	127
271.7771882086168	271.9048979591837	56	127
271.7771882086168	272.25319727891156	82	127
271.7771882086168	272.02097505668934	74	127
271.9048979591837	272.02097505668934	55	127
272.02097505668934	272.11385487528344	50	127
272.02097505668934	272.25319727891156	77	127
272.02097505668934	272.1370975056689	53	127
272.1370975056689	272.25319727891156	60	127
272.25319727891156	272.34607709750566	39	127
272.25319727891156	272.4970068027211	75	127
272.25319727891156	272.4970068027211	58	127
272.25319727891156	272.7291836734694	79	127
272.4970068027211	272.5898866213152	51	127
272.4970068027211	272.97301587301587	55	127
272.4970068027211	272.7291836734694	70	127
272.7291836734694	272.8220861678005	46	127
272.7291836734694	273.4722448979592	87	127
272.7291836734694	272.97301587301587	67	127
272.97301587301587	273.06589569160997	43	127
272.97301587301587	273.2168253968254	63	127
272.97301587301587	273.01945578231295	55	127
273.0891156462585	273.1355555555556	58	127
273.2168253968254	273.4722448979592	60	127
273.2168253968254	273.33292517006805	56	127
273.2168253968254	273.33292517006805	41	127
273.4722448979592	273.56512471655327	55	127
273.4722448979592	273.56512471655327	46	127
273.4722448979592	273.73927437641726	82	127
273.4722448979592	273.73927437641726	62	127
273.73927437641726	273.8437641723356	38	127
273.73927437641726	273.98308390022675	80	127
273.73927437641726	274.14562358276646	53	127
273.73927437641726	273.98308390022675	65	127
273.98308390022675	274.05274376417236	63	127
273.98308390022675	274.05274376417236	79	127
273.98308390022675	274.05274376417236	46	127
274.05274376417236	274.14562358276646	62	127
274.05274376417236	274.14562358276646	77	127
274.14562358276646	274.2268934240363	39	127
274.14562358276646	274.3546031746032	63	127
274.14562358276646	274.3546031746032	75	127
274.14562358276646	274.5751700680272	55	127
274.3546031746032	274.78414965986394	70	127
274.3546031746032	274.5751700680272	65	127
274.3546031746032	274.435873015873	46	127
274.5751700680272	274.64485260770977	43	127
274.5751700680272	274.78414965986394	67	127
274.78414965986394	274.83061224489796	55	127
274.78414965986394	274.87702947845804	39	127
274.78414965986394	275.01637188208616	70	127
274.9002721088435	274.9467120181406	58	127
275.01637188208616	275.12086167800453	56	127
275.01637188208616	275.27179138322	60	127
275.01637188208616	275.12086167800453	41	127
275.27179138322	275.3646712018141	55	127
275.27179138322	275.3646712018141	46	127
275.27179138322	275.5039909297052	62	127
275.5039909297052	275.60848072562356	38	127
275.5039909297052	275.7245804988662	65	127
275.5039909297052	275.93356009070294	53	127
275.7245804988662	275.7710204081633	68	127
275.7245804988662	275.8174603174603	46	127
275.7245804988662	275.84068027210884	63	127
275.84068027210884	275.87551020408165	72	127
275.84068027210884	275.93356009070294	62	127
275.93356009070294	276.02643990929704	39	127
275.93356009070294	276.0496598639456	55	127
275.93356009070294	276.02643990929704	70	127
275.93356009070294	276.1425396825397	63	127
276.0496598639456	276.1425396825397	56	127
276.1425396825397	276.2354195011338	46	127
276.1425396825397	276.3631292517007	65	127
276.1425396825397	276.2586394557823	55	127
276.1425396825397	276.2354195011338	68	127
276.2586394557823	276.3631292517007	53	127
276.3631292517007	276.56049886621315	58	127
276.3631292517007	276.8043083900227	67	127
276.3631292517007	276.4443990929705	39	127
276.3631292517007	276.46761904761905	51	127
276.46761904761905	276.56049886621315	53	127
276.56049886621315	276.65337868480725	46	127
276.56049886621315	276.6765986394558	55	127
276.56049886621315	276.8043083900227	70	127
276.6765986394558	276.8043083900227	58	127
276.8043083900227	276.8855782312925	41	127
276.8043083900227	276.8855782312925	56	127
276.8043083900227	277.0248752834467	60	127
277.0248752834467	277.1177777777778	55	127
277.0248752834467	277.1177777777778	46	127
277.0248752834467	277.23385487528344	62	127
277.23385487528344	277.303537414966	38	127
277.23385487528344	277.40802721088437	65	127
277.23385487528344	277.6286167800454	53	127
277.40802721088437	277.50090702947847	46	127
277.40802721088437	277.524126984127	63	127
277.40802721088437	277.4544671201814	68	127
277.524126984127	277.57056689342403	72	127
277.524126984127	277.6286167800454	62	127
277.6286167800454	277.7214965986395	70	127
277.6286167800454	277.7214965986395	39	127
277.6286167800454	277.744693877551	55	127
277.6286167800454	277.82598639455784	63	127
277.744693877551	277.82598639455784	56	127
277.82598639455784	277.91886621315194	68	127
277.82598639455784	277.91886621315194	46	127
277.82598639455784	277.9420634920635	55	127
277.82598639455784	278.05818594104306	65	127
277.9420634920635	278.05818594104306	53	127
278.05818594104306	278.16267573696143	67	127
278.05818594104306	278.16267573696143	39	127
278.05818594104306	278.3019954648526	58	127
278.05818594104306	278.3019954648526	51	127
278.3019954648526	278.3484353741497	84	127
278.3019954648526	278.3484353741497	75	127
278.41809523809525	278.4645124716553	87	127
278.41809523809525	278.4645124716553	79	127
278.54580498866216	278.7083446712018	77	127
278.54580498866216	278.7083446712018	46	127
278.54580498866216	278.5922448979592	51	127
278.54580498866216	278.56902494331064	85	127
278.5922448979592	278.7083446712018	55	127
278.7083446712018	278.82444444444445	61	127
278.7083446712018	278.8012244897959	84	127
278.7083446712018	278.95215419501136	75	127
278.82444444444445	278.95215419501136	55	127
278.95215419501136	279.1843537414966	39	127
278.95215419501136	279.1843537414966	73	127
278.95215419501136	279.068231292517	51	127
278.95215419501136	279.3933333333333	82	127
279.068231292517	279.1843537414966	55	127
279.1843537414966	279.3933333333333	75	127
279.1843537414966	279.28884353741495	61	127
279.28884353741495	279.3933333333333	55	127
279.3933333333333	279.4397732426304	51	127
279.3933333333333	279.4397732426304	84	127
279.3933333333333	279.55587301587303	44	127
279.3933333333333	279.55587301587303	72	127
279.4397732426304	279.55587301587303	56	127
279.4397732426304	279.55587301587303	85	127
279.55587301587303	279.64875283446713	60	127
279.55587301587303	279.64875283446713	84	127
279.55587301587303	279.77646258503404	75	127
279.64875283446713	279.77646258503404	82	127
279.64875283446713	279.77646258503404	56	127
279.77646258503404	279.99702947845805	48	127
279.77646258503404	279.8809523809524	80	127
279.77646258503404	279.99702947845805	72	127
279.77646258503404	279.8809523809524	51	127
279.8809523809524	279.99702947845805	82	127
279.8809523809524	279.99702947845805	56	127
279.99702947845805	280.1131519274376	60	127
279.99702947845805	280.24086167800453	68	127
279.99702947845805	280.1131519274376	84	127
280.1131519274376	280.24086167800453	87	127
280.1131519274376	280.24086167800453	56	127
280.24086167800453	280.46145124716554	77	127
280.24086167800453	280.3569614512472	51	127
280.24086167800453	280.46145124716554	46	127
280.24086167800453	280.33374149659863	85	127
280.3569614512472	280.46145124716554	55	127
280.46145124716554	280.68204081632655	75	127
280.46145124716554	280.55433106575964	84	127
280.46145124716554	280.5775510204082	61	127
280.5775510204082	280.68204081632655	55	127
280.68204081632655	280.7981405895692	51	127
280.68204081632655	280.9142176870748	73	127
280.68204081632655	280.9142176870748	39	127
280.68204081632655	281.12319727891156	82	127
280.7981405895692	280.9142176870748	55	127
280.9142176870748	281.0303401360544	61	127
280.9142176870748	281.12319727891156	75	127
281.0303401360544	281.12319727891156	55	127
281.12319727891156	281.3554195011338	72	127
281.12319727891156	281.23931972789114	84	127
281.12319727891156	281.3554195011338	44	127
281.12319727891156	281.23931972789114	51	127
281.23931972789114	281.3554195011338	56	127
281.23931972789114	281.3554195011338	85	127
281.3554195011338	281.4715192743764	60	127
281.3554195011338	281.5992290249433	75	127
281.3554195011338	281.4715192743764	84	127
281.4715192743764	281.5992290249433	82	127
281.4715192743764	281.5992290249433	56	127
281.5992290249433	281.8314058956916	72	127
281.5992290249433	281.71532879818596	80	127
281.5992290249433	281.8314058956916	44	127
281.5992290249433	281.8314058956916	51	127
281.71532879818596	281.8314058956916	84	127
281.8314058956916	281.93589569160997	89	127
281.8314058956916	281.93589569160997	80	127
281.93589569160997	282.04038548752834	82	127
281.93589569160997	282.04038548752834	91	127
282.04038548752834	282.27260770975056	60	127
282.04038548752834	282.27260770975056	41	127
282.04038548752834	282.1565079365079	84	127
282.04038548752834	282.1565079365079	92	127
282.1565079365079	282.27260770975056	89	127
282.1565079365079	282.27260770975056	80	127
282.27260770975056	282.5164172335601	56	127
282.27260770975056	282.3887074829932	86	127
282.27260770975056	282.3887074829932	77	127
282.27260770975056	282.5164172335601	53	127
282.3887074829932	282.5164172335601	84	127
282.3887074829932	282.5164172335601	75	127
282.5164172335601	282.7485941043084	43	127
282.5164172335601	282.63251700680274	74	127
282.5164172335601	282.63251700680274	83	127
282.5164172335601	282.7485941043084	65	127
282.63251700680274	282.7485941043084	72	127
282.63251700680274	282.7485941043084	80	127
282.7485941043084	282.86471655328796	71	127
282.7485941043084	282.99242630385487	55	127
282.7485941043084	282.99242630385487	62	127
282.7485941043084	282.86471655328796	79	127
282.7485941043084	282.99242630385487	59	127
282.86471655328796	282.99242630385487	80	127
282.86471655328796	282.99242630385487	89	127
282.99242630385487	283.2130158730159	60	127
282.99242630385487	283.2130158730159	63	127
282.99242630385487	283.0736961451247	48	127
282.99242630385487	283.4336054421769	79	127
282.99242630385487	283.2130158730159	87	127
283.2130158730159	283.66580498866216	84	127
283.2130158730159	283.66580498866216	48	127
283.2130158730159	283.2942857142857	60	127
283.2130158730159	283.66580498866216	60	127
283.4336054421769	283.90961451247165	40	127
283.4336054421769	283.66580498866216	72	127
283.66580498866216	284.1418140589569	60	127
283.66580498866216	284.1418140589569	48	127
283.66580498866216	283.793514739229	79	127
283.66580498866216	284.1418140589569	84	127
283.793514739229	283.90961451247165	82	127
283.90961451247165	284.1418140589569	80	127
283.90961451247165	284.1418140589569	41	127
284.1418140589569	284.5597732426304	77	127
284.1418140589569	284.5597732426304	48	127
284.1418140589569	284.5597732426304	60	127
284.1418140589569	284.26952380952383	83	127
284.26952380952383	284.3275736961451	85	127
284.3275736961451	285.03578231292516	84	127
284.3275736961451	284.80356009070294	40	127
284.5597732426304	285.03578231292516	48	127
284.5597732426304	285.03578231292516	60	127
284.5597732426304	284.6874829931973	79	127
284.6874829931973	284.80356009070294	82	127
284.80356009070294	285.03578231292516	41	127
284.80356009070294	285.03578231292516	80	127
285.03578231292516	285.5001814058957	48	127
285.03578231292516	285.5001814058957	60	127
285.03578231292516	285.5001814058957	77	127
285.03578231292516	285.1634920634921	83	127
285.1634920634921	285.2795918367347	85	127
285.2795918367347	285.9761904761905	84	127
285.2795918367347	285.7439909297052	40	127
285.5001814058957	285.9761904761905	48	127
285.5001814058957	285.9761904761905	60	127
285.5001814058957	285.62789115646257	79	127
285.62789115646257	285.7439909297052	82	127
285.7439909297052	285.9761904761905	80	127
285.7439909297052	285.9761904761905	41	127
285.9761904761905	286.1039002267574	83	127
286.1039002267574	286.22	85	127
286.22	286.3477097505669	84	127
286.3477097505669	286.4754195011338	79	127
286.4754195011338	286.5915192743764	82	127
286.5915192743764	286.76566893424035	80	127
286.76566893424035	286.89337868480726	76	127
286.89337868480726	286.99786848072563	79	127
286.99786848072563	287.70607709750567	77	127
286.99786848072563	287.70607709750567	65	127
287.2300680272109	287.3577551020408	59	127
287.2300680272109	287.3577551020408	71	127
287.3577551020408	287.4738775510204	61	127
287.3577551020408	287.4738775510204	73	127
287.4738775510204	287.70607709750567	72	127
287.4738775510204	287.70607709750567	60	127
287.70607709750567	287.8337868480726	67	127
287.70607709750567	287.8337868480726	55	127
287.8337868480726	287.9498866213152	58	127
287.8337868480726	287.9498866213152	70	127
287.9498866213152	288.18208616780043	56	127
287.9498866213152	288.18208616780043	68	127
288.18208616780043	288.30979591836734	52	127
288.18208616780043	288.30979591836734	64	127
288.18208616780043	288.65809523809526	60	127
288.18208616780043	288.65809523809526	72	127
288.30979591836734	288.4142857142857	67	127
288.30979591836734	288.4142857142857	55	127
288.4142857142857	288.65809523809526	65	127
288.4142857142857	288.65809523809526	53	127
288.65809523809526	289.1457142857143	55	127
288.65809523809526	289.1457142857143	67	127
288.65809523809526	288.78578231292516	62	127
288.65809523809526	288.78578231292516	47	127
288.78578231292516	288.90190476190475	50	127
288.78578231292516	288.90190476190475	65	127
288.90190476190475	289.1457142857143	48	127
288.90190476190475	289.1457142857143	63	127
289.1457142857143	289.6449433106576	55	127
289.1457142857143	289.6449433106576	67	127
289.1457142857143	289.28503401360547	47	127
289.1457142857143	289.28503401360547	62	127
289.28503401360547	289.4011111111111	65	127
289.28503401360547	289.4011111111111	50	127
289.4011111111111	289.6449433106576	48	127
289.4011111111111	289.6449433106576	63	127
289.6449433106576	289.7726530612245	47	127
289.6449433106576	290.29510204081635	55	127
289.6449433106576	290.29510204081635	67	127
289.6449433106576	289.7726530612245	62	127
289.7726530612245	289.88875283446714	65	127
289.7726530612245	289.88875283446714	50	127
289.88875283446714	290.29510204081635	48	127
289.88875283446714	290.29510204081635	63	127
290.29510204081635	290.43442176870747	62	127
290.29510204081635	290.43442176870747	47	127
290.29510204081635	290.6434013605442	55	127
290.29510204081635	290.5505215419501	67	127
290.43442176870747	290.5505215419501	65	127
290.43442176870747	290.5505215419501	50	127
290.5505215419501	290.6434013605442	63	127
290.5505215419501	291.1426303854875	67	127
290.5505215419501	290.8756009070295	48	127
290.8756009070295	290.9917006802721	63	127
290.8756009070295	290.9917006802721	55	127
290.8756009070295	291.1426303854875	50	127
291.1426303854875	291.43287981859413	51	127
291.1426303854875	291.6766893424036	72	127
291.43287981859413	291.560589569161	50	127
291.43287981859413	291.5373696145125	67	127
291.43287981859413	291.5373696145125	63	127
291.560589569161	291.6766893424036	48	127
291.6766893424036	292.15267573696144	50	127
291.6766893424036	292.15267573696144	70	127
291.92049886621317	292.4081179138322	58	127
291.92049886621317	292.15267573696144	65	127
292.15267573696144	292.6867573696145	67	127
292.15267573696144	292.6867573696145	55	127
292.15267573696144	292.4081179138322	62	127
292.4081179138322	292.5009977324263	58	127
292.4081179138322	292.6867573696145	62	127
292.6867573696145	293.2672562358277	63	127
292.6867573696145	293.2672562358277	48	127
292.9769841269841	293.2672562358277	58	127
292.9769841269841	293.2672562358277	58	127
293.2672562358277	293.8477551020408	50	127
293.2672562358277	293.5342857142857	65	127
293.5342857142857	293.8477551020408	65	127
293.5342857142857	293.8477551020408	68	127
293.5342857142857	293.8477551020408	58	127
293.8477551020408	294.4166439909297	67	127
293.8477551020408	294.4166439909297	46	127
294.11478458049885	294.4166439909297	58	127
294.11478458049885	294.4166439909297	62	127
294.4166439909297	294.7184807256236	58	127
294.4166439909297	294.9855328798186	63	127
294.4166439909297	294.9855328798186	43	127
294.4166439909297	294.7184807256236	55	127
294.7184807256236	294.84621315192743	58	127
294.7184807256236	294.84621315192743	55	127
294.9855328798186	295.46154195011337	65	127
294.9855328798186	295.22931972789115	41	127
295.22931972789115	295.46154195011337	56	127
295.22931972789115	295.46154195011337	60	127
295.22931972789115	295.46154195011337	43	127
295.46154195011337	295.9839909297052	72	127
295.46154195011337	295.7053514739229	44	127
295.7053514739229	295.8678911564626	43	127
295.7053514739229	295.9839909297052	65	127
295.7053514739229	295.9839909297052	56	127
295.8678911564626	295.9839909297052	41	127
295.9839909297052	296.47160997732425	71	127
295.9839909297052	296.47160997732425	43	127
296.22780045351476	296.47160997732425	62	127
296.22780045351476	296.47160997732425	59	127
296.47160997732425	296.95920634920634	48	127
296.47160997732425	296.72702947845806	67	127
296.47160997732425	296.72702947845806	63	127
296.47160997732425	296.95920634920634	75	127
296.72702947845806	296.81990929705216	63	127
296.72702947845806	296.81990929705216	67	127
296.95920634920634	297.20303854875283	74	127
296.95920634920634	297.4352380952381	41	127
297.20303854875283	297.4352380952381	68	127
297.20303854875283	297.4352380952381	63	127
297.20303854875283	297.4352380952381	72	127
297.4352380952381	297.91124716553287	71	127
297.4352380952381	297.91124716553287	43	127
297.67902494331065	297.91124716553287	62	127
297.67902494331065	297.91124716553287	65	127
297.91124716553287	298.39884353741496	39	127
297.91124716553287	299.87333333333333	72	127
298.1666666666667	298.39884353741496	63	127
298.1666666666667	298.39884353741496	67	127
298.39884353741496	298.64267573696145	62	127
298.39884353741496	298.886485260771	36	127
298.39884353741496	298.64267573696145	65	127
298.64267573696145	298.73555555555555	63	127
298.64267573696145	298.73555555555555	60	127
298.886485260771	299.6178911564626	72	127
299.6178911564626	299.87333333333333	74	127
299.87333333333333	300.12873015873015	75	127
299.87333333333333	300.8950113378685	79	127
300.12873015873015	300.24485260770973	74	127
300.24485260770973	300.37256235827664	72	127
300.37256235827664	300.8950113378685	74	127
300.8950113378685	301.4290702947846	74	127
300.8950113378685	301.4290702947846	79	127
301.4290702947846	301.6728798185941	77	127
301.4290702947846	301.90507936507936	72	127
301.6728798185941	301.90507936507936	80	127
301.90507936507936	302.3926984126984	74	127
301.90507936507936	302.1604988662132	79	127
302.1604988662132	302.3926984126984	77	127
302.3926984126984	302.682925170068	75	127
302.3926984126984	302.9267573696145	70	127
302.682925170068	302.9267573696145	77	127
302.9267573696145	303.4259863945578	67	127
302.9267573696145	303.1937641723356	79	127
303.1937641723356	303.3098866213152	80	127
303.3098866213152	303.4259863945578	82	127
303.4259863945578	303.70460317460316	65	127
303.4259863945578	303.70460317460316	80	127
303.70460317460316	303.94843537414965	79	127
303.70460317460316	303.94843537414965	67	127
303.94843537414965	304.18063492063493	77	127
303.94843537414965	304.18063492063493	68	127
304.18063492063493	304.66825396825396	84	127
304.18063492063493	304.29673469387757	67	127
304.29673469387757	304.4128344671202	65	127
304.4128344671202	304.90045351473924	67	127
304.66825396825396	304.7843537414966	82	127
304.7843537414966	304.90045351473924	80	127
304.90045351473924	305.4460997732426	51	127
304.90045351473924	305.4460997732426	72	127
304.90045351473924	305.4460997732426	79	127
305.4460997732426	305.7595691609977	77	127
305.4460997732426	305.7595691609977	56	127
305.4460997732426	306.0034013605442	65	127
305.7595691609977	306.0034013605442	72	127
305.7595691609977	306.0034013605442	60	127
306.0034013605442	306.24721088435376	58	127
306.0034013605442	306.5026303854875	67	127
306.0034013605442	306.24721088435376	79	127
306.24721088435376	306.5026303854875	62	127
306.24721088435376	306.5026303854875	74	127
306.5026303854875	306.8160997732426	58	127
306.5026303854875	306.8160997732426	75	127
306.5026303854875	307.0482993197279	63	127
306.8160997732426	307.0482993197279	63	127
306.8160997732426	307.0482993197279	70	127
307.0482993197279	307.52430839002267	58	127
307.0482993197279	307.29208616780045	55	127
307.0482993197279	307.29208616780045	82	127
307.29208616780045	307.52430839002267	51	127
307.29208616780045	307.52430839002267	79	127
307.52430839002267	307.7681179138322	77	127
307.52430839002267	307.7681179138322	56	127
307.52430839002267	308.0119274376417	65	127
307.7681179138322	308.0119274376417	60	127
307.7681179138322	308.0119274376417	72	127
308.0119274376417	308.244126984127	79	127
308.0119274376417	308.4879365079365	67	127
308.0119274376417	308.244126984127	58	127
308.244126984127	308.4879365079365	74	127
308.244126984127	308.4879365079365	62	127
308.4879365079365	308.75496598639455	58	127
308.4879365079365	308.75496598639455	75	127
308.4879365079365	308.9987755102041	63	127
308.75496598639455	308.9987755102041	63	127
308.75496598639455	308.9987755102041	70	127
308.9987755102041	309.2309523809524	55	127
308.9987755102041	309.2309523809524	82	127
308.9987755102041	309.47478458049886	58	127
309.2309523809524	309.47478458049886	79	127
309.2309523809524	309.47478458049886	51	127
309.47478458049886	309.70698412698414	59	127
309.47478458049886	309.9624036281179	68	127
309.47478458049886	309.70698412698414	80	127
309.70698412698414	309.9624036281179	75	127
309.70698412698414	309.9624036281179	63	127
309.9624036281179	310.24104308390025	82	127
309.9624036281179	310.48485260770974	70	127
309.9624036281179	310.24104308390025	61	127
310.24104308390025	310.48485260770974	65	127
310.24104308390025	310.48485260770974	77	127
310.48485260770974	310.717052154195	78	127
310.48485260770974	310.96086167800456	66	127
310.48485260770974	310.717052154195	61	127
310.717052154195	310.96086167800456	66	127
310.717052154195	310.96086167800456	73	127
310.96086167800456	311.1930612244898	58	127
310.96086167800456	311.1930612244898	85	127
310.96086167800456	311.4368707482993	61	127
311.1930612244898	311.4368707482993	82	127
311.1930612244898	311.4368707482993	54	127
311.4368707482993	311.6806575963719	59	127
311.4368707482993	311.6806575963719	80	127
311.4368707482993	311.92448979591836	68	127
311.6806575963719	311.92448979591836	63	127
311.6806575963719	311.92448979591836	75	127
311.92448979591836	312.4121088435374	70	127
311.92448979591836	312.1682993197279	82	127
311.92448979591836	312.1682993197279	61	127
312.1682993197279	312.4121088435374	77	127
312.1682993197279	312.4121088435374	65	127
312.4121088435374	312.8881179138322	66	127
312.4121088435374	312.6443083900227	78	127
312.4121088435374	312.6443083900227	61	127
312.6443083900227	312.8881179138322	66	127
312.6443083900227	312.8881179138322	73	127
312.8881179138322	313.3873469387755	61	127
312.8881179138322	313.1319274376417	58	127
312.8881179138322	313.1319274376417	85	127
313.1319274376417	313.3873469387755	82	127
313.1319274376417	313.3873469387755	54	127
313.3873469387755	313.6195464852608	78	127
313.3873469387755	313.6195464852608	58	127
313.3873469387755	313.8633560090703	66	127
313.3873469387755	317.3927891156463	42	127
313.6195464852608	313.8633560090703	73	127
313.6195464852608	313.8633560090703	54	127
313.8633560090703	314.3393424036281	61	127
313.8633560090703	314.09555555555556	58	127
313.8633560090703	314.09555555555556	85	127
314.09555555555556	314.3393424036281	54	127
314.09555555555556	314.3393424036281	82	127
314.3393424036281	314.8153741496599	66	127
314.3393424036281	314.5715646258503	78	127
314.3393424036281	314.5715646258503	58	127
314.5715646258503	314.8153741496599	73	127
314.5715646258503	314.8153741496599	54	127
314.8153741496599	315.04757369614515	85	127
314.8153741496599	315.04757369614515	58	127
314.8153741496599	315.349433106576	61	127
315.04757369614515	315.349433106576	54	127
315.04757369614515	315.349433106576	82	127
315.349433106576	315.5816326530612	58	127
315.349433106576	315.82544217687075	66	127
315.349433106576	315.5816326530612	78	127
315.5816326530612	315.82544217687075	54	127
315.5816326530612	315.82544217687075	73	127
315.82544217687075	316.057641723356	85	127
315.82544217687075	316.057641723356	58	127
315.82544217687075	316.3362811791383	61	127
316.057641723356	316.3362811791383	82	127
316.057641723356	316.3362811791383	54	127
316.3362811791383	316.5684807256236	58	127
316.3362811791383	316.5684807256236	78	127
316.3362811791383	316.82390022675736	66	127
316.5684807256236	316.82390022675736	73	127
316.5684807256236	316.82390022675736	54	127
316.82390022675736	317.05609977324264	58	127
316.82390022675736	317.05609977324264	85	127
316.82390022675736	317.3927891156463	61	127
317.05609977324264	317.3927891156463	54	127
317.05609977324264	317.3927891156463	82	127
317.3927891156463	317.6249886621315	58	127
317.3927891156463	317.86879818594105	62	127
317.3927891156463	317.6249886621315	80	127
317.3927891156463	321.3053514739229	41	127
317.6249886621315	317.86879818594105	56	127
317.6249886621315	317.86879818594105	74	127
317.86879818594105	318.1009977324263	86	127
317.86879818594105	318.3448072562358	58	127
317.86879818594105	318.1009977324263	58	127
318.1009977324263	318.3448072562358	56	127
318.1009977324263	318.3448072562358	82	127
318.3448072562358	318.5770068027211	58	127
318.3448072562358	318.8324263038549	62	127
318.3448072562358	318.5770068027211	80	127
318.5770068027211	318.8324263038549	74	127
318.5770068027211	318.8324263038549	56	127
318.8324263038549	319.0646258503401	58	127
318.8324263038549	319.0646258503401	86	127
318.8324263038549	319.30843537414967	58	127
319.0646258503401	319.30843537414967	82	127
319.0646258503401	319.30843537414967	56	127
319.30843537414967	319.54063492063494	80	127
319.30843537414967	319.54063492063494	58	127
319.30843537414967	319.87732426303853	62	127
319.54063492063494	319.87732426303853	74	127
319.54063492063494	319.87732426303853	56	127
319.87732426303853	320.35333333333335	58	127
319.87732426303853	320.1095238095238	58	127
319.87732426303853	320.1095238095238	86	127
320.1095238095238	320.35333333333335	56	127
320.1095238095238	320.35333333333335	82	127
320.35333333333335	320.8293424036281	62	127
320.35333333333335	320.58551020408163	80	127
320.35333333333335	320.58551020408163	58	127
320.58551020408163	320.8293424036281	56	127
320.58551020408163	320.8293424036281	74	127
320.8293424036281	321.3053514739229	58	127
320.8293424036281	321.0615419501134	86	127
320.8293424036281	321.0615419501134	58	127
321.0615419501134	321.3053514739229	56	127
321.0615419501134	321.3053514739229	82	127
322.25736961451247	322.48956916099775	56	127
322.48956916099775	322.7333560090703	50	127
322.7333560090703	322.9655782312925	62	127
322.9655782312925	323.20938775510206	58	127
324.61419501133787	324.8580045351474	63	127
324.61419501133787	324.8580045351474	75	127
324.8580045351474	325.1018140589569	77	127
324.8580045351474	325.1018140589569	65	127
325.1018140589569	325.3340136054422	79	127
325.1018140589569	325.3340136054422	67	127
325.3340136054422	325.4501133786848	77	127
325.3340136054422	325.4501133786848	65	127
325.4501133786848	325.56621315192746	63	127
325.4501133786848	325.56621315192746	75	127
325.56621315192746	326.03061224489795	77	127
325.56621315192746	326.03061224489795	65	127
325.56621315192746	325.81002267573695	46	127
325.56621315192746	325.81002267573695	62	127
325.81002267573695	326.03061224489795	48	127
325.81002267573695	326.03061224489795	63	127
326.03061224489795	326.2279818594104	65	127
326.03061224489795	326.2279818594104	50	127
326.03061224489795	326.43696145124716	70	127
326.03061224489795	326.43696145124716	82	127
326.2279818594104	326.3324716553288	63	127
326.2279818594104	326.3324716553288	48	127
326.3324716553288	326.43696145124716	62	127
326.3324716553288	326.43696145124716	46	127
326.43696145124716	326.6459410430839	63	127
326.43696145124716	326.6459410430839	75	127
326.43696145124716	326.6459410430839	51	127
326.43696145124716	326.6459410430839	67	127
326.6459410430839	326.8665306122449	65	127
326.6459410430839	326.8665306122449	77	127
326.8665306122449	327.0987301587302	79	127
326.8665306122449	327.0987301587302	67	127
327.0987301587302	327.20321995464855	65	127
327.0987301587302	327.20321995464855	77	127
327.20321995464855	327.3077097505669	63	127
327.20321995464855	327.3077097505669	75	127
327.3077097505669	327.7721088435374	65	127
327.3077097505669	327.7721088435374	77	127
327.3077097505669	327.53990929705213	62	127
327.3077097505669	327.53990929705213	46	127
327.53990929705213	327.7721088435374	63	127
327.53990929705213	327.7721088435374	48	127
327.7721088435374	328.1552380952381	70	127
327.7721088435374	328.1552380952381	82	127
327.7721088435374	327.9926984126984	65	127
327.7721088435374	327.9926984126984	50	127
327.9926984126984	328.0855782312925	48	127
327.9926984126984	328.0855782312925	63	127
328.0855782312925	328.1552380952381	62	127
328.0855782312925	328.1552380952381	46	127
328.1552380952381	328.24809523809523	66	127
328.1552380952381	328.24809523809523	60	127
328.1552380952381	328.3758276643991	75	127
328.1552380952381	328.24809523809523	63	127
328.1552380952381	328.3758276643991	45	127
328.24809523809523	328.3758276643991	63	127
328.24809523809523	328.3758276643991	66	127
328.24809523809523	328.3758276643991	60	127
328.3758276643991	328.503537414966	63	127
328.3758276643991	328.503537414966	60	127
328.3758276643991	328.6196371882086	77	127
328.3758276643991	328.503537414966	66	127
328.503537414966	328.6196371882086	63	127
328.503537414966	328.6196371882086	66	127
328.503537414966	328.6196371882086	60	127
328.6196371882086	328.724126984127	66	127
328.6196371882086	328.724126984127	63	127
328.6196371882086	328.724126984127	60	127
328.6196371882086	328.82861678004537	78	127
328.724126984127	328.82861678004537	63	127
328.724126984127	328.82861678004537	66	127
328.724126984127	328.82861678004537	60	127
328.82861678004537	328.93310657596373	77	127
328.82861678004537	328.93310657596373	63	127
328.82861678004537	328.93310657596373	66	127
328.82861678004537	328.93310657596373	60	127
328.93310657596373	329.02598639455783	60	127
328.93310657596373	329.02598639455783	75	127
328.93310657596373	329.02598639455783	63	127
328.93310657596373	329.02598639455783	66	127
329.02598639455783	329.24657596371884	38	127
329.02598639455783	329.1304761904762	59	127
329.02598639455783	329.1304761904762	56	127
329.02598639455783	329.1304761904762	65	127
329.02598639455783	329.24657596371884	77	127
329.1304761904762	329.24657596371884	65	127
329.1304761904762	329.24657596371884	59	127
329.1304761904762	329.24657596371884	56	127
329.24657596371884	329.3162358276644	56	127
329.24657596371884	329.42072562358277	79	127
329.24657596371884	329.3162358276644	59	127
329.24657596371884	329.3162358276644	65	127
329.3162358276644	329.42072562358277	59	127
329.3162358276644	329.42072562358277	56	127
329.3162358276644	329.42072562358277	65	127
329.42072562358277	329.5368253968254	56	127
329.42072562358277	329.5368253968254	65	127
329.42072562358277	329.5368253968254	59	127
329.42072562358277	329.6413151927438	80	127
329.5368253968254	329.6413151927438	56	127
329.5368253968254	329.6413151927438	59	127
329.5368253968254	329.6413151927438	65	127
329.6413151927438	329.74580498866214	56	127
329.6413151927438	329.74580498866214	79	127
329.6413151927438	329.74580498866214	59	127
329.6413151927438	329.74580498866214	65	127
329.74580498866214	329.8502947845805	56	127
329.74580498866214	329.8502947845805	65	127
329.74580498866214	329.8502947845805	77	127
329.74580498866214	329.8502947845805	59	127
329.8502947845805	329.9199546485261	40	127
329.8502947845805	329.87351473922905	61	127
329.8502947845805	329.87351473922905	58	127
329.8502947845805	329.9199546485261	79	127
329.8502947845805	329.87351473922905	55	127
329.87351473922905	329.9199546485261	58	127
329.87351473922905	329.9199546485261	55	127
329.87351473922905	329.9199546485261	61	127
329.9199546485261	330.0360544217687	55	127
329.9199546485261	330.0360544217687	58	127
329.9199546485261	330.15215419501135	80	127
329.9199546485261	330.0360544217687	61	127
330.0360544217687	330.15215419501135	55	127
330.0360544217687	330.15215419501135	61	127
330.0360544217687	330.15215419501135	58	127
330.15215419501135	330.268253968254	55	127
330.15215419501135	330.268253968254	61	127
330.15215419501135	330.3959410430839	82	127
330.15215419501135	330.268253968254	58	127
330.268253968254	330.3959410430839	61	127
330.268253968254	330.3959410430839	58	127
330.268253968254	330.3959410430839	55	127
330.3959410430839	330.5120634920635	61	127
330.3959410430839	330.5120634920635	55	127
330.3959410430839	330.5120634920635	80	127
330.3959410430839	330.5120634920635	58	127
330.5120634920635	330.6281632653061	55	127
330.5120634920635	330.6281632653061	79	127
330.5120634920635	330.6281632653061	58	127
330.5120634920635	330.6281632653061	61	127
330.5701133786848	330.6281632653061	60	127
330.6281632653061	330.8603628117914	39	127
330.6281632653061	330.8603628117914	84	127
330.6281632653061	330.7326530612245	51	127
330.6281632653061	330.8603628117914	68	127
330.7326530612245	330.8603628117914	51	127
330.8603628117914	330.976462585034	51	127
330.8603628117914	331.09256235827667	86	127
330.8603628117914	331.09256235827667	70	127
330.976462585034	331.09256235827667	51	127
331.09256235827667	331.27832199546486	87	127
331.09256235827667	331.27832199546486	72	127
331.09256235827667	331.7311111111111	39	127
331.09256235827667	331.1622222222222	51	127
331.1622222222222	331.27832199546486	51	127
331.27832199546486	331.3944217687075	86	127
331.27832199546486	331.3944217687075	70	127
331.27832199546486	331.3944217687075	51	127
331.3944217687075	331.49891156462587	84	127
331.3944217687075	331.49891156462587	51	127
331.3944217687075	331.49891156462587	68	127
331.49891156462587	331.7311111111111	84	127
331.49891156462587	331.6265986394558	51	127
331.49891156462587	331.7311111111111	68	127
331.6265986394558	331.7311111111111	51	127
331.7311111111111	331.9284580498866	82	127
331.7311111111111	331.83560090702946	51	127
331.7311111111111	331.9284580498866	67	127
331.83560090702946	331.9284580498866	51	127
331.9284580498866	332.13743764172335	84	127
331.9284580498866	332.0213605442177	48	127
331.9284580498866	332.13743764172335	68	127
331.9284580498866	332.5902494331066	36	127
332.0213605442177	332.13743764172335	48	127
332.13743764172335	332.25356009070293	48	127
332.13743764172335	332.25356009070293	82	127
332.13743764172335	332.25356009070293	67	127
332.25356009070293	332.36965986394557	65	127
332.25356009070293	332.36965986394557	80	127
332.25356009070293	332.36965986394557	48	127
332.36965986394557	332.4973696145125	48	127
332.36965986394557	332.5902494331066	80	127
332.36965986394557	332.5902494331066	65	127
332.4973696145125	332.5902494331066	48	127
332.5902494331066	332.7063492063492	48	127
332.5902494331066	332.82244897959185	63	127
332.5902494331066	332.82244897959185	79	127
332.7063492063492	332.82244897959185	48	127
332.82244897959185	332.95013605442176	56	127
332.82244897959185	333.5190476190476	44	127
332.82244897959185	333.06625850340134	65	127
332.82244897959185	333.06625850340134	80	127
332.95013605442176	333.06625850340134	56	127
333.06625850340134	333.182358276644	79	127
333.06625850340134	333.182358276644	56	127
333.06625850340134	333.182358276644	63	127
333.182358276644	333.2984580498866	56	127
333.182358276644	333.2984580498866	77	127
333.182358276644	333.2984580498866	61	127
333.2984580498866	333.5190476190476	61	127
333.2984580498866	333.5190476190476	77	127
333.2984580498866	333.402947845805	56	127
333.402947845805	333.5190476190476	56	127
333.5190476190476	333.73963718820863	75	127
333.5190476190476	333.73963718820863	60	127
333.5190476190476	333.63514739229026	56	127
333.63514739229026	333.73963718820863	56	127
333.73963718820863	334.33174603174604	41	127
333.73963718820863	333.92539682539683	61	127
333.73963718820863	333.92539682539683	77	127
333.73963718820863	333.86732426303854	53	127
333.86732426303854	333.92539682539683	53	127
333.92539682539683	334.01827664399093	60	127
333.92539682539683	334.01827664399093	75	127
333.92539682539683	334.01827664399093	53	127
334.01827664399093	334.11115646258503	53	127
334.01827664399093	334.11115646258503	73	127
334.01827664399093	334.11115646258503	58	127
334.11115646258503	334.22725623582767	53	127
334.11115646258503	334.33174603174604	73	127
334.11115646258503	334.33174603174604	58	127
334.22725623582767	334.33174603174604	53	127
334.33174603174604	334.5639455782313	72	127
334.33174603174604	334.4478458049887	53	127
334.33174603174604	334.5639455782313	57	127
334.4478458049887	334.5639455782313	53	127
334.5639455782313	334.8077551020408	77	127
334.5639455782313	334.8077551020408	61	127
334.5639455782313	339.9045124716553	41	127
334.5639455782313	334.6916326530612	53	127
334.6916326530612	334.8077551020408	53	127
334.8077551020408	334.92385487528344	53	127
334.8077551020408	334.92385487528344	75	127
334.8077551020408	334.92385487528344	60	127
334.92385487528344	335.0399546485261	53	127
334.92385487528344	335.0399546485261	58	127
334.92385487528344	335.0399546485261	73	127
335.0399546485261	335.23732426303854	73	127
335.0399546485261	335.14444444444445	53	127
335.0399546485261	335.23732426303854	58	127
335.14444444444445	335.23732426303854	53	127
335.23732426303854	335.3534240362812	53	127
335.23732426303854	335.434693877551	57	127
335.23732426303854	335.434693877551	72	127
335.3534240362812	335.434693877551	53	127
335.434693877551	335.6320634920635	61	127
335.434693877551	335.51596371882084	53	127
335.434693877551	335.6320634920635	77	127
335.51596371882084	335.6320634920635	53	127
335.6320634920635	335.73655328798185	60	127
335.6320634920635	335.73655328798185	75	127
335.6320634920635	335.73655328798185	53	127
335.73655328798185	335.8526530612245	53	127
335.73655328798185	335.8526530612245	58	127
335.73655328798185	335.8526530612245	73	127
335.8526530612245	336.09646258503403	73	127
335.8526530612245	335.9803628117914	53	127
335.8526530612245	336.09646258503403	58	127
335.9803628117914	336.09646258503403	53	127
336.09646258503403	336.3286394557823	72	127
336.09646258503403	336.21256235827667	53	127
336.09646258503403	336.3286394557823	57	127
336.21256235827667	336.3286394557823	53	127
336.3286394557823	336.4447619047619	53	127
336.3286394557823	336.5608616780045	77	127
336.3286394557823	336.5608616780045	61	127
336.4447619047619	336.5608616780045	53	127
336.5608616780045	336.76984126984127	60	127
336.5608616780045	336.76984126984127	75	127
336.5608616780045	336.6537414965986	53	127
336.6537414965986	336.76984126984127	53	127
336.76984126984127	336.86272108843536	53	127
336.76984126984127	336.978820861678	58	127
336.76984126984127	336.978820861678	73	127
336.86272108843536	336.978820861678	53	127
336.978820861678	337.08331065759637	53	127
336.978820861678	337.2110204081633	72	127
336.978820861678	337.2110204081633	57	127
337.08331065759637	337.2110204081633	53	127
337.2110204081633	337.4548072562358	61	127
337.2110204081633	337.3387301587302	53	127
337.2110204081633	337.4548072562358	77	127
337.3387301587302	337.4548072562358	53	127
337.4548072562358	337.55931972789114	53	127
337.4548072562358	337.6638095238095	60	127
337.4548072562358	337.6638095238095	75	127
337.55931972789114	337.6638095238095	53	127
337.6638095238095	337.7915192743764	53	127
337.6638095238095	338.1398185941043	73	127
337.6638095238095	337.90761904761905	58	127
337.7915192743764	337.90761904761905	53	127
337.90761904761905	338.0237188208617	53	127
337.90761904761905	338.1398185941043	70	127
338.0237188208617	338.1398185941043	53	127
338.1398185941043	340.79850340136056	72	127
338.1398185941043	338.2326984126984	53	127
338.1398185941043	338.34879818594106	69	127
338.2326984126984	338.34879818594106	53	127
338.34879818594106	338.8015873015873	57	127
338.34879818594106	338.45328798185943	53	127
338.45328798185943	338.5809977324263	53	127
338.5809977324263	338.6970975056689	53	127
338.6970975056689	338.8015873015873	53	127
338.8015873015873	339.010566893424	69	127
338.8015873015873	338.9176870748299	53	127
338.9176870748299	339.010566893424	53	127
339.010566893424	339.1150566893424	53	127
339.010566893424	339.2079365079365	68	127
339.1150566893424	339.2079365079365	53	127
339.2079365079365	339.6607256235828	56	127
339.2079365079365	339.32403628117913	53	127
339.32403628117913	339.44013605442177	53	127
339.44013605442177	339.54462585034014	53	127
339.54462585034014	339.6607256235828	53	127
339.6607256235828	339.9045124716553	68	127
339.6607256235828	339.7768253968254	53	127
339.7768253968254	339.9045124716553	53	127
339.9045124716553	340.11349206349206	67	127
339.9045124716553	340.0090022675737	55	127
339.9045124716553	340.79850340136056	39	127
340.0090022675737	340.11349206349206	55	127
340.11349206349206	340.22961451247164	55	127
340.11349206349206	340.5663038548753	55	127
340.22961451247164	340.35732426303855	55	127
340.35732426303855	340.4734240362812	55	127
340.4734240362812	340.5663038548753	55	127
340.5663038548753	340.79850340136056	67	127
340.5663038548753	340.6824036281179	55	127
340.6824036281179	340.79850340136056	55	127
340.79850340136056	343.15532879818596	74	127
340.79850340136056	340.9146031746032	57	127
340.79850340136056	341.03068027210884	38	127
340.79850340136056	343.15532879818596	66	127
340.9146031746032	341.03068027210884	57	127
341.03068027210884	341.1351700680272	57	127
341.03068027210884	341.26290249433106	51	127
341.1351700680272	341.26290249433106	57	127
341.26290249433106	341.49510204081633	50	127
341.26290249433106	341.3790022675737	57	127
341.3790022675737	341.49510204081633	57	127
341.49510204081633	341.611201814059	57	127
341.49510204081633	341.9711111111111	38	127
341.611201814059	341.7388888888889	57	127
341.7388888888889	341.85501133786846	57	127
341.85501133786846	341.9711111111111	57	127
341.9711111111111	342.2033106575964	51	127
341.9711111111111	342.08721088435374	57	127
342.08721088435374	342.2033106575964	57	127
342.2033106575964	342.319410430839	57	127
342.2033106575964	342.43551020408165	50	127
342.319410430839	342.43551020408165	57	127
342.43551020408165	342.5516099773243	57	127
342.43551020408165	342.9115192743764	38	127
342.5516099773243	342.67931972789114	57	127
342.67931972789114	342.7954195011338	57	127
342.7954195011338	342.9115192743764	57	127
342.9115192743764	343.02761904761905	57	127
342.9115192743764	343.15532879818596	51	127
343.02761904761905	343.15532879818596	57	127
343.15532879818596	343.201768707483	57	127
343.15532879818596	343.201768707483	66	127
343.15532879818596	343.201768707483	74	127
343.15532879818596	343.201768707483	50	127
343.201768707483	343.2714058956916	66	127
343.201768707483	343.2714058956916	50	127
343.201768707483	343.39913832199545	87	127
343.201768707483	343.2714058956916	57	127
343.2714058956916	343.39913832199545	50	127
343.2714058956916	343.39913832199545	66	127
343.2714058956916	343.39913832199545	57	127
343.39913832199545	343.5152380952381	50	127
343.39913832199545	343.6313378684807	86	127
343.39913832199545	343.5152380952381	66	127
343.39913832199545	343.5152380952381	57	127
343.5152380952381	343.6313378684807	66	127
343.5152380952381	343.6313378684807	57	127
343.5152380952381	343.6313378684807	50	127
343.6313378684807	343.74743764172337	57	127
343.6313378684807	344.0957142857143	74	127
343.6313378684807	343.74743764172337	50	127
343.6313378684807	343.74743764172337	66	127
343.74743764172337	343.8751473922903	57	127
343.74743764172337	343.8751473922903	66	127
343.74743764172337	343.8751473922903	50	127
343.8751473922903	343.9912244897959	66	127
343.8751473922903	343.9912244897959	50	127
343.8751473922903	343.9912244897959	57	127
343.9912244897959	344.0957142857143	57	127
343.9912244897959	344.0957142857143	66	127
343.9912244897959	344.0957142857143	50	127
344.0957142857143	344.33954648526077	87	127
344.0957142857143	344.21183673469386	57	127
344.0957142857143	344.21183673469386	66	127
344.0957142857143	344.21183673469386	50	127
344.21183673469386	344.33954648526077	50	127
344.21183673469386	344.33954648526077	57	127
344.21183673469386	344.33954648526077	66	127
344.33954648526077	344.4556462585034	50	127
344.33954648526077	344.57174603174604	86	127
344.33954648526077	344.4556462585034	57	127
344.33954648526077	344.4556462585034	66	127
344.4556462585034	344.57174603174604	50	127
344.4556462585034	344.57174603174604	57	127
344.4556462585034	344.57174603174604	66	127
344.57174603174604	344.6878458049887	57	127
344.57174603174604	344.6878458049887	50	127
344.57174603174604	345.0477551020408	74	127
344.57174603174604	344.6878458049887	66	127
344.6878458049887	344.8155328798186	66	127
344.6878458049887	344.8155328798186	57	127
344.6878458049887	344.8155328798186	50	127
345.0477551020408	345.29156462585036	87	127
345.29156462585036	345.51215419501136	86	127
345.51215419501136	345.9533333333333	74	127
345.9533333333333	346.19714285714286	87	127
346.19714285714286	346.42934240362814	86	127
346.42934240362814	346.67315192743763	74	127
346.67315192743763	346.7195918367347	74	127
346.78925170068027	346.83569160997735	87	127
346.9053514739229	346.951768707483	86	127
347.0330612244898	347.06789115646257	74	127
347.14916099773245	347.1956009070295	74	127
347.3117006802721	347.3581405895692	86	127
347.439410430839	347.4742176870748	74	127
347.55551020408166	347.6019501133787	74	127
347.55551020408166	347.6019501133787	62	127
347.6715873015873	347.7180498866213	75	127
347.6715873015873	347.7180498866213	87	127
347.7877097505669	347.83414965986395	74	127
347.7877097505669	347.83414965986395	86	127
347.9154195011338	347.9502494331066	62	127
347.9154195011338	347.9502494331066	74	127
348.0315192743764	348.0779365079365	74	127
348.0315192743764	348.0779365079365	62	127
348.14761904761906	348.1940589569161	75	127
348.14761904761906	348.1940589569161	87	127
348.2637188208617	348.3101587301587	74	127
348.2637188208617	348.3101587301587	86	127
348.37981859410434	348.4146485260771	74	127
348.37981859410434	348.4146485260771	62	127
348.4842857142857	348.5307482993197	50	127
348.4842857142857	348.5307482993197	62	127
348.4842857142857	348.5307482993197	74	127
348.65845804988663	348.6700680272109	50	127
348.65845804988663	348.6700680272109	74	127
348.65845804988663	348.6700680272109	62	127
348.75133786848073	348.78616780045354	62	127
348.75133786848073	348.78616780045354	74	127
348.75133786848073	348.78616780045354	50	127
348.8558276643991	348.9022448979592	75	127
348.8558276643991	348.9022448979592	87	127
348.8558276643991	348.9022448979592	63	127
348.97192743764174	349.01836734693876	62	127
348.97192743764174	349.01836734693876	74	127
348.97192743764174	349.01836734693876	86	127
349.09961451247165	349.11124716553286	74	127
349.09961451247165	349.11124716553286	50	127
349.09961451247165	349.11124716553286	62	127
349.19251700680275	349.23895691609977	74	127
349.19251700680275	349.23895691609977	38	127
349.19251700680275	349.23895691609977	50	127
349.19251700680275	349.23895691609977	62	127
349.3085941043084	349.3550566893424	75	127
349.3085941043084	349.3550566893424	87	127
349.3085941043084	349.3550566893424	51	127
349.3085941043084	349.3550566893424	63	127
349.42471655328796	349.47115646258504	50	127
349.42471655328796	349.47115646258504	62	127
349.42471655328796	349.47115646258504	86	127
349.42471655328796	349.47115646258504	74	127
349.5524263038549	349.5872562358277	74	127
349.5524263038549	349.5872562358277	38	127
349.5524263038549	349.5872562358277	50	127
349.5524263038549	349.5872562358277	62	127
349.6685260770975	349.7149433106576	74	127
349.6685260770975	349.7149433106576	62	127
349.6685260770975	349.7149433106576	50	127
349.6685260770975	349.7149433106576	38	127
349.78462585034015	349.83106575963717	51	127
349.78462585034015	349.83106575963717	87	127
349.78462585034015	349.83106575963717	75	127
349.78462585034015	349.83106575963717	63	127
349.9007256235828	349.9471655328798	86	127
349.9007256235828	349.9471655328798	62	127
349.9007256235828	349.9471655328798	74	127
349.9007256235828	349.9471655328798	50	127
350.0284126984127	350.086485260771	74	127
350.0284126984127	350.086485260771	38	127
350.0284126984127	350.086485260771	62	127
350.0284126984127	350.086485260771	50	127
350.15614512471655	350.3883446712018	62	127
350.15614512471655	350.3883446712018	46	127
350.15614512471655	350.3883446712018	53	127
350.15614512471655	350.3883446712018	56	127
350.15614512471655	350.2025850340136	74	127
350.2722448979592	350.31868480725626	91	127
350.3883446712018	350.4347619047619	89	127
350.51605442176873	350.56249433106575	86	127
350.63213151927437	350.6785941043084	82	127
350.74825396825395	350.794693877551	80	127
350.8643537414966	350.8991836734694	77	127
350.9804535147392	351.01528344671203	75	127
351.0849433106576	351.18943310657596	74	127
351.18943310657596	351.2707029478458	70	127
351.2707029478458	351.3635827664399	77	127
351.3635827664399	351.4796825396825	74	127
351.4796825396825	351.59578231292517	70	127
351.59578231292517	351.6538095238095	68	127
351.6538095238095	351.78154195011336	65	127
351.78154195011336	351.87442176870746	63	127
351.87442176870746	352.10662131519274	50	127
351.87442176870746	352.10662131519274	62	127
351.87442176870746	352.10662131519274	50	127
351.87442176870746	351.9905215419501	62	127
351.9905215419501	352.10662131519274	58	127
352.10662131519274	352.28077097505667	65	127
352.10662131519274	352.28077097505667	53	127
352.10662131519274	352.28077097505667	53	127
352.10662131519274	352.2227210884354	65	127
352.2227210884354	352.28077097505667	58	127
352.28077097505667	352.5245804988662	56	127
352.28077097505667	352.3968707482993	68	127
352.28077097505667	352.5245804988662	56	127
352.28077097505667	352.5245804988662	68	127
352.3968707482993	352.5245804988662	58	127
352.5245804988662	352.6290702947846	69	127
352.5245804988662	352.7451700680272	69	127
352.5245804988662	352.7451700680272	57	127
352.5245804988662	352.7451700680272	57	127
352.6290702947846	352.7451700680272	58	127
352.7451700680272	352.86126984126986	70	127
352.7451700680272	352.98895691609977	58	127
352.7451700680272	352.98895691609977	58	127
352.7451700680272	352.98895691609977	70	127
352.86126984126986	352.98895691609977	62	127
352.98895691609977	353.10507936507935	74	127
352.98895691609977	353.221179138322	62	127
352.98895691609977	353.221179138322	62	127
352.98895691609977	353.221179138322	74	127
353.10507936507935	353.221179138322	62	127
353.221179138322	353.3024489795918	77	127
353.221179138322	353.41854875283445	77	127
353.221179138322	353.41854875283445	65	127
353.221179138322	353.41854875283445	65	127
353.3024489795918	353.41854875283445	62	127
353.41854875283445	353.5230385487528	82	127
353.41854875283445	353.63913832199546	70	127
353.41854875283445	353.63913832199546	58	127
353.41854875283445	353.63913832199546	82	127
353.5230385487528	353.63913832199546	62	127
353.63913832199546	353.87133786848074	75	127
353.63913832199546	353.74362811791383	70	127
353.63913832199546	353.74362811791383	63	127
353.63913832199546	353.74362811791383	67	127
353.74362811791383	353.87133786848074	67	127
353.74362811791383	353.87133786848074	63	127
353.74362811791383	353.87133786848074	70	127
353.87133786848074	353.9874376417234	63	127
353.87133786848074	353.9874376417234	67	127
353.87133786848074	353.9874376417234	70	127
353.87133786848074	354.09192743764174	77	127
353.9874376417234	354.09192743764174	67	127
353.9874376417234	354.09192743764174	70	127
353.9874376417234	354.09192743764174	63	127
354.09192743764174	354.2080272108844	70	127
354.09192743764174	354.32410430839	79	127
354.09192743764174	354.2080272108844	63	127
354.09192743764174	354.2080272108844	67	127
354.2080272108844	354.32410430839	63	127
354.2080272108844	354.32410430839	70	127
354.2080272108844	354.32410430839	67	127
354.32410430839	354.4402267573696	70	127
354.32410430839	354.4402267573696	67	127
354.32410430839	354.4402267573696	77	127
354.32410430839	354.4402267573696	63	127
354.4402267573696	354.54471655328797	67	127
354.4402267573696	354.54471655328797	63	127
354.4402267573696	354.54471655328797	75	127
354.4402267573696	354.54471655328797	70	127
354.54471655328797	354.6608163265306	65	127
354.54471655328797	354.6608163265306	70	127
354.54471655328797	354.6608163265306	62	127
354.54471655328797	355.0207256235828	77	127
354.6608163265306	354.7885260770975	62	127
354.6608163265306	354.7885260770975	65	127
354.6608163265306	354.7885260770975	70	127
354.7885260770975	354.90462585034015	65	127
354.7885260770975	354.90462585034015	70	127
354.7885260770975	354.90462585034015	62	127
354.90462585034015	355.0207256235828	62	127
354.90462585034015	355.0207256235828	70	127
354.90462585034015	355.0207256235828	65	127
355.0207256235828	355.4154648526077	82	127
355.0207256235828	355.12521541950116	70	127
355.0207256235828	355.12521541950116	65	127
355.0207256235828	355.12521541950116	61	127
355.12521541950116	355.252925170068	70	127
355.12521541950116	355.252925170068	65	127
355.12521541950116	355.252925170068	61	127
355.252925170068	355.3574149659864	65	127
355.252925170068	355.3574149659864	70	127
355.252925170068	355.3574149659864	61	127
355.3574149659864	355.4154648526077	70	127
355.3574149659864	355.4154648526077	61	127
355.3574149659864	355.4154648526077	65	127
355.4154648526077	355.75213151927437	75	127
355.4154648526077	355.49673469387756	63	127
355.4154648526077	355.49673469387756	60	127
355.4154648526077	355.49673469387756	67	127
355.49673469387756	355.5780045351474	60	127
355.49673469387756	355.5780045351474	67	127
355.49673469387756	355.5780045351474	63	127
355.5780045351474	355.6708843537415	67	127
355.5780045351474	355.6708843537415	60	127
355.5780045351474	355.6708843537415	63	127
355.6708843537415	355.75213151927437	63	127
355.6708843537415	355.75213151927437	67	127
355.6708843537415	355.75213151927437	60	127
355.75213151927437	355.86825396825395	67	127
355.75213151927437	355.86825396825395	58	127
355.75213151927437	356.22816326530614	79	127
355.75213151927437	355.86825396825395	62	127
355.86825396825395	355.99596371882086	62	127
355.86825396825395	355.99596371882086	67	127
355.86825396825395	355.99596371882086	58	127
355.99596371882086	356.1120634920635	58	127
355.99596371882086	356.1120634920635	62	127
355.99596371882086	356.1120634920635	67	127
356.1120634920635	356.22816326530614	62	127
356.1120634920635	356.22816326530614	58	127
356.1120634920635	356.22816326530614	67	127
356.22816326530614	356.3442630385488	57	127
356.22816326530614	356.3442630385488	60	127
356.22816326530614	356.69256235827663	77	127
356.22816326530614	356.3442630385488	65	127
356.3442630385488	356.4719727891156	60	127
356.3442630385488	356.4719727891156	65	127
356.3442630385488	356.4719727891156	57	127
356.4719727891156	356.576462585034	57	127
356.4719727891156	356.576462585034	65	127
356.4719727891156	356.576462585034	60	127
356.576462585034	356.69256235827663	60	127
356.576462585034	356.69256235827663	57	127
356.576462585034	356.69256235827663	65	127
356.69256235827663	356.80866213151927	65	127
356.69256235827663	356.80866213151927	58	127
356.69256235827663	357.16857142857145	74	127
356.69256235827663	356.80866213151927	56	127
356.80866213151927	356.9363718820862	65	127
356.80866213151927	356.9363718820862	56	127
356.80866213151927	356.9363718820862	58	127
356.9363718820862	357.0524716553288	58	127
356.9363718820862	357.0524716553288	65	127
356.9363718820862	357.0524716553288	56	127
357.0524716553288	357.16857142857145	58	127
357.0524716553288	357.16857142857145	65	127
357.0524716553288	357.16857142857145	56	127
357.16857142857145	357.2846485260771	63	127
357.16857142857145	357.2846485260771	58	127
357.16857142857145	357.2846485260771	55	127
357.16857142857145	357.41238095238094	75	127
357.2846485260771	357.41238095238094	55	127
357.2846485260771	357.41238095238094	58	127
357.2846485260771	357.41238095238094	63	127
357.41238095238094	357.6445804988662	87	127
357.41238095238094	357.6445804988662	75	127
357.41238095238094	357.5284807256236	58	127
357.41238095238094	357.5284807256236	63	127
357.41238095238094	357.5284807256236	55	127
357.5284807256236	357.6445804988662	58	127
357.5284807256236	357.6445804988662	55	127
357.5284807256236	357.6445804988662	63	127
357.6445804988662	357.76068027210886	58	127
357.6445804988662	357.88839002267576	79	127
357.6445804988662	357.88839002267576	91	127
357.6445804988662	357.76068027210886	55	127
357.6445804988662	357.76068027210886	51	127
357.76068027210886	357.88839002267576	51	127
357.76068027210886	357.88839002267576	55	127
357.76068027210886	357.88839002267576	58	127
357.88839002267576	358.0044671201814	55	127
357.88839002267576	358.0044671201814	89	127
357.88839002267576	358.0044671201814	51	127
357.88839002267576	358.0044671201814	77	127
357.88839002267576	358.0044671201814	58	127
358.0044671201814	358.120589569161	58	127
358.0044671201814	358.120589569161	51	127
358.0044671201814	358.120589569161	55	127
358.0044671201814	358.120589569161	87	127
358.0044671201814	358.120589569161	75	127
358.120589569161	358.5501587301587	89	127
358.120589569161	358.5501587301587	77	127
358.120589569161	358.22507936507935	58	127
358.120589569161	358.22507936507935	53	127
358.120589569161	358.22507936507935	50	127
358.22507936507935	358.35278911564626	50	127
358.22507936507935	358.35278911564626	58	127
358.22507936507935	358.35278911564626	53	127
358.35278911564626	358.4688888888889	53	127
358.35278911564626	358.4688888888889	50	127
358.35278911564626	358.4688888888889	58	127
358.4688888888889	358.5501587301587	58	127
358.4688888888889	358.5501587301587	53	127
358.4688888888889	358.5501587301587	50	127
358.5501587301587	358.66625850340137	58	127
358.5501587301587	358.66625850340137	49	127
358.5501587301587	359.02614512471655	94	127
358.5501587301587	359.02614512471655	82	127
358.5501587301587	358.66625850340137	53	127
358.66625850340137	358.7939682539683	53	127
358.66625850340137	358.7939682539683	49	127
358.66625850340137	358.7939682539683	58	127
358.7939682539683	358.9100680272109	49	127
358.7939682539683	358.9100680272109	58	127
358.7939682539683	358.9100680272109	53	127
358.9100680272109	359.02614512471655	53	127
358.9100680272109	359.02614512471655	58	127
358.9100680272109	359.02614512471655	49	127
359.02614512471655	359.4209070294785	75	127
359.02614512471655	359.14226757369613	55	127
359.02614512471655	359.14226757369613	48	127
359.02614512471655	359.14226757369613	51	127
359.02614512471655	359.4209070294785	87	127
359.14226757369613	359.25836734693877	51	127
359.14226757369613	359.25836734693877	55	127
359.14226757369613	359.25836734693877	48	127
359.25836734693877	359.30480725623585	48	127
359.25836734693877	359.30480725623585	55	127
359.25836734693877	359.30480725623585	51	127
359.30480725623585	359.4209070294785	51	127
359.30480725623585	359.4209070294785	48	127
359.30480725623585	359.4209070294785	55	127
359.4209070294785	359.49056689342405	46	127
359.4209070294785	359.49056689342405	50	127
359.4209070294785	359.49056689342405	55	127
359.4209070294785	359.7924263038549	79	127
359.4209070294785	359.7924263038549	91	127
359.49056689342405	359.5602267573696	55	127
359.49056689342405	359.5602267573696	46	127
359.49056689342405	359.5602267573696	50	127
359.5602267573696	359.67632653061224	50	127
359.5602267573696	359.67632653061224	46	127
359.5602267573696	359.67632653061224	55	127
359.67632653061224	359.7924263038549	50	127
359.67632653061224	359.7924263038549	46	127
359.67632653061224	359.7924263038549	55	127
359.7924263038549	359.9201360544218	45	127
359.7924263038549	360.24519274376416	89	127
359.7924263038549	360.24519274376416	77	127
359.7924263038549	359.9201360544218	51	127
359.7924263038549	359.9201360544218	60	127
359.9201360544218	360.02462585034016	51	127
359.9201360544218	360.02462585034016	45	127
359.9201360544218	360.02462585034016	60	127
360.02462585034016	360.1407029478458	60	127
360.02462585034016	360.1407029478458	45	127
360.02462585034016	360.1407029478458	51	127
360.1407029478458	360.24519274376416	45	127
360.1407029478458	360.24519274376416	51	127
360.1407029478458	360.24519274376416	60	127
360.24519274376416	360.70961451247166	74	127
360.24519274376416	360.36131519274375	44	127
360.24519274376416	360.36131519274375	53	127
360.24519274376416	360.70961451247166	86	127
360.24519274376416	360.36131519274375	58	127
360.36131519274375	360.4774149659864	58	127
360.36131519274375	360.4774149659864	53	127
360.36131519274375	360.4774149659864	44	127
360.4774149659864	360.593514739229	44	127
360.4774149659864	360.593514739229	53	127
360.4774149659864	360.593514739229	58	127
360.593514739229	360.70961451247166	53	127
360.593514739229	360.70961451247166	44	127
360.593514739229	360.70961451247166	58	127
360.70961451247166	361.1507936507937	87	127
360.70961451247166	361.1507936507937	75	127
360.70961451247166	360.8257142857143	58	127
360.70961451247166	360.8257142857143	51	127
360.70961451247166	360.8257142857143	43	127
360.8257142857143	360.9185941043084	43	127
360.8257142857143	360.9185941043084	51	127
360.8257142857143	360.9185941043084	58	127
360.9185941043084	361.03469387755104	58	127
360.9185941043084	361.03469387755104	51	127
360.9185941043084	361.03469387755104	43	127
361.03469387755104	361.1507936507937	51	127
361.03469387755104	361.1507936507937	58	127
361.03469387755104	361.1507936507937	43	127
361.1507936507937	361.2785034013605	46	127
361.1507936507937	361.62680272108844	79	127
361.1507936507937	361.2785034013605	55	127
361.1507936507937	361.62680272108844	91	127
361.1507936507937	361.2785034013605	50	127
361.2785034013605	361.39460317460316	46	127
361.2785034013605	361.39460317460316	50	127
361.2785034013605	361.39460317460316	55	127
361.39460317460316	361.5107029478458	46	127
361.39460317460316	361.5107029478458	50	127
361.39460317460316	361.5107029478458	55	127
361.5107029478458	361.62680272108844	55	127
361.5107029478458	361.62680272108844	46	127
361.5107029478458	361.62680272108844	50	127
361.62680272108844	361.75451247165535	45	127
361.62680272108844	362.091179138322	89	127
361.62680272108844	361.75451247165535	51	127
361.62680272108844	362.091179138322	77	127
361.62680272108844	361.75451247165535	60	127
361.75451247165535	361.8590022675737	60	127
361.75451247165535	361.8590022675737	45	127
361.75451247165535	361.8590022675737	51	127
361.8590022675737	361.97510204081635	51	127
361.8590022675737	361.97510204081635	45	127
361.8590022675737	361.97510204081635	60	127
361.97510204081635	362.091179138322	60	127
361.97510204081635	362.091179138322	45	127
361.97510204081635	362.091179138322	51	127
362.091179138322	362.5207709750567	86	127
362.091179138322	362.1724716553288	44	127
362.091179138322	362.5207709750567	74	127
362.091179138322	362.1724716553288	53	127
362.091179138322	362.1724716553288	58	127
362.1724716553288	362.28854875283446	44	127
362.1724716553288	362.28854875283446	58	127
362.1724716553288	362.28854875283446	53	127
362.28854875283446	362.40467120181404	53	127
362.28854875283446	362.40467120181404	44	127
362.28854875283446	362.40467120181404	58	127
362.40467120181404	362.5207709750567	58	127
362.40467120181404	362.5207709750567	53	127
362.40467120181404	362.5207709750567	44	127
362.5207709750567	362.6368707482993	75	127
362.5207709750567	362.6368707482993	87	127
362.5207709750567	362.6368707482993	58	127
362.5207709750567	362.6368707482993	43	127
362.6368707482993	362.75297052154195	75	127
362.6368707482993	362.75297052154195	87	127
362.6368707482993	362.75297052154195	43	127
362.6368707482993	362.75297052154195	58	127
362.75297052154195	362.8690702947846	91	127
362.75297052154195	362.8690702947846	62	127
362.75297052154195	362.8690702947846	46	127
362.75297052154195	362.8690702947846	67	127
362.8690702947846	362.98517006802723	62	127
362.8690702947846	362.98517006802723	67	127
362.8690702947846	362.98517006802723	46	127
362.8690702947846	362.98517006802723	91	127
362.98517006802723	363.11285714285714	45	127
362.98517006802723	363.11285714285714	63	127
362.98517006802723	363.11285714285714	72	127
362.98517006802723	363.11285714285714	89	127
363.11285714285714	363.1825396825397	89	127
363.11285714285714	363.1825396825397	45	127
363.11285714285714	363.1825396825397	72	127
363.11285714285714	363.1825396825397	63	127
363.1825396825397	363.28702947845807	86	127
363.1825396825397	363.28702947845807	44	127
363.1825396825397	363.28702947845807	70	127
363.1825396825397	363.28702947845807	65	127
363.28702947845807	363.4031292517007	70	127
363.28702947845807	363.4031292517007	86	127
363.28702947845807	363.4031292517007	44	127
363.28702947845807	363.4031292517007	65	127
363.4031292517007	363.53083900226756	87	127
363.4031292517007	363.53083900226756	43	127
363.4031292517007	363.53083900226756	75	127
363.4031292517007	363.53083900226756	58	127
363.53083900226756	363.6469387755102	75	127
363.53083900226756	363.6469387755102	43	127
363.53083900226756	363.6469387755102	87	127
363.53083900226756	363.6469387755102	58	127
363.6469387755102	363.76303854875283	62	127
363.6469387755102	363.76303854875283	46	127
363.6469387755102	363.76303854875283	91	127
363.6469387755102	363.76303854875283	67	127
363.76303854875283	363.87913832199547	46	127
363.76303854875283	363.87913832199547	67	127
363.76303854875283	363.87913832199547	91	127
363.76303854875283	363.87913832199547	62	127
363.87913832199547	363.9604081632653	72	127
363.87913832199547	363.9604081632653	45	127
363.87913832199547	363.9604081632653	63	127
363.87913832199547	363.9604081632653	89	127
363.9604081632653	364.07650793650794	89	127
363.9604081632653	364.07650793650794	72	127
363.9604081632653	364.07650793650794	45	127
363.9604081632653	364.07650793650794	63	127
364.07650793650794	364.1809977324263	44	127
364.07650793650794	364.1809977324263	86	127
364.07650793650794	364.1809977324263	70	127
364.07650793650794	364.1809977324263	65	127
364.1809977324263	364.29709750566894	65	127
364.1809977324263	364.29709750566894	70	127
364.1809977324263	364.29709750566894	44	127
364.1809977324263	364.29709750566894	86	127
364.29709750566894	364.42480725623585	43	127
364.29709750566894	364.42480725623585	58	127
364.29709750566894	364.42480725623585	75	127
364.29709750566894	364.42480725623585	87	127
364.42480725623585	364.5408843537415	87	127
364.42480725623585	364.5408843537415	58	127
364.42480725623585	364.5408843537415	43	127
364.42480725623585	364.5408843537415	75	127
364.5408843537415	364.65700680272107	46	127
364.5408843537415	364.65700680272107	62	127
364.5408843537415	364.65700680272107	67	127
364.5408843537415	364.65700680272107	91	127
364.65700680272107	364.7731065759637	67	127
364.65700680272107	364.7731065759637	91	127
364.65700680272107	364.7731065759637	62	127
364.65700680272107	364.7731065759637	46	127
364.7731065759637	364.9008163265306	89	127
364.7731065759637	364.9008163265306	63	127
364.7731065759637	364.9008163265306	72	127
364.7731065759637	364.9008163265306	45	127
364.9008163265306	365.01691609977325	72	127
364.9008163265306	365.01691609977325	89	127
364.9008163265306	365.01691609977325	63	127
364.9008163265306	365.01691609977325	45	127
365.01691609977325	365.1330158730159	65	127
365.01691609977325	365.1330158730159	86	127
365.01691609977325	365.1330158730159	44	127
365.01691609977325	365.1330158730159	70	127
365.1330158730159	365.24911564625853	70	127
365.1330158730159	365.24911564625853	86	127
365.1330158730159	365.24911564625853	44	127
365.1330158730159	365.24911564625853	65	127
365.24911564625853	365.3768253968254	87	127
365.24911564625853	365.3768253968254	43	127
365.24911564625853	365.3768253968254	58	127
365.24911564625853	365.3768253968254	75	127
365.3768253968254	365.492925170068	75	127
365.3768253968254	365.492925170068	43	127
365.3768253968254	365.492925170068	58	127
365.3768253968254	365.492925170068	87	127
365.492925170068	365.60902494331066	91	127
365.492925170068	365.60902494331066	46	127
365.492925170068	365.60902494331066	73	127
365.492925170068	365.60902494331066	64	127
365.60902494331066	365.7251247165533	91	127
365.60902494331066	365.7251247165533	64	127
365.60902494331066	365.7251247165533	73	127
365.60902494331066	365.7251247165533	46	127
365.7251247165533	365.8528344671202	65	127
365.7251247165533	365.8528344671202	72	127
365.7251247165533	365.8528344671202	89	127
365.7251247165533	365.8528344671202	44	127
365.8528344671202	365.96891156462584	89	127
365.8528344671202	365.96891156462584	44	127
365.8528344671202	365.96891156462584	65	127
365.8528344671202	365.96891156462584	72	127
365.96891156462584	366.0850340136054	40	127
365.96891156462584	366.0850340136054	85	127
365.96891156462584	366.0850340136054	67	127
365.96891156462584	366.0850340136054	94	127
366.0850340136054	366.15469387755104	94	127
366.0850340136054	366.15469387755104	40	127
366.0850340136054	366.15469387755104	85	127
366.0850340136054	366.15469387755104	67	127
366.15469387755104	366.39850340136053	41	127
366.15469387755104	366.28238095238095	92	127
366.15469387755104	366.39850340136053	68	127
366.15469387755104	366.39850340136053	60	127
366.15469387755104	366.28238095238095	84	127
366.28238095238095	366.39850340136053	89	127
366.28238095238095	366.39850340136053	80	127
366.39850340136053	366.51460317460317	86	127
366.39850340136053	366.51460317460317	77	127
366.51460317460317	366.6307029478458	75	127
366.51460317460317	366.6307029478458	84	127
366.6307029478458	366.87451247165535	62	127
366.6307029478458	366.87451247165535	46	127
366.6307029478458	366.87451247165535	56	127
366.6307029478458	366.7584126984127	80	127
366.6307029478458	366.7584126984127	74	127
366.7584126984127	366.87451247165535	77	127
366.7584126984127	366.87451247165535	72	127
366.87451247165535	366.990589569161	74	127
366.87451247165535	366.990589569161	70	127
366.990589569161	367.11832199546484	80	127
366.990589569161	367.11832199546484	84	127
367.11832199546484	367.3505215419501	55	127
367.11832199546484	367.3505215419501	82	127
367.11832199546484	367.21120181405894	79	127
367.11832199546484	367.3505215419501	63	127
367.11832199546484	367.3505215419501	39	127
367.3505215419501	367.59433106575966	51	127
367.3505215419501	367.8265306122449	79	127
367.3505215419501	367.8265306122449	51	127
367.3505215419501	367.59433106575966	75	127
367.59433106575966	367.8265306122449	46	127
367.59433106575966	367.8265306122449	74	127
367.8265306122449	368.0703401360544	73	127
367.8265306122449	368.0703401360544	43	127
367.8265306122449	368.0703401360544	52	127
367.8265306122449	367.9426303854875	79	127
367.9426303854875	368.0703401360544	82	127
368.0703401360544	368.55795918367346	44	127
368.0703401360544	368.1632199546485	72	127
368.0703401360544	368.55795918367346	53	127
368.0703401360544	368.3025396825397	80	127
368.3025396825397	368.3954195011338	70	127
368.3025396825397	368.3954195011338	79	127
368.55795918367346	369.06879818594103	77	127
368.55795918367346	368.801768707483	46	127
368.55795918367346	369.06879818594103	68	127
368.55795918367346	368.6160090702948	50	127
368.6160090702948	368.6740589569161	48	127
368.6740589569161	368.73208616780045	50	127
368.73208616780045	368.801768707483	48	127
368.801768707483	369.06879818594103	46	127
368.801768707483	368.87142857142857	50	127
368.87142857142857	368.9410657596372	48	127
368.9410657596372	368.9991383219955	50	127
368.9991383219955	369.06879818594103	48	127
369.06879818594103	369.5563945578231	75	127
369.06879818594103	369.19650793650794	51	127
369.06879818594103	369.5563945578231	67	127
369.06879818594103	369.5563945578231	39	127
369.19650793650794	369.3126077097506	55	127
369.3126077097506	369.4287074829932	58	127
369.4287074829932	369.5563945578231	62	127
369.5563945578231	369.78861678004534	63	127
369.5563945578231	369.6725170068027	77	127
369.6725170068027	369.78861678004534	79	127
369.78861678004534	369.904716553288	65	127
369.78861678004534	369.904716553288	80	127
369.904716553288	370.0324263038549	67	127
369.904716553288	370.0324263038549	82	127
370.0324263038549	371.0308843537415	68	127
370.0324263038549	370.14852607709753	68	127
370.0324263038549	370.54326530612246	41	127
370.0324263038549	370.54326530612246	84	127
370.14852607709753	370.2762358276644	65	127
370.2762358276644	370.41555555555556	62	127
370.41555555555556	370.54326530612246	60	127
370.54326530612246	371.0308843537415	86	127
370.54326530612246	371.0308843537415	46	127
370.54326530612246	370.6593650793651	56	127
370.6593650793651	370.77544217687074	55	127
370.77544217687074	370.8915646258503	53	127
370.8915646258503	371.0308843537415	60	127
371.0308843537415	371.50689342403626	87	127
371.0308843537415	371.2630839002268	58	127
371.0308843537415	371.50689342403626	67	127
371.0308843537415	371.9829024943311	39	127
371.2630839002268	371.73909297052154	55	127
371.50689342403626	371.9829024943311	63	127
371.50689342403626	371.73909297052154	82	127
371.73909297052154	371.8551927437642	55	127
371.73909297052154	371.9829024943311	79	127
371.8551927437642	371.9829024943311	58	127
371.9829024943311	372.4705215419501	41	127
371.9829024943311	372.4705215419501	60	127
371.9829024943311	372.2267120181406	77	127
371.9829024943311	372.0757823129252	56	127
372.2267120181406	372.4705215419501	79	127
372.2267120181406	372.3195918367347	55	127
372.4705215419501	372.9697505668934	53	127
372.4705215419501	372.9697505668934	62	127
372.4705215419501	372.72591836734694	80	127
372.4705215419501	372.9697505668934	46	127
372.72591836734694	372.8420408163265	79	127
372.8420408163265	372.9697505668934	77	127
372.9697505668934	374.4209977324263	39	127
372.9697505668934	373.4689795918367	51	127
372.9697505668934	373.08585034013606	63	127
372.9697505668934	373.4689795918367	75	127
373.08585034013606	373.2019501133787	58	127
373.2019501133787	373.3412698412698	55	127
373.3412698412698	373.4689795918367	58	127
373.4689795918367	373.59668934240364	63	127
373.4689795918367	376.3366439909297	87	127
373.59668934240364	373.7127891156463	67	127
373.7127891156463	373.81727891156464	65	127
373.7127891156463	373.81727891156464	68	127
373.81727891156464	373.94496598639455	67	127
373.81727891156464	373.94496598639455	70	127
373.94496598639455	374.06108843537413	68	127
373.94496598639455	374.4209977324263	72	127
374.06108843537413	374.17718820861677	65	127
374.17718820861677	374.2932879818594	62	127
374.2932879818594	374.4209977324263	60	127
374.4209977324263	374.8970068027211	46	127
374.4209977324263	374.8970068027211	74	127
374.4209977324263	374.53709750566895	56	127
374.53709750566895	374.6531972789116	55	127
374.6531972789116	374.78090702947844	53	127
374.78090702947844	374.8970068027211	60	127
374.8970068027211	375.3729931972789	39	127
374.8970068027211	375.12920634920636	58	127
374.8970068027211	375.3729931972789	75	127
375.12920634920636	375.6052154195011	55	127
375.3729931972789	375.6052154195011	70	127
375.3729931972789	375.86063492063494	46	127
375.6052154195011	375.73292517006803	55	127
375.6052154195011	375.86063492063494	67	127
375.73292517006803	375.86063492063494	58	127
375.86063492063494	375.95351473922904	56	127
375.86063492063494	375.95351473922904	65	127
375.86063492063494	376.3366439909297	39	127
376.0928117913832	376.1857142857143	67	127
376.0928117913832	376.1857142857143	55	127
376.3366439909297	376.8707029478458	82	127
376.3366439909297	376.8707029478458	46	127
376.3366439909297	376.62689342403627	68	127
376.3366439909297	376.8707029478458	53	127
376.62689342403627	376.7546031746032	67	127
376.7546031746032	376.8707029478458	65	127
376.8707029478458	377.3699319727891	87	127
376.8707029478458	376.9635827664399	55	127
376.8707029478458	380.46979591836737	39	127
376.8707029478458	377.1029024943311	63	127
377.1029024943311	377.2189795918367	51	127
377.1029024943311	377.3699319727891	67	127
377.3699319727891	377.85755102040815	82	127
377.3699319727891	377.61374149659866	68	127
377.3699319727891	377.85755102040815	53	127
377.61374149659866	377.7414512471655	67	127
377.7414512471655	377.85755102040815	65	127
377.85755102040815	377.95043083900225	55	127
377.85755102040815	378.08975056689343	63	127
377.85755102040815	378.333560090703	87	127
378.08975056689343	378.333560090703	67	127
378.08975056689343	378.1826303854875	51	127
378.333560090703	378.79795918367347	82	127
378.333560090703	378.79795918367347	53	127
378.333560090703	378.554126984127	68	127
378.554126984127	378.68185941043083	67	127
378.68185941043083	378.79795918367347	65	127
378.79795918367347	379.03015873015875	63	127
378.79795918367347	379.27396825396823	87	127
378.79795918367347	378.89083900226757	55	127
379.03015873015875	379.27396825396823	67	127
379.03015873015875	379.1346485260771	51	127
379.27396825396823	379.74997732426306	53	127
379.27396825396823	379.5061678004535	68	127
379.27396825396823	379.74997732426306	82	127
379.5061678004535	379.6338775510204	67	127
379.6338775510204	379.74997732426306	65	127
379.74997732426306	379.84285714285716	55	127
379.74997732426306	380.24920634920636	87	127
379.74997732426306	380.0053968253968	63	127
380.0053968253968	380.24920634920636	67	127
380.0053968253968	380.1098866213152	51	127
380.24920634920636	380.4233560090703	68	127
380.24920634920636	380.46979591836737	53	127
380.24920634920636	380.46979591836737	82	127
380.4233560090703	380.46979591836737	65	127
380.46979591836737	380.58589569161	75	127
380.46979591836737	380.58589569161	63	127
380.46979591836737	380.58589569161	87	127
380.46979591836737	380.58589569161	51	127
380.58589569161	380.6903854875283	86	127
380.58589569161	380.6903854875283	51	127
380.58589569161	380.6903854875283	50	127
380.58589569161	380.6903854875283	63	127
380.6903854875283	380.8180952380952	51	127
380.6903854875283	380.8180952380952	87	127
380.6903854875283	380.8180952380952	63	127
380.6903854875283	380.8180952380952	75	127
380.8180952380952	380.93419501133786	50	127
380.8180952380952	380.93419501133786	51	127
380.8180952380952	380.93419501133786	63	127
380.8180952380952	380.93419501133786	86	127
380.93419501133786	381.03868480725623	63	127
380.93419501133786	381.03868480725623	75	127
380.93419501133786	381.15478458049887	51	127
380.93419501133786	381.15478458049887	87	127
381.03868480725623	381.15478458049887	51	127
381.03868480725623	381.15478458049887	63	127
381.15478458049887	381.3985941043084	46	127
381.15478458049887	381.2824943310658	75	127
381.15478458049887	381.25927437641724	82	127
381.15478458049887	381.2824943310658	63	127
381.2824943310658	381.3985941043084	51	127
381.2824943310658	381.3985941043084	63	127
381.3985941043084	381.63079365079363	48	127
381.3985941043084	381.63079365079363	84	127
381.3985941043084	381.514693877551	63	127
381.3985941043084	381.514693877551	75	127
381.514693877551	381.63079365079363	63	127
381.514693877551	381.63079365079363	51	127
381.63079365079363	381.8746031746032	86	127
381.63079365079363	381.8746031746032	50	127
381.63079365079363	381.75850340136054	63	127
381.63079365079363	381.75850340136054	75	127
381.75850340136054	381.8746031746032	63	127
381.75850340136054	381.8746031746032	51	127
381.8746031746032	381.97909297052155	75	127
381.8746031746032	382.10680272108846	87	127
381.8746031746032	382.10680272108846	51	127
381.8746031746032	381.97909297052155	63	127
381.97909297052155	382.10680272108846	63	127
381.97909297052155	382.10680272108846	51	127
382.10680272108846	382.29256235827665	82	127
382.10680272108846	382.22290249433104	63	127
382.10680272108846	382.22290249433104	75	127
382.10680272108846	382.29256235827665	46	127
382.22290249433104	382.29256235827665	51	127
382.22290249433104	382.29256235827665	63	127
382.29256235827665	382.52476190476193	48	127
382.29256235827665	382.4086621315193	63	127
382.29256235827665	382.4086621315193	75	127
382.29256235827665	382.52476190476193	84	127
382.4086621315193	382.52476190476193	63	127
382.4086621315193	382.52476190476193	51	127
382.52476190476193	382.69891156462586	50	127
382.52476190476193	382.5944217687075	63	127
382.52476190476193	382.5944217687075	75	127
382.52476190476193	382.69891156462586	86	127
382.5944217687075	382.69891156462586	51	127
382.5944217687075	382.69891156462586	63	127
382.69891156462586	382.7453514739229	75	127
382.69891156462586	382.7453514739229	63	127
382.69891156462586	382.8730612244898	51	127
382.69891156462586	382.8730612244898	87	127
382.7453514739229	382.8730612244898	63	127
382.7453514739229	382.8730612244898	51	127
382.8730612244898	383.10526077097506	46	127
382.8730612244898	382.9891609977324	75	127
382.8730612244898	382.9891609977324	63	127
382.8730612244898	383.10526077097506	82	127
382.9891609977324	383.10526077097506	51	127
382.9891609977324	383.10526077097506	63	127
383.10526077097506	383.5348299319728	75	127
383.10526077097506	383.5348299319728	84	127
383.10526077097506	383.5348299319728	48	127
383.10526077097506	383.20975056689343	63	127
383.10526077097506	383.5348299319728	67	127
383.10526077097506	383.20975056689343	75	127
383.20975056689343	383.33746031746034	63	127
383.20975056689343	383.33746031746034	51	127
383.33746031746034	383.43034013605444	63	127
383.33746031746034	383.43034013605444	75	127
383.43034013605444	383.5348299319728	63	127
383.43034013605444	383.5348299319728	51	127
383.5348299319728	383.941179138322	67	127
383.5348299319728	383.65092970521545	62	127
383.5348299319728	383.941179138322	74	127
383.5348299319728	383.941179138322	43	127
383.5348299319728	383.65092970521545	74	127
383.5348299319728	383.941179138322	83	127
383.65092970521545	383.7321995464853	62	127
383.65092970521545	383.7321995464853	50	127
383.7321995464853	383.8482993197279	74	127
383.7321995464853	383.8482993197279	62	127
383.8482993197279	383.941179138322	62	127
383.8482993197279	383.941179138322	50	127
383.941179138322	384.1037188208617	48	127
383.941179138322	384.1037188208617	67	127
383.941179138322	384.1037188208617	84	127
383.941179138322	384.1037188208617	75	127
383.941179138322	383.98761904761903	63	127
383.941179138322	383.98761904761903	75	127
383.98761904761903	384.1037188208617	51	127
383.98761904761903	384.1037188208617	63	127
384.1037188208617	384.5681179138322	74	127
384.1037188208617	384.5681179138322	83	127
384.1037188208617	384.5681179138322	43	127
384.1037188208617	384.5681179138322	67	127
384.1037188208617	384.20820861678004	62	127
384.1037188208617	384.20820861678004	74	127
384.20820861678004	384.33591836734695	62	127
384.20820861678004	384.33591836734695	50	127
384.33591836734695	384.4520181405896	74	127
384.33591836734695	384.4520181405896	62	127
384.4520181405896	384.5681179138322	62	127
384.4520181405896	384.5681179138322	50	127
384.5681179138322	384.6609977324263	75	127
384.5681179138322	384.9976870748299	67	127
384.5681179138322	384.9976870748299	84	127
384.5681179138322	384.9976870748299	75	127
384.5681179138322	384.9976870748299	48	127
384.5681179138322	384.6609977324263	63	127
384.6609977324263	384.7654875283447	63	127
384.6609977324263	384.7654875283447	51	127
384.7654875283447	384.8815873015873	75	127
384.7654875283447	384.8815873015873	63	127
384.8815873015873	384.9976870748299	51	127
384.8815873015873	384.9976870748299	63	127
384.9976870748299	385.3227664399093	43	127
384.9976870748299	385.3227664399093	83	127
384.9976870748299	385.3227664399093	67	127
384.9976870748299	385.0325170068027	62	127
384.9976870748299	385.3227664399093	74	127
384.9976870748299	385.0325170068027	74	127
385.0325170068027	385.090566893424	62	127
385.0325170068027	385.090566893424	50	127
385.090566893424	385.20666666666665	74	127
385.090566893424	385.20666666666665	62	127
385.20666666666665	385.3227664399093	62	127
385.20666666666665	385.3227664399093	50	127
385.3227664399093	385.38081632653063	75	127
385.3227664399093	385.74072562358276	84	127
385.3227664399093	385.74072562358276	75	127
385.3227664399093	385.74072562358276	67	127
385.3227664399093	385.74072562358276	48	127
385.3227664399093	385.38081632653063	63	127
385.38081632653063	385.5085260770975	51	127
385.38081632653063	385.5085260770975	63	127
385.5085260770975	385.6246258503401	75	127
385.5085260770975	385.6246258503401	63	127
385.6246258503401	385.74072562358276	51	127
385.6246258503401	385.74072562358276	63	127
385.74072562358276	386.10063492063495	86	127
385.74072562358276	386.10063492063495	77	127
385.74072562358276	385.75233560090703	77	127
385.74072562358276	385.75233560090703	65	127
385.74072562358276	386.10063492063495	46	127
385.75233560090703	385.86843537414967	53	127
385.75233560090703	385.86843537414967	65	127
385.86843537414967	385.9845351473923	77	127
385.86843537414967	385.9845351473923	65	127
385.9845351473923	386.10063492063495	65	127
385.9845351473923	386.10063492063495	53	127
386.10063492063495	386.55342403628117	55	127
386.10063492063495	386.55342403628117	70	127
386.10063492063495	386.55342403628117	55	127
386.10063492063495	386.55342403628117	63	127
386.10063492063495	386.55342403628117	63	127
386.10063492063495	386.55342403628117	39	127
386.10063492063495	386.55342403628117	79	127
386.10063492063495	386.55342403628117	46	127
386.10063492063495	386.55342403628117	87	127
387.0410430839002	387.4938321995465	58	127
387.0410430839002	387.4938321995465	63	127
387.0410430839002	387.4938321995465	51	127
387.0410430839002	387.4938321995465	39	127
387.0410430839002	387.4938321995465	55	127
387.0410430839002	387.4938321995465	55	127
387.4938321995465	387.9814512471655	55	127
387.4938321995465	387.9814512471655	39	127
387.4938321995465	387.9814512471655	55	127
387.4938321995465	387.9814512471655	51	127
387.4938321995465	387.9814512471655	58	127
387.4938321995465	387.9814512471655	63	127
387.9814512471655	388.9915192743764	63	127
387.9814512471655	388.9915192743764	55	127
387.9814512471655	388.9915192743764	55	127
387.9814512471655	388.9915192743764	58	127
387.9814512471655	388.9915192743764	39	127
387.9814512471655	388.9915192743764	51	127
