# onset,offset,note,velocity
0.33589569160997734	0.7422675736961452	53	127
0.33589569160997734	0.7422675736961452	62	127
0.7422675736961452	1.0673469387755101	57	127
0.7422675736961452	1.3692063492063493	65	127
1.0789569160997732	1.4040362811791383	57	127
1.4040362811791383	1.7523356009070294	62	127
1.4040362811791383	1.926485260770975	65	127
1.7639455782312925	2.089024943310658	62	127
2.089024943310658	2.4257142857142857	57	127
2.089024943310658	2.309614512471655	65	127
2.4257142857142857	2.774013605442177	62	127
2.4257142857142857	2.774013605442177	53	127
2.774013605442177	3.122312925170068	57	127
2.774013605442177	3.459002267573696	65	127
3.133922902494331	3.482222222222222	57	127
3.482222222222222	3.807301587301587	62	127
3.482222222222222	3.981451247165533	65	127
3.8189115646258505	4.213650793650793	62	127
4.213650793650793	4.457460317460318	65	127
4.213650793650793	4.5967573696145125	57	127
4.608390022675737	4.968299319727891	62	127
4.608390022675737	4.968299319727891	53	127
4.968299319727891	5.3165986394557825	57	127
4.968299319727891	5.6184580498866215	65	127
5.328208616780046	5.641678004535147	57	127
5.641678004535147	6.059637188208617	62	127
5.641678004535147	6.233786848072563	65	127
6.0712471655328795	6.384716553287982	62	127
6.384716553287982	6.616916099773243	65	127
6.384716553287982	6.779455782312925	57	127
6.802675736961452	7.150975056689342	62	127
6.802675736961452	7.150975056689342	53	127
7.150975056689342	7.464444444444444	57	127
7.150975056689342	7.812743764172335	65	127
7.487664399092971	7.835963718820862	57	127
7.835963718820862	8.1378231292517	62	127
7.835963718820862	8.323582766439909	65	127
8.161043083900227	8.625442176870749	62	127
8.625442176870749	8.985351473922902	65	127
8.625442176870749	9.113061224489796	57	127
9.2059410430839	9.879319727891156	62	127
9.2059410430839	9.879319727891156	53	127
9.2059410430839	9.728390022675738	69	127
9.728390022675738	12.096825396825396	81	127
9.879319727891156	10.181179138321996	57	127
9.879319727891156	10.471428571428572	65	127
10.204399092970522	10.494648526077098	57	127
10.494648526077098	10.982267573696145	65	127
10.494648526077098	10.796507936507936	62	127
10.819727891156463	11.133197278911565	62	127
11.133197278911565	11.330566893424036	65	127
11.133197278911565	11.435056689342403	57	127
11.45827664399093	11.80657596371882	53	127
11.45827664399093	11.80657596371882	62	127
11.80657596371882	12.10843537414966	57	127
11.80657596371882	12.468344671201814	65	127
12.131655328798185	12.503174603174603	57	127
12.131655328798185	12.932743764172336	79	127
12.503174603174603	12.90952380952381	62	127
12.503174603174603	13.083673469387755	65	127
12.932743764172336	13.257823129251701	62	127
12.932743764172336	13.257823129251701	77	127
13.257823129251701	13.455192743764172	65	127
13.257823129251701	13.455192743764172	57	127
13.257823129251701	13.55968253968254	74	127
13.582902494331066	13.931201814058957	53	127
13.582902494331066	13.931201814058957	62	127
13.582902494331066	16.276394557823128	74	127
13.931201814058957	14.77873015873016	65	127
13.931201814058957	14.47687074829932	57	127
14.500090702947846	14.813560090702948	57	127
14.813560090702948	15.150249433106575	62	127
14.813560090702948	15.324399092970522	65	127
15.173469387755102	15.521768707482993	62	127
15.521768707482993	15.846848072562358	57	127
15.521768707482993	15.719138321995464	65	127
15.870068027210884	16.288027210884355	62	127
15.870068027210884	16.288027210884355	53	127
16.288027210884355	16.69437641723356	69	127
16.288027210884355	16.69437641723356	57	127
16.288027210884355	17.031043083900226	65	127
16.717573696145124	17.065895691609978	69	127
16.717573696145124	17.065895691609978	57	127
17.065895691609978	17.414172335600906	74	127
17.065895691609978	17.414172335600906	62	127
17.065895691609978	17.599954648526076	65	127
17.437414965986395	17.774104308390022	74	127
17.437414965986395	17.774104308390022	62	127
17.774104308390022	18.04113378684807	65	127
17.774104308390022	18.04113378684807	57	127
17.774104308390022	18.14562358276644	76	127
18.168843537414965	18.517142857142858	62	127
18.168843537414965	18.517142857142858	53	127
18.168843537414965	19.503968253968253	77	127
18.517142857142858	19.1324716553288	65	127
18.517142857142858	18.83061224489796	57	127
18.853832199546485	19.167301587301587	57	127
19.167301587301587	19.48077097505669	62	127
19.167301587301587	19.67814058956916	65	127
19.503968253968253	19.86390022675737	62	127
19.503968253968253	20.43278911564626	74	127
19.86390022675737	20.44439909297052	57	127
19.86390022675737	20.04965986394558	65	127
20.455986394557822	20.86235827664399	53	127
20.455986394557822	20.560498866213152	72	127
20.455986394557822	20.86235827664399	60	127
20.560498866213152	20.653356009070293	74	127
20.653356009070293	20.78108843537415	72	127
20.78108843537415	20.86235827664399	74	127
20.86235827664399	21.19904761904762	57	127
20.86235827664399	21.61700680272109	65	127
20.86235827664399	21.96530612244898	72	127
21.21065759637188	21.651836734693877	57	127
21.651836734693877	21.953696145124717	60	127
21.651836734693877	22.127845804988663	65	127
21.96530612244898	22.38326530612245	60	127
21.96530612244898	22.38326530612245	69	127
22.38326530612245	22.627074829931974	65	127
22.38326530612245	22.627074829931974	57	127
22.38326530612245	22.789614512471655	72	127
22.789614512471655	23.14952380952381	62	127
22.789614512471655	23.14952380952381	53	127
22.789614512471655	24.879410430839002	74	127
23.14952380952381	23.846122448979592	65	127
23.14952380952381	23.544263038548753	57	127
23.555873015873015	23.88095238095238	57	127
23.88095238095238	24.206031746031748	62	127
23.88095238095238	24.438231292517006	65	127
24.252471655328797	24.60077097505669	62	127
24.60077097505669	24.7865306122449	65	127
24.60077097505669	24.902630385487527	57	127
24.914240362811793	25.401859410430838	53	127
24.914240362811793	25.401859410430838	62	127
25.401859410430838	26.249387755102042	65	127
25.401859410430838	25.947528344671202	57	127
25.959138321995464	26.28421768707483	57	127
25.959138321995464	26.12167800453515	74	127
26.12167800453515	26.28421768707483	69	127
26.28421768707483	26.829886621315193	65	127
26.28421768707483	26.50480725623583	71	127
26.28421768707483	26.644126984126984	62	127
26.50480725623583	26.655736961451247	73	127
26.655736961451247	26.771836734693878	74	127
26.655736961451247	27.062086167800455	62	127
26.771836734693878	26.911156462585033	76	127
26.911156462585033	27.062086167800455	77	127
27.062086167800455	27.27106575963719	57	127
27.062086167800455	27.24784580498866	79	127
27.062086167800455	27.27106575963719	65	127
27.24784580498866	27.66580498866213	80	127
27.66580498866213	27.898004535147393	69	127
27.66580498866213	28.35079365079365	62	127
27.66580498866213	28.35079365079365	53	127
27.898004535147393	31.009478458049887	81	127
28.35079365079365	28.954512471655327	65	127
28.35079365079365	28.65265306122449	57	127
28.664263038548754	28.989342403628118	57	127
28.989342403628118	29.291201814058958	62	127
28.989342403628118	29.4653514739229	65	127
29.30281179138322	29.639501133786847	62	127
29.639501133786847	29.941360544217687	57	127
29.639501133786847	29.825260770975056	65	127
29.95297052154195	30.278049886621314	62	127
29.95297052154195	30.278049886621314	53	127
30.278049886621314	31.032698412698412	57	127
30.278049886621314	31.392607709750568	65	127
31.044308390022675	31.740907029478457	79	127
31.044308390022675	31.427437641723355	57	127
31.427437641723355	31.729297052154195	62	127
31.427437641723355	31.90344671201814	65	127
31.740907029478457	32.07759637188209	62	127
31.740907029478457	32.07759637188209	77	127
32.07759637188209	32.391065759637186	65	127
32.07759637188209	32.391065759637186	57	127
32.07759637188209	32.51877551020408	74	127
32.530362811791385	35.16585034013605	74	127
32.530362811791385	32.95995464852608	62	127
32.530362811791385	32.95995464852608	53	127
32.95995464852608	33.58689342403628	65	127
32.95995464852608	33.261814058956915	57	127
33.27342403628118	33.62172335600907	57	127
33.62172335600907	33.97002267573696	62	127
33.62172335600907	34.16739229024943	65	127
33.981632653061226	34.353151927437644	62	127
34.353151927437644	34.57371882086168	65	127
34.353151927437644	34.7130612244898	57	127
34.72467120181406	35.18907029478458	62	127
34.72467120181406	35.18907029478458	53	127
35.18907029478458	35.560589569160996	57	127
35.18907029478458	35.560589569160996	69	127
35.18907029478458	35.8740589569161	65	127
35.57219954648526	35.90888888888889	69	127
35.57219954648526	35.90888888888889	57	127
35.90888888888889	36.36167800453515	74	127
35.90888888888889	36.36167800453515	62	127
35.90888888888889	36.547437641723356	65	127
36.37328798185941	36.709977324263036	62	127
36.37328798185941	36.709977324263036	76	127
36.709977324263036	36.96539682539682	57	127
36.709977324263036	37.10469387755102	77	127
36.709977324263036	36.96539682539682	65	127
37.11632653061225	38.75331065759637	79	127
37.11632653061225	37.615532879818595	60	127
37.11632653061225	37.615532879818595	52	127
37.615532879818595	38.346984126984125	64	127
37.615532879818595	38.03351473922903	55	127
38.04512471655329	38.37018140589569	55	127
38.37018140589569	38.96231292517007	64	127
38.37018140589569	38.74172335600907	60	127
38.75331065759637	39.113242630385486	77	127
38.75331065759637	39.113242630385486	60	127
39.113242630385486	39.32222222222222	64	127
39.113242630385486	39.46154195011338	76	127
39.113242630385486	39.46154195011338	55	127
39.47315192743764	40.100090702947846	52	127
39.47315192743764	40.100090702947846	60	127
39.47315192743764	40.85473922902494	76	127
40.100090702947846	40.71541950113379	64	127
40.100090702947846	40.41356009070295	55	127
40.425170068027214	40.73863945578231	55	127
40.73863945578231	41.11015873015873	60	127
40.73863945578231	41.42360544217687	64	127
40.90117913832199	41.470068027210885	65	127
41.15659863945578	41.58616780045352	60	127
41.15659863945578	41.470068027210885	74	127
41.470068027210885	41.70226757369615	72	127
41.58616780045352	41.88802721088435	55	127
41.58616780045352	41.88802721088435	65	127
41.70226757369615	42.22471655328798	69	127
42.236326530612246	42.549795918367344	60	127
42.236326530612246	42.549795918367344	52	127
42.236326530612246	44.0707029478458	64	127
42.236326530612246	44.77891156462585	72	127
42.549795918367344	42.86326530612245	55	127
42.549795918367344	43.17673469387755	64	127
42.87487528344671	43.199931972789116	55	127
43.199931972789116	43.50181405895692	64	127
43.199931972789116	43.68757369614512	64	127
43.52503401360544	43.83850340136055	64	127
43.83850340136055	44.140362811791384	55	127
43.83850340136055	44.035873015873015	64	127
44.16358276643991	44.48866213151928	60	127
44.16358276643991	44.48866213151928	52	127
44.48866213151928	44.802131519274376	55	127
44.48866213151928	45.2665306122449	64	127
44.81374149659864	45.31297052154195	55	127
45.31297052154195	46.125668934240366	64	127
45.31297052154195	45.939909297052154	64	127
45.951519274376416	46.6481179138322	55	127
46.6481179138322	46.938367346938776	67	127
46.6481179138322	46.938367346938776	52	127
47.309886621315194	50.40975056689342	69	127
47.309886621315194	47.855555555555554	74	127
47.309886621315194	47.855555555555554	65	127
47.855555555555554	48.470884353741496	77	127
47.855555555555554	48.22707482993197	69	127
48.27351473922902	48.58698412698413	69	127
48.58698412698413	48.900453514739226	74	127
48.58698412698413	48.98172335600907	77	127
48.92367346938776	49.23714285714286	74	127
49.23714285714286	49.446122448979594	77	127
49.23714285714286	49.57383219954649	69	127
49.59705215419501	49.991791383219955	74	127
49.59705215419501	49.991791383219955	65	127
49.991791383219955	50.421360544217684	69	127
49.991791383219955	50.61873015873016	77	127
50.444580498866216	50.758049886621315	69	127
50.444580498866216	51.16439909297052	67	127
50.758049886621315	51.15278911564626	74	127
50.758049886621315	51.2340589569161	77	127
51.16439909297052	51.640408163265306	74	127
51.16439909297052	51.640408163265306	65	127
51.640408163265306	52.03514739229025	69	127
51.640408163265306	51.860997732426306	77	127
51.640408163265306	52.03514739229025	62	127
52.04675736961451	52.6156462585034	74	127
52.04675736961451	52.6156462585034	65	127
52.04675736961451	54.740272108843534	62	127
52.6156462585034	52.940725623582765	69	127
52.6156462585034	53.1497052154195	77	127
52.95233560090703	53.277414965986395	69	127
53.277414965986395	53.63732426303855	77	127
53.277414965986395	53.55605442176871	74	127
53.56766439909297	53.91596371882086	74	127
53.91596371882086	54.33392290249433	69	127
53.91596371882086	54.206213151927436	77	127
54.357142857142854	54.751882086167804	74	127
54.357142857142854	54.751882086167804	65	127
54.751882086167804	55.355600907029476	77	127
54.751882086167804	55.135011337868484	69	127
54.751882086167804	55.135011337868484	57	127
55.146621315192746	55.506530612244894	69	127
55.146621315192746	55.506530612244894	57	127
55.506530612244894	55.82	74	127
55.506530612244894	55.82	62	127
55.506530612244894	55.901269841269844	77	127
55.83160997732426	56.179909297052156	74	127
55.83160997732426	56.179909297052156	62	127
56.179909297052156	56.43532879818594	77	127
56.179909297052156	56.563038548752836	69	127
56.179909297052156	56.563038548752836	64	127
56.5746485260771	56.96938775510204	65	127
56.5746485260771	58.23487528344671	65	127
56.5746485260771	56.96938775510204	74	127
56.96938775510204	57.28285714285714	69	127
56.96938775510204	57.549886621315196	77	127
57.29446712018141	57.77047619047619	69	127
57.77047619047619	58.18843537414966	74	127
57.77047619047619	58.54834467120181	77	127
58.23487528344671	58.95469387755102	74	127
58.23487528344671	59.291383219954646	62	127
58.95469387755102	59.30299319727891	69	127
58.95469387755102	59.186893424036285	77	127
59.31460317460318	59.75578231292517	65	127
59.31460317460318	59.47714285714286	60	127
59.31460317460318	59.75578231292517	72	127
59.47714285714286	59.59324263038549	62	127
59.59324263038549	59.674512471655326	60	127
59.674512471655326	59.75578231292517	62	127
59.75578231292517	60.06925170068027	69	127
59.75578231292517	60.278231292517006	77	127
59.75578231292517	60.73102040816327	60	127
60.08086167800454	60.4059410430839	69	127
60.4059410430839	60.928390022675735	77	127
60.4059410430839	60.82390022675737	72	127
60.83551020408163	61.29990929705215	72	127
60.83551020408163	61.29990929705215	57	127
61.29990929705215	61.68303854875283	60	127
61.29990929705215	61.55532879818594	77	127
61.29990929705215	61.68303854875283	69	127
61.694648526077096	62.20548752834467	74	127
61.694648526077096	62.20548752834467	65	127
61.694648526077096	64.07469387755103	62	127
62.20548752834467	62.50734693877551	69	127
62.20548752834467	62.71632653061224	77	127
62.518956916099775	62.844036281179136	69	127
62.844036281179136	63.23877551020408	74	127
62.844036281179136	63.32004535147392	77	127
63.25038548752835	63.65673469387755	74	127
63.65673469387755	63.935374149659864	77	127
63.65673469387755	64.15596371882086	69	127
64.16757369614513	64.50426303854876	74	127
64.16757369614513	64.50426303854876	65	127
64.50426303854876	65.34018140589569	77	127
64.50426303854876	64.91061224489796	69	127
64.92222222222222	65.3053514739229	62	127
64.92222222222222	65.47950113378685	69	127
65.3053514739229	65.47950113378685	57	127
65.47950113378685	65.63043083900227	58	127
65.47950113378685	65.79297052154195	74	127
65.47950113378685	65.87424036281179	77	127
65.63043083900227	65.80458049886622	60	127
65.80458049886622	66.16448979591837	74	127
65.80458049886622	65.90907029478458	62	127
65.90907029478458	66.02517006802721	64	127
66.02517006802721	66.16448979591837	65	127
66.16448979591837	66.94235827664399	69	127
66.16448979591837	66.53600907029478	67	127
66.16448979591837	66.5940589569161	77	127
66.53600907029478	66.91913832199546	68	127
67.0352380952381	67.55768707482993	74	127
67.0352380952381	67.55768707482993	65	127
67.0352380952381	67.90598639455783	69	127
67.55768707482993	67.89437641723356	69	127
67.55768707482993	68.1033560090703	77	127
67.90598639455783	68.38199546485261	69	127
67.90598639455783	70.18154195011338	69	127
68.38199546485261	68.76512471655329	74	127
68.38199546485261	68.84639455782313	77	127
68.77673469387756	69.09020408163265	74	127
69.09020408163265	69.42689342403628	69	127
69.09020408163265	69.31079365079366	77	127
69.43850340136055	69.84485260770975	65	127
69.43850340136055	69.84485260770975	74	127
69.84485260770975	70.16993197278912	69	127
69.84485260770975	70.37891156462585	77	127
70.18154195011338	70.91297052154195	69	127
70.18154195011338	71.24965986394558	67	127
70.91297052154195	71.23804988662131	74	127
70.91297052154195	71.3077097505669	77	127
71.24965986394558	71.65600907029479	74	127
71.24965986394558	71.65600907029479	65	127
71.65600907029479	71.91142857142857	77	127
71.65600907029479	72.0275283446712	69	127
71.65600907029479	72.0275283446712	62	127
72.03913832199547	72.42226757369615	74	127
72.03913832199547	72.42226757369615	65	127
72.03913832199547	74.66299319727891	62	127
72.42226757369615	72.80539682539683	69	127
72.42226757369615	73.0027664399093	77	127
72.81698412698412	73.2001133786848	69	127
73.2001133786848	73.57165532879819	74	127
73.2001133786848	73.66453514739229	77	127
73.58324263038548	73.91995464852607	74	127
73.91995464852607	74.11732426303855	77	127
73.91995464852607	74.2566439909297	69	127
74.27986394557823	74.67460317460318	74	127
74.27986394557823	74.67460317460318	65	127
74.67460317460318	75.11578231292518	69	127
74.67460317460318	75.11578231292518	57	127
74.67460317460318	75.37120181405896	77	127
75.17383219954648	75.48730158730159	69	127
75.17383219954648	75.48730158730159	57	127
75.48730158730159	75.85879818594104	77	127
75.48730158730159	75.83560090702947	74	127
75.48730158730159	75.83560090702947	62	127
75.85879818594104	76.27678004535147	74	127
75.85879818594104	76.27678004535147	64	127
75.85879818594104	76.27678004535147	79	127
76.27678004535147	76.88047619047619	81	127
76.27678004535147	76.92693877551021	69	127
76.27678004535147	76.92693877551021	65	127
76.95015873015873	77.34489795918367	72	127
76.95015873015873	78.5291156462585	67	127
76.95015873015873	77.34489795918367	64	127
77.34489795918367	77.82090702947846	67	127
77.34489795918367	78.05310657596372	76	127
77.84412698412699	78.18081632653062	67	127
78.18081632653062	78.49428571428571	72	127
78.18081632653062	78.59877551020408	76	127
78.5291156462585	78.9702947845805	72	127
78.5291156462585	78.9702947845805	65	127
78.9702947845805	79.23732426303854	76	127
78.9702947845805	79.34181405895691	67	127
78.9702947845805	79.34181405895691	64	127
79.36503401360544	79.69011337868481	64	127
79.36503401360544	79.69011337868481	72	127
79.36503401360544	80.78145124716553	64	127
79.69011337868481	80.06163265306122	67	127
79.69011337868481	80.29383219954649	76	127
80.08485260770975	80.45637188208617	67	127
80.45637188208617	80.92074829931973	76	127
80.45637188208617	80.82789115646258	72	127
80.86272108843538	81.33873015873016	64	127
80.86272108843538	81.44321995464853	72	127
81.33873015873016	81.71024943310658	60	127
81.44321995464853	81.80312925170068	84	127
81.44321995464853	81.93083900226758	65	127
81.71024943310658	81.94242630385487	57	127
81.9540589569161	84.41537414965987	60	127
81.9540589569161	82.4881179138322	72	127
81.9540589569161	82.4881179138322	64	127
82.4881179138322	83.17310657596371	76	127
82.4881179138322	82.98734693877552	67	127
83.01056689342404	83.28920634920635	67	127
83.28920634920635	83.61428571428571	72	127
83.28920634920635	83.69555555555556	76	127
83.63750566893424	83.98578231292517	72	127
83.98578231292517	84.24120181405895	76	127
83.98578231292517	84.38054421768707	67	127
84.41537414965987	84.87977324263039	64	127
84.41537414965987	84.87977324263039	72	127
84.41537414965987	85.13519274376418	60	127
84.87977324263039	85.23965986394558	67	127
84.87977324263039	85.4718820861678	76	127
85.27451247165533	85.59959183673469	67	127
85.59959183673469	86.11043083900226	72	127
85.59959183673469	86.1917006802721	76	127
86.12204081632653	86.48195011337869	72	127
86.48195011337869	86.71414965986395	76	127
86.48195011337869	86.84185941043084	67	127
86.8534693877551	87.48040816326531	67	127
86.8534693877551	87.28301587301587	52	127
86.8534693877551	87.48040816326531	49	127
86.8534693877551	88.31632653061224	79	127
86.8534693877551	88.31632653061224	70	127
87.28301587301587	87.65455782312925	55	127
87.66614512471655	88.00285714285714	55	127
88.00285714285714	88.30471655328799	58	127
88.31632653061224	88.69945578231292	57	127
88.31632653061224	88.69945578231292	77	127
88.69945578231292	88.9897052154195	76	127
88.69945578231292	89.07097505668935	55	127
89.0825850340136	90.52222222222223	70	127
89.0825850340136	89.53537414965986	52	127
89.0825850340136	90.52222222222223	79	127
89.53537414965986	89.83723356009071	55	127
89.84884353741496	90.26680272108844	55	127
90.26680272108844	90.56866213151928	58	127
90.5918820861678	90.88213151927438	77	127
90.5918820861678	91.42780045351473	69	127
90.5918820861678	91.0330612244898	57	127
90.88213151927438	91.14916099773242	81	127
91.0330612244898	91.4509977324263	55	127
91.14916099773242	91.42780045351473	76	127
91.46263038548753	92.08954648526077	52	127
91.46263038548753	92.40303854875283	58	127
91.46263038548753	93.73818594104308	79	127
91.46263038548753	93.73818594104308	70	127
92.08954648526077	92.39142857142858	55	127
92.40303854875283	93.08802721088435	64	127
92.40303854875283	92.73972789115646	55	127
92.73972789115646	93.0764172335601	58	127
93.08802721088435	93.42471655328798	65	127
93.08802721088435	93.42471655328798	57	127
93.42471655328798	93.72655328798186	55	127
93.42471655328798	93.72655328798186	64	127
93.73818594104308	94.38832199546485	52	127
93.73818594104308	94.70181405895691	67	127
94.38832199546485	94.69020408163266	55	127
94.70181405895691	95.65383219954649	76	127
94.70181405895691	95.05011337868481	55	127
95.05011337868481	95.3635827664399	58	127
95.37519274376417	95.70027210884354	57	127
95.37519274376417	95.88603174603175	79	127
95.70027210884354	96.03696145124717	67	127
95.70027210884354	96.03696145124717	55	127
96.09501133786848	97.63913832199546	79	127
96.09501133786848	96.66390022675736	52	127
96.09501133786848	96.84965986394558	67	127
96.09501133786848	97.63913832199546	70	127
96.66390022675736	96.97736961451247	55	127
96.98897959183674	97.32566893424037	55	127
97.32566893424037	97.6275283446712	58	127
97.63913832199546	98.02226757369614	77	127
97.63913832199546	98.02226757369614	57	127
98.02226757369614	98.2892970521542	76	127
98.02226757369614	98.33573696145125	55	127
98.34734693877552	98.84657596371882	52	127
98.34734693877552	99.78698412698412	70	127
98.34734693877552	99.78698412698412	79	127
98.84657596371882	99.18326530612245	55	127
99.1948752834467	99.51995464852608	55	127
99.51995464852608	99.84503401360544	58	127
99.85664399092971	100.2049433106576	57	127
99.85664399092971	100.04240362811791	77	127
99.85664399092971	100.03079365079365	69	127
100.04240362811791	100.19333333333333	81	127
100.2049433106576	100.47197278911564	81	127
100.2049433106576	100.6461224489796	55	127
100.47197278911564	100.65773242630385	76	127
100.65773242630385	103.04938775510205	79	127
100.65773242630385	101.34272108843537	52	127
100.65773242630385	101.66780045351474	58	127
100.65773242630385	103.04938775510205	70	127
101.34272108843537	101.65619047619047	55	127
101.66780045351474	102.32956916099774	64	127
101.66780045351474	101.98126984126984	55	127
101.98126984126984	102.31795918367347	58	127
102.32956916099774	102.72430839002267	57	127
102.32956916099774	102.72430839002267	65	127
102.72430839002267	103.07260770975057	55	127
102.72430839002267	103.07260770975057	64	127
103.08421768707483	103.78081632653061	67	127
103.08421768707483	104.52385487528345	70	127
103.08421768707483	103.39768707482993	52	127
103.08421768707483	104.52385487528345	79	127
103.39768707482993	103.80403628117914	55	127
103.8156462585034	104.48902494331065	76	127
103.8156462585034	104.15233560090702	55	127
104.15233560090702	104.51224489795918	58	127
104.52385487528345	104.83732426303855	59	127
104.52385487528345	105.19723356009071	80	127
104.52385487528345	105.19723356009071	71	127
104.52385487528345	105.19723356009071	77	127
104.83732426303855	105.22045351473923	53	127
105.23206349206349	106.17247165532879	77	127
105.23206349206349	105.56875283446712	53	127
105.23206349206349	105.87061224489796	81	127
105.23206349206349	106.17247165532879	72	127
105.56875283446712	105.88222222222223	57	127
105.90544217687075	106.55560090702947	57	127
105.90544217687075	106.84585034013605	84	127
106.55560090702947	106.88068027210885	81	127
106.55560090702947	106.85746031746032	60	127
106.88068027210885	107.18253968253968	82	127
106.88068027210885	107.19414965986394	79	127
106.88068027210885	107.19414965986394	60	127
107.19414965986394	107.49600907029479	77	127
107.19414965986394	107.49600907029479	81	127
107.19414965986394	107.49600907029479	53	127
107.56566893424036	107.7398185941043	62	127
107.56566893424036	108.07650793650794	50	127
107.56566893424036	109.04013605442177	62	127
107.56566893424036	109.10979591836735	74	127
107.7398185941043	108.47124716553287	79	127
108.07650793650794	108.44802721088435	53	127
108.47124716553287	108.78471655328798	53	127
108.47124716553287	109.07496598639456	77	127
108.78471655328798	109.08657596371881	62	127
109.10979591836735	109.7831746031746	74	127
109.10979591836735	109.42326530612245	62	127
109.10979591836735	109.7831746031746	70	127
109.10979591836735	109.7831746031746	62	127
109.42326530612245	109.79478458049887	53	127
109.8180045351474	112.56956916099773	69	127
109.8180045351474	110.1314739229025	53	127
109.8180045351474	112.56956916099773	65	127
109.8180045351474	112.16321995464853	74	127
110.1314739229025	110.50299319727891	57	127
110.52621315192744	110.86290249433107	57	127
110.86290249433107	111.1995918367347	62	127
111.22281179138322	111.53628117913833	62	127
111.53628117913833	111.83814058956916	57	127
111.86136054421769	112.1748299319728	53	127
112.1748299319728	112.581179138322	69	127
112.1748299319728	112.581179138322	57	127
112.60439909297052	113.6144671201814	65	127
112.60439909297052	113.23133786848072	69	127
112.60439909297052	113.23133786848072	57	127
112.60439909297052	113.6144671201814	69	127
113.23133786848072	113.62607709750567	74	127
113.23133786848072	113.62607709750567	62	127
113.66090702947845	114.07886621315193	62	127
113.66090702947845	114.07886621315193	76	127
113.66090702947845	114.39233560090703	69	127
113.66090702947845	114.39233560090703	65	127
114.07886621315193	114.40394557823129	77	127
114.07886621315193	114.40394557823129	57	127
114.42716553287981	117.13229024943311	81	127
114.42716553287981	114.94961451247165	53	127
114.42716553287981	115.92485260770975	69	127
114.42716553287981	115.92485260770975	65	127
114.94961451247165	115.30952380952381	57	127
115.33274376417233	115.6578231292517	57	127
115.6578231292517	115.9712925170068	65	127
115.99451247165533	117.43414965986395	69	127
115.99451247165533	116.42408163265306	65	127
115.99451247165533	117.43414965986395	77	127
116.42408163265306	116.74916099773243	57	127
116.77238095238096	117.14390022675737	53	127
117.14390022675737	117.4457596371882	77	127
117.14390022675737	117.4457596371882	57	127
117.46897959183673	117.80566893424036	77	127
117.46897959183673	117.80566893424036	57	127
117.46897959183673	118.14235827664399	69	127
117.46897959183673	118.14235827664399	77	127
117.80566893424036	118.15396825396826	79	127
117.80566893424036	118.15396825396826	65	127
118.17718820861678	118.60675736961451	81	127
118.17718820861678	118.60675736961451	65	127
118.17718820861678	119.00149659863946	69	127
118.17718820861678	119.00149659863946	77	127
118.60675736961451	119.01310657596372	84	127
118.60675736961451	119.01310657596372	57	127
119.02471655328799	121.04485260770976	84	127
119.02471655328799	119.46589569160997	57	127
119.02471655328799	121.04485260770976	76	127
119.02471655328799	121.04485260770976	72	127
119.46589569160997	119.76775510204082	64	127
119.77936507936508	120.12766439909296	64	127
120.12766439909296	120.45274376417234	69	127
120.47596371882086	120.82426303854875	69	127
120.82426303854875	121.13773242630386	64	127
121.14934240362811	121.8459410430839	58	127
121.14934240362811	122.159410430839	86	127
121.14934240362811	122.77473922902495	74	127
121.14934240362811	122.77473922902495	82	127
121.8459410430839	122.14780045351473	62	127
122.159410430839	122.77473922902495	91	127
122.159410430839	122.47287981859411	62	127
122.47287981859411	122.76312925170068	70	127
122.77473922902495	123.0998185941043	70	127
122.77473922902495	123.39006802721089	82	127
122.77473922902495	123.39006802721089	79	127
122.77473922902495	123.39006802721089	70	127
123.0998185941043	123.40167800453514	62	127
123.41328798185941	123.83124716553289	82	127
123.41328798185941	123.83124716553289	79	127
123.41328798185941	123.83124716553289	70	127
123.41328798185941	123.83124716553289	53	127
123.83124716553289	124.44657596371881	77	127
123.83124716553289	124.44657596371881	69	127
123.83124716553289	124.44657596371881	60	127
123.83124716553289	124.45818594104308	81	127
124.45818594104308	125.8978231292517	69	127
124.45818594104308	124.95741496598639	60	127
124.45818594104308	125.8978231292517	77	127
124.45818594104308	126.28095238095239	84	127
124.95741496598639	125.2708843537415	65	127
125.28249433106576	125.64240362811792	65	127
125.64240362811792	125.94426303854875	60	127
125.95587301587301	127.98761904761905	75	127
125.95587301587301	126.30417233560091	55	127
125.95587301587301	127.98761904761905	67	127
126.30417233560091	126.62925170068027	63	127
126.30417233560091	126.64086167800454	82	127
126.64086167800454	126.95433106575963	79	127
126.64086167800454	126.9659410430839	63	127
126.9659410430839	127.31424036281179	67	127
126.9659410430839	127.32585034013606	75	127
127.32585034013606	127.75541950113379	79	127
127.32585034013606	127.76702947845806	67	127
127.76702947845806	128.0688888888889	82	127
127.76702947845806	128.0688888888889	55	127
128.08049886621316	130.34444444444443	65	127
128.08049886621316	128.80031746031747	57	127
128.08049886621316	130.34444444444443	74	127
128.08049886621316	130.4257142857143	81	127
128.80031746031747	129.1021768707483	62	127
129.1137641723356	129.4504761904762	62	127
129.4504761904762	129.75233560090703	69	127
129.7639455782313	130.1122448979592	69	127
130.1122448979592	130.4489342403628	62	127
130.46054421768707	132.2136507936508	65	127
130.46054421768707	131.1687528344671	62	127
130.46054421768707	131.48222222222222	79	127
130.46054421768707	132.2136507936508	74	127
131.1687528344671	131.47061224489795	67	127
131.48222222222222	132.2136507936508	77	127
131.48222222222222	131.81891156462586	67	127
131.81891156462586	132.20204081632653	62	127
132.2136507936508	133.07278911564626	74	127
132.2136507936508	132.67804988662132	62	127
132.2136507936508	133.07278911564626	67	127
132.67804988662132	133.0960090702948	65	127
133.10761904761904	135.3251247165533	72	127
133.10761904761904	133.54879818594105	65	127
133.10761904761904	134.98843537414967	69	127
133.10761904761904	134.98843537414967	65	127
133.54879818594105	134.04802721088436	60	127
134.05963718820863	134.54725623582766	60	127
134.54725623582766	134.96521541950113	65	127
134.98843537414967	135.3251247165533	65	127
134.98843537414967	135.61537414965986	77	127
134.98843537414967	135.61537414965986	69	127
135.3251247165533	135.6385941043084	60	127
135.3251247165533	135.6385941043084	81	127
135.65020408163267	137.54263038548754	69	127
135.65020408163267	136.02172335600906	60	127
135.65020408163267	137.6006575963719	81	127
135.65020408163267	137.6006575963719	72	127
135.65020408163267	137.54263038548754	76	127
136.02172335600906	136.32356009070295	64	127
136.33519274376417	136.6718820861678	64	127
136.6718820861678	136.98532879818595	60	127
136.99696145124716	137.31043083900227	60	127
137.31043083900227	137.62390022675737	64	127
137.63551020408164	140.92111111111112	69	127
137.63551020408164	138.04185941043085	60	127
137.63551020408164	140.92111111111112	77	127
137.63551020408164	141.55968253968254	65	127
137.63551020408164	141.55968253968254	72	127
138.04185941043085	139.02868480725624	65	127
139.04031746031745	139.35378684807256	65	127
139.35378684807256	139.64401360544218	60	127
139.6556462585034	139.98072562358277	60	127
139.98072562358277	140.29419501133788	65	127
140.30578231292517	140.6308843537415	65	127
140.6308843537415	140.9443537414966	60	127
140.95596371882087	141.29265306122448	69	127
140.95596371882087	141.29265306122448	60	127
141.29265306122448	141.6061224489796	57	127
141.29265306122448	141.6061224489796	72	127
141.62934240362813	142.66260770975057	72	127
141.62934240362813	142.66260770975057	57	127
142.66260770975057	143.06895691609978	53	127
142.66260770975057	143.06895691609978	69	127
143.080589569161	143.301179138322	70	127
143.080589569161	143.60303854875283	64	127
143.080589569161	144.16031746031746	49	127
143.080589569161	144.845306122449	67	127
143.301179138322	143.3940589569161	72	127
143.3940589569161	143.521768707483	70	127
143.521768707483	143.60303854875283	72	127
143.60303854875283	143.7075283446712	70	127
143.60303854875283	143.97455782312926	55	127
143.7075283446712	143.78879818594103	72	127
143.78879818594103	143.88167800453516	70	127
143.88167800453516	143.98614512471656	72	127
143.98614512471656	144.1138775510204	70	127
143.98614512471656	144.38090702947846	55	127
144.1138775510204	144.1951247165533	72	127
144.1951247165533	144.28802721088437	70	127
144.28802721088437	144.38090702947846	72	127
144.38090702947846	144.83369614512472	58	127
144.38090702947846	144.45054421768708	70	127
144.45054421768708	144.53183673469388	72	127
144.53183673469388	144.63632653061225	70	127
144.63632653061225	144.845306122449	72	127
144.845306122449	144.92657596371882	70	127
144.845306122449	144.97301587301587	49	127
144.845306122449	145.22843537414965	57	127
144.845306122449	145.22843537414965	65	127
144.92657596371882	145.04267573696146	72	127
145.04267573696146	145.19360544217687	49	127
145.04267573696146	145.14716553287982	70	127
145.14716553287982	145.22843537414965	72	127
145.22843537414965	145.61156462585035	55	127
145.22843537414965	145.41419501133788	49	127
145.22843537414965	145.61156462585035	64	127
145.22843537414965	145.3445351473923	70	127
145.3445351473923	145.4374149659864	72	127
145.4374149659864	145.54190476190476	70	127
145.4374149659864	145.5883446712018	49	127
145.54190476190476	145.62315192743765	72	127
145.62315192743765	145.99469387755101	64	127
145.62315192743765	145.73927437641723	70	127
145.62315192743765	146.49390022675738	49	127
145.62315192743765	147.0395918367347	67	127
145.73927437641723	145.8205442176871	72	127
145.8205442176871	145.91342403628119	70	127
145.91342403628119	145.99469387755101	72	127
145.99469387755101	146.34297052154196	55	127
145.99469387755101	146.0643537414966	70	127
146.0643537414966	146.14562358276643	72	127
146.14562358276643	146.2501133786848	70	127
146.2501133786848	146.35460317460317	72	127
146.35460317460317	146.43587301587303	70	127
146.35460317460317	146.74931972789116	55	127
146.43587301587303	146.52875283446713	72	127
146.52875283446713	146.656462585034	70	127
146.656462585034	146.74931972789116	72	127
146.74931972789116	146.84222222222223	70	127
146.74931972789116	147.08603174603175	58	127
146.84222222222223	146.92349206349206	72	127
146.92349206349206	147.01637188208616	70	127
147.01637188208616	147.09764172335602	72	127
147.09764172335602	147.24857142857144	70	127
147.09764172335602	147.2950113378685	49	127
147.09764172335602	147.3878911564626	65	127
147.09764172335602	147.52721088435374	57	127
147.24857142857144	147.32984126984127	72	127
147.32984126984127	147.43433106575964	70	127
147.32984126984127	147.49238095238096	49	127
147.3878911564626	147.89873015873016	69	127
147.43433106575964	147.52721088435374	72	127
147.52721088435374	147.91034013605443	49	127
147.52721088435374	147.98	69	127
147.52721088435374	148.16575963718822	55	127
147.89873015873016	148.16575963718822	64	127
147.98	148.17734693877551	70	127
147.98	148.14253968253968	49	127
148.17734693877551	149.09455782312926	49	127
148.17734693877551	148.59532879818593	64	127
148.17734693877551	148.96684807256236	70	127
148.17734693877551	151.06825396825397	67	127
148.59532879818593	148.9552380952381	55	127
148.96684807256236	149.73310657596372	76	127
148.96684807256236	149.30351473922903	55	127
149.30351473922903	149.72149659863945	58	127
149.73310657596372	150.0697732426304	77	127
149.73310657596372	150.0697732426304	57	127
149.73310657596372	149.86081632653062	49	127
149.90725623582767	150.04657596371882	49	127
150.0697732426304	150.19750566893424	49	127
150.0697732426304	150.3948752834467	76	127
150.0697732426304	150.3948752834467	55	127
150.2439455782313	150.3716553287982	49	127
150.40648526077098	151.10308390022675	79	127
150.40648526077098	150.73156462585035	64	127
150.40648526077098	151.24240362811793	49	127
150.73156462585035	151.09145124716554	55	127
151.10308390022675	151.42816326530613	55	127
151.10308390022675	152.05510204081634	88	127
151.42816326530613	151.73002267573696	58	127
151.74163265306123	152.05510204081634	57	127
151.74163265306123	151.8693424036281	49	127
151.74163265306123	152.4265986394558	67	127
151.90417233560092	152.0318820861678	49	127
152.05510204081634	152.18281179138322	49	127
152.05510204081634	152.438231292517	55	127
152.05510204081634	152.438231292517	79	127
152.29891156462585	152.4265986394558	49	127
152.47303854875284	154.26097505668935	67	127
152.47303854875284	152.63560090702947	82	127
152.47303854875284	153.04195011337868	64	127
152.47303854875284	153.68049886621316	49	127
152.63560090702947	152.74009070294784	84	127
152.74009070294784	152.832947845805	82	127
152.832947845805	153.04195011337868	84	127
153.04195011337868	153.11160997732426	82	127
153.04195011337868	153.51795918367347	55	127
153.11160997732426	153.21609977324263	84	127
153.21609977324263	153.30897959183673	82	127
153.30897959183673	153.541179138322	84	127
153.541179138322	153.86625850340135	55	127
153.541179138322	153.62244897959184	82	127
153.62244897959184	153.71532879818594	84	127
153.71532879818594	153.78498866213152	82	127
153.78498866213152	153.86625850340135	84	127
153.86625850340135	153.97074829931972	82	127
153.86625850340135	154.23777777777778	58	127
153.97074829931972	154.0752380952381	84	127
154.0752380952381	154.1681179138322	82	127
154.1681179138322	154.26097505668935	84	127
154.26097505668935	154.64412698412698	57	127
154.26097505668935	154.40031746031747	82	127
154.26097505668935	154.44675736961452	49	127
154.26097505668935	154.64412698412698	65	127
154.40031746031747	154.4815873015873	84	127
154.4815873015873	154.6208843537415	49	127
154.4815873015873	154.56285714285715	82	127
154.56285714285715	154.64412698412698	84	127
154.64412698412698	154.76022675736962	82	127
154.64412698412698	154.81827664399094	49	127
154.64412698412698	155.0156462585034	64	127
154.64412698412698	155.0156462585034	55	127
154.76022675736962	154.864716553288	84	127
154.864716553288	155.00403628117914	49	127
154.864716553288	154.9575963718821	82	127
154.9575963718821	155.03886621315192	84	127
155.03886621315192	156.46689342403627	67	127
155.03886621315192	155.13172335600908	82	127
155.03886621315192	155.4219954648526	64	127
155.03886621315192	155.90961451247165	49	127
155.13172335600908	155.22462585034015	84	127
155.22462585034015	155.31750566893425	82	127
155.31750566893425	155.4219954648526	84	127
155.4219954648526	155.73546485260772	55	127
155.4219954648526	155.50326530612244	82	127
155.50326530612244	155.57292517006803	84	127
155.57292517006803	155.65419501133786	82	127
155.65419501133786	155.7702947845805	84	127
155.7702947845805	155.8631746031746	82	127
155.7702947845805	156.14181405895692	55	127
155.8631746031746	155.96766439909297	84	127
155.96766439909297	156.06054421768707	82	127
156.06054421768707	156.14181405895692	84	127
156.14181405895692	156.28113378684807	82	127
156.14181405895692	156.51331065759638	58	127
156.28113378684807	156.37401360544217	84	127
156.37401360544217	156.45528344671203	82	127
156.45528344671203	156.53655328798186	84	127
156.53655328798186	156.89646258503402	57	127
156.53655328798186	156.61780045351475	82	127
156.53655328798186	156.6642403628118	49	127
156.53655328798186	156.69909297052155	65	127
156.61780045351475	156.69909297052155	84	127
156.69909297052155	156.8151927437642	82	127
156.69909297052155	156.86163265306124	49	127
156.69909297052155	156.89646258503402	69	127
156.8151927437642	156.89646258503402	84	127
156.89646258503402	157.04739229024943	49	127
156.89646258503402	157.10544217687075	81	127
156.89646258503402	157.10544217687075	69	127
156.89646258503402	157.25637188208617	55	127
157.10544217687075	157.2447619047619	49	127
157.10544217687075	157.27956916099774	82	127
157.10544217687075	157.26798185941044	64	127
157.27956916099774	158.35931972789115	49	127
157.27956916099774	158.23160997732427	82	127
157.27956916099774	157.73238095238096	64	127
157.27956916099774	160.19367346938776	67	127
157.73238095238096	158.20839002267573	67	127
158.23160997732427	158.54507936507937	67	127
158.23160997732427	158.8469387755102	88	127
158.54507936507937	158.85854875283448	70	127
158.881768707483	159.24167800453515	70	127
158.881768707483	159.0326984126984	49	127
158.881768707483	159.24167800453515	89	127
159.05591836734695	159.20684807256237	49	127
159.24167800453515	159.54353741496598	88	127
159.24167800453515	159.54353741496598	67	127
159.24167800453515	159.3809977324263	49	127
159.4158276643991	159.53190476190477	49	127
159.56675736961452	160.37945578231293	49	127
159.56675736961452	159.89183673469387	64	127
159.56675736961452	160.2285260770975	88	127
159.89183673469387	160.20530612244897	70	127
160.2285260770975	160.62326530612245	70	127
160.2285260770975	161.2385941043084	89	127
160.2285260770975	161.8771201814059	68	127
160.62326530612245	160.93673469387755	71	127
160.95993197278912	161.28503401360544	71	127
160.95993197278912	161.09927437641724	49	127
161.12249433106575	161.25020408163266	49	127
161.28503401360544	161.92358276643992	65	127
161.28503401360544	161.66816326530613	49	127
161.28503401360544	161.92358276643992	89	127
161.70299319727891	161.91197278911565	49	127
161.94680272108843	162.48086167800454	65	127
161.94680272108843	162.92204081632653	89	127
161.94680272108843	162.92204081632653	69	127
161.94680272108843	163.04975056689344	53	127
162.48086167800454	162.89882086167802	69	127
162.92204081632653	163.53736961451247	72	127
162.92204081632653	163.2471201814059	65	127
162.92204081632653	163.53736961451247	93	127
163.2471201814059	163.54897959183674	60	127
163.57219954648525	163.75795918367348	53	127
163.57219954648525	164.10625850340136	91	127
163.57219954648525	164.10625850340136	65	127
163.57219954648525	164.10625850340136	70	127
163.82761904761904	164.07142857142858	53	127
164.10625850340136	164.41972789115647	72	127
164.10625850340136	164.2455782312925	53	127
164.10625850340136	164.41972789115647	69	127
164.10625850340136	164.41972789115647	89	127
164.28038548752835	164.4081179138322	53	127
164.44294784580498	165.05827664399092	88	127
164.44294784580498	164.76802721088436	72	127
164.44294784580498	165.09310657596373	67	127
164.44294784580498	165.27886621315193	58	127
164.76802721088436	165.0698866213152	73	127
165.09310657596373	165.92902494331065	65	127
165.09310657596373	165.4762358276644	74	127
165.09310657596373	165.90580498866214	86	127
165.4762358276644	165.91739229024944	77	127
165.92902494331065	166.59079365079364	62	127
165.92902494331065	166.2657142857143	66	127
165.92902494331065	166.05673469387756	58	127
165.92902494331065	166.59079365079364	82	127
166.09156462585034	166.21927437641725	58	127
166.2657142857143	166.6024036281179	67	127
166.2657142857143	166.428231292517	58	127
166.46308390022676	166.59079365079364	58	127
166.61401360544218	169.59775510204082	77	127
166.61401360544218	167.25256235827663	65	127
166.61401360544218	167.2641723356009	69	127
166.61401360544218	167.72857142857143	50	127
166.61401360544218	169.29591836734693	62	127
166.61401360544218	169.59775510204082	81	127
167.2641723356009	167.577641723356	77	127
167.58925170068028	167.9259410430839	77	127
167.9259410430839	168.26263038548754	69	127
168.27424036281178	168.4019501133787	50	127
168.27424036281178	168.61092970521543	69	127
168.43678004535147	168.57607709750567	50	127
168.61092970521543	168.94761904761904	77	127
168.61092970521543	168.7386394557823	50	127
168.78507936507935	168.93598639455783	50	127
168.9592290249433	169.783537414966	59	127
168.9592290249433	169.3075283446712	77	127
169.3075283446712	169.60938775510203	69	127
169.3075283446712	169.60938775510203	57	127
169.6209977324263	170.03895691609978	69	127
169.6209977324263	170.03895691609978	57	127
169.6209977324263	170.38725623582766	77	127
169.6209977324263	170.38725623582766	81	127
170.03895691609978	170.39886621315193	77	127
170.03895691609978	170.39886621315193	62	127
170.4104761904762	171.0374149659864	81	127
170.4104761904762	170.53818594104308	59	127
170.4104761904762	170.73555555555555	79	127
170.4104761904762	170.73555555555555	64	127
170.4104761904762	171.0374149659864	77	127
170.57299319727892	170.70072562358277	59	127
170.73555555555555	170.86326530612246	59	127
170.73555555555555	171.04902494331066	74	127
170.73555555555555	171.04902494331066	65	127
170.9097052154195	171.0374149659864	59	127
171.06063492063493	171.46698412698413	65	127
171.06063492063493	171.95460317460316	84	127
171.06063492063493	171.95460317460316	60	127
171.06063492063493	173.89344671201815	69	127
171.46698412698413	171.94299319727892	77	127
171.95460317460316	172.80213151927438	81	127
171.95460317460316	172.43061224489796	48	127
171.95460317460316	172.50027210884355	77	127
172.50027210884355	172.8253514739229	65	127
172.83696145124716	173.533537414966	89	127
172.83696145124716	173.03433106575963	49	127
172.83696145124716	173.24331065759637	65	127
173.06916099773244	173.2084807256236	49	127
173.24331065759637	173.37102040816328	49	127
173.24331065759637	173.5451700680272	77	127
173.40585034013606	173.533537414966	49	127
173.55678004535147	175.15895691609978	89	127
173.55678004535147	173.91668934240363	77	127
173.55678004535147	174.682947845805	50	127
173.91668934240363	174.54362811791384	65	127
173.91668934240363	174.54362811791384	69	127
174.55521541950114	174.903537414966	65	127
174.55521541950114	174.903537414966	69	127
174.903537414966	175.20539682539683	81	127
174.903537414966	175.20539682539683	67	127
175.2170068027211	175.76267573696146	72	127
175.2170068027211	175.34471655328798	51	127
175.2170068027211	175.76267573696146	69	127
175.2170068027211	176.09936507936507	89	127
175.37954648526076	175.72784580498868	51	127
175.76267573696146	175.89038548752833	51	127
175.76267573696146	176.1225850340136	72	127
175.76267573696146	176.1225850340136	69	127
175.91360544217687	176.09936507936507	51	127
176.13419501133788	178.45619047619047	72	127
176.13419501133788	176.79596371882087	64	127
176.13419501133788	177.2835827664399	52	127
176.13419501133788	178.45619047619047	93	127
176.79596371882087	177.1326530612245	76	127
177.14426303854876	177.5041723356009	76	127
177.5041723356009	177.91052154195012	64	127
177.9221315192744	178.23557823129252	64	127
177.9221315192744	178.038231292517	52	127
178.0730612244898	178.20077097505668	52	127
178.23557823129252	178.36331065759637	52	127
178.23557823129252	178.54907029478457	76	127
178.3865306122449	178.52585034013606	52	127
178.56068027210884	179.7100680272109	52	127
178.56068027210884	179.22244897959183	64	127
178.56068027210884	179.57074829931972	74	127
178.56068027210884	180.23249433106577	94	127
179.22244897959183	179.55913832199548	67	127
179.57074829931972	179.90743764172336	67	127
179.57074829931972	180.23249433106577	79	127
179.90743764172336	180.22090702947847	64	127
180.23249433106577	180.58081632653062	52	127
180.23249433106577	180.8362358276644	64	127
180.23249433106577	181.24258503401362	86	127
180.23249433106577	181.24258503401362	70	127
180.62725623582767	180.8014058956916	52	127
180.8362358276644	181.0219954648526	52	127
180.8362358276644	181.26580498866213	67	127
181.04521541950115	181.24258503401362	52	127
181.2774149659864	182.32231292517008	53	127
181.2774149659864	181.67215419501133	86	127
181.2774149659864	181.67215419501133	60	127
181.2774149659864	181.67215419501133	70	127
181.67215419501133	182.12492063492064	84	127
181.67215419501133	182.12492063492064	69	127
181.67215419501133	182.11333333333334	65	127
182.12492063492064	183.91285714285715	72	127
182.12492063492064	182.51968253968255	65	127
182.12492063492064	182.8447619047619	81	127
182.51968253968255	182.83315192743765	60	127
182.8447619047619	182.98408163265307	53	127
182.8447619047619	183.20467120181405	79	127
182.8447619047619	183.51814058956916	69	127
183.01891156462585	183.16984126984127	53	127
183.20467120181405	183.5413605442177	77	127
183.20467120181405	183.36721088435374	53	127
183.39043083900228	183.51814058956916	53	127
183.552947845805	185.36412698412698	75	127
183.552947845805	183.93609977324263	58	127
183.552947845805	184.47015873015874	55	127
183.93609977324263	184.33083900226757	63	127
183.93609977324263	184.34244897959184	70	127
184.34244897959184	184.6675283446712	63	127
184.34244897959184	184.6675283446712	67	127
184.6675283446712	184.98099773242632	63	127
184.6675283446712	184.98099773242632	58	127
184.99260770975056	185.9214058956916	70	127
184.99260770975056	185.15514739229025	55	127
184.99260770975056	185.36412698412698	67	127
185.2015873015873	185.3408843537415	55	127
185.36412698412698	185.584716553288	55	127
185.36412698412698	185.95621315192744	79	127
185.36412698412698	185.95621315192744	70	127
185.6775963718821	185.9214058956916	55	127
185.96784580498866	189.0328798185941	77	127
185.96784580498866	186.28131519274376	57	127
185.96784580498866	186.8037641723356	57	127
185.96784580498866	188.28984126984128	69	127
186.28131519274376	186.6528344671202	62	127
186.66444444444446	187.00113378684807	62	127
187.00113378684807	187.31460317460318	57	127
187.32621315192745	187.4655328798186	57	127
187.32621315192745	188.3130612244898	69	127
187.50036281179138	187.99956916099774	57	127
188.02281179138322	188.15052154195013	57	127
188.1853514739229	188.3130612244898	57	127
188.3478911564626	188.70780045351475	62	127
188.3478911564626	189.07931972789115	67	127
188.3478911564626	189.31151927437642	58	127
188.70780045351475	189.04448979591837	65	127
189.07931972789115	189.52049886621316	65	127
189.07931972789115	189.9152380952381	74	127
189.07931972789115	189.9152380952381	65	127
189.52049886621316	189.8919954648526	62	127
189.9152380952381	190.84403628117914	79	127
189.9152380952381	190.05455782312924	59	127
189.9152380952381	190.8556462585034	62	127
189.9152380952381	190.84403628117914	65	127
190.08938775510205	190.49573696145126	59	127
190.51895691609977	190.6698866213152	59	127
190.71632653061224	190.84403628117914	59	127
190.87886621315192	192.4229931972789	69	127
190.87886621315192	191.27360544217686	60	127
190.87886621315192	191.73800453514738	60	127
190.87886621315192	192.79451247165534	60	127
191.27360544217686	191.58707482993196	65	127
191.6102947845805	191.9585941043084	65	127
191.9585941043084	192.39977324263037	60	127
192.4229931972789	193.21247165532878	72	127
192.4229931972789	192.79451247165534	60	127
192.4229931972789	192.56231292517006	60	127
192.59714285714287	192.7712925170068	60	127
192.79451247165534	193.01510204081632	60	127
192.79451247165534	193.22408163265305	65	127
192.79451247165534	193.23569160997732	69	127
193.04993197278912	193.21247165532878	60	127
193.2473015873016	195.47641723356008	64	127
193.2473015873016	193.63043083900226	60	127
193.2473015873016	194.14126984126983	60	127
193.2473015873016	195.5344671201814	69	127
193.2473015873016	195.47641723356008	72	127
193.63043083900226	193.9903401360544	72	127
194.01356009070295	194.32702947845806	72	127
194.32702947845806	194.66371882086167	60	127
194.6869387755102	195.20938775510203	60	127
194.6869387755102	194.8726984126984	60	127
195.0352380952381	195.17455782312925	60	127
195.20938775510203	195.36031746031745	60	127
195.20938775510203	195.56929705215418	72	127
195.39514739229026	195.55768707482994	60	127
195.604126984127	195.99886621315193	65	127
195.604126984127	196.53292517006804	53	127
195.604126984127	198.08866213151927	72	127
195.604126984127	198.08866213151927	65	127
195.604126984127	198.63433106575962	69	127
195.99886621315193	196.33555555555554	72	127
196.35877551020408	196.7302947845805	72	127
196.7302947845805	197.09020408163266	69	127
197.11342403628117	197.24113378684808	53	127
197.11342403628117	197.45011337868482	69	127
197.27596371882086	197.415283446712	53	127
197.45011337868482	197.74036281179139	65	127
197.45011337868482	197.5778231292517	53	127
197.61265306122448	197.72875283446712	53	127
197.7635827664399	198.62272108843538	65	127
197.7635827664399	198.3324716553288	53	127
198.10027210884354	198.65755102040816	65	127
198.6807709750567	199.18	69	127
199.18	199.5282993197279	72	127
199.53990929705216	199.95786848072564	72	127
199.95786848072564	200.44548752834467	77	127
200.4687074829932	200.85183673469388	54	127
200.4687074829932	203.1390022675737	81	127
200.86344671201815	201.16530612244898	57	127
201.1885260770975	201.49038548752836	57	127
201.5019954648526	201.7922448979592	60	127
201.8154648526077	202.11732426303854	60	127
202.14054421768708	202.4772335600907	57	127
202.48884353741497	202.80231292517007	54	127
202.82553287981858	203.15061224489796	57	127
203.16222222222223	203.91687074829932	79	127
203.16222222222223	203.5801814058957	57	127
203.59179138321994	203.8936507936508	60	127
203.91687074829932	204.2419501133787	60	127
203.91687074829932	204.25356009070296	78	127
204.25356009070296	204.8340589569161	74	127
204.25356009070296	204.8340589569161	57	127
204.85727891156463	206.94707482993198	81	127
204.85727891156463	205.25201814058957	54	127
205.26362811791384	205.57709750566895	57	127
205.26362811791384	205.60031746031746	66	127
205.60031746031746	206.63360544217687	75	127
205.60031746031746	205.94861678004534	57	127
205.9602267573696	206.29691609977326	60	127
206.32013605442177	206.6219954648526	60	127
206.63360544217687	206.9354648526077	57	127
206.63360544217687	206.9354648526077	74	127
206.94707482993198	207.30698412698413	54	127
206.94707482993198	207.3185941043084	74	127
206.94707482993198	207.63206349206348	81	127
207.3185941043084	207.64367346938775	57	127
207.3185941043084	207.65528344671202	72	127
207.65528344671202	207.99197278911564	57	127
207.65528344671202	209.37356009070294	75	127
208.0035827664399	208.3867120181406	60	127
208.39832199546484	208.87433106575963	69	127
208.39832199546484	208.86272108843536	60	127
208.87433106575963	209.42	81	127
208.87433106575963	209.42	57	127
209.43160997732426	209.8843990929705	54	127
209.43160997732426	212.33410430839	81	127
209.89600907029478	210.19786848072562	57	127
210.2094784580499	210.56938775510204	57	127
210.5809977324263	210.89446712018142	60	127
210.90607709750566	211.2079365079365	60	127
211.21954648526076	211.54462585034014	57	127
211.56784580498865	211.98580498866212	54	127
211.9974149659864	212.35732426303855	57	127
212.36893424036282	212.70562358276644	57	127
212.36893424036282	213.0655328798186	79	127
212.72884353741497	213.05392290249432	60	127
213.0655328798186	213.41383219954648	78	127
213.0655328798186	213.39061224489797	60	127
213.41383219954648	214.1684807256236	74	127
213.41383219954648	214.1684807256236	57	127
214.18009070294784	216.11895691609976	81	127
214.18009070294784	214.49356009070294	54	127
214.5051700680272	214.81863945578232	57	127
214.5051700680272	214.8302494331066	66	127
214.8302494331066	215.80548752834468	75	127
214.8302494331066	215.14371882086166	57	127
215.15532879818593	215.46879818594104	60	127
215.4804081632653	215.79387755102042	60	127
215.80548752834468	216.10734693877552	74	127
215.80548752834468	216.10734693877552	57	127
216.11895691609976	216.66462585034014	54	127
216.11895691609976	216.67623582766439	74	127
216.11895691609976	216.97809523809525	81	127
216.67623582766439	216.9897052154195	57	127
216.67623582766439	217.00131519274376	72	127
217.00131519274376	217.31478458049887	57	127
217.00131519274376	218.3712925170068	75	127
217.32639455782314	217.75596371882085	60	127
217.76757369614512	218.30163265306123	81	127
217.76757369614512	218.0926530612245	60	127
218.10426303854877	218.41773242630384	57	127
218.4293424036281	221.72657596371883	86	127
218.4293424036281	219.42780045351475	53	127
218.4293424036281	219.91541950113378	74	127
219.42780045351475	219.9038095238095	58	127
219.91541950113378	220.8209977324263	82	127
219.91541950113378	220.24049886621316	58	127
220.24049886621316	220.542358276644	62	127
220.542358276644	220.8209977324263	62	127
220.8209977324263	221.12285714285716	53	127
220.8209977324263	221.07641723356008	82	127
221.1344671201814	221.45954648526077	53	127
221.1344671201814	221.78462585034015	82	127
221.45954648526077	221.77301587301588	58	127
221.78462585034015	222.28385487528345	58	127
221.78462585034015	222.62054421768707	84	127
221.78462585034015	222.62054421768707	81	127
222.28385487528345	222.6089342403628	62	127
222.62054421768707	222.94562358276644	82	127
222.62054421768707	222.94562358276644	79	127
222.62054421768707	222.94562358276644	62	127
222.94562358276644	223.20104308390023	75	127
222.94562358276644	223.22426303854874	79	127
222.94562358276644	223.24748299319728	53	127
223.25909297052155	223.59578231292517	55	127
223.25909297052155	225.96421768707484	67	127
223.25909297052155	225.96421768707484	75	127
223.25909297052155	226.0338775510204	79	127
223.59578231292517	223.897641723356	58	127
223.90925170068027	224.48975056689343	58	127
224.48975056689343	224.80321995464854	60	127
224.81482993197278	225.13990929705216	60	127
225.13990929705216	225.441768707483	58	127
225.45337868480726	225.7784580498866	58	127
225.7784580498866	226.08031746031747	60	127
226.09192743764171	226.70725623582766	60	127
226.70725623582766	227.19487528344672	58	127
227.21809523809523	227.77537414965985	58	127
227.21809523809523	228.0191836734694	75	127
227.21809523809523	228.22816326530614	79	127
227.77537414965985	228.2746031746032	55	127
228.28621315192743	231.16548752834467	86	127
228.28621315192743	228.9944217687075	53	127
228.28621315192743	231.09582766439908	82	127
228.9944217687075	229.29628117913833	58	127
229.30789115646257	229.63297052154195	58	127
229.63297052154195	229.93482993197279	62	127
229.94643990929706	230.27151927437643	62	127
230.27151927437643	230.57337868480727	53	127
230.5849886621315	230.91006802721088	53	127
230.91006802721088	231.21192743764172	58	127
231.223537414966	232.21038548752836	58	127
231.223537414966	232.52385487528343	81	127
231.223537414966	232.52385487528343	84	127
232.21038548752836	232.5122448979592	62	127
232.52385487528343	232.8489342403628	82	127
232.52385487528343	232.8489342403628	79	127
232.52385487528343	232.8489342403628	62	127
232.8489342403628	233.13918367346938	75	127
232.8489342403628	233.17401360544218	79	127
232.8489342403628	233.20884353741496	53	127
233.22045351473923	236.50607709750568	79	127
233.22045351473923	234.34662131519275	55	127
233.22045351473923	236.44802721088436	75	127
234.34662131519275	234.68331065759637	58	127
234.69492063492063	235.00839002267574	58	127
235.00839002267574	235.32185941043085	60	127
235.33346938775512	235.6121088435374	60	127
235.6121088435374	235.92557823129252	58	127
235.9371882086168	236.2506575963719	58	127
236.2506575963719	236.56412698412697	60	127
236.57573696145124	237.1794557823129	60	127
237.1794557823129	237.6322448979592	58	127
237.64385487528344	238.02698412698413	58	127
237.64385487528344	238.4101133786848	75	127
237.64385487528344	238.60748299319727	79	127
238.02698412698413	238.65392290249434	55	127
238.67714285714285	239.31569160997734	55	127
238.67714285714285	239.9542403628118	79	127
238.67714285714285	241.4867573696145	82	127
239.31569160997734	239.61755102040817	58	127
239.64077097505668	239.9542403628118	58	127
239.9542403628118	240.20965986394557	55	127
239.9542403628118	240.2328798185941	75	127
240.2328798185941	240.54634920634922	55	127
240.2328798185941	240.8598185941043	70	127
240.54634920634922	240.87142857142857	58	127
240.8946485260771	241.2081179138322	58	127
240.8946485260771	241.5215873015873	67	127
241.2081179138322	241.49836734693878	55	127
241.5215873015873	241.84666666666666	55	127
241.5215873015873	242.19496598639455	81	127
241.5215873015873	242.19496598639455	65	127
241.84666666666666	242.1833560090703	58	127
242.19496598639455	242.54326530612244	58	127
242.19496598639455	242.83351473922903	79	127
242.19496598639455	242.83351473922903	64	127
242.54326530612244	242.8451247165533	55	127
242.8683446712018	243.2166439909297	62	127
242.8683446712018	243.2166439909297	53	127
242.8683446712018	243.8435827664399	81	127
243.2166439909297	243.47206349206348	62	127
243.2166439909297	243.71587301587303	65	127
243.2166439909297	243.47206349206348	57	127
243.5301133786848	243.8435827664399	57	127
243.5301133786848	243.8435827664399	62	127
243.8435827664399	244.55179138321995	65	127
243.8435827664399	244.2499319727891	79	127
243.8435827664399	244.2499319727891	53	127
244.30798185941043	244.5750113378685	79	127
244.30798185941043	244.71433106575964	53	127
244.5750113378685	244.818820861678	77	127
244.71433106575964	244.95814058956915	65	127
244.71433106575964	244.95814058956915	57	127
244.818820861678	244.9813605442177	74	127
245.02780045351474	245.35287981859412	62	127
245.02780045351474	245.35287981859412	53	127
245.02780045351474	246.08430839002267	74	127
245.35287981859412	245.8869387755102	65	127
245.35287981859412	245.63151927437642	57	127
245.701179138322	246.02625850340135	57	127
246.02625850340135	246.2932879818594	62	127
246.02625850340135	246.56031746031746	65	127
246.35133786848073	246.7344671201814	62	127
246.35133786848073	246.94344671201813	74	127
246.7344671201814	247.00149659863945	65	127
246.7344671201814	247.00149659863945	57	127
247.07115646258504	247.5239455782313	62	127
247.07115646258504	247.5239455782313	50	127
247.07115646258504	247.79097505668935	79	127
247.5239455782313	247.99995464852609	74	127
247.5239455782313	247.7677551020408	55	127
247.82580498866213	248.67333333333335	81	127
247.82580498866213	248.12766439909296	57	127
248.12766439909296	248.35986394557824	62	127
248.12766439909296	248.5572335600907	74	127
248.38308390022675	248.67333333333335	62	127
248.67333333333335	248.91714285714286	74	127
248.67333333333335	248.91714285714286	57	127
248.67333333333335	248.9635827664399	86	127
248.97519274376418	249.2886621315193	62	127
248.97519274376418	249.2886621315193	50	127
248.97519274376418	249.57891156462586	79	127
249.2886621315193	249.55569160997732	55	127
249.2886621315193	249.79950113378686	74	127
249.61374149659864	249.91560090702947	57	127
249.61374149659864	250.51931972789114	81	127
249.91560090702947	250.39160997732426	74	127
249.91560090702947	250.159410430839	62	127
250.2174603174603	250.51931972789114	62	127
250.51931972789114	250.83278911564625	74	127
250.51931972789114	250.83278911564625	57	127
250.51931972789114	250.89083900226757	86	127
250.90244897959184	253.15478458049887	86	127
250.90244897959184	251.23913832199545	57	127
250.90244897959184	251.23913832199545	53	127
251.23913832199545	252.12149659863945	69	127
251.23913832199545	251.84285714285716	57	127
251.90090702947845	252.24920634920636	57	127
252.24920634920636	252.50462585034015	53	127
252.24920634920636	252.74843537414966	69	127
252.56267573696144	252.87614512471654	53	127
252.87614512471654	253.1199546485261	69	127
252.87614512471654	253.1199546485261	57	127
253.18961451247165	253.53791383219954	57	127
253.18961451247165	253.53791383219954	57	127
253.18961451247165	255.36068027210885	87	127
253.53791383219954	254.13002267573697	69	127
253.53791383219954	253.81655328798186	54	127
253.88621315192745	254.25773242630385	54	127
254.25773242630385	254.86145124716552	69	127
254.25773242630385	254.58281179138322	57	127
254.66408163265305	255.0007709750567	57	127
255.0007709750567	255.32585034013604	54	127
255.0007709750567	255.32585034013604	69	127
255.41873015873017	256.27784580498866	88	127
255.41873015873017	255.9992290249433	64	127
255.41873015873017	255.9992290249433	57	127
255.9992290249433	256.3126984126984	76	127
255.9992290249433	256.2546485260771	60	127
256.3243083900227	256.6377777777778	60	127
256.3243083900227	256.92802721088435	96	127
256.3243083900227	259.6215419501134	76	127
256.6377777777778	256.9048072562358	64	127
256.97446712018143	257.28793650793654	64	127
256.97446712018143	257.60138321995464	95	127
257.28793650793654	257.5781859410431	60	127
257.64784580498866	257.97292517006804	52	127
257.64784580498866	258.32120181405895	93	127
257.97292517006804	258.2980045351474	60	127
258.367664399093	258.9829931972789	91	127
258.367664399093	258.7043537414966	60	127
258.7043537414966	258.9597732426304	64	127
259.029410430839	259.3428798185941	64	127
259.029410430839	259.6215419501134	93	127
259.3428798185941	259.59832199546486	60	127
259.6679818594104	263.2902947845805	88	127
259.6679818594104	260.2717006802721	57	127
259.6679818594104	260.62	76	127
260.2717006802721	260.55034013605444	60	127
260.62	260.9334693877551	60	127
260.62	261.2469387755102	84	127
260.9334693877551	261.18888888888887	64	127
261.2585487528345	261.5720181405896	64	127
261.2585487528345	261.8854875283447	83	127
261.5720181405896	261.82743764172335	60	127
261.89707482993197	262.210566893424	52	127
261.89707482993197	262.65174603174603	81	127
262.210566893424	262.58208616780047	60	127
262.65174603174603	263.27868480725624	79	127
262.65174603174603	262.96521541950113	60	127
262.96521541950113	263.22061224489795	64	127
263.2902947845805	264.05655328798184	81	127
263.2902947845805	263.6037641723356	64	127
263.6037641723356	263.99850340136055	60	127
264.0681632653061	264.6138321995465	57	127
264.0681632653061	264.9737414965986	88	127
264.0681632653061	267.4350566893424	72	127
264.0681632653061	269.7802721088435	76	127
264.6138321995465	264.91569160997733	60	127
264.9853514739229	265.62390022675737	93	127
264.9853514739229	265.298820861678	60	127
265.298820861678	265.5658503401361	64	127
265.63551020408164	266.22761904761904	91	127
265.63551020408164	265.9721995464853	64	127
265.9721995464853	266.22761904761904	60	127
266.2856689342404	266.9242176870748	88	127
266.2856689342404	266.6107482993197	57	127
266.6107482993197	266.8661678004535	60	127
266.9242176870748	267.2492970521542	60	127
266.9242176870748	267.5627664399093	86	127
267.2492970521542	267.504716553288	64	127
267.5627664399093	268.1897052154195	88	127
267.5627664399093	267.8878458049887	64	127
267.8878458049887	268.14326530612243	60	127
268.2013151927438	269.26943310657595	72	127
268.2013151927438	269.4551927437642	57	127
269.26943310657595	271.88167800453516	84	127
269.4551927437642	269.71061224489796	60	127
269.7802721088435	270.11696145124716	60	127
269.7802721088435	270.43043083900227	81	127
270.11696145124716	270.372380952381	64	127
270.43043083900227	271.080589569161	79	127
270.43043083900227	270.75551020408165	64	127
270.75551020408165	271.0457596371882	60	127
271.10378684807256	271.5798185941043	55	127
271.10378684807256	271.9048979591837	76	127
271.5798185941043	271.8352380952381	60	127
271.9048979591837	272.624693877551	83	127
271.9048979591837	272.229977324263	60	127
271.9048979591837	272.624693877551	74	127
272.229977324263	272.56666666666666	64	127
272.624693877551	272.98462585034014	64	127
272.624693877551	273.2748752834467	84	127
272.624693877551	273.2748752834467	76	127
272.98462585034014	273.24002267573695	60	127
273.29809523809524	276.1076870748299	76	127
273.29809523809524	273.73927437641726	55	127
273.29809523809524	276.1076870748299	84	127
273.73927437641726	273.994693877551	60	127
274.05274376417236	274.3778231292517	60	127
274.3778231292517	274.64485260770977	55	127
274.70290249433106	275.0395918367347	55	127
275.0395918367347	275.30662131519273	60	127
275.3646712018141	275.7245804988662	60	127
275.7245804988662	276.0844897959184	57	127
276.1425396825397	276.862358276644	83	127
276.1425396825397	276.50244897959186	57	127
276.1425396825397	276.862358276644	74	127
276.50244897959186	276.8043083900227	60	127
276.862358276644	277.5473469387755	76	127
276.862358276644	277.18743764172336	60	127
276.862358276644	277.5473469387755	84	127
277.18743764172336	277.524126984127	57	127
277.5821768707483	279.82290249433106	76	127
277.5821768707483	277.9885260770975	55	127
277.5821768707483	280.4498412698413	84	127
277.9885260770975	278.3484353741497	60	127
278.406485260771	278.8012244897959	60	127
278.8012244897959	279.0798639455782	55	127
279.13791383219956	279.4745804988662	55	127
279.4745804988662	279.76485260770977	60	127
279.82290249433106	280.14798185941044	60	127
279.82290249433106	280.4498412698413	75	127
280.14798185941044	280.42662131519273	57	127
280.4846712018141	280.86780045351475	57	127
280.4846712018141	281.3554195011338	74	127
280.4846712018141	281.3554195011338	83	127
280.86780045351475	281.2277097505669	60	127
281.3554195011338	281.6921088435374	60	127
281.3554195011338	281.9707482993197	84	127
281.3554195011338	281.9707482993197	75	127
281.6921088435374	281.9475283446712	57	127
282.00557823129253	284.8848526077098	75	127
282.00557823129253	282.6209070294785	55	127
282.00557823129253	284.8848526077098	84	127
282.6209070294785	282.8879365079365	60	127
282.94598639455785	283.27106575963717	60	127
283.27106575963717	283.5497052154195	55	127
283.6193650793651	283.94444444444446	55	127
283.94444444444446	284.1998639455782	60	127
284.25791383219956	284.58299319727894	60	127
284.58299319727894	284.85002267573697	55	127
284.90807256235826	286.1270975056689	83	127
284.90807256235826	285.62789115646257	55	127
284.90807256235826	286.1270975056689	74	127
285.62789115646257	286.02260770975056	60	127
286.1270975056689	286.4754195011338	60	127
286.1270975056689	286.881768707483	84	127
286.1270975056689	286.881768707483	75	127
286.4754195011338	286.83532879818597	55	127
286.9165986394558	290.03968253968253	72	127
286.9165986394558	287.79895691609977	54	127
286.9165986394558	290.0048299319728	81	127
287.79895691609977	288.0543764172336	57	127
288.1124263038549	288.43750566893425	57	127
288.43750566893425	288.6812925170068	60	127
288.7393650793651	289.06444444444446	60	127
289.06444444444446	289.3198639455782	57	127
289.37791383219957	289.70297052154194	54	127
289.70297052154194	289.98163265306124	57	127
290.03968253968253	290.3763718820862	57	127
290.03968253968253	290.70145124716555	79	127
290.3763718820862	290.6434013605442	60	127
290.70145124716555	290.9684807256236	60	127
290.70145124716555	290.9684807256236	78	127
290.9684807256236	291.51414965986396	57	127
290.9684807256236	291.560589569161	74	127
291.5838095238095	292.19913832199546	54	127
291.5838095238095	294.4863038548753	81	127
292.19913832199546	292.46614512471655	57	127
292.19913832199546	292.5358276643991	66	127
292.5358276643991	293.4762358276644	75	127
292.5358276643991	292.8260770975057	57	127
292.8260770975057	293.0698866213152	60	127
293.1395464852608	293.4762358276644	60	127
293.4762358276644	293.74326530612245	74	127
293.4762358276644	293.74326530612245	57	127
293.812925170068	294.1728344671202	74	127
293.812925170068	294.1728344671202	54	127
294.1728344671202	294.4514739229025	57	127
294.1728344671202	294.52113378684805	72	127
294.52113378684805	294.8578231292517	57	127
294.52113378684805	295.8446485260771	75	127
294.8578231292517	295.2757823129252	60	127
295.34544217687073	295.7169614512472	69	127
295.34544217687073	295.7169614512472	60	127
295.7169614512472	296.6225396825397	81	127
295.7169614512472	296.56448979591835	57	127
296.63414965986397	296.9940589569161	54	127
296.63414965986397	299.4321541950113	81	127
296.9940589569161	297.36557823129255	57	127
297.4352380952381	297.7487074829932	57	127
297.7487074829932	298.00412698412697	60	127
298.0737868480726	298.42208616780044	60	127
298.42208616780044	298.68911564625853	57	127
298.7587755102041	299.14190476190475	54	127
299.14190476190475	299.40893424036284	57	127
299.46698412698413	299.90816326530614	57	127
299.46698412698413	300.24485260770973	79	127
299.90816326530614	300.17519274376417	60	127
300.24485260770973	300.6163718820862	78	127
300.24485260770973	300.6163718820862	60	127
300.6163718820862	301.12721088435376	57	127
300.6163718820862	301.18526077097505	74	127
301.1968707482993	301.6496598639456	54	127
301.1968707482993	304.006485260771	81	127
301.6496598639456	301.9631292517007	57	127
301.6496598639456	301.974716553288	66	127
301.974716553288	302.91514739229024	75	127
301.974716553288	302.2998185941043	57	127
302.2998185941043	302.57845804988665	60	127
302.60167800453513	302.91514739229024	60	127
302.91514739229024	303.17056689342405	74	127
302.91514739229024	303.2170068027211	57	127
303.2402267573696	303.61172335600907	74	127
303.2402267573696	303.61172335600907	54	127
303.61172335600907	304.04131519274375	72	127
303.61172335600907	304.0297052154195	57	127
304.04131519274375	304.3663945578231	57	127
304.04131519274375	305.155873015873	75	127
304.3663945578231	304.7495238095238	60	127
304.76113378684806	305.07460317460317	60	127
304.76113378684806	305.5390022675737	81	127
305.07460317460317	305.5622222222222	57	127
305.5738321995465	308.4298866213152	86	127
305.5738321995465	306.08467120181405	53	127
305.5738321995465	306.53746031746033	74	127
306.08467120181405	306.52585034013606	58	127
306.53746031746033	306.85092970521544	58	127
306.53746031746033	307.40820861678003	82	127
306.85092970521544	307.12956916099773	62	127
307.141179138322	307.4546485260771	62	127
307.4546485260771	307.75650793650794	53	127
307.4546485260771	307.6520181405896	82	127
307.7797278911565	308.464716553288	82	127
307.7797278911565	308.1396371882086	53	127
308.1396371882086	308.44149659863945	58	127
308.464716553288	309.0452154195011	58	127
308.464716553288	309.3238548752835	79	127
308.464716553288	309.3586848072562	82	127
309.0452154195011	309.33544217687074	62	127
309.3586848072562	309.6837641723356	81	127
309.3586848072562	309.6837641723356	77	127
309.3586848072562	309.6837641723356	62	127
309.6837641723356	310.07850340136054	74	127
309.6837641723356	310.07850340136054	53	127
309.6837641723356	310.1017233560091	77	127
310.1017233560091	312.7720181405896	67	127
310.1017233560091	310.4151927437642	55	127
310.1017233560091	312.7720181405896	79	127
310.1017233560091	312.7720181405896	75	127
310.4151927437642	310.83315192743765	58	127
310.8563718820862	311.1698185941043	58	127
311.1698185941043	311.4949206349206	60	127
311.51814058956916	311.83160997732426	60	127
311.83160997732426	312.14507936507937	58	127
312.1682993197279	312.481768707483	58	127
312.481768707483	312.78362811791385	60	127
312.8068253968254	313.1667573696145	60	127
313.1667573696145	313.63113378684807	58	127
313.92140589569163	314.40902494331067	58	127
313.92140589569163	314.91986394557824	79	127
313.92140589569163	314.91986394557824	75	127
314.40902494331067	314.9314739229025	55	127
314.95467120181405	317.822335600907	82	127
314.95467120181405	315.5816326530612	53	127
314.95467120181405	317.822335600907	86	127
315.5816326530612	315.8834693877551	58	127
315.9067120181406	316.2550113378685	58	127
316.2550113378685	316.55687074829933	62	127
316.58009070294787	316.893537414966	62	127
316.893537414966	317.1954195011338	53	127
317.2186394557823	317.5321088435374	53	127
317.5321088435374	317.83396825396824	58	127
317.8571882086168	318.7859863945578	58	127
317.8571882086168	319.1110657596372	82	127
317.8571882086168	319.1110657596372	79	127
318.7859863945578	319.08784580498866	62	127
319.1110657596372	319.5174149659864	81	127
319.1110657596372	319.5174149659864	77	127
319.1110657596372	319.5174149659864	62	127
319.5174149659864	320.3881632653061	74	127
319.5174149659864	320.4229931972789	77	127
319.5174149659864	320.3881632653061	53	127
320.4229931972789	321.0151020408163	55	127
320.4229931972789	323.4648072562358	75	127
320.4229931972789	323.48802721088435	79	127
321.0151020408163	321.38662131519277	58	127
321.40984126984125	321.7813605442177	58	127
321.7813605442177	322.08321995464854	60	127
322.1064399092971	322.4198866213152	60	127
322.4198866213152	322.8262358276644	58	127
322.8378684807256	323.17455782312925	58	127
323.17455782312925	323.4764172335601	60	127
323.48802721088435	323.83632653061227	60	127
323.83632653061227	324.39360544217686	58	127
324.40521541950113	325.34562358276645	75	127
324.40521541950113	324.8347845804989	58	127
324.40521541950113	325.34562358276645	79	127
324.8347845804989	325.3572335600907	55	127
325.38043083900226	326.03061224489795	55	127
325.38043083900226	326.66916099773243	79	127
325.38043083900226	328.2713378684807	82	127
326.03061224489795	326.28603174603177	58	127
326.34408163265306	326.66916099773243	58	127
326.66916099773243	326.92455782312925	55	127
326.66916099773243	326.97102040816327	75	127
326.97102040816327	327.6327664399093	70	127
326.97102040816327	327.29609977324264	55	127
327.29609977324264	327.5979591836735	58	127
327.6560090702948	327.98108843537415	58	127
327.6560090702948	328.29455782312925	67	127
327.98108843537415	328.23650793650796	55	127
328.29455782312925	328.944716553288	81	127
328.29455782312925	328.6312471655329	55	127
328.29455782312925	328.944716553288	65	127
328.6312471655329	328.88666666666666	58	127
328.944716553288	329.30462585034013	58	127
328.944716553288	329.60648526077097	79	127
328.944716553288	329.60648526077097	64	127
329.30462585034013	329.5716326530612	55	127
329.6297052154195	329.96639455782315	53	127
329.6297052154195	329.96639455782315	62	127
329.6297052154195	330.6397732426304	81	127
329.96639455782315	330.60492063492063	65	127
329.96639455782315	330.2566439909297	57	127
330.314693877551	330.6397732426304	57	127
330.6397732426304	331.4524716553288	65	127
330.6397732426304	331.1390022675737	79	127
330.6397732426304	331.0809523809524	62	127
331.15061224489796	331.38281179138323	79	127
331.15061224489796	331.4873015873016	62	127
331.38281179138323	331.60340136054424	77	127
331.4873015873016	331.812380952381	57	127
331.4873015873016	331.7078911564626	65	127
331.60340136054424	331.858820861678	74	127
331.88204081632654	332.2187301587302	62	127
331.88204081632654	333.1243083900227	74	127
331.88204081632654	332.2187301587302	53	127
332.2187301587302	332.4857596371882	57	127
332.2187301587302	332.8340589569161	65	127
332.54378684807256	332.8688888888889	57	127
332.8688888888889	333.1243083900227	62	127
332.8688888888889	333.47260770975055	65	127
333.182358276644	333.50743764172336	62	127
333.182358276644	333.8092970521542	74	127
333.50743764172336	333.7048072562358	65	127
333.50743764172336	333.77444444444444	57	127
333.844126984127	334.3897959183673	79	127
333.844126984127	334.1692063492064	62	127
333.844126984127	334.1692063492064	50	127
334.1692063492064	334.70326530612243	74	127
334.1692063492064	334.36657596371884	55	127
334.41301587301587	335.3534240362812	81	127
334.41301587301587	334.73809523809524	57	127
334.73809523809524	334.99349206349206	62	127
334.73809523809524	335.3185941043084	74	127
335.0399546485261	335.3534240362812	62	127
335.3534240362812	335.59723356009073	57	127
335.3534240362812	335.5275736961451	74	127
335.3534240362812	335.64367346938775	86	127
335.655283446712	336.2473922902494	79	127
335.655283446712	335.9687528344671	62	127
335.655283446712	335.9687528344671	50	127
335.9687528344671	336.58408163265307	74	127
335.9687528344671	336.21256235827667	55	127
336.28222222222223	336.6189115646259	57	127
336.28222222222223	337.2458276643991	81	127
336.6189115646259	336.86272108843536	62	127
336.6189115646259	337.2110204081633	74	127
336.932358276644	337.2458276643991	62	127
337.2458276643991	337.50126984126985	57	127
337.2458276643991	337.55931972789114	86	127
337.2458276643991	337.44319727891155	74	127
337.5709297052154	339.63750566893424	79	127
337.5709297052154	338.0585260770975	62	127
337.5709297052154	338.0585260770975	58	127
338.0585260770975	338.68548752834465	74	127
338.0585260770975	338.3371882086168	62	127
338.3952380952381	338.72031746031746	62	127
338.72031746031746	339.3356462585034	74	127
338.72031746031746	338.9757369614513	58	127
339.03378684807257	339.3704761904762	58	127
339.3704761904762	339.54462585034014	74	127
339.3704761904762	339.6142857142857	62	127
339.6839455782313	342.052358276644	80	127
339.6839455782313	340.2528344671202	62	127
339.6839455782313	340.2528344671202	62	127
340.2528344671202	341.07714285714286	74	127
340.2528344671202	340.71721088435373	59	127
340.7868934240363	341.1003628117914	59	127
341.1003628117914	341.3673922902494	62	127
341.1003628117914	341.7273015873016	74	127
341.43702947845804	341.76213151927436	62	127
341.76213151927436	341.95950113378683	74	127
341.76213151927436	342.02916099773245	59	127
342.098820861678	342.52839002267575	62	127
342.098820861678	342.52839002267575	69	127
342.098820861678	342.8882993197279	81	127
342.52839002267575	342.80702947845805	65	127
342.52839002267575	342.80702947845805	81	127
342.8882993197279	343.201768707483	65	127
342.8882993197279	343.49201814058955	89	127
342.8882993197279	346.24356009070294	81	127
343.201768707483	343.4571882086168	69	127
343.52684807256236	343.88673469387754	69	127
343.52684807256236	344.1770068027211	88	127
343.88673469387754	344.1421768707483	65	127
344.21183673469386	345.1406349206349	86	127
344.21183673469386	344.53691609977324	57	127
344.53691609977324	344.8039229024943	65	127
344.8736054421769	345.187074829932	65	127
345.187074829932	345.47732426303855	69	127
345.187074829932	345.57020408163265	84	127
345.61664399092973	345.9649433106576	69	127
345.61664399092973	346.25519274376416	86	127
345.9649433106576	346.2203628117914	65	127
346.2784126984127	346.76603174603173	62	127
346.2784126984127	347.07950113378683	69	127
346.2784126984127	349.4943764172336	81	127
346.76603174603173	347.02145124716554	65	127
347.07950113378683	347.39297052154194	65	127
347.07950113378683	347.6832199546485	77	127
347.39297052154194	347.64839002267576	69	127
347.70643990929705	347.9386394557823	69	127
347.70643990929705	348.2288888888889	76	127
347.9386394557823	348.1940589569161	65	127
348.2521088435374	348.5771882086168	57	127
348.2521088435374	349.2157369614512	74	127
348.5771882086168	348.83260770975056	65	127
348.8906575963719	349.2157369614512	65	127
349.2157369614512	349.47115646258504	69	127
349.2157369614512	349.50598639455785	72	127
349.5175736961451	350.28385487528345	74	127
349.5175736961451	349.87750566893425	69	127
349.87750566893425	350.2374149659864	65	127
350.307074829932	352.17625850340136	69	127
350.307074829932	351.0385034013606	81	127
350.307074829932	350.72503401360547	62	127
350.307074829932	352.17625850340136	65	127
350.72503401360547	350.9804535147392	65	127
351.0385034013606	351.630612244898	86	127
351.0385034013606	351.3519501133787	65	127
351.3519501133787	351.59578231292517	69	127
351.6538095238095	351.95569160997735	69	127
351.6538095238095	352.2459410430839	84	127
351.95569160997735	352.2111111111111	65	127
352.26913832199546	354.8001360544218	65	127
352.26913832199546	352.7567800453515	57	127
352.26913832199546	353.04702947845806	69	127
352.26913832199546	353.0702494331066	81	127
352.7567800453515	353.01219954648525	65	127
353.0702494331066	353.4301587301587	65	127
353.0702494331066	353.74362811791383	70	127
353.0702494331066	353.77845804988664	80	127
353.4301587301587	353.7204081632653	74	127
353.77845804988664	354.8001360544218	81	127
353.77845804988664	354.8001360544218	69	127
353.77845804988664	354.18480725623584	74	127
354.18480725623584	354.77691609977325	65	127
354.8349433106576	355.36902494331065	62	127
354.8349433106576	356.91315192743764	81	127
354.8349433106576	355.7057142857143	69	127
355.36902494331065	355.647641723356	65	127
355.7057142857143	356.03079365079367	65	127
355.7057142857143	356.32104308390024	74	127
356.03079365079367	356.26297052154194	69	127
356.32104308390024	356.6577324263039	69	127
356.32104308390024	356.94798185941045	72	127
356.6577324263039	356.91315192743764	65	127
356.971179138322	357.6561904761905	77	127
356.971179138322	357.3311111111111	60	127
356.971179138322	357.6561904761905	69	127
357.3311111111111	357.59814058956914	65	127
357.6561904761905	357.94643990929706	65	127
357.6561904761905	358.29473922902497	76	127
357.6561904761905	358.29473922902497	68	127
357.94643990929706	358.2366893424036	60	127
358.29473922902497	358.94489795918366	69	127
358.29473922902497	358.6546485260771	60	127
358.29473922902497	358.94489795918366	77	127
358.6546485260771	358.9100680272109	65	127
358.9681179138322	359.2815873015873	53	127
358.9681179138322	360.93020408163267	69	127
358.9681179138322	360.93020408163267	77	127
359.2815873015873	359.5602267573696	57	127
359.6995464852608	360.0362358276644	57	127
360.0362358276644	360.2916553287982	62	127
360.34968253968253	360.67478458049885	62	127
360.67478458049885	360.93020408163267	57	127
360.98825396825396	361.6732199546485	77	127
360.98825396825396	361.33655328798187	53	127
360.98825396825396	361.6732199546485	69	127
361.33655328798187	361.6035827664399	59	127
361.6732199546485	361.99832199546483	59	127
361.6732199546485	362.3234013605442	76	127
361.6732199546485	362.3234013605442	67	127
361.99832199546483	362.25374149659865	62	127
362.3234013605442	362.9503401360544	69	127
362.3234013605442	362.6368707482993	62	127
362.3234013605442	362.9503401360544	77	127
362.6368707482993	362.9038775510204	59	127
362.97356009070296	365.005306122449	69	127
362.97356009070296	363.3218594104308	53	127
362.97356009070296	365.005306122449	77	127
363.3218594104308	363.5888888888889	57	127
363.65854875283446	363.97201814058957	57	127
363.97201814058957	364.35514739229023	60	127
364.42480725623585	364.73827664399096	60	127
364.73827664399096	364.9936961451247	57	127
365.0633560090703	365.5045351473923	53	127
365.0633560090703	365.82961451247166	77	127
365.0633560090703	365.82961451247166	69	127
365.5045351473923	365.7599546485261	55	127
365.82961451247166	366.21274376417233	55	127
365.82961451247166	366.6423129251701	76	127
365.82961451247166	366.6423129251701	67	127
366.21274376417233	366.5726530612245	62	127
366.6423129251701	367.3853514739229	69	127
366.6423129251701	367.02544217687074	62	127
366.6423129251701	367.3853514739229	77	127
367.02544217687074	367.3273015873016	55	127
367.40854875283446	369.45190476190476	77	127
367.40854875283446	367.8845804988662	53	127
367.40854875283446	369.45190476190476	69	127
367.8845804988662	368.1632199546485	57	127
368.2328798185941	368.55795918367346	57	127
368.55795918367346	368.8133786848073	60	127
368.88303854875284	369.1848979591837	60	127
369.1848979591837	369.4403174603175	57	127
369.50997732426305	370.1601133786848	53	127
369.50997732426305	370.4852154195011	77	127
369.50997732426305	370.4852154195011	68	127
370.1601133786848	370.41555555555556	59	127
370.4852154195011	371.14698412698414	76	127
370.4852154195011	370.8102947845805	59	127
370.4852154195011	371.14698412698414	67	127
370.8102947845805	371.0773242630386	53	127
371.14698412698414	371.7971201814059	68	127
371.14698412698414	371.46045351473924	53	127
371.14698412698414	371.7971201814059	77	127
371.46045351473924	371.7507029478458	59	127
371.82036281179137	373.81727891156464	69	127
371.82036281179137	372.21507936507936	53	127
371.82036281179137	373.81727891156464	77	127
372.21507936507936	372.4821315192744	57	127
372.55179138321995	372.8768707482993	57	127
372.8768707482993	373.13226757369614	60	127
373.2019501133787	373.53861678004534	60	127
373.53861678004534	373.81727891156464	57	127
373.8869387755102	374.8389569160998	77	127
373.8869387755102	374.4790476190476	57	127
373.8869387755102	374.8389569160998	69	127
374.4790476190476	374.76927437641723	61	127
374.8389569160998	375.58197278911564	67	127
374.8389569160998	375.1988662131519	61	127
374.8389569160998	375.58197278911564	76	127
375.1988662131519	375.512335600907	57	127
375.58197278911564	377.056462585034	69	127
375.58197278911564	376.2785941043084	57	127
375.58197278911564	377.056462585034	77	127
376.2785941043084	377.01	49	127
377.07968253968255	377.76467120181405	74	127
377.07968253968255	377.76467120181405	57	127
377.07968253968255	377.76467120181405	69	127
377.07968253968255	380.5046258503401	69	127
377.07968253968255	377.76467120181405	50	127
377.07968253968255	377.76467120181405	65	127
378.0665306122449	378.600589569161	65	127
378.0665306122449	378.600589569161	74	127
378.0665306122449	378.600589569161	69	127
378.0665306122449	378.600589569161	57	127
378.0665306122449	378.600589569161	50	127
380.52784580498866	381.6540136054422	67	127
381.6540136054422	382.10680272108846	65	127
382.10680272108846	382.57120181405895	62	127
382.5828117913832	385.5085260770975	62	127
382.5828117913832	383.10526077097506	65	127
382.5828117913832	383.10526077097506	69	127
382.5828117913832	383.10526077097506	57	127
382.5828117913832	383.10526077097506	50	127
383.34907029478455	383.83668934240364	57	127
383.34907029478455	383.83668934240364	50	127
383.34907029478455	383.83668934240364	65	127
383.34907029478455	383.83668934240364	69	127
385.52013605442176	385.84521541950113	57	127
385.8568253968254	386.2283446712018	57	127
386.2283446712018	386.59986394557825	62	127
386.6695238095238	387.075873015873	62	127
387.075873015873	387.4357823129252	64	127
387.4473922902494	388.01628117913833	50	127
387.4473922902494	389.38625850340134	65	127
387.4473922902494	388.01628117913833	65	127
387.4473922902494	388.01628117913833	69	127
387.4473922902494	388.01628117913833	57	127
388.29492063492063	388.88702947845803	69	127
388.29492063492063	388.88702947845803	57	127
388.29492063492063	388.88702947845803	50	127
388.29492063492063	388.88702947845803	65	127
389.38625850340134	390.23378684807255	62	127
390.2570068027211	390.37310657596373	60	127
390.37310657596373	390.50081632653064	62	127
390.50081632653064	390.6169160997732	60	127
390.6169160997732	390.73301587301586	62	127
390.73301587301586	391.8824036281179	60	127
391.8824036281179	392.31197278911566	57	127
392.31197278911566	392.7415419501134	60	127
392.7531519274376	393.27560090702946	69	127
392.7531519274376	393.27560090702946	65	127
392.7531519274376	393.27560090702946	57	127
392.7531519274376	393.27560090702946	50	127
392.7531519274376	396.2825850340136	62	127
393.54263038548754	394.09990929705214	50	127
393.54263038548754	394.09990929705214	69	127
393.54263038548754	394.09990929705214	65	127
393.54263038548754	394.09990929705214	57	127
396.4102947845805	396.7237641723356	62	127
396.7237641723356	396.9095238095238	57	127
396.9095238095238	397.08367346938775	58	127
397.08367346938775	397.26943310657595	60	127
397.26943310657595	397.39714285714285	62	127
397.39714285714285	397.52485260770976	64	127
397.52485260770976	397.6641723356009	65	127
397.6641723356009	397.9544217687075	67	127
397.9544217687075	398.6510204081633	68	127
398.6510204081633	399.1502494331066	65	127
398.6510204081633	399.1502494331066	57	127
398.6510204081633	399.1502494331066	62	127
398.6510204081633	399.1502494331066	50	127
398.6510204081633	401.9714739229025	69	127
399.4172789115646	399.962947845805	50	127
399.4172789115646	399.962947845805	57	127
399.4172789115646	399.962947845805	65	127
399.4172789115646	399.962947845805	62	127
402.01791383219955	402.93510204081633	67	127
402.93510204081633	403.38789115646256	65	127
403.38789115646256	403.84068027210884	62	127
403.8522902494331	404.43278911564624	65	127
403.8522902494331	406.7663945578231	62	127
403.8522902494331	404.43278911564624	57	127
403.8522902494331	404.43278911564624	62	127
403.8522902494331	404.43278911564624	50	127
404.7346485260771	405.1758276643991	57	127
404.7346485260771	405.1758276643991	65	127
404.7346485260771	405.1758276643991	62	127
404.7346485260771	405.1758276643991	50	127
406.7780045351474	407.2191836734694	57	127
407.23079365079366	407.6139229024943	57	127
407.6139229024943	407.96222222222224	62	127
407.9738321995465	408.32213151927436	62	127
408.32213151927436	408.6936507936508	64	127
408.70526077097503	411.13174603174605	55	127
408.70526077097503	411.13174603174605	50	127
408.70526077097503	411.13174603174605	59	127
408.70526077097503	413.82526077097504	65	127
411.13174603174605	413.778820861678	56	127
411.13174603174605	413.778820861678	49	127
411.13174603174605	413.778820861678	59	127
413.82526077097504	416.3678458049887	60	127
413.82526077097504	416.3678458049887	57	127
413.82526077097504	416.3678458049887	48	127
413.82526077097504	417.28503401360547	65	127
416.3678458049887	419.2122902494331	58	127
416.3678458049887	419.2122902494331	55	127
416.3678458049887	419.2122902494331	49	127
417.2966439909297	418.0977324263039	64	127
418.0977324263039	419.2819501133787	63	127
419.29356009070295	422.66045351473923	62	127
419.29356009070295	419.3748299319728	50	127
419.38643990929705	419.47931972789115	50	127
419.57219954648525	419.6418594104308	50	127
419.66507936507935	419.7463492063492	50	127
419.7695691609977	419.83922902494334	50	127
419.85083900226755	419.92049886621317	50	127
419.9437188208617	420.02498866213153	50	127
420.0365986394558	420.10625850340136	50	127
420.1294784580499	420.19913832199546	50	127
420.222358276644	420.29201814058956	50	127
420.30362811791383	420.38489795918366	50	127
420.39650793650793	420.48938775510203	50	127
420.52421768707484	420.60548752834467	50	127
420.61709750566894	420.6867573696145	50	127
420.69836734693877	420.79124716553287	50	127
420.8144671201814	420.88412698412696	50	127
420.89573696145123	421.0118367346939	50	127
421.0350566893424	421.0931065759637	50	127
421.11632653061224	421.1859863945578	50	127
421.19759637188207	421.2672562358277	50	127
421.30208616780044	421.4065759637188	50	127
421.42979591836735	421.54589569161	50	127
421.55750566893425	421.6271655328798	50	127
421.65038548752835	421.70843537414964	50	127
421.7316553287982	422.02190476190475	55	127
422.033514739229	422.11478458049885	55	127
422.1380045351474	422.19605442176874	55	127
422.2192743764172	422.28893424036283	55	127
422.30054421768705	422.38181405895693	55	127
422.4050340136054	422.46308390022676	55	127
422.4863038548753	422.55596371882086	55	127
422.56757369614513	422.64884353741496	55	127
422.7185034013605	423.5892517006803	60	127
422.7185034013605	422.8229931972789	55	127
422.86943310657597	422.96231292517007	55	127
422.97392290249434	423.05519274376417	55	127
423.0784126984127	423.14807256235827	55	127
423.15968253968254	423.25256235827663	55	127
423.2641723356009	423.33383219954646	55	127
423.38027210884354	423.4499319727891	55	127
423.46154195011337	423.5428117913832	55	127
423.5892517006803	424.10009070294785	58	127
423.5892517006803	423.65891156462584	55	127
423.6821315192744	423.8562811791383	55	127
423.8678911564626	423.93755102040814	55	127
423.9491609977324	424.0768707482993	55	127
424.10009070294785	424.2045804988662	55	127
424.10009070294785	424.5528798185941	60	127
424.23941043083903	424.3090702947846	55	127
424.32068027210886	424.4483900226757	55	127
424.47160997732425	424.54126984126987	55	127
424.5528798185941	424.680589569161	50	127
424.5528798185941	428.3261224489796	62	127
424.69219954648526	424.7618594104308	50	127
424.7966893424036	424.8663492063492	50	127
424.87795918367345	424.9592290249433	50	127
424.97083900226755	425.0869387755102	50	127
425.11015873015873	425.1798185941043	50	127
425.19142857142856	425.2610884353742	50	127
425.2726984126984	425.342358276644	50	127
425.36557823129255	425.6558276643991	50	127
425.6674376417234	425.73709750566894	50	127
425.7487074829932	425.8531972789116	50	127
425.8764172335601	425.9460770975057	50	127
425.95768707482995	426.0273469387755	50	127
426.05056689342405	426.09700680272107	50	127
426.1318367346939	426.224716553288	50	127
426.23632653061225	426.4104761904762	50	127
426.4336961451247	426.491746031746	50	127
426.51496598639454	426.58462585034016	50	127
426.5962358276644	426.68911564625853	50	127
426.712335600907	426.8168253968254	50	127
426.8400453514739	426.9097052154195	50	127
426.92131519274375	427.17673469387756	50	127
427.2231746031746	427.28122448979593	50	127
427.30444444444447	427.3857142857143	50	127
427.39732426303857	427.49020408163267	55	127
427.51342403628115	427.5714739229025	55	127
427.64113378684806	427.7224036281179	55	127
427.7456235827664	427.82689342403626	55	127
427.87333333333333	427.9778231292517	55	127
427.989433106576	428.1171428571429	55	127
428.1287528344671	428.1984126984127	55	127
428.22163265306125	428.3261224489796	55	127
428.33773242630383	428.430612244898	55	127
428.33773242630383	429.1968707482993	60	127
428.4422222222222	428.5118820861678	55	127
428.53510204081635	428.6628117913832	55	127
428.6744217687075	428.7673015873016	55	127
428.77891156462584	428.90662131519275	55	127
428.9298412698413	428.99950113378685	55	127
429.0111111111111	429.09238095238095	55	127
429.1039909297052	429.1736507936508	55	127
429.1968707482993	429.2665306122449	55	127
429.1968707482993	429.73092970521543	58	127
429.27814058956915	429.46390022675735	55	127
429.4755102040816	429.5567800453515	55	127
429.59160997732425	429.71931972789116	55	127
429.73092970521543	429.800589569161	55	127
429.73092970521543	430.1604988662132	60	127
429.81219954648526	429.9747392290249	55	127
429.99795918367346	430.0676190476191	55	127
430.0792290249433	430.1488888888889	55	127
430.1604988662132	433.5738321995465	62	127
430.1604988662132	430.23015873015873	50	127
430.2533786848073	430.40430839002266	50	127
430.41591836734693	430.4855782312925	50	127
430.49718820861676	430.5668480725624	50	127
430.59006802721086	430.6597278911565	50	127
430.67133786848075	430.7409977324263	50	127
430.7526077097506	430.8338775510204	50	127
430.85709750566895	430.9615873015873	50	127
430.9731972789116	431.0312471655329	50	127
431.0544671201814	431.1125170068027	50	127
431.13573696145124	431.2053968253968	50	127
431.2170068027211	431.2866666666667	50	127
431.3098866213152	431.3679365079365	50	127
431.5188662131519	431.5885260770975	50	127
431.6001360544218	431.66979591836736	50	127
431.6930158730159	431.7510657596372	50	127
431.7742857142857	431.89038548752836	50	127
431.90199546485263	431.9716553287982	50	127
431.99487528344673	432.052925170068	50	127
432.07614512471656	432.18063492063493	50	127
432.1922448979592	432.2851247165533	50	127
432.30834467120184	432.3663945578231	50	127
432.38961451247167	432.4592743764172	50	127
432.4708843537415	432.57537414965986	50	127
432.5985941043084	432.66825396825396	50	127
432.6914739229025	432.90045351473924	50	127
432.935283446712	433.0165532879819	50	127
433.03977324263036	433.21392290249435	50	127
433.2255328798186	433.30680272108845	50	127
433.3184126984127	433.3880725623583	50	127
433.4112925170068	433.49256235827664	50	127
433.5041723356009	433.5738321995465	50	127
433.6086621315193	434.63034013605443	57	127
433.6086621315193	433.6899319727891	50	127
433.71315192743765	433.8756916099773	50	127
433.8873015873016	433.9685714285714	50	127
433.9801814058957	434.08467120181405	50	127
434.1311111111111	434.3168707482993	50	127
434.3284807256236	434.4097505668934	50	127
434.4213605442177	434.5026303854875	50	127
434.53746031746033	434.61873015873016	50	127
434.63034013605443	435.02507936507936	55	127
434.63034013605443	434.74643990929707	50	127
434.75804988662134	434.8277097505669	50	127
434.85092970521544	434.93219954648526	50	127
434.94380952380953	435.0134693877551	50	127
435.02507936507936	435.141179138322	50	127
435.02507936507936	435.61718820861677	53	127
435.25727891156464	435.40820861678003	50	127
435.4198185941043	435.5126984126984	50	127
435.52430839002267	435.5939682539682	50	127
435.62879818594104	435.7332879818594	50	127
435.62879818594104	439.4020408163265	50	127
435.7448979591837	435.84938775510204	50	127
435.9306575963719	436.0119274376417	50	127
436.0467573696145	436.1744671201814	50	127
436.2789569160998	436.44149659863945	50	127
436.47632653061225	436.5575963718821	50	127
436.5808163265306	436.6504761904762	50	127
436.685306122449	436.7781859410431	50	127
436.80140589569163	436.88267573696146	50	127
437.06843537414966	437.25419501133786	50	127
437.2774149659864	437.3702947845805	50	127
437.39351473922903	437.4515646258503	50	127
437.47478458049886	437.5444444444444	50	127
437.5560544217687	437.6257142857143	50	127
437.66054421768706	437.7302040816327	50	127
437.75342403628116	437.83469387755105	50	127
437.84630385487526	437.92757369614515	50	127
437.9507936507936	438.008843537415	50	127
438.0320634920635	438.1249433106576	50	127
438.1365532879819	438.229433106576	50	127
438.25265306122446	438.35714285714283	50	127
438.3687528344671	438.4384126984127	50	127
438.450022675737	438.51968253968255	50	127
438.5429024943311	438.6357823129252	50	127
438.64739229024946	438.7286621315193	50	127
438.74027210884356	438.8215419501134	50	127
438.8563718820862	438.937641723356	50	127
438.9492517006803	439.0305215419501	50	127
439.0421315192744	439.1350113378685	50	127
439.15823129251703	439.2162811791383	50	127
439.2278911564626	439.3091609977324	50	127
439.3207709750567	439.39043083900225	50	127
439.4136507936508	439.5413605442177	50	127
439.4136507936508	440.3656689342404	45	127
439.55297052154197	439.6806802721088	50	127
439.6922902494331	439.84321995464853	50	127
439.86643990929707	439.9477097505669	50	127
439.95931972789117	440.0986394557823	50	127
440.11024943310656	440.1915192743764	50	127
440.21473922902493	440.28439909297055	50	127
440.29600907029476	440.3540589569161	50	127
440.3656689342404	440.43532879818594	50	127
440.3656689342404	440.83006802721087	43	127
440.4585487528345	440.59786848072565	50	127
440.60947845804986	440.71396825396823	50	127
440.7371882086168	440.80684807256233	50	127
440.83006802721087	441.3873469387755	41	127
440.83006802721087	440.8997278911565	50	127
440.92294784580497	441.01582766439907	50	127
441.02743764172334	441.09709750566896	50	127
441.1783673469388	441.37573696145125	50	127
441.3873469387755	442.4554648526077	38	127
441.3873469387755	441.56149659863945	50	127
441.584716553288	441.65437641723355	50	127
441.6775963718821	441.74725623582765	50	127
441.7936961451247	441.90979591836737	50	127
441.93301587301585	441.9910657596372	50	127
442.01428571428573	442.1652154195011	50	127
442.1768253968254	442.3045351473923	50	127
442.3509750566893	442.42063492063494	50	127
442.4554648526077	442.60639455782314	50	127
442.4554648526077	443.47714285714284	45	127
442.6180045351474	442.68766439909297	50	127
442.7108843537415	442.7689342403628	50	127
442.79215419501134	442.8966439909297	50	127
442.9430839002268	443.1172335600907	50	127
443.14045351473925	443.19850340136054	50	127
443.2565532879819	443.3610430839002	50	127
443.37265306122447	443.45392290249436	50	127
443.47714285714284	443.5351927437642	50	127
443.47714285714284	443.9067120181406	43	127
443.5816326530612	443.6629024943311	50	127
443.69773242630384	443.8022222222222	50	127
443.82544217687075	443.8951020408163	50	127
443.9067120181406	444.94	41	127
443.9067120181406	444.057641723356	50	127
444.0692517006803	444.17374149659867	50	127
444.19696145124715	444.5336507936508	50	127
444.54526077097506	444.9283900226757	50	127
444.94	445.7643083900227	38	127
444.94	445.0212698412698	50	127
445.04448979591837	445.1141496598639	50	127
445.1257596371882	445.1954195011338	50	127
445.2186394557823	445.3115192743764	50	127
445.32312925170066	445.3927891156463	50	127
445.41600907029476	445.52049886621313	50	127
445.5321088435374	445.61337868480723	50	127
445.63659863945577	445.7178684807256	50	127
445.7643083900227	446.73954648526075	45	127
445.7643083900227	445.8455782312925	50	127
445.86879818594105	445.9732879818594	50	127
446.0081179138322	446.18226757369615	50	127
446.2054875283447	446.2867573696145	50	127
446.32158730158733	446.4492970521542	50	127
446.46090702947845	446.5421768707483	50	127
446.5653968253968	446.6350566893424	50	127
446.64666666666665	446.71632653061226	50	127
446.73954648526075	446.8324263038549	50	127
446.73954648526075	447.32004535147394	43	127
446.8440362811791	446.91369614512473	50	127
446.96013605442175	447.0762358276644	50	127
447.08784580498866	447.2852154195011	50	127
447.32004535147394	448.1095238095238	41	127
447.32004535147394	447.5638548752834	50	127
447.58707482993196	447.6683446712018	50	127
447.7147845804989	447.8308843537415	50	127
448.00503401360544	448.09791383219954	50	127
448.1559637188209	460.43931972789113	38	127
448.1559637188209	449.1079818594104	50	127
449.1079818594104	450.04839002267573	49	127
450.04839002267573	451.0700680272109	50	127
451.0700680272109	452.3703854875283	49	127
452.3703854875283	453.25274376417235	50	127
453.25274376417235	454.12349206349205	49	127
454.1351020408163	455.04068027210883	50	127
455.04068027210883	456.0043083900227	49	127
456.0043083900227	456.8982766439909	50	127
456.8982766439909	457.9547845804989	49	127
457.9547845804989	459.19705215419503	50	127
459.19705215419503	460.4973696145125	49	127
460.8108390022676	468.5895238095238	65	127
460.8108390022676	468.41537414965984	57	127
460.8108390022676	468.41537414965984	50	127
460.8108390022676	468.41537414965984	38	127
