# onset,offset,note,velocity
0.26625850340136054	0.4984580498866213	72	127
0.26625850340136054	0.4984580498866213	60	127
0.6609977324263039	0.9512471655328798	77	127
0.6609977324263039	0.9512471655328798	65	127
1.0325170068027212	1.1370068027210884	62	127
1.0325170068027212	1.1370068027210884	74	127
1.1602267573696146	1.2647165532879818	72	127
1.1602267573696146	1.2647165532879818	60	127
1.299546485260771	1.3692063492063493	62	127
1.299546485260771	1.3692063492063493	74	127
1.3924263038548752	1.5781859410430839	77	127
1.3924263038548752	1.5781859410430839	65	127
1.8684353741496598	2.0309750566893423	60	127
1.8684353741496598	2.0309750566893423	72	127
2.205124716553288	2.530204081632653	77	127
2.205124716553288	2.530204081632653	65	127
2.6346938775510202	2.739183673469388	62	127
2.6346938775510202	2.739183673469388	74	127
2.774013605442177	2.878503401360544	72	127
2.774013605442177	2.878503401360544	60	127
2.9017233560090703	3.0062131519274375	74	127
2.9017233560090703	3.0062131519274375	62	127
3.041043083900227	3.2732426303854876	69	127
3.041043083900227	3.2732426303854876	57	127
3.6099319727891155	4.434240362811791	72	127
3.6099319727891155	3.888571428571429	65	127
3.6099319727891155	3.888571428571429	57	127
3.6099319727891155	4.1788208616780045	48	127
3.888571428571429	4.213650793650793	67	127
3.888571428571429	4.341360544217687	58	127
4.213650793650793	4.341360544217687	62	127
4.213650793650793	4.422607709750567	36	127
4.341360544217687	4.4458503401360545	64	127
4.341360544217687	4.4458503401360545	55	127
4.46907029478458	4.7477097505668935	57	127
4.46907029478458	5.351428571428571	72	127
4.46907029478458	4.7477097505668935	65	127
4.46907029478458	5.061179138321996	48	127
4.7477097505668935	5.246916099773243	58	127
4.7477097505668935	5.11922902494331	67	127
5.11922902494331	5.246916099773243	62	127
5.11922902494331	5.339818594104308	36	127
5.246916099773243	5.363038548752835	55	127
5.246916099773243	5.363038548752835	64	127
5.409478458049887	5.711337868480726	57	127
5.409478458049887	5.711337868480726	65	127
5.409478458049887	5.989977324263038	48	127
5.409478458049887	7.092925170068027	72	127
5.711337868480726	6.164126984126984	58	127
5.711337868480726	6.013197278911565	67	127
6.013197278911565	6.164126984126984	62	127
6.013197278911565	6.291836734693877	36	127
6.164126984126984	6.3382766439909295	64	127
6.164126984126984	6.3382766439909295	55	127
6.361496598639456	7.116145124716553	65	127
6.361496598639456	6.674965986394557	57	127
6.361496598639456	6.674965986394557	41	127
7.116145124716553	7.267074829931973	67	127
7.267074829931973	7.394784580498866	64	127
7.394784580498866	7.510884353741496	65	127
7.661814058956916	7.766303854875283	72	127
7.661814058956916	7.766303854875283	84	127
7.661814058956916	7.766303854875283	60	127
7.928843537414966	8.242312925170069	77	127
7.928843537414966	8.242312925170069	89	127
7.928843537414966	8.242312925170069	65	127
8.323582766439909	8.43968253968254	74	127
8.323582766439909	8.43968253968254	86	127
8.323582766439909	8.43968253968254	62	127
8.474512471655329	8.579002267573696	84	127
8.474512471655329	8.579002267573696	72	127
8.474512471655329	8.579002267573696	60	127
8.602222222222222	8.706712018140589	74	127
8.602222222222222	8.706712018140589	62	127
8.602222222222222	8.706712018140589	86	127
8.729931972789116	8.950521541950113	89	127
8.729931972789116	8.950521541950113	65	127
8.729931972789116	8.950521541950113	77	127
8.729931972789116	8.811201814058958	57	127
8.729931972789116	8.811201814058958	50	127
8.86922902494331	8.950521541950113	50	127
8.86922902494331	8.950521541950113	57	127
9.008571428571429	9.101451247165533	57	127
9.008571428571429	9.101451247165533	50	127
9.287210884353742	9.391700680272109	72	127
9.287210884353742	9.391700680272109	84	127
9.287210884353742	9.391700680272109	60	127
9.554240362811791	9.867709750566894	77	127
9.554240362811791	9.867709750566894	89	127
9.554240362811791	9.867709750566894	65	127
9.948956916099773	10.053469387755102	62	127
9.948956916099773	10.053469387755102	74	127
9.948956916099773	10.053469387755102	86	127
10.076666666666666	10.16954648526077	84	127
10.076666666666666	10.16954648526077	72	127
10.076666666666666	10.16954648526077	60	127
10.204399092970522	10.30888888888889	74	127
10.204399092970522	10.30888888888889	62	127
10.204399092970522	10.30888888888889	86	127
10.332108843537416	10.517845804988662	81	127
10.332108843537416	10.517845804988662	57	127
10.332108843537416	10.517845804988662	69	127
10.332108843537416	10.390136054421768	60	127
10.332108843537416	10.390136054421768	53	127
10.436598639455783	10.517845804988662	53	127
10.436598639455783	10.517845804988662	60	127
10.575918367346938	10.65718820861678	60	127
10.575918367346938	10.65718820861678	53	127
10.970657596371883	11.748526077097505	84	127
10.970657596371883	11.237687074829932	77	127
10.970657596371883	11.237687074829932	69	127
10.970657596371883	11.481496598639456	60	127
11.237687074829932	11.504716553287983	79	127
11.237687074829932	11.6556462585034	70	127
11.504716553287983	11.6556462585034	74	127
11.504716553287983	11.736916099773243	48	127
11.6556462585034	11.76013605442177	67	127
11.6556462585034	11.76013605442177	76	127
11.80657596371882	12.584444444444445	84	127
11.80657596371882	12.085215419501134	77	127
11.80657596371882	12.085215419501134	69	127
11.80657596371882	12.317414965986394	60	127
12.085215419501134	12.34063492063492	79	127
12.085215419501134	12.49156462585034	70	127
12.34063492063492	12.561224489795919	48	127
12.34063492063492	12.49156462585034	74	127
12.49156462585034	12.596054421768708	76	127
12.49156462585034	12.596054421768708	67	127
12.619274376417234	13.861541950113379	84	127
12.619274376417234	12.90952380952381	77	127
12.619274376417234	12.90952380952381	69	127
12.619274376417234	13.164943310657597	60	127
12.90952380952381	13.199773242630386	79	127
12.90952380952381	13.37392290249433	70	127
13.199773242630386	13.37392290249433	74	127
13.199773242630386	13.478412698412699	48	127
13.37392290249433	13.513242630385488	76	127
13.37392290249433	13.513242630385488	67	127
13.536462585034014	13.768662131519275	53	127
13.536462585034014	13.82671201814059	69	127
13.536462585034014	13.873151927437641	77	127
13.873151927437641	13.966031746031746	50	127
14.024081632653061	14.128571428571428	48	127
14.198231292517006	14.302721088435375	41	127
14.511700680272108	14.616190476190477	84	127
14.639410430839002	14.732290249433106	86	127
14.755510204081633	14.97609977324263	89	127
14.755510204081633	14.848390022675737	69	127
14.755510204081633	14.848390022675737	62	127
14.894829931972788	14.97609977324263	62	127
14.894829931972788	14.97609977324263	69	127
15.022539682539682	15.12702947845805	69	127
15.022539682539682	15.12702947845805	62	127
15.324399092970522	15.440498866213153	84	127
15.463718820861677	15.533378684807257	86	127
15.556598639455782	15.59142857142857	65	127
15.556598639455782	15.59142857142857	72	127
15.556598639455782	15.719138321995464	81	127
15.637868480725624	15.719138321995464	65	127
15.637868480725624	15.719138321995464	72	127
15.765578231292517	15.916507936507937	72	127
15.765578231292517	15.916507936507937	65	127
16.171927437641724	16.276394557823128	72	127
16.322857142857142	16.42734693877551	74	127
16.450566893424035	16.53183673469388	50	127
16.450566893424035	16.53183673469388	57	127
16.450566893424035	16.659546485260773	77	127
16.57827664399093	16.671156462585035	57	127
16.57827664399093	16.671156462585035	50	127
16.72920634920635	16.822086167800453	57	127
16.72920634920635	16.822086167800453	50	127
17.031043083900226	17.135555555555555	72	127
17.15875283446712	17.26326530612245	74	127
17.286462585034013	17.402585034013605	60	127
17.286462585034013	17.402585034013605	53	127
17.286462585034013	17.588344671201813	69	127
17.46063492063492	17.588344671201813	53	127
17.46063492063492	17.588344671201813	60	127
17.634784580498867	17.716054421768707	60	127
17.634784580498867	17.716054421768707	53	127
17.901814058956916	18.168843537414965	93	127
17.901814058956916	17.983061224489795	65	127
17.901814058956916	17.983061224489795	60	127
18.02952380952381	18.122403628117915	65	127
18.02952380952381	18.122403628117915	62	127
18.168843537414965	18.505532879818595	89	127
18.168843537414965	18.25011337868481	65	127
18.168843537414965	18.459092970521542	57	127
18.168843537414965	18.273333333333333	72	127
18.377823129251702	18.459092970521542	65	127
18.377823129251702	18.482312925170067	74	127
18.505532879818595	18.64485260770975	69	127
18.505532879818595	18.72612244897959	77	127
18.64485260770975	18.772562358276645	84	127
18.64485260770975	18.72612244897959	65	127
18.772562358276645	19.051201814058956	84	127
18.772562358276645	18.865442176870747	65	127
18.772562358276645	18.865442176870747	60	127
18.9118820861678	18.99315192743764	65	127
18.9118820861678	18.99315192743764	62	127
19.051201814058956	19.17891156462585	91	127
19.051201814058956	19.1324716553288	65	127
19.051201814058956	19.155691609977325	72	127
19.051201814058956	19.260181405895693	57	127
19.17891156462585	19.283401360544218	74	127
19.17891156462585	19.271791383219956	65	127
19.17891156462585	19.306621315192743	89	127
19.32984126984127	19.469160997732427	69	127
19.32984126984127	19.550430839002267	77	127
19.469160997732427	19.550430839002267	65	127
19.469160997732427	19.59687074829932	93	127
19.59687074829932	19.701337868480724	60	127
19.59687074829932	19.701337868480724	65	127
19.59687074829932	19.875510204081632	93	127
19.74780045351474	19.829070294784582	65	127
19.74780045351474	19.829070294784582	62	127
19.875510204081632	19.98	72	127
19.875510204081632	20.09609977324263	57	127
19.875510204081632	20.154149659863947	89	127
19.875510204081632	19.968390022675738	65	127
20.026439909297054	20.107709750566894	65	127
20.026439909297054	20.13092970521542	74	127
20.154149659863947	20.28185941043084	69	127
20.154149659863947	20.28185941043084	88	127
20.154149659863947	20.36312925170068	77	127
20.28185941043084	20.374739229024943	65	127
20.28185941043084	20.43278911564626	86	127
20.43278911564626	20.583696145124716	69	127
20.43278911564626	20.5140589569161	60	127
20.43278911564626	20.71140589569161	89	127
20.583696145124716	20.676598639455783	65	127
20.583696145124716	20.676598639455783	62	127
20.723038548752836	20.8275283446712	72	127
20.723038548752836	20.804308390022676	65	127
20.723038548752836	20.93201814058957	57	127
20.85074829931973	20.93201814058957	65	127
20.85074829931973	20.966825396825396	74	127
20.990068027210885	21.16421768707483	69	127
20.990068027210885	21.23387755102041	77	127
21.16421768707483	21.245487528344672	65	127
21.291927437641725	21.558956916099774	93	127
21.291927437641725	21.373197278911565	65	127
21.291927437641725	21.373197278911565	60	127
21.41963718820862	21.51251700680272	65	127
21.41963718820862	21.51251700680272	62	127
21.558956916099774	21.663424036281178	72	127
21.558956916099774	21.640226757369614	65	127
21.558956916099774	21.77954648526077	57	127
21.558956916099774	21.825986394557823	89	127
21.686666666666667	21.79113378684807	65	127
21.686666666666667	21.8027664399093	74	127
21.837596371882086	22.058185941043085	77	127
21.837596371882086	21.96530612244898	69	127
21.96530612244898	22.058185941043085	65	127
21.96530612244898	22.104603174603174	84	127
22.104603174603174	22.209115646258503	60	127
22.104603174603174	22.38326530612245	84	127
22.104603174603174	22.209115646258503	65	127
22.255555555555556	22.336825396825397	62	127
22.255555555555556	22.336825396825397	65	127
22.38326530612245	22.510975056689343	91	127
22.38326530612245	22.476145124716552	65	127
22.38326530612245	22.487732426303854	72	127
22.38326530612245	22.603854875283446	57	127
22.510975056689343	22.638684807256237	74	127
22.510975056689343	22.615442176870747	65	127
22.510975056689343	22.66190476190476	89	127
22.66190476190476	22.812834467120183	69	127
22.66190476190476	22.894104308390023	77	127
22.812834467120183	22.905714285714286	65	127
22.812834467120183	22.940544217687076	93	127
22.95215419501134	23.207573696145126	93	127
22.95215419501134	23.03342403628118	65	127
22.95215419501134	23.03342403628118	60	127
23.079863945578232	23.161133786848072	65	127
23.079863945578232	23.161133786848072	62	127
23.207573696145126	23.509433106575965	89	127
23.207573696145126	23.300453514739228	65	127
23.207573696145126	23.34689342403628	72	127
23.207573696145126	23.462993197278912	57	127
23.34689342403628	23.462993197278912	65	127
23.34689342403628	23.509433106575965	74	127
23.509433106575965	23.671972789115646	67	127
23.509433106575965	23.671972789115646	88	127
23.509433106575965	23.671972789115646	55	127
23.509433106575965	23.91578231292517	70	127
23.671972789115646	23.764852607709752	65	127
23.671972789115646	23.79968253968254	53	127
23.671972789115646	23.91578231292517	86	127
23.91578231292517	24.206031746031748	89	127
23.91578231292517	24.11315192743764	65	127
23.91578231292517	24.11315192743764	53	127
23.91578231292517	24.159591836734695	69	127
24.21764172335601	24.38018140589569	53	127
24.21764172335601	24.38018140589569	41	127
24.83297052154195	24.914240362811793	60	127
24.972290249433108	25.05356009070295	62	127
25.111609977324264	25.204489795918366	81	127
25.111609977324264	25.204489795918366	74	127
25.111609977324264	25.297369614512473	65	127
25.262539682539682	25.343809523809522	81	127
25.262539682539682	25.343809523809522	74	127
25.425079365079366	25.506349206349206	81	127
25.425079365079366	25.506349206349206	74	127
25.680498866213153	25.75015873015873	60	127
25.808208616780046	25.91269841269841	62	127
25.959138321995464	26.040408163265305	72	127
25.959138321995464	26.040408163265305	65	127
25.959138321995464	26.144897959183673	57	127
26.12167800453515	26.20294784580499	65	127
26.12167800453515	26.20294784580499	72	127
26.249387755102042	26.330657596371882	72	127
26.249387755102042	26.330657596371882	65	127
26.528027210884353	26.62090702947846	48	127
26.66734693877551	26.748616780045353	50	127
26.829886621315193	26.945986394557824	69	127
26.829886621315193	26.945986394557824	62	127
26.829886621315193	27.038866213151927	53	127
27.015646258503402	27.096916099773242	69	127
27.015646258503402	27.096916099773242	62	127
27.154965986394558	27.236235827664398	62	127
27.154965986394558	27.236235827664398	69	127
27.398775510204082	27.480045351473922	48	127
27.538095238095238	27.630975056689344	50	127
27.700634920634922	27.781904761904762	60	127
27.700634920634922	27.781904761904762	53	127
27.700634920634922	27.863174603174603	45	127
27.828344671201815	27.921224489795918	60	127
27.828344671201815	27.921224489795918	53	127
27.96766439909297	28.04893424036281	60	127
27.96766439909297	28.04893424036281	53	127
28.246303854875283	28.327573696145123	72	127
28.246303854875283	28.327573696145123	53	127
28.246303854875283	28.513333333333332	45	127
28.38562358276644	28.466893424036282	53	127
28.38562358276644	28.466893424036282	74	127
28.513333333333332	28.594603174603176	53	127
28.513333333333332	28.76875283446712	41	127
28.513333333333332	28.594603174603176	84	127
28.513333333333332	28.76875283446712	69	127
28.675873015873016	28.76875283446712	53	127
28.675873015873016	28.76875283446712	86	127
28.826802721088434	29.093832199546487	89	127
28.826802721088434	28.954512471655327	57	127
28.954512471655327	29.03578231292517	53	127
28.954512471655327	29.03578231292517	36	127
29.093832199546487	29.38408163265306	36	127
29.093832199546487	29.175102040816327	72	127
29.093832199546487	29.175102040816327	53	127
29.22154195011338	29.30281179138322	74	127
29.22154195011338	29.30281179138322	53	127
29.38408163265306	29.616281179138323	69	127
29.38408163265306	29.45374149659864	84	127
29.38408163265306	29.45374149659864	53	127
29.38408163265306	29.511791383219954	43	127
29.511791383219954	29.639501133786847	41	127
29.511791383219954	29.616281179138323	86	127
29.511791383219954	29.616281179138323	53	127
29.662721088435376	29.929750566893425	89	127
29.662721088435376	29.80204081632653	57	127
29.80204081632653	29.87170068027211	53	127
29.80204081632653	29.87170068027211	41	127
29.929750566893425	30.011020408163265	53	127
29.929750566893425	30.011020408163265	72	127
29.929750566893425	30.231609977324265	45	127
30.080680272108843	30.161950113378683	53	127
30.080680272108843	30.161950113378683	74	127
30.231609977324265	30.510249433106576	41	127
30.231609977324265	30.324489795918367	84	127
30.231609977324265	30.324489795918367	53	127
30.231609977324265	30.45219954648526	69	127
30.37092970521542	30.45219954648526	86	127
30.37092970521542	30.45219954648526	53	127
30.510249433106576	30.63795918367347	40	127
30.510249433106576	30.63795918367347	57	127
30.510249433106576	30.765668934240363	89	127
30.63795918367347	30.765668934240363	38	127
30.63795918367347	30.71922902494331	53	127
30.765668934240363	30.98625850340136	41	127
30.765668934240363	30.846938775510203	72	127
30.765668934240363	30.90498866213152	57	127
30.90498866213152	30.98625850340136	74	127
30.90498866213152	30.98625850340136	53	127
31.067528344671203	31.160408163265306	84	127
31.067528344671203	31.160408163265306	53	127
31.067528344671203	31.29972789115646	69	127
31.21845804988662	31.29972789115646	53	127
31.21845804988662	31.29972789115646	86	127
31.392607709750568	31.659637188208617	89	127
31.392607709750568	31.52031746031746	57	127
31.392607709750568	31.555147392290248	41	127
31.52031746031746	31.6015873015873	53	127
31.659637188208617	31.915056689342403	45	127
31.659637188208617	31.729297052154195	72	127
31.659637188208617	31.729297052154195	53	127
31.78734693877551	31.86861678004535	74	127
31.78734693877551	31.86861678004535	53	127
31.915056689342403	32.007936507936506	84	127
31.915056689342403	32.007936507936506	53	127
31.915056689342403	32.19369614512472	69	127
31.915056689342403	32.19369614512472	41	127
32.065986394557825	32.19369614512472	53	127
32.065986394557825	32.19369614512472	86	127
32.25174603174603	32.51877551020408	89	127
32.25174603174603	32.391065759637186	57	127
32.391065759637186	32.46072562358277	53	127
32.391065759637186	32.46072562358277	36	127
32.51877551020408	32.797392290249434	36	127
32.51877551020408	32.60004535147392	72	127
32.51877551020408	32.60004535147392	53	127
32.65807256235828	32.73936507936508	74	127
32.65807256235828	32.73936507936508	53	127
32.797392290249434	32.8902947845805	84	127
32.797392290249434	32.8902947845805	53	127
32.797392290249434	32.936734693877554	43	127
32.797392290249434	33.01800453514739	69	127
32.936734693877554	33.04120181405896	41	127
32.936734693877554	33.01800453514739	86	127
32.936734693877554	33.01800453514739	53	127
33.07605442176871	33.366303854875284	89	127
33.07605442176871	33.215374149659866	57	127
33.215374149659866	33.296621315192745	53	127
33.215374149659866	33.296621315192745	41	127
33.366303854875284	33.45918367346939	72	127
33.366303854875284	33.66816326530612	45	127
33.366303854875284	33.45918367346939	53	127
33.528843537414964	33.61011337868481	53	127
33.528843537414964	33.61011337868481	74	127
33.66816326530612	34.01646258503401	41	127
33.66816326530612	33.819092970521545	53	127
33.66816326530612	33.865532879818595	84	127
33.66816326530612	33.94680272108844	69	127
33.865532879818595	33.94680272108844	53	127
33.865532879818595	34.01646258503401	86	127
34.01646258503401	34.15578231292517	40	127
34.01646258503401	34.132562358276644	67	127
34.01646258503401	34.15578231292517	55	127
34.01646258503401	34.248662131519275	82	127
34.15578231292517	34.2718820861678	65	127
34.15578231292517	34.248662131519275	53	127
34.15578231292517	34.30668934240363	38	127
34.30668934240363	35.235510204081635	41	127
34.30668934240363	34.59696145124717	81	127
34.30668934240363	34.70142857142857	65	127
34.30668934240363	34.70142857142857	48	127
34.86399092970522	35.235510204081635	77	127
36.117868480725626	36.53582766439909	53	127
36.117868480725626	36.53582766439909	72	127
36.117868480725626	36.53582766439909	69	127
36.117868480725626	36.53582766439909	65	127
36.117868480725626	36.53582766439909	60	127
36.53582766439909	37.32530612244898	50	127
36.53582766439909	36.9421768707483	62	127
36.53582766439909	37.13954648526077	77	127
36.53582766439909	37.32530612244898	65	127
36.53582766439909	37.32530612244898	69	127
36.9421768707483	37.32530612244898	53	127
37.13954648526077	37.33691609977324	74	127
37.3485260770975	37.731632653061226	53	127
37.3485260770975	37.55750566893424	72	127
37.3485260770975	38.09156462585034	57	127
37.3485260770975	37.731632653061226	69	127
37.3485260770975	37.731632653061226	65	127
37.55750566893424	37.731632653061226	74	127
37.731632653061226	38.43986394557823	50	127
37.731632653061226	38.079954648526076	77	127
37.731632653061226	38.43986394557823	65	127
37.731632653061226	38.43986394557823	69	127
38.09156462585034	38.463083900226756	62	127
38.47469387755102	38.904263038548756	60	127
38.47469387755102	38.904263038548756	72	127
38.47469387755102	38.904263038548756	69	127
38.47469387755102	38.904263038548756	65	127
38.47469387755102	38.904263038548756	53	127
38.904263038548756	39.76337868480726	65	127
38.904263038548756	39.39185941043084	62	127
38.904263038548756	39.58925170068027	77	127
38.904263038548756	39.76337868480726	69	127
38.904263038548756	39.76337868480726	50	127
39.39185941043084	39.77498866213152	53	127
39.58925170068027	39.79823129251701	74	127
39.80984126984127	39.99560090702948	65	127
39.80984126984127	40.239410430839	50	127
39.80984126984127	39.99560090702948	72	127
39.80984126984127	40.239410430839	69	127
39.80984126984127	40.239410430839	65	127
39.99560090702948	40.239410430839	74	127
39.99560090702948	40.239410430839	62	127
40.239410430839	40.645759637188206	69	127
40.239410430839	41.04047619047619	65	127
40.239410430839	41.04047619047619	69	127
40.239410430839	41.04047619047619	60	127
40.239410430839	41.04047619047619	53	127
41.07532879818594	42.21310657596372	48	127
41.07532879818594	41.168185941043085	72	127
41.07532879818594	41.44684807256236	57	127
41.07532879818594	41.44684807256236	65	127
41.168185941043085	41.27269841269841	74	127
41.27269841269841	41.36557823129252	72	127
41.36557823129252	41.44684807256236	74	127
41.44684807256236	41.8415873015873	67	127
41.44684807256236	41.56294784580499	72	127
41.44684807256236	42.050544217687076	58	127
41.56294784580499	41.65582766439909	74	127
41.65582766439909	41.76031746031746	72	127
41.76031746031746	41.8415873015873	74	127
41.8415873015873	42.050544217687076	62	127
41.8415873015873	41.94607709750567	72	127
41.94607709750567	42.050544217687076	74	127
42.050544217687076	42.1550566893424	72	127
42.050544217687076	42.21310657596372	64	127
42.050544217687076	42.21310657596372	55	127
42.1550566893424	42.24793650793651	74	127
42.24793650793651	42.70072562358277	65	127
42.24793650793651	43.710793650793654	48	127
42.24793650793651	42.36403628117914	72	127
42.24793650793651	42.70072562358277	57	127
42.36403628117914	42.48013605442177	74	127
42.48013605442177	42.58462585034014	72	127
42.58462585034014	42.70072562358277	74	127
42.70072562358277	42.80521541950113	72	127
42.70072562358277	43.17673469387755	67	127
42.70072562358277	43.4553514739229	58	127
42.80521541950113	42.94451247165533	74	127
42.94451247165533	43.06061224489796	72	127
43.06061224489796	43.17673469387755	74	127
43.17673469387755	43.4553514739229	62	127
43.17673469387755	43.31603174603175	72	127
43.31603174603175	43.4553514739229	74	127
43.4553514739229	43.59469387755102	72	127
43.4553514739229	43.652743764172335	64	127
43.4553514739229	43.652743764172335	55	127
43.59469387755102	43.74562358276644	74	127
43.74562358276644	44.27968253968254	57	127
43.74562358276644	45.603197278911566	48	127
43.74562358276644	43.873333333333335	72	127
43.74562358276644	44.27968253968254	65	127
43.873333333333335	44.00104308390023	74	127
44.00104308390023	44.140362811791384	72	127
44.140362811791384	44.27968253968254	74	127
44.27968253968254	45.243310657596375	58	127
44.27968253968254	44.836938775510205	67	127
44.27968253968254	44.44222222222222	72	127
44.44222222222222	44.569931972789114	74	127
44.569931972789114	44.686031746031745	72	127
44.686031746031745	44.836938775510205	74	127
44.836938775510205	45.243310657596375	62	127
44.836938775510205	45.03433106575964	72	127
45.03433106575964	45.243310657596375	74	127
45.243310657596375	45.603197278911566	55	127
45.243310657596375	45.49873015873016	71	127
45.243310657596375	45.603197278911566	64	127
45.49873015873016	45.91668934240363	72	127
45.91668934240363	46.26498866213152	72	127
45.91668934240363	48.575374149659865	41	127
45.91668934240363	47.124104308390024	57	127
45.91668934240363	47.158956916099775	65	127
46.26498866213152	46.54362811791383	74	127
46.54362811791383	46.84548752834467	72	127
46.84548752834467	47.14734693877551	67	127
47.158956916099775	48.55215419501134	60	127
47.158956916099775	48.900453514739226	65	127
47.158956916099775	48.55215419501134	57	127
50.20077097505669	51.187619047619044	72	127
50.20077097505669	50.57229024943311	72	127
50.57229024943311	50.85092970521542	77	127
50.85092970521542	51.187619047619044	79	127
51.187619047619044	51.72167800453515	77	127
51.187619047619044	51.4546485260771	80	127
51.4546485260771	51.72167800453515	79	127
51.72167800453515	51.965487528344674	73	127
51.72167800453515	51.953877551020405	77	127
51.965487528344674	52.5227664399093	72	127
51.965487528344674	52.244126984126986	80	127
52.244126984126986	52.5227664399093	84	127
52.5227664399093	52.80140589569161	82	127
52.5227664399093	52.80140589569161	73	127
52.80140589569161	53.12648526077098	80	127
52.80140589569161	53.40512471655329	77	127
53.12648526077098	53.40512471655329	79	127
53.40512471655329	53.64893424036281	77	127
53.660544217687075	54.49646258503402	72	127
53.660544217687075	53.974013605442174	75	127
53.974013605442174	54.2178231292517	77	127
54.2178231292517	54.49646258503402	79	127
54.49646258503402	55.00730158730159	77	127
54.49646258503402	54.751882086167804	80	127
54.751882086167804	55.00730158730159	82	127
55.00730158730159	55.25111111111111	83	127
55.00730158730159	55.26272108843538	73	127
55.27433106575964	55.87804988662131	72	127
55.27433106575964	55.622630385487525	84	127
55.622630385487525	55.87804988662131	80	127
55.87804988662131	56.15668934240363	77	127
55.87804988662131	56.15668934240363	73	127
56.15668934240363	56.63269841269841	72	127
56.15668934240363	56.63269841269841	75	127
56.15668934240363	56.63269841269841	68	127
57.08548752834467	57.82852607709751	60	127
57.08548752834467	57.166757369614515	53	127
57.08548752834467	57.18997732426304	80	127
57.08548752834467	57.18997732426304	68	127
57.22480725623583	57.29446712018141	53	127
57.28285714285714	57.34090702947846	79	127
57.28285714285714	57.34090702947846	67	127
57.35251700680272	57.45700680272109	79	127
57.35251700680272	57.45700680272109	67	127
57.35251700680272	57.549886621315196	53	127
57.53827664399093	57.596326530612245	77	127
57.53827664399093	57.596326530612245	65	127
57.60793650793651	57.816916099773245	77	127
57.60793650793651	57.816916099773245	65	127
57.863356009070294	58.525124716553286	65	127
57.863356009070294	57.9562358276644	49	127
57.863356009070294	57.99106575963719	80	127
57.863356009070294	57.99106575963719	68	127
58.01428571428571	58.11877551020408	49	127
58.083945578231294	58.18843537414966	79	127
58.083945578231294	58.18843537414966	67	127
58.22326530612245	58.362585034013605	79	127
58.22326530612245	58.362585034013605	67	127
58.22326530612245	58.478684807256236	49	127
58.45546485260771	58.513514739229024	77	127
58.45546485260771	58.513514739229024	65	127
58.525124716553286	58.792154195011335	61	127
58.525124716553286	58.745714285714286	77	127
58.525124716553286	58.745714285714286	65	127
58.8037641723356	59.3378231292517	60	127
58.8037641723356	58.88503401360544	53	127
58.8037641723356	58.908253968253966	80	127
58.8037641723356	58.908253968253966	68	127
58.93147392290249	59.012743764172335	53	127
59.00113378684807	59.04757369614512	79	127
59.00113378684807	59.04757369614512	67	127
59.070793650793654	59.175283446712015	79	127
59.070793650793654	59.175283446712015	67	127
59.070793650793654	59.291383219954646	53	127
59.279773242630384	59.32621315192744	77	127
59.279773242630384	59.32621315192744	65	127
59.3378231292517	59.54680272108843	65	127
59.3378231292517	59.54680272108843	77	127
59.3378231292517	59.59324263038549	61	127
59.59324263038549	60.382721088435375	65	127
59.59324263038549	59.674512471655326	49	127
59.59324263038549	59.69773242630386	80	127
59.59324263038549	59.69773242630386	68	127
59.732562358276645	59.80222222222222	49	127
59.79061224489796	59.848662131519276	79	127
59.79061224489796	59.848662131519276	67	127
59.848662131519276	59.953151927437645	79	127
59.848662131519276	59.953151927437645	67	127
59.848662131519276	60.03442176870748	49	127
60.02281179138322	60.08086167800454	77	127
60.02281179138322	60.08086167800454	65	127
60.10408163265306	60.34789115646259	77	127
60.10408163265306	60.34789115646259	65	127
60.4059410430839	61.23024943310658	60	127
60.4059410430839	60.48721088435374	53	127
60.4059410430839	60.545260770975055	80	127
60.4059410430839	60.545260770975055	68	127
60.56848072562358	60.661360544217686	53	127
60.63814058956916	60.69619047619047	79	127
60.63814058956916	60.69619047619047	67	127
60.707800453514736	60.82390022675737	79	127
60.707800453514736	60.82390022675737	67	127
60.707800453514736	60.928390022675735	53	127
60.91678004535147	60.97482993197279	77	127
60.91678004535147	60.97482993197279	65	127
60.986439909297054	61.195419501133784	77	127
60.986439909297054	61.195419501133784	65	127
61.2534693877551	61.33473922902494	49	127
61.2534693877551	61.35795918367347	80	127
61.2534693877551	61.35795918367347	68	127
61.2534693877551	61.7875283446712	65	127
61.381179138322	61.462448979591834	49	127
61.45083900226757	61.50888888888889	79	127
61.45083900226757	61.50888888888889	67	127
61.532108843537415	61.636598639455784	79	127
61.532108843537415	61.636598639455784	67	127
61.532108843537415	61.74108843537415	49	127
61.72947845804989	61.77591836734694	77	127
61.72947845804989	61.77591836734694	65	127
61.7875283446712	62.0081179138322	65	127
61.7875283446712	62.0081179138322	77	127
61.7875283446712	62.04294784580499	61	127
62.05455782312925	62.57700680272109	60	127
62.05455782312925	62.135827664399095	53	127
62.05455782312925	62.15904761904762	80	127
62.05455782312925	62.15904761904762	68	127
62.182267573696144	62.26353741496599	53	127
62.251927437641726	62.30997732426304	79	127
62.251927437641726	62.30997732426304	67	127
62.30997732426304	62.414467120181406	79	127
62.30997732426304	62.414467120181406	67	127
62.30997732426304	62.518956916099775	53	127
62.50734693877551	62.55378684807256	77	127
62.50734693877551	62.55378684807256	65	127
62.57700680272109	62.785986394557824	65	127
62.57700680272109	62.785986394557824	77	127
62.57700680272109	62.832426303854874	61	127
62.832426303854874	63.4825850340136	63	127
62.832426303854874	62.91369614512472	48	127
62.832426303854874	62.93691609977324	75	127
62.832426303854874	63.27360544217687	56	127
62.97174603174603	63.05301587301587	48	127
63.02979591836735	63.08784580498866	73	127
63.09945578231292	63.215555555555554	73	127
63.09945578231292	63.32004535147392	48	127
63.30843537414966	63.36648526077097	72	127
63.37809523809524	63.598684807256234	72	127
63.65673469387755	64.49265306122449	56	127
63.65673469387755	63.72639455782313	49	127
63.65673469387755	63.76122448979592	77	127
63.65673469387755	64.49265306122449	65	127
63.784444444444446	63.888934240362815	49	127
63.877324263038545	63.94698412698413	75	127
63.95859410430839	64.07469387755103	75	127
63.95859410430839	64.20240362811792	49	127
64.19079365079365	64.2372335600907	73	127
64.24884353741497	64.45782312925171	73	127
64.51587301587301	65.0847619047619	58	127
64.51587301587301	66.21092970521542	64	127
64.51587301587301	64.63197278911565	49	127
64.51587301587301	64.65519274376418	76	127
64.6784126984127	64.75968253968254	49	127
64.74807256235827	64.8061224489796	75	127
64.81770975056689	65.03832199546486	49	127
64.81770975056689	64.93383219954649	75	127
65.02671201814059	65.07312925170068	73	127
65.0847619047619	65.37501133786849	56	127
65.0847619047619	65.32854875283446	73	127
65.37501133786849	65.45625850340136	49	127
65.37501133786849	65.49111111111111	76	127
65.37501133786849	65.96709750566893	55	127
65.5259410430839	65.59560090702948	49	127
65.58396825396825	65.66526077097505	75	127
65.67687074829932	65.78136054421769	75	127
65.67687074829932	65.90907029478458	49	127
65.89746031746031	65.95551020408163	73	127
65.96709750566893	66.23414965986395	56	127
65.96709750566893	66.1877097505669	73	127
66.24575963718821	67.0004081632653	60	127
66.24575963718821	66.30380952380952	56	127
66.24575963718821	66.33863945578231	75	127
66.24575963718821	67.0004081632653	63	127
66.36185941043084	66.44312925170068	56	127
66.43151927437641	66.48956916099773	73	127
66.501179138322	66.721768707483	56	127
66.501179138322	66.6056462585034	73	127
66.69854875283447	66.75659863945579	72	127
66.76820861678004	66.96555555555555	72	127
67.02362811791383	67.85952380952381	60	127
67.02362811791383	67.15133786848072	48	127
67.02362811791383	67.17455782312925	68	127
67.02362811791383	67.83632653061224	56	127
67.19777777777777	67.27904761904762	48	127
67.26743764172336	67.31387755102041	67	127
67.33709750566894	67.4415873015873	67	127
67.33709750566894	67.54607709750567	48	127
67.5344671201814	67.58090702947845	65	127
67.59251700680272	67.81310657596372	65	127
67.85952380952381	68.38199546485261	58	127
67.85952380952381	67.94081632653061	48	127
67.85952380952381	67.94081632653061	73	127
67.85952380952381	68.64902494331066	60	127
67.9756462585034	68.04530612244898	48	127
68.03369614512472	68.1033560090703	72	127
68.1149433106576	68.33555555555556	48	127
68.1149433106576	68.23106575963719	72	127
68.32394557823129	68.38199546485261	71	127
68.38199546485261	68.67224489795919	55	127
68.38199546485261	68.48648526077098	71	127
68.59097505668935	68.66063492063492	70	127
68.67224489795919	69.75195011337868	53	127
68.67224489795919	68.78834467120181	53	127
68.67224489795919	68.85800453514739	70	127
68.67224489795919	69.72875283446712	60	127
68.88120181405895	68.96249433106576	53	127
68.9508843537415	68.99732426303855	69	127
69.00891156462585	69.11340136054422	69	127
69.00891156462585	69.22952380952381	53	127
69.21791383219954	69.27596371882086	68	127
69.28757369614513	69.5778231292517	68	127
69.68231292517007	69.74036281179139	67	127
69.75195011337868	70.85492063492063	48	127
69.75195011337868	69.9028798185941	67	127
69.75195011337868	70.85492063492063	41	127
69.75195011337868	70.85492063492063	56	127
70.12349206349207	70.21637188208616	65	127
70.49501133786848	71.02904761904762	65	127
71.4121768707483	72.29455782312925	60	127
71.4121768707483	71.65600907029479	48	127
71.76049886621315	71.95786848072562	53	127
72.06235827664399	72.21328798185941	55	127
72.31777777777778	72.84022675736962	65	127
72.31777777777778	72.48031746031747	56	127
72.58480725623583	72.73573696145125	55	127
72.84022675736962	72.96793650793651	53	127
72.84022675736962	73.07240362811791	61	127
73.08403628117914	73.6297052154195	60	127
73.08403628117914	73.23496598639456	56	127
73.33945578231292	73.50199546485261	60	127
73.6297052154195	73.88512471655329	61	127
73.7574149659864	73.83866213151927	58	127
73.89673469387755	74.74426303854875	65	127
73.89673469387755	74.04766439909297	56	127
74.17537414965986	74.33791383219955	55	127
74.46562358276644	74.63977324263038	53	127
74.77909297052155	75.66145124716553	60	127
74.77909297052155	74.96482993197279	51	127
75.06934240362811	75.24349206349207	53	127
75.34795918367347	75.52213151927438	55	127
75.68467120181406	76.24192743764172	65	127
75.68467120181406	75.84721088435374	56	127
75.96328798185941	76.12585034013605	58	127
76.24192743764172	76.520589569161	61	127
76.39287981859411	76.47412698412698	59	127
76.53219954648526	77.0546485260771	60	127
76.53219954648526	76.65990929705215	60	127
76.77600907029479	76.93854875283446	56	127
77.0546485260771	77.21718820861678	53	127
77.0546485260771	77.34489795918367	61	127
77.36809523809524	78.0879365079365	56	127
77.36809523809524	77.56548752834468	48	127
77.69319727891157	77.85573696145124	51	127
77.98344671201814	78.1343537414966	56	127
78.25047619047619	79.01673469387755	84	127
78.25047619047619	78.35496598639456	41	127
78.25047619047619	78.36657596371882	68	127
78.25047619047619	78.36657596371882	56	127
78.40140589569161	78.48267573696145	41	127
78.45945578231293	78.51748299319728	67	127
78.45945578231293	78.51748299319728	55	127
78.5291156462585	78.63360544217687	67	127
78.5291156462585	78.63360544217687	55	127
78.72648526077097	78.78453514739229	65	127
78.72648526077097	78.78453514739229	53	127
78.79614512471656	79.00512471655328	65	127
78.79614512471656	78.87741496598639	44	127
78.79614512471656	79.00512471655328	53	127
78.92385487528345	79.01673469387755	44	127
79.07478458049887	79.60884353741497	89	127
79.07478458049887	79.15603174603174	37	127
79.07478458049887	79.17927437641724	68	127
79.07478458049887	79.17927437641724	56	127
79.20249433106576	79.29537414965986	37	127
79.28374149659864	79.33020408163266	67	127
79.28374149659864	79.33020408163266	55	127
79.34181405895691	79.44630385487528	67	127
79.34181405895691	79.44630385487528	55	127
79.53916099773242	79.5972335600907	53	127
79.53916099773242	79.5972335600907	65	127
79.60884353741497	79.88748299319728	85	127
79.60884353741497	79.71333333333334	44	127
79.60884353741497	79.84104308390023	65	127
79.60884353741497	79.84104308390023	53	127
79.77136054421769	79.85265306122449	44	127
79.89907029478458	80.45637188208617	84	127
79.89907029478458	79.99197278911565	41	127
79.89907029478458	80.02678004535147	68	127
79.89907029478458	80.02678004535147	56	127
80.05	80.15448979591837	41	127
80.1312925170068	80.18934240362812	55	127
80.1312925170068	80.18934240362812	67	127
80.20095238095239	80.30541950113378	67	127
80.20095238095239	80.30541950113378	55	127
80.39832199546485	80.4447619047619	65	127
80.39832199546485	80.4447619047619	53	127
80.45637188208617	80.5724716553288	44	127
80.45637188208617	80.73501133786849	85	127
80.45637188208617	80.70018140589569	65	127
80.45637188208617	80.70018140589569	53	127
80.61891156462585	80.70018140589569	44	127
80.74662131519274	80.85111111111111	56	127
80.74662131519274	81.48965986394558	89	127
80.74662131519274	80.83950113378685	37	127
80.74662131519274	80.85111111111111	68	127
80.8859410430839	80.96721088435375	37	127
80.94399092970522	81.00204081632653	67	127
80.94399092970522	81.00204081632653	55	127
81.0136507936508	81.11814058956917	67	127
81.0136507936508	81.11814058956917	55	127
81.19941043083901	81.25746031746031	65	127
81.19941043083901	81.25746031746031	53	127
81.26907029478458	81.47804988662132	53	127
81.26907029478458	81.35034013605443	44	127
81.26907029478458	81.47804988662132	65	127
81.39678004535148	81.48965986394558	44	127
81.5477097505669	82.3952380952381	84	127
81.5477097505669	81.62897959183674	41	127
81.5477097505669	81.65219954648526	68	127
81.5477097505669	81.65219954648526	56	127
81.71024943310658	81.80312925170068	41	127
81.79151927437641	81.83795918367348	67	127
81.79151927437641	81.83795918367348	55	127
81.84956916099773	81.9540589569161	67	127
81.84956916099773	81.9540589569161	55	127
82.05854875283447	82.11659863945579	65	127
82.05854875283447	82.11659863945579	53	127
82.13981859410431	82.37201814058957	53	127
82.13981859410431	82.22108843537416	44	127
82.13981859410431	82.37201814058957	65	127
82.2675283446712	82.3952380952381	44	127
82.44167800453515	82.55777777777777	56	127
82.44167800453515	82.96410430839002	89	127
82.44167800453515	82.53455782312925	37	127
82.44167800453515	82.55777777777777	68	127
82.58097505668934	82.67387755102041	37	127
82.65065759637189	82.69709750566894	67	127
82.65065759637189	82.69709750566894	55	127
82.72031746031746	82.82480725623583	67	127
82.72031746031746	82.82480725623583	55	127
82.90607709750567	82.95251700680272	65	127
82.90607709750567	82.95251700680272	53	127
82.96410430839002	83.20793650793651	53	127
82.96410430839002	83.05700680272109	44	127
82.96410430839002	83.20793650793651	65	127
82.96410430839002	83.2427664399093	85	127
83.10344671201814	83.20793650793651	44	127
83.25437641723356	83.38208616780045	56	127
83.25437641723356	83.81165532879818	84	127
83.25437641723356	83.3704761904762	41	127
83.25437641723356	83.38208616780045	68	127
83.41691609977325	83.49818594104309	41	127
83.4749433106576	83.53301587301587	67	127
83.4749433106576	83.53301587301587	55	127
83.54462585034014	83.64911564625851	67	127
83.54462585034014	83.64911564625851	55	127
83.73036281179138	83.78843537414966	65	127
83.73036281179138	83.78843537414966	53	127
83.81165532879818	84.02063492063492	65	127
83.81165532879818	84.05546485260771	85	127
83.81165532879818	83.89292517006803	44	127
83.81165532879818	84.02063492063492	53	127
83.93936507936507	84.02063492063492	44	127
84.06707482993197	84.1831746031746	51	127
84.06707482993197	84.53147392290249	80	127
84.06707482993197	84.15995464852608	48	127
84.06707482993197	84.1831746031746	63	127
84.20639455782313	84.3108843537415	48	127
84.28766439909298	84.35732426303855	61	127
84.28766439909298	84.35732426303855	49	127
84.36893424036282	84.47340136054422	61	127
84.36893424036282	84.47340136054422	49	127
84.56630385487529	84.6243537414966	60	127
84.56630385487529	84.6243537414966	48	127
84.63596371882086	84.8565306122449	60	127
84.63596371882086	84.728820861678	44	127
84.63596371882086	84.8565306122449	48	127
84.77528344671202	84.86816326530612	44	127
84.92621315192744	85.00748299319729	49	127
84.92621315192744	85.79696145124717	80	127
84.92621315192744	85.1584126984127	53	127
84.92621315192744	85.03070294784581	65	127
85.05392290249434	85.20485260770975	49	127
85.18163265306123	85.22807256235828	63	127
85.23965986394558	85.35578231292517	63	127
85.44866213151927	85.48349206349206	61	127
85.49507936507936	85.58798185941043	49	127
85.49507936507936	85.58798185941043	53	127
85.49507936507936	85.77374149659865	61	127
85.64603174603175	85.7853514739229	49	127
85.64603174603175	85.7853514739229	53	127
85.83179138321995	85.98272108843537	37	127
85.83179138321995	86.00591836734694	64	127
85.83179138321995	86.43551020408164	82	127
85.83179138321995	85.98272108843537	52	127
86.02916099773243	86.12204081632653	52	127
86.02916099773243	86.12204081632653	37	127
86.098820861678	86.15687074829933	63	127
86.16848072562358	86.27297052154195	63	127
86.36582766439909	86.41229024943311	61	127
86.43551020408164	86.69092970521542	80	127
86.43551020408164	86.51675736961451	52	127
86.43551020408164	86.51675736961451	37	127
86.43551020408164	86.65609977324263	61	127
86.56321995464853	86.65609977324263	52	127
86.56321995464853	86.65609977324263	37	127
86.70253968253968	87.25979591836735	79	127
86.70253968253968	86.80702947845805	52	127
86.70253968253968	86.80702947845805	37	127
86.70253968253968	86.81863945578232	64	127
86.8534693877551	86.99278911564626	52	127
86.8534693877551	86.99278911564626	37	127
86.91151927437642	87.02759637188208	63	127
87.03922902494331	87.13208616780045	63	127
87.19015873015873	87.24820861678005	61	127
87.25979591836735	87.34108843537415	37	127
87.25979591836735	87.51521541950113	61	127
87.25979591836735	87.55006802721088	80	127
87.25979591836735	87.34108843537415	52	127
87.41072562358276	87.52684807256236	52	127
87.41072562358276	87.52684807256236	37	127
87.57328798185941	87.67777777777778	63	127
87.57328798185941	88.42081632653061	84	127
87.57328798185941	87.65455782312925	51	127
87.57328798185941	87.65455782312925	44	127
87.68938775510205	87.77063492063492	51	127
87.68938775510205	87.77063492063492	44	127
87.75904761904762	87.80548752834467	61	127
87.81709750566894	87.93319727891156	61	127
88.0260544217687	88.08412698412698	60	127
88.09573696145125	88.18861678004535	51	127
88.09573696145125	88.18861678004535	44	127
88.09573696145125	88.39759637188209	60	127
88.2350566893424	88.40918367346939	51	127
88.2350566893424	88.40918367346939	44	127
88.4556462585034	88.57174603174603	53	127
88.4556462585034	88.57174603174603	48	127
88.4556462585034	88.59496598639456	68	127
88.4556462585034	89.26834467120182	80	127
88.61818594104308	88.75750566893424	53	127
88.61818594104308	88.75750566893424	48	127
88.73428571428572	88.79231292517007	67	127
88.80394557823129	88.90843537414966	67	127
88.9897052154195	89.09419501133787	56	127
88.9897052154195	89.09419501133787	48	127
88.9897052154195	89.22190476190477	65	127
89.14063492063492	89.22190476190477	56	127
89.14063492063492	89.22190476190477	48	127
89.26834467120182	89.80240362811791	82	127
89.26834467120182	89.36122448979592	36	127
89.26834467120182	89.37283446712019	73	127
89.26834467120182	90.35968253968254	58	127
89.26834467120182	91.59034013605442	48	127
89.40766439909297	89.48893424036281	36	127
89.46571428571428	89.5237641723356	72	127
89.53537414965986	89.63986394557823	72	127
89.73274376417234	89.79077097505669	71	127
89.80240362811791	89.90689342403628	71	127
89.80240362811791	90.0578231292517	79	127
89.80240362811791	89.88367346938776	36	127
89.93011337868481	90.03460317460318	36	127
89.99977324263038	90.0578231292517	70	127
90.08104308390023	90.1971201814059	70	127
90.08104308390023	90.63832199546485	77	127
90.08104308390023	90.11587301587302	41	127
90.13909297052155	90.1971201814059	41	127
90.30160997732426	90.34807256235828	69	127
90.35968253968254	90.47578231292518	69	127
90.35968253968254	90.41773242630386	41	127
90.35968253968254	90.63832199546485	57	127
90.44095238095238	90.48739229024943	41	127
90.58024943310657	90.6267120181406	68	127
90.63832199546485	91.59034013605442	56	127
90.63832199546485	90.68473922902494	41	127
90.63832199546485	90.75442176870749	68	127
90.63832199546485	90.95179138321996	72	127
90.70795918367347	90.75442176870749	41	127
90.85891156462586	90.9053514739229	67	127
90.95179138321996	90.98662131519275	41	127
90.95179138321996	91.05628117913832	67	127
90.95179138321996	91.48585034013605	68	127
91.00984126984127	91.05628117913832	41	127
91.14916099773242	91.20721088435374	66	127
91.21882086167801	91.33492063492064	66	127
91.21882086167801	91.26526077097506	41	127
91.28848072562359	91.33492063492064	41	127
91.42780045351473	91.4742403628118	64	127
91.48585034013605	91.75287981859411	65	127
91.48585034013605	91.59034013605442	65	127
91.48585034013605	91.5322902494331	41	127
91.55551020408163	91.60195011337869	41	127
92.05473922902495	92.67006802721089	60	127
92.05473922902495	92.67006802721089	48	127
92.9487074829932	93.25056689342404	65	127
92.9487074829932	93.25056689342404	53	127
93.32022675736961	93.41310657596372	62	127
93.32022675736961	93.41310657596372	50	127
93.4479365079365	93.5756462585034	60	127
93.4479365079365	93.5756462585034	48	127
93.59884353741496	93.72655328798186	62	127
93.59884353741496	93.72655328798186	50	127
93.74977324263038	93.97038548752835	65	127
93.74977324263038	93.97038548752835	53	127
94.27224489795918	94.41156462585035	60	127
94.27224489795918	94.41156462585035	48	127
94.58571428571429	94.91079365079365	53	127
94.58571428571429	94.91079365079365	65	127
95.00365079365079	95.11977324263039	62	127
95.00365079365079	95.11977324263039	50	127
95.14299319727891	95.24748299319728	60	127
95.14299319727891	95.24748299319728	48	127
95.28231292517007	95.3984126984127	50	127
95.28231292517007	95.3984126984127	62	127
95.4332426303855	95.67705215419501	57	127
95.4332426303855	95.67705215419501	45	127
96.06018140589569	96.88448979591837	62	127
96.06018140589569	96.35043083900227	57	127
96.06018140589569	96.35043083900227	41	127
96.35043083900227	96.62907029478458	43	127
96.35043083900227	96.62907029478458	58	127
96.62907029478458	96.75678004535148	38	127
96.62907029478458	96.75678004535148	53	127
96.62907029478458	96.91931972789115	58	127
96.75678004535148	96.8728798185941	40	127
96.75678004535148	96.8728798185941	55	127
96.91931972789115	97.30244897959183	41	127
96.91931972789115	97.24439909297053	57	127
96.91931972789115	97.30244897959183	57	127
96.91931972789115	97.9409977324263	62	127
97.30244897959183	97.63913832199546	43	127
97.30244897959183	97.63913832199546	58	127
97.63913832199546	97.95260770975057	58	127
97.63913832199546	97.82489795918367	38	127
97.63913832199546	97.82489795918367	53	127
97.82489795918367	97.92938775510204	55	127
97.82489795918367	97.92938775510204	40	127
97.95260770975057	99.34580498866214	62	127
97.95260770975057	98.2544671201814	57	127
97.95260770975057	98.32412698412699	57	127
97.95260770975057	98.32412698412699	41	127
98.32412698412699	98.61437641723356	43	127
98.32412698412699	98.61437641723356	58	127
98.61437641723356	98.8233560090703	38	127
98.61437641723356	98.8233560090703	53	127
98.61437641723356	99.05555555555556	58	127
98.8233560090703	98.93945578231292	40	127
98.8233560090703	98.93945578231292	55	127
99.05555555555556	99.47351473922903	57	127
99.05555555555556	99.47351473922903	57	127
99.05555555555556	99.47351473922903	41	127
99.34580498866214	99.55478458049886	60	127
99.55478458049886	99.82181405895692	65	127
99.82181405895692	99.96113378684807	67	127
99.96113378684807	100.1120634920635	69	127
100.1120634920635	100.21655328798185	72	127
100.27460317460317	100.63451247165533	72	127
100.63451247165533	101.06408163265306	77	127
100.63451247165533	100.92476190476191	69	127
100.63451247165533	100.92476190476191	62	127
100.92476190476191	101.49365079365079	70	127
100.92476190476191	101.49365079365079	67	127
101.06408163265306	101.16857142857143	74	127
101.19179138321995	101.29628117913832	72	127
101.35433106575964	101.43560090702948	74	127
101.49365079365079	101.77229024943311	65	127
101.49365079365079	101.77229024943311	77	127
101.49365079365079	101.77229024943311	69	127
102.25990929705216	102.5269387755102	72	127
102.5269387755102	102.79396825396826	62	127
102.5269387755102	102.79396825396826	69	127
102.5269387755102	102.92167800453515	77	127
102.79396825396826	103.32802721088436	70	127
102.79396825396826	103.32802721088436	67	127
102.92167800453515	103.02616780045352	74	127
103.0609977324263	103.13065759637188	72	127
103.1887074829932	103.28158730158731	74	127
103.32802721088436	103.61827664399092	69	127
103.32802721088436	103.61827664399092	60	127
104.04784580498867	104.31487528344671	69	127
104.04784580498867	104.11750566893424	86	127
104.04784580498867	104.31487528344671	77	127
104.11750566893424	104.17555555555556	88	127
104.17555555555556	104.24521541950114	86	127
104.24521541950114	104.31487528344671	88	127
104.31487528344671	104.83732426303855	70	127
104.31487528344671	104.52385487528345	86	127
104.31487528344671	104.58190476190477	79	127
104.58190476190477	104.83732426303855	91	127
104.58190476190477	104.83732426303855	74	127
104.83732426303855	104.94181405895692	76	127
104.83732426303855	104.94181405895692	86	127
104.83732426303855	104.94181405895692	67	127
104.96503401360545	105.23206349206349	77	127
104.96503401360545	105.03469387755102	86	127
104.96503401360545	105.23206349206349	69	127
105.03469387755102	105.1043537414966	88	127
105.1043537414966	105.16240362811791	86	127
105.16240362811791	105.23206349206349	88	127
105.23206349206349	105.61519274376417	79	127
105.23206349206349	105.44104308390023	86	127
105.23206349206349	105.74290249433106	70	127
105.61519274376417	105.74290249433106	74	127
105.61519274376417	105.74290249433106	91	127
105.74290249433106	105.84739229024943	67	127
105.74290249433106	105.84739229024943	86	127
105.74290249433106	105.84739229024943	76	127
105.87061224489796	106.13764172335601	69	127
105.87061224489796	105.94027210884354	86	127
105.87061224489796	106.13764172335601	77	127
105.94027210884354	106.00993197278912	88	127
106.00993197278912	106.07959183673469	86	127
106.07959183673469	106.13764172335601	88	127
106.13764172335601	106.358231292517	86	127
106.13764172335601	106.41628117913832	79	127
106.13764172335601	106.54399092970522	70	127
106.41628117913832	106.54399092970522	91	127
106.41628117913832	106.54399092970522	74	127
106.54399092970522	106.64848072562359	76	127
106.54399092970522	106.64848072562359	86	127
106.54399092970522	106.64848072562359	67	127
106.68331065759637	107.10126984126984	77	127
106.68331065759637	107.10126984126984	86	127
106.68331065759637	107.10126984126984	69	127
107.8675283446712	108.00684807256236	60	127
107.8675283446712	108.00684807256236	48	127
108.04167800453514	108.1809977324263	62	127
108.04167800453514	108.1809977324263	50	127
108.20421768707483	108.41319727891157	53	127
108.20421768707483	108.3087074829932	81	127
108.20421768707483	108.3087074829932	74	127
108.20421768707483	108.41319727891157	65	127
108.33192743764172	108.43641723356009	81	127
108.33192743764172	108.43641723356009	74	127
108.47124716553287	108.69183673469388	81	127
108.47124716553287	108.69183673469388	74	127
108.72666666666667	108.8427664399093	60	127
108.72666666666667	108.8427664399093	48	127
108.87759637188209	108.95886621315192	62	127
108.87759637188209	108.95886621315192	50	127
108.99369614512472	109.31877551020408	57	127
108.99369614512472	109.14462585034013	72	127
108.99369614512472	109.14462585034013	65	127
108.99369614512472	109.31877551020408	45	127
109.21428571428571	109.35360544217687	72	127
109.21428571428571	109.35360544217687	65	127
109.3768253968254	109.58580498866213	72	127
109.3768253968254	109.58580498866213	65	127
109.63224489795918	109.73673469387755	72	127
109.63224489795918	109.73673469387755	60	127
109.77156462585035	109.87605442176871	74	127
109.77156462585035	109.87605442176871	62	127
109.9108843537415	110.1314739229025	65	127
109.9108843537415	110.02698412698413	93	127
109.9108843537415	110.02698412698413	86	127
109.9108843537415	110.1314739229025	77	127
110.05020408163266	110.16630385487528	93	127
110.05020408163266	110.16630385487528	86	127
110.1895238095238	110.41011337868481	93	127
110.1895238095238	110.41011337868481	86	127
110.45655328798186	110.56104308390023	72	127
110.45655328798186	110.56104308390023	60	127
110.59587301587301	110.74680272108843	74	127
110.59587301587301	110.74680272108843	62	127
110.78163265306122	111.09510204081633	69	127
110.78163265306122	110.92095238095239	84	127
110.78163265306122	110.92095238095239	77	127
110.78163265306122	111.09510204081633	57	127
110.94417233560091	111.11832199546485	84	127
110.94417233560091	111.11832199546485	77	127
111.15315192743765	111.35052154195012	84	127
111.15315192743765	111.35052154195012	77	127
111.39696145124717	111.47823129251701	65	127
111.39696145124717	111.48984126984126	60	127
111.39696145124717	111.66399092970522	93	127
111.53628117913833	111.6059410430839	65	127
111.53628117913833	111.61755102040816	62	127
111.66399092970522	111.74526077097505	65	127
111.66399092970522	111.89619047619047	89	127
111.66399092970522	111.89619047619047	57	127
111.66399092970522	111.74526077097505	72	127
111.81492063492064	111.89619047619047	74	127
111.81492063492064	111.89619047619047	65	127
111.96585034013606	112.1748299319728	77	127
111.96585034013606	112.0471201814059	69	127
112.09356009070295	112.1748299319728	65	127
112.09356009070295	112.18643990929705	84	127
112.22126984126984	112.30253968253969	60	127
112.22126984126984	112.29092970521542	65	127
112.22126984126984	112.51151927437641	84	127
112.34897959183674	112.43024943310658	65	127
112.34897959183674	112.43024943310658	62	127
112.51151927437641	112.66244897959184	91	127
112.51151927437641	112.59278911564626	72	127
112.51151927437641	112.59278911564626	65	127
112.51151927437641	112.74371882086167	57	127
112.66244897959184	112.74371882086167	65	127
112.66244897959184	112.74371882086167	74	127
112.66244897959184	112.7669387755102	89	127
112.79015873015874	112.94108843537416	69	127
112.79015873015874	113.06879818594105	77	127
112.9875283446712	113.10362811791383	93	127
112.9875283446712	113.06879818594105	65	127
113.12684807256235	113.40548752834466	93	127
113.12684807256235	113.2081179138322	65	127
113.12684807256235	113.2081179138322	60	127
113.25455782312925	113.34743764172336	65	127
113.25455782312925	113.35904761904762	62	127
113.40548752834466	113.63768707482993	57	127
113.40548752834466	113.47514739229025	72	127
113.40548752834466	113.47514739229025	65	127
113.40548752834466	113.63768707482993	89	127
113.53319727891156	113.63768707482993	74	127
113.53319727891156	113.63768707482993	65	127
113.68412698412699	113.82344671201814	88	127
113.68412698412699	113.76539682539682	69	127
113.68412698412699	113.90471655328798	77	127
113.82344671201814	113.92793650793651	86	127
113.82344671201814	113.90471655328798	65	127
113.95115646258503	114.04403628117913	60	127
113.95115646258503	114.03242630385488	65	127
113.95115646258503	114.17174603174603	89	127
114.0904761904762	114.17174603174603	65	127
114.0904761904762	114.1833560090703	62	127
114.22979591836734	114.32267573696146	65	127
114.22979591836734	114.32267573696146	72	127
114.22979591836734	114.50843537414966	57	127
114.38072562358276	114.50843537414966	74	127
114.38072562358276	114.50843537414966	65	127
114.57809523809524	114.78707482993197	77	127
114.57809523809524	114.64775510204082	69	127
114.70580498866214	114.78707482993197	65	127
114.83351473922903	115.10054421768707	93	127
114.83351473922903	114.91478458049886	65	127
114.83351473922903	114.92639455782313	60	127
114.97283446712018	115.05410430839002	65	127
114.97283446712018	115.05410430839002	62	127
115.10054421768707	115.32113378684807	57	127
115.10054421768707	115.18181405895692	72	127
115.10054421768707	115.18181405895692	65	127
115.10054421768707	115.32113378684807	89	127
115.25147392290249	115.32113378684807	74	127
115.25147392290249	115.32113378684807	65	127
115.40240362811791	115.61138321995465	77	127
115.40240362811791	115.48367346938775	69	127
115.5301133786848	115.61138321995465	65	127
115.5301133786848	115.63460317460317	84	127
115.66943310657597	115.77392290249433	60	127
115.66943310657597	115.77392290249433	65	127
115.66943310657597	115.94807256235828	84	127
115.82036281179138	115.90163265306123	65	127
115.82036281179138	115.91324263038548	62	127
115.94807256235828	116.18027210884354	57	127
115.94807256235828	116.02934240362812	72	127
115.94807256235828	116.02934240362812	65	127
115.94807256235828	116.08739229024944	91	127
116.08739229024944	116.18027210884354	74	127
116.08739229024944	116.18027210884354	65	127
116.08739229024944	116.20349206349206	89	127
116.22671201814059	116.30798185941043	69	127
116.22671201814059	116.44730158730158	77	127
116.377641723356	116.44730158730158	65	127
116.377641723356	116.48213151927438	93	127
116.5053514739229	116.59823129251701	60	127
116.5053514739229	116.59823129251701	65	127
116.5053514739229	116.78399092970521	93	127
116.64467120181406	116.73755102040816	62	127
116.64467120181406	116.7259410430839	65	127
116.78399092970521	116.9117006802721	72	127
116.78399092970521	116.86526077097506	65	127
116.78399092970521	117.00458049886622	89	127
116.78399092970521	117.00458049886622	57	127
116.9117006802721	117.08585034013605	74	127
116.9117006802721	117.00458049886622	65	127
117.08585034013605	117.26	67	127
117.08585034013605	117.26	55	127
117.08585034013605	117.45736961451247	70	127
117.08585034013605	117.26	88	127
117.26	117.41092970521542	65	127
117.26	117.43414965986395	86	127
117.26	117.43414965986395	53	127
117.45736961451247	117.68956916099773	69	127
117.45736961451247	117.63151927437642	65	127
117.45736961451247	117.63151927437642	53	127
117.45736961451247	117.93337868480725	89	127
117.74761904761905	117.93337868480725	53	127
117.74761904761905	117.93337868480725	41	127
118.33972789115646	118.44421768707483	84	127
118.33972789115646	118.44421768707483	72	127
118.47904761904762	118.5487074829932	86	127
118.47904761904762	118.5487074829932	74	127
118.57192743764172	118.67641723356009	62	127
118.57192743764172	118.67641723356009	69	127
118.57192743764172	118.78090702947846	89	127
118.57192743764172	118.78090702947846	77	127
118.69963718820861	118.80412698412698	69	127
118.69963718820861	118.80412698412698	62	127
118.83895691609978	119.07115646258504	69	127
118.83895691609978	119.07115646258504	62	127
119.16403628117914	119.28013605442177	72	127
119.16403628117914	119.28013605442177	84	127
119.3033560090703	119.40784580498867	86	127
119.3033560090703	119.40784580498867	74	127
119.43106575963719	119.64004535147393	81	127
119.43106575963719	119.53555555555556	60	127
119.43106575963719	119.53555555555556	53	127
119.43106575963719	119.64004535147393	69	127
119.57038548752834	119.67487528344671	60	127
119.57038548752834	119.67487528344671	53	127
119.69809523809523	119.90707482993197	60	127
119.69809523809523	119.90707482993197	53	127
119.96512471655329	120.08122448979591	60	127
119.96512471655329	120.08122448979591	72	127
120.13927437641723	120.2437641723356	62	127
120.13927437641723	120.2437641723356	74	127
120.2785941043084	120.39469387755102	50	127
120.2785941043084	120.39469387755102	57	127
120.2785941043084	120.51079365079364	77	127
120.2785941043084	120.51079365079364	65	127
120.42952380952381	120.53401360544218	57	127
120.42952380952381	120.53401360544218	50	127
120.55723356009071	120.83587301587302	57	127
120.55723356009071	120.83587301587302	50	127
120.89392290249432	121.01002267573696	60	127
120.89392290249432	121.01002267573696	72	127
121.03324263038549	121.14934240362811	74	127
121.03324263038549	121.14934240362811	62	127
121.17256235827665	121.38154195011337	69	127
121.17256235827665	121.277052154195	48	127
121.17256235827665	121.277052154195	41	127
121.17256235827665	121.38154195011337	57	127
121.30027210884354	121.4047619047619	48	127
121.30027210884354	121.4047619047619	41	127
121.43959183673469	121.68340136054422	48	127
121.43959183673469	121.68340136054422	41	127
121.72984126984127	122.05492063492063	45	127
121.72984126984127	121.89238095238095	72	127
121.72984126984127	121.89238095238095	53	127
121.92721088435374	122.03170068027211	53	127
121.92721088435374	122.03170068027211	74	127
122.05492063492063	122.32195011337869	41	127
122.05492063492063	122.1942403628118	84	127
122.05492063492063	122.1942403628118	53	127
122.05492063492063	122.32195011337869	69	127
122.21746031746032	122.36839002267574	86	127
122.21746031746032	122.36839002267574	53	127
122.39160997732426	122.63541950113378	89	127
122.39160997732426	122.49609977324263	57	127
122.49609977324263	122.600589569161	36	127
122.49609977324263	122.600589569161	53	127
122.63541950113378	122.73990929705215	53	127
122.63541950113378	122.90244897959184	36	127
122.63541950113378	122.73990929705215	72	127
122.76312925170068	122.87922902494331	74	127
122.76312925170068	122.87922902494331	53	127
122.90244897959184	123.05337868480726	53	127
122.90244897959184	123.05337868480726	84	127
122.90244897959184	123.07659863945578	43	127
122.90244897959184	123.15786848072563	69	127
123.07659863945578	123.29718820861677	86	127
123.07659863945578	123.29718820861677	53	127
123.07659863945578	123.29718820861677	41	127
123.32040816326531	123.58743764172335	89	127
123.32040816326531	123.45972789115646	57	127
123.45972789115646	123.56421768707483	41	127
123.45972789115646	123.56421768707483	53	127
123.58743764172335	123.69192743764172	53	127
123.58743764172335	123.69192743764172	72	127
123.58743764172335	123.86607709750567	45	127
123.71514739229025	123.83124716553289	74	127
123.71514739229025	123.83124716553289	53	127
123.86607709750567	124.1098866213152	69	127
123.86607709750567	123.97056689342404	84	127
123.86607709750567	123.97056689342404	53	127
123.86607709750567	124.1098866213152	41	127
123.99378684807256	124.13310657596372	86	127
123.99378684807256	124.13310657596372	53	127
124.15632653061225	124.42335600907029	89	127
124.15632653061225	124.2956462585034	57	127
124.15632653061225	124.2956462585034	40	127
124.2956462585034	124.40013605442176	53	127
124.2956462585034	124.42335600907029	38	127
124.42335600907029	124.55106575963718	53	127
124.42335600907029	124.55106575963718	72	127
124.42335600907029	124.65555555555555	41	127
124.58589569160998	124.67877551020408	53	127
124.58589569160998	124.67877551020408	74	127
124.7019954648526	124.80648526077097	84	127
124.7019954648526	124.80648526077097	53	127
124.7019954648526	124.91097505668934	69	127
124.8297052154195	124.92258503401361	53	127
124.8297052154195	124.92258503401361	86	127
124.94580498866213	125.20122448979592	89	127
124.94580498866213	125.06190476190476	57	127
124.94580498866213	125.1431746031746	41	127
125.06190476190476	125.16639455782312	53	127
125.20122448979592	125.52630385487528	45	127
125.20122448979592	125.31732426303854	72	127
125.20122448979592	125.31732426303854	53	127
125.3637641723356	125.50308390022676	74	127
125.3637641723356	125.50308390022676	53	127
125.52630385487528	125.83977324263039	69	127
125.52630385487528	125.70045351473922	84	127
125.52630385487528	125.70045351473922	53	127
125.52630385487528	125.83977324263039	41	127
125.74689342403629	125.86299319727891	86	127
125.74689342403629	125.86299319727891	53	127
125.88621315192744	126.15324263038549	89	127
125.88621315192744	126.01392290249433	57	127
126.01392290249433	126.13002267573697	53	127
126.01392290249433	126.13002267573697	36	127
126.15324263038549	126.25773242630386	72	127
126.15324263038549	126.25773242630386	53	127
126.15324263038549	126.4318820861678	36	127
126.28095238095239	126.39705215419501	53	127
126.28095238095239	126.39705215419501	74	127
126.4318820861678	126.6524716553288	69	127
126.4318820861678	126.54798185941043	84	127
126.4318820861678	126.54798185941043	53	127
126.4318820861678	126.57120181405895	43	127
126.57120181405895	126.75696145124716	53	127
126.57120181405895	126.75696145124716	86	127
126.57120181405895	126.75696145124716	41	127
126.79179138321996	127.058820861678	89	127
126.79179138321996	126.93111111111111	57	127
126.93111111111111	127.03560090702948	53	127
126.93111111111111	127.03560090702948	41	127
127.058820861678	127.3722902494331	45	127
127.058820861678	127.1865306122449	72	127
127.058820861678	127.1865306122449	53	127
127.20975056689342	127.33746031746031	74	127
127.20975056689342	127.33746031746031	53	127
127.3722902494331	127.65092970521542	69	127
127.3722902494331	127.52321995464852	53	127
127.3722902494331	127.54643990929705	84	127
127.3722902494331	127.65092970521542	41	127
127.54643990929705	127.68575963718821	53	127
127.54643990929705	127.72058956916099	86	127
127.72058956916099	127.92956916099773	40	127
127.72058956916099	127.92956916099773	55	127
127.72058956916099	127.92956916099773	67	127
127.72058956916099	128.01083900226757	82	127
127.92956916099773	128.05727891156462	53	127
127.92956916099773	128.05727891156462	65	127
127.92956916099773	128.08049886621316	38	127
128.08049886621316	128.382358276644	81	127
128.08049886621316	128.45199546485262	65	127
128.08049886621316	128.45199546485262	48	127
128.08049886621316	129.07895691609977	41	127
128.6609977324263	129.07895691609977	77	127
129.7755328798186	130.0774149659864	53	127
129.7755328798186	130.0774149659864	84	127
129.7755328798186	130.53020408163266	60	127
129.7755328798186	130.0774149659864	72	127
129.7755328798186	130.0774149659864	69	127
130.0774149659864	130.53020408163266	50	127
130.0774149659864	130.50698412698412	89	127
130.0774149659864	130.50698412698412	77	127
130.0774149659864	130.53020408163266	65	127
130.50698412698412	130.58825396825398	74	127
130.50698412698412	130.58825396825398	86	127
130.64628117913833	130.78562358276645	84	127
130.64628117913833	130.78562358276645	72	127
130.64628117913833	130.94816326530614	69	127
130.64628117913833	130.94816326530614	53	127
130.64628117913833	131.54027210884354	60	127
130.78562358276645	130.94816326530614	74	127
130.78562358276645	130.94816326530614	86	127
130.94816326530614	131.54027210884354	89	127
130.94816326530614	131.54027210884354	77	127
130.94816326530614	131.54027210884354	65	127
130.94816326530614	131.54027210884354	50	127
131.66795918367347	132.5271201814059	60	127
131.66795918367347	132.03950113378684	84	127
131.66795918367347	132.03950113378684	72	127
131.66795918367347	132.03950113378684	69	127
131.66795918367347	132.03950113378684	53	127
132.03950113378684	132.5271201814059	65	127
132.03950113378684	132.50390022675737	89	127
132.03950113378684	132.50390022675737	77	127
132.03950113378684	132.5271201814059	50	127
132.50390022675737	132.58517006802722	86	127
132.50390022675737	132.58517006802722	74	127
132.64319727891157	133.04954648526078	65	127
132.64319727891157	132.8057596371882	84	127
132.64319727891157	132.8057596371882	72	127
132.64319727891157	133.04954648526078	69	127
132.64319727891157	133.04954648526078	50	127
132.8057596371882	133.04954648526078	86	127
132.8057596371882	133.04954648526078	74	127
133.04954648526078	134.39632653061224	81	127
133.04954648526078	134.39632653061224	65	127
133.04954648526078	134.39632653061224	69	127
133.04954648526078	134.39632653061224	60	127
133.04954648526078	134.39632653061224	53	127
134.51242630385488	135.68503401360545	62	127
134.51242630385488	134.5820634920635	86	127
134.51242630385488	134.81428571428572	77	127
134.51242630385488	134.81428571428572	69	127
134.5820634920635	134.65174603174603	88	127
134.65174603174603	134.72140589569162	86	127
134.72140589569162	134.81428571428572	88	127
134.81428571428572	135.37156462585034	86	127
134.81428571428572	135.44122448979593	79	127
134.81428571428572	135.59215419501135	70	127
135.44122448979593	135.59215419501135	91	127
135.44122448979593	135.59215419501135	74	127
135.59215419501135	135.69664399092972	76	127
135.59215419501135	135.69664399092972	86	127
135.59215419501135	135.69664399092972	67	127
135.7314739229025	137.22916099773244	62	127
135.7314739229025	135.80113378684808	86	127
135.7314739229025	136.31197278911566	69	127
135.7314739229025	136.31197278911566	77	127
135.80113378684808	135.8824036281179	88	127
135.8824036281179	136.2307029478458	86	127
136.2307029478458	136.31197278911566	88	127
136.31197278911566	136.7067120181406	86	127
136.31197278911566	136.77637188208618	79	127
136.31197278911566	137.12467120181407	70	127
136.77637188208618	137.12467120181407	91	127
136.77637188208618	137.12467120181407	74	127
137.12467120181407	137.24074829931973	76	127
137.12467120181407	137.24074829931973	86	127
137.12467120181407	137.24074829931973	67	127
137.26399092970522	137.63551020408164	69	127
137.26399092970522	137.36848072562358	86	127
137.26399092970522	138.73845804988662	62	127
137.26399092970522	137.63551020408164	77	127
137.36848072562358	137.46136054421768	88	127
137.46136054421768	137.53102040816327	86	127
137.53102040816327	137.63551020408164	88	127
137.63551020408164	138.25083900226758	79	127
137.63551020408164	138.19278911564626	86	127
137.63551020408164	138.5643083900227	70	127
138.25083900226758	138.5643083900227	74	127
138.25083900226758	138.5643083900227	91	127
138.5643083900227	138.7500680272109	67	127
138.5643083900227	138.7500680272109	86	127
138.5643083900227	138.7500680272109	76	127
138.78489795918367	140.01555555555555	86	127
138.78489795918367	139.59759637188208	77	127
138.78489795918367	139.59759637188208	69	127
138.78489795918367	139.59759637188208	62	127
139.59759637188208	141.8499319727891	60	127
139.59759637188208	140.57283446712017	79	127
139.59759637188208	141.8499319727891	70	127
140.1316553287982	140.57283446712017	88	127
140.57283446712017	141.72222222222223	89	127
140.57283446712017	141.72222222222223	74	127
141.72222222222223	141.8499319727891	76	127
141.72222222222223	141.87315192743765	91	127
141.87315192743765	149.02489795918368	93	127
141.87315192743765	142.0124716553288	69	127
141.87315192743765	142.44204081632654	65	127
141.87315192743765	144.28802721088437	77	127
142.0124716553288	142.44204081632654	69	127
142.44204081632654	143.06895691609978	62	127
142.44204081632654	142.74390022675738	69	127
142.74390022675738	142.90643990929706	69	127
142.90643990929706	143.06895691609978	69	127
143.06895691609978	143.2082993197279	60	127
143.06895691609978	143.2082993197279	69	127
143.2198866213152	143.38244897959183	69	127
143.2198866213152	143.54498866213152	57	127
143.38244897959183	143.54498866213152	69	127
143.54498866213152	143.95133786848072	53	127
143.54498866213152	143.78879818594103	69	127
143.78879818594103	143.95133786848072	69	127
143.95133786848072	144.1138775510204	69	127
143.95133786848072	144.63632653061225	50	127
144.1138775510204	144.28802721088437	69	127
144.28802721088437	146.36621315192744	84	127
144.28802721088437	144.64793650793652	69	127
144.64793650793652	144.82208616780045	69	127
144.64793650793652	144.81047619047618	48	127
144.82208616780045	145.04267573696146	69	127
144.82208616780045	145.83213151927438	45	127
145.04267573696146	145.62315192743765	69	127
145.62315192743765	145.83213151927438	69	127
145.83213151927438	146.36621315192744	43	127
145.83213151927438	146.36621315192744	69	127
146.36621315192744	148.61854875283447	69	127
146.36621315192744	148.61854875283447	41	127
146.36621315192744	148.72303854875284	89	127
149.59378684807257	150.3019954648526	72	127
149.59378684807257	149.68666666666667	84	127
149.59378684807257	150.3019954648526	60	127
149.59378684807257	150.3019954648526	84	127
149.7098866213152	149.77954648526077	84	127
149.8027664399093	149.87242630385487	84	127
149.88403628117914	149.94208616780045	89	127
149.965306122449	150.03496598639455	89	127
150.0581859410431	150.1162358276644	89	127
150.12784580498865	150.18589569160997	91	127
150.19750566893424	150.2439455782313	91	127
150.2439455782313	150.32519274376418	91	127
150.3368253968254	150.41809523809525	92	127
150.3368253968254	150.8708843537415	65	127
150.3368253968254	150.8708843537415	77	127
150.3368253968254	150.8708843537415	89	127
150.42968253968255	150.49936507936508	92	127
150.51097505668935	150.56902494331067	92	127
150.58061224489796	150.66190476190476	91	127
150.67351473922903	150.7431746031746	91	127
150.76639455782313	150.83603174603175	91	127
150.8708843537415	151.17274376417234	73	127
150.8708843537415	150.9637641723356	89	127
150.8708843537415	151.17274376417234	85	127
150.8708843537415	151.17274376417234	61	127
150.98698412698414	151.0566439909297	89	127
151.07986394557824	151.16113378684807	89	127
151.1843537414966	151.76485260770974	60	127
151.1843537414966	151.25401360544217	92	127
151.1843537414966	151.76485260770974	84	127
151.1843537414966	151.76485260770974	72	127
151.2772335600907	151.34687074829932	92	127
151.3701133786848	151.4397732426304	92	127
151.4629931972789	151.54426303854876	96	127
151.57909297052154	151.64875283446713	96	127
151.67197278911564	151.74163265306123	96	127
151.76485260770974	152.02027210884353	73	127
151.76485260770974	151.83451247165533	94	127
151.76485260770974	152.02027210884353	85	127
151.76485260770974	152.02027210884353	61	127
151.85773242630387	151.92739229024943	94	127
151.95061224489797	152.02027210884353	94	127
152.0318820861678	152.11315192743766	92	127
152.0318820861678	152.5775283446712	89	127
152.0318820861678	152.5775283446712	77	127
152.0318820861678	152.5775283446712	65	127
152.1247619047619	152.20603174603175	92	127
152.21761904761905	152.28730158730158	92	127
152.29891156462585	152.38018140589568	91	127
152.39179138321995	152.49628117913832	91	127
152.5078911564626	152.58916099773242	91	127
152.6007709750567	152.71687074829933	89	127
152.74009070294784	152.80975056689343	89	127
152.832947845805	152.90263038548753	89	127
152.92585034013607	153.73854875283448	84	127
152.92585034013607	152.99551020408163	87	127
152.92585034013607	153.73854875283448	60	127
152.92585034013607	153.73854875283448	72	127
153.01873015873016	153.08836734693878	87	127
153.11160997732426	153.16965986394558	87	127
153.19285714285715	153.26253968253968	89	127
153.28575963718822	153.37863945578232	89	127
153.4134693877551	153.4831292517007	89	127
153.5063492063492	153.5760090702948	91	127
153.59920634920636	153.6688888888889	91	127
153.69210884353743	153.761768707483	91	127
153.78498866213152	153.85462585034014	92	127
153.78498866213152	154.36546485260772	89	127
153.78498866213152	154.36546485260772	77	127
153.78498866213152	154.36546485260772	65	127
153.87786848072562	153.9591156462585	92	127
153.97074829931972	154.05201814058958	92	127
154.06362811791382	154.15650793650795	94	127
154.1681179138322	154.26097505668935	94	127
154.27260770975056	154.35387755102042	94	127
154.36546485260772	154.64412698412698	85	127
154.36546485260772	154.4583673469388	95	127
154.36546485260772	154.64412698412698	61	127
154.36546485260772	154.64412698412698	73	127
154.46995464852608	154.55124716553289	95	127
154.56285714285715	154.64412698412698	95	127
154.66734693877552	155.22462585034015	72	127
154.66734693877552	154.73700680272108	96	127
154.66734693877552	155.22462585034015	84	127
154.66734693877552	155.22462585034015	60	127
154.76022675736962	154.82988662131518	96	127
154.85310657596372	154.9227664399093	96	127
154.94598639455782	155.0156462585034	92	127
155.03886621315192	155.1085260770975	92	127
155.13172335600908	155.2014058956916	92	127
155.22462585034015	155.49163265306123	73	127
155.22462585034015	155.2942857142857	89	127
155.22462585034015	155.49163265306123	85	127
155.22462585034015	155.49163265306123	61	127
155.31750566893425	155.38714285714286	89	127
155.41038548752834	155.48004535147393	89	127
155.50326530612244	155.9328344671202	87	127
155.50326530612244	155.9328344671202	84	127
155.50326530612244	155.9328344671202	68	127
155.50326530612244	155.9328344671202	56	127
156.31596371882085	156.44367346938776	44	127
156.31596371882085	157.29120181405895	84	127
156.31596371882085	156.73392290249433	60	127
156.31596371882085	156.73392290249433	48	127
156.5249433106576	156.72231292517006	43	127
156.73392290249433	157.00095238095238	70	127
156.73392290249433	156.8384126984127	43	127
156.73392290249433	157.00095238095238	58	127
156.9312925170068	156.98934240362811	41	127
157.00095238095238	157.20993197278912	41	127
157.00095238095238	157.26798185941044	68	127
157.00095238095238	157.26798185941044	56	127
157.29120181405895	157.82526077097506	89	127
157.29120181405895	157.4073015873016	44	127
157.29120181405895	157.56984126984128	60	127
157.29120181405895	157.56984126984128	48	127
157.51179138321996	157.558231292517	43	127
157.56984126984128	157.82526077097506	70	127
157.56984126984128	157.68591836734694	43	127
157.56984126984128	157.82526077097506	58	127
157.778820861678	157.8136507936508	41	127
157.82526077097506	158.0342403628118	41	127
157.82526077097506	158.08068027210885	85	127
157.82526077097506	158.08068027210885	68	127
157.82526077097506	158.08068027210885	56	127
158.09229024943312	158.22	44	127
158.09229024943312	158.67278911564625	84	127
158.09229024943312	158.3825396825397	60	127
158.09229024943312	158.3825396825397	48	127
158.3128798185941	158.37092970521542	43	127
158.3825396825397	158.67278911564625	58	127
158.3825396825397	158.48702947845806	43	127
158.3825396825397	158.67278911564625	70	127
158.57990929705215	158.64956916099774	41	127
158.67278911564625	158.96303854875285	56	127
158.67278911564625	158.92820861678004	41	127
158.67278911564625	158.96303854875285	68	127
158.67278911564625	158.9746485260771	85	127
158.9746485260771	159.09074829931973	44	127
158.9746485260771	159.52031746031747	89	127
158.9746485260771	159.25328798185942	72	127
158.9746485260771	159.25328798185942	60	127
159.18362811791383	159.24167800453515	43	127
159.25328798185942	159.52031746031747	70	127
159.25328798185942	159.35777777777778	43	127
159.25328798185942	159.52031746031747	82	127
159.45065759637188	159.5087074829932	41	127
159.52031746031747	159.74090702947845	41	127
159.52031746031747	159.77573696145126	80	127
159.52031746031747	159.77573696145126	68	127
159.81056689342404	160.0775963718821	72	127
159.81056689342404	159.92666666666668	44	127
159.81056689342404	160.63487528344672	84	127
159.81056689342404	160.0775963718821	60	127
160.01954648526078	160.06598639455783	43	127
160.0775963718821	160.3562358276644	82	127
160.0775963718821	160.3562358276644	70	127
160.0775963718821	160.19367346938776	43	127
160.28657596371883	160.34460317460318	41	127
160.3562358276644	160.62326530612245	68	127
160.3562358276644	160.5768253968254	41	127
160.3562358276644	160.62326530612245	80	127
160.63487528344672	160.75097505668936	44	127
160.63487528344672	160.91351473922902	72	127
160.63487528344672	160.91351473922902	60	127
160.63487528344672	161.18054421768707	89	127
160.84385487528345	160.90190476190477	43	127
160.91351473922902	161.02961451247165	43	127
160.91351473922902	161.18054421768707	70	127
160.91351473922902	161.18054421768707	82	127
161.12249433106575	161.1689342403628	41	127
161.18054421768707	161.44757369614513	85	127
161.18054421768707	161.44757369614513	80	127
161.18054421768707	161.44757369614513	68	127
161.18054421768707	161.41274376417235	41	127
161.4591836734694	161.57526077097506	44	127
161.4591836734694	162.01646258503402	84	127
161.4591836734694	161.74943310657596	72	127
161.4591836734694	161.74943310657596	60	127
161.67977324263038	161.7378231292517	43	127
161.74943310657596	162.01646258503402	82	127
161.74943310657596	161.85392290249433	43	127
161.74943310657596	162.01646258503402	70	127
161.94680272108843	162.00485260770975	41	127
162.01646258503402	162.22544217687076	41	127
162.01646258503402	162.26027210884354	80	127
162.01646258503402	162.26027210884354	68	127
162.01646258503402	162.2718820861678	85	127
162.2718820861678	162.78272108843538	80	127
162.2718820861678	162.42281179138322	48	127
162.2718820861678	162.5853514739229	63	127
162.2718820861678	162.5853514739229	51	127
162.5273015873016	162.57374149659864	46	127
162.5853514739229	162.88721088435375	73	127
162.5853514739229	162.72467120181406	46	127
162.5853514739229	162.88721088435375	61	127
162.81755102040816	162.87560090702948	44	127
162.88721088435375	163.1542403628118	60	127
162.88721088435375	163.1542403628118	72	127
162.88721088435375	163.1542403628118	44	127
163.21226757369615	163.514126984127	60	127
163.21226757369615	164.03659863945578	80	127
163.21226757369615	163.35160997732427	41	127
163.21226757369615	163.514126984127	72	127
163.44448979591837	163.49092970521542	39	127
163.514126984127	163.76954648526078	67	127
163.514126984127	163.61861678004536	39	127
163.514126984127	163.76954648526078	79	127
163.71151927437643	163.75795918367348	37	127
163.76954648526078	164.02496598639456	37	127
163.76954648526078	164.0598185941043	77	127
163.76954648526078	164.0598185941043	65	127
164.07142857142858	164.60548752834467	82	127
164.07142857142858	164.17591836734695	40	127
164.07142857142858	164.3384580498866	73	127
164.07142857142858	164.3384580498866	61	127
164.26879818594105	164.32684807256237	39	127
164.3384580498866	164.44294784580498	39	127
164.3384580498866	164.60548752834467	80	127
164.3384580498866	164.60548752834467	68	127
164.53580498866214	164.58226757369616	37	127
164.60548752834467	164.86090702947845	37	127
164.60548752834467	164.8957142857143	80	127
164.60548752834467	164.8957142857143	76	127
164.60548752834467	164.8957142857143	64	127
164.9073469387755	165.0466439909297	40	127
164.9073469387755	165.4762358276644	79	127
164.9073469387755	165.20920634920634	73	127
164.9073469387755	165.20920634920634	61	127
165.13954648526078	165.1975963718821	39	127
165.20920634920634	165.3136961451247	39	127
165.20920634920634	165.4762358276644	75	127
165.20920634920634	165.4762358276644	63	127
165.40655328798186	165.46462585034013	37	127
165.4762358276644	165.76646258503402	64	127
165.4762358276644	165.68521541950113	37	127
165.4762358276644	165.76646258503402	80	127
165.4762358276644	165.76646258503402	76	127
165.77809523809523	166.05673469387756	75	127
165.77809523809523	165.90580498866214	44	127
165.77809523809523	166.05673469387756	63	127
165.77809523809523	166.5791836734694	84	127
165.99868480725624	166.0451247165533	43	127
166.05673469387756	166.33537414965986	82	127
166.05673469387756	166.33537414965986	70	127
166.05673469387756	166.17281179138322	43	127
166.2773015873016	166.32376417233561	41	127
166.33537414965986	166.6024036281179	80	127
166.33537414965986	166.6024036281179	68	127
166.33537414965986	166.55596371882086	41	127
166.61401360544218	166.71850340136055	53	127
166.61401360544218	166.88104308390024	77	127
166.61401360544218	167.32222222222222	80	127
166.61401360544218	166.88104308390024	65	127
166.81138321995465	166.86943310657597	49	127
166.88104308390024	166.99714285714285	76	127
166.88104308390024	166.97392290249434	49	127
166.88104308390024	166.99714285714285	64	127
166.99714285714285	167.13646258503402	77	127
166.99714285714285	167.13646258503402	65	127
167.06680272108844	167.11324263038549	48	127
167.13646258503402	167.44990929705216	66	127
167.13646258503402	167.4034693877551	48	127
167.13646258503402	167.44990929705216	78	127
167.32222222222222	167.44990929705216	81	127
167.44990929705216	168.04204081632653	82	127
167.44990929705216	167.7401814058957	79	127
167.44990929705216	167.55439909297053	49	127
167.44990929705216	167.7401814058957	67	127
167.6705215419501	167.72857142857143	48	127
167.7401814058957	168.04204081632653	64	127
167.7401814058957	167.84467120181407	48	127
167.7401814058957	168.04204081632653	76	127
167.96074829931973	168.03043083900226	47	127
168.04204081632653	168.15814058956917	47	127
168.04204081632653	168.3090702947846	79	127
168.04204081632653	168.3090702947846	77	127
168.04204081632653	168.3090702947846	65	127
168.26263038548754	168.3090702947846	46	127
168.3322902494331	168.43678004535147	46	127
168.3322902494331	168.7154195011338	73	127
168.3322902494331	168.7154195011338	61	127
168.3322902494331	169.23786848072564	77	127
168.59931972789116	168.70380952380953	45	127
168.7154195011338	169.1449886621315	72	127
168.7154195011338	168.81990929705216	45	127
168.7154195011338	169.1449886621315	60	127
168.92439909297053	168.9940589569161	44	127
169.00566893424036	169.121768707483	44	127
169.1449886621315	169.27269841269842	70	127
169.1449886621315	169.27269841269842	58	127
169.2146485260771	169.27269841269842	43	127
169.2843083900227	170.32920634920634	56	127
169.2843083900227	169.56294784580498	43	127
169.2843083900227	170.14344671201815	72	127
169.2843083900227	170.32920634920634	68	127
169.67904761904762	169.7487074829932	41	127
169.76031746031745	170.20149659863947	41	127
170.79360544217687	171.28122448979593	36	127
170.79360544217687	171.28122448979593	60	127
170.79360544217687	171.4785941043084	72	127
170.79360544217687	171.28122448979593	48	127
171.29283446712017	171.37410430839003	36	127
171.29283446712017	171.37410430839003	60	127
171.29283446712017	171.37410430839003	48	127
171.39732426303854	171.52503401360545	60	127
171.39732426303854	171.52503401360545	48	127
171.39732426303854	171.52503401360545	36	127
171.53664399092972	171.64111111111112	72	127
171.53664399092972	171.60630385487528	65	127
171.53664399092972	171.60630385487528	53	127
171.53664399092972	171.60630385487528	41	127
171.64111111111112	171.71079365079365	41	127
171.64111111111112	171.71079365079365	65	127
171.64111111111112	171.71079365079365	53	127
171.68757369614514	171.78045351473924	72	127
171.7340136054422	171.80367346938775	65	127
171.7340136054422	171.80367346938775	53	127
171.7340136054422	171.80367346938775	41	127
171.81528344671202	171.8965306122449	67	127
171.81528344671202	171.8965306122449	55	127
171.81528344671202	171.8965306122449	43	127
171.81528344671202	171.91977324263038	72	127
171.91977324263038	171.98943310657597	67	127
171.91977324263038	171.98943310657597	55	127
171.91977324263038	171.98943310657597	43	127
171.96621315192743	172.05909297052153	72	127
172.00102040816327	172.0707029478458	67	127
172.00102040816327	172.0707029478458	55	127
172.00102040816327	172.0707029478458	43	127
172.10551020408164	172.21002267573695	68	127
172.10551020408164	172.21002267573695	56	127
172.10551020408164	172.21002267573695	44	127
172.10551020408164	172.37256235827664	77	127
172.2332426303855	172.30290249433108	44	127
172.2332426303855	172.30290249433108	68	127
172.2332426303855	172.30290249433108	56	127
172.31451247165532	172.3841723356009	68	127
172.31451247165532	172.3841723356009	56	127
172.31451247165532	172.3841723356009	44	127
172.40736961451248	172.477052154195	67	127
172.40736961451248	172.477052154195	55	127
172.40736961451248	172.477052154195	43	127
172.40736961451248	172.50027210884355	77	127
172.48866213151928	172.58154195011338	67	127
172.48866213151928	172.58154195011338	55	127
172.48866213151928	172.58154195011338	43	127
172.53510204081633	172.65120181405896	77	127
172.60476190476192	172.67442176870748	67	127
172.60476190476192	172.67442176870748	55	127
172.60476190476192	172.67442176870748	43	127
172.68603174603174	172.77891156462584	65	127
172.68603174603174	172.77891156462584	53	127
172.68603174603174	172.77891156462584	41	127
172.68603174603174	172.7905215419501	73	127
172.7905215419501	172.8601814058957	65	127
172.7905215419501	172.8601814058957	53	127
172.7905215419501	172.8601814058957	41	127
172.83696145124716	172.92984126984126	73	127
172.8834013605442	172.9530612244898	53	127
172.8834013605442	172.9530612244898	41	127
172.8834013605442	172.9530612244898	65	127
172.96467120181407	173.09238095238095	44	127
172.96467120181407	173.2665306122449	72	127
172.96467120181407	173.09238095238095	68	127
172.96467120181407	173.09238095238095	56	127
173.1156009070295	173.18526077097505	56	127
173.1156009070295	173.18526077097505	44	127
173.1156009070295	173.18526077097505	68	127
173.19687074829932	173.2665306122449	68	127
173.19687074829932	173.2665306122449	56	127
173.19687074829932	173.2665306122449	44	127
173.28975056689342	173.37102040816328	72	127
173.28975056689342	173.37102040816328	60	127
173.28975056689342	173.37102040816328	48	127
173.28975056689342	173.40585034013606	72	127
173.40585034013606	173.47551020408164	72	127
173.40585034013606	173.47551020408164	60	127
173.40585034013606	173.47551020408164	48	127
173.44068027210884	173.533537414966	72	127
173.48709750566894	173.58	48	127
173.48709750566894	173.58	72	127
173.48709750566894	173.58	60	127
173.60321995464852	173.68448979591838	70	127
173.60321995464852	173.68448979591838	58	127
173.60321995464852	173.68448979591838	46	127
173.60321995464852	173.7077097505669	73	127
173.69609977324262	173.77736961451248	70	127
173.69609977324262	173.77736961451248	58	127
173.69609977324262	173.77736961451248	46	127
173.74251700680273	173.84702947845804	73	127
173.800589569161	173.87024943310658	70	127
173.800589569161	173.87024943310658	58	127
173.800589569161	173.87024943310658	46	127
173.89344671201815	173.96312925170068	68	127
173.89344671201815	173.96312925170068	56	127
173.89344671201815	173.96312925170068	44	127
173.89344671201815	173.97473922902495	77	127
173.97473922902495	174.04437641723356	68	127
173.97473922902495	174.04437641723356	56	127
173.97473922902495	174.04437641723356	44	127
174.021179138322	174.1140589569161	77	127
174.06761904761905	174.13727891156464	68	127
174.06761904761905	174.13727891156464	56	127
174.06761904761905	174.13727891156464	44	127
174.16049886621315	174.23015873015873	55	127
174.16049886621315	174.23015873015873	67	127
174.16049886621315	174.23015873015873	43	127
174.16049886621315	174.36947845804988	77	127
174.2533560090703	174.3346485260771	43	127
174.2533560090703	174.3346485260771	67	127
174.2533560090703	174.3346485260771	55	127
174.3578684807256	174.45074829931974	67	127
174.3578684807256	174.45074829931974	55	127
174.3578684807256	174.45074829931974	43	127
174.46235827664398	174.53201814058957	65	127
174.46235827664398	174.53201814058957	53	127
174.46235827664398	174.53201814058957	41	127
174.56684807256235	174.63650793650794	41	127
174.56684807256235	174.63650793650794	65	127
174.56684807256235	174.63650793650794	53	127
174.6481179138322	174.71777777777777	41	127
174.6481179138322	174.71777777777777	53	127
174.6481179138322	174.71777777777777	65	127
174.7409977324263	174.8338775510204	39	127
174.7409977324263	175.00802721088436	72	127
174.7409977324263	174.8338775510204	63	127
174.7409977324263	174.8338775510204	51	127
174.84548752834468	174.9267573696145	51	127
174.84548752834468	174.9267573696145	39	127
174.84548752834468	174.9267573696145	63	127
174.94997732426305	175.03124716553287	63	127
174.94997732426305	175.03124716553287	51	127
174.94997732426305	175.03124716553287	39	127
175.0544671201814	175.17054421768708	65	127
175.0544671201814	175.17054421768708	53	127
175.0544671201814	175.17054421768708	41	127
175.0544671201814	175.19378684807256	72	127
175.1821768707483	175.25183673469388	65	127
175.1821768707483	175.25183673469388	53	127
175.1821768707483	175.25183673469388	41	127
175.22861678004534	175.3214739229025	72	127
175.27503401360545	175.34471655328798	65	127
175.27503401360545	175.34471655328798	53	127
175.27503401360545	175.34471655328798	41	127
175.35632653061225	175.46081632653062	67	127
175.35632653061225	175.46081632653062	55	127
175.35632653061225	175.46081632653062	43	127
175.35632653061225	175.48403628117913	72	127
175.48403628117913	175.57689342403629	67	127
175.48403628117913	175.57689342403629	55	127
175.48403628117913	175.57689342403629	43	127
175.55369614512472	175.6581859410431	72	127
175.60013605442177	175.69301587301587	43	127
175.60013605442177	175.69301587301587	67	127
175.60013605442177	175.69301587301587	55	127
175.70462585034014	175.8091156462585	68	127
175.70462585034014	175.8091156462585	56	127
175.70462585034014	175.98326530612246	77	127
175.70462585034014	175.8091156462585	44	127
175.83231292517007	175.9019954648526	44	127
175.83231292517007	175.9019954648526	68	127
175.83231292517007	175.9019954648526	56	127
175.91360544217687	175.98326530612246	68	127
175.91360544217687	175.98326530612246	56	127
175.91360544217687	175.98326530612246	44	127
176.00648526077097	176.07614512471656	70	127
176.00648526077097	176.07614512471656	58	127
176.00648526077097	176.07614512471656	46	127
176.00648526077097	176.09936507936507	77	127
176.08775510204083	176.16902494331066	70	127
176.08775510204083	176.16902494331066	58	127
176.08775510204083	176.16902494331066	46	127
176.13419501133788	176.22707482993198	77	127
176.18063492063493	176.2502947845805	70	127
176.18063492063493	176.2502947845805	58	127
176.18063492063493	176.2502947845805	46	127
176.27351473922903	176.34317460317462	47	127
176.27351473922903	176.34317460317462	71	127
176.27351473922903	176.34317460317462	59	127
176.27351473922903	176.36639455782313	73	127
176.35478458049886	176.42444444444445	59	127
176.35478458049886	176.42444444444445	47	127
176.35478458049886	176.42444444444445	71	127
176.4012244897959	176.49410430839004	73	127
176.447641723356	176.51732426303855	71	127
176.447641723356	176.51732426303855	59	127
176.447641723356	176.51732426303855	47	127
176.52893424036282	176.63342403628118	72	127
176.52893424036282	176.63342403628118	60	127
176.52893424036282	176.63342403628118	48	127
176.52893424036282	176.8540136054422	72	127
176.65662131519275	176.77274376417233	72	127
176.65662131519275	176.77274376417233	60	127
176.65662131519275	176.77274376417233	48	127
176.79596371882087	176.86562358276643	72	127
176.79596371882087	176.86562358276643	60	127
176.79596371882087	176.86562358276643	48	127
176.8772335600907	176.9468934240363	68	127
176.8772335600907	176.9468934240363	56	127
176.8772335600907	176.9468934240363	44	127
176.8772335600907	176.9701133786848	72	127
176.9701133786848	177.0397732426304	56	127
176.9701133786848	177.0397732426304	68	127
176.9701133786848	177.0397732426304	44	127
177.01655328798185	177.15587301587303	72	127
177.05138321995466	177.16746031746032	68	127
177.05138321995466	177.16746031746032	56	127
177.05138321995466	177.16746031746032	44	127
177.1907029478458	177.27197278911564	65	127
177.1907029478458	177.27197278911564	53	127
177.1907029478458	177.27197278911564	41	127
177.1907029478458	177.29519274376418	73	127
177.29519274376418	177.376462585034	65	127
177.29519274376418	177.376462585034	53	127
177.29519274376418	177.376462585034	41	127
177.33002267573696	177.48095238095237	73	127
177.38807256235827	177.5041723356009	65	127
177.38807256235827	177.5041723356009	53	127
177.38807256235827	177.5041723356009	41	127
177.5390022675737	177.60866213151928	60	127
177.5390022675737	177.60866213151928	51	127
177.5390022675737	177.60866213151928	44	127
177.5390022675737	177.6318820861678	68	127
177.62027210884355	177.6899319727891	60	127
177.62027210884355	177.6899319727891	51	127
177.62027210884355	177.6899319727891	44	127
177.6667120181406	177.80603174603175	68	127
177.74798185941043	177.82922902494332	44	127
177.74798185941043	177.82922902494332	60	127
177.74798185941043	177.82922902494332	51	127
177.84086167800453	177.9221315192744	44	127
177.84086167800453	178.0730612244898	68	127
177.84086167800453	177.9221315192744	59	127
177.84086167800453	177.9221315192744	52	127
177.93371882086169	178.0150113378685	52	127
177.93371882086169	178.0150113378685	44	127
177.93371882086169	178.0150113378685	59	127
178.038231292517	178.10789115646259	52	127
178.038231292517	178.10789115646259	59	127
178.038231292517	178.10789115646259	44	127
178.11950113378686	178.18913832199547	60	127
178.11950113378686	178.18913832199547	51	127
178.11950113378686	178.18913832199547	44	127
178.21238095238095	178.30526077097505	60	127
178.21238095238095	178.30526077097505	51	127
178.21238095238095	178.30526077097505	44	127
178.31687074829932	178.39814058956915	60	127
178.31687074829932	178.39814058956915	51	127
178.31687074829932	178.39814058956915	44	127
178.43297052154196	178.56068027210884	60	127
178.43297052154196	178.56068027210884	72	127
178.43297052154196	178.67678004535148	48	127
178.43297052154196	178.7580498866213	48	127
178.58390022675738	178.71160997732426	60	127
178.58390022675738	178.71160997732426	72	127
178.7580498866213	178.88575963718822	77	127
178.7580498866213	178.88575963718822	48	127
178.7580498866213	179.08312925170068	50	127
178.7580498866213	178.88575963718822	65	127
178.90897959183673	179.0482993197279	65	127
178.90897959183673	179.0482993197279	48	127
178.90897959183673	179.0482993197279	77	127
179.08312925170068	179.25725623582767	48	127
179.08312925170068	179.25725623582767	79	127
179.08312925170068	179.25725623582767	67	127
179.08312925170068	179.40820861678006	52	127
179.28049886621315	179.3965986394558	67	127
179.28049886621315	179.3965986394558	48	127
179.28049886621315	179.3965986394558	79	127
179.4198185941043	179.52430839002267	80	127
179.4198185941043	179.52430839002267	68	127
179.4198185941043	179.7100680272109	53	127
179.4198185941043	179.75650793650794	53	127
179.55913832199548	179.7332879818594	80	127
179.55913832199548	179.7332879818594	68	127
179.75650793650794	180.0467573696145	55	127
179.75650793650794	179.8609977324263	79	127
179.75650793650794	179.8609977324263	67	127
179.75650793650794	179.8609977324263	53	127
179.88421768707482	180.023537414966	67	127
179.88421768707482	180.023537414966	79	127
179.88421768707482	180.023537414966	53	127
180.0467573696145	180.18607709750566	56	127
180.0467573696145	180.16285714285715	65	127
180.0467573696145	180.16285714285715	49	127
180.0467573696145	180.16285714285715	77	127
180.18607709750566	180.31378684807257	65	127
180.18607709750566	180.29056689342403	77	127
180.18607709750566	180.29056689342403	65	127
180.18607709750566	180.29056689342403	49	127
180.32539682539684	180.46471655328799	80	127
180.32539682539684	180.46471655328799	68	127
180.32539682539684	180.59240362811792	48	127
180.32539682539684	180.9291156462585	64	127
180.48791383219955	180.6156462585034	68	127
180.48791383219955	180.6156462585034	80	127
180.63884353741497	180.75496598639455	84	127
180.63884353741497	180.75496598639455	72	127
180.63884353741497	180.75496598639455	48	127
180.78979591836736	180.90589569160997	72	127
180.78979591836736	180.90589569160997	84	127
180.78979591836736	180.90589569160997	48	127
180.9291156462585	181.04521541950115	70	127
180.9291156462585	181.04521541950115	49	127
180.9291156462585	181.21936507936508	65	127
180.9291156462585	181.04521541950115	82	127
181.0916553287982	181.2077551020408	70	127
181.0916553287982	181.2077551020408	49	127
181.0916553287982	181.2077551020408	82	127
181.23097505668935	181.3354648526077	80	127
181.23097505668935	181.3354648526077	53	127
181.23097505668935	181.4980045351474	60	127
181.23097505668935	181.3354648526077	68	127
181.35866213151928	181.4631746031746	80	127
181.35866213151928	181.4631746031746	68	127
181.35866213151928	181.4631746031746	53	127
181.4980045351474	181.63732426303855	67	127
181.4980045351474	181.63732426303855	79	127
181.4980045351474	181.7534240362812	53	127
181.4980045351474	181.8114739229025	58	127
181.66052154195012	181.78825396825397	67	127
181.66052154195012	181.78825396825397	79	127
181.8114739229025	181.95079365079366	65	127
181.8114739229025	182.0901133786848	56	127
181.8114739229025	181.95079365079366	77	127
181.97401360544217	182.07850340136054	77	127
181.97401360544217	182.07850340136054	65	127
182.10172335600907	182.27585034013606	76	127
182.10172335600907	182.4035827664399	48	127
182.10172335600907	182.77510204081634	56	127
182.10172335600907	182.27585034013606	64	127
182.3107029478458	182.4384126984127	64	127
182.3107029478458	182.4384126984127	76	127
182.46163265306123	182.57773242630387	77	127
182.46163265306123	182.57773242630387	65	127
182.46163265306123	182.57773242630387	48	127
182.60095238095238	182.7286621315193	65	127
182.60095238095238	182.7286621315193	77	127
182.60095238095238	182.7286621315193	48	127
182.77510204081634	182.891179138322	67	127
182.77510204081634	182.891179138322	48	127
182.77510204081634	183.05374149659863	52	127
182.77510204081634	182.891179138322	79	127
182.91442176870748	183.04210884353742	79	127
182.91442176870748	183.04210884353742	67	127
182.91442176870748	183.04210884353742	48	127
183.07696145124717	183.1930612244898	80	127
183.07696145124717	183.1930612244898	68	127
183.07696145124717	183.2975283446712	53	127
183.07696145124717	183.34399092970523	53	127
183.21628117913832	183.3207709750567	80	127
183.21628117913832	183.3207709750567	68	127
183.34399092970523	183.4717006802721	53	127
183.34399092970523	183.4717006802721	82	127
183.34399092970523	183.4717006802721	70	127
183.34399092970523	183.6342403628118	55	127
183.50650793650794	183.61102040816326	70	127
183.50650793650794	183.61102040816326	53	127
183.50650793650794	183.61102040816326	82	127
183.6342403628118	183.73873015873016	83	127
183.6342403628118	183.73873015873016	71	127
183.6342403628118	183.73873015873016	49	127
183.6342403628118	183.76192743764173	56	127
183.76192743764173	183.88965986394558	83	127
183.76192743764173	183.88965986394558	71	127
183.76192743764173	183.88965986394558	49	127
183.76192743764173	183.90126984126985	65	127
183.91285714285715	184.01734693877552	72	127
183.91285714285715	184.01734693877552	84	127
183.91285714285715	184.12185941043083	48	127
183.91285714285715	184.4469387755102	63	127
184.040589569161	184.14507936507937	72	127
184.040589569161	184.14507936507937	84	127
184.17990929705215	184.28439909297052	68	127
184.17990929705215	184.28439909297052	48	127
184.17990929705215	184.28439909297052	80	127
184.30761904761906	184.42369614512472	68	127
184.30761904761906	184.42369614512472	48	127
184.30761904761906	184.42369614512472	80	127
184.4469387755102	184.55142857142857	77	127
184.4469387755102	184.55142857142857	65	127
184.4469387755102	184.55142857142857	49	127
184.4469387755102	184.58625850340135	65	127
184.58625850340135	184.69074829931972	77	127
184.58625850340135	184.69074829931972	65	127
184.58625850340135	184.69074829931972	49	127
184.58625850340135	184.71396825396826	53	127
184.71396825396826	185.36412698412698	53	127
184.71396825396826	184.81845804988663	72	127
184.71396825396826	184.81845804988663	60	127
184.71396825396826	184.81845804988663	44	127
184.8532879818594	184.99260770975056	44	127
184.8532879818594	184.99260770975056	72	127
184.8532879818594	184.99260770975056	60	127
185.03902494331066	185.17836734693878	59	127
185.03902494331066	185.3408843537415	44	127
185.03902494331066	185.17836734693878	71	127
185.25963718820861	185.36412698412698	59	127
185.25963718820861	185.36412698412698	71	127
185.39895691609976	185.5150566893424	72	127
185.39895691609976	185.5150566893424	60	127
185.53827664399094	185.65437641723355	72	127
185.53827664399094	185.65437641723355	60	127
185.6775963718821	185.84013605442178	72	127
185.6775963718821	185.84013605442178	60	127
185.6775963718821	185.94462585034015	44	127
185.6775963718821	185.9910657596372	51	127
185.8633560090703	185.96784580498866	60	127
185.8633560090703	185.96784580498866	72	127
185.9910657596372	186.09555555555556	59	127
185.9910657596372	186.09555555555556	44	127
185.9910657596372	186.3161224489796	52	127
185.9910657596372	186.09555555555556	71	127
186.13038548752834	186.29292517006803	71	127
186.13038548752834	186.29292517006803	59	127
186.13038548752834	186.29292517006803	44	127
186.3161224489796	186.44385487528345	44	127
186.3161224489796	186.44385487528345	72	127
186.3161224489796	186.44385487528345	60	127
186.3161224489796	186.62961451247165	51	127
186.46705215419502	186.60639455782314	60	127
186.46705215419502	186.60639455782314	44	127
186.46705215419502	186.60639455782314	72	127
186.64122448979592	186.74571428571429	73	127
186.64122448979592	186.74571428571429	61	127
186.64122448979592	186.85020408163265	46	127
186.64122448979592	187.2101133786848	51	127
186.76893424036282	186.8734240362812	61	127
186.76893424036282	186.8734240362812	73	127
186.8966439909297	187.03596371882085	60	127
186.8966439909297	187.03596371882085	44	127
186.8966439909297	187.03596371882085	72	127
187.0591836734694	187.16367346938776	60	127
187.0591836734694	187.16367346938776	44	127
187.0591836734694	187.16367346938776	72	127
187.2101133786848	187.31460317460318	44	127
187.2101133786848	187.31460317460318	80	127
187.2101133786848	187.4655328798186	48	127
187.2101133786848	187.31460317460318	68	127
187.34943310657596	187.45392290249433	44	127
187.34943310657596	187.45392290249433	80	127
187.34943310657596	187.45392290249433	68	127
187.47714285714287	187.58163265306123	77	127
187.47714285714287	187.58163265306123	65	127
187.47714285714287	187.6861224489796	43	127
187.47714285714287	188.0924716553288	49	127
187.60485260770974	187.72095238095238	77	127
187.60485260770974	187.72095238095238	65	127
187.74414965986395	187.86027210884353	64	127
187.74414965986395	187.86027210884353	43	127
187.74414965986395	187.86027210884353	76	127
187.88349206349207	188.0344217687075	64	127
187.88349206349207	188.0344217687075	43	127
187.88349206349207	188.0344217687075	76	127
188.0924716553288	188.19696145124718	75	127
188.0924716553288	188.19696145124718	63	127
188.0924716553288	188.19696145124718	44	127
188.0924716553288	188.3711111111111	48	127
188.2201814058957	188.3594784580499	63	127
188.2201814058957	188.3594784580499	75	127
188.2201814058957	188.3594784580499	44	127
188.38272108843537	188.498820861678	61	127
188.38272108843537	188.498820861678	48	127
188.38272108843537	188.6613605442177	58	127
188.38272108843537	188.498820861678	73	127
188.5336507936508	188.63814058956916	73	127
188.5336507936508	188.63814058956916	61	127
188.5336507936508	188.63814058956916	48	127
188.6613605442177	188.89356009070295	48	127
188.6613605442177	188.7774603174603	72	127
188.6613605442177	188.7774603174603	60	127
188.6613605442177	188.98643990929705	56	127
188.81229024943312	188.95160997732427	60	127
188.81229024943312	188.95160997732427	72	127
188.98643990929705	189.10253968253969	59	127
188.98643990929705	189.27666666666667	55	127
188.98643990929705	189.10253968253969	71	127
189.13736961451247	189.26507936507937	59	127
189.13736961451247	189.26507936507937	71	127
189.31151927437642	189.52049886621316	44	127
189.31151927437642	189.4160090702948	72	127
189.31151927437642	189.4160090702948	60	127
189.31151927437642	189.5669387755102	56	127
189.4392290249433	189.54371882086167	60	127
189.4392290249433	189.54371882086167	72	127
189.5669387755102	189.68303854875285	68	127
189.5669387755102	189.68303854875285	44	127
189.5669387755102	189.8455782312925	55	127
189.5669387755102	189.68303854875285	80	127
189.70625850340136	189.822358276644	80	127
189.70625850340136	189.822358276644	68	127
189.70625850340136	189.822358276644	44	127
189.8455782312925	189.97328798185941	44	127
189.8455782312925	189.97328798185941	79	127
189.8455782312925	189.97328798185941	67	127
189.8455782312925	190.17065759637188	51	127
190.0081179138322	190.1358276643991	44	127
190.0081179138322	190.1358276643991	67	127
190.0081179138322	190.1358276643991	79	127
190.18226757369615	190.30997732426303	65	127
190.18226757369615	190.4492970521542	46	127
190.18226757369615	190.30997732426303	77	127
190.18226757369615	190.86725623582765	49	127
190.35641723356008	190.46090702947845	65	127
190.35641723356008	190.46090702947845	77	127
190.5073469387755	190.6698866213152	73	127
190.5073469387755	190.6698866213152	85	127
190.5073469387755	190.68149659863946	46	127
190.704716553288	190.83242630385487	73	127
190.704716553288	190.83242630385487	46	127
190.704716553288	190.83242630385487	85	127
190.86725623582765	191.01818594104307	76	127
190.86725623582765	191.01818594104307	64	127
190.86725623582765	191.01818594104307	43	127
190.86725623582765	191.1342857142857	48	127
191.1342857142857	191.25038548752835	43	127
191.1342857142857	191.25038548752835	76	127
191.1342857142857	191.25038548752835	64	127
191.1342857142857	191.25038548752835	58	127
191.28521541950113	191.41292517006804	77	127
191.28521541950113	191.41292517006804	65	127
191.28521541950113	191.6102947845805	41	127
191.28521541950113	191.69156462585033	58	127
191.28521541950113	194.38507936507938	48	127
191.49419501133787	191.65673469387755	65	127
191.49419501133787	191.65673469387755	77	127
191.69156462585033	191.94698412698412	77	127
191.69156462585033	191.94698412698412	41	127
191.69156462585033	192.295283446712	56	127
191.69156462585033	191.94698412698412	89	127
192.1095238095238	192.24884353741496	41	127
192.1095238095238	192.24884353741496	89	127
192.1095238095238	192.24884353741496	77	127
192.295283446712	192.7712925170068	77	127
192.295283446712	193.13120181405895	55	127
192.295283446712	192.7712925170068	65	127
192.295283446712	192.7712925170068	41	127
192.82934240362812	193.04993197278912	41	127
192.82934240362812	193.04993197278912	65	127
192.82934240362812	193.04993197278912	77	127
193.13120181405895	193.2705215419501	77	127
193.13120181405895	193.2705215419501	89	127
193.13120181405895	194.38507936507938	56	127
193.13120181405895	194.38507936507938	41	127
193.31696145124715	193.73492063492063	89	127
193.31696145124715	193.73492063492063	77	127
193.81619047619049	194.52439909297053	77	127
193.81619047619049	194.52439909297053	65	127
195.23260770975057	195.3138775510204	72	127
195.23260770975057	195.3138775510204	60	127
195.46480725623582	195.76666666666668	77	127
195.46480725623582	195.76666666666668	65	127
195.8479365079365	195.9408163265306	62	127
195.8479365079365	195.9408163265306	74	127
195.9756462585034	196.08013605442176	72	127
195.9756462585034	196.08013605442176	60	127
196.1033560090703	196.1962358276644	74	127
196.1033560090703	196.1962358276644	62	127
196.21945578231293	196.42843537414967	77	127
196.21945578231293	196.42843537414967	65	127
196.83478458049888	196.93927437641725	72	127
196.83478458049888	196.93927437641725	60	127
197.11342403628117	197.43850340136055	65	127
197.11342403628117	197.43850340136055	77	127
197.5546031746032	197.65909297052156	62	127
197.5546031746032	197.65909297052156	74	127
197.68231292517007	197.78680272108843	72	127
197.68231292517007	197.78680272108843	60	127
197.82163265306122	197.93773242630385	74	127
197.82163265306122	197.93773242630385	62	127
197.9609523809524	198.18154195011337	69	127
197.9609523809524	198.18154195011337	57	127
198.57628117913833	198.87814058956917	57	127
198.57628117913833	198.87814058956917	65	127
198.57628117913833	199.1451700680272	48	127
198.57628117913833	199.42380952380952	72	127
198.87814058956917	199.33092970521542	58	127
198.87814058956917	199.16839002267574	67	127
199.16839002267574	199.33092970521542	62	127
199.16839002267574	199.41219954648525	36	127
199.33092970521542	199.44702947845806	55	127
199.33092970521542	199.44702947845806	64	127
199.47024943310657	200.23650793650793	72	127
199.47024943310657	199.73727891156463	65	127
199.47024943310657	199.73727891156463	57	127
199.47024943310657	199.98108843537415	48	127
199.73727891156463	200.14362811791383	58	127
199.73727891156463	200.0043083900227	67	127
200.0043083900227	200.22489795918366	36	127
200.0043083900227	200.14362811791383	62	127
200.14362811791383	200.32938775510203	55	127
200.14362811791383	200.32938775510203	64	127
200.35260770975057	200.75895691609978	65	127
200.35260770975057	200.75895691609978	57	127
200.35260770975057	201.01437641723356	48	127
200.35260770975057	202.15215419501135	72	127
200.75895691609978	201.20013605442176	58	127
200.75895691609978	201.04920634920634	67	127
201.04920634920634	201.5368253968254	36	127
201.04920634920634	201.20013605442176	62	127
201.20013605442176	201.56004535147392	55	127
201.20013605442176	201.56004535147392	64	127
201.58326530612246	202.11732426303854	41	127
201.58326530612246	202.1637641723356	65	127
201.58326530612246	202.11732426303854	57	127
202.1637641723356	202.314693877551	67	127
202.314693877551	202.44240362811792	64	127
202.44240362811792	202.54689342403628	65	127
202.7210430839002	202.87197278911566	60	127
202.7210430839002	202.87197278911566	84	127
202.7210430839002	202.87197278911566	72	127
203.03451247165532	203.3595918367347	89	127
203.03451247165532	203.3595918367347	77	127
203.03451247165532	203.3595918367347	65	127
203.47569160997733	203.59179138321994	86	127
203.47569160997733	203.59179138321994	74	127
203.47569160997733	203.59179138321994	62	127
203.61501133786848	203.73111111111112	84	127
203.61501133786848	203.73111111111112	72	127
203.61501133786848	203.73111111111112	60	127
203.75433106575963	203.858820861678	86	127
203.75433106575963	203.858820861678	74	127
203.75433106575963	203.858820861678	62	127
203.8936507936508	203.97492063492064	57	127
203.8936507936508	203.97492063492064	50	127
203.8936507936508	204.10263038548752	89	127
203.8936507936508	204.10263038548752	77	127
203.8936507936508	204.10263038548752	65	127
204.02136054421769	204.10263038548752	50	127
204.02136054421769	204.10263038548752	57	127
204.1722902494331	204.2419501133787	57	127
204.1722902494331	204.2419501133787	50	127
204.46253968253967	204.59024943310658	84	127
204.46253968253967	204.59024943310658	72	127
204.46253968253967	204.59024943310658	60	127
204.76439909297054	205.0778684807256	65	127
204.76439909297054	205.0778684807256	89	127
204.76439909297054	205.0778684807256	77	127
205.15913832199547	205.2752380952381	86	127
205.15913832199547	205.2752380952381	62	127
205.15913832199547	205.2752380952381	74	127
205.3100680272109	205.41455782312926	84	127
205.3100680272109	205.41455782312926	72	127
205.3100680272109	205.41455782312926	60	127
205.43777777777777	205.56548752834468	86	127
205.43777777777777	205.56548752834468	74	127
205.43777777777777	205.56548752834468	62	127
205.5887074829932	205.87895691609978	81	127
205.5887074829932	205.65836734693877	53	127
205.5887074829932	205.65836734693877	60	127
205.5887074829932	205.87895691609978	69	127
205.5887074829932	205.87895691609978	57	127
205.7164172335601	205.87895691609978	60	127
205.7164172335601	205.87895691609978	53	127
205.94861678004534	206.06471655328798	53	127
205.94861678004534	206.06471655328798	60	127
206.3085260770975	206.57555555555555	77	127
206.3085260770975	206.57555555555555	69	127
206.3085260770975	206.80775510204083	60	127
206.3085260770975	207.07478458049886	84	127
206.57555555555555	206.9702947845805	70	127
206.57555555555555	206.83097505668934	79	127
206.83097505668934	206.9702947845805	74	127
206.83097505668934	207.06317460317462	48	127
206.9702947845805	207.10961451247167	76	127
206.9702947845805	207.10961451247167	67	127
207.13283446712018	208.0732426303855	84	127
207.13283446712018	207.39986394557823	77	127
207.13283446712018	207.39986394557823	69	127
207.13283446712018	207.64367346938775	60	127
207.39986394557823	207.9803628117914	70	127
207.39986394557823	207.70172335600907	79	127
207.70172335600907	208.06163265306122	48	127
207.70172335600907	207.9803628117914	74	127
207.9803628117914	208.08485260770976	76	127
207.9803628117914	208.08485260770976	67	127
208.10807256235827	209.25746031746033	84	127
208.10807256235827	208.37510204081633	77	127
208.10807256235827	208.37510204081633	69	127
208.10807256235827	208.63052154195012	60	127
208.37510204081633	208.82789115646258	70	127
208.37510204081633	208.65374149659863	79	127
208.65374149659863	208.82789115646258	74	127
208.65374149659863	208.9091609977324	48	127
208.82789115646258	208.94399092970522	67	127
208.82789115646258	208.94399092970522	76	127
208.96721088435373	209.21102040816328	69	127
208.96721088435373	209.1645804988662	53	127
208.96721088435373	209.26907029478457	77	127
209.26907029478457	209.3619501133787	50	127
209.44321995464853	209.5477097505669	48	127
209.640589569161	209.77990929705214	41	127
209.98888888888888	210.10498866213152	84	127
210.12820861678006	210.2094784580499	86	127
210.22108843537416	210.31396825396826	69	127
210.22108843537416	210.31396825396826	62	127
210.22108843537416	210.44167800453513	89	127
210.3604081632653	210.44167800453513	62	127
210.3604081632653	210.44167800453513	69	127
210.4881179138322	210.5809977324263	69	127
210.4881179138322	210.5809977324263	62	127
210.82480725623583	210.9292970521542	84	127
210.9525170068027	211.05700680272108	86	127
211.09183673469389	211.17310657596371	65	127
211.09183673469389	211.17310657596371	72	127
211.09183673469389	211.30081632653062	81	127
211.21954648526076	211.30081632653062	72	127
211.21954648526076	211.30081632653062	65	127
211.34725623582767	211.50979591836736	72	127
211.34725623582767	211.50979591836736	65	127
211.71877551020407	211.82326530612244	72	127
211.85809523809525	211.9974149659864	74	127
212.02063492063493	212.10190476190476	57	127
212.02063492063493	212.10190476190476	50	127
212.02063492063493	212.2412244897959	77	127
212.1483446712018	212.25283446712018	50	127
212.1483446712018	212.25283446712018	57	127
212.29927437641723	212.3805442176871	57	127
212.29927437641723	212.3805442176871	50	127
212.60113378684807	212.70562358276644	72	127
212.72884353741497	212.84494331065758	74	127
212.8797732426304	212.9726530612245	60	127
212.8797732426304	212.9726530612245	53	127
212.8797732426304	213.1932426303855	69	127
213.0307029478458	213.1932426303855	60	127
213.0307029478458	213.1932426303855	53	127
213.23968253968255	213.32095238095238	53	127
213.23968253968255	213.32095238095238	60	127
213.50671201814058	213.58798185941043	65	127
213.50671201814058	213.77374149659863	93	127
213.50671201814058	213.58798185941043	60	127
213.63442176870748	213.72730158730158	62	127
213.63442176870748	213.72730158730158	65	127
213.77374149659863	213.88984126984127	72	127
213.77374149659863	213.8550113378685	65	127
213.77374149659863	214.0059410430839	57	127
213.77374149659863	214.06399092970523	89	127
213.92467120181405	214.02916099773242	74	127
213.92467120181405	214.0059410430839	65	127
214.06399092970523	214.20331065759638	69	127
214.06399092970523	214.2845804988662	77	127
214.20331065759638	214.33102040816325	84	127
214.20331065759638	214.2845804988662	65	127
214.33102040816325	214.43551020408162	60	127
214.33102040816325	214.43551020408162	65	127
214.33102040816325	214.60965986394558	84	127
214.48195011337867	214.56321995464853	62	127
214.48195011337867	214.56321995464853	65	127
214.60965986394558	214.70253968253968	65	127
214.60965986394558	214.72575963718822	72	127
214.60965986394558	214.74897959183673	91	127
214.60965986394558	214.8534693877551	57	127
214.74897959183673	214.86507936507937	65	127
214.74897959183673	214.88829931972788	74	127
214.74897959183673	214.9231292517007	89	127
214.93473922902496	215.14371882086166	77	127
214.93473922902496	215.06244897959184	69	127
215.06244897959184	215.14371882086166	65	127
215.06244897959184	215.19015873015874	93	127
215.19015873015874	215.28303854875284	65	127
215.19015873015874	215.28303854875284	60	127
215.19015873015874	215.45718820861677	93	127
215.3294784580499	215.41074829931972	62	127
215.3294784580499	215.41074829931972	65	127
215.45718820861677	215.7358276643991	89	127
215.45718820861677	215.56167800453514	65	127
215.45718820861677	215.5732879818594	72	127
215.45718820861677	215.67777777777778	57	127
215.6081179138322	215.72421768707483	74	127
215.6081179138322	215.70099773242632	65	127
215.74743764172337	215.87514739229024	69	127
215.74743764172337	215.96802721088434	77	127
215.74743764172337	215.87514739229024	88	127
215.87514739229024	215.9796371882086	65	127
215.87514739229024	216.02607709750566	86	127
216.02607709750566	216.304716553288	89	127
216.02607709750566	216.13056689342403	60	127
216.02607709750566	216.17700680272108	69	127
216.17700680272108	216.25827664399094	62	127
216.17700680272108	216.25827664399094	65	127
216.304716553288	216.3975963718821	65	127
216.304716553288	216.4556462585034	72	127
216.304716553288	216.56013605442178	57	127
216.47886621315192	216.5833560090703	74	127
216.47886621315192	216.56013605442178	65	127
216.60657596371883	216.74589569160997	69	127
216.60657596371883	216.83877551020407	77	127
216.74589569160997	216.85038548752834	65	127
216.8968253968254	217.23351473922904	93	127
216.8968253968254	217.01292517006803	65	127
216.8968253968254	217.01292517006803	60	127
217.07097505668935	217.17546485260772	62	127
217.07097505668935	217.17546485260772	65	127
217.23351473922904	217.46571428571428	57	127
217.23351473922904	217.31478458049887	65	127
217.23351473922904	217.36122448979592	72	127
217.23351473922904	217.51215419501133	89	127
217.38444444444445	217.48893424036282	74	127
217.38444444444445	217.47732426303855	65	127
217.5237641723356	217.65147392290248	69	127
217.5237641723356	217.73274376417234	77	127
217.65147392290248	217.73274376417234	65	127
217.65147392290248	217.7791836734694	84	127
217.7791836734694	217.8720634920635	65	127
217.7791836734694	217.8720634920635	60	127
217.7791836734694	218.06943310657596	84	127
217.9301133786848	218.01138321995464	65	127
217.9301133786848	218.01138321995464	62	127
218.06943310657596	218.19714285714286	72	127
218.06943310657596	218.17392290249433	65	127
218.06943310657596	218.22036281179138	91	127
218.06943310657596	218.32485260770974	57	127
218.22036281179138	218.336462585034	65	127
218.22036281179138	218.39451247165533	74	127
218.22036281179138	218.41773242630384	89	127
218.41773242630384	218.54544217687075	69	127
218.41773242630384	218.62671201814058	77	127
218.54544217687075	218.67315192743763	93	127
218.54544217687075	218.63832199546485	65	127
218.6847619047619	218.76603174603176	65	127
218.6847619047619	218.76603174603176	60	127
218.6847619047619	218.9401814058957	93	127
218.8124716553288	218.89374149659864	62	127
218.8124716553288	218.89374149659864	65	127
218.9401814058957	219.20721088435374	89	127
218.9401814058957	219.03306122448978	65	127
218.9401814058957	219.07950113378683	72	127
218.9401814058957	219.1607709750567	57	127
219.07950113378683	219.1607709750567	65	127
219.07950113378683	219.20721088435374	74	127
219.20721088435374	219.3465306122449	55	127
219.20721088435374	219.3465306122449	88	127
219.20721088435374	219.52068027210885	70	127
219.20721088435374	219.3465306122449	67	127
219.3465306122449	219.52068027210885	86	127
219.3465306122449	219.46263038548753	65	127
219.3465306122449	219.4974603174603	53	127
219.52068027210885	219.93863945578232	65	127
219.52068027210885	219.93863945578232	53	127
219.52068027210885	219.99668934240364	69	127
219.52068027210885	220.0431292517007	89	127
220.05473922902493	220.21727891156462	53	127
220.05473922902493	220.21727891156462	41	127
220.6352380952381	220.71650793650792	60	127
220.762947845805	220.8558276643991	62	127
220.91387755102042	220.98353741496598	74	127
220.91387755102042	220.98353741496598	81	127
220.91387755102042	221.06480725623584	65	127
221.0415873015873	221.14607709750567	81	127
221.0415873015873	221.14607709750567	74	127
221.18090702947845	221.2621768707483	81	127
221.18090702947845	221.2621768707483	74	127
221.45954648526077	221.52920634920636	60	127
221.5756462585034	221.65691609977324	62	127
221.72657596371883	221.81945578231293	72	127
221.72657596371883	221.81945578231293	65	127
221.72657596371883	221.88911564625852	57	127
221.86589569160998	221.9471655328798	72	127
221.86589569160998	221.9471655328798	65	127
222.0168253968254	222.09809523809523	72	127
222.0168253968254	222.09809523809523	65	127
222.31868480725623	222.3999546485261	48	127
222.46961451247165	222.5508843537415	50	127
222.59732426303856	222.69020408163266	62	127
222.59732426303856	222.69020408163266	69	127
222.59732426303856	222.7714739229025	53	127
222.7366439909297	222.81791383219954	69	127
222.7366439909297	222.81791383219954	62	127
222.88757369614513	222.98045351473922	62	127
222.88757369614513	222.98045351473922	69	127
223.25909297052155	223.35197278911565	48	127
223.41002267573697	223.50290249433107	50	127
223.53773242630385	223.6190022675737	53	127
223.53773242630385	223.6190022675737	60	127
223.53773242630385	223.72349206349207	45	127
223.67705215419502	223.8047619047619	60	127
223.67705215419502	223.8047619047619	53	127
223.8744217687075	223.9905215419501	53	127
223.8744217687075	223.9905215419501	60	127
224.17628117913833	224.4665306122449	45	127
224.17628117913833	224.2807709750567	72	127
224.17628117913833	224.2807709750567	53	127
224.32721088435375	224.40848072562358	53	127
224.32721088435375	224.40848072562358	74	127
224.4665306122449	224.54780045351475	84	127
224.4665306122449	224.54780045351475	53	127
224.4665306122449	224.72195011337868	41	127
224.4665306122449	224.72195011337868	69	127
224.64068027210885	224.72195011337868	53	127
224.64068027210885	224.72195011337868	86	127
224.76839002267573	224.86126984126983	57	127
224.76839002267573	224.97736961451247	89	127
224.86126984126983	224.93092970521542	53	127
224.86126984126983	224.93092970521542	36	127
224.97736961451247	225.26761904761904	36	127
224.97736961451247	225.05863945578233	72	127
224.97736961451247	225.05863945578233	53	127
225.11668934240362	225.19795918367348	53	127
225.11668934240362	225.19795918367348	74	127
225.26761904761904	225.36049886621316	84	127
225.26761904761904	225.36049886621316	53	127
225.26761904761904	225.4069387755102	43	127
225.26761904761904	225.5346485260771	69	127
225.4069387755102	225.5346485260771	53	127
225.4069387755102	225.55786848072563	41	127
225.4069387755102	225.5346485260771	86	127
225.6275283446712	225.87133786848074	89	127
225.6275283446712	225.73201814058956	57	127
225.73201814058956	225.81328798185942	41	127
225.73201814058956	225.81328798185942	53	127
225.87133786848074	225.9409977324263	53	127
225.87133786848074	225.9409977324263	72	127
225.87133786848074	226.19641723356008	45	127
226.04548752834467	226.14997732426303	74	127
226.04548752834467	226.14997732426303	53	127
226.19641723356008	226.27768707482994	84	127
226.19641723356008	226.27768707482994	53	127
226.19641723356008	226.4170068027211	69	127
226.19641723356008	226.46344671201814	41	127
226.33573696145126	226.4170068027211	86	127
226.33573696145126	226.4170068027211	53	127
226.46344671201814	226.59115646258505	40	127
226.46344671201814	226.59115646258505	57	127
226.46344671201814	226.7304761904762	89	127
226.59115646258505	226.7304761904762	38	127
226.59115646258505	226.67242630385488	53	127
226.7304761904762	226.9742857142857	57	127
226.7304761904762	226.81174603174603	72	127
226.7304761904762	227.07877551020408	41	127
226.9742857142857	227.07877551020408	53	127
226.9742857142857	227.07877551020408	74	127
227.14843537414967	227.36902494331065	69	127
227.14843537414967	227.2297052154195	84	127
227.14843537414967	227.2297052154195	53	127
227.28775510204082	227.36902494331065	53	127
227.28775510204082	227.36902494331065	86	127
227.4154648526077	227.58961451247166	41	127
227.4154648526077	227.69410430839002	89	127
227.4154648526077	227.56639455782312	57	127
227.56639455782312	227.64766439909297	53	127
227.69410430839002	227.77537414965985	72	127
227.69410430839002	227.77537414965985	53	127
227.69410430839002	227.9843537414966	45	127
227.84503401360544	227.92630385487527	74	127
227.84503401360544	227.92630385487527	53	127
227.9843537414966	228.2746031746032	41	127
227.9843537414966	228.1120634920635	84	127
227.9843537414966	228.1120634920635	53	127
227.9843537414966	228.2746031746032	69	127
228.19333333333333	228.2746031746032	53	127
228.19333333333333	228.2746031746032	86	127
228.33265306122448	228.55324263038548	89	127
228.33265306122448	228.4255328798186	57	127
228.4255328798186	228.50680272108843	36	127
228.4255328798186	228.50680272108843	53	127
228.55324263038548	228.90154195011337	36	127
228.55324263038548	228.65773242630385	72	127
228.55324263038548	228.65773242630385	53	127
228.72739229024944	228.85510204081632	53	127
228.72739229024944	228.85510204081632	74	127
228.90154195011337	229.13374149659865	69	127
228.90154195011337	228.9944217687075	53	127
228.90154195011337	229.06408163265306	43	127
228.90154195011337	228.9944217687075	84	127
229.06408163265306	229.13374149659865	86	127
229.06408163265306	229.13374149659865	53	127
229.06408163265306	229.2034013605442	41	127
229.22662131519274	229.50526077097507	89	127
229.22662131519274	229.35433106575962	57	127
229.35433106575962	229.44721088435375	53	127
229.35433106575962	229.44721088435375	41	127
229.50526077097507	229.6097505668934	72	127
229.50526077097507	229.6097505668934	53	127
229.50526077097507	229.8419501133787	45	127
229.69102040816327	229.78390022675737	53	127
229.69102040816327	229.78390022675737	74	127
229.8419501133787	230.13219954648525	41	127
229.8419501133787	229.92321995464852	53	127
229.8419501133787	229.9928798185941	84	127
229.8419501133787	230.07414965986393	69	127
229.9928798185941	230.07414965986393	53	127
229.9928798185941	230.13219954648525	86	127
230.13219954648525	230.25990929705216	67	127
230.13219954648525	230.28312925170067	55	127
230.13219954648525	230.28312925170067	40	127
230.13219954648525	230.3992290249433	82	127
230.28312925170067	230.3992290249433	53	127
230.28312925170067	230.4340589569161	65	127
230.28312925170067	230.4688888888889	38	127
230.4688888888889	231.14226757369613	41	127
230.4688888888889	230.77074829931973	81	127
230.4688888888889	230.8404081632653	65	127
230.4688888888889	230.8404081632653	48	127
230.91006802721088	231.14226757369613	77	127
232.04784580498867	232.59351473922902	72	127
232.04784580498867	232.59351473922902	69	127
232.04784580498867	232.59351473922902	65	127
232.04784580498867	232.59351473922902	60	127
232.04784580498867	232.59351473922902	53	127
232.59351473922902	233.09274376417233	62	127
232.59351473922902	233.30172335600906	77	127
232.59351473922902	233.4874829931973	65	127
232.59351473922902	233.4874829931973	69	127
232.59351473922902	233.4874829931973	50	127
233.09274376417233	233.5107029478458	53	127
233.30172335600906	233.52231292517007	74	127
233.53392290249434	234.35823129251702	57	127
233.53392290249434	233.9518820861678	69	127
233.53392290249434	233.9518820861678	65	127
233.53392290249434	233.9518820861678	53	127
233.53392290249434	233.7312925170068	72	127
233.7312925170068	233.9518820861678	74	127
233.9518820861678	234.33501133786848	77	127
233.9518820861678	234.68331065759637	65	127
233.9518820861678	234.68331065759637	69	127
233.9518820861678	234.68331065759637	50	127
234.35823129251702	234.69492063492063	62	127
234.71814058956917	235.10126984126984	69	127
234.71814058956917	235.10126984126984	72	127
234.71814058956917	235.10126984126984	65	127
234.71814058956917	235.10126984126984	60	127
234.71814058956917	235.10126984126984	53	127
235.10126984126984	235.48439909297053	62	127
235.10126984126984	235.681768707483	77	127
235.10126984126984	235.8443083900227	65	127
235.10126984126984	235.8443083900227	69	127
235.10126984126984	235.8443083900227	50	127
235.48439909297053	235.8675283446712	53	127
235.681768707483	235.87913832199547	74	127
235.87913832199547	236.11133786848072	72	127
235.87913832199547	236.11133786848072	65	127
235.87913832199547	236.33192743764172	50	127
235.87913832199547	236.33192743764172	69	127
235.87913832199547	236.33192743764172	65	127
236.11133786848072	236.33192743764172	74	127
236.11133786848072	236.33192743764172	62	127
236.33192743764172	236.7731065759637	69	127
236.33192743764172	237.20267573696145	65	127
236.33192743764172	237.20267573696145	69	127
236.33192743764172	237.20267573696145	60	127
236.33192743764172	237.20267573696145	53	127
237.29555555555555	237.6902947845805	65	127
237.29555555555555	237.40004535147392	72	127
237.29555555555555	237.6902947845805	57	127
237.29555555555555	238.7235827664399	48	127
237.40004535147392	237.49292517006802	74	127
237.49292517006802	237.5974149659864	72	127
237.5974149659864	237.6902947845805	74	127
237.6902947845805	238.154693877551	67	127
237.6902947845805	237.80639455782313	72	127
237.6902947845805	238.49138321995466	58	127
237.80639455782313	237.92249433106576	74	127
237.92249433106576	238.0385941043084	72	127
238.0385941043084	238.154693877551	74	127
238.154693877551	238.27079365079365	72	127
238.154693877551	238.49138321995466	62	127
238.27079365079365	238.49138321995466	74	127
238.49138321995466	238.64231292517007	72	127
238.49138321995466	238.7235827664399	64	127
238.49138321995466	238.7235827664399	55	127
238.64231292517007	238.77002267573695	74	127
238.77002267573695	238.8861224489796	72	127
238.77002267573695	239.1995918367347	57	127
238.77002267573695	239.1995918367347	65	127
238.77002267573695	240.24448979591835	48	127
238.8861224489796	238.99061224489796	74	127
238.99061224489796	239.09510204081633	72	127
239.09510204081633	239.1995918367347	74	127
239.1995918367347	239.31569160997734	72	127
239.1995918367347	239.66399092970522	67	127
239.1995918367347	239.98907029478457	58	127
239.31569160997734	239.45501133786848	74	127
239.45501133786848	239.57111111111112	72	127
239.57111111111112	239.66399092970522	74	127
239.66399092970522	239.8265306122449	72	127
239.66399092970522	239.98907029478457	62	127
239.8265306122449	239.98907029478457	74	127
239.98907029478457	240.2328798185941	64	127
239.98907029478457	240.2328798185941	55	127
239.98907029478457	240.14	72	127
240.14	240.27931972789116	74	127
240.27931972789116	240.44185941043085	72	127
240.27931972789116	243.3095238095238	48	127
240.27931972789116	241.12684807256235	65	127
240.27931972789116	241.12684807256235	57	127
240.44185941043085	240.56956916099773	74	127
240.56956916099773	240.70888888888888	72	127
240.70888888888888	241.12684807256235	74	127
241.12684807256235	241.77700680272108	67	127
241.12684807256235	241.31260770975058	72	127
241.12684807256235	242.34589569160997	58	127
241.31260770975058	241.47514739229024	74	127
241.47514739229024	241.62607709750566	72	127
241.62607709750566	241.77700680272108	74	127
241.77700680272108	242.1485260770975	72	127
241.77700680272108	242.34589569160997	62	127
242.1485260770975	242.34589569160997	74	127
242.34589569160997	242.4968253968254	71	127
242.34589569160997	243.27469387755102	64	127
242.34589569160997	243.27469387755102	55	127
242.4968253968254	243.41401360544216	72	127
243.41401360544216	244.15705215419501	72	127
243.41401360544216	245.37609977324263	57	127
243.41401360544216	245.4109297052154	65	127
243.41401360544216	247.0827664399093	41	127
244.15705215419501	244.52857142857144	74	127
244.52857142857144	245.06263038548752	72	127
245.06263038548752	245.4109297052154	67	127
245.4109297052154	247.55877551020407	65	127
245.4109297052154	247.05954648526077	57	127
245.4109297052154	247.05954648526077	60	127
