# onset,offset,note,velocity
0.20820861678004535	0.39396825396825397	53	127
0.20820861678004535	0.39396825396825397	57	127
0.41718820861678	0.4636281179138322	57	127
0.41718820861678	0.4636281179138322	53	127
0.5100680272108844	0.6261678004535147	53	127
0.5100680272108844	0.6261678004535147	57	127
0.707437641723356	1.0209070294784581	57	127
0.707437641723356	1.0209070294784581	53	127
1.1021768707482993	1.2182539682539681	57	127
1.1021768707482993	1.2182539682539681	53	127
1.299546485260771	1.4040362811791383	57	127
1.299546485260771	1.4040362811791383	53	127
1.4853061224489796	1.60140589569161	57	127
1.4853061224489796	1.60140589569161	53	127
1.6826757369614513	1.914875283446712	57	127
1.6826757369614513	1.914875283446712	53	127
1.9497052154195011	1.9961451247165534	57	127
1.9497052154195011	1.9961451247165534	53	127
2.0425850340136056	2.1586848072562357	57	127
2.0425850340136056	2.1586848072562357	53	127
2.216734693877551	2.472154195011338	57	127
2.216734693877551	2.472154195011338	53	127
2.553424036281179	2.6695238095238096	57	127
2.553424036281179	2.6695238095238096	53	127
2.750793650793651	2.8668934240362813	57	127
2.750793650793651	2.8668934240362813	53	127
2.9481632653061225	3.064263038548753	57	127
2.9481632653061225	3.064263038548753	53	127
3.145532879818594	3.366122448979592	57	127
3.145532879818594	3.366122448979592	72	127
3.145532879818594	3.366122448979592	53	127
3.424172335600907	3.482222222222222	57	127
3.424172335600907	3.482222222222222	74	127
3.424172335600907	3.482222222222222	53	127
3.5170521541950115	3.6215419501133788	57	127
3.5170521541950115	3.6215419501133788	77	127
3.5170521541950115	3.6215419501133788	53	127
3.70281179138322	3.993061224489796	53	127
3.70281179138322	3.807301587301587	74	127
3.70281179138322	3.993061224489796	57	127
3.8769614512471655	3.993061224489796	72	127
4.074308390022676	4.190430839002268	69	127
4.074308390022676	4.190430839002268	57	127
4.074308390022676	4.190430839002268	53	127
4.271700680272109	4.387800453514739	53	127
4.271700680272109	4.387800453514739	65	127
4.271700680272109	4.387800453514739	57	127
4.457460317460318	4.573560090702948	57	127
4.457460317460318	4.573560090702948	62	127
4.457460317460318	4.573560090702948	53	127
4.631609977324263	4.852199546485261	57	127
4.631609977324263	4.852199546485261	62	127
4.631609977324263	4.852199546485261	53	127
4.910249433106576	4.968299319727891	57	127
4.910249433106576	4.968299319727891	62	127
4.910249433106576	4.968299319727891	53	127
5.0147392290249435	5.130839002267574	57	127
5.0147392290249435	5.130839002267574	62	127
5.0147392290249435	5.130839002267574	53	127
5.212108843537415	5.513968253968254	57	127
5.212108843537415	5.3165986394557825	62	127
5.212108843537415	5.513968253968254	53	127
5.397868480725624	5.513968253968254	62	127
5.595215419501134	5.711337868480726	57	127
5.595215419501134	5.711337868480726	62	127
5.595215419501134	5.711337868480726	53	127
5.792607709750567	5.908707482993197	57	127
5.792607709750567	5.908707482993197	62	127
5.792607709750567	5.908707482993197	53	127
5.989977324263038	6.106077097505669	57	127
5.989977324263038	6.106077097505669	72	127
5.989977324263038	6.106077097505669	53	127
6.1873469387755105	6.361496598639456	57	127
6.1873469387755105	6.361496598639456	72	127
6.1873469387755105	6.361496598639456	53	127
6.419546485260771	6.4543764172335605	57	127
6.419546485260771	6.4543764172335605	74	127
6.419546485260771	6.4543764172335605	53	127
6.500816326530612	6.6053061224489795	77	127
6.500816326530612	6.6053061224489795	57	127
6.500816326530612	6.6053061224489795	53	127
6.686575963718821	6.918775510204082	57	127
6.686575963718821	6.802675736961452	74	127
6.686575963718821	6.918775510204082	53	127
6.825895691609977	6.918775510204082	72	127
6.98843537414966	7.092925170068027	53	127
6.98843537414966	7.092925170068027	57	127
6.98843537414966	7.092925170068027	69	127
7.1741950113378685	7.267074829931973	57	127
7.1741950113378685	7.267074829931973	65	127
7.1741950113378685	7.267074829931973	53	127
7.348344671201814	7.464444444444444	57	127
7.348344671201814	7.464444444444444	62	127
7.348344671201814	7.464444444444444	53	127
7.545714285714285	7.754693877551021	57	127
7.545714285714285	7.754693877551021	62	127
7.545714285714285	7.754693877551021	53	127
7.812743764172335	7.870793650793651	57	127
7.812743764172335	7.870793650793651	62	127
7.812743764172335	7.870793650793651	53	127
7.917233560090703	8.02172335600907	57	127
7.917233560090703	8.02172335600907	62	127
7.917233560090703	8.02172335600907	53	127
8.102993197278911	8.416462585034013	57	127
8.102993197278911	8.219092970521542	62	127
8.102993197278911	8.416462585034013	53	127
8.300340136054421	8.416462585034013	62	127
8.497732426303855	8.613832199546485	57	127
8.497732426303855	8.613832199546485	62	127
8.497732426303855	8.613832199546485	53	127
8.729931972789116	8.846031746031747	57	127
8.729931972789116	8.846031746031747	62	127
8.729931972789116	8.846031746031747	53	127
8.927301587301587	9.043401360544218	57	127
8.927301587301587	9.043401360544218	72	127
8.927301587301587	9.043401360544218	53	127
9.124648526077097	9.35687074829932	53	127
9.124648526077097	9.35687074829932	72	127
9.124648526077097	9.35687074829932	57	127
9.414920634920636	9.461360544217687	74	127
9.414920634920636	9.461360544217687	57	127
9.414920634920636	9.461360544217687	53	127
9.484580498866213	9.577460317460318	53	127
9.484580498866213	9.577460317460318	77	127
9.484580498866213	9.577460317460318	57	127
9.658730158730158	9.948956916099773	53	127
9.658730158730158	9.763219954648527	74	127
9.658730158730158	9.948956916099773	57	127
9.832879818594105	10.088299319727891	50	127
9.832879818594105	9.948956916099773	72	127
10.030249433106576	10.15795918367347	57	127
10.030249433106576	10.15795918367347	69	127
10.030249433106576	10.15795918367347	53	127
10.239229024943311	10.343718820861678	57	127
10.239229024943311	10.343718820861678	65	127
10.239229024943311	10.343718820861678	53	127
10.401768707482994	10.483038548752834	53	127
10.401768707482994	10.483038548752834	62	127
10.401768707482994	10.483038548752834	57	127
10.401768707482994	10.494648526077098	50	127
10.564308390022676	10.784897959183674	53	127
10.564308390022676	10.784897959183674	72	127
10.564308390022676	10.784897959183674	57	127
10.564308390022676	10.8081179138322	48	127
10.84294784580499	10.900975056689342	57	127
10.84294784580499	10.900975056689342	74	127
10.84294784580499	10.900975056689342	53	127
10.947437641723356	11.051927437641723	57	127
10.947437641723356	11.051927437641723	77	127
10.947437641723356	11.051927437641723	53	127
11.133197278911565	11.435056689342403	53	127
11.133197278911565	11.237687074829932	74	127
11.133197278911565	11.435056689342403	57	127
11.318956916099774	11.551156462585034	48	127
11.318956916099774	11.435056689342403	72	127
11.493106575963719	11.60920634920635	69	127
11.493106575963719	11.60920634920635	53	127
11.493106575963719	11.60920634920635	57	127
11.690453514739229	11.80657596371882	57	127
11.690453514739229	11.80657596371882	65	127
11.690453514739229	11.80657596371882	53	127
11.899455782312925	12.015555555555556	48	127
11.899455782312925	12.003945578231292	57	127
11.899455782312925	12.003945578231292	62	127
11.899455782312925	12.003945578231292	53	127
12.07360544217687	12.305804988662132	53	127
12.07360544217687	12.305804988662132	72	127
12.07360544217687	12.305804988662132	57	127
12.07360544217687	12.305804988662132	46	127
12.363854875283447	12.421904761904761	57	127
12.363854875283447	12.421904761904761	74	127
12.363854875283447	12.421904761904761	53	127
12.468344671201814	12.572834467120181	53	127
12.468344671201814	12.561224489795919	77	127
12.468344671201814	12.572834467120181	57	127
12.468344671201814	12.688934240362812	45	127
12.654104308390023	12.75859410430839	74	127
12.654104308390023	12.770204081632652	57	127
12.654104308390023	12.770204081632652	53	127
12.851473922902494	13.072063492063492	65	127
12.851473922902494	12.955963718820861	57	127
12.851473922902494	13.072063492063492	72	127
12.851473922902494	13.072063492063492	45	127
13.037233560090703	13.14172335600907	57	127
13.130113378684808	13.176553287981859	74	127
13.130113378684808	13.176553287981859	65	127
13.222993197278912	13.327482993197279	55	127
13.222993197278912	13.315873015873017	77	127
13.222993197278912	13.327482993197279	65	127
13.222993197278912	13.44358276643991	47	127
13.408752834467121	13.513242630385488	74	127
13.408752834467121	13.849931972789115	65	127
13.408752834467121	13.52485260770975	55	127
13.606122448979592	13.849931972789115	48	127
13.606122448979592	13.733832199546486	57	127
13.606122448979592	13.849931972789115	72	127
13.815102040816326	13.94281179138322	57	127
13.919591836734694	13.977641723356008	74	127
13.919591836734694	13.977641723356008	65	127
14.035691609977324	14.140181405895692	77	127
14.035691609977324	14.140181405895692	65	127
14.035691609977324	14.140181405895692	55	127
14.035691609977324	14.244671201814059	47	127
14.221451247165533	14.3259410430839	55	127
14.221451247165533	14.314331065759637	74	127
14.221451247165533	14.604580498866213	65	127
14.383990929705215	14.500090702947846	62	127
14.383990929705215	14.500090702947846	77	127
14.383990929705215	14.604580498866213	47	127
14.383990929705215	14.500090702947846	55	127
14.581360544217688	14.67424036281179	55	127
14.581360544217688	14.67424036281179	74	127
14.651020408163266	14.709070294784581	65	127
14.755510204081633	14.883219954648526	62	127
14.755510204081633	14.883219954648526	77	127
14.755510204081633	14.883219954648526	65	127
14.755510204081633	14.883219954648526	55	127
14.755510204081633	14.987709750566893	47	127
14.952879818594104	15.068979591836735	65	127
14.952879818594104	15.068979591836735	74	127
14.952879818594104	15.068979591836735	55	127
15.115419501133786	15.219909297052155	57	127
15.115419501133786	15.219909297052155	77	127
15.115419501133786	15.219909297052155	65	127
15.115419501133786	15.231519274376417	48	127
15.301179138321995	15.417278911564626	69	127
15.301179138321995	15.417278911564626	72	127
15.301179138321995	15.417278911564626	53	127
15.498548752834466	15.800408163265306	60	127
15.498548752834466	15.59142857142857	70	127
15.498548752834466	15.59142857142857	67	127
15.498548752834466	15.603038548752835	48	127
15.684308390022675	15.800408163265306	67	127
15.684308390022675	15.800408163265306	65	127
15.684308390022675	15.812018140589569	36	127
15.881678004535148	15.997777777777777	65	127
15.881678004535148	16.00938775510204	48	127
15.881678004535148	15.997777777777777	77	127
15.881678004535148	15.997777777777777	57	127
16.079024943310657	16.19514739229025	69	127
16.079024943310657	16.19514739229025	72	127
16.079024943310657	16.19514739229025	53	127
16.276394557823128	16.39251700680272	48	127
16.276394557823128	16.380907029478458	70	127
16.276394557823128	16.380907029478458	67	127
16.276394557823128	16.555056689342404	60	127
16.438956916099773	16.555056689342404	67	127
16.438956916099773	16.555056689342404	65	127
16.438956916099773	16.566666666666666	36	127
16.624716553287982	16.740816326530613	65	127
16.624716553287982	16.740816326530613	77	127
16.624716553287982	16.740816326530613	57	127
16.624716553287982	16.752426303854875	48	127
16.81047619047619	16.903333333333332	53	127
16.81047619047619	16.903333333333332	72	127
16.81047619047619	16.903333333333332	69	127
16.97299319727891	17.07750566893424	48	127
16.97299319727891	17.07750566893424	70	127
16.97299319727891	17.26326530612245	60	127
16.97299319727891	17.07750566893424	67	127
17.147165532879818	17.26326530612245	65	127
17.147165532879818	17.26326530612245	67	127
17.147165532879818	17.27487528344671	36	127
17.34453514739229	17.46063492063492	57	127
17.34453514739229	17.46063492063492	77	127
17.34453514739229	17.46063492063492	65	127
17.34453514739229	17.46063492063492	48	127
17.530294784580498	17.634784580498867	69	127
17.530294784580498	17.634784580498867	72	127
17.530294784580498	17.634784580498867	53	127
17.716054421768707	17.983061224489795	60	127
17.716054421768707	17.832154195011338	70	127
17.716054421768707	17.832154195011338	67	127
17.716054421768707	17.8437641723356	48	127
17.87859410430839	17.983061224489795	67	127
17.87859410430839	17.983061224489795	65	127
17.87859410430839	17.994693877551022	36	127
18.0643537414966	18.389433106575964	41	127
18.0643537414966	18.168843537414965	72	127
18.0643537414966	18.168843537414965	69	127
18.0643537414966	18.389433106575964	65	127
18.273333333333333	18.377823129251702	65	127
18.273333333333333	18.377823129251702	69	127
18.459092970521542	18.56358276643991	65	127
18.459092970521542	18.56358276643991	57	127
18.656462585034014	18.760952380952382	60	127
18.656462585034014	18.760952380952382	60	127
18.865442176870747	18.969931972789116	69	127
18.865442176870747	18.969931972789116	72	127
19.051201814058956	19.155691609977325	69	127
19.051201814058956	19.155691609977325	65	127
19.248571428571427	19.353061224489796	65	127
19.248571428571427	19.353061224489796	57	127
19.434331065759636	19.538820861678005	60	127
19.434331065759636	19.538820861678005	60	127
19.620090702947845	19.724580498866214	72	127
19.620090702947845	19.724580498866214	69	127
19.817460317460316	19.921950113378685	69	127
19.817460317460316	19.921950113378685	65	127
20.014807256235827	20.13092970521542	65	127
20.014807256235827	20.13092970521542	57	127
20.223809523809525	20.339909297052156	60	127
20.223809523809525	20.339909297052156	60	127
20.43278911564626	20.537278911564627	72	127
20.43278911564626	20.537278911564627	69	127
20.63015873015873	20.723038548752836	69	127
20.63015873015873	20.723038548752836	65	127
20.81591836734694	20.908798185941045	65	127
20.81591836734694	20.908798185941045	57	127
21.001678004535147	21.09453514739229	60	127
21.001678004535147	21.09453514739229	60	127
21.187437641723356	21.535714285714285	81	127
21.187437641723356	21.291927437641725	72	127
21.187437641723356	21.291927437641725	69	127
21.361587301587303	21.454467120181405	69	127
21.361587301587303	21.454467120181405	65	127
21.535714285714285	21.640226757369614	57	127
21.535714285714285	21.640226757369614	65	127
21.535714285714285	21.663424036281178	84	127
21.709886621315192	21.8027664399093	60	127
21.709886621315192	21.8027664399093	60	127
21.8956462585034	22.00013605442177	72	127
21.8956462585034	22.00013605442177	69	127
22.093015873015872	22.19750566893424	69	127
22.093015873015872	22.19750566893424	65	127
22.290385487528344	22.394875283446712	65	127
22.290385487528344	22.394875283446712	57	127
22.476145124716552	22.58063492063492	60	127
22.476145124716552	22.58063492063492	60	127
22.673514739229024	23.03342403628118	81	127
22.673514739229024	22.778004535147392	72	127
22.673514739229024	22.778004535147392	69	127
22.870861678004534	22.975374149659864	69	127
22.870861678004534	22.975374149659864	65	127
23.03342403628118	23.11469387755102	57	127
23.03342403628118	23.11469387755102	65	127
23.03342403628118	23.161133786848072	84	127
23.207573696145126	23.31204081632653	60	127
23.207573696145126	23.31204081632653	60	127
23.404943310657597	23.509433106575965	72	127
23.404943310657597	23.509433106575965	69	127
23.602312925170068	23.706802721088437	69	127
23.602312925170068	23.706802721088437	65	127
23.79968253968254	23.904172335600908	65	127
23.79968253968254	23.904172335600908	57	127
23.99705215419501	24.089931972789117	60	127
23.99705215419501	24.089931972789117	60	127
24.159591836734695	24.275691609977326	65	127
24.159591836734695	24.275691609977326	57	127
24.345351473922904	24.461451247165535	60	127
24.345351473922904	24.461451247165535	60	127
24.542721088435375	24.635600907029477	69	127
24.542721088435375	24.635600907029477	72	127
24.542721088435375	24.76331065759637	84	127
24.693650793650793	24.7865306122449	65	127
24.693650793650793	24.7865306122449	69	127
24.76331065759637	24.86780045351474	86	127
24.86780045351474	24.98390022675737	65	127
24.86780045351474	24.98390022675737	84	127
24.86780045351474	24.98390022675737	57	127
25.06517006802721	25.18126984126984	60	127
25.06517006802721	25.18126984126984	81	127
25.06517006802721	25.18126984126984	60	127
25.262539682539682	25.378639455782313	77	127
25.262539682539682	25.378639455782313	72	127
25.262539682539682	25.378639455782313	69	127
25.459909297052153	25.576009070294784	65	127
25.459909297052153	25.576009070294784	74	127
25.459909297052153	25.576009070294784	69	127
25.657278911564624	25.773378684807255	65	127
25.657278911564624	25.773378684807255	72	127
25.657278911564624	25.773378684807255	57	127
25.854648526077096	25.970748299319727	60	127
25.854648526077096	25.970748299319727	69	127
25.854648526077096	25.970748299319727	60	127
26.05201814058957	26.342267573696144	72	127
26.05201814058957	26.144897959183673	72	127
26.05201814058957	26.144897959183673	69	127
26.156507936507936	26.260997732426304	69	127
26.156507936507936	26.260997732426304	65	127
26.342267573696144	26.458367346938775	69	127
26.342267573696144	26.458367346938775	72	127
26.342267573696144	26.539637188208616	69	127
26.539637188208616	26.655736961451247	69	127
26.539637188208616	26.655736961451247	65	127
26.737006802721087	26.853106575963718	65	127
26.737006802721087	26.853106575963718	57	127
26.934376417233562	27.05047619047619	60	127
26.934376417233562	27.05047619047619	60	127
26.934376417233562	27.131746031746033	77	127
27.131746031746033	27.24784580498866	70	127
27.131746031746033	27.24784580498866	79	127
27.131746031746033	27.24784580498866	62	127
27.329115646258504	27.445215419501135	65	127
27.329115646258504	27.421995464852607	77	127
27.329115646258504	27.445215419501135	65	127
27.526485260770976	27.990884353741496	74	127
27.526485260770976	27.630975056689344	74	127
27.526485260770976	27.630975056689344	70	127
27.66580498866213	27.781904761904762	70	127
27.66580498866213	27.781904761904762	65	127
27.863174603174603	27.95605442176871	70	127
27.863174603174603	27.95605442176871	74	127
28.03732426303855	28.141814058956918	70	127
28.03732426303855	28.141814058956918	65	127
28.03732426303855	28.223083900226758	72	127
28.223083900226758	28.397233560090704	70	127
28.223083900226758	28.33918367346939	65	127
28.223083900226758	28.33918367346939	62	127
28.397233560090704	28.513333333333332	58	127
28.397233560090704	28.513333333333332	62	127
28.397233560090704	28.548163265306123	77	127
28.594603174603176	28.966122448979593	72	127
28.594603174603176	28.710702947845807	65	127
28.594603174603176	28.710702947845807	57	127
28.791972789115647	28.896462585034012	60	127
28.791972789115647	28.896462585034012	60	127
28.966122448979593	29.08222222222222	69	127
28.966122448979593	29.08222222222222	72	127
28.966122448979593	29.11705215419501	69	127
29.163492063492065	29.279591836734692	69	127
29.163492063492065	29.279591836734692	65	127
29.38408163265306	29.50018140589569	65	127
29.38408163265306	29.50018140589569	57	127
29.593061224489794	29.697551020408163	60	127
29.593061224489794	29.697551020408163	60	127
29.778820861678003	29.83687074829932	69	127
29.778820861678003	29.83687074829932	72	127
29.778820861678003	29.918140589569163	84	127
29.83687074829932	29.941360544217687	65	127
29.83687074829932	29.941360544217687	69	127
29.918140589569163	30.022630385487528	86	127
30.022630385487528	30.13873015873016	65	127
30.022630385487528	30.13873015873016	84	127
30.022630385487528	30.13873015873016	57	127
30.22	30.33609977324263	60	127
30.22	30.33609977324263	81	127
30.22	30.33609977324263	60	127
30.41736961451247	30.498639455782314	72	127
30.41736961451247	30.498639455782314	77	127
30.41736961451247	30.498639455782314	69	127
30.579909297052154	30.684399092970523	74	127
30.579909297052154	30.684399092970523	69	127
30.579909297052154	30.684399092970523	65	127
30.765668934240363	30.881768707482994	72	127
30.765668934240363	30.881768707482994	65	127
30.765668934240363	30.881768707482994	57	127
30.963038548752834	31.067528344671203	60	127
30.963038548752834	31.067528344671203	69	127
30.963038548752834	31.067528344671203	60	127
31.13718820861678	31.543537414965986	72	127
31.13718820861678	31.253287981859412	72	127
31.13718820861678	31.253287981859412	69	127
31.334557823129252	31.462267573696145	69	127
31.334557823129252	31.462267573696145	65	127
31.543537414965986	31.659637188208617	69	127
31.543537414965986	31.659637188208617	72	127
31.543537414965986	31.845396825396826	69	127
31.740907029478457	31.845396825396826	69	127
31.740907029478457	31.845396825396826	65	127
31.949886621315194	32.065986394557825	57	127
31.949886621315194	32.065986394557825	65	127
32.14725623582766	32.26335600907029	45	127
32.14725623582766	32.25174603174603	60	127
32.14725623582766	32.25174603174603	60	127
32.14725623582766	32.333015873015874	77	127
32.333015873015874	32.54197278911565	76	127
32.333015873015874	32.379455782312924	64	127
32.333015873015874	32.43750566893424	59	127
32.333015873015874	32.449115646258505	44	127
32.379455782312924	32.63487528344671	71	127
32.50716553287982	32.63487528344671	40	127
32.50716553287982	32.62326530612245	56	127
32.60004535147392	32.65807256235828	77	127
32.70453514739229	32.983174603174604	74	127
32.70453514739229	32.82063492063492	76	127
32.70453514739229	32.82063492063492	59	127
32.70453514739229	32.832244897959185	44	127
32.878684807256235	32.983174603174604	71	127
32.878684807256235	32.994784580498866	40	127
32.878684807256235	32.983174603174604	64	127
33.06444444444445	33.180521541950114	45	127
33.06444444444445	33.16891156462585	60	127
33.06444444444445	33.27342403628118	76	127
33.06444444444445	33.644943310657595	76	127
33.23859410430839	33.35469387755102	57	127
33.23859410430839	33.366303854875284	40	127
33.3314739229025	33.38952380952381	77	127
33.435963718820865	33.55204081632653	76	127
33.435963718820865	33.55204081632653	60	127
33.435963718820865	33.56367346938776	45	127
33.644943310657595	33.77265306122449	40	127
33.644943310657595	33.761043083900226	72	127
33.644943310657595	33.761043083900226	64	127
33.644943310657595	33.79587301587301	69	127
33.84231292517007	34.07451247165533	76	127
33.84231292517007	33.9584126984127	59	127
33.84231292517007	33.97002267573696	44	127
33.84231292517007	34.15578231292517	71	127
34.03968253968254	34.16739229024943	40	127
34.03968253968254	34.15578231292517	56	127
34.132562358276644	34.190589569161	77	127
34.23705215419501	34.364761904761906	44	127
34.23705215419501	34.353151927437644	76	127
34.23705215419501	34.353151927437644	59	127
34.23705215419501	34.38798185941043	74	127
34.43439909297052	34.62018140589569	40	127
34.43439909297052	34.60857142857143	71	127
34.43439909297052	34.60857142857143	64	127
34.43439909297052	34.64340136054422	68	127
34.68981859410431	34.86399092970522	57	127
34.68981859410431	34.8059410430839	69	127
34.68981859410431	34.86399092970522	64	127
34.68981859410431	34.86399092970522	57	127
34.68981859410431	34.86399092970522	69	127
34.68981859410431	34.86399092970522	57	127
34.68981859410431	34.86399092970522	45	127
34.68981859410431	34.86399092970522	52	127
34.898820861678004	35.00331065759637	64	127
35.08458049886622	35.281950113378684	57	127
35.08458049886622	35.2471201814059	69	127
35.08458049886622	35.281950113378684	64	127
35.08458049886622	35.281950113378684	57	127
35.08458049886622	35.281950113378684	69	127
35.08458049886622	35.281950113378684	45	127
35.08458049886622	35.281950113378684	52	127
35.08458049886622	35.281950113378684	57	127
35.32836734693878	35.47931972789116	64	127
35.560589569160996	35.69990929705215	69	127
35.560589569160996	35.734739229024946	64	127
35.560589569160996	35.734739229024946	57	127
35.560589569160996	35.734739229024946	69	127
35.560589569160996	35.734739229024946	57	127
35.560589569160996	35.734739229024946	52	127
35.560589569160996	35.734739229024946	45	127
35.560589569160996	35.734739229024946	57	127
35.79278911564626	35.932108843537414	64	127
36.02498866213152	36.19913832199546	57	127
36.02498866213152	36.15269841269841	69	127
36.02498866213152	36.19913832199546	69	127
36.02498866213152	36.19913832199546	57	127
36.02498866213152	36.19913832199546	64	127
36.02498866213152	36.19913832199546	57	127
36.02498866213152	36.19913832199546	52	127
36.02498866213152	36.19913832199546	45	127
36.24557823129252	36.36167800453515	64	127
36.44294784580499	36.6287074829932	45	127
36.44294784580499	36.59385487528345	57	127
36.44294784580499	36.6287074829932	69	127
36.67514739229025	36.77963718820862	52	127
36.86090702947846	37.02344671201814	45	127
36.86090702947846	36.988616780045355	57	127
36.86090702947846	37.02344671201814	69	127
37.06988662131519	37.1627664399093	52	127
37.24403628117914	37.45301587301587	45	127
37.24403628117914	37.40657596371882	57	127
37.24403628117914	37.45301587301587	69	127
37.49945578231293	37.638775510204084	52	127
37.731632653061226	37.89419501133787	57	127
37.731632653061226	37.89419501133787	69	127
37.998662131519275	38.21927437641723	72	127
37.998662131519275	38.21927437641723	69	127
38.3237641723356	38.451473922902494	72	127
38.3237641723356	38.451473922902494	69	127
38.3237641723356	38.64884353741497	41	127
38.53274376417234	38.64884353741497	65	127
38.53274376417234	38.64884353741497	69	127
38.71850340136054	38.997142857142855	84	127
38.71850340136054	38.834603174603174	65	127
38.71850340136054	38.834603174603174	57	127
38.904263038548756	39.055192743764174	48	127
38.904263038548756	39.02036281179139	60	127
38.904263038548756	39.02036281179139	60	127
38.997142857142855	39.10163265306122	86	127
39.10163265306122	39.333832199546485	53	127
39.10163265306122	39.20612244897959	84	127
39.10163265306122	39.20612244897959	65	127
39.10163265306122	39.20612244897959	57	127
39.22934240362812	39.333832199546485	81	127
39.22934240362812	39.333832199546485	60	127
39.22934240362812	39.333832199546485	60	127
39.41510204081633	39.53120181405896	72	127
39.41510204081633	39.53120181405896	77	127
39.41510204081633	39.53120181405896	69	127
39.6124716553288	39.72857142857143	65	127
39.6124716553288	39.72857142857143	74	127
39.6124716553288	39.72857142857143	69	127
39.6124716553288	39.76337868480726	60	127
39.80984126984127	40.158140589569165	53	127
39.80984126984127	39.9259410430839	72	127
39.80984126984127	39.9259410430839	65	127
39.80984126984127	39.9259410430839	57	127
40.018798185941044	40.158140589569165	69	127
40.018798185941044	40.158140589569165	60	127
40.018798185941044	40.158140589569165	60	127
40.251020408163264	40.65734693877551	72	127
40.251020408163264	40.367120181405895	72	127
40.251020408163264	40.367120181405895	69	127
40.44839002267574	40.56448979591837	69	127
40.44839002267574	40.56448979591837	65	127
40.44839002267574	40.59931972789116	48	127
40.65734693877551	40.93600907029479	69	127
40.65734693877551	40.7734693877551	72	127
40.65734693877551	40.7734693877551	69	127
40.65734693877551	40.93600907029479	41	127
40.84312925170068	40.93600907029479	69	127
40.84312925170068	40.93600907029479	65	127
41.017278911564624	41.086938775510205	57	127
41.017278911564624	41.086938775510205	65	127
41.168185941043085	41.31913832199547	48	127
41.168185941043085	41.284285714285716	60	127
41.168185941043085	41.284285714285716	60	127
41.168185941043085	41.37718820861678	77	127
41.37718820861678	41.49328798185941	79	127
41.37718820861678	41.49328798185941	70	127
41.37718820861678	41.49328798185941	62	127
41.37718820861678	41.690657596371885	41	127
41.574557823129254	41.690657596371885	77	127
41.574557823129254	41.690657596371885	65	127
41.574557823129254	41.690657596371885	65	127
41.77192743764172	42.24793650793651	74	127
41.77192743764172	41.87641723356009	70	127
41.77192743764172	41.87641723356009	74	127
41.94607709750567	42.0621768707483	65	127
41.94607709750567	42.0621768707483	70	127
41.94607709750567	42.09700680272109	46	127
42.13183673469388	42.21310657596372	70	127
42.13183673469388	42.21310657596372	74	127
42.13183673469388	42.41047619047619	41	127
42.29437641723356	42.49174603174603	72	127
42.29437641723356	42.41047619047619	70	127
42.29437641723356	42.41047619047619	65	127
42.49174603174603	42.60784580498866	62	127
42.49174603174603	42.60784580498866	65	127
42.49174603174603	42.68909297052154	70	127
42.68909297052154	42.85165532879819	46	127
42.68909297052154	42.816802721088436	62	127
42.68909297052154	42.816802721088436	58	127
42.68909297052154	42.85165532879819	77	127
42.89809523809524	43.16512471655329	41	127
42.89809523809524	43.01419501133787	65	127
42.89809523809524	43.25800453514739	72	127
42.89809523809524	43.01419501133787	57	127
43.09546485260771	43.16512471655329	60	127
43.09546485260771	43.16512471655329	60	127
43.25800453514739	43.374104308390024	72	127
43.25800453514739	43.374104308390024	69	127
43.25800453514739	43.40893424036281	69	127
43.44374149659864	43.583061224489796	48	127
43.44374149659864	43.54825396825397	69	127
43.44374149659864	43.54825396825397	65	127
43.62952380952381	43.74562358276644	57	127
43.62952380952381	43.74562358276644	65	127
43.62952380952381	43.757233560090704	41	127
43.82687074829932	43.93138321995465	60	127
43.82687074829932	43.93138321995465	60	127
43.82687074829932	43.94299319727891	41	127
44.01265306122449	44.12875283446712	69	127
44.01265306122449	44.12875283446712	72	127
44.01265306122449	44.256462585034015	84	127
44.16358276643991	44.2912925170068	48	127
44.16358276643991	44.27968253968254	69	127
44.16358276643991	44.27968253968254	65	127
44.256462585034015	44.360952380952384	86	127
44.360952380952384	44.46541950113379	57	127
44.360952380952384	44.46541950113379	84	127
44.360952380952384	44.46541950113379	65	127
44.360952380952384	44.477052154195015	53	127
44.54671201814059	44.66281179138322	60	127
44.54671201814059	44.66281179138322	81	127
44.54671201814059	44.66281179138322	60	127
44.54671201814059	44.67442176870748	53	127
44.744081632653064	44.860181405895695	72	127
44.744081632653064	44.860181405895695	77	127
44.744081632653064	44.860181405895695	69	127
44.92984126984127	45.03433106575964	65	127
44.92984126984127	45.03433106575964	74	127
44.92984126984127	45.03433106575964	69	127
44.92984126984127	45.0459410430839	48	127
45.103968253968254	45.23167800453515	41	127
45.103968253968254	45.220068027210885	72	127
45.103968253968254	45.220068027210885	65	127
45.103968253968254	45.220068027210885	57	127
45.30136054421769	45.42907029478458	41	127
45.30136054421769	45.41746031746032	69	127
45.30136054421769	45.41746031746032	60	127
45.30136054421769	45.41746031746032	60	127
45.4871201814059	45.87024943310658	72	127
45.4871201814059	45.603197278911566	72	127
45.4871201814059	45.603197278911566	69	127
45.68448979591837	45.788979591836735	69	127
45.68448979591837	45.788979591836735	65	127
45.68448979591837	45.800589569161	36	127
45.87024943310658	45.99795918367347	41	127
45.87024943310658	45.986326530612246	72	127
45.87024943310658	45.986326530612246	69	127
45.87024943310658	46.13727891156463	69	127
46.056009070294785	46.13727891156463	65	127
46.056009070294785	46.13727891156463	69	127
46.056009070294785	46.14888888888889	41	127
46.218548752834465	46.334648526077096	65	127
46.218548752834465	46.334648526077096	57	127
46.40430839002268	46.53201814058957	53	127
46.40430839002268	46.52040816326531	60	127
46.40430839002268	46.52040816326531	60	127
46.40430839002268	46.601678004535145	81	127
46.601678004535145	46.83387755102041	79	127
46.601678004535145	46.6481179138322	62	127
46.601678004535145	46.72938775510204	62	127
46.601678004535145	46.72938775510204	47	127
46.6481179138322	46.92675736961451	74	127
46.79904761904762	46.92675736961451	43	127
46.79904761904762	46.92675736961451	59	127
46.891927437641726	46.9615873015873	81	127
46.99639455782313	47.124104308390024	47	127
46.99639455782313	47.124104308390024	79	127
46.99639455782313	47.124104308390024	62	127
46.99639455782313	47.29827664399093	77	127
47.1821768707483	47.309886621315194	59	127
47.1821768707483	47.309886621315194	74	127
47.1821768707483	47.309886621315194	55	127
47.367936507936506	47.4956462585034	48	127
47.367936507936506	47.4956462585034	60	127
47.367936507936506	47.588526077097505	79	127
47.367936507936506	47.65818594104309	76	127
47.55369614512472	47.66979591836735	52	127
47.55369614512472	47.66979591836735	55	127
47.646575963718824	47.704625850340136	81	127
47.73945578231292	48.06453514739229	72	127
47.73945578231292	47.87877551020408	79	127
47.73945578231292	47.87877551020408	64	127
47.73945578231292	47.87877551020408	55	127
47.94843537414966	48.076145124716554	60	127
47.94843537414966	48.076145124716554	76	127
47.94843537414966	48.076145124716554	60	127
48.1225850340136	48.308344671201816	74	127
48.1225850340136	48.2502947845805	62	127
48.1225850340136	48.2502947845805	59	127
48.1225850340136	48.3431746031746	79	127
48.308344671201816	48.43605442176871	55	127
48.308344671201816	48.42444444444445	77	127
48.308344671201816	48.43605442176871	59	127
48.401224489795915	48.470884353741496	81	127
48.505714285714284	48.63342403628118	62	127
48.505714285714284	48.621814058956915	74	127
48.505714285714284	48.63342403628118	79	127
48.505714285714284	48.63342403628118	59	127
48.70308390022676	48.842403628117914	65	127
48.70308390022676	48.83079365079365	71	127
48.70308390022676	48.842403628117914	74	127
48.70308390022676	48.842403628117914	55	127
48.92367346938776	49.08621315192744	60	127
48.92367346938776	49.05138321995465	72	127
48.92367346938776	49.08621315192744	72	127
48.92367346938776	49.08621315192744	64	127
49.121043083900226	49.3184126984127	67	127
49.388072562358275	49.95696145124717	36	127
49.388072562358275	49.887301587301586	72	127
49.388072562358275	49.95696145124717	60	127
49.388072562358275	49.95696145124717	48	127
50.00340136054422	50.14272108843537	67	127
50.212380952380954	50.3865306122449	60	127
50.212380952380954	50.34009070294785	72	127
50.212380952380954	50.3865306122449	48	127
50.212380952380954	50.3865306122449	36	127
50.421360544217684	50.56068027210885	67	127
50.63034013605442	50.758049886621315	72	127
50.63034013605442	50.804489795918364	60	127
50.63034013605442	50.804489795918364	48	127
50.63034013605442	50.804489795918364	36	127
50.83931972789116	50.94380952380953	67	127
51.025079365079364	51.2340589569161	36	127
51.025079365079364	51.199229024943314	48	127
51.025079365079364	51.2340589569161	72	127
51.025079365079364	51.2340589569161	60	127
51.28049886621315	51.46625850340136	55	127
51.53591836734694	51.66362811791383	48	127
51.53591836734694	51.66362811791383	60	127
51.77972789115646	51.91904761904762	55	127
52.011927437641724	52.128027210884355	48	127
52.011927437641724	52.128027210884355	60	127
52.22090702947846	52.38344671201814	55	127
52.48793650793651	52.60403628117914	48	127
52.48793650793651	52.60403628117914	60	127
52.7085260770975	52.824625850340134	55	127
52.91750566893424	53.86952380952381	80	127
52.91750566893424	53.08004535147392	44	127
52.91750566893424	53.12648526077098	60	127
52.91750566893424	53.12648526077098	63	127
52.91750566893424	53.12648526077098	56	127
53.230975056689346	53.277414965986395	60	127
53.230975056689346	53.277414965986395	63	127
53.230975056689346	53.277414965986395	56	127
53.277414965986395	53.40512471655329	60	127
53.277414965986395	53.40512471655329	63	127
53.277414965986395	53.40512471655329	56	127
53.47478458049886	53.81147392290249	63	127
53.47478458049886	53.81147392290249	60	127
53.47478458049886	53.81147392290249	56	127
53.86952380952381	53.997233560090706	56	127
53.86952380952381	53.997233560090706	63	127
53.86952380952381	53.997233560090706	60	127
53.86952380952381	54.27587301587302	77	127
54.28748299319728	54.693832199546485	75	127
54.28748299319728	54.48485260770975	60	127
54.28748299319728	54.48485260770975	63	127
54.28748299319728	54.48485260770975	56	127
54.589342403628116	54.647392290249435	63	127
54.589342403628116	54.647392290249435	60	127
54.589342403628116	54.647392290249435	56	127
54.693832199546485	55.518140589569164	72	127
54.693832199546485	54.82154195011338	60	127
54.693832199546485	54.82154195011338	63	127
54.693832199546485	54.82154195011338	56	127
54.90281179138322	55.239501133786845	63	127
54.90281179138322	55.239501133786845	60	127
54.90281179138322	55.239501133786845	56	127
55.30916099773243	55.43687074829932	63	127
55.30916099773243	55.43687074829932	60	127
55.30916099773243	55.43687074829932	56	127
55.518140589569164	55.64585034013606	56	127
55.518140589569164	55.64585034013606	63	127
55.518140589569164	55.64585034013606	60	127
55.518140589569164	55.91287981859411	75	127
55.93609977324263	56.37727891156462	75	127
55.93609977324263	56.16829931972789	60	127
55.93609977324263	56.16829931972789	63	127
55.93609977324263	56.16829931972789	56	127
56.27278911564626	56.342448979591836	63	127
56.27278911564626	56.342448979591836	60	127
56.27278911564626	56.342448979591836	56	127
56.37727891156462	57.00421768707483	77	127
56.37727891156462	56.51659863945578	60	127
56.37727891156462	56.51659863945578	63	127
56.37727891156462	56.51659863945578	56	127
56.58625850340136	56.946167800453516	63	127
56.58625850340136	56.946167800453516	60	127
56.58625850340136	56.946167800453516	56	127
57.01582766439909	57.143537414965984	60	127
57.01582766439909	57.143537414965984	63	127
57.01582766439909	57.143537414965984	56	127
57.01582766439909	57.17836734693878	75	127
57.22480725623583	57.35251700680272	56	127
57.22480725623583	57.35251700680272	60	127
57.22480725623583	57.35251700680272	63	127
57.22480725623583	57.38734693877551	77	127
57.22480725623583	57.433786848072565	85	127
57.53827664399093	57.61954648526077	75	127
57.53827664399093	57.596326530612245	84	127
57.642766439909295	58.61800453514739	84	127
57.642766439909295	57.84013605442177	63	127
57.642766439909295	57.84013605442177	60	127
57.642766439909295	57.84013605442177	56	127
57.642766439909295	58.61800453514739	75	127
57.933015873015876	58.00267573696145	63	127
57.933015873015876	58.00267573696145	56	127
57.933015873015876	58.00267573696145	60	127
58.03750566893424	58.16521541950113	63	127
58.03750566893424	58.16521541950113	56	127
58.03750566893424	58.16521541950113	60	127
58.246485260770974	58.583174603174605	63	127
58.246485260770974	58.583174603174605	60	127
58.246485260770974	58.583174603174605	56	127
58.66444444444444	58.78054421768707	63	127
58.66444444444444	58.78054421768707	60	127
58.66444444444444	58.78054421768707	56	127
58.86181405895692	59.674512471655326	84	127
58.86181405895692	58.98952380952381	63	127
58.86181405895692	58.98952380952381	60	127
58.86181405895692	58.98952380952381	56	127
59.26816326530612	59.47714285714286	60	127
59.26816326530612	59.47714285714286	63	127
59.26816326530612	59.47714285714286	55	127
59.570022675736965	59.63968253968254	60	127
59.570022675736965	59.63968253968254	63	127
59.570022675736965	59.63968253968254	55	127
59.674512471655326	60.28984126984127	79	127
59.674512471655326	59.81383219954648	63	127
59.674512471655326	59.81383219954648	60	127
59.674512471655326	59.81383219954648	55	127
59.88349206349206	60.23179138321996	63	127
59.88349206349206	60.23179138321996	60	127
59.88349206349206	60.23179138321996	55	127
60.30145124716553	60.52204081632653	77	127
60.30145124716553	60.44077097505669	60	127
60.30145124716553	60.44077097505669	63	127
60.30145124716553	60.44077097505669	55	127
60.52204081632653	60.73102040816327	75	127
60.52204081632653	60.649750566893424	60	127
60.52204081632653	60.649750566893424	63	127
60.52204081632653	60.649750566893424	55	127
60.73102040816327	60.928390022675735	72	127
60.94	62.19387755102041	79	127
60.94	61.13736961451247	63	127
60.94	61.13736961451247	60	127
60.94	61.13736961451247	55	127
61.2534693877551	61.32312925170068	63	127
61.2534693877551	61.32312925170068	60	127
61.2534693877551	61.32312925170068	55	127
61.35795918367347	61.485668934240366	63	127
61.35795918367347	61.485668934240366	60	127
61.35795918367347	61.485668934240366	55	127
61.5669387755102	61.90362811791383	63	127
61.5669387755102	61.90362811791383	60	127
61.5669387755102	61.90362811791383	55	127
61.98489795918368	62.11260770975057	63	127
61.98489795918368	62.11260770975057	60	127
61.98489795918368	62.11260770975057	55	127
62.20548752834467	62.3215873015873	55	127
62.20548752834467	62.3215873015873	60	127
62.20548752834467	62.3215873015873	63	127
62.20548752834467	62.60022675736961	79	127
62.611836734693874	63.05301587301587	84	127
62.611836734693874	62.844036281179136	63	127
62.611836734693874	62.844036281179136	60	127
62.611836734693874	62.844036281179136	55	127
62.948526077097505	63.018185941043086	60	127
62.948526077097505	63.018185941043086	63	127
62.948526077097505	63.018185941043086	55	127
63.05301587301587	63.19233560090703	63	127
63.05301587301587	63.19233560090703	60	127
63.05301587301587	63.19233560090703	55	127
63.05301587301587	63.90054421768708	87	127
63.26199546485261	63.62190476190476	63	127
63.26199546485261	63.62190476190476	55	127
63.26199546485261	63.62190476190476	60	127
63.69156462585034	63.81927437641723	55	127
63.69156462585034	63.81927437641723	60	127
63.69156462585034	63.81927437641723	63	127
63.90054421768708	64.02825396825396	63	127
63.90054421768708	64.31850340136054	84	127
63.90054421768708	64.02825396825396	60	127
63.90054421768708	64.02825396825396	55	127
64.33011337868481	64.53909297052154	63	127
64.33011337868481	64.73646258503402	82	127
64.33011337868481	64.53909297052154	55	127
64.33011337868481	64.53909297052154	61	127
64.63197278911565	64.70163265306122	63	127
64.63197278911565	64.70163265306122	55	127
64.63197278911565	64.70163265306122	61	127
64.73646258503402	64.87578231292517	61	127
64.73646258503402	64.87578231292517	55	127
64.73646258503402	64.87578231292517	63	127
64.73646258503402	65.60721088435375	77	127
64.94541950113378	65.32854875283446	55	127
64.94541950113378	65.32854875283446	63	127
64.94541950113378	65.32854875283446	61	127
65.40984126984127	65.54916099773243	63	127
65.40984126984127	65.54916099773243	55	127
65.40984126984127	65.54916099773243	61	127
65.63043083900227	65.7465306122449	61	127
65.63043083900227	65.7465306122449	63	127
65.63043083900227	65.7465306122449	55	127
65.63043083900227	65.76975056689342	77	127
65.76975056689342	65.92068027210884	79	127
65.92068027210884	66.04839002267573	80	127
66.06	66.25736961451247	55	127
66.06	66.25736961451247	61	127
66.06	67.08167800453515	82	127
66.06	66.25736961451247	63	127
66.36185941043084	66.41990929705216	55	127
66.36185941043084	66.41990929705216	61	127
66.36185941043084	66.41990929705216	63	127
66.45471655328798	66.5940589569161	63	127
66.45471655328798	66.5940589569161	55	127
66.45471655328798	66.5940589569161	61	127
66.66371882086167	67.01201814058957	55	127
66.66371882086167	67.01201814058957	61	127
66.66371882086167	67.01201814058957	63	127
67.08167800453515	67.20938775510204	61	127
67.08167800453515	67.20938775510204	63	127
67.08167800453515	67.20938775510204	55	127
67.52285714285715	67.6621768707483	61	127
67.52285714285715	67.6621768707483	55	127
67.52285714285715	67.6621768707483	63	127
67.52285714285715	67.94081632653061	75	127
67.95242630385488	69.368820861678	80	127
67.95242630385488	68.35877551020408	60	127
67.95242630385488	68.35877551020408	63	127
67.95242630385488	68.35877551020408	56	127
68.46326530612245	68.53292517006803	60	127
68.46326530612245	68.53292517006803	63	127
68.46326530612245	68.53292517006803	56	127
68.56775510204082	68.70707482993197	63	127
68.56775510204082	68.70707482993197	60	127
68.56775510204082	68.70707482993197	56	127
68.76512471655329	69.11340136054422	63	127
68.76512471655329	69.11340136054422	60	127
68.76512471655329	69.11340136054422	56	127
69.18308390022676	69.28757369614513	60	127
69.18308390022676	69.28757369614513	63	127
69.18308390022676	69.28757369614513	56	127
69.368820861678	69.4965306122449	56	127
69.368820861678	69.4965306122449	60	127
69.368820861678	69.4965306122449	63	127
69.368820861678	69.77517006802721	77	127
69.78680272108843	70.19315192743764	75	127
69.78680272108843	69.9841723356009	63	127
69.78680272108843	69.9841723356009	60	127
69.78680272108843	69.9841723356009	56	127
70.08866213151927	70.14671201814059	60	127
70.08866213151927	70.14671201814059	63	127
70.08866213151927	70.14671201814059	56	127
70.19315192743764	70.32086167800453	60	127
70.19315192743764	70.32086167800453	63	127
70.19315192743764	70.32086167800453	56	127
70.19315192743764	70.82009070294785	72	127
70.41371882086167	70.75043083900226	63	127
70.41371882086167	70.75043083900226	56	127
70.41371882086167	70.75043083900226	60	127
70.82009070294785	70.959410430839	56	127
70.82009070294785	70.959410430839	60	127
70.82009070294785	70.959410430839	63	127
71.04068027210884	71.45863945578232	75	127
71.04068027210884	71.18	63	127
71.04068027210884	71.18	60	127
71.04068027210884	71.18	56	127
71.47024943310657	72.65446712018141	84	127
71.47024943310657	71.67922902494331	63	127
71.47024943310657	71.67922902494331	60	127
71.47024943310657	71.67922902494331	56	127
71.47024943310657	72.65446712018141	75	127
71.78371882086168	71.841768707483	60	127
71.78371882086168	71.841768707483	56	127
71.78371882086168	71.841768707483	63	127
71.87659863945578	72.00430839002267	60	127
71.87659863945578	72.00430839002267	63	127
71.87659863945578	72.00430839002267	56	127
72.05072562358276	72.3758276643991	60	127
72.05072562358276	72.3758276643991	56	127
72.05072562358276	72.3758276643991	63	127
72.44548752834467	72.57319727891156	63	127
72.44548752834467	72.57319727891156	60	127
72.44548752834467	72.57319727891156	56	127
72.65446712018141	72.7821768707483	60	127
72.65446712018141	72.7821768707483	63	127
72.65446712018141	72.7821768707483	56	127
72.65446712018141	73.06081632653061	80	127
72.65446712018141	73.06081632653061	72	127
73.07240362811791	73.24657596371883	58	127
73.07240362811791	73.24657596371883	61	127
73.07240362811791	73.46716553287982	75	127
73.07240362811791	73.24657596371883	53	127
73.07240362811791	73.46716553287982	79	127
73.36267573696145	73.43231292517007	53	127
73.36267573696145	73.43231292517007	61	127
73.36267573696145	73.43231292517007	58	127
73.46716553287982	74.26825396825397	73	127
73.46716553287982	73.59487528344671	58	127
73.46716553287982	73.59487528344671	53	127
73.46716553287982	73.59487528344671	61	127
73.46716553287982	74.26825396825397	77	127
73.67614512471656	73.97800453514739	53	127
73.67614512471656	73.97800453514739	58	127
73.67614512471656	73.97800453514739	61	127
74.07086167800453	74.18698412698413	61	127
74.07086167800453	74.18698412698413	58	127
74.07086167800453	74.18698412698413	53	127
74.26825396825397	74.67460317460318	77	127
74.26825396825397	74.39596371882087	61	127
74.26825396825397	74.39596371882087	58	127
74.26825396825397	74.39596371882087	53	127
74.26825396825397	74.67460317460318	73	127
74.67460317460318	74.93002267573696	60	127
74.67460317460318	74.93002267573696	56	127
74.67460317460318	75.08095238095238	72	127
74.67460317460318	75.08095238095238	80	127
74.97646258503401	75.04612244897959	60	127
74.97646258503401	75.04612244897959	56	127
74.97646258503401	75.04612244897959	63	127
75.08095238095238	75.22024943310657	60	127
75.08095238095238	76.23034013605442	63	127
75.08095238095238	75.22024943310657	63	127
75.08095238095238	75.22024943310657	56	127
75.08095238095238	75.68467120181406	75	127
75.28993197278912	75.61501133786848	63	127
75.28993197278912	75.61501133786848	56	127
75.28993197278912	75.61501133786848	60	127
75.68467120181406	75.8007709750567	56	127
75.68467120181406	75.8007709750567	60	127
75.68467120181406	75.8007709750567	63	127
75.68467120181406	75.85879818594104	72	127
75.85879818594104	76.05619047619048	75	127
75.85879818594104	75.97492063492064	60	127
75.85879818594104	75.97492063492064	63	127
75.85879818594104	75.97492063492064	56	127
76.05619047619048	76.23034013605442	72	127
76.3	76.40448979591837	75	127
76.3	76.46253968253968	63	127
76.3	76.55541950113378	60	127
76.3	76.55541950113378	63	127
76.3	76.71795918367347	56	127
76.50897959183673	76.6134693877551	68	127
76.6134693877551	76.69473922902495	60	127
76.6134693877551	76.69473922902495	63	127
76.71795918367347	77.53065759637188	63	127
76.71795918367347	76.86888888888889	60	127
76.71795918367347	76.86888888888889	63	127
76.71795918367347	77.11267573696145	53	127
76.71795918367347	77.53065759637188	72	127
76.90371882086168	77.25201814058957	63	127
76.90371882086168	77.11267573696145	60	127
77.11267573696145	77.25201814058957	61	127
77.11267573696145	77.53065759637188	54	127
77.33328798185941	77.44938775510204	61	127
77.33328798185941	77.44938775510204	63	127
77.53065759637188	78.01827664399093	70	127
77.53065759637188	77.6815873015873	61	127
77.53065759637188	77.6815873015873	63	127
77.53065759637188	77.6815873015873	51	127
77.53065759637188	77.97183673469388	55	127
77.53065759637188	78.01827664399093	61	127
77.77446712018141	77.89056689342404	51	127
77.77446712018141	77.89056689342404	61	127
77.77446712018141	77.89056689342404	63	127
78.01827664399093	78.30852607709751	44	127
78.01827664399093	78.0879365079365	60	127
78.01827664399093	78.0879365079365	56	127
78.01827664399093	78.16920634920635	60	127
78.01827664399093	78.16920634920635	68	127
78.11115646258503	78.19242630385487	60	127
78.11115646258503	78.19242630385487	56	127
78.20403628117914	78.27369614512472	60	127
78.20403628117914	78.27369614512472	56	127
78.30852607709751	78.40140589569161	60	127
78.30852607709751	78.40140589569161	56	127
78.30852607709751	78.42462585034014	46	127
78.42462585034014	78.70326530612245	63	127
78.42462585034014	78.5291156462585	60	127
78.42462585034014	78.5291156462585	56	127
78.42462585034014	78.6219954648526	44	127
78.55233560090703	78.64519274376417	60	127
78.55233560090703	78.64519274376417	56	127
78.66843537414967	78.73809523809524	56	127
78.66843537414967	78.73809523809524	60	127
78.66843537414967	78.78453514739229	39	127
78.76131519274377	78.81936507936508	60	127
78.76131519274377	78.79614512471656	65	127
78.76131519274377	78.81936507936508	56	127
78.84258503401361	79.10961451247165	44	127
78.84258503401361	78.91224489795918	60	127
78.84258503401361	78.91224489795918	56	127
78.84258503401361	78.9702947845805	63	127
78.93546485260771	78.99351473922903	60	127
78.93546485260771	78.99351473922903	56	127
79.01673469387755	79.08639455782313	60	127
79.01673469387755	79.08639455782313	56	127
79.10961451247165	79.1908843537415	56	127
79.10961451247165	79.1908843537415	60	127
79.10961451247165	79.21410430839002	46	127
79.21410430839002	79.48113378684808	63	127
79.21410430839002	79.31859410430839	60	127
79.21410430839002	79.31859410430839	56	127
79.21410430839002	79.39986394557823	44	127
79.34181405895691	79.42308390022676	60	127
79.34181405895691	79.42308390022676	56	127
79.44630385487528	79.5159410430839	56	127
79.44630385487528	79.5159410430839	60	127
79.44630385487528	79.56240362811792	39	127
79.53916099773242	79.62045351473922	60	127
79.53916099773242	79.5972335600907	65	127
79.53916099773242	79.62045351473922	56	127
79.64365079365079	79.71333333333334	56	127
79.64365079365079	79.71333333333334	60	127
79.64365079365079	79.79458049886621	63	127
79.64365079365079	79.95714285714286	44	127
79.73655328798186	79.8178231292517	56	127
79.73655328798186	79.8178231292517	60	127
79.84104308390023	79.9222902494331	56	127
79.84104308390023	79.9222902494331	60	127
79.95714285714286	80.06163265306122	46	127
79.95714285714286	80.0384126984127	60	127
79.95714285714286	80.0384126984127	56	127
80.06163265306122	80.27061224489796	63	127
80.06163265306122	80.10807256235827	60	127
80.06163265306122	80.10807256235827	56	127
80.06163265306122	80.18934240362812	44	127
80.1312925170068	80.21256235827664	60	127
80.1312925170068	80.21256235827664	56	127
80.23578231292517	80.30541950113378	56	127
80.23578231292517	80.30541950113378	60	127
80.23578231292517	80.3518820861678	39	127
80.32866213151928	80.45637188208617	60	127
80.32866213151928	80.38671201814059	65	127
80.32866213151928	80.45637188208617	56	127
80.4795918367347	80.76984126984127	44	127
80.4795918367347	80.54925170068027	60	127
80.4795918367347	80.54925170068027	56	127
80.4795918367347	80.63052154195012	63	127
80.5724716553288	80.65374149659864	60	127
80.5724716553288	80.65374149659864	56	127
80.67696145124717	80.74662131519274	60	127
80.67696145124717	80.74662131519274	56	127
80.76984126984127	80.86272108843538	56	127
80.76984126984127	80.86272108843538	60	127
80.76984126984127	80.8859410430839	46	127
80.8859410430839	81.03687074829932	44	127
80.8859410430839	80.95560090702948	60	127
80.8859410430839	80.95560090702948	56	127
80.8859410430839	81.11814058956917	63	127
80.978820861678	81.06009070294785	56	127
80.978820861678	81.06009070294785	60	127
81.08331065759637	81.19941043083901	39	127
81.08331065759637	81.15297052154195	60	127
81.08331065759637	81.15297052154195	56	127
81.17616780045351	81.25746031746031	60	127
81.17616780045351	81.25746031746031	56	127
81.17616780045351	81.23424036281179	65	127
81.29229024943311	81.39678004535148	55	127
81.29229024943311	81.62897959183674	67	127
81.29229024943311	84.48503401360544	43	127
81.29229024943311	81.39678004535148	59	127
81.39678004535148	81.52448979591837	50	127
81.39678004535148	81.52448979591837	62	127
81.52448979591837	81.62897959183674	59	127
81.52448979591837	81.62897959183674	55	127
81.62897959183674	81.73346938775511	68	127
81.62897959183674	81.73346938775511	62	127
81.62897959183674	81.73346938775511	50	127
81.73346938775511	81.8263492063492	59	127
81.73346938775511	81.8263492063492	55	127
81.73346938775511	81.84956916099773	67	127
81.8263492063492	81.9540589569161	62	127
81.8263492063492	81.9540589569161	50	127
81.9540589569161	82.02371882086167	59	127
81.9540589569161	82.02371882086167	55	127
81.9540589569161	82.0469387755102	62	127
82.02371882086167	82.10498866213152	62	127
82.02371882086167	82.10498866213152	50	127
82.10498866213152	82.18625850340136	55	127
82.10498866213152	82.18625850340136	59	127
82.10498866213152	82.38362811791383	67	127
82.18625850340136	82.29074829931973	50	127
82.18625850340136	82.29074829931973	62	127
82.29074829931973	82.38362811791383	55	127
82.29074829931973	82.38362811791383	59	127
82.38362811791383	82.4881179138322	68	127
82.38362811791383	82.4881179138322	50	127
82.38362811791383	82.4881179138322	62	127
82.4881179138322	82.58097505668934	55	127
82.4881179138322	82.60421768707484	67	127
82.4881179138322	82.58097505668934	59	127
82.58097505668934	82.66226757369614	62	127
82.58097505668934	82.66226757369614	50	127
82.66226757369614	82.75514739229025	55	127
82.66226757369614	82.75514739229025	59	127
82.66226757369614	82.77836734693878	62	127
82.75514739229025	82.85963718820862	62	127
82.75514739229025	82.85963718820862	50	127
82.85963718820862	82.95251700680272	55	127
82.85963718820862	83.14988662131519	67	127
82.85963718820862	82.95251700680272	59	127
82.95251700680272	83.05700680272109	62	127
82.95251700680272	83.05700680272109	50	127
83.05700680272109	83.14988662131519	55	127
83.05700680272109	83.14988662131519	59	127
83.14988662131519	83.26598639455783	68	127
83.14988662131519	83.26598639455783	62	127
83.14988662131519	83.26598639455783	50	127
83.26598639455783	83.35886621315193	59	127
83.26598639455783	83.35886621315193	55	127
83.26598639455783	83.3704761904762	67	127
83.35886621315193	83.44013605442177	62	127
83.35886621315193	83.44013605442177	50	127
83.44013605442177	83.5562358276644	62	127
83.44013605442177	83.53301587301587	59	127
83.44013605442177	83.53301587301587	55	127
83.53301587301587	83.63750566893424	62	127
83.53301587301587	83.63750566893424	50	127
83.63750566893424	83.74199546485261	59	127
83.63750566893424	83.74199546485261	55	127
83.63750566893424	83.95097505668934	67	127
83.74199546485261	83.85807256235827	62	127
83.74199546485261	83.85807256235827	50	127
83.85807256235827	83.95097505668934	59	127
83.85807256235827	83.95097505668934	55	127
83.95097505668934	84.05546485260771	68	127
83.95097505668934	84.05546485260771	62	127
83.95097505668934	84.05546485260771	50	127
84.05546485260771	84.15995464852608	55	127
84.05546485260771	84.1831746031746	67	127
84.05546485260771	84.15995464852608	59	127
84.15995464852608	84.29927437641723	62	127
84.15995464852608	84.29927437641723	50	127
84.29927437641723	84.4037641723356	59	127
84.29927437641723	84.4037641723356	55	127
84.29927437641723	84.42698412698412	62	127
84.4037641723356	84.48503401360544	50	127
84.4037641723356	84.48503401360544	62	127
84.50825396825397	84.8101133786848	54	127
84.50825396825397	87.80548752834467	58	127
84.50825396825397	84.60111111111111	46	127
84.50825396825397	87.80548752834467	61	127
84.60111111111111	84.70562358276644	49	127
84.70562358276644	84.8101133786848	46	127
84.8101133786848	84.92621315192744	56	127
84.8101133786848	84.92621315192744	49	127
84.92621315192744	85.04231292517007	54	127
84.92621315192744	85.03070294784581	46	127
85.03070294784581	85.12358276643991	49	127
85.12358276643991	85.2512925170068	49	127
85.12358276643991	85.22807256235828	46	127
85.22807256235828	85.32095238095238	49	127
85.32095238095238	85.68086167800453	54	127
85.32095238095238	85.44866213151927	46	127
85.44866213151927	85.58798185941043	49	127
85.58798185941043	85.68086167800453	46	127
85.68086167800453	85.80857142857143	56	127
85.68086167800453	85.80857142857143	49	127
85.80857142857143	85.93628117913832	54	127
85.80857142857143	85.9130612244898	46	127
85.9130612244898	86.02916099773243	49	127
86.02916099773243	86.15687074829933	49	127
86.02916099773243	86.14526077097506	46	127
86.14526077097506	86.23814058956916	49	127
86.23814058956916	86.54	54	127
86.23814058956916	86.34263038548752	46	127
86.34263038548752	86.43551020408164	49	127
86.43551020408164	86.54	46	127
86.54	86.6444671201814	49	127
86.54	86.6444671201814	56	127
86.6444671201814	86.73736961451247	46	127
86.6444671201814	86.760589569161	54	127
86.73736961451247	86.8534693877551	49	127
86.8534693877551	86.96956916099774	49	127
86.8534693877551	86.95795918367347	46	127
86.95795918367347	87.03922902494331	49	127
87.03922902494331	87.14371882086168	46	127
87.03922902494331	87.32947845804989	54	127
87.14371882086168	87.22498866213152	49	127
87.22498866213152	87.32947845804989	46	127
87.32947845804989	87.43396825396826	56	127
87.32947845804989	87.43396825396826	49	127
87.43396825396826	87.52684807256236	46	127
87.43396825396826	87.55006802721088	54	127
87.52684807256236	87.63133786848073	49	127
87.63133786848073	87.74743764172335	49	127
87.63133786848073	87.7358276643991	46	127
87.7358276643991	87.80548752834467	49	127
87.8287074829932	87.92158730158731	56	127
87.8287074829932	87.92158730158731	48	127
87.8287074829932	87.94480725623583	65	127
87.8287074829932	87.96802721088436	48	127
87.94480725623583	88.01446712018141	56	127
87.94480725623583	88.01446712018141	48	127
87.94480725623583	88.03768707482993	67	127
88.03768707482993	88.1537641723356	65	127
88.03768707482993	88.13056689342403	60	127
88.03768707482993	88.13056689342403	56	127
88.03768707482993	88.1770068027211	36	127
88.1537641723356	88.22344671201814	60	127
88.1537641723356	88.22344671201814	56	127
88.24666666666667	88.32793650793651	56	127
88.24666666666667	88.32793650793651	48	127
88.24666666666667	88.35115646258504	65	127
88.35115646258504	88.44403628117914	56	127
88.35115646258504	88.44403628117914	48	127
88.35115646258504	88.46725623582766	67	127
88.46725623582766	88.5485260770975	60	127
88.46725623582766	88.5485260770975	56	127
88.46725623582766	88.57174603174603	65	127
88.46725623582766	88.59496598639456	48	127
88.57174603174603	88.6414058956916	60	127
88.57174603174603	88.6414058956916	56	127
88.65301587301587	88.73428571428572	48	127
88.65301587301587	88.73428571428572	56	127
88.65301587301587	88.74589569160997	68	127
88.65301587301587	88.7691156462585	48	127
88.74589569160997	88.81555555555556	56	127
88.74589569160997	88.81555555555556	48	127
88.74589569160997	88.83877551020409	70	127
88.83877551020409	88.92002267573696	60	127
88.83877551020409	88.92002267573696	56	127
88.83877551020409	88.94326530612246	68	127
88.83877551020409	88.96648526077098	36	127
88.94326530612246	89.01292517006803	65	127
88.94326530612246	89.01292517006803	60	127
88.94326530612246	89.01292517006803	56	127
89.03614512471655	89.1174149659864	56	127
89.03614512471655	89.1174149659864	48	127
89.03614512471655	89.14063492063492	68	127
89.14063492063492	89.22190476190477	56	127
89.14063492063492	89.22190476190477	48	127
89.14063492063492	89.25673469387755	70	127
89.25673469387755	89.33800453514739	60	127
89.25673469387755	89.33800453514739	56	127
89.25673469387755	89.36122448979592	68	127
89.25673469387755	89.38444444444444	48	127
89.36122448979592	89.43086167800453	65	127
89.36122448979592	89.43086167800453	60	127
89.36122448979592	89.43086167800453	56	127
89.45410430839003	89.53537414965986	65	127
89.45410430839003	89.53537414965986	56	127
89.45410430839003	89.55857142857143	72	127
89.45410430839003	89.58181405895692	48	127
89.55857142857143	89.62825396825397	65	127
89.55857142857143	89.62825396825397	56	127
89.55857142857143	89.6514739229025	73	127
89.6514739229025	89.7443537414966	68	127
89.6514739229025	89.7443537414966	60	127
89.6514739229025	89.76757369614512	72	127
89.6514739229025	89.79077097505669	36	127
89.76757369614512	89.83723356009071	68	127
89.76757369614512	89.83723356009071	60	127
89.86045351473923	89.9417006802721	65	127
89.86045351473923	89.9417006802721	56	127
89.86045351473923	89.9649433106576	72	127
89.9649433106576	90.03460317460318	65	127
89.9649433106576	90.03460317460318	56	127
89.9649433106576	90.0578231292517	73	127
90.0578231292517	90.16231292517007	68	127
90.0578231292517	90.16231292517007	60	127
90.0578231292517	90.1971201814059	72	127
90.0578231292517	90.22036281179139	48	127
90.1971201814059	90.29002267573696	68	127
90.1971201814059	90.29002267573696	60	127
90.32482993197279	90.40612244897959	65	127
90.32482993197279	90.40612244897959	56	127
90.32482993197279	90.42931972789115	77	127
90.32482993197279	90.45253968253968	48	127
90.42931972789115	90.4990022675737	65	127
90.42931972789115	90.4990022675737	56	127
90.42931972789115	90.52222222222223	79	127
90.52222222222223	90.60349206349207	68	127
90.52222222222223	90.60349206349207	60	127
90.52222222222223	90.6267120181406	77	127
90.52222222222223	90.64993197278912	36	127
90.6267120181406	90.69637188208617	72	127
90.6267120181406	90.69637188208617	68	127
90.6267120181406	90.69637188208617	60	127
90.73120181405896	90.81244897959184	65	127
90.73120181405896	90.81244897959184	56	127
90.73120181405896	90.83566893424036	80	127
90.83566893424036	90.9053514739229	65	127
90.83566893424036	90.9053514739229	56	127
90.83566893424036	90.92857142857143	82	127
90.92857142857143	91.02145124716553	68	127
90.92857142857143	91.02145124716553	60	127
90.92857142857143	91.04467120181405	80	127
90.92857142857143	91.06786848072562	48	127
91.04467120181405	91.11433106575964	77	127
91.04467120181405	91.11433106575964	68	127
91.04467120181405	91.11433106575964	60	127
91.13755102040817	91.27687074829932	60	127
91.13755102040817	91.35814058956916	72	127
91.13755102040817	91.35814058956916	84	127
91.13755102040817	91.35814058956916	36	127
91.13755102040817	91.35814058956916	48	127
91.13755102040817	91.36975056689343	67	127
91.18399092970522	91.36975056689343	76	127
91.18399092970522	91.36975056689343	84	127
91.27687074829932	91.40458049886621	61	127
91.40458049886621	91.49746031746032	60	127
91.49746031746032	91.5787074829932	48	127
91.60195011337869	91.77609977324263	68	127
91.60195011337869	91.71804988662132	60	127
91.60195011337869	91.77609977324263	36	127
91.60195011337869	91.77609977324263	48	127
91.60195011337869	91.77609977324263	65	127
91.62517006802722	91.77609977324263	72	127
91.62517006802722	91.77609977324263	83	127
91.62517006802722	91.77609977324263	84	127
91.62517006802722	91.77609977324263	77	127
91.71804988662132	91.83412698412698	61	127
91.83412698412698	91.92702947845805	60	127
91.92702947845805	92.0082993197279	48	127
92.04312925170068	92.27532879818594	84	127
92.04312925170068	92.1940589569161	60	127
92.04312925170068	92.27532879818594	72	127
92.04312925170068	92.27532879818594	48	127
92.04312925170068	92.27532879818594	36	127
92.04312925170068	92.27532879818594	67	127
92.0663492063492	92.27532879818594	84	127
92.0663492063492	92.27532879818594	76	127
92.1940589569161	92.32176870748299	61	127
92.32176870748299	92.44947845804988	60	127
92.44947845804988	92.542358276644	48	127
92.56557823129252	92.72809523809524	68	127
92.56557823129252	92.67006802721089	60	127
92.56557823129252	92.72809523809524	48	127
92.56557823129252	92.72809523809524	36	127
92.56557823129252	92.72809523809524	65	127
92.58879818594104	92.72809523809524	77	127
92.58879818594104	92.72809523809524	83	127
92.58879818594104	92.72809523809524	72	127
92.58879818594104	92.72809523809524	84	127
92.67006802721089	92.76294784580499	61	127
92.76294784580499	92.87904761904763	60	127
92.87904761904763	92.98351473922902	48	127
93.02997732426304	93.20412698412699	72	127
93.02997732426304	93.20412698412699	48	127
93.02997732426304	93.20412698412699	84	127
93.02997732426304	93.14607709750567	60	127
93.02997732426304	93.20412698412699	36	127
93.02997732426304	93.20412698412699	67	127
93.05319727891157	93.20412698412699	84	127
93.05319727891157	93.20412698412699	76	127
93.14607709750567	93.23893424036281	61	127
93.23893424036281	93.34342403628118	60	127
93.34342403628118	93.42471655328798	48	127
93.4479365079365	93.54081632653062	60	127
93.4479365079365	93.61047619047619	36	127
93.4479365079365	93.61047619047619	48	127
93.4479365079365	93.61047619047619	68	127
93.4479365079365	93.61047619047619	65	127
93.47113378684807	93.61047619047619	72	127
93.47113378684807	93.61047619047619	77	127
93.47113378684807	93.61047619047619	84	127
93.47113378684807	93.61047619047619	83	127
93.54081632653062	93.64530612244899	61	127
93.64530612244899	93.7962358276644	60	127
93.7962358276644	93.9239455782313	48	127
93.94716553287982	94.10968253968254	84	127
93.94716553287982	94.10968253968254	48	127
93.94716553287982	94.10968253968254	36	127
93.94716553287982	94.10968253968254	67	127
93.94716553287982	94.04004535147392	60	127
93.94716553287982	94.10968253968254	72	127
93.97038548752835	94.10968253968254	76	127
93.97038548752835	94.10968253968254	84	127
94.04004535147392	94.16775510204081	61	127
94.16775510204081	94.29546485260771	60	127
94.29546485260771	94.38832199546485	48	127
94.41156462585035	94.50444444444445	60	127
94.41156462585035	94.57410430839002	36	127
94.41156462585035	94.57410430839002	48	127
94.41156462585035	94.57410430839002	68	127
94.41156462585035	94.57410430839002	65	127
94.43478458049887	94.57410430839002	77	127
94.43478458049887	94.57410430839002	84	127
94.43478458049887	94.57410430839002	83	127
94.43478458049887	94.57410430839002	72	127
94.50444444444445	94.60893424036281	61	127
94.60893424036281	94.75986394557823	60	127
94.75986394557823	94.8991836734694	48	127
94.91079365079365	94.9920634920635	60	127
94.91079365079365	94.9920634920635	48	127
94.91079365079365	95.07333333333334	72	127
94.91079365079365	95.07333333333334	84	127
94.91079365079365	95.0849433106576	67	127
94.94562358276644	95.0849433106576	76	127
94.94562358276644	95.0849433106576	84	127
95.01528344671202	95.09655328798186	60	127
95.01528344671202	95.09655328798186	48	127
95.10816326530612	95.18943310657596	61	127
95.10816326530612	95.18943310657596	49	127
95.21265306122449	95.29392290249433	61	127
95.21265306122449	95.29392290249433	49	127
95.3055328798186	95.37519274376417	60	127
95.3055328798186	95.37519274376417	48	127
95.3984126984127	95.46807256235827	60	127
95.3984126984127	95.46807256235827	48	127
95.47968253968254	95.56095238095239	61	127
95.47968253968254	95.56095238095239	49	127
95.58417233560091	95.65383219954649	61	127
95.58417233560091	95.65383219954649	49	127
95.66544217687076	95.73510204081633	60	127
95.66544217687076	95.73510204081633	48	127
95.75832199546485	95.82798185941043	60	127
95.75832199546485	95.82798185941043	48	127
95.8395918367347	95.92086167800454	59	127
95.8395918367347	95.92086167800454	47	127
95.94408163265307	96.0253514739229	59	127
95.94408163265307	96.0253514739229	47	127
96.03696145124717	96.12984126984126	60	127
96.03696145124717	96.12984126984126	48	127
96.15306122448979	96.21111111111111	60	127
96.15306122448979	96.21111111111111	48	127
96.22272108843538	96.30399092970522	58	127
96.22272108843538	96.30399092970522	46	127
96.32721088435375	96.40848072562358	58	127
96.32721088435375	96.40848072562358	46	127
96.42009070294785	96.51297052154194	56	127
96.42009070294785	96.51297052154194	44	127
96.53619047619047	96.61746031746031	56	127
96.53619047619047	96.61746031746031	44	127
96.62907029478458	96.71034013605443	58	127
96.62907029478458	96.71034013605443	46	127
96.73356009070295	96.8148299319728	58	127
96.73356009070295	96.8148299319728	46	127
96.82643990929705	96.9077097505669	56	127
96.82643990929705	96.9077097505669	44	127
96.93092970521542	97.01219954648526	56	127
96.93092970521542	97.01219954648526	44	127
97.02380952380952	97.0934693877551	58	127
97.02380952380952	97.0934693877551	46	127
97.11668934240363	97.1863492063492	58	127
97.11668934240363	97.1863492063492	46	127
97.19795918367348	97.2792290249433	56	127
97.19795918367348	97.2792290249433	44	127
97.30244897959183	97.38371882086167	56	127
97.30244897959183	97.38371882086167	44	127
97.39532879818594	97.47659863945579	55	127
97.39532879818594	97.47659863945579	43	127
97.49981859410431	97.58108843537416	55	127
97.49981859410431	97.58108843537416	43	127
97.59269841269841	97.65074829931973	56	127
97.59269841269841	97.65074829931973	44	127
97.67396825396825	97.7552380952381	56	127
97.67396825396825	97.7552380952381	44	127
97.76684807256235	97.8481179138322	55	127
97.76684807256235	97.8481179138322	43	127
97.87133786848072	97.9409977324263	55	127
97.87133786848072	97.9409977324263	43	127
97.95260770975057	98.02226757369614	53	127
97.95260770975057	98.02226757369614	65	127
97.95260770975057	98.26607709750567	41	127
98.03387755102041	98.11514739229025	53	127
98.03387755102041	98.11514739229025	65	127
98.12675736961451	98.21963718820862	60	127
98.12675736961451	98.21963718820862	60	127
98.24285714285715	98.32412698412699	60	127
98.24285714285715	98.32412698412699	60	127
98.33573696145125	98.41700680272109	72	127
98.33573696145125	98.41700680272109	69	127
98.33573696145125	98.61437641723356	84	127
98.44022675736962	98.50988662131519	72	127
98.44022675736962	98.50988662131519	69	127
98.52149659863946	98.59115646258503	65	127
98.52149659863946	98.59115646258503	69	127
98.52149659863946	98.67242630385488	48	127
98.61437641723356	98.68403628117913	69	127
98.61437641723356	98.68403628117913	65	127
98.61437641723356	98.6956462585034	86	127
98.6956462585034	98.81174603174603	84	127
98.6956462585034	98.76530612244898	65	127
98.6956462585034	98.76530612244898	57	127
98.6956462585034	99.00911564625851	53	127
98.7885260770975	98.86979591836734	57	127
98.7885260770975	98.86979591836734	65	127
98.88140589569161	98.96267573696146	60	127
98.88140589569161	99.00911564625851	81	127
98.88140589569161	98.96267573696146	60	127
98.98589569160998	99.03233560090703	60	127
98.98589569160998	99.03233560090703	60	127
99.04394557823129	99.12521541950113	72	127
99.04394557823129	99.12521541950113	69	127
99.04394557823129	99.17165532879818	77	127
99.14843537414966	99.21809523809524	72	127
99.14843537414966	99.21809523809524	69	127
99.2297052154195	99.31097505668934	69	127
99.2297052154195	99.31097505668934	65	127
99.2297052154195	99.3574149659864	74	127
99.2297052154195	99.39224489795919	48	127
99.33419501133787	99.41546485260771	69	127
99.33419501133787	99.41546485260771	65	127
99.42707482993197	99.50834467120181	57	127
99.42707482993197	99.50834467120181	65	127
99.42707482993197	99.56639455782313	72	127
99.42707482993197	99.7637641723356	53	127
99.53156462585034	99.62444444444445	57	127
99.53156462585034	99.62444444444445	65	127
99.6360544217687	99.71732426303855	60	127
99.6360544217687	99.7637641723356	69	127
99.6360544217687	99.71732426303855	60	127
99.74054421768707	99.82181405895692	60	127
99.74054421768707	99.82181405895692	60	127
99.83342403628117	99.91469387755102	72	127
99.83342403628117	99.91469387755102	69	127
99.83342403628117	100.23977324263039	72	127
99.93791383219954	100.01918367346939	69	127
99.93791383219954	100.01918367346939	72	127
100.03079365079365	100.1120634920635	69	127
100.03079365079365	100.1120634920635	65	127
100.03079365079365	100.2049433106576	48	127
100.14689342403628	100.22816326530612	69	127
100.14689342403628	100.22816326530612	65	127
100.23977324263039	100.32104308390022	72	127
100.23977324263039	100.32104308390022	69	127
100.23977324263039	100.54163265306123	69	127
100.23977324263039	100.54163265306123	41	127
100.35587301587302	100.43714285714286	72	127
100.35587301587302	100.43714285714286	69	127
100.44875283446711	100.49519274376418	69	127
100.44875283446711	100.49519274376418	65	127
100.5184126984127	100.59968253968253	65	127
100.5184126984127	100.59968253968253	69	127
100.6112925170068	100.68095238095238	65	127
100.6112925170068	100.68095238095238	57	127
100.7041723356009	100.77383219954649	65	127
100.7041723356009	100.77383219954649	57	127
100.78544217687075	100.94798185941043	77	127
100.78544217687075	100.85510204081632	60	127
100.78544217687075	100.85510204081632	60	127
100.78544217687075	100.91315192743764	45	127
100.87832199546486	100.93637188208616	60	127
100.87832199546486	100.93637188208616	60	127
100.94798185941043	101.04086167800453	70	127
100.94798185941043	101.04086167800453	62	127
100.94798185941043	101.08730158730158	79	127
100.94798185941043	101.28467120181406	41	127
101.06408163265306	101.1453514739229	62	127
101.06408163265306	101.1453514739229	70	127
101.15696145124717	101.238231292517	65	127
101.15696145124717	101.28467120181406	77	127
101.15696145124717	101.238231292517	65	127
101.26145124716554	101.33111111111111	65	127
101.26145124716554	101.33111111111111	65	127
101.34272108843537	101.87678004535148	74	127
101.34272108843537	101.42399092970521	70	127
101.34272108843537	101.42399092970521	74	127
101.44721088435374	101.52848072562358	70	127
101.44721088435374	101.52848072562358	74	127
101.54009070294785	101.60975056689342	65	127
101.54009070294785	101.60975056689342	70	127
101.54009070294785	101.679410430839	46	127
101.63297052154195	101.70263038548752	65	127
101.63297052154195	101.70263038548752	70	127
101.7142403628118	101.79551020408164	74	127
101.7142403628118	101.79551020408164	70	127
101.7142403628118	102.00448979591837	41	127
101.81873015873016	101.9	74	127
101.81873015873016	101.9	70	127
101.91160997732426	101.9928798185941	70	127
101.91160997732426	102.07414965986395	72	127
101.91160997732426	101.9928798185941	65	127
102.00448979591837	102.06253968253968	65	127
102.00448979591837	102.06253968253968	70	127
102.07414965986395	102.16702947845805	62	127
102.07414965986395	102.16702947845805	65	127
102.07414965986395	102.25990929705216	70	127
102.19024943310657	102.24829931972789	62	127
102.19024943310657	102.24829931972789	65	127
102.25990929705216	102.34117913832199	62	127
102.25990929705216	102.34117913832199	58	127
102.25990929705216	102.42244897959183	77	127
102.25990929705216	102.42244897959183	46	127
102.36439909297052	102.44566893424036	62	127
102.36439909297052	102.44566893424036	58	127
102.44566893424036	102.82879818594104	72	127
102.44566893424036	102.51532879818595	65	127
102.44566893424036	102.51532879818595	57	127
102.44566893424036	102.75913832199547	41	127
102.53854875283447	102.6198185941043	57	127
102.53854875283447	102.6198185941043	65	127
102.63142857142857	102.71269841269842	60	127
102.63142857142857	102.71269841269842	60	127
102.73591836734694	102.81718820861678	60	127
102.73591836734694	102.81718820861678	60	127
102.82879818594104	102.91006802721088	72	127
102.82879818594104	102.91006802721088	69	127
102.82879818594104	103.01455782312925	69	127
102.94489795918368	103.03777777777778	72	127
102.94489795918368	103.03777777777778	69	127
103.04938775510205	103.14226757369615	69	127
103.04938775510205	103.14226757369615	65	127
103.04938775510205	103.22353741496599	48	127
103.16548752834467	103.24675736961451	69	127
103.16548752834467	103.24675736961451	65	127
103.24675736961451	103.32802721088436	65	127
103.24675736961451	103.32802721088436	57	127
103.24675736961451	103.38607709750566	53	127
103.35124716553288	103.43251700680273	65	127
103.35124716553288	103.43251700680273	57	127
103.44412698412698	103.52539682539683	60	127
103.44412698412698	103.52539682539683	60	127
103.44412698412698	103.58344671201814	53	127
103.54861678004535	103.6298866213152	60	127
103.54861678004535	103.6298866213152	60	127
103.64149659863945	103.71115646258504	69	127
103.64149659863945	103.71115646258504	72	127
103.64149659863945	103.92013605442177	84	127
103.73437641723356	103.80403628117914	69	127
103.73437641723356	103.80403628117914	72	127
103.8156462585034	103.89691609977324	69	127
103.8156462585034	103.89691609977324	65	127
103.8156462585034	103.95496598639455	48	127
103.92013605442177	104.0014058956916	69	127
103.92013605442177	104.0014058956916	65	127
103.92013605442177	104.01301587301587	86	127
104.01301587301587	104.08267573696145	65	127
104.01301587301587	104.11750566893424	84	127
104.01301587301587	104.1291156462585	53	127
104.01301587301587	104.08267573696145	57	127
104.10589569160997	104.17555555555556	57	127
104.10589569160997	104.17555555555556	65	127
104.18716553287982	104.26843537414966	60	127
104.18716553287982	104.26843537414966	60	127
104.18716553287982	104.31487528344671	81	127
104.18716553287982	104.32648526077098	53	127
104.29165532879819	104.38453514739228	60	127
104.29165532879819	104.38453514739228	60	127
104.39614512471655	104.4774149659864	72	127
104.39614512471655	104.4774149659864	69	127
104.39614512471655	104.50063492063492	77	127
104.50063492063492	104.55868480725624	72	127
104.50063492063492	104.55868480725624	69	127
104.5702947845805	104.65156462585034	69	127
104.5702947845805	104.65156462585034	65	127
104.5702947845805	104.69800453514739	74	127
104.5702947845805	104.70961451247166	48	127
104.67478458049887	104.75605442176871	65	127
104.67478458049887	104.75605442176871	69	127
104.76766439909296	104.84893424036281	57	127
104.76766439909296	104.90698412698413	72	127
104.76766439909296	104.84893424036281	65	127
104.76766439909296	104.91859410430838	53	127
104.8837641723356	104.96503401360545	65	127
104.8837641723356	104.96503401360545	57	127
104.9766439909297	105.09274376417234	69	127
104.9766439909297	105.05791383219955	60	127
104.9766439909297	105.05791383219955	60	127
104.9766439909297	105.1043537414966	53	127
105.08113378684807	105.15079365079364	60	127
105.08113378684807	105.15079365079364	60	127
105.16240362811791	105.22045351473923	69	127
105.16240362811791	105.22045351473923	72	127
105.16240362811791	105.52231292517007	72	127
105.24367346938776	105.31333333333333	69	127
105.24367346938776	105.31333333333333	72	127
105.3249433106576	105.40621315192743	69	127
105.3249433106576	105.40621315192743	65	127
105.3249433106576	105.46426303854875	48	127
105.42943310657597	105.5107029478458	65	127
105.42943310657597	105.5107029478458	69	127
105.52231292517007	105.60358276643991	72	127
105.52231292517007	105.60358276643991	69	127
105.52231292517007	105.6384126984127	53	127
105.52231292517007	105.8241723356009	69	127
105.61519274376417	105.68485260770976	72	127
105.61519274376417	105.68485260770976	69	127
105.69646258503401	105.77773242630386	65	127
105.69646258503401	105.77773242630386	69	127
105.69646258503401	105.83578231292518	53	127
105.80095238095238	105.87061224489796	69	127
105.80095238095238	105.87061224489796	65	127
105.88222222222223	105.97510204081632	65	127
105.88222222222223	105.97510204081632	57	127
105.99832199546485	106.07959183673469	65	127
105.99832199546485	106.07959183673469	57	127
106.09120181405896	106.17247165532879	69	127
106.09120181405896	106.17247165532879	60	127
106.09120181405896	106.23052154195011	53	127
106.09120181405896	106.28857142857143	77	127
106.19569160997733	106.27696145124716	60	127
106.19569160997733	106.27696145124716	69	127
106.28857142857143	106.34662131519275	61	127
106.28857142857143	106.81102040816326	76	127
106.28857142857143	106.55560090702947	69	127
106.28857142857143	106.42789115646258	49	127
106.36984126984127	106.45111111111112	61	127
106.46272108843537	106.53238095238095	57	127
106.55560090702947	106.63687074829932	57	127
106.55560090702947	106.62526077097506	70	127
106.64848072562359	106.77619047619048	69	127
106.64848072562359	106.72975056689343	57	127
106.64848072562359	106.88068027210885	49	127
106.75297052154195	106.82263038548753	57	127
106.8342403628118	106.97356009070295	64	127
106.8342403628118	106.91551020408163	61	127
106.8342403628118	107.03160997732427	79	127
106.93873015873015	107.02	61	127
106.93873015873015	107.02	45	127
107.03160997732427	107.20575963718821	50	127
107.03160997732427	107.12448979591836	62	127
107.03160997732427	107.65854875283446	77	127
107.03160997732427	107.34507936507937	69	127
107.14770975056689	107.22897959183673	62	127
107.240589569161	107.32185941043083	57	127
107.34507936507937	107.41473922902495	70	127
107.34507936507937	107.4263492063492	57	127
107.43795918367347	107.62371882086168	69	127
107.43795918367347	107.51922902494331	57	127
107.43795918367347	107.72820861678005	50	127
107.56566893424036	107.67015873015873	57	127
107.68176870748299	107.87913832199547	81	127
107.68176870748299	107.76303854875283	62	127
107.68176870748299	107.82108843537415	65	127
107.78625850340136	107.8675283446712	62	127
107.78625850340136	107.8675283446712	50	127
107.87913832199547	108.44802721088435	79	127
107.87913832199547	108.04167800453514	52	127
107.87913832199547	108.1809977324263	72	127
107.87913832199547	107.9604081632653	64	127
107.98362811791384	108.06489795918367	64	127
108.06489795918367	108.15777777777778	60	127
108.1809977324263	108.26226757369615	60	127
108.1809977324263	108.25065759637188	74	127
108.2738775510204	108.35514739229025	60	127
108.2738775510204	108.41319727891157	72	127
108.2738775510204	108.51768707482994	52	127
108.37836734693877	108.45963718820862	60	127
108.47124716553287	108.68022675736961	82	127
108.47124716553287	108.55251700680272	64	127
108.47124716553287	108.6221768707483	67	127
108.57573696145124	108.66861678004535	64	127
108.57573696145124	108.66861678004535	48	127
108.68022675736961	109.27233560090703	80	127
108.68022675736961	108.76149659863945	65	127
108.68022675736961	108.86598639455782	53	127
108.68022675736961	109.00530612244899	72	127
108.78471655328798	108.88920634920635	65	127
108.90081632653062	108.98208616780046	60	127
109.00530612244899	109.07496598639456	73	127
109.00530612244899	109.08657596371881	60	127
109.09818594104308	109.3419954648526	53	127
109.09818594104308	109.23750566893425	72	127
109.09818594104308	109.17945578231293	60	127
109.20267573696145	109.2839455782313	60	127
109.29555555555555	109.44648526077097	68	127
109.29555555555555	109.3768253968254	65	127
109.29555555555555	109.50453514739229	84	127
109.41165532879819	109.49292517006803	65	127
109.41165532879819	109.49292517006803	53	127
109.50453514739229	109.98054421768707	75	127
109.50453514739229	109.66707482993198	55	127
109.50453514739229	109.58580498866213	67	127
109.50453514739229	109.80639455782313	75	127
109.50453514739229	109.98054421768707	83	127
109.60902494331066	109.6902947845805	67	127
109.70190476190476	109.7831746031746	63	127
109.80639455782313	109.88766439909297	63	127
109.80639455782313	109.87605442176871	77	127
109.89927437641724	110.03859410430839	75	127
109.89927437641724	110.1314739229025	55	127
109.89927437641724	109.98054421768707	67	127
110.00376417233561	110.08503401360544	67	127
110.08503401360544	110.23596371882086	75	127
110.08503401360544	110.15469387755103	68	127
110.08503401360544	110.21274376417233	72	127
110.08503401360544	110.23596371882086	84	127
110.17791383219955	110.2591836734694	68	127
110.17791383219955	110.2591836734694	56	127
110.27079365079365	110.3520634920635	67	127
110.27079365079365	110.43333333333334	55	127
110.27079365079365	110.73519274376417	75	127
110.27079365079365	110.73519274376417	83	127
110.27079365079365	110.56104308390023	75	127
110.37528344671202	110.45655328798186	67	127
110.46816326530612	110.5378231292517	63	127
110.56104308390023	110.64231292517007	63	127
110.56104308390023	110.6307029478458	77	127
110.65392290249433	110.92095238095239	55	127
110.65392290249433	110.79324263038549	75	127
110.65392290249433	110.73519274376417	67	127
110.7584126984127	110.86290249433107	67	127
110.87451247165532	111.03705215419501	84	127
110.87451247165532	110.95578231292517	68	127
110.87451247165532	111.01383219954648	72	127
110.87451247165532	111.03705215419501	75	127
110.97900226757369	111.06027210884353	68	127
110.97900226757369	111.06027210884353	56	127
111.0718820861678	111.15315192743765	67	127
111.0718820861678	111.23442176870748	83	127
111.0718820861678	111.23442176870748	75	127
111.0718820861678	111.23442176870748	55	127
111.17637188208617	111.257641723356	67	127
111.26925170068027	111.35052154195012	63	127
111.26925170068027	111.43179138321996	71	127
111.37374149659864	111.45501133786848	63	127
111.46662131519274	111.54789115646258	68	127
111.46662131519274	111.65238095238095	84	127
111.46662131519274	111.65238095238095	75	127
111.46662131519274	111.65238095238095	56	127
111.57111111111111	111.67560090702948	68	127
111.68721088435375	111.76848072562358	63	127
111.68721088435375	111.86136054421769	72	127
111.80331065759637	111.88458049886621	63	127
111.89619047619047	111.97746031746031	67	127
111.89619047619047	112.05873015873016	83	127
111.89619047619047	112.05873015873016	75	127
111.89619047619047	112.05873015873016	55	127
112.00068027210884	112.08195011337868	67	127
112.09356009070295	112.25609977324262	71	127
112.09356009070295	112.1748299319728	63	127
112.19804988662132	112.27931972789116	63	127
112.29092970521542	112.38380952380952	68	127
112.29092970521542	112.46507936507936	84	127
112.29092970521542	112.46507936507936	75	127
112.29092970521542	112.46507936507936	56	127
112.40702947845806	112.48829931972789	68	127
112.49990929705216	112.581179138322	63	127
112.49990929705216	112.66244897959184	72	127
112.60439909297052	112.69727891156462	63	127
112.7088888888889	112.88303854875284	84	127
112.7088888888889	112.88303854875284	72	127
112.7088888888889	112.88303854875284	76	127
112.7088888888889	112.88303854875284	70	127
112.7088888888889	112.88303854875284	60	127
112.7088888888889	112.88303854875284	55	127
112.95269841269841	113.17328798185942	72	127
113.21972789115647	113.39387755102041	72	127
113.21972789115647	113.39387755102041	84	127
113.21972789115647	113.39387755102041	76	127
113.21972789115647	113.39387755102041	70	127
113.21972789115647	113.39387755102041	60	127
113.21972789115647	113.39387755102041	55	127
113.4287074829932	113.6492970521542	72	127
113.68412698412699	113.89310657596371	84	127
113.68412698412699	113.89310657596371	72	127
113.68412698412699	113.89310657596371	76	127
113.68412698412699	113.89310657596371	70	127
113.68412698412699	113.89310657596371	60	127
113.68412698412699	113.89310657596371	55	127
113.93954648526078	114.12530612244898	72	127
114.16013605442177	114.33428571428571	72	127
114.16013605442177	114.33428571428571	84	127
114.16013605442177	114.33428571428571	76	127
114.16013605442177	114.33428571428571	70	127
114.16013605442177	114.33428571428571	60	127
114.16013605442177	114.33428571428571	55	127
114.3691156462585	114.53165532879818	72	127
114.56648526077097	114.61292517006802	77	127
114.56648526077097	114.64775510204082	84	127
114.56648526077097	114.64775510204082	48	127
114.56648526077097	114.64775510204082	58	127
114.56648526077097	114.64775510204082	48	127
114.61292517006802	114.67097505668934	76	127
114.67097505668934	114.71741496598639	77	127
114.67097505668934	114.75224489795919	84	127
114.67097505668934	114.75224489795919	58	127
114.67097505668934	114.75224489795919	48	127
114.67097505668934	114.75224489795919	48	127
114.71741496598639	114.76385487528344	76	127
114.76385487528344	114.81029478458049	77	127
114.76385487528344	114.84512471655329	86	127
114.76385487528344	114.84512471655329	48	127
114.76385487528344	114.84512471655329	58	127
114.76385487528344	114.84512471655329	46	127
114.81029478458049	114.86834467120181	76	127
114.86834467120181	114.91478458049886	77	127
114.86834467120181	114.94961451247165	86	127
114.86834467120181	114.94961451247165	48	127
114.86834467120181	114.94961451247165	58	127
114.86834467120181	114.94961451247165	46	127
114.91478458049886	114.96122448979592	76	127
114.96122448979592	115.00766439909297	77	127
114.96122448979592	115.04249433106575	88	127
114.96122448979592	115.04249433106575	48	127
114.96122448979592	115.04249433106575	58	127
114.96122448979592	115.04249433106575	45	127
115.00766439909297	115.06571428571428	76	127
115.06571428571428	115.1237641723356	77	127
115.06571428571428	115.15859410430839	88	127
115.06571428571428	115.15859410430839	48	127
115.06571428571428	115.15859410430839	58	127
115.06571428571428	115.15859410430839	45	127
115.1237641723356	115.17020408163265	76	127
115.17020408163265	115.21664399092971	77	127
115.17020408163265	115.25147392290249	89	127
115.17020408163265	115.25147392290249	48	127
115.17020408163265	115.25147392290249	58	127
115.17020408163265	115.25147392290249	43	127
115.21664399092971	115.27469387755102	76	127
115.27469387755102	115.32113378684807	77	127
115.27469387755102	115.35596371882086	89	127
115.27469387755102	115.35596371882086	58	127
115.27469387755102	115.35596371882086	48	127
115.27469387755102	115.35596371882086	43	127
115.32113378684807	115.36757369614513	76	127
115.36757369614513	115.41401360544218	77	127
115.36757369614513	115.46045351473923	91	127
115.36757369614513	115.46045351473923	48	127
115.36757369614513	115.46045351473923	58	127
115.36757369614513	115.46045351473923	41	127
115.41401360544218	115.48367346938775	76	127
115.48367346938775	115.5301133786848	77	127
115.48367346938775	115.58816326530612	91	127
115.48367346938775	115.58816326530612	58	127
115.48367346938775	115.58816326530612	48	127
115.48367346938775	115.58816326530612	41	127
115.5301133786848	115.59977324263039	76	127
115.59977324263039	115.64621315192744	77	127
115.59977324263039	115.68104308390022	93	127
115.59977324263039	115.68104308390022	48	127
115.59977324263039	115.68104308390022	58	127
115.59977324263039	115.68104308390022	40	127
115.64621315192744	115.70426303854876	76	127
115.70426303854876	115.75070294784581	77	127
115.70426303854876	115.78553287981859	93	127
115.70426303854876	115.78553287981859	48	127
115.70426303854876	115.78553287981859	58	127
115.70426303854876	115.78553287981859	40	127
115.75070294784581	115.79714285714286	76	127
115.79714285714286	115.84358276643991	77	127
115.79714285714286	115.8784126984127	94	127
115.79714285714286	115.8784126984127	48	127
115.79714285714286	115.8784126984127	58	127
115.79714285714286	115.8784126984127	38	127
115.84358276643991	115.90163265306123	76	127
115.90163265306123	115.99451247165533	58	127
115.90163265306123	115.95968253968255	77	127
115.90163265306123	115.99451247165533	94	127
115.90163265306123	115.99451247165533	48	127
115.90163265306123	115.99451247165533	38	127
115.95968253968255	116.0061224489796	76	127
116.0061224489796	116.08739229024944	58	127
116.0061224489796	116.05256235827665	77	127
116.0061224489796	116.08739229024944	48	127
116.0061224489796	116.08739229024944	96	127
116.0061224489796	116.08739229024944	36	127
116.05256235827665	116.11061224489796	76	127
116.11061224489796	116.15705215419501	77	127
116.11061224489796	116.1918820861678	96	127
116.11061224489796	116.1918820861678	58	127
116.11061224489796	116.1918820861678	48	127
116.11061224489796	116.1918820861678	36	127
116.15705215419501	116.20349206349206	76	127
116.20349206349206	116.59823129251701	48	127
116.20349206349206	116.59823129251701	89	127
116.20349206349206	116.59823129251701	77	127
116.20349206349206	116.59823129251701	69	127
116.20349206349206	116.59823129251701	57	127
116.20349206349206	116.59823129251701	41	127
116.96975056689342	117.10907029478459	89	127
116.96975056689342	117.10907029478459	77	127
116.96975056689342	117.10907029478459	65	127
116.96975056689342	117.10907029478459	65	127
117.19034013605442	117.3528798185941	86	127
117.19034013605442	117.3528798185941	74	127
117.19034013605442	117.3528798185941	62	127
117.19034013605442	117.3528798185941	62	127
117.42253968253968	117.55024943310657	84	127
117.42253968253968	117.55024943310657	72	127
117.42253968253968	117.55024943310657	60	127
117.42253968253968	117.55024943310657	60	127
117.61990929705216	117.77083900226758	81	127
117.61990929705216	117.77083900226758	69	127
117.61990929705216	117.77083900226758	57	127
117.61990929705216	117.77083900226758	57	127
117.86371882086168	117.99142857142857	53	127
117.86371882086168	117.99142857142857	77	127
117.86371882086168	117.99142857142857	65	127
117.86371882086168	117.99142857142857	53	127
118.09591836734694	118.25845804988663	74	127
118.09591836734694	118.25845804988663	62	127
118.09591836734694	118.25845804988663	50	127
118.09591836734694	118.25845804988663	50	127
118.33972789115646	118.59514739229024	74	127
118.33972789115646	118.59514739229024	62	127
118.33972789115646	118.59514739229024	50	127
118.33972789115646	118.59514739229024	50	127
118.66480725623583	118.72285714285714	74	127
118.66480725623583	118.72285714285714	62	127
118.66480725623583	118.72285714285714	50	127
118.66480725623583	118.72285714285714	50	127
118.7692970521542	118.90861678004535	74	127
118.7692970521542	118.90861678004535	62	127
118.7692970521542	118.90861678004535	50	127
118.7692970521542	118.90861678004535	50	127
118.97827664399092	119.14081632653061	74	127
118.97827664399092	119.14081632653061	62	127
118.97827664399092	119.14081632653061	50	127
118.97827664399092	119.14081632653061	50	127
119.22208616780046	119.38462585034014	74	127
119.22208616780046	119.38462585034014	62	127
119.22208616780046	119.38462585034014	50	127
119.22208616780046	119.38462585034014	50	127
119.66326530612245	119.79097505668935	89	127
119.66326530612245	119.79097505668935	77	127
119.66326530612245	119.82580498866213	65	127
119.66326530612245	119.82580498866213	65	127
119.87224489795918	119.98834467120182	85	127
119.87224489795918	119.98834467120182	73	127
119.87224489795918	119.98834467120182	61	127
119.87224489795918	119.98834467120182	61	127
120.06961451247166	120.20893424036281	84	127
120.06961451247166	120.20893424036281	72	127
120.06961451247166	120.20893424036281	60	127
120.06961451247166	120.20893424036281	60	127
120.31342403628118	120.42952380952381	56	127
120.31342403628118	120.42952380952381	80	127
120.31342403628118	120.42952380952381	68	127
120.31342403628118	120.42952380952381	56	127
120.53401360544218	120.66172335600908	65	127
120.53401360544218	120.66172335600908	77	127
120.53401360544218	120.66172335600908	53	127
120.53401360544218	120.66172335600908	53	127
120.73138321995465	120.88231292517007	73	127
120.73138321995465	120.88231292517007	61	127
120.73138321995465	120.88231292517007	49	127
120.73138321995465	120.88231292517007	49	127
121.04485260770976	121.24222222222222	49	127
121.04485260770976	121.24222222222222	49	127
121.04485260770976	121.3118820861678	73	127
121.04485260770976	121.3118820861678	61	127
121.39315192743764	121.45120181405896	73	127
121.39315192743764	121.45120181405896	61	127
121.46281179138322	121.57891156462586	73	127
121.46281179138322	121.57891156462586	61	127
121.63696145124716	121.77628117913832	73	127
121.63696145124716	121.77628117913832	61	127
121.63696145124716	121.81111111111112	49	127
121.63696145124716	121.81111111111112	49	127
121.85755102040817	122.04331065759636	73	127
121.85755102040817	122.04331065759636	61	127
121.85755102040817	122.12458049886621	49	127
121.85755102040817	122.12458049886621	49	127
122.18263038548753	122.2522902494331	49	127
122.18263038548753	122.2522902494331	49	127
122.2871201814059	122.46126984126984	49	127
122.2871201814059	122.46126984126984	49	127
122.54253968253968	122.70507936507937	49	127
122.54253968253968	122.70507936507937	49	127
122.54253968253968	122.75151927437642	61	127
122.79795918367347	122.98371882086168	49	127
122.79795918367347	122.98371882086168	49	127
122.79795918367347	123.07659863945578	61	127
123.14625850340136	123.21591836734694	61	127
123.25074829931972	123.41328798185941	61	127
123.49455782312926	123.65709750566893	61	127
123.49455782312926	123.69192743764172	49	127
123.49455782312926	123.69192743764172	37	127
123.74997732426304	123.92412698412699	61	127
123.74997732426304	124.02861678004535	49	127
123.74997732426304	124.02861678004535	37	127
124.1679365079365	124.35369614512472	49	127
124.1679365079365	124.35369614512472	37	127
124.50462585034013	124.7019954648526	49	127
124.50462585034013	124.7019954648526	37	127
124.80648526077097	125.00385487528345	49	127
124.80648526077097	125.00385487528345	37	127
125.13156462585034	125.34054421768707	49	127
125.13156462585034	125.34054421768707	37	127
125.13156462585034	126.06036281179138	61	127
126.06036281179138	127.01238095238095	65	127
127.01238095238095	127.84829931972789	58	127
127.01238095238095	127.84829931972789	66	127
127.84829931972789	128.76548752834466	65	127
127.84829931972789	128.76548752834466	61	127
128.80031746031747	129.64784580498866	49	127
128.80031746031747	129.64784580498866	65	127
128.80031746031747	131.04104308390023	68	127
129.64784580498866	130.6114739229025	53	127
129.64784580498866	131.02943310657596	60	127
130.6114739229025	131.51702947845806	54	127
131.04104308390023	131.51702947845806	58	127
131.04104308390023	131.96984126984128	66	127
131.51702947845806	134.37310657596373	49	127
131.51702947845806	132.50390022675737	56	127
131.96984126984128	132.5387074829932	65	127
132.55034013605442	133.44430839002268	61	127
132.55034013605442	133.44430839002268	49	127
132.55034013605442	134.37310657596373	61	127
133.44430839002268	134.39632653061224	46	127
133.44430839002268	134.39632653061224	66	127
134.39632653061224	135.2554648526077	44	127
134.39632653061224	135.2554648526077	66	127
134.39632653061224	136.9505215419501	51	127
134.39632653061224	137.80965986394557	60	127
135.2554648526077	136.06814058956917	43	127
135.2554648526077	135.89401360544218	67	127
136.09138321995465	136.5209523809524	68	127
136.09138321995465	136.5209523809524	42	127
136.5209523809524	136.9505215419501	41	127
136.5209523809524	136.9505215419501	69	127
136.9505215419501	137.38009070294785	52	127
136.9505215419501	137.38009070294785	40	127
136.9505215419501	137.80965986394557	69	127
137.38009070294785	137.82126984126984	53	127
137.38009070294785	137.82126984126984	39	127
137.8328798185941	139.1215873015873	65	127
137.8328798185941	138.29727891156463	70	127
137.8328798185941	138.29727891156463	38	127
137.8328798185941	138.69201814058957	53	127
138.29727891156463	138.69201814058957	37	127
138.29727891156463	138.69201814058957	71	127
138.69201814058957	139.1215873015873	36	127
138.69201814058957	139.1215873015873	57	127
138.69201814058957	139.35378684807256	74	127
139.1215873015873	139.57437641723357	58	127
139.1215873015873	139.57437641723357	48	127
139.1215873015873	139.57437641723357	64	127
139.35378684807256	139.57437641723357	72	127
139.57437641723357	139.76013605442176	41	127
139.57437641723357	139.76013605442176	65	127
139.57437641723357	139.76013605442176	57	127
140.01555555555555	140.2245351473923	77	127
140.25934240362812	140.3174149659864	74	127
140.3522448979592	140.47995464852607	72	127
140.56120181405896	140.65410430839003	69	127
140.74698412698413	140.86308390022677	65	127
140.97918367346938	141.19977324263039	53	127
140.97918367346938	141.14172335600907	62	127
140.97918367346938	141.19977324263039	58	127
140.97918367346938	141.19977324263039	46	127
141.24621315192744	141.40875283446712	65	127
141.24621315192744	141.40875283446712	57	127
141.24621315192744	141.40875283446712	53	127
141.24621315192744	141.40875283446712	41	127
141.65256235827664	141.89637188208616	65	127
141.93120181405897	142.00086167800453	62	127
142.03569160997733	142.17501133786848	60	127
142.2562811791383	142.4071882086168	57	127
142.4884807256236	142.61619047619047	53	127
142.69746031746033	142.88321995464852	58	127
142.69746031746033	142.83678004535147	50	127
142.69746031746033	142.88321995464852	65	127
142.69746031746033	142.88321995464852	46	127
142.91802721088436	143.09219954648526	53	127
142.91802721088436	143.09219954648526	69	127
142.91802721088436	143.09219954648526	60	127
142.91802721088436	143.09219954648526	41	127
143.69591836734693	143.90489795918367	53	127
143.69591836734693	143.90489795918367	65	127
143.69591836734693	143.90489795918367	62	127
143.69591836734693	143.90489795918367	46	127
143.95133786848072	144.16031746031746	53	127
143.95133786848072	144.16031746031746	69	127
143.95133786848072	144.16031746031746	60	127
143.95133786848072	144.16031746031746	41	127
144.74081632653062	144.9033560090703	53	127
144.74081632653062	144.9033560090703	65	127
144.74081632653062	144.9033560090703	62	127
144.74081632653062	144.9033560090703	46	127
144.96138321995466	145.37936507936507	41	127
144.96138321995466	145.37936507936507	69	127
144.96138321995466	145.37936507936507	60	127
144.96138321995466	145.37936507936507	53	127
145.76249433106577	146.16884353741497	69	127
146.5055328798186	146.80739229024942	69	127
147.21374149659863	147.45755102040818	69	127
148.13090702947846	149.4892970521542	60	127
148.13090702947846	149.4892970521542	57	127
148.13090702947846	149.4892970521542	69	127
148.13090702947846	149.4892970521542	64	127
149.4892970521542	150.7780045351474	53	127
149.4892970521542	150.7780045351474	74	127
149.4892970521542	150.81283446712018	62	127
149.4892970521542	152.07832199546485	57	127
150.81283446712018	152.1015419501134	76	127
150.81283446712018	152.1015419501134	64	127
150.81283446712018	152.1015419501134	48	127
152.1015419501134	153.28575963718822	57	127
152.1015419501134	153.28575963718822	50	127
152.1015419501134	152.74009070294784	74	127
152.1015419501134	153.28575963718822	65	127
152.74009070294784	153.30897959183673	69	127
153.320589569161	154.50480725623584	48	127
153.320589569161	153.90108843537416	69	127
153.320589569161	154.50480725623584	64	127
153.320589569161	154.50480725623584	57	127
153.90108843537416	155.06208616780046	76	127
154.50480725623584	155.64256235827665	47	127
154.50480725623584	155.64256235827665	65	127
154.50480725623584	155.64256235827665	55	127
155.06208616780046	155.6774149659864	74	127
155.72385487528345	157.70916099773243	72	127
155.72385487528345	156.3043537414966	48	127
155.72385487528345	156.97773242630385	55	127
155.72385487528345	157.70916099773243	64	127
156.3043537414966	156.97773242630385	50	127
156.97773242630385	158.2896598639456	56	127
156.97773242630385	158.2896598639456	52	127
157.70916099773243	158.26643990929705	62	127
157.70916099773243	158.26643990929705	71	127
158.2896598639456	159.86861678004536	69	127
158.2896598639456	159.25328798185942	60	127
158.2896598639456	159.84539682539682	57	127
158.2896598639456	159.86861678004536	57	127
159.25328798185942	159.8570068027211	64	127
159.86861678004536	161.04122448979592	53	127
159.86861678004536	160.0079365079365	62	127
159.86861678004536	160.46072562358276	74	127
159.86861678004536	160.77419501133787	57	127
160.01954648526078	160.14725623582765	64	127
160.14725623582765	160.3214058956916	65	127
160.33301587301588	160.47233560090703	67	127
160.47233560090703	162.20222222222222	69	127
160.47233560090703	161.0528344671202	74	127
160.77419501133787	161.0644217687075	53	127
161.0760544217687	161.66816326530613	51	127
161.0760544217687	161.66816326530613	77	127
161.0760544217687	162.22544217687076	48	127
161.66816326530613	162.22544217687076	52	127
161.66816326530613	162.8059410430839	76	127
162.22544217687076	163.57219954648525	50	127
162.22544217687076	162.8059410430839	58	127
162.22544217687076	163.57219954648525	65	127
162.8059410430839	163.58380952380952	59	127
162.8059410430839	163.08458049886622	74	127
163.08458049886622	163.5954195011338	69	127
163.60702947845806	165.00020408163266	52	127
163.60702947845806	164.222358276644	69	127
163.60702947845806	164.222358276644	64	127
163.60702947845806	164.222358276644	60	127
164.222358276644	165.59233560090703	76	127
164.222358276644	165.00020408163266	57	127
164.222358276644	165.59233560090703	72	127
165.00020408163266	166.21927437641725	65	127
165.00020408163266	166.21927437641725	56	127
165.59233560090703	166.2308843537415	74	127
165.59233560090703	166.2308843537415	71	127
166.25410430839003	167.04356009070295	64	127
166.25410430839003	166.48630385487527	72	127
166.25410430839003	167.86789115646258	64	127
166.25410430839003	167.86789115646258	57	127
166.48630385487527	166.79977324263038	71	127
166.79977324263038	167.04356009070295	69	127
167.04356009070295	167.86789115646258	60	127
167.04356009070295	168.51804988662133	69	127
167.86789115646258	168.51804988662133	65	127
167.86789115646258	168.51804988662133	62	127
167.86789115646258	169.24947845804988	62	127
168.51804988662133	169.2843083900227	65	127
168.51804988662133	169.2843083900227	62	127
168.51804988662133	168.81990929705216	71	127
168.83149659863946	169.2843083900227	67	127
169.29591836734693	169.45845804988662	57	127
169.29591836734693	169.89963718820863	64	127
169.29591836734693	169.89963718820863	60	127
169.29591836734693	170.74716553287982	69	127
169.49328798185942	169.64421768707484	57	127
169.67904761904762	169.86480725623582	57	127
169.89963718820863	171.93138321995465	57	127
169.89963718820863	170.77038548752836	63	127
169.89963718820863	170.77038548752836	59	127
170.77038548752836	170.92131519274378	69	127
170.77038548752836	171.38569160997733	65	127
170.77038548752836	171.38569160997733	62	127
170.95614512471656	171.11868480725624	69	127
171.1651247165533	171.33925170068028	69	127
171.38569160997733	171.80367346938775	64	127
171.38569160997733	172.76727891156463	69	127
171.38569160997733	172.76727891156463	60	127
171.93138321995465	172.76727891156463	45	127
171.93138321995465	172.77891156462584	69	127
172.77891156462584	173.34780045351474	67	127
173.34780045351474	173.4290702947846	69	127
173.4290702947846	173.7077097505669	67	127
173.71931972789116	173.99793650793652	64	127
174.0908390022676	174.2533560090703	64	127
174.3346485260771	174.71777777777777	64	127
174.82226757369614	176.23868480725625	64	127
175.9948752834467	176.19222222222223	69	127
175.9948752834467	177.21390022675737	57	127
175.9948752834467	177.21390022675737	57	127
176.2967120181406	176.4708843537415	72	127
176.58698412698413	176.77274376417233	76	127
176.88884353741497	177.376462585034	81	127
177.21390022675737	178.30526077097505	53	127
177.21390022675737	178.30526077097505	62	127
177.49256235827664	177.6667120181406	77	127
177.77120181405897	177.93371882086169	76	127
178.0730612244898	178.23557823129252	74	127
178.3400680272109	178.69997732426305	81	127
178.3400680272109	179.6404081632653	48	127
178.3400680272109	179.582358276644	64	127
178.76965986394558	178.87414965986395	69	127
178.96702947845804	179.15278911564627	69	127
179.29210884353742	179.84938775510204	69	127
179.6404081632653	180.78979591836736	53	127
179.6404081632653	180.2092970521542	62	127
179.90743764172336	180.1164172335601	71	127
180.2092970521542	180.44149659863945	72	127
180.2092970521542	180.81301587301587	57	127
180.5227664399093	180.75496598639455	74	127
180.82462585034014	181.47478458049886	57	127
180.82462585034014	181.1148752834467	72	127
180.82462585034014	182.07850340136054	52	127
181.1845351473923	181.40510204081633	74	127
181.47478458049886	181.7534240362812	72	127
181.47478458049886	182.5893424036281	64	127
181.8463038548753	182.04367346938776	74	127
182.11333333333334	183.07696145124717	52	127
182.11333333333334	182.3107029478458	76	127
182.36875283446713	182.53126984126985	77	127
182.5893424036281	182.78668934240363	78	127
182.5893424036281	183.11179138321995	62	127
182.85637188208617	183.04210884353742	80	127
183.12340136054422	183.43687074829933	81	127
183.12340136054422	184.21473922902496	52	127
183.12340136054422	184.81845804988663	60	127
183.51814058956916	183.59941043083901	76	127
183.66907029478458	183.82	76	127
183.93609977324263	184.1102494331066	76	127
184.23795918367347	184.41210884353742	76	127
184.23795918367347	185.38734693877552	52	127
184.5398185941043	184.71396825396826	77	127
184.81845804988663	184.99260770975056	74	127
184.81845804988663	185.41056689342403	59	127
185.1087074829932	185.30607709750566	76	127
185.4221768707483	186.59478458049887	57	127
185.4221768707483	185.6079365079365	72	127
185.4221768707483	186.57154195011339	57	127
185.71242630385487	185.93301587301588	69	127
186.0491156462585	186.21163265306123	72	127
186.3277551020408	186.76893424036282	81	127
186.59478458049887	187.16367346938776	62	127
186.59478458049887	187.66290249433106	53	127
186.8734240362812	187.0591836734694	69	127
187.17528344671203	187.6861224489796	62	127
187.17528344671203	187.33780045351475	74	127
187.4422902494331	187.59321995464853	81	127
187.6977097505669	188.74263038548753	48	127
187.6977097505669	187.86027210884353	75	127
187.6977097505669	188.2201814058957	65	127
187.9531292517007	188.1040589569161	69	127
188.2201814058957	188.3711111111111	76	127
188.2201814058957	189.26507936507937	64	127
188.47560090702947	188.89356009070295	81	127
188.74263038548753	189.86879818594105	53	127
188.99804988662132	189.13736961451247	70	127
189.13736961451247	189.27666666666667	71	127
189.27666666666667	189.4392290249433	72	127
189.27666666666667	189.5669387755102	62	127
189.5669387755102	189.88040816326532	57	127
189.5669387755102	189.76430839002268	74	127
189.8919954648526	192.02825396825398	52	127
189.8919954648526	190.05455782312924	72	127
189.8919954648526	190.47251700680272	57	127
190.1590476190476	190.3215873015873	72	127
190.3215873015873	190.47251700680272	74	127
190.47251700680272	191.5174149659864	64	127
190.47251700680272	190.62344671201814	72	127
190.7279365079365	190.8556462585034	72	127
190.8556462585034	190.9833560090703	74	127
190.9833560090703	191.14589569160998	76	127
191.25038548752835	191.41292517006804	77	127
191.5174149659864	191.69156462585033	78	127
191.5174149659864	192.0514739229025	62	127
191.7960544217687	191.9585941043084	80	127
192.06308390022676	192.50426303854874	52	127
192.06308390022676	192.23723356009071	60	127
192.06308390022676	192.38816326530613	81	127
192.23723356009071	192.4229931972789	59	127
192.4229931972789	192.62036281179138	57	127
192.48104308390023	192.59714285714287	76	127
192.62036281179138	193.14281179138322	60	127
192.62036281179138	192.87578231292517	76	127
192.62036281179138	193.81619047619049	57	127
192.94544217687076	193.20086167800454	76	127
193.2705215419501	193.61882086167802	77	127
193.2705215419501	193.5607709750567	62	127
193.5607709750567	193.839410430839	65	127
193.68848072562358	193.80458049886622	74	127
193.839410430839	194.2225396825397	62	127
193.839410430839	194.2225396825397	59	127
193.839410430839	194.1528798185941	74	127
194.2225396825397	194.45473922902494	71	127
194.2225396825397	194.45473922902494	65	127
194.2225396825397	194.501179138322	55	127
194.52439909297053	195.11650793650793	72	127
194.52439909297053	194.64049886621316	57	127
194.52439909297053	195.11650793650793	64	127
194.71015873015872	194.82625850340136	57	127
194.84947845804987	194.95396825396824	57	127
194.98879818594105	195.09328798185942	57	127
195.11650793650793	195.2558276643991	57	127
195.11650793650793	195.7898866213152	71	127
195.11650793650793	195.7898866213152	63	127
195.27904761904762	195.41836734693877	57	127
195.4415873015873	195.59251700680272	57	127
195.63895691609977	195.76666666666668	57	127
195.7898866213152	196.46326530612245	74	127
195.7898866213152	195.9175963718821	57	127
195.7898866213152	196.46326530612245	65	127
195.9408163265306	196.05691609977325	57	127
196.1265759637188	196.25428571428571	57	127
196.27750566893425	196.42843537414967	57	127
196.46326530612245	196.62580498866214	57	127
196.46326530612245	197.1018140589569	64	127
196.46326530612245	197.1018140589569	72	127
196.66063492063492	196.7651247165533	57	127
196.78834467120183	196.9160544217687	57	127
196.96249433106576	197.09020408163266	57	127
197.11342403628117	197.25274376417232	57	127
197.11342403628117	197.90290249433107	69	127
197.11342403628117	200.82861678004537	76	127
197.11342403628117	200.82861678004537	72	127
197.3224036281179	197.5081632653061	57	127
197.5546031746032	197.68231292517007	57	127
197.71714285714285	197.86807256235826	57	127
197.90290249433107	198.03061224489795	57	127
197.90290249433107	198.40213151927438	67	127
198.06544217687076	198.2047619047619	57	127
198.2395918367347	198.3673015873016	57	127
198.40213151927438	198.49501133786848	69	127
198.40213151927438	198.54145124716553	57	127
198.49501133786848	198.57628117913833	67	127
198.57628117913833	198.72721088435375	57	127
198.57628117913833	200.82861678004537	64	127
198.76204081632653	198.98263038548754	57	127
199.01746031746032	199.19160997732428	57	127
199.22643990929706	199.3657596371882	57	127
199.42380952380952	199.56312925170067	57	127
199.59795918367348	199.8069387755102	57	127
199.841768707483	200.1552380952381	57	127
200.19006802721088	200.8170068027211	57	127
200.85183673469388	201.0956462585034	64	127
200.85183673469388	201.0956462585034	52	127
200.85183673469388	201.20013605442176	59	127
200.85183673469388	201.20013605442176	56	127
201.4091156462585	201.49038548752836	60	127
201.4091156462585	201.49038548752836	57	127
201.5019954648526	201.58326530612246	56	127
201.5019954648526	201.58326530612246	59	127
201.5019954648526	201.6645351473923	52	127
201.5019954648526	201.74580498866214	71	127
201.60648526077097	201.68775510204082	59	127
201.60648526077097	201.68775510204082	56	127
201.69936507936507	201.76902494331065	56	127
201.69936507936507	201.76902494331065	59	127
201.7922448979592	201.8502947845805	72	127
201.7922448979592	201.87351473922902	59	127
201.7922448979592	201.87351473922902	56	127
201.8851247165533	201.91995464852607	59	127
201.8851247165533	201.91995464852607	56	127
201.8851247165533	201.96639455782312	71	127
201.8851247165533	202.08249433106576	40	127
201.9431746031746	202.02444444444444	56	127
201.9431746031746	202.02444444444444	59	127
202.0360544217687	202.11732426303854	56	127
202.0360544217687	202.1637641723356	68	127
202.0360544217687	202.11732426303854	59	127
202.14054421768708	202.2218140589569	59	127
202.14054421768708	202.2218140589569	56	127
202.14054421768708	202.2218140589569	40	127
202.23342403628118	202.32630385487528	59	127
202.23342403628118	202.32630385487528	56	127
202.23342403628118	202.37274376417233	68	127
202.23342403628118	202.40757369614514	40	127
202.34952380952382	202.43079365079365	59	127
202.34952380952382	202.43079365079365	56	127
202.44240362811792	202.52367346938775	59	127
202.44240362811792	202.52367346938775	56	127
202.44240362811792	202.5701133786848	64	127
202.54689342403628	202.6281632653061	59	127
202.54689342403628	202.6281632653061	56	127
202.63977324263038	202.8835827664399	59	127
202.63977324263038	202.80231292517007	64	127
202.63977324263038	202.80231292517007	52	127
202.63977324263038	202.8835827664399	56	127
202.94163265306122	203.02290249433108	57	127
202.94163265306122	203.02290249433108	60	127
203.03451247165532	203.06934240362813	56	127
203.03451247165532	203.15061224489796	52	127
203.03451247165532	203.2318820861678	71	127
203.03451247165532	203.06934240362813	59	127
203.09256235827664	203.1738321995465	56	127
203.09256235827664	203.1738321995465	59	127
203.18544217687074	203.2667120181406	59	127
203.18544217687074	203.2667120181406	56	127
203.27832199546486	203.33637188208615	72	127
203.27832199546486	203.3595918367347	59	127
203.27832199546486	203.3595918367347	56	127
203.37120181405896	203.4524716553288	59	127
203.37120181405896	203.4524716553288	56	127
203.37120181405896	203.48730158730157	71	127
203.37120181405896	203.6034013605442	40	127
203.46408163265306	203.5453514739229	56	127
203.46408163265306	203.5453514739229	59	127
203.55696145124716	203.68467120181407	68	127
203.55696145124716	203.63823129251702	56	127
203.55696145124716	203.63823129251702	59	127
203.66145124716553	203.75433106575963	59	127
203.66145124716553	203.75433106575963	56	127
203.66145124716553	203.75433106575963	40	127
203.7659410430839	203.90526077097505	68	127
203.7659410430839	203.858820861678	59	127
203.7659410430839	203.858820861678	56	127
203.7659410430839	203.94009070294786	40	127
203.88204081632654	203.96331065759637	59	127
203.88204081632654	203.96331065759637	56	127
203.97492063492064	204.04458049886622	59	127
203.97492063492064	204.04458049886622	56	127
203.97492063492064	204.09102040816327	64	127
204.06780045351474	204.1490702947846	59	127
204.06780045351474	204.1490702947846	56	127
204.16068027210883	204.32321995464852	64	127
204.16068027210883	204.32321995464852	52	127
204.16068027210883	204.3928798185941	60	127
204.16068027210883	204.3928798185941	57	127
204.45092970521543	204.53219954648526	62	127
204.45092970521543	204.53219954648526	59	127
204.54380952380953	204.76439909297054	72	127
204.54380952380953	204.60185941043085	60	127
204.54380952380953	204.60185941043085	57	127
204.54380952380953	204.68312925170068	52	127
204.62507936507936	204.70634920634922	57	127
204.62507936507936	204.70634920634922	60	127
204.71795918367346	204.79922902494332	60	127
204.71795918367346	204.79922902494332	57	127
204.82244897959183	204.88049886621314	74	127
204.82244897959183	204.90371882086168	60	127
204.82244897959183	204.90371882086168	57	127
204.91532879818595	205.13591836734693	40	127
204.91532879818595	204.9849886621315	60	127
204.91532879818595	204.9849886621315	57	127
204.91532879818595	205.03142857142856	72	127
205.00820861678005	205.08947845804988	60	127
205.00820861678005	205.08947845804988	57	127
205.10108843537415	205.15913832199547	60	127
205.10108843537415	205.15913832199547	57	127
205.10108843537415	205.19396825396825	69	127
205.18235827664398	205.25201814058957	60	127
205.18235827664398	205.25201814058957	57	127
205.18235827664398	205.25201814058957	40	127
205.26362811791384	205.34489795918367	60	127
205.26362811791384	205.34489795918367	57	127
205.26362811791384	205.37972789115645	69	127
205.26362811791384	205.41455782312926	40	127
205.35650793650794	205.43777777777777	60	127
205.35650793650794	205.43777777777777	57	127
205.44938775510204	205.5306575963719	60	127
205.44938775510204	205.5306575963719	57	127
205.44938775510204	205.57709750566895	64	127
205.5538775510204	205.63514739229024	60	127
205.5538775510204	205.63514739229024	57	127
205.6467573696145	205.82090702947846	52	127
205.6467573696145	205.78607709750568	64	127
205.6467573696145	205.9370068027211	60	127
205.6467573696145	205.9370068027211	57	127
205.9950566893424	206.09954648526076	59	127
205.9950566893424	206.09954648526076	62	127
206.11115646258503	206.1924263038549	57	127
206.11115646258503	206.27369614512472	52	127
206.11115646258503	206.35496598639455	72	127
206.11115646258503	206.1924263038549	60	127
206.2156462585034	206.29691609977326	57	127
206.2156462585034	206.29691609977326	60	127
206.3085260770975	206.38979591836735	60	127
206.3085260770975	206.38979591836735	57	127
206.4014058956916	206.4362358276644	74	127
206.4014058956916	206.45945578231292	60	127
206.4014058956916	206.45945578231292	57	127
206.47106575963718	206.55233560090704	60	127
206.47106575963718	206.55233560090704	57	127
206.47106575963718	206.5987755102041	72	127
206.47106575963718	206.70326530612246	40	127
206.57555555555555	206.64521541950114	60	127
206.57555555555555	206.64521541950114	57	127
206.65682539682538	206.7845351473923	69	127
206.65682539682538	206.73809523809524	60	127
206.65682539682538	206.73809523809524	57	127
206.76131519274375	206.83097505668934	60	127
206.76131519274375	206.83097505668934	57	127
206.76131519274375	206.83097505668934	40	127
206.8425850340136	206.91224489795917	60	127
206.8425850340136	206.91224489795917	57	127
206.8425850340136	206.95868480725625	69	127
206.8425850340136	206.99351473922903	40	127
206.9354648526077	207.01673469387754	60	127
206.9354648526077	207.01673469387754	57	127
207.0283446712018	207.14444444444445	60	127
207.0283446712018	207.14444444444445	57	127
207.0283446712018	207.1908843537415	64	127
207.16766439909298	207.24893424036281	60	127
207.16766439909298	207.24893424036281	57	127
207.26054421768708	207.39986394557823	64	127
207.26054421768708	207.39986394557823	52	127
207.26054421768708	207.51596371882087	59	127
207.26054421768708	207.51596371882087	56	127
207.5740136054422	207.65528344671202	57	127
207.5740136054422	207.65528344671202	60	127
207.6668934240363	207.74816326530612	56	127
207.6668934240363	207.79460317460317	52	127
207.6668934240363	207.9107029478458	74	127
207.6668934240363	207.74816326530612	59	127
207.77138321995466	207.8526530612245	56	127
207.77138321995466	207.8526530612245	59	127
207.86426303854876	207.9455328798186	59	127
207.86426303854876	207.9455328798186	56	127
207.86426303854876	208.0035827664399	40	127
207.9803628117914	208.03841269841269	76	127
207.9803628117914	208.06163265306122	59	127
207.9803628117914	208.06163265306122	56	127
208.0732426303855	208.18934240362813	71	127
208.0732426303855	208.1661224489796	56	127
208.0732426303855	208.18934240362813	74	127
208.0732426303855	208.30544217687074	52	127
208.1661224489796	208.24739229024942	64	127
208.2590022675737	208.39832199546484	64	127
208.2590022675737	208.34027210884355	64	127
208.37510204081633	208.43315192743765	52	127
208.37510204081633	208.45637188208616	64	127
208.46798185941043	208.68857142857144	74	127
208.46798185941043	208.54925170068026	64	127
208.46798185941043	208.58408163265307	52	127
208.46798185941043	208.68857142857144	71	127
208.56086167800453	208.63052154195012	64	127
208.6421315192744	208.72340136054422	64	127
208.6421315192744	208.78145124716553	40	127
208.74662131519275	208.81628117913831	76	127
208.74662131519275	208.81628117913831	72	127
208.74662131519275	208.83950113378685	64	127
208.85111111111112	208.96721088435373	71	127
208.85111111111112	208.94399092970522	56	127
208.85111111111112	208.96721088435373	74	127
208.85111111111112	209.08331065759637	52	127
208.94399092970522	209.02526077097505	64	127
209.03687074829932	209.11814058956915	64	127
209.03687074829932	209.1645804988662	64	127
209.1413605442177	209.199410430839	52	127
209.1413605442177	209.22263038548752	64	127
209.2342403628118	209.46643990929707	74	127
209.2342403628118	209.31551020408162	64	127
209.2342403628118	209.35034013605443	52	127
209.2342403628118	209.46643990929707	71	127
209.3271201814059	209.40839002267575	64	127
209.42	209.50126984126985	64	127
209.42	209.5477097505669	52	127
209.52448979591836	209.58253968253968	76	127
209.52448979591836	209.58253968253968	72	127
209.52448979591836	209.6057596371882	64	127
209.61736961451248	209.89600907029478	74	127
209.61736961451248	209.72185941043085	64	127
209.61736961451248	209.7915192743764	53	127
209.61736961451248	209.89600907029478	71	127
209.72185941043085	209.81473922902495	65	127
209.8263492063492	209.93083900226756	65	127
209.8263492063492	210.05854875283447	53	127
209.9540589569161	210.05854875283447	76	127
209.9540589569161	210.05854875283447	72	127
209.9540589569161	210.08176870748298	65	127
210.09337868480725	210.34879818594104	74	127
210.09337868480725	210.19786848072562	65	127
210.09337868480725	210.25591836734694	54	127
210.09337868480725	210.34879818594104	71	127
210.19786848072562	210.27913832199548	66	127
210.29074829931972	210.38362811791384	66	127
210.29074829931972	210.4881179138322	54	127
210.41845804988662	210.4881179138322	76	127
210.41845804988662	210.4881179138322	72	127
210.41845804988662	210.51133786848072	66	127
210.522947845805	210.82480725623583	74	127
210.522947845805	210.65065759637187	66	127
210.522947845805	210.72031746031746	55	127
210.522947845805	210.82480725623583	71	127
210.65065759637187	210.75514739229024	67	127
210.77836734693878	210.9525170068027	43	127
210.77836734693878	210.87124716553288	67	127
210.89446712018142	210.9525170068027	76	127
210.89446712018142	210.9525170068027	72	127
210.89446712018142	210.97573696145125	67	127
210.98734693877552	211.30081632653062	74	127
210.98734693877552	211.1498866213152	66	127
210.98734693877552	211.21954648526076	55	127
210.98734693877552	211.30081632653062	71	127
211.1498866213152	211.2427664399093	67	127
211.25437641723357	211.32403628117913	67	127
211.25437641723357	211.405306122449	43	127
211.34725623582767	211.405306122449	76	127
211.34725623582767	211.405306122449	72	127
211.34725623582767	211.4285260770975	67	127
211.44013605442177	211.70716553287983	74	127
211.44013605442177	211.5562358276644	65	127
211.44013605442177	211.61428571428573	55	127
211.44013605442177	211.70716553287983	70	127
211.5562358276644	211.63750566893424	67	127
211.6491156462585	211.7419954648526	67	127
211.6491156462585	211.82326530612244	43	127
211.76521541950115	211.82326530612244	76	127
211.76521541950115	211.82326530612244	72	127
211.76521541950115	211.85809523809525	67	127
211.86970521541951	212.1251247165533	74	127
211.86970521541951	211.98580498866212	65	127
211.86970521541951	212.04385487528344	55	127
211.86970521541951	212.1251247165533	70	127
211.98580498866212	212.06707482993198	67	127
212.07868480725622	212.15995464852608	67	127
212.07868480725622	212.2412244897959	43	127
212.1831746031746	212.2412244897959	76	127
212.1831746031746	212.2412244897959	72	127
212.1831746031746	212.26444444444445	67	127
212.27605442176872	212.55469387755102	74	127
212.27605442176872	212.41537414965987	65	127
212.27605442176872	212.4734240362812	55	127
212.27605442176872	212.55469387755102	70	127
212.41537414965987	212.4966439909297	67	127
212.50825396825397	212.5895238095238	67	127
212.50825396825397	212.67079365079366	43	127
212.61274376417234	212.67079365079366	76	127
212.61274376417234	212.67079365079366	72	127
212.61274376417234	212.69401360544217	67	127
212.70562358276644	212.8797732426304	55	127
212.70562358276644	212.83333333333334	67	127
212.70562358276644	212.8797732426304	70	127
212.70562358276644	212.96104308390022	74	127
212.83333333333334	212.9029931972789	60	127
212.91460317460317	212.995873015873	60	127
212.91460317460317	213.07714285714286	67	127
212.91460317460317	213.07714285714286	43	127
212.91460317460317	213.07714285714286	70	127
213.01909297052154	213.07714285714286	76	127
213.01909297052154	213.1235827664399	60	127
213.13519274376418	213.3093424036281	65	127
213.13519274376418	213.3093424036281	77	127
213.13519274376418	213.3093424036281	69	127
213.13519274376418	213.3093424036281	60	127
213.13519274376418	213.3093424036281	41	127
213.35578231292516	213.51832199546485	60	127
213.55315192743765	213.70408163265307	69	127
213.55315192743765	213.8550113378685	84	127
213.55315192743765	213.70408163265307	72	127
213.75052154195012	213.9130612244898	69	127
213.75052154195012	213.9130612244898	65	127
213.8550113378685	213.9478911564626	86	127
213.9478911564626	214.06399092970523	65	127
213.9478911564626	214.06399092970523	84	127
213.9478911564626	214.06399092970523	57	127
214.14526077097506	214.2613605442177	81	127
214.14526077097506	214.2613605442177	60	127
214.14526077097506	214.2613605442177	60	127
214.34263038548752	214.45873015873016	77	127
214.34263038548752	214.45873015873016	72	127
214.34263038548752	214.45873015873016	69	127
214.52839002267575	214.64448979591836	65	127
214.52839002267575	214.64448979591836	74	127
214.52839002267575	214.64448979591836	69	127
214.72575963718822	214.84185941043083	72	127
214.72575963718822	214.84185941043083	57	127
214.72575963718822	214.84185941043083	65	127
214.9231292517007	215.03922902494332	69	127
214.9231292517007	215.03922902494332	60	127
214.9231292517007	215.03922902494332	60	127
215.12049886621315	215.22498866213152	72	127
215.12049886621315	215.45718820861677	72	127
215.12049886621315	215.22498866213152	69	127
215.28303854875284	215.37591836734694	65	127
215.28303854875284	215.37591836734694	69	127
215.45718820861677	215.5732879818594	72	127
215.45718820861677	215.5732879818594	69	127
215.45718820861677	215.77065759637188	69	127
215.65455782312924	215.77065759637188	69	127
215.65455782312924	215.77065759637188	65	127
215.84031746031746	215.94480725623583	65	127
215.84031746031746	215.94480725623583	57	127
216.02607709750566	216.1421768707483	60	127
216.02607709750566	216.1421768707483	60	127
216.02607709750566	216.22344671201813	77	127
216.22344671201813	216.33954648526077	62	127
216.22344671201813	216.33954648526077	79	127
216.22344671201813	216.33954648526077	70	127
216.4208163265306	216.53691609977324	77	127
216.4208163265306	216.53691609977324	65	127
216.4208163265306	216.53691609977324	65	127
216.6181859410431	216.7342857142857	74	127
216.6181859410431	217.12902494331067	74	127
216.6181859410431	216.7342857142857	70	127
216.7691156462585	216.87360544217688	70	127
216.7691156462585	216.87360544217688	65	127
216.9548752834467	217.05936507936508	70	127
216.9548752834467	217.05936507936508	74	127
217.1406349206349	217.25673469387755	70	127
217.1406349206349	217.25673469387755	65	127
217.1406349206349	217.3380045351474	72	127
217.3380045351474	217.53537414965987	70	127
217.3380045351474	217.45410430839001	65	127
217.3380045351474	217.45410430839001	62	127
217.53537414965987	217.65147392290248	58	127
217.53537414965987	217.72113378684807	77	127
217.53537414965987	217.65147392290248	62	127
217.73274376417234	218.08104308390023	72	127
217.73274376417234	217.84884353741498	65	127
217.73274376417234	217.84884353741498	57	127
217.91850340136054	217.9997732426304	60	127
217.91850340136054	217.9997732426304	60	127
218.08104308390023	218.19714285714286	72	127
218.08104308390023	218.19714285714286	69	127
218.08104308390023	218.2784126984127	69	127
218.2784126984127	218.39451247165533	69	127
218.2784126984127	218.39451247165533	65	127
218.47578231292516	218.5918820861678	65	127
218.47578231292516	218.5918820861678	57	127
218.67315192743763	218.78925170068027	60	127
218.67315192743763	218.78925170068027	60	127
218.87052154195013	219.10272108843537	84	127
218.87052154195013	218.95179138321996	72	127
218.87052154195013	218.95179138321996	69	127
218.998231292517	219.11433106575964	65	127
218.998231292517	219.11433106575964	69	127
219.10272108843537	219.19560090702947	86	127
219.19560090702947	219.3117006802721	84	127
219.19560090702947	219.3117006802721	65	127
219.19560090702947	219.3117006802721	57	127
219.39297052154194	219.50907029478458	81	127
219.39297052154194	219.50907029478458	60	127
219.39297052154194	219.50907029478458	60	127
219.5903401360544	219.69482993197278	77	127
219.5903401360544	219.69482993197278	72	127
219.5903401360544	219.69482993197278	69	127
219.77609977324263	219.89219954648527	74	127
219.77609977324263	219.89219954648527	69	127
219.77609977324263	219.89219954648527	65	127
219.9734693877551	220.08956916099774	72	127
219.9734693877551	220.08956916099774	65	127
219.9734693877551	220.08956916099774	57	127
220.17083900226757	220.29854875283448	69	127
220.17083900226757	220.29854875283448	60	127
220.17083900226757	220.29854875283448	60	127
220.36820861678004	220.4726984126984	72	127
220.36820861678004	220.4726984126984	69	127
220.36820861678004	220.6352380952381	72	127
220.4726984126984	220.55396825396826	65	127
220.4726984126984	220.55396825396826	69	127
220.6352380952381	220.92548752834466	69	127
220.6352380952381	220.7281179138322	72	127
220.6352380952381	220.7281179138322	69	127
220.80938775510205	220.92548752834466	69	127
220.80938775510205	220.92548752834466	65	127
221.00675736961452	221.1344671201814	65	127
221.00675736961452	221.1344671201814	60	127
221.23895691609977	221.37827664399094	60	127
221.23895691609977	221.37827664399094	57	127
221.23895691609977	221.424716553288	77	127
221.23895691609977	221.424716553288	45	127
221.45954648526077	221.56403628117914	59	127
221.45954648526077	221.50598639455782	64	127
221.45954648526077	221.56403628117914	44	127
221.45954648526077	221.65691609977324	76	127
221.50598639455782	221.73818594104307	71	127
221.6104761904762	221.73818594104307	40	127
221.6104761904762	221.73818594104307	56	127
221.71496598639456	221.7962358276644	77	127
221.80784580498866	221.9239455782313	59	127
221.80784580498866	221.9239455782313	44	127
221.80784580498866	221.95877551020408	76	127
221.80784580498866	222.1097052154195	74	127
221.98199546485262	222.17936507936508	71	127
221.98199546485262	222.12131519274377	64	127
221.98199546485262	222.12131519274377	40	127
222.21419501133786	222.34190476190477	45	127
222.21419501133786	222.8063038548753	72	127
222.21419501133786	222.45800453514738	76	127
222.21419501133786	222.34190476190477	60	127
222.41156462585033	222.53927437641724	57	127
222.41156462585033	222.53927437641724	40	127
222.5160544217687	222.59732426303856	77	127
222.6089342403628	222.7366439909297	45	127
222.6089342403628	222.7366439909297	60	127
222.6089342403628	222.7714739229025	76	127
222.8063038548753	222.94562358276644	40	127
222.8063038548753	222.98045351473922	72	127
222.8063038548753	222.98045351473922	69	127
222.8063038548753	222.94562358276644	64	127
223.015283446712	223.11977324263037	59	127
223.015283446712	223.37519274376416	71	127
223.015283446712	223.11977324263037	44	127
223.015283446712	223.235873015873	76	127
223.18943310657596	223.31714285714287	56	127
223.18943310657596	223.31714285714287	40	127
223.29392290249433	223.36358276643992	77	127
223.37519274376416	223.4912925170068	59	127
223.37519274376416	223.4912925170068	44	127
223.37519274376416	223.52612244897958	76	127
223.37519274376416	223.52612244897958	74	127
223.5609523809524	223.72349206349207	68	127
223.5609523809524	223.68866213151927	64	127
223.5609523809524	223.68866213151927	40	127
223.5609523809524	223.72349206349207	71	127
223.75832199546485	223.92086167800454	64	127
223.75832199546485	223.897641723356	69	127
223.75832199546485	223.92086167800454	57	127
223.75832199546485	223.92086167800454	69	127
223.75832199546485	223.92086167800454	57	127
223.75832199546485	223.92086167800454	45	127
223.9673015873016	224.09501133786847	64	127
224.16467120181406	224.36204081632653	69	127
224.16467120181406	224.45492063492063	69	127
224.16467120181406	224.45492063492063	64	127
224.16467120181406	224.45492063492063	57	127
224.16467120181406	224.45492063492063	57	127
224.16467120181406	224.45492063492063	45	127
224.16467120181406	224.45492063492063	52	127
224.50136054421768	224.62907029478458	64	127
224.69873015873017	224.82643990929705	69	127
224.69873015873017	224.86126984126983	57	127
224.69873015873017	224.86126984126983	64	127
224.69873015873017	224.86126984126983	69	127
224.69873015873017	224.86126984126983	57	127
224.69873015873017	224.86126984126983	45	127
224.69873015873017	224.86126984126983	52	127
224.90770975056688	225.04702947845806	64	127
225.11668934240362	225.32566893424035	45	127
225.11668934240362	225.2792290249433	69	127
225.11668934240362	225.32566893424035	57	127
225.11668934240362	225.32566893424035	64	127
225.11668934240362	225.32566893424035	69	127
225.11668934240362	225.32566893424035	57	127
225.11668934240362	225.32566893424035	52	127
225.36049886621316	225.5346485260771	64	127
225.60430839002268	227.40385487528346	63	127
225.60430839002268	227.40385487528346	60	127
225.60430839002268	225.69718820861678	53	127
225.60430839002268	227.40385487528346	69	127
225.79006802721088	225.90616780045352	48	127
225.99904761904762	226.11514739229025	53	127
226.2312471655329	226.37056689342404	48	127
226.46344671201814	226.62598639455783	53	127
226.70725623582766	226.8233560090703	48	127
226.9162358276644	227.0671655328798	53	127
227.14843537414967	227.3225850340136	48	127
227.42707482993197	230.72430839002268	49	127
227.42707482993197	227.55478458049888	65	127
227.42707482993197	227.62444444444444	68	127
227.42707482993197	227.55478458049888	61	127
227.65927437641724	227.7637641723356	68	127
227.65927437641724	227.7637641723356	65	127
227.87986394557822	227.9843537414966	61	127
227.87986394557822	227.9843537414966	65	127
227.87986394557822	228.19333333333333	80	127
228.06562358276645	228.21655328798187	68	127
228.06562358276645	228.21655328798187	65	127
228.19333333333333	228.2978231292517	82	127
228.2978231292517	228.37909297052155	80	127
228.2978231292517	228.37909297052155	65	127
228.2978231292517	228.37909297052155	61	127
228.46036281179138	228.57646258503402	65	127
228.46036281179138	228.57646258503402	77	127
228.46036281179138	228.57646258503402	68	127
228.65773242630385	228.75061224489795	65	127
228.65773242630385	228.75061224489795	61	127
228.65773242630385	228.75061224489795	73	127
228.8318820861678	228.94798185941042	70	127
228.8318820861678	228.94798185941042	68	127
228.8318820861678	228.94798185941042	65	127
229.02925170068028	229.15696145124716	61	127
229.02925170068028	229.15696145124716	68	127
229.02925170068028	229.15696145124716	65	127
229.22662131519274	229.3311111111111	68	127
229.22662131519274	229.3311111111111	65	127
229.22662131519274	229.3311111111111	65	127
229.41238095238094	229.88839002267574	68	127
229.41238095238094	229.52848072562358	65	127
229.41238095238094	229.52848072562358	61	127
229.62136054421768	229.78390022675737	65	127
229.62136054421768	229.78390022675737	68	127
229.88839002267574	230.2482993197279	65	127
229.88839002267574	230.00448979591837	65	127
229.88839002267574	230.00448979591837	61	127
230.0857596371882	230.2482993197279	68	127
230.0857596371882	230.2482993197279	65	127
230.35278911564626	230.4688888888889	65	127
230.35278911564626	230.4688888888889	61	127
230.53854875283446	230.6546485260771	68	127
230.53854875283446	230.6546485260771	65	127
230.53854875283446	230.70108843537415	73	127
230.7475283446712	231.08421768707484	46	127
230.7475283446712	230.8404081632653	61	127
230.7475283446712	230.8404081632653	58	127
230.7475283446712	230.8752380952381	75	127
230.92167800453515	231.0377777777778	66	127
230.92167800453515	231.0377777777778	61	127
230.92167800453515	231.04938775510203	73	127
231.08421768707484	231.80403628117915	42	127
231.08421768707484	231.1887074829932	61	127
231.08421768707484	231.1887074829932	58	127
231.08421768707484	231.60666666666665	70	127
231.26997732426304	231.3744671201814	66	127
231.26997732426304	231.3744671201814	61	127
231.42090702947846	231.5370068027211	61	127
231.42090702947846	231.5370068027211	58	127
231.6298866213152	231.74598639455783	61	127
231.6298866213152	231.74598639455783	66	127
231.6298866213152	231.80403628117915	68	127
231.80403628117915	232.2568253968254	46	127
231.80403628117915	231.93174603174603	61	127
231.80403628117915	231.93174603174603	58	127
231.80403628117915	232.07106575963718	66	127
232.07106575963718	232.18716553287982	61	127
232.07106575963718	232.18716553287982	66	127
232.07106575963718	232.24521541950114	73	127
232.2568253968254	232.99986394557823	49	127
232.2568253968254	232.36131519274377	65	127
232.2568253968254	232.36131519274377	61	127
232.2568253968254	232.63995464852607	68	127
232.45419501133787	232.5702947845805	68	127
232.45419501133787	232.5702947845805	65	127
232.63995464852607	232.74444444444444	61	127
232.63995464852607	232.74444444444444	65	127
232.63995464852607	232.77927437641722	65	127
232.83732426303854	232.95342403628118	65	127
232.83732426303854	232.95342403628118	68	127
233.04630385487528	233.16240362811791	61	127
233.04630385487528	233.16240362811791	65	127
233.04630385487528	234.60204081632654	37	127
233.24367346938774	233.35977324263038	68	127
233.24367346938774	233.35977324263038	65	127
233.44104308390024	233.56875283446712	61	127
233.44104308390024	233.56875283446712	65	127
233.44104308390024	233.7312925170068	80	127
233.65002267573695	233.75451247165532	68	127
233.65002267573695	233.75451247165532	65	127
233.7312925170068	233.83578231292518	82	127
233.83578231292518	233.96349206349205	80	127
233.83578231292518	233.96349206349205	65	127
233.83578231292518	233.96349206349205	61	127
234.0447619047619	234.137641723356	65	127
234.0447619047619	234.137641723356	77	127
234.0447619047619	234.137641723356	68	127
234.21891156462584	234.31179138321994	65	127
234.21891156462584	234.31179138321994	61	127
234.21891156462584	234.31179138321994	73	127
234.3930612244898	234.52077097505668	70	127
234.3930612244898	234.52077097505668	68	127
234.3930612244898	234.52077097505668	65	127
234.60204081632654	234.72975056689341	61	127
234.60204081632654	235.2754195011338	49	127
234.60204081632654	234.72975056689341	68	127
234.60204081632654	234.72975056689341	65	127
234.78780045351473	234.88068027210883	68	127
234.78780045351473	234.88068027210883	65	127
234.78780045351473	234.88068027210883	65	127
234.92712018140588	235.2754195011338	68	127
234.92712018140588	235.00839002267574	65	127
234.92712018140588	235.00839002267574	61	127
235.08965986394557	235.2057596371882	65	127
235.08965986394557	235.2057596371882	68	127
235.2754195011338	235.44956916099773	61	127
235.2754195011338	235.44956916099773	65	127
235.2754195011338	235.65854875283446	65	127
235.2754195011338	236.09972789115648	61	127
235.54244897959182	235.65854875283446	65	127
235.54244897959182	235.65854875283446	68	127
235.75142857142856	235.8675283446712	61	127
235.75142857142856	235.8675283446712	65	127
235.94879818594103	236.06489795918367	68	127
235.94879818594103	236.06489795918367	65	127
235.94879818594103	236.14616780045353	73	127
236.14616780045353	236.30870748299319	61	127
236.14616780045353	236.26226757369614	58	127
236.14616780045353	236.26226757369614	66	127
236.14616780045353	236.2738775510204	72	127
236.14616780045353	236.30870748299319	51	127
236.28548752834467	236.38997732426304	58	127
236.28548752834467	236.38997732426304	66	127
236.35514739229026	236.4596371882086	70	127
236.41319727891155	236.50607709750568	66	127
236.41319727891155	236.50607709750568	58	127
236.54090702947846	237.0633560090703	66	127
236.54090702947846	236.64539682539683	58	127
236.54090702947846	236.64539682539683	63	127
236.54090702947846	236.66861678004534	60	127
236.6802267573696	236.78471655328798	63	127
236.6802267573696	236.78471655328798	58	127
236.7498866213152	236.86598639455784	58	127
236.80793650793652	236.9124263038549	63	127
236.80793650793652	236.9124263038549	58	127
236.94725623582767	237.05174603174603	58	127
236.94725623582767	237.05174603174603	63	127
236.94725623582767	237.09818594104308	51	127
237.07496598639455	237.1794557823129	58	127
237.07496598639455	237.1794557823129	63	127
237.14462585034013	237.26072562358277	65	127
237.20267573696145	237.30716553287982	63	127
237.20267573696145	237.30716553287982	58	127
237.35360544217687	237.49292517006802	48	127
237.35360544217687	237.48131519274375	66	127
237.35360544217687	237.48131519274375	58	127
237.35360544217687	238.02698412698413	63	127
237.5045351473923	237.62063492063493	66	127
237.5045351473923	237.62063492063493	58	127
237.58580498866212	237.71351473922903	46	127
237.6554648526077	237.75995464852608	66	127
237.6554648526077	237.75995464852608	58	127
237.8180045351474	237.92249433106576	58	127
237.8180045351474	237.92249433106576	66	127
237.8180045351474	237.92249433106576	51	127
237.8180045351474	237.92249433106576	60	127
237.8180045351474	237.9689342403628	39	127
237.94571428571427	238.0618140589569	60	127
237.94571428571427	238.0618140589569	58	127
237.94571428571427	238.0618140589569	66	127
237.94571428571427	238.0618140589569	51	127
238.02698412698413	238.23596371882087	70	127
238.08503401360545	238.20113378684806	58	127
238.08503401360545	238.20113378684806	66	127
238.08503401360545	238.20113378684806	51	127
238.08503401360545	238.20113378684806	60	127
238.23596371882087	238.34045351473924	58	127
238.23596371882087	238.34045351473924	66	127
238.23596371882087	238.34045351473924	51	127
238.23596371882087	238.34045351473924	60	127
238.23596371882087	238.35206349206348	63	127
238.34045351473924	238.4449433106576	60	127
238.34045351473924	238.4449433106576	66	127
238.34045351473924	238.4449433106576	58	127
238.34045351473924	238.4449433106576	51	127
238.39850340136056	238.54943310657598	70	127
238.46816326530612	238.52621315192744	66	127
238.46816326530612	238.52621315192744	58	127
238.46816326530612	238.52621315192744	51	127
238.46816326530612	238.52621315192744	60	127
238.54943310657598	238.66553287981858	58	127
238.54943310657598	238.66553287981858	60	127
238.54943310657598	238.65392290249434	72	127
238.54943310657598	238.66553287981858	66	127
238.54943310657598	238.66553287981858	51	127
238.68875283446712	238.816462585034	51	127
238.68875283446712	238.816462585034	66	127
238.68875283446712	238.816462585034	58	127
238.68875283446712	238.816462585034	60	127
238.7584126984127	238.89773242630386	70	127
238.8512925170068	238.9441723356009	66	127
238.8512925170068	238.9441723356009	58	127
238.8512925170068	238.9441723356009	51	127
238.8512925170068	238.9441723356009	60	127
238.9790022675737	239.74526077097505	66	127
238.9790022675737	239.08349206349206	66	127
238.9790022675737	239.08349206349206	58	127
238.9790022675737	239.08349206349206	60	127
238.9790022675737	239.08349206349206	51	127
238.9790022675737	239.1995918367347	60	127
239.1067120181406	239.23442176870748	51	127
239.1067120181406	239.23442176870748	66	127
239.1067120181406	239.23442176870748	58	127
239.1067120181406	239.23442176870748	60	127
239.1995918367347	239.39696145124717	58	127
239.25764172335602	239.36213151927439	58	127
239.25764172335602	239.36213151927439	51	127
239.25764172335602	239.36213151927439	66	127
239.25764172335602	239.36213151927439	60	127
239.39696145124717	239.5130612244898	51	127
239.39696145124717	239.5130612244898	66	127
239.39696145124717	239.5130612244898	58	127
239.39696145124717	239.5130612244898	60	127
239.39696145124717	239.55950113378685	51	127
239.5362811791383	239.66399092970522	66	127
239.5362811791383	239.66399092970522	58	127
239.5362811791383	239.66399092970522	51	127
239.5362811791383	239.66399092970522	60	127
239.68721088435373	239.78009070294786	51	127
239.68721088435373	239.78009070294786	66	127
239.68721088435373	239.78009070294786	58	127
239.68721088435373	239.78009070294786	60	127
239.81492063492064	239.919410430839	60	127
239.81492063492064	239.919410430839	66	127
239.81492063492064	239.919410430839	58	127
239.81492063492064	239.919410430839	51	127
239.94263038548752	240.05873015873016	58	127
239.94263038548752	240.05873015873016	66	127
239.94263038548752	240.05873015873016	51	127
239.94263038548752	240.05873015873016	60	127
240.0122902494331	240.14	70	127
240.0819501133787	240.18643990929706	60	127
240.0819501133787	240.18643990929706	66	127
240.0819501133787	240.18643990929706	58	127
240.0819501133787	240.18643990929706	51	127
240.22126984126984	240.3257596371882	58	127
240.22126984126984	240.31414965986394	73	127
240.22126984126984	240.3257596371882	66	127
240.22126984126984	240.3257596371882	51	127
240.34897959183672	240.4534693877551	51	127
240.34897959183672	240.4534693877551	66	127
240.34897959183672	240.4534693877551	58	127
240.4186394557823	240.54634920634922	72	127
240.47668934240363	240.59278911564627	66	127
240.47668934240363	240.59278911564627	58	127
240.47668934240363	240.59278911564627	51	127
240.63922902494332	241.44031746031746	66	127
240.63922902494332	240.7669387755102	58	127
240.63922902494332	240.7669387755102	66	127
240.63922902494332	240.7669387755102	51	127
240.63922902494332	240.8598185941043	61	127
240.79015873015874	240.8946485260771	66	127
240.79015873015874	240.8946485260771	51	127
240.79015873015874	240.8946485260771	58	127
240.8598185941043	241.0571882086168	60	127
240.91786848072562	241.02235827664398	66	127
240.91786848072562	241.02235827664398	58	127
240.91786848072562	241.02235827664398	51	127
241.0571882086168	241.21972789115645	58	127
241.0571882086168	241.21972789115645	66	127
241.0571882086168	241.21972789115645	51	127
241.0571882086168	241.21972789115645	61	127
241.0571882086168	241.2661678004535	51	127
241.242947845805	241.35904761904763	66	127
241.242947845805	241.35904761904763	58	127
241.242947845805	241.35904761904763	51	127
241.242947845805	241.35904761904763	61	127
241.38226757369614	241.4867573696145	66	127
241.38226757369614	241.4867573696145	58	127
241.38226757369614	241.4867573696145	61	127
241.38226757369614	241.4867573696145	51	127
241.5215873015873	241.62607709750566	58	127
241.5215873015873	241.62607709750566	66	127
241.5215873015873	241.62607709750566	61	127
241.5215873015873	241.62607709750566	51	127
241.6492970521542	241.75378684807256	66	127
241.6492970521542	241.75378684807256	58	127
241.6492970521542	241.75378684807256	51	127
241.6492970521542	241.75378684807256	61	127
241.71895691609978	241.92793650793652	73	127
241.77700680272108	241.88149659863944	66	127
241.77700680272108	241.88149659863944	58	127
241.77700680272108	241.88149659863944	51	127
241.77700680272108	241.88149659863944	61	127
241.92793650793652	242.03242630385486	67	127
241.92793650793652	242.03242630385486	57	127
241.92793650793652	242.03242630385486	61	127
241.92793650793652	242.04403628117913	73	127
241.92793650793652	242.10208616780045	52	127
242.06725623582767	242.19496598639455	67	127
242.06725623582767	242.19496598639455	57	127
242.06725623582767	242.19496598639455	61	127
242.16013605442177	242.26462585034014	69	127
242.2181859410431	242.3110657596372	67	127
242.2181859410431	242.3110657596372	61	127
242.2181859410431	242.3110657596372	57	127
242.33428571428573	242.48521541950115	67	127
242.33428571428573	242.48521541950115	61	127
242.33428571428573	242.4387755102041	52	127
242.33428571428573	242.45038548752834	67	127
242.33428571428573	242.48521541950115	57	127
242.4619954648526	242.56648526077097	52	127
242.5316553287982	242.83351473922903	73	127
242.5897052154195	242.6825850340136	52	127
242.7174149659864	242.8683446712018	52	127
242.7174149659864	242.82190476190476	67	127
242.7174149659864	242.82190476190476	57	127
242.7174149659864	242.82190476190476	61	127
242.8451247165533	242.94961451247167	61	127
242.8451247165533	242.94961451247167	67	127
242.8451247165533	242.94961451247167	57	127
242.91478458049886	243.0308843537415	69	127
242.97283446712018	243.07732426303855	61	127
242.97283446712018	243.07732426303855	57	127
242.97283446712018	243.07732426303855	67	127
243.11215419501133	243.26308390022675	67	127
243.11215419501133	243.26308390022675	61	127
243.11215419501133	243.2166439909297	52	127
243.11215419501133	243.22825396825397	67	127
243.11215419501133	243.26308390022675	57	127
243.23986394557824	243.35596371882087	52	127
243.3095238095238	243.54172335600907	73	127
243.37918367346938	243.5068934240363	52	127
243.54172335600907	243.64621315192744	62	127
243.54172335600907	243.68104308390022	53	127
243.54172335600907	243.72748299319727	76	127
243.54172335600907	243.64621315192744	57	127
243.54172335600907	243.64621315192744	69	127
243.6578231292517	243.76231292517008	62	127
243.6578231292517	243.76231292517008	69	127
243.6578231292517	243.76231292517008	57	127
243.72748299319727	243.8435827664399	74	127
243.7855328798186	243.89002267573696	69	127
243.7855328798186	243.89002267573696	57	127
243.7855328798186	243.89002267573696	62	127
243.92485260770974	244.04095238095238	53	127
243.92485260770974	244.05256235827665	69	127
243.92485260770974	244.08739229024943	57	127
243.92485260770974	244.08739229024943	69	127
243.92485260770974	244.08739229024943	62	127
244.06417233560092	244.16866213151928	53	127
244.13383219954648	244.33120181405894	74	127
244.1918820861678	244.29637188208616	53	127
244.33120181405894	244.4356916099773	67	127
244.33120181405894	244.4356916099773	62	127
244.33120181405894	244.4356916099773	65	127
244.33120181405894	244.4821315192744	46	127
244.33120181405894	244.52857142857144	76	127
244.33120181405894	244.4356916099773	58	127
244.45891156462585	244.56340136054422	58	127
244.45891156462585	244.56340136054422	67	127
244.45891156462585	244.56340136054422	65	127
244.45891156462585	244.56340136054422	62	127
244.52857142857144	244.64467120181405	74	127
244.58662131519273	244.6911111111111	62	127
244.58662131519273	244.6911111111111	67	127
244.58662131519273	244.6911111111111	65	127
244.58662131519273	244.6911111111111	58	127
244.7259410430839	244.8884807256236	65	127
244.7259410430839	244.8884807256236	58	127
244.7259410430839	244.84204081632652	46	127
244.7259410430839	244.8536507936508	67	127
244.7259410430839	244.8884807256236	67	127
244.7259410430839	244.8884807256236	62	127
244.86526077097506	244.96975056689342	46	127
244.93492063492064	245.15551020408162	76	127
244.99297052154196	245.12068027210884	46	127
245.15551020408162	245.30643990929704	47	127
245.15551020408162	245.26	59	127
245.15551020408162	245.26	67	127
245.15551020408162	245.26	62	127
245.15551020408162	245.26	65	127
245.15551020408162	245.35287981859412	77	127
245.28321995464853	245.39931972789117	59	127
245.28321995464853	245.39931972789117	67	127
245.28321995464853	245.39931972789117	62	127
245.28321995464853	245.39931972789117	65	127
245.35287981859412	245.49219954648527	74	127
245.43414965986395	245.53863945578232	67	127
245.43414965986395	245.53863945578232	59	127
245.43414965986395	245.53863945578232	62	127
245.43414965986395	245.53863945578232	65	127
245.5734693877551	245.75922902494332	47	127
245.5734693877551	245.77083900226756	67	127
245.5734693877551	245.80566893424037	67	127
245.5734693877551	245.80566893424037	59	127
245.5734693877551	245.80566893424037	62	127
245.5734693877551	245.80566893424037	65	127
245.78244897959183	245.8869387755102	47	127
245.85210884353742	246.0494784580499	76	127
245.91015873015874	246.0146485260771	47	127
246.0494784580499	246.15396825396826	59	127
246.0494784580499	246.15396825396826	62	127
246.0494784580499	246.15396825396826	68	127
246.0494784580499	246.15396825396826	65	127
246.0494784580499	246.2352380952381	47	127
246.0494784580499	246.2932879818594	77	127
246.17718820861677	246.3281179138322	68	127
246.17718820861677	246.3281179138322	59	127
246.17718820861677	246.3281179138322	62	127
246.17718820861677	246.3281179138322	65	127
246.2932879818594	246.40938775510205	74	127
246.35133786848073	246.4558276643991	59	127
246.35133786848073	246.4558276643991	68	127
246.35133786848073	246.4558276643991	65	127
246.35133786848073	246.4558276643991	62	127
246.49065759637188	246.68802721088434	68	127
246.49065759637188	246.6415873015873	47	127
246.49065759637188	246.65319727891156	68	127
246.49065759637188	246.68802721088434	59	127
246.49065759637188	246.68802721088434	65	127
246.49065759637188	246.68802721088434	62	127
246.66480725623583	246.7692970521542	47	127
246.7344671201814	246.9318367346939	77	127
246.7925170068027	246.89700680272108	47	127
246.9318367346939	247.64004535147393	79	127
246.9318367346939	247.2104761904762	48	127
246.9318367346939	247.0827664399093	69	127
246.9318367346939	247.0827664399093	60	127
247.12920634920636	247.37301587301587	60	127
247.12920634920636	247.37301587301587	69	127
247.2104761904762	247.64004535147393	45	127
247.3962358276644	247.60521541950112	69	127
247.3962358276644	247.60521541950112	60	127
247.64004535147393	247.77936507936508	36	127
247.64004535147393	248.13927437641723	77	127
247.64004535147393	247.89546485260772	70	127
247.64004535147393	247.89546485260772	62	127
247.89546485260772	248.1160544217687	60	127
247.89546485260772	248.06961451247165	48	127
247.89546485260772	248.1160544217687	69	127
248.1508843537415	248.2669841269841	57	127
248.1508843537415	248.2669841269841	65	127
248.1508843537415	248.66172335600908	74	127
248.1508843537415	248.39469387755102	48	127
248.29020408163265	248.45274376417234	65	127
248.29020408163265	248.45274376417234	57	127
248.39469387755102	248.66172335600908	45	127
248.48757369614512	248.61528344671203	65	127
248.48757369614512	248.61528344671203	57	127
248.66172335600908	249.11451247165533	72	127
248.66172335600908	248.84748299319727	36	127
248.66172335600908	248.92875283446713	67	127
248.66172335600908	248.92875283446713	58	127
248.92875283446713	249.04485260770974	48	127
248.92875283446713	249.0912925170068	65	127
248.92875283446713	249.0912925170068	57	127
249.13773242630384	249.4047619047619	60	127
249.13773242630384	249.8459410430839	69	127
249.13773242630384	249.59052154195012	48	127
249.13773242630384	249.4047619047619	53	127
249.45120181405895	249.6253514739229	60	127
249.45120181405895	249.6253514739229	53	127
249.59052154195012	249.8459410430839	45	127
249.66018140589568	249.8111111111111	53	127
249.66018140589568	249.8111111111111	60	127
249.8459410430839	250.31034013605444	58	127
249.8459410430839	250.20585034013607	36	127
249.8459410430839	250.61219954648527	65	127
249.8459410430839	250.31034013605444	62	127
250.31034013605444	250.57736961451246	57	127
250.31034013605444	250.51931972789114	48	127
250.31034013605444	250.57736961451246	60	127
250.63541950113378	250.821179138322	53	127
250.63541950113378	251.92412698412699	62	127
250.63541950113378	250.98371882086167	48	127
250.63541950113378	250.821179138322	58	127
250.8560090702948	251.18108843537414	58	127
250.8560090702948	251.18108843537414	53	127
250.98371882086167	251.92412698412699	45	127
251.25074829931972	251.90090702947845	53	127
251.25074829931972	251.90090702947845	58	127
251.92412698412699	254.0255328798186	64	127
251.92412698412699	252.5162358276644	60	127
251.92412698412699	252.5162358276644	57	127
251.92412698412699	252.30725623582765	36	127
252.5162358276644	252.84131519274376	48	127
252.5162358276644	254.03714285714287	58	127
252.5162358276644	254.03714285714287	55	127
254.07197278911565	259.5286621315193	48	127
254.07197278911565	256.2546485260771	65	127
254.07197278911565	258.2980045351474	57	127
254.07197278911565	265.2755782312925	41	127
256.2546485260771	256.9860544217687	62	127
256.9976870748299	257.69428571428574	60	127
257.69428571428574	258.9597732426304	57	127
258.32120181405895	258.9597732426304	60	127
258.9597732426304	260.77090702947845	57	127
258.9597732426304	259.517052154195	60	127
259.5286621315193	260.1672108843537	60	127
259.5286621315193	260.1672108843537	53	127
260.1672108843537	261.1656689342404	62	127
260.1672108843537	260.6548299319728	48	127
260.8057596371882	261.49072562358276	53	127
260.8057596371882	261.49072562358276	57	127
261.1656689342404	261.49072562358276	60	127
261.49072562358276	261.82743764172335	62	127
261.49072562358276	261.8854875283447	70	127
261.49072562358276	262.2221768707483	48	127
262.04802721088436	262.164126984127	57	127
262.04802721088436	262.164126984127	69	127
262.2221768707483	264.13782312925173	65	127
262.2221768707483	264.13782312925173	69	127
262.2221768707483	262.9303854875283	53	127
262.2221768707483	265.31043083900227	60	127
262.9303854875283	263.13936507936506	48	127
263.26707482993197	263.59215419501135	48	127
263.59215419501135	264.2887528344671	53	127
264.2887528344671	264.7067120181406	48	127
264.7067120181406	265.31043083900227	53	127
264.7067120181406	265.22916099773244	69	127
265.31043083900227	266.5875283446712	60	127
265.31043083900227	266.09990929705214	69	127
265.31043083900227	272.4157369614513	52	127
265.31043083900227	272.4157369614513	45	127
266.09990929705214	267.2376870748299	64	127
266.842947845805	271.1154195011338	60	127
267.2492970521542	267.6556462585034	62	127
267.6556462585034	268.0039455782313	60	127
268.0039455782313	268.3290249433107	57	127
268.34061224489795	270.4536507936508	64	127
270.4652607709751	271.12702947845804	64	127
271.1386394557823	272.4157369614513	60	127
271.1386394557823	271.75396825396825	69	127
271.75396825396825	273.0891156462585	72	127
272.4157369614513	273.0891156462585	64	127
272.4157369614513	273.83215419501136	52	127
272.4157369614513	273.83215419501136	45	127
273.0891156462585	273.8437641723356	69	127
273.0891156462585	273.8437641723356	60	127
273.8553514739229	274.65646258503403	58	127
273.8553514739229	274.65646258503403	67	127
273.8553514739229	274.65646258503403	62	127
273.8553514739229	274.65646258503403	53	127
273.8553514739229	275.30662131519273	43	127
274.65646258503403	276.60693877551023	58	127
274.65646258503403	275.87551020408165	62	127
274.65646258503403	276.60693877551023	62	127
274.65646258503403	276.60693877551023	53	127
275.30662131519273	276.60693877551023	43	127
276.01482993197277	276.28185941043085	62	127
276.28185941043085	276.43278911564624	64	127
276.65337868480725	276.82750566893424	65	127
276.9436281179138	280.08990929705215	58	127
276.9436281179138	278.627074829932	67	127
276.9436281179138	280.08990929705215	48	127
276.9436281179138	277.57056689342403	62	127
276.9436281179138	277.57056689342403	53	127
277.57056689342403	278.3368253968254	52	127
277.57056689342403	280.08990929705215	60	127
278.3368253968254	279.04503401360546	50	127
279.04503401360546	280.1131519274376	52	127
279.04503401360546	280.1131519274376	79	127
280.1247619047619	280.39179138322	65	127
280.1247619047619	280.39179138322	69	127
280.1247619047619	280.39179138322	60	127
280.1247619047619	280.5311111111111	53	127
280.1247619047619	281.36702947845805	77	127
280.5078684807256	280.5775510204082	69	127
280.5078684807256	280.5775510204082	60	127
280.5078684807256	280.5775510204082	65	127
280.61238095238093	280.7168707482993	65	127
280.61238095238093	280.7168707482993	69	127
280.61238095238093	280.7168707482993	60	127
280.77492063492065	281.08839002267575	60	127
280.77492063492065	281.08839002267575	65	127
280.77492063492065	281.08839002267575	69	127
281.1696598639456	281.2857596371882	69	127
281.1696598639456	281.2857596371882	65	127
281.1696598639456	281.2857596371882	60	127
281.36702947845805	281.7501587301587	74	127
281.36702947845805	281.4831292517007	69	127
281.36702947845805	281.4831292517007	60	127
281.36702947845805	281.4831292517007	65	127
281.761768707483	282.1681179138322	72	127
281.761768707483	281.93589569160997	69	127
281.761768707483	281.93589569160997	65	127
281.761768707483	281.93589569160997	60	127
282.0636281179138	282.13326530612244	65	127
282.0636281179138	282.13326530612244	60	127
282.0636281179138	282.13326530612244	69	127
282.1681179138322	282.9343764172336	69	127
282.1681179138322	282.28421768707483	69	127
282.1681179138322	282.28421768707483	65	127
282.1681179138322	282.28421768707483	60	127
282.36548752834466	282.6673469387755	60	127
282.36548752834466	282.6673469387755	69	127
282.36548752834466	282.6673469387755	65	127
282.7370068027211	282.85308390022675	69	127
282.7370068027211	282.85308390022675	65	127
282.7370068027211	282.85308390022675	60	127
282.9343764172336	283.0504761904762	69	127
282.9343764172336	283.0504761904762	60	127
282.9343764172336	283.31750566893425	72	127
282.9343764172336	283.0504761904762	65	127
283.31750566893425	284.47850340136057	72	127
283.31750566893425	283.4916553287982	69	127
283.31750566893425	283.4916553287982	65	127
283.31750566893425	283.4916553287982	60	127
283.31750566893425	284.47850340136057	81	127
283.6077551020408	283.67739229024943	60	127
283.6077551020408	283.67739229024943	65	127
283.6077551020408	283.67739229024943	69	127
283.7122448979592	283.8283446712018	69	127
283.7122448979592	283.8283446712018	65	127
283.7122448979592	283.8283446712018	60	127
283.90961451247165	284.22308390022675	65	127
283.90961451247165	284.22308390022675	69	127
283.90961451247165	284.22308390022675	60	127
284.3043537414966	284.4204535147392	60	127
284.3043537414966	284.4204535147392	65	127
284.3043537414966	284.4204535147392	69	127
284.50172335600905	284.64104308390023	60	127
284.50172335600905	284.9196825396825	74	127
284.50172335600905	284.9196825396825	77	127
284.50172335600905	284.64104308390023	69	127
284.50172335600905	284.64104308390023	65	127
284.9196825396825	285.30278911564625	72	127
284.9196825396825	285.0938321995465	67	127
284.9196825396825	285.0938321995465	62	127
284.9196825396825	285.0938321995465	58	127
284.9196825396825	285.30278911564625	76	127
285.1983219954649	285.26798185941044	58	127
285.1983219954649	285.26798185941044	67	127
285.1983219954649	285.26798185941044	62	127
285.30278911564625	285.41891156462583	58	127
285.30278911564625	285.41891156462583	67	127
285.30278911564625	285.41891156462583	62	127
285.30278911564625	286.0110204081633	70	127
285.30278911564625	286.0110204081633	74	127
285.5001814058957	285.8136281179138	62	127
285.5001814058957	285.8136281179138	67	127
285.5001814058957	285.8136281179138	58	127
285.89492063492065	286.0110204081633	58	127
285.89492063492065	286.0110204081633	62	127
285.89492063492065	286.0110204081633	67	127
286.0922902494331	286.20839002267576	58	127
286.0922902494331	286.48702947845806	70	127
286.0922902494331	286.48702947845806	74	127
286.0922902494331	286.20839002267576	67	127
286.0922902494331	286.20839002267576	62	127
286.48702947845806	286.9165986394558	69	127
286.48702947845806	286.6843990929705	65	127
286.48702947845806	286.6843990929705	69	127
286.48702947845806	286.6843990929705	60	127
286.48702947845806	286.9165986394558	77	127
286.80049886621316	286.881768707483	60	127
286.80049886621316	286.881768707483	69	127
286.80049886621316	286.881768707483	65	127
286.9165986394558	287.03269841269844	69	127
286.9165986394558	287.03269841269844	65	127
286.9165986394558	287.03269841269844	60	127
286.9165986394558	287.4622675736961	72	127
286.9165986394558	287.4622675736961	69	127
287.11396825396827	287.4158276643991	60	127
287.11396825396827	287.4158276643991	69	127
287.11396825396827	287.4158276643991	65	127
287.49709750566893	287.6015873015873	69	127
287.49709750566893	287.6015873015873	65	127
287.49709750566893	287.6015873015873	60	127
287.49709750566893	287.68285714285713	65	127
287.49709750566893	287.68285714285713	69	127
287.68285714285713	287.79895691609977	69	127
287.68285714285713	287.79895691609977	65	127
287.68285714285713	287.79895691609977	60	127
287.68285714285713	287.8685941043084	74	127
287.68285714285713	287.8685941043084	65	127
287.8685941043084	288.0543764172336	69	127
287.8685941043084	288.0543764172336	65	127
288.0543764172336	288.2749433106576	48	127
288.0543764172336	288.15886621315195	72	127
288.0543764172336	288.2401360544218	65	127
288.0543764172336	288.205306122449	69	127
288.2401360544218	288.43750566893425	65	127
288.2401360544218	288.43750566893425	57	127
288.3330158730159	288.4142857142857	48	127
288.43750566893425	289.21537414965985	69	127
288.43750566893425	288.58843537414964	48	127
288.43750566893425	289.21537414965985	60	127
288.43750566893425	289.21537414965985	65	127
288.62326530612245	288.78578231292516	48	127
288.8206349206349	288.98315192743763	48	127
289.0180045351474	289.1805442176871	48	127
289.21537414965985	289.3663038548753	48	127
289.21537414965985	289.5868934240363	58	127
289.21537414965985	289.5868934240363	67	127
289.21537414965985	289.5984807256236	64	127
289.5984807256236	289.76104308390023	57	127
289.5984807256236	289.7262131519274	57	127
289.5984807256236	289.76104308390023	65	127
289.7262131519274	289.85392290249433	53	127
289.85392290249433	289.98163265306124	57	127
289.98163265306124	290.10931972789115	69	127
289.98163265306124	290.2138095238095	72	127
289.98163265306124	290.1441723356009	53	127
289.98163265306124	290.10931972789115	53	127
290.10931972789115	290.24866213151927	65	127
290.1790022675737	290.3067120181406	41	127
290.24866213151927	290.3763718820862	69	127
290.2718820861678	290.35315192743764	74	127
290.3763718820862	290.6201587301587	72	127
290.3763718820862	290.5505215419501	65	127
290.3763718820862	290.5505215419501	41	127
290.3763718820862	290.51569160997735	57	127
290.51569160997735	290.6550113378685	53	127
290.6550113378685	290.7711111111111	57	127
290.678231292517	290.7362811791383	69	127
290.7711111111111	290.92204081632656	53	127
290.7711111111111	290.9104308390023	65	127
290.7711111111111	290.92204081632656	69	127
290.7711111111111	290.9568707482993	53	127
290.92204081632656	291.0497505668934	65	127
290.98009070294785	291.0845804988662	62	127
290.98009070294785	291.0961904761905	41	127
291.0497505668934	291.16585034013605	69	127
291.16585034013605	291.2819501133787	57	127
291.16585034013605	291.3167800453515	60	127
291.16585034013605	291.3167800453515	65	127
291.16585034013605	291.3167800453515	41	127
291.2819501133787	291.3980498866213	53	127
291.3980498866213	291.5373696145125	57	127
291.5373696145125	291.65344671201814	53	127
291.5373696145125	291.65344671201814	69	127
291.5373696145125	291.6882993197279	53	127
291.5373696145125	291.74632653061224	72	127
291.65344671201814	291.7695691609977	65	127
291.7115192743764	291.82761904761907	41	127
291.7695691609977	291.8972789115646	69	127
291.79278911564626	291.8740589569161	74	127
291.8972789115646	292.02498866213153	57	127
291.8972789115646	292.01337868480726	72	127
291.8972789115646	292.05979591836734	65	127
291.8972789115646	292.05979591836734	41	127
292.02498866213153	292.1642857142857	53	127
292.0946485260771	292.21074829931973	69	127
292.1642857142857	292.2571655328798	57	127
292.2571655328798	292.3616553287982	65	127
292.2571655328798	292.3732879818594	53	127
292.2571655328798	292.3732879818594	69	127
292.2571655328798	292.39650793650793	53	127
292.3732879818594	292.5009977324263	65	127
292.43133786848074	292.5474376417234	62	127
292.43133786848074	292.55904761904765	41	127
292.5009977324263	292.6287074829932	69	127
292.6287074829932	292.7564172335601	57	127
292.6287074829932	292.79124716553287	60	127
292.6287074829932	292.79124716553287	65	127
292.6287074829932	292.79124716553287	41	127
292.7564172335601	292.87249433106575	53	127
292.87249433106575	293.0002267573696	57	127
293.0002267573696	293.2324263038549	73	127
293.0002267573696	293.1627664399093	53	127
293.0002267573696	293.1279365079365	68	127
293.0002267573696	293.1279365079365	53	127
293.1279365079365	293.2672562358277	65	127
293.19759637188207	293.30208616780044	41	127
293.2672562358277	293.37174603174606	68	127
293.27884353741496	293.3485260770975	75	127
293.37174603174606	293.4878231292517	73	127
293.37174603174606	293.4994557823129	56	127
293.37174603174606	293.5342857142857	65	127
293.37174603174606	293.5342857142857	41	127
293.4994557823129	293.6387755102041	53	127
293.5691156462585	293.68521541950116	68	127
293.6387755102041	293.766485260771	56	127
293.766485260771	293.8941723356009	53	127
293.766485260771	293.8477551020408	65	127
293.766485260771	293.8593650793651	53	127
293.766485260771	293.8593650793651	68	127
293.8593650793651	293.99866213151927	65	127
293.92902494331065	294.02190476190475	63	127
293.92902494331065	294.033514739229	41	127
293.99866213151927	294.09156462585037	68	127
294.09156462585037	294.2192743764172	56	127
294.09156462585037	294.25410430839	61	127
294.09156462585037	294.25410430839	65	127
294.09156462585037	294.25410430839	41	127
294.2192743764172	294.3585941043084	53	127
294.3585941043084	294.4979138321996	56	127
294.4979138321996	294.6256235827664	53	127
294.4979138321996	294.6256235827664	68	127
294.4979138321996	294.64884353741496	53	127
294.4979138321996	294.7184807256236	73	127
294.6256235827664	294.75333333333333	65	127
294.68367346938777	294.82297052154195	41	127
294.75333333333333	294.8926530612245	68	127
294.77655328798187	294.86943310657597	75	127
294.8926530612245	295.05519274376417	65	127
294.8926530612245	295.00875283446715	73	127
294.8926530612245	295.0203401360544	56	127
294.8926530612245	295.05519274376417	41	127
295.0203401360544	295.1712925170068	53	127
295.10163265306124	295.2177324263039	68	127
295.1712925170068	295.2990022675737	56	127
295.2990022675737	295.50798185941045	73	127
295.2990022675737	295.43832199546483	53	127
295.2990022675737	295.4034920634921	53	127
295.2990022675737	295.4034920634921	68	127
295.4034920634921	295.5428117913832	65	127
295.47315192743764	295.5892517006803	41	127
295.5428117913832	295.65891156462584	68	127
295.56603174603174	295.63566893424036	75	127
295.65891156462584	295.7750113378685	73	127
295.65891156462584	295.7750113378685	41	127
295.65891156462584	295.78662131519275	56	127
295.65891156462584	295.8098412698413	65	127
295.78662131519275	295.91433106575965	53	127
295.8446485260771	295.9607709750567	68	127
295.8446485260771	295.9607709750567	44	127
295.91433106575965	296.0304308390023	56	127
296.04201814058956	296.13492063492066	71	127
296.04201814058956	296.3671201814059	37	127
296.04201814058956	296.2509977324263	77	127
296.04201814058956	296.13492063492066	68	127
296.15814058956914	296.2509977324263	68	127
296.15814058956914	296.2509977324263	71	127
296.2742403628118	296.37873015873015	71	127
296.2742403628118	296.37873015873015	68	127
296.2974603174603	296.4019501133787	78	127
296.4019501133787	296.50643990929706	71	127
296.4019501133787	296.50643990929706	68	127
296.4019501133787	296.6225396825397	77	127
296.4019501133787	296.7502494331066	44	127
296.5296598639456	296.6225396825397	68	127
296.5296598639456	296.6225396825397	71	127
296.6573469387755	296.7618367346939	71	127
296.6573469387755	296.7618367346939	68	127
296.680589569161	296.78507936507935	78	127
296.78507936507935	297.04049886621317	77	127
296.78507936507935	296.91278911564626	71	127
296.78507936507935	296.91278911564626	68	127
296.78507936507935	297.14498866213154	49	127
296.9360090702948	297.04049886621317	71	127
296.9360090702948	297.04049886621317	68	127
297.0753287981859	297.1565986394558	71	127
297.0753287981859	297.1565986394558	68	127
297.0869387755102	297.1798185941043	78	127
297.1798185941043	297.27267573696145	71	127
297.1798185941043	297.27267573696145	68	127
297.1798185941043	297.4004081632653	77	127
297.1798185941043	297.5281179138322	56	127
297.2959183673469	297.4004081632653	68	127
297.2959183673469	297.4004081632653	71	127
297.4352380952381	297.5397278911565	71	127
297.4352380952381	297.5397278911565	68	127
297.45845804988664	297.562947845805	78	127
297.562947845805	297.6674376417234	71	127
297.562947845805	297.6674376417234	68	127
297.562947845805	297.79514739229023	77	127
297.562947845805	297.92285714285714	49	127
297.69065759637186	297.79514739229023	68	127
297.69065759637186	297.79514739229023	71	127
297.82997732426304	297.95768707482995	71	127
297.82997732426304	297.95768707482995	68	127
297.8531972789116	297.95768707482995	79	127
297.9808843537415	298.0621768707483	81	127
297.9808843537415	298.0621768707483	77	127
297.9808843537415	298.1202267573696	48	127
297.9808843537415	298.1898639455782	65	127
297.9808843537415	298.1898639455782	69	127
298.0737868480726	298.20149659863944	81	127
298.0737868480726	298.20149659863944	77	127
298.1202267573696	298.23632653061225	45	127
298.224716553288	298.3059863945578	82	127
298.224716553288	298.3059863945578	79	127
298.2943537414966	298.36403628117915	41	127
298.3175963718821	298.4104761904762	82	127
298.3175963718821	298.4104761904762	79	127
298.4336961451247	298.6194557823129	36	127
298.4336961451247	298.5381859410431	84	127
298.4336961451247	298.5381859410431	81	127
298.4336961451247	298.58462585034016	60	127
298.54979591836735	298.6310657596372	84	127
298.54979591836735	298.6310657596372	81	127
298.58462585034016	298.66589569161	57	127
298.6542857142857	298.73555555555555	77	127
298.6542857142857	298.73555555555555	69	127
298.7239455782313	298.7936054421769	53	127
298.7471655328798	298.82843537414965	77	127
298.7471655328798	298.82843537414965	69	127
298.8516553287982	298.932925170068	81	127
298.8516553287982	298.932925170068	77	127
298.8516553287982	298.9793650793651	48	127
298.8516553287982	299.0141723356009	48	127
298.9445351473923	299.0258049886621	81	127
298.9445351473923	299.0258049886621	77	127
298.9793650793651	299.0606349206349	45	127
299.04902494331066	299.1302947845805	82	127
299.04902494331066	299.1302947845805	79	127
299.1186848072562	299.1999546485261	41	127
299.14190476190475	299.23478458049885	82	127
299.14190476190475	299.23478458049885	79	127
299.2580045351474	299.3508843537415	84	127
299.2580045351474	299.3508843537415	81	127
299.2580045351474	299.39732426303857	60	127
299.2580045351474	299.4321541950113	36	127
299.36249433106576	299.4437641723356	84	127
299.36249433106576	299.4437641723356	81	127
299.39732426303857	299.4785941043084	57	127
299.46698412698413	299.54825396825396	77	127
299.46698412698413	299.54825396825396	69	127
299.5366439909297	299.6063038548753	53	127
299.55986394557823	299.64113378684806	77	127
299.55986394557823	299.64113378684806	69	127
299.6643537414966	299.7456235827664	81	127
299.6643537414966	299.7456235827664	77	127
299.6643537414966	299.7920634920635	48	127
299.6643537414966	299.8268707482993	48	127
299.7572335600907	299.8385034013605	81	127
299.7572335600907	299.8385034013605	77	127
299.7920634920635	299.87333333333333	45	127
299.86172335600907	299.9429931972789	82	127
299.86172335600907	299.9429931972789	79	127
299.9313605442177	300.00104308390024	41	127
299.95460317460316	300.03585034013605	82	127
299.95460317460316	300.03585034013605	79	127
300.05909297052153	300.14036281179136	84	127
300.05909297052153	300.14036281179136	81	127
300.05909297052153	300.210022675737	60	127
300.05909297052153	300.256462585034	36	127
300.15197278911563	300.26807256235827	84	127
300.15197278911563	300.26807256235827	81	127
300.210022675737	300.3029024943311	57	127
300.2912925170068	300.3957823129252	77	127
300.2912925170068	300.3957823129252	69	127
300.36095238095237	300.45383219954647	53	127
300.40739229024945	300.4886621315193	77	127
300.40739229024945	300.4886621315193	69	127
300.5118820861678	300.59315192743765	81	127
300.5118820861678	300.59315192743765	77	127
300.5118820861678	300.6395691609977	48	127
300.5118820861678	300.6744217687075	48	127
300.6047619047619	300.68603174603174	81	127
300.6047619047619	300.68603174603174	77	127
300.6395691609977	300.72086167800455	45	127
300.7092517006803	300.7905215419501	82	127
300.7092517006803	300.7905215419501	79	127
300.77891156462584	300.84854875283446	41	127
300.8021315192744	300.8834013605442	82	127
300.8021315192744	300.8834013605442	79	127
300.90662131519275	300.9878911564626	84	127
300.90662131519275	300.9878911564626	76	127
300.90662131519275	301.0227210884354	36	127
300.90662131519275	301.03433106575966	70	127
300.99950113378685	301.0807709750567	84	127
300.99950113378685	301.0807709750567	76	127
301.03433106575966	301.1156009070295	69	127
301.1039909297052	301.18526077097505	76	127
301.1039909297052	301.18526077097505	70	127
301.1039909297052	301.22009070294786	48	127
301.1736507936508	301.2433106575964	67	127
301.1968707482993	301.27814058956915	76	127
301.1968707482993	301.27814058956915	70	127
301.31297052154196	301.45229024943313	69	127
301.31297052154196	301.4871201814059	65	127
301.31297052154196	301.58	41	127
301.31297052154196	301.45229024943313	77	127
301.45229024943313	301.53356009070296	81	127
301.45229024943313	301.53356009070296	89	127
301.59160997732425	301.66124716553287	89	127
301.59160997732425	301.66124716553287	81	127
301.71931972789116	301.93990929705217	89	127
301.71931972789116	301.85863945578234	60	127
301.71931972789116	301.75414965986397	41	127
301.71931972789116	301.93990929705217	81	127
301.75414965986397	301.84702947845807	41	127
301.8934693877551	301.974716553288	41	127
301.91668934240363	301.9863492063492	62	127
302.021179138322	302.17208616780044	69	127
302.021179138322	302.1604988662132	60	127
302.021179138322	302.17208616780044	77	127
302.021179138322	302.2998185941043	41	127
302.17208616780044	302.2533786848073	81	127
302.17208616780044	302.2533786848073	89	127
302.241768707483	302.35786848072564	57	127
302.31142857142856	302.3810657596372	81	127
302.31142857142856	302.3810657596372	89	127
302.4391383219955	302.7526077097506	89	127
302.4391383219955	302.7526077097506	81	127
302.4391383219955	302.5204081632653	41	127
302.4391383219955	302.5552380952381	53	127
302.5668480725624	302.6597278911565	41	127
302.63650793650794	302.7526077097506	50	127
302.7061678004535	302.7874149659864	41	127
302.8338775510204	302.98480725623585	77	127
302.8338775510204	302.98480725623585	69	127
302.8338775510204	303.0196371882086	48	127
302.8338775510204	303.1125170068027	41	127
302.98480725623585	303.0660770975057	81	127
302.98480725623585	303.0660770975057	89	127
303.124126984127	303.1937641723356	89	127
303.124126984127	303.1937641723356	81	127
303.2518367346939	303.565306122449	89	127
303.2518367346939	303.3331065759637	41	127
303.2518367346939	303.48403628117916	60	127
303.2518367346939	303.565306122449	81	127
303.3795464852608	303.4724263038549	41	127
303.5188662131519	303.6001360544218	41	127
303.54208616780045	303.61172335600907	62	127
303.6465759637188	303.7742857142857	77	127
303.6465759637188	303.76267573696146	60	127
303.6465759637188	303.7742857142857	69	127
303.6465759637188	303.90199546485263	41	127
303.7742857142857	303.85555555555555	81	127
303.7742857142857	303.85555555555555	89	127
303.8439455782313	303.9600453514739	57	127
303.9135827664399	303.98326530612246	81	127
303.9135827664399	303.98326530612246	89	127
304.04131519274375	304.35478458049886	89	127
304.04131519274375	304.12256235827664	41	127
304.04131519274375	304.1574149659864	53	127
304.04131519274375	304.35478458049886	81	127
304.16902494331066	304.26190476190476	41	127
304.2386848072562	304.35478458049886	50	127
304.30834467120184	304.38961451247167	41	127
304.4360544217687	304.6102040816327	48	127
304.4360544217687	304.7030839002268	41	127
304.4360544217687	304.57537414965986	77	127
304.4360544217687	304.57537414965986	69	127
304.57537414965986	304.6566439909297	81	127
304.57537414965986	304.6566439909297	89	127
304.71469387755104	304.7843537414966	89	127
304.71469387755104	304.7843537414966	81	127
304.8424036281179	305.1442403628118	89	127
304.8424036281179	305.0629931972789	61	127
304.8424036281179	304.9236734693878	41	127
304.8424036281179	305.1442403628118	80	127
304.9701133786848	305.05138321995463	41	127
305.0978231292517	305.17909297052154	41	127
305.12104308390025	305.2023129251701	63	127
305.2255328798186	305.3532199546485	68	127
305.2255328798186	305.3532199546485	77	127
305.2255328798186	305.3880725623583	61	127
305.2255328798186	305.4809523809524	41	127
305.3532199546485	305.43451247165535	80	127
305.3532199546485	305.43451247165535	89	127
305.4229024943311	305.550589569161	56	127
305.49256235827664	305.550589569161	89	127
305.49256235827664	305.550589569161	80	127
305.550589569161	305.71315192743765	53	127
305.550589569161	305.6318820861678	41	127
305.550589569161	305.8640589569161	89	127
305.550589569161	305.8640589569161	80	127
305.67832199546484	305.77120181405894	41	127
305.74798185941046	305.9105215419501	51	127
305.817641723356	305.89891156462585	41	127
305.9453514739229	306.0730612244898	77	127
305.9453514739229	306.0730612244898	68	127
305.9453514739229	306.1078911564626	49	127
305.9453514739229	306.2007709750567	41	127
306.0730612244898	306.15433106575966	89	127
306.0730612244898	306.15433106575966	80	127
306.21238095238095	306.2820408163265	80	127
306.21238095238095	306.2820408163265	89	127
306.34009070294786	306.66517006802724	89	127
306.34009070294786	306.4213605442177	41	127
306.34009070294786	306.58390022675735	61	127
306.34009070294786	306.66517006802724	80	127
306.46777777777777	306.57226757369614	41	127
306.61873015873016	306.7	41	127
306.6419501133787	306.7232199546485	63	127
306.74643990929707	306.88573696145124	68	127
306.74643990929707	306.88573696145124	77	127
306.74643990929707	306.920589569161	61	127
306.74643990929707	307.0134693877551	41	127
306.88573696145124	306.9670294784581	80	127
306.88573696145124	306.9670294784581	89	127
306.9554195011338	307.11795918367346	56	127
307.02507936507936	307.0947392290249	89	127
307.02507936507936	307.0947392290249	80	127
307.15278911564627	307.31532879818593	53	127
307.15278911564627	307.2340589569161	41	127
307.15278911564627	307.4662585034014	89	127
307.15278911564627	307.4662585034014	80	127
307.2804988662132	307.3733786848073	41	127
307.35015873015874	307.5126984126984	51	127
307.4198185941043	307.50108843537413	41	127
307.5475283446712	308.3021768707483	37	127
307.5475283446712	308.3021768707483	49	127
307.5475283446712	307.6868480725624	77	127
307.6868480725624	307.79133786848075	83	127
307.6868480725624	307.79133786848075	89	127
307.8377777777778	307.9306575963719	89	127
307.8377777777778	307.9306575963719	83	127
307.97709750566895	308.11641723356007	83	127
307.97709750566895	308.11641723356007	89	127
308.11641723356007	308.22090702947844	77	127
308.2673469387755	308.34861678004535	77	127
308.3950566893424	308.5227664399093	77	127
308.3950566893424	309.11487528344674	38	127
308.3950566893424	309.11487528344674	56	127
308.5227664399093	308.61562358276643	89	127
308.5227664399093	308.61562358276643	83	127
308.66208616780045	308.7433560090703	89	127
308.66208616780045	308.7433560090703	83	127
308.78979591836736	308.91750566893427	89	127
308.78979591836736	308.91750566893427	83	127
308.91750566893427	309.01038548752837	77	127
309.0800453514739	309.16131519274376	77	127
309.20775510204084	309.33544217687074	77	127
309.20775510204084	309.52122448979594	56	127
309.20775510204084	309.52122448979594	38	127
309.33544217687074	309.4167346938776	89	127
309.33544217687074	309.4167346938776	83	127
309.47478458049886	309.5560544217687	89	127
309.47478458049886	309.5560544217687	83	127
309.57927437641723	309.69537414965987	62	127
309.57927437641723	309.70698412698414	89	127
309.57927437641723	309.70698412698414	80	127
309.57927437641723	309.89274376417234	40	127
309.70698412698414	309.78825396825397	83	127
309.70698412698414	309.78825396825397	88	127
309.7766439909297	309.89274376417234	56	127
309.8462811791383	309.92757369614515	83	127
309.8462811791383	309.92757369614515	88	127
309.97401360544217	310.275873015873	41	127
309.97401360544217	310.0901133786848	60	127
309.97401360544217	310.1017233560091	88	127
309.97401360544217	310.1017233560091	80	127
310.1017233560091	310.1829931972789	87	127
310.1017233560091	310.1829931972789	81	127
310.17138321995463	310.275873015873	57	127
310.24104308390025	310.3107029478458	87	127
310.24104308390025	310.3107029478458	81	127
310.3571201814059	310.67061224489794	41	127
310.3571201814059	310.47324263038547	60	127
310.3571201814059	310.48485260770974	87	127
310.3571201814059	310.48485260770974	80	127
310.48485260770974	310.5660997732426	81	127
310.48485260770974	310.5660997732426	86	127
310.55448979591836	310.67061224489794	57	127
310.6241723356009	310.70544217687075	86	127
310.6241723356009	310.70544217687075	81	127
310.7518820861678	310.8563718820862	58	127
310.7518820861678	310.86795918367346	87	127
310.7518820861678	310.86795918367346	81	127
310.7518820861678	311.0421315192744	43	127
310.86795918367346	310.937641723356	82	127
310.86795918367346	310.937641723356	86	127
310.92603174603175	311.0421315192744	55	127
310.9956916099773	311.0769387755102	86	127
310.9956916099773	311.0769387755102	82	127
311.1234013605442	311.25111111111113	57	127
311.1234013605442	311.2627210884354	87	127
311.1234013605442	311.2627210884354	77	127
311.1234013605442	311.4484807256236	45	127
311.2627210884354	311.3439909297052	78	127
311.2627210884354	311.3439909297052	86	127
311.33238095238096	311.4484807256236	60	127
311.4020408163265	311.4832879818594	78	127
311.4020408163265	311.4832879818594	86	127
311.5297505668934	311.6806575963719	77	127
311.5297505668934	311.87804988662134	46	127
311.5297505668934	311.65746031746033	58	127
311.5297505668934	311.6806575963719	85	127
311.6806575963719	311.7619501133787	76	127
311.6806575963719	311.7619501133787	84	127
311.75034013605443	311.87804988662134	61	127
311.83160997732426	311.9128798185941	76	127
311.83160997732426	311.9128798185941	84	127
311.95931972789117	312.0754195011338	84	127
311.95931972789117	312.0754195011338	76	127
311.95931972789117	312.24956916099774	49	127
311.95931972789117	312.06380952380954	61	127
312.0754195011338	312.14507936507937	77	127
312.0754195011338	312.14507936507937	82	127
312.1334693877551	312.24956916099774	65	127
312.2031065759637	312.28439909297055	82	127
312.2031065759637	312.28439909297055	77	127
312.33083900226757	312.4469387755102	61	127
312.33083900226757	312.4469387755102	48	127
312.33083900226757	312.4469387755102	82	127
312.33083900226757	312.4469387755102	76	127
312.4469387755102	312.51659863945576	81	127
312.4469387755102	312.51659863945576	77	127
312.50496598639455	312.62108843537413	60	127
312.50496598639455	312.6326984126984	36	127
312.5746485260771	312.65591836734694	81	127
312.5746485260771	312.65591836734694	77	127
312.702335600907	312.8184580498866	64	127
312.702335600907	312.83006802721087	48	127
312.702335600907	312.83006802721087	82	127
312.702335600907	312.83006802721087	73	127
312.83006802721087	312.91131519274376	81	127
312.83006802721087	312.91131519274376	72	127
312.8997278911565	313.0158049886621	36	127
312.8997278911565	313.00421768707486	65	127
312.9577777777778	313.0390476190476	81	127
312.9577777777778	313.0390476190476	72	127
313.0854875283447	313.2015873015873	61	127
313.0854875283447	313.2131746031746	48	127
313.0854875283447	313.2131746031746	82	127
313.0854875283447	313.2131746031746	76	127
313.2131746031746	313.2944671201814	81	127
313.2131746031746	313.2944671201814	77	127
313.28285714285715	313.3989569160998	60	127
313.28285714285715	313.41056689342406	36	127
313.3525170068027	313.43378684807254	81	127
313.3525170068027	313.43378684807254	77	127
313.4802267573696	313.60793650793653	64	127
313.4802267573696	313.6195464852608	48	127
313.4802267573696	313.6195464852608	82	127
313.4802267573696	313.6195464852608	73	127
313.6195464852608	313.7008163265306	81	127
313.6195464852608	313.7008163265306	72	127
313.68920634920636	313.805306122449	65	127
313.68920634920636	313.81691609977327	36	127
313.7588662131519	313.84013605442175	81	127
313.7588662131519	313.84013605442175	72	127
313.8865759637188	314.00267573696146	61	127
313.8865759637188	314.01428571428573	48	127
313.8865759637188	314.01428571428573	82	127
313.8865759637188	314.01428571428573	76	127
314.01428571428573	314.09555555555556	81	127
314.01428571428573	314.09555555555556	77	127
314.0839455782313	314.20004535147393	60	127
314.0839455782313	314.2116553287982	36	127
314.15360544217685	314.23485260770974	81	127
314.15360544217685	314.23485260770974	77	127
314.28131519274376	314.3974149659864	64	127
314.28131519274376	314.40902494331067	48	127
314.28131519274376	314.40902494331067	82	127
314.28131519274376	314.40902494331067	73	127
314.40902494331067	314.4902947845805	81	127
314.40902494331067	314.4902947845805	72	127
314.47868480725623	314.60639455782314	36	127
314.47868480725623	314.59478458049887	65	127
314.54832199546485	314.6180045351474	72	127
314.54832199546485	314.6180045351474	81	127
314.6644444444444	314.79215419501134	64	127
314.6644444444444	314.79215419501134	48	127
314.6644444444444	314.79215419501134	82	127
314.6644444444444	314.79215419501134	73	127
314.79215419501134	314.87342403628116	81	127
314.79215419501134	314.87342403628116	72	127
314.8618140589569	314.9895238095238	65	127
314.8618140589569	314.9895238095238	36	127
314.9314739229025	315.01274376417234	81	127
314.9314739229025	315.01274376417234	72	127
315.0591609977324	315.18689342403627	62	127
315.0591609977324	315.18689342403627	48	127
315.0591609977324	315.18689342403627	80	127
315.0591609977324	315.18689342403627	71	127
315.18689342403627	315.26814058956916	79	127
315.18689342403627	315.26814058956916	70	127
315.2565532879819	315.37265306122447	36	127
315.2565532879819	315.37265306122447	64	127
315.3146031746032	315.395873015873	70	127
315.3146031746032	315.395873015873	79	127
315.4423129251701	315.57	65	127
315.4423129251701	315.6280725623583	69	127
315.4423129251701	315.6280725623583	65	127
315.4423129251701	315.77897959183673	41	127
315.4423129251701	315.57	57	127
315.4423129251701	315.77897959183673	77	127
315.5932426303855	315.69773242630384	57	127
315.5932426303855	315.69773242630384	53	127
315.73256235827665	315.837052154195	53	127
315.73256235827665	315.837052154195	57	127
315.86027210884356	315.96476190476193	57	127
315.86027210884356	315.96476190476193	53	127
315.86027210884356	316.18532879818594	69	127
315.86027210884356	316.0924716553288	89	127
315.86027210884356	316.18532879818594	72	127
315.9879818594104	316.0924716553288	53	127
315.9879818594104	316.0924716553288	57	127
316.13891156462586	316.2434013605442	53	127
316.13891156462586	316.2434013605442	57	127
316.1621315192744	316.2434013605442	91	127
316.26662131519276	316.37111111111113	53	127
316.26662131519276	316.58009070294787	45	127
316.26662131519276	316.37111111111113	57	127
316.26662131519276	316.51043083900225	89	127
316.3943083900227	316.51043083900225	57	127
316.3943083900227	316.51043083900225	53	127
316.54526077097506	316.63814058956916	53	127
316.54526077097506	316.63814058956916	57	127
316.5684807256236	316.63814058956916	84	127
316.6613605442177	316.9748299319728	69	127
316.6613605442177	316.9748299319728	72	127
316.6613605442177	316.893537414966	81	127
316.6613605442177	316.76585034013607	57	127
316.6613605442177	316.76585034013607	53	127
316.7890702947846	316.893537414966	57	127
316.7890702947846	316.893537414966	53	127
316.9283900226757	317.0328798185941	53	127
316.9283900226757	317.0328798185941	57	127
316.95160997732427	317.0328798185941	79	127
317.05609977324264	317.160589569161	57	127
317.05609977324264	317.160589569161	53	127
317.05609977324264	317.36956916099774	77	127
317.05609977324264	317.36956916099774	50	127
317.18380952380954	317.2882993197279	53	127
317.18380952380954	317.2882993197279	57	127
317.32312925170066	317.42761904761903	57	127
317.32312925170066	317.42761904761903	53	127
317.45083900226757	317.5785487528345	57	127
317.45083900226757	317.5785487528345	53	127
317.45083900226757	317.7062585034014	89	127
317.45083900226757	317.7875283446712	69	127
317.45083900226757	317.7875283446712	65	127
317.601768707483	317.7062585034014	57	127
317.601768707483	317.7062585034014	53	127
317.74108843537414	317.8455782312925	57	127
317.74108843537414	317.8455782312925	53	127
317.7643083900227	317.8455782312925	91	127
317.86879818594105	317.96167800453514	57	127
317.86879818594105	317.96167800453514	53	127
317.86879818594105	318.0777777777778	89	127
317.86879818594105	318.1590476190476	45	127
317.9848979591837	318.0777777777778	53	127
317.9848979591837	318.0777777777778	57	127
318.1126077097506	318.22868480725623	53	127
318.1126077097506	318.22868480725623	57	127
318.1358276643991	318.22868480725623	84	127
318.2519274376417	318.484126984127	81	127
318.2519274376417	318.3564172335601	57	127
318.2519274376417	318.3564172335601	53	127
318.2519274376417	318.5653968253968	72	127
318.2519274376417	318.5653968253968	69	127
318.3796371882086	318.484126984127	53	127
318.3796371882086	318.484126984127	57	127
318.5189569160998	318.64666666666665	53	127
318.5189569160998	318.64666666666665	57	127
318.5421768707483	318.64666666666665	79	127
318.6698866213152	318.77437641723355	53	127
318.6698866213152	318.77437641723355	57	127
318.6698866213152	319.00657596371883	77	127
318.6698866213152	319.00657596371883	50	127
318.7975963718821	318.925306122449	53	127
318.7975963718821	318.925306122449	57	127
318.96013605442175	319.0646258503401	53	127
318.96013605442175	319.0646258503401	57	127
319.08784580498866	319.3316553287982	89	127
319.08784580498866	319.2039455782313	53	127
319.08784580498866	319.41292517006804	69	127
319.08784580498866	319.41292517006804	65	127
319.08784580498866	319.2039455782313	57	127
319.22716553287984	319.3316553287982	53	127
319.22716553287984	319.3316553287982	57	127
319.36648526077096	319.4709750566893	57	127
319.36648526077096	319.4709750566893	53	127
319.3897052154195	319.4709750566893	91	127
319.49419501133787	319.81927437641724	45	127
319.49419501133787	319.59868480725623	57	127
319.49419501133787	319.59868480725623	53	127
319.49419501133787	319.7380045351474	89	127
319.6219047619048	319.7380045351474	53	127
319.6219047619048	319.7380045351474	57	127
319.77283446712016	319.87732426303853	57	127
319.77283446712016	319.87732426303853	53	127
319.7960544217687	319.87732426303853	84	127
319.91215419501134	320.0166439909297	57	127
319.91215419501134	320.0166439909297	53	127
319.91215419501134	320.1443537414966	81	127
319.91215419501134	320.22562358276645	69	127
319.91215419501134	320.22562358276645	72	127
320.03986394557825	320.1443537414966	53	127
320.03986394557825	320.1443537414966	57	127
320.17918367346937	320.28367346938774	57	127
320.17918367346937	320.28367346938774	53	127
320.2024036281179	320.28367346938774	79	127
320.3068934240363	320.41138321995464	65	127
320.3068934240363	320.41138321995464	69	127
320.3068934240363	320.41138321995464	53	127
320.3068934240363	320.41138321995464	57	127
320.3068934240363	320.6435827664399	77	127
320.3068934240363	320.6435827664399	50	127
320.4229931972789	320.5274829931973	69	127
320.4229931972789	320.5274829931973	65	127
320.4229931972789	320.5274829931973	53	127
320.4229931972789	320.5274829931973	57	127
320.5623129251701	320.6435827664399	69	127
320.5623129251701	320.6435827664399	65	127
320.5623129251701	320.6435827664399	53	127
320.5623129251701	320.6435827664399	57	127
320.66680272108846	320.7712925170068	55	127
320.66680272108846	321.0151020408163	49	127
320.66680272108846	320.7712925170068	65	127
320.66680272108846	320.7712925170068	70	127
320.66680272108846	320.7712925170068	65	127
320.66680272108846	321.0151020408163	79	127
320.7945124716553	320.88736961451247	65	127
320.7945124716553	320.88736961451247	55	127
320.7945124716553	320.88736961451247	70	127
320.7945124716553	320.88736961451247	65	127
320.9222222222222	321.0151020408163	65	127
320.9222222222222	321.0151020408163	70	127
320.9222222222222	321.0151020408163	55	127
320.9222222222222	321.0151020408163	65	127
321.03832199546486	321.1428117913832	72	127
321.03832199546486	321.1428117913832	57	127
321.03832199546486	321.39820861678004	81	127
321.03832199546486	321.39820861678004	48	127
321.03832199546486	321.1428117913832	65	127
321.03832199546486	321.1428117913832	65	127
321.16603174603176	321.27052154195013	57	127
321.16603174603176	321.27052154195013	65	127
321.16603174603176	321.27052154195013	72	127
321.16603174603176	321.27052154195013	65	127
321.3053514739229	321.39820861678004	65	127
321.3053514739229	321.39820861678004	57	127
321.3053514739229	321.39820861678004	65	127
321.3053514739229	321.39820861678004	72	127
321.4214512471655	321.5259410430839	67	127
321.4214512471655	321.5259410430839	76	127
321.4214512471655	321.792970521542	36	127
321.4214512471655	321.792970521542	84	127
321.4214512471655	321.5259410430839	64	127
321.4214512471655	321.5259410430839	55	127
321.54916099773243	321.6536507936508	67	127
321.54916099773243	321.6536507936508	76	127
321.54916099773243	321.6536507936508	64	127
321.54916099773243	321.6536507936508	55	127
321.6884807256236	321.792970521542	67	127
321.6884807256236	321.792970521542	76	127
321.6884807256236	321.792970521542	55	127
321.6884807256236	321.792970521542	64	127
321.81619047619046	321.9787301587302	65	127
321.81619047619046	321.9787301587302	57	127
321.81619047619046	321.9206802721088	69	127
321.81619047619046	321.9206802721088	77	127
321.81619047619046	321.9787301587302	77	127
321.81619047619046	322.12965986394556	41	127
321.94390022675736	322.04839002267573	69	127
321.94390022675736	322.04839002267573	65	127
322.08321995464854	322.1877097505669	65	127
322.08321995464854	322.1877097505669	69	127
322.1064399092971	322.4082993197279	65	127
322.21090702947845	322.5940589569161	72	127
322.21090702947845	322.32702947845803	69	127
322.21090702947845	322.32702947845803	65	127
322.21090702947845	322.4663492063492	65	127
322.3153968253968	322.5940589569161	81	127
322.35024943310657	322.4663492063492	69	127
322.35024943310657	322.4663492063492	65	127
322.4315192743764	322.5940589569161	41	127
322.501179138322	322.6056689342404	69	127
322.501179138322	322.6056689342404	65	127
322.52437641723355	322.6056689342404	67	127
322.6288662131519	322.7565986394558	65	127
322.6288662131519	323.0120181405896	45	127
322.6288662131519	322.89591836734695	65	127
322.6288662131519	322.7565986394558	69	127
322.7798185941043	322.89591836734695	65	127
322.7798185941043	322.89591836734695	69	127
322.95396825396824	323.0932879818594	69	127
322.95396825396824	323.0932879818594	65	127
322.9771882086168	323.0932879818594	60	127
322.9771882086168	323.2906575963719	69	127
323.11650793650796	323.3487074829932	57	127
323.11650793650796	323.2209977324263	69	127
323.11650793650796	323.2209977324263	65	127
323.11650793650796	323.4764172335601	77	127
323.20938775510206	323.4764172335601	84	127
323.24419501133787	323.3487074829932	69	127
323.24419501133787	323.3487074829932	65	127
323.3138775510204	323.4764172335601	45	127
323.383537414966	323.48802721088435	65	127
323.383537414966	323.48802721088435	69	127
323.4183673469388	323.48802721088435	55	127
323.5112471655329	323.61573696145126	65	127
323.5112471655329	323.84791383219954	50	127
323.5112471655329	323.84791383219954	53	127
323.5112471655329	323.61573696145126	69	127
323.6389569160998	323.76666666666665	65	127
323.6389569160998	323.76666666666665	69	127
323.80149659863946	323.89437641723356	65	127
323.80149659863946	323.89437641723356	69	127
323.824716553288	324.08013605442176	62	127
323.9175963718821	324.0104761904762	65	127
323.9175963718821	324.0104761904762	69	127
323.9175963718821	324.1381859410431	65	127
323.9175963718821	324.25426303854874	74	127
323.9988662131519	324.25426303854874	86	127
324.03369614512474	324.1381859410431	65	127
324.03369614512474	324.1381859410431	69	127
324.1033560090703	324.25426303854874	50	127
324.17301587301586	324.265873015873	65	127
324.17301587301586	324.265873015873	69	127
324.1962358276644	324.265873015873	67	127
324.2891156462585	324.39360544217686	65	127
324.2891156462585	324.39360544217686	69	127
324.2891156462585	324.5097052154195	65	127
324.2891156462585	324.59097505668933	45	127
324.40521541950113	324.5097052154195	65	127
324.40521541950113	324.5097052154195	69	127
324.5445351473923	324.62580498866214	65	127
324.5445351473923	324.62580498866214	69	127
324.56773242630385	324.8347845804989	69	127
324.56773242630385	324.62580498866214	60	127
324.6490249433107	324.75351473922905	65	127
324.6490249433107	324.75351473922905	69	127
324.6490249433107	324.89283446712017	57	127
324.6490249433107	325.0205442176871	77	127
324.7419047619048	325.0205442176871	84	127
324.7767120181406	324.89283446712017	69	127
324.7767120181406	324.89283446712017	65	127
324.8580045351474	325.0205442176871	45	127
324.927664399093	325.0205442176871	69	127
324.927664399093	325.0205442176871	65	127
324.9508843537415	325.0205442176871	55	127
325.0437641723356	325.3340136054422	53	127
325.0437641723356	325.3340136054422	50	127
325.0437641723356	325.148253968254	69	127
325.0437641723356	325.148253968254	65	127
325.1714739229025	325.2643537414966	69	127
325.1714739229025	325.2643537414966	65	127
325.28755102040816	325.39206349206347	65	127
325.28755102040816	325.39206349206347	69	127
325.31079365079364	325.589410430839	62	127
325.415283446712	325.5197732426304	69	127
325.415283446712	325.65909297052156	65	127
325.415283446712	325.78680272108846	74	127
325.415283446712	325.5197732426304	65	127
325.5081632653061	325.78680272108846	86	127
325.5429931972789	325.65909297052156	65	127
325.5429931972789	325.65909297052156	69	127
325.6126530612245	325.78680272108846	50	127
325.69390022675736	325.79839002267573	65	127
325.69390022675736	325.79839002267573	69	127
325.71714285714285	325.79839002267573	67	127
325.8216326530612	325.9261224489796	69	127
325.8216326530612	325.9261224489796	65	127
325.8216326530612	326.06544217687076	65	127
325.8216326530612	326.1467120181406	45	127
325.9493424036281	326.06544217687076	65	127
325.9493424036281	326.06544217687076	69	127
326.10024943310657	326.20473922902494	69	127
326.10024943310657	326.20473922902494	65	127
326.12349206349205	326.20473922902494	60	127
326.12349206349205	326.4021088435374	69	127
326.2279818594104	326.3324716553288	65	127
326.2279818594104	326.3324716553288	69	127
326.2279818594104	326.4601814058957	57	127
326.2279818594104	326.57628117913833	77	127
326.3208616780045	326.57628117913833	84	127
326.3556916099773	326.4601814058957	65	127
326.3556916099773	326.4601814058957	69	127
326.4253514739229	326.57628117913833	45	127
326.4950113378685	326.5878911564626	69	127
326.4950113378685	326.5878911564626	65	127
326.518231292517	326.5878911564626	55	127
326.61108843537414	326.7155782312925	81	127
326.61108843537414	326.959410430839	53	127
326.61108843537414	326.912947845805	50	127
326.61108843537414	326.7155782312925	77	127
326.61108843537414	326.7155782312925	69	127
326.738820861678	326.8317006802721	69	127
326.738820861678	326.8317006802721	77	127
326.738820861678	326.8317006802721	81	127
326.8665306122449	326.959410430839	81	127
326.8665306122449	326.959410430839	77	127
326.8665306122449	326.959410430839	69	127
326.98263038548754	327.0871201814059	70	127
326.98263038548754	327.0871201814059	77	127
326.98263038548754	327.29609977324264	49	127
326.98263038548754	327.35414965986394	55	127
326.98263038548754	327.0871201814059	82	127
327.11034013605445	327.2148299319728	70	127
327.11034013605445	327.2148299319728	82	127
327.11034013605445	327.2148299319728	77	127
327.24965986394557	327.35414965986394	77	127
327.24965986394557	327.35414965986394	70	127
327.24965986394557	327.35414965986394	82	127
327.38897959183674	327.5282766439909	81	127
327.38897959183674	327.5282766439909	72	127
327.38897959183674	327.5282766439909	84	127
327.38897959183674	327.53990929705213	53	127
327.38897959183674	327.79532879818595	57	127
327.5515192743764	327.6560090702948	81	127
327.5515192743764	327.6560090702948	84	127
327.5515192743764	327.6560090702948	72	127
327.621179138322	327.73725623582766	48	127
327.6908390022676	327.79532879818595	84	127
327.6908390022676	327.79532879818595	81	127
327.6908390022676	327.79532879818595	72	127
327.8185487528345	327.9346258503401	70	127
327.8185487528345	327.9346258503401	79	127
327.8185487528345	327.9346258503401	76	127
327.8185487528345	327.9462358276644	48	127
327.8185487528345	328.20167800453515	60	127
327.9578684807256	328.062358276644	76	127
327.9578684807256	328.062358276644	70	127
327.9578684807256	328.062358276644	79	127
328.0275283446712	328.14360544217686	36	127
328.0971882086168	328.20167800453515	76	127
328.0971882086168	328.20167800453515	70	127
328.0971882086168	328.20167800453515	79	127
328.2248979591837	328.32938775510206	81	127
328.2248979591837	328.32938775510206	77	127
328.2248979591837	328.54995464852607	50	127
328.2248979591837	328.32938775510206	69	127
328.2248979591837	328.32938775510206	53	127
328.3525850340136	328.4687074829932	81	127
328.3525850340136	328.4687074829932	69	127
328.3525850340136	328.4687074829932	77	127
328.42226757369616	328.5383673469388	53	127
328.503537414966	328.60802721088436	77	127
328.503537414966	328.60802721088436	69	127
328.503537414966	328.60802721088436	81	127
328.6312471655329	328.73573696145127	82	127
328.6312471655329	328.73573696145127	70	127
328.6312471655329	328.73573696145127	77	127
328.6312471655329	328.93310657596373	49	127
328.6312471655329	328.73573696145127	55	127
328.7589342403628	328.8518367346939	82	127
328.7589342403628	328.8518367346939	77	127
328.7589342403628	328.8518367346939	70	127
328.8170068027211	328.92149659863946	55	127
328.88666666666666	328.991156462585	82	127
328.88666666666666	328.991156462585	77	127
328.88666666666666	328.991156462585	70	127
329.01437641723356	329.11886621315193	72	127
329.01437641723356	329.11886621315193	84	127
329.01437641723356	329.11886621315193	81	127
329.01437641723356	329.1304761904762	53	127
329.01437641723356	329.38589569160996	57	127
329.14208616780047	329.24657596371884	81	127
329.14208616780047	329.24657596371884	72	127
329.14208616780047	329.24657596371884	84	127
329.21174603174603	329.32784580498867	48	127
329.2814058956916	329.38589569160996	81	127
329.2814058956916	329.38589569160996	72	127
329.2814058956916	329.38589569160996	84	127
329.4091156462585	329.5019954648526	79	127
329.4091156462585	329.5019954648526	76	127
329.4091156462585	329.5019954648526	70	127
329.4091156462585	329.51360544217687	48	127
329.4091156462585	329.74580498866214	60	127
329.52521541950114	329.60648526077097	76	127
329.52521541950114	329.60648526077097	70	127
329.52521541950114	329.60648526077097	79	127
329.5948752834467	329.6877551020408	36	127
329.6413151927438	329.74580498866214	70	127
329.6413151927438	329.74580498866214	76	127
329.6413151927438	329.74580498866214	79	127
329.7690249433107	329.87351473922905	69	127
329.7690249433107	329.87351473922905	53	127
329.7690249433107	330.0824716553288	50	127
329.7690249433107	329.87351473922905	81	127
329.7690249433107	329.87351473922905	77	127
329.89673469387753	330.0012244897959	69	127
329.89673469387753	330.0012244897959	77	127
329.89673469387753	330.0012244897959	81	127
329.96639455782315	330.0708843537415	53	127
330.0360544217687	330.1405442176871	77	127
330.0360544217687	330.1405442176871	81	127
330.0360544217687	330.1405442176871	69	127
330.1753741496599	330.27986394557826	77	127
330.1753741496599	330.27986394557826	82	127
330.1753741496599	330.488843537415	49	127
330.1753741496599	330.27986394557826	55	127
330.1753741496599	330.27986394557826	70	127
330.30308390022674	330.4075736961451	70	127
330.30308390022674	330.4075736961451	82	127
330.30308390022674	330.4075736961451	77	127
330.37274376417236	330.4772335600907	55	127
330.4424036281179	330.5468934240363	82	127
330.4424036281179	330.5468934240363	77	127
330.4424036281179	330.5468934240363	70	127
330.5701133786848	330.6746031746032	72	127
330.5701133786848	330.6746031746032	84	127
330.5701133786848	330.6746031746032	81	127
330.5701133786848	330.68621315192746	53	127
330.5701133786848	330.9532426303855	57	127
330.69780045351473	330.8022902494331	72	127
330.69780045351473	330.8022902494331	84	127
330.69780045351473	330.8022902494331	81	127
330.7674829931973	330.88358276643993	48	127
330.83714285714285	330.9532426303855	81	127
330.83714285714285	330.9532426303855	72	127
330.83714285714285	330.9532426303855	84	127
330.976462585034	331.0809523809524	70	127
330.976462585034	331.3944217687075	60	127
330.976462585034	331.09256235827667	48	127
330.976462585034	331.0809523809524	79	127
330.976462585034	331.0809523809524	76	127
331.10414965986394	331.24349206349206	76	127
331.10414965986394	331.24349206349206	79	127
331.10414965986394	331.24349206349206	70	127
331.2086394557823	331.3247619047619	36	127
331.27832199546486	331.3944217687075	70	127
331.27832199546486	331.3944217687075	76	127
331.27832199546486	331.3944217687075	79	127
331.41761904761904	331.7311111111111	48	127
331.41761904761904	331.7311111111111	57	127
331.41761904761904	331.5337414965986	53	127
331.41761904761904	331.5453514739229	81	127
331.41761904761904	331.5453514739229	77	127
331.5453514739229	331.6265986394558	84	127
331.5453514739229	331.6265986394558	81	127
331.6150113378685	331.7311111111111	48	127
331.68467120181407	331.75433106575963	81	127
331.68467120181407	331.75433106575963	84	127
331.812380952381	331.9400907029478	81	127
331.812380952381	332.14907029478456	48	127
331.812380952381	331.9284580498866	48	127
331.812380952381	331.9400907029478	84	127
331.812380952381	332.14907029478456	58	127
331.9400907029478	332.0213605442177	79	127
331.9400907029478	332.0213605442177	76	127
332.00975056689344	332.14907029478456	36	127
332.0910204081633	332.1722902494331	79	127
332.0910204081633	332.1722902494331	76	127
332.23031746031745	332.3348072562358	53	127
332.23031746031745	332.50897959183675	48	127
332.23031746031745	332.34643990929703	81	127
332.23031746031745	332.34643990929703	77	127
332.23031746031745	332.50897959183675	57	127
332.34643990929703	332.4044897959184	81	127
332.34643990929703	332.4044897959184	84	127
332.3928798185941	332.50897959183675	48	127
332.46253968253967	332.5321995464853	81	127
332.46253968253967	332.5321995464853	84	127
332.5902494331066	332.7179591836735	81	127
332.5902494331066	332.8921088435374	48	127
332.5902494331066	332.7063492063492	48	127
332.5902494331066	332.7179591836735	84	127
332.5902494331066	332.8921088435374	58	127
332.7179591836735	332.7992290249433	79	127
332.7179591836735	332.7992290249433	76	127
332.78761904761905	332.8921088435374	36	127
332.8572789115646	332.91532879818595	79	127
332.8572789115646	332.91532879818595	76	127
332.97337868480724	333.0894784580499	53	127
332.97337868480724	333.28684807256235	57	127
332.97337868480724	333.28684807256235	48	127
332.97337868480724	333.10108843537415	81	127
332.97337868480724	333.10108843537415	77	127
333.10108843537415	333.182358276644	84	127
333.10108843537415	333.182358276644	81	127
333.1707482993197	333.28684807256235	48	127
333.24040816326533	333.3100680272109	81	127
333.24040816326533	333.3100680272109	84	127
333.3681179138322	333.69319727891155	58	127
333.3681179138322	333.4958276643991	81	127
333.3681179138322	333.4958276643991	84	127
333.3681179138322	333.69319727891155	48	127
333.3681179138322	333.4842176870748	48	127
333.4958276643991	333.5770975056689	79	127
333.4958276643991	333.5770975056689	76	127
333.5654648526077	333.69319727891155	36	127
333.64675736961453	333.7164172335601	79	127
333.64675736961453	333.7164172335601	76	127
333.77444444444444	334.0879365079365	57	127
333.77444444444444	333.890566893424	53	127
333.77444444444444	333.9021768707483	81	127
333.77444444444444	333.9021768707483	77	127
333.77444444444444	334.0879365079365	48	127
333.9021768707483	333.9834467120181	84	127
333.9021768707483	333.9834467120181	81	127
333.9718140589569	334.0879365079365	48	127
334.04149659863947	334.11115646258503	81	127
334.04149659863947	334.11115646258503	84	127
334.1692063492064	334.285283446712	81	127
334.1692063492064	334.4826530612245	58	127
334.1692063492064	334.27367346938775	48	127
334.1692063492064	334.285283446712	84	127
334.1692063492064	334.4826530612245	48	127
334.285283446712	334.36657596371884	79	127
334.285283446712	334.36657596371884	76	127
334.3549659863946	334.4826530612245	36	127
334.42462585034014	334.50589569160996	79	127
334.42462585034014	334.50589569160996	76	127
334.5639455782313	334.6684353741497	77	127
334.5639455782313	334.6684353741497	69	127
334.5639455782313	334.6684353741497	41	127
334.5639455782313	334.6916326530612	60	127
334.6916326530612	334.7845124716553	77	127
334.6916326530612	334.7613151927438	65	127
334.6916326530612	334.7845124716553	69	127
334.6916326530612	334.7845124716553	41	127
334.81936507936507	334.8774149659864	65	127
334.81936507936507	334.91224489795917	77	127
334.81936507936507	334.91224489795917	69	127
334.81936507936507	334.91224489795917	41	127
334.9354648526077	335.0399546485261	69	127
334.9354648526077	335.0399546485261	41	127
334.9354648526077	335.0631746031746	77	127
334.9354648526077	335.0631746031746	65	127
335.0631746031746	335.14444444444445	78	127
335.0631746031746	335.14444444444445	63	127
335.0631746031746	335.167664399093	69	127
335.0631746031746	335.167664399093	41	127
335.2024716553288	335.27215419501135	78	127
335.2024716553288	335.27215419501135	63	127
335.2024716553288	335.30696145124716	69	127
335.2024716553288	335.30696145124716	41	127
335.33020408163264	335.45791383219955	78	127
335.33020408163264	335.434693877551	41	127
335.33020408163264	335.45791383219955	69	127
335.33020408163264	335.45791383219955	63	127
335.45791383219955	335.5391836734694	79	127
335.45791383219955	335.5391836734694	70	127
335.45791383219955	335.5391836734694	62	127
335.45791383219955	335.5624036281179	41	127
335.608820861678	335.67850340136056	79	127
335.608820861678	335.67850340136056	70	127
335.608820861678	335.67850340136056	62	127
335.608820861678	335.71331065759637	41	127
335.73655328798185	335.8410430839002	41	127
335.73655328798185	335.875873015873	79	127
335.73655328798185	335.875873015873	70	127
335.73655328798185	335.875873015873	62	127
335.875873015873	335.95714285714286	80	127
335.875873015873	335.95714285714286	71	127
335.875873015873	335.95714285714286	61	127
335.875873015873	335.9803628117914	41	127
336.0151700680272	336.08485260770976	80	127
336.0151700680272	336.08485260770976	71	127
336.0151700680272	336.08485260770976	61	127
336.0151700680272	336.11965986394557	41	127
336.14290249433105	336.2473922902494	41	127
336.14290249433105	336.27061224489796	80	127
336.14290249433105	336.27061224489796	71	127
336.14290249433105	336.27061224489796	61	127
336.27061224489796	336.3518820861678	81	127
336.27061224489796	336.3518820861678	72	127
336.27061224489796	336.3518820861678	60	127
336.27061224489796	336.37510204081633	41	127
336.40993197278914	336.4795918367347	81	127
336.40993197278914	336.4795918367347	72	127
336.40993197278914	336.4795918367347	60	127
336.40993197278914	336.5144217687075	41	127
336.537641723356	336.64213151927436	41	127
336.537641723356	336.6653514739229	81	127
336.537641723356	336.6653514739229	72	127
336.537641723356	336.6653514739229	60	127
336.6653514739229	336.7466213151927	82	127
336.6653514739229	336.7466213151927	73	127
336.6653514739229	336.7466213151927	58	127
336.6653514739229	336.76984126984127	41	127
336.8046712018141	336.87433106575963	82	127
336.8046712018141	336.87433106575963	73	127
336.8046712018141	336.87433106575963	58	127
336.8046712018141	336.90916099773244	41	127
336.932358276644	337.03684807256235	41	127
336.932358276644	337.06009070294783	82	127
336.932358276644	337.06009070294783	73	127
336.932358276644	337.06009070294783	58	127
337.06009070294783	337.1413378684807	83	127
337.06009070294783	337.1413378684807	74	127
337.06009070294783	337.1413378684807	57	127
337.06009070294783	337.1645804988662	41	127
337.199410430839	337.26907029478457	83	127
337.199410430839	337.26907029478457	74	127
337.199410430839	337.26907029478457	57	127
337.199410430839	337.3039002267574	41	127
337.3271201814059	337.40839002267575	57	127
337.3271201814059	337.4316099773243	41	127
337.3271201814059	337.4548072562358	83	127
337.3271201814059	337.4548072562358	74	127
337.4548072562358	337.53609977324265	84	127
337.4548072562358	337.53609977324265	75	127
337.4548072562358	337.53609977324265	57	127
337.4548072562358	337.55931972789114	41	127
337.59414965986394	337.6638095238095	84	127
337.59414965986394	337.6638095238095	75	127
337.59414965986394	337.6638095238095	57	127
337.59414965986394	337.6986394557823	41	127
337.7334693877551	337.84956916099776	41	127
337.7334693877551	337.87278911564624	84	127
337.7334693877551	337.87278911564624	75	127
337.7334693877551	337.87278911564624	57	127
337.87278911564624	337.9656462585034	85	127
337.87278911564624	337.9656462585034	77	127
337.87278911564624	337.9656462585034	56	127
337.87278911564624	337.9888888888889	41	127
338.0237188208617	338.09337868480725	77	127
338.0237188208617	338.09337868480725	85	127
338.0237188208617	338.09337868480725	56	127
338.0237188208617	338.12820861678006	41	127
338.18625850340135	338.26750566893423	73	127
338.18625850340135	338.26750566893423	80	127
338.18625850340135	338.26750566893423	65	127
338.18625850340135	338.26750566893423	56	127
338.18625850340135	338.2907482993197	53	127
338.18625850340135	338.26750566893423	85	127
338.3255782312925	338.40684807256235	85	127
338.3255782312925	338.40684807256235	73	127
338.3255782312925	338.40684807256235	80	127
338.3255782312925	338.40684807256235	56	127
338.3255782312925	338.40684807256235	65	127
338.3255782312925	338.4300680272109	53	127
338.47648526077097	338.54616780045353	85	127
338.47648526077097	338.54616780045353	80	127
338.47648526077097	338.54616780045353	73	127
338.47648526077097	338.54616780045353	56	127
338.47648526077097	338.54616780045353	65	127
338.47648526077097	338.5809977324263	53	127
338.6042176870748	338.68548752834465	85	127
338.6042176870748	338.68548752834465	80	127
338.6042176870748	338.68548752834465	73	127
338.6042176870748	338.68548752834465	65	127
338.6042176870748	338.68548752834465	56	127
338.6042176870748	338.7087074829932	53	127
338.73192743764173	338.81319727891156	85	127
338.73192743764173	338.81319727891156	80	127
338.73192743764173	338.81319727891156	73	127
338.73192743764173	338.81319727891156	56	127
338.73192743764173	338.81319727891156	65	127
338.73192743764173	338.8364172335601	53	127
338.8712471655329	338.94090702947847	85	127
338.8712471655329	338.94090702947847	80	127
338.8712471655329	338.94090702947847	73	127
338.8712471655329	338.94090702947847	56	127
338.8712471655329	338.94090702947847	65	127
338.8712471655329	338.9757369614513	53	127
338.99895691609976	339.12666666666667	53	127
338.99895691609976	339.1034467120181	85	127
338.99895691609976	339.1034467120181	80	127
338.99895691609976	339.1034467120181	73	127
338.99895691609976	339.1034467120181	56	127
338.99895691609976	339.1034467120181	65	127
339.1498866213152	339.23115646258503	73	127
339.1498866213152	339.23115646258503	80	127
339.1498866213152	339.23115646258503	85	127
339.1498866213152	339.23115646258503	56	127
339.1498866213152	339.23115646258503	65	127
339.1498866213152	339.2543764172336	53	127
339.2891836734694	339.35886621315194	85	127
339.2891836734694	339.35886621315194	80	127
339.2891836734694	339.35886621315194	73	127
339.2891836734694	339.35886621315194	65	127
339.2891836734694	339.35886621315194	56	127
339.2891836734694	339.39367346938775	53	127
339.41691609977323	339.7419954648526	89	127
339.41691609977323	339.7419954648526	83	127
339.41691609977323	339.7419954648526	71	127
339.41691609977323	339.7419954648526	56	127
339.41691609977323	339.7419954648526	65	127
339.41691609977323	339.7419954648526	49	127
340.29927437641726	340.6591836734694	77	127
340.29927437641726	340.6591836734694	83	127
340.29927437641726	340.6591836734694	71	127
340.29927437641726	340.6591836734694	68	127
340.29927437641726	340.6591836734694	56	127
340.29927437641726	340.6591836734694	49	127
341.01909297052157	341.3209523809524	57	127
341.01909297052157	341.29773242630387	84	127
341.01909297052157	341.29773242630387	48	127
341.01909297052157	341.3209523809524	69	127
341.01909297052157	341.29773242630387	72	127
341.01909297052157	341.3209523809524	65	127
341.01909297052157	341.3209523809524	65	127
341.12356009070294	341.3209523809524	69	127
341.12356009070294	341.3209523809524	77	127
341.77374149659863	342.1336507936508	36	127
341.77374149659863	342.15684807256235	70	127
341.77374149659863	342.15684807256235	58	127
341.77374149659863	342.15684807256235	67	127
341.77374149659863	342.15684807256235	48	127
341.878231292517	342.15684807256235	76	127
341.878231292517	342.15684807256235	64	127
342.65609977324266	342.8534693877551	48	127
342.65609977324266	342.84185941043086	69	127
342.65609977324266	342.84185941043086	41	127
342.65609977324266	342.8534693877551	57	127
342.65609977324266	342.84185941043086	77	127
342.71414965986395	342.8534693877551	65	127
343.21337868480725	343.48038548752834	77	127
343.21337868480725	343.48038548752834	65	127
343.21337868480725	343.48038548752834	65	127
343.5500680272109	343.6313378684807	74	127
343.5500680272109	343.6313378684807	62	127
343.5500680272109	343.6313378684807	62	127
343.65455782312927	343.8751473922903	72	127
343.65455782312927	343.8751473922903	60	127
343.65455782312927	343.8751473922903	60	127
343.93319727891156	344.0144671201814	69	127
343.93319727891156	344.0144671201814	57	127
343.93319727891156	344.0144671201814	57	127
344.03768707482993	344.29308390022675	65	127
344.03768707482993	344.29308390022675	53	127
344.03768707482993	344.29308390022675	53	127
344.35115646258504	344.43242630385487	62	127
344.35115646258504	344.43242630385487	50	127
344.35115646258504	344.43242630385487	50	127
344.4556462585034	344.61818594104307	53	127
344.4556462585034	344.61818594104307	65	127
344.4556462585034	344.61818594104307	53	127
344.88521541950115	345.19868480725626	77	127
344.88521541950115	345.19868480725626	65	127
344.88521541950115	345.19868480725626	69	127
344.88521541950115	345.19868480725626	60	127
344.88521541950115	345.19868480725626	53	127
344.88521541950115	345.19868480725626	41	127
345.3147619047619	345.41925170068026	77	127
345.3147619047619	345.41925170068026	69	127
345.3147619047619	345.41925170068026	65	127
345.3147619047619	345.41925170068026	60	127
345.3147619047619	345.41925170068026	53	127
345.3147619047619	345.41925170068026	41	127
345.45410430839	346.5454195011338	53	127
345.45410430839	346.5454195011338	69	127
345.45410430839	346.5454195011338	65	127
345.45410430839	346.5454195011338	60	127
345.45410430839	346.60349206349207	77	127
345.45410430839	346.60349206349207	69	127
345.45410430839	346.60349206349207	41	127
346.64990929705215	347.8225396825397	60	127
346.64990929705215	347.8225396825397	53	127
346.64990929705215	347.89219954648524	69	127
346.64990929705215	347.89219954648524	65	127
346.64990929705215	347.89219954648524	41	127
346.64990929705215	347.8225396825397	65	127
347.9502494331066	349.9007256235828	69	127
347.9502494331066	349.78462585034015	65	127
347.9502494331066	349.78462585034015	60	127
347.9502494331066	349.78462585034015	53	127
347.9502494331066	349.78462585034015	41	127
