# onset,offset,note,velocity
0.19659863945578232	0.32430839002267575	62	127
0.19659863945578232	0.32430839002267575	66	127
0.5100680272108844	0.6958276643990929	67	127
0.5100680272108844	0.6958276643990929	64	127
0.9164172335600907	1.0789569160997732	62	127
0.9164172335600907	1.0789569160997732	66	127
1.3575963718820863	1.5549659863945577	64	127
1.3575963718820863	1.5549659863945577	57	127
1.7523356009070294	1.9497052154195011	38	127
1.7523356009070294	2.170294784580499	62	127
1.7523356009070294	2.170294784580499	54	127
2.181904761904762	2.3908843537414968	42	127
2.5418140589569163	2.7275736961451247	45	127
2.9017233560090703	3.075873015873016	50	127
3.2616326530612243	3.424172335600907	67	127
3.2616326530612243	3.424172335600907	64	127
3.2616326530612243	3.5983219954648527	45	127
3.6099319727891155	3.784081632653061	69	127
3.6099319727891155	3.784081632653061	66	127
3.981451247165533	4.167210884353741	67	127
3.981451247165533	4.167210884353741	64	127
4.376190476190477	4.561950113378685	66	127
4.376190476190477	4.561950113378685	62	127
4.770907029478458	4.956689342403628	64	127
4.770907029478458	4.956689342403628	45	127
4.770907029478458	5.1656689342403626	57	127
5.188888888888889	5.351428571428571	57	127
5.548775510204082	5.711337868480726	55	127
5.908707482993197	6.059637188208617	52	127
6.268616780045352	6.4543764172335605	69	127
6.268616780045352	6.4543764172335605	66	127
6.268616780045352	6.616916099773243	50	127
6.628526077097506	6.837505668934241	74	127
6.628526077097506	6.837505668934241	54	127
7.058095238095238	7.243854875283446	71	127
7.058095238095238	7.243854875283446	55	127
7.464444444444444	7.557324263038549	67	127
7.464444444444444	7.557324263038549	59	127
7.754693877551021	7.975283446712018	66	127
7.754693877551021	7.975283446712018	57	127
7.754693877551021	8.230702947845804	38	127
8.242312925170069	8.416462585034013	69	127
8.242312925170069	8.416462585034013	54	127
8.625442176870749	8.811201814058958	67	127
8.625442176870749	8.811201814058958	59	127
8.625442176870749	8.996938775510204	43	127
9.008571428571429	9.252380952380953	64	127
9.008571428571429	9.252380952380953	55	127
9.449750566893425	9.62390022675737	54	127
9.449750566893425	9.798049886621316	45	127
9.449750566893425	9.62390022675737	62	127
9.809659863945578	9.97219954648526	66	127
9.809659863945578	9.97219954648526	57	127
10.15795918367347	10.343718820861678	64	127
10.15795918367347	10.343718820861678	55	127
10.15795918367347	10.54108843537415	45	127
10.552698412698414	10.726848072562358	61	127
10.552698412698414	10.726848072562358	52	127
10.92421768707483	11.330566893424036	62	127
10.92421768707483	11.330566893424036	54	127
10.92421768707483	11.330566893424036	50	127
11.342154195011338	11.725283446712018	81	127
11.736916099773243	12.131655328798185	81	127
12.14326530612245	12.282585034013605	81	127
12.294195011337868	13.687392290249432	81	127
12.294195011337868	12.479954648526077	66	127
12.294195011337868	12.479954648526077	62	127
12.677324263038548	12.863083900226757	67	127
12.677324263038548	12.863083900226757	64	127
13.048843537414966	13.188163265306123	66	127
13.048843537414966	13.188163265306123	62	127
13.397142857142857	13.594512471655328	64	127
13.397142857142857	13.594512471655328	57	127
13.745442176870748	13.791882086167801	81	127
13.803492063492063	14.918049886621315	90	127
13.803492063492063	14.012471655328799	38	127
13.803492063492063	14.20984126984127	62	127
13.803492063492063	14.20984126984127	54	127
14.221451247165533	14.407210884353741	42	127
14.616190476190477	14.801950113378684	45	127
14.941269841269841	15.138639455782313	88	127
14.941269841269841	15.138639455782313	50	127
15.150249433106575	15.277959183673469	86	127
15.289569160997733	15.452108843537415	67	127
15.289569160997733	15.452108843537415	64	127
15.289569160997733	15.614648526077097	45	127
15.289569160997733	15.997777777777777	86	127
15.62625850340136	15.812018140589569	66	127
15.62625850340136	15.812018140589569	69	127
16.02097505668934	16.20673469387755	67	127
16.02097505668934	16.20673469387755	64	127
16.02097505668934	16.299637188208617	85	127
16.31124716553288	16.404126984126986	86	127
16.41573696145125	16.601496598639457	66	127
16.41573696145125	16.473786848072564	88	127
16.41573696145125	16.601496598639457	62	127
16.473786848072564	16.53183673469388	86	127
16.53183673469388	16.601496598639457	88	127
16.61310657596372	16.69437641723356	86	127
16.705986394557822	16.72920634920635	85	127
16.72920634920635	16.91496598639456	45	127
16.72920634920635	17.089115646258502	88	127
16.72920634920635	17.089115646258502	64	127
16.72920634920635	17.089115646258502	61	127
17.100702947845804	17.27487528344671	49	127
17.48385487528345	17.68122448979592	52	127
17.890204081632653	18.087573696145125	49	127
18.308163265306124	18.505532879818595	64	127
18.308163265306124	19.689750566893423	81	127
18.308163265306124	18.72612244897959	45	127
18.308163265306124	18.505532879818595	67	127
18.737732426303854	18.923492063492063	69	127
18.737732426303854	18.923492063492063	66	127
19.10925170068027	19.271791383219956	67	127
19.10925170068027	19.271791383219956	64	127
19.48077097505669	19.666530612244898	62	127
19.48077097505669	19.666530612244898	66	127
19.724580498866214	19.771020408163267	81	127
19.78263038548753	20.17736961451247	64	127
19.78263038548753	19.98	45	127
19.78263038548753	20.17736961451247	61	127
19.78263038548753	20.89718820861678	91	127
20.188979591836734	20.374739229024943	49	127
20.537278911564627	20.723038548752836	52	127
20.93201814058957	21.11777777777778	57	127
20.93201814058957	21.11777777777778	90	127
21.12938775510204	21.21065759637188	88	127
21.222244897959182	21.651836734693877	50	127
21.222244897959182	22.034965986394557	88	127
21.222244897959182	21.454467120181405	69	127
21.222244897959182	21.454467120181405	66	127
21.663424036281178	21.849206349206348	67	127
21.663424036281178	21.849206349206348	71	127
22.058185941043085	22.243945578231294	69	127
22.058185941043085	22.243945578231294	66	127
22.058185941043085	22.336825396825397	86	127
22.34843537414966	22.441315192743765	88	127
22.452925170068028	22.638684807256237	64	127
22.452925170068028	22.510975056689343	90	127
22.452925170068028	22.638684807256237	67	127
22.510975056689343	22.56902494331066	88	127
22.56902494331066	22.638684807256237	90	127
22.6502947845805	22.73156462585034	88	127
22.74315192743764	22.778004535147392	86	127
22.778004535147392	23.161133786848072	90	127
22.778004535147392	23.161133786848072	66	127
22.778004535147392	23.161133786848072	62	127
22.778004535147392	22.9637641723356	38	127
23.172743764172335	23.34689342403628	42	127
23.579092970521543	23.764852607709752	45	127
23.985442176870748	24.159591836734695	50	127
24.356961451247166	24.542721088435375	66	127
24.356961451247166	24.542721088435375	62	127
24.356961451247166	24.740090702947846	38	127
24.356961451247166	25.088390022675735	81	127
24.75170068027211	24.937460317460317	74	127
24.75170068027211	24.937460317460317	66	127
25.088390022675735	25.123219954648526	85	127
25.123219954648526	25.297369614512473	67	127
25.123219954648526	25.297369614512473	67	127
25.123219954648526	25.390249433106575	83	127
25.401859410430838	25.494739229024944	81	127
25.506349206349206	25.645668934240362	74	127
25.506349206349206	25.645668934240362	55	127
25.506349206349206	25.726938775510202	83	127
25.726938775510202	25.808208616780046	86	127
25.81981859410431	26.005578231292517	62	127
25.81981859410431	26.005578231292517	66	127
25.81981859410431	26.20294784580499	38	127
25.81981859410431	26.388707482993198	81	127
26.21455782312925	26.40031746031746	74	127
26.21455782312925	26.40031746031746	66	127
26.493197278911566	26.539637188208616	81	127
26.539637188208616	26.876326530612246	79	127
26.59768707482993	26.78344671201814	73	127
26.59768707482993	26.78344671201814	64	127
26.88793650793651	26.957596371882087	78	127
26.96920634920635	27.096916099773242	73	127
26.96920634920635	27.096916099773242	76	127
26.96920634920635	27.18979591836735	79	127
27.20140589569161	27.294285714285714	81	127
27.305895691609976	27.491655328798185	38	127
27.305895691609976	27.491655328798185	74	127
27.305895691609976	27.689024943310656	74	127
27.305895691609976	27.874784580498865	78	127
27.700634920634922	27.88639455782313	42	127
27.700634920634922	27.88639455782313	69	127
27.990884353741496	28.03732426303855	78	127
28.03732426303855	28.362403628117914	76	127
28.083764172335602	28.26952380952381	67	127
28.083764172335602	28.26952380952381	45	127
28.38562358276644	28.478503401360545	74	127
28.490113378684807	28.65265306122449	45	127
28.490113378684807	28.65265306122449	67	127
28.490113378684807	28.850022675736962	73	127
28.490113378684807	28.745532879818594	76	127
28.757142857142856	28.850022675736962	78	127
28.861632653061225	32.10081632653061	74	127
28.861632653061225	29.337641723356008	66	127
28.861632653061225	29.337641723356008	50	127
28.861632653061225	29.709160997732425	74	127
29.349251700680274	29.720770975056688	62	127
29.732380952380954	30.06907029478458	64	127
29.732380952380954	30.06907029478458	73	127
30.06907029478458	30.440589569161	66	127
30.06907029478458	30.440589569161	72	127
30.45219954648526	30.707619047619048	67	127
30.45219954648526	30.707619047619048	71	127
30.71922902494331	31.113968253968252	66	127
30.71922902494331	31.113968253968252	70	127
31.12557823129252	31.427437641723355	71	127
31.12557823129252	31.427437641723355	67	127
31.43904761904762	31.810566893424035	68	127
31.43904761904762	31.810566893424035	65	127
31.8221768707483	32.170476190476194	66	127
31.8221768707483	32.170476190476194	69	127
32.170476190476194	32.51877551020408	86	127
32.170476190476194	32.51877551020408	50	127
32.170476190476194	32.78578231292517	62	127
32.51877551020408	32.797392290249434	85	127
32.51877551020408	32.797392290249434	52	127
32.80902494331066	33.15732426303855	84	127
32.80902494331066	33.15732426303855	54	127
32.80902494331066	33.55204081632653	62	127
33.16891156462585	33.56367346938776	83	127
33.16891156462585	33.56367346938776	55	127
33.57528344671202	33.90036281179138	82	127
33.57528344671202	33.90036281179138	54	127
33.57528344671202	34.26027210884354	62	127
33.911972789115644	34.2718820861678	83	127
33.911972789115644	34.2718820861678	55	127
34.28349206349206	34.66662131519274	80	127
34.28349206349206	34.66662131519274	53	127
34.28349206349206	35.00331065759637	62	127
34.678231292517005	35.014920634920635	81	127
34.678231292517005	35.014920634920635	54	127
35.0265306122449	35.37482993197279	74	127
35.0265306122449	35.42126984126984	69	127
35.0265306122449	35.42126984126984	66	127
35.37482993197279	35.42126984126984	78	127
35.4328798185941	35.79278911564626	67	127
35.4328798185941	35.79278911564626	64	127
35.4328798185941	35.74634920634921	76	127
35.74634920634921	35.79278911564626	79	127
35.80439909297052	36.12947845804989	78	127
35.80439909297052	36.17591836734694	66	127
35.80439909297052	36.17591836734694	62	127
36.12947845804989	36.17591836734694	81	127
36.1875283446712	36.51260770975057	79	127
36.1875283446712	36.51260770975057	64	127
36.1875283446712	36.51260770975057	61	127
36.52421768707483	37.24403628117914	76	127
36.52421768707483	36.884126984126986	45	127
36.52421768707483	37.24403628117914	79	127
36.52421768707483	37.24403628117914	57	127
36.89573696145125	37.255646258503404	49	127
37.267256235827666	37.998662131519275	78	127
37.267256235827666	37.40657596371882	74	127
37.267256235827666	37.60394557823129	62	127
37.267256235827666	37.60394557823129	50	127
37.418185941043085	37.60394557823129	73	127
37.615532879818595	37.998662131519275	62	127
37.615532879818595	39.14807256235828	71	127
37.615532879818595	38.37018140589569	55	127
38.0102947845805	38.381791383219955	59	127
38.0102947845805	38.7649433106576	76	127
38.39342403628118	38.77655328798186	64	127
38.39342403628118	39.15968253968254	56	127
38.788163265306125	39.171292517006805	74	127
38.788163265306125	39.171292517006805	64	127
39.18290249433107	39.333832199546485	73	127
39.18290249433107	39.53120181405896	69	127
39.18290249433107	39.53120181405896	64	127
39.18290249433107	39.53120181405896	57	127
39.54281179138322	39.69374149659864	76	127
39.86789115646258	40.018798185941044	69	127
40.22780045351474	40.401927437641724	81	127
40.22780045351474	40.401927437641724	45	127
40.22780045351474	40.59931972789116	73	127
40.22780045351474	40.59931972789116	69	127
40.41356009070295	40.59931972789116	49	127
40.61092970521542	40.785056689342404	80	127
40.61092970521542	40.98244897959184	52	127
40.61092970521542	41.353968253968254	74	127
40.61092970521542	41.353968253968254	71	127
40.9940589569161	41.168185941043085	76	127
41.37718820861678	41.65582766439909	71	127
41.37718820861678	41.56294784580499	74	127
41.37718820861678	41.65582766439909	74	127
41.667414965986396	41.76031746031746	73	127
41.667414965986396	41.76031746031746	69	127
41.77192743764172	42.050544217687076	74	127
41.77192743764172	42.1550566893424	56	127
41.77192743764172	42.050544217687076	71	127
41.77192743764172	41.957687074829934	71	127
42.0621768707483	42.1550566893424	76	127
42.0621768707483	42.1550566893424	73	127
42.166666666666664	42.56138321995465	73	127
42.166666666666664	42.35242630385488	73	127
42.166666666666664	42.56138321995465	69	127
42.166666666666664	42.56138321995465	57	127
42.573015873015876	42.75877551020408	76	127
42.9097052154195	43.07222222222222	69	127
43.269614512471655	43.39732426303855	81	127
43.269614512471655	43.39732426303855	45	127
43.269614512471655	43.583061224489796	73	127
43.269614512471655	43.583061224489796	69	127
43.40893424036281	43.583061224489796	49	127
43.59469387755102	44.2912925170068	71	127
43.59469387755102	43.768843537414966	80	127
43.59469387755102	43.954580498866214	52	127
43.59469387755102	44.256462585034015	74	127
43.96621315192744	44.151972789115646	76	127
44.256462585034015	44.302902494331065	76	127
44.31451247165533	44.477052154195015	74	127
44.31451247165533	44.569931972789114	74	127
44.31451247165533	44.569931972789114	71	127
44.581541950113376	44.67442176870748	73	127
44.581541950113376	44.67442176870748	69	127
44.686031746031745	44.87179138321996	71	127
44.686031746031745	44.9646485260771	74	127
44.686031746031745	44.9646485260771	71	127
44.686031746031745	45.069160997732425	56	127
44.97625850340136	45.069160997732425	76	127
44.97625850340136	45.069160997732425	73	127
45.08077097505669	45.44068027210884	73	127
45.08077097505669	45.44068027210884	69	127
45.08077097505669	45.87024943310658	57	127
45.452290249433105	45.88185941043084	64	127
45.91668934240363	46.24174603174603	57	127
45.91668934240363	46.56684807256236	49	127
46.24174603174603	46.57845804988662	69	127
46.59006802721088	46.97319727891156	66	127
46.59006802721088	46.97319727891156	50	127
46.984807256235825	47.33310657596372	62	127
46.984807256235825	47.33310657596372	71	127
46.984807256235825	47.33310657596372	66	127
47.34471655328798	47.72784580498866	70	127
47.34471655328798	47.72784580498866	64	127
47.34471655328798	47.72784580498866	61	127
47.73945578231292	48.09936507936508	76	127
47.73945578231292	48.09936507936508	61	127
47.73945578231292	48.09936507936508	66	127
47.73945578231292	48.09936507936508	58	127
48.11097505668934	48.49410430839002	74	127
48.11097505668934	48.49410430839002	62	127
48.11097505668934	48.49410430839002	66	127
48.11097505668934	48.49410430839002	59	127
48.505714285714284	48.83079365079365	69	127
48.505714285714284	48.83079365079365	64	127
48.505714285714284	48.83079365079365	61	127
48.842403628117914	49.225532879818594	68	127
48.842403628117914	49.225532879818594	62	127
48.842403628117914	49.225532879818594	59	127
49.23714285714286	49.655102040816324	74	127
49.23714285714286	49.655102040816324	59	127
49.23714285714286	49.655102040816324	64	127
49.23714285714286	49.655102040816324	56	127
49.666712018140586	50.038231292517004	73	127
49.666712018140586	50.038231292517004	61	127
49.666712018140586	50.038231292517004	64	127
49.666712018140586	50.038231292517004	57	127
50.04984126984127	50.421360544217684	76	127
50.04984126984127	50.421360544217684	71	127
50.04984126984127	50.421360544217684	64	127
50.04984126984127	50.421360544217684	56	127
50.43297052154195	50.83931972789116	75	127
50.43297052154195	50.83931972789116	69	127
50.43297052154195	50.83931972789116	66	127
50.43297052154195	50.83931972789116	54	127
50.85092970521542	51.26888888888889	81	127
50.85092970521542	51.26888888888889	63	127
50.85092970521542	51.26888888888889	66	127
50.85092970521542	51.26888888888889	47	127
51.28049886621315	51.66362811791383	80	127
51.28049886621315	51.66362811791383	64	127
51.28049886621315	51.66362811791383	64	127
51.28049886621315	51.66362811791383	52	127
51.67523809523809	52.464716553287985	76	127
52.48793650793651	53.09165532879818	78	127
52.48793650793651	53.09165532879818	76	127
53.114875283446715	53.86952380952381	80	127
53.114875283446715	53.86952380952381	74	127
53.114875283446715	53.86952380952381	65	127
53.89274376417234	54.68222222222222	53	127
53.89274376417234	54.68222222222222	81	127
53.89274376417234	54.68222222222222	72	127
53.89274376417234	54.68222222222222	69	127
54.70544217687075	55.49492063492063	81	127
54.70544217687075	55.49492063492063	67	127
54.70544217687075	55.49492063492063	52	127
54.70544217687075	55.49492063492063	73	127
55.518140589569164	56.226349206349205	82	127
55.518140589569164	56.226349206349205	73	127
55.518140589569164	56.226349206349205	67	127
55.518140589569164	56.226349206349205	52	127
56.24956916099773	57.03904761904762	83	127
56.24956916099773	57.03904761904762	71	127
56.24956916099773	57.03904761904762	66	127
56.24956916099773	57.03904761904762	51	127
57.06226757369615	57.85174603174603	80	127
57.06226757369615	57.85174603174603	71	127
57.06226757369615	57.85174603174603	64	127
57.06226757369615	57.85174603174603	50	127
57.87496598639456	58.629614512471655	81	127
57.87496598639456	58.629614512471655	76	127
57.87496598639456	58.629614512471655	57	127
57.87496598639456	58.629614512471655	49	127
58.65283446712018	59.03596371882086	85	127
58.65283446712018	59.03596371882086	76	127
58.65283446712018	59.03596371882086	69	127
58.65283446712018	59.03596371882086	45	127
59.04757369614512	59.511972789115646	86	127
59.04757369614512	59.511972789115646	76	127
59.04757369614512	59.511972789115646	71	127
59.04757369614512	59.511972789115646	44	127
59.52358276643991	60.220181405895694	86	127
59.52358276643991	60.220181405895694	76	127
59.52358276643991	60.220181405895694	71	127
59.52358276643991	60.220181405895694	44	127
60.24340136054422	60.61492063492064	85	127
60.24340136054422	60.61492063492064	76	127
60.24340136054422	60.61492063492064	69	127
60.24340136054422	60.61492063492064	45	127
60.6265306122449	61.00965986394558	83	127
60.6265306122449	61.00965986394558	78	127
60.6265306122449	61.00965986394558	66	127
60.6265306122449	61.00965986394558	50	127
61.02126984126984	61.74108843537415	83	127
61.02126984126984	61.74108843537415	78	127
61.02126984126984	61.74108843537415	71	127
61.02126984126984	61.74108843537415	50	127
61.76430839002268	62.228707482993194	81	127
61.76430839002268	62.228707482993194	78	127
61.76430839002268	62.228707482993194	71	127
61.76430839002268	62.228707482993194	51	127
62.24031746031746	62.62344671201814	80	127
62.24031746031746	62.62344671201814	76	127
62.24031746031746	62.62344671201814	71	127
62.24031746031746	62.62344671201814	52	127
62.635056689342406	63.37809523809524	76	127
63.401315192743766	64.1443537414966	78	127
63.401315192743766	64.1443537414966	76	127
64.16757369614513	64.92222222222222	80	127
64.16757369614513	64.92222222222222	75	127
64.16757369614513	64.92222222222222	72	127
64.95705215419501	65.72331065759637	80	127
64.95705215419501	65.72331065759637	74	127
64.95705215419501	65.72331065759637	71	127
64.95705215419501	65.72331065759637	53	127
65.7465306122449	66.4779365079365	81	127
65.7465306122449	66.4779365079365	73	127
65.7465306122449	66.4779365079365	69	127
65.7465306122449	66.4779365079365	54	127
66.52439909297053	67.5344671201814	79	127
66.52439909297053	67.5344671201814	73	127
66.52439909297053	67.5344671201814	69	127
66.52439909297053	67.5344671201814	52	127
67.55768707482993	67.96403628117913	78	127
67.55768707482993	67.96403628117913	74	127
67.55768707482993	67.96403628117913	69	127
67.55768707482993	67.96403628117913	50	127
67.9756462585034	68.39360544217688	78	127
67.9756462585034	68.39360544217688	74	127
67.9756462585034	68.39360544217688	69	127
67.9756462585034	68.39360544217688	50	127
68.40521541950113	68.86961451247166	78	127
68.40521541950113	68.86961451247166	74	127
68.40521541950113	68.86961451247166	69	127
68.40521541950113	68.86961451247166	50	127
68.88120181405895	69.75195011337868	78	127
68.88120181405895	69.75195011337868	74	127
68.88120181405895	69.75195011337868	69	127
68.88120181405895	69.75195011337868	50	127
69.76358276643991	70.21637188208616	83	127
69.76358276643991	70.21637188208616	81	127
69.76358276643991	70.21637188208616	78	127
69.76358276643991	70.21637188208616	62	127
70.22798185941043	70.59950113378684	83	127
70.22798185941043	70.59950113378684	81	127
70.22798185941043	70.59950113378684	78	127
70.22798185941043	70.59950113378684	62	127
70.61111111111111	70.9942403628118	62	127
70.61111111111111	70.9942403628118	83	127
70.61111111111111	70.9942403628118	81	127
70.61111111111111	70.9942403628118	78	127
71.00585034013605	71.65600907029479	78	127
71.00585034013605	72.22489795918368	83	127
71.00585034013605	71.65600907029479	81	127
71.00585034013605	72.22489795918368	62	127
71.65600907029479	72.23650793650793	79	127
71.65600907029479	72.23650793650793	77	127
72.25972789115646	72.95632653061224	84	127
72.25972789115646	72.95632653061224	79	127
72.25972789115646	72.95632653061224	76	127
72.25972789115646	72.95632653061224	60	127
72.97954648526077	73.80385487528345	87	127
72.97954648526077	73.81544217687075	69	127
72.97954648526077	73.81544217687075	53	127
72.97954648526077	73.83866213151927	84	127
73.87351473922902	74.24503401360545	88	127
73.87351473922902	74.24503401360545	85	127
73.87351473922902	74.24503401360545	69	127
73.87351473922902	74.24503401360545	52	127
74.65138321995465	75.04612244897959	80	127
74.65138321995465	75.04612244897959	71	127
74.65138321995465	75.04612244897959	74	127
74.65138321995465	75.04612244897959	64	127
74.65138321995465	75.04612244897959	52	127
75.47566893424036	75.59179138321996	81	127
75.47566893424036	75.87043083900227	73	127
75.47566893424036	75.87043083900227	73	127
75.47566893424036	75.87043083900227	64	127
75.47566893424036	75.87043083900227	45	127
75.47566893424036	75.87043083900227	81	127
75.59179138321996	75.73108843537415	80	127
75.73108843537415	75.87043083900227	78	127
75.88204081632654	76.00975056689343	76	127
76.00975056689343	76.13746031746032	74	127
76.13746031746032	76.18390022675737	73	127
76.18390022675737	76.26517006802722	71	127
76.26517006802722	76.39287981859411	69	127
76.39287981859411	76.49734693877551	68	127
76.50897959183673	76.63668934240363	66	127
76.63668934240363	76.7527664399093	64	127
76.7527664399093	76.89210884353741	62	127
76.90371882086168	77.29845804988662	61	127
76.90371882086168	77.29845804988662	61	127
76.90371882086168	77.29845804988662	49	127
77.31006802721089	77.6815873015873	62	127
77.31006802721089	77.6815873015873	62	127
77.31006802721089	77.6815873015873	50	127
77.69319727891157	78.09954648526077	63	127
77.69319727891157	78.09954648526077	51	127
77.69319727891157	78.09954648526077	63	127
78.11115646258503	78.45945578231293	64	127
78.11115646258503	78.45945578231293	64	127
78.11115646258503	78.45945578231293	52	127
78.47106575963718	78.59877551020408	81	127
78.59877551020408	78.6568253968254	83	127
78.6568253968254	78.78453514739229	81	127
78.79614512471656	78.90061224489796	80	127
78.90061224489796	78.98190476190476	78	127
78.98190476190476	79.10961451247165	76	127
79.12122448979592	79.22571428571429	74	127
79.22571428571429	79.31859410430839	73	127
79.31859410430839	79.36503401360544	71	127
79.37664399092971	79.5043537414966	69	127
79.5043537414966	79.6320634920635	68	127
79.6320634920635	79.74816326530612	66	127
79.75977324263039	80.11968253968254	53	127
79.75977324263039	80.11968253968254	65	127
79.75977324263039	80.11968253968254	65	127
80.1312925170068	80.4795918367347	66	127
80.1312925170068	80.4795918367347	54	127
80.1312925170068	80.4795918367347	66	127
80.49120181405895	80.85111111111111	68	127
80.49120181405895	80.85111111111111	68	127
80.49120181405895	80.85111111111111	56	127
80.86272108843538	81.23424036281179	57	127
80.86272108843538	81.23424036281179	69	127
80.86272108843538	81.23424036281179	69	127
81.24585034013606	81.61736961451247	71	127
81.24585034013606	83.25437641723356	69	127
81.24585034013606	81.61736961451247	62	127
81.62897959183674	82.01210884353742	72	127
81.62897959183674	82.01210884353742	63	127
82.02371882086167	82.46489795918367	64	127
82.02371882086167	82.46489795918367	73	127
82.47650793650794	82.8944671201814	66	127
82.47650793650794	82.8944671201814	74	127
82.90607709750567	83.28920634920635	73	127
82.90607709750567	84.47340136054422	64	127
83.30081632653061	83.69555555555556	76	127
83.30081632653061	83.69555555555556	73	127
83.70714285714286	83.88131519274377	71	127
83.70714285714286	83.88131519274377	74	127
83.89292517006803	84.10190476190476	69	127
83.89292517006803	84.10190476190476	73	127
84.11349206349206	84.29927437641723	71	127
84.11349206349206	84.29927437641723	74	127
84.3108843537415	84.49664399092971	71	127
84.3108843537415	84.49664399092971	68	127
84.50825396825397	84.91460317460317	61	127
84.50825396825397	84.63596371882086	69	127
84.50825396825397	84.91460317460317	69	127
84.50825396825397	84.91460317460317	57	127
84.63596371882086	84.79850340136055	76	127
84.79850340136055	84.91460317460317	76	127
84.92621315192744	85.05392290249434	76	127
85.05392290249434	85.18163265306123	76	127
85.18163265306123	85.23965986394558	76	127
85.2512925170068	85.35578231292517	76	127
85.2512925170068	85.4718820861678	71	127
85.2512925170068	85.58798185941043	52	127
85.2512925170068	85.4718820861678	74	127
85.35578231292517	85.44866213151927	76	127
85.44866213151927	85.58798185941043	76	127
85.48349206349206	85.58798185941043	73	127
85.48349206349206	85.58798185941043	69	127
85.59959183673469	85.84340136054422	71	127
85.59959183673469	85.72730158730158	76	127
85.59959183673469	85.84340136054422	74	127
85.72730158730158	85.8201814058957	76	127
85.8201814058957	85.94789115646259	76	127
85.85501133786848	85.94789115646259	76	127
85.85501133786848	85.94789115646259	73	127
85.95950113378684	86.37746031746032	45	127
85.95950113378684	86.08721088435374	76	127
85.95950113378684	86.37746031746032	73	127
85.95950113378684	86.37746031746032	69	127
86.08721088435374	86.23814058956916	76	127
86.23814058956916	86.37746031746032	76	127
86.38904761904762	86.51675736961451	76	127
86.51675736961451	86.58643990929706	76	127
86.58643990929706	86.6677097505669	76	127
86.67931972789115	86.80702947845805	80	127
86.67931972789115	86.95795918367347	62	127
86.67931972789115	87.06244897959184	40	127
86.67931972789115	86.95795918367347	71	127
86.80702947845805	86.93473922902494	80	127
86.93473922902494	87.06244897959184	80	127
86.96956916099774	87.06244897959184	61	127
86.96956916099774	87.06244897959184	69	127
87.0740589569161	87.34108843537415	62	127
87.0740589569161	87.34108843537415	71	127
87.0740589569161	87.201768707483	80	127
87.201768707483	87.31786848072562	80	127
87.31786848072562	87.43396825396826	80	127
87.35269841269842	87.43396825396826	64	127
87.35269841269842	87.43396825396826	73	127
87.44557823129252	88.95487528344671	69	127
87.44557823129252	87.61972789115646	45	127
87.44557823129252	87.75904761904762	81	127
87.44557823129252	88.95487528344671	61	127
87.75904761904762	87.93319727891156	49	127
88.11895691609978	88.31632653061224	52	127
88.52530612244898	88.75750566893424	49	127
88.9897052154195	89.16385487528345	57	127
88.9897052154195	90.48739229024943	67	127
88.9897052154195	90.48739229024943	64	127
89.37283446712019	89.55857142857143	61	127
89.75596371882087	89.93011337868481	64	127
90.11587301587302	90.30160997732426	61	127
90.52222222222223	90.68473922902494	66	127
90.52222222222223	90.68473922902494	62	127
90.89374149659864	91.05628117913832	64	127
90.89374149659864	91.05628117913832	67	127
91.23043083900227	91.41619047619048	66	127
91.23043083900227	91.41619047619048	62	127
91.62517006802722	91.79931972789116	64	127
91.62517006802722	91.79931972789116	57	127
92.0082993197279	92.1940589569161	38	127
92.0082993197279	92.37981859410431	62	127
92.0082993197279	92.37981859410431	54	127
92.39142857142858	92.57718820861678	42	127
92.76294784580499	92.92548752834468	45	127
93.11122448979592	93.29700680272109	50	127
93.4827664399093	93.64530612244899	67	127
93.4827664399093	93.64530612244899	64	127
93.4827664399093	93.83106575963718	45	127
93.84267573696145	93.98197278911564	69	127
93.84267573696145	93.98197278911564	66	127
94.16775510204081	94.35351473922903	67	127
94.16775510204081	94.35351473922903	64	127
94.56249433106576	94.748231292517	66	127
94.56249433106576	94.748231292517	62	127
94.9572335600907	95.14299319727891	64	127
94.9572335600907	95.14299319727891	45	127
94.9572335600907	95.34036281179138	57	127
95.35197278911565	95.54934240362812	57	127
95.70027210884354	95.88603174603175	55	127
96.07179138321996	96.26916099773243	52	127
96.4665306122449	96.65229024943311	69	127
96.4665306122449	96.65229024943311	66	127
96.4665306122449	96.83804988662132	50	127
96.84965986394558	97.03541950113379	74	127
96.84965986394558	97.03541950113379	54	127
97.25600907029478	97.44176870748299	71	127
97.25600907029478	97.44176870748299	55	127
97.63913832199546	97.69718820861678	67	127
97.63913832199546	97.69718820861678	59	127
97.90616780045352	98.10353741496598	57	127
97.90616780045352	98.10353741496598	66	127
97.90616780045352	98.31251700680272	38	127
98.32412698412699	98.50988662131519	69	127
98.32412698412699	98.50988662131519	54	127
98.7304761904762	98.97428571428571	67	127
98.7304761904762	98.97428571428571	59	127
98.7304761904762	99.16004535147393	43	127
99.17165532879818	99.3574149659864	64	127
99.17165532879818	99.3574149659864	55	127
99.5431746031746	99.71732426303855	62	127
99.5431746031746	99.71732426303855	54	127
99.5431746031746	99.90308390022676	45	127
99.91469387755102	100.10045351473923	66	127
99.91469387755102	100.10045351473923	57	127
100.2978231292517	100.48358276643991	64	127
100.2978231292517	100.48358276643991	55	127
100.2978231292517	100.65773242630385	45	127
100.66934240362812	100.84349206349206	61	127
100.66934240362812	100.84349206349206	52	127
101.06408163265306	101.50526077097506	62	127
101.06408163265306	101.50526077097506	54	127
101.06408163265306	101.50526077097506	50	127
101.51687074829933	101.92321995464853	81	127
101.93482993197279	102.17863945578232	81	127
102.17863945578232	102.25990929705216	81	127
102.27151927437642	102.45727891156463	66	127
102.27151927437642	103.68793650793651	81	127
102.27151927437642	102.45727891156463	62	127
102.66625850340137	102.87523809523809	67	127
102.66625850340137	102.87523809523809	64	127
103.03777777777778	103.20031746031746	62	127
103.03777777777778	103.20031746031746	66	127
103.4092970521542	103.5950566893424	57	127
103.4092970521542	103.5950566893424	64	127
103.73437641723356	103.78081632653061	81	127
103.79242630385488	104.19877551020409	62	127
103.79242630385488	104.0014058956916	38	127
103.79242630385488	104.19877551020409	54	127
103.79242630385488	104.93020408163265	90	127
104.21038548752834	104.39614512471655	42	127
104.5702947845805	104.75605442176871	45	127
104.96503401360545	105.15079365079364	88	127
104.96503401360545	105.15079365079364	50	127
105.16240362811791	105.30172335600908	86	127
105.31333333333333	106.07959183673469	86	127
105.31333333333333	105.49909297052154	67	127
105.31333333333333	105.49909297052154	64	127
105.31333333333333	105.69646258503401	45	127
105.70807256235828	105.89383219954648	66	127
105.70807256235828	105.89383219954648	69	127
106.10281179138322	106.28857142857143	67	127
106.10281179138322	106.28857142857143	64	127
106.10281179138322	106.38145124716553	85	127
106.3930612244898	106.41628117913832	86	127
106.42789115646258	106.4859410430839	88	127
106.42789115646258	106.61365079365079	66	127
106.42789115646258	106.61365079365079	62	127
106.4859410430839	106.54399092970522	86	127
106.54399092970522	106.61365079365079	88	127
106.62526077097506	106.7065306122449	86	127
106.71814058956916	106.76458049886621	85	127
106.76458049886621	106.77619047619048	86	127
106.78780045351473	106.97356009070295	45	127
106.78780045351473	107.18253968253968	64	127
106.78780045351473	107.18253968253968	61	127
106.78780045351473	107.18253968253968	88	127
107.19414965986394	107.39151927437642	49	127
107.58888888888889	107.76303854875283	52	127
107.97201814058957	108.14616780045351	49	127
108.34353741496598	108.54090702947846	67	127
108.34353741496598	109.70190476190476	81	127
108.34353741496598	108.54090702947846	64	127
108.34353741496598	108.7498866213152	45	127
108.76149659863945	108.9356462585034	66	127
108.76149659863945	108.9356462585034	69	127
109.10979591836735	109.29555555555555	64	127
109.10979591836735	109.29555555555555	67	127
109.4697052154195	109.62063492063493	66	127
109.4697052154195	109.62063492063493	62	127
109.75995464852608	109.80639455782313	81	127
109.8180045351474	110.01537414965986	45	127
109.8180045351474	110.21274376417233	64	127
109.8180045351474	110.21274376417233	61	127
109.8180045351474	110.94417233560091	91	127
110.2243537414966	110.41011337868481	49	127
110.61909297052154	110.79324263038549	52	127
110.97900226757369	111.1647619047619	90	127
110.97900226757369	111.1647619047619	57	127
111.17637188208617	111.32730158730159	88	127
111.33891156462585	112.02390022675738	88	127
111.33891156462585	111.52467120181406	69	127
111.33891156462585	111.52467120181406	66	127
111.33891156462585	111.72204081632653	50	127
111.7336507936508	111.86136054421769	67	127
111.7336507936508	111.86136054421769	71	127
112.0471201814059	112.2328798185941	66	127
112.0471201814059	112.2328798185941	69	127
112.0471201814059	112.32575963718821	86	127
112.33736961451247	112.43024943310658	88	127
112.44185941043084	112.49990929705216	90	127
112.44185941043084	112.62761904761905	67	127
112.44185941043084	112.62761904761905	64	127
112.49990929705216	112.55795918367347	88	127
112.55795918367347	112.62761904761905	90	127
112.6392290249433	112.72049886621315	88	127
112.73210884353742	112.7669387755102	86	127
112.7669387755102	112.91786848072563	38	127
112.7669387755102	113.1152380952381	90	127
112.7669387755102	113.1152380952381	66	127
112.7669387755102	113.1152380952381	62	127
113.12684807256235	113.32421768707484	42	127
113.54480725623583	113.73056689342404	45	127
113.9627664399093	114.13691609977325	50	127
114.31106575963719	114.69419501133787	38	127
114.31106575963719	115.04249433106575	81	127
114.31106575963719	114.4968253968254	66	127
114.31106575963719	114.4968253968254	62	127
114.70580498866214	114.89156462585034	66	127
114.70580498866214	114.89156462585034	74	127
115.04249433106575	115.08893424036282	85	127
115.10054421768707	115.25147392290249	67	127
115.10054421768707	115.25147392290249	67	127
115.10054421768707	115.3443537414966	83	127
115.35596371882086	115.44884353741497	81	127
115.46045351473923	115.64621315192744	74	127
115.46045351473923	115.64621315192744	55	127
115.46045351473923	115.73909297052154	83	127
115.75070294784581	115.82036281179138	86	127
115.83197278911565	116.40086167800453	81	127
115.83197278911565	116.01773242630385	66	127
115.83197278911565	116.01773242630385	62	127
115.83197278911565	116.21510204081633	38	127
116.22671201814059	116.4124716553288	66	127
116.22671201814059	116.4124716553288	74	127
116.51696145124717	116.57501133786847	81	127
116.57501133786847	116.9117006802721	79	127
116.6330612244898	116.818820861678	73	127
116.6330612244898	116.818820861678	64	127
116.92331065759637	117.01619047619047	78	127
117.02780045351474	117.09746031746032	73	127
117.02780045351474	117.09746031746032	76	127
117.02780045351474	117.19034013605442	79	127
117.19034013605442	117.27160997732426	81	127
117.28321995464853	117.480589569161	74	127
117.28321995464853	117.480589569161	38	127
117.28321995464853	117.68956916099773	74	127
117.28321995464853	117.89854875283447	78	127
117.70117913832199	117.91015873015873	42	127
117.70117913832199	117.91015873015873	69	127
118.02625850340137	118.07269841269841	78	127
118.07269841269841	118.38616780045352	76	127
118.14235827664399	118.3281179138322	67	127
118.14235827664399	118.3281179138322	45	127
118.39777777777778	118.46743764172335	74	127
118.47904761904762	118.66480725623583	45	127
118.47904761904762	118.66480725623583	67	127
118.47904761904762	118.75768707482993	76	127
118.47904761904762	118.8621768707483	73	127
118.7692970521542	118.8621768707483	78	127
118.87378684807257	122.10136054421768	74	127
118.87378684807257	119.28013605442177	50	127
118.87378684807257	119.67487528344671	74	127
118.87378684807257	119.28013605442177	66	127
119.29174603174603	119.68648526077098	62	127
119.69809523809523	120.06961451247166	73	127
119.69809523809523	120.06961451247166	64	127
120.08122448979591	120.45274376417234	72	127
120.08122448979591	120.45274376417234	66	127
120.4643537414966	120.70816326530613	67	127
120.4643537414966	120.70816326530613	71	127
120.71977324263038	121.05646258503401	66	127
120.71977324263038	121.05646258503401	70	127
121.06807256235828	121.41637188208617	67	127
121.06807256235828	121.41637188208617	71	127
121.42798185941044	121.79950113378685	65	127
121.42798185941044	121.79950113378685	68	127
121.81111111111112	122.17102040816326	69	127
121.81111111111112	122.17102040816326	66	127
122.18263038548753	122.56575963718821	50	127
122.18263038548753	122.56575963718821	86	127
122.18263038548753	122.84439909297052	62	127
122.57736961451248	122.85600907029479	52	127
122.57736961451248	122.85600907029479	85	127
122.86761904761904	123.25074829931972	84	127
122.86761904761904	123.25074829931972	54	127
122.86761904761904	123.5758276643991	62	127
123.262358276644	123.58743764172335	83	127
123.262358276644	123.58743764172335	55	127
123.58743764172335	123.84285714285714	82	127
123.58743764172335	123.84285714285714	54	127
123.58743764172335	124.1679365079365	62	127
123.85446712018141	124.17954648526077	83	127
123.85446712018141	124.17954648526077	55	127
124.19115646258503	124.58589569160998	80	127
124.19115646258503	124.58589569160998	53	127
124.19115646258503	124.98063492063493	62	127
124.59750566893425	124.99224489795918	81	127
124.59750566893425	124.99224489795918	54	127
125.00385487528345	125.31732426303854	74	127
125.00385487528345	125.3637641723356	69	127
125.00385487528345	125.3637641723356	66	127
125.31732426303854	125.3637641723356	78	127
125.37537414965986	125.70045351473922	76	127
125.37537414965986	125.74689342403629	67	127
125.37537414965986	125.74689342403629	64	127
125.70045351473922	125.74689342403629	79	127
125.75850340136054	126.0255328798186	78	127
125.75850340136054	126.07197278911565	66	127
125.75850340136054	126.07197278911565	62	127
126.0255328798186	126.07197278911565	81	127
126.0835827664399	126.40866213151928	79	127
126.0835827664399	126.40866213151928	64	127
126.0835827664399	126.40866213151928	61	127
126.42027210884353	127.14009070294784	79	127
126.42027210884353	126.78018140589569	45	127
126.42027210884353	127.14009070294784	76	127
126.42027210884353	127.14009070294784	57	127
126.79179138321996	127.15170068027211	49	127
127.16331065759637	127.33746031746031	74	127
127.16331065759637	127.5348299319728	62	127
127.16331065759637	127.5348299319728	50	127
127.16331065759637	127.9063492063492	78	127
127.34907029478458	127.5348299319728	73	127
127.54643990929705	128.9512471655329	71	127
127.54643990929705	127.9063492063492	62	127
127.54643990929705	128.2198185941043	55	127
127.91795918367347	128.23142857142858	59	127
127.91795918367347	128.57972789115647	76	127
128.24301587301588	128.59133786848074	64	127
128.24301587301588	128.9628344671202	56	127
128.60292517006803	128.9744671201814	64	127
128.60292517006803	128.9744671201814	74	127
128.98607709750567	129.18344671201814	73	127
128.98607709750567	129.3808163265306	69	127
128.98607709750567	129.3808163265306	64	127
128.98607709750567	129.3808163265306	57	127
129.39242630385488	129.5433560090703	76	127
129.74072562358276	129.86843537414967	69	127
130.06580498866214	130.2631746031746	45	127
130.06580498866214	130.4489342403628	73	127
130.06580498866214	130.2631746031746	81	127
130.06580498866214	130.4489342403628	69	127
130.2631746031746	130.4489342403628	49	127
130.4489342403628	131.20358276643992	71	127
130.4489342403628	130.62308390022676	80	127
130.4489342403628	130.82045351473923	52	127
130.4489342403628	131.20358276643992	74	127
130.82045351473923	131.0178231292517	76	127
131.21519274376416	131.50544217687076	71	127
131.21519274376416	131.4125396825397	74	127
131.21519274376416	131.50544217687076	74	127
131.51702947845806	131.60993197278913	73	127
131.51702947845806	131.60993197278913	69	127
131.60993197278913	131.8073015873016	71	127
131.60993197278913	131.8769387755102	74	127
131.60993197278913	131.8769387755102	71	127
131.60993197278913	131.98145124716552	56	127
131.88857142857142	131.98145124716552	76	127
131.88857142857142	131.98145124716552	73	127
131.98145124716552	132.19043083900226	73	127
131.98145124716552	132.38777777777779	73	127
131.98145124716552	132.38777777777779	69	127
131.98145124716552	132.38777777777779	57	127
132.38777777777779	132.5271201814059	76	127
132.72448979591837	132.91024943310657	69	127
133.03795918367348	133.23532879818595	81	127
133.03795918367348	133.23532879818595	45	127
133.03795918367348	133.43269841269841	73	127
133.03795918367348	133.43269841269841	69	127
133.23532879818595	133.43269841269841	49	127
133.43269841269841	133.63006802721088	80	127
133.43269841269841	133.82743764172335	52	127
133.43269841269841	134.15251700680273	74	127
133.43269841269841	134.1873469387755	71	127
133.82743764172335	134.02480725623582	76	127
134.15251700680273	134.19895691609977	76	127
134.19895691609977	134.3150566893424	74	127
134.19895691609977	134.39632653061224	74	127
134.19895691609977	134.39632653061224	71	127
134.4079365079365	134.5008163265306	73	127
134.4079365079365	134.5008163265306	69	127
134.5008163265306	134.67496598639457	71	127
134.5008163265306	134.76784580498867	74	127
134.5008163265306	134.76784580498867	71	127
134.5008163265306	134.8491156462585	56	127
134.77945578231294	134.8491156462585	76	127
134.77945578231294	134.8491156462585	73	127
134.8491156462585	135.18580498866214	73	127
134.8491156462585	135.18580498866214	69	127
134.8491156462585	135.5573015873016	57	127
135.18580498866214	135.5689342403628	64	127
135.5689342403628	135.9636507936508	57	127
135.5689342403628	136.3584126984127	49	127
135.9636507936508	136.37	69	127
136.37	136.77637188208618	66	127
136.37	136.77637188208618	50	127
136.77637188208618	137.17111111111112	71	127
136.77637188208618	137.17111111111112	66	127
136.77637188208618	137.17111111111112	62	127
137.17111111111112	137.50780045351473	70	127
137.17111111111112	137.50780045351473	64	127
137.17111111111112	137.50780045351473	61	127
137.50780045351473	137.89092970521543	76	127
137.50780045351473	137.89092970521543	61	127
137.50780045351473	137.89092970521543	66	127
137.50780045351473	137.89092970521543	58	127
137.89092970521543	138.2392290249433	74	127
137.89092970521543	138.2392290249433	62	127
137.89092970521543	138.2392290249433	66	127
137.89092970521543	138.2392290249433	59	127
138.2392290249433	138.59913832199547	69	127
138.2392290249433	138.59913832199547	64	127
138.2392290249433	138.59913832199547	61	127
138.59913832199547	139.00548752834467	68	127
138.59913832199547	139.00548752834467	62	127
138.59913832199547	139.00548752834467	59	127
139.00548752834467	139.4002267573696	74	127
139.00548752834467	139.4002267573696	59	127
139.00548752834467	139.4002267573696	64	127
139.00548752834467	139.4002267573696	56	127
139.4002267573696	139.7949433106576	73	127
139.4002267573696	139.7949433106576	61	127
139.4002267573696	139.7949433106576	64	127
139.4002267573696	139.7949433106576	57	127
139.7949433106576	140.1897052154195	71	127
139.7949433106576	140.1897052154195	64	127
139.7949433106576	140.1897052154195	76	127
139.7949433106576	140.1897052154195	56	127
140.1897052154195	140.60766439909298	75	127
140.1897052154195	140.60766439909298	69	127
140.1897052154195	140.60766439909298	66	127
140.1897052154195	140.60766439909298	54	127
140.60766439909298	141.00240362811792	81	127
140.60766439909298	141.00240362811792	63	127
140.60766439909298	141.00240362811792	66	127
140.60766439909298	141.00240362811792	47	127
141.00240362811792	141.4319501133787	80	127
141.00240362811792	141.4319501133787	64	127
141.00240362811792	141.4319501133787	64	127
141.00240362811792	141.4319501133787	52	127
141.4319501133787	142.20984126984126	76	127
142.22145124716553	142.92965986394557	78	127
142.22145124716553	142.92965986394557	76	127
142.94126984126984	143.67269841269842	65	127
142.94126984126984	143.67269841269842	80	127
142.94126984126984	143.67269841269842	74	127
143.68428571428572	144.47378684807256	72	127
143.68428571428572	144.47378684807256	69	127
143.68428571428572	144.47378684807256	53	127
143.68428571428572	144.47378684807256	81	127
144.48539682539683	145.28648526077097	81	127
144.48539682539683	145.28648526077097	52	127
144.48539682539683	145.28648526077097	73	127
144.48539682539683	145.28648526077097	67	127
145.29809523809524	146.08755102040817	73	127
145.29809523809524	146.08755102040817	82	127
145.29809523809524	146.08755102040817	67	127
145.29809523809524	146.08755102040817	52	127
146.09918367346938	146.85380952380953	51	127
146.09918367346938	146.85380952380953	83	127
146.09918367346938	146.85380952380953	71	127
146.09918367346938	146.85380952380953	66	127
146.86544217687074	147.6317006802721	71	127
146.86544217687074	147.6317006802721	80	127
146.86544217687074	147.6317006802721	50	127
146.86544217687074	147.6317006802721	64	127
147.64331065759637	148.43278911564627	49	127
147.64331065759637	148.43278911564627	81	127
147.64331065759637	148.43278911564627	76	127
147.64331065759637	148.43278911564627	57	127
148.4443990929705	148.85074829931972	45	127
148.4443990929705	148.85074829931972	85	127
148.4443990929705	148.85074829931972	76	127
148.4443990929705	148.85074829931972	69	127
148.85074829931972	149.2338775510204	71	127
148.85074829931972	149.2338775510204	86	127
148.85074829931972	149.2338775510204	76	127
148.85074829931972	149.2338775510204	44	127
149.2338775510204	150.02333333333334	71	127
149.2338775510204	150.02333333333334	86	127
149.2338775510204	150.02333333333334	76	127
149.2338775510204	150.02333333333334	44	127
150.03496598639455	150.4877551020408	69	127
150.03496598639455	150.4877551020408	85	127
150.03496598639455	150.4877551020408	76	127
150.03496598639455	150.4877551020408	45	127
150.4877551020408	150.90571428571428	66	127
150.4877551020408	150.90571428571428	83	127
150.4877551020408	150.90571428571428	78	127
150.4877551020408	150.90571428571428	50	127
150.90571428571428	151.6835827664399	71	127
150.90571428571428	151.6835827664399	83	127
150.90571428571428	151.6835827664399	78	127
150.90571428571428	151.6835827664399	50	127
151.69519274376418	152.13637188208617	51	127
151.69519274376418	152.13637188208617	81	127
151.69519274376418	152.13637188208617	78	127
151.69519274376418	152.13637188208617	71	127
152.13637188208617	152.5311111111111	52	127
152.13637188208617	152.5311111111111	80	127
152.13637188208617	152.5311111111111	76	127
152.13637188208617	152.5311111111111	71	127
152.5311111111111	153.4134693877551	76	127
153.42507936507937	154.12167800453514	78	127
153.42507936507937	154.12167800453514	76	127
154.1332879818594	154.80666666666667	75	127
154.1332879818594	154.80666666666667	80	127
154.1332879818594	154.80666666666667	72	127
154.81827664399094	155.6077551020408	71	127
154.81827664399094	155.6077551020408	80	127
154.81827664399094	155.6077551020408	74	127
154.81827664399094	155.6077551020408	53	127
155.61936507936508	156.4901133786848	54	127
155.61936507936508	156.4901133786848	81	127
155.61936507936508	156.4901133786848	73	127
155.61936507936508	156.4901133786848	69	127
156.54816326530613	157.45374149659864	73	127
156.54816326530613	157.45374149659864	79	127
156.54816326530613	157.45374149659864	69	127
156.54816326530613	157.45374149659864	52	127
157.4653514739229	158.25482993197278	50	127
157.4653514739229	158.25482993197278	78	127
157.4653514739229	158.25482993197278	74	127
157.4653514739229	158.25482993197278	69	127
158.25482993197278	158.73083900226757	69	127
158.25482993197278	158.73083900226757	78	127
158.25482993197278	158.73083900226757	74	127
158.25482993197278	158.73083900226757	50	127
158.73083900226757	159.20684807256237	69	127
158.73083900226757	159.20684807256237	78	127
158.73083900226757	159.20684807256237	74	127
158.73083900226757	159.20684807256237	50	127
159.20684807256237	159.75251700680272	69	127
159.20684807256237	159.75251700680272	78	127
159.20684807256237	159.75251700680272	74	127
159.20684807256237	159.75251700680272	50	127
159.75251700680272	160.20530612244897	78	127
159.75251700680272	160.20530612244897	83	127
159.75251700680272	160.20530612244897	81	127
159.75251700680272	160.20530612244897	62	127
160.20530612244897	160.60002267573697	78	127
160.20530612244897	160.60002267573697	83	127
160.20530612244897	160.60002267573697	81	127
160.20530612244897	160.60002267573697	62	127
160.60002267573697	160.8902947845805	62	127
160.60002267573697	160.8902947845805	83	127
160.60002267573697	160.8902947845805	81	127
160.60002267573697	160.8902947845805	78	127
160.8902947845805	162.2718820861678	83	127
160.8902947845805	161.59850340136055	81	127
160.8902947845805	161.59850340136055	78	127
160.8902947845805	162.2718820861678	62	127
161.59850340136055	162.28349206349208	79	127
161.59850340136055	162.28349206349208	77	127
162.29510204081632	163.00328798185942	76	127
162.29510204081632	163.00328798185942	84	127
162.29510204081632	163.00328798185942	79	127
162.29510204081632	163.00328798185942	60	127
163.01492063492063	163.94371882086168	53	127
163.01492063492063	163.9321088435374	87	127
163.01492063492063	163.94371882086168	69	127
163.01492063492063	163.96693877551022	84	127
163.99015873015873	164.39650793650793	69	127
163.99015873015873	164.39650793650793	88	127
163.99015873015873	164.39650793650793	52	127
163.99015873015873	164.39650793650793	85	127
164.76802721088436	165.11632653061224	74	127
164.76802721088436	165.11632653061224	80	127
164.76802721088436	165.11632653061224	71	127
164.76802721088436	165.11632653061224	64	127
164.76802721088436	165.11632653061224	52	127
165.5691156462585	165.70843537414967	81	127
165.5691156462585	165.96385487528346	64	127
165.5691156462585	165.96385487528346	81	127
165.5691156462585	165.96385487528346	45	127
165.5691156462585	165.96385487528346	73	127
165.5691156462585	165.96385487528346	73	127
165.70843537414967	165.83614512471655	80	127
165.83614512471655	165.96385487528346	78	127
165.96385487528346	166.1031746031746	76	127
166.1031746031746	166.2308843537415	74	127
166.2308843537415	166.34698412698413	73	127
166.34698412698413	166.48630385487527	71	127
166.48630385487527	166.6024036281179	69	127
166.6024036281179	166.695283446712	68	127
166.695283446712	166.79977324263038	66	127
166.79977324263038	166.91587301587302	64	127
166.91587301587302	167.04356009070295	62	127
167.04356009070295	167.41510204081632	61	127
167.04356009070295	167.41510204081632	61	127
167.04356009070295	167.41510204081632	49	127
167.41510204081632	167.82145124716553	62	127
167.41510204081632	167.82145124716553	62	127
167.41510204081632	167.82145124716553	50	127
167.82145124716553	168.20458049886622	51	127
167.82145124716553	168.20458049886622	63	127
167.82145124716553	168.20458049886622	63	127
168.20458049886622	168.59931972789116	52	127
168.20458049886622	168.59931972789116	64	127
168.20458049886622	168.59931972789116	64	127
168.59931972789116	168.7386394557823	81	127
168.7386394557823	168.8663492063492	83	127
168.8663492063492	168.9940589569161	81	127
168.9940589569161	169.13337868480727	80	127
169.13337868480727	169.23786848072564	78	127
169.23786848072564	169.33074829931974	76	127
169.33074829931974	169.4468253968254	74	127
169.4468253968254	169.5281179138322	73	127
169.5281179138322	169.57455782312925	71	127
169.57455782312925	169.7138775510204	69	127
169.7138775510204	169.86480725623582	68	127
169.86480725623582	169.99251700680273	66	127
169.99251700680273	170.31757369614513	53	127
169.99251700680273	170.31757369614513	65	127
169.99251700680273	170.31757369614513	65	127
170.31757369614513	170.74716553287982	66	127
170.31757369614513	170.74716553287982	66	127
170.31757369614513	170.74716553287982	54	127
170.74716553287982	171.14190476190475	68	127
170.74716553287982	171.14190476190475	68	127
170.74716553287982	171.14190476190475	56	127
171.14190476190475	171.52503401360545	69	127
171.14190476190475	171.52503401360545	69	127
171.14190476190475	171.52503401360545	57	127
171.52503401360545	171.8849433106576	71	127
171.52503401360545	171.8849433106576	62	127
171.52503401360545	173.46390022675737	69	127
171.8849433106576	172.27968253968254	63	127
171.8849433106576	172.27968253968254	72	127
172.27968253968254	172.68603174603174	73	127
172.27968253968254	172.68603174603174	64	127
172.68603174603174	173.10399092970522	74	127
172.68603174603174	173.10399092970522	66	127
173.10399092970522	174.63650793650794	64	127
173.10399092970522	173.49873015873015	73	127
173.49873015873015	173.90507936507936	73	127
173.49873015873015	173.90507936507936	76	127
173.90507936507936	174.0908390022676	71	127
173.90507936507936	174.0908390022676	74	127
174.0908390022676	174.28820861678005	73	127
174.0908390022676	174.28820861678005	69	127
174.28820861678005	174.47396825396825	74	127
174.28820861678005	174.47396825396825	71	127
174.47396825396825	174.6597052154195	71	127
174.47396825396825	174.6597052154195	68	127
174.6597052154195	175.0892970521542	69	127
174.6597052154195	174.81063492063493	69	127
174.6597052154195	175.0892970521542	61	127
174.6597052154195	175.0892970521542	57	127
174.81063492063493	174.93836734693878	76	127
174.93836734693878	175.0892970521542	76	127
175.0892970521542	175.2170068027211	76	127
175.2170068027211	175.34471655328798	76	127
175.34471655328798	175.43759637188208	76	127
175.43759637188208	175.8091156462585	52	127
175.43759637188208	175.57689342403629	76	127
175.43759637188208	175.70462585034014	74	127
175.43759637188208	175.70462585034014	71	127
175.57689342403629	175.68138321995465	76	127
175.68138321995465	175.8091156462585	76	127
175.7162358276644	175.8091156462585	69	127
175.7162358276644	175.8091156462585	73	127
175.8091156462585	175.93680272108844	76	127
175.8091156462585	176.0645351473923	74	127
175.8091156462585	176.0645351473923	71	127
175.93680272108844	176.0412925170068	76	127
176.0412925170068	176.16902494331066	76	127
176.07614512471656	176.16902494331066	73	127
176.07614512471656	176.16902494331066	76	127
176.16902494331066	176.3083446712018	76	127
176.16902494331066	176.58698412698413	73	127
176.16902494331066	176.58698412698413	69	127
176.16902494331066	176.58698412698413	45	127
176.3083446712018	176.45927437641723	76	127
176.45927437641723	176.58698412698413	76	127
176.58698412698413	176.714693877551	76	127
176.714693877551	176.83079365079365	76	127
176.83079365079365	176.9468934240363	76	127
176.9468934240363	177.23714285714286	71	127
176.9468934240363	177.08621315192744	80	127
176.9468934240363	177.23714285714286	62	127
176.9468934240363	177.34163265306123	40	127
177.08621315192744	177.21390022675737	80	127
177.21390022675737	177.34163265306123	80	127
177.24875283446713	177.34163265306123	61	127
177.24875283446713	177.34163265306123	69	127
177.34163265306123	177.48095238095237	80	127
177.34163265306123	177.60866213151928	71	127
177.34163265306123	177.60866213151928	62	127
177.48095238095237	177.58544217687074	80	127
177.58544217687074	177.6899319727891	80	127
177.60866213151928	177.6899319727891	73	127
177.60866213151928	177.6899319727891	64	127
177.6899319727891	179.17600907029478	69	127
177.6899319727891	177.88730158730158	45	127
177.6899319727891	178.06145124716554	81	127
177.6899319727891	179.17600907029478	61	127
178.06145124716554	178.22399092970522	49	127
178.40975056689342	178.6071201814059	52	127
178.80448979591836	179.00183673469388	49	127
179.19922902494332	179.3965986394558	57	127
179.19922902494332	180.8362358276644	67	127
179.19922902494332	180.8362358276644	64	127
179.59396825396826	179.81455782312926	61	127
180.01192743764173	180.23249433106577	64	127
180.4298866213152	180.62725623582767	61	127
180.85945578231292	182.55451247165533	42	127
180.85945578231292	181.1148752834467	66	127
180.85945578231292	181.1148752834467	62	127
181.32385487528344	181.5212244897959	67	127
181.32385487528344	181.5212244897959	64	127
181.74181405895692	181.95079365079366	66	127
181.74181405895692	181.95079365079366	62	127
182.1829931972789	182.39197278911564	64	127
182.1829931972789	182.39197278911564	61	127
182.5661224489796	182.9724716553288	62	127
182.5661224489796	182.9724716553288	59	127
182.5661224489796	182.9724716553288	43	127
182.9724716553288	183.2278911564626	74	127
183.2278911564626	183.50650793650794	74	127
183.50650793650794	183.71551020408162	74	127
183.71551020408162	184.1102494331066	67	127
183.71551020408162	184.1102494331066	71	127
183.71551020408162	185.05065759637188	74	127
184.1102494331066	184.42369614512472	72	127
184.1102494331066	184.42369614512472	69	127
184.42369614512472	184.72557823129253	71	127
184.42369614512472	184.72557823129253	67	127
184.72557823129253	185.16675736961452	69	127
184.72557823129253	185.16675736961452	62	127
185.1087074829932	185.16675736961452	74	127
185.16675736961452	185.56149659863945	59	127
185.16675736961452	185.56149659863945	43	127
185.16675736961452	186.3161224489796	83	127
185.16675736961452	186.3161224489796	67	127
185.56149659863945	185.95621315192744	47	127
185.56149659863945	185.95621315192744	62	127
185.95621315192744	186.33936507936508	59	127
185.95621315192744	186.33936507936508	50	127
186.33936507936508	186.53673469387755	69	127
186.33936507936508	186.53673469387755	81	127
186.33936507936508	186.7224716553288	67	127
186.33936507936508	186.7224716553288	55	127
186.53673469387755	186.7224716553288	79	127
186.53673469387755	186.7224716553288	71	127
186.7224716553288	187.40748299319728	79	127
186.7224716553288	187.10562358276644	72	127
186.7224716553288	187.10562358276644	69	127
186.7224716553288	188.47560090702947	50	127
187.10562358276644	187.41909297052155	71	127
187.10562358276644	187.41909297052155	74	127
187.41909297052155	187.7790022675737	72	127
187.41909297052155	187.7790022675737	69	127
187.41909297052155	187.6861224489796	78	127
187.6977097505669	187.7790022675737	79	127
187.7790022675737	188.15052154195013	67	127
187.7790022675737	187.84863945578232	81	127
187.7790022675737	188.15052154195013	71	127
187.84863945578232	187.90671201814058	79	127
187.90671201814058	187.9647619047619	81	127
187.9647619047619	188.04603174603176	79	127
188.057641723356	188.1040589569161	78	127
188.1040589569161	188.15052154195013	79	127
188.15052154195013	188.92839002267573	69	127
188.15052154195013	188.5104081632653	81	127
188.15052154195013	188.5104081632653	66	127
188.5104081632653	188.94	54	127
188.5104081632653	189.28829931972788	50	127
188.94	189.29990929705215	66	127
188.94	189.29990929705215	57	127
189.29990929705215	189.71786848072563	54	127
189.29990929705215	189.71786848072563	69	127
189.29990929705215	189.71786848072563	50	127
189.71786848072563	190.08938775510205	69	127
189.71786848072563	190.97174603174602	74	127
189.71786848072563	190.08938775510205	50	127
189.71786848072563	190.08938775510205	72	127
190.08938775510205	190.36802721088435	74	127
190.08938775510205	190.36802721088435	71	127
190.36802721088435	190.68149659863946	72	127
190.36802721088435	190.68149659863946	69	127
190.68149659863946	191.0762358276644	71	127
190.68149659863946	191.0762358276644	67	127
191.02979591836734	191.0762358276644	74	127
191.0762358276644	192.21401360544218	84	127
191.0762358276644	191.4825850340136	50	127
191.0762358276644	192.21401360544218	69	127
191.0762358276644	192.21401360544218	66	127
191.4825850340136	191.85410430839002	54	127
191.85410430839002	192.23723356009071	57	127
192.23723356009071	192.43460317460318	83	127
192.23723356009071	192.43460317460318	71	127
192.23723356009071	192.43460317460318	67	127
192.23723356009071	192.63197278911565	62	127
192.43460317460318	192.63197278911565	81	127
192.43460317460318	192.63197278911565	72	127
192.43460317460318	192.63197278911565	69	127
192.63197278911565	193.01510204081632	74	127
192.63197278911565	193.01510204081632	71	127
192.63197278911565	193.32857142857142	81	127
192.63197278911565	194.11804988662132	43	127
193.01510204081632	193.3401814058957	76	127
193.01510204081632	193.3401814058957	72	127
193.3401814058957	193.73492063492063	74	127
193.3401814058957	193.63043083900226	79	127
193.3401814058957	193.73492063492063	71	127
193.64204081632653	193.73492063492063	81	127
193.73492063492063	194.14126984126983	69	127
193.73492063492063	193.80458049886622	83	127
193.73492063492063	194.14126984126983	72	127
193.80458049886622	193.86263038548753	81	127
193.86263038548753	193.9322902494331	83	127
193.9322902494331	194.03678004535146	81	127
194.04839002267573	194.09482993197278	79	127
194.09482993197278	194.14126984126983	81	127
194.14126984126983	194.501179138322	83	127
194.14126984126983	194.501179138322	71	127
194.14126984126983	194.501179138322	67	127
194.14126984126983	194.501179138322	43	127
194.501179138322	194.89591836734695	62	127
194.501179138322	194.89591836734695	67	127
194.501179138322	194.89591836734695	47	127
194.89591836734695	195.30226757369616	67	127
194.89591836734695	195.30226757369616	59	127
194.89591836734695	195.30226757369616	50	127
195.30226757369616	195.7202267573696	67	127
195.30226757369616	195.7202267573696	55	127
195.30226757369616	195.7202267573696	55	127
195.7202267573696	196.48648526077096	59	127
195.7202267573696	196.11496598639457	67	127
195.7202267573696	196.45165532879818	74	127
195.7202267573696	197.27596371882086	43	127
196.45165532879818	196.49809523809523	78	127
196.49809523809523	196.81156462585034	76	127
196.49809523809523	197.28757369614513	60	127
196.8231746031746	196.90444444444444	74	127
196.90444444444444	197.19469387755103	76	127
197.20630385487527	197.2991836734694	79	127
197.2991836734694	198.15832199546486	59	127
197.2991836734694	198.97102040816327	43	127
197.2991836734694	197.92612244897958	74	127
197.2991836734694	198.15832199546486	62	127
198.077052154195	198.12349206349205	74	127
198.12349206349205	198.4601814058957	72	127
198.16993197278913	198.98263038548754	66	127
198.16993197278913	198.98263038548754	57	127
198.47179138321997	198.56467120181406	71	127
198.56467120181406	198.90136054421768	72	127
198.91297052154195	198.99424036281178	74	127
198.99424036281178	199.87659863945578	55	127
198.99424036281178	199.69083900226758	71	127
198.99424036281178	199.87659863945578	67	127
198.99424036281178	200.724126984127	43	127
199.8069387755102	199.85337868480727	71	127
199.85337868480727	200.19006802721088	69	127
199.88820861678005	200.73573696145124	66	127
199.88820861678005	200.73573696145124	60	127
200.20167800453515	200.32938775510203	67	127
200.32938775510203	200.63124716553287	69	127
200.64285714285714	200.75895691609978	71	127
200.75895691609978	202.65138321995465	67	127
200.75895691609978	200.89827664399093	43	127
200.75895691609978	201.1536961451247	59	127
200.75895691609978	200.89827664399093	67	127
200.89827664399093	201.02598639455783	55	127
200.89827664399093	201.02598639455783	71	127
201.02598639455783	201.1536961451247	54	127
201.02598639455783	201.1536961451247	69	127
201.1536961451247	201.29301587301586	67	127
201.1536961451247	201.29301587301586	52	127
201.29301587301586	201.42072562358277	50	127
201.29301587301586	201.42072562358277	66	127
201.42072562358277	201.54843537414965	48	127
201.42072562358277	201.54843537414965	64	127
201.54843537414965	201.67614512471656	62	127
201.54843537414965	201.67614512471656	47	127
201.67614512471656	201.8154648526077	60	127
201.67614512471656	201.8154648526077	45	127
201.8154648526077	201.9431746031746	43	127
201.8154648526077	201.9431746031746	59	127
201.9431746031746	202.0708843537415	57	127
201.9431746031746	202.0708843537415	42	127
202.0708843537415	202.17537414965986	40	127
202.0708843537415	202.17537414965986	55	127
202.17537414965986	202.30308390022677	54	127
202.17537414965986	202.30308390022677	38	127
202.30308390022677	204.9849886621315	52	127
202.30308390022677	203.84721088435373	36	127
202.68621315192743	203.06934240362813	66	127
203.06934240362813	203.46408163265306	67	127
203.46408163265306	203.87043083900227	68	127
203.87043083900227	205.7396371882086	69	127
203.87043083900227	204.03297052154196	69	127
203.87043083900227	205.00820861678005	37	127
204.03297052154196	204.16068027210883	73	127
204.16068027210883	204.2651700680272	74	127
204.2651700680272	204.3928798185941	76	127
204.3928798185941	204.520589569161	78	127
204.520589569161	204.6482993197279	80	127
204.6482993197279	204.77600907029478	81	127
204.77600907029478	204.90371882086168	83	127
204.90371882086168	205.03142857142856	81	127
205.03142857142856	205.42616780045353	49	127
205.03142857142856	205.17074829931974	79	127
205.03142857142856	205.42616780045353	57	127
205.17074829931974	205.29845804988662	78	127
205.29845804988662	205.42616780045353	76	127
205.42616780045353	205.5306575963719	50	127
205.42616780045353	205.5306575963719	57	127
205.42616780045353	208.1312925170068	78	127
205.5306575963719	205.6467573696145	54	127
205.5306575963719	205.6467573696145	69	127
205.6467573696145	205.7744671201814	52	127
205.6467573696145	205.7744671201814	67	127
205.7744671201814	205.9021768707483	50	127
205.7744671201814	206.16920634920635	69	127
205.7744671201814	205.9021768707483	66	127
205.9021768707483	206.0298866213152	49	127
205.9021768707483	206.0298866213152	64	127
206.0298866213152	206.16920634920635	47	127
206.0298866213152	206.16920634920635	62	127
206.16920634920635	206.3085260770975	61	127
206.16920634920635	206.55233560090704	69	127
206.16920634920635	206.3085260770975	45	127
206.3085260770975	206.4362358276644	59	127
206.3085260770975	206.4362358276644	43	127
206.4362358276644	206.55233560090704	57	127
206.4362358276644	206.55233560090704	42	127
206.55233560090704	206.68004535147392	55	127
206.55233560090704	206.68004535147392	40	127
206.55233560090704	206.9702947845805	69	127
206.68004535147392	206.81936507936507	38	127
206.68004535147392	206.81936507936507	54	127
206.81936507936507	206.9702947845805	37	127
206.81936507936507	206.9702947845805	52	127
206.9702947845805	207.35342403628118	50	127
206.9702947845805	207.35342403628118	69	127
206.9702947845805	207.35342403628118	38	127
207.35342403628118	207.7597732426304	68	127
207.35342403628118	208.1661224489796	50	127
207.7597732426304	208.17773242630386	69	127
208.17773242630386	208.54925170068026	70	127
208.17773242630386	208.54925170068026	76	127
208.17773242630386	208.54925170068026	48	127
208.54925170068026	210.07015873015874	47	127
208.54925170068026	208.67696145124717	71	127
208.54925170068026	210.07015873015874	75	127
208.54925170068026	210.07015873015874	54	127
208.67696145124717	208.80467120181405	75	127
208.80467120181405	208.92077097505668	76	127
208.92077097505668	209.03687074829932	78	127
209.03687074829932	209.1645804988662	80	127
209.1645804988662	209.30390022675738	82	127
209.30390022675738	209.44321995464853	83	127
209.44321995464853	209.5709297052154	71	127
209.5709297052154	209.6986394557823	83	127
209.6986394557823	209.8263492063492	81	127
209.8263492063492	209.96566893424037	79	127
209.96566893424037	210.09337868480725	78	127
210.09337868480725	210.44167800453513	52	127
210.09337868480725	210.23269841269843	76	127
210.09337868480725	210.44167800453513	79	127
210.09337868480725	210.82480725623583	52	127
210.23269841269843	210.33718820861677	83	127
210.33718820861677	210.44167800453513	81	127
210.44167800453513	210.5809977324263	79	127
210.5809977324263	210.7087074829932	78	127
210.7087074829932	210.8364172335601	76	127
210.8364172335601	210.96412698412698	74	127
210.96412698412698	211.08022675736962	72	127
211.08022675736962	211.2079365079365	71	127
211.2079365079365	211.3356462585034	69	127
211.3356462585034	211.47496598639455	67	127
211.47496598639455	211.60267573696146	66	127
211.60267573696146	211.80004535147393	64	127
211.80004535147393	212.02063492063493	59	127
212.02063492063493	212.2412244897959	64	127
212.02063492063493	212.74045351473922	67	127
212.02063492063493	212.74045351473922	59	127
212.02063492063493	212.74045351473922	52	127
212.2412244897959	212.3805442176871	67	127
212.3805442176871	212.5663038548753	71	127
212.5663038548753	212.75206349206348	76	127
212.75206349206348	213.14680272108845	52	127
212.75206349206348	212.94943310657595	79	127
212.75206349206348	213.14680272108845	67	127
212.75206349206348	213.14680272108845	59	127
212.94943310657595	213.14680272108845	83	127
213.14680272108845	213.35578231292516	62	127
213.35578231292516	213.55315192743765	64	127
213.55315192743765	214.27297052154196	50	127
213.55315192743765	213.75052154195012	68	127
213.55315192743765	214.27297052154196	64	127
213.55315192743765	214.27297052154196	68	127
213.55315192743765	214.27297052154196	59	127
213.75052154195012	213.92467120181405	71	127
213.92467120181405	214.08721088435374	74	127
214.08721088435374	214.29619047619047	76	127
214.29619047619047	214.5051700680272	80	127
214.29619047619047	214.70253968253968	68	127
214.29619047619047	214.70253968253968	59	127
214.29619047619047	214.70253968253968	64	127
214.29619047619047	214.70253968253968	50	127
214.5051700680272	214.70253968253968	83	127
214.70253968253968	214.89990929705215	61	127
214.89990929705215	215.08566893424037	65	127
215.08566893424037	215.77065759637188	49	127
215.08566893424037	215.27142857142857	68	127
215.08566893424037	215.77065759637188	68	127
215.08566893424037	215.77065759637188	59	127
215.08566893424037	215.77065759637188	65	127
215.27142857142857	215.45718820861677	72	127
215.45718820861677	215.642947845805	73	127
215.642947845805	215.78226757369615	77	127
215.78226757369615	216.13056689342403	65	127
215.78226757369615	216.13056689342403	49	127
215.78226757369615	216.13056689342403	68	127
215.78226757369615	215.94480725623583	80	127
215.78226757369615	216.13056689342403	59	127
215.94480725623583	216.13056689342403	83	127
216.13056689342403	216.3279365079365	61	127
216.3279365079365	216.51369614512473	65	127
216.51369614512473	217.24512471655328	66	127
216.51369614512473	216.68784580498865	66	127
216.51369614512473	217.24512471655328	49	127
216.51369614512473	217.24512471655328	66	127
216.51369614512473	217.24512471655328	57	127
216.68784580498865	216.8619954648526	69	127
216.8619954648526	217.05936507936508	73	127
217.05936507936508	217.25673469387755	77	127
217.25673469387755	217.4308843537415	78	127
217.25673469387755	217.62825396825397	66	127
217.25673469387755	217.62825396825397	57	127
217.25673469387755	217.62825396825397	66	127
217.25673469387755	217.62825396825397	49	127
217.4308843537415	217.62825396825397	81	127
217.62825396825397	217.8024036281179	62	127
217.8024036281179	217.98816326530613	66	127
217.98816326530613	218.6847619047619	66	127
217.98816326530613	218.6847619047619	62	127
217.98816326530613	218.6847619047619	50	127
217.98816326530613	218.1855328798186	69	127
217.98816326530613	218.6847619047619	57	127
218.1855328798186	218.35968253968255	73	127
218.35968253968255	218.5222222222222	74	127
218.5222222222222	218.69637188208617	78	127
218.69637188208617	219.07950113378683	57	127
218.69637188208617	219.07950113378683	66	127
218.69637188208617	219.07950113378683	62	127
218.69637188208617	218.89374149659864	81	127
218.69637188208617	219.07950113378683	50	127
218.89374149659864	219.07950113378683	86	127
219.07950113378683	220.21727891156462	90	127
219.27687074829933	219.4742403628118	50	127
219.27687074829933	219.4742403628118	66	127
219.4742403628118	219.68321995464854	69	127
219.4742403628118	219.68321995464854	54	127
219.4742403628118	220.2288888888889	50	127
219.68321995464854	219.880589569161	74	127
219.68321995464854	219.880589569161	57	127
219.880589569161	220.24049886621316	78	127
219.880589569161	220.24049886621316	62	127
220.24049886621316	220.64684807256236	88	127
220.24049886621316	220.64684807256236	79	127
220.24049886621316	220.64684807256236	64	127
220.24049886621316	220.64684807256236	50	127
220.64684807256236	222.15614512471655	66	127
220.64684807256236	221.0415873015873	81	127
220.64684807256236	221.7962358276644	86	127
220.84421768707483	221.0415873015873	38	127
221.0415873015873	221.23895691609977	42	127
221.0415873015873	221.80784580498866	69	127
221.23895691609977	221.43632653061223	45	127
221.43632653061223	221.62208616780046	50	127
221.62208616780046	221.81945578231293	54	127
221.81945578231293	221.97038548752835	57	127
221.81945578231293	222.17936507936508	85	127
221.81945578231293	222.56249433106575	69	127
221.97038548752835	222.17936507936508	61	127
222.17936507936508	222.57410430839002	62	127
222.17936507936508	222.57410430839002	84	127
222.17936507936508	222.57410430839002	66	127
222.57410430839002	223.07333333333332	84	127
222.57410430839002	223.07333333333332	69	127
222.57410430839002	223.07333333333332	66	127
222.57410430839002	223.07333333333332	62	127
223.07333333333332	223.4680725623583	84	127
223.07333333333332	223.4680725623583	68	127
223.07333333333332	223.4680725623583	68	127
223.07333333333332	223.4680725623583	62	127
223.4680725623583	223.92086167800454	62	127
223.4680725623583	223.92086167800454	84	127
223.4680725623583	223.92086167800454	66	127
223.4680725623583	223.92086167800454	69	127
223.92086167800454	224.45492063492063	85	127
223.92086167800454	224.45492063492063	68	127
223.92086167800454	224.45492063492063	65	127
223.92086167800454	224.45492063492063	61	127
224.45492063492063	225.17473922902494	73	127
225.1863492063492	225.99904761904762	74	127
225.1863492063492	225.99904761904762	73	127
226.01065759637189	226.8233560090703	80	127
226.01065759637189	226.8233560090703	74	127
226.01065759637189	226.8233560090703	71	127
226.01065759637189	226.8233560090703	65	127
226.83496598639456	227.7057142857143	81	127
226.83496598639456	227.7057142857143	73	127
226.83496598639456	227.7057142857143	69	127
226.83496598639456	227.7057142857143	66	127
227.71732426303853	228.47197278911565	78	127
228.48358276643992	229.26145124716552	79	127
228.48358276643992	229.26145124716552	78	127
228.48358276643992	229.26145124716552	71	127
229.2730612244898	230.16702947845806	82	127
229.2730612244898	230.16702947845806	79	127
229.2730612244898	230.16702947845806	73	127
229.2730612244898	230.16702947845806	64	127
230.1786394557823	231.16548752834467	83	127
230.1786394557823	231.16548752834467	78	127
230.1786394557823	231.16548752834467	71	127
230.1786394557823	231.16548752834467	62	127
231.17709750566894	232.8257142857143	86	127
231.17709750566894	232.8257142857143	83	127
231.17709750566894	232.8257142857143	74	127
231.17709750566894	232.8257142857143	55	127
233.31333333333333	234.05637188208615	76	127
233.31333333333333	234.05637188208615	74	127
233.31333333333333	234.05637188208615	71	127
233.31333333333333	234.05637188208615	68	127
234.85746031746032	235.681768707483	85	127
234.85746031746032	235.681768707483	69	127
234.85746031746032	235.681768707483	81	127
234.85746031746032	235.681768707483	73	127
234.85746031746032	235.681768707483	64	127
234.85746031746032	235.681768707483	57	127
234.85746031746032	235.681768707483	45	127
236.63378684807256	237.55097505668934	78	127
236.63378684807256	237.55097505668934	76	127
236.63378684807256	237.55097505668934	73	127
236.63378684807256	237.55097505668934	58	127
237.99215419501132	238.18952380952382	47	127
237.99215419501132	238.18952380952382	71	127
237.99215419501132	238.18952380952382	59	127
238.20113378684806	238.32884353741497	83	127
238.20113378684806	238.32884353741497	71	127
238.20113378684806	238.32884353741497	59	127
238.32884353741497	238.45655328798185	81	127
238.32884353741497	238.45655328798185	69	127
238.32884353741497	238.45655328798185	57	127
238.45655328798185	238.58426303854876	79	127
238.45655328798185	238.58426303854876	67	127
238.45655328798185	238.58426303854876	55	127
238.59587301587302	238.71197278911563	78	127
238.59587301587302	238.71197278911563	66	127
238.59587301587302	238.71197278911563	54	127
238.71197278911563	238.83968253968254	76	127
238.71197278911563	238.83968253968254	64	127
238.71197278911563	238.83968253968254	52	127
238.83968253968254	238.96739229024942	74	127
238.83968253968254	238.96739229024942	62	127
238.83968253968254	238.96739229024942	50	127
238.9790022675737	239.11832199546484	79	127
238.9790022675737	239.11832199546484	67	127
238.9790022675737	239.11832199546484	55	127
239.11832199546484	239.24603174603175	78	127
239.11832199546484	239.24603174603175	66	127
239.11832199546484	239.24603174603175	54	127
239.24603174603175	239.37374149659863	76	127
239.24603174603175	239.37374149659863	64	127
239.24603174603175	239.37374149659863	52	127
239.3853514739229	239.50145124716553	74	127
239.3853514739229	239.50145124716553	62	127
239.3853514739229	239.50145124716553	50	127
239.50145124716553	239.61755102040817	73	127
239.50145124716553	239.61755102040817	61	127
239.50145124716553	239.61755102040817	49	127
239.61755102040817	239.74526077097505	71	127
239.61755102040817	239.74526077097505	59	127
239.61755102040817	239.74526077097505	47	127
239.75687074829932	239.87297052154196	66	127
239.75687074829932	239.87297052154196	54	127
239.75687074829932	239.87297052154196	42	127
239.87297052154196	239.98907029478457	71	127
239.87297052154196	239.98907029478457	59	127
239.87297052154196	239.98907029478457	47	127
239.98907029478457	240.1051700680272	73	127
239.98907029478457	240.1051700680272	61	127
239.98907029478457	240.1051700680272	49	127
240.11678004535148	240.24448979591835	66	127
240.11678004535148	240.24448979591835	54	127
240.11678004535148	240.24448979591835	42	127
240.24448979591835	240.37219954648526	73	127
240.24448979591835	240.37219954648526	61	127
240.24448979591835	240.37219954648526	49	127
240.37219954648526	240.49990929705214	74	127
240.37219954648526	240.49990929705214	62	127
240.37219954648526	240.49990929705214	50	127
240.5115192743764	240.63922902494332	76	127
240.5115192743764	240.63922902494332	64	127
240.5115192743764	240.63922902494332	52	127
240.63922902494332	240.7437188208617	78	127
240.63922902494332	240.7437188208617	66	127
240.63922902494332	240.7437188208617	54	127
240.7437188208617	240.87142857142857	76	127
240.7437188208617	240.87142857142857	64	127
240.7437188208617	240.87142857142857	52	127
240.88303854875284	241.01074829931972	74	127
240.88303854875284	241.01074829931972	62	127
240.88303854875284	241.01074829931972	50	127
241.01074829931972	241.13845804988662	73	127
241.01074829931972	241.13845804988662	61	127
241.01074829931972	241.13845804988662	49	127
241.13845804988662	241.25455782312926	71	127
241.13845804988662	241.25455782312926	59	127
241.13845804988662	241.25455782312926	47	127
241.2661678004535	241.38226757369614	83	127
241.2661678004535	241.38226757369614	71	127
241.2661678004535	241.38226757369614	59	127
241.38226757369614	241.49836734693878	69	127
241.38226757369614	241.49836734693878	81	127
241.38226757369614	241.49836734693878	57	127
241.49836734693878	241.62607709750566	79	127
241.49836734693878	241.62607709750566	67	127
241.49836734693878	241.62607709750566	55	127
241.63768707482993	241.75378684807256	78	127
241.63768707482993	241.75378684807256	66	127
241.63768707482993	241.75378684807256	54	127
241.75378684807256	241.88149659863944	76	127
241.75378684807256	241.88149659863944	64	127
241.75378684807256	241.88149659863944	52	127
241.88149659863944	242.00920634920635	74	127
241.88149659863944	242.00920634920635	62	127
241.88149659863944	242.00920634920635	50	127
242.00920634920635	242.13691609977323	67	127
242.00920634920635	242.13691609977323	79	127
242.00920634920635	242.13691609977323	55	127
242.13691609977323	242.26462585034014	66	127
242.13691609977323	242.26462585034014	78	127
242.13691609977323	242.26462585034014	54	127
242.26462585034014	242.3691156462585	76	127
242.26462585034014	242.3691156462585	64	127
242.26462585034014	242.3691156462585	52	127
242.38072562358278	242.50843537414966	62	127
242.38072562358278	242.50843537414966	74	127
242.38072562358278	242.50843537414966	50	127
242.50843537414966	242.63614512471656	73	127
242.50843537414966	242.63614512471656	61	127
242.50843537414966	242.63614512471656	49	127
242.63614512471656	242.75224489795917	59	127
242.63614512471656	242.75224489795917	71	127
242.63614512471656	242.75224489795917	47	127
242.76385487528344	242.87995464852608	73	127
242.76385487528344	242.87995464852608	61	127
242.76385487528344	242.87995464852608	49	127
242.87995464852608	243.00766439909296	50	127
242.87995464852608	243.00766439909296	74	127
242.87995464852608	243.00766439909296	62	127
243.00766439909296	243.11215419501133	61	127
243.00766439909296	243.11215419501133	73	127
243.00766439909296	243.11215419501133	49	127
243.1237641723356	243.2514739229025	59	127
243.1237641723356	243.2514739229025	71	127
243.1237641723356	243.2514739229025	47	127
243.2514739229025	243.39079365079365	57	127
243.2514739229025	243.39079365079365	69	127
243.2514739229025	243.39079365079365	45	127
243.39079365079365	243.51850340136053	55	127
243.39079365079365	243.51850340136053	67	127
243.39079365079365	243.51850340136053	43	127
243.5301133786848	243.64621315192744	69	127
243.5301133786848	243.64621315192744	57	127
243.5301133786848	243.64621315192744	45	127
243.64621315192744	243.77392290249432	47	127
243.64621315192744	243.77392290249432	71	127
243.64621315192744	243.77392290249432	59	127
243.77392290249432	243.89002267573696	57	127
243.77392290249432	243.89002267573696	69	127
243.77392290249432	243.89002267573696	45	127
243.90163265306123	244.04095238095238	55	127
243.90163265306123	244.04095238095238	67	127
243.90163265306123	244.04095238095238	43	127
244.04095238095238	244.16866213151928	54	127
244.04095238095238	244.16866213151928	66	127
244.04095238095238	244.16866213151928	42	127
244.16866213151928	244.27315192743765	40	127
244.16866213151928	244.27315192743765	64	127
244.16866213151928	244.27315192743765	52	127
244.2847619047619	244.4124716553288	40	127
244.2847619047619	244.4124716553288	64	127
244.2847619047619	244.4124716553288	52	127
244.4124716553288	244.5053514739229	40	127
244.4124716553288	244.5053514739229	64	127
244.4124716553288	244.5053514739229	52	127
244.5053514739229	244.60984126984127	51	127
244.5053514739229	244.60984126984127	63	127
244.5053514739229	244.60984126984127	39	127
244.62145124716554	244.73755102040818	51	127
244.62145124716554	244.73755102040818	63	127
244.62145124716554	244.73755102040818	39	127
244.73755102040818	244.86526077097506	51	127
244.73755102040818	244.86526077097506	63	127
244.73755102040818	244.86526077097506	39	127
244.86526077097506	244.9813605442177	52	127
244.86526077097506	244.9813605442177	64	127
244.86526077097506	244.9813605442177	40	127
244.99297052154196	245.12068027210884	64	127
244.99297052154196	245.12068027210884	52	127
244.99297052154196	245.12068027210884	40	127
245.12068027210884	245.24839002267575	40	127
245.12068027210884	245.24839002267575	64	127
245.12068027210884	245.24839002267575	52	127
245.24839002267575	245.3877097505669	53	127
245.24839002267575	245.3877097505669	65	127
245.24839002267575	245.3877097505669	41	127
245.39931972789117	245.53863945578232	53	127
245.39931972789117	245.53863945578232	65	127
245.39931972789117	245.53863945578232	41	127
245.53863945578232	245.6663492063492	53	127
245.53863945578232	245.6663492063492	65	127
245.53863945578232	245.6663492063492	41	127
245.6663492063492	245.78244897959183	66	127
245.6663492063492	245.78244897959183	42	127
245.6663492063492	245.78244897959183	54	127
245.7940589569161	245.91015873015874	66	127
245.7940589569161	245.91015873015874	54	127
245.7940589569161	245.91015873015874	42	127
245.91015873015874	246.03786848072562	42	127
245.91015873015874	246.03786848072562	66	127
245.91015873015874	246.03786848072562	54	127
246.03786848072562	246.16557823129253	55	127
246.03786848072562	246.16557823129253	67	127
246.03786848072562	246.16557823129253	43	127
246.18879818594104	246.30489795918368	55	127
246.18879818594104	246.30489795918368	67	127
246.18879818594104	246.30489795918368	43	127
246.30489795918368	246.43260770975056	55	127
246.30489795918368	246.43260770975056	67	127
246.30489795918368	246.43260770975056	43	127
246.43260770975056	246.56031746031746	52	127
246.43260770975056	246.56031746031746	64	127
246.43260770975056	246.56031746031746	40	127
246.57192743764173	246.6996371882086	64	127
246.57192743764173	246.6996371882086	52	127
246.57192743764173	246.6996371882086	40	127
246.6996371882086	246.82734693877552	40	127
246.6996371882086	246.82734693877552	64	127
246.6996371882086	246.82734693877552	52	127
246.82734693877552	246.9550566893424	54	127
246.82734693877552	246.9550566893424	66	127
246.82734693877552	246.9550566893424	42	127
246.96666666666667	247.0479365079365	54	127
246.96666666666667	247.0479365079365	66	127
246.96666666666667	247.0479365079365	42	127
247.0479365079365	247.16403628117914	54	127
247.0479365079365	247.16403628117914	66	127
247.0479365079365	247.16403628117914	42	127
247.16403628117914	247.3614058956916	38	127
247.16403628117914	247.3614058956916	62	127
247.16403628117914	247.3614058956916	50	127
247.55877551020407	247.7445351473923	40	127
247.55877551020407	247.7445351473923	64	127
247.55877551020407	247.7445351473923	52	127
247.94190476190477	248.13927437641723	37	127
247.94190476190477	248.13927437641723	61	127
247.94190476190477	248.13927437641723	49	127
248.32503401360543	248.5224036281179	50	127
248.32503401360543	248.5224036281179	62	127
248.32503401360543	248.5224036281179	38	127
248.70816326530613	249.74145124716554	43	127
248.70816326530613	248.88231292517005	59	127
248.70816326530613	249.04485260770974	55	127
249.04485260770974	249.18417233560092	61	127
249.04485260770974	249.18417233560092	58	127
249.36993197278912	249.57891156462586	62	127
249.36993197278912	249.57891156462586	59	127
249.76467120181405	249.92721088435374	57	127
249.76467120181405	249.92721088435374	63	127
249.76467120181405	250.1013605442177	42	127
250.1013605442177	250.29873015873017	59	127
250.1013605442177	250.29873015873017	64	127
250.1013605442177	250.29873015873017	43	127
250.5309297052154	250.72829931972788	57	127
250.5309297052154	250.72829931972788	66	127
250.5309297052154	250.72829931972788	42	127
250.9140589569161	251.11142857142858	40	127
250.9140589569161	251.11142857142858	67	127
250.9140589569161	251.11142857142858	55	127
251.3204081632653	251.51777777777778	45	127
251.3204081632653	251.51777777777778	73	127
251.3204081632653	251.51777777777778	67	127
251.3204081632653	251.51777777777778	64	127
251.71514739229025	253.17800453514738	81	127
251.71514739229025	251.91251700680272	66	127
251.71514739229025	251.91251700680272	62	127
251.71514739229025	252.13310657596372	38	127
252.13310657596372	252.3304761904762	67	127
252.13310657596372	252.3304761904762	64	127
252.49301587301588	252.69038548752835	66	127
252.49301587301588	252.69038548752835	62	127
252.8877551020408	253.08512471655328	64	127
252.8877551020408	253.08512471655328	57	127
253.2360544217687	253.28249433106575	81	127
253.28249433106575	254.28095238095239	90	127
253.28249433106575	253.47986394557824	38	127
253.28249433106575	253.6772335600907	62	127
253.28249433106575	253.6772335600907	54	127
253.6772335600907	253.87460317460318	42	127
253.96748299319728	254.15324263038548	45	127
254.3041723356009	254.5015419501134	88	127
254.3041723356009	254.5015419501134	50	127
254.5015419501134	254.67569160997732	86	127
254.67569160997732	255.05882086167802	45	127
254.67569160997732	255.44195011337868	86	127
254.67569160997732	254.8730612244898	67	127
254.67569160997732	254.8730612244898	64	127
255.05882086167802	255.25619047619048	69	127
255.05882086167802	255.25619047619048	66	127
255.45356009070295	255.74380952380952	85	127
255.45356009070295	255.65092970521542	67	127
255.45356009070295	255.65092970521542	64	127
255.7554195011338	255.8134693877551	86	127
255.8134693877551	256.0108390022676	62	127
255.8134693877551	255.8831292517007	88	127
255.8134693877551	256.0108390022676	66	127
255.8831292517007	255.94117913832198	86	127
255.94117913832198	256.0108390022676	88	127
256.0108390022676	256.0921088435374	86	127
256.0921088435374	256.11532879818594	85	127
256.11532879818594	256.161768707483	86	127
256.161768707483	256.55650793650796	64	127
256.161768707483	256.3591383219955	45	127
256.161768707483	256.55650793650796	88	127
256.161768707483	256.55650793650796	61	127
256.55650793650796	256.7306575963719	49	127
256.92802721088435	257.1021768707483	52	127
257.2995238095238	257.4968934240363	49	127
257.705873015873	258.9829931972789	81	127
257.705873015873	257.9032426303855	67	127
257.705873015873	257.9032426303855	64	127
257.705873015873	258.2747845804989	45	127
258.2747845804989	258.47215419501134	69	127
258.2747845804989	258.47215419501134	66	127
258.65791383219954	258.8320408163265	67	127
258.65791383219954	258.8320408163265	64	127
259.0410430839002	259.0874829931973	81	127
259.0874829931973	260.23687074829934	91	127
259.0874829931973	259.3080725623583	45	127
259.0874829931973	259.50544217687076	64	127
259.0874829931973	259.50544217687076	61	127
259.50544217687076	259.7028117913832	49	127
259.87696145124715	260.0743310657596	52	127
260.2600680272109	260.45746031746035	57	127
260.2600680272109	260.45746031746035	90	127
260.45746031746035	260.5619274376417	88	127
260.5619274376417	260.7593197278912	66	127
260.5619274376417	260.7593197278912	69	127
260.5619274376417	260.95668934240365	50	127
260.5619274376417	261.3398185941043	88	127
260.95668934240365	261.1540589569161	67	127
260.95668934240365	261.1540589569161	71	127
261.3514285714286	261.5371882086168	69	127
261.3514285714286	261.5371882086168	66	127
261.3514285714286	261.6300680272109	86	127
261.64167800453515	261.73455782312925	88	127
261.73455782312925	261.9319274376417	64	127
261.73455782312925	261.8042176870748	90	127
261.73455782312925	261.9319274376417	67	127
261.8042176870748	261.86226757369616	88	127
261.86226757369616	261.9319274376417	90	127
261.9319274376417	262.00156462585034	88	127
262.00156462585034	262.39632653061227	62	127
262.00156462585034	262.1989342403628	38	127
262.00156462585034	262.39632653061227	90	127
262.00156462585034	262.39632653061227	66	127
262.39632653061227	262.5704761904762	42	127
262.76784580498867	262.96521541950113	45	127
263.1741950113379	263.37156462585034	50	127
263.55732426303854	263.754693877551	62	127
263.55732426303854	263.754693877551	66	127
263.55732426303854	263.9172335600907	38	127
263.55732426303854	264.2655328798186	81	127
263.9172335600907	264.1146031746032	74	127
263.9172335600907	264.1146031746032	66	127
264.2655328798186	264.31197278911566	85	127
264.31197278911566	264.49773242630386	67	127
264.31197278911566	264.49773242630386	67	127
264.31197278911566	264.59061224489795	83	127
264.6022222222222	264.68349206349205	81	127
264.68349206349205	264.9737414965986	83	127
264.68349206349205	264.8808616780045	74	127
264.68349206349205	264.8808616780045	55	127
264.9853514739229	264.99696145124716	86	127
264.99696145124716	265.1943310657596	66	127
264.99696145124716	265.1943310657596	62	127
264.99696145124716	265.40331065759636	38	127
264.99696145124716	265.58907029478456	81	127
265.40331065759636	265.60068027210883	66	127
265.40331065759636	265.60068027210883	74	127
265.7051700680272	265.7516099773243	81	127
265.7516099773243	266.0882766439909	79	127
265.7980498866213	265.99541950113377	64	127
265.7980498866213	265.99541950113377	73	127
266.09990929705214	266.181179138322	78	127
266.181179138322	266.32049886621314	73	127
266.181179138322	266.32049886621314	76	127
266.181179138322	266.35532879818595	79	127
266.3669387755102	266.4598185941043	81	127
266.4598185941043	266.8313378684807	74	127
266.4598185941043	266.66879818594106	74	127
266.4598185941043	266.66879818594106	38	127
266.4598185941043	267.0054648526077	78	127
266.8313378684807	267.0170975056689	42	127
266.8313378684807	267.0170975056689	69	127
267.13319727891155	267.17963718820863	78	127
267.17963718820863	267.504716553288	76	127
267.22607709750565	267.4234240362812	67	127
267.22607709750565	267.4234240362812	45	127
267.5163038548753	267.6092063492064	74	127
267.6092063492064	267.99233560090704	73	127
267.6092063492064	267.7949659863946	67	127
267.6092063492064	267.7949659863946	45	127
267.6092063492064	267.8878458049887	76	127
267.89945578231294	267.99233560090704	78	127
267.99233560090704	268.12004535147395	66	127
267.99233560090704	268.387074829932	74	127
267.99233560090704	268.387074829932	50	127
268.1316326530612	268.25936507936507	69	127
268.25936507936507	268.387074829932	67	127
268.387074829932	268.5147845804989	66	127
268.52639455782315	268.67732426303854	64	127
268.67732426303854	268.80503401360545	62	127
268.80503401360545	268.8514512471655	61	127
268.86308390022674	269.0024036281179	59	127
269.0024036281179	269.1301133786848	57	127
269.1301133786848	269.5132426303855	57	127
269.1301133786848	269.24621315192746	55	127
269.1301133786848	269.5132426303855	85	127
269.1301133786848	269.5132426303855	76	127
269.25780045351473	269.3855328798186	54	127
269.3855328798186	269.5132426303855	52	127
269.5132426303855	269.9079818594104	50	127
269.5132426303855	269.6409523809524	86	127
269.5132426303855	269.6409523809524	78	127
269.5132426303855	269.9079818594104	50	127
269.65256235827667	269.7802721088435	76	127
269.65256235827667	269.7802721088435	85	127
269.7802721088435	269.9079818594104	74	127
269.7802721088435	269.9079818594104	83	127
269.9079818594104	270.0473015873016	81	127
269.9079818594104	270.0473015873016	73	127
270.0589115646259	270.1866213151927	79	127
270.0589115646259	270.1866213151927	71	127
270.1866213151927	270.3259410430839	78	127
270.1866213151927	270.3259410430839	69	127
270.3259410430839	270.4536507936508	76	127
270.3259410430839	270.4536507936508	67	127
270.4652607709751	270.592947845805	66	127
270.4652607709751	270.592947845805	74	127
270.592947845805	270.72068027210884	73	127
270.592947845805	270.72068027210884	64	127
270.72068027210884	271.12702947845804	57	127
270.72068027210884	270.8367800453515	71	127
270.72068027210884	270.8367800453515	62	127
270.84839002267574	270.97609977324265	69	127
270.84839002267574	270.97609977324265	61	127
270.97609977324265	271.12702947845804	67	127
270.97609977324265	271.12702947845804	64	127
271.12702947845804	271.8584580498866	62	127
271.12702947845804	271.51013605442176	66	127
271.12702947845804	271.51013605442176	62	127
271.12702947845804	271.8584580498866	78	127
271.51013605442176	271.8700680272109	67	127
271.8700680272109	272.57827664399093	61	127
271.8700680272109	272.229977324263	68	127
271.8700680272109	272.57827664399093	76	127
272.229977324263	272.5898866213152	69	127
272.5898866213152	272.88013605442177	62	127
272.5898866213152	273.2284353741497	74	127
272.5898866213152	273.2284353741497	59	127
272.88013605442177	273.24002267573695	64	127
273.24002267573695	274.0063038548753	57	127
273.24002267573695	273.64639455782316	65	127
273.24002267573695	274.0063038548753	73	127
273.64639455782316	274.01791383219955	66	127
274.01791383219955	274.74934240362813	55	127
274.01791383219955	274.4010430839002	59	127
274.01791383219955	274.74934240362813	71	127
274.4010430839002	274.7609523809524	60	127
274.7609523809524	275.492358276644	54	127
274.7609523809524	275.12086167800453	61	127
274.7609523809524	275.492358276644	69	127
275.12086167800453	275.5039909297052	62	127
275.5039909297052	276.1773696145125	52	127
275.5039909297052	275.84068027210884	55	127
275.5039909297052	276.1773696145125	67	127
275.84068027210884	276.18897959183676	57	127
276.18897959183676	276.90879818594107	66	127
276.18897959183676	276.5488888888889	58	127
276.18897959183676	276.90879818594107	50	127
276.5488888888889	276.92038548752834	59	127
276.92038548752834	277.24548752834465	52	127
276.92038548752834	277.57056689342403	64	127
276.92038548752834	277.57056689342403	49	127
277.24548752834465	277.5821768707483	54	127
277.5821768707483	278.32521541950115	47	127
277.5821768707483	277.96530612244896	55	127
277.5821768707483	278.32521541950115	62	127
277.96530612244896	278.3368253968254	56	127
278.3368253968254	279.86934240362814	45	127
278.3368253968254	278.7083446712018	61	127
278.3368253968254	278.7083446712018	57	127
278.7083446712018	279.10308390022675	62	127
278.7083446712018	279.10308390022675	59	127
279.10308390022675	279.4978231292517	63	127
279.10308390022675	279.4978231292517	60	127
279.4978231292517	279.8925396825397	64	127
279.4978231292517	279.8925396825397	61	127
279.8925396825397	280.2640816326531	66	127
279.8925396825397	280.2640816326531	62	127
279.8925396825397	281.32056689342403	57	127
280.2640816326531	280.64721088435374	64	127
280.2640816326531	280.64721088435374	67	127
280.64721088435374	280.9722902494331	68	127
280.64721088435374	280.9722902494331	65	127
280.9722902494331	281.3438095238095	66	127
280.9722902494331	281.3438095238095	69	127
281.3438095238095	282.04038548752834	71	127
281.3438095238095	281.4366893424036	57	127
281.3438095238095	282.04038548752834	67	127
281.4482993197279	281.55278911564625	55	127
281.55278911564625	281.6572789115646	54	127
281.6572789115646	281.7849886621315	52	127
281.7965986394558	281.9243083900227	50	127
281.9243083900227	282.05201814058955	49	127
282.05201814058955	282.8298866213152	73	127
282.05201814058955	282.17972789115646	47	127
282.05201814058955	282.8298866213152	64	127
282.05201814058955	282.8298866213152	57	127
282.202947845805	282.3306575963719	45	127
282.3306575963719	282.45836734693876	44	127
282.45836734693876	282.58607709750567	45	127
282.59768707482993	282.7137868480726	47	127
282.7137868480726	282.8414965986395	43	127
282.8414965986395	283.2478458049887	62	127
282.8414965986395	282.9808163265306	74	127
282.8414965986395	284.35079365079366	42	127
282.8414965986395	283.2478458049887	57	127
282.8414965986395	283.2478458049887	66	127
282.99242630385487	283.1201360544218	81	127
283.1201360544218	283.2478458049887	79	127
283.2478458049887	283.3639229024943	78	127
283.2478458049887	284.00249433106575	62	127
283.2478458049887	283.6077551020408	62	127
283.2478458049887	284.00249433106575	66	127
283.37555555555554	283.4916553287982	76	127
283.4916553287982	283.6077551020408	74	127
283.6077551020408	284.01410430839	66	127
283.6077551020408	283.747074829932	73	127
283.75868480725626	283.8863945578231	71	127
283.8863945578231	284.01410430839	69	127
284.01410430839	284.75714285714287	66	127
284.01410430839	284.1185941043084	67	127
284.01410430839	284.75714285714287	62	127
284.01410430839	284.3740136054422	69	127
284.13020408163266	284.25791383219956	66	127
284.25791383219956	284.3740136054422	64	127
284.3740136054422	284.76875283446714	62	127
284.3740136054422	285.76721088435374	43	127
284.3740136054422	284.50172335600905	74	127
284.5133333333333	284.64104308390023	81	127
284.64104308390023	284.76875283446714	79	127
284.76875283446714	285.45374149659864	66	127
284.76875283446714	284.8848526077098	78	127
284.76875283446714	285.45374149659864	62	127
284.89643990929704	285.0009297052154	76	127
285.0009297052154	285.117052154195	74	127
285.117052154195	285.20990929705215	73	127
285.22154195011336	285.337641723356	71	127
285.337641723356	285.4653514739229	69	127
285.4653514739229	285.558231292517	67	127
285.4653514739229	286.17356009070295	66	127
285.4653514739229	286.17356009070295	62	127
285.558231292517	285.6859410430839	66	127
285.6859410430839	285.7904308390023	64	127
285.7904308390023	286.1851700680272	62	127
285.7904308390023	287.34616780045354	45	127
285.7904308390023	285.9181179138322	74	127
285.9297505668934	286.0574603174603	81	127
286.0574603174603	286.1851700680272	79	127
286.1851700680272	286.93979591836734	66	127
286.1851700680272	286.3128798185941	78	127
286.1851700680272	286.93979591836734	62	127
286.3244671201814	286.440589569161	76	127
286.440589569161	286.5566893424036	74	127
286.5566893424036	286.6843990929705	73	127
286.6960090702948	286.8237188208617	71	127
286.8237188208617	286.95142857142855	69	127
286.95142857142855	287.07913832199546	67	127
286.95142857142855	287.7409070294785	62	127
286.95142857142855	287.7409070294785	66	127
287.0907482993197	287.2300680272109	66	127
287.2300680272109	287.3809977324263	64	127
287.3809977324263	287.75251700680275	62	127
287.3809977324263	288.867074829932	47	127
287.3809977324263	287.49709750566893	74	127
287.49709750566893	287.62480725623584	81	127
287.62480725623584	287.75251700680275	79	127
287.75251700680275	288.49555555555554	66	127
287.75251700680275	287.8685941043084	78	127
287.75251700680275	288.49555555555554	62	127
287.8802267573696	287.99632653061224	76	127
287.99632653061224	288.1124263038549	74	127
288.1124263038549	288.2401360544218	73	127
288.25174603174605	288.37943310657596	71	127
288.37943310657596	288.5071655328798	69	127
288.5071655328798	288.89027210884353	62	127
288.5071655328798	288.6348752834467	67	127
288.5071655328798	288.89027210884353	66	127
288.646485260771	288.7625850340136	66	127
288.7625850340136	288.89027210884353	64	127
288.89027210884353	289.25020408163266	59	127
288.89027210884353	290.22544217687073	52	127
288.89027210884353	289.0180045351474	62	127
288.89027210884353	289.25020408163266	62	127
288.89027210884353	289.25020408163266	68	127
289.02961451247165	289.12249433106575	90	127
289.12249433106575	289.25020408163266	88	127
289.25020408163266	289.8655328798186	59	127
289.25020408163266	289.3314739229025	86	127
289.25020408163266	289.8655328798186	68	127
289.34308390022676	289.4011111111111	85	127
289.4011111111111	289.5172335600907	83	127
289.5172335600907	289.6449433106576	81	127
289.65655328798186	289.76104308390023	80	127
289.76104308390023	289.87714285714287	78	127
289.87714285714287	290.24866213151927	59	127
289.87714285714287	290.0048299319728	76	127
289.87714285714287	290.24866213151927	68	127
290.01643990929705	290.13256235827663	78	127
290.13256235827663	290.24866213151927	74	127
290.24866213151927	290.5505215419501	73	127
290.24866213151927	290.5505215419501	69	127
290.24866213151927	290.5505215419501	69	127
290.24866213151927	290.5505215419501	57	127
290.24866213151927	296.1117006802721	45	127
290.5505215419501	291.29356009070295	69	127
291.3051700680272	292.10625850340136	71	127
291.3051700680272	291.43287981859413	66	127
291.3051700680272	292.10625850340136	63	127
291.4444671201814	291.57219954648525	69	127
291.57219954648525	291.69990929705216	67	127
291.69990929705216	291.82761904761907	66	127
291.83922902494334	291.9669387755102	69	127
291.9669387755102	292.11786848072563	66	127
292.11786848072563	292.8492970521542	71	127
292.11786848072563	292.23396825396827	64	127
292.11786848072563	292.8492970521542	79	127
292.24557823129254	292.3616553287982	67	127
292.3616553287982	292.48938775510203	71	127
292.48938775510203	292.61709750566894	76	127
292.61709750566894	292.7331972789116	71	127
292.7331972789116	292.8609070294785	67	127
292.8609070294785	292.9769841269841	64	127
292.8609070294785	293.5807256235828	69	127
292.8609070294785	293.5807256235828	61	127
292.98861678004533	293.11632653061224	67	127
293.11632653061224	293.2208163265306	66	127
293.2208163265306	293.325306122449	64	127
293.33691609977325	293.46462585034016	67	127
293.46462585034016	293.59231292517006	64	127
293.59231292517006	294.3469841269841	78	127
293.59231292517006	293.70843537414964	62	127
293.59231292517006	294.3469841269841	69	127
293.7200453514739	293.83614512471655	66	127
293.83614512471655	293.96385487528346	69	127
293.96385487528346	294.09156462585037	74	127
294.10315192743764	294.2308843537415	69	127
294.2308843537415	294.3585941043084	66	127
294.3585941043084	295.0784126984127	59	127
294.3585941043084	294.47469387755103	62	127
294.3585941043084	295.0784126984127	67	127
294.4863038548753	294.60240362811794	66	127
294.60240362811794	294.7301133786848	64	127
294.7301133786848	294.8578231292517	62	127
294.86943310657597	294.97392290249434	66	127
294.97392290249434	295.090022675737	62	127
295.090022675737	295.8678911564626	67	127
295.090022675737	295.2177324263039	61	127
295.090022675737	295.8678911564626	76	127
295.22931972789115	295.357052154195	64	127
295.357052154195	295.4963718820862	67	127
295.4963718820862	295.6124716553288	73	127
295.6240816326531	295.75179138321994	67	127
295.75179138321994	295.87950113378685	64	127
295.87950113378685	295.9956009070295	61	127
295.87950113378685	296.23941043083903	64	127
295.87950113378685	296.23941043083903	67	127
296.00721088435375	296.1117006802721	64	127
296.1117006802721	296.23941043083903	61	127
296.23941043083903	296.64575963718823	62	127
296.23941043083903	297.4004081632653	62	127
296.23941043083903	296.3671201814059	62	127
296.23941043083903	296.64575963718823	65	127
296.37873015873015	296.50643990929706	60	127
296.50643990929706	296.64575963718823	58	127
296.64575963718823	296.7618367346939	57	127
296.64575963718823	297.41201814058957	69	127
296.64575963718823	297.41201814058957	65	127
296.7734693877551	296.8895691609977	55	127
296.8895691609977	297.01727891156463	53	127
297.01727891156463	297.14498866213154	52	127
297.1565986394558	297.28430839002266	50	127
297.28430839002266	297.42362811791384	48	127
297.42362811791384	298.1318367346939	74	127
297.42362811791384	297.5397278911565	46	127
297.42362811791384	297.783514739229	74	127
297.42362811791384	297.783514739229	65	127
297.5397278911565	297.6674376417234	45	127
297.6674376417234	297.783514739229	43	127
297.783514739229	298.14344671201815	69	127
297.783514739229	299.2580045351474	74	127
297.783514739229	298.14344671201815	41	127
298.14344671201815	298.50333333333333	67	127
298.14344671201815	298.50333333333333	76	127
298.14344671201815	298.50333333333333	43	127
298.50333333333333	298.886485260771	65	127
298.50333333333333	298.886485260771	77	127
298.50333333333333	298.886485260771	44	127
298.886485260771	299.28122448979593	78	127
298.886485260771	299.28122448979593	45	127
298.886485260771	299.28122448979593	64	127
299.28122448979593	299.67596371882087	74	127
299.28122448979593	300.03585034013605	79	127
299.28122448979593	300.4190022675737	62	127
299.28122448979593	300.03585034013605	46	127
299.67596371882087	300.04748299319726	76	127
300.04748299319726	300.8253514739229	58	127
300.04748299319726	300.44219954648526	77	127
300.04748299319726	301.2084807256236	80	127
300.44219954648526	300.8369614512472	64	127
300.44219954648526	300.8369614512472	76	127
300.8369614512472	301.2317006802721	65	127
300.8369614512472	301.2317006802721	58	127
300.8369614512472	301.2317006802721	74	127
301.2317006802721	301.58	73	127
301.2317006802721	301.58	57	127
301.2317006802721	301.58	81	127
301.2317006802721	301.58	73	127
301.58	301.9631292517007	71	127
301.58	301.9631292517007	56	127
301.58	301.9631292517007	83	127
301.58	301.9631292517007	74	127
301.9631292517007	302.35786848072564	69	127
301.9631292517007	302.35786848072564	55	127
301.9631292517007	302.35786848072564	85	127
301.9631292517007	302.35786848072564	76	127
302.35786848072564	302.9383673469388	69	127
302.35786848072564	302.7409977324263	86	127
302.35786848072564	302.7409977324263	69	127
302.35786848072564	302.7409977324263	54	127
302.7409977324263	303.1473469387755	53	127
302.7409977324263	303.1473469387755	87	127
302.94997732426305	303.1473469387755	71	127
303.1473469387755	303.5188662131519	73	127
303.1473469387755	303.5188662131519	69	127
303.1473469387755	303.5188662131519	88	127
303.1473469387755	303.5188662131519	52	127
303.5188662131519	303.9135827664399	74	127
303.5188662131519	303.9135827664399	50	127
303.5188662131519	303.9135827664399	90	127
303.5188662131519	303.9135827664399	69	127
303.9135827664399	304.7959637188209	69	127
303.9135827664399	304.7959637188209	76	127
303.9135827664399	304.052925170068	91	127
303.9135827664399	304.052925170068	49	127
304.052925170068	304.1922448979592	90	127
304.052925170068	304.1922448979592	52	127
304.1922448979592	304.3431746031746	88	127
304.1922448979592	304.3431746031746	54	127
304.3431746031746	304.49410430839004	86	127
304.3431746031746	304.49410430839004	55	127
304.5057142857143	304.6566439909297	85	127
304.5057142857143	304.6566439909297	57	127
304.6566439909297	304.80757369614514	83	127
304.6566439909297	304.80757369614514	59	127
304.8191836734694	305.2835827664399	67	127
304.8191836734694	305.2835827664399	61	127
304.8191836734694	305.2835827664399	81	127
304.8191836734694	305.2835827664399	76	127
305.2951927437642	306.0034013605442	76	127
305.2951927437642	306.0034013605442	61	127
305.2951927437642	306.0034013605442	81	127
305.2951927437642	306.0034013605442	67	127
306.0150113378685	308.1744671201814	76	127
306.0150113378685	308.1744671201814	61	127
306.0150113378685	308.1744671201814	81	127
306.0150113378685	308.1744671201814	67	127
308.84784580498865	310.1946031746032	62	127
308.84784580498865	311.2627210884354	81	127
308.84784580498865	310.02045351473924	66	127
308.84784580498865	310.02045351473924	62	127
310.02045351473924	310.20621315192744	69	127
310.20621315192744	310.4035827664399	64	127
310.20621315192744	310.4035827664399	67	127
310.4035827664399	310.5893424036281	69	127
310.5893424036281	310.7867120181406	66	127
310.5893424036281	310.7867120181406	62	127
310.7867120181406	310.97244897959183	69	127
310.97244897959183	311.1698185941043	57	127
310.97244897959183	311.1698185941043	64	127
311.1698185941043	311.3556009070295	69	127
311.3091609977324	311.3556009070295	81	127
311.3556009070295	311.55297052154197	54	127
311.3556009070295	312.3888888888889	90	127
311.3556009070295	311.55297052154197	62	127
311.3556009070295	311.55297052154197	38	127
311.55297052154197	311.75034013605443	66	127
311.55297052154197	311.75034013605443	69	127
311.75034013605443	311.9477097505669	66	127
311.75034013605443	311.9477097505669	62	127
311.75034013605443	311.9477097505669	42	127
311.9477097505669	312.14507936507937	66	127
311.9477097505669	312.14507936507937	69	127
312.14507936507937	312.2727891156463	62	127
312.14507936507937	312.2727891156463	66	127
312.14507936507937	312.2727891156463	45	127
312.2727891156463	312.4121088435374	66	127
312.2727891156463	312.4121088435374	69	127
312.4121088435374	312.59786848072565	50	127
312.4121088435374	312.59786848072565	66	127
312.4121088435374	312.59786848072565	88	127
312.4121088435374	312.59786848072565	62	127
312.59786848072565	312.78362811791385	86	127
312.59786848072565	312.78362811791385	69	127
312.59786848072565	312.78362811791385	66	127
312.78362811791385	313.5382766439909	86	127
312.78362811791385	312.9809977324263	67	127
312.78362811791385	312.9809977324263	64	127
312.78362811791385	313.143537414966	45	127
312.9809977324263	313.15514739229025	69	127
313.15514739229025	313.3525170068027	66	127
313.15514739229025	313.3525170068027	66	127
313.3525170068027	313.5498866213152	69	127
313.5498866213152	313.84013605442175	85	127
313.5498866213152	313.74725623582765	67	127
313.5498866213152	313.74725623582765	64	127
313.74725623582765	313.9446258503401	69	127
313.851746031746	313.9446258503401	86	127
313.9446258503401	314.14197278911564	62	127
313.9446258503401	314.00267573696146	88	127
313.9446258503401	314.14197278911564	66	127
314.01428571428573	314.072335600907	86	127
314.072335600907	314.14197278911564	88	127
314.14197278911564	314.3393424036281	69	127
314.14197278911564	314.23485260770974	86	127
314.246462585034	314.28131519274376	85	127
314.29292517006803	314.3393424036281	86	127
314.3393424036281	314.5367346938776	64	127
314.3393424036281	314.5367346938776	45	127
314.3393424036281	314.6528117913832	88	127
314.3393424036281	314.5367346938776	61	127
314.5367346938776	314.6528117913832	64	127
314.5367346938776	314.6528117913832	69	127
314.6528117913832	314.8385941043084	49	127
314.6528117913832	314.8385941043084	64	127
314.6528117913832	314.8385941043084	61	127
314.8385941043084	315.0359637188209	64	127
314.8385941043084	315.0359637188209	69	127
315.0359637188209	315.2565532879819	52	127
315.0359637188209	315.2565532879819	64	127
315.0359637188209	315.2565532879819	61	127
315.2565532879819	315.45392290249436	64	127
315.2565532879819	315.45392290249436	69	127
315.45392290249436	315.6280725623583	49	127
315.45392290249436	315.6280725623583	64	127
315.45392290249436	315.6280725623583	61	127
315.6280725623583	315.82544217687075	64	127
315.6280725623583	315.82544217687075	69	127
315.82544217687075	316.18532879818594	45	127
315.82544217687075	315.9995918367347	67	127
315.82544217687075	315.9995918367347	64	127
315.82544217687075	317.23024943310656	81	127
315.9995918367347	316.2085714285714	69	127
316.2085714285714	316.4059410430839	66	127
316.2085714285714	316.4059410430839	66	127
316.4059410430839	316.55687074829933	69	127
316.55687074829933	316.7542403628118	67	127
316.55687074829933	316.7542403628118	64	127
316.7542403628118	316.94	69	127
316.94	317.13736961451247	66	127
316.94	317.13736961451247	62	127
317.13736961451247	317.31149659863945	69	127
317.2650793650794	317.31149659863945	81	127
317.31149659863945	318.4260770975057	91	127
317.31149659863945	317.5088662131519	64	127
317.31149659863945	317.5088662131519	61	127
317.31149659863945	317.5088662131519	45	127
317.5088662131519	317.6946485260771	64	127
317.5088662131519	317.6946485260771	69	127
317.6946485260771	317.8804081632653	64	127
317.6946485260771	317.8804081632653	61	127
317.6946485260771	317.8804081632653	49	127
317.8804081632653	318.042947845805	64	127
317.8804081632653	318.042947845805	69	127
318.042947845805	318.2519274376417	52	127
318.042947845805	318.2519274376417	64	127
318.042947845805	318.2519274376417	61	127
318.2519274376417	318.4492970521542	69	127
318.2519274376417	318.4492970521542	64	127
318.4492970521542	318.62344671201816	67	127
318.4492970521542	318.62344671201816	57	127
318.4492970521542	318.62344671201816	90	127
318.4492970521542	318.62344671201816	61	127
318.62344671201816	318.7975963718821	88	127
318.62344671201816	318.7975963718821	64	127
318.62344671201816	318.7975963718821	69	127
318.7975963718821	319.5174149659864	50	127
318.7975963718821	319.7380045351474	88	127
318.7975963718821	319.04138321995464	66	127
318.7975963718821	319.04138321995464	66	127
319.04138321995464	319.5290249433107	69	127
319.5290249433107	319.72639455782314	67	127
319.5290249433107	319.72639455782314	67	127
319.72639455782314	319.7380045351474	71	127
319.7380045351474	319.7960544217687	86	127
319.7380045351474	319.90054421768707	69	127
319.80766439909297	319.90054421768707	88	127
319.90054421768707	320.09791383219954	64	127
319.90054421768707	319.9585941043084	90	127
319.90054421768707	320.09791383219954	64	127
319.9701814058957	320.028253968254	88	127
320.028253968254	320.09791383219954	90	127
320.09791383219954	320.295283446712	67	127
320.09791383219954	320.19079365079364	88	127
320.2024036281179	320.2372335600907	86	127
320.248843537415	320.295283446712	88	127
320.295283446712	320.6435827664399	90	127
320.295283446712	320.4926530612245	62	127
320.295283446712	320.4926530612245	38	127
320.295283446712	320.4926530612245	66	127
320.4926530612245	320.6435827664399	66	127
320.4926530612245	320.6435827664399	69	127
320.6435827664399	320.81773242630385	42	127
320.6435827664399	320.81773242630385	66	127
320.6435827664399	320.81773242630385	62	127
320.81773242630385	321.00349206349205	66	127
320.81773242630385	321.00349206349205	69	127
321.00349206349205	321.1892290249433	45	127
321.00349206349205	321.1892290249433	66	127
321.00349206349205	321.1892290249433	62	127
321.1892290249433	321.40984126984125	66	127
321.1892290249433	321.40984126984125	69	127
321.40984126984125	321.6071882086168	50	127
321.40984126984125	321.6071882086168	66	127
321.40984126984125	321.6071882086168	62	127
321.6071882086168	321.792970521542	69	127
321.6071882086168	321.792970521542	66	127
321.792970521542	322.48956916099775	81	127
321.792970521542	321.99034013605444	66	127
321.792970521542	321.99034013605444	62	127
321.792970521542	322.17609977324264	38	127
322.1877097505669	322.35024943310657	66	127
322.1877097505669	322.35024943310657	74	127
322.501179138322	322.54761904761904	85	127
322.54761904761904	322.7333560090703	67	127
322.54761904761904	322.8262358276644	83	127
322.54761904761904	322.7333560090703	67	127
322.8378684807256	322.93072562358276	81	127
322.93072562358276	323.11650793650796	74	127
322.93072562358276	323.20938775510206	83	127
322.93072562358276	323.11650793650796	55	127
323.2209977324263	323.26743764172335	86	127
323.26743764172335	323.6389569160998	38	127
323.26743764172335	323.4648072562358	66	127
323.26743764172335	323.4648072562358	62	127
323.26743764172335	323.83632653061227	81	127
323.65054421768707	323.84791383219954	66	127
323.65054421768707	323.84791383219954	74	127
323.9524036281179	323.98725623582766	81	127
323.9988662131519	324.3355555555556	79	127
324.045306122449	324.2426757369615	73	127
324.045306122449	324.2426757369615	64	127
324.34716553287984	324.4168253968254	78	127
324.4168253968254	324.56773242630385	76	127
324.4168253968254	324.66063492063495	79	127
324.4168253968254	324.56773242630385	73	127
324.6722222222222	324.7651247165533	81	127
324.7651247165533	325.1366439909297	74	127
324.7651247165533	325.5197732426304	50	127
324.7651247165533	325.1366439909297	74	127
324.7651247165533	325.31079365079364	78	127
325.148253968254	325.5197732426304	69	127
325.148253968254	325.5197732426304	62	127
325.43850340136055	325.47333333333336	78	127
325.4849206349206	325.79839002267573	76	127
325.53138321995465	325.79839002267573	67	127
325.53138321995465	326.2628117913832	57	127
325.53138321995465	325.87968253968256	61	127
325.81002267573695	325.89126984126983	74	127
325.81002267573695	325.89126984126983	66	127
325.89126984126983	326.16993197278913	76	127
325.89126984126983	326.16993197278913	67	127
325.89126984126983	326.2628117913832	61	127
326.1815419501134	326.2744217687075	78	127
326.1815419501134	326.2744217687075	69	127
326.2744217687075	327.8069387755102	59	127
326.2744217687075	326.47179138321997	74	127
326.2744217687075	326.912947845805	66	127
326.2744217687075	327.4121995464853	59	127
326.47179138321997	326.5414512471655	76	127
326.5414512471655	326.5878911564626	74	127
326.5878911564626	326.6459410430839	73	127
326.6459410430839	326.92455782312925	74	127
326.93619047619046	327.02907029478456	76	127
326.93619047619046	327.02907029478456	64	127
327.02907029478456	327.42378684807255	78	127
327.02907029478456	327.2380498866213	62	127
327.2380498866213	327.33090702947845	61	127
327.34253968253967	327.4353968253968	62	127
327.4353968253968	327.83015873015876	64	127
327.4353968253968	327.6443990929705	64	127
327.4353968253968	327.83015873015876	80	127
327.6443990929705	327.841746031746	62	127
327.841746031746	328.24809523809523	81	127
327.841746031746	328.24809523809523	61	127
327.841746031746	328.24809523809523	64	127
327.841746031746	328.24809523809523	57	127
328.25972789115644	329.0956462585034	69	127
329.10725623582766	329.87351473922905	71	127
329.10725623582766	329.87351473922905	69	127
329.8851020408163	330.6397732426304	67	127
329.8851020408163	330.6397732426304	58	127
329.8851020408163	330.6397732426304	73	127
330.65138321995465	331.4524716553288	65	127
330.65138321995465	331.4524716553288	46	127
330.65138321995465	331.4524716553288	74	127
330.65138321995465	331.4524716553288	62	127
331.46408163265306	332.24195011337866	66	127
331.46408163265306	332.24195011337866	45	127
331.46408163265306	332.24195011337866	74	127
331.46408163265306	332.24195011337866	60	127
332.25356009070293	333.00820861678005	66	127
332.25356009070293	333.00820861678005	45	127
332.25356009070293	333.00820861678005	75	127
332.25356009070293	333.00820861678005	60	127
333.0198185941043	333.78607709750565	59	127
333.0198185941043	333.78607709750565	76	127
333.0198185941043	333.78607709750565	64	127
333.0198185941043	333.78607709750565	44	127
333.7976870748299	334.55233560090704	57	127
333.7976870748299	334.55233560090704	43	127
333.7976870748299	334.55233560090704	73	127
333.7976870748299	334.55233560090704	64	127
334.5639455782313	335.3534240362812	69	127
334.5639455782313	335.3534240362812	42	127
334.5639455782313	335.3534240362812	74	127
334.5639455782313	335.3534240362812	50	127
335.36503401360545	335.77138321995466	62	127
335.36503401360545	336.2938321995465	69	127
335.36503401360545	335.77138321995466	78	127
335.36503401360545	335.77138321995466	38	127
335.7829931972789	336.2938321995465	79	127
335.7829931972789	336.2938321995465	37	127
335.7829931972789	336.2938321995465	64	127
336.30544217687077	337.1181405895692	69	127
336.30544217687077	337.1181405895692	37	127
336.30544217687077	337.1181405895692	79	127
336.30544217687077	337.1181405895692	64	127
337.12975056689345	337.5244897959184	78	127
337.12975056689345	337.5244897959184	69	127
337.12975056689345	337.5244897959184	38	127
337.12975056689345	337.5244897959184	62	127
337.53609977324265	337.9192290249433	76	127
337.53609977324265	337.9192290249433	71	127
337.53609977324265	337.9192290249433	59	127
337.53609977324265	337.9192290249433	43	127
337.9308390022676	338.7087074829932	64	127
337.9308390022676	338.7087074829932	43	127
337.9308390022676	338.7087074829932	76	127
337.9308390022676	338.7087074829932	71	127
338.72031746031746	339.1614965986395	71	127
338.72031746031746	339.54462585034014	64	127
338.72031746031746	339.1614965986395	74	127
338.72031746031746	339.1614965986395	44	127
339.17310657596374	339.54462585034014	73	127
339.17310657596374	339.54462585034014	45	127
339.17310657596374	339.54462585034014	69	127
339.5562358276644	340.3689342403628	69	127
340.3805442176871	341.1003628117914	69	127
340.3805442176871	341.1003628117914	71	127
341.11197278911567	341.84337868480725	73	127
341.11197278911567	341.84337868480725	65	127
341.11197278911567	341.84337868480725	68	127
341.85501133786846	342.6676870748299	46	127
341.85501133786846	342.2381405895692	73	127
341.85501133786846	342.6676870748299	67	127
341.85501133786846	342.6676870748299	64	127
342.24972789115645	342.6676870748299	73	127
342.67931972789114	343.46879818594107	62	127
342.67931972789114	343.46879818594107	47	127
342.67931972789114	343.46879818594107	74	127
342.67931972789114	343.46879818594107	66	127
343.49201814058955	344.3975736961451	66	127
343.49201814058955	344.3975736961451	45	127
343.49201814058955	344.3975736961451	72	127
343.49201814058955	344.3975736961451	62	127
344.40920634920633	344.8155328798186	67	127
344.40920634920633	344.8155328798186	43	127
344.40920634920633	344.8155328798186	71	127
344.40920634920633	344.8155328798186	62	127
344.85038548752834	345.2683446712018	67	127
344.85038548752834	345.2683446712018	43	127
344.85038548752834	345.2683446712018	71	127
344.85038548752834	345.2683446712018	62	127
345.2799546485261	346.2319727891157	71	127
345.2799546485261	345.7675736961451	67	127
345.2799546485261	345.7675736961451	62	127
345.2799546485261	345.7675736961451	43	127
345.7791836734694	346.2319727891157	62	127
345.7791836734694	346.2319727891157	43	127
345.7791836734694	346.2319727891157	67	127
346.25519274376416	346.66154195011336	74	127
346.25519274376416	346.66154195011336	76	127
346.25519274376416	346.66154195011336	71	127
346.25519274376416	346.66154195011336	55	127
346.67315192743763	347.06789115646257	71	127
346.67315192743763	347.06789115646257	55	127
346.67315192743763	347.06789115646257	76	127
346.67315192743763	347.06789115646257	74	127
347.07950113378683	347.46260770975056	74	127
347.07950113378683	347.46260770975056	55	127
347.07950113378683	347.46260770975056	76	127
347.07950113378683	347.46260770975056	71	127
347.4742176870748	349.0880272108844	55	127
347.4742176870748	348.28691609977324	71	127
347.4742176870748	349.0880272108844	76	127
347.4742176870748	348.28691609977324	74	127
348.29854875283445	350.0516553287982	72	127
348.29854875283445	349.11124716553286	70	127
349.12285714285713	350.0748752834467	77	127
349.12285714285713	350.0748752834467	53	127
349.12285714285713	350.0748752834467	69	127
350.086485260771	350.9456009070295	77	127
350.086485260771	350.9456009070295	46	127
350.086485260771	350.9456009070295	80	127
350.086485260771	350.9456009070295	62	127
350.9920634920635	351.46807256235826	81	127
350.9920634920635	351.46807256235826	78	127
350.9920634920635	351.46807256235826	62	127
350.9920634920635	351.46807256235826	45	127
351.88603174603173	352.338820861678	64	127
351.88603174603173	352.338820861678	45	127
351.88603174603173	352.338820861678	85	127
351.88603174603173	352.338820861678	79	127
351.88603174603173	352.338820861678	69	127
352.7567800453515	353.13990929705216	50	127
352.7567800453515	353.13990929705216	62	127
352.7567800453515	352.8844671201814	86	127
352.7567800453515	353.13990929705216	78	127
352.7567800453515	353.13990929705216	69	127
352.8844671201814	353.01219954648525	85	127
353.0238095238095	353.1515192743764	83	127
353.1515192743764	353.27922902494333	81	127
353.27922902494333	353.4069387755102	79	127
353.41854875283445	353.54625850340136	78	127
353.54625850340136	353.65074829931973	76	127
353.65074829931973	353.77845804988664	74	127
353.7900680272109	353.85972789115647	73	127
353.85972789115647	353.9409977324263	71	127
353.9409977324263	354.0803174603175	69	127
354.09192743764174	354.1964172335601	67	127
354.1964172335601	354.6027664399093	54	127
354.1964172335601	354.6027664399093	66	127
354.1964172335601	354.6027664399093	42	127
354.6143764172336	354.9742857142857	67	127
354.6143764172336	354.9742857142857	55	127
354.6143764172336	354.9742857142857	43	127
354.98589569161	355.36902494331065	68	127
354.98589569161	355.36902494331065	56	127
354.98589569161	355.36902494331065	44	127
355.3806349206349	355.7637641723356	69	127
355.3806349206349	355.7637641723356	57	127
355.3806349206349	355.7637641723356	45	127
355.77537414965985	355.90308390022676	74	127
355.90308390022676	356.03079365079367	86	127
356.04240362811794	356.1584807256236	85	127
356.1584807256236	356.2513832199547	81	127
356.26297052154194	356.3907029478458	79	127
356.3907029478458	356.5184126984127	78	127
356.5184126984127	356.63451247165534	76	127
356.6461224489796	356.7738095238095	74	127
356.7738095238095	356.8782993197279	73	127
356.8782993197279	357.00603174603174	71	127
357.017641723356	357.19179138321994	69	127
357.19179138321994	357.5517006802721	68	127
357.19179138321994	357.5517006802721	56	127
357.19179138321994	357.5517006802721	56	127
357.5633106575964	357.9232199546485	69	127
357.5633106575964	357.9232199546485	57	127
357.5633106575964	357.9232199546485	57	127
357.9348299319728	358.31795918367345	70	127
357.9348299319728	358.31795918367345	58	127
357.9348299319728	358.31795918367345	58	127
358.3295691609977	358.71267573696144	71	127
358.3295691609977	358.71267573696144	59	127
358.3295691609977	358.71267573696144	59	127
358.72430839002266	359.08421768707484	73	127
358.72430839002266	359.08421768707484	70	127
358.72430839002266	359.08421768707484	67	127
359.0958276643991	359.49056689342405	74	127
359.0958276643991	359.49056689342405	69	127
359.0958276643991	359.49056689342405	66	127
359.5021768707483	359.7575963718821	72	127
359.5021768707483	359.7575963718821	75	127
359.5021768707483	359.7575963718821	69	127
359.7575963718821	360.1291156462585	76	127
359.7575963718821	360.1291156462585	71	127
359.7575963718821	360.1291156462585	67	127
360.1407029478458	360.52385487528346	78	127
360.1407029478458	360.52385487528346	69	127
360.1407029478458	360.52385487528346	60	127
360.1407029478458	360.52385487528346	51	127
360.53546485260773	360.9185941043084	79	127
360.53546485260773	360.9185941043084	67	127
360.53546485260773	360.9185941043084	59	127
360.53546485260773	360.9185941043084	52	127
360.93020408163267	361.30172335600906	76	127
360.93020408163267	361.30172335600906	71	127
360.93020408163267	361.30172335600906	67	127
360.93020408163267	361.30172335600906	55	127
361.31333333333333	361.66163265306125	73	127
361.31333333333333	361.66163265306125	67	127
361.31333333333333	361.66163265306125	64	127
361.31333333333333	361.66163265306125	57	127
361.6732199546485	362.0563718820862	66	127
361.6732199546485	361.80095238095237	74	127
361.6732199546485	362.0563718820862	62	127
361.6732199546485	362.0563718820862	50	127
361.80095238095237	361.9286621315193	81	127
361.94027210884354	362.06798185941045	81	127
362.06798185941045	362.19566893424036	81	127
362.19566893424036	362.3234013605442	81	127
362.3350113378685	362.4511111111111	81	127
362.4511111111111	362.578820861678	81	127
362.4511111111111	363.2173469387755	61	127
362.4511111111111	362.7413605442177	79	127
362.4511111111111	362.7413605442177	64	127
362.578820861678	362.70650793650793	81	127
362.71814058956915	362.84585034013605	81	127
362.75297052154195	362.84585034013605	62	127
362.75297052154195	362.84585034013605	78	127
362.84585034013605	363.12448979591835	64	127
362.84585034013605	363.12448979591835	79	127
362.84585034013605	362.97356009070296	81	127
362.97356009070296	363.0896598639456	81	127
363.10126984126987	363.2289795918367	81	127
363.1360997732426	363.2289795918367	81	127
363.1360997732426	363.2289795918367	66	127
363.2289795918367	363.61210884353744	62	127
363.2289795918367	363.3566893424036	81	127
363.2289795918367	363.61210884353744	78	127
363.2289795918367	363.61210884353744	62	127
363.3566893424036	363.48439909297053	81	127
363.4960090702948	363.6236961451247	81	127
363.6236961451247	363.7281859410431	81	127
363.7281859410431	363.85591836734693	81	127
363.8675283446712	363.9952380952381	81	127
363.9952380952381	364.79632653061225	57	127
363.9952380952381	364.122947845805	85	127
363.9952380952381	364.29709750566894	76	127
363.9952380952381	364.29709750566894	67	127
364.122947845805	364.25065759637187	85	127
364.2738775510204	364.4015873015873	85	127
364.3087074829932	364.4015873015873	74	127
364.3087074829932	364.4015873015873	66	127
364.4015873015873	364.5408843537415	85	127
364.4015873015873	364.70344671201815	76	127
364.4015873015873	364.70344671201815	67	127
364.5408843537415	364.66861678004534	85	127
364.6802267573696	364.8195464852608	85	127
364.7150566893424	364.8195464852608	78	127
364.7150566893424	364.8195464852608	69	127
364.8195464852608	365.1910657596372	86	127
364.8195464852608	365.1910657596372	74	127
364.8195464852608	365.1910657596372	66	127
364.8195464852608	365.1910657596372	50	127
365.57419501133785	365.6206349206349	81	127
365.6206349206349	365.9573242630386	79	127
365.6206349206349	366.06181405895694	73	127
365.6206349206349	366.06181405895694	64	127
365.6206349206349	366.06181405895694	57	127
365.96891156462584	366.06181405895694	78	127
366.0734013605442	366.4101133786848	79	127
366.42172335600907	366.51460317460317	81	127
366.52621315192744	366.9557823129252	78	127
366.52621315192744	366.9557823129252	74	127
366.52621315192744	366.9557823129252	62	127
366.52621315192744	366.9557823129252	62	127
367.37374149659865	367.4201814058957	78	127
367.43179138321995	367.9426303854875	76	127
367.43179138321995	368.0703401360544	67	127
367.43179138321995	368.0703401360544	61	127
367.43179138321995	368.0703401360544	45	127
367.9542403628118	368.0819501133787	74	127
368.0819501133787	368.46507936507936	76	127
368.47668934240363	368.60439909297054	78	127
368.60439909297054	370.10208616780045	74	127
368.60439909297054	370.10208616780045	62	127
368.60439909297054	370.10208616780045	66	127
368.60439909297054	370.10208616780045	38	127
