# onset,offset,note,velocity
0.26625850340136054	1.2182539682539681	73	127
0.26625850340136054	1.4969160997732427	52	127
0.26625850340136054	3.7724716553287982	45	127
0.26625850340136054	1.4969160997732427	64	127
1.2414965986394557	1.3807936507936507	74	127
1.4040362811791383	1.5085260770975057	73	127
1.5317460317460319	2.7275736961451247	62	127
1.5317460317460319	2.7275736961451247	56	127
1.5317460317460319	2.7275736961451247	71	127
2.750793650793651	3.8305215419501133	69	127
2.750793650793651	3.8305215419501133	61	127
2.750793650793651	3.8305215419501133	57	127
3.8653514739229027	4.794149659863946	69	127
3.8653514739229027	5.3165986394557825	59	127
3.8653514739229027	5.3165986394557825	62	127
3.8653514739229027	6.744625850340136	52	127
4.828979591836735	5.3165986394557825	68	127
5.3165986394557825	5.862267573696145	69	127
5.3165986394557825	5.862267573696145	57	127
5.3165986394557825	5.862267573696145	61	127
5.8854875283446715	6.489206349206349	59	127
5.8854875283446715	6.489206349206349	71	127
5.8854875283446715	6.489206349206349	56	127
6.512426303854875	6.802675736961452	73	127
6.512426303854875	6.802675736961452	55	127
6.512426303854875	6.802675736961452	57	127
6.825895691609977	8.079773242630386	54	127
6.825895691609977	10.332108843537416	50	127
6.825895691609977	7.7430839002267575	74	127
6.825895691609977	8.079773242630386	57	127
7.7779138321995465	7.928843537414966	76	127
7.952063492063492	8.091383219954649	74	127
8.114603174603175	9.333650793650794	73	127
8.114603174603175	10.366938775510205	56	127
8.114603174603175	10.366938775510205	59	127
9.368480725623582	10.378548752834467	71	127
10.413378684807256	10.959047619047618	78	127
10.413378684807256	11.620816326530612	57	127
10.413378684807256	11.620816326530612	52	127
10.413378684807256	11.620816326530612	49	127
10.982267573696145	11.632426303854876	76	127
12.688934240362812	12.897913832199546	69	127
12.921133786848072	13.06045351473923	71	127
13.083673469387755	13.222993197278912	73	127
13.222993197278912	13.362312925170068	74	127
13.385532879818594	13.44358276643991	76	127
13.466802721088435	13.594512471655328	78	127
13.617732426303855	13.757052154195012	80	127
13.780272108843537	13.838321995464852	81	127
13.838321995464852	14.558140589569161	81	127
14.233061224489797	14.906439909297053	66	127
14.233061224489797	14.906439909297053	69	127
14.233061224489797	14.906439909297053	62	127
14.59297052154195	14.906439909297053	78	127
14.906439909297053	15.533378684807257	69	127
14.906439909297053	15.533378684807257	66	127
14.906439909297053	15.533378684807257	62	127
14.906439909297053	16.276394557823128	78	127
15.556598639455782	16.067437641723355	66	127
15.556598639455782	16.067437641723355	62	127
15.556598639455782	16.067437641723355	69	127
16.067437641723355	16.58986394557823	69	127
16.067437641723355	16.58986394557823	66	127
16.067437641723355	16.58986394557823	62	127
16.31124716553288	16.58986394557823	78	127
16.61310657596372	17.46063492063492	78	127
17.147165532879818	17.774104308390022	62	127
17.147165532879818	17.774104308390022	68	127
17.147165532879818	17.774104308390022	64	127
17.48385487528345	17.774104308390022	71	127
17.797301587301586	18.366190476190475	68	127
17.797301587301586	18.366190476190475	64	127
17.797301587301586	18.366190476190475	62	127
17.797301587301586	18.99315192743764	71	127
18.389433106575964	18.79578231292517	64	127
18.389433106575964	18.79578231292517	62	127
18.389433106575964	18.79578231292517	68	127
18.79578231292517	19.318208616780044	68	127
18.79578231292517	19.318208616780044	64	127
18.79578231292517	19.318208616780044	62	127
19.01637188208617	19.318208616780044	73	127
19.341451247165534	19.94517006802721	62	127
19.341451247165534	19.654920634920636	74	127
19.341451247165534	19.94517006802721	68	127
19.341451247165534	19.94517006802721	64	127
19.67814058956916	19.94517006802721	75	127
19.968390022675738	21.349954648526076	76	127
20.293469387755103	20.873968253968254	64	127
20.293469387755103	20.873968253968254	61	127
20.293469387755103	20.873968253968254	69	127
20.89718820861678	21.349954648526076	68	127
20.89718820861678	21.349954648526076	64	127
20.89718820861678	21.349954648526076	59	127
21.373197278911565	22.301972789115645	74	127
21.373197278911565	21.953696145124717	56	127
21.373197278911565	22.301972789115645	71	127
21.373197278911565	22.301972789115645	64	127
21.97691609977324	22.313605442176872	57	127
22.336825396825397	22.975374149659864	69	127
22.336825396825397	22.975374149659864	66	127
22.336825396825397	22.975374149659864	51	127
22.336825396825397	23.474603174603175	73	127
22.998571428571427	23.474603174603175	69	127
22.998571428571427	24.136371882086166	52	127
22.998571428571427	25.43668934240363	64	127
23.4978231292517	24.147981859410432	67	127
23.4978231292517	24.147981859410432	70	127
24.171201814058957	25.459909297052153	40	127
24.171201814058957	25.808208616780046	71	127
24.171201814058957	25.459909297052153	68	127
25.808208616780046	26.4815873015873	72	127
26.493197278911566	29.883310657596372	45	127
26.493197278911566	27.36394557823129	73	127
26.493197278911566	27.36394557823129	64	127
26.493197278911566	27.677414965986394	52	127
27.398775510204082	27.538095238095238	74	127
27.398775510204082	27.538095238095238	66	127
27.561315192743763	27.689024943310656	73	127
27.561315192743763	27.689024943310656	64	127
27.700634920634922	28.76875283446712	56	127
27.700634920634922	28.76875283446712	71	127
27.700634920634922	28.76875283446712	62	127
28.80358276643991	29.964580498866212	61	127
28.80358276643991	29.964580498866212	57	127
28.80358276643991	29.964580498866212	69	127
29.999410430839003	31.13718820861678	69	127
29.999410430839003	31.531927437641723	59	127
29.999410430839003	31.531927437641723	62	127
29.999410430839003	32.994784580498866	52	127
31.172018140589568	31.555147392290248	68	127
31.555147392290248	32.08920634920635	61	127
31.555147392290248	32.08920634920635	69	127
31.555147392290248	32.08920634920635	57	127
32.10081632653061	32.553605442176874	59	127
32.10081632653061	32.553605442176874	56	127
32.10081632653061	32.553605442176874	71	127
32.565215419501136	33.06444444444445	73	127
32.565215419501136	33.06444444444445	57	127
32.565215419501136	33.06444444444445	55	127
33.08766439909297	34.2718820861678	57	127
33.08766439909297	33.97002267573696	74	127
33.08766439909297	34.2718820861678	54	127
33.08766439909297	36.66353741496599	50	127
34.00485260770975	34.132562358276644	76	127
34.144172335600906	34.28349206349206	74	127
34.30668934240363	35.52575963718821	73	127
34.30668934240363	36.698367346938774	56	127
34.30668934240363	36.698367346938774	59	127
35.560589569160996	36.72156462585034	71	127
36.75641723356009	37.92902494331066	52	127
36.75641723356009	37.3833560090703	78	127
36.75641723356009	37.92902494331066	57	127
36.75641723356009	37.92902494331066	49	127
37.40657596371882	37.94063492063492	76	127
38.97392290249433	39.13643990929705	69	127
39.15968253968254	39.32222222222222	71	127
39.34544217687075	39.496371882086166	73	127
39.51956916099773	39.64727891156463	74	127
39.65891156462585	39.74018140589569	76	127
39.75179138321995	39.86789115646258	78	127
39.89108843537415	39.983990929705215	80	127
40.00721088435374	40.07687074829932	81	127
40.08848072562358	40.204580498866214	83	127
40.22780045351474	40.320680272108845	85	127
40.34390022675737	40.88956916099773	85	127
40.587709750566894	41.2146485260771	57	127
40.587709750566894	41.2146485260771	63	127
40.587709750566894	41.2146485260771	59	127
40.9127664399093	41.2146485260771	78	127
41.23786848072562	41.667414965986396	59	127
41.23786848072562	41.667414965986396	63	127
41.23786848072562	41.667414965986396	57	127
41.23786848072562	42.29437641723356	78	127
41.667414965986396	41.9692970521542	63	127
41.667414965986396	41.9692970521542	57	127
41.667414965986396	41.9692970521542	59	127
41.99251700680272	42.573015873015876	57	127
41.99251700680272	42.573015873015876	63	127
41.99251700680272	42.573015873015876	59	127
42.31759637188209	42.573015873015876	80	127
42.5962358276644	42.781995464852606	81	127
42.5962358276644	43.07222222222222	63	127
42.5962358276644	43.07222222222222	59	127
42.5962358276644	43.07222222222222	57	127
42.781995464852606	43.07222222222222	82	127
43.09546485260771	43.815283446712016	83	127
43.55986394557823	44.16358276643991	59	127
43.55986394557823	44.16358276643991	64	127
43.55986394557823	44.16358276643991	56	127
43.83850340136055	44.16358276643991	80	127
44.18680272108843	45.42907029478458	76	127
44.18680272108843	44.5118820861678	64	127
44.18680272108843	44.5118820861678	59	127
44.18680272108843	44.5118820861678	56	127
44.5118820861678	44.953061224489794	59	127
44.5118820861678	44.953061224489794	56	127
44.5118820861678	44.953061224489794	64	127
44.97625850340136	45.452290249433105	59	127
44.97625850340136	45.452290249433105	64	127
44.97625850340136	45.452290249433105	56	127
45.47548752834467	46.009569160997735	64	127
45.47548752834467	46.009569160997735	59	127
45.47548752834467	46.009569160997735	56	127
45.47548752834467	46.52040816326531	80	127
46.009569160997735	47.100907029478456	66	127
46.009569160997735	46.822267573696145	61	127
46.009569160997735	47.100907029478456	57	127
46.54362811791383	47.65818594104309	78	127
46.83387755102041	47.11251700680272	63	127
47.13573696145125	48.29673469387755	68	127
47.13573696145125	48.29673469387755	64	127
47.13573696145125	48.29673469387755	59	127
47.65818594104309	48.98172335600907	76	127
48.33156462585034	49.68993197278912	69	127
48.33156462585034	49.68993197278912	66	127
48.33156462585034	49.68993197278912	47	127
49.01655328798186	49.70154195011338	75	127
49.724761904761905	51.12956916099773	75	127
49.724761904761905	51.12956916099773	69	127
49.724761904761905	51.12956916099773	66	127
49.724761904761905	51.12956916099773	52	127
51.15278911564626	52.13963718820862	68	127
51.15278911564626	52.13963718820862	76	127
51.15278911564626	52.13963718820862	64	127
51.15278911564626	52.13963718820862	40	127
53.30063492063492	53.660544217687075	76	127
53.4631746031746	53.89274376417234	64	127
53.4631746031746	53.89274376417234	57	127
53.4631746031746	53.89274376417234	48	127
53.67215419501134	53.89274376417234	69	127
53.91596371882086	54.39197278911565	48	127
53.91596371882086	54.39197278911565	64	127
53.91596371882086	54.39197278911565	57	127
53.91596371882086	55.47170068027211	69	127
54.41519274376417	54.8795918367347	57	127
54.41519274376417	54.8795918367347	48	127
54.41519274376417	54.8795918367347	64	127
54.90281179138322	55.49492063492063	48	127
54.90281179138322	55.49492063492063	64	127
54.90281179138322	55.49492063492063	57	127
55.518140589569164	55.85482993197279	57	127
55.518140589569164	55.85482993197279	76	127
55.518140589569164	55.85482993197279	64	127
55.518140589569164	55.85482993197279	48	127
55.87804988662131	56.725578231292516	76	127
56.45854875283447	56.96938775510204	47	127
56.45854875283447	56.96938775510204	64	127
56.45854875283447	56.96938775510204	56	127
56.73718820861678	56.96938775510204	68	127
56.992607709750565	57.480226757369614	56	127
56.992607709750565	57.480226757369614	47	127
56.992607709750565	58.629614512471655	68	127
56.992607709750565	57.480226757369614	64	127
57.480226757369614	58.00267573696145	64	127
57.480226757369614	58.00267573696145	56	127
57.480226757369614	58.00267573696145	47	127
58.025895691609975	58.65283446712018	64	127
58.025895691609975	58.65283446712018	56	127
58.025895691609975	58.65283446712018	47	127
58.676054421768704	59.059183673469384	76	127
58.676054421768704	59.059183673469384	64	127
58.676054421768704	59.059183673469384	56	127
58.676054421768704	59.059183673469384	47	127
59.059183673469384	60.58009070294784	76	127
59.453922902494334	60.046031746031744	64	127
59.453922902494334	60.046031746031744	55	127
59.453922902494334	60.046031746031744	46	127
60.06925170068027	60.58009070294784	64	127
60.06925170068027	60.58009070294784	55	127
60.06925170068027	60.58009070294784	46	127
60.603310657596374	61.07931972789115	77	127
60.603310657596374	61.07931972789115	62	127
60.603310657596374	61.07931972789115	53	127
60.603310657596374	61.07931972789115	46	127
61.102539682539685	61.648208616780046	79	127
61.102539682539685	61.648208616780046	60	127
61.102539682539685	61.648208616780046	52	127
61.102539682539685	61.648208616780046	46	127
61.67142857142857	62.33319727891156	76	127
61.67142857142857	62.33319727891156	60	127
61.67142857142857	62.33319727891156	55	127
61.67142857142857	62.33319727891156	46	127
62.344807256235825	63.447755102040816	55	127
62.344807256235825	63.447755102040816	76	127
62.344807256235825	64.46943310657596	60	127
62.344807256235825	64.46943310657596	45	127
63.4825850340136	64.48104308390023	53	127
63.4825850340136	65.02671201814059	77	127
65.02671201814059	65.23569160997732	76	127
65.24730158730159	66.21092970521542	76	127
65.64204081632653	66.22251700680272	69	127
65.64204081632653	66.22251700680272	60	127
65.64204081632653	66.22251700680272	53	127
66.24575963718821	66.66371882086167	59	127
66.24575963718821	66.66371882086167	71	127
66.24575963718821	66.66371882086167	53	127
66.24575963718821	67.6621768707483	75	127
66.6869387755102	67.20938775510204	57	127
66.6869387755102	67.20938775510204	53	127
66.6869387755102	67.20938775510204	72	127
67.20938775510204	67.67378684807257	53	127
67.20938775510204	67.67378684807257	71	127
67.20938775510204	67.67378684807257	59	127
67.68539682539682	68.31233560090703	69	127
67.68539682539682	68.31233560090703	75	127
67.68539682539682	68.31233560090703	60	127
67.68539682539682	68.31233560090703	53	127
68.33555555555556	69.47333333333333	69	127
68.33555555555556	69.47333333333333	60	127
68.33555555555556	69.47333333333333	75	127
68.33555555555556	70.72721088435374	52	127
69.50816326530612	70.75043083900226	68	127
69.50816326530612	70.75043083900226	59	127
69.50816326530612	71.3077097505669	76	127
71.35414965986395	71.8998185941043	74	127
71.92301587301587	75.18544217687075	45	127
71.92301587301587	72.85183673469388	73	127
71.92301587301587	72.85183673469388	64	127
71.92301587301587	73.08403628117914	52	127
72.86344671201815	72.97954648526077	74	127
72.86344671201815	72.97954648526077	66	127
73.0027664399093	73.08403628117914	73	127
73.0027664399093	73.08403628117914	64	127
73.10725623582766	74.21020408163265	62	127
73.10725623582766	74.21020408163265	71	127
73.10725623582766	74.21020408163265	56	127
74.23342403628118	75.24349206349207	61	127
74.23342403628118	75.24349206349207	57	127
74.23342403628118	75.24349206349207	69	127
75.27832199546485	76.27678004535147	69	127
75.27832199546485	76.7527664399093	59	127
75.27832199546485	76.7527664399093	62	127
75.27832199546485	78.23886621315192	52	127
76.3	76.77600907029479	68	127
76.79922902494332	77.35650793650794	61	127
76.79922902494332	77.35650793650794	69	127
76.79922902494332	77.35650793650794	57	127
77.36809523809524	77.89056689342404	59	127
77.36809523809524	77.89056689342404	56	127
77.36809523809524	77.89056689342404	71	127
77.91378684807256	78.29691609977324	73	127
77.91378684807256	78.29691609977324	57	127
77.91378684807256	78.29691609977324	55	127
78.32013605442177	79.4695238095238	54	127
78.32013605442177	79.16766439909297	74	127
78.32013605442177	79.4695238095238	57	127
78.32013605442177	81.68700680272109	50	127
79.1908843537415	79.31859410430839	76	127
79.33020408163266	79.48113378684808	74	127
79.5043537414966	80.74662131519274	73	127
79.5043537414966	81.72185941043084	56	127
79.5043537414966	81.72185941043084	59	127
80.78145124716553	81.74507936507936	71	127
81.76829931972789	82.3952380952381	78	127
81.76829931972789	83.0221768707483	57	127
81.76829931972789	83.0221768707483	52	127
81.76829931972789	83.0221768707483	49	127
82.41845804988662	83.03378684807257	76	127
83.98578231292517	84.12512471655329	69	127
84.14834467120181	84.29927437641723	71	127
84.32249433106576	84.47340136054422	73	127
84.48503401360544	84.6243537414966	74	127
84.6243537414966	84.74045351473923	76	127
84.76367346938775	84.90299319727892	78	127
84.92621315192744	85.06553287981859	80	127
85.08875283446712	85.11195011337868	81	127
85.11195011337868	85.72730158730158	81	127
85.46027210884354	86.05238095238096	66	127
85.46027210884354	86.05238095238096	62	127
85.46027210884354	86.05238095238096	69	127
85.76213151927438	86.05238095238096	78	127
86.07560090702948	86.3542403628118	62	127
86.07560090702948	86.3542403628118	69	127
86.07560090702948	86.3542403628118	66	127
86.07560090702948	87.21337868480725	78	127
86.3542403628118	86.84185941043084	62	127
86.3542403628118	86.84185941043084	69	127
86.3542403628118	86.84185941043084	66	127
86.84185941043084	87.23659863945578	69	127
86.84185941043084	87.23659863945578	66	127
86.84185941043084	87.23659863945578	62	127
87.25979591836735	87.8287074829932	86	127
87.25979591836735	87.8287074829932	69	127
87.25979591836735	87.8287074829932	66	127
87.25979591836735	87.8287074829932	62	127
87.85192743764172	89.25673469387755	86	127
88.46725623582766	89.26834467120182	64	127
88.46725623582766	89.26834467120182	62	127
88.46725623582766	89.26834467120182	59	127
89.30315192743764	91.70641723356009	56	127
89.30315192743764	91.70641723356009	64	127
89.30315192743764	91.70641723356009	62	127
89.30315192743764	91.70641723356009	59	127
93.58725623582767	94.24902494331066	83	127
94.28385487528345	95.32875283446712	77	127
94.28385487528345	95.32875283446712	74	127
94.28385487528345	95.32875283446712	71	127
94.28385487528345	95.32875283446712	67	127
95.3635827664399	96.64068027210884	78	127
95.3635827664399	96.64068027210884	74	127
95.3635827664399	96.64068027210884	71	127
95.3635827664399	96.64068027210884	66	127
96.67551020408163	97.95260770975057	80	127
96.67551020408163	97.95260770975057	74	127
96.67551020408163	97.95260770975057	71	127
96.67551020408163	97.95260770975057	65	127
97.98743764172336	99.11360544217688	81	127
97.98743764172336	99.11360544217688	73	127
97.98743764172336	99.11360544217688	69	127
97.98743764172336	99.11360544217688	66	127
100.27460317460317	101.30789115646259	62	127
100.27460317460317	101.30789115646259	78	127
100.27460317460317	103.64149659863945	69	127
100.27460317460317	100.87832199546486	50	127
100.90154195011338	101.31950113378684	50	127
101.33111111111111	102.57337868480725	61	127
101.33111111111111	101.98126984126984	52	127
101.33111111111111	102.57337868480725	76	127
102.00448979591837	102.58498866213152	52	127
102.59659863945578	103.0958276643991	53	127
102.59659863945578	103.69954648526077	75	127
102.59659863945578	103.69954648526077	60	127
103.11904761904762	103.71115646258504	53	127
103.73437641723356	106.74136054421768	57	127
103.73437641723356	105.3249433106576	76	127
103.73437641723356	106.74136054421768	61	127
103.73437641723356	106.74136054421768	52	127
105.3249433106576	105.59197278911564	78	127
105.61519274376417	105.90544217687075	76	127
105.92866213151927	106.21891156462586	74	127
106.24213151927438	106.54399092970522	73	127
106.54399092970522	106.57882086167801	71	127
106.60204081632654	106.82263038548753	69	127
106.84585034013605	110.51460317460318	40	127
106.84585034013605	108.09972789115646	69	127
106.84585034013605	110.51460317460318	62	127
106.84585034013605	110.51460317460318	59	127
108.13455782312926	108.69183673469388	68	127
108.7150566893424	109.31877551020408	71	127
109.3419954648526	109.9108843537415	74	127
109.93410430839002	110.58426303854876	68	127
110.59587301587301	112.02390022675738	62	127
110.59587301587301	112.99913832199546	45	127
110.59587301587301	112.02390022675738	71	127
110.59587301587301	112.02390022675738	56	127
112.05873015873016	112.99913832199546	61	127
112.05873015873016	112.99913832199546	69	127
112.05873015873016	112.99913832199546	57	127
114.3691156462585	115.26308390022676	76	127
114.3691156462585	115.26308390022676	72	127
115.28630385487529	115.39079365079365	77	127
115.28630385487529	115.39079365079365	74	127
115.40240362811791	115.55333333333333	76	127
115.40240362811791	115.55333333333333	72	127
115.57655328798187	116.56340136054422	74	127
115.57655328798187	116.56340136054422	71	127
116.59823129251701	117.7940589569161	69	127
116.59823129251701	117.7940589569161	72	127
117.81727891156463	120.7778231292517	68	127
117.81727891156463	118.62997732426304	77	127
117.81727891156463	120.7778231292517	71	127
118.62997732426304	118.68802721088436	79	127
118.69963718820861	118.8273469387755	77	127
118.85056689342403	119.95351473922902	76	127
119.95351473922902	120.82426303854875	74	127
120.84748299319727	123.05337868480726	72	127
120.84748299319727	121.72984126984127	65	127
120.84748299319727	122.0665306122449	69	127
120.84748299319727	123.05337868480726	69	127
121.76467120181405	121.91560090702947	67	127
121.93882086167801	122.07814058956916	65	127
122.10136054421768	123.07659863945578	64	127
123.11142857142858	124.31886621315192	81	127
123.11142857142858	124.31886621315192	72	127
123.11142857142858	124.31886621315192	63	127
123.11142857142858	124.31886621315192	63	127
124.35369614512472	126.68730158730159	64	127
124.35369614512472	125.5843537414966	72	127
124.35369614512472	125.5843537414966	69	127
124.35369614512472	125.5843537414966	64	127
125.6191836734694	126.71052154195011	68	127
125.6191836734694	126.71052154195011	71	127
127.55804988662132	128.71904761904761	36	127
127.55804988662132	128.41718820861678	64	127
127.55804988662132	128.71904761904761	55	127
127.55804988662132	128.71904761904761	55	127
128.45199546485262	128.57972789115647	65	127
128.60292517006803	128.73065759637188	64	127
128.75385487528345	129.75233560090703	53	127
128.75385487528345	129.75233560090703	59	127
128.75385487528345	129.75233560090703	62	127
128.75385487528345	129.75233560090703	38	127
129.7755328798186	130.3328344671202	52	127
129.7755328798186	130.6695238095238	60	127
129.7755328798186	130.6695238095238	40	127
130.3328344671202	130.68113378684808	55	127
130.7043537414966	133.8738775510204	60	127
130.7043537414966	131.19197278911565	60	127
130.7043537414966	131.19197278911565	57	127
130.7043537414966	132.9682993197279	41	127
131.20358276643992	131.66795918367347	69	127
131.20358276643992	131.66795918367347	65	127
131.69120181405896	133.56038548752835	69	127
131.69120181405896	133.56038548752835	65	127
133.0263492063492	133.58362811791383	41	127
133.5952380952381	133.89709750566894	67	127
133.5952380952381	133.89709750566894	64	127
133.5952380952381	133.89709750566894	43	127
133.9202947845805	134.5356462585034	67	127
133.9202947845805	135.10453514739228	57	127
133.9202947845805	135.48766439909298	60	127
133.9202947845805	135.48766439909298	45	127
134.55886621315193	135.11614512471655	66	127
135.12775510204082	136.50934240362812	65	127
135.48766439909298	136.0449433106576	55	127
135.48766439909298	136.0449433106576	47	127
135.48766439909298	136.0449433106576	62	127
136.06814058956917	136.53256235827664	55	127
136.06814058956917	136.53256235827664	62	127
136.06814058956917	136.53256235827664	48	127
136.55578231292517	137.12467120181407	64	127
136.55578231292517	137.12467120181407	60	127
136.55578231292517	137.12467120181407	60	127
136.55578231292517	137.12467120181407	42	127
137.14789115646258	138.05346938775511	55	127
137.14789115646258	137.6122902494331	65	127
137.14789115646258	138.05346938775511	60	127
137.14789115646258	139.17963718820863	43	127
137.6122902494331	138.06507936507936	64	127
138.0882993197279	139.19124716553287	59	127
138.0882993197279	138.5875283446712	62	127
138.61074829931974	139.20285714285714	55	127
139.22607709750568	139.77174603174603	59	127
139.7949433106576	140.23614512471656	62	127
140.24775510204083	140.89791383219955	65	127
140.7237641723356	141.1765306122449	55	127
140.7237641723356	141.1765306122449	53	127
140.7237641723356	141.1765306122449	50	127
140.90952380952382	140.96757369614514	64	127
140.97918367346938	141.06045351473924	62	127
141.08367346938775	141.1765306122449	60	127
141.18816326530612	141.72222222222223	53	127
141.18816326530612	141.72222222222223	55	127
141.18816326530612	141.72222222222223	50	127
141.18816326530612	141.97764172335602	59	127
141.74544217687074	142.31433106575963	50	127
141.74544217687074	142.31433106575963	55	127
141.74544217687074	142.31433106575963	53	127
142.00086167800453	142.31433106575963	60	127
142.33755102040817	142.53492063492064	62	127
142.33755102040817	142.72068027210884	55	127
142.33755102040817	142.72068027210884	53	127
142.33755102040817	142.72068027210884	50	127
142.5465306122449	142.72068027210884	64	127
142.74390022675738	143.16185941043085	53	127
142.74390022675738	142.8948299319728	65	127
142.74390022675738	143.16185941043085	55	127
142.74390022675738	143.16185941043085	50	127
142.91802721088436	143.16185941043085	66	127
143.18507936507936	143.74235827664398	67	127
143.56820861678005	144.04421768707482	52	127
143.56820861678005	144.04421768707482	58	127
143.56820861678005	144.04421768707482	55	127
143.75396825396825	143.82362811791384	65	127
143.83521541950114	143.9397052154195	64	127
143.962947845805	144.04421768707482	62	127
144.06743764172336	144.67115646258503	55	127
144.06743764172336	144.67115646258503	58	127
144.06743764172336	144.67115646258503	52	127
144.06743764172336	146.09918367346938	61	127
144.6827664399093	145.26326530612246	52	127
144.6827664399093	145.26326530612246	55	127
144.6827664399093	145.26326530612246	58	127
145.26326530612246	145.5651247165533	58	127
145.26326530612246	145.5651247165533	55	127
145.26326530612246	145.5651247165533	52	127
145.5651247165533	146.13399092970522	55	127
145.5651247165533	146.13399092970522	58	127
145.5651247165533	146.13399092970522	52	127
146.1572335600907	146.35460317460317	62	127
146.1572335600907	146.77256235827664	57	127
146.1572335600907	146.77256235827664	57	127
146.1572335600907	146.77256235827664	53	127
146.3778231292517	146.5403628117914	69	127
146.55197278911564	146.77256235827664	68	127
146.7841723356009	147.43433106575964	53	127
146.7841723356009	146.99315192743765	69	127
146.7841723356009	147.43433106575964	62	127
146.7841723356009	147.43433106575964	41	127
147.01637188208616	147.21374149659863	65	127
147.2253514739229	147.43433106575964	62	127
147.45755102040818	148.56049886621315	52	127
147.45755102040818	148.56049886621315	60	127
147.45755102040818	149.82598639455782	43	127
148.6069387755102	149.84920634920636	53	127
148.6069387755102	149.84920634920636	59	127
148.6069387755102	149.50090702947847	62	127
149.53573696145125	149.86081632653062	60	127
149.88403628117914	150.94052154195012	52	127
149.88403628117914	150.94052154195012	48	127
149.88403628117914	151.4978231292517	60	127
150.94052154195012	152.02027210884353	36	127
151.50943310657595	152.0318820861678	64	127
151.50943310657595	152.0318820861678	60	127
152.05510204081634	152.55433106575964	60	127
152.05510204081634	152.55433106575964	64	127
152.5775283446712	152.96068027210885	60	127
152.5775283446712	152.96068027210885	64	127
152.97229024943312	153.84303854875284	60	127
152.97229024943312	157.17507936507937	52	127
152.97229024943312	153.84303854875284	64	127
152.97229024943312	154.93437641723355	44	127
153.87786848072562	154.01718820861677	62	127
153.87786848072562	154.01718820861677	65	127
154.0404081632653	154.17972789115646	64	127
154.0404081632653	154.17972789115646	60	127
154.202947845805	154.64412698412698	59	127
154.202947845805	154.64412698412698	62	127
154.64412698412698	154.96920634920636	59	127
154.64412698412698	154.96920634920636	62	127
154.99242630385487	155.50326530612244	57	127
154.99242630385487	156.0837641723356	45	127
154.99242630385487	155.50326530612244	60	127
155.52648526077098	156.0837641723356	57	127
155.52648526077098	156.0837641723356	60	127
156.09537414965988	157.17507936507937	40	127
156.09537414965988	157.17507936507937	60	127
156.09537414965988	157.17507936507937	57	127
157.19832199546485	158.02263038548753	56	127
157.19832199546485	157.7207709750567	59	127
157.19832199546485	158.02263038548753	52	127
157.73238095238096	158.0342403628118	64	127
157.73238095238096	158.0342403628118	56	127
158.0458276643991	158.6960090702948	64	127
158.0458276643991	158.6960090702948	56	127
158.0458276643991	159.27648526077098	64	127
158.70761904761906	159.2881179138322	56	127
158.70761904761906	159.2881179138322	64	127
159.29972789115646	162.8407709750567	41	127
159.29972789115646	160.44909297052155	57	127
159.29972789115646	161.0644217687075	69	127
159.29972789115646	160.14725623582765	64	127
160.18208616780046	160.33301587301588	65	127
160.3562358276644	160.46072562358276	64	127
160.4839455782313	161.5520634920635	62	127
161.11086167800454	161.5520634920635	71	127
161.57526077097506	162.1790022675737	72	127
161.57526077097506	162.89882086167802	63	127
161.57526077097506	162.89882086167802	57	127
162.20222222222222	162.91043083900226	63	127
162.9336507936508	164.29201814058956	57	127
162.9336507936508	164.29201814058956	63	127
162.9336507936508	164.29201814058956	40	127
164.32684807256237	165.76646258503402	64	127
164.32684807256237	165.10471655328797	64	127
164.32684807256237	165.76646258503402	56	127
164.32684807256237	165.76646258503402	52	127
165.1279365079365	165.4530158730159	66	127
165.4762358276644	165.76646258503402	68	127
165.7897052154195	166.14961451247166	69	127
166.17281179138322	166.48630385487527	70	127
166.5095238095238	166.78814058956917	71	127
166.81138321995465	167.13646258503402	72	127
167.15968253968254	168.18136054421768	52	127
167.15968253968254	167.94916099773243	73	127
167.15968253968254	168.18136054421768	64	127
167.15968253968254	170.5033560090703	45	127
167.98399092970521	168.08848072562358	74	127
168.10009070294785	168.19297052154195	73	127
168.19297052154195	169.31913832199547	56	127
168.19297052154195	169.31913832199547	71	127
168.19297052154195	169.31913832199547	62	127
169.35396825396825	170.56140589569162	69	127
169.35396825396825	170.56140589569162	61	127
169.35396825396825	170.56140589569162	57	127
170.5962358276644	173.5451700680272	52	127
170.5962358276644	171.62952380952382	69	127
170.5962358276644	172.08231292517007	59	127
170.5962358276644	172.08231292517007	62	127
171.6643537414966	171.83850340136055	68	127
171.86172335600907	172.09392290249434	76	127
172.11714285714285	172.3841723356009	69	127
172.11714285714285	172.72086167800452	61	127
172.11714285714285	172.72086167800452	57	127
172.40736961451248	172.72086167800452	76	127
172.74408163265306	173.1736507936508	56	127
172.74408163265306	172.871768707483	71	127
172.74408163265306	173.1736507936508	59	127
172.89501133786848	173.1736507936508	76	127
173.19687074829932	173.32458049886623	73	127
173.19687074829932	173.59160997732425	57	127
173.19687074829932	173.59160997732425	55	127
173.33619047619047	173.59160997732425	76	127
173.6148299319728	174.84548752834468	57	127
173.6148299319728	174.2069387755102	74	127
173.6148299319728	174.84548752834468	54	127
173.6148299319728	177.21390022675737	50	127
174.23015873015873	174.36947845804988	74	127
174.38108843537415	174.5204081632653	73	127
174.54362811791384	174.682947845805	74	127
174.70616780045353	174.85709750566895	76	127
174.88031746031746	177.24875283446713	56	127
174.88031746031746	176.0645351473923	78	127
174.88031746031746	177.24875283446713	59	127
176.09936507936507	176.4012244897959	76	127
176.42444444444445	176.714693877551	74	127
176.73791383219955	176.98172335600907	73	127
177.0049433106576	177.2835827664399	71	127
177.30680272108845	177.88730158730158	78	127
177.30680272108845	178.50263038548752	57	127
177.30680272108845	178.50263038548752	52	127
177.30680272108845	178.50263038548752	49	127
177.91052154195012	178.50263038548752	76	127
179.62879818594104	179.77972789115645	69	127
179.802947845805	179.93065759637187	71	127
179.9538775510204	180.10480725623583	73	127
180.1164172335601	180.25573696145125	74	127
180.25573696145125	180.36022675736962	76	127
180.38342403628118	180.5227664399093	78	127
180.54598639455781	180.69691609977323	80	127
180.72013605442177	180.81301587301587	81	127
180.81301587301587	181.3702947845805	81	127
181.08004535147393	181.66052154195012	62	127
181.08004535147393	181.66052154195012	69	127
181.08004535147393	181.66052154195012	66	127
181.39351473922903	181.66052154195012	78	127
181.6837641723356	182.27585034013606	78	127
181.6837641723356	182.27585034013606	69	127
181.6837641723356	182.27585034013606	66	127
181.6837641723356	182.27585034013606	62	127
182.27585034013606	182.54290249433106	69	127
182.27585034013606	182.54290249433106	66	127
182.27585034013606	182.54290249433106	62	127
182.28748299319727	182.39197278911564	77	127
182.41519274376418	182.54290249433106	78	127
182.55451247165533	183.07696145124717	66	127
182.55451247165533	182.69383219954648	77	127
182.55451247165533	183.07696145124717	69	127
182.55451247165533	183.07696145124717	62	127
182.69383219954648	182.7518820861678	78	127
182.77510204081634	182.90281179138321	77	127
182.92603174603175	183.07696145124717	78	127
183.10018140589568	183.64585034013606	62	127
183.10018140589568	183.21628117913832	77	127
183.10018140589568	183.64585034013606	69	127
183.10018140589568	183.64585034013606	66	127
183.23950113378686	183.35560090702947	78	127
183.378820861678	183.49492063492065	80	127
183.49492063492065	183.64585034013606	78	127
183.66907029478458	184.42369614512472	78	127
184.12185941043083	184.77201814058958	64	127
184.12185941043083	184.77201814058958	62	127
184.12185941043083	184.77201814058958	68	127
184.45854875283447	184.5398185941043	76	127
184.55142857142857	184.65591836734694	74	127
184.6791156462585	184.77201814058958	73	127
184.7952380952381	185.13192743764174	68	127
184.7952380952381	185.13192743764174	64	127
184.7952380952381	185.13192743764174	62	127
184.7952380952381	185.37573696145125	71	127
185.15514739229025	185.72403628117914	64	127
185.15514739229025	185.72403628117914	68	127
185.15514739229025	185.72403628117914	62	127
185.41056689342403	185.72403628117914	71	127
185.74725623582768	185.94462585034015	70	127
185.74725623582768	186.3974149659864	62	127
185.74725623582768	186.3974149659864	68	127
185.74725623582768	186.3974149659864	64	127
185.96784580498866	186.16521541950112	71	127
186.1768253968254	186.3974149659864	72	127
186.4206349206349	186.57154195011339	73	127
186.4206349206349	186.90825396825397	68	127
186.4206349206349	186.90825396825397	64	127
186.4206349206349	186.90825396825397	62	127
186.59478458049887	186.75732426303856	74	127
186.75732426303856	186.90825396825397	75	127
186.93145124716554	187.3029931972789	76	127
187.32621315192745	188.1040589569161	76	127
187.32621315192745	187.86027210884353	64	127
187.32621315192745	187.86027210884353	69	127
187.32621315192745	187.86027210884353	61	127
187.88349206349207	188.41755102040815	64	127
187.88349206349207	188.41755102040815	68	127
187.88349206349207	188.41755102040815	59	127
188.1273015873016	188.41755102040815	75	127
188.4407709750567	188.95160997732427	56	127
188.4407709750567	189.3231292517007	71	127
188.4407709750567	189.3231292517007	64	127
188.67297052154194	188.95160997732427	74	127
188.97480725623583	189.33473922902493	57	127
189.07931972789115	189.33473922902493	73	127
189.35795918367347	189.97328798185941	69	127
189.35795918367347	189.97328798185941	66	127
189.35795918367347	189.97328798185941	51	127
189.6946485260771	189.8455782312925	73	127
189.86879818594105	189.97328798185941	81	127
189.99648526077098	191.21555555555557	52	127
189.99648526077098	190.27514739229025	73	127
189.99648526077098	192.38816326530613	64	127
189.99648526077098	191.21555555555557	69	127
190.28675736961452	190.60022675736963	74	127
190.62344671201814	190.90208616780046	75	127
190.92530612244897	191.21555555555557	76	127
191.23877551020408	192.41138321995464	68	127
191.23877551020408	192.41138321995464	40	127
191.23877551020408	192.8641723356009	71	127
192.91061224489795	193.45628117913833	72	127
193.47950113378684	194.58244897959185	64	127
193.47950113378684	194.58244897959185	52	127
193.47950113378684	193.9322902494331	73	127
193.47950113378684	196.8231746031746	45	127
193.95551020408163	194.04839002267573	74	127
194.04839002267573	194.44312925170067	76	127
194.4663492063492	194.52439909297053	74	127
194.5360090702948	194.5940589569161	73	127
194.61727891156463	194.89591836734695	71	127
194.61727891156463	195.68539682539682	62	127
194.61727891156463	195.68539682539682	56	127
194.91913832199546	195.0584580498866	73	127
195.08167800453515	195.52285714285713	74	127
195.54607709750567	195.61573696145123	73	127
195.6273469387755	195.6970068027211	71	127
195.7202267573696	196.26589569160998	69	127
195.7202267573696	196.86961451247166	61	127
195.7202267573696	196.86961451247166	57	127
196.2891156462585	196.88122448979593	69	127
196.8928344671202	198.04222222222222	69	127
196.8928344671202	198.50662131519275	59	127
196.8928344671202	198.50662131519275	62	127
196.8928344671202	200.14362811791383	52	127
198.06544217687076	198.32086167800455	68	127
198.34408163265306	198.52984126984126	68	127
198.5530612244898	199.1451700680272	61	127
198.5530612244898	198.84331065759636	71	127
198.5530612244898	199.1451700680272	57	127
198.8665306122449	199.1451700680272	69	127
199.16839002267574	199.3657596371882	73	127
199.16839002267574	199.65600907029477	59	127
199.16839002267574	199.65600907029477	56	127
199.38897959183674	199.65600907029477	71	127
199.6792290249433	200.17845804988661	55	127
199.6792290249433	199.98108843537415	74	127
199.6792290249433	200.17845804988661	57	127
199.99269841269842	200.17845804988661	73	127
200.20167800453515	200.8402267573696	76	127
200.20167800453515	203.99814058956918	50	127
200.20167800453515	201.45555555555555	57	127
200.20167800453515	201.45555555555555	54	127
200.86344671201815	201.1885260770975	74	127
201.1885260770975	201.29301587301586	74	127
201.3162358276644	201.46716553287982	76	127
201.49038548752836	204.03297052154196	56	127
201.49038548752836	202.7907029478458	78	127
201.49038548752836	204.03297052154196	59	127
202.82553287981858	203.1041723356009	76	127
203.12739229024945	203.42925170068028	74	127
203.4524716553288	203.7659410430839	73	127
203.78916099773244	204.06780045351474	71	127
204.09102040816327	205.08947845804988	49	127
204.09102040816327	205.08947845804988	57	127
204.09102040816327	204.6715192743764	78	127
204.09102040816327	205.08947845804988	52	127
204.69473922902495	205.08947845804988	76	127
206.36657596371882	206.57555555555555	57	127
206.5987755102041	206.79614512471656	61	127
206.80775510204083	207.0051247165533	64	127
207.0283446712018	207.21410430839003	69	127
207.23732426303854	207.35342403628118	73	127
207.35342403628118	207.434693877551	76	127
207.45791383219955	207.6668934240363	81	127
207.6901133786848	207.74816326530612	85	127
207.74816326530612	207.95714285714286	83	127
207.9803628117914	208.18934240362813	81	127
207.9803628117914	208.58408163265307	63	127
207.9803628117914	208.58408163265307	59	127
207.9803628117914	208.58408163265307	57	127
208.21256235827664	208.34027210884355	80	127
208.3518820861678	208.58408163265307	78	127
208.60730158730158	208.65374149659863	76	127
208.60730158730158	208.94399092970522	59	127
208.60730158730158	208.94399092970522	57	127
208.60730158730158	208.94399092970522	63	127
208.65374149659863	208.74662131519275	75	127
208.758231292517	208.94399092970522	73	127
208.9556009070295	209.50126984126985	63	127
208.9556009070295	209.50126984126985	57	127
208.9556009070295	209.11814058956915	71	127
208.9556009070295	209.50126984126985	59	127
209.1413605442177	209.26907029478457	70	127
209.28068027210884	209.50126984126985	71	127
209.52448979591836	209.640589569161	73	127
209.52448979591836	209.7915192743764	63	127
209.52448979591836	209.7915192743764	59	127
209.52448979591836	209.7915192743764	57	127
209.640589569161	209.6986394557823	75	127
209.71024943310658	209.7915192743764	76	127
209.81473922902495	210.4532879818594	59	127
209.81473922902495	210.01210884353742	78	127
209.81473922902495	210.4532879818594	57	127
209.81473922902495	210.4532879818594	63	127
210.03532879818593	210.2094784580499	80	127
210.22108843537416	210.4532879818594	81	127
210.47650793650794	210.82480725623583	82	127
210.84802721088437	211.37047619047618	59	127
210.84802721088437	211.37047619047618	64	127
210.84802721088437	211.37047619047618	56	127
210.84802721088437	211.5910657596372	83	127
211.39369614512472	211.9625850340136	64	127
211.39369614512472	211.9625850340136	59	127
211.39369614512472	211.9625850340136	56	127
211.61428571428573	211.7768253968254	83	127
211.78843537414966	211.9625850340136	80	127
211.98580498866212	212.1251247165533	76	127
211.98580498866212	212.4734240362812	64	127
211.98580498866212	212.4734240362812	59	127
211.98580498866212	212.4734240362812	56	127
212.1483446712018	212.3108843537415	83	127
212.32249433106577	212.4734240362812	80	127
212.4966439909297	212.67079365079366	76	127
212.4966439909297	213.0655328798186	59	127
212.4966439909297	213.0655328798186	56	127
212.4966439909297	213.0655328798186	64	127
212.69401360544217	212.8797732426304	88	127
212.89138321995466	213.0655328798186	87	127
213.08875283446713	213.5995918367347	64	127
213.08875283446713	213.5995918367347	56	127
213.08875283446713	213.2512925170068	85	127
213.08875283446713	213.5995918367347	59	127
213.27451247165533	213.39061224489797	83	127
213.40222222222224	213.5995918367347	81	127
213.6228117913832	214.73736961451246	66	127
213.6228117913832	213.7853514739229	80	127
213.6228117913832	214.73736961451246	57	127
213.6228117913832	214.42390022675738	61	127
213.79696145124717	213.92467120181405	78	127
213.93628117913832	214.12204081632652	80	127
214.1336507936508	214.319410430839	81	127
214.34263038548752	214.52839002267575	80	127
214.45873015873016	214.74897959183673	63	127
214.54	214.74897959183673	78	127
214.77219954648527	215.93319727891156	64	127
214.77219954648527	215.93319727891156	68	127
214.77219954648527	215.93319727891156	59	127
214.96956916099774	215.13210884353742	76	127
215.14371882086166	215.36430839002267	78	127
215.37591836734694	215.5152380952381	80	127
215.52684807256236	215.71260770975056	78	127
215.71260770975056	215.94480725623583	76	127
215.96802721088434	217.26834467120182	66	127
215.96802721088434	217.26834467120182	69	127
215.96802721088434	217.26834467120182	47	127
216.17700680272108	216.38598639455782	75	127
216.3975963718821	216.62979591836734	78	127
216.65301587301587	216.83877551020407	81	127
216.8619954648526	217.05936507936508	83	127
217.07097505668935	217.2799546485261	75	127
217.3031746031746	218.61510204081634	78	127
217.3031746031746	218.61510204081634	69	127
217.3031746031746	218.61510204081634	63	127
217.3031746031746	218.61510204081634	52	127
218.64993197278912	219.3117006802721	68	127
218.64993197278912	219.3117006802721	76	127
218.64993197278912	219.3117006802721	64	127
218.64993197278912	219.3117006802721	40	127
219.33492063492062	219.89219954648527	52	127
219.9038095238095	220.4146485260771	52	127
220.43786848072563	221.0415873015873	50	127
221.06480725623584	221.47115646258504	76	127
221.23895691609977	221.77301587301588	48	127
221.23895691609977	221.77301587301588	64	127
221.23895691609977	221.77301587301588	57	127
221.50598639455782	221.77301587301588	69	127
221.7962358276644	222.30707482993196	57	127
221.7962358276644	223.0501133786848	69	127
221.7962358276644	222.30707482993196	48	127
221.7962358276644	222.30707482993196	64	127
222.3302947845805	222.88757369614513	48	127
222.3302947845805	222.88757369614513	64	127
222.3302947845805	222.88757369614513	57	127
222.91079365079366	223.45646258503402	64	127
222.91079365079366	223.45646258503402	57	127
222.91079365079366	223.45646258503402	48	127
223.06172335600908	223.22426303854874	71	127
223.235873015873	223.45646258503402	72	127
223.47968253968253	224.08340136054423	48	127
223.47968253968253	223.65383219954649	73	127
223.47968253968253	224.08340136054423	64	127
223.47968253968253	224.08340136054423	57	127
223.67705215419502	223.86281179138322	74	127
223.8744217687075	224.08340136054423	75	127
224.10662131519274	224.73356009070295	76	127
224.44331065759638	225.08185941043084	64	127
224.44331065759638	225.08185941043084	56	127
224.44331065759638	225.08185941043084	47	127
224.76839002267573	225.08185941043084	68	127
225.10507936507938	226.37056689342404	68	127
225.10507936507938	225.54625850340136	64	127
225.10507936507938	225.54625850340136	56	127
225.10507936507938	225.54625850340136	47	127
225.55786848072563	226.14997732426303	56	127
225.55786848072563	226.14997732426303	47	127
225.55786848072563	226.14997732426303	64	127
226.1615873015873	226.74208616780047	56	127
226.1615873015873	226.74208616780047	64	127
226.1615873015873	226.74208616780047	47	127
226.39378684807255	226.52149659863946	64	127
226.53310657596373	226.74208616780047	76	127
226.76530612244898	227.36902494331065	64	127
226.76530612244898	226.95106575963717	64	127
226.76530612244898	227.36902494331065	56	127
226.76530612244898	227.36902494331065	47	127
226.9742857142857	227.1600453514739	76	127
227.1600453514739	227.36902494331065	64	127
227.3922448979592	228.4255328798186	76	127
227.71732426303853	228.21655328798187	64	127
227.71732426303853	228.21655328798187	55	127
227.71732426303853	228.21655328798187	46	127
228.23977324263038	228.8318820861678	64	127
228.23977324263038	228.8318820861678	55	127
228.23977324263038	228.8318820861678	46	127
228.44875283446711	228.63451247165534	64	127
228.64612244897958	228.8318820861678	76	127
228.8318820861678	228.94798185941042	77	127
228.8318820861678	229.2730612244898	62	127
228.8318820861678	229.2730612244898	53	127
228.8318820861678	229.2730612244898	46	127
228.97120181405896	229.06408163265306	65	127
229.07569160997733	229.2730612244898	77	127
229.28467120181406	229.7722902494331	52	127
229.28467120181406	229.43560090702948	79	127
229.28467120181406	229.7722902494331	46	127
229.28467120181406	229.7722902494331	60	127
229.458820861678	229.6097505668934	67	127
229.62136054421768	229.7722902494331	79	127
229.79551020408164	229.98126984126984	76	127
229.79551020408164	230.42244897959185	60	127
229.79551020408164	230.42244897959185	55	127
229.79551020408164	230.42244897959185	46	127
230.00448979591837	230.1786394557823	64	127
230.19024943310657	230.42244897959185	76	127
230.4340589569161	230.63142857142856	76	127
230.63142857142856	230.64303854875283	77	127
230.6546485260771	230.72430839002268	76	127
230.73591836734693	230.77074829931973	74	127
230.782358276644	230.82879818594105	76	127
230.85201814058956	231.35124716553287	45	127
230.85201814058956	231.04938775510203	79	127
230.85201814058956	231.35124716553287	60	127
230.85201814058956	231.35124716553287	53	127
231.07260770975057	231.35124716553287	77	127
231.3744671201814	231.83886621315193	53	127
231.3744671201814	231.83886621315193	60	127
231.3744671201814	231.83886621315193	45	127
231.3744671201814	232.32648526077097	77	127
231.83886621315193	232.33809523809524	60	127
231.83886621315193	232.33809523809524	53	127
231.83886621315193	232.33809523809524	45	127
232.36131519274377	232.95342403628118	45	127
232.36131519274377	232.52385487528343	65	127
232.36131519274377	232.95342403628118	60	127
232.36131519274377	232.95342403628118	53	127
232.54707482993197	232.73283446712017	69	127
232.74444444444444	232.95342403628118	72	127
232.97664399092972	233.13918367346938	77	127
232.97664399092972	233.5803628117914	60	127
232.97664399092972	233.5803628117914	53	127
232.97664399092972	233.5803628117914	45	127
233.16240362811791	233.35977324263038	81	127
233.37138321995465	233.5803628117914	77	127
233.6035827664399	234.4627210884354	76	127
234.02154195011337	234.47433106575963	60	127
234.02154195011337	234.47433106575963	41	127
234.02154195011337	234.47433106575963	69	127
234.49755102040817	235.02	71	127
234.49755102040817	235.02	75	127
234.49755102040817	235.02	59	127
234.49755102040817	235.02	41	127
235.04321995464852	235.49600907029478	72	127
235.04321995464852	235.49600907029478	75	127
235.04321995464852	235.49600907029478	57	127
235.04321995464852	235.49600907029478	41	127
235.51922902494331	236.16938775510204	75	127
235.51922902494331	236.16938775510204	71	127
235.51922902494331	236.16938775510204	59	127
235.51922902494331	236.16938775510204	41	127
236.19260770975058	236.8427664399093	69	127
236.19260770975058	236.8427664399093	75	127
236.19260770975058	236.8427664399093	60	127
236.19260770975058	236.8427664399093	41	127
236.85437641723357	237.08657596371881	75	127
236.85437641723357	238.0385941043084	69	127
236.85437641723357	239.25764172335602	40	127
236.85437641723357	238.0385941043084	60	127
237.10979591836735	237.1562358276644	76	127
237.16784580498867	237.23750566893423	75	127
237.26072562358277	237.3187755102041	73	127
237.33038548752833	237.40004535147392	75	127
237.42326530612246	237.71351473922903	78	127
237.73673469387754	238.05020408163264	76	127
238.07342403628118	239.2692517006803	76	127
238.07342403628118	239.2692517006803	68	127
238.07342403628118	239.2692517006803	59	127
239.30408163265307	240.02390022675738	42	127
239.30408163265307	240.02390022675738	75	127
239.30408163265307	240.02390022675738	69	127
239.30408163265307	240.02390022675738	57	127
240.0471201814059	240.70888888888888	74	127
240.0471201814059	240.70888888888888	71	127
240.0471201814059	240.70888888888888	52	127
240.0471201814059	240.70888888888888	44	127
240.73210884353742	241.68412698412698	73	127
240.73210884353742	241.68412698412698	64	127
240.73210884353742	242.00920634920635	52	127
240.73210884353742	244.55179138321995	45	127
241.70734693877552	241.85827664399093	66	127
241.70734693877552	241.85827664399093	74	127
241.88149659863944	242.02081632653062	64	127
241.88149659863944	242.02081632653062	73	127
242.04403628117913	243.32113378684807	71	127
242.04403628117913	243.32113378684807	62	127
242.04403628117913	243.32113378684807	56	127
243.35596371882087	244.60984126984127	57	127
243.35596371882087	244.60984126984127	69	127
243.35596371882087	244.60984126984127	61	127
244.64467120181405	246.3861678004535	59	127
244.64467120181405	245.87532879818593	69	127
244.64467120181405	246.3861678004535	62	127
244.64467120181405	248.37147392290248	52	127
245.91015873015874	246.0494784580499	68	127
246.0726984126984	246.2352380952381	76	127
246.24684807256236	246.40938775510205	76	127
246.43260770975056	247.01310657596372	61	127
246.43260770975056	246.59514739229024	69	127
246.43260770975056	247.01310657596372	57	127
246.6067573696145	246.78090702947847	78	127
246.7925170068027	247.01310657596372	76	127
247.03632653061226	247.24530612244897	71	127
247.03632653061226	247.68648526077098	59	127
247.03632653061226	247.68648526077098	56	127
247.2685260770975	247.4542857142857	78	127
247.4542857142857	247.68648526077098	76	127
247.7097052154195	248.44113378684807	57	127
247.7097052154195	247.97673469387755	74	127
247.7097052154195	248.44113378684807	55	127
247.99995464852609	248.19732426303855	73	127
248.20893424036282	248.44113378684807	81	127
248.53401360544217	252.4814058956916	50	127
248.53401360544217	248.73138321995464	81	127
248.53401360544217	249.86916099773242	57	127
248.53401360544217	249.86916099773242	54	127
248.75460317460318	248.98680272108842	73	127
248.9984126984127	249.23061224489797	74	127
249.2422222222222	249.4395918367347	76	127
249.46281179138322	249.66018140589568	73	127
249.67179138321995	249.8807709750567	74	127
249.9039909297052	251.20430839002267	78	127
249.9039909297052	252.5162358276644	56	127
249.9039909297052	252.5162358276644	59	127
251.21591836734694	251.52938775510205	76	127
251.55260770975056	251.87768707482994	74	127
251.90090702947845	252.21437641723355	73	127
252.2375963718821	252.5510657596372	71	127
252.5742857142857	253.2360544217687	78	127
252.5742857142857	253.82816326530613	57	127
252.5742857142857	253.82816326530613	52	127
252.5742857142857	253.82816326530613	49	127
253.25927437641724	253.83977324263037	76	127
255.01238095238097	255.30263038548753	61	127
255.36068027210885	255.54643990929705	64	127
255.55804988662132	255.76702947845806	69	127
255.79024943310657	255.8831292517007	73	127
255.89473922902494	256.08049886621313	76	127
256.0921088435374	256.3126984126984	81	127
256.3475283446712	257.46208616780046	81	127
256.8583673469388	257.47369614512473	69	127
256.8583673469388	257.47369614512473	66	127
256.8583673469388	257.47369614512473	62	127
257.4968934240363	257.97292517006804	78	127
257.4968934240363	257.97292517006804	66	127
257.4968934240363	257.97292517006804	69	127
257.4968934240363	257.97292517006804	62	127
257.97292517006804	258.5766439909297	62	127
257.97292517006804	258.5766439909297	69	127
257.97292517006804	258.5766439909297	66	127
258.59986394557825	258.7972335600907	62	127
258.59986394557825	259.0178231292517	69	127
258.59986394557825	259.0178231292517	66	127
258.59986394557825	259.0178231292517	62	127
258.82045351473926	258.8901133786848	66	127
258.8901133786848	259.0178231292517	69	127
259.029410430839	259.5751020408163	66	127
259.029410430839	259.1107029478458	74	127
259.029410430839	259.5751020408163	69	127
259.029410430839	259.5751020408163	62	127
259.13390022675736	259.25002267573694	78	127
259.2616326530612	259.4009523809524	81	127
259.42417233560093	259.5751020408163	86	127
259.59832199546486	260.8986394557823	90	127
260.1207709750567	260.91024943310657	64	127
260.1207709750567	260.91024943310657	62	127
260.1207709750567	260.91024943310657	59	127
260.9450793650794	263.6385714285714	59	127
260.9450793650794	263.6385714285714	56	127
260.9450793650794	263.6385714285714	64	127
260.9450793650794	263.6385714285714	62	127
265.21755102040817	266.3088888888889	83	127
266.3437188208617	267.5627664399093	77	127
266.3437188208617	267.5627664399093	74	127
266.3437188208617	267.5627664399093	71	127
266.3437188208617	267.5627664399093	67	127
267.5975963718821	268.86308390022674	78	127
267.5975963718821	268.86308390022674	74	127
267.5975963718821	268.86308390022674	71	127
267.5975963718821	268.86308390022674	66	127
268.89791383219955	269.5132426303855	80	127
268.89791383219955	270.198231292517	74	127
268.89791383219955	270.198231292517	71	127
268.89791383219955	270.198231292517	65	127
269.53646258503403	269.61773242630386	81	127
269.62934240362813	269.7338321995465	80	127
269.74544217687077	269.83832199546487	78	127
269.8615419501134	270.20984126984126	80	127
270.2330612244898	271.4056462585034	81	127
270.2330612244898	271.4056462585034	73	127
270.2330612244898	271.4056462585034	69	127
270.2330612244898	271.4056462585034	66	127
272.8104761904762	276.51403628117913	69	127
272.8104761904762	273.39097505668934	50	127
272.8104761904762	273.64639455782316	78	127
272.8104761904762	273.9366439909297	62	127
273.39097505668934	273.948253968254	50	127
273.6812244897959	273.727664399093	81	127
273.73927437641726	273.8553514739229	80	127
273.8785941043084	273.948253968254	78	127
273.9714739229025	274.48231292517005	52	127
273.9714739229025	274.7725396825397	76	127
273.9714739229025	275.0860090702948	61	127
274.5055328798186	275.0860090702948	52	127
274.8073922902494	274.8654421768708	81	127
274.87702947845804	274.93510204081633	80	127
274.95832199546487	275.01637188208616	78	127
275.02798185941043	275.0860090702948	76	127
275.10925170068026	276.5721088435374	60	127
275.10925170068026	275.87551020408165	54	127
275.10925170068026	275.318231292517	75	127
275.34145124716554	275.5852607709751	78	127
275.60848072562356	275.87551020408165	80	127
275.9103401360544	276.5837188208617	54	127
275.9103401360544	276.11931972789114	81	127
276.1425396825397	276.33990929705215	78	127
276.3515192743764	276.5837188208617	75	127
276.60693877551023	280.658820861678	61	127
276.60693877551023	276.8971882086168	76	127
276.60693877551023	280.658820861678	57	127
276.60693877551023	280.658820861678	52	127
276.90879818594107	277.09455782312926	85	127
277.10616780045353	277.3615873015873	81	127
277.38480725623583	277.5473469387755	76	127
277.57056689342403	277.744693877551	88	127
277.7563265306122	277.97691609977323	85	127
278.0001360544218	278.23233560090705	81	127
278.2555328798186	278.45290249433106	88	127
278.4645124716553	278.69673469387754	86	127
278.7199546485261	278.91732426303855	85	127
278.9289342403628	279.1263038548753	83	127
279.13791383219956	279.3817006802721	81	127
279.4049433106576	279.60231292517005	80	127
279.6255328798186	279.82290249433106	78	127
279.83451247165533	280.0667120181406	76	127
280.08990929705215	280.3105215419501	74	127
280.32213151927436	280.49628117913835	73	127
280.5078684807256	280.72848072562357	71	127
280.7633106575964	285.04739229024943	59	127
280.7633106575964	282.1448752834467	69	127
280.7633106575964	285.04739229024943	40	127
280.7633106575964	285.04739229024943	62	127
282.17972789115646	282.36548752834466	68	127
282.3887074829932	282.58607709750567	71	127
282.59768707482993	282.7950566893424	69	127
282.81827664399094	283.0156462585034	73	127
283.0156462585034	283.18979591836734	71	127
283.2014058956916	283.4219954648526	74	127
283.44521541950115	283.6193650793651	73	127
283.6425850340136	283.85156462585036	76	127
283.8631746031746	284.1069841269841	73	127
284.1185941043084	284.36240362811793	74	127
284.3972335600907	284.67587301587304	71	127
284.6874829931973	285.1867120181406	68	127
285.2447619047619	288.2633560090703	71	127
285.2447619047619	288.2633560090703	62	127
285.2447619047619	288.2633560090703	56	127
285.2447619047619	288.2633560090703	45	127
288.3330158730159	289.5520634920635	69	127
288.3330158730159	289.5520634920635	57	127
288.3330158730159	289.5520634920635	61	127
