# onset,offset,note,velocity
0.2198185941043084	0.26625850340136054	61	127
0.26625850340136054	0.7770975056689342	62	127
0.7770975056689342	1.2182539682539681	54	127
0.7770975056689342	1.2182539682539681	50	127
0.7770975056689342	1.2182539682539681	57	127
0.7770975056689342	1.2182539682539681	66	127
1.2298866213151927	1.5433560090702947	69	127
1.5549659863945577	1.589795918367347	58	127
1.60140589569161	1.9729251700680273	59	127
1.9845351473922903	2.437301587301587	64	127
1.9845351473922903	2.437301587301587	59	127
1.9845351473922903	2.437301587301587	55	127
1.9845351473922903	2.437301587301587	50	127
2.460521541950113	2.820453514739229	67	127
2.832063492063492	3.0062131519274375	61	127
3.017823129251701	3.2035827664399092	62	127
3.2035827664399092	3.4706122448979593	64	127
3.2035827664399092	3.4706122448979593	61	127
3.2035827664399092	3.6563718820861677	55	127
3.2035827664399092	3.6563718820861677	50	127
3.4706122448979593	3.6563718820861677	66	127
3.4706122448979593	3.6563718820861677	62	127
3.6563718820861677	3.8421315192743766	67	127
3.6563718820861677	3.8421315192743766	64	127
3.6563718820861677	4.027891156462585	55	127
3.6563718820861677	4.027891156462585	50	127
3.8537414965986394	4.027891156462585	69	127
3.8537414965986394	4.027891156462585	66	127
4.039501133786848	4.411020408163266	55	127
4.039501133786848	4.23687074829932	71	127
4.039501133786848	4.23687074829932	67	127
4.039501133786848	4.411020408163266	50	127
4.248458049886621	4.422607709750567	64	127
4.248458049886621	4.422607709750567	73	127
4.422607709750567	4.817369614512471	74	127
4.422607709750567	4.817369614512471	66	127
4.422607709750567	4.817369614512471	54	127
4.422607709750567	4.817369614512471	50	127
4.817369614512471	5.235328798185941	74	127
5.246916099773243	5.409478458049887	73	127
5.246916099773243	5.409478458049887	67	127
5.246916099773243	5.409478458049887	64	127
5.421065759637188	5.560408163265306	74	127
5.421065759637188	5.560408163265306	66	127
5.421065759637188	5.560408163265306	62	127
5.572018140589569	6.709795918367347	45	127
5.572018140589569	5.757777777777778	76	127
5.572018140589569	5.757777777777778	64	127
5.572018140589569	5.757777777777778	61	127
5.757777777777778	5.955147392290249	62	127
5.757777777777778	5.955147392290249	59	127
5.757777777777778	5.955147392290249	78	127
5.955147392290249	6.129297052154195	61	127
5.955147392290249	6.129297052154195	57	127
5.955147392290249	6.129297052154195	79	127
6.129297052154195	6.326666666666667	59	127
6.129297052154195	6.326666666666667	55	127
6.129297052154195	6.326666666666667	81	127
6.3382766439909295	6.512426303854875	83	127
6.3382766439909295	6.512426303854875	57	127
6.3382766439909295	6.512426303854875	54	127
6.524036281179138	6.72140589569161	85	127
6.524036281179138	6.72140589569161	67	127
6.524036281179138	6.72140589569161	52	127
6.733015873015873	7.092925170068027	86	127
6.733015873015873	7.092925170068027	66	127
6.733015873015873	7.092925170068027	50	127
6.733015873015873	7.092925170068027	38	127
7.104535147392291	7.464444444444444	86	127
7.104535147392291	7.464444444444444	66	127
7.104535147392291	7.464444444444444	50	127
7.104535147392291	7.464444444444444	38	127
7.464444444444444	7.847573696145124	87	127
7.464444444444444	7.847573696145124	75	127
7.464444444444444	7.847573696145124	51	127
7.464444444444444	7.847573696145124	39	127
7.859183673469388	8.230702947845804	88	127
7.859183673469388	8.230702947845804	76	127
7.859183673469388	8.230702947845804	52	127
7.859183673469388	8.230702947845804	40	127
8.242312925170069	8.741519274376417	88	127
8.242312925170069	8.741519274376417	76	127
8.242312925170069	8.741519274376417	52	127
8.242312925170069	8.741519274376417	40	127
8.741519274376417	9.171111111111111	71	127
8.741519274376417	9.171111111111111	80	127
8.741519274376417	9.171111111111111	64	127
8.741519274376417	9.171111111111111	52	127
8.741519274376417	9.171111111111111	40	127
9.182721088435374	9.542630385487529	69	127
9.182721088435374	9.542630385487529	81	127
9.182721088435374	9.542630385487529	64	127
9.182721088435374	9.542630385487529	73	127
9.182721088435374	9.542630385487529	57	127
9.182721088435374	9.542630385487529	45	127
9.937369614512471	10.00702947845805	61	127
10.00702947845805	10.494648526077098	62	127
10.50625850340136	10.831337868480725	66	127
10.50625850340136	10.831337868480725	57	127
10.50625850340136	10.831337868480725	54	127
10.50625850340136	10.831337868480725	50	127
10.854557823129252	11.27251700680272	69	127
11.27251700680272	11.318956916099774	58	127
11.318956916099774	11.725283446712018	59	127
11.725283446712018	12.14326530612245	64	127
11.725283446712018	12.14326530612245	59	127
11.725283446712018	12.14326530612245	55	127
11.725283446712018	12.14326530612245	50	127
12.154875283446712	12.514784580498866	67	127
12.52639455782313	12.712154195011339	61	127
12.712154195011339	12.897913832199546	62	127
12.897913832199546	13.106893424036281	64	127
12.897913832199546	13.106893424036281	61	127
12.897913832199546	13.304263038548752	55	127
12.897913832199546	13.304263038548752	50	127
13.118503401360543	13.304263038548752	66	127
13.118503401360543	13.304263038548752	62	127
13.315873015873017	13.501632653061224	67	127
13.315873015873017	13.501632653061224	64	127
13.315873015873017	13.67578231292517	55	127
13.315873015873017	13.67578231292517	50	127
13.513242630385488	13.67578231292517	69	127
13.513242630385488	13.67578231292517	66	127
13.687392290249432	14.070521541950113	55	127
13.687392290249432	13.896371882086168	71	127
13.687392290249432	13.896371882086168	67	127
13.687392290249432	14.070521541950113	50	127
13.896371882086168	14.082131519274377	73	127
13.896371882086168	14.082131519274377	64	127
14.082131519274377	14.47687074829932	66	127
14.082131519274377	14.47687074829932	54	127
14.082131519274377	14.47687074829932	50	127
14.082131519274377	14.47687074829932	74	127
14.488480725623583	14.918049886621315	74	127
14.929659863945579	15.115419501133786	73	127
14.929659863945579	15.115419501133786	67	127
14.929659863945579	15.115419501133786	64	127
15.12702947845805	15.324399092970522	74	127
15.12702947845805	15.324399092970522	66	127
15.12702947845805	15.324399092970522	62	127
15.324399092970522	15.51015873015873	76	127
15.324399092970522	15.51015873015873	64	127
15.324399092970522	15.51015873015873	61	127
15.324399092970522	16.473786848072564	45	127
15.51015873015873	15.684308390022675	62	127
15.51015873015873	15.684308390022675	59	127
15.51015873015873	15.684308390022675	78	127
15.684308390022675	15.89328798185941	57	127
15.684308390022675	15.89328798185941	79	127
15.684308390022675	15.89328798185941	61	127
15.904897959183673	16.102267573696146	55	127
15.904897959183673	16.102267573696146	59	127
15.904897959183673	16.102267573696146	81	127
16.11387755102041	16.299637188208617	83	127
16.11387755102041	16.299637188208617	57	127
16.11387755102041	16.299637188208617	54	127
16.31124716553288	16.49700680272109	52	127
16.31124716553288	16.49700680272109	85	127
16.31124716553288	16.49700680272109	67	127
16.49700680272109	16.868526077097506	86	127
16.49700680272109	16.868526077097506	66	127
16.49700680272109	16.868526077097506	50	127
16.49700680272109	16.868526077097506	38	127
16.868526077097506	17.26326530612245	86	127
16.868526077097506	17.26326530612245	66	127
16.868526077097506	17.26326530612245	50	127
16.868526077097506	17.26326530612245	38	127
17.27487528344671	17.692834467120182	87	127
17.27487528344671	17.692834467120182	75	127
17.27487528344671	17.692834467120182	51	127
17.27487528344671	17.692834467120182	39	127
17.704444444444444	18.122403628117915	88	127
17.704444444444444	18.122403628117915	76	127
17.704444444444444	18.122403628117915	52	127
17.704444444444444	18.122403628117915	40	127
18.134013605442178	18.56358276643991	88	127
18.134013605442178	18.56358276643991	76	127
18.134013605442178	18.56358276643991	52	127
18.134013605442178	18.56358276643991	40	127
18.575192743764173	18.94671201814059	71	127
18.575192743764173	18.94671201814059	80	127
18.575192743764173	18.94671201814059	64	127
18.575192743764173	18.94671201814059	52	127
18.575192743764173	18.94671201814059	40	127
18.958321995464853	19.39950113378685	57	127
18.958321995464853	19.39950113378685	69	127
18.958321995464853	19.39950113378685	81	127
18.958321995464853	19.39950113378685	64	127
18.958321995464853	19.39950113378685	73	127
18.958321995464853	19.39950113378685	45	127
19.74780045351474	19.805850340136054	68	127
19.805850340136054	20.258639455782312	69	127
20.270226757369613	20.63015873015873	81	127
20.270226757369613	20.63015873015873	73	127
20.270226757369613	23.11469387755102	45	127
20.270226757369613	20.455986394557822	69	127
20.46761904761905	20.641768707482992	64	127
20.641768707482992	21.01328798185941	76	127
20.641768707482992	21.071337868480725	81	127
20.641768707482992	20.85074829931973	62	127
20.85074829931973	21.071337868480725	61	127
21.01328798185941	21.071337868480725	68	127
21.071337868480725	21.303537414965987	69	127
21.071337868480725	21.21065759637188	59	127
21.222244897959182	21.303537414965987	57	127
21.303537414965987	21.628616780045352	80	127
21.303537414965987	21.628616780045352	71	127
21.303537414965987	21.466077097505668	74	127
21.47766439909297	21.628616780045352	71	127
21.640226757369614	21.930476190476192	74	127
21.640226757369614	21.96530612244898	80	127
21.640226757369614	21.81437641723356	69	127
21.81437641723356	21.97691609977324	68	127
21.930476190476192	21.97691609977324	63	127
21.97691609977324	22.336825396825397	64	127
21.97691609977324	22.151065759637188	66	127
22.151065759637188	22.336825396825397	64	127
22.34843537414966	22.73156462585034	79	127
22.34843537414966	22.510975056689343	76	127
22.34843537414966	22.73156462585034	73	127
22.522585034013606	22.73156462585034	73	127
22.74315192743764	22.917324263038548	71	127
22.74315192743764	23.11469387755102	79	127
22.74315192743764	23.11469387755102	76	127
22.92891156462585	23.12628117913832	69	127
23.12628117913832	23.34689342403628	67	127
23.12628117913832	23.53265306122449	73	127
23.12628117913832	23.53265306122449	45	127
23.34689342403628	23.53265306122449	64	127
23.53265306122449	23.962222222222223	62	127
23.53265306122449	23.962222222222223	46	127
23.53265306122449	24.71687074829932	77	127
23.53265306122449	24.71687074829932	74	127
23.973832199546486	24.33374149659864	50	127
24.345351473922904	24.740090702947846	41	127
24.740090702947846	25.947528344671202	73	127
24.740090702947846	25.14643990929705	43	127
24.740090702947846	25.459909297052153	76	127
25.158049886621317	25.564399092970522	46	127
25.471519274376416	25.506349206349206	76	127
25.51795918367347	25.564399092970522	79	127
25.576009070294784	25.959138321995464	77	127
25.576009070294784	25.959138321995464	44	127
25.970748299319727	26.168117913832198	45	127
25.970748299319727	26.80666666666667	73	127
25.970748299319727	26.7021768707483	76	127
26.168117913832198	26.40031746031746	57	127
26.411927437641722	26.609297052154194	56	127
26.62090702947846	26.80666666666667	57	127
26.713786848072562	26.748616780045353	76	127
26.760226757369615	26.80666666666667	79	127
26.81827664399093	27.213015873015873	77	127
26.81827664399093	27.213015873015873	74	127
26.81827664399093	27.00403628117914	53	127
27.015646258503402	27.224625850340136	50	127
27.224625850340136	27.65419501133787	45	127
27.224625850340136	27.43360544217687	57	127
27.224625850340136	27.65419501133787	76	127
27.224625850340136	27.65419501133787	73	127
27.43360544217687	27.65419501133787	69	127
27.65419501133787	27.909614512471656	68	127
27.65419501133787	28.00249433106576	76	127
27.65419501133787	28.106984126984127	73	127
27.921224489795918	28.106984126984127	69	127
28.014104308390024	28.060544217687074	76	127
28.072154195011336	28.106984126984127	79	127
28.11859410430839	28.292743764172336	65	127
28.11859410430839	28.478503401360545	77	127
28.11859410430839	28.478503401360545	74	127
28.304353741496598	28.490113378684807	62	127
28.490113378684807	28.861632653061225	76	127
28.490113378684807	28.861632653061225	73	127
28.490113378684807	28.861632653061225	57	127
29.349251700680274	29.41891156462585	61	127
29.430521541950114	29.976190476190474	62	127
29.98780045351474	30.394149659863945	66	127
29.98780045351474	30.394149659863945	57	127
29.98780045351474	30.394149659863945	54	127
29.98780045351474	30.394149659863945	50	127
30.405759637188208	30.74244897959184	69	127
30.765668934240363	30.80049886621315	58	127
30.812108843537416	31.183628117913834	59	127
31.195238095238096	31.636417233560092	64	127
31.195238095238096	31.636417233560092	59	127
31.195238095238096	31.636417233560092	55	127
31.195238095238096	31.636417233560092	50	127
31.648027210884354	31.996326530612244	67	127
31.996326530612244	32.19369614512472	61	127
32.21691609977324	32.379455782312924	62	127
32.391065759637186	32.58843537414966	64	127
32.391065759637186	32.58843537414966	61	127
32.391065759637186	32.762585034013604	55	127
32.391065759637186	32.762585034013604	50	127
32.60004535147392	32.774195011337866	66	127
32.60004535147392	32.774195011337866	62	127
32.774195011337866	33.02961451247165	67	127
32.774195011337866	33.02961451247165	64	127
32.774195011337866	33.22698412698413	55	127
32.774195011337866	33.22698412698413	50	127
33.02961451247165	33.22698412698413	69	127
33.02961451247165	33.22698412698413	66	127
33.22698412698413	33.42433106575964	71	127
33.22698412698413	33.42433106575964	67	127
33.22698412698413	33.62172335600907	55	127
33.22698412698413	33.62172335600907	50	127
33.42433106575964	33.62172335600907	73	127
33.42433106575964	33.62172335600907	64	127
33.63333333333333	34.0512925170068	74	127
33.63333333333333	34.0512925170068	66	127
33.63333333333333	34.0512925170068	54	127
33.63333333333333	34.0512925170068	50	127
34.062879818594105	34.446009070294785	74	127
34.45764172335601	34.68981859410431	61	127
34.45764172335601	34.68981859410431	57	127
34.45764172335601	34.88721088435374	81	127
34.68981859410431	34.88721088435374	62	127
34.68981859410431	34.88721088435374	59	127
34.898820861678004	35.07294784580499	64	127
34.898820861678004	35.07294784580499	61	127
34.898820861678004	35.25873015873016	79	127
35.08458049886622	35.25873015873016	66	127
35.08458049886622	35.25873015873016	62	127
35.27034013605442	35.444489795918365	67	127
35.27034013605442	35.444489795918365	64	127
35.27034013605442	35.6534693877551	79	127
35.45607709750567	35.665079365079364	69	127
35.45607709750567	35.665079365079364	66	127
35.665079365079364	35.85083900226758	71	127
35.665079365079364	35.85083900226758	67	127
35.665079365079364	36.14108843537415	79	127
35.85083900226758	36.14108843537415	73	127
35.85083900226758	36.14108843537415	69	127
36.14108843537415	36.547437641723356	78	127
36.14108843537415	36.547437641723356	74	127
36.14108843537415	36.547437641723356	71	127
36.55904761904762	36.884126984126986	78	127
36.55904761904762	36.884126984126986	74	127
36.55904761904762	36.884126984126986	71	127
36.89573696145125	37.05827664399093	86	127
36.89573696145125	37.05827664399093	81	127
36.89573696145125	37.05827664399093	78	127
37.05827664399093	37.232403628117915	85	127
37.05827664399093	37.232403628117915	79	127
37.05827664399093	37.232403628117915	76	127
37.232403628117915	37.40657596371882	83	127
37.232403628117915	37.40657596371882	78	127
37.232403628117915	37.40657596371882	74	127
37.40657596371882	37.59233560090703	81	127
37.40657596371882	37.59233560090703	76	127
37.40657596371882	37.59233560090703	73	127
37.60394557823129	37.77809523809524	79	127
37.60394557823129	37.77809523809524	74	127
37.60394557823129	37.77809523809524	71	127
37.7897052154195	37.97546485260771	78	127
37.7897052154195	37.97546485260771	73	127
37.7897052154195	37.97546485260771	69	127
37.98705215419501	38.17283446712018	76	127
37.98705215419501	38.17283446712018	71	127
37.98705215419501	38.17283446712018	67	127
37.98705215419501	38.17283446712018	52	127
38.17283446712018	38.381791383219955	75	127
38.17283446712018	38.381791383219955	69	127
38.17283446712018	38.381791383219955	66	127
38.17283446712018	38.381791383219955	54	127
38.381791383219955	38.60240362811791	76	127
38.381791383219955	38.60240362811791	71	127
38.381791383219955	38.60240362811791	55	127
38.381791383219955	38.82299319727891	64	127
38.60240362811791	38.82299319727891	75	127
38.60240362811791	38.82299319727891	69	127
38.60240362811791	38.82299319727891	54	127
38.834603174603174	39.02036281179139	76	127
38.834603174603174	39.02036281179139	67	127
38.834603174603174	39.02036281179139	52	127
39.03197278911565	39.217732426303854	78	127
39.03197278911565	39.217732426303854	66	127
39.03197278911565	39.217732426303854	50	127
39.22934240362812	39.6124716553288	79	127
39.22934240362812	39.6124716553288	64	127
39.22934240362812	39.42671201814059	49	127
39.22934240362812	39.42671201814059	57	127
39.438321995464854	39.62408163265306	61	127
39.438321995464854	39.62408163265306	45	127
39.62408163265306	39.833061224489796	62	127
39.62408163265306	39.833061224489796	50	127
39.62408163265306	40.018798185941044	78	127
39.62408163265306	40.018798185941044	66	127
39.833061224489796	40.018798185941044	64	127
39.833061224489796	40.018798185941044	52	127
40.018798185941044	40.401927437641724	74	127
40.018798185941044	40.21619047619048	66	127
40.018798185941044	40.21619047619048	54	127
40.018798185941044	40.401927437641724	66	127
40.22780045351474	40.401927437641724	55	127
40.22780045351474	40.401927437641724	67	127
40.41356009070295	40.808299319727894	69	127
40.41356009070295	40.436780045351476	73	127
40.41356009070295	40.808299319727894	57	127
40.41356009070295	40.808299319727894	64	127
40.44839002267574	40.483219954648526	74	127
40.49482993197279	40.52963718820862	73	127
40.541269841269845	40.57609977324263	74	127
40.587709750566894	40.76185941043084	73	127
40.7734693877551	40.79668934240363	71	127
40.79668934240363	40.819909297052156	73	127
40.819909297052156	41.400408163265304	50	127
40.819909297052156	41.400408163265304	74	127
40.819909297052156	41.400408163265304	62	127
40.819909297052156	41.400408163265304	62	127
41.7487074829932	41.783537414965984	73	127
41.79512471655329	42.09700680272109	74	127
42.10861678004535	42.52657596371882	78	127
42.53818594104308	42.86326530612245	81	127
42.53818594104308	42.9097052154195	66	127
42.87487528344671	42.9097052154195	70	127
42.92131519274376	43.24639455782313	71	127
42.92131519274376	43.29283446712018	67	127
43.25800453514739	43.29283446712018	78	127
43.31603174603175	43.652743764172335	79	127
43.31603174603175	43.68757369614512	64	127
43.652743764172335	43.69916099773243	68	127
43.69916099773243	44.04748299319728	69	127
43.69916099773243	44.093922902494334	66	127
44.04748299319728	44.093922902494334	76	127
44.093922902494334	44.44222222222222	78	127
44.093922902494334	44.48866213151928	63	127
44.45383219954648	44.48866213151928	66	127
44.50027210884354	44.836938775510205	67	127
44.50027210884354	44.88340136054422	64	127
44.84854875283447	44.89501133786848	75	127
44.89501133786848	45.20848072562358	76	127
44.89501133786848	45.2665306122449	61	127
45.20848072562358	45.31297052154195	64	127
45.2665306122449	45.68448979591837	62	127
45.31297052154195	45.68448979591837	66	127
45.69609977324263	45.893469387755104	64	127
45.69609977324263	46.94997732426304	59	127
45.69609977324263	46.57845804988662	62	127
45.69609977324263	46.94997732426304	55	127
45.92829931972789	46.14888888888889	66	127
46.16049886621315	46.392698412698415	67	127
46.392698412698415	46.59006802721088	69	127
46.59006802721088	46.78743764172336	71	127
46.59006802721088	46.78743764172336	62	127
46.78743764172336	46.97319727891156	73	127
46.78743764172336	46.97319727891156	64	127
46.984807256235825	47.33310657596372	74	127
46.984807256235825	47.33310657596372	65	127
46.984807256235825	47.33310657596372	56	127
47.34471655328798	47.704625850340136	62	127
47.7162358276644	48.1225850340136	76	127
47.7162358276644	48.1225850340136	62	127
47.7162358276644	48.1225850340136	56	127
48.1225850340136	48.517324263038546	62	127
48.1225850340136	48.517324263038546	77	127
48.1225850340136	48.517324263038546	57	127
48.52893424036281	48.888843537414964	62	127
48.912063492063496	49.39968253968254	77	127
48.912063492063496	49.39968253968254	74	127
48.912063492063496	49.39968253968254	57	127
49.39968253968254	49.81764172335601	78	127
49.39968253968254	49.81764172335601	74	127
49.39968253968254	49.81764172335601	58	127
49.829251700680274	50.212380952380954	62	127
50.22399092970522	50.641950113378684	78	127
50.22399092970522	50.641950113378684	74	127
50.22399092970522	50.641950113378684	58	127
50.66517006802721	51.036689342403626	59	127
50.66517006802721	51.036689342403626	79	127
50.66517006802721	51.036689342403626	74	127
51.04829931972789	51.38498866213152	62	127
51.39659863945578	51.7681179138322	78	127
51.39659863945578	51.7681179138322	74	127
51.39659863945578	51.7681179138322	57	127
51.7681179138322	52.11641723356009	76	127
51.7681179138322	52.11641723356009	74	127
51.7681179138322	52.11641723356009	55	127
52.11641723356009	52.56920634920635	62	127
52.58081632653061	52.98716553287982	78	127
52.58081632653061	52.98716553287982	74	127
52.58081632653061	52.98716553287982	57	127
52.998775510204084	53.35868480725624	79	127
52.998775510204084	53.35868480725624	74	127
52.998775510204084	53.35868480725624	59	127
53.35868480725624	53.79986394557823	62	127
53.81147392290249	54.13655328798186	78	127
53.81147392290249	54.194603174603174	57	127
53.81147392290249	53.985623582766436	74	127
54.00884353741497	54.194603174603174	73	127
54.148163265306124	54.194603174603174	75	127
54.206213151927436	55.42526077097506	55	127
54.206213151927436	54.589342403628116	76	127
54.206213151927436	54.63578231292517	71	127
54.589342403628116	54.647392290249435	78	127
54.647392290249435	54.99569160997732	79	127
54.647392290249435	55.04213151927438	67	127
54.647392290249435	55.04213151927438	59	127
55.00730158730159	55.04213151927438	82	127
55.05374149659864	55.43687074829932	55	127
55.05374149659864	55.43687074829932	83	127
55.05374149659864	55.43687074829932	64	127
55.44848072562358	56.29600907029479	74	127
55.44848072562358	56.29600907029479	66	127
55.44848072562358	56.713968253968254	57	127
55.44848072562358	56.29600907029479	57	127
56.330839002267574	56.51659863945578	67	127
56.330839002267574	56.51659863945578	64	127
56.330839002267574	56.51659863945578	73	127
56.52820861678005	56.725578231292516	74	127
56.52820861678005	56.725578231292516	66	127
56.52820861678005	56.725578231292516	62	127
56.73718820861678	56.93455782312925	76	127
56.73718820861678	56.93455782312925	64	127
56.73718820861678	57.9562358276644	45	127
56.73718820861678	56.93455782312925	61	127
56.946167800453516	57.13192743764172	62	127
56.946167800453516	57.13192743764172	78	127
56.946167800453516	57.13192743764172	59	127
57.143537414965984	57.34090702947846	61	127
57.143537414965984	57.34090702947846	79	127
57.143537414965984	57.34090702947846	57	127
57.34090702947846	57.56149659863946	81	127
57.34090702947846	57.56149659863946	59	127
57.34090702947846	57.56149659863946	55	127
57.56149659863946	57.78208616780045	57	127
57.56149659863946	57.78208616780045	83	127
57.56149659863946	57.78208616780045	54	127
57.78208616780045	57.979455782312925	85	127
57.78208616780045	57.979455782312925	67	127
57.78208616780045	57.979455782312925	52	127
57.99106575963719	58.362585034013605	50	127
57.99106575963719	58.362585034013605	86	127
57.99106575963719	58.362585034013605	66	127
57.99106575963719	58.362585034013605	38	127
58.745714285714286	58.97791383219955	37	127
58.745714285714286	58.97791383219955	52	127
58.97791383219955	59.19850340136055	54	127
58.97791383219955	59.19850340136055	38	127
59.22172335600907	59.38426303854875	55	127
59.22172335600907	59.38426303854875	40	127
59.395873015873015	59.60485260770975	57	127
59.395873015873015	59.60485260770975	42	127
59.616462585034014	59.79061224489796	59	127
59.616462585034014	59.79061224489796	43	127
59.80222222222222	59.999591836734695	61	127
59.80222222222222	59.999591836734695	45	127
59.999591836734695	60.4059410430839	81	127
59.999591836734695	60.1853514739229	62	127
59.999591836734695	60.1853514739229	47	127
59.999591836734695	60.4059410430839	69	127
60.1853514739229	60.4059410430839	64	127
60.1853514739229	60.4059410430839	49	127
60.4059410430839	60.83551020408163	78	127
60.4059410430839	60.83551020408163	66	127
60.4059410430839	60.83551020408163	66	127
60.4059410430839	60.83551020408163	50	127
61.28829931972789	61.34634920634921	68	127
61.34634920634921	61.97328798185941	69	127
61.97328798185941	62.14743764172336	69	127
61.97328798185941	62.344807256235825	81	127
61.97328798185941	62.344807256235825	73	127
61.97328798185941	65.10798185941043	45	127
62.15904761904762	62.344807256235825	64	127
62.36802721088436	62.69310657596372	76	127
62.36802721088436	62.5421768707483	62	127
62.36802721088436	62.739546485260774	81	127
62.55378684807256	62.739546485260774	61	127
62.70471655328798	62.739546485260774	68	127
62.75115646258504	62.93691609977324	59	127
62.75115646258504	63.09945578231292	69	127
62.93691609977324	63.13428571428572	57	127
63.13428571428572	63.52902494331066	80	127
63.13428571428572	63.52902494331066	71	127
63.13428571428572	63.331655328798185	74	127
63.331655328798185	63.52902494331066	71	127
63.54063492063492	63.74961451247165	69	127
63.54063492063492	63.91215419501134	74	127
63.54063492063492	63.94698412698413	80	127
63.76122448979592	63.94698412698413	68	127
63.9237641723356	63.94698412698413	63	127
63.95859410430839	64.34172335600907	64	127
63.95859410430839	64.13274376417233	66	127
64.1443537414966	64.35333333333334	64	127
64.35333333333334	64.53909297052154	76	127
64.35333333333334	64.74807256235827	73	127
64.35333333333334	64.74807256235827	79	127
64.53909297052154	64.74807256235827	73	127
64.74807256235827	65.1195918367347	79	127
64.74807256235827	64.93383219954649	71	127
64.74807256235827	65.1195918367347	76	127
64.94541950113378	65.1195918367347	69	127
65.13120181405895	65.3053514739229	67	127
65.13120181405895	65.50272108843538	73	127
65.13120181405895	65.50272108843538	45	127
65.31696145124717	65.51433106575963	64	127
65.51433106575963	65.92068027210884	62	127
65.51433106575963	65.92068027210884	46	127
65.51433106575963	66.69854875283447	77	127
65.51433106575963	66.69854875283447	74	127
65.92068027210884	66.31541950113379	50	127
66.32700680272109	66.71013605442177	41	127
66.721768707483	67.162947845805	43	127
66.721768707483	67.47639455782313	76	127
66.721768707483	67.92920634920635	73	127
67.17455782312925	67.5692970521542	46	127
67.47639455782313	67.52285714285715	76	127
67.5344671201814	67.5692970521542	79	127
67.58090702947845	67.94081632653061	77	127
67.58090702947845	67.94081632653061	44	127
67.95242630385488	68.78834467120181	73	127
67.95242630385488	68.14979591836735	45	127
67.95242630385488	68.6374149659864	76	127
68.17301587301587	68.37036281179138	57	127
68.37036281179138	68.5445351473923	56	127
68.5445351473923	68.79995464852608	57	127
68.6374149659864	68.74190476190476	76	127
68.74190476190476	68.79995464852608	79	127
68.79995464852608	68.99732426303855	53	127
68.79995464852608	69.21791383219954	77	127
68.79995464852608	69.21791383219954	74	127
69.00891156462585	69.21791383219954	50	127
69.22952380952381	69.67070294784581	73	127
69.22952380952381	69.4501133786848	57	127
69.22952380952381	69.67070294784581	76	127
69.22952380952381	69.67070294784581	45	127
69.46172335600907	69.68231292517007	69	127
69.68231292517007	70.00736961451247	76	127
69.68231292517007	69.91451247165533	68	127
69.68231292517007	70.1118820861678	73	127
69.91451247165533	70.1118820861678	69	127
70.0190022675737	70.06544217687075	76	127
70.07705215419502	70.1118820861678	79	127
70.12349206349207	70.50662131519275	77	127
70.12349206349207	70.30925170068028	65	127
70.12349206349207	70.50662131519275	74	127
70.32086167800453	70.50662131519275	62	127
70.51820861678004	70.92458049886622	76	127
70.51820861678004	70.92458049886622	73	127
70.51820861678004	70.92458049886622	57	127
71.63278911564626	71.73727891156463	61	127
71.74888888888889	72.19006802721088	62	127
72.19006802721088	72.59641723356009	66	127
72.19006802721088	72.59641723356009	57	127
72.19006802721088	72.59641723356009	54	127
72.19006802721088	72.59641723356009	50	127
72.60802721088436	72.93310657596372	69	127
72.95632653061224	73.0027664399093	58	127
73.0027664399093	73.39750566893424	59	127
73.39750566893424	73.83866213151927	64	127
73.39750566893424	73.83866213151927	59	127
73.39750566893424	73.83866213151927	55	127
73.39750566893424	73.83866213151927	50	127
73.8502947845805	74.21020408163265	67	127
74.22181405895692	74.41918367346939	61	127
74.41918367346939	74.61655328798186	62	127
74.61655328798186	74.88358276643991	61	127
74.61655328798186	74.88358276643991	64	127
74.61655328798186	75.08095238095238	55	127
74.61655328798186	75.08095238095238	50	127
74.88358276643991	75.08095238095238	66	127
74.88358276643991	75.08095238095238	62	127
75.09253968253968	75.28993197278912	67	127
75.09253968253968	75.28993197278912	64	127
75.09253968253968	75.46408163265306	55	127
75.09253968253968	75.46408163265306	50	127
75.30154195011337	75.46408163265306	69	127
75.30154195011337	75.46408163265306	66	127
75.47566893424036	75.64984126984127	71	127
75.47566893424036	75.64984126984127	67	127
75.47566893424036	75.83560090702947	55	127
75.47566893424036	75.83560090702947	50	127
75.66145124716553	75.84721088435374	73	127
75.66145124716553	75.84721088435374	64	127
75.84721088435374	76.33482993197279	74	127
75.84721088435374	76.33482993197279	66	127
75.84721088435374	76.33482993197279	54	127
75.84721088435374	76.33482993197279	50	127
76.33482993197279	76.7527664399093	74	127
76.76439909297052	76.93854875283446	61	127
76.76439909297052	76.93854875283446	57	127
76.76439909297052	77.12430839002268	81	127
76.95015873015873	77.13589569160997	62	127
76.95015873015873	77.13589569160997	59	127
77.13589569160997	77.31006802721089	64	127
77.13589569160997	77.31006802721089	61	127
77.13589569160997	77.48421768707483	79	127
77.31006802721089	77.48421768707483	62	127
77.31006802721089	77.48421768707483	66	127
77.48421768707483	77.69319727891157	67	127
77.48421768707483	77.69319727891157	64	127
77.48421768707483	77.92539682539683	79	127
77.69319727891157	77.92539682539683	69	127
77.69319727891157	77.92539682539683	66	127
77.93700680272109	78.11115646258503	71	127
77.93700680272109	78.11115646258503	67	127
77.93700680272109	78.30852607709751	79	127
78.1227664399093	78.30852607709751	73	127
78.1227664399093	78.30852607709751	69	127
78.32013605442177	78.71487528344672	78	127
78.32013605442177	78.71487528344672	74	127
78.32013605442177	78.71487528344672	71	127
78.72648526077097	79.08639455782313	78	127
78.72648526077097	79.08639455782313	74	127
78.72648526077097	79.08639455782313	71	127
79.0980045351474	79.28374149659864	86	127
79.0980045351474	79.28374149659864	81	127
79.0980045351474	79.28374149659864	78	127
79.30698412698413	79.49274376417233	85	127
79.30698412698413	79.49274376417233	79	127
79.30698412698413	79.49274376417233	76	127
79.5043537414966	79.69011337868481	83	127
79.5043537414966	79.69011337868481	78	127
79.5043537414966	79.69011337868481	74	127
79.70172335600907	79.89907029478458	81	127
79.70172335600907	79.89907029478458	76	127
79.70172335600907	79.89907029478458	73	127
79.89907029478458	80.09646258503402	79	127
79.89907029478458	80.09646258503402	74	127
79.89907029478458	80.09646258503402	71	127
80.09646258503402	80.29383219954649	78	127
80.09646258503402	80.29383219954649	73	127
80.09646258503402	80.29383219954649	69	127
80.29383219954649	80.49120181405895	76	127
80.29383219954649	80.49120181405895	71	127
80.29383219954649	80.49120181405895	67	127
80.29383219954649	80.49120181405895	52	127
80.50281179138322	80.67696145124717	75	127
80.50281179138322	80.67696145124717	69	127
80.50281179138322	80.67696145124717	66	127
80.50281179138322	80.67696145124717	54	127
80.68854875283446	80.87433106575963	76	127
80.68854875283446	80.87433106575963	71	127
80.68854875283446	80.87433106575963	55	127
80.68854875283446	81.1065306122449	64	127
80.89755102040816	81.1065306122449	75	127
80.89755102040816	81.1065306122449	69	127
80.89755102040816	81.1065306122449	54	127
81.11814058956917	81.3271201814059	76	127
81.11814058956917	81.3271201814059	67	127
81.11814058956917	81.3271201814059	52	127
81.3271201814059	81.5128798185941	78	127
81.3271201814059	81.5128798185941	66	127
81.3271201814059	81.5128798185941	50	127
81.5128798185941	81.73346938775511	57	127
81.5128798185941	81.73346938775511	49	127
81.5128798185941	81.9192290249433	79	127
81.5128798185941	81.9192290249433	64	127
81.73346938775511	81.9192290249433	61	127
81.73346938775511	81.9192290249433	45	127
81.93083900226758	82.29074829931973	78	127
81.93083900226758	82.10498866213152	62	127
81.93083900226758	82.10498866213152	50	127
81.93083900226758	82.29074829931973	66	127
82.11659863945579	82.29074829931973	52	127
82.11659863945579	82.29074829931973	64	127
82.30235827664399	82.49972789115647	66	127
82.30235827664399	82.49972789115647	54	127
82.30235827664399	82.68548752834467	74	127
82.30235827664399	82.68548752834467	66	127
82.49972789115647	82.70868480725623	67	127
82.49972789115647	82.70868480725623	55	127
82.70868480725623	83.13827664399093	69	127
82.70868480725623	82.75514739229025	73	127
82.70868480725623	83.13827664399093	64	127
82.70868480725623	83.13827664399093	57	127
82.75514739229025	82.8015873015873	74	127
82.8015873015873	82.8944671201814	73	127
82.8944671201814	82.9408843537415	74	127
82.9408843537415	83.09181405895691	73	127
83.09181405895691	83.11505668934241	71	127
83.11505668934241	83.13827664399093	73	127
83.16149659863946	83.62589569160998	74	127
83.16149659863946	83.62589569160998	62	127
83.16149659863946	83.62589569160998	62	127
83.16149659863946	83.62589569160998	50	127
84.06707482993197	84.11349206349206	73	127
84.11349206349206	84.53147392290249	74	127
84.53147392290249	84.89138321995465	78	127
84.90299319727892	85.21646258503401	81	127
84.90299319727892	85.26290249433107	66	127
85.22807256235828	85.26290249433107	70	127
85.27451247165533	85.65764172335601	71	127
85.27451247165533	85.70408163265306	67	127
85.65764172335601	85.70408163265306	78	127
85.70408163265306	86.02916099773243	79	127
85.70408163265306	86.07560090702948	64	127
86.04077097505669	86.07560090702948	68	127
86.08721088435374	86.42390022675737	69	127
86.08721088435374	86.47034013605442	66	127
86.43551020408164	86.47034013605442	76	127
86.48195011337869	86.80702947845805	78	127
86.48195011337869	86.84185941043084	63	127
86.80702947845805	86.8534693877551	66	127
86.8534693877551	87.201768707483	67	127
86.8534693877551	87.24820861678005	64	127
87.201768707483	87.24820861678005	75	127
87.25979591836735	87.57328798185941	76	127
87.25979591836735	87.66614512471655	61	127
87.61972789115646	87.71260770975057	64	127
87.67777777777778	88.1073469387755	62	127
87.72421768707483	88.11895691609978	66	127
88.11895691609978	88.31632653061224	64	127
88.11895691609978	88.90843537414966	62	127
88.11895691609978	89.36122448979592	59	127
88.11895691609978	89.36122448979592	55	127
88.31632653061224	88.50208616780046	66	127
88.50208616780046	88.7110657596372	67	127
88.73428571428572	88.93165532879819	69	127
88.94326530612246	89.16385487528345	71	127
88.94326530612246	89.16385487528345	62	127
89.18707482993197	89.37283446712019	73	127
89.18707482993197	89.37283446712019	64	127
89.38444444444444	89.75596371882087	56	127
89.38444444444444	89.75596371882087	65	127
89.38444444444444	89.75596371882087	74	127
89.75596371882087	90.12748299319728	62	127
90.13909297052155	90.51061224489796	62	127
90.13909297052155	90.51061224489796	56	127
90.13909297052155	90.51061224489796	76	127
90.52222222222223	90.91696145124716	77	127
90.52222222222223	90.91696145124716	62	127
90.52222222222223	90.91696145124716	57	127
90.92857142857143	91.40458049886621	62	127
91.41619047619048	91.83412698412698	77	127
91.41619047619048	91.83412698412698	74	127
91.41619047619048	91.83412698412698	57	127
91.84575963718821	92.22888888888889	78	127
91.84575963718821	92.22888888888889	74	127
91.84575963718821	92.22888888888889	58	127
92.24049886621316	92.73972789115646	62	127
92.73972789115646	93.15768707482994	78	127
92.73972789115646	93.15768707482994	74	127
92.73972789115646	93.15768707482994	58	127
93.16929705215419	93.55242630385487	79	127
93.16929705215419	93.55242630385487	74	127
93.16929705215419	93.55242630385487	59	127
93.56403628117914	93.98197278911564	62	127
93.98197278911564	94.35351473922903	78	127
93.98197278911564	94.35351473922903	74	127
93.98197278911564	94.35351473922903	57	127
94.36510204081632	94.79469387755103	76	127
94.36510204081632	94.79469387755103	74	127
94.36510204081632	94.79469387755103	55	127
94.80630385487528	95.18943310657596	62	127
95.20104308390023	95.61900226757369	57	127
95.20104308390023	95.61900226757369	78	127
95.20104308390023	95.61900226757369	74	127
95.63061224489796	95.99052154195012	79	127
95.63061224489796	95.99052154195012	74	127
95.63061224489796	95.99052154195012	59	127
96.00213151927437	96.40848072562358	62	127
96.42009070294785	96.67551020408163	74	127
96.42009070294785	96.82643990929705	78	127
96.42009070294785	96.8728798185941	57	127
96.67551020408163	96.8728798185941	73	127
96.82643990929705	96.8728798185941	75	127
96.8728798185941	97.23278911564626	76	127
96.8728798185941	97.2792290249433	71	127
96.8728798185941	98.11514739229025	55	127
97.24439909297053	97.2792290249433	78	127
97.29083900226757	97.68557823129251	79	127
97.29083900226757	97.73201814058957	67	127
97.29083900226757	97.73201814058957	59	127
97.69718820861678	97.73201814058957	82	127
97.74362811791383	98.13836734693878	55	127
97.74362811791383	98.13836734693878	64	127
97.74362811791383	98.13836734693878	83	127
98.13836734693878	99.04394557823129	57	127
98.13836734693878	99.04394557823129	74	127
98.13836734693878	99.43868480725624	57	127
98.13836734693878	99.04394557823129	66	127
99.05555555555556	99.27614512471655	73	127
99.05555555555556	99.27614512471655	67	127
99.05555555555556	99.27614512471655	64	127
99.27614512471655	99.47351473922903	74	127
99.27614512471655	99.47351473922903	66	127
99.27614512471655	99.47351473922903	62	127
99.47351473922903	99.65927437641723	76	127
99.47351473922903	99.65927437641723	64	127
99.47351473922903	99.65927437641723	61	127
99.47351473922903	100.56485260770975	45	127
99.65927437641723	99.84503401360544	62	127
99.65927437641723	99.84503401360544	59	127
99.65927437641723	99.84503401360544	78	127
99.85664399092971	100.00757369614513	57	127
99.85664399092971	100.00757369614513	61	127
99.85664399092971	100.00757369614513	79	127
100.01918367346939	100.19333333333333	55	127
100.01918367346939	100.19333333333333	81	127
100.01918367346939	100.19333333333333	59	127
100.2049433106576	100.37909297052154	57	127
100.2049433106576	100.37909297052154	83	127
100.2049433106576	100.37909297052154	54	127
100.39070294784581	100.58807256235828	52	127
100.39070294784581	100.58807256235828	85	127
100.39070294784581	100.58807256235828	67	127
100.58807256235828	101.00603174603175	86	127
100.58807256235828	101.00603174603175	66	127
100.58807256235828	101.00603174603175	50	127
100.58807256235828	101.00603174603175	38	127
101.44721088435374	101.63297052154195	52	127
101.44721088435374	101.63297052154195	37	127
101.64458049886622	101.87678004535148	54	127
101.64458049886622	101.87678004535148	38	127
101.88839002267574	102.09736961451247	55	127
101.88839002267574	102.09736961451247	40	127
102.09736961451247	102.28312925170069	57	127
102.09736961451247	102.28312925170069	42	127
102.28312925170069	102.49210884353741	59	127
102.28312925170069	102.49210884353741	43	127
102.49210884353741	102.7475283446712	45	127
102.49210884353741	102.7475283446712	61	127
102.75913832199547	102.94489795918368	62	127
102.75913832199547	102.94489795918368	47	127
102.75913832199547	103.14226757369615	81	127
102.75913832199547	103.14226757369615	69	127
102.95650793650793	103.14226757369615	64	127
102.95650793650793	103.14226757369615	49	127
103.15387755102041	103.5950566893424	78	127
103.15387755102041	103.5950566893424	66	127
103.15387755102041	103.5950566893424	66	127
103.15387755102041	103.5950566893424	50	127
104.28004535147392	104.4774149659864	61	127
104.50063492063492	104.68639455782314	62	127
104.69800453514739	104.8837641723356	64	127
104.89537414965986	105.1043537414966	65	127
105.1043537414966	105.26689342403628	67	127
105.26689342403628	105.44104308390023	69	127
105.44104308390023	105.61519274376417	70	127
105.44104308390023	105.81256235827665	62	127
105.61519274376417	105.81256235827665	68	127
105.8241723356009	106.02154195011337	69	127
105.8241723356009	106.57882086167801	61	127
106.03315192743764	106.19569160997733	68	127
106.20730158730159	106.38145124716553	69	127
106.38145124716553	106.59043083900227	64	127
106.59043083900227	106.78780045351473	69	127
106.59043083900227	106.98517006802722	60	127
106.78780045351473	106.98517006802722	66	127
106.99678004535147	107.18253968253968	67	127
106.99678004535147	107.78625850340136	59	127
107.19414965986394	107.37990929705215	66	127
107.39151927437642	107.5540589569161	67	127
107.56566893424036	107.79786848072563	62	127
107.79786848072563	107.98362811791384	67	127
107.79786848072563	108.19260770975056	58	127
107.98362811791384	108.19260770975056	64	127
108.19260770975056	108.99369614512472	57	127
108.19260770975056	108.37836734693877	65	127
108.38997732426304	108.6221768707483	64	127
108.63378684807256	108.83115646258503	65	127
108.8427664399093	109.00530612244899	60	127
109.00530612244899	109.22589569160998	58	127
109.00530612244899	109.22589569160998	62	127
109.00530612244899	109.41165532879819	55	127
109.22589569160998	109.41165532879819	64	127
109.22589569160998	109.41165532879819	60	127
109.41165532879819	109.59741496598639	65	127
109.41165532879819	109.7831746031746	57	127
109.41165532879819	109.7831746031746	53	127
109.59741496598639	109.7831746031746	69	127
109.79478458049887	109.98054421768707	70	127
110.00376417233561	110.17791383219955	72	127
110.1895238095238	110.37528344671202	74	127
110.1895238095238	110.56104308390023	65	127
110.37528344671202	110.57265306122449	71	127
110.57265306122449	110.7584126984127	72	127
110.57265306122449	111.2924716553288	64	127
110.7584126984127	110.93256235827664	71	127
110.94417233560091	111.11832199546485	72	127
111.12993197278911	111.2924716553288	67	127
111.30408163265307	111.698820861678	70	127
111.30408163265307	111.47823129251701	76	127
111.48984126984126	111.71043083900227	72	127
111.71043083900227	111.90780045351474	77	127
111.71043083900227	112.47668934240363	69	127
111.90780045351474	112.11678004535148	76	127
112.11678004535148	112.27931972789116	77	127
112.29092970521542	112.47668934240363	72	127
112.48829931972789	112.66244897959184	52	127
112.48829931972789	112.66244897959184	82	127
112.48829931972789	112.84820861678004	72	127
112.6740589569161	112.85981859410431	79	127
112.6740589569161	112.85981859410431	60	127
112.85981859410431	113.04557823129252	81	127
112.85981859410431	113.04557823129252	53	127
112.85981859410431	113.25455782312925	72	127
113.04557823129252	113.25455782312925	80	127
113.04557823129252	113.25455782312925	52	127
113.25455782312925	113.45192743764173	81	127
113.25455782312925	113.45192743764173	53	127
113.25455782312925	113.6492970521542	72	127
113.45192743764173	113.6492970521542	77	127
113.45192743764173	113.6492970521542	60	127
113.66090702947845	113.85827664399093	82	127
113.66090702947845	113.85827664399093	70	127
113.66090702947845	113.85827664399093	52	127
113.66090702947845	114.0556462585034	72	127
113.86988662131519	114.0556462585034	79	127
113.86988662131519	114.0556462585034	67	127
113.86988662131519	114.0556462585034	60	127
114.06725623582767	114.25301587301587	69	127
114.06725623582767	114.25301587301587	81	127
114.06725623582767	114.25301587301587	53	127
114.06725623582767	114.42716553287981	72	127
114.25301587301587	114.43877551020408	52	127
114.25301587301587	114.43877551020408	80	127
114.25301587301587	114.43877551020408	68	127
114.43877551020408	114.6245351473923	69	127
114.43877551020408	114.6245351473923	53	127
114.43877551020408	114.78707482993197	72	127
114.43877551020408	114.6245351473923	81	127
114.6245351473923	114.78707482993197	77	127
114.6245351473923	114.78707482993197	65	127
114.6245351473923	114.78707482993197	60	127
114.79868480725624	114.96122448979592	82	127
114.79868480725624	114.96122448979592	70	127
114.79868480725624	114.96122448979592	52	127
114.79868480725624	115.14698412698412	72	127
114.97283446712018	115.14698412698412	79	127
114.97283446712018	115.14698412698412	67	127
114.97283446712018	115.14698412698412	60	127
115.15859410430839	115.33274376417233	81	127
115.15859410430839	115.33274376417233	69	127
115.15859410430839	115.33274376417233	53	127
115.15859410430839	115.51850340136055	72	127
115.3443537414966	115.5301133786848	77	127
115.3443537414966	115.5301133786848	65	127
115.3443537414966	115.5301133786848	57	127
115.5301133786848	116.31959183673469	69	127
115.5301133786848	115.72748299319728	79	127
115.5301133786848	115.72748299319728	67	127
115.5301133786848	115.72748299319728	49	127
115.72748299319728	115.92485260770975	64	127
115.72748299319728	115.92485260770975	76	127
115.72748299319728	115.92485260770975	57	127
115.92485260770975	116.13383219954649	77	127
115.92485260770975	116.13383219954649	65	127
115.92485260770975	116.13383219954649	50	127
116.14544217687074	116.33120181405896	74	127
116.14544217687074	116.33120181405896	53	127
116.14544217687074	116.33120181405896	62	127
116.34281179138323	116.51696145124717	75	127
116.34281179138323	116.51696145124717	63	127
116.34281179138323	116.51696145124717	45	127
116.34281179138323	117.41092970521542	65	127
116.52857142857142	116.70272108843537	60	127
116.52857142857142	116.70272108843537	53	127
116.52857142857142	116.70272108843537	72	127
116.70272108843537	116.87687074829932	74	127
116.70272108843537	116.87687074829932	62	127
116.70272108843537	116.87687074829932	46	127
116.87687074829932	117.08585034013605	58	127
116.87687074829932	117.08585034013605	70	127
116.87687074829932	117.08585034013605	53	127
117.08585034013605	117.26	48	127
117.08585034013605	117.26	72	127
117.08585034013605	117.26	60	127
117.26	117.43414965986395	51	127
117.26	117.43414965986395	69	127
117.26	117.43414965986395	57	127
117.4457596371882	117.70117913832199	70	127
117.4457596371882	117.921768707483	58	127
117.4457596371882	117.921768707483	50	127
117.4457596371882	118.1075283446712	65	127
117.71278911564626	117.921768707483	69	127
117.93337868480725	118.11913832199546	70	127
118.11913832199546	118.29328798185941	70	127
118.11913832199546	118.29328798185941	74	127
118.29328798185941	118.67641723356009	46	127
118.29328798185941	118.47904761904762	72	127
118.29328798185941	118.47904761904762	69	127
118.47904761904762	118.67641723356009	67	127
118.47904761904762	118.67641723356009	70	127
118.68802721088436	118.8621768707483	65	127
118.68802721088436	119.03632653061224	60	127
118.68802721088436	119.43106575963719	48	127
118.68802721088436	118.8621768707483	69	127
118.87378684807257	119.03632653061224	67	127
118.87378684807257	119.03632653061224	70	127
119.04793650793651	119.43106575963719	60	127
119.04793650793651	119.21047619047619	72	127
119.04793650793651	119.21047619047619	69	127
119.22208616780046	119.44267573696145	69	127
119.22208616780046	119.44267573696145	65	127
119.44267573696145	119.62843537414966	70	127
119.44267573696145	119.62843537414966	67	127
119.44267573696145	119.81419501133787	60	127
119.44267573696145	119.81419501133787	48	127
119.62843537414966	119.81419501133787	67	127
119.62843537414966	119.81419501133787	64	127
119.81419501133787	120.22054421768708	65	127
119.81419501133787	120.22054421768708	57	127
119.81419501133787	120.22054421768708	41	127
120.23215419501133	120.67333333333333	53	127
120.6849433106576	120.8707029478458	61	127
120.89392290249432	121.07968253968254	62	127
121.10290249433106	121.277052154195	64	127
121.28866213151927	121.47442176870749	65	127
121.49764172335601	121.69501133786848	67	127
121.69501133786848	121.89238095238095	69	127
121.89238095238095	122.29873015873015	62	127
121.89238095238095	122.12458049886621	70	127
122.12458049886621	122.29873015873015	68	127
122.31034013605442	122.44965986394558	69	127
122.31034013605442	123.0069387755102	61	127
122.46126984126984	122.64702947845805	68	127
122.6586394557823	122.83278911564626	69	127
122.84439909297052	123.01854875283446	64	127
123.01854875283446	123.19269841269842	69	127
123.01854875283446	123.39006802721089	60	127
123.19269841269842	123.39006802721089	66	127
123.39006802721089	123.5758276643991	67	127
123.39006802721089	124.15632653061225	59	127
123.58743764172335	123.7615873015873	66	127
123.77319727891157	123.94734693877551	67	127
123.95895691609978	124.1679365079365	62	127
124.1679365079365	124.55106575963718	58	127
124.1679365079365	124.35369614512472	67	127
124.35369614512472	124.55106575963718	64	127
124.55106575963718	124.74843537414966	65	127
124.55106575963718	125.32893424036281	57	127
124.76004535147392	124.94580498866213	64	127
124.95741496598639	125.11995464852608	65	127
125.1431746031746	125.32893424036281	60	127
125.34054421768707	125.53791383219955	62	127
125.34054421768707	125.53791383219955	58	127
125.34054421768707	125.72367346938775	55	127
125.53791383219955	125.73528344671202	60	127
125.53791383219955	125.73528344671202	64	127
125.73528344671202	126.13002267573697	53	127
125.73528344671202	126.13002267573697	57	127
125.73528344671202	125.94426303854875	65	127
125.94426303854875	126.13002267573697	69	127
126.14163265306122	126.31578231292517	70	127
126.32739229024943	126.50154195011338	72	127
126.51315192743765	126.67569160997732	74	127
126.51315192743765	126.83823129251701	65	127
126.68730158730159	126.84984126984126	71	127
126.84984126984126	127.02399092970522	72	127
126.84984126984126	127.5928798185941	64	127
127.02399092970522	127.20975056689342	71	127
127.20975056689342	127.39551020408163	72	127
127.4071201814059	127.60448979591837	67	127
127.61609977324262	127.9992290249433	70	127
127.61609977324262	127.80185941043084	76	127
127.8134693877551	128.01083900226757	72	127
128.01083900226757	128.82353741496598	69	127
128.01083900226757	128.2198185941043	77	127
128.2198185941043	128.4055782312925	76	127
128.4055782312925	128.61455782312925	77	127
128.62616780045352	128.83514739229025	72	127
128.8815873015873	129.05573696145126	52	127
128.8815873015873	129.05573696145126	82	127
128.8815873015873	129.25310657596373	72	127
129.0673469387755	129.25310657596373	79	127
129.0673469387755	129.25310657596373	60	127
129.26469387755103	129.64784580498866	72	127
129.26469387755103	129.4504761904762	81	127
129.26469387755103	129.4504761904762	53	127
129.4504761904762	129.6710657596372	80	127
129.4504761904762	129.6710657596372	52	127
129.6710657596372	129.89165532879818	81	127
129.6710657596372	129.89165532879818	53	127
129.6710657596372	130.0774149659864	72	127
129.89165532879818	130.0774149659864	77	127
129.89165532879818	130.0774149659864	60	127
130.08902494331065	130.25156462585034	82	127
130.08902494331065	130.25156462585034	70	127
130.08902494331065	130.25156462585034	52	127
130.08902494331065	130.43732426303856	72	127
130.2631746031746	130.43732426303856	79	127
130.2631746031746	130.43732426303856	67	127
130.2631746031746	130.43732426303856	60	127
130.4489342403628	130.59986394557822	81	127
130.4489342403628	130.59986394557822	69	127
130.4489342403628	130.59986394557822	53	127
130.4489342403628	130.77401360544218	72	127
130.6114739229025	130.78562358276645	80	127
130.6114739229025	130.78562358276645	68	127
130.6114739229025	130.78562358276645	52	127
130.78562358276645	130.97138321995465	81	127
130.78562358276645	130.97138321995465	69	127
130.78562358276645	130.97138321995465	53	127
130.78562358276645	131.1687528344671	72	127
130.97138321995465	131.1687528344671	77	127
130.97138321995465	131.1687528344671	65	127
130.97138321995465	131.1687528344671	60	127
131.1687528344671	131.52866213151927	72	127
131.1687528344671	131.34290249433107	82	127
131.1687528344671	131.34290249433107	70	127
131.1687528344671	131.34290249433107	52	127
131.35451247165534	131.52866213151927	79	127
131.35451247165534	131.52866213151927	60	127
131.35451247165534	131.52866213151927	67	127
131.54027210884354	131.7144217687075	69	127
131.54027210884354	131.7144217687075	53	127
131.54027210884354	131.88857142857142	72	127
131.54027210884354	131.7144217687075	81	127
131.72603174603174	131.9001814058957	65	127
131.72603174603174	131.9001814058957	57	127
131.72603174603174	131.9001814058957	77	127
131.9001814058957	132.09755102040816	49	127
131.9001814058957	132.09755102040816	79	127
131.9001814058957	132.09755102040816	67	127
131.9001814058957	132.64319727891157	69	127
132.09755102040816	132.29492063492063	64	127
132.09755102040816	132.29492063492063	57	127
132.09755102040816	132.29492063492063	76	127
132.29492063492063	132.4690702947846	77	127
132.29492063492063	132.4690702947846	65	127
132.29492063492063	132.4690702947846	50	127
132.48068027210886	132.65482993197278	53	127
132.48068027210886	132.65482993197278	62	127
132.48068027210886	132.65482993197278	74	127
132.66643990929705	132.8754195011338	45	127
132.66643990929705	133.83904761904762	65	127
132.66643990929705	132.8754195011338	75	127
132.66643990929705	132.8754195011338	63	127
132.88702947845806	133.07278911564626	60	127
132.88702947845806	133.07278911564626	53	127
132.88702947845806	133.07278911564626	72	127
133.08439909297053	133.29337868480727	62	127
133.08439909297053	133.29337868480727	74	127
133.08439909297053	133.29337868480727	46	127
133.29337868480727	133.49074829931973	53	127
133.29337868480727	133.49074829931973	58	127
133.29337868480727	133.49074829931973	70	127
133.49074829931973	133.67650793650793	72	127
133.49074829931973	133.67650793650793	60	127
133.49074829931973	133.67650793650793	48	127
133.67650793650793	133.86226757369616	57	127
133.67650793650793	133.86226757369616	69	127
133.67650793650793	133.86226757369616	51	127
133.8738775510204	134.04802721088436	70	127
133.8738775510204	134.2570068027211	58	127
133.8738775510204	134.2570068027211	50	127
133.8738775510204	134.45437641723356	65	127
134.05963718820863	134.2570068027211	69	127
134.26861678004536	134.45437641723356	70	127
134.46598639455783	134.65174603174603	70	127
134.46598639455783	134.65174603174603	74	127
134.65174603174603	134.83748299319728	72	127
134.65174603174603	134.83748299319728	69	127
134.65174603174603	135.03487528344672	46	127
134.83748299319728	135.03487528344672	67	127
134.83748299319728	135.03487528344672	70	127
135.03487528344672	135.2322448979592	69	127
135.03487528344672	135.2322448979592	65	127
135.03487528344672	135.40639455782312	60	127
135.03487528344672	135.76630385487528	48	127
135.24385487528346	135.40639455782312	70	127
135.24385487528346	135.40639455782312	67	127
135.4180045351474	135.58054421768708	72	127
135.4180045351474	135.58054421768708	69	127
135.4180045351474	135.76630385487528	60	127
135.59215419501135	135.77791383219954	65	127
135.59215419501135	135.77791383219954	69	127
135.77791383219954	136.03333333333333	70	127
135.77791383219954	136.03333333333333	67	127
135.77791383219954	136.24231292517007	60	127
135.77791383219954	136.24231292517007	48	127
136.03333333333333	136.24231292517007	67	127
136.03333333333333	136.24231292517007	64	127
136.24231292517007	136.60222222222222	65	127
136.24231292517007	136.60222222222222	57	127
136.24231292517007	136.60222222222222	41	127
136.6138321995465	137.10145124716553	53	127
137.12467120181407	137.3452380952381	79	127
137.12467120181407	137.3452380952381	82	127
137.12467120181407	137.3452380952381	61	127
137.3452380952381	137.53102040816327	81	127
137.3452380952381	137.53102040816327	77	127
137.3452380952381	137.53102040816327	62	127
137.53102040816327	137.71678004535147	79	127
137.53102040816327	137.71678004535147	76	127
137.53102040816327	137.71678004535147	64	127
137.71678004535147	137.9025396825397	77	127
137.71678004535147	137.9025396825397	74	127
137.71678004535147	137.9025396825397	65	127
137.91414965986394	138.0882993197279	76	127
137.91414965986394	138.0882993197279	73	127
137.91414965986394	138.0882993197279	67	127
138.09990929705216	138.28566893424036	74	127
138.09990929705216	138.28566893424036	77	127
138.09990929705216	138.28566893424036	69	127
138.29727891156463	138.47142857142856	79	127
138.29727891156463	138.47142857142856	76	127
138.29727891156463	138.47142857142856	70	127
138.48303854875283	138.64557823129252	77	127
138.48303854875283	138.64557823129252	74	127
138.48303854875283	138.64557823129252	68	127
138.64557823129252	138.78489795918367	69	127
138.64557823129252	138.9706575963719	76	127
138.64557823129252	138.9706575963719	73	127
138.78489795918367	138.9706575963719	68	127
138.9706575963719	139.1564172335601	69	127
139.16802721088436	139.4002267573696	57	127
139.41183673469388	139.59759637188208	82	127
139.41183673469388	139.59759637188208	79	127
139.41183673469388	139.59759637188208	61	127
139.60920634920635	139.8065759637188	81	127
139.60920634920635	139.8065759637188	77	127
139.60920634920635	139.8065759637188	62	127
139.8065759637188	139.99233560090704	79	127
139.8065759637188	139.99233560090704	76	127
139.8065759637188	139.99233560090704	64	127
139.99233560090704	140.20131519274378	77	127
139.99233560090704	140.20131519274378	74	127
139.99233560090704	140.20131519274378	65	127
140.20131519274378	140.38707482993198	76	127
140.20131519274378	140.38707482993198	73	127
140.20131519274378	140.38707482993198	67	127
140.39868480725625	140.57283446712017	69	127
140.39868480725625	140.57283446712017	77	127
140.39868480725625	140.57283446712017	74	127
140.58444444444444	140.7701814058957	79	127
140.58444444444444	140.7701814058957	70	127
140.58444444444444	140.7701814058957	76	127
140.7818140589569	140.95596371882087	77	127
140.7818140589569	140.95596371882087	74	127
140.7818140589569	140.95596371882087	68	127
140.96757369614514	141.15333333333334	69	127
140.96757369614514	141.32746031746032	76	127
140.96757369614514	141.32746031746032	73	127
141.15333333333334	141.33909297052153	68	127
141.33909297052153	141.52485260770976	61	127
141.33909297052153	141.52485260770976	69	127
141.33909297052153	142.1053514739229	81	127
141.52485260770976	141.71061224489796	62	127
141.52485260770976	141.71061224489796	57	127
141.72222222222223	141.90798185941043	64	127
141.72222222222223	141.90798185941043	49	127
141.9195918367347	142.1053514739229	65	127
141.9195918367347	142.1053514739229	50	127
142.11696145124716	142.27950113378685	79	127
142.11696145124716	142.27950113378685	52	127
142.11696145124716	142.45362811791384	67	127
142.29111111111112	142.46526077097505	77	127
142.29111111111112	142.46526077097505	53	127
142.46526077097505	142.66260770975057	76	127
142.46526077097505	142.66260770975057	55	127
142.66260770975057	142.84839002267574	74	127
142.66260770975057	142.84839002267574	57	127
142.84839002267574	143.27795918367346	74	127
142.84839002267574	143.05736961451248	58	127
142.84839002267574	143.27795918367346	65	127
143.06895691609978	143.27795918367346	56	127
143.28956916099773	144.06743764172336	64	127
143.28956916099773	143.69591836734693	74	127
143.28956916099773	143.49854875283447	57	127
143.521768707483	143.7075283446712	56	127
143.7075283446712	144.07904761904763	73	127
143.7075283446712	143.8932879818594	57	127
143.8932879818594	144.07904761904763	52	127
144.07904761904763	144.25319727891156	57	127
144.07904761904763	144.45054421768708	72	127
144.07904761904763	144.45054421768708	63	127
144.07904761904763	144.45054421768708	69	127
144.26480725623583	144.45054421768708	54	127
144.4621768707483	144.63632653061225	55	127
144.4621768707483	144.845306122449	72	127
144.4621768707483	144.845306122449	69	127
144.4621768707483	145.22843537414965	62	127
144.64793650793652	144.845306122449	54	127
144.8568934240363	145.22843537414965	71	127
144.8568934240363	145.22843537414965	67	127
144.8568934240363	145.05428571428573	55	127
145.05428571428573	145.24004535147392	50	127
145.24004535147392	145.42580498866212	55	127
145.24004535147392	145.61156462585035	70	127
145.24004535147392	145.61156462585035	61	127
145.24004535147392	145.61156462585035	67	127
145.42580498866212	145.61156462585035	52	127
145.61156462585035	145.9830612244898	65	127
145.61156462585035	145.77410430839004	53	127
145.61156462585035	145.9830612244898	69	127
145.61156462585035	145.9830612244898	62	127
145.78571428571428	145.9830612244898	45	127
145.99469387755101	146.36621315192744	67	127
145.99469387755101	146.36621315192744	61	127
145.99469387755101	146.36621315192744	57	127
145.99469387755101	146.18045351473924	52	127
146.19206349206348	146.40104308390022	45	127
146.40104308390022	146.62163265306123	46	127
146.40104308390022	146.85380952380953	65	127
146.40104308390022	146.85380952380953	62	127
146.40104308390022	146.85380952380953	58	127
146.62163265306123	146.85380952380953	41	127
146.85380952380953	147.0628117913832	64	127
146.85380952380953	147.0628117913832	43	127
146.85380952380953	147.74780045351474	58	127
147.07442176870748	147.32984126984127	41	127
147.07442176870748	147.32984126984127	62	127
147.34145124716554	147.52721088435374	43	127
147.34145124716554	147.52721088435374	64	127
147.538820861678	147.759410430839	67	127
147.538820861678	147.759410430839	40	127
147.759410430839	147.95678004535148	65	127
147.759410430839	147.95678004535148	45	127
147.759410430839	148.17734693877551	61	127
147.759410430839	148.17734693877551	57	127
147.95678004535148	148.17734693877551	64	127
147.95678004535148	148.17734693877551	45	127
148.17734693877551	148.75786848072562	62	127
148.17734693877551	148.75786848072562	57	127
148.17734693877551	148.75786848072562	38	127
149.16421768707482	149.33836734693878	82	127
149.16421768707482	149.33836734693878	79	127
149.16421768707482	149.33836734693878	61	127
149.34997732426305	149.52412698412698	81	127
149.34997732426305	149.52412698412698	77	127
149.34997732426305	149.52412698412698	62	127
149.53573696145125	149.7098866213152	79	127
149.53573696145125	149.7098866213152	76	127
149.53573696145125	149.7098866213152	64	127
149.72149659863945	149.88403628117914	77	127
149.72149659863945	149.88403628117914	74	127
149.72149659863945	149.88403628117914	65	127
149.8956462585034	150.0581859410431	76	127
149.8956462585034	150.0581859410431	73	127
149.8956462585034	150.0581859410431	67	127
150.0697732426304	150.2439455782313	77	127
150.0697732426304	150.2439455782313	74	127
150.0697732426304	150.2439455782313	69	127
150.25555555555556	150.42968253968255	79	127
150.25555555555556	150.42968253968255	76	127
150.25555555555556	150.42968253968255	70	127
150.44131519274376	150.61546485260772	77	127
150.44131519274376	150.61546485260772	74	127
150.44131519274376	150.61546485260772	68	127
150.62707482993198	150.7895918367347	69	127
150.62707482993198	150.95215419501133	76	127
150.62707482993198	150.95215419501133	73	127
150.7895918367347	150.9637641723356	68	127
150.9637641723356	151.17274376417234	69	127
151.17274376417234	151.38172335600908	57	127
151.38172335600908	151.57909297052154	79	127
151.38172335600908	151.57909297052154	82	127
151.38172335600908	151.57909297052154	61	127
151.57909297052154	151.78807256235828	77	127
151.57909297052154	151.78807256235828	62	127
151.57909297052154	151.78807256235828	81	127
151.78807256235828	151.97383219954648	76	127
151.78807256235828	151.97383219954648	79	127
151.78807256235828	151.97383219954648	64	127
151.97383219954648	152.17120181405895	77	127
151.97383219954648	152.17120181405895	74	127
151.97383219954648	152.17120181405895	65	127
152.17120181405895	152.35696145124717	76	127
152.17120181405895	152.35696145124717	73	127
152.17120181405895	152.35696145124717	67	127
152.35696145124717	152.5659410430839	77	127
152.35696145124717	152.5659410430839	74	127
152.35696145124717	152.5659410430839	69	127
152.5659410430839	152.7517006802721	76	127
152.5659410430839	152.7517006802721	79	127
152.5659410430839	152.7517006802721	70	127
152.76331065759638	152.93743764172336	77	127
152.76331065759638	152.93743764172336	74	127
152.76331065759638	152.93743764172336	68	127
152.94907029478458	153.12321995464853	69	127
152.94907029478458	153.33219954648527	76	127
152.94907029478458	153.33219954648527	73	127
153.14643990929704	153.33219954648527	68	127
153.34378684807257	153.55278911564625	61	127
153.34378684807257	153.55278911564625	69	127
153.34378684807257	154.1332879818594	81	127
153.56439909297052	153.75013605442177	62	127
153.56439909297052	153.75013605442177	57	127
153.761768707483	153.93591836734694	64	127
153.761768707483	153.93591836734694	49	127
153.9475283446712	154.1332879818594	50	127
153.9475283446712	154.1332879818594	65	127
154.14489795918368	154.33065759637188	79	127
154.14489795918368	154.33065759637188	52	127
154.14489795918368	154.51639455782313	67	127
154.34226757369615	154.51639455782313	77	127
154.34226757369615	154.51639455782313	53	127
154.52802721088435	154.73700680272108	76	127
154.52802721088435	154.73700680272108	55	127
154.73700680272108	154.9227664399093	74	127
154.73700680272108	154.9227664399093	57	127
154.9227664399093	155.2942857142857	65	127
154.9227664399093	155.13172335600908	58	127
154.9227664399093	155.2942857142857	74	127
155.13172335600908	155.30589569160998	56	127
155.30589569160998	156.06054421768707	64	127
155.30589569160998	155.66580498866213	74	127
155.30589569160998	155.49163265306123	57	127
155.49163265306123	155.6774149659864	56	127
155.6774149659864	156.07215419501134	73	127
155.6774149659864	155.87478458049887	57	127
155.87478458049887	156.07215419501134	52	127
156.07215419501134	156.28113378684807	57	127
156.07215419501134	156.46689342403627	72	127
156.07215419501134	156.46689342403627	63	127
156.07215419501134	156.46689342403627	69	127
156.28113378684807	156.46689342403627	54	127
156.46689342403627	157.32603174603176	62	127
156.46689342403627	156.68748299319728	55	127
156.46689342403627	156.88485260770975	72	127
156.46689342403627	156.88485260770975	69	127
156.69909297052155	156.88485260770975	54	127
156.89646258503402	157.14027210884353	55	127
156.89646258503402	157.337641723356	67	127
156.89646258503402	157.337641723356	71	127
157.1518820861678	157.337641723356	50	127
157.34925170068027	157.56984126984128	55	127
157.34925170068027	157.778820861678	70	127
157.34925170068027	157.778820861678	61	127
157.34925170068027	157.778820861678	67	127
157.58145124716555	157.778820861678	52	127
157.7904081632653	157.98780045351475	53	127
157.7904081632653	158.16195011337868	69	127
157.7904081632653	158.16195011337868	62	127
157.7904081632653	158.16195011337868	65	127
157.999410430839	158.16195011337868	45	127
158.17356009070295	158.56829931972788	61	127
158.17356009070295	158.35931972789115	52	127
158.17356009070295	158.56829931972788	67	127
158.17356009070295	158.56829931972788	57	127
158.37092970521542	158.56829931972788	45	127
158.57990929705215	158.76566893424035	46	127
158.57990929705215	158.96303854875285	65	127
158.57990929705215	158.96303854875285	62	127
158.57990929705215	158.96303854875285	58	127
158.76566893424035	158.9746485260771	41	127
158.9746485260771	159.23006802721088	64	127
158.9746485260771	159.23006802721088	43	127
158.9746485260771	159.984716553288	58	127
159.25328798185942	159.47387755102042	62	127
159.25328798185942	159.47387755102042	41	127
159.47387755102042	159.75251700680272	64	127
159.47387755102042	159.75251700680272	43	127
159.764126984127	159.99632653061224	67	127
159.764126984127	159.99632653061224	40	127
159.99632653061224	160.2285260770975	65	127
159.99632653061224	160.2285260770975	45	127
159.99632653061224	160.54199546485262	61	127
159.99632653061224	160.54199546485262	57	127
160.2285260770975	160.54199546485262	64	127
160.2285260770975	160.54199546485262	45	127
160.55358276643992	162.03968253968253	62	127
160.55358276643992	162.03968253968253	57	127
160.55358276643992	162.03968253968253	38	127
162.4344217687075	162.46925170068027	61	127
162.48086167800454	162.7130612244898	62	127
162.72467120181406	163.13102040816327	66	127
162.72467120181406	163.13102040816327	57	127
162.72467120181406	163.13102040816327	54	127
162.72467120181406	163.13102040816327	50	127
163.13102040816327	163.5025396825397	69	127
163.514126984127	163.54897959183674	58	127
163.560589569161	163.9321088435374	59	127
163.94371882086168	164.36167800453515	64	127
163.94371882086168	164.36167800453515	59	127
163.94371882086168	164.36167800453515	55	127
163.94371882086168	164.36167800453515	50	127
164.36167800453515	164.74478458049887	67	127
164.7564172335601	164.93056689342404	61	127
164.9421768707483	165.15113378684808	62	127
165.1627664399093	172.58154195011338	55	127
165.1627664399093	172.30290249433108	64	127
165.1627664399093	172.30290249433108	61	127
165.1627664399093	172.58154195011338	50	127
172.30290249433108	172.60476190476192	62	127
172.30290249433108	172.60476190476192	66	127
172.60476190476192	173.44068027210884	55	127
172.60476190476192	173.44068027210884	50	127
172.60476190476192	172.91823129251702	67	127
172.60476190476192	172.91823129251702	64	127
172.91823129251702	173.44068027210884	69	127
172.91823129251702	173.44068027210884	66	127
173.8354195011338	174.57845804988662	71	127
173.8354195011338	174.57845804988662	67	127
173.8354195011338	175.01961451247166	55	127
173.8354195011338	175.01961451247166	50	127
174.5900680272109	175.01961451247166	73	127
174.5900680272109	175.01961451247166	64	127
175.17054421768708	176.72630385487528	74	127
175.17054421768708	176.72630385487528	66	127
175.17054421768708	176.72630385487528	54	127
175.17054421768708	176.72630385487528	50	127
176.73791383219955	177.12104308390022	74	127
177.12104308390022	177.30680272108845	73	127
177.12104308390022	177.30680272108845	67	127
177.12104308390022	177.30680272108845	64	127
177.31839002267574	177.5041723356009	74	127
177.31839002267574	177.5041723356009	66	127
177.31839002267574	177.5041723356009	62	127
177.51578231292518	177.70154195011338	76	127
177.51578231292518	177.70154195011338	64	127
177.51578231292518	177.70154195011338	61	127
177.51578231292518	178.78126984126985	45	127
177.71315192743765	177.89891156462585	59	127
177.71315192743765	177.89891156462585	78	127
177.71315192743765	177.89891156462585	62	127
177.89891156462585	178.11950113378686	57	127
177.89891156462585	178.11950113378686	61	127
177.89891156462585	178.11950113378686	79	127
178.11950113378686	178.30526077097505	59	127
178.11950113378686	178.30526077097505	55	127
178.11950113378686	178.30526077097505	81	127
178.30526077097505	178.58390022675738	57	127
178.30526077097505	178.58390022675738	83	127
178.30526077097505	178.58390022675738	54	127
178.59548752834468	178.79287981859412	85	127
178.59548752834468	178.79287981859412	67	127
178.59548752834468	178.79287981859412	52	127
178.80448979591836	179.22244897959183	50	127
178.80448979591836	179.22244897959183	86	127
178.80448979591836	179.22244897959183	66	127
178.80448979591836	179.22244897959183	38	127
179.2340589569161	179.62879818594104	86	127
179.2340589569161	179.62879818594104	66	127
179.2340589569161	179.62879818594104	50	127
179.2340589569161	179.62879818594104	38	127
179.6404081632653	180.0467573696145	87	127
179.6404081632653	180.0467573696145	75	127
179.6404081632653	180.0467573696145	51	127
179.6404081632653	180.0467573696145	39	127
180.05836734693878	180.41827664399094	88	127
180.05836734693878	180.41827664399094	76	127
180.05836734693878	180.41827664399094	52	127
180.05836734693878	180.41827664399094	40	127
180.4298866213152	180.8362358276644	52	127
180.4298866213152	180.8362358276644	88	127
180.4298866213152	180.8362358276644	76	127
180.4298866213152	180.8362358276644	40	127
180.8478231292517	181.23097505668935	71	127
180.8478231292517	181.23097505668935	64	127
180.8478231292517	181.23097505668935	52	127
180.8478231292517	181.23097505668935	40	127
180.8478231292517	181.23097505668935	80	127
181.23097505668935	181.69537414965987	81	127
181.23097505668935	181.69537414965987	64	127
181.23097505668935	181.69537414965987	73	127
181.23097505668935	181.69537414965987	57	127
181.23097505668935	181.69537414965987	45	127
181.23097505668935	181.69537414965987	69	127
182.02043083900227	182.0668934240363	68	127
182.0668934240363	182.51968253968255	69	127
182.51968253968255	182.70544217687075	69	127
182.51968253968255	185.53827664399094	45	127
182.51968253968255	182.891179138322	81	127
182.51968253968255	182.891179138322	73	127
182.71705215419502	182.891179138322	64	127
182.90281179138321	183.07696145124717	62	127
182.90281179138321	183.1930612244898	76	127
182.90281179138321	183.23950113378686	81	127
183.08857142857144	183.23950113378686	61	127
183.20467120181405	183.23950113378686	68	127
183.2511111111111	183.43687074829933	59	127
183.2511111111111	183.62263038548753	69	127
183.43687074829933	183.6342403628118	57	127
183.6342403628118	183.82	74	127
183.6342403628118	184.00575963718822	80	127
183.6342403628118	184.00575963718822	71	127
183.82	184.00575963718822	71	127
184.01734693877552	184.33083900226757	74	127
184.01734693877552	184.19151927437642	69	127
184.01734693877552	184.37727891156462	80	127
184.2031292517007	184.37727891156462	68	127
184.34244897959184	184.37727891156462	63	127
184.38888888888889	184.74879818594104	64	127
184.38888888888889	184.56303854875284	66	127
184.57462585034014	184.7604081632653	64	127
184.7604081632653	185.14353741496598	73	127
184.7604081632653	184.9461678004535	76	127
184.7604081632653	185.14353741496598	79	127
184.9461678004535	185.14353741496598	73	127
185.14353741496598	185.3525170068027	71	127
185.14353741496598	185.54986394557824	79	127
185.14353741496598	185.54986394557824	76	127
185.36412698412698	185.54986394557824	69	127
185.56149659863945	185.94462585034015	73	127
185.56149659863945	185.7356462585034	67	127
185.56149659863945	185.94462585034015	45	127
185.74725623582768	185.95621315192744	64	127
185.95621315192744	186.37419501133786	62	127
185.95621315192744	186.37419501133786	46	127
185.95621315192744	187.1172335600907	77	127
185.95621315192744	187.1172335600907	74	127
186.37419501133786	186.75732426303856	50	127
186.76893424036282	187.12884353741498	41	127
187.14045351473922	187.57002267573696	43	127
187.14045351473922	187.92993197278912	76	127
187.14045351473922	188.33628117913833	73	127
187.58163265306123	187.97637188208617	46	127
187.9415419501134	187.97637188208617	79	127
187.98798185941044	188.3478911564626	77	127
187.98798185941044	188.3478911564626	44	127
188.3594784580499	189.14897959183673	76	127
188.3594784580499	188.56848072562357	45	127
188.3594784580499	189.18380952380951	73	127
188.5917006802721	188.78907029478458	57	127
188.78907029478458	188.97480725623583	56	127
188.97480725623583	189.19541950113378	57	127
189.14897959183673	189.19541950113378	79	127
189.19541950113378	189.42761904761906	53	127
189.19541950113378	189.6946485260771	77	127
189.19541950113378	189.6946485260771	74	127
189.4392290249433	189.6946485260771	50	127
189.70625850340136	189.8919954648526	57	127
189.70625850340136	190.07777777777778	76	127
189.70625850340136	190.07777777777778	73	127
189.70625850340136	190.07777777777778	45	127
189.90362811791383	190.08938775510205	69	127
190.08938775510205	190.4144671201814	76	127
190.08938775510205	190.46090702947845	73	127
190.08938775510205	190.27514739229025	68	127
190.27514739229025	190.46090702947845	69	127
190.42607709750567	190.46090702947845	79	127
190.47251700680272	190.8904761904762	74	127
190.47251700680272	190.6698866213152	65	127
190.47251700680272	190.8904761904762	77	127
190.68149659863946	190.8904761904762	62	127
190.90208616780046	191.3897052154195	76	127
190.90208616780046	191.3897052154195	73	127
190.90208616780046	191.3897052154195	57	127
191.93537414965985	191.99342403628117	61	127
191.99342403628117	192.4578231292517	62	127
192.4578231292517	192.8641723356009	66	127
192.4578231292517	192.8641723356009	57	127
192.4578231292517	192.8641723356009	54	127
192.4578231292517	192.8641723356009	50	127
192.87578231292517	193.177641723356	69	127
193.18925170068027	193.22408163265305	58	127
193.23569160997732	193.6536507936508	59	127
193.6536507936508	194.10643990929705	64	127
193.6536507936508	194.10643990929705	59	127
193.6536507936508	194.10643990929705	55	127
193.6536507936508	194.10643990929705	50	127
194.11804988662132	194.47795918367348	67	127
194.48956916099775	194.67532879818594	61	127
194.67532879818594	194.9075283446712	62	127
194.9075283446712	195.1281179138322	64	127
194.9075283446712	195.1281179138322	61	127
194.9075283446712	195.2906575963719	55	127
194.9075283446712	195.2906575963719	50	127
195.1281179138322	195.2906575963719	66	127
195.1281179138322	195.2906575963719	62	127
195.30226757369616	195.49963718820862	67	127
195.30226757369616	195.49963718820862	64	127
195.30226757369616	195.68539682539682	55	127
195.30226757369616	195.68539682539682	50	127
195.5112471655329	195.68539682539682	69	127
195.5112471655329	195.68539682539682	66	127
195.6970068027211	195.87115646258502	71	127
195.6970068027211	195.87115646258502	67	127
195.6970068027211	196.11496598639457	55	127
195.6970068027211	196.11496598639457	50	127
195.8827664399093	196.1265759637188	73	127
195.8827664399093	196.1265759637188	64	127
196.1265759637188	196.56775510204082	66	127
196.1265759637188	196.56775510204082	74	127
196.1265759637188	196.56775510204082	54	127
196.1265759637188	196.56775510204082	50	127
196.56775510204082	196.97410430839003	74	127
196.9857142857143	197.15986394557822	61	127
196.9857142857143	197.15986394557822	57	127
196.9857142857143	197.42689342403628	81	127
197.20630385487527	197.42689342403628	62	127
197.20630385487527	197.42689342403628	59	127
197.43850340136055	197.62426303854875	64	127
197.43850340136055	197.62426303854875	61	127
197.43850340136055	197.83324263038548	79	127
197.62426303854875	197.83324263038548	66	127
197.62426303854875	197.83324263038548	62	127
197.83324263038548	198.00739229024944	67	127
197.83324263038548	198.00739229024944	64	127
197.83324263038548	198.16993197278913	79	127
198.00739229024944	198.16993197278913	69	127
198.00739229024944	198.16993197278913	66	127
198.18154195011337	198.35569160997733	71	127
198.18154195011337	198.35569160997733	67	127
198.18154195011337	198.56467120181406	79	127
198.3673015873016	198.56467120181406	73	127
198.3673015873016	198.56467120181406	69	127
198.57628117913833	199.00585034013605	78	127
198.57628117913833	199.00585034013605	74	127
198.57628117913833	199.00585034013605	71	127
199.01746031746032	199.35414965986394	78	127
199.01746031746032	199.35414965986394	74	127
199.01746031746032	199.35414965986394	71	127
199.35414965986394	199.5282993197279	86	127
199.35414965986394	199.5282993197279	81	127
199.35414965986394	199.5282993197279	78	127
199.53990929705216	199.7140589569161	85	127
199.53990929705216	199.7140589569161	79	127
199.53990929705216	199.7140589569161	76	127
199.72566893424036	199.89981859410432	83	127
199.72566893424036	199.89981859410432	78	127
199.72566893424036	199.89981859410432	74	127
199.91142857142856	200.09718820861679	81	127
199.91142857142856	200.09718820861679	76	127
199.91142857142856	200.09718820861679	73	127
200.09718820861679	200.29455782312925	79	127
200.09718820861679	200.29455782312925	74	127
200.09718820861679	200.29455782312925	71	127
200.29455782312925	200.48031746031745	78	127
200.29455782312925	200.48031746031745	73	127
200.29455782312925	200.48031746031745	69	127
200.48031746031745	200.66607709750568	76	127
200.48031746031745	200.66607709750568	71	127
200.48031746031745	200.66607709750568	67	127
200.48031746031745	200.66607709750568	52	127
200.67768707482992	200.8402267573696	75	127
200.67768707482992	200.8402267573696	69	127
200.67768707482992	200.8402267573696	66	127
200.67768707482992	200.8402267573696	54	127
200.85183673469388	201.0608163265306	76	127
200.85183673469388	201.0608163265306	71	127
200.85183673469388	201.0608163265306	55	127
200.85183673469388	201.29301587301586	64	127
201.07242630385488	201.29301587301586	75	127
201.07242630385488	201.29301587301586	69	127
201.07242630385488	201.29301587301586	54	127
201.30462585034013	201.49038548752836	67	127
201.30462585034013	201.49038548752836	76	127
201.30462585034013	201.49038548752836	52	127
201.49038548752836	201.69936507936507	78	127
201.49038548752836	201.69936507936507	66	127
201.49038548752836	201.69936507936507	50	127
201.69936507936507	201.9083446712018	57	127
201.69936507936507	201.9083446712018	49	127
201.69936507936507	202.09410430839003	79	127
201.69936507936507	202.09410430839003	64	127
201.9083446712018	202.09410430839003	61	127
201.9083446712018	202.09410430839003	45	127
202.1057142857143	202.27986394557823	62	127
202.1057142857143	202.27986394557823	50	127
202.1057142857143	202.4772335600907	78	127
202.1057142857143	202.4772335600907	66	127
202.2914739229025	202.4772335600907	64	127
202.2914739229025	202.4772335600907	52	127
202.48884353741497	202.67460317460316	66	127
202.48884353741497	202.67460317460316	54	127
202.48884353741497	202.84875283446712	74	127
202.48884353741497	202.84875283446712	66	127
202.67460317460316	202.8603628117914	67	127
202.67460317460316	202.8603628117914	55	127
202.8603628117914	203.27832199546486	69	127
202.8603628117914	202.90680272108844	73	127
202.8603628117914	203.27832199546486	64	127
202.8603628117914	203.27832199546486	57	127
202.90680272108844	202.976462585034	74	127
202.976462585034	203.02290249433108	73	127
203.02290249433108	203.06934240362813	74	127
203.06934240362813	203.20866213151928	73	127
203.20866213151928	203.2318820861678	71	127
203.2318820861678	203.27832199546486	73	127
203.2899319727891	203.90526077097505	74	127
203.2899319727891	203.90526077097505	62	127
203.2899319727891	203.90526077097505	62	127
203.2899319727891	203.90526077097505	50	127
204.27678004535147	204.32321995464852	73	127
204.32321995464852	204.70634920634922	74	127
204.70634920634922	205.08947845804988	78	127
205.10108843537415	205.402947845805	81	127
205.10108843537415	205.44938775510204	66	127
205.41455782312926	205.44938775510204	70	127
205.4609977324263	205.79768707482992	71	127
205.4609977324263	205.8673469387755	67	127
205.79768707482992	205.89056689342402	78	127
205.89056689342402	206.2156462585034	79	127
205.89056689342402	206.26208616780045	64	127
206.22725623582767	206.26208616780045	68	127
206.27369614512472	206.63360544217687	69	127
206.27369614512472	206.68004535147392	66	127
206.64521541950114	206.68004535147392	76	127
206.6916553287982	207.0283446712018	78	127
206.6916553287982	207.06317460317462	63	127
207.0283446712018	207.07478458049886	66	127
207.07478458049886	207.4114739229025	67	127
207.07478458049886	207.45791383219955	64	127
207.4114739229025	207.45791383219955	75	127
207.46952380952382	207.86426303854876	61	127
207.46952380952382	207.8178231292517	76	127
207.82943310657598	207.9107029478458	64	127
207.87587301587303	208.30544217687074	62	127
207.92231292517008	208.317052154195	66	127
208.317052154195	209.50126984126985	59	127
208.317052154195	208.51442176870748	64	127
208.317052154195	209.12975056689342	62	127
208.317052154195	209.50126984126985	55	127
208.51442176870748	208.74662131519275	66	127
208.74662131519275	208.9556009070295	67	127
208.96721088435373	209.1413605442177	69	127
209.15297052154196	209.3271201814059	62	127
209.15297052154196	209.3271201814059	71	127
209.33873015873016	209.52448979591836	73	127
209.33873015873016	209.52448979591836	64	127
209.53609977324263	209.91922902494332	65	127
209.53609977324263	209.91922902494332	74	127
209.53609977324263	209.91922902494332	56	127
209.93083900226756	210.33718820861677	62	127
210.34879818594104	210.7087074829932	76	127
210.34879818594104	210.7087074829932	62	127
210.34879818594104	210.7087074829932	56	127
210.72031746031746	211.1150566893424	77	127
210.72031746031746	211.1150566893424	62	127
210.72031746031746	211.1150566893424	57	127
211.12666666666667	211.53301587301587	62	127
211.54462585034014	211.9625850340136	77	127
211.54462585034014	211.9625850340136	74	127
211.54462585034014	211.9625850340136	57	127
211.97419501133786	212.3805442176871	78	127
211.97419501133786	212.3805442176871	74	127
211.97419501133786	212.3805442176871	58	127
212.41537414965987	212.8101133786848	62	127
212.8101133786848	213.26290249433106	74	127
212.8101133786848	213.26290249433106	78	127
212.8101133786848	213.26290249433106	58	127
213.27451247165533	213.64603174603175	79	127
213.27451247165533	213.64603174603175	74	127
213.27451247165533	213.64603174603175	59	127
213.64603174603175	214.12204081632652	62	127
214.14526077097506	214.60965986394558	78	127
214.14526077097506	214.60965986394558	74	127
214.14526077097506	214.60965986394558	57	127
214.62126984126985	214.99278911564625	76	127
214.62126984126985	214.99278911564625	74	127
214.62126984126985	214.99278911564625	55	127
215.00439909297052	215.39913832199545	62	127
215.41074829931972	215.81709750566893	74	127
215.41074829931972	215.81709750566893	78	127
215.41074829931972	215.81709750566893	57	127
215.8287074829932	216.17700680272108	74	127
215.8287074829932	216.17700680272108	59	127
215.8287074829932	216.17700680272108	79	127
216.18861678004535	216.5485260770975	62	127
216.56013605442178	216.9897052154195	57	127
216.56013605442178	216.8039455782313	74	127
216.56013605442178	216.94326530612244	78	127
216.8039455782313	216.9897052154195	73	127
216.94326530612244	216.9897052154195	75	127
216.9897052154195	217.37283446712019	76	127
216.9897052154195	217.44249433106575	71	127
216.9897052154195	218.32485260770974	55	127
217.38444444444445	217.44249433106575	78	127
217.46571428571428	217.86045351473922	67	127
217.46571428571428	217.8024036281179	79	127
217.46571428571428	217.86045351473922	59	127
217.81401360544217	217.86045351473922	82	127
217.8720634920635	218.336462585034	64	127
217.8720634920635	218.336462585034	55	127
217.8720634920635	218.336462585034	83	127
218.34807256235828	219.13755102040815	74	127
218.34807256235828	219.13755102040815	57	127
218.34807256235828	219.50907029478458	57	127
218.34807256235828	219.13755102040815	66	127
219.14916099773242	219.33492063492062	73	127
219.14916099773242	219.33492063492062	67	127
219.14916099773242	219.33492063492062	64	127
219.33492063492062	219.53229024943312	66	127
219.33492063492062	219.53229024943312	74	127
219.33492063492062	219.53229024943312	62	127
219.53229024943312	219.71804988662132	64	127
219.53229024943312	220.79777777777778	45	127
219.53229024943312	219.71804988662132	61	127
219.53229024943312	219.71804988662132	76	127
219.71804988662132	219.93863945578232	78	127
219.71804988662132	219.93863945578232	62	127
219.71804988662132	219.93863945578232	59	127
219.93863945578232	220.1592290249433	57	127
219.93863945578232	220.1592290249433	79	127
219.93863945578232	220.1592290249433	61	127
220.17083900226757	220.35659863945577	55	127
220.17083900226757	220.35659863945577	59	127
220.17083900226757	220.35659863945577	81	127
220.36820861678004	220.6004081632653	83	127
220.36820861678004	220.6004081632653	57	127
220.36820861678004	220.6004081632653	54	127
220.61201814058956	220.8209977324263	52	127
220.61201814058956	220.8209977324263	85	127
220.61201814058956	220.8209977324263	67	127
220.8209977324263	221.18090702947845	86	127
220.8209977324263	221.18090702947845	66	127
220.8209977324263	221.18090702947845	50	127
220.8209977324263	221.18090702947845	38	127
221.5408163265306	221.72657596371883	52	127
221.5408163265306	221.72657596371883	37	127
221.73818594104307	221.90072562358276	54	127
221.73818594104307	221.90072562358276	38	127
221.93555555555557	222.13292517006803	55	127
221.93555555555557	222.13292517006803	40	127
222.13292517006803	222.353514739229	57	127
222.13292517006803	222.353514739229	42	127
222.353514739229	222.59732426303856	59	127
222.353514739229	222.59732426303856	43	127
222.6089342403628	222.8295238095238	61	127
222.6089342403628	222.8295238095238	45	127
222.85274376417235	223.0501133786848	62	127
222.85274376417235	223.0501133786848	47	127
222.85274376417235	223.42163265306124	81	127
222.85274376417235	223.42163265306124	69	127
223.06172335600908	223.42163265306124	64	127
223.06172335600908	223.42163265306124	49	127
223.44485260770975	225.05863945578233	78	127
223.44485260770975	225.05863945578233	66	127
223.44485260770975	225.05863945578233	66	127
223.44485260770975	225.05863945578233	50	127
