# onset,offset,note,velocity
0.32430839002267575	1.4388662131519274	56	127
0.32430839002267575	1.4388662131519274	48	127
0.32430839002267575	1.4388662131519274	51	127
1.4388662131519274	1.7639455782312925	51	127
1.4388662131519274	1.7639455782312925	55	127
1.4388662131519274	1.7639455782312925	58	127
1.7755555555555556	2.820453514739229	55	127
1.7755555555555556	2.820453514739229	58	127
1.7755555555555556	2.820453514739229	51	127
2.820453514739229	3.157142857142857	56	127
2.820453514739229	3.157142857142857	56	127
2.820453514739229	3.157142857142857	60	127
3.180362811791383	4.271700680272109	56	127
3.180362811791383	4.271700680272109	56	127
3.180362811791383	5.572018140589569	60	127
3.8653514739229027	4.515510204081632	63	127
4.515510204081632	5.4675283446712015	44	127
4.515510204081632	5.4675283446712015	53	127
4.515510204081632	5.4675283446712015	65	127
5.4675283446712015	5.827437641723356	48	127
5.4675283446712015	5.827437641723356	63	127
5.4675283446712015	5.827437641723356	55	127
5.839047619047619	6.895555555555555	63	127
5.839047619047619	6.895555555555555	55	127
5.839047619047619	6.895555555555555	48	127
5.839047619047619	6.895555555555555	60	127
6.895555555555555	7.232244897959184	61	127
6.895555555555555	7.232244897959184	56	127
6.895555555555555	7.232244897959184	53	127
7.243854875283446	8.52092970521542	61	127
7.243854875283446	8.52092970521542	53	127
7.243854875283446	8.010113378684807	61	127
7.243854875283446	8.52092970521542	56	127
8.033333333333333	8.729931972789116	65	127
8.729931972789116	9.681950113378685	68	127
8.729931972789116	9.681950113378685	49	127
8.729931972789116	9.681950113378685	41	127
9.368480725623582	10.030249433106576	56	127
9.681950113378685	10.00702947845805	44	127
9.681950113378685	10.00702947845805	67	127
9.681950113378685	10.00702947845805	51	127
10.030249433106576	10.982267573696145	44	127
10.030249433106576	10.982267573696145	67	127
10.030249433106576	10.982267573696145	60	127
10.030249433106576	10.982267573696145	51	127
10.982267573696145	11.318956916099774	65	127
10.982267573696145	11.318956916099774	61	127
10.982267573696145	11.318956916099774	49	127
10.982267573696145	11.318956916099774	53	127
11.342154195011338	12.027165532879819	65	127
11.342154195011338	12.027165532879819	49	127
11.342154195011338	12.015555555555556	61	127
11.342154195011338	12.027165532879819	53	127
12.027165532879819	12.770204081632652	63	127
12.027165532879819	12.770204081632652	60	127
12.027165532879819	12.770204081632652	56	127
12.027165532879819	12.770204081632652	51	127
12.793424036281179	14.767120181405895	53	127
12.793424036281179	13.90798185941043	58	127
12.793424036281179	14.767120181405895	62	127
12.793424036281179	14.767120181405895	56	127
13.90798185941043	14.267891156462586	59	127
14.279501133786848	16.705986394557822	59	127
14.964489795918368	15.266349206349206	56	127
14.964489795918368	15.603038548752835	63	127
14.964489795918368	15.266349206349206	51	127
15.614648526077097	16.31124716553288	51	127
15.614648526077097	15.9281179138322	56	127
15.614648526077097	16.31124716553288	63	127
16.31124716553288	16.69437641723356	56	127
16.31124716553288	17.089115646258502	53	127
16.31124716553288	17.089115646258502	62	127
17.11233560090703	18.203673469387756	58	127
17.11233560090703	19.062789115646257	53	127
17.11233560090703	19.062789115646257	56	127
17.11233560090703	19.062789115646257	62	127
18.215283446712018	18.56358276643991	59	127
18.586802721088436	20.688208616780045	59	127
19.29501133786848	19.631678004535146	56	127
19.29501133786848	19.631678004535146	51	127
19.29501133786848	19.98	67	127
19.98	20.316689342403627	56	127
19.98	20.688208616780045	51	127
19.98	20.688208616780045	67	127
20.688208616780045	21.338367346938774	50	127
20.688208616780045	21.024897959183672	56	127
20.688208616780045	21.338367346938774	65	127
20.688208616780045	21.338367346938774	58	127
21.349954648526076	22.069795918367348	51	127
21.349954648526076	22.093015873015872	67	127
21.349954648526076	25.227709750566895	58	127
21.349954648526076	22.56902494331066	55	127
22.093015873015872	23.63714285714286	63	127
22.093015873015872	22.824444444444445	43	127
22.836054421768708	24.206031746031748	46	127
22.836054421768708	24.206031746031748	53	127
23.63714285714286	24.44984126984127	62	127
24.473061224489797	25.761768707482993	51	127
24.473061224489797	27.108526077097505	63	127
24.473061224489797	25.761768707482993	55	127
25.227709750566895	25.970748299319727	61	127
25.993968253968255	27.108526077097505	68	127
25.993968253968255	27.108526077097505	60	127
27.108526077097505	27.456825396825398	63	127
27.108526077097505	27.456825396825398	67	127
27.108526077097505	27.456825396825398	70	127
27.46843537414966	28.42045351473923	67	127
27.46843537414966	28.42045351473923	70	127
27.46843537414966	28.42045351473923	63	127
28.42045351473923	28.72231292517007	72	127
28.42045351473923	28.72231292517007	68	127
28.73392290249433	29.883310657596372	68	127
28.73392290249433	29.883310657596372	72	127
29.40730158730159	30.092290249433105	63	127
30.103900226757368	31.090748299319728	68	127
30.103900226757368	31.090748299319728	65	127
30.103900226757368	31.090748299319728	65	127
31.090748299319728	31.43904761904762	72	127
31.090748299319728	31.43904761904762	63	127
31.090748299319728	31.43904761904762	67	127
31.090748299319728	31.43904761904762	67	127
31.462267573696145	32.42589569160998	63	127
31.462267573696145	32.42589569160998	72	127
31.462267573696145	32.42589569160998	67	127
32.42589569160998	32.78578231292517	77	127
32.42589569160998	32.78578231292517	61	127
32.42589569160998	32.78578231292517	68	127
32.42589569160998	32.78578231292517	73	127
32.80902494331066	33.55204081632653	61	127
32.80902494331066	34.086122448979594	68	127
32.80902494331066	34.086122448979594	73	127
32.80902494331066	34.086122448979594	77	127
33.56367346938776	34.30668934240363	65	127
34.30668934240363	35.30517006802721	68	127
34.30668934240363	35.30517006802721	73	127
34.30668934240363	35.30517006802721	68	127
34.30668934240363	35.30517006802721	65	127
35.30517006802721	35.618639455782315	75	127
35.30517006802721	35.618639455782315	70	127
35.30517006802721	35.618639455782315	67	127
35.30517006802721	35.618639455782315	67	127
35.63024943310658	36.72156462585034	75	127
35.63024943310658	36.72156462585034	70	127
35.63024943310658	36.72156462585034	67	127
35.63024943310658	36.72156462585034	67	127
36.72156462585034	37.093106575963716	80	127
36.72156462585034	37.093106575963716	65	127
36.72156462585034	37.093106575963716	68	127
36.72156462585034	37.093106575963716	73	127
37.10469387755102	37.83614512471655	65	127
37.10469387755102	37.83614512471655	80	127
37.10469387755102	37.83614512471655	73	127
37.10469387755102	38.33537414965986	68	127
37.83614512471655	38.567573696145125	63	127
37.83614512471655	38.567573696145125	72	127
37.83614512471655	38.567573696145125	68	127
38.59079365079365	39.7053514739229	70	127
38.59079365079365	40.90117913832199	65	127
38.59079365079365	40.90117913832199	68	127
38.59079365079365	40.65734693877551	62	127
39.7053514739229	40.08848072562358	71	127
40.11170068027211	42.781995464852606	71	127
40.90117913832199	41.632607709750566	63	127
40.90117913832199	42.42208616780045	68	127
40.90117913832199	42.42208616780045	65	127
41.64421768707483	42.42208616780045	63	127
42.42208616780045	43.1302947845805	65	127
42.42208616780045	43.1302947845805	62	127
42.42208616780045	43.1302947845805	68	127
43.1302947845805	45.289750566893424	62	127
43.1302947845805	44.372562358276646	70	127
43.1302947845805	45.54517006802721	68	127
43.1302947845805	45.54517006802721	65	127
44.372562358276646	44.7324716553288	71	127
44.744081632653064	47.01963718820862	71	127
45.54517006802721	46.276598639455784	67	127
45.54517006802721	47.01963718820862	68	127
45.54517006802721	47.01963718820862	63	127
46.29981859410431	47.00800453514739	67	127
47.01963718820862	49.02816326530612	70	127
47.01963718820862	47.73945578231292	68	127
47.01963718820862	47.73945578231292	62	127
47.01963718820862	47.73945578231292	65	127
47.76267573696145	48.52893424036281	63	127
47.76267573696145	48.517324263038546	67	127
47.76267573696145	49.23714285714286	67	127
48.52893424036281	49.96857142857143	63	127
48.52893424036281	49.225532879818594	55	127
49.23714285714286	49.991791383219955	68	127
49.23714285714286	50.76965986394558	65	127
49.23714285714286	50.491020408163266	58	127
49.991791383219955	50.76965986394558	65	127
49.991791383219955	50.758049886621315	62	127
50.76965986394558	52.22090702947846	63	127
50.76965986394558	51.628798185941044	63	127
50.76965986394558	52.22090702947846	67	127
50.76965986394558	52.22090702947846	51	127
51.628798185941044	52.48793650793651	61	127
52.49954648526077	53.73020408163265	60	127
52.49954648526077	53.73020408163265	52	127
52.49954648526077	56.226349206349205	67	127
53.73020408163265	54.090113378684805	62	127
53.73020408163265	54.090113378684805	55	127
54.11333333333334	55.146621315192746	55	127
54.11333333333334	55.146621315192746	62	127
55.146621315192746	55.506530612244894	60	127
55.146621315192746	55.506530612244894	64	127
55.529750566893426	56.725578231292516	64	127
55.529750566893426	56.725578231292516	60	127
56.226349206349205	56.89972789115646	72	127
56.91133786848073	60.61492063492064	67	127
56.91133786848073	58.00267573696145	60	127
56.91133786848073	58.00267573696145	52	127
58.00267573696145	58.35097505668934	62	127
58.00267573696145	58.35097505668934	55	127
58.362585034013605	59.41909297052154	55	127
58.362585034013605	59.41909297052154	62	127
59.41909297052154	59.779002267573695	64	127
59.41909297052154	59.779002267573695	60	127
59.79061224489796	61.148979591836735	60	127
59.79061224489796	61.148979591836735	64	127
60.61492063492064	61.381179138322	72	127
61.40439909297052	65.63043083900227	39	127
61.40439909297052	62.58861678004535	63	127
61.40439909297052	62.58861678004535	55	127
61.40439909297052	63.73800453514739	73	127
62.58861678004535	62.97174603174603	65	127
62.58861678004535	62.97174603174603	58	127
62.99496598639456	64.10952380952381	65	127
62.99496598639456	64.10952380952381	58	127
63.73800453514739	65.20083900226757	72	127
64.10952380952381	64.44621315192744	67	127
64.10952380952381	64.44621315192744	63	127
64.45782312925171	65.75814058956917	63	127
64.45782312925171	65.75814058956917	67	127
65.20083900226757	65.99034013605443	70	127
66.00195011337868	68.56775510204082	39	127
66.00195011337868	67.9756462585034	73	127
66.00195011337868	67.11650793650794	63	127
66.00195011337868	67.10489795918367	55	127
67.11650793650794	67.47639455782313	65	127
67.11650793650794	67.47639455782313	58	127
67.48802721088435	68.56775510204082	65	127
67.48802721088435	68.56775510204082	58	127
68.23106575963719	69.65909297052154	72	127
68.56775510204082	68.92766439909298	67	127
68.56775510204082	68.92766439909298	63	127
68.9508843537415	70.4253514739229	37	127
68.9508843537415	72.06235827664399	63	127
68.9508843537415	72.06235827664399	67	127
69.65909297052154	70.4253514739229	70	127
70.4253514739229	72.06235827664399	36	127
70.4253514739229	71.21482993197279	68	127
71.22643990929706	72.82861678004535	68	127
72.06235827664399	73.64131519274376	37	127
72.06235827664399	73.64131519274376	61	127
72.06235827664399	73.64131519274376	65	127
72.85183673469388	74.3843537414966	68	127
73.64131519274376	74.3843537414966	60	127
73.64131519274376	75.11578231292518	39	127
73.64131519274376	74.3843537414966	63	127
74.3843537414966	75.10417233560091	58	127
74.3843537414966	75.10417233560091	70	127
74.3843537414966	75.10417233560091	61	127
75.11578231292518	75.94009070294784	71	127
75.11578231292518	76.67151927437642	40	127
75.11578231292518	77.22879818594105	59	127
75.11578231292518	77.22879818594105	56	127
75.94009070294784	76.67151927437642	68	127
76.67151927437642	77.4609977324263	62	127
76.67151927437642	77.4609977324263	41	127
77.47260770975056	78.22725623582767	56	127
77.47260770975056	78.22725623582767	59	127
77.47260770975056	78.22725623582767	38	127
77.47260770975056	78.22725623582767	65	127
78.22725623582767	78.98190476190476	39	127
78.22725623582767	78.98190476190476	63	127
78.22725623582767	78.98190476190476	55	127
78.22725623582767	78.98190476190476	58	127
78.98190476190476	79.77136054421769	61	127
78.98190476190476	79.77136054421769	58	127
78.98190476190476	79.77136054421769	51	127
78.98190476190476	79.77136054421769	43	127
79.78299319727891	80.83950113378685	44	127
79.78299319727891	80.83950113378685	60	127
79.78299319727891	80.83950113378685	56	127
79.78299319727891	80.83950113378685	51	127
80.83950113378685	81.22263038548753	63	127
80.83950113378685	81.22263038548753	42	127
80.83950113378685	81.22263038548753	56	127
80.83950113378685	81.22263038548753	60	127
81.23424036281179	82.37201814058957	42	127
81.23424036281179	82.37201814058957	60	127
81.23424036281179	82.37201814058957	56	127
81.23424036281179	82.37201814058957	63	127
82.37201814058957	82.74353741496599	56	127
82.37201814058957	82.74353741496599	68	127
82.37201814058957	82.74353741496599	61	127
82.37201814058957	82.74353741496599	49	127
82.37201814058957	82.74353741496599	41	127
82.75514739229025	84.09027210884354	49	127
82.75514739229025	84.09027210884354	41	127
82.75514739229025	84.09027210884354	56	127
82.75514739229025	83.5562358276644	68	127
82.75514739229025	84.09027210884354	61	127
83.5562358276644	84.32249433106576	61	127
84.34569160997732	85.49507936507936	39	127
84.34569160997732	85.49507936507936	60	127
84.34569160997732	85.49507936507936	56	127
84.34569160997732	85.49507936507936	51	127
85.49507936507936	85.86662131519275	63	127
85.49507936507936	85.86662131519275	58	127
85.49507936507936	85.86662131519275	55	127
85.49507936507936	85.86662131519275	37	127
85.88984126984127	86.96956916099774	37	127
85.88984126984127	86.96956916099774	63	127
85.88984126984127	86.96956916099774	58	127
85.88984126984127	86.96956916099774	55	127
86.96956916099774	87.35269841269842	72	127
86.96956916099774	87.35269841269842	36	127
86.96956916099774	87.35269841269842	56	127
86.96956916099774	87.35269841269842	63	127
87.36430839002267	88.20022675736962	60	127
87.36430839002267	88.7110657596372	56	127
87.36430839002267	88.22344671201814	36	127
87.36430839002267	88.22344671201814	72	127
87.36430839002267	88.20022675736962	63	127
88.22344671201814	88.93165532879819	65	127
88.22344671201814	88.93165532879819	38	127
88.94326530612246	90.32482993197279	39	127
88.94326530612246	90.60349206349207	56	127
88.94326530612246	90.60349206349207	60	127
88.94326530612246	89.75596371882087	68	127
89.75596371882087	91.32328798185941	63	127
90.60349206349207	92.101179138322	55	127
90.60349206349207	91.84575963718821	51	127
90.60349206349207	92.101179138322	58	127
91.32328798185941	92.98351473922902	61	127
92.101179138322	93.56403628117914	51	127
92.101179138322	93.56403628117914	61	127
92.101179138322	93.56403628117914	55	127
92.98351473922902	93.80784580498866	58	127
93.83106575963718	94.93401360544217	60	127
93.83106575963718	94.93401360544217	56	127
94.93401360544217	95.29392290249433	54	127
94.93401360544217	95.29392290249433	63	127
95.3055328798186	96.3736507936508	63	127
95.3055328798186	96.3736507936508	68	127
95.3055328798186	96.3736507936508	60	127
95.3055328798186	96.3736507936508	54	127
96.3736507936508	96.6871201814059	61	127
96.3736507936508	96.6871201814059	56	127
96.3736507936508	96.6871201814059	53	127
96.3736507936508	96.6871201814059	68	127
96.69873015873016	97.43015873015872	61	127
96.69873015873016	97.43015873015872	53	127
96.69873015873016	97.43015873015872	68	127
96.69873015873016	97.77845804988662	56	127
97.43015873015872	98.12675736961451	61	127
97.43015873015872	98.12675736961451	52	127
97.43015873015872	98.12675736961451	73	127
97.77845804988662	98.12675736961451	68	127
98.13836734693878	99.2645351473923	68	127
98.13836734693878	99.2645351473923	72	127
98.13836734693878	99.2645351473923	56	127
98.13836734693878	99.2645351473923	51	127
98.13836734693878	99.2645351473923	60	127
99.2645351473923	99.62444444444445	67	127
99.2645351473923	99.62444444444445	75	127
99.2645351473923	99.62444444444445	58	127
99.2645351473923	99.62444444444445	49	127
99.2645351473923	99.62444444444445	63	127
99.64766439909297	100.66934240362812	75	127
99.64766439909297	100.66934240362812	58	127
99.64766439909297	100.66934240362812	67	127
99.64766439909297	100.66934240362812	49	127
99.64766439909297	100.66934240362812	63	127
100.66934240362812	101.02925170068028	84	127
100.66934240362812	101.02925170068028	56	127
100.66934240362812	101.02925170068028	68	127
100.66934240362812	101.02925170068028	48	127
100.66934240362812	101.02925170068028	72	127
101.0524716553288	101.74907029478459	84	127
101.0524716553288	101.74907029478459	48	127
101.0524716553288	101.74907029478459	72	127
101.0524716553288	102.2134693877551	56	127
101.0524716553288	102.2134693877551	68	127
101.74907029478459	102.45727891156463	77	127
101.74907029478459	102.45727891156463	50	127
101.74907029478459	102.45727891156463	60	127
102.46888888888888	103.28158730158731	80	127
102.46888888888888	103.8156462585034	51	127
102.46888888888888	104.08267573696145	68	127
102.46888888888888	104.08267573696145	60	127
103.28158730158731	104.93020408163265	75	127
104.08267573696145	105.71968253968254	58	127
104.08267573696145	105.47587301587302	51	127
104.08267573696145	105.71968253968254	67	127
104.93020408163265	106.52077097505669	73	127
105.71968253968254	107.11287981859411	51	127
105.71968253968254	107.11287981859411	61	127
105.71968253968254	107.11287981859411	55	127
106.52077097505669	107.39151927437642	70	127
107.87913832199547	108.21582766439909	63	127
108.35514739229025	108.63378684807256	63	127
108.78471655328798	109.09818594104308	63	127
109.2491156462585	109.56258503401361	63	127
109.2491156462585	109.56258503401361	61	127
109.70190476190476	110.00376417233561	63	127
109.70190476190476	110.02698412698413	61	127
110.1895238095238	110.51460317460318	63	127
110.1895238095238	110.51460317460318	61	127
110.65392290249433	110.95578231292517	58	127
110.65392290249433	110.95578231292517	61	127
110.65392290249433	110.95578231292517	51	127
111.08349206349206	111.33891156462585	61	127
111.08349206349206	111.33891156462585	58	127
111.08349206349206	111.33891156462585	51	127
111.48984126984126	111.76848072562358	61	127
111.48984126984126	111.76848072562358	58	127
111.48984126984126	111.76848072562358	51	127
111.90780045351474	112.22126984126984	58	127
111.90780045351474	112.22126984126984	55	127
111.90780045351474	112.22126984126984	49	127
112.12839002267573	113.38226757369614	75	127
112.34897959183674	112.61600907029478	58	127
112.34897959183674	112.61600907029478	55	127
112.34897959183674	112.61600907029478	49	127
112.77854875283447	113.0804081632653	58	127
112.77854875283447	113.0804081632653	55	127
112.77854875283447	113.0804081632653	49	127
113.17328798185942	113.46353741496598	55	127
113.17328798185942	113.46353741496598	46	127
113.17328798185942	113.46353741496598	51	127
113.38226757369614	114.85673469387756	73	127
113.59124716553288	113.89310657596371	51	127
113.59124716553288	113.89310657596371	46	127
113.59124716553288	113.89310657596371	55	127
114.04403628117913	114.48521541950113	55	127
114.04403628117913	114.48521541950113	51	127
114.04403628117913	114.48521541950113	46	127
114.6245351473923	114.93800453514739	39	127
114.6245351473923	114.93800453514739	61	127
114.6245351473923	114.93800453514739	55	127
114.85673469387756	115.76231292517006	70	127
115.08893424036282	115.61138321995465	55	127
115.08893424036282	115.61138321995465	39	127
115.08893424036282	115.61138321995465	61	127
116.20349206349206	116.55179138321995	63	127
116.20349206349206	116.52857142857142	75	127
116.20349206349206	116.55179138321995	59	127
116.20349206349206	116.55179138321995	56	127
116.70272108843537	117.01619047619047	75	127
116.70272108843537	117.039410430839	59	127
116.70272108843537	117.039410430839	63	127
116.70272108843537	117.039410430839	56	127
117.20195011337869	117.50380952380952	56	127
117.20195011337869	117.480589569161	75	127
117.20195011337869	117.50380952380952	59	127
117.20195011337869	117.50380952380952	63	127
117.63151927437642	117.86371882086168	73	127
117.63151927437642	117.8869387755102	61	127
117.63151927437642	117.8869387755102	64	127
117.63151927437642	117.8869387755102	56	127
118.00303854875284	118.28167800453515	70	127
118.00303854875284	118.28167800453515	64	127
118.00303854875284	118.28167800453515	68	127
118.00303854875284	118.28167800453515	56	127
118.83895691609978	119.16403628117914	73	127
118.83895691609978	119.16403628117914	61	127
118.83895691609978	119.16403628117914	64	127
118.83895691609978	119.16403628117914	56	127
119.28013605442177	119.55877551020409	70	127
119.28013605442177	119.55877551020409	64	127
119.28013605442177	119.55877551020409	68	127
119.28013605442177	119.55877551020409	56	127
120.1508843537415	120.45274376417234	71	127
120.1508843537415	120.45274376417234	63	127
120.1508843537415	120.45274376417234	68	127
120.1508843537415	120.45274376417234	56	127
120.58045351473923	120.83587301587302	68	127
120.58045351473923	120.83587301587302	59	127
120.58045351473923	120.83587301587302	63	127
120.58045351473923	120.83587301587302	56	127
121.41637188208617	121.718231292517	70	127
121.41637188208617	121.718231292517	58	127
121.41637188208617	121.718231292517	65	127
121.41637188208617	121.718231292517	50	127
121.88077097505669	122.159410430839	58	127
121.88077097505669	122.159410430839	68	127
121.88077097505669	122.159410430839	65	127
121.88077097505669	122.159410430839	50	127
122.71668934240363	123.06498866213153	67	127
122.71668934240363	123.06498866213153	63	127
122.71668934240363	123.06498866213153	58	127
122.71668934240363	123.06498866213153	51	127
123.18108843537415	123.48294784580499	70	127
123.18108843537415	123.48294784580499	63	127
123.18108843537415	123.48294784580499	55	127
123.18108843537415	123.48294784580499	51	127
124.04022675736961	124.33047619047619	75	127
124.04022675736961	124.33047619047619	63	127
124.04022675736961	124.33047619047619	54	127
124.04022675736961	124.33047619047619	47	127
124.44657596371881	124.72521541950114	75	127
124.44657596371881	124.72521541950114	63	127
124.44657596371881	124.72521541950114	54	127
124.44657596371881	124.72521541950114	47	127
124.87614512471656	125.1780045351474	75	127
124.87614512471656	125.1780045351474	63	127
124.87614512471656	125.1780045351474	54	127
124.87614512471656	125.1780045351474	47	127
125.30571428571429	125.57274376417233	73	127
125.30571428571429	125.57274376417233	64	127
125.30571428571429	125.57274376417233	55	127
125.30571428571429	125.57274376417233	47	127
125.6772335600907	125.96748299319728	70	127
125.6772335600907	125.96748299319728	67	127
125.6772335600907	125.96748299319728	61	127
125.6772335600907	125.96748299319728	47	127
126.5247619047619	126.79179138321996	73	127
126.5247619047619	126.79179138321996	64	127
126.5247619047619	126.79179138321996	55	127
126.5247619047619	126.79179138321996	47	127
126.90789115646258	127.17492063492064	70	127
126.90789115646258	127.17492063492064	67	127
126.90789115646258	127.17492063492064	61	127
126.90789115646258	127.17492063492064	47	127
127.73219954648526	128.0340589569161	71	127
127.73219954648526	128.0340589569161	66	127
127.73219954648526	128.0340589569161	63	127
127.73219954648526	128.0340589569161	47	127
128.13854875283448	128.39396825396827	66	127
128.13854875283448	128.39396825396827	63	127
128.13854875283448	128.39396825396827	59	127
128.13854875283448	128.39396825396827	47	127
128.93963718820862	129.20666666666668	67	127
128.93963718820862	129.20666666666668	61	127
128.93963718820862	129.20666666666668	58	127
128.93963718820862	129.20666666666668	40	127
129.3227664399093	129.6362358276644	64	127
129.3227664399093	129.6362358276644	61	127
129.3227664399093	129.6362358276644	58	127
129.3227664399093	129.6362358276644	40	127
130.19351473922902	130.55342403628117	63	127
130.19351473922902	130.55342403628117	59	127
130.19351473922902	130.55342403628117	47	127
130.71596371882086	131.02943310657596	66	127
130.71596371882086	131.02943310657596	63	127
130.71596371882086	131.02943310657596	59	127
130.71596371882086	131.02943310657596	47	127
131.60993197278913	131.91179138321996	66	127
131.60993197278913	131.91179138321996	63	127
131.60993197278913	131.91179138321996	59	127
131.60993197278913	132.91024943310657	75	127
132.03950113378684	132.3065306122449	59	127
132.03950113378684	132.3065306122449	66	127
132.03950113378684	132.3065306122449	63	127
132.48068027210886	132.77092970521542	63	127
132.48068027210886	132.77092970521542	59	127
132.48068027210886	132.77092970521542	66	127
132.91024943310657	133.2121088435374	58	127
132.91024943310657	134.22215419501134	78	127
132.91024943310657	133.2121088435374	66	127
132.91024943310657	133.2121088435374	61	127
133.32820861678005	133.67650793650793	61	127
133.32820861678005	133.67650793650793	66	127
133.32820861678005	133.67650793650793	58	127
133.79260770975057	134.10607709750568	61	127
133.79260770975057	134.10607709750568	66	127
133.79260770975057	134.10607709750568	58	127
134.22215419501134	134.67496598639457	54	127
134.22215419501134	134.67496598639457	66	127
134.22215419501134	135.24385487528346	82	127
134.22215419501134	134.67496598639457	58	127
134.80267573696145	135.10453514739228	54	127
134.80267573696145	135.10453514739228	66	127
134.80267573696145	135.10453514739228	58	127
135.24385487528346	135.7314739229025	66	127
135.24385487528346	135.7314739229025	59	127
135.24385487528346	135.7314739229025	51	127
135.24385487528346	136.11458049886622	90	127
135.89401360544218	136.19587301587302	59	127
135.89401360544218	136.19587301587302	66	127
135.89401360544218	136.19587301587302	51	127
136.11458049886622	136.83439909297053	83	127
136.31197278911566	136.69510204081632	66	127
136.31197278911566	136.69510204081632	51	127
136.31197278911566	136.69510204081632	59	127
136.83439909297053	137.15950113378685	66	127
136.83439909297053	137.15950113378685	59	127
136.83439909297053	137.15950113378685	51	127
136.83439909297053	137.50780045351473	81	127
137.28721088435375	137.5890702947846	66	127
137.28721088435375	137.5890702947846	59	127
137.28721088435375	137.5890702947846	51	127
137.50780045351473	138.12312925170068	83	127
137.7051700680272	138.0186394557823	51	127
137.7051700680272	138.0186394557823	66	127
137.7051700680272	138.0186394557823	59	127
138.12312925170068	138.47142857142856	59	127
138.12312925170068	138.47142857142856	66	127
138.12312925170068	138.47142857142856	51	127
138.12312925170068	138.88938775510204	81	127
138.5875283446712	138.9938775510204	59	127
138.5875283446712	138.9938775510204	64	127
138.5875283446712	138.9938775510204	52	127
138.88938775510204	139.57437641723357	79	127
139.1215873015873	139.42344671201815	64	127
139.1215873015873	139.42344671201815	59	127
139.1215873015873	139.42344671201815	52	127
139.58598639455784	139.91106575963718	52	127
139.58598639455784	139.91106575963718	64	127
139.58598639455784	139.91106575963718	59	127
140.0387755102041	140.39868480725625	58	127
140.0387755102041	140.39868480725625	52	127
140.0387755102041	141.52485260770976	79	127
140.0387755102041	140.39868480725625	61	127
140.57283446712017	140.88630385487528	61	127
140.57283446712017	140.88630385487528	58	127
140.57283446712017	140.88630385487528	52	127
141.0372335600907	141.4203628117914	58	127
141.0372335600907	141.4203628117914	52	127
141.0372335600907	141.4203628117914	61	127
141.54807256235827	141.86154195011338	63	127
141.54807256235827	141.86154195011338	59	127
141.54807256235827	141.86154195011338	51	127
141.54807256235827	142.8251700680272	78	127
141.97764172335602	142.26789115646258	63	127
141.97764172335602	142.26789115646258	59	127
141.97764172335602	142.26789115646258	51	127
142.38399092970522	142.72068027210884	63	127
142.38399092970522	142.72068027210884	51	127
142.38399092970522	142.72068027210884	59	127
142.83678004535147	143.1386394557823	59	127
142.83678004535147	143.67269841269842	69	127
142.83678004535147	143.1386394557823	66	127
142.83678004535147	143.1386394557823	63	127
143.26634920634922	143.53337868480725	63	127
143.26634920634922	143.53337868480725	59	127
143.26634920634922	143.53337868480725	66	127
143.68428571428572	143.99777777777777	59	127
143.68428571428572	143.99777777777777	66	127
143.68428571428572	143.99777777777777	63	127
144.13709750566895	144.4621768707483	63	127
144.13709750566895	144.4621768707483	58	127
144.13709750566895	144.4621768707483	66	127
144.38090702947846	145.11231292517007	70	127
144.6827664399093	144.98462585034014	63	127
144.6827664399093	144.98462585034014	58	127
144.6827664399093	144.98462585034014	66	127
145.11231292517007	145.4954648526077	58	127
145.11231292517007	145.4954648526077	66	127
145.11231292517007	145.4954648526077	63	127
145.11231292517007	145.8437641723356	66	127
145.62315192743765	146.05274376417233	62	127
145.62315192743765	146.05274376417233	56	127
145.62315192743765	146.05274376417233	46	127
145.8437641723356	147.45755102040818	65	127
146.18045351473924	146.5403628117914	62	127
146.18045351473924	146.5403628117914	56	127
146.18045351473924	146.5403628117914	46	127
146.656462585034	147.09764172335602	46	127
146.656462585034	147.09764172335602	62	127
146.656462585034	147.09764172335602	56	127
147.21374149659863	147.6200680272109	39	127
147.21374149659863	147.6200680272109	58	127
147.21374149659863	147.6200680272109	54	127
147.45755102040818	148.14253968253968	63	127
147.74780045351474	148.0264172335601	58	127
147.74780045351474	148.0264172335601	54	127
147.74780045351474	148.0264172335601	39	127
148.57210884353742	149.11777777777777	39	127
148.57210884353742	149.11777777777777	75	127
148.57210884353742	149.11777777777777	63	127
148.57210884353742	149.11777777777777	55	127
149.24548752834468	149.57056689342403	75	127
149.24548752834468	149.57056689342403	63	127
149.24548752834468	149.57056689342403	55	127
149.24548752834468	149.57056689342403	39	127
149.744716553288	150.0581859410431	75	127
149.744716553288	150.0581859410431	63	127
149.744716553288	150.0581859410431	55	127
149.744716553288	150.0581859410431	39	127
150.22072562358278	150.5341723356009	73	127
150.22072562358278	150.5341723356009	64	127
150.22072562358278	150.5341723356009	56	127
150.22072562358278	150.5341723356009	39	127
150.66190476190476	150.9637641723356	70	127
150.66190476190476	150.9637641723356	68	127
150.66190476190476	150.9637641723356	61	127
150.66190476190476	150.9637641723356	39	127
151.54426303854876	151.78807256235828	73	127
151.54426303854876	151.78807256235828	64	127
151.54426303854876	151.78807256235828	56	127
151.54426303854876	151.78807256235828	39	127
151.91578231292516	152.17120181405895	70	127
151.91578231292516	152.17120181405895	68	127
151.91578231292516	152.17120181405895	61	127
151.91578231292516	152.17120181405895	39	127
152.71687074829933	153.01873015873016	71	127
152.71687074829933	153.01873015873016	63	127
152.71687074829933	153.01873015873016	56	127
152.71687074829933	153.01873015873016	39	127
153.14643990929704	153.44827664399094	68	127
153.14643990929704	153.44827664399094	63	127
153.14643990929704	153.44827664399094	59	127
153.14643990929704	153.44827664399094	39	127
154.0404081632653	154.41192743764174	70	127
154.0404081632653	154.41192743764174	61	127
154.0404081632653	154.41192743764174	55	127
154.0404081632653	154.41192743764174	39	127
154.52802721088435	154.80666666666667	64	127
154.52802721088435	154.80666666666667	61	127
154.52802721088435	154.80666666666667	55	127
154.52802721088435	154.80666666666667	39	127
155.3639455782313	155.68902494331067	64	127
155.3639455782313	155.68902494331067	59	127
155.3639455782313	155.68902494331067	56	127
155.3639455782313	155.68902494331067	39	127
155.81673469387755	156.0837641723356	63	127
155.81673469387755	156.0837641723356	59	127
155.81673469387755	156.0837641723356	56	127
155.81673469387755	156.0837641723356	39	127
156.6526530612245	156.95451247165533	80	127
156.6526530612245	156.95451247165533	68	127
156.6526530612245	156.95451247165533	59	127
156.6526530612245	156.95451247165533	40	127
157.0822222222222	157.39569160997732	80	127
157.0822222222222	157.39569160997732	68	127
157.0822222222222	157.39569160997732	59	127
157.0822222222222	157.39569160997732	40	127
157.52340136054423	157.76721088435374	80	127
157.52340136054423	157.76721088435374	68	127
157.52340136054423	157.76721088435374	59	127
157.52340136054423	157.76721088435374	40	127
157.8717006802721	158.15031746031747	69	127
157.8717006802721	158.15031746031747	78	127
157.8717006802721	158.15031746031747	60	127
157.8717006802721	158.15031746031747	40	127
158.26643990929705	158.54507936507937	75	127
158.26643990929705	158.54507936507937	66	127
158.26643990929705	158.54507936507937	72	127
158.26643990929705	158.54507936507937	40	127
159.102358276644	159.39260770975056	78	127
159.102358276644	159.39260770975056	69	127
159.102358276644	159.39260770975056	60	127
159.102358276644	159.39260770975056	40	127
159.54353741496598	159.8221768707483	75	127
159.54353741496598	159.8221768707483	72	127
159.54353741496598	159.8221768707483	66	127
159.54353741496598	159.8221768707483	40	127
160.3910657596372	160.68131519274377	76	127
160.3910657596372	160.68131519274377	68	127
160.3910657596372	160.68131519274377	59	127
160.3910657596372	160.68131519274377	40	127
160.8090022675737	161.0760544217687	71	127
160.8090022675737	161.0760544217687	68	127
160.8090022675737	161.0760544217687	64	127
160.8090022675737	161.0760544217687	40	127
161.59850340136055	161.8887528344671	72	127
161.59850340136055	161.8887528344671	66	127
161.59850340136055	161.8887528344671	63	127
161.59850340136055	161.8887528344671	45	127
161.99324263038548	162.2718820861678	69	127
161.99324263038548	162.2718820861678	66	127
161.99324263038548	162.2718820861678	63	127
161.99324263038548	162.2718820861678	45	127
162.82916099773243	163.17746031746032	64	127
162.82916099773243	163.17746031746032	68	127
162.82916099773243	163.17746031746032	52	127
163.30517006802722	163.6882993197279	68	127
163.30517006802722	163.6882993197279	64	127
163.30517006802722	163.6882993197279	52	127
163.30517006802722	163.6882993197279	71	127
164.25718820861678	165.48784580498867	56	127
164.25718820861678	164.58226757369616	71	127
164.25718820861678	164.58226757369616	68	127
164.25718820861678	164.58226757369616	64	127
164.70997732426304	164.9770068027211	68	127
164.70997732426304	164.9770068027211	64	127
164.70997732426304	164.9770068027211	71	127
165.09310657596373	165.36013605442176	71	127
165.09310657596373	165.36013605442176	68	127
165.09310657596373	165.36013605442176	64	127
165.48784580498867	165.83614512471655	71	127
165.48784580498867	165.83614512471655	66	127
165.48784580498867	165.83614512471655	63	127
165.48784580498867	166.90426303854875	59	127
165.9522448979592	166.33537414965986	66	127
165.9522448979592	166.33537414965986	63	127
165.9522448979592	166.33537414965986	71	127
166.46308390022676	166.77655328798187	63	127
166.46308390022676	166.77655328798187	66	127
166.46308390022676	166.77655328798187	71	127
166.90426303854875	167.19448979591837	59	127
166.90426303854875	167.19448979591837	66	127
166.90426303854875	167.71696145124716	63	127
166.90426303854875	167.19448979591837	63	127
167.32222222222222	167.58925170068028	59	127
167.32222222222222	167.58925170068028	66	127
167.32222222222222	167.58925170068028	63	127
167.72857142857143	168.00721088435375	64	127
167.72857142857143	168.00721088435375	56	127
167.72857142857143	168.42514739229026	71	127
167.72857142857143	168.00721088435375	71	127
168.1465306122449	168.48321995464852	71	127
168.1465306122449	168.48321995464852	64	127
168.1465306122449	168.48321995464852	56	127
168.42514739229026	169.0521088435374	64	127
168.63414965986394	168.901179138322	56	127
168.63414965986394	168.901179138322	71	127
168.63414965986394	168.901179138322	64	127
169.0521088435374	169.4004081632653	71	127
169.0521088435374	169.4004081632653	64	127
169.0521088435374	169.4004081632653	56	127
169.0521088435374	169.82997732426304	62	127
169.59775510204082	169.88802721088436	56	127
169.59775510204082	169.88802721088436	71	127
169.59775510204082	169.88802721088436	64	127
169.82997732426304	170.51496598639457	64	127
170.0273469387755	170.36401360544218	64	127
170.0273469387755	170.36401360544218	56	127
170.0273469387755	170.36401360544218	71	127
170.51496598639457	170.84004535147392	56	127
170.51496598639457	170.84004535147392	71	127
170.51496598639457	170.84004535147392	64	127
170.51496598639457	171.17673469387756	62	127
170.97934240362812	171.24639455782312	64	127
170.97934240362812	171.24639455782312	57	127
171.17673469387756	171.81528344671202	60	127
171.38569160997733	171.67596371882087	64	127
171.38569160997733	171.67596371882087	57	127
171.82689342403629	172.12875283446712	64	127
171.82689342403629	172.12875283446712	57	127
172.25643990929706	172.55832199546487	66	127
172.25643990929706	172.55832199546487	57	127
172.25643990929706	173.62643990929706	72	127
172.25643990929706	172.55832199546487	63	127
172.68603174603174	173.05755102040817	66	127
172.68603174603174	173.05755102040817	57	127
172.68603174603174	173.05755102040817	63	127
173.18526077097505	173.49873015873015	63	127
173.18526077097505	173.49873015873015	66	127
173.18526077097505	173.49873015873015	57	127
173.62643990929706	173.93990929705217	68	127
173.62643990929706	173.93990929705217	64	127
173.62643990929706	173.93990929705217	56	127
173.62643990929706	174.96158730158731	71	127
174.0908390022676	174.39269841269842	68	127
174.0908390022676	174.39269841269842	56	127
174.0908390022676	174.39269841269842	64	127
174.5204081632653	174.84548752834468	56	127
174.5204081632653	174.84548752834468	68	127
174.5204081632653	174.84548752834468	64	127
174.96158730158731	175.3098866213152	52	127
174.96158730158731	175.3098866213152	59	127
174.96158730158731	175.92521541950114	62	127
174.96158730158731	175.3098866213152	56	127
175.4724263038549	175.77428571428572	56	127
175.4724263038549	175.77428571428572	59	127
175.4724263038549	175.77428571428572	52	127
175.93680272108844	176.31995464852608	56	127
175.93680272108844	176.31995464852608	59	127
175.93680272108844	176.31995464852608	52	127
176.49410430839004	176.84240362811792	51	127
176.49410430839004	176.84240362811792	59	127
176.49410430839004	176.84240362811792	56	127
176.72630385487528	177.51578231292518	63	127
177.0049433106576	177.36485260770976	59	127
177.0049433106576	177.36485260770976	56	127
177.0049433106576	177.36485260770976	51	127
177.51578231292518	178.40975056689342	59	127
177.51578231292518	177.9221315192744	59	127
177.51578231292518	177.9221315192744	56	127
177.51578231292518	177.9221315192744	51	127
178.0730612244898	178.50263038548752	61	127
178.0730612244898	178.50263038548752	55	127
178.0730612244898	178.50263038548752	39	127
178.40975056689342	179.15278911564627	58	127
178.6651700680272	179.00183673469388	61	127
178.6651700680272	179.00183673469388	55	127
178.6651700680272	178.97863945578231	39	127
179.15278911564627	179.50108843537416	55	127
179.15278911564627	179.6404081632653	61	127
179.15278911564627	179.90743764172336	58	127
179.6404081632653	180.01192743764173	51	127
179.6404081632653	180.15124716553288	59	127
179.6404081632653	180.15124716553288	44	127
179.90743764172336	180.74333333333334	56	127
180.15124716553288	180.74333333333334	59	127
180.15124716553288	180.58081632653062	51	127
180.15124716553288	180.74333333333334	44	127
181.43995464852608	181.86950113378686	46	127
181.88113378684807	182.33392290249432	46	127
182.3455328798186	183.7271201814059	64	127
182.3455328798186	183.7271201814059	56	127
182.9956916099773	183.43687074829933	47	127
183.4484807256236	184.05219954648527	47	127
183.7271201814059	184.05219954648527	66	127
183.7271201814059	184.05219954648527	59	127
184.06378684807257	185.0854648526077	59	127
184.06378684807257	185.0854648526077	66	127
185.0854648526077	185.37573696145125	64	127
185.0854648526077	185.37573696145125	68	127
185.38734693877552	188.33628117913833	68	127
185.38734693877552	188.33628117913833	64	127
185.8285260770975	186.29292517006803	47	127
186.3045351473923	186.73410430839002	47	127
187.18687074829933	187.7093424036281	49	127
187.72095238095238	188.32467120181406	49	127
188.33628117913833	189.4856462585034	68	127
188.33628117913833	189.4856462585034	60	127
188.33628117913833	189.4856462585034	63	127
188.7774603174603	189.29990929705215	51	127
189.33473922902493	189.77591836734695	51	127
189.4856462585034	189.77591836734695	70	127
189.4856462585034	189.77591836734695	63	127
189.4856462585034	189.77591836734695	67	127
189.78752834467122	190.8904761904762	67	127
189.78752834467122	190.8904761904762	70	127
189.78752834467122	190.8904761904762	63	127
190.8904761904762	191.2039455782313	68	127
190.8904761904762	191.2039455782313	68	127
190.8904761904762	191.2039455782313	72	127
191.21555555555557	195.15133786848074	72	127
191.21555555555557	193.81619047619049	68	127
191.21555555555557	193.81619047619049	68	127
191.633514739229	192.12113378684808	51	127
192.13274376417235	192.6087528344671	51	127
193.04993197278912	193.50272108843538	53	127
193.5259410430839	194.11804988662132	53	127
194.1296598639456	195.15133786848074	67	127
194.1296598639456	195.15133786848074	63	127
194.54761904761904	195.01201814058956	55	127
195.02362811791383	195.52285714285713	55	127
195.15133786848074	195.52285714285713	71	127
195.15133786848074	195.52285714285713	74	127
195.15133786848074	195.52285714285713	67	127
195.54607709750567	196.61419501133787	74	127
195.54607709750567	196.61419501133787	71	127
195.54607709750567	196.71868480725624	67	127
196.61419501133787	196.9160544217687	75	127
196.61419501133787	196.9160544217687	72	127
196.92766439909298	197.87968253968253	75	127
196.92766439909298	197.87968253968253	72	127
196.92766439909298	197.87968253968253	67	127
197.87968253968253	198.30925170068028	79	127
197.87968253968253	198.30925170068028	73	127
197.87968253968253	198.30925170068028	70	127
198.32086167800455	200.19006802721088	73	127
198.32086167800455	200.19006802721088	79	127
198.32086167800455	200.19006802721088	70	127
200.19006802721088	201.0027664399093	72	127
200.19006802721088	208.43315192743765	75	127
200.19006802721088	201.0027664399093	75	127
201.0027664399093	201.6645351473923	70	127
201.0027664399093	201.6645351473923	73	127
201.6645351473923	202.54689342403628	67	127
201.6645351473923	202.54689342403628	70	127
202.54689342403628	203.2667120181406	65	127
202.54689342403628	203.2667120181406	68	127
203.2667120181406	203.96331065759637	63	127
203.2667120181406	203.96331065759637	67	127
203.96331065759637	204.6134693877551	65	127
203.96331065759637	204.6134693877551	61	127
204.6134693877551	205.32167800453516	63	127
204.6134693877551	205.32167800453516	60	127
205.32167800453516	206.09954648526076	58	127
205.32167800453516	206.99351473922903	61	127
206.09954648526076	206.99351473922903	55	127
206.99351473922903	207.99197278911564	58	127
206.99351473922903	207.99197278911564	49	127
208.0035827664399	209.03687074829932	51	127
208.0035827664399	209.03687074829932	56	127
208.0035827664399	209.03687074829932	48	127
208.43315192743765	208.92077097505668	74	127
208.92077097505668	209.81473922902495	75	127
209.03687074829932	209.33873015873016	58	127
209.03687074829932	209.33873015873016	55	127
209.03687074829932	209.33873015873016	51	127
209.35034013605443	210.5809977324263	55	127
209.35034013605443	210.5809977324263	58	127
209.35034013605443	210.5809977324263	51	127
209.81473922902495	210.46489795918367	74	127
210.46489795918367	211.44013605442177	75	127
210.5809977324263	210.94090702947847	60	127
210.5809977324263	210.94090702947847	56	127
210.5809977324263	210.94090702947847	56	127
210.9525170068027	214.33102040816325	60	127
210.9525170068027	212.04385487528344	56	127
210.9525170068027	212.04385487528344	56	127
211.46335600907028	211.84648526077098	76	127
211.84648526077098	212.25283446712018	77	127
212.26444444444445	212.68240362811792	77	127
212.26444444444445	213.3790022675737	53	127
212.26444444444445	213.3790022675737	44	127
212.68240362811792	213.22807256235828	74	127
213.22807256235828	214.12204081632652	75	127
213.3790022675737	213.6924716553288	48	127
213.3790022675737	213.6924716553288	55	127
213.70408163265307	214.67931972789117	55	127
213.70408163265307	214.67931972789117	48	127
214.12204081632652	214.56321995464853	72	127
214.33102040816325	215.7590476190476	56	127
214.56321995464853	215.53845804988663	73	127
214.67931972789117	214.99278911564625	53	127
214.67931972789117	214.99278911564625	56	127
215.00439909297052	215.7590476190476	56	127
215.00439909297052	215.7590476190476	53	127
215.56167800453514	215.9796371882086	76	127
215.7590476190476	216.40920634920636	68	127
215.7590476190476	216.40920634920636	61	127
215.7590476190476	216.40920634920636	49	127
215.9796371882086	216.4208163265306	77	127
216.4208163265306	216.83877551020407	82	127
216.4208163265306	217.44249433106575	49	127
216.4208163265306	217.44249433106575	41	127
216.4208163265306	220.34498866213153	56	127
216.4208163265306	220.34498866213153	68	127
216.83877551020407	217.3380045351474	79	127
217.3380045351474	217.76757369614512	80	127
217.44249433106575	217.76757369614512	51	127
217.44249433106575	217.76757369614512	44	127
217.79079365079366	218.30163265306123	44	127
217.79079365079366	218.30163265306123	51	127
217.79079365079366	218.30163265306123	79	127
218.30163265306123	218.76603174603176	48	127
218.30163265306123	218.7544217687075	56	127
218.30163265306123	218.76603174603176	76	127
218.76603174603176	219.20721088435374	49	127
218.76603174603176	219.20721088435374	77	127
218.76603174603176	219.20721088435374	56	127
219.218820861678	219.93863945578232	49	127
219.218820861678	219.70643990929705	77	127
219.218820861678	219.70643990929705	56	127
219.70643990929705	220.20566893424035	61	127
219.70643990929705	220.21727891156462	68	127
219.93863945578232	220.64684807256236	51	127
220.21727891156462	220.64684807256236	75	127
220.21727891156462	220.64684807256236	60	127
220.65845804988663	220.98353741496598	56	127
220.65845804988663	222.72503401360544	53	127
220.65845804988663	221.09963718820862	75	127
220.65845804988663	220.98353741496598	58	127
220.65845804988663	220.98353741496598	68	127
221.09963718820862	221.4479365079365	68	127
221.09963718820862	221.4479365079365	56	127
221.09963718820862	221.4479365079365	59	127
221.09963718820862	221.59886621315192	73	127
221.59886621315192	222.04004535147394	74	127
222.05165532879818	222.353514739229	56	127
222.05165532879818	222.353514739229	58	127
222.05165532879818	222.353514739229	68	127
222.48122448979592	222.8063038548753	56	127
222.48122448979592	222.8063038548753	68	127
222.48122448979592	222.8063038548753	59	127
222.48122448979592	222.8295238095238	76	127
222.72503401360544	223.41002267573697	51	127
222.98045351473922	223.2707029478458	77	127
223.42163265306124	223.74671201814058	68	127
223.42163265306124	223.74671201814058	58	127
223.42163265306124	224.07179138321996	51	127
223.8744217687075	224.25755102040816	70	127
223.8744217687075	224.25755102040816	65	127
223.8744217687075	224.3039909297052	79	127
224.08340136054423	224.9425396825397	50	127
224.4665306122449	224.80321995464854	80	127
224.95414965986396	225.29083900226757	56	127
224.95414965986396	225.29083900226757	68	127
224.95414965986396	225.4069387755102	75	127
224.95414965986396	225.4069387755102	58	127
224.95414965986396	226.80013605442176	53	127
225.4069387755102	225.76684807256237	68	127
225.4069387755102	225.89455782312925	59	127
225.4069387755102	225.90616780045352	73	127
225.4069387755102	225.76684807256237	56	127
225.90616780045352	226.33573696145126	74	127
226.3473469387755	226.80013605442176	58	127
226.3473469387755	226.67242630385488	56	127
226.3473469387755	226.67242630385488	68	127
226.80013605442176	227.05555555555554	56	127
226.80013605442176	227.05555555555554	68	127
226.80013605442176	227.07877551020408	79	127
226.80013605442176	227.19487528344672	59	127
226.99750566893425	227.71732426303853	51	127
227.20648526077096	227.49673469387756	80	127
227.7289342403628	228.1120634920635	68	127
227.7289342403628	228.26299319727892	58	127
227.7289342403628	228.49519274376416	50	127
228.26299319727892	228.57646258503402	65	127
228.26299319727892	228.62290249433107	82	127
228.26299319727892	228.72739229024944	70	127
228.50680272108843	229.13374149659865	44	127
228.7390022675737	229.00603174603174	83	127
229.14535147392291	229.5865306122449	58	127
229.14535147392291	229.5865306122449	70	127
229.14535147392291	230.53854875283446	43	127
229.14535147392291	229.72585034013605	82	127
229.14535147392291	229.5865306122449	62	127
229.72585034013605	230.07414965986393	70	127
229.72585034013605	230.07414965986393	63	127
229.72585034013605	230.07414965986393	58	127
229.72585034013605	230.2134693877551	79	127
230.2134693877551	231.33963718820863	70	127
230.79396825396825	231.21192743764172	64	127
230.79396825396825	231.21192743764172	58	127
230.79396825396825	232.1987755102041	46	127
231.33963718820863	231.66471655328797	65	127
231.33963718820863	231.66471655328797	58	127
231.33963718820863	231.82725623582766	68	127
231.82725623582766	232.7560544217687	62	127
232.4193650793651	232.73283446712017	58	127
232.4193650793651	233.49909297052153	51	127
232.4193650793651	232.73283446712017	67	127
232.7560544217687	233.05791383219955	63	127
232.86054421768708	233.12757369614513	63	127
232.86054421768708	233.12757369614513	59	127
233.05791383219955	233.38299319727892	67	127
233.38299319727892	233.917052154195	70	127
233.92866213151927	234.90390022675737	60	127
233.92866213151927	234.2653514739229	75	127
233.92866213151927	234.90390022675737	68	127
234.2653514739229	234.578820861678	74	127
234.578820861678	234.90390022675737	75	127
234.90390022675737	235.240589569161	70	127
234.90390022675737	235.240589569161	63	127
234.90390022675737	235.5888888888889	63	127
235.25219954648526	236.2158276643991	70	127
235.25219954648526	236.2158276643991	67	127
235.5888888888889	235.90235827664398	62	127
235.90235827664398	236.2158276643991	63	127
236.2158276643991	236.55251700680273	68	127
236.2158276643991	236.85437641723357	75	127
236.2158276643991	236.55251700680273	72	127
236.56412698412697	238.77002267573695	72	127
236.56412698412697	237.60902494331066	68	127
236.87759637188208	237.20267573696145	68	127
237.20267573696145	237.82961451247166	63	127
237.20267573696145	237.5045351473923	72	127
237.5045351473923	237.82961451247166	75	127
237.82961451247166	238.14308390022677	56	127
237.82961451247166	238.78163265306122	65	127
237.82961451247166	238.14308390022677	80	127
238.14308390022677	238.45655328798185	79	127
238.14308390022677	238.45655328798185	60	127
238.45655328798185	238.78163265306122	80	127
238.45655328798185	238.78163265306122	65	127
238.78163265306122	239.08349206349206	63	127
238.78163265306122	239.08349206349206	67	127
238.78163265306122	239.09510204081633	60	127
238.78163265306122	239.39696145124717	68	127
239.09510204081633	239.39696145124717	63	127
239.09510204081633	240.05873015873016	67	127
239.09510204081633	240.05873015873016	63	127
239.39696145124717	239.71043083900227	67	127
239.71043083900227	240.05873015873016	68	127
239.71043083900227	240.05873015873016	72	127
240.05873015873016	240.38380952380953	65	127
240.05873015873016	240.38380952380953	61	127
240.05873015873016	240.65083900226756	80	127
240.05873015873016	240.38380952380953	73	127
240.39541950113377	241.01074829931972	61	127
240.39541950113377	241.34743764172336	65	127
240.39541950113377	241.34743764172336	73	127
240.6740589569161	241.02235827664398	73	127
241.02235827664398	241.76539682539683	65	127
241.02235827664398	241.34743764172336	77	127
241.34743764172336	241.76539682539683	80	127
241.34743764172336	241.75378684807256	53	127
241.34743764172336	241.75378684807256	61	127
241.76539682539683	242.75224489795917	68	127
241.76539682539683	242.07886621315194	85	127
241.76539682539683	242.07886621315194	53	127
241.76539682539683	242.74063492063493	61	127
242.07886621315194	242.4039455782313	84	127
242.07886621315194	242.4039455782313	56	127
242.4039455782313	242.75224489795917	85	127
242.4039455782313	242.75224489795917	61	127
242.75224489795917	243.06571428571428	55	127
242.75224489795917	243.05410430839	63	127
242.75224489795917	243.05410430839	67	127
242.75224489795917	243.06571428571428	75	127
243.06571428571428	243.37918367346938	63	127
243.06571428571428	243.37918367346938	58	127
243.06571428571428	243.37918367346938	87	127
243.06571428571428	244.01773242630387	67	127
243.37918367346938	243.70426303854876	86	127
243.37918367346938	244.01773242630387	51	127
243.37918367346938	243.70426303854876	63	127
243.70426303854876	244.01773242630387	67	127
243.70426303854876	244.01773242630387	87	127
244.01773242630387	244.4356916099773	77	127
244.01773242630387	244.4356916099773	68	127
244.01773242630387	244.4356916099773	49	127
244.01773242630387	244.4356916099773	65	127
244.44730158730158	245.1671201814059	65	127
244.44730158730158	244.78399092970523	89	127
244.44730158730158	244.78399092970523	68	127
244.44730158730158	245.1671201814059	49	127
244.78399092970523	245.17873015873016	80	127
244.78399092970523	245.52702947845805	73	127
245.17873015873016	245.92176870748298	51	127
245.17873015873016	245.92176870748298	63	127
245.17873015873016	245.52702947845805	92	127
245.52702947845805	245.92176870748298	80	127
245.52702947845805	245.92176870748298	72	127
245.93337868480725	247.95351473922904	62	127
245.93337868480725	246.2932879818594	70	127
245.93337868480725	246.4558276643991	92	127
245.93337868480725	247.7445351473923	53	127
246.2932879818594	246.68802721088434	74	127
246.4558276643991	246.92022675736962	91	127
246.68802721088434	247.024716553288	77	127
246.92022675736962	247.73292517006803	92	127
247.024716553288	247.31496598639455	82	127
247.32657596371882	248.16249433106577	83	127
247.7445351473923	248.16249433106577	89	127
247.95351473922904	248.63850340136054	51	127
247.95351473922904	248.63850340136054	63	127
248.16249433106577	248.6501133786848	71	127
248.16249433106577	249.16095238095238	80	127
248.6501133786848	249.35832199546485	51	127
248.6501133786848	249.35832199546485	63	127
248.6501133786848	249.57891156462586	70	127
249.16095238095238	249.57891156462586	79	127
249.35832199546485	250.05492063492065	62	127
249.35832199546485	250.05492063492065	53	127
249.57891156462586	250.05492063492065	80	127
249.57891156462586	250.05492063492065	71	127
250.0665306122449	250.61219954648527	92	127
250.0665306122449	250.48448979591836	70	127
250.0665306122449	251.97056689342404	53	127
250.0665306122449	252.19115646258504	62	127
250.48448979591836	250.8560090702948	74	127
250.61219954648527	251.05337868480726	91	127
250.8560090702948	251.15786848072563	77	127
251.05337868480726	251.95895691609977	92	127
251.15786848072563	251.51777777777778	82	127
251.52938775510205	252.5162358276644	83	127
251.97056689342404	252.5162358276644	89	127
252.19115646258504	252.94580498866213	51	127
252.19115646258504	252.94580498866213	67	127
252.5162358276644	252.96902494331067	71	127
252.5162358276644	253.44503401360544	80	127
252.96902494331067	253.8978231292517	70	127
252.96902494331067	253.65401360544217	51	127
252.96902494331067	253.65401360544217	67	127
253.44503401360544	253.8978231292517	82	127
253.65401360544217	254.4318820861678	65	127
253.65401360544217	254.4318820861678	50	127
253.8978231292517	254.9659410430839	83	127
253.8978231292517	254.4318820861678	68	127
254.44349206349207	255.1865306122449	51	127
254.44349206349207	255.1865306122449	67	127
254.44349206349207	255.85990929705216	67	127
254.97755102040816	255.39551020408163	81	127
255.1865306122449	255.85990929705216	55	127
255.1865306122449	256.6261678004535	63	127
255.39551020408163	256.30108843537414	82	127
255.85990929705216	256.6261678004535	65	127
255.85990929705216	257.64784580498866	58	127
256.30108843537414	257.11378684807255	80	127
256.6261678004535	257.64784580498866	68	127
256.6261678004535	257.64784580498866	62	127
257.11378684807255	257.6246258503401	77	127
257.64784580498866	257.96131519274377	75	127
257.64784580498866	258.75079365079364	67	127
257.64784580498866	258.75079365079364	70	127
257.64784580498866	258.75079365079364	63	127
257.96131519274377	258.25156462585034	79	127
258.25156462585034	258.64630385487527	82	127
258.64630385487527	258.9597732426304	87	127
258.9597732426304	261.08437641723356	91	127
260.19043083900226	260.4922902494331	64	127
260.4922902494331	260.8057596371882	67	127
260.8057596371882	261.08437641723356	72	127
261.08437641723356	261.3978684807256	76	127
261.3978684807256	261.69972789115644	59	127
261.3978684807256	261.69972789115644	62	127
261.3978684807256	262.41954648526075	79	127
261.69972789115644	262.00156462585034	62	127
261.69972789115644	262.00156462585034	67	127
262.00156462585034	262.3150566893424	67	127
262.00156462585034	262.3150566893424	71	127
262.3150566893424	262.605306122449	71	127
262.3150566893424	262.605306122449	74	127
262.605306122449	264.6718820861678	72	127
262.605306122449	262.8955555555556	76	127
262.605306122449	263.5689342403628	79	127
262.8955555555556	263.15097505668933	79	127
263.15097505668933	263.46444444444444	84	127
263.46444444444444	263.7430612244898	88	127
263.7430612244898	264.77637188208615	91	127
263.7430612244898	264.05655328798184	64	127
264.05655328798184	264.37002267573695	67	127
264.37002267573695	264.6718820861678	72	127
264.6718820861678	264.9737414965986	76	127
264.9737414965986	265.99541950113377	79	127
264.9737414965986	265.2755782312925	62	127
264.9737414965986	265.2755782312925	59	127
265.2755782312925	265.58907029478456	62	127
265.2755782312925	265.58907029478456	67	127
265.58907029478456	265.8909297052154	67	127
265.58907029478456	265.8909297052154	71	127
265.8909297052154	266.1927664399093	74	127
265.8909297052154	266.1927664399093	71	127
266.1927664399093	267.30734693877554	72	127
266.1927664399093	266.50625850340134	75	127
266.1927664399093	268.5728344671202	79	127
266.50625850340134	266.8313378684807	79	127
266.8313378684807	267.16802721088436	84	127
267.16802721088436	267.5163038548753	87	127
267.5163038548753	267.8414058956916	63	127
267.5163038548753	268.8863038548753	91	127
267.8414058956916	268.17809523809524	67	127
268.17809523809524	268.5728344671202	70	127
268.5728344671202	268.8863038548753	75	127
268.8863038548753	271.080589569161	94	127
268.8863038548753	269.53646258503403	79	127
268.8863038548753	270.33755102040817	61	127
269.5480725623583	271.31278911564624	75	127
270.33755102040817	271.962947845805	60	127
271.0921768707483	271.53337868480725	91	127
271.31278911564624	271.9513378684807	68	127
271.53337868480725	271.962947845805	92	127
271.962947845805	272.5318140589569	91	127
271.962947845805	273.35614512471653	61	127
272.5318140589569	272.94979591836733	88	127
272.94979591836733	273.35614512471653	89	127
273.35614512471653	273.8089342403628	85	127
273.35614512471653	274.84222222222223	65	127
273.35614512471653	274.84222222222223	49	127
273.8089342403628	274.3197732426304	80	127
274.3197732426304	274.83061224489796	77	127
274.84222222222223	276.24702947845805	48	127
274.84222222222223	275.3530612244898	82	127
274.84222222222223	276.24702947845805	63	127
275.3530612244898	275.8058276643991	79	127
275.8058276643991	276.2354195011338	80	127
276.24702947845805	277.55895691609976	49	127
276.24702947845805	276.6765986394558	79	127
276.24702947845805	277.3383446712018	56	127
276.6765986394558	277.1177777777778	76	127
277.1177777777778	277.55895691609976	77	127
277.55895691609976	279.2075736961451	53	127
277.55895691609976	278.1510430839002	73	127
277.55895691609976	278.91732426303855	37	127
278.1510430839002	278.6502947845805	68	127
278.6502947845805	279.1843537414966	65	127
279.2075736961451	279.74163265306123	70	127
279.2075736961451	280.46145124716554	36	127
279.2075736961451	280.7168707482993	51	127
279.74163265306123	280.22925170068027	67	127
280.22925170068027	280.7052380952381	68	127
280.7168707482993	282.02879818594107	37	127
280.7168707482993	281.2277097505669	66	127
280.7168707482993	283.13174603174605	56	127
281.2277097505669	281.7501587301587	63	127
281.7501587301587	282.27260770975056	64	127
282.28421768707483	282.8298866213152	61	127
282.28421768707483	283.63097505668935	40	127
282.8298866213152	283.3987755102041	56	127
283.13174603174605	283.8863945578231	49	127
283.3987755102041	283.8863945578231	58	127
283.8980045351474	284.40884353741495	44	127
283.8980045351474	285.0938321995465	60	127
283.8980045351474	285.0938321995465	56	127
283.8980045351474	285.0938321995465	51	127
284.40884353741495	284.95451247165533	43	127
284.95451247165533	285.44213151927437	44	127
285.0938321995465	285.44213151927437	56	127
285.0938321995465	285.44213151927437	63	127
285.0938321995465	285.44213151927437	60	127
285.45374149659864	285.9181179138322	42	127
285.45374149659864	286.53344671201813	63	127
285.45374149659864	286.53344671201813	60	127
285.45374149659864	286.53344671201813	56	127
285.9181179138322	286.4057596371882	41	127
286.4057596371882	286.92820861678007	42	127
286.53344671201813	286.92820861678007	68	127
286.53344671201813	286.92820861678007	56	127
286.53344671201813	286.92820861678007	51	127
286.95142857142855	287.4506349206349	51	127
286.95142857142855	287.6944671201814	68	127
286.95142857142855	288.1936961451247	56	127
286.95142857142855	288.1936961451247	41	127
287.4506349206349	287.9498866213152	48	127
287.6944671201814	288.40267573696144	61	127
287.9498866213152	288.40267573696144	49	127
288.42589569161	288.8554648526077	39	127
288.42589569161	289.48240362811794	60	127
288.42589569161	289.48240362811794	56	127
288.42589569161	289.48240362811794	51	127
288.8554648526077	289.35469387755103	38	127
289.35469387755103	289.7726530612245	39	127
289.48240362811794	289.7726530612245	63	127
289.48240362811794	289.7726530612245	58	127
289.48240362811794	289.7726530612245	55	127
289.7842630385488	290.9104308390023	55	127
289.7842630385488	290.26027210884354	37	127
289.7842630385488	290.9104308390023	63	127
289.7842630385488	290.9104308390023	58	127
290.26027210884354	290.7711111111111	36	127
290.7711111111111	291.3051700680272	37	127
290.9104308390023	291.3051700680272	72	127
290.9104308390023	291.3051700680272	63	127
290.9104308390023	291.3051700680272	58	127
291.3167800453515	292.0482086167801	63	127
291.3167800453515	291.82761904761907	58	127
291.3167800453515	292.0482086167801	72	127
291.3167800453515	292.0482086167801	36	127
291.82761904761907	292.29201814058956	55	127
292.0482086167801	292.79124716553287	65	127
292.0482086167801	292.79124716553287	60	127
292.0482086167801	292.79124716553287	38	127
292.29201814058956	292.79124716553287	56	127
292.80285714285714	294.0799546485261	56	127
292.80285714285714	293.5691156462585	68	127
292.80285714285714	294.0799546485261	60	127
292.80285714285714	294.0799546485261	39	127
293.5807256235828	294.97392290249434	63	127
294.3469841269841	295.46154195011337	58	127
294.3469841269841	295.46154195011337	55	127
294.3469841269841	295.46154195011337	51	127
294.9855328798186	296.55285714285714	61	127
295.7169614512472	297.0753287981859	55	127
295.7169614512472	297.0753287981859	61	127
295.7169614512472	297.0753287981859	51	127
296.56448979591835	297.4352380952381	58	127
297.4468480725624	298.58462585034016	56	127
297.4468480725624	298.58462585034016	60	127
297.9925170068027	298.4801360544218	71	127
298.4801360544218	298.9445351473923	72	127
298.58462585034016	298.932925170068	63	127
298.58462585034016	298.932925170068	54	127
298.9445351473923	299.9313605442177	60	127
298.9445351473923	299.9313605442177	68	127
298.9445351473923	299.9313605442177	54	127
298.9445351473923	299.9313605442177	63	127
298.9445351473923	299.3857142857143	74	127
299.3857142857143	299.81528344671204	75	127
299.81528344671204	300.7905215419501	80	127
299.9313605442177	300.2912925170068	53	127
299.9313605442177	300.2912925170068	68	127
299.9313605442177	300.2912925170068	63	127
300.3029024943311	300.7905215419501	63	127
300.3029024943311	301.03433106575966	53	127
300.3029024943311	301.03433106575966	68	127
300.7905215419501	301.27814058956915	60	127
300.7905215419501	301.27814058956915	77	127
301.03433106575966	301.77736961451245	52	127
301.03433106575966	301.77736961451245	61	127
301.27814058956915	301.77736961451245	73	127
301.27814058956915	301.77736961451245	61	127
301.7889795918367	302.90353741496597	51	127
301.7889795918367	302.90353741496597	60	127
301.7889795918367	302.2998185941043	71	127
301.7889795918367	302.90353741496597	56	127
301.7889795918367	302.90353741496597	68	127
302.2998185941043	302.7874149659864	72	127
302.7874149659864	303.29825396825396	75	127
302.90353741496597	303.26344671201815	49	127
302.90353741496597	303.26344671201815	67	127
302.90353741496597	303.26344671201815	63	127
302.90353741496597	303.26344671201815	58	127
303.29825396825396	304.3431746031746	49	127
303.29825396825396	303.79750566893426	79	127
303.29825396825396	304.3431746031746	58	127
303.29825396825396	304.3431746031746	67	127
303.29825396825396	304.3431746031746	63	127
303.79750566893426	304.21546485260774	82	127
304.21546485260774	305.21392290249435	87	127
304.3431746031746	304.71469387755104	48	127
304.3431746031746	304.71469387755104	72	127
304.3431746031746	304.71469387755104	70	127
304.7263038548753	305.4809523809524	48	127
304.7263038548753	305.21392290249435	70	127
304.7263038548753	305.4809523809524	72	127
305.21392290249435	305.71315192743765	67	127
305.21392290249435	305.7247619047619	84	127
305.4809523809524	306.2239909297052	50	127
305.4809523809524	306.2239909297052	68	127
305.7247619047619	306.2239909297052	68	127
305.7247619047619	306.2239909297052	72	127
305.7247619047619	306.2239909297052	77	127
306.2356009070295	307.12956916099773	80	127
306.2356009070295	307.69843537414965	68	127
306.2356009070295	307.69843537414965	72	127
306.2356009070295	307.69843537414965	51	127
306.2356009070295	307.69843537414965	63	127
307.15278911564627	308.7201133786848	75	127
307.94226757369614	309.2774149659864	51	127
307.94226757369614	309.2774149659864	67	127
307.94226757369614	309.2774149659864	70	127
307.94226757369614	309.2774149659864	61	127
308.731746031746	310.3107029478458	73	127
309.5444217687075	311.0073015873016	67	127
309.5444217687075	311.0073015873016	51	127
309.5444217687075	311.0073015873016	58	127
310.3223129251701	311.25111111111113	70	127
312.21473922902493	313.8865759637188	63	127
313.8865759637188	315.47714285714284	61	127
315.47714285714284	317.33473922902493	58	127
317.3579591836735	319.18072562358276	56	127
319.18072562358276	320.8990022675737	54	127
320.8990022675737	321.618820861678	51	127
324.091746031746	324.39360544217686	44	127
324.091746031746	324.39360544217686	68	127
324.091746031746	324.39360544217686	60	127
324.091746031746	324.39360544217686	56	127
324.52131519274377	324.79995464852607	68	127
324.52131519274377	324.79995464852607	60	127
324.52131519274377	324.79995464852607	56	127
324.52131519274377	324.79995464852607	44	127
324.93927437641725	325.2411337868481	68	127
324.93927437641725	325.2411337868481	60	127
324.93927437641725	325.2411337868481	56	127
324.93927437641725	325.2411337868481	44	127
325.368843537415	325.635873015873	66	127
325.368843537415	325.635873015873	61	127
325.368843537415	325.635873015873	57	127
325.368843537415	325.635873015873	44	127
325.7635827664399	326.0538321995465	63	127
325.7635827664399	326.0538321995465	61	127
325.7635827664399	326.0538321995465	44	127
326.61108843537414	326.88975056689344	68	127
326.61108843537414	326.88975056689344	63	127
326.61108843537414	326.88975056689344	60	127
326.61108843537414	326.88975056689344	44	127
327.0058503401361	327.3077097505669	68	127
327.0058503401361	327.3077097505669	63	127
327.0058503401361	327.3077097505669	60	127
327.0058503401361	327.3077097505669	44	127
327.4702494331066	327.76049886621314	68	127
327.4702494331066	327.76049886621314	63	127
327.4702494331066	327.76049886621314	60	127
327.4702494331066	327.76049886621314	44	127
327.88820861678005	328.1784580498866	42	127
327.88820861678005	328.1784580498866	69	127
327.88820861678005	328.1784580498866	63	127
327.88820861678005	328.1784580498866	61	127
328.29455782312925	328.5383673469388	57	127
328.29455782312925	328.5383673469388	66	127
328.29455782312925	328.5383673469388	39	127
328.29455782312925	328.5383673469388	73	127
329.10725623582766	329.49038548752833	71	127
329.10725623582766	329.49038548752833	68	127
329.10725623582766	329.49038548752833	56	127
329.10725623582766	329.49038548752833	40	127
329.49038548752833	329.87351473922905	71	127
329.49038548752833	329.87351473922905	68	127
329.49038548752833	329.87351473922905	56	127
329.49038548752833	329.87351473922905	40	127
330.30308390022674	330.68621315192746	63	127
330.30308390022674	330.68621315192746	69	127
330.30308390022674	330.68621315192746	57	127
330.30308390022674	330.68621315192746	42	127
330.68621315192746	331.10414965986394	63	127
330.68621315192746	331.10414965986394	69	127
330.68621315192746	331.10414965986394	57	127
330.68621315192746	331.10414965986394	42	127
331.5453514739229	331.9981405895692	59	127
331.5453514739229	331.9981405895692	64	127
331.5453514739229	331.9981405895692	44	127
331.7659410430839	332.47414965986394	68	127
332.00975056689344	332.46253968253967	64	127
332.00975056689344	332.46253968253967	59	127
332.00975056689344	332.46253968253967	44	127
332.47414965986394	333.1243083900227	71	127
332.47414965986394	332.8921088435374	64	127
332.47414965986394	332.8921088435374	59	127
332.47414965986394	332.8921088435374	44	127
332.9037188208617	333.3100680272109	61	127
332.9037188208617	333.3100680272109	45	127
332.9037188208617	333.3100680272109	66	127
333.1243083900227	333.8092970521542	69	127
333.35648526077097	333.7976870748299	61	127
333.35648526077097	333.7976870748299	45	127
333.35648526077097	333.7976870748299	66	127
333.8092970521542	334.2969160997732	45	127
333.8092970521542	334.2969160997732	66	127
333.8092970521542	334.2969160997732	61	127
333.8092970521542	334.5639455782313	66	127
334.3085260770975	334.83097505668934	69	127
334.3085260770975	334.83097505668934	66	127
334.3085260770975	334.83097505668934	47	127
334.5755555555556	335.27215419501135	75	127
334.8425850340136	335.2605442176871	69	127
334.8425850340136	335.2605442176871	66	127
334.8425850340136	335.2605442176871	47	127
335.27215419501135	335.6901133786848	63	127
335.27215419501135	335.6901133786848	69	127
335.27215419501135	335.6901133786848	47	127
335.27215419501135	335.92231292517005	78	127
335.7017233560091	336.1312925170068	64	127
335.7017233560091	336.1312925170068	69	127
335.7017233560091	336.1312925170068	49	127
335.92231292517005	336.5724716553288	76	127
336.14290249433105	336.5608616780045	69	127
336.14290249433105	336.5608616780045	64	127
336.14290249433105	336.5608616780045	49	127
336.5724716553288	336.978820861678	64	127
336.5724716553288	336.978820861678	69	127
336.5724716553288	336.978820861678	49	127
336.5724716553288	337.18780045351474	73	127
336.978820861678	337.36195011337867	51	127
336.978820861678	337.36195011337867	66	127
336.978820861678	337.36195011337867	59	127
337.18780045351474	337.77990929705214	69	127
337.3851700680272	337.7682993197279	66	127
337.3851700680272	337.7682993197279	59	127
337.3851700680272	337.7682993197279	51	127
337.77990929705214	338.27913832199545	66	127
337.77990929705214	338.27913832199545	59	127
337.77990929705214	338.27913832199545	51	127
337.77990929705214	338.6158276643991	67	127
338.2907482993197	338.81319727891156	59	127
338.2907482993197	338.81319727891156	64	127
338.2907482993197	338.81319727891156	52	127
338.6158276643991	339.35886621315194	68	127
338.82480725623583	339.35886621315194	63	127
338.82480725623583	339.35886621315194	56	127
338.82480725623583	339.35886621315194	52	127
339.3704761904762	339.6491156462585	63	127
339.3704761904762	339.6491156462585	56	127
339.3704761904762	339.6491156462585	52	127
339.7768253968254	340.07868480725625	70	127
339.7768253968254	340.07868480725625	62	127
339.7768253968254	340.07868480725625	56	127
339.7768253968254	340.07868480725625	53	127
340.20637188208616	340.4618140589569	53	127
340.20637188208616	340.4618140589569	70	127
340.20637188208616	340.4618140589569	62	127
340.20637188208616	340.4618140589569	56	127
340.5895238095238	340.8797732426304	70	127
340.5895238095238	340.8797732426304	62	127
340.5895238095238	340.8797732426304	56	127
340.5895238095238	340.8797732426304	53	127
341.0074829931973	341.29773242630387	68	127
341.0074829931973	341.29773242630387	63	127
341.0074829931973	341.29773242630387	59	127
341.0074829931973	341.29773242630387	53	127
341.43702947845804	341.7040816326531	65	127
341.43702947845804	341.7040816326531	63	127
341.43702947845804	341.7040816326531	59	127
341.43702947845804	341.7040816326531	53	127
342.2381405895692	342.5516099773243	70	127
342.2381405895692	342.5516099773243	62	127
342.2381405895692	342.5516099773243	56	127
342.2381405895692	342.5516099773243	53	127
342.6676870748299	342.9463492063492	70	127
342.6676870748299	342.9463492063492	62	127
342.6676870748299	342.9463492063492	56	127
342.6676870748299	342.9463492063492	53	127
343.06244897959186	343.3643083900227	70	127
343.06244897959186	343.3643083900227	62	127
343.06244897959186	343.3643083900227	56	127
343.06244897959186	343.3643083900227	53	127
343.5036281179138	343.80548752834466	71	127
343.5036281179138	343.80548752834466	63	127
343.5036281179138	343.80548752834466	56	127
343.5036281179138	343.80548752834466	53	127
343.94480725623583	344.21183673469386	47	127
343.94480725623583	344.21183673469386	75	127
343.94480725623583	344.21183673469386	65	127
343.94480725623583	344.21183673469386	56	127
344.79233560090705	345.16385487528345	66	127
344.79233560090705	345.16385487528345	58	127
344.79233560090705	345.16385487528345	46	127
344.79233560090705	345.16385487528345	73	127
345.16385487528345	345.5585941043084	66	127
345.16385487528345	345.5585941043084	73	127
345.16385487528345	345.5585941043084	58	127
345.16385487528345	345.5585941043084	46	127
345.97655328798186	346.38290249433106	71	127
345.97655328798186	346.38290249433106	65	127
345.97655328798186	346.38290249433106	59	127
345.97655328798186	346.38290249433106	44	127
346.38290249433106	346.78925170068027	71	127
346.38290249433106	346.78925170068027	65	127
346.38290249433106	346.78925170068027	59	127
346.38290249433106	346.78925170068027	44	127
347.2304308390023	347.64839002267576	61	127
347.2304308390023	347.64839002267576	70	127
347.2304308390023	347.64839002267576	42	127
347.4510204081633	348.05473922902496	70	127
347.66	348.0431292517007	61	127
347.66	348.0431292517007	42	127
347.66	348.0431292517007	70	127
348.05473922902496	348.4842857142857	42	127
348.05473922902496	348.4842857142857	70	127
348.05473922902496	348.4842857142857	61	127
348.05473922902496	348.7281179138322	73	127
348.49589569161	348.9138775510204	68	127
348.49589569161	348.9138775510204	61	127
348.49589569161	348.9138775510204	41	127
348.7281179138322	349.34344671201814	71	127
348.93709750566893	349.33183673469387	68	127
348.93709750566893	349.33183673469387	61	127
348.93709750566893	349.33183673469387	41	127
349.34344671201814	349.7730158730159	41	127
349.34344671201814	349.7730158730159	61	127
349.34344671201814	349.7730158730159	68	127
349.34344671201814	349.9936054421769	68	127
349.78462585034015	350.2141950113379	61	127
349.78462585034015	350.2141950113379	61	127
349.78462585034015	350.2141950113379	42	127
350.00521541950116	350.7018140589569	70	127
350.22578231292516	350.69020408163266	70	127
350.22578231292516	350.69020408163266	61	127
350.22578231292516	350.69020408163266	42	127
350.7018140589569	351.1662131519274	42	127
350.7018140589569	351.1662131519274	70	127
350.7018140589569	351.1662131519274	61	127
350.7018140589569	351.38680272108843	73	127
351.1778231292517	351.59578231292517	41	127
351.1778231292517	351.59578231292517	68	127
351.1778231292517	351.59578231292517	61	127
351.38680272108843	352.071768707483	71	127
351.60739229024944	352.0601814058957	41	127
351.60739229024944	352.0601814058957	68	127
351.60739229024944	352.0601814058957	61	127
352.071768707483	352.5245804988662	68	127
352.071768707483	352.5245804988662	61	127
352.071768707483	352.5245804988662	41	127
352.071768707483	352.76839002267576	68	127
352.5361904761905	353.01219954648525	61	127
352.5361904761905	353.01219954648525	61	127
352.5361904761905	353.01219954648525	42	127
352.77997732426303	353.55786848072563	70	127
353.0354195011338	353.54625850340136	61	127
353.0354195011338	353.54625850340136	42	127
353.0354195011338	353.54625850340136	70	127
353.55786848072563	354.04548752834467	70	127
353.55786848072563	354.04548752834467	61	127
353.55786848072563	354.04548752834467	42	127
353.55786848072563	356.0539909297052	73	127
354.0687074829932	354.8581859410431	58	127
354.0687074829932	354.8581859410431	40	127
354.0687074829932	354.8581859410431	68	127
354.86979591836734	355.40385487528346	58	127
354.86979591836734	355.40385487528346	40	127
354.86979591836734	355.40385487528346	68	127
355.4154648526077	355.82181405895693	68	127
355.4154648526077	355.82181405895693	58	127
355.4154648526077	355.82181405895693	40	127
355.8334240362812	356.3442630385488	67	127
355.8334240362812	356.3442630385488	58	127
355.8334240362812	356.3442630385488	39	127
356.0656235827664	356.8667120181406	67	127
356.3674603174603	356.85510204081635	58	127
356.3674603174603	356.85510204081635	39	127
356.3674603174603	356.85510204081635	67	127
356.8667120181406	359.0145351473923	70	127
356.8667120181406	357.4356009070295	67	127
356.8667120181406	357.4356009070295	58	127
356.8667120181406	357.4356009070295	39	127
357.44721088435375	357.85356009070296	55	127
357.44721088435375	357.85356009070296	37	127
357.44721088435375	357.85356009070296	65	127
357.8767800453515	358.4340589569161	65	127
357.8767800453515	358.4340589569161	55	127
357.8767800453515	358.4340589569161	37	127
358.44566893424036	359.002947845805	55	127
358.44566893424036	359.002947845805	65	127
358.44566893424036	359.002947845805	37	127
359.0145351473923	359.45573696145124	36	127
359.0145351473923	359.45573696145124	63	127
359.0145351473923	359.45573696145124	56	127
359.2467573696145	360.62834467120183	63	127
359.4673469387755	360.61673469387756	63	127
359.4673469387755	360.61673469387756	56	127
359.4673469387755	360.61673469387756	36	127
360.62834467120183	361.48748299319726	68	127
360.62834467120183	361.12757369614513	63	127
360.62834467120183	361.12757369614513	56	127
360.62834467120183	361.12757369614513	36	127
361.48748299319726	361.89383219954647	36	127
361.48748299319726	361.89383219954647	63	127
361.48748299319726	362.21891156462584	66	127
361.48748299319726	361.89383219954647	56	127
362.21891156462584	363.6004988662132	65	127
362.8574603174603	363.25219954648526	37	127
362.8574603174603	363.25219954648526	63	127
362.8574603174603	363.25219954648526	56	127
363.6004988662132	364.9704761904762	64	127
364.2854875283447	364.61056689342405	61	127
364.2854875283447	364.61056689342405	56	127
364.2854875283447	364.61056689342405	40	127
364.9704761904762	366.24757369614514	63	127
365.5858049886621	365.87603174603174	56	127
365.5858049886621	365.87603174603174	60	127
365.5858049886621	365.87603174603174	44	127
366.24757369614514	367.68721088435376	62	127
366.9209523809524	367.2924716553288	58	127
366.9209523809524	367.2924716553288	56	127
366.9209523809524	367.2924716553288	46	127
367.68721088435376	369.2081179138322	61	127
368.49990929705217	369.022358276644	55	127
368.49990929705217	369.022358276644	51	127
368.49990929705217	369.022358276644	58	127
369.54478458049886	370.612925170068	60	127
369.54478458049886	370.612925170068	56	127
370.612925170068	371.00766439909296	58	127
370.612925170068	371.00766439909296	63	127
370.612925170068	371.00766439909296	55	127
371.01927437641723	372.0757823129252	58	127
371.01927437641723	372.0757823129252	63	127
371.01927437641723	372.0757823129252	55	127
372.0757823129252	372.4473015873016	68	127
372.0757823129252	372.4473015873016	53	127
372.0757823129252	372.4473015873016	60	127
372.45891156462585	374.6415873015873	68	127
372.45891156462585	373.17873015873016	60	127
372.45891156462585	373.701179138322	53	127
373.19034013605443	374.6415873015873	72	127
373.91015873015874	374.9782766439909	48	127
373.91015873015874	374.9782766439909	56	127
374.6415873015873	375.34979591836736	68	127
374.6415873015873	375.34979591836736	60	127
374.9782766439909	375.3265759637188	58	127
375.34979591836736	376.03478458049887	63	127
375.34979591836736	376.03478458049887	55	127
375.34979591836736	376.41791383219953	51	127
375.34979591836736	376.41791383219953	58	127
376.03478458049887	376.835873015873	58	127
376.03478458049887	376.835873015873	61	127
376.41791383219953	376.80104308390025	60	127
376.835873015873	378.2290702947846	51	127
376.835873015873	378.2290702947846	60	127
376.835873015873	377.71823129251703	60	127
376.835873015873	377.71823129251703	56	127
377.71823129251703	378.4728798185941	63	127
377.71823129251703	378.4728798185941	66	127
378.48448979591836	379.62226757369615	61	127
378.48448979591836	379.62226757369615	65	127
378.48448979591836	379.62226757369615	61	127
379.62226757369615	379.99378684807255	63	127
379.62226757369615	379.99378684807255	68	127
379.62226757369615	379.99378684807255	60	127
380.0053968253968	381.07351473922904	63	127
380.0053968253968	381.07351473922904	68	127
380.0053968253968	381.07351473922904	60	127
381.07351473922904	381.4102040816326	65	127
381.07351473922904	381.4102040816326	73	127
381.07351473922904	381.4102040816326	58	127
381.43342403628117	382.1532426303855	65	127
381.43342403628117	382.66408163265305	73	127
381.43342403628117	382.66408163265305	58	127
382.16485260770975	382.9078911564626	77	127
382.9078911564626	383.6393197278912	80	127
382.9078911564626	383.6393197278912	63	127
382.9078911564626	383.9992290249433	48	127
382.9078911564626	383.9992290249433	56	127
383.6393197278912	384.38235827664397	68	127
383.6393197278912	384.38235827664397	75	127
383.9992290249433	384.3707482993197	58	127
384.38235827664397	385.5433560090703	58	127
384.38235827664397	385.1602267573696	73	127
384.38235827664397	385.1602267573696	67	127
384.38235827664397	385.5433560090703	51	127
385.1602267573696	385.9497052154195	70	127
385.1602267573696	385.9497052154195	61	127
385.5433560090703	385.93809523809523	60	127
385.9497052154195	386.73918367346937	72	127
385.9497052154195	386.73918367346937	60	127
385.9497052154195	387.2616326530612	51	127
385.9497052154195	387.2616326530612	60	127
386.73918367346937	387.4938321995465	66	127
386.73918367346937	388.2484807256236	68	127
387.50544217687076	388.2484807256236	64	127
387.50544217687076	388.56195011337866	52	127
387.50544217687076	388.56195011337866	49	127
388.56195011337866	388.82897959183674	56	127
388.56195011337866	388.82897959183674	47	127
388.56195011337866	388.82897959183674	51	127
388.8521995464853	389.86226757369616	56	127
388.8521995464853	389.86226757369616	47	127
388.8521995464853	389.86226757369616	51	127
389.86226757369616	390.26861678004536	61	127
389.86226757369616	390.26861678004536	45	127
389.86226757369616	390.26861678004536	52	127
390.3034467120181	391.5108843537415	45	127
390.3034467120181	391.0348752834467	61	127
390.3034467120181	391.5108843537415	52	127
391.0348752834467	391.71986394557825	64	127
391.73147392290247	392.8808616780045	59	127
391.73147392290247	392.8808616780045	68	127
391.73147392290247	392.8808616780045	40	127
391.73147392290247	392.8924716553288	68	127
391.73147392290247	392.8924716553288	64	127
392.8924716553288	393.2407709750567	71	127
392.8924716553288	393.2407709750567	63	127
392.8924716553288	393.2407709750567	66	127
393.252380952381	394.4249886621315	71	127
393.252380952381	394.4249886621315	63	127
393.252380952381	394.4249886621315	66	127
394.4249886621315	394.8313378684807	61	127
394.4249886621315	394.8313378684807	68	127
394.4249886621315	394.8313378684807	76	127
394.4249886621315	394.8313378684807	64	127
394.842947845805	396.13165532879816	61	127
394.842947845805	395.6092063492064	76	127
394.842947845805	396.13165532879816	64	127
394.842947845805	396.36385487528344	68	127
395.6208163265306	396.36385487528344	80	127
396.387074829932	397.1301133786848	60	127
396.387074829932	396.89791383219955	84	127
396.387074829932	397.1301133786848	63	127
396.387074829932	397.5016326530612	48	127
396.387074829932	397.5016326530612	56	127
396.89791383219955	397.4087528344671	82	127
397.1417233560091	397.8731519274376	72	127
397.4087528344671	397.8731519274376	80	127
397.5016326530612	397.84993197278914	58	127
397.8731519274376	398.99931972789113	58	127
397.8731519274376	398.34916099773244	79	127
397.8731519274376	398.59297052154193	73	127
397.8731519274376	398.99931972789113	51	127
398.34916099773244	398.7787301587302	77	127
398.59297052154193	399.2779591836735	67	127
398.7787301587302	399.2779591836735	75	127
399.2779591836735	399.75396825396825	73	127
399.2779591836735	400.00938775510207	70	127
399.75396825396825	400.2648072562358	72	127
400.00938775510207	400.76403628117913	63	127
400.2648072562358	400.76403628117913	70	127
400.7756462585034	401.56512471655327	68	127
400.7756462585034	401.3097052154195	77	127
400.7756462585034	401.948253968254	48	127
400.7756462585034	401.948253968254	56	127
401.3097052154195	401.8089342403628	75	127
401.56512471655327	402.33138321995466	63	127
401.8089342403628	402.33138321995466	73	127
401.948253968254	402.3081632653061	58	127
402.33138321995466	403.68975056689345	58	127
402.33138321995466	402.8538321995465	72	127
402.33138321995466	403.12086167800453	67	127
402.33138321995466	403.68975056689345	51	127
402.8538321995465	403.3995011337868	70	127
403.12086167800453	403.9916099773243	58	127
403.3995011337868	403.9916099773243	68	127
403.9916099773243	404.81591836734697	61	127
403.9916099773243	404.5372789115646	67	127
404.5372789115646	405.09455782312926	65	127
404.81591836734697	405.6170068027211	55	127
405.09455782312926	405.6170068027211	63	127
405.6286167800454	408.7981405895692	63	127
405.6286167800454	408.7981405895692	61	127
405.6286167800454	408.7981405895692	55	127
407.3468934240363	408.7865306122449	51	127
407.3468934240363	408.7865306122449	58	127
408.7981405895692	409.2044897959184	60	127
409.2160997732426	410.8414965986395	63	127
409.2160997732426	410.8414965986395	60	127
409.2160997732426	410.8414965986395	51	127
409.2160997732426	410.8414965986395	60	127
409.2160997732426	410.8414965986395	56	127
411.13174603174605	414.13873015873014	61	127
411.13174603174605	414.13873015873014	63	127
411.13174603174605	414.13873015873014	55	127
412.8035827664399	413.6975510204082	51	127
412.8035827664399	413.6975510204082	58	127
414.5682993197279	415.68285714285713	51	127
414.5682993197279	415.68285714285713	60	127
414.5682993197279	416.3562358276644	60	127
414.5682993197279	416.3562358276644	56	127
414.5682993197279	416.3562358276644	63	127
418.8059410430839	425.92285714285714	51	127
418.8059410430839	425.92285714285714	60	127
418.8059410430839	425.92285714285714	44	127
418.8059410430839	425.92285714285714	51	127
428.5699319727891	428.6163718820862	44	127
