# onset,offset,note,velocity
0.2198185941043084	0.8003174603174603	77	127
0.2198185941043084	0.8003174603174603	89	127
0.2198185941043084	0.8003174603174603	65	127
0.2198185941043084	0.8003174603174603	65	127
0.8003174603174603	0.986077097505669	79	127
0.8003174603174603	0.986077097505669	67	127
0.8003174603174603	0.986077097505669	91	127
0.8003174603174603	0.986077097505669	67	127
0.986077097505669	1.5317460317460319	79	127
0.986077097505669	1.5317460317460319	67	127
0.986077097505669	1.5317460317460319	67	127
0.986077097505669	1.5317460317460319	91	127
1.5317460317460319	1.7407256235827664	80	127
1.5317460317460319	1.7407256235827664	68	127
1.5317460317460319	1.7407256235827664	92	127
1.5317460317460319	1.7407256235827664	68	127
1.7523356009070294	2.112222222222222	68	127
1.7523356009070294	2.112222222222222	68	127
1.7523356009070294	2.112222222222222	92	127
1.7523356009070294	2.112222222222222	80	127
2.112222222222222	2.4024943310657596	71	127
2.112222222222222	2.4024943310657596	83	127
2.112222222222222	2.4024943310657596	59	127
2.112222222222222	2.4024943310657596	59	127
2.855283446712018	3.2151927437641725	72	127
3.2151927437641725	3.8305215419501133	48	127
3.2151927437641725	3.389342403628118	48	127
3.2151927437641725	3.8305215419501133	68	127
3.389342403628118	3.5634920634920637	51	127
3.5634920634920637	3.9001814058956916	60	127
3.5634920634920637	3.737641723356009	51	127
3.737641723356009	3.9001814058956916	56	127
3.9001814058956916	4.50390022675737	47	127
3.9001814058956916	4.097551020408163	67	127
3.9001814058956916	4.50390022675737	62	127
3.9001814058956916	4.097551020408163	50	127
4.097551020408163	4.248458049886621	55	127
4.097551020408163	4.248458049886621	74	127
4.260090702947846	4.4458503401360545	55	127
4.260090702947846	4.4458503401360545	74	127
4.4458503401360545	4.573560090702948	62	127
4.4458503401360545	4.573560090702948	77	127
4.573560090702948	4.73609977324263	53	127
4.573560090702948	5.1540589569161	72	127
4.573560090702948	5.1540589569161	44	127
4.73609977324263	4.921859410430839	56	127
4.921859410430839	5.246916099773243	65	127
4.921859410430839	5.084399092970521	56	127
5.084399092970521	5.235328798185941	60	127
5.246916099773243	5.873877551020408	62	127
5.246916099773243	5.873877551020408	43	127
5.246916099773243	5.421065759637188	71	127
5.246916099773243	5.421065759637188	55	127
5.421065759637188	5.606848072562358	74	127
5.421065759637188	5.606848072562358	59	127
5.606848072562358	5.792607709750567	59	127
5.606848072562358	5.792607709750567	74	127
5.792607709750567	5.943537414965986	83	127
5.792607709750567	5.943537414965986	62	127
5.943537414965986	6.129297052154195	55	127
5.943537414965986	6.489206349206349	83	127
5.943537414965986	6.489206349206349	41	127
6.129297052154195	6.245396825396825	62	127
6.245396825396825	6.582086167800454	74	127
6.245396825396825	6.396326530612245	62	127
6.396326530612245	6.570476190476191	67	127
6.582086167800454	7.2090249433106575	67	127
6.582086167800454	6.7562358276643995	55	127
6.582086167800454	6.930385487528345	84	127
6.582086167800454	7.2090249433106575	39	127
6.7562358276643995	6.930385487528345	60	127
6.930385487528345	7.267074829931973	79	127
6.930385487528345	7.116145124716553	60	127
7.116145124716553	7.267074829931973	67	127
7.267074829931973	7.894013605442177	36	127
7.267074829931973	7.603764172335601	77	127
7.267074829931973	7.4412244897959186	55	127
7.4412244897959186	7.592154195011338	60	127
7.603764172335601	7.986893424036281	72	127
7.603764172335601	7.801133786848072	60	127
7.603764172335601	7.928843537414966	75	127
7.801133786848072	7.986893424036281	63	127
7.986893424036281	8.579002267573696	39	127
7.986893424036281	8.346802721088435	73	127
7.986893424036281	8.172630385487528	51	127
7.986893424036281	8.579002267573696	67	127
8.172630385487528	8.346802721088435	55	127
8.346802721088435	8.579002267573696	79	127
8.346802721088435	8.509342403628118	55	127
8.509342403628118	8.637052154195011	61	127
8.648639455782313	8.82281179138322	62	127
8.648639455782313	8.82281179138322	38	127
8.648639455782313	8.834421768707482	78	127
8.648639455782313	8.82281179138322	69	127
8.834421768707482	9.020181405895691	73	127
9.020181405895691	9.2059410430839	73	127
9.2059410430839	9.298820861678005	74	127
9.298820861678005	10.192789115646258	74	127
9.577460317460318	9.751609977324263	66	127
9.577460317460318	9.751609977324263	57	127
9.577460317460318	9.751609977324263	38	127
9.960589569160998	10.181179138321996	58	127
9.960589569160998	10.181179138321996	43	127
9.960589569160998	10.181179138321996	67	127
10.192789115646258	10.378548752834467	73	127
10.378548752834467	10.552698412698414	73	127
10.552698412698414	10.645555555555555	74	127
10.645555555555555	11.516326530612245	74	127
10.982267573696145	11.179637188208616	58	127
10.982267573696145	11.179637188208616	62	127
10.982267573696145	11.179637188208616	43	127
10.982267573696145	11.179637188208616	67	127
11.342154195011338	11.516326530612245	57	127
11.342154195011338	11.516326530612245	62	127
11.342154195011338	11.516326530612245	69	127
11.342154195011338	11.516326530612245	65	127
11.342154195011338	11.516326530612245	50	127
11.516326530612245	11.702086167800454	76	127
11.702086167800454	11.899455782312925	76	127
11.899455782312925	12.07360544217687	77	127
12.07360544217687	12.863083900226757	77	127
12.317414965986394	12.503174603174603	69	127
12.317414965986394	12.503174603174603	62	127
12.317414965986394	12.503174603174603	65	127
12.317414965986394	12.503174603174603	50	127
12.688934240362812	12.851473922902494	71	127
12.688934240362812	12.851473922902494	55	127
12.688934240362812	12.851473922902494	62	127
12.688934240362812	12.851473922902494	67	127
12.863083900226757	13.037233560090703	76	127
13.037233560090703	13.211383219954648	76	127
13.211383219954648	13.362312925170068	77	127
13.362312925170068	14.233061224489797	77	127
13.710612244897959	13.884761904761906	71	127
13.710612244897959	13.884761904761906	62	127
13.710612244897959	13.884761904761906	55	127
14.05891156462585	14.558140589569161	72	127
14.05891156462585	14.558140589569161	65	127
14.05891156462585	14.558140589569161	56	127
14.233061224489797	14.395600907029479	76	127
14.395600907029479	14.558140589569161	76	127
14.558140589569161	14.732290249433106	77	127
14.558140589569161	14.732290249433106	71	127
14.558140589569161	14.732290249433106	67	127
14.558140589569161	14.732290249433106	55	127
14.74390022675737	14.906439909297053	77	127
14.74390022675737	15.24312925170068	55	127
14.74390022675737	15.24312925170068	67	127
14.74390022675737	15.24312925170068	71	127
14.906439909297053	15.080589569160997	76	127
15.080589569160997	15.24312925170068	76	127
15.24312925170068	15.405668934240364	53	127
15.24312925170068	15.405668934240364	77	127
15.24312925170068	15.405668934240364	72	127
15.24312925170068	15.405668934240364	68	127
15.405668934240364	15.579818594104308	77	127
15.405668934240364	15.69591836734694	68	127
15.405668934240364	15.69591836734694	53	127
15.405668934240364	15.69591836734694	72	127
15.579818594104308	15.753968253968255	79	127
15.753968253968255	15.9281179138322	79	127
15.9281179138322	16.00938775510204	80	127
16.00938775510204	16.183537414965986	80	127
16.183537414965986	16.322857142857142	84	127
16.322857142857142	16.473786848072564	84	127
16.473786848072564	16.61310657596372	89	127
16.61310657596372	16.9962358276644	89	127
16.61310657596372	16.787256235827666	77	127
16.61310657596372	16.787256235827666	65	127
16.787256235827666	16.845283446712017	72	127
16.787256235827666	16.845283446712017	75	127
16.845283446712017	16.9962358276644	72	127
16.845283446712017	16.9962358276644	75	127
16.9962358276644	17.170385487528346	91	127
16.9962358276644	17.170385487528346	73	127
16.9962358276644	17.170385487528346	70	127
17.18199546485261	17.367755102040817	70	127
17.18199546485261	17.367755102040817	73	127
17.18199546485261	17.704444444444444	91	127
17.367755102040817	17.553514739229026	68	127
17.367755102040817	17.553514739229026	72	127
17.553514739229026	17.704444444444444	68	127
17.553514739229026	17.704444444444444	72	127
17.704444444444444	17.890204081632653	68	127
17.704444444444444	17.890204081632653	92	127
17.704444444444444	17.890204081632653	65	127
17.890204081632653	18.0643537414966	68	127
17.890204081632653	18.0643537414966	65	127
17.890204081632653	18.203673469387756	92	127
18.0643537414966	18.192063492063493	67	127
18.0643537414966	18.192063492063493	63	127
18.203673469387756	18.470702947845805	83	127
18.203673469387756	18.354603174603174	67	127
18.203673469387756	18.354603174603174	63	127
18.354603174603174	18.52875283446712	65	127
18.354603174603174	18.52875283446712	62	127
18.52875283446712	18.691292517006804	65	127
18.52875283446712	18.691292517006804	62	127
18.691292517006804	18.865442176870747	63	127
18.691292517006804	18.865442176870747	60	127
18.865442176870747	19.02798185941043	60	127
18.865442176870747	19.02798185941043	63	127
18.865442176870747	19.236961451247165	72	127
19.02798185941043	19.225351473922903	56	127
19.02798185941043	19.225351473922903	60	127
19.236961451247165	19.852290249433107	68	127
19.236961451247165	19.852290249433107	48	127
19.236961451247165	19.39950113378685	48	127
19.39950113378685	19.56204081632653	51	127
19.57362811791383	19.94517006802721	60	127
19.57362811791383	19.75938775510204	51	127
19.75938775510204	19.933560090702947	56	127
19.94517006802721	20.107709750566894	67	127
19.94517006802721	20.107709750566894	50	127
19.94517006802721	20.5140589569161	47	127
19.94517006802721	20.5140589569161	62	127
20.107709750566894	20.28185941043084	74	127
20.107709750566894	20.28185941043084	55	127
20.28185941043084	20.455986394557822	55	127
20.28185941043084	20.455986394557822	74	127
20.455986394557822	20.606938775510205	62	127
20.455986394557822	20.606938775510205	77	127
20.606938775510205	20.74625850340136	53	127
20.606938775510205	21.187437641723356	72	127
20.606938775510205	21.187437641723356	44	127
20.74625850340136	20.920408163265307	56	127
20.920408163265307	21.106167800453516	56	127
20.920408163265307	21.280294784580498	65	127
21.106167800453516	21.280294784580498	60	127
21.280294784580498	21.466077097505668	55	127
21.280294784580498	21.466077097505668	71	127
21.280294784580498	21.8956462585034	62	127
21.280294784580498	21.8956462585034	43	127
21.466077097505668	21.640226757369614	59	127
21.466077097505668	21.640226757369614	74	127
21.640226757369614	21.8027664399093	74	127
21.640226757369614	21.8027664399093	59	127
21.8027664399093	21.97691609977324	83	127
21.8027664399093	21.97691609977324	62	127
21.988526077097507	22.151065759637188	55	127
21.988526077097507	22.557414965986396	83	127
21.988526077097507	22.557414965986396	41	127
22.151065759637188	22.325215419501134	62	127
22.325215419501134	22.638684807256237	74	127
22.325215419501134	22.487732426303854	62	127
22.487732426303854	22.638684807256237	67	127
22.638684807256237	22.812834467120183	55	127
22.638684807256237	22.998571428571427	84	127
22.638684807256237	22.998571428571427	67	127
22.638684807256237	22.998571428571427	39	127
22.812834467120183	22.986984126984126	60	127
22.998571428571427	23.161133786848072	60	127
22.998571428571427	23.277233560090703	78	127
22.998571428571427	23.277233560090703	69	127
22.998571428571427	23.277233560090703	36	127
23.161133786848072	23.33528344671202	67	127
23.33528344671202	23.509433106575965	55	127
23.33528344671202	23.509433106575965	79	127
23.33528344671202	23.509433106575965	55	127
23.33528344671202	23.509433106575965	63	127
23.33528344671202	23.509433106575965	43	127
23.33528344671202	23.602312925170068	63	127
23.42816326530612	23.602312925170068	72	127
23.69517006802721	23.869342403628117	72	127
24.043492063492064	24.194421768707482	79	127
24.043492063492064	24.194421768707482	55	127
24.043492063492064	24.194421768707482	62	127
24.043492063492064	24.194421768707482	71	127
24.043492063492064	24.194421768707482	55	127
24.043492063492064	24.194421768707482	62	127
24.043492063492064	24.194421768707482	43	127
24.49628117913832	24.670430839002268	71	127
24.856190476190477	25.030340136054424	59	127
24.856190476190477	24.937460317460317	53	127
24.856190476190477	25.204489795918366	80	127
24.856190476190477	25.48312925170068	86	127
25.030340136054424	25.204489795918366	68	127
25.088390022675735	25.16965986394558	51	127
25.204489795918366	25.390249433106575	68	127
25.204489795918366	25.506349206349206	77	127
25.33219954648526	25.401859410430838	50	127
25.390249433106575	25.564399092970522	59	127
25.564399092970522	25.924308390022677	75	127
25.564399092970522	25.645668934240362	48	127
25.564399092970522	25.73854875283447	60	127
25.564399092970522	25.924308390022677	87	127
25.73854875283447	25.91269841269841	72	127
25.796598639455784	25.86625850340136	46	127
25.924308390022677	26.086848072562358	72	127
25.924308390022677	26.21455782312925	78	127
25.924308390022677	26.21455782312925	72	127
26.028798185941042	26.12167800453515	44	127
26.086848072562358	26.272607709750567	60	127
26.272607709750567	26.51641723356009	79	127
26.272607709750567	26.51641723356009	55	127
26.272607709750567	26.51641723356009	55	127
26.272607709750567	26.51641723356009	63	127
26.272607709750567	26.51641723356009	43	127
26.272607709750567	26.59768707482993	63	127
26.423537414965985	26.59768707482993	72	127
26.690566893424037	26.853106575963718	72	127
27.038866213151927	27.236235827664398	62	127
27.038866213151927	27.236235827664398	79	127
27.038866213151927	27.236235827664398	55	127
27.038866213151927	27.236235827664398	55	127
27.038866213151927	27.236235827664398	55	127
27.038866213151927	27.36394557823129	62	127
27.131746031746033	27.36394557823129	71	127
27.480045351473922	27.65419501133787	71	127
27.839954648526078	28.304353741496598	48	127
27.839954648526078	28.014104308390024	72	127
27.839954648526078	28.304353741496598	67	127
27.839954648526078	28.304353741496598	63	127
28.014104308390024	28.165034013605442	71	127
28.165034013605442	28.304353741496598	71	127
28.304353741496598	28.478503401360545	62	127
28.304353741496598	28.478503401360545	72	127
28.304353741496598	28.478503401360545	66	127
28.304353741496598	28.478503401360545	50	127
28.478503401360545	28.989342403628118	62	127
28.478503401360545	28.65265306122449	72	127
28.478503401360545	28.989342403628118	66	127
28.478503401360545	28.989342403628118	50	127
28.65265306122449	28.81519274376417	71	127
28.826802721088434	28.989342403628118	71	127
28.989342403628118	29.1518820861678	60	127
28.989342403628118	29.1518820861678	72	127
28.989342403628118	29.1518820861678	67	127
28.989342403628118	29.1518820861678	51	127
29.1518820861678	29.45374149659864	60	127
29.1518820861678	29.326031746031745	72	127
29.1518820861678	29.45374149659864	67	127
29.1518820861678	29.45374149659864	51	127
29.326031746031745	29.523401360544216	74	127
29.523401360544216	29.697551020408163	74	127
29.697551020408163	29.83687074829932	75	127
29.84848072562358	29.999410430839003	75	127
29.999410430839003	30.161950113378683	79	127
30.161950113378683	30.324489795918367	79	127
30.324489795918367	30.428979591836736	83	127
30.428979591836736	30.90498866213152	60	127
30.428979591836736	30.55668934240363	84	127
30.428979591836736	30.90498866213152	77	127
30.428979591836736	30.90498866213152	56	127
30.55668934240363	30.71922902494331	83	127
30.74244897959184	30.90498866213152	83	127
30.90498866213152	31.067528344671203	64	127
30.90498866213152	31.067528344671203	84	127
30.90498866213152	31.067528344671203	79	127
30.90498866213152	31.067528344671203	55	127
31.067528344671203	31.566757369614514	64	127
31.067528344671203	31.241678004535146	84	127
31.067528344671203	31.566757369614514	79	127
31.067528344671203	31.566757369614514	55	127
31.241678004535146	31.392607709750568	83	127
31.392607709750568	31.566757369614514	83	127
31.566757369614514	31.729297052154195	65	127
31.566757369614514	31.729297052154195	84	127
31.566757369614514	31.729297052154195	80	127
31.566757369614514	31.729297052154195	53	127
31.729297052154195	31.98471655328798	53	127
31.729297052154195	31.86861678004535	84	127
31.729297052154195	31.98471655328798	80	127
31.729297052154195	31.98471655328798	65	127
31.86861678004535	32.0427664399093	80	127
32.05437641723356	32.21691609977324	80	127
32.21691609977324	32.379455782312924	77	127
32.379455782312924	32.553605442176874	77	127
32.553605442176874	32.69292517006803	74	127
32.69292517006803	32.832244897959185	74	127
32.832244897959185	32.994784580498866	72	127
33.00639455782313	33.5172335600907	71	127
33.00639455782313	33.16891156462585	79	127
33.00639455782313	33.5172335600907	74	127
33.00639455782313	33.5172335600907	55	127
33.16891156462585	33.3314739229025	78	127
33.3314739229025	33.5172335600907	78	127
33.5172335600907	33.69138321995465	72	127
33.5172335600907	33.69138321995465	79	127
33.5172335600907	33.69138321995465	75	127
33.5172335600907	33.69138321995465	57	127
33.69138321995465	34.17900226757369	63	127
33.69138321995465	33.865532879818595	79	127
33.69138321995465	34.17900226757369	72	127
33.69138321995465	34.17900226757369	57	127
33.865532879818595	34.028072562358275	78	127
34.028072562358275	34.17900226757369	78	127
34.17900226757369	34.353151927437644	62	127
34.17900226757369	34.353151927437644	79	127
34.17900226757369	34.353151927437644	67	127
34.17900226757369	34.353151927437644	59	127
34.364761904761906	34.66662131519274	59	127
34.364761904761906	34.55052154195011	79	127
34.364761904761906	34.66662131519274	67	127
34.364761904761906	34.66662131519274	62	127
34.55052154195011	34.7130612244898	83	127
34.7130612244898	34.88721088435374	83	127
34.88721088435374	35.04975056689342	86	127
35.04975056689342	35.21229024943311	86	127
35.21229024943311	35.351609977324266	90	127
35.36321995464853	35.40965986394558	90	127
35.40965986394558	35.57219954648526	91	127
35.57219954648526	36.09462585034014	67	127
35.57219954648526	35.75795918367347	91	127
35.57219954648526	36.09462585034014	72	127
35.57219954648526	36.09462585034014	63	127
35.75795918367347	35.92049886621315	90	127
35.92049886621315	36.09462585034014	90	127
36.09462585034014	36.28040816326531	71	127
36.09462585034014	36.28040816326531	91	127
36.09462585034014	36.28040816326531	74	127
36.09462585034014	36.28040816326531	62	127
36.28040816326531	36.73319727891157	71	127
36.28040816326531	36.44294784580499	91	127
36.28040816326531	36.73319727891157	74	127
36.28040816326531	36.73319727891157	62	127
36.44294784580499	36.58226757369614	90	127
36.59385487528345	36.73319727891157	90	127
36.73319727891157	36.884126984126986	72	127
36.73319727891157	36.884126984126986	91	127
36.73319727891157	36.884126984126986	75	127
36.73319727891157	36.884126984126986	60	127
36.884126984126986	37.11632653061225	60	127
36.884126984126986	37.04666666666667	91	127
36.884126984126986	37.11632653061225	75	127
36.884126984126986	37.11632653061225	72	127
37.04666666666667	37.17437641723356	87	127
37.17437641723356	37.33691609977324	87	127
37.33691609977324	37.464625850340134	84	127
37.4762358276644	37.62716553287982	84	127
37.62716553287982	37.76648526077098	81	127
37.76648526077098	37.92902494331066	81	127
37.92902494331066	38.09156462585034	79	127
38.09156462585034	38.57918367346939	59	127
38.09156462585034	38.57918367346939	55	127
38.09156462585034	38.25408163265306	86	127
38.09156462585034	38.57918367346939	67	127
38.25408163265306	38.42825396825397	79	127
38.42825396825397	38.57918367346939	79	127
38.57918367346939	38.7649433106576	50	127
38.57918367346939	38.7649433106576	86	127
38.57918367346939	38.7649433106576	68	127
38.57918367346939	38.7649433106576	65	127
38.77655328798186	39.27578231292517	68	127
38.77655328798186	39.27578231292517	50	127
38.77655328798186	38.950702947845805	86	127
38.77655328798186	39.27578231292517	65	127
38.950702947845805	39.113242630385486	74	127
39.113242630385486	39.27578231292517	74	127
39.27578231292517	39.438321995464854	67	127
39.27578231292517	39.438321995464854	55	127
39.27578231292517	39.438321995464854	86	127
39.27578231292517	39.438321995464854	59	127
39.438321995464854	39.94916099773243	59	127
39.438321995464854	39.600861678004534	86	127
39.438321995464854	39.94916099773243	67	127
39.438321995464854	39.94916099773243	55	127
39.600861678004534	39.77498866213152	79	127
39.78662131519275	39.94916099773243	79	127
39.94916099773243	40.06526077097506	65	127
39.94916099773243	40.06526077097506	50	127
39.94916099773243	40.06526077097506	86	127
39.94916099773243	40.06526077097506	68	127
40.06526077097506	40.57609977324263	68	127
40.06526077097506	40.57609977324263	50	127
40.06526077097506	40.239410430839	86	127
40.06526077097506	40.57609977324263	65	127
40.239410430839	40.425170068027214	74	127
40.425170068027214	40.57609977324263	74	127
40.57609977324263	40.750249433106575	67	127
40.57609977324263	40.750249433106575	55	127
40.57609977324263	40.750249433106575	86	127
40.57609977324263	40.750249433106575	59	127
40.750249433106575	41.017278911564624	59	127
40.750249433106575	41.017278911564624	55	127
40.750249433106575	40.90117913832199	86	127
40.750249433106575	41.017278911564624	67	127
40.90117913832199	41.05210884353742	79	127
41.06371882086168	41.22625850340136	79	127
41.22625850340136	41.38879818594104	74	127
41.38879818594104	41.5397052154195	74	127
41.5397052154195	41.70226757369615	67	127
41.5397052154195	41.58616780045352	55	127
41.70226757369615	41.8415873015873	67	127
41.70226757369615	41.8415873015873	55	127
41.8415873015873	41.99251700680272	62	127
41.8415873015873	41.99251700680272	74	127
42.004126984126984	42.1550566893424	62	127
42.004126984126984	42.1550566893424	74	127
42.004126984126984	42.1550566893424	74	127
42.1550566893424	42.27115646258503	55	127
42.1550566893424	42.27115646258503	67	127
42.1550566893424	42.27115646258503	67	127
42.27115646258503	42.456916099773245	67	127
42.27115646258503	42.456916099773245	67	127
42.27115646258503	42.456916099773245	55	127
42.456916099773245	42.63106575963719	62	127
42.456916099773245	42.63106575963719	50	127
42.456916099773245	42.63106575963719	62	127
42.63106575963719	42.816802721088436	62	127
42.63106575963719	42.816802721088436	50	127
42.63106575963719	42.816802721088436	62	127
42.816802721088436	42.97936507936508	55	127
42.816802721088436	42.97936507936508	43	127
42.816802721088436	42.97936507936508	55	127
42.990975056689344	43.16512471655329	55	127
42.990975056689344	43.16512471655329	43	127
42.990975056689344	43.16512471655329	55	127
43.16512471655329	43.374104308390024	36	127
43.16512471655329	43.374104308390024	60	127
43.16512471655329	43.374104308390024	48	127
43.385714285714286	46.021179138322	36	127
43.385714285714286	43.68757369614512	48	127
43.757233560090704	44.1055328798186	60	127
43.757233560090704	43.8849433106576	72	127
43.757233560090704	44.1055328798186	56	127
43.94299319727891	44.05909297052154	68	127
44.1055328798186	44.477052154195015	55	127
44.1055328798186	44.24485260770975	70	127
44.1055328798186	44.477052154195015	58	127
44.302902494331065	44.419002267573696	67	127
44.477052154195015	44.802131519274376	53	127
44.477052154195015	44.59312925170068	68	127
44.477052154195015	44.802131519274376	56	127
44.639591836734695	44.69764172335601	65	127
44.802131519274376	45.069160997732425	51	127
44.802131519274376	44.953061224489794	67	127
44.802131519274376	45.069160997732425	55	127
44.9646485260771	45.127210884353744	63	127
45.127210884353744	45.44068027210884	63	127
45.127210884353744	45.27814058956916	67	127
45.127210884353744	45.44068027210884	55	127
45.27814058956916	45.42907029478458	75	127
45.44068027210884	45.75414965986395	67	127
45.44068027210884	45.603197278911566	79	127
45.44068027210884	45.75414965986395	63	127
45.603197278911566	45.75414965986395	75	127
45.75414965986395	46.04439909297052	63	127
45.75414965986395	45.939909297052154	67	127
45.75414965986395	46.04439909297052	55	127
45.939909297052154	46.09083900226757	75	127
46.09083900226757	46.45074829931973	61	127
46.09083900226757	46.45074829931973	41	127
46.09083900226757	46.26498866213152	73	127
46.09083900226757	46.45074829931973	53	127
46.276598639455784	46.45074829931973	65	127
46.45074829931973	46.775827664399095	56	127
46.45074829931973	46.61326530612245	68	127
46.45074829931973	46.717777777777776	37	127
46.45074829931973	46.775827664399095	65	127
46.61326530612245	46.76421768707483	77	127
46.775827664399095	47.11251700680272	63	127
46.775827664399095	47.39115646258504	39	127
46.775827664399095	46.94997732426304	75	127
46.775827664399095	47.39115646258504	55	127
46.94997732426304	47.11251700680272	67	127
47.11251700680272	47.29827664399093	70	127
47.11251700680272	47.4027664399093	58	127
47.309886621315194	47.43759637188209	67	127
47.43759637188209	47.751065759637186	61	127
47.43759637188209	47.99487528344671	41	127
47.43759637188209	47.60013605442177	73	127
47.43759637188209	47.751065759637186	53	127
47.60013605442177	47.73945578231292	68	127
47.751065759637186	48.076145124716554	56	127
47.751065759637186	48.076145124716554	56	127
47.751065759637186	47.91360544217687	65	127
47.91360544217687	48.076145124716554	68	127
48.076145124716554	48.37800453514739	55	127
48.076145124716554	48.64503401360544	43	127
48.076145124716554	48.238684807256234	67	127
48.076145124716554	48.3431746031746	55	127
48.2502947845805	48.37800453514739	63	127
48.37800453514739	48.66825396825397	50	127
48.37800453514739	48.55215419501134	59	127
48.55215419501134	48.72630385487528	62	127
48.72630385487528	49.64349206349206	36	127
49.05138321995465	49.39968253968254	55	127
49.05138321995465	49.179092970521545	67	127
49.05138321995465	49.39968253968254	63	127
49.23714285714286	49.35324263038549	63	127
49.39968253968254	49.724761904761905	62	127
49.39968253968254	49.724761904761905	53	127
49.39968253968254	49.51578231292517	65	127
49.562222222222225	49.678321995464856	62	127
49.724761904761905	50.00340136054422	39	127
49.724761904761905	50.061451247165536	51	127
49.724761904761905	49.840861678004536	63	127
49.724761904761905	50.061451247165536	60	127
49.887301587301586	49.945351473922905	60	127
50.061451247165536	50.35170068027211	50	127
50.061451247165536	50.641950113378684	43	127
50.061451247165536	50.23560090702948	62	127
50.061451247165536	50.35170068027211	58	127
50.23560090702948	50.3865306122449	58	127
50.3865306122449	50.54907029478458	62	127
50.3865306122449	50.758049886621315	70	127
50.3865306122449	51.0134693877551	62	127
50.56068027210885	50.758049886621315	70	127
50.758049886621315	50.920589569160995	74	127
50.758049886621315	51.303718820861675	46	127
50.758049886621315	51.094739229024945	74	127
50.920589569160995	51.094739229024945	70	127
51.094739229024945	51.22244897959184	62	127
51.094739229024945	51.33854875283447	62	127
51.094739229024945	51.33854875283447	70	127
51.22244897959184	51.39659863945578	70	127
51.408208616780044	52.23251700680272	39	127
51.71006802721089	52.03514739229025	58	127
51.71006802721089	52.03514739229025	66	127
51.71006802721089	51.84938775510204	70	127
51.907437641723355	52.011927437641724	66	127
52.03514739229025	52.31378684807256	65	127
52.03514739229025	52.128027210884355	68	127
52.03514739229025	52.31378684807256	56	127
52.16285714285714	52.26734693877551	65	127
52.31378684807256	52.673696145124715	63	127
52.31378684807256	52.673696145124715	54	127
52.31378684807256	52.44149659863945	66	127
52.31378684807256	52.6156462585034	42	127
52.49954648526077	52.557596371882084	63	127
52.673696145124715	52.95233560090703	53	127
52.673696145124715	53.26580498866213	46	127
52.673696145124715	52.836235827664396	65	127
52.673696145124715	52.95233560090703	62	127
52.847845804988665	53.02199546485261	62	127
53.02199546485261	53.33546485260771	74	127
53.02199546485261	53.33546485260771	65	127
53.02199546485261	53.17292517006803	65	127
53.17292517006803	53.33546485260771	74	127
53.33546485260771	53.63732426303855	77	127
53.33546485260771	53.881133786848075	50	127
53.33546485260771	53.47478458049886	77	127
53.33546485260771	53.57927437641723	70	127
53.47478458049886	53.62571428571429	74	127
53.63732426303855	53.9043537414966	70	127
53.63732426303855	53.974013605442174	62	127
53.63732426303855	53.79986394557823	70	127
53.79986394557823	53.974013605442174	74	127
53.974013605442174	54.29909297052154	65	127
54.29909297052154	54.647392290249435	50	127
54.29909297052154	54.589342403628116	58	127
54.647392290249435	55.00730158730159	53	127
54.8447619047619	54.92603174603175	74	127
55.00730158730159	55.08857142857143	77	127
55.00730158730159	55.30916099773243	46	127
55.20467120181406	55.2859410430839	70	127
55.36721088435374	55.85482993197279	82	127
55.518140589569164	55.599410430839	62	127
55.69229024943311	55.77356009070295	65	127
55.85482993197279	55.93609977324263	58	127
55.85482993197279	55.91287981859411	80	127
56.040589569161	56.5746485260771	79	127
56.040589569161	56.5746485260771	70	127
56.21473922902494	56.29600907029479	55	127
56.388888888888886	56.47015873015873	58	127
56.5746485260771	56.62108843537415	68	127
56.5746485260771	56.64430839002267	51	127
56.5746485260771	56.62108843537415	77	127
56.73718820861678	57.317687074829934	63	127
56.73718820861678	57.23641723356009	75	127
56.73718820861678	57.23641723356009	67	127
56.89972789115646	56.9809977324263	43	127
57.07387755102041	57.143537414965984	46	127
57.23641723356009	57.29446712018141	79	127
57.23641723356009	57.317687074829934	39	127
57.23641723356009	57.29446712018141	73	127
57.41056689342403	58.00267573696145	51	127
57.41056689342403	57.909795918367344	80	127
57.41056689342403	57.909795918367344	72	127
57.58471655328798	57.67759637188209	60	127
57.758866213151926	57.84013605442177	63	127
57.909795918367344	57.96784580498866	75	127
57.909795918367344	57.99106575963719	56	127
57.909795918367344	57.96784580498866	82	127
58.07233560090703	58.676054421768704	68	127
58.07233560090703	58.59478458049887	84	127
58.07233560090703	58.59478458049887	75	127
58.23487528344671	58.316145124716556	44	127
58.39741496598639	58.50190476190476	48	127
58.59478458049887	58.676054421768704	41	127
58.59478458049887	58.75732426303855	72	127
58.59478458049887	58.75732426303855	87	127
58.75732426303855	59.37265306122449	53	127
58.75732426303855	59.128843537414966	87	127
58.75732426303855	59.128843537414966	72	127
58.95469387755102	59.03596371882086	60	127
59.128843537414966	59.21011337868481	65	127
59.128843537414966	59.40748299319728	77	127
59.128843537414966	59.40748299319728	75	127
59.291383219954646	59.37265306122449	57	127
59.465532879818596	60.046031746031744	69	127
59.465532879818596	59.96476190476191	84	127
59.465532879818596	59.96476190476191	75	127
59.62807256235828	59.70934240362812	45	127
59.79061224489796	59.8718820861678	48	127
59.96476190476191	60.046031746031744	41	127
59.96476190476191	60.12730158730159	87	127
59.96476190476191	60.12730158730159	72	127
60.12730158730159	60.52204081632653	72	127
60.12730158730159	60.52204081632653	87	127
60.12730158730159	60.78907029478458	53	127
60.34789115646259	60.429160997732424	60	127
60.52204081632653	60.8471201814059	75	127
60.52204081632653	60.8471201814059	77	127
60.52204081632653	60.6265306122449	65	127
60.707800453514736	60.78907029478458	58	127
60.89356009070295	61.06770975056689	74	127
60.89356009070295	62.21709750566893	70	127
60.89356009070295	61.71786848072562	86	127
61.06770975056689	61.218639455782316	62	127
61.06770975056689	61.218639455782316	58	127
61.218639455782316	61.381179138322	63	127
61.218639455782316	61.381179138322	60	127
61.381179138322	61.54371882086168	65	127
61.381179138322	61.54371882086168	62	127
61.54371882086168	61.89201814058957	66	127
61.54371882086168	62.96013605442177	63	127
61.71786848072562	61.89201814058957	84	127
61.89201814058957	62.05455782312925	82	127
61.89201814058957	62.58861678004535	78	127
62.05455782312925	62.21709750566893	84	127
62.21709750566893	62.414467120181406	82	127
62.21709750566893	63.30843537414966	72	127
62.414467120181406	62.58861678004535	80	127
62.58861678004535	62.77437641723356	78	127
62.58861678004535	63.30843537414966	70	127
62.77437641723356	62.96013605442177	80	127
62.96013605442177	63.56385487528345	65	127
62.96013605442177	63.13428571428572	78	127
63.13428571428572	63.30843537414966	77	127
63.30843537414966	63.598684807256234	69	127
63.30843537414966	63.598684807256234	65	127
63.30843537414966	63.47097505668934	75	127
63.47097505668934	63.64512471655329	77	127
63.65673469387755	64.62036281179138	75	127
63.65673469387755	65.13120181405895	65	127
63.84249433106576	64.02825396825396	53	127
63.84249433106576	64.02825396825396	57	127
64.02825396825396	64.2372335600907	58	127
64.02825396825396	64.2372335600907	55	127
64.2372335600907	64.42299319727891	60	127
64.2372335600907	64.42299319727891	57	127
64.42299319727891	65.83938775510204	61	127
64.42299319727891	65.83938775510204	58	127
64.62036281179138	64.79451247165532	73	127
64.79451247165532	64.98027210884354	72	127
64.98027210884354	65.13120181405895	73	127
65.13120181405895	65.83938775510204	66	127
65.13120181405895	65.29374149659864	72	127
65.29374149659864	65.46789115646258	70	127
65.46789115646258	65.6536507936508	69	127
65.6536507936508	65.83938775510204	70	127
65.83938775510204	66.39668934240363	63	127
65.83938775510204	66.48956916099773	60	127
65.83938775510204	66.03678004535148	68	127
65.83938775510204	66.1528798185941	60	127
66.03678004535148	66.21092970521542	66	127
66.21092970521542	66.39668934240363	65	127
66.21092970521542	66.5940589569161	72	127
66.39668934240363	66.58242630385487	66	127
66.39668934240363	66.58242630385487	58	127
66.5940589569161	66.76820861678004	57	127
66.5940589569161	66.89591836734694	77	127
66.5940589569161	66.76820861678004	63	127
66.5940589569161	66.76820861678004	65	127
66.96555555555555	67.4415873015873	75	127
67.32548752834467	67.48802721088435	60	127
67.32548752834467	67.48802721088435	51	127
67.32548752834467	67.48802721088435	66	127
67.48802721088435	67.67378684807257	72	127
67.67378684807257	67.85952380952381	70	127
67.85952380952381	68.03369614512472	72	127
68.04530612244898	68.4168253968254	70	127
68.21945578231292	68.6025850340136	63	127
68.21945578231292	68.4168253968254	54	127
68.21945578231292	68.6025850340136	60	127
68.4168253968254	69.10181405895692	69	127
68.4168253968254	68.6025850340136	53	127
68.6025850340136	69.13662131519274	63	127
68.6025850340136	69.18308390022676	60	127
68.6025850340136	68.79995464852608	54	127
68.79995464852608	69.13662131519274	53	127
69.18308390022676	69.56621315192744	77	127
69.18308390022676	69.368820861678	57	127
69.18308390022676	69.368820861678	51	127
69.18308390022676	69.50816326530612	60	127
69.56621315192744	69.82163265306123	82	127
69.87965986394558	70.43696145124717	80	127
69.87965986394558	70.12349206349207	65	127
69.87965986394558	70.12349206349207	58	127
69.87965986394558	70.12349206349207	50	127
70.48340136054422	70.58789115646259	77	127
70.58789115646259	70.77362811791383	75	127
70.58789115646259	70.77362811791383	59	127
70.58789115646259	70.77362811791383	65	127
70.58789115646259	70.77362811791383	44	127
70.77362811791383	70.93619047619048	77	127
70.94780045351474	71.33092970521542	75	127
71.13356009070294	71.52829931972789	65	127
71.13356009070294	71.52829931972789	68	127
71.13356009070294	71.33092970521542	47	127
71.33092970521542	71.52829931972789	46	127
71.33092970521542	72.05072562358276	74	127
71.52829931972789	71.72566893424036	47	127
71.52829931972789	72.08557823129252	68	127
71.52829931972789	72.08557823129252	65	127
71.72566893424036	72.08557823129252	46	127
72.14362811791383	72.45709750566894	82	127
72.14362811791383	72.45709750566894	68	127
72.45709750566894	72.77056689342403	75	127
72.45709750566894	72.77056689342403	87	127
72.63124716553288	72.82861678004535	55	127
72.82861678004535	73.26979591836735	73	127
72.82861678004535	73.0027664399093	58	127
72.82861678004535	73.15369614512471	79	127
72.82861678004535	73.26979591836735	85	127
73.0027664399093	73.15369614512471	51	127
73.15369614512471	73.50199546485261	82	127
73.3278231292517	73.50199546485261	84	127
73.3278231292517	73.50199546485261	72	127
73.3278231292517	73.50199546485261	52	127
73.50199546485261	73.68773242630385	55	127
73.50199546485261	73.68773242630385	82	127
73.50199546485261	73.68773242630385	70	127
73.50199546485261	73.80385487528345	76	127
73.68773242630385	73.86190476190477	48	127
73.68773242630385	73.86190476190477	72	127
73.68773242630385	73.86190476190477	84	127
73.86190476190477	74.04766439909297	82	127
73.86190476190477	74.04766439909297	70	127
74.04766439909297	74.21020408163265	68	127
74.04766439909297	74.21020408163265	80	127
74.04766439909297	74.21020408163265	53	127
74.21020408163265	74.59333333333333	77	127
74.21020408163265	74.709410430839	83	127
74.21020408163265	74.3843537414966	56	127
74.21020408163265	74.59333333333333	71	127
74.3843537414966	74.5817006802721	51	127
74.59333333333333	74.94163265306122	80	127
74.59333333333333	74.94163265306122	65	127
74.76748299319728	74.94163265306122	50	127
74.76748299319728	74.94163265306122	82	127
74.94163265306122	75.08095238095238	80	127
74.94163265306122	75.197052154195	74	127
74.94163265306122	75.197052154195	70	127
74.94163265306122	75.08095238095238	53	127
75.08095238095238	75.25510204081633	82	127
75.08095238095238	75.25510204081633	46	127
75.25510204081633	75.44086167800454	80	127
75.25510204081633	75.66145124716553	51	127
75.46408163265306	75.85879818594104	70	127
75.46408163265306	75.66145124716553	79	127
75.66145124716553	75.85879818594104	82	127
75.66145124716553	76.13746031746032	49	127
75.66145124716553	76.03297052154196	67	127
75.85879818594104	76.03297052154196	67	127
75.85879818594104	76.03297052154196	75	127
76.03297052154196	76.41609977324264	70	127
76.2071201814059	76.41609977324264	48	127
76.2071201814059	76.41609977324264	76	127
76.2071201814059	76.57863945578231	67	127
76.41609977324264	76.57863945578231	79	127
76.41609977324264	76.68312925170068	64	127
76.41609977324264	76.57863945578231	46	127
76.57863945578231	76.741179138322	48	127
76.57863945578231	76.741179138322	72	127
76.57863945578231	76.741179138322	64	127
76.741179138322	76.92693877551021	46	127
76.92693877551021	77.28684807256236	68	127
76.92693877551021	77.10108843537415	44	127
76.92693877551021	77.10108843537415	77	127
77.10108843537415	77.60031746031746	47	127
77.10108843537415	77.28684807256236	80	127
77.10108843537415	77.47260770975056	65	127
77.28684807256236	77.47260770975056	75	127
77.28684807256236	77.47260770975056	65	127
77.47260770975056	77.83251700680272	68	127
77.65836734693877	77.83251700680272	74	127
77.65836734693877	78.0066439909297	65	127
77.65836734693877	77.83251700680272	46	127
77.83251700680272	78.0066439909297	44	127
77.83251700680272	78.0066439909297	77	127
77.83251700680272	78.1343537414966	62	127
78.0066439909297	78.18081632653062	46	127
78.0066439909297	78.18081632653062	70	127
78.0066439909297	78.18081632653062	62	127
78.19242630385487	78.25047619047619	44	127
78.37818594104309	78.57555555555555	43	127
78.37818594104309	78.57555555555555	79	127
78.37818594104309	78.57555555555555	67	127
78.37818594104309	78.57555555555555	67	127
78.57555555555555	78.77290249433106	82	127
78.57555555555555	78.77290249433106	46	127
78.57555555555555	78.77290249433106	70	127
78.57555555555555	78.77290249433106	70	127
78.77290249433106	78.95868480725623	39	127
78.77290249433106	78.95868480725623	75	127
78.77290249433106	78.95868480725623	63	127
78.77290249433106	78.95868480725623	63	127
79.17927437641724	79.35342403628118	79	127
79.17927437641724	79.35342403628118	67	127
79.17927437641724	79.35342403628118	67	127
79.17927437641724	79.35342403628118	43	127
79.35342403628118	79.52757369614513	47	127
79.35342403628118	79.52757369614513	83	127
79.35342403628118	79.52757369614513	71	127
79.35342403628118	79.52757369614513	71	127
79.52757369614513	79.70172335600907	75	127
79.52757369614513	79.70172335600907	63	127
79.52757369614513	79.70172335600907	63	127
79.52757369614513	79.70172335600907	39	127
79.88748299319728	80.0732426303855	43	127
79.88748299319728	80.0732426303855	79	127
79.88748299319728	80.0732426303855	67	127
79.88748299319728	80.0732426303855	67	127
80.0732426303855	80.24739229024944	72	127
80.0732426303855	80.24739229024944	84	127
80.0732426303855	80.24739229024944	48	127
80.0732426303855	80.24739229024944	72	127
80.24739229024944	80.40990929705215	63	127
80.24739229024944	80.40990929705215	75	127
80.24739229024944	80.40990929705215	63	127
80.24739229024944	80.40990929705215	39	127
80.40990929705215	80.60730158730159	85	127
80.40990929705215	80.76984126984127	51	127
80.40990929705215	80.60730158730159	73	127
80.40990929705215	80.60730158730159	73	127
80.60730158730159	80.82789115646258	63	127
80.60730158730159	80.82789115646258	75	127
80.60730158730159	80.82789115646258	63	127
80.82789115646258	81.21102040816326	50	127
80.82789115646258	81.0136507936508	74	127
80.82789115646258	81.02526077097505	86	127
80.82789115646258	81.02526077097505	74	127
81.02526077097505	81.26907029478458	62	127
81.02526077097505	81.26907029478458	74	127
81.02526077097505	81.26907029478458	62	127
81.26907029478458	81.77990929705216	84	127
81.26907029478458	81.77990929705216	87	127
81.44321995464853	81.52448979591837	57	127
81.61736961451247	81.71024943310658	60	127
81.77990929705216	81.9540589569161	86	127
81.77990929705216	81.87278911564626	54	127
81.77990929705216	81.9540589569161	82	127
81.96566893424037	82.49972789115647	66	127
81.96566893424037	82.49972789115647	84	127
81.96566893424037	82.49972789115647	81	127
82.13981859410431	82.22108843537416	46	127
82.31396825396826	82.3952380952381	50	127
82.49972789115647	82.69709750566894	79	127
82.49972789115647	82.61582766439909	43	127
82.49972789115647	82.69709750566894	82	127
82.49972789115647	82.69709750566894	67	127
82.69709750566894	83.23115646258503	80	127
82.69709750566894	83.95097505668934	55	127
82.69709750566894	83.23115646258503	77	127
82.88285714285715	83.06859410430839	59	127
83.06859410430839	83.23115646258503	62	127
83.23115646258503	83.40530612244898	75	127
83.23115646258503	83.40530612244898	79	127
83.23115646258503	83.40530612244898	55	127
83.40530612244898	83.59106575963719	77	127
83.40530612244898	83.59106575963719	74	127
83.59106575963719	83.7768253968254	63	127
83.59106575963719	83.7768253968254	75	127
83.59106575963719	83.7768253968254	72	127
83.7768253968254	83.95097505668934	74	127
83.7768253968254	83.95097505668934	71	127
83.7768253968254	83.95097505668934	67	127
83.95097505668934	84.11349206349206	56	127
83.95097505668934	84.11349206349206	60	127
83.95097505668934	84.11349206349206	72	127
83.95097505668934	84.11349206349206	72	127
84.11349206349206	84.28766439909298	75	127
84.11349206349206	84.28766439909298	63	127
84.28766439909298	84.46181405895692	60	127
84.28766439909298	84.46181405895692	48	127
84.28766439909298	84.46181405895692	68	127
84.28766439909298	84.46181405895692	60	127
84.46181405895692	84.64757369614513	63	127
84.46181405895692	84.64757369614513	51	127
84.64757369614513	84.8565306122449	44	127
84.64757369614513	84.8565306122449	56	127
84.64757369614513	84.8565306122449	72	127
84.64757369614513	84.8565306122449	60	127
84.8565306122449	85.04231292517007	64	127
84.8565306122449	85.04231292517007	76	127
85.04231292517007	85.2512925170068	56	127
85.04231292517007	85.2512925170068	68	127
85.04231292517007	85.2512925170068	60	127
85.04231292517007	85.2512925170068	48	127
85.2512925170068	85.43705215419502	64	127
85.2512925170068	85.43705215419502	52	127
85.43705215419502	85.62278911564626	56	127
85.43705215419502	85.64603174603175	60	127
85.43705215419502	85.64603174603175	72	127
85.43705215419502	85.62278911564626	44	127
85.64603174603175	85.8201814058957	65	127
85.64603174603175	85.8201814058957	77	127
85.8201814058957	85.99433106575964	60	127
85.8201814058957	85.99433106575964	48	127
85.8201814058957	85.99433106575964	68	127
85.8201814058957	85.99433106575964	56	127
85.99433106575964	86.16848072562358	53	127
85.99433106575964	86.16848072562358	80	127
85.99433106575964	86.16848072562358	65	127
85.99433106575964	86.16848072562358	60	127
86.16848072562358	86.34263038548752	72	127
86.16848072562358	86.34263038548752	56	127
86.16848072562358	86.34263038548752	68	127
86.16848072562358	86.34263038548752	44	127
86.34263038548752	86.6444671201814	72	127
86.34263038548752	86.52839002267574	84	127
86.34263038548752	86.52839002267574	66	127
86.34263038548752	86.6444671201814	60	127
86.34263038548752	86.6444671201814	56	127
86.52839002267574	86.71414965986395	56	127
86.52839002267574	86.71414965986395	72	127
86.71414965986395	87.09727891156463	71	127
86.71414965986395	86.94634920634921	67	127
86.71414965986395	86.94634920634921	79	127
86.71414965986395	87.09727891156463	62	127
86.71414965986395	87.09727891156463	55	127
86.94634920634921	87.201768707483	55	127
86.94634920634921	87.201768707483	67	127
87.201768707483	87.74743764172335	68	127
87.201768707483	87.74743764172335	65	127
87.39913832199547	87.49201814058956	74	127
87.57328798185941	87.65455782312925	77	127
87.74743764172335	87.92158730158731	67	127
87.74743764172335	87.8287074829932	71	127
87.74743764172335	87.92158730158731	63	127
87.92158730158731	88.4556462585034	83	127
87.92158730158731	88.4556462585034	62	127
87.92158730158731	88.4556462585034	65	127
88.09573696145125	88.18861678004535	51	127
88.2698866213152	88.3627664399093	55	127
88.4556462585034	88.53689342403628	48	127
88.4556462585034	88.6414058956916	63	127
88.4556462585034	88.6414058956916	60	127
88.4556462585034	88.6414058956916	84	127
88.6414058956916	89.17544217687075	85	127
88.6414058956916	89.17544217687075	58	127
88.6414058956916	89.98816326530613	60	127
88.82716553287982	89.00131519274376	76	127
89.00131519274376	89.17544217687075	79	127
89.17544217687075	89.34961451247166	56	127
89.17544217687075	89.34961451247166	84	127
89.17544217687075	89.34961451247166	72	127
89.36122448979592	89.55857142857143	55	127
89.36122448979592	89.55857142857143	82	127
89.55857142857143	89.77918367346939	53	127
89.55857142857143	89.77918367346939	80	127
89.55857142857143	89.77918367346939	68	127
89.77918367346939	89.98816326530613	72	127
89.77918367346939	89.98816326530613	52	127
89.77918367346939	89.98816326530613	79	127
89.98816326530613	90.16231292517007	61	127
89.98816326530613	90.16231292517007	77	127
89.98816326530613	90.16231292517007	65	127
89.98816326530613	90.16231292517007	53	127
90.16231292517007	90.34807256235828	68	127
90.16231292517007	90.34807256235828	56	127
90.34807256235828	90.54544217687075	49	127
90.34807256235828	90.54544217687075	61	127
90.34807256235828	90.55702947845805	77	127
90.34807256235828	90.55702947845805	65	127
90.55702947845805	90.73120181405896	68	127
90.55702947845805	90.73120181405896	80	127
90.73120181405896	90.9053514739229	61	127
90.73120181405896	90.91696145124716	53	127
90.73120181405896	90.9053514739229	73	127
90.73120181405896	90.91696145124716	65	127
90.91696145124716	91.1259410430839	57	127
90.91696145124716	91.1259410430839	69	127
91.1259410430839	91.32328798185941	49	127
91.1259410430839	91.32328798185941	65	127
91.1259410430839	91.32328798185941	61	127
91.1259410430839	91.32328798185941	77	127
91.32328798185941	91.49746031746032	81	127
91.32328798185941	91.49746031746032	69	127
91.49746031746032	91.69482993197279	53	127
91.49746031746032	91.69482993197279	73	127
91.49746031746032	91.69482993197279	61	127
91.49746031746032	91.69482993197279	65	127
91.69482993197279	91.880589569161	58	127
91.69482993197279	91.880589569161	70	127
91.880589569161	92.0663492063492	65	127
91.880589569161	92.0663492063492	49	127
91.880589569161	92.0663492063492	77	127
91.880589569161	92.0663492063492	61	127
92.0663492063492	92.25210884353741	70	127
92.0663492063492	92.25210884353741	82	127
92.0663492063492	92.25210884353741	65	127
92.0663492063492	92.25210884353741	53	127
92.25210884353741	92.43786848072563	73	127
92.25210884353741	92.43786848072563	58	127
92.25210884353741	92.43786848072563	61	127
92.25210884353741	92.43786848072563	46	127
92.44947845804988	92.64684807256236	73	127
92.44947845804988	92.65845804988662	53	127
92.44947845804988	92.65845804988662	65	127
92.44947845804988	92.65845804988662	85	127
92.65845804988662	92.84421768707483	44	127
92.65845804988662	92.84421768707483	77	127
92.65845804988662	92.84421768707483	56	127
92.65845804988662	92.84421768707483	65	127
92.84421768707483	93.06480725623582	77	127
92.84421768707483	93.06480725623582	49	127
92.84421768707483	93.06480725623582	61	127
92.84421768707483	93.06480725623582	89	127
93.06480725623582	93.2621768707483	68	127
93.06480725623582	93.2621768707483	80	127
93.06480725623582	93.2621768707483	56	127
93.06480725623582	93.2621768707483	41	127
93.2621768707483	93.86589569160998	89	127
93.2621768707483	93.86589569160998	77	127
93.2621768707483	93.4827664399093	44	127
93.4827664399093	93.66852607709751	37	127
93.4827664399093	93.66852607709751	65	127
93.66852607709751	93.86589569160998	68	127
93.86589569160998	94.05165532879819	61	127
93.86589569160998	94.05165532879819	91	127
93.86589569160998	94.05165532879819	79	127
93.86589569160998	94.05165532879819	41	127
94.05165532879819	94.69020408163266	91	127
94.05165532879819	94.69020408163266	79	127
94.05165532879819	94.30707482993198	44	127
94.30707482993198	94.49281179138322	36	127
94.30707482993198	94.50444444444445	65	127
94.50444444444445	94.69020408163266	68	127
94.69020408163266	94.8759410430839	92	127
94.69020408163266	94.8759410430839	80	127
94.69020408163266	94.8759410430839	60	127
94.69020408163266	94.88757369614513	53	127
94.88757369614513	95.2707029478458	92	127
94.88757369614513	95.2707029478458	80	127
94.88757369614513	95.07333333333334	56	127
95.07333333333334	95.25909297052154	47	127
95.07333333333334	95.2707029478458	65	127
95.2707029478458	95.45646258503402	68	127
95.2707029478458	95.58417233560091	71	127
95.2707029478458	95.58417233560091	83	127
95.45646258503402	95.64222222222222	59	127
96.12984126984126	97.79006802721088	56	127
96.7451700680272	98.96267573696146	63	127
96.7451700680272	98.96267573696146	65	127
96.7451700680272	98.96267573696146	53	127
97.79006802721088	98.47505668934241	47	127
98.96267573696146	99.84503401360544	62	127
98.96267573696146	99.55478458049886	56	127
98.96267573696146	99.70571428571428	65	127
99.36902494331066	100.28621315192744	46	127
99.70571428571428	99.94952380952381	67	127
99.70571428571428	99.94952380952381	55	127
99.94952380952381	100.6461224489796	67	127
99.94952380952381	100.6461224489796	55	127
99.94952380952381	100.75061224489797	62	127
100.41392290249433	101.19179138321995	46	127
100.6461224489796	100.85510204081632	53	127
100.6461224489796	100.85510204081632	68	127
100.85510204081632	101.95804988662131	68	127
100.85510204081632	101.95804988662131	53	127
100.85510204081632	102.32956916099774	62	127
101.24984126984127	102.32956916099774	46	127
101.95804988662131	102.36439909297052	65	127
101.95804988662131	102.36439909297052	56	127
102.42244897959183	103.29319727891156	46	127
102.6546485260771	102.73591836734694	65	127
102.6546485260771	102.73591836734694	56	127
102.6546485260771	102.73591836734694	62	127
102.92167800453515	103.8156462585034	55	127
102.92167800453515	103.8156462585034	70	127
102.92167800453515	104.18716553287982	61	127
103.35124716553288	104.18716553287982	46	127
103.8156462585034	104.23360544217687	58	127
103.8156462585034	104.23360544217687	64	127
104.29165532879819	105.3829931972789	46	127
104.51224489795918	104.60512471655329	64	127
104.51224489795918	104.60512471655329	61	127
104.51224489795918	104.60512471655329	58	127
104.91859410430838	105.4526530612245	68	127
104.91859410430838	105.4526530612245	53	127
104.91859410430838	105.76612244897959	60	127
105.4526530612245	106.358231292517	56	127
105.4526530612245	105.90544217687075	65	127
105.4526530612245	106.25374149659864	46	127
105.90544217687075	106.358231292517	59	127
105.90544217687075	106.358231292517	62	127
106.358231292517	107.11287981859411	46	127
106.358231292517	106.71814058956916	63	127
106.358231292517	106.71814058956916	58	127
106.358231292517	106.71814058956916	55	127
106.78780045351473	107.65854875283446	64	127
106.78780045351473	107.65854875283446	61	127
106.78780045351473	107.65854875283446	54	127
107.18253968253968	108.33192743764172	46	127
107.65854875283446	108.36675736961452	62	127
107.65854875283446	108.36675736961452	53	127
107.65854875283446	108.36675736961452	65	127
108.43641723356009	109.31877551020408	46	127
108.43641723356009	108.99369614512472	58	127
108.99369614512472	109.38843537414967	68	127
108.99369614512472	109.87605442176871	62	127
108.99369614512472	109.31877551020408	58	127
109.38843537414967	109.87605442176871	65	127
109.38843537414967	110.27079365079365	46	127
109.38843537414967	110.27079365079365	58	127
109.87605442176871	110.37528344671202	61	127
109.87605442176871	111.83814058956916	65	127
110.37528344671202	110.77002267573697	46	127
110.37528344671202	111.33891156462585	58	127
110.37528344671202	110.68875283446712	62	127
110.77002267573697	111.42018140589569	74	127
110.77002267573697	111.33891156462585	44	127
111.42018140589569	112.27931972789116	44	127
111.42018140589569	111.83814058956916	70	127
111.42018140589569	112.27931972789116	62	127
111.83814058956916	112.39541950113379	64	127
111.83814058956916	113.35904761904762	70	127
112.39541950113379	112.95269841269841	44	127
112.39541950113379	113.35904761904762	58	127
112.39541950113379	112.95269841269841	65	127
113.04557823129252	113.5215873015873	75	127
113.04557823129252	113.35904761904762	43	127
113.5215873015873	114.57809523809524	63	127
113.5215873015873	114.47360544217688	43	127
113.5215873015873	114.12530612244898	74	127
113.5215873015873	114.57809523809524	58	127
114.12530612244898	114.57809523809524	72	127
114.57809523809524	115.49528344671202	70	127
114.57809523809524	114.9960544217687	67	127
114.57809523809524	114.9960544217687	61	127
114.57809523809524	114.9960544217687	40	127
115.07732426303855	115.84358276643991	60	127
115.07732426303855	115.92485260770975	65	127
115.07732426303855	115.84358276643991	41	127
115.55333333333333	116.24993197278911	68	127
115.92485260770975	117.039410430839	64	127
115.92485260770975	116.9465306122449	58	127
115.92485260770975	116.9465306122449	43	127
116.59823129251701	117.3877097505669	67	127
117.039410430839	118.09591836734694	60	127
117.039410430839	117.921768707483	60	127
117.039410430839	117.921768707483	44	127
117.45736961451247	118.44421768707483	65	127
118.09591836734694	118.94344671201814	60	127
118.09591836734694	118.94344671201814	45	127
118.09591836734694	118.94344671201814	63	127
118.56031746031746	118.9898866213152	65	127
119.04793650793651	119.68648526077098	46	127
119.04793650793651	119.68648526077098	62	127
119.04793650793651	119.68648526077098	58	127
119.04793650793651	120.01156462585034	65	127
120.01156462585034	120.19732426303855	67	127
120.20893424036281	120.9055328798186	67	127
120.9055328798186	121.12612244897959	68	127
121.12612244897959	121.95043083900227	63	127
121.12612244897959	121.95043083900227	56	127
121.12612244897959	121.95043083900227	36	127
121.12612244897959	122.04331065759636	68	127
121.95043083900227	122.14780045351473	65	127
121.95043083900227	122.14780045351473	38	127
121.95043083900227	122.14780045351473	59	127
122.14780045351473	122.7863492063492	59	127
122.14780045351473	122.7863492063492	65	127
122.14780045351473	122.7863492063492	38	127
122.7863492063492	122.98371882086168	58	127
122.7863492063492	122.98371882086168	39	127
122.7863492063492	122.98371882086168	58	127
122.98371882086168	123.43650793650794	58	127
122.98371882086168	123.71514739229025	67	127
122.98371882086168	123.43650793650794	39	127
122.98371882086168	123.43650793650794	58	127
123.71514739229025	123.94734693877551	69	127
123.95895691609978	124.67877551020408	66	127
123.95895691609978	124.67877551020408	69	127
123.95895691609978	124.67877551020408	60	127
124.67877551020408	124.87614512471656	70	127
124.67877551020408	124.87614512471656	62	127
124.67877551020408	124.87614512471656	65	127
124.88775510204081	125.64240362811792	70	127
124.88775510204081	125.50308390022676	65	127
124.88775510204081	125.50308390022676	58	127
124.88775510204081	125.50308390022676	38	127
125.50308390022676	125.73528344671202	67	127
125.50308390022676	125.73528344671202	61	127
125.50308390022676	125.73528344671202	40	127
125.73528344671202	126.33900226757369	40	127
125.73528344671202	126.33900226757369	67	127
125.73528344671202	126.33900226757369	61	127
126.33900226757369	126.59442176870748	60	127
126.33900226757369	126.59442176870748	41	127
126.33900226757369	126.59442176870748	60	127
126.59442176870748	127.04721088435375	41	127
126.59442176870748	127.04721088435375	60	127
126.59442176870748	127.04721088435375	60	127
126.59442176870748	127.48839002267573	69	127
127.48839002267573	127.68575963718821	71	127
127.68575963718821	128.2198185941043	71	127
128.2198185941043	128.41718820861678	72	127
128.42879818594105	129.09056689342404	41	127
128.42879818594105	129.1950566893424	69	127
128.42879818594105	129.09056689342404	62	127
128.42879818594105	129.1950566893424	72	127
129.09056689342404	129.29954648526078	63	127
129.09056689342404	129.29954648526078	48	127
129.31115646258505	129.89165532879818	69	127
129.31115646258505	129.89165532879818	48	127
129.89165532879818	130.13544217687075	71	127
129.89165532879818	130.13544217687075	53	127
130.13544217687075	130.72757369614513	71	127
130.13544217687075	130.82045351473923	69	127
130.13544217687075	130.72757369614513	53	127
130.13544217687075	130.72757369614513	62	127
130.72757369614513	130.97138321995465	63	127
130.72757369614513	130.97138321995465	72	127
130.72757369614513	130.97138321995465	60	127
130.97138321995465	131.59832199546486	81	127
130.97138321995465	131.59832199546486	60	127
131.59832199546486	131.81891156462586	83	127
131.59832199546486	131.81891156462586	65	127
131.81891156462586	132.51551020408164	81	127
131.81891156462586	132.42263038548754	62	127
131.81891156462586	132.42263038548754	42	127
131.81891156462586	132.51551020408164	69	127
131.81891156462586	132.42263038548754	83	127
132.42263038548754	132.59678004535147	48	127
132.42263038548754	132.59678004535147	63	127
132.42263038548754	132.59678004535147	84	127
132.59678004535147	133.23532879818595	81	127
132.59678004535147	133.23532879818595	48	127
133.23532879818595	133.44430839002268	54	127
133.23532879818595	133.44430839002268	83	127
133.44430839002268	134.08285714285714	81	127
133.44430839002268	133.98997732426304	62	127
133.44430839002268	133.98997732426304	54	127
133.44430839002268	134.08285714285714	69	127
133.44430839002268	133.98997732426304	83	127
133.98997732426304	134.164126984127	63	127
133.98997732426304	134.164126984127	60	127
133.98997732426304	134.164126984127	84	127
134.164126984127	134.80267573696145	84	127
134.164126984127	134.80267573696145	60	127
134.80267573696145	135.15097505668933	86	127
134.80267573696145	135.15097505668933	66	127
135.15097505668933	135.7314739229025	72	127
135.15097505668933	135.7314739229025	74	127
135.15097505668933	135.7314739229025	43	127
135.15097505668933	135.7314739229025	86	127
135.15097505668933	135.7314739229025	84	127
135.7314739229025	135.89401360544218	79	127
135.7314739229025	135.89401360544218	48	127
135.7314739229025	135.89401360544218	75	127
135.7314739229025	135.89401360544218	87	127
135.90562358276645	136.47448979591837	48	127
135.90562358276645	136.47448979591837	84	127
136.47448979591837	136.66027210884354	86	127
136.47448979591837	136.66027210884354	55	127
136.66027210884354	137.22916099773244	55	127
136.66027210884354	137.22916099773244	84	127
136.66027210884354	137.22916099773244	72	127
136.66027210884354	137.22916099773244	86	127
136.66027210884354	137.22916099773244	74	127
137.22916099773244	137.39167800453515	87	127
137.22916099773244	137.39167800453515	60	127
137.22916099773244	137.39167800453515	75	127
137.22916099773244	137.39167800453515	79	127
137.4265306122449	137.97219954648526	87	127
137.4265306122449	137.97219954648526	60	127
137.97219954648526	138.1463492063492	88	127
137.97219954648526	138.1463492063492	67	127
138.1463492063492	138.66879818594106	72	127
138.1463492063492	138.66879818594106	44	127
138.1463492063492	138.66879818594106	76	127
138.1463492063492	138.66879818594106	88	127
138.1463492063492	138.66879818594106	84	127
138.66879818594106	138.83133786848072	77	127
138.66879818594106	138.83133786848072	60	127
138.66879818594106	138.83133786848072	48	127
138.66879818594106	138.83133786848072	89	127
138.83133786848072	139.3421768707483	48	127
139.3421768707483	139.52793650793652	56	127
139.52793650793652	140.08521541950114	72	127
139.52793650793652	140.08521541950114	88	127
139.52793650793652	140.08521541950114	84	127
139.52793650793652	140.08521541950114	76	127
139.52793650793652	140.08521541950114	56	127
140.08521541950114	140.2825850340136	60	127
140.08521541950114	140.2825850340136	89	127
140.08521541950114	140.2825850340136	60	127
140.08521541950114	140.2825850340136	77	127
140.29419501133788	140.95596371882087	60	127
140.95596371882087	141.15333333333334	68	127
141.15333333333334	141.3507029478458	65	127
141.15333333333334	141.62934240362813	89	127
141.15333333333334	141.3507029478458	77	127
141.3507029478458	141.5132426303855	75	127
141.3507029478458	141.5132426303855	72	127
141.52485260770976	141.62934240362813	72	127
141.52485260770976	141.62934240362813	75	127
141.62934240362813	141.81510204081633	70	127
141.62934240362813	141.81510204081633	91	127
141.62934240362813	141.81510204081633	73	127
141.81510204081633	142.34916099773244	91	127
141.81510204081633	141.98925170068028	73	127
141.81510204081633	141.98925170068028	70	127
141.98925170068028	142.1634013605442	72	127
141.98925170068028	142.1634013605442	68	127
142.1634013605442	142.34916099773244	68	127
142.1634013605442	142.34916099773244	72	127
142.34916099773244	142.53492063492064	92	127
142.34916099773244	142.53492063492064	68	127
142.34916099773244	142.53492063492064	65	127
142.5465306122449	142.91802721088436	92	127
142.5465306122449	142.7322902494331	65	127
142.5465306122449	142.7322902494331	68	127
142.7322902494331	142.91802721088436	63	127
142.7322902494331	142.91802721088436	67	127
142.91802721088436	143.19668934240363	83	127
142.91802721088436	143.06895691609978	67	127
142.91802721088436	143.06895691609978	63	127
143.06895691609978	143.25473922902495	62	127
143.06895691609978	143.25473922902495	65	127
143.25473922902495	143.40566893424037	65	127
143.25473922902495	143.40566893424037	62	127
143.40566893424037	143.57979591836735	60	127
143.40566893424037	143.57979591836735	63	127
143.59142857142857	143.9281179138322	72	127
143.59142857142857	143.74235827664398	63	127
143.59142857142857	143.74235827664398	60	127
143.74235827664398	143.91650793650794	56	127
143.74235827664398	143.91650793650794	60	127
143.9281179138322	144.57827664399093	68	127
144.10226757369614	144.1951247165533	63	127
144.10226757369614	144.1951247165533	60	127
144.28802721088437	144.67115646258503	48	127
144.28802721088437	144.48539682539683	63	127
144.28802721088437	144.48539682539683	60	127
144.48539682539683	144.67115646258503	60	127
144.48539682539683	144.67115646258503	56	127
144.67115646258503	145.2516553287982	44	127
144.845306122449	144.92657596371882	63	127
144.845306122449	144.92657596371882	60	127
145.00784580498868	145.1587755102041	63	127
145.00784580498868	145.28648526077097	75	127
145.00784580498868	145.1587755102041	60	127
145.1587755102041	145.35614512471656	56	127
145.1587755102041	145.35614512471656	60	127
145.35614512471656	145.9714739229025	72	127
145.51868480725625	145.5767120181406	68	127
145.51868480725625	145.5767120181406	60	127
145.70444444444445	146.05274376417233	39	127
145.70444444444445	145.87857142857143	68	127
145.70444444444445	145.99469387755101	60	127
145.87857142857143	146.05274376417233	63	127
146.05274376417233	146.69129251700681	36	127
146.27333333333334	146.33138321995466	68	127
146.27333333333334	146.33138321995466	56	127
146.44748299319727	146.80739229024942	84	127
146.44748299319727	146.61002267573696	68	127
146.44748299319727	146.73773242630386	56	127
146.61002267573696	146.7841723356009	63	127
146.80739229024942	147.14408163265307	68	127
146.80739229024942	147.14408163265307	72	127
146.80739229024942	147.318231292517	80	127
147.14408163265307	147.42272108843537	63	127
147.14408163265307	147.50399092970522	60	127
147.14408163265307	147.42272108843537	56	127
147.318231292517	147.50399092970522	78	127
147.50399092970522	148.09609977324263	56	127
147.50399092970522	147.66650793650794	75	127
147.66650793650794	147.89873015873016	68	127
147.89873015873016	148.65337868480725	68	127
147.89873015873016	148.09609977324263	72	127
147.89873015873016	148.65337868480725	72	127
148.09609977324263	148.27024943310659	54	127
148.09609977324263	148.28183673469388	75	127
148.28183673469388	148.83913832199548	80	127
148.28183673469388	148.45600907029478	51	127
148.45600907029478	148.65337868480725	44	127
148.65337868480725	148.83913832199548	48	127
148.65337868480725	148.94362811791385	63	127
148.65337868480725	148.94362811791385	56	127
148.83913832199548	149.0016553287982	51	127
148.83913832199548	149.0016553287982	78	127
149.0016553287982	149.16421768707482	75	127
149.0016553287982	149.47768707482993	56	127
149.16421768707482	149.3267573696145	68	127
149.3267573696145	150.0697732426304	72	127
149.3267573696145	150.0697732426304	68	127
149.3267573696145	149.47768707482993	72	127
149.47768707482993	149.69827664399094	54	127
149.47768707482993	149.69827664399094	75	127
149.69827664399094	149.88403628117914	51	127
149.69827664399094	150.00013605442177	80	127
149.88403628117914	150.0697732426304	44	127
150.0697732426304	150.66190476190476	78	127
150.0697732426304	150.23233560090702	48	127
150.0697732426304	150.34843537414966	63	127
150.0697732426304	150.34843537414966	56	127
150.23233560090702	150.40648526077098	51	127
150.40648526077098	150.69673469387754	56	127
150.5574149659864	150.94052154195012	68	127
150.5574149659864	150.94052154195012	72	127
150.76639455782313	151.11469387755102	75	127
150.76639455782313	151.4397732426304	54	127
150.94052154195012	151.11469387755102	63	127
150.94052154195012	151.11469387755102	56	127
151.11469387755102	151.4397732426304	72	127
151.30043083900227	151.6835827664399	68	127
151.30043083900227	151.6835827664399	72	127
151.52104308390022	151.99705215419502	66	127
151.52104308390022	151.8693424036281	51	127
151.6835827664399	151.8693424036281	56	127
151.6835827664399	151.8693424036281	63	127
151.8693424036281	152.05510204081634	48	127
152.05510204081634	152.13637188208617	78	127
152.05510204081634	152.13637188208617	63	127
152.05510204081634	152.13637188208617	81	127
152.22925170068027	152.438231292517	44	127
152.22925170068027	152.3453514739229	78	127
152.22925170068027	152.3453514739229	75	127
152.22925170068027	152.3453514739229	56	127
152.44984126984127	152.55433106575964	72	127
152.44984126984127	152.55433106575964	68	127
152.44984126984127	152.55433106575964	75	127
152.68201814058958	153.19285714285715	61	127
152.68201814058958	152.8445804988662	76	127
152.68201814058958	152.8445804988662	73	127
152.68201814058958	152.96068027210885	61	127
152.8445804988662	153.01873015873016	71	127
152.8445804988662	153.01873015873016	80	127
153.01873015873016	153.19285714285715	80	127
153.01873015873016	153.19285714285715	71	127
153.19285714285715	153.37863945578232	63	127
153.19285714285715	153.37863945578232	69	127
153.19285714285715	153.37863945578232	78	127
153.37863945578232	153.90108843537416	63	127
153.37863945578232	153.55278911564625	69	127
153.37863945578232	153.55278911564625	78	127
153.55278911564625	153.71532879818594	68	127
153.55278911564625	153.71532879818594	76	127
153.71532879818594	153.90108843537416	76	127
153.71532879818594	153.90108843537416	68	127
153.90108843537416	154.05201814058958	73	127
153.90108843537416	154.05201814058958	64	127
153.90108843537416	154.05201814058958	64	127
154.05201814058958	154.24938775510205	64	127
154.05201814058958	154.42353741496598	64	127
154.05201814058958	154.24938775510205	73	127
154.24938775510205	154.41192743764174	71	127
154.24938775510205	154.41192743764174	63	127
154.42353741496598	154.58607709750567	63	127
154.42353741496598	154.58607709750567	71	127
154.42353741496598	154.73700680272108	55	127
154.58607709750567	154.7950566893424	70	127
154.58607709750567	154.7950566893424	61	127
154.7950566893424	154.96920634920636	70	127
154.7950566893424	154.96920634920636	61	127
154.96920634920636	155.1781859410431	68	127
154.96920634920636	155.1781859410431	59	127
155.1781859410431	155.38714285714286	59	127
155.1781859410431	155.59614512471654	44	127
155.1781859410431	155.38714285714286	68	127
155.38714285714286	155.57292517006803	64	127
155.38714285714286	155.57292517006803	56	127
155.59614512471654	156.2695238095238	40	127
155.7702947845805	155.82834467120182	68	127
155.7702947845805	155.82834467120182	59	127
155.97927437641724	156.36238095238096	80	127
155.97927437641724	156.15340136054422	68	127
155.97927437641724	156.15340136054422	59	127
156.15340136054422	156.36238095238096	64	127
156.15340136054422	156.36238095238096	56	127
156.36238095238096	156.98934240362811	76	127
156.5597732426304	156.61780045351475	64	127
156.5597732426304	156.61780045351475	68	127
156.73392290249433	156.89646258503402	64	127
156.73392290249433	157.0822222222222	47	127
156.73392290249433	156.89646258503402	68	127
156.89646258503402	157.0822222222222	56	127
156.89646258503402	157.0822222222222	64	127
157.0822222222222	157.70916099773243	44	127
157.25637188208617	157.3144217687075	71	127
157.25637188208617	157.3144217687075	64	127
157.41891156462586	157.73238095238096	64	127
157.41891156462586	157.7904081632653	83	127
157.41891156462586	157.61628117913833	71	127
157.61628117913833	157.7904081632653	68	127
157.7904081632653	158.30124716553289	80	127
157.9645804988662	158.01102040816326	76	127
157.9645804988662	158.01102040816326	64	127
158.08068027210885	158.33609977324264	64	127
158.08068027210885	158.39414965986396	68	127
158.08068027210885	158.22	76	127
158.22	158.3825396825397	71	127
158.39414965986396	158.70761904761906	80	127
158.39414965986396	158.881768707483	64	127
158.70761904761906	159.04430839002268	92	127
158.70761904761906	159.1719954648526	76	127
158.881768707483	159.04430839002268	62	127
159.04430839002268	159.4158276643991	68	127
159.04430839002268	159.23006802721088	59	127
159.04430839002268	159.57834467120182	88	127
159.23006802721088	159.4158276643991	52	127
159.23006802721088	159.4158276643991	74	127
159.4158276643991	159.99632653061224	64	127
159.4158276643991	159.57834467120182	71	127
159.4158276643991	159.57834467120182	56	127
159.57834467120182	159.77573696145126	86	127
159.57834467120182	159.77573696145126	59	127
159.57834467120182	159.77573696145126	64	127
159.77573696145126	160.33301587301588	64	127
159.77573696145126	159.99632653061224	83	127
159.77573696145126	159.99632653061224	68	127
159.99632653061224	160.15886621315192	76	127
159.99632653061224	160.15886621315192	71	127
159.99632653061224	160.15886621315192	62	127
160.15886621315192	160.33301587301588	59	127
160.15886621315192	160.65809523809523	76	127
160.15886621315192	160.33301587301588	80	127
160.33301587301588	160.53038548752835	83	127
160.33301587301588	160.51877551020408	62	127
160.33301587301588	160.51877551020408	52	127
160.53038548752835	161.0528344671202	88	127
160.53038548752835	160.71614512471655	56	127
160.53038548752835	160.71614512471655	59	127
160.71614512471655	160.8902947845805	59	127
160.71614512471655	160.8902947845805	52	127
160.71614512471655	160.8902947845805	74	127
160.8902947845805	161.4243537414966	64	127
160.8902947845805	161.0528344671202	71	127
160.8902947845805	161.0528344671202	56	127
161.0528344671202	161.22698412698412	86	127
161.0528344671202	161.22698412698412	64	127
161.0528344671202	161.22698412698412	59	127
161.22698412698412	161.54045351473923	64	127
161.22698412698412	161.4243537414966	83	127
161.22698412698412	161.4243537414966	68	127
161.4243537414966	161.59850340136055	68	127
161.4243537414966	161.59850340136055	71	127
161.4243537414966	161.59850340136055	76	127
161.59850340136055	162.23702947845806	62	127
161.59850340136055	161.80748299319728	80	127
161.59850340136055	161.80748299319728	76	127
161.59850340136055	161.91197278911565	71	127
161.80748299319728	161.97002267573697	64	127
161.80748299319728	161.97002267573697	83	127
161.97002267573697	162.2718820861678	88	127
162.15578231292517	162.32993197278913	64	127
162.15578231292517	162.32993197278913	71	127
162.32993197278913	162.678231292517	68	127
162.32993197278913	162.89882086167802	86	127
162.32993197278913	162.73628117913833	59	127
162.32993197278913	162.51569160997732	76	127
162.51569160997732	162.73628117913833	64	127
162.73628117913833	163.0265306122449	56	127
162.92204081632653	163.08458049886622	68	127
162.92204081632653	163.08458049886622	71	127
162.92204081632653	163.00328798185942	83	127
163.08458049886622	163.72310657596373	52	127
163.08458049886622	163.4096598639456	71	127
163.08458049886622	163.18907029478459	80	127
163.08458049886622	163.29356009070295	76	127
163.29356009070295	163.45609977324264	64	127
163.29356009070295	163.37482993197278	76	127
163.46768707482994	163.54897959183674	74	127
163.63024943310657	163.71151927437643	71	127
163.63024943310657	163.71151927437643	77	127
163.63024943310657	163.71151927437643	74	127
163.80439909297053	163.88566893424036	64	127
163.80439909297053	164.07142857142858	40	127
163.80439909297053	163.88566893424036	74	127
163.80439909297053	163.88566893424036	71	127
163.9785260770975	164.04820861678004	68	127
163.9785260770975	164.04820861678004	76	127
163.9785260770975	164.04820861678004	71	127
164.12945578231293	164.37328798185942	81	127
164.12945578231293	164.73319727891158	69	127
164.12945578231293	164.73319727891158	57	127
164.12945578231293	164.37328798185942	72	127
164.37328798185942	164.53580498866214	79	127
164.37328798185942	164.53580498866214	76	127
164.54743764172335	164.73319727891158	79	127
164.54743764172335	164.73319727891158	76	127
164.73319727891158	164.9073469387755	77	127
164.73319727891158	164.9073469387755	71	127
164.73319727891158	164.9073469387755	59	127
164.73319727891158	164.9073469387755	74	127
164.9073469387755	165.10471655328797	77	127
164.9073469387755	165.46462585034013	59	127
164.9073469387755	165.46462585034013	71	127
164.9073469387755	165.10471655328797	74	127
165.10471655328797	165.27886621315193	76	127
165.10471655328797	165.27886621315193	72	127
165.27886621315193	165.46462585034013	76	127
165.27886621315193	165.46462585034013	72	127
165.46462585034013	165.63877551020408	69	127
165.46462585034013	165.63877551020408	72	127
165.46462585034013	165.63877551020408	72	127
165.46462585034013	165.63877551020408	60	127
165.63877551020408	165.99868480725624	60	127
165.63877551020408	165.99868480725624	72	127
165.63877551020408	165.82453514739228	72	127
165.63877551020408	165.82453514739228	69	127
165.82453514739228	165.99868480725624	67	127
165.82453514739228	165.99868480725624	71	127
165.99868480725624	166.2889342403628	63	127
165.99868480725624	166.17281179138322	67	127
165.99868480725624	166.2889342403628	51	127
165.99868480725624	166.17281179138322	71	127
166.17281179138322	166.33537414965986	69	127
166.17281179138322	166.33537414965986	66	127
166.34698412698413	166.53272108843538	69	127
166.34698412698413	166.53272108843538	66	127
166.53272108843538	166.70689342403628	64	127
166.53272108843538	166.70689342403628	67	127
166.70689342403628	166.89263038548754	64	127
166.70689342403628	166.89263038548754	67	127
166.70689342403628	167.00875283446712	52	127
166.89263038548754	167.06680272108844	64	127
166.89263038548754	167.06680272108844	60	127
167.06680272108844	167.6705215419501	48	127
167.2409523809524	167.31061224489795	64	127
167.2409523809524	167.31061224489795	54	127
167.43832199546486	167.58925170068028	54	127
167.43832199546486	167.7401814058957	70	127
167.43832199546486	167.58925170068028	64	127
167.58925170068028	167.7401814058957	66	127
167.58925170068028	167.7401814058957	64	127
167.7401814058957	167.90272108843538	47	127
167.7401814058957	168.0652380952381	71	127
167.90272108843538	168.0652380952381	54	127
168.0652380952381	168.35551020408164	66	127
168.0652380952381	168.35551020408164	63	127
168.0652380952381	168.239410430839	54	127
168.239410430839	168.39034013605442	57	127
168.4019501133787	169.04049886621314	52	127
168.56448979591838	168.6225396825397	57	127
168.56448979591838	168.6225396825397	66	127
168.7386394557823	169.121768707483	72	127
168.7386394557823	168.9592290249433	66	127
168.7386394557823	168.9592290249433	57	127
168.9592290249433	169.121768707483	69	127
168.9592290249433	169.121768707483	66	127
169.121768707483	169.31913832199547	51	127
169.121768707483	169.49328798185942	78	127
169.31913832199547	169.49328798185942	54	127
169.49328798185942	169.66743764172335	54	127
169.49328798185942	169.77192743764172	66	127
169.49328798185942	169.77192743764172	69	127
169.49328798185942	169.77192743764172	71	127
169.66743764172335	169.82997732426304	63	127
169.82997732426304	170.51496598639457	63	127
170.004126984127	170.06215419501135	66	127
170.004126984127	170.06215419501135	69	127
170.17827664399093	170.34081632653061	69	127
170.17827664399093	170.51496598639457	78	127
170.17827664399093	170.34081632653061	66	127
170.34081632653061	170.51496598639457	69	127
170.34081632653061	170.51496598639457	72	127
170.51496598639457	171.5714739229025	79	127
170.51496598639457	170.79360544217687	64	127
170.6891156462585	170.74716553287982	67	127
170.6891156462585	170.74716553287982	71	127
170.8516553287982	171.36249433106576	67	127
170.8516553287982	171.02580498866214	71	127
170.8516553287982	171.19995464852607	59	127
171.02580498866214	171.1883446712018	76	127
171.19995464852607	171.5714739229025	57	127
171.19995464852607	171.36249433106576	76	127
171.36249433106576	171.5714739229025	71	127
171.36249433106576	171.5714739229025	64	127
171.5714739229025	171.85009070294785	71	127
171.5714739229025	171.85009070294785	55	127
171.5714739229025	171.85009070294785	64	127
171.5714739229025	171.74560090702948	71	127
171.74560090702948	171.90816326530611	64	127
171.90816326530611	172.58154195011338	83	127
171.90816326530611	172.58154195011338	41	127
172.08231292517007	172.1403628117914	80	127
172.08231292517007	172.1403628117914	62	127
172.25643990929706	172.4190022675737	80	127
172.25643990929706	172.4190022675737	62	127
172.4190022675737	172.58154195011338	71	127
172.4190022675737	172.58154195011338	74	127
172.58154195011338	173.33619047619047	40	127
172.58154195011338	172.9530612244898	84	127
172.76727891156463	172.83696145124716	79	127
172.76727891156463	172.83696145124716	60	127
172.9530612244898	173.16204081632654	60	127
172.9530612244898	173.16204081632654	79	127
172.9530612244898	173.2781179138322	79	127
173.16204081632654	173.33619047619047	67	127
173.16204081632654	173.33619047619047	72	127
173.33619047619047	173.5219501133787	72	127
173.33619047619047	173.66126984126984	77	127
173.33619047619047	173.9282993197279	36	127
173.33619047619047	173.5219501133787	67	127
173.5219501133787	173.66126984126984	60	127
173.5219501133787	173.66126984126984	67	127
173.66126984126984	173.84702947845804	60	127
173.66126984126984	173.96312925170068	76	127
173.66126984126984	173.84702947845804	67	127
173.84702947845804	174.00956916099773	60	127
173.84702947845804	174.00956916099773	64	127
174.021179138322	174.682947845805	56	127
174.18371882086169	174.241768707483	74	127
174.18371882086169	174.241768707483	65	127
174.34625850340137	174.5204081632653	65	127
174.34625850340137	174.5204081632653	74	127
174.5204081632653	174.682947845805	71	127
174.5204081632653	174.682947845805	62	127
174.682947845805	175.07768707482992	57	127
174.88031746031746	174.94997732426305	72	127
174.88031746031746	174.94997732426305	64	127
175.07768707482992	175.26344671201815	64	127
175.07768707482992	175.34471655328798	52	127
175.07768707482992	175.26344671201815	72	127
175.26344671201815	175.4027664399093	60	127
175.26344671201815	175.4027664399093	69	127
175.4027664399093	176.07614512471656	76	127
175.4027664399093	175.73945578231292	50	127
175.60013605442177	175.64657596371882	52	127
175.60013605442177	175.64657596371882	68	127
175.73945578231292	175.92521541950114	52	127
175.73945578231292	176.0297052154195	48	127
175.73945578231292	175.92521541950114	68	127
175.92521541950114	176.0645351473923	56	127
175.92521541950114	176.0645351473923	64	127
176.07614512471656	176.3780045351474	47	127
176.07614512471656	176.3780045351474	77	127
176.22707482993198	176.2851247165533	72	127
176.22707482993198	176.2851247165533	57	127
176.3780045351474	176.67986394557823	72	127
176.3780045351474	176.55213151927438	57	127
176.3780045351474	176.67986394557823	45	127
176.3780045351474	176.55213151927438	72	127
176.55213151927438	176.73791383219955	65	127
176.55213151927438	176.73791383219955	60	127
176.73791383219955	177.12104308390022	71	127
176.73791383219955	176.93528344671202	57	127
176.73791383219955	177.12104308390022	43	127
176.73791383219955	176.93528344671202	60	127
176.93528344671202	177.2835827664399	60	127
176.93528344671202	177.2835827664399	57	127
177.12104308390022	177.39968253968254	69	127
177.12104308390022	177.39968253968254	41	127
177.29519274376418	177.6667120181406	60	127
177.29519274376418	177.6667120181406	57	127
177.49256235827664	177.84086167800453	65	127
177.49256235827664	177.84086167800453	57	127
177.6667120181406	178.00340136054422	60	127
177.6667120181406	178.00340136054422	57	127
177.84086167800453	178.11950113378686	63	127
177.84086167800453	178.11950113378686	45	127
178.00340136054422	178.20077097505668	57	127
178.00340136054422	178.20077097505668	60	127
178.20077097505668	178.76965986394558	40	127
178.20077097505668	178.4213605442177	64	127
178.20077097505668	178.76965986394558	59	127
178.20077097505668	178.76965986394558	56	127
178.4213605442177	178.59548752834468	59	127
178.59548752834468	178.76965986394558	59	127
178.76965986394558	178.94380952380953	64	127
178.76965986394558	178.94380952380953	54	127
178.76965986394558	178.94380952380953	36	127
178.76965986394558	178.94380952380953	57	127
178.95539682539683	179.47786848072562	57	127
178.95539682539683	179.47786848072562	54	127
178.95539682539683	179.47786848072562	36	127
178.95539682539683	179.12956916099773	64	127
179.12956916099773	179.3037188208617	57	127
179.3037188208617	179.47786848072562	57	127
179.47786848072562	179.6404081632653	64	127
179.47786848072562	179.6404081632653	40	127
179.47786848072562	179.6404081632653	56	127
179.47786848072562	179.6404081632653	59	127
179.6404081632653	180.15124716553288	40	127
179.6404081632653	179.8261678004535	64	127
179.6404081632653	180.15124716553288	59	127
179.6404081632653	180.15124716553288	56	127
179.8261678004535	179.9887074829932	59	127
180.00031746031746	180.15124716553288	59	127
180.15124716553288	180.33698412698413	57	127
180.15124716553288	180.33698412698413	54	127
180.15124716553288	180.33698412698413	36	127
180.15124716553288	180.33698412698413	64	127
180.33698412698413	180.85945578231292	57	127
180.33698412698413	180.85945578231292	36	127
180.33698412698413	180.85945578231292	54	127
180.33698412698413	180.51115646258503	64	127
180.51115646258503	180.67369614512472	57	127
180.67369614512472	180.85945578231292	57	127
180.85945578231292	181.03360544217688	56	127
180.85945578231292	181.03360544217688	64	127
180.85945578231292	181.03360544217688	59	127
180.85945578231292	181.03360544217688	40	127
181.03360544217688	181.28902494331066	40	127
181.03360544217688	181.19614512471657	64	127
181.03360544217688	181.28902494331066	59	127
181.03360544217688	181.28902494331066	56	127
181.19614512471657	181.34707482993198	59	127
181.34707482993198	181.5212244897959	59	127
181.5212244897959	181.69537414965987	64	127
181.70698412698414	181.86950113378686	64	127
181.86950113378686	181.92757369614512	59	127
181.86950113378686	182.04367346938776	71	127
182.04367346938776	182.20621315192744	71	127
182.04367346938776	182.20621315192744	59	127
182.20621315192744	182.3455328798186	64	127
182.20621315192744	182.3455328798186	76	127
182.3455328798186	182.50807256235828	64	127
182.3455328798186	182.50807256235828	64	127
182.3455328798186	182.50807256235828	76	127
182.3455328798186	182.50807256235828	64	127
182.50807256235828	182.68219954648526	71	127
182.50807256235828	182.68219954648526	59	127
182.50807256235828	182.68219954648526	59	127
182.50807256235828	182.68219954648526	59	127
182.69383219954648	182.8447619047619	59	127
182.69383219954648	182.8447619047619	59	127
182.69383219954648	182.8447619047619	59	127
182.69383219954648	182.8447619047619	71	127
182.8447619047619	182.9956916099773	76	127
182.8447619047619	182.9956916099773	64	127
182.8447619047619	182.9956916099773	52	127
182.8447619047619	182.9956916099773	64	127
182.9956916099773	183.18145124716554	76	127
182.9956916099773	183.18145124716554	64	127
182.9956916099773	183.18145124716554	52	127
182.9956916099773	183.18145124716554	64	127
183.18145124716554	183.36721088435374	83	127
183.18145124716554	183.36721088435374	59	127
183.18145124716554	183.36721088435374	47	127
183.18145124716554	183.36721088435374	71	127
183.36721088435374	183.57619047619048	83	127
183.36721088435374	183.57619047619048	59	127
183.36721088435374	183.57619047619048	47	127
183.36721088435374	183.57619047619048	71	127
183.57619047619048	183.84321995464853	76	127
183.57619047619048	183.84321995464853	40	127
183.57619047619048	183.84321995464853	52	127
183.57619047619048	183.84321995464853	88	127
183.84321995464853	186.6180045351474	45	127
184.2263492063492	184.55142857142857	65	127
184.2263492063492	184.55142857142857	69	127
184.2263492063492	184.34244897959184	81	127
184.38888888888889	184.50498866213152	77	127
184.55142857142857	184.65591836734694	79	127
184.55142857142857	184.91133786848073	64	127
184.55142857142857	184.91133786848073	67	127
184.71396825396826	184.86489795918368	76	127
184.91133786848073	185.2364172335601	62	127
184.91133786848073	185.2364172335601	65	127
184.91133786848073	185.0158276643991	77	127
185.06226757369615	185.12031746031747	74	127
185.2364172335601	185.50344671201813	64	127
185.2364172335601	185.38734693877552	76	127
185.2364172335601	185.50344671201813	60	127
185.38734693877552	185.54986394557824	72	127
185.54986394557824	185.95621315192744	72	127
185.54986394557824	185.74725623582768	76	127
185.54986394557824	185.95621315192744	64	127
185.75886621315192	185.95621315192744	84	127
185.95621315192744	186.3277551020408	76	127
185.95621315192744	186.13038548752834	88	127
185.95621315192744	186.3277551020408	72	127
186.13038548752834	186.3161224489796	84	127
186.3277551020408	186.6528344671202	72	127
186.3277551020408	186.53673469387755	76	127
186.3277551020408	186.6528344671202	64	127
186.53673469387755	186.69927437641724	84	127
186.7108843537415	187.0591836734694	62	127
186.7108843537415	187.0591836734694	50	127
186.7108843537415	186.88503401360543	82	127
186.7108843537415	187.0591836734694	70	127
186.88503401360543	187.0591836734694	74	127
187.0591836734694	187.40748299319728	74	127
187.0591836734694	187.23331065759638	77	127
187.0591836734694	187.34943310657596	46	127
187.0591836734694	187.40748299319728	65	127
187.2449433106576	187.40748299319728	86	127
187.40748299319728	187.6861224489796	64	127
187.40748299319728	187.57002267573696	84	127
187.40748299319728	187.73256235827665	72	127
187.40748299319728	187.9531292517007	48	127
187.57002267573696	187.72095238095238	76	127
187.73256235827665	188.02281179138322	64	127
187.73256235827665	187.8718820861678	79	127
187.73256235827665	187.98798185941044	67	127
187.8718820861678	188.02281179138322	76	127
188.02281179138322	188.58009070294784	50	127
188.02281179138322	188.17374149659864	82	127
188.02281179138322	188.32467120181406	70	127
188.02281179138322	188.58009070294784	62	127
188.1853514739229	188.32467120181406	77	127
188.32467120181406	188.60331065759638	65	127
188.32467120181406	188.48721088435374	74	127
188.48721088435374	188.64975056689343	77	127
188.6613605442177	189.0096598639456	60	127
188.6613605442177	189.2534693877551	52	127
188.6613605442177	188.8471201814059	76	127
188.6613605442177	189.0096598639456	64	127
188.8471201814059	189.0096598639456	72	127
189.0096598639456	189.27666666666667	56	127
189.0096598639456	189.17219954648527	71	127
189.0096598639456	189.27666666666667	59	127
189.17219954648527	189.3463492063492	68	127
189.3463492063492	190.3215873015873	45	127
189.71786848072563	190.08938775510205	60	127
189.71786848072563	189.83396825396827	76	127
189.71786848072563	190.08938775510205	64	127
189.8919954648526	190.03133786848073	72	127
190.08938775510205	190.40285714285713	62	127
190.08938775510205	190.40285714285713	59	127
190.08938775510205	190.19387755102042	74	127
190.24031746031747	190.35641723356008	71	127
190.40285714285713	190.71632653061224	57	127
190.40285714285713	190.71632653061224	60	127
190.40285714285713	190.5073469387755	72	127
190.40285714285713	190.6698866213152	48	127
190.56539682539682	190.61183673469387	69	127
190.71632653061224	190.9833560090703	59	127
190.71632653061224	191.2968253968254	52	127
190.71632653061224	190.86725623582765	71	127
190.71632653061224	190.9833560090703	55	127
190.86725623582765	191.01818594104307	67	127
191.02979591836734	191.7728344671202	59	127
191.02979591836734	191.2039455782313	71	127
191.02979591836734	191.41292517006804	67	127
191.2039455782313	191.41292517006804	79	127
191.41292517006804	191.7728344671202	71	127
191.41292517006804	191.6102947845805	83	127
191.41292517006804	192.03986394557822	55	127
191.6102947845805	191.7728344671202	79	127
191.7728344671202	192.06308390022676	64	127
191.7728344671202	191.94698412698412	71	127
191.7728344671202	192.06308390022676	67	127
191.9585941043084	192.1095238095238	79	127
192.1095238095238	193.06154195011337	48	127
192.4578231292517	192.80612244897958	63	127
192.4578231292517	192.57392290249433	79	127
192.4578231292517	192.80612244897958	67	127
192.63197278911565	192.75968253968253	75	127
192.80612244897958	193.14281179138322	65	127
192.80612244897958	193.14281179138322	62	127
192.80612244897958	192.92222222222222	77	127
192.98027210884354	193.09637188208617	74	127
193.14281179138322	193.4911111111111	60	127
193.14281179138322	193.4911111111111	63	127
193.14281179138322	193.2705215419501	75	127
193.14281179138322	193.4330612244898	51	127
193.31696145124715	193.37501133786847	72	127
193.4911111111111	193.75814058956917	62	127
193.4911111111111	194.04839002267573	55	127
193.4911111111111	193.6536507936508	74	127
193.4911111111111	193.75814058956917	59	127
193.6536507936508	193.80458049886622	71	127
193.80458049886622	194.1296598639456	71	127
193.80458049886622	194.38507936507938	67	127
193.80458049886622	193.95551020408163	74	127
193.9671201814059	194.1296598639456	83	127
194.1296598639456	194.4663492063492	74	127
194.1296598639456	194.74498866213153	59	127
194.1296598639456	194.29219954648525	86	127
194.30380952380952	194.4663492063492	83	127
194.4663492063492	194.7798185941043	67	127
194.4663492063492	194.83786848072563	71	127
194.4663492063492	194.66371882086167	79	127
194.66371882086167	194.82625850340136	83	127
194.83786848072563	195.18616780045352	74	127
195.18616780045352	195.56929705215418	59	127
195.18616780045352	195.48802721088435	67	127
195.56929705215418	195.92920634920634	62	127
195.74344671201814	195.82471655328797	71	127
195.92920634920634	196.1962358276644	55	127
195.92920634920634	196.0336961451247	74	127
196.1033560090703	196.16140589569162	67	127
196.23106575963718	196.78834467120183	79	127
196.42843537414967	196.53292517006804	59	127
196.61419501133787	196.6954648526077	62	127
196.78834467120183	196.84639455782312	77	127
196.78834467120183	196.86961451247166	55	127
196.96249433106576	197.415283446712	76	127
196.96249433106576	197.415283446712	67	127
197.0785941043084	197.15986394557822	52	127
197.25274376417232	197.3224036281179	55	127
197.415283446712	197.5081632653061	74	127
197.415283446712	197.53138321995465	48	127
197.415283446712	197.5081632653061	65	127
197.61265306122448	198.10027210884354	72	127
197.61265306122448	198.18154195011337	60	127
197.61265306122448	198.10027210884354	64	127
197.77519274376417	197.84485260770975	40	127
197.93773242630385	198.01900226757368	43	127
198.10027210884354	198.15832199546486	70	127
198.10027210884354	198.15832199546486	76	127
198.10027210884354	198.18154195011337	36	127
198.27442176870747	198.80848072562358	77	127
198.27442176870747	198.91297052154195	48	127
198.27442176870747	198.80848072562358	69	127
198.4601814058957	198.5530612244898	57	127
198.63433106575962	198.71560090702948	60	127
198.80848072562358	198.8897505668934	72	127
198.80848072562358	198.8897505668934	79	127
198.80848072562358	198.91297052154195	53	127
198.99424036281178	199.4934693877551	72	127
198.99424036281178	199.57473922902494	65	127
198.99424036281178	199.4934693877551	81	127
199.15678004535147	199.23804988662133	41	127
199.33092970521542	199.41219954648525	45	127
199.4934693877551	199.65600907029477	84	127
199.4934693877551	199.65600907029477	69	127
199.4934693877551	199.57473922902494	36	127
199.66761904761904	200.03913832199547	84	127
199.66761904761904	200.03913832199547	69	127
199.66761904761904	199.7488888888889	50	127
199.87659863945578	199.95786848072564	57	127
200.03913832199547	200.32938775510203	74	127
200.03913832199547	200.32938775510203	72	127
200.03913832199547	200.13201814058957	62	127
200.22489795918366	200.29455782312925	54	127
200.38743764172335	201.01437641723356	66	127
200.38743764172335	200.89827664399093	81	127
200.38743764172335	200.89827664399093	72	127
200.54997732426304	200.63124716553287	42	127
200.724126984127	200.8170068027211	45	127
200.89827664399093	201.01437641723356	38	127
200.89827664399093	201.0956462585034	84	127
200.89827664399093	201.0956462585034	69	127
201.0956462585034	201.45555555555555	84	127
201.0956462585034	201.68775510204082	50	127
201.0956462585034	201.45555555555555	69	127
201.29301587301586	201.45555555555555	59	127
201.45555555555555	201.71097505668934	74	127
201.45555555555555	201.60648526077097	62	127
201.45555555555555	201.71097505668934	72	127
201.60648526077097	201.75741496598638	55	127
201.76902494331065	201.9431746031746	71	127
201.76902494331065	202.40757369614514	67	127
201.76902494331065	202.66299319727892	83	127
201.9431746031746	202.14054421768708	55	127
201.9431746031746	202.14054421768708	59	127
202.14054421768708	202.32630385487528	60	127
202.14054421768708	202.32630385487528	57	127
202.32630385487528	202.48884353741497	59	127
202.32630385487528	202.48884353741497	62	127
202.48884353741497	203.46408163265306	67	127
202.48884353741497	203.88204081632654	60	127
202.48884353741497	203.09256235827664	63	127
202.66299319727892	202.83714285714285	81	127
202.83714285714285	203.0112925170068	79	127
203.0112925170068	203.18544217687074	81	127
203.18544217687074	204.2651700680272	69	127
203.18544217687074	203.34798185941042	79	127
203.34798185941042	203.53374149659865	77	127
203.53374149659865	204.2651700680272	67	127
203.53374149659865	203.70789115646258	75	127
203.70789115646258	203.88204081632654	77	127
203.88204081632654	204.520589569161	62	127
203.88204081632654	204.06780045351474	75	127
204.06780045351474	204.2651700680272	74	127
204.2651700680272	204.43931972789116	72	127
204.2651700680272	204.5554195011338	62	127
204.2651700680272	204.5554195011338	66	127
204.43931972789116	204.60185941043085	74	127
204.60185941043085	205.51904761904763	72	127
204.60185941043085	205.9602267573696	62	127
204.78761904761905	204.961768707483	54	127
204.78761904761905	204.961768707483	50	127
204.961768707483	205.15913832199547	55	127
204.961768707483	205.15913832199547	52	127
205.15913832199547	205.32167800453516	54	127
205.15913832199547	205.32167800453516	57	127
205.32167800453516	206.77292517006802	58	127
205.32167800453516	206.77292517006802	55	127
205.51904761904763	205.7164172335601	70	127
205.7164172335601	205.87895691609978	69	127
205.87895691609978	206.0531065759637	70	127
206.0531065759637	206.22725623582767	69	127
206.0531065759637	206.77292517006802	63	127
206.22725623582767	206.41301587301587	67	127
206.41301587301587	206.58716553287982	66	127
206.58716553287982	206.77292517006802	67	127
206.77292517006802	207.38825396825396	57	127
206.77292517006802	206.94707482993198	65	127
206.77292517006802	207.06317460317462	60	127
206.77292517006802	207.46952380952382	57	127
206.94707482993198	207.13283446712018	63	127
207.13283446712018	207.56240362811792	69	127
207.13283446712018	207.38825396825396	62	127
207.38825396825396	207.56240362811792	63	127
207.38825396825396	207.56240362811792	55	127
207.56240362811792	207.84104308390022	60	127
207.56240362811792	207.9803628117914	74	127
207.56240362811792	207.84104308390022	62	127
207.56240362811792	207.84104308390022	54	127
208.03841269841269	208.51442176870748	72	127
208.39832199546484	208.5724716553288	57	127
208.39832199546484	208.5724716553288	63	127
208.39832199546484	208.5724716553288	48	127
208.58408163265307	208.74662131519275	69	127
208.74662131519275	208.93238095238095	67	127
208.93238095238095	209.09492063492064	69	127
209.09492063492064	209.4780498866213	67	127
209.30390022675738	209.68702947845804	57	127
209.30390022675738	209.4780498866213	51	127
209.30390022675738	209.68702947845804	60	127
209.4780498866213	210.23269841269843	66	127
209.4780498866213	209.6986394557823	50	127
209.6986394557823	210.2675283446712	60	127
209.6986394557823	209.89600907029478	51	127
209.6986394557823	210.2675283446712	57	127
209.89600907029478	210.2675283446712	50	127
210.32557823129252	210.51133786848072	48	127
210.32557823129252	210.7087074829932	74	127
210.32557823129252	210.51133786848072	57	127
210.32557823129252	210.51133786848072	54	127
210.7087074829932	211.01056689342403	79	127
211.08022675736962	211.28920634920635	47	127
211.08022675736962	211.60267573696146	77	127
211.08022675736962	211.28920634920635	62	127
211.08022675736962	211.28920634920635	55	127
211.66072562358278	211.84648526077098	74	127
211.84648526077098	212.0554648526077	41	127
211.84648526077098	212.06707482993198	72	127
211.84648526077098	212.0554648526077	62	127
211.84648526077098	212.0554648526077	56	127
212.06707482993198	212.2412244897959	74	127
212.25283446712018	212.6243537414966	72	127
212.43859410430838	212.83333333333334	62	127
212.43859410430838	212.6243537414966	44	127
212.43859410430838	212.83333333333334	65	127
212.6243537414966	212.83333333333334	43	127
212.6243537414966	213.3093424036281	71	127
212.83333333333334	213.33256235827665	62	127
212.83333333333334	213.33256235827665	65	127
212.83333333333334	213.01909297052154	44	127
213.01909297052154	213.33256235827665	43	127
213.41383219954648	213.76213151927436	67	127
213.41383219954648	213.76213151927436	79	127
213.76213151927436	214.05238095238096	84	127
213.76213151927436	214.05238095238096	72	127
213.9478911564626	214.11043083900228	52	127
214.11043083900228	214.49356009070294	76	127
214.11043083900228	214.62126984126985	70	127
214.11043083900228	214.30780045351474	55	127
214.11043083900228	214.62126984126985	82	127
214.30780045351474	214.49356009070294	48	127
214.49356009070294	214.8534693877551	79	127
214.67931972789117	214.8534693877551	49	127
214.67931972789117	214.8534693877551	81	127
214.67931972789117	214.8534693877551	69	127
214.8534693877551	215.03922902494332	67	127
214.8534693877551	215.15532879818593	73	127
214.8534693877551	215.03922902494332	79	127
214.8534693877551	215.03922902494332	52	127
215.03922902494332	215.20176870748298	69	127
215.03922902494332	215.20176870748298	45	127
215.03922902494332	215.20176870748298	81	127
215.20176870748298	215.39913832199545	79	127
215.20176870748298	215.39913832199545	67	127
215.39913832199545	215.58489795918368	65	127
215.39913832199545	215.58489795918368	50	127
215.39913832199545	215.58489795918368	77	127
215.58489795918368	215.9564172335601	74	127
215.58489795918368	216.09573696145125	80	127
215.58489795918368	215.7590476190476	53	127
215.58489795918368	215.9564172335601	68	127
215.7590476190476	215.9564172335601	48	127
215.9564172335601	216.33954648526077	77	127
215.9564172335601	216.33954648526077	62	127
216.15378684807257	216.33954648526077	79	127
216.15378684807257	216.33954648526077	47	127
216.33954648526077	216.51369614512473	50	127
216.33954648526077	216.65301587301587	67	127
216.33954648526077	216.51369614512473	77	127
216.33954648526077	216.65301587301587	71	127
216.51369614512473	216.72267573696146	79	127
216.51369614512473	216.72267573696146	43	127
216.72267573696146	216.8968253968254	77	127
216.72267573696146	217.07097505668935	48	127
216.90843537414966	217.24512471655328	67	127
216.90843537414966	217.07097505668935	76	127
217.07097505668935	217.4308843537415	64	127
217.07097505668935	217.24512471655328	79	127
217.07097505668935	217.5237641723356	46	127
217.24512471655328	217.4308843537415	72	127
217.24512471655328	217.4308843537415	64	127
217.4308843537415	217.7443537414966	67	127
217.58181405895692	217.7443537414966	73	127
217.58181405895692	217.7443537414966	45	127
217.58181405895692	217.9301133786848	64	127
217.7443537414966	217.9301133786848	43	127
217.7443537414966	218.0578231292517	61	127
217.7443537414966	217.9301133786848	76	127
217.9301133786848	218.115873015873	61	127
217.9301133786848	218.115873015873	45	127
217.9301133786848	218.115873015873	69	127
218.12748299319728	218.29002267573696	43	127
218.29002267573696	218.46417233560092	41	127
218.29002267573696	218.64993197278912	65	127
218.29002267573696	218.46417233560092	74	127
218.46417233560092	218.88213151927437	62	127
218.46417233560092	218.64993197278912	77	127
218.46417233560092	218.998231292517	44	127
218.64993197278912	218.88213151927437	72	127
218.64993197278912	218.88213151927437	62	127
218.88213151927437	219.23043083900228	65	127
219.04467120181405	219.4045804988662	62	127
219.04467120181405	219.23043083900228	71	127
219.04467120181405	219.23043083900228	43	127
219.23043083900228	219.4045804988662	41	127
219.23043083900228	219.4045804988662	74	127
219.23043083900228	219.53229024943312	59	127
219.4045804988662	219.5903401360544	67	127
219.4045804988662	219.5903401360544	43	127
219.4045804988662	219.5903401360544	59	127
219.5903401360544	219.66	41	127
219.7877097505669	219.95024943310656	52	127
219.7877097505669	219.95024943310656	40	127
219.7877097505669	219.95024943310656	76	127
219.7877097505669	219.95024943310656	64	127
219.95024943310656	220.12439909297052	67	127
219.95024943310656	220.12439909297052	43	127
219.95024943310656	220.12439909297052	79	127
219.95024943310656	220.12439909297052	55	127
220.12439909297052	220.35659863945577	60	127
220.12439909297052	220.35659863945577	36	127
220.12439909297052	220.35659863945577	72	127
220.12439909297052	220.35659863945577	48	127
220.5655782312925	220.7281179138322	64	127
220.5655782312925	220.7281179138322	40	127
220.5655782312925	220.7281179138322	76	127
220.5655782312925	220.7281179138322	52	127
220.7281179138322	220.91387755102042	68	127
220.7281179138322	220.91387755102042	44	127
220.7281179138322	220.91387755102042	80	127
220.7281179138322	220.91387755102042	56	127
220.91387755102042	221.1112471655329	60	127
220.91387755102042	221.1112471655329	36	127
220.91387755102042	221.1112471655329	72	127
220.91387755102042	221.1112471655329	48	127
221.29700680272109	221.47115646258504	64	127
221.29700680272109	221.47115646258504	40	127
221.29700680272109	221.47115646258504	76	127
221.29700680272109	221.47115646258504	52	127
221.47115646258504	221.63369614512473	69	127
221.47115646258504	221.63369614512473	45	127
221.47115646258504	221.63369614512473	81	127
221.47115646258504	221.63369614512473	57	127
221.63369614512473	221.86589569160998	36	127
221.63369614512473	221.86589569160998	72	127
221.63369614512473	221.86589569160998	60	127
221.63369614512473	221.86589569160998	48	127
221.87750566893425	222.07487528344672	70	127
221.87750566893425	222.07487528344672	82	127
221.87750566893425	222.07487528344672	58	127
221.87750566893425	222.21419501133786	48	127
222.07487528344672	222.29546485260772	48	127
222.07487528344672	222.29546485260772	72	127
222.07487528344672	222.29546485260772	60	127
222.29546485260772	222.6089342403628	47	127
222.29546485260772	222.4928344671202	71	127
222.29546485260772	222.6089342403628	59	127
222.29546485260772	222.4928344671202	83	127
222.4928344671202	222.7366439909297	59	127
222.4928344671202	222.7366439909297	71	127
222.7366439909297	223.2707029478458	84	127
222.7366439909297	223.2707029478458	81	127
222.93401360544217	223.015283446712	54	127
223.10816326530613	223.18943310657596	57	127
223.2707029478458	223.35197278911565	51	127
223.2707029478458	223.44485260770975	79	127
223.2707029478458	223.44485260770975	83	127
223.45646258503402	224.00213151927437	81	127
223.45646258503402	224.00213151927437	63	127
223.45646258503402	224.00213151927437	78	127
223.64222222222222	223.72349206349207	43	127
223.8047619047619	223.90925170068027	47	127
224.00213151927437	224.17628117913833	79	127
224.00213151927437	224.07179138321996	40	127
224.00213151927437	224.17628117913833	76	127
224.00213151927437	224.17628117913833	64	127
224.17628117913833	225.47659863945577	52	127
224.17628117913833	224.6871201814059	77	127
224.17628117913833	224.6871201814059	74	127
224.32721088435375	224.51297052154194	56	127
224.51297052154194	224.6871201814059	59	127
224.6871201814059	224.86126984126983	72	127
224.6871201814059	224.86126984126983	76	127
224.6871201814059	224.86126984126983	52	127
224.86126984126983	225.13990929705216	74	127
224.86126984126983	225.13990929705216	71	127
225.13990929705216	225.30244897959184	69	127
225.13990929705216	225.30244897959184	72	127
225.13990929705216	225.30244897959184	60	127
225.30244897959184	225.47659863945577	64	127
225.30244897959184	225.47659863945577	71	127
225.30244897959184	225.47659863945577	68	127
225.47659863945577	225.662358276644	57	127
225.47659863945577	225.65074829931973	53	127
225.47659863945577	225.662358276644	69	127
225.47659863945577	225.65074829931973	69	127
225.662358276644	225.85972789115647	60	127
225.662358276644	225.85972789115647	72	127
225.85972789115647	226.0338775510204	57	127
225.85972789115647	226.0338775510204	45	127
225.85972789115647	226.0338775510204	65	127
225.85972789115647	226.0338775510204	53	127
226.0338775510204	226.24285714285713	60	127
226.0338775510204	226.24285714285713	48	127
226.24285714285713	226.4170068027211	57	127
226.24285714285713	226.4170068027211	65	127
226.24285714285713	226.4170068027211	41	127
226.24285714285713	226.4170068027211	69	127
226.4170068027211	226.62598639455783	73	127
226.4170068027211	226.62598639455783	61	127
226.62598639455783	226.83496598639456	45	127
226.62598639455783	226.83496598639456	53	127
226.62598639455783	226.83496598639456	57	127
226.62598639455783	226.83496598639456	65	127
226.83496598639456	227.0091156462585	49	127
226.83496598639456	227.0091156462585	61	127
227.0091156462585	227.18326530612245	57	127
227.0091156462585	227.17165532879818	41	127
227.0091156462585	227.18326530612245	69	127
227.0091156462585	227.17165532879818	65	127
227.18326530612245	227.34580498866214	62	127
227.18326530612245	227.34580498866214	74	127
227.34580498866214	227.49673469387756	53	127
227.34580498866214	227.49673469387756	45	127
227.34580498866214	227.49673469387756	65	127
227.34580498866214	227.49673469387756	57	127
227.49673469387756	227.7057142857143	62	127
227.49673469387756	227.7057142857143	50	127
227.49673469387756	227.7057142857143	77	127
227.49673469387756	227.7057142857143	65	127
227.7057142857143	227.87986394557822	65	127
227.7057142857143	227.87986394557822	41	127
227.7057142857143	227.87986394557822	69	127
227.7057142857143	227.87986394557822	57	127
227.87986394557822	228.06562358276645	63	127
227.87986394557822	228.28621315192743	53	127
227.87986394557822	228.06562358276645	81	127
227.87986394557822	228.06562358276645	69	127
228.06562358276645	228.33265306122448	69	127
228.06562358276645	228.33265306122448	60	127
228.34426303854875	228.57646258503402	68	127
228.34426303854875	228.57646258503402	76	127
228.34426303854875	228.57646258503402	64	127
228.34426303854875	228.78544217687076	52	127
228.57646258503402	228.84349206349205	59	127
228.57646258503402	228.84349206349205	64	127
228.84349206349205	229.3659410430839	77	127
228.84349206349205	229.3659410430839	62	127
229.02925170068028	229.1105215419501	71	127
229.19179138321996	229.2730612244898	74	127
229.3659410430839	229.43560090702948	68	127
229.3659410430839	229.52848072562358	60	127
229.3659410430839	229.52848072562358	76	127
229.52848072562358	230.07414965986393	80	127
229.52848072562358	230.07414965986393	59	127
229.52848072562358	230.07414965986393	74	127
229.69102040816327	229.7722902494331	48	127
229.87678004535147	229.98126984126984	52	127
230.07414965986393	230.27151927437643	81	127
230.07414965986393	230.27151927437643	57	127
230.07414965986393	230.1786394557823	45	127
230.07414965986393	230.27151927437643	72	127
230.27151927437643	231.2467573696145	57	127
230.27151927437643	230.82879818594105	55	127
230.27151927437643	230.82879818594105	82	127
230.48049886621314	230.64303854875283	73	127
230.64303854875283	230.82879818594105	76	127
230.82879818594105	230.9913378684807	69	127
230.82879818594105	230.9913378684807	53	127
230.82879818594105	230.9913378684807	81	127
231.00294784580498	231.16548752834467	52	127
231.00294784580498	231.16548752834467	79	127
231.16548752834467	231.32802721088436	77	127
231.16548752834467	231.32802721088436	65	127
231.16548752834467	231.32802721088436	50	127
231.32802721088436	231.5370068027211	76	127
231.32802721088436	231.5370068027211	49	127
231.32802721088436	231.51378684807256	69	127
231.5370068027211	231.71115646258502	50	127
231.5370068027211	231.71115646258502	50	127
231.5370068027211	231.71115646258502	62	127
231.5370068027211	231.71115646258502	74	127
231.71115646258502	231.8736961451247	53	127
231.71115646258502	231.8736961451247	65	127
231.8736961451247	232.10589569161	62	127
231.8736961451247	232.10589569161	46	127
231.8736961451247	232.10589569161	74	127
231.8736961451247	232.10589569161	58	127
232.10589569161	232.26843537414965	65	127
232.10589569161	232.26843537414965	77	127
232.26843537414965	232.45419501133787	50	127
232.26843537414965	232.4425850340136	58	127
232.26843537414965	232.45419501133787	62	127
232.26843537414965	232.4425850340136	70	127
232.45419501133787	232.63995464852607	54	127
232.45419501133787	232.63995464852607	66	127
232.63995464852607	232.87215419501135	74	127
232.63995464852607	232.87215419501135	58	127
232.63995464852607	232.87215419501135	46	127
232.63995464852607	232.87215419501135	62	127
232.87215419501135	233.04630385487528	78	127
232.87215419501135	233.04630385487528	66	127
233.04630385487528	233.20884353741496	50	127
233.04630385487528	233.20884353741496	58	127
233.04630385487528	233.20884353741496	62	127
233.04630385487528	233.20884353741496	70	127
233.20884353741496	233.42943310657597	55	127
233.20884353741496	233.42943310657597	67	127
233.42943310657597	233.61519274376417	46	127
233.42943310657597	233.61519274376417	62	127
233.42943310657597	233.61519274376417	58	127
233.42943310657597	233.61519274376417	74	127
233.61519274376417	233.78934240362813	70	127
233.61519274376417	233.78934240362813	50	127
233.61519274376417	233.78934240362813	79	127
233.61519274376417	233.78934240362813	67	127
233.78934240362813	233.9867120181406	62	127
233.78934240362813	233.9867120181406	43	127
233.78934240362813	233.9867120181406	70	127
233.78934240362813	233.9867120181406	58	127
233.9867120181406	234.1724716553288	65	127
233.9867120181406	234.1724716553288	50	127
233.9867120181406	234.1724716553288	82	127
233.9867120181406	234.1724716553288	70	127
234.1724716553288	234.34662131519275	74	127
234.1724716553288	234.34662131519275	41	127
234.1724716553288	234.34662131519275	62	127
234.34662131519275	234.56721088435373	74	127
234.34662131519275	234.56721088435373	86	127
234.34662131519275	234.56721088435373	65	127
234.34662131519275	234.56721088435373	46	127
234.56721088435373	234.77619047619046	65	127
234.56721088435373	234.77619047619046	50	127
234.56721088435373	234.77619047619046	77	127
234.56721088435373	234.77619047619046	70	127
234.77619047619046	235.41473922902495	86	127
234.77619047619046	235.41473922902495	74	127
234.77619047619046	234.99678004535147	53	127
234.99678004535147	235.21736961451248	46	127
234.99678004535147	235.22897959183675	62	127
235.22897959183675	235.41473922902495	65	127
235.41473922902495	235.62371882086168	58	127
235.41473922902495	235.62371882086168	50	127
235.41473922902495	235.62371882086168	88	127
235.41473922902495	235.62371882086168	76	127
235.62371882086168	236.19260770975058	88	127
235.62371882086168	236.19260770975058	76	127
235.62371882086168	235.82108843537415	53	127
235.82108843537415	236.00684807256235	45	127
235.82108843537415	236.00684807256235	62	127
236.00684807256235	236.19260770975058	65	127
236.19260770975058	236.38997732426304	57	127
236.19260770975058	236.4015873015873	50	127
236.19260770975058	236.38997732426304	89	127
236.19260770975058	236.38997732426304	77	127
236.4015873015873	236.8427664399093	77	127
236.4015873015873	236.5873469387755	53	127
236.4015873015873	236.8427664399093	89	127
236.5873469387755	236.8427664399093	44	127
236.5873469387755	236.8427664399093	62	127
236.8427664399093	237.22589569160996	68	127
236.8427664399093	237.09818594104308	65	127
236.8427664399093	237.22589569160996	80	127
237.09818594104308	237.28394557823128	56	127
237.88766439909298	239.11832199546484	53	127
238.28240362811792	240.38380952380953	60	127
238.28240362811792	240.47668934240363	74	127
238.28240362811792	240.38380952380953	62	127
238.28240362811792	240.38380952380953	62	127
238.28240362811792	240.38380952380953	72	127
239.11832199546484	239.45501133786848	44	127
240.47668934240363	241.16167800453513	74	127
240.47668934240363	240.91786848072562	43	127
240.47668934240363	241.2661678004535	71	127
240.47668934240363	241.2661678004535	59	127
240.47668934240363	241.2661678004535	65	127
240.97591836734694	241.71895691609978	55	127
241.16167800453513	241.35904761904763	76	127
241.37065759637187	242.11369614512472	71	127
241.37065759637187	242.00920634920635	76	127
241.37065759637187	242.00920634920635	64	127
241.81183673469388	242.56648526077097	55	127
242.00920634920635	242.20657596371882	77	127
242.00920634920635	242.20657596371882	62	127
242.20657596371882	243.27469387755102	71	127
242.20657596371882	242.99605442176872	62	127
242.20657596371882	242.99605442176872	77	127
242.6245351473923	243.27469387755102	55	127
242.99605442176872	243.3095238095238	74	127
242.99605442176872	243.3095238095238	65	127
243.6926530612245	244.49374149659863	55	127
243.94807256235828	244.0061224489796	71	127
243.94807256235828	244.0061224489796	74	127
243.94807256235828	244.0061224489796	65	127
244.15705215419501	245.08585034013606	61	127
244.15705215419501	245.08585034013606	79	127
244.15705215419501	245.42253968253968	70	127
244.55179138321995	245.42253968253968	55	127
245.08585034013606	245.45736961451246	67	127
245.08585034013606	245.45736961451246	73	127
245.51541950113378	246.28167800453514	55	127
245.71278911564625	245.77083900226756	70	127
245.71278911564625	245.77083900226756	73	127
245.71278911564625	245.77083900226756	64	127
245.92176870748298	246.35133786848073	77	127
245.92176870748298	246.35133786848073	62	127
245.92176870748298	246.35133786848073	69	127
246.35133786848073	247.28013605442177	68	127
246.35133786848073	247.28013605442177	65	127
246.35133786848073	246.89700680272108	74	127
246.35133786848073	247.19886621315192	55	127
246.89700680272108	247.28013605442177	71	127
247.28013605442177	247.69809523809525	67	127
247.28013605442177	248.12766439909296	55	127
247.28013605442177	247.69809523809525	72	127
247.28013605442177	247.69809523809525	64	127
247.79097505668935	248.8126530612245	70	127
247.79097505668935	248.8126530612245	63	127
247.79097505668935	248.8126530612245	73	127
248.22054421768706	249.1493424036281	55	127
248.8126530612245	249.18417233560092	71	127
248.8126530612245	249.18417233560092	74	127
248.8126530612245	249.18417233560092	62	127
249.27705215419502	249.68340136054422	67	127
249.27705215419502	250.04331065759638	55	127
249.68340136054422	252.59750566893425	63	127
249.68340136054422	250.7863492063492	70	127
249.68340136054422	250.14780045351475	79	127
250.14780045351475	251.14625850340136	43	127
250.14780045351475	250.7863492063492	75	127
250.7863492063492	252.59750566893425	67	127
250.7863492063492	251.25074829931972	69	127
251.25074829931972	251.61065759637188	70	127
251.25074829931972	251.6687074829932	43	127
251.6687074829932	252.06344671201813	37	127
251.6687074829932	252.13310657596372	82	127
252.13310657596372	252.59750566893425	79	127
252.13310657596372	253.08512471655328	37	127
252.59750566893425	253.70045351473922	67	127
252.59750566893425	253.2128344671202	74	127
252.59750566893425	253.70045351473922	70	127
253.2128344671202	253.72367346938776	37	127
253.2128344671202	253.72367346938776	75	127
253.8049433106576	254.44349206349207	87	127
253.8049433106576	254.89628117913833	68	127
253.8049433106576	254.38544217687075	36	127
253.8049433106576	254.44349206349207	68	127
254.44349206349207	255.22136054421767	36	127
254.44349206349207	254.89628117913833	84	127
254.44349206349207	255.30263038548753	75	127
254.89628117913833	255.30263038548753	72	127
254.89628117913833	255.30263038548753	80	127
255.30263038548753	256.33591836734695	79	127
255.30263038548753	255.80185941043084	37	127
255.30263038548753	256.33591836734695	76	127
255.30263038548753	256.33591836734695	70	127
255.80185941043084	256.96285714285716	38	127
256.39396825396824	257.4504761904762	69	127
256.39396825396824	257.36920634920637	74	127
256.39396825396824	257.4504761904762	78	127
256.96285714285716	257.84521541950113	45	127
257.4504761904762	260.4458503401361	72	127
257.4504761904762	258.367664399093	76	127
257.4504761904762	258.367664399093	67	127
257.84521541950113	258.72755102040816	50	127
258.367664399093	260.19043083900226	74	127
258.367664399093	258.6811337868481	66	127
258.72755102040816	260.13238095238097	62	127
260.19043083900226	260.4690476190476	69	127
260.5271201814059	261.8738775510204	65	127
260.5271201814059	261.3398185941043	43	127
260.5271201814059	261.7113378684807	74	127
260.5271201814059	261.3398185941043	71	127
261.3862358276644	262.1525170068027	55	127
261.7113378684807	261.8738775510204	76	127
261.8738775510204	262.39632653061227	64	127
261.8738775510204	262.17573696145126	71	127
261.8738775510204	262.39632653061227	76	127
262.23378684807255	262.39632653061227	55	127
262.39632653061227	262.55886621315193	62	127
262.39632653061227	262.55886621315193	77	127
262.5704761904762	264.1029931972789	71	127
262.5704761904762	263.0348752834467	44	127
262.5704761904762	263.49927437641725	77	127
262.5704761904762	263.49927437641725	62	127
263.0813151927438	264.195873015873	56	127
263.49927437641725	264.13782312925173	74	127
263.49927437641725	264.13782312925173	65	127
264.195873015873	264.6138321995465	57	127
264.6138321995465	264.75312925170067	69	127
264.6138321995465	264.75312925170067	65	127
264.6138321995465	264.75312925170067	74	127
264.85761904761904	265.62390022675737	81	127
264.85761904761904	265.62390022675737	66	127
264.85761904761904	265.22916099773244	45	127
264.85761904761904	265.62390022675737	72	127
265.2872108843537	265.960589569161	57	127
265.62390022675737	265.8677097505669	72	127
265.62390022675737	265.8677097505669	66	127
265.62390022675737	265.99541950113377	75	127
266.0534693877551	266.57591836734696	57	127
266.57591836734696	266.63396825396825	76	127
266.57591836734696	266.63396825396825	67	127
266.57591836734696	266.63396825396825	73	127
266.8777777777778	267.8762358276644	79	127
266.8777777777778	267.8762358276644	64	127
266.8777777777778	267.40022675736964	46	127
266.8777777777778	267.8762358276644	73	127
267.49310657596374	268.4219047619048	58	127
267.8762358276644	268.3754648526077	63	127
267.8762358276644	268.3754648526077	78	127
267.8762358276644	268.3754648526077	75	127
268.4219047619048	268.7585941043084	59	127
268.77020408163264	268.828253968254	75	127
268.77020408163264	268.828253968254	71	127
268.77020408163264	268.828253968254	78	127
268.9559410430839	269.7802721088435	74	127
268.9559410430839	269.25780045351473	47	127
268.9559410430839	269.7802721088435	68	127
268.9559410430839	270.02408163265306	83	127
269.3622902494331	270.47687074829935	59	127
270.02408163265306	270.372380952381	77	127
270.02408163265306	270.372380952381	74	127
270.02408163265306	270.372380952381	68	127
270.639410430839	270.80195011337867	59	127
270.81356009070294	270.9644897959184	78	127
270.81356009070294	270.9644897959184	69	127
270.81356009070294	270.9644897959184	75	127
270.9644897959184	272.0558276643991	81	127
270.9644897959184	272.0558276643991	66	127
270.9644897959184	271.28956916099776	47	127
270.9644897959184	272.0558276643991	75	127
271.34761904761905	272.56666666666666	59	127
272.0558276643991	272.48539682539683	79	127
272.0558276643991	272.48539682539683	76	127
272.0558276643991	272.48539682539683	64	127
272.56666666666666	272.76403628117913	60	127
272.76403628117913	272.9381632653061	79	127
272.76403628117913	272.9381632653061	72	127
272.76403628117913	272.9381632653061	76	127
272.9381632653061	273.8553514739229	84	127
272.9381632653061	273.3213151927438	48	127
272.9381632653061	273.6812244897959	76	127
272.9381632653061	273.6812244897959	70	127
273.42580498866215	274.34299319727893	60	127
273.8553514739229	273.9714739229025	76	127
273.8553514739229	273.9714739229025	70	127
273.8553514739229	274.23850340136056	79	127
274.435873015873	275.43433106575964	61	127
274.6912925170068	274.9118820861678	76	127
274.6912925170068	274.9118820861678	79	127
274.6912925170068	274.9118820861678	70	127
274.92349206349206	275.8639002267574	79	127
274.92349206349206	275.9451700680272	88	127
274.92349206349206	275.9451700680272	70	127
275.492358276644	276.4560090702948	61	127
275.9451700680272	276.31666666666666	82	127
275.9451700680272	276.31666666666666	79	127
275.9451700680272	276.31666666666666	76	127
276.5488888888889	276.8855782312925	60	127
276.72301587301587	276.93201814058955	82	127
276.72301587301587	276.93201814058955	79	127
276.72301587301587	276.93201814058955	64	127
276.93201814058955	279.01020408163265	88	127
276.93201814058955	277.55895691609976	76	127
276.93201814058955	277.55895691609976	59	127
276.93201814058955	277.95367346938775	91	127
277.55895691609976	277.97691609977323	64	127
277.55895691609976	278.38326530612244	71	127
278.0349659863946	279.01020408163265	91	127
278.0349659863946	278.38326530612244	67	127
278.38326530612244	279.01020408163265	79	127
278.38326530612244	278.6618820861678	70	127
278.73156462585035	279.01020408163265	71	127
279.068231292517	280.1595918367347	91	127
279.068231292517	279.91578231292516	87	127
279.068231292517	279.91578231292516	78	127
279.068231292517	280.1595918367347	71	127
279.91578231292516	280.1943990929705	88	127
279.91578231292516	280.1943990929705	79	127
280.24086167800453	280.6239909297052	71	127
280.24086167800453	280.90263038548756	91	127
280.24086167800453	280.90263038548756	86	127
280.24086167800453	280.90263038548756	77	127
280.6239909297052	280.90263038548756	72	127
280.99551020408165	281.6108390022676	84	127
280.99551020408165	281.6108390022676	76	127
280.99551020408165	282.00557823129253	91	127
280.99551020408165	282.00557823129253	72	127
281.6108390022676	282.05201814058955	77	127
281.6108390022676	282.05201814058955	86	127
282.09845804988663	282.78344671201813	76	127
282.09845804988663	282.50480725623584	72	127
282.09845804988663	282.78344671201813	91	127
282.09845804988663	282.78344671201813	84	127
282.50480725623584	282.78344671201813	73	127
282.8414965986395	283.68902494331064	88	127
282.8414965986395	283.3987755102041	82	127
282.8414965986395	283.3987755102041	79	127
282.8414965986395	283.68902494331064	73	127
283.3987755102041	283.7122448979592	84	127
283.3987755102041	283.7122448979592	81	127
283.7702721088435	284.50172335600905	79	127
283.7702721088435	284.2114739229025	73	127
283.7702721088435	284.50172335600905	88	127
283.7702721088435	284.50172335600905	82	127
284.2114739229025	284.50172335600905	74	127
284.5597732426304	285.62789115646257	77	127
284.5597732426304	285.26798185941044	74	127
284.5597732426304	285.62789115646257	89	127
284.5597732426304	285.62789115646257	81	127
285.26798185941044	285.6975510204082	72	127
285.7556009070295	286.1270975056689	72	127
285.7556009070295	286.440589569161	87	127
285.7556009070295	286.440589569161	81	127
285.7556009070295	286.440589569161	77	127
286.1270975056689	286.440589569161	70	127
286.4986394557823	286.9165986394558	70	127
286.4986394557823	287.21845804988664	86	127
286.4986394557823	287.21845804988664	82	127
286.4986394557823	287.21845804988664	77	127
286.9165986394558	287.2416780045352	65	127
287.4738775510204	288.21691609977324	77	127
287.4738775510204	287.9498866213152	65	127
287.4738775510204	288.21691609977324	84	127
287.4738775510204	288.21691609977324	80	127
287.9498866213152	288.21691609977324	58	127
288.2749433106576	289.0528344671202	74	127
288.2749433106576	288.7393650793651	58	127
288.2749433106576	289.0528344671202	82	127
288.2749433106576	289.0528344671202	77	127
288.7393650793651	289.12249433106575	53	127
289.25020408163266	290.0048299319728	72	127
289.25020408163266	289.6913832199547	53	127
289.25020408163266	290.0048299319728	80	127
289.25020408163266	290.0048299319728	77	127
289.6913832199547	290.0048299319728	38	127
290.12095238095236	291.1542403628118	77	127
290.12095238095236	290.8756009070295	38	127
290.12095238095236	291.1542403628118	72	127
290.12095238095236	291.1542403628118	68	127
290.8756009070295	291.1890702947846	39	127
291.2703401360544	291.60702947845806	75	127
291.2703401360544	291.60702947845806	67	127
291.2703401360544	291.60702947845806	72	127
291.2703401360544	291.7231292517007	39	127
291.7231292517007	292.0946485260771	41	127
292.9537868480726	294.0102947845805	74	127
292.9537868480726	294.0102947845805	68	127
292.9537868480726	294.0102947845805	53	127
292.9537868480726	294.0102947845805	62	127
292.9537868480726	294.0102947845805	72	127
295.1829024943311	295.8911111111111	42	127
296.901179138322	298.10861678004534	72	127
296.901179138322	298.10861678004534	74	127
296.901179138322	298.10861678004534	69	127
296.901179138322	298.10861678004534	62	127
296.901179138322	298.10861678004534	54	127
300.2912925170068	300.5466893424036	55	127
300.2912925170068	300.5466893424036	43	127
300.5466893424036	300.6047619047619	62	127
300.5466893424036	300.6047619047619	59	127
300.72086167800455	301.31297052154196	67	127
300.72086167800455	300.8950113378685	62	127
300.72086167800455	300.8950113378685	59	127
300.72086167800455	301.31297052154196	55	127
300.8950113378685	301.04594104308393	62	127
300.8950113378685	301.04594104308393	65	127
301.04594104308393	301.2084807256236	65	127
301.04594104308393	301.2084807256236	62	127
301.2084807256236	301.3826303854875	71	127
301.2084807256236	301.3826303854875	65	127
301.3942403628118	301.5219501133787	71	127
301.3942403628118	301.5219501133787	65	127
301.5219501133787	301.62643990929706	74	127
301.5219501133787	301.62643990929706	71	127
301.62643990929706	301.800589569161	67	127
301.62643990929706	301.800589569161	74	127
301.62643990929706	301.800589569161	71	127
301.62643990929706	301.800589569161	71	127
301.800589569161	301.95151927437644	65	127
301.800589569161	301.95151927437644	77	127
301.800589569161	301.95151927437644	74	127
301.800589569161	301.95151927437644	62	127
301.95151927437644	302.12566893424037	65	127
301.95151927437644	302.12566893424037	77	127
301.95151927437644	302.12566893424037	74	127
301.95151927437644	302.12566893424037	62	127
302.12566893424037	302.2765759637188	62	127
302.12566893424037	302.2765759637188	83	127
302.12566893424037	302.2765759637188	77	127
302.12566893424037	302.2765759637188	55	127
302.2765759637188	302.45074829931974	62	127
302.2765759637188	302.45074829931974	83	127
302.2765759637188	302.45074829931974	77	127
302.2765759637188	302.45074829931974	55	127
302.45074829931974	302.6132879818594	65	127
302.45074829931974	302.6132879818594	86	127
302.45074829931974	302.6132879818594	83	127
302.45074829931974	302.6132879818594	50	127
302.6132879818594	302.7990476190476	50	127
302.6132879818594	302.7990476190476	86	127
302.6132879818594	302.7990476190476	83	127
302.6132879818594	302.7990476190476	65	127
302.7990476190476	302.9731972789116	71	127
302.7990476190476	302.9731972789116	89	127
302.7990476190476	302.9731972789116	67	127
302.7990476190476	302.9731972789116	43	127
302.9731972789116	303.5188662131519	89	127
302.9731972789116	303.1589569160998	43	127
302.9731972789116	303.17056689342405	71	127
302.9731972789116	303.17056689342405	67	127
303.17056689342405	303.344716553288	72	127
303.17056689342405	303.344716553288	68	127
303.35632653061225	303.5188662131519	72	127
303.35632653061225	303.5188662131519	68	127
303.5188662131519	303.63496598639455	73	127
303.5188662131519	303.63496598639455	91	127
303.5188662131519	303.63496598639455	70	127
303.63496598639455	304.16902494331066	91	127
303.63496598639455	303.82072562358275	73	127
303.63496598639455	303.82072562358275	70	127
303.82072562358275	303.99487528344673	70	127
303.82072562358275	303.99487528344673	67	127
303.99487528344673	304.16902494331066	70	127
303.99487528344673	304.16902494331066	67	127
304.16902494331066	304.35478458049886	68	127
304.16902494331066	304.35478458049886	92	127
304.16902494331066	304.35478458049886	65	127
304.3663945578231	304.66825396825396	92	127
304.3663945578231	304.5173242630386	65	127
304.3663945578231	304.5173242630386	62	127
304.5173242630386	304.66825396825396	67	127
304.5173242630386	304.66825396825396	63	127
304.66825396825396	304.90045351473924	83	127
304.66825396825396	304.8307709750567	67	127
304.66825396825396	304.8307709750567	63	127
304.8307709750567	304.95850340136053	68	127
304.8307709750567	304.95850340136053	65	127
304.95850340136053	305.12104308390025	68	127
304.95850340136053	305.12104308390025	65	127
305.12104308390025	305.2835827664399	62	127
305.12104308390025	305.2835827664399	65	127
305.2835827664399	305.4809523809524	65	127
305.2835827664399	305.4809523809524	62	127
305.4809523809524	305.6434920634921	63	127
305.4809523809524	305.6434920634921	84	127
305.4809523809524	305.6434920634921	60	127
305.65507936507936	306.0034013605442	87	127
305.65507936507936	305.8292517006803	72	127
305.65507936507936	305.8292517006803	57	127
305.8292517006803	306.0034013605442	74	127
305.8292517006803	306.0034013605442	58	127
306.0034013605442	306.17755102040815	58	127
306.0034013605442	306.17755102040815	74	127
306.0034013605442	306.30526077097505	78	127
306.17755102040815	306.35170068027213	75	127
306.17755102040815	306.35170068027213	60	127
306.3632879818594	306.5142403628118	75	127
306.3632879818594	306.5142403628118	60	127
306.5142403628118	306.6767573696145	72	127
306.5142403628118	306.6767573696145	57	127
306.6767573696145	306.83931972789117	57	127
306.6767573696145	306.83931972789117	72	127
306.83931972789117	306.99024943310656	79	127
306.83931972789117	306.99024943310656	55	127
306.83931972789117	306.99024943310656	70	127
306.99024943310656	307.1760090702948	64	127
306.99024943310656	307.1760090702948	67	127
306.99024943310656	307.33854875283447	82	127
307.1760090702948	307.3269387755102	69	127
307.1760090702948	307.3269387755102	65	127
307.33854875283447	307.4894557823129	69	127
307.33854875283447	307.4894557823129	65	127
307.33854875283447	307.582358276644	73	127
307.4894557823129	307.6404081632653	67	127
307.4894557823129	307.6404081632653	70	127
307.6404081632653	307.81455782312923	70	127
307.6404081632653	307.81455782312923	67	127
307.81455782312923	307.9887074829932	67	127
307.81455782312923	307.9887074829932	64	127
308.0002947845805	308.1744671201814	64	127
308.0002947845805	308.1744671201814	67	127
308.0002947845805	308.2789569160998	74	127
308.1744671201814	308.3253968253968	65	127
308.1744671201814	308.3253968253968	62	127
308.3253968253968	309.0335827664399	62	127
308.3253968253968	308.4879365079365	62	127
308.3253968253968	308.60403628117916	65	127
308.3253968253968	309.2425850340136	70	127
308.4879365079365	308.6504761904762	65	127
308.66208616780045	308.8362358276644	65	127
308.8362358276644	309.0335827664399	70	127
309.0335827664399	309.6373015873016	61	127
309.0335827664399	309.2425850340136	65	127
309.2425850340136	309.39351473922903	77	127
309.2425850340136	309.39351473922903	70	127
309.39351473922903	309.52122448979594	77	127
309.39351473922903	309.52122448979594	70	127
309.52122448979594	309.7302040816327	82	127
309.52122448979594	309.7302040816327	65	127
309.7302040816327	310.4151927437642	57	127
309.7302040816327	309.9043537414966	65	127
309.7302040816327	310.02045351473924	60	127
309.7302040816327	310.5893424036281	72	127
309.9043537414966	310.06689342403627	60	127
310.07850340136054	310.2526303854875	60	127
310.2526303854875	310.4151927437642	65	127
310.4151927437642	310.9956916099773	56	127
310.4151927437642	310.5893424036281	65	127
310.5893424036281	310.7518820861678	77	127
310.5893424036281	310.7518820861678	72	127
310.7518820861678	310.9144217687075	77	127
310.7518820861678	310.9144217687075	72	127
310.9144217687075	311.0769387755102	84	127
310.9144217687075	311.0769387755102	65	127
311.0885714285714	311.8896371882086	74	127
311.0885714285714	311.25111111111113	62	127
311.0885714285714	311.25111111111113	67	127
311.0885714285714	311.25111111111113	55	127
311.0885714285714	311.7271201814059	47	127
311.25111111111113	311.55297052154197	67	127
311.25111111111113	311.39043083900225	62	127
311.25111111111113	311.55297052154197	62	127
311.39043083900225	311.56458049886623	62	127
311.56458049886623	311.7271201814059	67	127
311.56458049886623	311.8896371882086	67	127
311.56458049886623	311.8896371882086	62	127
311.7271201814059	312.307619047619	46	127
311.7271201814059	311.8896371882086	67	127
311.8896371882086	312.06380952380954	74	127
311.8896371882086	312.06380952380954	79	127
311.8896371882086	312.2263492063492	62	127
311.8896371882086	312.2263492063492	67	127
312.06380952380954	312.2263492063492	74	127
312.06380952380954	312.2263492063492	79	127
312.2263492063492	312.3888888888889	67	127
312.2263492063492	312.3888888888889	62	127
312.2263492063492	312.3888888888889	86	127
312.2263492063492	312.3888888888889	67	127
312.4004761904762	312.5514285714286	60	127
312.4004761904762	312.5514285714286	60	127
312.4004761904762	312.5514285714286	65	127
312.4004761904762	312.5514285714286	77	127
312.4004761904762	313.02743764172334	45	127
312.5514285714286	312.8648979591837	65	127
312.5514285714286	312.7139455782313	84	127
312.5514285714286	312.7139455782313	65	127
312.5514285714286	312.8648979591837	60	127
312.7139455782313	312.87650793650795	84	127
312.7139455782313	312.87650793650795	65	127
312.87650793650795	313.02743764172334	72	127
312.87650793650795	313.18997732426305	60	127
312.87650793650795	313.18997732426305	65	127
312.87650793650795	313.02743764172334	89	127
313.02743764172334	313.6195464852608	44	127
313.02743764172334	313.18997732426305	77	127
313.02743764172334	313.18997732426305	72	127
313.18997732426305	313.34090702947844	84	127
313.18997732426305	313.34090702947844	77	127
313.18997732426305	313.5382766439909	60	127
313.18997732426305	313.5382766439909	65	127
313.3525170068027	313.5382766439909	77	127
313.3525170068027	313.5382766439909	84	127
313.5382766439909	313.7008163265306	72	127
313.5382766439909	313.7008163265306	60	127
313.5382766439909	313.7008163265306	89	127
313.5382766439909	313.7008163265306	65	127
313.7008163265306	313.8865759637188	62	127
313.7008163265306	313.8865759637188	79	127
313.7008163265306	314.3974149659864	43	127
313.7008163265306	313.87496598639456	59	127
313.7008163265306	313.87496598639456	67	127
313.8865759637188	314.0491156462585	86	127
313.8865759637188	314.0491156462585	67	127
313.8865759637188	314.22326530612247	59	127
313.8865759637188	314.22326530612247	67	127
314.0491156462585	314.22326530612247	86	127
314.0491156462585	314.22326530612247	67	127
314.22326530612247	314.5831746031746	59	127
314.22326530612247	314.38580498866213	91	127
314.22326530612247	314.38580498866213	74	127
314.22326530612247	314.5831746031746	67	127
314.3974149659864	315.0011337868481	38	127
314.3974149659864	314.5831746031746	79	127
314.3974149659864	314.5831746031746	74	127
314.5831746031746	314.7457142857143	86	127
314.5831746031746	314.7457142857143	79	127
314.5831746031746	314.91986394557824	59	127
314.5831746031746	314.91986394557824	67	127
314.7457142857143	314.91986394557824	86	127
314.7457142857143	314.91986394557824	79	127
314.91986394557824	315.0824036281179	91	127
314.91986394557824	315.0824036281179	74	127
314.91986394557824	315.0824036281179	59	127
314.91986394557824	315.0824036281179	67	127
315.0824036281179	315.2565532879819	75	127
315.0824036281179	315.2565532879819	60	127
315.0824036281179	316.32467120181406	36	127
315.0824036281179	315.9995918367347	92	127
315.2565532879819	315.41909297052155	63	127
315.2565532879819	315.41909297052155	80	127
315.41909297052155	315.5816326530612	63	127
315.41909297052155	315.5816326530612	80	127
315.5816326530612	315.7441723356009	84	127
315.5816326530612	315.7441723356009	68	127
315.7557823129252	315.91832199546485	84	127
315.7557823129252	315.91832199546485	68	127
315.91832199546485	316.08083900226757	80	127
315.91832199546485	316.08083900226757	72	127
316.08083900226757	316.2434013605442	80	127
316.08083900226757	316.2434013605442	72	127
316.08083900226757	316.4059410430839	87	127
316.2434013605442	316.4059410430839	68	127
316.2434013605442	316.4059410430839	75	127
316.4059410430839	316.5684807256236	75	127
316.4059410430839	316.5684807256236	68	127
316.4059410430839	316.9748299319728	39	127
316.4059410430839	316.73102040816326	84	127
316.5684807256236	316.719410430839	63	127
316.5684807256236	316.719410430839	72	127
316.73102040816326	317.05609977324264	80	127
316.73102040816326	316.893537414966	72	127
316.73102040816326	316.893537414966	63	127
316.893537414966	317.05609977324264	60	127
316.893537414966	317.05609977324264	68	127
317.05609977324264	317.23024943310656	60	127
317.05609977324264	317.3927891156463	75	127
317.05609977324264	317.23024943310656	68	127
317.05609977324264	317.6249886621315	44	127
317.23024943310656	317.3927891156463	56	127
317.23024943310656	317.3927891156463	63	127
317.3927891156463	317.55532879818594	63	127
317.3927891156463	317.55532879818594	56	127
317.3927891156463	317.64820861678004	72	127
317.55532879818594	317.6946485260771	60	127
317.55532879818594	317.6946485260771	51	127
317.6946485260771	318.24031746031744	48	127
317.6946485260771	317.83396825396824	48	127
317.6946485260771	318.24031746031744	68	127
317.83396825396824	317.99650793650795	51	127
318.0081179138322	318.1590476190476	51	127
318.0081179138322	318.32158730158733	60	127
318.1590476190476	318.32158730158733	56	127
318.32158730158733	318.96013605442175	62	127
318.32158730158733	318.5189569160998	67	127
318.32158730158733	318.5189569160998	50	127
318.32158730158733	318.96013605442175	47	127
318.5189569160998	318.704716553288	55	127
318.5189569160998	318.704716553288	74	127
318.704716553288	318.86725623582765	55	127
318.704716553288	318.86725623582765	74	127
318.86725623582765	319.02979591836737	77	127
318.86725623582765	319.02979591836737	62	127
319.04138321995464	319.59868480725623	44	127
319.04138321995464	319.2039455782313	53	127
319.04138321995464	319.59868480725623	72	127
319.2039455782313	319.36648526077096	56	127
319.36648526077096	319.67995464852606	65	127
319.36648526077096	319.5290249433107	56	127
319.5290249433107	319.67995464852606	60	127
319.67995464852606	320.26045351473925	62	127
319.67995464852606	319.87732426303853	71	127
319.67995464852606	319.87732426303853	55	127
319.67995464852606	320.26045351473925	43	127
319.87732426303853	320.0166439909297	59	127
319.87732426303853	320.0166439909297	74	127
320.0166439909297	320.17918367346937	74	127
320.0166439909297	320.17918367346937	59	127
320.17918367346937	320.3417233560091	83	127
320.17918367346937	320.3417233560091	62	127
320.35333333333335	320.94544217687076	83	127
320.35333333333335	320.94544217687076	41	127
320.35333333333335	320.5274829931973	55	127
320.5274829931973	320.69002267573694	62	127
320.69002267573694	320.8641723356009	62	127
320.69002267573694	321.0267120181406	74	127
320.8641723356009	321.0267120181406	67	127
321.0267120181406	321.618820861678	67	127
321.0267120181406	321.1892290249433	55	127
321.0267120181406	321.618820861678	39	127
321.0267120181406	321.36340136054423	84	127
321.1892290249433	321.35179138321996	60	127
321.36340136054423	321.7000680272109	79	127
321.36340136054423	321.53755102040816	60	127
321.53755102040816	321.7000680272109	67	127
321.7000680272109	321.8742403628118	55	127
321.7000680272109	322.0251700680272	77	127
321.7000680272109	322.280589569161	36	127
321.8742403628118	322.0251700680272	60	127
322.0251700680272	322.36185941043084	72	127
322.0251700680272	322.1877097505669	60	127
322.0251700680272	322.30380952380955	75	127
322.1877097505669	322.36185941043084	63	127
322.36185941043084	323.08167800453515	39	127
322.36185941043084	322.54761904761904	51	127
322.36185941043084	322.8262358276644	73	127
322.36185941043084	323.08167800453515	67	127
322.54761904761904	322.8146485260771	55	127
322.8262358276644	323.0004081632653	55	127
322.8262358276644	323.1048979591837	79	127
323.0004081632653	323.162947845805	61	127
323.162947845805	323.3254875283447	38	127
323.162947845805	323.3254875283447	69	127
323.162947845805	323.3254875283447	62	127
323.162947845805	323.33707482993196	78	127
323.33707482993196	323.5112471655329	73	127
323.5112471655329	323.6621768707483	73	127
323.6621768707483	323.81310657596373	74	127
323.81310657596373	324.57936507936506	74	127
323.92920634920637	323.98725623582766	66	127
323.92920634920637	323.98725623582766	57	127
323.92920634920637	323.98725623582766	38	127
324.091746031746	324.25426303854874	57	127
324.091746031746	324.25426303854874	38	127
324.091746031746	324.25426303854874	66	127
324.25426303854874	324.4168253968254	58	127
324.25426303854874	324.4168253968254	67	127
324.25426303854874	324.4168253968254	43	127
324.4168253968254	324.68385487528343	43	127
324.4168253968254	324.68385487528343	58	127
324.4168253968254	324.68385487528343	67	127
324.57936507936506	324.7419047619048	73	127
324.7419047619048	324.9160544217687	73	127
324.9160544217687	325.0553741496599	74	127
325.06698412698415	325.9028798185941	74	127
325.2295238095238	325.28755102040816	62	127
325.2295238095238	325.28755102040816	67	127
325.2295238095238	325.28755102040816	46	127
325.39206349206347	325.56621315192746	67	127
325.39206349206347	325.56621315192746	62	127
325.39206349206347	325.56621315192746	46	127
325.56621315192746	325.7403628117914	69	127
325.56621315192746	325.7403628117914	65	127
325.56621315192746	325.7403628117914	50	127
325.7403628117914	326.0190022675737	50	127
325.7403628117914	326.0190022675737	69	127
325.7403628117914	326.0190022675737	65	127
325.9028798185941	326.06544217687076	76	127
326.07705215419503	326.25120181405896	76	127
326.25120181405896	326.4021088435374	77	127
326.4021088435374	327.24965986394557	77	127
326.57628117913833	326.6343310657596	62	127
326.57628117913833	326.6343310657596	69	127
326.57628117913833	326.6343310657596	65	127
326.57628117913833	326.6343310657596	50	127
326.738820861678	326.9013605442177	62	127
326.738820861678	326.9013605442177	69	127
326.738820861678	326.9013605442177	65	127
326.738820861678	326.9013605442177	50	127
326.9013605442177	327.06390022675737	62	127
326.9013605442177	327.06390022675737	71	127
326.9013605442177	327.06390022675737	67	127
326.9013605442177	327.06390022675737	55	127
327.07551020408164	327.38897959183674	67	127
327.07551020408164	327.38897959183674	62	127
327.07551020408164	327.38897959183674	71	127
327.07551020408164	327.38897959183674	55	127
327.24965986394557	327.4353968253968	76	127
327.44702947845803	327.5863492063492	76	127
327.5863492063492	327.74888888888887	77	127
327.74888888888887	328.5848072562358	77	127
327.92303854875286	327.9694784580499	71	127
327.92303854875286	327.9694784580499	62	127
327.92303854875286	327.9694784580499	55	127
328.07396825396825	328.23650793650796	71	127
328.07396825396825	328.23650793650796	62	127
328.07396825396825	328.23650793650796	55	127
328.23650793650796	328.4106575963719	72	127
328.23650793650796	328.4106575963719	65	127
328.23650793650796	328.4106575963719	56	127
328.42226757369616	328.8634240362812	65	127
328.42226757369616	328.8634240362812	60	127
328.42226757369616	328.8634240362812	56	127
328.5848072562358	328.73573696145127	76	127
328.73573696145127	328.8634240362812	76	127
328.8634240362812	329.02598639455783	55	127
328.8634240362812	329.02598639455783	77	127
328.8634240362812	329.02598639455783	71	127
328.8634240362812	329.02598639455783	67	127
329.02598639455783	329.56004535147395	55	127
329.02598639455783	329.20013605442176	77	127
329.02598639455783	329.56004535147395	71	127
329.02598639455783	329.56004535147395	67	127
329.20013605442176	329.38589569160996	76	127
329.39750566893423	329.56004535147395	76	127
329.56004535147395	329.74580498866214	68	127
329.56004535147395	329.74580498866214	77	127
329.56004535147395	329.74580498866214	72	127
329.56004535147395	329.74580498866214	53	127
329.74580498866214	330.0360544217687	53	127
329.74580498866214	329.93156462585034	77	127
329.74580498866214	330.0360544217687	72	127
329.74580498866214	330.0360544217687	68	127
329.93156462585034	330.10571428571427	79	127
330.10571428571427	330.27986394557826	79	127
330.27986394557826	330.43079365079365	80	127
330.43079365079365	330.5817233560091	80	127
330.5817233560091	330.7210430839002	84	127
330.7326530612245	330.87197278911566	84	127
330.87197278911566	331.01126984126984	89	127
331.01126984126984	331.51052154195014	41	127
331.01126984126984	331.18544217687077	48	127
331.01126984126984	331.51052154195014	92	127
331.18544217687077	331.3479818594104	60	127
331.3479818594104	331.51052154195014	60	127
331.3479818594104	331.51052154195014	65	127
331.51052154195014	331.68467120181407	43	127
331.51052154195014	331.68467120181407	91	127
331.51052154195014	331.68467120181407	77	127
331.51052154195014	331.68467120181407	59	127
331.69628117913834	332.2071201814059	43	127
331.69628117913834	332.2071201814059	91	127
331.69628117913834	331.87043083900227	59	127
331.69628117913834	331.87043083900227	77	127
331.87043083900227	332.032947845805	71	127
331.87043083900227	332.032947845805	76	127
332.032947845805	332.2071201814059	76	127
332.032947845805	332.2071201814059	71	127
332.2071201814059	332.3928798185941	72	127
332.2071201814059	332.3928798185941	89	127
332.2071201814059	332.3928798185941	77	127
332.2071201814059	332.3928798185941	44	127
332.3928798185941	332.56702947845804	89	127
332.3928798185941	332.6715192743764	77	127
332.3928798185941	332.6715192743764	72	127
332.3928798185941	332.6715192743764	44	127
332.56702947845804	332.741156462585	84	127
332.741156462585	332.9037188208617	84	127
332.9037188208617	333.06625850340134	80	127
333.0778684807256	333.2171882086168	80	127
333.2171882086168	333.3448979591837	77	127
333.3448979591837	333.50743764172336	77	127
333.50743764172336	333.6815873015873	72	127
333.6815873015873	333.844126984127	68	127
333.6815873015873	333.844126984127	49	127
333.6815873015873	334.19242630385486	77	127
333.844126984127	334.01827664399093	65	127
333.844126984127	334.01827664399093	80	127
334.0298866213152	334.19242630385486	49	127
334.0298866213152	334.19242630385486	80	127
334.0298866213152	334.19242630385486	65	127
334.19242630385486	334.3549659863946	75	127
334.19242630385486	334.3549659863946	81	127
334.19242630385486	334.3549659863946	66	127
334.19242630385486	334.3549659863946	37	127
334.3549659863946	334.51750566893423	81	127
334.3549659863946	334.51750566893423	37	127
334.3549659863946	334.8425850340136	75	127
334.3549659863946	334.51750566893423	66	127
334.51750566893423	334.68004535147395	78	127
334.51750566893423	334.68004535147395	69	127
334.51750566893423	334.68004535147395	36	127
334.68004535147395	334.8425850340136	78	127
334.68004535147395	334.8425850340136	69	127
334.68004535147395	334.8425850340136	36	127
334.8425850340136	335.01673469387754	73	127
334.8425850340136	335.01673469387754	77	127
334.8425850340136	335.01673469387754	68	127
334.8425850340136	335.01673469387754	37	127
335.01673469387754	335.167664399093	73	127
335.01673469387754	335.27215419501135	77	127
335.01673469387754	335.27215419501135	68	127
335.01673469387754	335.27215419501135	37	127
335.167664399093	335.3185941043084	68	127
335.33020408163264	335.49274376417236	68	127
335.49274376417236	335.655283446712	65	127
335.655283446712	335.82943310657595	65	127
335.82943310657595	336.0151700680272	61	127
336.0151700680272	336.17773242630386	61	127
336.17773242630386	336.37510204081633	56	127
336.3867120181406	336.8975510204082	46	127
336.3867120181406	336.8975510204082	73	127
336.5608616780045	336.6189115646259	53	127
336.5608616780045	336.72340136054424	65	127
336.72340136054424	336.8975510204082	53	127
336.72340136054424	336.8975510204082	65	127
336.8975510204082	337.06009070294783	77	127
336.8975510204082	337.06009070294783	65	127
336.8975510204082	337.06009070294783	72	127
336.8975510204082	337.06009070294783	44	127
337.06009070294783	337.53609977324265	44	127
337.06009070294783	337.2342403628118	77	127
337.06009070294783	337.2342403628118	65	127
337.06009070294783	337.53609977324265	72	127
337.2342403628118	337.3967800453515	76	127
337.2342403628118	337.3967800453515	64	127
337.3967800453515	337.53609977324265	76	127
337.3967800453515	337.53609977324265	64	127
337.53609977324265	337.6986394557823	71	127
337.53609977324265	337.6986394557823	77	127
337.53609977324265	337.6986394557823	65	127
337.53609977324265	337.6986394557823	43	127
337.7102494331066	337.86115646258503	58	127
337.7102494331066	338.1978684807256	49	127
337.7102494331066	338.1978684807256	77	127
337.86115646258503	338.0237188208617	70	127
337.86115646258503	337.9192290249433	65	127
338.0237188208617	338.1978684807256	65	127
338.0237188208617	338.1978684807256	70	127
338.1978684807256	338.3719954648526	77	127
338.1978684807256	338.3719954648526	73	127
338.1978684807256	338.3719954648526	77	127
338.1978684807256	338.3719954648526	46	127
338.3719954648526	338.54616780045353	77	127
338.3719954648526	338.54616780045353	77	127
338.3719954648526	338.9176870748299	72	127
338.3719954648526	338.9176870748299	44	127
338.54616780045353	338.7087074829932	76	127
338.54616780045353	338.7087074829932	88	127
338.72031746031746	338.9176870748299	88	127
338.72031746031746	338.9176870748299	76	127
338.9176870748299	339.08020408163264	77	127
338.9176870748299	339.08020408163264	89	127
338.9176870748299	339.08020408163264	71	127
338.9176870748299	339.08020408163264	43	127
339.08020408163264	339.2427664399093	89	127
339.08020408163264	339.3472562358277	62	127
339.08020408163264	339.3472562358277	71	127
339.08020408163264	339.3472562358277	77	127
339.08020408163264	339.3472562358277	43	127
339.2427664399093	339.40530612244896	86	127
339.40530612244896	339.5678458049887	86	127
339.5678458049887	339.7419954648526	83	127
339.7419954648526	339.9045124716553	83	127
339.9045124716553	339.9625850340136	67	127
339.9045124716553	340.067074829932	79	127
340.07868480725625	340.22961451247164	79	127
340.07868480725625	340.22961451247164	67	127
340.22961451247164	340.39215419501136	80	127
340.22961451247164	340.39215419501136	68	127
340.39215419501136	340.554693877551	80	127
340.39215419501136	340.554693877551	68	127
340.554693877551	340.70562358276646	77	127
340.554693877551	340.70562358276646	65	127
340.70562358276646	340.85655328798185	65	127
340.70562358276646	340.85655328798185	77	127
340.85655328798185	341.0074829931973	74	127
340.85655328798185	341.0074829931973	62	127
341.01909297052157	341.1584126984127	74	127
341.01909297052157	341.1584126984127	62	127
341.1584126984127	341.21646258503404	71	127
341.1584126984127	341.21646258503404	59	127
341.1584126984127	341.30934240362814	71	127
341.1584126984127	341.30934240362814	59	127
341.30934240362814	341.48349206349206	71	127
341.30934240362814	341.48349206349206	59	127
341.30934240362814	341.48349206349206	59	127
341.48349206349206	341.657641723356	72	127
341.48349206349206	341.657641723356	60	127
341.48349206349206	341.657641723356	60	127
341.657641723356	341.80857142857144	72	127
341.657641723356	341.80857142857144	60	127
341.657641723356	341.80857142857144	60	127
341.80857142857144	341.9711111111111	68	127
341.80857142857144	341.9711111111111	56	127
341.80857142857144	341.9711111111111	56	127
341.98272108843537	342.15684807256235	68	127
341.98272108843537	342.15684807256235	56	127
341.98272108843537	342.15684807256235	56	127
342.15684807256235	342.3310204081633	51	127
342.15684807256235	342.3310204081633	63	127
342.15684807256235	342.3310204081633	51	127
342.3310204081633	342.5051700680272	63	127
342.3310204081633	342.5051700680272	63	127
342.3310204081633	342.5051700680272	51	127
342.5051700680272	342.6676870748299	60	127
342.5051700680272	342.6676870748299	60	127
342.5051700680272	342.6676870748299	48	127
342.6676870748299	342.8186394557823	60	127
342.6676870748299	342.8186394557823	60	127
342.6676870748299	342.8186394557823	48	127
342.8186394557823	342.96954648526076	56	127
342.8186394557823	342.96954648526076	56	127
342.8186394557823	342.96954648526076	44	127
342.96954648526076	343.12049886621315	56	127
342.96954648526076	343.12049886621315	44	127
342.96954648526076	343.89836734693876	56	127
343.12049886621315	343.2714058956916	39	127
343.12049886621315	343.2714058956916	51	127
343.28301587301587	343.44557823129253	51	127
343.28301587301587	343.44557823129253	39	127
343.44557823129253	343.6081179138322	36	127
343.44557823129253	343.6081179138322	48	127
343.6081179138322	344.29308390022675	48	127
343.6081179138322	344.29308390022675	36	127
344.0144671201814	344.38598639455785	56	127
344.0144671201814	344.4672562358277	63	127
344.20020408163265	344.4672562358277	72	127
344.57174603174604	345.10580498866216	60	127
344.57174603174604	345.10580498866216	68	127
344.57174603174604	345.10580498866216	56	127
344.9316553287982	345.1754648526077	56	127
344.9316553287982	345.1754648526077	66	127
344.9316553287982	345.1754648526077	48	127
344.9316553287982	345.1754648526077	51	127
345.3612244897959	345.91850340136057	55	127
345.3612244897959	345.91850340136057	67	127
345.3612244897959	345.91850340136057	47	127
345.3612244897959	345.91850340136057	50	127
345.79079365079366	345.97655328798186	62	127
345.79079365079366	345.97655328798186	55	127
345.79079365079366	346.0578231292517	71	127
345.895283446712	346.0578231292517	77	127
346.1507029478458	346.60349206349207	60	127
346.1507029478458	346.60349206349207	72	127
346.1507029478458	346.60349206349207	56	127
346.1507029478458	346.60349206349207	65	127
346.4641723356009	346.64990929705215	48	127
346.4641723356009	346.64990929705215	56	127
346.4641723356009	346.64990929705215	44	127
346.56866213151926	346.76603174603173	65	127
346.56866213151926	346.76603174603173	72	127
346.9169614512472	347.1259410430839	55	127
346.9169614512472	347.6715873015873	71	127
346.9169614512472	347.6715873015873	43	127
347.0446712018141	347.6715873015873	74	127
347.30009070294784	347.7296598639456	74	127
347.30009070294784	347.8109297052154	74	127
347.30009070294784	347.7296598639456	62	127
347.6019501133787	347.8109297052154	86	127
347.89219954648524	348.06634920634923	62	127
347.89219954648524	348.5075283446712	74	127
347.89219954648524	348.5075283446712	71	127
347.9850566893424	348.5075283446712	80	127
347.9850566893424	348.5075283446712	83	127
348.2288888888889	348.56557823129253	53	127
348.2288888888889	348.56557823129253	59	127
348.2288888888889	348.56557823129253	62	127
348.56557823129253	348.809387755102	79	127
348.56557823129253	348.92548752834466	60	127
348.56557823129253	348.92548752834466	67	127
348.56557823129253	348.92548752834466	51	127
348.56557823129253	348.983537414966	84	127
348.809387755102	348.97192743764174	75	127
348.983537414966	349.15768707482994	75	127
348.983537414966	349.2737868480726	78	127
348.983537414966	349.2737868480726	60	127
348.983537414966	349.2737868480726	68	127
348.983537414966	349.2737868480726	48	127
349.15768707482994	349.3202267573696	68	127
349.3202267573696	349.52920634920633	67	127
349.3202267573696	349.52920634920633	79	127
349.3202267573696	349.52920634920633	63	127
349.3202267573696	349.52920634920633	72	127
349.3202267573696	349.52920634920633	63	127
349.3202267573696	349.52920634920633	43	127
349.7149433106576	349.8891156462585	72	127
350.06326530612245	350.307074829932	62	127
350.06326530612245	350.307074829932	71	127
350.06326530612245	350.307074829932	55	127
350.06326530612245	350.307074829932	62	127
350.06326530612245	350.307074829932	43	127
350.06326530612245	350.307074829932	79	127
350.8063038548753	350.96884353741495	71	127
351.14297052154194	351.70027210884354	86	127
351.14297052154194	351.20104308390023	53	127
351.14297052154194	351.28231292517006	62	127
351.14297052154194	351.73510204081634	71	127
351.2126530612245	351.73510204081634	80	127
351.28231292517006	351.3403628117914	62	127
351.3403628117914	351.42163265306124	51	127
351.45643990929705	351.6190022675737	62	127
351.5609297052154	351.64222222222224	50	127
351.6190022675737	351.78154195011336	71	127
351.79315192743763	352.118231292517	87	127
351.79315192743763	351.86278911564625	48	127
351.79315192743763	351.95569160997735	79	127
351.79315192743763	351.95569160997735	72	127
351.95569160997735	352.118231292517	72	127
351.95569160997735	352.118231292517	63	127
352.01374149659864	352.0834013605442	46	127
352.118231292517	352.4317006802721	78	127
352.118231292517	352.29238095238094	72	127
352.118231292517	352.29238095238094	63	127
352.23433106575965	352.3156009070295	44	127
352.29238095238094	352.4897505668934	75	127
352.29238095238094	352.4897505668934	60	127
352.4897505668934	352.77997732426303	63	127
352.4897505668934	352.77997732426303	55	127
352.4897505668934	352.77997732426303	67	127
352.4897505668934	352.77997732426303	43	127
352.4897505668934	352.77997732426303	79	127
352.4897505668934	352.9309297052154	63	127
352.6522902494331	352.9309297052154	72	127
353.0238095238095	353.18634920634923	72	127
353.3488888888889	353.6275283446712	55	127
353.3488888888889	353.6275283446712	79	127
353.3488888888889	353.6275283446712	55	127
353.3488888888889	353.6275283446712	55	127
353.3488888888889	353.6275283446712	62	127
353.3488888888889	353.7204081632653	62	127
353.5346485260771	353.7204081632653	71	127
353.82489795918366	353.9874376417234	71	127
354.3009070294785	355.96113378684805	36	127
354.63759637188207	354.8349433106576	60	127
354.63759637188207	354.98589569161	72	127
354.63759637188207	354.98589569161	56	127
354.8349433106576	354.98589569161	68	127
354.98589569161	355.3225850340136	70	127
354.98589569161	355.3225850340136	55	127
354.98589569161	355.14843537414964	60	127
355.14843537414964	355.3225850340136	67	127
355.3225850340136	355.69410430839	53	127
355.3225850340136	355.5199546485261	60	127
355.3225850340136	355.69410430839	68	127
355.5199546485261	355.69410430839	65	127
355.69410430839	355.84503401360547	59	127
355.69410430839	355.96113378684805	67	127
355.69410430839	355.96113378684805	50	127
355.84503401360547	356.0191836734694	62	127
356.0191836734694	356.6229024943311	36	127
356.0191836734694	356.2049433106576	59	127
356.0191836734694	356.3674603174603	62	127
356.0191836734694	356.3674603174603	53	127
356.0191836734694	356.58807256235826	67	127
356.0191836734694	356.58807256235826	55	127
356.2049433106576	356.3674603174603	55	127
356.3674603174603	356.6229024943311	51	127
356.3674603174603	356.5184126984127	60	127
356.3674603174603	356.69256235827663	63	127
356.5184126984127	356.69256235827663	55	127
356.69256235827663	356.8782993197279	59	127
356.69256235827663	357.0524716553288	65	127
356.69256235827663	357.0524716553288	50	127
356.69256235827663	357.3078911564626	55	127
356.69256235827663	357.3078911564626	67	127
356.69256235827663	357.3078911564626	36	127
356.8782993197279	357.04086167800455	55	127
357.0524716553288	357.3078911564626	48	127
357.0524716553288	357.3078911564626	63	127
357.0524716553288	357.2150113378685	60	127
357.2150113378685	357.3659410430839	55	127
357.3659410430839	357.9348299319728	48	127
357.3659410430839	357.5168707482993	60	127
357.3659410430839	357.679410430839	72	127
357.3659410430839	357.679410430839	56	127
357.3659410430839	357.9348299319728	36	127
357.5284807256236	357.679410430839	68	127
357.679410430839	357.85356009070296	60	127
357.679410430839	358.0277097505669	70	127
357.679410430839	358.0277097505669	55	127
357.85356009070296	358.0277097505669	67	127
358.0277097505669	358.63142857142856	48	127
358.0277097505669	358.1902494331066	60	127
358.0277097505669	358.36439909297053	68	127
358.0277097505669	358.36439909297053	53	127
358.0277097505669	358.63142857142856	36	127
358.20183673469387	358.36439909297053	65	127
358.36439909297053	358.63142857142856	50	127
358.36439909297053	358.63142857142856	67	127
358.36439909297053	358.5269387755102	59	127
358.5269387755102	358.6894784580499	62	127
358.6894784580499	358.85201814058956	59	127
358.6894784580499	359.0145351473923	62	127
358.6894784580499	359.0145351473923	53	127
358.6894784580499	359.2815873015873	55	127
358.6894784580499	359.2815873015873	67	127
358.6894784580499	359.30480725623585	36	127
358.86362811791383	359.0145351473923	55	127
359.0145351473923	359.36285714285714	63	127
359.0145351473923	359.30480725623585	51	127
359.0145351473923	359.1887074829932	60	127
359.1887074829932	359.36285714285714	55	127
359.36285714285714	359.9085260770975	55	127
359.36285714285714	359.5021768707483	59	127
359.36285714285714	359.6531065759637	65	127
359.36285714285714	359.6531065759637	50	127
359.36285714285714	359.9085260770975	67	127
359.36285714285714	359.9085260770975	36	127
359.5137868480726	359.6531065759637	55	127
359.6531065759637	359.9085260770975	63	127
359.6531065759637	359.80403628117915	60	127
359.6531065759637	359.9085260770975	48	127
359.80403628117915	359.95496598639454	63	127
359.95496598639454	360.52385487528346	36	127
359.95496598639454	360.1407029478458	67	127
359.95496598639454	360.2916553287982	79	127
359.95496598639454	360.2916553287982	63	127
359.95496598639454	360.52385487528346	48	127
360.1407029478458	360.2916553287982	75	127
360.2916553287982	360.6051247165533	77	127
360.2916553287982	360.44258503401363	67	127
360.2916553287982	360.6051247165533	62	127
360.4541723356009	360.6051247165533	74	127
360.6051247165533	360.93020408163267	75	127
360.6051247165533	361.16238095238094	36	127
360.6051247165533	361.16238095238094	48	127
360.6051247165533	360.93020408163267	60	127
360.6051247165533	360.75603174603174	67	127
360.76766439909295	360.93020408163267	72	127
360.93020408163267	361.16238095238094	73	127
360.93020408163267	361.06950113378684	67	127
360.93020408163267	361.16238095238094	58	127
361.08113378684806	361.20884353741496	70	127
361.20884353741496	361.7661224489796	67	127
361.20884353741496	361.3597732426304	64	127
361.20884353741496	361.53392290249434	60	127
361.20884353741496	361.7893424036281	36	127
361.20884353741496	361.7661224489796	73	127
361.3597732426304	361.53392290249434	61	127
361.53392290249434	361.6848299319728	64	127
361.53392290249434	361.7893424036281	58	127
361.6848299319728	361.84739229024945	61	127
361.84739229024945	362.4278911564626	36	127
361.84739229024945	361.99832199546483	64	127
361.84739229024945	362.1840589569161	56	127
361.84739229024945	362.4278911564626	73	127
361.84739229024945	362.1840589569161	68	127
361.99832199546483	362.1724716553288	61	127
362.1840589569161	362.4278911564626	70	127
362.1840589569161	362.3350113378685	64	127
362.1840589569161	362.4278911564626	55	127
362.3350113378685	362.47433106575966	61	127
362.4859410430839	362.6136507936508	67	127
362.4859410430839	363.03160997732425	36	127
362.4859410430839	363.00836734693877	72	127
362.4859410430839	362.7645804988662	64	127
362.4859410430839	362.7645804988662	58	127
362.6136507936508	362.7645804988662	60	127
362.7645804988662	362.9271201814059	65	127
362.7645804988662	363.03160997732425	65	127
362.7645804988662	363.03160997732425	56	127
362.9271201814059	363.06643990929706	60	127
363.07804988662133	363.681768707483	36	127
363.07804988662133	363.4031292517007	70	127
363.07804988662133	363.681768707483	72	127
363.07804988662133	363.4031292517007	55	127
363.07804988662133	363.2173469387755	64	127
363.2173469387755	363.4031292517007	60	127
363.4031292517007	363.681768707483	53	127
363.4031292517007	363.56566893424036	65	127
363.4031292517007	363.681768707483	68	127
363.56566893424036	363.7281859410431	60	127
363.7281859410431	363.89074829931974	65	127
363.7281859410431	364.0068480725624	62	127
363.7281859410431	364.0068480725624	56	127
363.7281859410431	364.20421768707484	71	127
363.7281859410431	364.23902494331065	36	127
363.89074829931974	364.0068480725624	62	127
364.0068480725624	364.23902494331065	65	127
364.0068480725624	364.23902494331065	55	127
364.0068480725624	364.1345351473923	62	127
364.1345351473923	364.2738775510204	59	127
364.2738775510204	364.4363945578231	71	127
364.2738775510204	364.4363945578231	53	127
364.2738775510204	364.4363945578231	36	127
364.2738775510204	364.4363945578231	62	127
364.2738775510204	364.4363945578231	68	127
364.64537414965986	364.784716553288	72	127
364.64537414965986	364.784716553288	60	127
364.64537414965986	364.784716553288	67	127
364.64537414965986	364.784716553288	36	127
364.64537414965986	364.784716553288	51	127
364.9356462585034	365.0633560090703	56	127
364.9356462585034	365.4116553287982	68	127
364.9356462585034	365.43487528344673	36	127
364.9356462585034	365.20267573696145	55	127
364.9356462585034	365.0633560090703	63	127
364.9356462585034	365.0633560090703	60	127
365.0633560090703	365.33038548752836	63	127
365.0633560090703	365.33038548752836	60	127
365.0633560090703	365.33038548752836	56	127
365.20267573696145	365.43487528344673	53	127
365.33038548752836	365.65546485260774	60	127
365.33038548752836	365.65546485260774	56	127
365.5045351473923	365.82961451247166	51	127
365.5045351473923	366.0850340136054	66	127
365.5045351473923	366.0850340136054	36	127
365.65546485260774	365.96891156462584	60	127
365.65546485260774	365.96891156462584	56	127
365.82961451247166	366.0850340136054	50	127
365.96891156462584	366.14308390022677	56	127
365.96891156462584	366.29401360544216	60	127
366.14308390022677	366.70036281179136	67	127
366.14308390022677	366.29401360544216	55	127
366.14308390022677	366.4565532879819	51	127
366.14308390022677	366.7235827664399	36	127
366.29401360544216	366.4449433106576	55	127
366.29401360544216	366.4565532879819	60	127
366.4565532879819	366.7235827664399	50	127
366.4565532879819	366.60748299319727	63	127
366.4565532879819	366.60748299319727	55	127
366.60748299319727	366.78163265306125	63	127
366.60748299319727	366.78163265306125	55	127
366.78163265306125	367.3273015873016	36	127
366.78163265306125	366.93256235827664	56	127
366.78163265306125	366.93256235827664	53	127
366.78163265306125	367.06027210884355	48	127
366.78163265306125	367.3273015873016	62	127
366.93256235827664	367.06027210884355	53	127
366.93256235827664	367.2228117913832	56	127
367.06027210884355	367.2228117913832	53	127
367.06027210884355	367.3273015873016	47	127
367.2228117913832	367.37374149659865	53	127
367.2228117913832	367.37374149659865	56	127
367.37374149659865	367.5362811791383	55	127
367.37374149659865	367.5362811791383	51	127
367.37374149659865	367.96585034013606	63	127
367.37374149659865	367.68721088435376	48	127
367.37374149659865	368.00068027210887	36	127
367.5362811791383	367.68721088435376	51	127
367.5362811791383	367.8613605442177	55	127
367.68721088435376	367.8613605442177	51	127
367.68721088435376	368.00068027210887	46	127
367.8845804988662	368.0471201814059	55	127
367.8845804988662	368.0471201814059	51	127
368.0471201814059	368.24448979591835	59	127
368.0471201814059	368.24448979591835	56	127
368.0471201814059	368.24448979591835	65	127
368.0471201814059	368.24448979591835	50	127
368.0471201814059	368.66244897959183	59	127
368.0471201814059	368.66244897959183	36	127
368.0471201814059	368.66244897959183	44	127
368.2560997732426	368.534716553288	59	127
368.2560997732426	368.534716553288	56	127
368.2560997732426	368.534716553288	65	127
368.2560997732426	368.534716553288	50	127
368.5463492063492	368.8365759637188	56	127
368.5463492063492	368.8365759637188	65	127
368.5463492063492	368.8365759637188	50	127
368.5463492063492	368.8365759637188	59	127
368.69727891156464	369.19650793650794	44	127
368.69727891156464	369.19650793650794	36	127
368.69727891156464	369.19650793650794	59	127
368.8365759637188	369.1268480725624	50	127
368.8365759637188	369.1268480725624	56	127
368.8365759637188	369.1268480725624	65	127
368.8365759637188	369.1268480725624	59	127
369.1268480725624	369.41709750566895	56	127
369.1268480725624	369.41709750566895	50	127
369.1268480725624	369.41709750566895	65	127
369.1268480725624	369.41709750566895	59	127
369.2661678004535	370.32267573696146	44	127
369.2661678004535	370.32267573696146	36	127
369.2661678004535	370.32267573696146	59	127
369.41709750566895	369.73056689342405	59	127
369.41709750566895	369.73056689342405	56	127
369.41709750566895	369.73056689342405	65	127
369.41709750566895	369.73056689342405	50	127
369.73056689342405	369.97437641723354	59	127
369.73056689342405	369.97437641723354	50	127
369.73056689342405	369.97437641723354	65	127
369.73056689342405	369.97437641723354	56	127
369.97437641723354	370.2414058956916	65	127
369.97437641723354	370.2414058956916	56	127
369.97437641723354	370.2414058956916	50	127
369.97437641723354	370.2414058956916	59	127
370.2414058956916	370.55487528344673	56	127
370.2414058956916	370.55487528344673	65	127
370.2414058956916	370.55487528344673	50	127
370.2414058956916	370.55487528344673	59	127
370.4039455782313	370.55487528344673	36	127
370.4039455782313	370.55487528344673	44	127
370.4039455782313	370.6593650793651	59	127
370.55487528344673	370.7058049886621	59	127
370.55487528344673	370.7058049886621	56	127
370.55487528344673	370.7058049886621	65	127
370.55487528344673	370.7058049886621	50	127
370.7058049886621	370.8799319727891	55	127
370.7058049886621	370.8799319727891	63	127
370.7058049886621	370.8799319727891	36	127
370.7058049886621	370.8799319727891	43	127
370.7058049886621	370.8799319727891	60	127
370.7058049886621	371.00766439909296	51	127
370.7058049886621	371.00766439909296	60	127
370.8799319727891	371.05410430839004	62	127
371.05410430839004	371.2166439909297	62	127
371.2166439909297	371.3907709750567	63	127
371.3907709750567	371.55333333333334	63	127
371.55333333333334	371.6926303854875	67	127
371.6926303854875	371.8435827664399	72	127
371.6926303854875	371.8435827664399	63	127
371.6926303854875	371.8435827664399	60	127
371.8435827664399	371.99451247165536	74	127
371.8435827664399	371.99451247165536	67	127
371.8435827664399	371.99451247165536	55	127
371.99451247165536	372.14544217687074	74	127
371.99451247165536	372.14544217687074	67	127
371.99451247165536	372.14544217687074	55	127
372.14544217687074	372.33120181405894	75	127
372.14544217687074	372.33120181405894	55	127
372.14544217687074	372.33120181405894	48	127
372.33120181405894	372.4821315192744	75	127
372.33120181405894	372.4821315192744	55	127
372.33120181405894	372.4821315192744	60	127
372.33120181405894	372.4821315192744	48	127
372.4821315192744	372.6330612244898	79	127
372.4821315192744	372.6330612244898	67	127
372.4821315192744	372.6330612244898	62	127
372.4821315192744	372.6330612244898	43	127
372.6330612244898	372.8420408163265	62	127
372.6330612244898	372.8420408163265	67	127
372.6330612244898	372.8420408163265	43	127
372.6330612244898	372.8420408163265	79	127
372.8420408163265	373.0161904761905	79	127
372.8420408163265	373.0161904761905	63	127
372.8420408163265	373.0161904761905	39	127
372.8420408163265	373.0161904761905	84	127
373.0161904761905	373.2019501133787	84	127
373.0161904761905	373.2019501133787	79	127
373.0161904761905	373.2019501133787	39	127
373.0161904761905	373.2019501133787	63	127
373.2019501133787	373.3528798185941	84	127
373.2019501133787	373.3528798185941	87	127
373.2019501133787	373.3528798185941	72	127
373.2019501133787	373.3528798185941	36	127
373.3528798185941	373.67795918367347	87	127
373.3528798185941	373.67795918367347	84	127
373.3528798185941	373.67795918367347	72	127
373.3528798185941	373.67795918367347	36	127
373.67795918367347	373.8985487528345	44	127
373.67795918367347	374.0726984126984	78	127
373.67795918367347	374.0726984126984	75	127
373.67795918367347	374.0726984126984	60	127
373.67795918367347	374.1655782312925	51	127
373.77083900226756	374.1655782312925	60	127
374.8389569160998	375.12920634920636	63	127
374.8389569160998	375.0479365079365	72	127
374.8389569160998	375.0479365079365	79	127
374.8389569160998	375.0479365079365	55	127
374.8389569160998	375.0479365079365	55	127
374.8389569160998	375.0479365079365	43	127
374.8389569160998	375.12920634920636	67	127
374.94344671201816	375.12920634920636	72	127
374.94344671201816	375.12920634920636	75	127
375.57038548752837	375.76775510204084	55	127
375.57038548752837	375.76775510204084	43	127
375.57038548752837	375.86063492063494	62	127
375.57038548752837	375.76775510204084	62	127
375.57038548752837	375.76775510204084	55	127
375.66326530612247	375.86063492063494	71	127
376.3714739229025	376.76621315192745	55	127
376.3714739229025	376.76621315192745	48	127
376.3714739229025	377.76467120181405	63	127
376.3714739229025	377.76467120181405	55	127
376.3714739229025	377.76467120181405	36	127
376.45274376417234	377.76467120181405	63	127
376.45274376417234	377.76467120181405	72	127
