# onset,offset,note,velocity
0.2778684807256236	0.405578231292517	69	127
0.2778684807256236	0.405578231292517	72	127
0.2778684807256236	0.405578231292517	76	127
0.41718820861678	0.5448979591836735	76	127
0.41718820861678	0.5448979591836735	72	127
0.41718820861678	0.5448979591836735	69	127
0.5448979591836735	0.6841950113378685	76	127
0.5448979591836735	0.6841950113378685	69	127
0.5448979591836735	0.6841950113378685	72	127
0.6841950113378685	0.8119274376417234	76	127
0.6841950113378685	0.8119274376417234	72	127
0.6841950113378685	0.8119274376417234	69	127
0.8235374149659864	0.9512471655328798	76	127
0.8235374149659864	0.9512471655328798	72	127
0.8235374149659864	0.9512471655328798	69	127
0.9628571428571429	1.0905668934240362	76	127
0.9628571428571429	1.0905668934240362	72	127
0.9628571428571429	1.0905668934240362	69	127
1.0905668934240362	1.2298866213151927	81	127
1.0905668934240362	1.2298866213151927	72	127
1.0905668934240362	1.2298866213151927	64	127
1.2298866213151927	1.3575963718820863	81	127
1.2298866213151927	1.3575963718820863	72	127
1.2298866213151927	1.3575963718820863	64	127
1.3692063492063493	1.4969160997732427	76	127
1.3692063492063493	1.4969160997732427	72	127
1.3692063492063493	1.4969160997732427	69	127
1.5085260770975057	1.624625850340136	76	127
1.5085260770975057	1.624625850340136	72	127
1.5085260770975057	1.624625850340136	69	127
1.624625850340136	1.7523356009070294	72	127
1.624625850340136	1.7523356009070294	69	127
1.624625850340136	1.7523356009070294	76	127
1.7523356009070294	1.8684353741496598	72	127
1.7523356009070294	1.8684353741496598	69	127
1.7523356009070294	1.8684353741496598	76	127
1.8800453514739228	2.007755102040816	78	127
1.8800453514739228	2.007755102040816	74	127
1.8800453514739228	2.007755102040816	62	127
2.0193650793650795	2.089024943310658	78	127
2.0193650793650795	2.089024943310658	74	127
2.0193650793650795	2.089024943310658	62	127
2.089024943310658	2.228344671201814	76	127
2.089024943310658	2.228344671201814	72	127
2.089024943310658	2.228344671201814	69	127
2.228344671201814	2.3560544217687074	69	127
2.228344671201814	2.3560544217687074	76	127
2.228344671201814	2.3560544217687074	72	127
2.3676643990929707	2.495374149659864	76	127
2.3676643990929707	2.495374149659864	72	127
2.3676643990929707	2.495374149659864	69	127
2.506984126984127	2.6230839002267574	76	127
2.506984126984127	2.6230839002267574	72	127
2.506984126984127	2.6230839002267574	69	127
2.6230839002267574	2.750793650793651	76	127
2.6230839002267574	2.750793650793651	72	127
2.6230839002267574	2.750793650793651	57	127
2.6230839002267574	2.855283446712018	69	127
2.750793650793651	2.855283446712018	71	127
2.750793650793651	2.855283446712018	57	127
2.750793650793651	2.855283446712018	74	127
2.855283446712018	2.9829931972789114	57	127
2.855283446712018	2.9829931972789114	72	127
2.855283446712018	2.9829931972789114	69	127
2.9946031746031747	3.110702947845805	71	127
2.9946031746031747	3.110702947845805	57	127
2.9946031746031747	3.110702947845805	67	127
3.110702947845805	3.2500226757369615	66	127
3.110702947845805	3.2500226757369615	57	127
3.110702947845805	3.2500226757369615	69	127
3.2500226757369615	3.3545124716553287	57	127
3.2500226757369615	3.3545124716553287	67	127
3.2500226757369615	3.3545124716553287	64	127
3.366122448979592	3.6099319727891155	62	127
3.366122448979592	3.4938321995464854	66	127
3.366122448979592	3.4938321995464854	62	127
3.366122448979592	3.4938321995464854	62	127
3.366122448979592	3.4938321995464854	50	127
3.505442176870748	3.6099319727891155	69	127
3.505442176870748	3.6099319727891155	66	127
3.505442176870748	3.6099319727891155	62	127
3.505442176870748	3.6099319727891155	50	127
3.6099319727891155	3.726031746031746	74	127
3.6099319727891155	3.726031746031746	74	127
3.6099319727891155	3.726031746031746	66	127
3.6099319727891155	3.726031746031746	57	127
3.6099319727891155	3.726031746031746	50	127
3.726031746031746	3.8305215419501133	74	127
3.726031746031746	3.8305215419501133	72	127
3.726031746031746	3.8305215419501133	69	127
3.726031746031746	3.8305215419501133	57	127
3.726031746031746	3.8305215419501133	50	127
3.8305215419501133	3.888571428571429	71	127
3.8305215419501133	3.888571428571429	74	127
3.8305215419501133	3.888571428571429	67	127
3.8305215419501133	3.888571428571429	57	127
3.8305215419501133	3.888571428571429	50	127
3.9001814058956916	4.016281179138322	66	127
3.9001814058956916	4.016281179138322	57	127
3.9001814058956916	4.016281179138322	74	127
3.9001814058956916	4.016281179138322	50	127
3.9001814058956916	4.016281179138322	69	127
4.016281179138322	4.155600907029479	74	127
4.016281179138322	4.271700680272109	67	127
4.016281179138322	4.155600907029479	67	127
4.016281179138322	4.155600907029479	59	127
4.016281179138322	4.155600907029479	55	127
4.155600907029479	4.271700680272109	55	127
4.155600907029479	4.271700680272109	74	127
4.155600907029479	4.271700680272109	71	127
4.155600907029479	4.271700680272109	59	127
4.283310657596372	4.411020408163266	74	127
4.283310657596372	4.411020408163266	74	127
4.283310657596372	4.411020408163266	66	127
4.283310657596372	4.411020408163266	57	127
4.283310657596372	4.411020408163266	50	127
4.422607709750567	4.55031746031746	74	127
4.422607709750567	4.55031746031746	72	127
4.422607709750567	4.55031746031746	74	127
4.422607709750567	4.55031746031746	72	127
4.422607709750567	4.55031746031746	57	127
4.422607709750567	4.55031746031746	50	127
4.55031746031746	4.678049886621316	50	127
4.55031746031746	4.678049886621316	76	127
4.55031746031746	4.678049886621316	71	127
4.55031746031746	4.678049886621316	74	127
4.55031746031746	4.678049886621316	72	127
4.55031746031746	4.678049886621316	57	127
4.678049886621316	4.805759637188209	69	127
4.678049886621316	4.805759637188209	74	127
4.678049886621316	4.805759637188209	72	127
4.678049886621316	4.805759637188209	57	127
4.678049886621316	4.805759637188209	50	127
4.678049886621316	4.805759637188209	78	127
4.817369614512471	5.00312925170068	71	127
4.817369614512471	4.933469387755102	79	127
4.817369614512471	4.933469387755102	67	127
4.817369614512471	4.933469387755102	71	127
4.817369614512471	4.933469387755102	52	127
4.933469387755102	5.00312925170068	71	127
4.933469387755102	5.00312925170068	67	127
4.933469387755102	5.00312925170068	83	127
4.933469387755102	5.00312925170068	55	127
4.933469387755102	5.00312925170068	52	127
5.00312925170068	5.11922902494331	86	127
5.00312925170068	5.11922902494331	74	127
5.00312925170068	5.11922902494331	74	127
5.00312925170068	5.11922902494331	66	127
5.00312925170068	5.11922902494331	57	127
5.00312925170068	5.11922902494331	50	127
5.11922902494331	5.223718820861678	86	127
5.11922902494331	5.223718820861678	74	127
5.11922902494331	5.223718820861678	72	127
5.11922902494331	5.223718820861678	66	127
5.11922902494331	5.223718820861678	57	127
5.11922902494331	5.223718820861678	50	127
5.235328798185941	5.363038548752835	86	127
5.235328798185941	5.363038548752835	74	127
5.235328798185941	5.363038548752835	71	127
5.235328798185941	5.363038548752835	66	127
5.235328798185941	5.363038548752835	57	127
5.235328798185941	5.363038548752835	50	127
5.363038548752835	5.490748299319728	74	127
5.363038548752835	5.490748299319728	69	127
5.363038548752835	5.490748299319728	66	127
5.363038548752835	5.490748299319728	57	127
5.363038548752835	5.490748299319728	50	127
5.363038548752835	5.490748299319728	86	127
5.490748299319728	5.595215419501134	91	127
5.490748299319728	5.595215419501134	79	127
5.490748299319728	5.711337868480726	67	127
5.490748299319728	5.595215419501134	67	127
5.490748299319728	5.595215419501134	52	127
5.595215419501134	5.711337868480726	91	127
5.595215419501134	5.711337868480726	79	127
5.595215419501134	5.711337868480726	71	127
5.595215419501134	5.711337868480726	55	127
5.595215419501134	5.711337868480726	52	127
5.711337868480726	5.80421768707483	86	127
5.711337868480726	5.80421768707483	74	127
5.711337868480726	5.80421768707483	74	127
5.711337868480726	5.80421768707483	66	127
5.711337868480726	5.80421768707483	57	127
5.711337868480726	5.80421768707483	50	127
5.815827664399093	5.943537414965986	86	127
5.815827664399093	5.943537414965986	74	127
5.815827664399093	5.943537414965986	74	127
5.815827664399093	5.943537414965986	66	127
5.815827664399093	5.943537414965986	57	127
5.815827664399093	5.943537414965986	48	127
5.943537414965986	6.0712471655328795	74	127
5.943537414965986	6.0712471655328795	66	127
5.943537414965986	6.0712471655328795	86	127
5.943537414965986	6.0712471655328795	57	127
5.943537414965986	6.0712471655328795	47	127
5.943537414965986	6.0712471655328795	74	127
6.0712471655328795	6.198956916099773	45	127
6.0712471655328795	6.198956916099773	86	127
6.0712471655328795	6.198956916099773	74	127
6.0712471655328795	6.198956916099773	74	127
6.0712471655328795	6.198956916099773	66	127
6.0712471655328795	6.198956916099773	57	127
6.210566893424036	6.268616780045352	71	127
6.210566893424036	6.268616780045352	59	127
6.210566893424036	6.349886621315193	67	127
6.210566893424036	6.268616780045352	43	127
6.210566893424036	6.268616780045352	88	127
6.210566893424036	6.268616780045352	76	127
6.268616780045352	6.349886621315193	47	127
6.268616780045352	6.349886621315193	88	127
6.268616780045352	6.349886621315193	76	127
6.268616780045352	6.349886621315193	71	127
6.268616780045352	6.349886621315193	55	127
6.349886621315193	6.465986394557823	66	127
6.349886621315193	6.465986394557823	86	127
6.349886621315193	6.465986394557823	74	127
6.349886621315193	6.465986394557823	69	127
6.349886621315193	6.465986394557823	50	127
6.465986394557823	6.593696145124716	86	127
6.465986394557823	6.593696145124716	74	127
6.465986394557823	6.593696145124716	69	127
6.465986394557823	6.593696145124716	66	127
6.465986394557823	6.593696145124716	50	127
6.6053061224489795	6.709795918367347	86	127
6.6053061224489795	6.709795918367347	74	127
6.6053061224489795	6.709795918367347	69	127
6.6053061224489795	6.709795918367347	66	127
6.6053061224489795	6.709795918367347	50	127
6.72140589569161	6.849115646258503	86	127
6.72140589569161	6.849115646258503	74	127
6.72140589569161	6.849115646258503	69	127
6.72140589569161	6.849115646258503	66	127
6.72140589569161	6.849115646258503	50	127
6.849115646258503	6.930385487528345	91	127
6.849115646258503	6.930385487528345	79	127
6.849115646258503	6.930385487528345	67	127
6.849115646258503	6.930385487528345	52	127
6.849115646258503	6.965215419501134	67	127
6.941995464852607	6.965215419501134	52	127
6.941995464852607	6.965215419501134	91	127
6.941995464852607	6.965215419501134	79	127
6.941995464852607	6.965215419501134	71	127
6.941995464852607	6.965215419501134	55	127
6.976825396825397	7.092925170068027	66	127
6.976825396825397	7.092925170068027	74	127
6.976825396825397	7.092925170068027	86	127
6.976825396825397	7.092925170068027	74	127
6.976825396825397	7.092925170068027	57	127
6.976825396825397	7.092925170068027	50	127
7.092925170068027	7.2090249433106575	86	127
7.092925170068027	7.2090249433106575	74	127
7.092925170068027	7.2090249433106575	74	127
7.092925170068027	7.2090249433106575	66	127
7.092925170068027	7.2090249433106575	57	127
7.092925170068027	7.2090249433106575	48	127
7.2090249433106575	7.301904761904762	66	127
7.2090249433106575	7.301904761904762	86	127
7.2090249433106575	7.301904761904762	74	127
7.2090249433106575	7.301904761904762	74	127
7.2090249433106575	7.301904761904762	57	127
7.2090249433106575	7.301904761904762	47	127
7.313514739229025	7.429614512471655	86	127
7.313514739229025	7.429614512471655	74	127
7.313514739229025	7.429614512471655	74	127
7.313514739229025	7.429614512471655	66	127
7.313514739229025	7.429614512471655	57	127
7.313514739229025	7.429614512471655	45	127
7.4412244897959186	7.557324263038549	88	127
7.4412244897959186	7.557324263038549	76	127
7.4412244897959186	7.557324263038549	76	127
7.4412244897959186	7.557324263038549	43	127
7.4412244897959186	7.696643990929705	72	127
7.4412244897959186	7.696643990929705	55	127
7.568934240362812	7.696643990929705	84	127
7.568934240362812	7.696643990929705	88	127
7.568934240362812	7.696643990929705	76	127
7.568934240362812	7.696643990929705	48	127
7.696643990929705	7.824353741496599	88	127
7.696643990929705	7.824353741496599	84	127
7.696643990929705	7.824353741496599	52	127
7.696643990929705	7.824353741496599	76	127
7.696643990929705	7.824353741496599	52	127
7.824353741496599	7.952063492063492	88	127
7.824353741496599	7.952063492063492	84	127
7.824353741496599	7.952063492063492	55	127
7.824353741496599	7.952063492063492	76	127
7.963673469387755	8.079773242630386	88	127
7.963673469387755	8.079773242630386	84	127
7.963673469387755	8.079773242630386	60	127
7.963673469387755	8.079773242630386	76	127
8.091383219954649	8.102993197278911	88	127
8.091383219954649	8.102993197278911	84	127
8.091383219954649	8.102993197278911	64	127
8.091383219954649	8.102993197278911	76	127
8.102993197278911	8.1378231292517	36	127
8.102993197278911	8.172630385487528	88	127
8.102993197278911	8.172630385487528	84	127
8.102993197278911	8.172630385487528	64	127
8.102993197278911	8.172630385487528	67	127
8.102993197278911	8.28875283446712	64	127
8.102993197278911	8.28875283446712	48	127
8.172630385487528	8.28875283446712	64	127
8.172630385487528	8.28875283446712	88	127
8.172630385487528	8.28875283446712	84	127
8.172630385487528	8.28875283446712	67	127
8.172630385487528	8.28875283446712	43	127
8.300340136054421	8.428072562358278	88	127
8.300340136054421	8.428072562358278	84	127
8.300340136054421	8.428072562358278	48	127
8.300340136054421	8.428072562358278	64	127
8.300340136054421	8.428072562358278	67	127
8.300340136054421	8.428072562358278	48	127
8.428072562358278	8.497732426303855	88	127
8.428072562358278	8.497732426303855	84	127
8.428072562358278	8.497732426303855	52	127
8.428072562358278	8.497732426303855	64	127
8.428072562358278	8.497732426303855	67	127
8.497732426303855	8.579002267573696	88	127
8.497732426303855	8.579002267573696	84	127
8.497732426303855	8.579002267573696	55	127
8.497732426303855	8.579002267573696	64	127
8.497732426303855	8.579002267573696	67	127
8.59061224489796	8.718321995464853	88	127
8.59061224489796	8.718321995464853	84	127
8.59061224489796	8.718321995464853	60	127
8.59061224489796	8.718321995464853	64	127
8.59061224489796	8.718321995464853	67	127
8.729931972789116	8.857641723356009	88	127
8.729931972789116	8.857641723356009	84	127
8.729931972789116	8.996938775510204	60	127
8.729931972789116	8.996938775510204	57	127
8.729931972789116	8.996938775510204	66	127
8.729931972789116	8.996938775510204	38	127
8.729931972789116	8.996938775510204	45	127
8.729931972789116	8.996938775510204	50	127
8.729931972789116	8.996938775510204	60	127
8.857641723356009	8.996938775510204	86	127
8.857641723356009	8.996938775510204	83	127
8.996938775510204	9.124648526077097	84	127
8.996938775510204	9.124648526077097	81	127
9.136281179138322	9.252380952380953	83	127
9.136281179138322	9.252380952380953	79	127
9.263990929705216	9.531020408163265	50	127
9.263990929705216	9.391700680272109	81	127
9.263990929705216	9.391700680272109	78	127
9.263990929705216	9.531020408163265	50	127
9.263990929705216	9.531020408163265	62	127
9.391700680272109	9.531020408163265	76	127
9.391700680272109	9.531020408163265	79	127
9.531020408163265	9.914149659863945	50	127
9.531020408163265	9.635510204081633	78	127
9.531020408163265	9.635510204081633	74	127
9.531020408163265	9.914149659863945	50	127
9.531020408163265	9.914149659863945	62	127
9.647120181405896	9.763219954648527	72	127
9.647120181405896	9.763219954648527	76	127
9.763219954648527	9.879319727891156	74	127
9.763219954648527	9.879319727891156	71	127
9.879319727891156	9.995419501133787	72	127
9.879319727891156	9.995419501133787	69	127
9.995419501133787	10.239229024943311	50	127
9.995419501133787	10.12312925170068	71	127
9.995419501133787	10.12312925170068	67	127
9.995419501133787	10.239229024943311	50	127
9.995419501133787	10.239229024943311	62	127
10.134739229024943	10.239229024943311	66	127
10.134739229024943	10.239229024943311	69	127
10.239229024943311	10.366938775510205	64	127
10.239229024943311	10.668798185941043	62	127
10.239229024943311	10.668798185941043	50	127
10.239229024943311	10.366938775510205	67	127
10.239229024943311	10.668798185941043	50	127
10.366938775510205	10.471428571428572	62	127
10.366938775510205	10.471428571428572	66	127
10.483038548752834	10.610748299319727	64	127
10.483038548752834	10.610748299319727	61	127
10.622358276643991	10.750068027210885	62	127
10.750068027210885	10.993854875283446	50	127
10.750068027210885	10.993854875283446	50	127
10.750068027210885	10.993854875283446	62	127
11.005487528344672	11.42344671201814	50	127
11.005487528344672	11.42344671201814	62	127
11.005487528344672	11.42344671201814	43	127
11.516326530612245	11.783356009070294	50	127
11.516326530612245	11.783356009070294	62	127
11.516326530612245	11.783356009070294	43	127
11.794965986394558	12.201315192743763	50	127
11.794965986394558	12.201315192743763	55	127
11.794965986394558	12.201315192743763	43	127
12.270975056689343	12.514784580498866	50	127
12.270975056689343	12.514784580498866	55	127
12.270975056689343	12.514784580498866	43	127
12.52639455782313	12.99079365079365	50	127
12.52639455782313	12.99079365079365	43	127
13.06045351473923	13.350702947845805	43	127
13.350702947845805	13.617732426303855	55	127
13.350702947845805	13.629342403628119	47	127
13.350702947845805	13.803492063492063	55	127
13.350702947845805	13.803492063492063	43	127
13.629342403628119	13.90798185941043	57	127
13.629342403628119	13.90798185941043	48	127
13.90798185941043	14.163401360544217	59	127
13.90798185941043	14.163401360544217	55	127
13.90798185941043	14.163401360544217	50	127
13.90798185941043	14.163401360544217	43	127
14.175011337868481	14.616190476190477	55	127
14.175011337868481	14.616190476190477	43	127
14.175011337868481	14.883219954648526	60	127
14.175011337868481	14.883219954648526	52	127
14.709070294784581	14.97609977324263	55	127
14.709070294784581	14.97609977324263	43	127
14.97609977324263	15.3940589569161	55	127
14.97609977324263	15.3940589569161	43	127
14.97609977324263	15.672698412698413	59	127
14.97609977324263	15.672698412698413	50	127
15.486938775510204	15.74235827664399	55	127
15.486938775510204	15.74235827664399	43	127
15.753968253968255	16.02097505668934	57	127
15.753968253968255	16.02097505668934	48	127
15.753968253968255	16.22997732426304	55	127
15.753968253968255	16.22997732426304	43	127
16.02097505668934	16.299637188208617	59	127
16.02097505668934	16.31124716553288	50	127
16.31124716553288	16.57827664399093	57	127
16.31124716553288	16.57827664399093	55	127
16.31124716553288	16.57827664399093	48	127
16.31124716553288	16.57827664399093	43	127
16.57827664399093	17.054285714285715	55	127
16.57827664399093	17.054285714285715	55	127
16.57827664399093	17.054285714285715	47	127
16.57827664399093	17.054285714285715	43	127
17.135555555555555	17.402585034013605	55	127
17.135555555555555	17.402585034013605	50	127
17.135555555555555	17.402585034013605	59	127
17.135555555555555	17.402585034013605	43	127
17.402585034013605	17.8437641723356	57	127
17.402585034013605	17.8437641723356	50	127
17.402585034013605	17.8437641723356	42	127
17.402585034013605	18.087573696145125	62	127
17.913424036281178	18.168843537414965	50	127
17.913424036281178	18.168843537414965	57	127
17.913424036281178	18.168843537414965	42	127
18.18045351473923	18.435873015873018	62	127
18.18045351473923	18.63324263038549	50	127
18.18045351473923	18.63324263038549	57	127
18.18045351473923	18.63324263038549	48	127
18.435873015873018	18.71451247165533	64	127
18.72612244897959	18.981541950113378	66	127
18.72612244897959	18.981541950113378	62	127
18.72612244897959	18.981541950113378	57	127
18.72612244897959	18.981541950113378	48	127
18.981541950113378	19.445918367346938	62	127
18.981541950113378	19.445918367346938	55	127
18.981541950113378	19.445918367346938	47	127
18.981541950113378	19.724580498866214	67	127
19.527210884353742	19.805850340136054	50	127
19.527210884353742	19.805850340136054	55	127
19.527210884353742	19.805850340136054	47	127
19.805850340136054	20.270226757369613	45	127
19.805850340136054	20.270226757369613	62	127
19.805850340136054	20.270226757369613	54	127
19.805850340136054	20.54888888888889	62	127
20.36312925170068	20.618548752834467	54	127
20.36312925170068	20.618548752834467	50	127
20.36312925170068	20.618548752834467	45	127
20.618548752834467	21.09453514739229	55	127
20.618548752834467	20.688208616780045	59	127
20.618548752834467	21.09453514739229	50	127
20.618548752834467	21.09453514739229	43	127
20.688208616780045	20.769478458049885	60	127
20.769478458049885	20.89718820861678	59	127
20.908798185941045	21.175827664399094	57	127
21.175827664399094	21.43124716553288	50	127
21.175827664399094	21.43124716553288	55	127
21.175827664399094	21.43124716553288	43	127
21.175827664399094	21.43124716553288	59	127
21.442857142857143	21.8956462585034	57	127
21.442857142857143	21.8956462585034	50	127
21.442857142857143	21.8956462585034	42	127
21.442857142857143	22.719954648526077	62	127
21.97691609977324	22.209115646258503	50	127
21.97691609977324	22.209115646258503	42	127
21.97691609977324	22.209115646258503	57	127
22.209115646258503	22.627074829931974	45	127
22.209115646258503	22.627074829931974	52	127
22.209115646258503	22.627074829931974	57	127
22.719954648526077	22.998571428571427	45	127
22.719954648526077	22.998571428571427	61	127
22.719954648526077	22.998571428571427	57	127
22.719954648526077	22.998571428571427	52	127
23.010204081632654	23.486213151927437	45	127
23.010204081632654	23.288843537414966	62	127
23.010204081632654	23.288843537414966	54	127
23.010204081632654	23.486213151927437	57	127
23.288843537414966	23.567460317460316	55	127
23.288843537414966	23.555873015873015	64	127
23.567460317460316	23.83451247165533	66	127
23.567460317460316	23.83451247165533	57	127
23.567460317460316	23.83451247165533	50	127
23.567460317460316	23.83451247165533	48	127
23.83451247165533	24.29891156462585	67	127
23.83451247165533	24.124761904761904	62	127
23.83451247165533	24.29891156462585	50	127
23.83451247165533	24.29891156462585	47	127
24.124761904761904	24.391791383219953	59	127
24.391791383219953	24.658820861678006	62	127
24.391791383219953	24.658820861678006	55	127
24.391791383219953	24.658820861678006	50	127
24.391791383219953	24.658820861678006	47	127
24.670430839002268	25.123219954648526	50	127
24.670430839002268	25.123219954648526	43	127
24.670430839002268	24.740090702947846	59	127
24.670430839002268	25.123219954648526	55	127
24.740090702947846	24.79814058956916	60	127
24.79814058956916	24.937460317460317	59	127
24.937460317460317	25.204489795918366	57	127
25.21609977324263	25.48312925170068	43	127
25.21609977324263	25.48312925170068	55	127
25.21609977324263	25.48312925170068	55	127
25.21609977324263	25.48312925170068	50	127
25.48312925170068	25.947528344671202	55	127
25.48312925170068	26.040408163265305	59	127
25.48312925170068	25.773378684807255	55	127
25.48312925170068	25.947528344671202	40	127
25.773378684807255	26.040408163265305	59	127
26.040408163265305	26.342267573696144	59	127
26.040408163265305	26.342267573696144	55	127
26.040408163265305	26.342267573696144	40	127
26.040408163265305	26.342267573696144	61	127
26.353877551020407	27.74707482993197	61	127
26.353877551020407	26.829886621315193	59	127
26.353877551020407	26.829886621315193	52	127
26.353877551020407	26.829886621315193	43	127
26.922766439909296	27.213015873015873	52	127
26.922766439909296	27.213015873015873	43	127
26.922766439909296	27.213015873015873	59	127
27.213015873015873	27.66580498866213	57	127
27.213015873015873	27.491655328798185	57	127
27.213015873015873	27.66580498866213	42	127
27.491655328798185	27.74707482993197	61	127
27.74707482993197	28.00249433106576	62	127
27.74707482993197	28.00249433106576	61	127
27.74707482993197	28.00249433106576	57	127
27.74707482993197	28.00249433106576	42	127
28.014104308390024	28.524943310657598	61	127
28.014104308390024	28.524943310657598	54	127
28.014104308390024	28.524943310657598	45	127
28.014104308390024	29.430521541950114	62	127
28.606213151927438	28.88485260770975	54	127
28.606213151927438	28.88485260770975	45	127
28.606213151927438	28.88485260770975	61	127
28.88485260770975	29.337641723356008	59	127
28.88485260770975	29.163492063492065	59	127
28.88485260770975	29.337641723356008	43	127
29.163492063492065	29.430521541950114	62	127
29.430521541950114	29.720770975056688	55	127
29.430521541950114	29.720770975056688	64	127
29.430521541950114	29.720770975056688	62	127
29.430521541950114	29.720770975056688	59	127
29.430521541950114	29.720770975056688	43	127
29.732380952380954	30.17356009070295	61	127
29.732380952380954	30.17356009070295	59	127
29.732380952380954	30.17356009070295	55	127
29.732380952380954	30.17356009070295	40	127
29.732380952380954	29.98780045351474	64	127
29.98780045351474	30.25482993197279	66	127
30.266439909297052	30.498639455782314	67	127
30.266439909297052	30.498639455782314	61	127
30.266439909297052	30.498639455782314	59	127
30.266439909297052	30.498639455782314	52	127
30.266439909297052	30.498639455782314	40	127
30.498639455782314	30.963038548752834	62	127
30.498639455782314	30.963038548752834	59	127
30.498639455782314	30.963038548752834	54	127
30.498639455782314	30.963038548752834	38	127
30.498639455782314	31.055918367346937	66	127
31.055918367346937	31.32294784580499	71	127
31.055918367346937	31.32294784580499	54	127
31.055918367346937	31.32294784580499	62	127
31.055918367346937	31.32294784580499	50	127
31.055918367346937	31.32294784580499	38	127
31.334557823129252	31.624807256235826	69	127
31.334557823129252	31.810566893424035	57	127
31.334557823129252	31.810566893424035	62	127
31.334557823129252	31.810566893424035	50	127
31.334557823129252	31.810566893424035	42	127
31.624807256235826	31.880226757369613	66	127
31.880226757369613	32.170476190476194	42	127
31.880226757369613	32.170476190476194	62	127
31.880226757369613	32.170476190476194	57	127
31.880226757369613	32.170476190476194	62	127
31.880226757369613	32.170476190476194	45	127
32.170476190476194	32.70453514739229	62	127
32.170476190476194	32.70453514739229	45	127
32.170476190476194	32.994784580498866	64	127
32.170476190476194	32.994784580498866	57	127
32.80902494331066	33.07605442176871	61	127
32.80902494331066	33.07605442176871	45	127
33.07605442176871	33.528843537414964	62	127
33.07605442176871	33.528843537414964	38	127
33.07605442176871	33.77265306122449	62	127
33.07605442176871	33.77265306122449	66	127
33.07605442176871	33.77265306122449	69	127
33.85392290249433	33.99324263038549	57	127
33.85392290249433	33.99324263038549	66	127
33.85392290249433	33.99324263038549	74	127
34.12095238095238	34.52730158730159	62	127
34.12095238095238	34.52730158730159	66	127
34.12095238095238	34.52730158730159	69	127
34.62018140589569	34.747891156462586	67	127
34.62018140589569	34.747891156462586	55	127
34.62018140589569	34.747891156462586	70	127
34.88721088435374	35.36321995464853	62	127
34.88721088435374	35.36321995464853	66	127
34.88721088435374	35.36321995464853	69	127
35.45607709750567	36.23396825396826	57	127
35.45607709750567	35.52575963718821	69	127
35.45607709750567	35.72312925170068	65	127
35.45607709750567	36.23396825396826	53	127
35.45607709750567	36.23396825396826	50	127
35.52575963718821	35.59541950113379	70	127
35.59541950113379	35.72312925170068	69	127
35.72312925170068	36.03659863945578	62	127
35.72312925170068	36.03659863945578	65	127
36.03659863945578	36.315238095238094	64	127
36.03659863945578	36.315238095238094	67	127
36.326848072562356	36.45455782312925	53	127
36.326848072562356	36.45455782312925	62	127
36.326848072562356	36.45455782312925	45	127
36.326848072562356	36.77963718820862	65	127
36.326848072562356	36.77963718820862	69	127
36.59385487528345	37.035056689342404	53	127
36.59385487528345	37.035056689342404	57	127
36.59385487528345	37.035056689342404	50	127
37.151156462585035	37.27886621315193	43	127
37.151156462585035	37.27886621315193	55	127
37.151156462585035	37.27886621315193	58	127
37.42979591836735	37.88258503401361	57	127
37.42979591836735	37.88258503401361	53	127
37.42979591836735	37.88258503401361	50	127
37.97546485260771	38.71850340136054	46	127
37.97546485260771	38.03351473922903	57	127
37.97546485260771	38.71850340136054	62	127
37.97546485260771	38.71850340136054	50	127
37.97546485260771	38.71850340136054	74	127
38.03351473922903	38.09156462585034	58	127
38.09156462585034	38.2424716553288	57	127
38.2424716553288	38.53274376417234	53	127
38.53274376417234	38.81138321995465	55	127
38.81138321995465	38.92748299319728	73	127
38.81138321995465	38.92748299319728	81	127
38.81138321995465	38.92748299319728	57	127
38.81138321995465	39.25256235827664	52	127
38.81138321995465	39.25256235827664	57	127
38.81138321995465	39.25256235827664	45	127
39.0784126984127	39.53120181405896	73	127
39.0784126984127	39.53120181405896	76	127
39.0784126984127	39.53120181405896	69	127
39.62408163265306	39.75179138321995	77	127
39.62408163265306	39.75179138321995	74	127
39.62408163265306	39.75179138321995	62	127
39.89108843537415	40.320680272108845	76	127
39.89108843537415	40.320680272108845	73	127
39.89108843537415	40.320680272108845	69	127
40.41356009070295	40.680589569161	72	127
40.41356009070295	40.483219954648526	76	127
40.41356009070295	41.12176870748299	60	127
40.41356009070295	41.12176870748299	64	127
40.41356009070295	41.12176870748299	57	127
40.483219954648526	40.55287981859411	78	127
40.55287981859411	40.680589569161	76	127
40.680589569161	40.93600907029479	69	127
40.680589569161	40.93600907029479	72	127
40.93600907029479	41.203038548752836	74	127
40.93600907029479	41.203038548752836	71	127
41.2146485260771	41.34235827664399	60	127
41.2146485260771	41.34235827664399	69	127
41.2146485260771	41.93446712018141	76	127
41.2146485260771	41.34235827664399	52	127
41.2146485260771	41.93446712018141	72	127
41.48167800453515	41.93446712018141	57	127
41.48167800453515	41.93446712018141	60	127
41.48167800453515	41.93446712018141	64	127
42.02734693877551	42.1550566893424	74	127
42.02734693877551	42.1550566893424	62	127
42.02734693877551	42.1550566893424	78	127
42.02734693877551	42.1550566893424	66	127
42.02734693877551	42.1550566893424	50	127
42.30596371882086	42.723945578231294	60	127
42.30596371882086	42.723945578231294	76	127
42.30596371882086	42.723945578231294	72	127
42.30596371882086	42.723945578231294	64	127
42.30596371882086	42.723945578231294	57	127
42.816802721088436	43.06061224489796	76	127
42.816802721088436	43.06061224489796	72	127
42.816802721088436	43.815283446712016	45	127
42.816802721088436	43.815283446712016	60	127
43.06061224489796	43.32764172335601	72	127
43.06061224489796	43.32764172335601	69	127
43.32764172335601	43.54825396825397	67	127
43.32764172335601	43.54825396825397	71	127
43.55986394557823	44.581541950113376	66	127
43.55986394557823	44.581541950113376	69	127
43.815283446712016	44.08229024943311	57	127
43.815283446712016	44.08229024943311	42	127
44.08229024943311	44.337709750566894	55	127
44.08229024943311	44.337709750566894	40	127
44.337709750566894	45.359410430839006	54	127
44.337709750566894	45.359410430839006	38	127
44.581541950113376	44.836938775510205	67	127
44.581541950113376	44.836938775510205	71	127
44.836938775510205	45.103968253968254	72	127
44.836938775510205	45.103968253968254	69	127
45.11560090702948	45.359410430839006	71	127
45.11560090702948	45.359410430839006	74	127
45.359410430839006	45.626439909297055	67	127
45.359410430839006	45.626439909297055	55	127
45.359410430839006	45.626439909297055	71	127
45.359410430839006	45.626439909297055	40	127
45.626439909297055	45.893469387755104	69	127
45.626439909297055	45.893469387755104	66	127
45.626439909297055	45.893469387755104	57	127
45.626439909297055	45.893469387755104	42	127
45.893469387755104	46.891927437641726	67	127
45.893469387755104	46.102448979591834	59	127
45.893469387755104	46.102448979591834	43	127
45.893469387755104	46.891927437641726	64	127
46.102448979591834	46.369455782312926	55	127
46.102448979591834	46.369455782312926	40	127
46.369455782312926	46.61326530612245	54	127
46.369455782312926	46.61326530612245	38	127
46.62487528344671	47.28666666666667	52	127
46.62487528344671	47.28666666666667	36	127
46.891927437641726	47.158956916099775	69	127
46.891927437641726	47.158956916099775	66	127
47.158956916099775	47.367936507936506	71	127
47.158956916099775	47.367936507936506	67	127
47.367936507936506	47.646575963718824	52	127
47.367936507936506	47.646575963718824	36	127
47.367936507936506	47.91360544217687	72	127
47.367936507936506	47.91360544217687	69	127
47.646575963718824	47.91360544217687	54	127
47.646575963718824	47.91360544217687	38	127
47.91360544217687	48.09936507936508	71	127
47.91360544217687	48.09936507936508	67	127
47.91360544217687	48.36639455782313	55	127
47.91360544217687	48.36639455782313	40	127
48.11097505668934	48.64503401360544	76	127
48.11097505668934	48.64503401360544	72	127
48.36639455782313	48.64503401360544	57	127
48.36639455782313	48.64503401360544	42	127
48.64503401360544	49.05138321995465	59	127
48.64503401360544	48.784353741496595	74	127
48.64503401360544	48.784353741496595	71	127
48.64503401360544	49.05138321995465	43	127
48.784353741496595	49.30680272108844	79	127
48.784353741496595	49.30680272108844	76	127
49.05138321995465	49.30680272108844	60	127
49.05138321995465	49.30680272108844	45	127
49.30680272108844	49.840861678004536	62	127
49.30680272108844	49.562222222222225	78	127
49.30680272108844	49.562222222222225	74	127
49.30680272108844	49.840861678004536	47	127
49.57383219954649	49.840861678004536	76	127
49.57383219954649	49.840861678004536	72	127
49.840861678004536	50.13111111111111	74	127
49.840861678004536	50.13111111111111	71	127
49.840861678004536	50.29365079365079	64	127
49.840861678004536	50.29365079365079	48	127
50.13111111111111	50.39814058956916	72	127
50.13111111111111	50.39814058956916	69	127
50.39814058956916	50.68839002267574	64	127
50.39814058956916	50.68839002267574	48	127
50.39814058956916	50.68839002267574	71	127
50.39814058956916	50.68839002267574	67	127
50.68839002267574	51.22244897959184	57	127
50.68839002267574	51.00185941043084	69	127
50.68839002267574	51.00185941043084	66	127
50.68839002267574	51.59396825396826	49	127
51.00185941043084	51.31532879818594	64	127
51.00185941043084	51.31532879818594	67	127
51.31532879818594	51.59396825396826	57	127
51.31532879818594	51.60557823129252	57	127
51.31532879818594	51.60557823129252	66	127
51.60557823129252	51.91904761904762	64	127
51.60557823129252	52.13963718820862	60	127
51.60557823129252	52.13963718820862	54	127
51.60557823129252	52.13963718820862	50	127
51.91904761904762	52.244126984126986	62	127
52.25573696145125	52.53437641723356	59	127
52.25573696145125	52.53437641723356	55	127
52.25573696145125	52.53437641723356	47	127
52.25573696145125	52.7433560090703	43	127
52.25573696145125	53.4631746031746	67	127
52.53437641723356	52.836235827664396	57	127
52.53437641723356	52.824625850340134	57	127
52.53437641723356	52.836235827664396	48	127
52.836235827664396	53.161315192743764	50	127
52.836235827664396	53.161315192743764	43	127
52.836235827664396	53.161315192743764	59	127
52.836235827664396	53.161315192743764	55	127
53.161315192743764	54.03206349206349	52	127
53.161315192743764	53.64893424036281	55	127
53.161315192743764	53.64893424036281	43	127
53.161315192743764	54.03206349206349	60	127
53.4631746031746	53.74181405895692	69	127
53.74181405895692	54.02045351473923	43	127
53.74181405895692	54.02045351473923	71	127
54.03206349206349	54.763492063492066	59	127
54.03206349206349	54.49646258503402	43	127
54.03206349206349	54.763492063492066	50	127
54.03206349206349	55.80839002267574	67	127
54.589342403628116	54.856371882086165	43	127
54.856371882086165	55.30916099773243	43	127
54.856371882086165	55.135011337868484	57	127
54.856371882086165	55.135011337868484	48	127
55.135011337868484	55.40204081632653	50	127
55.135011337868484	55.40204081632653	59	127
55.40204081632653	55.66907029478458	48	127
55.40204081632653	55.66907029478458	43	127
55.40204081632653	55.66907029478458	57	127
55.680680272108845	56.23795918367347	55	127
55.680680272108845	56.14507936507937	43	127
55.680680272108845	55.947709750566894	47	127
55.947709750566894	56.23795918367347	50	127
55.947709750566894	56.23795918367347	71	127
56.23795918367347	56.50498866213152	59	127
56.23795918367347	56.50498866213152	55	127
56.23795918367347	56.50498866213152	43	127
56.23795918367347	56.50498866213152	74	127
56.50498866213152	57.23641723356009	62	127
56.50498866213152	56.7952380952381	69	127
56.50498866213152	56.96938775510204	43	127
56.50498866213152	57.23641723356009	54	127
56.7952380952381	57.06226757369615	71	127
57.06226757369615	57.317687074829934	43	127
57.06226757369615	57.317687074829934	69	127
57.329297052154196	57.58471655328798	43	127
57.329297052154196	57.758866213151926	55	127
57.329297052154196	58.38580498866213	79	127
57.329297052154196	57.58471655328798	59	127
57.329297052154196	58.38580498866213	67	127
57.58471655328798	57.863356009070294	60	127
57.58471655328798	57.863356009070294	45	127
57.863356009070294	58.11877551020408	62	127
57.863356009070294	58.11877551020408	47	127
57.863356009070294	58.11877551020408	55	127
58.11877551020408	58.966303854875285	64	127
58.11877551020408	58.57156462585034	55	127
58.11877551020408	58.966303854875285	48	127
58.38580498866213	58.676054421768704	81	127
58.38580498866213	58.676054421768704	69	127
58.676054421768704	58.95469387755102	55	127
58.676054421768704	58.95469387755102	83	127
58.676054421768704	58.95469387755102	71	127
58.966303854875285	59.44231292517007	55	127
58.966303854875285	59.70934240362812	62	127
58.966303854875285	59.70934240362812	47	127
58.966303854875285	60.78907029478458	67	127
58.966303854875285	60.78907029478458	79	127
59.53519274376417	59.80222222222222	55	127
59.80222222222222	60.0924716553288	60	127
59.80222222222222	60.0924716553288	45	127
59.80222222222222	60.266621315192744	55	127
60.0924716553288	60.35950113378685	47	127
60.0924716553288	60.35950113378685	62	127
60.35950113378685	60.649750566893424	55	127
60.35950113378685	60.649750566893424	60	127
60.35950113378685	60.649750566893424	45	127
60.661360544217686	61.12575963718821	43	127
60.661360544217686	61.12575963718821	55	127
60.661360544217686	61.20702947845805	59	127
60.91678004535147	61.20702947845805	83	127
60.91678004535147	61.20702947845805	71	127
61.20702947845805	61.4740589569161	55	127
61.20702947845805	61.4740589569161	55	127
61.20702947845805	61.4740589569161	86	127
61.20702947845805	61.4740589569161	74	127
61.20702947845805	61.4740589569161	47	127
61.4740589569161	61.799138321995464	69	127
61.4740589569161	61.97328798185941	54	127
61.4740589569161	61.799138321995464	81	127
61.4740589569161	62.251927437641726	50	127
61.4740589569161	62.251927437641726	50	127
61.799138321995464	62.06616780045351	83	127
61.799138321995464	62.06616780045351	71	127
62.06616780045351	62.62344671201814	69	127
62.06616780045351	62.62344671201814	81	127
62.06616780045351	62.344807256235825	54	127
62.35641723356009	62.80920634920635	45	127
62.35641723356009	62.80920634920635	60	127
62.35641723356009	62.80920634920635	52	127
62.62344671201814	62.902086167800455	84	127
62.62344671201814	62.902086167800455	72	127
62.902086167800455	63.19233560090703	57	127
62.902086167800455	63.19233560090703	57	127
62.902086167800455	63.19233560090703	48	127
62.902086167800455	63.19233560090703	88	127
62.902086167800455	63.19233560090703	76	127
63.19233560090703	63.45936507936508	83	127
63.19233560090703	63.935374149659864	52	127
63.19233560090703	63.45936507936508	71	127
63.19233560090703	63.668344671201815	52	127
63.19233560090703	63.668344671201815	55	127
63.45936507936508	63.73800453514739	84	127
63.45936507936508	63.73800453514739	72	127
63.73800453514739	64.01664399092971	52	127
63.73800453514739	64.01664399092971	55	127
63.73800453514739	64.2720634920635	83	127
63.73800453514739	64.28367346938775	71	127
64.01664399092971	64.45782312925171	62	127
64.01664399092971	64.45782312925171	54	127
64.01664399092971	64.45782312925171	47	127
64.28367346938775	64.53909297052154	86	127
64.28367346938775	64.53909297052154	74	127
64.53909297052154	64.79451247165532	59	127
64.53909297052154	64.79451247165532	59	127
64.53909297052154	64.79451247165532	50	127
64.53909297052154	65.06154195011338	90	127
64.53909297052154	65.06154195011338	78	127
64.8061224489796	65.25891156462585	64	127
64.8061224489796	65.25891156462585	55	127
64.8061224489796	65.25891156462585	49	127
65.07312925170068	65.35179138321996	88	127
65.07312925170068	65.35179138321996	76	127
65.35179138321996	65.63043083900227	55	127
65.35179138321996	65.63043083900227	61	127
65.35179138321996	65.63043083900227	52	127
65.35179138321996	65.90907029478458	91	127
65.35179138321996	65.90907029478458	79	127
65.64204081632653	66.08321995464853	66	127
65.64204081632653	66.08321995464853	57	127
65.64204081632653	66.08321995464853	51	127
65.92068027210884	66.1528798185941	78	127
65.92068027210884	66.1528798185941	90	127
66.1528798185941	66.45471655328798	59	127
66.1528798185941	66.45471655328798	63	127
66.1528798185941	66.45471655328798	54	127
66.1528798185941	66.76820861678004	93	127
66.1528798185941	66.76820861678004	81	127
66.45471655328798	66.98879818594105	67	127
66.45471655328798	66.98879818594105	59	127
66.45471655328798	66.98879818594105	52	127
66.76820861678004	67.09326530612245	91	127
66.76820861678004	67.09326530612245	79	127
67.09326530612245	67.40675736961451	95	127
67.09326530612245	67.40675736961451	83	127
67.09326530612245	67.40675736961451	61	127
67.09326530612245	67.40675736961451	64	127
67.09326530612245	67.40675736961451	55	127
67.41836734693878	67.54607709750567	73	127
67.41836734693878	67.54607709750567	66	127
67.41836734693878	67.54607709750567	70	127
67.41836734693878	67.68539682539682	97	127
67.41836734693878	67.68539682539682	61	127
67.41836734693878	67.68539682539682	54	127
67.55768707482993	67.68539682539682	70	127
67.55768707482993	67.68539682539682	73	127
67.55768707482993	67.68539682539682	66	127
67.68539682539682	67.77827664399094	73	127
67.68539682539682	67.77827664399094	66	127
67.68539682539682	67.77827664399094	70	127
67.77827664399094	67.8827664399093	73	127
67.77827664399094	67.8827664399093	66	127
67.77827664399094	67.8827664399093	70	127
67.8827664399093	67.92920634920635	78	127
67.8827664399093	67.92920634920635	61	127
67.8827664399093	67.92920634920635	70	127
67.92920634920635	68.05691609977325	78	127
67.92920634920635	68.05691609977325	61	127
67.92920634920635	68.05691609977325	70	127
68.0685260770975	68.1962358276644	73	127
68.0685260770975	68.1962358276644	66	127
68.0685260770975	68.1962358276644	70	127
68.20784580498866	68.33555555555556	73	127
68.20784580498866	68.33555555555556	66	127
68.20784580498866	68.33555555555556	70	127
68.33555555555556	68.45165532879818	73	127
68.33555555555556	68.45165532879818	66	127
68.33555555555556	68.45165532879818	70	127
68.45165532879818	68.5097052154195	73	127
68.45165532879818	68.5097052154195	66	127
68.45165532879818	68.5097052154195	70	127
68.52131519274377	68.64902494331066	75	127
68.52131519274377	68.64902494331066	59	127
68.52131519274377	68.64902494331066	71	127
68.64902494331066	68.76512471655329	75	127
68.64902494331066	68.76512471655329	59	127
68.64902494331066	68.76512471655329	71	127
68.76512471655329	68.90444444444445	70	127
68.76512471655329	68.90444444444445	73	127
68.76512471655329	68.90444444444445	66	127
68.90444444444445	69.03215419501134	70	127
68.90444444444445	69.03215419501134	73	127
68.90444444444445	69.03215419501134	66	127
69.0437641723356	69.11340136054422	73	127
69.0437641723356	69.11340136054422	66	127
69.0437641723356	69.11340136054422	70	127
69.12503401360544	69.24111111111111	73	127
69.12503401360544	69.24111111111111	66	127
69.12503401360544	69.24111111111111	70	127
69.24111111111111	69.368820861678	78	127
69.24111111111111	69.368820861678	73	127
69.24111111111111	69.368820861678	70	127
69.24111111111111	69.4965306122449	66	127
69.368820861678	69.4965306122449	68	127
69.368820861678	69.4965306122449	78	127
69.368820861678	69.4965306122449	71	127
69.50816326530612	69.62424036281179	78	127
69.50816326530612	69.62424036281179	70	127
69.50816326530612	69.62424036281179	66	127
69.63587301587302	69.75195011337868	78	127
69.63587301587302	69.75195011337868	68	127
69.63587301587302	69.75195011337868	64	127
69.75195011337868	69.81002267573696	78	127
69.75195011337868	69.81002267573696	66	127
69.75195011337868	69.81002267573696	63	127
69.81002267573696	69.93773242630385	78	127
69.81002267573696	69.93773242630385	64	127
69.81002267573696	69.93773242630385	61	127
69.94934240362812	70.07705215419502	63	127
69.94934240362812	70.07705215419502	59	127
69.94934240362812	70.06544217687075	66	127
69.94934240362812	70.06544217687075	83	127
69.94934240362812	70.06544217687075	63	127
70.07705215419502	70.15829931972789	83	127
70.07705215419502	70.15829931972789	64	127
70.07705215419502	70.15829931972789	61	127
70.15829931972789	70.29764172335601	78	127
70.15829931972789	70.29764172335601	63	127
70.15829931972789	70.29764172335601	59	127
70.15829931972789	70.29764172335601	71	127
70.15829931972789	70.29764172335601	59	127
70.29764172335601	70.4253514739229	78	127
70.29764172335601	70.4253514739229	61	127
70.29764172335601	70.4253514739229	57	127
70.43696145124717	70.5530612244898	78	127
70.43696145124717	70.5530612244898	59	127
70.43696145124717	70.5530612244898	56	127
70.56467120181406	70.66916099773243	78	127
70.56467120181406	70.66916099773243	57	127
70.56467120181406	70.66916099773243	54	127
70.66916099773243	70.80848072562358	80	127
70.66916099773243	70.80848072562358	59	127
70.66916099773243	70.80848072562358	56	127
70.66916099773243	70.80848072562358	56	127
70.66916099773243	70.80848072562358	52	127
70.80848072562358	70.93619047619048	80	127
70.80848072562358	70.93619047619048	61	127
70.80848072562358	70.93619047619048	58	127
70.93619047619048	71.06390022675737	47	127
70.93619047619048	71.06390022675737	78	127
70.93619047619048	71.06390022675737	63	127
70.93619047619048	71.06390022675737	59	127
70.93619047619048	71.06390022675737	59	127
71.06390022675737	71.20321995464853	78	127
71.06390022675737	71.20321995464853	64	127
71.06390022675737	71.20321995464853	61	127
71.20321995464853	71.2728798185941	78	127
71.20321995464853	71.2728798185941	66	127
71.20321995464853	71.2728798185941	63	127
71.2728798185941	71.3077097505669	78	127
71.2728798185941	71.3077097505669	68	127
71.2728798185941	71.3077097505669	64	127
71.31931972789116	71.4121768707483	83	127
71.31931972789116	71.4121768707483	66	127
71.31931972789116	71.4121768707483	63	127
71.31931972789116	71.4121768707483	69	127
71.31931972789116	71.4121768707483	66	127
71.4121768707483	71.55151927437642	83	127
71.4121768707483	71.55151927437642	64	127
71.4121768707483	71.55151927437642	61	127
71.55151927437642	71.67922902494331	78	127
71.55151927437642	71.67922902494331	63	127
71.55151927437642	71.67922902494331	59	127
71.55151927437642	71.69083900226758	59	127
71.55151927437642	71.69083900226758	66	127
71.69083900226758	71.8069387755102	78	127
71.69083900226758	71.8069387755102	61	127
71.69083900226758	71.8069387755102	57	127
71.81854875283447	71.94625850340137	78	127
71.81854875283447	71.94625850340137	59	127
71.81854875283447	71.94625850340137	55	127
71.94625850340137	72.03913832199547	78	127
71.94625850340137	72.03913832199547	57	127
71.94625850340137	72.03913832199547	54	127
72.03913832199547	72.15523809523809	79	127
72.03913832199547	72.15523809523809	71	127
72.03913832199547	72.15523809523809	67	127
72.03913832199547	72.16684807256236	55	127
72.03913832199547	72.16684807256236	52	127
72.16684807256236	72.27133786848073	79	127
72.16684807256236	72.27133786848073	73	127
72.16684807256236	72.27133786848073	67	127
72.28294784580498	72.41065759637188	81	127
72.28294784580498	72.41065759637188	74	127
72.28294784580498	72.41065759637188	66	127
72.28294784580498	72.41065759637188	62	127
72.28294784580498	72.41065759637188	50	127
72.41065759637188	72.54997732426304	81	127
72.41065759637188	72.54997732426304	76	127
72.41065759637188	72.54997732426304	67	127
72.54997732426304	72.67768707482993	81	127
72.54997732426304	72.67768707482993	78	127
72.54997732426304	72.67768707482993	69	127
72.68927437641723	72.77056689342403	81	127
72.68927437641723	72.77056689342403	79	127
72.68927437641723	72.77056689342403	67	127
72.7821768707483	72.9098866213152	86	127
72.7821768707483	72.9098866213152	69	127
72.7821768707483	72.9098866213152	66	127
72.7821768707483	72.9098866213152	81	127
72.7821768707483	72.9098866213152	66	127
72.9098866213152	73.04918367346939	86	127
72.9098866213152	73.04918367346939	67	127
72.9098866213152	73.04918367346939	64	127
73.04918367346939	73.15369614512471	81	127
73.04918367346939	73.15369614512471	66	127
73.04918367346939	73.15369614512471	62	127
73.04918367346939	73.16530612244898	74	127
73.04918367346939	73.16530612244898	66	127
73.16530612244898	73.29301587301588	81	127
73.16530612244898	73.29301587301588	60	127
73.16530612244898	73.29301587301588	64	127
73.30460317460317	73.43231292517007	81	127
73.30460317460317	73.43231292517007	62	127
73.30460317460317	73.43231292517007	59	127
73.43231292517007	73.57165532879819	81	127
73.43231292517007	73.57165532879819	60	127
73.43231292517007	73.57165532879819	57	127
73.57165532879819	73.69936507936508	83	127
73.57165532879819	73.69936507936508	74	127
73.57165532879819	73.69936507936508	71	127
73.57165532879819	73.69936507936508	59	127
73.57165532879819	73.69936507936508	55	127
73.69936507936508	73.82707482993197	83	127
73.69936507936508	73.82707482993197	76	127
73.69936507936508	73.82707482993197	71	127
73.83866213151927	73.97800453514739	85	127
73.83866213151927	73.97800453514739	73	127
73.83866213151927	73.97800453514739	70	127
73.83866213151927	73.97800453514739	66	127
73.83866213151927	73.97800453514739	54	127
73.97800453514739	74.08249433106576	85	127
73.97800453514739	74.08249433106576	78	127
73.97800453514739	74.08249433106576	71	127
74.08249433106576	74.09410430839003	73	127
74.08249433106576	74.09410430839003	85	127
74.08249433106576	74.09410430839003	82	127
74.09410430839003	74.14054421768708	78	127
74.09410430839003	74.14054421768708	71	127
74.09410430839003	74.14054421768708	85	127
74.15215419501133	74.19857142857143	90	127
74.15215419501133	74.19857142857143	70	127
74.15215419501133	74.19857142857143	73	127
74.15215419501133	74.19857142857143	58	127
74.15215419501133	74.19857142857143	78	127
74.19857142857143	74.2914739229025	90	127
74.19857142857143	74.2914739229025	68	127
74.19857142857143	74.2914739229025	71	127
74.19857142857143	74.2914739229025	56	127
74.30308390022675	74.41918367346939	70	127
74.30308390022675	74.41918367346939	85	127
74.30308390022675	74.41918367346939	66	127
74.30308390022675	74.41918367346939	54	127
74.30308390022675	74.75587301587302	73	127
74.43079365079365	74.55850340136054	64	127
74.43079365079365	74.55850340136054	68	127
74.43079365079365	74.55850340136054	52	127
74.43079365079365	74.55850340136054	85	127
74.57011337868481	74.6978231292517	62	127
74.57011337868481	74.6978231292517	66	127
74.57011337868481	74.6978231292517	50	127
74.57011337868481	74.6978231292517	85	127
74.709410430839	74.84875283446712	85	127
74.709410430839	74.84875283446712	61	127
74.709410430839	74.84875283446712	64	127
74.709410430839	74.84875283446712	49	127
74.84875283446712	74.99968253968254	78	127
74.84875283446712	74.99968253968254	90	127
74.84875283446712	74.99968253968254	62	127
74.84875283446712	74.99968253968254	47	127
74.99968253968254	75.15061224489796	90	127
75.16222222222223	75.31315192743764	74	127
75.16222222222223	75.31315192743764	59	127
75.16222222222223	75.31315192743764	52	127
75.16222222222223	75.31315192743764	86	127
75.31315192743764	75.4524716553288	86	127
75.46408163265306	75.61501133786848	92	127
75.46408163265306	75.61501133786848	80	127
75.46408163265306	75.61501133786848	71	127
75.46408163265306	75.61501133786848	62	127
75.46408163265306	75.61501133786848	40	127
75.61501133786848	75.7659410430839	92	127
75.7659410430839	75.90526077097506	93	127
75.7659410430839	76.03297052154196	64	127
75.7659410430839	76.03297052154196	61	127
75.7659410430839	76.03297052154196	45	127
75.7659410430839	76.04458049886621	81	127
75.90526077097506	76.03297052154196	81	127
76.04458049886621	76.1722902494331	81	127
76.04458049886621	76.49734693877551	69	127
76.1722902494331	76.31160997732427	69	127
76.31160997732427	76.43931972789116	81	127
76.45092970521542	76.57863945578231	81	127
76.59024943310658	76.60183673469388	93	127
76.59024943310658	76.65990929705215	81	127
76.60183673469388	76.65990929705215	81	127
76.65990929705215	76.77600907029479	81	127
76.65990929705215	77.06625850340136	69	127
76.77600907029479	76.91532879818594	69	127
76.91532879818594	77.03142857142858	81	127
77.03142857142858	77.15913832199547	81	127
77.15913832199547	77.33328798185941	81	127
77.15913832199547	77.19396825396825	93	127
77.19396825396825	77.32167800453514	81	127
77.33328798185941	77.4609977324263	81	127
77.33328798185941	77.78607709750567	69	127
77.4609977324263	77.60031746031746	69	127
77.60031746031746	77.72802721088435	81	127
77.60031746031746	77.86734693877551	57	127
77.73963718820862	77.86734693877551	81	127
77.87893424036281	78.0066439909297	93	127
77.87893424036281	78.40140589569161	69	127
77.87893424036281	78.1343537414966	62	127
77.87893424036281	78.32013605442177	42	127
78.0066439909297	78.1343537414966	81	127
78.1343537414966	78.40140589569161	57	127
78.1343537414966	78.27369614512472	81	127
78.27369614512472	78.40140589569161	69	127
78.40140589569161	78.54072562358277	81	127
78.40140589569161	78.66843537414967	62	127
78.54072562358277	78.66843537414967	81	127
78.68004535147392	78.93546485260771	61	127
78.68004535147392	78.81936507936508	93	127
78.68004535147392	79.12122448979592	40	127
78.68004535147392	79.21410430839002	67	127
78.81936507936508	78.93546485260771	81	127
78.93546485260771	79.20249433106576	55	127
78.93546485260771	79.07478458049887	81	127
79.07478458049887	79.21410430839002	69	127
79.21410430839002	79.34181405895691	81	127
79.21410430839002	79.48113378684808	61	127
79.35342403628118	79.48113378684808	81	127
79.48113378684808	80.05	66	127
79.48113378684808	79.62045351473922	93	127
79.48113378684808	79.74816326530612	59	127
79.48113378684808	79.95714285714286	38	127
79.62045351473922	79.74816326530612	81	127
79.75977324263039	80.05	54	127
79.75977324263039	79.9107029478458	81	127
79.9107029478458	80.05	69	127
80.05	80.18934240362812	81	127
80.05	80.31705215419501	59	127
80.18934240362812	80.31705215419501	81	127
80.32866213151928	80.46798185941043	93	127
80.32866213151928	80.59569160997732	57	127
80.32866213151928	80.59569160997732	64	127
80.32866213151928	80.78145124716553	37	127
80.46798185941043	80.59569160997732	81	127
80.59569160997732	80.86272108843538	52	127
80.59569160997732	80.87433106575963	57	127
80.59569160997732	80.73501133786849	81	127
80.73501133786849	80.87433106575963	69	127
80.87433106575963	81.12975056689342	64	127
80.87433106575963	80.99043083900227	81	127
81.00204081632653	81.12975056689342	81	127
81.12975056689342	81.39678004535148	66	127
81.12975056689342	81.25746031746031	93	127
81.12975056689342	81.38517006802721	59	127
81.12975056689342	81.5592970521542	39	127
81.25746031746031	81.38517006802721	81	127
81.39678004535148	81.5128798185941	81	127
81.39678004535148	81.640589569161	54	127
81.39678004535148	81.640589569161	59	127
81.5128798185941	81.640589569161	69	127
81.640589569161	81.87278911564626	66	127
81.640589569161	81.76829931972789	81	127
81.76829931972789	81.87278911564626	81	127
81.88439909297053	82.29074829931973	40	127
81.88439909297053	82.02371882086167	91	127
81.88439909297053	82.12820861678004	59	127
81.88439909297053	82.12820861678004	67	127
82.02371882086167	82.12820861678004	79	127
82.12820861678004	82.37201814058957	55	127
82.12820861678004	82.24430839002268	90	127
82.12820861678004	82.54616780045352	71	127
82.24430839002268	82.37201814058957	78	127
82.38362811791383	82.49972789115647	88	127
82.49972789115647	82.62743764172336	76	127
82.62743764172336	82.76675736961451	88	127
82.62743764172336	82.8944671201814	64	127
82.62743764172336	83.09181405895691	43	127
82.62743764172336	83.18471655328798	71	127
82.76675736961451	82.8944671201814	76	127
82.90607709750567	83.18471655328798	59	127
82.90607709750567	83.04539682539682	76	127
83.04539682539682	83.18471655328798	71	127
83.18471655328798	83.4633560090703	64	127
83.18471655328798	83.3356462585034	76	127
83.3356462585034	83.4633560090703	76	127
83.4749433106576	83.75360544217688	63	127
83.4749433106576	84.00902494331066	69	127
83.4749433106576	83.61428571428571	87	127
83.4749433106576	83.92775510204082	42	127
83.61428571428571	83.75360544217688	75	127
83.75360544217688	83.9974149659864	57	127
83.75360544217688	83.89292517006803	75	127
83.89292517006803	84.00902494331066	69	127
84.00902494331066	84.09027210884354	75	127
84.00902494331066	84.19478458049886	63	127
84.09027210884354	84.19478458049886	75	127
84.19478458049886	84.4385941043084	61	127
84.19478458049886	84.32249433106576	85	127
84.19478458049886	84.61274376417234	40	127
84.19478458049886	84.70562358276644	67	127
84.32249433106576	84.4385941043084	73	127
84.45020408163265	84.70562358276644	55	127
84.45020408163265	84.58952380952381	73	127
84.58952380952381	84.70562358276644	69	127
84.70562358276644	84.94943310657597	61	127
84.70562358276644	84.82172335600907	73	127
84.82172335600907	84.94943310657597	73	127
84.94943310657597	85.20485260770975	66	127
84.94943310657597	85.07714285714286	83	127
84.94943310657597	85.20485260770975	59	127
84.94943310657597	85.35578231292517	39	127
85.07714285714286	85.20485260770975	71	127
85.20485260770975	85.44866213151927	59	127
85.20485260770975	85.32095238095238	71	127
85.20485260770975	85.43705215419502	54	127
85.32095238095238	85.44866213151927	69	127
85.44866213151927	85.56476190476191	71	127
85.44866213151927	85.64603174603175	66	127
85.56476190476191	85.64603174603175	71	127
85.64603174603175	85.83179138321995	62	127
85.64603174603175	85.77374149659865	83	127
85.64603174603175	85.84340136054422	68	127
85.64603174603175	86.00591836734694	40	127
85.77374149659865	85.83179138321995	71	127
85.84340136054422	85.95950113378684	81	127
85.84340136054422	86.098820861678	69	127
85.84340136054422	86.098820861678	52	127
85.95950113378684	86.098820861678	71	127
86.098820861678	86.36582766439909	71	127
86.098820861678	86.23814058956916	80	127
86.23814058956916	86.36582766439909	71	127
86.38904761904762	86.51675736961451	81	127
86.38904761904762	86.83024943310657	52	127
86.38904761904762	86.83024943310657	69	127
86.38904761904762	86.83024943310657	45	127
86.51675736961451	86.65609977324263	69	127
86.65609977324263	86.78380952380952	79	127
86.78380952380952	86.93473922902494	69	127
86.94634920634921	87.06244897959184	76	127
86.94634920634921	87.17854875283447	69	127
87.06244897959184	87.17854875283447	69	127
87.17854875283447	87.74743764172335	81	127
87.17854875283447	87.32947845804989	81	127
87.32947845804989	87.48040816326531	79	127
87.48040816326531	87.6081179138322	78	127
87.6081179138322	87.74743764172335	76	127
87.74743764172335	87.88675736961451	74	127
87.74743764172335	87.97963718820861	74	127
87.88675736961451	87.97963718820861	73	127
87.99124716553288	88.11895691609978	79	127
87.99124716553288	88.56013605442178	79	127
88.11895691609978	88.25827664399092	78	127
88.25827664399092	88.42081632653061	76	127
88.42081632653061	88.56013605442178	74	127
88.56013605442178	88.74589569160997	73	127
88.56013605442178	88.60657596371883	73	127
88.60657596371883	88.74589569160997	71	127
88.74589569160997	89.29156462585034	78	127
88.74589569160997	88.88521541950114	78	127
88.88521541950114	89.02453514739229	76	127
89.02453514739229	89.15224489795918	74	127
89.15224489795918	89.29156462585034	73	127
89.29156462585034	89.43086167800453	71	127
89.29156462585034	89.55857142857143	71	127
89.43086167800453	89.55857142857143	69	127
89.57020408163265	89.81399092970521	76	127
89.57020408163265	89.68628117913832	76	127
89.68628117913832	89.81399092970521	74	127
89.81399092970521	90.08104308390023	69	127
89.81399092970521	89.95333333333333	73	127
89.95333333333333	90.08104308390023	71	127
90.08104308390023	90.20875283446712	69	127
90.08104308390023	90.33646258503401	76	127
90.20875283446712	90.33646258503401	76	127
90.33646258503401	90.47578231292518	78	127
90.33646258503401	90.58024943310657	78	127
90.47578231292518	90.58024943310657	76	127
90.58024943310657	90.69637188208617	75	127
90.58024943310657	90.83566893424036	71	127
90.69637188208617	90.83566893424036	73	127
90.83566893424036	91.05628117913832	78	127
90.83566893424036	90.97501133786848	71	127
90.97501133786848	91.05628117913832	78	127
91.06786848072562	91.16077097505669	79	127
91.06786848072562	91.30009070294784	79	127
91.16077097505669	91.30009070294784	76	127
91.30009070294784	91.75287981859411	83	127
91.30009070294784	91.439410430839	71	127
91.439410430839	91.5787074829932	76	127
91.5787074829932	91.70641723356009	79	127
91.70641723356009	91.83412698412698	83	127
91.83412698412698	91.93863945578231	86	127
91.83412698412698	92.0663492063492	74	127
91.83412698412698	92.33337868480726	86	127
91.93863945578231	92.0663492063492	84	127
92.0663492063492	92.1940589569161	83	127
92.0663492063492	92.33337868480726	71	127
92.1940589569161	92.33337868480726	81	127
92.33337868480726	92.47267573696145	79	127
92.33337868480726	92.60038548752834	79	127
92.33337868480726	92.60038548752834	67	127
92.47267573696145	92.60038548752834	78	127
92.60038548752834	93.14607709750567	84	127
92.60038548752834	92.73972789115646	84	127
92.60038548752834	92.86743764172336	72	127
92.73972789115646	92.87904761904763	83	127
92.87904761904763	93.01836734693877	81	127
92.87904761904763	93.14607709750567	69	127
93.01836734693877	93.14607709750567	79	127
93.14607709750567	93.28539682539683	78	127
93.14607709750567	93.41310657596372	78	127
93.14607709750567	93.41310657596372	66	127
93.28539682539683	93.41310657596372	76	127
93.42471655328798	93.56403628117914	74	127
93.56403628117914	93.65691609977324	72	127
93.65691609977324	93.74977324263038	71	127
93.74977324263038	93.8891156462585	69	127
93.8891156462585	94.0168253968254	67	127
94.0168253968254	94.14453514739229	66	127
94.14453514739229	94.27224489795918	83	127
94.14453514739229	94.39995464852608	71	127
94.14453514739229	94.59732426303854	83	127
94.27224489795918	94.41156462585035	81	127
94.41156462585035	94.5508843537415	79	127
94.41156462585035	94.67859410430839	67	127
94.5508843537415	94.67859410430839	78	127
94.67859410430839	94.81791383219955	76	127
94.67859410430839	94.92240362811792	76	127
94.67859410430839	94.92240362811792	64	127
94.81791383219955	94.92240362811792	74	127
94.93401360544217	95.41002267573697	81	127
94.93401360544217	95.22426303854876	69	127
94.93401360544217	95.07333333333334	81	127
95.07333333333334	95.22426303854876	79	127
95.22426303854876	95.3635827664399	78	127
95.22426303854876	95.4912925170068	66	127
95.3635827664399	95.50290249433107	76	127
95.50290249433107	95.65383219954649	74	127
95.50290249433107	95.61900226757369	74	127
95.50290249433107	95.65383219954649	62	127
95.61900226757369	95.65383219954649	73	127
95.65383219954649	95.75832199546485	71	127
95.75832199546485	95.88603174603175	69	127
95.88603174603175	96.01374149659864	67	127
96.01374149659864	96.14145124716553	66	127
96.14145124716553	96.26916099773243	64	127
96.26916099773243	96.3736507936508	62	127
96.38526077097505	96.52458049886621	79	127
96.38526077097505	96.65229024943311	67	127
96.52458049886621	96.65229024943311	78	127
96.65229024943311	96.79160997732426	76	127
96.65229024943311	96.91931972789115	64	127
96.79160997732426	96.93092970521542	74	127
96.93092970521542	97.03541950113379	73	127
96.93092970521542	97.16312925170068	61	127
97.03541950113379	97.16312925170068	71	127
97.16312925170068	97.29083900226757	69	127
97.16312925170068	97.29083900226757	69	127
97.16312925170068	97.4069387755102	57	127
97.29083900226757	97.41854875283447	67	127
97.29083900226757	97.41854875283447	67	127
97.41854875283447	97.56947845804989	66	127
97.41854875283447	97.56947845804989	66	127
97.41854875283447	97.67396825396825	66	127
97.56947845804989	97.67396825396825	64	127
97.56947845804989	97.67396825396825	64	127
97.67396825396825	97.82489795918367	62	127
97.67396825396825	97.82489795918367	62	127
97.67396825396825	97.95260770975057	62	127
97.82489795918367	97.96421768707484	61	127
97.82489795918367	97.96421768707484	61	127
97.96421768707484	98.10353741496598	59	127
97.96421768707484	98.10353741496598	59	127
97.96421768707484	98.23124716553288	59	127
98.10353741496598	98.23124716553288	57	127
98.10353741496598	98.23124716553288	57	127
98.23124716553288	98.48666666666666	55	127
98.23124716553288	98.35895691609977	55	127
98.23124716553288	98.35895691609977	55	127
98.35895691609977	98.49827664399093	54	127
98.49827664399093	98.66081632653061	52	127
98.49827664399093	98.77691609977325	52	127
98.66081632653061	98.77691609977325	50	127
98.77691609977325	99.04394557823129	49	127
98.77691609977325	99.04394557823129	49	127
99.56639455782313	99.87986394557824	48	127
99.56639455782313	99.94952380952381	48	127
99.56639455782313	99.94952380952381	48	127
99.94952380952381	101.01764172335601	48	127
99.94952380952381	101.01764172335601	48	127
101.01764172335601	101.21501133786848	64	127
101.01764172335601	103.31641723356009	48	127
101.01764172335601	103.31641723356009	48	127
101.21501133786848	101.458820861678	57	127
101.458820861678	101.66780045351474	64	127
101.66780045351474	101.93482993197279	69	127
101.66780045351474	102.38761904761905	66	127
101.93482993197279	102.20185941043084	62	127
102.20185941043084	102.46888888888888	69	127
102.48049886621315	102.7475283446712	64	127
102.48049886621315	103.21192743764172	72	127
102.7475283446712	103.03777777777778	57	127
103.03777777777778	103.31641723356009	64	127
103.31641723356009	105.31333333333333	48	127
103.31641723356009	103.5950566893424	74	127
103.31641723356009	104.01301587301587	66	127
103.31641723356009	104.77927437641723	48	127
103.5950566893424	103.82725623582766	69	127
103.82725623582766	104.09428571428572	74	127
104.10589569160997	104.91859410430838	57	127
104.10589569160997	104.37292517006803	64	127
104.10589569160997	104.91859410430838	64	127
104.10589569160997	105.18562358276644	81	127
104.37292517006803	104.65156462585034	57	127
104.65156462585034	104.91859410430838	64	127
104.91859410430838	105.6384126984127	48	127
104.91859410430838	105.18562358276644	63	127
104.91859410430838	105.35977324263038	66	127
104.91859410430838	105.35977324263038	63	127
105.18562358276644	105.4526530612245	57	127
105.18562358276644	105.4526530612245	78	127
105.4526530612245	105.71968253968254	63	127
105.4526530612245	105.71968253968254	81	127
105.7312925170068	105.83578231292518	74	127
105.7312925170068	106.14925170068027	62	127
105.7312925170068	106.14925170068027	47	127
105.7312925170068	106.23052154195011	86	127
105.83578231292518	105.96349206349207	72	127
105.96349206349207	106.10281179138322	71	127
106.10281179138322	106.23052154195011	69	127
106.23052154195011	106.30018140589569	67	127
106.23052154195011	106.38145124716553	79	127
106.30018140589569	106.38145124716553	66	127
106.3930612244898	106.53238095238095	72	127
106.3930612244898	106.84585034013605	45	127
106.3930612244898	106.93873015873015	84	127
106.53238095238095	106.66009070294784	71	127
106.66009070294784	106.799410430839	69	127
106.799410430839	106.93873015873015	67	127
106.93873015873015	107.07804988662132	66	127
106.93873015873015	107.08965986394558	78	127
107.07804988662132	107.08965986394558	64	127
107.08965986394558	107.21736961451248	62	127
107.21736961451248	107.34507936507937	60	127
107.34507936507937	107.47278911564626	59	127
107.47278911564626	107.60049886621316	57	127
107.60049886621316	107.7398185941043	55	127
107.7398185941043	107.8675283446712	54	127
107.87913832199547	108.32031746031745	43	127
107.87913832199547	108.01845804988662	71	127
107.87913832199547	108.41319727891157	83	127
108.01845804988662	108.14616780045351	69	127
108.14616780045351	108.2738775510204	67	127
108.2738775510204	108.41319727891157	66	127
108.41319727891157	108.55251700680272	64	127
108.41319727891157	108.68022675736961	76	127
108.55251700680272	108.68022675736961	62	127
108.68022675736961	109.12140589569161	42	127
108.68022675736961	108.81954648526077	69	127
108.68022675736961	109.20267573696145	81	127
108.81954648526077	108.9356462585034	67	127
108.9356462585034	109.07496598639456	66	127
109.07496598639456	109.20267573696145	64	127
109.20267573696145	109.3419954648526	62	127
109.20267573696145	109.44648526077097	74	127
109.3419954648526	109.45809523809524	61	127
109.45809523809524	109.59741496598639	59	127
109.59741496598639	109.70190476190476	57	127
109.70190476190476	109.82961451247165	55	127
109.82961451247165	109.95732426303854	54	127
109.95732426303854	110.0966439909297	52	127
110.0966439909297	110.1895238095238	50	127
110.1895238095238	110.41011337868481	40	127
110.1895238095238	110.29401360544217	79	127
110.1895238095238	110.29401360544217	91	127
110.1895238095238	110.41011337868481	79	127
110.1895238095238	110.41011337868481	67	127
110.1895238095238	110.41011337868481	67	127
110.29401360544217	110.42172335600907	90	127
110.29401360544217	110.42172335600907	78	127
110.42172335600907	110.56104308390023	76	127
110.42172335600907	110.56104308390023	88	127
110.42172335600907	110.6307029478458	76	127
110.42172335600907	110.6307029478458	64	127
110.42172335600907	110.6307029478458	64	127
110.56104308390023	110.6307029478458	74	127
110.56104308390023	110.6307029478458	86	127
110.6307029478458	110.7584126984127	73	127
110.6307029478458	110.7584126984127	85	127
110.6307029478458	110.8512925170068	61	127
110.6307029478458	110.8512925170068	61	127
110.6307029478458	110.8512925170068	73	127
110.7584126984127	110.8512925170068	71	127
110.7584126984127	110.8512925170068	83	127
110.86290249433107	111.14154195011338	69	127
110.86290249433107	111.00222222222222	81	127
110.86290249433107	111.00222222222222	69	127
110.86290249433107	111.14154195011338	57	127
110.86290249433107	111.14154195011338	57	127
111.00222222222222	111.14154195011338	79	127
111.00222222222222	111.14154195011338	67	127
111.14154195011338	111.26925170068027	78	127
111.14154195011338	111.26925170068027	66	127
111.14154195011338	111.33891156462585	66	127
111.14154195011338	111.26925170068027	66	127
111.14154195011338	111.33891156462585	54	127
111.26925170068027	111.35052154195012	64	127
111.26925170068027	111.35052154195012	76	127
111.26925170068027	111.33891156462585	64	127
111.35052154195012	111.58272108843538	62	127
111.35052154195012	111.46662131519274	62	127
111.35052154195012	111.47823129251701	74	127
111.35052154195012	111.47823129251701	62	127
111.35052154195012	111.58272108843538	50	127
111.47823129251701	111.58272108843538	73	127
111.47823129251701	111.58272108843538	61	127
111.47823129251701	111.58272108843538	61	127
111.58272108843538	111.72204081632653	71	127
111.58272108843538	111.83814058956916	59	127
111.58272108843538	111.72204081632653	59	127
111.58272108843538	111.72204081632653	59	127
111.58272108843538	111.83814058956916	47	127
111.72204081632653	111.84975056689342	69	127
111.72204081632653	111.83814058956916	57	127
111.84975056689342	111.97746031746031	67	127
111.84975056689342	111.96585034013606	55	127
111.84975056689342	112.09356009070295	55	127
111.84975056689342	112.09356009070295	43	127
111.97746031746031	112.09356009070295	54	127
111.97746031746031	112.09356009070295	66	127
112.09356009070295	112.360589569161	40	127
112.09356009070295	112.24448979591837	52	127
112.09356009070295	112.24448979591837	64	127
112.09356009070295	112.360589569161	52	127
112.24448979591837	112.360589569161	62	127
112.24448979591837	112.360589569161	50	127
112.37219954648526	112.65083900226757	61	127
112.37219954648526	112.65083900226757	49	127
112.37219954648526	112.65083900226757	49	127
112.37219954648526	112.65083900226757	37	127
113.15006802721088	113.4287074829932	60	127
113.15006802721088	113.4287074829932	48	127
113.15006802721088	113.4287074829932	48	127
113.15006802721088	113.4287074829932	36	127
113.15006802721088	113.66090702947845	60	127
113.15006802721088	113.66090702947845	48	127
113.66090702947845	114.5548752834467	60	127
113.66090702947845	114.5548752834467	48	127
114.5548752834467	115.76231292517006	57	127
114.5548752834467	115.76231292517006	64	127
114.5548752834467	115.76231292517006	48	127
114.5548752834467	116.66789115646259	60	127
115.29791383219954	116.51696145124717	69	127
115.29791383219954	116.51696145124717	76	127
116.66789115646259	118.64158730158731	60	127
117.41092970521542	118.79251700680273	69	127
117.41092970521542	118.79251700680273	76	127
117.41092970521542	118.79251700680273	72	127
119.09437641723356	119.22208616780046	76	127
119.09437641723356	119.22208616780046	72	127
119.09437641723356	119.22208616780046	69	127
119.23369614512471	119.3614058956916	76	127
119.23369614512471	119.3614058956916	72	127
119.23369614512471	119.3614058956916	69	127
119.37301587301587	119.50072562358277	76	127
119.37301587301587	119.50072562358277	72	127
119.37301587301587	119.50072562358277	69	127
119.50072562358277	119.64004535147393	76	127
119.50072562358277	119.64004535147393	72	127
119.50072562358277	119.64004535147393	69	127
119.64004535147393	119.74453514739228	76	127
119.64004535147393	119.74453514739228	72	127
119.64004535147393	119.74453514739228	69	127
119.75614512471655	119.86063492063492	76	127
119.75614512471655	119.86063492063492	72	127
119.75614512471655	119.86063492063492	69	127
119.87224489795918	119.98834467120182	81	127
119.87224489795918	119.98834467120182	72	127
119.87224489795918	119.98834467120182	64	127
119.98834467120182	120.04639455782313	72	127
119.98834467120182	120.04639455782313	81	127
119.98834467120182	120.04639455782313	64	127
120.04639455782313	120.17410430839003	76	127
120.04639455782313	120.17410430839003	72	127
120.04639455782313	120.17410430839003	69	127
120.18571428571428	120.31342403628118	76	127
120.18571428571428	120.31342403628118	72	127
120.18571428571428	120.31342403628118	69	127
120.32503401360545	120.45274376417234	76	127
120.32503401360545	120.45274376417234	72	127
120.32503401360545	120.45274376417234	69	127
120.45274376417234	120.56884353741496	76	127
120.45274376417234	120.56884353741496	72	127
120.45274376417234	120.56884353741496	69	127
120.56884353741496	120.60367346938776	78	127
120.56884353741496	120.60367346938776	74	127
120.56884353741496	120.60367346938776	62	127
120.61528344671201	120.7429931972789	78	127
120.61528344671201	120.7429931972789	74	127
120.61528344671201	120.7429931972789	62	127
120.75460317460318	120.88231292517007	76	127
120.75460317460318	120.88231292517007	72	127
120.75460317460318	120.88231292517007	69	127
120.88231292517007	121.01002267573696	76	127
120.88231292517007	121.01002267573696	72	127
120.88231292517007	121.01002267573696	69	127
121.01002267573696	121.13773242630386	76	127
121.01002267573696	121.13773242630386	72	127
121.01002267573696	121.13773242630386	69	127
121.14934240362811	121.277052154195	76	127
121.14934240362811	121.277052154195	72	127
121.14934240362811	121.277052154195	69	127
121.277052154195	121.54408163265306	69	127
121.277052154195	121.4047619047619	76	127
121.277052154195	121.4047619047619	72	127
121.277052154195	121.4047619047619	57	127
121.4047619047619	121.54408163265306	57	127
121.4047619047619	121.54408163265306	74	127
121.4047619047619	121.54408163265306	71	127
121.54408163265306	121.67179138321995	72	127
121.54408163265306	121.67179138321995	69	127
121.54408163265306	121.67179138321995	57	127
121.67179138321995	121.78789115646258	71	127
121.67179138321995	121.78789115646258	67	127
121.67179138321995	121.78789115646258	57	127
121.79950113378685	121.92721088435374	66	127
121.79950113378685	121.92721088435374	69	127
121.79950113378685	121.92721088435374	57	127
121.92721088435374	122.05492063492063	57	127
121.92721088435374	122.05492063492063	64	127
121.92721088435374	122.05492063492063	67	127
122.05492063492063	122.17102040816326	62	127
122.05492063492063	122.17102040816326	50	127
122.05492063492063	122.17102040816326	66	127
122.05492063492063	122.17102040816326	62	127
122.05492063492063	122.29873015873015	62	127
122.18263038548753	122.29873015873015	50	127
122.18263038548753	122.29873015873015	66	127
122.18263038548753	122.29873015873015	62	127
122.18263038548753	122.29873015873015	69	127
122.31034013605442	122.43804988662131	74	127
122.31034013605442	122.43804988662131	74	127
122.31034013605442	122.43804988662131	66	127
122.31034013605442	122.43804988662131	57	127
122.31034013605442	122.43804988662131	50	127
122.43804988662131	122.56575963718821	72	127
122.43804988662131	122.56575963718821	69	127
122.43804988662131	122.56575963718821	74	127
122.43804988662131	122.56575963718821	57	127
122.43804988662131	122.56575963718821	50	127
122.56575963718821	122.61219954648526	74	127
122.56575963718821	122.61219954648526	71	127
122.56575963718821	122.61219954648526	67	127
122.56575963718821	122.61219954648526	57	127
122.56575963718821	122.61219954648526	50	127
122.62380952380953	122.71668934240363	66	127
122.62380952380953	122.71668934240363	74	127
122.62380952380953	122.71668934240363	69	127
122.62380952380953	122.71668934240363	57	127
122.62380952380953	122.71668934240363	50	127
122.71668934240363	122.83278911564626	59	127
122.71668934240363	122.96049886621316	67	127
122.71668934240363	122.83278911564626	55	127
122.71668934240363	122.83278911564626	74	127
122.71668934240363	122.83278911564626	67	127
122.83278911564626	122.96049886621316	55	127
122.83278911564626	122.96049886621316	74	127
122.83278911564626	122.96049886621316	71	127
122.83278911564626	122.96049886621316	59	127
122.96049886621316	123.07659863945578	74	127
122.96049886621316	123.07659863945578	74	127
122.96049886621316	123.07659863945578	66	127
122.96049886621316	123.07659863945578	57	127
122.96049886621316	123.07659863945578	50	127
123.08820861678005	123.19269841269842	72	127
123.08820861678005	123.19269841269842	74	127
123.08820861678005	123.19269841269842	74	127
123.08820861678005	123.19269841269842	72	127
123.08820861678005	123.19269841269842	57	127
123.08820861678005	123.19269841269842	50	127
123.20430839002267	123.27396825396825	76	127
123.20430839002267	123.27396825396825	71	127
123.20430839002267	123.27396825396825	74	127
123.20430839002267	123.27396825396825	72	127
123.20430839002267	123.27396825396825	57	127
123.20430839002267	123.27396825396825	50	127
123.27396825396825	123.39006802721089	78	127
123.27396825396825	123.39006802721089	69	127
123.27396825396825	123.39006802721089	74	127
123.27396825396825	123.39006802721089	72	127
123.27396825396825	123.39006802721089	57	127
123.27396825396825	123.39006802721089	50	127
123.39006802721089	123.51777777777778	71	127
123.39006802721089	123.51777777777778	79	127
123.39006802721089	123.51777777777778	67	127
123.39006802721089	123.51777777777778	52	127
123.39006802721089	123.64548752834467	71	127
123.51777777777778	123.64548752834467	71	127
123.51777777777778	123.64548752834467	67	127
123.51777777777778	123.64548752834467	55	127
123.51777777777778	123.64548752834467	52	127
123.51777777777778	123.64548752834467	83	127
123.65709750566893	123.7615873015873	86	127
123.65709750566893	123.7615873015873	74	127
123.65709750566893	123.7615873015873	74	127
123.65709750566893	123.7615873015873	66	127
123.65709750566893	123.7615873015873	57	127
123.65709750566893	123.7615873015873	50	127
123.77319727891157	123.88929705215419	86	127
123.77319727891157	123.88929705215419	74	127
123.77319727891157	123.88929705215419	72	127
123.77319727891157	123.88929705215419	66	127
123.77319727891157	123.88929705215419	57	127
123.77319727891157	123.88929705215419	50	127
123.88929705215419	124.01700680272108	86	127
123.88929705215419	124.01700680272108	74	127
123.88929705215419	124.01700680272108	71	127
123.88929705215419	124.01700680272108	66	127
123.88929705215419	124.01700680272108	57	127
123.88929705215419	124.01700680272108	50	127
124.01700680272108	124.12149659863945	86	127
124.01700680272108	124.12149659863945	74	127
124.01700680272108	124.12149659863945	69	127
124.01700680272108	124.12149659863945	50	127
124.01700680272108	124.12149659863945	66	127
124.01700680272108	124.12149659863945	57	127
124.12149659863945	124.34208616780046	67	127
124.12149659863945	124.23759637188209	91	127
124.12149659863945	124.23759637188209	79	127
124.12149659863945	124.23759637188209	67	127
124.12149659863945	124.23759637188209	52	127
124.24920634920635	124.34208616780046	91	127
124.24920634920635	124.34208616780046	55	127
124.24920634920635	124.34208616780046	52	127
124.24920634920635	124.34208616780046	71	127
124.24920634920635	124.34208616780046	79	127
124.35369614512472	124.42335600907029	50	127
124.35369614512472	124.42335600907029	74	127
124.35369614512472	124.42335600907029	74	127
124.35369614512472	124.42335600907029	66	127
124.35369614512472	124.42335600907029	57	127
124.35369614512472	124.42335600907029	86	127
124.42335600907029	124.55106575963718	66	127
124.42335600907029	124.55106575963718	86	127
124.42335600907029	124.55106575963718	74	127
124.42335600907029	124.55106575963718	74	127
124.42335600907029	124.55106575963718	57	127
124.42335600907029	124.55106575963718	48	127
124.55106575963718	124.67877551020408	86	127
124.55106575963718	124.67877551020408	74	127
124.55106575963718	124.67877551020408	74	127
124.55106575963718	124.67877551020408	66	127
124.55106575963718	124.67877551020408	57	127
124.55106575963718	124.67877551020408	47	127
124.69038548752835	124.79487528344671	86	127
124.69038548752835	124.79487528344671	74	127
124.69038548752835	124.79487528344671	74	127
124.69038548752835	124.79487528344671	66	127
124.69038548752835	124.79487528344671	57	127
124.69038548752835	124.79487528344671	45	127
124.79487528344671	124.91097505668934	88	127
124.79487528344671	124.91097505668934	76	127
124.79487528344671	124.91097505668934	71	127
124.79487528344671	124.91097505668934	59	127
124.79487528344671	124.91097505668934	43	127
124.79487528344671	125.02707482993198	67	127
124.91097505668934	125.02707482993198	76	127
124.91097505668934	125.02707482993198	71	127
124.91097505668934	125.02707482993198	55	127
124.91097505668934	125.02707482993198	47	127
124.91097505668934	125.02707482993198	88	127
125.02707482993198	125.15478458049887	86	127
125.02707482993198	125.15478458049887	74	127
125.02707482993198	125.15478458049887	69	127
125.02707482993198	125.15478458049887	66	127
125.02707482993198	125.15478458049887	50	127
125.16639455782312	125.25927437641724	86	127
125.16639455782312	125.25927437641724	74	127
125.16639455782312	125.25927437641724	69	127
125.16639455782312	125.25927437641724	66	127
125.16639455782312	125.25927437641724	50	127
125.2708843537415	125.39859410430839	86	127
125.2708843537415	125.39859410430839	74	127
125.2708843537415	125.39859410430839	69	127
125.2708843537415	125.39859410430839	66	127
125.2708843537415	125.39859410430839	50	127
125.39859410430839	125.50308390022676	86	127
125.39859410430839	125.50308390022676	74	127
125.39859410430839	125.50308390022676	69	127
125.39859410430839	125.50308390022676	66	127
125.39859410430839	125.50308390022676	50	127
125.50308390022676	125.6191836734694	52	127
125.50308390022676	125.6191836734694	79	127
125.50308390022676	125.72367346938775	67	127
125.50308390022676	125.6191836734694	67	127
125.50308390022676	125.6191836734694	91	127
125.6191836734694	125.72367346938775	52	127
125.6191836734694	125.72367346938775	91	127
125.6191836734694	125.72367346938775	79	127
125.6191836734694	125.72367346938775	71	127
125.6191836734694	125.72367346938775	55	127
125.73528344671202	125.85138321995466	66	127
125.73528344671202	125.85138321995466	86	127
125.73528344671202	125.85138321995466	74	127
125.73528344671202	125.85138321995466	74	127
125.73528344671202	125.85138321995466	57	127
125.73528344671202	125.85138321995466	50	127
125.86299319727891	125.96748299319728	86	127
125.86299319727891	125.96748299319728	74	127
125.86299319727891	125.96748299319728	74	127
125.86299319727891	125.96748299319728	66	127
125.86299319727891	125.96748299319728	57	127
125.86299319727891	125.96748299319728	48	127
125.96748299319728	126.09519274376417	86	127
125.96748299319728	126.09519274376417	74	127
125.96748299319728	126.09519274376417	74	127
125.96748299319728	126.09519274376417	66	127
125.96748299319728	126.09519274376417	57	127
125.96748299319728	126.09519274376417	47	127
126.09519274376417	126.2112925170068	74	127
126.09519274376417	126.2112925170068	86	127
126.09519274376417	126.2112925170068	74	127
126.09519274376417	126.2112925170068	66	127
126.09519274376417	126.2112925170068	57	127
126.09519274376417	126.2112925170068	45	127
126.22290249433107	126.45510204081633	72	127
126.22290249433107	126.33900226757369	88	127
126.22290249433107	126.45510204081633	55	127
126.22290249433107	126.33900226757369	76	127
126.22290249433107	126.33900226757369	76	127
126.22290249433107	126.33900226757369	43	127
126.33900226757369	126.45510204081633	48	127
126.33900226757369	126.45510204081633	88	127
126.33900226757369	126.45510204081633	84	127
126.33900226757369	126.45510204081633	76	127
126.45510204081633	126.58281179138322	76	127
126.45510204081633	126.58281179138322	88	127
126.45510204081633	126.58281179138322	84	127
126.45510204081633	126.58281179138322	52	127
126.45510204081633	126.58281179138322	52	127
126.59442176870748	126.71052154195011	88	127
126.59442176870748	126.71052154195011	84	127
126.59442176870748	126.71052154195011	55	127
126.59442176870748	126.71052154195011	76	127
126.72213151927437	126.82662131519274	88	127
126.72213151927437	126.82662131519274	84	127
126.72213151927437	126.82662131519274	60	127
126.72213151927437	126.82662131519274	76	127
126.82662131519274	126.9659410430839	84	127
126.82662131519274	126.89628117913833	36	127
126.82662131519274	126.9659410430839	88	127
126.82662131519274	126.9659410430839	64	127
126.82662131519274	126.9659410430839	67	127
126.82662131519274	127.08204081632653	64	127
126.82662131519274	127.08204081632653	48	127
126.9659410430839	127.08204081632653	64	127
126.9659410430839	127.08204081632653	84	127
126.9659410430839	127.08204081632653	88	127
126.9659410430839	127.08204081632653	67	127
126.9659410430839	127.08204081632653	43	127
127.08204081632653	127.20975056689342	88	127
127.08204081632653	127.20975056689342	84	127
127.08204081632653	127.20975056689342	48	127
127.08204081632653	127.20975056689342	64	127
127.08204081632653	127.20975056689342	67	127
127.08204081632653	127.20975056689342	48	127
127.22136054421769	127.32585034013606	88	127
127.22136054421769	127.32585034013606	84	127
127.22136054421769	127.32585034013606	52	127
127.22136054421769	127.32585034013606	64	127
127.22136054421769	127.32585034013606	67	127
127.32585034013606	127.41873015873016	88	127
127.32585034013606	127.41873015873016	84	127
127.32585034013606	127.41873015873016	55	127
127.32585034013606	127.41873015873016	64	127
127.32585034013606	127.41873015873016	67	127
127.41873015873016	127.51160997732427	60	127
127.41873015873016	127.51160997732427	88	127
127.41873015873016	127.51160997732427	84	127
127.41873015873016	127.51160997732427	64	127
127.41873015873016	127.51160997732427	67	127
127.52321995464852	127.65092970521542	88	127
127.52321995464852	127.65092970521542	84	127
127.52321995464852	127.79024943310658	60	127
127.52321995464852	127.79024943310658	60	127
127.52321995464852	127.79024943310658	57	127
127.52321995464852	127.79024943310658	66	127
127.52321995464852	127.79024943310658	38	127
127.52321995464852	127.79024943310658	45	127
127.52321995464852	127.79024943310658	50	127
127.66253968253969	127.79024943310658	86	127
127.66253968253969	127.79024943310658	83	127
127.79024943310658	127.92956916099773	84	127
127.79024943310658	127.92956916099773	81	127
127.92956916099773	128.0340589569161	83	127
127.92956916099773	128.0340589569161	79	127
128.04566893424035	128.17337868480726	81	127
128.04566893424035	128.17337868480726	78	127
128.04566893424035	128.3126984126984	50	127
128.04566893424035	128.3126984126984	62	127
128.04566893424035	128.3126984126984	50	127
128.17337868480726	128.3126984126984	76	127
128.17337868480726	128.3126984126984	79	127
128.3126984126984	128.44040816326532	78	127
128.3126984126984	128.44040816326532	74	127
128.3126984126984	128.71904761904761	62	127
128.3126984126984	128.71904761904761	50	127
128.3126984126984	128.71904761904761	50	127
128.45199546485262	128.55650793650793	76	127
128.45199546485262	128.55650793650793	72	127
128.5681179138322	128.68421768707483	74	127
128.5681179138322	128.68421768707483	71	127
128.68421768707483	128.8119274376417	69	127
128.68421768707483	128.8119274376417	72	127
128.8119274376417	128.93963718820862	71	127
128.8119274376417	128.93963718820862	67	127
128.8119274376417	129.07895691609977	50	127
128.8119274376417	129.07895691609977	62	127
128.8119274376417	129.07895691609977	50	127
128.9512471655329	129.07895691609977	66	127
128.9512471655329	129.07895691609977	69	127
129.1021768707483	129.2298866213152	64	127
129.1021768707483	129.55496598639456	50	127
129.1021768707483	129.2298866213152	67	127
129.1021768707483	129.55496598639456	50	127
129.1021768707483	129.55496598639456	62	127
129.2298866213152	129.3691836734694	66	127
129.2298866213152	129.3691836734694	62	127
129.3691836734694	129.49691609977324	64	127
129.3691836734694	129.49691609977324	61	127
129.5085260770975	129.6362358276644	62	127
129.64784580498866	129.926485260771	62	127
129.64784580498866	129.926485260771	50	127
129.64784580498866	129.926485260771	50	127
129.926485260771	130.4257142857143	62	127
129.926485260771	130.4257142857143	50	127
129.926485260771	130.4257142857143	43	127
130.5185941043084	130.79721088435375	62	127
130.5185941043084	130.79721088435375	50	127
130.5185941043084	130.79721088435375	43	127
130.80884353741496	131.2384126984127	55	127
130.80884353741496	131.2384126984127	50	127
130.80884353741496	131.2384126984127	43	127
131.3080725623583	131.5518820861678	43	127
131.3080725623583	131.5518820861678	50	127
131.3080725623583	131.5518820861678	55	127
131.56349206349208	132.00467120181406	43	127
131.56349206349208	132.00467120181406	50	127
132.10916099773243	132.3761904761905	43	127
132.3761904761905	132.8057596371882	43	127
132.3761904761905	132.62	55	127
132.3761904761905	132.63160997732427	47	127
132.3761904761905	132.8057596371882	55	127
132.63160997732427	132.88702947845806	57	127
132.63160997732427	132.88702947845806	48	127
132.88702947845806	133.1192290249433	50	127
132.88702947845806	133.1192290249433	59	127
132.88702947845806	133.1192290249433	55	127
132.88702947845806	133.1192290249433	43	127
133.13083900226758	133.57201814058956	55	127
133.13083900226758	133.57201814058956	43	127
133.13083900226758	133.83904761904762	60	127
133.13083900226758	133.83904761904762	52	127
133.66487528344672	133.93192743764172	43	127
133.66487528344672	133.93192743764172	55	127
133.93192743764172	134.67496598639457	59	127
133.93192743764172	134.38471655328797	55	127
133.93192743764172	134.38471655328797	43	127
133.93192743764172	134.67496598639457	50	127
134.4775963718821	134.76784580498867	43	127
134.4775963718821	134.76784580498867	55	127
134.77945578231294	135.03487528344672	48	127
134.77945578231294	135.20902494331065	43	127
134.77945578231294	135.20902494331065	55	127
134.77945578231294	135.03487528344672	57	127
135.03487528344672	135.2902947845805	50	127
135.03487528344672	135.2902947845805	59	127
135.2902947845805	135.53410430839003	43	127
135.2902947845805	135.53410430839003	55	127
135.2902947845805	135.53410430839003	57	127
135.2902947845805	135.53410430839003	48	127
135.53410430839003	135.98689342403628	47	127
135.53410430839003	135.98689342403628	55	127
135.53410430839003	135.98689342403628	55	127
135.53410430839003	135.98689342403628	43	127
136.09138321995465	136.34680272108844	50	127
136.09138321995465	136.34680272108844	59	127
136.09138321995465	136.34680272108844	55	127
136.09138321995465	136.34680272108844	43	127
136.3584126984127	136.77637188208618	42	127
136.3584126984127	136.77637188208618	57	127
136.3584126984127	136.77637188208618	50	127
136.3584126984127	137.0434013605442	62	127
136.86925170068028	137.13625850340136	57	127
136.86925170068028	137.13625850340136	50	127
136.86925170068028	137.13625850340136	42	127
137.13625850340136	137.57746031746032	48	127
137.13625850340136	137.39167800453515	62	127
137.13625850340136	137.57746031746032	50	127
137.13625850340136	137.57746031746032	57	127
137.40331065759636	137.64709750566894	64	127
137.64709750566894	137.91414965986394	57	127
137.64709750566894	137.91414965986394	66	127
137.64709750566894	137.91414965986394	62	127
137.64709750566894	137.91414965986394	48	127
137.9257596371882	138.401768707483	55	127
137.9257596371882	138.401768707483	62	127
137.9257596371882	138.401768707483	47	127
137.9257596371882	138.6804081632653	67	127
138.50625850340137	138.77326530612245	47	127
138.50625850340137	138.77326530612245	55	127
138.50625850340137	138.77326530612245	50	127
138.77326530612245	139.44666666666666	62	127
138.77326530612245	139.16802721088436	62	127
138.77326530612245	139.16802721088436	54	127
138.77326530612245	139.16802721088436	45	127
139.26090702947846	139.5395238095238	54	127
139.26090702947846	139.5395238095238	50	127
139.26090702947846	139.5395238095238	45	127
139.55115646258503	140.02716553287982	55	127
139.55115646258503	140.02716553287982	43	127
139.55115646258503	139.62081632653062	59	127
139.55115646258503	140.02716553287982	50	127
139.62081632653062	139.6904761904762	60	127
139.6904761904762	139.81818594104308	59	127
139.81818594104308	140.10843537414965	57	127
140.1316553287982	140.4451247165533	59	127
140.1316553287982	140.4451247165533	50	127
140.1316553287982	140.4451247165533	55	127
140.1316553287982	140.4451247165533	43	127
140.4451247165533	140.88630385487528	42	127
140.4451247165533	140.88630385487528	57	127
140.4451247165533	140.88630385487528	50	127
140.4451247165533	141.7338321995465	62	127
140.97918367346938	141.21138321995466	50	127
140.97918367346938	141.21138321995466	57	127
140.97918367346938	141.21138321995466	42	127
141.22299319727892	141.65256235827664	45	127
141.22299319727892	141.65256235827664	57	127
141.22299319727892	141.65256235827664	52	127
141.7338321995465	141.94278911564626	45	127
141.7338321995465	141.94278911564626	61	127
141.7338321995465	141.94278911564626	52	127
141.7338321995465	141.94278911564626	57	127
141.94278911564626	142.3956009070295	57	127
141.94278911564626	142.20984126984126	62	127
141.94278911564626	142.22145124716553	54	127
141.94278911564626	142.3956009070295	45	127
142.22145124716553	142.4884807256236	64	127
142.22145124716553	142.4884807256236	55	127
142.4884807256236	142.74390022675738	50	127
142.4884807256236	142.74390022675738	66	127
142.4884807256236	142.74390022675738	57	127
142.4884807256236	142.74390022675738	48	127
142.74390022675738	143.17344671201815	47	127
142.74390022675738	143.02253968253967	62	127
142.74390022675738	143.17344671201815	67	127
142.74390022675738	143.17344671201815	50	127
143.02253968253967	143.25473922902495	59	127
143.25473922902495	143.4869387755102	50	127
143.25473922902495	143.4869387755102	62	127
143.25473922902495	143.4869387755102	55	127
143.25473922902495	143.4869387755102	47	127
143.49854875283447	143.98614512471656	43	127
143.49854875283447	143.56820861678005	59	127
143.49854875283447	143.98614512471656	55	127
143.49854875283447	143.98614512471656	50	127
143.56820861678005	143.63786848072561	60	127
143.63786848072561	143.78879818594103	59	127
143.78879818594103	144.06743764172336	57	127
144.07904761904763	144.31124716553288	55	127
144.07904761904763	144.31124716553288	55	127
144.07904761904763	144.31124716553288	50	127
144.07904761904763	144.31124716553288	43	127
144.31124716553288	144.57827664399093	55	127
144.31124716553288	144.75240362811792	55	127
144.31124716553288	144.75240362811792	40	127
144.31124716553288	144.81047619047618	59	127
144.57827664399093	144.81047619047618	59	127
144.81047619047618	145.06589569160997	55	127
144.81047619047618	145.06589569160997	61	127
144.81047619047618	145.06589569160997	59	127
144.81047619047618	145.06589569160997	40	127
145.10072562358278	146.34297052154196	61	127
145.10072562358278	145.4954648526077	59	127
145.10072562358278	145.4954648526077	52	127
145.10072562358278	145.4954648526077	43	127
145.5883446712018	145.83213151927438	59	127
145.5883446712018	145.83213151927438	52	127
145.5883446712018	145.83213151927438	43	127
145.83213151927438	146.08755102040817	57	127
145.83213151927438	146.26172335600907	57	127
145.83213151927438	146.26172335600907	42	127
146.08755102040817	146.34297052154196	61	127
146.34297052154196	146.61002267573696	57	127
146.34297052154196	146.61002267573696	62	127
146.34297052154196	146.61002267573696	61	127
146.34297052154196	146.61002267573696	42	127
146.62163265306123	147.12086167800453	54	127
146.62163265306123	148.04965986394558	62	127
146.62163265306123	147.12086167800453	61	127
146.62163265306123	147.12086167800453	45	127
147.23696145124717	147.50399092970522	54	127
147.23696145124717	147.50399092970522	61	127
147.23696145124717	147.50399092970522	45	127
147.50399092970522	147.95678004535148	59	127
147.50399092970522	147.95678004535148	43	127
147.50399092970522	147.78263038548752	59	127
147.78263038548752	148.04965986394558	62	127
148.04965986394558	148.33990929705215	43	127
148.04965986394558	148.33990929705215	55	127
148.04965986394558	148.33990929705215	64	127
148.04965986394558	148.33990929705215	62	127
148.04965986394558	148.33990929705215	59	127
148.35151927437641	148.85074829931972	40	127
148.35151927437641	148.66498866213152	64	127
148.35151927437641	148.85074829931972	61	127
148.35151927437641	148.85074829931972	59	127
148.35151927437641	148.85074829931972	55	127
148.66498866213152	148.93201814058958	66	127
148.94362811791385	149.22226757369614	52	127
148.94362811791385	149.22226757369614	67	127
148.94362811791385	149.22226757369614	61	127
148.94362811791385	149.22226757369614	59	127
148.94362811791385	149.22226757369614	40	127
149.22226757369614	149.69827664399094	38	127
149.22226757369614	149.69827664399094	62	127
149.22226757369614	149.69827664399094	59	127
149.22226757369614	149.69827664399094	54	127
149.22226757369614	149.79115646258504	66	127
149.79115646258504	150.0697732426304	62	127
149.79115646258504	150.0697732426304	71	127
149.79115646258504	150.0697732426304	54	127
149.79115646258504	150.0697732426304	50	127
149.79115646258504	150.0697732426304	38	127
150.0814058956916	150.45292517006803	69	127
150.0814058956916	150.68510204081633	57	127
150.0814058956916	150.68510204081633	62	127
150.0814058956916	150.68510204081633	50	127
150.0814058956916	150.68510204081633	42	127
150.45292517006803	150.76639455782313	66	127
150.7780045351474	151.0450113378685	45	127
150.7780045351474	151.0450113378685	62	127
150.7780045351474	151.0450113378685	57	127
150.7780045351474	151.0450113378685	62	127
150.7780045351474	151.0450113378685	42	127
151.0566439909297	151.85773242630387	64	127
151.0566439909297	151.57909297052154	62	127
151.0566439909297	151.57909297052154	45	127
151.0566439909297	151.85773242630387	57	127
151.67197278911564	151.96219954648527	61	127
151.67197278911564	151.96219954648527	45	127
151.96219954648527	152.6936507936508	66	127
151.96219954648527	152.4150113378685	62	127
151.96219954648527	152.4150113378685	38	127
151.96219954648527	152.6936507936508	62	127
151.96219954648527	152.6936507936508	69	127
152.7865306122449	152.9142403628118	57	127
152.7865306122449	152.9142403628118	74	127
152.7865306122449	152.9142403628118	66	127
153.05356009070294	153.5063492063492	62	127
153.05356009070294	153.5063492063492	66	127
153.05356009070294	153.5063492063492	69	127
153.59920634920636	153.7269387755102	55	127
153.59920634920636	153.7269387755102	67	127
153.59920634920636	153.7269387755102	70	127
153.92430839002267	154.36546485260772	69	127
153.92430839002267	154.36546485260772	62	127
153.92430839002267	154.36546485260772	66	127
154.4815873015873	155.16657596371883	57	127
154.4815873015873	154.53963718820862	69	127
154.4815873015873	154.73700680272108	65	127
154.4815873015873	155.16657596371883	53	127
154.4815873015873	155.16657596371883	50	127
154.53963718820862	154.6092970521542	70	127
154.6092970521542	154.73700680272108	69	127
154.73700680272108	154.99242630385487	62	127
154.73700680272108	154.99242630385487	65	127
154.99242630385487	155.24784580498866	64	127
154.99242630385487	155.24784580498866	67	127
155.25945578231293	155.66580498866213	65	127
155.25945578231293	155.38714285714286	53	127
155.25945578231293	155.38714285714286	62	127
155.25945578231293	155.38714285714286	45	127
155.25945578231293	155.66580498866213	69	127
155.5148752834467	155.94444444444446	57	127
155.5148752834467	155.94444444444446	53	127
155.5148752834467	155.94444444444446	50	127
156.01410430839002	156.14181405895692	43	127
156.01410430839002	156.14181405895692	55	127
156.01410430839002	156.14181405895692	58	127
156.28113378684807	156.73392290249433	50	127
156.28113378684807	156.73392290249433	53	127
156.28113378684807	156.73392290249433	57	127
156.82680272108843	157.6278911564626	62	127
156.82680272108843	156.90807256235829	57	127
156.82680272108843	157.6278911564626	46	127
156.82680272108843	157.6278911564626	50	127
156.82680272108843	157.6278911564626	74	127
156.90807256235829	156.97773242630385	58	127
156.97773242630385	157.11705215419502	57	127
157.11705215419502	157.4073015873016	53	127
157.4073015873016	157.7207709750567	55	127
157.7207709750567	158.23160997732427	57	127
157.7207709750567	157.88331065759638	81	127
157.7207709750567	157.88331065759638	73	127
157.7207709750567	157.88331065759638	57	127
157.7207709750567	158.23160997732427	52	127
157.7207709750567	158.23160997732427	45	127
158.0458276643991	158.48702947845806	73	127
158.0458276643991	158.48702947845806	76	127
158.0458276643991	158.48702947845806	69	127
158.57990929705215	158.70761904761906	74	127
158.57990929705215	158.70761904761906	77	127
158.57990929705215	158.70761904761906	62	127
158.8469387755102	159.1255782312925	76	127
158.8469387755102	159.1255782312925	69	127
158.8469387755102	159.1255782312925	73	127
159.20684807256237	159.88022675736963	57	127
159.20684807256237	159.27648526077098	76	127
159.20684807256237	159.47387755102042	72	127
159.20684807256237	159.88022675736963	60	127
159.20684807256237	159.88022675736963	64	127
159.27648526077098	159.34616780045351	78	127
159.34616780045351	159.47387755102042	76	127
159.47387755102042	159.6944671201814	69	127
159.47387755102042	159.6944671201814	72	127
159.6944671201814	159.96149659863946	71	127
159.6944671201814	159.96149659863946	74	127
159.97310657596373	160.72775510204082	76	127
159.97310657596373	160.11242630385487	60	127
159.97310657596373	160.11242630385487	69	127
159.97310657596373	160.11242630385487	52	127
159.97310657596373	160.72775510204082	72	127
160.2633560090703	160.72775510204082	64	127
160.2633560090703	160.72775510204082	60	127
160.2633560090703	160.72775510204082	57	127
160.82063492063492	160.94834467120182	66	127
160.82063492063492	160.94834467120182	78	127
160.82063492063492	160.94834467120182	74	127
160.82063492063492	160.94834467120182	62	127
160.82063492063492	160.94834467120182	50	127
161.08766439909297	161.50562358276645	64	127
161.08766439909297	161.50562358276645	76	127
161.08766439909297	161.50562358276645	72	127
161.08766439909297	161.50562358276645	60	127
161.08766439909297	161.50562358276645	57	127
161.61011337868482	162.66662131519274	45	127
161.61011337868482	161.8771201814059	76	127
161.61011337868482	161.8771201814059	72	127
161.61011337868482	162.66662131519274	60	127
161.8771201814059	162.15578231292517	69	127
161.8771201814059	162.15578231292517	72	127
162.15578231292517	162.42281179138322	67	127
162.15578231292517	162.42281179138322	71	127
162.42281179138322	163.45609977324264	66	127
162.42281179138322	163.45609977324264	69	127
162.66662131519274	162.9336507936508	57	127
162.66662131519274	162.9336507936508	42	127
162.9336507936508	163.18907029478459	55	127
162.9336507936508	163.18907029478459	40	127
163.20068027210885	164.28038548752835	38	127
163.20068027210885	164.28038548752835	54	127
163.45609977324264	163.73473922902494	67	127
163.45609977324264	163.73473922902494	71	127
163.73473922902494	164.001768707483	72	127
163.73473922902494	164.001768707483	69	127
164.001768707483	164.28038548752835	74	127
164.001768707483	164.28038548752835	71	127
164.28038548752835	164.52421768707484	55	127
164.28038548752835	164.52421768707484	71	127
164.28038548752835	164.52421768707484	67	127
164.28038548752835	164.52421768707484	40	127
164.52421768707484	164.77963718820862	57	127
164.52421768707484	164.76802721088436	69	127
164.52421768707484	164.76802721088436	66	127
164.52421768707484	164.77963718820862	42	127
164.77963718820862	165.83614512471655	67	127
164.77963718820862	165.0350566893424	59	127
164.77963718820862	165.0350566893424	43	127
164.77963718820862	165.83614512471655	64	127
165.0350566893424	165.32530612244898	40	127
165.0350566893424	165.32530612244898	55	127
165.32530612244898	165.5691156462585	54	127
165.32530612244898	165.5691156462585	38	127
165.5691156462585	166.2773015873016	52	127
165.5691156462585	166.2773015873016	36	127
165.83614512471655	166.1031746031746	66	127
165.83614512471655	166.1031746031746	69	127
166.1031746031746	166.3585941043084	71	127
166.1031746031746	166.3585941043084	67	127
166.37020408163266	166.91587301587302	69	127
166.37020408163266	166.62562358276645	52	127
166.37020408163266	166.62562358276645	36	127
166.37020408163266	166.91587301587302	72	127
166.62562358276645	166.91587301587302	54	127
166.62562358276645	166.91587301587302	38	127
166.91587301587302	167.44990929705216	55	127
166.91587301587302	167.19448979591837	71	127
166.91587301587302	167.19448979591837	67	127
166.91587301587302	167.44990929705216	40	127
167.19448979591837	167.72857142857143	76	127
167.19448979591837	167.72857142857143	72	127
167.44990929705216	167.72857142857143	57	127
167.44990929705216	167.72857142857143	42	127
167.72857142857143	168.27424036281178	59	127
167.72857142857143	168.00721088435375	74	127
167.72857142857143	168.00721088435375	71	127
167.72857142857143	168.27424036281178	43	127
168.018820861678	168.5528798185941	79	127
168.018820861678	168.5528798185941	76	127
168.27424036281178	168.5528798185941	60	127
168.27424036281178	168.5528798185941	45	127
168.5528798185941	169.08691609977325	62	127
168.5528798185941	168.8082993197279	78	127
168.5528798185941	168.8082993197279	74	127
168.5528798185941	169.08691609977325	47	127
168.8082993197279	169.09854875283446	76	127
168.8082993197279	169.09854875283446	72	127
169.09854875283446	169.4004081632653	74	127
169.09854875283446	169.4004081632653	71	127
169.09854875283446	169.63260770975057	64	127
169.09854875283446	169.63260770975057	48	127
169.4004081632653	169.72548752834467	69	127
169.4004081632653	169.72548752834467	72	127
169.72548752834467	170.01573696145124	48	127
169.72548752834467	170.0273469387755	71	127
169.72548752834467	170.0273469387755	67	127
169.72548752834467	170.01573696145124	64	127
170.0273469387755	170.99097505668934	49	127
170.0273469387755	170.39886621315193	69	127
170.0273469387755	170.39886621315193	66	127
170.0273469387755	170.5962358276644	57	127
170.39886621315193	170.6891156462585	67	127
170.39886621315193	170.6891156462585	64	127
170.6891156462585	170.99097505668934	66	127
170.6891156462585	170.99097505668934	57	127
170.6891156462585	170.99097505668934	57	127
170.99097505668934	171.5018140589569	50	127
170.99097505668934	171.30444444444444	64	127
170.99097505668934	171.5018140589569	60	127
170.99097505668934	171.5018140589569	54	127
171.30444444444444	171.60630385487528	62	127
171.60630385487528	172.00102040816327	43	127
171.60630385487528	171.82689342403629	59	127
171.60630385487528	171.83850340136055	55	127
171.60630385487528	171.83850340136055	47	127
171.60630385487528	172.6395918367347	67	127
171.83850340136055	172.08231292517007	57	127
171.83850340136055	172.08231292517007	48	127
171.83850340136055	172.08231292517007	57	127
172.08231292517007	172.34934240362813	43	127
172.08231292517007	172.34934240362813	55	127
172.08231292517007	172.34934240362813	59	127
172.08231292517007	172.34934240362813	50	127
172.36092970521543	173.18526077097505	60	127
172.36092970521543	172.8253514739229	55	127
172.36092970521543	172.8253514739229	43	127
172.36092970521543	173.18526077097505	52	127
172.6395918367347	172.91823129251702	69	127
172.91823129251702	173.18526077097505	43	127
172.91823129251702	173.18526077097505	71	127
173.18526077097505	175.01961451247166	67	127
173.18526077097505	173.6728798185941	43	127
173.18526077097505	173.9515192743764	59	127
173.18526077097505	173.9515192743764	50	127
173.7657596371882	174.04437641723356	43	127
174.05600907029478	174.3578684807256	57	127
174.05600907029478	174.3578684807256	48	127
174.05600907029478	174.53201814058957	43	127
174.3578684807256	174.6132879818594	59	127
174.3578684807256	174.6132879818594	50	127
174.6132879818594	174.8687074829932	57	127
174.6132879818594	174.8687074829932	48	127
174.6132879818594	174.8687074829932	43	127
174.88031746031746	175.43759637188208	55	127
174.88031746031746	175.1473469387755	47	127
174.88031746031746	175.34471655328798	43	127
175.1473469387755	175.43759637188208	71	127
175.1473469387755	175.43759637188208	50	127
175.43759637188208	175.68138321995465	43	127
175.43759637188208	175.68138321995465	59	127
175.43759637188208	175.68138321995465	55	127
175.43759637188208	175.68138321995465	74	127
175.68138321995465	175.9019954648526	69	127
175.68138321995465	176.0645351473923	43	127
175.68138321995465	176.3083446712018	62	127
175.68138321995465	176.3083446712018	54	127
175.9019954648526	176.13419501133788	71	127
176.13419501133788	176.4012244897959	69	127
176.13419501133788	176.4012244897959	43	127
176.41283446712018	176.8772335600907	55	127
176.41283446712018	177.5041723356009	67	127
176.41283446712018	176.6914739229025	59	127
176.41283446712018	176.6914739229025	43	127
176.41283446712018	177.5041723356009	79	127
176.6914739229025	176.9584807256236	45	127
176.6914739229025	176.9584807256236	60	127
176.9584807256236	177.2255328798186	47	127
176.9584807256236	177.2255328798186	55	127
176.9584807256236	177.2255328798186	62	127
177.2255328798186	178.0846485260771	48	127
177.2255328798186	177.6899319727891	55	127
177.2255328798186	178.0846485260771	64	127
177.5041723356009	177.77120181405897	69	127
177.5041723356009	177.77120181405897	81	127
177.77120181405897	178.0730612244898	83	127
177.77120181405897	178.0730612244898	71	127
177.77120181405897	178.0730612244898	55	127
178.0846485260771	179.75650793650794	67	127
178.0846485260771	178.53746031746033	55	127
178.0846485260771	178.80448979591836	62	127
178.0846485260771	179.75650793650794	79	127
178.0846485260771	178.80448979591836	47	127
178.63034013605443	178.87414965986395	55	127
178.87414965986395	179.33854875283447	55	127
178.87414965986395	179.15278911564627	60	127
178.87414965986395	179.15278911564627	45	127
179.15278911564627	179.4198185941043	47	127
179.15278911564627	179.4198185941043	62	127
179.4198185941043	179.62879818594104	60	127
179.4198185941043	179.62879818594104	45	127
179.4198185941043	179.62879818594104	55	127
179.6404081632653	180.16285714285715	59	127
179.6404081632653	180.06997732426305	43	127
179.6404081632653	180.06997732426305	55	127
179.88421768707482	180.16285714285715	83	127
179.88421768707482	180.16285714285715	71	127
180.16285714285715	180.40666666666667	86	127
180.16285714285715	180.40666666666667	55	127
180.16285714285715	180.40666666666667	47	127
180.16285714285715	180.40666666666667	55	127
180.16285714285715	180.40666666666667	74	127
180.40666666666667	181.0916553287982	50	127
180.40666666666667	180.66208616780045	81	127
180.40666666666667	180.66208616780045	69	127
180.40666666666667	180.8014058956916	54	127
180.40666666666667	181.0916553287982	50	127
180.66208616780045	180.89426303854876	71	127
180.66208616780045	180.89426303854876	83	127
180.89426303854876	181.45156462585035	69	127
180.89426303854876	181.17292517006803	54	127
180.89426303854876	181.45156462585035	81	127
181.1845351473923	181.63732426303855	52	127
181.1845351473923	181.63732426303855	60	127
181.1845351473923	181.63732426303855	45	127
181.45156462585035	181.73020408163265	84	127
181.45156462585035	181.73020408163265	72	127
181.73020408163265	181.98562358276644	76	127
181.73020408163265	181.98562358276644	57	127
181.73020408163265	181.98562358276644	57	127
181.73020408163265	181.98562358276644	48	127
181.73020408163265	181.98562358276644	88	127
181.98562358276644	182.70544217687075	52	127
181.98562358276644	182.2526530612245	83	127
181.98562358276644	182.2526530612245	71	127
181.98562358276644	182.42678004535148	52	127
181.98562358276644	182.42678004535148	55	127
182.2526530612245	182.51968253968255	84	127
182.2526530612245	182.51968253968255	72	127
182.51968253968255	183.05374149659863	83	127
182.51968253968255	182.78668934240363	52	127
182.51968253968255	182.78668934240363	55	127
182.51968253968255	183.05374149659863	71	127
182.79832199546485	183.20467120181405	54	127
182.79832199546485	183.20467120181405	62	127
182.79832199546485	183.20467120181405	47	127
183.05374149659863	183.2859410430839	86	127
183.05374149659863	183.2859410430839	74	127
183.2859410430839	183.79678004535148	90	127
183.2859410430839	183.52975056689343	59	127
183.2859410430839	183.52975056689343	59	127
183.2859410430839	183.52975056689343	50	127
183.2859410430839	183.79678004535148	78	127
183.52975056689343	183.99414965986395	49	127
183.52975056689343	183.99414965986395	64	127
183.52975056689343	183.99414965986395	55	127
183.80836734693878	184.08702947845805	88	127
183.80836734693878	184.08702947845805	76	127
184.08702947845805	184.65591836734694	79	127
184.08702947845805	184.36566893424038	55	127
184.08702947845805	184.36566893424038	61	127
184.08702947845805	184.36566893424038	52	127
184.08702947845805	184.65591836734694	91	127
184.37727891156462	184.8532879818594	57	127
184.37727891156462	184.8532879818594	66	127
184.37727891156462	184.8532879818594	51	127
184.6675283446712	184.9461678004535	90	127
184.6675283446712	184.9461678004535	78	127
184.9461678004535	185.54986394557824	93	127
184.9461678004535	185.2364172335601	59	127
184.9461678004535	185.2364172335601	63	127
184.9461678004535	185.2364172335601	54	127
184.9461678004535	185.54986394557824	81	127
185.24802721088435	185.7704761904762	59	127
185.24802721088435	185.7704761904762	67	127
185.24802721088435	185.7704761904762	52	127
185.56149659863945	185.87496598639456	91	127
185.56149659863945	185.87496598639456	79	127
185.87496598639456	186.16521541950112	64	127
185.87496598639456	186.16521541950112	95	127
185.87496598639456	186.16521541950112	83	127
185.87496598639456	186.16521541950112	61	127
185.87496598639456	186.16521541950112	55	127
186.16521541950112	186.43224489795918	97	127
186.16521541950112	186.29292517006803	73	127
186.16521541950112	186.29292517006803	66	127
186.16521541950112	186.29292517006803	70	127
186.16521541950112	186.43224489795918	61	127
186.16521541950112	186.43224489795918	54	127
186.3045351473923	186.43224489795918	66	127
186.3045351473923	186.43224489795918	70	127
186.3045351473923	186.43224489795918	73	127
186.44385487528345	186.57154195011339	73	127
186.44385487528345	186.57154195011339	66	127
186.44385487528345	186.57154195011339	70	127
186.57154195011339	186.7108843537415	70	127
186.57154195011339	186.7108843537415	73	127
186.57154195011339	186.7108843537415	66	127
186.7108843537415	186.83859410430838	66	127
186.7108843537415	186.83859410430838	73	127
186.7108843537415	186.83859410430838	70	127
186.85020408163265	186.9778911564626	66	127
186.85020408163265	186.9778911564626	73	127
186.85020408163265	186.9778911564626	70	127
186.9895238095238	187.1172335600907	61	127
186.9895238095238	187.1172335600907	78	127
186.9895238095238	187.1172335600907	70	127
187.1172335600907	187.2449433106576	61	127
187.1172335600907	187.2449433106576	78	127
187.1172335600907	187.2449433106576	70	127
187.2449433106576	187.31460317460318	71	127
187.2449433106576	187.31460317460318	75	127
187.2449433106576	187.31460317460318	59	127
187.32621315192745	187.45392290249433	59	127
187.32621315192745	187.45392290249433	75	127
187.32621315192745	187.45392290249433	71	127
187.4655328798186	187.59321995464853	66	127
187.4655328798186	187.59321995464853	73	127
187.4655328798186	187.59321995464853	70	127
187.59321995464853	187.7093424036281	66	127
187.59321995464853	187.7093424036281	73	127
187.59321995464853	187.7093424036281	70	127
187.7093424036281	187.83705215419502	66	127
187.7093424036281	187.83705215419502	73	127
187.7093424036281	187.83705215419502	70	127
187.84863945578232	187.97637188208617	66	127
187.84863945578232	187.97637188208617	73	127
187.84863945578232	187.97637188208617	70	127
187.98798185941044	188.24340136054423	66	127
187.98798185941044	188.1040589569161	78	127
187.98798185941044	188.1040589569161	73	127
187.98798185941044	188.1040589569161	70	127
188.1040589569161	188.24340136054423	78	127
188.1040589569161	188.24340136054423	71	127
188.1040589569161	188.24340136054423	68	127
188.24340136054423	188.3594784580499	66	127
188.24340136054423	188.3594784580499	78	127
188.24340136054423	188.3594784580499	70	127
188.3594784580499	188.48721088435374	78	127
188.3594784580499	188.48721088435374	68	127
188.3594784580499	188.48721088435374	64	127
188.498820861678	188.5336507936508	63	127
188.498820861678	188.5336507936508	78	127
188.498820861678	188.5336507936508	66	127
188.5336507936508	188.67297052154194	64	127
188.5336507936508	188.67297052154194	78	127
188.5336507936508	188.67297052154194	61	127
188.67297052154194	188.81229024943312	63	127
188.67297052154194	188.80068027210885	83	127
188.67297052154194	188.80068027210885	66	127
188.67297052154194	188.80068027210885	63	127
188.67297052154194	188.81229024943312	59	127
188.81229024943312	188.92839002267573	64	127
188.81229024943312	188.92839002267573	83	127
188.81229024943312	188.92839002267573	61	127
188.94	189.0677097505669	71	127
188.94	189.0677097505669	78	127
188.94	189.0677097505669	63	127
188.94	189.0677097505669	59	127
188.94	189.0677097505669	59	127
189.0677097505669	189.19541950113378	61	127
189.0677097505669	189.19541950113378	78	127
189.0677097505669	189.19541950113378	57	127
189.19541950113378	189.29990929705215	59	127
189.19541950113378	189.29990929705215	78	127
189.19541950113378	189.29990929705215	56	127
189.31151927437642	189.42761904761906	54	127
189.31151927437642	189.42761904761906	78	127
189.31151927437642	189.42761904761906	57	127
189.42761904761906	189.54371882086167	56	127
189.42761904761906	189.54371882086167	80	127
189.42761904761906	189.54371882086167	59	127
189.42761904761906	189.54371882086167	56	127
189.42761904761906	189.54371882086167	52	127
189.54371882086167	189.67142857142858	61	127
189.54371882086167	189.67142857142858	58	127
189.54371882086167	189.67142857142858	80	127
189.68303854875285	189.78752834467122	59	127
189.68303854875285	189.79913832199546	47	127
189.68303854875285	189.79913832199546	59	127
189.68303854875285	189.78752834467122	78	127
189.68303854875285	189.78752834467122	63	127
189.79913832199546	189.92684807256236	64	127
189.79913832199546	189.92684807256236	78	127
189.79913832199546	189.92684807256236	61	127
189.92684807256236	189.96167800453514	66	127
189.92684807256236	189.96167800453514	78	127
189.92684807256236	189.96167800453514	63	127
189.96167800453514	190.08938775510205	68	127
189.96167800453514	190.08938775510205	78	127
189.96167800453514	190.08938775510205	64	127
190.1009977324263	190.2287074829932	69	127
190.1009977324263	190.21709750566893	83	127
190.1009977324263	190.21709750566893	66	127
190.1009977324263	190.21709750566893	63	127
190.1009977324263	190.2287074829932	66	127
190.2287074829932	190.33319727891157	64	127
190.2287074829932	190.33319727891157	83	127
190.2287074829932	190.33319727891157	61	127
190.33319727891157	190.47251700680272	66	127
190.33319727891157	190.47251700680272	78	127
190.33319727891157	190.47251700680272	63	127
190.33319727891157	190.47251700680272	59	127
190.33319727891157	190.47251700680272	59	127
190.47251700680272	190.56539682539682	78	127
190.47251700680272	190.56539682539682	61	127
190.47251700680272	190.56539682539682	57	127
190.56539682539682	190.68149659863946	55	127
190.56539682539682	190.68149659863946	78	127
190.56539682539682	190.68149659863946	59	127
190.69310657596372	190.7975963718821	57	127
190.69310657596372	190.7975963718821	78	127
190.69310657596372	190.7975963718821	54	127
190.7975963718821	190.92530612244897	55	127
190.7975963718821	190.92530612244897	79	127
190.7975963718821	190.92530612244897	71	127
190.7975963718821	190.92530612244897	67	127
190.7975963718821	190.92530612244897	52	127
190.92530612244897	191.02979591836734	73	127
190.92530612244897	191.02979591836734	79	127
190.92530612244897	191.02979591836734	67	127
191.0414058956916	191.1691156462585	62	127
191.0414058956916	191.15750566893425	81	127
191.0414058956916	191.15750566893425	74	127
191.0414058956916	191.15750566893425	66	127
191.0414058956916	191.1691156462585	50	127
191.1691156462585	191.28521541950113	76	127
191.1691156462585	191.28521541950113	81	127
191.1691156462585	191.28521541950113	67	127
191.28521541950113	191.42453514739228	78	127
191.28521541950113	191.42453514739228	81	127
191.28521541950113	191.42453514739228	69	127
191.42453514739228	191.55224489795918	79	127
191.42453514739228	191.55224489795918	81	127
191.42453514739228	191.55224489795918	67	127
191.56385487528345	191.69156462585033	86	127
191.56385487528345	191.69156462585033	69	127
191.56385487528345	191.69156462585033	66	127
191.56385487528345	191.7031746031746	81	127
191.56385487528345	191.7031746031746	66	127
191.7031746031746	191.8308843537415	67	127
191.7031746031746	191.8308843537415	64	127
191.7031746031746	191.8308843537415	86	127
191.8308843537415	191.97020408163266	62	127
191.8308843537415	191.97020408163266	66	127
191.8308843537415	191.97020408163266	74	127
191.8308843537415	191.97020408163266	81	127
191.8308843537415	191.97020408163266	66	127
191.97020408163266	192.09791383219954	64	127
191.97020408163266	192.09791383219954	81	127
191.97020408163266	192.09791383219954	60	127
192.1095238095238	192.23723356009071	62	127
192.1095238095238	192.23723356009071	81	127
192.1095238095238	192.23723356009071	59	127
192.24884353741496	192.35333333333332	60	127
192.24884353741496	192.35333333333332	81	127
192.24884353741496	192.35333333333332	57	127
192.35333333333332	192.46943310657596	55	127
192.35333333333332	192.4578231292517	83	127
192.35333333333332	192.4578231292517	74	127
192.35333333333332	192.4578231292517	71	127
192.35333333333332	192.46943310657596	59	127
192.46943310657596	192.5507029478458	76	127
192.46943310657596	192.5507029478458	83	127
192.46943310657596	192.5507029478458	71	127
192.56231292517006	192.7016326530612	70	127
192.56231292517006	192.7016326530612	85	127
192.56231292517006	192.7016326530612	73	127
192.56231292517006	192.7016326530612	66	127
192.56231292517006	192.7016326530612	54	127
192.7016326530612	192.8409523809524	85	127
192.7016326530612	192.8409523809524	78	127
192.7016326530612	192.8409523809524	71	127
192.85256235827666	192.88739229024944	73	127
192.85256235827666	192.88739229024944	85	127
192.85256235827666	192.88739229024944	82	127
192.88739229024944	192.92222222222222	78	127
192.88739229024944	192.92222222222222	85	127
192.88739229024944	192.92222222222222	71	127
192.92222222222222	193.07315192743764	58	127
192.92222222222222	193.07315192743764	90	127
192.92222222222222	193.07315192743764	70	127
192.92222222222222	193.07315192743764	73	127
192.92222222222222	193.07315192743764	78	127
193.07315192743764	193.20086167800454	71	127
193.07315192743764	193.20086167800454	90	127
193.07315192743764	193.20086167800454	68	127
193.07315192743764	193.20086167800454	56	127
193.20086167800454	193.32857142857142	54	127
193.20086167800454	193.32857142857142	85	127
193.20086167800454	193.32857142857142	66	127
193.20086167800454	193.32857142857142	70	127
193.20086167800454	193.66526077097507	73	127
193.3401814058957	193.4678911564626	64	127
193.3401814058957	193.4678911564626	52	127
193.3401814058957	193.4678911564626	85	127
193.3401814058957	193.4678911564626	68	127
193.47950113378684	193.60721088435375	85	127
193.47950113378684	193.60721088435375	62	127
193.47950113378684	193.60721088435375	66	127
193.47950113378684	193.60721088435375	50	127
193.61882086167802	193.73492063492063	61	127
193.61882086167802	193.73492063492063	64	127
193.61882086167802	193.73492063492063	49	127
193.61882086167802	193.73492063492063	85	127
193.7465306122449	193.89746031746031	47	127
193.7465306122449	193.89746031746031	90	127
193.7465306122449	193.89746031746031	78	127
193.7465306122449	193.89746031746031	62	127
193.89746031746031	194.03678004535146	90	127
194.03678004535146	194.17609977324264	86	127
194.03678004535146	194.17609977324264	74	127
194.03678004535146	194.17609977324264	59	127
194.03678004535146	194.17609977324264	52	127
194.17609977324264	194.26897959183674	86	127
194.26897959183674	194.36185941043084	92	127
194.26897959183674	194.36185941043084	80	127
194.26897959183674	194.36185941043084	71	127
194.26897959183674	194.36185941043084	62	127
194.26897959183674	194.36185941043084	40	127
194.36185941043084	194.41990929705216	92	127
194.41990929705216	194.64049886621316	45	127
194.41990929705216	194.51278911564626	93	127
194.41990929705216	194.64049886621316	64	127
194.41990929705216	194.64049886621316	61	127
194.41990929705216	194.6521088435374	81	127
194.51278911564626	194.64049886621316	81	127
194.6521088435374	194.76820861678004	81	127
194.6521088435374	195.08167800453515	69	127
194.76820861678004	194.89591836734695	69	127
194.89591836734695	195.0352380952381	81	127
195.0352380952381	195.16294784580498	81	127
195.17455782312925	195.41836734693877	81	127
195.17455782312925	195.2906575963719	93	127
195.2906575963719	195.41836734693877	81	127
195.41836734693877	195.55768707482994	81	127
195.41836734693877	195.87115646258502	69	127
195.55768707482994	195.6970068027211	69	127
195.6970068027211	195.82471655328797	81	127
195.83632653061224	195.96403628117915	81	127
195.96403628117915	195.98725623582766	93	127
195.96403628117915	196.11496598639457	81	127
195.98725623582766	196.1033560090703	81	127
196.11496598639457	196.56775510204082	69	127
196.11496598639457	196.25428571428571	81	127
196.25428571428571	196.3819954648526	69	127
196.3819954648526	196.64902494331065	57	127
196.3819954648526	196.52131519274377	81	127
196.52131519274377	196.64902494331065	81	127
196.66063492063492	197.19469387755103	69	127
196.66063492063492	196.78834467120183	93	127
196.66063492063492	196.92766439909298	62	127
196.66063492063492	197.1018140589569	42	127
196.78834467120183	196.92766439909298	81	127
196.92766439909298	197.05537414965985	81	127
196.92766439909298	197.18308390022676	57	127
197.05537414965985	197.19469387755103	69	127
197.19469387755103	197.43850340136055	62	127
197.19469387755103	197.3224036281179	81	127
197.3224036281179	197.43850340136055	81	127
197.43850340136055	197.86807256235826	40	127
197.43850340136055	197.5778231292517	93	127
197.43850340136055	197.97256235827663	67	127
197.43850340136055	197.69392290249434	61	127
197.5778231292517	197.69392290249434	81	127
197.69392290249434	197.82163265306122	81	127
197.69392290249434	197.97256235827663	55	127
197.82163265306122	197.97256235827663	69	127
197.97256235827663	198.16993197278913	61	127
197.97256235827663	198.10027210884354	81	127
198.1118820861678	198.16993197278913	81	127
198.16993197278913	198.69238095238094	66	127
198.16993197278913	198.297641723356	93	127
198.16993197278913	198.43696145124716	59	127
198.16993197278913	198.59950113378684	38	127
198.297641723356	198.43696145124716	81	127
198.43696145124716	198.5530612244898	81	127
198.43696145124716	198.6807709750567	54	127
198.5530612244898	198.69238095238094	69	127
198.69238095238094	198.94780045351473	59	127
198.69238095238094	198.82009070294785	81	127
198.82009070294785	198.94780045351473	81	127
198.94780045351473	199.20321995464852	64	127
198.94780045351473	199.06390022675737	93	127
198.94780045351473	199.38897959183674	37	127
198.94780045351473	199.19160997732428	57	127
199.06390022675737	199.19160997732428	81	127
199.20321995464852	199.3425396825397	81	127
199.20321995464852	199.48185941043084	52	127
199.20321995464852	199.48185941043084	57	127
199.3425396825397	199.48185941043084	69	127
199.48185941043084	199.60956916099772	81	127
199.48185941043084	199.72566893424036	64	127
199.621179138322	199.72566893424036	81	127
199.73727891156463	200.16684807256235	39	127
199.73727891156463	199.8649886621315	93	127
199.73727891156463	199.99269841269842	59	127
199.73727891156463	199.99269841269842	66	127
199.8649886621315	199.99269841269842	81	127
199.99269841269842	200.25972789115647	59	127
199.99269841269842	200.1204081632653	81	127
199.99269841269842	200.2481179138322	54	127
200.1204081632653	200.25972789115647	69	127
200.25972789115647	200.503537414966	66	127
200.25972789115647	200.37582766439908	81	127
200.37582766439908	200.503537414966	81	127
200.503537414966	200.77056689342405	59	127
200.503537414966	200.64285714285714	91	127
200.503537414966	200.7821768707483	67	127
200.503537414966	200.9679365079365	40	127
200.64285714285714	200.77056689342405	79	127
200.7821768707483	201.0608163265306	55	127
200.7821768707483	200.92149659863946	90	127
200.7821768707483	201.2465759637188	71	127
200.92149659863946	201.0608163265306	78	127
201.0608163265306	201.20013605442176	88	127
201.20013605442176	201.3162358276644	76	127
201.32784580498867	201.45555555555555	88	127
201.32784580498867	201.58326530612246	64	127
201.32784580498867	201.76902494331065	43	127
201.32784580498867	201.86190476190475	71	127
201.45555555555555	201.58326530612246	76	127
201.58326530612246	201.7225850340136	76	127
201.58326530612246	201.8502947845805	59	127
201.7225850340136	201.86190476190475	71	127
201.86190476190475	202.08249433106576	64	127
201.86190476190475	201.9780045351474	76	127
201.9780045351474	202.08249433106576	76	127
202.08249433106576	202.6281632653061	69	127
202.08249433106576	202.2218140589569	87	127
202.08249433106576	202.34952380952382	63	127
202.08249433106576	202.53528344671201	42	127
202.2218140589569	202.34952380952382	75	127
202.3611337868481	202.48884353741497	75	127
202.3611337868481	202.6281632653061	57	127
202.48884353741497	202.6281632653061	69	127
202.6281632653061	202.89519274376417	63	127
202.6281632653061	202.75587301587302	75	127
202.7674829931973	202.89519274376417	75	127
202.90680272108844	203.38281179138323	67	127
202.90680272108844	203.02290249433108	85	127
202.90680272108844	203.12739229024945	61	127
202.90680272108844	203.30154195011337	40	127
203.02290249433108	203.12739229024945	73	127
203.12739229024945	203.25510204081633	73	127
203.12739229024945	203.37120181405896	55	127
203.25510204081633	203.38281179138323	69	127
203.38281179138323	203.6034013605442	61	127
203.38281179138323	203.46408163265306	73	127
203.46408163265306	203.6034013605442	73	127
203.6034013605442	203.73111111111112	83	127
203.6034013605442	204.03297052154196	39	127
203.6034013605442	203.84721088435373	59	127
203.6034013605442	203.84721088435373	66	127
203.73111111111112	203.84721088435373	71	127
203.84721088435373	204.12585034013605	59	127
203.84721088435373	203.9865306122449	71	127
203.84721088435373	204.11424036281178	54	127
203.9865306122449	204.12585034013605	69	127
204.12585034013605	204.32321995464852	66	127
204.12585034013605	204.21873015873015	71	127
204.23034013605442	204.32321995464852	71	127
204.32321995464852	204.59024943310658	62	127
204.32321995464852	204.75278911564627	40	127
204.32321995464852	204.46253968253967	83	127
204.32321995464852	204.60185941043085	68	127
204.46253968253967	204.59024943310658	71	127
204.60185941043085	204.70634920634922	81	127
204.60185941043085	204.8340589569161	52	127
204.60185941043085	204.8340589569161	69	127
204.70634920634922	204.8340589569161	71	127
204.8340589569161	205.06625850340137	71	127
204.8340589569161	204.95015873015873	80	127
204.95015873015873	205.06625850340137	71	127
205.0778684807256	205.51904761904763	45	127
205.0778684807256	205.2171882086168	81	127
205.0778684807256	205.51904761904763	52	127
205.0778684807256	205.51904761904763	69	127
205.2171882086168	205.34489795918367	69	127
205.34489795918367	205.47260770975058	79	127
205.47260770975058	205.60031746031746	69	127
205.61192743764173	205.85573696145124	69	127
205.61192743764173	205.75124716553287	76	127
205.75124716553287	205.85573696145124	69	127
205.85573696145124	206.41301587301587	81	127
205.85573696145124	205.9950566893424	81	127
205.9950566893424	206.13437641723357	79	127
206.13437641723357	206.285306122449	78	127
206.285306122449	206.41301587301587	76	127
206.41301587301587	206.65682539682538	74	127
206.41301587301587	206.55233560090704	74	127
206.55233560090704	206.65682539682538	73	127
206.66843537414965	207.20249433106576	79	127
206.66843537414965	206.79614512471656	79	127
206.79614512471656	206.92385487528344	78	127
206.92385487528344	207.06317460317462	76	127
207.06317460317462	207.20249433106576	74	127
207.20249433106576	207.3766439909297	73	127
207.20249433106576	207.3418140589569	73	127
207.3418140589569	207.3766439909297	71	127
207.3766439909297	207.92231292517008	78	127
207.3766439909297	207.51596371882087	78	127
207.51596371882087	207.65528344671202	76	127
207.65528344671202	207.79460317460317	74	127
207.79460317460317	207.92231292517008	73	127
207.92231292517008	208.18934240362813	71	127
207.92231292517008	208.06163265306122	71	127
208.06163265306122	208.18934240362813	69	127
208.20095238095237	208.43315192743765	76	127
208.20095238095237	208.32866213151928	76	127
208.32866213151928	208.43315192743765	74	127
208.43315192743765	208.7001814058957	69	127
208.43315192743765	208.5724716553288	73	127
208.5724716553288	208.7001814058957	71	127
208.7001814058957	208.93238095238095	76	127
208.7001814058957	208.83950113378685	69	127
208.83950113378685	208.93238095238095	76	127
208.93238095238095	209.0484807256236	78	127
208.93238095238095	209.1645804988662	78	127
209.0484807256236	209.1645804988662	76	127
209.1645804988662	209.30390022675738	75	127
209.1645804988662	209.43160997732426	71	127
209.30390022675738	209.43160997732426	73	127
209.43160997732426	209.67541950113377	78	127
209.43160997732426	209.5709297052154	71	127
209.5709297052154	209.67541950113377	78	127
209.68702947845804	209.90761904761905	79	127
209.68702947845804	209.7915192743764	79	127
209.7915192743764	209.90761904761905	76	127
209.90761904761905	210.3604081632653	83	127
209.90761904761905	210.0469387755102	71	127
210.0469387755102	210.18625850340135	76	127
210.18625850340135	210.31396825396826	79	127
210.31396825396826	210.4532879818594	83	127
210.4532879818594	210.97573696145125	86	127
210.4532879818594	210.59260770975058	86	127
210.4532879818594	210.69709750566892	74	127
210.59260770975058	210.7087074829932	84	127
210.7087074829932	210.8364172335601	83	127
210.7087074829932	210.97573696145125	71	127
210.8364172335601	210.97573696145125	81	127
210.97573696145125	211.23115646258503	79	127
210.97573696145125	211.1150566893424	79	127
210.97573696145125	211.23115646258503	67	127
211.1150566893424	211.23115646258503	78	127
211.2427664399093	211.8116553287982	84	127
211.2427664399093	211.37047619047618	84	127
211.2427664399093	211.5214058956916	72	127
211.37047619047618	211.5214058956916	83	127
211.5214058956916	211.66072562358278	81	127
211.5214058956916	211.80004535147393	69	127
211.66072562358278	211.8116553287982	79	127
211.8116553287982	212.07868480725622	78	127
211.8116553287982	211.93936507936507	78	127
211.8116553287982	212.07868480725622	66	127
211.93936507936507	212.07868480725622	76	127
212.07868480725622	212.2180045351474	74	127
212.2180045351474	212.29927437641723	72	127
212.29927437641723	212.35732426303855	71	127
212.35732426303855	212.4734240362812	69	127
212.4734240362812	212.5895238095238	67	127
212.5895238095238	212.69401360544217	66	127
212.70562358276644	213.13519274376418	83	127
212.70562358276644	212.8101133786848	83	127
212.70562358276644	212.94943310657595	71	127
212.8101133786848	212.94943310657595	81	127
212.94943310657595	213.22807256235828	67	127
212.94943310657595	213.08875283446713	79	127
213.08875283446713	213.23968253968255	78	127
213.23968253968255	213.48349206349206	76	127
213.23968253968255	213.36739229024943	76	127
213.23968253968255	213.48349206349206	64	127
213.36739229024943	213.48349206349206	74	127
213.48349206349206	213.6228117913832	81	127
213.48349206349206	213.75052154195012	69	127
213.48349206349206	213.93628117913832	81	127
213.6228117913832	213.76213151927436	79	127
213.76213151927436	213.88984126984127	78	127
213.76213151927436	214.02916099773242	66	127
213.88984126984127	214.02916099773242	76	127
214.02916099773242	214.24975056689343	62	127
214.02916099773242	214.15687074829933	74	127
214.02916099773242	214.24975056689343	74	127
214.15687074829933	214.24975056689343	73	127
214.24975056689343	214.30780045351474	71	127
214.30780045351474	214.4471201814059	69	127
214.4471201814059	214.55160997732426	67	127
214.55160997732426	214.6677097505669	66	127
214.6677097505669	214.79541950113378	64	127
214.79541950113378	214.93473922902496	62	127
214.93473922902496	215.06244897959184	79	127
214.93473922902496	215.19015873015874	67	127
215.06244897959184	215.20176870748298	78	127
215.20176870748298	215.3294784580499	76	127
215.20176870748298	215.46879818594104	64	127
215.3294784580499	215.46879818594104	74	127
215.46879818594104	215.71260770975056	61	127
215.46879818594104	215.58489795918368	73	127
215.58489795918368	215.72421768707483	71	127
215.72421768707483	215.9796371882086	57	127
215.72421768707483	215.86353741496598	69	127
215.72421768707483	215.86353741496598	69	127
215.86353741496598	215.9796371882086	67	127
215.86353741496598	215.9796371882086	67	127
215.9796371882086	216.10734693877552	66	127
215.9796371882086	216.10734693877552	66	127
215.9796371882086	216.20022675736962	66	127
216.10734693877552	216.2118367346939	64	127
216.10734693877552	216.2118367346939	64	127
216.2118367346939	216.31632653061226	62	127
216.2118367346939	216.31632653061226	62	127
216.2118367346939	216.43242630385487	62	127
216.31632653061226	216.43242630385487	61	127
216.31632653061226	216.43242630385487	61	127
216.43242630385487	216.57174603174604	59	127
216.43242630385487	216.57174603174604	59	127
216.43242630385487	216.69945578231292	59	127
216.57174603174604	216.69945578231292	57	127
216.57174603174604	216.69945578231292	57	127
216.69945578231292	216.93165532879817	55	127
216.69945578231292	216.8039455782313	55	127
216.69945578231292	216.8039455782313	55	127
216.8039455782313	216.93165532879817	54	127
216.93165532879817	217.18707482993196	52	127
216.93165532879817	217.07097505668935	52	127
217.07097505668935	217.18707482993196	50	127
217.18707482993196	217.45410430839001	49	127
217.18707482993196	217.45410430839001	49	127
217.90689342403627	218.35968253968255	48	127
217.90689342403627	218.2784126984127	48	127
217.90689342403627	218.35968253968255	48	127
218.35968253968255	219.439410430839	48	127
218.35968253968255	219.439410430839	48	127
219.439410430839	221.8310657596372	48	127
219.439410430839	219.68321995464854	64	127
219.439410430839	221.8310657596372	48	127
219.68321995464854	219.92702947845805	57	127
219.92702947845805	220.1940589569161	64	127
220.1940589569161	220.4494784580499	69	127
220.1940589569161	220.91387755102042	66	127
220.4494784580499	220.71650793650792	62	127
220.71650793650792	221.00675736961452	69	127
221.0183673469388	221.73818594104307	72	127
221.0183673469388	221.28539682539682	64	127
221.28539682539682	221.5756462585034	57	127
221.5756462585034	221.8310657596372	64	127
221.8310657596372	223.35197278911565	48	127
221.8310657596372	223.86281179138322	48	127
221.8310657596372	222.1097052154195	74	127
221.8310657596372	222.5508843537415	66	127
222.1097052154195	222.36512471655328	69	127
222.36512471655328	222.63215419501134	74	127
222.6437641723356	223.45646258503402	57	127
222.6437641723356	222.93401360544217	64	127
222.6437641723356	223.72349206349207	81	127
222.6437641723356	223.45646258503402	64	127
222.93401360544217	223.2126530612245	57	127
223.2126530612245	223.45646258503402	64	127
223.45646258503402	223.72349206349207	63	127
223.45646258503402	223.88603174603173	66	127
223.45646258503402	223.88603174603173	63	127
223.45646258503402	224.1530612244898	48	127
223.72349206349207	223.9673015873016	78	127
223.72349206349207	223.9673015873016	57	127
223.9673015873016	224.23433106575965	63	127
223.9673015873016	224.23433106575965	81	127
224.2459410430839	224.7103401360544	62	127
224.2459410430839	224.3736507936508	74	127
224.2459410430839	224.7103401360544	47	127
224.2459410430839	224.80321995464854	86	127
224.3736507936508	224.52458049886621	72	127
224.52458049886621	224.66390022675736	71	127
224.66390022675736	224.80321995464854	69	127
224.80321995464854	224.91931972789115	67	127
224.80321995464854	225.05863945578233	79	127
224.91931972789115	225.05863945578233	66	127
225.05863945578233	225.5926984126984	84	127
225.05863945578233	225.1863492063492	72	127
225.05863945578233	225.4998185941043	45	127
225.1863492063492	225.32566893424035	71	127
225.32566893424035	225.45337868480726	69	127
225.45337868480726	225.5926984126984	67	127
225.5926984126984	225.8481179138322	78	127
225.5926984126984	225.73201814058956	66	127
225.73201814058956	225.85972789115647	64	127
225.85972789115647	225.98743764172335	62	127
225.98743764172335	226.12675736961452	60	127
226.12675736961452	226.2544671201814	59	127
226.2544671201814	226.39378684807255	57	127
226.39378684807255	226.52149659863946	55	127
226.52149659863946	226.67242630385488	54	127
226.67242630385488	227.21809523809523	83	127
226.67242630385488	226.81174603174603	71	127
226.67242630385488	227.12521541950113	43	127
226.81174603174603	226.95106575963717	69	127
226.95106575963717	227.07877551020408	67	127
227.07877551020408	227.21809523809523	66	127
227.21809523809523	227.4502947845805	76	127
227.21809523809523	227.3225850340136	64	127
227.3225850340136	227.4502947845805	62	127
227.46190476190475	227.91469387755103	42	127
227.46190476190475	227.58961451247166	69	127
227.46190476190475	228.00757369614513	81	127
227.58961451247166	227.7289342403628	67	127
227.7289342403628	227.86825396825398	66	127
227.86825396825398	228.00757369614513	64	127
228.00757369614513	228.12367346938777	74	127
228.00757369614513	228.1120634920635	62	127
228.1120634920635	228.12367346938777	61	127
228.12367346938777	228.25138321995465	59	127
228.25138321995465	228.37909297052155	57	127
228.37909297052155	228.50680272108843	55	127
228.50680272108843	228.62290249433107	54	127
228.62290249433107	228.7390022675737	52	127
228.7390022675737	228.8667120181406	50	127
228.87832199546486	229.12213151927438	67	127
228.87832199546486	228.98281179138323	91	127
228.87832199546486	228.98281179138323	79	127
228.87832199546486	229.12213151927438	79	127
228.87832199546486	229.12213151927438	67	127
228.87832199546486	229.12213151927438	40	127
228.98281179138323	229.12213151927438	90	127
228.98281179138323	229.12213151927438	78	127
229.12213151927438	229.3659410430839	64	127
229.12213151927438	229.238231292517	88	127
229.12213151927438	229.238231292517	76	127
229.12213151927438	229.3659410430839	76	127
229.12213151927438	229.3659410430839	64	127
229.238231292517	229.37755102040816	74	127
229.238231292517	229.37755102040816	86	127
229.37755102040816	229.50526077097507	85	127
229.37755102040816	229.50526077097507	73	127
229.37755102040816	229.62136054421768	61	127
229.37755102040816	229.62136054421768	61	127
229.37755102040816	229.62136054421768	73	127
229.50526077097507	229.62136054421768	83	127
229.50526077097507	229.62136054421768	71	127
229.62136054421768	229.87678004535147	69	127
229.62136054421768	229.7490702947846	81	127
229.62136054421768	229.7490702947846	69	127
229.62136054421768	229.87678004535147	57	127
229.62136054421768	229.87678004535147	57	127
229.7490702947846	229.88839002267574	67	127
229.7490702947846	229.88839002267574	79	127
229.88839002267574	230.00448979591837	78	127
229.88839002267574	230.14380952380952	54	127
229.88839002267574	230.00448979591837	66	127
229.88839002267574	230.14380952380952	66	127
229.88839002267574	230.00448979591837	66	127
230.00448979591837	230.14380952380952	76	127
230.00448979591837	230.14380952380952	64	127
230.00448979591837	230.14380952380952	64	127
230.14380952380952	230.25990929705216	62	127
230.14380952380952	230.27151927437643	74	127
230.14380952380952	230.27151927437643	62	127
230.14380952380952	230.35278911564626	62	127
230.14380952380952	230.35278911564626	50	127
230.27151927437643	230.36439909297053	73	127
230.27151927437643	230.36439909297053	61	127
230.27151927437643	230.35278911564626	61	127
230.36439909297053	230.48049886621314	59	127
230.36439909297053	230.48049886621314	71	127
230.36439909297053	230.61981859410432	59	127
230.36439909297053	230.61981859410432	47	127
230.36439909297053	230.48049886621314	59	127
230.48049886621314	230.61981859410432	69	127
230.48049886621314	230.61981859410432	57	127
230.61981859410432	230.75913832199547	55	127
230.61981859410432	230.77074829931973	67	127
230.61981859410432	230.8984580498866	55	127
230.61981859410432	230.8984580498866	43	127
230.77074829931973	230.91006802721088	66	127
230.77074829931973	230.8984580498866	54	127
230.91006802721088	231.0377777777778	64	127
230.91006802721088	231.20031746031745	40	127
230.91006802721088	231.0377777777778	52	127
230.91006802721088	231.20031746031745	52	127
231.0377777777778	231.20031746031745	50	127
231.0377777777778	231.20031746031745	62	127
231.20031746031745	231.444126984127	49	127
231.20031746031745	231.444126984127	61	127
231.20031746031745	231.444126984127	49	127
231.20031746031745	231.444126984127	37	127
231.9665759637188	232.45419501133787	48	127
231.9665759637188	232.1987755102041	60	127
231.9665759637188	232.1987755102041	48	127
231.9665759637188	232.1987755102041	48	127
231.9665759637188	232.1987755102041	36	127
231.9665759637188	232.45419501133787	60	127
232.45419501133787	233.37138321995465	60	127
232.45419501133787	233.37138321995465	48	127
233.37138321995465	235.65854875283446	60	127
233.37138321995465	234.75297052154195	57	127
233.37138321995465	234.75297052154195	64	127
233.37138321995465	234.75297052154195	48	127
234.21891156462584	235.57727891156463	69	127
234.21891156462584	235.57727891156463	76	127
235.65854875283446	238.1314739229025	60	127
236.41319727891155	238.25918367346938	69	127
236.41319727891155	238.25918367346938	88	127
236.41319727891155	238.25918367346938	64	127
236.41319727891155	238.25918367346938	72	127
236.41319727891155	238.25918367346938	81	127
238.1314739229025	238.14308390022677	76	127
238.14308390022677	238.25918367346938	76	127
238.25918367346938	238.3868934240363	76	127
238.39850340136056	238.52621315192744	76	127
238.5378231292517	238.64231292517007	76	127
238.64231292517007	238.77002267573695	76	127
238.77002267573695	238.89773242630386	81	127
238.90934240362813	238.93256235827664	81	127
238.9441723356009	239.0718820861678	76	127
239.0718820861678	239.15315192743765	76	127
239.15315192743765	239.24603174603175	76	127
239.25764172335602	239.3853514739229	76	127
239.39696145124717	239.52467120181407	78	127
239.52467120181407	239.66399092970522	78	127
239.66399092970522	239.7917006802721	76	127
239.80331065759637	239.93102040816328	76	127
239.94263038548752	240.0471201814059	76	127
240.0471201814059	240.11678004535148	76	127
240.11678004535148	240.24448979591835	74	127
240.24448979591835	240.30253968253967	72	127
240.31414965986394	240.360589569161	71	127
240.360589569161	240.39541950113377	72	127
240.39541950113377	240.52312925170068	74	127
240.53473922902495	240.66244897959183	76	127
240.6740589569161	240.801768707483	72	127
240.801768707483	240.82498866213152	71	127
240.82498866213152	240.91786848072562	69	127
240.91786848072562	241.02235827664398	71	127
241.02235827664398	241.13845804988662	72	127
241.13845804988662	241.25455782312926	76	127
241.25455782312926	241.37065759637187	74	127
241.38226757369614	241.50997732426305	72	127
241.50997732426305	241.53319727891156	71	127
241.53319727891156	241.60285714285715	72	127
241.60285714285715	241.68412698412698	74	127
241.69573696145125	241.81183673469388	76	127
241.82344671201815	241.95115646258503	81	127
241.82344671201815	241.95115646258503	72	127
241.95115646258503	242.06725623582767	81	127
241.95115646258503	242.06725623582767	71	127
242.06725623582767	242.19496598639455	81	127
242.06725623582767	242.19496598639455	69	127
242.20657596371882	242.33428571428573	81	127
242.20657596371882	242.33428571428573	72	127
242.33428571428573	242.42716553287983	81	127
242.33428571428573	242.42716553287983	71	127
242.42716553287983	242.5548752834467	69	127
242.42716553287983	242.5548752834467	81	127
242.5548752834467	242.60131519274375	88	127
242.5548752834467	242.60131519274375	67	127
242.60131519274375	242.6477551020408	88	127
242.60131519274375	242.6477551020408	66	127
242.6477551020408	242.78707482993198	83	127
242.6477551020408	242.78707482993198	67	127
242.78707482993198	242.89156462585035	83	127
242.78707482993198	242.89156462585035	66	127
242.9031746031746	243.0308843537415	83	127
242.9031746031746	243.0308843537415	64	127
243.04249433106577	243.17020408163265	83	127
243.04249433106577	243.17020408163265	67	127
243.17020408163265	243.20503401360546	84	127
243.17020408163265	243.20503401360546	69	127
243.20503401360546	243.32113378684807	84	127
243.20503401360546	243.32113378684807	66	127
243.33274376417233	243.4372335600907	83	127
243.33274376417233	243.4372335600907	67	127
243.44884353741497	243.57655328798185	83	127
243.44884353741497	243.57655328798185	66	127
243.57655328798185	243.70426303854876	83	127
243.57655328798185	243.70426303854876	64	127
243.70426303854876	243.83197278911564	67	127
243.70426303854876	243.83197278911564	83	127
243.83197278911564	243.8435827664399	81	127
243.83197278911564	243.85519274376418	66	127
243.85519274376418	243.98290249433106	79	127
243.98290249433106	244.0293424036281	78	127
243.98290249433106	244.0293424036281	71	127
244.0293424036281	244.13383219954648	79	127
244.14544217687074	244.2267120181406	63	127
244.14544217687074	244.21510204081633	81	127
244.2267120181406	244.3428117913832	83	127
244.3428117913832	244.4821315192744	64	127
244.3428117913832	244.4821315192744	79	127
244.4821315192744	244.5750113378685	78	127
244.58662131519273	244.6911111111111	76	127
244.58662131519273	244.70272108843537	71	127
244.70272108843537	244.83043083900228	78	127
244.83043083900228	244.95814058956915	79	127
244.83043083900228	244.95814058956915	61	127
244.95814058956915	245.02780045351474	83	127
245.039410430839	245.1322902494331	81	127
245.039410430839	245.14390022675738	63	127
245.14390022675738	245.27160997732426	79	127
245.27160997732426	245.28321995464853	71	127
245.27160997732426	245.28321995464853	78	127
245.28321995464853	245.39931972789117	79	127
245.4109297052154	245.53863945578232	59	127
245.4109297052154	245.52702947845805	81	127
245.53863945578232	245.65473922902495	83	127
245.65473922902495	245.77083900226756	79	127
245.65473922902495	245.77083900226756	64	127
245.65473922902495	245.77083900226756	64	127
245.77083900226756	245.89854875283447	66	127
245.77083900226756	245.89854875283447	78	127
245.77083900226756	245.89854875283447	64	127
245.91015873015874	245.92176870748298	76	127
245.91015873015874	245.92176870748298	67	127
245.91015873015874	245.92176870748298	64	127
245.92176870748298	246.03786848072562	72	127
245.92176870748298	246.03786848072562	78	127
245.92176870748298	246.03786848072562	64	127
246.03786848072562	246.16557823129253	71	127
246.03786848072562	246.16557823129253	76	127
246.03786848072562	246.16557823129253	64	127
246.17718820861677	246.44421768707483	63	127
246.17718820861677	246.30489795918368	72	127
246.17718820861677	246.30489795918368	69	127
246.31650793650795	246.44421768707483	69	127
246.31650793650795	246.44421768707483	69	127
246.44421768707483	246.56031746031746	67	127
246.44421768707483	246.56031746031746	71	127
246.44421768707483	246.56031746031746	64	127
246.56031746031746	246.65319727891156	66	127
246.56031746031746	246.65319727891156	69	127
246.56031746031746	246.65319727891156	64	127
246.65319727891156	246.74607709750566	64	127
246.65319727891156	246.74607709750566	67	127
246.65319727891156	246.74607709750566	64	127
246.75768707482993	246.87378684807257	67	127
246.75768707482993	246.87378684807257	71	127
246.75768707482993	246.87378684807257	64	127
246.87378684807257	247.00149659863945	72	127
246.87378684807257	247.00149659863945	66	127
246.87378684807257	247.0827664399093	63	127
247.00149659863945	247.0827664399093	69	127
247.00149659863945	247.0827664399093	66	127
247.0827664399093	247.18725623582768	64	127
247.0827664399093	247.18725623582768	71	127
247.0827664399093	247.18725623582768	67	127
247.19886621315192	247.2685260770975	66	127
247.19886621315192	247.2685260770975	69	127
247.19886621315192	247.2685260770975	64	127
247.2685260770975	247.38462585034014	64	127
247.2685260770975	247.38462585034014	67	127
247.2685260770975	247.38462585034014	64	127
247.38462585034014	247.51233560090702	64	127
247.38462585034014	247.51233560090702	71	127
247.38462585034014	247.51233560090702	67	127
247.5239455782313	247.77936507936508	68	127
247.5239455782313	247.64004535147393	62	127
247.5239455782313	247.6516553287982	71	127
247.6516553287982	247.77936507936508	60	127
247.77936507936508	247.91868480725623	76	127
247.77936507936508	247.91868480725623	68	127
247.77936507936508	247.91868480725623	59	127
247.91868480725623	248.04639455782313	69	127
247.91868480725623	248.04639455782313	60	127
248.0580045351474	248.17410430839	68	127
248.0580045351474	248.17410430839	71	127
248.0580045351474	248.17410430839	62	127
248.17410430839	248.22054421768706	64	127
248.17410430839	248.22054421768706	64	127
248.22054421768706	248.2669841269841	60	127
248.22054421768706	248.27859410430838	69	127
248.22054421768706	248.38308390022675	64	127
248.27859410430838	248.38308390022675	59	127
248.39469387755102	248.5224036281179	60	127
248.39469387755102	248.5224036281179	57	127
248.39469387755102	248.5224036281179	76	127
248.5224036281179	248.54562358276644	59	127
248.5224036281179	248.54562358276644	62	127
248.54562358276644	248.61528344671203	60	127
248.54562358276644	248.61528344671203	64	127
248.54562358276644	248.61528344671203	69	127
248.61528344671203	248.67333333333335	72	127
248.61528344671203	248.67333333333335	64	127
248.6849433106576	248.94036281179137	70	127
248.6849433106576	248.8126530612245	64	127
248.6849433106576	248.8126530612245	73	127
248.8126530612245	248.94036281179137	62	127
248.94036281179137	249.07968253968255	61	127
248.94036281179137	249.07968253968255	70	127
248.94036281179137	249.0912925170068	78	127
249.0912925170068	249.2190022675737	71	127
249.0912925170068	249.2190022675737	62	127
249.23061224489797	249.34671201814058	64	127
249.23061224489797	249.34671201814058	73	127
249.23061224489797	249.34671201814058	70	127
249.34671201814058	249.46281179138322	66	127
249.34671201814058	249.46281179138322	66	127
249.46281179138322	249.60213151927437	71	127
249.46281179138322	249.59052154195012	62	127
249.46281179138322	249.66018140589568	66	127
249.60213151927437	249.66018140589568	61	127
249.67179138321995	249.76467120181405	62	127
249.67179138321995	249.76467120181405	59	127
249.67179138321995	249.76467120181405	78	127
249.76467120181405	249.89238095238096	61	127
249.76467120181405	249.89238095238096	64	127
249.89238095238096	250.00848072562357	62	127
249.89238095238096	250.00848072562357	66	127
249.89238095238096	250.02009070294784	71	127
250.02009070294784	250.1013605442177	74	127
250.02009070294784	250.1013605442177	66	127
250.11297052154194	250.32195011337868	73	127
250.11297052154194	250.20585034013607	67	127
250.11297052154194	250.20585034013607	76	127
250.20585034013607	250.32195011337868	66	127
250.32195011337868	250.43804988662131	64	127
250.32195011337868	250.43804988662131	73	127
250.32195011337868	250.44965986394558	81	127
250.44965986394558	250.55414965986395	74	127
250.44965986394558	250.55414965986395	66	127
250.55414965986395	250.67024943310656	67	127
250.55414965986395	250.67024943310656	76	127
250.55414965986395	250.67024943310656	73	127
250.67024943310656	250.79795918367347	69	127
250.67024943310656	250.79795918367347	69	127
250.79795918367347	250.8792290249433	67	127
250.8792290249433	250.98371882086167	66	127
251.0069387755102	251.12303854875285	64	127
251.12303854875285	251.25074829931972	66	127
251.25074829931972	251.3552380952381	67	127
251.36684807256236	251.482947845805	69	127
251.49455782312924	251.62226757369615	67	127
251.49455782312924	251.7615873015873	67	127
251.62226757369615	251.7615873015873	66	127
251.7615873015873	251.8544671201814	52	127
251.7615873015873	251.8544671201814	64	127
251.8544671201814	251.95895691609977	66	127
251.8544671201814	251.95895691609977	54	127
251.97056689342404	252.10988662131518	67	127
251.97056689342404	252.10988662131518	55	127
252.10988662131518	252.2608163265306	69	127
252.10988662131518	252.2608163265306	57	127
252.2608163265306	252.3885260770975	71	127
252.2608163265306	252.3885260770975	59	127
252.40013605442178	252.50462585034015	69	127
252.40013605442178	252.50462585034015	57	127
252.5162358276644	252.60911564625852	67	127
252.5162358276644	252.60911564625852	55	127
252.60911564625852	252.74843537414966	69	127
252.60911564625852	252.74843537414966	57	127
252.74843537414966	252.80648526077098	59	127
252.74843537414966	252.80648526077098	71	127
252.74843537414966	252.80648526077098	61	127
252.80648526077098	252.8645351473923	62	127
252.80648526077098	252.81809523809522	74	127
252.80648526077098	252.81809523809522	62	127
252.81809523809522	252.8645351473923	73	127
252.81809523809522	252.8645351473923	61	127
252.8645351473923	253.02707482993196	59	127
252.8645351473923	252.94580498866213	71	127
252.8645351473923	252.94580498866213	59	127
252.94580498866213	253.02707482993196	73	127
252.94580498866213	253.02707482993196	61	127
253.03868480725623	253.28249433106575	64	127
253.03868480725623	253.15478458049887	74	127
253.03868480725623	253.15478458049887	62	127
253.15478458049887	253.28249433106575	76	127
253.15478458049887	253.28249433106575	64	127
253.28249433106575	253.50308390022676	66	127
253.28249433106575	253.42181405895693	78	127
253.28249433106575	253.42181405895693	66	127
253.42181405895693	253.50308390022676	64	127
253.42181405895693	253.50308390022676	76	127
253.50308390022676	253.63079365079366	74	127
253.50308390022676	253.63079365079366	62	127
253.6424036281179	253.74689342403627	64	127
253.6424036281179	253.74689342403627	76	127
253.74689342403627	253.8049433106576	78	127
253.74689342403627	253.8049433106576	66	127
253.81655328798186	254.4318820861678	66	127
253.81655328798186	253.8978231292517	81	127
253.81655328798186	253.8978231292517	69	127
253.81655328798186	254.4318820861678	69	127
253.81655328798186	254.4318820861678	78	127
253.81655328798186	254.4318820861678	62	127
253.90943310657596	254.03714285714287	80	127
253.90943310657596	254.03714285714287	68	127
254.03714285714287	254.17646258503402	66	127
254.03714285714287	254.17646258503402	78	127
254.1880725623583	254.29256235827665	68	127
254.1880725623583	254.29256235827665	80	127
254.29256235827665	254.39705215419502	69	127
254.29256235827665	254.39705215419502	81	127
254.39705215419502	254.5247619047619	83	127
254.39705215419502	254.5247619047619	71	127
254.5247619047619	254.6524716553288	69	127
254.5247619047619	254.6524716553288	81	127
254.5247619047619	255.26780045351475	69	127
254.5247619047619	255.26780045351475	78	127
254.5247619047619	255.26780045351475	66	127
254.5247619047619	255.26780045351475	50	127
254.66408163265305	254.79179138321996	80	127
254.66408163265305	254.79179138321996	68	127
254.80340136054423	254.94272108843538	66	127
254.80340136054423	254.94272108843538	78	127
254.94272108843538	255.0936507936508	68	127
254.94272108843538	255.0936507936508	80	127
255.10526077097506	255.22136054421767	69	127
255.10526077097506	255.22136054421767	81	127
255.22136054421767	255.34907029478458	83	127
255.22136054421767	255.34907029478458	71	127
255.36068027210885	255.47678004535146	73	127
255.36068027210885	255.60448979591837	49	127
255.36068027210885	255.47678004535146	85	127
255.36068027210885	255.60448979591837	77	127
255.36068027210885	255.60448979591837	68	127
255.36068027210885	255.60448979591837	73	127
255.47678004535146	255.60448979591837	73	127
255.47678004535146	255.60448979591837	73	127
255.60448979591837	255.70897959183674	73	127
255.60448979591837	255.70897959183674	73	127
255.70897959183674	255.76702947845806	73	127
255.70897959183674	255.76702947845806	73	127
255.76702947845806	255.80185941043084	73	127
255.76702947845806	255.80185941043084	73	127
255.80185941043084	255.94117913832198	61	127
255.80185941043084	255.94117913832198	78	127
255.80185941043084	255.94117913832198	54	127
255.80185941043084	255.94117913832198	70	127
255.80185941043084	255.94117913832198	66	127
255.80185941043084	255.94117913832198	42	127
255.94117913832198	256.0340589569161	54	127
255.94117913832198	256.0340589569161	78	127
256.0456689342404	256.161768707483	54	127
256.0456689342404	256.1733560090703	42	127
256.0456689342404	256.3591383219955	61	127
256.0456689342404	256.161768707483	73	127
256.0456689342404	256.3591383219955	70	127
256.0456689342404	256.3591383219955	66	127
256.1733560090703	256.2198185941043	73	127
256.1733560090703	256.2198185941043	54	127
256.2198185941043	256.3126984126984	73	127
256.2198185941043	256.3126984126984	54	127
256.2198185941043	256.3126984126984	42	127
256.3126984126984	256.4404081632653	73	127
256.3126984126984	256.4404081632653	54	127
256.4520181405896	256.5681179138322	59	127
256.4520181405896	256.55650793650796	74	127
256.4520181405896	256.55650793650796	59	127
256.4520181405896	256.5681179138322	71	127
256.4520181405896	256.5681179138322	66	127
256.4520181405896	256.5681179138322	47	127
256.5681179138322	256.6958276643991	74	127
256.5681179138322	256.6958276643991	59	127
256.6958276643991	256.96285714285716	70	127
256.6958276643991	256.78868480725623	73	127
256.6958276643991	256.78868480725623	54	127
256.6958276643991	256.96285714285716	66	127
256.6958276643991	256.96285714285716	61	127
256.6958276643991	256.96285714285716	42	127
256.78868480725623	256.8931746031746	73	127
256.78868480725623	256.8931746031746	54	127
256.9048072562358	256.96285714285716	54	127
256.9048072562358	256.96285714285716	73	127
256.96285714285716	257.0325170068027	55	127
256.96285714285716	257.0325170068027	71	127
256.96285714285716	257.0325170068027	62	127
256.96285714285716	257.0325170068027	43	127
256.96285714285716	257.0325170068027	59	127
256.96285714285716	257.0325170068027	71	127
257.0325170068027	257.1253968253968	71	127
257.0325170068027	257.1253968253968	55	127
257.1370068027211	257.38081632653063	59	127
257.1370068027211	257.20666666666665	71	127
257.1370068027211	257.20666666666665	53	127
257.1370068027211	257.38081632653063	69	127
257.1370068027211	257.38081632653063	63	127
257.1370068027211	257.38081632653063	41	127
257.2182766439909	257.3575963718821	53	127
257.2182766439909	257.3575963718821	71	127
257.3575963718821	257.3924036281179	71	127
257.3575963718821	257.3924036281179	53	127
257.4040136054422	257.5085260770975	64	127
257.4040136054422	257.4968934240363	76	127
257.4040136054422	257.4968934240363	52	127
257.4040136054422	257.5085260770975	68	127
257.4040136054422	257.5085260770975	40	127
257.4040136054422	257.5085260770975	59	127
257.5085260770975	257.61301587301585	76	127
257.5085260770975	257.61301587301585	52	127
257.61301587301585	258.05419501133787	59	127
257.61301587301585	257.75233560090703	71	127
257.61301587301585	257.75233560090703	52	127
257.61301587301585	257.75233560090703	40	127
257.61301587301585	258.05419501133787	68	127
257.61301587301585	258.05419501133787	64	127
257.75233560090703	257.86843537414967	71	127
257.75233560090703	257.86843537414967	52	127
257.88004535147394	258.00773242630385	71	127
257.88004535147394	258.00773242630385	52	127
257.88004535147394	258.01936507936506	40	127
258.01936507936506	258.14707482993197	71	127
258.01936507936506	258.14707482993197	52	127
258.14707482993197	258.28639455782314	57	127
258.14707482993197	258.28639455782314	72	127
258.14707482993197	258.28639455782314	57	127
258.14707482993197	258.28639455782314	69	127
258.14707482993197	258.28639455782314	64	127
258.14707482993197	258.28639455782314	45	127
258.28639455782314	258.4024943310658	72	127
258.28639455782314	258.4024943310658	57	127
258.41408163265305	258.5418140589569	52	127
258.41408163265305	258.5418140589569	71	127
258.41408163265305	258.8668934240363	68	127
258.41408163265305	258.8668934240363	64	127
258.41408163265305	258.8668934240363	59	127
258.41408163265305	258.8668934240363	40	127
258.55342403628117	258.6811337868481	71	127
258.55342403628117	258.6811337868481	52	127
258.6811337868481	258.82045351473926	52	127
258.6811337868481	258.82045351473926	71	127
258.82045351473926	258.91333333333336	52	127
258.82045351473926	258.91333333333336	71	127
258.9249206349206	259.0526530612245	53	127
258.9249206349206	259.06426303854875	69	127
258.9249206349206	259.06426303854875	60	127
258.9249206349206	259.06426303854875	41	127
258.9249206349206	259.06426303854875	57	127
258.9249206349206	259.0526530612245	69	127
259.06426303854875	259.19197278911565	69	127
259.06426303854875	259.19197278911565	53	127
259.19197278911565	259.5518820861678	57	127
259.19197278911565	259.3428798185941	69	127
259.19197278911565	259.3428798185941	51	127
259.19197278911565	259.5518820861678	67	127
259.19197278911565	259.5518820861678	61	127
259.19197278911565	259.5518820861678	39	127
259.3428798185941	259.4009523809524	69	127
259.3428798185941	259.4009523809524	51	127
259.41256235827666	259.517052154195	51	127
259.41256235827666	259.517052154195	69	127
259.5286621315193	259.64473922902494	69	127
259.5286621315193	259.64473922902494	51	127
259.64473922902494	259.7724716553288	38	127
259.64473922902494	259.7724716553288	74	127
259.64473922902494	259.7724716553288	50	127
259.64473922902494	259.7724716553288	66	127
259.64473922902494	259.7724716553288	57	127
259.64473922902494	259.7724716553288	62	127
259.7724716553288	259.9001814058957	74	127
259.7724716553288	259.9001814058957	50	127
259.91179138321996	260.03950113378687	69	127
259.91179138321996	260.03950113378687	50	127
259.91179138321996	260.05108843537414	38	127
259.91179138321996	260.352970521542	66	127
259.91179138321996	260.352970521542	62	127
259.91179138321996	260.352970521542	57	127
260.05108843537414	260.1672108843537	50	127
260.05108843537414	260.1672108843537	69	127
260.1672108843537	260.3065306122449	69	127
260.1672108843537	260.3065306122449	38	127
260.1672108843537	260.3065306122449	50	127
260.3065306122449	260.4342403628118	50	127
260.3065306122449	260.4342403628118	69	127
260.4458503401361	260.573537414966	43	127
260.4458503401361	260.573537414966	70	127
260.4458503401361	260.573537414966	55	127
260.4458503401361	260.573537414966	64	127
260.4458503401361	260.573537414966	61	127
260.4458503401361	260.573537414966	55	127
260.573537414966	260.70126984126983	55	127
260.573537414966	260.70126984126983	70	127
260.70126984126983	261.08437641723356	57	127
260.70126984126983	261.08437641723356	66	127
260.70126984126983	261.08437641723356	38	127
260.70126984126983	260.79414965986393	69	127
260.70126984126983	260.79414965986393	50	127
260.70126984126983	261.08437641723356	62	127
260.8057596371882	260.92185941043084	50	127
260.8057596371882	260.92185941043084	69	127
260.9334693877551	261.0379591836735	50	127
260.9334693877551	261.0379591836735	69	127
261.0379591836735	261.17725623582766	69	127
261.0379591836735	261.17725623582766	50	127
261.17725623582766	261.3165986394558	57	127
261.17725623582766	261.3165986394558	67	127
261.17725623582766	261.3165986394558	57	127
261.17725623582766	261.3165986394558	69	127
261.17725623582766	261.3165986394558	39	127
261.17725623582766	261.3049886621315	73	127
261.17725623582766	261.3049886621315	51	127
261.3165986394558	261.4326984126984	73	127
261.3165986394558	261.4326984126984	51	127
261.4443083900227	261.82743764172335	38	127
261.4443083900227	261.54879818594105	74	127
261.4443083900227	261.54879818594105	50	127
261.4443083900227	261.82743764172335	66	127
261.4443083900227	261.82743764172335	57	127
261.4443083900227	261.82743764172335	69	127
261.4443083900227	261.82743764172335	62	127
261.4443083900227	261.82743764172335	57	127
261.54879818594105	261.67650793650796	74	127
261.54879818594105	261.67650793650796	50	127
261.67650793650796	261.76938775510206	74	127
261.67650793650796	261.76938775510206	50	127
261.78099773242633	261.89707482993197	50	127
261.78099773242633	261.89707482993197	74	127
261.9087074829932	262.0364172335601	43	127
261.9087074829932	262.0364172335601	82	127
261.9087074829932	262.0364172335601	64	127
261.9087074829932	262.0364172335601	73	127
261.9087074829932	262.0364172335601	64	127
261.9087074829932	262.0364172335601	55	127
261.9087074829932	262.0364172335601	70	127
262.0364172335601	262.164126984127	82	127
262.0364172335601	262.164126984127	64	127
262.0364172335601	262.164126984127	73	127
262.0364172335601	262.164126984127	64	127
262.0364172335601	262.164126984127	55	127
262.164126984127	262.2918367346939	66	127
262.164126984127	262.2918367346939	50	127
262.164126984127	262.6168934240363	69	127
262.164126984127	262.6168934240363	38	127
262.164126984127	262.2918367346939	81	127
262.164126984127	262.2918367346939	66	127
262.164126984127	262.2918367346939	74	127
262.30342403628117	262.431156462585	81	127
262.30342403628117	262.431156462585	66	127
262.30342403628117	262.431156462585	74	127
262.30342403628117	262.431156462585	66	127
262.30342403628117	262.431156462585	50	127
262.4427664399093	262.5704761904762	81	127
262.4427664399093	262.5704761904762	66	127
262.4427664399093	262.5704761904762	74	127
262.4427664399093	262.5704761904762	66	127
262.4427664399093	262.5704761904762	50	127
262.5704761904762	262.7097732426304	74	127
262.5704761904762	262.7097732426304	50	127
262.5704761904762	262.7097732426304	81	127
262.5704761904762	262.7097732426304	66	127
262.5704761904762	262.7097732426304	66	127
262.7097732426304	262.8026757369615	51	127
262.7097732426304	262.8026757369615	69	127
262.7097732426304	262.8026757369615	85	127
262.7097732426304	262.8026757369615	79	127
262.7097732426304	262.8026757369615	69	127
262.7097732426304	262.81426303854875	73	127
262.7097732426304	262.81426303854875	39	127
262.81426303854875	262.90716553287984	51	127
262.81426303854875	262.90716553287984	69	127
262.81426303854875	262.90716553287984	85	127
262.81426303854875	262.90716553287984	69	127
262.81426303854875	262.90716553287984	79	127
262.9187528344671	263.31351473922905	38	127
262.9187528344671	263.0348752834467	86	127
262.9187528344671	263.0348752834467	69	127
262.9187528344671	263.0348752834467	78	127
262.9187528344671	263.0348752834467	69	127
262.9187528344671	263.0348752834467	50	127
262.9187528344671	263.31351473922905	74	127
263.0348752834467	263.15097505668933	78	127
263.0348752834467	263.15097505668933	69	127
263.0348752834467	263.15097505668933	86	127
263.0348752834467	263.15097505668933	69	127
263.0348752834467	263.15097505668933	50	127
263.15097505668933	263.27868480725624	50	127
263.15097505668933	263.27868480725624	78	127
263.15097505668933	263.27868480725624	86	127
263.15097505668933	263.27868480725624	69	127
263.15097505668933	263.27868480725624	69	127
263.27868480725624	263.3947845804989	86	127
263.27868480725624	263.3947845804989	50	127
263.27868480725624	263.3947845804989	69	127
263.27868480725624	263.3947845804989	78	127
263.27868480725624	263.3947845804989	69	127
263.40639455782315	263.53408163265306	67	127
263.40639455782315	263.62698412698415	75	127
263.40639455782315	263.53408163265306	77	127
263.40639455782315	263.53408163265306	87	127
263.40639455782315	263.53408163265306	71	127
263.40639455782315	263.53408163265306	55	127
263.40639455782315	263.53408163265306	43	127
263.53408163265306	263.62698412698415	71	127
263.53408163265306	263.62698412698415	67	127
263.53408163265306	263.62698412698415	77	127
263.53408163265306	263.62698412698415	87	127
263.53408163265306	263.62698412698415	55	127
263.62698412698415	263.754693877551	76	127
263.62698412698415	263.754693877551	72	127
263.62698412698415	263.754693877551	48	127
263.62698412698415	264.0797732426304	76	127
263.62698412698415	264.0797732426304	36	127
263.62698412698415	263.754693877551	88	127
263.62698412698415	263.754693877551	67	127
263.7663038548753	263.8940136054422	72	127
263.7663038548753	263.8940136054422	88	127
263.7663038548753	263.8940136054422	67	127
263.7663038548753	263.8940136054422	76	127
263.7663038548753	263.8940136054422	48	127
263.90562358276645	264.03333333333336	76	127
263.90562358276645	264.03333333333336	88	127
263.90562358276645	264.03333333333336	67	127
263.90562358276645	264.03333333333336	72	127
263.90562358276645	264.03333333333336	48	127
264.03333333333336	264.13782312925173	72	127
264.03333333333336	264.13782312925173	88	127
264.03333333333336	264.13782312925173	67	127
264.03333333333336	264.13782312925173	76	127
264.03333333333336	264.13782312925173	48	127
264.13782312925173	264.3816326530612	77	127
264.13782312925173	264.27714285714285	48	127
264.13782312925173	264.2655328798186	80	127
264.13782312925173	264.2655328798186	71	127
264.13782312925173	264.2655328798186	60	127
264.13782312925173	264.2655328798186	89	127
264.27714285714285	264.3816326530612	71	127
264.27714285714285	264.3816326530612	60	127
264.27714285714285	264.3816326530612	80	127
264.27714285714285	264.3816326530612	89	127
264.3932426303855	264.5209523809524	88	127
264.3932426303855	264.84603174603177	76	127
264.3932426303855	264.84603174603177	36	127
264.3932426303855	264.5209523809524	79	127
264.3932426303855	264.5209523809524	72	127
264.3932426303855	264.5209523809524	48	127
264.5209523809524	264.66024943310657	88	127
264.5209523809524	264.66024943310657	79	127
264.5209523809524	264.66024943310657	72	127
264.5209523809524	264.66024943310657	48	127
264.66024943310657	264.7879818594104	88	127
264.66024943310657	264.7879818594104	79	127
264.66024943310657	264.7879818594104	72	127
264.66024943310657	264.7879818594104	48	127
264.7995918367347	264.9273015873016	88	127
264.7995918367347	264.9273015873016	79	127
264.7995918367347	264.9273015873016	48	127
264.7995918367347	264.9273015873016	72	127
264.93891156462587	265.0550113378685	60	127
264.93891156462587	265.0550113378685	48	127
264.93891156462587	265.0550113378685	90	127
264.93891156462587	265.0550113378685	81	127
264.93891156462587	265.0550113378685	71	127
264.93891156462587	265.1595011337869	78	127
265.0550113378685	265.1595011337869	71	127
265.0550113378685	265.1595011337869	81	127
265.0550113378685	265.1595011337869	90	127
265.0550113378685	265.1595011337869	60	127
265.1595011337869	265.4845804988662	76	127
265.1595011337869	265.22916099773244	72	127
265.1595011337869	265.22916099773244	48	127
265.1595011337869	265.4845804988662	36	127
265.1595011337869	265.22916099773244	88	127
265.1595011337869	265.22916099773244	79	127
265.2407709750567	265.31043083900227	88	127
265.2407709750567	265.31043083900227	79	127
265.2407709750567	265.31043083900227	72	127
265.2407709750567	265.31043083900227	48	127
265.32204081632653	265.4381405895692	88	127
265.32204081632653	265.4381405895692	79	127
265.32204081632653	265.4381405895692	72	127
265.32204081632653	265.4381405895692	48	127
265.4381405895692	265.5658503401361	79	127
265.4381405895692	265.5658503401361	48	127
265.4381405895692	265.5658503401361	88	127
265.4381405895692	265.5658503401361	72	127
265.5658503401361	265.69356009070293	88	127
265.5658503401361	265.69356009070293	84	127
265.5658503401361	265.82126984126984	69	127
265.5658503401361	265.82126984126984	78	127
265.5658503401361	265.82126984126984	62	127
265.5658503401361	265.82126984126984	72	127
265.5658503401361	265.82126984126984	50	127
265.5658503401361	265.82126984126984	38	127
265.69356009070293	265.82126984126984	84	127
265.69356009070293	265.82126984126984	88	127
265.8328798185941	265.960589569161	88	127
265.8328798185941	265.960589569161	84	127
265.960589569161	266.0302494331066	84	127
265.960589569161	266.0302494331066	88	127
266.0302494331066	266.04185941043085	69	127
266.0302494331066	266.04185941043085	66	127
266.04185941043085	266.1463492063492	69	127
266.04185941043085	266.1463492063492	66	127
266.1463492063492	266.2392290249433	66	127
266.1463492063492	266.2392290249433	69	127
266.2392290249433	266.2740589569161	69	127
266.2392290249433	266.2740589569161	66	127
266.2740589569161	266.39013605442176	66	127
266.2740589569161	266.39013605442176	69	127
266.401768707483	266.4946258503401	74	127
266.401768707483	266.4946258503401	59	127
266.50625850340134	266.5643083900227	59	127
266.50625850340134	266.5643083900227	74	127
266.5643083900227	266.6920181405896	59	127
266.5643083900227	266.6920181405896	74	127
266.6920181405896	266.76167800453516	74	127
266.6920181405896	266.76167800453516	59	127
266.7732879818594	266.90097505668933	74	127
266.7732879818594	266.90097505668933	59	127
266.91260770975055	267.04031746031745	74	127
266.91260770975055	267.04031746031745	59	127
267.04031746031745	267.1564172335601	55	127
267.04031746031745	267.1564172335601	52	127
267.1564172335601	267.284126984127	55	127
267.1564172335601	267.284126984127	52	127
267.29573696145127	267.4234240362812	52	127
267.29573696145127	267.4234240362812	55	127
267.4350566893424	267.5627664399093	55	127
267.4350566893424	267.5627664399093	52	127
267.5627664399093	267.6904761904762	52	127
267.5627664399093	267.6904761904762	55	127
267.6904761904762	267.77174603174603	55	127
267.6904761904762	267.77174603174603	52	127
267.7833560090703	267.89945578231294	57	127
267.7833560090703	267.89945578231294	60	127
267.9110657596372	268.02714285714285	60	127
267.9110657596372	268.02714285714285	57	127
268.02714285714285	268.16648526077097	57	127
268.02714285714285	268.16648526077097	60	127
268.16648526077097	268.2245351473923	60	127
268.16648526077097	268.2245351473923	57	127
268.2361224489796	268.3290249433107	57	127
268.2361224489796	268.3290249433107	60	127
268.34061224489795	268.4683446712018	60	127
268.34061224489795	268.4683446712018	57	127
268.4683446712018	268.5960544217687	38	127
268.4683446712018	268.5960544217687	54	127
268.5960544217687	268.7005442176871	54	127
268.5960544217687	268.7005442176871	38	127
268.71215419501135	268.828253968254	54	127
268.71215419501135	268.828253968254	38	127
268.83986394557826	268.9675736961451	54	127
268.83986394557826	268.9675736961451	38	127
268.9675736961451	269.048820861678	54	127
268.9675736961451	269.048820861678	38	127
269.048820861678	269.15331065759636	38	127
269.048820861678	269.15331065759636	54	127
269.1649433106576	269.2926530612245	86	127
269.1649433106576	269.2926530612245	74	127
269.30426303854875	269.43197278911566	74	127
269.30426303854875	269.43197278911566	86	127
269.43197278911566	269.46678004535147	86	127
269.43197278911566	269.46678004535147	74	127
269.46678004535147	269.5132426303855	74	127
269.46678004535147	269.5132426303855	86	127
269.52485260770976	269.5712925170068	86	127
269.52485260770976	269.5712925170068	74	127
269.5712925170068	269.66414965986394	74	127
269.5712925170068	269.66414965986394	86	127
269.66414965986394	269.7802721088435	63	127
269.66414965986394	269.7802721088435	51	127
269.7802721088435	269.89637188208616	51	127
269.7802721088435	269.89637188208616	63	127
269.9079818594104	270.0008616780045	63	127
269.9079818594104	270.0008616780045	51	127
270.0124716553288	270.08213151927436	51	127
270.0124716553288	270.08213151927436	63	127
270.08213151927436	270.22145124716553	63	127
270.08213151927436	270.22145124716553	51	127
270.22145124716553	270.34916099773244	51	127
270.22145124716553	270.34916099773244	63	127
270.3607709750567	270.44204081632654	60	127
270.3607709750567	270.44204081632654	72	127
270.4536507936508	270.5465306122449	72	127
270.4536507936508	270.5465306122449	60	127
270.5465306122449	270.61619047619047	72	127
270.5465306122449	270.61619047619047	60	127
270.61619047619047	270.72068027210884	60	127
270.61619047619047	270.72068027210884	72	127
270.7322902494331	270.86	72	127
270.7322902494331	270.86	60	127
270.8716099773243	270.9992970521542	60	127
270.8716099773243	270.9992970521542	72	127
270.9992970521542	271.1154195011338	38	127
270.9992970521542	271.1154195011338	50	127
271.12702947845804	271.20829931972787	38	127
271.12702947845804	271.20829931972787	50	127
271.21990929705214	271.301156462585	38	127
271.21990929705214	271.301156462585	50	127
271.301156462585	271.3940589569161	38	127
271.301156462585	271.3940589569161	50	127
271.4056462585034	271.521768707483	50	127
271.4056462585034	271.521768707483	38	127
271.53337868480725	271.60301587301586	38	127
271.53337868480725	271.60301587301586	50	127
271.60301587301586	271.742358276644	46	127
271.60301587301586	271.742358276644	58	127
271.742358276644	271.8584580498866	46	127
271.742358276644	271.8584580498866	58	127
271.8700680272109	271.97455782312926	46	127
271.8700680272109	271.97455782312926	58	127
271.98616780045353	272.1254648526077	46	127
271.98616780045353	272.1254648526077	58	127
272.1370975056689	272.2648072562358	46	127
272.1370975056689	272.2648072562358	58	127
272.2764172335601	272.404126984127	58	127
272.2764172335601	272.404126984127	46	127
272.4157369614513	272.5434467120181	49	127
272.4157369614513	272.5434467120181	37	127
272.5434467120181	272.6827664399093	37	127
272.5434467120181	272.6827664399093	49	127
272.6827664399093	272.78725623582767	37	127
272.6827664399093	272.78725623582767	49	127
272.78725623582767	272.92657596371885	37	127
272.78725623582767	272.92657596371885	49	127
272.9381632653061	273.07750566893424	37	127
272.9381632653061	273.07750566893424	49	127
273.0891156462585	273.2284353741497	37	127
273.0891156462585	273.2284353741497	49	127
273.2284353741497	273.4954648526077	54	127
273.2284353741497	273.4954648526077	62	127
273.4954648526077	273.73927437641726	55	127
273.4954648526077	273.73927437641726	64	127
273.73927437641726	273.95984126984126	66	127
273.73927437641726	273.95984126984126	57	127
273.95984126984126	274.56358276643994	67	127
273.95984126984126	274.56358276643994	58	127
273.95984126984126	274.0063038548753	74	127
274.0063038548753	274.0991836734694	62	127
274.0991836734694	274.215283446712	74	127
274.215283446712	274.3546031746032	62	127
274.3546031746032	274.48231292517005	74	127
274.48231292517005	274.56358276643994	62	127
274.56358276643994	275.10925170068026	57	127
274.56358276643994	275.10925170068026	65	127
274.56358276643994	274.6680725623583	50	127
274.6680725623583	274.8073922902494	62	127
274.8073922902494	274.9118820861678	50	127
274.9118820861678	275.01637188208616	62	127
275.01637188208616	275.06281179138324	50	127
275.06281179138324	275.1673015873016	62	127
275.1789115646259	275.3995011337868	63	127
275.1789115646259	275.3995011337868	55	127
275.3995011337868	275.6781405895692	65	127
275.3995011337868	275.6781405895692	57	127
275.6781405895692	275.9451700680272	63	127
275.6781405895692	275.9451700680272	55	127
275.9451700680272	276.0844897959184	74	127
275.9451700680272	276.18897959183676	54	127
275.9451700680272	276.3863492063492	62	127
276.0844897959184	276.18897959183676	62	127
276.18897959183676	276.2586394557823	74	127
276.18897959183676	276.3863492063492	57	127
276.2586394557823	276.3863492063492	62	127
276.3863492063492	276.641768707483	62	127
276.3863492063492	276.641768707483	66	127
276.3863492063492	276.51403628117913	74	127
276.51403628117913	276.641768707483	62	127
276.641768707483	277.88403628117914	66	127
276.641768707483	276.7578684807256	48	127
276.641768707483	279.4281632653061	69	127
276.7578684807256	276.8855782312925	60	127
276.8855782312925	276.9552380952381	48	127
276.9552380952381	277.09455782312926	60	127
277.09455782312926	277.2106575963719	48	127
277.2106575963719	277.31514739229027	60	127
277.31514739229027	277.38480725623583	75	127
277.38480725623583	277.524126984127	63	127
277.524126984127	277.65183673469386	75	127
277.65183673469386	277.69827664399094	63	127
277.69827664399094	277.8375963718821	75	127
277.8375963718821	277.95367346938775	63	127
277.96530612244896	278.05818594104306	41	127
277.96530612244896	278.47614512471654	63	127
277.96530612244896	278.47614512471654	60	127
278.05818594104306	278.19750566893424	48	127
278.19750566893424	278.3368253968254	41	127
278.3368253968254	278.47614512471654	48	127
278.47614512471654	278.5806349206349	41	127
278.47614512471654	278.7083446712018	65	127
278.47614512471654	278.7083446712018	62	127
278.5806349206349	278.7083446712018	48	127
278.7083446712018	278.95215419501136	63	127
278.7083446712018	278.95215419501136	66	127
278.7083446712018	278.847664399093	69	127
278.847664399093	278.95215419501136	63	127
278.95215419501136	279.1611337868481	65	127
278.95215419501136	279.0334240362812	69	127
278.95215419501136	279.1611337868481	62	127
279.0334240362812	279.1611337868481	62	127
279.1611337868481	279.4281632653061	60	127
279.1611337868481	279.4281632653061	63	127
279.1611337868481	279.3004535147392	69	127
279.3004535147392	279.4281632653061	60	127
279.4281632653061	279.8809523809524	58	127
279.4281632653061	279.7068027210884	70	127
279.4281632653061	279.7068027210884	62	127
279.4281632653061	279.69519274376415	65	127
279.7068027210884	279.96222222222224	72	127
279.7068027210884	279.96222222222224	63	127
279.96222222222224	280.24086167800453	74	127
279.96222222222224	280.24086167800453	65	127
280.24086167800453	280.92585034013604	75	127
280.24086167800453	280.92585034013604	67	127
280.24086167800453	280.3801814058957	82	127
280.3801814058957	280.5078684807256	70	127
280.5078684807256	280.63560090702947	82	127
280.63560090702947	280.6704308390023	70	127
280.6704308390023	280.7981405895692	82	127
280.7981405895692	280.92585034013604	70	127
280.92585034013604	281.6572789115646	74	127
280.92585034013604	281.0651700680272	58	127
280.92585034013604	281.6572789115646	65	127
281.0651700680272	281.2044897959184	70	127
281.2044897959184	281.3438095238095	58	127
281.3438095238095	281.4715192743764	70	127
281.4715192743764	281.6108390022676	58	127
281.6108390022676	281.73854875283445	70	127
281.7501587301587	282.0171882086168	63	127
281.7501587301587	282.0171882086168	72	127
282.0171882086168	282.28421768707483	65	127
282.0171882086168	282.28421768707483	74	127
282.28421768707483	282.5512244897959	72	127
282.28421768707483	282.5512244897959	63	127
282.5512244897959	283.13174603174605	70	127
282.5512244897959	282.7021768707483	82	127
282.5512244897959	282.8414965986395	62	127
282.7021768707483	282.8414965986395	70	127
282.8414965986395	283.13174603174605	65	127
282.8414965986395	282.9808163265306	82	127
282.9808163265306	283.13174603174605	70	127
283.13174603174605	283.41038548752834	70	127
283.13174603174605	283.27106575963717	82	127
283.13174603174605	283.41038548752834	74	127
283.27106575963717	283.3987755102041	70	127
283.41038548752834	285.6975510204082	77	127
283.41038548752834	284.1534240362812	74	127
283.41038548752834	283.5497052154195	56	127
283.5497052154195	283.67739229024943	68	127
283.67739229024943	283.81673469387755	56	127
283.81673469387755	283.94444444444446	68	127
283.94444444444446	284.08374149659863	56	127
284.08374149659863	284.1069841269841	83	127
284.1069841269841	284.22308390022675	71	127
284.234693877551	284.76875283446714	68	127
284.234693877551	284.3740136054422	49	127
284.234693877551	284.76875283446714	71	127
284.3740136054422	284.49009070294784	56	127
284.49009070294784	284.62943310657596	49	127
284.62943310657596	284.76875283446714	56	127
284.76875283446714	285.03578231292516	69	127
284.76875283446714	284.90807256235826	49	127
284.76875283446714	285.03578231292516	73	127
284.90807256235826	285.03578231292516	56	127
285.03578231292516	285.1634920634921	77	127
285.03578231292516	285.2447619047619	74	127
285.03578231292516	285.2447619047619	71	127
285.1634920634921	285.2447619047619	71	127
285.2447619047619	285.3840816326531	77	127
285.2447619047619	285.511768707483	69	127
285.2447619047619	285.511768707483	73	127
285.3840816326531	285.511768707483	69	127
285.511768707483	285.6975510204082	71	127
285.511768707483	285.70916099773245	68	127
285.511768707483	285.5698412698413	77	127
285.5698412698413	285.6975510204082	68	127
285.70916099773245	286.0690702947846	69	127
285.70916099773245	286.0690702947846	73	127
285.70916099773245	286.0690702947846	78	127
285.70916099773245	285.9297505668934	68	127
285.9297505668934	286.1270975056689	57	127
286.1270975056689	286.3477097505669	61	127
286.3477097505669	286.89337868480726	69	127
286.3477097505669	286.48702947845806	50	127
286.3477097505669	286.89337868480726	72	127
286.3477097505669	286.89337868480726	66	127
286.48702947845806	286.62634920634923	57	127
286.62634920634923	286.7540589569161	50	127
286.7540589569161	286.89337868480726	57	127
286.89337868480726	287.7873469387755	66	127
286.89337868480726	287.03269841269844	50	127
286.89337868480726	287.17201814058956	74	127
286.89337868480726	287.17201814058956	70	127
287.03269841269844	287.1604081632653	57	127
287.17201814058956	287.43904761904764	72	127
287.17201814058956	287.29972789115646	62	127
287.17201814058956	287.43904761904764	75	127
287.29972789115646	287.43904761904764	74	127
287.43904761904764	287.70607709750567	74	127
287.43904761904764	287.5667573696145	62	127
287.43904761904764	287.70607709750567	70	127
287.5667573696145	287.70607709750567	74	127
287.70607709750567	287.9150566893424	72	127
287.70607709750567	288.1704535147392	69	127
287.70607709750567	287.7873469387755	62	127
287.7873469387755	287.9150566893424	74	127
287.9150566893424	288.58843537414964	71	127
287.9150566893424	288.3330158730159	62	127
288.18208616780043	288.42589569161	62	127
288.42589569161	288.58843537414964	66	127
288.58843537414964	289.2037641723356	70	127
288.58843537414964	289.2037641723356	67	127
288.58843537414964	288.7045351473923	50	127
288.7045351473923	288.8206349206349	55	127
288.8206349206349	288.8554648526077	50	127
288.8206349206349	288.9947619047619	55	127
288.8554648526077	288.9947619047619	55	127
288.9947619047619	289.2037641723356	62	127
288.9947619047619	289.12249433106575	50	127
289.12249433106575	289.2037641723356	55	127
289.2037641723356	289.47079365079367	65	127
289.2037641723356	289.47079365079367	68	127
289.2037641723356	289.3314739229025	55	127
289.2037641723356	289.85392290249433	59	127
289.3314739229025	289.47079365079367	67	127
289.47079365079367	289.6797732426304	63	127
289.47079365079367	289.5868934240363	55	127
289.47079365079367	289.6797732426304	67	127
289.5868934240363	289.6797732426304	67	127
289.6797732426304	290.10931972789115	62	127
289.6797732426304	289.8074603174603	55	127
289.6797732426304	289.9119501133787	65	127
289.8074603174603	289.9119501133787	67	127
289.9119501133787	290.26027210884354	55	127
289.9119501133787	290.57374149659864	64	127
290.10931972789115	290.3299319727891	55	127
290.3299319727891	290.57374149659864	59	127
290.57374149659864	290.7130612244898	43	127
290.57374149659864	291.60702947845806	60	127
290.57374149659864	291.60702947845806	63	127
290.7130612244898	290.84077097505667	48	127
290.84077097505667	290.94526077097504	43	127
290.84077097505667	291.07297052154195	48	127
290.94526077097504	291.07297052154195	48	127
291.07297052154195	291.35160997732424	55	127
291.07297052154195	291.2122902494331	43	127
291.2122902494331	291.33997732426303	48	127
291.35160997732424	291.8508163265306	54	127
291.60702947845806	291.8508163265306	62	127
291.60702947845806	291.8508163265306	58	127
291.8508163265306	292.07142857142856	60	127
291.8508163265306	292.07142857142856	60	127
291.8508163265306	292.07142857142856	56	127
292.07142857142856	292.7331972789116	67	127
292.07142857142856	292.29201814058956	55	127
292.07142857142856	292.41972789115647	59	127
292.29201814058956	292.5009977324263	55	127
292.5009977324263	292.7331972789116	59	127
292.7331972789116	293.88258503401363	60	127
292.7331972789116	293.88258503401363	63	127
292.7331972789116	292.88412698412696	43	127
292.88412698412696	293.02344671201814	48	127
293.02344671201814	293.3136961451247	48	127
293.02344671201814	293.1743537414966	43	127
293.1743537414966	293.3136961451247	48	127
293.3136961451247	293.59231292517006	60	127
293.3136961451247	293.4530158730159	43	127
293.4530158730159	293.59231292517006	48	127
293.59231292517006	294.3585941043084	54	127
293.88258503401363	294.1612244897959	58	127
293.88258503401363	294.1612244897959	62	127
294.1612244897959	294.4514739229025	56	127
294.1612244897959	294.4514739229025	60	127
294.4514739229025	294.9042630385488	43	127
294.4514739229025	294.9042630385488	55	127
294.4514739229025	294.7301133786848	55	127
294.4514739229025	294.7301133786848	47	127
294.4514739229025	294.9042630385488	67	127
294.7301133786848	294.9971428571429	48	127
294.7301133786848	294.9971428571429	57	127
294.9971428571429	295.24095238095236	43	127
294.9971428571429	295.24095238095236	55	127
294.9971428571429	295.25256235827663	59	127
294.9971428571429	295.25256235827663	50	127
295.25256235827663	296.018820861678	52	127
295.25256235827663	296.018820861678	60	127
295.25256235827663	295.69374149659865	55	127
295.25256235827663	295.69374149659865	43	127
295.7750113378685	296.018820861678	43	127
295.7750113378685	296.018820861678	55	127
296.018820861678	296.46	55	127
296.018820861678	296.46	43	127
296.018820861678	296.7502494331066	59	127
296.018820861678	296.7502494331066	50	127
296.55285714285714	296.8431292517007	55	127
296.55285714285714	296.8431292517007	43	127
296.854716553288	297.31913832199547	43	127
296.854716553288	297.31913832199547	55	127
296.854716553288	297.14498866213154	57	127
296.854716553288	297.14498866213154	48	127
297.14498866213154	297.41201814058957	50	127
297.14498866213154	297.41201814058957	59	127
297.41201814058957	297.70226757369613	55	127
297.41201814058957	297.7138775510204	48	127
297.41201814058957	297.70226757369613	57	127
297.41201814058957	297.70226757369613	43	127
297.7138775510204	298.14344671201815	43	127
297.7138775510204	298.23632653061225	47	127
297.7138775510204	298.14344671201815	55	127
297.7138775510204	298.23632653061225	55	127
298.23632653061225	298.45691609977325	55	127
298.23632653061225	298.45691609977325	43	127
298.23632653061225	298.45691609977325	59	127
298.23632653061225	298.45691609977325	50	127
298.45691609977325	298.8748752834467	50	127
298.45691609977325	299.1302947845805	62	127
298.45691609977325	298.8748752834467	57	127
298.45691609977325	298.8748752834467	42	127
298.95614512471656	299.21154195011337	42	127
298.95614512471656	299.21154195011337	50	127
298.95614512471656	299.21154195011337	57	127
299.2231746031746	299.6295238095238	48	127
299.2231746031746	299.45537414965986	62	127
299.2231746031746	299.6295238095238	50	127
299.2231746031746	299.6295238095238	57	127
299.45537414965986	299.73401360544216	64	127
299.73401360544216	300.00104308390024	57	127
299.73401360544216	300.00104308390024	66	127
299.73401360544216	300.00104308390024	62	127
299.73401360544216	300.00104308390024	48	127
300.00104308390024	300.45383219954647	55	127
300.00104308390024	300.77891156462584	67	127
300.00104308390024	300.45383219954647	62	127
300.00104308390024	300.45383219954647	47	127
300.5234920634921	300.7673015873016	55	127
300.5234920634921	300.7673015873016	50	127
300.5234920634921	300.7673015873016	47	127
300.77891156462584	301.18526077097505	54	127
300.77891156462584	301.4290702947846	62	127
300.77891156462584	301.18526077097505	62	127
300.77891156462584	301.18526077097505	45	127
301.27814058956915	301.49873015873015	45	127
301.27814058956915	301.49873015873015	54	127
301.27814058956915	301.49873015873015	50	127
301.49873015873015	301.8934693877551	50	127
301.49873015873015	301.56836734693877	59	127
301.49873015873015	301.8934693877551	55	127
301.49873015873015	301.8934693877551	43	127
301.56836734693877	301.6148299319728	60	127
301.6148299319728	301.73092970521543	59	127
301.73092970521543	301.9863492063492	57	127
301.9863492063492	302.2533786848073	50	127
301.9863492063492	302.2533786848073	59	127
301.9863492063492	302.2533786848073	43	127
301.9863492063492	302.26498866213154	55	127
302.26498866213154	302.71777777777777	50	127
302.26498866213154	303.54208616780045	62	127
302.26498866213154	302.71777777777777	42	127
302.26498866213154	302.71777777777777	57	127
302.7990476190476	303.0544671201814	50	127
302.7990476190476	303.0544671201814	57	127
302.7990476190476	303.0544671201814	42	127
303.0544671201814	303.4608163265306	52	127
303.0544671201814	303.4608163265306	57	127
303.0544671201814	303.4608163265306	45	127
303.54208616780045	303.78589569161	45	127
303.54208616780045	303.78589569161	61	127
303.54208616780045	303.78589569161	57	127
303.54208616780045	303.78589569161	52	127
303.79750566893426	304.18063492063493	45	127
303.79750566893426	304.006485260771	54	127
303.79750566893426	304.18063492063493	57	127
303.79750566893426	304.006485260771	62	127
304.006485260771	304.27351473922903	64	127
304.006485260771	304.27351473922903	55	127
304.27351473922903	304.54054421768706	48	127
304.27351473922903	304.54054421768706	57	127
304.27351473922903	304.54054421768706	66	127
304.27351473922903	304.54054421768706	50	127
304.54054421768706	304.9701133786848	50	127
304.54054421768706	305.0629931972789	67	127
304.54054421768706	304.9701133786848	47	127
304.54054421768706	304.8191836734694	62	127
304.8191836734694	305.0629931972789	59	127
305.0629931972789	305.3184126984127	50	127
305.0629931972789	305.3184126984127	47	127
305.0629931972789	305.3184126984127	62	127
305.0629931972789	305.3184126984127	55	127
305.3184126984127	305.71315192743765	50	127
305.3184126984127	305.71315192743765	55	127
305.3184126984127	305.71315192743765	43	127
305.3184126984127	305.376462585034	59	127
305.376462585034	305.43451247165535	60	127
305.43451247165535	305.5622222222222	59	127
305.5622222222222	305.7944217687075	57	127
305.7944217687075	306.0498412698413	55	127
305.7944217687075	306.0498412698413	43	127
305.7944217687075	306.0498412698413	50	127
305.7944217687075	306.0498412698413	55	127
306.0498412698413	306.479410430839	40	127
306.0498412698413	306.57226757369614	59	127
306.0498412698413	306.30526077097505	55	127
306.0498412698413	306.479410430839	55	127
306.30526077097505	306.57226757369614	59	127
306.57226757369614	306.8277097505669	59	127
306.57226757369614	306.8277097505669	61	127
306.57226757369614	306.8277097505669	55	127
306.57226757369614	306.8277097505669	40	127
306.83931972789117	307.25727891156464	52	127
306.83931972789117	307.25727891156464	59	127
306.83931972789117	308.16285714285715	61	127
306.83931972789117	307.25727891156464	43	127
307.35015873015874	307.5939455782313	43	127
307.35015873015874	307.5939455782313	52	127
307.35015873015874	307.5939455782313	59	127
307.5939455782313	308.06997732426305	42	127
307.5939455782313	307.8726077097506	57	127
307.5939455782313	308.06997732426305	57	127
307.8726077097506	308.16285714285715	61	127
308.16285714285715	308.4066666666667	57	127
308.16285714285715	308.4066666666667	42	127
308.16285714285715	308.4066666666667	61	127
308.16285714285715	308.4066666666667	62	127
308.41825396825396	308.91750566893427	54	127
308.41825396825396	309.78825396825397	62	127
308.41825396825396	308.91750566893427	45	127
308.41825396825396	308.91750566893427	61	127
309.01038548752837	309.2774149659864	54	127
309.01038548752837	309.2774149659864	61	127
309.01038548752837	309.2774149659864	45	127
309.2774149659864	309.69537414965987	43	127
309.2774149659864	309.52122448979594	59	127
309.2774149659864	309.69537414965987	59	127
309.52122448979594	309.78825396825397	62	127
309.78825396825397	310.0320634920635	59	127
309.78825396825397	310.0320634920635	43	127
309.78825396825397	310.0320634920635	64	127
309.78825396825397	310.0320634920635	55	127
309.78825396825397	310.0320634920635	62	127
310.0436507936508	310.5080725623583	55	127
310.0436507936508	310.5080725623583	40	127
310.0436507936508	310.5080725623583	61	127
310.0436507936508	310.5080725623583	59	127
310.0436507936508	310.3223129251701	64	127
310.3223129251701	310.61256235827665	66	127
310.61256235827665	310.89120181405895	67	127
310.61256235827665	310.89120181405895	59	127
310.61256235827665	310.89120181405895	52	127
310.61256235827665	310.89120181405895	40	127
310.61256235827665	310.89120181405895	61	127
310.89120181405895	311.39043083900225	38	127
310.89120181405895	311.4832879818594	66	127
310.89120181405895	311.39043083900225	62	127
310.89120181405895	311.39043083900225	54	127
310.89120181405895	311.39043083900225	59	127
311.4832879818594	311.75034013605443	62	127
311.4832879818594	311.75034013605443	38	127
311.4832879818594	311.75034013605443	54	127
311.4832879818594	311.75034013605443	50	127
311.4832879818594	311.75034013605443	71	127
311.75034013605443	312.21473922902493	50	127
311.75034013605443	312.06380952380954	69	127
311.75034013605443	312.21473922902493	57	127
311.75034013605443	312.21473922902493	62	127
311.75034013605443	312.21473922902493	42	127
312.06380952380954	312.2959863945578	66	127
312.2959863945578	312.5398185941043	62	127
312.2959863945578	312.5398185941043	42	127
312.2959863945578	312.5398185941043	62	127
312.2959863945578	312.5398185941043	45	127
312.2959863945578	312.5398185941043	57	127
312.5514285714286	313.3873469387755	57	127
312.5514285714286	313.09709750566896	62	127
312.5514285714286	313.3873469387755	64	127
312.5514285714286	313.09709750566896	45	127
313.2015873015873	313.46861678004535	45	127
313.2015873015873	313.46861678004535	61	127
313.46861678004535	313.92140589569163	38	127
313.46861678004535	314.18843537414966	62	127
313.46861678004535	314.18843537414966	66	127
313.46861678004535	314.18843537414966	69	127
313.46861678004535	313.92140589569163	62	127
314.28131519274376	314.40902494331067	57	127
314.28131519274376	314.40902494331067	66	127
314.28131519274376	314.40902494331067	74	127
314.54832199546485	315.0011337868481	69	127
314.54832199546485	315.0011337868481	62	127
314.54832199546485	315.0011337868481	66	127
315.0824036281179	315.2101133786848	55	127
315.0824036281179	315.2101133786848	67	127
315.0824036281179	315.2101133786848	70	127
315.349433106576	315.8022222222222	62	127
315.349433106576	315.8022222222222	69	127
315.349433106576	315.8022222222222	66	127
315.8951020408163	316.55687074829933	50	127
315.8951020408163	315.95315192743766	69	127
315.8951020408163	316.10408163265305	65	127
315.8951020408163	316.55687074829933	53	127
315.8951020408163	316.55687074829933	57	127
315.95315192743766	315.9995918367347	70	127
315.9995918367347	316.10408163265305	69	127
316.10408163265305	316.3826984126984	62	127
316.10408163265305	316.3826984126984	65	127
316.3826984126984	316.6613605442177	67	127
316.3826984126984	316.6613605442177	64	127
316.6613605442177	316.8006575963719	53	127
316.6613605442177	316.8006575963719	62	127
316.6613605442177	316.8006575963719	45	127
316.6613605442177	317.1141496598639	65	127
316.6613605442177	317.1141496598639	69	127
316.95160997732427	317.3927891156463	53	127
316.95160997732427	317.3927891156463	57	127
316.95160997732427	317.3927891156463	50	127
317.4856689342404	317.6133560090703	58	127
317.4856689342404	317.6133560090703	43	127
317.4856689342404	317.6133560090703	55	127
317.7875283446712	318.24031746031744	53	127
317.7875283446712	318.24031746031744	57	127
317.7875283446712	318.24031746031744	50	127
318.3448072562358	319.0646258503401	50	127
318.3448072562358	319.0646258503401	74	127
318.3448072562358	319.0646258503401	46	127
318.3448072562358	318.4144671201814	57	127
318.3448072562358	319.0646258503401	62	127
318.4144671201814	318.484126984127	58	127
318.484126984127	318.62344671201816	57	127
318.62344671201816	318.8788662131519	53	127
318.8788662131519	319.145873015873	55	127
319.1575056689342	319.6567120181406	52	127
319.1575056689342	319.6567120181406	45	127
319.1575056689342	319.27360544217686	81	127
319.1575056689342	319.27360544217686	73	127
319.1575056689342	319.27360544217686	57	127
319.1575056689342	319.6567120181406	57	127
319.44775510204084	319.9237641723356	76	127
319.44775510204084	319.9237641723356	69	127
319.44775510204084	319.9237641723356	73	127
320.0166439909297	320.1559637188209	74	127
320.0166439909297	320.1559637188209	77	127
320.0166439909297	320.1559637188209	62	127
320.3068934240363	320.48102040816326	76	127
320.3068934240363	320.48102040816326	69	127
320.3068934240363	320.48102040816326	73	127
320.57390022675736	321.2356916099773	57	127
320.57390022675736	320.6203628117914	76	127
320.57390022675736	320.81773242630385	72	127
320.57390022675736	321.2356916099773	60	127
320.57390022675736	321.2356916099773	64	127
320.6203628117914	320.6783900226757	78	127
320.6783900226757	320.81773242630385	76	127
320.81773242630385	321.07315192743766	72	127
320.81773242630385	321.07315192743766	69	127
321.07315192743766	321.31696145124715	74	127
321.07315192743766	321.31696145124715	71	127
321.31696145124715	321.4330612244898	52	127
321.31696145124715	322.03678004535146	72	127
321.31696145124715	321.4330612244898	60	127
321.31696145124715	322.03678004535146	76	127
321.31696145124715	321.4330612244898	69	127
321.58399092970524	322.03678004535146	60	127
321.58399092970524	322.03678004535146	57	127
321.58399092970524	322.03678004535146	64	127
322.12965986394556	322.25736961451247	62	127
322.12965986394556	322.25736961451247	50	127
322.12965986394556	322.25736961451247	78	127
322.12965986394556	322.25736961451247	66	127
322.12965986394556	322.25736961451247	74	127
322.39668934240365	322.7914285714286	64	127
322.39668934240365	322.7914285714286	76	127
322.39668934240365	322.7914285714286	60	127
322.39668934240365	322.7914285714286	57	127
322.39668934240365	322.7914285714286	72	127
322.8843083900227	323.9175963718821	60	127
322.8843083900227	323.1397052154195	76	127
322.8843083900227	323.1397052154195	72	127
322.8843083900227	323.9175963718821	45	127
323.1397052154195	323.39514739229026	72	127
323.1397052154195	323.39514739229026	69	127
323.39514739229026	323.65054421768707	71	127
323.39514739229026	323.65054421768707	67	127
323.6621768707483	324.68385487528343	66	127
323.6621768707483	324.68385487528343	69	127
323.9175963718821	324.17301587301586	57	127
323.9175963718821	324.17301587301586	42	127
324.17301587301586	324.44004535147394	40	127
324.17301587301586	324.44004535147394	55	127
324.44004535147394	325.47333333333336	54	127
324.44004535147394	325.47333333333336	38	127
324.68385487528343	324.93927437641725	71	127
324.68385487528343	324.93927437641725	67	127
324.93927437641725	325.2063038548753	72	127
324.93927437641725	325.2063038548753	69	127
325.21791383219954	325.47333333333336	74	127
325.21791383219954	325.47333333333336	71	127
325.47333333333336	325.7055328798186	67	127
325.47333333333336	325.7055328798186	55	127
325.47333333333336	325.7055328798186	71	127
325.47333333333336	325.7055328798186	40	127
325.7055328798186	325.9493424036281	69	127
325.7055328798186	325.9493424036281	66	127
325.7055328798186	325.9609523809524	42	127
325.7055328798186	325.9609523809524	57	127
325.9609523809524	326.2279818594104	59	127
325.9609523809524	326.2279818594104	43	127
325.9609523809524	326.94780045351473	67	127
325.9609523809524	326.94780045351473	64	127
326.2279818594104	326.4485714285714	55	127
326.2279818594104	326.4485714285714	40	127
326.4485714285714	326.66916099773243	54	127
326.4485714285714	326.66916099773243	38	127
326.66916099773243	327.60956916099775	52	127
326.66916099773243	327.60956916099775	36	127
326.94780045351473	327.18	69	127
326.94780045351473	327.18	66	127
327.18	327.3657596371882	71	127
327.18	327.3657596371882	67	127
327.3773696145125	327.8765986394558	69	127
327.3773696145125	327.8765986394558	72	127
327.60956916099775	327.8765986394558	54	127
327.60956916099775	327.8765986394558	38	127
327.8765986394558	328.1204081632653	67	127
327.8765986394558	328.1204081632653	71	127
327.8765986394558	328.38743764172335	55	127
327.8765986394558	328.38743764172335	40	127
328.1204081632653	328.6312471655329	72	127
328.1204081632653	328.6312471655329	76	127
328.38743764172335	328.6312471655329	57	127
328.38743764172335	328.6312471655329	42	127
328.6312471655329	329.15369614512474	43	127
328.6312471655329	329.15369614512474	59	127
328.6312471655329	328.8982766439909	74	127
328.6312471655329	328.8982766439909	71	127
328.9098866213152	329.38589569160996	76	127
328.9098866213152	329.38589569160996	79	127
329.15369614512474	329.38589569160996	60	127
329.15369614512474	329.38589569160996	45	127
329.38589569160996	329.6297052154195	78	127
329.38589569160996	329.89673469387753	62	127
329.38589569160996	329.89673469387753	47	127
329.38589569160996	329.6297052154195	74	127
329.6297052154195	329.9083446712018	76	127
329.6297052154195	329.9083446712018	72	127
329.9083446712018	330.37274376417236	64	127
329.9083446712018	330.37274376417236	48	127
329.9083446712018	330.1289342403628	74	127
329.9083446712018	330.1289342403628	71	127
330.1289342403628	330.37274376417236	72	127
330.1289342403628	330.37274376417236	69	127
330.37274376417236	330.6629931972789	48	127
330.37274376417236	330.6629931972789	64	127
330.37274376417236	330.6746031746032	71	127
330.37274376417236	330.6746031746032	67	127
330.6746031746032	331.33637188208615	57	127
330.6746031746032	330.9880725623583	69	127
330.6746031746032	330.9880725623583	66	127
330.6746031746032	331.33637188208615	49	127
330.9880725623583	331.33637188208615	67	127
330.9880725623583	331.33637188208615	64	127
331.33637188208615	331.69628117913834	49	127
331.33637188208615	331.7078911564626	57	127
331.33637188208615	331.69628117913834	57	127
331.33637188208615	331.7078911564626	66	127
331.7078911564626	332.2187301587302	60	127
331.7078911564626	332.2187301587302	50	127
331.7078911564626	332.2187301587302	54	127
331.7078911564626	332.0213605442177	64	127
332.0213605442177	332.32321995464855	62	127
332.32321995464855	332.7643990929705	43	127
332.32321995464855	333.41455782312926	67	127
332.32321995464855	332.60185941043085	55	127
332.32321995464855	332.60185941043085	47	127
332.32321995464855	332.60185941043085	59	127
332.60185941043085	332.8456462585034	57	127
332.60185941043085	332.8456462585034	57	127
332.60185941043085	332.8456462585034	48	127
332.8456462585034	333.1243083900227	43	127
332.8456462585034	333.1243083900227	55	127
332.8456462585034	333.13591836734696	50	127
332.8456462585034	333.1243083900227	59	127
333.13591836734696	333.94861678004537	60	127
333.13591836734696	333.94861678004537	52	127
333.13591836734696	333.5887074829932	43	127
333.13591836734696	333.5887074829932	55	127
333.41455782312926	333.6815873015873	69	127
333.6815873015873	333.94861678004537	71	127
333.6815873015873	333.94861678004537	43	127
333.94861678004537	334.6684353741497	50	127
333.94861678004537	335.9803628117914	67	127
333.94861678004537	334.4014058956916	43	127
333.94861678004537	334.6684353741497	59	127
334.4826530612245	334.7497052154195	43	127
334.7613151927438	335.10961451247164	48	127
334.7613151927438	335.10961451247164	57	127
334.7613151927438	335.3418140589569	43	127
335.10961451247164	335.434693877551	59	127
335.10961451247164	335.434693877551	50	127
335.434693877551	335.7017233560091	48	127
335.434693877551	335.7017233560091	43	127
335.434693877551	335.7017233560091	57	127
335.7017233560091	336.2473922902494	55	127
335.7017233560091	335.9803628117914	47	127
335.7017233560091	336.1545124716553	43	127
335.9803628117914	336.2473922902494	50	127
335.9803628117914	336.2473922902494	71	127
336.2473922902494	336.5144217687075	55	127
336.2473922902494	336.5260090702948	74	127
336.2473922902494	336.5144217687075	59	127
336.2473922902494	336.5144217687075	43	127
336.5260090702948	337.2574603174603	54	127
336.5260090702948	336.9904308390023	43	127
336.5260090702948	337.2574603174603	62	127
336.5260090702948	336.8046712018141	69	127
336.8046712018141	337.08331065759637	71	127
337.08331065759637	337.35031746031746	69	127
337.08331065759637	337.35031746031746	43	127
337.35031746031746	338.44167800453516	79	127
337.35031746031746	338.44167800453516	67	127
337.35031746031746	337.6173696145125	43	127
337.35031746031746	337.7915192743764	55	127
337.35031746031746	337.6173696145125	59	127
337.6173696145125	337.8960090702948	60	127
337.6173696145125	337.8960090702948	45	127
337.8960090702948	338.16301587301587	55	127
337.8960090702948	338.1746485260771	62	127
337.8960090702948	338.1746485260771	47	127
338.1746485260771	338.964126984127	48	127
338.1746485260771	338.6158276643991	55	127
338.1746485260771	338.964126984127	64	127
338.44167800453516	338.7087074829932	81	127
338.44167800453516	338.7087074829932	69	127
338.7087074829932	338.964126984127	83	127
338.7087074829932	338.964126984127	71	127
338.7087074829932	338.964126984127	55	127
338.964126984127	340.81011337868483	67	127
338.964126984127	339.40530612244896	55	127
338.964126984127	339.67233560090705	62	127
338.964126984127	339.67233560090705	47	127
338.964126984127	340.81011337868483	79	127
339.4981632653061	339.7536054421769	55	127
339.76521541950115	339.9974149659864	60	127
339.76521541950115	339.9974149659864	45	127
339.76521541950115	340.17156462585035	55	127
339.9974149659864	340.26444444444445	62	127
339.9974149659864	340.26444444444445	47	127
340.26444444444445	340.5314739229025	60	127
340.26444444444445	340.5314739229025	55	127
340.26444444444445	340.5314739229025	45	127
340.5314739229025	341.0655328798186	59	127
340.5314739229025	341.0655328798186	43	127
340.5314739229025	340.98426303854876	55	127
340.81011337868483	341.0655328798186	83	127
340.81011337868483	341.0655328798186	71	127
341.0655328798186	341.3325396825397	55	127
341.0655328798186	341.3441723356009	74	127
341.0655328798186	341.3325396825397	55	127
341.0655328798186	341.3325396825397	47	127
341.0655328798186	341.3441723356009	86	127
341.3441723356009	341.79696145124717	54	127
341.3441723356009	342.08721088435374	50	127
341.3441723356009	341.611201814059	81	127
341.3441723356009	341.611201814059	69	127
341.3441723356009	342.08721088435374	50	127
341.611201814059	341.90145124716554	71	127
341.611201814059	341.90145124716554	83	127
341.90145124716554	342.4587074829932	81	127
341.90145124716554	342.18009070294784	54	127
341.90145124716554	342.4587074829932	69	127
342.18009070294784	342.760566893424	60	127
342.18009070294784	342.760566893424	52	127
342.18009070294784	342.6676870748299	45	127
342.4587074829932	342.760566893424	84	127
342.4587074829932	342.760566893424	72	127
342.760566893424	343.02761904761905	48	127
342.760566893424	343.02761904761905	57	127
342.760566893424	343.02761904761905	57	127
342.760566893424	343.0392290249433	88	127
342.760566893424	343.0392290249433	76	127
343.0392290249433	343.7358276643991	52	127
343.0392290249433	343.30625850340135	83	127
343.0392290249433	343.30625850340135	71	127
343.0392290249433	343.46879818594107	55	127
343.0392290249433	343.46879818594107	52	127
343.30625850340135	343.56167800453517	84	127
343.30625850340135	343.56167800453517	72	127
343.56167800453517	343.8287074829932	55	127
343.56167800453517	344.084126984127	71	127
343.56167800453517	343.8287074829932	52	127
343.56167800453517	344.084126984127	83	127
343.8287074829932	344.24666666666667	47	127
343.8287074829932	344.33954648526077	54	127
343.8287074829932	344.33954648526077	62	127
344.0957142857143	344.33954648526077	74	127
344.33954648526077	344.5949659863946	50	127
344.33954648526077	344.5949659863946	59	127
344.33954648526077	344.8387755102041	78	127
344.33954648526077	344.5949659863946	59	127
344.60655328798185	345.1173922902494	64	127
344.60655328798185	345.02453514739227	49	127
344.60655328798185	345.1173922902494	55	127
344.8387755102041	345.1173922902494	76	127
345.1173922902494	345.3728344671202	52	127
345.1173922902494	345.3728344671202	55	127
345.1173922902494	345.3728344671202	61	127
345.1173922902494	345.6514739229025	79	127
345.3728344671202	345.88367346938776	66	127
345.3728344671202	345.8140136054422	51	127
345.3728344671202	345.88367346938776	57	127
345.6514739229025	345.88367346938776	78	127
345.88367346938776	346.1390702947846	59	127
345.88367346938776	346.1390702947846	81	127
345.88367346938776	346.1390702947846	63	127
345.88367346938776	346.1390702947846	54	127
346.1507029478458	346.4409297052154	67	127
346.1507029478458	346.4409297052154	79	127
346.1507029478458	346.4409297052154	59	127
346.1507029478458	346.64990929705215	52	127
346.4409297052154	346.74281179138325	83	127
346.4409297052154	346.74281179138325	76	127
346.4409297052154	346.74281179138325	59	127
346.4409297052154	346.74281179138325	55	127
346.7543990929705	347.05625850340135	64	127
346.7543990929705	347.05625850340135	85	127
346.7543990929705	347.05625850340135	76	127
346.7543990929705	347.05625850340135	57	127
346.7543990929705	347.05625850340135	45	127
346.7543990929705	347.05625850340135	69	127
347.06789115646257	347.3117006802721	62	127
347.06789115646257	347.3117006802721	74	127
347.06789115646257	347.1956009070295	86	127
347.06789115646257	347.3117006802721	57	127
347.06789115646257	347.3117006802721	66	127
347.06789115646257	347.3117006802721	38	127
347.1956009070295	347.3117006802721	74	127
347.3117006802721	347.7528798185941	62	127
347.3117006802721	347.4510204081633	74	127
347.4510204081633	347.5903401360544	62	127
347.5903401360544	347.7180498866213	74	127
347.7180498866213	347.83414965986395	74	127
347.83414965986395	347.88056689342403	86	127
347.83414965986395	347.9850566893424	74	127
347.88056689342403	347.9850566893424	74	127
347.9850566893424	348.3914058956916	62	127
347.9850566893424	348.0895691609977	74	127
348.0895691609977	348.2288888888889	62	127
348.2288888888889	348.33337868480726	74	127
348.3449886621315	348.47269841269843	74	127
348.4842857142857	348.6700680272109	74	127
348.4842857142857	348.5771882086168	86	127
348.5771882086168	348.6700680272109	74	127
348.6700680272109	348.7977551020408	74	127
348.6700680272109	349.09961451247165	62	127
348.7977551020408	348.92548752834466	62	127
348.92548752834466	349.05319727891157	74	127
348.92548752834466	349.19251700680275	62	127
349.05319727891157	349.19251700680275	74	127
349.19251700680275	349.33183673469387	86	127
349.19251700680275	349.7265759637188	74	127
349.33183673469387	349.4479365079365	74	127
349.4595464852608	349.5872562358277	74	127
349.5872562358277	349.7265759637188	62	127
349.7265759637188	349.8542857142857	74	127
349.7265759637188	349.9936054421769	67	127
349.86589569161	349.9936054421769	74	127
350.00521541950116	350.1445351473923	86	127
350.00521541950116	350.53925170068027	72	127
350.1445351473923	350.28385487528345	74	127
350.28385487528345	350.41156462585036	74	127
350.41156462585036	350.53925170068027	62	127
350.53925170068027	350.63213151927437	74	127
350.53925170068027	350.74825396825395	66	127
350.63213151927437	350.74825396825395	74	127
350.74825396825395	351.23587301587304	71	127
350.74825396825395	350.8411111111111	86	127
350.8411111111111	350.96884353741495	74	127
350.96884353741495	351.10816326530613	74	127
351.10816326530613	351.23587301587304	62	127
351.23587301587304	351.3635827664399	74	127
351.23587301587304	351.4796825396825	64	127
351.3635827664399	351.4796825396825	74	127
351.4796825396825	351.6190022675737	86	127
351.4796825396825	351.7582993197279	69	127
351.6190022675737	351.7467120181406	74	127
351.7582993197279	352.00213151927437	62	127
351.7582993197279	351.87442176870746	74	127
351.87442176870746	352.00213151927437	62	127
352.00213151927437	352.2575510204082	69	127
352.00213151927437	352.14145124716555	74	127
352.14145124716555	352.2575510204082	74	127
352.26913832199546	352.3736281179138	86	127
352.26913832199546	352.4665306122449	71	127
352.3736281179138	352.4665306122449	74	127
352.4665306122449	352.58260770975056	74	127
352.4665306122449	352.7219501133787	64	127
352.58260770975056	352.7219501133787	62	127
352.7219501133787	352.8496598639456	74	127
352.7219501133787	352.98895691609977	71	127
352.86126984126986	352.98895691609977	74	127
352.98895691609977	353.1282993197279	84	127
352.98895691609977	353.26761904761906	72	127
353.1282993197279	353.26761904761906	72	127
353.26761904761906	353.6971882086168	76	127
353.26761904761906	353.3837188208617	83	127
353.39530612244897	353.5230385487528	71	127
353.5230385487528	353.65074829931973	81	127
353.65074829931973	353.77845804988664	69	127
353.7900680272109	353.91777777777776	81	127
353.7900680272109	354.3009070294785	76	127
353.91777777777776	354.0338775510204	76	127
354.0338775510204	354.1731972789116	76	127
354.1731972789116	354.3009070294785	78	127
354.3009070294785	354.55632653061224	69	127
354.3009070294785	354.42861678004533	76	127
354.4402267573696	354.55632653061224	76	127
354.55632653061224	355.1019954648526	74	127
354.55632653061224	354.6956462585034	83	127
354.6956462585034	354.8349433106576	76	127
354.8465759637188	354.9742857142857	76	127
354.9742857142857	355.1019954648526	78	127
355.1019954648526	355.22970521541953	76	127
355.1019954648526	355.3574149659864	68	127
355.22970521541953	355.3574149659864	76	127
355.36902494331065	355.9263038548753	72	127
355.36902494331065	355.5083446712018	84	127
355.5083446712018	355.63605442176873	76	127
355.63605442176873	355.77537414965985	76	127
355.77537414965985	355.9263038548753	78	127
355.9263038548753	356.04240362811794	76	127
355.9263038548753	356.12367346938777	66	127
356.0539909297052	356.12367346938777	76	127
356.12367346938777	356.2513832199547	83	127
356.12367346938777	356.3442630385488	71	127
356.2513832199547	356.3442630385488	76	127
356.3442630385488	356.44875283446714	76	127
356.3442630385488	356.5648299319728	64	127
356.44875283446714	356.5648299319728	78	127
356.5648299319728	356.7041723356009	76	127
356.5648299319728	356.8318820861678	71	127
356.7041723356009	356.8318820861678	76	127
356.8434920634921	356.971179138322	81	127
356.8434920634921	357.09891156462584	73	127
356.971179138322	357.09891156462584	69	127
357.09891156462584	357.238231292517	79	127
357.09891156462584	357.3659410430839	74	127
357.238231292517	357.3775510204082	69	127
357.3775510204082	357.63297052154195	76	127
357.3775510204082	357.50526077097504	76	127
357.50526077097504	357.63297052154195	69	127
357.63297052154195	357.99285714285713	74	127
357.63297052154195	357.7490702947846	78	127
357.7490702947846	357.85356009070296	72	127
357.85356009070296	357.9580498866213	79	127
357.9580498866213	358.0625396825397	72	127
358.0625396825397	358.20183673469387	81	127
358.20183673469387	358.3295691609977	72	127
358.341179138322	358.4688888888889	86	127
358.4688888888889	358.6081859410431	84	127
358.6081859410431	358.7359183673469	83	127
358.7359183673469	358.8752380952381	81	127
358.8752380952381	359.002947845805	79	127
359.002947845805	359.13065759637186	78	127
359.13065759637186	359.2467573696145	84	127
359.2467573696145	359.3744671201814	83	127
359.3744671201814	359.49056689342405	81	127
359.49056689342405	359.6298639455782	79	127
359.6298639455782	359.7575963718821	78	127
359.7575963718821	359.885306122449	76	127
359.89691609977325	360.0014058956916	83	127
360.0014058956916	360.1407029478458	81	127
360.1407029478458	360.2800453514739	79	127
360.2800453514739	360.4193650793651	78	127
360.4193650793651	360.547074829932	76	127
360.547074829932	360.66315192743764	74	127
360.66315192743764	360.80249433106576	81	127
360.80249433106576	360.93020408163267	79	127
360.93020408163267	361.03469387755104	78	127
361.03469387755104	361.1739909297052	76	127
361.1739909297052	361.31333333333333	74	127
361.31333333333333	361.3713605442177	81	127
361.3829931972789	361.49909297052153	83	127
361.49909297052153	361.6384126984127	81	127
361.6384126984127	361.7777097505669	80	127
361.7777097505669	361.917052154195	78	127
361.917052154195	362.0447619047619	76	127
362.0447619047619	362.091179138322	83	127
362.091179138322	362.2305215419501	84	127
362.2305215419501	362.358231292517	81	127
362.358231292517	362.4859410430839	76	127
362.4859410430839	362.62526077097505	81	127
362.62526077097505	362.75297052154195	84	127
362.75297052154195	362.88068027210886	88	127
362.89229024943313	363.02	91	127
362.89229024943313	363.43795918367346	79	127
363.02	363.15931972789116	89	127
363.15931972789116	363.29863945578234	88	127
363.29863945578234	363.43795918367346	86	127
363.43795918367346	363.69337868480727	72	127
363.43795918367346	363.5540589569161	84	127
363.5540589569161	363.69337868480727	83	127
363.69337868480727	363.8326984126984	89	127
363.69337868480727	364.23902494331065	77	127
363.8326984126984	363.9604081632653	88	127
363.9604081632653	364.0997278911565	86	127
364.0997278911565	364.23902494331065	84	127
364.23902494331065	364.4363945578231	71	127
364.23902494331065	364.3783673469388	83	127
364.3783673469388	364.4363945578231	81	127
364.4363945578231	364.57573696145124	79	127
364.57573696145124	364.7150566893424	77	127
364.7150566893424	364.8543537414966	76	127
364.8543537414966	364.98208616780045	74	127
364.98208616780045	365.07496598639455	72	127
365.07496598639455	365.15621315192743	71	127
365.15621315192743	365.29555555555555	88	127
365.15621315192743	365.70190476190476	76	127
365.29555555555555	365.42326530612246	86	127
365.42326530612246	365.56256235827664	84	127
365.56256235827664	365.70190476190476	83	127
365.70190476190476	365.93410430839003	69	127
365.70190476190476	365.8180045351474	81	127
365.8180045351474	365.93410430839003	79	127
365.93410430839003	366.06181405895694	86	127
365.93410430839003	366.4449433106576	74	127
366.06181405895694	366.1778911564626	84	127
366.1778911564626	366.3172335600907	83	127
366.3172335600907	366.4449433106576	81	127
366.4449433106576	366.71197278911563	67	127
366.4449433106576	366.5842403628118	79	127
366.5842403628118	366.7235827664399	78	127
366.7235827664399	366.8629024943311	76	127
366.8629024943311	366.96739229024945	74	127
366.96739229024945	367.0718820861678	72	127
367.0718820861678	367.1415419501134	71	127
367.1415419501134	367.2692517006803	69	127
367.2692517006803	367.37374149659865	67	127
367.37374149659865	367.51303854875283	84	127
367.37374149659865	367.6407709750567	72	127
367.51303854875283	367.6407709750567	83	127
367.65238095238095	367.7684807256236	81	127
367.65238095238095	367.8961904761905	69	127
367.78009070294786	367.8961904761905	79	127
367.8961904761905	367.9774603174603	78	127
367.8961904761905	368.0703401360544	66	127
367.9774603174603	368.0703401360544	76	127
368.0819501133787	368.29092970521543	62	127
368.0819501133787	368.15160997732426	74	127
368.1632199546485	368.29092970521543	72	127
368.29092970521543	368.5231065759637	59	127
368.29092970521543	368.4302267573696	71	127
368.4302267573696	368.5231065759637	69	127
368.534716553288	368.77854875283447	67	127
368.534716553288	368.66244897959183	67	127
368.6740589569161	368.77854875283447	66	127
368.77854875283447	368.91786848072564	64	127
368.77854875283447	368.91786848072564	64	127
368.77854875283447	369.0339455782313	64	127
368.91786848072564	369.0339455782313	62	127
368.91786848072564	369.0339455782313	62	127
369.04555555555555	369.27777777777777	60	127
369.04555555555555	369.13843537414965	60	127
369.04555555555555	369.13843537414965	60	127
369.15006802721086	369.27777777777777	59	127
369.15006802721086	369.27777777777777	59	127
369.27777777777777	369.4054875283447	57	127
369.27777777777777	369.4054875283447	57	127
369.27777777777777	369.4867573696145	57	127
369.4054875283447	369.4867573696145	55	127
369.4983673469388	369.7653968253968	54	127
369.4983673469388	369.7653968253968	54	127
370.2181859410431	370.6593650793651	53	127
370.2181859410431	370.38072562358275	53	127
370.2181859410431	370.6593650793651	53	127
370.6593650793651	371.715873015873	53	127
370.6593650793651	371.715873015873	53	127
371.715873015873	374.59514739229024	53	127
371.715873015873	376.53401360544217	53	127
371.715873015873	371.99451247165536	69	127
371.99451247165536	372.2499319727891	62	127
372.2499319727891	372.5285714285714	69	127
372.5285714285714	373.22517006802724	71	127
372.5285714285714	372.7839909297052	74	127
372.7839909297052	373.0626303854875	67	127
373.0626303854875	373.2948299319728	74	127
373.2948299319728	373.5734693877551	69	127
373.2948299319728	374.0146485260771	77	127
373.5734693877551	373.8288888888889	62	127
373.8288888888889	374.1075283446712	69	127
374.1075283446712	374.8621541950113	71	127
374.1075283446712	374.3977777777778	79	127
374.3977777777778	374.68802721088434	74	127
374.68802721088434	374.9550566893424	79	127
374.9550566893424	376.0115646258503	86	127
374.9550566893424	375.2336961451247	69	127
374.9550566893424	375.75614512471657	62	127
374.9550566893424	375.75614512471657	69	127
375.2336961451247	375.50072562358275	62	127
375.50072562358275	375.7445351473923	69	127
375.75614512471657	376.1973015873016	71	127
375.75614512471657	376.1973015873016	68	127
375.75614512471657	376.0115646258503	68	127
376.0115646258503	376.2785941043084	62	127
376.0115646258503	376.2785941043084	83	127
376.2785941043084	376.53401360544217	86	127
376.2785941043084	376.53401360544217	68	127
376.53401360544217	376.6501133786848	79	127
376.53401360544217	377.056462585034	91	127
376.53401360544217	376.9635827664399	67	127
376.53401360544217	376.9635827664399	52	127
376.6501133786848	376.789433106576	77	127
376.789433106576	376.9171201814059	76	127
376.9171201814059	377.056462585034	74	127
377.056462585034	377.13773242630384	72	127
377.056462585034	377.1609523809524	84	127
377.13773242630384	377.1609523809524	71	127
377.17256235827665	377.30027210884356	77	127
377.17256235827665	377.70662131519276	89	127
377.17256235827665	377.62532879818593	50	127
377.17256235827665	377.62532879818593	65	127
377.30027210884356	377.4395918367347	76	127
377.4395918367347	377.57891156462586	74	127
377.57891156462586	377.70662131519276	72	127
377.70662131519276	377.9736507936508	83	127
377.70662131519276	377.8459410430839	71	127
377.8459410430839	377.98526077097506	69	127
377.98526077097506	378.12458049886624	67	127
378.12458049886624	378.20585034013607	65	127
378.20585034013607	378.29873015873017	64	127
378.29873015873017	378.43804988662134	62	127
378.43804988662134	378.5657596371882	60	127
378.5657596371882	378.6934693877551	59	127
378.6934693877551	378.84439909297055	76	127
378.6934693877551	379.16947845804987	48	127
378.6934693877551	379.25074829931975	88	127
378.6934693877551	379.16947845804987	64	127
378.84439909297055	378.98371882086167	74	127
378.98371882086167	379.12303854875285	72	127
379.12303854875285	379.25074829931975	71	127
379.25074829931975	379.3900680272109	69	127
379.25074829931975	379.5061678004535	81	127
379.3900680272109	379.5061678004535	67	127
379.5177777777778	380.0402267573696	86	127
379.5177777777778	379.9473469387755	47	127
379.5177777777778	379.65709750566896	74	127
379.5177777777778	379.9473469387755	62	127
379.65709750566896	379.7731746031746	72	127
379.7731746031746	379.90090702947845	71	127
379.90090702947845	380.0402267573696	69	127
380.0402267573696	380.1795238095238	67	127
380.0402267573696	380.24920634920636	79	127
380.1795238095238	380.24920634920636	66	127
380.24920634920636	380.37691609977327	64	127
380.37691609977327	380.5162358276644	62	127
380.5162358276644	380.6439455782313	60	127
380.6439455782313	380.71360544217686	59	127
380.71360544217686	380.7948752834467	57	127
380.7948752834467	380.9109750566893	55	127
380.9225850340136	381.0502947845805	84	127
380.9225850340136	381.34054421768707	45	127
380.9225850340136	381.0502947845805	72	127
380.9225850340136	381.06190476190477	72	127
381.06190476190477	381.15478458049887	71	127
381.06190476190477	381.15478458049887	83	127
381.15478458049887	381.29410430839005	69	127
381.15478458049887	381.29410430839005	81	127
381.15478458049887	381.29410430839005	69	127
381.29410430839005	381.4218140589569	67	127
381.29410430839005	381.4218140589569	79	127
381.43342403628117	381.57274376417234	66	127
381.43342403628117	381.5611337868481	66	127
381.43342403628117	381.5611337868481	78	127
381.57274376417234	381.6424036281179	64	127
381.57274376417234	381.6424036281179	76	127
381.6424036281179	381.7701133786848	62	127
381.6424036281179	381.7701133786848	74	127
381.6424036281179	381.7701133786848	62	127
381.7701133786848	381.8746031746032	72	127
381.7701133786848	381.8746031746032	72	127
381.88621315192745	382.01392290249436	59	127
381.88621315192745	382.0023129251701	71	127
381.88621315192745	382.0023129251701	71	127
382.01392290249436	382.13002267573694	69	127
382.01392290249436	382.13002267573694	69	127
382.13002267573694	382.2693424036281	67	127
382.13002267573694	382.2693424036281	55	127
382.13002267573694	382.2693424036281	67	127
382.2693424036281	382.38544217687075	66	127
382.2693424036281	382.38544217687075	66	127
382.397052154195	382.53637188208614	64	127
382.397052154195	382.52476190476193	64	127
382.397052154195	382.52476190476193	64	127
382.53637188208614	382.6524716553288	62	127
382.53637188208614	382.6524716553288	62	127
382.6524716553288	382.79179138321996	60	127
382.6524716553288	382.79179138321996	60	127
382.6524716553288	382.79179138321996	60	127
382.79179138321996	382.91950113378687	59	127
382.79179138321996	382.91950113378687	59	127
382.93111111111114	383.058820861678	57	127
382.93111111111114	383.07043083900226	57	127
382.93111111111114	383.058820861678	57	127
383.07043083900226	383.1749206349206	55	127
383.1749206349206	383.6277097505669	42	127
383.1749206349206	383.6277097505669	54	127
383.9992290249433	385.33437641723356	53	127
383.9992290249433	384.2546485260771	57	127
383.9992290249433	384.2546485260771	69	127
383.9992290249433	384.2546485260771	50	127
383.9992290249433	384.1269387755102	62	127
383.9992290249433	384.1269387755102	81	127
383.9992290249433	385.33437641723356	41	127
384.06888888888886	384.2546485260771	81	127
384.1385487528345	384.2546485260771	79	127
384.2546485260771	384.52167800453515	65	127
384.2546485260771	384.39396825396824	77	127
384.2546485260771	384.39396825396824	77	127
384.39396825396824	384.52167800453515	76	127
384.52167800453515	384.5681179138322	74	127
384.52167800453515	384.70743764172335	62	127
384.52167800453515	384.5681179138322	74	127
384.5681179138322	384.70743764172335	72	127
384.70743764172335	384.823537414966	69	127
384.70743764172335	384.8119274376417	71	127
384.70743764172335	384.92802721088435	57	127
384.823537414966	384.92802721088435	69	127
384.9396371882086	385.20666666666665	53	127
384.9396371882086	385.06734693877553	67	127
384.9396371882086	385.06734693877553	65	127
385.06734693877553	385.20666666666665	65	127
385.20666666666665	385.46208616780046	50	127
385.20666666666665	385.33437641723356	62	127
385.20666666666665	385.3227664399093	64	127
385.33437641723356	385.46208616780046	62	127
385.47369614512473	385.83360544217686	52	127
385.47369614512473	385.83360544217686	52	127
385.47369614512473	385.83360544217686	61	127
385.47369614512473	385.83360544217686	57	127
385.47369614512473	385.83360544217686	57	127
385.47369614512473	385.83360544217686	40	127
386.14707482993197	386.634693877551	39	127
386.14707482993197	386.634693877551	51	127
386.14707482993197	386.2631746031746	91	127
386.14707482993197	386.2631746031746	55	127
386.14707482993197	386.2631746031746	63	127
386.14707482993197	386.37927437641724	51	127
386.14707482993197	386.634693877551	60	127
386.2051247165533	386.37927437641724	72	127
386.2051247165533	386.37927437641724	79	127
386.2747845804989	386.37927437641724	89	127
386.3908843537415	386.634693877551	63	127
386.3908843537415	386.50698412698415	87	127
386.3908843537415	386.50698412698415	75	127
386.50698412698415	386.634693877551	86	127
386.634693877551	387.47061224489795	51	127
386.634693877551	387.47061224489795	60	127
386.634693877551	387.47061224489795	39	127
386.634693877551	386.8901133786848	60	127
386.634693877551	386.7740136054422	72	127
386.634693877551	386.7624036281179	84	127
386.7740136054422	386.8901133786848	82	127
386.9017233560091	387.15714285714284	55	127
386.9017233560091	387.02943310657594	67	127
386.9017233560091	387.02943310657594	80	127
387.02943310657594	387.15714285714284	79	127
387.15714285714284	387.2384126984127	63	127
387.15714285714284	387.3545124716553	51	127
387.15714285714284	387.22680272108846	77	127
387.2384126984127	387.3545124716553	75	127
387.3661224489796	387.5867120181406	48	127
387.3661224489796	387.47061224489795	60	127
387.3661224489796	387.47061224489795	74	127
387.47061224489795	387.5867120181406	72	127
387.5867120181406	387.9930612244898	50	127
387.5867120181406	387.9930612244898	55	127
387.5867120181406	387.9930612244898	71	127
387.5867120181406	387.9930612244898	38	127
388.31814058956917	389.5255782312925	55	127
388.31814058956917	389.5255782312925	70	127
388.31814058956917	388.46907029478456	55	127
388.31814058956917	389.5255782312925	38	127
388.46907029478456	388.73609977324264	50	127
388.73609977324264	388.97990929705213	55	127
388.97990929705213	390.10607709750565	62	127
389.6648979591837	390.10607709750565	71	127
389.6648979591837	390.10607709750565	38	127
389.6648979591837	390.10607709750565	55	127
390.431156462585	391.8011337868481	55	127
390.431156462585	390.65174603174603	62	127
390.431156462585	391.8011337868481	38	127
390.431156462585	391.8011337868481	70	127
390.65174603174603	390.90716553287984	55	127
390.90716553287984	391.1277551020408	62	127
391.1277551020408	391.87079365079364	63	127
391.87079365079364	392.5790022675737	63	127
391.87079365079364	392.3003628117914	37	127
391.87079365079364	392.3003628117914	70	127
391.87079365079364	392.3003628117914	55	127
392.6602721088435	394.1579591836735	56	127
392.6602721088435	394.1579591836735	36	127
392.6602721088435	392.95052154195014	63	127
392.6602721088435	394.1579591836735	68	127
392.95052154195014	393.2059410430839	56	127
393.2059410430839	393.4845804988662	63	127
393.4845804988662	394.5643083900227	64	127
394.2856689342404	395.4234467120181	62	127
394.2856689342404	394.99387755102043	68	127
394.2856689342404	394.99387755102043	47	127
394.5643083900227	394.81972789115645	62	127
394.81972789115645	395.08675736961453	64	127
395.08675736961453	395.6904761904762	44	127
395.08675736961453	395.30734693877554	62	127
395.08675736961453	395.4234467120181	71	127
395.30734693877554	395.5279365079365	64	127
395.4234467120181	395.77174603174603	59	127
395.4234467120181	395.77174603174603	76	127
395.5279365079365	395.77174603174603	59	127
395.77174603174603	396.16648526077097	64	127
395.77174603174603	396.16648526077097	74	127
395.77174603174603	396.0619954648526	64	127
395.77174603174603	396.4799546485261	45	127
396.0619954648526	396.2941950113379	57	127
396.16648526077097	396.5612244897959	72	127
396.16648526077097	396.5612244897959	57	127
396.2941950113379	396.5612244897959	64	127
396.5728344671202	397.39714285714285	72	127
396.5728344671202	398.12857142857143	66	127
396.5728344671202	398.12857142857143	38	127
396.5728344671202	397.4087528344671	64	127
397.4087528344671	398.24467120181407	62	127
397.4087528344671	398.24467120181407	71	127
398.24467120181407	398.99931972789113	38	127
398.24467120181407	398.6974603174603	60	127
398.24467120181407	399.080589569161	69	127
398.24467120181407	398.99931972789113	60	127
398.24467120181407	399.080589569161	66	127
398.24467120181407	398.6974603174603	50	127
398.24467120181407	398.6974603174603	66	127
399.080589569161	399.20829931972787	63	127
399.080589569161	399.34761904761905	60	127
399.080589569161	399.20829931972787	55	127
399.080589569161	399.34761904761905	63	127
399.080589569161	399.20829931972787	91	127
399.080589569161	399.4869387755102	39	127
399.080589569161	399.20829931972787	55	127
399.080589569161	399.21990929705214	51	127
399.080589569161	399.20829931972787	51	127
399.1502494331066	399.34761904761905	72	127
399.1502494331066	399.34761904761905	67	127
399.1502494331066	399.34761904761905	79	127
399.1502494331066	399.34761904761905	72	127
399.21990929705214	399.34761904761905	89	127
399.34761904761905	399.44049886621315	87	127
399.34761904761905	399.44049886621315	75	127
399.34761904761905	399.44049886621315	75	127
399.34761904761905	399.44049886621315	63	127
399.44049886621315	399.5449886621315	86	127
399.5449886621315	399.66108843537415	72	127
399.5449886621315	399.6494784580499	84	127
399.5449886621315	399.66108843537415	72	127
399.5449886621315	399.66108843537415	60	127
399.66108843537415	399.742358276644	82	127
399.742358276644	399.8700680272109	67	127
399.742358276644	399.8700680272109	67	127
399.742358276644	399.8700680272109	80	127
399.742358276644	399.8700680272109	55	127
399.8700680272109	399.9977777777778	79	127
400.00938775510207	400.1370975056689	63	127
400.00938775510207	400.12548752834465	77	127
400.00938775510207	400.1370975056689	51	127
400.00938775510207	400.1370975056689	63	127
400.1370975056689	400.2648072562358	75	127
400.2648072562358	400.39251700680273	60	127
400.2648072562358	400.39251700680273	60	127
400.2648072562358	400.39251700680273	60	127
400.2648072562358	400.39251700680273	74	127
400.39251700680273	400.5086167800454	72	127
400.52022675736964	400.6363265306122	55	127
400.52022675736964	400.6363265306122	55	127
400.52022675736964	400.6363265306122	55	127
400.52022675736964	400.62471655328795	68	127
400.6363265306122	400.75242630385486	67	127
400.75242630385486	400.89174603174604	51	127
400.75242630385486	400.89174603174604	63	127
400.75242630385486	400.89174603174604	65	127
400.75242630385486	400.89174603174604	51	127
400.89174603174604	401.01945578231295	63	127
401.0310657596372	401.15877551020407	48	127
401.0310657596372	401.15877551020407	39	127
401.0310657596372	401.1471655328798	62	127
401.0310657596372	401.15877551020407	60	127
401.15877551020407	401.286485260771	60	127
401.286485260771	401.727664399093	38	127
401.286485260771	401.553514739229	55	127
401.286485260771	401.553514739229	38	127
401.286485260771	401.553514739229	55	127
401.286485260771	401.553514739229	59	127
402.0643537414966	403.23696145124717	58	127
402.0643537414966	403.23696145124717	55	127
402.0643537414966	402.26172335600904	67	127
402.0643537414966	403.23696145124717	38	127
402.26172335600904	402.45909297052157	62	127
402.45909297052157	402.65646258503403	67	127
402.65646258503403	403.80585034013603	74	127
403.3646712018141	403.80585034013603	55	127
403.3646712018141	403.80585034013603	59	127
403.3646712018141	403.80585034013603	50	127
403.3646712018141	403.80585034013603	38	127
404.1657596371882	405.4428571428571	38	127
404.1657596371882	405.4428571428571	55	127
404.1657596371882	404.43278911564624	74	127
404.1657596371882	405.4428571428571	58	127
404.1657596371882	405.4428571428571	50	127
404.4443990929705	404.68820861678006	67	127
404.68820861678006	404.8971882086168	74	127
404.90879818594107	406.19750566893424	75	127
405.55895691609976	406.01174603174604	55	127
405.55895691609976	406.01174603174604	49	127
405.55895691609976	406.01174603174604	37	127
405.55895691609976	406.01174603174604	58	127
406.2207256235828	406.46453514739227	75	127
406.2207256235828	407.5790929705215	36	127
406.2207256235828	407.5790929705215	48	127
406.2207256235828	406.95215419501136	63	127
406.2207256235828	407.5790929705215	56	127
406.46453514739227	406.7431746031746	68	127
406.7431746031746	406.95215419501136	75	127
406.95215419501136	407.6255328798186	68	127
406.95215419501136	409.5643990929705	76	127
407.7068027210884	408.438231292517	47	127
407.7068027210884	407.9390022675737	56	127
407.7068027210884	407.9390022675737	64	127
407.7068027210884	408.3453514739229	68	127
407.9390022675737	408.18281179138324	64	127
407.9390022675737	408.18281179138324	62	127
408.18281179138324	408.438231292517	56	127
408.18281179138324	408.438231292517	64	127
408.438231292517	409.1696598639456	44	127
408.438231292517	408.8097505668934	71	127
408.438231292517	408.68204081632655	64	127
408.438231292517	408.68204081632655	62	127
408.68204081632655	408.92585034013604	64	127
408.68204081632655	408.92585034013604	62	127
408.8097505668934	409.1696598639456	76	127
408.92585034013604	409.1696598639456	64	127
408.92585034013604	409.1696598639456	62	127
409.1696598639456	409.7501587301587	45	127
409.1696598639456	409.4482993197279	64	127
409.1696598639456	409.5643990929705	74	127
409.1696598639456	409.4482993197279	57	127
409.4482993197279	409.6340589569161	57	127
409.4482993197279	409.6340589569161	64	127
409.5643990929705	409.83142857142855	72	127
409.6340589569161	409.83142857142855	64	127
409.6340589569161	409.83142857142855	57	127
409.6340589569161	409.8430385487528	76	127
409.8430385487528	411.1665759637188	79	127
409.8430385487528	410.1100680272109	67	127
409.8430385487528	410.6673469387755	47	127
409.8430385487528	410.249387755102	74	127
409.8430385487528	410.1100680272109	62	127
410.1100680272109	410.3887074829932	55	127
410.1100680272109	410.3887074829932	67	127
410.249387755102	410.6673469387755	79	127
410.3887074829932	410.6673469387755	62	127
410.3887074829932	410.6673469387755	67	127
410.6673469387755	411.4219954648526	48	127
410.6673469387755	410.9343764172336	62	127
410.6673469387755	411.06208616780043	77	127
410.6673469387755	410.9343764172336	67	127
410.9343764172336	411.1665759637188	67	127
410.9343764172336	411.1665759637188	55	127
411.06208616780043	411.41038548752834	76	127
411.1665759637188	411.4219954648526	67	127
411.1665759637188	411.4219954648526	79	127
411.1665759637188	411.4219954648526	60	127
411.4219954648526	412.1418140589569	51	127
411.4219954648526	412.4204535147392	83	127
411.4219954648526	411.68902494331064	66	127
411.4219954648526	411.68902494331064	71	127
411.4219954648526	411.8283446712018	78	127
411.68902494331064	411.967664399093	71	127
411.68902494331064	411.967664399093	59	127
411.8283446712018	412.22308390022675	83	127
411.967664399093	412.22308390022675	71	127
411.967664399093	412.22308390022675	66	127
412.22308390022675	412.3043537414966	66	127
412.22308390022675	412.3740136054422	81	127
412.22308390022675	412.67587301587304	52	127
412.22308390022675	412.3043537414966	71	127
412.3043537414966	412.45528344671203	71	127
412.3043537414966	412.45528344671203	59	127
412.3740136054422	412.67587301587304	79	127
412.45528344671203	412.66426303854877	71	127
412.45528344671203	412.66426303854877	64	127
412.45528344671203	412.67587301587304	83	127
412.67587301587304	413.070612244898	81	127
412.67587301587304	412.94290249433107	67	127
412.67587301587304	412.94290249433107	72	127
412.67587301587304	413.48857142857145	84	127
412.67587301587304	413.48857142857145	51	127
412.94290249433107	413.2099319727891	67	127
412.94290249433107	413.2099319727891	55	127
413.070612244898	413.48857142857145	79	127
413.2099319727891	413.48857142857145	72	127
413.2099319727891	413.48857142857145	67	127
413.48857142857145	414.2432199546485	83	127
413.48857142857145	413.76721088435374	67	127
413.48857142857145	414.2432199546485	50	127
413.48857142857145	413.76721088435374	55	127
413.48857142857145	413.76721088435374	81	127
413.76721088435374	414.04585034013604	79	127
413.76721088435374	414.04585034013604	67	127
413.76721088435374	414.04585034013604	71	127
414.04585034013604	414.32448979591834	55	127
414.04585034013604	414.32448979591834	67	127
414.04585034013604	414.32448979591834	81	127
414.3360997732426	414.6031292517007	67	127
414.3360997732426	415.1604081632653	48	127
414.3360997732426	414.6031292517007	79	127
414.3360997732426	414.6031292517007	76	127
414.3360997732426	415.1604081632653	88	127
414.6031292517007	414.89337868480726	67	127
414.6031292517007	414.89337868480726	81	127
414.6031292517007	414.89337868480726	55	127
414.89337868480726	415.1604081632653	67	127
414.89337868480726	415.1604081632653	79	127
414.89337868480726	415.1604081632653	76	127
415.1604081632653	415.8570068027211	47	127
415.1604081632653	415.93827664399095	86	127
415.1604081632653	415.43904761904764	81	127
415.1604081632653	415.43904761904764	55	127
415.1604081632653	415.43904761904764	67	127
415.43904761904764	415.68285714285713	74	127
415.43904761904764	415.68285714285713	79	127
415.43904761904764	415.68285714285713	67	127
415.68285714285713	415.93827664399095	81	127
415.68285714285713	415.93827664399095	55	127
415.68285714285713	415.93827664399095	67	127
415.93827664399095	416.205306122449	67	127
415.93827664399095	416.7393650793651	64	127
415.93827664399095	416.1356462585034	79	127
415.93827664399095	416.7393650793651	52	127
415.93827664399095	416.205306122449	72	127
415.93827664399095	416.65809523809526	84	127
416.1356462585034	416.34462585034015	81	127
416.205306122449	416.48394557823127	55	127
416.205306122449	416.48394557823127	67	127
416.34462585034015	416.5536054421769	79	127
416.48394557823127	416.7393650793651	67	127
416.48394557823127	416.7393650793651	72	127
416.5536054421769	416.7393650793651	81	127
416.7393650793651	417.0528344671202	67	127
416.7393650793651	417.5404535147392	62	127
416.7393650793651	417.5404535147392	50	127
416.7393650793651	417.62172335600906	83	127
416.7393650793651	417.0528344671202	55	127
416.7393650793651	416.9599546485261	79	127
416.97156462585036	417.16893424036283	81	127
417.0528344671202	417.3314739229025	71	127
417.0528344671202	417.3314739229025	67	127
417.1805442176871	417.40113378684805	79	127
417.3314739229025	417.62172335600906	55	127
417.3314739229025	417.62172335600906	67	127
417.4127437641723	417.62172335600906	81	127
417.62172335600906	418.1093424036281	88	127
417.62172335600906	417.9235827664399	67	127
417.62172335600906	418.1093424036281	60	127
417.62172335600906	417.9235827664399	76	127
417.62172335600906	418.1093424036281	48	127
417.62172335600906	417.7029931972789	79	127
417.7029931972789	417.7726530612245	81	127
417.7726530612245	417.85392290249433	79	127
417.85392290249433	417.9235827664399	81	127
417.9235827664399	418.1093424036281	55	127
417.9235827664399	418.0048526077097	79	127
417.9235827664399	418.1093424036281	67	127
418.0048526077097	418.0861224489796	81	127
418.0861224489796	418.1093424036281	79	127
418.1093424036281	418.92204081632656	47	127
418.1093424036281	418.92204081632656	59	127
418.1093424036281	418.411201814059	67	127
418.1093424036281	418.1790022675737	79	127
418.1093424036281	418.411201814059	55	127
418.1093424036281	418.92204081632656	86	127
418.1790022675737	418.24866213151927	81	127
418.24866213151927	418.3299319727891	79	127
418.3299319727891	418.411201814059	81	127
418.411201814059	418.72467120181403	67	127
418.411201814059	418.48086167800454	79	127
418.411201814059	418.72467120181403	74	127
418.48086167800454	418.5621315192744	81	127
418.5621315192744	418.6434013605442	79	127
418.6434013605442	418.72467120181403	81	127
418.72467120181403	418.9917006802721	55	127
418.72467120181403	418.79433106575965	79	127
418.72467120181403	418.9917006802721	67	127
418.79433106575965	418.8756009070295	81	127
418.8756009070295	418.9568707482993	79	127
418.9568707482993	418.9917006802721	81	127
418.9917006802721	419.51414965986396	57	127
418.9917006802721	419.51414965986396	45	127
418.9917006802721	419.10780045351476	73	127
418.9917006802721	419.5373696145125	91	127
418.9917006802721	419.0613605442177	79	127
418.9917006802721	419.10780045351476	67	127
419.0613605442177	419.10780045351476	81	127
419.10780045351476	419.34	67	127
419.10780045351476	419.1426303854875	79	127
419.10780045351476	419.34	57	127
419.1426303854875	419.1890702947846	81	127
419.1890702947846	419.2703401360544	79	127
419.2703401360544	419.34	81	127
419.34	419.5373696145125	67	127
419.34	419.5373696145125	73	127
419.34	419.38643990929705	79	127
419.38643990929705	419.4677097505669	81	127
419.4677097505669	419.5373696145125	79	127
419.5373696145125	420.01337868480726	88	127
419.5373696145125	420.001768707483	49	127
419.5373696145125	419.79278911564626	67	127
419.5373696145125	420.1294784580499	57	127
419.5373696145125	420.001768707483	37	127
419.5373696145125	419.5954195011338	79	127
419.5373696145125	420.1294784580499	67	127
419.5954195011338	419.66507936507935	81	127
419.66507936507935	419.7115192743764	79	127
419.7115192743764	419.79278911564626	81	127
419.79278911564626	419.93210884353743	76	127
419.79278911564626	419.83922902494334	79	127
419.83922902494334	419.8624489795918	79	127
419.8624489795918	419.93210884353743	81	127
419.93210884353743	419.9553287981859	79	127
419.93210884353743	420.01337868480726	67	127
419.9553287981859	420.01337868480726	79	127
420.01337868480726	420.0365986394558	79	127
420.01337868480726	420.57065759637186	85	127
420.01337868480726	420.24557823129254	73	127
420.01337868480726	420.57065759637186	40	127
420.01337868480726	420.57065759637186	52	127
420.0365986394558	420.1294784580499	81	127
420.1294784580499	420.21074829931973	79	127
420.21074829931973	420.24557823129254	81	127
420.24557823129254	420.33845804988664	79	127
420.24557823129254	420.48938775510203	67	127
420.33845804988664	420.41972789115647	81	127
420.41972789115647	420.48938775510203	79	127
420.48938775510203	420.57065759637186	79	127
420.48938775510203	420.6751473922902	73	127
420.57065759637186	420.6751473922902	81	127
420.6867573696145	420.9421768707483	62	127
420.6867573696145	420.8144671201814	55	127
420.6867573696145	420.8144671201814	83	127
420.6867573696145	420.9421768707483	59	127
420.6867573696145	420.9421768707483	38	127
420.6867573696145	420.9421768707483	86	127
420.6867573696145	420.9421768707483	50	127
420.6867573696145	420.9421768707483	74	127
420.7564172335601	420.9421768707483	74	127
420.8260770975057	420.9421768707483	74	127
420.9537868480726	421.08149659863943	74	127
421.08149659863943	421.1279365079365	74	127
421.1279365079365	421.2556462585034	74	127
421.2672562358277	421.39496598639454	74	127
421.39496598639454	421.4414058956916	74	127
421.4530158730159	421.5807256235828	74	127
421.5807256235828	421.6619954648526	74	127
421.6619954648526	421.7897052154195	74	127
421.80131519274374	421.92902494331065	76	127
421.9406349206349	422.05673469387756	76	127
422.05673469387756	422.18444444444447	74	127
422.18444444444447	422.3121541950113	74	127
422.3237641723356	422.4514739229025	74	127
422.46308390022676	422.5791836734694	74	127
422.5791836734694	422.60240362811794	72	127
422.60240362811794	422.66045351473923	69	127
422.66045351473923	422.77655328798187	71	127
422.77655328798187	422.9042630385488	72	127
422.915873015873	423.0435827664399	74	127
423.0435827664399	423.1712925170068	71	127
423.1829024943311	423.28739229024944	69	127
423.2990022675737	423.4034920634921	67	127
423.4034920634921	423.53120181405893	69	127
423.5428117913832	423.6705215419501	71	127
423.6705215419501	423.798231292517	74	127
423.798231292517	423.8678911564626	72	127
423.8678911564626	423.9259410430839	71	127
423.9259410430839	423.9839909297052	69	127
423.9839909297052	423.9956009070295	71	127
424.00721088435375	424.1233106575964	72	127
424.1233106575964	424.25102040816324	74	127
424.2626303854875	424.3903401360544	79	127
424.2626303854875	424.3903401360544	71	127
424.3903401360544	424.5296598639456	69	127
424.3903401360544	424.5296598639456	79	127
424.5296598639456	424.65736961451245	67	127
424.5296598639456	424.65736961451245	79	127
424.6689795918367	424.7966893424036	79	127
424.6689795918367	424.7966893424036	69	127
424.7966893424036	424.87795918367345	79	127
424.7966893424036	424.87795918367345	67	127
424.87795918367345	424.97083900226755	66	127
424.87795918367345	424.97083900226755	79	127
424.97083900226755	425.09854875283446	64	127
424.97083900226755	425.09854875283446	86	127
425.11015873015873	425.1798185941043	66	127
425.11015873015873	425.1798185941043	81	127
425.1798185941043	425.3075283446712	64	127
425.1798185941043	425.3075283446712	81	127
425.3075283446712	425.4352380952381	62	127
425.3075283446712	425.4352380952381	81	127
425.4468480725624	425.5745578231292	66	127
425.4468480725624	425.5745578231292	81	127
425.5745578231292	425.70226757369613	83	127
425.5745578231292	425.70226757369613	67	127
425.70226757369613	425.82997732426304	64	127
425.70226757369613	425.82997732426304	83	127
425.82997732426304	425.8996371882086	81	127
425.82997732426304	425.8996371882086	66	127
425.8996371882086	425.9344671201814	81	127
425.8996371882086	425.9344671201814	64	127
425.9460770975057	426.0621768707483	81	127
425.9460770975057	426.0621768707483	62	127
426.0621768707483	426.1666666666667	66	127
426.0621768707483	426.1666666666667	81	127
426.17827664399096	426.29437641723354	79	127
426.17827664399096	426.29437641723354	64	127
426.29437641723354	426.4104761904762	78	127
426.4104761904762	426.4801360544218	76	127
426.4104761904762	426.4801360544218	69	127
426.4801360544218	426.5265759637188	78	127
426.5265759637188	426.6542857142857	61	127
426.5265759637188	426.64267573696145	79	127
426.6542857142857	426.77038548752836	81	127
426.77038548752836	426.89809523809527	62	127
426.77038548752836	426.886485260771	78	127
426.89809523809527	427.0258049886621	76	127
427.0258049886621	427.1302947845805	74	127
427.0258049886621	427.1302947845805	69	127
427.1302947845805	427.2580045351474	76	127
427.26961451247166	427.3857142857143	59	127
427.26961451247166	427.3857142857143	78	127
427.3857142857143	427.49020408163267	81	127
427.49020408163267	427.6063038548753	61	127
427.49020408163267	427.6063038548753	79	127
427.6063038548753	427.64113378684806	78	127
427.6527437641723	427.76884353741497	69	127
427.6527437641723	427.76884353741497	76	127
427.76884353741497	427.8849433106576	78	127
427.8849433106576	427.9429931972789	79	127
427.8849433106576	427.9429931972789	57	127
427.9429931972789	428.0242630385487	81	127
428.0242630385487	428.15197278911563	50	127
428.0242630385487	428.26807256235827	62	127
428.0242630385487	428.15197278911563	78	127
428.1635827664399	428.26807256235827	76	127
428.1635827664399	428.26807256235827	50	127
428.26807256235827	428.3957823129252	74	127
428.26807256235827	428.477052154195	66	127
428.26807256235827	428.3957823129252	50	127
428.3957823129252	428.477052154195	50	127
428.3957823129252	428.477052154195	76	127
428.4886621315193	428.7324716553288	69	127
428.4886621315193	428.6163718820862	50	127
428.4886621315193	428.6163718820862	74	127
428.6163718820862	428.7324716553288	50	127
428.6163718820862	428.7324716553288	72	127
428.7324716553288	428.8485714285714	55	127
428.7324716553288	428.9530612244898	67	127
428.7324716553288	428.8485714285714	71	127
428.8485714285714	428.9530612244898	55	127
428.8485714285714	428.9530612244898	73	127
428.9530612244898	428.9878911564626	74	127
428.9530612244898	429.09238095238095	66	127
428.9530612244898	428.9878911564626	50	127
428.9878911564626	429.09238095238095	74	127
428.9878911564626	429.09238095238095	50	127
429.1039909297052	429.2084807256236	74	127
429.1039909297052	429.3245804988662	62	127
429.1039909297052	429.2084807256236	50	127
429.2084807256236	429.3245804988662	50	127
429.2084807256236	429.3245804988662	74	127
429.3245804988662	429.44068027210886	79	127
429.3245804988662	429.5683900226757	73	127
429.3245804988662	429.44068027210886	52	127
429.44068027210886	429.5683900226757	79	127
429.44068027210886	429.5683900226757	52	127
429.5683900226757	429.6728798185941	50	127
429.5683900226757	429.7425396825397	74	127
429.5683900226757	429.6728798185941	78	127
429.6728798185941	429.7425396825397	78	127
429.6728798185941	429.7425396825397	50	127
429.75414965986397	430.0095691609977	62	127
429.75414965986397	429.8818594104308	50	127
429.75414965986397	429.8818594104308	78	127
429.8818594104308	430.0095691609977	78	127
429.8818594104308	430.0095691609977	50	127
430.0095691609977	430.13727891156464	81	127
430.0095691609977	430.13727891156464	66	127
430.1488888888889	430.26498866213154	81	127
430.1488888888889	430.26498866213154	64	127
430.27659863945576	430.40430839002266	62	127
430.27659863945576	430.40430839002266	81	127
430.40430839002266	430.53201814058957	64	127
430.40430839002266	430.53201814058957	81	127
430.53201814058957	430.63650793650794	62	127
430.53201814058957	430.63650793650794	81	127
430.6481179138322	430.76421768707485	60	127
430.6481179138322	430.76421768707485	81	127
430.7758276643991	430.8803174603175	86	127
430.7758276643991	430.8803174603175	59	127
430.8803174603175	430.98480725623585	86	127
430.8803174603175	430.98480725623585	61	127
430.98480725623585	431.1125170068027	81	127
430.98480725623585	431.1125170068027	62	127
431.124126984127	431.2402267573696	62	127
431.124126984127	431.2402267573696	81	127
431.2518367346939	431.2866666666667	81	127
431.2518367346939	431.2866666666667	62	127
431.2866666666667	431.39115646258506	67	127
431.2866666666667	431.39115646258506	83	127
431.39115646258506	431.5188662131519	83	127
431.39115646258506	431.5188662131519	67	127
431.5304761904762	431.63496598639455	66	127
431.5304761904762	431.63496598639455	81	127
431.6465759637188	431.66979591836736	66	127
431.6465759637188	431.66979591836736	81	127
431.66979591836736	431.79750566893426	81	127
431.66979591836736	431.79750566893426	66	127
431.79750566893426	431.91360544217684	81	127
431.79750566893426	431.91360544217684	66	127
431.9252154195011	432.0297052154195	52	127
431.9252154195011	432.0297052154195	80	127
431.9252154195011	432.0297052154195	64	127
432.0297052154195	432.13419501133785	78	127
432.0297052154195	432.13419501133785	52	127
432.1458049886621	432.27351473922903	68	127
432.1458049886621	432.27351473922903	52	127
432.1458049886621	432.27351473922903	76	127
432.27351473922903	432.38961451247167	52	127
432.27351473922903	432.38961451247167	77	127
432.38961451247167	432.5173242630386	76	127
432.38961451247167	432.5173242630386	52	127
432.38961451247167	432.5173242630386	71	127
432.5173242630386	432.6450340136054	74	127
432.5173242630386	432.6450340136054	52	127
432.6450340136054	432.77274376417233	69	127
432.6450340136054	432.76113378684806	57	127
432.6450340136054	432.76113378684806	72	127
432.77274376417233	432.8772335600907	57	127
432.77274376417233	432.8772335600907	74	127
432.88884353741497	432.98172335600907	76	127
432.88884353741497	432.98172335600907	52	127
432.88884353741497	432.99333333333334	68	127
432.99333333333334	433.0629931972789	76	127
432.99333333333334	433.0629931972789	52	127
433.0629931972789	433.1326530612245	76	127
433.0629931972789	433.1326530612245	64	127
433.0629931972789	433.1326530612245	52	127
433.1326530612245	433.2371428571429	52	127
433.1326530612245	433.2371428571429	76	127
433.2371428571429	433.3416326530612	81	127
433.2371428571429	433.3416326530612	54	127
433.2371428571429	433.3416326530612	75	127
433.3416326530612	433.45773242630383	81	127
433.3416326530612	433.45773242630383	54	127
433.4693424036281	433.5738321995465	52	127
433.4693424036281	433.58544217687074	76	127
433.4693424036281	433.5738321995465	80	127
433.58544217687074	433.6551020408163	52	127
433.58544217687074	433.6551020408163	80	127
433.6551020408163	433.7247619047619	80	127
433.6551020408163	433.7363718820862	64	127
433.6551020408163	433.7247619047619	52	127
433.7363718820862	433.84086167800456	80	127
433.7363718820862	433.84086167800456	52	127
433.84086167800456	433.95696145124714	83	127
433.84086167800456	433.95696145124714	68	127
433.95696145124714	434.08467120181405	66	127
433.95696145124714	434.08467120181405	83	127
434.08467120181405	434.21238095238095	64	127
434.08467120181405	434.21238095238095	83	127
434.21238095238095	434.3284807256236	65	127
434.21238095238095	434.3284807256236	83	127
434.3284807256236	434.4097505668934	83	127
434.3284807256236	434.4097505668934	64	127
434.4097505668934	434.53746031746033	83	127
434.4097505668934	434.53746031746033	62	127
434.53746031746033	434.66517006802724	60	127
434.53746031746033	434.66517006802724	88	127
434.66517006802724	434.7928798185941	62	127
434.66517006802724	434.7928798185941	88	127
434.7928798185941	434.83931972789117	83	127
434.7928798185941	434.83931972789117	64	127
434.83931972789117	434.9554195011338	64	127
434.83931972789117	434.9554195011338	83	127
434.9670294784581	435.08312925170065	83	127
434.9670294784581	435.08312925170065	64	127
435.0947392290249	435.21083900226756	64	127
435.0947392290249	435.21083900226756	83	127
435.22244897959183	435.3269387755102	69	127
435.22244897959183	435.3269387755102	84	127
435.33854875283447	435.4546485260771	69	127
435.33854875283447	435.4546485260771	84	127
435.4662585034014	435.582358276644	68	127
435.4662585034014	435.582358276644	83	127
435.5939682539682	435.71006802721087	68	127
435.5939682539682	435.71006802721087	83	127
435.72167800453514	435.7332879818594	68	127
435.72167800453514	435.7332879818594	83	127
435.7448979591837	435.8609977324263	83	127
435.7448979591837	435.8609977324263	68	127
435.8726077097506	435.97709750566895	81	127
435.8726077097506	435.9887074829932	66	127
435.9887074829932	436.1048072562358	80	127
436.11641723356007	436.4531065759637	59	127
436.11641723356007	436.1860770975057	78	127
436.19768707482996	436.29056689342406	80	127
436.3021768707483	436.4182766439909	81	127
436.4182766439909	436.53437641723355	83	127
436.5459863945578	436.66208616780045	80	127
436.5459863945578	436.6736961451247	64	127
436.6736961451247	436.7781859410431	78	127
436.7781859410431	436.78979591836736	76	127
436.7781859410431	436.9987755102041	59	127
436.78979591836736	436.8362358276644	78	127
436.8362358276644	436.952335600907	80	127
436.952335600907	437.0800453514739	83	127
437.0800453514739	437.19614512471657	66	127
437.0800453514739	437.19614512471657	81	127
437.19614512471657	437.3122448979592	80	127
437.3122448979592	437.3586848072562	78	127
437.3122448979592	437.6257142857143	59	127
437.3586848072562	437.4515646258503	80	127
437.4515646258503	437.57927437641723	81	127
437.57927437641723	437.69537414965987	83	127
437.70698412698414	437.83469387755105	64	127
437.70698412698414	437.8230839002268	79	127
437.83469387755105	437.92757369614515	78	127
437.9391836734694	438.3107029478458	57	127
437.9391836734694	438.055283446712	76	127
438.06689342403627	438.15977324263037	78	127
438.15977324263037	438.26426303854873	79	127
438.26426303854873	438.39197278911564	81	127
438.39197278911564	438.51968253968255	62	127
438.39197278911564	438.5080725623583	78	127
438.51968253968255	438.6357823129252	76	127
438.64739229024946	438.92603174603175	57	127
438.64739229024946	438.6822222222222	74	127
438.6938321995465	438.7751020408163	76	127
438.7867120181406	438.8795918367347	78	127
438.8795918367347	438.9956916099773	81	127
438.9956916099773	439.1234013605442	79	127
438.9956916099773	439.1234013605442	64	127
439.1234013605442	439.23950113378686	78	127
439.25111111111113	439.6690702947846	57	127
439.25111111111113	439.36721088435377	76	127
439.378820861678	439.4949206349206	78	127
439.5065306122449	439.6226303854875	79	127
439.6342403628118	439.75034013605443	81	127
439.75034013605443	439.9477097505669	62	127
439.75034013605443	439.8548299319728	77	127
439.8548299319728	439.9477097505669	76	127
439.95931972789117	440.05219954648527	74	127
439.95931972789117	440.33083900226757	55	127
440.05219954648527	440.1682993197279	76	127
440.1682993197279	440.28439909297055	77	127
440.1682993197279	440.4004988662131	67	127
440.28439909297055	440.4004988662131	79	127
440.4004988662131	440.60947845804986	65	127
440.4004988662131	440.52820861678003	62	127
440.4004988662131	440.51659863945576	76	127
440.4004988662131	440.51659863945576	77	127
440.52820861678003	440.60947845804986	76	127
440.52820861678003	440.60947845804986	72	127
440.62108843537413	440.69074829931975	71	127
440.62108843537413	440.9577777777778	55	127
440.62108843537413	440.8184580498866	62	127
440.62108843537413	440.69074829931975	74	127
440.69074829931975	440.8184580498866	72	127
440.69074829931975	440.8184580498866	76	127
440.8184580498866	440.9113378684807	77	127
440.8184580498866	440.9113378684807	74	127
440.8184580498866	440.92294784580497	55	127
440.8184580498866	441.0390476190476	67	127
440.92294784580497	441.0390476190476	79	127
440.92294784580497	441.0390476190476	76	127
441.0506575963719	441.1667573696145	55	127
441.0506575963719	441.1667573696145	77	127
441.0506575963719	441.2944671201814	65	127
441.0506575963719	441.4570068027211	48	127
441.0506575963719	441.1667573696145	81	127
441.0506575963719	441.1667573696145	55	127
441.1087074829932	441.2944671201814	71	127
441.1667573696145	441.2944671201814	79	127
441.1667573696145	441.2944671201814	76	127
441.2944671201814	441.6195464852608	48	127
441.2944671201814	441.41056689342406	81	127
441.2944671201814	441.50344671201816	62	127
441.2944671201814	441.41056689342406	77	127
441.4221768707483	441.50344671201816	83	127
441.4221768707483	441.50344671201816	79	127
441.51505668934243	441.5731065759637	84	127
441.51505668934243	441.5731065759637	81	127
441.51505668934243	441.6775963718821	48	127
441.51505668934243	441.6775963718821	67	127
441.5731065759637	441.6775963718821	86	127
441.5731065759637	441.6775963718821	83	127
441.6775963718821	441.7704761904762	55	127
441.6775963718821	441.78208616780046	43	127
441.6775963718821	441.7704761904762	84	127
441.6775963718821	441.87496598639456	64	127
441.6775963718821	441.7704761904762	88	127
441.7240362811791	441.87496598639456	72	127
441.78208616780046	441.87496598639456	83	127
441.78208616780046	441.87496598639456	86	127
441.87496598639456	441.9794557823129	36	127
441.87496598639456	441.9794557823129	81	127
441.87496598639456	441.9794557823129	84	127
441.9794557823129	442.0839455782313	79	127
441.9794557823129	442.0839455782313	83	127
442.0839455782313	442.18843537414966	81	127
442.0839455782313	442.18843537414966	48	127
442.0839455782313	442.18843537414966	78	127
442.18843537414966	442.29292517006803	79	127
442.18843537414966	442.29292517006803	76	127
442.29292517006803	442.4902947845805	78	127
442.29292517006803	442.4902947845805	66	127
442.29292517006803	442.4902947845805	57	127
442.29292517006803	442.4902947845805	50	127
442.29292517006803	442.4902947845805	74	127
442.29292517006803	442.37419501133786	50	127
442.38580498866213	442.4902947845805	50	127
442.4902947845805	442.6180045351474	50	127
442.4902947845805	442.6180045351474	60	127
442.6180045351474	442.73410430839004	50	127
442.6180045351474	442.73410430839004	60	127
442.7457142857143	442.8618140589569	62	127
442.7457142857143	442.8618140589569	50	127
442.7457142857143	442.8618140589569	62	127
442.7457142857143	442.8618140589569	60	127
442.8618140589569	442.97791383219953	62	127
442.8618140589569	442.97791383219953	60	127
442.8618140589569	442.97791383219953	50	127
442.8618140589569	442.97791383219953	62	127
442.97791383219953	443.10562358276644	69	127
442.97791383219953	443.10562358276644	62	127
442.97791383219953	443.10562358276644	69	127
442.97791383219953	443.10562358276644	62	127
442.97791383219953	443.10562358276644	60	127
443.10562358276644	443.2101133786848	60	127
443.10562358276644	443.2101133786848	69	127
443.10562358276644	443.2101133786848	62	127
443.10562358276644	443.2101133786848	62	127
443.10562358276644	443.2101133786848	69	127
443.2217233560091	443.32621315192745	72	127
443.2217233560091	443.32621315192745	62	127
443.2217233560091	443.32621315192745	62	127
443.2217233560091	443.32621315192745	69	127
443.3378231292517	443.4423129251701	62	127
443.3378231292517	443.4423129251701	72	127
443.3378231292517	443.4423129251701	69	127
443.3378231292517	443.4423129251701	62	127
443.4423129251701	443.57002267573694	72	127
443.4423129251701	443.57002267573694	62	127
443.4423129251701	443.57002267573694	62	127
443.4423129251701	443.57002267573694	69	127
443.57002267573694	443.69773242630384	69	127
443.57002267573694	443.69773242630384	72	127
443.57002267573694	443.69773242630384	62	127
443.57002267573694	443.69773242630384	62	127
443.69773242630384	443.8138321995465	74	127
443.69773242630384	443.9415419501134	55	127
443.69773242630384	443.8138321995465	67	127
443.69773242630384	443.8138321995465	72	127
443.82544217687075	443.9415419501134	67	127
443.82544217687075	443.9415419501134	72	127
443.82544217687075	443.9415419501134	74	127
443.95315192743766	444.0692517006803	72	127
443.95315192743766	444.0692517006803	74	127
443.95315192743766	444.0692517006803	67	127
444.0692517006803	444.17374149659867	74	127
444.0692517006803	444.17374149659867	67	127
444.0692517006803	444.17374149659867	72	127
444.17374149659867	444.2550113378685	67	127
444.17374149659867	444.2550113378685	74	127
444.17374149659867	444.2550113378685	72	127
444.2550113378685	444.3362811791383	67	127
444.2550113378685	444.3362811791383	74	127
444.2550113378685	444.3362811791383	72	127
444.3478911564626	444.45238095238096	55	127
444.3478911564626	444.45238095238096	55	127
444.3478911564626	444.45238095238096	43	127
444.3478911564626	444.45238095238096	67	127
444.3478911564626	444.45238095238096	71	127
444.3478911564626	444.45238095238096	65	127
444.3478911564626	444.45238095238096	79	127
444.45238095238096	444.58009070294787	67	127
444.45238095238096	444.58009070294787	65	127
444.45238095238096	444.58009070294787	55	127
444.45238095238096	444.58009070294787	43	127
444.45238095238096	444.58009070294787	55	127
444.45238095238096	444.58009070294787	79	127
444.45238095238096	444.58009070294787	71	127
444.58009070294787	444.68458049886624	67	127
444.58009070294787	444.68458049886624	65	127
444.58009070294787	444.68458049886624	55	127
444.58009070294787	444.68458049886624	55	127
444.58009070294787	444.68458049886624	71	127
444.58009070294787	444.68458049886624	74	127
444.58009070294787	444.68458049886624	43	127
444.69619047619045	444.8122902494331	55	127
444.69619047619045	444.8122902494331	67	127
444.69619047619045	444.8122902494331	43	127
444.69619047619045	444.8122902494331	55	127
444.69619047619045	444.8122902494331	71	127
444.69619047619045	444.8122902494331	65	127
444.69619047619045	444.8122902494331	74	127
444.82390022675736	444.94	67	127
444.82390022675736	444.94	55	127
444.82390022675736	444.94	65	127
444.82390022675736	444.94	43	127
444.82390022675736	444.94	55	127
444.82390022675736	444.94	71	127
444.82390022675736	444.94	74	127
444.94	445.05609977324264	65	127
444.94	445.05609977324264	67	127
444.94	445.05609977324264	43	127
444.94	445.05609977324264	55	127
444.94	445.05609977324264	71	127
444.94	445.05609977324264	74	127
444.94	445.05609977324264	55	127
445.05609977324264	445.1721995464853	67	127
445.05609977324264	445.1721995464853	55	127
445.05609977324264	445.1721995464853	60	127
445.05609977324264	445.18380952380954	48	127
445.05609977324264	445.1721995464853	76	127
445.05609977324264	445.1721995464853	72	127
445.05609977324264	445.1721995464853	64	127
445.18380952380954	445.2999092970522	67	127
445.18380952380954	445.2999092970522	55	127
445.18380952380954	445.2999092970522	76	127
445.18380952380954	445.2999092970522	64	127
445.18380952380954	445.2999092970522	72	127
445.18380952380954	445.2999092970522	60	127
445.3115192743764	445.42761904761903	55	127
445.3115192743764	445.68303854875285	43	127
445.3115192743764	445.42761904761903	55	127
445.3115192743764	445.42761904761903	74	127
445.3115192743764	445.42761904761903	71	127
445.3115192743764	445.42761904761903	67	127
445.42761904761903	445.5321088435374	55	127
445.42761904761903	445.5321088435374	71	127
445.42761904761903	445.5321088435374	67	127
445.42761904761903	445.5321088435374	55	127
445.42761904761903	445.5321088435374	74	127
445.5321088435374	445.63659863945577	55	127
445.5321088435374	445.63659863945577	74	127
445.5321088435374	445.63659863945577	71	127
445.5321088435374	445.63659863945577	55	127
445.5321088435374	445.63659863945577	67	127
445.63659863945577	445.74108843537414	67	127
445.63659863945577	445.74108843537414	55	127
445.63659863945577	445.74108843537414	74	127
445.63659863945577	445.74108843537414	71	127
445.63659863945577	445.74108843537414	55	127
445.74108843537414	445.8455782312925	76	127
445.74108843537414	445.8455782312925	60	127
445.74108843537414	445.8455782312925	60	127
445.74108843537414	445.8571882086168	48	127
445.74108843537414	445.8455782312925	67	127
445.8571882086168	445.9848979591837	67	127
445.8571882086168	445.9848979591837	60	127
445.8571882086168	445.9848979591837	60	127
445.8571882086168	445.9848979591837	76	127
445.9848979591837	446.4144671201814	46	127
445.9848979591837	446.1126077097506	76	127
445.9848979591837	446.1126077097506	68	127
445.9848979591837	446.1126077097506	74	127
445.9848979591837	446.1126077097506	64	127
445.9848979591837	446.1126077097506	58	127
446.1126077097506	446.2287074829932	68	127
446.1126077097506	446.2287074829932	64	127
446.1126077097506	446.2287074829932	58	127
446.1126077097506	446.2287074829932	76	127
446.1126077097506	446.2287074829932	74	127
446.24031746031744	446.3564172335601	58	127
446.24031746031744	446.3564172335601	68	127
446.24031746031744	446.3564172335601	76	127
446.24031746031744	446.3564172335601	74	127
446.24031746031744	446.3564172335601	64	127
446.3796371882086	446.49573696145126	68	127
446.3796371882086	446.49573696145126	76	127
446.3796371882086	446.49573696145126	74	127
446.3796371882086	446.49573696145126	64	127
446.3796371882086	446.49573696145126	58	127
446.49573696145126	446.62344671201816	73	127
446.49573696145126	446.62344671201816	69	127
446.49573696145126	446.62344671201816	81	127
446.49573696145126	446.62344671201816	64	127
446.49573696145126	446.62344671201816	45	127
446.49573696145126	446.62344671201816	57	127
446.62344671201816	446.751156462585	57	127
446.62344671201816	446.751156462585	45	127
446.62344671201816	446.751156462585	73	127
446.62344671201816	446.751156462585	64	127
446.62344671201816	446.751156462585	69	127
446.62344671201816	446.751156462585	81	127
446.7627664399093	446.8788662131519	57	127
446.7627664399093	446.8788662131519	69	127
446.7627664399093	446.8788662131519	73	127
446.7627664399093	446.8788662131519	76	127
446.7627664399093	446.8788662131519	57	127
446.7627664399093	446.8788662131519	45	127
446.8904761904762	447.00657596371883	76	127
446.8904761904762	447.00657596371883	45	127
446.8904761904762	447.00657596371883	57	127
446.8904761904762	447.00657596371883	69	127
446.8904761904762	447.00657596371883	73	127
446.8904761904762	447.00657596371883	57	127
447.00657596371883	447.12267573696147	69	127
447.00657596371883	447.12267573696147	57	127
447.00657596371883	447.12267573696147	73	127
447.00657596371883	447.12267573696147	45	127
447.00657596371883	447.12267573696147	76	127
447.00657596371883	447.12267573696147	57	127
447.12267573696147	447.2503854875283	45	127
447.12267573696147	447.2503854875283	76	127
447.12267573696147	447.2503854875283	57	127
447.12267573696147	447.2503854875283	73	127
447.12267573696147	447.2503854875283	57	127
447.12267573696147	447.2503854875283	69	127
447.2503854875283	447.2968253968254	78	127
447.2503854875283	447.30843537414967	50	127
447.2503854875283	447.2968253968254	66	127
447.2503854875283	447.2968253968254	74	127
447.2503854875283	447.2968253968254	62	127
447.2503854875283	447.2968253968254	57	127
447.2503854875283	447.2968253968254	69	127
447.30843537414967	447.3897052154195	57	127
447.30843537414967	447.3897052154195	74	127
447.30843537414967	447.3897052154195	62	127
447.30843537414967	447.3897052154195	69	127
447.30843537414967	447.3897052154195	78	127
447.30843537414967	447.3897052154195	66	127
447.40131519274377	447.50580498866213	73	127
447.40131519274377	447.50580498866213	76	127
447.40131519274377	447.78444444444443	45	127
447.40131519274377	447.50580498866213	57	127
447.40131519274377	447.50580498866213	69	127
447.40131519274377	447.50580498866213	57	127
447.50580498866213	447.6219047619048	57	127
447.50580498866213	447.6219047619048	69	127
447.50580498866213	447.6219047619048	76	127
447.50580498866213	447.6219047619048	57	127
447.50580498866213	447.6219047619048	73	127
447.6219047619048	447.7380045351474	57	127
447.6219047619048	447.7380045351474	57	127
447.6219047619048	447.7380045351474	73	127
447.6219047619048	447.7380045351474	69	127
447.6219047619048	447.7380045351474	76	127
447.7496145124717	447.86571428571426	57	127
447.7496145124717	447.86571428571426	69	127
447.7496145124717	447.86571428571426	73	127
447.7496145124717	447.86571428571426	76	127
447.7496145124717	447.86571428571426	57	127
447.8889342403628	448.00503401360544	62	127
447.8889342403628	448.00503401360544	62	127
447.8889342403628	448.00503401360544	69	127
447.8889342403628	448.00503401360544	50	127
447.8889342403628	448.00503401360544	78	127
448.00503401360544	448.13274376417235	69	127
448.00503401360544	448.13274376417235	62	127
448.00503401360544	448.13274376417235	78	127
448.00503401360544	448.13274376417235	62	127
448.13274376417235	448.4926530612245	48	127
448.13274376417235	448.2372335600907	76	127
448.13274376417235	448.2372335600907	70	127
448.13274376417235	448.2372335600907	78	127
448.13274376417235	448.2372335600907	66	127
448.13274376417235	448.2372335600907	60	127
448.248843537415	448.3649433106576	70	127
448.248843537415	448.3649433106576	78	127
448.248843537415	448.3649433106576	60	127
448.248843537415	448.3649433106576	66	127
448.248843537415	448.3649433106576	76	127
448.37655328798184	448.44621315192745	66	127
448.37655328798184	448.44621315192745	76	127
448.37655328798184	448.44621315192745	78	127
448.37655328798184	448.44621315192745	60	127
448.37655328798184	448.44621315192745	70	127
448.44621315192745	448.515873015873	66	127
448.44621315192745	448.515873015873	78	127
448.44621315192745	448.515873015873	76	127
448.44621315192745	448.515873015873	60	127
448.44621315192745	448.515873015873	70	127
448.515873015873	448.63197278911565	71	127
448.515873015873	448.63197278911565	75	127
448.515873015873	448.63197278911565	59	127
448.515873015873	448.63197278911565	83	127
448.515873015873	448.63197278911565	66	127
448.515873015873	448.63197278911565	47	127
448.6435827664399	448.75968253968256	75	127
448.6435827664399	448.75968253968256	83	127
448.6435827664399	448.75968253968256	59	127
448.6435827664399	448.75968253968256	66	127
448.6435827664399	448.75968253968256	71	127
448.6435827664399	448.75968253968256	47	127
448.7712925170068	448.8293424036281	71	127
448.7712925170068	448.8293424036281	47	127
448.7712925170068	448.8293424036281	75	127
448.7712925170068	448.8293424036281	78	127
448.7712925170068	448.8293424036281	59	127
448.8293424036281	448.8757823129252	59	127
448.8293424036281	448.8757823129252	78	127
448.8293424036281	448.8757823129252	71	127
448.8293424036281	448.8757823129252	75	127
448.8293424036281	448.8757823129252	47	127
448.8873922902494	449.00349206349205	64	127
448.8873922902494	449.0151020408163	52	127
448.8873922902494	449.00349206349205	79	127
448.8873922902494	449.00349206349205	64	127
448.8873922902494	449.00349206349205	71	127
449.0151020408163	449.13120181405895	64	127
449.0151020408163	449.13120181405895	71	127
449.0151020408163	449.13120181405895	79	127
449.0151020408163	449.13120181405895	64	127
449.13120181405895	449.2473015873016	67	127
449.13120181405895	449.49111111111114	50	127
449.13120181405895	449.2473015873016	71	127
449.13120181405895	449.2473015873016	62	127
449.13120181405895	449.2473015873016	77	127
449.13120181405895	449.2473015873016	79	127
449.2473015873016	449.35179138321996	62	127
449.2473015873016	449.35179138321996	79	127
449.2473015873016	449.35179138321996	67	127
449.2473015873016	449.35179138321996	71	127
449.2473015873016	449.35179138321996	77	127
449.36340136054423	449.47950113378687	67	127
449.36340136054423	449.47950113378687	62	127
449.36340136054423	449.47950113378687	71	127
449.36340136054423	449.47950113378687	77	127
449.36340136054423	449.47950113378687	79	127
449.49111111111114	449.54916099773243	67	127
449.49111111111114	449.54916099773243	79	127
449.49111111111114	449.54916099773243	71	127
449.49111111111114	449.54916099773243	62	127
449.49111111111114	449.54916099773243	77	127
449.54916099773243	449.7813605442177	60	127
449.54916099773243	449.66526077097507	76	127
449.54916099773243	449.66526077097507	72	127
449.54916099773243	449.7813605442177	48	127
449.54916099773243	449.66526077097507	84	127
449.54916099773243	449.66526077097507	67	127
449.66526077097507	449.7813605442177	72	127
449.66526077097507	449.7813605442177	76	127
449.66526077097507	449.7813605442177	84	127
449.66526077097507	449.7813605442177	67	127
449.792970521542	450.0948299319728	53	127
449.792970521542	449.89746031746034	69	127
449.792970521542	450.0948299319728	65	127
449.792970521542	449.89746031746034	81	127
449.792970521542	449.89746031746034	72	127
449.90907029478456	449.9787301587302	81	127
449.90907029478456	449.9787301587302	69	127
449.90907029478456	449.9787301587302	72	127
449.9787301587302	450.0948299319728	81	127
449.9787301587302	450.0948299319728	72	127
449.9787301587302	450.0948299319728	69	127
450.0948299319728	450.1877097505669	73	127
450.0948299319728	450.1877097505669	81	127
450.0948299319728	450.1877097505669	63	127
450.0948299319728	450.1877097505669	69	127
450.0948299319728	450.1877097505669	51	127
450.0948299319728	450.1877097505669	79	127
450.1877097505669	450.4082993197279	62	127
450.1877097505669	450.2921995464853	78	127
450.1877097505669	450.2921995464853	86	127
450.1877097505669	450.2921995464853	74	127
450.1877097505669	450.2921995464853	69	127
450.1877097505669	450.4082993197279	50	127
450.30380952380955	450.4082993197279	74	127
450.30380952380955	450.4082993197279	69	127
450.30380952380955	450.4082993197279	86	127
450.30380952380955	450.4082993197279	78	127
450.4082993197279	450.6869387755102	67	127
450.4082993197279	450.48956916099775	71	127
450.4082993197279	450.6869387755102	55	127
450.4082993197279	450.48956916099775	74	127
450.4082993197279	450.48956916099775	83	127
450.48956916099775	450.5940589569161	83	127
450.48956916099775	450.5940589569161	71	127
450.48956916099775	450.5940589569161	74	127
450.5940589569161	450.6869387755102	83	127
450.5940589569161	450.6869387755102	71	127
450.5940589569161	450.6869387755102	74	127
450.6985487528345	450.7449886621315	53	127
450.6985487528345	450.7449886621315	81	127
450.6985487528345	450.7449886621315	71	127
450.6985487528345	450.7449886621315	65	127
450.6985487528345	450.7449886621315	83	127
450.6985487528345	450.7449886621315	75	127
450.7449886621315	450.9307482993197	52	127
450.7449886621315	450.9307482993197	64	127
450.7449886621315	450.8146485260771	76	127
450.7449886621315	450.8146485260771	88	127
450.7449886621315	450.8146485260771	80	127
450.7449886621315	450.8146485260771	71	127
450.8146485260771	450.9307482993197	88	127
450.8146485260771	450.9307482993197	71	127
450.8146485260771	450.9307482993197	80	127
450.8146485260771	450.9307482993197	76	127
450.9307482993197	451.02362811791386	84	127
450.9307482993197	451.02362811791386	81	127
450.9307482993197	451.02362811791386	72	127
450.9307482993197	451.02362811791386	76	127
450.9307482993197	451.2442176870748	57	127
450.9307482993197	451.2442176870748	69	127
451.03523809523807	451.13972789115644	84	127
451.03523809523807	451.13972789115644	81	127
451.03523809523807	451.13972789115644	72	127
451.03523809523807	451.13972789115644	76	127
451.1513378684807	451.2442176870748	76	127
451.1513378684807	451.2442176870748	84	127
451.1513378684807	451.2442176870748	72	127
451.1513378684807	451.2442176870748	81	127
451.2442176870748	451.3487074829932	82	127
451.2442176870748	451.3487074829932	84	127
451.2442176870748	451.3487074829932	72	127
451.2442176870748	451.3487074829932	55	127
451.2442176870748	451.3487074829932	67	127
451.2442176870748	451.3487074829932	76	127
451.3487074829932	451.5692970521542	48	127
451.3487074829932	451.45319727891155	60	127
451.3487074829932	451.45319727891155	72	127
451.3487074829932	451.5692970521542	60	127
451.3487074829932	451.45319727891155	76	127
451.3487074829932	451.45319727891155	88	127
451.3487074829932	451.45319727891155	82	127
451.4648072562358	451.5692970521542	82	127
451.4648072562358	451.5692970521542	72	127
451.4648072562358	451.5692970521542	88	127
451.4648072562358	451.5692970521542	76	127
451.4648072562358	451.5692970521542	60	127
451.58090702947845	451.6970068027211	81	127
451.58090702947845	451.9175963718821	57	127
451.58090702947845	451.6970068027211	60	127
451.58090702947845	451.6970068027211	84	127
451.58090702947845	451.9175963718821	69	127
451.58090702947845	451.6970068027211	72	127
451.6970068027211	451.81310657596373	81	127
451.6970068027211	451.81310657596373	72	127
451.6970068027211	451.81310657596373	84	127
451.6970068027211	451.81310657596373	60	127
451.81310657596373	451.9175963718821	81	127
451.81310657596373	451.9175963718821	72	127
451.81310657596373	451.9175963718821	60	127
451.81310657596373	451.9175963718821	84	127
451.9175963718821	452.03369614512474	55	127
451.9175963718821	452.03369614512474	72	127
451.9175963718821	452.03369614512474	67	127
451.9175963718821	452.03369614512474	82	127
451.9175963718821	452.03369614512474	60	127
451.9175963718821	452.03369614512474	84	127
452.045306122449	452.12657596371884	76	127
452.045306122449	452.2542857142857	60	127
452.045306122449	452.12657596371884	60	127
452.045306122449	452.12657596371884	72	127
452.045306122449	452.2542857142857	48	127
452.045306122449	452.12657596371884	88	127
452.045306122449	452.12657596371884	82	127
452.1381859410431	452.2542857142857	76	127
452.1381859410431	452.2542857142857	82	127
452.1381859410431	452.2542857142857	72	127
452.1381859410431	452.2542857142857	88	127
452.1381859410431	452.2542857142857	60	127
452.2542857142857	452.3819954648526	84	127
452.2542857142857	452.3819954648526	60	127
452.2542857142857	452.5561451247166	69	127
452.2542857142857	452.3819954648526	81	127
452.2542857142857	452.3819954648526	72	127
452.2542857142857	452.5561451247166	57	127
452.3819954648526	452.4516553287982	60	127
452.3819954648526	452.4516553287982	81	127
452.3819954648526	452.4516553287982	84	127
452.3819954648526	452.4516553287982	72	127
452.4632653061224	452.5561451247166	60	127
452.4632653061224	452.5561451247166	84	127
452.4632653061224	452.5561451247166	81	127
452.4632653061224	452.5561451247166	72	127
452.5677551020408	452.67224489795916	60	127
452.5677551020408	452.67224489795916	67	127
452.5677551020408	452.67224489795916	55	127
452.5677551020408	452.67224489795916	72	127
452.5677551020408	452.67224489795916	84	127
452.5677551020408	452.67224489795916	82	127
452.67224489795916	452.7883446712018	82	127
452.67224489795916	452.7883446712018	88	127
452.67224489795916	452.7883446712018	76	127
452.67224489795916	452.8812244897959	48	127
452.67224489795916	452.8812244897959	60	127
452.67224489795916	452.7883446712018	72	127
452.67224489795916	452.7883446712018	60	127
452.7883446712018	452.8812244897959	72	127
452.7883446712018	452.8812244897959	82	127
452.7883446712018	452.8812244897959	88	127
452.7883446712018	452.8812244897959	76	127
452.7883446712018	452.8812244897959	60	127
452.89283446712017	453.0089342403628	60	127
452.89283446712017	453.0089342403628	84	127
452.89283446712017	453.0089342403628	81	127
452.89283446712017	453.2643537414966	57	127
452.89283446712017	453.2643537414966	69	127
452.89283446712017	453.0089342403628	72	127
453.0205442176871	453.12503401360544	84	127
453.0205442176871	453.12503401360544	81	127
453.0205442176871	453.12503401360544	72	127
453.0205442176871	453.12503401360544	60	127
453.12503401360544	453.2411337868481	84	127
453.12503401360544	453.2411337868481	72	127
453.12503401360544	453.2411337868481	81	127
453.12503401360544	453.2411337868481	60	127
453.2411337868481	453.3224036281179	81	127
453.2411337868481	453.3224036281179	84	127
453.2411337868481	453.3224036281179	60	127
453.2411337868481	453.3224036281179	72	127
453.3224036281179	453.6474829931973	55	127
453.3224036281179	453.6474829931973	67	127
453.3224036281179	453.39206349206347	84	127
453.3224036281179	453.39206349206347	82	127
453.3224036281179	453.39206349206347	72	127
453.3224036281179	453.39206349206347	60	127
453.40367346938774	453.5081632653061	84	127
453.40367346938774	453.5081632653061	72	127
453.40367346938774	453.5081632653061	82	127
453.40367346938774	453.5081632653061	60	127
453.5081632653061	453.6010430839002	60	127
453.5081632653061	453.6010430839002	82	127
453.5081632653061	453.6010430839002	84	127
453.5081632653061	453.6010430839002	72	127
453.6010430839002	453.7287528344671	72	127
453.6010430839002	453.7287528344671	84	127
453.6010430839002	453.7287528344671	82	127
453.6010430839002	453.7287528344671	60	127
453.7287528344671	453.84485260770975	84	127
453.7287528344671	453.84485260770975	72	127
453.7287528344671	453.97256235827666	60	127
453.7287528344671	453.84485260770975	79	127
453.7287528344671	453.97256235827666	48	127
453.7287528344671	453.84485260770975	60	127
453.856462585034	453.97256235827666	84	127
453.856462585034	453.97256235827666	60	127
453.856462585034	453.97256235827666	72	127
453.856462585034	453.97256235827666	79	127
453.98417233560093	454.1002721088435	76	127
453.98417233560093	454.1002721088435	72	127
453.98417233560093	454.37891156462587	57	127
453.98417233560093	454.1002721088435	84	127
453.98417233560093	454.1002721088435	81	127
453.98417233560093	454.37891156462587	45	127
453.98417233560093	454.1002721088435	60	127
454.1002721088435	454.2279818594104	76	127
454.1002721088435	454.2279818594104	60	127
454.1002721088435	454.2279818594104	81	127
454.1002721088435	454.2279818594104	84	127
454.1002721088435	454.2279818594104	72	127
454.2279818594104	454.34408163265306	84	127
454.2279818594104	454.34408163265306	76	127
454.2279818594104	454.34408163265306	81	127
454.2279818594104	454.34408163265306	72	127
454.2279818594104	454.34408163265306	60	127
454.34408163265306	454.4485714285714	72	127
454.34408163265306	454.4485714285714	81	127
454.34408163265306	454.4485714285714	84	127
454.34408163265306	454.4485714285714	76	127
454.34408163265306	454.4485714285714	60	127
454.4485714285714	454.52984126984126	82	127
454.4485714285714	454.52984126984126	84	127
454.4485714285714	454.52984126984126	60	127
454.4485714285714	454.52984126984126	72	127
454.4485714285714	454.6459410430839	55	127
454.4485714285714	454.6459410430839	43	127
454.4485714285714	454.52984126984126	76	127
454.52984126984126	454.6459410430839	82	127
454.52984126984126	454.6459410430839	60	127
454.52984126984126	454.6459410430839	84	127
454.52984126984126	454.6459410430839	72	127
454.52984126984126	454.6459410430839	76	127
454.6459410430839	454.7736507936508	48	127
454.6459410430839	454.76204081632653	76	127
454.6459410430839	454.7736507936508	36	127
454.6459410430839	454.76204081632653	82	127
454.6459410430839	454.76204081632653	60	127
454.6459410430839	454.76204081632653	70	127
454.6459410430839	454.76204081632653	84	127
454.6459410430839	454.76204081632653	72	127
454.7736507936508	454.87814058956917	72	127
454.7736507936508	454.87814058956917	70	127
454.7736507936508	454.87814058956917	84	127
454.7736507936508	454.87814058956917	60	127
454.7736507936508	454.87814058956917	76	127
454.7736507936508	454.87814058956917	82	127
454.87814058956917	454.98263038548754	84	127
454.87814058956917	454.98263038548754	60	127
454.87814058956917	454.98263038548754	72	127
454.87814058956917	454.98263038548754	76	127
454.87814058956917	455.26126984126984	48	127
454.87814058956917	454.98263038548754	70	127
454.87814058956917	454.98263038548754	82	127
454.98263038548754	455.0987301587302	70	127
454.98263038548754	455.0987301587302	76	127
454.98263038548754	455.0987301587302	84	127
454.98263038548754	455.0987301587302	82	127
454.98263038548754	455.0987301587302	60	127
454.98263038548754	455.0987301587302	72	127
455.0987301587302	455.226439909297	70	127
455.0987301587302	455.226439909297	84	127
455.0987301587302	455.226439909297	60	127
455.0987301587302	455.226439909297	82	127
455.0987301587302	455.226439909297	76	127
455.0987301587302	455.226439909297	72	127
455.226439909297	455.3309297052154	82	127
455.226439909297	455.3309297052154	76	127
455.226439909297	455.3309297052154	60	127
455.226439909297	455.3309297052154	72	127
455.226439909297	455.3309297052154	70	127
455.226439909297	455.3309297052154	84	127
455.34253968253967	455.5863492063492	65	127
455.34253968253967	455.5863492063492	41	127
455.34253968253967	455.4586394557823	81	127
455.34253968253967	455.4586394557823	93	127
455.34253968253967	455.5863492063492	53	127
455.34253968253967	455.5863492063492	69	127
455.34253968253967	455.4586394557823	77	127
455.34253968253967	455.4586394557823	69	127
455.4702494331066	455.5863492063492	93	127
455.4702494331066	455.5863492063492	77	127
455.4702494331066	455.5863492063492	81	127
455.5863492063492	455.7140589569161	81	127
455.5863492063492	455.7140589569161	93	127
455.5863492063492	455.7140589569161	77	127
455.7140589569161	455.83015873015876	77	127
455.7140589569161	455.83015873015876	93	127
455.7140589569161	455.83015873015876	81	127
455.84176870748297	455.8998185941043	93	127
455.84176870748297	455.8998185941043	81	127
455.84176870748297	455.8998185941043	77	127
455.8998185941043	456.0275283446712	62	127
455.8998185941043	456.0275283446712	59	127
456.0275283446712	456.1436281179138	62	127
456.0275283446712	456.1436281179138	59	127
456.1552380952381	456.2713378684807	62	127
456.1552380952381	456.2713378684807	59	127
456.282947845805	456.3758276643991	62	127
456.282947845805	456.3758276643991	59	127
456.3758276643991	456.4919274376417	59	127
456.3758276643991	456.4919274376417	62	127
456.4919274376417	456.6196371882086	59	127
456.4919274376417	456.6196371882086	62	127
456.6196371882086	456.73573696145127	79	127
456.6196371882086	456.73573696145127	64	127
456.74734693877554	456.82861678004537	64	127
456.74734693877554	456.82861678004537	79	127
456.82861678004537	456.8518367346939	64	127
456.82861678004537	456.8518367346939	79	127
456.8518367346939	456.97954648526076	79	127
456.8518367346939	456.97954648526076	64	127
456.97954648526076	457.0840362811791	79	127
456.97954648526076	457.0840362811791	64	127
457.0956462585034	457.21174603174603	79	127
457.0956462585034	457.21174603174603	64	127
457.2233560090703	457.33945578231294	60	127
457.2233560090703	457.33945578231294	45	127
457.33945578231294	457.46716553287985	60	127
457.33945578231294	457.46716553287985	45	127
457.46716553287985	457.5832653061224	45	127
457.46716553287985	457.5832653061224	60	127
457.5948752834467	457.6877551020408	60	127
457.5948752834467	457.6877551020408	45	127
457.69936507936507	457.8154648526077	60	127
457.69936507936507	457.8154648526077	45	127
457.8154648526077	457.93156462585034	45	127
457.8154648526077	457.93156462585034	60	127
457.93156462585034	458.047664399093	65	127
457.93156462585034	458.047664399093	62	127
458.05927437641725	458.1637641723356	65	127
458.05927437641725	458.1637641723356	62	127
458.1753741496599	458.27986394557826	62	127
458.1753741496599	458.27986394557826	65	127
458.27986394557826	458.4075736961451	62	127
458.27986394557826	458.4075736961451	65	127
458.4075736961451	458.535283446712	65	127
458.4075736961451	458.535283446712	62	127
458.535283446712	458.65138321995465	62	127
458.535283446712	458.65138321995465	65	127
458.6629931972789	458.77909297052156	43	127
458.6629931972789	458.77909297052156	47	127
458.79070294784583	458.87197278911566	43	127
458.79070294784583	458.87197278911566	47	127
458.87197278911566	458.9880725623583	43	127
458.87197278911566	458.9880725623583	47	127
458.9880725623583	459.1041723356009	47	127
458.9880725623583	459.1041723356009	43	127
459.11578231292515	459.2318820861678	47	127
459.11578231292515	459.2318820861678	43	127
459.24349206349206	459.3595918367347	43	127
459.24349206349206	459.3595918367347	47	127
459.3595918367347	459.4873015873016	91	127
459.3595918367347	459.4873015873016	79	127
459.4873015873016	459.60340136054424	79	127
459.4873015873016	459.6150113378685	79	127
459.6150113378685	459.69628117913834	91	127
459.6150113378685	459.69628117913834	79	127
459.69628117913834	459.7311111111111	79	127
459.69628117913834	459.7311111111111	79	127
459.7311111111111	459.84721088435373	56	127
459.7311111111111	459.84721088435373	68	127
459.858820861678	459.9400907029478	68	127
459.858820861678	459.9400907029478	56	127
459.9400907029478	460.06780045351474	56	127
459.9400907029478	460.06780045351474	68	127
460.06780045351474	460.19551020408164	56	127
460.06780045351474	460.19551020408164	68	127
460.19551020408164	460.3116099773243	56	127
460.19551020408164	460.3116099773243	68	127
460.32321995464855	460.43931972789113	56	127
460.32321995464855	460.43931972789113	68	127
460.4509297052154	460.56702947845804	65	127
460.4509297052154	460.56702947845804	77	127
460.56702947845804	460.69473922902495	65	127
460.56702947845804	460.69473922902495	65	127
460.69473922902495	460.82244897959185	77	127
460.69473922902495	460.8108390022676	65	127
460.82244897959185	460.9501587301587	65	127
460.82244897959185	460.9385487528345	65	127
460.9501587301587	461.06625850340134	65	127
460.9501587301587	461.06625850340134	77	127
461.06625850340134	461.19396825396825	65	127
461.06625850340134	461.19396825396825	65	127
461.19396825396825	461.2984580498866	55	127
461.19396825396825	461.2984580498866	43	127
461.3100680272109	461.41455782312926	43	127
461.3100680272109	461.41455782312926	55	127
461.4261678004535	461.54226757369617	55	127
461.4261678004535	461.54226757369617	43	127
461.54226757369617	461.6583673469388	43	127
461.54226757369617	461.6583673469388	55	127
461.6583673469388	461.72802721088436	43	127
461.6583673469388	461.72802721088436	55	127
461.72802721088436	461.844126984127	43	127
461.72802721088436	461.844126984127	55	127
461.85573696145127	461.97183673469385	63	127
461.85573696145127	461.97183673469385	51	127
461.9834467120181	462.09954648526076	63	127
461.9834467120181	462.09954648526076	51	127
462.09954648526076	462.22725623582767	63	127
462.09954648526076	462.22725623582767	51	127
462.22725623582767	462.3433560090703	63	127
462.22725623582767	462.3433560090703	51	127
462.3549659863946	462.4710657596372	63	127
462.3549659863946	462.4710657596372	51	127
462.4826757369614	462.59877551020406	51	127
462.4826757369614	462.59877551020406	63	127
462.59877551020406	462.73809523809524	42	127
462.73809523809524	462.8541950113379	42	127
462.86580498866215	462.9819047619048	42	127
462.993514739229	463.08639455782316	42	127
463.08639455782316	463.20249433106574	42	127
463.20249433106574	463.3069841269841	42	127
463.3069841269841	463.51596371882084	43	127
463.3069841269841	463.4114739229025	53	127
463.42308390022674	463.51596371882084	52	127
463.51596371882084	463.6204535147392	50	127
463.6204535147392	463.7133333333333	52	127
463.7133333333333	463.82943310657595	53	127
463.8410430839002	463.95714285714286	55	127
463.9687528344671	464.0616326530612	53	127
464.0616326530612	464.18934240362813	52	127
464.18934240362813	464.2938321995465	50	127
464.30544217687077	464.3867120181406	52	127
464.39832199546487	464.50281179138324	53	127
464.50281179138324	464.64213151927436	55	127
464.64213151927436	464.72340136054424	53	127
464.73501133786846	464.8395011337868	52	127
464.8511111111111	464.96721088435373	50	127
464.96721088435373	465.08331065759637	52	127
465.08331065759637	465.17619047619047	53	127
465.17619047619047	465.28068027210884	55	127
465.2922902494331	465.50126984126985	55	127
465.2922902494331	465.50126984126985	67	127
465.2922902494331	465.3967800453515	53	127
465.3967800453515	465.50126984126985	52	127
465.50126984126985	465.62897959183675	50	127
465.50126984126985	465.6754195011338	69	127
465.50126984126985	465.6638095238095	57	127
465.62897959183675	465.6638095238095	52	127
465.6754195011338	465.90761904761905	71	127
465.6754195011338	465.90761904761905	59	127
465.6754195011338	465.77990929705214	53	127
465.7915192743764	465.90761904761905	55	127
465.90761904761905	466.0237188208617	52	127
465.90761904761905	466.5577777777778	72	127
465.90761904761905	466.5577777777778	60	127
466.0237188208617	466.1398185941043	50	127
466.1514285714286	466.2675283446712	48	127
466.27913832199545	466.3952380952381	50	127
466.3952380952381	466.5113378684807	52	127
466.5113378684807	466.63904761904763	55	127
466.63904761904763	466.8712471655329	55	127
466.63904761904763	466.8712471655329	59	127
466.63904761904763	466.8712471655329	71	127
466.63904761904763	466.8712471655329	67	127
466.63904761904763	466.75514739229027	53	127
466.76675736961454	466.8712471655329	52	127
466.8712471655329	467.12666666666667	57	127
466.8712471655329	466.99895691609976	50	127
466.8712471655329	467.12666666666667	69	127
466.8712471655329	467.12666666666667	60	127
466.8712471655329	467.12666666666667	72	127
466.99895691609976	467.12666666666667	52	127
467.12666666666667	467.3704761904762	74	127
467.12666666666667	467.3704761904762	62	127
467.12666666666667	467.3704761904762	71	127
467.12666666666667	467.2427664399093	53	127
467.12666666666667	467.3704761904762	59	127
467.2543764172336	467.3704761904762	55	127
467.3820861678005	467.49818594104306	52	127
467.3820861678005	467.8813151927438	67	127
467.3820861678005	467.8813151927438	64	127
467.3820861678005	467.8813151927438	79	127
467.3820861678005	467.8813151927438	76	127
467.49818594104306	467.6142857142857	50	127
467.6142857142857	467.73038548752834	48	127
467.7419954648526	467.8697052154195	50	127
467.8813151927438	468.0554648526077	74	127
467.8813151927438	468.0554648526077	78	127
467.8813151927438	468.0554648526077	62	127
467.8813151927438	468.0554648526077	66	127
467.8813151927438	467.9974149659864	52	127
467.9974149659864	468.0554648526077	55	127
468.0554648526077	468.31088435374147	76	127
468.0554648526077	468.31088435374147	72	127
468.0554648526077	468.31088435374147	64	127
468.0554648526077	468.31088435374147	60	127
468.0554648526077	468.17156462585035	54	127
468.1831746031746	468.29927437641726	52	127
468.31088435374147	468.5663038548753	71	127
468.31088435374147	468.5663038548753	59	127
468.31088435374147	468.4385941043084	50	127
468.31088435374147	468.5663038548753	74	127
468.31088435374147	468.5663038548753	62	127
468.4385941043084	468.5663038548753	52	127
468.5663038548753	468.82172335600904	60	127
468.5663038548753	468.82172335600904	72	127
468.5663038548753	468.82172335600904	69	127
468.5663038548753	468.82172335600904	57	127
468.5663038548753	468.70562358276646	54	127
468.70562358276646	468.82172335600904	57	127
468.8333333333333	469.07714285714286	59	127
468.8333333333333	469.07714285714286	71	127
468.8333333333333	469.07714285714286	55	127
468.8333333333333	468.94943310657595	55	127
468.8333333333333	469.07714285714286	67	127
468.9610430839002	469.07714285714286	54	127
469.07714285714286	469.29773242630387	79	127
469.07714285714286	469.29773242630387	71	127
469.07714285714286	469.18163265306123	52	127
469.07714285714286	469.29773242630387	83	127
469.07714285714286	469.29773242630387	67	127
469.18163265306123	469.29773242630387	54	127
469.29773242630387	469.5183219954649	78	127
469.29773242630387	469.5183219954649	81	127
469.29773242630387	469.40222222222224	55	127
469.29773242630387	469.5183219954649	66	127
469.29773242630387	469.5183219954649	69	127
469.4138321995465	469.5183219954649	59	127
469.5183219954649	469.77374149659863	67	127
469.5183219954649	469.77374149659863	79	127
469.5183219954649	469.6460317460317	55	127
469.5183219954649	469.77374149659863	64	127
469.5183219954649	469.77374149659863	76	127
469.6460317460317	469.76213151927436	64	127
469.77374149659863	470.0175510204082	76	127
469.77374149659863	470.0175510204082	64	127
469.77374149659863	470.0175510204082	60	127
469.77374149659863	469.88984126984127	72	127
469.77374149659863	470.0175510204082	72	127
469.90145124716554	470.0175510204082	64	127
470.0175510204082	470.27297052154194	69	127
470.0175510204082	470.1452607709751	72	127
470.0175510204082	470.27297052154194	72	127
470.0175510204082	470.27297052154194	60	127
470.0175510204082	470.27297052154194	57	127
470.1452607709751	470.27297052154194	64	127
470.27297052154194	470.3890702947846	55	127
470.27297052154194	470.5051700680272	67	127
470.27297052154194	470.5051700680272	71	127
470.27297052154194	470.5051700680272	59	127
470.27297052154194	470.5051700680272	55	127
470.40068027210884	470.5051700680272	62	127
470.5051700680272	470.7257596371882	59	127
470.5051700680272	470.7257596371882	62	127
470.5051700680272	470.7257596371882	71	127
470.5051700680272	470.7257596371882	74	127
470.5051700680272	470.5980498866213	71	127
470.5980498866213	470.7257596371882	62	127
470.7257596371882	470.8302494331066	71	127
470.7257596371882	470.9579591836735	79	127
470.7257596371882	470.9579591836735	67	127
470.7257596371882	470.9695691609977	71	127
470.7257596371882	470.9695691609977	59	127
470.84185941043086	470.9579591836735	62	127
470.9695691609977	471.3875283446712	72	127
470.9695691609977	471.3875283446712	86	127
470.9695691609977	471.53845804988663	60	127
470.9695691609977	471.3875283446712	74	127
470.9695691609977	471.06244897959186	50	127
471.06244897959186	471.1437188208617	57	127
471.1437188208617	471.25981859410433	62	127
471.27142857142854	471.3759183673469	57	127
471.3875283446712	471.61972789115646	66	127
471.3875283446712	471.61972789115646	78	127
471.3875283446712	471.5036281179138	62	127
471.3875283446712	471.61972789115646	69	127
471.5036281179138	471.61972789115646	57	127
471.61972789115646	471.7358276643991	65	127
471.61972789115646	472.03768707482993	59	127
471.61972789115646	471.7358276643991	53	127
471.61972789115646	471.863537414966	55	127
471.61972789115646	471.74743764172337	79	127
471.61972789115646	471.74743764172337	67	127
471.61972789115646	471.863537414966	67	127
471.74743764172337	471.863537414966	52	127
471.74743764172337	471.863537414966	64	127
471.8751473922903	471.99124716553285	67	127
471.8751473922903	471.99124716553285	50	127
471.8751473922903	471.99124716553285	62	127
471.8751473922903	472.1073469387755	67	127
471.8751473922903	472.1073469387755	55	127
471.8751473922903	471.99124716553285	79	127
471.99124716553285	472.1073469387755	52	127
471.99124716553285	472.1073469387755	64	127
472.1073469387755	472.2350566893424	65	127
472.1073469387755	472.2350566893424	53	127
472.2350566893424	472.33954648526077	67	127
472.2350566893424	472.33954648526077	55	127
472.33954648526077	472.38598639455785	79	127
472.33954648526077	472.4208163265306	55	127
472.33954648526077	472.38598639455785	65	127
472.33954648526077	472.4208163265306	67	127
472.33954648526077	472.38598639455785	53	127
472.33954648526077	472.38598639455785	67	127
472.38598639455785	472.4208163265306	52	127
472.38598639455785	472.4208163265306	64	127
472.4208163265306	472.4904761904762	79	127
472.4208163265306	472.4904761904762	67	127
472.4208163265306	472.4904761904762	50	127
472.4208163265306	472.5485260770975	55	127
472.4208163265306	472.5485260770975	67	127
472.4208163265306	472.4904761904762	62	127
472.4904761904762	472.5485260770975	52	127
472.4904761904762	472.5485260770975	64	127
472.5601360544218	472.66462585034014	53	127
472.5601360544218	472.66462585034014	65	127
472.66462585034014	472.72267573696143	65	127
472.66462585034014	472.8387755102041	67	127
472.66462585034014	472.72267573696143	67	127
472.66462585034014	472.72267573696143	79	127
472.66462585034014	472.8387755102041	55	127
472.66462585034014	472.72267573696143	53	127
472.72267573696143	472.8387755102041	52	127
472.72267573696143	472.8387755102041	64	127
472.85038548752834	472.966485260771	50	127
472.85038548752834	473.0825850340136	55	127
472.85038548752834	473.0825850340136	67	127
472.85038548752834	472.97809523809525	67	127
472.85038548752834	472.97809523809525	79	127
472.85038548752834	472.966485260771	62	127
472.97809523809525	473.0825850340136	64	127
472.97809523809525	473.0825850340136	52	127
473.0825850340136	473.2102947845805	53	127
473.0825850340136	473.2102947845805	65	127
473.2102947845805	473.3380045351474	67	127
473.2102947845805	473.3380045351474	55	127
473.3380045351474	473.5585941043084	67	127
473.3380045351474	473.45410430839	53	127
473.3380045351474	473.5585941043084	55	127
473.3380045351474	473.5585941043084	43	127
473.3380045351474	473.45410430839	65	127
473.45410430839	473.5585941043084	52	127
473.45410430839	473.5585941043084	64	127
473.5585941043084	473.8140136054422	55	127
473.5585941043084	473.6863038548753	62	127
473.5585941043084	473.8140136054422	45	127
473.5585941043084	473.8140136054422	67	127
473.5585941043084	473.6863038548753	50	127
473.6863038548753	473.8140136054422	52	127
473.6863038548753	473.8140136054422	64	127
473.8140136054422	473.9301133786848	65	127
473.8140136054422	473.9301133786848	53	127
473.8140136054422	474.0462131519274	47	127
473.94172335600905	474.0462131519274	55	127
473.94172335600905	474.0462131519274	67	127
474.0578231292517	474.69637188208617	48	127
474.0578231292517	474.1739229024943	52	127
474.0578231292517	474.29002267573696	67	127
474.0578231292517	474.1739229024943	64	127
474.0578231292517	474.29002267573696	55	127
474.1739229024943	474.29002267573696	50	127
474.1739229024943	474.29002267573696	62	127
474.29002267573696	474.4061224489796	60	127
474.29002267573696	474.4061224489796	48	127
474.29002267573696	474.5338321995465	67	127
474.29002267573696	474.5338321995465	55	127
474.41773242630387	474.5338321995465	50	127
474.41773242630387	474.5338321995465	62	127
474.5454421768707	474.6499319727891	52	127
474.5454421768707	474.6499319727891	64	127
474.6499319727891	474.777641723356	55	127
474.6499319727891	474.777641723356	67	127
474.777641723356	475.1375510204082	67	127
474.777641723356	475.0098412698413	83	127
474.777641723356	474.89374149659864	65	127
474.777641723356	475.0098412698413	71	127
474.777641723356	475.0098412698413	43	127
474.777641723356	475.0098412698413	55	127
474.9053514739229	474.998231292517	64	127
475.0098412698413	475.20721088435374	72	127
475.0098412698413	475.20721088435374	45	127
475.0098412698413	475.0911111111111	62	127
475.0098412698413	475.20721088435374	57	127
475.0098412698413	475.20721088435374	84	127
475.0911111111111	475.20721088435374	64	127
475.20721088435374	475.439410430839	86	127
475.20721088435374	475.439410430839	59	127
475.20721088435374	475.439410430839	47	127
475.20721088435374	475.439410430839	74	127
475.20721088435374	475.33492063492065	65	127
475.20721088435374	475.439410430839	67	127
475.33492063492065	475.439410430839	67	127
475.4510204081633	475.96185941043086	64	127
475.4510204081633	475.57873015873014	64	127
475.4510204081633	475.96185941043086	76	127
475.4510204081633	475.96185941043086	91	127
475.4510204081633	475.96185941043086	79	127
475.4510204081633	475.880589569161	48	127
475.5903401360544	475.70643990929705	62	127
475.70643990929705	475.83414965986395	60	127
475.83414965986395	475.9502494331066	62	127
475.96185941043086	476.20566893424035	74	127
475.96185941043086	476.20566893424035	90	127
475.96185941043086	476.20566893424035	78	127
475.96185941043086	476.07795918367344	64	127
475.96185941043086	476.20566893424035	62	127
475.96185941043086	476.20566893424035	36	127
476.0895691609977	476.20566893424035	67	127
476.20566893424035	476.321768707483	66	127
476.20566893424035	476.61201814058956	38	127
476.20566893424035	476.4494784580499	60	127
476.20566893424035	476.4494784580499	76	127
476.20566893424035	476.4494784580499	72	127
476.20566893424035	476.4494784580499	88	127
476.321768707483	476.4378684807256	64	127
476.4494784580499	476.6932879818594	86	127
476.4494784580499	476.6932879818594	59	127
476.4494784580499	476.56557823129253	62	127
476.4494784580499	476.6932879818594	71	127
476.4494784580499	476.6932879818594	74	127
476.5771882086168	476.6932879818594	66	127
476.6932879818594	476.9487074829932	57	127
476.6932879818594	476.9487074829932	69	127
476.6932879818594	476.9487074829932	42	127
476.6932879818594	476.9487074829932	72	127
476.6932879818594	476.809387755102	69	127
476.6932879818594	476.9487074829932	84	127
476.809387755102	476.9487074829932	62	127
476.9487074829932	477.19251700680275	67	127
476.9487074829932	477.19251700680275	55	127
476.9487074829932	477.19251700680275	83	127
476.9487074829932	477.0764172335601	55	127
476.9487074829932	477.19251700680275	71	127
476.9487074829932	477.3550566893424	43	127
477.0764172335601	477.19251700680275	62	127
477.19251700680275	477.43632653061223	79	127
477.19251700680275	477.43632653061223	83	127
477.19251700680275	477.43632653061223	95	127
477.19251700680275	477.3086167800453	71	127
477.19251700680275	477.43632653061223	67	127
477.3086167800453	477.43632653061223	62	127
477.43632653061223	477.6801360544218	66	127
477.43632653061223	477.6801360544218	78	127
477.43632653061223	477.6801360544218	81	127
477.43632653061223	477.56403628117914	71	127
477.43632653061223	477.6801360544218	93	127
477.43632653061223	477.6685260770975	47	127
477.56403628117914	477.6685260770975	62	127
477.6801360544218	477.92394557823127	64	127
477.6801360544218	477.92394557823127	79	127
477.6801360544218	477.92394557823127	76	127
477.6801360544218	478.0748752834467	48	127
477.6801360544218	477.7962358276644	55	127
477.6801360544218	477.92394557823127	91	127
477.7962358276644	477.92394557823127	64	127
477.92394557823127	478.15614512471655	76	127
477.92394557823127	478.15614512471655	72	127
477.92394557823127	478.0400453514739	72	127
477.92394557823127	478.15614512471655	88	127
477.92394557823127	478.15614512471655	60	127
478.0400453514739	478.15614512471655	64	127
478.15614512471655	478.3999546485261	84	127
478.15614512471655	478.3999546485261	72	127
478.15614512471655	478.3999546485261	36	127
478.15614512471655	478.3999546485261	57	127
478.15614512471655	478.2722448979592	72	127
478.15614512471655	478.3999546485261	69	127
478.2722448979592	478.3999546485261	64	127
478.3999546485261	478.81791383219957	55	127
478.3999546485261	478.8991836734694	71	127
478.3999546485261	478.6437641723356	83	127
478.3999546485261	478.527664399093	55	127
478.3999546485261	478.81791383219957	38	127
478.3999546485261	478.65537414965985	67	127
478.527664399093	478.65537414965985	62	127
478.65537414965985	478.7714739229025	71	127
478.65537414965985	478.8991836734694	74	127
478.65537414965985	478.8991836734694	71	127
478.7714739229025	478.8991836734694	62	127
478.8991836734694	479.10816326530613	50	127
478.8991836734694	479.10816326530613	62	127
478.8991836734694	479.10816326530613	79	127
478.8991836734694	479.0268934240363	71	127
479.0268934240363	479.09655328798186	62	127
479.10816326530613	479.7234920634921	60	127
479.10816326530613	479.5841723356009	90	127
479.10816326530613	479.5841723356009	66	127
479.10816326530613	479.23587301587304	71	127
479.10816326530613	479.50290249433107	50	127
479.23587301587304	479.32875283446714	62	127
479.32875283446714	479.5841723356009	71	127
479.32875283446714	479.456462585034	71	127
479.456462585034	479.5841723356009	62	127
479.5841723356009	479.78154195011336	72	127
479.5841723356009	479.78154195011336	78	127
479.5841723356009	479.78154195011336	69	127
479.5841723356009	479.68866213151927	69	127
479.68866213151927	479.78154195011336	62	127
479.78154195011336	480.18789115646257	52	127
479.78154195011336	480.2691609977324	60	127
479.78154195011336	479.9092517006803	55	127
479.78154195011336	480.4317006802721	72	127
479.78154195011336	480.0253514739229	67	127
479.9092517006803	480.0253514739229	64	127
480.0253514739229	480.1530612244898	72	127
480.0253514739229	480.2691609977324	64	127
480.1530612244898	480.2691609977324	64	127
480.2691609977324	480.51297052154194	67	127
480.2691609977324	480.51297052154194	60	127
480.2691609977324	480.38526077097504	72	127
480.38526077097504	480.51297052154194	64	127
480.51297052154194	480.9077097505669	71	127
480.51297052154194	480.9077097505669	67	127
480.51297052154194	480.86126984126986	50	127
480.51297052154194	480.7103401360544	59	127
480.51297052154194	480.64068027210885	55	127
480.64068027210885	480.7103401360544	62	127
480.7103401360544	480.9077097505669	62	127
480.7103401360544	480.8148299319728	71	127
480.8148299319728	480.9077097505669	62	127
480.9077097505669	481.1631292517007	67	127
480.9077097505669	481.1631292517007	62	127
480.9077097505669	481.0354195011338	71	127
480.9077097505669	481.1515192743764	59	127
481.0354195011338	481.1515192743764	62	127
481.1631292517007	481.68557823129254	74	127
481.1631292517007	481.8365079365079	60	127
481.1631292517007	481.68557823129254	66	127
481.1631292517007	481.59269841269844	50	127
481.1631292517007	481.29083900226755	50	127
481.29083900226755	481.41854875283445	60	127
481.41854875283445	481.55786848072563	62	127
481.41854875283445	481.68557823129254	83	127
481.55786848072563	481.68557823129254	60	127
481.68557823129254	481.7900680272109	62	127
481.68557823129254	481.91777777777776	72	127
481.68557823129254	481.91777777777776	81	127
481.68557823129254	481.91777777777776	66	127
481.7900680272109	481.91777777777776	60	127
481.91777777777776	482.04548752834467	67	127
481.91777777777776	482.14997732426303	79	127
481.91777777777776	482.04548752834467	60	127
481.91777777777776	482.3009070294785	52	127
481.91777777777776	482.55632653061224	72	127
481.91777777777776	482.14997732426303	67	127
482.04548752834467	482.14997732426303	67	127
482.04548752834467	482.14997732426303	60	127
482.14997732426303	482.3821768707483	64	127
482.14997732426303	482.2544671201814	67	127
482.14997732426303	482.2544671201814	60	127
482.14997732426303	482.3821768707483	76	127
482.2544671201814	482.3821768707483	67	127
482.2544671201814	482.3821768707483	60	127
482.3821768707483	482.5098866213152	67	127
482.3821768707483	482.6259863945578	72	127
482.3821768707483	482.5098866213152	60	127
482.3821768707483	482.6259863945578	60	127
482.5098866213152	482.6259863945578	67	127
482.5098866213152	482.6259863945578	60	127
482.63759637188207	482.8814058956916	67	127
482.63759637188207	482.765306122449	67	127
482.63759637188207	483.2993650793651	71	127
482.63759637188207	483.05555555555554	50	127
482.63759637188207	482.765306122449	59	127
482.63759637188207	482.8814058956916	79	127
482.765306122449	482.8814058956916	59	127
482.765306122449	482.8814058956916	67	127
482.8814058956916	483.0091156462585	59	127
482.8814058956916	483.0091156462585	67	127
482.8814058956916	483.1368253968254	74	127
482.8814058956916	483.1368253968254	62	127
483.0091156462585	483.1368253968254	59	127
483.0091156462585	483.1368253968254	67	127
483.1368253968254	483.2645351473923	59	127
483.1368253968254	483.2645351473923	67	127
483.1368253968254	483.36902494331065	59	127
483.1368253968254	483.36902494331065	71	127
483.2645351473923	483.36902494331065	59	127
483.2645351473923	483.36902494331065	67	127
483.36902494331065	483.4851247165533	67	127
483.36902494331065	483.7869841269841	48	127
483.36902494331065	484.0656235827664	69	127
483.36902494331065	483.4851247165533	57	127
483.36902494331065	483.62444444444446	67	127
483.36902494331065	483.62444444444446	79	127
483.4851247165533	483.62444444444446	64	127
483.4851247165533	483.62444444444446	67	127
483.62444444444446	483.7521541950113	67	127
483.62444444444446	483.86825396825395	64	127
483.62444444444446	483.7521541950113	57	127
483.62444444444446	483.86825396825395	76	127
483.7521541950113	483.86825396825395	64	127
483.7521541950113	483.86825396825395	67	127
483.86825396825395	484.0191836734694	57	127
483.86825396825395	484.0191836734694	67	127
483.86825396825395	484.13528344671204	57	127
483.86825396825395	484.13528344671204	69	127
484.0191836734694	484.13528344671204	64	127
484.0191836734694	484.13528344671204	67	127
484.1468934240363	484.2629931972789	74	127
484.1468934240363	484.3907029478458	47	127
484.1468934240363	484.2629931972789	62	127
484.1468934240363	484.3907029478458	74	127
484.1468934240363	484.3907029478458	62	127
484.1468934240363	484.2629931972789	55	127
484.1468934240363	484.3907029478458	67	127
484.1468934240363	484.2629931972789	62	127
484.2049433106576	484.3907029478458	74	127
484.2049433106576	484.3907029478458	79	127
484.27460317460316	484.3907029478458	62	127
484.27460317460316	484.3907029478458	74	127
484.3907029478458	484.49519274376416	62	127
484.3907029478458	484.49519274376416	74	127
484.49519274376416	484.6112925170068	74	127
484.49519274376416	484.6112925170068	62	127
484.6112925170068	484.68095238095236	62	127
484.6112925170068	484.68095238095236	74	127
484.68095238095236	484.78544217687073	74	127
484.68095238095236	484.78544217687073	62	127
484.797052154195	484.80866213151927	79	127
484.797052154195	484.80866213151927	67	127
484.80866213151927	484.8318820861678	67	127
484.80866213151927	484.8318820861678	79	127
484.8318820861678	484.9363718820862	62	127
484.8318820861678	484.9363718820862	74	127
484.94798185941045	485.0640816326531	74	127
484.94798185941045	485.0640816326531	62	127
485.0640816326531	485.18018140589567	62	127
485.0640816326531	485.18018140589567	74	127
485.18018140589567	485.238231292517	62	127
485.18018140589567	485.238231292517	74	127
485.238231292517	485.31950113378684	64	127
485.238231292517	485.31950113378684	76	127
485.3311111111111	485.4239909297052	64	127
485.3311111111111	485.4239909297052	76	127
485.4356009070295	485.54009070294785	62	127
485.4356009070295	485.54009070294785	74	127
485.54009070294785	485.66780045351476	62	127
485.54009070294785	485.66780045351476	74	127
485.66780045351476	485.7839002267574	62	127
485.66780045351476	485.7839002267574	74	127
485.7839002267574	485.88839002267576	74	127
485.7839002267574	485.88839002267576	62	127
485.9	486.0160997732426	69	127
485.9	486.0160997732426	93	127
485.9	486.0160997732426	81	127
485.9	486.0277097505669	69	127
486.0277097505669	486.07414965986396	69	127
486.0277097505669	486.07414965986396	93	127
486.0277097505669	486.07414965986396	81	127
486.07414965986396	486.4688888888889	64	127
486.07414965986396	486.1902494331066	64	127
486.07414965986396	486.1902494331066	76	127
486.07414965986396	486.1902494331066	88	127
486.1902494331066	486.3063492063492	88	127
486.1902494331066	486.3063492063492	76	127
486.1902494331066	486.3063492063492	64	127
486.31795918367345	486.4224489795918	76	127
486.31795918367345	486.4224489795918	88	127
486.31795918367345	486.4224489795918	64	127
486.4340589569161	486.5501587301587	76	127
486.4340589569161	486.5501587301587	88	127
486.4340589569161	486.5501587301587	64	127
486.5501587301587	486.67786848072564	57	127
486.5501587301587	486.67786848072564	93	127
486.5501587301587	486.67786848072564	48	127
486.5501587301587	486.67786848072564	81	127
486.5501587301587	486.67786848072564	60	127
486.5501587301587	486.67786848072564	69	127
486.67786848072564	486.7939682539683	93	127
486.67786848072564	486.7939682539683	57	127
486.67786848072564	486.7939682539683	81	127
486.67786848072564	486.7939682539683	69	127
486.80557823129254	487.23514739229023	36	127
486.80557823129254	486.9216780045351	64	127
486.80557823129254	486.9216780045351	76	127
486.80557823129254	486.9216780045351	69	127
486.80557823129254	486.9216780045351	57	127
486.80557823129254	487.23514739229023	48	127
486.80557823129254	486.9216780045351	88	127
486.9332879818594	487.0609977324263	88	127
486.9332879818594	487.0609977324263	64	127
486.9332879818594	487.0609977324263	69	127
486.9332879818594	487.0609977324263	76	127
486.9332879818594	487.0609977324263	57	127
487.0609977324263	487.1887074829932	57	127
487.0609977324263	487.1887074829932	64	127
487.0609977324263	487.1887074829932	69	127
487.0609977324263	487.1887074829932	76	127
487.0609977324263	487.1887074829932	88	127
487.1887074829932	487.30480725623585	64	127
487.1887074829932	487.30480725623585	88	127
487.1887074829932	487.30480725623585	57	127
487.1887074829932	487.30480725623585	76	127
487.1887074829932	487.30480725623585	69	127
487.30480725623585	487.4209070294785	78	127
487.30480725623585	487.4209070294785	69	127
487.30480725623585	487.4209070294785	57	127
487.30480725623585	487.4325170068027	60	127
487.30480725623585	487.4209070294785	63	127
487.30480725623585	487.4325170068027	48	127
487.30480725623585	487.4209070294785	90	127
487.4325170068027	487.54861678004534	90	127
487.4325170068027	487.54861678004534	57	127
487.4325170068027	487.54861678004534	78	127
487.4325170068027	487.54861678004534	69	127
487.4325170068027	487.54861678004534	63	127
487.54861678004534	487.94335600907027	36	127
487.54861678004534	487.67632653061224	57	127
487.54861678004534	487.67632653061224	69	127
487.54861678004534	487.67632653061224	76	127
487.54861678004534	487.67632653061224	64	127
487.54861678004534	487.67632653061224	88	127
487.54861678004534	487.94335600907027	48	127
487.67632653061224	487.7808163265306	76	127
487.67632653061224	487.7808163265306	64	127
487.67632653061224	487.7808163265306	57	127
487.67632653061224	487.7808163265306	88	127
487.67632653061224	487.7808163265306	69	127
487.7808163265306	487.89691609977325	69	127
487.7808163265306	487.89691609977325	76	127
487.7808163265306	487.89691609977325	57	127
487.7808163265306	487.89691609977325	88	127
487.7808163265306	487.89691609977325	64	127
487.9085260770975	488.0014058956916	57	127
487.9085260770975	488.0014058956916	76	127
487.9085260770975	488.0014058956916	88	127
487.9085260770975	488.0014058956916	69	127
487.9085260770975	488.0014058956916	64	127
488.0014058956916	488.2452154195011	69	127
488.0014058956916	488.11750566893426	84	127
488.0014058956916	488.11750566893426	50	127
488.0014058956916	488.3845351473923	38	127
488.0014058956916	488.2452154195011	57	127
488.0014058956916	488.2452154195011	66	127
488.11750566893426	488.2452154195011	83	127
488.2452154195011	488.33809523809526	81	127
488.2452154195011	488.5006349206349	62	127
488.3497052154195	488.4658049886621	83	127
488.4774149659864	488.5006349206349	84	127
488.5006349206349	488.72122448979593	67	127
488.5006349206349	488.6051247165533	71	127
488.5006349206349	488.61673469387756	43	127
488.5006349206349	488.72122448979593	83	127
488.5006349206349	488.72122448979593	59	127
488.5006349206349	488.61673469387756	55	127
488.61673469387756	488.72122448979593	69	127
488.7328344671202	489.1043537414966	40	127
488.7328344671202	489.1043537414966	52	127
488.7328344671202	488.84893424036284	67	127
488.84893424036284	488.9650340136054	69	127
488.9650340136054	489.0695238095238	71	127
489.0695238095238	489.1624036281179	73	127
489.1624036281179	489.3597732426304	66	127
489.1624036281179	489.3597732426304	69	127
489.1624036281179	489.3597732426304	74	127
489.1624036281179	489.5107029478458	38	127
489.1624036281179	489.2320634920635	84	127
489.1624036281179	489.2436734693878	50	127
489.1624036281179	489.3597732426304	62	127
489.2436734693878	489.3597732426304	83	127
489.3597732426304	489.475873015873	81	127
489.3597732426304	489.68485260770973	62	127
489.475873015873	489.58036281179136	83	127
489.59197278911563	489.6384126984127	84	127
489.650022675737	489.7312925170068	86	127
489.7312925170068	489.9634920634921	71	127
489.7312925170068	489.9634920634921	83	127
489.7312925170068	489.9634920634921	67	127
489.7312925170068	489.8590022675737	55	127
489.7312925170068	489.9634920634921	59	127
489.7312925170068	489.8590022675737	71	127
489.8590022675737	489.9634920634921	69	127
489.97510204081635	490.34662131519275	52	127
489.97510204081635	490.09120181405893	67	127
490.1028117913832	490.1956916099773	69	127
490.1956916099773	490.3234013605442	71	127
490.3234013605442	490.38145124716556	73	127
490.39306122448977	490.6368707482993	74	127
490.39306122448977	490.5091609977324	84	127
490.39306122448977	490.5091609977324	62	127
490.39306122448977	490.5091609977324	69	127
490.39306122448977	490.6368707482993	50	127
490.39306122448977	490.5091609977324	66	127
490.39306122448977	490.5091609977324	72	127
490.39306122448977	490.5207709750567	50	127
490.5207709750567	490.6368707482993	62	127
490.5207709750567	490.6368707482993	72	127
490.5207709750567	490.6368707482993	66	127
490.5207709750567	490.6368707482993	83	127
490.5207709750567	490.6368707482993	69	127
490.6368707482993	490.7645804988662	72	127
490.6368707482993	491.06643990929706	62	127
490.6368707482993	490.7645804988662	62	127
490.6368707482993	490.7645804988662	81	127
490.6368707482993	490.7645804988662	66	127
490.6368707482993	490.7645804988662	69	127
490.7645804988662	490.90390022675734	66	127
490.7645804988662	490.90390022675734	62	127
490.7645804988662	490.90390022675734	72	127
490.7645804988662	490.90390022675734	69	127
490.7645804988662	490.90390022675734	83	127
490.90390022675734	491.02	84	127
490.90390022675734	491.02	69	127
490.90390022675734	491.02	62	127
490.90390022675734	491.02	72	127
490.90390022675734	491.02	66	127
491.03160997732425	491.1477097505669	86	127
491.03160997732425	491.1477097505669	69	127
491.03160997732425	491.1477097505669	62	127
491.03160997732425	491.1477097505669	72	127
491.03160997732425	491.1477097505669	66	127
491.15931972789116	491.2754195011338	50	127
491.15931972789116	491.2754195011338	62	127
491.15931972789116	491.2754195011338	88	127
491.15931972789116	491.39151927437644	38	127
491.15931972789116	491.2754195011338	66	127
491.15931972789116	491.2754195011338	72	127
491.15931972789116	491.2754195011338	69	127
491.15931972789116	491.2754195011338	76	127
491.2754195011338	491.39151927437644	74	127
491.2754195011338	491.39151927437644	86	127
491.2754195011338	491.39151927437644	72	127
491.2754195011338	491.39151927437644	69	127
491.2754195011338	491.39151927437644	66	127
491.2754195011338	491.39151927437644	62	127
491.39151927437644	491.5076190476191	72	127
491.39151927437644	491.5076190476191	69	127
491.39151927437644	491.5076190476191	62	127
491.39151927437644	491.5076190476191	66	127
491.39151927437644	491.5076190476191	72	127
491.39151927437644	491.6004988662132	62	127
491.39151927437644	491.5076190476191	84	127
491.5192290249433	491.57727891156463	72	127
491.5192290249433	491.57727891156463	66	127
491.5192290249433	491.57727891156463	69	127
491.5192290249433	491.57727891156463	74	127
491.5192290249433	491.57727891156463	86	127
491.5192290249433	491.57727891156463	62	127
491.57727891156463	491.6004988662132	62	127
491.57727891156463	491.6004988662132	69	127
491.57727891156463	491.6004988662132	66	127
491.57727891156463	491.6004988662132	76	127
491.57727891156463	491.6004988662132	72	127
491.57727891156463	491.6004988662132	88	127
491.6004988662132	491.67015873015873	78	127
491.6004988662132	491.67015873015873	62	127
491.6004988662132	491.67015873015873	72	127
491.6004988662132	491.67015873015873	66	127
491.6004988662132	491.67015873015873	90	127
491.6004988662132	491.67015873015873	69	127
491.67015873015873	491.7746485260771	67	127
491.67015873015873	491.85591836734693	62	127
491.67015873015873	491.7746485260771	43	127
491.67015873015873	491.7746485260771	79	127
491.67015873015873	491.7746485260771	91	127
491.67015873015873	491.85591836734693	71	127
491.7746485260771	491.85591836734693	79	127
491.85591836734693	492.2390476190476	59	127
491.85591836734693	491.9604081632653	71	127
491.85591836734693	492.2390476190476	83	127
491.85591836734693	491.9604081632653	71	127
491.9604081632653	492.06489795918367	71	127
491.9604081632653	492.06489795918367	71	127
492.07650793650794	492.1926077097506	71	127
492.07650793650794	492.1926077097506	71	127
492.1926077097506	492.3087074829932	71	127
492.1926077097506	492.3087074829932	71	127
492.3203174603175	492.43641723356006	74	127
492.3203174603175	492.43641723356006	62	127
492.3203174603175	492.43641723356006	86	127
492.3203174603175	492.43641723356006	74	127
492.43641723356006	492.5292970521542	74	127
492.43641723356006	492.5292970521542	74	127
492.54090702947843	492.94725623582764	55	127
492.54090702947843	492.6453968253968	67	127
492.54090702947843	492.94725623582764	79	127
492.54090702947843	492.6453968253968	67	127
492.6453968253968	492.7731065759637	67	127
492.6453968253968	492.7731065759637	67	127
492.7731065759637	492.9008163265306	67	127
492.7731065759637	492.9008163265306	67	127
492.9124263038549	493.0285260770975	67	127
492.9124263038549	493.0285260770975	67	127
493.0285260770975	493.1562358276644	83	127
493.0285260770975	493.14462585034016	83	127
493.0285260770975	493.14462585034016	71	127
493.0285260770975	493.1562358276644	59	127
493.1562358276644	493.22589569161	83	127
493.1562358276644	493.22589569161	71	127
493.22589569161	493.35360544217684	74	127
493.22589569161	493.35360544217684	62	127
493.22589569161	493.35360544217684	74	127
493.22589569161	493.35360544217684	50	127
493.35360544217684	493.42326530612246	74	127
493.35360544217684	493.42326530612246	62	127
493.43487528344673	493.55097505668937	67	127
493.43487528344673	493.55097505668937	79	127
493.43487528344673	493.55097505668937	55	127
493.43487528344673	493.55097505668937	79	127
493.55097505668937	493.60902494331066	79	127
493.55097505668937	493.60902494331066	67	127
493.60902494331066	493.66707482993195	59	127
493.60902494331066	493.66707482993195	71	127
493.60902494331066	493.66707482993195	71	127
493.60902494331066	493.66707482993195	47	127
493.66707482993195	493.7831746031746	71	127
493.66707482993195	493.7831746031746	59	127
493.7831746031746	493.88766439909296	74	127
493.7831746031746	493.88766439909296	62	127
493.7831746031746	493.8992743764172	74	127
493.7831746031746	493.8992743764172	50	127
493.8992743764172	494.0037641723356	74	127
493.8992743764172	494.0037641723356	62	127
494.0037641723356	494.06181405895694	67	127
494.0037641723356	494.06181405895694	67	127
494.0037641723356	494.06181405895694	55	127
494.0037641723356	494.06181405895694	43	127
494.06181405895694	494.1663038548753	67	127
494.06181405895694	494.1663038548753	55	127
494.1779138321995	494.29401360544216	59	127
494.1779138321995	494.30562358276643	71	127
494.1779138321995	494.30562358276643	47	127
494.1779138321995	494.29401360544216	71	127
494.30562358276643	494.42172335600907	71	127
494.30562358276643	494.42172335600907	59	127
494.42172335600907	494.5378231292517	62	127
494.42172335600907	494.5378231292517	38	127
494.42172335600907	494.5378231292517	50	127
494.42172335600907	494.5378231292517	62	127
494.5378231292517	494.5726530612245	50	127
494.5378231292517	494.5726530612245	62	127
494.5842630385487	494.60748299319727	67	127
494.5842630385487	494.60748299319727	43	127
494.5842630385487	494.60748299319727	55	127
494.5842630385487	494.60748299319727	67	127
494.60748299319727	494.65392290249434	55	127
494.60748299319727	494.65392290249434	67	127
494.65392290249434	494.7584126984127	62	127
494.65392290249434	494.7584126984127	38	127
494.65392290249434	494.7584126984127	50	127
494.65392290249434	494.7584126984127	62	127
494.7584126984127	494.8861224489796	62	127
494.7584126984127	494.8861224489796	50	127
494.89773242630383	495.01383219954647	55	127
494.89773242630383	495.02544217687074	43	127
494.89773242630383	495.01383219954647	67	127
494.89773242630383	495.02544217687074	67	127
495.02544217687074	495.10671201814057	55	127
495.02544217687074	495.10671201814057	67	127
495.10671201814057	495.24603174603175	38	127
495.10671201814057	495.24603174603175	62	127
495.10671201814057	495.24603174603175	62	127
495.10671201814057	495.24603174603175	50	127
495.24603174603175	495.30408163265304	62	127
495.24603174603175	495.30408163265304	50	127
495.30408163265304	495.59433106575966	55	127
495.30408163265304	495.59433106575966	43	127
495.30408163265304	495.59433106575966	67	127
496.7321088435374	496.9410884353741	50	127
496.7321088435374	496.9410884353741	74	127
496.7321088435374	496.9410884353741	69	127
496.7321088435374	496.9410884353741	66	127
496.7321088435374	496.9410884353741	69	127
496.7321088435374	496.79015873015874	62	127
496.7321088435374	496.9410884353741	38	127
496.7321088435374	496.79015873015874	62	127
496.7321088435374	496.9410884353741	62	127
496.79015873015874	496.9410884353741	86	127
496.79015873015874	496.9410884353741	69	127
496.79015873015874	496.9410884353741	78	127
497.3938775510204	499.495283446712	71	127
497.3938775510204	498.125306122449	62	127
497.3938775510204	499.495283446712	43	127
497.3938775510204	499.495283446712	62	127
497.3938775510204	499.495283446712	59	127
497.3938775510204	498.125306122449	43	127
497.3938775510204	499.495283446712	50	127
497.3938775510204	498.125306122449	55	127
497.3938775510204	499.495283446712	67	127
497.60285714285715	499.495283446712	71	127
497.60285714285715	499.495283446712	59	127
497.60285714285715	499.495283446712	79	127
