# onset,offset,note,velocity
0.9628571428571429	2.112222222222222	46	127
0.9628571428571429	1.2647165532879818	50	127
0.9628571428571429	2.112222222222222	58	127
1.2647165532879818	1.5201360544217688	53	127
1.5201360544217688	1.7987755102040817	50	127
1.7987755102040817	2.112222222222222	53	127
2.112222222222222	2.4257142857142857	48	127
2.112222222222222	2.750793650793651	41	127
2.112222222222222	2.750793650793651	57	127
2.4257142857142857	2.750793650793651	53	127
2.750793650793651	3.888571428571429	38	127
2.750793650793651	3.041043083900227	50	127
2.750793650793651	3.342902494331066	58	127
3.041043083900227	3.342902494331066	53	127
3.342902494331066	3.5867120181405894	58	127
3.342902494331066	3.888571428571429	62	127
3.5867120181405894	3.888571428571429	53	127
3.888571428571429	4.4806802721088435	39	127
3.888571428571429	4.318140589569161	55	127
3.888571428571429	4.4806802721088435	60	127
4.318140589569161	4.573560090702948	51	127
4.585170068027211	5.699727891156463	41	127
4.585170068027211	4.840589569160998	48	127
4.585170068027211	5.142448979591837	57	127
4.840589569160998	5.479138321995465	53	127
5.142448979591837	5.6184580498866215	53	127
5.479138321995465	5.699727891156463	53	127
5.699727891156463	5.955147392290249	48	127
5.699727891156463	6.164126984126984	57	127
5.699727891156463	6.164126984126984	39	127
5.955147392290249	6.1525170068027215	53	127
6.164126984126984	6.361496598639456	50	127
6.164126984126984	7.25546485260771	38	127
6.164126984126984	6.72140589569161	58	127
6.361496598639456	6.72140589569161	53	127
6.72140589569161	7.25546485260771	62	127
6.72140589569161	6.976825396825397	58	127
6.976825396825397	7.25546485260771	53	127
7.25546485260771	7.812743764172335	39	127
7.25546485260771	7.626984126984127	55	127
7.25546485260771	7.812743764172335	60	127
7.626984126984127	7.940453514739229	51	127
7.940453514739229	8.230702947845804	48	127
7.940453514739229	8.52092970521542	57	127
7.940453514739229	8.904081632653062	41	127
8.230702947845804	8.729931972789116	53	127
8.52092970521542	8.938911564625851	53	127
8.741519274376417	9.031791383219955	53	127
9.031791383219955	9.681950113378685	41	127
9.031791383219955	9.263990929705216	57	127
9.031791383219955	10.204399092970522	65	127
9.263990929705216	9.681950113378685	53	127
9.681950113378685	9.97219954648526	58	127
9.681950113378685	10.69201814058957	43	127
9.97219954648526	10.448208616780045	53	127
10.204399092970522	10.69201814058957	63	127
10.448208616780045	10.69201814058957	53	127
10.69201814058957	11.156417233560092	65	127
10.69201814058957	10.959047619047618	60	127
10.69201814058957	11.156417233560092	45	127
10.959047619047618	11.237687074829932	53	127
11.249274376417233	11.887845804988663	63	127
11.249274376417233	12.37546485260771	46	127
11.249274376417233	11.667256235827665	58	127
11.667256235827665	12.10843537414966	53	127
11.887845804988663	12.294195011337868	62	127
12.10843537414966	12.37546485260771	53	127
12.37546485260771	13.222993197278912	61	127
12.37546485260771	12.630884353741497	58	127
12.37546485260771	12.863083900226757	42	127
12.630884353741497	12.839863945578232	54	127
12.863083900226757	14.047301587301588	39	127
12.863083900226757	13.222993197278912	58	127
13.222993197278912	13.350702947845805	63	127
13.222993197278912	13.780272108843537	54	127
13.350702947845805	13.52485260770975	61	127
13.52485260770975	14.047301587301588	60	127
13.791882086167801	14.047301587301588	54	127
14.047301587301588	14.47687074829932	40	127
14.047301587301588	14.314331065759637	55	127
14.047301587301588	14.47687074829932	58	127
14.314331065759637	14.569750566893424	49	127
14.569750566893424	16.241587301587302	41	127
14.569750566893424	14.883219954648526	53	127
14.569750566893424	15.858458049886622	57	127
14.883219954648526	15.324399092970522	48	127
15.324399092970522	15.62625850340136	53	127
15.62625850340136	15.858458049886622	48	127
15.858458049886622	16.090657596371884	57	127
15.858458049886622	16.299637188208617	60	127
16.090657596371884	16.50861678004535	53	127
16.50861678004535	17.007845804988662	53	127
16.50861678004535	17.18199546485261	41	127
16.50861678004535	16.787256235827666	53	127
16.50861678004535	17.007845804988662	65	127
16.50861678004535	17.007845804988662	57	127
16.787256235827666	17.321315192743764	53	127
17.007845804988662	17.64639455782313	58	127
17.007845804988662	17.64639455782313	67	127
17.007845804988662	17.64639455782313	55	127
17.321315192743764	17.64639455782313	51	127
17.321315192743764	17.901814058956916	53	127
17.64639455782313	17.901814058956916	50	127
17.64639455782313	18.192063492063493	69	127
17.64639455782313	18.192063492063493	60	127
17.64639455782313	18.192063492063493	57	127
17.901814058956916	18.26172335600907	51	127
17.901814058956916	18.26172335600907	48	127
18.273333333333333	19.49238095238095	46	127
18.273333333333333	18.586802721088436	50	127
18.273333333333333	19.49238095238095	58	127
18.273333333333333	18.586802721088436	62	127
18.273333333333333	19.49238095238095	70	127
18.586802721088436	18.87702947845805	53	127
18.586802721088436	18.87702947845805	65	127
18.87702947845805	19.271791383219956	50	127
18.87702947845805	19.271791383219956	62	127
19.271791383219956	19.49238095238095	65	127
19.271791383219956	19.49238095238095	53	127
19.49238095238095	20.072879818594103	69	127
19.49238095238095	19.724580498866214	60	127
19.49238095238095	19.724580498866214	48	127
19.49238095238095	20.072879818594103	57	127
19.49238095238095	20.072879818594103	41	127
19.724580498866214	20.072879818594103	65	127
19.724580498866214	20.072879818594103	53	127
20.072879818594103	20.606938775510205	70	127
20.072879818594103	21.12938775510204	38	127
20.072879818594103	20.32829931972789	58	127
20.072879818594103	20.606938775510205	58	127
20.072879818594103	20.32829931972789	46	127
20.32829931972789	20.606938775510205	53	127
20.32829931972789	20.606938775510205	65	127
20.606938775510205	20.885578231292516	46	127
20.606938775510205	21.12938775510204	74	127
20.606938775510205	20.885578231292516	58	127
20.606938775510205	21.12938775510204	62	127
20.885578231292516	21.12938775510204	53	127
20.885578231292516	21.12938775510204	65	127
21.12938775510204	21.651836734693877	60	127
21.12938775510204	21.41963718820862	67	127
21.12938775510204	21.41963718820862	55	127
21.12938775510204	21.651836734693877	72	127
21.12938775510204	21.651836734693877	39	127
21.41963718820862	21.767936507936508	63	127
21.41963718820862	21.767936507936508	51	127
21.767936507936508	22.301972789115645	57	127
21.767936507936508	22.00013605442177	60	127
21.767936507936508	22.00013605442177	48	127
21.767936507936508	22.301972789115645	69	127
21.767936507936508	22.73156462585034	41	127
22.00013605442177	22.301972789115645	65	127
22.00013605442177	22.301972789115645	53	127
22.301972789115645	22.49936507936508	57	127
22.301972789115645	22.49936507936508	45	127
22.301972789115645	22.66190476190476	65	127
22.301972789115645	22.66190476190476	53	127
22.49936507936508	22.73156462585034	60	127
22.49936507936508	22.73156462585034	48	127
22.73156462585034	23.370113378684806	57	127
22.73156462585034	22.986984126984126	65	127
22.73156462585034	22.986984126984126	53	127
22.73156462585034	23.370113378684806	69	127
22.73156462585034	23.370113378684806	39	127
22.986984126984126	23.370113378684806	48	127
22.986984126984126	23.370113378684806	60	127
23.370113378684806	24.043492063492064	58	127
23.370113378684806	24.5659410430839	38	127
23.370113378684806	23.73002267573696	53	127
23.370113378684806	24.043492063492064	70	127
23.370113378684806	23.73002267573696	65	127
23.73002267573696	24.043492063492064	46	127
23.73002267573696	24.043492063492064	58	127
24.043492063492064	24.252471655328797	65	127
24.043492063492064	24.252471655328797	53	127
24.043492063492064	24.5659410430839	74	127
24.043492063492064	24.5659410430839	62	127
24.252471655328797	24.5659410430839	70	127
24.252471655328797	24.5659410430839	58	127
24.5659410430839	25.030340136054424	39	127
24.5659410430839	24.844580498866215	67	127
24.5659410430839	24.844580498866215	55	127
24.5659410430839	25.030340136054424	72	127
24.5659410430839	25.030340136054424	60	127
24.844580498866215	25.192879818594104	51	127
24.844580498866215	25.192879818594104	63	127
25.204489795918366	25.692108843537415	69	127
25.204489795918366	25.425079365079366	48	127
25.204489795918366	26.13328798185941	41	127
25.204489795918366	25.425079365079366	60	127
25.204489795918366	25.692108843537415	57	127
25.425079365079366	25.692108843537415	53	127
25.425079365079366	25.692108843537415	65	127
25.692108843537415	26.179727891156464	65	127
25.692108843537415	25.90108843537415	57	127
25.692108843537415	25.90108843537415	45	127
25.692108843537415	26.179727891156464	53	127
25.90108843537415	26.353877551020407	65	127
25.90108843537415	26.353877551020407	53	127
26.353877551020407	27.375555555555554	77	127
26.353877551020407	26.655736961451247	69	127
26.353877551020407	26.655736961451247	57	127
26.353877551020407	26.876326530612246	41	127
26.353877551020407	27.375555555555554	65	127
26.655736961451247	26.876326530612246	65	127
26.655736961451247	26.876326530612246	53	127
26.876326530612246	27.95605442176871	43	127
26.876326530612246	27.131746031746033	70	127
26.876326530612246	27.131746031746033	58	127
27.131746031746033	27.375555555555554	65	127
27.131746031746033	27.375555555555554	53	127
27.375555555555554	27.607755102040816	70	127
27.375555555555554	27.607755102040816	58	127
27.375555555555554	27.95605442176871	75	127
27.375555555555554	27.95605442176871	63	127
27.607755102040816	27.95605442176871	65	127
27.607755102040816	27.95605442176871	53	127
27.95605442176871	28.397233560090704	77	127
27.95605442176871	28.257913832199545	72	127
27.95605442176871	28.257913832199545	60	127
27.95605442176871	28.397233560090704	65	127
27.95605442176871	28.397233560090704	45	127
28.257913832199545	28.466893424036282	53	127
28.257913832199545	28.466893424036282	65	127
28.466893424036282	29.720770975056688	46	127
28.466893424036282	28.757142857142856	70	127
28.466893424036282	28.757142857142856	58	127
28.466893424036282	29.198321995464852	75	127
28.466893424036282	29.198321995464852	63	127
28.757142857142856	29.198321995464852	65	127
28.757142857142856	29.198321995464852	53	127
29.198321995464852	29.45374149659864	58	127
29.198321995464852	29.65111111111111	62	127
29.198321995464852	29.65111111111111	74	127
29.198321995464852	29.45374149659864	70	127
29.45374149659864	29.720770975056688	65	127
29.45374149659864	29.720770975056688	53	127
29.720770975056688	30.45219954648526	73	127
29.720770975056688	29.929750566893425	70	127
29.720770975056688	29.929750566893425	58	127
29.720770975056688	30.45219954648526	61	127
29.720770975056688	30.161950113378683	42	127
29.929750566893425	30.161950113378683	66	127
29.929750566893425	30.161950113378683	54	127
30.161950113378683	31.380997732426305	39	127
30.161950113378683	30.45219954648526	70	127
30.161950113378683	30.45219954648526	58	127
30.45219954648526	30.568299319727892	75	127
30.45219954648526	30.568299319727892	63	127
30.45219954648526	30.7540589569161	66	127
30.45219954648526	30.7540589569161	54	127
30.568299319727892	30.7540589569161	73	127
30.568299319727892	30.7540589569161	61	127
30.7540589569161	31.380997732426305	72	127
30.7540589569161	31.380997732426305	60	127
30.7540589569161	31.032698412698412	72	127
30.7540589569161	31.032698412698412	60	127
31.032698412698412	31.380997732426305	54	127
31.032698412698412	31.380997732426305	66	127
31.380997732426305	31.58997732426304	67	127
31.380997732426305	31.58997732426304	55	127
31.380997732426305	31.729297052154195	70	127
31.380997732426305	31.729297052154195	58	127
31.380997732426305	31.729297052154195	40	127
31.58997732426304	31.810566893424035	49	127
31.58997732426304	31.810566893424035	61	127
31.8221768707483	32.05437641723356	53	127
31.8221768707483	33.05281179138322	69	127
31.8221768707483	33.40113378684807	41	127
31.8221768707483	32.05437641723356	65	127
31.8221768707483	33.05281179138322	57	127
32.05437641723356	32.391065759637186	48	127
32.05437641723356	32.391065759637186	60	127
32.391065759637186	32.797392290249434	65	127
32.391065759637186	32.797392290249434	53	127
32.797392290249434	33.05281179138322	48	127
32.797392290249434	33.05281179138322	60	127
33.05281179138322	33.435963718820865	60	127
33.05281179138322	33.28503401360544	57	127
33.05281179138322	33.28503401360544	45	127
33.05281179138322	33.435963718820865	72	127
33.28503401360544	33.54045351473923	60	127
33.28503401360544	33.54045351473923	48	127
33.54045351473923	34.42281179138322	41	127
33.54045351473923	33.78426303854875	65	127
33.54045351473923	33.78426303854875	53	127
33.54045351473923	34.028072562358275	65	127
33.54045351473923	34.028072562358275	57	127
33.79587301587301	34.30668934240363	65	127
33.79587301587301	34.30668934240363	53	127
34.028072562358275	34.55052154195011	67	127
34.028072562358275	34.55052154195011	58	127
34.30668934240363	35.131020408163266	65	127
34.30668934240363	35.131020408163266	53	127
34.55052154195011	35.281950113378684	69	127
34.55052154195011	35.281950113378684	60	127
34.55052154195011	35.281950113378684	39	127
35.14263038548753	35.69990929705215	53	127
35.14263038548753	35.69990929705215	65	127
35.36321995464853	36.01337868480726	61	127
35.36321995464853	36.01337868480726	70	127
35.36321995464853	36.01337868480726	37	127
35.69990929705215	36.22233560090703	65	127
35.69990929705215	36.22233560090703	53	127
36.01337868480726	36.489387755102044	65	127
36.01337868480726	36.489387755102044	65	127
36.01337868480726	36.489387755102044	49	127
36.22233560090703	36.849274376417235	65	127
36.22233560090703	36.849274376417235	53	127
36.489387755102044	37.00022675736962	48	127
36.489387755102044	37.00022675736962	72	127
36.489387755102044	37.00022675736962	69	127
36.86090702947846	37.27886621315193	53	127
36.86090702947846	37.27886621315193	65	127
37.06988662131519	37.464625850340134	73	127
37.06988662131519	38.567573696145125	46	127
37.06988662131519	37.464625850340134	70	127
37.29047619047619	37.83614512471655	65	127
37.29047619047619	37.83614512471655	53	127
37.464625850340134	37.52267573696145	75	127
37.464625850340134	37.52267573696145	72	127
37.52267573696145	37.580725623582765	70	127
37.52267573696145	37.580725623582765	73	127
37.580725623582765	38.114761904761906	72	127
37.580725623582765	38.114761904761906	69	127
37.847755102040814	38.39342403628118	65	127
37.847755102040814	38.39342403628118	53	127
38.114761904761906	38.70689342403628	70	127
38.114761904761906	38.70689342403628	73	127
38.405034013605444	38.81138321995465	53	127
38.405034013605444	38.81138321995465	65	127
38.81138321995465	40.30907029478458	44	127
38.81138321995465	39.02036281179139	56	127
38.81138321995465	39.380272108843535	72	127
38.81138321995465	39.02036281179139	68	127
38.81138321995465	39.86789115646258	75	127
39.03197278911565	39.6124716553288	68	127
39.03197278911565	39.380272108843535	60	127
39.03197278911565	39.6124716553288	56	127
39.380272108843535	39.6124716553288	63	127
39.380272108843535	39.86789115646258	68	127
39.6124716553288	39.86789115646258	60	127
39.6124716553288	40.12331065759637	68	127
39.6124716553288	40.12331065759637	56	127
39.86789115646258	40.34390022675737	60	127
39.86789115646258	40.12331065759637	56	127
39.86789115646258	40.34390022675737	68	127
40.12331065759637	40.71541950113379	56	127
40.12331065759637	40.71541950113379	68	127
40.12331065759637	40.425170068027214	51	127
40.425170068027214	40.970839002267574	60	127
40.425170068027214	41.4352380952381	44	127
40.425170068027214	40.71541950113379	48	127
40.425170068027214	40.970839002267574	68	127
40.71541950113379	41.203038548752836	68	127
40.71541950113379	41.203038548752836	56	127
40.71541950113379	41.203038548752836	56	127
40.970839002267574	41.4352380952381	70	127
40.970839002267574	41.4352380952381	61	127
41.203038548752836	41.667414965986396	56	127
41.203038548752836	41.667414965986396	68	127
41.203038548752836	41.667414965986396	56	127
41.4352380952381	41.81836734693878	42	127
41.4352380952381	41.81836734693878	72	127
41.4352380952381	41.81836734693878	63	127
41.67902494331066	41.92283446712018	56	127
41.67902494331066	42.166666666666664	68	127
41.67902494331066	42.166666666666664	56	127
41.92283446712018	42.433673469387756	65	127
41.92283446712018	42.433673469387756	41	127
41.92283446712018	42.433673469387756	73	127
42.166666666666664	42.79360544217687	68	127
42.166666666666664	42.433673469387756	56	127
42.166666666666664	42.79360544217687	56	127
42.433673469387756	42.96775510204082	68	127
42.433673469387756	42.80521541950113	61	127
42.433673469387756	42.96775510204082	68	127
42.433673469387756	43.049024943310656	53	127
42.80521541950113	43.39732426303855	68	127
42.80521541950113	43.049024943310656	56	127
42.80521541950113	43.39732426303855	56	127
43.049024943310656	43.39732426303855	53	127
43.049024943310656	43.583061224489796	73	127
43.049024943310656	43.583061224489796	61	127
43.049024943310656	43.583061224489796	49	127
43.39732426303855	43.6643537414966	49	127
43.39732426303855	43.6643537414966	68	127
43.39732426303855	43.6643537414966	56	127
43.6643537414966	43.94299319727891	46	127
43.6643537414966	44.04748299319728	78	127
43.6643537414966	45.069160997732425	46	127
43.6643537414966	44.04748299319728	66	127
43.6643537414966	43.94299319727891	70	127
43.6643537414966	43.94299319727891	61	127
43.94299319727891	44.372562358276646	70	127
43.94299319727891	44.372562358276646	61	127
43.94299319727891	44.372562358276646	49	127
44.04748299319728	44.11714285714286	80	127
44.04748299319728	44.11714285714286	68	127
44.11714285714286	44.16358276643991	66	127
44.11714285714286	44.16358276643991	78	127
44.16358276643991	44.60476190476191	65	127
44.16358276643991	44.60476190476191	77	127
44.372562358276646	44.87179138321996	49	127
44.372562358276646	44.87179138321996	61	127
44.372562358276646	44.87179138321996	70	127
44.60476190476191	45.11560090702948	66	127
44.60476190476191	45.11560090702948	78	127
44.87179138321996	45.39424036281179	49	127
44.87179138321996	45.185260770975056	70	127
44.87179138321996	45.39424036281179	61	127
45.185260770975056	46.81065759637188	41	127
45.185260770975056	45.39424036281179	73	127
45.185260770975056	46.91514739229025	80	127
45.185260770975056	46.91514739229025	68	127
45.41746031746032	46.218548752834465	49	127
45.41746031746032	46.218548752834465	73	127
45.41746031746032	46.218548752834465	61	127
46.23015873015873	46.68294784580499	49	127
46.23015873015873	46.68294784580499	73	127
46.23015873015873	46.68294784580499	61	127
46.69455782312925	46.91514739229025	61	127
46.69455782312925	46.91514739229025	49	127
46.69455782312925	46.91514739229025	73	127
46.91514739229025	47.24022675736961	60	127
46.91514739229025	47.24022675736961	48	127
46.91514739229025	48.27351473922902	41	127
46.91514739229025	47.24022675736961	69	127
46.91514739229025	47.24022675736961	75	127
46.91514739229025	49.30680272108844	81	127
46.91514739229025	49.30680272108844	69	127
47.24022675736961	47.66979591836735	60	127
47.24022675736961	47.66979591836735	48	127
47.24022675736961	47.66979591836735	69	127
47.24022675736961	47.66979591836735	75	127
47.66979591836735	48.1574149659864	60	127
47.66979591836735	48.1574149659864	48	127
47.66979591836735	48.1574149659864	69	127
47.66979591836735	48.1574149659864	75	127
48.1574149659864	48.70308390022676	75	127
48.1574149659864	49.121043083900226	60	127
48.1574149659864	49.121043083900226	48	127
48.1574149659864	48.70308390022676	69	127
48.70308390022676	52.0815873015873	42	127
48.70308390022676	49.121043083900226	75	127
49.121043083900226	49.388072562358275	69	127
49.121043083900226	49.388072562358275	60	127
49.121043083900226	49.388072562358275	48	127
49.388072562358275	49.666712018140586	58	127
49.388072562358275	50.01501133786848	70	127
49.388072562358275	49.666712018140586	46	127
49.388072562358275	49.666712018140586	73	127
49.388072562358275	50.01501133786848	82	127
49.666712018140586	50.01501133786848	46	127
49.666712018140586	50.01501133786848	70	127
49.666712018140586	50.01501133786848	58	127
50.01501133786848	50.56068027210885	66	127
50.01501133786848	50.24721088435374	49	127
50.01501133786848	50.24721088435374	73	127
50.01501133786848	50.24721088435374	61	127
50.01501133786848	50.56068027210885	78	127
50.24721088435374	50.56068027210885	61	127
50.24721088435374	50.54907029478458	66	127
50.24721088435374	50.56068027210885	49	127
50.56068027210885	50.804489795918364	66	127
50.56068027210885	50.804489795918364	54	127
50.56068027210885	50.804489795918364	70	127
50.56068027210885	51.036689342403626	75	127
50.56068027210885	51.036689342403626	63	127
50.804489795918364	51.036689342403626	63	127
50.804489795918364	51.036689342403626	66	127
50.804489795918364	51.036689342403626	54	127
51.036689342403626	51.570748299319725	61	127
51.036689342403626	51.31532879818594	58	127
51.036689342403626	51.31532879818594	70	127
51.036689342403626	51.570748299319725	73	127
51.036689342403626	51.31532879818594	70	127
51.31532879818594	51.570748299319725	54	127
51.31532879818594	51.570748299319725	61	127
51.31532879818594	51.570748299319725	66	127
51.570748299319725	52.11641723356009	72	127
51.570748299319725	51.84938775510204	70	127
51.570748299319725	51.84938775510204	63	127
51.570748299319725	51.84938775510204	51	127
51.570748299319725	52.11641723356009	60	127
51.84938775510204	52.20929705215419	64	127
51.84938775510204	52.20929705215419	60	127
51.84938775510204	52.20929705215419	52	127
52.20929705215419	52.673696145124715	62	127
52.20929705215419	52.673696145124715	58	127
52.20929705215419	52.673696145124715	53	127
52.20929705215419	53.114875283446715	77	127
52.20929705215419	53.114875283446715	65	127
52.20929705215419	53.114875283446715	41	127
52.673696145124715	52.9291156462585	58	127
52.673696145124715	52.9291156462585	65	127
52.673696145124715	52.9291156462585	62	127
52.9291156462585	53.18453514739229	70	127
52.9291156462585	53.18453514739229	65	127
52.9291156462585	53.18453514739229	62	127
53.18453514739229	53.41673469387755	74	127
53.41673469387755	53.63732426303855	65	127
53.63732426303855	53.93918367346939	74	127
53.93918367346939	54.82154195011338	77	127
53.93918367346939	54.82154195011338	41	127
53.93918367346939	54.194603174603174	62	127
53.93918367346939	54.194603174603174	59	127
53.93918367346939	54.194603174603174	53	127
53.93918367346939	54.82154195011338	65	127
54.194603174603174	54.426802721088436	65	127
54.194603174603174	54.426802721088436	62	127
54.194603174603174	54.426802721088436	59	127
54.426802721088436	54.90281179138322	71	127
54.426802721088436	54.90281179138322	62	127
54.426802721088436	54.90281179138322	65	127
54.90281179138322	55.135011337868484	74	127
55.135011337868484	55.39043083900227	65	127
55.39043083900227	55.69229024943311	74	127
55.69229024943311	56.14507936507937	63	127
55.69229024943311	56.14507936507937	77	127
55.69229024943311	56.14507936507937	60	127
55.69229024943311	56.14507936507937	53	127
55.69229024943311	56.59786848072562	65	127
55.69229024943311	56.59786848072562	41	127
56.14507936507937	56.388888888888886	63	127
56.14507936507937	56.388888888888886	75	127
56.14507936507937	56.388888888888886	60	127
56.14507936507937	56.388888888888886	65	127
56.388888888888886	56.65591836734694	72	127
56.388888888888886	56.65591836734694	63	127
56.388888888888886	56.65591836734694	65	127
56.388888888888886	56.65591836734694	69	127
56.667528344671204	56.86489795918367	75	127
56.86489795918367	57.07387755102041	77	127
57.08548752834467	57.259637188208615	75	127
57.259637188208615	57.50344671201814	65	127
57.5150566893424	57.712426303854876	75	127
57.712426303854876	58.04911564625851	81	127
58.06072562358277	58.28131519274376	75	127
58.28131519274376	58.54834467120181	69	127
58.55995464852608	58.966303854875285	75	127
58.966303854875285	61.39278911564626	84	127
58.966303854875285	61.39278911564626	75	127
59.50036281179138	60.17374149659864	56	127
59.50036281179138	60.17374149659864	68	127
59.50036281179138	60.17374149659864	41	127
60.17374149659864	60.68458049886621	57	127
60.17374149659864	60.68458049886621	69	127
60.17374149659864	60.68458049886621	42	127
60.68458049886621	61.27668934240363	58	127
60.68458049886621	61.27668934240363	70	127
60.68458049886621	61.27668934240363	43	127
61.39278911564626	61.752698412698415	82	127
61.39278911564626	61.752698412698415	74	127
61.83396825396825	62.42607709750567	70	127
61.83396825396825	62.42607709750567	70	127
62.53056689342404	64.63197278911565	68	127
62.53056689342404	64.63197278911565	77	127
62.53056689342404	64.63197278911565	80	127
62.96013605442177	63.598684807256234	49	127
62.96013605442177	63.598684807256234	46	127
62.96013605442177	63.598684807256234	61	127
63.598684807256234	64.03986394557823	50	127
63.598684807256234	64.03986394557823	47	127
63.598684807256234	64.03986394557823	62	127
64.03986394557823	65.01510204081633	51	127
64.03986394557823	65.01510204081633	63	127
64.03986394557823	65.01510204081633	48	127
64.63197278911565	65.04993197278911	79	127
64.63197278911565	65.04993197278911	75	127
64.63197278911565	65.04993197278911	67	127
65.18925170068027	65.83938775510204	37	127
65.18925170068027	66.5592290249433	68	127
65.18925170068027	65.83938775510204	64	127
65.18925170068027	65.83938775510204	70	127
65.18925170068027	65.83938775510204	52	127
65.18925170068027	65.83938775510204	49	127
65.18925170068027	66.5592290249433	80	127
65.83938775510204	66.96555555555555	70	127
65.83938775510204	66.96555555555555	65	127
65.83938775510204	66.96555555555555	53	127
65.83938775510204	66.96555555555555	50	127
65.83938775510204	66.96555555555555	38	127
66.5592290249433	67.02362811791383	67	127
66.5592290249433	67.02362811791383	79	127
67.09326530612245	67.69700680272109	80	127
67.09326530612245	67.69700680272109	66	127
67.09326530612245	67.69700680272109	70	127
67.09326530612245	67.69700680272109	68	127
67.09326530612245	67.69700680272109	50	127
67.09326530612245	67.69700680272109	54	127
67.09326530612245	67.69700680272109	38	127
67.69700680272109	69.15986394557824	51	127
67.69700680272109	69.15986394557824	39	127
67.69700680272109	68.27750566893424	79	127
67.69700680272109	68.27750566893424	67	127
67.69700680272109	68.6025850340136	67	127
67.69700680272109	68.6025850340136	70	127
67.69700680272109	68.6025850340136	55	127
68.27750566893424	68.71868480725624	75	127
68.27750566893424	68.71868480725624	63	127
68.71868480725624	69.19469387755102	63	127
68.71868480725624	69.19469387755102	51	127
68.71868480725624	69.19469387755102	72	127
68.71868480725624	69.19469387755102	60	127
69.38045351473923	69.91451247165533	50	127
69.38045351473923	70.91297052154195	41	127
69.38045351473923	69.91451247165533	70	127
69.38045351473923	69.91451247165533	62	127
69.38045351473923	69.91451247165533	58	127
69.38045351473923	70.30925170068028	53	127
69.91451247165533	70.52984126984127	60	127
69.91451247165533	70.52984126984127	72	127
69.91451247165533	70.52984126984127	63	127
69.91451247165533	70.52984126984127	51	127
70.52984126984127	71.16839002267574	53	127
70.52984126984127	71.16839002267574	53	127
70.52984126984127	71.16839002267574	74	127
70.52984126984127	71.16839002267574	65	127
70.52984126984127	71.16839002267574	62	127
71.24965986394558	72.52675736961451	53	127
71.24965986394558	73.11886621315193	53	127
71.24965986394558	71.48185941043084	65	127
71.24965986394558	72.52675736961451	65	127
71.24965986394558	72.52675736961451	62	127
71.24965986394558	73.11886621315193	41	127
71.4934693877551	71.77210884353741	62	127
71.78371882086168	72.10879818594104	58	127
72.12040816326531	72.51514739229025	53	127
72.52675736961451	73.15369614512471	60	127
72.52675736961451	72.97954648526077	51	127
72.52675736961451	73.15369614512471	57	127
72.52675736961451	73.15369614512471	69	127
72.99115646258504	73.2233560090703	48	127
73.23496598639456	74.50045351473923	46	127
73.23496598639456	73.58324263038548	53	127
73.23496598639456	73.74580498866213	70	127
73.23496598639456	73.74580498866213	58	127
73.23496598639456	73.74580498866213	46	127
73.23496598639456	74.50045351473923	62	127
73.59487528344671	74.22181405895692	53	127
74.24503401360545	74.72104308390023	53	127
74.50045351473923	74.9184126984127	60	127
74.50045351473923	74.9184126984127	45	127
74.7326530612245	75.37120181405896	53	127
75.11578231292518	75.61501133786848	62	127
75.11578231292518	75.61501133786848	46	127
75.38281179138322	75.88204081632654	53	127
75.61501133786848	76.2187074829932	65	127
75.61501133786848	76.2187074829932	50	127
75.89365079365079	76.43931972789116	53	127
76.2187074829932	76.6134693877551	48	127
76.2187074829932	76.6134693877551	63	127
76.45092970521542	76.98496598639456	53	127
76.72954648526077	77.22879818594105	45	127
76.72954648526077	77.22879818594105	60	127
76.99659863945578	77.49580498866213	53	127
77.22879818594105	77.84412698412699	48	127
77.22879818594105	77.84412698412699	63	127
77.50743764172336	78.27369614512472	53	127
77.84412698412699	78.48267573696145	46	127
77.84412698412699	78.48267573696145	62	127
78.28530612244899	78.83097505668934	53	127
78.58716553287982	79.5972335600907	43	127
78.58716553287982	79.5972335600907	58	127
78.84258503401361	79.33020408163266	53	127
79.34181405895691	80.32866213151928	53	127
79.5972335600907	80.4795918367347	41	127
79.5972335600907	80.4795918367347	60	127
80.34027210884354	80.54925170068027	53	127
80.72340136054422	81.67541950113379	41	127
80.72340136054422	81.15297052154195	60	127
80.72340136054422	81.15297052154195	53	127
80.72340136054422	81.15297052154195	41	127
80.72340136054422	81.37356009070295	80	127
80.96721088435375	81.23424036281179	48	127
81.23424036281179	81.4548299319728	60	127
81.37356009070295	81.52448979591837	79	127
81.4548299319728	81.67541950113379	48	127
81.52448979591837	81.67541950113379	80	127
81.67541950113379	81.8263492063492	84	127
81.67541950113379	81.90761904761905	48	127
81.67541950113379	82.07013605442177	43	127
81.8263492063492	82.00049886621315	82	127
81.90761904761905	82.15142857142857	60	127
82.00049886621315	82.16303854875284	79	127
82.16303854875284	83.23115646258503	44	127
82.16303854875284	82.32555555555555	82	127
82.32555555555555	82.49972789115647	80	127
82.43006802721088	82.67387755102041	48	127
82.49972789115647	82.84802721088435	77	127
82.67387755102041	82.97573696145125	60	127
82.84802721088435	83.04539682539682	76	127
82.97573696145125	83.23115646258503	48	127
83.04539682539682	83.23115646258503	77	127
83.23115646258503	83.63750566893424	46	127
83.23115646258503	83.3704761904762	80	127
83.23115646258503	83.45172335600907	49	127
83.3704761904762	83.53301587301587	79	127
83.45172335600907	83.73036281179138	61	127
83.53301587301587	83.84648526077098	73	127
83.84648526077098	84.92621315192744	47	127
83.84648526077098	83.98578231292517	79	127
83.98578231292517	84.14834467120181	77	127
84.06707482993197	84.32249433106576	50	127
84.14834467120181	84.50825396825397	68	127
84.32249433106576	84.60111111111111	62	127
84.50825396825397	84.69401360544218	67	127
84.60111111111111	84.92621315192744	50	127
84.69401360544218	84.92621315192744	68	127
84.92621315192744	85.18163265306123	79	127
84.92621315192744	85.27451247165533	53	127
84.92621315192744	85.52993197278911	48	127
85.18163265306123	85.42544217687075	77	127
85.27451247165533	85.65764172335601	65	127
85.42544217687075	85.65764172335601	69	127
85.66925170068028	87.02759637188208	64	127
85.66925170068028	87.02759637188208	70	127
85.66925170068028	87.72421768707483	48	127
85.66925170068028	86.67931972789115	48	127
85.66925170068028	87.02759637188208	74	127
86.67931972789115	87.09727891156463	60	127
87.12049886621315	87.6081179138322	60	127
87.12049886621315	87.38750566893424	67	127
87.12049886621315	87.38750566893424	64	127
87.38750566893424	87.56167800453515	69	127
87.38750566893424	87.61972789115646	65	127
87.56167800453515	87.61972789115646	72	127
87.61972789115646	87.85192743764172	67	127
87.61972789115646	87.85192743764172	70	127
87.61972789115646	87.85192743764172	60	127
87.86353741496599	88.83877551020409	69	127
87.86353741496599	88.07251700680273	48	127
87.86353741496599	88.07251700680273	60	127
87.86353741496599	88.30471655328799	69	127
87.86353741496599	88.30471655328799	60	127
87.86353741496599	88.30471655328799	53	127
87.86353741496599	88.83877551020409	41	127
88.08412698412698	88.60657596371883	60	127
88.08412698412698	88.60657596371883	48	127
88.61818594104308	89.15224489795918	48	127
88.61818594104308	89.15224489795918	60	127
88.83877551020409	89.34961451247166	40	127
88.83877551020409	89.34961451247166	67	127
89.17544217687075	89.63986394557823	48	127
89.17544217687075	89.63986394557823	60	127
89.43086167800453	89.88367346938776	69	127
89.43086167800453	89.88367346938776	41	127
89.6514739229025	90.16231292517007	60	127
89.6514739229025	90.16231292517007	48	127
89.88367346938776	90.53383219954648	72	127
89.88367346938776	90.53383219954648	45	127
90.1855328798186	90.78925170068027	48	127
90.1855328798186	90.78925170068027	60	127
90.53383219954648	90.95179138321996	70	127
90.53383219954648	90.95179138321996	43	127
90.80086167800454	91.35814058956916	48	127
90.80086167800454	91.35814058956916	60	127
91.10272108843537	91.59034013605442	67	127
91.10272108843537	91.59034013605442	40	127
91.36975056689343	91.81092970521541	48	127
91.36975056689343	91.81092970521541	60	127
91.59034013605442	92.04312925170068	70	127
91.59034013605442	92.04312925170068	43	127
91.82253968253968	92.27532879818594	48	127
91.82253968253968	92.27532879818594	60	127
92.04312925170068	92.46108843537415	69	127
92.04312925170068	92.46108843537415	41	127
92.28693877551021	93.0415873015873	48	127
92.28693877551021	93.0415873015873	60	127
92.542358276644	93.73818594104308	38	127
92.542358276644	93.73818594104308	65	127
93.05319727891157	93.50598639455782	60	127
93.05319727891157	93.50598639455782	48	127
93.51759637188209	94.00519274376417	48	127
93.51759637188209	94.00519274376417	60	127
93.73818594104308	94.21419501133786	67	127
93.73818594104308	94.21419501133786	36	127
94.04004535147392	94.29546485260771	48	127
94.04004535147392	94.29546485260771	60	127
94.30707482993198	95.3055328798186	67	127
94.30707482993198	95.3055328798186	48	127
94.30707482993198	95.3055328798186	60	127
94.30707482993198	95.87442176870748	36	127
94.30707482993198	95.14299319727891	36	127
94.30707482993198	95.54934240362812	75	127
95.14299319727891	95.38680272108843	43	127
95.38680272108843	95.64222222222222	55	127
95.54934240362812	95.7118820861678	74	127
95.64222222222222	96.11823129251701	43	127
95.7118820861678	95.87442176870748	75	127
95.87442176870748	96.29238095238095	38	127
95.87442176870748	96.0253514739229	79	127
96.0253514739229	96.18789115646258	77	127
96.11823129251701	96.44331065759637	55	127
96.18789115646258	96.45492063492064	74	127
96.45492063492064	97.69718820861678	39	127
96.45492063492064	96.8148299319728	77	127
96.8148299319728	97.01219954648526	75	127
96.94253968253969	97.17473922902494	43	127
97.01219954648526	97.3488888888889	72	127
97.17473922902494	97.44176870748299	55	127
97.3488888888889	97.53464852607709	71	127
97.44176870748299	97.69718820861678	43	127
97.53464852607709	97.69718820861678	72	127
97.69718820861678	98.2544671201814	41	127
97.69718820861678	97.97582766439909	75	127
97.69718820861678	98.10353741496598	44	127
97.97582766439909	98.17319727891156	74	127
98.10353741496598	98.33573696145125	56	127
98.17319727891156	98.34734693877552	68	127
98.34734693877552	99.53156462585034	42	127
98.34734693877552	98.63759637188208	74	127
98.63759637188208	98.80013605442177	72	127
98.71886621315193	98.96267573696146	45	127
98.80013605442177	99.17165532879818	63	127
98.96267573696146	99.27614512471655	57	127
99.17165532879818	99.3574149659864	62	127
99.27614512471655	99.53156462585034	45	127
99.3574149659864	99.53156462585034	63	127
99.53156462585034	100.08884353741496	43	127
99.53156462585034	99.78698412698412	74	127
99.53156462585034	99.90308390022676	46	127
99.78698412698412	100.00757369614513	72	127
99.90308390022676	100.19333333333333	58	127
100.00757369614513	100.2049433106576	64	127
100.2049433106576	100.35587301587302	74	127
100.2049433106576	101.40077097505669	44	127
100.35587301587302	100.5184126984127	72	127
100.44875283446711	100.76222222222222	47	127
100.5184126984127	101.02925170068028	65	127
100.76222222222222	101.12213151927438	59	127
101.02925170068028	101.19179138321995	64	127
101.12213151927438	101.40077097505669	47	127
101.19179138321995	101.40077097505669	65	127
101.40077097505669	101.80712018140589	45	127
101.40077097505669	101.57492063492063	74	127
101.40077097505669	101.66780045351474	48	127
101.57492063492063	101.72585034013605	72	127
101.66780045351474	101.92321995464853	60	127
101.72585034013605	101.92321995464853	66	127
101.93482993197279	102.09736961451247	74	127
101.93482993197279	102.17863945578232	48	127
101.93482993197279	102.72430839002267	46	127
102.09736961451247	102.25990929705216	72	127
102.17863945578232	103.00294784580498	60	127
102.25990929705216	102.72430839002267	67	127
102.72430839002267	103.30480725623583	47	127
102.72430839002267	102.91006802721088	74	127
102.91006802721088	103.0958276643991	72	127
103.01455782312925	103.56022675736962	60	127
103.0958276643991	103.56022675736962	68	127
103.30480725623583	103.9433560090703	48	127
103.56022675736962	104.14072562358277	69	127
103.56022675736962	104.51224489795918	60	127
104.14072562358277	104.93020408163265	47	127
104.14072562358277	104.51224489795918	68	127
104.51224489795918	104.91859410430838	69	127
104.51224489795918	105.35977324263038	60	127
104.93020408163265	106.47433106575964	48	127
104.93020408163265	105.3829931972789	68	127
105.3829931972789	105.62680272108844	69	127
105.3829931972789	106.31179138321995	60	127
105.62680272108844	106.31179138321995	68	127
106.31179138321995	107.20575963718821	69	127
106.31179138321995	107.21736961451248	60	127
107.21736961451248	107.93718820861677	57	127
107.21736961451248	107.60049886621316	61	127
107.21736961451248	107.93718820861677	69	127
107.21736961451248	107.93718820861677	61	127
107.21736961451248	107.93718820861677	49	127
107.93718820861677	108.32031746031745	71	127
107.93718820861677	108.32031746031745	62	127
107.93718820861677	108.32031746031745	59	127
107.93718820861677	108.32031746031745	50	127
108.32031746031745	108.77310657596372	52	127
108.32031746031745	108.77310657596372	73	127
108.32031746031745	108.77310657596372	64	127
108.32031746031745	108.77310657596372	61	127
108.8427664399093	110.32884353741497	52	127
108.8427664399093	110.32884353741497	64	127
108.8427664399093	110.32884353741497	61	127
108.8427664399093	110.32884353741497	49	127
110.44494331065759	111.46662131519274	57	127
110.44494331065759	111.46662131519274	69	127
110.44494331065759	111.46662131519274	61	127
110.44494331065759	111.46662131519274	49	127
111.46662131519274	111.86136054421769	59	127
111.46662131519274	111.86136054421769	71	127
111.46662131519274	111.86136054421769	62	127
111.46662131519274	111.86136054421769	50	127
111.87297052154194	112.360589569161	61	127
111.87297052154194	112.360589569161	73	127
111.87297052154194	112.360589569161	64	127
111.87297052154194	112.360589569161	52	127
112.43024943310658	113.81183673469388	52	127
112.43024943310658	113.81183673469388	64	127
112.43024943310658	113.81183673469388	61	127
112.43024943310658	113.81183673469388	49	127
114.17174603174603	114.9960544217687	69	127
114.17174603174603	114.9960544217687	57	127
114.17174603174603	114.9960544217687	73	127
114.17174603174603	114.9960544217687	61	127
114.9960544217687	115.27469387755102	59	127
114.9960544217687	115.27469387755102	74	127
114.9960544217687	115.27469387755102	71	127
114.9960544217687	115.27469387755102	62	127
115.27469387755102	115.86680272108843	61	127
115.27469387755102	115.86680272108843	76	127
115.27469387755102	115.86680272108843	73	127
115.27469387755102	115.86680272108843	64	127
115.93646258503401	118.02625850340137	65	127
115.93646258503401	116.57501133786847	57	127
115.93646258503401	116.57501133786847	45	127
115.93646258503401	117.05102040816327	74	127
115.93646258503401	117.05102040816327	62	127
115.93646258503401	117.53863945578232	50	127
115.93646258503401	117.53863945578232	38	127
115.93646258503401	118.02625850340137	77	127
116.57501133786847	117.05102040816327	58	127
116.57501133786847	117.05102040816327	46	127
117.05102040816327	118.02625850340137	65	127
117.05102040816327	117.5734693877551	59	127
117.05102040816327	117.5734693877551	47	127
117.05102040816327	118.02625850340137	53	127
117.64312925170069	119.29174603174603	36	127
117.64312925170069	119.29174603174603	48	127
117.64312925170069	119.29174603174603	60	127
117.64312925170069	119.29174603174603	48	127
118.11913832199546	118.87378684807257	65	127
118.11913832199546	118.87378684807257	53	127
118.11913832199546	118.75768707482993	69	127
118.11913832199546	118.75768707482993	57	127
118.75768707482993	118.87378684807257	60	127
118.75768707482993	118.87378684807257	72	127
118.87378684807257	119.32657596371882	58	127
118.87378684807257	119.32657596371882	70	127
118.87378684807257	119.32657596371882	67	127
118.87378684807257	119.32657596371882	55	127
119.40784580498867	121.12612244897959	53	127
119.40784580498867	120.05800453514739	60	127
119.40784580498867	120.05800453514739	48	127
119.40784580498867	121.12612244897959	53	127
119.40784580498867	121.12612244897959	41	127
119.40784580498867	121.12612244897959	69	127
119.40784580498867	121.12612244897959	65	127
119.40784580498867	121.12612244897959	57	127
120.05800453514739	120.60367346938776	62	127
120.05800453514739	120.60367346938776	50	127
120.60367346938776	121.17256235827665	63	127
120.60367346938776	121.17256235827665	51	127
121.25383219954648	121.91560090702947	57	127
121.25383219954648	121.60213151927438	52	127
121.25383219954648	121.60213151927438	64	127
121.25383219954648	121.60213151927438	40	127
121.25383219954648	121.91560090702947	81	127
121.25383219954648	121.91560090702947	73	127
121.25383219954648	121.91560090702947	49	127
121.91560090702947	122.21746031746032	59	127
121.91560090702947	122.21746031746032	83	127
121.91560090702947	122.21746031746032	74	127
121.91560090702947	122.21746031746032	50	127
122.21746031746032	122.73990929705215	61	127
122.21746031746032	122.73990929705215	85	127
122.21746031746032	122.73990929705215	76	127
122.21746031746032	122.73990929705215	52	127
122.80956916099774	124.17954648526077	49	127
122.80956916099774	124.17954648526077	76	127
122.80956916099774	124.17954648526077	73	127
122.80956916099774	124.17954648526077	52	127
124.30725623582767	125.15478458049887	73	127
124.30725623582767	125.15478458049887	81	127
124.30725623582767	125.15478458049887	57	127
124.30725623582767	125.15478458049887	49	127
125.15478458049887	125.52630385487528	50	127
125.15478458049887	125.52630385487528	74	127
125.15478458049887	125.52630385487528	83	127
125.15478458049887	125.52630385487528	59	127
125.53791383219955	126.0255328798186	61	127
125.53791383219955	126.0255328798186	85	127
125.53791383219955	126.0255328798186	76	127
125.53791383219955	126.0255328798186	52	127
126.10680272108844	127.48839002267573	52	127
126.10680272108844	127.48839002267573	76	127
126.10680272108844	127.48839002267573	73	127
126.10680272108844	127.48839002267573	49	127
127.69736961451247	128.4752380952381	61	127
127.69736961451247	128.4752380952381	85	127
127.69736961451247	128.4752380952381	69	127
127.69736961451247	128.4752380952381	57	127
128.4752380952381	128.6958276643991	62	127
128.4752380952381	128.6958276643991	86	127
128.4752380952381	128.6958276643991	71	127
128.4752380952381	128.6958276643991	59	127
128.6958276643991	129.29954648526078	64	127
128.6958276643991	129.29954648526078	88	127
128.6958276643991	129.29954648526078	73	127
128.6958276643991	129.29954648526078	61	127
129.3691836734694	130.91333333333333	66	127
129.3691836734694	130.91333333333333	69	127
129.3691836734694	129.61301587301588	45	127
129.3691836734694	130.91333333333333	69	127
129.3691836734694	130.91333333333333	57	127
129.3691836734694	130.91333333333333	62	127
129.3691836734694	130.54179138321996	38	127
129.3691836734694	130.54179138321996	45	127
129.3691836734694	130.91333333333333	90	127
129.61301587301588	130.08902494331065	50	127
130.08902494331065	130.30961451247165	54	127
130.30961451247165	130.54179138321996	57	127
130.54179138321996	130.94816326530614	50	127
130.54179138321996	130.79721088435375	62	127
130.79721088435375	131.0178231292517	66	127
131.0178231292517	132.07433106575965	85	127
131.0178231292517	132.07433106575965	69	127
131.0178231292517	132.07433106575965	61	127
131.0178231292517	132.07433106575965	57	127
131.0178231292517	132.8057596371882	69	127
131.0178231292517	132.8057596371882	45	127
132.07433106575965	132.38777777777779	71	127
132.07433106575965	132.38777777777779	62	127
132.07433106575965	132.38777777777779	59	127
132.07433106575965	132.38777777777779	86	127
132.41102040816327	132.85219954648525	64	127
132.41102040816327	132.85219954648525	88	127
132.41102040816327	132.85219954648525	73	127
132.41102040816327	132.85219954648525	61	127
132.92185941043084	133.98997732426304	45	127
132.92185941043084	133.16566893424036	45	127
132.92185941043084	134.43113378684808	69	127
132.92185941043084	134.43113378684808	69	127
132.92185941043084	134.43113378684808	62	127
132.92185941043084	134.43113378684808	90	127
132.92185941043084	133.98997732426304	38	127
132.92185941043084	134.43113378684808	57	127
132.92185941043084	134.43113378684808	66	127
133.16566893424036	133.43269841269841	50	127
133.43269841269841	133.76938775510203	54	127
133.76938775510203	133.98997732426304	57	127
133.98997732426304	134.19895691609977	62	127
133.98997732426304	134.52403628117915	50	127
134.19895691609977	134.60530612244898	66	127
134.60530612244898	135.3831746031746	61	127
134.60530612244898	136.11458049886622	69	127
134.60530612244898	135.3831746031746	73	127
134.60530612244898	135.3831746031746	69	127
134.60530612244898	135.3831746031746	57	127
134.60530612244898	136.11458049886622	45	127
135.3831746031746	135.69664399092972	71	127
135.3831746031746	135.69664399092972	59	127
135.3831746031746	135.69664399092972	62	127
135.3831746031746	135.69664399092972	74	127
135.69664399092972	136.14943310657597	61	127
135.69664399092972	136.14943310657597	76	127
135.69664399092972	136.14943310657597	73	127
135.69664399092972	136.14943310657597	64	127
136.25392290249434	137.3336507936508	60	127
136.25392290249434	138.401768707483	77	127
136.25392290249434	136.66027210884354	48	127
136.25392290249434	138.3321088435374	65	127
136.25392290249434	137.3336507936508	72	127
136.25392290249434	137.85607709750568	45	127
136.66027210884354	136.91569160997733	53	127
136.91569160997733	137.19433106575963	57	127
137.19433106575963	137.43814058956917	60	127
137.43814058956917	137.74	65	127
137.43814058956917	138.401768707483	65	127
137.43814058956917	138.401768707483	53	127
137.74	137.960589569161	69	127
137.960589569161	139.44666666666666	46	127
137.960589569161	138.181179138322	72	127
138.181179138322	138.401768707483	73	127
138.401768707483	138.73845804988662	74	127
138.401768707483	139.09836734693877	74	127
138.401768707483	139.09836734693877	54	127
138.401768707483	139.09836734693877	66	127
138.401768707483	139.09836734693877	62	127
138.73845804988662	139.09836734693877	69	127
139.09836734693877	139.51632653061225	58	127
139.09836734693877	139.3421768707483	70	127
139.09836734693877	139.51632653061225	70	127
139.09836734693877	139.51632653061225	67	127
139.09836734693877	139.51632653061225	55	127
139.3421768707483	139.57437641723357	62	127
139.58598639455784	140.82825396825396	69	127
139.58598639455784	141.21138321995466	48	127
139.58598639455784	140.82825396825396	57	127
139.58598639455784	141.21138321995466	72	127
139.58598639455784	141.21138321995466	60	127
139.58598639455784	140.82825396825396	65	127
140.82825396825396	141.2578231292517	64	127
140.82825396825396	141.2578231292517	67	127
140.82825396825396	141.2578231292517	55	127
141.36231292517007	143.16185941043085	69	127
141.36231292517007	142.45362811791384	73	127
141.36231292517007	142.45362811791384	69	127
141.36231292517007	143.16185941043085	45	127
141.36231292517007	143.16185941043085	57	127
141.71061224489796	142.00086167800453	69	127
142.00086167800453	142.45362811791384	81	127
142.45362811791384	142.70904761904762	74	127
142.45362811791384	142.70904761904762	71	127
142.45362811791384	142.70904761904762	80	127
142.70904761904762	142.99931972789116	79	127
142.70904761904762	143.19668934240363	76	127
142.70904761904762	143.19668934240363	73	127
142.99931972789116	143.301179138322	76	127
143.301179138322	144.57827664399093	72	127
143.301179138322	143.521768707483	75	127
143.301179138322	144.57827664399093	75	127
143.301179138322	143.962947845805	41	127
143.301179138322	143.962947845805	57	127
143.301179138322	144.9962358276644	77	127
143.301179138322	144.57827664399093	63	127
143.521768707483	143.73072562358277	72	127
143.73072562358277	143.962947845805	69	127
143.962947845805	144.17192743764173	43	127
143.962947845805	144.17192743764173	58	127
143.962947845805	144.17192743764173	65	127
144.17192743764173	144.67115646258503	60	127
144.17192743764173	144.4621768707483	63	127
144.17192743764173	144.67115646258503	45	127
144.4621768707483	144.74081632653062	60	127
144.74081632653062	145.55351473922903	53	127
144.74081632653062	146.29655328798185	46	127
144.74081632653062	144.9962358276644	62	127
144.74081632653062	145.55351473922903	62	127
144.74081632653062	145.55351473922903	65	127
144.74081632653062	145.55351473922903	74	127
144.9962358276644	145.55351473922903	74	127
144.9962358276644	145.3097052154195	78	127
145.3097052154195	145.55351473922903	79	127
145.55351473922903	145.9714739229025	72	127
145.55351473922903	145.8437641723356	66	127
145.55351473922903	145.8437641723356	54	127
145.55351473922903	145.9714739229025	81	127
145.55351473922903	145.9714739229025	72	127
145.9714739229025	146.71451247165533	67	127
145.9714739229025	146.71451247165533	55	127
145.9714739229025	146.18045351473924	82	127
145.9714739229025	146.18045351473924	70	127
145.9714739229025	146.18045351473924	70	127
146.18045351473924	146.40104308390022	86	127
146.18045351473924	146.40104308390022	67	127
146.18045351473924	146.40104308390022	67	127
146.4126530612245	147.759410430839	60	127
146.4126530612245	147.759410430839	72	127
146.4126530612245	147.43433106575964	77	127
146.4126530612245	147.57365079365078	48	127
146.4126530612245	147.759410430839	65	127
146.7261224489796	147.07442176870748	68	127
146.7261224489796	147.07442176870748	56	127
147.07442176870748	147.43433106575964	57	127
147.07442176870748	147.43433106575964	69	127
147.43433106575964	147.74780045351474	79	127
147.43433106575964	147.74780045351474	58	127
147.43433106575964	147.74780045351474	70	127
147.759410430839	148.200589569161	55	127
147.759410430839	148.0264172335601	48	127
147.759410430839	148.200589569161	76	127
147.759410430839	148.200589569161	60	127
147.759410430839	148.200589569161	64	127
147.759410430839	148.200589569161	70	127
147.759410430839	148.200589569161	67	127
148.0264172335601	148.28183673469388	57	127
148.2934693877551	148.68820861678006	77	127
148.2934693877551	148.68820861678006	69	127
148.2934693877551	148.68820861678006	41	127
148.2934693877551	148.96684807256236	57	127
148.4443990929705	148.59532879818593	60	127
148.4443990929705	148.59532879818593	48	127
148.59532879818593	148.8275283446712	69	127
148.59532879818593	148.8275283446712	57	127
148.8275283446712	148.96684807256236	72	127
148.8275283446712	148.96684807256236	60	127
148.96684807256236	149.4080045351474	60	127
148.96684807256236	149.4080045351474	48	127
149.33836734693878	149.61700680272108	48	127
149.4080045351474	149.61700680272108	69	127
149.4080045351474	149.61700680272108	57	127
149.61700680272108	149.8027664399093	60	127
149.61700680272108	149.8143537414966	57	127
149.61700680272108	149.8027664399093	72	127
149.8143537414966	150.01174603174604	60	127
150.01174603174604	150.3716553287982	40	127
150.01174603174604	150.7431746031746	60	127
150.1510657596372	150.3019954648526	60	127
150.1510657596372	150.3019954648526	48	127
150.3019954648526	150.44131519274376	67	127
150.3019954648526	150.44131519274376	55	127
150.44131519274376	150.6502947845805	72	127
150.44131519274376	150.6502947845805	60	127
150.6502947845805	150.8708843537415	60	127
150.6502947845805	150.8708843537415	48	127
150.7431746031746	151.0334240362812	58	127
150.8708843537415	151.0334240362812	67	127
150.8708843537415	151.0334240362812	55	127
151.0334240362812	151.28884353741498	60	127
151.0334240362812	151.47460317460317	55	127
151.0334240362812	151.28884353741498	72	127
151.55585034013606	151.9390022675737	41	127
151.55585034013606	152.21761904761905	60	127
151.73002267573696	151.8693424036281	60	127
151.73002267573696	151.8693424036281	48	127
151.8693424036281	152.0086621315193	69	127
151.8693424036281	152.0086621315193	57	127
152.0086621315193	152.21761904761905	72	127
152.0086621315193	152.21761904761905	60	127
152.21761904761905	152.35696145124717	60	127
152.21761904761905	152.35696145124717	48	127
152.27569160997732	152.5311111111111	48	127
152.35696145124717	152.5311111111111	69	127
152.35696145124717	152.5311111111111	57	127
152.5311111111111	152.80975056689343	60	127
152.5311111111111	152.80975056689343	57	127
152.5311111111111	152.80975056689343	72	127
152.80975056689343	153.06517006802721	65	127
153.06517006802721	153.8198185941043	65	127
153.06517006802721	153.5063492063492	36	127
153.20448979591836	153.36702947845805	60	127
153.20448979591836	153.36702947845805	48	127
153.36702947845805	153.5760090702948	67	127
153.36702947845805	153.5760090702948	55	127
153.5760090702948	153.71532879818594	60	127
153.5760090702948	153.71532879818594	72	127
153.71532879818594	153.8894784580499	48	127
153.71532879818594	153.8894784580499	60	127
153.8198185941043	154.00555555555556	64	127
153.8894784580499	154.01718820861677	70	127
153.8894784580499	154.01718820861677	58	127
154.01718820861677	154.24938775510205	64	127
154.01718820861677	154.41192743764174	55	127
154.01718820861677	154.24938775510205	76	127
154.49319727891157	154.98079365079366	38	127
154.49319727891157	155.21301587301588	67	127
154.69056689342403	154.89954648526077	62	127
154.69056689342403	154.89954648526077	50	127
154.89954648526077	155.0504761904762	69	127
154.89954648526077	155.0504761904762	57	127
155.0504761904762	155.21301587301588	74	127
155.0504761904762	155.21301587301588	62	127
155.21301587301588	155.41038548752834	62	127
155.21301587301588	155.41038548752834	50	127
155.32911564625851	155.56131519274376	57	127
155.41038548752834	155.56131519274376	69	127
155.41038548752834	155.56131519274376	57	127
155.56131519274376	155.7702947845805	62	127
155.56131519274376	155.7702947845805	65	127
155.56131519274376	155.7702947845805	74	127
155.7702947845805	156.0024716553288	69	127
156.0024716553288	156.88485260770975	69	127
156.0024716553288	156.47850340136054	46	127
156.18825396825397	156.35079365079366	53	127
156.18825396825397	156.35079365079366	65	127
156.35079365079366	156.5597732426304	62	127
156.35079365079366	156.5597732426304	74	127
156.5597732426304	156.79197278911565	77	127
156.5597732426304	156.79197278911565	65	127
156.79197278911565	156.9661224489796	65	127
156.79197278911565	156.9661224489796	53	127
156.88485260770975	157.10544217687075	67	127
156.9661224489796	157.10544217687075	62	127
156.9661224489796	157.10544217687075	74	127
157.10544217687075	157.3144217687075	77	127
157.10544217687075	157.45374149659864	69	127
157.10544217687075	157.3144217687075	65	127
157.52340136054423	157.94133786848073	47	127
157.52340136054423	158.24321995464854	69	127
157.67433106575965	157.83687074829933	65	127
157.67433106575965	157.83687074829933	53	127
157.83687074829933	158.01102040816326	62	127
157.83687074829933	158.01102040816326	74	127
158.01102040816326	158.17356009070295	77	127
158.01102040816326	158.17356009070295	65	127
158.17356009070295	158.3825396825397	65	127
158.17356009070295	158.3825396825397	53	127
158.24321995464854	158.67278911564625	67	127
158.3825396825397	158.67278911564625	74	127
158.3825396825397	158.67278911564625	62	127
158.67278911564625	158.89337868480726	79	127
158.67278911564625	159.0326984126984	62	127
158.67278911564625	158.89337868480726	67	127
159.102358276644	159.84539682539682	65	127
159.102358276644	159.64802721088435	48	127
159.39260770975056	159.57834467120182	69	127
159.39260770975056	159.57834467120182	57	127
159.57834467120182	159.71768707482994	77	127
159.57834467120182	159.71768707482994	65	127
159.71768707482994	159.84539682539682	81	127
159.71768707482994	159.84539682539682	69	127
159.84539682539682	160.05437641723356	57	127
159.84539682539682	160.05437641723356	69	127
159.9150566893424	160.21691609977324	57	127
160.05437641723356	160.2285260770975	72	127
160.05437641723356	160.2285260770975	60	127
160.2285260770975	160.4142857142857	65	127
160.2285260770975	160.4142857142857	57	127
160.2285260770975	160.4142857142857	77	127
160.4142857142857	160.60002267573697	58	127
160.61165532879818	161.30825396825398	58	127
160.61165532879818	161.11086167800454	36	127
160.78580498866214	161.04122448979592	67	127
160.78580498866214	161.04122448979592	55	127
161.04122448979592	161.18054421768707	76	127
161.04122448979592	161.18054421768707	64	127
161.18054421768707	161.30825396825398	79	127
161.18054421768707	161.30825396825398	67	127
161.30825396825398	161.58689342403628	67	127
161.30825396825398	161.58689342403628	55	127
161.4707709750567	161.72619047619048	55	127
161.58689342403628	161.72619047619048	58	127
161.58689342403628	161.72619047619048	70	127
161.72619047619048	162.03968253968253	72	127
161.72619047619048	162.03968253968253	55	127
161.72619047619048	162.03968253968253	76	127
161.72619047619048	162.03968253968253	64	127
161.72619047619048	162.03968253968253	60	127
162.03968253968253	162.26027210884354	81	127
162.03968253968253	162.26027210884354	60	127
162.03968253968253	162.26027210884354	69	127
162.26027210884354	162.6201814058957	41	127
162.26027210884354	162.81755102040816	81	127
162.26027210884354	162.81755102040816	69	127
162.26027210884354	164.03659863945578	60	127
162.3995918367347	162.5505215419501	48	127
162.3995918367347	162.5505215419501	60	127
162.5505215419501	162.678231292517	69	127
162.5505215419501	162.678231292517	57	127
162.678231292517	162.81755102040816	60	127
162.678231292517	162.81755102040816	72	127
162.81755102040816	163.00328798185942	60	127
162.81755102040816	163.00328798185942	48	127
162.89882086167802	163.22390022675737	60	127
162.89882086167802	163.22390022675737	72	127
163.00328798185942	163.22390022675737	69	127
163.00328798185942	163.22390022675737	57	127
163.22390022675737	163.5954195011338	81	127
163.22390022675737	163.58380952380952	72	127
163.22390022675737	163.58380952380952	60	127
163.22390022675737	163.5954195011338	69	127
163.5954195011338	163.8392290249433	72	127
163.5954195011338	163.8392290249433	84	127
163.8392290249433	164.5938775510204	72	127
163.8392290249433	164.5938775510204	84	127
163.8392290249433	164.25718820861678	40	127
163.9785260770975	164.1526984126984	48	127
163.9785260770975	164.1526984126984	60	127
164.04820861678004	164.35006802721088	55	127
164.1526984126984	164.35006802721088	55	127
164.1526984126984	164.35006802721088	67	127
164.35006802721088	164.5009977324263	60	127
164.35006802721088	164.5009977324263	72	127
164.35006802721088	164.5938775510204	55	127
164.5009977324263	164.77963718820862	60	127
164.5009977324263	164.77963718820862	48	127
164.5938775510204	164.8144671201814	82	127
164.5938775510204	164.8144671201814	70	127
164.5938775510204	164.91895691609977	60	127
164.77963718820862	164.91895691609977	67	127
164.77963718820862	164.91895691609977	55	127
164.91895691609977	166.97392290249434	60	127
164.91895691609977	165.10471655328797	60	127
164.91895691609977	165.27886621315193	79	127
164.91895691609977	165.27886621315193	67	127
164.91895691609977	165.10471655328797	72	127
165.39496598639457	165.99868480725624	84	127
165.39496598639457	165.99868480725624	72	127
165.39496598639457	165.77809523809523	41	127
165.54589569160999	165.67360544217686	60	127
165.54589569160999	165.67360544217686	48	127
165.67360544217686	165.84775510204082	57	127
165.67360544217686	165.84775510204082	69	127
165.84775510204082	165.99868480725624	72	127
165.84775510204082	165.99868480725624	60	127
165.99868480725624	166.14961451247166	60	127
165.99868480725624	166.14961451247166	48	127
166.06834467120183	166.32376417233561	60	127
166.06834467120183	166.32376417233561	72	127
166.14961451247166	166.32376417233561	69	127
166.14961451247166	166.32376417233561	57	127
166.32376417233561	166.5443537414966	81	127
166.32376417233561	166.5443537414966	72	127
166.32376417233561	166.5443537414966	60	127
166.32376417233561	166.5443537414966	69	127
166.5443537414966	166.75333333333333	89	127
166.5443537414966	166.75333333333333	77	127
166.7649433106576	167.4034693877551	89	127
166.7649433106576	167.12485260770976	36	127
166.7649433106576	167.4034693877551	77	127
166.89263038548754	167.05519274376417	48	127
166.89263038548754	167.05519274376417	60	127
166.97392290249434	167.18290249433107	55	127
167.05519274376417	167.19448979591837	67	127
167.05519274376417	167.19448979591837	55	127
167.19448979591837	167.4034693877551	55	127
167.19448979591837	167.3338321995465	72	127
167.19448979591837	167.3338321995465	60	127
167.3338321995465	167.47315192743764	48	127
167.3338321995465	167.47315192743764	60	127
167.4034693877551	167.6588888888889	88	127
167.4034693877551	167.82145124716553	60	127
167.4034693877551	167.6588888888889	76	127
167.47315192743764	167.8330612244898	58	127
167.47315192743764	167.8330612244898	70	127
167.8330612244898	168.16972789115647	76	127
167.8330612244898	168.16972789115647	64	127
167.8330612244898	168.16972789115647	58	127
167.8330612244898	168.3206575963719	79	127
167.8330612244898	168.3206575963719	67	127
168.16972789115647	168.37873015873015	64	127
168.37873015873015	169.09854875283446	91	127
168.37873015873015	168.79668934240362	64	127
168.37873015873015	168.79668934240362	38	127
168.37873015873015	169.09854875283446	79	127
168.51804988662133	168.66897959183675	62	127
168.51804988662133	168.66897959183675	50	127
168.66897959183675	168.9592290249433	69	127
168.66897959183675	168.9592290249433	57	127
168.9592290249433	169.09854875283446	62	127
168.9592290249433	169.09854875283446	74	127
168.9592290249433	169.3075283446712	62	127
169.09854875283446	169.23786848072564	62	127
169.09854875283446	169.23786848072564	50	127
169.16820861678005	169.3771882086168	69	127
169.16820861678005	169.3771882086168	81	127
169.23786848072564	169.3771882086168	57	127
169.23786848072564	169.3771882086168	69	127
169.3771882086168	169.76031746031745	57	127
169.3771882086168	169.63260770975057	89	127
169.3771882086168	169.63260770975057	77	127
169.3771882086168	169.6209977324263	74	127
169.3771882086168	169.6209977324263	62	127
169.63260770975057	169.81836734693877	81	127
169.63260770975057	169.81836734693877	93	127
169.81836734693877	170.70072562358277	81	127
169.81836734693877	170.70072562358277	93	127
169.81836734693877	170.4104761904762	62	127
169.81836734693877	170.4104761904762	46	127
169.95766439909298	170.30598639455783	65	127
169.95766439909298	170.30598639455783	53	127
170.30598639455783	170.48013605442176	74	127
170.30598639455783	170.48013605442176	62	127
170.48013605442176	170.8284126984127	64	127
170.48013605442176	170.63106575963718	77	127
170.48013605442176	170.63106575963718	65	127
170.63106575963718	170.7587755102041	53	127
170.63106575963718	170.7587755102041	65	127
170.70072562358277	170.79360544217687	91	127
170.70072562358277	170.79360544217687	79	127
170.7587755102041	170.89809523809524	74	127
170.7587755102041	170.89809523809524	62	127
170.89809523809524	171.29283446712017	93	127
170.89809523809524	171.29283446712017	65	127
170.89809523809524	171.15351473922902	77	127
170.89809523809524	171.15351473922902	65	127
170.89809523809524	171.29283446712017	81	127
171.38569160997733	172.10551020408164	81	127
171.38569160997733	172.10551020408164	93	127
171.38569160997733	171.78045351473924	65	127
171.38569160997733	171.78045351473924	47	127
171.55986394557823	171.71079365079365	65	127
171.55986394557823	171.71079365079365	53	127
171.71079365079365	171.85009070294785	74	127
171.71079365079365	171.85009070294785	62	127
171.85009070294785	172.36092970521543	67	127
171.85009070294785	171.98943310657597	77	127
171.85009070294785	171.98943310657597	65	127
171.98943310657597	172.17519274376417	65	127
171.98943310657597	172.17519274376417	53	127
172.10551020408164	172.3261224489796	91	127
172.10551020408164	172.3261224489796	79	127
172.17519274376417	172.5467120181406	62	127
172.17519274376417	172.5467120181406	74	127
172.5467120181406	173.08077097505668	86	127
172.5467120181406	173.08077097505668	74	127
172.5467120181406	172.81374149659865	81	127
172.5467120181406	172.81374149659865	69	127
172.5467120181406	173.08077097505668	69	127
173.15043083900227	173.69609977324262	77	127
173.15043083900227	173.49873015873015	69	127
173.15043083900227	173.49873015873015	48	127
173.15043083900227	173.7657596371882	89	127
173.2781179138322	173.4290702947846	57	127
173.2781179138322	173.4290702947846	69	127
173.4290702947846	173.56839002267574	65	127
173.4290702947846	173.56839002267574	77	127
173.56839002267574	173.69609977324262	81	127
173.56839002267574	173.90507936507936	67	127
173.56839002267574	173.69609977324262	69	127
173.69609977324262	173.8354195011338	69	127
173.69609977324262	173.8354195011338	57	127
173.7657596371882	173.97473922902495	65	127
173.7657596371882	173.87024943310658	81	127
173.8354195011338	173.98634920634922	60	127
173.8354195011338	173.98634920634922	72	127
173.98634920634922	174.34625850340137	65	127
173.98634920634922	174.2069387755102	81	127
173.98634920634922	174.2069387755102	65	127
173.98634920634922	174.2069387755102	77	127
173.98634920634922	174.2069387755102	65	127
174.2069387755102	174.40428571428572	67	127
174.2069387755102	174.40428571428572	82	127
174.40428571428572	175.0892970521542	82	127
174.40428571428572	174.82226757369614	67	127
174.40428571428572	174.82226757369614	64	127
174.40428571428572	174.82226757369614	36	127
174.54362811791384	174.71777777777777	67	127
174.54362811791384	174.71777777777777	55	127
174.71777777777777	174.88031746031746	76	127
174.71777777777777	174.88031746031746	64	127
174.88031746031746	175.2170068027211	60	127
174.88031746031746	175.01961451247166	67	127
174.88031746031746	175.01961451247166	79	127
175.01961451247166	175.15895691609978	67	127
175.01961451247166	175.15895691609978	55	127
175.0892970521542	175.19378684807256	79	127
175.0892970521542	175.19378684807256	64	127
175.15895691609978	175.3098866213152	70	127
175.15895691609978	175.3098866213152	58	127
175.3098866213152	175.77428571428572	58	127
175.3098866213152	175.57689342403629	79	127
175.3098866213152	175.57689342403629	64	127
175.3098866213152	175.565306122449	76	127
175.3098866213152	175.565306122449	64	127
175.57689342403629	175.96004535147392	65	127
175.57689342403629	175.96004535147392	80	127
175.96004535147392	177.4228798185941	47	127
175.96004535147392	176.11097505668934	68	127
175.96004535147392	177.4228798185941	80	127
175.96004535147392	176.36639455782313	65	127
175.96004535147392	176.36639455782313	56	127
175.96004535147392	176.36639455782313	56	127
176.11097505668934	176.2502947845805	77	127
176.2502947845805	176.43605442176872	68	127
176.43605442176872	176.58698412698413	77	127
176.58698412698413	176.74952380952382	68	127
176.74952380952382	176.9701133786848	77	127
176.9701133786848	177.12104308390022	68	127
177.12104308390022	177.2603628117914	77	127
177.2603628117914	177.4228798185941	68	127
177.4228798185941	178.7464172335601	80	127
177.4228798185941	179.37337868480725	47	127
177.4228798185941	177.57380952380953	77	127
177.57380952380953	177.7595918367347	68	127
177.7595918367347	177.93371882086169	77	127
177.93371882086169	178.0730612244898	68	127
178.0730612244898	178.23557823129252	77	127
178.23557823129252	178.3865306122449	68	127
178.3865306122449	178.53746031746033	77	127
178.53746031746033	178.71160997732426	68	127
178.71160997732426	178.85090702947846	77	127
178.86253968253968	180.78979591836736	65	127
178.86253968253968	179.08312925170068	65	127
178.86253968253968	180.78979591836736	68	127
179.08312925170068	179.24566893424037	68	127
179.24566893424037	179.53591836734694	65	127
179.53591836734694	179.7681179138322	68	127
179.7681179138322	180.01192743764173	65	127
179.83777777777777	180.2092970521542	46	127
180.01192743764173	180.2092970521542	68	127
180.2092970521542	180.40666666666667	65	127
180.2092970521542	180.54598639455781	46	127
180.40666666666667	180.6156462585034	68	127
180.54598639455781	180.78979591836736	47	127
180.6156462585034	180.78979591836736	65	127
180.78979591836736	182.51968253968255	68	127
180.78979591836736	180.94072562358278	68	127
180.78979591836736	182.51968253968255	65	127
180.78979591836736	181.1845351473923	47	127
180.94072562358278	181.0916553287982	65	127
181.0916553287982	181.26580498866213	68	127
181.26580498866213	181.41673469387754	65	127
181.41673469387754	181.56766439909296	68	127
181.48639455782313	181.78825396825397	47	127
181.56766439909296	181.78825396825397	65	127
181.78825396825397	182.4035827664399	47	127
181.78825396825397	182.19460317460317	68	127
182.19460317460317	182.48485260770974	65	127
182.4035827664399	182.62417233560092	48	127
182.48485260770974	182.62417233560092	68	127
182.62417233560092	183.08857142857144	48	127
182.62417233560092	183.08857142857144	65	127
182.62417233560092	183.08857142857144	69	127
183.18145124716554	183.7271201814059	53	127
183.18145124716554	183.7271201814059	41	127
183.39043083900228	183.7271201814059	60	127
183.39043083900228	183.7271201814059	69	127
183.39043083900228	183.7271201814059	65	127
183.7271201814059	184.6326984126984	36	127
183.7271201814059	184.6326984126984	48	127
183.7271201814059	183.9709297052154	69	127
183.7271201814059	183.9709297052154	65	127
183.7271201814059	183.9709297052154	60	127
183.9709297052154	184.2263492063492	67	127
183.9709297052154	184.2263492063492	70	127
183.9709297052154	184.2263492063492	48	127
184.23795918367347	184.6326984126984	70	127
184.23795918367347	184.6326984126984	67	127
184.23795918367347	184.6326984126984	48	127
184.71396825396826	185.16675736961452	55	127
184.71396825396826	185.16675736961452	43	127
184.9345351473923	185.15514739229025	60	127
184.9345351473923	185.15514739229025	70	127
184.9345351473923	185.15514739229025	67	127
185.16675736961452	186.0142857142857	48	127
185.16675736961452	186.0142857142857	36	127
185.16675736961452	185.37573696145125	70	127
185.16675736961452	185.37573696145125	67	127
185.16675736961452	185.37573696145125	60	127
185.37573696145125	185.6079365079365	72	127
185.37573696145125	185.6079365079365	69	127
185.37573696145125	185.6079365079365	48	127
185.61954648526077	186.0142857142857	72	127
185.61954648526077	186.0142857142857	69	127
185.61954648526077	186.0142857142857	48	127
186.10714285714286	186.5599546485261	57	127
186.10714285714286	186.5599546485261	45	127
186.3045351473923	186.4206349206349	72	127
186.3045351473923	186.4206349206349	69	127
186.3045351473923	186.5599546485261	60	127
186.5599546485261	187.63968253968255	48	127
186.5599546485261	187.63968253968255	36	127
186.5599546485261	186.86181405895692	72	127
186.5599546485261	186.86181405895692	60	127
186.5599546485261	187.0243537414966	69	127
186.86181405895692	187.12884353741498	77	127
186.86181405895692	187.12884353741498	48	127
187.12884353741498	187.73256235827665	77	127
187.12884353741498	188.3594784580499	70	127
187.12884353741498	187.73256235827665	69	127
187.73256235827665	188.3594784580499	60	127
187.73256235827665	188.3594784580499	76	127
187.73256235827665	188.3594784580499	67	127
187.73256235827665	188.3594784580499	48	127
188.3594784580499	189.45083900226757	48	127
188.3594784580499	189.45083900226757	36	127
188.3594784580499	188.89356009070295	70	127
188.3594784580499	188.89356009070295	64	127
188.3594784580499	188.89356009070295	60	127
188.97480725623583	189.45083900226757	69	127
188.97480725623583	189.45083900226757	65	127
189.2534693877551	189.57854875283448	53	127
189.2534693877551	189.57854875283448	65	127
189.57854875283448	189.98489795918368	65	127
189.57854875283448	189.98489795918368	53	127
189.98489795918368	190.24031746031747	48	127
189.98489795918368	190.24031746031747	41	127
189.98489795918368	190.24031746031747	69	127
189.98489795918368	190.24031746031747	65	127
189.98489795918368	190.24031746031747	60	127
189.98489795918368	190.24031746031747	53	127
190.24031746031747	190.47251700680272	41	127
190.24031746031747	190.6350566893424	48	127
190.24031746031747	190.47251700680272	69	127
190.24031746031747	190.47251700680272	65	127
190.24031746031747	190.47251700680272	53	127
190.24031746031747	190.6350566893424	60	127
190.47251700680272	190.69310657596372	67	127
190.47251700680272	190.69310657596372	36	127
190.47251700680272	190.69310657596372	70	127
190.47251700680272	190.69310657596372	48	127
190.704716553288	191.15750566893425	70	127
190.704716553288	191.15750566893425	67	127
190.704716553288	191.15750566893425	36	127
190.704716553288	191.15750566893425	48	127
190.97174603174602	191.21555555555557	67	127
190.97174603174602	191.21555555555557	55	127
191.2271655328798	191.6102947845805	67	127
191.2271655328798	191.6102947845805	55	127
191.6102947845805	191.72639455782314	70	127
191.6102947845805	191.72639455782314	67	127
191.6102947845805	191.84249433106575	60	127
191.6102947845805	191.84249433106575	55	127
191.6102947845805	191.84249433106575	48	127
191.6102947845805	191.84249433106575	43	127
191.85410430839002	192.0863038548753	43	127
191.85410430839002	192.2720634920635	48	127
191.85410430839002	192.0863038548753	70	127
191.85410430839002	192.0863038548753	67	127
191.85410430839002	192.0863038548753	55	127
191.85410430839002	192.2720634920635	60	127
192.0863038548753	192.38816326530613	69	127
192.0863038548753	192.38816326530613	36	127
192.0863038548753	192.38816326530613	72	127
192.0863038548753	192.38816326530613	48	127
192.39977324263037	192.79451247165534	69	127
192.39977324263037	192.79451247165534	36	127
192.39977324263037	192.79451247165534	72	127
192.39977324263037	192.79451247165534	48	127
192.65519274376416	192.88739229024944	57	127
192.65519274376416	192.88739229024944	69	127
192.88739229024944	193.13120181405895	69	127
192.88739229024944	193.13120181405895	57	127
193.13120181405895	193.36340136054423	60	127
193.13120181405895	193.23569160997732	72	127
193.13120181405895	193.23569160997732	69	127
193.13120181405895	193.36340136054423	48	127
193.13120181405895	193.36340136054423	57	127
193.13120181405895	193.36340136054423	45	127
193.36340136054423	193.7465306122449	60	127
193.36340136054423	193.7465306122449	48	127
193.36340136054423	193.60721088435375	72	127
193.36340136054423	193.60721088435375	69	127
193.36340136054423	193.60721088435375	57	127
193.36340136054423	193.60721088435375	45	127
193.60721088435375	193.81619047619049	72	127
193.60721088435375	193.81619047619049	36	127
193.60721088435375	193.81619047619049	81	127
193.60721088435375	193.81619047619049	48	127
193.81619047619049	194.29219954648525	81	127
193.81619047619049	194.71015873015872	72	127
193.81619047619049	194.2225396825397	48	127
193.81619047619049	194.2225396825397	36	127
194.04839002267573	194.29219954648525	70	127
194.04839002267573	194.29219954648525	58	127
194.29219954648525	194.71015873015872	79	127
194.29219954648525	194.51278911564626	70	127
194.29219954648525	194.51278911564626	58	127
194.51278911564626	194.71015873015872	60	127
194.51278911564626	194.71015873015872	48	127
194.51278911564626	194.71015873015872	58	127
194.51278911564626	194.71015873015872	46	127
194.71015873015872	194.97718820861678	46	127
194.71015873015872	195.15133786848074	64	127
194.71015873015872	195.15133786848074	48	127
194.71015873015872	194.97718820861678	58	127
194.71015873015872	195.15133786848074	60	127
194.71015873015872	195.15133786848074	72	127
194.97718820861678	195.2209977324263	48	127
194.97718820861678	195.2209977324263	36	127
195.2209977324263	196.04530612244898	72	127
195.2209977324263	196.16140589569162	64	127
195.2209977324263	196.16140589569162	70	127
195.2209977324263	195.74344671201814	36	127
195.2209977324263	195.82471655328797	81	127
195.2209977324263	195.82471655328797	48	127
195.58090702947845	195.82471655328797	60	127
195.82471655328797	196.26589569160998	79	127
195.82471655328797	196.26589569160998	52	127
195.82471655328797	196.04530612244898	60	127
196.04530612244898	196.25428571428571	74	127
196.04530612244898	196.25428571428571	48	127
196.04530612244898	196.25428571428571	46	127
196.26589569160998	196.74190476190475	48	127
196.26589569160998	196.74190476190475	55	127
196.26589569160998	196.54453514739228	46	127
196.26589569160998	196.74190476190475	72	127
196.26589569160998	196.74190476190475	64	127
196.26589569160998	196.74190476190475	67	127
196.54453514739228	196.83478458049888	36	127
196.84639455782312	197.53138321995465	57	127
196.84639455782312	197.77519274376417	72	127
196.84639455782312	197.36884353741496	36	127
197.1366439909297	197.51977324263038	57	127
197.53138321995465	198.13510204081632	60	127
197.53138321995465	197.77519274376417	57	127
197.77519274376417	198.12349206349205	45	127
197.77519274376417	198.12349206349205	77	127
197.77519274376417	198.12349206349205	48	127
198.13510204081632	198.5530612244898	48	127
198.13510204081632	198.5530612244898	57	127
198.13510204081632	198.37891156462584	45	127
198.13510204081632	198.5530612244898	72	127
198.37891156462584	198.6459410430839	36	127
198.66916099773243	199.40058956916099	72	127
198.66916099773243	199.09873015873015	36	127
198.66916099773243	199.16839002267574	58	127
198.94780045351473	199.16839002267574	55	127
199.16839002267574	199.621179138322	64	127
199.16839002267574	199.40058956916099	55	127
199.40058956916099	199.621179138322	48	127
199.40058956916099	199.51668934240362	74	127
199.40058956916099	199.621179138322	43	127
199.621179138322	200.06235827664398	48	127
199.621179138322	200.06235827664398	58	127
199.621179138322	199.841768707483	43	127
199.621179138322	200.06235827664398	72	127
199.841768707483	200.13201814058957	36	127
200.13201814058957	200.9331065759637	72	127
200.13201814058957	200.60802721088436	36	127
200.13201814058957	200.6892970521542	57	127
200.39904761904762	200.6892970521542	54	127
200.6892970521542	201.1304761904762	63	127
200.6892970521542	200.9331065759637	54	127
200.9331065759637	201.1304761904762	48	127
200.9331065759637	201.02598639455783	81	127
200.9331065759637	201.1304761904762	42	127
201.1304761904762	201.6297052154195	48	127
201.1304761904762	201.6297052154195	57	127
201.1304761904762	201.38589569161	42	127
201.1304761904762	201.6297052154195	72	127
201.38589569161	201.73419501133787	36	127
201.73419501133787	202.67460317460316	72	127
201.73419501133787	202.14054421768708	36	127
201.73419501133787	202.2218140589569	58	127
201.96639455782312	202.2218140589569	55	127
202.2218140589569	202.89519274376417	64	127
202.2218140589569	202.67460317460316	55	127
202.67460317460316	202.8835827664399	43	127
202.67460317460316	202.7907029478458	74	127
202.67460317460316	202.8835827664399	48	127
202.89519274376417	203.30154195011337	48	127
202.89519274376417	203.30154195011337	58	127
202.89519274376417	203.11578231292518	43	127
202.89519274376417	203.30154195011337	72	127
203.11578231292518	203.37120181405896	36	127
203.38281179138323	204.03297052154196	73	127
203.38281179138323	203.7427210884354	36	127
203.38281179138323	203.81238095238095	59	127
203.59179138321994	203.80077097505668	56	127
203.81238095238095	204.28839002267574	65	127
203.81238095238095	204.03297052154196	56	127
204.03297052154196	204.27678004535147	48	127
204.03297052154196	204.16068027210883	74	127
204.03297052154196	204.27678004535147	44	127
204.28839002267574	204.78761904761905	48	127
204.28839002267574	204.78761904761905	59	127
204.28839002267574	204.5786394557823	44	127
204.28839002267574	204.78761904761905	77	127
204.5786394557823	204.88049886621314	36	127
204.88049886621314	205.26362811791384	36	127
204.88049886621314	205.623537414966	75	127
204.88049886621314	205.35650793650794	67	127
205.11269841269842	205.35650793650794	55	127
205.35650793650794	205.91378684807256	58	127
205.35650793650794	205.623537414966	55	127
205.623537414966	205.91378684807256	43	127
205.623537414966	205.7396371882086	76	127
205.623537414966	205.91378684807256	48	127
205.91378684807256	206.50589569160996	48	127
205.91378684807256	206.50589569160996	64	127
205.91378684807256	206.18081632653062	43	127
205.91378684807256	206.50589569160996	81	127
206.18081632653062	206.6219954648526	36	127
206.6219954648526	207.5275736961451	78	127
206.6219954648526	207.14444444444445	36	127
206.6219954648526	207.24893424036281	55	127
206.92385487528344	207.24893424036281	58	127
207.24893424036281	207.74816326530612	60	127
207.24893424036281	207.5275736961451	58	127
207.5275736961451	207.74816326530612	48	127
207.5275736961451	207.63206349206348	79	127
207.5275736961451	207.74816326530612	46	127
207.74816326530612	208.096462585034	48	127
207.74816326530612	208.096462585034	52	127
207.74816326530612	207.96875283446713	46	127
207.74816326530612	208.096462585034	84	127
207.96875283446713	208.15451247165532	36	127
208.15451247165532	208.83950113378685	48	127
208.15451247165532	208.83950113378685	36	127
208.36349206349206	208.63052154195012	84	127
208.63052154195012	208.83950113378685	84	127
208.83950113378685	209.1065306122449	50	127
208.83950113378685	209.1065306122449	72	127
208.83950113378685	209.1065306122449	70	127
208.83950113378685	209.1065306122449	38	127
209.11814058956915	209.5477097505669	36	127
209.11814058956915	209.3851700680272	70	127
209.11814058956915	209.5477097505669	72	127
209.11814058956915	209.5477097505669	48	127
209.3851700680272	209.6057596371882	60	127
209.61736961451248	210.47650793650794	48	127
209.61736961451248	210.47650793650794	36	127
209.61736961451248	210.1165986394558	60	127
209.94244897959183	210.18625850340135	84	127
210.18625850340135	210.47650793650794	84	127
210.47650793650794	210.69709750566892	69	127
210.47650793650794	210.69709750566892	41	127
210.47650793650794	210.69709750566892	72	127
210.47650793650794	210.69709750566892	53	127
210.7087074829932	211.19632653061225	48	127
210.7087074829932	211.19632653061225	36	127
210.7087074829932	210.96412698412698	69	127
210.7087074829932	211.19632653061225	72	127
210.96412698412698	211.27759637188208	60	127
211.27759637188208	211.98580498866212	48	127
211.27759637188208	211.98580498866212	36	127
211.27759637188208	211.62589569160997	60	127
211.47496598639455	211.69555555555556	84	127
211.69555555555556	211.98580498866212	84	127
211.98580498866212	212.19478458049886	67	127
211.98580498866212	212.19478458049886	38	127
211.98580498866212	212.19478458049886	72	127
211.98580498866212	212.19478458049886	50	127
212.20639455782313	212.60113378684807	67	127
212.20639455782313	212.75206349206348	72	127
212.20639455782313	212.75206349206348	48	127
212.20639455782313	212.75206349206348	36	127
212.60113378684807	212.8797732426304	60	127
212.8797732426304	213.70408163265307	48	127
212.8797732426304	213.70408163265307	36	127
212.8797732426304	213.40222222222224	60	127
213.20485260770974	213.49510204081633	84	127
213.49510204081633	213.70408163265307	84	127
213.70408163265307	213.9130612244898	66	127
213.70408163265307	213.9130612244898	45	127
213.70408163265307	213.9130612244898	72	127
213.70408163265307	213.9130612244898	57	127
213.92467120181405	214.33102040816325	48	127
213.92467120181405	214.33102040816325	36	127
213.92467120181405	214.15687074829933	66	127
213.92467120181405	214.33102040816325	72	127
214.15687074829933	214.38907029478457	60	127
214.40068027210884	215.14371882086166	48	127
214.40068027210884	215.14371882086166	36	127
214.40068027210884	214.8534693877551	60	127
214.65609977324263	214.9231292517007	84	127
214.9463492063492	215.14371882086166	84	127
215.14371882086166	215.36430839002267	67	127
215.14371882086166	215.36430839002267	38	127
215.14371882086166	215.36430839002267	72	127
215.14371882086166	215.36430839002267	50	127
215.37591836734694	215.68938775510205	67	127
215.37591836734694	215.88675736961451	72	127
215.37591836734694	215.88675736961451	48	127
215.37591836734694	215.88675736961451	36	127
215.68938775510205	216.00285714285715	60	127
216.00285714285715	216.78072562358275	47	127
216.00285714285715	216.78072562358275	36	127
216.00285714285715	216.43242630385487	59	127
216.00285714285715	216.78072562358275	48	127
216.00285714285715	216.78072562358275	59	127
216.25827664399094	216.4904761904762	86	127
216.50208616780046	216.78072562358275	86	127
216.78072562358275	217.03614512471654	68	127
216.78072562358275	217.03614512471654	48	127
216.78072562358275	217.03614512471654	60	127
216.78072562358275	217.03614512471654	48	127
216.78072562358275	217.03614512471654	36	127
216.78072562358275	217.03614512471654	74	127
217.03614512471654	217.47732426303855	50	127
217.03614512471654	217.3380045351474	68	127
217.03614512471654	217.47732426303855	74	127
217.03614512471654	217.47732426303855	48	127
217.03614512471654	217.47732426303855	62	127
217.03614512471654	217.47732426303855	36	127
217.3380045351474	217.53537414965987	59	127
217.66308390022675	218.5222222222222	36	127
217.66308390022675	218.23197278911564	59	127
217.66308390022675	218.5222222222222	62	127
217.66308390022675	218.5222222222222	50	127
217.66308390022675	218.5222222222222	48	127
217.8720634920635	218.30163265306123	86	127
218.30163265306123	218.5222222222222	86	127
218.5222222222222	218.777641723356	36	127
218.5222222222222	218.777641723356	74	127
218.5222222222222	218.777641723356	68	127
218.5222222222222	218.777641723356	48	127
218.5222222222222	218.777641723356	64	127
218.5222222222222	218.777641723356	52	127
218.777641723356	219.1607709750567	65	127
218.777641723356	219.02145124716554	68	127
218.777641723356	219.1607709750567	74	127
218.777641723356	219.1607709750567	48	127
218.777641723356	219.1607709750567	36	127
218.777641723356	219.1607709750567	53	127
219.02145124716554	219.218820861678	59	127
219.23043083900228	219.67160997732427	60	127
219.23043083900228	219.9734693877551	55	127
219.23043083900228	219.9734693877551	67	127
219.23043083900228	219.9734693877551	36	127
219.23043083900228	219.9734693877551	48	127
219.53229024943312	219.74126984126985	84	127
219.74126984126985	219.9734693877551	84	127
219.9734693877551	220.20566893424035	36	127
219.9734693877551	220.20566893424035	72	127
219.9734693877551	220.20566893424035	67	127
219.9734693877551	220.20566893424035	48	127
219.9734693877551	220.20566893424035	64	127
219.9734693877551	220.20566893424035	52	127
220.21727891156462	220.57718820861678	48	127
220.21727891156462	220.4146485260771	67	127
220.21727891156462	220.57718820861678	72	127
220.21727891156462	220.57718820861678	48	127
220.21727891156462	220.57718820861678	60	127
220.21727891156462	220.57718820861678	36	127
220.4146485260771	220.65845804988663	60	127
220.65845804988663	221.55242630385487	48	127
220.65845804988663	220.90226757369615	60	127
220.65845804988663	221.1112471655329	36	127
220.65845804988663	221.43632653061223	69	127
220.79777777777778	221.43632653061223	77	127
220.9719274376417	221.204126984127	84	127
221.204126984127	221.43632653061223	84	127
221.43632653061223	221.64530612244897	72	127
221.43632653061223	221.64530612244897	48	127
221.43632653061223	221.64530612244897	69	127
221.65691609977324	222.00521541950113	48	127
221.65691609977324	222.2374149659864	72	127
221.65691609977324	222.2374149659864	48	127
222.00521541950113	222.353514739229	36	127
222.353514739229	223.07333333333332	55	127
222.353514739229	222.7714739229025	36	127
222.62054421768707	222.84113378684808	72	127
222.84113378684808	223.07333333333332	72	127
223.07333333333332	223.3055328798186	52	127
223.07333333333332	223.3055328798186	60	127
223.07333333333332	223.3055328798186	48	127
223.3055328798186	223.85120181405895	48	127
223.3055328798186	223.57256235827666	48	127
223.3055328798186	223.72349206349207	60	127
223.57256235827666	223.81637188208617	36	127
223.85120181405895	225.4069387755102	48	127
223.85120181405895	224.22272108843538	36	127
223.85120181405895	224.60585034013604	65	127
224.08340136054423	224.2807709750567	72	127
224.29238095238094	224.60585034013604	72	127
224.60585034013604	224.83804988662132	60	127
224.60585034013604	224.83804988662132	57	127
224.60585034013604	224.83804988662132	48	127
224.8496598639456	225.11668934240362	48	127
224.8496598639456	225.2792290249433	60	127
225.11668934240362	225.39532879818594	36	127
225.4069387755102	226.324126984127	65	127
225.4069387755102	225.9177777777778	36	127
225.4069387755102	226.42861678004536	48	127
225.69718820861678	225.99904761904762	72	127
225.99904761904762	226.324126984127	72	127
226.324126984127	226.55632653061224	57	127
226.324126984127	226.55632653061224	60	127
226.324126984127	226.55632653061224	48	127
226.55632653061224	226.76530612244898	48	127
226.55632653061224	226.99750566893425	60	127
226.76530612244898	227.10199546485262	36	127
227.11360544217686	228.17011337868482	65	127
227.11360544217686	227.47351473922902	36	127
227.33419501133787	227.6128344671202	72	127
227.6128344671202	228.98281179138323	72	127
228.17011337868482	228.40231292517007	57	127
228.17011337868482	228.40231292517007	48	127
228.40231292517007	229.19179138321996	60	127
228.40231292517007	229.62136054421768	48	127
228.98281179138323	230.80557823129251	60	127
229.19179138321996	229.6097505668934	57	127
229.62136054421768	231.38607709750568	45	127
229.62136054421768	230.67786848072564	60	127
230.67786848072564	231.3744671201814	57	127
231.38607709750568	232.61673469387756	65	127
231.38607709750568	231.75759637188207	53	127
231.38607709750568	231.75759637188207	41	127
231.38607709750568	232.61673469387756	53	127
232.61673469387756	233.05791383219955	64	127
232.61673469387756	233.05791383219955	52	127
233.05791383219955	233.6732426303855	65	127
233.05791383219955	233.6732426303855	53	127
233.6732426303855	234.2653514739229	69	127
233.6732426303855	234.2653514739229	57	127
234.2653514739229	234.68331065759637	55	127
234.2653514739229	234.68331065759637	67	127
234.91551020408164	236.0300680272109	63	127
234.91551020408164	236.0300680272109	51	127
236.0300680272109	236.56412698412697	62	127
236.0300680272109	236.56412698412697	50	127
236.56412698412697	237.10979591836735	63	127
236.56412698412697	237.10979591836735	51	127
237.10979591836735	237.8180045351474	67	127
237.10979591836735	237.8180045351474	55	127
237.8180045351474	238.87451247165532	53	127
237.8180045351474	238.87451247165532	65	127
238.9441723356009	240.15160997732426	58	127
238.9441723356009	239.33891156462585	50	127
238.9441723356009	240.15160997732426	46	127
239.33891156462585	239.6291609977324	53	127
239.6291609977324	239.89619047619047	50	127
239.89619047619047	240.15160997732426	53	127
240.15160997732426	240.75532879818593	57	127
240.15160997732426	240.52312925170068	48	127
240.15160997732426	240.75532879818593	41	127
240.52312925170068	240.75532879818593	53	127
240.75532879818593	241.95115646258503	38	127
240.75532879818593	241.1732879818594	50	127
240.75532879818593	241.41709750566892	58	127
241.1732879818594	241.41709750566892	53	127
241.41709750566892	241.95115646258503	62	127
241.41709750566892	241.70734693877552	58	127
241.70734693877552	241.95115646258503	53	127
241.95115646258503	242.52004535147393	39	127
241.95115646258503	242.3691156462585	55	127
241.95115646258503	242.52004535147393	60	127
242.3691156462585	242.5897052154195	51	127
242.5897052154195	243.64621315192744	41	127
242.5897052154195	242.9031746031746	48	127
242.5897052154195	243.14698412698414	57	127
242.9031746031746	243.42562358276643	53	127
243.14698412698414	243.57655328798185	53	127
243.4372335600907	243.64621315192744	53	127
243.64621315192744	244.14544217687074	57	127
243.64621315192744	243.8784126984127	48	127
243.64621315192744	244.14544217687074	39	127
243.8784126984127	244.14544217687074	53	127
244.14544217687074	244.4124716553288	50	127
244.14544217687074	245.27160997732426	38	127
244.14544217687074	244.65628117913832	58	127
244.4124716553288	244.65628117913832	53	127
244.65628117913832	245.27160997732426	62	127
244.65628117913832	244.87687074829932	58	127
244.87687074829932	245.27160997732426	53	127
245.27160997732426	245.8172789115646	39	127
245.27160997732426	245.6663492063492	55	127
245.27160997732426	245.8172789115646	60	127
245.6663492063492	245.91015873015874	51	127
245.91015873015874	246.81573696145125	41	127
245.91015873015874	246.2004081632653	48	127
245.91015873015874	246.49065759637188	57	127
246.2004081632653	246.6996371882086	53	127
246.49065759637188	246.85056689342403	53	127
246.6996371882086	246.96666666666667	53	127
246.96666666666667	247.25691609977324	57	127
246.96666666666667	248.09283446712018	65	127
246.96666666666667	247.53555555555556	41	127
247.25691609977324	247.5239455782313	53	127
247.53555555555556	248.5224036281179	43	127
247.53555555555556	247.84902494331067	58	127
247.84902494331067	248.30181405895692	53	127
248.09283446712018	248.5224036281179	63	127
248.30181405895692	248.5224036281179	53	127
248.5224036281179	249.04485260770974	45	127
248.5224036281179	248.835873015873	60	127
248.5224036281179	249.04485260770974	65	127
248.835873015873	249.18417233560092	53	127
249.18417233560092	250.38	46	127
249.18417233560092	249.497641723356	58	127
249.18417233560092	249.76467120181405	63	127
249.497641723356	250.14780045351475	53	127
249.76467120181405	250.31034013605444	62	127
250.159410430839	250.38	53	127
250.38	251.11142857142858	61	127
250.38	250.58897959183673	58	127
250.38	250.821179138322	42	127
250.58897959183673	250.821179138322	54	127
250.821179138322	251.11142857142858	58	127
250.821179138322	251.9821768707483	39	127
251.11142857142858	251.71514739229025	54	127
251.11142857142858	251.23913832199545	63	127
251.23913832199545	251.3552380952381	61	127
251.3552380952381	251.9821768707483	60	127
251.72675736961452	251.9821768707483	54	127
251.9821768707483	252.4814058956916	40	127
251.9821768707483	252.27242630385487	55	127
251.9821768707483	252.4814058956916	58	127
252.27242630385487	252.58589569160998	49	127
252.58589569160998	254.01392290249433	41	127
252.58589569160998	252.8877551020408	53	127
252.58589569160998	253.66562358276644	57	127
252.8877551020408	253.13156462585033	48	127
253.13156462585033	253.37537414965988	53	127
253.37537414965988	253.66562358276644	48	127
253.66562358276644	254.06036281179138	60	127
253.66562358276644	253.90943310657596	57	127
253.90943310657596	254.17646258503402	53	127
254.17646258503402	254.838231292517	53	127
254.17646258503402	255.1865306122449	41	127
254.17646258503402	254.5944217687075	53	127
254.17646258503402	254.838231292517	65	127
254.17646258503402	254.838231292517	57	127
254.5944217687075	255.25619047619048	53	127
254.838231292517	255.58126984126983	55	127
254.838231292517	255.58126984126983	67	127
254.838231292517	255.58126984126983	58	127
255.3142403628118	255.89473922902494	53	127
255.3142403628118	255.58126984126983	51	127
255.58126984126983	256.1037188208617	69	127
255.58126984126983	256.1037188208617	57	127
255.58126984126983	255.9063492063492	50	127
255.58126984126983	256.1037188208617	60	127
255.9063492063492	256.1733560090703	48	127
255.9063492063492	256.1733560090703	51	127
256.1733560090703	257.311156462585	46	127
256.1733560090703	256.4171882086168	62	127
256.1733560090703	256.4171882086168	50	127
256.1733560090703	257.311156462585	70	127
256.1733560090703	257.311156462585	58	127
256.4171882086168	256.70743764172335	53	127
256.4171882086168	256.70743764172335	65	127
256.70743764172335	257.0092970521542	50	127
256.70743764172335	257.0092970521542	62	127
257.0092970521542	257.311156462585	65	127
257.0092970521542	257.311156462585	53	127
257.311156462585	257.61301587301585	60	127
257.311156462585	257.61301587301585	48	127
257.311156462585	257.88004535147394	69	127
257.311156462585	257.88004535147394	57	127
257.311156462585	257.88004535147394	41	127
257.61301587301585	257.88004535147394	65	127
257.61301587301585	257.88004535147394	53	127
257.88004535147394	258.4024943310658	58	127
257.88004535147394	258.9249206349206	38	127
257.88004535147394	258.1819047619048	58	127
257.88004535147394	258.1819047619048	46	127
257.88004535147394	258.4024943310658	70	127
258.1819047619048	258.4024943310658	65	127
258.1819047619048	258.4024943310658	53	127
258.4024943310658	258.6811337868481	58	127
258.4024943310658	258.6811337868481	46	127
258.4024943310658	258.9249206349206	74	127
258.4024943310658	258.9249206349206	62	127
258.6811337868481	258.9249206349206	53	127
258.6811337868481	258.9249206349206	65	127
258.9249206349206	259.3545124716553	60	127
258.9249206349206	259.13390022675736	67	127
258.9249206349206	259.13390022675736	55	127
258.9249206349206	259.3545124716553	72	127
258.9249206349206	259.3545124716553	39	127
259.13390022675736	259.4590022675737	63	127
259.13390022675736	259.4590022675737	51	127
259.4938321995465	259.72603174603177	48	127
259.4938321995465	260.68965986394556	41	127
259.4938321995465	260.178820861678	69	127
259.4938321995465	260.178820861678	57	127
259.4938321995465	259.72603174603177	60	127
259.72603174603177	260.178820861678	65	127
259.72603174603177	260.178820861678	53	127
260.178820861678	260.399410430839	57	127
260.178820861678	260.399410430839	45	127
260.178820861678	260.5851700680272	65	127
260.178820861678	260.5851700680272	53	127
260.399410430839	260.68965986394556	48	127
260.399410430839	260.68965986394556	60	127
260.68965986394556	261.18888888888887	57	127
260.68965986394556	261.18888888888887	39	127
260.68965986394556	260.95668934240365	65	127
260.68965986394556	260.95668934240365	53	127
260.68965986394556	261.18888888888887	69	127
260.95668934240365	261.18888888888887	60	127
260.95668934240365	261.18888888888887	48	127
261.18888888888887	261.6532879818594	70	127
261.18888888888887	261.4326984126984	65	127
261.18888888888887	261.4326984126984	53	127
261.18888888888887	261.6532879818594	58	127
261.18888888888887	262.1525170068027	38	127
261.4326984126984	261.6532879818594	46	127
261.4326984126984	261.6532879818594	58	127
261.6532879818594	261.9087074829932	53	127
261.6532879818594	262.1525170068027	74	127
261.6532879818594	262.1525170068027	62	127
261.6532879818594	261.9087074829932	65	127
261.9087074829932	262.1525170068027	70	127
261.9087074829932	262.1525170068027	58	127
262.1525170068027	262.54725623582766	60	127
262.1525170068027	262.384716553288	67	127
262.1525170068027	262.384716553288	55	127
262.1525170068027	262.54725623582766	72	127
262.1525170068027	262.54725623582766	39	127
262.384716553288	262.6168934240363	51	127
262.384716553288	262.6168934240363	63	127
262.6168934240363	263.18580498866214	57	127
262.6168934240363	263.18580498866214	69	127
262.6168934240363	263.5805442176871	41	127
262.6168934240363	262.9187528344671	60	127
262.6168934240363	262.9187528344671	48	127
262.9187528344671	263.18580498866214	53	127
262.9187528344671	263.18580498866214	65	127
263.18580498866214	263.4760544217687	57	127
263.18580498866214	263.6153741496599	65	127
263.18580498866214	263.6153741496599	53	127
263.18580498866214	263.4760544217687	45	127
263.4760544217687	263.71986394557825	53	127
263.4760544217687	263.71986394557825	65	127
263.71986394557825	264.86925170068025	65	127
263.71986394557825	264.0101133786848	69	127
263.71986394557825	264.0101133786848	57	127
263.71986394557825	264.2655328798186	41	127
263.71986394557825	264.86925170068025	77	127
264.0101133786848	264.2655328798186	53	127
264.0101133786848	264.2655328798186	65	127
264.2655328798186	264.5790022675737	58	127
264.2655328798186	265.4381405895692	43	127
264.2655328798186	264.5790022675737	70	127
264.5790022675737	264.86925170068025	53	127
264.5790022675737	264.86925170068025	65	127
264.86925170068025	265.4381405895692	63	127
264.86925170068025	265.13628117913834	70	127
264.86925170068025	265.13628117913834	58	127
264.86925170068025	265.4381405895692	75	127
265.13628117913834	265.4381405895692	65	127
265.13628117913834	265.4381405895692	53	127
265.4381405895692	265.9257596371882	45	127
265.4381405895692	265.6819274376417	72	127
265.4381405895692	265.6819274376417	60	127
265.4381405895692	265.9257596371882	77	127
265.4381405895692	265.9257596371882	65	127
265.6819274376417	265.98378684807255	53	127
265.6819274376417	265.98378684807255	65	127
265.99541950113377	266.22761904761904	70	127
265.99541950113377	266.22761904761904	58	127
265.99541950113377	266.5643083900227	75	127
265.99541950113377	266.5643083900227	63	127
265.99541950113377	267.1215873015873	46	127
266.22761904761904	266.5643083900227	65	127
266.22761904761904	266.5643083900227	53	127
266.5643083900227	267.0287074829932	74	127
266.5643083900227	266.8313378684807	70	127
266.5643083900227	266.8313378684807	58	127
266.5643083900227	267.0287074829932	62	127
266.8313378684807	267.1215873015873	65	127
266.8313378684807	267.1215873015873	53	127
267.1215873015873	267.8414058956916	61	127
267.1215873015873	267.8414058956916	73	127
267.1215873015873	267.3421768707483	70	127
267.1215873015873	267.3421768707483	58	127
267.1215873015873	267.5975963718821	42	127
267.3421768707483	267.5975963718821	54	127
267.3421768707483	267.5975963718821	66	127
267.5975963718821	267.8414058956916	70	127
267.5975963718821	267.8414058956916	58	127
267.5975963718821	268.74696145124716	39	127
267.8414058956916	267.95750566893423	75	127
267.8414058956916	267.95750566893423	63	127
267.8414058956916	268.1316326530612	66	127
267.8414058956916	268.1316326530612	54	127
267.95750566893423	268.1316326530612	73	127
267.95750566893423	268.1316326530612	61	127
268.1316326530612	268.5031746031746	60	127
268.1316326530612	268.74696145124716	72	127
268.1316326530612	268.74696145124716	60	127
268.1316326530612	268.5031746031746	72	127
268.5031746031746	268.74696145124716	66	127
268.5031746031746	268.74696145124716	54	127
268.74696145124716	269.0604535147392	55	127
268.74696145124716	269.0604535147392	67	127
268.74696145124716	269.1997732426304	70	127
268.74696145124716	269.1997732426304	58	127
268.74696145124716	269.1997732426304	40	127
269.0604535147392	269.26943310657595	49	127
269.0604535147392	269.26943310657595	61	127
269.26943310657595	269.5016326530612	53	127
269.26943310657595	270.43043083900227	57	127
269.26943310657595	269.5016326530612	65	127
269.26943310657595	270.7787301587302	41	127
269.26943310657595	270.43043083900227	69	127
269.5016326530612	269.7802721088435	60	127
269.5016326530612	269.7802721088435	48	127
269.7802721088435	270.15179138322	53	127
269.7802721088435	270.15179138322	65	127
270.15179138322	270.43043083900227	60	127
270.15179138322	270.43043083900227	48	127
270.43043083900227	270.66263038548755	45	127
270.43043083900227	270.81356009070294	60	127
270.43043083900227	270.66263038548755	57	127
270.43043083900227	270.81356009070294	72	127
270.66263038548755	270.9180498866213	60	127
270.66263038548755	270.9180498866213	48	127
270.9180498866213	271.3708390022676	65	127
270.9180498866213	271.7307482993197	41	127
270.9180498866213	271.1386394557823	65	127
270.9180498866213	271.1386394557823	53	127
270.9180498866213	271.3708390022676	57	127
271.1502494331066	271.5914285714286	65	127
271.1502494331066	271.5914285714286	53	127
271.3708390022676	271.8584580498866	67	127
271.3708390022676	271.8584580498866	58	127
271.60301587301586	272.28802721088437	53	127
271.60301587301586	272.28802721088437	65	127
271.8584580498866	272.4621768707483	39	127
271.8584580498866	272.4621768707483	69	127
271.8584580498866	272.4621768707483	60	127
272.29963718820864	272.8220861678005	65	127
272.29963718820864	272.8220861678005	53	127
272.5318140589569	273.11233560090704	37	127
272.5318140589569	273.11233560090704	70	127
272.5318140589569	273.11233560090704	61	127
272.83367346938775	273.4025850340136	53	127
272.83367346938775	273.4025850340136	65	127
273.11233560090704	273.6579818594104	65	127
273.11233560090704	273.6579818594104	49	127
273.11233560090704	273.6579818594104	65	127
273.4141950113379	273.8669841269841	53	127
273.4141950113379	273.8669841269841	65	127
273.6579818594104	274.20367346938775	69	127
273.6579818594104	274.20367346938775	72	127
273.6579818594104	274.20367346938775	48	127
273.8785941043084	274.51714285714286	65	127
273.8785941043084	274.51714285714286	53	127
274.27331065759637	274.65646258503403	70	127
274.27331065759637	275.759410430839	46	127
274.27331065759637	274.65646258503403	73	127
274.51714285714286	275.02798185941043	65	127
274.51714285714286	275.02798185941043	53	127
274.65646258503403	274.7261224489796	72	127
274.65646258503403	274.7261224489796	75	127
274.7261224489796	274.78414965986394	73	127
274.7261224489796	274.78414965986394	70	127
274.78414965986394	275.318231292517	72	127
274.78414965986394	275.318231292517	69	127
275.02798185941043	275.6317006802721	65	127
275.02798185941043	275.6317006802721	53	127
275.318231292517	275.7942176870748	70	127
275.318231292517	275.7942176870748	73	127
275.6317006802721	275.87551020408165	65	127
275.6317006802721	275.87551020408165	53	127
275.87551020408165	276.81591836734697	75	127
275.87551020408165	277.18743764172336	44	127
275.87551020408165	276.1076870748299	68	127
275.87551020408165	276.1076870748299	56	127
275.87551020408165	276.3515192743764	72	127
276.1076870748299	276.3515192743764	60	127
276.1076870748299	276.59532879818596	68	127
276.1076870748299	276.59532879818596	56	127
276.3515192743764	276.59532879818596	63	127
276.3515192743764	276.81591836734697	68	127
276.59532879818596	277.0713378684807	68	127
276.59532879818596	276.81591836734697	60	127
276.59532879818596	277.0713378684807	56	127
276.81591836734697	277.0713378684807	56	127
276.81591836734697	277.23385487528344	68	127
276.81591836734697	277.23385487528344	60	127
277.0713378684807	277.55895691609976	68	127
277.0713378684807	277.55895691609976	56	127
277.0713378684807	277.349977324263	51	127
277.349977324263	277.87242630385487	68	127
277.349977324263	278.73156462585035	44	127
277.349977324263	277.55895691609976	48	127
277.349977324263	277.87242630385487	60	127
277.57056689342403	278.5225850340136	56	127
277.57056689342403	278.5225850340136	68	127
277.57056689342403	278.5225850340136	56	127
277.87242630385487	278.73156462585035	70	127
277.87242630385487	278.73156462585035	61	127
278.5225850340136	278.9405442176871	68	127
278.5225850340136	278.9405442176871	56	127
278.5225850340136	278.9405442176871	56	127
278.73156462585035	279.114693877551	72	127
278.73156462585035	279.114693877551	42	127
278.73156462585035	279.114693877551	63	127
278.95215419501136	279.17272108843537	56	127
278.95215419501136	279.41655328798186	56	127
278.95215419501136	279.41655328798186	68	127
279.1843537414966	279.6255328798186	73	127
279.1843537414966	279.6255328798186	41	127
279.1843537414966	279.6255328798186	65	127
279.41655328798186	279.95061224489797	68	127
279.41655328798186	279.95061224489797	56	127
279.41655328798186	279.6255328798186	56	127
279.6255328798186	280.1247619047619	68	127
279.6255328798186	279.95061224489797	61	127
279.6255328798186	280.1247619047619	68	127
279.6255328798186	280.2060317460317	53	127
279.95061224489797	280.5659410430839	68	127
279.95061224489797	280.2060317460317	56	127
279.95061224489797	280.5659410430839	56	127
280.2060317460317	280.7517006802721	61	127
280.2060317460317	280.7517006802721	73	127
280.2060317460317	280.7517006802721	49	127
280.2060317460317	280.58916099773245	53	127
280.58916099773245	280.82136054421767	68	127
280.58916099773245	280.82136054421767	49	127
280.58916099773245	280.82136054421767	56	127
280.82136054421767	281.23931972789114	78	127
280.82136054421767	282.3306575963719	46	127
280.82136054421767	281.08839002267575	70	127
280.82136054421767	281.08839002267575	61	127
280.82136054421767	281.08839002267575	46	127
280.82136054421767	281.23931972789114	66	127
281.1	281.5643990929705	61	127
281.1	281.5643990929705	70	127
281.1	281.5643990929705	49	127
281.23931972789114	281.2857596371882	80	127
281.23931972789114	281.2857596371882	68	127
281.2857596371882	281.3438095238095	78	127
281.2857596371882	281.3438095238095	66	127
281.3438095238095	281.8430385487528	77	127
281.3438095238095	281.8430385487528	65	127
281.5760090702948	282.202947845805	61	127
281.5760090702948	282.202947845805	70	127
281.5760090702948	282.202947845805	49	127
281.8430385487528	282.3770975056689	78	127
281.8430385487528	282.3770975056689	66	127
282.21455782312927	282.7602267573696	61	127
282.21455782312927	282.7602267573696	49	127
282.21455782312927	282.45836734693876	70	127
282.45836734693876	284.0605442176871	68	127
282.45836734693876	282.7602267573696	73	127
282.45836734693876	284.0605442176871	80	127
282.45836734693876	283.9560544217687	41	127
282.7602267573696	283.25943310657595	49	127
282.7602267573696	283.25943310657595	73	127
282.7602267573696	283.25943310657595	61	127
283.25943310657595	283.81673469387755	61	127
283.25943310657595	283.81673469387755	49	127
283.25943310657595	283.81673469387755	73	127
283.81673469387755	284.0605442176871	61	127
283.81673469387755	284.0605442176871	73	127
283.81673469387755	284.0605442176871	49	127
284.0605442176871	286.1967800453515	69	127
284.0605442176871	285.45374149659864	41	127
284.0605442176871	284.2811111111111	69	127
284.0605442176871	284.2811111111111	75	127
284.0605442176871	284.2811111111111	60	127
284.0605442176871	284.2811111111111	48	127
284.0605442176871	286.1967800453515	81	127
284.2811111111111	284.8732426303855	75	127
284.2811111111111	284.8732426303855	60	127
284.2811111111111	284.8732426303855	48	127
284.2811111111111	284.8732426303855	69	127
284.8732426303855	285.34925170068027	75	127
284.8732426303855	285.34925170068027	60	127
284.8732426303855	285.34925170068027	48	127
284.8732426303855	285.34925170068027	69	127
285.34925170068027	285.62789115646257	75	127
285.34925170068027	285.62789115646257	69	127
285.34925170068027	285.98780045351475	60	127
285.34925170068027	285.98780045351475	48	127
285.62789115646257	286.04585034013604	75	127
285.62789115646257	288.87868480725626	42	127
286.04585034013604	286.26643990929705	60	127
286.04585034013604	286.26643990929705	48	127
286.04585034013604	286.26643990929705	69	127
286.26643990929705	286.81210884353743	82	127
286.26643990929705	286.5566893424036	58	127
286.26643990929705	286.5566893424036	46	127
286.26643990929705	286.5682993197279	73	127
286.26643990929705	286.81210884353743	70	127
286.5682993197279	286.81210884353743	58	127
286.5682993197279	286.80049886621316	46	127
286.5682993197279	286.81210884353743	70	127
286.81210884353743	287.31133786848073	78	127
286.81210884353743	287.31133786848073	66	127
286.81210884353743	287.0907482993197	49	127
286.81210884353743	287.102358276644	73	127
286.81210884353743	287.0907482993197	61	127
287.102358276644	287.31133786848073	61	127
287.102358276644	287.29972789115646	66	127
287.102358276644	287.31133786848073	49	127
287.31133786848073	287.7409070294785	75	127
287.31133786848073	287.5203174603175	66	127
287.31133786848073	287.5203174603175	54	127
287.31133786848073	287.53192743764174	70	127
287.31133786848073	287.7409070294785	63	127
287.53192743764174	287.7409070294785	66	127
287.53192743764174	287.7409070294785	63	127
287.53192743764174	287.7409070294785	54	127
287.7409070294785	288.12403628117914	70	127
287.7409070294785	288.12403628117914	70	127
287.7409070294785	288.12403628117914	58	127
287.7409070294785	288.4142857142857	73	127
287.7409070294785	288.4142857142857	61	127
288.12403628117914	288.4142857142857	54	127
288.12403628117914	288.4142857142857	66	127
288.12403628117914	288.4142857142857	61	127
288.4142857142857	288.7393650793651	63	127
288.4142857142857	288.7393650793651	51	127
288.4142857142857	288.7393650793651	70	127
288.4142857142857	288.913514739229	60	127
288.4142857142857	288.913514739229	72	127
288.7393650793651	288.97156462585036	60	127
288.7393650793651	288.97156462585036	52	127
288.7393650793651	288.97156462585036	64	127
288.98315192743763	289.48240362811794	62	127
288.98315192743763	289.48240362811794	58	127
288.98315192743763	289.48240362811794	53	127
288.98315192743763	289.9235827664399	77	127
288.98315192743763	289.9235827664399	65	127
288.98315192743763	289.9235827664399	41	127
289.48240362811794	289.76104308390023	62	127
289.48240362811794	289.76104308390023	58	127
289.48240362811794	289.76104308390023	65	127
289.76104308390023	290.02807256235826	65	127
289.76104308390023	290.02807256235826	62	127
289.76104308390023	290.02807256235826	70	127
290.02807256235826	290.2718820861678	74	127
290.2718820861678	290.5621315192744	65	127
290.5621315192744	290.7711111111111	74	127
290.7711111111111	291.2239002267574	59	127
290.7711111111111	291.2239002267574	62	127
290.7711111111111	291.2239002267574	53	127
290.7711111111111	291.7231292517007	77	127
290.7711111111111	291.7231292517007	65	127
290.7711111111111	291.7231292517007	41	127
291.2239002267574	291.5025396825397	65	127
291.2239002267574	291.5025396825397	62	127
291.2239002267574	291.5025396825397	59	127
291.5025396825397	291.781179138322	65	127
291.5025396825397	291.781179138322	62	127
291.5025396825397	291.781179138322	71	127
291.79278911564626	292.001768707483	74	127
292.001768707483	292.2804081632653	65	127
292.29201814058956	292.48938775510203	74	127
292.48938775510203	293.24403628117915	65	127
292.48938775510203	293.24403628117915	41	127
292.48938775510203	292.7215873015873	77	127
292.48938775510203	292.74480725623584	63	127
292.48938775510203	292.74480725623584	60	127
292.48938775510203	292.74480725623584	53	127
292.74480725623584	292.96539682539685	75	127
292.74480725623584	292.96539682539685	65	127
292.74480725623584	292.96539682539685	63	127
292.74480725623584	292.96539682539685	60	127
292.96539682539685	293.3601360544218	63	127
292.96539682539685	293.3601360544218	72	127
292.96539682539685	293.3601360544218	69	127
292.96539682539685	293.3601360544218	65	127
293.39496598639454	293.6619954648526	75	127
293.6619954648526	293.87097505668936	77	127
293.87097505668936	294.09156462585037	75	127
294.09156462585037	294.3237641723356	65	127
294.3237641723356	294.5443537414966	75	127
294.5443537414966	294.7649433106576	81	127
294.7649433106576	295.0435827664399	75	127
295.0435827664399	295.3686621315193	69	127
295.3686621315193	295.6821315192744	75	127
295.6821315192744	298.0737868480726	75	127
295.6821315192744	298.0737868480726	84	127
296.13492063492066	296.59931972789116	56	127
296.13492063492066	296.59931972789116	68	127
296.13492063492066	296.59931972789116	41	127
296.59931972789116	297.4352380952381	57	127
296.59931972789116	297.4352380952381	69	127
296.59931972789116	297.4352380952381	42	127
297.4352380952381	297.9460770975057	58	127
297.4352380952381	297.9460770975057	70	127
297.4352380952381	297.9460770975057	43	127
298.0737868480726	298.4336961451247	74	127
298.0737868480726	298.4336961451247	82	127
298.50333333333333	298.8748752834467	70	127
298.50333333333333	298.8748752834467	70	127
298.95614512471656	301.0691609977324	80	127
298.95614512471656	301.0691609977324	68	127
298.95614512471656	301.0691609977324	77	127
299.4321541950113	300.05909297052153	49	127
299.4321541950113	300.05909297052153	46	127
299.4321541950113	300.05909297052153	61	127
300.05909297052153	300.59315192743765	50	127
300.05909297052153	300.59315192743765	47	127
300.05909297052153	300.59315192743765	62	127
300.59315192743765	301.4174603174603	63	127
300.59315192743765	301.4174603174603	51	127
300.59315192743765	301.4174603174603	48	127
301.0691609977324	301.49873015873015	75	127
301.0691609977324	301.49873015873015	79	127
301.0691609977324	301.49873015873015	67	127
301.6032199546485	302.2998185941043	70	127
301.6032199546485	302.2998185941043	52	127
301.6032199546485	302.2998185941043	49	127
301.6032199546485	302.90353741496597	80	127
301.6032199546485	302.2998185941043	37	127
301.6032199546485	302.90353741496597	68	127
301.6032199546485	302.2998185941043	64	127
302.2998185941043	303.2402267573696	38	127
302.2998185941043	303.2402267573696	53	127
302.2998185941043	303.2402267573696	50	127
302.2998185941043	303.2402267573696	65	127
302.2998185941043	303.2402267573696	70	127
302.90353741496597	303.2866666666667	67	127
302.90353741496597	303.2866666666667	79	127
303.565306122449	304.11097505668937	54	127
303.565306122449	304.11097505668937	38	127
303.565306122449	304.11097505668937	80	127
303.565306122449	304.11097505668937	66	127
303.565306122449	304.11097505668937	70	127
303.565306122449	304.11097505668937	68	127
303.565306122449	304.11097505668937	50	127
304.11097505668937	305.02816326530615	55	127
304.11097505668937	304.6450340136054	79	127
304.11097505668937	304.6450340136054	67	127
304.11097505668937	305.02816326530615	67	127
304.11097505668937	305.02816326530615	70	127
304.11097505668937	305.71315192743765	51	127
304.11097505668937	305.71315192743765	39	127
304.6450340136054	305.2951927437642	63	127
304.6450340136054	305.2951927437642	75	127
305.2951927437642	305.74798185941046	60	127
305.2951927437642	305.74798185941046	51	127
305.2951927437642	305.74798185941046	72	127
305.2951927437642	305.74798185941046	63	127
305.84086167800456	306.34009070294786	50	127
305.84086167800456	307.29208616780045	41	127
305.84086167800456	306.34009070294786	70	127
305.84086167800456	306.34009070294786	62	127
305.84086167800456	306.34009070294786	58	127
305.84086167800456	306.7348299319728	53	127
306.34009070294786	306.9089795918367	60	127
306.34009070294786	306.9089795918367	72	127
306.34009070294786	306.9089795918367	63	127
306.34009070294786	306.9089795918367	51	127
306.9089795918367	307.5939455782313	53	127
306.9089795918367	307.5939455782313	53	127
306.9089795918367	307.5939455782313	74	127
306.9089795918367	307.5939455782313	65	127
306.9089795918367	307.5939455782313	62	127
307.66362811791385	308.9871655328798	65	127
307.66362811791385	309.3586848072562	53	127
307.66362811791385	307.8958276643991	65	127
307.66362811791385	308.9871655328798	53	127
307.66362811791385	309.3586848072562	41	127
307.66362811791385	308.9871655328798	62	127
307.8958276643991	308.244126984127	62	127
308.244126984127	308.731746031746	58	127
308.731746031746	308.9871655328798	53	127
308.9871655328798	309.2425850340136	51	127
308.9871655328798	309.39351473922903	69	127
308.9871655328798	309.39351473922903	60	127
308.9871655328798	309.39351473922903	57	127
309.2425850340136	309.4631746031746	48	127
309.4631746031746	310.9492517006803	62	127
309.4631746031746	309.98562358276644	46	127
309.4631746031746	310.9492517006803	46	127
309.4631746031746	309.8230839002268	53	127
309.4631746031746	309.98562358276644	70	127
309.4631746031746	309.98562358276644	58	127
309.8230839002268	310.42680272108845	53	127
310.42680272108845	311.1814512471655	53	127
310.9492517006803	311.42526077097506	60	127
310.9492517006803	311.42526077097506	45	127
311.1814512471655	311.8548299319728	53	127
311.5761904761905	312.0870294784581	62	127
311.5761904761905	312.0870294784581	46	127
311.8548299319728	312.307619047619	53	127
312.0870294784581	312.6094557823129	65	127
312.0870294784581	312.6094557823129	50	127
312.307619047619	312.8648979591837	53	127
312.6094557823129	313.0390476190476	63	127
312.6094557823129	313.0390476190476	48	127
312.8648979591837	313.584716553288	53	127
313.2131746031746	313.851746031746	60	127
313.2131746031746	313.851746031746	45	127
313.584716553288	314.09555555555556	53	127
313.851746031746	314.37419501133786	63	127
313.851746031746	314.37419501133786	48	127
314.09555555555556	314.6180045351474	53	127
314.37419501133786	314.78054421768707	46	127
314.37419501133786	314.78054421768707	62	127
314.6180045351474	315.1520634920635	53	127
314.91986394557824	315.9067120181406	43	127
314.91986394557824	315.9067120181406	58	127
315.1520634920635	315.63968253968255	53	127
315.63968253968255	316.9283900226757	53	127
315.9067120181406	317.09092970521544	60	127
315.9067120181406	317.09092970521544	41	127
316.9283900226757	317.2186394557823	53	127
317.2186394557823	317.81074829931976	80	127
317.2186394557823	318.1358276643991	41	127
317.2186394557823	317.59015873015875	60	127
317.2186394557823	317.59015873015875	53	127
317.2186394557823	317.59015873015875	41	127
317.4392290249433	317.6598185941043	48	127
317.6598185941043	317.8804081632653	60	127
317.81074829931976	317.9732879818594	79	127
317.8804081632653	318.1358276643991	48	127
317.9732879818594	318.1358276643991	80	127
318.1358276643991	318.5189569160998	43	127
318.1358276643991	318.2983673469388	84	127
318.1358276643991	318.36802721088435	48	127
318.2983673469388	318.4492970521542	82	127
318.36802721088435	318.58861678004536	60	127
318.4492970521542	318.58861678004536	79	127
318.58861678004536	319.69156462585033	44	127
318.58861678004536	318.77437641723355	82	127
318.77437641723355	318.971746031746	80	127
318.8788662131519	319.1691156462585	48	127
318.971746031746	319.35485260770974	77	127
319.1691156462585	319.4245351473923	60	127
319.35485260770974	319.50580498866213	76	127
319.4245351473923	319.69156462585033	48	127
319.50580498866213	319.69156462585033	77	127
319.69156462585033	319.91215419501134	80	127
319.69156462585033	319.99342403628117	49	127
319.69156462585033	320.1559637188209	46	127
319.91215419501134	320.07467120181406	79	127
319.99342403628117	320.26045351473925	61	127
320.07467120181406	320.26045351473925	73	127
320.26045351473925	320.48102040816326	79	127
320.26045351473925	321.35179138321996	47	127
320.48102040816326	320.63197278911565	77	127
320.5507029478458	320.7712925170068	50	127
320.63197278911565	320.94544217687076	68	127
320.7712925170068	321.0267120181406	62	127
320.94544217687076	321.1079818594104	67	127
321.0267120181406	321.35179138321996	50	127
321.1079818594104	321.35179138321996	68	127
321.35179138321996	321.8278004535147	48	127
321.35179138321996	321.53755102040816	79	127
321.35179138321996	321.63043083900226	53	127
321.53755102040816	321.72331065759636	77	127
321.63043083900226	322.0948299319728	65	127
321.72331065759636	322.0948299319728	69	127
322.0948299319728	322.9075283446712	70	127
322.0948299319728	323.9524036281179	48	127
322.0948299319728	322.36185941043084	48	127
322.0948299319728	322.9075283446712	74	127
322.0948299319728	322.9075283446712	64	127
322.36185941043084	322.9771882086168	60	127
322.9771882086168	323.4067573696145	64	127
322.9771882086168	323.4067573696145	67	127
322.9771882086168	323.75503401360544	60	127
323.4067573696145	323.6853968253968	69	127
323.4067573696145	323.75503401360544	65	127
323.6853968253968	323.75503401360544	72	127
323.75503401360544	324.08013605442176	67	127
323.75503401360544	324.08013605442176	60	127
323.75503401360544	324.08013605442176	70	127
324.08013605442176	325.2991836734694	41	127
324.08013605442176	324.4748752834467	48	127
324.08013605442176	324.4748752834467	60	127
324.08013605442176	324.6374149659864	69	127
324.08013605442176	324.6374149659864	60	127
324.08013605442176	324.6374149659864	53	127
324.08013605442176	325.2991836734694	69	127
324.4748752834467	325.0785714285714	60	127
324.4748752834467	325.0785714285714	48	127
325.0785714285714	325.5778231292517	48	127
325.0785714285714	325.5778231292517	60	127
325.2991836734694	325.7287528344671	67	127
325.2991836734694	325.7287528344671	40	127
325.5778231292517	326.06544217687076	60	127
325.5778231292517	326.06544217687076	48	127
325.84485260770975	326.4021088435374	69	127
325.84485260770975	326.4021088435374	41	127
326.06544217687076	326.7272108843537	48	127
326.06544217687076	326.7272108843537	60	127
326.4021088435374	327.01743764172335	45	127
326.4021088435374	327.01743764172335	72	127
326.7272108843537	327.33090702947845	48	127
326.7272108843537	327.33090702947845	60	127
327.01743764172335	327.5050793650794	43	127
327.01743764172335	327.5050793650794	70	127
327.33090702947845	327.83015873015876	48	127
327.33090702947845	327.83015873015876	60	127
327.5979591836735	328.062358276644	40	127
327.5979591836735	328.062358276644	67	127
327.83015873015876	328.29455782312925	60	127
327.83015873015876	328.29455782312925	48	127
328.062358276644	328.57319727891155	70	127
328.062358276644	328.57319727891155	43	127
328.29455782312925	328.8170068027211	60	127
328.29455782312925	328.8170068027211	48	127
328.57319727891155	328.97954648526076	69	127
328.57319727891155	328.97954648526076	41	127
328.8170068027211	329.37426303854875	60	127
328.8170068027211	329.37426303854875	48	127
329.0492063492064	330.18696145124716	65	127
329.0492063492064	330.18696145124716	38	127
329.37426303854875	329.9431746031746	48	127
329.37426303854875	329.9431746031746	60	127
329.9431746031746	330.5701133786848	60	127
329.9431746031746	330.5701133786848	48	127
330.18696145124716	330.755873015873	67	127
330.18696145124716	330.755873015873	36	127
330.5701133786848	330.8951927437642	48	127
330.5701133786848	330.8951927437642	60	127
330.8951927437642	331.5453514739229	48	127
330.8951927437642	332.14907029478456	36	127
330.8951927437642	331.78916099773244	75	127
330.8951927437642	331.38281179138323	36	127
330.8951927437642	331.5453514739229	67	127
330.8951927437642	331.5453514739229	60	127
331.38281179138323	331.6265986394558	43	127
331.6265986394558	331.8936507936508	55	127
331.78916099773244	331.9865306122449	74	127
331.8936507936508	332.4277097505669	43	127
331.9865306122449	332.14907029478456	75	127
332.14907029478456	332.65990929705214	38	127
332.14907029478456	332.3580498866213	79	127
332.3580498866213	332.54378684807256	77	127
332.4277097505669	332.75278911564624	55	127
332.54378684807256	332.75278911564624	74	127
332.75278911564624	334.0879365079365	39	127
332.75278911564624	332.9965986394558	77	127
332.9965986394558	333.2055782312925	75	127
333.1243083900227	333.3448979591837	43	127
333.2055782312925	333.4958276643991	72	127
333.3448979591837	333.73963718820863	55	127
333.4958276643991	333.91378684807256	71	127
333.73963718820863	334.0879365079365	43	127
333.91378684807256	334.0879365079365	72	127
334.0879365079365	334.285283446712	75	127
334.0879365079365	334.5407256235828	41	127
334.0879365079365	334.3549659863946	44	127
334.285283446712	334.4478458049887	74	127
334.3549659863946	334.6219954648526	56	127
334.4478458049887	334.6219954648526	68	127
334.6219954648526	335.8410430839002	42	127
334.6219954648526	334.91224489795917	74	127
334.91224489795917	335.0747845804989	72	127
334.9819047619048	335.2257142857143	45	127
335.0747845804989	335.50433106575963	63	127
335.2257142857143	335.58562358276646	57	127
335.50433106575963	335.67850340136056	62	127
335.58562358276646	335.8410430839002	45	127
335.67850340136056	335.8410430839002	63	127
335.8410430839002	336.1080725623583	46	127
335.8410430839002	336.3518820861678	43	127
335.8410430839002	336.0384126984127	74	127
336.0384126984127	336.23578231292515	72	127
336.1080725623583	336.46798185941043	58	127
336.23578231292515	336.46798185941043	64	127
336.46798185941043	337.6173696145125	44	127
336.46798185941043	336.63049886621314	74	127
336.63049886621314	336.78145124716553	72	127
336.7001814058957	337.04848072562356	47	127
336.78145124716553	337.22263038548755	65	127
337.04848072562356	337.31551020408165	59	127
337.22263038548755	337.3967800453515	64	127
337.31551020408165	337.6173696145125	47	127
337.3967800453515	337.6173696145125	65	127
337.6173696145125	338.1049886621315	45	127
337.6173696145125	337.8263492063492	74	127
337.6173696145125	337.9192290249433	48	127
337.8263492063492	338.03532879818596	72	127
337.9192290249433	338.22108843537416	60	127
338.03532879818596	338.22108843537416	66	127
338.22108843537416	338.84802721088437	46	127
338.22108843537416	338.3952380952381	74	127
338.22108843537416	338.49972789115645	48	127
338.3952380952381	338.6506575963719	72	127
338.49972789115645	339.1963265306122	60	127
338.6506575963719	338.84802721088437	67	127
338.84802721088437	339.5910430839002	47	127
338.84802721088437	339.09183673469386	74	127
339.09183673469386	339.2775963718821	72	127
339.1963265306122	339.81165532879817	60	127
339.2775963718821	339.81165532879817	68	127
339.5910430839002	339.9974149659864	48	127
339.81165532879817	340.39215419501136	60	127
339.81165532879817	340.1018820861678	69	127
340.11349206349206	340.4037641723356	68	127
340.11349206349206	340.61272108843536	47	127
340.4037641723356	340.8333333333333	60	127
340.4037641723356	340.6011337868481	69	127
340.61272108843536	341.48349206349206	48	127
340.61272108843536	340.8333333333333	68	127
340.8333333333333	341.08875283446713	69	127
340.8333333333333	341.3441723356009	60	127
341.08875283446713	341.35578231292516	68	127
341.35578231292516	341.6343990929705	69	127
341.35578231292516	341.6343990929705	60	127
341.6343990929705	343.8170975056689	69	127
341.6343990929705	343.8170975056689	49	127
341.6343990929705	343.8170975056689	57	127
341.6343990929705	343.49201814058955	61	127
341.6343990929705	343.8170975056689	61	127
343.8170975056689	344.20020408163265	50	127
343.8170975056689	344.20020408163265	71	127
343.8170975056689	344.20020408163265	62	127
343.8170975056689	344.20020408163265	59	127
344.20020408163265	344.62979591836734	52	127
344.20020408163265	344.62979591836734	61	127
344.20020408163265	344.62979591836734	73	127
344.20020408163265	344.62979591836734	64	127
344.7110430839002	346.19714285714286	49	127
344.7110430839002	346.19714285714286	64	127
344.7110430839002	346.19714285714286	61	127
344.7110430839002	346.19714285714286	52	127
346.33646258503404	347.3117006802721	61	127
346.33646258503404	347.3117006802721	57	127
346.33646258503404	347.3117006802721	49	127
346.33646258503404	347.3117006802721	69	127
347.3117006802721	347.83414965986395	71	127
347.3117006802721	347.83414965986395	59	127
347.3117006802721	347.83414965986395	50	127
347.3117006802721	347.83414965986395	62	127
347.8457596371882	348.2172789115646	73	127
347.8457596371882	348.2172789115646	61	127
347.8457596371882	348.2172789115646	52	127
347.8457596371882	348.2172789115646	64	127
348.29854875283445	349.6104535147392	64	127
348.29854875283445	349.6104535147392	52	127
348.29854875283445	349.6104535147392	49	127
348.29854875283445	349.6104535147392	61	127
350.1212925170068	350.9572335600907	73	127
350.1212925170068	350.9572335600907	61	127
350.1212925170068	350.9572335600907	57	127
350.1212925170068	350.9572335600907	69	127
350.9572335600907	351.20104308390023	74	127
350.9572335600907	351.20104308390023	59	127
350.9572335600907	351.20104308390023	62	127
350.9572335600907	351.20104308390023	71	127
351.20104308390023	351.7467120181406	73	127
351.20104308390023	351.7467120181406	76	127
351.20104308390023	351.7467120181406	64	127
351.20104308390023	351.7467120181406	61	127
351.851201814059	354.0687074829932	77	127
351.851201814059	354.0687074829932	65	127
351.851201814059	352.4433106575964	57	127
351.851201814059	352.4433106575964	45	127
351.851201814059	352.98895691609977	74	127
351.851201814059	352.98895691609977	62	127
351.851201814059	353.4765986394558	50	127
351.851201814059	353.4765986394558	38	127
352.4433106575964	352.98895691609977	46	127
352.4433106575964	352.98895691609977	58	127
352.98895691609977	354.0687074829932	53	127
352.98895691609977	353.5694784580499	47	127
352.98895691609977	354.0687074829932	65	127
352.98895691609977	353.5694784580499	59	127
353.662358276644	355.05555555555554	36	127
353.662358276644	355.05555555555554	48	127
353.662358276644	355.05555555555554	48	127
353.662358276644	355.05555555555554	60	127
354.14997732426303	354.5331065759637	57	127
354.14997732426303	354.68403628117915	65	127
354.14997732426303	354.68403628117915	53	127
354.14997732426303	354.5331065759637	69	127
354.5331065759637	354.68403628117915	72	127
354.5331065759637	354.68403628117915	60	127
354.68403628117915	355.1019954648526	70	127
354.68403628117915	355.1019954648526	55	127
354.68403628117915	355.1019954648526	67	127
354.68403628117915	355.1019954648526	58	127
355.3806349206349	356.7041723356009	57	127
355.3806349206349	355.91469387755103	60	127
355.3806349206349	355.91469387755103	48	127
355.3806349206349	356.7041723356009	69	127
355.3806349206349	356.7041723356009	65	127
355.3806349206349	356.7041723356009	53	127
355.3806349206349	356.7041723356009	53	127
355.3806349206349	356.7041723356009	41	127
355.91469387755103	356.3790929705215	50	127
355.91469387755103	356.3790929705215	62	127
356.3790929705215	356.7390022675737	63	127
356.3790929705215	356.7390022675737	51	127
356.8899319727891	357.3311111111111	64	127
356.8899319727891	357.3311111111111	40	127
356.8899319727891	357.6445804988662	73	127
356.8899319727891	357.6445804988662	81	127
356.8899319727891	357.6445804988662	57	127
356.8899319727891	357.6445804988662	49	127
356.8899319727891	357.3311111111111	52	127
357.6445804988662	357.98126984126986	83	127
357.6445804988662	357.98126984126986	59	127
357.6445804988662	357.98126984126986	50	127
357.6445804988662	357.98126984126986	74	127
357.98126984126986	358.6430385487528	85	127
357.98126984126986	358.6430385487528	61	127
357.98126984126986	358.6430385487528	52	127
357.98126984126986	358.6430385487528	76	127
358.71267573696144	359.9665759637188	76	127
358.71267573696144	359.9665759637188	52	127
358.71267573696144	359.9665759637188	49	127
358.71267573696144	359.9665759637188	73	127
360.1291156462585	361.06950113378684	81	127
360.1291156462585	361.06950113378684	49	127
360.1291156462585	361.06950113378684	57	127
360.1291156462585	361.06950113378684	73	127
361.06950113378684	361.3249433106576	50	127
361.06950113378684	361.3249433106576	83	127
361.06950113378684	361.3249433106576	74	127
361.06950113378684	361.3249433106576	59	127
361.33655328798187	361.84739229024945	76	127
361.33655328798187	361.84739229024945	61	127
361.33655328798187	361.84739229024945	52	127
361.33655328798187	361.84739229024945	85	127
361.917052154195	363.3334693877551	76	127
361.917052154195	363.3334693877551	52	127
361.917052154195	363.3334693877551	49	127
361.917052154195	363.3334693877551	73	127
363.51920634920634	364.20421768707484	85	127
363.51920634920634	364.20421768707484	61	127
363.51920634920634	364.20421768707484	57	127
363.51920634920634	364.20421768707484	69	127
364.20421768707484	364.4131972789116	86	127
364.20421768707484	364.4131972789116	62	127
364.20421768707484	364.4131972789116	59	127
364.20421768707484	364.4131972789116	71	127
364.4131972789116	364.8427437641723	88	127
364.4131972789116	364.8427437641723	64	127
364.4131972789116	364.8427437641723	61	127
364.4131972789116	364.8427437641723	73	127
364.9124263038549	366.4565532879819	57	127
364.9124263038549	366.4565532879819	90	127
364.9124263038549	366.11986394557823	38	127
364.9124263038549	366.4565532879819	66	127
364.9124263038549	366.4565532879819	62	127
364.9124263038549	366.11986394557823	45	127
364.9124263038549	366.4565532879819	69	127
364.9124263038549	366.4565532879819	69	127
364.9124263038549	365.14462585034016	45	127
365.14462585034016	365.36519274376417	50	127
365.36519274376417	365.84122448979593	54	127
365.84122448979593	366.11986394557823	57	127
366.11986394557823	366.51460317460317	50	127
366.11986394557823	366.32884353741497	62	127
366.32884353741497	366.5726530612245	66	127
366.6655328798186	368.2560997732426	69	127
366.6655328798186	367.60591836734693	85	127
366.6655328798186	367.60591836734693	69	127
366.6655328798186	367.60591836734693	61	127
366.6655328798186	367.60591836734693	57	127
366.6655328798186	368.2560997732426	45	127
367.60591836734693	367.93102040816325	59	127
367.60591836734693	367.93102040816325	86	127
367.60591836734693	367.93102040816325	71	127
367.60591836734693	367.93102040816325	62	127
367.93102040816325	368.29092970521543	88	127
367.93102040816325	368.29092970521543	61	127
367.93102040816325	368.29092970521543	64	127
367.93102040816325	368.29092970521543	73	127
368.360589569161	369.8350566893424	62	127
368.360589569161	369.50997732426305	45	127
368.360589569161	369.8350566893424	90	127
368.360589569161	369.8350566893424	69	127
368.360589569161	369.8350566893424	57	127
368.360589569161	369.8350566893424	66	127
368.360589569161	369.8350566893424	69	127
368.360589569161	368.74371882086166	45	127
368.360589569161	369.50997732426305	38	127
368.74371882086166	368.9991383219955	50	127
368.9991383219955	369.242925170068	54	127
369.242925170068	369.50997732426305	57	127
369.50997732426305	369.88149659863944	50	127
369.50997732426305	369.73056689342405	62	127
369.73056689342405	369.95115646258506	66	127
369.95115646258506	370.77544217687074	61	127
369.95115646258506	370.77544217687074	73	127
369.95115646258506	370.77544217687074	69	127
369.95115646258506	370.77544217687074	57	127
369.95115646258506	371.3907709750567	69	127
369.95115646258506	371.3907709750567	45	127
370.77544217687074	371.01927437641723	59	127
370.77544217687074	371.01927437641723	74	127
370.77544217687074	371.01927437641723	71	127
370.77544217687074	371.01927437641723	62	127
371.01927437641723	371.42562358276643	76	127
371.01927437641723	371.42562358276643	61	127
371.01927437641723	371.42562358276643	64	127
371.01927437641723	371.42562358276643	73	127
371.58816326530615	372.5634013605442	60	127
371.58816326530615	373.6431065759637	77	127
371.58816326530615	373.5618594104308	65	127
371.58816326530615	373.039410430839	45	127
371.58816326530615	371.91324263038547	48	127
371.58816326530615	372.5634013605442	72	127
371.91324263038547	372.157052154195	53	127
372.157052154195	372.42408163265304	57	127
372.42408163265304	372.71430839002267	60	127
372.71430839002267	373.6431065759637	65	127
372.71430839002267	372.9232879818594	65	127
372.71430839002267	373.6431065759637	53	127
372.9232879818594	373.14390022675735	69	127
373.1555102040816	373.41092970521544	72	127
373.1555102040816	374.6531972789116	46	127
373.41092970521544	373.6431065759637	73	127
373.6431065759637	373.8985487528345	74	127
373.6431065759637	374.2932879818594	74	127
373.6431065759637	374.2932879818594	66	127
373.6431065759637	374.2932879818594	62	127
373.6431065759637	374.2932879818594	54	127
373.8985487528345	374.2932879818594	69	127
374.2932879818594	374.68802721088434	55	127
374.2932879818594	374.68802721088434	58	127
374.2932879818594	374.5138775510204	70	127
374.2932879818594	374.68802721088434	70	127
374.2932879818594	374.68802721088434	67	127
374.5138775510204	374.75768707482996	62	127
374.75768707482996	376.4295238095238	48	127
374.75768707482996	375.9767346938776	57	127
374.75768707482996	376.4295238095238	72	127
374.75768707482996	376.4295238095238	60	127
374.75768707482996	375.9767346938776	69	127
374.75768707482996	375.9767346938776	65	127
375.9767346938776	376.4643537414966	55	127
375.9767346938776	376.4643537414966	64	127
375.9767346938776	376.4643537414966	67	127
376.568843537415	377.99687074829933	45	127
376.568843537415	377.99687074829933	69	127
376.568843537415	377.99687074829933	57	127
376.568843537415	377.30027210884356	73	127
376.568843537415	377.30027210884356	69	127
376.835873015873	377.0680725623583	69	127
377.0680725623583	377.30027210884356	81	127
377.30027210884356	377.62532879818593	80	127
377.30027210884356	377.62532879818593	74	127
377.30027210884356	377.62532879818593	71	127
377.62532879818593	378.0432879818594	76	127
377.62532879818593	377.8807709750567	79	127
377.62532879818593	378.0432879818594	73	127
377.8807709750567	378.1013605442177	76	127
378.11297052154197	379.482947845805	63	127
378.11297052154197	379.482947845805	72	127
378.11297052154197	378.40321995464853	75	127
378.11297052154197	379.482947845805	75	127
378.11297052154197	378.8792290249433	41	127
378.11297052154197	378.8792290249433	57	127
378.11297052154197	379.8312471655329	77	127
378.40321995464853	378.6470068027211	72	127
378.6470068027211	378.8792290249433	69	127
378.8792290249433	379.1346485260771	65	127
378.8792290249433	379.12303854875285	43	127
378.8792290249433	379.12303854875285	58	127
379.1346485260771	379.5177777777778	45	127
379.1346485260771	379.3552380952381	63	127
379.1346485260771	379.5177777777778	60	127
379.3552380952381	379.58743764172334	60	127
379.5990476190476	381.13156462585033	46	127
379.5990476190476	379.8312471655329	62	127
379.5990476190476	380.38850340136054	74	127
379.5990476190476	380.38850340136054	62	127
379.5990476190476	380.38850340136054	65	127
379.5990476190476	380.38850340136054	53	127
379.8312471655329	380.38850340136054	74	127
379.8312471655329	380.0982766439909	78	127
380.0982766439909	380.38850340136054	79	127
380.38850340136054	380.7252154195011	72	127
380.38850340136054	380.7252154195011	54	127
380.38850340136054	380.7252154195011	72	127
380.38850340136054	380.7252154195011	66	127
380.38850340136054	380.7252154195011	81	127
380.7252154195011	381.6424036281179	67	127
380.7252154195011	381.02707482993196	82	127
380.7252154195011	381.02707482993196	70	127
380.7252154195011	381.02707482993196	70	127
380.7252154195011	381.6424036281179	55	127
381.02707482993196	381.29410430839005	67	127
381.02707482993196	381.29410430839005	67	127
381.02707482993196	381.29410430839005	86	127
381.29410430839005	382.4551020408163	65	127
381.29410430839005	382.1532426303855	77	127
381.29410430839005	382.4551020408163	60	127
381.29410430839005	382.2693424036281	48	127
381.29410430839005	382.4551020408163	72	127
381.6424036281179	381.88621315192745	56	127
381.6424036281179	381.88621315192745	68	127
381.88621315192745	382.1532426303855	57	127
381.88621315192745	382.1532426303855	69	127
382.1532426303855	382.4551020408163	79	127
382.1532426303855	382.4551020408163	70	127
382.1532426303855	382.4551020408163	58	127
382.4551020408163	383.1517006802721	70	127
382.4551020408163	383.1517006802721	55	127
382.4551020408163	383.1517006802721	67	127
382.4551020408163	382.8150113378685	48	127
382.4551020408163	383.1517006802721	76	127
382.4551020408163	383.1517006802721	60	127
382.4551020408163	383.1517006802721	64	127
382.8150113378685	383.232970521542	57	127
383.232970521542	383.6277097505669	77	127
383.232970521542	383.92956916099774	57	127
383.232970521542	383.6277097505669	41	127
383.232970521542	383.6277097505669	69	127
383.39551020408163	383.5464399092971	48	127
383.39551020408163	383.5464399092971	60	127
383.5464399092971	383.69736961451247	57	127
383.5464399092971	383.69736961451247	69	127
383.69736961451247	383.92956916099774	60	127
383.69736961451247	383.92956916099774	72	127
383.92956916099774	384.1385487528345	48	127
383.92956916099774	384.1385487528345	60	127
384.06888888888886	384.28947845804987	48	127
384.1385487528345	384.28947845804987	69	127
384.1385487528345	384.28947845804987	57	127
384.28947845804987	384.5332879818594	72	127
384.28947845804987	384.5332879818594	57	127
384.28947845804987	384.5332879818594	60	127
384.5332879818594	384.7190476190476	60	127
384.7190476190476	385.38081632653063	60	127
384.7190476190476	385.05573696145126	40	127
384.8583673469388	384.9976870748299	48	127
384.8583673469388	384.9976870748299	60	127
384.9976870748299	385.1253968253968	67	127
384.9976870748299	385.1253968253968	55	127
385.1253968253968	385.311156462585	72	127
385.1253968253968	385.311156462585	60	127
385.311156462585	385.47369614512473	48	127
385.311156462585	385.47369614512473	60	127
385.38081632653063	385.6362358276644	58	127
385.47369614512473	385.6362358276644	55	127
385.47369614512473	385.6362358276644	67	127
385.6362358276644	385.84521541950113	60	127
385.6362358276644	385.84521541950113	72	127
385.6362358276644	386.01936507936506	55	127
386.11224489795916	386.4605442176871	41	127
386.11224489795916	386.73918367346937	60	127
386.25156462585034	386.3908843537415	60	127
386.25156462585034	386.3908843537415	48	127
386.3908843537415	386.5418140589569	69	127
386.3908843537415	386.5418140589569	57	127
386.5418140589569	386.73918367346937	72	127
386.5418140589569	386.73918367346937	60	127
386.73918367346937	386.91333333333336	60	127
386.73918367346937	386.91333333333336	48	127
386.808843537415	387.1107029478458	48	127
386.91333333333336	387.1107029478458	69	127
386.91333333333336	387.1107029478458	57	127
387.1107029478458	387.4590022675737	72	127
387.1107029478458	387.4590022675737	57	127
387.1107029478458	387.4590022675737	60	127
387.4590022675737	387.69120181405896	65	127
387.7028117913832	388.45746031746035	65	127
387.7028117913832	388.1672108843537	36	127
387.8537414965986	388.0743310657596	48	127
387.8537414965986	388.0743310657596	60	127
388.0743310657596	388.23687074829934	67	127
388.0743310657596	388.23687074829934	55	127
388.23687074829934	388.3878004535147	72	127
388.23687074829934	388.3878004535147	60	127
388.3878004535147	388.55034013605444	48	127
388.3878004535147	388.55034013605444	60	127
388.45746031746035	388.6780498866213	64	127
388.55034013605444	388.6780498866213	58	127
388.55034013605444	388.6780498866213	70	127
388.6780498866213	388.8986394557823	64	127
388.6780498866213	388.8986394557823	76	127
388.6780498866213	389.0379591836735	55	127
389.09600907029477	389.5952380952381	38	127
389.09600907029477	389.8042176870748	67	127
389.2585487528345	389.51396825396824	62	127
389.2585487528345	389.51396825396824	50	127
389.51396825396824	389.6648979591837	57	127
389.51396825396824	389.6648979591837	69	127
389.6648979591837	389.8042176870748	74	127
389.6648979591837	389.8042176870748	62	127
389.8042176870748	390.0248072562358	62	127
389.8042176870748	390.0248072562358	50	127
389.92031746031745	390.164126984127	57	127
390.0248072562358	390.164126984127	69	127
390.0248072562358	390.164126984127	57	127
390.164126984127	390.37310657596373	74	127
390.164126984127	390.384716553288	65	127
390.164126984127	390.37310657596373	62	127
390.384716553288	390.58208616780047	69	127
390.58208616780047	391.26707482993197	69	127
390.58208616780047	390.9419954648526	46	127
390.7214058956916	390.87233560090704	53	127
390.7214058956916	390.87233560090704	65	127
390.87233560090704	391.0232653061224	74	127
390.87233560090704	391.0232653061224	62	127
391.0232653061224	391.1974149659864	77	127
391.0232653061224	391.1974149659864	65	127
391.1974149659864	391.35995464852607	53	127
391.1974149659864	391.35995464852607	65	127
391.26707482993197	391.5108843537415	67	127
391.35995464852607	391.5108843537415	62	127
391.35995464852607	391.5108843537415	74	127
391.5108843537415	392.0449433106576	69	127
391.5108843537415	391.8243537414966	77	127
391.5108843537415	391.8243537414966	65	127
392.12621315192746	392.7995918367347	69	127
392.12621315192746	392.4861224489796	47	127
392.2655328798186	392.40485260770976	65	127
392.2655328798186	392.40485260770976	53	127
392.40485260770976	392.5790022675737	62	127
392.40485260770976	392.5790022675737	74	127
392.5790022675737	392.71832199546486	65	127
392.5790022675737	392.71832199546486	77	127
392.71832199546486	392.91569160997733	53	127
392.71832199546486	392.91569160997733	65	127
392.7995918367347	393.0550113378685	67	127
392.91569160997733	393.0666213151927	62	127
392.91569160997733	393.0666213151927	74	127
393.0666213151927	393.298820861678	67	127
393.0666213151927	393.298820861678	79	127
393.0666213151927	393.44975056689344	62	127
393.5774603174603	394.0534693877551	48	127
393.5774603174603	394.3088888888889	65	127
393.7516099773243	393.91414965986394	69	127
393.7516099773243	393.91414965986394	57	127
393.91414965986394	394.13473922902494	65	127
393.91414965986394	394.13473922902494	77	127
394.13473922902494	394.3088888888889	81	127
394.13473922902494	394.3088888888889	69	127
394.3088888888889	394.48303854875286	57	127
394.3088888888889	394.48303854875286	69	127
394.401768707483	394.6571882086168	57	127
394.48303854875286	394.6571882086168	60	127
394.48303854875286	394.6571882086168	72	127
394.6571882086168	394.9358276643991	57	127
394.6571882086168	394.9358276643991	77	127
394.6571882086168	394.9358276643991	65	127
394.9358276643991	395.27251700680273	58	127
395.27251700680273	395.6208163265306	36	127
395.27251700680273	395.8297959183673	58	127
395.4234467120181	395.5627664399093	67	127
395.4234467120181	395.5627664399093	55	127
395.5627664399093	395.6904761904762	64	127
395.5627664399093	395.6904761904762	76	127
395.6904761904762	395.8297959183673	67	127
395.6904761904762	395.8297959183673	79	127
395.8297959183673	395.98072562358277	55	127
395.8297959183673	395.98072562358277	67	127
395.89945578231294	396.12004535147395	55	127
395.98072562358277	396.12004535147395	70	127
395.98072562358277	396.12004535147395	58	127
396.12004535147395	396.3754648526077	55	127
396.12004535147395	396.36385487528344	64	127
396.12004535147395	396.3754648526077	72	127
396.12004535147395	396.3754648526077	60	127
396.12004535147395	396.36385487528344	76	127
396.3754648526077	396.7237641723356	60	127
396.3754648526077	396.7237641723356	69	127
396.3754648526077	396.7237641723356	81	127
396.7237641723356	397.2926530612245	69	127
396.7237641723356	398.43043083900227	60	127
396.7237641723356	397.08367346938775	41	127
396.7237641723356	397.2926530612245	81	127
396.874693877551	397.0140136054422	48	127
396.874693877551	397.0140136054422	60	127
397.0140136054422	397.1533333333333	69	127
397.0140136054422	397.1533333333333	57	127
397.1533333333333	397.2926530612245	72	127
397.1533333333333	397.2926530612245	60	127
397.2926530612245	397.44358276643993	48	127
397.2926530612245	397.44358276643993	60	127
397.3739229024943	397.6409523809524	72	127
397.3739229024943	397.6409523809524	60	127
397.44358276643993	397.6409523809524	57	127
397.44358276643993	397.6409523809524	69	127
397.6409523809524	397.98925170068026	81	127
397.6409523809524	397.98925170068026	72	127
397.6409523809524	397.98925170068026	60	127
397.6409523809524	397.98925170068026	69	127
397.98925170068026	398.22145124716553	72	127
397.98925170068026	398.22145124716553	84	127
398.22145124716553	398.84839002267574	72	127
398.22145124716553	398.56975056689345	40	127
398.22145124716553	398.84839002267574	84	127
398.3607709750567	398.50009070294783	48	127
398.3607709750567	398.50009070294783	60	127
398.43043083900227	398.62780045351474	55	127
398.50009070294783	398.639410430839	55	127
398.50009070294783	398.639410430839	67	127
398.639410430839	398.84839002267574	55	127
398.639410430839	398.7671201814059	72	127
398.639410430839	398.7671201814059	60	127
398.7671201814059	398.9180498866213	60	127
398.7671201814059	398.9180498866213	48	127
398.84839002267574	399.1038095238095	70	127
398.84839002267574	399.1038095238095	82	127
398.84839002267574	399.1966893424036	60	127
398.9180498866213	399.20829931972787	55	127
398.9180498866213	399.20829931972787	67	127
399.20829931972787	399.4288888888889	60	127
399.20829931972787	401.3097052154195	60	127
399.20829931972787	399.5798185941043	67	127
399.20829931972787	399.4288888888889	72	127
399.20829931972787	399.5798185941043	79	127
399.6494784580499	400.21836734693875	84	127
399.6494784580499	400.0209977324263	41	127
399.6494784580499	400.21836734693875	72	127
399.80040816326533	399.93972789115645	48	127
399.80040816326533	399.93972789115645	60	127
399.93972789115645	400.0906575963719	69	127
399.93972789115645	400.0906575963719	57	127
400.0906575963719	400.21836734693875	72	127
400.0906575963719	400.21836734693875	60	127
400.21836734693875	400.404126984127	60	127
400.21836734693875	400.404126984127	48	127
400.29963718820864	400.57827664399093	60	127
400.29963718820864	400.57827664399093	72	127
400.404126984127	400.57827664399093	69	127
400.404126984127	400.57827664399093	57	127
400.57827664399093	400.88013605442177	60	127
400.57827664399093	400.88013605442177	69	127
400.57827664399093	400.88013605442177	72	127
400.57827664399093	400.88013605442177	81	127
400.88013605442177	401.1007256235828	77	127
400.88013605442177	401.1007256235828	89	127
401.1007256235828	401.79732426303855	89	127
401.1007256235828	401.79732426303855	77	127
401.1007256235828	401.51868480725625	36	127
401.2400453514739	401.39097505668934	48	127
401.2400453514739	401.39097505668934	60	127
401.3213151927438	401.5883446712018	55	127
401.39097505668934	401.5883446712018	67	127
401.39097505668934	401.5883446712018	55	127
401.5883446712018	401.727664399093	72	127
401.5883446712018	401.79732426303855	55	127
401.5883446712018	401.727664399093	60	127
401.727664399093	401.8669841269841	48	127
401.727664399093	401.8669841269841	60	127
401.79732426303855	402.0411337868481	60	127
401.79732426303855	401.89020408163265	88	127
401.79732426303855	401.89020408163265	76	127
401.8669841269841	402.0411337868481	70	127
401.8669841269841	402.0411337868481	58	127
402.0411337868481	402.26172335600904	76	127
402.0411337868481	402.26172335600904	64	127
402.0411337868481	402.2733333333333	58	127
402.0411337868481	402.42426303854876	79	127
402.0411337868481	402.42426303854876	67	127
402.2733333333333	402.5403628117914	64	127
402.5403628117914	403.14408163265307	91	127
402.5403628117914	403.14408163265307	79	127
402.5403628117914	402.93510204081633	38	127
402.5403628117914	402.93510204081633	64	127
402.6680725623583	402.83061224489796	62	127
402.6680725623583	402.83061224489796	50	127
402.83061224489796	403.0047619047619	69	127
402.83061224489796	403.0047619047619	57	127
403.0047619047619	403.14408163265307	62	127
403.0047619047619	403.46916099773244	62	127
403.0047619047619	403.14408163265307	74	127
403.14408163265307	403.29501133786846	50	127
403.14408163265307	403.29501133786846	62	127
403.23696145124717	403.538820861678	81	127
403.23696145124717	403.538820861678	69	127
403.29501133786846	403.538820861678	57	127
403.29501133786846	403.538820861678	69	127
403.538820861678	403.84068027210884	62	127
403.538820861678	403.9916099773243	57	127
403.538820861678	403.84068027210884	77	127
403.538820861678	403.84068027210884	74	127
403.538820861678	403.84068027210884	89	127
403.84068027210884	404.0728798185941	81	127
403.84068027210884	404.0728798185941	93	127
404.0728798185941	404.5372789115646	46	127
404.0728798185941	404.9204081632653	81	127
404.0728798185941	404.9204081632653	93	127
404.0728798185941	404.5372789115646	62	127
404.2934693877551	404.4560090702948	65	127
404.2934693877551	404.4560090702948	53	127
404.4560090702948	404.6301587301587	74	127
404.4560090702948	404.6301587301587	62	127
404.6301587301587	405.05972789115646	64	127
404.6301587301587	404.8507482993197	77	127
404.6301587301587	404.8507482993197	65	127
404.8507482993197	404.9900680272109	65	127
404.8507482993197	404.9900680272109	53	127
404.9204081632653	405.02489795918365	91	127
404.9204081632653	405.02489795918365	79	127
404.9900680272109	405.19904761904763	62	127
404.9900680272109	405.19904761904763	74	127
405.19904761904763	405.40802721088437	65	127
405.19904761904763	405.60539682539684	65	127
405.19904761904763	405.60539682539684	81	127
405.19904761904763	405.40802721088437	77	127
405.19904761904763	405.60539682539684	93	127
405.6750566893424	406.5806349206349	93	127
405.6750566893424	406.16267573696143	65	127
405.6750566893424	406.16267573696143	47	127
405.6750566893424	406.5806349206349	81	127
405.87242630385487	406.0814058956916	53	127
405.87242630385487	406.0814058956916	65	127
406.0814058956916	406.32521541950115	62	127
406.0814058956916	406.32521541950115	74	127
406.32521541950115	406.73156462585035	67	127
406.32521541950115	406.51097505668935	77	127
406.32521541950115	406.51097505668935	65	127
406.51097505668935	406.66190476190474	65	127
406.51097505668935	406.66190476190474	53	127
406.5806349206349	406.69673469387754	91	127
406.5806349206349	406.69673469387754	79	127
406.66190476190474	406.78961451247164	74	127
406.66190476190474	406.78961451247164	62	127
406.78961451247164	406.9985941043084	69	127
406.78961451247164	407.1495238095238	74	127
406.78961451247164	407.1495238095238	69	127
406.78961451247164	406.9985941043084	81	127
406.78961451247164	407.1495238095238	86	127
407.2191836734694	407.63714285714286	69	127
407.2191836734694	407.91578231292516	89	127
407.2191836734694	407.8461224489796	77	127
407.2191836734694	407.63714285714286	48	127
407.41655328798186	407.5790929705215	57	127
407.41655328798186	407.5790929705215	69	127
407.5790929705215	407.7068027210884	77	127
407.5790929705215	407.7068027210884	65	127
407.7068027210884	408.0667120181406	67	127
407.7068027210884	407.8461224489796	81	127
407.7068027210884	407.8461224489796	69	127
407.8461224489796	408.00866213151926	69	127
407.8461224489796	408.00866213151926	57	127
407.91578231292516	408.13637188208617	65	127
407.91578231292516	408.04349206349207	81	127
408.00866213151926	408.13637188208617	60	127
408.00866213151926	408.13637188208617	72	127
408.13637188208617	408.61238095238093	65	127
408.13637188208617	408.4034013605442	77	127
408.13637188208617	408.4034013605442	65	127
408.13637188208617	408.41501133786846	81	127
408.13637188208617	408.41501133786846	65	127
408.41501133786846	408.77492063492065	82	127
408.41501133786846	408.77492063492065	67	127
408.77492063492065	409.5063492063492	82	127
408.77492063492065	409.2044897959184	67	127
408.77492063492065	409.2044897959184	36	127
408.77492063492065	409.2044897959184	64	127
409.0071201814059	409.1348299319728	67	127
409.0071201814059	409.1348299319728	55	127
409.1348299319728	409.27414965986395	76	127
409.1348299319728	409.27414965986395	64	127
409.27414965986395	409.6572789115646	60	127
409.27414965986395	409.4366893424036	79	127
409.27414965986395	409.4366893424036	67	127
409.4366893424036	409.5643990929705	67	127
409.4366893424036	409.5643990929705	55	127
409.5063492063492	409.6224489795918	64	127
409.5063492063492	409.6224489795918	79	127
409.5643990929705	409.7501587301587	58	127
409.5643990929705	409.7501587301587	70	127
409.7501587301587	409.95913832199545	64	127
409.7501587301587	409.95913832199545	79	127
409.7501587301587	410.23777777777775	58	127
409.7501587301587	409.95913832199545	76	127
409.7501587301587	409.95913832199545	64	127
409.95913832199545	410.49319727891157	65	127
409.95913832199545	410.49319727891157	80	127
410.49319727891157	411.967664399093	47	127
410.49319727891157	410.8879365079365	56	127
410.49319727891157	411.967664399093	80	127
410.49319727891157	410.67895691609976	68	127
410.49319727891157	410.8879365079365	65	127
410.49319727891157	410.8879365079365	56	127
410.67895691609976	410.81827664399094	77	127
410.81827664399094	410.95759637188206	68	127
410.95759637188206	411.09691609977324	77	127
411.09691609977324	411.28267573696144	68	127
411.28267573696144	411.46843537414964	77	127
411.46843537414964	411.6774149659864	68	127
411.6774149659864	411.8283446712018	77	127
411.8283446712018	411.967664399093	68	127
411.967664399093	413.9065306122449	47	127
411.967664399093	413.34925170068027	80	127
411.967664399093	412.1185941043084	77	127
412.1185941043084	412.26952380952383	68	127
412.26952380952383	412.44367346938776	77	127
412.44367346938776	412.59460317460315	68	127
412.59460317460315	412.7339229024943	77	127
412.7339229024943	412.90807256235826	68	127
412.90807256235826	413.0590022675737	77	127
413.0590022675737	413.291201814059	68	127
413.291201814059	413.4769614512472	77	127
413.4769614512472	415.11396825396827	68	127
413.4769614512472	415.11396825396827	65	127
413.4769614512472	413.63950113378684	65	127
413.63950113378684	413.80204081632655	68	127
413.80204081632655	414.04585034013604	65	127
414.04585034013604	414.22	68	127
414.22	414.39414965986396	65	127
414.30126984126986	414.6031292517007	46	127
414.39414965986396	414.6031292517007	68	127
414.6031292517007	414.85854875283445	46	127
414.6031292517007	414.7772789115646	65	127
414.7772789115646	414.95142857142855	68	127
414.8701587301587	415.11396825396827	47	127
414.95142857142855	415.11396825396827	65	127
415.11396825396827	415.26489795918366	68	127
415.11396825396827	417.6797732426304	68	127
415.11396825396827	417.6797732426304	65	127
415.11396825396827	415.5203174603175	47	127
415.26489795918366	415.43904761904764	65	127
415.43904761904764	415.6364172335601	68	127
415.6364172335601	415.79895691609977	65	127
415.79895691609977	417.2269841269841	68	127
415.86861678004533	417.3663038548753	47	127
417.2269841269841	417.3663038548753	65	127
417.3663038548753	417.49401360544215	68	127
417.3663038548753	417.56367346938777	47	127
417.49401360544215	417.6449433106576	65	127
417.56367346938777	417.7726530612245	48	127
417.6449433106576	417.7726530612245	68	127
417.7842630385488	418.1441723356009	48	127
417.7842630385488	418.1441723356009	65	127
417.7842630385488	418.1441723356009	69	127
418.21383219954646	418.6434013605442	53	127
418.21383219954646	418.6434013605442	41	127
418.411201814059	418.63179138321993	60	127
418.411201814059	418.63179138321993	69	127
418.411201814059	418.63179138321993	65	127
418.6434013605442	419.42126984126986	48	127
418.6434013605442	418.85238095238094	69	127
418.6434013605442	418.85238095238094	65	127
418.6434013605442	418.85238095238094	60	127
418.6434013605442	419.42126984126986	36	127
418.85238095238094	419.07297052154195	48	127
418.85238095238094	419.07297052154195	70	127
418.85238095238094	419.07297052154195	67	127
419.0845804988662	419.42126984126986	48	127
419.0845804988662	419.42126984126986	70	127
419.0845804988662	419.42126984126986	67	127
419.5025396825397	419.93210884353743	43	127
419.5025396825397	419.93210884353743	55	127
419.7115192743764	419.93210884353743	67	127
419.7115192743764	419.93210884353743	70	127
419.7115192743764	419.93210884353743	60	127
419.93210884353743	420.8144671201814	48	127
419.93210884353743	420.1875283446712	70	127
419.93210884353743	420.1875283446712	67	127
419.93210884353743	420.1875283446712	60	127
419.93210884353743	420.8144671201814	36	127
420.1875283446712	420.4661678004535	48	127
420.1875283446712	420.4661678004535	72	127
420.1875283446712	420.4661678004535	69	127
420.4661678004535	420.8144671201814	48	127
420.4661678004535	420.8144671201814	72	127
420.4661678004535	420.8144671201814	69	127
420.9189569160998	421.3485260770975	57	127
420.9189569160998	421.3485260770975	45	127
421.1395464852608	421.24403628117915	72	127
421.1395464852608	421.24403628117915	69	127
421.1395464852608	421.3485260770975	60	127
421.3485260770975	421.6271655328798	72	127
421.3485260770975	422.56757369614513	36	127
421.3485260770975	422.56757369614513	48	127
421.3485260770975	421.6271655328798	60	127
421.3485260770975	421.77809523809526	69	127
421.6271655328798	421.8477551020408	48	127
421.6271655328798	421.8477551020408	77	127
421.8477551020408	423.24095238095236	70	127
421.8477551020408	422.64884353741496	77	127
421.8477551020408	422.64884353741496	69	127
422.64884353741496	423.24095238095236	76	127
422.64884353741496	423.24095238095236	67	127
422.64884353741496	423.24095238095236	48	127
422.64884353741496	423.24095238095236	60	127
423.24095238095236	423.7053514739229	64	127
423.24095238095236	424.32068027210886	36	127
423.24095238095236	424.32068027210886	48	127
423.24095238095236	423.7053514739229	70	127
423.24095238095236	423.7053514739229	60	127
423.7750113378685	424.32068027210886	69	127
423.7750113378685	424.32068027210886	65	127
423.9956009070295	424.3903401360544	65	127
423.9956009070295	424.3903401360544	53	127
424.4019501133787	424.6225396825397	65	127
424.4019501133787	424.6225396825397	53	127
424.6225396825397	424.83151927437643	65	127
424.6225396825397	424.83151927437643	60	127
424.6225396825397	424.83151927437643	48	127
424.6225396825397	424.83151927437643	69	127
424.6225396825397	424.83151927437643	41	127
424.6225396825397	424.83151927437643	53	127
424.8431292517007	425.05210884353744	53	127
424.8431292517007	425.05210884353744	69	127
424.8431292517007	425.05210884353744	65	127
424.8431292517007	425.05210884353744	41	127
424.8431292517007	425.2146485260771	60	127
424.8431292517007	425.2146485260771	48	127
425.05210884353744	425.28430839002266	67	127
425.05210884353744	425.28430839002266	48	127
425.05210884353744	425.28430839002266	36	127
425.05210884353744	425.28430839002266	70	127
425.2959183673469	425.69065759637186	70	127
425.2959183673469	425.69065759637186	36	127
425.2959183673469	425.69065759637186	48	127
425.2959183673469	425.69065759637186	67	127
425.5281179138322	425.7603174603175	67	127
425.5281179138322	425.7603174603175	55	127
425.7603174603175	426.0621768707483	67	127
425.7603174603175	426.0621768707483	55	127
426.0621768707483	426.3059863945578	60	127
426.0621768707483	426.3059863945578	55	127
426.0621768707483	426.3059863945578	43	127
426.0621768707483	426.20149659863944	70	127
426.0621768707483	426.20149659863944	67	127
426.0621768707483	426.3059863945578	48	127
426.3059863945578	426.54979591836735	55	127
426.3059863945578	426.712335600907	48	127
426.3059863945578	426.712335600907	60	127
426.3059863945578	426.54979591836735	70	127
426.3059863945578	426.54979591836735	67	127
426.3059863945578	426.54979591836735	43	127
426.54979591836735	426.8400453514739	36	127
426.54979591836735	426.8400453514739	72	127
426.54979591836735	426.8400453514739	69	127
426.54979591836735	426.8400453514739	48	127
426.8400453514739	427.3160544217687	69	127
426.8400453514739	427.3160544217687	36	127
426.8400453514739	427.3160544217687	48	127
426.8400453514739	427.3160544217687	72	127
427.1651247165533	427.42054421768705	69	127
427.1651247165533	427.42054421768705	57	127
427.42054421768705	427.67596371882087	69	127
427.42054421768705	427.67596371882087	57	127
427.67596371882087	427.9197732426304	60	127
427.67596371882087	427.9197732426304	57	127
427.67596371882087	427.9197732426304	45	127
427.67596371882087	427.8036734693878	72	127
427.67596371882087	427.8036734693878	69	127
427.67596371882087	427.9197732426304	48	127
427.9197732426304	428.210022675737	57	127
427.9197732426304	428.3493424036281	60	127
427.9197732426304	428.3493424036281	48	127
427.9197732426304	428.210022675737	72	127
427.9197732426304	428.210022675737	69	127
427.9197732426304	428.210022675737	45	127
428.210022675737	428.4886621315193	81	127
428.210022675737	428.4886621315193	36	127
428.210022675737	428.4886621315193	48	127
428.210022675737	428.4886621315193	72	127
428.4886621315193	429.0807709750567	81	127
428.4886621315193	429.0111111111111	48	127
428.4886621315193	429.0111111111111	36	127
428.4886621315193	429.53356009070296	72	127
428.8021315192744	429.0807709750567	58	127
428.8021315192744	429.0807709750567	70	127
429.0807709750567	429.2897505668934	58	127
429.0807709750567	429.2897505668934	70	127
429.0807709750567	429.53356009070296	79	127
429.2897505668934	429.5219501133787	58	127
429.2897505668934	429.5219501133787	60	127
429.2897505668934	429.5219501133787	48	127
429.2897505668934	429.5219501133787	46	127
429.53356009070296	429.9631292517007	60	127
429.53356009070296	429.9631292517007	64	127
429.53356009070296	429.9631292517007	48	127
429.53356009070296	429.7657596371882	58	127
429.53356009070296	429.7657596371882	46	127
429.53356009070296	429.9631292517007	72	127
429.7657596371882	430.0560090702948	36	127
429.7657596371882	430.0560090702948	48	127
430.0676190476191	430.98480725623585	64	127
430.0676190476191	430.6597278911565	81	127
430.0676190476191	430.6597278911565	48	127
430.0676190476191	430.8803174603175	72	127
430.0676190476191	430.98480725623585	70	127
430.0676190476191	430.5204081632653	36	127
430.3694784580499	430.6481179138322	60	127
430.6597278911565	431.10090702947844	52	127
430.6597278911565	431.10090702947844	79	127
430.6597278911565	430.8803174603175	60	127
430.8803174603175	431.0892970521542	48	127
430.8803174603175	431.0892970521542	74	127
430.8803174603175	431.0892970521542	46	127
431.10090702947844	431.4724263038549	64	127
431.10090702947844	431.4724263038549	55	127
431.10090702947844	431.4724263038549	48	127
431.10090702947844	431.3331065759637	46	127
431.10090702947844	431.4724263038549	72	127
431.10090702947844	431.4724263038549	67	127
431.3331065759637	431.5536961451247	36	127
431.5536961451247	432.4244444444444	72	127
431.5536961451247	432.08775510204083	36	127
431.5536961451247	432.1922448979592	57	127
431.9368253968254	432.1922448979592	57	127
432.1922448979592	432.4244444444444	57	127
432.1922448979592	432.6566439909297	60	127
432.4244444444444	432.6566439909297	77	127
432.4244444444444	432.6566439909297	45	127
432.4244444444444	432.6566439909297	48	127
432.6566439909297	433.0629931972789	72	127
432.6566439909297	433.0629931972789	57	127
432.6566439909297	433.0629931972789	48	127
432.6566439909297	432.9120634920635	45	127
432.9120634920635	433.21392290249435	36	127
433.21392290249435	433.84086167800456	58	127
433.21392290249435	433.7247619047619	36	127
433.21392290249435	434.0614512471655	72	127
433.4809523809524	433.84086167800456	55	127
433.84086167800456	434.2936507936508	64	127
433.84086167800456	434.0614512471655	55	127
434.0614512471655	434.1659410430839	74	127
434.0614512471655	434.2936507936508	43	127
434.0614512471655	434.2936507936508	48	127
434.2936507936508	434.7	72	127
434.2936507936508	434.7	58	127
434.2936507936508	434.7	48	127
434.2936507936508	434.53746031746033	43	127
434.53746031746033	434.8741496598639	36	127
434.8741496598639	435.40820861678003	36	127
434.8741496598639	435.47786848072565	57	127
434.8741496598639	435.6984580498866	72	127
435.21083900226756	435.4662585034014	54	127
435.47786848072565	435.9190476190476	63	127
435.47786848072565	435.6984580498866	54	127
435.6984580498866	435.90743764172333	48	127
435.6984580498866	435.81455782312923	81	127
435.6984580498866	435.90743764172333	42	127
435.9190476190476	436.38344671201816	48	127
435.9190476190476	436.38344671201816	57	127
435.9190476190476	436.1396371882086	42	127
435.9190476190476	436.38344671201816	72	127
436.1396371882086	436.464716553288	36	127
436.47632653061225	436.9871655328798	58	127
436.47632653061225	436.90589569161	36	127
436.47632653061225	437.2774149659864	72	127
436.70852607709753	436.97555555555556	55	127
436.9871655328798	437.4980045351474	64	127
436.9871655328798	437.2774149659864	55	127
437.2774149659864	437.38190476190476	74	127
437.2774149659864	437.48639455782313	43	127
437.2774149659864	437.48639455782313	48	127
437.4980045351474	437.88113378684807	72	127
437.4980045351474	437.88113378684807	58	127
437.4980045351474	437.88113378684807	48	127
437.4980045351474	437.69537414965987	43	127
437.69537414965987	437.9972335600907	36	127
437.9972335600907	438.48485260770974	59	127
437.9972335600907	438.4151927437642	36	127
437.9972335600907	438.9492517006803	73	127
438.25265306122446	438.48485260770974	56	127
438.48485260770974	438.9492517006803	56	127
438.48485260770974	439.2627210884354	65	127
438.9492517006803	439.2627210884354	48	127
438.9492517006803	439.1350113378685	74	127
438.9492517006803	439.2627210884354	44	127
439.2627210884354	439.65746031746033	48	127
439.2627210884354	439.65746031746033	59	127
439.2627210884354	439.5065306122449	44	127
439.2627210884354	439.65746031746033	77	127
439.5065306122449	439.773560090703	36	127
439.773560090703	440.24956916099774	67	127
439.773560090703	440.1799092970522	36	127
439.773560090703	440.51659863945576	75	127
440.02897959183673	440.24956916099774	55	127
440.24956916099774	440.7255782312925	58	127
440.24956916099774	440.51659863945576	55	127
440.51659863945576	440.62108843537413	76	127
440.51659863945576	440.7255782312925	43	127
440.51659863945576	440.7255782312925	48	127
440.7255782312925	441.1667573696145	81	127
440.7255782312925	441.1667573696145	64	127
440.7255782312925	441.1667573696145	48	127
440.7255782312925	440.96938775510205	43	127
440.96938775510205	441.24802721088435	36	127
441.24802721088435	441.84013605442175	36	127
441.24802721088435	441.90979591836737	55	127
441.24802721088435	442.18843537414966	78	127
441.6775963718821	441.8981859410431	58	127
441.90979591836737	442.18843537414966	58	127
441.90979591836737	442.4322448979592	60	127
442.18843537414966	442.32775510204084	79	127
442.18843537414966	442.42063492063494	46	127
442.18843537414966	442.42063492063494	48	127
442.4322448979592	442.79215419501134	52	127
442.4322448979592	442.64122448979595	46	127
442.4322448979592	442.79215419501134	84	127
442.4322448979592	442.79215419501134	48	127
442.64122448979595	442.8385941043084	36	127
442.8502040816326	443.51197278911565	48	127
442.8502040816326	443.51197278911565	36	127
443.0824036281179	443.29138321995464	84	127
443.3029931972789	443.51197278911565	84	127
443.51197278911565	443.76739229024946	72	127
443.51197278911565	443.76739229024946	50	127
443.51197278911565	443.76739229024946	38	127
443.51197278911565	443.76739229024946	70	127
443.7790022675737	443.9995918367347	70	127
443.7790022675737	444.1621315192744	36	127
443.7790022675737	444.1621315192744	48	127
443.7790022675737	444.1621315192744	72	127
443.9995918367347	444.26662131519276	60	127
444.26662131519276	445.0677097505669	36	127
444.26662131519276	445.0677097505669	48	127
444.26662131519276	444.7542403628118	60	127
444.5917006802721	444.82390022675736	84	127
444.8471201814059	445.0677097505669	84	127
445.0677097505669	445.2999092970522	72	127
445.0677097505669	445.2999092970522	53	127
445.0677097505669	445.2999092970522	41	127
445.0677097505669	445.2999092970522	69	127
445.2999092970522	445.52049886621313	69	127
445.2999092970522	445.68303854875285	36	127
445.2999092970522	445.68303854875285	48	127
445.2999092970522	445.68303854875285	72	127
445.52049886621313	445.74108843537414	60	127
445.7643083900227	446.49573696145126	48	127
445.7643083900227	446.49573696145126	36	127
445.7643083900227	446.1706575963719	60	127
446.01972789115644	446.2519274376417	84	127
446.2519274376417	446.49573696145126	84	127
446.49573696145126	446.8440362811791	67	127
446.49573696145126	446.8440362811791	50	127
446.49573696145126	446.8440362811791	38	127
446.49573696145126	446.8440362811791	72	127
446.8440362811791	447.2503854875283	67	127
446.8440362811791	447.41292517006804	36	127
446.8440362811791	447.41292517006804	48	127
446.8440362811791	447.41292517006804	72	127
447.2503854875283	447.50580498866213	60	127
447.5174149659864	448.22562358276645	36	127
447.5174149659864	448.22562358276645	48	127
447.5174149659864	447.94698412698415	60	127
447.78444444444443	448.00503401360544	84	127
448.0166439909297	448.22562358276645	84	127
448.22562358276645	448.4578231292517	72	127
448.22562358276645	448.4578231292517	57	127
448.22562358276645	448.4578231292517	45	127
448.22562358276645	448.4578231292517	66	127
448.469433106576	448.8641723356009	72	127
448.469433106576	448.8641723356009	36	127
448.469433106576	448.8641723356009	48	127
448.469433106576	448.736462585034	66	127
448.736462585034	448.9222222222222	60	127
448.9222222222222	449.67687074829934	48	127
448.9222222222222	449.3053514739229	60	127
448.9222222222222	449.67687074829934	36	127
449.1428117913832	449.3750113378685	84	127
449.3750113378685	449.67687074829934	84	127
449.67687074829934	449.95551020408163	38	127
449.67687074829934	449.95551020408163	50	127
449.67687074829934	449.95551020408163	72	127
449.67687074829934	449.95551020408163	67	127
449.95551020408163	450.48956916099775	48	127
449.95551020408163	450.22253968253966	67	127
449.95551020408163	450.48956916099775	72	127
449.95551020408163	450.48956916099775	36	127
450.22253968253966	450.58244897959185	60	127
450.58244897959185	451.4764172335601	36	127
450.58244897959185	451.4764172335601	47	127
450.58244897959185	451.0700680272109	59	127
450.58244897959185	451.4764172335601	48	127
450.58244897959185	451.4764172335601	59	127
450.8726984126984	451.1977777777778	86	127
451.23260770975054	451.4764172335601	86	127
451.4764172335601	451.6970068027211	48	127
451.4764172335601	451.6970068027211	36	127
451.4764172335601	451.6970068027211	48	127
451.4764172335601	451.6970068027211	74	127
451.4764172335601	451.6970068027211	68	127
451.4764172335601	451.6970068027211	60	127
451.6970068027211	452.1381859410431	62	127
451.6970068027211	452.1381859410431	50	127
451.6970068027211	452.1381859410431	36	127
451.6970068027211	451.95242630385485	68	127
451.6970068027211	452.1381859410431	74	127
451.6970068027211	452.1381859410431	48	127
451.95242630385485	452.2310657596372	59	127
452.2310657596372	452.8812244897959	48	127
452.2310657596372	452.8812244897959	50	127
452.2310657596372	452.8812244897959	36	127
452.2310657596372	452.6025850340136	59	127
452.2310657596372	452.8812244897959	62	127
452.4516553287982	452.66063492063495	86	127
452.67224489795916	452.8812244897959	86	127
452.8812244897959	453.1018140589569	48	127
452.8812244897959	453.1018140589569	74	127
452.8812244897959	453.1018140589569	68	127
452.8812244897959	453.1018140589569	64	127
452.8812244897959	453.1018140589569	36	127
452.8812244897959	453.1018140589569	52	127
453.1018140589569	453.4268934240363	68	127
453.1018140589569	453.6126530612245	53	127
453.1018140589569	453.6126530612245	65	127
453.1018140589569	453.6126530612245	36	127
453.1018140589569	453.6126530612245	74	127
453.1018140589569	453.6126530612245	48	127
453.4268934240363	453.6823129251701	59	127
453.6823129251701	454.3673015873016	48	127
453.6823129251701	454.3673015873016	36	127
453.6823129251701	454.3673015873016	55	127
453.6823129251701	454.07705215419503	60	127
453.6823129251701	454.3673015873016	67	127
453.9261224489796	454.1467120181406	84	127
454.1467120181406	454.3673015873016	84	127
454.3673015873016	454.5995011337869	48	127
454.3673015873016	454.5995011337869	36	127
454.3673015873016	454.5995011337869	52	127
454.3673015873016	454.5995011337869	72	127
454.3673015873016	454.5995011337869	67	127
454.3673015873016	454.5995011337869	64	127
454.5995011337869	455.0987301587302	48	127
454.5995011337869	455.0987301587302	48	127
454.5995011337869	455.0987301587302	36	127
454.5995011337869	454.959410430839	67	127
454.5995011337869	455.0987301587302	72	127
454.5995011337869	455.0987301587302	60	127
454.959410430839	455.15678004535147	60	127
455.16839002267574	456.38743764172335	48	127
455.16839002267574	455.5979591836735	36	127
455.16839002267574	455.44702947845803	60	127
455.16839002267574	456.282947845805	69	127
455.34253968253967	456.282947845805	77	127
455.44702947845803	455.7721088435374	84	127
455.7721088435374	456.282947845805	84	127
456.282947845805	456.503537414966	72	127
456.282947845805	456.503537414966	69	127
456.282947845805	456.503537414966	48	127
456.503537414966	457.02598639455783	72	127
456.503537414966	457.02598639455783	48	127
456.503537414966	456.770566893424	48	127
456.770566893424	457.0956462585034	36	127
457.0956462585034	457.79224489795916	55	127
457.0956462585034	457.46716553287985	36	127
457.32784580498867	457.56004535147395	72	127
457.57165532879816	457.79224489795916	72	127
457.79224489795916	458.0128344671202	48	127
457.79224489795916	458.0128344671202	60	127
457.79224489795916	458.0128344671202	52	127
458.02444444444444	458.5468934240363	48	127
458.02444444444444	458.27986394557826	48	127
458.02444444444444	458.4424036281179	60	127
458.27986394557826	458.5004535147392	36	127
458.5468934240363	460.38126984126984	48	127
458.5468934240363	459.1390022675737	36	127
458.5468934240363	459.5337414965986	65	127
458.9184126984127	459.2202721088435	72	127
459.2202721088435	459.5337414965986	72	127
459.5337414965986	459.88204081632654	60	127
459.5337414965986	459.88204081632654	48	127
459.5337414965986	459.88204081632654	57	127
459.88204081632654	460.3116099773243	60	127
459.88204081632654	460.10263038548754	48	127
460.10263038548754	460.38126984126984	36	127
460.38126984126984	460.7760090702948	36	127
460.38126984126984	461.4261678004535	48	127
460.38126984126984	461.3100680272109	65	127
460.6134693877551	461.0198185941043	72	127
461.0314285714286	461.3100680272109	72	127
461.3100680272109	461.54226757369617	60	127
461.3100680272109	461.54226757369617	48	127
461.3100680272109	461.54226757369617	57	127
461.54226757369617	461.7512471655329	48	127
461.54226757369617	461.890566893424	60	127
461.7512471655329	461.94861678004537	36	127
461.94861678004537	462.947074829932	65	127
461.94861678004537	462.3897959183673	36	127
462.22725623582767	462.51750566893423	72	127
462.5291156462585	463.60884353741494	72	127
462.947074829932	463.17927437641725	57	127
462.947074829932	463.17927437641725	48	127
463.17927437641725	464.0268027210884	48	127
463.17927437641725	463.8178231292517	60	127
463.60884353741494	465.37356009070294	60	127
463.8178231292517	464.0268027210884	57	127
464.0268027210884	465.2574603174603	60	127
464.0268027210884	465.8031292517007	45	127
465.2574603174603	465.8031292517007	57	127
465.8031292517007	467.1034467120181	65	127
465.8031292517007	466.5577777777778	41	127
465.8031292517007	467.1034467120181	53	127
465.8031292517007	466.5577777777778	53	127
467.1034467120181	468.2063945578231	52	127
467.1034467120181	468.2063945578231	64	127
468.2063945578231	468.85655328798185	53	127
468.2063945578231	468.85655328798185	65	127
468.85655328798185	469.4254421768708	69	127
468.85655328798185	469.4254421768708	57	127
469.4254421768708	470.0407709750567	55	127
469.4254421768708	470.0407709750567	67	127
470.1104308390023	471.201768707483	51	127
470.1104308390023	471.201768707483	63	127
471.201768707483	471.8170975056689	62	127
471.201768707483	471.8170975056689	50	127
471.8170975056689	472.43242630385487	63	127
471.8170975056689	472.43242630385487	51	127
472.43242630385487	472.9897052154195	55	127
472.43242630385487	472.9897052154195	67	127
472.9897052154195	473.7211337868481	53	127
472.9897052154195	473.7211337868481	65	127
473.80240362811793	474.1855328798186	62	127
473.80240362811793	474.1855328798186	50	127
473.80240362811793	474.8473015873016	62	127
474.8473015873016	475.39297052154194	61	127
475.39297052154194	475.8573696145125	62	127
475.8573696145125	476.2521088435374	65	127
476.2521088435374	476.7165079365079	63	127
476.7165079365079	477.1344671201814	60	127
477.1344671201814	477.8891156462585	57	127
478.12131519274374	478.59732426303856	72	127
478.59732426303856	479.0268934240363	74	127
479.0268934240363	479.5261224489796	77	127
479.5261224489796	480.0601814058957	75	127
480.0601814058957	480.5013605442177	72	127
480.5013605442177	480.87287981859413	69	127
481.0354195011338	481.67396825396827	63	127
481.67396825396827	482.1964172335601	60	127
482.1964172335601	482.64920634920634	57	127
482.73047619047617	483.27614512471655	70	127
483.27614512471655	483.77537414965985	69	127
483.77537414965985	484.40231292517007	67	127
484.4719727891156	484.99442176870747	58	127
484.99442176870747	485.458820861678	57	127
485.458820861678	485.91160997732425	55	127
485.98126984126986	486.5153287981859	75	127
486.5153287981859	486.9681179138322	72	127
486.9681179138322	487.3744671201814	69	127
487.44412698412697	487.93174603174606	63	127
487.93174603174606	488.3845351473923	60	127
488.3845351473923	488.9185941043084	57	127
489.0114739229025	489.59197278911563	74	127
489.59197278911563	490.12603174603174	72	127
490.12603174603174	490.7065306122449	70	127
490.7761904761905	491.20575963718824	86	127
490.7761904761905	491.20575963718824	65	127
491.20575963718824	491.6353287981859	63	127
491.20575963718824	491.6353287981859	84	127
491.6353287981859	492.1809977324263	82	127
491.6353287981859	492.1809977324263	62	127
492.1809977324263	492.66861678004534	81	127
492.1809977324263	492.66861678004534	60	127
492.83115646258506	493.3768253968254	80	127
492.83115646258506	493.93410430839003	76	127
492.83115646258506	493.3768253968254	59	127
493.93410430839003	494.3636734693878	75	127
494.3636734693878	494.80485260770973	76	127
494.5726530612245	494.80485260770973	52	127
494.80485260770973	495.43179138321995	79	127
494.80485260770973	495.15315192743765	53	127
495.15315192743765	495.43179138321995	69	127
495.15315192743765	495.43179138321995	62	127
495.43179138321995	495.8613605442177	77	127
495.43179138321995	495.7220408163265	65	127
495.43179138321995	495.7220408163265	74	127
495.7220408163265	495.93102040816325	81	127
495.7220408163265	495.93102040816325	62	127
495.93102040816325	496.4534693877551	74	127
495.93102040816325	496.360589569161	64	127
495.93102040816325	496.360589569161	71	127
495.93102040816325	496.360589569161	59	127
495.93102040816325	496.360589569161	80	127
496.4534693877551	496.8946485260771	71	127
497.19650793650794	497.66090702947844	62	127
497.66090702947844	498.13691609977326	64	127
497.904716553288	498.13691609977326	52	127
498.13691609977326	498.3342857142857	53	127
498.13691609977326	498.54326530612246	67	127
498.3342857142857	498.54326530612246	62	127
498.3342857142857	498.54326530612246	69	127
498.54326530612246	498.9380045351474	65	127
498.54326530612246	499.1702040816327	65	127
498.54326530612246	498.9380045351474	74	127
498.9380045351474	499.1585941043084	62	127
498.9380045351474	499.1585941043084	81	127
499.1702040816327	499.5765532879819	59	127
499.1702040816327	499.64621315192744	62	127
499.1702040816327	499.5765532879819	64	127
499.1702040816327	499.5765532879819	71	127
499.1702040816327	499.5765532879819	80	127
499.64621315192744	500.2499319727891	59	127
500.3195918367347	500.64467120181405	77	127
500.64467120181405	501.0626303854875	74	127
500.86526077097506	501.3412698412698	65	127
500.86526077097506	501.3412698412698	62	127
501.0626303854875	501.49219954648527	71	127
501.3528798185941	501.91015873015874	59	127
501.3528798185941	501.91015873015874	62	127
501.6547392290249	502.1655782312925	60	127
501.91015873015874	502.0262585034014	52	127
501.91015873015874	502.0262585034014	64	127
502.1655782312925	502.62997732426305	59	127
502.40938775510205	502.8970068027211	64	127
502.40938775510205	502.8970068027211	60	127
502.62997732426305	503.1175963718821	57	127
502.8970068027211	503.53555555555556	57	127
502.8970068027211	503.53555555555556	60	127
503.3265759637188	503.72131519274376	72	127
503.53555555555556	503.64004535147393	57	127
503.53555555555556	503.64004535147393	52	127
503.72131519274376	504.1624943310658	71	127
503.9302947845805	504.41791383219953	64	127
503.9302947845805	504.41791383219953	60	127
504.1624943310658	504.5572335600907	69	127
504.41791383219953	504.9287528344671	57	127
504.41791383219953	504.9287528344671	60	127
504.6501133786848	505.1261224489796	65	127
504.9287528344671	505.01002267573693	57	127
504.9287528344671	505.01002267573693	48	127
505.1261224489796	505.5324716553288	62	127
505.32349206349204	505.7878911564626	65	127
505.32349206349204	505.7878911564626	62	127
505.5324716553288	506.0317006802721	59	127
505.7878911564626	506.35678004535146	59	127
505.7878911564626	506.35678004535146	62	127
506.13619047619045	506.5657596371882	77	127
506.35678004535146	506.4612698412698	59	127
506.35678004535146	506.4612698412698	55	127
506.5657596371882	507.0069387755102	74	127
506.79795918367347	507.3320181405896	65	127
506.79795918367347	507.3320181405896	62	127
507.0069387755102	507.482947845805	71	127
507.34362811791385	507.77319727891154	62	127
507.34362811791385	507.77319727891154	59	127
507.5526077097506	507.9821768707483	64	127
507.77319727891154	507.8660770975057	59	127
507.77319727891154	507.8660770975057	55	127
507.9821768707483	508.46979591836737	62	127
508.17954648526074	508.8297052154195	67	127
508.17954648526074	508.8297052154195	64	127
508.46979591836737	508.9922448979592	60	127
508.8297052154195	509.25927437641724	64	127
508.8297052154195	509.25927437641724	60	127
509.0502947845805	509.47986394557824	76	127
509.25927437641724	509.3753741496599	60	127
509.25927437641724	509.3753741496599	55	127
509.47986394557824	509.955873015873	74	127
509.71206349206346	510.16485260770975	67	127
509.71206349206346	510.16485260770975	64	127
509.955873015873	510.29256235827665	72	127
510.16485260770975	510.5828117913832	58	127
510.16485260770975	510.5828117913832	64	127
510.3738321995465	510.79179138321996	67	127
510.5828117913832	510.6756916099773	58	127
510.5828117913832	510.6756916099773	55	127
510.79179138321996	511.2213605442177	64	127
511.0007709750567	511.48839002267573	67	127
511.0007709750567	511.48839002267573	64	127
511.2213605442177	511.6393197278912	61	127
511.48839002267573	511.92956916099774	61	127
511.48839002267573	511.92956916099774	64	127
511.70897959183674	512.1385487528345	79	127
511.92956916099774	512.0340362811792	57	127
511.92956916099774	512.0340362811792	61	127
512.1385487528345	512.6145578231293	76	127
512.382358276644	512.823537414966	67	127
512.382358276644	512.823537414966	64	127
512.6145578231293	512.9744671201814	73	127
512.8351247165533	513.3459863945578	64	127
512.8351247165533	513.3459863945578	61	127
513.04410430839	513.5897959183674	65	127
513.3459863945578	513.4620634920635	57	127
513.3459863945578	513.4620634920635	61	127
513.5897959183674	514.0773922902495	64	127
513.8336054421769	514.3096145124716	65	127
513.8336054421769	514.3096145124716	69	127
514.0773922902495	514.4605442176871	62	127
514.3096145124716	514.8320634920635	62	127
514.3096145124716	514.8320634920635	65	127
514.6230839002268	515.0526530612245	77	127
514.8320634920635	514.9481632653061	62	127
514.8320634920635	514.9481632653061	57	127
515.0526530612245	515.5983219954649	76	127
515.2964399092971	515.8073015873016	69	127
515.2964399092971	515.8073015873016	65	127
515.5983219954649	515.9466213151927	74	127
515.8073015873016	516.2600907029479	62	127
515.8073015873016	516.2600907029479	65	127
516.0395011337869	516.4806802721089	72	127
516.2600907029479	516.3761904761905	62	127
516.2600907029479	516.3761904761905	57	127
516.4806802721089	516.8870294784581	39	127
516.4806802721089	516.9566893424036	72	127
516.4806802721089	516.9566893424036	69	127
516.7477097505669	517.2004988662131	72	127
516.7477097505669	517.2004988662131	69	127
516.9566893424036	517.4443083900227	69	127
516.9566893424036	517.3746485260771	66	127
517.2121088435374	517.676507936508	69	127
517.2121088435374	517.676507936508	66	127
517.4443083900227	517.8158276643991	66	127
517.4443083900227	517.8854875283447	84	127
517.676507936508	517.7809977324263	66	127
517.676507936508	517.7809977324263	60	127
517.8854875283447	518.2570068027211	40	127
517.8854875283447	518.3266666666667	84	127
517.8854875283447	518.3266666666667	79	127
518.1060770975057	518.5356462585034	67	127
518.1060770975057	518.5356462585034	72	127
518.3266666666667	518.6865759637188	72	127
518.3266666666667	518.7562358276645	79	127
518.5472562358277	518.9768027210885	64	127
518.5472562358277	518.9768027210885	67	127
518.7562358276645	519.1161451247166	72	127
518.7562358276645	519.1857823129252	72	127
518.9768027210885	519.0813151927438	60	127
518.9768027210885	519.0813151927438	72	127
519.1857823129252	519.7663038548753	72	127
519.1857823129252	519.6850340136054	41	127
519.1857823129252	519.7663038548753	69	127
519.5108843537415	519.9868707482993	72	127
519.5108843537415	519.9868707482993	69	127
519.7663038548753	520.1146031746032	63	127
519.7663038548753	520.1958503401361	69	127
519.9868707482993	520.4048299319728	63	127
519.9868707482993	520.4048299319728	69	127
520.1958503401361	520.5441723356009	63	127
520.1958503401361	520.6138095238096	84	127
520.1958503401361	520.5441723356009	42	127
520.4048299319728	520.4977324263039	63	127
520.4048299319728	520.4977324263039	57	127
520.6138095238096	521.031768707483	84	127
520.6138095238096	520.9505215419501	43	127
520.6138095238096	521.031768707483	79	127
520.811179138322	521.4149206349207	60	127
520.811179138322	521.4149206349207	72	127
520.811179138322	521.4149206349207	67	127
520.811179138322	521.4149206349207	63	127
521.031768707483	521.5658503401361	55	127
521.031768707483	521.6587301587301	79	127
521.031768707483	521.5658503401361	72	127
521.4149206349207	521.960589569161	55	127
521.4149206349207	521.960589569161	60	127
521.4149206349207	521.960589569161	63	127
521.6587301587301	522.1115192743764	51	127
521.6587301587301	522.1115192743764	72	127
521.6587301587301	522.1115192743764	39	127
521.960589569161	522.0650793650793	60	127
521.960589569161	522.0650793650793	67	127
521.960589569161	522.0650793650793	63	127
521.960589569161	522.0650793650793	72	127
522.181179138322	522.5991383219955	54	127
522.181179138322	522.3088888888889	50	127
522.181179138322	522.3088888888889	38	127
522.181179138322	522.8197278911565	84	127
522.181179138322	522.5991383219955	69	127
522.4597959183674	522.5643083900227	45	127
522.6687755102041	522.796507936508	42	127
522.8313378684808	522.9822675736962	83	127
522.9009977324263	523.0287074829932	69	127
522.9009977324263	523.0287074829932	54	127
522.9009977324263	523.0287074829932	38	127
522.9822675736962	523.1564172335601	84	127
523.1564172335601	523.2724943310658	69	127
523.1564172335601	523.2724943310658	54	127
523.1564172335601	523.2724943310658	46	127
523.1564172335601	523.3073469387755	87	127
523.3073469387755	523.4698639455783	86	127
523.3770068027211	523.504716553288	67	127
523.3770068027211	523.504716553288	55	127
523.3770068027211	523.504716553288	38	127
523.4698639455783	523.6092063492064	82	127
523.6092063492064	523.7833560090703	86	127
523.6092063492064	523.7369160997732	67	127
523.6092063492064	523.7369160997732	55	127
523.7833560090703	523.9226757369614	84	127
523.8530158730159	523.9807256235828	66	127
523.8530158730159	523.9807256235828	57	127
523.8530158730159	523.9807256235828	48	127
523.94589569161	524.2709750566894	81	127
524.0851927437642	524.2013151927438	45	127
524.2709750566894	524.5380045351474	80	127
524.4567346938776	524.6192743764173	72	127
524.4567346938776	524.6192743764173	38	127
524.4567346938776	524.6192743764173	57	127
524.5496145124716	524.7353741496598	81	127
524.7353741496598	524.9095011337869	84	127
524.7353741496598	524.8746938775511	57	127
524.7353741496598	524.8746938775511	50	127
524.7353741496598	524.8746938775511	72	127
524.9095011337869	525.0604535147393	82	127
524.9791836734694	525.1068707482993	58	127
524.9791836734694	525.1068707482993	38	127
524.9791836734694	525.1068707482993	70	127
525.0720634920635	525.2113832199547	79	127
525.2113832199547	525.3507029478458	82	127
525.2113832199547	525.3158503401361	70	127
525.2113832199547	525.3158503401361	58	127
525.3507029478458	525.490022675737	81	127
525.4203628117914	525.536462585034	69	127
525.4203628117914	525.536462585034	60	127
525.4203628117914	525.536462585034	54	127
525.5016326530613	525.8151020408163	75	127
525.6757823129252	525.7802721088435	45	127
525.8151020408163	525.977641723356	74	127
525.884761904762	526.0240816326531	38	127
525.884761904762	526.0240816326531	75	127
525.884761904762	526.0240816326531	60	127
525.977641723356	526.1169614512472	75	127
526.1285487528345	526.2678911564626	75	127
526.1285487528345	526.2678911564626	60	127
526.1285487528345	526.3027210884354	81	127
526.1285487528345	526.2678911564626	55	127
526.3027210884354	526.4652607709751	79	127
526.3956009070295	526.5000907029479	76	127
526.3956009070295	526.5000907029479	43	127
526.3956009070295	526.5000907029479	61	127
526.4652607709751	526.6045804988662	70	127
526.6161904761905	526.7554875283447	79	127
526.6161904761905	526.7206802721089	61	127
526.6161904761905	526.7206802721089	50	127
526.6161904761905	526.7206802721089	76	127
526.7554875283447	526.9064399092971	78	127
526.8367800453515	526.9412471655329	62	127
526.8367800453515	526.9412471655329	38	127
526.8367800453515	526.9412471655329	74	127
526.9064399092971	527.0457596371882	69	127
527.0573696145125	527.1966893424036	81	127
527.0573696145125	527.1618367346939	70	127
527.0573696145125	527.1618367346939	50	127
527.0573696145125	527.1618367346939	55	127
527.1966893424036	527.3475963718821	79	127
527.2663492063492	527.3824489795918	61	127
527.2663492063492	527.3824489795918	76	127
527.2663492063492	527.3824489795918	43	127
527.3475963718821	527.4869387755102	70	127
527.5101587301588	527.6146485260771	76	127
527.5101587301588	527.6146485260771	61	127
527.5101587301588	527.7191383219955	79	127
527.5101587301588	527.6146485260771	50	127
527.7191383219955	527.8700680272109	78	127
527.8004081632653	527.9048979591837	74	127
527.8004081632653	527.9048979591837	62	127
527.8004081632653	527.9048979591837	38	127
527.8700680272109	528.009387755102	69	127
528.009387755102	528.8569160997732	43	127
528.009387755102	528.404126984127	71	127
528.009387755102	528.6595464852608	65	127
528.009387755102	528.404126984127	62	127
528.2531972789116	528.35768707483	62	127
528.4853968253968	528.6363265306122	59	127
528.671156462585	528.8220861678004	64	127
528.7408163265306	528.8569160997732	71	127
528.7408163265306	528.8569160997732	62	127
528.7408163265306	528.8569160997732	55	127
528.8220861678004	528.9614058956917	65	127
528.9614058956917	529.2051927437642	68	127
528.9614058956917	529.1471655328799	71	127
528.9614058956917	529.1471655328799	63	127
528.9614058956917	529.1471655328799	62	127
528.9614058956917	529.4258049886621	55	127
529.2051927437642	529.3445351473923	67	127
529.286485260771	529.3909750566894	55	127
529.286485260771	529.3909750566894	60	127
529.286485260771	529.3909750566894	72	127
529.3561451247166	529.507074829932	63	127
529.507074829932	529.6347845804988	72	127
529.507074829932	529.6347845804988	60	127
529.507074829932	529.6696145124716	67	127
529.507074829932	530.3313832199547	43	127
529.6696145124716	529.8089115646259	65	127
529.7508843537415	529.8553741496598	74	127
529.7508843537415	529.8553741496598	65	127
529.7508843537415	529.8553741496598	59	127
529.8205215419501	530.1107936507937	62	127
529.9714739229025	530.0759637188208	62	127
530.1107936507937	530.2733333333333	61	127
530.2152607709751	530.3313832199547	74	127
530.2152607709751	530.3313832199547	55	127
530.2152607709751	530.3313832199547	65	127
530.2965532879819	530.4474829931972	62	127
530.4474829931972	530.9234920634921	55	127
530.4474829931972	530.6332199546486	74	127
530.4474829931972	530.6332199546486	65	127
530.4474829931972	530.6680725623582	65	127
530.4474829931972	530.6332199546486	67	127
530.6680725623582	530.8073922902495	63	127
530.7377324263039	530.8886621315193	55	127
530.7377324263039	530.8886621315193	63	127
530.7377324263039	530.8886621315193	75	127
530.8190022675738	530.9931519274377	60	127
530.9931519274377	531.8406802721089	43	127
530.9931519274377	531.1324716553288	75	127
530.9931519274377	531.1324716553288	63	127
530.9931519274377	531.1673015873016	63	127
531.1673015873016	531.3298412698413	62	127
531.2369387755102	531.3762811791383	77	127
531.2369387755102	531.3762811791383	71	127
531.2369387755102	531.3762811791383	62	127
531.3414512471655	531.6317006802722	56	127
531.4807709750567	531.5968707482994	62	127
531.6317006802722	531.7710204081633	55	127
531.7013605442177	531.8406802721089	77	127
531.7013605442177	531.8406802721089	68	127
531.7013605442177	531.8406802721089	55	127
531.7710204081633	531.9335600907029	56	127
531.9451700680272	532.374739229025	55	127
531.9451700680272	532.1077097505669	77	127
531.9451700680272	532.1077097505669	72	127
531.9451700680272	532.1077097505669	68	127
531.9451700680272	532.1425396825397	62	127
532.1425396825397	532.2934693877551	60	127
532.2121995464853	532.3282993197279	60	127
532.2121995464853	532.3282993197279	78	127
532.2121995464853	532.3282993197279	69	127
532.2934693877551	532.4443990929706	51	127
532.4560090702948	533.257097505669	43	127
532.4560090702948	532.5721088435374	78	127
532.4560090702948	532.5721088435374	69	127
532.4560090702948	532.6069387755102	60	127
532.6069387755102	532.7578684807256	59	127
532.6765759637188	532.7926984126984	79	127
532.6765759637188	532.7926984126984	71	127
532.6765759637188	532.7926984126984	67	127
532.7578684807256	533.0481179138322	50	127
532.9204081632653	533.0248979591837	62	127
533.0597278911565	533.2222675736962	49	127
533.1409977324263	533.257097505669	55	127
533.1409977324263	533.257097505669	71	127
533.1409977324263	533.257097505669	67	127
533.2222675736962	533.3615873015873	50	127
533.3615873015873	533.5008843537415	72	127
533.3615873015873	533.5008843537415	71	127
533.3615873015873	533.5473469387755	62	127
533.3615873015873	533.5008843537415	67	127
533.3615873015873	533.744716553288	55	127
533.5473469387755	533.6750566893425	60	127
533.6053968253968	533.7098639455783	78	127
533.6053968253968	533.7098639455783	60	127
533.6053968253968	533.7098639455783	69	127
533.6750566893425	533.8143764172336	51	127
533.8143764172336	534.18589569161	43	127
533.8143764172336	533.9304761904762	78	127
533.8143764172336	533.9304761904762	69	127
533.8143764172336	533.965306122449	60	127
533.8143764172336	533.9304761904762	67	127
533.965306122449	534.1046031746032	59	127
534.0349659863946	534.1510657596372	55	127
534.0349659863946	534.1510657596372	67	127
534.0349659863946	534.1510657596372	79	127
534.1046031746032	534.2555555555556	50	127
534.2555555555556	534.3948752834467	67	127
534.2555555555556	534.3948752834467	71	127
534.2555555555556	534.4297052154195	62	127
534.2555555555556	534.6735147392291	55	127
534.2555555555556	534.3948752834467	72	127
534.4297052154195	534.5922448979592	60	127
534.4993650793651	534.6386848072563	78	127
534.4993650793651	534.6386848072563	60	127
534.4993650793651	534.6386848072563	69	127
534.5922448979592	534.7431746031746	51	127
534.7431746031746	535.1727437641723	43	127
534.7431746031746	534.8708843537415	78	127
534.7431746031746	534.8708843537415	69	127
534.7431746031746	534.9289115646259	60	127
534.7431746031746	534.8708843537415	67	127
534.9289115646259	535.0566439909297	59	127
534.9985941043084	535.1378911564626	55	127
534.9985941043084	535.1378911564626	67	127
534.9985941043084	535.1378911564626	79	127
535.068253968254	535.2424036281179	50	127
535.2424036281179	535.3468707482994	67	127
535.2424036281179	535.3468707482994	58	127
535.2424036281179	535.3468707482994	46	127
535.2424036281179	535.6603628117914	55	127
535.2424036281179	535.9157823129252	67	127
535.2424036281179	535.6603628117914	67	127
535.3468707482994	535.6603628117914	67	127
535.3468707482994	535.9157823129252	73	127
535.3468707482994	535.9157823129252	76	127
535.6603628117914	535.8112925170068	44	127
535.6603628117914	535.8112925170068	65	127
535.6603628117914	535.8112925170068	56	127
535.8112925170068	535.9157823129252	65	127
535.9273922902495	536.0551020408163	46	127
535.9273922902495	536.0202721088435	67	127
535.9273922902495	536.0551020408163	58	127
536.0551020408163	536.1944217687075	67	127
536.1015419501134	536.2640816326531	76	127
536.2060317460317	536.3221315192744	61	127
536.2060317460317	536.3221315192744	49	127
536.2060317460317	536.3105215419502	70	127
536.2756916099773	536.4266213151927	76	127
536.3221315192744	536.4266213151927	70	127
536.4266213151927	536.5427210884354	48	127
536.4266213151927	536.5427210884354	60	127
536.4266213151927	536.5891609977324	76	127
536.4266213151927	536.5427210884354	68	127
536.5427210884354	536.658820861678	68	127
536.5891609977324	536.7284807256236	60	127
536.5891609977324	536.7284807256236	77	127
536.658820861678	536.7632879818594	56	127
536.658820861678	536.7632879818594	65	127
536.658820861678	536.7632879818594	44	127
536.7284807256236	536.8678004535147	77	127
536.7284807256236	536.8678004535147	60	127
536.7632879818594	536.8678004535147	65	127
536.8678004535147	537.0071201814059	60	127
536.8678004535147	537.0071201814059	68	127
536.8678004535147	537.0071201814059	48	127
536.8678004535147	537.0419501133787	77	127
536.8678004535147	537.0419501133787	60	127
537.0071201814059	537.1116099773243	68	127
537.0419501133787	537.1812471655329	64	127
537.0419501133787	537.1812471655329	79	127
537.1232199546486	537.2160997732426	67	127
537.1232199546486	537.2277097505669	46	127
537.1232199546486	537.2277097505669	58	127
537.1928798185941	537.320589569161	79	127
537.1928798185941	537.320589569161	64	127
537.2277097505669	537.320589569161	67	127
537.3321995464853	537.4482993197279	43	127
537.3321995464853	537.4366893424036	64	127
537.3321995464853	537.4715192743764	64	127
537.3321995464853	537.4482993197279	55	127
537.4482993197279	537.5643990929706	64	127
537.494739229025	537.6340589569161	79	127
537.494739229025	537.6340589569161	72	127
537.5643990929706	537.6688888888889	46	127
537.5643990929706	537.6688888888889	67	127
537.5643990929706	537.6688888888889	58	127
537.6340589569161	537.7733786848073	72	127
537.6340589569161	537.7733786848073	79	127
537.6688888888889	537.7733786848073	67	127
537.7733786848073	537.8778684807256	56	127
537.7733786848073	537.8778684807256	65	127
537.7733786848073	537.8778684807256	44	127
537.7733786848073	537.9126984126984	79	127
537.8778684807256	537.982335600907	65	127
537.9126984126984	538.0520181405896	60	127
537.9126984126984	538.0520181405896	80	127
537.982335600907	538.0868480725624	53	127
537.982335600907	538.0868480725624	61	127
537.982335600907	538.0868480725624	41	127
538.0520181405896	538.1913151927438	80	127
538.0520181405896	538.1913151927438	60	127
538.0868480725624	538.1913151927438	61	127
538.202925170068	538.2958276643991	65	127
538.202925170068	538.2958276643991	56	127
538.202925170068	538.2958276643991	44	127
538.202925170068	538.3538775510204	60	127
538.202925170068	538.3538775510204	80	127
538.2958276643991	538.423537414966	65	127
538.3538775510204	538.4931972789116	82	127
538.3538775510204	538.4931972789116	67	127
538.423537414966	538.5396371882086	64	127
538.423537414966	538.5396371882086	43	127
538.423537414966	538.5396371882086	55	127
538.4931972789116	538.644126984127	82	127
538.4931972789116	538.644126984127	67	127
538.5396371882086	538.644126984127	64	127
538.644126984127	538.8879365079365	67	127
538.644126984127	538.7602267573697	40	127
538.644126984127	538.7602267573697	52	127
538.644126984127	538.7602267573697	60	127
538.7602267573697	538.9808163265307	60	127
538.8879365079365	539.0504761904762	82	127
538.8879365079365	539.0504761904762	72	127
538.9808163265307	539.085306122449	55	127
538.9808163265307	539.085306122449	70	127
538.9808163265307	539.085306122449	43	127
539.0504761904762	539.2014058956917	72	127
539.0504761904762	539.2014058956917	82	127
539.085306122449	539.2014058956917	70	127
539.2014058956917	539.3291156462585	41	127
539.2014058956917	539.3291156462585	53	127
539.2014058956917	539.3639455782313	82	127
539.2014058956917	539.3291156462585	68	127
539.3291156462585	539.4452154195011	68	127
539.3639455782313	539.526485260771	65	127
539.3639455782313	539.526485260771	83	127
539.4452154195011	539.5845351473923	49	127
539.4452154195011	539.5845351473923	65	127
539.4452154195011	539.5845351473923	37	127
539.526485260771	539.6890249433106	65	127
539.526485260771	539.6890249433106	83	127
539.5845351473923	539.6890249433106	65	127
539.6890249433106	539.8631746031746	65	127
539.6890249433106	539.8631746031746	83	127
539.6890249433106	539.8283219954649	68	127
539.6890249433106	539.8283219954649	53	127
539.6890249433106	539.8283219954649	41	127
539.8283219954649	539.9328344671202	68	127
539.8631746031746	540.0024943310658	84	127
539.8631746031746	540.0024943310658	72	127
539.9328344671202	540.0373015873016	67	127
539.9328344671202	540.0373015873016	40	127
539.9328344671202	540.0373015873016	52	127
540.0024943310658	540.1534240362812	84	127
540.0024943310658	540.1534240362812	72	127
540.0373015873016	540.1534240362812	67	127
540.1534240362812	540.281133786848	36	127
540.1534240362812	540.281133786848	64	127
540.1534240362812	540.3159637188209	72	127
540.1534240362812	540.281133786848	48	127
540.281133786848	540.3856235827665	64	127
540.3159637188209	540.4668934240362	79	127
540.3159637188209	540.4668934240362	72	127
540.3856235827665	540.501723356009	70	127
540.3856235827665	540.501723356009	55	127
540.3856235827665	540.501723356009	43	127
540.4668934240362	540.6178231292517	72	127
540.4668934240362	540.6178231292517	79	127
540.501723356009	540.6178231292517	70	127
540.6178231292517	540.7339229024943	41	127
540.6178231292517	540.7339229024943	68	127
540.6178231292517	540.7339229024943	53	127
540.6178231292517	540.7687528344671	72	127
540.7339229024943	540.8384126984128	68	127
540.7687528344671	540.896462585034	65	127
540.7687528344671	540.896462585034	83	127
540.8384126984128	540.9429024943311	49	127
540.8384126984128	540.9312925170068	65	127
540.8384126984128	540.9429024943311	37	127
540.9080725623583	541.0589795918368	83	127
540.9080725623583	541.0589795918368	65	127
540.9429024943311	541.0589795918368	65	127
541.070589569161	541.1634920634921	68	127
541.070589569161	541.1751020408163	53	127
541.070589569161	541.1751020408163	41	127
541.070589569161	541.1983219954649	65	127
541.070589569161	541.1983219954649	83	127
541.1751020408163	541.2679591836735	68	127
541.2099319727891	541.3492517006803	84	127
541.2099319727891	541.3492517006803	72	127
541.2795918367347	541.3840816326531	67	127
541.2795918367347	541.3956916099773	52	127
541.2795918367347	541.3956916099773	40	127
541.3608616780045	541.4885714285714	84	127
541.3608616780045	541.4885714285714	72	127
541.3956916099773	541.4885714285714	67	127
541.5001814058957	541.6278911564626	36	127
541.5001814058957	541.6162811791384	64	127
541.5001814058957	541.6511111111112	72	127
541.5001814058957	541.6278911564626	48	127
541.6278911564626	541.7672108843537	64	127
541.6626984126984	541.8600907029479	72	127
541.6626984126984	541.8600907029479	79	127
541.778820861678	541.9065306122449	55	127
541.778820861678	541.8949206349206	70	127
541.778820861678	541.9065306122449	43	127
541.8716780045352	542.0110204081633	79	127
541.8716780045352	542.0110204081633	72	127
541.9065306122449	542.0110204081633	70	127
542.0226303854876	542.1271201814059	41	127
542.0226303854876	542.1271201814059	53	127
542.0226303854876	542.1503401360544	72	127
542.0226303854876	542.1155102040816	68	127
542.1271201814059	542.22	68	127
542.1619501133787	542.3012698412698	83	127
542.1619501133787	542.3012698412698	65	127
542.2316099773243	542.3477097505669	49	127
542.2316099773243	542.3360997732426	65	127
542.2316099773243	542.3477097505669	37	127
542.3128798185941	542.4754195011338	83	127
542.3128798185941	542.4754195011338	65	127
542.3477097505669	542.4754195011338	65	127
542.4870068027211	542.5799092970522	68	127
542.4870068027211	542.5799092970522	53	127
542.4870068027211	542.5799092970522	41	127
542.4870068027211	542.6263492063492	65	127
542.4870068027211	542.6263492063492	83	127
542.5799092970522	542.7424489795918	68	127
542.6263492063492	542.8237188208617	84	127
542.6263492063492	542.8237188208617	72	127
542.7424489795918	542.9049659863946	67	127
542.7424489795918	542.9049659863946	40	127
542.7424489795918	542.9049659863946	52	127
542.8237188208617	543.0094784580499	84	127
542.8237188208617	543.0094784580499	72	127
542.9049659863946	543.0094784580499	67	127
543.0094784580499	543.1371882086167	36	127
543.0094784580499	543.1139455782313	64	127
543.0094784580499	543.1139455782313	60	127
543.0094784580499	543.1139455782313	67	127
543.0094784580499	543.1371882086167	48	127
543.0094784580499	543.1604081632653	72	127
543.0094784580499	543.1139455782313	72	127
543.0094784580499	543.1604081632653	84	127
543.1371882086167	543.2416780045352	64	127
543.1371882086167	543.2416780045352	72	127
543.1371882086167	543.2416780045352	67	127
543.1371882086167	543.2416780045352	60	127
543.1720181405896	543.3113151927438	79	127
543.1720181405896	543.3113151927438	84	127
543.2532879818594	543.3461678004535	55	127
543.2532879818594	543.3461678004535	64	127
543.2532879818594	543.3461678004535	72	127
543.2532879818594	543.3461678004535	60	127
543.2532879818594	543.3461678004535	43	127
543.2532879818594	543.3461678004535	67	127
543.3113151927438	543.4506575963719	84	127
543.3113151927438	543.4506575963719	79	127
543.3461678004535	543.4506575963719	64	127
543.3461678004535	543.4506575963719	72	127
543.3461678004535	543.4506575963719	67	127
543.3461678004535	543.4506575963719	60	127
543.4506575963719	543.5667573696145	64	127
543.4506575963719	543.5667573696145	72	127
543.4506575963719	543.5667573696145	60	127
543.4506575963719	543.5667573696145	67	127
543.4506575963719	543.5667573696145	52	127
543.4506575963719	543.5667573696145	40	127
543.4506575963719	543.6131972789116	79	127
543.4506575963719	543.6131972789116	84	127
543.5667573696145	543.6944671201815	64	127
543.5667573696145	543.6944671201815	72	127
543.5667573696145	543.6944671201815	67	127
543.5667573696145	543.6944671201815	60	127
543.6131972789116	543.810566893424	84	127
543.6131972789116	543.810566893424	79	127
543.6944671201815	543.8337868480726	72	127
543.6944671201815	543.8337868480726	60	127
543.6944671201815	543.8453968253968	48	127
543.6944671201815	543.8453968253968	60	127
543.6944671201815	543.8337868480726	64	127
543.6944671201815	543.8337868480726	67	127
543.810566893424	543.9614965986394	84	127
543.810566893424	543.9614965986394	79	127
543.8453968253968	543.9614965986394	60	127
543.8453968253968	543.9614965986394	64	127
543.8453968253968	543.9614965986394	67	127
543.8453968253968	543.9614965986394	72	127
543.9731065759637	544.1124263038549	84	127
543.9731065759637	544.0775963718821	64	127
543.9731065759637	544.0775963718821	60	127
543.9731065759637	544.0775963718821	67	127
543.9731065759637	544.0892063492064	55	127
543.9731065759637	544.1124263038549	79	127
543.9731065759637	544.0775963718821	72	127
543.9731065759637	544.0892063492064	43	127
544.0892063492064	544.1820861678004	60	127
544.0892063492064	544.1820861678004	64	127
544.0892063492064	544.1820861678004	72	127
544.0892063492064	544.1820861678004	67	127
544.1124263038549	544.251746031746	79	127
544.1124263038549	544.251746031746	84	127
544.1820861678004	544.2981859410431	64	127
544.1820861678004	544.2981859410431	72	127
544.1820861678004	544.2981859410431	67	127
544.1820861678004	544.2981859410431	52	127
544.1820861678004	544.2981859410431	64	127
544.1820861678004	544.2981859410431	60	127
544.251746031746	544.4142857142857	79	127
544.251746031746	544.4142857142857	84	127
544.2981859410431	544.4142857142857	72	127
544.2981859410431	544.4142857142857	60	127
544.2981859410431	544.4142857142857	67	127
544.2981859410431	544.4142857142857	64	127
544.4142857142857	544.5187755102041	48	127
544.4142857142857	544.5536054421768	79	127
544.4142857142857	544.5536054421768	84	127
544.4142857142857	544.5187755102041	64	127
544.4142857142857	544.5187755102041	72	127
544.4142857142857	544.5187755102041	60	127
544.4142857142857	544.5187755102041	67	127
544.4142857142857	544.5187755102041	60	127
544.5187755102041	544.6116553287982	64	127
544.5187755102041	544.6116553287982	72	127
544.5187755102041	544.6116553287982	67	127
544.5187755102041	544.6116553287982	60	127
544.5536054421768	544.7045351473923	79	127
544.5536054421768	544.7045351473923	84	127
544.6232653061224	544.7974149659864	67	127
544.6232653061224	544.7741950113378	64	127
544.6232653061224	544.7741950113378	72	127
544.6232653061224	544.7741950113378	60	127
544.6232653061224	544.7741950113378	67	127
544.6232653061224	544.7974149659864	55	127
544.7161451247166	544.9483219954649	79	127
544.7161451247166	544.9483219954649	84	127
544.7974149659864	544.9483219954649	64	127
544.7974149659864	544.9483219954649	72	127
544.7974149659864	544.9483219954649	67	127
544.7974149659864	544.9483219954649	60	127
544.9483219954649	545.1108843537415	79	127
544.9483219954649	545.0644444444445	64	127
544.9483219954649	545.0644444444445	60	127
544.9483219954649	545.0644444444445	67	127
544.9483219954649	545.0644444444445	64	127
544.9483219954649	545.0644444444445	52	127
544.9483219954649	545.1108843537415	84	127
544.9483219954649	545.0644444444445	72	127
545.0644444444445	545.1921541950113	60	127
545.0644444444445	545.1921541950113	64	127
545.0644444444445	545.1921541950113	67	127
545.0644444444445	545.1921541950113	72	127
545.1108843537415	545.2618140589569	84	127
545.1108843537415	545.2618140589569	79	127
545.1921541950113	545.2966439909297	64	127
545.1921541950113	545.2966439909297	72	127
545.1921541950113	545.2966439909297	60	127
545.1921541950113	545.2966439909297	60	127
545.1921541950113	545.2966439909297	67	127
545.2618140589569	545.401133786848	84	127
545.2618140589569	545.401133786848	79	127
545.2966439909297	545.401133786848	64	127
545.2966439909297	545.401133786848	60	127
545.2966439909297	545.401133786848	67	127
545.2966439909297	545.401133786848	72	127
545.401133786848	545.5520408163266	67	127
545.401133786848	545.5520408163266	64	127
545.401133786848	545.5520408163266	72	127
545.401133786848	545.5520408163266	60	127
545.401133786848	545.6565532879819	76	127
545.401133786848	545.6565532879819	63	127
545.401133786848	545.6565532879819	72	127
545.401133786848	545.6565532879819	52	127
545.401133786848	545.5172335600907	36	127
545.401133786848	545.6565532879819	67	127
545.401133786848	545.6565532879819	43	127
545.528843537415	545.6565532879819	60	127
545.528843537415	545.6565532879819	79	127
545.528843537415	545.6565532879819	84	127
545.5868934240362	545.7378231292518	60	127
545.5868934240362	545.7378231292518	64	127
545.5868934240362	545.7378231292518	72	127
545.5868934240362	545.7378231292518	67	127
545.749410430839	545.8771428571429	60	127
545.749410430839	545.8771428571429	64	127
545.749410430839	545.8771428571429	72	127
545.749410430839	545.8771428571429	67	127
545.8887528344671	546.016462585034	60	127
545.8887528344671	546.016462585034	64	127
545.8887528344671	546.016462585034	72	127
545.8887528344671	546.016462585034	67	127
546.0396825396825	546.237052154195	60	127
546.0396825396825	546.237052154195	64	127
546.0396825396825	546.237052154195	72	127
546.0396825396825	546.237052154195	67	127
546.2718820861678	546.4112018140589	60	127
546.2718820861678	546.4112018140589	64	127
546.2718820861678	546.4112018140589	72	127
546.2718820861678	546.4112018140589	67	127
546.4228117913832	546.5505215419502	67	127
546.4228117913832	546.5505215419502	64	127
546.4228117913832	546.5505215419502	72	127
546.4228117913832	546.5505215419502	60	127
546.5621315192744	546.6898412698413	67	127
546.5621315192744	546.6898412698413	64	127
546.5621315192744	546.6898412698413	72	127
546.5621315192744	546.6898412698413	60	127
546.7014512471656	546.8407709750567	60	127
546.7014512471656	546.8407709750567	64	127
546.7014512471656	546.8407709750567	72	127
546.7014512471656	546.8407709750567	67	127
546.8523809523809	547.1426303854876	64	127
546.8523809523809	546.9568707482994	60	127
546.8523809523809	546.9568707482994	67	127
546.8523809523809	547.1426303854876	72	127
547.1542403628118	547.3516099773243	64	127
547.1542403628118	547.2587301587301	60	127
547.1542403628118	547.2587301587301	67	127
547.1542403628118	547.3516099773243	72	127
547.3516099773243	547.5838095238096	64	127
547.3516099773243	547.4560997732426	60	127
547.3516099773243	547.4560997732426	67	127
547.3516099773243	547.5838095238096	72	127
547.5838095238096	547.8159863945579	64	127
547.5838095238096	547.6882993197279	60	127
547.5838095238096	547.6882993197279	67	127
547.5838095238096	547.8159863945579	72	127
547.8159863945579	548.0598185941043	64	127
547.8159863945579	547.9204988662132	60	127
547.8159863945579	547.9204988662132	67	127
547.8159863945579	548.0598185941043	72	127
548.0714285714286	548.2804081632653	64	127
548.0714285714286	548.1875283446713	60	127
548.0714285714286	548.1875283446713	67	127
548.0714285714286	548.2804081632653	72	127
548.2920181405896	548.396507936508	64	127
548.2920181405896	548.396507936508	71	127
548.2920181405896	548.396507936508	67	127
548.5009977324263	549.0466439909297	67	127
548.5009977324263	549.0466439909297	64	127
548.5009977324263	549.0466439909297	71	127
549.151156462585	549.2672562358276	64	127
549.151156462585	549.2672562358276	67	127
549.151156462585	549.2672562358276	71	127
549.3833560090703	549.4878458049886	64	127
549.3833560090703	549.4878458049886	67	127
549.3833560090703	549.4878458049886	71	127
549.6039455782313	549.7084353741496	64	127
549.6039455782313	549.7084353741496	67	127
549.6039455782313	549.7084353741496	71	127
549.8129251700681	549.9290249433107	67	127
549.8129251700681	549.9290249433107	71	127
549.8129251700681	549.9290249433107	64	127
550.0335147392291	550.7068934240363	67	127
550.0335147392291	550.2540816326531	71	127
550.0335147392291	550.7068934240363	76	127
550.0335147392291	550.2540816326531	64	127
550.2656916099774	550.4979138321995	64	127
550.2656916099774	550.4979138321995	71	127
550.4979138321995	550.7068934240363	64	127
550.4979138321995	550.7068934240363	71	127
550.7068934240363	550.9274829931973	69	127
550.7068934240363	550.9274829931973	64	127
550.7068934240363	550.9274829931973	69	127
550.7068934240363	550.9274829931973	78	127
550.7068934240363	550.9274829931973	71	127
550.9274829931973	551.3222222222222	71	127
550.9274829931973	551.1480725623583	64	127
550.9274829931973	551.1480725623583	71	127
550.9274829931973	551.1480725623583	67	127
550.9274829931973	551.3222222222222	79	127
551.1480725623583	551.3802721088435	67	127
551.1480725623583	551.3802721088435	64	127
551.1480725623583	551.3802721088435	71	127
551.3918820861678	552.4948299319728	72	127
551.3918820861678	552.4948299319728	64	127
551.3918820861678	551.7285714285714	64	127
551.3918820861678	551.7285714285714	66	127
551.3918820861678	551.7285714285714	69	127
551.7285714285714	551.9607709750567	64	127
551.7285714285714	551.9607709750567	66	127
551.7285714285714	551.9607709750567	69	127
551.972380952381	552.192970521542	64	127
551.972380952381	552.192970521542	69	127
551.972380952381	552.192970521542	66	127
552.192970521542	552.4832199546486	66	127
552.192970521542	552.4832199546486	69	127
552.192970521542	552.4832199546486	64	127
552.4948299319728	552.901179138322	71	127
552.4948299319728	552.7618594104308	69	127
552.4948299319728	552.7618594104308	63	127
552.4948299319728	552.7618594104308	66	127
552.4948299319728	552.901179138322	63	127
552.7618594104308	552.9824489795918	66	127
552.7618594104308	552.9824489795918	63	127
552.7618594104308	552.9824489795918	69	127
552.9940589569161	553.7719274376417	76	127
552.9940589569161	553.2262585034014	64	127
552.9940589569161	553.2262585034014	71	127
552.9940589569161	553.7719274376417	67	127
553.2262585034014	553.4584580498866	64	127
553.2262585034014	553.4584580498866	71	127
553.4584580498866	553.7719274376417	64	127
553.4584580498866	553.7719274376417	71	127
553.7719274376417	554.0273469387755	78	127
553.7719274376417	554.0273469387755	69	127
553.7719274376417	554.0273469387755	69	127
553.7719274376417	554.0273469387755	64	127
553.7719274376417	554.0273469387755	71	127
554.0273469387755	554.3988662131519	71	127
554.0273469387755	554.2479365079365	64	127
554.0273469387755	554.2479365079365	67	127
554.0273469387755	554.3988662131519	79	127
554.0273469387755	554.2479365079365	71	127
554.2595464852608	554.4685260770975	64	127
554.2595464852608	554.4685260770975	67	127
554.2595464852608	554.4685260770975	71	127
554.4685260770975	554.7471428571429	64	127
554.4685260770975	554.7471428571429	66	127
554.4685260770975	554.7471428571429	69	127
554.4685260770975	555.4669841269841	72	127
554.4685260770975	555.4669841269841	64	127
554.7587528344671	555.0258049886621	64	127
554.7587528344671	555.0258049886621	66	127
554.7587528344671	555.0258049886621	69	127
555.0258049886621	555.2347845804989	66	127
555.0258049886621	555.2347845804989	69	127
555.0258049886621	555.2347845804989	64	127
555.2463945578231	555.4669841269841	64	127
555.2463945578231	555.4669841269841	69	127
555.2463945578231	555.4669841269841	66	127
555.4669841269841	555.7572335600908	69	127
555.4669841269841	555.9081632653061	63	127
555.4669841269841	555.9081632653061	71	127
555.4669841269841	555.7572335600908	63	127
555.4669841269841	555.7572335600908	66	127
555.768820861678	556.0707029478458	63	127
555.768820861678	556.0707029478458	69	127
555.768820861678	556.0707029478458	66	127
556.0707029478458	556.7556916099774	67	127
556.0707029478458	556.7556916099774	76	127
556.0707029478458	556.3261224489796	64	127
556.0707029478458	556.3261224489796	71	127
556.0707029478458	556.3261224489796	67	127
556.3377324263039	556.5467120181406	64	127
556.3377324263039	556.5467120181406	71	127
556.3377324263039	556.5467120181406	67	127
556.5467120181406	556.7556916099774	64	127
556.5467120181406	556.7556916099774	67	127
556.5467120181406	556.7556916099774	71	127
556.7556916099774	556.9878911564626	67	127
556.7556916099774	556.9878911564626	71	127
556.7556916099774	556.9878911564626	78	127
556.7556916099774	556.9878911564626	69	127
556.7556916099774	556.9878911564626	64	127
557.092380952381	557.3942403628118	71	127
557.092380952381	557.5451700680272	79	127
557.092380952381	557.3942403628118	67	127
557.092380952381	557.5451700680272	70	127
557.092380952381	557.3942403628118	64	127
557.3942403628118	557.6032199546486	64	127
557.3942403628118	557.6032199546486	71	127
557.3942403628118	557.6032199546486	67	127
557.6148072562358	557.847029478458	70	127
557.6148072562358	557.847029478458	60	127
557.6148072562358	558.3926984126985	79	127
557.6148072562358	558.3926984126985	72	127
557.6148072562358	557.847029478458	64	127
557.847029478458	558.0560090702947	60	127
557.847029478458	558.0560090702947	64	127
557.847029478458	558.0560090702947	70	127
558.0908390022676	558.3926984126985	64	127
558.0908390022676	558.3926984126985	70	127
558.0908390022676	558.3926984126985	60	127
558.3926984126985	558.7061678004535	70	127
558.3926984126985	558.7061678004535	64	127
558.3926984126985	558.7061678004535	60	127
558.3926984126985	558.7061678004535	76	127
558.3926984126985	558.508798185941	81	127
558.7177777777778	558.9731972789116	72	127
558.7177777777778	558.9731972789116	60	127
558.7177777777778	559.1125170068027	82	127
558.7177777777778	559.1125170068027	79	127
558.7177777777778	558.9731972789116	64	127
558.9731972789116	559.1821768707483	60	127
558.9731972789116	559.1821768707483	72	127
558.9731972789116	559.1821768707483	64	127
559.1937868480726	559.4027664399093	72	127
559.1937868480726	560.0413151927438	81	127
559.1937868480726	559.4027664399093	60	127
559.1937868480726	560.0413151927438	77	127
559.1937868480726	559.4027664399093	65	127
559.4027664399093	559.6117460317461	65	127
559.4027664399093	559.6117460317461	60	127
559.4027664399093	559.6117460317461	72	127
559.6117460317461	559.8323356009071	65	127
559.6117460317461	559.8323356009071	72	127
559.6117460317461	559.8323356009071	57	127
559.8323356009071	560.0413151927438	65	127
559.8323356009071	560.0413151927438	72	127
559.8323356009071	560.0413151927438	57	127
560.0413151927438	560.3547845804989	72	127
560.0413151927438	560.5521541950113	77	127
560.0413151927438	560.3547845804989	69	127
560.0413151927438	560.5521541950113	72	127
560.3780045351474	560.6798412698413	69	127
560.3780045351474	560.6798412698413	72	127
560.6798412698413	561.4809523809524	76	127
560.6798412698413	561.6899319727892	71	127
560.6798412698413	560.9585034013605	67	127
560.6798412698413	560.9585034013605	71	127
560.9701133786848	561.2603628117914	71	127
560.9701133786848	561.2603628117914	67	127
561.2603628117914	561.4693424036282	67	127
561.2603628117914	561.4693424036282	71	127
561.4809523809524	561.6899319727892	71	127
561.4809523809524	561.6899319727892	78	127
561.4809523809524	561.6899319727892	69	127
561.6899319727892	562.0614512471656	75	127
561.6899319727892	561.9104988662132	71	127
561.6899319727892	561.9104988662132	66	127
561.6899319727892	562.0614512471656	69	127
561.9221088435374	562.212380952381	71	127
561.9221088435374	562.212380952381	66	127
562.212380952381	562.432970521542	67	127
562.212380952381	562.6187301587302	67	127
562.212380952381	562.9554195011337	64	127
562.212380952381	562.432970521542	71	127
562.212380952381	562.6187301587302	76	127
562.432970521542	562.7	71	127
562.432970521542	562.7	67	127
562.7	562.9554195011337	67	127
562.7	562.9554195011337	71	127
562.9554195011337	563.2108390022676	69	127
562.9554195011337	563.2108390022676	66	127
562.9554195011337	563.2108390022676	66	127
563.2224489795918	563.6984580498867	67	127
563.2224489795918	563.4430385487528	67	127
563.2224489795918	563.4430385487528	64	127
563.4430385487528	563.8145578231292	67	127
563.4430385487528	563.8145578231292	64	127
563.8261678004535	564.0583673469388	66	127
563.8261678004535	564.8130158730158	60	127
563.8261678004535	564.0583673469388	69	127
563.8261678004535	564.0583673469388	64	127
564.0583673469388	564.2673469387755	66	127
564.0583673469388	564.2673469387755	64	127
564.0583673469388	564.2673469387755	69	127
564.2789569160998	564.4763265306123	64	127
564.2789569160998	564.4763265306123	69	127
564.2789569160998	564.4763265306123	66	127
564.4763265306123	564.7433560090703	66	127
564.4763265306123	564.7433560090703	69	127
564.4763265306123	564.7433560090703	64	127
564.8130158730158	565.0219954648526	69	127
564.8130158730158	565.0219954648526	63	127
564.8130158730158	565.0219954648526	66	127
564.8130158730158	565.1613151927438	59	127
565.0219954648526	565.2425850340136	63	127
565.0219954648526	565.2425850340136	66	127
565.0219954648526	565.2425850340136	69	127
565.2425850340136	565.4631746031746	71	127
565.2425850340136	565.4631746031746	67	127
565.2425850340136	565.8927437641723	64	127
565.4631746031746	565.6721541950113	67	127
565.4631746031746	565.6721541950113	71	127
565.6721541950113	565.8811337868481	67	127
565.6721541950113	565.8811337868481	71	127
565.8927437641723	566.182993197279	69	127
565.8927437641723	566.182993197279	66	127
565.8927437641723	566.182993197279	66	127
566.182993197279	566.5893424036282	67	127
566.182993197279	566.4267800453515	67	127
566.182993197279	566.4267800453515	64	127
566.4384126984127	566.7751020408164	67	127
566.4384126984127	566.7751020408164	64	127
566.7751020408164	567.7503401360544	58	127
566.7751020408164	567.0653514739229	67	127
566.7751020408164	567.0653514739229	64	127
567.0769614512471	567.2859410430839	64	127
567.0769614512471	567.2859410430839	67	127
567.2859410430839	567.5181405895692	64	127
567.2859410430839	567.5181405895692	67	127
567.5297505668934	567.7503401360544	64	127
567.5297505668934	567.7503401360544	67	127
567.7503401360544	567.9825396825397	67	127
567.7503401360544	568.1334693877551	57	127
567.7503401360544	567.9825396825397	61	127
567.7503401360544	567.9825396825397	64	127
567.994149659864	568.2031292517007	67	127
567.994149659864	568.2031292517007	64	127
567.994149659864	568.2031292517007	61	127
568.2031292517007	568.4121088435375	65	127
568.2031292517007	568.4121088435375	62	127
568.2031292517007	568.9461678004535	62	127
568.4121088435375	568.7139682539682	65	127
568.4121088435375	568.7139682539682	62	127
568.7139682539682	568.9461678004535	65	127
568.7139682539682	568.9461678004535	62	127
568.9461678004535	569.2131972789116	62	127
568.9461678004535	569.2131972789116	64	127
568.9461678004535	569.2131972789116	67	127
569.2248072562359	569.4337868480726	69	127
569.2248072562359	569.4337868480726	62	127
569.2248072562359	569.5963265306123	65	127
569.4337868480726	569.6659863945579	69	127
569.4337868480726	569.6659863945579	62	127
569.6891836734694	570.4902947845806	65	127
569.6891836734694	569.8981632653062	62	127
569.6891836734694	569.8981632653062	70	127
569.8981632653062	570.2232653061225	62	127
569.8981632653062	570.2232653061225	70	127
570.2348752834467	570.4902947845806	70	127
570.2348752834467	570.4902947845806	62	127
570.4902947845806	570.7573242630385	62	127
570.4902947845806	570.7573242630385	67	127
570.4902947845806	570.7573242630385	70	127
570.7689342403628	571.2565532879819	68	127
570.7689342403628	571.0707936507937	70	127
570.7689342403628	571.0707936507937	62	127
571.0707936507937	571.3261904761905	62	127
571.0707936507937	571.3261904761905	70	127
571.3261904761905	571.5700226757369	63	127
571.3261904761905	572.3246712018141	67	127
571.3261904761905	571.5700226757369	70	127
571.5700226757369	571.8951020408164	70	127
571.5700226757369	571.8951020408164	63	127
571.8951020408164	572.1040816326531	70	127
571.8951020408164	572.1040816326531	63	127
572.1156916099774	572.3246712018141	70	127
572.1156916099774	572.3246712018141	63	127
572.3246712018141	572.5452380952381	58	127
572.3246712018141	572.7078004535148	63	127
572.3246712018141	572.5452380952381	67	127
572.5568480725624	572.8006802721088	58	127
572.5568480725624	572.8006802721088	67	127
572.8006802721088	573.5321088435375	62	127
572.8006802721088	573.0096598639456	65	127
572.8006802721088	573.0096598639456	57	127
573.0212698412698	573.2999092970522	57	127
573.0212698412698	573.2999092970522	65	127
573.2999092970522	573.5204988662132	65	127
573.2999092970522	573.5204988662132	57	127
573.5321088435375	573.77589569161	67	127
573.5321088435375	573.77589569161	57	127
573.5321088435375	573.77589569161	64	127
573.77589569161	574.0197278911564	57	127
573.77589569161	574.3099773242631	61	127
573.77589569161	574.0197278911564	64	127
574.0197278911564	574.391224489796	64	127
574.0197278911564	574.391224489796	57	127
574.391224489796	574.6814965986395	62	127
574.391224489796	575.1342857142857	74	127
574.391224489796	574.6814965986395	65	127
574.6814965986395	574.9136961451247	65	127
574.6814965986395	574.9136961451247	62	127
574.925306122449	575.1342857142857	62	127
574.925306122449	575.1342857142857	65	127
575.1342857142857	575.366485260771	76	127
575.1342857142857	575.366485260771	62	127
575.1342857142857	575.366485260771	67	127
575.366485260771	575.5754648526078	62	127
575.366485260771	575.7263945578231	77	127
575.366485260771	575.5754648526078	69	127
575.5754648526078	575.7844444444445	62	127
575.5754648526078	575.7844444444445	69	127
575.7960544217688	576.0630839002267	70	127
575.7960544217688	576.5390929705216	77	127
575.7960544217688	576.0630839002267	62	127
575.7960544217688	576.5390929705216	68	127
576.0630839002267	576.295283446712	70	127
576.0630839002267	576.295283446712	62	127
576.3185034013605	576.5390929705216	62	127
576.3185034013605	576.5390929705216	70	127
576.5390929705216	576.6900226757369	79	127
576.5390929705216	576.8409297052154	70	127
576.5390929705216	576.8409297052154	62	127
576.5390929705216	576.8409297052154	70	127
576.8525396825397	577.0847619047619	62	127
576.8525396825397	577.2356916099774	72	127
576.8525396825397	577.2356916099774	80	127
576.8525396825397	577.0847619047619	68	127
577.0847619047619	577.35179138322	68	127
577.0847619047619	577.35179138322	62	127
577.35179138322	578.4779365079365	73	127
577.35179138322	577.7233106575964	67	127
577.35179138322	578.4779365079365	82	127
577.35179138322	577.7233106575964	63	127
577.35179138322	578.1877097505669	58	127
577.7233106575964	577.9671201814059	67	127
577.7233106575964	577.9671201814059	63	127
577.9671201814059	578.1760997732426	63	127
577.9671201814059	578.1760997732426	67	127
578.1877097505669	578.4779365079365	67	127
578.1877097505669	578.4779365079365	63	127
578.1877097505669	578.4779365079365	60	127
578.4779365079365	578.8726984126985	79	127
578.4779365079365	578.8726984126985	61	127
578.4779365079365	578.6985487528344	67	127
578.4779365079365	578.6985487528344	61	127
578.4779365079365	578.8726984126985	70	127
578.721768707483	578.9771882086168	61	127
578.721768707483	578.9771882086168	67	127
578.9771882086168	579.9408163265306	63	127
578.9771882086168	579.2209977324263	60	127
578.9771882086168	579.9408163265306	72	127
578.9771882086168	579.2209977324263	68	127
578.9771882086168	579.9408163265306	75	127
579.2326077097506	579.4764172335601	60	127
579.2326077097506	579.4764172335601	68	127
579.4764172335601	579.6969841269841	60	127
579.4764172335601	579.6969841269841	68	127
579.7085941043084	579.9408163265306	60	127
579.7085941043084	579.9408163265306	68	127
579.9408163265306	580.1614058956916	65	127
579.9408163265306	580.1614058956916	62	127
579.9408163265306	580.3123129251701	71	127
579.9408163265306	580.3123129251701	65	127
579.9408163265306	580.3123129251701	74	127
580.1614058956916	580.3819954648526	62	127
580.1614058956916	580.3819954648526	65	127
580.3819954648526	581.8448526077098	74	127
580.3819954648526	580.6141950113379	65	127
580.3819954648526	581.0321541950113	65	127
580.3819954648526	580.6141950113379	62	127
580.3819954648526	580.8231746031746	69	127
580.6141950113379	580.8115646258503	62	127
580.6141950113379	580.8115646258503	65	127
580.8231746031746	581.3688435374149	65	127
580.8231746031746	581.0321541950113	62	127
580.8231746031746	581.0321541950113	65	127
581.0321541950113	581.3572335600907	65	127
581.0321541950113	581.3688435374149	62	127
581.0321541950113	581.3572335600907	62	127
581.3688435374149	581.6126530612245	69	127
581.3688435374149	581.7751927437641	57	127
581.3688435374149	581.6126530612245	65	127
581.3688435374149	581.8448526077098	62	127
581.6126530612245	581.8332426303855	69	127
581.6126530612245	581.8332426303855	65	127
581.8448526077098	583.1683673469388	76	127
581.8448526077098	582.3092517006803	67	127
581.8448526077098	582.3092517006803	64	127
581.8448526077098	583.1683673469388	61	127
581.8448526077098	582.47179138322	57	127
582.3092517006803	582.5530612244899	64	127
582.3092517006803	582.5530612244899	67	127
582.5646485260771	582.9013605442177	64	127
582.5646485260771	582.9013605442177	67	127
582.9013605442177	583.1683673469388	64	127
582.9013605442177	583.1683673469388	67	127
583.1683673469388	583.5282993197279	57	127
583.1683673469388	583.7372789115647	73	127
583.1683673469388	583.5282993197279	64	127
583.1683673469388	583.7372789115647	67	127
583.5282993197279	583.7372789115647	64	127
583.5282993197279	583.7372789115647	57	127
583.7372789115647	584.2016553287982	62	127
583.7372789115647	584.2016553287982	74	127
583.7372789115647	584.2016553287982	53	127
583.7372789115647	584.8982766439909	46	127
583.7372789115647	584.2016553287982	65	127
583.7372789115647	583.9926757369615	50	127
584.0042857142857	584.6312471655328	50	127
584.6428571428571	585.1536961451247	50	127
584.8982766439909	585.4091156462586	45	127
585.1769160997733	585.8502721088436	50	127
585.4091156462586	586.0128344671202	46	127
585.8619047619047	586.3959637188209	50	127
586.09410430839	586.6862131519274	68	127
586.09410430839	586.6862131519274	72	127
586.4075736961452	586.9184126984127	50	127
586.6862131519274	587.2666893424037	70	127
586.6862131519274	587.2666893424037	67	127
586.9184126984127	587.4872789115647	50	127
587.2666893424037	587.6614512471656	65	127
587.2666893424037	588.2999773242631	46	127
587.2666893424037	587.6614512471656	68	127
587.4872789115647	588.0097505668934	50	127
588.0097505668934	588.6366893424037	50	127
588.2999773242631	588.8688888888889	45	127
588.6366893424037	589.1591383219954	50	127
588.8688888888889	589.3448979591836	46	127
589.1591383219954	589.6815873015873	50	127
589.4726077097506	589.9486167800453	72	127
589.4726077097506	589.9486167800453	68	127
589.6815873015873	590.2272562358277	50	127
589.9486167800453	590.4826757369615	65	127
589.9486167800453	590.4826757369615	68	127
590.2272562358277	590.4826757369615	50	127
590.4826757369615	590.7148752834468	51	127
590.4826757369615	590.8774149659864	63	127
590.4826757369615	590.8774149659864	67	127
590.4826757369615	591.4114739229025	46	127
590.726485260771	591.1908843537415	51	127
591.2024943310657	591.6320634920635	51	127
591.4114739229025	591.8526530612245	45	127
591.6436734693877	592.1545124716554	51	127
591.8526530612245	592.3750793650794	46	127
592.1893197278912	592.7001814058957	51	127
592.4447619047619	592.932380952381	70	127
592.4447619047619	592.932380952381	67	127
592.7001814058957	593.1413605442177	51	127
592.932380952381	593.3039002267574	63	127
592.932380952381	593.3039002267574	67	127
593.1413605442177	593.640589569161	51	127
593.4083673469388	595.0337641723356	57	127
593.4083673469388	594.4648979591836	46	127
593.4083673469388	595.579455782313	66	127
593.640589569161	594.2559183673469	51	127
594.2559183673469	594.7319274376417	51	127
594.4648979591836	595.0337641723356	45	127
594.7319274376417	595.3124263038549	51	127
595.0337641723356	596.7056235827664	57	127
595.0337641723356	595.4981859410431	46	127
595.3124263038549	595.800045351474	51	127
595.579455782313	596.1831746031746	65	127
595.800045351474	596.4153741496599	53	127
596.1831746031746	596.7985034013606	63	127
596.4269841269842	596.8913605442177	54	127
596.8913605442177	597.1351927437642	58	127
596.8913605442177	597.8666213151928	46	127
596.8913605442177	598.3310204081632	62	127
596.8913605442177	597.1351927437642	46	127
597.1468027210884	597.611201814059	46	127
597.1468027210884	597.611201814059	58	127
597.6228117913832	598.0639909297053	46	127
597.6228117913832	598.0639909297053	58	127
597.8666213151928	598.3310204081632	41	127
598.0756009070295	598.586439909297	58	127
598.0756009070295	598.586439909297	46	127
598.3310204081632	598.7373696145124	42	127
598.3310204081632	602.8821315192744	61	127
598.5980498866213	599.201768707483	46	127
598.5980498866213	599.201768707483	58	127
598.8186394557823	599.5384353741497	80	127
598.8186394557823	599.5384353741497	76	127
599.201768707483	599.7474149659864	58	127
599.201768707483	599.7474149659864	46	127
599.5384353741497	600.1073469387755	78	127
599.5384353741497	600.1073469387755	75	127
599.7474149659864	600.3279365079366	46	127
599.7474149659864	600.3279365079366	58	127
600.1073469387755	600.4904761904762	76	127
600.1073469387755	600.966462585034	42	127
600.1073469387755	600.4904761904762	73	127
600.3279365079366	600.74589569161	46	127
600.3279365079366	600.74589569161	58	127
600.74589569161	601.233514739229	46	127
600.74589569161	601.233514739229	58	127
600.966462585034	601.4773242630386	41	127
601.233514739229	601.6979138321996	58	127
601.233514739229	601.6979138321996	46	127
601.4773242630386	601.8604535147392	42	127
601.6979138321996	602.1855102040817	46	127
601.6979138321996	602.1855102040817	58	127
601.9417233560091	602.4409523809524	76	127
601.9417233560091	602.4409523809524	80	127
602.1855102040817	602.731201814059	46	127
602.1855102040817	602.731201814059	58	127
602.4409523809524	603.0098185941043	73	127
602.4409523809524	603.0098185941043	76	127
602.7428117913832	603.0098185941043	46	127
602.7428117913832	603.0098185941043	58	127
603.0098185941043	603.3465306122449	47	127
603.0098185941043	603.5090702947846	75	127
603.0098185941043	604.0779591836734	42	127
603.0098185941043	605.9587755102041	66	127
603.0098185941043	603.3465306122449	59	127
603.0098185941043	603.5090702947846	71	127
603.3581405895692	603.834126984127	59	127
603.3581405895692	603.834126984127	47	127
603.8457596371882	604.2985487528344	59	127
603.8457596371882	604.2985487528344	47	127
604.0779591836734	604.5191383219955	41	127
604.3101587301587	604.7513378684807	47	127
604.3101587301587	604.7513378684807	59	127
604.5191383219955	604.9022675736961	42	127
604.7513378684807	605.2389569160998	59	127
604.7513378684807	605.2389569160998	47	127
604.9951473922903	605.4827664399093	75	127
604.9951473922903	605.4827664399093	78	127
605.2389569160998	605.7381859410431	47	127
605.2389569160998	605.7381859410431	59	127
605.4827664399093	606.086462585034	71	127
605.4827664399093	606.086462585034	75	127
605.7381859410431	606.4463945578232	47	127
605.7381859410431	606.4463945578232	59	127
606.1909750566894	608.1066213151928	74	127
606.1909750566894	609.3256689342404	68	127
606.1909750566894	607.1546031746032	42	127
606.1909750566894	609.3256689342404	65	127
606.4463945578232	606.9224036281179	59	127
606.4463945578232	606.9224036281179	47	127
606.9224036281179	607.410022675737	47	127
606.9224036281179	607.410022675737	59	127
607.1546031746032	607.630612244898	41	127
607.410022675737	607.9324489795919	47	127
607.410022675737	607.9324489795919	59	127
607.630612244898	608.1066213151928	42	127
607.9324489795919	608.4897505668935	47	127
607.9324489795919	608.4897505668935	59	127
608.1878911564626	608.8612698412699	73	127
608.4897505668935	609.1631292517006	61	127
608.4897505668935	609.1631292517006	49	127
608.8612698412699	609.3604761904762	71	127
609.1747392290249	609.4533786848073	62	127
609.1747392290249	609.4533786848073	50	127
609.4533786848073	610.0106575963719	61	127
609.4533786848073	609.8597278911565	66	127
609.4533786848073	609.8597278911565	70	127
609.4533786848073	610.1151473922903	42	127
609.4533786848073	610.0106575963719	49	127
609.8713378684807	610.3357369614513	70	127
609.8713378684807	610.3357369614513	66	127
610.1151473922903	610.6027664399093	41	127
610.3473469387756	610.8814058956916	66	127
610.3473469387756	610.8814058956916	70	127
610.6027664399093	611.1252154195012	57	127
610.6027664399093	611.0439455782313	42	127
610.6027664399093	611.1252154195012	45	127
610.8930158730159	611.3458049886622	73	127
610.8930158730159	611.3458049886622	66	127
611.1252154195012	611.9843537414966	46	127
611.1252154195012	611.9843537414966	58	127
611.1252154195012	611.6128117913833	49	127
611.3458049886622	611.8566439909297	66	127
611.3458049886622	611.8566439909297	76	127
611.6128117913833	612.088843537415	41	127
611.8566439909297	612.309433106576	66	127
611.8566439909297	612.309433106576	76	127
612.088843537415	612.530022675737	45	127
612.088843537415	612.530022675737	57	127
612.088843537415	612.4603628117914	42	127
612.309433106576	612.7854421768708	82	127
612.309433106576	612.7854421768708	73	127
612.530022675737	613.3543310657597	58	127
612.530022675737	613.3543310657597	46	127
612.530022675737	613.0176417233561	54	127
612.7854421768708	613.2498185941043	85	127
612.7854421768708	613.2498185941043	76	127
613.0176417233561	613.5168707482993	41	127
613.2498185941043	613.7606802721089	76	127
613.2498185941043	613.7606802721089	85	127
613.5168707482993	614.0625170068028	45	127
613.5168707482993	614.0625170068028	57	127
613.5168707482993	613.9232199546485	42	127
613.5168707482993	614.0625170068028	69	127
613.7606802721089	614.0625170068028	85	127
613.7606802721089	614.0625170068028	76	127
614.0625170068028	614.7010884353741	54	127
614.0625170068028	615.0493877551021	70	127
614.0625170068028	615.0493877551021	58	127
614.0625170068028	614.4340589569161	73	127
614.0625170068028	615.0493877551021	46	127
614.0625170068028	614.4340589569161	76	127
614.0625170068028	614.4340589569161	88	127
614.4340589569161	614.9332879818594	73	127
614.4340589569161	614.9332879818594	76	127
614.4340589569161	614.9332879818594	88	127
614.7010884353741	615.1770975056689	41	127
614.9448979591837	615.4092970521542	73	127
614.9448979591837	615.4092970521542	88	127
614.9448979591837	615.4092970521542	76	127
615.1770975056689	615.711156462585	57	127
615.1770975056689	615.711156462585	69	127
615.1770975056689	615.711156462585	45	127
615.1770975056689	615.711156462585	42	127
615.4325170068028	615.7808163265306	73	127
615.4325170068028	615.7808163265306	76	127
615.4325170068028	615.7808163265306	88	127
615.7808163265306	616.8257142857143	46	127
615.7808163265306	616.8257142857143	70	127
615.7808163265306	615.9897959183673	89	127
615.7808163265306	615.9897959183673	77	127
615.7808163265306	616.8257142857143	58	127
615.7808163265306	615.9897959183673	41	127
615.7808163265306	615.9897959183673	74	127
616.0014058956916	616.5238548752834	41	127
616.0014058956916	616.5238548752834	89	127
616.0014058956916	616.5238548752834	74	127
616.0014058956916	616.5238548752834	77	127
616.5354648526077	617.0579138321996	89	127
616.5354648526077	617.0579138321996	41	127
616.5354648526077	616.8257142857143	74	127
616.5354648526077	617.0579138321996	77	127
616.8257142857143	617.2785034013606	69	127
616.8257142857143	617.2785034013606	57	127
616.8257142857143	617.2785034013606	45	127
616.8257142857143	617.0579138321996	72	127
617.0695238095238	617.5455328798186	77	127
617.0695238095238	617.5455328798186	89	127
617.0695238095238	617.5455328798186	41	127
617.0695238095238	617.2785034013606	72	127
617.2785034013606	617.8009523809524	58	127
617.2785034013606	617.8009523809524	46	127
617.2785034013606	617.8009523809524	70	127
617.2785034013606	617.5455328798186	74	127
617.5455328798186	618.1028117913833	41	127
617.5455328798186	617.8009523809524	74	127
617.5455328798186	618.1028117913833	77	127
617.5455328798186	618.1028117913833	89	127
617.8009523809524	618.3234013605443	74	127
617.8009523809524	618.3234013605443	50	127
617.8009523809524	618.3234013605443	62	127
617.8009523809524	618.1028117913833	70	127
618.1028117913833	618.532380952381	89	127
618.1028117913833	618.3234013605443	70	127
618.1028117913833	618.532380952381	41	127
618.1028117913833	618.532380952381	77	127
618.3234013605443	618.7761904761904	48	127
618.3234013605443	618.7761904761904	72	127
618.3234013605443	618.532380952381	67	127
618.3234013605443	618.7761904761904	60	127
618.532380952381	618.845850340136	88	127
618.532380952381	618.845850340136	76	127
618.532380952381	618.845850340136	67	127
618.532380952381	619.1709070294785	41	127
618.845850340136	619.1709070294785	77	127
618.845850340136	619.3915192743764	69	127
618.845850340136	619.3915192743764	45	127
618.845850340136	619.1709070294785	89	127
618.845850340136	619.3915192743764	57	127
618.845850340136	619.1709070294785	72	127
619.1709070294785	619.3915192743764	72	127
619.1709070294785	619.6237188208617	77	127
619.1709070294785	619.6237188208617	41	127
619.1709070294785	619.6237188208617	89	127
619.3915192743764	619.6237188208617	69	127
619.3915192743764	619.7862358276644	53	127
619.3915192743764	619.7862358276644	65	127
619.3915192743764	619.7862358276644	41	127
619.6237188208617	619.8675283446712	89	127
619.6237188208617	619.8675283446712	77	127
619.6237188208617	619.8675283446712	69	127
619.6237188208617	620.0765079365079	41	127
619.8675283446712	620.0765079365079	72	127
619.8675283446712	620.0765079365079	75	127
619.8675283446712	620.2854875283447	57	127
619.8675283446712	620.2854875283447	69	127
619.8675283446712	620.2854875283447	45	127
619.8675283446712	620.0765079365079	87	127
620.0765079365079	620.2854875283447	75	127
620.0765079365079	620.2854875283447	72	127
620.0765079365079	620.51768707483	41	127
620.0765079365079	620.2854875283447	87	127
620.2854875283447	620.51768707483	86	127
620.2854875283447	620.51768707483	74	127
620.2854875283447	620.7498866213152	46	127
620.2854875283447	620.7498866213152	70	127
620.2854875283447	620.7498866213152	58	127
620.51768707483	621.0401360544217	86	127
620.51768707483	621.0401360544217	74	127
620.51768707483	621.0401360544217	41	127
620.51768707483	620.7498866213152	74	127
620.7498866213152	621.2607256235827	50	127
620.7498866213152	621.2607256235827	62	127
620.7498866213152	621.2607256235827	74	127
620.7498866213152	621.0401360544217	70	127
621.051746031746	621.2607256235827	86	127
621.051746031746	621.492925170068	41	127
621.051746031746	621.2607256235827	70	127
621.051746031746	621.2607256235827	74	127
621.2607256235827	621.492925170068	67	127
621.2607256235827	621.492925170068	88	127
621.2607256235827	621.492925170068	76	127
621.2607256235827	621.6438548752834	72	127
621.2607256235827	621.6438548752834	48	127
621.2607256235827	621.6438548752834	60	127
621.5045351473923	621.93410430839	41	127
621.5045351473923	621.713514739229	67	127
621.5045351473923	621.713514739229	88	127
621.5045351473923	621.713514739229	76	127
621.713514739229	621.93410430839	89	127
621.713514739229	622.1779138321996	69	127
621.713514739229	622.1779138321996	57	127
621.713514739229	621.93410430839	72	127
621.713514739229	622.1779138321996	45	127
621.713514739229	621.93410430839	77	127
621.9457142857143	622.4797732426304	77	127
621.9457142857143	622.4797732426304	89	127
621.9457142857143	622.1779138321996	72	127
621.9457142857143	622.4797732426304	41	127
622.1779138321996	622.6307029478459	65	127
622.1779138321996	622.6307029478459	41	127
622.1779138321996	622.6307029478459	53	127
622.1779138321996	622.4797732426304	69	127
622.4913832199546	622.9093424036281	41	127
622.4913832199546	622.9093424036281	77	127
622.4913832199546	622.9093424036281	89	127
622.4913832199546	622.9093424036281	69	127
622.7003628117914	623.8497505668935	65	127
622.7003628117914	623.8497505668935	77	127
622.7003628117914	623.8497505668935	53	127
622.9093424036281	623.4201814058957	41	127
622.9093424036281	623.1415419501134	69	127
622.9093424036281	623.1415419501134	77	127
623.1415419501134	623.4201814058957	70	127
623.1415419501134	623.4201814058957	79	127
623.4201814058957	624.14	79	127
623.4201814058957	624.14	70	127
623.4201814058957	624.14	41	127
623.8497505668935	624.4070294784581	75	127
623.8497505668935	624.4070294784581	51	127
623.8497505668935	624.4070294784581	63	127
624.14	624.4070294784581	70	127
624.14	624.7204988662131	41	127
624.14	624.360589569161	79	127
624.4070294784581	624.8714285714286	65	127
624.4070294784581	624.8714285714286	53	127
624.4070294784581	624.8714285714286	77	127
624.4070294784581	624.7204988662131	81	127
624.4070294784581	624.7204988662131	72	127
624.7204988662131	624.9759183673469	81	127
624.7204988662131	624.9759183673469	72	127
624.7204988662131	625.2545578231293	41	127
624.9759183673469	625.2545578231293	70	127
624.9759183673469	625.5099546485261	75	127
624.9759183673469	625.2545578231293	82	127
624.9759183673469	625.5099546485261	63	127
624.9759183673469	625.5099546485261	51	127
625.2545578231293	625.7653968253968	41	127
625.2545578231293	625.7653968253968	82	127
625.2545578231293	625.7653968253968	70	127
625.5099546485261	625.9163038548753	74	127
625.5099546485261	625.9163038548753	62	127
625.5099546485261	625.9163038548753	50	127
625.7653968253968	625.9975963718821	41	127
625.7653968253968	626.2297959183674	70	127
625.7653968253968	625.9975963718821	82	127
625.9975963718821	626.2297959183674	85	127
625.9975963718821	626.2297959183674	42	127
625.9975963718821	626.7058049886622	73	127
625.9975963718821	626.7058049886622	61	127
625.9975963718821	626.7058049886622	49	127
626.2297959183674	626.4619954648526	73	127
626.2297959183674	626.4619954648526	42	127
626.2297959183674	626.4619954648526	85	127
626.2297959183674	626.4619954648526	70	127
626.4619954648526	626.7058049886622	39	127
626.4619954648526	626.7058049886622	78	127
626.4619954648526	626.7058049886622	90	127
626.4619954648526	626.7058049886622	82	127
626.7058049886622	627.2514739229025	90	127
626.7058049886622	626.9263718820862	75	127
626.7058049886622	626.9263718820862	63	127
626.7058049886622	627.2514739229025	78	127
626.7058049886622	627.2514739229025	82	127
626.7058049886622	627.2514739229025	39	127
626.7058049886622	626.9263718820862	51	127
626.9263718820862	627.0308843537415	49	127
626.9263718820862	627.0308843537415	73	127
626.9263718820862	627.0308843537415	61	127
627.0308843537415	627.4720634920635	72	127
627.0308843537415	627.4720634920635	60	127
627.0308843537415	627.4720634920635	48	127
627.2630839002268	627.4720634920635	90	127
627.2630839002268	627.4720634920635	82	127
627.2630839002268	627.4720634920635	78	127
627.2630839002268	627.4720634920635	39	127
627.4720634920635	627.7971428571428	73	127
627.4720634920635	627.7971428571428	40	127
627.4720634920635	627.9596598639456	70	127
627.4720634920635	627.9596598639456	58	127
627.4720634920635	627.9596598639456	46	127
627.4720634920635	627.7971428571428	91	127
627.4720634920635	627.7971428571428	79	127
627.8087528344671	628.0293424036281	91	127
627.8087528344671	628.0293424036281	40	127
627.8087528344671	628.0293424036281	73	127
627.8087528344671	628.0293424036281	79	127
628.0293424036281	628.3195918367347	89	127
628.0293424036281	629.039410430839	69	127
628.0293424036281	629.039410430839	45	127
628.0293424036281	629.039410430839	57	127
628.0293424036281	628.3195918367347	72	127
628.0293424036281	628.3195918367347	77	127
628.0293424036281	628.3195918367347	41	127
628.331201814059	628.7956009070294	77	127
628.331201814059	628.7956009070294	41	127
628.331201814059	628.7956009070294	89	127
628.331201814059	628.7956009070294	72	127
628.8072108843537	629.3064399092971	72	127
628.8072108843537	629.3064399092971	84	127
628.8072108843537	629.3064399092971	41	127
629.039410430839	629.480589569161	48	127
629.039410430839	629.480589569161	72	127
629.039410430839	629.480589569161	60	127
629.3064399092971	629.5618594104309	81	127
629.3064399092971	629.5618594104309	72	127
629.3064399092971	629.5618594104309	41	127
629.5618594104309	630.0610884353741	77	127
629.5618594104309	630.3977777777778	41	127
629.5618594104309	630.0610884353741	69	127
629.5618594104309	629.7708390022676	65	127
629.5618594104309	629.7708390022676	41	127
629.5618594104309	629.7708390022676	53	127
629.7708390022676	630.2816780045351	65	127
629.7708390022676	630.2816780045351	41	127
629.7708390022676	630.2816780045351	53	127
630.0610884353741	630.537097505669	79	127
630.0610884353741	630.537097505669	70	127
630.2816780045351	630.804126984127	53	127
630.2816780045351	630.804126984127	65	127
630.2816780045351	630.537097505669	41	127
630.537097505669	630.9550566893424	72	127
630.537097505669	630.804126984127	39	127
630.537097505669	630.9550566893424	81	127
630.537097505669	630.9550566893424	39	127
630.804126984127	631.0827664399093	39	127
630.804126984127	631.3730158730159	65	127
630.804126984127	631.3730158730159	53	127
631.0827664399093	631.3730158730159	38	127
631.0827664399093	631.640022675737	74	127
631.0827664399093	631.5587755102041	38	127
631.0827664399093	631.640022675737	82	127
631.3730158730159	631.9767346938776	53	127
631.3730158730159	631.9767346938776	65	127
631.3730158730159	631.9767346938776	38	127
631.640022675737	632.1624943310658	77	127
631.640022675737	632.1624943310658	50	127
631.9767346938776	632.4643310657597	65	127
631.9767346938776	632.2321541950114	38	127
631.9767346938776	632.4643310657597	53	127
632.2321541950114	632.6733106575964	84	127
632.2321541950114	632.4643310657597	36	127
632.2321541950114	632.6036734693878	48	127
632.2321541950114	632.6733106575964	81	127
632.4643310657597	632.9287528344671	65	127
632.4643310657597	632.9287528344671	53	127
632.4643310657597	632.6733106575964	36	127
632.6733106575964	633.1493424036281	82	127
632.6733106575964	633.9504308390023	46	127
632.6733106575964	633.1493424036281	86	127
632.6733106575964	632.9287528344671	46	127
632.9403628117914	633.3583219954648	46	127
632.9403628117914	633.3583219954648	65	127
632.9403628117914	633.3583219954648	53	127
633.1493424036281	633.6021315192744	85	127
633.1493424036281	633.6021315192744	81	127
633.3699319727891	633.8343310657597	53	127
633.3699319727891	633.8343310657597	46	127
633.3699319727891	633.8343310657597	65	127
633.6021315192744	635.4132879818594	86	127
633.6021315192744	633.9852607709751	82	127
633.8459410430839	634.1013378684808	46	127
633.8459410430839	634.1013378684808	65	127
633.8459410430839	634.1013378684808	53	127
634.1013378684808	634.5425396825397	55	127
634.1013378684808	634.5425396825397	74	127
634.1013378684808	634.5425396825397	71	127
634.1013378684808	634.3219501133786	43	127
634.1013378684808	635.4132879818594	83	127
634.1013378684808	634.3219501133786	55	127
634.1013378684808	634.3219501133786	67	127
634.1013378684808	634.5425396825397	74	127
634.1013378684808	635.4132879818594	43	127
634.3335600907029	634.7747392290249	67	127
634.3335600907029	634.7747392290249	55	127
634.3335600907029	634.7747392290249	43	127
634.5425396825397	635.0882086167801	73	127
634.5425396825397	635.0882086167801	70	127
634.5425396825397	635.0882086167801	73	127
634.7863492063492	635.2971882086168	67	127
634.7863492063492	635.2971882086168	55	127
634.7863492063492	635.2971882086168	43	127
635.0882086167801	635.4481179138322	74	127
635.0882086167801	635.4481179138322	71	127
635.0882086167801	635.4481179138322	74	127
635.2971882086168	635.7267346938776	43	127
635.2971882086168	635.7267346938776	55	127
635.2971882086168	635.7267346938776	67	127
635.5177551020408	635.9589569160997	79	127
635.5177551020408	635.9589569160997	71	127
635.5177551020408	636.2724263038549	43	127
635.7267346938776	636.1679365079365	55	127
635.7267346938776	636.1679365079365	67	127
635.7267346938776	636.1679365079365	43	127
635.9589569160997	636.3885260770975	72	127
635.9589569160997	636.3885260770975	81	127
636.1679365079365	636.3885260770975	43	127
636.1679365079365	636.7019954648526	55	127
636.1679365079365	636.7019954648526	67	127
636.3885260770975	636.9457823129252	74	127
636.3885260770975	636.9457823129252	41	127
636.3885260770975	636.7019954648526	41	127
636.3885260770975	636.9457823129252	83	127
636.7019954648526	637.2708843537415	55	127
636.7019954648526	637.2708843537415	67	127
636.7019954648526	637.027074829932	41	127
637.027074829932	637.2708843537415	39	127
637.027074829932	637.4914739229025	75	127
637.027074829932	637.4102040816326	39	127
637.027074829932	637.4914739229025	84	127
637.2708843537415	637.7585034013606	55	127
637.2708843537415	637.7585034013606	67	127
637.2708843537415	637.7585034013606	39	127
637.4914739229025	637.8978231292517	79	127
637.4914739229025	637.8978231292517	51	127
637.7585034013606	638.2925623582767	67	127
637.7585034013606	637.9674603174603	39	127
637.7585034013606	638.2925623582767	55	127
637.9674603174603	638.5247619047619	72	127
637.9674603174603	638.4318820861678	48	127
637.9674603174603	638.2925623582767	36	127
637.9674603174603	638.5247619047619	87	127
638.2925623582767	638.5247619047619	67	127
638.2925623582767	638.5247619047619	36	127
638.2925623582767	638.5247619047619	55	127
638.5247619047619	639.0936507936508	74	127
638.5247619047619	638.8150113378684	46	127
638.5247619047619	638.8150113378684	70	127
638.5247619047619	638.8150113378684	58	127
638.5247619047619	639.9527891156463	46	127
638.5247619047619	639.0936507936508	89	127
638.8498412698412	639.3026303854875	58	127
638.8498412698412	639.3026303854875	70	127
638.8498412698412	639.3026303854875	46	127
639.0936507936508	639.5464399092971	88	127
639.0936507936508	639.5464399092971	73	127
639.3142403628118	639.8366893424036	46	127
639.3142403628118	639.8366893424036	70	127
639.3142403628118	639.8366893424036	58	127
639.5464399092971	639.9992290249434	74	127
639.5464399092971	641.2879365079365	89	127
639.8482993197279	640.2778684807256	70	127
639.8482993197279	640.0688888888889	46	127
639.8482993197279	640.2778684807256	58	127
640.0688888888889	640.2778684807256	44	127
640.0688888888889	640.5332879818594	70	127
640.0688888888889	640.5332879818594	77	127
640.0688888888889	640.5332879818594	62	127
640.0688888888889	641.2879365079365	44	127
640.0688888888889	640.5332879818594	74	127
640.0688888888889	640.5332879818594	77	127
640.2894784580499	640.7422675736962	44	127
640.2894784580499	640.7422675736962	70	127
640.2894784580499	640.7422675736962	58	127
640.5332879818594	640.9628571428572	73	127
640.5332879818594	640.9628571428572	76	127
640.5332879818594	640.9628571428572	76	127
640.7422675736962	641.1718367346939	70	127
640.7422675736962	641.1718367346939	58	127
640.7422675736962	641.1718367346939	44	127
640.9628571428572	641.3227664399093	77	127
640.9628571428572	641.3227664399093	77	127
640.9628571428572	641.3227664399093	74	127
641.1718367346939	641.6710430839003	58	127
641.1718367346939	641.4156462585034	44	127
641.1718367346939	641.6710430839003	70	127
641.4156462585034	641.6710430839003	43	127
641.4156462585034	641.9148752834467	70	127
641.4156462585034	641.6710430839003	63	127
641.4156462585034	641.9148752834467	82	127
641.4156462585034	642.3096145124716	43	127
641.6710430839003	642.1819047619048	63	127
641.6710430839003	641.9148752834467	43	127
641.6710430839003	642.1819047619048	70	127
641.9148752834467	642.4257142857143	84	127
641.9148752834467	642.4257142857143	82	127
641.9148752834467	642.1819047619048	55	127
642.1819047619048	642.4257142857143	55	127
642.1819047619048	642.4257142857143	70	127
642.1819047619048	642.4257142857143	63	127
642.4257142857143	642.808843537415	80	127
642.4257142857143	642.808843537415	41	127
642.4257142857143	642.808843537415	86	127
642.4257142857143	642.6463038548753	53	127
642.4257142857143	642.6463038548753	58	127
642.4257142857143	642.6463038548753	68	127
642.6463038548753	642.8900907029479	53	127
642.6463038548753	642.8900907029479	68	127
642.6463038548753	643.2151927437642	58	127
642.8900907029479	643.470612244898	87	127
642.8900907029479	643.470612244898	46	127
642.8900907029479	643.470612244898	79	127
642.8900907029479	643.470612244898	39	127
642.8900907029479	643.2151927437642	51	127
642.8900907029479	643.2151927437642	67	127
643.2151927437642	643.784081632653	58	127
643.2151927437642	643.470612244898	67	127
643.2151927437642	643.470612244898	51	127
643.470612244898	643.784081632653	50	127
643.470612244898	644.0162811791383	46	127
643.470612244898	643.784081632653	65	127
643.470612244898	644.0162811791383	82	127
643.470612244898	644.0162811791383	77	127
643.470612244898	644.0162811791383	38	127
643.784081632653	644.3645804988662	58	127
643.784081632653	644.1207482993198	65	127
643.784081632653	644.1207482993198	50	127
644.1207482993198	644.5735600907029	89	127
644.1207482993198	644.5039002267574	46	127
644.1207482993198	644.5735600907029	70	127
644.1207482993198	644.5039002267574	37	127
644.1207482993198	644.3645804988662	49	127
644.1207482993198	644.3645804988662	58	127
644.3645804988662	644.7941496598639	58	127
644.3645804988662	644.5735600907029	58	127
644.3645804988662	644.5735600907029	49	127
644.5735600907029	645.0263492063492	91	127
644.5735600907029	645.9667346938776	36	127
644.5735600907029	645.9667346938776	46	127
644.5735600907029	645.502358276644	76	127
644.5735600907029	644.7941496598639	64	127
644.5735600907029	644.7941496598639	48	127
644.8057596371882	645.235328798186	48	127
644.8057596371882	645.235328798186	58	127
644.8057596371882	645.235328798186	64	127
645.0263492063492	645.6068480725623	90	127
645.3049886621316	645.8506575963719	64	127
645.3049886621316	645.8506575963719	58	127
645.3049886621316	645.8506575963719	48	127
645.6068480725623	646.0131972789115	91	127
645.6068480725623	646.0828571428572	76	127
645.8622675736962	646.0828571428572	64	127
645.8622675736962	646.0828571428572	48	127
645.8622675736962	646.0828571428572	58	127
646.0828571428572	646.2918367346939	53	127
646.0828571428572	646.8375056689342	41	127
646.0828571428572	646.2918367346939	60	127
646.0828571428572	646.2918367346939	63	127
646.0828571428572	646.8375056689342	75	127
646.0828571428572	646.4079365079365	93	127
646.3034467120182	646.7214058956916	60	127
646.3034467120182	646.7214058956916	63	127
646.3034467120182	646.7214058956916	53	127
646.4079365079365	646.4543764172336	94	127
646.4543764172336	646.5124263038549	93	127
646.5124263038549	646.9419954648527	92	127
646.7214058956916	646.9419954648527	53	127
646.7214058956916	646.9419954648527	63	127
646.7214058956916	646.9419954648527	60	127
646.9419954648527	647.4296145124716	72	127
646.9419954648527	647.1741723356009	63	127
646.9419954648527	647.1741723356009	60	127
646.9419954648527	647.3483446712019	42	127
646.9419954648527	647.1741723356009	54	127
646.9419954648527	647.3483446712019	93	127
647.1741723356009	647.4296145124716	54	127
647.1741723356009	647.6966439909297	63	127
647.1741723356009	647.4296145124716	60	127
647.4296145124716	647.9752834467121	70	127
647.4296145124716	648.9156916099773	43	127
647.4296145124716	647.6966439909297	58	127
647.4296145124716	647.6966439909297	55	127
647.4296145124716	647.9752834467121	94	127
647.6966439909297	647.9752834467121	58	127
647.6966439909297	648.2539229024943	63	127
647.6966439909297	648.2539229024943	55	127
647.9752834467121	648.5093424036281	91	127
647.9752834467121	648.5093424036281	71	127
647.9752834467121	648.2539229024943	59	127
648.2539229024943	648.7995918367347	63	127
648.2539229024943	648.7995918367347	55	127
648.2539229024943	648.5093424036281	59	127
648.5093424036281	648.7995918367347	60	127
648.5093424036281	648.9505215419501	72	127
648.5093424036281	648.7995918367347	87	127
648.7995918367347	649.031768707483	63	127
648.7995918367347	648.8808616780045	86	127
648.7995918367347	649.031768707483	55	127
648.7995918367347	649.031768707483	60	127
648.8808616780045	648.9505215419501	87	127
648.9505215419501	649.031768707483	89	127
649.031768707483	649.4613605442177	79	127
649.031768707483	649.2407709750566	72	127
649.031768707483	649.2407709750566	67	127
649.031768707483	649.3800907029479	39	127
649.031768707483	649.2407709750566	51	127
649.031768707483	649.4613605442177	87	127
649.2407709750566	649.4613605442177	51	127
649.2407709750566	649.4613605442177	67	127
649.2407709750566	649.4613605442177	72	127
649.4613605442177	650.0186394557824	86	127
649.4613605442177	650.0186394557824	77	127
649.4613605442177	649.7864399092971	71	127
649.4613605442177	649.9489795918367	41	127
649.4613605442177	649.7864399092971	65	127
649.4613605442177	649.7864399092971	53	127
649.7864399092971	650.0186394557824	71	127
649.7864399092971	650.0186394557824	65	127
649.7864399092971	650.0186394557824	53	127
650.0186394557824	650.4597959183674	84	127
650.0186394557824	650.4597959183674	76	127
650.0186394557824	650.4597959183674	43	127
650.0186394557824	650.2508163265306	55	127
650.0186394557824	650.2508163265306	70	127
650.0186394557824	650.2508163265306	64	127
650.2624489795918	650.5875283446712	55	127
650.2624489795918	650.5875283446712	70	127
650.2624489795918	650.5875283446712	64	127
650.5875283446712	651.5279365079365	77	127
650.5875283446712	651.5279365079365	50	127
650.5875283446712	651.5279365079365	58	127
650.5875283446712	651.5279365079365	89	127
650.5875283446712	651.0403174603175	62	127
650.5875283446712	651.0403174603175	65	127
650.5875283446712	651.5279365079365	41	127
651.0403174603175	651.3421768707483	58	127
651.0403174603175	651.3421768707483	65	127
651.3421768707483	651.6092063492064	70	127
651.3421768707483	651.6092063492064	62	127
651.6208163265306	651.8297959183674	74	127
651.8297959183674	652.0271655328798	65	127
652.0387755102041	652.2477551020409	86	127
652.0387755102041	652.2477551020409	74	127
652.2477551020409	653.2229931972789	53	127
652.2477551020409	653.2229931972789	77	127
652.2477551020409	653.2229931972789	89	127
652.2477551020409	652.828253968254	62	127
652.2477551020409	652.828253968254	53	127
652.2477551020409	653.2229931972789	59	127
652.2477551020409	653.2229931972789	41	127
652.2477551020409	653.2229931972789	50	127
652.828253968254	653.0836734693878	65	127
652.828253968254	653.0836734693878	59	127
653.0836734693878	653.2926530612245	62	127
653.0836734693878	653.2926530612245	71	127
653.2926530612245	653.5132199546485	74	127
653.5132199546485	653.757052154195	65	127
653.757052154195	654.0473015873016	74	127
653.757052154195	654.0473015873016	86	127
654.0473015873016	654.5233106575964	77	127
654.0473015873016	654.5233106575964	63	127
654.0473015873016	654.7322902494332	89	127
654.0473015873016	654.9877097505669	41	127
654.0473015873016	654.5233106575964	53	127
654.0473015873016	654.9877097505669	51	127
654.0473015873016	654.9877097505669	60	127
654.0473015873016	654.9877097505669	53	127
654.5233106575964	654.8019501133787	60	127
654.5233106575964	654.8019501133787	65	127
654.5233106575964	654.8019501133787	75	127
654.8019501133787	655.0921995464853	63	127
654.8019501133787	655.0921995464853	65	127
654.8019501133787	655.0921995464853	72	127
655.0921995464853	655.3243990929706	75	127
655.0921995464853	655.3243990929706	87	127
655.3243990929706	655.521768707483	77	127
655.3243990929706	655.5681859410431	89	127
655.521768707483	655.6262585034013	75	127
655.6262585034013	655.8004081632653	65	127
655.8004081632653	656.0326077097506	75	127
655.8004081632653	656.0326077097506	87	127
656.0326077097506	656.4273469387755	81	127
656.0326077097506	656.5898639455783	93	127
656.4273469387755	656.6479365079365	75	127
656.6479365079365	656.9730158730159	69	127
657.1471655328799	659.9335600907029	75	127
657.1471655328799	657.3793650793651	93	127
657.3793650793651	659.9335600907029	84	127
657.3793650793651	659.9335600907029	96	127
657.8785941043084	658.4707029478458	56	127
657.8785941043084	658.4707029478458	41	127
657.8785941043084	658.4707029478458	68	127
658.4707029478458	659.0628117913832	69	127
658.4707029478458	659.0628117913832	42	127
658.4707029478458	659.0628117913832	57	127
659.0628117913832	659.8638775510204	43	127
659.0628117913832	659.8638775510204	58	127
659.0628117913832	659.8638775510204	70	127
659.9335600907029	660.2934693877551	82	127
659.9335600907029	660.2934693877551	74	127
659.9335600907029	660.2934693877551	94	127
660.3631292517007	660.8739455782313	70	127
660.3631292517007	660.8739455782313	82	127
660.9436281179138	662.9869841269841	92	127
660.9436281179138	662.9173015873016	80	127
660.9436281179138	662.9173015873016	77	127
661.349977324263	662.0697959183674	49	127
661.349977324263	662.0697959183674	46	127
661.349977324263	662.0697959183674	61	127
662.0697959183674	662.5225623582767	47	127
662.0697959183674	662.5225623582767	62	127
662.0697959183674	662.5225623582767	50	127
662.5225623582767	663.3352607709751	51	127
662.5225623582767	663.3352607709751	48	127
662.5225623582767	663.3352607709751	63	127
662.5225623582767	663.3352607709751	36	127
662.9869841269841	663.4049433106576	91	127
662.9869841269841	663.4049433106576	79	127
662.9869841269841	663.4049433106576	75	127
663.5210430839003	664.7400907029479	92	127
663.5210430839003	664.7400907029479	80	127
663.5210430839003	664.1595691609978	49	127
663.5210430839003	664.1595691609978	52	127
663.5210430839003	664.1595691609978	37	127
663.5210430839003	664.1595691609978	64	127
663.5210430839003	664.7400907029479	70	127
664.1595691609978	665.1464399092971	50	127
664.1595691609978	665.1464399092971	65	127
664.1595691609978	665.1464399092971	53	127
664.1595691609978	665.1464399092971	38	127
664.7400907029479	665.1812471655329	91	127
664.7400907029479	665.1812471655329	70	127
664.7400907029479	665.1812471655329	79	127
665.2509297052154	665.9243083900227	70	127
665.2509297052154	665.9243083900227	80	127
665.2509297052154	665.9243083900227	66	127
665.2509297052154	665.9243083900227	54	127
665.2509297052154	665.9243083900227	92	127
665.2509297052154	665.9243083900227	50	127
665.2509297052154	665.9243083900227	38	127
665.9243083900227	666.4931972789116	91	127
665.9243083900227	666.4931972789116	70	127
665.9243083900227	667.3175056689342	51	127
665.9243083900227	666.4931972789116	79	127
665.9243083900227	666.8414965986394	67	127
665.9243083900227	666.8414965986394	55	127
665.9243083900227	667.3175056689342	39	127
666.4931972789116	666.9575963718821	87	127
666.4931972789116	666.9575963718821	75	127
666.9575963718821	667.3639455782313	72	127
666.9575963718821	667.3639455782313	84	127
666.9575963718821	667.3639455782313	63	127
666.9575963718821	667.3639455782313	51	127
667.5961451247166	668.0489115646259	70	127
667.5961451247166	668.9196825396825	41	127
667.5961451247166	668.0489115646259	50	127
667.5961451247166	668.0489115646259	62	127
667.5961451247166	668.0489115646259	82	127
667.5961451247166	668.4785034013605	53	127
668.0489115646259	668.5946031746032	63	127
668.0489115646259	668.5946031746032	72	127
668.0489115646259	668.5946031746032	77	127
668.0489115646259	668.5946031746032	51	127
668.5946031746032	668.9545124716553	53	127
668.5946031746032	668.9545124716553	74	127
668.5946031746032	668.9545124716553	53	127
668.5946031746032	668.9545124716553	65	127
668.5946031746032	668.9545124716553	70	127
669.244761904762	670.3360997732426	62	127
669.244761904762	670.7888888888889	65	127
669.244761904762	670.3360997732426	77	127
669.244761904762	670.9746485260771	41	127
669.244761904762	669.6278911564626	65	127
669.244761904762	670.3360997732426	53	127
669.6278911564626	669.8716780045352	62	127
669.8716780045352	670.1039002267573	58	127
670.1039002267573	670.3360997732426	53	127
670.3360997732426	670.7888888888889	51	127
670.3360997732426	671.0094784580499	60	127
670.3360997732426	671.0094784580499	53	127
670.3360997732426	671.0094784580499	69	127
670.7888888888889	671.0791383219955	63	127
670.7888888888889	671.0791383219955	48	127
671.0791383219955	672.6697052154195	46	127
671.0791383219955	671.8221768707483	58	127
671.0791383219955	671.8221768707483	70	127
671.0791383219955	671.6480272108844	53	127
671.0791383219955	672.6697052154195	62	127
671.0791383219955	671.8221768707483	46	127
671.6480272108844	672.251746031746	53	127
672.251746031746	673.0992743764173	53	127
672.6697052154195	673.2850340136055	45	127
672.6697052154195	673.2850340136055	60	127
673.0992743764173	673.6449433106576	53	127
673.401133786848	673.8771428571429	62	127
673.401133786848	673.8771428571429	46	127
673.6449433106576	674.144172335601	53	127
673.8771428571429	674.3763492063492	65	127
673.8771428571429	674.3763492063492	50	127
674.144172335601	674.6434013605442	53	127
674.3763492063492	674.8639909297052	48	127
674.3763492063492	674.8639909297052	63	127
674.6434013605442	675.1658503401361	53	127
674.9336507936508	675.3980272108844	60	127
674.9336507936508	675.3980272108844	45	127
675.1658503401361	675.6418594104308	53	127
675.3980272108844	675.9088888888889	48	127
675.3980272108844	675.9088888888889	63	127
675.6418594104308	676.2920181405896	53	127
675.9088888888889	676.4777777777778	62	127
675.9088888888889	676.4777777777778	46	127
676.2920181405896	676.8492970521542	53	127
676.5822675736962	677.0931065759637	41	127
676.5822675736962	677.0931065759637	57	127
676.8492970521542	677.3369160997732	53	127
677.0931065759637	677.6155555555556	58	127
677.0931065759637	677.6155555555556	43	127
677.3369160997732	677.9174149659864	53	127
677.6155555555556	678.079954648526	60	127
677.6155555555556	678.079954648526	45	127
677.9174149659864	678.8926530612245	53	127
678.207664399093	679.1480725623583	80	127
678.207664399093	679.3338321995465	46	127
678.207664399093	678.8926530612245	46	127
678.207664399093	678.8926530612245	62	127
678.7185034013605	678.9623129251701	50	127
678.9623129251701	679.2177324263039	62	127
679.1480725623583	679.2873696145125	79	127
679.2177324263039	679.5195918367347	50	127
679.2873696145125	679.5195918367347	80	127
679.5195918367347	679.9839909297052	46	127
679.5195918367347	679.7401814058957	84	127
679.5195918367347	679.8214512471656	51	127
679.7401814058957	679.9026984126984	82	127
679.8214512471656	680.0536507936508	63	127
679.9026984126984	680.0536507936508	79	127
680.0536507936508	681.0056689342404	46	127
680.0536507936508	680.3206802721088	82	127
680.3206802721088	680.4948299319728	80	127
680.4251700680272	680.6457596371882	53	127
680.4948299319728	680.7850793650794	74	127
680.6457596371882	680.8895691609978	65	127
680.7966893424036	680.9592290249433	73	127
680.8895691609978	681.16820861678	53	127
680.9592290249433	681.16820861678	74	127
681.16820861678	681.4584580498866	55	127
681.16820861678	681.6326077097506	46	127
681.16820861678	681.3771882086168	79	127
681.3771882086168	681.5280952380953	77	127
681.4584580498866	681.7138775510205	67	127
681.5280952380953	681.7138775510205	68	127
681.7138775510205	682.0970068027211	56	127
681.7138775510205	682.0273469387755	75	127
681.7138775510205	682.2595464852608	46	127
682.0273469387755	682.1666666666666	74	127
682.0970068027211	682.3640362811791	68	127
682.1666666666666	682.3640362811791	65	127
682.3640362811791	682.7936054421768	46	127
682.3640362811791	682.6426757369615	66	127
682.3640362811791	682.5730158730158	74	127
682.5730158730158	682.7123356009071	72	127
682.6426757369615	682.8632653061225	57	127
682.7123356009071	682.8632653061225	63	127
682.8632653061225	683.3508843537415	46	127
682.8632653061225	683.107074829932	62	127
682.8632653061225	683.1883446712018	58	127
683.107074829932	683.2696145124717	65	127
683.1883446712018	683.4437641723356	65	127
683.2696145124717	683.4437641723356	74	127
683.4437641723356	683.8385034013605	75	127
683.4437641723356	684.0939229024943	46	127
683.4437641723356	683.9081632653061	66	127
683.8385034013605	683.9778004535148	72	127
683.9081632653061	684.1751927437642	57	127
683.9778004535148	684.1751927437642	63	127
684.1751927437642	684.5234920634921	58	127
684.1751927437642	684.4073696145125	62	127
684.1751927437642	684.6744217687075	46	127
684.4073696145125	684.5931292517007	65	127
684.5234920634921	684.7789115646259	65	127
684.5931292517007	684.7789115646259	74	127
684.7789115646259	684.9646712018141	75	127
684.7789115646259	685.1968707482994	46	127
684.7789115646259	685.0343310657596	66	127
684.9646712018141	685.1039909297052	72	127
685.0343310657596	685.2665306122449	57	127
685.1039909297052	685.2665306122449	63	127
685.2665306122449	685.5567800453515	53	127
685.2665306122449	685.8353968253969	62	127
685.2665306122449	686.508798185941	62	127
685.2665306122449	685.9166893424036	46	127
685.2665306122449	685.8353968253969	46	127
685.2665306122449	685.8353968253969	58	127
685.5567800453515	686.2185487528345	53	127
685.9166893424036	686.508798185941	45	127
686.2185487528345	686.7642176870748	53	127
686.508798185941	686.9848072562359	46	127
686.508798185941	686.7642176870748	61	127
686.7642176870748	687.5072562358276	53	127
686.7642176870748	687.124126984127	62	127
687.124126984127	687.5072562358276	68	127
687.124126984127	687.7278458049886	47	127
687.5072562358276	687.7278458049886	67	127
687.5072562358276	687.9832653061225	53	127
687.7278458049886	688.3315646258503	48	127
687.7278458049886	687.9832653061225	62	127
687.9832653061225	688.3315646258503	63	127
687.9832653061225	688.5985941043084	53	127
688.3315646258503	688.5985941043084	66	127
688.3315646258503	688.7495238095238	44	127
688.5985941043084	688.9004308390023	65	127
688.5985941043084	689.2255328798186	53	127
688.9004308390023	689.5738321995465	45	127
688.9004308390023	689.2255328798186	59	127
689.2255328798186	689.8292517006803	53	127
689.2255328798186	689.5738321995465	60	127
689.5738321995465	689.8292517006803	63	127
689.5738321995465	690.0846712018141	48	127
689.8292517006803	690.3400907029478	62	127
689.8292517006803	690.3400907029478	53	127
690.0846712018141	690.5142403628118	46	127
690.3400907029478	690.5955102040816	61	127
690.3400907029478	691.0715192743764	53	127
690.5955102040816	691.4314285714286	60	127
690.5955102040816	691.4314285714286	44	127
691.0715192743764	691.6984580498867	53	127
691.4314285714286	691.9190476190477	58	127
691.4314285714286	691.9190476190477	43	127
691.6984580498867	692.1396371882087	53	127
691.9190476190477	692.3370068027211	60	127
691.9190476190477	692.3370068027211	36	127
692.1396371882087	692.7085260770975	52	127
692.7085260770975	693.1148752834467	60	127
692.7085260770975	693.5212244897959	41	127
692.7085260770975	693.3354648526077	80	127
692.7085260770975	693.1148752834467	41	127
692.7085260770975	693.1148752834467	53	127
692.9523356009071	693.1845124716554	48	127
693.1845124716554	693.4051247165532	60	127
693.3354648526077	693.4747845804989	79	127
693.4051247165532	693.6837641723356	48	127
693.4747845804989	693.6837641723356	80	127
693.6837641723356	694.055283446712	84	127
693.6837641723356	694.3223129251701	43	127
693.6837641723356	694.1365532879819	48	127
694.055283446712	694.2410430839002	82	127
694.1365532879819	694.3919727891157	60	127
694.2410430839002	694.3919727891157	79	127
694.3919727891157	694.5661224489796	82	127
694.3919727891157	695.2278684807256	44	127
694.5661224489796	694.6938321995465	80	127
694.624149659864	694.8447619047619	48	127
694.6938321995465	695.0073015873016	77	127
694.8447619047619	695.1001814058957	60	127
695.0188888888889	695.1814512471656	76	127
695.1001814058957	695.4368480725624	48	127
695.1814512471656	695.4368480725624	77	127
695.4368480725624	695.9128798185941	49	127
695.4368480725624	696.1334693877551	46	127
695.4368480725624	695.8431972789116	80	127
695.8431972789116	696.0057596371882	79	127
695.9128798185941	696.2727891156462	61	127
696.0057596371882	696.2727891156462	73	127
696.2727891156462	697.143537414966	47	127
696.2727891156462	696.4585260770975	79	127
696.4585260770975	696.6210884353742	77	127
696.5514285714286	696.7720181405896	50	127
696.6210884353742	696.9345578231292	68	127
696.7720181405896	697.0158276643991	62	127
696.9461678004535	697.0854875283446	67	127
697.0158276643991	697.2944671201814	50	127
697.0854875283446	697.2944671201814	68	127
697.2944671201814	697.5382766439909	79	127
697.2944671201814	697.6543764172336	51	127
697.2944671201814	697.8401360544218	48	127
697.5382766439909	697.7356462585034	77	127
697.6543764172336	697.9214058956916	63	127
697.7356462585034	697.9214058956916	69	127
697.9214058956916	698.1071428571429	79	127
697.9214058956916	698.73410430839	49	127
698.1071428571429	698.246485260771	77	127
698.1768253968254	698.3974149659864	52	127
698.246485260771	698.5367346938775	70	127
698.3974149659864	698.6180045351474	64	127
698.5483446712018	698.687664399093	69	127
698.6180045351474	699.1056009070295	52	127
698.687664399093	699.1056009070295	70	127
699.1056009070295	699.3378231292517	53	127
699.1056009070295	699.2681632653062	79	127
699.1056009070295	699.5584126984127	50	127
699.2681632653062	699.4074829931973	77	127
699.3378231292517	699.6280725623583	65	127
699.4074829931973	699.6280725623583	71	127
699.6280725623583	700.1853514739229	51	127
699.6280725623583	699.7790022675737	79	127
699.6280725623583	699.837052154195	53	127
699.7790022675737	699.9299092970522	77	127
699.8602721088436	700.5336507936508	65	127
699.8602721088436	700.5336507936508	53	127
699.9299092970522	700.1737414965986	72	127
700.1853514739229	700.7658276643991	52	127
700.1853514739229	700.4291609977324	79	127
700.4291609977324	700.6149206349206	77	127
700.5336507936508	701.0096598639456	65	127
700.5336507936508	701.0096598639456	53	127
700.6149206349206	701.0096598639456	73	127
700.7658276643991	701.1838095238095	53	127
701.0096598639456	701.5321088435375	65	127
701.0096598639456	701.2534693877551	74	127
701.0096598639456	701.5321088435375	53	127
701.2534693877551	701.5437188208617	73	127
701.2534693877551	701.8339682539682	52	127
701.5437188208617	702.089387755102	53	127
701.5437188208617	701.822358276644	74	127
701.5437188208617	702.089387755102	65	127
701.8339682539682	702.8904761904762	53	127
701.8339682539682	702.089387755102	73	127
702.089387755102	702.7279365079365	53	127
702.089387755102	702.3564172335601	74	127
702.089387755102	702.7279365079365	65	127
702.3680272108844	702.7279365079365	73	127
702.7279365079365	704.6087528344672	74	127
702.7279365079365	704.6203628117914	65	127
702.7279365079365	704.6203628117914	53	127
704.6203628117914	705.3750113378685	74	127
704.6203628117914	705.0034920634921	66	127
704.6203628117914	705.3750113378685	62	127
704.6203628117914	705.3750113378685	54	127
704.6203628117914	705.0034920634921	54	127
704.6203628117914	705.3750113378685	66	127
705.3750113378685	705.6884807256235	55	127
705.3750113378685	705.6884807256235	67	127
705.3750113378685	705.6884807256235	76	127
705.3750113378685	705.6884807256235	64	127
705.7000907029478	706.234149659864	66	127
705.7000907029478	706.234149659864	78	127
705.7000907029478	706.234149659864	69	127
705.7000907029478	706.234149659864	57	127
706.3154195011338	707.6389569160998	54	127
706.3154195011338	707.6389569160998	66	127
706.3154195011338	707.6389569160998	69	127
706.3154195011338	707.6389569160998	57	127
707.9292063492063	708.7651247165533	74	127
707.9292063492063	708.7651247165533	62	127
707.9292063492063	708.7651247165533	66	127
707.9292063492063	708.7651247165533	54	127
708.7651247165533	709.0902040816327	55	127
708.7651247165533	709.0902040816327	76	127
708.7651247165533	709.0902040816327	64	127
708.7651247165533	709.0902040816327	67	127
709.0902040816327	709.7171428571429	66	127
709.0902040816327	709.7171428571429	69	127
709.0902040816327	709.7171428571429	78	127
709.0902040816327	709.7171428571429	57	127
709.7868027210884	711.133560090703	54	127
709.7868027210884	711.133560090703	66	127
709.7868027210884	711.133560090703	69	127
709.7868027210884	711.133560090703	57	127
711.3193197278912	712.2248979591836	62	127
711.3193197278912	712.2248979591836	66	127
711.3193197278912	712.2248979591836	78	127
711.3193197278912	712.2248979591836	74	127
712.2248979591836	712.4338775510204	67	127
712.2248979591836	712.4338775510204	79	127
712.2248979591836	712.4338775510204	64	127
712.2248979591836	712.4338775510204	76	127
712.4454875283446	712.9214965986395	66	127
712.4454875283446	712.9214965986395	78	127
712.4454875283446	712.9214965986395	81	127
712.4454875283446	712.9214965986395	69	127
712.9911564625851	714.1637641723356	67	127
712.9911564625851	714.1637641723356	79	127
712.9911564625851	714.5701133786848	43	127
712.9911564625851	713.7109750566893	50	127
712.9911564625851	715.0809523809523	82	127
712.9911564625851	715.0809523809523	70	127
713.7109750566893	714.1637641723356	51	127
714.1637641723356	715.0809523809523	58	127
714.1637641723356	715.0809523809523	70	127
714.1637641723356	714.6049433106576	52	127
714.6746031746031	716.1722902494331	53	127
714.6746031746031	716.1722902494331	41	127
715.1622222222222	715.7543310657596	70	127
715.1622222222222	715.6266213151928	74	127
715.1622222222222	715.7543310657596	58	127
715.1622222222222	715.6266213151928	62	127
715.6266213151928	715.7543310657596	77	127
715.6266213151928	715.7543310657596	65	127
715.7543310657596	716.2303401360545	75	127
715.7543310657596	716.2303401360545	60	127
715.7543310657596	716.2303401360545	63	127
715.7543310657596	716.2303401360545	72	127
716.3580498866213	717.6815873015873	70	127
716.3580498866213	716.8224489795919	53	127
716.3580498866213	717.6815873015873	58	127
716.3580498866213	717.6815873015873	46	127
716.3580498866213	717.6815873015873	62	127
716.3580498866213	717.6815873015873	74	127
716.8224489795919	717.3448979591836	55	127
717.3448979591836	717.7280045351474	56	127
717.8092970521542	718.900634920635	78	127
717.8092970521542	718.5523129251701	45	127
717.8092970521542	718.5523129251701	57	127
717.8092970521542	718.900634920635	54	127
717.8092970521542	718.900634920635	62	127
717.8092970521542	718.900634920635	86	127
718.900634920635	719.121224489796	88	127
718.900634920635	719.121224489796	64	127
718.900634920635	719.121224489796	79	127
718.900634920635	719.121224489796	55	127
719.1328344671202	719.5043537414966	81	127
719.1328344671202	719.5043537414966	57	127
719.1328344671202	719.5043537414966	90	127
719.1328344671202	719.5043537414966	66	127
719.5739909297052	721.1413605442177	57	127
719.5739909297052	721.1413605442177	78	127
719.5739909297052	721.1413605442177	81	127
719.5739909297052	721.1413605442177	54	127
721.245850340136	722.0353287981859	78	127
721.245850340136	722.0353287981859	62	127
721.245850340136	722.0353287981859	54	127
721.245850340136	722.0353287981859	86	127
722.0353287981859	722.2443083900226	79	127
722.0353287981859	722.2443083900226	55	127
722.0353287981859	722.2443083900226	88	127
722.0353287981859	722.2443083900226	64	127
722.2443083900226	722.6042176870749	90	127
722.2443083900226	722.6042176870749	81	127
722.2443083900226	722.6042176870749	66	127
722.2443083900226	722.6042176870749	57	127
722.6738775510204	724.0902947845805	57	127
722.6738775510204	724.0902947845805	81	127
722.6738775510204	724.0902947845805	78	127
722.6738775510204	724.0902947845805	54	127
724.241224489796	725.2048526077098	74	127
724.241224489796	725.2048526077098	66	127
724.241224489796	725.2048526077098	62	127
724.241224489796	725.2048526077098	78	127
725.2048526077098	725.4486621315193	79	127
725.2048526077098	725.4486621315193	67	127
725.2048526077098	725.4486621315193	76	127
725.2048526077098	725.4486621315193	64	127
725.4486621315193	725.8782312925171	78	127
725.4486621315193	725.8782312925171	66	127
725.4486621315193	725.8782312925171	69	127
725.4486621315193	725.8782312925171	81	127
725.9943310657596	727.3643083900226	62	127
725.9943310657596	727.3643083900226	71	127
725.9943310657596	727.0160090702948	50	127
725.9943310657596	726.2265306122449	50	127
725.9943310657596	727.3643083900226	67	127
725.9943310657596	727.0160090702948	43	127
725.9943310657596	727.3643083900226	74	127
725.9943310657596	727.3643083900226	83	127
726.2265306122449	726.493560090703	55	127
726.493560090703	726.7373696145124	59	127
726.7373696145124	727.0160090702948	62	127
727.0160090702948	727.3991383219955	55	127
727.0160090702948	727.2598185941043	67	127
727.2598185941043	727.6197278911565	71	127
727.6197278911565	728.3511337868481	66	127
727.6197278911565	728.3511337868481	62	127
727.6197278911565	728.3511337868481	78	127
727.6197278911565	728.3511337868481	74	127
727.6197278911565	728.920045351474	74	127
727.6197278911565	728.920045351474	50	127
728.3511337868481	728.5717233560091	64	127
728.3511337868481	728.5717233560091	67	127
728.3511337868481	728.5717233560091	79	127
728.3511337868481	728.5717233560091	76	127
728.5717233560091	728.9548752834468	78	127
728.5717233560091	728.9548752834468	69	127
728.5717233560091	728.9548752834468	66	127
728.5717233560091	728.9548752834468	81	127
729.2451247165533	729.5005442176871	50	127
729.2451247165533	730.6267120181406	74	127
729.2451247165533	730.2784126984127	50	127
729.2451247165533	730.6267120181406	71	127
729.2451247165533	730.2784126984127	43	127
729.2451247165533	730.6267120181406	67	127
729.2451247165533	730.6267120181406	83	127
729.2451247165533	730.6267120181406	62	127
729.5005442176871	729.7327437641724	55	127
729.7327437641724	729.9997505668935	59	127
729.9997505668935	730.2784126984127	62	127
730.2784126984127	730.5222222222222	67	127
730.2784126984127	730.6615419501134	55	127
730.5222222222222	730.8473015873016	71	127
730.8589115646258	731.66	66	127
730.8589115646258	732.3449886621315	74	127
730.8589115646258	732.3449886621315	50	127
730.8589115646258	731.66	78	127
730.8589115646258	731.66	74	127
730.8589115646258	731.66	62	127
731.66	731.9038095238095	67	127
731.66	731.9038095238095	64	127
731.66	731.9038095238095	76	127
731.66	731.9038095238095	79	127
731.9038095238095	732.3914285714286	81	127
731.9038095238095	732.3914285714286	78	127
731.9038095238095	732.3914285714286	69	127
731.9038095238095	732.3914285714286	66	127
732.6004081632653	733.7149659863945	77	127
732.6004081632653	733.0299773242631	53	127
732.6004081632653	733.7149659863945	65	127
732.6004081632653	734.1677551020408	38	127
732.6004081632653	734.70179138322	70	127
732.6004081632653	734.481201814059	82	127
733.0299773242631	733.3434467120181	58	127
733.3434467120181	733.6104761904762	62	127
733.6104761904762	733.8426757369615	65	127
733.8426757369615	734.6321541950114	70	127
733.8426757369615	734.0632653061225	70	127
733.8426757369615	734.70179138322	58	127
734.0632653061225	734.2722448979592	74	127
734.2722448979592	735.7931519274376	39	127
734.2722448979592	734.4928117913832	77	127
734.4928117913832	734.70179138322	78	127
734.4928117913832	734.70179138322	78	127
734.70179138322	735.2126530612245	67	127
734.70179138322	735.2126530612245	59	127
734.70179138322	735.1429931972789	71	127
734.70179138322	734.9804535147392	79	127
734.70179138322	734.9804535147392	79	127
734.9804535147392	735.2126530612245	74	127
734.9804535147392	735.2126530612245	74	127
735.2126530612245	735.4796825396826	75	127
735.2126530612245	735.4796825396826	63	127
735.2126530612245	735.8628117913833	72	127
735.2126530612245	735.4796825396826	75	127
735.2126530612245	735.8628117913833	60	127
735.4796825396826	735.9208390022676	67	127
735.4796825396826	735.9208390022676	67	127
735.944081632653	737.3953287981859	53	127
735.944081632653	736.559410430839	67	127
735.944081632653	737.0354195011338	70	127
735.944081632653	736.559410430839	63	127
735.944081632653	737.3953287981859	41	127
736.559410430839	737.0354195011338	65	127
736.559410430839	737.0354195011338	62	127
737.0354195011338	737.4301587301587	63	127
737.0354195011338	737.4301587301587	69	127
737.0354195011338	737.4301587301587	60	127
737.5230385487529	739.1252154195012	74	127
737.5230385487529	738.3589569160998	62	127
737.5230385487529	739.1252154195012	38	127
737.5230385487529	738.3589569160998	78	127
737.5230385487529	739.1252154195012	50	127
737.5230385487529	739.1252154195012	62	127
737.9061678004535	738.1499773242631	74	127
738.1499773242631	738.3589569160998	86	127
738.3589569160998	738.5795238095238	79	127
738.3589569160998	738.5795238095238	85	127
738.3589569160998	738.5795238095238	64	127
738.5795238095238	739.160045351474	66	127
738.5795238095238	738.9974829931973	84	127
738.5795238095238	739.160045351474	81	127
738.9974829931973	739.2297052154195	81	127
739.2297052154195	739.9843537414966	62	127
739.2297052154195	740.1004535147392	65	127
739.2297052154195	740.7041723356009	77	127
739.2297052154195	740.7041723356009	68	127
739.2297052154195	741.1337414965986	82	127
739.2297052154195	739.9843537414966	46	127
739.2297052154195	739.4851247165533	80	127
739.4851247165533	739.7173242630386	77	127
739.7173242630386	739.9843537414966	74	127
739.9843537414966	740.2513832199546	70	127
739.9843537414966	740.2513832199546	48	127
739.9843537414966	740.2513832199546	63	127
740.2513832199546	740.7390022675737	68	127
740.2513832199546	740.5996825396826	68	127
740.2513832199546	740.7390022675737	65	127
740.2513832199546	740.7390022675737	50	127
740.5996825396826	740.8086621315193	65	127
740.8086621315193	741.6097505668935	58	127
740.8086621315193	741.1453514739229	67	127
740.8086621315193	741.725850340136	75	127
740.8086621315193	741.5400907029479	67	127
740.8086621315193	741.725850340136	51	127
740.8086621315193	741.725850340136	67	127
741.1453514739229	741.3775510204082	83	127
741.1453514739229	741.6097505668935	79	127
741.3775510204082	741.6097505668935	84	127
741.6097505668935	741.9580498866213	65	127
741.6097505668935	741.9580498866213	59	127
741.6097505668935	741.9580498866213	77	127
741.6097505668935	741.9580498866213	86	127
741.9580498866213	742.7939682539683	60	127
741.9580498866213	742.4224489795919	67	127
741.9580498866213	742.4224489795919	39	127
741.9580498866213	742.2714965986395	87	127
741.9580498866213	742.2714965986395	63	127
741.9580498866213	742.2714965986395	75	127
742.2714965986395	742.4804988662131	72	127
742.2714965986395	742.4804988662131	60	127
742.2714965986395	742.4804988662131	91	127
742.4921088435374	743.3280272108843	70	127
742.4921088435374	743.444126984127	65	127
742.4921088435374	743.3280272108843	82	127
742.4921088435374	743.444126984127	41	127
742.7939682539683	743.1074376417233	61	127
742.7939682539683	743.1074376417233	61	127
743.1074376417233	743.3280272108843	62	127
743.1074376417233	743.3280272108843	62	127
743.3280272108843	743.5834467120181	63	127
743.3280272108843	743.5834467120181	63	127
743.3280272108843	743.5834467120181	69	127
743.3280272108843	743.5834467120181	84	127
743.5950566893424	744.059455782313	81	127
743.5950566893424	744.059455782313	53	127
743.5950566893424	744.059455782313	77	127
743.5950566893424	744.059455782313	60	127
743.5950566893424	744.059455782313	60	127
743.5950566893424	743.9201360544217	53	127
743.9201360544217	744.2916553287982	62	127
744.3032426303855	744.7560544217687	82	127
744.3032426303855	744.9766439909297	62	127
744.3032426303855	744.7560544217687	58	127
744.3032426303855	744.7560544217687	46	127
744.5122222222222	744.6863945578232	65	127
744.5122222222222	744.6863945578232	53	127
744.6863945578232	744.8257142857143	62	127
744.6863945578232	744.8257142857143	74	127
744.8257142857143	744.9766439909297	65	127
744.8257142857143	744.9766439909297	77	127
744.9766439909297	745.1159410430839	53	127
744.9766439909297	745.1159410430839	65	127
745.0463038548753	745.4178231292517	53	127
745.1159410430839	745.4178231292517	74	127
745.1159410430839	745.4178231292517	62	127
745.4178231292517	745.650022675737	65	127
745.4178231292517	745.6616326530612	62	127
745.4178231292517	745.650022675737	77	127
745.6616326530612	745.9402494331066	65	127
745.9518594104309	746.6136507936508	65	127
745.9518594104309	746.31179138322	45	127
746.091201814059	746.2305215419501	65	127
746.091201814059	746.2305215419501	53	127
746.2305215419501	746.3930612244898	72	127
746.2305215419501	746.3930612244898	60	127
746.3930612244898	746.5439682539683	65	127
746.3930612244898	746.5439682539683	77	127
746.5439682539683	746.6949206349207	53	127
746.5439682539683	746.6949206349207	65	127
746.6136507936508	747.0664399092971	63	127
746.6949206349207	747.0780498866213	60	127
746.6949206349207	747.0780498866213	72	127
747.0780498866213	747.2870294784581	77	127
747.0780498866213	747.2870294784581	65	127
747.0780498866213	747.4379591836735	60	127
747.5076190476191	748.1461678004536	65	127
747.5076190476191	747.9255782312925	46	127
747.681768707483	747.8559183673469	53	127
747.681768707483	747.8559183673469	65	127
747.8559183673469	748.0068480725623	62	127
747.8559183673469	748.0068480725623	74	127
748.0068480725623	748.1461678004536	77	127
748.0068480725623	748.1461678004536	65	127
748.1461678004536	748.2854875283447	53	127
748.1461678004536	748.2854875283447	65	127
748.2158276643991	748.4364172335601	53	127
748.2854875283447	748.4364172335601	62	127
748.2854875283447	748.4364172335601	74	127
748.4364172335601	748.6570068027211	65	127
748.4364172335601	748.6686167800453	62	127
748.4364172335601	748.6570068027211	77	127
748.6686167800453	748.9008163265306	70	127
748.9124263038549	749.6902947845805	70	127
748.9124263038549	749.4232426303855	41	127
749.1562358276644	749.3303854875284	53	127
749.1562358276644	749.3303854875284	65	127
749.3303854875284	749.4813151927438	60	127
749.3303854875284	749.4813151927438	72	127
749.4813151927438	749.620612244898	65	127
749.4813151927438	749.620612244898	77	127
749.620612244898	749.8063945578232	53	127
749.620612244898	749.8063945578232	65	127
749.6902947845805	749.9805442176871	69	127
749.8063945578232	749.9805442176871	75	127
749.8063945578232	749.9805442176871	63	127
749.9805442176871	750.3404535147392	60	127
749.9805442176871	750.2011337868481	81	127
749.9805442176871	750.2011337868481	69	127
750.4101133786849	750.8164625850341	43	127
750.4101133786849	751.0370521541951	72	127
750.5842630385488	750.7235827664399	55	127
750.5842630385488	750.7235827664399	67	127
750.7235827664399	750.8977324263038	62	127
750.7235827664399	750.8977324263038	74	127
750.8977324263038	751.0370521541951	67	127
750.8977324263038	751.0370521541951	79	127
751.0370521541951	751.1879818594105	67	127
751.0370521541951	751.1879818594105	55	127
751.1067120181406	751.3389115646258	62	127
751.1879818594105	751.3389115646258	62	127
751.1879818594105	751.3389115646258	74	127
751.3389115646258	751.6291609977325	67	127
751.3389115646258	751.6291609977325	70	127
751.3389115646258	751.6291609977325	79	127
751.6291609977325	751.8381405895692	74	127
751.8381405895692	752.2212698412699	39	127
751.8381405895692	752.4999092970521	74	127
752.0006802721089	752.1516099773243	67	127
752.0006802721089	752.1516099773243	55	127
752.1516099773243	752.2909070294785	70	127
752.1516099773243	752.2909070294785	58	127
752.2909070294785	752.4302494331066	79	127
752.2909070294785	752.4302494331066	67	127
752.4302494331066	752.5695691609977	67	127
752.4302494331066	752.5695691609977	55	127
752.4999092970521	752.6043990929705	72	127
752.5695691609977	752.8133786848073	58	127
752.5695691609977	752.8133786848073	70	127
752.8133786848073	753.0107482993197	79	127
752.8133786848073	753.1616780045351	74	127
752.8133786848073	753.0107482993197	67	127
753.2313378684808	753.9627664399093	74	127
753.2313378684808	753.6957369614513	40	127
753.4867573696146	753.6260770975057	55	127
753.4867573696146	753.6260770975057	67	127
753.6260770975057	753.7537868480725	58	127
753.6260770975057	753.7537868480725	70	127
753.7537868480725	753.8931065759638	79	127
753.7537868480725	753.8931065759638	67	127
753.8931065759638	754.0324263038549	55	127
753.8931065759638	754.0324263038549	67	127
753.9627664399093	754.0672562358277	72	127
754.0324263038549	754.171746031746	58	127
754.0324263038549	754.171746031746	70	127
754.171746031746	754.4271655328798	72	127
754.171746031746	754.566485260771	67	127
754.171746031746	754.4271655328798	60	127
754.6477551020408	755.5533106575964	70	127
754.6477551020408	755.2630839002268	41	127
755.0192743764172	755.1818140589569	53	127
755.0192743764172	755.1818140589569	65	127
755.1818140589569	755.3327437641724	74	127
755.1818140589569	755.3327437641724	62	127
755.3327437641724	755.4720634920635	65	127
755.3327437641724	755.4720634920635	77	127
755.4720634920635	755.6229931972789	53	127
755.4720634920635	755.6229931972789	65	127
755.5533106575964	755.6578231292517	62	127
755.6229931972789	755.7622902494331	70	127
755.6229931972789	755.7622902494331	58	127
755.7622902494331	755.9945124716553	74	127
755.7622902494331	755.9945124716553	62	127
755.7622902494331	755.9945124716553	62	127
755.9945124716553	756.2615419501134	63	127
756.2615419501134	756.6098412698412	41	127
756.2615419501134	756.9000907029479	63	127
756.3892517006802	756.5401814058957	53	127
756.3892517006802	756.5401814058957	65	127
756.5401814058957	756.6795011337869	72	127
756.5401814058957	756.6795011337869	60	127
756.6795011337869	756.8304308390022	63	127
756.6795011337869	756.8304308390022	75	127
756.8304308390022	756.9813378684808	53	127
756.8304308390022	756.9813378684808	65	127
756.9000907029479	757.0278004535147	60	127
756.9813378684808	757.1322902494331	69	127
756.9813378684808	757.1322902494331	57	127
757.1322902494331	757.5154195011338	72	127
757.1322902494331	757.5270294784581	53	127
757.1322902494331	757.5270294784581	60	127
757.1322902494331	757.5154195011338	60	127
757.1322902494331	757.5270294784581	65	127
757.5270294784581	757.7243990929705	62	127
757.5270294784581	757.7243990929705	74	127
757.5270294784581	757.7243990929705	65	127
757.7476190476191	759.4426530612245	65	127
757.7476190476191	758.5138775510204	74	127
757.7476190476191	758.1655782312926	46	127
757.7476190476191	758.5138775510204	62	127
757.9101587301587	758.0843083900227	53	127
757.9101587301587	758.0843083900227	65	127
758.0843083900227	758.2700680272109	62	127
758.0843083900227	758.2700680272109	74	127
758.2700680272109	758.5138775510204	65	127
758.2700680272109	758.5138775510204	77	127
758.5138775510204	758.6648072562358	53	127
758.5138775510204	758.6648072562358	65	127
758.583537414966	758.8157142857143	65	127
758.583537414966	758.8157142857143	53	127
758.6648072562358	758.8157142857143	74	127
758.6648072562358	758.8157142857143	62	127
758.8157142857143	759.0131065759638	74	127
758.8157142857143	759.0131065759638	62	127
758.8157142857143	759.0131065759638	77	127
758.8157142857143	759.0131065759638	65	127
759.0131065759638	759.198866213152	77	127
759.0131065759638	759.198866213152	65	127
759.2104761904762	759.8722448979591	77	127
759.2104761904762	759.5936054421769	45	127
759.2104761904762	759.8722448979591	65	127
759.3730158730159	759.512335600907	65	127
759.3730158730159	759.512335600907	53	127
759.4426530612245	759.6632653061224	60	127
759.512335600907	759.6632653061224	60	127
759.512335600907	759.6632653061224	72	127
759.6632653061224	759.8722448979591	60	127
759.6632653061224	759.8025850340136	77	127
759.6632653061224	759.8025850340136	65	127
759.8025850340136	759.9883446712018	53	127
759.8025850340136	759.9883446712018	65	127
759.8722448979591	760.1392743764172	63	127
759.8722448979591	760.1392743764172	65	127
759.8722448979591	760.1392743764172	75	127
759.9883446712018	760.1508843537415	60	127
759.9883446712018	760.1508843537415	72	127
760.1508843537415	760.615283446712	60	127
760.1508843537415	760.615283446712	65	127
760.1508843537415	760.4179138321996	65	127
760.1508843537415	760.4179138321996	77	127
760.1508843537415	760.615283446712	72	127
760.8010430839003	761.3002721088435	46	127
760.8010430839003	761.5673015873016	65	127
760.8010430839003	761.5673015873016	77	127
760.8010430839003	762.6121995464853	65	127
761.0448526077098	761.1957823129252	53	127
761.0448526077098	761.1957823129252	65	127
761.1957823129252	761.3699319727891	62	127
761.1957823129252	761.3699319727891	74	127
761.3699319727891	761.5673015873016	77	127
761.3699319727891	761.5673015873016	65	127
761.5673015873016	761.764671201814	65	127
761.5673015873016	761.764671201814	53	127
761.67179138322	761.9156009070294	53	127
761.67179138322	761.9156009070294	65	127
761.764671201814	761.9156009070294	74	127
761.764671201814	761.9156009070294	62	127
761.9156009070294	762.1129705215419	74	127
761.9156009070294	762.1129705215419	62	127
761.9156009070294	762.1129705215419	65	127
761.9156009070294	762.1129705215419	77	127
762.1129705215419	762.38	70	127
762.1129705215419	762.38	82	127
762.38	762.7515192743764	41	127
762.38	763.0185487528345	82	127
762.38	763.0185487528345	70	127
762.5193197278911	762.6818594104309	65	127
762.5193197278911	762.6818594104309	53	127
762.6121995464853	762.8095691609977	60	127
762.6818594104309	762.821179138322	60	127
762.6818594104309	762.821179138322	72	127
762.821179138322	763.0185487528345	60	127
762.821179138322	762.9488888888889	65	127
762.821179138322	762.9488888888889	77	127
762.9488888888889	763.0882086167801	53	127
762.9488888888889	763.0882086167801	65	127
763.0185487528345	763.1230385487528	81	127
763.0185487528345	763.2391383219955	69	127
763.0185487528345	763.2391383219955	65	127
763.0882086167801	763.2391383219955	63	127
763.0882086167801	763.2391383219955	75	127
763.2391383219955	763.5409977324263	63	127
763.2391383219955	763.703537414966	60	127
763.2391383219955	763.529387755102	81	127
763.2391383219955	763.529387755102	69	127
763.2391383219955	763.703537414966	72	127
763.5409977324263	763.8660770975057	69	127
763.8660770975057	764.2840362811792	43	127
763.8660770975057	764.4930158730159	84	127
763.8660770975057	764.4930158730159	72	127
763.8660770975057	764.2840362811792	69	127
764.0402267573696	764.2143764172336	67	127
764.0402267573696	764.2143764172336	55	127
764.2143764172336	764.3536961451247	74	127
764.2143764172336	764.3536961451247	62	127
764.3536961451247	764.7252154195012	67	127
764.3536961451247	764.4930158730159	79	127
764.3536961451247	764.4930158730159	67	127
764.4930158730159	764.6555555555556	67	127
764.4930158730159	764.6555555555556	55	127
764.5626757369614	764.8413151927438	70	127
764.5626757369614	764.8413151927438	58	127
764.6555555555556	764.8413151927438	62	127
764.6555555555556	764.8413151927438	74	127
764.8413151927438	765.0502947845805	67	127
764.8413151927438	765.1896145124716	62	127
764.8413151927438	765.0502947845805	79	127
764.8413151927438	765.0619047619048	82	127
764.8413151927438	765.0619047619048	70	127
765.0619047619048	765.2592743764172	74	127
765.0619047619048	765.2592743764172	86	127
765.2592743764172	765.7352834467121	67	127
765.2592743764172	766.00231292517	86	127
765.2592743764172	765.7352834467121	39	127
765.2592743764172	766.00231292517	74	127
765.3985941043084	765.6191836734694	70	127
765.3985941043084	765.6191836734694	58	127
765.6191836734694	765.8049433106576	67	127
765.6191836734694	765.8049433106576	79	127
765.8049433106576	765.9442630385488	70	127
765.8049433106576	765.9442630385488	82	127
765.8049433106576	766.1416326530613	69	127
765.9442630385488	766.0719727891156	70	127
765.9442630385488	766.0719727891156	58	127
766.00231292517	766.1068027210885	84	127
766.00231292517	766.2112925170068	72	127
766.0719727891156	766.2112925170068	67	127
766.0719727891156	766.2112925170068	79	127
766.2112925170068	766.5828117913832	74	127
766.2112925170068	766.5828117913832	70	127
766.2112925170068	766.5828117913832	86	127
766.2112925170068	766.4551020408163	70	127
766.2112925170068	766.4551020408163	82	127
766.6524716553288	767.0123809523809	40	127
766.6524716553288	767.3026303854875	74	127
766.6524716553288	767.3026303854875	86	127
766.6524716553288	767.0123809523809	70	127
766.7917913832199	766.9195011337869	70	127
766.7917913832199	766.9195011337869	58	127
766.9195011337869	767.0936507936508	67	127
766.9195011337869	767.0936507936508	79	127
767.0936507936508	767.4419501133787	72	127
767.0936507936508	767.2329705215419	82	127
767.0936507936508	767.2329705215419	70	127
767.2329705215419	767.3722902494331	70	127
767.2329705215419	767.3722902494331	58	127
767.3026303854875	767.4071201814058	84	127
767.3026303854875	767.6044897959183	72	127
767.3722902494331	767.6160997732426	67	127
767.3722902494331	767.6160997732426	79	127
767.6160997732426	767.8947392290249	86	127
767.6160997732426	768.0572789115646	79	127
767.6160997732426	768.0572789115646	67	127
767.6160997732426	767.8947392290249	74	127
767.6160997732426	768.0572789115646	74	127
768.1269387755102	768.6958276643991	70	127
768.1269387755102	768.7654875283447	82	127
768.1269387755102	768.4868480725623	74	127
768.1269387755102	768.4868480725623	41	127
768.2546485260771	768.4055782312926	65	127
768.2546485260771	768.4055782312926	53	127
768.4055782312926	768.5681179138322	74	127
768.4055782312926	768.5681179138322	62	127
768.5681179138322	768.6958276643991	82	127
768.5681179138322	768.6958276643991	70	127
768.5681179138322	769.1253968253968	72	127
768.6958276643991	769.0557369614512	65	127
768.6958276643991	769.0557369614512	53	127
768.7654875283447	769.090566893424	74	127
768.7654875283447	769.090566893424	62	127
769.0557369614512	769.4736961451247	58	127
769.0557369614512	769.4736961451247	70	127
769.4736961451247	769.8800453514739	70	127
769.4736961451247	769.7407256235828	62	127
769.4736961451247	769.7407256235828	62	127
769.4736961451247	769.7407256235828	74	127
769.4736961451247	769.7407256235828	74	127
769.7407256235828	769.9380952380952	63	127
769.7407256235828	769.9380952380952	75	127
769.9380952380952	770.2747845804988	41	127
769.9380952380952	770.4837641723356	63	127
769.9380952380952	770.2747845804988	69	127
769.9380952380952	770.5418140589569	75	127
770.0774149659863	770.2051247165533	53	127
770.0774149659863	770.2051247165533	65	127
770.2051247165533	770.3444444444444	60	127
770.2051247165533	770.3444444444444	72	127
770.3444444444444	770.4837641723356	63	127
770.3444444444444	770.4837641723356	75	127
770.3444444444444	770.6927437641723	65	127
770.4837641723356	770.6230839002268	65	127
770.4837641723356	770.6230839002268	53	127
770.5418140589569	770.6579138321996	72	127
770.5418140589569	770.6579138321996	60	127
770.6230839002268	770.7624036281179	57	127
770.6230839002268	770.7624036281179	69	127
770.7624036281179	771.0178231292517	60	127
770.7624036281179	771.2732426303855	63	127
770.7624036281179	771.0178231292517	72	127
770.7624036281179	771.0178231292517	72	127
770.7624036281179	771.0178231292517	60	127
771.0178231292517	771.3312925170068	73	127
771.0178231292517	771.3312925170068	61	127
771.342902494331	771.6331519274377	61	127
771.342902494331	773.061179138322	58	127
771.342902494331	773.061179138322	40	127
771.342902494331	773.061179138322	73	127
771.342902494331	771.8653514739229	62	127
771.342902494331	773.061179138322	61	127
771.6331519274377	771.7956916099773	70	127
771.7956916099773	771.9350113378684	61	127
771.9350113378684	772.0975510204082	70	127
772.0975510204082	772.3181405895691	61	127
772.3181405895691	772.4574603174603	70	127
772.4574603174603	772.6316099773243	61	127
772.6316099773243	772.9102494331066	70	127
772.9102494331066	773.061179138322	61	127
773.061179138322	774.2802267573696	61	127
773.061179138322	774.7562358276645	40	127
773.061179138322	773.2004988662131	70	127
773.061179138322	774.2802267573696	58	127
773.061179138322	774.2802267573696	73	127
773.2004988662131	773.3630385487528	61	127
773.3630385487528	773.502358276644	70	127
773.502358276644	773.6416780045352	61	127
773.6416780045352	773.8042176870748	70	127
773.8042176870748	773.9435374149659	61	127
773.9435374149659	774.0828571428572	70	127
774.0828571428572	774.2453968253968	61	127
774.2453968253968	774.384716553288	70	127
774.384716553288	776.195873015873	58	127
774.384716553288	776.195873015873	61	127
774.384716553288	774.5356462585034	61	127
774.384716553288	776.195873015873	49	127
774.5356462585034	774.6749659863946	70	127
774.6749659863946	774.82589569161	61	127
774.82589569161	775.3019047619048	70	127
775.3019047619048	775.4528344671202	61	127
775.3715646258504	775.6734240362812	39	127
775.4528344671202	775.6734240362812	70	127
775.6734240362812	775.8824036281179	39	127
775.6734240362812	775.8243537414966	61	127
775.8243537414966	776.0101133786848	70	127
775.8940136054422	776.195873015873	40	127
776.0101133786848	776.195873015873	61	127
776.195873015873	778.0070294784581	49	127
776.195873015873	778.0070294784581	61	127
776.195873015873	778.0070294784581	58	127
776.195873015873	776.6602721088435	40	127
776.195873015873	776.416462585034	70	127
776.416462585034	776.5790022675737	61	127
776.5790022675737	776.7299319727891	70	127
776.7299319727891	776.9621315192744	61	127
776.9621315192744	777.1130612244898	70	127
777.0317913832199	777.3684807256236	40	127
777.1130612244898	777.3684807256236	61	127
777.3684807256236	777.7864399092971	70	127
777.3684807256236	777.8793197278911	40	127
777.7864399092971	777.9721995464853	61	127
777.8793197278911	778.1231292517007	41	127
777.9721995464853	778.1231292517007	70	127
778.1231292517007	778.7152380952381	41	127
778.1231292517007	778.7152380952381	50	127
778.1231292517007	778.7152380952381	58	127
778.1231292517007	778.7152380952381	70	127
778.1231292517007	778.7152380952381	62	127
778.7848979591837	779.2260770975057	46	127
779.017097505669	779.1215873015873	65	127
779.017097505669	779.1215873015873	70	127
779.017097505669	779.1215873015873	74	127
779.2260770975057	779.4698866213151	70	127
779.2260770975057	779.4698866213151	65	127
779.2260770975057	779.4698866213151	74	127
779.2260770975057	780.1548752834467	41	127
779.4698866213151	779.7949659863946	53	127
779.4698866213151	779.7949659863946	72	127
779.4698866213151	779.7949659863946	75	127
779.7949659863946	780.1548752834467	75	127
779.7949659863946	780.1548752834467	72	127
779.7949659863946	780.1548752834467	53	127
780.2245351473923	780.6541043083901	48	127
780.4451247165533	780.5612244897959	72	127
780.4451247165533	780.5612244897959	65	127
780.4451247165533	780.5612244897959	75	127
780.6541043083901	780.9327437641723	72	127
780.6541043083901	780.9327437641723	75	127
780.6541043083901	781.6177324263039	41	127
780.6541043083901	780.9327437641723	65	127
780.9327437641723	781.1649433106576	77	127
780.9327437641723	781.1649433106576	53	127
780.9327437641723	781.1649433106576	74	127
781.2346031746032	781.6177324263039	74	127
781.2346031746032	781.6177324263039	77	127
781.2346031746032	781.6177324263039	53	127
781.7454421768707	782.1750113378685	50	127
781.9544217687074	782.0705215419501	65	127
781.9544217687074	782.0705215419501	74	127
781.9544217687074	782.0705215419501	77	127
782.1750113378685	782.418820861678	65	127
782.1750113378685	783.0921995464853	41	127
782.1750113378685	782.418820861678	77	127
782.1750113378685	782.5813605442177	74	127
782.418820861678	782.6974603174604	82	127
782.418820861678	782.6974603174604	53	127
782.6974603174604	783.7655782312925	75	127
782.6974603174604	783.1618594104308	74	127
782.6974603174604	783.1618594104308	82	127
783.1618594104308	783.7655782312925	72	127
783.1618594104308	783.7655782312925	81	127
783.1618594104308	783.7655782312925	53	127
783.7655782312925	784.6827664399093	41	127
783.7655782312925	784.2067573696145	65	127
783.7655782312925	784.2067573696145	69	127
783.7655782312925	784.2067573696145	75	127
784.2880272108844	784.6827664399093	70	127
784.2880272108844	784.6827664399093	74	127
784.5434467120182	784.6479365079365	58	127
784.5434467120182	784.6479365079365	70	127
784.7524263038549	785.0078458049886	70	127
784.7524263038549	785.0078458049886	58	127
785.0078458049886	785.1355555555556	58	127
785.0078458049886	785.1355555555556	74	127
785.0078458049886	785.2632653061224	65	127
785.0078458049886	785.1355555555556	70	127
785.0078458049886	785.1355555555556	46	127
785.0078458049886	785.2632653061224	53	127
785.2632653061224	785.948253968254	65	127
785.2632653061224	785.5186848072562	58	127
785.2632653061224	785.948253968254	53	127
785.2632653061224	785.5186848072562	70	127
785.2632653061224	785.5186848072562	46	127
785.2632653061224	785.5186848072562	74	127
785.5186848072562	786.0063038548752	41	127
785.5186848072562	786.0063038548752	75	127
785.5186848072562	786.0063038548752	53	127
785.5186848072562	786.0063038548752	72	127
786.0179138321995	786.48231292517	72	127
786.0179138321995	786.48231292517	75	127
786.0179138321995	786.48231292517	41	127
786.0179138321995	786.48231292517	53	127
786.2849433106576	786.4474829931972	72	127
786.2849433106576	786.4474829931972	60	127
786.5635827664399	786.8306122448979	72	127
786.5635827664399	786.8306122448979	60	127
786.8306122448979	787.1556916099773	65	127
786.8306122448979	787.0395918367346	72	127
786.8306122448979	787.1556916099773	53	127
786.8306122448979	787.0395918367346	48	127
786.8306122448979	787.0395918367346	75	127
786.8306122448979	787.0395918367346	60	127
787.1673015873016	787.538820861678	65	127
787.1673015873016	787.3995011337869	60	127
787.1673015873016	787.3995011337869	48	127
787.1673015873016	787.3995011337869	72	127
787.1673015873016	787.3995011337869	75	127
787.1673015873016	787.538820861678	53	127
787.3995011337869	787.6084807256236	77	127
787.3995011337869	787.6084807256236	74	127
787.3995011337869	787.6084807256236	41	127
787.3995011337869	787.6084807256236	53	127
787.6200907029479	787.98	74	127
787.6200907029479	787.98	77	127
787.6200907029479	787.98	53	127
787.6200907029479	787.98	41	127
787.8406802721089	787.9451700680272	74	127
787.8406802721089	787.9451700680272	62	127
788.0612698412698	788.2702494331065	62	127
788.0612698412698	788.2702494331065	74	127
788.2702494331065	788.374739229025	74	127
788.2702494331065	788.374739229025	77	127
788.2702494331065	788.4908390022675	65	127
788.2702494331065	788.374739229025	62	127
788.2702494331065	788.374739229025	50	127
788.2702494331065	788.4908390022675	53	127
788.4908390022675	789.036507936508	53	127
788.4908390022675	788.8739682539682	74	127
788.4908390022675	788.8739682539682	62	127
788.4908390022675	788.8739682539682	77	127
788.4908390022675	788.8739682539682	50	127
788.4908390022675	789.036507936508	65	127
788.8739682539682	789.1177777777777	41	127
788.8739682539682	789.1177777777777	86	127
788.8739682539682	789.1177777777777	77	127
788.8739682539682	789.1177777777777	53	127
789.1177777777777	789.5125170068027	41	127
789.1177777777777	790.1278458049886	77	127
789.1177777777777	789.570566893424	86	127
789.1177777777777	789.5125170068027	53	127
789.3731972789116	789.47768707483	75	127
789.3731972789116	789.47768707483	63	127
789.570566893424	790.1278458049886	84	127
789.570566893424	789.791156462585	63	127
789.570566893424	789.791156462585	75	127
789.791156462585	789.965306122449	51	127
789.791156462585	790.1278458049886	65	127
789.791156462585	790.1278458049886	53	127
789.791156462585	789.965306122449	63	127
790.1278458049886	790.3716553287982	51	127
790.1278458049886	790.6154648526077	53	127
790.1278458049886	790.6154648526077	69	127
790.1278458049886	790.3716553287982	63	127
790.1278458049886	790.6154648526077	77	127
790.1278458049886	790.6154648526077	65	127
790.3716553287982	790.7083446712018	41	127
790.3716553287982	790.7083446712018	53	127
790.7083446712018	791.1495238095238	86	127
790.7083446712018	791.4746031746032	69	127
790.7083446712018	791.3585034013605	77	127
790.7083446712018	791.4746031746032	63	127
790.7083446712018	791.1495238095238	53	127
790.7083446712018	791.0798639455783	41	127
790.940544217687	791.1495238095238	65	127
791.1495238095238	791.6139229024943	84	127
791.1495238095238	791.6139229024943	57	127
791.1495238095238	791.3585034013605	65	127
791.3585034013605	791.6139229024943	53	127
791.3585034013605	791.6139229024943	79	127
791.3585034013605	791.6139229024943	51	127
791.6139229024943	792.0434920634921	69	127
791.6139229024943	792.0434920634921	60	127
791.6139229024943	792.0434920634921	53	127
791.6139229024943	791.8925623582767	51	127
791.6139229024943	792.0434920634921	77	127
791.8925623582767	792.1015419501134	41	127
792.1131519274377	792.7981405895691	77	127
792.1131519274377	792.5078911564626	41	127
792.1131519274377	792.5775510204081	62	127
792.3569614512471	792.5659410430839	62	127
792.5775510204081	792.7981405895691	62	127
792.5775510204081	793.2973696145125	65	127
792.7981405895691	793.2857596371882	50	127
792.7981405895691	793.2857596371882	82	127
792.7981405895691	793.2857596371882	53	127
793.2973696145125	793.5527891156463	50	127
793.2973696145125	793.761768707483	77	127
793.2973696145125	793.761768707483	62	127
793.2973696145125	793.761768707483	53	127
793.5527891156463	793.8314285714285	41	127
793.8430385487528	794.2145578231292	41	127
793.8430385487528	794.5280272108844	77	127
793.8430385487528	794.2958276643991	63	127
794.0520181405896	794.2842176870748	60	127
794.2958276643991	795.0388662131519	69	127
794.2958276643991	794.5280272108844	60	127
794.5280272108844	795.0388662131519	48	127
794.5280272108844	795.0388662131519	53	127
794.5280272108844	795.0388662131519	79	127
795.0388662131519	795.4103854875284	63	127
795.0388662131519	795.4103854875284	77	127
795.0388662131519	795.2710657596372	48	127
795.0388662131519	795.4103854875284	53	127
795.2710657596372	795.4800453514739	41	127
795.4800453514739	795.967664399093	62	127
795.4800453514739	795.8747845804988	41	127
795.4800453514739	796.188253968254	77	127
795.7354648526077	795.967664399093	59	127
795.967664399093	796.7339229024943	68	127
795.967664399093	796.188253968254	59	127
796.188253968254	796.7339229024943	53	127
796.188253968254	796.7339229024943	86	127
796.188253968254	796.7339229024943	47	127
796.7339229024943	797.117052154195	62	127
796.7339229024943	797.117052154195	77	127
796.7339229024943	796.9661224489796	47	127
796.7339229024943	797.117052154195	53	127
796.9661224489796	797.1867120181406	41	127
797.1867120181406	797.8252607709751	77	127
797.1867120181406	797.6162811791384	63	127
797.1867120181406	797.5466213151927	41	127
797.4073015873016	797.6162811791384	60	127
797.6162811791384	798.0690702947845	69	127
797.6162811791384	797.8252607709751	60	127
797.8252607709751	798.0690702947845	53	127
797.8252607709751	798.0690702947845	79	127
797.8252607709751	798.0690702947845	48	127
798.0690702947845	798.4754195011338	53	127
798.0690702947845	798.3012698412698	48	127
798.0690702947845	798.4754195011338	77	127
798.0690702947845	798.4754195011338	63	127
798.3012698412698	798.5334693877551	41	127
798.5450793650793	799.1952380952381	78	127
798.5450793650793	798.9862585034014	64	127
798.5450793650793	798.9165986394557	41	127
798.7540589569161	798.9746485260771	61	127
798.9862585034014	799.1952380952381	61	127
798.9862585034014	799.589977324263	70	127
799.1952380952381	799.5783673469388	49	127
799.1952380952381	799.5783673469388	53	127
799.1952380952381	799.4738775510205	79	127
799.589977324263	799.7989569160998	49	127
799.589977324263	799.9382766439909	64	127
799.589977324263	799.9382766439909	82	127
799.589977324263	799.9382766439909	53	127
799.7989569160998	800.0079365079365	41	127
800.0195464852608	800.4607256235828	72	127
800.0195464852608	800.3910657596372	41	127
800.0195464852608	800.7277551020408	80	127
800.251746031746	800.4607256235828	60	127
800.4607256235828	800.9947845804988	63	127
800.4607256235828	800.7277551020408	60	127
800.7277551020408	800.9947845804988	53	127
800.7277551020408	800.8786848072563	81	127
800.7277551020408	800.9947845804988	48	127
800.9947845804988	801.3895238095238	69	127
800.9947845804988	801.3895238095238	86	127
800.9947845804988	801.2269841269841	48	127
800.9947845804988	801.3895238095238	53	127
801.2269841269841	801.4591836734694	41	127
801.4591836734694	801.92358276644	60	127
801.4591836734694	802.2718820861678	83	127
801.4591836734694	801.8539229024943	41	127
801.7146031746032	801.92358276644	63	127
801.92358276644	802.2718820861678	63	127
801.92358276644	802.6666213151927	65	127
802.2718820861678	802.5505215419502	84	127
802.2718820861678	802.6666213151927	53	127
802.2718820861678	802.6666213151927	51	127
802.6666213151927	803.0265306122449	53	127
802.6666213151927	803.0265306122449	89	127
802.6666213151927	802.8872108843537	51	127
802.6666213151927	803.0265306122449	57	127
802.8872108843537	803.0845804988662	41	127
803.0845804988662	803.7927891156463	41	127
803.0845804988662	803.7927891156463	53	127
803.3167800453515	803.5373696145125	89	127
803.5373696145125	803.7927891156463	89	127
803.7927891156463	804.0017687074829	75	127
803.7927891156463	803.9088888888889	55	127
803.7927891156463	804.0017687074829	69	127
803.7927891156463	804.0017687074829	77	127
803.7927891156463	804.0017687074829	43	127
804.0133786848072	804.4313378684807	41	127
804.0133786848072	804.2571882086168	75	127
804.0133786848072	804.2571882086168	69	127
804.0133786848072	804.4313378684807	53	127
804.0133786848072	804.4313378684807	77	127
804.2571882086168	804.5242176870748	65	127
804.5358276643991	805.2208163265307	53	127
804.5358276643991	805.2208163265307	41	127
804.5358276643991	804.9421768707483	65	127
804.7564172335601	805.0002267573697	89	127
805.0118367346939	805.2208163265307	89	127
805.2208163265307	805.4297959183673	46	127
805.2208163265307	805.4297959183673	70	127
805.2208163265307	805.4297959183673	74	127
805.2208163265307	805.4297959183673	77	127
805.2208163265307	805.325306122449	58	127
805.4414058956916	805.8709750566893	77	127
805.4414058956916	805.7084353741496	74	127
805.4414058956916	805.8709750566893	41	127
805.4414058956916	805.7084353741496	70	127
805.4414058956916	805.8709750566893	53	127
805.7084353741496	805.9638548752835	65	127
805.9754648526077	806.5327437641723	65	127
805.9754648526077	806.8346031746032	41	127
805.9754648526077	806.8346031746032	53	127
806.300544217687	806.6024036281179	89	127
806.6024036281179	806.8346031746032	89	127
806.8346031746032	806.9507029478458	55	127
806.8346031746032	807.0551927437642	69	127
806.8346031746032	807.0551927437642	72	127
806.8346031746032	807.0551927437642	43	127
806.8346031746032	807.0551927437642	77	127
807.0551927437642	807.4847619047619	53	127
807.0551927437642	807.2873922902494	72	127
807.0551927437642	807.2873922902494	69	127
807.0551927437642	807.4847619047619	77	127
807.0551927437642	807.4847619047619	41	127
807.2873922902494	807.577641723356	65	127
807.577641723356	808.4832199546486	53	127
807.577641723356	808.1697505668934	65	127
807.577641723356	808.4832199546486	41	127
808.0304308390023	808.239410430839	89	127
808.239410430839	808.4832199546486	89	127
808.4832199546486	808.7386394557823	68	127
808.4832199546486	808.7386394557823	71	127
808.4832199546486	808.634149659864	62	127
808.4832199546486	808.7386394557823	50	127
808.4832199546486	808.7386394557823	77	127
808.7386394557823	809.0404988662132	68	127
808.7386394557823	809.0404988662132	71	127
808.7386394557823	809.1798185941043	41	127
808.7386394557823	809.1798185941043	53	127
808.7386394557823	809.1798185941043	77	127
809.0404988662132	809.2494784580499	65	127
809.2494784580499	809.6209977324263	65	127
809.2494784580499	809.9460770975056	41	127
809.2494784580499	809.9460770975056	53	127
809.4700680272109	809.6906575963719	89	127
809.6906575963719	809.9460770975056	89	127
809.9460770975056	810.1550566893424	69	127
809.9460770975056	810.1550566893424	77	127
809.9460770975056	810.1550566893424	43	127
809.9460770975056	810.0621768707483	55	127
809.9460770975056	810.1550566893424	72	127
810.1666666666666	810.4220861678004	69	127
810.1666666666666	810.4220861678004	72	127
810.1666666666666	810.6194557823129	41	127
810.1666666666666	810.6194557823129	77	127
810.1666666666666	810.6194557823129	53	127
810.4220861678004	810.6775056689343	65	127
810.6891156462585	811.3624943310657	52	127
810.6891156462585	811.0838548752835	64	127
810.6891156462585	811.3624943310657	64	127
810.9097052154195	811.1419047619048	91	127
811.1535147392291	811.3624943310657	91	127
811.3624943310657	811.4902040816327	65	127
811.3624943310657	811.594693877551	73	127
811.3624943310657	811.594693877551	53	127
811.3624943310657	811.594693877551	70	127
811.3624943310657	811.594693877551	79	127
811.6063038548753	812.035873015873	79	127
811.6063038548753	812.035873015873	55	127
811.6063038548753	812.035873015873	67	127
811.6063038548753	811.8501133786848	73	127
811.6063038548753	811.8501133786848	70	127
811.8501133786848	812.1055328798186	64	127
812.1055328798186	812.8021315192743	55	127
812.1055328798186	812.8021315192743	67	127
812.1055328798186	812.5118820861678	64	127
812.3725623582767	812.5815419501134	91	127
812.5815419501134	812.8021315192743	91	127
812.8021315192743	813.0227210884353	73	127
812.8021315192743	813.0227210884353	79	127
812.8021315192743	812.918231292517	69	127
812.8021315192743	813.0227210884353	70	127
812.8021315192743	813.0227210884353	57	127
813.0227210884353	813.2433106575963	73	127
813.0227210884353	813.4871201814059	70	127
813.0227210884353	813.4871201814059	58	127
813.0227210884353	813.2433106575963	70	127
813.0227210884353	813.4871201814059	79	127
813.2433106575963	813.5683900226758	64	127
813.5683900226758	814.2765986394558	72	127
813.5683900226758	814.2765986394558	60	127
813.5683900226758	813.9399092970522	65	127
813.800589569161	814.0095691609978	89	127
814.0095691609978	814.2765986394558	89	127
814.2765986394558	814.6597278911564	57	127
814.2765986394558	814.6597278911564	77	127
814.2765986394558	814.6597278911564	72	127
814.2765986394558	814.5204081632653	69	127
814.6597278911564	815.2170068027211	77	127
814.6597278911564	815.2170068027211	53	127
814.6597278911564	814.9848072562359	72	127
814.6597278911564	815.2170068027211	65	127
814.9848072562359	815.2982766439909	65	127
815.2982766439909	815.658185941043	41	127
815.2982766439909	815.9368253968254	70	127
815.2982766439909	815.9368253968254	74	127
815.2982766439909	815.5072562358276	65	127
815.4027664399093	815.9368253968254	82	127
815.5072562358276	815.7278458049886	89	127
815.7278458049886	815.9368253968254	89	127
815.9368253968254	816.1922448979592	77	127
815.9368253968254	816.1922448979592	53	127
815.9368253968254	816.0529251700681	62	127
815.9368253968254	816.1922448979592	74	127
816.2038548752835	816.7611337868481	77	127
816.2038548752835	816.7611337868481	65	127
816.2038548752835	816.6102040816327	53	127
816.6102040816327	816.8191836734694	41	127
816.8307936507937	817.1790929705215	41	127
816.8307936507937	817.5041723356009	60	127
817.0397732426304	817.2487528344672	77	127
817.2603628117914	817.5041723356009	77	127
817.5041723356009	817.6202721088436	57	127
817.5041723356009	817.8524716553288	53	127
817.5041723356009	817.8524716553288	65	127
817.8640816326531	818.2704308390023	53	127
817.8640816326531	818.1078911564625	53	127
817.8640816326531	818.2704308390023	65	127
818.1078911564625	818.3400907029478	41	127
818.3400907029478	819.0250793650794	70	127
818.3400907029478	820.8710657596372	53	127
818.3400907029478	818.7116099773243	41	127
818.5606802721088	818.7928798185941	77	127
818.7928798185941	819.0250793650794	77	127
819.0250793650794	819.40820861678	62	127
819.0250793650794	819.40820861678	53	127
819.0250793650794	819.40820861678	65	127
819.40820861678	819.8261678004535	65	127
819.40820861678	819.6636281179138	53	127
819.6636281179138	819.8958276643991	41	127
819.8958276643991	820.3834467120181	41	127
819.8958276643991	820.7317460317461	70	127
820.2325170068027	820.464716553288	77	127
820.464716553288	820.7317460317461	77	127
820.7317460317461	820.998775510204	62	127
820.7317460317461	820.998775510204	65	127
820.7317460317461	820.998775510204	53	127
820.998775510204	821.2077551020408	53	127
820.998775510204	821.3586848072563	65	127
821.2077551020408	821.4283446712018	41	127
821.4283446712018	821.9043537414966	41	127
821.4283446712018	822.2294331065759	70	127
821.7534240362812	821.962403628118	77	127
821.9740136054422	822.9260317460318	77	127
822.2294331065759	822.4848526077097	62	127
822.2294331065759	822.4848526077097	53	127
822.496462585034	823.4833106575963	53	127
822.496462585034	823.1814512471656	65	127
822.9260317460318	825.0506575963719	65	127
823.1814512471656	823.4717006802721	62	127
823.4833106575963	825.364126984127	50	127
823.4833106575963	824.7604081632653	65	127
824.7604081632653	825.364126984127	62	127
825.364126984127	825.9214058956916	58	127
825.364126984127	826.7224943310657	58	127
825.364126984127	825.9214058956916	46	127
825.7820861678005	826.2000453514739	65	127
826.2000453514739	826.5019047619047	74	127
826.5019047619047	826.7224943310657	65	127
826.7224943310657	826.9663038548753	72	127
826.7224943310657	827.2333333333333	57	127
826.9663038548753	827.2333333333333	65	127
827.2333333333333	827.4539229024944	74	127
827.2333333333333	827.7093424036282	58	127
827.4539229024944	827.7093424036282	65	127
827.7093424036282	828.0228117913832	70	127
827.7093424036282	828.23179138322	62	127
828.0228117913832	828.23179138322	65	127
828.23179138322	828.6149206349206	60	127
828.23179138322	828.4639909297052	76	127
828.4639909297052	828.6961904761905	67	127
828.6961904761905	829.2302494331066	57	127
828.6961904761905	828.986439909297	77	127
828.986439909297	829.2302494331066	65	127
829.2302494331066	829.4856689342404	72	127
829.2302494331066	829.6365986394558	53	127
829.4856689342404	829.7062585034014	65	127
829.7178684807257	830.2519274376417	72	127
829.7178684807257	830.2519274376417	57	127
829.7178684807257	829.9848979591836	72	127
829.9848979591836	830.2519274376417	65	127
830.2519274376417	830.8092063492063	58	127
830.2519274376417	830.5537868480726	74	127
830.2519274376417	830.8092063492063	74	127
830.5537868480726	830.8092063492063	65	127
830.8092063492063	831.3548752834467	70	127
830.8092063492063	831.3548752834467	62	127
830.8092063492063	831.14589569161	70	127
831.14589569161	831.3548752834467	65	127
831.3548752834467	831.761224489796	60	127
831.3548752834467	831.587074829932	76	127
831.3548752834467	831.8889342403628	76	127
831.587074829932	831.8889342403628	67	127
831.8889342403628	832.3997732426304	77	127
831.8889342403628	832.3997732426304	57	127
831.8889342403628	832.1095238095238	77	127
832.1095238095238	832.3997732426304	65	127
832.3997732426304	832.8409523809523	53	127
832.3997732426304	832.6435827664399	72	127
832.3997732426304	832.8409523809523	72	127
832.6435827664399	832.9454421768708	65	127
832.9454421768708	833.4098412698413	74	127
832.9454421768708	833.177641723356	74	127
832.9454421768708	833.4098412698413	58	127
833.177641723356	833.4098412698413	65	127
833.4098412698413	833.9787301587302	55	127
833.4098412698413	833.7349206349206	75	127
833.4098412698413	833.9787301587302	75	127
833.7349206349206	833.9787301587302	63	127
833.9787301587302	834.2225396825397	70	127
833.9787301587302	834.3618594104308	51	127
833.9787301587302	834.3618594104308	70	127
834.2225396825397	834.4431292517007	63	127
834.4431292517007	835.0004081632653	57	127
834.4431292517007	835.0004081632653	72	127
834.4431292517007	834.6753287981859	72	127
834.6753287981859	835.0004081632653	63	127
835.0004081632653	837.0669841269842	74	127
835.0004081632653	835.5925170068027	54	127
835.0004081632653	835.3370975056689	74	127
835.3370975056689	835.5925170068027	62	127
835.5925170068027	836.0104761904762	50	127
835.5925170068027	835.8479365079365	69	127
835.8479365079365	836.0685260770975	62	127
836.0801360544218	836.5677551020408	55	127
836.0801360544218	836.3471655328798	74	127
836.3471655328798	836.5677551020408	62	127
836.5677551020408	836.8231746031746	70	127
836.5677551020408	836.9857142857143	50	127
836.8231746031746	837.0553741496599	62	127
837.0669841269842	837.3107936507937	70	127
837.0669841269842	837.5894331065759	75	127
837.0669841269842	837.5894331065759	55	127
837.3107936507937	837.5894331065759	63	127
837.5894331065759	837.8216326530612	70	127
837.5894331065759	837.9609523809523	76	127
837.5894331065759	838.1234920634921	72	127
837.5894331065759	837.9609523809523	48	127
837.5894331065759	837.9609523809523	67	127
837.8216326530612	838.1234920634921	64	127
838.1234920634921	838.7504308390023	77	127
838.1234920634921	838.5414512471656	70	127
838.1234920634921	844.1839002267574	41	127
838.1234920634921	840.1552380952381	65	127
838.1234920634921	838.7504308390023	53	127
838.1234920634921	839.2148299319728	74	127
838.5414512471656	838.7504308390023	65	127
838.7504308390023	839.2148299319728	82	127
838.7504308390023	838.9942403628118	74	127
838.7504308390023	839.2148299319728	65	127
838.9942403628118	839.2148299319728	65	127
839.2148299319728	839.6908390022676	63	127
839.2148299319728	839.7604988662132	81	127
839.2148299319728	839.5399092970522	72	127
839.2148299319728	839.7604988662132	72	127
839.5399092970522	839.7604988662132	65	127
839.7604988662132	840.0159183673469	71	127
839.7604988662132	840.2248979591836	71	127
839.7604988662132	840.2248979591836	62	127
839.7604988662132	840.2248979591836	80	127
840.0159183673469	840.2248979591836	65	127
840.2248979591836	840.7473469387755	64	127
840.2248979591836	840.5267573696145	70	127
840.2248979591836	840.7473469387755	70	127
840.2248979591836	840.7473469387755	79	127
840.2248979591836	840.7473469387755	61	127
840.5267573696145	840.7473469387755	64	127
840.7473469387755	841.1885260770975	69	127
840.7473469387755	841.1885260770975	60	127
840.7473469387755	840.9911564625851	69	127
840.7473469387755	841.258185941043	63	127
840.7473469387755	841.1885260770975	78	127
840.9911564625851	841.2465759637188	63	127
841.258185941043	841.7690249433107	62	127
841.258185941043	841.4903854875283	68	127
841.258185941043	841.7690249433107	59	127
841.258185941043	841.7690249433107	77	127
841.258185941043	841.7690249433107	68	127
841.4903854875283	841.7690249433107	62	127
841.7690249433107	842.0476643990929	67	127
841.7690249433107	842.3030839002267	75	127
841.7690249433107	842.3030839002267	67	127
841.7690249433107	842.3030839002267	60	127
841.7690249433107	842.3030839002267	60	127
842.0476643990929	842.3030839002267	60	127
842.3030839002267	842.5468934240363	65	127
842.3030839002267	842.6978231292517	56	127
842.3030839002267	842.8255328798186	59	127
842.3030839002267	842.8255328798186	74	127
842.3030839002267	842.8255328798186	65	127
842.5468934240363	842.8139229024944	59	127
842.8255328798186	843.3363718820862	64	127
842.8255328798186	843.0693424036281	64	127
842.8255328798186	843.3363718820862	58	127
842.8255328798186	843.3363718820862	55	127
842.8255328798186	843.3363718820862	79	127
843.0693424036281	843.3363718820862	58	127
843.3363718820862	843.6034013605442	63	127
843.3363718820862	843.7427210884354	54	127
843.3363718820862	843.812380952381	63	127
843.3363718820862	843.7427210884354	57	127
843.3363718820862	843.7427210884354	72	127
843.6034013605442	843.812380952381	57	127
843.812380952381	844.2187301587302	60	127
843.812380952381	844.2883900226757	78	127
843.812380952381	844.0678004535148	60	127
843.812380952381	844.2883900226757	51	127
844.0678004535148	844.2883900226757	57	127
844.2883900226757	845.8092970521542	41	127
844.2883900226757	844.787619047619	48	127
844.2883900226757	844.567029478458	63	127
844.2883900226757	844.567029478458	65	127
844.2883900226757	844.787619047619	69	127
844.567029478458	844.787619047619	63	127
844.567029478458	844.787619047619	65	127
844.787619047619	845.0778684807257	63	127
844.787619047619	845.3681179138322	74	127
844.787619047619	845.2520181405896	51	127
844.787619047619	845.0778684807257	65	127
845.0778684807257	845.3681179138322	63	127
845.0778684807257	845.3681179138322	65	127
845.3681179138322	845.937006802721	81	127
845.3681179138322	845.937006802721	63	127
845.3681179138322	845.7048072562359	65	127
845.3681179138322	845.937006802721	72	127
845.3681179138322	845.7048072562359	72	127
845.7048072562359	845.937006802721	63	127
845.7048072562359	845.937006802721	65	127
845.937006802721	846.4246258503401	62	127
845.937006802721	846.4246258503401	82	127
845.937006802721	846.1808163265306	70	127
845.937006802721	846.1808163265306	65	127
845.937006802721	847.2953741496599	41	127
845.937006802721	846.4246258503401	70	127
846.1808163265306	846.4246258503401	62	127
846.1808163265306	846.4246258503401	65	127
846.4246258503401	846.8193650793651	65	127
846.4246258503401	846.8193650793651	58	127
846.4246258503401	846.6568253968254	65	127
846.4246258503401	846.6568253968254	70	127
846.4246258503401	846.8890249433107	86	127
846.6568253968254	846.8890249433107	65	127
846.6568253968254	846.8890249433107	62	127
846.8890249433107	847.1444444444444	67	127
846.8890249433107	847.1444444444444	70	127
846.8890249433107	847.3998639455782	67	127
846.8890249433107	847.3998639455782	84	127
846.8890249433107	847.3998639455782	52	127
847.1444444444444	847.3882539682539	60	127
847.1444444444444	847.3882539682539	67	127
847.3998639455782	847.9803628117913	69	127
847.3998639455782	847.9803628117913	53	127
847.3998639455782	847.9803628117913	81	127
847.3998639455782	848.7930612244897	41	127
847.3998639455782	847.6785034013606	65	127
847.3998639455782	847.6785034013606	69	127
847.6785034013606	847.9803628117913	65	127
847.6785034013606	847.9803628117913	60	127
847.9803628117913	848.3634920634921	57	127
847.9803628117913	848.4563718820862	74	127
847.9803628117913	848.2241723356009	74	127
847.9803628117913	848.3634920634921	77	127
847.9803628117913	848.2241723356009	65	127
848.2241723356009	848.4563718820862	57	127
848.2241723356009	848.4563718820862	65	127
848.4563718820862	848.9556009070295	63	127
848.4563718820862	848.6885714285714	65	127
848.4563718820862	848.6885714285714	72	127
848.4563718820862	848.9556009070295	72	127
848.4563718820862	848.9556009070295	81	127
848.6885714285714	848.9439909297053	65	127
848.6885714285714	848.9439909297053	63	127
848.9556009070295	849.5128798185941	70	127
848.9556009070295	849.5128798185941	62	127
848.9556009070295	849.245850340136	70	127
848.9556009070295	849.5128798185941	82	127
848.9556009070295	850.302358276644	41	127
848.9556009070295	849.245850340136	65	127
849.245850340136	849.5128798185941	65	127
849.245850340136	849.5128798185941	62	127
849.5128798185941	849.9772789115647	86	127
849.5128798185941	849.8960090702948	58	127
849.5128798185941	849.8960090702948	65	127
849.5128798185941	849.7566893424037	65	127
849.5128798185941	849.7566893424037	70	127
849.7566893424037	849.9772789115647	62	127
849.7566893424037	849.9772789115647	65	127
849.9772789115647	850.1978684807257	67	127
849.9772789115647	850.1978684807257	70	127
849.9772789115647	850.4068480725624	84	127
849.9772789115647	850.4068480725624	52	127
849.9772789115647	850.4068480725624	67	127
850.1978684807257	850.4068480725624	67	127
850.1978684807257	850.4068480725624	60	127
850.4068480725624	850.9873469387755	53	127
850.4068480725624	850.6738775510204	69	127
850.4068480725624	850.9873469387755	81	127
850.4068480725624	850.6738775510204	65	127
850.4068480725624	850.9873469387755	69	127
850.4068480725624	851.8464852607709	41	127
850.6738775510204	850.9873469387755	65	127
850.6738775510204	850.9873469387755	60	127
850.9873469387755	851.4285260770976	57	127
850.9873469387755	851.4285260770976	77	127
850.9873469387755	851.4285260770976	72	127
850.9873469387755	851.2543764172335	69	127
850.9873469387755	851.2543764172335	65	127
851.2543764172335	851.4981859410431	65	127
851.2543764172335	851.4981859410431	60	127
851.4981859410431	851.9741950113379	65	127
851.4981859410431	851.9741950113379	50	127
851.4981859410431	851.9741950113379	80	127
851.4981859410431	851.7419954648526	68	127
851.4981859410431	851.7419954648526	65	127
851.7419954648526	851.9741950113379	58	127
851.7419954648526	851.9741950113379	65	127
851.9741950113379	852.2180045351474	63	127
851.9741950113379	852.4966439909297	51	127
851.9741950113379	853.3093424036281	41	127
851.9741950113379	852.2180045351474	67	127
851.9741950113379	852.4966439909297	79	127
851.9741950113379	852.4966439909297	67	127
852.2180045351474	852.4966439909297	58	127
852.2180045351474	852.4966439909297	63	127
852.4966439909297	852.8565532879819	75	127
852.4966439909297	852.8565532879819	70	127
852.4966439909297	852.7056235827664	67	127
852.4966439909297	852.7056235827664	63	127
852.4966439909297	852.8565532879819	55	127
852.7056235827664	852.949433106576	58	127
852.7056235827664	852.949433106576	63	127
852.949433106576	853.1932426303855	66	127
852.949433106576	853.483492063492	63	127
852.949433106576	853.483492063492	78	127
852.949433106576	853.1932426303855	63	127
852.949433106576	853.483492063492	48	127
853.1932426303855	853.4718820861679	63	127
853.1932426303855	853.4718820861679	57	127
853.483492063492	854.8418594104309	41	127
853.483492063492	853.9595011337868	65	127
853.483492063492	853.9595011337868	77	127
853.483492063492	853.704081632653	62	127
853.483492063492	853.704081632653	65	127
853.483492063492	853.9595011337868	50	127
853.704081632653	853.9595011337868	62	127
853.704081632653	853.9595011337868	58	127
853.9595011337868	854.2033106575964	62	127
853.9595011337868	854.2033106575964	65	127
853.9595011337868	854.3542403628118	53	127
853.9595011337868	854.3542403628118	74	127
853.9595011337868	854.3542403628118	70	127
854.2033106575964	854.4355102040817	58	127
854.2033106575964	854.4355102040817	62	127
854.4355102040817	854.9579591836734	46	127
854.4355102040817	854.9579591836734	67	127
854.4355102040817	854.9579591836734	76	127
854.4355102040817	854.6793197278912	61	127
854.4355102040817	854.6793197278912	64	127
854.6793197278912	854.9463492063492	61	127
854.6793197278912	854.9463492063492	58	127
854.9579591836734	855.2482086167801	64	127
854.9579591836734	855.2482086167801	61	127
854.9579591836734	856.525306122449	41	127
854.9579591836734	855.4687981859411	49	127
854.9579591836734	855.4687981859411	70	127
854.9579591836734	855.4687981859411	73	127
855.2482086167801	855.4687981859411	61	127
855.2482086167801	855.4687981859411	58	127
855.4687981859411	856.0725170068027	52	127
855.4687981859411	855.863537414966	61	127
855.4687981859411	855.863537414966	64	127
855.4687981859411	856.0725170068027	70	127
855.4687981859411	856.0725170068027	67	127
855.863537414966	856.0725170068027	58	127
855.863537414966	856.0725170068027	61	127
856.0725170068027	856.3859863945578	61	127
856.0725170068027	856.5601360544217	64	127
856.0725170068027	856.5601360544217	67	127
856.0725170068027	856.3859863945578	64	127
856.0725170068027	856.5601360544217	55	127
856.3859863945578	856.6878458049887	61	127
856.3859863945578	856.6878458049887	58	127
856.6878458049887	857.1986848072562	63	127
856.6878458049887	858.0346031746031	57	127
856.6878458049887	858.0346031746031	57	127
856.6878458049887	858.0346031746031	60	127
856.6878458049887	856.9548752834468	41	127
856.6878458049887	857.1986848072562	66	127
856.6878458049887	858.0346031746031	63	127
856.9548752834468	857.4424943310657	41	127
857.1986848072562	857.674693877551	63	127
857.1986848072562	857.674693877551	60	127
857.4424943310657	857.895283446712	41	127
857.674693877551	858.0810430839002	57	127
857.674693877551	858.0810430839002	60	127
857.895283446712	858.3945124716553	41	127
858.1623129251701	859.9386394557823	63	127
858.1623129251701	859.9386394557823	57	127
858.1623129251701	858.6847619047619	66	127
858.1623129251701	858.6847619047619	63	127
858.1623129251701	859.9386394557823	60	127
858.1623129251701	859.9386394557823	57	127
858.3945124716553	858.9053514739229	41	127
858.6847619047619	859.4626303854875	63	127
858.6847619047619	859.4626303854875	60	127
858.9053514739229	859.7296598639456	41	127
859.4626303854875	859.9850793650794	60	127
859.4626303854875	859.9850793650794	57	127
859.7296598639456	860.3682086167801	41	127
860.0779591836734	861.2273469387756	60	127
860.0779591836734	860.8093877551021	63	127
860.0779591836734	861.2273469387756	57	127
860.0779591836734	861.2273469387756	63	127
860.0779591836734	860.8093877551021	66	127
860.0779591836734	862.0980952380952	57	127
860.3682086167801	861.1112471655329	41	127
860.8093877551021	861.3434467120181	65	127
860.8093877551021	861.3434467120181	62	127
861.1112471655329	861.7381859410431	41	127
861.3434467120181	862.2490249433107	60	127
861.3434467120181	862.2490249433107	63	127
861.7497959183673	862.57410430839	41	127
862.3302947845805	863.2590929705216	63	127
862.3302947845805	863.2590929705216	54	127
862.3302947845805	864.4084807256236	57	127
862.57410430839	863.5725623582766	41	127
863.2590929705216	864.0137414965986	53	127
863.2590929705216	864.0137414965986	62	127
863.5725623582766	864.2691609977325	41	127
864.0137414965986	864.4549206349207	51	127
864.0137414965986	864.4549206349207	60	127
864.2691609977325	874.31179138322	41	127
864.5361904761904	865.1050793650794	58	127
864.5361904761904	865.1050793650794	50	127
864.5361904761904	865.1050793650794	58	127
888.127664399093	888.4875736961451	62	127
888.127664399093	888.4875736961451	74	127
888.127664399093	888.4875736961451	38	127
888.127664399093	888.4875736961451	50	127
888.4991836734694	889.0680725623582	65	127
888.4991836734694	889.0680725623582	69	127
888.4991836734694	889.0680725623582	53	127
888.4991836734694	888.8707029478458	65	127
888.4991836734694	889.0680725623582	65	127
888.4991836734694	889.0680725623582	57	127
888.4991836734694	889.0680725623582	48	127
888.4991836734694	888.8707029478458	41	127
888.4991836734694	888.8707029478458	57	127
888.4991836734694	889.0680725623582	41	127
888.4991836734694	889.0680725623582	60	127
888.6849433106576	889.0680725623582	75	127
888.6849433106576	889.0680725623582	57	127
888.6849433106576	889.0680725623582	77	127
889.277052154195	889.67179138322	46	127
889.277052154195	889.8923809523809	50	127
889.277052154195	889.8923809523809	46	127
889.277052154195	889.8923809523809	62	127
889.277052154195	889.8923809523809	50	127
889.277052154195	889.8923809523809	70	127
889.277052154195	889.67179138322	58	127
889.277052154195	889.8923809523809	58	127
889.277052154195	889.8923809523809	70	127
889.277052154195	889.67179138322	62	127
889.277052154195	889.8923809523809	65	127
889.4628117913833	889.8923809523809	82	127
889.4628117913833	889.8923809523809	74	127
889.4628117913833	889.8923809523809	58	127
893.1547845804988	893.4450340136054	46	127
