# onset,offset,note,velocity
2.0541950113378684	2.6579138321995464	57	127
2.6811337868480725	3.6099319727891155	53	127
2.6811337868480725	4.4458503401360545	62	127
2.6811337868480725	3.6099319727891155	50	127
2.6811337868480725	3.6099319727891155	57	127
2.6811337868480725	3.6099319727891155	62	127
4.039501133786848	5.1540589569161	50	127
4.039501133786848	5.1540589569161	57	127
4.039501133786848	5.1540589569161	62	127
4.039501133786848	5.1540589569161	53	127
4.631609977324263	4.968299319727891	64	127
5.0147392290249435	6.140907029478458	65	127
6.1525170068027215	7.127755102040816	49	127
6.1525170068027215	7.127755102040816	57	127
6.1525170068027215	7.127755102040816	64	127
6.1525170068027215	7.127755102040816	52	127
6.1525170068027215	8.02172335600907	64	127
7.568934240362812	8.579002267573696	52	127
7.568934240362812	8.579002267573696	64	127
7.568934240362812	8.579002267573696	57	127
7.568934240362812	8.579002267573696	49	127
8.20748299319728	9.008571428571429	57	127
9.020181405895691	10.053469387755102	50	127
9.020181405895691	10.053469387755102	57	127
9.020181405895691	10.053469387755102	65	127
9.020181405895691	10.053469387755102	57	127
9.020181405895691	10.982267573696145	65	127
10.726848072562358	11.585986394557823	50	127
10.726848072562358	11.585986394557823	57	127
10.726848072562358	11.585986394557823	65	127
10.726848072562358	11.585986394557823	62	127
10.982267573696145	11.051927437641723	67	127
11.051927437641723	11.109977324263038	65	127
11.109977324263038	11.168027210884354	64	127
11.168027210884354	11.22607709750567	65	127
11.237687074829932	11.469863945578231	67	127
11.481496598639456	12.131655328798185	69	127
12.14326530612245	13.06045351473923	55	127
12.14326530612245	13.861541950113379	67	127
12.14326530612245	13.06045351473923	62	127
12.14326530612245	13.06045351473923	67	127
12.14326530612245	13.06045351473923	47	127
13.466802721088435	14.511700680272108	62	127
13.466802721088435	14.511700680272108	67	127
13.466802721088435	14.511700680272108	55	127
13.466802721088435	14.511700680272108	47	127
14.070521541950113	14.720680272108844	55	127
14.732290249433106	15.719138321995464	55	127
14.732290249433106	16.624716553287982	67	127
14.732290249433106	15.719138321995464	48	127
14.732290249433106	15.719138321995464	67	127
14.732290249433106	15.719138321995464	64	127
16.322857142857142	17.228412698412697	60	127
16.322857142857142	17.228412698412697	46	127
16.322857142857142	17.228412698412697	64	127
16.322857142857142	17.228412698412697	67	127
16.624716553287982	16.69437641723356	69	127
16.69437641723356	16.764036281179138	67	127
16.764036281179138	16.822086167800453	65	127
16.822086167800453	16.868526077097506	67	127
16.88013605442177	17.135555555555555	69	127
17.147165532879818	17.8437641723356	70	127
17.8437641723356	18.63324263038549	60	127
17.8437641723356	19.09764172335601	45	127
17.8437641723356	18.63324263038549	65	127
17.8437641723356	18.63324263038549	69	127
17.8437641723356	19.78263038548753	72	127
18.63324263038549	19.434331065759636	60	127
18.63324263038549	19.434331065759636	48	127
19.434331065759636	20.46761904761905	43	127
19.434331065759636	20.107709750566894	62	127
19.434331065759636	20.107709750566894	50	127
19.78263038548753	20.09609977324263	70	127
20.107709750566894	20.63015873015873	58	127
20.107709750566894	20.63015873015873	46	127
20.107709750566894	20.339909297052156	62	127
20.351519274376418	20.63015873015873	64	127
20.641768707482992	21.96530612244898	41	127
20.641768707482992	21.524126984126983	45	127
20.641768707482992	21.96530612244898	65	127
20.641768707482992	21.524126984126983	57	127
21.524126984126983	22.313605442176872	48	127
21.524126984126983	22.290385487528344	60	127
22.313605442176872	22.68512471655329	67	127
22.313605442176872	23.404943310657597	46	127
22.313605442176872	23.03342403628118	50	127
22.313605442176872	23.03342403628118	62	127
22.68512471655329	22.870861678004534	69	127
22.870861678004534	23.021814058956917	67	127
23.03342403628118	23.7184126984127	52	127
23.03342403628118	23.31204081632653	65	127
23.03342403628118	23.7184126984127	64	127
23.323673469387757	23.7184126984127	67	127
23.73002267573696	24.577551020408162	64	127
23.73002267573696	24.577551020408162	45	127
23.73002267573696	24.0318820861678	52	127
23.73002267573696	24.577551020408162	61	127
23.73002267573696	24.577551020408162	57	127
23.73002267573696	24.577551020408162	49	127
23.88095238095238	24.577551020408162	69	127
24.879410430839002	25.773378684807255	49	127
24.879410430839002	25.773378684807255	45	127
24.879410430839002	25.773378684807255	57	127
24.879410430839002	25.16965986394558	52	127
24.879410430839002	25.33219954648526	61	127
24.879410430839002	25.773378684807255	64	127
25.030340136054424	25.33219954648526	69	127
25.494739229024944	26.760226757369615	57	127
25.494739229024944	26.760226757369615	69	127
26.760226757369615	27.213015873015873	50	127
26.760226757369615	27.213015873015873	57	127
26.760226757369615	27.213015873015873	62	127
26.760226757369615	27.863174603174603	57	127
26.760226757369615	27.863174603174603	62	127
26.760226757369615	27.863174603174603	53	127
26.760226757369615	27.863174603174603	62	127
26.760226757369615	27.863174603174603	57	127
26.760226757369615	27.863174603174603	50	127
26.760226757369615	28.50172335600907	74	127
27.491655328798185	27.758684807256238	57	127
28.060544217687074	29.314421768707483	50	127
28.060544217687074	29.314421768707483	57	127
28.060544217687074	29.314421768707483	62	127
28.060544217687074	29.314421768707483	53	127
28.060544217687074	29.314421768707483	62	127
28.060544217687074	29.314421768707483	57	127
28.060544217687074	28.362403628117914	50	127
28.060544217687074	28.362403628117914	62	127
28.060544217687074	28.362403628117914	57	127
28.757142857142856	29.22154195011338	57	127
28.757142857142856	29.198321995464852	76	127
29.22154195011338	29.535011337868482	77	127
29.546621315192745	29.929750566893425	49	127
29.546621315192745	30.63795918367347	57	127
29.546621315192745	30.63795918367347	49	127
29.546621315192745	30.63795918367347	52	127
29.546621315192745	31.20684807256236	76	127
29.546621315192745	30.63795918367347	64	127
29.546621315192745	30.63795918367347	57	127
29.546621315192745	30.63795918367347	64	127
29.546621315192745	29.929750566893425	64	127
29.546621315192745	29.929750566893425	57	127
30.312879818594105	30.545079365079363	57	127
30.812108843537416	31.89183673469388	49	127
30.812108843537416	31.89183673469388	57	127
30.812108843537416	31.89183673469388	64	127
30.812108843537416	31.89183673469388	57	127
30.812108843537416	31.89183673469388	64	127
30.812108843537416	31.89183673469388	52	127
30.812108843537416	31.10235827664399	49	127
30.812108843537416	31.10235827664399	57	127
30.812108843537416	31.10235827664399	64	127
31.531927437641723	32.62326530612245	69	127
31.531927437641723	31.798956916099772	57	127
32.64648526077097	33.69138321995465	57	127
32.64648526077097	34.10934240362812	77	127
32.64648526077097	32.948344671201816	57	127
32.64648526077097	33.69138321995465	57	127
32.64648526077097	33.69138321995465	62	127
32.64648526077097	33.69138321995465	53	127
32.64648526077097	32.948344671201816	50	127
32.64648526077097	32.948344671201816	65	127
32.64648526077097	33.69138321995465	50	127
32.64648526077097	33.69138321995465	65	127
33.30825396825397	33.61011337868481	57	127
33.85392290249433	35.177460317460316	65	127
33.85392290249433	34.10934240362812	50	127
33.85392290249433	34.10934240362812	57	127
33.85392290249433	34.10934240362812	65	127
33.85392290249433	35.177460317460316	57	127
33.85392290249433	35.177460317460316	53	127
33.85392290249433	35.177460317460316	62	127
33.85392290249433	35.177460317460316	57	127
33.85392290249433	35.177460317460316	50	127
34.10934240362812	34.16739229024943	79	127
34.16739229024943	34.22544217687075	77	127
34.22544217687075	34.30668934240363	76	127
34.30668934240363	34.364761904761906	77	127
34.37637188208617	35.04975056689342	79	127
34.37637188208617	35.061360544217685	57	127
35.061360544217685	35.398049886621315	81	127
35.47931972789116	36.60546485260771	50	127
35.47931972789116	37.255646258503404	79	127
35.47931972789116	35.932108843537414	50	127
35.47931972789116	35.932108843537414	55	127
35.47931972789116	35.932108843537414	67	127
35.47931972789116	36.60546485260771	62	127
35.47931972789116	36.60546485260771	67	127
35.47931972789116	36.60546485260771	55	127
35.47931972789116	36.60546485260771	62	127
35.47931972789116	36.60546485260771	47	127
36.1875283446712	36.466145124716554	55	127
36.86090702947846	37.97546485260771	55	127
36.86090702947846	37.97546485260771	62	127
36.86090702947846	37.97546485260771	50	127
36.86090702947846	37.97546485260771	67	127
36.86090702947846	37.97546485260771	62	127
36.86090702947846	37.17437641723356	67	127
36.86090702947846	37.17437641723356	55	127
36.86090702947846	37.97546485260771	47	127
36.86090702947846	37.17437641723356	50	127
37.45301587301587	38.463083900226756	67	127
37.45301587301587	37.88258503401361	55	127
38.50952380952381	38.84621315192744	60	127
38.50952380952381	38.84621315192744	67	127
38.50952380952381	39.670521541950116	64	127
38.50952380952381	38.84621315192744	52	127
38.50952380952381	39.670521541950116	67	127
38.50952380952381	39.670521541950116	55	127
38.50952380952381	39.670521541950116	64	127
38.50952380952381	39.670521541950116	52	127
38.50952380952381	39.670521541950116	48	127
38.50952380952381	40.251020408163264	79	127
39.31061224489796	39.58925170068027	55	127
39.94916099773243	40.251020408163264	60	127
39.94916099773243	40.251020408163264	52	127
39.94916099773243	40.251020408163264	67	127
39.94916099773243	41.191428571428574	64	127
39.94916099773243	41.191428571428574	67	127
39.94916099773243	41.191428571428574	60	127
39.94916099773243	41.191428571428574	64	127
39.94916099773243	41.191428571428574	55	127
39.94916099773243	41.191428571428574	46	127
40.251020408163264	40.33229024943311	81	127
40.33229024943311	40.39034013605442	79	127
40.39034013605442	40.483219954648526	77	127
40.483219954648526	40.56448979591837	79	127
40.57609977324263	41.05210884353742	55	127
40.57609977324263	41.04047619047619	81	127
41.05210884353742	41.45845804988662	82	127
41.470068027210885	42.189886621315196	65	127
41.470068027210885	42.189886621315196	60	127
41.470068027210885	41.80673469387755	57	127
41.470068027210885	41.80673469387755	72	127
41.470068027210885	41.80673469387755	65	127
41.470068027210885	42.189886621315196	57	127
41.470068027210885	42.82843537414966	72	127
41.470068027210885	43.42054421768707	84	127
41.470068027210885	42.82843537414966	45	127
41.470068027210885	42.82843537414966	65	127
42.20149659863946	42.723945578231294	60	127
42.20149659863946	43.01419501133787	60	127
42.20149659863946	43.01419501133787	48	127
43.01419501133787	43.67596371882086	62	127
43.01419501133787	43.42054421768707	62	127
43.01419501133787	43.42054421768707	70	127
43.01419501133787	43.42054421768707	55	127
43.01419501133787	43.68757369614512	62	127
43.01419501133787	43.68757369614512	50	127
43.01419501133787	44.16358276643991	70	127
43.01419501133787	44.16358276643991	43	127
43.42054421768707	43.67596371882086	82	127
43.68757369614512	44.44222222222222	64	127
43.68757369614512	44.04748299319728	58	127
43.68757369614512	44.44222222222222	46	127
43.68757369614512	44.44222222222222	58	127
43.68757369614512	44.02426303854875	74	127
44.04748299319728	44.44222222222222	76	127
44.45383219954648	45.23167800453515	57	127
44.45383219954648	45.23167800453515	45	127
44.45383219954648	45.66126984126984	65	127
44.45383219954648	45.66126984126984	77	127
44.45383219954648	45.66126984126984	69	127
44.45383219954648	45.66126984126984	41	127
44.45383219954648	44.94145124716553	60	127
44.45383219954648	44.94145124716553	53	127
44.45383219954648	44.94145124716553	65	127
44.45383219954648	44.94145124716553	69	127
45.23167800453515	45.58	57	127
45.23167800453515	45.951519274376416	60	127
45.23167800453515	45.96312925170068	48	127
45.96312925170068	46.63650793650794	50	127
45.96312925170068	47.03124716553288	67	127
45.96312925170068	47.03124716553288	46	127
45.96312925170068	46.276598639455784	79	127
45.96312925170068	46.276598639455784	50	127
45.96312925170068	46.276598639455784	58	127
45.96312925170068	46.276598639455784	67	127
45.96312925170068	46.63650793650794	62	127
45.96312925170068	47.03124716553288	62	127
46.276598639455784	46.46235827664399	81	127
46.46235827664399	46.62487528344671	79	127
46.63650793650794	46.92675736961451	55	127
46.63650793650794	47.29827664399093	64	127
46.63650793650794	46.90353741496599	77	127
46.63650793650794	47.29827664399093	52	127
46.92675736961451	47.29827664399093	79	127
47.309886621315194	47.693015873015874	69	127
47.309886621315194	48.459274376417234	45	127
47.309886621315194	48.459274376417234	49	127
47.309886621315194	48.459274376417234	64	127
47.309886621315194	48.459274376417234	57	127
47.309886621315194	48.459274376417234	69	127
47.309886621315194	48.459274376417234	61	127
47.309886621315194	47.693015873015874	64	127
47.309886621315194	48.076145124716554	73	127
47.309886621315194	47.68140589569161	64	127
47.309886621315194	47.693015873015874	49	127
47.309886621315194	47.693015873015874	57	127
47.507233560090704	48.076145124716554	81	127
48.087755102040816	48.459274376417234	57	127
49.24875283446712	49.55061224489796	64	127
49.24875283446712	49.562222222222225	49	127
49.24875283446712	49.562222222222225	57	127
49.24875283446712	49.562222222222225	64	127
49.24875283446712	49.562222222222225	69	127
49.24875283446712	49.678321995464856	73	127
49.24875283446712	50.13111111111111	61	127
49.24875283446712	50.13111111111111	69	127
49.24875283446712	50.13111111111111	57	127
49.24875283446712	50.13111111111111	64	127
49.24875283446712	50.13111111111111	49	127
49.24875283446712	50.13111111111111	45	127
49.4112925170068	49.678321995464856	81	127
49.829251700680274	50.479410430839	57	127
50.491020408163266	52.128027210884355	69	127
50.491020408163266	51.53591836734694	50	127
50.491020408163266	51.53591836734694	53	127
50.491020408163266	51.53591836734694	62	127
50.491020408163266	51.53591836734694	57	127
51.860997732426306	52.847845804988665	53	127
51.860997732426306	52.847845804988665	57	127
51.860997732426306	52.847845804988665	62	127
51.860997732426306	52.847845804988665	50	127
52.128027210884355	52.23251700680272	71	127
52.23251700680272	52.37183673469388	69	127
52.37183673469388	52.44149659863945	67	127
52.453106575963716	52.76657596371882	69	127
52.76657596371882	53.03360544217687	71	127
53.04521541950113	53.985623582766436	60	127
53.04521541950113	53.985623582766436	55	127
53.04521541950113	53.985623582766436	48	127
53.04521541950113	55.076961451247165	64	127
53.04521541950113	53.56766439909297	55	127
53.04521541950113	53.985623582766436	64	127
53.31224489795918	55.076961451247165	72	127
54.72866213151927	55.65746031746032	48	127
54.72866213151927	55.65746031746032	60	127
54.72866213151927	55.65746031746032	64	127
54.72866213151927	55.65746031746032	55	127
55.27433106575964	56.31922902494331	60	127
56.3540589569161	57.4221768707483	67	127
56.3540589569161	57.4221768707483	64	127
56.3540589569161	57.4221768707483	60	127
56.3540589569161	57.4221768707483	46	127
56.3540589569161	57.94462585034014	72	127
57.66598639455783	58.57156462585034	67	127
57.66598639455783	58.57156462585034	60	127
57.66598639455783	58.57156462585034	46	127
57.66598639455783	58.57156462585034	64	127
57.94462585034014	58.025895691609975	74	127
58.025895691609975	58.13038548752834	72	127
58.13038548752834	58.23487528344671	71	127
58.246485260770974	58.4902947845805	72	127
58.4902947845805	58.792154195011335	74	127
58.81537414965987	59.40748299319728	61	127
58.81537414965987	59.76739229024943	64	127
58.81537414965987	59.76739229024943	69	127
58.81537414965987	59.76739229024943	61	127
58.81537414965987	59.76739229024943	45	127
58.81537414965987	61.05609977324263	69	127
59.1172335600907	61.05609977324263	76	127
60.55687074829932	61.961678004535145	69	127
60.55687074829932	61.961678004535145	45	127
60.55687074829932	61.961678004535145	61	127
60.55687074829932	61.961678004535145	64	127
61.4740589569161	62.135827664399095	69	127
62.14743764172336	63.15750566893424	50	127
62.14743764172336	63.15750566893424	69	127
62.14743764172336	63.15750566893424	66	127
62.14743764172336	63.15750566893424	78	127
62.14743764172336	62.77437641723356	62	127
62.77437641723356	63.41292517006803	60	127
63.41292517006803	64.46943310657596	68	127
63.41292517006803	64.07469387755103	59	127
63.41292517006803	64.46943310657596	80	127
63.41292517006803	64.46943310657596	74	127
63.41292517006803	64.46943310657596	52	127
64.07469387755103	64.70163265306122	64	127
64.7132426303855	65.85102040816327	69	127
64.7132426303855	65.85102040816327	54	127
64.7132426303855	66.57083900226758	81	127
64.7132426303855	65.50272108843538	62	127
64.7132426303855	65.85102040816327	74	127
65.50272108843538	66.26897959183674	60	127
66.26897959183674	66.97718820861678	55	127
66.26897959183674	67.45319727891156	74	127
66.26897959183674	67.45319727891156	71	127
66.26897959183674	66.98879818594105	59	127
66.57083900226758	66.97718820861678	79	127
66.98879818594105	67.33709750566894	74	127
66.98879818594105	67.63895691609977	64	127
66.98879818594105	67.63895691609977	56	127
67.34868480725623	67.63895691609977	76	127
67.63895691609977	69.11340136054422	74	127
67.63895691609977	68.5445351473923	62	127
67.63895691609977	68.99732426303855	77	127
67.63895691609977	69.11340136054422	65	127
67.63895691609977	69.11340136054422	57	127
68.5445351473923	69.27596371882086	57	127
69.00891156462585	69.14825396825397	76	127
69.15986394557824	69.27596371882086	77	127
69.28757369614513	69.38045351473923	77	127
69.28757369614513	70.00736961451247	58	127
69.28757369614513	70.0190022675737	64	127
69.28757369614513	70.0190022675737	67	127
69.28757369614513	70.44857142857143	45	127
69.38045351473923	69.43850340136055	79	127
69.43850340136055	70.00736961451247	79	127
70.0190022675737	70.27442176870748	77	127
70.0190022675737	70.27442176870748	57	127
70.0190022675737	70.62272108843537	61	127
70.0190022675737	70.62272108843537	69	127
70.28600907029478	70.62272108843537	76	127
70.28600907029478	70.62272108843537	55	127
70.63433106575964	70.959410430839	57	127
70.63433106575964	71.51668934240362	65	127
70.63433106575964	71.51668934240362	45	127
70.63433106575964	71.51668934240362	53	127
70.63433106575964	71.51668934240362	62	127
70.63433106575964	71.51668934240362	38	127
70.78526077097506	71.51668934240362	74	127
70.78526077097506	71.51668934240362	69	127
71.99269841269842	72.41065759637188	62	127
71.99269841269842	72.82861678004535	53	127
71.99269841269842	72.82861678004535	38	127
71.99269841269842	72.82861678004535	45	127
71.99269841269842	72.28294784580498	57	127
71.99269841269842	72.41065759637188	65	127
72.14362811791383	72.41065759637188	69	127
72.14362811791383	72.41065759637188	74	127
72.56156462585034	73.09564625850341	57	127
72.56156462585034	73.09564625850341	69	127
73.17689342403628	73.50199546485261	62	127
73.17689342403628	74.33791383219955	65	127
73.17689342403628	74.33791383219955	69	127
73.17689342403628	74.33791383219955	57	127
73.17689342403628	74.33791383219955	62	127
73.17689342403628	75.05773242630386	81	127
73.17689342403628	74.33791383219955	50	127
73.17689342403628	74.33791383219955	53	127
73.17689342403628	73.50199546485261	69	127
73.17689342403628	73.50199546485261	53	127
73.17689342403628	73.50199546485261	57	127
73.88512471655329	74.23342403628118	57	127
74.62816326530613	75.05773242630386	53	127
74.62816326530613	75.88204081632654	69	127
74.62816326530613	75.88204081632654	57	127
74.62816326530613	75.88204081632654	62	127
74.62816326530613	75.88204081632654	53	127
74.62816326530613	75.88204081632654	50	127
74.62816326530613	75.88204081632654	65	127
74.62816326530613	75.05773242630386	57	127
74.62816326530613	75.05773242630386	62	127
74.62816326530613	75.05773242630386	69	127
75.05773242630386	75.1390022675737	83	127
75.1390022675737	75.39442176870749	81	127
75.39442176870749	75.48730158730159	79	127
75.49891156462586	75.77755102040817	81	127
75.49891156462586	75.78916099773242	57	127
75.78916099773242	76.14907029478458	83	127
76.16068027210885	76.76439909297052	64	127
76.16068027210885	76.76439909297052	55	127
76.16068027210885	76.76439909297052	72	127
76.16068027210885	77.43777777777778	64	127
76.16068027210885	77.43777777777778	72	127
76.16068027210885	77.43777777777778	60	127
76.16068027210885	77.43777777777778	64	127
76.16068027210885	77.43777777777778	55	127
76.16068027210885	77.43777777777778	48	127
76.16068027210885	77.9950566893424	84	127
77.0546485260771	77.33328798185941	60	127
77.60031746031746	78.7497052154195	64	127
77.60031746031746	78.7497052154195	72	127
77.60031746031746	78.7497052154195	60	127
77.60031746031746	78.7497052154195	64	127
77.60031746031746	78.7497052154195	55	127
77.60031746031746	78.7497052154195	48	127
77.60031746031746	77.91378684807256	72	127
77.60031746031746	77.91378684807256	55	127
77.60031746031746	77.91378684807256	64	127
78.18081632653062	78.6568253968254	60	127
78.18081632653062	78.9702947845805	72	127
78.9702947845805	79.29537414965986	64	127
78.9702947845805	79.96875283446713	64	127
78.9702947845805	79.96875283446713	72	127
78.9702947845805	79.96875283446713	60	127
78.9702947845805	79.96875283446713	67	127
78.9702947845805	79.96875283446713	52	127
78.9702947845805	80.50281179138322	84	127
78.9702947845805	79.96875283446713	46	127
78.9702947845805	79.29537414965986	72	127
78.9702947845805	79.29537414965986	55	127
79.5972335600907	79.84104308390023	60	127
80.25900226757369	80.50281179138322	64	127
80.25900226757369	81.35034013605443	46	127
80.25900226757369	81.35034013605443	52	127
80.25900226757369	81.35034013605443	67	127
80.25900226757369	81.35034013605443	60	127
80.25900226757369	81.35034013605443	72	127
80.25900226757369	81.35034013605443	64	127
80.25900226757369	80.50281179138322	55	127
80.25900226757369	80.50281179138322	72	127
80.50281179138322	80.5724716553288	86	127
80.5724716553288	80.66532879818594	84	127
80.66532879818594	80.73501133786849	83	127
80.74662131519274	81.25746031746031	60	127
80.74662131519274	81.23424036281179	84	127
81.25746031746031	81.861179138322	86	127
81.87278911564626	82.30235827664399	61	127
81.87278911564626	82.30235827664399	69	127
81.87278911564626	82.30235827664399	76	127
81.87278911564626	82.95251700680272	64	127
81.87278911564626	82.95251700680272	73	127
81.87278911564626	82.95251700680272	61	127
81.87278911564626	82.95251700680272	69	127
81.87278911564626	82.95251700680272	52	127
81.87278911564626	82.95251700680272	45	127
81.87278911564626	83.52140589569161	88	127
82.59260770975057	82.85963718820862	64	127
83.11505668934241	83.68394557823129	52	127
83.11505668934241	84.21798185941043	64	127
83.11505668934241	84.21798185941043	73	127
83.11505668934241	84.21798185941043	45	127
83.11505668934241	83.68394557823129	69	127
83.11505668934241	83.4285260770975	61	127
83.11505668934241	83.4285260770975	69	127
83.11505668934241	83.4285260770975	76	127
83.11505668934241	83.68394557823129	61	127
83.69555555555556	84.11349206349206	64	127
83.69555555555556	84.61274376417234	69	127
83.69555555555556	84.61274376417234	57	127
83.69555555555556	84.60111111111111	81	127
84.61274376417234	85.20485260770975	78	127
84.61274376417234	85.4718820861678	62	127
84.61274376417234	85.80857142857143	90	127
84.61274376417234	85.80857142857143	66	127
84.61274376417234	85.80857142857143	38	127
84.61274376417234	85.80857142857143	74	127
84.61274376417234	85.20485260770975	62	127
84.61274376417234	85.20485260770975	69	127
84.61274376417234	85.4718820861678	74	127
85.4718820861678	86.08721088435374	72	127
85.4718820861678	86.08721088435374	60	127
85.4718820861678	85.72730158730158	69	127
86.08721088435374	87.14371882086168	92	127
86.08721088435374	86.7954195011338	59	127
86.08721088435374	86.51675736961451	74	127
86.08721088435374	86.51675736961451	80	127
86.08721088435374	87.14371882086168	74	127
86.08721088435374	86.51675736961451	64	127
86.08721088435374	87.14371882086168	68	127
86.08721088435374	87.14371882086168	40	127
86.08721088435374	86.7954195011338	71	127
86.7954195011338	87.06244897959184	74	127
86.7954195011338	87.41072562358276	76	127
86.7954195011338	87.41072562358276	64	127
87.42235827664399	88.29310657596372	74	127
87.42235827664399	88.0260544217687	81	127
87.42235827664399	88.0260544217687	69	127
87.42235827664399	88.0260544217687	62	127
87.42235827664399	88.65301587301587	69	127
87.42235827664399	89.37283446712019	93	127
87.42235827664399	88.65301587301587	42	127
87.42235827664399	88.65301587301587	74	127
87.42235827664399	88.29310657596372	62	127
88.29310657596372	88.83877551020409	60	127
88.29310657596372	88.56013605442178	74	127
88.29310657596372	88.83877551020409	72	127
88.83877551020409	89.62825396825397	43	127
88.83877551020409	90.17390022675737	74	127
88.83877551020409	90.17390022675737	71	127
88.83877551020409	89.63986394557823	59	127
88.83877551020409	89.37283446712019	55	127
88.83877551020409	89.37283446712019	71	127
88.83877551020409	89.37283446712019	74	127
88.83877551020409	89.63986394557823	71	127
89.37283446712019	89.62825396825397	91	127
89.63986394557823	90.37129251700681	76	127
89.63986394557823	90.01138321995465	86	127
89.63986394557823	90.02299319727891	62	127
89.63986394557823	90.37129251700681	64	127
89.63986394557823	90.37129251700681	44	127
90.02299319727891	90.37129251700681	88	127
90.38290249433106	91.439410430839	77	127
90.38290249433106	90.75442176870749	62	127
90.38290249433106	90.75442176870749	69	127
90.38290249433106	90.75442176870749	77	127
90.38290249433106	91.04467120181405	74	127
90.38290249433106	91.04467120181405	62	127
90.38290249433106	91.33492063492064	89	127
90.38290249433106	91.439410430839	69	127
90.38290249433106	91.439410430839	45	127
91.04467120181405	91.78770975056689	57	127
91.04467120181405	91.3465306122449	69	127
91.04467120181405	91.78770975056689	69	127
91.3465306122449	91.4742403628118	88	127
91.49746031746032	91.78770975056689	89	127
91.79931972789116	92.44947845804988	67	127
91.79931972789116	92.18244897959184	64	127
91.79931972789116	92.9487074829932	45	127
91.79931972789116	92.18244897959184	73	127
91.79931972789116	92.44947845804988	58	127
91.79931972789116	92.44947845804988	70	127
91.79931972789116	92.44947845804988	76	127
91.79931972789116	91.86897959183673	88	127
91.86897959183673	92.03151927437642	89	127
92.03151927437642	92.44947845804988	91	127
92.46108843537415	93.13446712018141	73	127
92.46108843537415	93.13446712018141	64	127
92.46108843537415	92.8209977324263	57	127
92.46108843537415	92.83260770975056	69	127
92.46108843537415	92.8209977324263	69	127
92.46108843537415	92.8209977324263	89	127
92.83260770975056	93.13446712018141	88	127
92.83260770975056	93.13446712018141	67	127
92.83260770975056	93.13446712018141	55	127
93.14607709750567	94.08648526077097	45	127
93.14607709750567	93.4479365079365	65	127
93.14607709750567	93.4479365079365	74	127
93.14607709750567	94.08648526077097	77	127
93.14607709750567	94.08648526077097	69	127
93.14607709750567	94.08648526077097	57	127
93.14607709750567	94.08648526077097	38	127
93.14607709750567	93.43632653061225	62	127
93.14607709750567	93.43632653061225	62	127
93.14607709750567	93.43632653061225	50	127
93.14607709750567	93.43632653061225	38	127
93.14607709750567	93.4479365079365	57	127
93.30861678004536	94.08648526077097	86	127
93.30861678004536	94.08648526077097	53	127
93.30861678004536	94.08648526077097	65	127
93.30861678004536	94.08648526077097	74	127
93.78462585034013	94.09809523809524	69	127
94.62052154195011	95.0849433106576	65	127
94.62052154195011	94.94562358276644	62	127
94.62052154195011	94.94562358276644	57	127
94.62052154195011	94.94562358276644	62	127
94.62052154195011	94.94562358276644	50	127
94.62052154195011	94.94562358276644	38	127
94.62052154195011	95.0849433106576	77	127
94.62052154195011	95.0849433106576	69	127
94.62052154195011	95.0849433106576	57	127
94.62052154195011	95.0849433106576	45	127
94.62052154195011	95.0849433106576	38	127
94.81791383219955	95.0849433106576	53	127
94.81791383219955	95.0849433106576	86	127
94.81791383219955	95.0849433106576	65	127
94.81791383219955	95.0849433106576	74	127
94.81791383219955	95.0849433106576	74	127
95.42163265306122	96.17628117913833	57	127
95.42163265306122	96.17628117913833	57	127
95.42163265306122	96.17628117913833	45	127
96.18789115646258	96.72195011337868	57	127
96.18789115646258	96.57102040816326	45	127
96.18789115646258	96.72195011337868	45	127
96.18789115646258	96.55941043083901	50	127
96.18789115646258	96.55941043083901	38	127
96.18789115646258	96.57102040816326	38	127
96.32721088435375	96.72195011337868	62	127
96.32721088435375	96.57102040816326	53	127
96.32721088435375	96.57102040816326	62	127
96.32721088435375	96.72195011337868	53	127
96.57102040816326	96.91931972789115	57	127
96.91931972789115	97.32566893424037	53	127
97.32566893424037	97.6275283446712	57	127
97.70879818594105	98.02226757369614	50	127
98.02226757369614	98.31251700680272	53	127
98.31251700680272	98.86979591836734	57	127
98.31251700680272	98.86979591836734	45	127
98.31251700680272	98.6027664399093	52	127
98.6027664399093	98.86979591836734	50	127
98.88140589569161	99.34580498866214	64	127
98.88140589569161	99.50834467120181	45	127
98.88140589569161	99.33419501133787	37	127
98.88140589569161	99.50834467120181	57	127
98.88140589569161	99.33419501133787	49	127
99.16004535147393	99.50834467120181	64	127
99.16004535147393	99.50834467120181	52	127
99.34580498866214	99.65927437641723	61	127
99.65927437641723	99.96113378684807	57	127
99.96113378684807	100.33265306122449	61	127
100.34426303854875	100.65773242630385	52	127
100.65773242630385	100.97120181405896	55	127
100.97120181405896	101.29628117913832	53	127
100.97120181405896	101.69102040816327	57	127
100.97120181405896	101.69102040816327	45	127
101.29628117913832	101.69102040816327	52	127
101.70263038548752	102.00448979591837	38	127
101.70263038548752	102.15541950113379	45	127
101.70263038548752	102.15541950113379	57	127
101.70263038548752	102.01609977324263	65	127
101.70263038548752	102.00448979591837	50	127
101.86517006802721	102.15541950113379	53	127
101.86517006802721	102.15541950113379	65	127
102.01609977324263	102.30634920634921	62	127
102.30634920634921	102.57337868480725	57	127
102.57337868480725	102.85201814058956	62	127
102.86362811791383	103.1887074829932	53	127
103.1887074829932	103.47895691609978	57	127
103.47895691609978	104.04784580498867	50	127
103.47895691609978	104.04784580498867	50	127
103.47895691609978	103.75759637188209	55	127
103.75759637188209	104.04784580498867	53	127
104.04784580498867	104.37292517006803	50	127
104.04784580498867	104.69800453514739	55	127
104.04784580498867	104.38453514739228	67	127
104.04784580498867	104.69800453514739	55	127
104.04784580498867	104.37292517006803	47	127
104.22199546485261	104.69800453514739	62	127
104.22199546485261	104.69800453514739	67	127
104.38453514739228	104.84893424036281	62	127
104.84893424036281	105.17401360544218	59	127
105.17401360544218	105.4526530612245	62	127
105.47587301587302	105.74290249433106	55	127
105.74290249433106	106.09120181405896	57	127
106.09120181405896	106.3930612244898	55	127
106.09120181405896	106.84585034013605	47	127
106.09120181405896	106.84585034013605	55	127
106.3930612244898	106.84585034013605	53	127
106.86907029478458	107.28702947845805	60	127
106.86907029478458	107.41473922902495	52	127
106.86907029478458	107.28702947845805	48	127
106.86907029478458	107.13609977324263	36	127
106.86907029478458	107.14770975056689	67	127
106.86907029478458	107.13609977324263	52	127
107.03160997732427	107.28702947845805	52	127
107.03160997732427	107.28702947845805	67	127
107.14770975056689	107.4263492063492	64	127
107.4263492063492	107.89074829931972	60	127
107.89074829931972	108.22743764172336	64	127
108.22743764172336	108.48285714285714	55	127
108.48285714285714	108.77310657596372	58	127
108.77310657596372	109.3419954648526	60	127
108.77310657596372	109.06335600907029	57	127
108.77310657596372	109.3419954648526	60	127
108.77310657596372	109.3419954648526	48	127
109.06335600907029	109.3419954648526	55	127
109.3768253968254	109.64385487528345	72	127
109.3768253968254	109.7831746031746	65	127
109.3768253968254	109.63224489795918	57	127
109.3768253968254	109.92249433106576	65	127
109.3768253968254	109.63224489795918	57	127
109.3768253968254	109.63224489795918	41	127
109.3768253968254	109.63224489795918	48	127
109.50453514739229	109.7831746031746	57	127
109.50453514739229	109.92249433106576	72	127
109.50453514739229	109.7831746031746	72	127
109.50453514739229	109.7831746031746	53	127
109.64385487528345	109.93410430839002	69	127
109.93410430839002	110.28240362811792	65	127
110.28240362811792	110.56104308390023	69	127
110.56104308390023	110.92095238095239	60	127
110.92095238095239	111.24603174603175	64	127
111.24603174603175	111.80331065759637	58	127
111.24603174603175	111.51306122448979	62	127
111.24603174603175	111.50145124716553	43	127
111.24603174603175	111.64077097505668	52	127
111.24603174603175	111.80331065759637	64	127
111.3853514739229	111.64077097505668	58	127
111.51306122448979	111.80331065759637	60	127
111.81492063492064	112.44185941043084	53	127
111.81492063492064	112.16321995464853	57	127
111.81492063492064	112.16321995464853	45	127
111.81492063492064	112.1748299319728	60	127
111.81492063492064	112.1748299319728	69	127
111.81492063492064	112.44185941043084	65	127
111.81492063492064	112.1748299319728	77	127
112.01229024943311	112.44185941043084	72	127
112.01229024943311	112.44185941043084	57	127
112.1748299319728	112.61600907029478	72	127
112.61600907029478	112.87142857142857	69	127
112.61600907029478	113.12684807256235	65	127
112.87142857142857	113.12684807256235	72	127
113.12684807256235	113.50997732426303	67	127
113.12684807256235	113.50997732426303	62	127
113.12684807256235	113.50997732426303	70	127
113.12684807256235	113.63768707482993	70	127
113.12684807256235	113.63768707482993	55	127
113.12684807256235	113.49836734693878	62	127
113.12684807256235	113.49836734693878	46	127
113.33582766439909	113.63768707482993	62	127
113.33582766439909	113.50997732426303	79	127
113.33582766439909	113.63768707482993	79	127
113.50997732426303	113.84666666666666	70	127
113.50997732426303	113.84666666666666	74	127
113.84666666666666	114.12530612244898	70	127
113.84666666666666	114.12530612244898	69	127
114.12530612244898	114.3691156462585	74	127
114.12530612244898	114.3691156462585	67	127
114.38072562358276	114.86834467120181	52	127
114.38072562358276	114.72902494331066	57	127
114.38072562358276	114.72902494331066	61	127
114.38072562358276	114.72902494331066	45	127
114.38072562358276	114.74063492063492	64	127
114.38072562358276	114.74063492063492	73	127
114.38072562358276	114.74063492063492	81	127
114.38072562358276	114.86834467120181	64	127
114.38072562358276	114.86834467120181	69	127
114.57809523809524	114.86834467120181	73	127
114.57809523809524	114.86834467120181	76	127
114.57809523809524	114.86834467120181	61	127
114.74063492063492	115.01927437641723	76	127
115.01927437641723	115.30952380952381	73	127
115.01927437641723	115.30952380952381	69	127
115.30952380952381	115.59977324263039	76	127
115.30952380952381	115.59977324263039	64	127
115.59977324263039	115.8784126984127	57	127
115.59977324263039	115.8784126984127	61	127
115.59977324263039	116.16866213151927	69	127
115.8784126984127	116.18027210884354	52	127
115.8784126984127	116.16866213151927	64	127
116.18027210884354	116.5053514739229	45	127
116.18027210884354	116.5053514739229	49	127
116.18027210884354	116.83043083900226	57	127
116.5053514739229	116.83043083900226	40	127
116.5053514739229	116.83043083900226	52	127
116.8536507936508	117.17873015873016	50	127
116.8536507936508	117.19034013605442	45	127
116.8536507936508	117.3877097505669	45	127
116.8536507936508	117.3877097505669	57	127
116.8536507936508	117.19034013605442	38	127
116.8536507936508	117.17873015873016	38	127
117.00458049886622	117.3877097505669	53	127
117.00458049886622	117.19034013605442	53	127
117.00458049886622	117.19034013605442	62	127
117.00458049886622	117.3877097505669	62	127
117.19034013605442	117.58507936507937	57	127
117.58507936507937	117.91015873015873	53	127
117.91015873015873	118.24684807256236	57	127
118.25845804988663	118.51387755102041	50	127
118.51387755102041	118.78090702947846	53	127
118.78090702947846	119.33818594104308	45	127
118.78090702947846	119.33818594104308	57	127
118.78090702947846	119.05954648526077	52	127
119.05954648526077	119.33818594104308	50	127
119.34979591836735	119.79097505668935	64	127
119.34979591836735	119.9302947845805	45	127
119.34979591836735	119.79097505668935	37	127
119.34979591836735	119.9302947845805	57	127
119.34979591836735	119.79097505668935	49	127
119.61682539682539	119.9302947845805	64	127
119.61682539682539	119.9302947845805	52	127
119.79097505668935	120.12766439909296	61	127
120.12766439909296	120.42952380952381	57	127
120.42952380952381	120.73138321995465	61	127
120.7429931972789	121.02163265306122	52	127
121.02163265306122	121.28866213151927	55	127
121.28866213151927	121.90399092970522	45	127
121.28866213151927	121.90399092970522	57	127
121.28866213151927	121.6253514739229	53	127
121.6253514739229	121.90399092970522	52	127
121.91560090702947	122.41482993197279	50	127
121.91560090702947	122.55414965986395	45	127
121.91560090702947	122.55414965986395	57	127
121.91560090702947	122.42643990929706	65	127
121.91560090702947	122.41482993197279	38	127
122.20585034013605	122.55414965986395	53	127
122.20585034013605	122.55414965986395	65	127
122.42643990929706	122.68185941043085	62	127
122.68185941043085	122.94888888888889	57	127
122.94888888888889	123.18108843537415	62	127
123.19269841269842	123.48294784580499	53	127
123.48294784580499	123.77319727891157	57	127
123.77319727891157	124.01700680272108	55	127
123.77319727891157	124.33047619047619	50	127
123.77319727891157	124.33047619047619	50	127
124.01700680272108	124.33047619047619	53	127
124.34208616780046	124.79487528344671	55	127
124.34208616780046	124.65555555555555	50	127
124.34208616780046	124.65555555555555	47	127
124.34208616780046	124.66716553287982	67	127
124.34208616780046	124.79487528344671	55	127
124.52784580498866	124.79487528344671	67	127
124.52784580498866	124.79487528344671	62	127
124.66716553287982	125.07351473922903	62	127
125.07351473922903	125.38698412698413	59	127
125.38698412698413	125.64240362811792	62	127
125.65401360544217	125.92104308390023	55	127
125.92104308390023	126.22290249433107	57	127
126.22290249433107	126.60603174603175	55	127
126.22290249433107	126.93111111111111	47	127
126.22290249433107	126.93111111111111	55	127
126.60603174603175	126.93111111111111	53	127
126.94272108843538	127.4071201814059	48	127
126.94272108843538	127.54643990929705	52	127
126.94272108843538	127.26780045351474	36	127
126.94272108843538	127.27941043083901	67	127
126.94272108843538	127.4071201814059	60	127
126.94272108843538	127.26780045351474	52	127
127.15170068027211	127.4071201814059	52	127
127.15170068027211	127.4071201814059	67	127
127.27941043083901	127.55804988662132	64	127
127.55804988662132	127.89473922902495	60	127
127.89473922902495	128.24301587301588	64	127
128.24301587301588	128.52167800453515	55	127
128.52167800453515	128.84675736961452	58	127
128.84675736961452	129.48530612244897	60	127
128.84675736961452	129.48530612244897	48	127
128.84675736961452	129.48530612244897	60	127
128.84675736961452	129.18344671201814	57	127
129.18344671201814	129.48530612244897	55	127
129.49691609977324	129.90326530612245	65	127
129.49691609977324	130.05419501133787	65	127
129.49691609977324	129.7871655328798	72	127
129.49691609977324	129.7755328798186	57	127
129.49691609977324	129.7755328798186	57	127
129.49691609977324	129.7755328798186	41	127
129.49691609977324	129.7755328798186	48	127
129.64784580498866	129.90326530612245	72	127
129.64784580498866	129.90326530612245	53	127
129.64784580498866	129.90326530612245	57	127
129.64784580498866	130.05419501133787	72	127
129.7871655328798	130.06580498866214	69	127
130.06580498866214	130.39086167800454	65	127
130.39086167800454	130.68113378684808	69	127
130.68113378684808	131.02943310657596	60	127
131.02943310657596	131.3312925170068	64	127
131.3312925170068	131.59832199546486	43	127
131.3312925170068	131.60993197278913	62	127
131.3312925170068	131.737641723356	52	127
131.3312925170068	131.8653514739229	64	127
131.3312925170068	131.8653514739229	58	127
131.48222222222222	131.737641723356	58	127
131.60993197278913	131.8653514739229	60	127
131.8769387755102	132.132358276644	57	127
131.8769387755102	132.132358276644	45	127
131.8769387755102	132.1439909297052	60	127
131.8769387755102	132.1439909297052	69	127
131.8769387755102	132.1439909297052	77	127
131.8769387755102	132.27170068027212	65	127
131.8769387755102	132.27170068027212	53	127
132.01628117913833	132.27170068027212	57	127
132.01628117913833	132.27170068027212	72	127
132.1439909297052	132.43421768707483	72	127
132.43421768707483	132.77092970521542	69	127
132.43421768707483	133.061179138322	65	127
132.77092970521542	133.061179138322	72	127
133.07278911564626	133.42108843537414	46	127
133.07278911564626	133.43269841269841	67	127
133.07278911564626	133.54879818594105	70	127
133.07278911564626	133.43269841269841	62	127
133.07278911564626	133.43269841269841	70	127
133.07278911564626	133.54879818594105	55	127
133.07278911564626	133.42108843537414	62	127
133.29337868480727	133.43269841269841	79	127
133.29337868480727	133.54879818594105	79	127
133.29337868480727	133.54879818594105	62	127
133.43269841269841	133.71131519274377	70	127
133.43269841269841	133.71131519274377	74	127
133.71131519274377	133.98997732426304	69	127
133.71131519274377	133.98997732426304	70	127
133.98997732426304	134.24539682539682	74	127
133.98997732426304	134.24539682539682	67	127
134.2570068027211	134.54725623582766	57	127
134.2570068027211	134.54725623582766	61	127
134.2570068027211	134.54725623582766	45	127
134.2570068027211	134.55886621315193	64	127
134.2570068027211	134.55886621315193	73	127
134.2570068027211	134.55886621315193	81	127
134.2570068027211	134.69818594104308	64	127
134.2570068027211	134.69818594104308	69	127
134.2570068027211	134.69818594104308	52	127
134.4079365079365	134.69818594104308	61	127
134.4079365079365	134.69818594104308	73	127
134.4079365079365	134.69818594104308	76	127
134.55886621315193	134.8491156462585	76	127
134.8491156462585	135.12775510204082	73	127
134.8491156462585	135.12775510204082	69	127
135.12775510204082	135.40639455782312	76	127
135.12775510204082	135.40639455782312	64	127
135.40639455782312	135.98689342403628	69	127
135.40639455782312	135.69664399092972	57	127
135.40639455782312	135.69664399092972	61	127
135.69664399092972	135.99850340136055	52	127
135.69664399092972	135.98689342403628	64	127
135.99850340136055	136.34680272108844	45	127
135.99850340136055	136.6718820861678	57	127
135.99850340136055	136.34680272108844	49	127
136.34680272108844	136.6718820861678	52	127
136.34680272108844	136.6718820861678	40	127
136.68349206349205	136.99696145124716	38	127
136.68349206349205	137.00857142857143	38	127
136.68349206349205	137.00857142857143	45	127
136.68349206349205	137.12467120181407	45	127
136.68349206349205	137.27560090702949	50	127
136.857641723356	137.12467120181407	53	127
136.857641723356	137.00857142857143	53	127
136.857641723356	137.00857142857143	57	127
137.00857142857143	137.298820861678	53	127
137.298820861678	137.87931972789116	57	127
137.298820861678	137.87931972789116	57	127
137.298820861678	137.6122902494331	45	127
137.6122902494331	137.87931972789116	53	127
137.89092970521543	138.19278911564626	57	127
137.89092970521543	138.181179138322	62	127
137.89092970521543	138.19278911564626	69	127
137.89092970521543	138.3321088435374	65	127
138.06507936507936	138.3321088435374	69	127
138.19278911564626	138.51784580498867	65	127
138.19278911564626	138.51784580498867	55	127
138.51784580498867	139.063537414966	77	127
138.51784580498867	139.063537414966	38	127
138.51784580498867	138.79650793650794	57	127
138.51784580498867	139.063537414966	65	127
138.51784580498867	138.79650793650794	62	127
138.79650793650794	139.063537414966	59	127
138.79650793650794	139.0867573696145	65	127
139.0867573696145	139.76013605442176	64	127
139.0867573696145	139.35378684807256	55	127
139.0867573696145	139.35378684807256	36	127
139.0867573696145	139.35378684807256	43	127
139.0867573696145	139.36539682539683	84	127
139.0867573696145	139.48149659863947	64	127
139.0867573696145	139.76013605442176	60	127
139.22607709750568	139.48149659863947	52	127
139.22607709750568	139.48149659863947	60	127
139.22607709750568	139.48149659863947	72	127
139.36539682539683	139.77174603174603	79	127
139.77174603174603	140.07360544217687	76	127
139.77174603174603	140.07360544217687	72	127
140.07360544217687	140.34063492063493	67	127
140.07360544217687	140.34063492063493	79	127
140.34063492063493	140.64249433106576	60	127
140.34063492063493	140.64249433106576	64	127
140.34063492063493	140.88630385487528	72	127
140.64249433106576	140.89791383219955	55	127
140.64249433106576	140.89791383219955	67	127
140.89791383219955	141.1649433106576	52	127
140.89791383219955	141.45519274376417	48	127
140.89791383219955	141.45519274376417	48	127
140.89791383219955	141.1649433106576	48	127
140.89791383219955	141.45519274376417	60	127
141.1649433106576	141.45519274376417	43	127
141.1649433106576	141.46680272108844	55	127
141.46680272108844	141.76866213151928	48	127
141.46680272108844	141.76866213151928	52	127
141.46680272108844	142.08213151927438	48	127
141.46680272108844	142.08213151927438	52	127
141.46680272108844	142.08213151927438	60	127
141.46680272108844	142.08213151927438	46	127
141.61773242630386	141.76866213151928	60	127
141.76866213151928	142.09374149659865	55	127
142.09374149659865	142.3956009070295	52	127
142.09374149659865	142.69746031746033	60	127
142.09374149659865	142.69746031746033	60	127
142.3956009070295	142.69746031746033	55	127
142.70904761904762	143.18507936507936	64	127
142.70904761904762	143.01092970521543	55	127
142.70904761904762	143.03414965986394	72	127
142.70904761904762	143.03414965986394	60	127
142.8948299319728	143.18507936507936	72	127
143.03414965986394	143.34761904761905	67	127
143.03414965986394	143.34761904761905	59	127
143.34761904761905	143.9397052154195	46	127
143.34761904761905	143.67269841269842	64	127
143.34761904761905	143.67269841269842	60	127
143.34761904761905	143.9397052154195	79	127
143.34761904761905	143.9397052154195	67	127
143.67269841269842	143.9397052154195	62	127
143.67269841269842	143.95133786848072	67	127
143.95133786848072	144.5898866213152	69	127
143.95133786848072	144.22997732426305	61	127
143.95133786848072	144.22997732426305	45	127
143.95133786848072	144.24156462585034	88	127
143.95133786848072	144.35768707482993	69	127
143.95133786848072	144.35768707482993	52	127
143.95133786848072	144.5898866213152	64	127
144.10226757369614	144.35768707482993	61	127
144.10226757369614	144.35768707482993	76	127
144.24156462585034	144.6014739229025	85	127
144.6014739229025	144.8685260770975	81	127
144.6014739229025	144.8685260770975	76	127
144.8685260770975	145.13555555555556	73	127
144.8685260770975	145.13555555555556	85	127
145.13555555555556	145.4025850340136	64	127
145.13555555555556	145.4025850340136	69	127
145.13555555555556	145.6580045351474	76	127
145.4025850340136	145.66961451247167	61	127
145.4025850340136	145.66961451247167	73	127
145.66961451247167	145.9714739229025	52	127
145.66961451247167	146.26172335600907	57	127
145.66961451247167	145.9714739229025	57	127
145.66961451247167	146.26172335600907	64	127
145.66961451247167	146.26172335600907	57	127
145.9714739229025	146.26172335600907	61	127
145.9714739229025	146.26172335600907	45	127
146.27333333333334	146.57519274376418	50	127
146.27333333333334	146.57519274376418	38	127
146.27333333333334	146.58680272108845	50	127
146.27333333333334	146.58680272108845	57	127
146.27333333333334	146.71451247165533	57	127
146.27333333333334	146.71451247165533	60	127
146.27333333333334	146.71451247165533	45	127
146.45909297052154	146.71451247165533	66	127
146.45909297052154	146.71451247165533	62	127
146.45909297052154	146.58680272108845	66	127
146.45909297052154	146.71451247165533	50	127
146.58680272108845	146.86544217687074	60	127
146.86544217687074	147.49238095238096	66	127
146.86544217687074	147.17891156462585	57	127
146.86544217687074	147.49238095238096	62	127
147.17891156462585	147.49238095238096	60	127
147.52721088435374	148.08448979591836	52	127
147.52721088435374	147.81746031746033	80	127
147.52721088435374	147.81746031746033	59	127
147.52721088435374	148.08448979591836	71	127
147.52721088435374	148.08448979591836	74	127
147.52721088435374	148.08448979591836	62	127
147.52721088435374	148.08448979591836	68	127
147.52721088435374	148.08448979591836	40	127
147.81746031746033	148.09609977324263	74	127
147.81746031746033	148.09609977324263	62	127
148.09609977324263	148.6998185941043	52	127
148.09609977324263	148.40956916099773	71	127
148.09609977324263	148.40956916099773	60	127
148.09609977324263	148.6998185941043	68	127
148.09609977324263	148.6998185941043	62	127
148.40956916099773	148.6998185941043	74	127
148.40956916099773	148.6998185941043	59	127
148.71142857142857	149.31514739229024	42	127
148.71142857142857	149.04809523809524	54	127
148.71142857142857	149.04809523809524	57	127
148.71142857142857	149.05972789115646	72	127
148.71142857142857	149.05972789115646	69	127
148.71142857142857	149.31514739229024	72	127
148.71142857142857	149.31514739229024	54	127
148.71142857142857	149.31514739229024	69	127
148.88557823129253	149.18743764172336	62	127
148.88557823129253	149.18743764172336	69	127
149.05972789115646	149.3267573696145	76	127
149.05972789115646	149.3267573696145	66	127
149.3267573696145	149.965306122449	69	127
149.3267573696145	149.6518367346939	74	127
149.3267573696145	149.6518367346939	62	127
149.3267573696145	149.965306122449	62	127
149.6518367346939	149.965306122449	66	127
149.6518367346939	149.965306122449	72	127
150.00013605442177	150.32519274376418	83	127
150.00013605442177	150.32519274376418	62	127
150.00013605442177	150.58061224489796	74	127
150.00013605442177	150.58061224489796	77	127
150.00013605442177	150.58061224489796	65	127
150.00013605442177	150.58061224489796	71	127
150.00013605442177	150.58061224489796	56	127
150.00013605442177	150.58061224489796	44	127
150.32519274376418	150.59224489795918	77	127
150.32519274376418	150.59224489795918	65	127
150.59224489795918	150.89410430839	64	127
150.59224489795918	151.1843537414966	71	127
150.59224489795918	150.89410430839	74	127
150.59224489795918	151.1843537414966	56	127
150.59224489795918	151.1843537414966	65	127
150.89410430839	151.1843537414966	77	127
150.89410430839	151.1843537414966	62	127
151.20757369614512	151.6255328798186	53	127
151.20757369614512	151.48621315192744	62	127
151.20757369614512	151.48621315192744	57	127
151.20757369614512	151.48621315192744	45	127
151.20757369614512	151.4978231292517	86	127
151.20757369614512	151.4978231292517	62	127
151.20757369614512	151.6255328798186	69	127
151.20757369614512	151.6255328798186	65	127
151.3701133786848	151.6255328798186	74	127
151.3701133786848	151.6255328798186	62	127
151.3701133786848	151.6255328798186	77	127
151.4978231292517	151.78807256235828	81	127
151.4978231292517	151.78807256235828	65	127
151.78807256235828	152.07832199546485	77	127
151.78807256235828	152.07832199546485	64	127
152.07832199546485	152.33374149659863	81	127
152.07832199546485	152.33374149659863	62	127
152.3453514739229	152.61238095238096	61	127
152.3453514739229	152.61238095238096	64	127
152.3453514739229	152.76331065759638	64	127
152.3453514739229	152.61238095238096	57	127
152.3453514739229	152.61238095238096	45	127
152.3453514739229	152.62399092970523	81	127
152.3453514739229	152.62399092970523	61	127
152.3453514739229	152.76331065759638	52	127
152.47303854875284	152.76331065759638	69	127
152.47303854875284	152.76331065759638	76	127
152.47303854875284	152.76331065759638	69	127
152.47303854875284	152.76331065759638	61	127
152.62399092970523	152.92585034013607	76	127
152.62399092970523	152.92585034013607	64	127
152.92585034013607	153.21609977324263	73	127
152.92585034013607	153.21609977324263	57	127
153.21609977324263	153.47151927437642	61	127
153.21609977324263	153.47151927437642	76	127
153.4831292517007	153.78498866213152	74	127
153.4831292517007	153.93591836734694	69	127
153.4831292517007	154.14489795918368	62	127
153.4831292517007	153.93591836734694	57	127
153.4831292517007	154.14489795918368	53	127
153.4831292517007	153.77337868480726	62	127
153.4831292517007	153.77337868480726	50	127
153.4831292517007	153.77337868480726	38	127
153.4831292517007	153.77337868480726	45	127
153.6340589569161	153.93591836734694	62	127
153.6340589569161	153.93591836734694	74	127
153.6340589569161	153.93591836734694	53	127
153.6340589569161	153.93591836734694	62	127
153.78498866213152	154.15650793650795	69	127
154.15650793650795	154.4583673469388	65	127
154.15650793650795	154.4583673469388	74	127
154.4583673469388	154.76022675736962	69	127
154.76022675736962	155.03886621315192	65	127
154.76022675736962	155.0272335600907	62	127
154.76022675736962	155.32911564625851	62	127
155.03886621315192	155.32911564625851	57	127
155.03886621315192	155.34072562358276	69	127
155.34072562358276	155.68902494331067	50	127
155.34072562358276	155.6774149659864	53	127
155.34072562358276	155.6774149659864	50	127
155.34072562358276	155.97927437641724	62	127
155.68902494331067	155.97927437641724	45	127
155.68902494331067	155.97927437641724	57	127
155.9908843537415	156.28113378684807	38	127
155.9908843537415	156.2695238095238	38	127
155.9908843537415	156.28113378684807	45	127
155.9908843537415	156.4320634920635	45	127
155.9908843537415	156.57138321995464	50	127
156.13020408163266	156.28113378684807	53	127
156.13020408163266	156.28113378684807	57	127
156.13020408163266	156.4320634920635	53	127
156.28113378684807	156.60621315192745	53	127
156.60621315192745	157.14027210884353	57	127
156.60621315192745	156.88485260770975	45	127
156.60621315192745	157.14027210884353	57	127
156.88485260770975	157.14027210884353	53	127
157.1518820861678	157.45374149659864	69	127
157.1518820861678	157.44213151927437	62	127
157.1518820861678	157.45374149659864	57	127
157.1518820861678	157.60467120181406	65	127
157.27956916099774	157.60467120181406	69	127
157.45374149659864	157.76721088435374	65	127
157.45374149659864	157.76721088435374	55	127
157.76721088435374	158.3477097505669	38	127
157.76721088435374	158.09229024943312	62	127
157.76721088435374	158.3477097505669	65	127
157.76721088435374	158.09229024943312	57	127
157.76721088435374	158.3477097505669	77	127
158.09229024943312	158.37092970521542	65	127
158.09229024943312	158.3477097505669	59	127
158.37092970521542	158.63795918367347	55	127
158.37092970521542	158.63795918367347	36	127
158.37092970521542	158.63795918367347	43	127
158.37092970521542	158.64956916099774	84	127
158.37092970521542	158.76566893424035	64	127
158.37092970521542	158.95142857142858	64	127
158.37092970521542	158.95142857142858	60	127
158.51024943310657	158.76566893424035	60	127
158.51024943310657	158.76566893424035	72	127
158.51024943310657	158.76566893424035	52	127
158.64956916099774	158.96303854875285	79	127
158.96303854875285	159.26489795918368	76	127
158.96303854875285	159.26489795918368	72	127
159.26489795918368	159.46226757369615	79	127
159.26489795918368	159.46226757369615	67	127
159.46226757369615	159.7292970521542	64	127
159.46226757369615	159.7292970521542	60	127
159.46226757369615	159.96149659863946	72	127
159.7292970521542	159.97310657596373	55	127
159.7292970521542	159.97310657596373	67	127
159.97310657596373	160.25174603174602	48	127
159.97310657596373	160.25174603174602	52	127
159.97310657596373	160.53038548752835	60	127
159.97310657596373	160.53038548752835	48	127
159.97310657596373	160.53038548752835	48	127
160.25174603174602	160.53038548752835	43	127
160.25174603174602	160.54199546485262	55	127
160.54199546485262	160.87868480725623	52	127
160.54199546485262	161.1689342403628	48	127
160.54199546485262	160.87868480725623	48	127
160.54199546485262	161.1689342403628	60	127
160.54199546485262	161.1689342403628	46	127
160.54199546485262	161.1689342403628	52	127
160.70451247165533	160.87868480725623	60	127
160.87868480725623	161.18054421768707	55	127
161.18054421768707	161.51723356009072	52	127
161.18054421768707	161.83068027210885	60	127
161.18054421768707	161.83068027210885	60	127
161.51723356009072	161.83068027210885	55	127
161.84231292517006	162.09773242630385	55	127
161.84231292517006	162.1209523809524	72	127
161.84231292517006	162.1209523809524	60	127
161.84231292517006	162.24866213151927	64	127
161.97002267573697	162.24866213151927	72	127
162.1209523809524	162.41120181405896	67	127
162.1209523809524	162.41120181405896	59	127
162.41120181405896	162.98009070294785	79	127
162.41120181405896	162.70142857142858	64	127
162.41120181405896	162.70142857142858	60	127
162.41120181405896	162.98009070294785	67	127
162.41120181405896	162.98009070294785	46	127
162.70142857142858	162.98009070294785	62	127
162.70142857142858	162.99170068027212	67	127
162.99170068027212	163.28195011337868	45	127
162.99170068027212	163.29356009070295	88	127
162.99170068027212	163.42126984126983	69	127
162.99170068027212	163.42126984126983	52	127
162.99170068027212	163.58380952380952	64	127
162.99170068027212	163.28195011337868	61	127
162.99170068027212	163.58380952380952	69	127
163.1542403628118	163.42126984126983	76	127
163.1542403628118	163.42126984126983	61	127
163.29356009070295	163.5954195011338	85	127
163.5954195011338	163.86244897959185	81	127
163.5954195011338	163.86244897959185	76	127
163.86244897959185	164.12945578231293	85	127
163.86244897959185	164.12945578231293	73	127
164.12945578231293	164.43133786848074	69	127
164.12945578231293	164.43133786848074	64	127
164.12945578231293	164.7215873015873	76	127
164.43133786848074	164.73319727891158	73	127
164.43133786848074	164.73319727891158	61	127
164.73319727891158	165.01183673469387	52	127
164.73319727891158	165.01183673469387	57	127
164.73319727891158	165.27886621315193	64	127
164.73319727891158	165.27886621315193	57	127
164.73319727891158	165.27886621315193	57	127
165.01183673469387	165.27886621315193	61	127
165.01183673469387	165.27886621315193	45	127
165.2904761904762	165.75487528344672	45	127
165.2904761904762	165.61555555555555	38	127
165.2904761904762	165.75487528344672	60	127
165.2904761904762	165.62716553287981	57	127
165.2904761904762	165.61555555555555	50	127
165.2904761904762	165.75487528344672	57	127
165.2904761904762	165.62716553287981	50	127
165.46462585034013	165.75487528344672	62	127
165.46462585034013	165.62716553287981	66	127
165.46462585034013	165.75487528344672	66	127
165.46462585034013	165.75487528344672	50	127
165.62716553287981	165.96385487528346	60	127
165.96385487528346	166.25410430839003	57	127
165.96385487528346	166.55596371882086	62	127
165.96385487528346	166.55596371882086	66	127
166.25410430839003	166.55596371882086	60	127
166.56757369614513	167.18290249433107	74	127
166.56757369614513	166.93907029478459	80	127
166.56757369614513	166.93907029478459	59	127
166.56757369614513	167.18290249433107	71	127
166.56757369614513	167.18290249433107	62	127
166.56757369614513	167.18290249433107	68	127
166.56757369614513	167.18290249433107	52	127
166.56757369614513	167.18290249433107	40	127
166.93907029478459	167.19448979591837	74	127
166.93907029478459	167.19448979591837	62	127
167.19448979591837	167.82145124716553	68	127
167.19448979591837	167.82145124716553	52	127
167.19448979591837	167.82145124716553	62	127
167.19448979591837	167.4847619047619	60	127
167.19448979591837	167.4847619047619	71	127
167.4847619047619	167.82145124716553	59	127
167.4847619047619	167.82145124716553	74	127
167.84467120181407	168.11170068027212	54	127
167.84467120181407	168.11170068027212	57	127
167.84467120181407	168.12331065759636	72	127
167.84467120181407	168.12331065759636	69	127
167.84467120181407	168.41356009070296	54	127
167.84467120181407	168.41356009070296	42	127
167.84467120181407	168.41356009070296	72	127
167.84467120181407	168.41356009070296	69	127
167.99560090702948	168.26263038548754	69	127
167.99560090702948	168.26263038548754	62	127
168.12331065759636	168.42514739229026	66	127
168.12331065759636	168.42514739229026	76	127
168.42514739229026	169.06371882086168	69	127
168.42514739229026	168.78507936507935	74	127
168.42514739229026	168.78507936507935	62	127
168.42514739229026	169.06371882086168	62	127
168.78507936507935	169.06371882086168	66	127
168.78507936507935	169.06371882086168	72	127
169.07532879818595	169.3771882086168	62	127
169.07532879818595	169.3771882086168	83	127
169.07532879818595	169.6906575963719	74	127
169.07532879818595	169.6906575963719	77	127
169.07532879818595	169.6906575963719	65	127
169.07532879818595	169.6906575963719	71	127
169.07532879818595	169.6906575963719	56	127
169.07532879818595	169.6906575963719	44	127
169.3771882086168	169.7022448979592	77	127
169.3771882086168	169.7022448979592	65	127
169.7022448979592	170.2827664399093	56	127
169.7022448979592	169.9692970521542	74	127
169.7022448979592	169.9692970521542	64	127
169.7022448979592	170.2827664399093	65	127
169.7022448979592	170.2827664399093	71	127
169.9692970521542	170.2827664399093	77	127
169.9692970521542	170.2827664399093	62	127
170.29437641723356	170.72392290249434	53	127
170.29437641723356	170.58462585034013	57	127
170.29437641723356	170.58462585034013	45	127
170.29437641723356	170.5962358276644	62	127
170.29437641723356	170.72392290249434	69	127
170.29437641723356	170.72392290249434	65	127
170.29437641723356	170.5962358276644	86	127
170.29437641723356	170.58462585034013	62	127
170.44530612244898	170.72392290249434	77	127
170.44530612244898	170.72392290249434	74	127
170.44530612244898	170.72392290249434	62	127
170.5962358276644	170.87485260770976	81	127
170.5962358276644	170.87485260770976	65	127
170.87485260770976	171.14190476190475	77	127
170.87485260770976	171.14190476190475	64	127
171.14190476190475	171.43215419501135	62	127
171.14190476190475	171.43215419501135	81	127
171.4437641723356	171.7340136054422	64	127
171.4437641723356	171.7340136054422	45	127
171.4437641723356	171.8849433106576	52	127
171.4437641723356	171.74560090702948	81	127
171.4437641723356	171.7340136054422	61	127
171.4437641723356	171.74560090702948	61	127
171.4437641723356	171.7340136054422	57	127
171.4437641723356	171.8849433106576	64	127
171.59467120181407	171.8849433106576	69	127
171.59467120181407	171.8849433106576	69	127
171.59467120181407	171.8849433106576	76	127
171.59467120181407	171.8849433106576	61	127
171.74560090702948	172.0474829931973	76	127
171.74560090702948	172.0474829931973	64	127
172.0474829931973	172.33773242630386	73	127
172.0474829931973	172.33773242630386	57	127
172.33773242630386	172.58154195011338	76	127
172.33773242630386	172.58154195011338	61	127
172.59315192743765	172.96467120181407	62	127
172.59315192743765	172.96467120181407	50	127
172.59315192743765	172.96467120181407	38	127
172.59315192743765	172.96467120181407	45	127
172.59315192743765	172.9762811791383	74	127
172.59315192743765	173.15043083900227	69	127
172.59315192743765	173.15043083900227	57	127
172.59315192743765	173.3013605442177	53	127
172.59315192743765	173.3013605442177	62	127
172.80213151927438	173.15043083900227	53	127
172.80213151927438	173.15043083900227	62	127
172.80213151927438	173.15043083900227	74	127
172.80213151927438	173.15043083900227	62	127
172.9762811791383	173.31297052154196	69	127
173.31297052154196	173.59160997732425	74	127
173.31297052154196	173.59160997732425	65	127
173.59160997732425	173.89344671201815	69	127
173.89344671201815	174.2069387755102	65	127
173.89344671201815	174.2069387755102	62	127
173.89344671201815	174.46235827664398	62	127
174.2069387755102	174.47396825396825	69	127
174.2069387755102	174.47396825396825	57	127
174.47396825396825	174.76419501133788	53	127
174.47396825396825	174.76419501133788	50	127
174.47396825396825	174.75260770975058	50	127
174.47396825396825	174.76419501133788	62	127
174.76419501133788	175.07768707482992	69	127
174.76419501133788	175.07768707482992	57	127
174.76419501133788	175.07768707482992	45	127
175.10090702947846	175.64657596371882	57	127
175.10090702947846	175.2402267573696	74	127
175.10090702947846	175.2402267573696	65	127
175.10090702947846	175.34471655328798	38	127
175.10090702947846	175.64657596371882	50	127
175.10090702947846	175.64657596371882	45	127
175.10090702947846	175.64657596371882	50	127
175.2170068027211	175.64657596371882	53	127
175.25183673469388	175.44920634920635	74	127
175.25183673469388	175.44920634920635	65	127
175.46081632653062	175.64657596371882	65	127
175.46081632653062	175.64657596371882	74	127
175.6581859410431	175.94843537414965	65	127
175.6581859410431	175.94843537414965	74	127
175.96004535147392	176.2154648526077	69	127
175.96004535147392	176.2154648526077	76	127
176.22707482993198	176.41283446712018	77	127
176.22707482993198	176.41283446712018	74	127
176.22707482993198	176.41283446712018	57	127
176.42444444444445	177.10943310657598	74	127
176.42444444444445	176.5985941043084	50	127
176.42444444444445	176.5985941043084	57	127
176.42444444444445	176.5985941043084	62	127
176.42444444444445	176.5985941043084	53	127
176.42444444444445	177.10943310657598	77	127
176.5985941043084	176.76113378684806	62	127
176.5985941043084	176.76113378684806	53	127
176.77274376417233	176.93528344671202	62	127
176.77274376417233	176.93528344671202	53	127
176.9468934240363	177.10943310657598	53	127
176.9468934240363	177.10943310657598	62	127
177.12104308390022	177.29519274376418	76	127
177.12104308390022	177.29519274376418	64	127
177.12104308390022	177.29519274376418	57	127
177.12104308390022	177.29519274376418	69	127
177.30680272108845	177.48095238095237	74	127
177.30680272108845	177.48095238095237	65	127
177.30680272108845	177.48095238095237	65	127
177.30680272108845	177.48095238095237	62	127
177.49256235827664	177.81764172335602	37	127
177.49256235827664	177.6899319727891	76	127
177.49256235827664	177.6899319727891	69	127
177.49256235827664	177.81764172335602	45	127
177.49256235827664	178.14272108843537	64	127
177.49256235827664	178.14272108843537	57	127
177.49256235827664	178.14272108843537	52	127
177.49256235827664	178.14272108843537	45	127
177.65510204081633	178.14272108843537	52	127
177.65510204081633	178.14272108843537	57	127
177.71315192743765	177.9221315192744	76	127
177.71315192743765	177.9221315192744	69	127
177.93371882086169	178.14272108843537	76	127
177.93371882086169	178.14272108843537	69	127
178.15433106575964	178.3517006802721	69	127
178.15433106575964	178.3517006802721	76	127
178.36331065759637	178.52585034013606	74	127
178.36331065759637	178.52585034013606	77	127
178.53746031746033	178.71160997732426	79	127
178.53746031746033	178.71160997732426	76	127
178.53746031746033	178.71160997732426	57	127
178.7348299319728	178.89736961451248	49	127
178.7348299319728	179.3965986394558	79	127
178.7348299319728	179.3965986394558	76	127
178.7348299319728	178.89736961451248	57	127
178.7348299319728	178.89736961451248	64	127
178.90897959183673	179.0715192743764	57	127
178.90897959183673	179.0715192743764	64	127
179.08312925170068	179.22244897959183	57	127
179.08312925170068	179.22244897959183	64	127
179.2340589569161	179.3965986394558	64	127
179.2340589569161	179.3965986394558	57	127
179.40820861678006	179.57074829931972	77	127
179.40820861678006	179.57074829931972	74	127
179.40820861678006	179.57074829931972	65	127
179.40820861678006	179.57074829931972	62	127
179.582358276644	179.75650793650794	69	127
179.582358276644	179.75650793650794	76	127
179.582358276644	179.75650793650794	67	127
179.582358276644	179.75650793650794	64	127
179.7681179138322	180.023537414966	38	127
179.7681179138322	179.93065759637187	77	127
179.7681179138322	179.93065759637187	74	127
179.7681179138322	180.38342403628118	65	127
179.7681179138322	180.38342403628118	62	127
179.7681179138322	180.38342403628118	50	127
179.7681179138322	180.38342403628118	57	127
179.7681179138322	180.38342403628118	45	127
179.8958276643991	180.38342403628118	53	127
179.9538775510204	180.19768707482993	74	127
179.9538775510204	180.19768707482993	77	127
180.2092970521542	180.38342403628118	74	127
180.2092970521542	180.38342403628118	77	127
180.38342403628118	180.60403628117913	74	127
180.38342403628118	180.60403628117913	77	127
180.6156462585034	180.7781859410431	76	127
180.6156462585034	180.7781859410431	79	127
180.78979591836736	180.95233560090702	57	127
180.78979591836736	180.95233560090702	81	127
180.78979591836736	180.95233560090702	77	127
180.9639455782313	181.13809523809525	62	127
180.9639455782313	181.13809523809525	50	127
180.9639455782313	181.13809523809525	57	127
180.9639455782313	181.13809523809525	65	127
180.9639455782313	181.6837641723356	81	127
180.9639455782313	181.6837641723356	77	127
181.14968253968254	181.34707482993198	62	127
181.14968253968254	181.34707482993198	65	127
181.35866213151928	181.5212244897959	65	127
181.35866213151928	181.5212244897959	62	127
181.53283446712018	181.6837641723356	65	127
181.53283446712018	181.6837641723356	62	127
181.69537414965987	181.88113378684807	79	127
181.69537414965987	181.88113378684807	76	127
181.69537414965987	181.88113378684807	67	127
181.69537414965987	181.88113378684807	64	127
181.89274376417234	182.12492063492064	77	127
181.89274376417234	182.12492063492064	74	127
181.89274376417234	182.12492063492064	65	127
181.89274376417234	182.12492063492064	69	127
182.13655328798185	183.05374149659863	60	127
182.13655328798185	182.3107029478458	65	127
182.13655328798185	182.3107029478458	62	127
182.13655328798185	182.83315192743765	80	127
182.13655328798185	182.83315192743765	77	127
182.32231292517008	182.48485260770974	62	127
182.32231292517008	182.48485260770974	65	127
182.496462585034	182.6590022675737	65	127
182.496462585034	182.6590022675737	62	127
182.67061224489797	182.83315192743765	62	127
182.67061224489797	182.83315192743765	65	127
182.8447619047619	183.04210884353742	76	127
182.8447619047619	183.04210884353742	67	127
182.8447619047619	183.04210884353742	64	127
182.8447619047619	183.04210884353742	79	127
183.05374149659863	183.2511111111111	74	127
183.05374149659863	183.2511111111111	68	127
183.05374149659863	183.2511111111111	77	127
183.05374149659863	183.2511111111111	65	127
183.27433106575964	184.31920634920635	59	127
183.27433106575964	183.5645804988662	65	127
183.27433106575964	183.5645804988662	62	127
183.27433106575964	184.12185941043083	80	127
183.27433106575964	184.12185941043083	77	127
183.57619047619048	183.76192743764173	65	127
183.57619047619048	183.76192743764173	62	127
183.77356009070294	183.9477097505669	62	127
183.77356009070294	183.9477097505669	65	127
183.95931972789117	184.12185941043083	65	127
183.95931972789117	184.12185941043083	62	127
184.1334693877551	184.31920634920635	67	127
184.1334693877551	184.31920634920635	76	127
184.1334693877551	184.31920634920635	64	127
184.1334693877551	184.31920634920635	79	127
184.31920634920635	184.49337868480725	77	127
184.31920634920635	184.49337868480725	74	127
184.31920634920635	184.49337868480725	68	127
184.31920634920635	184.49337868480725	65	127
184.50498866213152	184.6791156462585	64	127
184.50498866213152	184.6791156462585	67	127
184.50498866213152	184.6791156462585	72	127
184.50498866213152	184.71396825396826	76	127
184.50498866213152	184.71396825396826	72	127
184.50498866213152	185.63115646258504	60	127
184.69074829931972	184.86489795918368	64	127
184.69074829931972	184.86489795918368	72	127
184.69074829931972	184.86489795918368	67	127
184.77201814058958	185.00421768707483	79	127
184.77201814058958	185.00421768707483	76	127
184.87650793650795	185.07387755102042	72	127
184.87650793650795	185.07387755102042	67	127
184.87650793650795	185.07387755102042	64	127
185.0854648526077	185.30607709750566	77	127
185.0854648526077	185.27124716553288	64	127
185.0854648526077	185.27124716553288	67	127
185.0854648526077	185.30607709750566	81	127
185.0854648526077	185.27124716553288	72	127
185.28285714285715	185.61954648526077	72	127
185.28285714285715	185.61954648526077	64	127
185.28285714285715	185.61954648526077	67	127
185.52666666666667	185.66598639455782	82	127
185.52666666666667	185.66598639455782	79	127
185.63115646258504	185.8285260770975	67	127
185.63115646258504	185.8285260770975	64	127
185.63115646258504	185.8285260770975	72	127
185.8285260770975	185.97945578231293	64	127
185.8285260770975	185.97945578231293	67	127
185.8285260770975	185.97945578231293	72	127
185.8285260770975	186.0142857142857	72	127
185.8285260770975	187.19850340136054	84	127
185.8285260770975	186.74571428571429	58	127
185.9910657596372	186.18843537414966	72	127
185.9910657596372	186.18843537414966	67	127
185.9910657596372	186.18843537414966	64	127
186.10714285714286	186.3277551020408	76	127
186.20004535147393	186.38580498866213	64	127
186.20004535147393	186.38580498866213	67	127
186.20004535147393	186.38580498866213	72	127
186.3974149659864	186.5599546485261	67	127
186.3974149659864	186.5599546485261	64	127
186.3974149659864	186.59478458049887	77	127
186.3974149659864	186.5599546485261	72	127
186.57154195011339	186.73410430839002	72	127
186.57154195011339	186.73410430839002	64	127
186.57154195011339	186.73410430839002	67	127
186.6528344671202	186.78054421768707	79	127
186.74571428571429	186.90825396825397	72	127
186.74571428571429	186.90825396825397	67	127
186.74571428571429	186.90825396825397	64	127
186.91986394557824	187.08238095238096	72	127
186.91986394557824	187.08238095238096	60	127
186.91986394557824	187.1172335600907	81	127
186.91986394557824	187.08238095238096	65	127
186.91986394557824	187.89510204081634	57	127
187.09401360544217	187.31460317460318	72	127
187.09401360544217	187.31460317460318	60	127
187.09401360544217	187.31460317460318	65	127
187.2101133786848	187.47714285714287	72	127
187.2101133786848	187.47714285714287	86	127
187.32621315192745	187.52358276643992	60	127
187.32621315192745	187.52358276643992	65	127
187.32621315192745	187.52358276643992	72	127
187.53519274376418	187.6977097505669	60	127
187.53519274376418	187.6977097505669	72	127
187.53519274376418	187.73256235827665	84	127
187.53519274376418	187.73256235827665	76	127
187.53519274376418	187.6977097505669	65	127
187.7093424036281	187.88349206349207	72	127
187.7093424036281	187.88349206349207	60	127
187.7093424036281	187.88349206349207	65	127
187.8022222222222	187.92993197278912	77	127
187.8022222222222	187.92993197278912	86	127
187.89510204081634	188.25498866213152	65	127
187.89510204081634	188.25498866213152	72	127
187.89510204081634	188.25498866213152	60	127
188.26662131519274	188.4407709750567	64	127
188.26662131519274	188.4407709750567	70	127
188.26662131519274	188.4407709750567	60	127
188.26662131519274	188.46396825396826	82	127
188.26662131519274	188.46396825396826	79	127
188.26662131519274	189.14897959183673	55	127
188.4407709750567	188.60331065759638	64	127
188.4407709750567	188.60331065759638	70	127
188.4407709750567	188.60331065759638	60	127
188.5336507936508	188.74263038548753	84	127
188.5336507936508	188.74263038548753	72	127
188.61489795918368	188.78907029478458	60	127
188.61489795918368	188.78907029478458	64	127
188.61489795918368	188.78907029478458	70	127
188.80068027210885	188.96321995464854	70	127
188.80068027210885	188.96321995464854	60	127
188.80068027210885	188.99804988662132	82	127
188.80068027210885	188.99804988662132	74	127
188.80068027210885	188.96321995464854	64	127
188.97480725623583	189.13736961451247	64	127
188.97480725623583	189.13736961451247	70	127
188.97480725623583	189.13736961451247	60	127
189.05609977324264	189.19541950113378	84	127
189.05609977324264	189.19541950113378	76	127
189.14897959183673	189.40439909297052	64	127
189.14897959183673	189.40439909297052	70	127
189.14897959183673	189.40439909297052	60	127
189.4160090702948	189.601768707483	77	127
189.4160090702948	189.57854875283448	65	127
189.4160090702948	189.57854875283448	69	127
189.4160090702948	189.57854875283448	60	127
189.4160090702948	189.601768707483	81	127
189.4160090702948	190.2983673469388	53	127
189.59015873015872	189.76430839002268	69	127
189.59015873015872	189.76430839002268	65	127
189.59015873015872	189.76430839002268	60	127
189.68303854875285	189.88040816326532	72	127
189.68303854875285	189.88040816326532	82	127
189.76430839002268	189.92684807256236	65	127
189.76430839002268	189.92684807256236	69	127
189.76430839002268	189.92684807256236	60	127
189.93845804988663	190.1009977324263	65	127
189.93845804988663	190.1009977324263	69	127
189.93845804988663	190.1009977324263	60	127
189.93845804988663	190.1358276643991	81	127
189.93845804988663	190.1358276643991	76	127
190.11260770975056	190.28675736961452	65	127
190.11260770975056	190.28675736961452	69	127
190.11260770975056	190.28675736961452	60	127
190.20548752834466	190.34480725623584	82	127
190.20548752834466	190.34480725623584	77	127
190.2983673469388	190.61183673469387	60	127
190.2983673469388	190.61183673469387	65	127
190.2983673469388	190.61183673469387	69	127
190.62344671201814	191.50580498866213	46	127
190.62344671201814	190.704716553288	79	127
190.62344671201814	190.704716553288	76	127
190.62344671201814	190.78598639455782	62	127
190.62344671201814	190.78598639455782	67	127
190.62344671201814	190.78598639455782	58	127
190.704716553288	190.7975963718821	81	127
190.704716553288	190.7975963718821	77	127
190.7975963718821	190.87886621315192	79	127
190.7975963718821	190.87886621315192	76	127
190.7975963718821	190.96013605442178	62	127
190.7975963718821	190.96013605442178	67	127
190.7975963718821	190.96013605442178	58	127
190.87886621315192	190.97174603174602	81	127
190.87886621315192	190.97174603174602	77	127
190.97174603174602	191.05301587301588	79	127
190.97174603174602	191.05301587301588	76	127
190.97174603174602	191.12267573696144	62	127
190.97174603174602	191.12267573696144	67	127
190.97174603174602	191.12267573696144	58	127
191.05301587301588	191.1342857142857	81	127
191.05301587301588	191.1342857142857	77	127
191.1342857142857	191.32004535147394	67	127
191.1342857142857	191.2271655328798	79	127
191.1342857142857	191.2271655328798	76	127
191.1342857142857	191.32004535147394	62	127
191.1342857142857	191.32004535147394	58	127
191.33165532879818	191.49419501133787	67	127
191.33165532879818	191.42453514739228	77	127
191.33165532879818	191.49419501133787	58	127
191.33165532879818	191.42453514739228	74	127
191.33165532879818	191.49419501133787	62	127
191.50580498866213	191.73800453514738	58	127
191.50580498866213	191.66834467120182	79	127
191.50580498866213	191.66834467120182	76	127
191.50580498866213	191.73800453514738	62	127
191.50580498866213	191.73800453514738	67	127
191.74961451247165	192.79451247165534	45	127
191.74961451247165	191.91215419501134	61	127
191.74961451247165	191.91215419501134	69	127
191.74961451247165	191.91215419501134	57	127
191.74961451247165	191.91215419501134	64	127
191.74961451247165	192.79451247165534	73	127
191.74961451247165	192.79451247165534	81	127
191.9237641723356	192.1095238095238	57	127
191.9237641723356	192.1095238095238	64	127
191.9237641723356	192.1095238095238	61	127
191.9237641723356	192.1095238095238	69	127
192.12113378684808	192.34172335600908	64	127
192.12113378684808	192.34172335600908	61	127
192.12113378684808	192.34172335600908	69	127
192.12113378684808	192.34172335600908	57	127
192.35333333333332	192.59714285714287	57	127
192.35333333333332	192.59714285714287	64	127
192.35333333333332	192.59714285714287	69	127
192.35333333333332	192.59714285714287	61	127
192.59714285714287	192.78290249433107	57	127
192.59714285714287	192.78290249433107	64	127
192.59714285714287	192.78290249433107	61	127
192.59714285714287	192.78290249433107	69	127
192.79451247165534	192.96866213151927	69	127
192.79451247165534	192.96866213151927	61	127
192.79451247165534	192.96866213151927	57	127
192.79451247165534	192.96866213151927	64	127
192.98027210884354	193.398231292517	64	127
192.98027210884354	193.398231292517	61	127
192.98027210884354	193.398231292517	69	127
192.98027210884354	193.398231292517	57	127
193.32857142857142	193.40984126984128	46	127
193.32857142857142	193.40984126984128	58	127
193.5259410430839	193.64204081632653	45	127
193.5259410430839	193.64204081632653	57	127
193.75814058956917	193.89746031746031	55	127
193.75814058956917	193.89746031746031	43	127
194.02517006802722	194.1296598639456	53	127
194.02517006802722	194.1296598639456	41	127
194.23414965986396	194.3386394557823	52	127
194.23414965986396	194.3386394557823	40	127
194.23414965986396	194.41990929705216	69	127
194.43151927437643	195.13972789115647	45	127
194.43151927437643	194.7798185941043	74	127
194.43151927437643	194.7798185941043	65	127
194.43151927437643	194.8726984126984	38	127
194.43151927437643	195.13972789115647	50	127
194.43151927437643	195.13972789115647	50	127
194.43151927437643	195.13972789115647	57	127
194.74498866213153	195.13972789115647	53	127
194.79142857142858	194.98879818594105	74	127
194.79142857142858	194.98879818594105	65	127
194.98879818594105	195.13972789115647	74	127
194.98879818594105	195.13972789115647	65	127
195.16294784580498	195.3487074829932	74	127
195.16294784580498	195.3487074829932	65	127
195.36031746031745	195.55768707482994	69	127
195.36031746031745	195.55768707482994	76	127
195.56929705215418	195.73183673469387	57	127
195.56929705215418	195.73183673469387	74	127
195.56929705215418	195.73183673469387	77	127
195.74344671201814	195.9175963718821	62	127
195.74344671201814	195.9175963718821	53	127
195.74344671201814	195.9175963718821	50	127
195.74344671201814	196.45165532879818	77	127
195.74344671201814	196.45165532879818	74	127
195.74344671201814	195.9175963718821	57	127
195.92920634920634	196.11496598639457	53	127
195.92920634920634	196.11496598639457	62	127
196.1265759637188	196.27750566893425	53	127
196.1265759637188	196.27750566893425	62	127
196.2891156462585	196.45165532879818	53	127
196.2891156462585	196.45165532879818	62	127
196.46326530612245	196.63741496598638	64	127
196.46326530612245	196.63741496598638	76	127
196.46326530612245	196.63741496598638	69	127
196.46326530612245	196.63741496598638	57	127
196.64902494331065	196.8580045351474	65	127
196.64902494331065	196.8580045351474	62	127
196.64902494331065	196.8580045351474	74	127
196.64902494331065	196.8580045351474	65	127
196.86961451247166	197.5081632653061	45	127
196.86961451247166	197.14825396825398	76	127
196.86961451247166	197.14825396825398	69	127
196.86961451247166	197.2295238095238	45	127
196.86961451247166	197.2295238095238	37	127
196.86961451247166	197.5081632653061	64	127
196.86961451247166	197.5081632653061	57	127
196.86961451247166	197.5081632653061	52	127
197.11342403628117	197.5081632653061	52	127
197.11342403628117	197.5081632653061	57	127
197.15986394557822	197.33401360544218	69	127
197.15986394557822	197.33401360544218	76	127
197.34562358276645	197.5081632653061	69	127
197.34562358276645	197.5081632653061	76	127
197.56621315192743	197.72875283446712	69	127
197.56621315192743	197.72875283446712	76	127
197.74036281179139	197.92612244897958	77	127
197.74036281179139	197.92612244897958	74	127
197.93773242630385	198.10027210884354	79	127
197.93773242630385	198.10027210884354	76	127
197.93773242630385	198.10027210884354	57	127
198.13510204081632	198.32086167800455	64	127
198.13510204081632	198.8665306122449	76	127
198.13510204081632	198.8665306122449	79	127
198.13510204081632	198.32086167800455	49	127
198.13510204081632	198.32086167800455	57	127
198.3324716553288	198.49501133786848	57	127
198.3324716553288	198.49501133786848	64	127
198.50662131519275	198.6807709750567	64	127
198.50662131519275	198.6807709750567	57	127
198.69238095238094	198.8665306122449	64	127
198.69238095238094	198.8665306122449	57	127
198.8665306122449	199.00585034013605	74	127
198.8665306122449	199.00585034013605	62	127
198.8665306122449	199.00585034013605	77	127
198.8665306122449	199.00585034013605	65	127
199.00585034013605	199.16839002267574	76	127
199.00585034013605	199.16839002267574	69	127
199.00585034013605	199.16839002267574	67	127
199.00585034013605	199.16839002267574	64	127
199.23804988662133	199.81854875283446	45	127
199.23804988662133	199.81854875283446	62	127
199.23804988662133	199.81854875283446	57	127
199.23804988662133	199.42380952380952	77	127
199.23804988662133	199.42380952380952	74	127
199.23804988662133	199.53990929705216	38	127
199.23804988662133	199.81854875283446	50	127
199.23804988662133	199.81854875283446	65	127
199.38897959183674	199.81854875283446	53	127
199.4354195011338	199.63278911564626	77	127
199.4354195011338	199.63278911564626	74	127
199.64439909297053	199.81854875283446	77	127
199.64439909297053	199.81854875283446	74	127
199.83015873015873	200.08557823129252	77	127
199.83015873015873	200.08557823129252	74	127
200.09718820861679	200.23650793650793	79	127
200.09718820861679	200.23650793650793	76	127
200.2481179138322	200.4106575963719	57	127
200.2481179138322	200.4106575963719	81	127
200.2481179138322	200.4106575963719	77	127
200.42226757369613	201.1536961451247	81	127
200.42226757369613	201.1536961451247	77	127
200.42226757369613	200.58480725623582	62	127
200.42226757369613	200.58480725623582	50	127
200.42226757369613	200.58480725623582	57	127
200.42226757369613	200.58480725623582	65	127
200.5964172335601	200.80539682539683	62	127
200.5964172335601	200.80539682539683	65	127
200.8170068027211	200.97954648526078	62	127
200.8170068027211	200.97954648526078	65	127
200.99115646258502	201.1536961451247	65	127
200.99115646258502	201.1536961451247	62	127
201.16530612244898	201.35106575963718	67	127
201.16530612244898	201.35106575963718	64	127
201.16530612244898	201.35106575963718	79	127
201.16530612244898	201.35106575963718	76	127
201.36267573696145	201.59487528344673	74	127
201.36267573696145	201.59487528344673	65	127
201.36267573696145	201.59487528344673	77	127
201.36267573696145	201.59487528344673	69	127
201.60648526077097	202.46562358276643	80	127
201.60648526077097	202.65138321995465	60	127
201.60648526077097	201.93156462585034	65	127
201.60648526077097	201.93156462585034	62	127
201.60648526077097	202.46562358276643	77	127
201.9431746031746	202.1057142857143	62	127
201.9431746031746	202.1057142857143	65	127
202.11732426303854	202.2914739229025	65	127
202.11732426303854	202.2914739229025	62	127
202.30308390022677	202.46562358276643	65	127
202.30308390022677	202.46562358276643	62	127
202.4772335600907	202.63977324263038	79	127
202.4772335600907	202.63977324263038	76	127
202.4772335600907	202.63977324263038	67	127
202.4772335600907	202.63977324263038	64	127
202.65138321995465	202.81392290249434	68	127
202.65138321995465	202.81392290249434	65	127
202.65138321995465	202.81392290249434	77	127
202.65138321995465	202.81392290249434	74	127
202.81392290249434	203.61501133786848	80	127
202.81392290249434	203.80077097505668	59	127
202.81392290249434	203.09256235827664	65	127
202.81392290249434	203.09256235827664	62	127
202.81392290249434	203.61501133786848	77	127
203.1041723356009	203.2667120181406	62	127
203.1041723356009	203.2667120181406	65	127
203.27832199546486	203.44086167800452	65	127
203.27832199546486	203.44086167800452	62	127
203.4524716553288	203.61501133786848	65	127
203.4524716553288	203.61501133786848	62	127
203.62662131519275	203.78916099773244	67	127
203.62662131519275	203.78916099773244	79	127
203.62662131519275	203.78916099773244	76	127
203.62662131519275	203.78916099773244	64	127
203.80077097505668	203.96331065759637	77	127
203.80077097505668	203.96331065759637	74	127
203.80077097505668	203.96331065759637	68	127
203.80077097505668	203.96331065759637	65	127
203.97492063492064	204.21873015873015	72	127
203.97492063492064	205.28684807256235	60	127
203.97492063492064	204.16068027210883	67	127
203.97492063492064	204.16068027210883	64	127
203.97492063492064	204.16068027210883	72	127
203.97492063492064	204.21873015873015	76	127
204.1722902494331	204.3928798185941	72	127
204.1722902494331	204.3928798185941	67	127
204.1722902494331	204.3928798185941	64	127
204.28839002267574	204.8340589569161	79	127
204.28839002267574	204.8340589569161	76	127
204.40448979591838	204.88049886621314	72	127
204.40448979591838	204.88049886621314	67	127
204.40448979591838	204.88049886621314	64	127
204.89210884353741	205.0546485260771	72	127
204.89210884353741	205.0546485260771	67	127
204.89210884353741	205.08947845804988	77	127
204.89210884353741	205.08947845804988	81	127
204.89210884353741	205.0546485260771	64	127
205.06625850340137	205.2752380952381	67	127
205.06625850340137	205.2752380952381	64	127
205.06625850340137	205.2752380952381	72	127
205.19396825396825	205.35650793650794	79	127
205.19396825396825	205.35650793650794	82	127
205.28684807256235	205.47260770975058	72	127
205.28684807256235	205.47260770975058	67	127
205.28684807256235	205.47260770975058	64	127
205.48421768707482	205.72802721088436	72	127
205.48421768707482	206.92385487528344	84	127
205.48421768707482	206.48267573696145	58	127
205.48421768707482	205.70480725623582	67	127
205.48421768707482	205.70480725623582	64	127
205.48421768707482	205.70480725623582	72	127
205.7164172335601	205.87895691609978	67	127
205.7164172335601	205.87895691609978	64	127
205.7164172335601	205.87895691609978	72	127
205.8092970521542	206.00666666666666	76	127
205.89056689342402	206.0531065759637	67	127
205.89056689342402	206.0531065759637	64	127
205.89056689342402	206.0531065759637	72	127
206.06471655328798	206.3085260770975	77	127
206.06471655328798	206.27369614512472	67	127
206.06471655328798	206.27369614512472	64	127
206.06471655328798	206.27369614512472	72	127
206.285306122449	206.47106575963718	67	127
206.285306122449	206.47106575963718	64	127
206.285306122449	206.47106575963718	72	127
206.38979591836735	206.5291156462585	79	127
206.48267573696145	206.66843537414965	72	127
206.48267573696145	206.66843537414965	67	127
206.48267573696145	206.66843537414965	64	127
206.68004535147392	206.8425850340136	60	127
206.68004535147392	206.8425850340136	65	127
206.68004535147392	206.8425850340136	72	127
206.68004535147392	206.86580498866212	81	127
206.68004535147392	207.62045351473924	57	127
206.85419501133788	207.01673469387754	65	127
206.85419501133788	207.01673469387754	72	127
206.85419501133788	207.01673469387754	60	127
206.9354648526077	207.1908843537415	72	127
206.9354648526077	207.1908843537415	86	127
207.01673469387754	207.23732426303854	65	127
207.01673469387754	207.23732426303854	60	127
207.01673469387754	207.23732426303854	72	127
207.24893424036281	207.434693877551	60	127
207.24893424036281	207.434693877551	65	127
207.24893424036281	207.434693877551	72	127
207.24893424036281	207.46952380952382	84	127
207.24893424036281	207.46952380952382	76	127
207.44630385487528	207.60884353741497	72	127
207.44630385487528	207.60884353741497	60	127
207.44630385487528	207.60884353741497	65	127
207.53918367346938	207.6668934240363	86	127
207.53918367346938	207.6668934240363	77	127
207.62045351473924	207.95714285714286	65	127
207.62045351473924	207.95714285714286	60	127
207.62045351473924	207.95714285714286	72	127
207.96875283446713	208.1661224489796	60	127
207.96875283446713	208.9091609977324	55	127
207.96875283446713	208.1661224489796	64	127
207.96875283446713	208.1661224489796	70	127
207.96875283446713	208.21256235827664	79	127
207.96875283446713	208.21256235827664	82	127
208.17773242630386	208.36349206349206	60	127
208.17773242630386	208.36349206349206	64	127
208.17773242630386	208.36349206349206	70	127
208.28222222222223	208.49120181405897	72	127
208.28222222222223	208.49120181405897	84	127
208.37510204081633	208.54925170068026	70	127
208.37510204081633	208.54925170068026	64	127
208.37510204081633	208.54925170068026	60	127
208.54925170068026	208.74662131519275	82	127
208.54925170068026	208.74662131519275	74	127
208.54925170068026	208.71179138321995	64	127
208.54925170068026	208.71179138321995	70	127
208.54925170068026	208.71179138321995	60	127
208.72340136054422	208.89755102040817	64	127
208.72340136054422	208.89755102040817	60	127
208.72340136054422	208.89755102040817	70	127
208.81628117913831	208.96721088435373	76	127
208.81628117913831	208.96721088435373	84	127
208.9091609977324	209.11814058956915	70	127
208.9091609977324	209.11814058956915	64	127
208.9091609977324	209.11814058956915	60	127
209.12975056689342	209.2922902494331	60	127
209.12975056689342	209.3271201814059	77	127
209.12975056689342	210.0469387755102	53	127
209.12975056689342	209.2922902494331	65	127
209.12975056689342	209.2922902494331	69	127
209.12975056689342	209.3271201814059	81	127
209.30390022675738	209.51287981859412	69	127
209.30390022675738	209.51287981859412	60	127
209.30390022675738	209.51287981859412	65	127
209.3851700680272	209.62897959183672	72	127
209.3851700680272	209.62897959183672	82	127
209.52448979591836	209.68702947845804	65	127
209.52448979591836	209.68702947845804	69	127
209.52448979591836	209.68702947845804	60	127
209.6986394557823	209.84956916099773	69	127
209.6986394557823	209.8843990929705	81	127
209.6986394557823	209.84956916099773	60	127
209.6986394557823	209.8843990929705	76	127
209.6986394557823	209.84956916099773	65	127
209.861179138322	210.03532879818593	65	127
209.861179138322	210.03532879818593	60	127
209.861179138322	210.03532879818593	69	127
209.9540589569161	210.09337868480725	77	127
209.9540589569161	210.09337868480725	82	127
210.0469387755102	210.4300680272109	60	127
210.0469387755102	210.4300680272109	65	127
210.0469387755102	210.4300680272109	69	127
210.44167800453513	210.6738775510204	62	127
210.44167800453513	211.39369614512472	46	127
210.44167800453513	210.5809977324263	79	127
210.44167800453513	210.5809977324263	76	127
210.44167800453513	210.6738775510204	67	127
210.44167800453513	210.6738775510204	58	127
210.5809977324263	210.68548752834468	77	127
210.5809977324263	210.68548752834468	81	127
210.68548752834468	210.84802721088437	58	127
210.68548752834468	210.84802721088437	62	127
210.68548752834468	210.84802721088437	67	127
210.68548752834468	210.7667573696145	79	127
210.68548752834468	210.7667573696145	76	127
210.7667573696145	210.87124716553288	77	127
210.7667573696145	210.87124716553288	81	127
210.87124716553288	211.03378684807257	58	127
210.87124716553288	211.03378684807257	62	127
210.87124716553288	211.03378684807257	67	127
210.87124716553288	210.9525170068027	79	127
210.87124716553288	210.9525170068027	76	127
210.9525170068027	211.04539682539684	77	127
210.9525170068027	211.04539682539684	81	127
211.04539682539684	211.23115646258503	67	127
211.04539682539684	211.23115646258503	62	127
211.04539682539684	211.23115646258503	58	127
211.04539682539684	211.1498866213152	79	127
211.04539682539684	211.1498866213152	76	127
211.23115646258503	211.38208616780045	67	127
211.23115646258503	211.31242630385486	77	127
211.23115646258503	211.31242630385486	74	127
211.23115646258503	211.38208616780045	62	127
211.23115646258503	211.38208616780045	58	127
211.39369614512472	211.5562358276644	58	127
211.39369614512472	211.48657596371882	79	127
211.39369614512472	211.48657596371882	76	127
211.39369614512472	211.5562358276644	62	127
211.39369614512472	211.5562358276644	67	127
211.56784580498865	211.7419954648526	57	127
211.56784580498865	211.7419954648526	64	127
211.56784580498865	212.5663038548753	45	127
211.56784580498865	212.5663038548753	73	127
211.56784580498865	212.5663038548753	81	127
211.56784580498865	211.7419954648526	61	127
211.56784580498865	211.7419954648526	69	127
211.75360544217688	211.95097505668934	61	127
211.75360544217688	211.95097505668934	69	127
211.75360544217688	211.95097505668934	57	127
211.75360544217688	211.95097505668934	64	127
211.9625850340136	212.17156462585035	57	127
211.9625850340136	212.17156462585035	61	127
211.9625850340136	212.17156462585035	69	127
211.9625850340136	212.17156462585035	64	127
212.1831746031746	212.3805442176871	61	127
212.1831746031746	212.3805442176871	69	127
212.1831746031746	212.3805442176871	57	127
212.1831746031746	212.3805442176871	64	127
212.39215419501133	212.55469387755102	61	127
212.39215419501133	212.55469387755102	69	127
212.39215419501133	212.55469387755102	57	127
212.39215419501133	212.55469387755102	64	127
212.5663038548753	212.79850340136053	64	127
212.5663038548753	212.79850340136053	61	127
212.5663038548753	212.79850340136053	69	127
212.5663038548753	212.79850340136053	57	127
212.79850340136053	213.2512925170068	69	127
212.79850340136053	213.2512925170068	64	127
212.79850340136053	213.2512925170068	57	127
212.79850340136053	213.2512925170068	61	127
213.14680272108845	213.2861224489796	58	127
213.14680272108845	213.2861224489796	46	127
213.41383219954648	213.52993197278911	45	127
213.41383219954648	213.52993197278911	57	127
213.6228117913832	213.72730158730158	43	127
213.6228117913832	213.72730158730158	55	127
213.83179138321995	213.9130612244898	53	127
213.83179138321995	213.9130612244898	41	127
214.01755102040818	214.12204081632652	52	127
214.01755102040818	214.12204081632652	40	127
214.01755102040818	214.21492063492065	69	127
214.2265306122449	214.40068027210884	69	127
214.2265306122449	214.40068027210884	62	127
214.2265306122449	214.40068027210884	65	127
214.2265306122449	214.5051700680272	50	127
214.2265306122449	214.5051700680272	38	127
214.2265306122449	214.84185941043083	53	127
214.2265306122449	214.84185941043083	45	127
214.36585034013606	214.84185941043083	57	127
214.36585034013606	214.84185941043083	53	127
214.4122902494331	214.65609977324263	65	127
214.4122902494331	214.65609977324263	62	127
214.4122902494331	214.65609977324263	69	127
214.6677097505669	214.84185941043083	62	127
214.6677097505669	214.84185941043083	69	127
214.6677097505669	214.84185941043083	65	127
214.8534693877551	215.03922902494332	65	127
214.8534693877551	215.03922902494332	62	127
214.8534693877551	215.03922902494332	69	127
215.0740589569161	215.24820861678003	69	127
215.0740589569161	215.24820861678003	74	127
215.2598185941043	215.422358276644	74	127
215.2598185941043	215.422358276644	77	127
215.43396825396826	215.59650793650795	50	127
215.43396825396826	215.59650793650795	53	127
215.43396825396826	216.13056689342403	77	127
215.43396825396826	216.13056689342403	74	127
215.43396825396826	215.59650793650795	57	127
215.6081179138322	215.78226757369615	50	127
215.6081179138322	215.78226757369615	53	127
215.6081179138322	215.78226757369615	57	127
215.79387755102042	215.9564172335601	50	127
215.79387755102042	215.9564172335601	57	127
215.79387755102042	215.9564172335601	53	127
215.96802721088434	216.13056689342403	50	127
215.96802721088434	216.13056689342403	53	127
215.96802721088434	216.13056689342403	57	127
216.1421768707483	216.37437641723355	57	127
216.1421768707483	216.37437641723355	74	127
216.1421768707483	216.37437641723355	69	127
216.1421768707483	216.37437641723355	62	127
216.38598639455782	216.6414058956916	69	127
216.38598639455782	216.6414058956916	62	127
216.38598639455782	216.6414058956916	65	127
216.38598639455782	216.6414058956916	65	127
216.65301587301587	217.53537414965987	64	127
216.65301587301587	217.19868480725623	48	127
216.65301587301587	217.53537414965987	67	127
216.65301587301587	216.85038548752834	72	127
216.65301587301587	216.85038548752834	64	127
216.65301587301587	216.94326530612244	36	127
216.65301587301587	216.94326530612244	43	127
216.81555555555556	217.19868480725623	60	127
216.81555555555556	217.19868480725623	52	127
216.8619954648526	217.0245351473923	72	127
216.8619954648526	217.0245351473923	64	127
217.03614512471654	217.19868480725623	64	127
217.03614512471654	217.19868480725623	72	127
217.2102947845805	217.53537414965987	72	127
217.2102947845805	217.53537414965987	64	127
217.5469841269841	217.7443537414966	76	127
217.5469841269841	217.7443537414966	60	127
217.5469841269841	217.7443537414966	64	127
217.5469841269841	217.7443537414966	72	127
217.7443537414966	217.90689342403627	55	127
217.7443537414966	217.90689342403627	79	127
217.7443537414966	217.90689342403627	76	127
217.7443537414966	217.90689342403627	60	127
217.91850340136054	218.08104308390023	55	127
217.91850340136054	218.60349206349207	76	127
217.91850340136054	218.60349206349207	79	127
217.91850340136054	218.08104308390023	52	127
218.0926530612245	218.25519274376418	52	127
218.0926530612245	218.25519274376418	55	127
218.26680272108842	218.4293424036281	55	127
218.26680272108842	218.4293424036281	52	127
218.44095238095238	218.60349206349207	55	127
218.44095238095238	218.60349206349207	52	127
218.61510204081634	218.8473015873016	55	127
218.61510204081634	218.8473015873016	76	127
218.61510204081634	218.8473015873016	72	127
218.61510204081634	218.8473015873016	60	127
218.85891156462586	219.03306122448978	64	127
218.85891156462586	219.03306122448978	60	127
218.85891156462586	219.03306122448978	64	127
218.85891156462586	219.03306122448978	72	127
219.04467120181405	219.6367800453515	46	127
219.04467120181405	219.20721088435374	67	127
219.04467120181405	219.20721088435374	64	127
219.04467120181405	219.35814058956916	46	127
219.04467120181405	219.6367800453515	52	127
219.04467120181405	219.6367800453515	55	127
219.04467120181405	219.81092970521541	67	127
219.04467120181405	219.81092970521541	64	127
219.1839909297052	219.6367800453515	60	127
219.218820861678	219.439410430839	64	127
219.218820861678	219.439410430839	67	127
219.45102040816326	219.6367800453515	67	127
219.45102040816326	219.6367800453515	64	127
219.64839002267573	219.81092970521541	67	127
219.64839002267573	219.81092970521541	64	127
219.82253968253968	219.99668934240364	60	127
219.82253968253968	219.99668934240364	76	127
219.82253968253968	219.99668934240364	67	127
219.82253968253968	219.99668934240364	64	127
220.00829931972788	220.17083900226757	79	127
220.00829931972788	220.17083900226757	60	127
220.00829931972788	220.17083900226757	76	127
220.00829931972788	220.17083900226757	55	127
220.18244897959184	220.99514739229025	79	127
220.18244897959184	220.99514739229025	76	127
220.18244897959184	220.46108843537414	55	127
220.18244897959184	220.46108843537414	52	127
220.48430839002268	220.64684807256236	55	127
220.48430839002268	220.64684807256236	52	127
220.65845804988663	220.8209977324263	55	127
220.65845804988663	220.8209977324263	52	127
220.83260770975056	220.99514739229025	55	127
220.83260770975056	220.99514739229025	52	127
221.00675736961452	221.1692970521542	55	127
221.00675736961452	221.1692970521542	76	127
221.00675736961452	221.1692970521542	67	127
221.00675736961452	221.1692970521542	64	127
221.18090702947845	221.47115646258504	67	127
221.18090702947845	221.47115646258504	64	127
221.18090702947845	221.47115646258504	67	127
221.18090702947845	221.47115646258504	64	127
221.48276643990928	222.2025850340136	64	127
221.48276643990928	222.2025850340136	69	127
221.48276643990928	221.65691609977324	73	127
221.48276643990928	221.65691609977324	64	127
221.48276643990928	221.7614058956916	45	127
221.48276643990928	222.0168253968254	52	127
221.6104761904762	222.0168253968254	57	127
221.6104761904762	222.0168253968254	61	127
221.65691609977324	221.84267573696144	73	127
221.65691609977324	221.84267573696144	64	127
221.8542857142857	222.0168253968254	73	127
221.8542857142857	222.0168253968254	64	127
222.02843537414967	222.2025850340136	73	127
222.02843537414967	222.2025850340136	64	127
222.21419501133786	222.72503401360544	61	127
222.21419501133786	222.72503401360544	76	127
222.21419501133786	222.72503401360544	69	127
222.21419501133786	222.72503401360544	64	127
222.7366439909297	222.8991836734694	85	127
222.7366439909297	222.8991836734694	76	127
222.7366439909297	222.8991836734694	61	127
222.7366439909297	222.8991836734694	57	127
222.91079365079366	223.68866213151927	85	127
222.91079365079366	223.68866213151927	76	127
222.91079365079366	223.07333333333332	61	127
222.91079365079366	223.07333333333332	57	127
223.0849433106576	223.235873015873	61	127
223.0849433106576	223.235873015873	57	127
223.24748299319728	223.41002267573697	61	127
223.24748299319728	223.41002267573697	57	127
223.42163265306124	223.5841723356009	61	127
223.42163265306124	223.5841723356009	57	127
223.59578231292517	223.75832199546485	64	127
223.59578231292517	223.75832199546485	61	127
223.68866213151927	223.9324716553288	81	127
223.68866213151927	223.9324716553288	73	127
223.76993197278912	223.9324716553288	69	127
223.76993197278912	223.9324716553288	64	127
223.94408163265305	224.22272108843538	72	127
223.94408163265305	224.9657596371882	50	127
223.94408163265305	225.38371882086167	86	127
223.94408163265305	224.22272108843538	66	127
224.23433106575965	224.3968707482993	66	127
224.23433106575965	224.3968707482993	72	127
224.31560090702948	224.52458049886621	74	127
224.40848072562358	224.58263038548753	72	127
224.40848072562358	224.58263038548753	66	127
224.5942403628118	224.76839002267573	66	127
224.5942403628118	224.81482993197278	78	127
224.5942403628118	224.76839002267573	72	127
224.78	224.95414965986396	72	127
224.78	224.95414965986396	66	127
224.88448979591837	225.01219954648525	81	127
224.9657596371882	225.1282993197279	66	127
224.9657596371882	225.1282993197279	72	127
225.13990929705216	225.33727891156462	80	127
225.13990929705216	225.30244897959184	64	127
225.13990929705216	226.01065759637189	52	127
225.13990929705216	225.30244897959184	71	127
225.3140589569161	225.47659863945577	71	127
225.3140589569161	225.47659863945577	64	127
225.39532879818594	225.60430839002268	88	127
225.39532879818594	225.60430839002268	76	127
225.48820861678004	225.662358276644	71	127
225.48820861678004	225.662358276644	64	127
225.662358276644	225.8248979591837	71	127
225.662358276644	225.8248979591837	64	127
225.662358276644	225.85972789115647	86	127
225.662358276644	225.85972789115647	80	127
225.83650793650793	225.99904761904762	71	127
225.83650793650793	225.99904761904762	64	127
225.92938775510203	226.05709750566893	88	127
225.92938775510203	226.05709750566893	83	127
226.01065759637189	226.1848072562358	71	127
226.01065759637189	226.1848072562358	64	127
226.19641723356008	226.5679365079365	72	127
226.19641723356008	227.93791383219954	86	127
226.19641723356008	227.51995464852607	54	127
226.19641723356008	226.62598639455783	81	127
226.19641723356008	226.5679365079365	69	127
226.57954648526078	226.92784580498866	69	127
226.57954648526078	226.92784580498866	72	127
226.68403628117915	227.0671655328798	74	127
226.93945578231293	227.12521541950113	69	127
226.93945578231293	227.12521541950113	72	127
227.1600453514739	227.3225850340136	72	127
227.1600453514739	227.3225850340136	69	127
227.1600453514739	227.34580498866214	78	127
227.3225850340136	227.50834467120183	69	127
227.3225850340136	227.50834467120183	72	127
227.42707482993197	227.56639455782312	84	127
227.51995464852607	227.68249433106575	66	127
227.51995464852607	227.68249433106575	69	127
227.69410430839002	227.8914739229025	83	127
227.69410430839002	227.8566439909297	64	127
227.69410430839002	228.5416326530612	56	127
227.69410430839002	227.8566439909297	71	127
227.86825396825398	228.03079365079364	71	127
227.86825396825398	228.03079365079364	64	127
227.9495238095238	228.135283446712	88	127
227.9495238095238	228.135283446712	76	127
228.0424036281179	228.19333333333333	71	127
228.0424036281179	228.19333333333333	64	127
228.2049433106576	228.3907029478458	86	127
228.2049433106576	228.36748299319729	64	127
228.2049433106576	228.3907029478458	80	127
228.2049433106576	228.36748299319729	71	127
228.37909297052155	228.53002267573697	71	127
228.37909297052155	228.53002267573697	64	127
228.46036281179138	228.58807256235826	88	127
228.46036281179138	228.58807256235826	83	127
228.5416326530612	228.7041723356009	71	127
228.5416326530612	228.7041723356009	64	127
228.71578231292517	228.94798185941042	86	127
228.71578231292517	229.87678004535147	57	127
228.71578231292517	228.91315192743764	65	127
228.71578231292517	228.94798185941042	81	127
228.71578231292517	228.91315192743764	69	127
228.9247619047619	229.2034013605442	69	127
228.9247619047619	229.2034013605442	65	127
229.0873015873016	229.3659410430839	88	127
229.0873015873016	229.3659410430839	79	127
229.21501133786848	229.47043083900226	69	127
229.21501133786848	229.47043083900226	65	127
229.48204081632653	229.6561904761905	69	127
229.48204081632653	229.679410430839	77	127
229.48204081632653	229.679410430839	86	127
229.48204081632653	229.6561904761905	65	127
229.66780045351473	229.87678004535147	65	127
229.66780045351473	229.87678004535147	69	127
229.79551020408164	229.92321995464852	81	127
229.79551020408164	229.92321995464852	89	127
229.87678004535147	230.20185941043084	65	127
229.87678004535147	230.20185941043084	62	127
230.2134693877551	230.41083900226758	64	127
230.2134693877551	230.41083900226758	69	127
230.2134693877551	231.16548752834467	45	127
230.2134693877551	230.45727891156463	79	127
230.2134693877551	230.45727891156463	88	127
230.4340589569161	230.59659863945578	69	127
230.4340589569161	230.59659863945578	64	127
230.52693877551022	230.71269841269842	82	127
230.52693877551022	230.71269841269842	91	127
230.60820861678005	230.77074829931973	64	127
230.60820861678005	230.77074829931973	69	127
230.782358276644	231.01455782312925	85	127
230.782358276644	230.95650793650793	64	127
230.782358276644	231.01455782312925	76	127
230.782358276644	230.95650793650793	69	127
230.97972789115647	231.1538775510204	64	127
230.97972789115647	231.1538775510204	69	127
231.07260770975057	231.21192743764172	88	127
231.07260770975057	231.21192743764172	79	127
231.16548752834467	231.38607709750568	57	127
231.16548752834467	231.38607709750568	64	127
231.38607709750568	231.61827664399092	65	127
231.38607709750568	231.61827664399092	57	127
231.38607709750568	231.61827664399092	62	127
231.38607709750568	232.40775510204082	86	127
231.38607709750568	232.40775510204082	77	127
231.38607709750568	232.40775510204082	50	127
231.6298866213152	231.8156462585034	62	127
231.6298866213152	231.8156462585034	57	127
231.6298866213152	231.8156462585034	65	127
231.82725623582766	232.00140589569162	57	127
231.82725623582766	232.00140589569162	65	127
231.82725623582766	232.00140589569162	62	127
232.01301587301586	232.21038548752836	62	127
232.01301587301586	232.21038548752836	57	127
232.01301587301586	232.21038548752836	65	127
232.2219954648526	232.39614512471655	65	127
232.2219954648526	232.39614512471655	57	127
232.2219954648526	232.39614512471655	62	127
232.40775510204082	232.58190476190475	65	127
232.40775510204082	232.58190476190475	57	127
232.40775510204082	232.58190476190475	62	127
232.59351473922902	232.87215419501135	57	127
232.59351473922902	232.87215419501135	62	127
232.59351473922902	232.87215419501135	65	127
232.77927437641722	232.8837641723356	46	127
232.77927437641722	232.8837641723356	58	127
232.98825396825396	233.08113378684808	45	127
232.98825396825396	233.08113378684808	57	127
233.26689342403628	233.37138321995465	44	127
233.26689342403628	233.37138321995465	56	127
233.47587301587302	233.5803628117914	57	127
233.47587301587302	233.5803628117914	45	127
233.70807256235827	233.84739229024945	41	127
233.70807256235827	233.94027210884354	69	127
233.70807256235827	233.84739229024945	53	127
233.9518820861678	234.12603174603174	65	127
233.9518820861678	234.12603174603174	62	127
233.9518820861678	234.12603174603174	69	127
233.9518820861678	234.21891156462584	50	127
233.9518820861678	234.21891156462584	38	127
233.9518820861678	234.49755102040817	53	127
233.9518820861678	234.49755102040817	45	127
234.09120181405896	234.49755102040817	57	127
234.09120181405896	234.49755102040817	53	127
234.137641723356	234.3234013605442	65	127
234.137641723356	234.3234013605442	62	127
234.137641723356	234.3234013605442	69	127
234.33501133786848	234.49755102040817	62	127
234.33501133786848	234.49755102040817	69	127
234.33501133786848	234.49755102040817	65	127
234.50916099773244	234.69492063492063	65	127
234.50916099773244	234.69492063492063	62	127
234.50916099773244	234.69492063492063	69	127
234.7065306122449	234.8690702947846	69	127
234.7065306122449	234.8690702947846	74	127
234.88068027210883	235.04321995464852	74	127
234.88068027210883	235.04321995464852	77	127
235.0548299319728	235.21736961451248	50	127
235.0548299319728	235.7746485260771	74	127
235.0548299319728	235.7746485260771	77	127
235.0548299319728	235.21736961451248	53	127
235.0548299319728	235.21736961451248	57	127
235.22897959183675	235.42634920634922	50	127
235.22897959183675	235.42634920634922	57	127
235.22897959183675	235.42634920634922	53	127
235.43795918367346	235.60049886621314	50	127
235.43795918367346	235.60049886621314	57	127
235.43795918367346	235.60049886621314	53	127
235.6121088435374	235.7746485260771	50	127
235.6121088435374	235.7746485260771	53	127
235.6121088435374	235.7746485260771	57	127
235.7978684807256	235.94879818594103	57	127
235.7978684807256	235.94879818594103	74	127
235.7978684807256	235.94879818594103	69	127
235.7978684807256	235.94879818594103	62	127
235.9604081632653	236.20421768707482	69	127
235.9604081632653	236.20421768707482	65	127
235.9604081632653	236.20421768707482	65	127
235.9604081632653	236.20421768707482	62	127
236.22743764172336	237.09818594104308	64	127
236.22743764172336	236.51768707482992	72	127
236.22743764172336	236.51768707482992	64	127
236.22743764172336	236.59895691609978	36	127
236.22743764172336	236.59895691609978	43	127
236.22743764172336	237.09818594104308	67	127
236.22743764172336	236.86598639455784	48	127
236.48285714285714	236.86598639455784	52	127
236.48285714285714	236.86598639455784	60	127
236.5292970521542	236.66861678004534	72	127
236.5292970521542	236.66861678004534	64	127
236.6802267573696	236.86598639455784	64	127
236.6802267573696	236.86598639455784	72	127
236.87759637188208	237.09818594104308	64	127
236.87759637188208	237.09818594104308	72	127
237.10979591836735	237.27233560090704	76	127
237.10979591836735	237.27233560090704	60	127
237.10979591836735	237.27233560090704	72	127
237.10979591836735	237.27233560090704	64	127
237.27233560090704	237.4348752834467	79	127
237.27233560090704	237.4348752834467	76	127
237.27233560090704	237.4348752834467	60	127
237.27233560090704	237.4348752834467	55	127
237.44648526077097	238.1314739229025	79	127
237.44648526077097	238.1314739229025	76	127
237.44648526077097	237.60902494331066	55	127
237.44648526077097	237.60902494331066	52	127
237.62063492063493	237.78317460317461	55	127
237.62063492063493	237.78317460317461	52	127
237.79478458049886	237.95732426303854	55	127
237.79478458049886	237.95732426303854	52	127
237.9689342403628	238.1314739229025	52	127
237.9689342403628	238.1314739229025	55	127
238.14308390022677	238.4101133786848	55	127
238.14308390022677	238.4101133786848	76	127
238.14308390022677	238.4101133786848	72	127
238.14308390022677	238.4101133786848	60	127
238.4449433106576	238.66553287981858	72	127
238.4449433106576	238.66553287981858	64	127
238.4449433106576	238.66553287981858	64	127
238.4449433106576	238.66553287981858	60	127
238.71197278911563	239.6291609977324	64	127
238.71197278911563	239.09510204081633	67	127
238.71197278911563	239.09510204081633	64	127
238.71197278911563	239.1995918367347	46	127
238.71197278911563	239.45501133786848	52	127
238.71197278911563	239.45501133786848	46	127
238.71197278911563	239.45501133786848	55	127
238.71197278911563	239.6291609977324	67	127
239.06027210884355	239.45501133786848	60	127
239.1067120181406	239.28086167800453	64	127
239.1067120181406	239.28086167800453	67	127
239.2924716553288	239.45501133786848	64	127
239.2924716553288	239.45501133786848	67	127
239.46662131519275	239.6291609977324	67	127
239.46662131519275	239.6291609977324	64	127
239.64077097505668	239.81492063492064	64	127
239.64077097505668	239.81492063492064	60	127
239.64077097505668	239.81492063492064	76	127
239.64077097505668	239.81492063492064	67	127
239.8265306122449	239.98907029478457	55	127
239.8265306122449	239.98907029478457	79	127
239.8265306122449	239.98907029478457	76	127
239.8265306122449	239.98907029478457	60	127
240.00068027210884	240.7669387755102	79	127
240.00068027210884	240.7669387755102	76	127
240.00068027210884	240.22126984126984	55	127
240.00068027210884	240.22126984126984	52	127
240.2328798185941	240.40702947845804	55	127
240.2328798185941	240.40702947845804	52	127
240.4186394557823	240.59278911564627	55	127
240.4186394557823	240.59278911564627	52	127
240.6043990929705	240.7669387755102	52	127
240.6043990929705	240.7669387755102	55	127
240.77854875283447	240.94108843537416	55	127
240.77854875283447	240.94108843537416	76	127
240.77854875283447	240.94108843537416	67	127
240.77854875283447	240.94108843537416	64	127
240.95269841269842	241.12684807256235	67	127
240.95269841269842	241.12684807256235	64	127
240.95269841269842	241.12684807256235	67	127
240.95269841269842	241.12684807256235	64	127
241.13845804988662	241.7421768707483	52	127
241.13845804988662	241.3009977324263	73	127
241.13845804988662	241.3009977324263	64	127
241.13845804988662	241.4287074829932	45	127
241.13845804988662	241.93954648526076	69	127
241.13845804988662	241.93954648526076	64	127
241.2661678004535	241.7421768707483	61	127
241.2661678004535	241.7421768707483	57	127
241.3009977324263	241.54480725623583	64	127
241.3009977324263	241.54480725623583	73	127
241.5564172335601	241.7421768707483	73	127
241.5564172335601	241.7421768707483	64	127
241.75378684807256	241.93954648526076	73	127
241.75378684807256	241.93954648526076	64	127
241.95115646258503	242.35750566893424	64	127
241.95115646258503	242.35750566893424	69	127
241.95115646258503	242.35750566893424	61	127
241.95115646258503	242.35750566893424	76	127
242.3691156462585	242.5316553287982	61	127
242.3691156462585	242.5316553287982	57	127
242.3691156462585	242.5316553287982	85	127
242.3691156462585	242.5316553287982	76	127
242.54326530612244	242.70580498866212	57	127
242.54326530612244	242.70580498866212	61	127
242.54326530612244	243.32113378684807	85	127
242.54326530612244	243.32113378684807	76	127
242.7174149659864	242.8683446712018	57	127
242.7174149659864	242.8683446712018	61	127
242.87995464852608	243.04249433106577	57	127
242.87995464852608	243.04249433106577	61	127
243.05410430839	243.2166439909297	61	127
243.05410430839	243.2166439909297	57	127
243.22825396825397	243.39079365079365	61	127
243.22825396825397	243.39079365079365	64	127
243.32113378684807	243.56494331065758	81	127
243.32113378684807	243.56494331065758	73	127
243.40240362811792	243.56494331065758	69	127
243.40240362811792	243.56494331065758	64	127
243.57655328798185	244.70272108843537	50	127
243.57655328798185	245.10907029478457	86	127
243.57655328798185	243.85519274376418	72	127
243.57655328798185	243.85519274376418	66	127
243.86680272108845	244.05256235827665	72	127
243.86680272108845	244.05256235827665	66	127
243.95968253968255	244.1918820861678	74	127
244.06417233560092	244.26154195011338	72	127
244.06417233560092	244.26154195011338	66	127
244.27315192743765	244.4821315192744	72	127
244.27315192743765	244.55179138321995	78	127
244.27315192743765	244.4821315192744	66	127
244.52857142857144	244.6911111111111	66	127
244.52857142857144	244.6911111111111	72	127
244.62145124716554	244.74916099773242	81	127
244.70272108843537	244.8536507936508	66	127
244.70272108843537	244.8536507936508	72	127
244.86526077097506	245.72439909297051	52	127
244.86526077097506	245.02780045351474	71	127
244.86526077097506	245.02780045351474	64	127
244.86526077097506	245.06263038548752	80	127
245.039410430839	245.20195011337867	71	127
245.039410430839	245.20195011337867	64	127
245.12068027210884	245.3180498866213	76	127
245.12068027210884	245.3180498866213	88	127
245.21356009070294	245.37609977324263	64	127
245.21356009070294	245.37609977324263	71	127
245.37609977324263	245.5734693877551	86	127
245.37609977324263	245.53863945578232	71	127
245.37609977324263	245.53863945578232	64	127
245.37609977324263	245.5734693877551	80	127
245.5502494331066	245.71278911564625	71	127
245.5502494331066	245.71278911564625	64	127
245.64312925170069	245.77083900226756	88	127
245.64312925170069	245.77083900226756	83	127
245.72439909297051	245.8869387755102	71	127
245.72439909297051	245.8869387755102	64	127
245.89854875283447	246.40938775510205	69	127
245.89854875283447	246.44421768707483	81	127
245.89854875283447	247.28013605442177	54	127
245.89854875283447	247.69809523809525	86	127
245.89854875283447	246.40938775510205	72	127
246.42099773242631	246.6415873015873	69	127
246.42099773242631	246.6415873015873	72	127
246.50226757369614	246.82734693877552	74	127
246.66480725623583	246.90861678004535	69	127
246.66480725623583	246.90861678004535	72	127
246.92022675736962	247.10598639455782	78	127
246.92022675736962	247.0827664399093	72	127
246.92022675736962	247.0827664399093	69	127
247.0827664399093	247.2685260770975	69	127
247.0827664399093	247.2685260770975	72	127
247.1756462585034	247.32657596371882	84	127
247.28013605442177	247.44267573696146	66	127
247.28013605442177	247.44267573696146	69	127
247.4542857142857	247.6516553287982	83	127
247.4542857142857	248.35986394557824	56	127
247.4542857142857	247.6168253968254	71	127
247.4542857142857	247.6168253968254	64	127
247.62843537414966	247.79097505668935	64	127
247.62843537414966	247.79097505668935	71	127
247.7097052154195	247.95351473922904	88	127
247.7097052154195	247.95351473922904	76	127
247.80258503401362	248.01156462585033	71	127
247.80258503401362	248.01156462585033	64	127
248.0231746031746	248.20893424036282	86	127
248.0231746031746	248.18571428571428	64	127
248.0231746031746	248.20893424036282	80	127
248.0231746031746	248.18571428571428	71	127
248.19732426303855	248.34825396825397	64	127
248.19732426303855	248.34825396825397	71	127
248.27859410430838	248.4063038548753	83	127
248.27859410430838	248.4063038548753	88	127
248.35986394557824	248.5224036281179	64	127
248.35986394557824	248.5224036281179	71	127
248.53401360544217	249.72984126984127	57	127
248.53401360544217	248.70816326530613	69	127
248.53401360544217	248.70816326530613	65	127
248.53401360544217	248.7429931972789	86	127
248.53401360544217	248.7429931972789	81	127
248.7197732426304	249.0332426303855	69	127
248.7197732426304	249.0332426303855	65	127
248.9055328798186	249.1493424036281	79	127
248.9055328798186	249.1493424036281	88	127
249.04485260770974	249.20739229024943	65	127
249.04485260770974	249.20739229024943	69	127
249.2190022675737	249.4744217687075	77	127
249.2190022675737	249.45120181405895	69	127
249.2190022675737	249.45120181405895	65	127
249.2190022675737	249.4744217687075	86	127
249.46281179138322	249.72984126984127	65	127
249.46281179138322	249.72984126984127	69	127
249.63696145124717	249.77628117913832	89	127
249.63696145124717	249.77628117913832	81	127
249.72984126984127	249.89238095238096	62	127
249.72984126984127	249.89238095238096	65	127
249.9039909297052	250.86761904761906	45	127
249.9039909297052	250.1013605442177	69	127
249.9039909297052	250.1013605442177	64	127
249.9039909297052	250.13619047619048	88	127
249.9039909297052	250.13619047619048	79	127
250.11297052154194	250.27551020408163	69	127
250.11297052154194	250.27551020408163	64	127
250.20585034013607	250.39160997732426	82	127
250.20585034013607	250.39160997732426	91	127
250.2871201814059	250.44965986394558	64	127
250.2871201814059	250.44965986394558	69	127
250.46126984126985	250.68185941043083	76	127
250.46126984126985	250.63541950113378	69	127
250.46126984126985	250.63541950113378	64	127
250.46126984126985	250.68185941043083	85	127
250.65863945578232	250.8560090702948	69	127
250.65863945578232	250.8560090702948	64	127
250.77473922902493	250.90244897959184	79	127
250.77473922902493	250.90244897959184	88	127
250.86761904761906	251.1694784580499	57	127
250.86761904761906	251.1694784580499	64	127
251.1694784580499	251.4132879818594	65	127
251.1694784580499	252.144716553288	50	127
251.1694784580499	252.144716553288	77	127
251.1694784580499	252.144716553288	86	127
251.1694784580499	251.4132879818594	57	127
251.1694784580499	251.4132879818594	62	127
251.42489795918368	251.58743764172337	62	127
251.42489795918368	251.58743764172337	57	127
251.42489795918368	251.58743764172337	65	127
251.5990476190476	251.77319727891157	62	127
251.5990476190476	251.77319727891157	57	127
251.5990476190476	251.77319727891157	65	127
251.78480725623584	251.95895691609977	62	127
251.78480725623584	251.95895691609977	57	127
251.78480725623584	251.95895691609977	65	127
251.97056689342404	252.13310657596372	57	127
251.97056689342404	252.13310657596372	65	127
251.97056689342404	252.13310657596372	62	127
252.144716553288	252.31886621315192	57	127
252.144716553288	252.31886621315192	62	127
252.144716553288	252.31886621315192	65	127
252.3304761904762	252.6671655328798	57	127
252.3304761904762	252.6671655328798	62	127
252.3304761904762	252.6671655328798	65	127
252.5742857142857	252.67877551020408	46	127
252.5742857142857	252.67877551020408	58	127
252.78326530612244	252.87614512471654	57	127
252.78326530612244	252.87614512471654	45	127
252.99224489795918	253.08512471655328	56	127
252.99224489795918	253.08512471655328	44	127
253.18961451247165	253.28249433106575	45	127
253.18961451247165	253.28249433106575	57	127
253.3985941043084	253.50308390022676	53	127
253.3985941043084	253.50308390022676	41	127
253.72367346938776	253.87460317460318	38	127
253.72367346938776	253.88621315192745	50	127
253.72367346938776	254.6524716553288	62	127
253.72367346938776	254.6524716553288	69	127
253.72367346938776	254.6524716553288	57	127
253.72367346938776	254.6524716553288	65	127
253.88621315192745	254.01392290249433	40	127
253.88621315192745	254.0255328798186	52	127
254.0255328798186	254.14163265306124	41	127
254.0255328798186	254.15324263038548	53	127
254.15324263038548	254.3390022675737	43	127
254.15324263038548	254.3390022675737	55	127
254.3390022675737	254.48993197278912	45	127
254.3390022675737	254.5015419501134	57	127
254.5015419501134	254.66408163265305	59	127
254.5015419501134	254.6524716553288	47	127
254.66408163265305	254.8730612244898	49	127
254.66408163265305	254.88467120181406	61	127
254.66408163265305	255.04721088435375	81	127
254.66408163265305	255.04721088435375	77	127
254.66408163265305	255.04721088435375	69	127
254.88467120181406	255.03560090702948	50	127
254.88467120181406	255.03560090702948	62	127
255.04721088435375	255.83668934240362	79	127
255.04721088435375	255.83668934240362	82	127
255.04721088435375	255.17492063492062	49	127
255.04721088435375	255.1865306122449	61	127
255.04721088435375	255.83668934240362	70	127
255.1865306122449	255.3142403628118	58	127
255.1865306122449	255.30263038548753	46	127
255.3142403628118	255.45356009070295	45	127
255.3142403628118	255.46517006802722	57	127
255.46517006802722	255.5928798185941	43	127
255.46517006802722	255.60448979591837	55	127
255.60448979591837	255.720589569161	53	127
255.60448979591837	255.70897959183674	41	127
255.720589569161	255.8482993197279	52	127
255.720589569161	255.83668934240362	40	127
255.8482993197279	256.15015873015875	70	127
255.8482993197279	255.9760090702948	50	127
255.8482993197279	255.96439909297052	38	127
255.8482993197279	256.15015873015875	67	127
255.8482993197279	256.15015873015875	58	127
255.9760090702948	256.1385487528345	49	127
255.9760090702948	256.1385487528345	37	127
256.15015873015875	256.28947845804987	38	127
256.15015873015875	257.05573696145126	65	127
256.15015873015875	257.05573696145126	69	127
256.15015873015875	257.05573696145126	57	127
256.15015873015875	256.28947845804987	50	127
256.28947845804987	256.42879818594105	40	127
256.28947845804987	256.4404081632653	52	127
256.4404081632653	256.5681179138322	41	127
256.4404081632653	256.61455782312925	53	127
256.61455782312925	256.7306575963719	43	127
256.61455782312925	256.74226757369615	55	127
256.74226757369615	256.9512471655329	57	127
256.74226757369615	256.9396371882086	45	127
256.9512471655329	257.06734693877553	59	127
256.9512471655329	257.05573696145126	47	127
257.06734693877553	257.42725623582766	77	127
257.06734693877553	257.2995238095238	61	127
257.06734693877553	257.28793650793654	49	127
257.06734693877553	257.42725623582766	69	127
257.06734693877553	257.42725623582766	81	127
257.2995238095238	257.4156462585034	62	127
257.2995238095238	257.4156462585034	50	127
257.42725623582766	257.5433560090703	48	127
257.42725623582766	258.3096145124717	87	127
257.42725623582766	258.3096145124717	78	127
257.42725623582766	258.3096145124717	75	127
257.42725623582766	257.55496598639456	60	127
257.55496598639456	257.69428571428574	46	127
257.55496598639456	257.705873015873	58	127
257.705873015873	257.8568253968254	45	127
257.705873015873	257.86843537414967	57	127
257.86843537414967	257.9845351473923	43	127
257.86843537414967	258.00773242630385	55	127
258.00773242630385	258.15868480725624	42	127
258.00773242630385	258.1702947845805	54	127
258.1702947845805	258.3096145124717	39	127
258.1702947845805	258.3096145124717	51	127
258.3096145124717	258.64630385487527	63	127
258.3096145124717	258.64630385487527	57	127
258.3096145124717	258.64630385487527	66	127
258.3096145124717	258.4953741496599	38	127
258.3096145124717	258.5185714285714	50	127
258.5185714285714	258.634693877551	36	127
258.5185714285714	258.634693877551	48	127
258.64630385487527	258.7624036281179	43	127
258.64630385487527	259.47061224489795	62	127
258.64630385487527	259.47061224489795	67	127
258.64630385487527	259.47061224489795	55	127
258.64630385487527	258.7740136054422	47	127
258.7740136054422	258.8901133786848	36	127
258.7740136054422	258.8901133786848	48	127
258.8901133786848	259.0526530612245	38	127
258.8901133786848	259.06426303854875	50	127
259.06426303854875	259.1803628117914	40	127
259.06426303854875	259.19197278911565	52	127
259.19197278911565	259.31968253968256	42	127
259.19197278911565	259.33129251700683	54	127
259.33129251700683	259.4822222222222	55	127
259.33129251700683	259.47061224489795	43	127
259.4822222222222	259.7724716553288	74	127
259.4822222222222	259.7724716553288	86	127
259.4822222222222	259.63315192743767	45	127
259.4822222222222	259.7724716553288	79	127
259.4822222222222	259.64473922902494	57	127
259.64473922902494	259.7608616780045	47	127
259.64473922902494	259.7608616780045	59	127
259.7724716553288	260.59678004535147	87	127
259.7724716553288	260.59678004535147	75	127
259.7724716553288	259.8885714285714	48	127
259.7724716553288	259.9001814058957	60	127
259.7724716553288	260.59678004535147	78	127
259.9001814058957	260.05108843537414	46	127
259.9001814058957	260.06272108843535	58	127
260.06272108843535	260.178820861678	45	127
260.06272108843535	260.19043083900226	57	127
260.19043083900226	260.352970521542	55	127
260.19043083900226	260.3413605442177	43	127
260.352970521542	260.4690476190476	42	127
260.352970521542	260.4806802721088	54	127
260.4806802721088	260.59678004535147	39	127
260.4806802721088	260.60839002267574	51	127
260.60839002267574	260.73609977324264	50	127
260.60839002267574	260.86380952380955	57	127
260.60839002267574	260.73609977324264	38	127
260.60839002267574	260.86380952380955	66	127
260.60839002267574	260.86380952380955	63	127
260.73609977324264	260.8521995464853	36	127
260.73609977324264	260.8521995464853	48	127
260.86380952380955	261.00312925170067	43	127
260.86380952380955	261.0263492063492	47	127
260.86380952380955	261.69972789115644	55	127
260.86380952380955	261.69972789115644	67	127
260.86380952380955	261.69972789115644	62	127
261.0263492063492	261.1540589569161	48	127
261.0263492063492	261.14244897959185	36	127
261.1540589569161	261.281746031746	50	127
261.1540589569161	261.27015873015876	38	127
261.281746031746	261.4094784580499	52	127
261.281746031746	261.3862358276644	40	127
261.4094784580499	261.5720181405896	42	127
261.4094784580499	261.58360544217686	54	127
261.58360544217686	261.69972789115644	43	127
261.58360544217686	261.7113378684807	55	127
261.7113378684807	261.9783673469388	45	127
261.7113378684807	262.1060544217687	86	127
261.7113378684807	262.1060544217687	74	127
261.7113378684807	261.98997732426307	57	127
261.98997732426307	262.09444444444443	59	127
261.98997732426307	262.09444444444443	47	127
262.1060544217687	262.23378684807255	53	127
262.1060544217687	262.9303854875283	80	127
262.1060544217687	262.9303854875283	83	127
262.1060544217687	262.9303854875283	92	127
262.1060544217687	262.2453968253968	65	127
262.2453968253968	262.40791383219954	51	127
262.2453968253968	262.431156462585	63	127
262.431156462585	262.55886621315193	50	127
262.431156462585	262.5704761904762	62	127
262.5704761904762	262.68657596371884	48	127
262.5704761904762	262.68657596371884	60	127
262.68657596371884	262.8026757369615	47	127
262.68657596371884	262.81426303854875	59	127
262.81426303854875	262.9419954648526	56	127
262.81426303854875	262.9303854875283	44	127
262.9419954648526	263.27868480725624	68	127
262.9419954648526	263.27868480725624	62	127
262.9419954648526	263.27868480725624	71	127
262.9419954648526	263.12773242630385	43	127
262.9419954648526	263.13936507936506	55	127
263.13936507936506	263.27868480725624	42	127
263.13936507936506	263.27868480725624	53	127
263.27868480725624	264.1029931972789	60	127
263.27868480725624	264.1146031746032	72	127
263.27868480725624	263.40639455782315	40	127
263.27868480725624	263.4180045351474	52	127
263.27868480725624	264.1029931972789	67	127
263.4180045351474	263.53408163265306	41	127
263.4180045351474	263.54571428571427	53	127
263.54571428571427	263.6618140589569	43	127
263.54571428571427	263.6734240362812	55	127
263.6734240362812	263.8591836734694	57	127
263.6734240362812	263.8359410430839	45	127
263.8591836734694	263.975283446712	47	127
263.8591836734694	263.9868934240363	59	127
263.9868934240363	264.1029931972789	48	127
263.9868934240363	264.1146031746032	60	127
264.1146031746032	264.25390022675737	84	127
264.1146031746032	264.25390022675737	62	127
264.1146031746032	264.2422902494331	50	127
264.1146031746032	264.25390022675737	72	127
264.25390022675737	264.37002267573695	52	127
264.25390022675737	264.37002267573695	64	127
264.3816326530612	265.0550113378685	67	127
264.3816326530612	265.0550113378685	64	127
264.3816326530612	265.0550113378685	76	127
264.3816326530612	264.5209523809524	46	127
264.3816326530612	264.53256235827666	58	127
264.3816326530612	264.53256235827666	46	127
264.3816326530612	264.68349206349205	60	127
264.53256235827666	264.6951020408163	48	127
264.53256235827666	265.0550113378685	72	127
264.53256235827666	264.68349206349205	48	127
264.53256235827666	264.6951020408163	60	127
264.6951020408163	264.91569160997733	62	127
264.6951020408163	264.90408163265306	50	127
264.6951020408163	264.91569160997733	50	127
264.91569160997733	265.0550113378685	52	127
264.91569160997733	265.0665986394558	52	127
264.91569160997733	265.0665986394558	64	127
265.0665986394558	265.1943310657596	65	127
265.0665986394558	265.1943310657596	53	127
265.0665986394558	265.1943310657596	53	127
265.1943310657596	265.3452607709751	55	127
265.1943310657596	265.35687074829934	55	127
265.1943310657596	265.35687074829934	67	127
265.35687074829934	265.50780045351473	88	127
265.35687074829934	265.4845804988662	57	127
265.35687074829934	265.50780045351473	76	127
265.35687074829934	265.50780045351473	69	127
265.35687074829934	265.50780045351473	57	127
265.50780045351473	265.62390022675737	70	127
265.50780045351473	265.62390022675737	58	127
265.6471201814059	266.181179138322	65	127
265.6471201814059	266.181179138322	77	127
265.6471201814059	266.181179138322	65	127
265.6471201814059	265.76321995464855	45	127
265.6471201814059	265.7748072562358	57	127
265.6471201814059	265.7748072562358	45	127
265.6471201814059	265.8909297052154	60	127
265.7748072562358	266.181179138322	72	127
265.7748072562358	265.90253968253967	46	127
265.7748072562358	265.8909297052154	46	127
265.7748072562358	265.90253968253967	58	127
265.90253968253967	266.0534693877551	60	127
265.90253968253967	266.04185941043085	48	127
265.90253968253967	266.0534693877551	48	127
266.0534693877551	266.181179138322	50	127
266.0534693877551	266.1927664399093	50	127
266.0534693877551	266.1927664399093	62	127
266.1927664399093	266.32049886621314	64	127
266.1927664399093	266.3088888888889	52	127
266.1927664399093	266.32049886621314	52	127
266.32049886621314	266.44820861678005	53	127
266.32049886621314	266.4365986394558	53	127
266.32049886621314	266.44820861678005	65	127
266.44820861678005	266.57591836734696	67	127
266.44820861678005	266.57591836734696	89	127
266.44820861678005	266.57591836734696	77	127
266.44820861678005	266.57591836734696	55	127
266.44820861678005	266.5643083900227	55	127
266.57591836734696	266.6920181405896	57	127
266.57591836734696	266.6920181405896	69	127
266.70360544217687	266.8313378684807	52	127
266.70360544217687	267.22607709750565	79	127
266.70360544217687	267.22607709750565	67	127
266.70360544217687	267.22607709750565	67	127
266.70360544217687	266.81972789115645	52	127
266.70360544217687	266.8313378684807	64	127
266.70360544217687	266.94743764172335	60	127
266.8313378684807	266.94743764172335	53	127
266.8313378684807	266.94743764172335	53	127
266.8313378684807	266.94743764172335	65	127
266.8313378684807	267.22607709750565	72	127
266.94743764172335	267.0983673469388	67	127
266.94743764172335	267.08675736961453	55	127
266.94743764172335	267.0983673469388	55	127
267.0983673469388	267.22607709750565	57	127
267.0983673469388	267.2492970521542	57	127
267.0983673469388	267.2492970521542	69	127
267.2492970521542	267.40022675736964	70	127
267.2492970521542	267.40022675736964	58	127
267.2492970521542	267.38861678004537	58	127
267.40022675736964	267.551156462585	72	127
267.40022675736964	267.551156462585	60	127
267.40022675736964	267.551156462585	60	127
267.551156462585	267.67886621315193	62	127
267.551156462585	267.66725623582767	62	127
267.551156462585	267.67886621315193	91	127
267.551156462585	267.67886621315193	79	127
267.551156462585	267.67886621315193	74	127
267.67886621315193	267.7949659863946	64	127
267.67886621315193	267.7949659863946	76	127
267.80657596371884	268.45673469387754	65	127
267.80657596371884	268.45673469387754	69	127
267.80657596371884	267.9226530612245	53	127
267.80657596371884	267.93426303854875	65	127
267.80657596371884	267.93426303854875	53	127
267.80657596371884	268.0968253968254	60	127
267.80657596371884	268.45673469387754	81	127
267.93426303854875	268.1084353741497	55	127
267.93426303854875	268.45673469387754	72	127
267.93426303854875	268.0968253968254	55	127
267.93426303854875	268.1084353741497	67	127
268.1084353741497	268.2941950113379	57	127
268.1084353741497	268.2245351473923	57	127
268.1084353741497	268.2941950113379	69	127
268.2941950113379	268.4683446712018	70	127
268.2941950113379	268.45673469387754	58	127
268.2941950113379	268.4683446712018	58	127
268.4683446712018	268.58444444444444	60	127
268.4683446712018	268.5960544217687	72	127
268.4683446712018	268.5960544217687	60	127
268.5960544217687	268.7237641723356	62	127
268.5960544217687	268.7237641723356	74	127
268.5960544217687	268.71215419501135	62	127
268.7237641723356	268.828253968254	76	127
268.7237641723356	268.8166439909297	64	127
268.7237641723356	268.828253968254	93	127
268.7237641723356	268.828253968254	81	127
268.7237641723356	268.828253968254	64	127
268.828253968254	268.9443310657596	65	127
268.828253968254	268.9443310657596	77	127
268.9559410430839	269.5480725623583	74	127
268.9559410430839	269.5480725623583	71	127
268.9559410430839	269.095283446712	52	127
268.9559410430839	269.1068934240363	64	127
268.9559410430839	269.1068934240363	52	127
268.9559410430839	269.21138321995466	64	127
268.9559410430839	269.5480725623583	83	127
269.1068934240363	269.2229931972789	54	127
269.1068934240363	269.5480725623583	80	127
269.1068934240363	269.21138321995466	54	127
269.1068934240363	269.2229931972789	66	127
269.2229931972789	269.33909297052156	56	127
269.2229931972789	269.33909297052156	56	127
269.2229931972789	269.33909297052156	68	127
269.33909297052156	269.5712925170068	57	127
269.33909297052156	269.5480725623583	57	127
269.33909297052156	269.5712925170068	69	127
269.5712925170068	269.7918820861678	59	127
269.5712925170068	269.80349206349206	59	127
269.5712925170068	269.80349206349206	71	127
269.80349206349206	269.94281179138324	61	127
269.80349206349206	269.9544217687075	73	127
269.80349206349206	269.9544217687075	61	127
269.9544217687075	270.08213151927436	83	127
269.9544217687075	270.08213151927436	62	127
269.9544217687075	270.08213151927436	74	127
269.9544217687075	270.08213151927436	80	127
269.9544217687075	270.08213151927436	74	127
269.9544217687075	270.07049886621314	62	127
269.9544217687075	270.08213151927436	95	127
269.9544217687075	270.08213151927436	64	127
270.08213151927436	270.1866213151927	76	127
270.08213151927436	270.1866213151927	64	127
270.20984126984126	270.72068027210884	52	127
270.20984126984126	270.3607709750567	93	127
270.20984126984126	270.3607709750567	64	127
270.20984126984126	270.3607709750567	73	127
270.20984126984126	270.3607709750567	81	127
270.20984126984126	270.47687074829935	57	127
270.20984126984126	270.47687074829935	45	127
270.20984126984126	270.72068027210884	81	127
270.20984126984126	270.72068027210884	64	127
270.3607709750567	270.72068027210884	73	127
270.3607709750567	270.4884580498866	92	127
270.3607709750567	270.72068027210884	61	127
270.3607709750567	270.4884580498866	80	127
270.4884580498866	270.61619047619047	93	127
270.4884580498866	270.61619047619047	81	127
270.61619047619047	270.7322902494331	78	127
270.61619047619047	270.7322902494331	90	127
270.7322902494331	270.86	76	127
270.7322902494331	270.86	88	127
270.86	270.9992970521542	86	127
270.86	270.9992970521542	74	127
270.9992970521542	271.12702947845804	73	127
270.9992970521542	271.12702947845804	85	127
271.12702947845804	271.2431292517007	71	127
271.12702947845804	271.2431292517007	83	127
271.2431292517007	271.3940589569161	81	127
271.2431292517007	271.8700680272109	69	127
271.2431292517007	271.8700680272109	81	127
271.2431292517007	271.3940589569161	69	127
271.3940589569161	271.5565986394558	68	127
271.3940589569161	271.5565986394558	80	127
271.5565986394558	271.6843083900227	81	127
271.5565986394558	271.6843083900227	69	127
271.6843083900227	271.8700680272109	65	127
271.6843083900227	271.8700680272109	77	127
271.8700680272109	271.9977777777778	76	127
271.8700680272109	271.9977777777778	64	127
271.9977777777778	272.1370975056689	74	127
271.9977777777778	272.1370975056689	62	127
272.1370975056689	272.3576870748299	61	127
272.1370975056689	272.3576870748299	73	127
272.3576870748299	272.52022675736964	58	127
272.3576870748299	272.52022675736964	70	127
272.5318140589569	273.56512471655327	57	127
272.5318140589569	273.56512471655327	65	127
272.5318140589569	273.56512471655327	62	127
272.5318140589569	272.65954648526076	38	127
272.5318140589569	272.6827664399093	50	127
272.5318140589569	273.56512471655327	69	127
272.6827664399093	272.79886621315194	40	127
272.6827664399093	272.8104761904762	52	127
272.8104761904762	273.11233560090704	53	127
272.8104761904762	273.1007256235828	41	127
273.11233560090704	273.26326530612243	43	127
273.11233560090704	273.2748752834467	55	127
273.2748752834467	273.3793650793651	45	127
273.2748752834467	273.4025850340136	57	127
273.4025850340136	273.56512471655327	47	127
273.4025850340136	273.57673469387754	59	127
273.57673469387754	273.8205442176871	61	127
273.57673469387754	273.9714739229025	81	127
273.57673469387754	273.9714739229025	69	127
273.57673469387754	273.9714739229025	77	127
273.57673469387754	273.8089342403628	49	127
273.8205442176871	273.95984126984126	62	127
273.8205442176871	273.95984126984126	50	127
273.9714739229025	274.73773242630386	82	127
273.9714739229025	274.73773242630386	70	127
273.9714739229025	274.73773242630386	79	127
273.9714739229025	274.07596371882084	49	127
273.9714739229025	274.07596371882084	61	127
274.07596371882084	274.215283446712	46	127
274.07596371882084	274.2268934240363	58	127
274.2268934240363	274.3546031746032	45	127
274.2268934240363	274.36619047619047	57	127
274.36619047619047	274.4939229024943	43	127
274.36619047619047	274.5055328798186	55	127
274.5055328798186	274.6216326530612	41	127
274.5055328798186	274.6332426303855	53	127
274.6332426303855	274.73773242630386	40	127
274.6332426303855	274.74934240362813	52	127
274.74934240362813	274.9002721088435	38	127
274.74934240362813	274.92349206349206	50	127
274.74934240362813	275.0860090702948	58	127
274.74934240362813	275.0860090702948	70	127
274.74934240362813	275.0860090702948	67	127
274.92349206349206	275.0744217687075	37	127
274.92349206349206	275.0744217687075	49	127
275.0860090702948	275.21374149659863	38	127
275.0860090702948	275.9567800453515	69	127
275.0860090702948	275.2253514739229	50	127
275.0860090702948	275.9567800453515	65	127
275.0860090702948	275.9567800453515	57	127
275.2253514739229	275.37628117913835	40	127
275.2253514739229	275.3878684807256	52	127
275.3878684807256	275.52721088435374	53	127
275.3878684807256	275.51560090702947	41	127
275.52721088435374	275.65492063492064	55	127
275.52721088435374	275.6433106575964	43	127
275.65492063492064	275.7942176870748	57	127
275.65492063492064	275.78263038548755	45	127
275.7942176870748	275.9567800453515	59	127
275.7942176870748	275.9567800453515	47	127
275.9567800453515	276.1657596371882	61	127
275.9567800453515	276.3050793650794	81	127
275.9567800453515	276.3050793650794	77	127
275.9567800453515	276.3050793650794	69	127
275.9567800453515	276.15414965986395	49	127
276.1657596371882	276.2934693877551	62	127
276.1657596371882	276.2934693877551	50	127
276.3050793650794	277.09455782312926	87	127
276.3050793650794	277.09455782312926	75	127
276.3050793650794	277.09455782312926	78	127
276.3050793650794	276.4443990929705	48	127
276.3050793650794	276.4560090702948	60	127
276.4560090702948	276.5721088435374	46	127
276.4560090702948	276.5721088435374	58	127
276.5721088435374	276.69981859410433	45	127
276.5721088435374	276.7114285714286	57	127
276.7114285714286	276.82750566893424	43	127
276.7114285714286	276.83913832199545	55	127
276.83913832199545	276.9552380952381	42	127
276.83913832199545	276.96684807256236	54	127
276.96684807256236	277.09455782312926	39	127
276.96684807256236	277.10616780045353	51	127
277.10616780045353	277.38480725623583	63	127
277.10616780045353	277.2222675736962	38	127
277.10616780045353	277.2570975056689	50	127
277.10616780045353	277.38480725623583	57	127
277.10616780045353	277.38480725623583	66	127
277.2570975056689	277.37319727891156	36	127
277.2570975056689	277.37319727891156	48	127
277.38480725623583	278.3136054421769	55	127
277.38480725623583	278.3136054421769	67	127
277.38480725623583	278.3136054421769	62	127
277.38480725623583	277.524126984127	47	127
277.38480725623583	277.50090702947847	43	127
277.524126984127	277.6750566893424	48	127
277.524126984127	277.66344671201813	36	127
277.6750566893424	277.79115646258504	38	127
277.6750566893424	277.8027664399093	50	127
277.8027664399093	277.9885260770975	52	127
277.8027664399093	277.95367346938775	40	127
277.9885260770975	278.1510430839002	54	127
277.9885260770975	278.13945578231295	42	127
278.1510430839002	278.3136054421769	43	127
278.1510430839002	278.32521541950115	55	127
278.32521541950115	278.6618820861678	86	127
278.32521541950115	278.51097505668935	45	127
278.32521541950115	278.51097505668935	57	127
278.32521541950115	278.6618820861678	79	127
278.32521541950115	278.6618820861678	74	127
278.51097505668935	278.6502947845805	59	127
278.51097505668935	278.6502947845805	47	127
278.6618820861678	279.41655328798186	75	127
278.6618820861678	279.41655328798186	87	127
278.6618820861678	279.41655328798186	78	127
278.6618820861678	278.78961451247164	48	127
278.6618820861678	278.8012244897959	60	127
278.8012244897959	278.91732426303855	46	127
278.8012244897959	278.9289342403628	58	127
278.9289342403628	279.04503401360546	45	127
278.9289342403628	279.05664399092973	57	127
279.05664399092973	279.1611337868481	43	127
279.05664399092973	279.17272108843537	55	127
279.17272108843537	279.28884353741495	42	127
279.17272108843537	279.3004535147392	54	127
279.3004535147392	279.4281632653061	51	127
279.3004535147392	279.41655328798186	39	127
279.4281632653061	279.55587301587303	50	127
279.4281632653061	279.67197278911567	57	127
279.4281632653061	279.67197278911567	66	127
279.4281632653061	279.67197278911567	63	127
279.4281632653061	279.54426303854876	38	127
279.55587301587303	279.6603628117914	48	127
279.55587301587303	279.6603628117914	36	127
279.67197278911567	280.51950113378683	55	127
279.67197278911567	280.51950113378683	62	127
279.67197278911567	280.51950113378683	67	127
279.67197278911567	279.7880498866213	43	127
279.67197278911567	279.7996825396825	47	127
279.7996825396825	279.91578231292516	36	127
279.7996825396825	279.92739229024943	48	127
279.92739229024943	280.08990929705215	38	127
279.92739229024943	280.1131519274376	50	127
280.1131519274376	280.2524716553288	40	127
280.1131519274376	280.2524716553288	52	127
280.2524716553288	280.36857142857144	42	127
280.2524716553288	280.3801814058957	54	127
280.3801814058957	280.51950113378683	43	127
280.3801814058957	280.5311111111111	55	127
280.5311111111111	280.7052380952381	45	127
280.5311111111111	280.7168707482993	57	127
280.5311111111111	280.86780045351475	86	127
280.5311111111111	280.86780045351475	74	127
280.7168707482993	280.86780045351475	47	127
280.7168707482993	280.86780045351475	59	127
280.86780045351475	281.6688888888889	80	127
280.86780045351475	281.6688888888889	92	127
280.86780045351475	281.6688888888889	83	127
280.86780045351475	281.0419501133787	53	127
280.86780045351475	281.05356009070294	65	127
281.05356009070294	281.1696598639456	51	127
281.05356009070294	281.18126984126985	63	127
281.18126984126985	281.2973696145125	50	127
281.18126984126985	281.30897959183676	62	127
281.30897959183676	281.4250566893424	48	127
281.30897959183676	281.4366893424036	60	127
281.4366893424036	281.541179138322	47	127
281.4366893424036	281.55278911564625	59	127
281.55278911564625	281.6688888888889	44	127
281.55278911564625	281.68049886621316	56	127
281.68049886621316	281.8314058956916	55	127
281.68049886621316	281.95913832199545	62	127
281.68049886621316	281.95913832199545	71	127
281.68049886621316	281.95913832199545	68	127
281.68049886621316	281.81981859410433	43	127
281.8314058956916	281.9475283446712	53	127
281.8314058956916	281.9475283446712	42	127
281.95913832199545	282.1100680272109	52	127
281.95913832199545	282.81827664399094	67	127
281.95913832199545	282.86471655328796	72	127
281.95913832199545	282.81827664399094	60	127
281.95913832199545	282.09845804988663	40	127
282.1100680272109	282.249387755102	41	127
282.1100680272109	282.2609977324263	53	127
282.2609977324263	282.41192743764174	55	127
282.2609977324263	282.40031746031747	43	127
282.41192743764174	282.5280272108844	45	127
282.41192743764174	282.53963718820864	57	127
282.53963718820864	282.69056689342403	47	127
282.53963718820864	282.69056689342403	59	127
282.69056689342403	282.86471655328796	60	127
282.69056689342403	282.81827664399094	48	127
282.86471655328796	283.0272562358277	50	127
282.86471655328796	283.03886621315195	84	127
282.86471655328796	283.03886621315195	72	127
282.86471655328796	283.03886621315195	62	127
283.03886621315195	283.1549433106576	64	127
283.03886621315195	283.1549433106576	52	127
283.16655328798186	283.35233560090705	46	127
283.16655328798186	283.3639229024943	58	127
283.16655328798186	283.3639229024943	46	127
283.16655328798186	283.4684126984127	60	127
283.16655328798186	283.747074829932	76	127
283.16655328798186	283.747074829932	67	127
283.16655328798186	283.747074829932	64	127
283.3639229024943	283.4800453514739	48	127
283.3639229024943	283.747074829932	72	127
283.3639229024943	283.4684126984127	48	127
283.3639229024943	283.4800453514739	60	127
283.4800453514739	283.6077551020408	50	127
283.4800453514739	283.6193650793651	62	127
283.4800453514739	283.6193650793651	50	127
283.6193650793651	283.75868480725626	64	127
283.6193650793651	283.747074829932	52	127
283.6193650793651	283.75868480725626	52	127
283.75868480725626	283.8863945578231	65	127
283.75868480725626	283.8863945578231	53	127
283.75868480725626	283.8747619047619	53	127
283.8863945578231	284.00249433106575	55	127
283.8863945578231	284.01410430839	67	127
283.8863945578231	284.01410430839	55	127
284.01410430839	284.17664399092973	76	127
284.01410430839	284.17664399092973	57	127
284.01410430839	284.16503401360546	57	127
284.01410430839	284.17664399092973	88	127
284.01410430839	284.17664399092973	69	127
284.17664399092973	284.3275736961451	70	127
284.17664399092973	284.3275736961451	58	127
284.3391836734694	284.5133333333333	45	127
284.3391836734694	284.50172335600905	45	127
284.3391836734694	284.5133333333333	57	127
284.3391836734694	284.62943310657596	60	127
284.3391836734694	284.8848526077098	77	127
284.3391836734694	284.8848526077098	65	127
284.3391836734694	284.8848526077098	65	127
284.5133333333333	284.62943310657596	58	127
284.5133333333333	284.8848526077098	72	127
284.5133333333333	284.62943310657596	46	127
284.5133333333333	284.62943310657596	46	127
284.62943310657596	284.75714285714287	60	127
284.62943310657596	284.7455328798186	48	127
284.62943310657596	284.75714285714287	48	127
284.75714285714287	284.8848526077098	50	127
284.75714285714287	284.89643990929704	50	127
284.75714285714287	284.89643990929704	62	127
284.89643990929704	285.070612244898	52	127
284.89643990929704	285.070612244898	64	127
284.89643990929704	285.0590022675737	52	127
285.070612244898	285.1867120181406	53	127
285.070612244898	285.1867120181406	53	127
285.070612244898	285.1867120181406	65	127
285.1867120181406	285.3143990929705	77	127
285.1867120181406	285.3143990929705	89	127
285.1867120181406	285.30278911564625	55	127
285.1867120181406	285.3143990929705	67	127
285.1867120181406	285.3143990929705	55	127
285.3143990929705	285.4305215419501	69	127
285.3143990929705	285.4305215419501	57	127
285.44213151927437	285.5698412698413	64	127
285.44213151927437	285.6975510204082	60	127
285.44213151927437	285.95297052154194	79	127
285.44213151927437	285.95297052154194	67	127
285.44213151927437	285.95297052154194	67	127
285.44213151927437	285.558231292517	52	127
285.44213151927437	285.5698412698413	52	127
285.5698412698413	285.70916099773245	65	127
285.5698412698413	285.6975510204082	53	127
285.5698412698413	285.70916099773245	53	127
285.5698412698413	285.95297052154194	72	127
285.70916099773245	285.8368707482993	55	127
285.70916099773245	285.8252380952381	55	127
285.70916099773245	285.8368707482993	67	127
285.8368707482993	285.9645804988662	57	127
285.8368707482993	285.95297052154194	57	127
285.8368707482993	285.9645804988662	69	127
285.9645804988662	286.11551020408166	58	127
285.9645804988662	286.1270975056689	58	127
285.9645804988662	286.1270975056689	70	127
286.1270975056689	286.30126984126986	72	127
286.1270975056689	286.2896598639456	60	127
286.1270975056689	286.30126984126986	60	127
286.30126984126986	286.4057596371882	62	127
286.30126984126986	286.4173696145125	91	127
286.30126984126986	286.4173696145125	79	127
286.30126984126986	286.4173696145125	74	127
286.30126984126986	286.4173696145125	62	127
286.4173696145125	286.53344671201813	64	127
286.4173696145125	286.53344671201813	76	127
286.54507936507935	286.67278911564625	53	127
286.54507936507935	286.81210884353743	60	127
286.54507936507935	287.11396825396827	81	127
286.54507936507935	287.11396825396827	65	127
286.54507936507935	287.11396825396827	69	127
286.54507936507935	286.67278911564625	65	127
286.54507936507935	286.661179138322	53	127
286.67278911564625	286.81210884353743	55	127
286.67278911564625	286.8237188208617	67	127
286.67278911564625	286.8237188208617	55	127
286.67278911564625	287.11396825396827	72	127
286.8237188208617	286.95142857142855	69	127
286.8237188208617	286.95142857142855	57	127
286.8237188208617	286.95142857142855	57	127
286.95142857142855	287.12557823129254	58	127
286.95142857142855	287.12557823129254	70	127
286.95142857142855	287.11396825396827	58	127
287.12557823129254	287.25326530612244	60	127
287.12557823129254	287.26489795918366	60	127
287.12557823129254	287.26489795918366	72	127
287.26489795918366	287.39260770975056	74	127
287.26489795918366	287.39260770975056	62	127
287.26489795918366	287.3809977324263	62	127
287.39260770975056	287.53192743764174	81	127
287.39260770975056	287.53192743764174	64	127
287.39260770975056	287.5203174603175	64	127
287.39260770975056	287.53192743764174	93	127
287.39260770975056	287.53192743764174	76	127
287.53192743764174	287.6364172335601	65	127
287.53192743764174	287.6364172335601	77	127
287.6480272108844	287.79895691609977	64	127
287.6480272108844	287.9150566893424	64	127
287.6480272108844	288.2285260770975	71	127
287.6480272108844	288.2285260770975	83	127
287.6480272108844	288.2285260770975	74	127
287.6480272108844	287.7873469387755	52	127
287.6480272108844	287.79895691609977	52	127
287.79895691609977	287.9266666666667	66	127
287.79895691609977	288.2285260770975	80	127
287.79895691609977	287.9150566893424	54	127
287.79895691609977	287.9266666666667	54	127
287.9266666666667	288.1124263038549	68	127
287.9266666666667	288.1008163265306	56	127
287.9266666666667	288.1124263038549	56	127
288.1124263038549	288.2285260770975	57	127
288.1124263038549	288.2401360544218	57	127
288.1124263038549	288.2401360544218	69	127
288.2401360544218	288.40267573696144	71	127
288.2401360544218	288.40267573696144	59	127
288.2401360544218	288.3910657596372	59	127
288.40267573696144	288.6348752834467	61	127
288.40267573696144	288.646485260771	73	127
288.40267573696144	288.646485260771	61	127
288.646485260771	288.7625850340136	83	127
288.646485260771	288.7625850340136	74	127
288.646485260771	288.7625850340136	80	127
288.646485260771	288.7625850340136	74	127
288.646485260771	288.7625850340136	62	127
288.646485260771	288.75097505668936	62	127
288.646485260771	288.7625850340136	95	127
288.646485260771	288.7625850340136	64	127
288.7625850340136	288.87868480725626	64	127
288.7625850340136	288.87868480725626	76	127
288.87868480725626	289.0180045351474	73	127
288.87868480725626	289.0180045351474	93	127
288.87868480725626	289.0180045351474	64	127
288.87868480725626	289.0180045351474	81	127
288.87868480725626	289.1457142857143	57	127
288.87868480725626	289.1457142857143	45	127
288.87868480725626	289.4011111111111	81	127
288.87868480725626	289.4011111111111	64	127
288.87868480725626	289.4011111111111	52	127
289.0180045351474	289.15732426303856	92	127
289.0180045351474	289.15732426303856	80	127
289.0180045351474	289.4011111111111	73	127
289.0180045351474	289.4011111111111	61	127
289.15732426303856	289.28503401360547	93	127
289.15732426303856	289.28503401360547	81	127
289.28503401360547	289.4011111111111	78	127
289.28503401360547	289.4011111111111	90	127
289.4011111111111	289.52884353741496	76	127
289.4011111111111	289.52884353741496	88	127
289.52884353741496	289.65655328798186	86	127
289.52884353741496	289.65655328798186	74	127
289.65655328798186	289.7842630385488	85	127
289.65655328798186	289.7842630385488	73	127
289.7842630385488	289.9003628117914	83	127
289.7842630385488	289.9003628117914	71	127
289.9119501133787	290.42278911564625	81	127
289.9119501133787	290.02807256235826	69	127
289.9119501133787	290.42278911564625	69	127
289.9119501133787	290.02807256235826	81	127
290.02807256235826	290.15578231292517	80	127
290.02807256235826	290.15578231292517	68	127
290.15578231292517	290.2834920634921	69	127
290.15578231292517	290.2834920634921	81	127
290.2834920634921	290.43442176870747	77	127
290.2834920634921	290.43442176870747	65	127
290.43442176870747	290.5621315192744	76	127
290.43442176870747	290.5621315192744	64	127
290.5621315192744	290.7130612244898	62	127
290.5621315192744	290.7130612244898	74	127
290.7130612244898	290.85238095238094	61	127
290.7130612244898	290.85238095238094	73	127
290.85238095238094	291.0497505668934	70	127
290.85238095238094	291.0497505668934	58	127
291.0613605442177	291.955306122449	65	127
291.0613605442177	291.955306122449	62	127
291.0613605442177	291.955306122449	57	127
291.0613605442177	291.955306122449	69	127
291.0613605442177	291.20068027210885	50	127
291.0613605442177	291.20068027210885	38	127
291.20068027210885	291.35160997732424	52	127
291.20068027210885	291.35160997732424	40	127
291.35160997732424	291.47931972789115	41	127
291.35160997732424	291.47931972789115	53	127
291.47931972789115	291.64183673469387	55	127
291.47931972789115	291.64183673469387	43	127
291.64183673469387	291.781179138322	45	127
291.64183673469387	291.781179138322	57	127
291.781179138322	291.9669387755102	59	127
291.781179138322	291.9669387755102	47	127
291.9669387755102	292.11786848072563	61	127
291.9669387755102	292.24557823129254	69	127
291.9669387755102	292.24557823129254	77	127
291.9669387755102	292.24557823129254	81	127
291.9669387755102	292.11786848072563	49	127
292.11786848072563	292.23396825396827	50	127
292.11786848072563	292.23396825396827	62	127
292.24557823129254	292.39650793650793	49	127
292.24557823129254	293.0931065759637	77	127
292.24557823129254	293.0931065759637	82	127
292.24557823129254	293.0931065759637	70	127
292.24557823129254	292.39650793650793	61	127
292.39650793650793	292.52421768707484	60	127
292.39650793650793	292.52421768707484	48	127
292.52421768707484	292.663514739229	58	127
292.52421768707484	292.663514739229	46	127
292.663514739229	292.8260770975057	56	127
292.663514739229	292.8260770975057	44	127
292.8260770975057	292.9769841269841	54	127
292.8260770975057	292.9769841269841	42	127
292.9769841269841	293.0931065759637	53	127
292.9769841269841	293.0931065759637	41	127
293.0931065759637	293.2324263038549	39	127
293.0931065759637	293.37174603174606	89	127
293.0931065759637	293.37174603174606	77	127
293.0931065759637	293.37174603174606	82	127
293.0931065759637	293.2324263038549	51	127
293.2324263038549	293.37174603174606	37	127
293.2324263038549	293.37174603174606	49	127
293.3833333333333	293.5110657596372	48	127
293.3833333333333	294.1263945578231	76	127
293.3833333333333	294.1263945578231	79	127
293.3833333333333	294.1263945578231	88	127
293.3833333333333	293.5110657596372	36	127
293.5110657596372	293.6271655328798	50	127
293.5110657596372	293.6271655328798	38	127
293.6271655328798	293.7548752834467	52	127
293.6271655328798	293.7548752834467	40	127
293.7548752834467	293.88258503401363	53	127
293.7548752834467	293.88258503401363	41	127
293.88258503401363	294.0102947845805	55	127
293.88258503401363	294.0102947845805	43	127
294.0102947845805	294.1380045351474	45	127
294.0102947845805	294.1380045351474	57	127
294.1380045351474	294.4514739229025	64	127
294.1380045351474	294.4514739229025	67	127
294.1380045351474	294.4514739229025	67	127
294.1380045351474	294.4514739229025	64	127
294.1380045351474	294.2657142857143	59	127
294.1380045351474	294.2657142857143	47	127
294.2657142857143	294.4398639455782	60	127
294.2657142857143	294.4398639455782	48	127
294.4514739229025	294.6256235827664	47	127
294.4514739229025	295.5428117913832	65	127
294.4514739229025	295.5428117913832	68	127
294.4514739229025	295.5428117913832	65	127
294.4514739229025	294.6256235827664	59	127
294.4514739229025	295.46154195011337	68	127
294.6256235827664	294.84621315192743	56	127
294.6256235827664	294.84621315192743	44	127
294.84621315192743	295.0203401360544	55	127
294.84621315192743	295.0203401360544	43	127
295.0203401360544	295.1712925170068	53	127
295.0203401360544	295.1712925170068	41	127
295.1712925170068	295.3338095238095	52	127
295.1712925170068	295.3338095238095	40	127
295.3338095238095	295.46154195011337	50	127
295.3338095238095	295.46154195011337	38	127
295.46154195011337	295.577641723356	36	127
295.46154195011337	295.7053514739229	74	127
295.46154195011337	295.577641723356	48	127
295.577641723356	295.7053514739229	43	127
295.577641723356	295.7053514739229	47	127
295.7169614512472	296.4948299319728	64	127
295.7169614512472	295.8446485260771	48	127
295.7169614512472	295.8446485260771	36	127
295.7169614512472	296.4948299319728	67	127
295.7169614512472	296.4948299319728	67	127
295.7169614512472	296.4948299319728	64	127
295.8446485260771	295.9839909297052	50	127
295.8446485260771	295.9839909297052	38	127
295.9839909297052	296.1233106575964	52	127
295.9839909297052	296.1233106575964	40	127
296.1233106575964	296.23941043083903	53	127
296.1233106575964	296.23941043083903	41	127
296.23941043083903	296.3671201814059	55	127
296.23941043083903	296.3671201814059	43	127
296.3671201814059	296.50643990929706	45	127
296.3671201814059	296.50643990929706	57	127
296.50643990929706	296.7618367346939	79	127
296.50643990929706	296.78507936507935	79	127
296.50643990929706	296.78507936507935	67	127
296.50643990929706	296.64575963718823	59	127
296.50643990929706	296.64575963718823	47	127
296.64575963718823	296.7618367346939	48	127
296.64575963718823	296.7618367346939	60	127
296.78507936507935	296.97083900226755	63	127
296.78507936507935	297.64421768707484	72	127
296.78507936507935	297.64421768707484	79	127
296.78507936507935	297.64421768707484	84	127
296.78507936507935	296.97083900226755	51	127
296.97083900226755	297.121768707483	62	127
296.97083900226755	297.121768707483	50	127
297.121768707483	297.2610884353742	60	127
297.121768707483	297.2610884353742	48	127
297.2610884353742	297.3771655328798	58	127
297.2610884353742	297.3771655328798	46	127
297.3771655328798	297.51650793650794	56	127
297.3771655328798	297.51650793650794	44	127
297.51650793650794	297.64421768707484	43	127
297.51650793650794	297.64421768707484	55	127
297.64421768707484	297.77192743764175	41	127
297.64421768707484	297.8996371882086	91	127
297.64421768707484	297.8996371882086	79	127
297.64421768707484	297.8996371882086	84	127
297.64421768707484	297.77192743764175	53	127
297.77192743764175	297.8996371882086	39	127
297.77192743764175	297.8996371882086	51	127
297.8996371882086	298.64267573696145	81	127
297.8996371882086	298.73555555555555	90	127
297.8996371882086	298.0273469387755	50	127
297.8996371882086	298.0273469387755	38	127
297.8996371882086	298.64267573696145	78	127
298.0273469387755	298.1550566893424	52	127
298.0273469387755	298.1550566893424	40	127
298.1550566893424	298.2827664399093	54	127
298.1550566893424	298.2827664399093	42	127
298.2827664399093	298.4104761904762	43	127
298.2827664399093	298.4104761904762	55	127
298.4104761904762	298.5265759637188	57	127
298.4104761904762	298.5265759637188	45	127
298.5265759637188	298.6542857142857	59	127
298.5265759637188	298.6542857142857	47	127
298.6542857142857	298.90968253968254	66	127
298.6542857142857	298.90968253968254	69	127
298.6542857142857	298.90968253968254	69	127
298.6542857142857	298.90968253968254	66	127
298.6542857142857	298.7819954648526	61	127
298.6542857142857	298.7819954648526	49	127
298.7819954648526	298.89809523809527	62	127
298.7819954648526	298.89809523809527	50	127
298.90968253968254	299.78045351473924	67	127
298.90968253968254	299.78045351473924	67	127
298.90968253968254	299.7107936507937	70	127
298.90968253968254	299.0606349206349	49	127
298.90968253968254	299.78045351473924	70	127
298.90968253968254	299.0606349206349	61	127
299.0606349206349	299.1999546485261	46	127
299.0606349206349	299.1999546485261	58	127
299.1999546485261	299.3392743764172	57	127
299.1999546485261	299.3392743764172	45	127
299.3392743764172	299.46698412698413	43	127
299.3392743764172	299.46698412698413	55	127
299.46698412698413	299.58308390022677	54	127
299.46698412698413	299.58308390022677	42	127
299.58308390022677	299.7107936507937	40	127
299.58308390022677	299.7107936507937	52	127
299.7107936507937	299.8268707482993	50	127
299.7107936507937	299.8268707482993	38	127
299.7107936507937	299.95460317460316	76	127
299.8268707482993	299.95460317460316	37	127
299.8268707482993	299.95460317460316	49	127
299.96621315192743	300.9878911564626	69	127
299.96621315192743	300.9762811791383	66	127
299.96621315192743	300.1055328798186	50	127
299.96621315192743	300.1055328798186	38	127
299.96621315192743	300.9762811791383	69	127
299.96621315192743	301.12721088435376	66	127
300.1055328798186	300.22163265306125	52	127
300.1055328798186	300.22163265306125	40	127
300.22163265306125	300.3493424036281	42	127
300.22163265306125	300.3493424036281	54	127
300.3493424036281	300.4886621315193	56	127
300.3493424036281	300.4886621315193	44	127
300.4886621315193	300.65120181405894	45	127
300.4886621315193	300.65120181405894	57	127
300.65120181405894	300.9878911564626	59	127
300.65120181405894	300.9878911564626	47	127
300.9878911564626	301.3013605442177	81	127
300.9878911564626	301.1736507936508	49	127
300.9878911564626	301.3013605442177	72	127
300.9878911564626	301.3013605442177	66	127
300.9878911564626	301.1736507936508	61	127
301.1736507936508	301.3013605442177	62	127
301.1736507936508	301.3013605442177	50	127
301.31297052154196	301.45229024943313	40	127
301.31297052154196	301.45229024943313	52	127
301.31297052154196	301.81219954648526	80	127
301.31297052154196	301.81219954648526	71	127
301.31297052154196	301.81219954648526	62	127
301.31297052154196	301.81219954648526	74	127
301.45229024943313	301.56836734693877	54	127
301.45229024943313	301.56836734693877	42	127
301.56836734693877	301.6960997732426	56	127
301.56836734693877	301.6960997732426	44	127
301.6960997732426	301.82380952380953	57	127
301.6960997732426	301.82380952380953	45	127
301.82380952380953	301.9863492063492	59	127
301.82380952380953	301.9863492063492	47	127
301.9863492063492	302.12566893424037	61	127
301.9863492063492	302.12566893424037	49	127
302.12566893424037	302.3346485260771	62	127
302.12566893424037	302.3346485260771	83	127
302.12566893424037	302.3346485260771	74	127
302.12566893424037	302.3346485260771	68	127
302.12566893424037	302.3346485260771	50	127
302.3346485260771	302.48555555555555	64	127
302.3346485260771	302.48555555555555	52	127
302.49718820861676	303.04285714285714	62	127
302.49718820861676	302.6481179138322	54	127
302.49718820861676	302.6481179138322	42	127
302.49718820861676	303.04285714285714	81	127
302.49718820861676	303.04285714285714	72	127
302.49718820861676	303.04285714285714	74	127
302.6481179138322	302.81065759637187	56	127
302.6481179138322	302.81065759637187	44	127
302.81065759637187	302.9267573696145	57	127
302.81065759637187	302.9267573696145	45	127
302.9267573696145	303.0544671201814	47	127
302.9267573696145	303.0544671201814	59	127
303.0544671201814	303.1937641723356	61	127
303.0544671201814	303.1937641723356	49	127
303.1937641723356	303.344716553288	62	127
303.1937641723356	303.344716553288	50	127
303.344716553288	303.4724263038549	69	127
303.344716553288	303.4724263038549	86	127
303.344716553288	303.4724263038549	78	127
303.344716553288	303.4724263038549	64	127
303.344716553288	303.4724263038549	52	127
303.4724263038549	303.5885260770975	66	127
303.4724263038549	303.5885260770975	54	127
303.6001360544218	304.1574149659864	62	127
303.6001360544218	303.72784580498865	56	127
303.6001360544218	303.72784580498865	44	127
303.6001360544218	304.1574149659864	83	127
303.6001360544218	304.1574149659864	74	127
303.6001360544218	304.1574149659864	76	127
303.72784580498865	303.89038548752836	45	127
303.72784580498865	303.89038548752836	57	127
303.89038548752836	304.01807256235827	59	127
303.89038548752836	304.01807256235827	47	127
304.01807256235827	304.16902494331066	49	127
304.01807256235827	304.16902494331066	61	127
304.16902494331066	304.3315646258503	62	127
304.16902494331066	304.3315646258503	50	127
304.3315646258503	304.48249433106577	64	127
304.3315646258503	304.48249433106577	52	127
304.48249433106577	304.62181405895694	54	127
304.48249433106577	304.62181405895694	71	127
304.48249433106577	304.62181405895694	66	127
304.48249433106577	304.62181405895694	88	127
304.48249433106577	304.62181405895694	76	127
304.62181405895694	304.7495238095238	56	127
304.62181405895694	304.7495238095238	68	127
304.76113378684806	304.9120634920635	57	127
304.76113378684806	304.9120634920635	45	127
304.76113378684806	305.2951927437642	89	127
304.76113378684806	305.2951927437642	81	127
304.76113378684806	305.2951927437642	62	127
304.76113378684806	305.2951927437642	74	127
304.9120634920635	305.05138321995463	59	127
304.9120634920635	305.05138321995463	47	127
305.05138321995463	305.1907029478458	61	127
305.05138321995463	305.1907029478458	49	127
305.1907029478458	305.30680272108845	62	127
305.1907029478458	305.30680272108845	50	127
305.30680272108845	305.550589569161	88	127
305.30680272108845	305.43451247165535	52	127
305.30680272108845	305.550589569161	79	127
305.30680272108845	305.43451247165535	64	127
305.43451247165535	305.5622222222222	65	127
305.43451247165535	305.5622222222222	53	127
305.5622222222222	305.80603174603175	81	127
305.5622222222222	305.6899319727891	67	127
305.5622222222222	305.6899319727891	55	127
305.5622222222222	305.80603174603175	89	127
305.6899319727891	305.80603174603175	69	127
305.6899319727891	305.80603174603175	57	127
305.80603174603175	306.35170068027213	64	127
305.80603174603175	305.8756916099773	88	127
305.80603174603175	305.8756916099773	79	127
305.80603174603175	305.93374149659866	45	127
305.80603174603175	306.06142857142856	57	127
305.80603174603175	306.35170068027213	70	127
305.8756916099773	305.93374149659866	81	127
305.8756916099773	305.93374149659866	89	127
305.93374149659866	306.35170068027213	73	127
305.93374149659866	306.0730612244898	47	127
305.93374149659866	306.35170068027213	91	127
305.93374149659866	306.35170068027213	82	127
306.0730612244898	306.2356009070295	49	127
306.2356009070295	306.35170068027213	50	127
306.35170068027213	306.5955102040816	89	127
306.35170068027213	306.5955102040816	69	127
306.35170068027213	306.5955102040816	81	127
306.35170068027213	306.479410430839	52	127
306.479410430839	306.6071201814059	53	127
306.6071201814059	306.7348299319728	55	127
306.6071201814059	306.85092970521544	88	127
306.6071201814059	306.85092970521544	79	127
306.6071201814059	306.85092970521544	67	127
306.7348299319728	306.85092970521544	57	127
306.8625396825397	307.3965759637188	65	127
306.8625396825397	307.79133786848075	38	127
306.8625396825397	307.0018594104308	86	127
306.8625396825397	307.0018594104308	77	127
306.8625396825397	307.11795918367346	50	127
306.8625396825397	307.11795918367346	57	127
307.0018594104308	307.3965759637188	74	127
307.0018594104308	307.12956916099773	85	127
307.0018594104308	307.3965759637188	65	127
307.12956916099773	307.2804988662132	86	127
307.2804988662132	307.40820861678003	82	127
307.40820861678003	307.5591383219955	81	127
307.5591383219955	307.69843537414965	79	127
307.69843537414965	307.8377777777778	77	127
307.8377777777778	307.9538775510204	76	127
307.9654875283447	308.10478458049886	74	127
307.9654875283447	308.10478458049886	62	127
307.9654875283447	308.25573696145125	45	127
307.9654875283447	308.5459863945578	74	127
307.9654875283447	308.5459863945578	53	127
308.10478458049886	308.2673469387755	61	127
308.10478458049886	308.2673469387755	73	127
308.10478458049886	308.5459863945578	62	127
308.2673469387755	308.3950566893424	74	127
308.2673469387755	308.3950566893424	62	127
308.3950566893424	308.5575963718821	70	127
308.3950566893424	308.5575963718821	58	127
308.5575963718821	308.70852607709753	57	127
308.5575963718821	308.70852607709753	69	127
308.70852607709753	308.84784580498865	67	127
308.70852607709753	308.84784580498865	55	127
308.84784580498865	309.0452154195011	65	127
308.84784580498865	309.0452154195011	53	127
309.0452154195011	309.172925170068	52	127
309.0452154195011	309.172925170068	64	127
309.1845351473923	310.14814058956915	57	127
309.1845351473923	310.14814058956915	65	127
309.1845351473923	309.3122448979592	50	127
309.1845351473923	309.3122448979592	38	127
309.1845351473923	310.14814058956915	62	127
309.1845351473923	310.14814058956915	69	127
309.3122448979592	309.5560544217687	40	127
309.3122448979592	309.5560544217687	52	127
309.5560544217687	309.7185941043084	53	127
309.5560544217687	309.7185941043084	41	127
309.7185941043084	309.85791383219953	43	127
309.7185941043084	309.85791383219953	55	127
309.85791383219953	310.0320634920635	57	127
309.85791383219953	310.0320634920635	45	127
310.0320634920635	310.15977324263037	59	127
310.0320634920635	310.15977324263037	47	127
310.15977324263037	310.3107029478458	61	127
310.15977324263037	310.450022675737	81	127
310.15977324263037	310.450022675737	77	127
310.15977324263037	310.450022675737	69	127
310.15977324263037	310.3107029478458	49	127
310.3107029478458	310.4384126984127	62	127
310.3107029478458	310.4384126984127	50	127
310.450022675737	311.3091609977324	82	127
310.450022675737	311.3091609977324	70	127
310.450022675737	310.5893424036281	61	127
310.450022675737	310.5893424036281	49	127
310.450022675737	311.3091609977324	77	127
310.5893424036281	310.70544217687075	60	127
310.5893424036281	310.70544217687075	48	127
310.70544217687075	310.8563718820862	58	127
310.70544217687075	310.8563718820862	46	127
310.8563718820862	310.9956916099773	56	127
310.8563718820862	310.9956916099773	44	127
310.9956916099773	311.1234013605442	42	127
310.9956916099773	311.1234013605442	54	127
311.1234013605442	311.3091609977324	41	127
311.1234013605442	311.3091609977324	53	127
311.3091609977324	311.56458049886623	82	127
311.3091609977324	311.56458049886623	77	127
311.3091609977324	311.4368707482993	39	127
311.3091609977324	311.56458049886623	89	127
311.3091609977324	311.4368707482993	51	127
311.4368707482993	311.56458049886623	49	127
311.4368707482993	311.56458049886623	37	127
311.5761904761905	311.73873015873016	48	127
311.5761904761905	311.73873015873016	36	127
311.5761904761905	312.34244897959184	88	127
311.5761904761905	312.34244897959184	79	127
311.5761904761905	312.34244897959184	76	127
311.73873015873016	311.8548299319728	50	127
311.73873015873016	311.8548299319728	38	127
311.8548299319728	311.9825396825397	40	127
311.8548299319728	311.9825396825397	52	127
311.9825396825397	312.11024943310656	41	127
311.9825396825397	312.11024943310656	53	127
312.11024943310656	312.23795918367347	55	127
312.11024943310656	312.23795918367347	43	127
312.23795918367347	312.3540589569161	57	127
312.23795918367347	312.3540589569161	45	127
312.3540589569161	312.6094557823129	64	127
312.3540589569161	312.6094557823129	67	127
312.3540589569161	312.6094557823129	64	127
312.3540589569161	312.6094557823129	67	127
312.3540589569161	312.47015873015874	59	127
312.3540589569161	312.47015873015874	47	127
312.47015873015874	312.59786848072565	60	127
312.47015873015874	312.59786848072565	48	127
312.6094557823129	313.4918367346939	65	127
312.6094557823129	313.41056689342406	68	127
312.6094557823129	312.7720181405896	59	127
312.6094557823129	312.7720181405896	47	127
312.6094557823129	313.4918367346939	68	127
312.6094557823129	313.4918367346939	65	127
312.7720181405896	312.8997278911565	56	127
312.7720181405896	312.8997278911565	44	127
312.8997278911565	313.0390476190476	43	127
312.8997278911565	313.0390476190476	55	127
313.0390476190476	313.1667573696145	41	127
313.0390476190476	313.1667573696145	53	127
313.1667573696145	313.28285714285715	40	127
313.1667573696145	313.28285714285715	52	127
313.28285714285715	313.41056689342406	50	127
313.28285714285715	313.41056689342406	38	127
313.41056689342406	313.5266439909297	36	127
313.41056689342406	313.5266439909297	48	127
313.41056689342406	313.6775963718821	74	127
313.5266439909297	313.6775963718821	43	127
313.5266439909297	313.6775963718821	47	127
313.68920634920636	314.59478458049887	67	127
313.68920634920636	314.59478458049887	64	127
313.68920634920636	313.81691609977327	48	127
313.68920634920636	313.81691609977327	36	127
313.68920634920636	314.59478458049887	64	127
313.68920634920636	314.59478458049887	67	127
313.81691609977327	313.9562358276644	38	127
313.81691609977327	313.9562358276644	50	127
313.9562358276644	314.0839455782313	52	127
313.9562358276644	314.0839455782313	40	127
314.0839455782313	314.2116553287982	41	127
314.0839455782313	314.2116553287982	53	127
314.2116553287982	314.3625850340136	55	127
314.2116553287982	314.3625850340136	43	127
314.3625850340136	314.60639455782314	45	127
314.3625850340136	314.60639455782314	57	127
314.60639455782314	314.87342403628116	79	127
314.60639455782314	314.88503401360543	67	127
314.60639455782314	314.88503401360543	79	127
314.60639455782314	314.7573015873016	59	127
314.60639455782314	314.7573015873016	47	127
314.7573015873016	314.87342403628116	48	127
314.7573015873016	314.87342403628116	60	127
314.88503401360543	315.87185941043083	84	127
314.88503401360543	315.01274376417234	63	127
314.88503401360543	315.01274376417234	51	127
314.88503401360543	315.87185941043083	79	127
314.88503401360543	315.87185941043083	72	127
315.01274376417234	315.18689342403627	50	127
315.01274376417234	315.18689342403627	62	127
315.18689342403627	315.3146031746032	48	127
315.18689342403627	315.3146031746032	60	127
315.3146031746032	315.47714285714284	46	127
315.3146031746032	315.47714285714284	58	127
315.47714285714284	315.7441723356009	56	127
315.47714285714284	315.7441723356009	44	127
315.7441723356009	315.87185941043083	43	127
315.7441723356009	315.87185941043083	55	127
315.87185941043083	316.1505215419501	91	127
315.87185941043083	316.1505215419501	79	127
315.87185941043083	316.0228117913832	41	127
315.87185941043083	316.1505215419501	84	127
315.87185941043083	316.0228117913832	53	127
316.0228117913832	316.1505215419501	39	127
316.0228117913832	316.1505215419501	51	127
316.1505215419501	316.27823129251703	50	127
316.1505215419501	316.9864399092971	90	127
316.1505215419501	316.893537414966	78	127
316.1505215419501	316.893537414966	81	127
316.1505215419501	316.27823129251703	38	127
316.27823129251703	316.4059410430839	52	127
316.27823129251703	316.4059410430839	40	127
316.4059410430839	316.5336507936508	54	127
316.4059410430839	316.5336507936508	42	127
316.5336507936508	316.64975056689343	55	127
316.5336507936508	316.64975056689343	43	127
316.64975056689343	316.77746031746034	57	127
316.64975056689343	316.77746031746034	45	127
316.77746031746034	316.90514739229025	47	127
316.77746031746034	316.90514739229025	59	127
316.90514739229025	317.04448979591837	61	127
316.90514739229025	317.04448979591837	49	127
316.90514739229025	317.1721995464853	66	127
316.90514739229025	317.1721995464853	69	127
316.90514739229025	317.1721995464853	69	127
316.90514739229025	317.1721995464853	66	127
317.04448979591837	317.160589569161	62	127
317.04448979591837	317.160589569161	50	127
317.1721995464853	318.1706575963719	67	127
317.1721995464853	318.1706575963719	67	127
317.1721995464853	318.1706575963719	70	127
317.1721995464853	318.08938775510205	70	127
317.1721995464853	317.3927891156463	61	127
317.1721995464853	317.3927891156463	49	127
317.3927891156463	317.5785487528345	58	127
317.3927891156463	317.5785487528345	46	127
317.5785487528345	317.71784580498866	57	127
317.5785487528345	317.71784580498866	45	127
317.71784580498866	317.8455782312925	43	127
317.71784580498866	317.8455782312925	55	127
317.8455782312925	317.96167800453514	42	127
317.8455782312925	317.96167800453514	54	127
317.96167800453514	318.08938775510205	52	127
317.96167800453514	318.08938775510205	40	127
318.08938775510205	318.36802721088435	76	127
318.08938775510205	318.24031746031744	50	127
318.08938775510205	318.24031746031744	38	127
318.24031746031744	318.36802721088435	49	127
318.24031746031744	318.36802721088435	37	127
318.40285714285716	318.5189569160998	38	127
318.40285714285716	319.21555555555557	66	127
318.40285714285716	319.30843537414967	66	127
318.40285714285716	319.22716553287984	69	127
318.40285714285716	319.21555555555557	69	127
318.40285714285716	318.5189569160998	50	127
318.5189569160998	318.64666666666665	52	127
318.5189569160998	318.64666666666665	40	127
318.64666666666665	318.77437641723355	54	127
318.64666666666665	318.77437641723355	42	127
318.77437641723355	318.91369614512473	56	127
318.77437641723355	318.91369614512473	44	127
318.91369614512473	319.0646258503401	45	127
318.91369614512473	319.0646258503401	57	127
319.0646258503401	319.22716553287984	59	127
319.0646258503401	319.22716553287984	47	127
319.22716553287984	319.5174149659864	66	127
319.22716553287984	319.3780952380952	61	127
319.22716553287984	319.3780952380952	49	127
319.22716553287984	319.5174149659864	81	127
319.22716553287984	319.5174149659864	72	127
319.3780952380952	319.5174149659864	50	127
319.3780952380952	319.5174149659864	62	127
319.5290249433107	320.0514739229025	62	127
319.5290249433107	320.0514739229025	80	127
319.5290249433107	319.67995464852606	52	127
319.5290249433107	319.67995464852606	40	127
319.5290249433107	320.0514739229025	74	127
319.5290249433107	320.0514739229025	71	127
319.67995464852606	319.7960544217687	54	127
319.67995464852606	319.7960544217687	42	127
319.7960544217687	319.9353741496599	44	127
319.7960544217687	319.9353741496599	56	127
319.9353741496599	320.0630612244898	57	127
319.9353741496599	320.0630612244898	45	127
320.0630612244898	320.2372335600907	59	127
320.0630612244898	320.2372335600907	47	127
320.2372335600907	320.35333333333335	49	127
320.2372335600907	320.35333333333335	61	127
320.35333333333335	320.48102040816326	50	127
320.35333333333335	320.48102040816326	68	127
320.35333333333335	320.48102040816326	62	127
320.35333333333335	320.48102040816326	83	127
320.35333333333335	320.48102040816326	74	127
320.48102040816326	320.59714285714284	64	127
320.48102040816326	320.59714285714284	52	127
320.6087528344671	321.13120181405895	81	127
320.6087528344671	320.736462585034	54	127
320.6087528344671	320.736462585034	42	127
320.6087528344671	321.13120181405895	72	127
320.6087528344671	321.13120181405895	62	127
320.6087528344671	321.13120181405895	74	127
320.736462585034	320.85256235827666	56	127
320.736462585034	320.85256235827666	44	127
320.85256235827666	321.00349206349205	57	127
320.85256235827666	321.00349206349205	45	127
321.00349206349205	321.1428117913832	59	127
321.00349206349205	321.1428117913832	47	127
321.1428117913832	321.2821315192744	61	127
321.1428117913832	321.2821315192744	49	127
321.2821315192744	321.40984126984125	62	127
321.2821315192744	321.40984126984125	50	127
321.40984126984125	321.53755102040816	69	127
321.40984126984125	321.53755102040816	64	127
321.40984126984125	321.53755102040816	52	127
321.40984126984125	321.53755102040816	86	127
321.40984126984125	321.53755102040816	78	127
321.53755102040816	321.6536507936508	66	127
321.53755102040816	321.6536507936508	54	127
321.66526077097507	322.1993197278912	83	127
321.66526077097507	321.8278004535147	56	127
321.66526077097507	321.8278004535147	44	127
321.66526077097507	322.1993197278912	76	127
321.66526077097507	322.1993197278912	62	127
321.66526077097507	322.1993197278912	74	127
321.8278004535147	321.95551020408163	57	127
321.8278004535147	321.95551020408163	45	127
321.95551020408163	322.06	59	127
321.95551020408163	322.06	47	127
322.06	322.21090702947845	49	127
322.06	322.21090702947845	61	127
322.21090702947845	322.35024943310657	62	127
322.21090702947845	322.35024943310657	50	127
322.35024943310657	322.5127891156463	64	127
322.35024943310657	322.5127891156463	52	127
322.5127891156463	322.64049886621314	54	127
322.5127891156463	322.64049886621314	71	127
322.5127891156463	322.64049886621314	66	127
322.5127891156463	322.64049886621314	88	127
322.5127891156463	322.64049886621314	76	127
322.64049886621314	322.7798185941043	68	127
322.64049886621314	322.7798185941043	56	127
322.7914285714286	323.30226757369616	62	127
322.7914285714286	322.9191383219955	57	127
322.7914285714286	322.9191383219955	45	127
322.7914285714286	323.30226757369616	89	127
322.7914285714286	323.30226757369616	81	127
322.7914285714286	323.30226757369616	74	127
322.9191383219955	323.0584580498866	59	127
322.9191383219955	323.0584580498866	47	127
323.0584580498866	323.1977777777778	61	127
323.0584580498866	323.1977777777778	49	127
323.1977777777778	323.3138775510204	62	127
323.1977777777778	323.3138775510204	50	127
323.3138775510204	323.5692970521542	88	127
323.3138775510204	323.44156462585033	64	127
323.3138775510204	323.44156462585033	52	127
323.3138775510204	323.5692970521542	79	127
323.44156462585033	323.58090702947845	65	127
323.44156462585033	323.58090702947845	53	127
323.58090702947845	323.84791383219954	89	127
323.58090702947845	323.72022675736963	55	127
323.58090702947845	323.84791383219954	81	127
323.58090702947845	323.72022675736963	67	127
323.72022675736963	323.84791383219954	57	127
323.72022675736963	323.84791383219954	69	127
323.85954648526075	324.40521541950113	70	127
323.85954648526075	324.40521541950113	64	127
323.85954648526075	323.94081632653064	88	127
323.85954648526075	323.94081632653064	79	127
323.85954648526075	323.9988662131519	45	127
323.85954648526075	324.12657596371884	57	127
323.94081632653064	323.9988662131519	81	127
323.94081632653064	323.9988662131519	89	127
323.9988662131519	324.40521541950113	73	127
323.9988662131519	324.40521541950113	82	127
323.9988662131519	324.40521541950113	91	127
323.9988662131519	324.1381859410431	47	127
324.1381859410431	324.2775056689342	49	127
324.2775056689342	324.40521541950113	50	127
324.40521541950113	324.6490249433107	89	127
324.40521541950113	324.6490249433107	69	127
324.40521541950113	324.6490249433107	81	127
324.40521541950113	324.53292517006804	52	127
324.53292517006804	324.66063492063495	53	127
324.66063492063495	324.79995464852607	55	127
324.66063492063495	324.9624943310658	67	127
324.66063492063495	324.9624943310658	79	127
324.66063492063495	324.9624943310658	88	127
324.79995464852607	324.9624943310658	57	127
324.9624943310658	325.2643537414966	57	127
324.9624943310658	325.2643537414966	50	127
324.9624943310658	325.1366439909297	86	127
324.9624943310658	325.56621315192746	65	127
324.9624943310658	326.0073922902494	38	127
324.9624943310658	325.1366439909297	77	127
325.1366439909297	325.56621315192746	65	127
325.1366439909297	325.2759637188209	85	127
325.1366439909297	325.56621315192746	74	127
325.2759637188209	325.4268934240363	86	127
325.4268934240363	325.5778231292517	82	127
325.5778231292517	325.7403628117914	81	127
325.7403628117914	325.89126984126983	79	127
325.89126984126983	326.0422222222222	77	127
326.0422222222222	326.16993197278913	76	127
326.1815419501134	326.3208616780045	62	127
326.1815419501134	326.8317006802721	53	127
326.1815419501134	326.8317006802721	74	127
326.1815419501134	326.3208616780045	74	127
326.1815419501134	326.48340136054424	45	127
326.3208616780045	326.8317006802721	62	127
326.3208616780045	326.4950113378685	73	127
326.3208616780045	326.4950113378685	61	127
326.4950113378685	326.70399092970524	74	127
326.4950113378685	326.70399092970524	62	127
326.70399092970524	326.84331065759636	58	127
326.70399092970524	326.84331065759636	70	127
326.84331065759636	326.9942403628118	69	127
326.84331065759636	326.9942403628118	57	127
326.9942403628118	327.1451700680272	55	127
326.9942403628118	327.1451700680272	67	127
327.1451700680272	327.34253968253967	65	127
327.1451700680272	327.34253968253967	53	127
327.34253968253967	327.48185941043084	64	127
327.34253968253967	327.48185941043084	52	127
327.4934693877551	328.57319727891155	62	127
327.4934693877551	328.1204081632653	62	127
327.4934693877551	328.1204081632653	50	127
327.4934693877551	328.57319727891155	62	127
327.4934693877551	328.57319727891155	38	127
328.1204081632653	328.9098866213152	61	127
328.1204081632653	328.9098866213152	49	127
328.9098866213152	330.0708843537415	66	127
328.9098866213152	330.0708843537415	38	127
328.9098866213152	329.6297052154195	59	127
328.9098866213152	330.0708843537415	66	127
328.9098866213152	329.6297052154195	47	127
329.6297052154195	330.2566439909297	45	127
329.6297052154195	330.2566439909297	57	127
330.268253968254	330.83714285714285	52	127
330.268253968254	331.2551020408163	37	127
330.268253968254	331.97492063492064	67	127
330.268253968254	331.97492063492064	67	127
330.268253968254	330.83714285714285	64	127
330.83714285714285	331.46408163265306	49	127
330.83714285714285	331.46408163265306	61	127
331.46408163265306	332.63668934240366	37	127
331.46408163265306	332.2071201814059	59	127
331.46408163265306	332.2071201814059	47	127
332.2071201814059	332.82244897959185	67	127
332.2071201814059	332.82244897959185	67	127
332.2071201814059	332.82244897959185	45	127
332.2071201814059	332.82244897959185	57	127
332.8340589569161	333.94861678004537	66	127
332.8340589569161	333.94861678004537	38	127
332.8340589569161	333.5190476190476	54	127
332.8340589569161	333.94861678004537	66	127
332.8340589569161	333.5190476190476	66	127
333.5190476190476	334.1227664399093	62	127
333.5190476190476	334.1227664399093	50	127
334.1227664399093	335.10961451247164	69	127
334.1227664399093	334.68004535147395	61	127
334.1227664399093	334.68004535147395	49	127
334.1227664399093	335.10961451247164	69	127
334.1227664399093	335.10961451247164	38	127
334.68004535147395	335.2837641723356	48	127
334.68004535147395	335.2837641723356	60	127
335.2953741496599	336.95560090702946	71	127
335.2953741496599	336.3518820861678	43	127
335.2953741496599	336.95560090702946	71	127
335.2953741496599	335.92231292517005	59	127
335.2953741496599	335.92231292517005	47	127
335.92231292517005	336.54925170068026	50	127
335.92231292517005	336.54925170068026	62	127
336.54925170068026	337.62897959183675	43	127
336.54925170068026	337.18780045351474	67	127
336.54925170068026	337.18780045351474	55	127
337.18780045351474	337.8263492063492	54	127
337.18780045351474	337.8263492063492	69	127
337.18780045351474	337.8263492063492	69	127
337.18780045351474	337.8263492063492	66	127
337.8379591836735	338.8015873015873	67	127
337.8379591836735	338.4300680272109	64	127
337.8379591836735	338.4300680272109	52	127
337.8379591836735	338.8015873015873	49	127
337.8379591836735	338.8015873015873	67	127
338.4300680272109	339.010566893424	54	127
338.4300680272109	339.010566893424	66	127
339.010566893424	339.95097505668934	67	127
339.010566893424	339.95097505668934	47	127
339.010566893424	339.95097505668934	67	127
339.010566893424	339.54462585034014	64	127
339.010566893424	339.54462585034014	52	127
339.54462585034014	340.11349206349206	62	127
339.54462585034014	340.11349206349206	50	127
340.1251247165533	341.657641723356	67	127
340.1251247165533	340.71721088435373	61	127
340.1251247165533	340.71721088435373	49	127
340.1251247165533	341.11197278911567	45	127
340.1251247165533	341.657641723356	67	127
340.71721088435373	341.29773242630387	62	127
340.71721088435373	341.29773242630387	50	127
341.29773242630387	341.86662131519273	49	127
341.29773242630387	341.86662131519273	61	127
341.29773242630387	342.27297052154194	43	127
341.657641723356	341.9711111111111	66	127
341.657641723356	341.9711111111111	66	127
341.86662131519273	342.4239002267574	47	127
341.86662131519273	342.4239002267574	59	127
342.0639909297052	342.27297052154194	64	127
342.0639909297052	342.27297052154194	64	127
342.4471201814059	343.5036281179138	62	127
342.4471201814059	343.1437188208617	45	127
342.4471201814059	343.5036281179138	62	127
342.4471201814059	343.5036281179138	42	127
342.4471201814059	343.1437188208617	57	127
343.1437188208617	343.7358276643991	47	127
343.1437188208617	343.7358276643991	59	127
343.1437188208617	343.7358276643991	59	127
343.7358276643991	344.06090702947847	62	127
343.7358276643991	344.35115646258504	45	127
343.7358276643991	344.35115646258504	57	127
343.7358276643991	344.35115646258504	57	127
343.7358276643991	344.06090702947847	62	127
343.7358276643991	344.33954648526077	41	127
344.06090702947847	344.1770068027211	64	127
344.06090702947847	344.1770068027211	64	127
344.1770068027211	344.2698866213152	62	127
344.1770068027211	344.2698866213152	62	127
344.2698866213152	344.35115646258504	61	127
344.2698866213152	344.35115646258504	61	127
344.35115646258504	344.6878458049887	62	127
344.35115646258504	344.6878458049887	62	127
344.35115646258504	344.94326530612244	59	127
344.35115646258504	344.94326530612244	47	127
344.35115646258504	344.94326530612244	40	127
344.35115646258504	344.9548752834467	56	127
344.6878458049887	344.94326530612244	64	127
344.6878458049887	344.94326530612244	64	127
344.9548752834467	345.70952380952383	61	127
344.9548752834467	346.2784126984127	64	127
344.9548752834467	346.2784126984127	64	127
344.9548752834467	346.0926530612245	45	127
344.9548752834467	345.70952380952383	57	127
344.9548752834467	345.70952380952383	49	127
345.70952380952383	346.2784126984127	59	127
345.70952380952383	346.2784126984127	56	127
345.70952380952383	346.2784126984127	47	127
346.2784126984127	347.02145124716554	57	127
346.2784126984127	347.0446712018141	57	127
346.2784126984127	347.0446712018141	45	127
346.2784126984127	347.439410430839	45	127
346.2784126984127	347.02145124716554	57	127
347.0446712018141	347.6251700680272	69	127
347.0446712018141	347.6251700680272	57	127
347.0446712018141	347.6251700680272	49	127
347.0446712018141	347.6251700680272	55	127
347.0446712018141	347.6251700680272	57	127
347.6367800453515	348.7165079365079	62	127
347.6367800453515	348.7165079365079	38	127
347.6367800453515	348.7165079365079	74	127
347.6367800453515	348.7165079365079	54	127
347.6367800453515	348.29854875283445	62	127
347.6367800453515	348.29854875283445	50	127
348.29854875283445	348.9022448979592	49	127
348.29854875283445	348.9022448979592	61	127
348.9022448979592	349.56403628117914	47	127
348.9022448979592	349.93555555555554	38	127
348.9022448979592	349.93555555555554	66	127
348.9022448979592	349.93555555555554	78	127
348.9022448979592	349.56403628117914	59	127
349.56403628117914	350.15614512471655	45	127
349.56403628117914	350.15614512471655	57	127
350.1677551020408	351.92086167800454	67	127
350.1677551020408	350.81791383219957	64	127
350.1677551020408	350.81791383219957	52	127
350.1677551020408	351.18943310657596	37	127
350.1677551020408	351.92086167800454	79	127
350.81791383219957	351.45643990929705	49	127
350.81791383219957	351.45643990929705	61	127
351.45643990929705	352.10662131519274	59	127
351.45643990929705	352.10662131519274	47	127
351.45643990929705	352.5361904761905	37	127
352.10662131519274	352.73356009070295	45	127
352.10662131519274	352.73356009070295	57	127
352.10662131519274	352.73356009070295	79	127
352.10662131519274	352.73356009070295	67	127
352.7451700680272	353.85972789115647	78	127
352.7451700680272	353.85972789115647	38	127
352.7451700680272	353.41854875283445	54	127
352.7451700680272	353.85972789115647	66	127
352.7451700680272	353.41854875283445	66	127
353.41854875283445	354.0687074829932	62	127
353.41854875283445	354.0687074829932	50	127
354.0687074829932	355.22970521541953	81	127
354.0687074829932	355.22970521541953	38	127
354.0687074829932	354.6724263038549	49	127
354.0687074829932	355.22970521541953	69	127
354.0687074829932	354.6724263038549	61	127
354.6724263038549	355.4154648526077	60	127
354.6724263038549	355.4154648526077	48	127
355.427074829932	357.00603174603174	71	127
355.427074829932	355.9727437641723	47	127
355.427074829932	355.9727437641723	59	127
355.427074829932	356.41392290249433	43	127
355.427074829932	357.00603174603174	83	127
355.9727437641723	356.63451247165534	62	127
355.9727437641723	356.63451247165534	50	127
356.63451247165534	357.22662131519274	67	127
356.63451247165534	357.22662131519274	55	127
356.63451247165534	357.5865079365079	43	127
357.22662131519274	357.8303401360544	69	127
357.22662131519274	357.8303401360544	81	127
357.22662131519274	357.8303401360544	66	127
357.22662131519274	357.8303401360544	54	127
357.8419501133787	358.44566893424036	64	127
357.8419501133787	358.9797278911565	49	127
357.8419501133787	358.9797278911565	67	127
357.8419501133787	358.9797278911565	79	127
357.8419501133787	358.44566893424036	52	127
358.44566893424036	359.21192743764175	54	127
358.44566893424036	359.21192743764175	66	127
359.21192743764175	359.7808163265306	64	127
359.21192743764175	359.7808163265306	52	127
359.21192743764175	360.2336054421769	79	127
359.21192743764175	360.2336054421769	67	127
359.21192743764175	360.2336054421769	47	127
359.7808163265306	360.4193650793651	62	127
359.7808163265306	360.4193650793651	50	127
360.43097505668936	362.1492517006803	79	127
360.43097505668936	361.6035827664399	45	127
360.43097505668936	361.1507936507937	49	127
360.43097505668936	361.1507936507937	61	127
360.43097505668936	362.1492517006803	67	127
361.1507936507937	361.7777097505669	62	127
361.1507936507937	361.7777097505669	50	127
361.7777097505669	362.88068027210886	43	127
361.7777097505669	362.3350113378685	61	127
361.7777097505669	362.3350113378685	49	127
362.16086167800455	362.5904308390023	78	127
362.16086167800455	362.5904308390023	66	127
362.3350113378685	363.06643990929706	59	127
362.3350113378685	363.06643990929706	47	127
362.6833106575964	362.88068027210886	76	127
362.6833106575964	362.88068027210886	64	127
363.07804988662133	364.15777777777777	74	127
363.07804988662133	363.65854875283446	57	127
363.07804988662133	363.65854875283446	45	127
363.07804988662133	364.15777777777777	62	127
363.07804988662133	364.15777777777777	42	127
363.65854875283446	364.3667573696145	47	127
363.65854875283446	364.3667573696145	59	127
363.65854875283446	364.3667573696145	71	127
364.3667573696145	364.70344671201815	74	127
364.3667573696145	364.70344671201815	62	127
364.3667573696145	364.9936961451247	57	127
364.3667573696145	364.9936961451247	69	127
364.3667573696145	364.9936961451247	45	127
364.3667573696145	364.98208616780045	41	127
364.70344671201815	364.79632653061225	64	127
364.70344671201815	364.79632653061225	76	127
364.79632653061225	364.9008163265306	74	127
364.79632653061225	364.9008163265306	62	127
364.9008163265306	364.9936961451247	61	127
364.9008163265306	364.9936961451247	73	127
364.9936961451247	365.56256235827664	59	127
364.9936961451247	365.57419501133785	68	127
364.9936961451247	365.56256235827664	40	127
364.9936961451247	365.56256235827664	47	127
364.9936961451247	365.2839455782313	74	127
364.9936961451247	365.2839455782313	62	127
365.2839455782313	365.56256235827664	76	127
365.2839455782313	365.56256235827664	64	127
365.57419501133785	366.78163265306125	64	127
365.57419501133785	366.14308390022677	49	127
365.57419501133785	366.14308390022677	61	127
365.57419501133785	366.14308390022677	69	127
365.57419501133785	366.595873015873	45	127
365.57419501133785	366.78163265306125	76	127
366.14308390022677	366.78163265306125	68	127
366.14308390022677	366.78163265306125	47	127
366.14308390022677	366.78163265306125	59	127
366.78163265306125	367.51303854875283	57	127
366.78163265306125	367.52467120181404	69	127
366.78163265306125	367.93102040816325	57	127
366.78163265306125	367.52467120181404	45	127
366.78163265306125	367.93102040816325	45	127
366.78163265306125	367.51303854875283	69	127
367.52467120181404	368.1167573696145	69	127
367.52467120181404	368.1167573696145	55	127
367.52467120181404	368.1167573696145	67	127
368.1283900226757	369.19650793650794	38	127
368.1283900226757	369.19650793650794	57	127
368.1283900226757	369.19650793650794	69	127
368.1283900226757	368.75532879818593	66	127
368.1283900226757	368.75532879818593	54	127
368.75532879818593	369.38226757369614	55	127
368.75532879818593	369.38226757369614	67	127
369.38226757369614	370.45038548752837	38	127
369.38226757369614	370.45038548752837	59	127
369.38226757369614	370.45038548752837	71	127
369.38226757369614	370.0324263038549	66	127
369.38226757369614	370.0324263038549	54	127
370.0324263038549	370.6245351473923	53	127
370.0324263038549	370.6245351473923	65	127
370.6245351473923	372.21507936507936	60	127
370.6245351473923	372.21507936507936	72	127
370.6245351473923	371.22825396825397	64	127
370.6245351473923	371.22825396825397	52	127
370.6245351473923	371.68104308390025	36	127
371.22825396825397	371.86680272108845	62	127
371.22825396825397	371.86680272108845	50	127
371.86680272108845	372.42408163265304	64	127
371.86680272108845	372.86526077097506	36	127
371.86680272108845	372.42408163265304	52	127
372.42408163265304	373.17873015873016	72	127
372.42408163265304	373.17873015873016	48	127
372.42408163265304	373.17873015873016	60	127
372.42408163265304	373.17873015873016	60	127
373.21356009070297	374.1539455782313	60	127
373.21356009070297	373.78244897959183	69	127
373.21356009070297	373.78244897959183	57	127
373.21356009070297	374.1539455782313	72	127
373.21356009070297	374.1539455782313	41	127
373.78244897959183	374.362925170068	70	127
373.78244897959183	374.362925170068	58	127
374.362925170068	375.46589569161	39	127
374.362925170068	375.46589569161	61	127
374.362925170068	375.46589569161	73	127
374.362925170068	375.024716553288	69	127
374.362925170068	375.024716553288	57	127
375.024716553288	375.6516553287982	55	127
375.024716553288	375.6516553287982	67	127
375.6516553287982	377.2538321995465	62	127
375.6516553287982	377.2538321995465	74	127
375.6516553287982	376.2785941043084	66	127
375.6516553287982	376.2785941043084	54	127
375.6516553287982	376.67333333333335	38	127
376.2785941043084	376.85909297052154	64	127
376.2785941043084	376.85909297052154	52	127
376.85909297052154	377.497641723356	66	127
376.85909297052154	377.92721088435377	38	127
376.85909297052154	377.497641723356	54	127
377.497641723356	378.1361678004535	74	127
377.497641723356	378.1361678004535	62	127
377.497641723356	378.1361678004535	60	127
377.497641723356	378.1361678004535	48	127
378.1478004535147	378.71668934240364	47	127
378.1478004535147	379.0998185941043	74	127
378.1478004535147	379.0998185941043	43	127
378.1478004535147	378.71668934240364	59	127
378.1478004535147	379.0998185941043	62	127
378.71668934240364	379.3784580498866	48	127
378.71668934240364	379.3784580498866	60	127
379.3784580498866	380.3304761904762	42	127
379.3784580498866	380.3304761904762	63	127
379.3784580498866	380.3304761904762	75	127
379.3784580498866	379.9589569160998	59	127
379.3784580498866	379.9589569160998	47	127
379.9589569160998	380.5510657596372	48	127
379.9589569160998	380.5510657596372	60	127
380.5510657596372	381.6424036281179	76	127
380.5510657596372	381.13156462585033	47	127
380.5510657596372	381.6424036281179	64	127
380.5510657596372	381.13156462585033	59	127
380.5510657596372	381.6424036281179	43	127
381.13156462585033	381.8397732426304	61	127
381.13156462585033	381.8397732426304	49	127
381.8397732426304	382.8614512471655	44	127
381.8397732426304	382.4667120181406	59	127
381.8397732426304	382.4667120181406	47	127
381.8397732426304	382.8614512471655	65	127
381.8397732426304	382.8614512471655	77	127
382.4667120181406	383.0936507936508	49	127
382.4667120181406	383.0936507936508	61	127
383.10526077097506	383.7786394557823	62	127
383.10526077097506	383.7786394557823	50	127
383.10526077097506	383.7786394557823	66	127
383.10526077097506	383.7786394557823	78	127
383.10526077097506	384.1849886621315	45	127
383.7786394557823	384.3707482993197	74	127
383.7786394557823	384.38235827664397	54	127
383.7786394557823	384.3707482993197	62	127
383.7786394557823	384.38235827664397	66	127
384.38235827664397	385.05573696145126	57	127
384.38235827664397	385.05573696145126	69	127
384.38235827664397	384.6958276643991	61	127
384.38235827664397	384.6958276643991	73	127
384.38235827664397	385.47369614512473	45	127
384.6958276643991	384.823537414966	74	127
384.6958276643991	384.823537414966	62	127
384.823537414966	384.9048072562358	61	127
384.823537414966	384.9048072562358	73	127
384.9048072562358	384.98607709750564	71	127
384.9048072562358	384.98607709750564	59	127
384.98607709750564	385.05573696145126	61	127
384.98607709750564	385.05573696145126	73	127
385.05573696145126	385.74072562358276	67	127
385.05573696145126	385.36920634920637	62	127
385.05573696145126	385.36920634920637	74	127
385.05573696145126	385.74072562358276	55	127
385.36920634920637	385.7291156462585	64	127
385.36920634920637	385.7291156462585	76	127
385.74072562358276	386.34444444444443	66	127
385.74072562358276	386.34444444444443	54	127
385.74072562358276	386.808843537415	62	127
385.74072562358276	386.808843537415	74	127
385.74072562358276	386.808843537415	38	127
386.34444444444443	386.9829931972789	62	127
386.34444444444443	386.9829931972789	50	127
386.9829931972789	388.0511111111111	38	127
386.9829931972789	387.5867120181406	57	127
386.9829931972789	387.5867120181406	45	127
387.5867120181406	388.22526077097507	43	127
387.5867120181406	388.22526077097507	55	127
387.5867120181406	388.22526077097507	69	127
387.5867120181406	388.22526077097507	81	127
388.23687074829934	388.91024943310657	42	127
388.23687074829934	388.91024943310657	66	127
388.23687074829934	388.91024943310657	54	127
388.23687074829934	389.4094784580499	81	127
388.23687074829934	389.4094784580499	69	127
388.23687074829934	389.4094784580499	38	127
388.91024943310657	389.5952380952381	55	127
388.91024943310657	389.5952380952381	43	127
388.91024943310657	389.5952380952381	67	127
389.5952380952381	390.2221768707483	54	127
389.5952380952381	390.2221768707483	42	127
389.5952380952381	390.8142857142857	71	127
389.5952380952381	390.8142857142857	83	127
389.5952380952381	390.8142857142857	38	127
389.5952380952381	390.2221768707483	66	127
390.2221768707483	391.00004535147394	65	127
390.2221768707483	391.00004535147394	41	127
390.2221768707483	391.00004535147394	53	127
391.00004535147394	392.55578231292515	84	127
391.00004535147394	392.55578231292515	72	127
391.00004535147394	391.59215419501135	64	127
391.00004535147394	391.59215419501135	52	127
391.00004535147394	391.59215419501135	40	127
391.00004535147394	392.0217233560091	36	127
391.59215419501135	392.2074829931973	62	127
391.59215419501135	392.2074829931973	50	127
391.59215419501135	392.2074829931973	38	127
392.2074829931973	392.72993197278913	64	127
392.2074829931973	392.72993197278913	52	127
392.2074829931973	392.72993197278913	40	127
392.2074829931973	393.22916099773244	36	127
392.72993197278913	393.5310204081633	48	127
392.72993197278913	393.5310204081633	36	127
392.72993197278913	393.5310204081633	84	127
392.72993197278913	393.5310204081633	72	127
392.72993197278913	393.5310204081633	60	127
393.54263038548754	394.5875283446712	41	127
393.54263038548754	394.5875283446712	72	127
393.54263038548754	394.5875283446712	53	127
393.54263038548754	394.22761904761904	69	127
393.54263038548754	394.22761904761904	57	127
393.54263038548754	394.5875283446712	84	127
394.22761904761904	394.8661678004535	58	127
394.22761904761904	394.8661678004535	70	127
394.8661678004535	395.9691156462585	51	127
394.8661678004535	395.9691156462585	73	127
394.8661678004535	395.9691156462585	85	127
394.8661678004535	395.5627664399093	69	127
394.8661678004535	395.9691156462585	39	127
394.8661678004535	395.5627664399093	57	127
395.5627664399093	396.16648526077097	55	127
395.5627664399093	396.16648526077097	67	127
396.16648526077097	398.02408163265306	74	127
396.16648526077097	397.0024036281179	66	127
396.16648526077097	397.0024036281179	54	127
396.16648526077097	397.36231292517004	50	127
396.16648526077097	398.02408163265306	86	127
396.16648526077097	398.52331065759637	38	127
397.0024036281179	397.5596825396825	52	127
397.0024036281179	397.5596825396825	64	127
397.5596825396825	398.61619047619047	50	127
397.5596825396825	398.22145124716553	66	127
397.5596825396825	398.22145124716553	54	127
398.22145124716553	398.8367800453515	74	127
398.22145124716553	398.8367800453515	48	127
398.22145124716553	398.8367800453515	86	127
398.22145124716553	398.8367800453515	60	127
398.84839002267574	399.8352380952381	43	127
398.84839002267574	399.8352380952381	74	127
398.84839002267574	399.8352380952381	55	127
398.84839002267574	399.4521088435374	59	127
398.84839002267574	399.4521088435374	47	127
398.84839002267574	399.8352380952381	86	127
399.4521088435374	400.0906575963719	48	127
399.4521088435374	400.0906575963719	60	127
400.0906575963719	401.0310657596372	75	127
400.0906575963719	401.0310657596372	42	127
400.0906575963719	400.65954648526076	59	127
400.0906575963719	400.65954648526076	47	127
400.0906575963719	401.0310657596372	87	127
400.0906575963719	401.0310657596372	54	127
400.65954648526076	401.4374149659864	60	127
400.65954648526076	401.4374149659864	48	127
401.4374149659864	402.0643537414966	59	127
401.4374149659864	402.5403628117914	88	127
401.4374149659864	402.5403628117914	76	127
401.4374149659864	402.5403628117914	55	127
401.4374149659864	402.5403628117914	43	127
401.4374149659864	402.0643537414966	47	127
402.0643537414966	402.7261224489796	61	127
402.0643537414966	402.7261224489796	49	127
402.7261224489796	403.7710204081633	44	127
402.7261224489796	403.42272108843537	59	127
402.7261224489796	403.42272108843537	47	127
402.7261224489796	403.7710204081633	89	127
402.7261224489796	403.7710204081633	77	127
402.7261224489796	403.7710204081633	56	127
403.42272108843537	403.9916099773243	49	127
403.42272108843537	403.9916099773243	61	127
404.0032199546485	404.7230385487528	78	127
404.0032199546485	404.7346485260771	62	127
404.0032199546485	404.7346485260771	50	127
404.0032199546485	405.2570975056689	57	127
404.0032199546485	404.7230385487528	90	127
404.0032199546485	405.2570975056689	45	127
404.7346485260771	405.46607709750566	54	127
404.7346485260771	404.90879818594107	88	127
404.7346485260771	404.90879818594107	76	127
404.7346485260771	405.46607709750566	66	127
405.0713378684807	405.303537414966	74	127
405.0713378684807	405.303537414966	86	127
405.46607709750566	405.8492063492063	73	127
405.46607709750566	405.8492063492063	85	127
405.46607709750566	406.2091156462585	69	127
405.46607709750566	406.2091156462585	57	127
405.46607709750566	406.73156462585035	57	127
405.46607709750566	406.73156462585035	45	127
405.8492063492063	405.97691609977323	74	127
405.8492063492063	405.97691609977323	86	127
405.97691609977323	406.0465759637188	73	127
405.97691609977323	406.0465759637188	85	127
406.0465759637188	406.13945578231295	83	127
406.0465759637188	406.13945578231295	71	127
406.13945578231295	406.2091156462585	73	127
406.13945578231295	406.2091156462585	85	127
406.2091156462585	406.91732426303855	67	127
406.2091156462585	406.91732426303855	55	127
406.2091156462585	406.6154648526077	86	127
406.2091156462585	406.6154648526077	74	127
406.6154648526077	406.9057142857143	88	127
406.6154648526077	406.9057142857143	76	127
406.91732426303855	408.2060317460317	38	127
406.91732426303855	407.67197278911567	66	127
406.91732426303855	407.67197278911567	54	127
406.91732426303855	408.2060317460317	50	127
406.91732426303855	408.9722902494331	86	127
406.91732426303855	408.9722902494331	74	127
407.67197278911567	408.41501133786846	50	127
407.67197278911567	408.41501133786846	62	127
408.41501133786846	409.2277097505669	57	127
408.41501133786846	409.23931972789114	45	127
408.41501133786846	409.73854875283445	50	127
408.41501133786846	409.73854875283445	38	127
409.23931972789114	409.9475283446712	42	127
409.95913832199545	411.1665759637188	62	127
409.95913832199545	410.72539682539684	38	127
409.95913832199545	411.1665759637188	69	127
409.95913832199545	411.31750566893425	62	127
409.95913832199545	411.31750566893425	69	127
410.4467573696145	410.7370068027211	86	127
410.4467573696145	410.7370068027211	90	127
410.7370068027211	412.94290249433107	74	127
410.7370068027211	412.94290249433107	78	127
411.1665759637188	411.526485260771	71	127
411.53809523809525	412.94290249433107	69	127
411.53809523809525	411.81673469387755	69	127
411.53809523809525	412.59460317460315	62	127
411.53809523809525	412.94290249433107	62	127
411.81673469387755	412.6062131519274	71	127
412.6062131519274	412.86163265306124	73	127
412.86163265306124	413.0938321995465	74	127
413.1054421768707	414.13873015873014	62	127
413.1054421768707	414.13873015873014	69	127
413.1054421768707	414.0574603174603	62	127
413.1054421768707	414.0574603174603	69	127
413.58145124716555	413.80204081632655	91	127
413.58145124716555	413.80204081632655	88	127
413.80204081632655	415.2300680272109	79	127
413.80204081632655	415.2300680272109	76	127
414.0574603174603	414.2896598639456	71	127
414.30126984126986	415.2300680272109	62	127
414.30126984126986	414.63795918367344	69	127
414.30126984126986	414.881768707483	62	127
414.30126984126986	415.2300680272109	69	127
414.63795918367344	414.89337868480726	73	127
414.89337868480726	415.148798185941	74	127
415.148798185941	415.39260770975056	76	127
415.40421768707483	416.40267573696144	62	127
415.40421768707483	416.49555555555554	62	127
415.40421768707483	416.49555555555554	69	127
415.40421768707483	416.40267573696144	69	127
415.68285714285713	415.9614965986394	90	127
415.68285714285713	415.9614965986394	93	127
415.9614965986394	417.52884353741496	78	127
415.9614965986394	417.52884353741496	81	127
416.40267573696144	416.65809523809526	71	127
416.6697052154195	417.1805442176871	62	127
416.6697052154195	417.52884353741496	62	127
416.6697052154195	417.52884353741496	69	127
416.6697052154195	416.9251247165533	69	127
416.9251247165533	417.1921541950113	72	127
417.1921541950113	417.4475736961451	74	127
417.4475736961451	417.76104308390023	76	127
417.7726530612245	418.6550113378685	62	127
417.7726530612245	418.07451247165534	74	127
417.7726530612245	418.3183219954648	62	127
417.7726530612245	418.6550113378685	74	127
418.07451247165534	418.3299319727891	72	127
418.07451247165534	418.3299319727891	91	127
418.07451247165534	418.3299319727891	86	127
418.3299319727891	419.0961904761905	79	127
418.3299319727891	418.57374149659864	74	127
418.3299319727891	419.85083900226755	74	127
418.57374149659864	418.85238095238094	71	127
418.8639909297052	419.85083900226755	74	127
418.8639909297052	419.10780045351476	74	127
418.8639909297052	419.4909297052154	62	127
418.8639909297052	419.85083900226755	62	127
419.10780045351476	419.5025396825397	86	127
419.10780045351476	419.5025396825397	69	127
419.5025396825397	419.7463492063492	74	127
419.5025396825397	420.01337868480726	71	127
419.7463492063492	420.01337868480726	67	127
420.02498866213153	421.05827664399095	73	127
420.02498866213153	421.05827664399095	62	127
420.02498866213153	421.1395464852608	62	127
420.02498866213153	421.1395464852608	73	127
420.4081179138322	420.6867573696145	88	127
420.4081179138322	420.6867573696145	91	127
420.6867573696145	421.54589569161	79	127
420.6867573696145	421.54589569161	76	127
421.05827664399095	421.29047619047617	74	127
421.30208616780044	422.3469841269841	62	127
421.30208616780044	421.55750566893425	71	127
421.30208616780044	421.9986848072562	62	127
421.30208616780044	422.3469841269841	71	127
421.55750566893425	422.0102947845805	76	127
421.55750566893425	422.0102947845805	85	127
421.55750566893425	422.0102947845805	81	127
422.0102947845805	422.5095238095238	83	127
422.0102947845805	422.2657142857143	78	127
422.0102947845805	422.5095238095238	79	127
422.2657142857143	422.5095238095238	79	127
422.52113378684805	423.55442176870747	62	127
422.52113378684805	423.65891156462584	62	127
422.52113378684805	423.65891156462584	69	127
422.52113378684805	423.55442176870747	69	127
422.8229931972789	423.1132426303855	86	127
422.8229931972789	423.1132426303855	90	127
423.1132426303855	424.10009070294785	74	127
423.1132426303855	424.10009070294785	78	127
423.55442176870747	423.83306122448977	71	127
423.84467120181404	424.13492063492066	67	127
423.84467120181404	424.78507936507935	62	127
423.84467120181404	424.78507936507935	67	127
424.13492063492066	424.3903401360544	78	127
424.13492063492066	424.3903401360544	81	127
424.13492063492066	424.3903401360544	73	127
424.3903401360544	424.9360090702948	76	127
424.3903401360544	424.7038095238095	74	127
424.3903401360544	424.9360090702948	79	127
424.7038095238095	424.9360090702948	76	127
424.9360090702948	425.91124716553287	62	127
424.9360090702948	425.91124716553287	66	127
424.9360090702948	425.81836734693877	66	127
425.22625850340137	425.5281179138322	81	127
425.22625850340137	425.5281179138322	86	127
425.5281179138322	426.42208616780044	74	127
425.5281179138322	426.42208616780044	69	127
425.81836734693877	426.14344671201815	67	127
426.1550566893424	427.2580045351474	65	127
426.1550566893424	427.3392743764172	65	127
426.1550566893424	427.3392743764172	62	127
426.4336961451247	426.70072562358274	83	127
426.4336961451247	426.70072562358274	80	127
426.70072562358274	427.50181405895694	71	127
426.70072562358274	427.50181405895694	68	127
427.2580045351474	427.50181405895694	67	127
427.51342403628115	428.5234920634921	57	127
427.51342403628115	427.7920634920635	64	127
427.51342403628115	428.5234920634921	64	127
427.7920634920635	428.14036281179136	69	127
427.7920634920635	428.14036281179136	66	127
428.14036281179136	428.9762811791383	76	127
428.14036281179136	428.4422222222222	67	127
428.14036281179136	429.2549206349206	73	127
428.4422222222222	428.697641723356	68	127
428.697641723356	430.1488888888889	64	127
428.697641723356	430.1488888888889	57	127
428.697641723356	428.9878911564626	69	127
428.9878911564626	429.2549206349206	73	127
428.9878911564626	429.2549206349206	70	127
429.2549206349206	430.0560090702948	73	127
429.2549206349206	430.32303854875283	79	127
429.2549206349206	430.32303854875283	76	127
430.0560090702948	430.32303854875283	71	127
430.3346485260771	430.82226757369614	38	127
430.3346485260771	431.13573696145124	62	127
430.3346485260771	431.13573696145124	69	127
430.3346485260771	431.3331065759637	62	127
430.3346485260771	431.3331065759637	69	127
430.57845804988665	430.8338775510204	90	127
430.57845804988665	430.8338775510204	86	127
430.8338775510204	432.5985941043084	78	127
430.8338775510204	432.5985941043084	74	127
431.13573696145124	431.54208616780045	71	127
431.5536961451247	432.5985941043084	69	127
431.5536961451247	431.85555555555555	69	127
431.5536961451247	432.16902494331066	62	127
431.5536961451247	432.5985941043084	62	127
431.85555555555555	432.18063492063493	71	127
432.18063492063493	432.4360544217687	73	127
432.4360544217687	432.7495238095238	74	127
432.76113378684806	433.84086167800456	69	127
432.76113378684806	433.74798185941046	69	127
432.76113378684806	433.84086167800456	62	127
432.76113378684806	433.74798185941046	62	127
433.03977324263036	433.330022675737	88	127
433.03977324263036	433.330022675737	91	127
433.330022675737	434.93219954648526	76	127
433.330022675737	434.93219954648526	79	127
433.74798185941046	434.0034013605442	71	127
434.0150113378685	434.58390022675735	62	127
434.0150113378685	434.93219954648526	69	127
434.0150113378685	434.93219954648526	62	127
434.0150113378685	434.27043083900224	69	127
434.27043083900224	434.5955102040816	73	127
434.5955102040816	434.85092970521544	74	127
434.85092970521544	435.08312925170065	76	127
435.0947392290249	436.1048072562358	69	127
435.0947392290249	436.023537414966	69	127
435.0947392290249	436.1048072562358	62	127
435.0947392290249	436.023537414966	62	127
435.35015873015874	435.6055782312925	90	127
435.35015873015874	435.6055782312925	93	127
435.6055782312925	437.30063492063493	78	127
435.6055782312925	437.30063492063493	81	127
436.023537414966	436.29056689342406	71	127
436.29056689342406	436.9639455782313	62	127
436.29056689342406	437.30063492063493	62	127
436.29056689342406	437.30063492063493	69	127
436.29056689342406	436.5459863945578	69	127
436.5459863945578	436.97555555555556	72	127
436.97555555555556	437.2193650793651	74	127
437.2193650793651	437.50961451247167	76	127
437.5444444444444	438.56612244897957	62	127
437.5444444444444	437.8695238095238	74	127
437.5444444444444	438.1946031746032	62	127
437.5444444444444	438.56612244897957	74	127
437.8695238095238	438.20621315192744	72	127
437.8695238095238	438.20621315192744	91	127
437.8695238095238	438.20621315192744	86	127
438.20621315192744	439.0305215419501	79	127
438.20621315192744	438.47324263038547	74	127
438.20621315192744	439.86643990929707	74	127
438.47324263038547	438.7867120181406	71	127
438.79832199546485	439.3556009070295	62	127
438.79832199546485	439.0421315192744	74	127
438.79832199546485	439.86643990929707	74	127
438.79832199546485	439.86643990929707	62	127
439.0421315192744	439.36721088435377	69	127
439.0421315192744	439.36721088435377	86	127
439.36721088435377	439.773560090703	74	127
439.36721088435377	440.01736961451246	71	127
439.773560090703	440.01736961451246	67	127
440.02897959183673	440.9461678004535	73	127
440.02897959183673	440.9461678004535	62	127
440.02897959183673	441.0390476190476	62	127
440.02897959183673	441.0390476190476	73	127
440.29600907029476	440.6791383219955	88	127
440.29600907029476	440.6791383219955	91	127
440.6791383219955	441.4453968253968	79	127
440.6791383219955	441.4453968253968	76	127
440.9461678004535	441.18997732426305	74	127
441.2015873015873	442.3509750566893	62	127
441.2015873015873	441.4570068027211	71	127
441.2015873015873	441.9794557823129	62	127
441.2015873015873	442.3509750566893	71	127
441.4570068027211	441.9910657596372	76	127
441.4570068027211	441.9910657596372	85	127
441.4570068027211	441.9910657596372	81	127
441.9910657596372	442.50190476190477	79	127
441.9910657596372	442.2697052154195	78	127
441.9910657596372	442.50190476190477	83	127
442.2697052154195	442.50190476190477	79	127
442.51351473922904	443.45392290249436	62	127
442.51351473922904	443.3378231292517	62	127
442.51351473922904	443.3378231292517	69	127
442.51351473922904	443.45392290249436	69	127
442.8502040816326	443.07079365079363	90	127
442.8502040816326	443.07079365079363	86	127
443.07079365079363	444.01120181405895	74	127
443.07079365079363	444.01120181405895	78	127
443.3378231292517	443.7557823129252	71	127
443.76739229024946	444.0228117913832	67	127
443.76739229024946	444.82390022675736	62	127
443.76739229024946	444.82390022675736	67	127
444.0228117913832	444.28984126984125	78	127
444.0228117913832	444.28984126984125	73	127
444.0228117913832	444.28984126984125	81	127
444.28984126984125	444.74263038548753	74	127
444.28984126984125	444.9864399092971	76	127
444.28984126984125	444.9864399092971	79	127
444.74263038548753	444.9864399092971	76	127
444.9864399092971	446.05455782312924	66	127
444.9864399092971	445.92684807256234	66	127
444.9864399092971	446.05455782312924	62	127
445.2882993197279	445.601768707483	86	127
445.2882993197279	445.601768707483	81	127
445.601768707483	446.5073469387755	74	127
445.601768707483	446.5073469387755	69	127
445.92684807256234	446.2287074829932	67	127
446.2519274376417	447.30843537414967	65	127
446.2519274376417	447.40131519274377	65	127
446.2519274376417	447.40131519274377	62	127
446.5189569160998	446.80920634920636	80	127
446.5189569160998	446.80920634920636	83	127
446.80920634920636	447.5638548752834	71	127
446.80920634920636	447.5638548752834	68	127
447.30843537414967	447.5638548752834	67	127
447.5754648526077	448.7480725623583	57	127
447.5754648526077	447.8424943310658	64	127
447.5754648526077	448.7480725623583	64	127
447.8424943310658	448.3301133786848	69	127
447.8424943310658	448.3301133786848	66	127
448.3301133786848	449.53755102040816	73	127
448.3301133786848	448.6551927437642	67	127
448.3301133786848	449.17764172335603	76	127
448.6551927437642	448.9222222222222	68	127
448.9222222222222	449.18925170068024	69	127
448.9222222222222	450.1064399092971	57	127
448.9222222222222	450.1064399092971	64	127
449.18925170068024	449.53755102040816	73	127
449.18925170068024	449.53755102040816	70	127
449.53755102040816	450.0019501133787	73	127
449.53755102040816	450.280589569161	76	127
449.53755102040816	450.280589569161	79	127
450.0019501133787	450.280589569161	71	127
450.2921995464853	451.3254875283447	62	127
450.2921995464853	451.23260770975054	69	127
450.6056689342404	450.98879818594105	86	127
450.6056689342404	450.98879818594105	90	127
450.98879818594105	451.7434467120181	78	127
450.98879818594105	451.7434467120181	74	127
451.23260770975054	451.4764172335601	71	127
451.48802721088435	451.7434467120181	69	127
451.48802721088435	452.4516553287982	62	127
451.7434467120181	452.045306122449	86	127
451.7434467120181	452.045306122449	89	127
451.7434467120181	452.045306122449	71	127
452.045306122449	452.3239455782313	72	127
452.045306122449	452.61419501133787	74	127
452.045306122449	452.61419501133787	77	127
452.3239455782313	452.61419501133787	74	127
452.6374149659864	453.84485260770975	60	127
452.6374149659864	453.0205442176871	60	127
452.6374149659864	453.6126530612245	67	127
452.6374149659864	453.84485260770975	67	127
452.89283446712017	453.6126530612245	76	127
453.03215419501134	453.2643537414966	88	127
453.03215419501134	453.2643537414966	91	127
453.2643537414966	454.5530612244898	79	127
453.2643537414966	454.5530612244898	76	127
453.6126530612245	454.2047619047619	67	127
454.21637188208615	455.0987301587302	76	127
454.21637188208615	455.18	60	127
454.21637188208615	455.18	67	127
454.56467120181406	454.8084807256236	88	127
454.56467120181406	454.8084807256236	91	127
454.8084807256236	455.3309297052154	79	127
454.8084807256236	455.3309297052154	76	127
455.0987301587302	455.3309297052154	67	127
455.34253968253967	456.1204081632653	67	127
455.34253968253967	456.2248979591837	60	127
455.60956916099775	455.85337868480724	84	127
455.60956916099775	455.85337868480724	88	127
455.85337868480724	456.70090702947846	72	127
455.85337868480724	456.70090702947846	76	127
456.1204081632653	456.4570975056689	69	127
456.4570975056689	456.7125170068027	67	127
456.4570975056689	457.43233560090704	60	127
456.7125170068027	456.9563265306123	87	127
456.7125170068027	456.9563265306123	84	127
456.7125170068027	456.9563265306123	69	127
456.9563265306123	457.65292517006804	75	127
456.9563265306123	457.32784580498867	70	127
456.9563265306123	457.65292517006804	72	127
457.32784580498867	457.65292517006804	72	127
457.6645351473923	458.6281632653061	58	127
457.6645351473923	457.9199546485261	58	127
457.6645351473923	458.5468934240363	65	127
457.6645351473923	458.6281632653061	65	127
457.80385487528343	458.5468934240363	74	127
457.93156462585034	458.19859410430837	89	127
457.93156462585034	458.19859410430837	86	127
458.19859410430837	459.09256235827667	74	127
458.19859410430837	459.09256235827667	77	127
458.5468934240363	458.79070294784583	65	127
458.8487528344671	459.64984126984126	74	127
458.8487528344671	459.7311111111111	65	127
458.8487528344671	459.7311111111111	58	127
459.1041723356009	459.37120181405896	89	127
459.1041723356009	459.37120181405896	86	127
459.37120181405896	459.91687074829935	74	127
459.37120181405896	459.91687074829935	80	127
459.64984126984126	459.91687074829935	65	127
459.92848072562356	461.0546485260771	81	127
459.92848072562356	461.0546485260771	74	127
459.92848072562356	461.0546485260771	66	127
459.92848072562356	461.0546485260771	57	127
461.0546485260771	461.3100680272109	83	127
461.0546485260771	461.3100680272109	73	127
461.0546485260771	461.3100680272109	67	127
461.0546485260771	461.3100680272109	64	127
461.32167800453516	461.5770975056689	81	127
461.32167800453516	461.5770975056689	74	127
461.32167800453516	461.5770975056689	69	127
461.32167800453516	461.5770975056689	66	127
461.5770975056689	461.9834467120181	83	127
461.5770975056689	461.9834467120181	73	127
461.5770975056689	461.9834467120181	67	127
461.5770975056689	461.9834467120181	64	127
461.9834467120181	462.2736961451247	81	127
461.9834467120181	462.2736961451247	74	127
461.9834467120181	462.2736961451247	69	127
461.9834467120181	462.2736961451247	66	127
462.2736961451247	462.5291156462585	83	127
462.2736961451247	462.5291156462585	73	127
462.2736961451247	462.5291156462585	67	127
462.2736961451247	462.5291156462585	64	127
462.5407256235828	463.4463038548753	81	127
462.5407256235828	463.4463038548753	72	127
462.5407256235828	463.4463038548753	69	127
462.5407256235828	463.4463038548753	66	127
463.4463038548753	463.7133333333333	83	127
463.4463038548753	463.7133333333333	74	127
463.4463038548753	463.7133333333333	67	127
463.4463038548753	463.7133333333333	64	127
463.7249433106576	464.00358276643993	81	127
463.7249433106576	464.00358276643993	72	127
463.7249433106576	464.00358276643993	69	127
463.7249433106576	464.00358276643993	66	127
464.00358276643993	464.27061224489796	83	127
464.00358276643993	464.27061224489796	74	127
464.00358276643993	464.27061224489796	67	127
464.00358276643993	464.27061224489796	64	127
464.27061224489796	464.6189115646259	81	127
464.27061224489796	464.6189115646259	72	127
464.27061224489796	464.6189115646259	69	127
464.27061224489796	464.6189115646259	66	127
464.6189115646259	464.86272108843536	66	127
464.6189115646259	464.86272108843536	83	127
464.6189115646259	464.86272108843536	74	127
464.6189115646259	464.86272108843536	62	127
464.8859410430839	465.14136054421766	79	127
464.8859410430839	465.14136054421766	71	127
464.8859410430839	465.14136054421766	67	127
464.8859410430839	465.14136054421766	64	127
465.14136054421766	465.3967800453515	81	127
465.14136054421766	465.3967800453515	72	127
465.14136054421766	465.3967800453515	64	127
465.14136054421766	465.3967800453515	60	127
465.3967800453515	465.8379591836735	66	127
465.3967800453515	465.8379591836735	78	127
465.3967800453515	465.8379591836735	69	127
465.3967800453515	465.8379591836735	62	127
465.8379591836735	466.09337868480725	79	127
465.8379591836735	466.09337868480725	71	127
465.8379591836735	466.09337868480725	62	127
465.8379591836735	466.09337868480725	59	127
466.09337868480725	466.36040816326533	67	127
466.09337868480725	466.36040816326533	58	127
466.09337868480725	467.2892063492063	64	127
466.09337868480725	467.2892063492063	73	127
466.36040816326533	466.6158276643991	70	127
466.36040816326533	466.6158276643991	55	127
466.6158276643991	466.94090702947847	69	127
466.6158276643991	466.94090702947847	54	127
466.94090702947847	467.50979591836733	67	127
466.94090702947847	467.50979591836733	52	127
467.5214058956916	468.508253968254	66	127
467.5214058956916	467.82326530612244	66	127
467.5214058956916	468.508253968254	50	127
467.5214058956916	468.508253968254	74	127
467.82326530612244	468.13673469387754	57	127
468.13673469387754	468.41537414965984	54	127
468.41537414965984	468.6940136054422	57	127
468.6940136054422	468.9726530612245	50	127
468.9726530612245	469.3790022675737	57	127
469.3790022675737	469.7389115646258	62	127
469.7389115646258	470.2381405895692	66	127
470.2497505668934	471.3294784580499	62	127
470.2497505668934	471.24820861678006	69	127
470.6909297052154	470.9695691609977	86	127
470.6909297052154	470.9695691609977	90	127
470.9695691609977	471.74743764172337	78	127
470.9695691609977	471.74743764172337	74	127
471.24820861678006	471.49201814058955	71	127
471.5036281179138	471.75904761904764	69	127
471.5036281179138	472.4672562358277	62	127
471.75904761904764	472.0144671201814	71	127
471.75904761904764	472.0144671201814	89	127
471.75904761904764	472.0144671201814	86	127
472.0144671201814	472.61818594104307	77	127
472.0144671201814	472.3743764172336	72	127
472.0144671201814	472.61818594104307	74	127
472.3743764172336	472.61818594104307	74	127
472.62979591836734	473.69791383219956	67	127
472.62979591836734	472.9316553287982	60	127
472.62979591836734	473.5237641723356	67	127
472.62979591836734	473.69791383219956	60	127
472.75750566893424	473.5237641723356	76	127
472.966485260771	473.22190476190474	88	127
472.966485260771	473.22190476190474	91	127
473.22190476190474	474.1739229024943	79	127
473.22190476190474	474.1739229024943	76	127
473.5237641723356	473.84884353741495	67	127
473.8604535147392	475.218820861678	60	127
473.8604535147392	475.11433106575964	76	127
473.8604535147392	475.218820861678	67	127
474.1855328798186	474.44095238095235	91	127
474.1855328798186	474.44095238095235	88	127
474.44095238095235	475.3697505668934	79	127
474.44095238095235	475.3697505668934	76	127
475.11433106575964	475.3697505668934	67	127
475.38136054421767	476.15922902494333	67	127
475.38136054421767	476.24049886621316	60	127
475.64839002267576	475.89219954648524	88	127
475.64839002267576	475.89219954648524	84	127
475.89219954648524	476.64684807256236	76	127
475.89219954648524	476.64684807256236	72	127
476.15922902494333	476.39142857142855	69	127
476.4030385487528	477.28539682539684	60	127
476.4030385487528	476.65845804988663	67	127
476.65845804988663	476.92548752834466	84	127
476.65845804988663	476.92548752834466	69	127
476.65845804988663	476.92548752834466	87	127
476.92548752834466	477.4827664399093	75	127
476.92548752834466	477.19251700680275	70	127
476.92548752834466	477.4827664399093	72	127
477.19251700680275	477.4827664399093	72	127
477.4943764172336	477.73818594104307	58	127
477.4943764172336	478.4812244897959	65	127
477.4943764172336	478.353514739229	65	127
477.4943764172336	478.4812244897959	58	127
477.62208616780043	478.353514739229	74	127
477.74979591836734	478.0168253968254	86	127
477.74979591836734	478.0168253968254	89	127
478.0168253968254	478.9920634920635	74	127
478.0168253968254	478.9920634920635	77	127
478.353514739229	478.6437641723356	65	127
478.65537414965985	479.7234920634921	58	127
478.65537414965985	479.7234920634921	65	127
478.65537414965985	479.5725623582766	74	127
479.00367346938776	479.2707029478458	89	127
479.00367346938776	479.2707029478458	86	127
479.2707029478458	479.88603174603173	80	127
479.2707029478458	479.88603174603173	74	127
479.5725623582766	479.88603174603173	65	127
479.897641723356	480.95414965986396	66	127
479.897641723356	480.95414965986396	81	127
479.897641723356	480.95414965986396	74	127
479.897641723356	480.95414965986396	57	127
480.95414965986396	481.19795918367345	83	127
480.95414965986396	481.19795918367345	73	127
480.95414965986396	481.19795918367345	67	127
480.95414965986396	481.19795918367345	64	127
481.2095691609977	481.4998185941043	81	127
481.2095691609977	481.4998185941043	74	127
481.2095691609977	481.4998185941043	69	127
481.2095691609977	481.4998185941043	66	127
481.4998185941043	481.76684807256237	73	127
481.4998185941043	481.76684807256237	83	127
481.4998185941043	481.76684807256237	67	127
481.4998185941043	481.76684807256237	64	127
481.76684807256237	482.1615873015873	81	127
481.76684807256237	482.1615873015873	74	127
481.76684807256237	482.1615873015873	69	127
481.76684807256237	482.1615873015873	66	127
482.1615873015873	482.40539682539685	83	127
482.1615873015873	482.40539682539685	73	127
482.1615873015873	482.40539682539685	67	127
482.1615873015873	482.40539682539685	64	127
482.41700680272106	483.3922448979592	81	127
482.41700680272106	483.3922448979592	72	127
482.41700680272106	483.3922448979592	69	127
482.41700680272106	483.3922448979592	66	127
483.3922448979592	483.63605442176873	83	127
483.3922448979592	483.63605442176873	74	127
483.3922448979592	483.63605442176873	67	127
483.3922448979592	483.63605442176873	64	127
483.64766439909295	484.00757369614513	81	127
483.64766439909295	484.00757369614513	72	127
483.64766439909295	484.00757369614513	69	127
483.64766439909295	484.00757369614513	66	127
484.00757369614513	484.2629931972789	64	127
484.00757369614513	484.2629931972789	83	127
484.00757369614513	484.2629931972789	74	127
484.00757369614513	484.2629931972789	67	127
484.2629931972789	484.5532426303855	72	127
484.2629931972789	484.5532426303855	69	127
484.2629931972789	484.5532426303855	81	127
484.2629931972789	484.5532426303855	66	127
484.5532426303855	484.85510204081635	83	127
484.5532426303855	484.85510204081635	74	127
484.5532426303855	484.85510204081635	66	127
484.5532426303855	484.85510204081635	62	127
484.87832199546483	485.16857142857145	79	127
484.87832199546483	485.16857142857145	71	127
484.87832199546483	485.16857142857145	67	127
484.87832199546483	485.16857142857145	64	127
485.16857142857145	485.44721088435375	81	127
485.16857142857145	485.44721088435375	72	127
485.16857142857145	485.44721088435375	64	127
485.16857142857145	485.44721088435375	60	127
485.44721088435375	485.81873015873015	78	127
485.44721088435375	485.81873015873015	69	127
485.44721088435375	485.81873015873015	66	127
485.44721088435375	485.81873015873015	62	127
485.81873015873015	486.09736961451244	79	127
485.81873015873015	486.09736961451244	71	127
485.81873015873015	486.09736961451244	62	127
485.81873015873015	486.09736961451244	59	127
486.09736961451244	487.22353741496596	73	127
486.09736961451244	486.4340589569161	67	127
486.09736961451244	486.4340589569161	58	127
486.09736961451244	487.22353741496596	64	127
486.4340589569161	486.7126984126984	70	127
486.4340589569161	486.7126984126984	55	127
486.7126984126984	487.0261678004535	69	127
486.7126984126984	487.0261678004535	54	127
487.0261678004535	487.4325170068027	52	127
487.0261678004535	487.4325170068027	67	127
487.44412698412697	489.12757369614513	50	127
487.44412698412697	488.33809523809526	66	127
487.44412698412697	489.12757369614513	74	127
487.44412698412697	489.12757369614513	66	127
488.3497052154195	488.76766439909295	57	127
488.7792743764172	489.03469387755104	54	127
489.0463038548753	489.67324263038546	57	127
489.68485260770973	490.2073015873016	50	127
490.21891156462584	492.03006802721086	45	127
492.04167800453513	493.20267573696145	38	127
492.04167800453513	493.20267573696145	45	127
492.04167800453513	494.11986394557823	50	127
493.42326530612246	495.0951020408163	45	127
493.42326530612246	495.0951020408163	38	127
494.4913832199546	494.99061224489793	52	127
495.0022222222222	495.5014512471655	53	127
495.5130612244898	496.7321088435374	37	127
495.5130612244898	496.7321088435374	45	127
495.5130612244898	497.34743764172333	52	127
496.96430839002267	499.00766439909296	37	127
496.96430839002267	499.00766439909296	45	127
498.04403628117916	499.1585941043084	45	127
499.1702040816327	500.1918820861678	38	127
499.1702040816327	500.1918820861678	45	127
499.1702040816327	500.6911111111111	53	127
500.6911111111111	501.08585034013606	55	127
500.6911111111111	502.09591836734694	50	127
501.08585034013606	501.27160997732426	53	127
501.27160997732426	501.39931972789117	52	127
501.39931972789117	501.5386394557823	53	127
501.55024943310656	501.9798185941043	55	127
501.99142857142857	502.45582766439907	57	127
502.46743764172334	503.81419501133786	50	127
502.46743764172334	503.81419501133786	47	127
502.46743764172334	504.76621315192745	55	127
504.1160544217687	505.61374149659866	47	127
504.1160544217687	505.61374149659866	55	127
505.13773242630384	506.11297052154197	43	127
506.12458049886624	507.34362811791385	52	127
506.12458049886624	507.34362811791385	55	127
506.12458049886624	507.34362811791385	48	127
506.12458049886624	507.8196371882086	55	127
507.8196371882086	509.2708843537415	52	127
507.8196371882086	507.99378684807255	57	127
507.8196371882086	509.2708843537415	46	127
507.8196371882086	509.2708843537415	55	127
507.99378684807255	508.16793650793653	55	127
508.16793650793653	508.3885260770975	53	127
508.3885260770975	508.6787755102041	55	127
508.6903854875283	509.15478458049887	57	127
509.1780045351474	509.514693877551	58	127
509.5495238095238	510.79179138321996	45	127
509.5495238095238	510.2809523809524	53	127
509.5495238095238	511.70897959183674	60	127
510.3041723356009	511.1865306122449	48	127
511.1865306122449	512.99768707483	43	127
511.1865306122449	512.602947845805	50	127
511.7321995464853	512.556507936508	58	127
512.602947845805	512.9048072562358	50	127
512.602947845805	513.218276643991	58	127
512.9048072562358	513.2066666666667	52	127
513.218276643991	514.4837414965987	53	127
513.218276643991	513.9380952380952	57	127
513.218276643991	514.4837414965987	41	127
513.9380952380952	514.9597732426304	48	127
514.9597732426304	515.4125623582767	55	127
514.9597732426304	515.8653514739229	50	127
514.9597732426304	516.5619501133787	46	127
515.4125623582767	515.563492063492	57	127
515.563492063492	515.8653514739229	55	127
515.8653514739229	516.4226303854875	53	127
515.8653514739229	516.7825396825397	52	127
516.4226303854875	516.7825396825397	55	127
516.7941496598639	518.16410430839	52	127
516.7941496598639	518.16410430839	49	127
516.7941496598639	518.16410430839	57	127
516.7941496598639	518.16410430839	45	127
518.8142857142857	520.6254421768707	45	127
518.8142857142857	520.6254421768707	52	127
518.8142857142857	520.6254421768707	49	127
520.2074603174603	520.9040816326531	45	127
520.9156916099773	522.2508163265306	53	127
520.9156916099773	522.2508163265306	50	127
520.9156916099773	522.2508163265306	38	127
520.9156916099773	523.1448072562358	57	127
522.6920181405895	524.166485260771	50	127
522.6920181405895	524.166485260771	53	127
522.6920181405895	524.166485260771	38	127
523.1448072562358	523.2608843537415	59	127
523.2608843537415	523.504716553288	57	127
523.504716553288	523.6324263038549	55	127
523.6324263038549	524.0736054421769	57	127
524.0736054421769	524.5031519274377	59	127
524.5147845804988	525.8267120181406	55	127
524.5147845804988	525.8267120181406	52	127
524.5147845804988	525.8267120181406	36	127
524.5147845804988	526.6278004535147	60	127
526.0240816326531	527.7771655328798	55	127
526.0240816326531	527.7771655328798	52	127
526.0240816326531	527.7771655328798	36	127
527.2315192743764	527.962925170068	48	127
527.9745351473923	529.1239455782313	52	127
527.9745351473923	529.1239455782313	55	127
527.9745351473923	529.1239455782313	46	127
527.9745351473923	530.1804535147393	60	127
529.7857142857143	531.2717913832199	55	127
529.7857142857143	531.2717913832199	46	127
529.7857142857143	531.2717913832199	52	127
530.1804535147393	530.2965532879819	62	127
530.2965532879819	530.4126530612245	60	127
530.4126530612245	530.4939229024943	59	127
530.4939229024943	531.0279591836735	60	127
531.0279591836735	531.5852607709751	62	127
531.5968707482994	533.9536961451247	64	127
531.5968707482994	532.8275283446712	61	127
531.5968707482994	532.8275283446712	52	127
531.5968707482994	532.8275283446712	45	127
533.1061678004535	534.8824943310658	61	127
533.1061678004535	534.8824943310658	57	127
533.1061678004535	534.8824943310658	45	127
534.1742857142857	535.1959637188208	57	127
535.2191836734694	536.0318820861678	62	127
535.2191836734694	536.6704308390023	57	127
535.2191836734694	536.6704308390023	66	127
535.2191836734694	536.6704308390023	50	127
536.0318820861678	536.9258503401361	60	127
536.9258503401361	537.6456689342403	59	127
536.9258503401361	538.0520181405896	62	127
536.9258503401361	538.0520181405896	68	127
536.9258503401361	538.0520181405896	52	127
537.6456689342403	538.5860770975057	64	127
538.597664399093	540.0024943310658	62	127
538.597664399093	540.0024943310658	54	127
538.597664399093	539.4684353741496	62	127
538.597664399093	540.5829931972789	69	127
539.4684353741496	540.3043537414966	60	127
540.3043537414966	541.8020408163266	59	127
540.3043537414966	541.0822222222222	55	127
540.3043537414966	541.0938321995465	59	127
540.5829931972789	541.0822222222222	67	127
541.0938321995465	542.0342403628118	56	127
541.0938321995465	541.5698412698413	62	127
541.0938321995465	542.0342403628118	64	127
541.5930612244898	542.0342403628118	64	127
542.0458503401361	543.4854875283447	57	127
542.0458503401361	542.7424489795918	62	127
542.0458503401361	542.7308390022675	65	127
542.0458503401361	543.4854875283447	62	127
542.7424489795918	543.3577777777778	64	127
542.7424489795918	543.810566893424	57	127
543.369387755102	543.7989569160998	65	127
543.810566893424	543.984716553288	64	127
543.810566893424	545.3895238095238	57	127
543.810566893424	545.3895238095238	45	127
543.810566893424	545.3895238095238	61	127
543.984716553288	544.0543764172336	65	127
544.0543764172336	544.8554648526077	67	127
544.8554648526077	545.308253968254	65	127
545.308253968254	546.0280725623583	64	127
546.0396825396825	547.2587301587301	38	127
546.0396825396825	547.2587301587301	62	127
546.0396825396825	547.2587301587301	50	127
546.0396825396825	547.2587301587301	62	127
546.8291609977324	546.9684807256236	81	127
546.8291609977324	546.9684807256236	78	127
547.1542403628118	547.2355102040816	82	127
547.1542403628118	547.2355102040816	79	127
547.3051700680272	547.3748299319728	78	127
547.3051700680272	547.3748299319728	81	127
547.3748299319728	547.5721995464853	79	127
547.3748299319728	547.5721995464853	82	127
547.5721995464853	548.7680272108844	81	127
547.5721995464853	549.2324036281179	38	127
547.5721995464853	548.7680272108844	84	127
547.5721995464853	549.2324036281179	50	127
547.5721995464853	549.2324036281179	62	127
547.5721995464853	549.2324036281179	62	127
548.8260544217687	548.9770068027211	79	127
548.8260544217687	548.9770068027211	82	127
549.1395464852608	549.2440136054422	81	127
549.1395464852608	549.2440136054422	78	127
549.3601360544218	549.4297732426304	79	127
549.4297732426304	550.5327437641723	86	127
549.4297732426304	550.1380045351474	62	127
549.4297732426304	550.5327437641723	82	127
549.4297732426304	550.5327437641723	50	127
549.4297732426304	550.5327437641723	38	127
550.1496145124717	550.2889342403628	58	127
550.4398639455783	550.5095238095238	60	127
550.5791836734694	550.6604308390023	58	127
550.6604308390023	550.9623129251701	60	127
550.9623129251701	551.9375510204081	62	127
550.9623129251701	552.4251700680272	50	127
550.9623129251701	552.4251700680272	38	127
551.9491609977324	552.192970521542	60	127
552.3322902494331	552.4367800453515	58	127
552.7734693877551	552.854739229025	57	127
552.854739229025	553.8996371882087	62	127
552.854739229025	553.8996371882087	50	127
552.854739229025	553.8996371882087	38	127
553.4584580498866	553.6442176870748	81	127
553.4584580498866	553.6442176870748	78	127
553.8067573696145	553.8764172335601	79	127
553.8067573696145	553.8764172335601	82	127
553.9460544217687	554.0157369614512	81	127
553.9460544217687	554.0157369614512	78	127
554.0157369614512	554.3059863945579	82	127
554.0157369614512	554.3059863945579	79	127
554.3059863945579	555.3857142857142	50	127
554.3059863945579	555.3857142857142	38	127
554.3059863945579	555.0025850340136	84	127
554.3059863945579	555.0025850340136	81	127
554.3059863945579	555.3857142857142	62	127
555.0141950113378	555.1535147392291	82	127
555.0141950113378	555.1535147392291	79	127
555.2928344671202	555.3973242630385	81	127
555.2928344671202	555.3973242630385	78	127
555.8268934240363	556.035873015873	82	127
555.8268934240363	556.035873015873	79	127
556.035873015873	557.312970521542	82	127
556.035873015873	556.8950113378685	62	127
556.035873015873	557.312970521542	86	127
556.035873015873	557.312970521542	50	127
556.035873015873	557.312970521542	38	127
556.9066213151928	557.0807709750567	58	127
557.2200680272109	557.2897505668934	60	127
557.359410430839	557.4290476190477	58	127
557.4290476190477	557.5219501133787	60	127
557.5219501133787	558.28820861678	62	127
557.5219501133787	558.8919274376417	38	127
557.5219501133787	558.8919274376417	50	127
558.2998185941043	558.5784580498866	60	127
558.729387755102	558.903537414966	58	127
559.1589569160998	559.2286167800454	57	127
559.2286167800454	560.4012244897959	38	127
559.2286167800454	560.4012244897959	50	127
559.2286167800454	560.4012244897959	62	127
559.9368253968254	560.1574149659864	77	127
559.9368253968254	560.1574149659864	74	127
560.2967346938775	560.3663945578231	76	127
560.2967346938775	560.3663945578231	79	127
560.447664399093	560.5173242630385	77	127
560.447664399093	560.5173242630385	74	127
560.5173242630385	560.714693877551	79	127
560.5173242630385	560.714693877551	76	127
560.714693877551	561.5738321995465	77	127
560.714693877551	561.5738321995465	81	127
560.714693877551	561.9685714285714	50	127
560.714693877551	561.9685714285714	62	127
560.714693877551	561.9685714285714	38	127
561.5854421768707	561.7363718820861	79	127
561.5854421768707	561.7363718820861	76	127
561.8756916099774	561.9801814058957	77	127
561.8756916099774	561.9801814058957	74	127
562.3168480725624	562.4678004535148	76	127
562.3168480725624	562.4678004535148	69	127
562.4678004535148	563.5010884353742	45	127
562.4678004535148	563.5010884353742	57	127
562.4678004535148	563.1063492063493	79	127
562.4678004535148	563.1063492063493	76	127
562.4678004535148	563.5010884353742	62	127
563.1179591836735	563.2804988662132	76	127
563.1179591836735	563.2804988662132	69	127
563.4198185941043	563.4778684807256	74	127
563.4198185941043	563.4778684807256	77	127
563.5475056689343	563.6171882086168	76	127
563.5475056689343	563.6171882086168	69	127
563.6171882086168	563.9887074829932	74	127
563.6171882086168	563.9887074829932	77	127
563.9887074829932	565.1497052154195	61	127
563.9887074829932	565.1497052154195	45	127
563.9887074829932	564.7549659863946	79	127
563.9887074829932	564.7549659863946	76	127
563.9887074829932	565.1497052154195	57	127
564.7665532879819	564.9175056689343	74	127
564.7665532879819	564.9175056689343	77	127
565.0568253968254	565.1961224489796	69	127
565.0568253968254	565.1961224489796	76	127
565.6489342403628	566.8099092970522	38	127
565.6489342403628	566.8099092970522	74	127
565.6489342403628	566.8099092970522	62	127
565.6489342403628	566.8099092970522	62	127
566.3919727891157	566.5661224489796	57	127
566.3919727891157	566.5661224489796	54	127
566.717052154195	566.7867120181406	58	127
566.717052154195	566.7867120181406	55	127
566.8679818594104	566.937641723356	54	127
566.8679818594104	566.937641723356	57	127
566.937641723356	567.0073015873016	55	127
566.937641723356	567.0073015873016	58	127
567.0073015873016	568.5514285714286	62	127
567.0073015873016	568.1450793650794	60	127
567.0073015873016	568.1450793650794	57	127
567.0073015873016	568.5514285714286	74	127
567.0073015873016	568.5514285714286	62	127
567.0073015873016	568.5514285714286	38	127
568.1566893424036	568.2960090702948	55	127
568.1566893424036	568.2960090702948	58	127
568.435328798186	568.5630385487528	54	127
568.435328798186	568.5630385487528	57	127
568.6907482993197	568.7720181405896	58	127
568.6907482993197	568.7720181405896	55	127
568.7720181405896	569.6079365079365	74	127
568.7720181405896	570.0491156462585	58	127
568.7720181405896	570.0491156462585	62	127
568.7720181405896	570.0491156462585	38	127
568.7720181405896	569.6079365079365	62	127
568.7720181405896	569.6079365079365	62	127
569.6195464852608	569.7588662131519	67	127
569.6195464852608	569.7588662131519	70	127
569.6195464852608	569.7588662131519	58	127
569.9446258503401	570.02589569161	60	127
569.9446258503401	570.02589569161	69	127
569.9446258503401	570.02589569161	72	127
570.2232653061225	570.3161451247165	70	127
570.2232653061225	570.3161451247165	67	127
570.2232653061225	570.3161451247165	58	127
570.3161451247165	570.4554648526077	69	127
570.3161451247165	570.4554648526077	72	127
570.3161451247165	570.4554648526077	60	127
570.4554648526077	571.302993197279	62	127
570.4554648526077	571.302993197279	74	127
570.4554648526077	571.7325396825397	38	127
570.4554648526077	571.302993197279	70	127
571.3261904761905	571.5003628117914	60	127
571.3261904761905	571.5003628117914	72	127
571.3261904761905	571.5003628117914	69	127
571.6396825396826	571.7790022675737	70	127
571.6396825396826	571.7790022675737	67	127
571.6396825396826	571.7790022675737	58	127
571.8834920634921	572.057641723356	69	127
571.8834920634921	572.057641723356	66	127
571.8834920634921	572.057641723356	57	127
572.057641723356	573.1373696145125	38	127
572.057641723356	573.1373696145125	74	127
572.057641723356	573.1373696145125	62	127
572.057641723356	573.1373696145125	62	127
572.7542176870749	572.893560090703	57	127
572.7542176870749	572.893560090703	54	127
573.0328798185941	573.1025396825397	58	127
573.0328798185941	573.1025396825397	55	127
573.1838095238095	573.2534693877551	54	127
573.1838095238095	573.2534693877551	57	127
573.2534693877551	573.6133786848072	55	127
573.2534693877551	573.6133786848072	58	127
573.6133786848072	574.3564172335601	57	127
573.6133786848072	574.7279365079365	38	127
573.6133786848072	574.3564172335601	60	127
573.6133786848072	574.7279365079365	62	127
573.6133786848072	574.7279365079365	62	127
573.6133786848072	574.7279365079365	74	127
574.3680272108844	574.4957369614513	55	127
574.3680272108844	574.4957369614513	58	127
574.6350566893424	574.7395464852608	54	127
574.6350566893424	574.7395464852608	57	127
574.8556462585034	574.9369160997733	55	127
574.8556462585034	574.9369160997733	58	127
574.9369160997733	575.5986848072563	62	127
574.9369160997733	575.5986848072563	62	127
574.9369160997733	575.9934240362812	58	127
574.9369160997733	575.5986848072563	74	127
574.9369160997733	575.9934240362812	62	127
574.9369160997733	575.9934240362812	38	127
575.6102721088436	575.761224489796	70	127
575.6102721088436	575.761224489796	67	127
575.6102721088436	575.761224489796	58	127
575.9005442176871	575.9702040816327	60	127
575.9005442176871	575.9702040816327	72	127
575.9005442176871	575.9702040816327	69	127
576.0398639455782	576.1095238095238	67	127
576.0398639455782	576.1095238095238	58	127
576.0398639455782	576.1095238095238	70	127
576.1095238095238	576.7945124716554	72	127
576.1095238095238	576.7945124716554	69	127
576.1095238095238	576.7945124716554	60	127
576.7945124716554	577.6304308390023	74	127
576.7945124716554	577.6304308390023	70	127
576.7945124716554	577.6304308390023	62	127
576.7945124716554	578.0832199546485	38	127
577.6420408163266	577.8161904761905	72	127
577.6420408163266	577.8161904761905	69	127
577.6420408163266	577.8161904761905	60	127
577.9787301587302	578.0948299319728	70	127
577.9787301587302	578.0948299319728	67	127
577.9787301587302	578.0948299319728	58	127
578.2689569160998	578.501179138322	69	127
578.2689569160998	578.501179138322	66	127
578.2689569160998	578.501179138322	57	127
578.501179138322	579.5460770975056	74	127
578.501179138322	579.5460770975056	62	127
578.501179138322	579.5460770975056	62	127
578.501179138322	579.5460770975056	38	127
579.1745578231292	579.3138775510204	66	127
579.1745578231292	579.3138775510204	62	127
579.4531972789116	579.5228571428571	64	127
579.4531972789116	579.5228571428571	67	127
579.604126984127	579.6621768707483	66	127
579.604126984127	579.6621768707483	62	127
579.6621768707483	580.1149433106576	67	127
579.6621768707483	580.1149433106576	64	127
580.1149433106576	580.753514739229	66	127
580.1149433106576	580.753514739229	69	127
580.1149433106576	581.1598639455782	74	127
580.1149433106576	581.1598639455782	57	127
580.1149433106576	581.1598639455782	57	127
580.1149433106576	581.1598639455782	45	127
580.7651247165533	580.9160544217688	67	127
580.7651247165533	580.9160544217688	64	127
581.0669841269842	581.2875736961452	66	127
581.0669841269842	581.2875736961452	62	127
581.4965532879819	582.1351020408164	67	127
581.4965532879819	582.1351020408164	64	127
581.4965532879819	582.7504308390023	74	127
581.4965532879819	582.7504308390023	57	127
581.4965532879819	582.7504308390023	57	127
581.4965532879819	582.7504308390023	45	127
582.1466893424036	582.2860317460318	64	127
582.1466893424036	582.2860317460318	57	127
582.6111111111111	582.7272108843538	62	127
582.6111111111111	582.7272108843538	66	127
582.7968707482993	582.8665306122449	64	127
582.7968707482993	582.8665306122449	57	127
582.8665306122449	583.354149659864	66	127
582.8665306122449	583.354149659864	62	127
583.354149659864	584.3642176870749	73	127
583.354149659864	583.9578684807257	67	127
583.354149659864	583.9578684807257	64	127
583.354149659864	584.3642176870749	57	127
583.354149659864	584.3642176870749	57	127
583.354149659864	584.3642176870749	45	127
583.9694784580499	584.1204081632653	66	127
583.9694784580499	584.1204081632653	57	127
584.2713378684807	584.410634920635	64	127
584.2713378684807	584.410634920635	55	127
585.037596371882	586.3495238095238	74	127
585.037596371882	586.3495238095238	50	127
585.037596371882	586.3495238095238	38	127
585.037596371882	586.3495238095238	62	127
585.037596371882	585.6645351473923	62	127
585.037596371882	585.6645351473923	54	127
585.6761451247165	586.5817233560091	57	127
585.6761451247165	586.5817233560091	54	127
586.5817233560091	587.5685714285714	62	127
586.5817233560091	587.5685714285714	74	127
586.5817233560091	587.5685714285714	59	127
586.5817233560091	587.5685714285714	55	127
586.5817233560091	587.5685714285714	50	127
586.5817233560091	587.5685714285714	38	127
586.5817233560091	587.5685714285714	43	127
588.4044897959184	588.9849886621315	57	127
588.4044897959184	588.9849886621315	54	127
588.4044897959184	588.9849886621315	50	127
588.4044897959184	589.3913378684807	74	127
588.4044897959184	589.3913378684807	62	127
588.4044897959184	589.3913378684807	38	127
588.4044897959184	589.3913378684807	45	127
588.9965986394558	589.6119274376417	54	127
588.9965986394558	589.6119274376417	50	127
588.9965986394558	589.6119274376417	45	127
589.6119274376417	590.5987755102041	62	127
589.6119274376417	590.5987755102041	74	127
589.6119274376417	590.5987755102041	55	127
589.6119274376417	590.5987755102041	50	127
589.6119274376417	590.5987755102041	47	127
589.6119274376417	590.5987755102041	38	127
589.6119274376417	590.5987755102041	43	127
590.772925170068	591.829433106576	62	127
590.772925170068	591.829433106576	54	127
590.772925170068	591.829433106576	50	127
590.772925170068	591.829433106576	45	127
590.772925170068	591.829433106576	74	127
590.772925170068	591.829433106576	38	127
592.0268027210884	593.2226303854875	43	127
592.0268027210884	593.2226303854875	74	127
592.0268027210884	593.2226303854875	62	127
592.0268027210884	593.2226303854875	52	127
592.0268027210884	593.2226303854875	50	127
592.0268027210884	593.2226303854875	38	127
593.4780498866213	598.2497505668935	45	127
593.4780498866213	598.2497505668935	62	127
593.4780498866213	598.2497505668935	54	127
593.4780498866213	598.2497505668935	50	127
593.4780498866213	598.2497505668935	74	127
593.4780498866213	598.2497505668935	38	127
604.9370975056689	605.8774829931973	45	127
