# onset,offset,note,velocity
2.878503401360544	3.017823129251701	60	127
3.1687528344671203	3.3312925170068026	57	127
3.1687528344671203	3.3312925170068026	65	127
3.43578231292517	3.5983219954648527	60	127
3.43578231292517	3.5983219954648527	67	127
3.760861678004535	3.9001814058956916	69	127
3.760861678004535	3.9001814058956916	65	127
4.051111111111111	4.213650793650793	65	127
4.051111111111111	4.213650793650793	57	127
4.387800453514739	4.678049886621316	60	127
4.387800453514739	4.46907029478458	67	127
4.46907029478458	4.527120181405896	69	127
4.527120181405896	4.678049886621316	67	127
4.678049886621316	4.794149659863946	69	127
4.678049886621316	4.794149659863946	65	127
4.956689342403628	5.11922902494331	65	127
4.956689342403628	5.11922902494331	57	127
5.246916099773243	5.339818594104308	62	127
5.246916099773243	5.339818594104308	70	127
5.246916099773243	5.339818594104308	50	127
5.339818594104308	5.4675283446712015	52	127
5.4675283446712015	5.641678004535147	69	127
5.4675283446712015	5.641678004535147	60	127
5.4675283446712015	5.7345578231292516	53	127
5.7693877551020405	5.908707482993197	65	127
5.7693877551020405	5.908707482993197	57	127
6.013197278911565	6.082857142857143	67	127
6.013197278911565	6.3382766439909295	60	127
6.082857142857143	6.164126984126984	69	127
6.164126984126984	6.3382766439909295	67	127
6.3382766439909295	6.442766439909297	65	127
6.3382766439909295	6.442766439909297	69	127
6.582086167800454	6.744625850340136	65	127
6.582086167800454	6.744625850340136	57	127
6.9071655328798185	7.011655328798186	74	127
6.9071655328798185	7.011655328798186	70	127
6.9071655328798185	7.011655328798186	62	127
7.011655328798186	7.162585034013605	64	127
7.1741950113378685	7.301904761904762	72	127
7.1741950113378685	7.301904761904762	69	127
7.1741950113378685	7.418004535147392	65	127
7.4760544217687075	7.626984126984127	65	127
7.4760544217687075	7.626984126984127	69	127
7.7430839002267575	7.90562358276644	65	127
7.7430839002267575	7.90562358276644	50	127
7.7430839002267575	7.90562358276644	74	127
7.90562358276644	8.068163265306122	52	127
7.90562358276644	8.068163265306122	70	127
7.90562358276644	8.068163265306122	62	127
8.068163265306122	8.20748299319728	53	127
8.068163265306122	8.579002267573696	69	127
8.068163265306122	8.579002267573696	60	127
8.20748299319728	8.358412698412698	55	127
8.358412698412698	8.497732426303855	53	127
8.497732426303855	8.660272108843538	52	127
8.660272108843538	8.799591836734693	74	127
8.660272108843538	8.799591836734693	62	127
8.660272108843538	8.799591836734693	50	127
8.660272108843538	8.799591836734693	77	127
8.799591836734693	8.950521541950113	52	127
8.799591836734693	8.950521541950113	74	127
8.799591836734693	8.950521541950113	70	127
8.799591836734693	8.950521541950113	64	127
8.950521541950113	9.101451247165533	65	127
8.950521541950113	9.101451247165533	53	127
8.950521541950113	9.380090702947847	72	127
8.950521541950113	9.380090702947847	69	127
9.101451247165533	9.194331065759638	67	127
9.101451247165533	9.194331065759638	55	127
9.194331065759638	9.298820861678005	53	127
9.194331065759638	9.298820861678005	65	127
9.298820861678005	9.461360544217687	64	127
9.298820861678005	9.461360544217687	52	127
9.461360544217687	9.635510204081633	81	127
9.461360544217687	9.635510204081633	69	127
9.461360544217687	9.635510204081633	62	127
9.461360544217687	9.635510204081633	50	127
9.635510204081633	9.786439909297052	77	127
9.635510204081633	9.786439909297052	74	127
9.635510204081633	9.786439909297052	65	127
9.635510204081633	9.786439909297052	53	127
9.786439909297052	9.914149659863945	71	127
9.786439909297052	9.914149659863945	74	127
9.786439909297052	9.914149659863945	55	127
9.786439909297052	9.925759637188209	67	127
9.925759637188209	10.076666666666666	76	127
9.925759637188209	10.076666666666666	72	127
9.925759637188209	10.076666666666666	55	127
10.076666666666666	10.227619047619047	77	127
10.076666666666666	10.227619047619047	74	127
10.076666666666666	10.227619047619047	67	127
10.227619047619047	10.390136054421768	76	127
10.227619047619047	10.390136054421768	72	127
10.401768707482994	10.50625850340136	77	127
10.401768707482994	10.50625850340136	74	127
10.401768707482994	10.50625850340136	55	127
10.50625850340136	10.633968253968254	79	127
10.50625850340136	10.633968253968254	67	127
10.50625850340136	10.633968253968254	59	127
10.633968253968254	10.784897959183674	76	127
10.633968253968254	10.784897959183674	72	127
10.633968253968254	10.796507936507936	60	127
10.796507936507936	10.959047619047618	77	127
10.796507936507936	10.959047619047618	74	127
10.796507936507936	10.959047619047618	48	127
10.959047619047618	11.098367346938776	79	127
10.959047619047618	11.098367346938776	76	127
10.959047619047618	11.098367346938776	60	127
11.098367346938776	11.22607709750567	77	127
11.098367346938776	11.22607709750567	74	127
11.237687074829932	11.353786848072563	76	127
11.237687074829932	11.353786848072563	79	127
11.237687074829932	11.353786848072563	60	127
11.353786848072563	11.504716553287983	81	127
11.353786848072563	11.504716553287983	72	127
11.353786848072563	11.504716553287983	64	127
11.504716553287983	11.644036281179138	77	127
11.504716553287983	11.644036281179138	74	127
11.504716553287983	11.644036281179138	67	127
11.644036281179138	11.736916099773243	79	127
11.644036281179138	11.736916099773243	76	127
11.644036281179138	11.736916099773243	55	127
11.736916099773243	11.864625850340136	81	127
11.736916099773243	11.864625850340136	77	127
11.736916099773243	11.864625850340136	67	127
11.876235827664399	12.050385487528345	83	127
11.876235827664399	12.050385487528345	79	127
12.050385487528345	12.22453514739229	84	127
12.050385487528345	12.22453514739229	81	127
12.050385487528345	12.22453514739229	67	127
12.22453514739229	12.387074829931972	86	127
12.22453514739229	12.387074829931972	77	127
12.22453514739229	12.387074829931972	55	127
12.22453514739229	12.387074829931972	71	127
12.398684807256236	12.955963718820861	60	127
12.398684807256236	12.561224489795919	72	127
12.398684807256236	12.955963718820861	88	127
12.398684807256236	12.955963718820861	76	127
12.398684807256236	12.955963718820861	67	127
12.561224489795919	12.723764172335601	60	127
12.723764172335601	12.886303854875283	72	127
13.362312925170068	13.548072562358277	60	127
13.722222222222221	13.873151927437641	65	127
13.722222222222221	13.873151927437641	57	127
14.035691609977324	14.20984126984127	60	127
14.035691609977324	14.20984126984127	67	127
14.314331065759637	14.453650793650795	69	127
14.314331065759637	14.453650793650795	65	127
14.62780045351474	14.77873015873016	65	127
14.62780045351474	14.77873015873016	57	127
14.941269841269841	15.022539682539682	67	127
14.941269841269841	15.254739229024944	60	127
15.022539682539682	15.092199546485261	69	127
15.092199546485261	15.254739229024944	67	127
15.254739229024944	15.440498866213153	69	127
15.254739229024944	15.440498866213153	65	127
15.603038548752835	15.719138321995464	65	127
15.603038548752835	15.719138321995464	57	127
15.846848072562358	15.962947845804988	70	127
15.846848072562358	15.962947845804988	62	127
15.846848072562358	15.962947845804988	50	127
15.962947845804988	16.090657596371884	52	127
16.090657596371884	16.276394557823128	53	127
16.090657596371884	16.241587301587302	69	127
16.090657596371884	16.241587301587302	60	127
16.334444444444443	16.49700680272109	57	127
16.334444444444443	16.49700680272109	65	127
16.624716553287982	16.69437641723356	67	127
16.624716553287982	16.91496598639456	60	127
16.69437641723356	16.7756462585034	69	127
16.7756462585034	16.91496598639456	67	127
16.91496598639456	17.054285714285715	65	127
16.91496598639456	17.054285714285715	69	127
17.216825396825396	17.356145124716555	65	127
17.216825396825396	17.356145124716555	57	127
17.48385487528345	17.64639455782313	74	127
17.48385487528345	17.64639455782313	70	127
17.48385487528345	17.64639455782313	62	127
17.64639455782313	17.797301587301586	64	127
17.808934240362813	17.95986394557823	72	127
17.808934240362813	17.95986394557823	69	127
17.808934240362813	18.006303854875284	65	127
18.017913832199547	18.18045351473923	69	127
18.017913832199547	18.18045351473923	65	127
18.34299319727891	18.482312925170067	74	127
18.34299319727891	18.482312925170067	65	127
18.34299319727891	18.482312925170067	50	127
18.482312925170067	18.63324263038549	70	127
18.482312925170067	18.63324263038549	62	127
18.482312925170067	18.63324263038549	52	127
18.64485260770975	19.19049886621315	60	127
18.64485260770975	18.79578231292517	53	127
18.64485260770975	19.19049886621315	69	127
18.79578231292517	18.958321995464853	55	127
18.958321995464853	19.10925170068027	53	127
19.10925170068027	19.248571428571427	52	127
19.248571428571427	19.387891156462587	77	127
19.248571428571427	19.387891156462587	74	127
19.248571428571427	19.387891156462587	62	127
19.248571428571427	19.387891156462587	50	127
19.387891156462587	19.527210884353742	74	127
19.387891156462587	19.527210884353742	70	127
19.387891156462587	19.527210884353742	64	127
19.387891156462587	19.527210884353742	52	127
19.538820861678005	19.67814058956916	65	127
19.538820861678005	19.67814058956916	53	127
19.538820861678005	20.06126984126984	69	127
19.538820861678005	20.06126984126984	72	127
19.67814058956916	19.829070294784582	55	127
19.67814058956916	19.829070294784582	67	127
19.829070294784582	19.98	53	127
19.829070294784582	19.98	65	127
19.98	20.14251700680272	64	127
19.98	20.14251700680272	52	127
20.14251700680272	20.24702947845805	81	127
20.14251700680272	20.24702947845805	69	127
20.14251700680272	20.24702947845805	62	127
20.14251700680272	20.24702947845805	50	127
20.24702947845805	20.409569160997734	77	127
20.24702947845805	20.409569160997734	74	127
20.24702947845805	20.409569160997734	65	127
20.24702947845805	20.409569160997734	53	127
20.409569160997734	20.5140589569161	71	127
20.409569160997734	20.5140589569161	74	127
20.409569160997734	20.5140589569161	55	127
20.409569160997734	20.5140589569161	67	127
20.5140589569161	20.688208616780045	55	127
20.5140589569161	20.676598639455783	72	127
20.5140589569161	20.676598639455783	76	127
20.688208616780045	20.8275283446712	77	127
20.688208616780045	20.8275283446712	74	127
20.688208616780045	20.8275283446712	67	127
20.8275283446712	20.978458049886623	72	127
20.8275283446712	20.978458049886623	76	127
20.978458049886623	21.11777777777778	77	127
20.978458049886623	21.11777777777778	74	127
20.978458049886623	21.12938775510204	55	127
21.12938775510204	21.280294784580498	79	127
21.12938775510204	21.280294784580498	67	127
21.12938775510204	21.280294784580498	59	127
21.280294784580498	21.41963718820862	76	127
21.280294784580498	21.41963718820862	72	127
21.280294784580498	21.41963718820862	60	127
21.41963718820862	21.5821768707483	77	127
21.41963718820862	21.5821768707483	74	127
21.41963718820862	21.59378684807256	48	127
21.59378684807256	21.721496598639455	79	127
21.59378684807256	21.721496598639455	76	127
21.59378684807256	21.721496598639455	60	127
21.721496598639455	21.88403628117914	77	127
21.721496598639455	21.88403628117914	74	127
21.88403628117914	22.058185941043085	79	127
21.88403628117914	22.058185941043085	76	127
21.88403628117914	22.058185941043085	60	127
22.058185941043085	22.16267573696145	81	127
22.058185941043085	22.16267573696145	72	127
22.058185941043085	22.16267573696145	64	127
22.16267573696145	22.26716553287982	74	127
22.16267573696145	22.26716553287982	77	127
22.16267573696145	22.26716553287982	67	127
22.26716553287982	22.429705215419503	79	127
22.26716553287982	22.429705215419503	76	127
22.26716553287982	22.429705215419503	55	127
22.441315192743765	22.58063492063492	81	127
22.441315192743765	22.58063492063492	77	127
22.441315192743765	22.58063492063492	67	127
22.592244897959183	22.74315192743764	83	127
22.592244897959183	22.74315192743764	79	127
22.754784580498868	22.92891156462585	81	127
22.754784580498868	22.92891156462585	84	127
22.754784580498868	22.92891156462585	67	127
22.92891156462585	23.103083900226757	86	127
22.92891156462585	23.103083900226757	55	127
22.92891156462585	23.103083900226757	71	127
22.92891156462585	23.103083900226757	77	127
23.103083900226757	23.68358276643991	76	127
23.103083900226757	23.68358276643991	60	127
23.103083900226757	23.26562358276644	72	127
23.103083900226757	23.68358276643991	67	127
23.103083900226757	23.68358276643991	88	127
23.26562358276644	23.439750566893423	60	127
23.439750566893423	23.590702947845806	72	127
24.11315192743764	24.18281179138322	72	127
24.18281179138322	24.356961451247166	77	127
24.49628117913832	24.577551020408162	79	127
24.49628117913832	24.68204081632653	60	127
24.577551020408162	24.68204081632653	80	127
24.68204081632653	24.844580498866215	79	127
24.844580498866215	25.007120181405895	65	127
24.844580498866215	25.425079365079366	80	127
25.16965986394558	25.343809523809522	67	127
25.48312925170068	25.692108843537415	72	127
25.48312925170068	25.541179138321997	56	127
25.48312925170068	25.692108843537415	80	127
25.48312925170068	25.692108843537415	68	127
25.48312925170068	25.692108843537415	75	127
25.692108843537415	25.854648526077096	61	127
25.692108843537415	26.21455782312925	73	127
25.692108843537415	26.21455782312925	80	127
25.692108843537415	26.21455782312925	68	127
25.692108843537415	26.21455782312925	77	127
26.028798185941042	26.13328798185941	63	127
26.29582766439909	26.609297052154194	77	127
26.29582766439909	26.446757369614513	53	127
26.29582766439909	26.609297052154194	72	127
26.29582766439909	26.609297052154194	80	127
26.29582766439909	26.609297052154194	68	127
26.29582766439909	26.609297052154194	65	127
26.609297052154194	27.108526077097505	68	127
26.609297052154194	27.108526077097505	73	127
26.609297052154194	27.108526077097505	80	127
26.609297052154194	27.108526077097505	65	127
26.609297052154194	26.748616780045353	58	127
26.609297052154194	27.108526077097505	77	127
26.922766439909296	27.073696145124718	60	127
27.18979591836735	27.514875283446713	77	127
27.18979591836735	27.36394557823129	46	127
27.18979591836735	27.514875283446713	73	127
27.18979591836735	27.514875283446713	82	127
27.18979591836735	27.514875283446713	68	127
27.18979591836735	27.514875283446713	65	127
27.18979591836735	27.514875283446713	61	127
27.514875283446713	28.095374149659865	61	127
27.514875283446713	27.689024943310656	51	127
27.514875283446713	28.095374149659865	73	127
27.514875283446713	28.095374149659865	82	127
27.514875283446713	28.095374149659865	67	127
27.514875283446713	28.095374149659865	75	127
27.514875283446713	28.095374149659865	63	127
27.85156462585034	28.014104308390024	53	127
28.188253968253967	28.513333333333332	61	127
28.188253968253967	28.35079365079365	82	127
28.188253968253967	28.35079365079365	55	127
28.188253968253967	28.35079365079365	46	127
28.188253968253967	28.513333333333332	67	127
28.188253968253967	28.513333333333332	73	127
28.188253968253967	28.513333333333332	63	127
28.35079365079365	28.513333333333332	84	127
28.513333333333332	28.6178231292517	63	127
28.513333333333332	28.6178231292517	51	127
28.513333333333332	28.6178231292517	82	127
28.513333333333332	28.977732426303856	67	127
28.513333333333332	28.977732426303856	73	127
28.513333333333332	28.977732426303856	63	127
28.513333333333332	28.977732426303856	61	127
28.6178231292517	28.73392290249433	80	127
28.73392290249433	28.88485260770975	79	127
28.73392290249433	28.88485260770975	65	127
28.73392290249433	28.88485260770975	53	127
28.88485260770975	29.03578231292517	80	127
29.047392290249434	29.360861678004536	67	127
29.047392290249434	29.360861678004536	82	127
29.047392290249434	29.209931972789114	55	127
29.047392290249434	29.360861678004536	73	127
29.047392290249434	29.360861678004536	63	127
29.047392290249434	29.360861678004536	61	127
29.047392290249434	29.209931972789114	67	127
29.360861678004536	29.535011337868482	51	127
29.360861678004536	29.941360544217687	82	127
29.360861678004536	29.941360544217687	67	127
29.360861678004536	29.941360544217687	73	127
29.360861678004536	29.941360544217687	63	127
29.360861678004536	29.941360544217687	61	127
29.697551020408163	29.87170068027211	53	127
29.98780045351474	30.127120181405896	55	127
29.98780045351474	30.127120181405896	82	127
29.98780045351474	30.301269841269843	61	127
29.98780045351474	30.301269841269843	67	127
29.98780045351474	30.301269841269843	73	127
29.98780045351474	30.301269841269843	63	127
30.127120181405896	30.301269841269843	84	127
30.301269841269843	30.463809523809523	39	127
30.301269841269843	30.463809523809523	82	127
30.301269841269843	30.788888888888888	67	127
30.301269841269843	30.788888888888888	73	127
30.301269841269843	30.788888888888888	63	127
30.301269841269843	30.788888888888888	61	127
30.463809523809523	30.614739229024945	80	127
30.614739229024945	30.707619047619048	79	127
30.614739229024945	30.707619047619048	41	127
30.707619047619048	30.858548752834466	80	127
30.858548752834466	31.183628117913834	73	127
30.858548752834466	31.183628117913834	61	127
30.858548752834466	31.009478458049887	43	127
30.858548752834466	31.183628117913834	82	127
30.858548752834466	31.183628117913834	67	127
30.858548752834466	31.183628117913834	63	127
31.183628117913834	31.334557823129252	64	127
31.183628117913834	31.334557823129252	52	127
31.183628117913834	31.729297052154195	82	127
31.183628117913834	31.729297052154195	67	127
31.183628117913834	31.729297052154195	72	127
31.183628117913834	31.729297052154195	64	127
31.183628117913834	31.729297052154195	60	127
31.473877551020408	31.648027210884354	53	127
31.473877551020408	31.648027210884354	65	127
31.798956916099772	31.949886621315194	67	127
31.798956916099772	31.949886621315194	55	127
31.798956916099772	32.10081632653061	72	127
31.798956916099772	32.10081632653061	79	127
31.798956916099772	32.10081632653061	64	127
31.798956916099772	32.10081632653061	60	127
31.798956916099772	31.949886621315194	82	127
31.949886621315194	32.10081632653061	84	127
32.10081632653061	32.611655328798186	60	127
32.10081632653061	32.21691609977324	82	127
32.10081632653061	32.21691609977324	52	127
32.10081632653061	32.611655328798186	72	127
32.10081632653061	32.611655328798186	79	127
32.10081632653061	32.611655328798186	64	127
32.21691609977324	32.379455782312924	80	127
32.379455782312924	32.51877551020408	79	127
32.379455782312924	32.51877551020408	53	127
32.51877551020408	32.69292517006803	82	127
32.70453514739229	32.832244897959185	55	127
32.70453514739229	32.994784580498866	83	127
32.70453514739229	32.994784580498866	72	127
32.70453514739229	32.994784580498866	79	127
32.70453514739229	32.994784580498866	64	127
32.70453514739229	32.994784580498866	60	127
32.994784580498866	33.528843537414964	72	127
32.994784580498866	33.528843537414964	79	127
32.994784580498866	33.528843537414964	64	127
32.994784580498866	33.23859410430839	83	127
32.994784580498866	33.13410430839002	40	127
32.994784580498866	33.528843537414964	60	127
33.28503401360544	33.435963718820865	41	127
33.28503401360544	33.435963718820865	79	127
33.435963718820865	33.61011337868481	83	127
33.61011337868481	33.97002267573696	79	127
33.61011337868481	33.78426303854875	43	127
33.61011337868481	33.97002267573696	84	127
33.61011337868481	33.97002267573696	64	127
33.61011337868481	33.97002267573696	55	127
33.61011337868481	33.97002267573696	48	127
33.61011337868481	33.97002267573696	72	127
33.61011337868481	33.97002267573696	60	127
33.97002267573696	34.852380952380955	60	127
33.97002267573696	34.202222222222225	84	127
33.97002267573696	34.202222222222225	72	127
33.97002267573696	34.202222222222225	79	127
33.97002267573696	34.852380952380955	64	127
33.97002267573696	34.852380952380955	48	127
33.97002267573696	34.852380952380955	55	127
33.97002267573696	34.852380952380955	36	127
34.2718820861678	34.37637188208617	82	127
34.2718820861678	34.37637188208617	79	127
34.37637188208617	34.48086167800454	76	127
34.37637188208617	34.48086167800454	79	127
34.48086167800454	34.57371882086168	76	127
34.48086167800454	34.57371882086168	72	127
34.57371882086168	34.66662131519274	72	127
34.57371882086168	34.66662131519274	70	127
34.66662131519274	34.77111111111111	67	127
34.66662131519274	34.77111111111111	70	127
34.77111111111111	34.852380952380955	64	127
34.77111111111111	34.852380952380955	67	127
34.852380952380955	34.93365079365079	64	127
34.852380952380955	34.93365079365079	60	127
34.93365079365079	35.08458049886622	48	127
34.93365079365079	35.08458049886622	60	127
35.21229024943311	35.36321995464853	53	127
35.21229024943311	35.36321995464853	65	127
35.21229024943311	35.36321995464853	57	127
35.21229024943311	35.36321995464853	48	127
35.53736961451247	35.67668934240363	55	127
35.53736961451247	35.67668934240363	67	127
35.53736961451247	35.67668934240363	60	127
35.53736961451247	35.67668934240363	52	127
35.83920634920635	35.95532879818594	69	127
35.83920634920635	35.95532879818594	65	127
35.83920634920635	35.95532879818594	57	127
35.83920634920635	35.95532879818594	53	127
36.117868480725626	36.268798185941044	48	127
36.117868480725626	36.268798185941044	65	127
36.117868480725626	36.268798185941044	57	127
36.117868480725626	36.268798185941044	53	127
36.41972789115646	36.74480725623583	52	127
36.41972789115646	36.500997732426306	67	127
36.41972789115646	36.500997732426306	55	127
36.41972789115646	36.74480725623583	60	127
36.500997732426306	36.57065759637188	57	127
36.500997732426306	36.57065759637188	69	127
36.57065759637188	36.74480725623583	67	127
36.57065759637188	36.74480725623583	55	127
36.74480725623583	36.884126984126986	57	127
36.74480725623583	36.884126984126986	69	127
36.74480725623583	36.884126984126986	65	127
36.74480725623583	36.884126984126986	53	127
37.04666666666667	37.17437641723356	53	127
37.04666666666667	37.17437641723356	65	127
37.04666666666667	37.17437641723356	57	127
37.04666666666667	37.17437641723356	48	127
37.33691609977324	37.49945578231293	62	127
37.33691609977324	37.418185941043085	50	127
37.33691609977324	37.49945578231293	58	127
37.33691609977324	37.49945578231293	70	127
37.49945578231293	37.55750566893424	52	127
37.615532879818595	37.76648526077098	60	127
37.615532879818595	37.76648526077098	69	127
37.615532879818595	37.76648526077098	57	127
37.615532879818595	37.76648526077098	53	127
37.83614512471655	37.963854875283445	48	127
37.83614512471655	37.963854875283445	65	127
37.83614512471655	37.963854875283445	57	127
37.83614512471655	37.963854875283445	53	127
38.1031746031746	38.42825396825397	52	127
38.1031746031746	38.17283446712018	67	127
38.1031746031746	38.17283446712018	55	127
38.1031746031746	38.42825396825397	60	127
38.17283446712018	38.25408163265306	57	127
38.17283446712018	38.25408163265306	69	127
38.25408163265306	38.42825396825397	67	127
38.25408163265306	38.42825396825397	55	127
38.42825396825397	38.59079365079365	57	127
38.42825396825397	38.59079365079365	69	127
38.42825396825397	38.59079365079365	65	127
38.42825396825397	38.59079365079365	53	127
38.730113378684806	38.834603174603174	53	127
38.730113378684806	38.834603174603174	65	127
38.730113378684806	38.834603174603174	57	127
38.730113378684806	38.834603174603174	48	127
38.997142857142855	39.113242630385486	62	127
38.997142857142855	39.113242630385486	74	127
38.997142857142855	39.113242630385486	70	127
38.997142857142855	39.113242630385486	50	127
39.113242630385486	39.27578231292517	64	127
39.113242630385486	39.27578231292517	52	127
39.27578231292517	39.41510204081633	69	127
39.27578231292517	39.41510204081633	72	127
39.27578231292517	39.41510204081633	65	127
39.27578231292517	39.41510204081633	53	127
39.58925170068027	39.75179138321995	48	127
39.58925170068027	39.75179138321995	69	127
39.58925170068027	39.75179138321995	65	127
39.58925170068027	39.75179138321995	60	127
39.90269841269841	40.07687074829932	62	127
39.90269841269841	40.07687074829932	74	127
39.90269841269841	40.07687074829932	65	127
39.90269841269841	40.07687074829932	50	127
40.07687074829932	40.21619047619048	64	127
40.07687074829932	40.21619047619048	70	127
40.07687074829932	40.21619047619048	62	127
40.07687074829932	40.21619047619048	52	127
40.21619047619048	40.680589569161	69	127
40.21619047619048	40.35551020408163	65	127
40.21619047619048	40.35551020408163	53	127
40.21619047619048	40.680589569161	60	127
40.35551020408163	40.483219954648526	55	127
40.35551020408163	40.483219954648526	67	127
40.483219954648526	40.61092970521542	65	127
40.483219954648526	40.61092970521542	53	127
40.61092970521542	40.76185941043084	64	127
40.61092970521542	40.76185941043084	52	127
40.76185941043084	40.93600907029479	50	127
40.76185941043084	40.93600907029479	77	127
40.76185941043084	40.93600907029479	62	127
40.76185941043084	40.93600907029479	74	127
40.93600907029479	41.11015873015873	70	127
40.93600907029479	41.11015873015873	74	127
40.93600907029479	41.11015873015873	64	127
40.93600907029479	41.11015873015873	52	127
41.11015873015873	41.58616780045352	69	127
41.11015873015873	41.284285714285716	65	127
41.11015873015873	41.284285714285716	53	127
41.11015873015873	41.58616780045352	72	127
41.284285714285716	41.4352380952381	55	127
41.284285714285716	41.4352380952381	67	127
41.4352380952381	41.551315192743765	65	127
41.4352380952381	41.551315192743765	53	127
41.551315192743765	41.667414965986396	62	127
41.551315192743765	41.667414965986396	50	127
41.67902494331066	41.853197278911566	60	127
41.67902494331066	41.853197278911566	81	127
41.67902494331066	41.853197278911566	69	127
41.67902494331066	41.853197278911566	76	127
41.67902494331066	41.853197278911566	48	127
41.853197278911566	42.015736961451246	62	127
41.853197278911566	42.015736961451246	77	127
41.853197278911566	42.015736961451246	74	127
41.853197278911566	42.015736961451246	50	127
42.015736961451246	42.189886621315196	52	127
42.015736961451246	42.189886621315196	64	127
42.015736961451246	42.56138321995465	76	127
42.015736961451246	42.56138321995465	68	127
42.015736961451246	42.56138321995465	71	127
42.189886621315196	42.340816326530614	54	127
42.189886621315196	42.340816326530614	66	127
42.340816326530614	42.48013605442177	68	127
42.340816326530614	42.48013605442177	56	127
42.48013605442177	42.63106575963719	69	127
42.48013605442177	42.63106575963719	57	127
42.63106575963719	42.79360544217687	71	127
42.63106575963719	42.79360544217687	59	127
42.63106575963719	42.9097052154195	59	127
42.63106575963719	42.9097052154195	68	127
42.63106575963719	42.9097052154195	52	127
42.63106575963719	42.79360544217687	76	127
42.79360544217687	42.956145124716556	74	127
42.79360544217687	42.956145124716556	77	127
42.79360544217687	42.956145124716556	62	127
42.956145124716556	43.51342403628118	69	127
42.956145124716556	43.09546485260771	76	127
42.956145124716556	43.09546485260771	72	127
42.956145124716556	43.09546485260771	60	127
42.956145124716556	43.188321995464854	57	127
42.956145124716556	43.51342403628118	60	127
43.09546485260771	43.24639455782313	71	127
43.09546485260771	43.24639455782313	59	127
43.09546485260771	43.24639455782313	74	127
43.24639455782313	43.42054421768707	57	127
43.24639455782313	43.432154195011336	72	127
43.24639455782313	43.536643990929704	45	127
43.24639455782313	43.42054421768707	69	127
43.432154195011336	43.59469387755102	74	127
43.59469387755102	43.757233560090704	36	127
43.59469387755102	43.757233560090704	60	127
43.59469387755102	43.757233560090704	48	127
43.59469387755102	43.85011337868481	69	127
43.59469387755102	43.85011337868481	72	127
43.59469387755102	44.372562358276646	76	127
43.757233560090704	43.90816326530612	62	127
43.757233560090704	43.90816326530612	50	127
43.757233560090704	43.89655328798186	38	127
43.90816326530612	44.372562358276646	68	127
43.90816326530612	44.0707029478458	64	127
43.90816326530612	44.0707029478458	52	127
43.90816326530612	44.18680272108843	40	127
43.90816326530612	44.372562358276646	71	127
44.0707029478458	44.23324263038549	66	127
44.0707029478458	44.23324263038549	54	127
44.23324263038549	44.2912925170068	68	127
44.23324263038549	44.2912925170068	56	127
44.2912925170068	44.45383219954648	69	127
44.2912925170068	44.45383219954648	57	127
44.45383219954648	44.67442176870748	52	127
44.45383219954648	44.59312925170068	76	127
44.45383219954648	44.59312925170068	71	127
44.45383219954648	44.59312925170068	59	127
44.45383219954648	44.67442176870748	59	127
44.45383219954648	44.67442176870748	68	127
44.59312925170068	44.720839002267574	62	127
44.59312925170068	44.720839002267574	77	127
44.59312925170068	44.720839002267574	74	127
44.720839002267574	44.88340136054422	76	127
44.720839002267574	44.88340136054422	60	127
44.720839002267574	45.243310657596375	60	127
44.720839002267574	45.243310657596375	69	127
44.720839002267574	44.98789115646259	57	127
44.720839002267574	44.88340136054422	72	127
44.88340136054422	45.022721088435375	71	127
44.88340136054422	45.022721088435375	59	127
44.88340136054422	45.022721088435375	74	127
45.022721088435375	45.16204081632653	69	127
45.022721088435375	45.16204081632653	57	127
45.022721088435375	45.17365079365079	72	127
45.022721088435375	45.2665306122449	45	127
45.17365079365079	45.31297052154195	74	127
45.31297052154195	46.125668934240366	76	127
45.31297052154195	45.47548752834467	36	127
45.31297052154195	45.4871201814059	60	127
45.31297052154195	45.4871201814059	48	127
45.31297052154195	45.568390022675736	67	127
45.31297052154195	45.568390022675736	72	127
45.4871201814059	45.61482993197279	62	127
45.4871201814059	45.61482993197279	43	127
45.4871201814059	45.61482993197279	50	127
45.61482993197279	45.76575963718821	64	127
45.61482993197279	45.76575963718821	52	127
45.61482993197279	45.84702947845805	48	127
45.61482993197279	46.125668934240366	67	127
45.61482993197279	46.125668934240366	70	127
45.76575963718821	45.893469387755104	65	127
45.76575963718821	45.893469387755104	53	127
45.893469387755104	46.04439909297052	55	127
45.893469387755104	46.04439909297052	67	127
46.04439909297052	46.18371882086168	57	127
46.04439909297052	46.18371882086168	69	127
46.18371882086168	46.34625850340136	70	127
46.18371882086168	46.34625850340136	58	127
46.18371882086168	46.439138321995465	67	127
46.18371882086168	46.439138321995465	48	127
46.18371882086168	46.34625850340136	76	127
46.34625850340136	46.49716553287982	74	127
46.34625850340136	46.49716553287982	77	127
46.34625850340136	46.49716553287982	62	127
46.49716553287982	47.01963718820862	70	127
46.49716553287982	46.659727891156464	76	127
46.49716553287982	46.659727891156464	72	127
46.49716553287982	46.659727891156464	60	127
46.49716553287982	46.740975056689344	60	127
46.49716553287982	47.01963718820862	67	127
46.659727891156464	46.78743764172336	70	127
46.659727891156464	46.78743764172336	58	127
46.659727891156464	46.78743764172336	74	127
46.78743764172336	46.938367346938776	72	127
46.78743764172336	46.938367346938776	67	127
46.78743764172336	46.938367346938776	55	127
46.78743764172336	47.05446712018141	48	127
46.938367346938776	47.100907029478456	74	127
47.100907029478456	47.25181405895692	48	127
47.100907029478456	47.367936507936506	67	127
47.100907029478456	47.263446712018144	76	127
47.100907029478456	47.263446712018144	70	127
47.100907029478456	47.263446712018144	58	127
47.100907029478456	47.25181405895692	36	127
47.263446712018144	47.425986394557825	74	127
47.263446712018144	47.425986394557825	55	127
47.263446712018144	47.425986394557825	43	127
47.263446712018144	47.425986394557825	77	127
47.263446712018144	47.425986394557825	62	127
47.425986394557825	47.9368253968254	67	127
47.425986394557825	47.55369614512472	76	127
47.425986394557825	47.55369614512472	72	127
47.425986394557825	47.55369614512472	60	127
47.425986394557825	47.66979591836735	60	127
47.425986394557825	47.66979591836735	48	127
47.425986394557825	47.9368253968254	70	127
47.55369614512472	47.72784580498866	70	127
47.55369614512472	47.72784580498866	58	127
47.55369614512472	47.72784580498866	74	127
47.72784580498866	47.971655328798185	36	127
47.72784580498866	47.855555555555554	67	127
47.72784580498866	47.855555555555554	55	127
47.72784580498866	47.855555555555554	72	127
47.72784580498866	47.971655328798185	48	127
47.855555555555554	48.018095238095235	74	127
48.029705215419504	48.134195011337866	76	127
48.029705215419504	48.134195011337866	58	127
48.029705215419504	48.134195011337866	48	127
48.029705215419504	48.134195011337866	36	127
48.029705215419504	48.134195011337866	70	127
48.029705215419504	48.134195011337866	67	127
48.134195011337866	48.28512471655329	74	127
48.134195011337866	48.28512471655329	77	127
48.134195011337866	48.28512471655329	70	127
48.134195011337866	48.28512471655329	55	127
48.134195011337866	48.28512471655329	43	127
48.134195011337866	48.28512471655329	62	127
48.28512471655329	48.55215419501134	60	127
48.28512471655329	48.44766439909297	79	127
48.28512471655329	48.44766439909297	76	127
48.28512471655329	48.44766439909297	72	127
48.28512471655329	48.44766439909297	60	127
48.28512471655329	48.55215419501134	48	127
48.44766439909297	48.61020408163265	70	127
48.44766439909297	48.59859410430839	81	127
48.44766439909297	48.59859410430839	77	127
48.44766439909297	48.61020408163265	58	127
48.61020408163265	48.86562358276644	36	127
48.61020408163265	48.77274376417233	82	127
48.61020408163265	48.77274376417233	79	127
48.61020408163265	48.77274376417233	67	127
48.61020408163265	48.77274376417233	55	127
48.61020408163265	48.86562358276644	48	127
48.784353741496595	48.900453514739226	84	127
48.784353741496595	48.900453514739226	81	127
48.912063492063496	49.074603174603176	82	127
48.912063492063496	49.074603174603176	64	127
48.912063492063496	49.074603174603176	72	127
48.912063492063496	49.074603174603176	60	127
48.912063492063496	49.16748299319728	48	127
48.912063492063496	49.16748299319728	60	127
48.912063492063496	49.074603174603176	86	127
49.074603174603176	49.21392290249433	88	127
49.074603174603176	49.21392290249433	79	127
49.21392290249433	49.504172335600906	53	127
49.21392290249433	49.37646258503401	41	127
49.21392290249433	49.37646258503401	48	127
49.21392290249433	49.504172335600906	89	127
49.21392290249433	49.504172335600906	81	127
49.21392290249433	49.504172335600906	65	127
49.21392290249433	49.504172335600906	69	127
49.21392290249433	49.504172335600906	60	127
49.30680272108844	49.562222222222225	53	127
49.30680272108844	49.562222222222225	57	127
49.74798185941043	49.89891156462585	72	127
49.74798185941043	49.89891156462585	84	127
49.74798185941043	49.89891156462585	72	127
49.74798185941043	49.89891156462585	60	127
49.89891156462585	50.02662131519274	74	127
49.89891156462585	50.02662131519274	86	127
49.89891156462585	50.02662131519274	74	127
49.89891156462585	50.02662131519274	62	127
50.02662131519274	50.14272108843537	64	127
50.02662131519274	50.14272108843537	88	127
50.02662131519274	50.14272108843537	76	127
50.02662131519274	50.14272108843537	76	127
50.154331065759635	50.34009070294785	89	127
50.154331065759635	50.34009070294785	77	127
50.154331065759635	50.34009070294785	65	127
50.154331065759635	50.34009070294785	77	127
50.154331065759635	50.270430839002266	41	127
50.154331065759635	50.270430839002266	48	127
50.212380952380954	50.39814058956916	53	127
50.212380952380954	50.39814058956916	57	127
50.96702947845805	51.22244897959184	72	127
51.303718820861675	51.46625850340136	77	127
51.51269841269841	51.71006802721089	60	127
51.51269841269841	51.628798185941044	79	127
51.628798185941044	51.71006802721089	80	127
51.71006802721089	51.84938775510204	79	127
51.84938775510204	52.41827664399093	80	127
51.84938775510204	52.011927437641724	65	127
52.18607709750567	52.33700680272109	67	127
52.48793650793651	52.778185941043084	68	127
52.48793650793651	52.65047619047619	56	127
52.48793650793651	52.778185941043084	72	127
52.48793650793651	52.778185941043084	80	127
52.48793650793651	52.778185941043084	75	127
52.778185941043084	52.894285714285715	61	127
52.778185941043084	53.277414965986395	73	127
52.778185941043084	53.277414965986395	80	127
52.778185941043084	53.277414965986395	68	127
52.778185941043084	53.277414965986395	77	127
53.02199546485261	53.18453514739229	63	127
53.35868480725624	53.52122448979592	53	127
53.35868480725624	53.6837641723356	72	127
53.35868480725624	53.6837641723356	65	127
53.35868480725624	53.6837641723356	68	127
53.35868480725624	53.6837641723356	77	127
53.35868480725624	53.6837641723356	80	127
53.6837641723356	54.25265306122449	77	127
53.6837641723356	53.85791383219954	58	127
53.6837641723356	54.25265306122449	65	127
53.6837641723356	54.25265306122449	73	127
53.6837641723356	54.25265306122449	80	127
53.6837641723356	54.25265306122449	68	127
54.02045351473923	54.18299319727891	60	127
54.33392290249433	54.647392290249435	65	127
54.33392290249433	54.49646258503402	46	127
54.33392290249433	54.647392290249435	73	127
54.33392290249433	54.647392290249435	82	127
54.33392290249433	54.647392290249435	68	127
54.33392290249433	54.647392290249435	77	127
54.33392290249433	54.647392290249435	61	127
54.647392290249435	55.22789115646258	82	127
54.647392290249435	55.22789115646258	75	127
54.647392290249435	54.809931972789116	51	127
54.647392290249435	55.22789115646258	61	127
54.647392290249435	55.22789115646258	63	127
54.647392290249435	55.22789115646258	73	127
54.647392290249435	55.22789115646258	67	127
54.972471655328796	55.146621315192746	53	127
55.297551020408164	55.58780045351474	61	127
55.297551020408164	55.460090702947845	82	127
55.297551020408164	55.460090702947845	55	127
55.297551020408164	55.460090702947845	46	127
55.297551020408164	55.58780045351474	63	127
55.297551020408164	55.58780045351474	67	127
55.297551020408164	55.58780045351474	73	127
55.460090702947845	55.58780045351474	84	127
55.58780045351474	56.1334693877551	61	127
55.58780045351474	55.73873015873016	82	127
55.58780045351474	55.73873015873016	63	127
55.58780045351474	55.73873015873016	51	127
55.58780045351474	56.1334693877551	67	127
55.58780045351474	56.1334693877551	73	127
55.58780045351474	56.1334693877551	63	127
55.73873015873016	55.901269841269844	80	127
55.901269841269844	56.063809523809525	53	127
55.901269841269844	56.063809523809525	79	127
55.901269841269844	56.063809523809525	65	127
56.063809523809525	56.21473922902494	80	127
56.21473922902494	56.53981859410431	63	127
56.21473922902494	56.37727891156462	67	127
56.21473922902494	56.37727891156462	55	127
56.21473922902494	56.53981859410431	82	127
56.21473922902494	56.53981859410431	67	127
56.21473922902494	56.53981859410431	73	127
56.21473922902494	56.53981859410431	61	127
56.53981859410431	57.050657596371884	61	127
56.53981859410431	56.70235827664399	51	127
56.53981859410431	57.050657596371884	73	127
56.53981859410431	57.050657596371884	63	127
56.53981859410431	57.050657596371884	82	127
56.53981859410431	57.050657596371884	67	127
56.85328798185941	57.00421768707483	53	127
57.08548752834467	57.39895691609977	63	127
57.08548752834467	57.259637188208615	82	127
57.08548752834467	57.259637188208615	55	127
57.08548752834467	57.39895691609977	61	127
57.08548752834467	57.39895691609977	67	127
57.08548752834467	57.39895691609977	73	127
57.259637188208615	57.39895691609977	84	127
57.39895691609977	57.933015873015876	73	127
57.39895691609977	57.53827664399093	82	127
57.39895691609977	57.53827664399093	39	127
57.39895691609977	57.933015873015876	63	127
57.39895691609977	57.933015873015876	61	127
57.39895691609977	57.933015873015876	67	127
57.53827664399093	57.68920634920635	80	127
57.68920634920635	57.85174603174603	41	127
57.68920634920635	57.85174603174603	79	127
57.85174603174603	58.01428571428571	80	127
58.01428571428571	58.1768253968254	43	127
58.01428571428571	58.33936507936508	82	127
58.01428571428571	58.33936507936508	67	127
58.01428571428571	58.33936507936508	73	127
58.01428571428571	58.33936507936508	61	127
58.01428571428571	58.33936507936508	63	127
58.33936507936508	58.93147392290249	64	127
58.33936507936508	58.513514739229024	64	127
58.33936507936508	58.513514739229024	52	127
58.33936507936508	58.93147392290249	72	127
58.33936507936508	58.93147392290249	60	127
58.33936507936508	58.93147392290249	82	127
58.33936507936508	58.93147392290249	67	127
58.676054421768704	58.850204081632654	65	127
58.676054421768704	58.850204081632654	53	127
58.97791383219955	59.233333333333334	64	127
58.97791383219955	59.14045351473923	82	127
58.97791383219955	59.14045351473923	67	127
58.97791383219955	59.14045351473923	55	127
58.97791383219955	59.233333333333334	60	127
58.97791383219955	59.233333333333334	72	127
58.97791383219955	59.233333333333334	79	127
59.14045351473923	59.233333333333334	84	127
59.233333333333334	59.75578231292517	72	127
59.233333333333334	59.3378231292517	82	127
59.233333333333334	59.3378231292517	52	127
59.233333333333334	59.75578231292517	79	127
59.233333333333334	59.75578231292517	64	127
59.233333333333334	59.75578231292517	60	127
59.3378231292517	59.50036281179138	80	127
59.50036281179138	59.674512471655326	79	127
59.50036281179138	59.674512471655326	53	127
59.674512471655326	59.848662131519276	82	127
59.848662131519276	59.97637188208617	55	127
59.848662131519276	60.0924716553288	83	127
59.848662131519276	60.0924716553288	72	127
59.848662131519276	60.0924716553288	79	127
59.848662131519276	60.0924716553288	60	127
59.848662131519276	60.0924716553288	64	127
60.0924716553288	60.603310657596374	64	127
60.0924716553288	60.23179138321996	40	127
60.0924716553288	60.324671201814056	83	127
60.0924716553288	60.603310657596374	72	127
60.0924716553288	60.603310657596374	79	127
60.0924716553288	60.603310657596374	60	127
60.35950113378685	60.52204081632653	79	127
60.35950113378685	60.52204081632653	41	127
60.52204081632653	60.69619047619047	83	127
60.69619047619047	60.87034013605442	43	127
60.69619047619047	61.00965986394558	84	127
60.69619047619047	61.00965986394558	72	127
60.69619047619047	61.00965986394558	79	127
60.69619047619047	61.00965986394558	60	127
60.69619047619047	61.00965986394558	64	127
60.69619047619047	61.00965986394558	48	127
60.69619047619047	61.00965986394558	55	127
61.00965986394558	61.27668934240363	84	127
61.00965986394558	61.27668934240363	72	127
61.00965986394558	61.27668934240363	79	127
61.00965986394558	61.95006802721088	60	127
61.00965986394558	61.95006802721088	64	127
61.00965986394558	61.95006802721088	48	127
61.00965986394558	61.95006802721088	55	127
61.00965986394558	61.95006802721088	36	127
61.33473922902494	61.45083900226757	82	127
61.33473922902494	61.45083900226757	79	127
61.45083900226757	61.54371882086168	76	127
61.45083900226757	61.54371882086168	79	127
61.54371882086168	61.65981859410431	72	127
61.54371882086168	61.65981859410431	76	127
61.65981859410431	61.76430839002268	70	127
61.65981859410431	61.76430839002268	72	127
61.76430839002268	61.85718820861678	67	127
61.76430839002268	61.85718820861678	70	127
61.85718820861678	61.95006802721088	64	127
61.85718820861678	61.95006802721088	67	127
61.95006802721088	62.0081179138322	64	127
61.95006802721088	62.0081179138322	60	127
62.019727891156464	62.12421768707483	60	127
62.019727891156464	62.12421768707483	48	127
62.26353741496599	62.402857142857144	48	127
62.26353741496599	62.402857142857144	57	127
62.26353741496599	62.402857142857144	65	127
62.26353741496599	62.402857142857144	53	127
62.48412698412698	62.635056689342406	55	127
62.48412698412698	62.635056689342406	67	127
62.48412698412698	62.635056689342406	60	127
62.48412698412698	62.635056689342406	52	127
62.7627664399093	62.92530612244898	57	127
62.7627664399093	62.92530612244898	69	127
62.7627664399093	62.92530612244898	65	127
62.7627664399093	62.92530612244898	53	127
63.05301587301587	63.169115646258504	57	127
63.05301587301587	63.169115646258504	48	127
63.05301587301587	63.169115646258504	65	127
63.05301587301587	63.169115646258504	53	127
63.331655328798185	63.65673469387755	52	127
63.331655328798185	63.65673469387755	60	127
63.331655328798185	63.41292517006803	67	127
63.331655328798185	63.41292517006803	55	127
63.41292517006803	63.494195011337865	69	127
63.41292517006803	63.494195011337865	57	127
63.494195011337865	63.65673469387755	55	127
63.494195011337865	63.65673469387755	67	127
63.65673469387755	63.79605442176871	53	127
63.65673469387755	63.79605442176871	69	127
63.65673469387755	63.79605442176871	65	127
63.65673469387755	63.79605442176871	57	127
63.97020408163265	64.13274376417233	53	127
63.97020408163265	64.13274376417233	65	127
63.97020408163265	64.13274376417233	57	127
63.97020408163265	64.13274376417233	48	127
64.24884353741497	64.39977324263039	58	127
64.24884353741497	64.30687074829932	50	127
64.24884353741497	64.39977324263039	70	127
64.24884353741497	64.39977324263039	62	127
64.39977324263039	64.46943310657596	52	127
64.5507029478458	64.70163265306122	57	127
64.5507029478458	64.70163265306122	69	127
64.5507029478458	64.70163265306122	60	127
64.5507029478458	64.70163265306122	53	127
64.86417233560091	64.9918820861678	53	127
64.86417233560091	64.9918820861678	65	127
64.86417233560091	64.9918820861678	57	127
64.86417233560091	64.9918820861678	48	127
65.13120181405895	65.46789115646258	60	127
65.13120181405895	65.22408163265307	67	127
65.13120181405895	65.22408163265307	55	127
65.13120181405895	65.46789115646258	52	127
65.22408163265307	65.3053514739229	57	127
65.22408163265307	65.3053514739229	69	127
65.3053514739229	65.46789115646258	55	127
65.3053514739229	65.46789115646258	67	127
65.46789115646258	65.63043083900227	53	127
65.46789115646258	65.63043083900227	69	127
65.46789115646258	65.63043083900227	65	127
65.46789115646258	65.63043083900227	57	127
65.75814058956917	65.87424036281179	53	127
65.75814058956917	65.87424036281179	65	127
65.75814058956917	65.87424036281179	57	127
65.75814058956917	65.87424036281179	48	127
66.00195011337868	66.10643990929705	50	127
66.00195011337868	66.10643990929705	74	127
66.00195011337868	66.10643990929705	70	127
66.00195011337868	66.10643990929705	62	127
66.10643990929705	66.26897959183674	64	127
66.10643990929705	66.26897959183674	52	127
66.26897959183674	66.44312925170068	53	127
66.26897959183674	66.44312925170068	72	127
66.26897959183674	66.44312925170068	69	127
66.26897959183674	66.44312925170068	65	127
66.5940589569161	66.74498866213152	60	127
66.5940589569161	66.74498866213152	69	127
66.5940589569161	66.74498866213152	65	127
66.5940589569161	66.74498866213152	48	127
66.89591836734694	67.01201814058957	62	127
66.89591836734694	67.01201814058957	74	127
66.89591836734694	67.01201814058957	65	127
66.89591836734694	67.01201814058957	50	127
67.01201814058957	67.162947845805	62	127
67.01201814058957	67.162947845805	70	127
67.01201814058957	67.162947845805	64	127
67.01201814058957	67.162947845805	52	127
67.162947845805	67.70861678004535	60	127
67.162947845805	67.31387755102041	65	127
67.162947845805	67.31387755102041	53	127
67.162947845805	67.70861678004535	69	127
67.31387755102041	67.47639455782313	55	127
67.31387755102041	67.47639455782313	67	127
67.47639455782313	67.61573696145125	65	127
67.47639455782313	67.61573696145125	53	127
67.61573696145125	67.76666666666667	64	127
67.61573696145125	67.76666666666667	52	127
67.76666666666667	67.92920634920635	62	127
67.76666666666667	67.92920634920635	77	127
67.76666666666667	67.92920634920635	74	127
67.76666666666667	67.92920634920635	50	127
67.92920634920635	68.1033560090703	64	127
67.92920634920635	68.09174603174603	74	127
67.92920634920635	68.09174603174603	70	127
67.92920634920635	68.1033560090703	52	127
68.1033560090703	68.6025850340136	72	127
68.1033560090703	68.26589569160998	65	127
68.1033560090703	68.26589569160998	53	127
68.1033560090703	68.6025850340136	69	127
68.26589569160998	68.40521541950113	55	127
68.26589569160998	68.40521541950113	67	127
68.40521541950113	68.55614512471655	65	127
68.40521541950113	68.55614512471655	53	127
68.55614512471655	68.64902494331066	62	127
68.55614512471655	68.64902494331066	50	127
68.64902494331066	68.81156462585034	48	127
68.64902494331066	68.81156462585034	81	127
68.64902494331066	68.81156462585034	69	127
68.64902494331066	68.81156462585034	76	127
68.64902494331066	68.81156462585034	60	127
68.81156462585034	68.92766439909298	62	127
68.81156462585034	68.9160544217687	77	127
68.81156462585034	68.9160544217687	74	127
68.81156462585034	68.92766439909298	50	127
68.92766439909298	69.40367346938775	68	127
68.92766439909298	69.0437641723356	64	127
68.92766439909298	69.0437641723356	52	127
68.92766439909298	69.40367346938775	76	127
68.92766439909298	69.40367346938775	71	127
69.0437641723356	69.18308390022676	66	127
69.0437641723356	69.18308390022676	54	127
69.18308390022676	69.32240362811791	68	127
69.18308390022676	69.32240362811791	56	127
69.32240362811791	69.4849433106576	69	127
69.32240362811791	69.4849433106576	57	127
69.4849433106576	69.74036281179139	52	127
69.4849433106576	69.62424036281179	76	127
69.4849433106576	69.62424036281179	71	127
69.4849433106576	69.62424036281179	59	127
69.4849433106576	69.74036281179139	59	127
69.4849433106576	69.74036281179139	68	127
69.62424036281179	69.7984126984127	77	127
69.62424036281179	69.7984126984127	74	127
69.62424036281179	69.7984126984127	62	127
69.7984126984127	69.94934240362812	72	127
69.7984126984127	69.94934240362812	60	127
69.7984126984127	70.30925170068028	60	127
69.7984126984127	70.30925170068028	69	127
69.7984126984127	70.06544217687075	57	127
69.7984126984127	69.94934240362812	76	127
69.94934240362812	70.10027210884354	71	127
69.94934240362812	70.10027210884354	59	127
69.94934240362812	70.10027210884354	74	127
70.10027210884354	70.23959183673469	69	127
70.10027210884354	70.23959183673469	57	127
70.10027210884354	70.23959183673469	72	127
70.10027210884354	70.3324716553288	45	127
70.23959183673469	70.39049886621315	74	127
70.39049886621315	70.65755102040816	69	127
70.39049886621315	70.5530612244898	36	127
70.39049886621315	70.56467120181406	60	127
70.39049886621315	70.56467120181406	48	127
70.39049886621315	70.65755102040816	72	127
70.39049886621315	71.22643990929706	76	127
70.56467120181406	70.71560090702948	62	127
70.56467120181406	70.71560090702948	50	127
70.56467120181406	70.71560090702948	38	127
70.71560090702948	71.22643990929706	68	127
70.71560090702948	70.87814058956916	64	127
70.71560090702948	70.87814058956916	52	127
70.71560090702948	70.959410430839	40	127
70.71560090702948	71.22643990929706	71	127
70.87814058956916	71.00585034013605	66	127
70.87814058956916	71.00585034013605	54	127
71.00585034013605	71.14517006802721	68	127
71.00585034013605	71.14517006802721	56	127
71.14517006802721	71.3077097505669	57	127
71.14517006802721	71.3077097505669	69	127
71.3077097505669	71.48185941043084	76	127
71.3077097505669	71.48185941043084	71	127
71.3077097505669	71.48185941043084	59	127
71.3077097505669	71.58634920634921	59	127
71.3077097505669	71.58634920634921	68	127
71.3077097505669	71.58634920634921	52	127
71.48185941043084	71.63278911564626	74	127
71.48185941043084	71.63278911564626	77	127
71.48185941043084	71.63278911564626	62	127
71.63278911564626	71.79530612244898	76	127
71.63278911564626	71.79530612244898	72	127
71.63278911564626	71.79530612244898	60	127
71.63278911564626	71.8998185941043	57	127
71.63278911564626	72.17843537414966	69	127
71.63278911564626	72.17843537414966	60	127
71.79530612244898	71.94625850340137	71	127
71.79530612244898	71.94625850340137	74	127
71.79530612244898	71.94625850340137	59	127
71.94625850340137	72.09718820861679	69	127
71.94625850340137	72.09718820861679	72	127
71.94625850340137	72.20167800453515	45	127
71.94625850340137	72.09718820861679	57	127
72.09718820861679	72.2481179138322	74	127
72.2481179138322	72.49192743764172	72	127
72.2481179138322	72.49192743764172	67	127
72.2481179138322	72.97954648526077	76	127
72.2481179138322	72.41065759637188	36	127
72.2481179138322	72.41065759637188	60	127
72.2481179138322	72.41065759637188	48	127
72.41065759637188	72.49192743764172	43	127
72.41065759637188	72.49192743764172	62	127
72.41065759637188	72.49192743764172	50	127
72.49192743764172	72.63124716553288	64	127
72.49192743764172	72.63124716553288	52	127
72.49192743764172	72.70090702947846	48	127
72.49192743764172	72.97954648526077	67	127
72.49192743764172	72.97954648526077	70	127
72.63124716553288	72.75895691609978	65	127
72.63124716553288	72.75895691609978	53	127
72.75895691609978	72.9098866213152	55	127
72.75895691609978	72.9098866213152	67	127
72.9098866213152	73.07240362811791	69	127
72.9098866213152	73.07240362811791	57	127
73.07240362811791	73.33945578231292	67	127
73.07240362811791	73.33945578231292	48	127
73.07240362811791	73.23496598639456	76	127
73.07240362811791	73.23496598639456	70	127
73.07240362811791	73.23496598639456	58	127
73.23496598639456	73.38589569160997	74	127
73.23496598639456	73.38589569160997	77	127
73.23496598639456	73.38589569160997	62	127
73.38589569160997	73.54843537414966	76	127
73.38589569160997	73.54843537414966	72	127
73.38589569160997	73.54843537414966	60	127
73.38589569160997	73.6297052154195	60	127
73.38589569160997	73.91995464852607	67	127
73.38589569160997	73.91995464852607	70	127
73.54843537414966	73.66453514739229	70	127
73.54843537414966	73.66453514739229	58	127
73.54843537414966	73.66453514739229	74	127
73.66453514739229	73.82707482993197	55	127
73.66453514739229	73.82707482993197	72	127
73.66453514739229	73.94315192743764	48	127
73.66453514739229	73.82707482993197	67	127
73.82707482993197	73.97800453514739	74	127
73.98961451247166	74.15215419501133	48	127
73.98961451247166	74.15215419501133	36	127
73.98961451247166	74.15215419501133	76	127
73.98961451247166	74.15215419501133	70	127
73.98961451247166	74.15215419501133	58	127
73.98961451247166	74.2566439909297	67	127
74.15215419501133	74.30308390022675	43	127
74.15215419501133	74.30308390022675	77	127
74.15215419501133	74.30308390022675	74	127
74.15215419501133	74.30308390022675	62	127
74.15215419501133	74.30308390022675	55	127
74.30308390022675	74.8371201814059	67	127
74.30308390022675	74.8371201814059	70	127
74.30308390022675	74.47723356009071	72	127
74.30308390022675	74.47723356009071	60	127
74.30308390022675	74.5817006802721	60	127
74.30308390022675	74.5817006802721	48	127
74.30308390022675	74.47723356009071	76	127
74.47723356009071	74.63977324263038	70	127
74.47723356009071	74.63977324263038	74	127
74.47723356009071	74.63977324263038	58	127
74.63977324263038	74.86036281179139	36	127
74.63977324263038	74.75587301587302	67	127
74.63977324263038	74.75587301587302	55	127
74.63977324263038	74.76748299319728	72	127
74.63977324263038	74.86036281179139	48	127
74.76748299319728	74.90680272108844	74	127
74.90680272108844	75.04612244897959	36	127
74.90680272108844	75.04612244897959	76	127
74.90680272108844	75.04612244897959	67	127
74.90680272108844	75.04612244897959	48	127
74.90680272108844	75.04612244897959	70	127
74.90680272108844	75.04612244897959	58	127
75.04612244897959	75.22024943310657	62	127
75.04612244897959	75.20866213151928	77	127
75.04612244897959	75.20866213151928	70	127
75.04612244897959	75.20866213151928	55	127
75.04612244897959	75.20866213151928	43	127
75.04612244897959	75.22024943310657	74	127
75.22024943310657	75.47566893424036	60	127
75.22024943310657	75.37120181405896	79	127
75.22024943310657	75.37120181405896	76	127
75.22024943310657	75.37120181405896	72	127
75.22024943310657	75.37120181405896	60	127
75.22024943310657	75.47566893424036	48	127
75.37120181405896	75.49891156462586	70	127
75.37120181405896	75.49891156462586	81	127
75.37120181405896	75.49891156462586	77	127
75.37120181405896	75.49891156462586	58	127
75.49891156462586	75.75433106575964	36	127
75.49891156462586	75.638231292517	82	127
75.49891156462586	75.638231292517	79	127
75.49891156462586	75.638231292517	67	127
75.49891156462586	75.638231292517	55	127
75.49891156462586	75.75433106575964	48	127
75.638231292517	75.81238095238095	81	127
75.638231292517	75.81238095238095	84	127
75.81238095238095	75.98650793650793	72	127
75.81238095238095	75.98650793650793	86	127
75.81238095238095	75.98650793650793	82	127
75.81238095238095	75.98650793650793	64	127
75.81238095238095	75.98650793650793	60	127
75.81238095238095	76.11421768707483	60	127
75.81238095238095	76.11421768707483	48	127
75.98650793650793	76.16068027210885	79	127
75.98650793650793	76.16068027210885	88	127
76.1722902494331	76.34641723356009	48	127
76.1722902494331	76.42770975056689	89	127
76.1722902494331	76.42770975056689	81	127
76.1722902494331	76.42770975056689	65	127
76.1722902494331	76.42770975056689	69	127
76.1722902494331	76.42770975056689	60	127
76.1722902494331	76.42770975056689	53	127
76.1722902494331	76.34641723356009	41	127
76.25356009070295	76.48575963718821	53	127
76.25356009070295	76.48575963718821	57	127
76.6482993197279	76.82244897959184	72	127
76.6482993197279	76.82244897959184	84	127
76.6482993197279	76.82244897959184	72	127
76.6482993197279	76.82244897959184	60	127
76.82244897959184	76.96176870748299	74	127
76.82244897959184	76.96176870748299	86	127
76.82244897959184	76.96176870748299	74	127
76.82244897959184	76.96176870748299	62	127
76.96176870748299	77.04303854875283	76	127
76.96176870748299	77.04303854875283	88	127
76.96176870748299	77.04303854875283	76	127
76.96176870748299	77.04303854875283	64	127
77.04303854875283	77.34489795918367	65	127
77.04303854875283	77.21718820861678	41	127
77.04303854875283	77.21718820861678	48	127
77.04303854875283	77.34489795918367	89	127
77.04303854875283	77.34489795918367	77	127
77.04303854875283	77.34489795918367	77	127
77.13589569160997	77.40294784580499	53	127
77.13589569160997	77.40294784580499	57	127
77.5538775510204	77.66997732426304	48	127
77.5538775510204	77.66997732426304	72	127
77.5538775510204	77.66997732426304	60	127
77.5538775510204	77.66997732426304	48	127
77.5538775510204	77.66997732426304	36	127
77.6815873015873	77.73963718820862	50	127
77.6815873015873	77.73963718820862	74	127
77.6815873015873	77.73963718820862	50	127
77.6815873015873	77.73963718820862	38	127
77.6815873015873	77.73963718820862	62	127
77.75122448979592	77.87893424036281	52	127
77.75122448979592	77.87893424036281	76	127
77.75122448979592	77.87893424036281	64	127
77.75122448979592	77.87893424036281	52	127
77.75122448979592	77.87893424036281	40	127
77.89056689342404	78.0298866213152	41	127
77.89056689342404	78.41301587301588	77	127
77.89056689342404	78.41301587301588	74	127
77.89056689342404	78.64519274376417	53	127
77.89056689342404	78.70326530612245	65	127
77.89056689342404	78.70326530612245	53	127
78.1343537414966	78.28530612244899	46	127
78.41301587301588	78.5639455782313	48	127
78.41301587301588	78.5639455782313	72	127
78.41301587301588	78.5639455782313	76	127
78.70326530612245	79.86426303854876	53	127
78.70326530612245	78.79614512471656	41	127
78.70326530612245	78.79614512471656	53	127
78.70326530612245	79.15603174603174	74	127
78.70326530612245	79.86426303854876	65	127
78.70326530612245	79.15603174603174	70	127
78.92385487528345	79.02832199546485	46	127
79.15603174603174	79.30698412698413	69	127
79.15603174603174	79.30698412698413	48	127
79.15603174603174	79.30698412698413	72	127
79.43469387755103	79.49274376417233	70	127
79.43469387755103	79.49274376417233	67	127
79.43469387755103	79.55079365079365	53	127
79.43469387755103	79.55079365079365	41	127
79.49274376417233	79.55079365079365	72	127
79.49274376417233	79.55079365079365	69	127
79.55079365079365	79.58562358276644	70	127
79.55079365079365	79.58562358276644	67	127
79.58562358276644	79.7249433106576	69	127
79.58562358276644	79.7249433106576	60	127
79.58562358276644	79.7249433106576	46	127
79.86426303854876	79.99197278911565	52	127
79.86426303854876	79.99197278911565	67	127
79.86426303854876	79.99197278911565	58	127
79.86426303854876	79.99197278911565	64	127
79.86426303854876	79.99197278911565	48	127
80.10807256235827	80.74662131519274	53	127
80.10807256235827	80.21256235827664	41	127
80.10807256235827	80.21256235827664	53	127
80.10807256235827	80.39832199546485	57	127
80.10807256235827	80.4447619047619	72	127
80.10807256235827	80.74662131519274	65	127
80.34027210884354	80.4447619047619	45	127
80.4447619047619	80.5724716553288	69	127
80.4447619047619	80.50281179138322	72	127
80.5724716553288	80.67696145124717	70	127
80.5724716553288	80.67696145124717	48	127
80.5724716553288	80.66532879818594	74	127
80.67696145124717	80.81628117913833	76	127
80.67696145124717	80.81628117913833	67	127
80.82789115646258	81.26907029478458	74	127
80.82789115646258	80.95560090702948	53	127
80.82789115646258	80.95560090702948	41	127
80.82789115646258	81.26907029478458	77	127
80.82789115646258	81.53609977324263	65	127
80.82789115646258	81.53609977324263	53	127
81.07170068027212	81.19941043083901	46	127
81.26907029478458	81.42	48	127
81.26907029478458	81.42	72	127
81.26907029478458	81.42	76	127
81.53609977324263	82.88285714285715	53	127
81.53609977324263	81.61736961451247	41	127
81.53609977324263	81.61736961451247	53	127
81.53609977324263	81.96566893424037	74	127
81.53609977324263	81.96566893424037	70	127
81.53609977324263	82.88285714285715	65	127
81.74507936507936	81.861179138322	46	127
81.96566893424037	82.11659863945579	48	127
81.96566893424037	82.11659863945579	69	127
81.96566893424037	82.11659863945579	72	127
82.2675283446712	82.40684807256235	55	127
82.2675283446712	82.32555555555555	71	127
82.2675283446712	82.32555555555555	67	127
82.2675283446712	82.40684807256235	43	127
82.32555555555555	82.40684807256235	69	127
82.32555555555555	82.40684807256235	72	127
82.40684807256235	82.54616780045352	71	127
82.40684807256235	82.54616780045352	67	127
82.54616780045352	82.63904761904762	69	127
82.54616780045352	82.63904761904762	60	127
82.54616780045352	82.63904761904762	48	127
82.70868480725623	82.84802721088435	59	127
82.70868480725623	82.84802721088435	50	127
82.70868480725623	82.84802721088435	67	127
82.91768707482993	83.03378684807257	43	127
82.91768707482993	83.03378684807257	55	127
82.91768707482993	83.10344671201814	64	127
82.91768707482993	83.10344671201814	72	127
82.91768707482993	83.03378684807257	64	127
82.91768707482993	83.03378684807257	52	127
83.11505668934241	83.30081632653061	74	127
83.11505668934241	83.20793650793651	62	127
83.11505668934241	83.20793650793651	50	127
83.11505668934241	83.20793650793651	48	127
83.11505668934241	83.30081632653061	65	127
83.3472335600907	83.48657596371882	60	127
83.3472335600907	83.48657596371882	48	127
83.3472335600907	83.48657596371882	52	127
83.3472335600907	83.53301587301587	76	127
83.3472335600907	83.53301587301587	67	127
83.59106575963719	83.75360544217688	71	127
83.59106575963719	83.70714285714286	62	127
83.59106575963719	83.70714285714286	50	127
83.59106575963719	83.70714285714286	55	127
83.59106575963719	83.70714285714286	43	127
83.59106575963719	83.75360544217688	77	127
83.75360544217688	83.92775510204082	65	127
83.75360544217688	83.93936507936507	76	127
83.75360544217688	83.9045351473923	50	127
83.75360544217688	83.92775510204082	53	127
83.75360544217688	83.93936507936507	67	127
83.98578231292517	84.12512471655329	43	127
83.98578231292517	84.12512471655329	71	127
83.98578231292517	84.12512471655329	59	127
83.98578231292517	84.12512471655329	55	127
83.98578231292517	84.1831746031746	74	127
83.98578231292517	84.1831746031746	65	127
84.22961451247166	84.60111111111111	48	127
84.22961451247166	84.39215419501134	64	127
84.22961451247166	84.39215419501134	64	127
84.22961451247166	84.60111111111111	72	127
84.22961451247166	84.60111111111111	60	127
84.22961451247166	84.60111111111111	52	127
84.22961451247166	84.60111111111111	64	127
84.22961451247166	84.60111111111111	72	127
84.3108843537415	84.60111111111111	79	127
84.3108843537415	84.60111111111111	79	127
84.63596371882086	84.76367346938775	48	127
84.63596371882086	84.76367346938775	72	127
84.63596371882086	84.76367346938775	60	127
84.63596371882086	84.76367346938775	48	127
84.63596371882086	84.76367346938775	36	127
84.76367346938775	84.83333333333333	50	127
84.76367346938775	84.83333333333333	74	127
84.76367346938775	84.83333333333333	62	127
84.76367346938775	84.83333333333333	50	127
84.76367346938775	84.83333333333333	38	127
84.83333333333333	84.96104308390022	40	127
84.83333333333333	84.96104308390022	76	127
84.83333333333333	84.96104308390022	64	127
84.83333333333333	84.96104308390022	52	127
84.83333333333333	84.96104308390022	52	127
84.96104308390022	85.72730158730158	53	127
84.96104308390022	85.08875283446712	41	127
84.96104308390022	85.43705215419502	77	127
84.96104308390022	85.43705215419502	74	127
84.96104308390022	85.65764172335601	53	127
84.96104308390022	85.72730158730158	65	127
85.22807256235828	85.35578231292517	46	127
85.43705215419502	85.57637188208616	72	127
85.43705215419502	85.57637188208616	48	127
85.43705215419502	85.57637188208616	76	127
85.72730158730158	86.88829931972789	65	127
85.72730158730158	85.83179138321995	41	127
85.72730158730158	85.83179138321995	53	127
85.72730158730158	86.14526077097506	74	127
85.72730158730158	86.14526077097506	70	127
85.72730158730158	86.88829931972789	53	127
85.93628117913832	86.06399092970521	46	127
86.14526077097506	86.29619047619047	48	127
86.14526077097506	86.29619047619047	69	127
86.14526077097506	86.29619047619047	72	127
86.36582766439909	86.48195011337869	53	127
86.36582766439909	86.41229024943311	70	127
86.36582766439909	86.41229024943311	67	127
86.36582766439909	86.48195011337869	41	127
86.41229024943311	86.48195011337869	69	127
86.41229024943311	86.48195011337869	72	127
86.48195011337869	86.60965986394558	70	127
86.48195011337869	86.60965986394558	67	127
86.60965986394558	86.74895691609977	60	127
86.60965986394558	86.74895691609977	69	127
86.60965986394558	86.74895691609977	46	127
86.88829931972789	87.01600907029479	67	127
86.88829931972789	87.01600907029479	64	127
86.88829931972789	87.01600907029479	52	127
86.88829931972789	87.01600907029479	48	127
86.88829931972789	87.01600907029479	58	127
87.14371882086168	87.45718820861678	72	127
87.14371882086168	87.75904761904762	53	127
87.14371882086168	87.75904761904762	65	127
87.14371882086168	87.2946485260771	41	127
87.14371882086168	87.2946485260771	53	127
87.14371882086168	87.45718820861678	57	127
87.37591836734694	87.45718820861678	45	127
87.45718820861678	87.52684807256236	72	127
87.45718820861678	87.59650793650793	69	127
87.59650793650793	87.7009977324263	74	127
87.59650793650793	87.7009977324263	70	127
87.59650793650793	87.7009977324263	48	127
87.7009977324263	87.8287074829932	76	127
87.7009977324263	87.8287074829932	67	127
87.8287074829932	87.95641723356009	41	127
87.8287074829932	88.47886621315193	65	127
87.8287074829932	87.95641723356009	53	127
87.8287074829932	88.47886621315193	53	127
87.8287074829932	88.22344671201814	77	127
87.8287074829932	88.22344671201814	74	127
88.06090702947846	88.18861678004535	46	127
88.22344671201814	88.33954648526077	72	127
88.22344671201814	88.33954648526077	76	127
88.22344671201814	88.33954648526077	48	127
88.47886621315193	89.80240362811791	53	127
88.47886621315193	88.59496598639456	41	127
88.47886621315193	89.80240362811791	65	127
88.47886621315193	89.00131519274376	74	127
88.47886621315193	89.00131519274376	70	127
88.47886621315193	88.59496598639456	53	127
88.72267573696145	88.86199546485261	46	127
89.00131519274376	89.1174149659864	72	127
89.00131519274376	89.1174149659864	69	127
89.00131519274376	89.1174149659864	48	127
89.2102947845805	89.32639455782314	55	127
89.2102947845805	89.25673469387755	71	127
89.2102947845805	89.25673469387755	67	127
89.2102947845805	89.32639455782314	43	127
89.25673469387755	89.32639455782314	69	127
89.25673469387755	89.32639455782314	72	127
89.32639455782314	89.36122448979592	71	127
89.32639455782314	89.36122448979592	67	127
89.37283446712019	89.47732426303855	60	127
89.37283446712019	89.47732426303855	48	127
89.37283446712019	89.47732426303855	69	127
89.60503401360545	89.70952380952382	50	127
89.60503401360545	89.70952380952382	67	127
89.60503401360545	89.70952380952382	59	127
89.87206349206349	89.97655328798186	43	127
89.87206349206349	89.97655328798186	64	127
89.87206349206349	89.97655328798186	52	127
89.87206349206349	89.97655328798186	55	127
89.87206349206349	90.08104308390023	72	127
89.87206349206349	90.08104308390023	64	127
90.10426303854875	90.33646258503401	65	127
90.10426303854875	90.23197278911564	62	127
90.10426303854875	90.23197278911564	50	127
90.10426303854875	90.23197278911564	48	127
90.10426303854875	90.33646258503401	74	127
90.38290249433106	90.55702947845805	76	127
90.38290249433106	90.4990022675737	60	127
90.38290249433106	90.4990022675737	48	127
90.38290249433106	90.4990022675737	52	127
90.38290249433106	90.55702947845805	67	127
90.58024943310657	90.80086167800454	77	127
90.58024943310657	90.69637188208617	62	127
90.58024943310657	90.69637188208617	50	127
90.58024943310657	90.69637188208617	55	127
90.58024943310657	90.69637188208617	43	127
90.58024943310657	90.80086167800454	71	127
90.80086167800454	90.998231292517	76	127
90.80086167800454	90.91696145124716	50	127
90.80086167800454	90.97501133786848	65	127
90.80086167800454	90.97501133786848	53	127
90.80086167800454	90.998231292517	67	127
91.04467120181405	91.21882086167801	74	127
91.04467120181405	91.18399092970522	71	127
91.04467120181405	91.18399092970522	59	127
91.04467120181405	91.18399092970522	43	127
91.04467120181405	91.18399092970522	55	127
91.04467120181405	91.21882086167801	65	127
91.21882086167801	91.64839002267574	48	127
91.21882086167801	91.38136054421769	64	127
91.21882086167801	91.38136054421769	64	127
91.21882086167801	91.64839002267574	72	127
91.21882086167801	91.64839002267574	60	127
91.21882086167801	91.64839002267574	52	127
91.21882086167801	91.64839002267574	64	127
91.21882086167801	91.64839002267574	72	127
91.30009070294784	91.64839002267574	79	127
91.30009070294784	91.64839002267574	79	127
91.67160997732427	91.77609977324263	79	127
91.67160997732427	91.77609977324263	67	127
91.67160997732427	91.77609977324263	55	127
91.77609977324263	91.85736961451248	81	127
91.77609977324263	91.85736961451248	69	127
91.77609977324263	91.85736961451248	57	127
91.85736961451248	91.98507936507937	59	127
91.85736961451248	91.98507936507937	83	127
91.85736961451248	91.98507936507937	71	127
91.98507936507937	92.32176870748299	84	127
91.98507936507937	92.32176870748299	60	127
91.98507936507937	92.32176870748299	48	127
91.98507936507937	92.37981859410431	72	127
92.37981859410431	92.40303854875283	67	127
92.37981859410431	92.40303854875283	55	127
92.37981859410431	92.46108843537415	79	127
92.37981859410431	92.46108843537415	67	127
92.37981859410431	92.46108843537415	43	127
92.47267573696145	92.56557823129252	45	127
92.47267573696145	92.56557823129252	81	127
92.47267573696145	92.56557823129252	69	127
92.47267573696145	92.56557823129252	69	127
92.47267573696145	92.56557823129252	57	127
92.57718820861678	92.70489795918367	47	127
92.57718820861678	92.70489795918367	83	127
92.57718820861678	92.70489795918367	71	127
92.57718820861678	92.70489795918367	71	127
92.57718820861678	92.70489795918367	59	127
92.71650793650794	93.14607709750567	72	127
92.71650793650794	93.09963718820862	84	127
92.71650793650794	93.09963718820862	72	127
92.71650793650794	93.09963718820862	48	127
92.71650793650794	93.09963718820862	36	127
92.71650793650794	93.14607709750567	60	127
93.14607709750567	93.19251700680272	67	127
93.14607709750567	93.23893424036281	79	127
93.14607709750567	93.23893424036281	55	127
93.23893424036281	93.3550566893424	57	127
93.23893424036281	93.3550566893424	81	127
93.23893424036281	93.3550566893424	69	127
93.3550566893424	93.4943537414966	83	127
93.3550566893424	93.4943537414966	71	127
93.3550566893424	93.4943537414966	59	127
93.4943537414966	93.62206349206349	60	127
93.4943537414966	93.62206349206349	84	127
93.4943537414966	93.62206349206349	72	127
93.4943537414966	93.62206349206349	48	127
93.62206349206349	93.70335600907029	67	127
93.62206349206349	93.70335600907029	79	127
93.62206349206349	93.70335600907029	43	127
93.62206349206349	93.70335600907029	67	127
93.62206349206349	93.70335600907029	55	127
93.70335600907029	93.83106575963718	45	127
93.70335600907029	93.83106575963718	81	127
93.70335600907029	93.83106575963718	69	127
93.70335600907029	93.83106575963718	69	127
93.70335600907029	93.83106575963718	57	127
93.83106575963718	93.93555555555555	83	127
93.83106575963718	93.93555555555555	71	127
93.83106575963718	93.93555555555555	71	127
93.83106575963718	93.93555555555555	59	127
93.83106575963718	93.93555555555555	47	127
93.94716553287982	94.02843537414967	48	127
93.94716553287982	94.02843537414967	84	127
93.94716553287982	94.02843537414967	72	127
93.94716553287982	94.02843537414967	72	127
93.94716553287982	94.02843537414967	60	127
93.94716553287982	94.02843537414967	36	127
94.04004535147392	94.13290249433106	55	127
94.04004535147392	94.13290249433106	79	127
94.04004535147392	94.13290249433106	67	127
94.04004535147392	94.13290249433106	43	127
94.14453514739229	94.28385487528345	57	127
94.14453514739229	94.28385487528345	81	127
94.14453514739229	94.28385487528345	69	127
94.14453514739229	94.28385487528345	45	127
94.29546485260771	94.4231746031746	71	127
94.29546485260771	94.4231746031746	83	127
94.29546485260771	94.4231746031746	59	127
94.29546485260771	94.4231746031746	47	127
94.4231746031746	94.57410430839002	36	127
94.4231746031746	94.57410430839002	84	127
94.4231746031746	94.57410430839002	72	127
94.4231746031746	94.57410430839002	60	127
94.57410430839002	94.69020408163266	56	127
94.57410430839002	94.69020408163266	80	127
94.57410430839002	94.69020408163266	68	127
94.57410430839002	94.69020408163266	68	127
94.57410430839002	94.69020408163266	56	127
94.57410430839002	94.69020408163266	44	127
94.69020408163266	94.81791383219955	58	127
94.69020408163266	94.81791383219955	82	127
94.69020408163266	94.81791383219955	70	127
94.69020408163266	94.81791383219955	70	127
94.69020408163266	94.81791383219955	58	127
94.69020408163266	94.81791383219955	46	127
94.81791383219955	94.96884353741497	60	127
94.81791383219955	94.96884353741497	84	127
94.81791383219955	94.96884353741497	72	127
94.81791383219955	94.96884353741497	48	127
94.81791383219955	94.96884353741497	72	127
94.81791383219955	94.96884353741497	60	127
94.96884353741497	95.18943310657596	85	127
94.96884353741497	95.11977324263039	37	127
94.96884353741497	95.18943310657596	82	127
94.96884353741497	95.41002267573697	61	127
94.96884353741497	95.46807256235827	73	127
94.96884353741497	95.46807256235827	61	127
95.15460317460318	95.16621315192744	42	127
95.18943310657596	95.34036281179138	80	127
95.18943310657596	95.34036281179138	44	127
95.18943310657596	95.34036281179138	84	127
95.46807256235827	96.6871201814059	61	127
95.46807256235827	95.61900226757369	37	127
95.46807256235827	95.61900226757369	49	127
95.46807256235827	95.86281179138322	82	127
95.46807256235827	95.86281179138322	78	127
95.46807256235827	96.6871201814059	73	127
95.7118820861678	95.81637188208617	42	127
95.86281179138322	96.01374149659864	44	127
95.86281179138322	96.01374149659864	80	127
95.86281179138322	96.01374149659864	77	127
96.14145124716553	96.29238095238095	49	127
96.14145124716553	96.22272108843538	78	127
96.14145124716553	96.22272108843538	75	127
96.14145124716553	96.29238095238095	37	127
96.22272108843538	96.29238095238095	80	127
96.22272108843538	96.29238095238095	77	127
96.29238095238095	96.39687074829932	75	127
96.29238095238095	96.39687074829932	78	127
96.39687074829932	96.53619047619047	77	127
96.39687074829932	96.53619047619047	42	127
96.39687074829932	96.53619047619047	68	127
96.6871201814059	96.82643990929705	66	127
96.6871201814059	96.82643990929705	75	127
96.6871201814059	96.82643990929705	72	127
96.6871201814059	96.82643990929705	44	127
96.6871201814059	96.82643990929705	60	127
96.97736961451247	97.11668934240363	73	127
96.97736961451247	97.11668934240363	61	127
96.97736961451247	97.11668934240363	37	127
96.97736961451247	97.11668934240363	49	127
96.97736961451247	97.33727891156462	65	127
96.97736961451247	97.38371882086167	80	127
97.25600907029478	97.38371882086167	68	127
97.25600907029478	97.38371882086167	56	127
97.25600907029478	97.38371882086167	41	127
97.38371882086167	97.46498866213152	80	127
97.38371882086167	97.53464852607709	77	127
97.53464852607709	97.66235827664399	82	127
97.53464852607709	97.66235827664399	78	127
97.53464852607709	97.66235827664399	66	127
97.53464852607709	97.66235827664399	54	127
97.53464852607709	97.66235827664399	44	127
97.66235827664399	97.74362811791383	84	127
97.66235827664399	97.74362811791383	75	127
97.74362811791383	97.8132879818594	49	127
97.74362811791383	97.8132879818594	37	127
97.74362811791383	97.89455782312925	73	127
97.74362811791383	97.89455782312925	65	127
97.74362811791383	97.89455782312925	53	127
97.74362811791383	97.89455782312925	85	127
97.89455782312925	98.18480725623583	73	127
97.89455782312925	98.04548752834467	56	127
97.89455782312925	98.04548752834467	44	127
97.89455782312925	98.18480725623583	89	127
97.89455782312925	98.18480725623583	77	127
97.89455782312925	98.18480725623583	61	127
98.18480725623583	98.33573696145125	49	127
98.18480725623583	98.42861678004535	75	127
98.18480725623583	98.33573696145125	61	127
98.18480725623583	98.42861678004535	72	127
98.18480725623583	98.42861678004535	87	127
98.18480725623583	98.42861678004535	60	127
98.47505668934241	98.62598639455783	49	127
98.47505668934241	98.62598639455783	37	127
98.47505668934241	98.6956462585034	84	127
98.47505668934241	98.6956462585034	72	127
98.47505668934241	98.6956462585034	68	127
98.47505668934241	98.6956462585034	56	127
98.6956462585034	98.75369614512472	56	127
98.6956462585034	98.75369614512472	44	127
98.6956462585034	98.86979591836734	87	127
98.6956462585034	98.86979591836734	75	127
98.6956462585034	98.86979591836734	72	127
98.6956462585034	98.86979591836734	60	127
98.86979591836734	99.00911564625851	61	127
98.86979591836734	99.00911564625851	49	127
98.86979591836734	99.07877551020408	85	127
98.86979591836734	99.07877551020408	73	127
98.86979591836734	99.07877551020408	70	127
98.86979591836734	99.07877551020408	58	127
99.11360544217688	99.29936507936507	66	127
99.11360544217688	99.24131519274377	49	127
99.11360544217688	99.24131519274377	37	127
99.11360544217688	99.29936507936507	82	127
99.11360544217688	99.29936507936507	70	127
99.11360544217688	99.29936507936507	54	127
99.29936507936507	99.45029478458049	44	127
99.29936507936507	99.45029478458049	56	127
99.29936507936507	99.57800453514739	80	127
99.29936507936507	99.57800453514739	68	127
99.29936507936507	99.57800453514739	65	127
99.29936507936507	99.57800453514739	53	127
99.57800453514739	99.72893424036282	61	127
99.57800453514739	99.72893424036282	49	127
99.57800453514739	99.79859410430839	79	127
99.57800453514739	99.79859410430839	67	127
99.57800453514739	99.79859410430839	64	127
99.57800453514739	99.79859410430839	52	127
99.85664399092971	99.9843537414966	37	127
99.85664399092971	99.9843537414966	49	127
99.85664399092971	100.1701133786848	82	127
99.85664399092971	100.1701133786848	70	127
99.85664399092971	100.1701133786848	66	127
99.85664399092971	100.1701133786848	54	127
100.12367346938775	100.1701133786848	54	127
100.12367346938775	100.1701133786848	42	127
100.1701133786848	100.32104308390022	56	127
100.1701133786848	100.32104308390022	44	127
100.1701133786848	100.42553287981859	80	127
100.1701133786848	100.42553287981859	65	127
100.1701133786848	100.42553287981859	68	127
100.1701133786848	100.42553287981859	53	127
100.47197278911564	100.6112925170068	37	127
100.47197278911564	100.6112925170068	49	127
100.47197278911564	101.04086167800453	83	127
100.47197278911564	101.04086167800453	71	127
100.47197278911564	101.04086167800453	68	127
100.47197278911564	101.04086167800453	56	127
100.75061224489797	100.88993197278911	53	127
100.75061224489797	100.88993197278911	41	127
101.04086167800453	101.19179138321995	82	127
101.04086167800453	101.19179138321995	70	127
101.04086167800453	101.19179138321995	66	127
101.04086167800453	101.1801814058957	54	127
101.04086167800453	101.19179138321995	54	127
101.04086167800453	101.1801814058957	42	127
101.21501133786848	101.7142403628118	85	127
101.21501133786848	101.40077097505669	61	127
101.21501133786848	101.40077097505669	49	127
101.21501133786848	101.40077097505669	37	127
101.21501133786848	101.7142403628118	73	127
101.21501133786848	101.7142403628118	37	127
101.42399092970521	101.7142403628118	49	127
101.42399092970521	101.7142403628118	73	127
101.42399092970521	101.7142403628118	61	127
101.7142403628118	101.96965986394558	72	127
101.7142403628118	101.96965986394558	72	127
101.7142403628118	101.96965986394558	60	127
101.7142403628118	101.96965986394558	48	127
101.7142403628118	101.96965986394558	36	127
101.7142403628118	101.96965986394558	84	127
102.01609977324263	102.42244897959183	90	127
102.01609977324263	102.24829931972789	66	127
102.01609977324263	102.24829931972789	54	127
102.01609977324263	102.24829931972789	42	127
102.01609977324263	102.42244897959183	78	127
102.01609977324263	102.42244897959183	42	127
102.25990929705216	102.42244897959183	78	127
102.25990929705216	102.42244897959183	66	127
102.25990929705216	102.42244897959183	54	127
102.42244897959183	102.67786848072562	77	127
102.42244897959183	102.67786848072562	65	127
102.42244897959183	102.67786848072562	53	127
102.42244897959183	102.67786848072562	41	127
102.42244897959183	102.67786848072562	89	127
102.42244897959183	102.67786848072562	77	127
102.72430839002267	103.21192743764172	85	127
102.72430839002267	102.93328798185941	61	127
102.72430839002267	102.93328798185941	49	127
102.72430839002267	102.93328798185941	37	127
102.72430839002267	103.21192743764172	73	127
102.72430839002267	103.21192743764172	37	127
102.95650793650793	103.21192743764172	49	127
102.95650793650793	103.21192743764172	73	127
102.95650793650793	103.21192743764172	61	127
103.21192743764172	103.4673469387755	72	127
103.21192743764172	103.4673469387755	48	127
103.21192743764172	103.4673469387755	36	127
103.21192743764172	103.4673469387755	60	127
103.21192743764172	103.4673469387755	72	127
103.21192743764172	103.4673469387755	84	127
103.51378684807256	103.74598639455782	54	127
103.51378684807256	103.74598639455782	66	127
103.51378684807256	103.74598639455782	42	127
103.51378684807256	103.88530612244898	90	127
103.51378684807256	103.88530612244898	78	127
103.51378684807256	103.88530612244898	42	127
103.74598639455782	103.88530612244898	54	127
103.74598639455782	103.88530612244898	78	127
103.74598639455782	103.88530612244898	66	127
103.88530612244898	104.14072562358277	53	127
103.88530612244898	104.14072562358277	41	127
103.88530612244898	104.14072562358277	77	127
103.88530612244898	104.14072562358277	65	127
103.88530612244898	104.14072562358277	89	127
103.88530612244898	104.14072562358277	77	127
104.18716553287982	104.55868480725624	90	127
104.18716553287982	104.41936507936508	66	127
104.18716553287982	104.41936507936508	54	127
104.18716553287982	104.41936507936508	42	127
104.18716553287982	104.55868480725624	78	127
104.18716553287982	104.55868480725624	42	127
104.43097505668935	104.55868480725624	54	127
104.43097505668935	104.55868480725624	78	127
104.43097505668935	104.55868480725624	66	127
104.55868480725624	104.75605442176871	77	127
104.55868480725624	104.75605442176871	77	127
104.55868480725624	104.75605442176871	65	127
104.55868480725624	104.75605442176871	53	127
104.55868480725624	104.75605442176871	41	127
104.55868480725624	104.75605442176871	89	127
104.81410430839003	105.04630385487529	55	127
104.81410430839003	105.04630385487529	67	127
104.81410430839003	105.04630385487529	43	127
104.81410430839003	105.27850340136054	91	127
104.81410430839003	105.27850340136054	79	127
104.81410430839003	105.27850340136054	43	127
105.06952380952382	105.27850340136054	55	127
105.06952380952382	105.27850340136054	67	127
105.06952380952382	105.27850340136054	79	127
105.27850340136054	105.52231292517007	89	127
105.27850340136054	105.52231292517007	77	127
105.27850340136054	105.52231292517007	77	127
105.27850340136054	105.52231292517007	65	127
105.27850340136054	105.52231292517007	53	127
105.27850340136054	105.52231292517007	41	127
105.52231292517007	105.66163265306122	75	127
105.52231292517007	105.66163265306122	87	127
105.52231292517007	105.66163265306122	75	127
105.52231292517007	105.66163265306122	63	127
105.52231292517007	105.66163265306122	51	127
105.52231292517007	105.66163265306122	39	127
105.80095238095238	105.917052154195	86	127
105.80095238095238	105.917052154195	74	127
105.80095238095238	105.917052154195	74	127
105.80095238095238	105.917052154195	62	127
105.80095238095238	105.917052154195	38	127
105.80095238095238	105.917052154195	50	127
106.02154195011337	106.17247165532879	48	127
106.02154195011337	106.17247165532879	84	127
106.02154195011337	106.17247165532879	72	127
106.02154195011337	106.17247165532879	72	127
106.02154195011337	106.17247165532879	60	127
106.02154195011337	106.17247165532879	36	127
106.33501133786848	106.84585034013605	70	127
106.33501133786848	106.45111111111112	46	127
106.33501133786848	106.56721088435374	82	127
106.33501133786848	106.56721088435374	79	127
106.33501133786848	106.84585034013605	58	127
106.46272108843537	106.56721088435374	51	127
106.56721088435374	106.78780045351473	77	127
106.56721088435374	106.78780045351473	81	127
106.56721088435374	106.69492063492063	53	127
106.84585034013605	107.3334693877551	79	127
106.84585034013605	107.3334693877551	75	127
106.84585034013605	108.13455782312926	70	127
106.84585034013605	106.99678004535147	46	127
106.84585034013605	106.99678004535147	58	127
106.84585034013605	108.13455782312926	58	127
107.11287981859411	107.240589569161	51	127
107.3334693877551	107.58888888888889	74	127
107.3334693877551	107.58888888888889	77	127
107.3334693877551	107.48439909297052	53	127
107.63532879818594	107.70498866213151	72	127
107.63532879818594	107.70498866213151	75	127
107.63532879818594	107.76303854875283	58	127
107.63532879818594	107.76303854875283	46	127
107.70498866213151	107.76303854875283	77	127
107.70498866213151	107.76303854875283	74	127
107.76303854875283	107.8675283446712	72	127
107.76303854875283	107.8675283446712	75	127
107.8675283446712	108.01845804988662	65	127
107.8675283446712	108.01845804988662	74	127
107.8675283446712	108.01845804988662	51	127
108.13455782312926	108.25065759637188	72	127
108.13455782312926	108.25065759637188	63	127
108.13455782312926	108.25065759637188	69	127
108.13455782312926	108.25065759637188	57	127
108.13455782312926	108.25065759637188	53	127
108.37836734693877	108.51768707482994	46	127
108.37836734693877	108.51768707482994	58	127
108.37836734693877	108.52929705215419	70	127
108.37836734693877	108.52929705215419	58	127
108.37836734693877	108.59895691609978	62	127
108.37836734693877	108.63378684807256	77	127
108.52929705215419	108.63378684807256	50	127
108.52929705215419	108.69183673469388	65	127
108.52929705215419	108.69183673469388	53	127
108.63378684807256	108.69183673469388	77	127
108.63378684807256	108.70344671201813	74	127
108.70344671201813	108.8427664399093	79	127
108.70344671201813	108.8427664399093	75	127
108.70344671201813	108.8427664399093	53	127
108.70344671201813	108.94725623582767	63	127
108.70344671201813	108.94725623582767	51	127
108.8427664399093	108.99369614512472	72	127
108.8427664399093	108.99369614512472	81	127
108.99369614512472	109.12140589569161	46	127
108.99369614512472	109.12140589569161	58	127
108.99369614512472	109.16784580498866	62	127
108.99369614512472	109.16784580498866	50	127
108.99369614512472	109.31877551020408	82	127
108.99369614512472	109.31877551020408	74	127
109.20267573696145	109.31877551020408	65	127
109.20267573696145	109.31877551020408	53	127
109.20267573696145	109.30716553287982	50	127
109.31877551020408	109.55097505668934	65	127
109.31877551020408	110.2243537414966	70	127
109.31877551020408	109.45809523809524	53	127
109.31877551020408	109.55097505668934	81	127
109.31877551020408	110.2243537414966	58	127
109.59741496598639	109.71351473922903	46	127
109.59741496598639	110.05020408163266	79	127
109.59741496598639	110.05020408163266	75	127
109.59741496598639	109.71351473922903	58	127
109.82961451247165	109.95732426303854	51	127
110.05020408163266	110.2243537414966	77	127
110.05020408163266	110.2243537414966	74	127
110.05020408163266	110.20113378684808	53	127
110.27079365079365	110.47977324263039	55	127
110.27079365079365	110.81646258503402	74	127
110.27079365079365	110.50299319727891	67	127
110.27079365079365	110.39850340136054	58	127
110.27079365079365	110.39850340136054	43	127
110.27079365079365	110.81646258503402	91	127
110.54943310657596	110.80485260770975	74	127
110.54943310657596	110.70036281179138	62	127
110.54943310657596	110.70036281179138	46	127
110.81646258503402	111.02544217687075	67	127
110.81646258503402	110.94417233560091	50	127
110.81646258503402	111.02544217687075	89	127
110.81646258503402	111.64077097505668	79	127
110.81646258503402	111.64077097505668	67	127
111.08349206349206	111.23442176870748	43	127
111.08349206349206	111.58272108843538	88	127
111.08349206349206	111.58272108843538	84	127
111.08349206349206	111.23442176870748	55	127
111.3853514739229	111.52467120181406	50	127
111.58272108843538	111.64077097505668	82	127
111.58272108843538	111.6059410430839	55	127
111.58272108843538	111.64077097505668	86	127
111.67560090702948	111.89619047619047	48	127
111.67560090702948	111.89619047619047	84	127
111.67560090702948	111.89619047619047	81	127
111.67560090702948	111.89619047619047	60	127
111.67560090702948	111.81492063492064	36	127
111.67560090702948	112.0471201814059	60	127
111.89619047619047	112.05873015873016	82	127
111.89619047619047	112.02390022675738	48	127
111.89619047619047	112.05873015873016	79	127
111.89619047619047	112.05873015873016	67	127
111.89619047619047	112.05873015873016	55	127
112.09356009070295	112.24448979591837	79	127
112.09356009070295	112.24448979591837	70	127
112.09356009070295	112.24448979591837	48	127
112.09356009070295	112.24448979591837	36	127
112.09356009070295	112.34897959183674	76	127
112.09356009070295	112.34897959183674	60	127
112.40702947845806	112.55795918367347	53	127
112.40702947845806	112.55795918367347	41	127
112.40702947845806	112.72049886621315	77	127
112.40702947845806	112.72049886621315	69	127
112.40702947845806	112.72049886621315	69	127
112.40702947845806	112.72049886621315	77	127
112.40702947845806	112.72049886621315	60	127
112.40702947845806	112.72049886621315	48	127
112.40702947845806	112.72049886621315	41	127
112.48829931972789	112.72049886621315	57	127
112.48829931972789	112.72049886621315	69	127
112.75532879818594	112.87142857142857	67	127
112.75532879818594	112.87142857142857	79	127
112.75532879818594	112.87142857142857	55	127
112.87142857142857	112.9875283446712	57	127
112.87142857142857	112.9875283446712	81	127
112.87142857142857	112.9875283446712	69	127
112.9875283446712	113.1152380952381	83	127
112.9875283446712	113.1152380952381	71	127
112.9875283446712	113.1152380952381	59	127
113.1152380952381	113.44031746031746	84	127
113.1152380952381	113.44031746031746	60	127
113.1152380952381	113.44031746031746	48	127
113.1152380952381	113.48675736961451	72	127
113.48675736961451	113.54480725623583	67	127
113.48675736961451	113.54480725623583	55	127
113.48675736961451	113.57963718820862	79	127
113.48675736961451	113.57963718820862	67	127
113.48675736961451	113.57963718820862	43	127
113.57963718820862	113.68412698412699	81	127
113.57963718820862	113.68412698412699	69	127
113.57963718820862	113.68412698412699	69	127
113.57963718820862	113.68412698412699	57	127
113.57963718820862	113.68412698412699	45	127
113.68412698412699	113.76539682539682	83	127
113.68412698412699	113.76539682539682	71	127
113.68412698412699	113.76539682539682	71	127
113.68412698412699	113.76539682539682	59	127
113.68412698412699	113.76539682539682	47	127
113.76539682539682	114.10208616780045	84	127
113.76539682539682	114.10208616780045	72	127
113.76539682539682	114.10208616780045	48	127
113.76539682539682	114.10208616780045	36	127
113.76539682539682	114.1485260770975	60	127
113.76539682539682	114.1485260770975	72	127
114.1485260770975	114.21818594104309	67	127
114.1485260770975	114.28784580498866	79	127
114.1485260770975	114.28784580498866	55	127
114.29945578231292	114.41555555555556	69	127
114.29945578231292	114.41555555555556	57	127
114.29945578231292	114.41555555555556	81	127
114.41555555555556	114.52004535147393	83	127
114.41555555555556	114.52004535147393	71	127
114.41555555555556	114.52004535147393	59	127
114.52004535147393	114.65936507936507	84	127
114.52004535147393	114.65936507936507	72	127
114.52004535147393	114.65936507936507	60	127
114.52004535147393	114.65936507936507	48	127
114.65936507936507	114.79868480725624	79	127
114.65936507936507	114.79868480725624	67	127
114.65936507936507	114.79868480725624	67	127
114.65936507936507	114.79868480725624	55	127
114.65936507936507	114.79868480725624	43	127
114.79868480725624	114.9031746031746	81	127
114.79868480725624	114.9031746031746	69	127
114.79868480725624	114.9031746031746	69	127
114.79868480725624	114.9031746031746	57	127
114.79868480725624	114.9031746031746	45	127
114.9031746031746	115.01927437641723	83	127
114.9031746031746	115.01927437641723	71	127
114.9031746031746	115.01927437641723	71	127
114.9031746031746	115.01927437641723	59	127
114.9031746031746	115.01927437641723	47	127
115.01927437641723	115.11215419501134	84	127
115.01927437641723	115.11215419501134	72	127
115.01927437641723	115.11215419501134	72	127
115.01927437641723	115.11215419501134	60	127
115.01927437641723	115.11215419501134	48	127
115.01927437641723	115.11215419501134	36	127
115.11215419501134	115.22825396825397	79	127
115.11215419501134	115.22825396825397	67	127
115.11215419501134	115.22825396825397	55	127
115.11215419501134	115.22825396825397	43	127
115.22825396825397	115.3443537414966	81	127
115.22825396825397	115.3443537414966	69	127
115.22825396825397	115.3443537414966	57	127
115.22825396825397	115.3443537414966	45	127
115.3443537414966	115.41401360544218	59	127
115.3443537414966	115.41401360544218	83	127
115.3443537414966	115.41401360544218	71	127
115.3443537414966	115.41401360544218	47	127
115.42562358276643	115.5301133786848	84	127
115.42562358276643	115.5301133786848	72	127
115.42562358276643	115.5301133786848	60	127
115.42562358276643	115.5301133786848	36	127
115.54172335600907	115.6578231292517	80	127
115.54172335600907	115.6578231292517	68	127
115.54172335600907	115.6578231292517	68	127
115.54172335600907	115.6578231292517	56	127
115.54172335600907	115.6578231292517	56	127
115.54172335600907	115.6578231292517	44	127
115.66943310657597	115.80875283446711	82	127
115.66943310657597	115.80875283446711	70	127
115.66943310657597	115.80875283446711	70	127
115.66943310657597	115.80875283446711	58	127
115.66943310657597	115.80875283446711	58	127
115.66943310657597	115.80875283446711	46	127
115.82036281179138	115.95968253968255	84	127
115.82036281179138	115.95968253968255	72	127
115.82036281179138	115.95968253968255	72	127
115.82036281179138	115.95968253968255	60	127
115.82036281179138	115.95968253968255	60	127
115.82036281179138	115.95968253968255	48	127
115.95968253968255	116.64467120181406	61	127
115.95968253968255	116.11061224489796	37	127
115.95968253968255	116.34281179138323	85	127
115.95968253968255	116.34281179138323	82	127
115.95968253968255	116.57501133786847	61	127
115.95968253968255	116.64467120181406	73	127
116.21510204081633	116.23832199546486	42	127
116.34281179138323	116.49374149659864	44	127
116.34281179138323	116.49374149659864	84	127
116.34281179138323	116.49374149659864	80	127
116.64467120181406	116.78399092970521	37	127
116.64467120181406	116.78399092970521	49	127
116.64467120181406	117.09746031746032	82	127
116.64467120181406	117.09746031746032	78	127
116.64467120181406	117.7940589569161	73	127
116.64467120181406	117.7940589569161	61	127
116.87687074829932	117.02780045351474	42	127
117.09746031746032	117.24839002267574	44	127
117.09746031746032	117.24839002267574	77	127
117.09746031746032	117.24839002267574	80	127
117.37609977324263	117.43414965986395	75	127
117.37609977324263	117.43414965986395	78	127
117.37609977324263	117.49219954648527	49	127
117.37609977324263	117.49219954648527	37	127
117.43414965986395	117.49219954648527	80	127
117.43414965986395	117.49219954648527	77	127
117.49219954648527	117.59668934240362	75	127
117.49219954648527	117.59668934240362	78	127
117.59668934240362	117.70117913832199	77	127
117.59668934240362	117.70117913832199	68	127
117.59668934240362	117.70117913832199	42	127
117.7940589569161	117.87532879818595	75	127
117.7940589569161	117.87532879818595	66	127
117.7940589569161	117.87532879818595	72	127
117.7940589569161	117.87532879818595	60	127
117.7940589569161	117.87532879818595	44	127
118.00303854875284	118.1075283446712	37	127
118.00303854875284	118.1075283446712	49	127
118.00303854875284	118.1075283446712	73	127
118.00303854875284	118.33972789115646	65	127
118.00303854875284	118.39777777777778	80	127
118.00303854875284	118.1075283446712	61	127
118.24684807256236	118.39777777777778	68	127
118.24684807256236	118.39777777777778	56	127
118.24684807256236	118.39777777777778	41	127
118.39777777777778	118.46743764172335	80	127
118.39777777777778	118.53709750566894	77	127
118.5487074829932	118.61836734693877	82	127
118.5487074829932	118.61836734693877	78	127
118.5487074829932	118.62997732426304	66	127
118.5487074829932	118.62997732426304	54	127
118.5487074829932	118.62997732426304	44	127
118.62997732426304	118.75768707482993	84	127
118.62997732426304	118.75768707482993	75	127
118.7692970521542	118.8621768707483	49	127
118.7692970521542	118.8621768707483	37	127
118.7692970521542	118.96666666666667	85	127
118.7692970521542	118.96666666666667	73	127
118.7692970521542	118.96666666666667	65	127
118.7692970521542	118.96666666666667	53	127
118.96666666666667	119.03632653061224	56	127
118.96666666666667	119.03632653061224	44	127
118.96666666666667	119.07115646258504	89	127
118.96666666666667	119.07115646258504	77	127
118.96666666666667	119.07115646258504	73	127
118.96666666666667	119.07115646258504	61	127
119.07115646258504	119.22208616780046	61	127
119.07115646258504	119.22208616780046	49	127
119.07115646258504	119.32657596371882	87	127
119.07115646258504	119.32657596371882	75	127
119.07115646258504	119.32657596371882	72	127
119.07115646258504	119.32657596371882	60	127
119.3614058956916	119.4891156462585	49	127
119.3614058956916	119.4891156462585	37	127
119.3614058956916	119.61682539682539	84	127
119.3614058956916	119.61682539682539	72	127
119.3614058956916	119.61682539682539	68	127
119.3614058956916	119.61682539682539	56	127
119.61682539682539	119.69809523809523	56	127
119.61682539682539	119.69809523809523	44	127
119.61682539682539	119.8025850340136	87	127
119.61682539682539	119.8025850340136	75	127
119.61682539682539	119.8025850340136	72	127
119.61682539682539	119.8025850340136	60	127
119.8025850340136	119.95351473922902	61	127
119.8025850340136	119.95351473922902	49	127
119.8025850340136	119.99995464852607	85	127
119.8025850340136	119.99995464852607	73	127
119.8025850340136	119.99995464852607	70	127
119.8025850340136	119.99995464852607	58	127
120.05800453514739	120.16249433106576	49	127
120.05800453514739	120.16249433106576	37	127
120.05800453514739	120.2437641723356	82	127
120.05800453514739	120.2437641723356	70	127
120.05800453514739	120.2437641723356	66	127
120.05800453514739	120.2437641723356	54	127
120.2437641723356	120.48757369614512	80	127
120.2437641723356	120.48757369614512	68	127
120.2437641723356	120.48757369614512	65	127
120.2437641723356	120.38308390022675	56	127
120.2437641723356	120.38308390022675	44	127
120.2437641723356	120.48757369614512	53	127
120.48757369614512	120.73138321995465	64	127
120.48757369614512	120.63850340136054	61	127
120.48757369614512	120.63850340136054	49	127
120.48757369614512	120.73138321995465	79	127
120.48757369614512	120.73138321995465	67	127
120.48757369614512	120.73138321995465	52	127
120.7778231292517	121.10290249433106	54	127
120.7778231292517	120.89392290249432	37	127
120.7778231292517	121.10290249433106	66	127
120.7778231292517	120.89392290249432	49	127
120.7778231292517	121.10290249433106	82	127
120.7778231292517	121.10290249433106	70	127
120.94036281179139	121.0912925170068	54	127
120.94036281179139	121.0912925170068	42	127
121.10290249433106	121.38154195011337	65	127
121.10290249433106	121.277052154195	56	127
121.10290249433106	121.277052154195	44	127
121.10290249433106	121.38154195011337	80	127
121.10290249433106	121.38154195011337	68	127
121.10290249433106	121.38154195011337	53	127
121.43959183673469	121.91560090702947	56	127
121.43959183673469	121.91560090702947	68	127
121.43959183673469	121.56730158730159	37	127
121.43959183673469	121.56730158730159	49	127
121.43959183673469	121.91560090702947	83	127
121.43959183673469	121.91560090702947	71	127
121.67179138321995	121.81111111111112	53	127
121.67179138321995	121.81111111111112	41	127
121.91560090702947	122.14780045351473	70	127
121.91560090702947	122.0665306122449	54	127
121.91560090702947	122.0665306122449	42	127
121.91560090702947	122.14780045351473	82	127
121.91560090702947	122.14780045351473	66	127
121.91560090702947	122.14780045351473	54	127
122.14780045351473	122.31034013605442	61	127
122.14780045351473	122.31034013605442	49	127
122.14780045351473	122.31034013605442	37	127
122.14780045351473	122.63541950113378	85	127
122.14780045351473	122.63541950113378	73	127
122.14780045351473	122.63541950113378	37	127
122.34517006802722	122.63541950113378	61	127
122.34517006802722	122.63541950113378	73	127
122.34517006802722	122.63541950113378	49	127
122.63541950113378	122.84439909297052	36	127
122.63541950113378	122.84439909297052	84	127
122.63541950113378	122.84439909297052	72	127
122.63541950113378	122.84439909297052	72	127
122.63541950113378	122.84439909297052	60	127
122.63541950113378	122.84439909297052	48	127
122.89083900226757	123.12303854875283	66	127
122.89083900226757	123.32040816326531	90	127
122.89083900226757	123.12303854875283	54	127
122.89083900226757	123.12303854875283	42	127
122.89083900226757	123.32040816326531	78	127
122.89083900226757	123.32040816326531	42	127
123.14625850340136	123.32040816326531	66	127
123.14625850340136	123.32040816326531	78	127
123.14625850340136	123.32040816326531	54	127
123.32040816326531	123.56421768707483	65	127
123.32040816326531	123.56421768707483	89	127
123.32040816326531	123.56421768707483	77	127
123.32040816326531	123.56421768707483	77	127
123.32040816326531	123.56421768707483	53	127
123.32040816326531	123.56421768707483	41	127
123.59904761904762	123.85446712018141	61	127
123.59904761904762	123.85446712018141	49	127
123.59904761904762	123.85446712018141	37	127
123.59904761904762	123.95895691609978	85	127
123.59904761904762	123.95895691609978	73	127
123.59904761904762	123.95895691609978	37	127
123.88929705215419	123.95895691609978	61	127
123.88929705215419	123.95895691609978	73	127
123.88929705215419	123.95895691609978	49	127
123.95895691609978	124.21437641723357	60	127
123.95895691609978	124.21437641723357	84	127
123.95895691609978	124.21437641723357	72	127
123.95895691609978	124.21437641723357	72	127
123.95895691609978	124.21437641723357	48	127
123.95895691609978	124.21437641723357	36	127
124.26081632653062	124.50462585034013	54	127
124.26081632653062	124.50462585034013	42	127
124.26081632653062	124.79487528344671	90	127
124.26081632653062	124.50462585034013	66	127
124.26081632653062	124.79487528344671	78	127
124.26081632653062	124.79487528344671	42	127
124.55106575963718	124.79487528344671	66	127
124.55106575963718	124.79487528344671	78	127
124.55106575963718	124.79487528344671	54	127
124.79487528344671	125.0502947845805	65	127
124.79487528344671	125.0502947845805	89	127
124.79487528344671	125.0502947845805	77	127
124.79487528344671	125.0502947845805	77	127
124.79487528344671	125.0502947845805	53	127
124.79487528344671	125.0502947845805	41	127
125.09673469387755	125.34054421768707	66	127
125.09673469387755	125.34054421768707	54	127
125.09673469387755	125.34054421768707	42	127
125.09673469387755	125.39859410430839	90	127
125.09673469387755	125.39859410430839	78	127
125.09673469387755	125.39859410430839	42	127
125.35215419501134	125.39859410430839	66	127
125.35215419501134	125.39859410430839	78	127
125.35215419501134	125.39859410430839	54	127
125.39859410430839	125.65401360544217	77	127
125.39859410430839	125.65401360544217	89	127
125.39859410430839	125.65401360544217	77	127
125.39859410430839	125.65401360544217	65	127
125.39859410430839	125.65401360544217	53	127
125.39859410430839	125.65401360544217	41	127
125.71206349206349	126.09519274376417	43	127
125.71206349206349	125.94426303854875	55	127
125.71206349206349	126.09519274376417	91	127
125.71206349206349	126.09519274376417	79	127
125.71206349206349	125.94426303854875	67	127
125.71206349206349	125.94426303854875	43	127
125.97909297052155	126.09519274376417	79	127
125.97909297052155	126.09519274376417	67	127
125.97909297052155	126.09519274376417	55	127
126.09519274376417	126.35061224489796	77	127
126.09519274376417	126.35061224489796	89	127
126.09519274376417	126.35061224489796	77	127
126.09519274376417	126.35061224489796	65	127
126.09519274376417	126.35061224489796	53	127
126.09519274376417	126.35061224489796	41	127
126.39705215419501	126.5247619047619	87	127
126.39705215419501	126.5247619047619	75	127
126.39705215419501	126.5247619047619	75	127
126.39705215419501	126.5247619047619	63	127
126.39705215419501	126.5247619047619	51	127
126.39705215419501	126.5247619047619	39	127
126.57120181405895	126.73374149659864	38	127
126.57120181405895	126.73374149659864	86	127
126.57120181405895	126.73374149659864	74	127
126.57120181405895	126.73374149659864	74	127
126.57120181405895	126.73374149659864	62	127
126.57120181405895	126.73374149659864	50	127
126.89628117913833	127.03560090702948	84	127
126.89628117913833	127.03560090702948	60	127
126.89628117913833	127.03560090702948	48	127
126.89628117913833	127.03560090702948	36	127
126.89628117913833	127.03560090702948	72	127
126.89628117913833	127.03560090702948	72	127
127.1865306122449	127.74380952380952	58	127
127.1865306122449	127.74380952380952	70	127
127.1865306122449	127.33746031746031	46	127
127.1865306122449	127.47678004535148	79	127
127.1865306122449	127.47678004535148	82	127
127.41873015873016	127.4651700680272	51	127
127.47678004535148	127.69736961451247	77	127
127.47678004535148	127.5928798185941	53	127
127.47678004535148	127.69736961451247	81	127
127.74380952380952	127.89473922902495	46	127
127.74380952380952	127.89473922902495	58	127
127.74380952380952	128.2198185941043	79	127
127.74380952380952	128.2198185941043	75	127
127.74380952380952	128.82353741496598	58	127
127.74380952380952	128.82353741496598	70	127
127.97600907029478	128.10371882086167	51	127
128.2198185941043	128.44040816326532	77	127
128.2198185941043	128.44040816326532	74	127
128.2198185941043	128.37074829931973	53	127
128.45199546485262	128.52167800453515	46	127
128.45199546485262	128.48684807256237	75	127
128.45199546485262	128.48684807256237	72	127
128.45199546485262	128.52167800453515	58	127
128.48684807256237	128.52167800453515	74	127
128.48684807256237	128.52167800453515	77	127
128.52167800453515	128.55650793650793	75	127
128.52167800453515	128.55650793650793	72	127
128.55650793650793	128.67260770975057	74	127
128.55650793650793	128.67260770975057	65	127
128.55650793650793	128.67260770975057	51	127
128.82353741496598	128.9512471655329	72	127
128.82353741496598	128.9512471655329	63	127
128.82353741496598	128.9512471655329	69	127
128.82353741496598	128.9512471655329	57	127
128.82353741496598	128.9512471655329	53	127
129.0673469387755	129.25310657596373	70	127
129.0673469387755	129.21825396825398	46	127
129.0673469387755	129.21825396825398	58	127
129.0673469387755	129.25310657596373	58	127
129.0673469387755	129.33437641723356	62	127
129.0673469387755	129.39242630385488	77	127
129.25310657596373	129.48530612244897	65	127
129.25310657596373	129.48530612244897	53	127
129.25310657596373	129.39242630385488	50	127
129.39242630385488	129.46208616780046	77	127
129.39242630385488	129.49691609977324	74	127
129.49691609977324	129.6942857142857	51	127
129.49691609977324	129.62460317460318	79	127
129.49691609977324	129.62460317460318	75	127
129.49691609977324	129.6362358276644	53	127
129.49691609977324	129.6942857142857	63	127
129.6362358276644	129.6942857142857	72	127
129.6362358276644	129.6942857142857	81	127
129.70589569160998	129.82199546485262	46	127
129.70589569160998	129.90326530612245	62	127
129.70589569160998	129.90326530612245	50	127
129.70589569160998	129.82199546485262	58	127
129.70589569160998	130.14707482993197	82	127
129.70589569160998	130.14707482993197	74	127
129.926485260771	130.14707482993197	53	127
129.926485260771	130.06580498866214	50	127
129.926485260771	130.14707482993197	65	127
130.14707482993197	130.95977324263038	58	127
130.14707482993197	130.23993197278912	53	127
130.14707482993197	130.34444444444443	81	127
130.14707482993197	130.34444444444443	65	127
130.14707482993197	130.95977324263038	70	127
130.39086167800454	130.53020408163266	46	127
130.39086167800454	130.7391836734694	79	127
130.39086167800454	130.7391836734694	75	127
130.39086167800454	130.53020408163266	58	127
130.58825396825398	130.65791383219954	51	127
130.7391836734694	130.89011337868482	53	127
130.7391836734694	130.98299319727892	77	127
130.7391836734694	130.98299319727892	74	127
131.04104308390023	131.13392290249433	58	127
131.04104308390023	131.13392290249433	43	127
131.04104308390023	131.20358276643992	55	127
131.04104308390023	131.22680272108843	67	127
131.04104308390023	131.47061224489795	74	127
131.04104308390023	131.47061224489795	91	127
131.27324263038548	131.4125396825397	62	127
131.27324263038548	131.4125396825397	46	127
131.27324263038548	131.4241723356009	74	127
131.47061224489795	132.26009070294785	67	127
131.47061224489795	131.6447619047619	67	127
131.47061224489795	131.6447619047619	89	127
131.47061224489795	131.60993197278913	50	127
131.47061224489795	132.26009070294785	79	127
131.6447619047619	132.03950113378684	88	127
131.6447619047619	132.03950113378684	84	127
131.6447619047619	131.7144217687075	43	127
131.6447619047619	131.7144217687075	55	127
131.74925170068028	131.9001814058957	50	127
132.03950113378684	132.28328798185942	82	127
132.03950113378684	132.19043083900226	55	127
132.03950113378684	132.28328798185942	86	127
132.29492063492063	132.81736961451247	60	127
132.29492063492063	132.55034013605442	48	127
132.29492063492063	132.59678004535147	84	127
132.29492063492063	132.59678004535147	81	127
132.29492063492063	132.44585034013605	36	127
132.29492063492063	132.55034013605442	60	127
132.59678004535147	132.840589569161	55	127
132.59678004535147	132.74770975056688	48	127
132.59678004535147	132.840589569161	82	127
132.59678004535147	132.840589569161	79	127
132.59678004535147	132.840589569161	67	127
132.88702947845806	133.07278911564626	70	127
132.88702947845806	133.07278911564626	79	127
132.88702947845806	133.07278911564626	48	127
132.88702947845806	133.07278911564626	36	127
132.88702947845806	133.17727891156463	76	127
132.88702947845806	133.17727891156463	60	127
133.29337868480727	133.9087074829932	48	127
133.29337868480727	133.45589569160998	53	127
133.29337868480727	133.8738775510204	77	127
133.29337868480727	133.8738775510204	69	127
133.29337868480727	133.8738775510204	69	127
133.29337868480727	133.8738775510204	77	127
133.29337868480727	133.8738775510204	41	127
133.29337868480727	133.9087074829932	60	127
133.29337868480727	133.45589569160998	41	127
133.3746485260771	133.9087074829932	57	127
133.3746485260771	133.9087074829932	69	127
134.37310657596373	134.95360544217687	60	127
135.1393650793651	135.27868480725624	65	127
135.1393650793651	135.27868480725624	57	127
135.44122448979593	135.61537414965986	67	127
135.44122448979593	135.61537414965986	60	127
135.77791383219954	135.9636507936508	69	127
135.77791383219954	135.9636507936508	65	127
136.1378231292517	136.28875283446712	65	127
136.1378231292517	136.28875283446712	57	127
136.4512925170068	136.71832199546486	60	127
136.4512925170068	136.4861224489796	67	127
136.4861224489796	136.55578231292517	69	127
136.55578231292517	136.71832199546486	67	127
136.71832199546486	136.857641723356	69	127
136.71832199546486	136.857641723356	65	127
137.0201814058957	137.08981859410432	65	127
137.0201814058957	137.08981859410432	57	127
137.26399092970522	137.4265306122449	70	127
137.26399092970522	137.4265306122449	62	127
137.26399092970522	137.4265306122449	50	127
137.4265306122449	137.5890702947846	52	127
137.5890702947846	137.76321995464852	69	127
137.5890702947846	137.76321995464852	60	127
137.5890702947846	137.84448979591838	53	127
137.89092970521543	138.0070068027211	65	127
137.89092970521543	138.0070068027211	57	127
138.1463492063492	138.20439909297053	67	127
138.1463492063492	138.36691609977325	60	127
138.20439909297053	138.21600907029477	69	127
138.21600907029477	138.36691609977325	67	127
138.36691609977325	138.51784580498867	65	127
138.36691609977325	138.51784580498867	69	127
138.6804081632653	138.84294784580499	65	127
138.6804081632653	138.84294784580499	57	127
139.00548752834467	139.16802721088436	74	127
139.00548752834467	139.16802721088436	70	127
139.00548752834467	139.16802721088436	62	127
139.16802721088436	139.3073469387755	64	127
139.31895691609978	139.45827664399093	69	127
139.31895691609978	139.45827664399093	72	127
139.31895691609978	139.57437641723357	65	127
139.62081632653062	139.70208616780045	69	127
139.62081632653062	139.70208616780045	65	127
139.86462585034013	140.01555555555555	74	127
139.86462585034013	140.01555555555555	65	127
139.86462585034013	140.01555555555555	50	127
140.01555555555555	140.1897052154195	70	127
140.01555555555555	140.1897052154195	62	127
140.01555555555555	140.1897052154195	52	127
140.1897052154195	140.73537414965986	60	127
140.1897052154195	140.34063492063493	53	127
140.1897052154195	140.73537414965986	69	127
140.34063492063493	140.5031746031746	55	127
140.5031746031746	140.65410430839003	53	127
140.65410430839003	140.79342403628118	52	127
140.79342403628118	140.95596371882087	77	127
140.79342403628118	140.95596371882087	74	127
140.79342403628118	140.95596371882087	62	127
140.79342403628118	140.95596371882087	50	127
140.95596371882087	141.1068934240363	74	127
140.95596371882087	141.1068934240363	70	127
140.95596371882087	141.1068934240363	64	127
140.95596371882087	141.1068934240363	52	127
141.1068934240363	141.54807256235827	72	127
141.1068934240363	141.23460317460317	65	127
141.1068934240363	141.23460317460317	53	127
141.1068934240363	141.54807256235827	69	127
141.23460317460317	141.39714285714285	67	127
141.23460317460317	141.39714285714285	55	127
141.39714285714285	141.46680272108844	65	127
141.39714285714285	141.46680272108844	53	127
141.46680272108844	141.62934240362813	64	127
141.46680272108844	141.62934240362813	52	127
141.62934240362813	141.76866213151928	69	127
141.62934240362813	141.76866213151928	81	127
141.62934240362813	141.76866213151928	62	127
141.62934240362813	141.76866213151928	50	127
141.76866213151928	141.95442176870748	77	127
141.76866213151928	141.95442176870748	74	127
141.76866213151928	141.95442176870748	65	127
141.76866213151928	141.95442176870748	53	127
141.95442176870748	142.07052154195011	74	127
141.95442176870748	142.07052154195011	71	127
141.95442176870748	142.07052154195011	55	127
141.95442176870748	142.07052154195011	67	127
142.07052154195011	142.19820861678005	76	127
142.07052154195011	142.19820861678005	72	127
142.07052154195011	142.20984126984126	55	127
142.20984126984126	142.37238095238095	77	127
142.20984126984126	142.37238095238095	74	127
142.20984126984126	142.37238095238095	67	127
142.37238095238095	142.53492063492064	76	127
142.37238095238095	142.53492063492064	72	127
142.53492063492064	142.65102040816328	77	127
142.53492063492064	142.65102040816328	74	127
142.53492063492064	142.65102040816328	55	127
142.65102040816328	142.813537414966	67	127
142.65102040816328	142.813537414966	79	127
142.65102040816328	142.813537414966	59	127
142.813537414966	142.9644671201814	76	127
142.813537414966	142.9644671201814	72	127
142.813537414966	142.97609977324262	60	127
142.97609977324262	143.15024943310658	77	127
142.97609977324262	143.15024943310658	74	127
142.97609977324262	143.15024943310658	48	127
143.15024943310658	143.31278911564627	79	127
143.15024943310658	143.31278911564627	76	127
143.15024943310658	143.31278911564627	60	127
143.31278911564627	143.41727891156464	77	127
143.31278911564627	143.41727891156464	74	127
143.41727891156464	143.55659863945579	79	127
143.41727891156464	143.55659863945579	76	127
143.41727891156464	143.55659863945579	60	127
143.55659863945579	143.71913832199547	81	127
143.55659863945579	143.71913832199547	72	127
143.55659863945579	143.71913832199547	64	127
143.71913832199547	143.82362811791384	77	127
143.71913832199547	143.82362811791384	74	127
143.71913832199547	143.82362811791384	67	127
143.82362811791384	143.962947845805	79	127
143.82362811791384	143.962947845805	76	127
143.82362811791384	143.962947845805	55	127
143.962947845805	144.12548752834468	81	127
143.962947845805	144.12548752834468	77	127
143.962947845805	144.12548752834468	67	127
144.12548752834468	144.28802721088437	83	127
144.12548752834468	144.28802721088437	79	127
144.2996371882086	144.4621768707483	84	127
144.2996371882086	144.4621768707483	81	127
144.2996371882086	144.4621768707483	67	127
144.4621768707483	144.57827664399093	55	127
144.4621768707483	144.57827664399093	71	127
144.4621768707483	144.57827664399093	86	127
144.4621768707483	144.57827664399093	77	127
144.57827664399093	145.13555555555556	67	127
144.57827664399093	144.74081632653062	72	127
144.57827664399093	145.13555555555556	60	127
144.57827664399093	145.13555555555556	88	127
144.57827664399093	145.13555555555556	76	127
144.74081632653062	144.9033560090703	60	127
144.9033560090703	145.04267573696146	72	127
145.55351473922903	145.73927437641723	72	127
145.8205442176871	145.9830612244898	77	127
146.04113378684806	146.12240362811792	79	127
146.04113378684806	146.20367346938775	60	127
146.12240362811792	146.20367346938775	80	127
146.20367346938775	146.3778231292517	79	127
146.3778231292517	146.9467120181406	80	127
146.3778231292517	146.52875283446713	65	127
146.69129251700681	146.86544217687074	67	127
147.00473922902495	147.14408163265307	56	127
147.00473922902495	147.2950113378685	72	127
147.00473922902495	147.2950113378685	80	127
147.00473922902495	147.2950113378685	68	127
147.00473922902495	147.2950113378685	75	127
147.2950113378685	147.39950113378686	61	127
147.2950113378685	147.71297052154196	73	127
147.2950113378685	147.71297052154196	80	127
147.2950113378685	147.71297052154196	68	127
147.2950113378685	147.71297052154196	77	127
147.48077097505669	147.6317006802721	63	127
147.7942403628118	147.98	53	127
147.7942403628118	148.14253968253968	80	127
147.7942403628118	148.14253968253968	72	127
147.7942403628118	148.14253968253968	68	127
147.7942403628118	148.14253968253968	77	127
147.7942403628118	148.14253968253968	65	127
148.14253968253968	148.71142857142857	65	127
148.14253968253968	148.2934693877551	58	127
148.14253968253968	148.71142857142857	73	127
148.14253968253968	148.71142857142857	80	127
148.14253968253968	148.71142857142857	68	127
148.14253968253968	148.71142857142857	77	127
148.46761904761905	148.63015873015874	60	127
148.79267573696146	149.02489795918368	65	127
148.79267573696146	148.94362811791385	46	127
148.79267573696146	149.02489795918368	73	127
148.79267573696146	149.02489795918368	82	127
148.79267573696146	149.02489795918368	68	127
148.79267573696146	149.02489795918368	77	127
148.79267573696146	149.02489795918368	61	127
149.02489795918368	149.53573696145125	63	127
149.02489795918368	149.12938775510204	51	127
149.02489795918368	149.53573696145125	73	127
149.02489795918368	149.53573696145125	82	127
149.02489795918368	149.53573696145125	67	127
149.02489795918368	149.53573696145125	75	127
149.02489795918368	149.53573696145125	61	127
149.29192743764173	149.45446712018142	53	127
149.62861678004535	149.93047619047618	67	127
149.62861678004535	149.93047619047618	61	127
149.62861678004535	149.77954648526077	46	127
149.62861678004535	149.77954648526077	55	127
149.62861678004535	149.77954648526077	82	127
149.62861678004535	149.93047619047618	73	127
149.62861678004535	149.93047619047618	63	127
149.77954648526077	149.93047619047618	84	127
149.93047619047618	150.49936507936508	67	127
149.93047619047618	150.49936507936508	63	127
149.93047619047618	150.49936507936508	61	127
149.93047619047618	150.09301587301587	82	127
149.93047619047618	150.09301587301587	63	127
149.93047619047618	150.09301587301587	51	127
149.93047619047618	150.49936507936508	73	127
150.09301587301587	150.2439455782313	80	127
150.2439455782313	150.40648526077098	65	127
150.2439455782313	150.40648526077098	79	127
150.2439455782313	150.40648526077098	53	127
150.40648526077098	150.56902494331067	80	127
150.56902494331067	150.69673469387754	67	127
150.56902494331067	150.69673469387754	55	127
150.56902494331067	150.81283446712018	82	127
150.56902494331067	150.81283446712018	67	127
150.56902494331067	150.81283446712018	73	127
150.56902494331067	150.81283446712018	63	127
150.56902494331067	150.81283446712018	61	127
150.81283446712018	151.35850340136054	63	127
150.81283446712018	150.98698412698414	51	127
150.81283446712018	151.35850340136054	82	127
150.81283446712018	151.35850340136054	67	127
150.81283446712018	151.35850340136054	73	127
150.81283446712018	151.35850340136054	61	127
151.1263038548753	151.2772335600907	53	127
151.4397732426304	151.5907029478458	55	127
151.4397732426304	151.76485260770974	67	127
151.4397732426304	151.76485260770974	73	127
151.4397732426304	151.76485260770974	63	127
151.4397732426304	151.76485260770974	61	127
151.4397732426304	151.5907029478458	82	127
151.5907029478458	151.76485260770974	84	127
151.76485260770974	152.29891156462585	63	127
151.76485260770974	151.89256235827665	82	127
151.76485260770974	151.89256235827665	39	127
151.76485260770974	152.29891156462585	67	127
151.76485260770974	152.29891156462585	73	127
151.76485260770974	152.29891156462585	61	127
151.89256235827665	152.04349206349207	80	127
152.04349206349207	152.21761904761905	79	127
152.04349206349207	152.21761904761905	41	127
152.21761904761905	152.3453514739229	80	127
152.3453514739229	152.68201814058958	67	127
152.3453514739229	152.5078911564626	43	127
152.3453514739229	152.68201814058958	82	127
152.3453514739229	152.68201814058958	73	127
152.3453514739229	152.68201814058958	63	127
152.3453514739229	152.68201814058958	61	127
152.68201814058958	153.2392970521542	67	127
152.68201814058958	152.8445804988662	64	127
152.68201814058958	152.8445804988662	52	127
152.68201814058958	153.2392970521542	82	127
152.68201814058958	153.2392970521542	72	127
152.68201814058958	153.2392970521542	64	127
152.68201814058958	153.2392970521542	60	127
153.0071201814059	153.1580498866213	53	127
153.0071201814059	153.1580498866213	65	127
153.30897959183673	153.45990929705215	82	127
153.30897959183673	153.45990929705215	67	127
153.30897959183673	153.45990929705215	55	127
153.30897959183673	153.61083900226757	72	127
153.30897959183673	153.61083900226757	64	127
153.30897959183673	153.61083900226757	60	127
153.30897959183673	153.61083900226757	79	127
153.45990929705215	153.61083900226757	84	127
153.61083900226757	154.12167800453514	64	127
153.61083900226757	153.75013605442177	82	127
153.61083900226757	153.75013605442177	52	127
153.61083900226757	154.12167800453514	72	127
153.61083900226757	154.12167800453514	79	127
153.61083900226757	154.12167800453514	60	127
153.75013605442177	153.90108843537416	80	127
153.90108843537416	154.0404081632653	53	127
153.90108843537416	154.0404081632653	79	127
154.0404081632653	154.15650793650795	82	127
154.1681179138322	154.49319727891157	79	127
154.1681179138322	154.49319727891157	64	127
154.1681179138322	154.49319727891157	60	127
154.1681179138322	154.3190476190476	55	127
154.1681179138322	154.49319727891157	83	127
154.1681179138322	154.49319727891157	72	127
154.49319727891157	154.67895691609976	40	127
154.49319727891157	154.7950566893424	83	127
154.49319727891157	154.99242630385487	72	127
154.49319727891157	154.99242630385487	79	127
154.49319727891157	154.99242630385487	64	127
154.49319727891157	154.99242630385487	60	127
154.84149659863945	154.89954648526077	79	127
154.84149659863945	154.89954648526077	41	127
154.89954648526077	155.07369614512473	83	127
155.07369614512473	155.39877551020408	72	127
155.07369614512473	155.24784580498866	43	127
155.07369614512473	155.39877551020408	84	127
155.07369614512473	155.39877551020408	79	127
155.07369614512473	155.39877551020408	60	127
155.07369614512473	155.39877551020408	64	127
155.07369614512473	155.39877551020408	48	127
155.07369614512473	155.39877551020408	55	127
155.39877551020408	156.23469387755102	48	127
155.39877551020408	156.23469387755102	55	127
155.39877551020408	155.6774149659864	84	127
155.39877551020408	155.6774149659864	72	127
155.39877551020408	155.6774149659864	79	127
155.39877551020408	156.23469387755102	36	127
155.39877551020408	156.23469387755102	60	127
155.39877551020408	156.23469387755102	64	127
155.74705215419502	155.87478458049887	82	127
155.74705215419502	155.87478458049887	79	127
155.87478458049887	155.94444444444446	79	127
155.87478458049887	155.94444444444446	76	127
155.94444444444446	156.0024716553288	72	127
155.94444444444446	156.0024716553288	76	127
156.0024716553288	156.0837641723356	72	127
156.0024716553288	156.0837641723356	70	127
156.0837641723356	156.1766439909297	70	127
156.0837641723356	156.1766439909297	67	127
156.1766439909297	156.23469387755102	64	127
156.1766439909297	156.23469387755102	67	127
156.23469387755102	156.32757369614512	64	127
156.23469387755102	156.32757369614512	60	127
156.32757369614512	156.4901133786848	48	127
156.32757369614512	156.4901133786848	60	127
156.6526530612245	156.79197278911565	65	127
156.6526530612245	156.79197278911565	57	127
156.6526530612245	156.79197278911565	53	127
156.6526530612245	156.79197278911565	48	127
156.88485260770975	156.98934240362811	67	127
156.88485260770975	156.98934240362811	60	127
156.88485260770975	156.98934240362811	55	127
156.88485260770975	156.98934240362811	52	127
157.1518820861678	157.27956916099774	69	127
157.1518820861678	157.27956916099774	65	127
157.1518820861678	157.27956916099774	57	127
157.1518820861678	157.27956916099774	53	127
157.39569160997732	157.558231292517	65	127
157.39569160997732	157.558231292517	57	127
157.39569160997732	157.558231292517	53	127
157.39569160997732	157.558231292517	48	127
157.73238095238096	157.8136507936508	67	127
157.73238095238096	157.8136507936508	55	127
157.73238095238096	158.0458276643991	60	127
157.73238095238096	158.0458276643991	52	127
157.8136507936508	157.89489795918368	69	127
157.8136507936508	157.89489795918368	57	127
157.89489795918368	158.0458276643991	67	127
157.89489795918368	158.0458276643991	55	127
158.0458276643991	158.23160997732427	53	127
158.0458276643991	158.23160997732427	69	127
158.0458276643991	158.23160997732427	65	127
158.0458276643991	158.23160997732427	57	127
158.3825396825397	158.54507936507937	48	127
158.3825396825397	158.54507936507937	53	127
158.3825396825397	158.54507936507937	65	127
158.3825396825397	158.54507936507937	57	127
158.68439909297052	158.7540589569161	50	127
158.68439909297052	158.83532879818594	70	127
158.68439909297052	158.83532879818594	62	127
158.68439909297052	158.83532879818594	58	127
158.83532879818594	158.91657596371883	52	127
159.0094784580499	159.16040816326532	53	127
159.0094784580499	159.16040816326532	69	127
159.0094784580499	159.16040816326532	60	127
159.0094784580499	159.16040816326532	57	127
159.25328798185942	159.3809977324263	57	127
159.25328798185942	159.3809977324263	53	127
159.25328798185942	159.3809977324263	65	127
159.25328798185942	159.3809977324263	48	127
159.53190476190477	159.8337641723356	52	127
159.53190476190477	159.57834467120182	67	127
159.53190476190477	159.57834467120182	55	127
159.53190476190477	159.8337641723356	60	127
159.57834467120182	159.64802721088435	69	127
159.57834467120182	159.64802721088435	57	127
159.64802721088435	159.8337641723356	67	127
159.64802721088435	159.8337641723356	55	127
159.8337641723356	159.93825396825397	57	127
159.8337641723356	159.93825396825397	69	127
159.8337641723356	159.93825396825397	65	127
159.8337641723356	159.93825396825397	53	127
160.06598639455783	160.2285260770975	65	127
160.06598639455783	160.2285260770975	57	127
160.06598639455783	160.2285260770975	53	127
160.06598639455783	160.2285260770975	48	127
160.37945578231293	160.51877551020408	74	127
160.37945578231293	160.51877551020408	70	127
160.37945578231293	160.51877551020408	62	127
160.37945578231293	160.51877551020408	50	127
160.51877551020408	160.65809523809523	64	127
160.51877551020408	160.65809523809523	52	127
160.65809523809523	160.82063492063492	72	127
160.65809523809523	160.82063492063492	69	127
160.65809523809523	160.82063492063492	65	127
160.65809523809523	160.82063492063492	53	127
160.92512471655328	161.04122448979592	69	127
160.92512471655328	161.04122448979592	65	127
160.92512471655328	161.04122448979592	60	127
160.92512471655328	161.04122448979592	48	127
161.18054421768707	161.34308390022676	74	127
161.18054421768707	161.34308390022676	65	127
161.18054421768707	161.34308390022676	62	127
161.18054421768707	161.34308390022676	50	127
161.34308390022676	161.50562358276645	70	127
161.34308390022676	161.50562358276645	62	127
161.34308390022676	161.50562358276645	64	127
161.34308390022676	161.50562358276645	52	127
161.50562358276645	161.66816326530613	53	127
161.50562358276645	161.66816326530613	65	127
161.50562358276645	162.10934240362812	69	127
161.50562358276645	162.10934240362812	60	127
161.66816326530613	161.8771201814059	55	127
161.66816326530613	161.8771201814059	67	127
161.8771201814059	162.0280725623583	53	127
161.8771201814059	162.0280725623583	65	127
162.0280725623583	162.19061224489795	64	127
162.0280725623583	162.19061224489795	52	127
162.19061224489795	162.3647619047619	77	127
162.19061224489795	162.3647619047619	74	127
162.19061224489795	162.3647619047619	62	127
162.19061224489795	162.3647619047619	50	127
162.3647619047619	162.5273015873016	64	127
162.3647619047619	162.5273015873016	74	127
162.3647619047619	162.5273015873016	70	127
162.3647619047619	162.5273015873016	52	127
162.5273015873016	163.00328798185942	72	127
162.5273015873016	163.00328798185942	69	127
162.5273015873016	162.68984126984128	53	127
162.5273015873016	162.68984126984128	65	127
162.68984126984128	162.8059410430839	67	127
162.68984126984128	162.8059410430839	55	127
162.8059410430839	162.94526077097507	53	127
162.8059410430839	162.94526077097507	65	127
162.94526077097507	163.08458049886622	62	127
162.94526077097507	163.08458049886622	50	127
163.0961904761905	163.23551020408163	60	127
163.0961904761905	163.23551020408163	81	127
163.0961904761905	163.23551020408163	69	127
163.0961904761905	163.23551020408163	76	127
163.0961904761905	163.23551020408163	48	127
163.23551020408163	163.36319727891157	74	127
163.23551020408163	163.36319727891157	62	127
163.23551020408163	163.36319727891157	77	127
163.23551020408163	163.36319727891157	50	127
163.36319727891157	163.88566893424036	71	127
163.36319727891157	163.5257596371882	64	127
163.36319727891157	163.5257596371882	52	127
163.36319727891157	163.88566893424036	76	127
163.36319727891157	163.88566893424036	68	127
163.5257596371882	163.64185941043084	66	127
163.5257596371882	163.64185941043084	54	127
163.64185941043084	163.79278911564626	56	127
163.64185941043084	163.79278911564626	68	127
163.79278911564626	163.96693877551022	69	127
163.79278911564626	163.96693877551022	57	127
163.96693877551022	164.0946485260771	76	127
163.96693877551022	164.0946485260771	71	127
163.96693877551022	164.0946485260771	59	127
163.96693877551022	164.21074829931973	59	127
163.96693877551022	164.21074829931973	68	127
163.96693877551022	164.21074829931973	52	127
164.0946485260771	164.25718820861678	77	127
164.0946485260771	164.25718820861678	62	127
164.0946485260771	164.25718820861678	74	127
164.25718820861678	164.53580498866214	57	127
164.25718820861678	164.43133786848074	76	127
164.25718820861678	164.43133786848074	72	127
164.25718820861678	164.43133786848074	60	127
164.25718820861678	164.83768707482994	60	127
164.25718820861678	164.83768707482994	69	127
164.43133786848074	164.60548752834467	71	127
164.43133786848074	164.60548752834467	59	127
164.43133786848074	164.60548752834467	74	127
164.60548752834467	164.7564172335601	57	127
164.60548752834467	164.7564172335601	72	127
164.60548752834467	164.7564172335601	69	127
164.60548752834467	164.83768707482994	45	127
164.7564172335601	164.8957142857143	74	127
164.8957142857143	165.74326530612245	76	127
164.8957142857143	165.0466439909297	36	127
164.8957142857143	165.0466439909297	60	127
164.8957142857143	165.0466439909297	48	127
164.8957142857143	165.15113378684808	69	127
164.8957142857143	165.15113378684808	72	127
165.0466439909297	165.20920634920634	62	127
165.0466439909297	165.20920634920634	50	127
165.0466439909297	165.1975963718821	38	127
165.20920634920634	165.74326530612245	68	127
165.20920634920634	165.34852607709752	64	127
165.20920634920634	165.34852607709752	52	127
165.20920634920634	165.44140589569162	40	127
165.20920634920634	165.74326530612245	71	127
165.34852607709752	165.49945578231294	66	127
165.34852607709752	165.49945578231294	54	127
165.49945578231294	165.66197278911565	56	127
165.49945578231294	165.66197278911565	68	127
165.66197278911565	165.82453514739228	69	127
165.66197278911565	165.82453514739228	57	127
165.82453514739228	165.9754648526077	71	127
165.82453514739228	165.9754648526077	59	127
165.82453514739228	166.05673469387756	59	127
165.82453514739228	166.05673469387756	68	127
165.82453514739228	166.05673469387756	52	127
165.82453514739228	165.9754648526077	76	127
165.9754648526077	166.11478458049888	62	127
165.9754648526077	166.11478458049888	77	127
165.9754648526077	166.11478458049888	74	127
166.11478458049888	166.2773015873016	76	127
166.11478458049888	166.2773015873016	72	127
166.11478458049888	166.2773015873016	60	127
166.11478458049888	166.39342403628117	57	127
166.11478458049888	166.6024036281179	69	127
166.11478458049888	166.6024036281179	60	127
166.2773015873016	166.4514739229025	59	127
166.2773015873016	166.4514739229025	74	127
166.2773015873016	166.4514739229025	71	127
166.4514739229025	166.55596371882086	69	127
166.4514739229025	166.55596371882086	57	127
166.4514739229025	166.56757369614513	72	127
166.4514739229025	166.61401360544218	45	127
166.56757369614513	166.6720634920635	74	127
166.6720634920635	166.79977324263038	60	127
166.6720634920635	167.44990929705216	76	127
166.6720634920635	166.79977324263038	48	127
166.6720634920635	166.90426303854875	67	127
166.6720634920635	166.90426303854875	72	127
166.6720634920635	166.79977324263038	36	127
166.79977324263038	166.9507029478458	62	127
166.79977324263038	166.9507029478458	50	127
166.79977324263038	166.9507029478458	43	127
166.9507029478458	167.06680272108844	52	127
166.9507029478458	167.06680272108844	64	127
166.9507029478458	167.18290249433107	48	127
166.9507029478458	167.44990929705216	67	127
166.9507029478458	167.44990929705216	70	127
167.06680272108844	167.2409523809524	65	127
167.06680272108844	167.2409523809524	53	127
167.2409523809524	167.3918820861678	55	127
167.2409523809524	167.3918820861678	67	127
167.3918820861678	167.53120181405896	69	127
167.3918820861678	167.53120181405896	57	127
167.53120181405896	167.8098185941043	67	127
167.53120181405896	167.70532879818595	76	127
167.53120181405896	167.70532879818595	70	127
167.53120181405896	167.70532879818595	58	127
167.53120181405896	167.8098185941043	48	127
167.70532879818595	167.86789115646258	62	127
167.70532879818595	167.86789115646258	74	127
167.70532879818595	167.86789115646258	77	127
167.86789115646258	168.018820861678	76	127
167.86789115646258	168.018820861678	72	127
167.86789115646258	168.018820861678	60	127
167.86789115646258	168.11170068027212	60	127
167.86789115646258	168.37873015873015	67	127
167.86789115646258	168.37873015873015	70	127
168.018820861678	168.16972789115647	58	127
168.018820861678	168.16972789115647	74	127
168.018820861678	168.16972789115647	70	127
168.16972789115647	168.3090702947846	55	127
168.16972789115647	168.3090702947846	67	127
168.16972789115647	168.3090702947846	72	127
168.16972789115647	168.41356009070296	48	127
168.3090702947846	168.46	74	127
168.46	168.61092970521543	48	127
168.46	168.61092970521543	36	127
168.46	168.6225396825397	76	127
168.46	168.6225396825397	70	127
168.46	168.7154195011338	67	127
168.46	168.6225396825397	58	127
168.6225396825397	168.76185941043084	74	127
168.6225396825397	168.76185941043084	55	127
168.6225396825397	168.76185941043084	43	127
168.6225396825397	168.76185941043084	77	127
168.6225396825397	168.76185941043084	62	127
168.76185941043084	168.88956916099772	76	127
168.76185941043084	168.98242630385488	60	127
168.76185941043084	168.98242630385488	48	127
168.76185941043084	168.88956916099772	72	127
168.76185941043084	168.88956916099772	60	127
168.76185941043084	169.26108843537415	67	127
168.76185941043084	169.26108843537415	70	127
168.88956916099772	169.04049886621314	58	127
168.88956916099772	169.04049886621314	74	127
168.88956916099772	169.04049886621314	70	127
169.04049886621314	169.17981859410432	72	127
169.04049886621314	169.29591836734693	48	127
169.04049886621314	169.29591836734693	36	127
169.04049886621314	169.17981859410432	67	127
169.04049886621314	169.17981859410432	55	127
169.17981859410432	169.33074829931974	74	127
169.33074829931974	169.47006802721089	76	127
169.33074829931974	169.47006802721089	67	127
169.33074829931974	169.47006802721089	70	127
169.33074829931974	169.47006802721089	58	127
169.33074829931974	169.47006802721089	48	127
169.33074829931974	169.47006802721089	36	127
169.47006802721089	169.6209977324263	62	127
169.47006802721089	169.6209977324263	77	127
169.47006802721089	169.6209977324263	70	127
169.47006802721089	169.6209977324263	55	127
169.47006802721089	169.6209977324263	43	127
169.47006802721089	169.6209977324263	74	127
169.6209977324263	169.77192743764172	79	127
169.6209977324263	169.77192743764172	76	127
169.6209977324263	169.783537414966	72	127
169.6209977324263	169.783537414966	60	127
169.6209977324263	169.88802721088436	60	127
169.6209977324263	169.88802721088436	48	127
169.783537414966	169.94607709750568	81	127
169.783537414966	169.94607709750568	77	127
169.783537414966	169.94607709750568	70	127
169.783537414966	169.94607709750568	58	127
169.94607709750568	170.1085941043084	82	127
169.94607709750568	170.1085941043084	79	127
169.94607709750568	170.1085941043084	67	127
169.94607709750568	170.1085941043084	55	127
169.94607709750568	170.20149659863947	48	127
169.94607709750568	170.20149659863947	36	127
170.1085941043084	170.24793650793652	84	127
170.1085941043084	170.24793650793652	81	127
170.25954648526078	170.42208616780044	86	127
170.25954648526078	170.42208616780044	82	127
170.25954648526078	170.42208616780044	64	127
170.25954648526078	170.42208616780044	72	127
170.25954648526078	170.42208616780044	60	127
170.25954648526078	170.5265759637188	60	127
170.25954648526078	170.5265759637188	48	127
170.42208616780044	170.56140589569162	88	127
170.42208616780044	170.56140589569162	79	127
170.56140589569162	170.79360544217687	89	127
170.56140589569162	170.67750566893423	41	127
170.56140589569162	170.67750566893423	48	127
170.56140589569162	170.79360544217687	81	127
170.56140589569162	170.79360544217687	65	127
170.56140589569162	170.79360544217687	69	127
170.56140589569162	170.79360544217687	53	127
170.56140589569162	170.79360544217687	60	127
170.61943310657597	170.8516553287982	57	127
170.61943310657597	170.8516553287982	53	127
171.01419501133788	171.10707482993197	84	127
171.01419501133788	171.10707482993197	72	127
171.01419501133788	171.10707482993197	72	127
171.01419501133788	171.10707482993197	60	127
171.11868480725624	171.28122448979593	86	127
171.11868480725624	171.28122448979593	74	127
171.11868480725624	171.28122448979593	74	127
171.11868480725624	171.28122448979593	62	127
171.28122448979593	171.4437641723356	88	127
171.28122448979593	171.4437641723356	76	127
171.28122448979593	171.4437641723356	76	127
171.28122448979593	171.4437641723356	64	127
171.4437641723356	171.61791383219955	41	127
171.4437641723356	171.61791383219955	48	127
171.4437641723356	171.72240362811792	89	127
171.4437641723356	171.72240362811792	77	127
171.4437641723356	171.72240362811792	77	127
171.4437641723356	171.72240362811792	65	127
171.53664399092972	171.7572335600907	53	127
171.53664399092972	171.7572335600907	57	127
171.8849433106576	172.02426303854875	72	127
171.8849433106576	172.02426303854875	60	127
171.8849433106576	172.02426303854875	48	127
171.8849433106576	172.02426303854875	48	127
171.8849433106576	172.02426303854875	36	127
172.02426303854875	172.1403628117914	74	127
172.02426303854875	172.1403628117914	62	127
172.02426303854875	172.1403628117914	50	127
172.02426303854875	172.1403628117914	50	127
172.02426303854875	172.1403628117914	38	127
172.1403628117914	172.27968253968254	76	127
172.1403628117914	172.27968253968254	64	127
172.1403628117914	172.27968253968254	52	127
172.1403628117914	172.27968253968254	52	127
172.1403628117914	172.27968253968254	40	127
172.27968253968254	172.77891156462584	74	127
172.27968253968254	173.05755102040817	65	127
172.27968253968254	172.77891156462584	77	127
172.27968253968254	172.37256235827664	41	127
172.27968253968254	172.98789115646258	53	127
172.27968253968254	173.05755102040817	53	127
172.51185941043084	172.6395918367347	46	127
172.77891156462584	172.91823129251702	72	127
172.77891156462584	172.91823129251702	76	127
172.77891156462584	172.91823129251702	48	127
173.05755102040817	174.13727891156464	53	127
173.05755102040817	174.13727891156464	65	127
173.05755102040817	173.46390022675737	74	127
173.05755102040817	173.18526077097505	41	127
173.05755102040817	173.46390022675737	70	127
173.05755102040817	173.18526077097505	53	127
173.31297052154196	173.359410430839	46	127
173.46390022675737	173.59160997732425	69	127
173.46390022675737	173.59160997732425	48	127
173.46390022675737	173.59160997732425	72	127
173.73092970521543	173.82380952380953	41	127
173.73092970521543	173.7657596371882	70	127
173.73092970521543	173.7657596371882	67	127
173.73092970521543	173.82380952380953	53	127
173.7657596371882	173.82380952380953	72	127
173.7657596371882	173.82380952380953	69	127
173.82380952380953	173.9282993197279	70	127
173.82380952380953	173.9282993197279	67	127
173.9282993197279	174.06761904761905	46	127
173.9282993197279	174.06761904761905	60	127
173.9282993197279	174.06761904761905	69	127
174.2069387755102	174.32303854875283	67	127
174.2069387755102	174.32303854875283	58	127
174.2069387755102	174.32303854875283	64	127
174.2069387755102	174.32303854875283	52	127
174.2069387755102	174.32303854875283	48	127
174.45074829931974	174.76419501133788	57	127
174.45074829931974	174.57845804988662	41	127
174.45074829931974	174.57845804988662	53	127
174.45074829931974	174.81063492063493	72	127
174.45074829931974	175.0892970521542	65	127
174.45074829931974	175.0892970521542	53	127
174.69455782312926	174.81063492063493	45	127
174.81063492063493	174.93836734693878	69	127
174.81063492063493	174.88031746031746	72	127
174.93836734693878	175.04285714285714	48	127
174.93836734693878	175.04285714285714	74	127
174.93836734693878	175.04285714285714	70	127
175.04285714285714	175.10090702947846	76	127
175.04285714285714	175.10090702947846	67	127
175.11251700680273	175.78587301587302	53	127
175.11251700680273	175.2402267573696	41	127
175.11251700680273	175.51886621315194	77	127
175.11251700680273	175.51886621315194	74	127
175.11251700680273	175.2402267573696	53	127
175.11251700680273	175.78587301587302	65	127
175.34471655328798	175.44920634920635	46	127
175.51886621315194	175.63496598639455	48	127
175.51886621315194	175.63496598639455	76	127
175.51886621315194	175.63496598639455	72	127
175.78587301587302	176.1225850340136	70	127
175.78587301587302	175.91360544217687	53	127
175.78587301587302	176.1225850340136	74	127
175.78587301587302	175.91360544217687	41	127
175.78587301587302	176.26190476190476	65	127
175.78587301587302	176.19222222222223	53	127
176.05292517006802	176.1225850340136	46	127
176.1225850340136	176.19222222222223	69	127
176.1225850340136	176.19222222222223	72	127
176.26190476190476	176.3780045351474	64	127
176.26190476190476	176.3780045351474	52	127
176.26190476190476	176.3780045351474	48	127
176.26190476190476	176.3780045351474	67	127
176.26190476190476	176.3780045351474	76	127
176.3780045351474	176.50571428571428	72	127
176.50571428571428	176.5985941043084	41	127
176.50571428571428	177.2603628117914	65	127
176.50571428571428	177.2603628117914	53	127
176.50571428571428	176.98172335600907	77	127
176.50571428571428	176.98172335600907	74	127
176.50571428571428	176.5985941043084	53	127
176.73791383219955	176.86562358276643	46	127
176.98172335600907	177.12104308390022	72	127
176.98172335600907	177.12104308390022	76	127
176.98172335600907	177.12104308390022	48	127
177.2603628117914	177.39968253968254	41	127
177.2603628117914	177.39968253968254	53	127
177.2603628117914	177.58544217687074	74	127
177.2603628117914	177.58544217687074	70	127
177.2603628117914	177.60866213151928	53	127
177.2603628117914	177.6667120181406	65	127
177.51578231292518	177.58544217687074	46	127
177.58544217687074	177.60866213151928	69	127
177.58544217687074	177.60866213151928	72	127
177.6667120181406	177.73637188208616	76	127
177.6667120181406	177.73637188208616	67	127
177.6667120181406	177.74798185941043	64	127
177.6667120181406	177.74798185941043	52	127
177.6667120181406	177.74798185941043	48	127
177.74798185941043	177.87569160997734	72	127
177.87569160997734	177.95696145124717	43	127
177.87569160997734	178.27043083900227	79	127
177.87569160997734	178.27043083900227	70	127
177.87569160997734	178.54907029478457	67	127
177.87569160997734	177.95696145124717	55	127
177.87569160997734	178.54907029478457	55	127
178.0150113378685	178.14272108843537	46	127
178.27043083900227	178.40975056689342	50	127
178.27043083900227	178.40975056689342	74	127
178.27043083900227	178.40975056689342	77	127
178.54907029478457	178.6651700680272	43	127
178.54907029478457	178.6651700680272	55	127
178.54907029478457	178.87414965986395	76	127
178.54907029478457	178.87414965986395	72	127
178.54907029478457	178.94380952380953	67	127
178.54907029478457	178.94380952380953	55	127
178.7580498866213	178.87414965986395	48	127
178.87414965986395	178.94380952380953	70	127
178.87414965986395	178.94380952380953	74	127
178.99024943310658	179.11795918367346	77	127
178.99024943310658	179.11795918367346	69	127
178.99024943310658	179.12956916099773	65	127
178.99024943310658	179.12956916099773	53	127
178.99024943310658	179.12956916099773	50	127
179.12956916099773	179.2340589569161	74	127
179.2340589569161	179.5475283446712	72	127
179.2340589569161	179.59396825396826	81	127
179.2340589569161	179.35015873015874	57	127
179.2340589569161	179.35015873015874	45	127
179.2340589569161	179.7100680272109	69	127
179.2340589569161	179.7100680272109	57	127
179.4662358276644	179.59396825396826	48	127
179.59396825396826	179.7100680272109	72	127
179.59396825396826	179.65201814058958	76	127
179.7100680272109	179.83777777777777	77	127
179.7100680272109	179.83777777777777	69	127
179.7100680272109	179.83777777777777	65	127
179.7100680272109	179.83777777777777	53	127
179.7100680272109	179.83777777777777	50	127
179.83777777777777	179.91904761904763	74	127
179.91904761904763	180.18607709750566	72	127
179.91904761904763	180.023537414966	45	127
179.91904761904763	180.08156462585035	57	127
179.91904761904763	180.23249433106577	81	127
179.91904761904763	180.36022675736962	69	127
179.91904761904763	180.36022675736962	57	127
180.10480725623583	180.23249433106577	48	127
180.23249433106577	180.36022675736962	72	127
180.23249433106577	180.29056689342403	76	127
180.36022675736962	180.46471655328799	77	127
180.36022675736962	180.46471655328799	69	127
180.36022675736962	180.47632653061225	65	127
180.36022675736962	180.47632653061225	53	127
180.36022675736962	180.47632653061225	50	127
180.36022675736962	180.53437641723357	50	127
180.47632653061225	180.58081632653062	74	127
180.58081632653062	181.01038548752834	81	127
180.58081632653062	181.01038548752834	69	127
180.58081632653062	181.01038548752834	69	127
180.58081632653062	181.01038548752834	57	127
180.58081632653062	181.01038548752834	57	127
180.58081632653062	181.01038548752834	45	127
181.01038548752834	181.14968253968254	82	127
181.01038548752834	181.14968253968254	70	127
181.01038548752834	181.14968253968254	70	127
181.01038548752834	181.14968253968254	58	127
181.01038548752834	181.14968253968254	58	127
181.01038548752834	181.14968253968254	46	127
181.2541723356009	181.66052154195012	83	127
181.2541723356009	181.66052154195012	71	127
181.2541723356009	181.66052154195012	71	127
181.2541723356009	181.66052154195012	59	127
181.2541723356009	181.66052154195012	59	127
181.2541723356009	181.66052154195012	47	127
181.66052154195012	181.79986394557824	60	127
181.66052154195012	181.79986394557824	84	127
181.66052154195012	181.79986394557824	72	127
181.66052154195012	181.79986394557824	60	127
181.66052154195012	181.79986394557824	48	127
181.66052154195012	181.88113378684807	72	127
181.92757369614512	182.0668934240363	73	127
181.92757369614512	182.0668934240363	61	127
181.92757369614512	182.0668934240363	85	127
181.92757369614512	182.0668934240363	61	127
181.92757369614512	182.0668934240363	49	127
182.20621315192744	182.32231292517008	86	127
182.20621315192744	182.32231292517008	74	127
182.20621315192744	182.32231292517008	62	127
182.20621315192744	182.32231292517008	62	127
182.20621315192744	182.32231292517008	50	127
182.4035827664399	182.41519274376418	87	127
182.4035827664399	182.41519274376418	75	127
182.4035827664399	182.41519274376418	63	127
182.4035827664399	182.41519274376418	63	127
182.4035827664399	182.41519274376418	51	127
182.55451247165533	182.6590022675737	88	127
182.55451247165533	182.6590022675737	76	127
182.55451247165533	182.6590022675737	64	127
182.55451247165533	182.6590022675737	64	127
182.55451247165533	182.6590022675737	52	127
182.78668934240363	182.891179138322	89	127
182.78668934240363	182.891179138322	77	127
182.78668934240363	182.891179138322	65	127
182.78668934240363	182.891179138322	65	127
182.78668934240363	182.891179138322	53	127
182.98408163265307	183.04210884353742	78	127
182.98408163265307	183.04210884353742	66	127
182.98408163265307	183.04210884353742	66	127
182.98408163265307	183.04210884353742	54	127
182.98408163265307	183.04210884353742	90	127
183.18145124716554	183.40201814058958	65	127
183.18145124716554	183.2859410430839	91	127
183.18145124716554	183.2859410430839	55	127
183.18145124716554	183.35560090702947	59	127
183.18145124716554	183.35560090702947	67	127
183.18145124716554	183.35560090702947	55	127
183.18145124716554	183.5413605442177	71	127
183.18145124716554	183.5413605442177	79	127
183.18145124716554	183.5413605442177	67	127
183.2511111111111	183.40201814058958	71	127
183.2859410430839	183.40201814058958	91	127
183.40201814058958	183.49492063492065	91	127
183.49492063492065	183.5413605442177	91	127
183.5413605442177	183.68068027210884	91	127
183.5413605442177	183.68068027210884	74	127
183.5413605442177	183.68068027210884	65	127
183.5413605442177	183.68068027210884	77	127
183.68068027210884	183.79678004535148	91	127
183.79678004535148	183.93609977324263	91	127
183.79678004535148	183.93609977324263	43	127
183.79678004535148	184.01734693877552	55	127
183.79678004535148	184.01734693877552	65	127
183.79678004535148	184.01734693877552	59	127
183.79678004535148	184.01734693877552	67	127
183.79678004535148	184.06378684807257	53	127
183.79678004535148	184.2960090702948	72	127
183.79678004535148	184.2960090702948	76	127
183.79678004535148	184.2960090702948	64	127
183.86643990929704	184.06378684807257	59	127
183.93609977324263	184.06378684807257	91	127
184.06378684807257	184.17990929705215	91	127
184.17990929705215	184.2960090702948	91	127
184.2960090702948	184.3540589569161	91	127
184.3540589569161	184.6326984126984	58	127
184.3540589569161	184.6326984126984	55	127
184.3540589569161	184.49337868480725	84	127
184.3540589569161	184.49337868480725	96	127
184.3540589569161	184.49337868480725	48	127
184.3540589569161	184.49337868480725	48	127
184.3540589569161	184.58625850340135	48	127
184.3540589569161	184.77201814058958	64	127
184.3540589569161	184.6326984126984	67	127
184.3540589569161	184.6326984126984	55	127
184.42369614512472	184.6326984126984	67	127
184.42369614512472	184.77201814058958	64	127
184.50498866213152	184.77201814058958	76	127
184.50498866213152	184.6326984126984	84	127
184.50498866213152	184.6326984126984	96	127
184.50498866213152	184.77201814058958	72	127
184.50498866213152	184.77201814058958	84	127
184.6326984126984	184.72557823129253	84	127
184.6326984126984	184.72557823129253	96	127
184.72557823129253	184.77201814058958	84	127
184.72557823129253	184.77201814058958	96	127
184.77201814058958	184.80684807256236	84	127
184.77201814058958	184.80684807256236	74	127
184.77201814058958	184.80684807256236	82	127
184.77201814058958	184.80684807256236	62	127
184.77201814058958	184.80684807256236	96	127
184.77201814058958	184.80684807256236	70	127
184.80684807256236	184.87650793650795	96	127
184.80684807256236	184.87650793650795	84	127
184.87650793650795	185.31768707482993	81	127
184.87650793650795	185.00421768707483	84	127
184.87650793650795	185.00421768707483	96	127
184.87650793650795	185.00421768707483	48	127
184.87650793650795	185.00421768707483	36	127
184.87650793650795	185.00421768707483	43	127
184.87650793650795	185.13192743764174	58	127
184.87650793650795	185.31768707482993	69	127
184.87650793650795	185.31768707482993	60	127
184.87650793650795	185.31768707482993	72	127
184.9345351473923	185.13192743764174	60	127
184.9345351473923	185.13192743764174	52	127
184.9345351473923	185.13192743764174	64	127
185.00421768707483	185.13192743764174	96	127
185.00421768707483	185.13192743764174	84	127
185.13192743764174	185.25963718820861	96	127
185.13192743764174	185.25963718820861	84	127
185.27124716553288	185.31768707482993	96	127
185.27124716553288	185.31768707482993	84	127
185.31768707482993	185.36412698412698	96	127
185.31768707482993	185.36412698412698	84	127
185.36412698412698	185.4918367346939	41	127
185.36412698412698	185.4918367346939	48	127
185.36412698412698	185.584716553288	89	127
185.36412698412698	185.584716553288	69	127
185.36412698412698	185.584716553288	77	127
185.36412698412698	185.584716553288	65	127
185.36412698412698	185.584716553288	41	127
185.36412698412698	185.6079365079365	57	127
185.36412698412698	185.6079365079365	48	127
185.43378684807257	185.6079365079365	57	127
185.43378684807257	185.6079365079365	65	127
186.07233560090702	186.2697052154195	65	127
186.07233560090702	186.18843537414966	65	127
186.07233560090702	186.18843537414966	57	127
186.07233560090702	186.18843537414966	53	127
186.07233560090702	186.18843537414966	41	127
186.07233560090702	186.25809523809525	69	127
186.07233560090702	186.25809523809525	93	127
186.07233560090702	186.25809523809525	53	127
186.07233560090702	186.2697052154195	72	127
186.07233560090702	186.2697052154195	60	127
186.07233560090702	186.2697052154195	48	127
186.1419954648526	186.2697052154195	69	127
186.1419954648526	186.2697052154195	72	127
186.1419954648526	186.2697052154195	57	127
186.1419954648526	186.2697052154195	81	127
186.6528344671202	188.057641723356	65	127
186.6528344671202	188.057641723356	53	127
186.6528344671202	188.057641723356	60	127
186.6528344671202	188.057641723356	41	127
186.6528344671202	188.057641723356	48	127
186.6528344671202	188.057641723356	57	127
186.6528344671202	188.057641723356	57	127
186.6528344671202	188.057641723356	65	127
190.1590476190476	190.49573696145126	41	127
