# onset,offset,note,velocity
1.1370068027210884	1.5201360544217688	65	127
1.1370068027210884	1.5201360544217688	53	127
1.5201360544217688	2.0541950113378684	62	127
1.5201360544217688	2.3328344671201813	70	127
2.0541950113378684	2.3328344671201813	53	127
2.3328344671201813	3.1687528344671203	69	127
2.3328344671201813	2.808843537414966	63	127
2.808843537414966	3.1687528344671203	53	127
3.1687528344671203	3.8769614512471655	70	127
3.1687528344671203	3.5751020408163265	62	127
3.5751020408163265	3.8769614512471655	53	127
3.8769614512471655	4.213650793650793	58	127
3.8769614512471655	4.46907029478458	62	127
4.213650793650793	4.561950113378685	53	127
4.561950113378685	4.921859410430839	57	127
4.561950113378685	5.1656689342403626	65	127
4.921859410430839	5.27015873015873	53	127
5.27015873015873	5.688117913832199	57	127
5.27015873015873	5.572018140589569	63	127
5.688117913832199	6.1525170068027215	53	127
5.688117913832199	6.001587301587302	60	127
6.1525170068027215	6.431156462585034	51	127
6.1525170068027215	6.733015873015873	57	127
6.431156462585034	6.733015873015873	53	127
6.733015873015873	7.185804988662132	58	127
6.733015873015873	7.023265306122449	50	127
7.023265306122449	7.499274376417233	53	127
7.499274376417233	8.05655328798186	60	127
7.499274376417233	7.859183673469388	57	127
7.859183673469388	8.1378231292517	53	127
8.1378231292517	8.416462585034013	59	127
8.1378231292517	8.253922902494331	62	127
8.253922902494331	8.335192743764173	63	127
8.335192743764173	8.416462585034013	62	127
8.416462585034013	8.544172335600907	63	127
8.416462585034013	8.811201814058958	53	127
8.544172335600907	8.637052154195011	60	127
8.637052154195011	8.811201814058958	62	127
8.811201814058958	9.577460317460318	65	127
8.811201814058958	9.368480725623582	62	127
9.368480725623582	9.681950113378685	53	127
9.681950113378685	9.809659863945578	63	127
9.681950113378685	10.00702947845805	60	127
9.809659863945578	9.89092970521542	65	127
9.89092970521542	10.00702947845805	63	127
10.00702947845805	10.088299319727891	65	127
10.00702947845805	10.320498866213152	53	127
10.088299319727891	10.181179138321996	62	127
10.181179138321996	10.332108843537416	63	127
10.332108843537416	10.610748299319727	63	127
10.332108843537416	10.610748299319727	67	127
10.610748299319727	10.900975056689342	65	127
10.610748299319727	10.92421768707483	62	127
10.92421768707483	11.179637188208616	64	127
10.92421768707483	11.179637188208616	70	127
11.179637188208616	11.539546485260772	60	127
11.179637188208616	11.539546485260772	72	127
11.562766439909296	12.212925170068027	70	127
11.562766439909296	11.887845804988663	64	127
11.887845804988663	12.212925170068027	60	127
12.212925170068027	12.642494331065759	69	127
12.212925170068027	12.642494331065759	65	127
12.642494331065759	13.048843537414966	65	127
12.642494331065759	13.025623582766439	60	127
13.048843537414966	13.466802721088435	65	127
13.048843537414966	13.90798185941043	70	127
13.466802721088435	13.90798185941043	53	127
13.90798185941043	14.67424036281179	69	127
13.90798185941043	14.20984126984127	65	127
14.20984126984127	14.67424036281179	53	127
14.67424036281179	15.022539682539682	65	127
14.67424036281179	15.266349206349206	70	127
15.022539682539682	15.266349206349206	53	127
15.266349206349206	15.835238095238095	62	127
15.266349206349206	15.62625850340136	58	127
15.62625850340136	15.9281179138322	53	127
15.9281179138322	16.34607709750567	67	127
15.9281179138322	16.171927437641724	59	127
16.171927437641724	16.473786848072564	53	127
16.473786848072564	16.96140589569161	59	127
16.473786848072564	16.81047619047619	65	127
16.96140589569161	17.135555555555555	62	127
16.96140589569161	17.414172335600906	55	127
17.414172335600906	18.052721088435373	59	127
17.414172335600906	17.774104308390022	53	127
17.774104308390022	18.052721088435373	55	127
18.052721088435373	18.34299319727891	51	127
18.052721088435373	18.505532879818595	60	127
18.34299319727891	18.87702947845805	55	127
18.87702947845805	19.225351473922903	58	127
18.87702947845805	19.56204081632653	62	127
19.225351473922903	19.701337868480724	58	127
19.701337868480724	20.072879818594103	60	127
19.701337868480724	19.79424036281179	63	127
19.79424036281179	19.968390022675738	65	127
19.968390022675738	20.072879818594103	63	127
20.072879818594103	20.17736961451247	65	127
20.072879818594103	20.46761904761905	58	127
20.17736961451247	20.270226757369613	62	127
20.270226757369613	20.46761904761905	63	127
20.46761904761905	20.908798185941045	67	127
20.46761904761905	20.74625850340136	63	127
20.74625850340136	21.024897959183672	58	127
21.024897959183672	21.11777777777778	65	127
21.024897959183672	21.268707482993197	62	127
21.11777777777778	21.19904761904762	67	127
21.19904761904762	21.268707482993197	65	127
21.268707482993197	21.349954648526076	67	127
21.268707482993197	21.54734693877551	58	127
21.349954648526076	21.454467120181405	64	127
21.454467120181405	21.570566893424036	65	127
21.570566893424036	22.069795918367348	65	127
21.570566893424036	22.418095238095237	68	127
22.069795918367348	22.418095238095237	58	127
22.418095238095237	22.894104308390023	67	127
22.418095238095237	22.708344671201814	63	127
22.708344671201814	23.172743764172335	55	127
23.207573696145126	23.753242630385486	57	127
23.207573696145126	23.579092970521543	53	127
23.579092970521543	24.06671201814059	51	127
23.753242630385486	23.83451247165533	58	127
23.83451247165533	24.06671201814059	60	127
24.06671201814059	24.41501133786848	58	127
24.06671201814059	24.41501133786848	50	127
24.438231292517006	24.740090702947846	77	127
24.740090702947846	25.401859410430838	74	127
24.740090702947846	25.401859410430838	70	127
24.740090702947846	25.6340589569161	82	127
25.401859410430838	25.6340589569161	75	127
25.401859410430838	25.6340589569161	79	127
25.6340589569161	25.889478458049886	74	127
25.6340589569161	25.889478458049886	77	127
25.6340589569161	26.05201814058957	81	127
25.889478458049886	26.226167800453513	75	127
25.889478458049886	26.226167800453513	72	127
26.226167800453513	26.737006802721087	70	127
26.226167800453513	26.737006802721087	74	127
26.226167800453513	26.992426303854874	82	127
26.737006802721087	26.992426303854874	73	127
26.737006802721087	26.992426303854874	69	127
26.992426303854874	27.607755102040816	74	127
26.992426303854874	27.421995464852607	70	127
26.992426303854874	27.421995464852607	74	127
27.421995464852607	27.700634920634922	72	127
27.421995464852607	27.700634920634922	68	127
27.712244897959184	27.990884353741496	70	127
27.712244897959184	28.188253968253967	77	127
27.712244897959184	27.990884353741496	67	127
27.990884353741496	28.292743764172336	69	127
27.990884353741496	28.292743764172336	66	127
28.292743764172336	28.76875283446712	70	127
28.292743764172336	28.76875283446712	67	127
28.292743764172336	28.710702947845807	75	127
28.76875283446712	29.012562358276643	63	127
28.76875283446712	28.896462585034012	72	127
28.76875283446712	29.012562358276643	67	127
29.024172335600905	29.65111111111111	69	127
29.024172335600905	29.314421768707483	65	127
29.024172335600905	29.314421768707483	62	127
29.314421768707483	29.65111111111111	60	127
29.314421768707483	29.65111111111111	63	127
29.65111111111111	29.929750566893425	58	127
29.65111111111111	30.25482993197279	70	127
29.65111111111111	29.929750566893425	62	127
29.929750566893425	30.347709750566892	62	127
29.929750566893425	30.347709750566892	65	127
30.359319727891158	31.12557823129252	72	127
30.359319727891158	31.12557823129252	53	127
30.359319727891158	30.672789115646257	69	127
30.672789115646257	31.20684807256236	65	127
31.20684807256236	31.29972789115646	74	127
31.20684807256236	31.473877551020408	71	127
31.20684807256236	32.36784580498866	65	127
31.29972789115646	31.392607709750568	75	127
31.392607709750568	31.473877551020408	74	127
31.473877551020408	31.926666666666666	65	127
31.473877551020408	31.578367346938776	75	127
31.578367346938776	31.845396825396826	72	127
31.845396825396826	31.926666666666666	74	127
31.926666666666666	32.36784580498866	77	127
31.926666666666666	32.20530612244898	74	127
32.20530612244898	32.449115646258505	65	127
32.449115646258505	32.913492063492065	69	127
32.449115646258505	32.70453514739229	72	127
32.449115646258505	32.530362811791385	75	127
32.530362811791385	32.611655328798186	77	127
32.611655328798186	32.70453514739229	75	127
32.70453514739229	32.78578231292517	77	127
32.70453514739229	33.02961451247165	65	127
32.78578231292517	32.913492063492065	74	127
32.913492063492065	33.02961451247165	75	127
33.02961451247165	33.40113378684807	75	127
33.02961451247165	33.63333333333333	70	127
33.02961451247165	33.40113378684807	79	127
33.40113378684807	33.78426303854875	77	127
33.40113378684807	33.78426303854875	74	127
33.78426303854875	34.26027210884354	67	127
33.78426303854875	34.00485260770975	82	127
33.78426303854875	34.086122448979594	76	127
34.086122448979594	34.22544217687075	84	127
34.086122448979594	34.38798185941043	72	127
34.38798185941043	34.84077097505669	76	127
34.38798185941043	35.00331065759637	65	127
34.38798185941043	35.08458049886622	82	127
34.84077097505669	35.08458049886622	72	127
35.08458049886622	35.34	65	127
35.08458049886622	35.32836734693878	77	127
35.08458049886622	35.32836734693878	81	127
35.34	36.048208616780045	77	127
35.34	36.048208616780045	75	127
35.34	35.52575963718821	77	127
36.048208616780045	36.30362811791383	74	127
36.048208616780045	36.30362811791383	77	127
36.048208616780045	36.57065759637188	82	127
36.30362811791383	36.57065759637188	73	127
36.30362811791383	36.57065759637188	76	127
36.57065759637188	36.82607709750567	77	127
36.57065759637188	36.82607709750567	74	127
36.57065759637188	36.988616780045355	81	127
36.82607709750567	37.151156462585035	75	127
36.82607709750567	37.13954648526077	72	127
37.151156462585035	37.90580498866213	82	127
37.151156462585035	37.65038548752835	74	127
37.151156462585035	37.65038548752835	70	127
37.65038548752835	37.90580498866213	73	127
37.65038548752835	37.90580498866213	69	127
37.90580498866213	38.683673469387756	74	127
37.90580498866213	38.17283446712018	74	127
37.90580498866213	38.17283446712018	70	127
38.17283446712018	38.75331065759637	72	127
38.17283446712018	38.75331065759637	68	127
38.7649433106576	39.02036281179139	71	127
38.7649433106576	39.20612244897959	79	127
38.7649433106576	39.02036281179139	67	127
39.02036281179139	39.287392290249436	66	127
39.02036281179139	39.287392290249436	70	127
39.287392290249436	39.56603174603175	71	127
39.287392290249436	39.56603174603175	67	127
39.287392290249436	39.50795918367347	77	127
39.56603174603175	39.7053514739229	74	127
39.56603174603175	39.99560090702948	69	127
39.56603174603175	39.99560090702948	65	127
39.99560090702948	40.262630385487526	67	127
39.99560090702948	40.262630385487526	63	127
39.99560090702948	40.59931972789116	71	127
40.262630385487526	40.59931972789116	62	127
40.262630385487526	40.59931972789116	65	127
40.59931972789116	41.29589569160998	72	127
40.59931972789116	41.00566893424036	60	127
40.59931972789116	41.00566893424036	63	127
41.00566893424036	41.37718820861678	63	127
41.00566893424036	41.37718820861678	67	127
41.37718820861678	42.02734693877551	58	127
41.37718820861678	42.02734693877551	74	127
41.37718820861678	41.667414965986396	70	127
41.667414965986396	42.1550566893424	70	127
42.1550566893424	42.456916099773245	72	127
42.1550566893424	42.87487528344671	69	127
42.1550566893424	42.25954648526077	75	127
42.25954648526077	42.35242630385488	77	127
42.35242630385488	42.456916099773245	75	127
42.456916099773245	42.58462585034014	77	127
42.456916099773245	42.87487528344671	70	127
42.58462585034014	42.70072562358277	74	127
42.70072562358277	42.87487528344671	75	127
42.87487528344671	43.571451247165534	68	127
42.87487528344671	43.571451247165534	79	127
42.87487528344671	43.39732426303855	75	127
43.39732426303855	43.652743764172335	70	127
43.652743764172335	43.919773242630384	74	127
43.652743764172335	44.31451247165533	68	127
43.652743764172335	43.73401360544218	77	127
43.73401360544218	43.83850340136055	79	127
43.83850340136055	43.919773242630384	77	127
43.919773242630384	44.31451247165533	70	127
43.919773242630384	44.02426303854875	79	127
44.02426303854875	44.21	76	127
44.21	44.31451247165533	77	127
44.31451247165533	44.98789115646259	62	127
44.31451247165533	44.98789115646259	80	127
44.31451247165533	44.581541950113376	77	127
44.581541950113376	44.98789115646259	70	127
44.98789115646259	45.59160997732426	79	127
44.98789115646259	45.41746031746032	75	127
44.98789115646259	45.59160997732426	63	127
45.41746031746032	45.672879818594105	67	127
45.68448979591837	46.4275283446712	65	127
45.68448979591837	46.19532879818594	69	127
45.68448979591837	45.986326530612246	65	127
45.986326530612246	46.4275283446712	63	127
46.19532879818594	46.334648526077096	70	127
46.334648526077096	46.41591836734694	72	127
46.4275283446712	46.891927437641726	70	127
46.4275283446712	46.891927437641726	58	127
46.4275283446712	46.891927437641726	62	127
47.21700680272109	47.588526077097505	53	127
47.21700680272109	47.588526077097505	58	127
47.21700680272109	47.588526077097505	50	127
47.89038548752834	48.1225850340136	53	127
47.89038548752834	48.1225850340136	58	127
47.89038548752834	48.1225850340136	50	127
48.679863945578234	49.887301587301586	60	127
48.679863945578234	49.887301587301586	53	127
48.679863945578234	49.887301587301586	51	127
48.92367346938776	49.33002267573696	53	127
49.446122448979594	49.666712018140586	57	127
49.74798185941043	49.887301587301586	60	127
50.038231292517004	50.45619047619048	53	127
50.038231292517004	50.45619047619048	58	127
50.038231292517004	50.90897959183673	65	127
50.038231292517004	50.45619047619048	50	127
50.67678004535147	51.00185941043084	58	127
50.67678004535147	51.00185941043084	50	127
50.67678004535147	51.00185941043084	53	127
51.00185941043084	51.477868480725625	64	127
51.477868480725625	51.744897959183675	67	127
51.477868480725625	52.53437641723356	53	127
51.477868480725625	52.53437641723356	60	127
51.477868480725625	52.53437641723356	51	127
51.744897959183675	52.128027210884355	65	127
52.128027210884355	52.406666666666666	57	127
52.406666666666666	52.69691609977324	60	127
52.69691609977324	53.6837641723356	65	127
52.69691609977324	53.114875283446715	53	127
52.69691609977324	53.114875283446715	58	127
52.69691609977324	53.114875283446715	49	127
53.4631746031746	53.765034013605444	49	127
53.4631746031746	53.765034013605444	53	127
53.4631746031746	53.765034013605444	58	127
53.765034013605444	54.10172335600907	64	127
54.10172335600907	55.33238095238095	51	127
54.10172335600907	55.33238095238095	53	127
54.10172335600907	55.33238095238095	60	127
54.10172335600907	54.380362811791386	66	127
54.380362811791386	54.82154195011338	65	127
54.82154195011338	55.15823129251701	57	127
55.15823129251701	55.48331065759637	60	127
55.48331065759637	55.92448979591837	53	127
55.48331065759637	55.78517006802721	66	127
55.48331065759637	55.92448979591837	49	127
55.48331065759637	55.92448979591837	58	127
55.78517006802721	56.179909297052156	65	127
56.179909297052156	56.52820861678005	61	127
56.179909297052156	56.52820861678005	46	127
56.179909297052156	56.52820861678005	58	127
56.179909297052156	56.52820861678005	53	127
56.52820861678005	56.992607709750565	70	127
57.00421768707483	58.22326530612245	41	127
57.00421768707483	57.94462585034014	60	127
57.00421768707483	57.94462585034014	53	127
57.00421768707483	57.30607709750567	69	127
57.30607709750567	57.56149659863946	65	127
57.596326530612245	57.96784580498866	63	127
58.095555555555556	58.362585034013605	69	127
58.095555555555556	58.22326530612245	60	127
58.095555555555556	58.37419501133787	77	127
58.095555555555556	58.37419501133787	75	127
58.095555555555556	58.37419501133787	53	127
58.37419501133787	58.896643990929704	62	127
58.37419501133787	59.082403628117916	70	127
58.37419501133787	58.896643990929704	74	127
58.37419501133787	59.175283446712015	82	127
58.37419501133787	60.4059410430839	46	127
58.37419501133787	59.082403628117916	58	127
58.896643990929704	59.175283446712015	53	127
58.896643990929704	59.175283446712015	65	127
59.175283446712015	59.47714285714286	75	127
59.175283446712015	59.70934240362812	81	127
59.175283446712015	59.47714285714286	63	127
59.47714285714286	59.79061224489796	65	127
59.47714285714286	59.79061224489796	53	127
59.80222222222222	60.19696145124716	74	127
59.80222222222222	60.19696145124716	62	127
59.80222222222222	60.68458049886621	82	127
60.19696145124716	60.68458049886621	65	127
60.19696145124716	60.68458049886621	53	127
60.68458049886621	61.265079365079366	74	127
60.68458049886621	61.06770975056689	70	127
60.68458049886621	61.06770975056689	58	127
60.68458049886621	61.265079365079366	46	127
61.06770975056689	61.33473922902494	65	127
61.06770975056689	61.33473922902494	53	127
61.34634920634921	62.251927437641726	41	127
61.34634920634921	61.61337868480726	69	127
61.34634920634921	61.799138321995464	77	127
61.34634920634921	61.61337868480726	57	127
61.61337868480726	61.88040816326531	65	127
61.61337868480726	61.88040816326531	53	127
61.88040816326531	62.12421768707483	57	127
61.88040816326531	62.06616780045351	75	127
61.88040816326531	62.12421768707483	69	127
62.12421768707483	62.251927437641726	72	127
62.12421768707483	62.58861678004535	65	127
62.12421768707483	62.58861678004535	53	127
62.58861678004535	63.05301587301587	51	127
62.58861678004535	63.30843537414966	69	127
62.58861678004535	63.80766439909297	46	127
62.58861678004535	63.05301587301587	63	127
63.05301587301587	63.30843537414966	65	127
63.05301587301587	63.30843537414966	53	127
63.30843537414966	63.85410430839002	70	127
63.30843537414966	63.668344671201815	50	127
63.30843537414966	63.668344671201815	62	127
63.668344671201815	63.94698412698413	53	127
63.668344671201815	63.94698412698413	65	127
63.94698412698413	64.2720634920635	69	127
63.94698412698413	65.86263038548753	41	127
63.94698412698413	64.2720634920635	57	127
63.94698412698413	64.46943310657596	72	127
64.2720634920635	64.5507029478458	65	127
64.2720634920635	64.5507029478458	53	127
64.5507029478458	64.94541950113378	59	127
64.5507029478458	64.7132426303855	74	127
64.5507029478458	64.94541950113378	71	127
64.7132426303855	64.84095238095239	75	127
64.84095238095239	64.94541950113378	74	127
64.94541950113378	65.35179138321996	65	127
64.94541950113378	65.04993197278911	75	127
64.94541950113378	65.35179138321996	53	127
65.04993197278911	65.177641723356	72	127
65.177641723356	65.35179138321996	74	127
65.35179138321996	65.68845804988662	62	127
65.35179138321996	65.68845804988662	74	127
65.35179138321996	65.86263038548753	77	127
65.68845804988662	65.9438775510204	65	127
65.68845804988662	65.9438775510204	53	127
65.9438775510204	66.5940589569161	45	127
65.9438775510204	66.04839002267573	75	127
65.9438775510204	66.36185941043084	72	127
65.9438775510204	66.36185941043084	60	127
66.04839002267573	66.25736961451247	77	127
66.25736961451247	66.36185941043084	75	127
66.36185941043084	66.4779365079365	77	127
66.36185941043084	66.67532879818594	65	127
66.36185941043084	66.67532879818594	53	127
66.4779365079365	66.5940589569161	74	127
66.5940589569161	66.67532879818594	75	127
66.67532879818594	67.162947845805	46	127
66.67532879818594	66.97718820861678	79	127
66.67532879818594	66.97718820861678	75	127
66.67532879818594	66.97718820861678	63	127
66.97718820861678	67.24421768707484	62	127
66.97718820861678	67.24421768707484	77	127
66.97718820861678	67.24421768707484	74	127
67.24421768707484	67.49963718820862	82	127
67.24421768707484	67.5692970521542	64	127
67.24421768707484	67.75505668934241	43	127
67.24421768707484	67.5692970521542	76	127
67.5692970521542	67.72022675736962	84	127
67.5692970521542	67.84793650793651	60	127
67.5692970521542	67.84793650793651	72	127
67.89437641723356	68.49807256235827	82	127
67.89437641723356	68.67224489795919	41	127
67.89437641723356	68.23106575963719	76	127
67.89437641723356	68.23106575963719	64	127
68.23106575963719	68.49807256235827	60	127
68.23106575963719	68.49807256235827	72	127
68.49807256235827	68.77673469387756	77	127
68.49807256235827	68.77673469387756	65	127
68.49807256235827	68.77673469387756	81	127
68.77673469387756	69.17147392290249	77	127
68.77673469387756	69.15986394557824	60	127
68.77673469387756	69.15986394557824	72	127
68.77673469387756	69.15986394557824	39	127
69.17147392290249	69.82163265306123	82	127
69.17147392290249	69.54299319727892	70	127
69.17147392290249	69.54299319727892	58	127
69.17147392290249	69.82163265306123	38	127
69.54299319727892	69.82163265306123	77	127
69.54299319727892	69.82163265306123	65	127
69.82163265306123	70.50662131519275	81	127
69.82163265306123	70.06544217687075	60	127
69.82163265306123	70.06544217687075	72	127
69.82163265306123	70.50662131519275	39	127
70.06544217687075	70.50662131519275	65	127
70.06544217687075	70.50662131519275	77	127
70.50662131519275	71.20321995464853	38	127
70.50662131519275	71.01746031746032	70	127
70.50662131519275	71.01746031746032	58	127
70.50662131519275	71.20321995464853	82	127
71.01746031746032	71.2728798185941	77	127
71.01746031746032	71.2728798185941	65	127
71.2844671201814	71.58634920634921	74	127
71.2844671201814	71.58634920634921	62	127
71.2844671201814	71.88820861678005	83	127
71.2844671201814	71.88820861678005	41	127
71.58634920634921	71.88820861678005	67	127
71.58634920634921	71.88820861678005	79	127
71.88820861678005	72.14362811791383	60	127
71.88820861678005	72.14362811791383	72	127
71.88820861678005	72.44548752834467	84	127
71.88820861678005	72.44548752834467	39	127
72.14362811791383	72.44548752834467	79	127
72.14362811791383	72.44548752834467	67	127
72.44548752834467	73.14208616780046	83	127
72.44548752834467	73.14208616780046	41	127
72.44548752834467	72.8750566893424	74	127
72.44548752834467	72.8750566893424	62	127
72.8750566893424	73.14208616780046	67	127
72.8750566893424	73.14208616780046	79	127
73.14208616780046	73.61809523809524	84	127
73.14208616780046	73.61809523809524	39	127
73.14208616780046	73.4439455782313	60	127
73.14208616780046	73.4439455782313	72	127
73.4439455782313	73.71095238095238	79	127
73.4439455782313	73.71095238095238	67	127
73.71095238095238	74.1637641723356	65	127
73.71095238095238	74.53528344671201	86	127
73.71095238095238	74.53528344671201	44	127
73.71095238095238	74.1637641723356	77	127
74.1637641723356	74.53528344671201	70	127
74.1637641723356	74.53528344671201	82	127
74.53528344671201	75.197052154195	87	127
74.53528344671201	74.81392290249433	75	127
74.53528344671201	74.81392290249433	63	127
74.53528344671201	75.197052154195	43	127
74.81392290249433	75.197052154195	82	127
74.81392290249433	75.197052154195	70	127
75.197052154195	75.52213151927438	70	127
75.197052154195	75.81238095238095	42	127
75.197052154195	75.81238095238095	88	127
75.197052154195	75.52213151927438	58	127
75.52213151927438	75.81238095238095	70	127
75.52213151927438	75.81238095238095	82	127
75.81238095238095	76.39287981859411	89	127
75.81238095238095	76.06780045351474	70	127
75.81238095238095	76.06780045351474	58	127
75.81238095238095	76.39287981859411	41	127
76.079410430839	76.7527664399093	61	127
76.079410430839	76.7527664399093	82	127
76.079410430839	76.7527664399093	73	127
76.079410430839	76.7527664399093	70	127
76.47412698412698	76.63668934240363	49	127
76.47412698412698	78.01827664399093	93	127
76.47412698412698	78.01827664399093	40	127
76.47412698412698	76.63668934240363	46	127
76.67151927437642	76.8340589569161	55	127
76.67151927437642	76.8340589569161	49	127
76.7527664399093	77.69319727891157	82	127
76.7527664399093	77.69319727891157	61	127
76.7527664399093	77.69319727891157	70	127
76.7527664399093	77.69319727891157	73	127
76.8340589569161	77.35650793650794	58	127
76.8340589569161	77.35650793650794	52	127
77.35650793650794	77.5887074829932	61	127
77.35650793650794	77.5887074829932	58	127
77.5887074829932	77.78607709750567	58	127
77.5887074829932	77.78607709750567	52	127
77.70480725623582	78.33174603174604	61	127
77.70480725623582	78.33174603174604	73	127
77.70480725623582	78.33174603174604	82	127
77.70480725623582	78.33174603174604	70	127
77.78607709750567	78.01827664399093	61	127
77.78607709750567	78.01827664399093	58	127
78.01827664399093	78.23886621315192	67	127
78.01827664399093	78.71487528344672	52	127
78.01827664399093	78.71487528344672	91	127
78.01827664399093	78.23886621315192	61	127
78.23886621315192	78.45945578231293	61	127
78.23886621315192	78.45945578231293	58	127
78.34335600907029	78.80775510204082	82	127
78.34335600907029	78.80775510204082	61	127
78.34335600907029	78.80775510204082	70	127
78.34335600907029	78.80775510204082	73	127
78.45945578231293	78.80775510204082	58	127
78.45945578231293	78.80775510204082	52	127
78.80775510204082	79.20249433106576	75	127
78.80775510204082	79.35342403628118	81	127
78.80775510204082	79.0980045351474	63	127
78.80775510204082	79.20249433106576	60	127
78.80775510204082	79.0980045351474	65	127
78.80775510204082	79.5043537414966	53	127
79.0980045351474	79.29537414965986	63	127
79.0980045351474	79.29537414965986	60	127
79.20249433106576	79.5043537414966	72	127
79.20249433106576	79.5043537414966	63	127
79.29537414965986	79.5043537414966	65	127
79.29537414965986	79.49274376417233	53	127
79.35342403628118	79.42308390022676	82	127
79.42308390022676	79.5043537414966	84	127
79.5043537414966	79.9222902494331	46	127
79.5043537414966	79.9222902494331	82	127
79.5043537414966	79.9222902494331	74	127
79.5043537414966	79.9222902494331	62	127
79.5043537414966	79.9222902494331	58	127
80.46798185941043	80.90916099773243	63	127
80.46798185941043	80.90916099773243	69	127
80.46798185941043	80.90916099773243	60	127
80.90916099773243	80.978820861678	70	127
80.90916099773243	80.978820861678	62	127
80.978820861678	81.03687074829932	63	127
80.978820861678	81.03687074829932	60	127
80.978820861678	81.03687074829932	72	127
81.03687074829932	81.29229024943311	70	127
81.03687074829932	81.29229024943311	65	127
81.03687074829932	81.29229024943311	62	127
81.61736961451247	82.16303854875284	63	127
81.61736961451247	82.16303854875284	69	127
81.61736961451247	82.16303854875284	72	127
82.16303854875284	82.25591836734694	70	127
82.16303854875284	82.25591836734694	62	127
82.16303854875284	82.25591836734694	74	127
82.25591836734694	82.31396825396826	75	127
82.25591836734694	82.31396825396826	60	127
82.25591836734694	82.31396825396826	72	127
82.32555555555555	82.56938775510204	65	127
82.32555555555555	82.56938775510204	70	127
82.32555555555555	82.56938775510204	74	127
82.8944671201814	83.40530612244898	75	127
82.8944671201814	83.40530612244898	70	127
82.8944671201814	83.40530612244898	67	127
83.40530612244898	83.4633560090703	77	127
83.40530612244898	83.4633560090703	69	127
83.4633560090703	83.52140589569161	79	127
83.4633560090703	83.52140589569161	67	127
83.4633560090703	83.52140589569161	70	127
83.53301587301587	83.97419501133787	69	127
83.53301587301587	83.97419501133787	72	127
83.53301587301587	83.97419501133787	78	127
83.97419501133787	84.03224489795919	70	127
83.97419501133787	84.03224489795919	79	127
84.03224489795919	84.09027210884354	69	127
84.03224489795919	84.09027210884354	72	127
84.03224489795919	84.09027210884354	81	127
84.10190476190476	84.53147392290249	82	127
84.10190476190476	84.53147392290249	74	127
84.10190476190476	84.53147392290249	70	127
84.68240362811791	84.83333333333333	79	127
84.68240362811791	84.83333333333333	70	127
84.68240362811791	84.83333333333333	74	127
84.96104308390022	85.14680272108843	75	127
84.96104308390022	85.14680272108843	67	127
84.96104308390022	85.14680272108843	70	127
85.20485260770975	85.40222222222222	72	127
85.20485260770975	85.40222222222222	67	127
85.20485260770975	85.40222222222222	70	127
85.52993197278911	85.65764172335601	81	127
85.52993197278911	85.65764172335601	69	127
85.52993197278911	85.65764172335601	72	127
85.6924716553288	85.84340136054422	82	127
85.6924716553288	85.84340136054422	74	127
85.6924716553288	85.84340136054422	70	127
85.79696145124717	86.07560090702948	65	127
85.79696145124717	86.07560090702948	57	127
85.79696145124717	86.07560090702948	53	127
85.90145124716554	85.99433106575964	84	127
85.90145124716554	85.99433106575964	75	127
85.90145124716554	85.99433106575964	72	127
86.07560090702948	86.27297052154195	70	127
86.07560090702948	86.27297052154195	74	127
86.07560090702948	86.27297052154195	82	127
86.30780045351474	86.4471201814059	81	127
86.30780045351474	86.4471201814059	72	127
86.30780045351474	86.4471201814059	69	127
86.40068027210884	86.81863945578232	58	127
86.40068027210884	86.81863945578232	53	127
86.40068027210884	86.81863945578232	65	127
86.49353741496599	86.57482993197279	82	127
86.49353741496599	86.57482993197279	74	127
86.49353741496599	86.57482993197279	70	127
86.81863945578232	87.02759637188208	72	127
86.81863945578232	87.02759637188208	84	127
86.81863945578232	87.02759637188208	69	127
87.06244897959184	87.19015873015873	86	127
87.06244897959184	87.19015873015873	70	127
87.06244897959184	87.19015873015873	74	127
87.15530612244898	87.42235827664399	65	127
87.15530612244898	87.42235827664399	57	127
87.15530612244898	87.42235827664399	53	127
87.23659863945578	87.32947845804989	87	127
87.23659863945578	87.32947845804989	72	127
87.23659863945578	87.32947845804989	75	127
87.42235827664399	87.59650793650793	86	127
87.42235827664399	87.59650793650793	70	127
87.42235827664399	87.59650793650793	74	127
87.63133786848073	87.79387755102042	69	127
87.63133786848073	87.79387755102042	84	127
87.63133786848073	87.79387755102042	72	127
87.75904761904762	88.01446712018141	58	127
87.75904761904762	88.01446712018141	53	127
87.75904761904762	88.01446712018141	65	127
87.84031746031746	87.93319727891156	86	127
87.84031746031746	87.93319727891156	70	127
87.84031746031746	87.93319727891156	74	127
88.01446712018141	88.16539682539683	76	127
88.01446712018141	88.16539682539683	88	127
88.01446712018141	88.16539682539683	70	127
88.21183673469388	88.32793650793651	69	127
88.21183673469388	88.32793650793651	77	127
88.21183673469388	88.32793650793651	89	127
88.29310657596372	88.53689342403628	55	127
88.29310657596372	88.53689342403628	64	127
88.29310657596372	88.53689342403628	58	127
88.37437641723356	88.4556462585034	70	127
88.37437641723356	88.4556462585034	91	127
88.37437641723356	88.4556462585034	79	127
88.53689342403628	88.81555555555556	65	127
88.53689342403628	89.05936507936508	84	127
88.53689342403628	88.81555555555556	72	127
88.86199546485261	89.00131519274376	76	127
88.86199546485261	89.00131519274376	67	127
88.96648526077098	89.23351473922902	60	127
88.96648526077098	89.23351473922902	53	127
88.96648526077098	89.23351473922902	65	127
89.05936507936508	89.15224489795918	77	127
89.05936507936508	89.15224489795918	84	127
89.05936507936508	89.15224489795918	69	127
89.23351473922902	89.36122448979592	76	127
89.23351473922902	89.36122448979592	70	127
89.23351473922902	89.36122448979592	88	127
89.40766439909297	89.5237641723356	77	127
89.40766439909297	89.5237641723356	89	127
89.40766439909297	89.5237641723356	69	127
89.48893424036281	89.76757369614512	58	127
89.48893424036281	89.76757369614512	64	127
89.48893424036281	89.76757369614512	55	127
89.57020408163265	89.67469387755102	79	127
89.57020408163265	89.67469387755102	91	127
89.57020408163265	89.67469387755102	70	127
89.76757369614512	89.90689342403628	72	127
89.76757369614512	90.33646258503401	84	127
89.76757369614512	89.90689342403628	65	127
89.95333333333333	90.29002267573696	67	127
89.95333333333333	90.29002267573696	76	127
90.20875283446712	90.4990022675737	65	127
90.20875283446712	90.4990022675737	60	127
90.20875283446712	90.4990022675737	53	127
90.33646258503401	90.41773242630386	84	127
90.33646258503401	90.41773242630386	69	127
90.33646258503401	90.41773242630386	77	127
90.4990022675737	90.6267120181406	70	127
90.4990022675737	90.6267120181406	88	127
90.4990022675737	90.6267120181406	76	127
90.7195918367347	90.85891156462586	89	127
90.7195918367347	90.85891156462586	69	127
90.7195918367347	90.85891156462586	77	127
90.81244897959184	91.07950113378685	64	127
90.81244897959184	91.07950113378685	58	127
90.81244897959184	91.07950113378685	55	127
90.89374149659864	90.998231292517	70	127
90.89374149659864	90.998231292517	91	127
90.89374149659864	90.998231292517	79	127
91.09108843537415	91.84575963718821	53	127
91.09108843537415	91.84575963718821	41	127
91.09108843537415	92.08954648526077	92	127
91.09108843537415	92.08954648526077	80	127
91.09108843537415	91.41619047619048	60	127
91.09108843537415	91.41619047619048	72	127
91.41619047619048	91.84575963718821	73	127
91.41619047619048	91.84575963718821	61	127
91.84575963718821	93.64530612244899	61	127
91.84575963718821	93.97038548752835	41	127
91.84575963718821	93.64530612244899	73	127
91.84575963718821	93.64530612244899	53	127
92.08954648526077	92.35659863945578	77	127
92.08954648526077	92.35659863945578	89	127
92.35659863945578	92.9487074829932	73	127
92.35659863945578	92.9487074829932	85	127
92.9487074829932	93.34342403628118	68	127
92.9487074829932	93.34342403628118	80	127
93.34342403628118	93.64530612244899	65	127
93.34342403628118	93.64530612244899	77	127
93.64530612244899	94.06326530612245	73	127
93.64530612244899	94.06326530612245	56	127
93.64530612244899	94.06326530612245	73	127
93.64530612244899	94.06326530612245	61	127
93.64530612244899	94.06326530612245	61	127
94.06326530612245	94.3302947845805	74	127
94.06326530612245	94.3302947845805	62	127
94.06326530612245	94.3302947845805	55	127
94.06326530612245	94.51603174603174	43	127
94.06326530612245	94.3302947845805	71	127
94.06326530612245	94.3302947845805	59	127
94.3302947845805	94.58571428571429	50	127
94.3302947845805	94.59732426303854	59	127
94.3302947845805	94.58571428571429	77	127
94.3302947845805	94.58571428571429	65	127
94.3302947845805	94.59732426303854	71	127
94.59732426303854	95.16621315192744	64	127
94.59732426303854	95.44485260770975	48	127
94.59732426303854	96.64068027210884	36	127
94.59732426303854	95.16621315192744	72	127
94.59732426303854	95.16621315192744	60	127
94.59732426303854	95.16621315192744	76	127
95.16621315192744	95.44485260770975	72	127
95.16621315192744	95.44485260770975	84	127
95.16621315192744	95.76993197278911	72	127
95.16621315192744	95.76993197278911	60	127
95.44485260770975	96.15306122448979	50	127
95.44485260770975	95.76993197278911	65	127
95.44485260770975	95.76993197278911	77	127
95.76993197278911	96.43170068027212	60	127
95.76993197278911	96.15306122448979	72	127
95.76993197278911	96.15306122448979	84	127
95.76993197278911	96.43170068027212	72	127
96.15306122448979	96.44331065759637	67	127
96.15306122448979	96.64068027210884	52	127
96.15306122448979	96.44331065759637	79	127
96.44331065759637	96.75678004535148	72	127
96.44331065759637	96.75678004535148	84	127
96.44331065759637	96.75678004535148	72	127
96.44331065759637	96.75678004535148	60	127
96.75678004535148	97.10507936507936	71	127
96.75678004535148	97.10507936507936	83	127
96.75678004535148	97.39532879818594	43	127
96.75678004535148	97.10507936507936	55	127
96.75678004535148	97.10507936507936	62	127
96.75678004535148	97.10507936507936	74	127
97.10507936507936	97.47659863945579	77	127
97.10507936507936	97.47659863945579	59	127
97.10507936507936	97.47659863945579	50	127
97.10507936507936	97.47659863945579	89	127
97.10507936507936	97.47659863945579	71	127
97.47659863945579	98.13836734693878	48	127
97.47659863945579	97.85972789115647	88	127
97.47659863945579	97.8481179138322	72	127
97.47659863945579	97.8481179138322	60	127
97.47659863945579	97.85972789115647	76	127
97.47659863945579	98.99750566893424	36	127
97.85972789115647	98.13836734693878	84	127
97.85972789115647	98.42861678004535	60	127
97.85972789115647	98.42861678004535	72	127
97.85972789115647	98.13836734693878	72	127
98.13836734693878	98.44022675736962	89	127
98.13836734693878	98.44022675736962	77	127
98.13836734693878	98.7304761904762	50	127
98.44022675736962	98.99750566893424	72	127
98.44022675736962	98.99750566893424	60	127
98.44022675736962	98.7304761904762	84	127
98.44022675736962	98.7304761904762	72	127
98.7304761904762	98.99750566893424	76	127
98.7304761904762	98.99750566893424	91	127
98.7304761904762	98.99750566893424	52	127
99.00911564625851	99.2645351473923	81	127
99.00911564625851	99.2645351473923	69	127
99.00911564625851	99.2645351473923	73	127
99.00911564625851	99.2645351473923	85	127
99.2645351473923	99.50834467120181	82	127
99.2645351473923	99.50834467120181	86	127
99.2645351473923	99.50834467120181	74	127
99.2645351473923	99.50834467120181	70	127
99.51995464852608	99.64766439909297	82	127
99.51995464852608	99.64766439909297	86	127
99.51995464852608	99.64766439909297	74	127
99.51995464852608	99.64766439909297	70	127
99.7637641723356	101.08730158730158	70	127
99.7637641723356	101.08730158730158	86	127
99.7637641723356	101.08730158730158	82	127
99.7637641723356	101.08730158730158	74	127
100.01918367346939	100.34426303854875	58	127
100.01918367346939	100.34426303854875	46	127
100.34426303854875	100.59968253968253	52	127
100.34426303854875	100.59968253968253	40	127
100.59968253968253	100.72739229024943	52	127
100.59968253968253	100.72739229024943	40	127
100.84349206349206	101.59814058956916	40	127
100.84349206349206	101.59814058956916	52	127
101.08730158730158	101.35433106575964	69	127
101.08730158730158	101.35433106575964	84	127
101.08730158730158	101.35433106575964	72	127
101.08730158730158	101.35433106575964	81	127
101.35433106575964	101.59814058956916	67	127
101.35433106575964	101.59814058956916	70	127
101.35433106575964	101.59814058956916	79	127
101.35433106575964	101.59814058956916	82	127
101.59814058956916	101.87678004535148	77	127
101.59814058956916	101.87678004535148	81	127
101.59814058956916	101.87678004535148	69	127
101.59814058956916	101.87678004535148	65	127
101.59814058956916	101.87678004535148	53	127
101.59814058956916	101.87678004535148	41	127
101.88839002267574	103.0609977324263	69	127
101.88839002267574	103.0609977324263	72	127
101.88839002267574	103.0609977324263	84	127
101.88839002267574	103.0609977324263	81	127
101.88839002267574	103.79242630385488	38	127
101.88839002267574	103.79242630385488	50	127
103.0609977324263	103.49056689342403	70	127
103.0609977324263	103.49056689342403	67	127
103.0609977324263	103.49056689342403	79	127
103.0609977324263	103.49056689342403	82	127
103.49056689342403	103.79242630385488	65	127
103.49056689342403	103.79242630385488	69	127
103.49056689342403	103.79242630385488	77	127
103.49056689342403	103.79242630385488	81	127
103.79242630385488	104.10589569160997	79	127
103.79242630385488	104.10589569160997	76	127
103.79242630385488	104.10589569160997	67	127
103.79242630385488	104.10589569160997	64	127
103.79242630385488	104.10589569160997	52	127
103.79242630385488	104.10589569160997	40	127
104.11750566893424	104.65156462585034	79	127
104.11750566893424	104.65156462585034	82	127
104.11750566893424	104.65156462585034	70	127
104.11750566893424	104.65156462585034	67	127
104.11750566893424	105.16240362811791	49	127
104.11750566893424	105.16240362811791	37	127
104.65156462585034	104.90698412698413	69	127
104.65156462585034	104.90698412698413	65	127
104.65156462585034	104.90698412698413	81	127
104.65156462585034	104.90698412698413	77	127
104.90698412698413	105.16240362811791	67	127
104.90698412698413	105.16240362811791	64	127
104.90698412698413	105.16240362811791	79	127
104.90698412698413	105.16240362811791	76	127
105.16240362811791	105.56875283446712	65	127
105.16240362811791	105.56875283446712	62	127
105.16240362811791	105.56875283446712	50	127
105.16240362811791	105.56875283446712	38	127
105.16240362811791	105.56875283446712	77	127
105.16240362811791	105.56875283446712	74	127
105.58036281179139	105.94027210884354	79	127
105.58036281179139	106.21891156462586	46	127
105.58036281179139	105.94027210884354	74	127
105.58036281179139	105.94027210884354	67	127
105.58036281179139	105.94027210884354	62	127
105.94027210884354	106.21891156462586	77	127
105.94027210884354	106.21891156462586	65	127
105.94027210884354	106.52077097505669	67	127
105.94027210884354	106.52077097505669	55	127
106.21891156462586	106.53238095238095	76	127
106.21891156462586	106.53238095238095	64	127
106.21891156462586	106.69492063492063	47	127
106.53238095238095	106.78780045351473	62	127
106.53238095238095	106.78780045351473	74	127
106.53238095238095	106.78780045351473	67	127
106.53238095238095	106.78780045351473	65	127
106.78780045351473	107.40312925170068	60	127
106.78780045351473	107.47278911564626	72	127
106.78780045351473	107.47278911564626	64	127
106.78780045351473	107.85591836734694	48	127
106.78780045351473	108.55251700680272	48	127
106.78780045351473	107.40312925170068	72	127
107.47278911564626	107.85591836734694	70	127
107.47278911564626	107.85591836734694	62	127
107.47278911564626	107.68176870748299	72	127
107.47278911564626	107.68176870748299	60	127
107.85591836734694	108.25065759637188	65	127
107.85591836734694	108.37836734693877	69	127
107.85591836734694	108.37836734693877	60	127
107.85591836734694	108.63378684807256	36	127
107.85591836734694	108.25065759637188	77	127
108.37836734693877	108.76149659863945	58	127
108.37836734693877	108.76149659863945	67	127
108.37836734693877	108.55251700680272	67	127
108.37836734693877	108.55251700680272	79	127
108.76149659863945	111.44340136054421	41	127
108.76149659863945	109.2839455782313	65	127
108.76149659863945	110.02698412698413	81	127
108.76149659863945	109.09818594104308	57	127
108.76149659863945	110.02698412698413	69	127
109.10979591836735	109.36521541950114	48	127
109.10979591836735	109.36521541950114	60	127
109.36521541950114	110.02698412698413	65	127
109.36521541950114	110.02698412698413	53	127
110.02698412698413	110.21274376417233	70	127
110.02698412698413	110.3520634920635	67	127
110.02698412698413	110.3520634920635	55	127
110.02698412698413	110.21274376417233	82	127
110.3520634920635	110.68875283446712	57	127
110.3520634920635	110.83968253968254	84	127
110.3520634920635	110.83968253968254	72	127
110.3520634920635	110.68875283446712	69	127
110.68875283446712	111.00222222222222	70	127
110.68875283446712	111.00222222222222	58	127
110.83968253968254	110.94417233560091	86	127
110.83968253968254	110.94417233560091	74	127
110.94417233560091	111.00222222222222	72	127
110.94417233560091	111.00222222222222	84	127
111.00222222222222	111.30408163265307	70	127
111.00222222222222	111.31569160997732	67	127
111.00222222222222	111.31569160997732	55	127
111.00222222222222	111.30408163265307	82	127
111.31569160997732	111.55950113378685	81	127
111.31569160997732	111.55950113378685	69	127
111.31569160997732	111.55950113378685	65	127
111.31569160997732	111.55950113378685	53	127
111.55950113378685	112.08195011337868	55	127
111.55950113378685	112.08195011337868	67	127
111.55950113378685	112.75532879818594	82	127
111.55950113378685	112.75532879818594	70	127
111.55950113378685	114.0208163265306	41	127
112.08195011337868	112.34897959183674	48	127
112.08195011337868	112.34897959183674	60	127
112.34897959183674	112.75532879818594	67	127
112.34897959183674	112.75532879818594	55	127
112.75532879818594	112.89464852607709	72	127
112.75532879818594	113.03396825396825	69	127
112.75532879818594	113.03396825396825	57	127
112.75532879818594	112.89464852607709	84	127
113.03396825396825	113.30099773242631	58	127
113.03396825396825	113.45192743764173	86	127
113.03396825396825	113.45192743764173	74	127
113.03396825396825	113.30099773242631	70	127
113.30099773242631	113.59124716553288	72	127
113.30099773242631	113.59124716553288	60	127
113.45192743764173	113.50997732426303	88	127
113.45192743764173	113.50997732426303	76	127
113.50997732426303	113.57963718820862	86	127
113.50997732426303	113.57963718820862	74	127
113.59124716553288	113.89310657596371	72	127
113.59124716553288	113.89310657596371	69	127
113.59124716553288	113.89310657596371	57	127
113.59124716553288	113.89310657596371	84	127
113.89310657596371	114.13691609977325	82	127
113.89310657596371	114.13691609977325	70	127
113.89310657596371	114.1485260770975	67	127
113.89310657596371	114.1485260770975	55	127
114.1485260770975	114.61292517006802	57	127
114.1485260770975	114.61292517006802	69	127
114.1485260770975	115.22825396825397	84	127
114.1485260770975	115.22825396825397	72	127
114.1485260770975	118.80412698412698	41	127
114.61292517006802	114.89156462585034	48	127
114.61292517006802	114.89156462585034	60	127
114.89156462585034	115.22825396825397	57	127
114.89156462585034	115.22825396825397	69	127
115.22825396825397	115.37918367346938	74	127
115.22825396825397	115.57655328798187	70	127
115.22825396825397	115.57655328798187	58	127
115.22825396825397	115.37918367346938	86	127
115.57655328798187	116.04095238095238	75	127
115.57655328798187	115.86680272108843	72	127
115.57655328798187	115.86680272108843	60	127
115.57655328798187	116.04095238095238	87	127
115.86680272108843	116.23832199546486	74	127
115.86680272108843	116.23832199546486	62	127
116.04095238095238	116.16866213151927	77	127
116.04095238095238	116.16866213151927	89	127
116.16866213151927	116.22671201814059	87	127
116.16866213151927	116.22671201814059	75	127
116.23832199546486	116.55179138321995	70	127
116.23832199546486	116.55179138321995	58	127
116.23832199546486	116.83043083900226	86	127
116.23832199546486	116.83043083900226	74	127
116.55179138321995	116.9813605442177	60	127
116.55179138321995	116.9813605442177	72	127
116.83043083900226	116.92331065759637	87	127
116.83043083900226	116.92331065759637	75	127
116.92331065759637	116.9813605442177	86	127
116.92331065759637	116.9813605442177	74	127
116.9813605442177	117.39931972789115	72	127
116.9813605442177	117.26	57	127
116.9813605442177	117.39931972789115	84	127
116.9813605442177	117.26	69	127
117.26	117.55024943310657	70	127
117.26	117.55024943310657	58	127
117.39931972789115	117.46897959183673	74	127
117.39931972789115	117.46897959183673	86	127
117.46897959183673	117.55024943310657	84	127
117.46897959183673	117.55024943310657	72	127
117.55024943310657	118.00303854875284	55	127
117.55024943310657	118.22362811791383	82	127
117.55024943310657	118.22362811791383	70	127
117.55024943310657	118.00303854875284	67	127
118.00303854875284	118.35133786848073	69	127
118.00303854875284	118.35133786848073	57	127
118.22362811791383	118.29328798185941	72	127
118.22362811791383	118.29328798185941	84	127
118.29328798185941	118.35133786848073	82	127
118.29328798185941	118.35133786848073	70	127
118.35133786848073	118.61836734693877	53	127
118.35133786848073	118.61836734693877	81	127
118.35133786848073	118.61836734693877	69	127
118.35133786848073	118.61836734693877	65	127
118.61836734693877	118.88539682539682	64	127
118.61836734693877	118.88539682539682	52	127
118.61836734693877	118.88539682539682	79	127
118.61836734693877	118.88539682539682	67	127
118.88539682539682	119.22208616780046	77	127
118.88539682539682	119.22208616780046	65	127
118.88539682539682	119.22208616780046	62	127
118.88539682539682	119.22208616780046	50	127
118.88539682539682	119.52394557823129	43	127
119.22208616780046	119.52394557823129	47	127
119.22208616780046	119.52394557823129	79	127
119.22208616780046	119.52394557823129	67	127
119.22208616780046	119.52394557823129	59	127
119.52394557823129	119.77936507936508	60	127
119.52394557823129	119.77936507936508	48	127
119.52394557823129	120.04639455782313	36	127
119.52394557823129	119.77936507936508	76	127
119.52394557823129	119.77936507936508	64	127
119.77936507936508	120.04639455782313	55	127
119.77936507936508	120.04639455782313	79	127
119.77936507936508	120.04639455782313	67	127
119.77936507936508	120.04639455782313	43	127
120.04639455782313	120.38308390022675	59	127
120.04639455782313	120.38308390022675	77	127
120.04639455782313	120.38308390022675	65	127
120.04639455782313	120.38308390022675	47	127
120.04639455782313	120.7429931972789	43	127
120.38308390022675	120.7429931972789	67	127
120.38308390022675	120.7429931972789	43	127
120.38308390022675	120.7429931972789	79	127
120.38308390022675	120.7429931972789	55	127
120.7429931972789	121.10290249433106	64	127
120.7429931972789	121.10290249433106	60	127
120.7429931972789	121.10290249433106	76	127
120.7429931972789	121.10290249433106	48	127
120.7429931972789	121.28866213151927	36	127
121.10290249433106	121.39315192743764	79	127
121.10290249433106	121.39315192743764	67	127
121.10290249433106	121.39315192743764	64	127
121.10290249433106	121.39315192743764	52	127
121.39315192743764	121.79950113378685	65	127
121.39315192743764	121.79950113378685	83	127
121.39315192743764	121.79950113378685	71	127
121.39315192743764	121.79950113378685	53	127
121.39315192743764	122.07814058956916	43	127
121.79950113378685	122.07814058956916	67	127
121.79950113378685	122.07814058956916	55	127
121.79950113378685	122.07814058956916	79	127
122.07814058956916	122.33356009070295	84	127
122.07814058956916	122.33356009070295	72	127
122.07814058956916	122.33356009070295	64	127
122.07814058956916	122.33356009070295	52	127
122.07814058956916	122.80956916099774	36	127
122.33356009070295	122.80956916099774	79	127
122.33356009070295	122.80956916099774	67	127
122.33356009070295	122.80956916099774	55	127
122.80956916099774	123.1346485260771	71	127
122.80956916099774	123.1346485260771	65	127
122.80956916099774	123.1346485260771	83	127
122.80956916099774	123.1346485260771	53	127
122.80956916099774	123.4481179138322	43	127
123.1346485260771	123.4481179138322	67	127
123.1346485260771	123.4481179138322	55	127
123.1346485260771	123.4481179138322	79	127
123.4481179138322	123.77319727891157	64	127
123.4481179138322	123.77319727891157	84	127
123.4481179138322	123.77319727891157	72	127
123.4481179138322	123.77319727891157	52	127
123.4481179138322	123.77319727891157	36	127
123.77319727891157	124.06344671201813	85	127
123.77319727891157	124.06344671201813	81	127
123.77319727891157	124.06344671201813	73	127
123.77319727891157	124.06344671201813	69	127
124.06344671201813	124.30725623582767	86	127
124.06344671201813	124.30725623582767	82	127
124.06344671201813	124.30725623582767	74	127
124.06344671201813	124.30725623582767	70	127
124.30725623582767	124.43496598639456	86	127
124.30725623582767	124.43496598639456	82	127
124.30725623582767	124.43496598639456	74	127
124.30725623582767	124.43496598639456	70	127
124.56267573696145	126.39705215419501	86	127
124.56267573696145	126.39705215419501	70	127
124.56267573696145	126.39705215419501	74	127
124.56267573696145	126.39705215419501	82	127
124.80648526077097	125.64240362811792	58	127
124.80648526077097	125.64240362811792	46	127
125.64240362811792	125.88621315192744	40	127
125.64240362811792	125.88621315192744	52	127
125.88621315192744	126.0255328798186	40	127
125.88621315192744	126.0255328798186	52	127
126.15324263038549	127.08204081632653	40	127
126.15324263038549	127.08204081632653	52	127
126.39705215419501	126.82662131519274	72	127
126.39705215419501	126.82662131519274	69	127
126.39705215419501	126.82662131519274	84	127
126.39705215419501	126.82662131519274	81	127
126.82662131519274	127.08204081632653	70	127
126.82662131519274	127.08204081632653	67	127
126.82662131519274	127.08204081632653	82	127
126.82662131519274	127.08204081632653	79	127
127.08204081632653	127.38390022675738	65	127
127.08204081632653	127.38390022675738	53	127
127.08204081632653	127.38390022675738	41	127
127.08204081632653	127.38390022675738	81	127
127.08204081632653	127.38390022675738	77	127
127.08204081632653	127.38390022675738	69	127
127.38390022675738	127.89473922902495	79	127
127.38390022675738	127.89473922902495	76	127
127.38390022675738	127.89473922902495	67	127
127.38390022675738	127.89473922902495	64	127
127.38390022675738	127.89473922902495	48	127
127.38390022675738	127.89473922902495	36	127
127.9063492063492	128.161768707483	85	127
127.9063492063492	128.161768707483	81	127
127.9063492063492	128.161768707483	73	127
127.9063492063492	128.161768707483	69	127
128.161768707483	128.4055782312925	86	127
128.161768707483	128.4055782312925	82	127
128.161768707483	128.4055782312925	74	127
128.161768707483	128.4055782312925	70	127
128.41718820861678	128.53328798185942	86	127
128.41718820861678	128.53328798185942	82	127
128.41718820861678	128.53328798185942	74	127
128.41718820861678	128.53328798185942	70	127
128.6609977324263	129.5085260770975	86	127
128.6609977324263	129.5085260770975	82	127
128.6609977324263	129.5085260770975	74	127
128.6609977324263	129.5085260770975	70	127
128.91641723356008	129.5085260770975	58	127
128.91641723356008	129.5085260770975	46	127
129.5085260770975	129.83360544217686	42	127
129.5085260770975	129.83360544217686	54	127
129.5085260770975	130.4837641723356	87	127
129.5085260770975	130.4837641723356	84	127
129.5085260770975	130.4837641723356	75	127
129.5085260770975	130.4837641723356	72	127
129.84521541950113	130.12385487528346	54	127
129.84521541950113	130.12385487528346	42	127
130.23993197278912	131.26160997732427	42	127
130.23993197278912	131.26160997732427	54	127
130.4953514739229	130.98299319727892	72	127
130.4953514739229	130.98299319727892	69	127
130.4953514739229	130.98299319727892	84	127
130.4953514739229	130.98299319727892	81	127
130.98299319727892	131.26160997732427	69	127
130.98299319727892	131.26160997732427	60	127
130.98299319727892	131.26160997732427	81	127
130.98299319727892	131.26160997732427	72	127
131.26160997732427	131.52866213151927	79	127
131.26160997732427	131.52866213151927	55	127
131.26160997732427	131.52866213151927	43	127
131.26160997732427	131.52866213151927	70	127
131.26160997732427	131.52866213151927	67	127
131.26160997732427	131.52866213151927	58	127
131.52866213151927	131.9001814058957	78	127
131.52866213151927	131.9001814058957	69	127
131.52866213151927	131.9001814058957	66	127
131.52866213151927	131.9001814058957	57	127
131.52866213151927	131.9001814058957	50	127
131.52866213151927	131.9001814058957	38	127
131.9001814058957	132.1439909297052	85	127
131.9001814058957	132.1439909297052	81	127
131.9001814058957	132.1439909297052	73	127
131.9001814058957	132.1439909297052	69	127
132.1439909297052	132.399410430839	86	127
132.1439909297052	132.399410430839	82	127
132.1439909297052	132.399410430839	74	127
132.1439909297052	132.399410430839	70	127
132.399410430839	132.5271201814059	74	127
132.399410430839	132.5271201814059	70	127
132.399410430839	132.5271201814059	86	127
132.399410430839	132.5271201814059	82	127
132.65482993197278	133.57201814058956	86	127
132.65482993197278	133.57201814058956	82	127
132.65482993197278	133.57201814058956	74	127
132.65482993197278	133.57201814058956	70	127
132.89861678004536	133.57201814058956	58	127
132.89861678004536	133.57201814058956	46	127
133.57201814058956	134.22215419501134	82	127
133.57201814058956	134.22215419501134	51	127
133.57201814058956	133.9202947845805	54	127
133.57201814058956	133.9202947845805	42	127
133.57201814058956	134.22215419501134	87	127
133.57201814058956	134.22215419501134	75	127
133.9202947845805	134.0944671201814	54	127
133.9202947845805	134.0944671201814	42	127
134.22215419501134	134.4079365079365	53	127
134.22215419501134	134.4079365079365	41	127
134.22215419501134	134.74462585034013	75	127
134.22215419501134	134.74462585034013	51	127
134.22215419501134	134.74462585034013	87	127
134.22215419501134	134.74462585034013	81	127
134.48920634920634	134.67496598639457	53	127
134.48920634920634	134.67496598639457	41	127
134.74462585034013	135.2554648526077	53	127
134.74462585034013	134.93038548752835	53	127
134.74462585034013	135.2554648526077	82	127
134.74462585034013	135.2554648526077	74	127
134.74462585034013	134.93038548752835	41	127
134.74462585034013	135.2554648526077	86	127
134.98843537414967	135.11614512471655	53	127
134.98843537414967	135.11614512471655	41	127
135.2554648526077	136.24231292517007	57	127
135.2554648526077	135.71986394557823	53	127
135.2554648526077	135.71986394557823	41	127
135.2554648526077	136.24231292517007	77	127
135.2554648526077	136.24231292517007	72	127
135.2554648526077	136.24231292517007	84	127
135.77791383219954	136.14943310657597	41	127
135.77791383219954	136.14943310657597	53	127
136.24231292517007	137.00857142857143	76	127
136.24231292517007	137.00857142857143	60	127
136.24231292517007	136.4512925170068	55	127
136.24231292517007	136.4512925170068	43	127
136.24231292517007	137.00857142857143	82	127
136.24231292517007	137.00857142857143	70	127
136.53256235827664	136.88083900226758	55	127
136.53256235827664	136.88083900226758	43	127
137.00857142857143	137.31043083900227	45	127
137.00857142857143	137.53102040816327	81	127
137.00857142857143	137.53102040816327	77	127
137.00857142857143	137.53102040816327	69	127
137.00857142857143	137.31043083900227	57	127
137.00857142857143	137.53102040816327	65	127
137.31043083900227	137.64709750566894	57	127
137.31043083900227	137.64709750566894	45	127
137.64709750566894	138.93582766439908	74	127
137.64709750566894	137.93736961451248	58	127
137.64709750566894	137.93736961451248	46	127
137.64709750566894	137.94897959183675	79	127
137.64709750566894	137.94897959183675	67	127
137.64709750566894	138.93582766439908	65	127
137.94897959183675	138.4249886621315	57	127
137.94897959183675	138.4249886621315	45	127
137.94897959183675	138.4249886621315	81	127
137.94897959183675	138.4249886621315	69	127
138.4249886621315	138.93582766439908	72	127
138.4249886621315	138.93582766439908	84	127
138.4249886621315	138.7268253968254	55	127
138.4249886621315	138.7268253968254	43	127
138.73845804988662	139.01709750566894	43	127
138.73845804988662	139.01709750566894	55	127
139.01709750566894	139.4002267573696	82	127
139.01709750566894	139.4002267573696	43	127
139.01709750566894	139.60920634920635	65	127
139.01709750566894	139.4002267573696	55	127
139.01709750566894	140.23614512471656	74	127
139.01709750566894	139.4002267573696	70	127
139.41183673469388	139.74850340136055	69	127
139.41183673469388	139.74850340136055	55	127
139.41183673469388	139.74850340136055	43	127
139.41183673469388	139.74850340136055	81	127
139.74850340136055	140.0387755102041	48	127
139.74850340136055	140.0503628117914	82	127
139.74850340136055	140.23614512471656	64	127
139.74850340136055	140.4683446712018	70	127
140.0503628117914	140.4683446712018	48	127
140.0503628117914	140.4683446712018	79	127
140.0503628117914	140.25934240362812	48	127
140.4683446712018	140.7701814058957	53	127
140.4683446712018	140.86308390022677	48	127
140.4683446712018	140.874693877551	77	127
140.4683446712018	140.874693877551	69	127
140.4683446712018	140.874693877551	72	127
140.4683446712018	141.49002267573695	60	127
140.874693877551	141.1765306122449	70	127
140.874693877551	141.06045351473924	55	127
140.874693877551	141.1765306122449	67	127
140.874693877551	141.1765306122449	48	127
140.874693877551	141.1765306122449	76	127
141.1765306122449	141.49002267573695	69	127
141.1765306122449	141.49002267573695	77	127
141.1765306122449	143.76557823129252	41	127
141.1765306122449	142.19820861678005	57	127
141.1765306122449	141.49002267573695	65	127
141.5132426303855	141.83832199546487	72	127
141.5132426303855	141.83832199546487	60	127
141.83832199546487	142.19820861678005	65	127
141.83832199546487	142.19820861678005	77	127
142.19820861678005	142.5117006802721	58	127
142.19820861678005	142.5117006802721	67	127
142.19820861678005	142.5117006802721	79	127
142.5117006802721	142.92965986394557	69	127
142.5117006802721	142.92965986394557	81	127
142.5117006802721	143.1154195011338	60	127
142.92965986394557	143.31278911564627	70	127
142.92965986394557	143.31278911564627	82	127
143.1154195011338	143.2198866213152	62	127
143.2198866213152	143.301179138322	60	127
143.31278911564627	143.6146485260771	67	127
143.31278911564627	143.6146485260771	58	127
143.31278911564627	143.6146485260771	79	127
143.6146485260771	143.91650793650794	57	127
143.6146485260771	143.9397052154195	77	127
143.6146485260771	143.9397052154195	65	127
143.9397052154195	144.26480725623583	67	127
143.9397052154195	144.26480725623583	79	127
143.9397052154195	144.9033560090703	58	127
143.9397052154195	146.35460317460317	41	127
144.26480725623583	144.57827664399093	72	127
144.26480725623583	144.57827664399093	60	127
144.57827664399093	144.9033560090703	79	127
144.57827664399093	144.9033560090703	67	127
144.9033560090703	145.35614512471656	60	127
144.9033560090703	145.36773242630386	81	127
144.9033560090703	145.36773242630386	69	127
145.36773242630386	145.64639455782313	82	127
145.36773242630386	145.64639455782313	70	127
145.36773242630386	145.77410430839004	62	127
145.64639455782313	145.92503401360545	84	127
145.64639455782313	145.92503401360545	72	127
145.77410430839004	145.85537414965987	64	127
145.85537414965987	145.91342403628119	62	127
145.92503401360545	146.2268934240363	81	127
145.92503401360545	146.2268934240363	69	127
145.92503401360545	146.2268934240363	60	127
146.2268934240363	146.55197278911564	58	127
146.2268934240363	146.5635827664399	79	127
146.2268934240363	146.5635827664399	67	127
146.5635827664399	146.93510204081633	81	127
146.5635827664399	151.1959410430839	41	127
146.5635827664399	146.93510204081633	69	127
146.5635827664399	147.6084807256236	60	127
146.93510204081633	147.27179138321995	60	127
146.93510204081633	147.27179138321995	72	127
147.27179138321995	147.6084807256236	81	127
147.27179138321995	147.6084807256236	69	127
147.6084807256236	147.98	62	127
147.6084807256236	147.98	70	127
147.6084807256236	147.98	82	127
147.98	148.24702947845805	84	127
147.98	148.24702947845805	72	127
147.98	148.4443990929705	63	127
148.24702947845805	148.59532879818593	86	127
148.24702947845805	148.59532879818593	74	127
148.4443990929705	148.53725623582767	65	127
148.53725623582767	148.59532879818593	63	127
148.59532879818593	149.07133786848073	70	127
148.59532879818593	149.22226757369614	62	127
148.59532879818593	149.07133786848073	82	127
149.07133786848073	149.34997732426305	84	127
149.07133786848073	149.34997732426305	72	127
149.22226757369614	149.29192743764173	63	127
149.29192743764173	149.34997732426305	62	127
149.34997732426305	149.6518367346939	69	127
149.34997732426305	149.77954648526077	60	127
149.34997732426305	149.6518367346939	81	127
149.6518367346939	150.02333333333334	70	127
149.6518367346939	150.02333333333334	82	127
149.77954648526077	149.86081632653062	62	127
149.86081632653062	150.02333333333334	60	127
150.02333333333334	150.34843537414966	67	127
150.02333333333334	150.34843537414966	79	127
150.02333333333334	150.4877551020408	58	127
150.34843537414966	150.75478458049886	69	127
150.34843537414966	150.75478458049886	81	127
150.4877551020408	150.54580498866213	60	127
150.54580498866213	150.75478458049886	58	127
150.75478458049886	151.0334240362812	65	127
150.75478458049886	150.95215419501133	57	127
150.75478458049886	151.0334240362812	77	127
151.0334240362812	151.2191836734694	55	127
151.0334240362812	151.32367346938776	75	127
151.0334240362812	151.32367346938776	63	127
151.32367346938776	151.81126984126985	62	127
151.32367346938776	151.56748299319727	53	127
151.32367346938776	151.81126984126985	74	127
151.32367346938776	152.1595918367347	41	127
151.81126984126985	152.1595918367347	72	127
151.81126984126985	152.1595918367347	60	127
151.81126984126985	152.02027210884353	51	127
152.1595918367347	152.4265986394558	58	127
152.1595918367347	152.4265986394558	50	127
152.1595918367347	152.68201814058958	46	127
152.1595918367347	152.4265986394558	70	127
152.4265986394558	152.68201814058958	74	127
152.4265986394558	152.68201814058958	62	127
152.4265986394558	152.68201814058958	53	127
152.68201814058958	153.01873015873016	51	127
152.68201814058958	153.01873015873016	72	127
152.68201814058958	153.01873015873016	60	127
152.68201814058958	153.33219954648527	41	127
153.01873015873016	153.33219954648527	74	127
153.01873015873016	153.33219954648527	62	127
153.01873015873016	153.320589569161	53	127
153.33219954648527	153.71532879818594	58	127
153.33219954648527	153.71532879818594	50	127
153.33219954648527	154.06362811791382	46	127
153.33219954648527	153.71532879818594	70	127
153.71532879818594	154.06362811791382	53	127
153.71532879818594	154.06362811791382	62	127
153.71532879818594	154.06362811791382	74	127
154.06362811791382	154.63251700680271	41	127
154.06362811791382	154.35387755102042	72	127
154.06362811791382	154.35387755102042	51	127
154.06362811791382	154.35387755102042	60	127
154.35387755102042	154.6208843537415	53	127
154.35387755102042	154.63251700680271	74	127
154.35387755102042	154.63251700680271	62	127
154.63251700680271	155.00403628117914	70	127
154.63251700680271	155.00403628117914	58	127
154.63251700680271	155.00403628117914	50	127
154.63251700680271	155.24784580498866	46	127
155.00403628117914	155.32911564625851	53	127
155.00403628117914	155.34072562358276	74	127
155.00403628117914	155.34072562358276	62	127
155.34072562358276	155.73546485260772	64	127
155.34072562358276	155.73546485260772	76	127
155.34072562358276	155.73546485260772	58	127
155.34072562358276	156.07215419501134	48	127
155.73546485260772	156.07215419501134	60	127
155.73546485260772	156.07215419501134	72	127
155.73546485260772	156.07215419501134	60	127
156.07215419501134	156.3391836734694	57	127
156.07215419501134	156.61780045351475	41	127
156.07215419501134	156.3391836734694	77	127
156.07215419501134	156.3391836734694	65	127
156.3391836734694	156.61780045351475	60	127
156.3391836734694	156.61780045351475	60	127
156.3391836734694	156.61780045351475	72	127
156.61780045351475	156.94290249433107	58	127
156.61780045351475	156.94290249433107	76	127
156.61780045351475	156.94290249433107	64	127
156.61780045351475	157.337641723356	48	127
156.94290249433107	157.337641723356	60	127
156.94290249433107	157.337641723356	60	127
156.94290249433107	157.337641723356	72	127
157.337641723356	157.6278911564626	77	127
157.337641723356	157.6278911564626	65	127
157.337641723356	157.6278911564626	57	127
157.337641723356	157.6278911564626	41	127
157.6278911564626	158.02263038548753	66	127
157.6278911564626	158.02263038548753	62	127
158.02263038548753	158.33609977324264	67	127
158.02263038548753	158.33609977324264	63	127
158.3477097505669	158.46380952380952	67	127
158.3477097505669	158.46380952380952	63	127
158.61473922902493	160.42589569160998	63	127
158.61473922902493	160.42589569160998	67	127
159.02108843537414	159.36938775510205	72	127
159.36938775510205	159.86861678004536	69	127
159.36938775510205	159.86861678004536	81	127
159.88022675736963	159.99632653061224	81	127
159.88022675736963	159.99632653061224	69	127
160.12403628117914	161.0528344671202	69	127
160.12403628117914	161.0528344671202	81	127
160.43750566893425	160.72775510204082	65	127
160.43750566893425	160.72775510204082	62	127
160.72775510204082	161.0528344671202	63	127
160.72775510204082	161.0528344671202	60	127
161.0528344671202	161.22698412698412	82	127
161.0528344671202	161.22698412698412	70	127
161.0528344671202	161.36628117913833	62	127
161.0528344671202	161.36628117913833	58	127
161.36628117913833	161.66816326530613	77	127
161.36628117913833	161.66816326530613	65	127
161.36628117913833	161.66816326530613	60	127
161.36628117913833	161.66816326530613	57	127
161.67977324263038	162.06290249433107	66	127
161.67977324263038	162.06290249433107	62	127
162.06290249433107	162.38798185941044	67	127
162.06290249433107	162.38798185941044	63	127
162.38798185941044	162.5505215419501	63	127
162.38798185941044	162.5505215419501	67	127
162.8059410430839	163.46768707482994	67	127
162.8059410430839	163.46768707482994	63	127
162.8059410430839	163.46768707482994	67	127
163.119410430839	163.46768707482994	70	127
163.119410430839	163.46768707482994	82	127
163.46768707482994	164.4893650793651	68	127
163.46768707482994	163.8160090702948	83	127
163.46768707482994	163.8160090702948	71	127
163.46768707482994	164.12945578231293	65	127
163.46768707482994	164.4893650793651	62	127
163.8160090702948	164.001768707483	71	127
163.8160090702948	164.001768707483	83	127
164.12945578231293	165.08149659863946	71	127
164.12945578231293	164.69836734693877	65	127
164.12945578231293	165.08149659863946	83	127
164.4893650793651	164.8144671201814	65	127
164.4893650793651	164.8144671201814	62	127
164.8144671201814	165.08149659863946	62	127
164.8144671201814	165.08149659863946	59	127
165.08149659863946	165.2904761904762	84	127
165.08149659863946	165.44140589569162	60	127
165.08149659863946	165.2904761904762	72	127
165.08149659863946	165.44140589569162	56	127
165.44140589569162	165.77809523809523	79	127
165.44140589569162	165.77809523809523	67	127
165.44140589569162	165.77809523809523	59	127
165.44140589569162	165.77809523809523	55	127
165.77809523809523	166.1380045351474	66	127
165.77809523809523	166.1380045351474	62	127
166.1380045351474	166.56757369614513	63	127
166.1380045351474	166.56757369614513	67	127
166.56757369614513	166.695283446712	67	127
166.56757369614513	166.695283446712	63	127
166.82299319727892	168.15814058956917	63	127
166.82299319727892	167.44990929705216	67	127
167.11324263038549	167.54281179138323	70	127
167.11324263038549	167.54281179138323	82	127
167.54281179138323	167.82145124716553	71	127
167.54281179138323	167.82145124716553	83	127
167.54281179138323	168.15814058956917	68	127
167.82145124716553	167.96074829931973	83	127
167.82145124716553	167.96074829931973	71	127
168.15814058956917	168.42514739229026	71	127
168.15814058956917	168.78507936507935	63	127
168.15814058956917	168.42514739229026	83	127
168.15814058956917	168.78507936507935	69	127
168.50643990929706	168.70380952380953	83	127
168.50643990929706	168.70380952380953	71	127
168.78507936507935	169.51650793650794	63	127
168.78507936507935	169.19140589569162	83	127
168.78507936507935	169.19140589569162	71	127
168.78507936507935	169.51650793650794	59	127
169.27269841269842	169.38879818594106	71	127
169.27269841269842	169.38879818594106	83	127
169.51650793650794	169.7022448979592	71	127
169.51650793650794	169.9344671201814	56	127
169.51650793650794	169.9344671201814	59	127
169.51650793650794	169.7022448979592	83	127
169.77192743764172	169.95766439909298	83	127
169.77192743764172	169.95766439909298	71	127
170.01573696145124	170.8168253968254	56	127
170.01573696145124	170.49174603174603	83	127
170.01573696145124	170.49174603174603	71	127
170.01573696145124	170.8168253968254	52	127
170.01573696145124	170.8168253968254	52	127
170.56140589569162	170.70072562358277	83	127
170.56140589569162	170.70072562358277	71	127
170.8168253968254	171.0722448979592	83	127
170.8168253968254	171.0722448979592	71	127
170.8168253968254	171.32766439909298	54	127
170.8168253968254	171.32766439909298	57	127
170.8168253968254	171.32766439909298	51	127
171.0838321995465	171.95460317460316	83	127
171.0838321995465	171.95460317460316	71	127
171.32766439909298	172.22163265306122	52	127
171.32766439909298	172.22163265306122	56	127
171.32766439909298	172.22163265306122	52	127
171.96621315192743	172.477052154195	71	127
171.96621315192743	172.477052154195	83	127
172.22163265306122	172.72086167800452	54	127
172.22163265306122	172.72086167800452	57	127
172.22163265306122	172.72086167800452	51	127
172.477052154195	172.99950113378685	83	127
172.477052154195	172.99950113378685	71	127
172.72086167800452	174.26498866213151	68	127
172.72086167800452	173.18526077097505	52	127
172.72086167800452	173.18526077097505	56	127
172.72086167800452	173.18526077097505	52	127
172.99950113378685	173.5451700680272	71	127
172.99950113378685	173.5451700680272	83	127
173.2781179138322	174.26498866213151	62	127
173.2781179138322	174.26498866213151	65	127
173.55678004535147	174.5204081632653	83	127
173.55678004535147	174.5204081632653	71	127
174.26498866213151	174.81063492063493	67	127
174.26498866213151	174.81063492063493	63	127
174.5204081632653	175.07768707482992	82	127
174.5204081632653	175.07768707482992	70	127
174.81063492063493	175.61174603174604	68	127
174.81063492063493	175.61174603174604	62	127
174.81063492063493	175.61174603174604	65	127
175.07768707482992	175.8787755102041	83	127
175.07768707482992	175.8787755102041	71	127
175.61174603174604	176.26190476190476	67	127
175.61174603174604	176.26190476190476	63	127
175.8787755102041	176.34317460317462	82	127
175.8787755102041	176.34317460317462	70	127
176.35478458049886	176.6914739229025	81	127
176.35478458049886	176.6914739229025	60	127
176.35478458049886	176.6914739229025	69	127
176.35478458049886	176.6914739229025	60	127
176.35478458049886	176.6914739229025	66	127
176.35478458049886	177.0049433106576	51	127
176.35478458049886	177.0049433106576	54	127
177.0049433106576	177.597052154195	53	127
177.0049433106576	177.597052154195	50	127
177.597052154195	178.09628117913832	51	127
177.597052154195	178.09628117913832	54	127
178.09628117913832	178.59548752834468	48	127
178.09628117913832	178.59548752834468	51	127
179.09473922902495	179.83777777777777	45	127
179.09473922902495	179.37337868480725	66	127
179.09473922902495	179.37337868480725	75	127
179.09473922902495	179.83777777777777	84	127
179.09473922902495	179.83777777777777	72	127
179.09473922902495	180.34861678004535	63	127
179.09473922902495	180.34861678004535	66	127
179.37337868480725	180.08156462585035	66	127
179.37337868480725	180.08156462585035	75	127
179.83777777777777	180.34861678004535	71	127
179.83777777777777	180.34861678004535	83	127
179.83777777777777	180.34861678004535	44	127
180.08156462585035	180.6156462585034	75	127
180.08156462585035	180.6156462585034	66	127
180.34861678004535	181.79986394557824	63	127
180.34861678004535	181.21936507936508	84	127
180.34861678004535	181.21936507936508	72	127
180.34861678004535	181.21936507936508	45	127
180.34861678004535	181.79986394557824	66	127
180.62725623582767	181.63732426303855	66	127
180.62725623582767	181.63732426303855	75	127
181.21936507936508	181.8463038548753	75	127
181.21936507936508	181.8463038548753	63	127
181.21936507936508	181.8463038548753	54	127
181.64893424036282	181.92757369614512	66	127
181.64893424036282	181.92757369614512	75	127
181.92757369614512	182.4384126984127	54	127
181.92757369614512	182.4384126984127	51	127
182.4384126984127	183.0653514739229	53	127
182.4384126984127	183.0653514739229	50	127
183.0653514739229	183.57619047619048	54	127
183.0653514739229	183.57619047619048	51	127
183.57619047619048	183.99414965986395	51	127
183.57619047619048	183.99414965986395	48	127
184.50498866213152	186.94308390022675	66	127
184.50498866213152	184.78360544217688	75	127
184.50498866213152	185.1087074829932	84	127
184.50498866213152	185.1087074829932	72	127
184.50498866213152	185.1087074829932	44	127
184.50498866213152	186.94308390022675	63	127
184.50498866213152	184.78360544217688	66	127
184.7952380952381	185.50344671201813	66	127
184.7952380952381	185.50344671201813	75	127
185.1087074829932	185.79369614512473	83	127
185.1087074829932	185.79369614512473	71	127
185.1087074829932	185.79369614512473	43	127
185.50344671201813	186.0607029478458	66	127
185.50344671201813	186.0607029478458	75	127
185.79369614512473	186.37419501133786	72	127
185.79369614512473	186.37419501133786	44	127
185.79369614512473	186.37419501133786	84	127
186.0607029478458	186.76893424036282	75	127
186.0607029478458	186.76893424036282	66	127
186.37419501133786	186.9895238095238	75	127
186.37419501133786	186.9895238095238	63	127
186.37419501133786	186.9895238095238	54	127
186.76893424036282	187.0591836734694	75	127
186.76893424036282	187.0591836734694	66	127
187.07079365079366	187.63968253968255	72	127
187.07079365079366	187.63968253968255	44	127
187.07079365079366	188.17374149659864	63	127
187.07079365079366	187.63968253968255	84	127
187.07079365079366	188.17374149659864	60	127
187.32621315192745	188.01120181405895	66	127
187.32621315192745	188.01120181405895	75	127
187.63968253968255	188.23179138321996	54	127
187.63968253968255	188.23179138321996	75	127
187.63968253968255	188.23179138321996	63	127
188.02281179138322	188.8471201814059	75	127
188.02281179138322	188.8471201814059	66	127
188.3478911564626	189.45083900226757	84	127
188.3478911564626	189.45083900226757	72	127
188.3478911564626	189.45083900226757	45	127
188.3478911564626	189.83396825396827	60	127
188.3478911564626	189.83396825396827	63	127
188.8471201814059	190.08938775510205	65	127
188.8471201814059	190.08938775510205	75	127
189.45083900226757	190.28675736961452	69	127
189.45083900226757	190.28675736961452	75	127
189.45083900226757	190.28675736961452	53	127
190.08938775510205	190.37963718820862	60	127
190.08938775510205	190.37963718820862	77	127
190.37963718820862	192.50426303854874	46	127
190.37963718820862	190.83242630385487	62	127
190.37963718820862	190.83242630385487	74	127
190.37963718820862	191.18072562358276	82	127
190.83242630385487	191.18072562358276	53	127
190.83242630385487	191.18072562358276	65	127
191.18072562358276	191.49419501133787	63	127
191.18072562358276	191.49419501133787	75	127
191.18072562358276	191.8657142857143	81	127
191.49419501133787	191.94698412698412	65	127
191.49419501133787	191.94698412698412	53	127
191.94698412698412	192.24884353741496	74	127
191.94698412698412	192.24884353741496	62	127
191.94698412698412	192.59714285714287	82	127
192.24884353741496	192.59714285714287	65	127
192.24884353741496	192.59714285714287	53	127
192.59714285714287	192.8641723356009	70	127
192.59714285714287	192.8641723356009	58	127
192.59714285714287	193.0847619047619	74	127
192.59714285714287	193.0847619047619	46	127
192.8641723356009	193.20086167800454	53	127
192.8641723356009	193.20086167800454	65	127
193.20086167800454	193.51433106575965	69	127
193.20086167800454	193.73492063492063	77	127
193.20086167800454	194.25736961451247	41	127
193.20086167800454	193.51433106575965	57	127
193.51433106575965	193.82780045351473	65	127
193.51433106575965	193.82780045351473	53	127
193.82780045351473	194.14126984126983	69	127
193.82780045351473	194.04839002267573	75	127
193.82780045351473	194.14126984126983	57	127
194.14126984126983	194.25736961451247	72	127
194.14126984126983	194.41990929705216	65	127
194.14126984126983	194.41990929705216	53	127
194.41990929705216	195.59251700680272	46	127
194.41990929705216	194.8146485260771	63	127
194.41990929705216	194.8146485260771	51	127
194.41990929705216	195.07006802721088	69	127
194.8146485260771	195.07006802721088	53	127
194.8146485260771	195.07006802721088	65	127
195.07006802721088	195.4415873015873	62	127
195.07006802721088	195.65056689342404	70	127
195.07006802721088	195.4415873015873	50	127
195.4415873015873	195.7898866213152	53	127
195.4415873015873	195.7898866213152	65	127
195.7898866213152	197.65909297052156	41	127
195.7898866213152	196.21945578231293	69	127
195.7898866213152	196.21945578231293	57	127
195.7898866213152	196.42843537414967	72	127
196.21945578231293	196.54453514739228	53	127
196.21945578231293	196.54453514739228	65	127
196.54453514739228	196.8580045351474	59	127
196.54453514739228	196.6954648526077	74	127
196.54453514739228	196.8580045351474	71	127
196.6954648526077	196.77673469387756	75	127
196.77673469387756	196.8580045351474	74	127
196.8580045351474	196.9508843537415	75	127
196.8580045351474	197.14825396825398	65	127
196.8580045351474	197.14825396825398	53	127
196.9508843537415	197.03215419501134	72	127
197.03215419501134	197.14825396825398	74	127
197.14825396825398	197.65909297052156	77	127
197.14825396825398	197.49655328798187	74	127
197.14825396825398	197.49655328798187	62	127
197.49655328798187	197.74036281179139	65	127
197.49655328798187	197.74036281179139	53	127
197.74036281179139	198.37891156462584	45	127
197.74036281179139	197.83324263038548	75	127
197.74036281179139	198.04222222222222	72	127
197.74036281179139	198.04222222222222	60	127
197.83324263038548	197.9609523809524	77	127
197.9609523809524	198.04222222222222	75	127
198.04222222222222	198.3673015873016	53	127
198.04222222222222	198.3673015873016	65	127
198.04222222222222	198.13510204081632	77	127
198.13510204081632	198.25120181405896	74	127
198.25120181405896	198.37891156462584	75	127
198.37891156462584	198.65755102040816	63	127
198.37891156462584	198.65755102040816	79	127
198.37891156462584	198.65755102040816	75	127
198.37891156462584	198.97102040816327	46	127
198.65755102040816	198.97102040816327	62	127
198.65755102040816	198.97102040816327	74	127
198.65755102040816	198.959410430839	77	127
198.97102040816327	199.47024943310657	43	127
198.97102040816327	199.20321995464852	82	127
198.97102040816327	199.28448979591838	64	127
198.97102040816327	199.28448979591838	76	127
199.28448979591838	199.5515192743764	60	127
199.28448979591838	199.4354195011338	84	127
199.28448979591838	199.5515192743764	72	127
199.56312925170067	200.01591836734693	64	127
199.56312925170067	200.44548752834467	41	127
199.56312925170067	200.28294784580498	82	127
199.56312925170067	200.01591836734693	76	127
200.01591836734693	200.28294784580498	60	127
200.01591836734693	200.28294784580498	72	127
200.28294784580498	200.54997732426304	81	127
200.28294784580498	200.54997732426304	77	127
200.28294784580498	200.54997732426304	65	127
200.54997732426304	200.8402267573696	39	127
200.54997732426304	200.8402267573696	77	127
200.54997732426304	200.8402267573696	72	127
200.54997732426304	200.8402267573696	60	127
200.85183673469388	201.1304761904762	58	127
200.85183673469388	201.46716553287982	82	127
200.85183673469388	201.1304761904762	70	127
200.85183673469388	201.46716553287982	38	127
201.1304761904762	201.46716553287982	77	127
201.1304761904762	201.46716553287982	65	127
201.46716553287982	202.04766439909298	39	127
201.46716553287982	201.76902494331065	72	127
201.46716553287982	201.76902494331065	60	127
201.46716553287982	202.04766439909298	81	127
201.76902494331065	202.04766439909298	65	127
201.76902494331065	202.04766439909298	77	127
202.04766439909298	202.50045351473923	58	127
202.04766439909298	202.50045351473923	70	127
202.04766439909298	202.67460317460316	38	127
202.04766439909298	202.75587301587302	82	127
202.50045351473923	202.75587301587302	65	127
202.50045351473923	202.75587301587302	77	127
202.75587301587302	203.22027210884355	70	127
202.75587301587302	203.22027210884355	58	127
202.75587301587302	203.417641723356	74	127
202.75587301587302	203.52213151927438	44	127
203.22027210884355	203.52213151927438	65	127
203.22027210884355	203.52213151927438	53	127
203.52213151927438	203.80077097505668	71	127
203.52213151927438	203.80077097505668	59	127
203.52213151927438	204.04458049886622	79	127
203.52213151927438	204.04458049886622	43	127
203.80077097505668	204.1490702947846	65	127
203.80077097505668	204.1490702947846	53	127
204.1490702947846	204.36965986394557	77	127
204.1490702947846	204.43931972789116	71	127
204.1490702947846	204.43931972789116	59	127
204.1490702947846	204.741179138322	43	127
204.43931972789116	204.741179138322	55	127
204.43931972789116	204.741179138322	67	127
204.43931972789116	204.56702947845804	74	127
204.741179138322	205.0546485260771	65	127
204.741179138322	205.0546485260771	53	127
204.741179138322	205.37972789115645	71	127
204.741179138322	205.9950566893424	36	127
205.0546485260771	205.37972789115645	67	127
205.0546485260771	205.37972789115645	55	127
205.37972789115645	205.82090702947846	63	127
205.37972789115645	205.82090702947846	51	127
205.37972789115645	206.0298866213152	72	127
205.82090702947846	206.13437641723357	67	127
205.82090702947846	206.13437641723357	55	127
206.13437641723357	206.38979591836735	58	127
206.13437641723357	206.61038548752833	74	127
206.13437641723357	206.70326530612246	46	127
206.13437641723357	206.38979591836735	70	127
206.4014058956916	206.70326530612246	58	127
206.4014058956916	206.70326530612246	70	127
206.70326530612246	207.0283446712018	72	127
206.70326530612246	206.83097505668934	75	127
206.70326530612246	207.0283446712018	60	127
206.70326530612246	207.6668934240363	45	127
206.83097505668934	206.9354648526077	77	127
206.9354648526077	207.0283446712018	75	127
207.0283446712018	207.6668934240363	70	127
207.0283446712018	207.6668934240363	58	127
207.0283446712018	207.35342403628118	77	127
207.35342403628118	207.55079365079365	74	127
207.55079365079365	207.6668934240363	75	127
207.6668934240363	208.11968253968254	79	127
207.6668934240363	208.11968253968254	44	127
207.6668934240363	207.93392290249434	75	127
207.6668934240363	207.93392290249434	63	127
207.93392290249434	208.21256235827664	70	127
207.93392290249434	208.21256235827664	58	127
208.21256235827664	208.45637188208616	62	127
208.21256235827664	208.758231292517	44	127
208.21256235827664	208.29383219954647	77	127
208.21256235827664	208.45637188208616	74	127
208.29383219954647	208.37510204081633	79	127
208.37510204081633	208.45637188208616	77	127
208.45637188208616	208.53764172335602	79	127
208.45637188208616	208.74662131519275	70	127
208.45637188208616	208.74662131519275	58	127
208.53764172335602	208.65374149659863	76	127
208.65374149659863	208.758231292517	77	127
208.758231292517	209.03687074829932	77	127
208.758231292517	209.03687074829932	65	127
208.758231292517	209.50126984126985	80	127
208.758231292517	209.50126984126985	38	127
209.03687074829932	209.50126984126985	58	127
209.03687074829932	209.50126984126985	70	127
209.50126984126985	209.9540589569161	75	127
209.50126984126985	209.9540589569161	63	127
209.50126984126985	210.18625850340135	79	127
209.50126984126985	210.18625850340135	39	127
209.9540589569161	210.27913832199548	67	127
209.9540589569161	210.27913832199548	58	127
210.29074829931972	210.72031746031746	69	127
210.29074829931972	210.5461678004535	65	127
210.29074829931972	210.5461678004535	63	127
210.29074829931972	210.7667573696145	41	127
210.5461678004535	210.8596371882086	63	127
210.5461678004535	210.8596371882086	60	127
210.72031746031746	210.78997732426305	70	127
210.78997732426305	210.8596371882086	72	127
210.8596371882086	211.21954648526076	62	127
210.8596371882086	211.21954648526076	70	127
210.8596371882086	211.21954648526076	62	127
210.8596371882086	211.21954648526076	46	127
211.7768253968254	212.17156462585035	53	127
211.7768253968254	212.17156462585035	58	127
211.7768253968254	212.17156462585035	50	127
212.51986394557824	212.77528344671202	58	127
212.51986394557824	212.77528344671202	53	127
212.51986394557824	212.77528344671202	50	127
213.20485260770974	214.20331065759638	60	127
213.20485260770974	214.20331065759638	51	127
213.20485260770974	214.20331065759638	53	127
213.4718820861678	213.73891156462585	53	127
213.79696145124717	214.0059410430839	57	127
214.07560090702947	214.20331065759638	60	127
214.42390022675738	214.78380952380954	53	127
214.42390022675738	214.78380952380954	58	127
214.42390022675738	214.78380952380954	50	127
214.42390022675738	215.2598185941043	65	127
215.08566893424037	215.37591836734694	50	127
215.08566893424037	215.37591836734694	53	127
215.08566893424037	215.37591836734694	58	127
215.37591836734694	215.77065759637188	64	127
215.77065759637188	216.8968253968254	53	127
215.77065759637188	216.06090702947847	67	127
215.77065759637188	216.8968253968254	60	127
215.77065759637188	216.8968253968254	51	127
216.06090702947847	216.43242630385487	65	127
216.43242630385487	216.75750566893424	57	127
216.75750566893424	217.08258503401362	60	127
217.09419501133786	218.08104308390023	65	127
217.09419501133786	217.48893424036282	53	127
217.09419501133786	217.48893424036282	58	127
217.09419501133786	217.48893424036282	49	127
217.8024036281179	218.16231292517006	58	127
217.8024036281179	218.16231292517006	53	127
217.8024036281179	218.16231292517006	49	127
218.16231292517006	218.54544217687075	64	127
218.54544217687075	219.64839002267573	53	127
218.54544217687075	218.85891156462586	66	127
218.54544217687075	219.64839002267573	51	127
218.54544217687075	219.64839002267573	60	127
218.85891156462586	219.13755102040815	65	127
219.13755102040815	219.52068027210885	57	127
219.52068027210885	219.83414965986395	60	127
219.83414965986395	220.25210884353743	58	127
219.83414965986395	220.1360090702948	66	127
219.83414965986395	220.1360090702948	49	127
219.83414965986395	220.25210884353743	53	127
220.1360090702948	220.50752834467121	65	127
220.50752834467121	220.86743764172334	53	127
220.50752834467121	220.86743764172334	58	127
220.50752834467121	220.86743764172334	61	127
220.50752834467121	220.86743764172334	49	127
220.86743764172334	221.2273469387755	70	127
221.2273469387755	221.5408163265306	68	127
221.2273469387755	222.4231746031746	53	127
221.2273469387755	222.4231746031746	59	127
221.2273469387755	222.4231746031746	49	127
221.5408163265306	221.88911564625852	65	127
221.88911564625852	222.22580498866213	61	127
222.2374149659864	222.57410430839002	71	127
222.57410430839002	222.8643537414966	70	127
222.57410430839002	222.8643537414966	54	127
222.57410430839002	223.0501133786848	54	127
222.57410430839002	223.0501133786848	58	127
222.57410430839002	223.0501133786848	58	127
222.57410430839002	223.0501133786848	49	127
222.8643537414966	223.28231292517006	66	127
223.28231292517006	223.68866213151927	61	127
223.28231292517006	223.70027210884354	54	127
223.28231292517006	223.70027210884354	58	127
223.28231292517006	223.70027210884354	58	127
223.28231292517006	223.70027210884354	49	127
223.70027210884354	223.95569160997732	75	127
223.95569160997732	224.26916099773243	73	127
223.95569160997732	225.1863492063492	58	127
223.95569160997732	225.1863492063492	52	127
223.95569160997732	225.1863492063492	61	127
223.95569160997732	225.1863492063492	42	127
224.26916099773243	224.66390022675736	70	127
224.66390022675736	224.93092970521542	66	127
224.66390022675736	224.93092970521542	66	127
224.93092970521542	225.30244897959184	82	127
224.93092970521542	225.3140589569161	82	127
225.3140589569161	225.76684807256237	41	127
225.3140589569161	225.85972789115647	58	127
225.3140589569161	225.85972789115647	62	127
225.3140589569161	225.5694784580499	77	127
225.3140589569161	225.76684807256237	53	127
225.3140589569161	225.85972789115647	82	127
225.5694784580499	225.85972789115647	74	127
225.85972789115647	226.37056689342404	65	127
225.85972789115647	226.84657596371883	81	127
225.85972789115647	226.92784580498866	60	127
225.85972789115647	226.92784580498866	63	127
225.85972789115647	227.36902494331065	53	127
225.85972789115647	227.36902494331065	53	127
226.37056689342404	226.92784580498866	79	127
226.92784580498866	227.18326530612245	77	127
226.92784580498866	227.4502947845805	82	127
226.92784580498866	227.4502947845805	58	127
226.92784580498866	227.4502947845805	62	127
227.18326530612245	227.4502947845805	74	127
227.4502947845805	228.03079365079364	70	127
227.4502947845805	228.5416326530612	41	127
227.4502947845805	228.5416326530612	65	127
227.4502947845805	227.78698412698412	65	127
227.4502947845805	228.03079365079364	74	127
227.4502947845805	228.03079365079364	62	127
227.78698412698412	228.12367346938777	79	127
228.12367346938777	228.5416326530612	77	127
228.12367346938777	228.63451247165534	63	127
228.12367346938777	228.63451247165534	69	127
228.12367346938777	228.36748299319729	77	127
228.36748299319729	228.63451247165534	72	127
228.63451247165534	228.85510204081632	75	127
228.63451247165534	229.02925170068028	65	127
228.63451247165534	229.3659410430839	57	127
228.63451247165534	229.3659410430839	60	127
228.63451247165534	230.50371882086168	53	127
228.63451247165534	229.3659410430839	53	127
229.02925170068028	229.458820861678	79	127
229.02925170068028	229.31950113378684	72	127
229.458820861678	230.01609977324264	60	127
229.458820861678	229.72585034013605	77	127
229.458820861678	229.92321995464852	69	127
229.458820861678	230.01609977324264	63	127
229.458820861678	230.50371882086168	46	127
229.72585034013605	230.01609977324264	72	127
230.01609977324264	230.60820861678005	70	127
230.01609977324264	230.60820861678005	58	127
230.01609977324264	230.60820861678005	62	127
230.01609977324264	230.3063492063492	65	127
230.31795918367348	230.8404081632653	79	127
230.8404081632653	231.42090702947846	72	127
230.8404081632653	231.21192743764172	77	127
230.8404081632653	231.42090702947846	41	127
230.8404081632653	231.5021768707483	63	127
230.8404081632653	231.5021768707483	60	127
231.21192743764172	231.5021768707483	72	127
231.5021768707483	232.11750566893423	62	127
231.5021768707483	231.6298866213152	74	127
231.5021768707483	231.79242630385488	65	127
231.5021768707483	232.73283446712017	53	127
231.5021768707483	232.11750566893423	58	127
231.6298866213152	231.7227664399093	75	127
231.7227664399093	231.8156462585034	74	127
231.8156462585034	232.11750566893423	79	127
231.8156462585034	231.90852607709752	75	127
231.90852607709752	232.0362358276644	72	127
232.0362358276644	232.11750566893423	74	127
232.11750566893423	232.9185941043084	56	127
232.11750566893423	232.45419501133787	77	127
232.11750566893423	232.73283446712017	77	127
232.11750566893423	232.9185941043084	59	127
232.45419501133787	232.9185941043084	74	127
232.9185941043084	233.12757369614513	75	127
232.9185941043084	233.27850340136055	65	127
232.9185941043084	233.52231292517007	57	127
232.9185941043084	233.52231292517007	60	127
232.9185941043084	233.61519274376417	41	127
233.12757369614513	233.20884353741496	77	127
233.20884353741496	233.2901133786848	75	127
233.2901133786848	233.61519274376417	79	127
233.2901133786848	233.39460317460316	77	127
233.39460317460316	233.52231292517007	74	127
233.52231292517007	233.61519274376417	75	127
233.61519274376417	234.0099319727891	77	127
233.61519274376417	234.0099319727891	79	127
233.61519274376417	234.2305215419501	58	127
233.61519274376417	234.31179138321994	62	127
233.61519274376417	234.31179138321994	46	127
234.0099319727891	234.31179138321994	77	127
234.0099319727891	234.31179138321994	70	127
234.31179138321994	234.578820861678	82	127
234.31179138321994	234.69492063492063	72	127
234.31179138321994	234.99678004535147	58	127
234.31179138321994	234.8922902494331	64	127
234.31179138321994	234.8922902494331	43	127
234.69492063492063	234.85746031746032	84	127
234.69492063492063	234.9851700680272	67	127
234.99678004535147	235.3915192743764	72	127
234.99678004535147	235.67015873015873	82	127
234.99678004535147	235.67015873015873	52	127
234.99678004535147	235.67015873015873	67	127
234.99678004535147	235.83269841269842	41	127
235.3915192743764	235.65854875283446	67	127
235.67015873015873	235.97201814058957	69	127
235.67015873015873	236.1809977324263	53	127
235.67015873015873	235.97201814058957	81	127
235.67015873015873	236.1809977324263	60	127
235.97201814058957	236.28548752834467	65	127
235.97201814058957	236.2738775510204	77	127
235.97201814058957	236.2738775510204	39	127
235.97201814058957	236.28548752834467	77	127
236.28548752834467	236.85437641723357	38	127
236.28548752834467	236.50607709750568	58	127
236.28548752834467	236.85437641723357	82	127
236.28548752834467	236.50607709750568	70	127
236.50607709750568	236.6802267573696	65	127
236.50607709750568	236.6802267573696	53	127
236.6802267573696	236.85437641723357	65	127
236.6802267573696	236.85437641723357	77	127
236.85437641723357	237.23750566893423	60	127
236.85437641723357	237.23750566893423	72	127
236.85437641723357	237.60902494331066	81	127
236.85437641723357	237.60902494331066	39	127
237.23750566893423	237.4348752834467	65	127
237.23750566893423	237.4348752834467	53	127
237.4348752834467	237.60902494331066	77	127
237.4348752834467	237.60902494331066	65	127
237.60902494331066	238.18952380952382	82	127
237.60902494331066	237.8180045351474	70	127
237.60902494331066	237.8180045351474	58	127
237.60902494331066	238.18952380952382	38	127
237.8180045351474	238.0618140589569	65	127
237.8180045351474	238.0618140589569	53	127
238.07342403628118	238.36367346938775	77	127
238.07342403628118	238.36367346938775	65	127
238.36367346938775	238.5378231292517	74	127
238.36367346938775	238.87451247165532	41	127
238.36367346938775	238.87451247165532	83	127
238.36367346938775	238.5378231292517	62	127
238.5378231292517	238.7003628117914	67	127
238.5378231292517	238.7003628117914	55	127
238.71197278911563	238.87451247165532	79	127
238.71197278911563	238.87451247165532	67	127
238.87451247165532	239.4201814058957	39	127
238.87451247165532	239.4201814058957	84	127
238.87451247165532	239.06027210884355	72	127
238.87451247165532	239.06027210884355	60	127
239.06027210884355	239.2228117913832	55	127
239.06027210884355	239.2228117913832	67	127
239.23442176870748	239.4201814058957	79	127
239.23442176870748	239.4201814058957	67	127
239.4201814058957	239.6756009070295	74	127
239.4201814058957	239.6756009070295	62	127
239.4201814058957	240.09356009070294	83	127
239.4201814058957	240.09356009070294	41	127
239.6756009070295	239.8613605442177	67	127
239.6756009070295	239.8613605442177	55	127
239.87297052154196	240.09356009070294	67	127
239.87297052154196	240.09356009070294	79	127
240.09356009070294	240.62761904761905	39	127
240.09356009070294	240.3257596371882	72	127
240.09356009070294	240.3257596371882	60	127
240.09356009070294	240.62761904761905	84	127
240.3257596371882	240.52312925170068	67	127
240.3257596371882	240.52312925170068	55	127
240.53473922902495	240.79015873015874	79	127
240.53473922902495	240.79015873015874	67	127
240.79015873015874	241.4867573696145	44	127
240.79015873015874	240.99913832199547	65	127
240.79015873015874	241.4867573696145	86	127
240.79015873015874	240.99913832199547	77	127
240.99913832199547	241.242947845805	70	127
240.99913832199547	241.242947845805	58	127
241.25455782312926	241.4867573696145	70	127
241.25455782312926	241.4867573696145	82	127
241.4867573696145	242.09047619047618	43	127
241.4867573696145	241.73056689342403	75	127
241.4867573696145	241.73056689342403	63	127
241.4867573696145	242.09047619047618	87	127
241.73056689342403	241.8931065759637	58	127
241.73056689342403	241.8931065759637	70	127
241.90471655328798	242.09047619047618	82	127
241.90471655328798	242.09047619047618	70	127
242.09047619047618	242.26462585034014	76	127
242.09047619047618	242.26462585034014	64	127
242.09047619047618	242.6477551020408	88	127
242.09047619047618	242.6477551020408	42	127
242.26462585034014	242.4619954648526	70	127
242.26462585034014	242.4619954648526	61	127
242.4619954648526	242.6477551020408	70	127
242.4619954648526	242.6477551020408	82	127
242.6477551020408	242.9380045351474	77	127
242.6477551020408	242.9380045351474	65	127
242.6477551020408	243.26308390022675	89	127
242.6477551020408	243.26308390022675	41	127
242.9380045351474	243.18181405895692	70	127
242.9380045351474	243.18181405895692	61	127
243.18181405895692	243.35596371882087	82	127
243.18181405895692	243.35596371882087	73	127
243.35596371882087	244.56340136054422	40	127
243.35596371882087	243.72748299319727	81	127
243.35596371882087	243.72748299319727	70	127
243.35596371882087	244.73755102040818	93	127
243.72748299319727	243.89002267573696	61	127
243.72748299319727	243.89002267573696	70	127
243.89002267573696	244.11061224489796	73	127
243.89002267573696	244.11061224489796	82	127
244.11061224489796	244.2847619047619	70	127
244.11061224489796	244.2847619047619	81	127
244.2847619047619	244.4821315192744	61	127
244.2847619047619	244.4821315192744	70	127
244.4821315192744	244.73755102040818	82	127
244.4821315192744	244.73755102040818	73	127
244.73755102040818	245.21356009070294	91	127
244.73755102040818	244.92331065759637	79	127
244.73755102040818	244.92331065759637	70	127
244.73755102040818	245.21356009070294	52	127
244.92331065759637	245.1322902494331	70	127
244.92331065759637	245.1322902494331	61	127
245.1322902494331	245.45736961451246	73	127
245.1322902494331	245.45736961451246	82	127
245.45736961451246	245.6663492063492	72	127
245.45736961451246	246.17718820861677	53	127
245.45736961451246	245.6663492063492	77	127
245.45736961451246	246.0146485260771	81	127
245.6663492063492	245.8637188208617	75	127
245.6663492063492	245.8637188208617	65	127
245.8637188208617	246.16557823129253	69	127
245.8637188208617	246.17718820861677	72	127
246.0146485260771	246.0726984126984	82	127
246.0726984126984	246.17718820861677	84	127
246.17718820861677	246.44421768707483	70	127
246.17718820861677	246.44421768707483	82	127
246.17718820861677	246.44421768707483	74	127
246.17718820861677	246.44421768707483	46	127
246.92022675736962	247.19886621315192	86	127
246.92022675736962	247.19886621315192	74	127
247.55877551020407	247.88385487528345	86	127
247.55877551020407	247.88385487528345	74	127
248.13927437641723	249.20739229024943	87	127
248.13927437641723	248.4063038548753	55	127
248.13927437641723	248.4063038548753	43	127
248.13927437641723	249.20739229024943	75	127
248.2669841269841	248.4063038548753	58	127
248.4063038548753	248.53401360544217	63	127
248.53401360544217	248.66172335600908	67	127
248.67333333333335	249.07968253968255	55	127
248.67333333333335	249.07968253968255	43	127
248.67333333333335	248.80104308390023	72	127
248.8126530612245	249.07968253968255	70	127
249.07968253968255	249.20739229024943	69	127
249.20739229024943	249.33510204081634	70	127
249.33510204081634	249.45120181405895	75	127
249.33510204081634	250.35678004535148	45	127
249.33510204081634	249.66018140589568	84	127
249.33510204081634	249.66018140589568	72	127
249.33510204081634	250.35678004535148	57	127
249.46281179138322	249.64857142857142	51	127
249.46281179138322	249.64857142857142	74	127
249.66018140589568	249.83433106575964	72	127
249.66018140589568	249.83433106575964	57	127
249.83433106575964	249.9736507936508	70	127
249.83433106575964	249.9736507936508	60	127
249.9736507936508	250.22907029478458	69	127
249.9736507936508	250.1013605442177	65	127
249.9736507936508	250.24068027210885	84	127
249.9736507936508	250.24068027210885	72	127
250.11297052154194	250.22907029478458	63	127
250.24068027210885	250.35678004535148	62	127
250.35678004535148	250.5077097505669	63	127
250.5077097505669	250.64702947845805	69	127
250.5077097505669	251.55260770975056	74	127
250.5077097505669	250.84439909297052	54	127
250.5077097505669	251.55260770975056	86	127
250.5077097505669	250.84439909297052	42	127
250.65863945578232	250.83278911564625	67	127
250.65863945578232	250.83278911564625	57	127
250.84439909297052	251.01854875283448	62	127
250.84439909297052	251.01854875283448	66	127
251.01854875283448	251.14625850340136	66	127
251.01854875283448	251.14625850340136	64	127
251.14625850340136	251.43650793650792	54	127
251.14625850340136	251.27396825396826	70	127
251.14625850340136	251.42489795918368	62	127
251.14625850340136	251.43650793650792	42	127
251.27396825396826	251.42489795918368	69	127
251.43650793650792	251.55260770975056	67	127
251.55260770975056	251.6919274376417	69	127
251.6919274376417	251.81963718820862	74	127
251.6919274376417	251.81963718820862	82	127
251.6919274376417	251.81963718820862	70	127
251.6919274376417	252.13310657596372	43	127
251.6919274376417	252.13310657596372	55	127
251.81963718820862	251.9473469387755	72	127
251.81963718820862	251.9473469387755	50	127
251.95895691609977	252.0750566893424	70	127
251.95895691609977	252.0750566893424	55	127
251.95895691609977	252.09827664399094	82	127
251.95895691609977	252.09827664399094	70	127
252.09827664399094	252.2375963718821	67	127
252.09827664399094	252.2375963718821	58	127
252.2375963718821	252.74843537414966	72	127
252.2375963718821	252.40013605442178	39	127
252.2375963718821	252.40013605442178	67	127
252.2375963718821	252.74843537414966	84	127
252.2375963718821	252.40013605442178	51	127
252.40013605442178	252.52784580498866	55	127
252.40013605442178	252.52784580498866	65	127
252.53945578231293	252.71360544217688	39	127
252.53945578231293	252.70199546485262	60	127
252.53945578231293	252.70199546485262	63	127
252.53945578231293	252.71360544217688	51	127
252.71360544217688	252.84131519274376	63	127
252.71360544217688	252.84131519274376	60	127
252.84131519274376	252.96902494331067	72	127
252.84131519274376	252.96902494331067	81	127
252.84131519274376	252.96902494331067	69	127
252.84131519274376	253.35215419501134	41	127
252.84131519274376	253.35215419501134	53	127
252.96902494331067	253.1431746031746	48	127
252.96902494331067	253.1431746031746	70	127
253.15478458049887	253.29410430839002	53	127
253.15478458049887	253.29410430839002	69	127
253.15478458049887	253.31732426303856	69	127
253.15478458049887	253.31732426303856	81	127
253.31732426303856	253.43342403628117	57	127
253.31732426303856	253.43342403628117	65	127
253.43342403628117	253.56113378684807	50	127
253.43342403628117	253.56113378684807	38	127
253.43342403628117	253.88621315192745	70	127
253.43342403628117	253.56113378684807	65	127
253.43342403628117	253.88621315192745	82	127
253.56113378684807	253.7120634920635	53	127
253.56113378684807	253.7120634920635	63	127
253.7120634920635	253.83977324263037	62	127
253.7120634920635	253.83977324263037	58	127
253.7120634920635	253.85138321995464	50	127
253.7120634920635	253.85138321995464	38	127
253.85138321995464	253.96748299319728	62	127
253.85138321995464	253.96748299319728	58	127
253.97909297052155	254.10680272108843	70	127
253.97909297052155	254.10680272108843	79	127
253.97909297052155	254.10680272108843	67	127
253.97909297052155	254.10680272108843	52	127
253.97909297052155	254.10680272108843	40	127
254.10680272108843	254.23451247165534	69	127
254.10680272108843	254.23451247165534	49	127
254.23451247165534	254.35061224489795	67	127
254.23451247165534	254.35061224489795	52	127
254.23451247165534	254.36222222222221	81	127
254.23451247165534	254.36222222222221	69	127
254.23451247165534	254.36222222222221	49	127
254.23451247165534	254.36222222222221	37	127
254.36222222222221	254.53637188208617	64	127
254.36222222222221	254.53637188208617	57	127
254.54798185941044	254.69891156462586	69	127
254.54798185941044	254.69891156462586	77	127
254.54798185941044	254.69891156462586	65	127
254.54798185941044	254.69891156462586	50	127
254.54798185941044	254.69891156462586	38	127
254.69891156462586	254.86145124716552	65	127
254.69891156462586	254.86145124716552	50	127
254.86145124716552	254.97755102040816	62	127
254.86145124716552	254.97755102040816	55	127
254.86145124716552	254.98916099773243	79	127
254.86145124716552	254.98916099773243	67	127
254.86145124716552	254.98916099773243	46	127
254.98916099773243	255.16331065759638	67	127
254.98916099773243	255.16331065759638	58	127
255.17492063492062	255.70897959183674	62	127
255.17492063492062	255.70897959183674	76	127
255.17492063492062	255.70897959183674	64	127
255.17492063492062	255.70897959183674	64	127
255.17492063492062	255.70897959183674	58	127
255.17492063492062	255.70897959183674	55	127
255.17492063492062	255.70897959183674	43	127
255.79024943310657	256.2662585034014	64	127
255.79024943310657	256.2662585034014	57	127
255.79024943310657	256.2662585034014	61	127
255.79024943310657	256.2662585034014	73	127
255.79024943310657	256.2662585034014	57	127
255.79024943310657	256.2662585034014	45	127
256.3475283446712	256.8583673469388	50	127
256.3475283446712	256.8583673469388	62	127
256.3475283446712	256.8583673469388	74	127
256.5100680272109	256.6261678004535	55	127
256.5100680272109	256.6261678004535	58	127
256.6261678004535	256.823537414966	58	127
256.6261678004535	256.823537414966	62	127
256.823537414966	256.92802721088435	67	127
256.823537414966	256.92802721088435	62	127
256.9396371882086	257.6362358276644	62	127
256.9396371882086	257.06734693877553	72	127
256.9396371882086	257.06734693877553	69	127
256.9396371882086	257.6362358276644	74	127
256.9396371882086	257.6362358276644	50	127
257.2995238095238	257.4388662131519	67	127
257.2995238095238	257.4388662131519	70	127
257.4388662131519	257.5897959183674	66	127
257.4388662131519	257.5897959183674	69	127
257.5897959183674	257.705873015873	70	127
257.5897959183674	257.705873015873	67	127
257.7175056689342	258.25156462585034	74	127
257.7175056689342	258.25156462585034	62	127
257.7175056689342	258.25156462585034	38	127
257.7175056689342	258.25156462585034	86	127
258.32120181405895	258.855283446712	62	127
258.32120181405895	258.7159637188209	74	127
258.32120181405895	258.5418140589569	54	127
258.32120181405895	258.5418140589569	50	127
258.32120181405895	258.7159637188209	86	127
258.32120181405895	258.7159637188209	62	127
258.32120181405895	258.7159637188209	38	127
258.32120181405895	258.855283446712	57	127
258.4256916099773	258.855283446712	66	127
258.4256916099773	258.855283446712	69	127
258.855283446712	259.37773242630385	79	127
258.855283446712	259.37773242630385	67	127
258.855283446712	259.37773242630385	55	127
258.9946031746032	259.1803628117914	63	127
258.9946031746032	259.1803628117914	55	127
259.19197278911565	259.31968253968256	60	127
259.19197278911565	259.31968253968256	67	127
259.31968253968256	259.47061224489795	72	127
259.31968253968256	259.47061224489795	63	127
259.47061224489795	260.0859410430839	67	127
259.47061224489795	259.6795918367347	77	127
259.47061224489795	259.6795918367347	74	127
259.47061224489795	260.0859410430839	79	127
259.47061224489795	260.0859410430839	55	127
259.69120181405896	259.87696145124715	72	127
259.69120181405896	259.87696145124715	75	127
259.8885714285714	260.0278911564626	71	127
259.8885714285714	260.0278911564626	74	127
260.0278911564626	260.23687074829934	75	127
260.0278911564626	260.23687074829934	72	127
260.23687074829934	260.6780498866213	79	127
260.23687074829934	260.6780498866213	91	127
260.23687074829934	260.6780498866213	55	127
260.23687074829934	260.6780498866213	67	127
260.23687074829934	260.6780498866213	43	127
260.7593197278912	261.2121088435374	67	127
260.7593197278912	261.0379591836735	58	127
260.7593197278912	261.0379591836735	55	127
260.7593197278912	261.2121088435374	79	127
260.7593197278912	261.2121088435374	91	127
260.7593197278912	261.2121088435374	55	127
260.7593197278912	261.2121088435374	43	127
260.7593197278912	261.3049886621315	67	127
260.7593197278912	261.3049886621315	62	127
260.88702947845803	261.3049886621315	74	127
260.88702947845803	261.3049886621315	70	127
261.3049886621315	261.64167800453515	58	127
261.3049886621315	261.64167800453515	67	127
261.3049886621315	261.8042176870748	58	127
262.0596371882086	262.39632653061227	58	127
262.0596371882086	262.39632653061227	67	127
262.0596371882086	262.55886621315193	58	127
262.6633560090703	262.9303854875283	39	127
262.6633560090703	263.708253968254	68	127
262.6633560090703	263.708253968254	60	127
263.4295918367347	263.708253968254	39	127
263.708253968254	263.9868934240363	58	127
263.708253968254	263.9868934240363	67	127
264.0101133786848	264.3235827664399	56	127
264.0101133786848	264.99696145124716	39	127
264.0101133786848	264.3235827664399	65	127
264.3235827664399	264.59061224489795	63	127
264.3235827664399	264.59061224489795	55	127
264.59061224489795	264.85761904761904	62	127
264.59061224489795	264.85761904761904	53	127
264.85761904761904	265.1130612244898	55	127
264.85761904761904	265.1130612244898	63	127
265.18272108843536	265.50780045351473	58	127
265.18272108843536	265.50780045351473	67	127
265.18272108843536	265.50780045351473	39	127
265.50780045351473	265.82126984126984	65	127
265.50780045351473	265.82126984126984	56	127
265.82126984126984	266.0534693877551	63	127
265.82126984126984	266.0534693877551	55	127
265.82126984126984	266.0534693877551	39	127
266.0534693877551	266.5526984126984	65	127
266.0534693877551	266.5526984126984	56	127
266.5643083900227	266.85455782312926	67	127
266.5643083900227	266.85455782312926	70	127
266.5643083900227	267.53954648526076	39	127
267.16802721088436	267.4118140589569	67	127
267.16802721088436	267.4118140589569	70	127
267.66725623582767	268.65410430839	72	127
267.66725623582767	268.65410430839	68	127
267.66725623582767	268.65410430839	62	127
267.66725623582767	268.0155555555556	39	127
268.25936507936507	268.65410430839	39	127
268.65410430839	268.9095238095238	70	127
268.65410430839	268.9095238095238	67	127
268.65410430839	268.9095238095238	63	127
268.9095238095238	269.26943310657595	68	127
268.9095238095238	269.26943310657595	65	127
268.9095238095238	269.26943310657595	50	127
268.9095238095238	270.03569160997733	39	127
269.26943310657595	269.53646258503403	63	127
269.26943310657595	269.53646258503403	51	127
269.26943310657595	269.53646258503403	67	127
269.53646258503403	269.8731292517007	62	127
269.53646258503403	269.8731292517007	53	127
269.53646258503403	269.8731292517007	65	127
269.8731292517007	270.1749886621315	67	127
269.8731292517007	270.1749886621315	63	127
269.8731292517007	270.1749886621315	51	127
270.1749886621315	270.4536507936508	70	127
270.1749886621315	270.4536507936508	67	127
270.1749886621315	270.4536507936508	48	127
270.1749886621315	270.4536507936508	39	127
270.4536507936508	270.7439002267574	68	127
270.4536507936508	270.7439002267574	65	127
270.4536507936508	270.7439002267574	50	127
270.7439002267574	271.03414965986394	67	127
270.7439002267574	271.03414965986394	63	127
270.7439002267574	271.03414965986394	51	127
270.7439002267574	271.03414965986394	39	127
271.03414965986394	271.34761904761905	68	127
271.03414965986394	271.34761904761905	65	127
271.03414965986394	271.34761904761905	50	127
271.34761904761905	271.78879818594106	79	127
271.34761904761905	271.78879818594106	70	127
271.34761904761905	271.78879818594106	67	127
271.34761904761905	271.78879818594106	58	127
271.34761904761905	271.78879818594106	46	127
271.34761904761905	272.48539682539683	39	127
271.78879818594106	272.0558276643991	51	127
272.0558276643991	272.3228344671202	79	127
272.0558276643991	272.3228344671202	70	127
272.0558276643991	272.3228344671202	67	127
272.0558276643991	272.3228344671202	55	127
272.0558276643991	272.3228344671202	58	127
272.3228344671202	272.60149659863947	58	127
272.61310657596374	273.6231746031746	80	127
272.61310657596374	273.11233560090704	63	127
272.61310657596374	273.11233560090704	39	127
272.61310657596374	273.6231746031746	72	127
272.61310657596374	273.6231746031746	68	127
272.61310657596374	273.6231746031746	60	127
273.11233560090704	273.3677551020408	60	127
273.3677551020408	273.6231746031746	56	127
273.3677551020408	273.6231746031746	39	127
273.6231746031746	273.7508616780045	67	127
273.6231746031746	273.8669841269841	51	127
273.6231746031746	273.8669841269841	58	127
273.6231746031746	273.7508616780045	79	127
273.6231746031746	273.7508616780045	70	127
273.8785941043084	274.20367346938775	65	127
273.8785941043084	274.20367346938775	77	127
273.8785941043084	274.20367346938775	68	127
273.8785941043084	274.20367346938775	56	127
273.8785941043084	274.20367346938775	46	127
273.8785941043084	274.9467120181406	39	127
274.20367346938775	274.5403628117914	67	127
274.20367346938775	274.5403628117914	63	127
274.20367346938775	274.5403628117914	55	127
274.20367346938775	274.83061224489796	58	127
274.20367346938775	274.5403628117914	75	127
274.5403628117914	274.83061224489796	65	127
274.5403628117914	274.83061224489796	62	127
274.5403628117914	274.83061224489796	53	127
274.5403628117914	274.83061224489796	74	127
274.83061224489796	275.06281179138324	75	127
274.83061224489796	275.06281179138324	67	127
274.83061224489796	275.06281179138324	63	127
274.83061224489796	275.06281179138324	55	127
274.83061224489796	275.06281179138324	58	127
275.0744217687075	275.3878684807256	79	127
275.0744217687075	275.3878684807256	70	127
275.0744217687075	275.3878684807256	67	127
275.0744217687075	275.3878684807256	58	127
275.0744217687075	275.3878684807256	46	127
275.0744217687075	275.3878684807256	39	127
275.3878684807256	275.7245804988662	77	127
275.3878684807256	275.7245804988662	68	127
275.3878684807256	275.7245804988662	65	127
275.3878684807256	275.7245804988662	56	127
275.3878684807256	276.01482993197277	58	127
275.7245804988662	276.01482993197277	67	127
275.7245804988662	276.01482993197277	63	127
275.7245804988662	276.01482993197277	75	127
275.7245804988662	276.01482993197277	55	127
275.7245804988662	276.01482993197277	39	127
276.01482993197277	276.3979591836735	77	127
276.01482993197277	276.3979591836735	68	127
276.01482993197277	276.3979591836735	65	127
276.01482993197277	276.3979591836735	56	127
276.01482993197277	276.3979591836735	58	127
276.40954648526076	276.7114285714286	79	127
276.40954648526076	276.7114285714286	82	127
276.40954648526076	276.7114285714286	70	127
276.40954648526076	276.7114285714286	67	127
276.40954648526076	276.7114285714286	46	127
276.40954648526076	277.4544671201814	39	127
276.7114285714286	277.01328798185943	51	127
277.01328798185943	277.3383446712018	79	127
277.01328798185943	277.3383446712018	70	127
277.01328798185943	277.3383446712018	82	127
277.01328798185943	277.3383446712018	55	127
277.01328798185943	277.3383446712018	67	127
277.3383446712018	277.59378684807257	58	127
277.59378684807257	278.4645124716553	84	127
277.59378684807257	277.9420634920635	63	127
277.59378684807257	277.9420634920635	39	127
277.59378684807257	278.4645124716553	80	127
277.59378684807257	278.4645124716553	72	127
277.59378684807257	278.4645124716553	68	127
277.9420634920635	278.2091156462585	60	127
278.2091156462585	278.4645124716553	39	127
278.2091156462585	278.4645124716553	56	127
278.4645124716553	278.6618820861678	70	127
278.4645124716553	278.6618820861678	67	127
278.4645124716553	278.8128344671202	51	127
278.4645124716553	278.6618820861678	82	127
278.4645124716553	278.6618820861678	79	127
278.8128344671202	279.92739229024943	39	127
278.8128344671202	279.1495238095238	87	127
278.8128344671202	279.1495238095238	79	127
278.8128344671202	279.1495238095238	75	127
278.8128344671202	279.1495238095238	67	127
278.8128344671202	279.1495238095238	46	127
279.1495238095238	279.4397732426304	70	127
279.1495238095238	279.4397732426304	86	127
279.1495238095238	279.73002267573696	58	127
279.1495238095238	279.4397732426304	82	127
279.1495238095238	279.4397732426304	74	127
279.4397732426304	279.74163265306123	68	127
279.4397732426304	279.74163265306123	84	127
279.4397732426304	279.74163265306123	80	127
279.4397732426304	279.74163265306123	72	127
279.74163265306123	280.171201814059	70	127
279.74163265306123	280.171201814059	82	127
279.74163265306123	280.171201814059	79	127
279.74163265306123	280.171201814059	67	127
279.74163265306123	280.171201814059	58	127
280.171201814059	280.49628117913835	77	127
280.171201814059	280.49628117913835	70	127
280.171201814059	280.49628117913835	65	127
280.171201814059	280.49628117913835	46	127
280.171201814059	280.49628117913835	82	127
280.171201814059	280.49628117913835	38	127
280.49628117913835	280.7865306122449	80	127
280.49628117913835	280.7865306122449	70	127
280.49628117913835	280.7865306122449	68	127
280.49628117913835	280.7865306122449	58	127
280.49628117913835	281.0767800453515	58	127
280.7865306122449	281.08839002267575	80	127
280.7865306122449	281.08839002267575	77	127
280.7865306122449	281.08839002267575	68	127
280.7865306122449	281.08839002267575	65	127
280.7865306122449	281.08839002267575	39	127
281.08839002267575	281.3902494331066	79	127
281.08839002267575	281.3902494331066	75	127
281.08839002267575	281.3902494331066	67	127
281.08839002267575	281.3902494331066	63	127
281.08839002267575	281.3902494331066	58	127
281.3902494331066	281.81981859410433	46	127
281.3902494331066	281.6572789115646	74	127
281.3902494331066	281.6572789115646	62	127
281.3902494331066	281.81981859410433	77	127
281.3902494331066	281.81981859410433	74	127
281.91269841269843	282.17972789115646	62	127
281.91269841269843	282.17972789115646	74	127
282.72539682539684	282.99242630385487	43	127
282.72539682539684	283.68902494331064	75	127
282.72539682539684	282.99242630385487	55	127
282.72539682539684	283.68902494331064	63	127
282.8414965986395	282.99242630385487	70	127
282.99242630385487	283.1085260770975	75	127
283.1201360544218	283.30589569161	79	127
283.31750566893425	283.5613151927438	55	127
283.31750566893425	283.5613151927438	43	127
283.31750566893425	283.4336054421769	84	127
283.4336054421769	283.5613151927438	82	127
283.5613151927438	283.67739229024943	81	127
283.68902494331064	283.8283446712018	82	127
283.8399546485261	283.9560544217687	87	127
283.8399546485261	284.85002267573697	57	127
283.8399546485261	284.08374149659863	72	127
283.8399546485261	284.08374149659863	60	127
283.8399546485261	284.85002267573697	45	127
283.9560544217687	284.08374149659863	63	127
283.9560544217687	284.08374149659863	86	127
284.08374149659863	284.22308390022675	84	127
284.08374149659863	284.22308390022675	69	127
284.22308390022675	284.3740136054422	72	127
284.22308390022675	284.3740136054422	82	127
284.38560090702947	284.5597732426304	77	127
284.38560090702947	284.6874829931973	72	127
284.38560090702947	284.6874829931973	60	127
284.38560090702947	284.6874829931973	81	127
284.57138321995467	284.6874829931973	75	127
284.6874829931973	284.85002267573697	74	127
284.85002267573697	285.0125623582766	75	127
285.03578231292516	285.1983219954649	81	127
285.03578231292516	286.04585034013604	74	127
285.03578231292516	286.04585034013604	62	127
285.03578231292516	285.337641723356	54	127
285.03578231292516	285.337641723356	42	127
285.20990929705215	285.337641723356	79	127
285.20990929705215	285.337641723356	69	127
285.337641723356	285.511768707483	74	127
285.337641723356	285.511768707483	78	127
285.511768707483	285.62789115646257	78	127
285.511768707483	285.62789115646257	76	127
285.63950113378684	285.9065306122449	54	127
285.63950113378684	285.9065306122449	42	127
285.63950113378684	285.76721088435374	82	127
285.63950113378684	285.9065306122449	74	127
285.778820861678	285.9065306122449	81	127
285.9065306122449	286.04585034013604	79	127
286.04585034013604	286.17356009070295	81	127
286.17356009070295	286.3128798185941	86	127
286.17356009070295	286.3244671201814	70	127
286.17356009070295	286.3244671201814	58	127
286.17356009070295	286.62634920634923	55	127
286.17356009070295	286.62634920634923	43	127
286.3244671201814	286.440589569161	62	127
286.3244671201814	286.440589569161	84	127
286.45219954648525	286.57990929705215	70	127
286.45219954648525	286.57990929705215	58	127
286.45219954648525	286.57990929705215	82	127
286.45219954648525	286.57990929705215	67	127
286.57990929705215	286.70761904761906	70	127
286.57990929705215	286.70761904761906	79	127
286.70761904761906	287.2300680272109	72	127
286.70761904761906	287.2300680272109	60	127
286.70761904761906	286.84691609977324	79	127
286.70761904761906	286.881768707483	39	127
286.70761904761906	286.881768707483	51	127
286.881768707483	287.0559183673469	77	127
286.881768707483	287.0559183673469	67	127
287.0675283446712	287.1836281179138	72	127
287.0675283446712	287.1836281179138	75	127
287.0675283446712	287.1836281179138	51	127
287.0675283446712	287.1836281179138	39	127
287.1836281179138	287.31133786848073	72	127
287.1836281179138	287.31133786848073	75	127
287.31133786848073	287.4506349206349	69	127
287.31133786848073	287.43904761904764	84	127
287.31133786848073	287.4506349206349	57	127
287.31133786848073	287.7409070294785	53	127
287.31133786848073	287.7409070294785	41	127
287.4506349206349	287.5667573696145	60	127
287.4506349206349	287.5667573696145	82	127
287.57836734693876	287.6944671201814	65	127
287.57836734693876	287.6944671201814	81	127
287.57836734693876	287.6944671201814	69	127
287.57836734693876	287.6944671201814	57	127
287.6944671201814	287.8570068027211	77	127
287.6944671201814	287.8570068027211	69	127
287.8570068027211	288.0079365079365	38	127
287.8570068027211	287.99632653061224	77	127
287.8570068027211	288.0079365079365	50	127
287.8570068027211	288.4142857142857	70	127
287.8570068027211	288.4142857142857	58	127
288.0079365079365	288.1472562358277	75	127
288.0079365079365	288.1472562358277	65	127
288.15886621315195	288.30979591836734	50	127
288.15886621315195	288.30979591836734	38	127
288.15886621315195	288.30979591836734	70	127
288.15886621315195	288.30979591836734	74	127
288.30979591836734	288.5071655328798	70	127
288.30979591836734	288.5071655328798	74	127
288.5071655328798	288.6348752834467	51	127
288.5071655328798	288.6348752834467	82	127
288.5071655328798	288.6348752834467	67	127
288.5071655328798	288.6348752834467	55	127
288.5071655328798	288.6348752834467	39	127
288.6348752834467	288.7045351473923	58	127
288.6348752834467	288.78578231292516	79	127
288.7974149659864	288.8554648526077	63	127
288.7974149659864	288.913514739229	75	127
288.7974149659864	288.9251247165533	69	127
288.7974149659864	288.9251247165533	57	127
288.7974149659864	288.9251247165533	48	127
288.7974149659864	288.9251247165533	36	127
288.9251247165533	288.98315192743763	63	127
288.9251247165533	289.0412244897959	81	127
289.0412244897959	289.16893424036283	81	127
289.0412244897959	289.16893424036283	66	127
289.0412244897959	289.16893424036283	54	127
289.0412244897959	289.16893424036283	50	127
289.16893424036283	289.2269841269841	57	127
289.16893424036283	289.28503401360547	78	127
289.29662131519274	289.3663038548753	62	127
289.29662131519274	289.4243537414966	74	127
289.29662131519274	289.43596371882086	67	127
289.29662131519274	289.43596371882086	55	127
289.29662131519274	289.43596371882086	46	127
289.43596371882086	289.4939909297052	62	127
289.43596371882086	289.56367346938777	79	127
289.56367346938777	290.06290249433107	75	127
289.56367346938777	290.06290249433107	67	127
289.56367346938777	290.06290249433107	57	127
289.56367346938777	290.06290249433107	63	127
289.56367346938777	290.06290249433107	48	127
289.56367346938777	290.06290249433107	36	127
290.1441723356009	290.63179138321993	74	127
290.1441723356009	290.63179138321993	62	127
290.1441723356009	290.63179138321993	57	127
290.1441723356009	290.63179138321993	66	127
290.1441723356009	290.63179138321993	50	127
290.1441723356009	290.63179138321993	38	127
290.7711111111111	291.0381179138322	43	127
290.7711111111111	291.0381179138322	55	127
291.3051700680272	291.57219954648525	43	127
291.3051700680272	291.57219954648525	55	127
291.82761904761907	292.07142857142856	84	127
291.82761904761907	292.07142857142856	72	127
291.82761904761907	292.98861678004533	56	127
291.82761904761907	292.98861678004533	44	127
291.955306122449	292.07142857142856	63	127
292.07142857142856	292.19913832199546	68	127
292.21074829931973	292.47777777777776	72	127
292.48938775510203	292.79124716553287	84	127
292.48938775510203	292.79124716553287	72	127
292.48938775510203	292.6287074829932	77	127
292.6287074829932	292.79124716553287	75	127
292.79124716553287	292.98861678004533	74	127
292.98861678004533	293.1279365079365	75	127
293.1627664399093	293.42979591836735	53	127
293.1627664399093	294.05673469387756	86	127
293.1627664399093	293.42979591836735	41	127
293.1627664399093	294.05673469387756	74	127
293.1627664399093	293.29047619047617	80	127
293.30208616780044	293.42979591836735	56	127
293.30208616780044	293.42979591836735	79	127
293.42979591836735	293.55750566893425	77	127
293.42979591836735	293.55750566893425	62	127
293.55750566893425	293.6736054421769	75	127
293.55750566893425	293.6736054421769	65	127
293.68521541950116	293.92902494331065	41	127
293.68521541950116	293.80131519274374	70	127
293.68521541950116	293.92902494331065	74	127
293.68521541950116	293.92902494331065	53	127
293.812925170068	293.92902494331065	68	127
293.92902494331065	294.05673469387756	67	127
294.05673469387756	294.1728344671202	68	127
294.18444444444447	294.4979138321996	83	127
294.18444444444447	294.4979138321996	71	127
294.18444444444447	295.2061224489796	43	127
294.18444444444447	295.2061224489796	55	127
294.18444444444447	294.3469841269841	74	127
294.3585941043084	294.4979138321996	72	127
294.3585941043084	294.4979138321996	62	127
294.4979138321996	294.6720634920635	71	127
294.4979138321996	294.6720634920635	67	127
294.6720634920635	294.7997732426304	69	127
294.6720634920635	294.7997732426304	71	127
294.7997732426304	295.06680272108844	67	127
294.7997732426304	295.0784126984127	71	127
294.7997732426304	295.0784126984127	83	127
294.7997732426304	294.92748299319726	75	127
294.93909297052153	295.06680272108844	74	127
295.0784126984127	295.2061224489796	73	127
295.2061224489796	295.357052154195	74	127
295.357052154195	295.531179138322	51	127
295.357052154195	295.5195918367347	79	127
295.357052154195	295.531179138322	39	127
295.357052154195	295.97238095238095	84	127
295.357052154195	295.97238095238095	72	127
295.531179138322	295.64730158730157	55	127
295.531179138322	295.64730158730157	77	127
295.65891156462584	295.9027210884354	60	127
295.65891156462584	295.9027210884354	51	127
295.65891156462584	295.9027210884354	39	127
295.65891156462584	295.9027210884354	75	127
295.9027210884354	296.0536507936508	63	127
295.9027210884354	296.0536507936508	72	127
296.0536507936508	296.50643990929706	41	127
296.0536507936508	296.1813605442177	72	127
296.0536507936508	296.19297052154195	80	127
296.0536507936508	296.50643990929706	53	127
296.0536507936508	296.3090702947846	68	127
296.19297052154195	296.3090702947846	60	127
296.19297052154195	296.3090702947846	70	127
296.32068027210886	296.5877097505669	68	127
296.32068027210886	296.46	65	127
296.32068027210886	296.46	68	127
296.32068027210886	296.46	80	127
296.46	296.5877097505669	65	127
296.46	296.5877097505669	68	127
296.5877097505669	297.00566893424036	82	127
296.5877097505669	296.7038095238095	77	127
296.5877097505669	296.7154195011338	50	127
296.5877097505669	296.7154195011338	38	127
296.5877097505669	297.00566893424036	70	127
296.7154195011338	296.8431292517007	75	127
296.7154195011338	296.8431292517007	53	127
296.854716553288	296.97083900226755	38	127
296.854716553288	296.97083900226755	58	127
296.854716553288	296.97083900226755	50	127
296.854716553288	296.97083900226755	74	127
296.97083900226755	297.0753287981859	70	127
296.97083900226755	297.0753287981859	62	127
297.0753287981859	297.2610884353742	79	127
297.0753287981859	297.5397278911565	39	127
297.0753287981859	297.20303854875283	70	127
297.0753287981859	297.33074829931974	67	127
297.0753287981859	297.5397278911565	51	127
297.20303854875283	297.33074829931974	58	127
297.20303854875283	297.33074829931974	68	127
297.342358276644	297.6209977324263	67	127
297.342358276644	297.4932879818594	63	127
297.342358276644	297.4932879818594	67	127
297.342358276644	297.50489795918367	79	127
297.50489795918367	297.6209977324263	67	127
297.50489795918367	297.6209977324263	63	127
297.6209977324263	297.8067573696145	48	127
297.6209977324263	297.8067573696145	80	127
297.6209977324263	297.8067573696145	75	127
297.6209977324263	297.8067573696145	68	127
297.6209977324263	297.8067573696145	36	127
297.8067573696145	297.8996371882086	56	127
297.8067573696145	297.9692970521542	72	127
297.9808843537415	298.1202267573696	68	127
297.9808843537415	298.1202267573696	77	127
297.9808843537415	298.1202267573696	65	127
297.9808843537415	298.1202267573696	50	127
297.9808843537415	298.1202267573696	38	127
298.1202267573696	298.2595464852608	65	127
298.1202267573696	298.17827664399096	62	127
298.2595464852608	298.3872562358277	47	127
298.2595464852608	298.3872562358277	79	127
298.2595464852608	298.3872562358277	74	127
298.2595464852608	298.3872562358277	67	127
298.3872562358277	298.45691609977325	55	127
298.3872562358277	298.51496598639454	71	127
298.5265759637188	298.66589569161	48	127
298.5265759637188	298.66589569161	75	127
298.5265759637188	298.66589569161	63	127
298.5265759637188	298.66589569161	67	127
298.66589569161	298.7587755102041	60	127
298.66589569161	298.8516553287982	63	127
298.8516553287982	298.99097505668936	38	127
298.8516553287982	298.99097505668936	82	127
298.8516553287982	298.99097505668936	77	127
298.8516553287982	298.99097505668936	70	127
298.8516553287982	298.99097505668936	50	127
298.99097505668936	299.1302947845805	74	127
298.99097505668936	299.0722448979592	58	127
299.1302947845805	299.2580045351474	70	127
299.1302947845805	299.2580045351474	79	127
299.1302947845805	299.2580045351474	67	127
299.1302947845805	299.2580045351474	51	127
299.1302947845805	299.2580045351474	39	127
299.2580045351474	299.37410430839003	67	127
299.2580045351474	299.31603174603174	63	127
299.37410430839003	299.5134013605442	48	127
299.37410430839003	299.5134013605442	80	127
299.37410430839003	299.5134013605442	75	127
299.37410430839003	299.5134013605442	68	127
299.37410430839003	299.5134013605442	36	127
299.5134013605442	299.58308390022677	56	127
299.5134013605442	299.6527437641723	72	127
299.6527437641723	299.8036734693878	50	127
299.6527437641723	299.8036734693878	77	127
299.6527437641723	299.8036734693878	65	127
299.6527437641723	299.8036734693878	68	127
299.6527437641723	299.8036734693878	38	127
299.8036734693878	299.87333333333333	62	127
299.8036734693878	299.9313605442177	65	127
299.95460317460316	300.1055328798186	51	127
299.95460317460316	300.1055328798186	84	127
299.95460317460316	300.1055328798186	79	127
299.95460317460316	300.1055328798186	72	127
299.95460317460316	300.1055328798186	39	127
300.1055328798186	300.24485260770973	75	127
300.1055328798186	300.18680272108844	60	127
300.24485260770973	300.3841723356009	72	127
300.24485260770973	300.3841723356009	80	127
300.24485260770973	300.3841723356009	68	127
300.24485260770973	300.3841723356009	53	127
300.24485260770973	300.3841723356009	41	127
300.3841723356009	300.50027210884355	68	127
300.3841723356009	300.44219954648526	68	127
300.5118820861678	300.62798185941045	53	127
300.5118820861678	300.62798185941045	80	127
300.5118820861678	300.62798185941045	86	127
300.5118820861678	300.62798185941045	74	127
300.5118820861678	300.62798185941045	41	127
300.62798185941045	300.697641723356	62	127
300.62798185941045	300.7556916099773	77	127
300.7556916099773	300.90662131519275	55	127
300.7556916099773	300.90662131519275	82	127
300.7556916099773	300.90662131519275	70	127
300.7556916099773	300.90662131519275	74	127
300.7556916099773	300.90662131519275	43	127
300.90662131519275	300.96467120181404	70	127
300.90662131519275	301.0227210884354	70	127
301.03433106575966	301.1968707482993	55	127
301.03433106575966	301.1968707482993	87	127
301.03433106575966	301.1968707482993	82	127
301.03433106575966	301.1968707482993	75	127
301.03433106575966	301.1968707482993	43	127
301.1968707482993	301.3245804988662	79	127
301.1968707482993	301.2665306122449	63	127
301.3245804988662	301.45229024943313	44	127
301.3245804988662	301.45229024943313	84	127
301.3245804988662	301.45229024943313	72	127
301.3245804988662	301.45229024943313	75	127
301.3245804988662	301.45229024943313	56	127
301.45229024943313	301.5103401360544	72	127
301.45229024943313	301.56836734693877	72	127
301.58	301.7077097505669	84	127
301.58	301.7077097505669	77	127
301.58	301.7077097505669	56	127
301.58	301.7077097505669	89	127
301.58	301.7077097505669	44	127
301.7077097505669	301.77736961451245	65	127
301.7077097505669	301.85863945578234	80	127
301.85863945578234	302.04439909297054	74	127
301.85863945578234	302.04439909297054	86	127
301.85863945578234	302.04439909297054	77	127
301.85863945578234	302.04439909297054	58	127
301.85863945578234	302.04439909297054	46	127
302.04439909297054	302.17208616780044	74	127
302.04439909297054	302.1024489795918	74	127
302.1836961451247	302.31142857142856	67	127
302.1836961451247	302.50879818594103	91	127
302.1836961451247	302.31142857142856	74	127
302.1836961451247	302.31142857142856	47	127
302.1836961451247	302.31142857142856	59	127
302.1836961451247	302.31142857142856	86	127
302.31142857142856	302.50879818594103	79	127
302.31142857142856	302.45074829931974	67	127
302.50879818594103	302.7526077097506	87	127
302.50879818594103	302.63650793650794	67	127
302.50879818594103	302.63650793650794	75	127
302.50879818594103	302.63650793650794	79	127
302.50879818594103	302.63650793650794	60	127
302.50879818594103	302.63650793650794	48	127
302.63650793650794	302.7061678004535	72	127
302.63650793650794	302.7526077097506	75	127
302.76421768707485	303.00802721088434	91	127
302.76421768707485	302.89190476190475	86	127
302.76421768707485	302.89190476190475	67	127
302.76421768707485	302.89190476190475	74	127
302.76421768707485	302.89190476190475	59	127
302.76421768707485	302.89190476190475	47	127
302.89190476190475	302.94997732426305	67	127
302.89190476190475	303.00802721088434	79	127
303.00802721088434	303.344716553288	87	127
303.00802721088434	303.1937641723356	67	127
303.00802721088434	303.1937641723356	75	127
303.00802721088434	303.1937641723356	79	127
303.00802721088434	303.1937641723356	60	127
303.00802721088434	303.1937641723356	48	127
303.1937641723356	303.2866666666667	72	127
303.1937641723356	303.344716553288	75	127
303.344716553288	303.5304761904762	59	127
303.344716553288	303.5304761904762	86	127
303.344716553288	303.5304761904762	68	127
303.344716553288	303.5304761904762	74	127
303.344716553288	303.5304761904762	47	127
303.344716553288	303.6814058956916	92	127
303.5304761904762	303.6814058956916	80	127
303.5304761904762	303.6233560090703	68	127
303.6814058956916	303.80909297052153	75	127
303.6814058956916	303.80909297052153	80	127
303.6814058956916	303.80909297052153	60	127
303.6814058956916	303.80909297052153	48	127
303.6814058956916	303.9600453514739	87	127
303.6814058956916	303.80909297052153	68	127
303.80909297052153	303.90199546485263	80	127
303.80909297052153	303.9600453514739	75	127
303.9600453514739	304.26190476190476	92	127
303.9600453514739	304.08775510204083	86	127
303.9600453514739	304.08775510204083	68	127
303.9600453514739	304.08775510204083	74	127
303.9600453514739	304.08775510204083	59	127
303.9600453514739	304.08775510204083	47	127
304.08775510204083	304.20385487528347	68	127
304.08775510204083	304.26190476190476	80	127
304.2851247165533	304.4128344671202	68	127
304.2851247165533	304.4128344671202	75	127
304.2851247165533	304.4128344671202	80	127
304.2851247165533	304.4128344671202	60	127
304.2851247165533	304.4128344671202	48	127
304.2851247165533	304.5521541950113	87	127
304.4128344671202	304.5521541950113	75	127
304.4128344671202	304.49410430839004	80	127
304.5521541950113	304.67986394557823	68	127
304.5521541950113	304.67986394557823	75	127
304.5521541950113	304.67986394557823	60	127
304.5521541950113	304.67986394557823	48	127
304.5521541950113	304.8772335600907	92	127
304.5521541950113	304.67986394557823	87	127
304.67986394557823	304.8191836734694	68	127
304.67986394557823	304.8772335600907	80	127
304.88884353741497	305.0049433106576	80	127
304.88884353741497	305.0049433106576	68	127
304.88884353741497	305.0049433106576	76	127
304.88884353741497	305.0049433106576	61	127
304.88884353741497	305.0049433106576	49	127
304.88884353741497	305.1326530612245	88	127
305.0049433106576	305.07460317460317	80	127
305.0049433106576	305.1326530612245	76	127
305.1326530612245	305.2835827664399	68	127
305.1326530612245	305.43451247165535	92	127
305.1326530612245	305.2835827664399	75	127
305.1326530612245	305.2835827664399	48	127
305.1326530612245	305.2835827664399	87	127
305.1326530612245	305.2835827664399	60	127
305.2835827664399	305.43451247165535	80	127
305.2835827664399	305.376462585034	68	127
305.4460997732426	305.5622222222222	61	127
305.4460997732426	305.5622222222222	68	127
305.4460997732426	305.5622222222222	76	127
305.4460997732426	305.5622222222222	80	127
305.4460997732426	305.5622222222222	49	127
305.4460997732426	305.6899319727891	88	127
305.5622222222222	305.6899319727891	76	127
305.5622222222222	305.6318820861678	80	127
305.6899319727891	305.8524489795918	68	127
305.6899319727891	305.8524489795918	76	127
305.6899319727891	305.8524489795918	61	127
305.6899319727891	305.8524489795918	49	127
305.6899319727891	305.9685714285714	92	127
305.6899319727891	305.8524489795918	88	127
305.8524489795918	305.9105215419501	68	127
305.8524489795918	305.9685714285714	80	127
305.9801814058957	306.2704081632653	89	127
305.9801814058957	306.15433106575966	68	127
305.9801814058957	306.15433106575966	77	127
305.9801814058957	306.15433106575966	80	127
305.9801814058957	306.15433106575966	62	127
305.9801814058957	306.15433106575966	50	127
306.15433106575966	306.21238095238095	80	127
306.15433106575966	306.2704081632653	77	127
306.2704081632653	306.4097505668934	49	127
306.2704081632653	306.4097505668934	88	127
306.2704081632653	306.4097505668934	68	127
306.2704081632653	306.4097505668934	76	127
306.2704081632653	306.4097505668934	61	127
306.2704081632653	306.52585034013606	92	127
306.4097505668934	306.46777777777777	68	127
306.4097505668934	306.52585034013606	80	127
306.53746031746033	306.7928798185941	89	127
306.53746031746033	306.6767573696145	62	127
306.53746031746033	306.6767573696145	50	127
306.53746031746033	306.6767573696145	68	127
306.53746031746033	306.6767573696145	77	127
306.53746031746033	306.6767573696145	80	127
306.6767573696145	306.7928798185941	77	127
306.6767573696145	306.7928798185941	89	127
306.7928798185941	306.920589569161	50	127
306.7928798185941	306.920589569161	80	127
306.7928798185941	306.920589569161	62	127
306.7928798185941	306.920589569161	83	127
306.7928798185941	306.920589569161	77	127
306.7928798185941	306.920589569161	92	127
306.920589569161	307.03668934240363	77	127
306.920589569161	307.03668934240363	83	127
307.0482993197279	307.1760090702948	79	127
307.0482993197279	307.1760090702948	51	127
307.0482993197279	307.16439909297054	82	127
307.0482993197279	307.16439909297054	75	127
307.0482993197279	307.1760090702948	91	127
307.0482993197279	307.1760090702948	63	127
307.1760090702948	307.30371882086166	82	127
307.1760090702948	307.30371882086166	75	127
307.30371882086166	307.43142857142857	71	127
307.30371882086166	307.43142857142857	80	127
307.30371882086166	307.43142857142857	89	127
307.30371882086166	307.43142857142857	77	127
307.30371882086166	307.43142857142857	62	127
307.30371882086166	307.43142857142857	50	127
307.43142857142857	307.5939455782313	80	127
307.43142857142857	307.5939455782313	71	127
307.5939455782313	307.72167800453514	51	127
307.5939455782313	307.72167800453514	75	127
307.5939455782313	307.72167800453514	63	127
307.5939455782313	307.71006802721087	79	127
307.5939455782313	307.71006802721087	70	127
307.5939455782313	307.72167800453514	87	127
307.72167800453514	307.84938775510204	70	127
307.72167800453514	307.84938775510204	79	127
307.84938775510204	307.97709750566895	71	127
307.84938775510204	307.97709750566895	50	127
307.84938775510204	307.97709750566895	80	127
307.84938775510204	307.97709750566895	65	127
307.84938775510204	307.97709750566895	83	127
307.97709750566895	308.12802721088434	65	127
307.97709750566895	308.12802721088434	80	127
308.12802721088434	308.25573696145125	79	127
308.12802721088434	308.25573696145125	67	127
308.12802721088434	308.2673469387755	82	127
308.12802721088434	308.2673469387755	70	127
308.12802721088434	308.2673469387755	51	127
308.2673469387755	308.38344671201816	79	127
308.2673469387755	308.38344671201816	67	127
308.3950566893424	308.51113378684806	68	127
308.3950566893424	308.51113378684806	50	127
308.3950566893424	308.51113378684806	71	127
308.3950566893424	308.51113378684806	65	127
308.3950566893424	308.51113378684806	80	127
308.51113378684806	308.6388662131519	65	127
308.51113378684806	308.6388662131519	71	127
308.6388662131519	308.7665759637188	67	127
308.6388662131519	308.7665759637188	51	127
308.6388662131519	308.75496598639455	70	127
308.6388662131519	308.75496598639455	67	127
308.6388662131519	308.7665759637188	79	127
308.7665759637188	308.89428571428573	67	127
308.7665759637188	308.89428571428573	70	127
308.90589569161	309.0452154195011	77	127
308.90589569161	309.0335827664399	59	127
308.90589569161	309.0452154195011	62	127
308.90589569161	309.0335827664399	68	127
308.90589569161	309.0452154195011	50	127
308.90589569161	309.39351473922903	39	127
309.0452154195011	309.172925170068	59	127
309.0452154195011	309.172925170068	68	127
309.1845351473923	309.34707482993196	58	127
309.1845351473923	309.34707482993196	67	127
309.1845351473923	309.34707482993196	75	127
309.1845351473923	309.34707482993196	63	127
309.1845351473923	309.34707482993196	51	127
309.34707482993196	309.47478458049886	67	127
309.34707482993196	309.47478458049886	58	127
309.47478458049886	309.60249433106577	62	127
309.47478458049886	309.60249433106577	50	127
309.75342403628116	309.9159637188209	63	127
309.75342403628116	309.9159637188209	51	127
310.05526077097505	310.496462585034	39	127
310.05526077097505	310.1829931972789	68	127
310.05526077097505	310.1829931972789	59	127
310.05526077097505	310.1829931972789	77	127
310.05526077097505	310.1829931972789	62	127
310.05526077097505	310.1829931972789	50	127
310.1829931972789	310.3223129251701	59	127
310.1829931972789	310.3223129251701	68	127
310.3223129251701	310.450022675737	63	127
310.3223129251701	310.4384126984127	58	127
310.3223129251701	310.450022675737	75	127
310.3223129251701	310.4384126984127	67	127
310.3223129251701	310.450022675737	51	127
310.450022675737	310.57773242630384	58	127
310.450022675737	310.57773242630384	67	127
310.5893424036281	310.7286621315193	62	127
310.5893424036281	310.7286621315193	50	127
310.8795918367347	311.01891156462585	63	127
310.8795918367347	311.01891156462585	51	127
311.20467120181405	311.33238095238096	62	127
311.20467120181405	311.33238095238096	50	127
311.47170068027214	311.6226303854875	63	127
311.47170068027214	311.6226303854875	51	127
311.7619501133787	311.9012698412698	50	127
311.7619501133787	311.9012698412698	62	127
312.0057596371882	312.14507936507937	63	127
312.0057596371882	312.14507936507937	51	127
312.28439909297055	312.4121088435374	50	127
312.28439909297055	312.4121088435374	62	127
312.5746485260771	312.7604081632653	63	127
312.5746485260771	312.7604081632653	51	127
312.91131519274376	313.0506575963719	50	127
312.91131519274376	313.0506575963719	62	127
313.22478458049886	313.364126984127	63	127
313.22478458049886	313.364126984127	51	127
313.5382766439909	313.68920634920636	50	127
313.5382766439909	313.96784580498866	68	127
313.5382766439909	313.68920634920636	62	127
313.5382766439909	313.96784580498866	72	127
313.81691609977327	313.96784580498866	51	127
313.81691609977327	313.96784580498866	63	127
314.09555555555556	314.37419501133786	68	127
314.09555555555556	314.23485260770974	62	127
314.09555555555556	314.23485260770974	50	127
314.09555555555556	314.37419501133786	72	127
314.37419501133786	314.5251247165533	63	127
314.37419501133786	314.5251247165533	51	127
314.6644444444444	314.8385941043084	64	127
314.6644444444444	314.8385941043084	52	127
314.6644444444444	315.63968253968255	73	127
314.6644444444444	315.63968253968255	68	127
314.97791383219953	315.1172335600907	65	127
314.97791383219953	315.1172335600907	53	127
315.38426303854874	315.51197278911565	62	127
315.38426303854874	315.51197278911565	50	127
315.63968253968255	315.79061224489794	63	127
315.63968253968255	315.9067120181406	72	127
315.63968253968255	315.79061224489794	68	127
315.63968253968255	315.79061224489794	51	127
315.91832199546485	316.10408163265305	70	127
315.91832199546485	316.19696145124715	65	127
315.91832199546485	316.04603174603176	61	127
315.91832199546485	316.04603174603176	49	127
316.10408163265305	316.27823129251703	72	127
316.19696145124715	316.32467120181406	48	127
316.19696145124715	316.46399092970523	63	127
316.19696145124715	316.32467120181406	60	127
316.27823129251703	316.46399092970523	68	127
316.46399092970523	316.64975056689343	67	127
316.46399092970523	316.6149206349206	58	127
316.46399092970523	316.6149206349206	46	127
316.46399092970523	316.74263038548753	61	127
316.64975056689343	316.83551020408163	68	127
316.74263038548753	317.0328798185941	65	127
316.74263038548753	316.87034013605444	61	127
316.74263038548753	316.87034013605444	49	127
316.83551020408163	317.0328798185941	70	127
317.05609977324264	317.2650793650794	72	127
317.05609977324264	317.3463492063492	67	127
317.05609977324264	317.2186394557823	63	127
317.05609977324264	317.2186394557823	51	127
317.2650793650794	317.4392290249433	73	127
317.3463492063492	317.4856689342404	49	127
317.3463492063492	317.6714285714286	65	127
317.3463492063492	317.4856689342404	61	127
317.4392290249433	317.6714285714286	70	127
317.6714285714286	317.8571882086168	67	127
317.6714285714286	317.9732879818594	63	127
317.6714285714286	317.7991383219955	60	127
317.6714285714286	317.7991383219955	48	127
317.8571882086168	318.05455782312924	68	127
317.9732879818594	318.22868480725623	61	127
317.9732879818594	318.1009977324263	63	127
317.9732879818594	318.1009977324263	51	127
318.05455782312924	318.22868480725623	70	127
318.22868480725623	318.40285714285716	55	127
318.22868480725623	318.6698866213152	75	127
318.22868480725623	318.40285714285716	67	127
318.22868480725623	318.6698866213152	60	127
318.53054421768707	318.6698866213152	56	127
318.53054421768707	318.6698866213152	68	127
318.82081632653063	319.00657596371883	67	127
318.82081632653063	319.00657596371883	55	127
318.82081632653063	319.18072562358276	75	127
318.82081632653063	319.18072562358276	60	127
319.18072562358276	319.30843537414967	68	127
319.18072562358276	319.30843537414967	56	127
319.44775510204084	320.2720408163265	77	127
319.44775510204084	320.2720408163265	61	127
319.44775510204084	319.6102947845805	67	127
319.44775510204084	319.6102947845805	55	127
319.7496145124717	319.87732426303853	68	127
319.7496145124717	319.87732426303853	56	127
320.0166439909297	320.1443537414966	67	127
320.0166439909297	320.1443537414966	55	127
320.2720408163265	320.4346031746032	60	127
320.2720408163265	320.4346031746032	56	127
320.2720408163265	320.4346031746032	75	127
320.2720408163265	320.4346031746032	68	127
320.57390022675736	320.85256235827666	73	127
320.57390022675736	320.9338321995465	68	127
320.57390022675736	320.8061224489796	65	127
320.57390022675736	320.8061224489796	53	127
320.85256235827666	321.0151020408163	75	127
320.9338321995465	321.0615419501134	51	127
320.9338321995465	321.0615419501134	63	127
320.9338321995465	321.2008616780045	67	127
321.0151020408163	321.2008616780045	72	127
321.2008616780045	321.49111111111114	65	127
321.2008616780045	321.3285714285714	61	127
321.2008616780045	321.3285714285714	49	127
321.2008616780045	321.40984126984125	70	127
321.40984126984125	321.57238095238097	72	127
321.49111111111114	321.63043083900226	53	127
321.49111111111114	321.7813605442177	68	127
321.49111111111114	321.63043083900226	65	127
321.57238095238097	321.7813605442177	73	127
321.792970521542	322.0251700680272	75	127
321.792970521542	322.1064399092971	70	127
321.792970521542	321.9787301587302	67	127
321.792970521542	321.9787301587302	55	127
322.0251700680272	322.1877097505669	77	127
322.1064399092971	322.23414965986393	53	127
322.1064399092971	322.36185941043084	68	127
322.1064399092971	322.23414965986393	65	127
322.1877097505669	322.36185941043084	73	127
322.36185941043084	322.52437641723355	51	127
322.36185941043084	322.64049886621314	67	127
322.36185941043084	322.52437641723355	63	127
322.36185941043084	322.5592290249433	70	127
322.5592290249433	322.721746031746	72	127
322.64049886621314	322.76820861678004	65	127
322.64049886621314	322.8843083900227	68	127
322.64049886621314	322.76820861678004	53	127
322.721746031746	322.8843083900227	73	127
322.89591836734695	323.08167800453515	67	127
322.89591836734695	323.08167800453515	55	127
322.89591836734695	323.3487074829932	77	127
322.89591836734695	323.3487074829932	73	127
323.20938775510206	323.3487074829932	68	127
323.20938775510206	323.3487074829932	56	127
323.48802721088435	323.7782766439909	73	127
323.48802721088435	323.6621768707483	55	127
323.48802721088435	323.7782766439909	77	127
323.48802721088435	323.6621768707483	67	127
323.7782766439909	323.9175963718821	56	127
323.7782766439909	323.9175963718821	68	127
324.16138321995464	324.56773242630385	65	127
324.16138321995464	324.2891156462585	55	127
324.16138321995464	324.56773242630385	61	127
324.16138321995464	324.56773242630385	44	127
324.2891156462585	324.44004535147394	56	127
324.44004535147394	324.56773242630385	61	127
324.44004535147394	324.56773242630385	56	127
324.56773242630385	324.7767120181406	65	127
324.7767120181406	325.1018140589569	44	127
324.7767120181406	324.9508843537415	70	127
324.7767120181406	324.9508843537415	55	127
324.7767120181406	325.1018140589569	61	127
324.7767120181406	325.1018140589569	65	127
324.9508843537415	325.1018140589569	68	127
325.1018140589569	325.21791383219954	56	127
325.1018140589569	325.21791383219954	67	127
325.21791383219954	325.34562358276645	68	127
325.34562358276645	325.79839002267573	63	127
325.34562358276645	325.79839002267573	72	127
325.34562358276645	325.5546031746032	55	127
325.34562358276645	325.79839002267573	75	127
325.34562358276645	325.79839002267573	78	127
325.6823129251701	325.79839002267573	56	127
325.9261224489796	326.2628117913832	78	127
325.9261224489796	326.2628117913832	63	127
325.9261224489796	326.1351020408163	55	127
325.9261224489796	326.2628117913832	75	127
325.9261224489796	326.2628117913832	72	127
326.2628117913832	326.37891156462587	56	127
326.5065986394558	326.6343310657596	55	127
326.5065986394558	326.92455782312925	44	127
326.5065986394558	326.92455782312925	63	127
326.5065986394558	326.92455782312925	66	127
326.6343310657596	326.79687074829934	56	127
326.79687074829934	326.92455782312925	60	127
326.79687074829934	326.92455782312925	56	127
326.92455782312925	327.13356009070293	63	127
327.13356009070293	327.48185941043084	66	127
327.13356009070293	327.48185941043084	44	127
327.13356009070293	327.35414965986394	55	127
327.13356009070293	327.48185941043084	63	127
327.13356009070293	327.35414965986394	70	127
327.35414965986394	327.48185941043084	68	127
327.48185941043084	327.60956916099775	67	127
327.48185941043084	327.60956916099775	56	127
327.60956916099775	327.7256689342404	68	127
327.7256689342404	328.1900680272109	80	127
327.7256689342404	327.9346258503401	55	127
327.7256689342404	328.062358276644	68	127
327.7256689342404	328.1900680272109	77	127
328.062358276644	328.1900680272109	56	127
328.3061678004535	328.57319727891155	80	127
328.3061678004535	328.57319727891155	68	127
328.3061678004535	328.4454875283447	55	127
328.3061678004535	328.57319727891155	77	127
328.57319727891155	328.70090702947846	56	127
328.944716553288	329.3626757369615	65	127
328.944716553288	329.3626757369615	68	127
328.944716553288	329.0956462585034	48	127
328.944716553288	329.3626757369615	37	127
329.0956462585034	329.2233560090703	56	127
329.2233560090703	329.3626757369615	49	127
329.2233560090703	329.3626757369615	61	127
329.3626757369615	329.51360544217687	65	127
329.51360544217687	329.7225850340136	48	127
329.51360544217687	329.8502947845805	65	127
329.51360544217687	329.7225850340136	69	127
329.51360544217687	329.8502947845805	68	127
329.51360544217687	329.8502947845805	37	127
329.7225850340136	329.8502947845805	68	127
329.8502947845805	329.9780045351474	49	127
329.8502947845805	329.9780045351474	67	127
329.9780045351474	330.09408163265306	68	127
330.11732426303854	330.535283446712	81	127
330.11732426303854	330.535283446712	78	127
330.11732426303854	330.24503401360545	48	127
330.11732426303854	330.3959410430839	69	127
330.11732426303854	330.3959410430839	73	127
330.3959410430839	330.535283446712	49	127
330.6629931972789	330.93002267573695	69	127
330.6629931972789	330.77909297052156	48	127
330.6629931972789	330.93002267573695	78	127
330.6629931972789	330.93002267573695	81	127
330.6629931972789	330.93002267573695	73	127
330.93002267573695	331.0693424036281	49	127
331.19705215419503	331.638231292517	49	127
331.19705215419503	331.638231292517	66	127
331.19705215419503	331.3247619047619	48	127
331.19705215419503	331.638231292517	69	127
331.3247619047619	331.4524716553288	57	127
331.4524716553288	331.638231292517	61	127
331.4524716553288	331.638231292517	49	127
331.638231292517	331.77755102040817	66	127
331.77755102040817	332.00975056689344	71	127
331.77755102040817	332.13743764172335	66	127
331.77755102040817	332.00975056689344	48	127
331.77755102040817	332.13743764172335	69	127
331.77755102040817	332.13743764172335	49	127
332.00975056689344	332.13743764172335	69	127
332.13743764172335	332.2651700680272	68	127
332.13743764172335	332.2651700680272	49	127
332.2651700680272	332.3928798185941	69	127
332.4044897959184	332.6831292517007	57	127
332.4044897959184	332.6831292517007	69	127
332.4044897959184	332.8688888888889	69	127
332.4044897959184	332.8688888888889	73	127
332.4044897959184	332.54378684807256	48	127
332.4044897959184	332.8688888888889	85	127
332.6831292517007	332.82244897959185	49	127
332.95013605442176	333.4261678004535	85	127
332.95013605442176	333.4261678004535	73	127
332.95013605442176	333.4261678004535	69	127
332.95013605442176	333.1126984126984	48	127
332.95013605442176	333.2519954648526	57	127
332.95013605442176	333.2519954648526	69	127
333.2519954648526	333.37972789115645	49	127
333.50743764172336	333.91378684807256	57	127
333.50743764172336	333.91378684807256	42	127
333.50743764172336	333.63514739229026	48	127
333.50743764172336	333.91378684807256	69	127
333.63514739229026	333.7628344671202	57	127
333.7628344671202	333.86732426303854	49	127
333.7628344671202	333.86732426303854	61	127
333.86732426303854	333.9950566893424	66	127
333.9950566893424	334.1227664399093	48	127
333.9950566893424	334.41301587301587	42	127
333.9950566893424	334.1227664399093	71	127
333.9950566893424	334.41301587301587	57	127
333.9950566893424	334.41301587301587	69	127
334.1227664399093	334.2504761904762	69	127
334.2504761904762	334.36657596371884	68	127
334.2504761904762	334.36657596371884	49	127
334.36657596371884	334.5291156462585	69	127
334.5291156462585	335.05156462585035	57	127
334.5291156462585	335.05156462585035	74	127
334.5291156462585	334.70326530612243	53	127
334.5291156462585	335.05156462585035	69	127
334.5291156462585	335.05156462585035	86	127
334.8774149659864	334.99349206349206	54	127
335.1328344671202	335.608820861678	69	127
335.1328344671202	335.608820861678	57	127
335.1328344671202	335.608820861678	74	127
335.1328344671202	335.27215419501135	53	127
335.1328344671202	335.608820861678	86	127
335.42308390022674	335.5740136054422	54	127
335.6901133786848	336.3402721088435	54	127
335.6901133786848	336.3402721088435	69	127
335.6901133786848	336.3402721088435	57	127
335.6901133786848	336.0151700680272	53	127
336.0151700680272	336.1545124716553	57	127
336.1545124716553	336.2938321995465	62	127
336.1545124716553	336.2938321995465	54	127
336.2938321995465	336.64213151927436	66	127
336.64213151927436	336.94396825396825	71	127
336.64213151927436	337.2574603174603	54	127
336.64213151927436	336.94396825396825	53	127
336.64213151927436	337.2574603174603	57	127
336.64213151927436	337.2574603174603	69	127
336.94396825396825	337.09492063492064	69	127
337.09492063492064	337.22263038548755	68	127
337.09492063492064	337.22263038548755	54	127
337.22263038548755	337.37356009070294	69	127
337.37356009070294	337.94244897959186	66	127
337.37356009070294	337.94244897959186	75	127
337.37356009070294	337.6173696145125	53	127
337.37356009070294	337.94244897959186	75	127
337.37356009070294	337.94244897959186	69	127
337.37356009070294	337.94244897959186	87	127
337.7450793650794	337.87278911564624	54	127
338.0237188208617	338.45328798185943	75	127
338.0237188208617	338.45328798185943	69	127
338.0237188208617	338.1514285714286	53	127
338.0237188208617	338.45328798185943	87	127
338.0237188208617	338.45328798185943	66	127
338.0237188208617	338.45328798185943	75	127
338.2907482993197	338.4184580498866	54	127
338.54616780045353	339.010566893424	69	127
338.54616780045353	338.66226757369617	53	127
338.54616780045353	339.010566893424	57	127
338.54616780045353	339.010566893424	47	127
338.66226757369617	338.8015873015873	66	127
338.8015873015873	338.9757369614513	54	127
338.8015873015873	338.9757369614513	69	127
338.9757369614513	339.2079365079365	75	127
339.2079365079365	339.7071655328798	47	127
339.2079365079365	339.7071655328798	57	127
339.2079365079365	339.7071655328798	69	127
339.2079365079365	339.40530612244896	76	127
339.2079365079365	339.40530612244896	53	127
339.40530612244896	339.53301587301587	75	127
339.53301587301587	339.67233560090705	74	127
339.53301587301587	339.67233560090705	54	127
339.67233560090705	339.7884353741497	75	127
339.80002267573695	339.9277551020408	54	127
339.80002267573695	340.3108616780045	67	127
339.80002267573695	340.3108616780045	79	127
339.80002267573695	340.3108616780045	88	127
339.80002267573695	340.3108616780045	67	127
339.80002267573695	340.3108616780045	76	127
339.80002267573695	340.3108616780045	71	127
339.80002267573695	340.3108616780045	59	127
340.0554648526077	340.22961451247164	55	127
340.39215419501136	340.85655328798185	59	127
340.39215419501136	340.85655328798185	79	127
340.39215419501136	340.51984126984127	54	127
340.39215419501136	340.85655328798185	67	127
340.39215419501136	340.85655328798185	71	127
340.39215419501136	340.85655328798185	88	127
340.39215419501136	340.85655328798185	67	127
340.39215419501136	340.85655328798185	76	127
340.63596371882085	340.775283446712	55	127
340.94943310657595	341.3790022675737	47	127
340.94943310657595	341.3790022675737	64	127
340.94943310657595	341.3790022675737	55	127
340.94943310657595	341.3790022675737	67	127
340.94943310657595	341.07714285714286	54	127
341.07714285714286	341.1932426303855	67	127
341.1932426303855	341.3325396825397	71	127
341.1932426303855	341.3325396825397	55	127
341.3325396825397	341.49510204081633	76	127
341.49510204081633	341.6460090702948	78	127
341.49510204081633	342.052358276644	64	127
341.49510204081633	342.052358276644	67	127
341.49510204081633	341.6460090702948	66	127
341.49510204081633	342.052358276644	55	127
341.49510204081633	342.052358276644	47	127
341.6460090702948	341.80857142857144	76	127
341.80857142857144	341.98272108843537	67	127
341.80857142857144	341.98272108843537	75	127
341.98272108843537	342.1452607709751	76	127
342.15684807256235	342.74897959183676	89	127
342.15684807256235	342.74897959183676	77	127
342.15684807256235	342.74897959183676	62	127
342.15684807256235	342.74897959183676	62	127
342.15684807256235	342.74897959183676	74	127
342.15684807256235	342.74897959183676	68	127
342.2845804988662	342.4471201814059	65	127
342.4471201814059	342.7025396825397	68	127
342.7025396825397	342.8302494331066	74	127
342.8302494331066	343.35269841269843	47	127
342.8302494331066	343.35269841269843	53	127
342.8302494331066	343.35269841269843	56	127
342.8302494331066	343.0392290249433	79	127
342.8302494331066	343.35269841269843	62	127
343.0392290249433	343.1785260770975	53	127
343.0392290249433	343.1785260770975	77	127
343.1785260770975	343.30625850340135	76	127
343.1785260770975	343.30625850340135	56	127
343.30625850340135	343.422358276644	77	127
343.30625850340135	343.422358276644	62	127
343.422358276644	343.863537414966	89	127
343.422358276644	343.863537414966	77	127
343.422358276644	343.57328798185944	67	127
343.422358276644	343.863537414966	74	127
343.422358276644	343.863537414966	68	127
343.422358276644	343.863537414966	62	127
343.57328798185944	343.7009977324263	65	127
343.57328798185944	343.7009977324263	65	127
343.7009977324263	343.8170975056689	68	127
343.7009977324263	343.8170975056689	64	127
343.8170975056689	343.94480725623583	65	127
343.8170975056689	343.94480725623583	74	127
343.94480725623583	344.44403628117914	47	127
343.94480725623583	344.44403628117914	56	127
343.94480725623583	344.0957142857143	79	127
343.94480725623583	344.44403628117914	62	127
343.94480725623583	344.44403628117914	53	127
344.0957142857143	344.2350566893424	77	127
344.0957142857143	344.2350566893424	53	127
344.2350566893424	344.3975736961451	56	127
344.2350566893424	344.3975736961451	76	127
344.3975736961451	344.53691609977324	62	127
344.3975736961451	344.53691609977324	77	127
344.53691609977324	344.6762358276644	67	127
344.53691609977324	344.79233560090705	77	127
344.53691609977324	344.6762358276644	62	127
344.53691609977324	344.79233560090705	74	127
344.53691609977324	344.79233560090705	89	127
344.53691609977324	344.79233560090705	68	127
344.6762358276644	344.8155328798186	65	127
344.6762358276644	344.8155328798186	65	127
344.8155328798186	345.19868480725626	62	127
344.8155328798186	344.9548752834467	53	127
344.8155328798186	345.19868480725626	47	127
344.8155328798186	345.19868480725626	56	127
344.8155328798186	344.9548752834467	68	127
344.8155328798186	344.9548752834467	64	127
344.9548752834467	345.19868480725626	74	127
344.9548752834467	345.19868480725626	65	127
345.19868480725626	345.45410430839	89	127
345.19868480725626	345.45410430839	77	127
345.19868480725626	345.45410430839	68	127
345.19868480725626	345.3380045351474	79	127
345.19868480725626	345.3380045351474	62	127
345.19868480725626	345.45410430839	74	127
345.3380045351474	345.4657142857143	53	127
345.3380045351474	345.4657142857143	77	127
345.4657142857143	345.8720634920635	47	127
345.4657142857143	345.70952380952383	53	127
345.4657142857143	345.8720634920635	62	127
345.4657142857143	345.70952380952383	76	127
345.4657142857143	345.8720634920635	56	127
345.4657142857143	345.70952380952383	56	127
345.70952380952383	345.8720634920635	77	127
345.70952380952383	345.8720634920635	62	127
345.8720634920635	345.9997732426304	79	127
345.8720634920635	346.11587301587304	68	127
345.8720634920635	345.9997732426304	67	127
345.8720634920635	345.9997732426304	62	127
345.8720634920635	346.11587301587304	74	127
345.8720634920635	346.11587301587304	89	127
345.8720634920635	346.11587301587304	77	127
345.9997732426304	346.1274829931973	77	127
345.9997732426304	346.1274829931973	65	127
346.1274829931973	346.8588888888889	56	127
346.1274829931973	346.2668027210884	64	127
346.1274829931973	346.8588888888889	62	127
346.1274829931973	346.8588888888889	47	127
346.1274829931973	346.2668027210884	76	127
346.1274829931973	346.2668027210884	53	127
346.2668027210884	346.8588888888889	65	127
346.2668027210884	346.8588888888889	77	127
346.8588888888889	347.1027210884354	77	127
346.8588888888889	347.1027210884354	89	127
346.8588888888889	347.1027210884354	68	127
346.8588888888889	346.98662131519274	79	127
346.8588888888889	346.98662131519274	67	127
346.8588888888889	346.98662131519274	62	127
346.8588888888889	347.1027210884354	74	127
346.98662131519274	347.11433106575964	77	127
346.98662131519274	347.11433106575964	65	127
347.11433106575964	347.439410430839	62	127
347.11433106575964	347.24204081632655	76	127
347.11433106575964	347.24204081632655	64	127
347.11433106575964	347.24204081632655	53	127
347.11433106575964	347.439410430839	47	127
347.11433106575964	347.439410430839	56	127
347.24204081632655	347.439410430839	65	127
347.24204081632655	347.439410430839	77	127
347.439410430839	350.37673469387755	68	127
347.439410430839	350.63213151927437	89	127
347.439410430839	348.6004081632653	58	127
347.439410430839	348.7977551020408	62	127
347.439410430839	348.7977551020408	65	127
347.439410430839	350.22578231292516	74	127
347.439410430839	350.37673469387755	70	127
347.439410430839	350.37673469387755	80	127
347.439410430839	351.45643990929705	46	127
347.439410430839	350.37673469387755	77	127
348.6004081632653	348.78616780045354	46	127
348.7977551020408	348.97192743764174	50	127
348.7977551020408	349.1344671201814	65	127
348.7977551020408	349.1344671201814	62	127
348.97192743764174	349.1344671201814	53	127
349.1344671201814	349.2970068027211	56	127
349.1344671201814	349.2970068027211	56	127
349.3085941043084	349.4943764172336	62	127
349.3085941043084	349.5756462585034	62	127
349.4943764172336	349.65691609977324	65	127
349.65691609977324	349.83106575963717	68	127
349.84267573696144	350.0168253968254	72	127
350.0168253968254	350.1793650793651	69	127
350.1793650793651	350.3651247165533	70	127
350.37673469387755	351.45643990929705	46	127
350.37673469387755	351.45643990929705	80	127
350.37673469387755	350.53925170068027	72	127
350.37673469387755	351.45643990929705	77	127
350.53925170068027	350.72503401360547	69	127
350.63213151927437	350.9456009070295	88	127
350.72503401360547	350.9340136054422	70	127
350.9456009070295	351.18943310657596	89	127
351.10816326530613	351.28231292517006	58	127
351.18943310657596	351.4448526077098	80	127
351.28231292517006	351.4448526077098	70	127
351.45643990929705	352.54780045351475	79	127
351.45643990929705	352.3968707482993	46	127
351.45643990929705	352.54780045351475	75	127
351.45643990929705	351.630612244898	72	127
351.45643990929705	351.7118820861678	87	127
351.630612244898	351.8047619047619	69	127
351.7118820861678	351.97891156462583	86	127
351.8047619047619	351.9672789115646	70	127
351.97891156462583	352.26913832199546	87	127
352.17625850340136	352.36204081632656	58	127
352.26913832199546	352.54780045351475	79	127
352.36204081632656	352.54780045351475	70	127
352.54780045351475	353.4765986394558	77	127
352.54780045351475	352.73356009070295	72	127
352.54780045351475	352.8380498866213	86	127
352.54780045351475	353.4765986394558	46	127
352.54780045351475	353.6042857142857	74	127
352.73356009070295	352.9309297052154	69	127
352.8380498866213	353.10507936507935	85	127
352.9309297052154	353.10507936507935	70	127
353.10507936507935	353.36049886621316	86	127
353.26761904761906	353.441768707483	58	127
353.36049886621316	353.6042857142857	77	127
353.441768707483	353.6042857142857	70	127
353.6042857142857	354.55632653061224	77	127
353.6042857142857	353.7900680272109	72	127
353.6042857142857	353.87133786848074	85	127
353.6042857142857	354.55632653061224	73	127
353.6042857142857	354.55632653061224	46	127
353.7900680272109	353.95260770975057	69	127
353.87133786848074	354.14997732426303	84	127
353.95260770975057	354.13836734693876	70	127
354.14997732426303	354.42861678004533	85	127
354.33573696145123	354.5098866213152	58	127
354.42861678004533	354.7072562358277	77	127
354.5098866213152	354.7072562358277	70	127
354.71886621315195	355.86825396825395	72	127
354.71886621315195	358.39922902494334	53	127
354.71886621315195	355.0207256235828	84	127
354.71886621315195	355.86825396825395	77	127
354.71886621315195	357.16857142857145	41	127
354.8930158730159	355.1019954648526	68	127
355.0207256235828	355.3341723356009	83	127
355.1019954648526	355.3225850340136	69	127
355.3341723356009	355.6012244897959	84	127
355.5199546485261	355.69410430839	57	127
355.6012244897959	355.86825396825395	77	127
355.69410430839	355.86825396825395	69	127
355.86825396825395	357.16857142857145	70	127
355.86825396825395	356.2049433106576	82	127
355.86825396825395	357.16857142857145	76	127
356.0656235827664	356.2862131519274	66	127
356.2049433106576	356.4603401360544	81	127
356.2862131519274	356.44875283446714	67	127
356.4603401360544	356.8434920634921	82	127
356.7390022675737	356.9363718820862	55	127
356.8434920634921	357.16857142857145	76	127
356.9363718820862	357.16857142857145	67	127
357.16857142857145	358.39922902494334	72	127
357.16857142857145	358.39922902494334	69	127
357.16857142857145	357.49362811791383	81	127
357.16857142857145	360.93020408163267	41	127
357.4007709750567	357.57492063492066	64	127
357.49362811791383	357.8071201814059	80	127
357.57492063492066	357.8071201814059	65	127
357.8071201814059	358.08575963718823	81	127
358.0044671201814	358.17863945578233	53	127
358.08575963718823	358.38761904761907	72	127
358.17863945578233	358.38761904761907	65	127
358.39922902494334	359.6531065759637	70	127
358.39922902494334	359.6531065759637	67	127
358.39922902494334	362.2421315192744	53	127
358.39922902494334	358.67786848072564	79	127
358.5965986394558	358.7939682539683	62	127
358.67786848072564	359.16548752834467	78	127
358.7939682539683	359.1538775510204	63	127
359.16548752834467	359.52539682539685	79	127
359.3860770975057	359.6066666666667	53	127
359.52539682539685	359.7808163265306	70	127
359.6066666666667	359.7808163265306	63	127
359.7808163265306	360.34968253968253	65	127
359.7808163265306	360.0362358276644	77	127
359.7808163265306	360.34968253968253	69	127
359.9433333333333	360.1291156462585	61	127
360.0362358276644	360.33809523809526	69	127
360.1291156462585	360.33809523809526	62	127
360.34968253968253	360.93020408163267	67	127
360.34968253968253	360.93020408163267	63	127
360.34968253968253	360.6399546485261	75	127
360.55866213151927	360.7328344671202	59	127
360.6399546485261	360.9185941043084	67	127
360.7328344671202	360.9185941043084	60	127
360.93020408163267	361.56875283446715	62	127
360.93020408163267	361.2436734693878	74	127
360.93020408163267	361.56875283446715	65	127
360.93020408163267	363.5076190476191	41	127
361.1043537414966	361.3597732426304	57	127
361.2436734693878	361.56875283446715	65	127
361.3597732426304	361.56875283446715	58	127
361.56875283446715	362.2421315192744	60	127
361.56875283446715	362.2421315192744	63	127
361.56875283446715	361.8590022675737	72	127
361.7661224489796	361.9634920634921	56	127
361.8590022675737	362.2421315192744	63	127
361.9634920634921	362.2421315192744	57	127
362.2421315192744	362.9155102040816	58	127
362.2421315192744	362.9155102040816	62	127
362.2421315192744	362.6368707482993	70	127
362.2421315192744	362.8342403628118	53	127
362.5207709750567	362.7413605442177	54	127
362.6368707482993	362.9155102040816	62	127
362.7413605442177	362.9155102040816	55	127
362.9155102040816	363.39151927437644	57	127
362.9155102040816	363.5076190476191	60	127
362.9155102040816	364.2274376417234	41	127
362.9155102040816	363.1825396825397	69	127
363.10126984126987	363.29863945578234	52	127
363.1825396825397	363.5076190476191	60	127
363.29863945578234	363.5076190476191	53	127
363.5076190476191	365.2839455782313	41	127
363.5076190476191	364.3087074829932	58	127
363.5076190476191	364.04167800453513	67	127
363.5076190476191	364.65700680272107	63	127
363.92555555555555	364.1345351473923	50	127
364.04167800453513	364.3087074829932	58	127
364.1345351473923	364.3087074829932	51	127
364.3087074829932	365.10979591836735	65	127
364.3087074829932	365.10979591836735	57	127
364.3087074829932	365.1214058956916	48	127
364.65700680272107	365.23750566893426	48	127
365.1214058956916	365.4116553287982	41	127
365.1214058956916	365.4116553287982	75	127
365.1214058956916	365.4116553287982	69	127
365.1214058956916	365.4116553287982	77	127
365.23750566893426	365.4116553287982	53	127
365.4116553287982	365.8992743764172	46	127
365.4116553287982	366.29401360544216	82	127
365.4116553287982	365.7251247165533	74	127
365.4116553287982	365.7251247165533	70	127
365.7251247165533	366.29401360544216	79	127
365.7251247165533	366.29401360544216	75	127
366.29401360544216	366.7235827664399	81	127
366.29401360544216	366.56104308390024	77	127
366.29401360544216	366.56104308390024	74	127
366.56104308390024	366.80485260770973	72	127
366.56104308390024	366.80485260770973	75	127
366.816462585034	367.33891156462585	82	127
366.816462585034	367.0718820861678	70	127
366.816462585034	367.0718820861678	74	127
367.0718820861678	367.33891156462585	69	127
367.0718820861678	367.33891156462585	73	127
367.33891156462585	367.81489795918367	70	127
367.33891156462585	367.81489795918367	74	127
367.33891156462585	368.00068027210887	74	127
367.81489795918367	368.1632199546485	68	127
367.81489795918367	368.1632199546485	72	127
368.1748299319728	368.73208616780045	77	127
368.1748299319728	368.55795918367346	70	127
368.1748299319728	368.55795918367346	67	127
368.55795918367346	368.88303854875284	69	127
368.55795918367346	368.88303854875284	66	127
368.88303854875284	369.06879818594103	75	127
368.88303854875284	369.1268480725624	67	127
368.88303854875284	369.1268480725624	70	127
369.1268480725624	369.3126077097506	72	127
369.1268480725624	369.4403174603175	63	127
369.1268480725624	369.4403174603175	67	127
369.45190476190476	369.8002267573696	65	127
369.45190476190476	370.125306122449	69	127
369.45190476190476	369.8002267573696	62	127
369.8002267573696	370.125306122449	60	127
369.8002267573696	370.125306122449	63	127
370.125306122449	370.8102947845805	70	127
370.125306122449	370.4735827664399	62	127
370.125306122449	370.4735827664399	58	127
370.4735827664399	370.9031746031746	64	127
370.4735827664399	370.8915646258503	55	127
370.9031746031746	372.6911111111111	41	127
370.9031746031746	371.2166439909297	65	127
370.9031746031746	371.2166439909297	57	127
370.9031746031746	371.448843537415	60	127
371.2166439909297	371.5301133786848	53	127
371.5301133786848	371.6229931972789	62	127
371.5301133786848	371.8087528344671	59	127
371.6229931972789	371.7042403628118	63	127
371.7042403628118	371.8087528344671	62	127
371.8087528344671	372.2034693877551	53	127
371.8087528344671	371.9480725623583	63	127
371.9480725623583	372.0757823129252	60	127
372.0757823129252	372.2034693877551	62	127
372.2034693877551	372.5285714285714	62	127
372.2034693877551	372.6911111111111	65	127
372.5285714285714	372.77238095238096	53	127
372.77238095238096	373.49219954648527	57	127
372.77238095238096	372.9697505668934	63	127
372.77238095238096	373.2019501133787	60	127
372.9697505668934	373.0626303854875	65	127
373.0626303854875	373.2019501133787	63	127
373.2019501133787	373.49219954648527	53	127
373.2019501133787	373.31804988662134	65	127
373.31804988662134	373.41092970521544	62	127
373.41092970521544	373.49219954648527	63	127
373.49219954648527	373.8288888888889	63	127
373.49219954648527	373.8521088435374	67	127
373.49219954648527	374.2004081632653	58	127
373.8521088435374	374.2004081632653	62	127
373.8521088435374	374.2004081632653	65	127
374.2004081632653	374.7925170068027	55	127
374.2004081632653	374.4790476190476	64	127
374.2004081632653	374.4790476190476	70	127
374.4906575963719	374.7925170068027	72	127
374.4906575963719	374.7925170068027	60	127
374.7925170068027	375.45428571428573	70	127
374.7925170068027	375.12920634920636	64	127
374.7925170068027	375.34979591836736	53	127
375.1408163265306	375.45428571428573	60	127
375.45428571428573	375.9651247165533	65	127
375.45428571428573	375.9651247165533	69	127
375.9767346938776	376.2902040816327	77	127
375.9767346938776	376.2902040816327	72	127
375.9767346938776	376.2902040816327	75	127
376.2902040816327	376.85909297052154	82	127
376.2902040816327	376.6036507936508	70	127
376.2902040816327	376.6036507936508	74	127
376.6036507936508	376.85909297052154	79	127
376.6036507936508	376.8474829931973	75	127
376.85909297052154	377.1029024943311	77	127
376.85909297052154	377.4047619047619	81	127
376.85909297052154	377.1029024943311	74	127
377.1029024943311	377.39315192743766	75	127
377.1029024943311	377.39315192743766	72	127
377.4047619047619	377.76467120181405	70	127
377.4047619047619	378.03167800453514	82	127
377.4047619047619	377.76467120181405	74	127
377.76467120181405	378.02009070294787	69	127
377.76467120181405	378.03167800453514	73	127
378.03167800453514	378.8327891156463	74	127
378.03167800453514	378.600589569161	70	127
378.03167800453514	378.600589569161	74	127
378.600589569161	378.90244897959184	68	127
378.600589569161	378.90244897959184	72	127
378.9140589569161	379.3668253968254	79	127
378.9140589569161	379.1926984126984	67	127
378.9140589569161	379.1926984126984	71	127
379.1926984126984	379.5409977324263	70	127
379.1926984126984	379.52938775510205	66	127
379.5409977324263	379.84285714285716	67	127
379.5409977324263	379.7848072562358	77	127
379.5409977324263	379.84285714285716	71	127
379.84285714285716	380.0053968253968	74	127
379.84285714285716	380.16793650793653	65	127
379.84285714285716	380.16793650793653	69	127
380.1795238095238	380.46979591836737	67	127
380.1795238095238	380.7368253968254	71	127
380.1795238095238	380.46979591836737	63	127
380.46979591836737	380.7368253968254	65	127
380.46979591836737	380.7252154195011	62	127
380.7368253968254	381.2824943310658	60	127
380.7368253968254	381.2824943310658	63	127
380.7368253968254	381.5843537414966	72	127
381.2824943310658	381.66562358276644	67	127
381.2824943310658	381.66562358276644	63	127
381.66562358276644	381.9907029478458	62	127
381.66562358276644	382.2112925170068	62	127
381.66562358276644	381.9907029478458	70	127
381.66562358276644	382.29256235827665	46	127
382.0023129251701	382.29256235827665	58	127
382.29256235827665	383.0356009070295	45	127
382.29256235827665	382.61764172335603	60	127
382.29256235827665	382.3738321995465	63	127
382.3738321995465	382.47832199546485	65	127
382.47832199546485	382.6292517006803	63	127
382.6292517006803	383.0356009070295	58	127
382.6292517006803	382.7337414965986	65	127
382.7337414965986	382.91950113378687	62	127
382.91950113378687	383.0356009070295	63	127
383.0356009070295	383.7554195011338	67	127
383.0356009070295	383.7554195011338	44	127
383.0356009070295	383.58126984126983	63	127
383.5928798185941	383.83668934240364	58	127
383.83668934240364	384.1037188208617	62	127
383.83668934240364	384.4404081632653	44	127
383.83668934240364	383.941179138322	65	127
383.941179138322	384.02244897959184	67	127
384.0340589569161	384.1037188208617	65	127
384.11532879818594	384.1849886621315	67	127
384.11532879818594	384.4404081632653	58	127
384.1965986394558	384.3591383219955	64	127
384.3591383219955	384.4404081632653	65	127
384.4404081632653	385.1950566893424	68	127
384.4404081632653	385.1950566893424	38	127
384.4404081632653	384.8119274376417	65	127
384.823537414966	385.1950566893424	58	127
385.1950566893424	385.7987755102041	67	127
385.1950566893424	385.7987755102041	39	127
385.1950566893424	385.46208616780046	63	127
385.485306122449	385.9032653061224	55	127
385.9032653061224	386.14707482993197	53	127
385.9032653061224	386.2980045351474	57	127
385.9032653061224	386.41410430839	41	127
386.15868480725624	386.41410430839	51	127
386.2980045351474	386.3560544217687	58	127
386.3560544217687	386.41410430839	60	127
386.41410430839	386.6695238095238	58	127
386.41410430839	386.6695238095238	46	127
386.41410430839	386.6695238095238	50	127
386.9829931972789	387.72603174603177	53	127
386.9829931972789	387.72603174603177	50	127
386.9829931972789	387.72603174603177	58	127
387.9930612244898	388.5851700680272	53	127
387.9930612244898	388.5851700680272	58	127
387.9930612244898	388.5851700680272	50	127
389.09600907029477	390.0364172335601	53	127
389.09600907029477	390.0364172335601	60	127
389.09600907029477	390.0364172335601	51	127
389.3165986394558	389.502358276644	53	127
389.64167800453515	389.8390476190476	57	127
389.9087074829932	390.0364172335601	60	127
390.210566893424	390.7214058956916	50	127
390.210566893424	391.23224489795916	65	127
390.210566893424	390.7214058956916	53	127
390.210566893424	390.7214058956916	58	127
391.05809523809523	391.32512471655326	58	127
391.05809523809523	391.32512471655326	50	127
391.05809523809523	391.32512471655326	53	127
391.32512471655326	391.71986394557825	64	127
391.71986394557825	392.8344217687075	60	127
391.71986394557825	392.0217233560091	67	127
391.71986394557825	392.8344217687075	51	127
391.71986394557825	392.8344217687075	53	127
392.0217233560091	392.416462585034	65	127
392.416462585034	392.71832199546486	57	127
392.71832199546486	392.9853514739229	60	127
392.9853514739229	393.36848072562356	58	127
392.9853514739229	393.90253968253967	65	127
392.9853514739229	393.36848072562356	53	127
392.9853514739229	393.36848072562356	49	127
393.6587301587302	393.99541950113377	58	127
393.6587301587302	393.99541950113377	53	127
393.6587301587302	393.99541950113377	49	127
393.99541950113377	394.3669387755102	64	127
394.3669387755102	395.5279365079365	51	127
394.3669387755102	394.72684807256235	66	127
394.3669387755102	395.5279365079365	53	127
394.3669387755102	395.5279365079365	60	127
394.72684807256235	395.0983673469388	65	127
395.0983673469388	395.40022675736964	57	127
395.40022675736964	395.66725623582767	60	127
395.66725623582767	396.08521541950114	49	127
395.66725623582767	395.94589569160996	66	127
395.66725623582767	396.08521541950114	53	127
395.66725623582767	396.08521541950114	58	127
395.94589569160996	396.23614512471653	65	127
396.23614512471653	396.6657142857143	61	127
396.23614512471653	396.6657142857143	49	127
396.23614512471653	396.6657142857143	53	127
396.23614512471653	396.6657142857143	58	127
396.6657142857143	397.02562358276646	70	127
397.02562358276646	398.08213151927436	53	127
397.02562358276646	398.08213151927436	59	127
397.02562358276646	398.08213151927436	49	127
397.02562358276646	397.3739229024943	68	127
397.3739229024943	397.6409523809524	65	127
397.6409523809524	397.94281179138324	61	127
397.94281179138324	398.24467120181407	71	127
398.24467120181407	398.685850340136	58	127
398.24467120181407	398.53492063492064	70	127
398.24467120181407	398.685850340136	54	127
398.24467120181407	398.685850340136	49	127
398.24467120181407	399.3708390022676	61	127
398.53492063492064	398.9528798185941	66	127
398.9528798185941	399.2431292517007	61	127
398.9528798185941	399.2431292517007	58	127
398.9528798185941	399.2431292517007	49	127
398.9528798185941	399.2431292517007	54	127
399.2431292517007	399.75396825396825	75	127
399.75396825396825	400.0209977324263	73	127
399.75396825396825	400.5086167800454	58	127
399.75396825396825	400.9614058956916	52	127
399.75396825396825	400.9614058956916	61	127
399.75396825396825	400.9614058956916	42	127
400.0209977324263	400.5086167800454	70	127
400.5086167800454	400.79886621315194	66	127
400.5086167800454	401.0078458049887	73	127
400.79886621315194	401.1007256235828	82	127
401.1007256235828	401.7857142857143	71	127
401.1007256235828	401.51868480725625	83	127
401.1007256235828	401.64639455782316	42	127
401.1007256235828	401.7857142857143	51	127
401.51868480725625	401.7857142857143	78	127
401.7857142857143	402.3546031746032	70	127
401.7857142857143	403.05120181405897	54	127
401.7857142857143	402.07596371882084	42	127
401.7857142857143	402.07596371882084	76	127
402.07596371882084	402.3546031746032	73	127
402.3546031746032	403.4923809523809	42	127
402.3546031746032	403.05120181405897	71	127
402.3546031746032	402.7261224489796	75	127
402.7261224489796	403.05120181405897	71	127
403.05120181405897	403.32984126984127	66	127
403.05120181405897	403.6781405895692	59	127
403.05120181405897	403.538820861678	63	127
403.32984126984127	403.6781405895692	63	127
403.6781405895692	404.15414965986395	64	127
403.6781405895692	404.3050793650794	58	127
403.6781405895692	404.3050793650794	66	127
403.6781405895692	404.2586394557823	42	127
404.15414965986395	404.43278911564624	61	127
404.43278911564624	404.7114285714286	58	127
404.43278911564624	404.7114285714286	42	127
404.43278911564624	404.641768707483	64	127
404.7114285714286	404.8971882086168	61	127
404.7114285714286	405.15260770975055	56	127
405.15260770975055	405.7679365079365	58	127
405.15260770975055	405.46607709750566	54	127
405.15260770975055	406.18589569160997	47	127
405.46607709750566	405.7679365079365	52	127
405.7679365079365	406.2207256235828	59	127
405.7679365079365	406.05818594104306	51	127
406.05818594104306	406.3948752834467	54	127
406.3948752834467	406.9985941043084	61	127
406.3948752834467	406.8360544217687	58	127
406.3948752834467	406.9985941043084	42	127
406.8360544217687	407.1263038548753	54	127
407.1263038548753	407.41655328798186	60	127
407.1263038548753	407.6255328798186	42	127
407.1263038548753	407.2424036281179	63	127
407.2424036281179	407.32367346938776	64	127
407.32367346938776	407.41655328798186	63	127
407.41655328798186	407.77646258503404	54	127
407.41655328798186	407.4978231292517	64	127
407.4978231292517	407.6255328798186	61	127
407.6255328798186	407.82290249433106	63	127
407.82290249433106	408.60077097505666	66	127
407.82290249433106	409.14643990929704	54	127
407.82290249433106	408.27569160997734	63	127
408.27569160997734	408.60077097505666	54	127
408.60077097505666	409.23931972789114	64	127
408.60077097505666	408.68204081632655	73	127
408.60077097505666	408.68204081632655	70	127
408.60077097505666	408.879410430839	61	127
408.68204081632655	408.77492063492065	71	127
408.68204081632655	408.77492063492065	75	127
408.77492063492065	408.879410430839	70	127
408.77492063492065	408.879410430839	73	127
408.879410430839	409.6688888888889	54	127
408.879410430839	409.1	71	127
408.879410430839	409.1	75	127
409.1	409.23931972789114	72	127
409.1	409.23931972789114	69	127
409.23931972789114	409.3902494331066	73	127
409.23931972789114	409.3902494331066	70	127
409.3902494331066	410.0404081632653	70	127
409.3902494331066	410.8066666666667	61	127
409.3902494331066	410.8066666666667	64	127
409.3902494331066	410.0404081632653	78	127
409.3902494331066	410.8066666666667	54	127
409.6688888888889	410.45836734693876	54	127
410.0404081632653	410.8531065759637	70	127
410.0404081632653	410.8531065759637	76	127
410.45836734693876	410.9227664399093	54	127
410.9343764172336	411.4219954648526	66	127
410.9343764172336	411.4219954648526	47	127
410.9343764172336	411.2478458049887	63	127
411.2478458049887	411.5497052154195	59	127
411.5497052154195	411.8283446712018	65	127
411.5497052154195	411.6541950113379	68	127
411.5497052154195	412.00249433106575	47	127
411.6541950113379	411.747074829932	69	127
411.747074829932	411.8283446712018	68	127
411.8283446712018	412.07215419501136	59	127
411.8283446712018	411.90961451247165	69	127
411.90961451247165	412.00249433106575	66	127
412.00249433106575	412.0837641723356	68	127
412.0837641723356	412.8035827664399	71	127
412.0837641723356	412.53655328798186	68	127
412.0837641723356	413.4769614512472	59	127
412.53655328798186	412.8035827664399	59	127
412.8035827664399	412.8848526077098	75	127
412.8035827664399	413.1518820861678	66	127
412.8035827664399	412.8848526077098	78	127
412.8035827664399	413.5234013605442	69	127
412.8848526077098	413.00095238095236	76	127
412.8848526077098	413.00095238095236	80	127
413.00095238095236	413.1518820861678	75	127
413.00095238095236	413.1518820861678	78	127
413.1518820861678	413.25637188208617	80	127
413.1518820861678	413.25637188208617	76	127
413.1518820861678	413.8484807256236	59	127
413.25637188208617	413.5234013605442	77	127
413.25637188208617	413.5234013605442	74	127
413.5234013605442	413.6046712018141	78	127
413.5234013605442	413.6046712018141	75	127
413.6046712018141	414.80049886621316	69	127
413.6046712018141	414.17356009070295	75	127
413.6046712018141	414.17356009070295	83	127
413.6046712018141	414.80049886621316	59	127
413.6046712018141	414.80049886621316	66	127
413.86009070294784	414.52185941043086	59	127
414.17356009070295	414.8469387755102	75	127
414.17356009070295	414.8469387755102	81	127
414.5334693877551	414.92820861678007	59	127
414.92820861678007	415.40421768707483	47	127
414.92820861678007	415.1952380952381	66	127
414.92820861678007	415.48548752834466	71	127
414.92820861678007	415.1952380952381	63	127
415.20684807256237	416.27496598639453	66	127
415.20684807256237	416.27496598639453	63	127
415.48548752834466	416.4491156462585	69	127
415.48548752834466	416.4491156462585	47	127
416.2865759637188	416.6116553287982	66	127
416.2865759637188	416.6116553287982	63	127
416.6116553287982	416.90190476190475	63	127
416.6116553287982	417.1805442176871	78	127
416.6116553287982	417.1805442176871	75	127
416.6116553287982	417.6797732426304	48	127
416.6116553287982	416.90190476190475	69	127
416.913514739229	417.49401360544215	69	127
416.913514739229	417.49401360544215	63	127
417.1805442176871	417.71460317460316	77	127
417.1805442176871	417.71460317460316	69	127
417.5056235827664	417.79587301587304	69	127
417.5056235827664	417.79587301587304	63	127
417.79587301587304	418.5040816326531	87	127
417.79587301587304	418.16739229024944	58	127
417.79587301587304	418.16739229024944	65	127
417.79587301587304	418.16739229024944	50	127
417.79587301587304	418.3995918367347	38	127
417.79587301587304	418.5040816326531	72	127
417.79587301587304	418.16739229024944	70	127
418.16739229024944	418.84077097505667	58	127
418.16739229024944	418.84077097505667	70	127
418.16739229024944	418.84077097505667	65	127
418.5040816326531	419.0613605442177	70	127
418.5040816326531	418.84077097505667	50	127
418.5040816326531	419.0613605442177	38	127
418.5040816326531	419.0613605442177	86	127
418.84077097505667	419.1426303854875	70	127
418.84077097505667	419.1426303854875	58	127
418.84077097505667	419.1426303854875	65	127
419.1542403628118	419.4909297052154	70	127
419.1542403628118	419.4909297052154	58	127
419.1542403628118	419.4909297052154	63	127
419.1542403628118	419.75795918367345	93	127
419.1542403628118	419.75795918367345	77	127
419.1542403628118	420.52421768707484	39	127
419.1542403628118	420.52421768707484	51	127
419.4909297052154	420.39650793650793	58	127
419.4909297052154	420.39650793650793	70	127
419.4909297052154	420.39650793650793	63	127
419.75795918367345	420.57065759637186	91	127
419.75795918367345	420.57065759637186	75	127
420.39650793650793	420.6751473922902	67	127
420.39650793650793	420.6751473922902	58	127
420.39650793650793	420.6751473922902	63	127
420.6867573696145	421.05827664399095	75	127
420.6867573696145	421.05827664399095	81	127
420.6867573696145	420.93056689342404	53	127
420.93056689342404	421.4181859410431	65	127
420.93056689342404	421.4181859410431	57	127
420.93056689342404	421.4181859410431	63	127
421.05827664399095	421.1395464852608	82	127
421.05827664399095	421.1395464852608	74	127
421.1395464852608	421.4181859410431	84	127
421.1395464852608	421.4181859410431	72	127
421.42979591836735	421.92902494331065	70	127
421.42979591836735	421.6736054421769	46	127
421.42979591836735	421.92902494331065	86	127
421.6736054421769	422.0683446712018	62	127
421.6736054421769	422.0683446712018	58	127
421.6736054421769	422.0683446712018	65	127
421.92902494331065	422.0102947845805	87	127
421.92902494331065	422.0102947845805	72	127
422.0102947845805	422.0683446712018	89	127
422.0102947845805	422.0683446712018	74	127
422.0799546485261	422.4979138321996	70	127
422.0799546485261	422.4979138321996	58	127
422.0799546485261	422.4979138321996	63	127
422.0799546485261	422.77655328798187	93	127
422.0799546485261	422.77655328798187	77	127
422.0799546485261	423.1712925170068	39	127
422.4979138321996	423.0319727891156	58	127
422.4979138321996	423.0319727891156	63	127
422.4979138321996	423.0319727891156	70	127
422.77655328798187	423.2177324263039	75	127
422.77655328798187	423.2177324263039	91	127
423.0319727891156	423.33383219954646	67	127
423.0319727891156	423.33383219954646	58	127
423.0319727891156	423.33383219954646	63	127
423.33383219954646	423.65891156462584	69	127
423.33383219954646	423.65891156462584	63	127
423.33383219954646	423.8911111111111	53	127
423.74018140589567	423.8911111111111	70	127
423.74018140589567	423.8911111111111	62	127
423.8911111111111	424.19297052154195	63	127
423.8911111111111	424.19297052154195	65	127
423.8911111111111	424.19297052154195	57	127
423.9839909297052	424.0768707482993	72	127
423.9839909297052	424.0768707482993	60	127
424.19297052154195	424.4832199546485	46	127
424.19297052154195	424.3090702947846	58	127
424.19297052154195	424.3090702947846	74	127
424.3903401360544	424.4832199546485	75	127
424.3903401360544	424.4832199546485	60	127
424.4832199546485	425.06371882086165	62	127
424.4832199546485	425.06371882086165	58	127
424.4832199546485	425.06371882086165	65	127
424.8663492063492	424.9824489795918	77	127
424.8663492063492	424.9824489795918	62	127
425.06371882086165	425.6790476190476	81	127
425.06371882086165	425.562947845805	39	127
425.06371882086165	425.6790476190476	65	127
425.342358276644	425.6790476190476	58	127
425.342358276644	425.6790476190476	57	127
425.342358276644	425.6790476190476	63	127
425.6790476190476	426.27115646258505	63	127
425.6790476190476	426.27115646258505	79	127
426.10861678004534	426.3988662131519	58	127
426.10861678004534	426.3988662131519	55	127
426.10861678004534	426.3988662131519	63	127
426.3988662131519	426.9677551020408	41	127
426.3988662131519	427.04902494331066	75	127
426.3988662131519	427.04902494331066	57	127
426.7819954648526	427.04902494331066	53	127
426.7819954648526	427.04902494331066	60	127
426.7819954648526	427.04902494331066	57	127
426.7819954648526	426.99097505668936	77	127
427.04902494331066	427.50181405895694	82	127
427.04902494331066	427.989433106576	63	127
427.04902494331066	427.989433106576	69	127
427.5714739229025	428.0707029478458	53	127
427.5714739229025	427.82689342403626	84	127
428.0707029478458	429.6612698412698	86	127
428.0707029478458	428.8601814058957	70	127
428.0707029478458	437.75342403628116	46	127
428.0707029478458	429.0691609977324	62	127
428.87179138321994	429.359410430839	53	127
428.87179138321994	429.359410430839	65	127
428.87179138321994	429.359410430839	65	127
429.359410430839	429.6612698412698	70	127
429.359410430839	429.6612698412698	74	127
429.359410430839	429.6612698412698	58	127
429.6612698412698	429.91668934240363	75	127
429.6612698412698	429.7889795918367	87	127
429.6612698412698	429.9282993197279	60	127
429.6612698412698	429.9282993197279	72	127
429.9282993197279	430.31142857142856	89	127
429.9282993197279	430.1721088435374	74	127
429.9282993197279	430.31142857142856	77	127
429.9282993197279	430.1721088435374	62	127
430.1721088435374	430.4391383219955	63	127
430.1721088435374	430.4391383219955	75	127
430.31142857142856	430.3694784580499	79	127
430.31142857142856	430.3694784580499	91	127
430.3694784580499	430.4275283446712	89	127
430.3694784580499	430.4275283446712	77	127
430.4391383219955	430.68294784580496	72	127
430.4391383219955	430.68294784580496	87	127
430.4391383219955	430.68294784580496	75	127
430.4391383219955	430.68294784580496	60	127
430.68294784580496	431.0892970521542	70	127
430.68294784580496	431.0660770975057	86	127
430.68294784580496	431.0892970521542	58	127
430.68294784580496	431.0660770975057	74	127
431.0892970521542	431.35632653061225	72	127
431.0892970521542	431.35632653061225	60	127
431.0892970521542	431.94843537414965	87	127
431.0892970521542	431.94843537414965	75	127
431.35632653061225	431.611746031746	53	127
431.35632653061225	431.611746031746	65	127
431.611746031746	431.94843537414965	72	127
431.611746031746	431.94843537414965	60	127
431.94843537414965	432.07614512471656	89	127
431.94843537414965	432.21546485260774	74	127
431.94843537414965	432.07614512471656	77	127
431.94843537414965	432.21546485260774	62	127
432.21546485260774	432.48249433106577	75	127
432.21546485260774	432.48249433106577	63	127
432.21546485260774	432.62181405895694	79	127
432.21546485260774	432.62181405895694	91	127
432.48249433106577	432.7495238095238	65	127
432.48249433106577	432.7495238095238	77	127
432.62181405895694	432.67986394557823	93	127
432.62181405895694	432.67986394557823	81	127
432.67986394557823	432.7379138321995	91	127
432.67986394557823	432.7379138321995	79	127
432.7495238095238	433.155873015873	89	127
432.7495238095238	433.155873015873	77	127
432.7495238095238	433.155873015873	74	127
432.7495238095238	433.155873015873	62	127
433.155873015873	433.45773242630383	87	127
433.155873015873	433.45773242630383	75	127
433.155873015873	433.49256235827664	60	127
433.155873015873	433.49256235827664	72	127
433.49256235827664	434.479410430839	89	127
433.49256235827664	433.7363718820862	74	127
433.49256235827664	434.479410430839	77	127
433.49256235827664	433.7363718820862	62	127
433.7363718820862	434.0730612244898	65	127
433.7363718820862	434.0730612244898	53	127
434.0730612244898	434.479410430839	62	127
434.0730612244898	434.479410430839	74	127
434.479410430839	434.75804988662134	63	127
434.479410430839	434.6071201814059	91	127
434.479410430839	434.6071201814059	79	127
434.479410430839	434.75804988662134	75	127
434.75804988662134	435.43142857142857	80	127
434.75804988662134	435.25727891156464	77	127
434.75804988662134	435.43142857142857	92	127
434.75804988662134	435.25727891156464	65	127
435.25727891156464	435.57074829931975	67	127
435.25727891156464	435.57074829931975	79	127
435.43142857142857	435.50108843537413	82	127
435.43142857142857	435.50108843537413	94	127
435.50108843537413	435.57074829931975	80	127
435.50108843537413	435.57074829931975	92	127
435.57074829931975	435.8609977324263	63	127
435.57074829931975	435.97709750566895	91	127
435.57074829931975	435.97709750566895	79	127
435.57074829931975	435.8609977324263	75	127
435.8609977324263	436.1396371882086	77	127
435.8609977324263	436.1396371882086	65	127
435.97709750566895	436.0467573696145	92	127
435.97709750566895	436.0467573696145	80	127
436.0467573696145	436.1396371882086	79	127
436.0467573696145	436.1396371882086	91	127
436.1396371882086	436.4066666666667	62	127
436.1396371882086	436.5459863945578	89	127
436.1396371882086	436.5459863945578	77	127
436.1396371882086	436.4066666666667	74	127
436.4066666666667	436.6736961451247	63	127
436.4066666666667	436.6736961451247	75	127
436.5459863945578	436.6156462585034	79	127
436.5459863945578	436.6156462585034	91	127
436.6156462585034	436.6736961451247	89	127
436.6156462585034	436.6736961451247	77	127
436.6736961451247	437.10326530612247	87	127
436.6736961451247	436.9639455782313	72	127
436.6736961451247	436.9639455782313	60	127
436.6736961451247	437.10326530612247	75	127
436.9639455782313	437.2309750566893	74	127
436.9639455782313	437.2309750566893	62	127
437.10326530612247	437.16131519274376	89	127
437.10326530612247	437.16131519274376	77	127
437.16131519274376	437.2309750566893	87	127
437.16131519274376	437.2309750566893	75	127
437.2309750566893	437.52122448979594	86	127
437.2309750566893	437.52122448979594	74	127
437.2309750566893	437.52122448979594	58	127
437.2309750566893	437.52122448979594	70	127
437.52122448979594	437.88113378684807	72	127
437.52122448979594	437.88113378684807	84	127
437.52122448979594	437.88113378684807	69	127
437.52122448979594	437.88113378684807	57	127
437.88113378684807	438.5429024943311	36	127
437.88113378684807	438.24104308390025	67	127
437.88113378684807	438.24104308390025	70	127
437.88113378684807	438.24104308390025	55	127
437.88113378684807	438.24104308390025	82	127
438.24104308390025	438.5429024943311	84	127
438.24104308390025	438.5429024943311	64	127
438.24104308390025	438.5429024943311	52	127
438.24104308390025	438.5429024943311	72	127
438.5429024943311	438.8563718820862	69	127
438.5429024943311	438.8563718820862	65	127
438.5429024943311	438.8563718820862	53	127
438.5429024943311	439.2162811791383	41	127
438.5429024943311	438.8563718820862	81	127
438.8563718820862	439.2162811791383	84	127
438.8563718820862	439.2162811791383	72	127
438.8563718820862	439.2162811791383	60	127
438.8563718820862	439.2162811791383	48	127
439.2162811791383	439.5761904761905	82	127
439.2162811791383	439.88965986394555	36	127
439.2162811791383	439.5761904761905	70	127
439.2162811791383	439.5761904761905	52	127
439.2162811791383	439.5761904761905	64	127
439.5761904761905	439.88965986394555	48	127
439.5761904761905	439.88965986394555	84	127
439.5761904761905	439.88965986394555	72	127
439.5761904761905	439.88965986394555	60	127
439.88965986394555	440.4004988662131	41	127
439.88965986394555	440.2263492063492	81	127
439.88965986394555	440.2263492063492	69	127
439.88965986394555	440.2263492063492	65	127
439.88965986394555	440.2263492063492	53	127
440.2263492063492	440.481768707483	69	127
440.2263492063492	440.481768707483	84	127
440.2263492063492	440.481768707483	57	127
440.2263492063492	440.481768707483	72	127
440.4933786848073	441.1667573696145	48	127
440.4933786848073	440.8648979591837	88	127
440.4933786848073	440.8648979591837	70	127
440.4933786848073	440.8648979591837	58	127
440.4933786848073	440.8648979591837	76	127
440.8648979591837	441.1667573696145	72	127
440.8648979591837	441.1667573696145	72	127
440.8648979591837	441.1667573696145	60	127
440.8648979591837	441.1667573696145	84	127
441.1667573696145	441.41056689342406	69	127
441.1667573696145	441.41056689342406	57	127
441.1667573696145	441.41056689342406	89	127
441.1667573696145	441.7124263038549	41	127
441.1667573696145	441.41056689342406	77	127
441.41056689342406	441.7124263038549	84	127
441.41056689342406	441.7124263038549	60	127
441.41056689342406	441.7124263038549	72	127
441.41056689342406	441.7124263038549	72	127
441.7124263038549	442.09555555555556	88	127
441.7124263038549	442.09555555555556	76	127
441.7124263038549	442.09555555555556	58	127
441.7124263038549	442.09555555555556	70	127
441.7124263038549	442.59478458049887	48	127
442.09555555555556	442.59478458049887	84	127
442.09555555555556	442.59478458049887	72	127
442.09555555555556	442.59478458049887	72	127
442.09555555555556	442.59478458049887	60	127
442.59478458049887	442.8385941043084	77	127
442.59478458049887	442.8385941043084	41	127
442.59478458049887	442.8385941043084	57	127
442.59478458049887	442.8385941043084	89	127
442.59478458049887	442.8385941043084	69	127
442.8385941043084	443.19850340136054	74	127
442.8385941043084	443.19850340136054	78	127
442.8385941043084	443.19850340136054	66	127
442.8385941043084	443.19850340136054	62	127
443.19850340136054	443.4423129251701	75	127
443.19850340136054	443.4423129251701	67	127
443.19850340136054	443.4423129251701	79	127
443.19850340136054	443.4423129251701	63	127
443.4423129251701	443.57002267573694	75	127
443.4423129251701	443.57002267573694	63	127
443.4423129251701	443.57002267573694	79	127
443.4423129251701	443.57002267573694	67	127
443.95315192743766	445.42761904761903	79	127
443.95315192743766	445.42761904761903	67	127
443.95315192743766	445.42761904761903	63	127
443.95315192743766	445.42761904761903	75	127
444.23179138321996	444.60331065759635	51	127
444.60331065759635	444.8935600907029	45	127
444.9051700680272	445.0328798185941	45	127
445.1721995464853	446.2287074829932	45	127
445.4392290249433	445.82235827664397	62	127
445.4392290249433	445.82235827664397	77	127
445.4392290249433	445.82235827664397	65	127
445.4392290249433	445.82235827664397	74	127
445.82235827664397	446.2287074829932	60	127
445.82235827664397	446.2287074829932	63	127
445.82235827664397	446.2287074829932	72	127
445.82235827664397	446.2287074829932	75	127
446.2287074829932	446.530566893424	74	127
446.2287074829932	446.530566893424	46	127
446.2287074829932	446.530566893424	62	127
446.2287074829932	446.530566893424	58	127
446.2287074829932	446.530566893424	70	127
446.530566893424	446.7975963718821	69	127
446.530566893424	446.7975963718821	72	127
446.530566893424	446.7975963718821	60	127
446.530566893424	446.7975963718821	41	127
446.530566893424	446.7975963718821	57	127
446.80920634920636	447.18072562358276	66	127
446.80920634920636	447.18072562358276	78	127
446.80920634920636	447.18072562358276	74	127
446.80920634920636	447.18072562358276	62	127
447.18072562358276	447.4361451247166	63	127
447.18072562358276	447.4361451247166	67	127
447.18072562358276	447.4361451247166	79	127
447.18072562358276	447.4361451247166	75	127
447.44775510204084	447.5754648526077	79	127
447.44775510204084	447.5754648526077	63	127
447.44775510204084	447.5754648526077	75	127
447.44775510204084	447.5754648526077	67	127
447.9353741496599	448.44621315192745	67	127
447.9353741496599	448.44621315192745	79	127
447.9353741496599	448.44621315192745	63	127
447.9353741496599	448.44621315192745	75	127
448.2024036281179	448.44621315192745	51	127
448.44621315192745	449.3401814058957	68	127
448.44621315192745	449.3401814058957	65	127
448.44621315192745	448.72485260770975	47	127
448.44621315192745	449.3401814058957	77	127
448.44621315192745	449.3401814058957	80	127
448.72485260770975	448.8990022675737	47	127
449.0151020408163	449.9787301587302	47	127
449.3401814058957	449.67687074829934	65	127
449.3401814058957	449.67687074829934	77	127
449.3401814058957	449.67687074829934	62	127
449.3401814058957	449.67687074829934	74	127
449.67687074829934	449.9787301587302	65	127
449.67687074829934	449.9787301587302	62	127
449.67687074829934	449.9787301587302	74	127
449.67687074829934	449.9787301587302	53	127
449.9787301587302	450.3386394557823	60	127
449.9787301587302	450.3386394557823	51	127
449.9787301587302	450.280589569161	48	127
449.9787301587302	450.3386394557823	72	127
449.9787301587302	450.3386394557823	63	127
450.3386394557823	450.6056689342404	62	127
450.3386394557823	450.6056689342404	50	127
450.3386394557823	450.6056689342404	43	127
450.3386394557823	450.6056689342404	71	127
450.3386394557823	450.6056689342404	59	127
450.6056689342404	451.11650793650796	74	127
450.6056689342404	451.11650793650796	78	127
450.6056689342404	451.11650793650796	66	127
450.6056689342404	451.11650793650796	62	127
451.11650793650796	451.383537414966	75	127
451.11650793650796	451.383537414966	63	127
451.11650793650796	451.383537414966	79	127
451.11650793650796	451.383537414966	67	127
451.383537414966	451.5112471655329	75	127
451.383537414966	451.5112471655329	79	127
451.383537414966	451.5112471655329	67	127
451.383537414966	451.5112471655329	63	127
451.70861678004536	452.3239455782313	67	127
451.70861678004536	452.3239455782313	79	127
451.70861678004536	452.3239455782313	63	127
451.70861678004536	452.3239455782313	75	127
452.0104761904762	452.3239455782313	51	127
452.3239455782313	453.2643537414966	80	127
452.3239455782313	452.8347845804989	47	127
452.3239455782313	453.2643537414966	75	127
452.3239455782313	453.2643537414966	56	127
452.3239455782313	453.2643537414966	68	127
452.8347845804989	452.99732426303854	47	127
453.2643537414966	453.8912925170068	74	127
453.2643537414966	453.5197732426304	46	127
453.2643537414966	453.81002267573695	81	127
453.2643537414966	453.8912925170068	69	127
453.2643537414966	453.8912925170068	57	127
453.58943310657594	453.8332426303855	46	127
453.8912925170068	454.52984126984126	67	127
453.8912925170068	454.52984126984126	75	127
453.8912925170068	454.52984126984126	79	127
453.8912925170068	454.52984126984126	58	127
453.8912925170068	454.1118820861678	46	127
454.2279818594104	454.39052154195014	46	127
454.52984126984126	455.18	65	127
454.52984126984126	455.18	62	127
454.52984126984126	455.18	77	127
454.52984126984126	455.18	70	127
454.52984126984126	454.79687074829934	46	127
454.8665306122449	455.11034013605445	46	127
455.18	455.4238095238095	48	127
455.18	455.93464852607707	63	127
455.18	455.93464852607707	65	127
455.18	455.93464852607707	69	127
455.18	455.93464852607707	75	127
455.53990929705213	455.74888888888887	48	127
455.93464852607707	456.48031746031745	62	127
455.93464852607707	456.48031746031745	74	127
455.93464852607707	456.48031746031745	70	127
455.93464852607707	456.1900680272109	50	127
455.93464852607707	456.48031746031745	70	127
456.20167800453515	456.57319727891155	50	127
456.57319727891155	456.8518367346939	51	127
456.57319727891155	457.83868480725624	67	127
456.57319727891155	456.8750566893424	72	127
456.57319727891155	456.8750566893424	60	127
456.57319727891155	457.83868480725624	70	127
456.8750566893424	457.2581859410431	62	127
456.8750566893424	457.2581859410431	50	127
456.8750566893424	457.2581859410431	74	127
457.2581859410431	457.83868480725624	77	127
457.2581859410431	457.5832653061224	48	127
457.2581859410431	457.83868480725624	65	127
457.5948752834467	457.9431746031746	48	127
457.9431746031746	458.2334240362812	63	127
457.9431746031746	458.5701133786848	70	127
457.9431746031746	458.2334240362812	48	127
457.9431746031746	458.5701133786848	67	127
457.9431746031746	458.24503401360545	75	127
458.24503401360545	458.5701133786848	48	127
458.24503401360545	458.5701133786848	74	127
458.24503401360545	458.5701133786848	62	127
458.5701133786848	459.2318820861678	63	127
458.5701133786848	458.9532426303855	41	127
458.5701133786848	459.2318820861678	69	127
458.5701133786848	458.9532426303855	75	127
458.5701133786848	459.15061224489796	65	127
458.9532426303855	459.1738321995465	53	127
458.9532426303855	459.2318820861678	41	127
458.9532426303855	459.2318820861678	72	127
459.2318820861678	459.6730612244898	65	127
459.2318820861678	459.51052154195014	41	127
459.2318820861678	459.4524716553288	58	127
459.2318820861678	459.51052154195014	70	127
459.2318820861678	459.51052154195014	62	127
459.2318820861678	459.51052154195014	65	127
459.51052154195014	459.858820861678	69	127
459.51052154195014	459.858820861678	60	127
459.51052154195014	459.638231292517	60	127
459.51052154195014	459.84721088435373	53	127
459.51052154195014	459.858820861678	63	127
459.858820861678	460.19551020408164	62	127
459.858820861678	460.9037188208617	62	127
459.858820861678	460.19551020408164	70	127
459.858820861678	462.19242630385486	46	127
459.858820861678	460.19551020408164	58	127
460.19551020408164	460.60185941043085	77	127
460.19551020408164	460.60185941043085	53	127
460.60185941043085	460.9037188208617	82	127
460.60185941043085	460.9037188208617	58	127
460.9037188208617	461.1707482993197	63	127
460.9037188208617	461.19396825396825	84	127
460.9037188208617	461.19396825396825	60	127
461.19396825396825	461.5887074829932	65	127
461.19396825396825	461.44938775510207	86	127
461.19396825396825	461.44938775510207	62	127
461.44938775510207	461.7164172335601	63	127
461.44938775510207	461.7164172335601	87	127
461.5887074829932	461.64675736961453	67	127
461.64675736961453	461.7048072562358	65	127
461.7164172335601	462.01827664399093	84	127
461.7164172335601	462.01827664399093	60	127
461.7164172335601	462.01827664399093	63	127
462.01827664399093	462.5871655328798	82	127
462.01827664399093	462.5755555555556	62	127
462.01827664399093	462.5871655328798	58	127
462.5871655328798	462.86580498866215	60	127
462.5871655328798	464.95560090702946	46	127
462.5871655328798	463.5043537414966	63	127
462.5871655328798	462.86580498866215	84	127
462.86580498866215	463.1560544217687	53	127
462.86580498866215	463.1560544217687	77	127
463.1560544217687	463.5043537414966	84	127
463.1560544217687	463.5043537414966	60	127
463.5043537414966	463.77138321995466	62	127
463.5043537414966	463.77138321995466	86	127
463.5043537414966	463.77138321995466	65	127
463.77138321995466	464.14290249433105	63	127
463.77138321995466	464.27061224489796	67	127
463.77138321995466	464.14290249433105	87	127
464.14290249433105	464.40993197278914	89	127
464.14290249433105	464.40993197278914	65	127
464.27061224489796	464.3402721088435	69	127
464.3402721088435	464.40993197278914	67	127
464.40993197278914	464.72340136054424	62	127
464.40993197278914	464.72340136054424	86	127
464.40993197278914	464.71179138322	65	127
464.72340136054424	465.17619047619047	84	127
464.72340136054424	465.17619047619047	60	127
464.72340136054424	465.17619047619047	63	127
465.17619047619047	469.611201814059	46	127
465.17619047619047	465.59414965986394	62	127
465.17619047619047	466.1978684807256	65	127
465.17619047619047	465.59414965986394	86	127
465.6057596371882	465.87278911564624	77	127
465.6057596371882	465.87278911564624	53	127
465.87278911564624	466.1978684807256	86	127
465.87278911564624	466.1978684807256	62	127
466.1978684807256	466.5113378684807	87	127
466.1978684807256	466.5113378684807	63	127
466.1978684807256	466.5113378684807	67	127
466.5113378684807	466.8364172335601	65	127
466.5113378684807	466.8364172335601	89	127
466.5113378684807	467.0221768707483	68	127
466.8364172335601	467.1498866213152	91	127
466.8364172335601	467.1498866213152	67	127
467.0221768707483	467.09183673469386	70	127
467.09183673469386	467.1498866213152	68	127
467.1498866213152	467.54462585034014	63	127
467.1498866213152	467.54462585034014	87	127
467.1498866213152	467.6839455782313	67	127
467.54462585034014	467.81165532879817	65	127
467.54462585034014	467.81165532879817	89	127
467.6839455782313	467.7419954648526	68	127
467.7419954648526	467.81165532879817	67	127
467.81165532879817	468.2760544217687	65	127
467.81165532879817	468.113514739229	86	127
467.81165532879817	468.113514739229	62	127
468.113514739229	468.4385941043084	87	127
468.113514739229	468.4385941043084	63	127
468.2760544217687	468.3689342403628	67	127
468.3689342403628	468.4385941043084	65	127
468.4385941043084	468.9726530612245	63	127
468.4385941043084	468.775283446712	60	127
468.4385941043084	468.775283446712	84	127
468.775283446712	469.1003628117914	62	127
468.775283446712	469.1003628117914	86	127
468.9726530612245	469.0307029478458	65	127
469.0307029478458	469.1003628117914	63	127
469.1003628117914	469.44866213151926	58	127
469.1003628117914	469.3790022675737	62	127
469.1003628117914	469.44866213151926	82	127
469.44866213151926	469.657641723356	60	127
469.44866213151926	469.8434013605442	80	127
469.44866213151926	469.8434013605442	68	127
469.8434013605442	470.0639909297052	58	127
469.8434013605442	470.49356009070294	46	127
469.8434013605442	470.12204081632655	79	127
469.8434013605442	470.12204081632655	67	127
470.12204081632655	470.36585034013603	65	127
470.12204081632655	470.2497505668934	56	127
470.12204081632655	470.36585034013603	77	127
470.49356009070294	470.80702947845805	75	127
470.49356009070294	470.80702947845805	55	127
470.49356009070294	471.06244897959186	39	127
470.49356009070294	470.80702947845805	63	127
470.80702947845805	471.15532879818596	58	127
470.80702947845805	471.15532879818596	70	127
470.80702947845805	471.15532879818596	58	127
471.15532879818596	471.4107482993197	74	127
471.15532879818596	471.4107482993197	56	127
471.15532879818596	471.7242176870748	46	127
471.15532879818596	471.4107482993197	62	127
471.4107482993197	471.71260770975056	58	127
471.4107482993197	471.7242176870748	58	127
471.4107482993197	471.7242176870748	70	127
471.7242176870748	472.03768707482993	55	127
471.7242176870748	472.03768707482993	75	127
471.7242176870748	472.4208163265306	39	127
471.7242176870748	472.03768707482993	63	127
472.03768707482993	472.4208163265306	58	127
472.03768707482993	472.4208163265306	58	127
472.03768707482993	472.4208163265306	70	127
472.4208163265306	472.81555555555553	74	127
472.4208163265306	472.81555555555553	62	127
472.4208163265306	473.0941950113379	46	127
472.4208163265306	472.81555555555553	56	127
472.81555555555553	473.0941950113379	58	127
472.81555555555553	473.0825850340136	58	127
472.81555555555553	473.0941950113379	70	127
473.0941950113379	473.3612244897959	55	127
473.0941950113379	473.5469841269841	39	127
473.0941950113379	473.3612244897959	75	127
473.0941950113379	473.3612244897959	63	127
473.3612244897959	473.6398639455782	58	127
473.3612244897959	473.6398639455782	67	127
473.3612244897959	473.6398639455782	79	127
473.6398639455782	474.3712925170068	53	127
473.6398639455782	473.91850340136057	69	127
473.6398639455782	473.91850340136057	81	127
473.6398639455782	473.91850340136057	63	127
473.91850340136057	474.3712925170068	65	127
473.91850340136057	474.3712925170068	65	127
473.91850340136057	474.3712925170068	77	127
474.3712925170068	474.6383219954649	62	127
474.3712925170068	474.88213151927437	46	127
474.3712925170068	474.6383219954649	70	127
474.3712925170068	474.6383219954649	82	127
474.6383219954649	474.88213151927437	65	127
474.6383219954649	474.88213151927437	77	127
474.6383219954649	474.88213151927437	65	127
474.88213151927437	475.33492063492065	81	127
474.88213151927437	475.33492063492065	63	127
474.88213151927437	475.33492063492065	69	127
474.88213151927437	475.7760997732426	53	127
475.33492063492065	475.7760997732426	77	127
475.33492063492065	475.7760997732426	65	127
475.33492063492065	475.7760997732426	65	127
475.7760997732426	476.01990929705215	82	127
475.7760997732426	476.01990929705215	62	127
475.7760997732426	476.01990929705215	46	127
475.7760997732426	476.01990929705215	70	127
476.0315192743764	476.42625850340136	71	127
476.0315192743764	476.42625850340136	67	127
476.42625850340136	476.6816780045352	72	127
476.42625850340136	476.6816780045352	68	127
476.6932879818594	476.84421768707483	72	127
476.6932879818594	476.84421768707483	68	127
476.9951473922903	478.6669841269841	68	127
476.9951473922903	478.6669841269841	72	127
477.34344671201814	477.7614058956916	77	127
477.7614058956916	478.1097052154195	74	127
477.7614058956916	478.1097052154195	86	127
478.12131519274374	478.2606349206349	74	127
478.12131519274374	478.2606349206349	86	127
478.37673469387755	479.28231292517006	86	127
478.37673469387755	479.28231292517006	74	127
478.6785941043084	478.9456235827664	67	127
478.6785941043084	478.9456235827664	70	127
478.9456235827664	479.28231292517006	65	127
478.9456235827664	479.28231292517006	68	127
479.28231292517006	479.56095238095236	87	127
479.28231292517006	479.5725623582766	67	127
479.28231292517006	479.5725623582766	63	127
479.28231292517006	479.56095238095236	75	127
479.5725623582766	479.95569160997735	62	127
479.5725623582766	479.95569160997735	82	127
479.5725623582766	479.95569160997735	70	127
479.5725623582766	479.95569160997735	65	127
479.95569160997735	480.2575510204082	67	127
479.95569160997735	480.2575510204082	71	127
480.2575510204082	480.5361904761905	68	127
480.2575510204082	480.5361904761905	72	127
480.5361904761905	480.6639002267574	68	127
480.5361904761905	480.6639002267574	72	127
480.82643990929705	481.58108843537417	68	127
480.82643990929705	481.58108843537417	68	127
480.82643990929705	481.58108843537417	72	127
481.221179138322	481.58108843537417	75	127
481.221179138322	481.58108843537417	87	127
481.58108843537417	482.7072562358277	73	127
481.58108843537417	482.7072562358277	67	127
481.58108843537417	481.8945578231293	88	127
481.58108843537417	481.8945578231293	76	127
481.58108843537417	482.2196371882086	70	127
481.8945578231293	482.1964172335601	76	127
481.8945578231293	482.0338775510204	88	127
482.2196371882086	483.252925170068	88	127
482.2196371882086	482.90462585034015	70	127
482.2196371882086	483.252925170068	76	127
482.7072562358277	482.98589569161	70	127
482.7072562358277	482.98589569161	67	127
482.98589569161	483.252925170068	67	127
482.98589569161	483.252925170068	64	127
483.252925170068	483.5083446712018	89	127
483.252925170068	483.5083446712018	77	127
483.252925170068	483.5199546485261	61	127
483.252925170068	483.5199546485261	65	127
483.5199546485261	483.8566439909297	64	127
483.5199546485261	483.8566439909297	60	127
483.5199546485261	483.8566439909297	72	127
483.5199546485261	483.8566439909297	84	127
483.8566439909297	484.18172335600906	67	127
483.8566439909297	484.18172335600906	71	127
484.18172335600906	484.5532426303855	72	127
484.18172335600906	484.5532426303855	68	127
484.5648526077097	484.68095238095236	72	127
484.5648526077097	484.68095238095236	68	127
484.8667120181406	485.50526077097504	72	127
484.8667120181406	485.50526077097504	68	127
485.19179138321994	485.50526077097504	75	127
485.19179138321994	485.50526077097504	87	127
485.50526077097504	485.8419501133787	88	127
485.50526077097504	485.8419501133787	76	127
485.50526077097504	486.31795918367345	73	127
485.50526077097504	486.31795918367345	68	127
485.85356009070296	486.1438095238095	76	127
485.85356009070296	486.1438095238095	88	127
486.31795918367345	486.5501587301587	88	127
486.31795918367345	486.8752380952381	73	127
486.31795918367345	486.5501587301587	76	127
486.31795918367345	486.8752380952381	68	127
486.63142857142856	486.81718820861676	88	127
486.63142857142856	486.81718820861676	76	127
486.8752380952381	487.4673469387755	68	127
486.8752380952381	487.08421768707484	88	127
486.8752380952381	487.4673469387755	64	127
486.8752380952381	487.08421768707484	76	127
487.2003174603175	487.3396371882086	76	127
487.2003174603175	487.3396371882086	88	127
487.4673469387755	487.8388662131519	88	127
487.4673469387755	488.0710657596372	61	127
487.4673469387755	487.8388662131519	76	127
487.4673469387755	488.0710657596372	64	127
487.9085260770975	488.0942857142857	88	127
487.9085260770975	488.0942857142857	76	127
488.152335600907	488.8721541950113	61	127
488.152335600907	488.8721541950113	57	127
488.152335600907	488.8721541950113	57	127
488.152335600907	488.33809523809526	76	127
488.152335600907	488.33809523809526	88	127
488.5702947845805	488.7328344671202	76	127
488.5702947845805	488.7328344671202	88	127
488.8721541950113	489.5107029478458	62	127
488.8721541950113	489.1507936507937	88	127
488.8721541950113	489.1507936507937	76	127
488.8721541950113	489.5107029478458	56	127
488.8721541950113	489.5107029478458	59	127
489.1507936507937	489.75451247165535	76	127
489.1507936507937	489.75451247165535	88	127
489.5107029478458	490.0215419501134	57	127
489.5107029478458	490.0215419501134	61	127
489.5107029478458	490.0215419501134	57	127
489.75451247165535	490.25374149659865	76	127
489.75451247165535	490.25374149659865	88	127
490.0215419501134	490.7645804988662	62	127
490.0215419501134	490.7645804988662	59	127
490.0215419501134	490.7645804988662	56	127
490.2653514739229	491.06643990929706	88	127
490.2653514739229	491.06643990929706	76	127
490.7645804988662	491.240589569161	57	127
490.7645804988662	491.240589569161	57	127
490.7645804988662	491.902358276644	73	127
490.7645804988662	491.240589569161	61	127
491.06643990929706	491.5888888888889	88	127
491.06643990929706	491.5888888888889	76	127
491.3334693877551	491.902358276644	70	127
491.3334693877551	491.902358276644	67	127
491.5888888888889	492.15777777777777	76	127
491.5888888888889	492.15777777777777	88	127
491.902358276644	492.4131972789116	72	127
491.902358276644	492.4131972789116	68	127
492.15777777777777	492.6918367346939	75	127
492.15777777777777	492.6918367346939	87	127
492.4131972789116	493.14462585034016	70	127
492.4131972789116	493.14462585034016	67	127
492.4131972789116	493.14462585034016	73	127
492.6918367346939	493.4000453514739	88	127
492.6918367346939	493.4000453514739	76	127
493.14462585034016	494.06181405895694	72	127
493.14462585034016	493.9689342403628	68	127
493.4000453514739	494.05020408163267	87	127
493.4000453514739	494.05020408163267	75	127
494.06181405895694	494.93256235827664	56	127
494.06181405895694	494.47977324263036	74	127
494.06181405895694	494.47977324263036	86	127
494.06181405895694	494.47977324263036	65	127
494.06181405895694	494.93256235827664	59	127
494.06181405895694	494.47977324263036	71	127
494.93256235827664	495.55950113378685	55	127
494.93256235827664	495.55950113378685	58	127
495.55950113378685	496.14	59	127
495.55950113378685	496.14	56	127
496.14	496.6392290249433	53	127
496.14	496.6392290249433	56	127
496.7204988662132	497.24294784580496	38	127
496.7204988662132	498.4387755102041	68	127
496.7204988662132	496.97591836734694	59	127
496.7204988662132	497.24294784580496	77	127
496.7204988662132	498.4387755102041	71	127
496.7204988662132	496.97591836734694	68	127
496.9875283446712	497.4867573696145	68	127
496.9875283446712	497.4867573696145	59	127
497.24294784580496	497.78861678004534	76	127
497.24294784580496	497.78861678004534	37	127
497.4983673469388	498.171746031746	59	127
497.4983673469388	498.171746031746	68	127
497.78861678004534	498.5316553287982	77	127
497.78861678004534	498.5316553287982	38	127
498.1833560090703	498.82190476190476	59	127
498.1833560090703	498.82190476190476	68	127
498.5316553287982	499.00766439909296	47	127
498.5316553287982	499.00766439909296	68	127
498.82190476190476	499.0889342403628	59	127
498.82190476190476	499.0889342403628	68	127
499.14698412698414	499.73909297052154	59	127
499.14698412698414	499.73909297052154	56	127
499.73909297052154	500.6562811791383	55	127
499.73909297052154	500.6562811791383	58	127
500.6562811791383	501.23678004535145	59	127
500.6562811791383	501.23678004535145	56	127
501.23678004535145	502.1075283446712	56	127
501.23678004535145	502.1075283446712	53	127
502.18879818594104	502.4326077097506	68	127
502.18879818594104	502.7460770975057	77	127
502.18879818594104	502.7460770975057	37	127
502.18879818594104	504.0580045351474	68	127
502.18879818594104	502.4326077097506	59	127
502.18879818594104	504.0580045351474	71	127
502.4326077097506	503.024716553288	68	127
502.4326077097506	503.024716553288	59	127
502.7460770975057	503.512335600907	76	127
502.7460770975057	503.512335600907	36	127
503.024716553288	503.81419501133786	68	127
503.024716553288	503.81419501133786	59	127
503.512335600907	504.12766439909296	77	127
503.512335600907	504.12766439909296	37	127
503.81419501133786	504.3714739229025	59	127
503.81419501133786	504.3714739229025	68	127
504.12766439909296	504.54562358276644	68	127
504.12766439909296	504.54562358276644	47	127
504.3830839002268	504.9403628117914	59	127
504.3830839002268	504.9403628117914	68	127
504.6617233560091	505.3118820861678	77	127
504.6617233560091	505.3118820861678	37	127
504.9751927437642	505.6834013605442	59	127
504.9751927437642	505.6834013605442	68	127
505.3118820861678	505.6834013605442	68	127
505.3118820861678	505.6834013605442	47	127
505.6950113378685	506.2406802721088	68	127
505.6950113378685	506.2406802721088	59	127
506.2406802721088	506.85600907029476	77	127
506.2406802721088	506.85600907029476	38	127
506.5541496598639	507.1926984126984	68	127
506.5541496598639	507.1926984126984	58	127
506.85600907029476	507.1926984126984	46	127
506.85600907029476	507.1926984126984	68	127
507.2043083900227	507.34362811791385	58	127
507.2043083900227	507.34362811791385	68	127
507.57582766439907	508.2259863945578	77	127
507.57582766439907	508.2259863945578	39	127
507.8544671201814	508.52784580498866	58	127
507.8544671201814	508.52784580498866	67	127
508.2259863945578	508.52784580498866	46	127
508.2259863945578	508.52784580498866	67	127
508.52784580498866	508.66716553287984	67	127
508.52784580498866	508.66716553287984	58	127
508.9225850340136	509.5495238095238	39	127
508.9225850340136	509.5495238095238	75	127
509.2012244897959	509.81655328798183	67	127
509.2012244897959	509.81655328798183	58	127
509.5495238095238	509.81655328798183	67	127
509.5495238095238	509.81655328798183	46	127
509.8281632653061	510.03714285714284	58	127
509.8281632653061	510.03714285714284	67	127
510.3041723356009	510.838231292517	74	127
510.3041723356009	510.838231292517	41	127
510.5828117913832	511.1400907029479	58	127
510.5828117913832	511.1400907029479	65	127
510.838231292517	511.1400907029479	46	127
510.838231292517	511.1400907029479	65	127
511.1400907029479	511.32585034013607	58	127
511.1400907029479	511.32585034013607	65	127
511.66253968253966	512.1733786848073	73	127
511.66253968253966	512.1733786848073	42	127
511.9179591836735	512.602947845805	58	127
511.9179591836735	512.602947845805	64	127
512.1733786848073	512.602947845805	64	127
512.1733786848073	512.602947845805	46	127
512.602947845805	512.7654875283447	64	127
512.602947845805	512.7654875283447	58	127
512.9280272108844	513.531746031746	72	127
512.9280272108844	513.531746031746	43	127
513.1950566893424	513.8336054421769	64	127
513.1950566893424	513.8336054421769	58	127
513.531746031746	513.8336054421769	64	127
513.531746031746	513.8336054421769	48	127
513.8452154195012	514.0541950113379	58	127
513.8452154195012	514.0541950113379	64	127
514.2515646258504	514.8320634920635	72	127
514.2515646258504	514.8320634920635	41	127
514.5302040816326	515.1571428571428	63	127
514.5302040816326	515.1571428571428	57	127
514.8320634920635	515.1571428571428	63	127
514.8320634920635	515.1571428571428	53	127
515.1571428571428	515.691201814059	77	127
515.1571428571428	515.3893424036281	57	127
515.1571428571428	515.3893424036281	63	127
515.691201814059	516.3645804988662	70	127
515.691201814059	516.2717006802721	58	127
515.691201814059	516.2717006802721	46	127
515.691201814059	516.3645804988662	74	127
515.691201814059	516.2717006802721	62	127
515.691201814059	516.3645804988662	58	127
515.691201814059	516.3645804988662	82	127
516.3645804988662	516.8521995464853	81	127
516.3645804988662	516.8521995464853	72	127
516.3645804988662	516.8521995464853	75	127
516.3645804988662	516.8521995464853	65	127
517.281768707483	517.7809977324263	70	127
517.281768707483	517.7809977324263	62	127
517.281768707483	517.7809977324263	46	127
517.7809977324263	518.0364172335601	53	127
517.7809977324263	518.0364172335601	62	127
517.7809977324263	518.0364172335601	58	127
518.3963265306122	519.1045351473923	62	127
518.3963265306122	519.1045351473923	74	127
518.3963265306122	519.1045351473923	77	127
519.1045351473923	519.3715646258504	75	127
519.1045351473923	519.3715646258504	72	127
519.1045351473923	519.3715646258504	65	127
519.9636734693878	520.5441723356009	57	127
519.9636734693878	520.5441723356009	51	127
519.9636734693878	520.5441723356009	53	127
520.5441723356009	520.8344217687074	46	127
520.5441723356009	520.8344217687074	58	127
520.5441723356009	520.8344217687074	50	127
521.1246712018141	521.9257596371882	72	127
521.1246712018141	521.9257596371882	65	127
521.1246712018141	521.9257596371882	69	127
521.9257596371882	522.2160090702948	74	127
521.9257596371882	522.2160090702948	59	127
521.9257596371882	522.2160090702948	68	127
522.6571655328798	523.1331972789116	65	127
522.6571655328798	523.1331972789116	56	127
522.6571655328798	523.1331972789116	47	127
523.1331972789116	523.4118367346939	48	127
523.1331972789116	523.4118367346939	57	127
523.1331972789116	523.4118367346939	63	127
523.7485260770975	524.4683446712019	75	127
523.7485260770975	524.4683446712019	69	127
523.7485260770975	524.4683446712019	79	127
524.4683446712019	524.9095011337869	77	127
524.4683446712019	524.9095011337869	74	127
524.4683446712019	524.9095011337869	70	127
525.3507029478458	525.8731519274377	60	127
525.3507029478458	525.8731519274377	52	127
525.3507029478458	525.8731519274377	43	127
525.3507029478458	525.8731519274377	70	127
525.8731519274377	526.1285487528345	60	127
525.8731519274377	526.1285487528345	53	127
525.8731519274377	526.1285487528345	69	127
525.8731519274377	526.1285487528345	41	127
526.1401587301588	526.4536507936508	77	127
526.4652607709751	527.080589569161	82	127
526.4652607709751	527.080589569161	58	127
526.4652607709751	527.080589569161	70	127
526.4652607709751	527.080589569161	74	127
527.080589569161	527.3360090702948	81	127
527.080589569161	527.3360090702948	75	127
527.080589569161	527.3360090702948	65	127
527.080589569161	527.3360090702948	72	127
527.8816780045352	528.450566893424	38	127
527.8816780045352	528.450566893424	58	127
527.8816780045352	528.450566893424	70	127
527.8816780045352	528.450566893424	53	127
528.450566893424	528.7756462585035	58	127
528.450566893424	528.7756462585035	62	127
528.450566893424	528.7756462585035	44	127
528.450566893424	528.7756462585035	53	127
529.2284353741496	529.7392743764173	67	127
529.2284353741496	529.7392743764173	55	127
529.2284353741496	529.7392743764173	71	127
529.2284353741496	529.7392743764173	79	127
529.7392743764173	529.9830839002268	59	127
529.7392743764173	529.9830839002268	77	127
529.7392743764173	529.9830839002268	74	127
530.7725623582767	531.3066213151927	59	127
530.7725623582767	531.3066213151927	53	127
530.7725623582767	531.3066213151927	50	127
530.7725623582767	531.3066213151927	43	127
531.3066213151927	531.5736507936508	60	127
531.3066213151927	531.5736507936508	51	127
531.3066213151927	531.5736507936508	36	127
531.8522675736962	532.4908390022675	58	127
531.8522675736962	532.4908390022675	70	127
531.8522675736962	532.4908390022675	74	127
531.8522675736962	532.4908390022675	70	127
532.4908390022675	532.7578684807256	69	127
532.4908390022675	532.7578684807256	72	127
532.4908390022675	532.7578684807256	75	127
533.1990476190476	533.6866439909297	46	127
533.1990476190476	533.6866439909297	56	127
533.1990476190476	533.6866439909297	67	127
533.1990476190476	533.6866439909297	63	127
533.6866439909297	533.9536961451247	62	127
533.6866439909297	533.9536961451247	46	127
533.6866439909297	533.9536961451247	65	127
534.9869841269841	535.5210430839003	80	127
534.9869841269841	535.5210430839003	77	127
534.9869841269841	535.5210430839003	62	127
535.5210430839003	535.8345124716553	79	127
535.5210430839003	535.8345124716553	63	127
535.5210430839003	535.8345124716553	75	127
536.1944217687075	536.7400907029479	41	127
536.1944217687075	536.7400907029479	51	127
536.1944217687075	536.6007709750567	57	127
536.6007709750567	536.6704308390023	58	127
536.6704308390023	536.7284807256236	60	127
536.7400907029479	537.0651700680272	58	127
536.7400907029479	537.0651700680272	50	127
536.7400907029479	537.0651700680272	46	127
537.6108390022675	538.0984580498866	62	127
537.6108390022675	538.0984580498866	65	127
537.6108390022675	538.0984580498866	70	127
538.2261678004535	538.4815873015873	65	127
538.2261678004535	538.4815873015873	70	127
538.2261678004535	538.4815873015873	62	127
538.8066439909297	540.0256916099773	72	127
538.8066439909297	540.0256916099773	69	127
538.8066439909297	540.0256916099773	63	127
539.1897959183674	539.3871655328799	53	127
539.4335827664399	539.5380952380953	57	127
539.5845351473923	539.7122448979592	60	127
539.8051247165533	539.9444444444445	57	127
539.9908843537415	540.0721541950113	60	127
540.2462811791384	540.6526303854876	65	127
540.2462811791384	540.6526303854876	62	127
540.2462811791384	541.1402721088435	65	127
540.2462811791384	540.6526303854876	70	127
540.85	541.2331519274377	62	127
540.85	541.2331519274377	70	127
540.85	541.2331519274377	65	127
541.1518820861678	541.3144217687075	64	127
541.3144217687075	541.6278911564626	65	127
541.6278911564626	542.8004988662132	63	127
541.6278911564626	542.8004988662132	69	127
541.6278911564626	542.8004988662132	72	127
541.6278911564626	541.8484807256236	67	127
541.8484807256236	542.1039002267573	65	127
542.1039002267573	542.3128798185941	64	127
542.3128798185941	542.4986167800454	65	127
542.5102494331065	542.7540589569161	57	127
542.7540589569161	542.9165986394557	60	127
542.9165986394557	543.4158276643991	65	127
542.9165986394557	543.4158276643991	70	127
542.9165986394557	543.4158276643991	61	127
542.9165986394557	543.7757369614512	65	127
543.6131972789116	544.031156462585	61	127
543.6131972789116	544.031156462585	70	127
543.6131972789116	544.031156462585	65	127
543.8221768707483	544.205306122449	64	127
544.205306122449	544.4026757369614	65	127
544.4026757369614	544.5884353741496	66	127
544.4026757369614	545.5636507936508	69	127
544.4026757369614	545.5636507936508	63	127
544.4026757369614	545.5636507936508	72	127
544.5884353741496	544.7741950113378	65	127
544.7741950113378	545.0528344671202	64	127
545.0528344671202	545.2502040816327	65	127
545.2966439909297	545.5172335600907	57	127
545.5172335600907	545.7378231292518	60	127
545.7378231292518	546.0629024943311	73	127
545.7378231292518	546.0629024943311	65	127
545.7378231292518	545.9816326530612	66	127
545.7378231292518	546.0629024943311	70	127
545.9816326530612	546.144172335601	65	127
546.0629024943311	546.3415419501134	70	127
546.0629024943311	546.3415419501134	73	127
546.0629024943311	546.3415419501134	65	127
546.144172335601	546.3531519274377	64	127
546.3531519274377	546.9568707482994	71	127
546.3531519274377	546.9568707482994	68	127
546.3531519274377	546.9568707482994	74	127
546.3531519274377	546.5969614512471	65	127
546.5969614512471	546.8407709750567	59	127
546.8407709750567	547.0497505668934	62	127
547.0497505668934	547.4444897959183	75	127
547.0497505668934	547.4444897959183	69	127
547.0497505668934	547.4444897959183	72	127
547.0497505668934	547.3632199546486	67	127
547.3632199546486	547.5373696145125	65	127
547.4444897959183	547.8043764172336	75	127
547.4444897959183	547.8043764172336	72	127
547.4444897959183	547.8043764172336	69	127
547.5373696145125	547.8159863945579	64	127
547.8159863945579	548.396507936508	73	127
547.8159863945579	548.396507936508	70	127
547.8159863945579	547.9785487528345	65	127
547.8159863945579	548.396507936508	76	127
547.9785487528345	548.2920181405896	61	127
548.2920181405896	548.5009977324263	64	127
548.5009977324263	548.7448072562358	72	127
548.5009977324263	548.7448072562358	75	127
548.5009977324263	548.663537414966	67	127
548.5009977324263	548.7448072562358	69	127
548.663537414966	548.8609070294784	65	127
548.7448072562358	549.0350340136055	75	127
548.7448072562358	549.0350340136055	69	127
548.7448072562358	549.0350340136055	72	127
548.8609070294784	549.0350340136055	64	127
549.0350340136055	549.5110657596372	72	127
549.0350340136055	549.5110657596372	81	127
549.0350340136055	549.5110657596372	75	127
549.0350340136055	549.5110657596372	63	127
549.0350340136055	549.2208163265307	67	127
549.0350340136055	549.5110657596372	69	127
549.2208163265307	549.4297732426304	65	127
549.4297732426304	549.7316553287982	64	127
549.7316553287982	549.987074829932	67	127
549.987074829932	550.2424943310658	65	127
550.2424943310658	550.4630612244898	64	127
550.4630612244898	550.5907936507937	65	127
550.6372335600907	550.7765532879819	67	127
550.7417233560091	551.2177324263039	77	127
550.7417233560091	551.2177324263039	63	127
550.822993197279	551.1016326530612	69	127
551.2177324263039	551.798231292517	70	127
551.2177324263039	551.4151020408164	79	127
551.2177324263039	551.5079818594104	62	127
551.4151020408164	551.6008616780045	77	127
551.5079818594104	551.798231292517	53	127
551.6008616780045	551.798231292517	65	127
551.798231292517	552.0652607709751	79	127
551.798231292517	552.4483900226758	69	127
551.798231292517	552.1581405895691	63	127
552.0652607709751	552.2742403628118	77	127
552.1581405895691	552.4483900226758	53	127
552.2742403628118	552.4483900226758	65	127
552.4483900226758	552.6689795918368	79	127
552.4483900226758	552.9824489795918	70	127
552.4483900226758	552.7386394557823	62	127
552.6689795918368	552.8199092970522	77	127
552.7386394557823	552.9824489795918	53	127
552.8199092970522	552.9824489795918	65	127
552.9824489795918	553.1914285714286	79	127
552.9824489795918	553.295918367347	58	127
552.9824489795918	553.562947845805	62	127
553.1914285714286	553.4004081632653	77	127
553.295918367347	553.7022675736962	53	127
553.4004081632653	553.7022675736962	65	127
553.7022675736962	554.0853968253969	57	127
553.7022675736962	553.9576870748299	79	127
553.7022675736962	554.271156462585	65	127
553.9576870748299	554.1782766439909	77	127
554.0853968253969	554.3756462585034	53	127
554.1782766439909	554.3756462585034	65	127
554.3756462585034	554.5613832199547	79	127
554.3756462585034	554.66589569161	57	127
554.3756462585034	554.5846258503401	63	127
554.5613832199547	554.7471428571429	77	127
554.66589569161	554.7936054421768	60	127
554.66589569161	555.0258049886621	53	127
554.7471428571429	555.0258049886621	65	127
555.0374149659864	555.3044444444445	79	127
555.0374149659864	555.5830612244898	57	127
555.0374149659864	555.4089342403628	51	127
555.3044444444445	555.4902040816327	77	127
555.4089342403628	555.6759637188209	53	127
555.4902040816327	555.6643537414966	65	127
555.6759637188209	555.9313832199547	50	127
555.6759637188209	556.2216326530612	58	127
555.6759637188209	555.8501133786848	79	127
555.8501133786848	556.0707029478458	77	127
555.9313832199547	556.3029024943311	53	127
556.0707029478458	556.3029024943311	65	127
556.3145124716553	556.5583219954649	57	127
556.3145124716553	556.477052154195	79	127
556.3145124716553	556.7673015873016	60	127
556.477052154195	556.6512018140589	77	127
556.5583219954649	556.8601814058957	53	127
556.6512018140589	556.8485714285714	65	127
556.8601814058957	556.9414512471656	62	127
556.8601814058957	557.0227210884353	79	127
556.8601814058957	557.1039909297052	59	127
556.9414512471656	557.0227210884353	63	127
557.0227210884353	557.1852607709751	77	127
557.0227210884353	557.1039909297052	62	127
557.1039909297052	557.1852607709751	63	127
557.1039909297052	557.4755102040816	53	127
557.1852607709751	557.4755102040816	65	127
557.1852607709751	557.2897505668934	60	127
557.2897505668934	557.4871201814059	62	127
557.4871201814059	557.7309297052154	62	127
557.4871201814059	557.9282993197279	65	127
557.4871201814059	557.6496598639455	79	127
557.6496598639455	557.8237868480726	77	127
557.7309297052154	558.0095691609978	53	127
557.8237868480726	557.9979591836735	65	127
558.0095691609978	558.1024489795918	63	127
558.0095691609978	558.1837188208617	79	127
558.0095691609978	558.3114285714286	60	127
558.1024489795918	558.1837188208617	65	127
558.1837188208617	558.4043083900227	77	127
558.1837188208617	558.3114285714286	63	127
558.3114285714286	558.4043083900227	65	127
558.3114285714286	558.682947845805	53	127
558.4043083900227	558.5900680272109	62	127
558.4043083900227	558.682947845805	65	127
558.5900680272109	558.682947845805	63	127
558.682947845805	558.8454648526077	79	127
558.682947845805	558.9267573696145	63	127
558.682947845805	558.9267573696145	67	127
558.8454648526077	559.0312471655329	77	127
558.9267573696145	559.2518140589569	65	127
558.9267573696145	559.2518140589569	62	127
559.0312471655329	559.2518140589569	74	127
559.2518140589569	559.565306122449	64	127
559.2518140589569	559.4607936507937	82	127
559.2518140589569	559.5536961451247	70	127
559.4607936507937	559.6581632653061	72	127
559.565306122449	559.8439455782313	60	127
559.565306122449	559.8439455782313	72	127
559.6581632653061	559.8439455782313	84	127
559.8439455782313	560.0297052154195	82	127
559.8439455782313	560.3780045351474	70	127
559.8439455782313	560.1225850340136	64	127
560.0297052154195	560.2154648526077	79	127
560.1225850340136	560.3780045351474	60	127
560.2154648526077	560.3780045351474	72	127
560.3780045351474	560.7495238095238	65	127
560.3780045351474	560.7379138321995	69	127
560.3780045351474	560.5985941043084	81	127
560.5985941043084	560.842403628118	72	127
560.7495238095238	561.0281632653061	65	127
560.7495238095238	561.0281632653061	60	127
560.7495238095238	561.0281632653061	51	127
560.842403628118	561.0281632653061	77	127
561.0281632653061	561.6086621315193	50	127
561.0281632653061	561.3416326530612	58	127
561.0281632653061	561.6086621315193	70	127
561.0281632653061	561.2603628117914	79	127
561.2603628117914	561.4229024943311	77	127
561.3416326530612	561.6086621315193	65	127
561.4229024943311	561.6086621315193	65	127
561.6086621315193	561.8756916099774	60	127
561.6086621315193	562.2820408163266	69	127
561.6086621315193	561.7944217687075	79	127
561.6086621315193	562.2820408163266	51	127
561.7944217687075	561.9685714285714	77	127
561.8756916099774	562.2820408163266	65	127
561.9685714285714	562.2820408163266	65	127
562.2820408163266	562.7231972789116	70	127
562.2820408163266	562.5490702947845	58	127
562.2820408163266	562.4678004535148	79	127
562.2820408163266	562.7231972789116	50	127
562.4678004535148	562.6419501133787	77	127
562.5490702947845	562.9089795918368	65	127
562.6419501133787	562.9089795918368	65	127
562.9089795918368	563.1527664399093	80	127
562.9089795918368	563.5591156462585	71	127
562.9089795918368	563.5591156462585	53	127
562.9089795918368	563.2921088435374	62	127
563.1527664399093	563.3965986394558	79	127
563.2921088435374	563.5591156462585	67	127
563.3965986394558	563.5591156462585	67	127
563.5591156462585	564.1280272108844	51	127
563.5591156462585	563.756485260771	80	127
563.5591156462585	563.849387755102	60	127
563.5591156462585	564.1280272108844	72	127
563.756485260771	563.9538548752835	79	127
563.849387755102	564.1280272108844	67	127
563.9538548752835	564.1164172335601	67	127
564.1280272108844	564.6620861678005	71	127
564.1280272108844	564.6620861678005	53	127
564.1280272108844	564.290566893424	80	127
564.1280272108844	564.4066666666666	62	127
564.290566893424	564.4879365079365	79	127
564.4066666666666	564.6620861678005	67	127
564.4879365079365	564.6504761904762	67	127
564.6620861678005	564.9755328798186	60	127
564.6620861678005	565.1845124716554	72	127
564.6620861678005	564.8826757369615	80	127
564.6620861678005	565.1845124716554	51	127
564.8826757369615	565.0800453514739	79	127
564.9755328798186	565.2541950113379	67	127
565.0800453514739	565.2541950113379	67	127
565.2658049886621	565.4980045351474	84	127
565.2658049886621	565.6257142857143	65	127
565.2658049886621	565.9159637188209	74	127
565.2658049886621	565.9159637188209	56	127
565.4980045351474	565.7185941043084	82	127
565.6257142857143	565.9159637188209	70	127
565.7185941043084	565.9159637188209	70	127
565.9159637188209	566.3803628117914	55	127
565.9159637188209	566.3803628117914	75	127
565.9159637188209	566.1017233560091	84	127
565.9159637188209	566.182993197279	63	127
566.1017233560091	566.2642630385487	82	127
566.182993197279	566.4616326530612	70	127
566.2642630385487	566.4616326530612	70	127
566.4732426303855	567.0421315192743	58	127
566.4732426303855	566.6473922902494	86	127
566.4732426303855	567.0421315192743	76	127
566.4732426303855	566.7402721088436	67	127
566.6473922902494	566.8447619047619	84	127
566.7402721088436	567.0421315192743	72	127
566.8447619047619	567.0421315192743	72	127
567.0421315192743	567.2975510204082	65	127
567.0421315192743	567.5297505668934	57	127
567.0421315192743	567.5297505668934	77	127
567.0421315192743	567.2046712018141	86	127
567.2046712018141	567.4368480725624	84	127
567.2975510204082	567.6342176870749	72	127
567.4368480725624	567.6342176870749	72	127
567.6342176870749	567.9128798185941	69	127
567.6342176870749	568.214739229025	60	127
567.6342176870749	568.214739229025	78	127
567.6342176870749	567.8316099773243	87	127
567.8316099773243	568.0057596371882	86	127
567.9128798185941	568.214739229025	74	127
568.0057596371882	568.214739229025	74	127
568.214739229025	568.3888888888889	87	127
568.214739229025	568.7255782312925	79	127
568.214739229025	568.5049886621315	67	127
568.214739229025	568.7255782312925	58	127
568.3888888888889	568.6210884353742	86	127
568.5049886621315	568.8068480725624	74	127
568.6210884353742	568.8068480725624	74	127
568.8068480725624	569.1667573696145	67	127
568.8068480725624	570.0142857142857	73	127
568.8068480725624	570.0142857142857	79	127
568.8068480725624	569.0158276643991	89	127
568.8068480725624	570.0142857142857	63	127
568.8068480725624	569.4685941043084	58	127
569.0158276643991	569.2596371882087	87	127
569.1667573696145	569.4685941043084	70	127
569.2596371882087	569.4685941043084	75	127
569.4685941043084	569.6891836734694	89	127
569.4685941043084	570.0142857142857	55	127
569.4685941043084	569.8169160997733	63	127
569.6891836734694	569.8981632653062	87	127
569.8169160997733	570.1303854875283	70	127
569.8981632653062	570.1303854875283	75	127
570.1303854875283	570.3277551020408	89	127
570.1303854875283	571.2449433106576	63	127
570.1303854875283	570.4322448979592	67	127
570.1303854875283	571.2449433106576	73	127
570.1303854875283	571.2449433106576	79	127
570.1303854875283	570.7224943310657	51	127
570.3277551020408	570.5367346938775	87	127
570.4322448979592	570.7224943310657	70	127
570.5367346938775	570.7224943310657	75	127
570.7224943310657	571.2449433106576	46	127
570.7224943310657	571.0707936507937	67	127
570.7224943310657	570.9314739229025	89	127
570.9314739229025	571.1520634920635	87	127
571.0707936507937	571.3261904761905	70	127
571.1520634920635	571.3261904761905	75	127
571.3261904761905	571.8718820861678	63	127
571.3261904761905	571.5119727891157	89	127
571.3261904761905	571.8718820861678	79	127
571.3261904761905	571.5932426303855	58	127
571.3261904761905	571.8718820861678	39	127
571.3261904761905	571.8718820861678	73	127
571.5119727891157	571.6745124716554	87	127
571.5932426303855	571.8718820861678	67	127
571.6745124716554	571.8718820861678	75	127
571.8718820861678	572.1040816326531	89	127
571.8718820861678	572.498820861678	72	127
571.8718820861678	572.5800907029478	44	127
571.8718820861678	572.1853514739229	60	127
571.8718820861678	572.498820861678	63	127
571.8718820861678	572.5800907029478	80	127
572.1040816326531	572.278231292517	87	127
572.1853514739229	572.5800907029478	68	127
572.278231292517	572.5800907029478	75	127
572.5800907029478	572.8587301587302	58	127
572.5800907029478	572.7774603174603	89	127
572.5800907029478	573.114149659864	79	127
572.5800907029478	573.114149659864	79	127
572.5800907029478	573.114149659864	70	127
572.5800907029478	573.114149659864	51	127
572.7774603174603	572.94	87	127
572.8587301587302	573.114149659864	67	127
572.94	573.114149659864	75	127
573.114149659864	573.6830385487528	70	127
573.114149659864	573.6830385487528	53	127
573.114149659864	573.2882993197279	87	127
573.114149659864	573.6830385487528	77	127
573.114149659864	573.4160090702948	58	127
573.114149659864	573.6830385487528	77	127
573.2882993197279	573.4972789115646	86	127
573.4160090702948	573.6830385487528	65	127
573.4972789115646	573.6714285714286	74	127
573.6830385487528	574.1590476190477	55	127
573.6830385487528	574.1590476190477	76	127
573.6830385487528	574.1590476190477	70	127
573.6830385487528	574.1590476190477	76	127
573.6830385487528	573.9848752834467	58	127
573.6830385487528	573.868798185941	87	127
573.868798185941	574.0661678004535	85	127
573.9848752834467	574.263537414966	64	127
574.0661678004535	574.2751473922903	73	127
574.2751473922903	574.6118367346938	58	127
574.2751473922903	575.4477551020408	53	127
574.2751473922903	574.8672562358277	77	127
574.2751473922903	574.8672562358277	70	127
574.2751473922903	574.9601360544218	77	127
574.2751473922903	574.5189569160998	87	127
574.5189569160998	574.7743764172336	86	127
574.6118367346938	574.9601360544218	65	127
574.7743764172336	574.9601360544218	74	127
574.9601360544218	575.4825850340136	70	127
574.9601360544218	575.1575056689343	75	127
574.9601360544218	575.2503854875283	62	127
574.9601360544218	575.4825850340136	70	127
575.1575056689343	575.3780952380953	74	127
575.2503854875283	575.5986848072563	58	127
575.3780952380953	575.6102721088436	75	127
575.6102721088436	575.8424943310657	74	127
575.6102721088436	575.9237641723356	63	127
575.6102721088436	576.1327437641723	53	127
575.6102721088436	576.0979138321995	69	127
575.6102721088436	576.0979138321995	69	127
575.8424943310657	576.0398639455782	72	127
575.9237641723356	576.2256009070295	60	127
576.0398639455782	576.2256009070295	77	127
576.0979138321995	576.1559637188209	70	127
576.0979138321995	576.1559637188209	70	127
576.1559637188209	576.2256009070295	72	127
576.1559637188209	576.2256009070295	72	127
576.2256009070295	576.5855328798186	58	127
576.2256009070295	576.7829024943311	70	127
576.2256009070295	576.7829024943311	74	127
576.2256009070295	576.8409297052154	58	127
576.2256009070295	576.7829024943311	74	127
576.5855328798186	576.9454421768708	62	127
576.7829024943311	576.8641723356009	75	127
576.7829024943311	576.8641723356009	72	127
576.7829024943311	576.8641723356009	75	127
576.8641723356009	576.9454421768708	77	127
576.8641723356009	576.9454421768708	77	127
576.8641723356009	576.9454421768708	74	127
576.9454421768708	577.5143310657596	58	127
576.9454421768708	577.1892517006803	77	127
576.9454421768708	577.5143310657596	70	127
576.9454421768708	577.5143310657596	79	127
576.9454421768708	577.2705215419501	63	127
577.1892517006803	577.3634013605442	75	127
577.2705215419501	577.6072108843538	67	127
577.3634013605442	577.6072108843538	74	127
577.618820861678	577.8626077097506	77	127
577.618820861678	578.76820861678	79	127
577.618820861678	578.2573696145125	58	127
577.618820861678	577.9555102040816	63	127
577.618820861678	578.76820861678	73	127
577.618820861678	578.76820861678	63	127
577.8626077097506	578.0715873015873	75	127
577.9555102040816	578.2573696145125	67	127
578.0715873015873	578.2457596371883	74	127
578.2573696145125	578.76820861678	55	127
578.2573696145125	578.5360090702948	63	127
578.2573696145125	578.4431292517007	77	127
578.4431292517007	578.6172789115647	75	127
578.5360090702948	578.8494784580499	67	127
578.6172789115647	578.8494784580499	74	127
578.8610884353742	579.9640362811791	73	127
578.8610884353742	579.4415873015873	51	127
578.8610884353742	579.0352380952381	77	127
578.8610884353742	579.9640362811791	79	127
578.8610884353742	579.9640362811791	63	127
578.8610884353742	579.1281179138322	58	127
579.0352380952381	579.2558276643991	75	127
579.1281179138322	579.4415873015873	67	127
579.2558276643991	579.4299773242631	74	127
579.4415873015873	579.6621768707483	77	127
579.4415873015873	579.9640362811791	46	127
579.4415873015873	579.7782766439909	63	127
579.6621768707483	579.8711564625851	75	127
579.7782766439909	580.0685260770975	67	127
579.8711564625851	580.0685260770975	74	127
580.0685260770975	580.3819954648526	70	127
580.0685260770975	580.660634920635	39	127
580.0685260770975	580.660634920635	82	127
580.0685260770975	580.2775056689343	77	127
580.0685260770975	580.3819954648526	58	127
580.2775056689343	580.486485260771	75	127
580.3819954648526	580.660634920635	67	127
580.3819954648526	580.660634920635	75	127
580.486485260771	580.660634920635	74	127
580.660634920635	581.2179138321995	84	127
580.660634920635	581.2179138321995	44	127
580.660634920635	580.8580045351474	63	127
580.660634920635	580.9508843537415	68	127
580.660634920635	580.8580045351474	77	127
580.8580045351474	581.0437641723356	68	127
580.8580045351474	581.0437641723356	75	127
580.9508843537415	581.2179138321995	75	127
581.0437641723356	581.2179138321995	63	127
581.0437641723356	581.2179138321995	68	127
581.2179138321995	581.4617233560091	77	127
581.2179138321995	581.9145124716554	82	127
581.2179138321995	581.9145124716554	46	127
581.2179138321995	581.6010430839002	67	127
581.2179138321995	581.4617233560091	67	127
581.4617233560091	581.7171428571429	75	127
581.4617233560091	581.7171428571429	63	127
581.6010430839002	581.9145124716554	75	127
581.7171428571429	581.9029024943311	67	127
581.9145124716554	582.2047619047619	72	127
581.9145124716554	582.4950113378685	80	127
581.9145124716554	582.1002721088436	63	127
581.9145124716554	582.4950113378685	48	127
581.9145124716554	582.1002721088436	77	127
582.1002721088436	582.297641723356	75	127
582.1002721088436	582.297641723356	60	127
582.2047619047619	582.4950113378685	75	127
582.297641723356	582.4834013605442	72	127
582.297641723356	582.4950113378685	63	127
582.4950113378685	582.6807709750567	77	127
582.4950113378685	582.6807709750567	58	127
582.4950113378685	582.7736281179139	70	127
582.4950113378685	582.9594104308391	79	127
582.4950113378685	582.9594104308391	51	127
582.6807709750567	582.8549206349206	63	127
582.6807709750567	582.8549206349206	75	127
582.7736281179139	583.0406802721088	75	127
582.8549206349206	583.0406802721088	70	127
582.8549206349206	583.0406802721088	58	127
583.0522902494331	583.5399092970522	52	127
583.0522902494331	583.5399092970522	78	127
583.0522902494331	583.226439909297	61	127
583.0522902494331	583.226439909297	75	127
583.0522902494331	583.2844897959184	70	127
583.226439909297	583.3657596371883	73	127
583.226439909297	583.3657596371883	58	127
583.2844897959184	583.5399092970522	73	127
583.3657596371883	583.5282993197279	70	127
583.3657596371883	583.5399092970522	61	127
583.5399092970522	584.1784580498867	53	127
583.5399092970522	583.7721088435375	58	127
583.5399092970522	583.88820861678	70	127
583.5399092970522	584.1784580498867	77	127
583.5399092970522	583.7721088435375	75	127
583.7721088435375	583.9810884353742	61	127
583.7721088435375	583.9810884353742	73	127
583.88820861678	584.1784580498867	73	127
583.9810884353742	584.1784580498867	70	127
583.9810884353742	584.1784580498867	58	127
584.1784580498867	584.3526077097506	61	127
584.1784580498867	584.4570975056689	70	127
584.1784580498867	584.7473469387755	54	127
584.1784580498867	584.3526077097506	75	127
584.1784580498867	584.7473469387755	76	127
584.3526077097506	584.5615873015873	58	127
584.3526077097506	584.5615873015873	73	127
584.4570975056689	584.7473469387755	73	127
584.5615873015873	584.7473469387755	61	127
584.5615873015873	584.7473469387755	70	127
584.7473469387755	584.944716553288	58	127
584.7473469387755	585.0608163265306	70	127
584.7473469387755	584.944716553288	75	127
584.7473469387755	585.3162358276644	52	127
584.7473469387755	585.3162358276644	79	127
584.944716553288	585.1536961451247	61	127
584.944716553288	585.1536961451247	73	127
585.0608163265306	585.4091156462586	73	127
585.1536961451247	585.4091156462586	70	127
585.1536961451247	585.4091156462586	58	127
585.4091156462586	586.1173242630385	74	127
585.4091156462586	586.1173242630385	77	127
585.4091156462586	586.6397732426304	53	127
585.4091156462586	585.7225850340136	74	127
585.4091156462586	585.7225850340136	62	127
585.7225850340136	585.9315646258503	62	127
585.7225850340136	585.9315646258503	65	127
585.9315646258503	586.1173242630385	65	127
585.9315646258503	586.1173242630385	62	127
586.1173242630385	586.6862131519274	70	127
586.1173242630385	586.3030839002267	62	127
586.1173242630385	586.3030839002267	65	127
586.3030839002267	586.5933333333334	65	127
586.3030839002267	586.5933333333334	62	127
586.5933333333334	586.7907029478458	65	127
586.5933333333334	586.7907029478458	62	127
586.8023129251701	587.2666893424037	53	127
586.8023129251701	586.976462585034	65	127
586.8023129251701	587.2202721088436	69	127
586.8023129251701	586.976462585034	63	127
586.976462585034	587.1622222222222	63	127
586.976462585034	587.1622222222222	65	127
587.1622222222222	587.371201814059	65	127
587.1622222222222	587.371201814059	63	127
587.2202721088436	587.2899319727891	70	127
587.2899319727891	587.3595918367347	72	127
587.371201814059	587.8472108843538	58	127
587.371201814059	587.5801814058957	65	127
587.371201814059	587.8007709750567	70	127
587.371201814059	587.5801814058957	62	127
587.371201814059	587.8007709750567	74	127
587.5801814058957	587.7659410430839	65	127
587.5801814058957	587.7659410430839	62	127
587.7659410430839	587.9284807256236	65	127
587.7659410430839	587.9284807256236	62	127
587.8007709750567	587.8704308390023	75	127
587.8007709750567	587.8704308390023	72	127
587.8704308390023	587.9284807256236	77	127
587.8704308390023	587.9284807256236	74	127
587.9400907029478	588.5089569160998	74	127
587.9400907029478	588.961768707483	53	127
587.9400907029478	588.1374603174603	63	127
587.9400907029478	588.1374603174603	65	127
587.9400907029478	588.5089569160998	77	127
588.1374603174603	588.3348299319728	65	127
588.1374603174603	588.3348299319728	63	127
588.3348299319728	588.5089569160998	63	127
588.3348299319728	588.5089569160998	65	127
588.5089569160998	588.7760090702948	72	127
588.5089569160998	589.0198185941043	69	127
588.5089569160998	588.6831292517007	63	127
588.5089569160998	588.6831292517007	65	127
588.6831292517007	588.9036961451247	65	127
588.6831292517007	588.9036961451247	63	127
588.9036961451247	589.1010657596372	65	127
588.9036961451247	589.1010657596372	63	127
589.1010657596372	589.2868480725624	62	127
589.1010657596372	589.530634920635	70	127
589.1010657596372	589.2868480725624	65	127
589.1010657596372	589.5770975056689	58	127
589.2868480725624	589.4958276643991	62	127
589.2868480725624	589.4958276643991	65	127
589.4958276643991	589.6583673469388	62	127
589.4958276643991	589.6583673469388	65	127
589.530634920635	589.6003174603175	72	127
589.6003174603175	589.6583673469388	74	127
589.6583673469388	589.8557369614513	62	127
589.6583673469388	590.0995464852608	70	127
589.6583673469388	590.1459637188209	46	127
589.6583673469388	590.0995464852608	74	127
589.6583673469388	589.8557369614513	65	127
589.8557369614513	590.0298866213152	62	127
589.8557369614513	590.0298866213152	65	127
590.0298866213152	590.285306122449	62	127
590.0298866213152	590.285306122449	65	127
590.0995464852608	590.1924263038549	72	127
590.0995464852608	590.1924263038549	75	127
590.1924263038549	590.285306122449	74	127
590.1924263038549	590.285306122449	77	127
590.2969160997733	590.4942857142858	63	127
590.2969160997733	590.8890249433107	74	127
590.2969160997733	590.4942857142858	65	127
590.2969160997733	590.8890249433107	77	127
590.2969160997733	591.0747845804989	53	127
590.4942857142858	590.7032653061225	65	127
590.4942857142858	590.7032653061225	63	127
590.7032653061225	590.8890249433107	63	127
590.7032653061225	590.8890249433107	65	127
590.8890249433107	591.341814058957	69	127
590.8890249433107	591.0747845804989	63	127
590.8890249433107	591.1444217687075	72	127
590.8890249433107	591.0747845804989	65	127
591.0747845804989	591.2489342403628	65	127
591.0747845804989	591.2489342403628	63	127
591.2489342403628	591.6204535147392	63	127
591.2489342403628	591.6204535147392	65	127
591.6204535147392	592.2241723356009	77	127
591.6204535147392	591.8178231292517	63	127
591.6204535147392	591.8178231292517	65	127
591.6204535147392	592.4099319727891	53	127
591.6204535147392	592.2241723356009	74	127
591.8178231292517	592.0384126984127	63	127
591.8178231292517	592.0384126984127	65	127
592.0384126984127	592.2241723356009	65	127
592.0384126984127	592.2241723356009	63	127
592.2241723356009	592.8278911564626	69	127
592.2241723356009	592.4099319727891	65	127
592.2241723356009	592.537641723356	72	127
592.2241723356009	592.4099319727891	63	127
592.4099319727891	592.7466213151928	63	127
592.4099319727891	592.7466213151928	65	127
592.7466213151928	592.9439909297053	63	127
592.7466213151928	592.9439909297053	65	127
592.9556009070295	594.209455782313	53	127
592.9556009070295	594.209455782313	77	127
592.9556009070295	593.5825396825397	74	127
592.9556009070295	593.2806802721088	63	127
592.9556009070295	594.209455782313	41	127
592.9556009070295	593.2806802721088	65	127
593.2806802721088	593.5825396825397	63	127
593.2806802721088	593.5825396825397	65	127
593.5825396825397	593.9192290249433	65	127
593.5825396825397	593.9192290249433	63	127
593.5825396825397	594.209455782313	69	127
593.9192290249433	594.209455782313	63	127
593.9192290249433	594.209455782313	65	127
594.209455782313	595.0453741496599	53	127
594.209455782313	594.8480045351474	72	127
594.209455782313	594.5345578231293	63	127
594.209455782313	595.3472562358277	69	127
594.209455782313	595.0453741496599	41	127
594.209455782313	594.5345578231293	65	127
594.5345578231293	594.8480045351474	63	127
594.5345578231293	594.8363945578232	65	127
594.8480045351474	595.6142857142858	63	127
594.8480045351474	595.1498866213152	65	127
595.1498866213152	597.1351927437642	53	127
599.1437188208616	599.4107482993197	56	127
599.1437188208616	599.4107482993197	65	127
599.4107482993197	599.7009977324263	68	127
599.4107482993197	599.7009977324263	62	127
599.7009977324263	600.0957369614513	65	127
599.7009977324263	600.0957369614513	74	127
600.0957369614513	601.012925170068	68	127
600.0957369614513	601.012925170068	77	127
601.1174149659864	601.4424943310657	75	127
601.1174149659864	601.4424943310657	67	127
601.4424943310657	601.8372335600907	80	127
601.4424943310657	601.8372335600907	72	127
601.8372335600907	602.2203628117913	79	127
601.8372335600907	602.2203628117913	70	127
602.2203628117913	602.6267120181406	74	127
602.6267120181406	602.9401814058957	70	127
602.6267120181406	602.9401814058957	75	127
602.9401814058957	603.2187981859411	69	127
602.9401814058957	603.7877097505669	77	127
603.2187981859411	603.485850340136	67	127
603.8573696145124	604.101179138322	75	127
603.8573696145124	604.101179138322	67	127
604.101179138322	604.7281179138322	67	127
604.101179138322	604.7281179138322	77	127
604.7281179138322	604.9951473922903	66	127
604.7281179138322	604.9951473922903	75	127
604.9951473922903	605.4363265306123	71	127
605.4363265306123	605.691746031746	72	127
605.4363265306123	605.7033560090703	66	127
605.7033560090703	605.9471655328798	67	127
605.7033560090703	605.9471655328798	74	127
605.9471655328798	606.2838321995465	72	127
605.9471655328798	606.2490249433107	65	127
606.2838321995465	606.6553741496599	68	127
606.6553741496599	606.9920634920635	69	127
606.6553741496599	607.0036734693878	65	127
607.0036734693878	607.3055102040817	72	127
607.0036734693878	607.3055102040817	65	127
607.3055102040817	607.5725623582766	66	127
607.3055102040817	607.5725623582766	63	127
607.5725623582766	608.1762811791383	65	127
607.5725623582766	608.1762811791383	62	127
608.1762811791383	608.5361678004535	63	127
608.1762811791383	608.5361678004535	60	127
608.5477777777778	609.1514965986395	62	127
608.5477777777778	609.0121995464852	58	127
608.5477777777778	609.1514965986395	58	127
608.5477777777778	609.0121995464852	46	127
608.5477777777778	609.0121995464852	53	127
608.5477777777778	609.0121995464852	50	127
609.4301587301587	609.6971882086168	46	127
609.4301587301587	609.6971882086168	53	127
609.4301587301587	609.6971882086168	50	127
609.4301587301587	609.6971882086168	58	127
610.0687074829932	611.0671655328798	50	127
610.0687074829932	611.0671655328798	56	127
610.0687074829932	611.0671655328798	59	127
610.0687074829932	611.0671655328798	46	127
611.206462585034	611.6708843537415	58	127
611.206462585034	611.6708843537415	51	127
611.206462585034	611.6708843537415	54	127
611.206462585034	611.6708843537415	46	127
611.8450340136054	612.3907029478459	54	127
611.8450340136054	612.3907029478459	58	127
611.8450340136054	612.3907029478459	46	127
611.8450340136054	612.3907029478459	51	127
612.6461224489796	613.6678004535147	46	127
612.6461224489796	613.6678004535147	54	127
612.6461224489796	613.6678004535147	59	127
612.6461224489796	613.6678004535147	51	127
613.7839002267574	614.4340589569161	58	127
613.7839002267574	614.4340589569161	51	127
613.7839002267574	614.4340589569161	46	127
613.7839002267574	614.4340589569161	54	127
614.5849886621315	615.0841950113379	51	127
614.5849886621315	615.0841950113379	58	127
614.5849886621315	615.0841950113379	46	127
614.5849886621315	615.0841950113379	54	127
615.3512471655329	616.372925170068	54	127
615.3512471655329	616.372925170068	59	127
615.3512471655329	616.372925170068	51	127
615.3512471655329	616.372925170068	46	127
616.5819047619048	617.1275510204082	46	127
616.5819047619048	617.1275510204082	54	127
616.5819047619048	617.1275510204082	51	127
616.5819047619048	617.1275510204082	60	127
617.3133333333334	618.7297505668935	51	127
617.3133333333334	618.7297505668935	63	127
617.3133333333334	618.7297505668935	54	127
617.3133333333334	618.7297505668935	46	127
618.8110204081632	619.9139682539683	60	127
618.8110204081632	619.9139682539683	51	127
618.8110204081632	619.9139682539683	46	127
618.8110204081632	619.9139682539683	54	127
620.5989342403628	621.0749659863945	46	127
620.5989342403628	621.0749659863945	57	127
620.5989342403628	621.0749659863945	48	127
621.179455782313	621.8063945578232	46	127
621.179455782313	621.3884353741497	53	127
621.179455782313	621.8063945578232	50	127
621.492925170068	621.5509750566894	62	127
621.6090022675737	621.6902947845805	58	127
621.7715646258504	621.8295918367347	62	127
621.93410430839	622.0153741496599	65	127
622.0734240362812	622.1314739229025	60	127
622.3056235827664	622.3636734693878	57	127
622.4217233560091	622.5378231292517	60	127
622.6190929705216	622.7003628117914	53	127
622.7584126984127	622.8280725623583	60	127
622.8861224489796	622.9441723356009	57	127
623.0022222222223	623.0718820861678	60	127
623.1415419501134	623.211201814059	65	127
623.304081632653	623.3505215419501	62	127
623.3969614512472	623.4665986394558	58	127
623.524671201814	623.6291609977325	62	127
623.7104308390022	623.8149206349207	53	127
623.872947845805	623.9310204081632	62	127
623.9890702947846	624.1167800453514	58	127
624.1864399092971	624.2444897959184	62	127
624.3025396825396	624.360589569161	65	127
624.4186394557823	624.488276643991	60	127
624.5463492063492	624.6043990929705	57	127
624.6624489795919	624.7437188208617	60	127
624.801768707483	624.8598185941044	53	127
624.9178684807256	624.9759183673469	60	127
625.0455782312926	625.115238095238	57	127
625.1848979591837	625.242947845805	60	127
625.3125850340136	625.3822675736961	65	127
625.4403174603175	625.4867573696146	62	127
625.5448072562358	625.6028571428571	58	127
625.684126984127	625.7421768707483	62	127
625.8002267573696	625.858276643991	53	127
625.9163038548753	625.9743764172335	62	127
626.0440362811792	626.1020861678005	58	127
626.1601360544217	626.2065759637188	62	127
626.2646258503402	626.3226530612245	67	127
626.3807256235827	626.4503854875284	63	127
626.5084353741497	626.566485260771	58	127
626.6245351473923	626.6825850340136	63	127
626.740612244898	626.7986848072562	55	127
626.8567346938776	626.9263718820862	63	127
626.9844444444444	627.0424943310658	58	127
627.1121541950114	627.1702040816326	63	127
627.228253968254	627.2863038548753	67	127
627.3327437641724	627.4140136054422	63	127
627.4720634920635	627.5301133786849	58	127
627.5881632653061	627.669433106576	63	127
627.8203628117914	627.8784126984127	55	127
627.9364625850341	627.9945124716553	63	127
628.0525623582766	628.110612244898	60	127
628.1686394557823	628.2267120181406	63	127
628.2847619047619	628.3428117913833	67	127
628.4008616780045	628.4589115646259	63	127
628.5169614512472	628.5749886621315	60	127
628.6214512471655	628.6795011337869	63	127
628.7375510204082	628.7956009070294	55	127
628.8536507936508	628.9117006802721	63	127
628.9813378684808	629.0510204081633	60	127
629.0974603174603	629.1439002267574	63	127
629.2019501133786	629.26	67	127
629.3180498866213	629.38768707483	63	127
629.4573696145125	629.5154195011338	60	127
629.5850566893424	629.6431292517007	63	127
629.7127891156463	629.7708390022676	53	127
629.8288888888889	629.8985487528345	62	127
629.9565986394558	630.0378684807256	58	127
630.0959183673469	630.142358276644	62	127
630.2003854875284	630.2584580498866	65	127
630.316507936508	630.3745578231293	62	127
630.4326077097505	630.4906575963719	58	127
630.5487074829932	630.6183446712018	62	127
630.7809070294785	630.8389569160997	53	127
630.8970068027211	630.9666666666667	62	127
631.024693877551	631.0827664399093	58	127
631.1292063492064	631.1872562358277	62	127
631.2453061224489	631.3149659863946	65	127
631.3614058956916	631.419455782313	62	127
631.4775056689342	631.5355555555556	58	127
631.5936054421769	631.6516326530613	62	127
631.7213151927438	631.7793650793651	53	127
631.8258049886622	631.8838548752834	63	127
631.9419047619048	631.9999546485261	60	127
632.0579818594105	632.1160544217687	63	127
632.1624943310658	632.2205442176871	65	127
632.2785941043084	632.3366439909297	63	127
632.394693877551	632.4411337868481	60	127
632.4991836734694	632.6268934240363	63	127
632.6849433106576	632.7429931972789	53	127
632.8010430839003	632.8474829931973	60	127
632.9055328798186	632.9635827664399	57	127
633.0332426303855	633.0912925170068	60	127
633.1493424036281	633.2422222222223	65	127
633.3002721088435	633.3583219954648	60	127
633.4163718820862	633.497641723356	57	127
633.544081632653	633.6021315192744	60	127
633.6601814058957	633.764671201814	65	127
633.6601814058957	633.7762811791383	62	127
633.6601814058957	633.7762811791383	70	127
633.7762811791383	633.892358276644	53	127
633.892358276644	634.0084807256236	62	127
633.892358276644	634.0084807256236	70	127
633.892358276644	633.9968707482993	65	127
634.0084807256236	634.1129705215419	53	127
634.1129705215419	634.2174603174603	72	127
634.1129705215419	634.2174603174603	65	127
634.1129705215419	634.2174603174603	48	127
634.1129705215419	634.2058503401361	65	127
634.1129705215419	634.2174603174603	41	127
634.2174603174603	634.3219501133786	53	127
634.3219501133786	634.4612698412699	41	127
634.3219501133786	634.4612698412699	48	127
634.3219501133786	634.4496598639456	65	127
634.4612698412699	634.5773696145125	53	127
634.5773696145125	634.7050566893424	74	127
634.5773696145125	634.7050566893424	46	127
634.5773696145125	634.7050566893424	50	127
634.5773696145125	634.7050566893424	70	127
634.5773696145125	634.6934693877552	65	127
634.7050566893424	634.8560090702948	53	127
634.8560090702948	634.9721088435374	74	127
634.8560090702948	634.9721088435374	70	127
634.8560090702948	634.9604988662131	65	127
634.9721088435374	635.0765986394558	53	127
635.0765986394558	635.2043083900227	72	127
635.0765986394558	635.2043083900227	75	127
635.0765986394558	635.2043083900227	48	127
635.0765986394558	635.2043083900227	51	127
635.0765986394558	635.1926984126984	65	127
635.2043083900227	635.3087755102041	53	127
635.3087755102041	635.4248979591837	48	127
635.3087755102041	635.4132879818594	65	127
635.3087755102041	635.4248979591837	51	127
635.4248979591837	635.5409977324263	53	127
635.5409977324263	635.6454875283447	74	127
635.5409977324263	635.6454875283447	77	127
635.5409977324263	635.6454875283447	53	127
635.5409977324263	635.6454875283447	50	127
635.5409977324263	635.6338775510204	65	127
635.6454875283447	635.7615873015873	53	127
635.7615873015873	635.87768707483	74	127
635.7615873015873	635.87768707483	77	127
635.7615873015873	635.8660770975057	65	127
635.87768707483	635.9357142857143	53	127
635.9357142857143	636.0518367346939	55	127
635.9357142857143	636.0518367346939	51	127
635.9357142857143	636.0402267573696	65	127
635.9357142857143	636.0518367346939	79	127
635.9357142857143	636.0518367346939	75	127
636.0518367346939	636.1563265306122	53	127
636.1563265306122	636.3072562358277	55	127
636.1563265306122	636.2956462585034	65	127
636.1563265306122	636.3072562358277	51	127
636.3072562358277	636.4349659863946	53	127
636.4349659863946	636.5626757369614	81	127
636.4349659863946	636.5626757369614	57	127
636.4349659863946	636.5626757369614	77	127
636.4349659863946	636.5626757369614	53	127
636.4349659863946	636.5510430839003	65	127
636.5626757369614	636.6671655328798	53	127
636.6671655328798	636.7716553287981	65	127
636.6671655328798	636.7832653061224	77	127
636.6671655328798	636.7832653061224	81	127
636.7832653061224	636.8761451247166	53	127
636.8761451247166	636.9922448979592	58	127
636.8761451247166	636.9922448979592	55	127
636.8761451247166	636.9922448979592	82	127
636.8761451247166	636.9922448979592	79	127
636.8761451247166	636.9806349206349	65	127
636.9922448979592	637.0851247165533	53	127
637.0851247165533	637.1780045351474	58	127
637.0851247165533	637.1663718820862	65	127
637.0851247165533	637.1780045351474	55	127
637.1780045351474	637.2708843537415	53	127
637.2708843537415	637.3869841269841	57	127
637.2708843537415	637.3869841269841	53	127
637.2708843537415	637.3869841269841	81	127
637.2708843537415	637.3753514739229	65	127
637.2708843537415	637.3869841269841	77	127
637.3869841269841	637.5030839002268	53	127
637.5030839002268	637.6075736961451	65	127
637.5030839002268	637.6191836734694	77	127
637.5030839002268	637.6191836734694	81	127
637.6191836734694	637.7236734693878	53	127
637.7236734693878	637.8746031746032	79	127
637.7236734693878	637.8746031746032	51	127
637.7236734693878	637.8629931972789	65	127
637.7236734693878	637.8746031746032	75	127
637.7236734693878	637.8746031746032	55	127
637.8746031746032	637.9906802721089	53	127
637.9906802721089	638.1068027210885	65	127
637.9906802721089	638.1184126984127	51	127
637.9906802721089	638.1184126984127	55	127
638.1184126984127	638.2345124716553	53	127
638.2345124716553	638.3622222222223	65	127
638.2345124716553	638.3738321995465	77	127
638.2345124716553	638.3738321995465	74	127
638.2345124716553	638.3738321995465	53	127
638.2345124716553	638.3738321995465	50	127
638.3738321995465	638.4899319727891	53	127
638.4899319727891	638.6060090702948	77	127
638.4899319727891	638.5943990929705	65	127
638.4899319727891	638.6060090702948	74	127
638.6060090702948	638.6873015873016	53	127
638.6873015873016	638.7801814058957	65	127
638.6873015873016	638.791768707483	74	127
638.6873015873016	638.791768707483	47	127
638.6873015873016	638.791768707483	71	127
638.6873015873016	638.791768707483	50	127
638.791768707483	638.8962811791383	53	127
638.8962811791383	639.012358276644	50	127
638.8962811791383	639.0007482993198	65	127
638.8962811791383	639.012358276644	47	127
639.012358276644	639.1168707482993	53	127
639.1168707482993	639.2097278911565	65	127
639.1168707482993	639.2213605442176	72	127
639.1168707482993	639.2213605442176	51	127
639.1168707482993	639.2213605442176	75	127
639.1168707482993	639.2213605442176	48	127
639.2213605442176	639.3026303854875	53	127
639.3026303854875	639.4303401360544	65	127
639.3026303854875	639.4419501133787	75	127
639.3026303854875	639.4419501133787	72	127
639.4419501133787	639.5464399092971	53	127
639.5464399092971	639.6741496598639	65	127
639.5464399092971	639.6857596371882	71	127
639.5464399092971	639.6857596371882	68	127
639.5464399092971	639.6857596371882	47	127
639.5464399092971	639.6857596371882	44	127
639.6857596371882	639.7786394557824	53	127
639.7786394557824	639.8831292517007	47	127
639.7786394557824	639.8831292517007	44	127
639.7786394557824	639.8831292517007	65	127
639.8831292517007	639.941179138322	53	127
639.941179138322	640.0456689342403	72	127
639.941179138322	640.0456689342403	45	127
639.941179138322	640.0456689342403	48	127
639.941179138322	640.0340362811792	65	127
639.941179138322	640.0456689342403	69	127
640.0456689342403	640.161768707483	53	127
640.161768707483	640.2662585034013	65	127
640.161768707483	640.2778684807256	72	127
640.161768707483	640.2778684807256	69	127
640.2778684807256	640.382358276644	53	127
640.382358276644	640.4636281179138	65	127
640.382358276644	640.4752380952381	47	127
640.382358276644	640.4752380952381	50	127
640.382358276644	640.4752380952381	71	127
640.382358276644	640.4752380952381	74	127
640.4752380952381	640.5681179138322	53	127
640.5681179138322	640.6726077097505	50	127
640.5681179138322	640.6726077097505	65	127
640.5681179138322	640.6726077097505	47	127
640.6726077097505	640.777097505669	53	127
640.777097505669	640.8931972789115	75	127
640.777097505669	640.8931972789115	72	127
640.777097505669	640.8815873015873	65	127
640.777097505669	640.8931972789115	48	127
640.777097505669	640.8931972789115	51	127
640.8931972789115	641.0209070294785	53	127
641.0209070294785	641.1021768707483	75	127
641.0209070294785	641.090566893424	65	127
641.0209070294785	641.1021768707483	72	127
641.1021768707483	641.2066666666667	53	127
641.2066666666667	641.311156462585	65	127
641.2066666666667	641.3227664399093	71	127
641.2066666666667	641.3227664399093	59	127
641.2066666666667	641.3227664399093	44	127
641.2066666666667	641.3227664399093	68	127
641.2066666666667	641.3227664399093	47	127
641.3227664399093	641.4156462585034	53	127
641.4156462585034	641.5085260770975	65	127
641.4156462585034	641.5201360544218	44	127
641.4156462585034	641.5201360544218	47	127
641.4156462585034	641.5201360544218	59	127
641.5201360544218	641.6362358276644	53	127
641.6362358276644	641.752335600907	60	127
641.6362358276644	641.752335600907	69	127
641.6362358276644	641.752335600907	45	127
641.6362358276644	641.752335600907	48	127
641.6362358276644	641.7407256235828	65	127
641.6362358276644	641.752335600907	72	127
641.752335600907	641.8452154195012	53	127
641.8452154195012	641.9380952380952	65	127
641.8452154195012	641.9497052154195	69	127
641.8452154195012	641.9497052154195	72	127
641.9497052154195	642.0657823129252	53	127
642.0657823129252	642.1819047619048	63	127
642.0657823129252	642.1819047619048	51	127
642.0657823129252	642.1819047619048	72	127
642.0657823129252	642.1819047619048	75	127
642.0657823129252	642.1702947845805	65	127
642.0657823129252	642.1819047619048	48	127
642.1819047619048	642.2980045351474	53	127
642.2980045351474	642.41410430839	51	127
642.2980045351474	642.41410430839	48	127
642.2980045351474	642.4024943310658	65	127
642.2980045351474	642.41410430839	63	127
642.41410430839	642.5185941043084	53	127
642.5185941043084	642.6695011337869	50	127
642.5185941043084	642.6695011337869	77	127
642.5185941043084	642.7740136054422	53	127
642.5185941043084	642.6695011337869	74	127
642.5185941043084	642.6695011337869	65	127
642.5185941043084	642.6579138321996	65	127
642.6695011337869	642.7740136054422	53	127
642.7740136054422	642.8668934240363	77	127
642.7740136054422	642.8668934240363	65	127
642.7740136054422	642.8668934240363	74	127
642.8668934240363	642.9249433106576	53	127
642.9249433106576	643.0178231292517	61	127
642.9249433106576	643.0178231292517	49	127
642.9249433106576	643.0178231292517	45	127
642.9249433106576	643.0178231292517	69	127
642.9249433106576	643.0178231292517	73	127
642.9249433106576	643.0062131519275	65	127
643.0178231292517	643.1107029478458	53	127
643.1107029478458	643.2268027210885	45	127
643.1107029478458	643.2151927437642	65	127
643.1107029478458	643.2268027210885	61	127
643.1107029478458	643.2268027210885	49	127
643.2268027210885	643.3312925170068	53	127
643.3312925170068	643.4590022675737	46	127
643.3312925170068	643.4473922902495	65	127
643.3312925170068	643.4590022675737	70	127
643.3312925170068	643.4590022675737	62	127
643.3312925170068	643.4590022675737	74	127
643.3312925170068	643.4590022675737	50	127
643.4590022675737	643.5518820861678	53	127
643.5518820861678	643.6563718820862	65	127
643.5518820861678	643.6679818594105	70	127
643.5518820861678	643.6679818594105	74	127
643.6679818594105	643.7724716553288	53	127
643.7724716553288	643.8885714285715	74	127
643.7724716553288	643.8885714285715	53	127
643.7724716553288	643.8885714285715	65	127
643.7724716553288	643.8885714285715	77	127
643.7724716553288	643.8885714285715	50	127
643.7724716553288	643.8769614512472	65	127
643.8885714285715	643.9930612244898	53	127
643.9930612244898	644.1091383219955	50	127
643.9930612244898	644.0975510204082	65	127
643.9930612244898	644.1091383219955	53	127
643.9930612244898	644.1091383219955	65	127
644.1091383219955	644.2020408163265	53	127
644.2020408163265	644.3181179138322	51	127
644.2020408163265	644.3181179138322	67	127
644.2020408163265	644.3181179138322	55	127
644.2020408163265	644.306507936508	65	127
644.2020408163265	644.3181179138322	75	127
644.2020408163265	644.3181179138322	79	127
644.3181179138322	644.4226303854875	53	127
644.4226303854875	644.527097505669	65	127
644.4226303854875	644.5387301587301	79	127
644.4226303854875	644.5387301587301	75	127
644.5387301587301	644.6432199546485	53	127
644.6432199546485	644.7593197278911	50	127
644.6432199546485	644.7593197278911	71	127
644.6432199546485	644.7477097505669	65	127
644.6432199546485	644.7593197278911	62	127
644.6432199546485	644.7593197278911	74	127
644.6432199546485	644.7593197278911	47	127
644.7593197278911	644.8638095238096	53	127
644.8638095238096	644.9799092970521	65	127
644.8638095238096	644.9915192743764	62	127
644.8638095238096	644.9915192743764	47	127
644.8638095238096	644.9915192743764	50	127
644.9915192743764	645.0960090702948	53	127
645.0960090702948	645.2121088435374	63	127
645.0960090702948	645.2121088435374	72	127
645.0960090702948	645.2004988662131	65	127
645.0960090702948	645.2121088435374	48	127
645.0960090702948	645.2121088435374	51	127
645.0960090702948	645.2121088435374	75	127
645.2121088435374	645.2933786848073	53	127
645.2933786848073	645.4094784580499	75	127
645.2933786848073	645.4094784580499	72	127
645.2933786848073	645.3978684807256	65	127
645.4094784580499	645.455918367347	53	127
645.455918367347	645.5487755102041	55	127
645.455918367347	645.5487755102041	67	127
645.455918367347	645.5371655328798	65	127
645.455918367347	645.5487755102041	75	127
645.455918367347	645.5487755102041	79	127
645.455918367347	645.5487755102041	51	127
645.5487755102041	645.6532879818594	53	127
645.6532879818594	645.7809977324263	55	127
645.6532879818594	645.7809977324263	67	127
645.6532879818594	645.769387755102	65	127
645.6532879818594	645.7809977324263	51	127
645.7809977324263	645.8738775510204	53	127
645.8738775510204	645.989977324263	75	127
645.8738775510204	645.989977324263	69	127
645.8738775510204	645.989977324263	81	127
645.8738775510204	645.9783673469387	72	127
645.8738775510204	645.989977324263	57	127
645.8738775510204	645.989977324263	53	127
645.989977324263	646.0944671201814	65	127
646.0944671201814	646.1873469387755	81	127
646.0944671201814	646.1873469387755	72	127
646.0944671201814	646.1873469387755	75	127
646.1873469387755	646.2570068027211	65	127
646.2570068027211	646.3614739229025	72	127
646.2570068027211	646.3730839002268	77	127
646.2570068027211	646.3730839002268	69	127
646.2570068027211	646.3730839002268	41	127
646.2570068027211	646.3614739229025	65	127
646.2570068027211	646.3730839002268	53	127
646.3730839002268	646.4775963718821	53	127
646.3730839002268	646.4775963718821	65	127
646.4775963718821	646.5820861678004	53	127
646.4775963718821	646.5704535147393	65	127
646.4775963718821	646.5704535147393	72	127
646.4775963718821	646.5820861678004	41	127
646.5820861678004	646.6749659863946	53	127
646.5820861678004	646.6749659863946	65	127
646.6749659863946	646.779433106576	69	127
646.6749659863946	646.779433106576	84	127
646.6749659863946	646.779433106576	75	127
646.6749659863946	646.7678231292517	72	127
646.6749659863946	646.779433106576	53	127
646.6749659863946	646.779433106576	57	127
646.6749659863946	646.7678231292517	65	127
646.779433106576	646.8839455782313	53	127
646.779433106576	646.8839455782313	65	127
646.8839455782313	646.9303854875284	75	127
646.8839455782313	646.9303854875284	65	127
646.8839455782313	646.9303854875284	84	127
646.8839455782313	646.9303854875284	69	127
646.8839455782313	646.9303854875284	72	127
646.9303854875284	646.9768027210885	65	127
646.9303854875284	646.9768027210885	53	127
646.9768027210885	647.0813151927438	72	127
646.9768027210885	647.092925170068	72	127
646.9768027210885	647.092925170068	53	127
646.9768027210885	647.092925170068	75	127
646.9768027210885	647.092925170068	81	127
646.9768027210885	647.092925170068	41	127
646.9768027210885	647.0813151927438	65	127
647.092925170068	647.1974149659864	53	127
647.092925170068	647.1974149659864	65	127
647.1974149659864	647.313514739229	41	127
647.1974149659864	647.3019047619048	72	127
647.1974149659864	647.3019047619048	65	127
647.1974149659864	647.313514739229	53	127
647.313514739229	647.4180045351474	53	127
647.313514739229	647.4180045351474	65	127
647.4180045351474	647.5224943310658	72	127
647.4180045351474	647.5108843537415	75	127
647.4180045351474	647.5108843537415	65	127
647.4180045351474	647.5224943310658	65	127
647.4180045351474	647.5224943310658	89	127
647.4180045351474	647.5224943310658	53	127
647.4180045351474	647.5224943310658	60	127
647.4180045351474	647.5108843537415	69	127
647.4180045351474	647.5108843537415	53	127
647.5224943310658	647.6269841269841	69	127
647.5224943310658	647.6269841269841	65	127
647.5224943310658	647.6269841269841	53	127
647.5224943310658	647.6269841269841	75	127
647.6269841269841	647.7314739229025	65	127
647.6269841269841	647.7430839002268	65	127
647.6269841269841	647.7314739229025	69	127
647.6269841269841	647.7430839002268	72	127
647.6269841269841	647.7430839002268	89	127
647.6269841269841	647.7314739229025	75	127
647.6269841269841	647.7314739229025	53	127
647.7430839002268	647.8243537414966	75	127
647.7430839002268	647.8243537414966	65	127
647.7430839002268	647.8243537414966	69	127
647.7430839002268	647.8243537414966	53	127
647.8243537414966	647.928843537415	69	127
647.8243537414966	647.9404535147393	41	127
647.8243537414966	647.9404535147393	53	127
647.8243537414966	647.928843537415	75	127
647.8243537414966	647.9404535147393	77	127
647.8243537414966	647.9404535147393	81	127
647.8243537414966	647.928843537415	53	127
647.8243537414966	647.9404535147393	65	127
647.8243537414966	647.928843537415	65	127
647.9404535147393	648.0449433106576	53	127
647.9404535147393	648.0449433106576	75	127
647.9404535147393	648.0449433106576	69	127
647.9404535147393	648.0449433106576	65	127
648.0449433106576	648.1610430839003	41	127
648.0449433106576	648.149433106576	69	127
648.0449433106576	648.1610430839003	53	127
648.0449433106576	648.149433106576	75	127
648.0449433106576	648.149433106576	65	127
648.0449433106576	648.149433106576	53	127
648.1610430839003	648.2655328798186	53	127
648.1610430839003	648.2655328798186	65	127
648.1610430839003	648.2655328798186	69	127
648.1610430839003	648.2655328798186	75	127
648.2655328798186	648.3816326530613	69	127
648.2655328798186	648.3816326530613	65	127
648.2655328798186	648.3932426303855	60	127
648.2655328798186	648.3932426303855	89	127
648.2655328798186	648.3932426303855	65	127
648.2655328798186	648.3932426303855	72	127
648.2655328798186	648.3932426303855	53	127
648.2655328798186	648.3816326530613	53	127
648.2655328798186	648.3816326530613	75	127
648.3932426303855	648.4977324263039	53	127
648.3932426303855	648.4977324263039	75	127
648.3932426303855	648.4977324263039	69	127
648.3932426303855	648.4977324263039	65	127
648.4977324263039	648.590612244898	65	127
648.4977324263039	648.5790022675737	65	127
648.4977324263039	648.5790022675737	75	127
648.4977324263039	648.590612244898	72	127
648.4977324263039	648.5790022675737	53	127
648.4977324263039	648.590612244898	89	127
648.4977324263039	648.5790022675737	69	127
648.590612244898	648.6951020408163	65	127
648.590612244898	648.6951020408163	69	127
648.590612244898	648.6951020408163	75	127
648.590612244898	648.6951020408163	53	127
648.6951020408163	648.7995918367347	53	127
648.6951020408163	648.7995918367347	65	127
648.6951020408163	648.811179138322	41	127
648.6951020408163	648.811179138322	81	127
648.6951020408163	648.7995918367347	75	127
648.6951020408163	648.811179138322	65	127
648.6951020408163	648.811179138322	53	127
648.6951020408163	648.7995918367347	69	127
648.6951020408163	648.811179138322	77	127
648.811179138322	648.9156916099773	65	127
648.811179138322	648.9156916099773	69	127
648.811179138322	648.9156916099773	75	127
648.811179138322	648.9156916099773	53	127
648.9156916099773	648.9969614512472	75	127
648.9156916099773	648.9969614512472	69	127
648.9156916099773	648.9969614512472	53	127
648.9156916099773	648.9969614512472	65	127
648.9156916099773	649.0085487528345	41	127
648.9156916099773	649.0085487528345	53	127
649.0085487528345	649.1014512471655	65	127
649.0085487528345	649.1014512471655	75	127
649.0085487528345	649.1014512471655	53	127
649.0085487528345	649.1014512471655	69	127
649.1014512471655	649.2175283446712	46	127
649.1014512471655	649.2175283446712	70	127
649.1014512471655	649.2175283446712	74	127
649.1014512471655	649.2175283446712	74	127
649.1014512471655	649.2175283446712	82	127
649.1014512471655	649.2175283446712	58	127
649.1014512471655	649.2175283446712	65	127
649.1014512471655	649.2175283446712	65	127
649.1014512471655	649.2175283446712	53	127
649.5310204081633	649.5890702947846	72	127
649.5310204081633	649.5890702947846	65	127
649.5310204081633	649.647097505669	53	127
649.5310204081633	649.647097505669	69	127
649.5310204081633	649.5890702947846	84	127
649.5310204081633	649.647097505669	77	127
649.647097505669	649.6935600907029	84	127
649.647097505669	649.6935600907029	65	127
649.647097505669	649.6935600907029	72	127
649.74	649.8560997732426	53	127
649.74	649.7980498866214	72	127
649.74	649.7980498866214	65	127
649.74	649.7980498866214	84	127
649.74	649.8560997732426	69	127
649.74	649.8560997732426	77	127
649.8560997732426	649.9025396825397	65	127
649.8560997732426	649.9025396825397	72	127
649.8560997732426	649.9025396825397	84	127
649.960589569161	650.0766893424036	46	127
649.960589569161	650.1695691609978	70	127
649.960589569161	650.0766893424036	74	127
649.960589569161	650.0766893424036	86	127
649.960589569161	650.0766893424036	74	127
649.960589569161	650.0766893424036	70	127
650.355328798186	650.4714285714285	89	127
650.355328798186	650.4714285714285	53	127
650.355328798186	650.4133786848073	65	127
650.355328798186	650.4714285714285	60	127
650.355328798186	650.4133786848073	72	127
650.355328798186	650.4714285714285	77	127
650.355328798186	650.4714285714285	41	127
650.355328798186	650.4714285714285	69	127
650.4714285714285	650.5178684807256	72	127
650.4714285714285	650.5178684807256	65	127
650.575918367347	650.6920181405895	60	127
650.575918367347	650.6920181405895	41	127
650.575918367347	650.6339682539683	65	127
650.575918367347	650.6920181405895	77	127
650.575918367347	650.6920181405895	69	127
650.575918367347	650.6920181405895	53	127
650.575918367347	650.6920181405895	89	127
650.575918367347	650.6339682539683	72	127
650.6920181405895	650.7384580498866	65	127
650.6920181405895	650.7384580498866	72	127
650.796507936508	650.9126077097505	65	127
650.796507936508	650.9126077097505	46	127
650.796507936508	650.9126077097505	62	127
650.796507936508	650.9126077097505	70	127
650.796507936508	650.9126077097505	74	127
650.796507936508	650.9126077097505	86	127
650.796507936508	651.017097505669	46	127
650.796507936508	650.9126077097505	74	127
650.796507936508	650.9126077097505	53	127
651.2028571428572	651.2608843537415	65	127
651.2028571428572	651.3073469387755	53	127
651.2028571428572	651.2608843537415	84	127
651.2028571428572	651.3073469387755	69	127
651.2028571428572	651.2608843537415	72	127
651.2028571428572	651.3073469387755	77	127
651.3073469387755	651.3537868480726	65	127
651.3073469387755	651.3537868480726	84	127
651.3073469387755	651.3537868480726	72	127
651.4002267573696	651.5163265306122	53	127
651.4002267573696	651.458276643991	72	127
651.4002267573696	651.458276643991	84	127
651.4002267573696	651.5163265306122	69	127
651.4002267573696	651.5163265306122	77	127
651.4002267573696	651.458276643991	65	127
651.5163265306122	651.5627664399093	72	127
651.5163265306122	651.5627664399093	65	127
651.5163265306122	651.5627664399093	84	127
651.6208163265306	651.8414058956917	70	127
651.6208163265306	651.7369160997732	86	127
651.6208163265306	651.7369160997732	46	127
651.6208163265306	651.7369160997732	74	127
651.6208163265306	651.7369160997732	70	127
651.6208163265306	651.7369160997732	74	127
652.0387755102041	652.1548752834467	41	127
652.0387755102041	652.0968027210885	65	127
652.0387755102041	652.1548752834467	53	127
652.0387755102041	652.1548752834467	89	127
652.0387755102041	652.1548752834467	77	127
652.0387755102041	652.1548752834467	69	127
652.0387755102041	652.0968027210885	72	127
652.0387755102041	652.1548752834467	60	127
652.1548752834467	652.2013151927438	65	127
652.1548752834467	652.2013151927438	72	127
652.2593650793651	652.3754648526077	77	127
652.2593650793651	652.3754648526077	89	127
652.2593650793651	652.3754648526077	41	127
652.2593650793651	652.3754648526077	53	127
652.2593650793651	652.3754648526077	60	127
652.2593650793651	652.3174149659864	65	127
652.2593650793651	652.3754648526077	69	127
652.2593650793651	652.3174149659864	72	127
652.3754648526077	652.4102947845805	72	127
652.3754648526077	652.4102947845805	65	127
652.4683446712019	652.5844444444444	53	127
652.4683446712019	652.5844444444444	86	127
652.4683446712019	652.5844444444444	74	127
652.4683446712019	652.5844444444444	65	127
652.4683446712019	652.5844444444444	62	127
652.4683446712019	652.5844444444444	70	127
652.4683446712019	652.5844444444444	46	127
652.4683446712019	652.5844444444444	74	127
652.8863038548753	652.9907936507936	65	127
652.8863038548753	652.9907936507936	77	127
653.0024036281179	653.1068707482993	77	127
653.0024036281179	653.1068707482993	65	127
653.1068707482993	653.2113832199547	77	127
653.1068707482993	653.2113832199547	65	127
653.2229931972789	653.3274603174603	77	127
653.2229931972789	653.3274603174603	65	127
653.3274603174603	653.5712925170068	57	127
653.3274603174603	653.4319727891157	77	127
653.3274603174603	653.5712925170068	65	127
653.3274603174603	653.5712925170068	53	127
653.3274603174603	653.5016326530613	65	127
653.3274603174603	653.4319727891157	65	127
653.3274603174603	653.4319727891157	57	127
653.3274603174603	653.5712925170068	60	127
653.3855328798186	653.5016326530613	72	127
653.4435827664399	653.5712925170068	65	127
653.4435827664399	653.5712925170068	77	127
653.5712925170068	653.6990022675737	77	127
653.5712925170068	653.6990022675737	65	127
653.710612244898	653.8151020408163	65	127
653.710612244898	653.8151020408163	77	127
653.8151020408163	653.9195691609978	65	127
653.8151020408163	654.0240816326531	57	127
653.8151020408163	653.977641723356	65	127
653.8151020408163	654.0240816326531	60	127
653.8151020408163	654.0240816326531	53	127
653.8151020408163	653.9195691609978	77	127
653.8151020408163	654.0240816326531	65	127
653.8151020408163	653.9195691609978	57	127
653.8731519274377	653.977641723356	72	127
653.931179138322	654.0240816326531	65	127
653.931179138322	654.0240816326531	77	127
654.0240816326531	654.1285487528345	65	127
654.0240816326531	654.1285487528345	77	127
654.1401587301588	654.2446712018141	77	127
654.1401587301588	654.2446712018141	65	127
654.2446712018141	654.4652607709751	58	127
654.2446712018141	654.4652607709751	46	127
654.2446712018141	654.4072108843537	65	127
654.2446712018141	654.4652607709751	70	127
654.2446712018141	654.4652607709751	74	127
654.2446712018141	654.4652607709751	65	127
654.2446712018141	654.4652607709751	58	127
654.2446712018141	654.3491383219955	58	127
654.3027210884354	654.4072108843537	74	127
654.6742403628118	654.7787301587301	77	127
654.6742403628118	654.7787301587301	65	127
654.7903401360544	654.8948299319728	77	127
654.7903401360544	654.8948299319728	65	127
654.8948299319728	654.9993197278911	65	127
654.8948299319728	654.9993197278911	77	127
655.0109297052154	655.1154195011338	65	127
655.0109297052154	655.1154195011338	77	127
655.1154195011338	655.2663492063492	75	127
655.1154195011338	655.2082993197279	65	127
655.1154195011338	655.3243990929706	41	127
655.1154195011338	655.3243990929706	65	127
655.1154195011338	655.3243990929706	53	127
655.1154195011338	655.2082993197279	65	127
655.1154195011338	655.3243990929706	72	127
655.1154195011338	655.2082993197279	77	127
655.1618367346939	655.2663492063492	81	127
655.2199092970521	655.3243990929706	77	127
655.2199092970521	655.3243990929706	65	127
655.3243990929706	655.4404988662131	77	127
655.3243990929706	655.4404988662131	65	127
655.4521088435374	655.5565759637188	77	127
655.4521088435374	655.5565759637188	65	127
655.5565759637188	655.7655555555556	41	127
655.5565759637188	655.6610884353742	65	127
655.5565759637188	655.6610884353742	77	127
655.5565759637188	655.7655555555556	65	127
655.5565759637188	655.6610884353742	65	127
655.5565759637188	655.7655555555556	53	127
655.5565759637188	655.7191383219955	75	127
655.5565759637188	655.7655555555556	72	127
655.6146485260771	655.7191383219955	81	127
655.6726984126984	655.7655555555556	65	127
655.6726984126984	655.7655555555556	77	127
655.7655555555556	655.8700680272109	77	127
655.7655555555556	655.8700680272109	65	127
655.8816780045352	655.9745351473923	65	127
655.8816780045352	655.9745351473923	77	127
655.9745351473923	656.3344671201814	70	127
655.9745351473923	656.3344671201814	74	127
655.9745351473923	656.1138775510204	65	127
655.9745351473923	656.3344671201814	62	127
655.9745351473923	656.3344671201814	46	127
655.9745351473923	656.3344671201814	58	127
655.9745351473923	656.3344671201814	58	127
655.9745351473923	656.1719047619048	74	127
656.0326077097506	656.1719047619048	82	127
657.112335600907	657.3793650793651	46	127
657.112335600907	657.3793650793651	62	127
657.112335600907	657.3793650793651	53	127
657.112335600907	657.3793650793651	58	127
657.112335600907	657.3793650793651	53	127
657.112335600907	657.3793650793651	62	127
657.112335600907	657.3793650793651	70	127
658.1456235827665	659.2021315192744	58	127
658.1456235827665	659.2021315192744	53	127
658.1456235827665	659.2021315192744	70	127
658.1456235827665	659.2021315192744	46	127
658.1456235827665	659.2021315192744	62	127
658.1456235827665	659.2021315192744	62	127
658.1456235827665	659.2021315192744	53	127
660.4443990929706	660.7346485260771	46	127
