# onset,offset,note,velocity
0.6377777777777778	1.9613151927437642	57	127
0.6377777777777778	1.9613151927437642	69	127
0.6377777777777778	2.6463038548752835	48	127
0.6377777777777778	1.9613151927437642	41	127
1.9613151927437642	2.6463038548752835	58	127
1.9613151927437642	2.193514739229025	67	127
1.9613151927437642	2.6463038548752835	43	127
2.193514739229025	2.6346938775510202	69	127
2.6463038548752835	3.110702947845805	45	127
2.6463038548752835	3.110702947845805	64	127
2.6463038548752835	3.110702947845805	60	127
2.6463038548752835	3.110702947845805	55	127
3.110702947845805	3.5983219954648527	62	127
3.110702947845805	3.5983219954648527	53	127
3.110702947845805	3.5983219954648527	46	127
3.5983219954648527	3.8189115646258505	69	127
3.5983219954648527	4.039501133786848	48	127
3.5983219954648527	5.293378684807256	58	127
3.5983219954648527	4.039501133786848	64	127
3.8189115646258505	4.039501133786848	65	127
4.039501133786848	4.492290249433107	50	127
4.039501133786848	4.271700680272109	72	127
4.039501133786848	4.492290249433107	65	127
4.271700680272109	4.492290249433107	76	127
4.492290249433107	4.945056689342404	67	127
4.492290249433107	4.945056689342404	52	127
4.492290249433107	5.293378684807256	74	127
4.945056689342404	5.421065759637188	69	127
4.945056689342404	5.328208616780046	53	127
5.421065759637188	5.873877551020408	77	127
5.421065759637188	5.873877551020408	70	127
5.421065759637188	5.873877551020408	55	127
5.421065759637188	6.3382766439909295	62	127
5.873877551020408	6.3382766439909295	72	127
5.873877551020408	6.117687074829932	76	127
5.873877551020408	6.3382766439909295	57	127
6.117687074829932	6.3382766439909295	81	127
6.3382766439909295	6.837505668934241	79	127
6.3382766439909295	6.837505668934241	74	127
6.3382766439909295	6.837505668934241	65	127
6.3382766439909295	6.837505668934241	58	127
6.837505668934241	7.081315192743764	77	127
6.837505668934241	7.301904761904762	60	127
6.837505668934241	7.301904761904762	76	127
6.837505668934241	7.301904761904762	70	127
7.081315192743764	7.301904761904762	76	127
7.301904761904762	7.801133786848072	77	127
7.301904761904762	9.414920634920636	70	127
7.301904761904762	7.801133786848072	62	127
7.301904761904762	7.534104308390023	74	127
7.534104308390023	7.801133786848072	81	127
7.801133786848072	9.414920634920636	84	127
7.801133786848072	8.195873015873016	79	127
7.801133786848072	8.335192743764173	64	127
8.335192743764173	8.892471655328798	65	127
8.335192743764173	8.613832199546485	74	127
8.613832199546485	8.741519274376417	81	127
8.892471655328798	9.461360544217687	64	127
8.892471655328798	9.461360544217687	79	127
9.577460317460318	10.041836734693877	77	127
9.577460317460318	10.529478458049887	63	127
9.577460317460318	9.809659863945578	73	127
9.577460317460318	10.041836734693877	87	127
9.809659863945578	10.041836734693877	68	127
10.041836734693877	10.529478458049887	75	127
10.041836734693877	10.297256235827664	82	127
10.041836734693877	10.529478458049887	67	127
10.297256235827664	10.529478458049887	87	127
10.529478458049887	11.063537414965987	72	127
10.529478458049887	11.063537414965987	68	127
10.529478458049887	11.063537414965987	77	127
10.529478458049887	11.527936507936507	61	127
11.063537414965987	11.527936507936507	70	127
11.063537414965987	11.527936507936507	67	127
11.063537414965987	11.45827664399093	75	127
11.527936507936507	12.027165532879819	65	127
11.527936507936507	11.80657596371882	80	127
11.527936507936507	12.027165532879819	68	127
11.527936507936507	12.027165532879819	60	127
11.80657596371882	12.027165532879819	73	127
12.027165532879819	12.270975056689343	73	127
12.027165532879819	12.479954648526077	67	127
12.027165532879819	12.479954648526077	63	127
12.027165532879819	12.479954648526077	58	127
12.270975056689343	12.479954648526077	77	127
12.479954648526077	12.967573696145125	56	127
12.479954648526077	12.967573696145125	70	127
12.479954648526077	12.967573696145125	65	127
12.479954648526077	12.967573696145125	61	127
12.967573696145125	13.397142857142857	61	127
12.967573696145125	13.397142857142857	68	127
12.967573696145125	13.966031746031746	58	127
12.967573696145125	13.966031746031746	53	127
13.478412698412699	13.966031746031746	62	127
13.478412698412699	13.710612244897959	68	127
13.710612244897959	13.966031746031746	72	127
13.966031746031746	14.465260770975057	51	127
13.966031746031746	14.465260770975057	65	127
13.966031746031746	14.465260770975057	60	127
13.966031746031746	14.465260770975057	56	127
14.465260770975057	14.709070294784581	68	127
14.465260770975057	14.871609977324264	48	127
14.465260770975057	14.941269841269841	63	127
14.465260770975057	14.941269841269841	53	127
14.709070294784581	14.941269841269841	72	127
14.941269841269841	15.707528344671202	65	127
14.941269841269841	15.463718820861677	60	127
14.941269841269841	15.463718820861677	51	127
14.941269841269841	15.463718820861677	44	127
15.463718820861677	16.067437641723355	50	127
15.463718820861677	16.067437641723355	58	127
15.463718820861677	16.61310657596372	44	127
15.707528344671202	16.067437641723355	62	127
16.067437641723355	16.61310657596372	56	127
16.067437641723355	16.61310657596372	48	127
16.067437641723355	16.334444444444443	63	127
16.334444444444443	16.61310657596372	65	127
16.61310657596372	17.739274376417235	43	127
16.61310657596372	17.27487528344671	67	127
16.61310657596372	17.37936507936508	50	127
16.61310657596372	17.739274376417235	58	127
17.37936507936508	17.785714285714285	55	127
17.8553514739229	18.969931972789116	43	127
17.8553514739229	18.969931972789116	50	127
17.8553514739229	18.44748299319728	57	127
17.8553514739229	18.44748299319728	86	127
17.8553514739229	18.969931972789116	65	127
18.44748299319728	18.969931972789116	59	127
18.44748299319728	18.969931972789116	81	127
18.969931972789116	19.933560090702947	46	127
18.969931972789116	19.457551020408165	79	127
18.969931972789116	19.457551020408165	60	127
18.969931972789116	19.933560090702947	53	127
18.969931972789116	20.873968253968254	68	127
19.457551020408165	19.933560090702947	62	127
19.457551020408165	19.933560090702947	77	127
19.933560090702947	21.338367346938774	50	127
19.933560090702947	20.873968253968254	60	127
19.933560090702947	20.386349206349205	76	127
20.386349206349205	20.641768707482992	74	127
20.641768707482992	20.873968253968254	76	127
20.873968253968254	21.106167800453516	77	127
20.873968253968254	21.338367346938774	59	127
20.873968253968254	21.338367346938774	69	127
21.106167800453516	21.338367346938774	79	127
21.338367346938774	21.73310657596372	81	127
21.338367346938774	21.73310657596372	73	127
21.338367346938774	21.73310657596372	46	127
21.338367346938774	21.73310657596372	53	127
21.338367346938774	21.8027664399093	65	127
21.8027664399093	22.76639455782313	43	127
21.8027664399093	22.76639455782313	50	127
21.8027664399093	22.27877551020408	86	127
21.8027664399093	22.27877551020408	57	127
21.8027664399093	22.76639455782313	65	127
22.27877551020408	22.76639455782313	81	127
22.27877551020408	22.76639455782313	59	127
22.76639455782313	24.705260770975055	68	127
22.76639455782313	23.242403628117913	60	127
22.76639455782313	23.242403628117913	79	127
22.76639455782313	23.776462585034015	46	127
22.76639455782313	23.776462585034015	53	127
23.242403628117913	23.69517006802721	62	127
23.242403628117913	23.776462585034015	77	127
23.776462585034015	24.705260770975055	60	127
23.776462585034015	25.076780045351473	50	127
23.776462585034015	24.240861678004535	76	127
24.240861678004535	24.48467120181406	74	127
24.48467120181406	24.705260770975055	76	127
24.705260770975055	25.111609977324264	59	127
24.705260770975055	24.94907029478458	77	127
24.705260770975055	25.192879818594104	69	127
24.94907029478458	25.192879818594104	79	127
25.192879818594104	25.645668934240362	46	127
25.192879818594104	25.645668934240362	65	127
25.192879818594104	25.645668934240362	81	127
25.192879818594104	25.645668934240362	73	127
25.192879818594104	25.645668934240362	53	127
25.645668934240362	26.12167800453515	86	127
25.645668934240362	26.12167800453515	57	127
25.645668934240362	26.562857142857144	65	127
25.645668934240362	26.562857142857144	43	127
25.645668934240362	26.562857142857144	50	127
26.12167800453515	26.562857142857144	81	127
26.12167800453515	26.562857142857144	59	127
26.562857142857144	27.015646258503402	79	127
26.562857142857144	27.526485260770976	46	127
26.562857142857144	27.015646258503402	60	127
26.562857142857144	27.526485260770976	68	127
27.015646258503402	27.456825396825398	77	127
27.015646258503402	27.526485260770976	62	127
27.526485260770976	28.397233560090704	65	127
27.526485260770976	28.397233560090704	50	127
27.526485260770976	27.96766439909297	57	127
27.526485260770976	27.96766439909297	86	127
27.526485260770976	28.397233560090704	43	127
27.96766439909297	28.397233560090704	59	127
27.96766439909297	28.397233560090704	81	127
28.397233560090704	28.80358276643991	60	127
28.397233560090704	28.80358276643991	79	127
28.397233560090704	29.233151927437643	68	127
28.397233560090704	29.233151927437643	46	127
28.80358276643991	29.1518820861678	77	127
28.80358276643991	29.233151927437643	62	127
29.233151927437643	30.127120181405896	50	127
29.233151927437643	29.65111111111111	86	127
29.233151927437643	29.65111111111111	57	127
29.233151927437643	30.127120181405896	65	127
29.233151927437643	30.127120181405896	43	127
29.65111111111111	30.127120181405896	59	127
29.65111111111111	30.127120181405896	81	127
30.127120181405896	30.591519274376417	60	127
30.127120181405896	31.044308390022675	46	127
30.127120181405896	30.591519274376417	79	127
30.127120181405896	31.044308390022675	68	127
30.591519274376417	30.974648526077097	77	127
30.591519274376417	31.044308390022675	62	127
31.044308390022675	31.5087074829932	86	127
31.044308390022675	31.5087074829932	59	127
31.044308390022675	32.007936507936506	65	127
31.044308390022675	32.007936507936506	43	127
31.044308390022675	32.007936507936506	50	127
31.5087074829932	32.007936507936506	60	127
31.5087074829932	32.007936507936506	81	127
32.007936507936506	33.22698412698413	48	127
32.007936507936506	33.22698412698413	58	127
32.007936507936506	32.65807256235828	62	127
32.007936507936506	32.65807256235828	79	127
32.65807256235828	33.13410430839002	64	127
32.65807256235828	33.13410430839002	77	127
33.22698412698413	33.679750566893425	72	127
33.22698412698413	33.679750566893425	84	127
33.22698412698413	33.679750566893425	57	127
33.22698412698413	34.132562358276644	41	127
33.679750566893425	34.132562358276644	81	127
33.679750566893425	34.132562358276644	69	127
33.679750566893425	33.911972789115644	55	127
33.911972789115644	34.132562358276644	57	127
34.132562358276644	34.585351473922906	76	127
34.132562358276644	34.585351473922906	64	127
34.132562358276644	34.585351473922906	55	127
34.132562358276644	34.585351473922906	45	127
34.132562358276644	34.91043083900227	69	127
34.585351473922906	35.0265306122449	74	127
34.585351473922906	35.0265306122449	62	127
34.585351473922906	35.0265306122449	53	127
34.585351473922906	35.0265306122449	46	127
35.0265306122449	35.444489795918365	64	127
35.0265306122449	35.22390022675737	81	127
35.0265306122449	35.444489795918365	69	127
35.0265306122449	35.444489795918365	48	127
35.0265306122449	36.709977324263036	58	127
35.22390022675737	35.444489795918365	77	127
35.444489795918365	35.89727891156463	65	127
35.444489795918365	35.89727891156463	50	127
35.444489795918365	35.665079365079364	84	127
35.665079365079364	35.89727891156463	88	127
35.89727891156463	36.35004535147392	67	127
35.89727891156463	36.35004535147392	52	127
35.89727891156463	36.709977324263036	86	127
36.35004535147392	36.74480725623583	69	127
36.35004535147392	36.74480725623583	53	127
36.814467120181405	37.255646258503404	89	127
36.814467120181405	37.255646258503404	70	127
36.814467120181405	37.255646258503404	55	127
37.255646258503404	37.4878231292517	88	127
37.255646258503404	37.696825396825396	57	127
37.255646258503404	37.696825396825396	72	127
37.4878231292517	37.696825396825396	93	127
37.696825396825396	38.114761904761906	74	127
37.696825396825396	38.114761904761906	91	127
37.696825396825396	38.114761904761906	58	127
38.114761904761906	38.567573696145125	60	127
38.114761904761906	38.33537414965986	89	127
38.114761904761906	38.48630385487528	76	127
38.33537414965986	38.567573696145125	88	127
38.567573696145125	39.00873015873016	62	127
38.567573696145125	39.00873015873016	86	127
38.567573696145125	39.00873015873016	77	127
39.00873015873016	39.57764172335601	64	127
39.00873015873016	39.35705215419501	84	127
39.00873015873016	39.57764172335601	79	127
39.00873015873016	40.042040816326534	70	127
39.35705215419501	39.57764172335601	89	127
39.57764172335601	40.042040816326534	81	127
39.57764172335601	40.042040816326534	65	127
39.57764172335601	40.042040816326534	86	127
40.042040816326534	40.27421768707483	84	127
40.042040816326534	40.436780045351476	76	127
40.042040816326534	40.51804988662131	70	127
40.042040816326534	40.51804988662131	67	127
40.27421768707483	40.51804988662131	82	127
40.51804988662131	41.470068027210885	69	127
40.51804988662131	40.88956916099773	69	127
40.51804988662131	41.8415873015873	81	127
40.98244897959184	41.470068027210885	71	127
41.470068027210885	42.30596371882086	73	127
41.470068027210885	42.9097052154195	59	127
41.470068027210885	42.9097052154195	65	127
41.9692970521542	42.42208616780045	77	127
42.42208616780045	43.86172335600907	81	127
42.97936507936508	43.432154195011336	71	127
43.432154195011336	45.0459410430839	59	127
43.432154195011336	44.34934240362812	73	127
43.432154195011336	45.0459410430839	65	127
43.9778231292517	44.50027210884354	77	127
44.50027210884354	46.04439909297052	81	127
45.185260770975056	45.63804988662132	71	127
45.63804988662132	46.67133786848073	73	127
45.63804988662132	46.775827664399095	59	127
45.63804988662132	46.775827664399095	65	127
46.323038548752834	46.706167800453514	77	127
46.775827664399095	48.27351473922902	36	127
46.775827664399095	47.01963718820862	52	127
46.775827664399095	47.01963718820862	61	127
46.775827664399095	47.588526077097505	81	127
47.01963718820862	47.13573696145125	63	127
47.01963718820862	47.124104308390024	52	127
47.13573696145125	47.24022675736961	55	127
47.13573696145125	47.25181405895692	64	127
47.25181405895692	47.35632653061224	55	127
47.25181405895692	47.35632653061224	66	127
47.35632653061224	47.472426303854874	64	127
47.35632653061224	47.472426303854874	58	127
47.472426303854874	47.588526077097505	58	127
47.472426303854874	47.588526077097505	66	127
47.588526077097505	47.82072562358277	79	127
47.588526077097505	47.704625850340136	67	127
47.588526077097505	47.693015873015874	61	127
47.704625850340136	47.82072562358277	69	127
47.704625850340136	47.809115646258505	61	127
47.82072562358277	48.49410430839002	81	127
47.82072562358277	47.925215419501136	58	127
47.82072562358277	47.925215419501136	67	127
47.925215419501136	48.04131519274377	69	127
47.925215419501136	48.04131519274377	58	127
48.04131519274377	48.1574149659864	61	127
48.04131519274377	48.1574149659864	70	127
48.1574149659864	48.26190476190476	61	127
48.1574149659864	48.27351473922902	72	127
48.27351473922902	48.38961451247165	70	127
48.27351473922902	48.37800453514739	64	127
48.27351473922902	48.63342403628118	48	127
48.38961451247165	48.49410430839002	72	127
48.38961451247165	48.49410430839002	64	127
48.49410430839002	48.59859410430839	73	127
48.49410430839002	48.71469387755102	76	127
48.49410430839002	48.59859410430839	67	127
48.59859410430839	48.71469387755102	75	127
48.59859410430839	48.71469387755102	67	127
48.71469387755102	48.81918367346939	69	127
48.71469387755102	48.83079365079365	74	127
48.71469387755102	49.121043083900226	60	127
48.71469387755102	48.81918367346939	65	127
48.71469387755102	48.93528344671202	76	127
48.83079365079365	48.93528344671202	76	127
48.83079365079365	48.93528344671202	65	127
48.83079365079365	48.93528344671202	69	127
48.93528344671202	49.05138321995465	74	127
48.93528344671202	49.05138321995465	62	127
48.93528344671202	49.121043083900226	77	127
49.05138321995465	49.121043083900226	62	127
49.05138321995465	49.121043083900226	69	127
49.121043083900226	49.21392290249433	62	127
49.121043083900226	49.33002267573696	81	127
49.121043083900226	49.20231292517007	57	127
49.121043083900226	49.48095238095238	48	127
49.21392290249433	49.33002267573696	64	127
49.21392290249433	49.3184126984127	57	127
49.33002267573696	49.43451247165533	53	127
49.33002267573696	49.43451247165533	62	127
49.33002267573696	49.55061224489796	86	127
49.43451247165533	49.55061224489796	53	127
49.43451247165533	49.55061224489796	57	127
49.55061224489796	49.666712018140586	52	127
49.55061224489796	49.666712018140586	61	127
49.55061224489796	50.874149659863946	36	127
49.55061224489796	50.22399092970522	81	127
49.666712018140586	49.78281179138322	63	127
49.666712018140586	49.771201814058955	52	127
49.78281179138322	49.887301587301586	55	127
49.78281179138322	49.89891156462585	64	127
49.89891156462585	50.00340136054422	66	127
49.89891156462585	50.00340136054422	55	127
50.00340136054422	50.107891156462586	58	127
50.00340136054422	50.107891156462586	64	127
50.107891156462586	50.22399092970522	58	127
50.107891156462586	50.22399092970522	66	127
50.22399092970522	50.444580498866216	79	127
50.22399092970522	50.328480725623585	67	127
50.22399092970522	50.31687074829932	61	127
50.328480725623585	50.43297052154195	61	127
50.328480725623585	50.444580498866216	69	127
50.444580498866216	50.54907029478458	67	127
50.444580498866216	50.54907029478458	58	127
50.444580498866216	51.08312925170068	81	127
50.54907029478458	50.66517006802721	69	127
50.54907029478458	50.66517006802721	58	127
50.66517006802721	50.758049886621315	70	127
50.66517006802721	50.74643990929705	61	127
50.758049886621315	50.874149659863946	72	127
50.758049886621315	50.86253968253968	61	127
50.874149659863946	50.978639455782314	64	127
50.874149659863946	51.2340589569161	48	127
50.874149659863946	50.978639455782314	70	127
50.978639455782314	51.08312925170068	64	127
50.978639455782314	51.08312925170068	72	127
51.08312925170068	51.199229024943314	67	127
51.08312925170068	51.199229024943314	73	127
51.08312925170068	51.303718820861675	76	127
51.199229024943314	51.31532879818594	75	127
51.199229024943314	51.303718820861675	67	127
51.31532879818594	51.43142857142857	74	127
51.31532879818594	51.419818594104306	65	127
51.31532879818594	51.419818594104306	69	127
51.31532879818594	51.524308390022675	76	127
51.31532879818594	51.75650793650794	60	127
51.43142857142857	51.524308390022675	76	127
51.43142857142857	51.524308390022675	65	127
51.43142857142857	51.524308390022675	69	127
51.524308390022675	51.640408163265306	74	127
51.524308390022675	51.75650793650794	77	127
51.524308390022675	51.640408163265306	62	127
51.640408163265306	51.75650793650794	62	127
51.640408163265306	51.75650793650794	69	127
51.75650793650794	52.11641723356009	48	127
51.75650793650794	51.83777777777778	57	127
51.75650793650794	51.84938775510204	62	127
51.75650793650794	51.965487528344674	81	127
51.84938775510204	51.953877551020405	57	127
51.84938775510204	51.965487528344674	64	127
51.965487528344674	52.18607709750567	86	127
51.965487528344674	52.069977324263036	53	127
51.965487528344674	52.069977324263036	62	127
52.069977324263036	52.18607709750567	57	127
52.069977324263036	52.18607709750567	53	127
52.18607709750567	52.290566893424035	65	127
52.18607709750567	53.03360544217687	50	127
52.18607709750567	52.290566893424035	56	127
52.18607709750567	52.59242630385488	84	127
52.290566893424035	52.395056689342404	67	127
52.290566893424035	52.38344671201814	56	127
52.395056689342404	52.48793650793651	60	127
52.395056689342404	52.48793650793651	65	127
52.48793650793651	52.59242630385488	60	127
52.48793650793651	52.59242630385488	67	127
52.59242630385488	52.7085260770975	65	127
52.59242630385488	52.7085260770975	68	127
52.59242630385488	52.81301587301587	83	127
52.7085260770975	52.80140589569161	65	127
52.7085260770975	52.81301587301587	72	127
52.81301587301587	52.91750566893424	60	127
52.81301587301587	52.9291156462585	68	127
52.81301587301587	53.03360544217687	84	127
52.9291156462585	53.03360544217687	60	127
52.9291156462585	53.03360544217687	72	127
53.03360544217687	53.1497052154195	68	127
53.03360544217687	53.83469387755102	51	127
53.03360544217687	53.1497052154195	60	127
53.03360544217687	53.498004535147395	80	127
53.1497052154195	53.26580498866213	69	127
53.1497052154195	53.26580498866213	60	127
53.26580498866213	53.3702947845805	63	127
53.26580498866213	53.381904761904764	71	127
53.381904761904764	53.48639455782313	63	127
53.381904761904764	53.498004535147395	72	127
53.498004535147395	53.86952380952381	81	127
53.498004535147395	53.602494331065756	71	127
53.498004535147395	53.602494331065756	66	127
53.602494331065756	53.71859410430839	66	127
53.602494331065756	53.71859410430839	72	127
53.71859410430839	53.83469387755102	74	127
53.71859410430839	53.83469387755102	68	127
53.83469387755102	53.95079365079365	75	127
53.83469387755102	53.881133786848075	68	127
53.89274376417234	53.95079365079365	56	127
53.95079365079365	54.61256235827664	62	127
53.95079365079365	54.05528344671202	84	127
53.95079365079365	54.06689342403628	78	127
53.95079365079365	54.39197278911565	40	127
53.95079365079365	54.61256235827664	72	127
54.06689342403628	54.159773242630386	84	127
54.06689342403628	54.159773242630386	80	127
54.159773242630386	54.27587301587302	78	127
54.159773242630386	54.27587301587302	83	127
54.27587301587302	54.380362811791386	83	127
54.27587301587302	54.39197278911565	76	127
54.39197278911565	54.50807256235828	76	127
54.39197278911565	54.49646258503402	80	127
54.39197278911565	55.30916099773243	52	127
54.50807256235828	54.61256235827664	80	127
54.50807256235828	54.61256235827664	78	127
54.61256235827664	54.72866213151927	76	127
54.61256235827664	54.8447619047619	71	127
54.61256235827664	54.72866213151927	68	127
54.72866213151927	54.8447619047619	68	127
54.72866213151927	54.8447619047619	74	127
54.8447619047619	54.94925170068027	74	127
54.8447619047619	54.960861678004534	66	127
54.8447619047619	55.54136054421769	72	127
54.8447619047619	54.94925170068027	62	127
54.960861678004534	55.076961451247165	62	127
54.960861678004534	55.076961451247165	74	127
54.960861678004534	55.08857142857143	68	127
55.08857142857143	55.193061224489796	66	127
55.08857142857143	55.193061224489796	62	127
55.193061224489796	55.30916099773243	64	127
55.193061224489796	55.30916099773243	62	127
55.30916099773243	56.16829931972789	52	127
55.30916099773243	55.42526077097506	56	127
55.30916099773243	55.42526077097506	62	127
55.30916099773243	55.42526077097506	64	127
55.42526077097506	55.54136054421769	66	127
55.42526077097506	55.529750566893426	56	127
55.42526077097506	55.529750566893426	62	127
55.54136054421769	55.65746031746032	64	127
55.54136054421769	55.76195011337869	68	127
55.54136054421769	55.64585034013606	56	127
55.65746031746032	55.76195011337869	62	127
55.65746031746032	55.76195011337869	56	127
55.76195011337869	55.87804988662131	60	127
55.76195011337869	56.005759637188206	68	127
55.76195011337869	55.87804988662131	65	127
55.87804988662131	56.005759637188206	65	127
55.87804988662131	56.005759637188206	62	127
56.005759637188206	56.12185941043084	60	127
56.005759637188206	56.110249433106574	65	127
56.005759637188206	56.23795918367347	69	127
56.12185941043084	56.23795918367347	59	127
56.12185941043084	56.23795918367347	65	127
56.23795918367347	57.155147392290246	40	127
56.23795918367347	56.3540589569161	59	127
56.23795918367347	56.47015873015873	72	127
56.23795918367347	56.3540589569161	65	127
56.3540589569161	56.47015873015873	65	127
56.3540589569161	56.47015873015873	60	127
56.47015873015873	56.63269841269841	77	127
56.47015873015873	56.5746485260771	65	127
56.47015873015873	56.58625850340136	59	127
56.58625850340136	56.69074829931973	57	127
56.58625850340136	56.69074829931973	65	127
56.64430839002267	56.70235827664399	56	127
56.70235827664399	56.80684807256236	66	127
56.70235827664399	56.80684807256236	62	127
56.70235827664399	57.36412698412698	60	127
56.70235827664399	56.80684807256236	72	127
56.80684807256236	56.92294784580499	68	127
56.80684807256236	56.92294784580499	72	127
56.92294784580499	57.03904761904762	71	127
56.92294784580499	57.03904761904762	66	127
57.03904761904762	57.143537414965984	71	127
57.03904761904762	57.155147392290246	64	127
57.155147392290246	57.27124716553288	64	127
57.155147392290246	57.979455782312925	52	127
57.155147392290246	57.259637188208615	68	127
57.27124716553288	57.36412698412698	68	127
57.27124716553288	57.36412698412698	66	127
57.36412698412698	57.596326530612245	59	127
57.36412698412698	57.480226757369614	64	127
57.36412698412698	57.480226757369614	56	127
57.480226757369614	57.596326530612245	62	127
57.480226757369614	57.596326530612245	56	127
57.596326530612245	57.700816326530614	62	127
57.596326530612245	57.712426303854876	54	127
57.596326530612245	58.30453514739229	60	127
57.712426303854876	57.816916099773245	62	127
57.712426303854876	57.82852607709751	56	127
57.82852607709751	57.933015873015876	62	127
57.82852607709751	57.933015873015876	54	127
57.933015873015876	58.04911564625851	52	127
57.933015873015876	58.04911564625851	62	127
58.04911564625851	58.16521541950113	52	127
58.04911564625851	58.53673469387755	40	127
58.04911564625851	58.15360544217687	62	127
58.16521541950113	58.292925170068024	62	127
58.16521541950113	58.30453514739229	54	127
58.30453514739229	58.409024943310655	62	127
58.30453514739229	58.409024943310655	52	127
58.30453514739229	58.53673469387755	56	127
58.409024943310655	58.53673469387755	62	127
58.409024943310655	58.53673469387755	50	127
58.53673469387755	58.792154195011335	56	127
58.53673469387755	58.66444444444444	53	127
58.53673469387755	58.66444444444444	48	127
58.53673469387755	58.78054421768707	60	127
58.66444444444444	58.78054421768707	53	127
58.66444444444444	58.792154195011335	50	127
58.792154195011335	58.91986394557823	48	127
58.792154195011335	58.908253968253966	53	127
58.792154195011335	59.03596371882086	57	127
58.91986394557823	59.03596371882086	47	127
58.91986394557823	59.03596371882086	53	127
59.03596371882086	59.16367346938775	45	127
59.03596371882086	59.16367346938775	53	127
59.03596371882086	59.291383219954646	60	127
59.16367346938775	59.279773242630384	53	127
59.16367346938775	59.291383219954646	47	127
59.291383219954646	59.63968253968254	65	127
59.291383219954646	59.52358276643991	45	127
59.291383219954646	59.511972789115646	60	127
59.52358276643991	59.63968253968254	60	127
59.52358276643991	59.63968253968254	43	127
59.63968253968254	60.115691609977326	64	127
59.63968253968254	60.603310657596374	56	127
59.63968253968254	60.603310657596374	59	127
59.63968253968254	60.603310657596374	41	127
60.115691609977326	60.35950113378685	62	127
60.35950113378685	60.59170068027211	64	127
60.603310657596374	61.462448979591834	52	127
60.603310657596374	61.12575963718821	59	127
60.603310657596374	61.462448979591834	42	127
60.603310657596374	61.462448979591834	60	127
61.12575963718821	61.27668934240363	57	127
61.27668934240363	61.42761904761905	62	127
61.42761904761905	61.578548752834465	64	127
61.578548752834465	61.71786848072562	50	127
61.578548752834465	61.72947845804989	56	127
61.578548752834465	62.05455782312925	64	127
61.578548752834465	62.05455782312925	41	127
61.72947845804989	61.88040816326531	50	127
61.72947845804989	61.89201814058957	58	127
61.89201814058957	62.0081179138322	53	127
61.89201814058957	62.0081179138322	59	127
62.0081179138322	62.12421768707483	53	127
62.0081179138322	62.12421768707483	61	127
62.12421768707483	62.251927437641726	59	127
62.12421768707483	62.251927437641726	53	127
62.251927437641726	62.36802721088436	61	127
62.251927437641726	62.35641723356009	53	127
62.36802721088436	62.47251700680272	56	127
62.36802721088436	62.48412698412698	62	127
62.48412698412698	62.58861678004535	64	127
62.48412698412698	62.58861678004535	56	127
62.58861678004535	62.71632653061224	56	127
62.58861678004535	62.71632653061224	62	127
62.71632653061224	62.82081632653061	56	127
62.71632653061224	62.832426303854874	64	127
62.832426303854874	62.92530612244898	59	127
62.832426303854874	62.93691609977324	65	127
62.93691609977324	63.02979591836735	59	127
62.93691609977324	63.02979591836735	67	127
63.02979591836735	63.14589569160998	59	127
63.02979591836735	63.14589569160998	65	127
63.14589569160998	63.27360544217687	59	127
63.14589569160998	63.27360544217687	67	127
63.27360544217687	63.37809523809524	62	127
63.27360544217687	63.389705215419504	68	127
63.389705215419504	63.494195011337865	70	127
63.389705215419504	63.494195011337865	62	127
63.505804988662135	64.42299319727891	65	127
63.505804988662135	63.97020408163265	76	127
63.505804988662135	64.42299319727891	71	127
63.505804988662135	64.42299319727891	56	127
63.97020408163265	64.19079365079365	74	127
64.19079365079365	64.42299319727891	76	127
64.42299319727891	65.46789115646258	63	127
64.42299319727891	64.87578231292517	71	127
64.42299319727891	65.46789115646258	57	127
64.42299319727891	65.46789115646258	65	127
64.87578231292517	65.27052154195012	69	127
65.27052154195012	65.43306122448979	72	127
65.43306122448979	65.58396825396825	74	127
65.58396825396825	65.71167800453514	59	127
65.58396825396825	65.71167800453514	65	127
65.58396825396825	65.99034013605443	76	127
65.58396825396825	65.99034013605443	56	127
65.71167800453514	65.82780045351474	59	127
65.71167800453514	65.83938775510204	67	127
65.83938775510204	65.9438775510204	68	127
65.83938775510204	65.9438775510204	62	127
65.9438775510204	66.0715873015873	62	127
65.9438775510204	66.0715873015873	70	127
66.0715873015873	66.1992970521542	62	127
66.0715873015873	66.1992970521542	68	127
66.1992970521542	66.30380952380952	62	127
66.1992970521542	66.31541950113379	70	127
66.31541950113379	66.44312925170068	71	127
66.31541950113379	66.43151927437641	65	127
66.44312925170068	66.5592290249433	65	127
66.44312925170068	66.5592290249433	73	127
66.5592290249433	66.6869387755102	65	127
66.5592290249433	66.6869387755102	71	127
66.6869387755102	66.8146485260771	65	127
66.6869387755102	66.8146485260771	73	127
66.8146485260771	66.95396825396826	68	127
66.8146485260771	66.95396825396826	74	127
66.95396825396826	67.15133786848072	68	127
66.95396825396826	67.15133786848072	76	127
67.15133786848072	67.33709750566894	68	127
67.15133786848072	67.33709750566894	74	127
67.33709750566894	67.46480725623583	68	127
67.33709750566894	67.46480725623583	76	127
67.46480725623583	67.59251700680272	71	127
67.46480725623583	67.59251700680272	77	127
67.59251700680272	67.70861678004535	79	127
67.59251700680272	67.70861678004535	71	127
67.72022675736962	68.76512471655329	56	127
67.72022675736962	68.24265306122449	88	127
67.72022675736962	68.76512471655329	64	127
67.72022675736962	68.76512471655329	76	127
67.72022675736962	68.76512471655329	68	127
67.72022675736962	68.76512471655329	37	127
68.24265306122449	68.5097052154195	87	127
68.5097052154195	68.76512471655329	88	127
68.76512471655329	69.83324263038548	64	127
68.76512471655329	69.83324263038548	73	127
68.76512471655329	69.83324263038548	55	127
68.76512471655329	69.83324263038548	67	127
68.76512471655329	69.83324263038548	40	127
68.76512471655329	69.32240362811791	83	127
69.32240362811791	69.87965986394558	82	127
69.96095238095238	70.23959183673469	88	127
69.96095238095238	71.02904761904762	56	127
69.96095238095238	71.02904761904762	64	127
69.96095238095238	71.02904761904762	49	127
69.96095238095238	71.02904761904762	68	127
69.96095238095238	71.02904761904762	76	127
70.23959183673469	70.50662131519275	87	127
70.50662131519275	70.76204081632653	87	127
70.76204081632653	71.02904761904762	88	127
71.02904761904762	71.9346485260771	64	127
71.02904761904762	71.55151927437642	83	127
71.02904761904762	71.9346485260771	73	127
71.02904761904762	71.9346485260771	55	127
71.02904761904762	71.9346485260771	67	127
71.02904761904762	71.9346485260771	52	127
71.55151927437642	71.98108843537415	82	127
72.09718820861679	72.52675736961451	88	127
72.09718820861679	72.15523809523809	76	127
72.09718820861679	72.15523809523809	68	127
72.09718820861679	72.15523809523809	61	127
72.16684807256236	72.22489795918368	68	127
72.16684807256236	72.22489795918368	61	127
72.16684807256236	72.22489795918368	76	127
72.22489795918368	72.29455782312925	76	127
72.22489795918368	72.29455782312925	68	127
72.22489795918368	72.29455782312925	61	127
72.29455782312925	72.35260770975057	61	127
72.29455782312925	72.35260770975057	76	127
72.29455782312925	72.35260770975057	68	127
72.36421768707483	72.42226757369615	76	127
72.36421768707483	72.42226757369615	68	127
72.36421768707483	72.42226757369615	61	127
72.42226757369615	72.48031746031747	76	127
72.42226757369615	72.48031746031747	68	127
72.42226757369615	72.48031746031747	61	127
72.48031746031747	72.53834467120181	61	127
72.48031746031747	72.53834467120181	76	127
72.48031746031747	72.53834467120181	68	127
72.54997732426304	72.60802721088436	76	127
72.54997732426304	72.60802721088436	68	127
72.54997732426304	72.60802721088436	61	127
72.60802721088436	72.6660544217687	63	127
72.60802721088436	72.86344671201815	87	127
72.60802721088436	72.6660544217687	78	127
72.60802721088436	72.6660544217687	68	127
72.67768707482993	72.73573696145125	78	127
72.67768707482993	72.73573696145125	68	127
72.67768707482993	72.73573696145125	63	127
72.73573696145125	72.7937641723356	68	127
72.73573696145125	72.7937641723356	78	127
72.73573696145125	72.7937641723356	63	127
72.7937641723356	72.85183673469388	78	127
72.7937641723356	72.85183673469388	68	127
72.7937641723356	72.85183673469388	63	127
72.86344671201815	73.09564625850341	88	127
72.86344671201815	72.92147392290249	78	127
72.86344671201815	72.92147392290249	68	127
72.86344671201815	72.92147392290249	63	127
72.92147392290249	72.97954648526077	78	127
72.92147392290249	72.97954648526077	68	127
72.92147392290249	72.97954648526077	63	127
72.97954648526077	73.03759637188209	78	127
72.97954648526077	73.03759637188209	68	127
72.97954648526077	73.03759637188209	63	127
73.03759637188209	73.09564625850341	63	127
73.03759637188209	73.09564625850341	78	127
73.03759637188209	73.09564625850341	68	127
73.10725623582766	73.49038548752834	87	127
73.10725623582766	73.15369614512471	79	127
73.10725623582766	73.15369614512471	71	127
73.10725623582766	73.15369614512471	64	127
73.16530612244898	73.2233560090703	79	127
73.16530612244898	73.2233560090703	71	127
73.16530612244898	73.2233560090703	64	127
73.2233560090703	73.26979591836735	79	127
73.2233560090703	73.26979591836735	71	127
73.2233560090703	73.26979591836735	64	127
73.26979591836735	73.3278231292517	79	127
73.26979591836735	73.3278231292517	71	127
73.26979591836735	73.3278231292517	64	127
73.3278231292517	73.38589569160997	79	127
73.3278231292517	73.38589569160997	71	127
73.3278231292517	73.38589569160997	64	127
73.38589569160997	73.4439455782313	79	127
73.38589569160997	73.4439455782313	71	127
73.38589569160997	73.4439455782313	64	127
73.4439455782313	73.50199546485261	79	127
73.4439455782313	73.50199546485261	71	127
73.4439455782313	73.50199546485261	64	127
73.50199546485261	73.56002267573696	64	127
73.50199546485261	73.56002267573696	79	127
73.50199546485261	73.56002267573696	71	127
73.56002267573696	73.61809523809524	66	127
73.56002267573696	73.61809523809524	78	127
73.56002267573696	73.61809523809524	70	127
73.56002267573696	73.68773242630385	85	127
73.61809523809524	73.65292517006803	70	127
73.61809523809524	73.65292517006803	66	127
73.61809523809524	73.65292517006803	78	127
73.65292517006803	73.71095238095238	66	127
73.65292517006803	73.71095238095238	78	127
73.65292517006803	73.71095238095238	70	127
73.69936507936508	73.79224489795918	87	127
73.71095238095238	73.76902494331065	78	127
73.71095238095238	73.76902494331065	70	127
73.71095238095238	73.76902494331065	66	127
73.76902494331065	73.79224489795918	78	127
73.76902494331065	73.79224489795918	70	127
73.76902494331065	73.79224489795918	66	127
73.79224489795918	73.82707482993197	70	127
73.79224489795918	73.82707482993197	78	127
73.79224489795918	73.82707482993197	66	127
73.79224489795918	73.93156462585034	88	127
73.82707482993197	73.87351473922902	78	127
73.82707482993197	73.87351473922902	70	127
73.82707482993197	73.87351473922902	66	127
73.88512471655329	73.93156462585034	78	127
73.88512471655329	73.93156462585034	70	127
73.88512471655329	73.93156462585034	66	127
73.94315192743764	73.98961451247166	82	127
73.94315192743764	74.23342403628118	88	127
73.94315192743764	73.98961451247166	73	127
73.94315192743764	73.98961451247166	67	127
73.98961451247166	74.02444444444444	82	127
73.98961451247166	74.02444444444444	73	127
73.98961451247166	74.02444444444444	67	127
74.02444444444444	74.04766439909297	82	127
74.02444444444444	74.04766439909297	73	127
74.02444444444444	74.04766439909297	67	127
74.04766439909297	74.08249433106576	82	127
74.04766439909297	74.08249433106576	73	127
74.04766439909297	74.08249433106576	67	127
74.09410430839003	74.14054421768708	82	127
74.09410430839003	74.14054421768708	73	127
74.09410430839003	74.14054421768708	67	127
74.15215419501133	74.19857142857143	73	127
74.15215419501133	74.19857142857143	82	127
74.15215419501133	74.19857142857143	67	127
74.19857142857143	74.24503401360545	82	127
74.19857142857143	74.24503401360545	73	127
74.19857142857143	74.24503401360545	67	127
74.2566439909297	74.30308390022675	67	127
74.2566439909297	74.30308390022675	73	127
74.2566439909297	74.30308390022675	82	127
74.31469387755102	74.36113378684807	69	127
74.31469387755102	74.36113378684807	81	127
74.31469387755102	74.52367346938776	87	127
74.31469387755102	74.36113378684807	73	127
74.36113378684807	74.40757369614512	73	127
74.36113378684807	74.40757369614512	81	127
74.36113378684807	74.40757369614512	69	127
74.41918367346939	74.46562358276644	81	127
74.41918367346939	74.46562358276644	73	127
74.41918367346939	74.46562358276644	69	127
74.46562358276644	74.52367346938776	81	127
74.46562358276644	74.52367346938776	73	127
74.46562358276644	74.52367346938776	69	127
74.52367346938776	74.68621315192743	88	127
74.52367346938776	74.55850340136054	81	127
74.52367346938776	74.55850340136054	73	127
74.52367346938776	74.55850340136054	69	127
74.57011337868481	74.61655328798186	73	127
74.57011337868481	74.61655328798186	69	127
74.57011337868481	74.61655328798186	81	127
74.61655328798186	74.62816326530613	81	127
74.61655328798186	74.62816326530613	73	127
74.61655328798186	74.62816326530613	69	127
74.63977324263038	74.68621315192743	73	127
74.63977324263038	74.68621315192743	81	127
74.63977324263038	74.68621315192743	69	127
74.68621315192743	74.7326530612245	76	127
74.68621315192743	74.89519274376417	87	127
74.68621315192743	74.7326530612245	80	127
74.68621315192743	74.7326530612245	70	127
74.74426303854875	74.7907029478458	80	127
74.74426303854875	74.7907029478458	70	127
74.74426303854875	74.7907029478458	76	127
74.7907029478458	74.8255328798186	76	127
74.7907029478458	74.8255328798186	80	127
74.7907029478458	74.8255328798186	70	127
74.8255328798186	74.87197278911565	76	127
74.8255328798186	74.87197278911565	70	127
74.8255328798186	74.87197278911565	80	127
74.87197278911565	74.90680272108844	70	127
74.87197278911565	74.90680272108844	80	127
74.87197278911565	74.90680272108844	76	127
74.90680272108844	74.95324263038549	76	127
74.90680272108844	74.95324263038549	80	127
74.90680272108844	74.95324263038549	70	127
74.96482993197279	75.08095238095238	85	127
74.96482993197279	74.99968253968254	79	127
74.96482993197279	74.99968253968254	76	127
74.96482993197279	74.99968253968254	72	127
74.99968253968254	75.04612244897959	79	127
74.99968253968254	75.04612244897959	76	127
74.99968253968254	75.04612244897959	72	127
75.04612244897959	75.09253968253968	76	127
75.04612244897959	75.09253968253968	79	127
75.04612244897959	75.09253968253968	72	127
75.08095238095238	75.18544217687075	87	127
75.10417233560091	75.15061224489796	79	127
75.10417233560091	75.15061224489796	76	127
75.10417233560091	75.15061224489796	72	127
75.15061224489796	75.18544217687075	79	127
75.15061224489796	75.18544217687075	76	127
75.15061224489796	75.18544217687075	72	127
75.18544217687075	75.22024943310657	76	127
75.18544217687075	75.22024943310657	79	127
75.18544217687075	75.22024943310657	72	127
75.197052154195	75.3247619047619	88	127
75.22024943310657	75.2667120181406	79	127
75.22024943310657	75.2667120181406	76	127
75.22024943310657	75.2667120181406	72	127
75.27832199546485	75.3247619047619	76	127
75.27832199546485	75.3247619047619	79	127
75.27832199546485	75.3247619047619	72	127
75.3247619047619	75.61501133786848	61	127
75.3247619047619	75.41764172335601	88	127
75.3247619047619	75.61501133786848	67	127
75.3247619047619	75.61501133786848	76	127
75.3247619047619	75.61501133786848	83	127
75.3247619047619	75.61501133786848	71	127
75.3247619047619	75.61501133786848	79	127
75.3247619047619	75.61501133786848	73	127
75.41764172335601	75.48730158730159	90	127
75.49891156462586	75.59179138321996	88	127
75.59179138321996	75.6730612244898	83	127
75.6730612244898	75.77755102040817	83	127
75.77755102040817	75.87043083900227	85	127
75.87043083900227	75.94009070294784	83	127
75.95170068027211	76.03297052154196	79	127
76.03297052154196	76.12585034013605	79	127
76.12585034013605	76.2187074829932	83	127
76.23034013605442	76.32321995464852	79	127
76.32321995464852	76.39287981859411	76	127
76.40448979591837	76.42770975056689	76	127
76.42770975056689	76.43931972789116	78	127
76.43931972789116	76.53219954648526	76	127
76.54380952380953	76.63668934240363	71	127
76.63668934240363	76.72954648526077	71	127
76.741179138322	76.8340589569161	73	127
76.8340589569161	76.92693877551021	71	127
76.92693877551021	77.01981859410431	67	127
77.03142857142858	77.06625850340136	67	127
77.06625850340136	77.15913832199547	71	127
77.15913832199547	77.24038548752834	67	127
77.24038548752834	77.33328798185941	64	127
77.33328798185941	77.36809523809524	64	127
77.37972789115646	77.42616780045351	66	127
77.42616780045351	77.50743764172336	64	127
77.50743764172336	77.60031746031746	59	127
77.61192743764173	77.93700680272109	64	127
77.61192743764173	77.70480725623582	59	127
77.61192743764173	77.70480725623582	55	127
77.61192743764173	77.93700680272109	49	127
77.70480725623582	77.8092970521542	57	127
77.70480725623582	77.8092970521542	61	127
77.8092970521542	77.9021768707483	59	127
77.8092970521542	77.9021768707483	55	127
77.9021768707483	78.0066439909297	61	127
77.9021768707483	78.0066439909297	57	127
78.0066439909297	78.11115646258503	62	127
78.0066439909297	78.11115646258503	58	127
78.0066439909297	78.33174603174604	67	127
78.0066439909297	78.33174603174604	52	127
78.11115646258503	78.20403628117914	64	127
78.11115646258503	78.20403628117914	60	127
78.20403628117914	78.30852607709751	62	127
78.20403628117914	78.30852607709751	58	127
78.30852607709751	78.41301587301588	60	127
78.30852607709751	78.41301587301588	64	127
78.41301587301588	78.50589569160998	62	127
78.41301587301588	78.50589569160998	58	127
78.50589569160998	78.61038548752835	64	127
78.50589569160998	78.61038548752835	60	127
78.61038548752835	78.70326530612245	62	127
78.61038548752835	78.70326530612245	58	127
78.70326530612245	78.80775510204082	64	127
78.70326530612245	78.80775510204082	60	127
78.80775510204082	78.90061224489796	62	127
78.80775510204082	78.90061224489796	58	127
78.90061224489796	78.99351473922903	64	127
78.90061224489796	78.99351473922903	60	127
78.99351473922903	79.0980045351474	62	127
78.99351473922903	79.0980045351474	58	127
79.0980045351474	79.1908843537415	61	127
79.0980045351474	79.1908843537415	57	127
79.1908843537415	79.62045351473922	64	127
79.1908843537415	79.28374149659864	59	127
79.1908843537415	79.28374149659864	55	127
79.1908843537415	79.62045351473922	49	127
79.28374149659864	79.388231292517	57	127
79.28374149659864	79.388231292517	61	127
79.388231292517	79.48113378684808	59	127
79.388231292517	79.48113378684808	55	127
79.48113378684808	79.60884353741497	61	127
79.48113378684808	79.60884353741497	57	127
79.62045351473922	80.02678004535147	67	127
79.62045351473922	79.7249433106576	62	127
79.62045351473922	79.7249433106576	58	127
79.62045351473922	80.02678004535147	52	127
79.7249433106576	79.87587301587301	60	127
79.7249433106576	79.87587301587301	64	127
79.87587301587301	79.98036281179138	62	127
79.87587301587301	79.98036281179138	58	127
79.98036281179138	80.08485260770975	60	127
79.98036281179138	80.08485260770975	64	127
80.08485260770975	80.20095238095239	62	127
80.08485260770975	80.20095238095239	58	127
80.20095238095239	80.29383219954649	64	127
80.20095238095239	80.29383219954649	60	127
80.29383219954649	80.37510204081633	58	127
80.29383219954649	80.37510204081633	62	127
80.37510204081633	80.4795918367347	64	127
80.37510204081633	80.4795918367347	60	127
80.4795918367347	80.5724716553288	62	127
80.4795918367347	80.5724716553288	58	127
80.5724716553288	80.68854875283446	64	127
80.5724716553288	80.68854875283446	60	127
80.68854875283446	80.78145124716553	62	127
80.68854875283446	80.78145124716553	58	127
80.78145124716553	80.87433106575963	61	127
80.78145124716553	80.87433106575963	57	127
80.87433106575963	81.46643990929705	49	127
80.87433106575963	81.16458049886621	59	127
80.87433106575963	81.16458049886621	55	127
80.87433106575963	81.46643990929705	64	127
81.16458049886621	81.26907029478458	57	127
81.16458049886621	81.26907029478458	61	127
81.26907029478458	81.36195011337868	55	127
81.26907029478458	81.36195011337868	59	127
81.36195011337868	81.46643990929705	57	127
81.36195011337868	81.46643990929705	61	127
81.46643990929705	82.74353741496599	67	127
81.46643990929705	81.59414965986394	58	127
81.46643990929705	82.74353741496599	52	127
81.46643990929705	82.74353741496599	62	127
81.59414965986394	81.72185941043084	60	127
81.72185941043084	81.83795918367348	58	127
81.83795918367348	81.9888888888889	60	127
81.9888888888889	82.11659863945579	58	127
82.11659863945579	82.24430839002268	60	127
82.24430839002268	82.40684807256235	58	127
82.40684807256235	82.74353741496599	57	127
82.74353741496599	82.88285714285715	55	127
82.74353741496599	84.03224489795919	58	127
82.74353741496599	84.03224489795919	62	127
82.74353741496599	84.03224489795919	51	127
82.88285714285715	83.04539682539682	57	127
83.04539682539682	83.20793650793651	55	127
83.20793650793651	83.39369614512472	57	127
83.39369614512472	83.59106575963719	55	127
83.59106575963719	83.73036281179138	57	127
83.73036281179138	83.88131519274377	55	127
83.88131519274377	84.03224489795919	57	127
84.03224489795919	85.18163265306123	69	127
84.03224489795919	85.18163265306123	52	127
84.03224489795919	84.17156462585034	45	127
84.03224489795919	85.18163265306123	61	127
84.17156462585034	84.39215419501134	46	127
84.39215419501134	84.51986394557824	45	127
84.51986394557824	84.64757369614513	46	127
84.64757369614513	84.78689342403628	45	127
84.78689342403628	85.01909297052154	46	127
85.01909297052154	85.18163265306123	45	127
85.18163265306123	85.56476190476191	46	127
85.56476190476191	85.6924716553288	45	127
85.6924716553288	85.79696145124717	46	127
85.79696145124717	85.9130612244898	45	127
85.9130612244898	86.06399092970521	46	127
86.06399092970521	86.18009070294785	45	127
86.18009070294785	86.29619047619047	46	127
86.29619047619047	86.40068027210884	45	127
86.40068027210884	86.51675736961451	46	127
86.51675736961451	86.73736961451247	45	127
86.74895691609977	86.96956916099774	46	127
86.96956916099774	87.23659863945578	49	127
87.23659863945578	87.51521541950113	50	127
87.51521541950113	87.77063492063492	52	127
87.77063492063492	88.03768707482993	53	127
88.03768707482993	88.30471655328799	55	127
88.30471655328799	88.5833560090703	56	127
88.5833560090703	89.19868480725624	61	127
88.5833560090703	90.70795918367347	57	127
88.5833560090703	89.19868480725624	69	127
88.5833560090703	89.19868480725624	64	127
89.19868480725624	89.68628117913832	58	127
89.19868480725624	89.45410430839003	67	127
89.19868480725624	89.68628117913832	62	127
89.45410430839003	89.68628117913832	69	127
89.68628117913832	90.1971201814059	56	127
89.68628117913832	90.1971201814059	64	127
89.68628117913832	90.1971201814059	59	127
90.1971201814059	90.70795918367347	62	127
90.1971201814059	90.70795918367347	67	127
90.1971201814059	90.70795918367347	58	127
90.70795918367347	91.10272108843537	61	127
90.70795918367347	91.10272108843537	64	127
90.70795918367347	90.94015873015873	57	127
90.70795918367347	91.10272108843537	69	127
90.94015873015873	91.19557823129252	58	127
91.19557823129252	91.49746031746032	61	127
91.49746031746032	91.74126984126984	62	127
91.74126984126984	91.9734693877551	64	127
91.9734693877551	92.24049886621316	65	127
92.24049886621316	92.46108843537415	67	127
92.46108843537415	92.92548752834468	68	127
92.92548752834468	93.3898866213152	73	127
92.92548752834468	93.3898866213152	69	127
92.92548752834468	93.3898866213152	81	127
92.92548752834468	93.3898866213152	76	127
93.3898866213152	93.69174603174604	79	127
93.3898866213152	93.94716553287982	70	127
93.3898866213152	93.94716553287982	74	127
93.3898866213152	93.94716553287982	67	127
93.69174603174604	93.94716553287982	81	127
93.94716553287982	94.46961451247165	71	127
93.94716553287982	94.46961451247165	64	127
93.94716553287982	94.46961451247165	76	127
93.94716553287982	94.46961451247165	68	127
94.46961451247165	94.9920634920635	74	127
94.46961451247165	94.9920634920635	79	127
94.46961451247165	94.9920634920635	70	127
94.46961451247165	94.9920634920635	67	127
94.9920634920635	95.47968253968254	69	127
94.9920634920635	95.47968253968254	73	127
94.9920634920635	95.21265306122449	81	127
94.9920634920635	95.47968253968254	76	127
95.21265306122449	95.47968253968254	79	127
95.47968253968254	95.99052154195012	74	127
95.47968253968254	95.99052154195012	70	127
95.47968253968254	95.70027210884354	79	127
95.47968253968254	95.99052154195012	67	127
95.70027210884354	95.99052154195012	81	127
95.99052154195012	96.4665306122449	64	127
95.99052154195012	96.4665306122449	76	127
95.99052154195012	96.4665306122449	68	127
95.99052154195012	96.4665306122449	71	127
96.4665306122449	97.000589569161	67	127
96.4665306122449	97.000589569161	79	127
96.4665306122449	97.000589569161	70	127
96.4665306122449	97.000589569161	74	127
97.000589569161	97.38371882086167	69	127
97.000589569161	97.19795918367348	73	127
97.000589569161	97.38371882086167	81	127
97.000589569161	97.38371882086167	76	127
97.23278911564626	97.43015873015872	69	127
97.45337868480726	97.70879818594105	69	127
97.74362811791383	98.03387755102041	69	127
98.13836734693878	98.33573696145125	69	127
98.37056689342404	98.62598639455783	69	127
98.66081632653061	99.12521541950113	70	127
98.66081632653061	98.81174603174603	67	127
98.66081632653061	99.12521541950113	63	127
98.81174603174603	98.96267573696146	69	127
98.96267573696146	99.11360544217688	70	127
99.12521541950113	99.53156462585034	57	127
99.12521541950113	99.3574149659864	69	127
99.12521541950113	99.53156462585034	64	127
99.38063492063492	99.58961451247166	69	127
99.62444444444445	99.82181405895692	69	127
99.89147392290249	100.0772335600907	69	127
100.1120634920635	100.32104308390022	69	127
100.35587301587302	100.54163265306123	69	127
100.58807256235828	101.07569160997733	70	127
100.58807256235828	100.7390022675737	67	127
100.58807256235828	101.07569160997733	63	127
100.7390022675737	100.90154195011338	69	127
100.90154195011338	101.07569160997733	70	127
101.07569160997733	101.49365079365079	57	127
101.07569160997733	101.2730612244898	69	127
101.07569160997733	101.49365079365079	64	127
101.34272108843537	101.50526077097506	69	127
101.57492063492063	101.72585034013605	69	127
101.81873015873016	102.0277097505669	69	127
102.07414965986395	102.31795918367347	69	127
102.34117913832199	102.561768707483	69	127
102.59659863945578	103.04938775510205	63	127
102.59659863945578	102.7475283446712	67	127
102.59659863945578	103.04938775510205	70	127
102.7475283446712	102.89845804988663	69	127
102.89845804988663	103.04938775510205	70	127
103.04938775510205	103.23514739229024	69	127
103.04938775510205	103.47895691609978	64	127
103.04938775510205	103.47895691609978	57	127
103.32802721088436	103.47895691609978	69	127
103.61827664399092	103.78081632653061	69	127
103.83886621315193	104.04784580498867	69	127
104.0710657596372	104.25682539682539	69	127
104.31487528344671	104.5354648526077	69	127
104.84893424036281	105.09274376417234	69	127
105.12757369614512	105.34816326530613	69	127
105.3829931972789	105.59197278911564	69	127
105.62680272108844	105.81256235827665	69	127
105.8590022675737	106.10281179138322	69	127
105.8590022675737	106.12603174603174	69	127
106.20730158730159	106.40467120181405	69	127
106.20730158730159	106.43950113378685	69	127
106.47433106575964	106.68331065759637	69	127
106.47433106575964	106.71814058956916	69	127
106.76458049886621	106.99678004535147	69	127
106.76458049886621	107.03160997732427	69	127
107.07804988662132	107.32185941043083	69	127
107.07804988662132	107.3682993197279	69	127
107.43795918367347	108.01845804988662	69	127
107.43795918367347	108.01845804988662	69	127
108.2738775510204	108.90081632653062	81	127
108.2738775510204	108.4015873015873	69	127
108.2738775510204	108.90081632653062	57	127
108.4015873015873	108.51768707482994	65	127
108.51768707482994	108.70344671201813	69	127
108.70344671201813	108.90081632653062	65	127
108.90081632653062	110.43333333333334	64	127
108.90081632653062	109.02852607709751	69	127
108.90081632653062	110.43333333333334	88	127
109.02852607709751	109.20267573696145	65	127
109.20267573696145	109.31877551020408	69	127
109.31877551020408	109.93410430839002	65	127
109.93410430839002	110.06181405895691	69	127
110.06181405895691	110.17791383219955	65	127
110.17791383219955	110.29401360544217	69	127
110.29401360544217	110.43333333333334	65	127
110.43333333333334	110.6307029478458	62	127
110.43333333333334	110.59587301587301	69	127
110.43333333333334	110.6307029478458	86	127
110.59587301587301	110.7235827664399	65	127
110.6307029478458	110.80485260770975	88	127
110.6307029478458	110.80485260770975	64	127
110.7235827664399	110.83968253968254	69	127
110.80485260770975	110.95578231292517	65	127
110.80485260770975	110.95578231292517	89	127
110.83968253968254	110.95578231292517	65	127
110.95578231292517	111.52467120181406	64	127
110.95578231292517	111.08349206349206	69	127
110.95578231292517	111.52467120181406	88	127
111.08349206349206	111.22281179138322	65	127
111.22281179138322	111.35052154195012	69	127
111.35052154195012	111.52467120181406	65	127
111.52467120181406	111.80331065759637	62	127
111.52467120181406	111.66399092970522	69	127
111.52467120181406	111.80331065759637	86	127
111.66399092970522	111.80331065759637	65	127
111.80331065759637	112.12839002267573	60	127
111.80331065759637	111.93102040816326	69	127
111.80331065759637	112.12839002267573	84	127
111.93102040816326	112.12839002267573	65	127
112.12839002267573	112.68566893424037	82	127
112.12839002267573	112.25609977324262	69	127
112.12839002267573	112.68566893424037	58	127
112.25609977324262	112.43024943310658	65	127
112.43024943310658	112.5463492063492	69	127
112.5463492063492	112.68566893424037	65	127
112.68566893424037	113.26616780045352	60	127
112.68566893424037	113.12684807256235	67	127
112.68566893424037	113.26616780045352	84	127
113.12684807256235	113.26616780045352	64	127
113.26616780045352	113.6144671201814	86	127
113.26616780045352	113.38226757369614	67	127
113.26616780045352	113.6144671201814	62	127
113.38226757369614	113.6144671201814	64	127
113.6144671201814	113.7421768707483	69	127
113.6144671201814	115.35596371882086	88	127
113.6144671201814	115.35596371882086	64	127
113.7421768707483	113.85827664399093	65	127
113.85827664399093	113.97437641723356	69	127
113.97437641723356	114.10208616780045	65	127
114.10208616780045	114.22979591836734	69	127
114.22979591836734	114.35750566893424	65	127
114.35750566893424	114.48521541950113	69	127
114.48521541950113	114.67097505668934	65	127
114.6825850340136	114.82190476190476	69	127
114.82190476190476	114.98444444444445	65	127
114.98444444444445	115.10054421768707	69	127
115.10054421768707	115.35596371882086	65	127
115.35596371882086	115.54172335600907	86	127
115.35596371882086	115.50689342403628	69	127
115.35596371882086	115.54172335600907	62	127
115.50689342403628	115.62299319727892	65	127
115.54172335600907	115.70426303854876	88	127
115.54172335600907	115.70426303854876	64	127
115.62299319727892	115.73909297052154	69	127
115.70426303854876	115.89002267573696	65	127
115.70426303854876	115.89002267573696	89	127
115.73909297052154	115.8784126984127	65	127
115.89002267573696	116.49374149659864	64	127
115.89002267573696	116.02934240362812	69	127
115.89002267573696	116.49374149659864	88	127
116.02934240362812	116.15705215419501	65	127
116.15705215419501	116.27315192743764	69	127
116.27315192743764	116.49374149659864	65	127
116.49374149659864	116.79560090702948	62	127
116.49374149659864	116.6330612244898	69	127
116.49374149659864	116.79560090702948	86	127
116.6330612244898	116.79560090702948	65	127
116.79560090702948	117.23678004535148	60	127
116.79560090702948	116.9117006802721	69	127
116.79560090702948	117.23678004535148	84	127
116.9117006802721	117.23678004535148	65	127
117.23678004535148	117.73600907029478	82	127
117.23678004535148	117.3528798185941	69	127
117.23678004535148	117.73600907029478	58	127
117.3528798185941	117.46897959183673	65	127
117.46897959183673	117.58507936507937	69	127
117.58507936507937	117.72439909297051	65	127
117.73600907029478	118.33972789115646	60	127
117.73600907029478	118.22362811791383	67	127
117.73600907029478	118.33972789115646	84	127
118.22362811791383	118.33972789115646	64	127
118.33972789115646	118.59514739229024	86	127
118.33972789115646	118.4558276643991	67	127
118.33972789115646	118.59514739229024	62	127
118.4558276643991	118.57192743764172	64	127
118.59514739229024	120.10444444444444	62	127
118.59514739229024	118.71124716553288	67	127
118.59514739229024	120.10444444444444	86	127
118.71124716553288	118.8970068027211	63	127
118.8970068027211	119.01310657596372	67	127
119.01310657596372	119.16403628117914	63	127
119.16403628117914	119.3033560090703	67	127
119.3033560090703	119.41945578231292	63	127
119.41945578231292	119.53555555555556	67	127
119.53555555555556	119.84902494331065	63	127
119.86063492063492	119.98834467120182	67	127
119.98834467120182	120.10444444444444	63	127
120.10444444444444	120.3714739229025	58	127
120.10444444444444	120.22054421768708	67	127
120.10444444444444	120.3714739229025	82	127
120.22054421768708	120.3714739229025	63	127
120.3714739229025	120.67333333333333	60	127
120.3714739229025	120.53401360544218	67	127
120.3714739229025	120.67333333333333	84	127
120.53401360544218	120.67333333333333	63	127
120.67333333333333	120.9984126984127	86	127
120.67333333333333	120.78943310657597	67	127
120.67333333333333	120.9984126984127	62	127
120.78943310657597	120.98680272108844	63	127
120.9984126984127	121.61374149659864	62	127
120.9984126984127	121.11451247165533	67	127
120.9984126984127	121.61374149659864	86	127
121.11451247165533	121.36993197278912	63	127
121.36993197278912	121.48603174603174	67	127
121.48603174603174	121.61374149659864	63	127
121.61374149659864	121.97365079365079	58	127
121.61374149659864	121.85755102040817	67	127
121.61374149659864	121.97365079365079	82	127
121.85755102040817	121.97365079365079	63	127
121.97365079365079	122.21746031746032	81	127
121.97365079365079	122.08975056689343	67	127
121.97365079365079	122.21746031746032	57	127
122.08975056689343	122.20585034013605	63	127
122.21746031746032	122.35678004535147	69	127
122.21746031746032	122.83278911564626	77	127
122.21746031746032	122.83278911564626	53	127
122.35678004535147	122.48448979591836	63	127
122.48448979591836	122.63541950113378	69	127
122.63541950113378	122.83278911564626	63	127
122.83278911564626	123.55260770975056	55	127
122.83278911564626	123.01854875283446	69	127
122.83278911564626	123.55260770975056	79	127
123.01854875283446	123.20430839002267	63	127
123.20430839002267	123.39006802721089	69	127
123.39006802721089	123.5409977324263	63	127
123.55260770975056	125.38698412698413	57	127
123.55260770975056	123.78480725623582	59	127
123.55260770975056	125.38698412698413	81	127
123.78480725623582	124.00539682539683	65	127
124.00539682539683	124.13310657596372	69	127
124.13310657596372	124.28403628117914	77	127
124.2956462585034	124.41174603174603	77	127
124.41174603174603	124.52784580498866	69	127
124.52784580498866	124.65555555555555	65	127
124.65555555555555	124.87614512471656	59	127
125.08512471655328	125.21283446712017	59	127
125.21283446712017	125.38698412698413	65	127
125.38698412698413	125.66562358276644	77	127
125.38698412698413	125.53791383219955	69	127
125.38698412698413	125.66562358276644	53	127
125.53791383219955	125.65401360544217	77	127
125.66562358276644	125.8978231292517	55	127
125.66562358276644	125.78172335600907	77	127
125.66562358276644	125.8978231292517	79	127
125.78172335600907	125.8978231292517	69	127
125.8978231292517	126.24612244897959	57	127
125.8978231292517	126.0255328798186	65	127
125.8978231292517	126.24612244897959	81	127
126.0255328798186	126.23451247165534	59	127
126.24612244897959	126.60603174603175	61	127
126.24612244897959	128.27786848072563	57	127
126.24612244897959	128.27786848072563	81	127
126.60603174603175	126.72213151927437	67	127
126.72213151927437	126.89628117913833	69	127
126.89628117913833	127.0007709750567	77	127
127.01238095238095	127.12848072562359	77	127
127.12848072562359	127.24458049886621	69	127
127.24458049886621	127.38390022675738	67	127
127.38390022675738	127.5348299319728	61	127
127.54643990929705	127.83668934240363	61	127
127.83668934240363	127.95278911564625	67	127
127.95278911564625	128.161768707483	69	127
128.161768707483	128.26625850340136	77	127
128.27786848072563	128.99768707482994	53	127
128.27786848072563	128.39396825396827	77	127
128.27786848072563	128.99768707482994	77	127
128.39396825396827	128.59133786848074	69	127
128.59133786848074	128.74226757369615	67	127
128.74226757369615	129.07895691609977	61	127
129.09056689342404	129.7639455782313	57	127
129.09056689342404	131.07587301587301	76	127
129.09056689342404	129.3575963718821	69	127
129.3575963718821	129.5085260770975	65	127
129.5085260770975	129.64784580498866	69	127
129.64784580498866	129.7639455782313	65	127
129.7639455782313	131.07587301587301	64	127
129.7639455782313	129.90326530612245	69	127
129.90326530612245	130.05419501133787	65	127
130.05419501133787	130.20512471655329	69	127
130.20512471655329	130.32122448979592	65	127
130.3328344671202	130.53020408163266	69	127
130.53020408163266	130.7043537414966	65	127
130.7043537414966	130.93655328798187	69	127
130.93655328798187	131.07587301587301	65	127
131.07587301587301	131.74925170068028	74	127
131.07587301587301	131.3312925170068	69	127
131.07587301587301	131.4009523809524	62	127
131.3312925170068	131.48222222222222	65	127
131.4009523809524	131.56349206349208	64	127
131.48222222222222	131.63315192743764	69	127
131.56349206349208	131.74925170068028	65	127
131.63315192743764	131.737641723356	65	127
131.74925170068028	132.36458049886622	64	127
131.74925170068028	131.88857142857142	69	127
131.74925170068028	132.36458049886622	72	127
131.88857142857142	132.06272108843538	65	127
132.06272108843538	132.19043083900226	69	127
132.19043083900226	132.36458049886622	65	127
132.36458049886622	133.74616780045352	69	127
132.36458049886622	132.4922902494331	69	127
132.36458049886622	132.62	62	127
132.4922902494331	132.62	65	127
132.62	132.81736961451247	69	127
132.62	133.13083900226758	60	127
132.81736961451247	133.13083900226758	65	127
133.13083900226758	133.74616780045352	58	127
133.13083900226758	133.27015873015873	69	127
133.27015873015873	133.49074829931973	65	127
133.49074829931973	133.63006802721088	69	127
133.63006802721088	133.74616780045352	65	127
133.74616780045352	134.02480725623582	67	127
133.74616780045352	134.164126984127	60	127
133.74616780045352	134.5820634920635	67	127
134.02480725623582	134.164126984127	64	127
134.164126984127	134.5820634920635	62	127
134.164126984127	134.36149659863946	67	127
134.36149659863946	134.5820634920635	64	127
134.5820634920635	136.3584126984127	64	127
134.5820634920635	134.69818594104308	69	127
134.5820634920635	136.3584126984127	76	127
134.69818594104308	134.81428571428572	65	127
134.81428571428572	134.94197278911565	69	127
134.94197278911565	135.05809523809523	65	127
135.05809523809523	135.19739229024944	69	127
135.19739229024944	135.40639455782312	65	127
135.40639455782312	135.59215419501135	69	127
135.59215419501135	135.71986394557823	65	127
135.71986394557823	135.87079365079364	69	127
135.87079365079364	135.99850340136055	65	127
135.99850340136055	136.11458049886622	69	127
136.11458049886622	136.3584126984127	65	127
136.3584126984127	136.6138321995465	62	127
136.3584126984127	136.53256235827664	69	127
136.3584126984127	137.03179138321997	74	127
136.53256235827664	136.7647619047619	65	127
136.6138321995465	136.83439909297053	64	127
136.7647619047619	136.88083900226758	69	127
136.83439909297053	137.03179138321997	65	127
136.88083900226758	137.03179138321997	65	127
137.03179138321997	137.65873015873015	64	127
137.03179138321997	137.65873015873015	72	127
137.03179138321997	137.14789115646258	69	127
137.14789115646258	137.3452380952381	65	127
137.3452380952381	137.47297052154195	69	127
137.47297052154195	137.65873015873015	65	127
137.65873015873015	137.9257596371882	62	127
137.65873015873015	139.09836734693877	69	127
137.65873015873015	137.7748299319728	69	127
137.7748299319728	137.9257596371882	65	127
137.9257596371882	138.21600907029477	60	127
137.9257596371882	138.06507936507936	69	127
138.06507936507936	138.21600907029477	65	127
138.21600907029477	139.09836734693877	58	127
138.21600907029477	138.3321088435374	69	127
138.3321088435374	138.85455782312926	65	127
138.85455782312926	138.9822448979592	69	127
138.9822448979592	139.09836734693877	65	127
139.09836734693877	139.35378684807256	60	127
139.09836734693877	139.70208616780045	67	127
139.09836734693877	139.22607709750568	67	127
139.22607709750568	139.35378684807256	64	127
139.35378684807256	139.70208616780045	62	127
139.35378684807256	139.4698866213152	67	127
139.4698866213152	139.70208616780045	64	127
139.70208616780045	140.21292517006802	69	127
139.70208616780045	141.5132426303855	64	127
139.70208616780045	139.8762358276644	69	127
139.8762358276644	140.02716553287982	65	127
140.02716553287982	140.17809523809524	69	127
140.17809523809524	140.3174149659864	65	127
140.3174149659864	140.45673469387756	69	127
140.45673469387756	140.66569160997733	65	127
140.66569160997733	140.7818140589569	69	127
140.7818140589569	140.96757369614514	65	127
140.96757369614514	141.23460317460317	69	127
141.23460317460317	141.37392290249434	65	127
141.37392290249434	141.5132426303855	69	127
141.5132426303855	141.6641723356009	65	127
141.6641723356009	141.78027210884355	69	127
141.6641723356009	141.8499319727891	62	127
141.78027210884355	141.97764172335602	65	127
141.8499319727891	142.1053514739229	64	127
141.97764172335602	142.1401814058957	69	127
142.1053514739229	142.37238095238095	65	127
142.1401814058957	142.37238095238095	65	127
142.37238095238095	144.1138775510204	64	127
142.37238095238095	142.4884807256236	69	127
142.4884807256236	142.68585034013606	65	127
142.68585034013606	142.813537414966	69	127
142.813537414966	142.97609977324262	65	127
142.97609977324262	143.16185941043085	69	127
143.16185941043085	143.301179138322	65	127
143.301179138322	143.42886621315193	69	127
143.42886621315193	143.60303854875283	65	127
143.60303854875283	143.71913832199547	69	127
143.71913832199547	143.99777777777777	65	127
143.99777777777777	144.1138775510204	69	127
144.1138775510204	144.3460544217687	65	127
144.3460544217687	144.62471655328798	62	127
144.3460544217687	144.5202267573696	69	127
144.5202267573696	144.82208616780045	65	127
144.62471655328798	145.0891156462585	64	127
144.82208616780045	145.13555555555556	69	127
145.0891156462585	145.5883446712018	65	127
145.13555555555556	145.59995464852608	65	127
145.59995464852608	147.49238095238096	53	127
145.59995464852608	153.33219954648527	46	127
145.59995464852608	147.49238095238096	62	127
145.59995464852608	147.65492063492064	69	127
147.65492063492064	148.24702947845805	60	127
147.65492063492064	147.86390022675738	67	127
147.65492063492064	148.24702947845805	51	127
147.86390022675738	148.0264172335601	69	127
148.0264172335601	148.24702947845805	70	127
148.24702947845805	149.95369614512472	53	127
148.24702947845805	149.95369614512472	62	127
148.24702947845805	150.0814058956916	69	127
150.0814058956916	150.7780045351474	51	127
150.0814058956916	150.41809523809525	67	127
150.0814058956916	150.7780045351474	60	127
150.41809523809525	150.59224489795918	69	127
150.59224489795918	150.76639455782313	70	127
150.7780045351474	152.05510204081634	53	127
150.7780045351474	151.4513605442177	69	127
150.7780045351474	152.5078911564626	62	127
151.4513605442177	151.70678004535148	67	127
151.70678004535148	152.05510204081634	65	127
152.05510204081634	152.658820861678	55	127
152.05510204081634	152.658820861678	63	127
152.658820861678	153.541179138322	60	127
152.658820861678	153.14643990929704	65	127
152.658820861678	153.541179138322	57	127
153.14643990929704	153.52956916099774	67	127
153.541179138322	158.89337868480726	46	127
153.541179138322	154.08684807256236	62	127
153.541179138322	155.38714285714286	69	127
153.541179138322	155.38714285714286	53	127
154.08684807256236	154.35387755102042	60	127
154.35387755102042	154.85310657596372	62	127
154.8879365079365	155.38714285714286	57	127
155.38714285714286	155.66580498866213	67	127
155.38714285714286	155.9328344671202	60	127
155.38714285714286	155.9328344671202	51	127
155.66580498866213	155.8515419501134	69	127
155.8515419501134	156.01410430839002	70	127
156.01410430839002	157.27956916099774	53	127
156.01410430839002	156.37401360544217	62	127
156.01410430839002	157.89489795918368	69	127
156.37401360544217	156.69909297052155	58	127
156.69909297052155	156.97773242630385	65	127
156.97773242630385	157.27956916099774	69	127
157.27956916099774	157.89489795918368	67	127
157.27956916099774	157.89489795918368	62	127
157.89489795918368	158.89337868480726	53	127
157.89489795918368	158.27804988662132	67	127
157.89489795918368	158.35931972789115	65	127
158.27804988662132	158.47541950113379	69	127
158.35931972789115	158.89337868480726	62	127
158.47541950113379	158.89337868480726	70	127
158.89337868480726	160.97156462585033	60	127
158.89337868480726	167.34544217687076	44	127
158.89337868480726	159.58997732426303	72	127
158.89337868480726	160.97156462585033	51	127
159.58997732426303	159.93825396825397	70	127
159.93825396825397	160.30979591836734	72	127
160.30979591836734	160.97156462585033	67	127
160.97156462585033	161.74943310657596	50	127
160.97156462585033	161.19215419501134	58	127
160.97156462585033	161.56367346938777	65	127
161.19215419501134	161.4591836734694	60	127
161.4591836734694	161.7378231292517	62	127
161.74943310657596	163.72310657596373	60	127
161.74943310657596	162.0512925170068	72	127
161.74943310657596	163.72310657596373	51	127
162.0512925170068	162.34151927437642	70	127
162.34151927437642	162.7130612244898	70	127
162.7130612244898	163.01492063492063	72	127
163.01492063492063	163.72310657596373	67	127
163.72310657596373	164.39650793650793	50	127
163.72310657596373	163.99015873015873	58	127
163.72310657596373	164.39650793650793	65	127
163.99015873015873	164.16430839002268	60	127
164.16430839002268	164.39650793650793	62	127
164.39650793650793	165.7897052154195	60	127
164.39650793650793	165.0698866213152	72	127
164.39650793650793	165.7897052154195	51	127
165.0698866213152	165.40655328798186	70	127
165.40655328798186	165.7897052154195	68	127
165.7897052154195	166.37020408163266	53	127
165.7897052154195	166.37020408163266	70	127
165.7897052154195	166.37020408163266	62	127
166.37020408163266	166.97392290249434	51	127
166.37020408163266	166.6836507936508	72	127
166.37020408163266	166.97392290249434	60	127
166.6836507936508	167.34544217687076	74	127
167.34544217687076	175.53045351473924	42	127
167.34544217687076	175.53045351473924	49	127
167.34544217687076	168.00721088435375	70	127
167.34544217687076	169.07532879818595	58	127
167.34544217687076	169.07532879818595	70	127
167.34544217687076	169.23786848072564	75	127
168.00721088435375	168.3671201814059	68	127
168.3671201814059	168.61092970521543	70	127
168.61092970521543	169.23786848072564	65	127
169.23786848072564	170.004126984127	68	127
169.23786848072564	169.5281179138322	73	127
169.23786848072564	170.004126984127	56	127
169.23786848072564	170.004126984127	63	127
169.5281179138322	169.7487074829932	75	127
169.7487074829932	170.004126984127	77	127
170.004126984127	171.96621315192743	75	127
170.004126984127	170.34081632653061	70	127
170.004126984127	171.83850340136055	58	127
170.004126984127	171.83850340136055	70	127
170.34081632653061	170.60784580498867	68	127
170.60784580498867	171.1883446712018	68	127
171.1883446712018	171.45537414965986	70	127
171.45537414965986	171.96621315192743	65	127
171.96621315192743	172.80213151927438	68	127
171.96621315192743	172.24485260770976	73	127
171.96621315192743	172.70925170068028	63	127
171.96621315192743	172.80213151927438	56	127
172.24485260770976	172.51185941043084	75	127
172.51185941043084	172.80213151927438	77	127
172.80213151927438	173.3942403628118	75	127
172.80213151927438	173.91668934240363	58	127
172.80213151927438	173.91668934240363	70	127
172.80213151927438	174.04437641723356	70	127
173.3942403628118	173.75414965986394	73	127
173.75414965986394	174.04437641723356	70	127
174.04437641723356	174.903537414966	73	127
174.04437641723356	174.903537414966	56	127
174.04437641723356	174.903537414966	68	127
174.04437641723356	175.39115646258503	61	127
174.903537414966	175.43759637188208	70	127
174.903537414966	175.26344671201815	75	127
174.903537414966	175.43759637188208	58	127
175.26344671201815	175.51886621315194	78	127
175.53045351473924	176.2851247165533	56	127
175.53045351473924	176.2851247165533	64	127
175.53045351473924	183.6922902494331	40	127
175.53045351473924	183.6922902494331	47	127
175.53045351473924	176.2851247165533	85	127
175.53045351473924	177.3532426303855	62	127
176.2851247165533	176.81918367346938	57	127
176.2851247165533	176.81918367346938	66	127
176.2851247165533	176.54054421768708	83	127
176.54054421768708	176.81918367346938	85	127
176.81918367346938	177.3532426303855	80	127
176.81918367346938	177.3532426303855	68	127
176.81918367346938	177.3532426303855	59	127
177.3532426303855	177.55061224489796	61	127
177.3532426303855	177.88730158730158	78	127
177.3532426303855	177.88730158730158	57	127
177.3532426303855	177.88730158730158	66	127
177.55061224489796	177.72473922902495	62	127
177.72473922902495	177.88730158730158	64	127
177.88730158730158	178.40975056689342	56	127
177.88730158730158	178.40975056689342	64	127
177.88730158730158	178.1659410430839	85	127
177.88730158730158	179.36174603174604	62	127
178.1659410430839	178.40975056689342	78	127
178.40975056689342	178.6651700680272	83	127
178.40975056689342	178.90897959183673	66	127
178.40975056689342	178.90897959183673	57	127
178.6651700680272	178.90897959183673	88	127
178.90897959183673	179.36174603174604	85	127
178.90897959183673	179.36174603174604	59	127
178.90897959183673	179.36174603174604	68	127
179.36174603174604	179.83777777777777	66	127
179.36174603174604	179.51269841269843	61	127
179.36174603174604	179.59396825396826	83	127
179.36174603174604	179.83777777777777	57	127
179.51269841269843	179.6752380952381	62	127
179.59396825396826	179.83777777777777	80	127
179.6752380952381	179.83777777777777	64	127
179.83777777777777	181.2774149659864	62	127
179.83777777777777	180.29056689342403	64	127
179.83777777777777	180.29056689342403	78	127
179.83777777777777	180.29056689342403	56	127
180.29056689342403	180.7781859410431	57	127
180.29056689342403	180.7781859410431	66	127
180.29056689342403	180.53437641723357	80	127
180.53437641723357	180.7781859410431	78	127
180.7781859410431	181.0219954648526	76	127
180.7781859410431	181.2774149659864	59	127
180.7781859410431	181.2774149659864	68	127
181.0219954648526	181.2774149659864	73	127
181.2774149659864	181.79986394557824	66	127
181.2774149659864	181.45156462585035	61	127
181.2774149659864	182.04367346938776	71	127
181.2774149659864	181.79986394557824	57	127
181.45156462585035	181.62571428571428	62	127
181.62571428571428	181.79986394557824	64	127
181.79986394557824	182.76349206349207	56	127
181.79986394557824	182.76349206349207	64	127
181.79986394557824	183.6922902494331	62	127
182.04367346938776	182.27585034013606	73	127
182.27585034013606	183.03052154195012	66	127
182.76349206349207	183.2975283446712	57	127
182.76349206349207	183.2975283446712	64	127
183.03052154195012	183.2975283446712	68	127
183.2975283446712	183.7271201814059	64	127
183.2975283446712	183.552947845805	61	127
183.2975283446712	183.7271201814059	56	127
183.552947845805	183.82	59	127
183.82	184.19151927437642	38	127
183.82	184.19151927437642	57	127
183.82	183.92448979591836	57	127
183.82	183.93609977324263	50	127
183.82	184.19151927437642	45	127
183.93609977324263	184.040589569161	53	127
183.93609977324263	184.040589569161	57	127
184.040589569161	184.15668934240364	50	127
184.040589569161	184.15668934240364	60	127
184.15668934240364	184.2727664399093	60	127
184.15668934240364	184.2727664399093	53	127
184.2727664399093	184.38888888888889	53	127
184.2727664399093	184.37727891156462	62	127
184.38888888888889	184.49337868480725	62	127
184.38888888888889	184.50498866213152	57	127
184.50498866213152	184.6094784580499	65	127
184.50498866213152	184.6094784580499	53	127
184.6094784580499	184.72557823129253	65	127
184.6094784580499	184.72557823129253	57	127
184.72557823129253	184.84167800453514	57	127
184.72557823129253	184.84167800453514	62	127
184.84167800453514	184.9461678004535	62	127
184.84167800453514	184.95777777777778	60	127
184.95777777777778	185.07387755102042	57	127
184.95777777777778	185.06226757369615	65	127
185.07387755102042	185.18995464852608	65	127
185.07387755102042	185.18995464852608	60	127
185.18995464852608	185.30607709750566	60	127
185.18995464852608	185.30607709750566	69	127
185.30607709750566	185.41056689342403	69	127
185.30607709750566	185.4221768707483	62	127
185.4221768707483	185.52666666666667	72	127
185.4221768707483	185.53827664399094	60	127
185.53827664399094	185.6427664399093	62	127
185.53827664399094	185.6427664399093	72	127
185.6427664399093	185.75886621315192	62	127
185.6427664399093	185.75886621315192	69	127
185.6427664399093	185.75886621315192	69	127
185.75886621315192	185.8981859410431	69	127
185.75886621315192	185.8981859410431	65	127
185.8981859410431	186.0142857142857	65	127
185.8981859410431	186.00267573696146	72	127
186.0142857142857	186.11877551020407	72	127
186.0142857142857	186.11877551020407	69	127
186.13038548752834	186.25809523809525	69	127
186.13038548752834	186.25809523809525	74	127
186.25809523809525	186.37419501133786	74	127
186.25809523809525	186.37419501133786	72	127
186.37419501133786	186.50190476190477	72	127
186.37419501133786	186.50190476190477	77	127
186.50190476190477	186.64122448979592	77	127
186.50190476190477	186.64122448979592	74	127
186.6528344671202	186.75732426303856	77	127
186.6528344671202	186.75732426303856	84	127
186.76893424036282	186.8734240362812	84	127
186.76893424036282	186.8734240362812	77	127
186.8734240362812	186.9895238095238	74	127
186.8734240362812	186.9895238095238	81	127
186.9895238095238	187.10562358276644	81	127
186.9895238095238	187.10562358276644	74	127
187.10562358276644	187.2101133786848	77	127
187.10562358276644	187.2101133786848	72	127
187.10562358276644	188.02281179138322	72	127
187.22172335600908	187.32621315192745	77	127
187.22172335600908	187.32621315192745	72	127
187.32621315192745	187.4422902494331	81	127
187.32621315192745	187.4422902494331	74	127
187.4422902494331	187.57002267573696	81	127
187.4422902494331	187.57002267573696	74	127
187.57002267573696	187.67451247165533	84	127
187.57002267573696	187.67451247165533	77	127
187.6861224489796	187.79061224489797	77	127
187.6861224489796	187.79061224489797	84	127
187.8022222222222	187.90671201814058	74	127
187.8022222222222	187.90671201814058	81	127
187.90671201814058	188.02281179138322	81	127
187.90671201814058	188.02281179138322	74	127
188.02281179138322	188.13891156462586	77	127
188.02281179138322	188.498820861678	69	127
188.02281179138322	188.13891156462586	72	127
188.13891156462586	188.25498866213152	77	127
188.13891156462586	188.25498866213152	72	127
188.26662131519274	188.3711111111111	81	127
188.26662131519274	188.3711111111111	74	127
188.38272108843537	188.498820861678	81	127
188.38272108843537	188.498820861678	74	127
188.498820861678	188.61489795918368	84	127
188.498820861678	188.98643990929705	67	127
188.498820861678	188.61489795918368	77	127
188.61489795918368	188.74263038548753	84	127
188.61489795918368	188.74263038548753	77	127
188.74263038548753	188.85873015873017	81	127
188.74263038548753	188.85873015873017	74	127
188.87031746031747	188.97480725623583	81	127
188.87031746031747	188.97480725623583	74	127
188.98643990929705	189.5088888888889	65	127
188.98643990929705	189.11414965986395	77	127
188.98643990929705	189.11414965986395	72	127
189.11414965986395	189.27666666666667	77	127
189.11414965986395	189.27666666666667	72	127
189.27666666666667	189.38115646258504	81	127
189.27666666666667	189.38115646258504	74	127
189.39278911564625	189.49727891156462	74	127
189.39278911564625	189.49727891156462	81	127
189.5088888888889	189.9152380952381	64	127
189.5088888888889	189.62498866213153	84	127
189.5088888888889	189.62498866213153	77	127
189.62498866213153	189.7410657596372	84	127
189.62498866213153	189.7410657596372	77	127
189.7410657596372	189.88040816326532	81	127
189.7410657596372	189.88040816326532	74	127
189.88040816326532	189.98489795918368	81	127
189.88040816326532	189.98489795918368	74	127
189.99648526077098	190.1009977324263	77	127
189.99648526077098	190.21709750566893	62	127
189.99648526077098	190.1009977324263	72	127
190.11260770975056	190.21709750566893	77	127
190.11260770975056	190.21709750566893	72	127
190.21709750566893	190.33319727891157	81	127
190.21709750566893	190.46090702947845	64	127
190.21709750566893	190.33319727891157	74	127
190.33319727891157	190.46090702947845	81	127
190.33319727891157	190.46090702947845	74	127
190.46090702947845	190.5770068027211	84	127
190.46090702947845	190.704716553288	65	127
190.46090702947845	190.5770068027211	77	127
190.58861678004536	190.69310657596372	84	127
190.58861678004536	190.69310657596372	77	127
190.704716553288	190.80920634920636	81	127
190.704716553288	190.92530612244897	67	127
190.704716553288	190.80920634920636	74	127
190.80920634920636	190.92530612244897	81	127
190.80920634920636	190.92530612244897	74	127
190.92530612244897	191.05301587301588	77	127
190.92530612244897	191.41292517006804	69	127
190.92530612244897	191.05301587301588	72	127
191.06462585034015	191.18072562358276	77	127
191.06462585034015	191.18072562358276	72	127
191.19233560090703	191.2968253968254	81	127
191.19233560090703	191.2968253968254	74	127
191.2968253968254	191.41292517006804	81	127
191.2968253968254	191.41292517006804	74	127
191.41292517006804	191.52902494331065	77	127
191.41292517006804	191.52902494331065	84	127
191.41292517006804	192.79451247165534	72	127
191.52902494331065	191.633514739229	84	127
191.52902494331065	191.633514739229	77	127
191.64512471655328	191.74961451247165	81	127
191.64512471655328	191.74961451247165	74	127
191.76122448979592	191.8657142857143	74	127
191.76122448979592	191.8657142857143	81	127
191.8657142857143	191.98181405895693	77	127
191.8657142857143	191.98181405895693	72	127
191.98181405895693	192.09791383219954	77	127
191.98181405895693	192.09791383219954	72	127
192.09791383219954	192.2024036281179	81	127
192.09791383219954	192.2024036281179	74	127
192.21401360544218	192.31850340136054	81	127
192.21401360544218	192.31850340136054	74	127
192.3301133786848	192.43460317460318	77	127
192.3301133786848	192.43460317460318	72	127
192.43460317460318	192.57392290249433	77	127
192.43460317460318	192.57392290249433	72	127
192.57392290249433	192.69002267573697	74	127
192.57392290249433	192.69002267573697	69	127
192.69002267573697	192.78290249433107	69	127
192.69002267573697	192.78290249433107	74	127
192.79451247165534	192.8990022675737	65	127
192.79451247165534	193.177641723356	69	127
192.79451247165534	192.8990022675737	72	127
192.91061224489795	193.01510204081632	72	127
192.91061224489795	193.01510204081632	65	127
193.01510204081632	193.14281179138322	74	127
193.01510204081632	193.14281179138322	69	127
193.14281179138322	193.2473015873016	69	127
193.14281179138322	193.2473015873016	74	127
193.25891156462586	193.36340136054423	72	127
193.25891156462586	194.66371882086167	72	127
193.25891156462586	193.36340136054423	65	127
193.37501133786847	193.47950113378684	72	127
193.37501133786847	193.47950113378684	65	127
193.47950113378684	193.59560090702948	69	127
193.47950113378684	193.59560090702948	62	127
193.59560090702948	193.71170068027212	69	127
193.59560090702948	193.71170068027212	62	127
193.71170068027212	193.81619047619049	60	127
193.71170068027212	193.81619047619049	65	127
193.82780045351473	193.9322902494331	60	127
193.82780045351473	193.9322902494331	65	127
193.94390022675736	194.06	69	127
193.94390022675736	194.06	62	127
194.06	194.21092970521542	69	127
194.06	194.21092970521542	62	127
194.21092970521542	194.32702947845806	65	127
194.21092970521542	194.32702947845806	60	127
194.32702947845806	194.43151927437643	60	127
194.32702947845806	194.43151927437643	65	127
194.44312925170067	194.54761904761904	69	127
194.44312925170067	194.54761904761904	62	127
194.5592290249433	194.66371882086167	69	127
194.5592290249433	194.66371882086167	62	127
194.66371882086167	194.79142857142858	65	127
194.66371882086167	195.13972789115647	69	127
194.66371882086167	194.79142857142858	60	127
194.79142857142858	194.9075283446712	60	127
194.79142857142858	194.9075283446712	65	127
194.91913832199546	195.02362811791383	57	127
194.91913832199546	195.02362811791383	62	127
195.0352380952381	195.13972789115647	62	127
195.0352380952381	195.13972789115647	57	127
195.13972789115647	195.2558276643991	65	127
195.13972789115647	195.59251700680272	72	127
195.13972789115647	195.2558276643991	60	127
195.2558276643991	195.3487074829932	65	127
195.2558276643991	195.3487074829932	60	127
195.3487074829932	195.45319727891157	69	127
195.3487074829932	195.45319727891157	62	127
195.47641723356008	195.58090702947845	69	127
195.47641723356008	195.58090702947845	62	127
195.59251700680272	195.73183673469387	65	127
195.59251700680272	196.3819954648526	74	127
195.59251700680272	195.73183673469387	60	127
195.73183673469387	195.8479365079365	65	127
195.73183673469387	195.8479365079365	60	127
195.8479365079365	195.9756462585034	62	127
195.8479365079365	195.9756462585034	57	127
195.9756462585034	196.08013605442176	62	127
195.9756462585034	196.08013605442176	57	127
196.09174603174603	196.1962358276644	65	127
196.09174603174603	196.1962358276644	60	127
196.20784580498866	196.31233560090703	65	127
196.20784580498866	196.31233560090703	60	127
196.31233560090703	196.42843537414967	69	127
196.31233560090703	196.42843537414967	62	127
196.39360544217686	196.75351473922902	72	127
196.42843537414967	196.6025850340136	69	127
196.42843537414967	196.6025850340136	62	127
196.6025850340136	196.70707482993197	60	127
196.6025850340136	196.70707482993197	65	127
196.71868480725624	196.8231746031746	65	127
196.71868480725624	196.8231746031746	60	127
196.75351473922902	197.05537414965985	74	127
196.83478458049888	196.93927437641725	62	127
196.83478458049888	196.93927437641725	57	127
196.93927437641725	197.05537414965985	62	127
196.93927437641725	197.05537414965985	57	127
197.05537414965985	197.15986394557822	68	127
197.05537414965985	197.7635827664399	75	127
197.05537414965985	197.1714739229025	56	127
197.1714739229025	197.27596371882086	68	127
197.1714739229025	197.28757369614513	58	127
197.28757369614513	197.40367346938777	56	127
197.28757369614513	197.40367346938777	59	127
197.40367346938777	197.51977324263038	61	127
197.40367346938777	197.51977324263038	56	127
197.51977324263038	197.6474829931973	59	127
197.51977324263038	197.6474829931973	56	127
197.6474829931973	197.7635827664399	56	127
197.6474829931973	197.77519274376417	61	127
197.77519274376417	197.87968253968253	59	127
197.77519274376417	197.8912925170068	63	127
197.8912925170068	198.01900226757368	65	127
197.8912925170068	198.01900226757368	59	127
198.01900226757368	198.1467120181406	63	127
198.01900226757368	198.1467120181406	59	127
198.1467120181406	198.26281179138323	59	127
198.1467120181406	198.26281179138323	65	127
198.26281179138323	198.37891156462584	67	127
198.26281179138323	198.3673015873016	63	127
198.37891156462584	198.49501133786848	63	127
198.37891156462584	198.50662131519275	68	127
198.50662131519275	198.61111111111111	67	127
198.50662131519275	198.61111111111111	63	127
198.61111111111111	198.738820861678	63	127
198.61111111111111	198.738820861678	68	127
198.738820861678	198.85492063492063	70	127
198.738820861678	198.84331065759636	68	127
198.85492063492063	198.959410430839	68	127
198.85492063492063	198.97102040816327	71	127
198.97102040816327	199.0871201814059	59	127
198.97102040816327	199.0871201814059	67	127
199.0871201814059	199.24965986394557	59	127
199.0871201814059	199.24965986394557	68	127
199.24965986394557	199.3657596371882	63	127
199.24965986394557	199.3657596371882	70	127
199.3657596371882	199.48185941043084	71	127
199.3657596371882	199.47024943310657	63	127
199.48185941043084	199.59795918367348	63	127
199.48185941043084	199.60956916099772	70	127
199.60956916099772	199.7140589569161	71	127
199.60956916099772	199.7140589569161	63	127
199.7140589569161	199.87659863945578	68	127
199.7140589569161	199.87659863945578	73	127
199.87659863945578	199.99269841269842	68	127
199.87659863945578	199.99269841269842	75	127
199.99269841269842	200.09718820861679	77	127
199.99269841269842	200.09718820861679	71	127
200.10879818594105	200.21328798185942	71	127
200.10879818594105	200.21328798185942	77	127
200.22489795918366	200.32938775510203	75	127
200.22489795918366	200.32938775510203	68	127
200.32938775510203	200.44548752834467	75	127
200.32938775510203	200.44548752834467	68	127
200.44548752834467	201.33945578231294	87	127
200.44548752834467	201.33945578231294	63	127
200.44548752834467	200.5615873015873	71	127
200.44548752834467	200.5615873015873	65	127
200.5615873015873	200.66607709750568	71	127
200.5615873015873	200.66607709750568	65	127
200.67768707482992	200.7821768707483	68	127
200.67768707482992	200.7821768707483	75	127
200.79378684807256	200.89827664399093	75	127
200.79378684807256	200.89827664399093	68	127
200.89827664399093	201.01437641723356	77	127
200.89827664399093	201.01437641723356	71	127
201.01437641723356	201.10725623582766	77	127
201.01437641723356	201.10725623582766	71	127
201.11886621315193	201.2233560090703	75	127
201.11886621315193	201.2233560090703	68	127
201.23496598639457	201.33945578231294	75	127
201.23496598639457	201.33945578231294	68	127
201.33945578231294	201.45555555555555	71	127
201.33945578231294	201.45555555555555	65	127
201.33945578231294	201.8154648526077	83	127
201.33945578231294	201.8154648526077	59	127
201.45555555555555	201.58326530612246	71	127
201.45555555555555	201.58326530612246	65	127
201.58326530612246	201.68775510204082	75	127
201.58326530612246	201.68775510204082	68	127
201.69936507936507	201.80385487528343	75	127
201.69936507936507	201.80385487528343	68	127
201.8154648526077	202.26825396825396	82	127
201.8154648526077	202.26825396825396	58	127
201.8154648526077	201.91995464852607	77	127
201.8154648526077	201.91995464852607	71	127
201.91995464852607	202.0360544217687	77	127
201.91995464852607	202.0360544217687	71	127
202.0360544217687	202.15215419501135	75	127
202.0360544217687	202.15215419501135	68	127
202.15215419501135	202.25664399092972	75	127
202.15215419501135	202.25664399092972	68	127
202.26825396825396	202.75587301587302	80	127
202.26825396825396	202.3843537414966	71	127
202.26825396825396	202.3843537414966	65	127
202.26825396825396	202.75587301587302	56	127
202.41918367346938	202.52367346938775	65	127
202.41918367346938	202.52367346938775	71	127
202.52367346938775	202.63977324263038	75	127
202.52367346938775	202.63977324263038	68	127
202.63977324263038	202.74426303854875	75	127
202.63977324263038	202.74426303854875	68	127
202.75587301587302	203.20866213151928	55	127
202.75587301587302	203.20866213151928	79	127
202.75587301587302	202.8603628117914	77	127
202.75587301587302	202.8603628117914	71	127
202.87197278911566	202.976462585034	71	127
202.87197278911566	202.976462585034	77	127
202.976462585034	203.09256235827664	68	127
202.976462585034	203.09256235827664	75	127
203.09256235827664	203.20866213151928	75	127
203.09256235827664	203.20866213151928	68	127
203.20866213151928	203.44086167800452	53	127
203.20866213151928	203.31315192743764	65	127
203.20866213151928	203.31315192743764	71	127
203.20866213151928	203.44086167800452	77	127
203.3247619047619	203.42925170068028	65	127
203.3247619047619	203.42925170068028	71	127
203.44086167800452	203.68467120181407	79	127
203.44086167800452	203.5453514739229	75	127
203.44086167800452	203.5453514739229	68	127
203.44086167800452	203.68467120181407	55	127
203.5453514739229	203.68467120181407	68	127
203.5453514739229	203.68467120181407	75	127
203.68467120181407	203.80077097505668	77	127
203.68467120181407	203.80077097505668	71	127
203.68467120181407	203.91687074829932	80	127
203.68467120181407	203.91687074829932	56	127
203.80077097505668	203.90526077097505	77	127
203.80077097505668	203.90526077097505	71	127
203.91687074829932	204.13746031746032	82	127
203.91687074829932	204.13746031746032	58	127
203.91687074829932	204.02136054421769	75	127
203.91687074829932	204.02136054421769	68	127
204.03297052154196	204.13746031746032	75	127
204.03297052154196	204.13746031746032	68	127
204.13746031746032	204.25356009070296	71	127
204.13746031746032	204.25356009070296	65	127
204.13746031746032	204.63668934240363	83	127
204.13746031746032	204.63668934240363	59	127
204.25356009070296	204.38126984126984	71	127
204.25356009070296	204.38126984126984	65	127
204.38126984126984	204.50897959183675	75	127
204.38126984126984	204.50897959183675	68	127
204.520589569161	204.62507936507936	68	127
204.520589569161	204.62507936507936	75	127
204.63668934240363	205.98344671201815	63	127
204.63668934240363	205.98344671201815	87	127
204.63668934240363	204.741179138322	77	127
204.63668934240363	204.741179138322	71	127
204.741179138322	204.85727891156463	71	127
204.741179138322	204.85727891156463	77	127
204.85727891156463	204.961768707483	68	127
204.85727891156463	204.961768707483	75	127
204.97337868480724	205.0778684807256	68	127
204.97337868480724	205.0778684807256	75	127
205.08947845804988	205.19396825396825	71	127
205.08947845804988	205.19396825396825	65	127
205.19396825396825	205.3100680272109	71	127
205.19396825396825	205.3100680272109	65	127
205.3100680272109	205.42616780045353	75	127
205.3100680272109	205.42616780045353	68	127
205.42616780045353	205.5306575963719	75	127
205.42616780045353	205.5306575963719	68	127
205.54226757369614	205.63514739229024	77	127
205.54226757369614	205.63514739229024	71	127
205.6467573696145	205.75124716553287	77	127
205.6467573696145	205.75124716553287	71	127
205.75124716553287	205.8673469387755	75	127
205.75124716553287	205.8673469387755	68	127
205.8673469387755	205.98344671201815	75	127
205.8673469387755	205.98344671201815	68	127
205.98344671201815	206.4362358276644	83	127
205.98344671201815	206.4362358276644	59	127
205.98344671201815	206.08793650793652	71	127
205.98344671201815	206.08793650793652	65	127
206.09954648526076	206.20403628117913	71	127
206.09954648526076	206.20403628117913	65	127
206.2156462585034	206.32013605442177	75	127
206.2156462585034	206.32013605442177	68	127
206.32013605442177	206.4362358276644	75	127
206.32013605442177	206.4362358276644	68	127
206.4362358276644	207.80621315192744	87	127
206.4362358276644	207.80621315192744	63	127
206.4362358276644	206.54072562358277	77	127
206.4362358276644	206.54072562358277	71	127
206.55233560090704	206.65682539682538	77	127
206.55233560090704	206.65682539682538	71	127
206.66843537414965	206.77292517006802	75	127
206.66843537414965	206.77292517006802	68	127
206.77292517006802	206.88902494331066	68	127
206.77292517006802	206.88902494331066	75	127
206.88902494331066	206.99351473922903	71	127
206.88902494331066	206.99351473922903	65	127
206.99351473922903	207.0980045351474	65	127
206.99351473922903	207.0980045351474	71	127
207.10961451247167	207.21410430839003	68	127
207.10961451247167	207.21410430839003	63	127
207.22571428571428	207.33020408163264	68	127
207.22571428571428	207.33020408163264	63	127
207.33020408163264	207.45791383219955	59	127
207.33020408163264	207.45791383219955	65	127
207.45791383219955	207.5740136054422	65	127
207.45791383219955	207.5740136054422	59	127
207.5740136054422	207.67850340136056	68	127
207.5740136054422	207.67850340136056	63	127
207.6901133786848	207.79460317460317	68	127
207.6901133786848	207.79460317460317	63	127
207.80621315192744	208.23578231292518	59	127
207.80621315192744	208.23578231292518	83	127
207.80621315192744	207.89909297052154	65	127
207.80621315192744	207.89909297052154	59	127
207.89909297052154	208.0035827664399	65	127
207.89909297052154	208.0035827664399	59	127
208.0035827664399	208.11968253968254	63	127
208.0035827664399	208.11968253968254	56	127
208.11968253968254	208.2241723356009	63	127
208.11968253968254	208.2241723356009	56	127
208.23578231292518	208.34027210884355	63	127
208.23578231292518	208.67696145124717	63	127
208.23578231292518	208.67696145124717	87	127
208.23578231292518	208.34027210884355	56	127
208.3518820861678	208.45637188208616	63	127
208.3518820861678	208.45637188208616	56	127
208.45637188208616	208.56086167800453	65	127
208.45637188208616	208.56086167800453	59	127
208.56086167800453	208.6653514739229	65	127
208.56086167800453	208.6653514739229	59	127
208.67696145124717	209.44321995464853	89	127
208.67696145124717	208.81628117913831	63	127
208.67696145124717	208.81628117913831	56	127
208.67696145124717	209.44321995464853	65	127
208.82789115646258	208.93238095238095	56	127
208.82789115646258	208.93238095238095	63	127
208.93238095238095	209.0484807256236	59	127
208.93238095238095	209.0484807256236	53	127
209.0484807256236	209.15297052154196	53	127
209.0484807256236	209.15297052154196	59	127
209.15297052154196	209.25746031746033	63	127
209.15297052154196	209.25746031746033	56	127
209.26907029478457	209.3619501133787	63	127
209.26907029478457	209.3619501133787	56	127
209.37356009070294	209.46643990929707	65	127
209.37356009070294	209.46643990929707	59	127
209.44321995464853	209.72185941043085	63	127
209.44321995464853	209.72185941043085	87	127
209.46643990929707	209.5709297052154	65	127
209.46643990929707	209.5709297052154	59	127
209.5709297052154	209.68702947845804	63	127
209.5709297052154	209.68702947845804	56	127
209.68702947845804	209.80312925170068	63	127
209.68702947845804	209.80312925170068	56	127
209.72185941043085	210.10498866213152	89	127
209.72185941043085	210.10498866213152	65	127
209.84956916099773	209.97727891156464	59	127
209.84956916099773	209.97727891156464	53	127
209.98888888888888	210.10498866213152	59	127
209.98888888888888	210.10498866213152	53	127
210.10498866213152	210.22108843537416	57	127
210.10498866213152	211.38208616780045	66	127
210.10498866213152	211.38208616780045	90	127
210.10498866213152	210.22108843537416	51	127
210.22108843537416	210.33718820861677	53	127
210.22108843537416	210.33718820861677	60	127
210.33718820861677	210.4532879818594	57	127
210.33718820861677	210.4532879818594	51	127
210.4532879818594	210.5809977324263	60	127
210.4532879818594	210.5809977324263	53	127
210.5809977324263	210.69709750566892	54	127
210.5809977324263	210.69709750566892	59	127
210.69709750566892	210.81319727891156	63	127
210.69709750566892	210.81319727891156	56	127
210.81319727891156	210.9292970521542	59	127
210.81319727891156	210.9292970521542	54	127
210.9292970521542	211.03378684807257	63	127
210.9292970521542	211.03378684807257	53	127
211.04539682539684	211.1498866213152	57	127
211.04539682539684	211.1498866213152	51	127
211.1498866213152	211.2659863945578	60	127
211.1498866213152	211.2659863945578	53	127
211.2659863945578	211.38208616780045	51	127
211.2659863945578	211.38208616780045	57	127
211.38208616780045	211.48657596371882	60	127
211.38208616780045	211.50979591836736	53	127
211.50979591836736	211.62589569160997	59	127
211.50979591836736	211.62589569160997	54	127
211.62589569160997	211.73038548752834	63	127
211.62589569160997	211.73038548752834	56	127
211.73038548752834	211.84648526077098	54	127
211.73038548752834	211.84648526077098	59	127
211.84648526077098	211.9625850340136	63	127
211.84648526077098	211.9625850340136	53	127
211.9625850340136	212.07868480725622	57	127
211.9625850340136	212.07868480725622	51	127
212.07868480725622	212.19478458049886	60	127
212.07868480725622	212.19478458049886	53	127
212.19478458049886	212.29927437641723	57	127
212.19478458049886	212.29927437641723	51	127
212.29927437641723	212.41537414965987	60	127
212.29927437641723	212.41537414965987	53	127
212.41537414965987	212.5314739229025	59	127
212.41537414965987	212.8797732426304	75	127
212.41537414965987	212.5314739229025	54	127
212.5314739229025	212.64757369614512	56	127
212.5314739229025	212.64757369614512	63	127
212.64757369614512	212.75206349206348	59	127
212.64757369614512	212.75206349206348	54	127
212.75206349206348	212.8797732426304	63	127
212.75206349206348	212.8797732426304	53	127
212.8797732426304	212.995873015873	51	127
212.8797732426304	213.33256235827665	78	127
212.8797732426304	212.995873015873	57	127
212.995873015873	213.11197278911564	60	127
212.995873015873	213.11197278911564	53	127
213.11197278911564	213.22807256235828	51	127
213.11197278911564	213.22807256235828	57	127
213.22807256235828	213.33256235827665	53	127
213.22807256235828	213.33256235827665	60	127
213.33256235827665	213.44866213151928	59	127
213.33256235827665	213.44866213151928	54	127
213.44866213151928	213.57637188208616	63	127
213.44866213151928	213.57637188208616	56	127
213.57637188208616	213.6924716553288	54	127
213.57637188208616	213.6924716553288	59	127
213.6924716553288	213.79696145124717	63	127
213.6924716553288	213.79696145124717	53	127
213.80857142857144	213.90145124716554	57	127
213.80857142857144	213.90145124716554	51	127
213.90145124716554	214.01755102040818	60	127
213.90145124716554	214.01755102040818	53	127
214.01755102040818	214.1336507936508	57	127
214.01755102040818	214.1336507936508	51	127
214.1336507936508	214.23814058956916	53	127
214.1336507936508	214.23814058956916	60	127
214.24975056689343	214.3774603174603	59	127
214.24975056689343	214.79541950113378	63	127
214.24975056689343	214.3774603174603	54	127
214.3774603174603	214.56321995464853	56	127
214.3774603174603	214.56321995464853	63	127
214.56321995464853	214.67931972789117	59	127
214.56321995464853	214.67931972789117	54	127
214.67931972789117	214.78380952380954	53	127
214.67931972789117	214.78380952380954	63	127
214.79541950113378	215.24820861678003	66	127
214.79541950113378	214.91151927437642	57	127
214.79541950113378	214.91151927437642	51	127
214.91151927437642	215.01600907029479	53	127
214.91151927437642	215.01600907029479	60	127
215.01600907029479	215.13210884353742	57	127
215.01600907029479	215.13210884353742	51	127
215.13210884353742	215.24820861678003	60	127
215.13210884353742	215.24820861678003	53	127
215.24820861678003	215.36430839002267	59	127
215.24820861678003	215.36430839002267	54	127
215.36430839002267	215.4804081632653	63	127
215.36430839002267	215.4804081632653	56	127
215.4804081632653	215.58489795918368	54	127
215.4804081632653	215.58489795918368	59	127
215.58489795918368	215.70099773242632	53	127
215.58489795918368	215.70099773242632	63	127
215.70099773242632	215.81709750566893	57	127
215.70099773242632	215.81709750566893	51	127
215.81709750566893	216.02607709750566	53	127
215.81709750566893	216.02607709750566	60	127
216.02607709750566	216.13056689342403	51	127
216.02607709750566	216.13056689342403	57	127
216.13056689342403	216.24666666666667	53	127
216.13056689342403	216.24666666666667	60	127
216.24666666666667	216.35115646258504	59	127
216.24666666666667	216.35115646258504	54	127
216.35115646258504	216.46725623582768	56	127
216.35115646258504	216.46725623582768	63	127
216.46725623582768	216.5833560090703	54	127
216.46725623582768	216.5833560090703	59	127
216.5833560090703	216.68784580498865	53	127
216.5833560090703	216.68784580498865	63	127
216.68784580498865	216.8039455782313	51	127
216.68784580498865	216.8039455782313	57	127
216.8039455782313	216.92004535147393	53	127
216.8039455782313	216.92004535147393	60	127
216.92004535147393	217.03614512471654	51	127
216.92004535147393	217.03614512471654	57	127
217.03614512471654	217.15224489795918	53	127
217.03614512471654	217.1406349206349	60	127
217.15224489795918	217.26834467120182	57	127
217.15224489795918	217.26834467120182	51	127
217.26834467120182	217.41927437641723	60	127
217.26834467120182	217.41927437641723	53	127
217.41927437641723	217.53537414965987	51	127
217.41927437641723	217.53537414965987	57	127
217.53537414965987	217.86045351473922	53	127
217.53537414965987	217.76757369614512	60	127
217.86045351473922	218.12748299319728	51	127
217.86045351473922	217.95333333333335	59	127
217.95333333333335	218.01138321995464	57	127
218.01138321995464	218.06943310657596	59	127
218.06943310657596	218.12748299319728	57	127
218.12748299319728	218.1855328798186	59	127
218.1855328798186	218.2435827664399	57	127
218.2435827664399	218.31324263038547	59	127
218.31324263038547	218.3712925170068	57	127
218.3712925170068	218.48739229024943	59	127
218.3712925170068	218.89374149659864	63	127
218.48739229024943	218.54544217687075	57	127
218.54544217687075	218.67315192743763	59	127
218.67315192743763	218.7195918367347	57	127
218.7195918367347	218.78925170068027	59	127
218.78925170068027	218.8473015873016	57	127
218.8473015873016	218.9053514739229	59	127
218.9053514739229	218.96340136054422	57	127
218.96340136054422	220.3798185941043	66	127
218.96340136054422	219.02145124716554	59	127
219.02145124716554	219.07950113378683	57	127
219.07950113378683	219.14916099773242	59	127
219.14916099773242	219.20721088435374	57	127
219.20721088435374	219.26526077097506	59	127
219.26526077097506	219.3117006802721	57	127
219.3117006802721	219.36975056689343	59	127
219.36975056689343	219.42780045351475	57	127
219.42780045351475	219.48585034013607	59	127
219.48585034013607	219.54390022675736	57	127
219.54390022675736	219.60195011337868	59	127
219.60195011337868	219.66	57	127
219.66	219.71804988662132	59	127
219.71804988662132	219.7877097505669	57	127
219.7877097505669	219.83414965986395	59	127
219.83414965986395	219.9038095238095	57	127
219.9038095238095	219.98507936507937	59	127
219.98507936507937	220.0431292517007	57	127
220.0431292517007	220.10117913832198	59	127
220.10117913832198	220.1592290249433	57	127
220.1592290249433	220.21727891156462	59	127
220.21727891156462	220.27532879818594	57	127
220.27532879818594	220.33337868480726	59	127
220.33337868480726	220.3798185941043	57	127
220.3798185941043	220.43786848072563	59	127
220.3798185941043	220.542358276644	65	127
220.43786848072563	220.49591836734695	57	127
220.49591836734695	220.55396825396826	59	127
220.542358276644	220.70489795918368	66	127
220.55396825396826	220.61201814058956	57	127
220.61201814058956	220.68167800453514	59	127
220.68167800453514	220.73972789115646	57	127
220.70489795918368	220.89065759637188	68	127
220.73972789115646	220.83260770975056	59	127
220.83260770975056	220.8790476190476	57	127
220.89065759637188	220.9487074829932	59	127
220.89065759637188	222.3302947845805	66	127
220.9487074829932	220.99514739229025	57	127
220.99514739229025	221.05319727891157	59	127
221.05319727891157	221.1112471655329	57	127
221.1112471655329	221.1692970521542	59	127
221.1692970521542	221.2273469387755	57	127
221.2273469387755	221.28539682539682	59	127
221.28539682539682	221.34344671201814	57	127
221.34344671201814	221.40149659863945	59	127
221.40149659863945	221.45954648526077	57	127
221.45954648526077	221.50598639455782	59	127
221.50598639455782	221.56403628117914	57	127
221.56403628117914	221.63369614512473	59	127
221.63369614512473	221.69174603174602	57	127
221.69174603174602	221.7614058956916	59	127
221.7614058956916	221.8310657596372	57	127
221.8310657596372	221.88911564625852	60	127
221.88911564625852	221.9471655328798	57	127
221.9471655328798	222.0168253968254	60	127
222.0168253968254	222.08648526077098	57	127
222.08648526077098	222.13292517006803	60	127
222.13292517006803	222.19097505668935	57	127
222.19097505668935	222.27224489795918	60	127
222.27224489795918	222.3302947845805	57	127
222.3302947845805	222.48122448979592	65	127
222.3302947845805	222.38834467120182	60	127
222.38834467120182	222.44639455782314	57	127
222.44639455782314	222.50444444444443	60	127
222.48122448979592	222.63215419501134	66	127
222.50444444444443	222.56249433106575	57	127
222.56249433106575	222.62054421768707	60	127
222.62054421768707	222.66698412698412	57	127
222.63215419501134	222.78308390022676	68	127
222.66698412698412	222.72503401360544	60	127
222.72503401360544	222.78308390022676	57	127
222.78308390022676	222.84113378684808	61	127
222.78308390022676	223.16621315192745	66	127
222.84113378684808	222.8991836734694	57	127
222.8991836734694	222.9572335600907	61	127
222.9572335600907	223.015283446712	57	127
223.015283446712	223.07333333333332	61	127
223.07333333333332	223.13138321995464	57	127
223.13138321995464	223.18943310657596	61	127
223.18943310657596	223.235873015873	57	127
223.235873015873	224.16467120181406	69	127
223.235873015873	223.29392290249433	61	127
223.29392290249433	223.35197278911565	57	127
223.35197278911565	223.41002267573697	61	127
223.41002267573697	223.4680725623583	57	127
223.4680725623583	223.53773242630385	61	127
223.53773242630385	223.59578231292517	57	127
223.59578231292517	223.65383219954649	61	127
223.65383219954649	223.70027210884354	57	127
223.7118820861678	223.75832199546485	62	127
223.75832199546485	223.81637188208617	57	127
223.81637188208617	223.8744217687075	62	127
223.8744217687075	223.9324716553288	57	127
223.9324716553288	223.9905215419501	62	127
223.9905215419501	224.04857142857142	57	127
224.04857142857142	224.10662131519274	62	127
224.10662131519274	224.1530612244898	57	127
224.16467120181406	224.23433106575965	61	127
224.16467120181406	224.62907029478458	66	127
224.23433106575965	224.2807709750567	57	127
224.2807709750567	224.33882086167802	61	127
224.33882086167802	224.3968707482993	57	127
224.3968707482993	224.45492063492063	61	127
224.45492063492063	224.51297052154194	57	127
224.51297052154194	224.57102040816326	61	127
224.57102040816326	224.6174603174603	57	127
224.62907029478458	224.6871201814059	60	127
224.62907029478458	225.11668934240362	65	127
224.6871201814059	224.74517006802722	57	127
224.74517006802722	224.80321995464854	60	127
224.80321995464854	224.8496598639456	57	127
224.8496598639456	224.90770975056688	60	127
224.90770975056688	224.9657596371882	57	127
224.9657596371882	225.05863945578233	60	127
225.05863945578233	225.11668934240362	57	127
225.11668934240362	225.17473922902494	59	127
225.11668934240362	225.4998185941043	63	127
225.17473922902494	225.23278911564626	57	127
225.23278911564626	225.29083900226757	59	127
225.29083900226757	225.3488888888889	57	127
225.3488888888889	225.39532879818594	59	127
225.39532879818594	225.45337868480726	57	127
225.45337868480726	225.51142857142858	59	127
225.51142857142858	225.5694784580499	57	127
225.5694784580499	225.65074829931973	39	127
225.5694784580499	225.6275283446712	59	127
225.6275283446712	225.6855782312925	57	127
225.65074829931973	225.72040816326532	47	127
225.6855782312925	225.74362811791383	59	127
225.72040816326532	225.79006802721088	54	127
225.74362811791383	225.80167800453515	57	127
225.80167800453515	226.08031746031747	54	127
225.80167800453515	225.9177777777778	59	127
225.80167800453515	225.92938775510203	63	127
225.9177777777778	225.9758276643991	57	127
225.92938775510203	226.01065759637189	71	127
225.9758276643991	226.02226757369615	59	127
226.01065759637189	226.08031746031747	78	127
226.02226757369615	226.08031746031747	57	127
226.08031746031747	226.1615873015873	78	127
226.08031746031747	226.13836734693876	59	127
226.13836734693876	226.19641723356008	57	127
226.1615873015873	226.2312471655329	71	127
226.19641723356008	226.2544671201814	59	127
226.2312471655329	226.30090702947845	63	127
226.2544671201814	226.31251700680272	57	127
226.31251700680272	226.39378684807255	59	127
226.31251700680272	226.40539682539682	54	127
226.31251700680272	226.55632653061224	63	127
226.39378684807255	226.45183673469387	57	127
226.40539682539682	226.48666666666668	47	127
226.45183673469387	226.5098866213152	59	127
226.48666666666668	226.55632653061224	39	127
226.5098866213152	226.55632653061224	57	127
226.55632653061224	226.61437641723356	59	127
226.55632653061224	226.78852607709752	39	127
226.61437641723356	226.67242630385488	57	127
226.67242630385488	226.7304761904762	59	127
226.7304761904762	226.78852607709752	57	127
226.78852607709752	226.84657596371883	59	127
226.84657596371883	226.90462585034012	57	127
226.90462585034012	226.96267573696144	59	127
226.96267573696144	227.02072562358276	57	127
227.02072562358276	227.3922448979592	75	127
227.02072562358276	227.3922448979592	63	127
227.02072562358276	227.07877551020408	59	127
227.07877551020408	227.12521541950113	57	127
227.12521541950113	227.18326530612245	59	127
227.18326530612245	227.24131519274377	57	127
227.24131519274377	227.2993650793651	59	127
227.2993650793651	227.3574149659864	57	127
227.3574149659864	227.4154648526077	59	127
227.4154648526077	227.46190476190475	57	127
227.47351473922902	227.53156462585034	59	127
227.47351473922902	228.87832199546486	78	127
227.47351473922902	228.87832199546486	66	127
227.53156462585034	227.58961451247166	57	127
227.58961451247166	227.6360544217687	59	127
227.6360544217687	227.69410430839002	57	127
227.69410430839002	227.75215419501134	59	127
227.75215419501134	227.81020408163266	57	127
227.81020408163266	227.90308390022676	59	127
227.90308390022676	227.96113378684808	57	127
227.96113378684808	228.0191836734694	59	127
228.0191836734694	228.06562358276645	57	127
228.06562358276645	228.12367346938777	59	127
228.12367346938777	228.17011337868482	57	127
228.17011337868482	228.22816326530614	59	127
228.22816326530614	228.28621315192743	57	127
228.28621315192743	228.34426303854875	59	127
228.34426303854875	228.40231292517007	57	127
228.40231292517007	228.46036281179138	60	127
228.46036281179138	228.5184126984127	57	127
228.5184126984127	228.57646258503402	60	127
228.57646258503402	228.64612244897958	57	127
228.64612244897958	228.7041723356009	60	127
228.7041723356009	228.76222222222222	57	127
228.76222222222222	228.82027210884354	60	127
228.82027210884354	228.87832199546486	57	127
228.87832199546486	228.93637188208618	60	127
228.87832199546486	229.02925170068028	65	127
228.87832199546486	229.02925170068028	77	127
228.93637188208618	228.9944217687075	57	127
228.9944217687075	229.0524716553288	60	127
229.02925170068028	229.19179138321996	78	127
229.02925170068028	229.19179138321996	66	127
229.0524716553288	229.1105215419501	57	127
229.1105215419501	229.1801814058957	60	127
229.1801814058957	229.238231292517	57	127
229.19179138321996	229.34272108843538	80	127
229.19179138321996	229.34272108843538	68	127
229.238231292517	229.28467120181406	60	127
229.28467120181406	229.34272108843538	57	127
229.34272108843538	229.4007709750567	61	127
229.34272108843538	229.8071201814059	78	127
229.34272108843538	229.8071201814059	66	127
229.4007709750567	229.458820861678	57	127
229.458820861678	229.5168707482993	61	127
229.5168707482993	229.57492063492063	57	127
229.57492063492063	229.63297052154195	61	127
229.63297052154195	229.69102040816327	57	127
229.69102040816327	229.7490702947846	61	127
229.7490702947846	229.8071201814059	57	127
229.8071201814059	230.70108843537415	81	127
229.8071201814059	229.85356009070296	61	127
229.8071201814059	230.70108843537415	69	127
229.85356009070296	229.91160997732428	57	127
229.91160997732428	229.96965986394557	61	127
229.96965986394557	230.02770975056688	57	127
230.02770975056688	230.0857596371882	61	127
230.0857596371882	230.14380952380952	57	127
230.14380952380952	230.20185941043084	61	127
230.20185941043084	230.2482993197279	57	127
230.25990929705216	230.31795918367348	62	127
230.31795918367348	230.36439909297053	57	127
230.36439909297053	230.42244897959185	62	127
230.42244897959185	230.48049886621314	57	127
230.48049886621314	230.52693877551022	62	127
230.52693877551022	230.5849886621315	57	127
230.5849886621315	230.64303854875283	62	127
230.64303854875283	230.70108843537415	57	127
230.70108843537415	230.75913832199547	62	127
230.70108843537415	231.16548752834467	78	127
230.70108843537415	231.16548752834467	66	127
230.75913832199547	230.81718820861678	57	127
230.81718820861678	230.8984580498866	62	127
230.8984580498866	230.94489795918366	57	127
230.94489795918366	230.9913378684807	62	127
230.9913378684807	231.04938775510203	57	127
231.04938775510203	231.10743764172335	62	127
231.10743764172335	231.16548752834467	57	127
231.16548752834467	231.61827664399092	65	127
231.16548752834467	231.61827664399092	77	127
231.16548752834467	231.223537414966	61	127
231.223537414966	231.2815873015873	57	127
231.2815873015873	231.33963718820863	61	127
231.33963718820863	231.39768707482995	57	127
231.39768707482995	231.444126984127	61	127
231.444126984127	231.5021768707483	57	127
231.5021768707483	231.5602267573696	61	127
231.5602267573696	231.61827664399092	57	127
231.61827664399092	231.67632653061224	61	127
231.61827664399092	232.00140589569162	63	127
231.61827664399092	232.00140589569162	75	127
231.67632653061224	231.73437641723356	57	127
231.73437641723356	231.79242630385488	61	127
231.79242630385488	231.8504761904762	57	127
231.8504761904762	231.90852607709752	61	127
231.90852607709752	231.95496598639457	57	127
231.95496598639457	232.01301587301586	61	127
232.01301587301586	232.07106575963718	57	127
232.07106575963718	232.1291156462585	61	127
232.07106575963718	232.15233560090704	39	127
232.1291156462585	232.18716553287982	57	127
232.15233560090704	232.2219954648526	47	127
232.18716553287982	232.24521541950114	61	127
232.2219954648526	232.29165532879819	54	127
232.24521541950114	232.30326530612246	57	127
232.30326530612246	232.36131519274377	61	127
232.30326530612246	232.52385487528343	54	127
232.30326530612246	232.37292517006802	57	127
232.30326530612246	232.37292517006802	66	127
232.36131519274377	232.4193650793651	57	127
232.37292517006802	232.45419501133787	63	127
232.37292517006802	232.45419501133787	73	127
232.4193650793651	232.47741496598638	61	127
232.45419501133787	232.52385487528343	69	127
232.45419501133787	232.52385487528343	81	127
232.47741496598638	232.52385487528343	57	127
232.52385487528343	232.6051247165533	81	127
232.52385487528343	232.6051247165533	69	127
232.52385487528343	232.58190476190475	61	127
232.58190476190475	232.63995464852607	57	127
232.6051247165533	232.67478458049888	73	127
232.6051247165533	232.67478458049888	63	127
232.63995464852607	232.6980045351474	61	127
232.67478458049888	232.7560544217687	66	127
232.67478458049888	232.7560544217687	57	127
232.6980045351474	232.7560544217687	57	127
232.7560544217687	232.8489342403628	54	127
232.7560544217687	232.99986394557823	66	127
232.7560544217687	232.99986394557823	57	127
232.7560544217687	232.8257142857143	61	127
232.8257142857143	232.8837641723356	57	127
232.8489342403628	232.93020408163267	47	127
232.8837641723356	232.95342403628118	61	127
232.93020408163267	232.99986394557823	39	127
232.95342403628118	232.99986394557823	57	127
233.0114739229025	233.05791383219955	61	127
233.0114739229025	233.94027210884354	39	127
233.05791383219955	233.11596371882086	57	127
233.11596371882086	233.20884353741496	61	127
233.20884353741496	233.26689342403628	57	127
233.26689342403628	233.3249433106576	61	127
233.3249433106576	233.38299319727892	57	127
233.38299319727892	233.44104308390024	61	127
233.44104308390024	233.49909297052153	57	127
233.49909297052153	233.8590022675737	69	127
233.49909297052153	233.55714285714285	61	127
233.55714285714285	233.61519274376417	57	127
233.61519274376417	233.66163265306122	61	127
233.66163265306122	233.71968253968254	57	127
233.71968253968254	233.7661224489796	61	127
233.7661224489796	233.8241723356009	57	127
233.8241723356009	233.88222222222223	61	127
233.88222222222223	233.92866213151927	57	127
233.94027210884354	235.31024943310658	72	127
233.94027210884354	233.99832199546486	63	127
233.94027210884354	234.85746031746032	41	127
233.99832199546486	234.05637188208615	57	127
234.05637188208615	234.11442176870747	63	127
234.11442176870747	234.16086167800452	57	127
234.16086167800452	234.21891156462584	63	127
234.21891156462584	234.27696145124716	57	127
234.27696145124716	234.33501133786848	63	127
234.33501133786848	234.40467120181407	57	127
234.40467120181407	234.4627210884354	63	127
234.4627210884354	234.52077097505668	57	127
234.52077097505668	234.578820861678	63	127
234.578820861678	234.63687074829932	57	127
234.63687074829932	234.69492063492063	63	127
234.69492063492063	234.74136054421768	57	127
234.74136054421768	234.799410430839	63	127
234.799410430839	234.85746031746032	57	127
234.85746031746032	234.91551020408164	64	127
234.85746031746032	234.97356009070296	64	127
234.85746031746032	235.76303854875283	42	127
234.91551020408164	234.97356009070296	57	127
234.97356009070296	235.03160997732425	64	127
235.03160997732425	235.08965986394557	57	127
235.08965986394557	235.1477097505669	64	127
235.1477097505669	235.2057596371882	57	127
235.2057596371882	235.25219954648526	64	127
235.25219954648526	235.31024943310658	57	127
235.31024943310658	235.3682993197279	64	127
235.31024943310658	235.461179138322	71	127
235.3682993197279	235.42634920634922	57	127
235.42634920634922	235.48439909297053	64	127
235.461179138322	235.6121088435374	72	127
235.48439909297053	235.54244897959182	57	127
235.54244897959182	235.60049886621314	64	127
235.60049886621314	235.65854875283446	57	127
235.6121088435374	235.76303854875283	74	127
235.65854875283446	235.71659863945578	64	127
235.71659863945578	235.76303854875283	57	127
235.76303854875283	236.6570068027211	44	127
235.76303854875283	235.82108843537415	66	127
235.76303854875283	236.22743764172336	72	127
235.82108843537415	235.87913832199547	60	127
235.87913832199547	235.9371882086168	66	127
235.9371882086168	235.9952380952381	60	127
235.9952380952381	236.0532879818594	66	127
236.0532879818594	236.11133786848072	60	127
236.11133786848072	236.16938775510204	66	127
236.16938775510204	236.22743764172336	60	127
236.22743764172336	236.28548752834467	66	127
236.22743764172336	236.35514739229026	71	127
236.28548752834467	236.30870748299319	60	127
236.30870748299319	236.3667573696145	66	127
236.35514739229026	236.50607709750568	72	127
236.3667573696145	236.42480725623582	60	127
236.42480725623582	236.48285714285714	66	127
236.48285714285714	236.54090702947846	60	127
236.50607709750568	236.6570068027211	74	127
236.54090702947846	236.59895691609978	66	127
236.59895691609978	236.64539682539683	60	127
236.6570068027211	236.98208616780045	75	127
236.6570068027211	237.48131519274375	45	127
236.6570068027211	236.7498866213152	67	127
236.6570068027211	236.70344671201815	67	127
236.70344671201815	236.76149659863947	60	127
236.76149659863947	236.80793650793652	67	127
236.80793650793652	236.86598639455784	60	127
236.86598639455784	236.92403628117913	67	127
236.92403628117913	236.95886621315194	60	127
236.95886621315194	237.00530612244899	67	127
237.00530612244899	237.05174603174603	60	127
237.05174603174603	237.19106575963718	74	127
237.05174603174603	237.09818594104308	67	127
237.09818594104308	237.1562358276644	60	127
237.1562358276644	237.21428571428572	67	127
237.19106575963718	237.3419954648526	75	127
237.21428571428572	237.27233560090704	60	127
237.27233560090704	237.3187755102041	67	127
237.3187755102041	237.3768253968254	60	127
237.3419954648526	237.48131519274375	77	127
237.3768253968254	237.42326530612246	67	127
237.42326530612246	237.48131519274375	60	127
237.48131519274375	237.77156462585035	75	127
237.48131519274375	238.18952380952382	47	127
237.48131519274375	237.53936507936507	69	127
237.53936507936507	237.5974149659864	63	127
237.5974149659864	237.60902494331066	69	127
237.60902494331066	237.6322448979592	63	127
237.6322448979592	237.6902947845805	69	127
237.6902947845805	237.7251247165533	63	127
237.7251247165533	237.78317460317461	69	127
237.78317460317461	237.8412244897959	63	127
237.8412244897959	237.89927437641722	69	127
237.8412244897959	237.99215419501132	74	127
237.89927437641722	237.95732426303854	63	127
237.95732426303854	238.01537414965986	69	127
237.99215419501132	238.14308390022677	75	127
238.01537414965986	238.07342403628118	63	127
238.07342403628118	238.1314739229025	69	127
238.1314739229025	238.18952380952382	63	127
238.14308390022677	238.2940136054422	77	127
238.18952380952382	238.24757369614514	69	127
238.24757369614514	238.2940136054422	63	127
238.2940136054422	238.7235827664399	48	127
238.2940136054422	238.35206349206348	70	127
238.2940136054422	238.49138321995466	78	127
238.2940136054422	238.64231292517007	63	127
238.2940136054422	238.64231292517007	70	127
238.2940136054422	238.64231292517007	78	127
238.35206349206348	238.37528344671202	66	127
238.37528344671202	238.43333333333334	70	127
238.43333333333334	238.49138321995466	66	127
238.49138321995466	238.54943310657598	70	127
238.54943310657598	238.60748299319727	66	127
238.60748299319727	238.66553287981858	70	127
238.66553287981858	238.71197278911563	66	127
238.7235827664399	238.74680272108844	72	127
238.7235827664399	239.14154195011338	50	127
238.7235827664399	238.83968253968254	77	127
238.74680272108844	238.80485260770976	66	127
238.80485260770976	238.8512925170068	72	127
238.83968253968254	238.99061224489796	78	127
238.8512925170068	238.90934240362813	66	127
238.90934240362813	238.96739229024942	72	127
238.96739229024942	239.02544217687074	66	127
238.99061224489796	239.1299319727891	80	127
239.02544217687074	239.08349206349206	72	127
239.08349206349206	239.14154195011338	66	127
239.14154195011338	239.2924716553288	73	127
239.14154195011338	239.48984126984126	51	127
239.14154195011338	239.40857142857143	81	127
239.14154195011338	239.1995918367347	73	127
239.1995918367347	239.2228117913832	69	127
239.2228117913832	239.23442176870748	73	127
239.23442176870748	239.2924716553288	69	127
239.2924716553288	239.32730158730158	73	127
239.32730158730158	239.37374149659863	69	127
239.37374149659863	239.43179138321995	73	127
239.43179138321995	239.478231292517	69	127
239.48984126984126	239.8613605442177	53	127
239.48984126984126	239.54789115646258	75	127
239.48984126984126	239.64077097505668	80	127
239.54789115646258	239.6059410430839	69	127
239.6059410430839	239.66399092970522	75	127
239.64077097505668	239.7917006802721	81	127
239.66399092970522	239.71043083900227	69	127
239.71043083900227	239.7684807256236	75	127
239.7684807256236	239.8265306122449	69	127
239.7917006802721	239.94263038548752	83	127
239.8265306122449	239.8845804988662	75	127
239.8845804988662	239.94263038548752	69	127
239.94263038548752	240.00068027210884	69	127
239.94263038548752	240.44185941043085	54	127
239.94263038548752	240.44185941043085	84	127
239.94263038548752	240.00068027210884	76	127
240.00068027210884	240.05873015873016	76	127
240.00068027210884	240.05873015873016	69	127
240.07034013605443	240.12839002267575	69	127
240.07034013605443	240.12839002267575	76	127
240.12839002267575	240.18643990929706	76	127
240.12839002267575	240.18643990929706	69	127
240.1980498866213	240.24448979591835	76	127
240.1980498866213	240.24448979591835	69	127
240.25609977324262	240.31414965986394	76	127
240.25609977324262	240.31414965986394	69	127
240.31414965986394	240.37219954648526	69	127
240.31414965986394	240.37219954648526	76	127
240.38380952380953	240.43024943310658	76	127
240.38380952380953	240.43024943310658	69	127
240.44185941043085	240.8946485260771	56	127
240.44185941043085	240.49990929705214	75	127
240.44185941043085	240.49990929705214	68	127
240.44185941043085	240.68566893424037	83	127
240.49990929705214	240.55795918367346	75	127
240.49990929705214	240.55795918367346	68	127
240.55795918367346	240.61600907029478	75	127
240.55795918367346	240.61600907029478	68	127
240.62761904761905	240.68566893424037	75	127
240.62761904761905	240.68566893424037	68	127
240.68566893424037	240.7437188208617	68	127
240.68566893424037	240.7437188208617	75	127
240.68566893424037	240.8946485260771	84	127
240.7437188208617	240.801768707483	75	127
240.7437188208617	240.801768707483	68	127
240.801768707483	240.82498866213152	75	127
240.801768707483	240.82498866213152	68	127
240.8365986394558	240.8946485260771	68	127
240.8365986394558	240.8946485260771	75	127
240.8946485260771	240.95269841269842	67	127
240.8946485260771	241.38226757369614	57	127
240.8946485260771	241.38226757369614	83	127
240.8946485260771	240.95269841269842	75	127
240.95269841269842	241.01074829931972	67	127
240.95269841269842	241.01074829931972	75	127
241.01074829931972	241.06879818594103	67	127
241.01074829931972	241.06879818594103	75	127
241.0804081632653	241.12684807256235	75	127
241.0804081632653	241.12684807256235	67	127
241.13845804988662	241.19650793650794	67	127
241.13845804988662	241.19650793650794	75	127
241.19650793650794	241.25455782312926	75	127
241.19650793650794	241.25455782312926	67	127
241.25455782312926	241.31260770975058	67	127
241.25455782312926	241.31260770975058	75	127
241.31260770975058	241.37065759637187	75	127
241.31260770975058	241.37065759637187	67	127
241.38226757369614	241.53319727891156	81	127
241.38226757369614	241.75378684807256	59	127
241.38226757369614	241.4287074829932	75	127
241.38226757369614	241.4287074829932	66	127
241.44031746031746	241.4867573696145	75	127
241.44031746031746	241.4867573696145	66	127
241.49836734693878	241.5564172335601	75	127
241.49836734693878	241.5564172335601	66	127
241.53319727891156	241.67251700680274	83	127
241.5564172335601	241.60285714285715	66	127
241.5564172335601	241.60285714285715	75	127
241.60285714285715	241.6492970521542	75	127
241.60285714285715	241.6492970521542	66	127
241.6492970521542	241.70734693877552	75	127
241.6492970521542	241.70734693877552	66	127
241.67251700680274	241.82344671201815	84	127
241.70734693877552	241.76539682539683	66	127
241.70734693877552	241.76539682539683	75	127
241.76539682539683	241.82344671201815	66	127
241.76539682539683	241.82344671201815	75	127
241.82344671201815	241.97437641723357	78	127
241.82344671201815	241.88149659863944	60	127
241.82344671201815	241.88149659863944	70	127
241.82344671201815	241.97437641723357	66	127
241.82344671201815	242.09047619047618	87	127
241.88149659863944	241.93954648526076	70	127
241.88149659863944	241.93954648526076	60	127
241.95115646258503	241.99759637188208	70	127
241.95115646258503	241.99759637188208	60	127
241.9859863945578	242.07886621315194	78	127
241.9859863945578	242.07886621315194	66	127
242.00920634920635	242.0556462585034	70	127
242.00920634920635	242.0556462585034	60	127
242.06725623582767	242.07886621315194	70	127
242.06725623582767	242.07886621315194	60	127
242.09047619047618	242.45038548752834	78	127
242.09047619047618	242.13691609977323	69	127
242.09047619047618	242.13691609977323	62	127
242.09047619047618	242.3110657596372	86	127
242.09047619047618	242.45038548752834	66	127
242.1485260770975	242.1833560090703	69	127
242.1485260770975	242.1833560090703	62	127
242.19496598639455	242.2414058956916	69	127
242.19496598639455	242.2414058956916	62	127
242.25301587301587	242.29945578231292	62	127
242.25301587301587	242.29945578231292	69	127
242.3110657596372	242.35750566893424	62	127
242.3110657596372	242.35750566893424	69	127
242.3110657596372	242.52004535147393	87	127
242.35750566893424	242.41555555555556	62	127
242.35750566893424	242.41555555555556	69	127
242.41555555555556	242.4619954648526	62	127
242.41555555555556	242.4619954648526	69	127
242.4619954648526	242.52004535147393	69	127
242.4619954648526	242.52004535147393	62	127
242.52004535147393	242.57809523809524	68	127
242.52004535147393	242.57809523809524	63	127
242.52004535147393	242.65936507936507	66	127
242.52004535147393	242.65936507936507	78	127
242.52004535147393	242.8451247165533	86	127
242.57809523809524	242.6245351473923	63	127
242.57809523809524	242.6245351473923	68	127
242.6245351473923	242.6825850340136	63	127
242.6245351473923	242.6825850340136	68	127
242.65936507936507	242.78707482993198	66	127
242.65936507936507	242.78707482993198	78	127
242.6825850340136	242.72902494331066	68	127
242.6825850340136	242.72902494331066	63	127
242.74063492063493	242.76385487528344	68	127
242.74063492063493	242.76385487528344	63	127
242.7754648526077	242.8102947845805	63	127
242.7754648526077	242.8102947845805	68	127
242.78707482993198	242.8451247165533	66	127
242.78707482993198	242.8451247165533	78	127
242.8102947845805	242.8451247165533	68	127
242.8102947845805	242.8451247165533	63	127
242.8451247165533	242.9031746031746	69	127
242.8451247165533	243.2166439909297	78	127
242.8451247165533	243.2166439909297	66	127
242.8451247165533	242.99605442176872	84	127
242.8451247165533	242.9031746031746	62	127
242.9031746031746	242.9612244897959	69	127
242.9031746031746	242.9612244897959	62	127
242.9612244897959	243.00766439909296	69	127
242.9612244897959	243.00766439909296	62	127
242.99605442176872	243.14698412698414	86	127
243.01927437641723	243.06571428571428	69	127
243.01927437641723	243.06571428571428	62	127
243.07732426303855	243.1237641723356	69	127
243.07732426303855	243.1237641723356	62	127
243.1237641723356	243.18181405895692	69	127
243.1237641723356	243.18181405895692	62	127
243.14698412698414	243.27469387755102	87	127
243.18181405895692	243.23986394557824	62	127
243.18181405895692	243.23986394557824	69	127
243.23986394557824	243.27469387755102	62	127
243.23986394557824	243.27469387755102	69	127
243.28630385487529	243.6926530612245	87	127
243.28630385487529	243.40240362811792	78	127
243.28630385487529	243.33274376417233	70	127
243.28630385487529	243.33274376417233	60	127
243.28630385487529	243.40240362811792	66	127
243.33274376417233	243.37918367346938	60	127
243.33274376417233	243.37918367346938	70	127
243.37918367346938	243.42562358276643	70	127
243.37918367346938	243.42562358276643	60	127
243.40240362811792	243.54172335600907	66	127
243.40240362811792	243.54172335600907	78	127
243.42562358276643	243.46045351473924	70	127
243.42562358276643	243.46045351473924	60	127
243.47206349206348	243.51850340136053	70	127
243.47206349206348	243.51850340136053	60	127
243.51850340136053	243.57655328798185	70	127
243.51850340136053	243.57655328798185	60	127
243.54172335600907	243.68104308390022	66	127
243.54172335600907	243.68104308390022	78	127
243.57655328798185	243.6229931972789	70	127
243.57655328798185	243.6229931972789	60	127
243.63460317460317	243.68104308390022	60	127
243.63460317460317	243.68104308390022	70	127
243.6926530612245	243.86680272108845	86	127
243.6926530612245	243.73909297052154	62	127
243.6926530612245	243.98290249433106	66	127
243.6926530612245	243.98290249433106	78	127
243.6926530612245	243.73909297052154	69	127
243.73909297052154	243.79714285714286	69	127
243.73909297052154	243.79714285714286	62	127
243.79714285714286	243.82036281179137	62	127
243.79714285714286	243.82036281179137	69	127
243.83197278911564	243.86680272108845	69	127
243.83197278911564	243.86680272108845	62	127
243.86680272108845	244.01773242630387	87	127
243.86680272108845	243.9132426303855	69	127
243.86680272108845	243.9132426303855	62	127
243.9132426303855	243.95968253968255	69	127
243.9132426303855	243.95968253968255	62	127
243.97129251700682	243.98290249433106	69	127
243.97129251700682	243.98290249433106	62	127
243.98290249433106	244.01773242630387	69	127
243.98290249433106	244.01773242630387	62	127
244.0293424036281	244.14544217687074	78	127
244.0293424036281	244.4124716553288	86	127
244.0293424036281	244.07578231292516	68	127
244.0293424036281	244.07578231292516	63	127
244.0293424036281	244.14544217687074	66	127
244.07578231292516	244.13383219954648	63	127
244.07578231292516	244.13383219954648	68	127
244.13383219954648	244.15705215419501	68	127
244.13383219954648	244.15705215419501	63	127
244.14544217687074	244.27315192743765	66	127
244.14544217687074	244.27315192743765	78	127
244.15705215419501	244.20349206349206	63	127
244.15705215419501	244.20349206349206	68	127
244.20349206349206	244.26154195011338	68	127
244.20349206349206	244.26154195011338	63	127
244.26154195011338	244.30798185941043	68	127
244.26154195011338	244.30798185941043	63	127
244.27315192743765	244.40086167800453	66	127
244.27315192743765	244.40086167800453	78	127
244.30798185941043	244.36603174603175	68	127
244.30798185941043	244.36603174603175	63	127
244.36603174603175	244.40086167800453	63	127
244.36603174603175	244.40086167800453	68	127
244.4124716553288	244.70272108843537	78	127
244.4124716553288	244.45891156462585	69	127
244.4124716553288	244.45891156462585	62	127
244.4124716553288	244.54018140589568	84	127
244.4124716553288	244.70272108843537	66	127
244.45891156462585	244.5053514739229	69	127
244.45891156462585	244.5053514739229	62	127
244.51696145124717	244.55179138321995	69	127
244.51696145124717	244.55179138321995	62	127
244.54018140589568	244.6330612244898	86	127
244.56340136054422	244.60984126984127	69	127
244.56340136054422	244.60984126984127	62	127
244.60984126984127	244.6678911564626	62	127
244.60984126984127	244.6678911564626	69	127
244.6330612244898	244.77238095238096	87	127
244.6678911564626	244.71433106575964	62	127
244.6678911564626	244.71433106575964	69	127
244.71433106575964	244.77238095238096	62	127
244.71433106575964	244.77238095238096	69	127
244.77238095238096	244.818820861678	60	127
244.77238095238096	245.02780045351474	87	127
244.77238095238096	244.8536507936508	78	127
244.77238095238096	244.818820861678	70	127
244.77238095238096	244.8536507936508	66	127
244.818820861678	244.8536507936508	60	127
244.818820861678	244.8536507936508	70	127
244.8536507936508	244.95814058956915	78	127
244.8536507936508	244.95814058956915	66	127
244.8536507936508	244.8884807256236	70	127
244.8536507936508	244.8884807256236	60	127
244.90009070294784	244.94653061224489	70	127
244.90009070294784	244.94653061224489	60	127
244.94653061224489	244.9813605442177	70	127
244.94653061224489	244.9813605442177	60	127
244.96975056689342	245.08585034013606	66	127
244.96975056689342	245.08585034013606	78	127
244.99297052154196	245.039410430839	60	127
244.99297052154196	245.039410430839	70	127
245.039410430839	245.08585034013606	60	127
245.039410430839	245.08585034013606	70	127
245.0974603174603	245.2251700680272	78	127
245.0974603174603	245.2251700680272	66	127
245.0974603174603	245.14390022675738	62	127
245.0974603174603	245.2251700680272	84	127
245.0974603174603	245.14390022675738	69	127
245.14390022675738	245.19034013605443	62	127
245.14390022675738	245.19034013605443	69	127
245.20195011337867	245.24839002267575	69	127
245.20195011337867	245.24839002267575	62	127
245.2251700680272	245.36448979591836	86	127
245.2251700680272	245.36448979591836	66	127
245.2251700680272	245.36448979591836	78	127
245.24839002267575	245.2948299319728	69	127
245.24839002267575	245.2948299319728	62	127
245.2948299319728	245.34126984126985	69	127
245.2948299319728	245.34126984126985	62	127
245.35287981859412	245.39931972789117	69	127
245.35287981859412	245.39931972789117	62	127
245.36448979591836	245.50380952380954	66	127
245.36448979591836	245.50380952380954	87	127
245.36448979591836	245.50380952380954	78	127
245.39931972789117	245.44575963718822	69	127
245.39931972789117	245.44575963718822	62	127
245.45736961451246	245.50380952380954	69	127
245.45736961451246	245.50380952380954	62	127
245.50380952380954	245.84049886621315	87	127
245.50380952380954	245.5502494331066	68	127
245.50380952380954	245.5502494331066	63	127
245.50380952380954	245.63151927437642	66	127
245.50380952380954	245.63151927437642	78	127
245.5502494331066	245.59668934240364	68	127
245.5502494331066	245.59668934240364	63	127
245.6082993197279	245.65473922902495	68	127
245.6082993197279	245.65473922902495	63	127
245.64312925170069	245.77083900226756	78	127
245.64312925170069	245.77083900226756	66	127
245.65473922902495	245.701179138322	68	127
245.65473922902495	245.701179138322	63	127
245.701179138322	245.74761904761905	68	127
245.701179138322	245.74761904761905	63	127
245.75922902494332	245.80566893424037	68	127
245.75922902494332	245.80566893424037	63	127
245.77083900226756	245.89854875283447	66	127
245.77083900226756	245.89854875283447	78	127
245.80566893424037	245.85210884353742	63	127
245.80566893424037	245.85210884353742	68	127
245.85210884353742	245.89854875283447	63	127
245.85210884353742	245.89854875283447	68	127
245.91015873015874	245.9565986394558	69	127
245.91015873015874	246.03786848072562	84	127
245.91015873015874	246.03786848072562	78	127
245.91015873015874	246.03786848072562	66	127
245.91015873015874	245.9565986394558	62	127
245.9565986394558	246.00303854875284	62	127
245.9565986394558	246.00303854875284	69	127
246.00303854875284	246.0494784580499	69	127
246.00303854875284	246.0494784580499	62	127
246.03786848072562	246.16557823129253	66	127
246.03786848072562	246.16557823129253	78	127
246.03786848072562	246.17718820861677	86	127
246.06108843537416	246.1075283446712	62	127
246.06108843537416	246.1075283446712	69	127
246.1075283446712	246.15396825396826	62	127
246.1075283446712	246.15396825396826	69	127
246.15396825396826	246.2004081632653	62	127
246.15396825396826	246.2004081632653	69	127
246.17718820861677	246.30489795918368	87	127
246.17718820861677	246.30489795918368	78	127
246.17718820861677	246.30489795918368	66	127
246.21201814058958	246.24684807256236	69	127
246.21201814058958	246.24684807256236	62	127
246.25845804988663	246.30489795918368	62	127
246.25845804988663	246.30489795918368	69	127
246.30489795918368	246.61836734693878	87	127
246.30489795918368	246.33972789115646	70	127
246.30489795918368	246.33972789115646	60	127
246.30489795918368	246.42099773242631	66	127
246.30489795918368	246.42099773242631	78	127
246.33972789115646	246.3861678004535	70	127
246.33972789115646	246.3861678004535	60	127
246.39777777777778	246.43260770975056	70	127
246.39777777777778	246.43260770975056	60	127
246.42099773242631	246.5487074829932	78	127
246.42099773242631	246.5487074829932	66	127
246.44421768707483	246.49065759637188	70	127
246.44421768707483	246.49065759637188	60	127
246.49065759637188	246.53709750566892	70	127
246.49065759637188	246.53709750566892	60	127
246.53709750566892	246.58353741496597	70	127
246.53709750566892	246.58353741496597	60	127
246.56031746031746	246.68802721088434	66	127
246.56031746031746	246.68802721088434	78	127
246.59514739229024	246.62997732426305	60	127
246.59514739229024	246.62997732426305	70	127
246.6415873015873	246.68802721088434	70	127
246.6415873015873	246.68802721088434	60	127
246.68802721088434	246.7344671201814	69	127
246.68802721088434	246.81573696145125	78	127
246.68802721088434	246.81573696145125	84	127
246.68802721088434	246.7344671201814	62	127
246.68802721088434	246.81573696145125	66	127
246.7344671201814	246.78090702947847	69	127
246.7344671201814	246.78090702947847	62	127
246.78090702947847	246.82734693877552	69	127
246.78090702947847	246.82734693877552	62	127
246.81573696145125	246.9318367346939	66	127
246.81573696145125	246.9318367346939	78	127
246.81573696145125	246.9318367346939	86	127
246.83895691609976	246.87378684807257	69	127
246.83895691609976	246.87378684807257	62	127
246.88539682539684	246.92022675736962	69	127
246.88539682539684	246.92022675736962	62	127
246.92022675736962	246.96666666666667	62	127
246.92022675736962	246.96666666666667	69	127
246.9318367346939	247.05954648526077	66	127
246.9318367346939	247.05954648526077	78	127
246.9318367346939	247.05954648526077	87	127
246.96666666666667	247.01310657596372	69	127
246.96666666666667	247.01310657596372	62	127
247.01310657596372	247.05954648526077	69	127
247.01310657596372	247.05954648526077	62	127
247.05954648526077	247.18725623582768	66	127
247.05954648526077	247.38462585034014	87	127
247.05954648526077	247.10598639455782	68	127
247.05954648526077	247.10598639455782	63	127
247.05954648526077	247.18725623582768	78	127
247.1175963718821	247.15242630385487	68	127
247.1175963718821	247.15242630385487	63	127
247.16403628117914	247.2104761904762	68	127
247.16403628117914	247.2104761904762	63	127
247.18725623582768	247.31496598639455	78	127
247.18725623582768	247.31496598639455	66	127
247.2104761904762	247.25691609977324	68	127
247.2104761904762	247.25691609977324	63	127
247.25691609977324	247.30335600907028	63	127
247.25691609977324	247.30335600907028	68	127
247.30335600907028	247.34979591836733	68	127
247.30335600907028	247.34979591836733	63	127
247.31496598639455	247.44267573696146	66	127
247.31496598639455	247.44267573696146	78	127
247.34979591836733	247.3962358276644	63	127
247.34979591836733	247.3962358276644	68	127
247.3962358276644	247.44267573696146	68	127
247.3962358276644	247.44267573696146	63	127
247.44267573696146	247.4891156462585	62	127
247.44267573696146	247.57038548752834	66	127
247.44267573696146	247.57038548752834	78	127
247.44267573696146	247.57038548752834	84	127
247.44267573696146	247.4891156462585	69	127
247.50072562358275	247.53555555555556	62	127
247.50072562358275	247.53555555555556	69	127
247.54716553287983	247.5819954648526	69	127
247.54716553287983	247.5819954648526	62	127
247.57038548752834	247.69809523809525	78	127
247.57038548752834	247.69809523809525	66	127
247.57038548752834	247.69809523809525	86	127
247.59360544217688	247.62843537414966	62	127
247.59360544217688	247.62843537414966	69	127
247.64004535147393	247.68648526077098	62	127
247.64004535147393	247.68648526077098	69	127
247.68648526077098	247.73292517006803	62	127
247.68648526077098	247.73292517006803	69	127
247.69809523809525	247.82580498866213	66	127
247.69809523809525	247.82580498866213	78	127
247.69809523809525	247.82580498866213	87	127
247.73292517006803	247.77936507936508	69	127
247.73292517006803	247.77936507936508	62	127
247.77936507936508	247.82580498866213	69	127
247.77936507936508	247.82580498866213	62	127
247.82580498866213	248.03478458049887	58	127
247.82580498866213	248.03478458049887	70	127
247.82580498866213	248.03478458049887	76	127
247.82580498866213	248.03478458049887	49	127
247.82580498866213	248.03478458049887	42	127
247.82580498866213	248.03478458049887	69	127
247.82580498866213	247.95351473922904	69	127
247.82580498866213	248.03478458049887	64	127
247.95351473922904	248.03478458049887	81	127
248.03478458049887	248.17410430839	58	127
248.03478458049887	248.5224036281179	81	127
248.03478458049887	248.5224036281179	93	127
248.03478458049887	248.17410430839	49	127
248.03478458049887	248.18571428571428	70	127
248.18571428571428	248.38308390022675	58	127
248.18571428571428	248.38308390022675	64	127
248.18571428571428	248.38308390022675	49	127
248.38308390022675	248.5224036281179	58	127
248.38308390022675	248.5224036281179	42	127
248.38308390022675	248.5224036281179	49	127
248.5224036281179	248.67333333333335	42	127
248.5224036281179	248.67333333333335	58	127
248.5224036281179	248.67333333333335	49	127
248.5224036281179	248.8126530612245	91	127
248.5224036281179	248.8126530612245	79	127
248.67333333333335	248.8126530612245	58	127
248.67333333333335	248.8126530612245	64	127
248.67333333333335	248.8126530612245	49	127
248.8126530612245	248.95197278911564	49	127
248.8126530612245	248.95197278911564	70	127
248.8126530612245	248.95197278911564	58	127
248.8126530612245	249.0912925170068	93	127
248.8126530612245	249.0912925170068	81	127
248.95197278911564	249.0912925170068	76	127
248.95197278911564	249.0912925170068	49	127
248.95197278911564	249.0912925170068	42	127
249.0912925170068	249.23061224489797	48	127
249.0912925170068	249.66018140589568	86	127
249.0912925170068	249.23061224489797	76	127
249.0912925170068	249.23061224489797	42	127
249.0912925170068	249.66018140589568	74	127
249.23061224489797	249.36993197278912	58	127
249.23061224489797	249.36993197278912	70	127
249.23061224489797	249.36993197278912	48	127
249.36993197278912	249.52086167800454	58	127
249.36993197278912	249.52086167800454	64	127
249.36993197278912	249.52086167800454	48	127
249.52086167800454	249.64857142857142	58	127
249.52086167800454	249.64857142857142	48	127
249.52086167800454	249.64857142857142	42	127
249.66018140589568	249.7878911564626	48	127
249.66018140589568	249.95043083900228	72	127
249.66018140589568	249.95043083900228	84	127
249.66018140589568	249.7878911564626	58	127
249.66018140589568	249.7878911564626	42	127
249.7878911564626	249.938820861678	48	127
249.7878911564626	249.938820861678	58	127
249.7878911564626	249.95043083900228	64	127
249.95043083900228	250.22907029478458	74	127
249.95043083900228	250.08975056689343	70	127
249.95043083900228	250.08975056689343	48	127
249.95043083900228	250.08975056689343	58	127
249.95043083900228	250.22907029478458	86	127
250.08975056689343	250.2174603174603	76	127
250.08975056689343	250.2174603174603	48	127
250.08975056689343	250.2174603174603	42	127
250.22907029478458	250.36839002267573	49	127
250.22907029478458	250.7631292517007	81	127
250.22907029478458	250.7631292517007	69	127
250.22907029478458	250.36839002267573	76	127
250.22907029478458	250.36839002267573	42	127
250.36839002267573	250.49609977324263	58	127
250.36839002267573	250.49609977324263	49	127
250.36839002267573	250.5077097505669	70	127
250.5077097505669	250.63541950113378	64	127
250.5077097505669	250.63541950113378	49	127
250.5077097505669	250.63541950113378	58	127
250.63541950113378	250.75151927437642	58	127
250.63541950113378	250.75151927437642	42	127
250.63541950113378	250.75151927437642	49	127
250.7631292517007	250.9140589569161	49	127
250.7631292517007	251.041768707483	67	127
250.7631292517007	251.041768707483	79	127
250.7631292517007	250.9140589569161	58	127
250.7631292517007	250.9140589569161	42	127
250.9140589569161	251.041768707483	64	127
250.9140589569161	251.03015873015872	49	127
250.9140589569161	251.03015873015872	58	127
251.041768707483	251.3204081632653	69	127
251.041768707483	251.1926984126984	70	127
251.041768707483	251.1926984126984	49	127
251.041768707483	251.1926984126984	58	127
251.041768707483	251.3204081632653	81	127
251.1926984126984	251.30879818594104	76	127
251.1926984126984	251.30879818594104	49	127
251.1926984126984	251.30879818594104	42	127
251.3204081632653	251.4481179138322	48	127
251.3204081632653	251.84285714285716	74	127
251.3204081632653	251.84285714285716	62	127
251.3204081632653	251.4481179138322	76	127
251.3204081632653	251.4481179138322	42	127
251.4481179138322	251.5758276643991	70	127
251.4481179138322	251.5758276643991	48	127
251.4481179138322	251.5758276643991	58	127
251.5758276643991	251.70353741496598	64	127
251.5758276643991	251.70353741496598	48	127
251.5758276643991	251.70353741496598	58	127
251.70353741496598	251.84285714285716	48	127
251.70353741496598	251.84285714285716	58	127
251.70353741496598	251.84285714285716	42	127
251.84285714285716	251.97056689342404	58	127
251.84285714285716	252.09827664399094	60	127
251.84285714285716	251.97056689342404	42	127
251.84285714285716	251.97056689342404	48	127
251.84285714285716	252.09827664399094	72	127
251.97056689342404	252.09827664399094	64	127
251.97056689342404	252.09827664399094	48	127
251.97056689342404	252.09827664399094	58	127
252.09827664399094	252.22598639455782	70	127
252.09827664399094	252.22598639455782	48	127
252.09827664399094	252.22598639455782	58	127
252.09827664399094	252.35369614512473	74	127
252.09827664399094	252.35369614512473	62	127
252.22598639455782	252.35369614512473	76	127
252.22598639455782	252.35369614512473	42	127
252.22598639455782	252.35369614512473	48	127
252.35369614512473	252.50462585034015	49	127
252.35369614512473	252.93419501133786	57	127
252.35369614512473	252.93419501133786	69	127
252.35369614512473	252.50462585034015	76	127
252.35369614512473	252.50462585034015	42	127
252.50462585034015	252.63233560090703	49	127
252.50462585034015	252.63233560090703	70	127
252.50462585034015	252.63233560090703	58	127
252.63233560090703	252.76004535147393	49	127
252.63233560090703	252.76004535147393	64	127
252.63233560090703	252.76004535147393	58	127
252.76004535147393	252.93419501133786	58	127
252.76004535147393	252.93419501133786	49	127
252.76004535147393	252.93419501133786	42	127
252.93419501133786	253.09673469387755	49	127
252.93419501133786	253.25927437641724	67	127
252.93419501133786	253.09673469387755	58	127
252.93419501133786	253.09673469387755	42	127
252.93419501133786	253.25927437641724	55	127
253.09673469387755	253.24766439909297	58	127
253.09673469387755	253.24766439909297	49	127
253.09673469387755	253.24766439909297	64	127
253.25927437641724	253.3985941043084	58	127
253.25927437641724	253.5495238095238	57	127
253.25927437641724	253.5495238095238	69	127
253.25927437641724	253.3985941043084	64	127
253.25927437641724	253.3985941043084	49	127
253.3985941043084	253.53791383219954	58	127
253.3985941043084	253.53791383219954	49	127
253.3985941043084	253.53791383219954	42	127
253.5495238095238	253.60757369614512	58	127
253.5495238095238	253.83977324263037	62	127
253.5495238095238	254.0255328798186	62	127
253.5495238095238	253.60757369614512	52	127
253.6191836734694	253.6772335600907	58	127
253.6191836734694	253.6772335600907	52	127
253.6772335600907	253.74689342403627	58	127
253.6772335600907	253.74689342403627	52	127
253.74689342403627	253.83977324263037	52	127
253.74689342403627	253.83977324263037	58	127
253.83977324263037	253.90943310657596	52	127
253.83977324263037	253.90943310657596	58	127
253.90943310657596	253.96748299319728	52	127
253.90943310657596	253.96748299319728	58	127
253.97909297052155	254.03714285714287	58	127
253.97909297052155	254.03714285714287	52	127
254.0487528344671	254.10680272108843	58	127
254.0487528344671	254.10680272108843	52	127
254.1184126984127	254.40866213151926	60	127
254.1184126984127	254.1880725623583	58	127
254.1184126984127	254.1880725623583	52	127
254.1880725623583	254.25773242630385	58	127
254.1880725623583	254.25773242630385	52	127
254.25773242630385	254.3390022675737	58	127
254.25773242630385	254.3390022675737	52	127
254.3390022675737	254.40866213151926	52	127
254.3390022675737	254.40866213151926	58	127
254.40866213151926	254.67569160997732	62	127
254.40866213151926	254.46671201814058	52	127
254.40866213151926	254.46671201814058	58	127
254.47832199546485	254.53637188208617	52	127
254.47832199546485	254.53637188208617	58	127
254.54798185941044	254.60603174603173	52	127
254.54798185941044	254.60603174603173	58	127
254.617641723356	254.67569160997732	58	127
254.617641723356	254.67569160997732	52	127
254.6873015873016	254.7453514739229	52	127
254.6873015873016	254.81501133786847	58	127
254.6873015873016	256.1037188208617	57	127
254.6873015873016	254.7453514739229	58	127
254.7453514739229	254.81501133786847	58	127
254.7453514739229	254.81501133786847	52	127
254.81501133786847	254.95433106575965	64	127
254.81501133786847	254.88467120181406	52	127
254.81501133786847	254.88467120181406	58	127
254.88467120181406	254.95433106575965	52	127
254.88467120181406	254.95433106575965	58	127
254.95433106575965	255.01238095238097	52	127
254.95433106575965	255.01238095238097	58	127
254.95433106575965	255.0936507936508	70	127
255.0239909297052	255.08204081632653	52	127
255.0239909297052	255.08204081632653	58	127
255.0936507936508	255.22136054421767	76	127
255.0936507936508	255.1517006802721	58	127
255.0936507936508	255.1517006802721	52	127
255.16331065759638	255.22136054421767	58	127
255.16331065759638	255.22136054421767	52	127
255.23297052154194	255.36068027210885	76	127
255.23297052154194	255.29102040816326	52	127
255.23297052154194	255.29102040816326	58	127
255.23297052154194	255.83668934240362	43	127
255.29102040816326	255.36068027210885	58	127
255.29102040816326	255.36068027210885	52	127
255.36068027210885	255.4303401360544	58	127
255.36068027210885	255.5	70	127
255.36068027210885	255.4303401360544	52	127
255.4303401360544	255.5	52	127
255.4303401360544	255.5	58	127
255.5	255.5696598639456	58	127
255.5	255.69736961451247	64	127
255.5	255.5696598639456	52	127
255.58126984126983	255.6857596371882	52	127
255.58126984126983	255.6857596371882	58	127
255.69736961451247	255.7554195011338	58	127
255.69736961451247	255.7554195011338	52	127
255.69736961451247	255.82507936507938	58	127
255.76702947845806	255.82507936507938	58	127
255.76702947845806	255.82507936507938	52	127
255.83668934240362	256.1037188208617	58	127
255.83668934240362	256.4055782312925	36	127
255.83668934240362	255.89473922902494	52	127
255.83668934240362	255.89473922902494	58	127
255.89473922902494	255.96439909297052	52	127
255.89473922902494	255.96439909297052	58	127
255.96439909297052	256.0340589569161	52	127
255.96439909297052	256.0340589569161	58	127
256.0340589569161	256.1037188208617	58	127
256.0340589569161	256.1037188208617	52	127
256.1037188208617	256.55650793650796	55	127
256.1037188208617	256.161768707483	52	127
256.1037188208617	256.161768707483	58	127
256.1733560090703	256.2314285714286	52	127
256.1733560090703	256.2314285714286	58	127
256.3591383219955	256.4171882086168	52	127
256.3591383219955	256.4171882086168	58	127
256.42879818594105	256.5448979591837	52	127
256.42879818594105	256.5448979591837	58	127
256.55650793650796	256.6261678004535	58	127
256.55650793650796	256.8467573696145	60	127
256.55650793650796	256.6261678004535	52	127
256.6261678004535	256.70743764172335	58	127
256.6261678004535	256.70743764172335	52	127
256.70743764172335	256.77709750566896	58	127
256.70743764172335	256.77709750566896	52	127
256.77709750566896	256.8467573696145	58	127
256.77709750566896	256.8467573696145	52	127
256.8467573696145	256.9048072562358	52	127
256.8467573696145	256.9048072562358	58	127
256.8467573696145	257.1253968253968	62	127
256.9164172335601	256.9860544217687	52	127
256.9164172335601	256.9860544217687	58	127
256.9976870748299	257.05573696145126	52	127
256.9976870748299	257.05573696145126	58	127
257.06734693877553	257.1253968253968	58	127
257.06734693877553	257.1253968253968	52	127
257.1370068027211	258.15868480725624	62	127
257.1370068027211	260.1207709750567	42	127
257.1370068027211	257.19503401360544	52	127
257.1370068027211	257.19503401360544	58	127
257.19503401360544	257.264716553288	58	127
257.19503401360544	257.264716553288	52	127
257.264716553288	257.3575963718821	58	127
257.264716553288	257.3575963718821	52	127
257.3575963718821	257.42725623582766	52	127
257.3575963718821	257.42725623582766	58	127
257.42725623582766	257.5085260770975	58	127
257.42725623582766	257.5085260770975	52	127
257.52013605442176	257.5781859410431	52	127
257.52013605442176	257.5781859410431	58	127
257.5897959183674	257.6710657596372	58	127
257.5897959183674	257.6710657596372	52	127
257.68267573696147	257.74072562358276	58	127
257.68267573696147	257.74072562358276	52	127
257.75233560090703	257.8103628117914	58	127
257.75233560090703	257.8103628117914	52	127
257.8103628117914	257.88004535147394	58	127
257.8103628117914	257.88004535147394	52	127
257.88004535147394	257.9497052154195	58	127
257.88004535147394	257.9497052154195	52	127
257.9497052154195	258.01936507936506	58	127
257.9497052154195	258.01936507936506	52	127
258.01936507936506	258.0774149659864	52	127
258.01936507936506	258.0774149659864	58	127
258.0890249433107	258.14707482993197	52	127
258.0890249433107	258.14707482993197	58	127
258.15868480725624	258.2167120181406	58	127
258.15868480725624	258.2167120181406	52	127
258.2283446712018	258.28639455782314	58	127
258.2283446712018	258.28639455782314	52	127
258.28639455782314	258.3908843537415	58	127
258.28639455782314	258.87850340136055	60	127
258.28639455782314	258.3908843537415	52	127
258.3908843537415	258.4605442176871	58	127
258.3908843537415	258.4605442176871	52	127
258.4605442176871	258.53020408163263	58	127
258.4605442176871	258.53020408163263	52	127
258.53020408163263	258.59986394557825	52	127
258.53020408163263	258.59986394557825	58	127
258.6114739229025	258.6695238095238	52	127
258.6114739229025	258.6695238095238	58	127
258.6811337868481	258.73918367346937	58	127
258.6811337868481	258.73918367346937	52	127
258.75079365079364	258.808843537415	58	127
258.75079365079364	258.808843537415	52	127
258.82045351473926	258.87850340136055	58	127
258.82045351473926	258.87850340136055	52	127
258.87850340136055	258.9597732426304	58	127
258.87850340136055	259.3545124716553	62	127
258.87850340136055	258.9597732426304	52	127
258.9597732426304	259.029410430839	52	127
258.9597732426304	259.029410430839	58	127
259.029410430839	259.09909297052155	52	127
259.029410430839	259.09909297052155	58	127
259.09909297052155	259.15714285714284	58	127
259.09909297052155	259.15714285714284	52	127
259.1687528344671	259.22680272108846	52	127
259.1687528344671	259.22680272108846	58	127
259.23839002267573	259.296462585034	52	127
259.23839002267573	259.296462585034	58	127
259.3080725623583	259.3661224489796	52	127
259.3080725623583	259.3661224489796	58	127
259.37773242630385	259.4938321995465	52	127
259.37773242630385	259.4938321995465	58	127
259.4938321995465	259.56349206349205	52	127
259.4938321995465	261.2237188208617	57	127
259.4938321995465	259.56349206349205	58	127
259.4938321995465	259.63315192743767	58	127
259.56349206349205	259.63315192743767	52	127
259.56349206349205	259.63315192743767	58	127
259.63315192743767	259.7028117913832	52	127
259.63315192743767	259.7028117913832	58	127
259.63315192743767	259.8421315192744	64	127
259.7028117913832	259.83052154195013	52	127
259.7028117913832	259.83052154195013	58	127
259.8421315192744	259.91179138321996	52	127
259.8421315192744	259.9930612244898	70	127
259.8421315192744	259.91179138321996	58	127
259.92340136054423	259.9814512471655	52	127
259.92340136054423	259.9814512471655	58	127
259.9930612244898	260.1207709750567	76	127
259.9930612244898	260.05108843537414	52	127
259.9930612244898	260.05108843537414	58	127
260.06272108843535	260.1207709750567	58	127
260.06272108843535	260.1207709750567	52	127
260.1207709750567	260.19043083900226	58	127
260.1207709750567	260.19043083900226	52	127
260.1207709750567	260.6780498866213	43	127
260.1207709750567	260.2600680272109	76	127
260.19043083900226	260.2600680272109	52	127
260.19043083900226	260.2600680272109	58	127
260.2600680272109	260.32975056689344	52	127
260.2600680272109	260.32975056689344	58	127
260.2600680272109	260.399410430839	70	127
260.32975056689344	260.3878004535147	52	127
260.32975056689344	260.3878004535147	58	127
260.399410430839	260.45746031746035	52	127
260.399410430839	260.55034013605444	64	127
260.399410430839	260.45746031746035	58	127
260.4690476190476	260.5387301587302	52	127
260.4690476190476	260.5387301587302	58	127
260.55034013605444	260.60839002267574	52	127
260.55034013605444	260.6780498866213	58	127
260.55034013605444	260.60839002267574	58	127
260.62	260.6780498866213	58	127
260.62	260.6780498866213	52	127
260.6780498866213	261.64167800453515	36	127
260.6780498866213	260.7477097505669	58	127
260.6780498866213	260.7477097505669	52	127
260.6780498866213	260.9450793650794	58	127
260.7477097505669	260.8173696145125	58	127
260.7477097505669	260.8173696145125	52	127
260.8173696145125	260.88702947845803	58	127
260.8173696145125	260.88702947845803	52	127
260.88702947845803	260.9450793650794	52	127
260.88702947845803	260.9450793650794	58	127
260.95668934240365	261.01473922902494	58	127
260.95668934240365	261.01473922902494	52	127
261.0263492063492	261.08437641723356	52	127
261.0263492063492	261.08437641723356	58	127
261.09600907029477	261.1540589569161	58	127
261.09600907029477	261.1540589569161	52	127
261.1656689342404	261.2237188208617	52	127
261.1656689342404	261.2237188208617	58	127
261.2237188208617	261.29337868480724	58	127
261.2237188208617	262.2918367346939	55	127
261.2237188208617	261.29337868480724	52	127
261.29337868480724	261.36303854875285	52	127
261.29337868480724	261.36303854875285	58	127
261.36303854875285	261.4326984126984	58	127
261.36303854875285	261.4326984126984	52	127
261.4326984126984	261.49072562358276	52	127
261.4326984126984	261.49072562358276	58	127
261.502358276644	261.5604081632653	58	127
261.502358276644	261.5604081632653	52	127
261.5720181405896	261.6300680272109	52	127
261.5720181405896	261.6300680272109	58	127
261.64167800453515	261.73455782312925	58	127
261.64167800453515	261.73455782312925	52	127
261.7461678004535	261.8042176870748	52	127
261.7461678004535	261.8042176870748	58	127
261.8042176870748	261.8738775510204	52	127
261.8042176870748	261.8738775510204	58	127
261.8738775510204	261.95514739229026	58	127
261.8738775510204	261.95514739229026	52	127
261.95514739229026	262.0248072562358	52	127
261.95514739229026	262.0248072562358	58	127
262.0248072562358	262.08285714285716	58	127
262.0248072562358	262.08285714285716	52	127
262.09444444444443	262.164126984127	52	127
262.09444444444443	262.164126984127	58	127
262.17573696145126	262.23378684807255	58	127
262.17573696145126	262.23378684807255	52	127
262.2453968253968	262.30342403628117	58	127
262.2453968253968	262.30342403628117	52	127
262.30342403628117	262.37310657596373	52	127
262.30342403628117	262.37310657596373	58	127
262.37310657596373	262.4427664399093	58	127
262.37310657596373	263.4412244897959	60	127
262.37310657596373	262.4427664399093	52	127
262.4427664399093	262.5124036281179	52	127
262.4427664399093	262.5124036281179	58	127
262.5124036281179	262.5704761904762	58	127
262.5124036281179	262.5704761904762	52	127
262.58208616780047	262.64013605442176	52	127
262.58208616780047	262.64013605442176	58	127
262.65174603174603	262.7097732426304	58	127
262.65174603174603	262.7097732426304	52	127
262.7214058956916	262.77945578231294	52	127
262.7214058956916	262.77945578231294	58	127
262.7910657596372	262.8491156462585	58	127
262.7910657596372	262.8491156462585	52	127
262.8491156462585	262.9187528344671	52	127
262.8491156462585	262.9187528344671	58	127
262.9187528344671	262.9884353741497	58	127
262.9187528344671	262.9884353741497	52	127
262.9884353741497	263.05809523809523	52	127
262.9884353741497	263.05809523809523	58	127
263.05809523809523	263.1161451247166	58	127
263.05809523809523	263.1161451247166	52	127
263.12773242630385	263.18580498866214	52	127
263.12773242630385	263.18580498866214	58	127
263.1974149659864	263.23224489795916	58	127
263.1974149659864	263.23224489795916	52	127
263.24385487528343	263.3019047619048	52	127
263.24385487528343	263.3019047619048	58	127
263.31351473922905	263.37156462585034	52	127
263.31351473922905	263.37156462585034	58	127
263.37156462585034	263.4412244897959	58	127
263.37156462585034	263.4412244897959	52	127
263.4412244897959	263.5224943310658	52	127
263.4412244897959	264.46290249433105	62	127
263.4412244897959	263.5224943310658	58	127
263.5224943310658	263.59215419501135	58	127
263.5224943310658	263.59215419501135	52	127
263.59215419501135	263.65020408163264	52	127
263.59215419501135	263.65020408163264	58	127
263.6618140589569	263.71986394557825	58	127
263.6618140589569	263.71986394557825	52	127
263.7314512471655	263.7895238095238	58	127
263.7314512471655	263.7895238095238	52	127
263.8011337868481	263.8591836734694	52	127
263.8011337868481	263.8591836734694	58	127
263.87079365079364	263.928843537415	58	127
263.87079365079364	263.928843537415	52	127
263.928843537415	263.99850340136055	58	127
263.928843537415	263.99850340136055	52	127
263.99850340136055	272.7291836734694	42	127
263.99850340136055	264.0681632653061	52	127
263.99850340136055	264.0681632653061	58	127
264.0681632653061	264.13782312925173	58	127
264.0681632653061	264.13782312925173	52	127
264.13782312925173	264.195873015873	52	127
264.13782312925173	264.195873015873	58	127
264.2074829931973	264.2655328798186	52	127
264.2074829931973	264.2655328798186	58	127
264.27714285714285	264.3351927437642	52	127
264.27714285714285	264.3351927437642	58	127
264.34678004535147	264.40485260770976	52	127
264.34678004535147	264.40485260770976	58	127
264.416462585034	264.4861224489796	52	127
264.416462585034	264.4861224489796	58	127
264.4861224489796	264.5557596371882	52	127
264.4861224489796	264.5557596371882	58	127
264.5557596371882	265.22916099773244	60	127
264.5557596371882	264.6951020408163	52	127
264.5557596371882	264.6951020408163	58	127
264.6951020408163	264.76473922902494	52	127
264.6951020408163	264.76473922902494	58	127
264.76473922902494	264.85761904761904	52	127
264.76473922902494	264.85761904761904	58	127
264.86925170068025	264.9273015873016	52	127
264.86925170068025	264.9273015873016	58	127
264.93891156462587	264.99696145124716	58	127
264.93891156462587	264.99696145124716	52	127
265.00857142857143	265.0665986394558	58	127
265.00857142857143	265.0665986394558	52	127
265.08984126984126	265.1478911564626	52	127
265.08984126984126	265.1478911564626	58	127
265.1478911564626	265.22916099773244	58	127
265.1478911564626	265.22916099773244	52	127
265.22916099773244	265.298820861678	58	127
265.22916099773244	265.298820861678	52	127
265.22916099773244	266.35532879818595	62	127
265.298820861678	265.3800907029478	52	127
265.298820861678	265.3800907029478	58	127
265.3800907029478	265.4381405895692	58	127
265.3800907029478	265.4381405895692	52	127
265.44975056689344	265.50780045351473	52	127
265.44975056689344	265.50780045351473	58	127
265.519410430839	265.57743764172335	58	127
265.519410430839	265.57743764172335	52	127
265.58907029478456	265.6471201814059	52	127
265.58907029478456	265.6471201814059	58	127
265.6587301587302	265.71678004535147	58	127
265.6587301587302	265.71678004535147	52	127
265.71678004535147	265.7864172335601	52	127
265.71678004535147	265.7864172335601	58	127
265.7864172335601	265.85609977324265	58	127
265.7864172335601	265.85609977324265	52	127
265.85609977324265	265.9373696145125	52	127
265.85609977324265	265.9373696145125	58	127
265.9373696145125	265.99541950113377	52	127
265.9373696145125	265.99541950113377	58	127
266.00702947845804	266.0650793650794	52	127
266.00702947845804	266.0650793650794	58	127
266.07668934240365	266.13473922902494	58	127
266.07668934240365	266.13473922902494	52	127
266.1463492063492	266.2160090702948	52	127
266.1463492063492	266.2160090702948	58	127
266.2160090702948	266.2856689342404	58	127
266.2160090702948	266.2856689342404	52	127
266.2856689342404	266.35532879818595	52	127
266.2856689342404	266.35532879818595	58	127
266.35532879818595	266.99387755102043	60	127
266.35532879818595	266.4714285714286	52	127
266.4714285714286	266.57591836734696	58	127
266.57591836734696	266.6455782312925	52	127
266.6455782312925	266.7152380952381	58	127
266.7152380952381	266.7848979591837	52	127
266.7848979591837	266.842947845805	58	127
266.842947845805	266.9242176870748	52	127
266.9242176870748	266.99387755102043	58	127
266.99387755102043	268.1316326530612	62	127
266.99387755102043	267.07514739229026	52	127
267.07514739229026	267.1564172335601	58	127
267.1564172335601	267.22607709750565	52	127
267.22607709750565	267.29573696145127	58	127
267.29573696145127	267.36539682539683	52	127
267.36539682539683	267.4350566893424	58	127
267.4350566893424	267.5163038548753	52	127
267.5163038548753	267.58598639455784	58	127
267.58598639455784	267.6556462585034	52	127
267.58598639455784	269.048820861678	64	127
267.6556462585034	267.7369160997732	58	127
267.7369160997732	267.80657596371884	52	127
267.80657596371884	267.8762358276644	58	127
267.8762358276644	267.94589569160996	52	127
267.94589569160996	268.0039455782313	58	127
268.0039455782313	268.0619954648526	52	127
268.0619954648526	268.1316326530612	58	127
268.1316326530612	269.048820861678	60	127
268.1316326530612	268.2013151927438	52	127
268.2013151927438	268.27097505668934	58	127
268.27097505668934	268.7005442176871	52	127
268.7005442176871	268.77020408163264	58	127
268.77020408163264	268.83986394557826	52	127
268.83986394557826	268.9095238095238	58	127
268.9095238095238	268.9791836734694	52	127
268.9791836734694	269.048820861678	58	127
269.048820861678	270.3259410430839	66	127
269.048820861678	270.3259410430839	62	127
269.048820861678	269.1301133786848	52	127
269.1301133786848	269.21138321995466	58	127
269.21138321995466	269.2926530612245	52	127
269.2926530612245	269.3622902494331	58	127
269.3622902494331	269.46678004535147	52	127
269.46678004535147	269.53646258503403	58	127
269.53646258503403	269.61773242630386	52	127
269.61773242630386	269.6873922902494	58	127
269.6873922902494	269.75705215419504	52	127
269.75705215419504	269.83832199546487	58	127
269.83832199546487	269.9079818594104	52	127
269.9079818594104	269.97761904761904	58	127
269.97761904761904	270.0589115646259	52	127
270.0589115646259	270.12857142857143	58	127
270.12857142857143	270.25628117913834	52	127
270.25628117913834	270.3259410430839	58	127
270.3259410430839	271.2315192743764	60	127
270.3259410430839	273.0542857142857	68	127
270.3259410430839	270.418820861678	52	127
270.418820861678	270.52331065759637	58	127
270.52331065759637	270.61619047619047	52	127
270.61619047619047	270.70907029478457	58	127
270.70907029478457	270.80195011337867	52	127
270.80195011337867	270.9180498866213	58	127
270.9180498866213	271.1386394557823	52	127
271.1386394557823	271.2315192743764	58	127
271.2315192743764	273.0542857142857	62	127
271.2315192743764	271.6726984126984	52	127
271.6726984126984	271.8352380952381	58	127
271.8352380952381	272.2764172335601	52	127
272.2764172335601	272.4157369614513	58	127
272.4157369614513	272.5898866213152	52	127
272.5898866213152	272.7291836734694	58	127
272.7291836734694	272.89174603174604	52	127
272.89174603174604	273.0426530612245	58	127
273.0542857142857	273.507074829932	69	127
273.0542857142857	273.507074829932	57	127
273.0542857142857	273.507074829932	52	127
273.0542857142857	273.507074829932	41	127
273.507074829932	273.7508616780045	67	127
273.507074829932	273.98308390022675	43	127
273.507074829932	273.98308390022675	58	127
273.507074829932	273.9018140589569	50	127
273.7508616780045	273.98308390022675	69	127
273.98308390022675	274.45909297052157	45	127
273.98308390022675	274.45909297052157	64	127
273.98308390022675	274.45909297052157	60	127
273.98308390022675	274.45909297052157	55	127
274.45909297052157	275.02798185941043	62	127
274.45909297052157	275.02798185941043	46	127
274.45909297052157	275.02798185941043	53	127
275.02798185941043	275.28337868480725	69	127
275.02798185941043	275.51560090702947	64	127
275.02798185941043	275.51560090702947	48	127
275.02798185941043	276.8507482993197	58	127
275.28337868480725	275.51560090702947	65	127
275.51560090702947	275.74780045351474	72	127
275.51560090702947	275.9916099773243	65	127
275.51560090702947	275.9916099773243	50	127
275.74780045351474	275.98	76	127
275.9916099773243	276.4560090702948	67	127
275.9916099773243	276.4560090702948	52	127
275.9916099773243	276.8507482993197	74	127
276.4560090702948	276.8971882086168	69	127
276.4560090702948	276.8971882086168	53	127
276.9784580498866	277.4312244897959	77	127
276.9784580498866	277.8608163265306	62	127
276.9784580498866	277.4312244897959	55	127
276.9784580498866	277.4312244897959	70	127
277.4312244897959	277.96530612244896	57	127
277.4312244897959	277.744693877551	76	127
277.4312244897959	277.96530612244896	72	127
277.744693877551	277.96530612244896	81	127
277.96530612244896	278.4413151927438	79	127
277.96530612244896	278.4413151927438	58	127
277.96530612244896	278.4413151927438	74	127
277.96530612244896	278.4413151927438	65	127
278.4413151927438	278.8012244897959	70	127
278.4413151927438	278.6618820861678	77	127
278.4413151927438	278.8012244897959	76	127
278.4413151927438	278.8012244897959	60	127
278.6618820861678	278.87086167800453	76	127
278.88249433106574	280.4846712018141	70	127
278.88249433106574	279.3817006802721	62	127
278.88249433106574	279.3817006802721	77	127
278.88249433106574	279.1263038548753	74	127
279.1263038548753	279.3817006802721	81	127
279.3817006802721	281.0071201814059	84	127
279.3817006802721	279.82290249433106	79	127
279.3817006802721	279.91578231292516	64	127
279.91578231292516	280.4846712018141	65	127
279.91578231292516	280.1943990929705	74	127
280.1943990929705	280.4730612244898	81	127
280.4846712018141	281.0651700680272	79	127
280.4846712018141	281.0651700680272	69	127
280.4846712018141	281.0651700680272	64	127
281.2973696145125	282.27260770975056	62	127
281.2973696145125	281.77337868480726	67	127
281.2973696145125	281.77337868480726	84	127
281.2973696145125	281.77337868480726	76	127
281.77337868480726	282.27260770975056	66	127
281.77337868480726	282.27260770975056	74	127
281.77337868480726	282.04038548752834	81	127
282.04038548752834	282.27260770975056	84	127
282.27260770975056	282.7950566893424	76	127
282.27260770975056	282.7950566893424	71	127
282.27260770975056	282.7950566893424	67	127
282.27260770975056	283.3407256235828	60	127
282.7950566893424	283.3407256235828	69	127
282.7950566893424	283.3407256235828	66	127
282.7950566893424	283.3407256235828	74	127
283.3407256235828	283.8399546485261	59	127
283.3407256235828	283.59614512471654	79	127
283.3407256235828	283.8399546485261	67	127
283.3407256235828	283.8399546485261	64	127
283.59614512471654	283.8399546485261	72	127
283.8399546485261	284.1069841269841	72	127
283.8399546485261	284.3391836734694	57	127
283.8399546485261	284.3391836734694	62	127
283.8399546485261	284.3391836734694	66	127
284.1069841269841	284.3391836734694	76	127
284.3391836734694	284.80356009070294	55	127
284.3391836734694	284.80356009070294	69	127
284.3391836734694	284.80356009070294	64	127
284.3391836734694	284.80356009070294	60	127
284.80356009070294	285.337641723356	67	127
284.80356009070294	285.337641723356	60	127
284.80356009070294	285.337641723356	57	127
284.80356009070294	285.337641723356	52	127
285.41891156462583	285.89492063492065	61	127
285.41891156462583	285.63950113378684	67	127
285.41891156462583	285.89492063492065	57	127
285.41891156462583	285.89492063492065	52	127
285.63950113378684	285.89492063492065	71	127
285.89492063492065	286.3709297052154	50	127
285.89492063492065	286.3709297052154	64	127
285.89492063492065	286.3709297052154	59	127
285.89492063492065	286.3709297052154	55	127
286.3709297052154	286.5915192743764	67	127
286.3709297052154	286.8237188208617	47	127
286.3709297052154	286.8237188208617	52	127
286.3709297052154	286.8237188208617	62	127
286.5915192743764	286.8237188208617	71	127
286.8237188208617	287.6364172335601	64	127
286.8237188208617	287.39260770975056	59	127
286.8237188208617	287.39260770975056	50	127
286.8237188208617	287.39260770975056	43	127
287.39260770975056	287.98471655328797	57	127
287.39260770975056	287.98471655328797	49	127
287.39260770975056	288.913514739229	43	127
287.6364172335601	287.98471655328797	61	127
287.98471655328797	288.40267573696144	54	127
287.98471655328797	288.913514739229	59	127
287.98471655328797	288.40267573696144	62	127
288.40267573696144	288.913514739229	52	127
288.40267573696144	288.913514739229	64	127
288.913514739229	289.66816326530613	66	127
288.913514739229	289.74943310657596	49	127
288.913514739229	290.0861224489796	57	127
288.913514739229	290.0861224489796	42	127
289.74943310657596	290.12095238095236	54	127
290.20222222222225	290.7130612244898	90	127
290.20222222222225	291.16585034013605	57	127
290.20222222222225	291.16585034013605	41	127
290.20222222222225	290.7130612244898	63	127
290.7130612244898	291.16585034013605	87	127
290.7130612244898	291.16585034013605	65	127
291.16585034013605	291.6302494331066	86	127
291.16585034013605	292.11786848072563	60	127
291.16585034013605	292.11786848072563	44	127
291.16585034013605	291.6302494331066	66	127
291.6302494331066	292.0482086167801	84	127
291.6302494331066	292.11786848072563	68	127
292.11786848072563	292.61709750566894	83	127
292.11786848072563	293.15115646258505	63	127
292.11786848072563	293.15115646258505	47	127
292.11786848072563	293.15115646258505	69	127
292.61709750566894	292.8492970521542	81	127
292.8492970521542	293.15115646258505	83	127
293.15115646258505	293.7548752834467	68	127
293.15115646258505	294.11478458049885	60	127
293.15115646258505	294.11478458049885	44	127
293.15115646258505	293.5110657596372	84	127
293.5110657596372	293.7548752834467	86	127
293.7548752834467	294.1612244897959	87	127
293.7548752834467	294.1612244897959	66	127
294.2308843537415	294.68367346938777	90	127
294.2308843537415	295.1829024943311	41	127
294.2308843537415	295.1829024943311	57	127
294.2308843537415	294.68367346938777	63	127
294.68367346938777	295.1829024943311	65	127
294.68367346938777	295.1829024943311	87	127
295.1829024943311	296.1233106575964	44	127
295.1829024943311	295.63566893424036	86	127
295.1829024943311	295.63566893424036	66	127
295.1829024943311	296.1233106575964	60	127
295.63566893424036	296.04201814058956	84	127
295.63566893424036	296.1233106575964	68	127
296.1233106575964	297.14498866213154	69	127
296.1233106575964	297.14498866213154	47	127
296.1233106575964	296.69219954648526	83	127
296.1233106575964	297.14498866213154	63	127
296.69219954648526	296.91278911564626	81	127
296.91278911564626	297.14498866213154	83	127
297.14498866213154	297.59777777777776	68	127
297.14498866213154	298.05056689342405	60	127
297.14498866213154	297.3771655328798	84	127
297.14498866213154	298.05056689342405	44	127
297.3771655328798	297.59777777777776	86	127
297.59777777777776	298.05056689342405	66	127
297.59777777777776	297.9808843537415	87	127
298.05056689342405	298.5265759637188	57	127
298.05056689342405	299.0141723356009	41	127
298.05056689342405	299.0141723356009	63	127
298.05056689342405	298.5265759637188	90	127
298.5265759637188	299.0141723356009	87	127
298.5265759637188	299.0141723356009	59	127
299.0141723356009	299.46698412698413	66	127
299.0141723356009	299.46698412698413	86	127
299.0141723356009	299.9313605442177	60	127
299.0141723356009	299.9313605442177	44	127
299.46698412698413	299.8501133786848	84	127
299.46698412698413	299.9313605442177	68	127
299.9313605442177	300.84854875283446	41	127
299.9313605442177	300.3841723356009	90	127
299.9313605442177	300.84854875283446	63	127
299.9313605442177	300.3841723356009	57	127
300.3841723356009	300.84854875283446	59	127
300.3841723356009	300.84854875283446	87	127
300.84854875283446	301.3013605442177	66	127
300.84854875283446	301.81219954648526	60	127
300.84854875283446	301.81219954648526	44	127
300.84854875283446	301.3013605442177	86	127
301.3013605442177	301.71931972789116	84	127
301.3013605442177	301.81219954648526	68	127
301.81219954648526	302.28820861678	90	127
301.81219954648526	303.71621315192743	57	127
301.81219954648526	303.6001360544218	47	127
301.81219954648526	302.76421768707485	63	127
302.28820861678	302.76421768707485	87	127
302.76421768707485	303.71621315192743	65	127
302.76421768707485	303.26344671201815	86	127
303.26344671201815	303.6465759637188	84	127
303.71621315192743	304.85401360544216	58	127
303.71621315192743	304.85401360544216	66	127
303.71621315192743	304.3315646258503	86	127
303.71621315192743	305.8640589569161	48	127
304.3315646258503	304.85401360544216	82	127
304.85401360544216	305.45773242630383	81	127
304.85401360544216	305.45773242630383	69	127
304.85401360544216	305.8640589569161	70	127
304.85401360544216	305.8640589569161	76	127
305.45773242630383	305.9105215419501	67	127
305.45773242630383	305.9105215419501	79	127
306.038231292517	307.0018594104308	41	127
306.038231292517	307.0018594104308	69	127
306.038231292517	307.0018594104308	76	127
306.038231292517	306.5026303854875	84	127
306.038231292517	306.5026303854875	57	127
306.5026303854875	307.0018594104308	81	127
306.5026303854875	306.7696598639456	55	127
306.7696598639456	307.0018594104308	57	127
307.0018594104308	307.47786848072565	76	127
307.0018594104308	307.8261678004535	69	127
307.0018594104308	307.47786848072565	45	127
307.0018594104308	307.47786848072565	55	127
307.0018594104308	307.47786848072565	64	127
307.47786848072565	307.94226757369614	53	127
307.47786848072565	307.94226757369614	74	127
307.47786848072565	307.94226757369614	62	127
307.47786848072565	307.94226757369614	46	127
307.94226757369614	309.6837641723356	58	127
307.94226757369614	308.41825396825396	48	127
307.94226757369614	308.41825396825396	64	127
307.94226757369614	308.1860770975057	81	127
308.1860770975057	308.41825396825396	77	127
308.41825396825396	308.89428571428573	50	127
308.41825396825396	308.6504761904762	84	127
308.41825396825396	308.89428571428573	65	127
308.6504761904762	308.89428571428573	88	127
308.89428571428573	309.34707482993196	67	127
308.89428571428573	309.34707482993196	52	127
308.89428571428573	309.6837641723356	86	127
309.34707482993196	309.7302040816327	69	127
309.34707482993196	309.7302040816327	53	127
309.79986394557824	310.2526303854875	70	127
309.79986394557824	310.2526303854875	89	127
309.79986394557824	310.2526303854875	55	127
310.2526303854875	310.48485260770974	88	127
310.2526303854875	310.70544217687075	57	127
310.2526303854875	310.70544217687075	72	127
310.48485260770974	310.70544217687075	93	127
310.70544217687075	311.15823129251703	91	127
310.70544217687075	311.15823129251703	74	127
310.70544217687075	311.15823129251703	58	127
311.15823129251703	311.36721088435377	89	127
311.15823129251703	311.599410430839	76	127
311.15823129251703	311.599410430839	60	127
311.36721088435377	311.599410430839	88	127
311.599410430839	312.040589569161	77	127
311.599410430839	312.040589569161	86	127
311.599410430839	312.040589569161	62	127
312.040589569161	312.4933786848073	64	127
312.040589569161	313.0738775510204	70	127
312.040589569161	312.261179138322	84	127
312.040589569161	312.4933786848073	79	127
312.261179138322	312.4933786848073	89	127
312.4933786848073	313.0738775510204	86	127
312.4933786848073	313.0738775510204	65	127
312.4933786848073	313.0738775510204	81	127
313.0738775510204	313.3060770975057	84	127
313.0738775510204	313.5382766439909	67	127
313.0738775510204	313.5382766439909	70	127
313.0738775510204	313.4570068027211	76	127
313.3060770975057	313.5382766439909	82	127
313.5382766439909	315.0243537414966	81	127
313.5382766439909	313.96784580498866	69	127
313.5382766439909	314.40902494331067	69	127
314.06072562358275	314.5831746031746	71	127
314.5831746031746	316.01120181405895	65	127
314.5831746031746	316.01120181405895	59	127
314.5831746031746	315.47714285714284	73	127
315.14045351473925	315.51197278911565	77	127
315.5932426303855	316.8819501133787	81	127
316.08083900226757	316.5336507936508	71	127
316.5336507936508	318.2983673469388	59	127
316.5336507936508	318.2983673469388	65	127
316.5336507936508	317.33473922902493	73	127
316.9864399092971	317.36956916099774	77	127
317.4856689342404	319.21555555555557	81	127
318.40285714285716	318.8556462585034	71	127
318.8556462585034	320.13274376417235	65	127
318.8556462585034	320.0166439909297	73	127
318.8556462585034	320.13274376417235	59	127
319.3316553287982	320.0630612244898	77	127
320.13274376417235	320.248843537415	61	127
320.13274376417235	320.248843537415	52	127
320.13274376417235	320.9686621315193	81	127
320.13274376417235	321.6536507936508	36	127
320.248843537415	320.50426303854874	63	127
320.248843537415	320.4926530612245	52	127
320.50426303854874	320.6087528344671	55	127
320.50426303854874	320.63197278911565	64	127
320.63197278911565	320.736462585034	55	127
320.63197278911565	320.736462585034	66	127
320.736462585034	320.85256235827666	58	127
320.736462585034	320.85256235827666	64	127
320.85256235827666	320.9686621315193	58	127
320.85256235827666	320.9686621315193	66	127
320.9686621315193	321.1892290249433	79	127
320.9686621315193	321.07315192743766	61	127
320.9686621315193	321.08473922902493	67	127
321.08473922902493	321.1892290249433	69	127
321.08473922902493	321.1892290249433	61	127
321.1892290249433	321.3053514739229	67	127
321.1892290249433	321.86263038548753	81	127
321.1892290249433	321.3053514739229	58	127
321.3053514739229	321.4214512471655	58	127
321.3053514739229	321.4214512471655	69	127
321.4214512471655	321.53755102040816	70	127
321.4214512471655	321.5259410430839	61	127
321.53755102040816	321.6420408163265	72	127
321.53755102040816	321.6420408163265	61	127
321.6536507936508	322.013537414966	48	127
321.6536507936508	321.7465306122449	64	127
321.6536507936508	321.7465306122449	70	127
321.7465306122449	321.86263038548753	64	127
321.7465306122449	321.86263038548753	72	127
321.86263038548753	321.9787301587302	67	127
321.86263038548753	322.0716099773243	79	127
321.86263038548753	321.9787301587302	73	127
321.9787301587302	322.0716099773243	67	127
321.9787301587302	322.0716099773243	75	127
322.08321995464854	322.1877097505669	65	127
322.08321995464854	322.1993197278912	74	127
322.08321995464854	322.53600907029477	60	127
322.08321995464854	322.30380952380955	76	127
322.08321995464854	322.1877097505669	69	127
322.1993197278912	322.30380952380955	65	127
322.1993197278912	322.30380952380955	76	127
322.1993197278912	322.30380952380955	69	127
322.30380952380955	322.53600907029477	77	127
322.30380952380955	322.4082993197279	62	127
322.30380952380955	322.4082993197279	74	127
322.4082993197279	322.53600907029477	62	127
322.4082993197279	322.53600907029477	69	127
322.53600907029477	322.9191383219955	48	127
322.53600907029477	322.64049886621314	57	127
322.53600907029477	322.6521088435374	62	127
322.53600907029477	322.76820861678004	81	127
322.6521088435374	322.7565986394558	57	127
322.6521088435374	322.76820861678004	64	127
322.76820861678004	322.8726984126984	62	127
322.76820861678004	322.8726984126984	53	127
322.76820861678004	322.95396825396824	86	127
322.8726984126984	322.95396825396824	53	127
322.8726984126984	322.95396825396824	57	127
322.95396825396824	323.0584580498866	61	127
322.95396825396824	324.2891156462585	36	127
322.95396825396824	323.604126984127	81	127
322.95396825396824	323.0584580498866	52	127
323.0584580498866	323.162947845805	52	127
323.0584580498866	323.17455782312925	63	127
323.17455782312925	323.2790476190476	64	127
323.17455782312925	323.2790476190476	55	127
323.2790476190476	323.39514739229026	66	127
323.2790476190476	323.39514739229026	55	127
323.39514739229026	323.48802721088435	64	127
323.39514739229026	323.48802721088435	58	127
323.48802721088435	323.5925170068027	58	127
323.48802721088435	323.604126984127	66	127
323.604126984127	323.72022675736963	67	127
323.604126984127	323.70861678004536	61	127
323.604126984127	323.824716553288	79	127
323.72022675736963	323.824716553288	69	127
323.72022675736963	323.824716553288	61	127
323.824716553288	324.5097052154195	81	127
323.824716553288	323.94081632653064	58	127
323.824716553288	323.94081632653064	67	127
323.94081632653064	324.0568934240363	58	127
323.94081632653064	324.0568934240363	69	127
324.0568934240363	324.16138321995464	61	127
324.0568934240363	324.17301587301586	70	127
324.17301587301586	324.2775056689342	72	127
324.17301587301586	324.2775056689342	61	127
324.2891156462585	324.39360544217686	64	127
324.2891156462585	324.6722222222222	48	127
324.2891156462585	324.39360544217686	70	127
324.39360544217686	324.5097052154195	64	127
324.39360544217686	324.5097052154195	72	127
324.5097052154195	324.7419047619048	76	127
324.5097052154195	324.6374149659864	67	127
324.5097052154195	324.6374149659864	73	127
324.6374149659864	324.7419047619048	67	127
324.6374149659864	324.7419047619048	75	127
324.75351473922905	325.194693877551	60	127
324.75351473922905	324.84639455782315	65	127
324.75351473922905	324.84639455782315	69	127
324.75351473922905	324.84639455782315	74	127
324.75351473922905	324.9624943310658	76	127
324.84639455782315	324.9624943310658	65	127
324.84639455782315	324.9624943310658	69	127
324.84639455782315	324.9624943310658	76	127
324.9624943310658	325.0785714285714	62	127
324.9624943310658	325.194693877551	77	127
324.9624943310658	325.0785714285714	74	127
325.0785714285714	325.1830612244898	69	127
325.0785714285714	325.1830612244898	62	127
325.194693877551	325.31079365079364	62	127
325.194693877551	325.589410430839	48	127
325.194693877551	325.415283446712	81	127
325.194693877551	325.2991836734694	57	127
325.31079365079364	325.415283446712	64	127
325.31079365079364	325.415283446712	57	127
325.415283446712	325.5546031746032	53	127
325.415283446712	325.6707029478458	86	127
325.415283446712	325.5546031746032	62	127
325.5546031746032	325.6707029478458	53	127
325.5546031746032	325.6707029478458	57	127
325.6707029478458	326.12349206349205	84	127
325.6707029478458	326.57628117913833	41	127
325.6707029478458	325.7751927437642	56	127
325.6707029478458	325.78680272108846	62	127
325.78680272108846	325.9028798185941	64	127
325.78680272108846	325.89126984126983	56	127
325.9028798185941	326.0073922902494	50	127
325.9028798185941	326.0073922902494	65	127
326.0073922902494	326.12349206349205	50	127
326.0073922902494	326.12349206349205	67	127
326.12349206349205	326.3556916099773	83	127
326.12349206349205	326.2395918367347	56	127
326.12349206349205	326.2395918367347	65	127
326.2395918367347	326.34408163265306	56	127
326.2395918367347	326.3556916099773	67	127
326.3556916099773	326.47179138321997	65	127
326.3556916099773	326.57628117913833	84	127
326.3556916099773	326.4601814058957	62	127
326.47179138321997	326.57628117913833	67	127
326.47179138321997	326.57628117913833	62	127
326.57628117913833	326.692380952381	68	127
326.57628117913833	327.3773696145125	40	127
326.57628117913833	327.02907029478456	80	127
326.57628117913833	326.692380952381	60	127
326.692380952381	326.8084807256236	69	127
326.692380952381	326.79687074829934	60	127
326.8084807256236	326.912947845805	64	127
326.8084807256236	326.92455782312925	71	127
326.92455782312925	327.02907029478456	64	127
326.92455782312925	327.02907029478456	72	127
327.02907029478456	327.4121995464853	81	127
327.02907029478456	327.1451700680272	64	127
327.02907029478456	327.1451700680272	71	127
327.1451700680272	327.26126984126984	64	127
327.1451700680272	327.26126984126984	72	127
327.26126984126984	327.3657596371882	69	127
327.26126984126984	327.3773696145125	74	127
327.3773696145125	327.48185941043084	69	127
327.3773696145125	327.48185941043084	76	127
327.4934693877551	327.9694784580499	39	127
327.4934693877551	327.5515192743764	73	127
327.4934693877551	327.5515192743764	55	127
327.4934693877551	327.5515192743764	65	127
327.4934693877551	327.621179138322	77	127
327.5515192743764	327.621179138322	84	127
327.5515192743764	328.1900680272109	72	127
327.621179138322	327.73725623582766	79	127
327.621179138322	327.73725623582766	84	127
327.73725623582766	327.85337868480724	77	127
327.73725623582766	327.85337868480724	79	127
327.85337868480724	327.9578684807256	79	127
327.85337868480724	327.9578684807256	75	127
327.9694784580499	328.43387755102043	51	127
327.9694784580499	328.07396825396825	72	127
327.9694784580499	328.0855782312925	75	127
328.0855782312925	328.1900680272109	77	127
328.0855782312925	328.1900680272109	72	127
328.1900680272109	328.3177777777778	75	127
328.1900680272109	328.3177777777778	65	127
328.1900680272109	328.43387755102043	70	127
328.3177777777778	328.43387755102043	65	127
328.3177777777778	328.43387755102043	73	127
328.43387755102043	328.82861678004537	61	127
328.43387755102043	329.1304761904762	72	127
328.43387755102043	328.54995464852607	72	127
328.43387755102043	328.5615873015873	64	127
328.5615873015873	328.66607709750565	72	127
328.5615873015873	328.66607709750565	66	127
328.66607709750565	328.7821768707483	67	127
328.66607709750565	328.7821768707483	64	127
328.7821768707483	328.8982766439909	67	127
328.7821768707483	328.8982766439909	63	127
328.8982766439909	329.01437641723356	63	127
328.8982766439909	329.8154648526077	51	127
328.8982766439909	329.0027664399093	55	127
329.01437641723356	329.11886621315193	55	127
329.01437641723356	329.1304761904762	64	127
329.1304761904762	329.23496598639457	63	127
329.1304761904762	329.3510657596372	67	127
329.1304761904762	329.23496598639457	55	127
329.23496598639457	329.3510657596372	61	127
329.23496598639457	329.3510657596372	55	127
329.3510657596372	329.46716553287985	63	127
329.3510657596372	329.46716553287985	60	127
329.3510657596372	329.5832426303855	67	127
329.46716553287985	329.5832426303855	61	127
329.46716553287985	329.5716326530612	63	127
329.5832426303855	329.71097505668934	60	127
329.5832426303855	329.8154648526077	68	127
329.5832426303855	329.69936507936507	63	127
329.71097505668934	329.8154648526077	63	127
329.71097505668934	329.8154648526077	58	127
329.8154648526077	330.047664399093	72	127
329.8154648526077	330.6281632653061	39	127
329.8154648526077	329.93156462585034	58	127
329.8154648526077	329.93156462585034	64	127
329.93156462585034	330.047664399093	60	127
329.93156462585034	330.047664399093	64	127
330.047664399093	330.268253968254	77	127
330.047664399093	330.15215419501135	64	127
330.047664399093	330.1637641723356	58	127
330.1637641723356	330.268253968254	64	127
330.1637641723356	330.268253968254	56	127
330.27986394557826	330.3843537414966	65	127
330.27986394557826	330.3843537414966	65	127
330.27986394557826	331.01126984126984	60	127
330.27986394557826	330.3843537414966	55	127
330.27986394557826	330.3843537414966	72	127
330.3843537414966	330.50043083900226	67	127
330.3843537414966	330.50043083900226	72	127
330.50043083900226	330.60492063492063	67	127
330.50043083900226	330.6281632653061	65	127
330.6281632653061	330.74426303854875	67	127
330.6281632653061	330.74426303854875	63	127
330.755873015873	330.88358276643993	63	127
330.755873015873	330.88358276643993	55	127
330.755873015873	331.75433106575963	51	127
330.88358276643993	331.01126984126984	65	127
330.88358276643993	331.01126984126984	55	127
331.01126984126984	331.1390022675737	55	127
331.01126984126984	331.24349206349206	58	127
331.01126984126984	331.1390022675737	63	127
331.1390022675737	331.24349206349206	55	127
331.1390022675737	331.24349206349206	61	127
331.2551020408163	331.42925170068025	61	127
331.2551020408163	331.9865306122449	60	127
331.2551020408163	331.42925170068025	52	127
331.4408616780045	331.5453514739229	54	127
331.4408616780045	331.5453514739229	61	127
331.5453514739229	331.66145124716553	61	127
331.5453514739229	331.66145124716553	52	127
331.66145124716553	331.75433106575963	61	127
331.66145124716553	331.75433106575963	51	127
331.75433106575963	331.858820861678	51	127
331.75433106575963	332.13743764172335	39	127
331.75433106575963	331.858820861678	61	127
331.87043083900227	331.97492063492064	52	127
331.87043083900227	331.97492063492064	61	127
331.9865306122449	332.25356009070293	55	127
331.9865306122449	332.0910204081633	61	127
331.9865306122449	332.0910204081633	51	127
332.0910204081633	332.25356009070293	49	127
332.0910204081633	332.25356009070293	61	127
332.25356009070293	332.36965986394557	51	127
332.25356009070293	332.36965986394557	48	127
332.25356009070293	332.47414965986394	60	127
332.25356009070293	332.4857596371882	55	127
332.36965986394557	332.47414965986394	51	127
332.36965986394557	332.4857596371882	46	127
332.4857596371882	332.7063492063492	56	127
332.4857596371882	332.5902494331066	44	127
332.4857596371882	332.5902494331066	51	127
332.5902494331066	332.7063492063492	43	127
332.5902494331066	332.7063492063492	51	127
332.7063492063492	332.82244897959185	53	127
332.7063492063492	332.961768707483	60	127
332.7063492063492	332.82244897959185	43	127
332.82244897959185	332.95013605442176	53	127
332.82244897959185	332.961768707483	44	127
332.961768707483	333.06625850340134	56	127
332.961768707483	333.182358276644	65	127
332.961768707483	333.0778684807256	43	127
333.0778684807256	333.182358276644	41	127
333.0778684807256	333.182358276644	56	127
333.182358276644	334.3085260770975	40	127
333.182358276644	333.77444444444444	63	127
333.182358276644	334.3085260770975	55	127
333.182358276644	334.3085260770975	58	127
333.77444444444444	334.01827664399093	61	127
334.01827664399093	334.3085260770975	63	127
334.3085260770975	335.17927437641725	41	127
334.3085260770975	335.17927437641725	59	127
334.3085260770975	335.17927437641725	51	127
334.3085260770975	334.8077551020408	58	127
334.8077551020408	334.99349206349206	56	127
334.99349206349206	335.14444444444445	61	127
335.14444444444445	335.33020408163264	63	127
335.33020408163264	335.49274376417236	55	127
335.33020408163264	335.77138321995466	63	127
335.33020408163264	335.77138321995466	40	127
335.33020408163264	335.4811337868481	49	127
335.49274376417236	335.59723356009073	49	127
335.49274376417236	335.608820861678	57	127
335.608820861678	335.71331065759637	58	127
335.608820861678	335.71331065759637	52	127
335.71331065759637	335.8526530612245	52	127
335.71331065759637	335.8526530612245	60	127
335.8526530612245	335.9803628117914	58	127
335.8526530612245	335.9803628117914	52	127
335.9803628117914	336.1080725623583	52	127
335.9803628117914	336.11965986394557	60	127
336.11965986394557	336.22414965986394	55	127
336.11965986394557	336.23578231292515	61	127
336.23578231292515	336.3402721088435	55	127
336.23578231292515	336.3402721088435	63	127
336.3402721088435	336.45637188208616	55	127
336.3402721088435	336.45637188208616	61	127
336.45637188208616	336.5724716553288	55	127
336.45637188208616	336.5724716553288	63	127
336.5724716553288	336.68857142857144	64	127
336.5724716553288	336.67696145124717	58	127
336.68857142857144	336.7930612244898	66	127
336.68857142857144	336.7930612244898	58	127
336.7930612244898	336.90916099773244	58	127
336.7930612244898	336.90916099773244	64	127
336.90916099773244	337.0252607709751	66	127
336.90916099773244	337.0252607709751	58	127
337.0252607709751	337.1413378684807	61	127
337.0252607709751	337.15297052154193	67	127
337.15297052154193	337.26907029478457	69	127
337.15297052154193	337.26907029478457	61	127
337.28068027210884	337.87278911564624	75	127
337.28068027210884	338.36040816326533	70	127
337.28068027210884	338.36040816326533	64	127
337.28068027210884	338.36040816326533	55	127
337.87278911564624	338.1049886621315	73	127
338.1049886621315	338.36040816326533	75	127
338.36040816326533	338.85963718820864	70	127
338.36040816326533	339.2079365079365	56	127
338.36040816326533	339.2079365079365	62	127
338.36040816326533	339.2079365079365	64	127
338.85963718820864	339.010566893424	68	127
339.010566893424	339.17310657596374	71	127
339.17310657596374	339.32403628117913	73	127
339.32403628117913	339.44013605442177	64	127
339.32403628117913	339.7071655328798	75	127
339.32403628117913	339.7071655328798	55	127
339.32403628117913	339.44013605442177	58	127
339.44013605442177	339.5562358276644	66	127
339.44013605442177	339.54462585034014	58	127
339.5562358276644	339.6607256235828	61	127
339.5562358276644	339.67233560090705	67	127
339.67233560090705	339.7768253968254	61	127
339.67233560090705	339.7768253968254	69	127
339.7884353741497	339.9045124716553	67	127
339.7884353741497	339.89292517006805	61	127
339.9045124716553	340.0206349206349	61	127
339.9045124716553	340.0206349206349	69	127
340.0206349206349	340.13673469387754	70	127
340.0206349206349	340.13673469387754	64	127
340.13673469387754	340.2528344671202	64	127
340.13673469387754	340.2528344671202	72	127
340.26444444444445	340.3689342403628	64	127
340.26444444444445	340.3805442176871	70	127
340.3805442176871	340.4966439909297	72	127
340.3805442176871	340.4966439909297	64	127
340.4966439909297	340.62433106575963	73	127
340.4966439909297	340.61272108843536	67	127
340.62433106575963	340.7404535147392	75	127
340.62433106575963	340.7404535147392	67	127
340.7520634920635	340.8797732426304	67	127
340.7520634920635	340.8797732426304	73	127
340.8797732426304	341.0074829931973	75	127
340.8797732426304	341.0074829931973	67	127
341.0074829931973	341.1351700680272	76	127
341.0074829931973	341.12356009070294	70	127
341.1351700680272	341.30934240362814	70	127
341.1351700680272	341.30934240362814	79	127
341.3209523809524	343.37589569160997	59	127
341.3209523809524	343.37589569160997	71	127
341.3209523809524	341.83179138322	87	127
341.3209523809524	342.34263038548755	53	127
341.3209523809524	342.34263038548755	37	127
341.83179138322	342.08721088435374	86	127
342.08721088435374	342.34263038548755	87	127
342.34263038548755	342.8534693877551	82	127
342.34263038548755	343.37589569160997	44	127
342.34263038548755	343.37589569160997	54	127
342.8534693877551	343.28301587301587	80	127
343.37589569160997	345.5585941043084	59	127
343.37589569160997	345.5585941043084	71	127
343.37589569160997	343.7706575963719	87	127
343.37589569160997	344.60655328798185	65	127
343.37589569160997	344.60655328798185	49	127
343.7706575963719	344.02607709750566	86	127
344.02607709750566	344.33954648526077	86	127
344.33954648526077	344.60655328798185	87	127
344.60655328798185	345.5585941043084	66	127
344.60655328798185	345.5585941043084	56	127
344.60655328798185	345.12902494331064	82	127
345.12902494331064	345.7443537414966	80	127
345.82562358276647	345.88367346938776	77	127
345.82562358276647	345.88367346938776	71	127
345.82562358276647	345.88367346938776	61	127
345.82562358276647	346.3480498866213	87	127
345.895283446712	345.9533333333333	71	127
345.895283446712	345.9533333333333	61	127
345.895283446712	345.9533333333333	77	127
345.9649433106576	346.02299319727894	61	127
345.9649433106576	346.02299319727894	77	127
345.9649433106576	346.02299319727894	71	127
346.02299319727894	346.0926530612245	77	127
346.02299319727894	346.0926530612245	71	127
346.02299319727894	346.0926530612245	61	127
346.0926530612245	346.1507029478458	61	127
346.0926530612245	346.1507029478458	77	127
346.0926530612245	346.1507029478458	71	127
346.16231292517006	346.2203628117914	77	127
346.16231292517006	346.2203628117914	71	127
346.16231292517006	346.2203628117914	61	127
346.2203628117914	346.2784126984127	77	127
346.2203628117914	346.2784126984127	71	127
346.2203628117914	346.2784126984127	61	127
346.29002267573696	346.3480498866213	77	127
346.29002267573696	346.3480498866213	61	127
346.29002267573696	346.3480498866213	71	127
346.3480498866213	346.41773242630387	63	127
346.3480498866213	346.60349206349207	86	127
346.3480498866213	346.41773242630387	78	127
346.3480498866213	346.41773242630387	71	127
346.41773242630387	346.47578231292516	71	127
346.41773242630387	346.47578231292516	63	127
346.41773242630387	346.47578231292516	78	127
346.47578231292516	346.5338321995465	63	127
346.47578231292516	346.5338321995465	78	127
346.47578231292516	346.5338321995465	71	127
346.5454195011338	346.60349206349207	78	127
346.5454195011338	346.60349206349207	63	127
346.5454195011338	346.60349206349207	71	127
346.60349206349207	346.8124716553288	87	127
346.60349206349207	346.64990929705215	71	127
346.60349206349207	346.64990929705215	63	127
346.60349206349207	346.64990929705215	78	127
346.66154195011336	346.70798185941044	71	127
346.66154195011336	346.70798185941044	78	127
346.66154195011336	346.70798185941044	63	127
346.70798185941044	346.7543990929705	78	127
346.70798185941044	346.7543990929705	71	127
346.70798185941044	346.7543990929705	63	127
346.7543990929705	346.80086167800454	78	127
346.7543990929705	346.80086167800454	71	127
346.7543990929705	346.80086167800454	63	127
346.8124716553288	346.8705215419501	64	127
346.8124716553288	347.11433106575964	86	127
346.8124716553288	346.8705215419501	79	127
346.8124716553288	346.8705215419501	71	127
346.8705215419501	346.9169614512472	79	127
346.8705215419501	346.9169614512472	64	127
346.8705215419501	346.9169614512472	71	127
346.9169614512472	346.97501133786847	64	127
346.9169614512472	346.97501133786847	79	127
346.9169614512472	346.97501133786847	71	127
346.98662131519274	347.0330612244898	79	127
346.98662131519274	347.0330612244898	71	127
346.98662131519274	347.0330612244898	64	127
347.0330612244898	347.05625850340135	64	127
347.0330612244898	347.05625850340135	79	127
347.0330612244898	347.05625850340135	71	127
347.06789115646257	347.1027210884354	79	127
347.06789115646257	347.1027210884354	71	127
347.06789115646257	347.1027210884354	64	127
347.1027210884354	347.1375510204082	71	127
347.1027210884354	347.1375510204082	79	127
347.1027210884354	347.1375510204082	64	127
347.1375510204082	347.1956009070295	64	127
347.1375510204082	347.1956009070295	79	127
347.1375510204082	347.1956009070295	71	127
347.1956009070295	347.33492063492065	85	127
347.1956009070295	347.2536507936508	80	127
347.1956009070295	347.2536507936508	71	127
347.1956009070295	347.2536507936508	65	127
347.2536507936508	347.30009070294784	80	127
347.2536507936508	347.30009070294784	65	127
347.2536507936508	347.30009070294784	71	127
347.30009070294784	347.3465306122449	71	127
347.30009070294784	347.3465306122449	65	127
347.30009070294784	347.3465306122449	80	127
347.33492063492065	347.4742176870748	86	127
347.3465306122449	347.4045804988662	71	127
347.3465306122449	347.4045804988662	80	127
347.3465306122449	347.4045804988662	65	127
347.4045804988662	347.4510204081633	80	127
347.4045804988662	347.4510204081633	71	127
347.4045804988662	347.4510204081633	65	127
347.4510204081633	347.5090702947846	80	127
347.4510204081633	347.5090702947846	65	127
347.4510204081633	347.5090702947846	71	127
347.4742176870748	347.6251700680272	87	127
347.5090702947846	347.5670975056689	80	127
347.5090702947846	347.5670975056689	71	127
347.5090702947846	347.5670975056689	65	127
347.5670975056689	347.6251700680272	80	127
347.5670975056689	347.6251700680272	71	127
347.5670975056689	347.6251700680272	65	127
347.6251700680272	347.66	79	127
347.6251700680272	347.66	64	127
347.6251700680272	348.01990929705215	87	127
347.6251700680272	347.66	70	127
347.66	347.6948299319728	64	127
347.66	347.6948299319728	79	127
347.66	347.6948299319728	70	127
347.70643990929705	347.74126984126985	79	127
347.70643990929705	347.74126984126985	70	127
347.70643990929705	347.74126984126985	64	127
347.7528798185941	347.79931972789115	79	127
347.7528798185941	347.79931972789115	64	127
347.7528798185941	347.79931972789115	70	127
347.79931972789115	347.8573696145125	64	127
347.79931972789115	347.8573696145125	79	127
347.79931972789115	347.8573696145125	70	127
347.8573696145125	347.9038095238095	79	127
347.8573696145125	347.9038095238095	70	127
347.8573696145125	347.9038095238095	64	127
347.9154195011338	347.96185941043086	64	127
347.9154195011338	347.96185941043086	79	127
347.9154195011338	347.96185941043086	70	127
347.97344671201813	348.01990929705215	79	127
347.97344671201813	348.01990929705215	64	127
347.97344671201813	348.01990929705215	70	127
348.01990929705215	348.18242630385487	86	127
348.01990929705215	348.05473922902496	65	127
348.01990929705215	348.05473922902496	80	127
348.01990929705215	348.05473922902496	71	127
348.05473922902496	348.0779365079365	65	127
348.05473922902496	348.0779365079365	71	127
348.05473922902496	348.0779365079365	80	127
348.0895691609977	348.1360090702948	65	127
348.0895691609977	348.1360090702948	80	127
348.0895691609977	348.1360090702948	71	127
348.1360090702948	348.1708390022676	80	127
348.1360090702948	348.1708390022676	71	127
348.1360090702948	348.1708390022676	65	127
348.18242630385487	348.2288888888889	65	127
348.18242630385487	348.37981859410434	87	127
348.18242630385487	348.2288888888889	80	127
348.18242630385487	348.2288888888889	71	127
348.2288888888889	348.28691609977324	80	127
348.2288888888889	348.28691609977324	65	127
348.2288888888889	348.28691609977324	71	127
348.28691609977324	348.33337868480726	65	127
348.28691609977324	348.33337868480726	80	127
348.28691609977324	348.33337868480726	71	127
348.3449886621315	348.37981859410434	80	127
348.3449886621315	348.37981859410434	71	127
348.3449886621315	348.37981859410434	65	127
348.37981859410434	348.6352380952381	86	127
348.37981859410434	348.42625850340136	81	127
348.37981859410434	348.42625850340136	75	127
348.37981859410434	348.42625850340136	66	127
348.4378684807256	348.4842857142857	81	127
348.4378684807256	348.4842857142857	75	127
348.4378684807256	348.4842857142857	66	127
348.4842857142857	348.5307482993197	81	127
348.4842857142857	348.5307482993197	66	127
348.4842857142857	348.5307482993197	75	127
348.542358276644	348.5887755102041	81	127
348.542358276644	348.5887755102041	75	127
348.542358276644	348.5887755102041	66	127
348.6004081632653	348.64684807256236	81	127
348.6004081632653	348.64684807256236	75	127
348.6004081632653	348.64684807256236	66	127
348.64684807256236	348.69326530612244	75	127
348.64684807256236	348.69326530612244	81	127
348.64684807256236	348.69326530612244	66	127
348.70489795918365	348.83260770975056	85	127
348.70489795918365	348.75133786848073	82	127
348.70489795918365	348.75133786848073	76	127
348.70489795918365	348.75133786848073	67	127
348.75133786848073	348.7977551020408	82	127
348.75133786848073	348.7977551020408	67	127
348.75133786848073	348.7977551020408	76	127
348.7977551020408	348.84421768707483	76	127
348.7977551020408	348.84421768707483	67	127
348.7977551020408	348.84421768707483	82	127
348.83260770975056	348.97192743764174	86	127
348.8558276643991	348.9022448979592	67	127
348.8558276643991	348.9022448979592	82	127
348.8558276643991	348.9022448979592	76	127
348.9022448979592	348.9487074829932	82	127
348.9022448979592	348.9487074829932	76	127
348.9022448979592	348.9487074829932	67	127
348.9487074829932	348.9951473922903	76	127
348.9487074829932	348.9951473922903	82	127
348.9487074829932	348.9951473922903	67	127
348.97192743764174	349.0880272108844	87	127
348.9951473922903	349.02997732426303	82	127
348.9951473922903	349.02997732426303	76	127
348.9951473922903	349.02997732426303	67	127
349.0415873015873	349.0764172335601	76	127
349.0415873015873	349.0764172335601	67	127
349.0415873015873	349.0764172335601	82	127
349.0880272108844	349.41308390022675	61	127
349.0880272108844	349.41308390022675	68	127
349.0880272108844	349.41308390022675	77	127
349.0880272108844	349.41308390022675	75	127
349.0880272108844	349.41308390022675	83	127
349.0880272108844	349.41308390022675	68	127
349.0880272108844	349.1809070294785	88	127
349.0880272108844	349.41308390022675	65	127
349.1809070294785	349.2737868480726	89	127
349.28539682539684	349.37827664399094	88	127
349.37827664399094	349.4595464852608	83	127
349.4595464852608	349.4943764172336	83	127
349.4943764172336	349.5524263038549	87	127
349.5524263038549	349.64530612244897	83	127
349.65691609977324	349.74979591836734	80	127
349.74979591836734	349.84267573696144	80	127
349.84267573696144	349.93555555555554	83	127
349.9471655328798	350.0400453514739	80	127
350.0400453514739	350.1212925170068	77	127
350.1212925170068	350.13290249433106	77	127
350.13290249433106	350.19097505668935	80	127
350.19097505668935	350.2606349206349	77	127
350.2722448979592	350.3651247165533	75	127
350.3651247165533	350.4580045351474	71	127
350.3651247165533	350.4580045351474	75	127
350.4580045351474	350.5857142857143	73	127
350.5857142857143	350.6785941043084	71	127
350.6785941043084	350.7714739229025	67	127
350.78308390022676	350.87596371882086	67	127
350.87596371882086	350.96884353741495	71	127
350.96884353741495	351.06172335600905	67	127
351.0733333333333	351.1662131519274	63	127
351.1662131519274	351.2590929705215	63	127
351.2707029478458	351.3635827664399	65	127
351.3635827664399	351.4448526077098	63	127
351.4448526077098	351.5377324263039	59	127
351.5377324263039	351.70027210884354	67	127
351.5377324263039	351.70027210884354	52	127
351.5377324263039	351.5725623582766	62	127
351.5377324263039	351.5725623582766	58	127
351.5841723356009	351.6654195011338	62	127
351.5841723356009	351.6654195011338	58	127
351.6654195011338	351.7582993197279	64	127
351.6654195011338	351.7582993197279	60	127
351.7582993197279	352.0834013605442	55	127
351.7582993197279	352.0834013605442	70	127
351.7582993197279	351.86278911564625	65	127
351.7582993197279	351.86278911564625	61	127
351.86278911564625	351.95569160997735	67	127
351.86278911564625	351.95569160997735	63	127
351.95569160997735	352.04857142857145	65	127
351.95569160997735	352.04857142857145	61	127
352.04857142857145	352.1298412698413	67	127
352.04857142857145	352.1298412698413	63	127
352.1298412698413	352.2227210884354	61	127
352.1298412698413	352.2227210884354	65	127
352.2227210884354	352.32721088435375	67	127
352.2227210884354	352.32721088435375	63	127
352.32721088435375	352.42009070294785	61	127
352.32721088435375	352.42009070294785	65	127
352.42009070294785	352.51297052154194	67	127
352.42009070294785	352.51297052154194	63	127
352.51297052154194	352.6290702947846	65	127
352.51297052154194	352.6290702947846	61	127
352.6290702947846	352.7219501133787	63	127
352.6290702947846	352.7219501133787	67	127
352.7219501133787	352.82643990929705	65	127
352.7219501133787	352.82643990929705	61	127
352.82643990929705	352.91931972789115	64	127
352.82643990929705	352.91931972789115	60	127
352.91931972789115	353.01219954648525	58	127
352.91931972789115	353.01219954648525	62	127
352.91931972789115	353.2560090702948	67	127
352.91931972789115	353.2560090702948	52	127
353.01219954648525	353.1166893424036	64	127
353.01219954648525	353.1166893424036	60	127
353.1166893424036	353.2095691609977	62	127
353.1166893424036	353.2095691609977	58	127
353.2095691609977	353.32566893424035	64	127
353.2095691609977	353.32566893424035	60	127
353.3372789115646	353.67396825396827	55	127
353.3372789115646	353.4301587301587	65	127
353.3372789115646	353.4301587301587	61	127
353.3372789115646	353.67396825396827	70	127
353.4301587301587	353.5346485260771	67	127
353.4301587301587	353.5346485260771	63	127
353.5346485260771	353.63913832199546	61	127
353.5346485260771	353.63913832199546	65	127
353.63913832199546	353.73201814058956	63	127
353.63913832199546	353.73201814058956	67	127
353.73201814058956	353.8481179138322	61	127
353.73201814058956	353.8481179138322	65	127
353.8481179138322	353.96421768707484	63	127
353.8481179138322	353.96421768707484	67	127
353.96421768707484	354.05709750566893	65	127
353.96421768707484	354.05709750566893	61	127
354.05709750566893	354.1615873015873	67	127
354.05709750566893	354.1615873015873	63	127
354.1615873015873	354.2660770975057	61	127
354.1615873015873	354.2660770975057	65	127
354.2660770975057	354.35895691609977	63	127
354.2660770975057	354.35895691609977	67	127
354.35895691609977	354.46344671201814	65	127
354.35895691609977	354.46344671201814	61	127
354.46344671201814	354.6027664399093	64	127
354.46344671201814	354.6027664399093	60	127
354.6027664399093	354.71886621315195	62	127
354.6027664399093	354.71886621315195	58	127
354.6027664399093	355.0207256235828	67	127
354.6027664399093	355.0207256235828	52	127
354.71886621315195	354.8814058956916	64	127
354.71886621315195	354.8814058956916	60	127
354.8814058956916	354.98589569161	62	127
354.8814058956916	354.98589569161	58	127
354.98589569161	355.12521541950116	64	127
354.98589569161	355.12521541950116	60	127
355.1716553287982	355.3922448979592	61	127
355.1716553287982	357.1801587301587	55	127
355.1716553287982	356.2397732426304	65	127
355.1716553287982	356.2397732426304	70	127
355.3922448979592	355.49673469387756	63	127
355.49673469387756	355.62444444444446	61	127
355.62444444444446	355.71732426303856	63	127
355.71732426303856	355.8334240362812	61	127
355.8334240362812	355.9727437641723	63	127
355.9727437641723	356.0772335600907	61	127
356.0772335600907	356.21655328798187	60	127
356.2397732426304	356.3442630385488	58	127
356.2397732426304	357.1801587301587	65	127
356.2397732426304	357.1801587301587	61	127
356.3442630385488	356.50680272108843	60	127
356.50680272108843	356.6577324263039	58	127
356.6577324263039	356.78544217687073	60	127
356.78544217687073	356.91315192743764	58	127
356.91315192743764	357.0292517006803	60	127
357.0292517006803	357.1801587301587	58	127
357.1801587301587	357.4356009070295	60	127
357.44721088435375	358.5501587301587	72	127
357.44721088435375	358.5501587301587	55	127
357.44721088435375	358.5501587301587	64	127
357.44721088435375	357.8071201814059	48	127
357.8071201814059	357.9232199546485	49	127
357.9232199546485	358.0625396825397	48	127
358.0625396825397	358.17863945578233	49	127
358.17863945578233	358.29473922902497	48	127
358.29473922902497	358.4224489795918	49	127
358.4224489795918	358.5501587301587	48	127
358.5501587301587	358.6894784580499	49	127
358.6894784580499	358.8404081632653	48	127
358.8404081632653	358.95650793650793	49	127
358.95650793650793	359.16548752834467	48	127
359.16548752834467	359.2815873015873	49	127
359.2815873015873	359.39768707482995	48	127
359.39768707482995	359.52539682539685	49	127
359.52539682539685	359.664716553288	48	127
359.664716553288	359.8736961451247	49	127
359.8736961451247	360.2336054421769	48	127
360.24519274376416	360.6863945578231	49	127
360.6863945578231	360.94181405895694	52	127
360.94181405895694	361.1739909297052	53	127
361.1739909297052	361.44104308390024	55	127
361.44104308390024	361.6848299319728	56	127
361.6848299319728	361.9518820861678	58	127
361.9518820861678	362.28854875283446	59	127
362.28854875283446	362.78780045351476	55	127
362.28854875283446	362.78780045351476	60	127
362.28854875283446	362.78780045351476	64	127
362.28854875283446	362.78780045351476	72	127
362.78780045351476	363.06643990929706	70	127
362.78780045351476	363.29863945578234	65	127
362.78780045351476	363.29863945578234	56	127
362.78780045351476	363.29863945578234	61	127
363.06643990929706	363.29863945578234	72	127
363.29863945578234	363.75142857142856	63	127
363.29863945578234	363.75142857142856	67	127
363.29863945578234	363.75142857142856	58	127
363.75142857142856	364.25065759637187	70	127
363.75142857142856	364.25065759637187	65	127
363.75142857142856	364.25065759637187	56	127
363.75142857142856	364.25065759637187	61	127
364.25065759637187	364.48285714285714	60	127
364.25065759637187	364.64537414965986	72	127
364.25065759637187	364.64537414965986	64	127
364.25065759637187	364.64537414965986	48	127
364.25065759637187	364.64537414965986	55	127
364.4944671201814	364.7266666666667	61	127
364.7266666666667	364.9936961451247	64	127
364.9936961451247	365.2839455782313	65	127
365.2839455782313	365.5277551020408	67	127
365.5277551020408	365.92249433106576	68	127
365.92249433106576	366.1663038548753	70	127
366.1663038548753	366.4913832199546	71	127
366.4913832199546	366.990589569161	84	127
366.4913832199546	366.990589569161	76	127
366.4913832199546	366.990589569161	79	127
366.4913832199546	366.990589569161	72	127
366.990589569161	367.2344217687075	82	127
366.990589569161	367.46662131519275	70	127
366.990589569161	367.46662131519275	73	127
366.990589569161	367.46662131519275	77	127
367.2344217687075	367.46662131519275	84	127
367.46662131519275	367.9890702947846	71	127
367.46662131519275	367.9890702947846	79	127
367.46662131519275	367.9890702947846	74	127
367.46662131519275	367.9890702947846	67	127
367.9890702947846	368.47668934240363	82	127
367.9890702947846	368.47668934240363	73	127
367.9890702947846	368.47668934240363	77	127
367.9890702947846	368.47668934240363	70	127
368.47668934240363	368.96430839002267	79	127
368.47668934240363	368.7204988662132	84	127
368.47668934240363	368.96430839002267	76	127
368.47668934240363	368.96430839002267	72	127
368.7204988662132	368.9526984126984	82	127
368.96430839002267	369.2081179138322	82	127
368.96430839002267	369.47514739229024	73	127
368.96430839002267	369.47514739229024	77	127
368.96430839002267	369.47514739229024	70	127
369.2081179138322	369.47514739229024	84	127
369.47514739229024	369.9975963718821	71	127
369.47514739229024	369.9975963718821	79	127
369.47514739229024	369.9975963718821	74	127
369.47514739229024	369.9975963718821	67	127
369.9975963718821	370.46199546485263	82	127
369.9975963718821	370.46199546485263	73	127
369.9975963718821	370.46199546485263	77	127
369.9975963718821	370.46199546485263	70	127
370.55487528344673	371.05410430839004	84	127
370.55487528344673	371.05410430839004	76	127
370.55487528344673	371.05410430839004	79	127
370.55487528344673	371.05410430839004	72	127
371.05410430839004	371.27469387755104	82	127
371.05410430839004	371.50689342403626	73	127
371.05410430839004	371.50689342403626	77	127
371.05410430839004	371.50689342403626	70	127
371.27469387755104	371.50689342403626	84	127
371.50689342403626	371.95968253968255	67	127
371.50689342403626	371.95968253968255	79	127
371.50689342403626	371.95968253968255	71	127
371.50689342403626	371.95968253968255	74	127
371.95968253968255	372.42408163265304	73	127
371.95968253968255	372.18027210884355	77	127
371.95968253968255	372.42408163265304	70	127
371.95968253968255	372.42408163265304	65	127
372.18027210884355	372.42408163265304	79	127
372.42408163265304	372.9697505668934	64	127
372.42408163265304	372.9697505668934	72	127
372.42408163265304	372.9697505668934	67	127
372.42408163265304	372.9697505668934	60	127
372.9697505668934	373.480589569161	58	127
372.9697505668934	373.2019501133787	70	127
372.9697505668934	373.480589569161	61	127
372.9697505668934	373.480589569161	65	127
373.2019501133787	373.480589569161	72	127
373.480589569161	373.96820861678003	67	127
373.480589569161	373.96820861678003	59	127
373.480589569161	373.96820861678003	62	127
373.480589569161	373.96820861678003	55	127
373.96820861678003	374.2004081632653	65	127
373.96820861678003	374.46743764172334	58	127
373.96820861678003	374.46743764172334	61	127
373.96820861678003	374.46743764172334	53	127
374.2004081632653	374.53709750566895	67	127
374.5487074829932	376.0928117913832	58	127
374.5487074829932	374.7344671201814	69	127
374.5487074829932	374.81573696145125	62	127
374.5487074829932	376.0928117913832	62	127
374.81573696145125	375.024716553288	69	127
375.09437641723355	375.26852607709753	69	127
375.3265759637188	375.4891156462585	69	127
375.57038548752837	375.7445351473923	69	127
375.8258049886621	375.90707482993196	69	127
376.0928117913832	376.2437641723356	67	127
376.0928117913832	376.4759637188209	61	127
376.2437641723356	376.39467120181405	69	127
376.39467120181405	376.54562358276644	70	127
376.54562358276644	378.1013605442177	62	127
376.54562358276644	376.70814058956915	69	127
376.54562358276644	378.1013605442177	58	127
376.80104308390025	376.9751927437642	69	127
377.0332426303855	377.1957823129252	69	127
377.26544217687075	377.45120181405895	69	127
377.5092517006803	377.7414512471655	69	127
377.81111111111113	377.89238095238096	69	127
378.1013605442177	378.2755102040816	67	127
378.1013605442177	378.49609977324263	61	127
378.2755102040816	378.4264399092971	69	127
378.4264399092971	378.5657596371882	70	127
378.57736961451246	379.58743764172334	58	127
378.57736961451246	378.7399092970522	69	127
378.57736961451246	379.58743764172334	62	127
378.79795918367347	378.9721088435374	69	127
379.1114285714286	379.262335600907	69	127
379.3320181405896	379.5177777777778	69	127
379.58743764172334	380.57428571428574	60	127
379.58743764172334	379.7848072562358	69	127
379.58743764172334	380.57428571428574	64	127
379.8544671201814	380.0402267573696	69	127
380.0982766439909	380.28401360544217	69	127
380.365306122449	380.43496598639456	69	127
380.57428571428574	380.7948752834467	69	127
380.57428571428574	381.1431746031746	58	127
380.57428571428574	381.1431746031746	62	127
380.84131519274376	381.1083446712018	69	127
381.1431746031746	381.4102040816326	69	127
381.1431746031746	381.61918367346937	60	127
381.1431746031746	381.61918367346937	64	127
381.44503401360544	381.6772335600907	69	127
381.71206349206346	382.22290249433104	69	127
382.2693424036281	382.6292517006803	69	127
382.6756916099773	383.0007709750567	69	127
383.0472108843537	383.3722902494331	69	127
383.43034013605444	383.98761904761903	57	127
383.43034013605444	383.61609977324264	69	127
383.43034013605444	383.98761904761903	81	127
383.61609977324264	383.720589569161	65	127
383.720589569161	383.83668934240364	69	127
383.83668934240364	383.98761904761903	65	127
383.98761904761903	385.46208616780046	64	127
383.98761904761903	384.2546485260771	69	127
383.98761904761903	385.46208616780046	88	127
384.2546485260771	384.3707482993197	65	127
384.3707482993197	384.4984580498866	69	127
384.4984580498866	384.6261678004535	65	127
384.6261678004535	384.9976870748299	69	127
384.9976870748299	385.1718367346939	65	127
385.1718367346939	385.28793650793654	69	127
385.28793650793654	385.46208616780046	65	127
385.46208616780046	385.5781859410431	69	127
385.46208616780046	385.6710657596372	86	127
385.46208616780046	385.6710657596372	62	127
385.5781859410431	385.78716553287984	65	127
385.6710657596372	385.8568253968254	64	127
385.6710657596372	385.8568253968254	88	127
385.78716553287984	385.9032653061224	69	127
385.8568253968254	386.06580498866214	65	127
385.8568253968254	386.06580498866214	89	127
385.9032653061224	386.06580498866214	65	127
386.06580498866214	386.59986394557825	64	127
386.06580498866214	386.1819047619048	69	127
386.06580498866214	386.59986394557825	88	127
386.1819047619048	386.2980045351474	65	127
386.2980045351474	386.43732426303853	69	127
386.43732426303853	386.59986394557825	65	127
386.59986394557825	386.91333333333336	86	127
386.59986394557825	386.7624036281179	69	127
386.59986394557825	386.91333333333336	62	127
386.7624036281179	386.91333333333336	65	127
386.91333333333336	387.296462585034	60	127
386.91333333333336	387.0410430839002	69	127
386.91333333333336	387.296462585034	84	127
387.0410430839002	387.296462585034	65	127
387.296462585034	387.87696145124715	58	127
387.296462585034	387.41256235827666	69	127
387.296462585034	387.87696145124715	82	127
387.41256235827666	387.56349206349205	65	127
387.56349206349205	387.7144217687075	69	127
387.7144217687075	387.8653514739229	65	127
387.87696145124715	388.29492063492063	84	127
387.87696145124715	388.00467120181406	67	127
387.87696145124715	388.29492063492063	60	127
388.00467120181406	388.29492063492063	64	127
388.29492063492063	388.5851700680272	62	127
388.29492063492063	388.42263038548754	67	127
388.29492063492063	388.5851700680272	86	127
388.42263038548754	388.5851700680272	64	127
388.5851700680272	390.48920634920637	64	127
388.5851700680272	388.7709297052154	69	127
388.5851700680272	390.48920634920637	88	127
388.7709297052154	388.88702947845803	65	127
388.88702947845803	389.01473922902494	69	127
389.01473922902494	389.14244897959185	65	127
389.14244897959185	389.32820861678005	69	127
389.32820861678005	389.5604081632653	65	127
389.5604081632653	389.6648979591837	69	127
389.6648979591837	389.8158276643991	65	127
389.8158276643991	390.0015873015873	69	127
390.0015873015873	390.1525170068027	65	127
390.1525170068027	390.26861678004536	69	127
390.26861678004536	390.48920634920637	65	127
390.48920634920637	390.6981859410431	86	127
390.48920634920637	390.64013605442176	69	127
390.48920634920637	390.6981859410431	62	127
390.64013605442176	390.82589569160996	65	127
390.6981859410431	390.8955555555556	88	127
390.6981859410431	390.8955555555556	64	127
390.82589569160996	390.9419954648526	69	127
390.8955555555556	391.0813151927438	89	127
390.8955555555556	391.0813151927438	65	127
390.9419954648526	391.0697052154195	65	127
391.0813151927438	391.63859410430837	64	127
391.0813151927438	391.2090249433107	69	127
391.0813151927438	391.63859410430837	88	127
391.2090249433107	391.35995464852607	65	127
391.35995464852607	391.49927437641725	69	127
391.49927437641725	391.63859410430837	65	127
391.63859410430837	391.9172335600907	62	127
391.63859410430837	391.754693877551	69	127
391.63859410430837	391.9172335600907	86	127
391.754693877551	391.9172335600907	65	127
391.9172335600907	392.0449433106576	69	127
391.9172335600907	392.3932426303855	84	127
391.9172335600907	392.3932426303855	60	127
392.0449433106576	392.3932426303855	65	127
392.3932426303855	392.8808616780045	82	127
392.3932426303855	392.5093424036281	69	127
392.3932426303855	392.8808616780045	58	127
392.5093424036281	392.6138321995465	65	127
392.6138321995465	392.7415419501134	69	127
392.7415419501134	392.8808616780045	65	127
392.8808616780045	393.1478911564626	84	127
392.8808616780045	392.99696145124716	67	127
392.8808616780045	393.1478911564626	60	127
392.99696145124716	393.1478911564626	64	127
393.1478911564626	393.4729705215419	62	127
393.1478911564626	393.2639909297052	67	127
393.1478911564626	393.4729705215419	86	127
393.2639909297052	393.4729705215419	64	127
393.4729705215419	395.1448072562358	62	127
393.4729705215419	393.6587301587302	67	127
393.4729705215419	395.1448072562358	86	127
393.6587301587302	393.9257596371882	63	127
393.9257596371882	394.0650793650794	67	127
394.0650793650794	394.2043990929705	63	127
394.2043990929705	394.35532879818595	67	127
394.35532879818595	394.4714285714286	63	127
394.4714285714286	394.5875283446712	67	127
394.5875283446712	394.8661678004535	63	127
394.8661678004535	394.98226757369616	67	127
394.98226757369616	395.1448072562358	63	127
395.1448072562358	395.26090702947846	67	127
395.1448072562358	395.40022675736964	82	127
395.1448072562358	395.40022675736964	58	127
395.26090702947846	395.40022675736964	63	127
395.40022675736964	395.71369614512474	84	127
395.40022675736964	395.5163265306122	67	127
395.40022675736964	395.71369614512474	60	127
395.5163265306122	395.71369614512474	63	127
395.71369614512474	396.13165532879816	62	127
395.71369614512474	395.8414058956916	67	127
395.71369614512474	396.13165532879816	86	127
395.8414058956916	396.12004535147395	63	127
396.13165532879816	396.2477551020408	67	127
396.13165532879816	396.5960544217687	86	127
396.13165532879816	396.5960544217687	62	127
396.2477551020408	396.36385487528344	63	127
396.36385487528344	396.4799546485261	67	127
396.4799546485261	396.5960544217687	63	127
396.5960544217687	396.828253968254	67	127
396.5960544217687	396.93274376417236	82	127
396.5960544217687	396.93274376417236	58	127
396.828253968254	396.93274376417236	63	127
396.93274376417236	397.26943310657595	81	127
396.93274376417236	397.0604535147392	67	127
396.93274376417236	397.26943310657595	57	127
397.0604535147392	397.26943310657595	63	127
397.26943310657595	397.3855328798186	67	127
397.26943310657595	397.80349206349206	77	127
397.26943310657595	397.80349206349206	53	127
397.3855328798186	397.58290249433105	63	127
397.58290249433105	397.6873922902494	67	127
397.6873922902494	397.80349206349206	63	127
397.80349206349206	398.44204081632654	79	127
397.80349206349206	397.9195918367347	67	127
397.80349206349206	398.44204081632654	55	127
397.9195918367347	398.12857142857143	63	127
398.12857142857143	398.30272108843536	67	127
398.30272108843536	398.44204081632654	63	127
398.44204081632654	400.2648072562358	81	127
398.44204081632654	398.80195011337867	59	127
398.44204081632654	400.2648072562358	57	127
398.80195011337867	398.9180498866213	65	127
398.9180498866213	399.03414965986394	69	127
399.03414965986394	399.1386394557823	77	127
399.1502494331066	399.25473922902495	77	127
399.25473922902495	399.3708390022676	69	127
399.3708390022676	399.4869387755102	65	127
399.4869387755102	399.78879818594106	59	127
400.0442176870748	400.1487074829932	59	127
400.1487074829932	400.2648072562358	65	127
400.2648072562358	400.4621768707483	69	127
400.2648072562358	400.5898866213152	53	127
400.2648072562358	400.5898866213152	77	127
400.4621768707483	400.57827664399093	77	127
400.5898866213152	400.8104761904762	55	127
400.5898866213152	400.70598639455784	77	127
400.5898866213152	400.8104761904762	79	127
400.70598639455784	400.8104761904762	69	127
400.8104761904762	400.92657596371885	65	127
400.8104761904762	401.26326530612243	81	127
400.8104761904762	401.26326530612243	57	127
400.92657596371885	401.26326530612243	59	127
401.26326530612243	403.2601814058957	81	127
401.26326530612243	401.39097505668934	58	127
401.26326530612243	402.435873015873	57	127
401.39097505668934	401.5883446712018	65	127
401.5883446712018	401.9366439909297	69	127
401.9366439909297	402.05274376417236	77	127
402.05274376417236	402.1804535147392	77	127
402.1804535147392	402.3081632653061	69	127
402.3081632653061	402.435873015873	65	127
402.435873015873	402.6332426303855	58	127
402.6332426303855	402.7609523809524	58	127
402.7609523809524	402.88866213151925	65	127
402.88866213151925	403.1324716553288	69	127
403.1324716553288	403.24857142857144	77	127
403.2601814058957	403.38789115646256	77	127
403.2601814058957	403.7245804988662	76	127
403.38789115646256	403.52721088435374	69	127
403.52721088435374	403.6781405895692	65	127
403.6781405895692	403.8522902494331	58	127
403.8522902494331	404.46761904761905	60	127
403.8522902494331	405.8492063492063	79	127
403.8522902494331	403.9916099773243	69	127
403.9916099773243	404.11931972789114	65	127
404.11931972789114	404.2586394557823	69	127
404.2586394557823	404.46761904761905	65	127
404.46761904761905	405.8492063492063	63	127
404.46761904761905	404.65337868480725	69	127
404.65337868480725	404.8275283446712	65	127
404.8275283446712	404.9900680272109	69	127
404.9900680272109	405.1177777777778	65	127
405.1177777777778	405.28031746031746	69	127
405.28031746031746	405.40802721088437	65	127
405.40802721088437	405.69827664399094	69	127
405.69827664399094	405.8492063492063	65	127
405.8492063492063	406.0001360544218	69	127
405.8492063492063	406.0465759637188	62	127
405.8492063492063	406.4413151927438	77	127
406.0001360544218	406.13945578231295	65	127
406.0465759637188	406.23233560090705	63	127
406.13945578231295	406.27877551020407	69	127
406.23233560090705	406.4413151927438	65	127
406.27877551020407	406.4413151927438	65	127
406.4413151927438	407.05664399092973	63	127
406.4413151927438	406.5806349206349	69	127
406.4413151927438	407.05664399092973	72	127
406.5806349206349	406.7547845804989	65	127
406.7547845804989	406.89410430839	69	127
406.89410430839	407.05664399092973	65	127
407.05664399092973	407.35850340136057	62	127
407.05664399092973	407.1727437641723	69	127
407.05664399092973	408.10154195011336	69	127
407.1727437641723	407.35850340136057	65	127
407.35850340136057	407.47460317460315	69	127
407.35850340136057	407.6255328798186	60	127
407.47460317460315	407.6255328798186	65	127
407.6255328798186	407.76485260770977	69	127
407.6255328798186	408.2640816326531	58	127
407.76485260770977	407.9041723356009	65	127
407.9041723356009	408.10154195011336	69	127
408.10154195011336	408.2640816326531	65	127
408.2640816326531	408.54272108843537	60	127
408.2640816326531	408.41501133786846	67	127
408.2640816326531	409.2160997732426	67	127
408.41501133786846	408.54272108843537	63	127
408.54272108843537	408.99551020408165	67	127
408.54272108843537	409.2160997732426	62	127
408.99551020408165	409.2160997732426	63	127
409.2160997732426	411.09691609977324	79	127
409.2160997732426	409.36702947845805	69	127
409.2160997732426	411.09691609977324	63	127
409.36702947845805	409.49473922902496	65	127
409.49473922902496	409.6108390022676	69	127
409.6108390022676	409.7269387755102	65	127
409.7269387755102	409.90108843537416	69	127
409.90108843537416	410.0171882086168	65	127
410.0171882086168	410.1332879818594	69	127
410.1332879818594	410.2958276643991	65	127
410.2958276643991	410.4351473922903	69	127
410.4351473922903	410.7021768707483	65	127
410.7021768707483	410.8298866213152	69	127
410.8298866213152	411.09691609977324	65	127
411.09691609977324	411.68902494331064	77	127
411.09691609977324	411.2594557823129	69	127
411.09691609977324	411.30589569161	62	127
411.2594557823129	411.3871655328798	65	127
411.30589569161	411.4800453514739	63	127
411.3871655328798	411.5148752834467	69	127
411.4800453514739	411.68902494331064	65	127
411.5148752834467	411.68902494331064	65	127
411.68902494331064	412.31596371882085	63	127
411.68902494331064	411.8283446712018	69	127
411.68902494331064	412.31596371882085	72	127
411.8283446712018	411.9560544217687	65	127
411.9560544217687	412.07215419501136	69	127
412.07215419501136	412.31596371882085	65	127
412.31596371882085	412.6062131519274	62	127
412.31596371882085	412.45528344671203	69	127
412.31596371882085	413.44213151927437	69	127
412.45528344671203	412.6062131519274	65	127
412.6062131519274	412.896462585034	60	127
412.6062131519274	412.72231292517006	69	127
412.72231292517006	412.896462585034	65	127
412.896462585034	413.12866213151926	69	127
412.896462585034	413.6046712018141	58	127
413.12866213151926	413.2447619047619	65	127
413.2447619047619	413.44213151927437	69	127
413.44213151927437	413.6046712018141	65	127
413.6046712018141	413.8717006802721	67	127
413.6046712018141	414.1619501133787	60	127
413.6046712018141	414.4173696145125	67	127
413.8717006802721	414.1619501133787	63	127
414.1619501133787	414.2780498866213	67	127
414.1619501133787	414.4173696145125	62	127
414.2780498866213	414.4173696145125	63	127
414.4173696145125	416.57682539682537	63	127
414.4173696145125	414.881768707483	69	127
414.4173696145125	416.692925170068	79	127
414.881768707483	414.99786848072563	65	127
414.99786848072563	415.11396825396827	69	127
415.11396825396827	415.35777777777776	65	127
415.35777777777776	415.48548752834466	69	127
415.48548752834466	415.7409070294785	65	127
415.7409070294785	415.90344671201814	69	127
415.90344671201814	416.08920634920634	65	127
416.08920634920634	416.25174603174605	69	127
416.25174603174605	416.4607256235828	65	127
416.4607256235828	416.57682539682537	69	127
416.57682539682537	416.692925170068	65	127
416.692925170068	416.8206349206349	69	127
416.692925170068	416.8554648526077	62	127
416.692925170068	417.25020408163266	77	127
416.8206349206349	416.93673469387755	65	127
416.8554648526077	417.0180045351474	63	127
416.93673469387755	417.0528344671202	69	127
417.0180045351474	417.25020408163266	65	127
417.0528344671202	417.25020408163266	65	127
417.25020408163266	418.8291609977324	79	127
417.25020408163266	417.37791383219957	69	127
417.25020408163266	419.3051700680272	63	127
417.37791383219957	417.5404535147392	65	127
417.5404535147392	417.65655328798186	69	127
417.65655328798186	417.8190929705215	65	127
417.8190929705215	417.97002267573697	69	127
417.97002267573697	418.20222222222225	65	127
418.20222222222225	418.3183219954648	69	127
418.3183219954648	418.8291609977324	65	127
418.8291609977324	419.43287981859413	77	127
418.8291609977324	419.01492063492066	69	127
419.01492063492066	419.1774603174603	65	127
419.1774603174603	419.3051700680272	69	127
419.3051700680272	419.43287981859413	65	127
419.43287981859413	419.5838095238095	62	127
419.43287981859413	419.5489795918367	69	127
419.43287981859413	420.93056689342404	79	127
419.5489795918367	419.7231292517007	65	127
419.5838095238095	419.83922902494334	63	127
419.7231292517007	419.8740589569161	69	127
419.83922902494334	420.1875283446712	65	127
419.8740589569161	420.1759183673469	65	127
420.1875283446712	422.47469387755103	63	127
420.1875283446712	430.021179138322	59	127
420.1875283446712	430.021179138322	49	127
420.93056689342404	421.9986848072562	65	127
421.9986848072562	423.357052154195	67	127
422.61401360544215	422.7997732426304	62	127
422.7997732426304	423.0435827664399	63	127
423.0435827664399	423.357052154195	65	127
423.357052154195	425.42362811791384	63	127
423.357052154195	424.0536507936508	65	127
424.0536507936508	425.55133786848074	67	127
425.55133786848074	428.22163265306125	68	127
425.55133786848074	425.77192743764175	62	127
425.77192743764175	425.9925170068027	63	127
425.9925170068027	426.1666666666667	65	127
426.1666666666667	428.8253514739229	63	127
428.22163265306125	430.021179138322	69	127
428.9762811791383	429.18526077097505	62	127
429.18526077097505	429.9631292517007	63	127
429.9631292517007	430.1604988662132	65	127
430.1604988662132	439.97092970521544	49	127
430.1604988662132	431.0544671201814	70	127
430.1604988662132	432.6450340136054	63	127
430.1604988662132	438.2178231292517	59	127
431.0544671201814	431.611746031746	68	127
431.611746031746	431.85555555555555	70	127
431.8671655328798	432.7843537414966	65	127
432.7843537414966	432.95850340136053	62	127
432.7843537414966	433.55061224489793	68	127
432.95850340136053	433.44612244897957	63	127
433.44612244897957	433.6434920634921	65	127
433.6434920634921	435.8261678004535	63	127
433.6434920634921	433.9221315192744	70	127
433.9221315192744	434.6883900226757	68	127
434.7	435.0482993197279	68	127
435.0482993197279	435.30371882086166	70	127
435.31532879818593	435.9654875283447	65	127
435.9654875283447	436.34861678004535	62	127
435.9654875283447	436.7433560090703	68	127
436.34861678004535	436.5459863945578	63	127
436.5459863945578	436.8594557823129	65	127
436.8594557823129	437.39351473922903	70	127
436.8594557823129	438.39197278911564	63	127
437.39351473922903	438.0320634920635	68	127
438.0320634920635	438.39197278911564	65	127
438.39197278911564	439.05374149659866	68	127
438.39197278911564	439.05374149659866	61	127
438.39197278911564	439.05374149659866	65	127
439.05374149659866	439.6806802721088	70	127
439.05374149659866	440.02897959183673	59	127
439.05374149659866	440.02897959183673	63	127
439.6806802721088	440.1334693877551	73	127
440.1334693877551	442.18843537414966	54	127
440.1334693877551	440.8648979591837	63	127
440.1334693877551	442.18843537414966	70	127
440.1334693877551	442.96630385487526	47	127
440.1334693877551	442.072335600907	75	127
440.8648979591837	441.364126984127	61	127
441.364126984127	441.6659863945578	63	127
441.6659863945578	442.18843537414966	58	127
442.18843537414966	442.7573242630385	73	127
442.18843537414966	443.0011337868481	56	127
442.18843537414966	443.0011337868481	68	127
442.18843537414966	443.0011337868481	53	127
442.7573242630385	442.91986394557824	75	127
442.91986394557824	443.0824036281179	77	127
443.09401360544217	445.0793197278912	75	127
443.09401360544217	443.4887528344671	63	127
443.09401360544217	445.2186394557823	70	127
443.09401360544217	445.2186394557823	54	127
443.09401360544217	445.96167800453514	47	127
443.4887528344671	443.8022222222222	61	127
443.8138321995465	444.0924716553288	61	127
444.0924716553288	444.58009070294787	63	127
444.5917006802721	445.2186394557823	58	127
445.2186394557823	446.0081179138322	56	127
445.2186394557823	445.74108843537414	73	127
445.2186394557823	446.0081179138322	53	127
445.2186394557823	446.0081179138322	68	127
445.74108843537414	445.92684807256234	75	127
445.92684807256234	446.08938775510205	77	127
446.08938775510205	447.58707482993196	63	127
446.08938775510205	446.8556462585034	75	127
446.08938775510205	447.58707482993196	70	127
446.08938775510205	447.58707482993196	54	127
446.08938775510205	448.736462585034	47	127
446.8556462585034	447.2503854875283	73	127
447.2503854875283	447.58707482993196	71	127
447.58707482993196	448.736462585034	68	127
447.58707482993196	448.248843537415	73	127
447.58707482993196	448.736462585034	61	127
447.58707482993196	448.736462585034	53	127
448.248843537415	448.53909297052155	75	127
448.53909297052155	449.53755102040816	77	127
449.53755102040816	452.48648526077096	45	127
449.53755102040816	450.1180498866213	78	127
449.53755102040816	452.48648526077096	61	127
449.53755102040816	450.86108843537414	66	127
449.53755102040816	452.48648526077096	52	127
450.1180498866213	450.5708390022676	76	127
450.5708390022676	450.86108843537414	73	127
450.86108843537414	451.6389569160998	68	127
450.86108843537414	451.6389569160998	76	127
451.6389569160998	452.3355555555556	78	127
451.6389569160998	452.52131519274377	66	127
452.3355555555556	452.66063492063495	81	127
452.66063492063495	457.21174603174603	59	127
452.66063492063495	453.2295238095238	85	127
452.66063492063495	455.12195011337866	65	127
452.66063492063495	457.21174603174603	43	127
452.66063492063495	457.21174603174603	50	127
453.2295238095238	454.85492063492063	83	127
454.85492063492063	455.12195011337866	81	127
455.12195011337866	455.9578684807256	67	127
455.12195011337866	455.9578684807256	83	127
455.9578684807256	457.3162358276644	65	127
455.9578684807256	456.42226757369616	85	127
456.42226757369616	457.4555555555556	89	127
457.4555555555556	460.4277097505669	41	127
457.4555555555556	460.4277097505669	48	127
457.4555555555556	460.9269387755102	69	127
457.4555555555556	458.1753741496599	91	127
457.4555555555556	458.1753741496599	59	127
457.4555555555556	460.9269387755102	57	127
458.1753741496599	460.24195011337866	89	127
458.1753741496599	460.4857596371882	60	127
460.24195011337866	460.5786394557823	91	127
460.5902494331066	462.7148752834467	61	127
460.5902494331066	461.4958276643991	84	127
460.5902494331066	462.7148752834467	39	127
460.5902494331066	462.7148752834467	46	127
460.9385487528345	462.0763265306122	67	127
460.9385487528345	462.0763265306122	55	127
461.4958276643991	462.947074829932	82	127
462.0763265306122	462.5639455782313	69	127
462.0763265306122	462.5639455782313	57	127
462.5639455782313	463.09800453514737	58	127
462.5639455782313	463.09800453514737	70	127
463.09800453514737	466.31396825396826	69	127
463.09800453514737	464.64213151927436	91	127
463.09800453514737	465.7915192743764	41	127
463.09800453514737	465.7915192743764	48	127
463.09800453514737	466.31396825396826	57	127
463.09800453514737	465.7915192743764	60	127
464.64213151927436	465.0252607709751	89	127
465.0368707482993	465.4432199546485	89	127
465.4432199546485	465.95405895691607	91	127
465.96566893424034	468.39215419501136	39	127
465.96566893424034	467.2892063492063	84	127
465.96566893424034	468.39215419501136	61	127
465.96566893424034	468.39215419501136	46	127
466.31396825396826	467.6839455782313	67	127
466.31396825396826	467.6839455782313	55	127
467.2892063492063	468.4734240362812	82	127
467.6839455782313	468.33410430839	69	127
467.6839455782313	468.33410430839	57	127
468.33410430839	468.8681632653061	58	127
468.33410430839	468.8681632653061	70	127
468.8797732426304	470.9231292517007	91	127
468.8797732426304	471.5500680272109	57	127
468.8797732426304	471.5500680272109	69	127
468.8797732426304	471.5500680272109	60	127
468.8797732426304	471.5500680272109	41	127
468.8797732426304	471.5500680272109	48	127
470.9231292517007	471.74743764172337	89	127
471.74743764172337	472.43242630385487	81	127
472.5833560090703	474.6267120181406	81	127
472.5833560090703	480.0601814058957	62	127
474.6267120181406	478.34190476190474	79	127
478.34190476190474	480.118231292517	81	127
480.2575510204082	490.3698412698413	77	127
480.2575510204082	490.3698412698413	84	127
480.2575510204082	490.3698412698413	69	127
