# onset,offset,note,velocity
10.285668934240363	10.30888888888889	64	127
10.30888888888889	10.343718820861678	66	127
10.343718820861678	10.401768707482994	64	127
10.401768707482994	10.424965986394557	66	127
10.424965986394557	10.471428571428572	64	127
10.471428571428572	10.529478458049887	66	127
10.529478458049887	10.587528344671203	64	127
10.587528344671203	10.622358276643991	66	127
10.622358276643991	10.668798185941043	64	127
10.668798185941043	10.715238095238096	66	127
10.715238095238096	10.761678004535147	64	127
10.761678004535147	10.819727891156463	66	127
10.819727891156463	10.877777777777778	64	127
10.877777777777778	10.92421768707483	66	127
10.92421768707483	10.982267573696145	64	127
10.982267573696145	11.04031746031746	66	127
11.04031746031746	11.086757369614512	64	127
11.086757369614512	11.144807256235827	66	127
11.144807256235827	11.202857142857143	64	127
11.202857142857143	11.249274376417233	66	127
11.249274376417233	11.30734693877551	64	127
11.30734693877551	11.365396825396825	66	127
11.365396825396825	11.411836734693878	64	127
11.411836734693878	11.469863945578231	66	127
11.469863945578231	11.527936507936507	76	127
11.527936507936507	11.562766439909296	78	127
11.562766439909296	11.585986394557823	76	127
11.585986394557823	11.644036281179138	78	127
11.644036281179138	11.702086167800454	76	127
11.702086167800454	11.736916099773243	78	127
11.736916099773243	11.794965986394558	76	127
11.794965986394558	11.853015873015874	78	127
11.853015873015874	11.899455782312925	76	127
11.899455782312925	11.95750566893424	78	127
11.95750566893424	12.015555555555556	76	127
12.015555555555556	12.061995464852608	78	127
12.061995464852608	12.120045351473923	76	127
12.120045351473923	12.178095238095239	78	127
12.178095238095239	12.22453514739229	76	127
12.22453514739229	12.282585034013605	78	127
12.282585034013605	12.34063492063492	76	127
12.34063492063492	12.387074829931972	78	127
12.387074829931972	12.445124716553288	76	127
12.445124716553288	12.503174603174603	78	127
12.503174603174603	12.549614512471654	76	127
12.549614512471654	12.60766439909297	78	127
12.60766439909297	12.665714285714285	76	127
12.665714285714285	12.712154195011339	78	127
12.712154195011339	12.770204081632652	88	127
12.770204081632652	12.828253968253968	90	127
12.828253968253968	12.886303854875283	88	127
12.886303854875283	12.932743764172336	90	127
12.932743764172336	12.99079365079365	88	127
12.99079365079365	13.048843537414966	90	127
13.048843537414966	13.095283446712019	88	127
13.095283446712019	13.130113378684808	90	127
13.130113378684808	13.176553287981859	88	127
13.176553287981859	13.188163265306123	90	127
13.188163265306123	13.211383219954648	90	127
13.211383219954648	13.269433106575963	88	127
13.269433106575963	13.315873015873017	90	127
13.315873015873017	13.37392290249433	88	127
13.37392290249433	13.431972789115646	90	127
13.431972789115646	13.478412698412699	88	127
13.478412698412699	13.536462585034014	90	127
13.536462585034014	13.617732426303855	88	127
13.617732426303855	13.664172335600908	90	127
13.664172335600908	13.722222222222221	88	127
13.722222222222221	13.780272108843537	90	127
13.780272108843537	13.838321995464852	88	127
13.838321995464852	13.884761904761906	90	127
13.884761904761906	13.94281179138322	88	127
13.94281179138322	14.000861678004535	90	127
14.000861678004535	14.047301587301588	88	127
14.047301587301588	14.105351473922903	90	127
14.105351473922903	14.163401360544217	88	127
14.163401360544217	14.20984126984127	90	127
14.20984126984127	14.267891156462586	88	127
14.267891156462586	14.3259410430839	90	127
14.3259410430839	14.372380952380952	88	127
14.372380952380952	14.430430839002268	90	127
14.430430839002268	14.488480725623583	88	127
14.488480725623583	14.534920634920635	90	127
14.534920634920635	14.59297052154195	88	127
14.59297052154195	14.639410430839002	90	127
14.651020408163266	14.755510204081633	56	127
14.651020408163266	14.755510204081633	64	127
14.651020408163266	15.080589569160997	88	127
14.755510204081633	14.86	68	127
14.755510204081633	14.86	61	127
14.86	14.97609977324263	70	127
14.86	14.97609977324263	64	127
14.97609977324263	15.080589569160997	68	127
14.97609977324263	15.080589569160997	61	127
15.080589569160997	15.196689342403628	56	127
15.080589569160997	15.196689342403628	64	127
15.080589569160997	15.521768707482993	87	127
15.196689342403628	15.301179138321995	68	127
15.196689342403628	15.301179138321995	61	127
15.301179138321995	15.405668934240364	64	127
15.301179138321995	15.405668934240364	70	127
15.405668934240364	15.51015873015873	61	127
15.405668934240364	15.51015873015873	68	127
15.521768707482993	15.66108843537415	85	127
15.521768707482993	15.62625850340136	64	127
15.521768707482993	15.62625850340136	56	127
15.62625850340136	15.730748299319728	61	127
15.62625850340136	15.730748299319728	68	127
15.66108843537415	15.812018140589569	87	127
15.730748299319728	15.835238095238095	70	127
15.730748299319728	15.835238095238095	64	127
15.812018140589569	15.939727891156462	88	127
15.835238095238095	15.939727891156462	68	127
15.835238095238095	15.939727891156462	61	127
15.939727891156462	16.00938775510204	58	127
15.939727891156462	16.00938775510204	66	127
15.939727891156462	16.334444444444443	90	127
16.00938775510204	16.11387755102041	61	127
16.00938775510204	16.11387755102041	68	127
16.12548752834467	16.22997732426304	66	127
16.12548752834467	16.22997732426304	70	127
16.22997732426304	16.322857142857142	68	127
16.22997732426304	16.322857142857142	61	127
16.334444444444443	16.72920634920635	85	127
16.334444444444443	16.438956916099773	66	127
16.334444444444443	16.438956916099773	58	127
16.438956916099773	16.53183673469388	68	127
16.438956916099773	16.53183673469388	61	127
16.53183673469388	16.636326530612244	66	127
16.53183673469388	16.636326530612244	70	127
16.636326530612244	16.72920634920635	68	127
16.636326530612244	16.72920634920635	61	127
16.72920634920635	17.054285714285715	90	127
16.72920634920635	16.822086167800453	66	127
16.72920634920635	16.822086167800453	58	127
16.822086167800453	16.926575963718822	68	127
16.822086167800453	16.926575963718822	61	127
16.938185941043084	17.007845804988662	70	127
16.938185941043084	17.007845804988662	66	127
17.007845804988662	17.054285714285715	68	127
17.007845804988662	17.054285714285715	61	127
17.054285714285715	17.472244897959182	88	127
17.054285714285715	17.170385487528346	64	127
17.054285714285715	17.170385487528346	56	127
17.170385487528346	17.26326530612245	68	127
17.170385487528346	17.26326530612245	61	127
17.26326530612245	17.367755102040817	70	127
17.26326530612245	17.367755102040817	64	127
17.367755102040817	17.46063492063492	68	127
17.367755102040817	17.46063492063492	61	127
17.472244897959182	17.87859410430839	87	127
17.472244897959182	17.56512471655329	64	127
17.472244897959182	17.56512471655329	56	127
17.56512471655329	17.669591836734693	68	127
17.56512471655329	17.669591836734693	61	127
17.68122448979592	17.785714285714285	70	127
17.68122448979592	17.785714285714285	64	127
17.785714285714285	17.87859410430839	68	127
17.785714285714285	17.87859410430839	61	127
17.87859410430839	17.95986394557823	64	127
17.87859410430839	17.95986394557823	56	127
17.87859410430839	17.994693877551022	85	127
17.95986394557823	18.0643537414966	68	127
17.95986394557823	18.0643537414966	61	127
17.994693877551022	18.075963718820862	87	127
18.0643537414966	18.11077097505669	70	127
18.0643537414966	18.11077097505669	64	127
18.075963718820862	18.215283446712018	88	127
18.11077097505669	18.203673469387756	68	127
18.11077097505669	18.203673469387756	61	127
18.215283446712018	19.271791383219956	80	127
18.215283446712018	18.319773242630387	64	127
18.215283446712018	18.319773242630387	56	127
18.319773242630387	18.42426303854875	66	127
18.319773242630387	18.42426303854875	62	127
18.42426303854875	18.540362811791383	64	127
18.42426303854875	18.540362811791383	71	127
18.540362811791383	18.621609977324262	66	127
18.540362811791383	18.621609977324262	62	127
18.621609977324262	18.737732426303854	64	127
18.621609977324262	18.737732426303854	56	127
18.737732426303854	18.842222222222222	66	127
18.737732426303854	18.842222222222222	62	127
18.842222222222222	18.94671201814059	71	127
18.842222222222222	18.94671201814059	64	127
18.94671201814059	19.051201814058956	66	127
18.94671201814059	19.051201814058956	62	127
19.062789115646257	19.1324716553288	64	127
19.062789115646257	19.1324716553288	56	127
19.1324716553288	19.225351473922903	66	127
19.1324716553288	19.225351473922903	62	127
19.225351473922903	19.271791383219956	71	127
19.225351473922903	19.271791383219956	64	127
19.271791383219956	19.37628117913832	66	127
19.271791383219956	19.37628117913832	62	127
19.37628117913832	19.817460317460316	64	127
19.37628117913832	19.48077097505669	76	127
19.37628117913832	19.48077097505669	68	127
19.48077097505669	19.59687074829932	80	127
19.48077097505669	19.59687074829932	73	127
19.59687074829932	19.701337868480724	82	127
19.59687074829932	19.701337868480724	76	127
19.701337868480724	19.805850340136054	80	127
19.701337868480724	19.805850340136054	73	127
19.817460317460316	20.223809523809525	63	127
19.817460317460316	19.921950113378685	76	127
19.817460317460316	19.921950113378685	68	127
19.921950113378685	20.026439909297054	80	127
19.921950113378685	20.026439909297054	73	127
20.026439909297054	20.14251700680272	82	127
20.026439909297054	20.14251700680272	76	127
20.14251700680272	20.223809523809525	80	127
20.14251700680272	20.223809523809525	73	127
20.223809523809525	20.28185941043084	68	127
20.223809523809525	20.28185941043084	76	127
20.223809523809525	20.316689342403627	61	127
20.28185941043084	20.397936507936507	73	127
20.28185941043084	20.397936507936507	80	127
20.316689342403627	20.455986394557822	63	127
20.397936507936507	20.47922902494331	82	127
20.397936507936507	20.47922902494331	76	127
20.455986394557822	20.583696145124716	64	127
20.47922902494331	20.583696145124716	80	127
20.47922902494331	20.583696145124716	73	127
20.583696145124716	20.990068027210885	66	127
20.583696145124716	20.699818594104308	78	127
20.583696145124716	20.699818594104308	70	127
20.699818594104308	20.804308390022676	80	127
20.699818594104308	20.804308390022676	73	127
20.804308390022676	20.908798185941045	82	127
20.804308390022676	20.908798185941045	78	127
20.908798185941045	20.990068027210885	80	127
20.908798185941045	20.990068027210885	73	127
20.990068027210885	21.39641723356009	61	127
20.990068027210885	21.09453514739229	78	127
20.990068027210885	21.09453514739229	70	127
21.09453514739229	21.19904761904762	80	127
21.09453514739229	21.19904761904762	73	127
21.21065759637188	21.291927437641725	82	127
21.21065759637188	21.291927437641725	78	127
21.291927437641725	21.39641723356009	80	127
21.291927437641725	21.39641723356009	73	127
21.39641723356009	21.51251700680272	78	127
21.39641723356009	21.51251700680272	70	127
21.39641723356009	21.709886621315192	66	127
21.51251700680272	21.61700680272109	80	127
21.51251700680272	21.61700680272109	73	127
21.61700680272109	21.663424036281178	82	127
21.61700680272109	21.663424036281178	78	127
21.663424036281178	21.767936507936508	73	127
21.663424036281178	21.767936507936508	80	127
21.77954648526077	21.88403628117914	68	127
21.77954648526077	22.17426303854875	64	127
21.77954648526077	21.88403628117914	76	127
21.88403628117914	21.988526077097507	80	127
21.88403628117914	21.988526077097507	73	127
22.00013605442177	22.093015873015872	82	127
22.00013605442177	22.093015873015872	76	127
22.093015873015872	22.17426303854875	80	127
22.093015873015872	22.17426303854875	73	127
22.17426303854875	22.56902494331066	63	127
22.17426303854875	22.26716553287982	76	127
22.17426303854875	22.26716553287982	68	127
22.26716553287982	22.34843537414966	73	127
22.26716553287982	22.34843537414966	80	127
22.34843537414966	22.452925170068028	76	127
22.34843537414966	22.452925170068028	82	127
22.452925170068028	22.557414965986396	73	127
22.452925170068028	22.557414965986396	80	127
22.56902494331066	22.66190476190476	61	127
22.56902494331066	22.6502947845805	76	127
22.56902494331066	22.6502947845805	68	127
22.6502947845805	22.73156462585034	73	127
22.6502947845805	22.73156462585034	80	127
22.66190476190476	22.789614512471655	63	127
22.73156462585034	22.824444444444445	82	127
22.73156462585034	22.824444444444445	76	127
22.789614512471655	22.917324263038548	64	127
22.824444444444445	22.917324263038548	80	127
22.824444444444445	22.917324263038548	73	127
22.917324263038548	23.03342403628118	68	127
22.917324263038548	23.03342403628118	76	127
22.917324263038548	24.07832199546485	56	127
23.03342403628118	23.12628117913832	74	127
23.03342403628118	23.12628117913832	78	127
23.137913832199548	23.242403628117913	83	127
23.137913832199548	23.242403628117913	76	127
23.242403628117913	23.34689342403628	78	127
23.242403628117913	23.34689342403628	74	127
23.358503401360544	23.462993197278912	76	127
23.358503401360544	23.462993197278912	68	127
23.462993197278912	23.555873015873015	78	127
23.462993197278912	23.555873015873015	74	127
23.555873015873015	23.64875283446712	83	127
23.555873015873015	23.64875283446712	76	127
23.64875283446712	23.753242630385486	78	127
23.64875283446712	23.753242630385486	74	127
23.753242630385486	23.857732426303855	76	127
23.753242630385486	23.857732426303855	68	127
23.857732426303855	23.962222222222223	78	127
23.857732426303855	23.962222222222223	74	127
23.973832199546486	24.07832199546485	83	127
23.973832199546486	24.07832199546485	76	127
24.07832199546485	24.18281179138322	78	127
24.07832199546485	24.18281179138322	74	127
24.18281179138322	24.612380952380953	56	127
24.18281179138322	24.229251700680273	76	127
24.18281179138322	24.391791383219953	76	127
24.229251700680273	24.287301587301588	73	127
24.287301587301588	24.345351473922904	76	127
24.345351473922904	24.391791383219953	73	127
24.391791383219953	24.44984126984127	76	127
24.44984126984127	24.507891156462584	73	127
24.507891156462584	24.554331065759637	76	127
24.554331065759637	24.612380952380953	73	127
24.612380952380953	24.94907029478458	54	127
24.612380952380953	24.64721088435374	76	127
24.612380952380953	24.64721088435374	64	127
24.64721088435374	24.693650793650793	73	127
24.64721088435374	24.693650793650793	61	127
24.693650793650793	24.75170068027211	76	127
24.693650793650793	24.75170068027211	64	127
24.75170068027211	24.809750566893424	61	127
24.75170068027211	24.809750566893424	73	127
24.809750566893424	24.856190476190477	76	127
24.809750566893424	24.856190476190477	64	127
24.856190476190477	24.914240362811793	61	127
24.856190476190477	24.914240362811793	73	127
24.914240362811793	24.972290249433108	76	127
24.914240362811793	24.972290249433108	64	127
24.972290249433108	25.018730158730158	61	127
24.972290249433108	25.018730158730158	73	127
25.018730158730158	25.192879818594104	76	127
25.018730158730158	25.076780045351473	64	127
25.018730158730158	25.16965986394558	52	127
25.076780045351473	25.13482993197279	61	127
25.13482993197279	25.16965986394558	64	127
25.16965986394558	25.262539682539682	54	127
25.16965986394558	25.192879818594104	61	127
25.192879818594104	25.25092970521542	64	127
25.25092970521542	25.297369614512473	61	127
25.262539682539682	25.401859410430838	56	127
25.297369614512473	25.355419501133788	64	127
25.355419501133788	25.413469387755104	61	127
25.413469387755104	25.6340589569161	64	127
25.413469387755104	25.51795918367347	61	127
25.51795918367347	25.645668934240362	56	127
25.645668934240362	25.75015873015873	61	127
25.75015873015873	25.854648526077096	56	127
25.854648526077096	25.970748299319727	63	127
25.970748299319727	26.063628117913833	58	127
26.063628117913833	26.156507936507936	63	127
26.156507936507936	26.249387755102042	58	127
26.260997732426304	26.365487528344673	61	127
26.365487528344673	26.458367346938775	56	127
26.458367346938775	26.574467120181406	61	127
26.574467120181406	26.67895691609977	56	127
26.67895691609977	27.027256235827664	68	127
26.67895691609977	26.760226757369615	88	127
26.760226757369615	26.841496598639456	85	127
26.841496598639456	26.945986394557824	88	127
26.945986394557824	27.027256235827664	85	127
27.027256235827664	27.131746031746033	88	127
27.027256235827664	27.131746031746033	76	127
27.027256235827664	27.38716553287982	66	127
27.131746031746033	27.236235827664398	73	127
27.131746031746033	27.236235827664398	85	127
27.236235827664398	27.35233560090703	88	127
27.236235827664398	27.35233560090703	76	127
27.35233560090703	27.456825396825398	85	127
27.35233560090703	27.456825396825398	73	127
27.456825396825398	27.642585034013607	88	127
27.456825396825398	27.561315192743763	76	127
27.456825396825398	27.607755102040816	64	127
27.561315192743763	27.642585034013607	73	127
27.607755102040816	27.677414965986394	66	127
27.642585034013607	27.712244897959184	76	127
27.677414965986394	27.81673469387755	68	127
27.712244897959184	27.828344671201815	73	127
27.828344671201815	27.874784580498865	73	127
27.828344671201815	27.96766439909297	76	127
27.874784580498865	27.96766439909297	68	127
27.96766439909297	28.083764172335602	73	127
28.083764172335602	28.188253968253967	68	127
28.188253968253967	28.292743764172336	75	127
28.292743764172336	28.408843537414967	70	127
28.408843537414967	28.50172335600907	75	127
28.50172335600907	28.606213151927438	70	127
28.606213151927438	28.710702947845807	73	127
28.710702947845807	28.81519274376417	68	127
28.81519274376417	28.88485260770975	73	127
28.88485260770975	28.977732426303856	68	127
28.977732426303856	29.40730158730159	80	127
28.977732426303856	29.08222222222222	76	127
29.08222222222222	29.18671201814059	73	127
29.198321995464852	29.30281179138322	64	127
29.30281179138322	29.40730158730159	73	127
29.40730158730159	29.778820861678003	78	127
29.40730158730159	29.523401360544216	76	127
29.523401360544216	29.627891156462585	73	127
29.627891156462585	29.732380952380954	64	127
29.732380952380954	29.83687074829932	73	127
29.84848072562358	29.98780045351474	76	127
29.84848072562358	29.95297052154195	76	127
29.95297052154195	30.05746031746032	73	127
29.98780045351474	30.13873015873016	78	127
30.06907029478458	30.17356009070295	64	127
30.13873015873016	30.278049886621314	80	127
30.17356009070295	30.278049886621314	73	127
30.278049886621314	30.579909297052154	85	127
30.278049886621314	30.347709750566892	75	127
30.278049886621314	30.382539682539683	66	127
30.347709750566892	30.440589569161	75	127
30.382539682539683	30.510249433106576	68	127
30.440589569161	30.545079365079363	73	127
30.510249433106576	30.661179138321994	70	127
30.545079365079363	30.649569160997732	73	127
30.661179138321994	31.02108843537415	76	127
30.661179138321994	30.765668934240363	70	127
30.661179138321994	30.80049886621315	76	127
30.765668934240363	30.87015873015873	70	127
30.80049886621315	30.951428571428572	78	127
30.87015873015873	30.974648526077097	75	127
30.951428571428572	31.067528344671203	80	127
30.98625850340136	31.067528344671203	75	127
31.067528344671203	31.415827664399092	85	127
31.067528344671203	31.172018140589568	73	127
31.067528344671203	31.21845804988662	66	127
31.183628117913834	31.264897959183674	73	127
31.21845804988662	31.346167800453514	68	127
31.276507936507937	31.380997732426305	70	127
31.346167800453514	31.48548752834467	70	127
31.380997732426305	31.473877551020408	70	127
31.48548752834467	31.740907029478457	76	127
31.48548752834467	31.531927437641723	75	127
31.48548752834467	31.555147392290248	76	127
31.531927437641723	31.613197278911564	75	127
31.555147392290248	31.67124716553288	78	127
31.613197278911564	31.694467120181407	73	127
31.67124716553288	31.810566893424035	80	127
31.70607709750567	31.810566893424035	73	127
31.810566893424035	32.1356462585034	85	127
31.810566893424035	31.90344671201814	70	127
31.810566893424035	31.93827664399093	66	127
31.90344671201814	31.996326530612244	70	127
31.93827664399093	32.07759637188209	68	127
32.007936507936506	32.10081632653061	75	127
32.07759637188209	32.20530612244898	70	127
32.10081632653061	32.20530612244898	75	127
32.20530612244898	32.3562358276644	76	127
32.20530612244898	32.54197278911565	76	127
32.20530612244898	32.30979591836735	73	127
32.32140589569161	32.40267573696145	73	127
32.3562358276644	32.47233560090703	78	127
32.40267573696145	32.495555555555555	70	127
32.47233560090703	32.611655328798186	80	127
32.50716553287982	32.611655328798186	70	127
32.611655328798186	32.97156462585034	85	127
32.611655328798186	32.716145124716554	74	127
32.611655328798186	32.75097505668934	64	127
32.716145124716554	32.82063492063492	74	127
32.75097505668934	32.90190476190476	66	127
32.832244897959185	32.936734693877554	73	127
32.90190476190476	33.04120181405896	68	127
32.936734693877554	33.04120181405896	73	127
33.04120181405896	33.366303854875284	74	127
33.04120181405896	33.12249433106576	73	127
33.04120181405896	33.15732426303855	76	127
33.12249433106576	33.215374149659866	73	127
33.15732426303855	33.28503401360544	78	127
33.215374149659866	33.319863945578234	71	127
33.28503401360544	33.435963718820865	80	127
33.319863945578234	33.42433106575964	71	127
33.435963718820865	33.77265306122449	85	127
33.435963718820865	33.54045351473923	74	127
33.435963718820865	33.57528344671202	64	127
33.54045351473923	33.63333333333333	74	127
33.57528344671202	33.702993197278914	66	127
33.63333333333333	33.7378231292517	73	127
33.702993197278914	33.84231292517007	68	127
33.7378231292517	33.84231292517007	73	127
33.84231292517007	34.16739229024943	74	127
33.84231292517007	33.93517006802721	73	127
33.84231292517007	33.9584126984127	76	127
33.94680272108844	34.028072562358275	73	127
33.9584126984127	34.09773242630386	78	127
34.028072562358275	34.132562358276644	71	127
34.09773242630386	34.23705215419501	80	127
34.132562358276644	34.22544217687075	71	127
34.23705215419501	34.34154195011338	74	127
34.23705215419501	34.59696145124717	85	127
34.23705215419501	34.37637188208617	64	127
34.34154195011338	34.446009070294785	74	127
34.37637188208617	34.52730158730159	66	127
34.446009070294785	34.55052154195011	73	127
34.52730158730159	34.66662131519274	68	127
34.562108843537416	34.66662131519274	73	127
34.66662131519274	35.014920634920635	74	127
34.66662131519274	34.77111111111111	73	127
34.66662131519274	34.8059410430839	76	127
34.78272108843537	34.87560090702948	73	127
34.8059410430839	34.945238095238096	78	127
34.87560090702948	34.98009070294785	71	127
34.945238095238096	35.08458049886622	80	127
34.98009070294785	35.08458049886622	71	127
35.09619047619048	35.14263038548753	80	127
35.09619047619048	35.14263038548753	85	127
35.09619047619048	35.14263038548753	77	127
35.14263038548753	35.20065759637188	80	127
35.14263038548753	35.20065759637188	85	127
35.14263038548753	35.20065759637188	77	127
35.20065759637188	35.2471201814059	80	127
35.20065759637188	35.2471201814059	85	127
35.20065759637188	35.2471201814059	77	127
35.25873015873016	35.29356009070295	80	127
35.25873015873016	35.29356009070295	85	127
35.25873015873016	35.29356009070295	77	127
35.29356009070295	35.351609977324266	80	127
35.29356009070295	35.351609977324266	85	127
35.29356009070295	35.351609977324266	77	127
35.351609977324266	35.398049886621315	80	127
35.351609977324266	35.398049886621315	85	127
35.351609977324266	35.398049886621315	77	127
35.40965986394558	35.45607709750567	80	127
35.40965986394558	35.45607709750567	85	127
35.40965986394558	35.45607709750567	77	127
35.45607709750567	35.514149659863946	80	127
35.45607709750567	35.514149659863946	85	127
35.45607709750567	35.514149659863946	77	127
35.514149659863946	35.560589569160996	83	127
35.514149659863946	35.560589569160996	80	127
35.514149659863946	35.560589569160996	75	127
35.57219954648526	35.618639455782315	75	127
35.57219954648526	35.618639455782315	83	127
35.57219954648526	35.618639455782315	80	127
35.618639455782315	35.665079365079364	80	127
35.618639455782315	35.665079365079364	83	127
35.618639455782315	35.665079365079364	75	127
35.665079365079364	35.69990929705215	80	127
35.665079365079364	35.69990929705215	83	127
35.665079365079364	35.69990929705215	75	127
35.71149659863946	35.75795918367347	80	127
35.71149659863946	35.75795918367347	83	127
35.71149659863946	35.75795918367347	75	127
35.75795918367347	35.81600907029478	80	127
35.75795918367347	35.81600907029478	83	127
35.75795918367347	35.81600907029478	75	127
35.81600907029478	35.86244897959184	80	127
35.81600907029478	35.86244897959184	83	127
35.81600907029478	35.86244897959184	75	127
35.8740589569161	35.92049886621315	80	127
35.8740589569161	35.92049886621315	83	127
35.8740589569161	35.92049886621315	75	127
35.932108843537414	35.97854875283447	75	127
35.932108843537414	35.97854875283447	80	127
35.932108843537414	35.97854875283447	71	127
35.97854875283447	36.02498866213152	75	127
35.97854875283447	36.02498866213152	80	127
35.97854875283447	36.02498866213152	71	127
36.03659863945578	36.083015873015874	75	127
36.03659863945578	36.083015873015874	80	127
36.03659863945578	36.083015873015874	71	127
36.09462585034014	36.14108843537415	75	127
36.09462585034014	36.14108843537415	80	127
36.09462585034014	36.14108843537415	71	127
36.14108843537415	36.19913832199546	71	127
36.14108843537415	36.19913832199546	80	127
36.14108843537415	36.19913832199546	75	127
36.19913832199546	36.24557823129252	75	127
36.19913832199546	36.24557823129252	80	127
36.19913832199546	36.24557823129252	71	127
36.25718820861678	36.28040816326531	80	127
36.25718820861678	36.28040816326531	75	127
36.25718820861678	36.28040816326531	71	127
36.28040816326531	36.33843537414966	71	127
36.28040816326531	36.33843537414966	80	127
36.28040816326531	36.33843537414966	75	127
36.33843537414966	36.384897959183675	68	127
36.33843537414966	36.384897959183675	73	127
36.33843537414966	36.384897959183675	65	127
36.39650793650794	36.44294784580499	68	127
36.39650793650794	36.44294784580499	73	127
36.39650793650794	36.44294784580499	65	127
36.44294784580499	36.500997732426306	68	127
36.44294784580499	36.500997732426306	73	127
36.44294784580499	36.500997732426306	65	127
36.500997732426306	36.547437641723356	68	127
36.500997732426306	36.547437641723356	73	127
36.500997732426306	36.547437641723356	65	127
36.55904761904762	36.60546485260771	68	127
36.55904761904762	36.60546485260771	73	127
36.55904761904762	36.60546485260771	65	127
36.60546485260771	36.66353741496599	68	127
36.60546485260771	36.66353741496599	73	127
36.60546485260771	36.66353741496599	65	127
36.66353741496599	36.709977324263036	68	127
36.66353741496599	36.709977324263036	73	127
36.66353741496599	36.709977324263036	65	127
36.72156462585034	36.75641723356009	68	127
36.72156462585034	36.75641723356009	73	127
36.72156462585034	36.75641723356009	65	127
36.75641723356009	36.80285714285714	68	127
36.75641723356009	36.80285714285714	71	127
36.75641723356009	36.80285714285714	63	127
36.80285714285714	36.849274376417235	68	127
36.80285714285714	36.849274376417235	71	127
36.80285714285714	36.849274376417235	63	127
36.86090702947846	36.90734693877551	68	127
36.86090702947846	36.90734693877551	71	127
36.86090702947846	36.90734693877551	63	127
36.90734693877551	36.9421768707483	71	127
36.90734693877551	36.9421768707483	68	127
36.90734693877551	36.9421768707483	63	127
36.9421768707483	36.988616780045355	71	127
36.9421768707483	36.988616780045355	68	127
36.9421768707483	36.988616780045355	63	127
37.00022675736962	37.05827664399093	63	127
37.00022675736962	37.05827664399093	71	127
37.00022675736962	37.05827664399093	68	127
37.06988662131519	37.11632653061225	68	127
37.06988662131519	37.11632653061225	71	127
37.06988662131519	37.11632653061225	63	127
37.11632653061225	37.1627664399093	68	127
37.11632653061225	37.1627664399093	71	127
37.11632653061225	37.1627664399093	63	127
37.17437641723356	37.22081632653061	63	127
37.17437641723356	37.22081632653061	68	127
37.17437641723356	37.22081632653061	59	127
37.232403628117915	37.255646258503404	63	127
37.232403628117915	37.255646258503404	68	127
37.232403628117915	37.255646258503404	59	127
37.255646258503404	37.313696145124716	63	127
37.255646258503404	37.313696145124716	68	127
37.255646258503404	37.313696145124716	59	127
37.313696145124716	37.33691609977324	63	127
37.313696145124716	37.33691609977324	68	127
37.313696145124716	37.33691609977324	59	127
37.3485260770975	37.39496598639456	63	127
37.3485260770975	37.39496598639456	68	127
37.3485260770975	37.39496598639456	59	127
37.39496598639456	37.42979591836735	63	127
37.39496598639456	37.42979591836735	68	127
37.39496598639456	37.42979591836735	59	127
37.42979591836735	37.464625850340134	63	127
37.42979591836735	37.464625850340134	68	127
37.42979591836735	37.464625850340134	59	127
37.4762358276644	37.52267573696145	63	127
37.4762358276644	37.52267573696145	68	127
37.4762358276644	37.52267573696145	59	127
37.52267573696145	37.580725623582765	61	127
37.52267573696145	37.580725623582765	56	127
37.52267573696145	37.580725623582765	53	127
37.580725623582765	37.62716553287982	61	127
37.580725623582765	37.62716553287982	56	127
37.580725623582765	37.62716553287982	53	127
37.638775510204084	37.685215419501134	61	127
37.638775510204084	37.685215419501134	56	127
37.638775510204084	37.685215419501134	53	127
37.685215419501134	37.74324263038549	61	127
37.685215419501134	37.74324263038549	56	127
37.685215419501134	37.74324263038549	53	127
37.74324263038549	37.7897052154195	61	127
37.74324263038549	37.7897052154195	56	127
37.74324263038549	37.7897052154195	53	127
37.801315192743765	37.847755102040814	61	127
37.801315192743765	37.847755102040814	56	127
37.801315192743765	37.847755102040814	53	127
37.847755102040814	37.90580498866213	61	127
37.847755102040814	37.90580498866213	56	127
37.847755102040814	37.90580498866213	53	127
37.90580498866213	37.95224489795918	61	127
37.90580498866213	37.95224489795918	56	127
37.90580498866213	37.95224489795918	53	127
37.963854875283445	37.998662131519275	59	127
37.963854875283445	37.998662131519275	56	127
37.963854875283445	37.998662131519275	51	127
37.998662131519275	38.04512471655329	59	127
37.998662131519275	38.04512471655329	56	127
37.998662131519275	38.04512471655329	51	127
38.04512471655329	38.068344671201814	59	127
38.04512471655329	38.068344671201814	56	127
38.04512471655329	38.068344671201814	51	127
38.079954648526076	38.12637188208617	59	127
38.079954648526076	38.12637188208617	56	127
38.079954648526076	38.12637188208617	51	127
38.12637188208617	38.184444444444445	59	127
38.12637188208617	38.184444444444445	56	127
38.12637188208617	38.184444444444445	51	127
38.184444444444445	38.230884353741494	59	127
38.184444444444445	38.230884353741494	56	127
38.184444444444445	38.230884353741494	51	127
38.230884353741494	38.27732426303855	59	127
38.230884353741494	38.27732426303855	56	127
38.230884353741494	38.27732426303855	51	127
38.28893424036281	38.33537414965986	59	127
38.28893424036281	38.33537414965986	56	127
38.28893424036281	38.33537414965986	51	127
38.33537414965986	38.39342403628118	56	127
38.33537414965986	38.39342403628118	51	127
38.39342403628118	38.43986394557823	56	127
38.39342403628118	38.43986394557823	51	127
38.451473922902494	38.497891156462586	56	127
38.451473922902494	38.497891156462586	51	127
38.497891156462586	38.55596371882086	56	127
38.497891156462586	38.55596371882086	51	127
38.55596371882086	38.60240362811791	56	127
38.55596371882086	38.60240362811791	51	127
38.614013605442175	38.66045351473923	56	127
38.614013605442175	38.66045351473923	51	127
38.66045351473923	38.71850340136054	56	127
38.66045351473923	38.71850340136054	51	127
38.71850340136054	38.7649433106576	56	127
38.71850340136054	38.7649433106576	51	127
38.77655328798186	38.82299319727891	61	127
38.77655328798186	38.82299319727891	56	127
38.77655328798186	38.82299319727891	53	127
38.82299319727891	38.881020408163266	61	127
38.82299319727891	38.881020408163266	56	127
38.82299319727891	38.881020408163266	53	127
38.881020408163266	38.92748299319728	61	127
38.881020408163266	38.92748299319728	56	127
38.881020408163266	38.92748299319728	53	127
38.93909297052154	38.98553287981859	61	127
38.93909297052154	38.98553287981859	56	127
38.93909297052154	38.98553287981859	53	127
38.98553287981859	39.04358276643991	61	127
38.98553287981859	39.04358276643991	56	127
38.98553287981859	39.04358276643991	53	127
39.04358276643991	39.0784126984127	61	127
39.04358276643991	39.0784126984127	56	127
39.04358276643991	39.0784126984127	53	127
39.09002267573696	39.13643990929705	61	127
39.09002267573696	39.13643990929705	56	127
39.09002267573696	39.13643990929705	53	127
39.13643990929705	39.18290249433107	61	127
39.13643990929705	39.18290249433107	56	127
39.13643990929705	39.18290249433107	53	127
39.18290249433107	39.217732426303854	63	127
39.18290249433107	39.217732426303854	59	127
39.18290249433107	39.217732426303854	56	127
39.22934240362812	39.27578231292517	63	127
39.22934240362812	39.27578231292517	59	127
39.22934240362812	39.27578231292517	56	127
39.27578231292517	39.333832199546485	63	127
39.27578231292517	39.333832199546485	59	127
39.27578231292517	39.333832199546485	56	127
39.333832199546485	39.380272108843535	63	127
39.333832199546485	39.380272108843535	59	127
39.333832199546485	39.380272108843535	56	127
39.39185941043084	39.438321995464854	63	127
39.39185941043084	39.438321995464854	59	127
39.39185941043084	39.438321995464854	56	127
39.449931972789116	39.4847619047619	63	127
39.449931972789116	39.4847619047619	59	127
39.449931972789116	39.4847619047619	56	127
39.4847619047619	39.50795918367347	63	127
39.4847619047619	39.50795918367347	59	127
39.4847619047619	39.50795918367347	56	127
39.51956916099773	39.56603174603175	63	127
39.51956916099773	39.56603174603175	59	127
39.51956916099773	39.56603174603175	56	127
39.56603174603175	39.57764172335601	63	127
39.56603174603175	39.57764172335601	59	127
39.56603174603175	39.57764172335601	56	127
39.57764172335601	39.635668934240364	63	127
39.57764172335601	39.635668934240364	59	127
39.57764172335601	39.635668934240364	56	127
39.635668934240364	39.68213151927438	63	127
39.635668934240364	39.68213151927438	59	127
39.635668934240364	39.68213151927438	56	127
39.69374149659864	39.74018140589569	63	127
39.69374149659864	39.74018140589569	59	127
39.69374149659864	39.74018140589569	56	127
39.74018140589569	39.79823129251701	63	127
39.74018140589569	39.79823129251701	59	127
39.74018140589569	39.79823129251701	56	127
39.79823129251701	39.84467120181406	63	127
39.79823129251701	39.84467120181406	59	127
39.79823129251701	39.84467120181406	56	127
39.85628117913832	39.90269841269841	63	127
39.85628117913832	39.90269841269841	59	127
39.85628117913832	39.90269841269841	56	127
39.90269841269841	39.96077097505669	63	127
39.90269841269841	39.96077097505669	59	127
39.90269841269841	39.96077097505669	56	127
39.96077097505669	40.00721088435374	61	127
39.96077097505669	40.00721088435374	56	127
39.96077097505669	40.00721088435374	53	127
40.018798185941044	40.06526077097506	61	127
40.018798185941044	40.06526077097506	56	127
40.018798185941044	40.06526077097506	53	127
40.06526077097506	40.12331065759637	61	127
40.06526077097506	40.12331065759637	56	127
40.06526077097506	40.12331065759637	53	127
40.12331065759637	40.16975056689343	61	127
40.12331065759637	40.16975056689343	56	127
40.12331065759637	40.16975056689343	53	127
40.18136054421769	40.22780045351474	61	127
40.18136054421769	40.22780045351474	56	127
40.18136054421769	40.22780045351474	53	127
40.22780045351474	40.28585034013606	61	127
40.22780045351474	40.28585034013606	56	127
40.22780045351474	40.28585034013606	53	127
40.28585034013606	40.33229024943311	61	127
40.28585034013606	40.33229024943311	56	127
40.28585034013606	40.33229024943311	53	127
40.34390022675737	40.39034013605442	61	127
40.34390022675737	40.39034013605442	56	127
40.34390022675737	40.39034013605442	53	127
40.39034013605442	40.44839002267574	63	127
40.39034013605442	40.44839002267574	59	127
40.39034013605442	40.44839002267574	56	127
40.44839002267574	40.49482993197279	63	127
40.44839002267574	40.49482993197279	59	127
40.44839002267574	40.49482993197279	56	127
40.50643990929705	40.541269841269845	63	127
40.50643990929705	40.541269841269845	59	127
40.50643990929705	40.541269841269845	56	127
40.55287981859411	40.59931972789116	63	127
40.55287981859411	40.59931972789116	59	127
40.55287981859411	40.59931972789116	56	127
40.59931972789116	40.61092970521542	63	127
40.59931972789116	40.61092970521542	59	127
40.59931972789116	40.61092970521542	56	127
40.62253968253968	40.66897959183674	63	127
40.62253968253968	40.66897959183674	59	127
40.62253968253968	40.66897959183674	56	127
40.66897959183674	40.72702947845805	63	127
40.66897959183674	40.72702947845805	59	127
40.66897959183674	40.72702947845805	56	127
40.72702947845805	40.750249433106575	63	127
40.72702947845805	40.750249433106575	59	127
40.72702947845805	40.750249433106575	56	127
40.750249433106575	40.808299319727894	63	127
40.750249433106575	40.808299319727894	59	127
40.750249433106575	40.808299319727894	56	127
40.808299319727894	40.84312925170068	63	127
40.808299319727894	40.84312925170068	59	127
40.808299319727894	40.84312925170068	56	127
40.85473922902494	40.90117913832199	63	127
40.85473922902494	40.90117913832199	59	127
40.85473922902494	40.90117913832199	56	127
40.90117913832199	40.95922902494331	63	127
40.90117913832199	40.95922902494331	59	127
40.90117913832199	40.95922902494331	56	127
40.95922902494331	40.9940589569161	63	127
40.95922902494331	40.9940589569161	59	127
40.95922902494331	40.9940589569161	56	127
41.00566893424036	41.05210884353742	63	127
41.00566893424036	41.05210884353742	56	127
41.00566893424036	41.05210884353742	59	127
41.05210884353742	41.11015873015873	56	127
41.05210884353742	41.11015873015873	61	127
41.05210884353742	41.26108843537415	61	127
41.05210884353742	41.11015873015873	53	127
41.11015873015873	41.15659863945578	56	127
41.11015873015873	41.15659863945578	61	127
41.11015873015873	41.15659863945578	53	127
41.168185941043085	41.203038548752836	53	127
41.168185941043085	41.203038548752836	56	127
41.168185941043085	41.203038548752836	61	127
41.203038548752836	41.26108843537415	61	127
41.203038548752836	41.26108843537415	53	127
41.203038548752836	41.26108843537415	56	127
41.26108843537415	41.29589569160998	53	127
41.26108843537415	41.29589569160998	61	127
41.26108843537415	41.29589569160998	56	127
41.307528344671205	41.353968253968254	61	127
41.307528344671205	41.353968253968254	53	127
41.307528344671205	41.353968253968254	56	127
41.353968253968254	41.41199546485261	56	127
41.353968253968254	41.41199546485261	61	127
41.353968253968254	41.41199546485261	53	127
41.41199546485261	41.45845804988662	53	127
41.41199546485261	41.45845804988662	61	127
41.41199546485261	41.45845804988662	56	127
41.470068027210885	41.516507936507935	53	127
41.470068027210885	41.516507936507935	61	127
41.470068027210885	41.516507936507935	56	127
41.516507936507935	41.574557823129254	53	127
41.516507936507935	41.574557823129254	61	127
41.516507936507935	41.574557823129254	56	127
41.574557823129254	41.620997732426304	56	127
41.574557823129254	41.620997732426304	61	127
41.574557823129254	41.620997732426304	53	127
41.632607709750566	41.67902494331066	61	127
41.632607709750566	41.67902494331066	53	127
41.632607709750566	41.67902494331066	56	127
41.690657596371885	41.737097505668935	61	127
41.690657596371885	41.737097505668935	53	127
41.690657596371885	41.737097505668935	56	127
41.737097505668935	41.783537414965984	56	127
41.737097505668935	41.783537414965984	61	127
41.737097505668935	41.783537414965984	53	127
41.783537414965984	41.82997732426304	53	127
41.783537414965984	41.82997732426304	61	127
41.783537414965984	41.82997732426304	56	127
41.8415873015873	41.87641723356009	53	127
41.8415873015873	41.87641723356009	61	127
41.8415873015873	41.87641723356009	56	127
41.87641723356009	41.93446712018141	53	127
41.87641723356009	41.93446712018141	61	127
41.87641723356009	41.93446712018141	56	127
41.93446712018141	41.98090702947846	53	127
41.93446712018141	41.98090702947846	61	127
41.93446712018141	41.98090702947846	56	127
41.99251700680272	42.03895691609977	53	127
41.99251700680272	42.03895691609977	61	127
41.99251700680272	42.03895691609977	56	127
42.03895691609977	42.09700680272109	53	127
42.03895691609977	42.09700680272109	61	127
42.03895691609977	42.09700680272109	56	127
42.09700680272109	42.14344671201814	53	127
42.09700680272109	42.14344671201814	61	127
42.09700680272109	42.14344671201814	56	127
42.1550566893424	42.20149659863946	53	127
42.1550566893424	42.20149659863946	61	127
42.1550566893424	42.20149659863946	56	127
42.20149659863946	42.25954648526077	53	127
42.20149659863946	42.25954648526077	61	127
42.20149659863946	42.25954648526077	56	127
42.25954648526077	42.30596371882086	53	127
42.25954648526077	42.30596371882086	61	127
42.25954648526077	42.30596371882086	56	127
42.31759637188209	42.35242630385488	56	127
42.31759637188209	42.35242630385488	61	127
42.31759637188209	42.35242630385488	53	127
42.35242630385488	42.41047619047619	61	127
42.35242630385488	42.41047619047619	53	127
42.35242630385488	42.41047619047619	56	127
42.41047619047619	42.44530612244898	56	127
42.41047619047619	42.44530612244898	61	127
42.41047619047619	42.44530612244898	53	127
42.456916099773245	42.503356009070295	53	127
42.456916099773245	42.503356009070295	61	127
42.456916099773245	42.503356009070295	56	127
42.503356009070295	42.549795918367344	53	127
42.503356009070295	42.549795918367344	61	127
42.503356009070295	42.549795918367344	56	127
42.549795918367344	42.58462585034014	53	127
42.549795918367344	42.58462585034014	61	127
42.549795918367344	42.58462585034014	56	127
42.5962358276644	42.64267573696145	53	127
42.5962358276644	42.64267573696145	61	127
42.5962358276644	42.64267573696145	56	127
42.64267573696145	42.70072562358277	53	127
42.64267573696145	42.70072562358277	61	127
42.64267573696145	42.70072562358277	56	127
42.70072562358277	42.74716553287982	53	127
42.70072562358277	42.74716553287982	61	127
42.70072562358277	42.74716553287982	56	127
42.75877551020408	42.80521541950113	53	127
42.75877551020408	42.80521541950113	61	127
42.75877551020408	42.80521541950113	56	127
42.816802721088436	42.86326530612245	53	127
42.816802721088436	42.86326530612245	61	127
42.816802721088436	42.86326530612245	56	127
42.86326530612245	42.9097052154195	53	127
42.86326530612245	42.9097052154195	61	127
42.86326530612245	42.9097052154195	56	127
42.92131519274376	42.956145124716556	53	127
42.92131519274376	42.956145124716556	61	127
42.92131519274376	42.956145124716556	56	127
42.96775510204082	43.01419501133787	61	127
42.96775510204082	43.01419501133787	56	127
42.96775510204082	43.01419501133787	53	127
43.01419501133787	43.07222222222222	61	127
43.01419501133787	43.07222222222222	53	127
43.01419501133787	43.07222222222222	56	127
43.07222222222222	43.11868480725624	61	127
43.07222222222222	43.11868480725624	53	127
43.07222222222222	43.11868480725624	56	127
43.1302947845805	43.17673469387755	56	127
43.1302947845805	43.17673469387755	61	127
43.1302947845805	43.17673469387755	53	127
43.17673469387755	43.23478458049887	53	127
43.17673469387755	43.23478458049887	61	127
43.17673469387755	43.23478458049887	56	127
43.23478458049887	43.28122448979592	53	127
43.23478458049887	43.28122448979592	61	127
43.23478458049887	43.28122448979592	56	127
43.29283446712018	43.33927437641724	53	127
43.29283446712018	43.33927437641724	61	127
43.29283446712018	43.33927437641724	56	127
43.33927437641724	43.39732426303855	53	127
43.33927437641724	43.39732426303855	61	127
43.33927437641724	43.39732426303855	56	127
43.39732426303855	43.44374149659864	53	127
43.39732426303855	43.44374149659864	61	127
43.39732426303855	43.44374149659864	56	127
43.4553514739229	43.50181405895692	53	127
43.4553514739229	43.50181405895692	61	127
43.4553514739229	43.50181405895692	56	127
43.50181405895692	43.55986394557823	53	127
43.50181405895692	43.55986394557823	61	127
43.50181405895692	43.55986394557823	56	127
43.55986394557823	43.768843537414966	56	127
43.55986394557823	43.768843537414966	61	127
43.55986394557823	43.768843537414966	53	127
57.816916099773245	57.909795918367344	64	127
57.909795918367344	58.01428571428571	66	127
58.01428571428571	58.11877551020408	68	127
58.11877551020408	58.22326530612245	69	127
58.22326530612245	58.32775510204082	71	127
58.32775510204082	58.38580498866213	72	127
58.38580498866213	58.50190476190476	74	127
58.50190476190476	58.60639455782313	76	127
58.60639455782313	58.7108843537415	77	127
58.7108843537415	58.82698412698413	79	127
58.82698412698413	58.93147392290249	81	127
58.93147392290249	59.03596371882086	83	127
59.04757369614512	59.09401360544218	88	127
59.09401360544218	59.15206349206349	90	127
59.15206349206349	59.19850340136055	88	127
59.21011337868481	59.25655328798186	90	127
59.25655328798186	59.31460317460318	88	127
59.31460317460318	59.36104308390023	90	127
59.37265306122449	59.41909297052154	88	127
59.41909297052154	59.47714285714286	90	127
59.47714285714286	59.52358276643991	88	127
59.53519274376417	59.58163265306123	90	127
59.58163265306123	59.63968253968254	88	127
59.63968253968254	59.68612244897959	90	127
59.69773242630386	59.74417233560091	88	127
59.74417233560091	59.80222222222222	90	127
59.80222222222222	59.848662131519276	88	127
59.86027210884354	59.88349206349206	90	127
59.88349206349206	59.91832199546485	90	127
59.91832199546485	59.96476190476191	88	127
59.97637188208617	60.02281179138322	90	127
60.03442176870748	60.06925170068027	88	127
60.06925170068027	60.12730158730159	90	127
60.12730158730159	60.17374149659864	88	127
60.1853514739229	60.23179138321996	90	127
60.23179138321996	60.28984126984127	88	127
60.28984126984127	60.336281179138325	90	127
60.34789115646259	60.39433106575964	88	127
60.39433106575964	60.45238095238095	90	127
60.45238095238095	60.498820861678006	88	127
60.51043083900227	60.55687074829932	90	127
60.55687074829932	60.61492063492064	88	127
60.61492063492064	60.661360544217686	90	127
60.67297052154195	60.719410430839005	88	127
60.719410430839005	60.77746031746032	90	127
60.77746031746032	60.82390022675737	88	127
60.83551020408163	60.881950113378686	90	127
60.881950113378686	60.94	88	127
60.94	60.986439909297054	90	127
60.99804988662132	61.044489795918366	88	127
61.044489795918366	61.102539682539685	90	127
61.102539682539685	61.148979591836735	88	127
61.160589569161	61.20702947845805	90	127
61.218639455782316	61.265079365079366	88	127
61.265079365079366	61.32312925170068	90	127
61.32312925170068	61.369569160997735	88	127
61.381179138322	61.42761904761905	90	127
61.42761904761905	61.868798185941046	88	127
61.42761904761905	61.54371882086168	64	127
61.42761904761905	61.54371882086168	55	127
61.54371882086168	61.648208616780046	67	127
61.54371882086168	61.648208616780046	58	127
61.648208616780046	61.752698412698415	69	127
61.648208616780046	61.752698412698415	64	127
61.752698412698415	61.85718820861678	67	127
61.752698412698415	61.85718820861678	58	127
61.868798185941046	62.298367346938775	86	127
61.868798185941046	61.97328798185941	64	127
61.868798185941046	61.97328798185941	55	127
61.97328798185941	62.077777777777776	67	127
61.97328798185941	62.077777777777776	58	127
62.077777777777776	62.19387755102041	69	127
62.077777777777776	62.19387755102041	64	127
62.19387755102041	62.298367346938775	67	127
62.19387755102041	62.298367346938775	58	127
62.298367346938775	62.414467120181406	55	127
62.298367346938775	62.414467120181406	64	127
62.298367346938775	62.44929705215419	84	127
62.414467120181406	62.50734693877551	58	127
62.414467120181406	62.50734693877551	67	127
62.44929705215419	62.58861678004535	86	127
62.518956916099775	62.62344671201814	64	127
62.518956916099775	62.62344671201814	69	127
62.58861678004535	62.727936507936505	88	127
62.62344671201814	62.727936507936505	67	127
62.62344671201814	62.727936507936505	58	127
62.739546485260774	62.844036281179136	58	127
62.739546485260774	62.844036281179136	66	127
62.739546485260774	63.18072562358277	90	127
62.844036281179136	62.948526077097505	61	127
62.844036281179136	62.948526077097505	68	127
62.948526077097505	63.064625850340136	70	127
62.948526077097505	63.064625850340136	66	127
63.064625850340136	63.18072562358277	68	127
63.064625850340136	63.18072562358277	61	127
63.18072562358277	63.62190476190476	85	127
63.18072562358277	63.285215419501135	66	127
63.18072562358277	63.285215419501135	58	127
63.285215419501135	63.389705215419504	61	127
63.285215419501135	63.389705215419504	68	127
63.401315192743766	63.505804988662135	70	127
63.401315192743766	63.505804988662135	66	127
63.505804988662135	63.610294784580496	68	127
63.505804988662135	63.610294784580496	61	127
63.62190476190476	63.981814058956914	90	127
63.62190476190476	63.72639455782313	66	127
63.62190476190476	63.72639455782313	58	127
63.72639455782313	63.830884353741496	68	127
63.72639455782313	63.830884353741496	61	127
63.830884353741496	63.94698412698413	70	127
63.830884353741496	63.94698412698413	66	127
63.94698412698413	64.05145124716553	68	127
63.94698412698413	64.05145124716553	61	127
64.05145124716553	64.45782312925171	88	127
64.05145124716553	64.15596371882086	64	127
64.05145124716553	64.15596371882086	55	127
64.15596371882086	64.26045351473923	67	127
64.15596371882086	64.26045351473923	58	127
64.2720634920635	64.37655328798186	69	127
64.2720634920635	64.37655328798186	64	127
64.37655328798186	64.45782312925171	67	127
64.37655328798186	64.45782312925171	58	127
64.45782312925171	64.86417233560091	86	127
64.45782312925171	64.57392290249433	64	127
64.45782312925171	64.57392290249433	55	127
64.57392290249433	64.66680272108843	67	127
64.57392290249433	64.66680272108843	58	127
64.66680272108843	64.74807256235827	69	127
64.66680272108843	64.74807256235827	64	127
64.74807256235827	64.85256235827664	67	127
64.74807256235827	64.85256235827664	58	127
64.86417233560091	64.95705215419501	64	127
64.86417233560091	64.95705215419501	55	127
64.86417233560091	64.9918820861678	84	127
64.95705215419501	65.06154195011338	67	127
64.95705215419501	65.06154195011338	58	127
64.9918820861678	65.14281179138322	86	127
65.07312925170068	65.177641723356	64	127
65.07312925170068	65.177641723356	69	127
65.14281179138322	65.22408163265307	88	127
65.177641723356	65.22408163265307	67	127
65.177641723356	65.22408163265307	58	127
65.22408163265307	66.32700680272109	81	127
65.22408163265307	65.32854875283446	64	127
65.22408163265307	65.32854875283446	57	127
65.32854875283446	65.43306122448979	67	127
65.32854875283446	65.43306122448979	63	127
65.43306122448979	65.53755102040816	69	127
65.43306122448979	65.53755102040816	65	127
65.53755102040816	65.618820861678	63	127
65.53755102040816	65.618820861678	67	127
65.618820861678	65.72331065759637	57	127
65.618820861678	65.72331065759637	64	127
65.72331065759637	65.82780045351474	67	127
65.72331065759637	65.82780045351474	63	127
65.82780045351474	65.92068027210884	69	127
65.82780045351474	65.92068027210884	65	127
65.92068027210884	66.01356009070295	67	127
65.92068027210884	66.01356009070295	63	127
66.01356009070295	66.12965986394558	57	127
66.01356009070295	66.12965986394558	64	127
66.12965986394558	66.22251700680272	67	127
66.12965986394558	66.22251700680272	63	127
66.22251700680272	66.32700680272109	65	127
66.22251700680272	66.32700680272109	69	127
66.32700680272109	66.43151927437641	67	127
66.32700680272109	66.43151927437641	63	127
66.44312925170068	66.84947845804989	64	127
66.44312925170068	66.54761904761905	76	127
66.44312925170068	66.54761904761905	67	127
66.54761904761905	66.6288888888889	79	127
66.54761904761905	66.6288888888889	70	127
66.6288888888889	66.74498866213152	81	127
66.6288888888889	66.74498866213152	76	127
66.74498866213152	66.84947845804989	79	127
66.74498866213152	66.84947845804989	70	127
66.84947845804989	67.27904761904762	62	127
66.84947845804989	66.95396825396826	76	127
66.84947845804989	66.95396825396826	67	127
66.95396825396826	67.05845804988662	79	127
66.95396825396826	67.05845804988662	70	127
67.07006802721088	67.17455782312925	81	127
67.07006802721088	67.17455782312925	76	127
67.17455782312925	67.26743764172336	79	127
67.17455782312925	67.26743764172336	70	127
67.27904761904762	67.37192743764173	67	127
67.27904761904762	67.37192743764173	76	127
67.27904761904762	67.40675736961451	60	127
67.37192743764173	67.45319727891156	79	127
67.37192743764173	67.45319727891156	70	127
67.40675736961451	67.52285714285715	62	127
67.45319727891156	67.55768707482993	81	127
67.45319727891156	67.55768707482993	76	127
67.52285714285715	67.65056689342404	64	127
67.55768707482993	67.65056689342404	79	127
67.55768707482993	67.65056689342404	70	127
67.65056689342404	68.05691609977325	66	127
67.65056689342404	67.75505668934241	78	127
67.65056689342404	67.75505668934241	70	127
67.75505668934241	67.85952380952381	80	127
67.75505668934241	67.85952380952381	73	127
67.85952380952381	67.95242630385488	82	127
67.85952380952381	67.95242630385488	77	127
67.95242630385488	68.05691609977325	80	127
67.95242630385488	68.05691609977325	73	127
68.05691609977325	68.48648526077098	61	127
68.05691609977325	68.17301587301587	78	127
68.05691609977325	68.17301587301587	70	127
68.17301587301587	68.26589569160998	80	127
68.17301587301587	68.26589569160998	73	127
68.26589569160998	68.38199546485261	77	127
68.26589569160998	68.38199546485261	82	127
68.38199546485261	68.48648526077098	73	127
68.38199546485261	68.48648526077098	80	127
68.48648526077098	68.56775510204082	70	127
68.48648526077098	68.8231746031746	66	127
68.48648526077098	68.56775510204082	78	127
68.56775510204082	68.67224489795919	80	127
68.56775510204082	68.67224489795919	73	127
68.68385487528344	68.78834467120181	82	127
68.68385487528344	68.78834467120181	77	127
68.78834467120181	68.89283446712018	80	127
68.78834467120181	68.89283446712018	73	127
68.89283446712018	69.31079365079366	64	127
68.89283446712018	69.00891156462585	76	127
68.89283446712018	69.00891156462585	67	127
69.00891156462585	69.10181405895692	79	127
69.00891156462585	69.10181405895692	70	127
69.10181405895692	69.20630385487529	81	127
69.10181405895692	69.20630385487529	76	127
69.20630385487529	69.29918367346939	79	127
69.20630385487529	69.29918367346939	70	127
69.31079365079366	69.68231292517007	62	127
69.31079365079366	69.41528344671202	76	127
69.31079365079366	69.41528344671202	67	127
69.41528344671202	69.47333333333333	79	127
69.41528344671202	69.47333333333333	70	127
69.4849433106576	69.58943310657597	81	127
69.4849433106576	69.58943310657597	76	127
69.58943310657597	69.68231292517007	79	127
69.58943310657597	69.68231292517007	70	127
69.68231292517007	69.77517006802721	67	127
69.68231292517007	69.77517006802721	76	127
69.68231292517007	69.81002267573696	60	127
69.77517006802721	69.86807256235828	70	127
69.77517006802721	69.86807256235828	79	127
69.81002267573696	69.9261224489796	62	127
69.86807256235828	69.93773242630385	81	127
69.86807256235828	69.93773242630385	76	127
69.9261224489796	70.04222222222222	64	127
69.93773242630385	70.04222222222222	79	127
69.93773242630385	70.04222222222222	70	127
70.05383219954649	71.16839002267574	57	127
70.05383219954649	70.15829931972789	77	127
70.05383219954649	70.15829931972789	69	127
70.15829931972789	70.25120181405896	79	127
70.15829931972789	70.25120181405896	75	127
70.25120181405896	70.36730158730158	81	127
70.25120181405896	70.36730158730158	77	127
70.36730158730158	70.41371882086167	79	127
70.36730158730158	70.41371882086167	75	127
70.41371882086167	70.51820861678004	77	127
70.41371882086167	70.51820861678004	69	127
70.51820861678004	70.61111111111111	79	127
70.51820861678004	70.61111111111111	75	127
70.62272108843537	70.72721088435374	81	127
70.62272108843537	70.72721088435374	77	127
70.72721088435374	70.8317006802721	79	127
70.72721088435374	70.8317006802721	75	127
70.84331065759638	70.94780045351474	77	127
70.84331065759638	70.94780045351474	69	127
70.94780045351474	71.05229024943311	79	127
70.94780045351474	71.05229024943311	75	127
71.05229024943311	71.16839002267574	81	127
71.05229024943311	71.16839002267574	77	127
71.16839002267574	71.2728798185941	75	127
71.16839002267574	71.2728798185941	79	127
71.2728798185941	71.70244897959184	57	127
71.2728798185941	71.33092970521542	77	127
71.2728798185941	71.48185941043084	69	127
71.33092970521542	71.37736961451247	74	127
71.37736961451247	71.4354195011338	77	127
71.4354195011338	71.4934693877551	74	127
71.4934693877551	71.53988662131519	77	127
71.53988662131519	71.59795918367347	74	127
71.59795918367347	71.65600907029479	77	127
71.65600907029479	71.70244897959184	74	127
71.70244897959184	72.05072562358276	55	127
71.70244897959184	71.76049886621315	77	127
71.70244897959184	71.76049886621315	65	127
71.76049886621315	71.81854875283447	74	127
71.76049886621315	71.81854875283447	62	127
71.81854875283447	71.87659863945578	65	127
71.81854875283447	71.87659863945578	77	127
71.87659863945578	71.92301587301587	74	127
71.87659863945578	71.92301587301587	62	127
71.92301587301587	71.98108843537415	77	127
71.92301587301587	71.98108843537415	65	127
71.98108843537415	72.01591836734694	74	127
71.98108843537415	72.01591836734694	62	127
72.01591836734694	72.06235827664399	77	127
72.01591836734694	72.06235827664399	65	127
72.06235827664399	72.12040816326531	74	127
72.06235827664399	72.12040816326531	62	127
72.12040816326531	72.30614512471655	77	127
72.12040816326531	72.17843537414966	65	127
72.12040816326531	72.23650793650793	53	127
72.17843537414966	72.20167800453515	62	127
72.20167800453515	72.25972789115646	65	127
72.23650793650793	72.38743764172335	55	127
72.25972789115646	72.31777777777778	62	127
72.31777777777778	72.36421768707483	65	127
72.36421768707483	72.42226757369615	62	127
72.38743764172335	72.52675736961451	57	127
72.42226757369615	72.48031746031747	65	127
72.48031746031747	72.52675736961451	62	127
72.52675736961451	72.65446712018141	62	127
72.52675736961451	72.75895691609978	65	127
72.65446712018141	72.75895691609978	57	127
72.75895691609978	72.86344671201815	62	127
72.86344671201815	72.94469387755102	57	127
72.95632653061224	73.02598639455782	64	127
73.02598639455782	73.14208616780046	59	127
73.14208616780046	73.24657596371883	64	127
73.24657596371883	73.3510657596372	59	127
73.3510657596372	73.45553287981859	62	127
73.45553287981859	73.54843537414966	57	127
73.54843537414966	73.65292517006803	62	127
73.65292517006803	73.7574149659864	57	127
73.76902494331065	74.19857142857143	69	127
73.76902494331065	73.81544217687075	89	127
73.81544217687075	73.87351473922902	86	127
73.87351473922902	73.93156462585034	89	127
73.93156462585034	73.97800453514739	86	127
73.97800453514739	74.03605442176871	89	127
74.03605442176871	74.09410430839003	86	127
74.09410430839003	74.15215419501133	89	127
74.15215419501133	74.19857142857143	86	127
74.19857142857143	74.2566439909297	77	127
74.19857142857143	74.53528344671201	67	127
74.19857142857143	74.2566439909297	89	127
74.2566439909297	74.31469387755102	86	127
74.2566439909297	74.31469387755102	74	127
74.31469387755102	74.36113378684807	89	127
74.31469387755102	74.36113378684807	77	127
74.36113378684807	74.41918367346939	86	127
74.36113378684807	74.41918367346939	74	127
74.41918367346939	74.47723356009071	89	127
74.41918367346939	74.47723356009071	77	127
74.47723356009071	74.52367346938776	74	127
74.47723356009071	74.52367346938776	86	127
74.52367346938776	74.53528344671201	77	127
74.52367346938776	74.53528344671201	89	127
74.53528344671201	74.59333333333333	65	127
74.53528344671201	74.66299319727891	89	127
74.53528344671201	74.55850340136054	74	127
74.55850340136054	74.61655328798186	77	127
74.59333333333333	74.74426303854875	67	127
74.61655328798186	74.66299319727891	74	127
74.66299319727891	74.72104308390023	77	127
74.72104308390023	74.77909297052155	74	127
74.74426303854875	74.88358276643991	69	127
74.77909297052155	74.8255328798186	77	127
74.8255328798186	74.88358276643991	74	127
74.88358276643991	74.98807256235828	74	127
74.88358276643991	75.09253968253968	77	127
74.98807256235828	75.10417233560091	69	127
75.10417233560091	75.197052154195	74	127
75.197052154195	75.30154195011337	69	127
75.31315192743764	75.41764172335601	76	127
75.41764172335601	75.52213151927438	71	127
75.52213151927438	75.638231292517	76	127
75.638231292517	75.74272108843537	71	127
75.74272108843537	75.84721088435374	74	127
75.84721088435374	75.96328798185941	69	127
75.96328798185941	76.02136054421769	74	127
76.02136054421769	76.11421768707483	69	127
76.11421768707483	76.54380952380953	81	127
76.11421768707483	76.23034013605442	77	127
76.23034013605442	76.33482993197279	74	127
76.33482993197279	76.43931972789116	62	127
76.43931972789116	76.53219954648526	74	127
76.54380952380953	76.6482993197279	77	127
76.54380952380953	76.90371882086168	79	127
76.6482993197279	76.7527664399093	74	127
76.76439909297052	76.86888888888889	62	127
76.86888888888889	76.97337868480726	74	127
76.97337868480726	77.04303854875283	77	127
76.97337868480726	77.07786848072563	77	127
77.04303854875283	77.13589569160997	74	127
77.07786848072563	77.20557823129252	79	127
77.13589569160997	77.22879818594105	62	127
77.20557823129252	77.33328798185941	81	127
77.22879818594105	77.33328798185941	74	127
77.33328798185941	77.66997732426304	86	127
77.33328798185941	77.4609977324263	67	127
77.33328798185941	77.42616780045351	77	127
77.42616780045351	77.53065759637188	77	127
77.4609977324263	77.61192743764173	69	127
77.53065759637188	77.63514739229025	76	127
77.61192743764173	77.73963718820862	71	127
77.64675736961452	77.73963718820862	76	127
77.73963718820862	77.89056689342404	77	127
77.73963718820862	77.84412698412699	77	127
77.73963718820862	78.09954648526077	77	127
77.85573696145124	77.96022675736961	77	127
77.89056689342404	78.0298866213152	79	127
77.96022675736961	78.06471655328798	76	127
78.0298866213152	78.18081632653062	81	127
78.06471655328798	78.16920634920635	76	127
78.18081632653062	78.28530612244899	77	127
78.18081632653062	78.50589569160998	86	127
78.18081632653062	78.32013605442177	67	127
78.28530612244899	78.35496598639456	77	127
78.32013605442177	78.4362358276644	69	127
78.35496598639456	78.45945578231293	76	127
78.4362358276644	78.57555555555555	71	127
78.47106575963718	78.57555555555555	76	127
78.57555555555555	78.87741496598639	77	127
78.57555555555555	78.68004535147392	76	127
78.57555555555555	78.71487528344672	77	127
78.68004535147392	78.72648526077097	76	127
78.71487528344672	78.80775510204082	79	127
78.73809523809524	78.84258503401361	74	127
78.80775510204082	78.95868480725623	81	127
78.84258503401361	78.94707482993198	74	127
78.95868480725623	79.27215419501134	86	127
78.95868480725623	79.07478458049887	67	127
78.95868480725623	79.05156462585035	77	127
79.05156462585035	79.13283446712018	77	127
79.07478458049887	79.20249433106576	69	127
79.13283446712018	79.22571428571429	76	127
79.20249433106576	79.34181405895691	71	127
79.23732426303854	79.34181405895691	76	127
79.34181405895691	79.44630385487528	76	127
79.34181405895691	79.45791383219955	77	127
79.34181405895691	79.6320634920635	77	127
79.44630385487528	79.5043537414966	76	127
79.45791383219955	79.57401360544218	79	127
79.5043537414966	79.60884353741497	74	127
79.57401360544218	79.70172335600907	81	127
79.60884353741497	79.70172335600907	74	127
79.70172335600907	79.85265306122449	65	127
79.70172335600907	79.80621315192744	76	127
79.70172335600907	80.0732426303855	86	127
79.8178231292517	79.9222902494331	76	127
79.85265306122449	79.99197278911565	67	127
79.9222902494331	80.02678004535147	74	127
79.99197278911565	80.14290249433107	69	127
80.0384126984127	80.14290249433107	74	127
80.14290249433107	80.24739229024944	74	127
80.14290249433107	80.28219954648526	77	127
80.14290249433107	80.49120181405895	75	127
80.24739229024944	80.3518820861678	74	127
80.28219954648526	80.43312925170068	79	127
80.36349206349206	80.45637188208617	72	127
80.43312925170068	80.56083900226757	81	127
80.45637188208617	80.56083900226757	72	127
80.56083900226757	80.85111111111111	86	127
80.56083900226757	80.65374149659864	76	127
80.56083900226757	80.65374149659864	65	127
80.65374149659864	80.72340136054422	76	127
80.65374149659864	80.76984126984127	67	127
80.72340136054422	80.80467120181406	74	127
80.76984126984127	80.92074829931973	69	127
80.80467120181406	80.90916099773243	74	127
80.92074829931973	81.22263038548753	75	127
80.92074829931973	81.03687074829932	77	127
80.92074829931973	81.02526077097505	74	127
81.02526077097505	81.07170068027212	74	127
81.03687074829932	81.15297052154195	79	127
81.08331065759637	81.18780045351474	72	127
81.15297052154195	81.29229024943311	81	127
81.18780045351474	81.29229024943311	72	127
81.29229024943311	81.39678004535148	75	127
81.29229024943311	81.44321995464853	65	127
81.29229024943311	81.65219954648526	86	127
81.40839002267573	81.5128798185941	75	127
81.44321995464853	81.58253968253969	67	127
81.5128798185941	81.61736961451247	74	127
81.58253968253969	81.73346938775511	69	127
81.61736961451247	81.72185941043084	74	127
81.73346938775511	81.87278911564626	77	127
81.73346938775511	81.83795918367348	74	127
81.73346938775511	82.09337868480726	75	127
81.83795918367348	81.94242630385487	74	127
81.87278911564626	82.02371882086167	79	127
81.94242630385487	82.0469387755102	72	127
82.02371882086167	82.15142857142857	81	127
82.05854875283447	82.15142857142857	72	127
82.15142857142857	82.19784580498866	86	127
82.15142857142857	82.19784580498866	68	127
82.15142857142857	82.19784580498866	77	127
82.19784580498866	82.24430839002268	77	127
82.19784580498866	82.24430839002268	86	127
82.19784580498866	82.24430839002268	68	127
82.25591836734694	82.30235827664399	86	127
82.25591836734694	82.30235827664399	68	127
82.25591836734694	82.30235827664399	77	127
82.30235827664399	82.33718820861678	86	127
82.30235827664399	82.33718820861678	68	127
82.30235827664399	82.33718820861678	77	127
82.34879818594105	82.3952380952381	86	127
82.34879818594105	82.3952380952381	68	127
82.34879818594105	82.3952380952381	77	127
82.40684807256235	82.45326530612245	86	127
82.40684807256235	82.45326530612245	68	127
82.40684807256235	82.45326530612245	77	127
82.45326530612245	82.51133786848072	86	127
82.45326530612245	82.51133786848072	68	127
82.45326530612245	82.51133786848072	77	127
82.51133786848072	82.55777777777777	86	127
82.51133786848072	82.55777777777777	68	127
82.51133786848072	82.55777777777777	77	127
82.56938775510204	82.61582766439909	85	127
82.56938775510204	82.61582766439909	68	127
82.56938775510204	82.61582766439909	77	127
82.61582766439909	82.67387755102041	85	127
82.61582766439909	82.67387755102041	68	127
82.61582766439909	82.67387755102041	77	127
82.67387755102041	82.72031746031746	85	127
82.67387755102041	82.72031746031746	68	127
82.67387755102041	82.72031746031746	77	127
82.73192743764173	82.77836734693878	85	127
82.73192743764173	82.77836734693878	68	127
82.73192743764173	82.77836734693878	77	127
82.77836734693878	82.83639455782313	85	127
82.77836734693878	82.83639455782313	68	127
82.77836734693878	82.83639455782313	77	127
82.83639455782313	82.88285714285715	85	127
82.83639455782313	82.88285714285715	68	127
82.83639455782313	82.88285714285715	77	127
82.8944671201814	82.9408843537415	85	127
82.8944671201814	82.9408843537415	68	127
82.8944671201814	82.9408843537415	77	127
82.9408843537415	82.99895691609977	85	127
82.9408843537415	82.99895691609977	68	127
82.9408843537415	82.99895691609977	77	127
82.99895691609977	83.04539682539682	84	127
82.99895691609977	83.04539682539682	68	127
82.99895691609977	83.04539682539682	77	127
83.05700680272109	83.10344671201814	84	127
83.05700680272109	83.10344671201814	68	127
83.05700680272109	83.10344671201814	77	127
83.10344671201814	83.16149659863946	84	127
83.10344671201814	83.16149659863946	68	127
83.10344671201814	83.16149659863946	77	127
83.16149659863946	83.20793650793651	84	127
83.16149659863946	83.20793650793651	68	127
83.16149659863946	83.20793650793651	77	127
83.2195238095238	83.26598639455783	84	127
83.2195238095238	83.26598639455783	68	127
83.2195238095238	83.26598639455783	77	127
83.26598639455783	83.32401360544218	84	127
83.26598639455783	83.32401360544218	68	127
83.26598639455783	83.32401360544218	77	127
83.32401360544218	83.3704761904762	84	127
83.32401360544218	83.3704761904762	68	127
83.32401360544218	83.3704761904762	77	127
83.38208616780045	83.4285260770975	84	127
83.38208616780045	83.4285260770975	68	127
83.38208616780045	83.4285260770975	77	127
83.44013605442177	83.48657596371882	83	127
83.44013605442177	83.48657596371882	65	127
83.44013605442177	83.48657596371882	74	127
83.48657596371882	83.53301587301587	83	127
83.48657596371882	83.53301587301587	65	127
83.48657596371882	83.53301587301587	74	127
83.54462585034014	83.59106575963719	83	127
83.54462585034014	83.59106575963719	65	127
83.54462585034014	83.59106575963719	74	127
83.60265306122449	83.64911564625851	83	127
83.60265306122449	83.64911564625851	65	127
83.60265306122449	83.64911564625851	74	127
83.64911564625851	83.70714285714286	83	127
83.64911564625851	83.70714285714286	65	127
83.64911564625851	83.70714285714286	74	127
83.70714285714286	83.75360544217688	83	127
83.70714285714286	83.75360544217688	65	127
83.70714285714286	83.75360544217688	74	127
83.76521541950113	83.81165532879818	83	127
83.76521541950113	83.81165532879818	65	127
83.76521541950113	83.81165532879818	74	127
83.81165532879818	83.8697052154195	83	127
83.81165532879818	83.8697052154195	65	127
83.81165532879818	83.8697052154195	74	127
83.8697052154195	83.91614512471655	82	127
83.8697052154195	83.91614512471655	65	127
83.8697052154195	83.91614512471655	74	127
83.92775510204082	83.96256235827664	82	127
83.92775510204082	83.96256235827664	65	127
83.92775510204082	83.96256235827664	74	127
83.96256235827664	83.98578231292517	82	127
83.96256235827664	83.98578231292517	65	127
83.96256235827664	83.98578231292517	74	127
83.98578231292517	84.04385487528344	82	127
83.98578231292517	84.04385487528344	65	127
83.98578231292517	84.04385487528344	74	127
84.04385487528344	84.09027210884354	82	127
84.04385487528344	84.09027210884354	65	127
84.04385487528344	84.09027210884354	74	127
84.10190476190476	84.14834467120181	82	127
84.10190476190476	84.14834467120181	65	127
84.10190476190476	84.14834467120181	74	127
84.14834467120181	84.19478458049886	81	127
84.14834467120181	84.19478458049886	65	127
84.14834467120181	84.19478458049886	74	127
84.19478458049886	84.24120181405895	81	127
84.19478458049886	84.24120181405895	65	127
84.19478458049886	84.24120181405895	74	127
84.25283446712018	84.29927437641723	74	127
84.25283446712018	84.29927437641723	81	127
84.25283446712018	84.29927437641723	65	127
84.29927437641723	84.35732426303855	81	127
84.29927437641723	84.35732426303855	65	127
84.29927437641723	84.35732426303855	74	127
84.35732426303855	84.39215419501134	81	127
84.35732426303855	84.39215419501134	65	127
84.35732426303855	84.39215419501134	74	127
84.4037641723356	84.45020408163265	81	127
84.4037641723356	84.45020408163265	65	127
84.4037641723356	84.45020408163265	74	127
84.45020408163265	84.49664399092971	81	127
84.45020408163265	84.49664399092971	65	127
84.45020408163265	84.49664399092971	74	127
84.49664399092971	84.53147392290249	81	127
84.49664399092971	84.53147392290249	65	127
84.49664399092971	84.53147392290249	74	127
84.54308390022676	84.58952380952381	80	127
84.54308390022676	84.58952380952381	63	127
84.54308390022676	84.58952380952381	72	127
84.60111111111111	84.64757369614513	80	127
84.60111111111111	84.64757369614513	63	127
84.60111111111111	84.64757369614513	72	127
84.64757369614513	84.70562358276644	80	127
84.64757369614513	84.70562358276644	63	127
84.64757369614513	84.70562358276644	72	127
84.70562358276644	84.7520634920635	80	127
84.70562358276644	84.7520634920635	63	127
84.70562358276644	84.7520634920635	72	127
84.76367346938775	84.8101133786848	80	127
84.76367346938775	84.8101133786848	63	127
84.76367346938775	84.8101133786848	72	127
84.8101133786848	84.8565306122449	80	127
84.8101133786848	84.8565306122449	63	127
84.8101133786848	84.8565306122449	72	127
84.8565306122449	84.90299319727892	80	127
84.8565306122449	84.90299319727892	63	127
84.8565306122449	84.90299319727892	72	127
84.91460317460317	84.96104308390022	80	127
84.91460317460317	84.96104308390022	63	127
84.91460317460317	84.96104308390022	72	127
84.96104308390022	85.01909297052154	79	127
84.96104308390022	85.01909297052154	63	127
84.96104308390022	85.01909297052154	72	127
85.01909297052154	85.05392290249434	79	127
85.01909297052154	85.05392290249434	63	127
85.01909297052154	85.05392290249434	72	127
85.06553287981859	85.11195011337868	79	127
85.06553287981859	85.11195011337868	63	127
85.06553287981859	85.11195011337868	72	127
85.11195011337868	85.17002267573696	79	127
85.11195011337868	85.17002267573696	63	127
85.11195011337868	85.17002267573696	72	127
85.17002267573696	85.21646258503401	79	127
85.17002267573696	85.21646258503401	63	127
85.17002267573696	85.21646258503401	72	127
85.22807256235828	85.26290249433107	79	127
85.22807256235828	85.26290249433107	63	127
85.22807256235828	85.26290249433107	72	127
85.26290249433107	85.32095238095238	79	127
85.26290249433107	85.32095238095238	63	127
85.26290249433107	85.32095238095238	72	127
85.32095238095238	85.36736961451247	79	127
85.32095238095238	85.36736961451247	63	127
85.32095238095238	85.36736961451247	72	127
85.3790022675737	85.42544217687075	78	127
85.3790022675737	85.42544217687075	63	127
85.3790022675737	85.42544217687075	72	127
85.42544217687075	85.48349206349206	78	127
85.42544217687075	85.48349206349206	63	127
85.42544217687075	85.48349206349206	72	127
85.48349206349206	85.52993197278911	78	127
85.48349206349206	85.52993197278911	63	127
85.48349206349206	85.52993197278911	72	127
85.54154195011338	85.58798185941043	78	127
85.54154195011338	85.58798185941043	63	127
85.54154195011338	85.58798185941043	72	127
85.58798185941043	85.61120181405896	78	127
85.58798185941043	85.61120181405896	63	127
85.58798185941043	85.61120181405896	72	127
85.61120181405896	85.64603174603175	78	127
85.61120181405896	85.64603174603175	63	127
85.61120181405896	85.64603174603175	72	127
85.65764172335601	85.6924716553288	78	127
85.65764172335601	85.6924716553288	63	127
85.65764172335601	85.6924716553288	72	127
85.70408163265306	85.75049886621315	78	127
85.70408163265306	85.75049886621315	63	127
85.70408163265306	85.75049886621315	72	127
85.75049886621315	85.79696145124717	77	127
85.75049886621315	85.79696145124717	60	127
85.75049886621315	85.79696145124717	68	127
85.80857142857143	85.84340136054422	77	127
85.80857142857143	85.84340136054422	60	127
85.80857142857143	85.84340136054422	68	127
85.85501133786848	85.90145124716554	77	127
85.85501133786848	85.90145124716554	60	127
85.85501133786848	85.90145124716554	68	127
85.90145124716554	85.94789115646259	77	127
85.90145124716554	85.94789115646259	60	127
85.90145124716554	85.94789115646259	68	127
85.94789115646259	85.98272108843537	77	127
85.94789115646259	85.98272108843537	60	127
85.94789115646259	85.98272108843537	68	127
85.99433106575964	86.04077097505669	77	127
85.99433106575964	86.04077097505669	60	127
85.99433106575964	86.04077097505669	68	127
86.04077097505669	86.098820861678	77	127
86.04077097505669	86.098820861678	60	127
86.04077097505669	86.098820861678	68	127
86.098820861678	86.13362811791383	77	127
86.098820861678	86.13362811791383	60	127
86.098820861678	86.13362811791383	68	127
86.14526077097506	86.1917006802721	76	127
86.14526077097506	86.1917006802721	60	127
86.14526077097506	86.1917006802721	68	127
86.1917006802721	86.23814058956916	76	127
86.1917006802721	86.23814058956916	60	127
86.1917006802721	86.23814058956916	68	127
86.23814058956916	86.28458049886622	76	127
86.23814058956916	86.28458049886622	60	127
86.23814058956916	86.28458049886622	68	127
86.29619047619047	86.34263038548752	76	127
86.29619047619047	86.34263038548752	60	127
86.29619047619047	86.34263038548752	68	127
86.34263038548752	86.40068027210884	76	127
86.34263038548752	86.40068027210884	60	127
86.34263038548752	86.40068027210884	68	127
86.40068027210884	86.4471201814059	76	127
86.40068027210884	86.4471201814059	60	127
86.40068027210884	86.4471201814059	68	127
86.4471201814059	86.49353741496599	76	127
86.4471201814059	86.49353741496599	60	127
86.4471201814059	86.49353741496599	68	127
86.49353741496599	86.55160997732426	76	127
86.49353741496599	86.55160997732426	60	127
86.49353741496599	86.55160997732426	68	127
86.55160997732426	86.59804988662131	75	127
86.55160997732426	86.59804988662131	60	127
86.55160997732426	86.59804988662131	68	127
86.60965986394558	86.65609977324263	75	127
86.60965986394558	86.65609977324263	60	127
86.60965986394558	86.65609977324263	68	127
86.65609977324263	86.70253968253968	75	127
86.65609977324263	86.70253968253968	60	127
86.65609977324263	86.70253968253968	68	127
86.70253968253968	86.74895691609977	75	127
86.70253968253968	86.74895691609977	60	127
86.70253968253968	86.74895691609977	68	127
86.760589569161	86.80702947845805	75	127
86.760589569161	86.80702947845805	60	127
86.760589569161	86.80702947845805	68	127
86.81863945578232	86.84185941043084	75	127
86.81863945578232	86.84185941043084	60	127
86.81863945578232	86.84185941043084	68	127
86.84185941043084	86.88829931972789	75	127
86.84185941043084	86.88829931972789	60	127
86.84185941043084	86.88829931972789	68	127
86.89988662131519	86.93473922902494	75	127
86.89988662131519	86.93473922902494	60	127
86.89988662131519	86.93473922902494	68	127
86.94634920634921	86.96956916099774	74	127
86.94634920634921	86.96956916099774	58	127
86.94634920634921	86.96956916099774	64	127
86.96956916099774	87.02759637188208	74	127
86.96956916099774	87.02759637188208	58	127
86.96956916099774	87.02759637188208	64	127
87.02759637188208	87.0740589569161	74	127
87.02759637188208	87.0740589569161	58	127
87.02759637188208	87.0740589569161	64	127
87.08566893424036	87.12049886621315	74	127
87.08566893424036	87.12049886621315	58	127
87.08566893424036	87.12049886621315	64	127
87.12049886621315	87.17854875283447	74	127
87.12049886621315	87.17854875283447	58	127
87.12049886621315	87.17854875283447	64	127
87.17854875283447	87.22498866213152	74	127
87.17854875283447	87.22498866213152	58	127
87.17854875283447	87.22498866213152	64	127
87.23659863945578	87.28301587301587	74	127
87.23659863945578	87.28301587301587	58	127
87.23659863945578	87.28301587301587	64	127
87.28301587301587	87.34108843537415	74	127
87.28301587301587	87.34108843537415	58	127
87.28301587301587	87.34108843537415	64	127
87.34108843537415	87.38750566893424	73	127
87.34108843537415	87.38750566893424	58	127
87.34108843537415	87.38750566893424	64	127
87.39913832199547	87.42235827664399	73	127
87.39913832199547	87.42235827664399	58	127
87.39913832199547	87.42235827664399	64	127
87.42235827664399	87.46879818594104	73	127
87.42235827664399	87.46879818594104	58	127
87.42235827664399	87.46879818594104	64	127
87.46879818594104	87.51521541950113	73	127
87.46879818594104	87.51521541950113	58	127
87.46879818594104	87.51521541950113	64	127
87.52684807256236	87.57328798185941	73	127
87.52684807256236	87.57328798185941	58	127
87.52684807256236	87.57328798185941	64	127
87.57328798185941	87.63133786848073	73	127
87.57328798185941	87.63133786848073	58	127
87.57328798185941	87.63133786848073	64	127
87.63133786848073	87.67777777777778	73	127
87.63133786848073	87.67777777777778	58	127
87.63133786848073	87.67777777777778	64	127
87.68938775510205	87.7358276643991	73	127
87.68938775510205	87.7358276643991	58	127
87.68938775510205	87.7358276643991	64	127
87.7358276643991	87.78226757369615	72	127
87.7358276643991	87.78226757369615	58	127
87.7358276643991	87.78226757369615	64	127
87.78226757369615	87.8287074829932	72	127
87.78226757369615	87.8287074829932	58	127
87.78226757369615	87.8287074829932	64	127
87.84031746031746	87.85192743764172	72	127
87.84031746031746	87.85192743764172	58	127
87.84031746031746	87.85192743764172	64	127
87.85192743764172	87.89834467120181	72	127
87.85192743764172	87.89834467120181	58	127
87.85192743764172	87.89834467120181	64	127
87.89834467120181	87.94480725623583	72	127
87.89834467120181	87.94480725623583	58	127
87.89834467120181	87.94480725623583	64	127
87.95641723356009	88.00285714285714	72	127
87.95641723356009	88.00285714285714	58	127
87.95641723356009	88.00285714285714	64	127
88.01446712018141	88.06090702947846	72	127
88.01446712018141	88.06090702947846	58	127
88.01446712018141	88.06090702947846	64	127
88.06090702947846	88.11895691609978	72	127
88.06090702947846	88.11895691609978	58	127
88.06090702947846	88.11895691609978	64	127
88.11895691609978	88.16539682539683	71	127
88.11895691609978	88.16539682539683	55	127
88.11895691609978	88.16539682539683	64	127
88.1770068027211	88.21183673469388	71	127
88.1770068027211	88.21183673469388	55	127
88.1770068027211	88.21183673469388	64	127
88.21183673469388	88.2698866213152	71	127
88.21183673469388	88.2698866213152	55	127
88.21183673469388	88.2698866213152	64	127
88.2698866213152	88.31632653061224	71	127
88.2698866213152	88.31632653061224	55	127
88.2698866213152	88.31632653061224	64	127
88.32793650793651	88.37437641723356	71	127
88.32793650793651	88.37437641723356	55	127
88.32793650793651	88.37437641723356	64	127
88.37437641723356	88.39759637188209	71	127
88.37437641723356	88.39759637188209	55	127
88.37437641723356	88.39759637188209	64	127
88.39759637188209	88.42081632653061	71	127
88.39759637188209	88.42081632653061	55	127
88.39759637188209	88.42081632653061	64	127
88.43242630385488	88.47886621315193	71	127
88.43242630385488	88.47886621315193	55	127
88.43242630385488	88.47886621315193	64	127
88.47886621315193	88.53689342403628	70	127
88.47886621315193	88.53689342403628	55	127
88.47886621315193	88.53689342403628	64	127
88.53689342403628	88.5833560090703	70	127
88.53689342403628	88.5833560090703	55	127
88.53689342403628	88.5833560090703	64	127
88.59496598639456	88.62979591836735	70	127
88.59496598639456	88.62979591836735	55	127
88.59496598639456	88.62979591836735	64	127
88.62979591836735	88.68784580498867	70	127
88.62979591836735	88.68784580498867	55	127
88.62979591836735	88.68784580498867	64	127
88.68784580498867	88.73428571428572	70	127
88.68784580498867	88.73428571428572	55	127
88.68784580498867	88.73428571428572	64	127
88.74589569160997	88.7691156462585	70	127
88.74589569160997	88.7691156462585	55	127
88.74589569160997	88.7691156462585	64	127
88.7691156462585	88.80394557823129	70	127
88.7691156462585	88.80394557823129	55	127
88.7691156462585	88.80394557823129	64	127
88.80394557823129	88.85038548752834	70	127
88.80394557823129	88.85038548752834	55	127
88.80394557823129	88.85038548752834	64	127
88.85038548752834	88.89682539682539	69	127
88.85038548752834	88.89682539682539	55	127
88.85038548752834	88.89682539682539	64	127
88.89682539682539	88.92002267573696	69	127
88.89682539682539	88.92002267573696	55	127
88.89682539682539	88.92002267573696	64	127
88.92002267573696	88.95487528344671	69	127
88.92002267573696	88.95487528344671	55	127
88.92002267573696	88.95487528344671	64	127
88.96648526077098	89.01292517006803	69	127
88.96648526077098	89.01292517006803	55	127
88.96648526077098	89.01292517006803	64	127
89.02453514739229	89.07097505668935	69	127
89.02453514739229	89.07097505668935	55	127
89.02453514739229	89.07097505668935	64	127
89.07097505668935	89.1174149659864	69	127
89.07097505668935	89.1174149659864	55	127
89.07097505668935	89.1174149659864	64	127
89.12902494331065	89.17544217687075	69	127
89.12902494331065	89.17544217687075	55	127
89.12902494331065	89.17544217687075	64	127
89.18707482993197	89.23351473922902	69	127
89.18707482993197	89.23351473922902	55	127
89.18707482993197	89.23351473922902	64	127
89.23351473922902	89.29156462585034	56	127
89.23351473922902	89.29156462585034	68	127
89.23351473922902	89.29156462585034	62	127
89.29156462585034	89.33800453514739	56	127
89.29156462585034	89.33800453514739	68	127
89.29156462585034	89.33800453514739	62	127
89.34961451247166	89.38444444444444	56	127
89.34961451247166	89.38444444444444	68	127
89.34961451247166	89.38444444444444	62	127
89.38444444444444	89.41927437641723	56	127
89.38444444444444	89.41927437641723	68	127
89.38444444444444	89.41927437641723	62	127
89.41927437641723	89.44249433106576	56	127
89.41927437641723	89.44249433106576	68	127
89.41927437641723	89.44249433106576	62	127
89.44249433106576	89.46571428571428	56	127
89.44249433106576	89.46571428571428	68	127
89.44249433106576	89.46571428571428	62	127
89.46571428571428	89.5237641723356	56	127
89.46571428571428	89.5237641723356	68	127
89.46571428571428	89.5237641723356	62	127
89.5237641723356	89.57020408163265	56	127
89.5237641723356	89.57020408163265	68	127
89.5237641723356	89.57020408163265	62	127
89.58181405895692	89.62825396825397	67	127
89.58181405895692	89.62825396825397	56	127
89.58181405895692	89.62825396825397	62	127
89.62825396825397	89.68628117913832	56	127
89.62825396825397	89.68628117913832	67	127
89.62825396825397	89.68628117913832	62	127
89.68628117913832	89.73274376417234	56	127
89.68628117913832	89.73274376417234	67	127
89.68628117913832	89.73274376417234	62	127
89.7443537414966	89.79077097505669	56	127
89.7443537414966	89.79077097505669	67	127
89.7443537414966	89.79077097505669	62	127
89.79077097505669	89.84884353741496	56	127
89.79077097505669	89.84884353741496	67	127
89.79077097505669	89.84884353741496	62	127
89.84884353741496	89.89528344671201	56	127
89.84884353741496	89.89528344671201	67	127
89.84884353741496	89.89528344671201	62	127
89.90689342403628	89.95333333333333	56	127
89.90689342403628	89.95333333333333	67	127
89.90689342403628	89.95333333333333	62	127
89.95333333333333	90.01138321995465	56	127
89.95333333333333	90.01138321995465	67	127
89.95333333333333	90.01138321995465	62	127
90.01138321995465	90.0578231292517	55	127
90.01138321995465	90.0578231292517	66	127
90.01138321995465	90.0578231292517	60	127
90.069410430839	90.11587301587302	55	127
90.069410430839	90.11587301587302	66	127
90.069410430839	90.11587301587302	60	127
90.12748299319728	90.17390022675737	55	127
90.12748299319728	90.17390022675737	66	127
90.12748299319728	90.17390022675737	60	127
90.17390022675737	90.22036281179139	55	127
90.17390022675737	90.22036281179139	66	127
90.17390022675737	90.22036281179139	60	127
90.23197278911564	90.2784126984127	55	127
90.23197278911564	90.2784126984127	66	127
90.23197278911564	90.2784126984127	60	127
90.29002267573696	90.32482993197279	55	127
90.29002267573696	90.32482993197279	66	127
90.29002267573696	90.32482993197279	60	127
90.32482993197279	90.38290249433106	55	127
90.32482993197279	90.38290249433106	66	127
90.32482993197279	90.38290249433106	60	127
90.38290249433106	90.41773242630386	55	127
90.38290249433106	90.41773242630386	66	127
90.38290249433106	90.41773242630386	60	127
90.42931972789115	90.47578231292518	56	127
90.42931972789115	90.47578231292518	65	127
90.42931972789115	90.47578231292518	60	127
90.47578231292518	90.53383219954648	56	127
90.47578231292518	90.53383219954648	65	127
90.47578231292518	90.53383219954648	60	127
90.53383219954648	90.58024943310657	56	127
90.53383219954648	90.58024943310657	65	127
90.53383219954648	90.58024943310657	60	127
90.5918820861678	90.63832199546485	56	127
90.5918820861678	90.63832199546485	65	127
90.5918820861678	90.63832199546485	60	127
90.63832199546485	90.69637188208617	56	127
90.63832199546485	90.69637188208617	65	127
90.63832199546485	90.69637188208617	60	127
90.69637188208617	90.7195918367347	56	127
90.69637188208617	90.7195918367347	65	127
90.69637188208617	90.7195918367347	60	127
90.7195918367347	90.76603174603174	56	127
90.7195918367347	90.76603174603174	65	127
90.7195918367347	90.76603174603174	60	127
90.76603174603174	90.82408163265306	56	127
90.76603174603174	90.82408163265306	65	127
90.76603174603174	90.82408163265306	60	127
90.82408163265306	90.87052154195011	56	127
90.82408163265306	90.87052154195011	64	127
90.82408163265306	90.87052154195011	60	127
90.88213151927438	90.92857142857143	56	127
90.88213151927438	90.92857142857143	64	127
90.88213151927438	90.92857142857143	60	127
90.92857142857143	90.98662131519275	56	127
90.92857142857143	90.98662131519275	64	127
90.92857142857143	90.98662131519275	60	127
90.98662131519275	91.0330612244898	56	127
90.98662131519275	91.0330612244898	64	127
90.98662131519275	91.0330612244898	60	127
91.04467120181405	91.09108843537415	56	127
91.04467120181405	91.09108843537415	64	127
91.04467120181405	91.09108843537415	60	127
91.09108843537415	91.14916099773242	56	127
91.09108843537415	91.14916099773242	64	127
91.09108843537415	91.14916099773242	60	127
91.14916099773242	91.19557823129252	56	127
91.14916099773242	91.19557823129252	64	127
91.14916099773242	91.19557823129252	60	127
91.20721088435374	91.25365079365079	56	127
91.20721088435374	91.25365079365079	64	127
91.20721088435374	91.25365079365079	60	127
91.25365079365079	91.31170068027211	60	127
91.31170068027211	91.35814058956916	60	127
91.36975056689343	91.41619047619048	60	127
91.42780045351473	91.4742403628118	60	127
91.4742403628118	91.5322902494331	60	127
91.5322902494331	91.5787074829932	60	127
91.59034013605442	91.63678004535147	60	127
91.63678004535147	91.69482993197279	60	127
91.69482993197279	91.74126984126984	60	127
91.75287981859411	91.79931972789116	60	127
91.79931972789116	91.85736961451248	60	127
91.85736961451248	91.90380952380953	60	127
91.91541950113378	91.96183673469388	60	127
91.96183673469388	92.01990929705215	60	127
92.01990929705215	92.0663492063492	60	127
92.07795918367347	92.12439909297052	60	127
92.12439909297052	92.18244897959184	59	127
92.18244897959184	92.22888888888889	59	127
92.24049886621316	92.28693877551021	59	127
92.28693877551021	92.34496598639456	59	127
92.34496598639456	92.39142857142858	59	127
92.40303854875283	92.44947845804988	59	127
92.44947845804988	92.5075283446712	59	127
92.5075283446712	92.55396825396825	59	127
92.56557823129252	92.61201814058957	58	127
92.62362811791384	92.67006802721089	58	127
92.67006802721089	92.71650793650794	58	127
92.72809523809524	92.77455782312926	58	127
92.78616780045351	92.83260770975056	58	127
92.83260770975056	92.89065759637188	58	127
92.89065759637188	92.93709750566893	58	127
92.9487074829932	92.99514739229025	58	127
92.99514739229025	93.05319727891157	57	127
93.05319727891157	93.09963718820862	57	127
93.11122448979592	93.15768707482994	57	127
93.15768707482994	93.22734693877551	57	127
93.22734693877551	93.27378684807256	56	127
93.28539682539683	93.34342403628118	56	127
93.34342403628118	93.40149659863945	56	127
93.40149659863945	93.4479365079365	56	127
93.45954648526077	93.50598639455782	55	127
93.50598639455782	93.56403628117914	55	127
93.56403628117914	93.61047619047619	55	127
93.62206349206349	93.66852607709751	55	127
93.66852607709751	93.72655328798186	55	127
93.72655328798186	93.77301587301588	55	127
93.78462585034013	93.83106575963718	55	127
93.84267573696145	93.8891156462585	55	127
93.8891156462585	93.93555555555555	56	127
93.94716553287982	93.99360544217687	56	127
94.00519274376417	94.05165532879819	56	127
94.05165532879819	94.10968253968254	56	127
94.10968253968254	94.15614512471656	56	127
94.16775510204081	94.21419501133786	56	127
94.21419501133786	94.28385487528345	56	127
94.28385487528345	94.3302947845805	56	127
94.34190476190476	94.38832199546485	60	127
94.38832199546485	94.44639455782313	60	127
94.44639455782313	94.49281179138322	60	127
94.50444444444445	94.5508843537415	60	127
94.5508843537415	94.60893424036281	60	127
94.60893424036281	94.65537414965986	60	127
94.66698412698413	94.71342403628118	60	127
94.71342403628118	94.7714739229025	60	127
94.7714739229025	94.81791383219955	59	127
94.8295238095238	94.8759410430839	59	127
94.8759410430839	94.93401360544217	59	127
94.93401360544217	94.98045351473922	59	127
94.9920634920635	95.03850340136054	59	127
95.03850340136054	95.10816326530612	59	127
95.10816326530612	95.15460317460318	59	127
95.16621315192744	95.21265306122449	59	127
95.22426303854876	95.2707029478458	58	127
95.2707029478458	95.32875283446712	58	127
95.32875283446712	95.37519274376417	58	127
95.38680272108843	95.4332426303855	58	127
95.4332426303855	95.4912925170068	58	127
95.4912925170068	95.53773242630386	58	127
95.54934240362812	95.59578231292517	58	127
95.59578231292517	95.65383219954649	58	127
95.65383219954649	95.70027210884354	57	127
95.7118820861678	95.75832199546485	57	127
95.75832199546485	95.81637188208617	57	127
95.81637188208617	95.86281179138322	57	127
95.87442176870748	95.95569160997732	56	127
95.95569160997732	96.01374149659864	56	127
96.01374149659864	96.06018140589569	56	127
96.07179138321996	96.15306122448979	56	127
96.15306122448979	96.21111111111111	55	127
96.21111111111111	96.25755102040816	55	127
96.26916099773243	96.31560090702948	55	127
96.31560090702948	96.3736507936508	55	127
96.3736507936508	96.42009070294785	55	127
96.43170068027212	96.47814058956916	55	127
96.48975056689342	96.54780045351474	55	127
96.54780045351474	96.59424036281179	55	127
96.60585034013606	96.65229024943311	56	127
96.66390022675736	96.71034013605443	56	127
96.71034013605443	96.76839002267573	56	127
96.76839002267573	96.8148299319728	56	127
96.82643990929705	96.8728798185941	56	127
96.8728798185941	96.93092970521542	56	127
96.93092970521542	96.97736961451247	56	127
96.98897959183674	97.03541950113379	56	127
97.03541950113379	97.0934693877551	57	127
97.0934693877551	97.13990929705216	57	127
97.15151927437641	97.19795918367348	57	127
97.19795918367348	97.25600907029478	57	127
97.25600907029478	97.30244897959183	57	127
97.3140589569161	97.36049886621315	57	127
97.36049886621315	97.41854875283447	57	127
97.41854875283447	97.46498866213152	57	127
97.47659863945579	97.54625850340136	56	127
97.54625850340136	97.61591836734694	56	127
97.61591836734694	97.66235827664399	56	127
97.67396825396825	97.7204081632653	56	127
97.7204081632653	97.77845804988662	56	127
97.77845804988662	97.82489795918367	56	127
97.83650793650794	97.88294784580499	56	127
97.89455782312925	97.9409977324263	56	127
97.9409977324263	98.01065759637189	57	127
98.01065759637189	98.05709750566893	57	127
98.06870748299319	98.11514739229025	57	127
98.11514739229025	98.17319727891156	57	127
98.17319727891156	98.21963718820862	57	127
98.23124716553288	98.27768707482993	57	127
98.27768707482993	98.33573696145125	57	127
98.33573696145125	98.3821768707483	57	127
98.39378684807257	98.44022675736962	56	127
98.39378684807257	98.46344671201814	56	127
98.44022675736962	98.49827664399093	56	127
98.49827664399093	98.54471655328798	56	127
98.55632653061224	98.6027664399093	56	127
98.6027664399093	98.66081632653061	56	127
98.66081632653061	98.70725623582767	56	127
98.71886621315193	98.76530612244898	56	127
98.76530612244898	98.8233560090703	56	127
98.8233560090703	98.86979591836734	55	127
98.88140589569161	98.92784580498866	55	127
98.92784580498866	98.99750566893424	55	127
98.99750566893424	99.04394557823129	55	127
99.05555555555556	99.1019954648526	55	127
99.11360544217688	99.16004535147393	55	127
99.16004535147393	99.20648526077098	55	127
99.21809523809524	99.2645351473923	55	127
99.27614512471655	99.3225850340136	54	127
99.3225850340136	99.38063492063492	54	127
99.38063492063492	99.42707482993197	54	127
99.43868480725624	99.48512471655329	54	127
99.48512471655329	99.5431746031746	54	127
99.5431746031746	99.58961451247166	54	127
99.60122448979592	99.64766439909297	54	127
99.64766439909297	99.70571428571428	54	127
99.70571428571428	99.75215419501134	53	127
99.7637641723356	99.81020408163265	53	127
99.81020408163265	99.86825396825397	53	127
99.86825396825397	99.91469387755102	53	127
99.91469387755102	99.96113378684807	53	127
99.96113378684807	100.01918367346939	53	127
100.01918367346939	100.06562358276643	53	127
100.0772335600907	100.12367346938775	53	127
100.12367346938775	100.18172335600907	52	127
100.18172335600907	100.22816326530612	52	127
100.23977324263039	100.28621315192744	52	127
100.2978231292517	100.34426303854875	52	127
100.34426303854875	100.39070294784581	52	127
100.40231292517007	100.44875283446711	52	127
100.46036281179138	100.50680272108843	52	127
100.50680272108843	100.56485260770975	52	127
100.56485260770975	100.6112925170068	48	127
100.62290249433107	100.66934240362812	48	127
100.66934240362812	100.72739229024943	48	127
100.72739229024943	100.77383219954649	48	127
100.78544217687075	100.8318820861678	48	127
100.8318820861678	100.88993197278911	48	127
100.88993197278911	100.93637188208616	48	127
100.94798185941043	100.99442176870748	48	127
106.19569160997733	112.14	69	127
110.78163265306122	112.14	65	127
110.78163265306122	113.23133786848072	69	127
112.14	113.23133786848072	63	127
112.14	113.23133786848072	67	127
113.23133786848072	113.77700680272109	74	127
113.23133786848072	113.63768707482993	62	127
113.23133786848072	113.63768707482993	66	127
113.63768707482993	113.9627664399093	63	127
113.63768707482993	113.9627664399093	67	127
113.77700680272109	114.35750566893424	72	127
113.9627664399093	114.35750566893424	68	127
113.9627664399093	114.35750566893424	64	127
114.35750566893424	114.93800453514739	65	127
114.35750566893424	114.93800453514739	69	127
114.35750566893424	116.04095238095238	69	127
114.93800453514739	115.5301133786848	67	127
114.93800453514739	115.5301133786848	63	127
115.5301133786848	116.04095238095238	66	127
115.5301133786848	116.04095238095238	62	127
116.04095238095238	116.64467120181406	63	127
116.04095238095238	116.64467120181406	67	127
116.04095238095238	116.64467120181406	74	127
116.64467120181406	116.95814058956915	64	127
116.64467120181406	116.95814058956915	68	127
116.64467120181406	117.08585034013605	74	127
116.95814058956915	117.30643990929705	63	127
116.95814058956915	117.30643990929705	67	127
117.08585034013605	117.70117913832199	72	127
117.30643990929705	117.70117913832199	62	127
117.30643990929705	117.70117913832199	66	127
117.70117913832199	118.3281179138322	69	127
117.70117913832199	119.28013605442177	65	127
117.70117913832199	119.28013605442177	61	127
118.3281179138322	118.85056689342403	70	127
118.85056689342403	120.51079365079364	67	127
119.28013605442177	119.86063492063492	64	127
119.28013605442177	119.86063492063492	60	127
119.86063492063492	121.25383219954648	63	127
119.86063492063492	121.25383219954648	59	127
120.51079365079364	120.92875283446712	69	127
120.92875283446712	121.47442176870749	65	127
121.25383219954648	121.68340136054422	58	127
121.25383219954648	121.68340136054422	62	127
121.47442176870749	122.12458049886621	67	127
121.68340136054422	122.12458049886621	57	127
121.68340136054422	122.12458049886621	61	127
122.12458049886621	123.47133786848073	56	127
122.12458049886621	123.47133786848073	60	127
122.12458049886621	123.95895691609978	62	127
123.47133786848073	124.81809523809524	59	127
123.47133786848073	124.81809523809524	55	127
124.1679365079365	125.35215419501134	65	127
124.81809523809524	125.72367346938775	58	127
124.81809523809524	125.72367346938775	62	127
125.35215419501134	125.39859410430839	67	127
125.39859410430839	125.4914739229025	68	127
125.4914739229025	125.87460317460318	69	127
125.72367346938775	127.07043083900227	61	127
125.72367346938775	127.07043083900227	57	127
125.93265306122449	126.30417233560091	67	127
126.37383219954648	131.13392290249433	62	127
127.07043083900227	128.2546485260771	56	127
127.07043083900227	128.2546485260771	60	127
128.2546485260771	129.5433560090703	59	127
128.2546485260771	129.55496598639456	55	127
129.55496598639456	130.77401360544218	62	127
129.55496598639456	130.19351473922902	59	127
130.19351473922902	132.19043083900226	62	127
130.77401360544218	131.69120181405896	71	127
130.77401360544218	132.19043083900226	62	127
131.69120181405896	132.65482993197278	70	127
132.19043083900226	133.64167800453515	61	127
132.19043083900226	133.67650793650793	74	127
132.65482993197278	133.67650793650793	69	127
133.67650793650793	140.7701814058957	46	127
133.67650793650793	134.2570068027211	68	127
133.67650793650793	134.2570068027211	60	127
133.67650793650793	136.07977324263038	74	127
134.2570068027211	134.87233560090704	67	127
134.2570068027211	134.87233560090704	58	127
134.87233560090704	135.4760544217687	55	127
134.87233560090704	135.4760544217687	64	127
135.4760544217687	136.07977324263038	65	127
135.4760544217687	136.06814058956917	56	127
136.07977324263038	136.7067120181406	79	127
136.07977324263038	136.50934240362812	68	127
136.07977324263038	136.50934240362812	60	127
136.50934240362812	136.91569160997733	58	127
136.50934240362812	136.91569160997733	67	127
136.7067120181406	137.298820861678	77	127
136.91569160997733	137.298820861678	66	127
136.91569160997733	137.298820861678	57	127
137.298820861678	138.34371882086168	56	127
137.298820861678	137.89092970521543	64	127
137.298820861678	139.20285714285714	74	127
137.89092970521543	138.52947845804988	65	127
138.54108843537415	138.9938775510204	68	127
138.54108843537415	138.9938775510204	60	127
138.9938775510204	139.45827664399093	67	127
138.9938775510204	139.45827664399093	58	127
139.20285714285714	139.85301587301586	79	127
139.45827664399093	139.85301587301586	57	127
139.45827664399093	139.85301587301586	66	127
139.85301587301586	140.4683446712018	79	127
139.85301587301586	140.27097505668934	64	127
139.85301587301586	140.4683446712018	56	127
140.27097505668934	140.66569160997733	65	127
140.4683446712018	141.09528344671202	57	127
140.4683446712018	141.09528344671202	77	127
140.66569160997733	141.1068934240363	66	127
141.1068934240363	145.9830612244898	46	127
141.1068934240363	145.9830612244898	39	127
141.1068934240363	141.50163265306122	67	127
141.1068934240363	141.50163265306122	58	127
141.1068934240363	141.6990022675737	74	127
141.50163265306122	141.93120181405897	57	127
141.50163265306122	141.93120181405897	66	127
141.6990022675737	142.3259410430839	75	127
141.93120181405897	142.3259410430839	67	127
141.93120181405897	142.3259410430839	58	127
142.3259410430839	142.9644671201814	57	127
142.3259410430839	142.97609977324262	66	127
142.3259410430839	146.7841723356009	70	127
142.97609977324262	143.60303854875283	65	127
142.97609977324262	144.21836734693878	56	127
143.60303854875283	144.21836734693878	64	127
144.21836734693878	144.845306122449	63	127
144.21836734693878	145.9830612244898	55	127
144.845306122449	145.55351473922903	62	127
145.55351473922903	146.18045351473924	63	127
146.18045351473924	146.79578231292518	67	127
146.18045351473924	146.79578231292518	58	127
146.79578231292518	148.49083900226756	55	127
146.79578231292518	147.41108843537415	70	127
146.79578231292518	147.81746031746033	63	127
147.41108843537415	148.06126984126985	75	127
147.81746031746033	148.27024943310659	62	127
148.06126984126985	148.6765986394558	82	127
148.27024943310659	148.6765986394558	61	127
148.68820861678006	150.16267573696146	82	127
148.68820861678006	150.60385487528345	38	127
149.55893424036282	150.16267573696146	54	127
149.55893424036282	149.69827664399094	60	127
149.69827664399094	149.84920634920636	64	127
149.84920634920636	150.00013605442177	60	127
150.00013605442177	150.1510657596372	64	127
150.16267573696146	150.3368253968254	62	127
150.16267573696146	150.8012244897959	81	127
150.16267573696146	150.81283446712018	57	127
150.3368253968254	150.4877551020408	66	127
150.4877551020408	150.6502947845805	62	127
150.6502947845805	150.8012244897959	66	127
150.81283446712018	152.0086621315193	78	127
150.81283446712018	152.0086621315193	43	127
151.41655328798186	151.55585034013606	61	127
151.41655328798186	152.63560090702947	55	127
151.55585034013606	151.70678004535148	65	127
151.70678004535148	151.85773242630387	61	127
151.85773242630387	151.99705215419502	65	127
152.0086621315193	152.62399092970523	79	127
152.0086621315193	152.1595918367347	60	127
152.0086621315193	152.62399092970523	48	127
152.1595918367347	152.31052154195012	64	127
152.31052154195012	152.48467120181405	60	127
152.48467120181405	152.62399092970523	64	127
152.63560090702947	154.30743764172337	38	127
153.2392970521542	153.86625850340135	82	127
153.2392970521542	153.86625850340135	54	127
153.2392970521542	153.4134693877551	60	127
153.4134693877551	153.56439909297052	64	127
153.56439909297052	153.7269387755102	60	127
153.7269387755102	153.86625850340135	64	127
153.87786848072562	154.5744671201814	81	127
153.87786848072562	154.02879818594104	62	127
153.87786848072562	154.5744671201814	57	127
154.02879818594104	154.202947845805	66	127
154.202947845805	154.35387755102042	62	127
154.35387755102042	154.5744671201814	66	127
154.58607709750567	155.79351473922904	78	127
154.58607709750567	155.79351473922904	43	127
155.18979591836734	155.35233560090703	61	127
155.18979591836734	156.408820861678	55	127
155.35233560090703	155.49163265306123	65	127
155.49163265306123	155.64256235827665	61	127
155.64256235827665	155.78190476190477	65	127
155.79351473922904	156.3972335600907	79	127
155.79351473922904	156.3972335600907	48	127
155.79351473922904	155.94444444444446	60	127
155.94444444444446	156.09537414965988	64	127
156.09537414965988	156.2578911564626	60	127
156.2578911564626	156.3972335600907	64	127
156.408820861678	157.5930612244898	86	127
156.408820861678	161.43596371882086	41	127
157.01256235827665	157.5930612244898	70	127
157.01256235827665	157.5930612244898	79	127
157.5930612244898	158.13873015873017	67	127
157.5930612244898	158.13873015873017	84	127
157.5930612244898	158.13873015873017	75	127
158.13873015873017	158.73083900226757	63	127
158.13873015873017	158.73083900226757	81	127
158.13873015873017	158.73083900226757	72	127
158.73083900226757	159.2881179138322	69	127
158.73083900226757	159.2881179138322	60	127
158.73083900226757	159.2881179138322	79	127
159.29972789115646	159.88022675736963	67	127
159.29972789115646	159.88022675736963	58	127
159.29972789115646	160.46072562358276	74	127
159.88022675736963	160.46072562358276	63	127
159.88022675736963	160.46072562358276	55	127
160.46072562358276	161.01800453514738	62	127
160.46072562358276	161.01800453514738	53	127
160.46072562358276	161.01800453514738	69	127
161.01800453514738	161.6217006802721	60	127
161.01800453514738	161.6217006802721	51	127
161.01800453514738	161.63333333333333	67	127
161.63333333333333	165.0350566893424	46	127
161.63333333333333	162.2138321995465	70	127
162.22544217687076	162.79433106575965	62	127
162.22544217687076	166.66045351473923	58	127
162.22544217687076	162.79433106575965	53	127
163.39804988662132	163.99015873015873	62	127
163.39804988662132	163.99015873015873	53	127
165.0350566893424	166.66045351473923	45	127
166.66045351473923	167.15968253968254	58	127
166.66045351473923	167.15968253968254	54	127
166.66045351473923	167.75179138321997	63	127
166.66045351473923	174.96158730158731	44	127
167.1712925170068	168.10009070294785	56	127
167.1712925170068	168.10009070294785	60	127
167.75179138321997	168.85473922902494	61	127
168.26263038548754	169.23786848072564	58	127
168.26263038548754	169.23786848072564	54	127
168.85473922902494	169.23786848072564	60	127
169.23786848072564	169.57455782312925	61	127
169.41201814058957	169.82997732426304	57	127
169.41201814058957	169.82997732426304	53	127
169.57455782312925	169.8415873015873	63	127
169.8415873015873	170.39886621315193	54	127
169.8415873015873	170.39886621315193	58	127
169.8415873015873	170.96775510204083	65	127
170.4104761904762	171.3508843537415	60	127
170.4104761904762	171.3508843537415	56	127
170.96775510204083	172.03587301587302	60	127
171.54825396825396	172.39578231292518	54	127
171.54825396825396	172.39578231292518	58	127
172.03587301587302	173.16204081632654	65	127
172.60476190476192	173.15043083900227	57	127
172.60476190476192	173.15043083900227	53	127
173.16204081632654	173.77736961451248	54	127
173.16204081632654	173.77736961451248	58	127
173.16204081632654	174.19532879818595	63	127
173.77736961451248	174.39269841269842	56	127
173.77736961451248	174.39269841269842	60	127
174.39269841269842	174.97319727891156	63	127
174.39269841269842	174.97319727891156	59	127
174.97319727891156	175.50725623582767	66	127
174.97319727891156	175.50725623582767	62	127
175.50725623582767	176.11097505668934	65	127
175.50725623582767	176.09936507936507	69	127
176.11097505668934	176.6914739229025	66	127
176.11097505668934	177.27197278911564	70	127
176.7030612244898	177.86408163265307	75	127
176.7030612244898	177.27197278911564	66	127
177.27197278911564	177.86408163265307	68	127
177.27197278911564	177.86408163265307	72	127
177.86408163265307	178.96702947845804	73	127
177.86408163265307	178.43297052154196	70	127
177.86408163265307	178.43297052154196	66	127
178.43297052154196	178.96702947845804	65	127
178.43297052154196	178.96702947845804	69	127
178.96702947845804	179.52430839002267	68	127
178.96702947845804	179.52430839002267	64	127
178.96702947845804	179.36174603174604	72	127
179.36174603174604	179.7216553287982	73	127
179.52430839002267	180.1280045351474	65	127
179.52430839002267	180.1280045351474	69	127
179.7216553287982	180.1280045351474	75	127
180.1280045351474	180.54598639455781	70	127
180.1280045351474	180.54598639455781	66	127
180.1280045351474	181.1148752834467	77	127
180.54598639455781	181.1148752834467	69	127
180.54598639455781	181.1148752834467	65	127
181.1148752834467	181.70698412698414	64	127
181.1148752834467	181.70698412698414	68	127
181.1148752834467	182.1829931972789	72	127
181.70698412698414	182.1829931972789	69	127
181.70698412698414	182.1829931972789	65	127
182.1829931972789	183.1930612244898	77	127
182.1829931972789	182.74027210884353	70	127
182.1829931972789	182.74027210884353	66	127
182.74027210884353	183.1930612244898	72	127
182.74027210884353	183.1930612244898	68	127
183.1930612244898	183.65743764172336	70	127
183.1930612244898	183.65743764172336	66	127
183.1930612244898	184.01734693877552	75	127
183.65743764172336	184.21473922902496	72	127
183.65743764172336	184.21473922902496	68	127
184.21473922902496	184.74879818594104	70	127
184.21473922902496	184.74879818594104	66	127
184.74879818594104	185.18995464852608	68	127
184.74879818594104	185.18995464852608	72	127
185.18995464852608	185.7356462585034	66	127
185.18995464852608	185.7356462585034	70	127
185.7356462585034	186.21163265306123	72	127
185.7356462585034	186.21163265306123	68	127
186.22326530612244	187.4655328798186	70	127
186.22326530612244	187.4655328798186	66	127
187.4655328798186	188.7658276643991	72	127
187.4655328798186	188.7658276643991	68	127
188.11569160997732	189.7526984126984	68	127
188.7658276643991	190.35641723356008	70	127
188.7658276643991	190.35641723356008	66	127
189.7526984126984	190.6698866213152	80	127
190.69310657596372	195.73183673469387	37	127
190.69310657596372	190.86725623582765	64	127
190.69310657596372	190.86725623582765	56	127
190.69310657596372	193.3401814058957	80	127
190.86725623582765	191.01818594104307	61	127
190.86725623582765	191.01818594104307	68	127
191.05301587301588	191.21555555555557	70	127
191.05301587301588	191.21555555555557	64	127
191.21555555555557	191.42453514739228	68	127
191.21555555555557	191.42453514739228	61	127
191.43614512471655	191.59868480725623	64	127
191.43614512471655	191.59868480725623	56	127
191.59868480725623	191.74961451247165	68	127
191.59868480725623	191.74961451247165	61	127
191.76122448979592	191.9237641723356	70	127
191.76122448979592	191.9237641723356	64	127
191.9237641723356	193.32857142857142	61	127
191.9237641723356	193.32857142857142	68	127
193.3401814058957	194.44312925170067	78	127
193.3401814058957	193.50272108843538	64	127
193.3401814058957	193.50272108843538	56	127
193.50272108843538	193.66526077097507	68	127
193.50272108843538	193.66526077097507	61	127
193.6768707482993	193.839410430839	64	127
193.6768707482993	193.839410430839	70	127
193.839410430839	193.9903401360544	61	127
193.839410430839	193.9903401360544	68	127
194.00195011337868	194.16448979591837	64	127
194.00195011337868	194.16448979591837	56	127
194.16448979591837	194.3154195011338	68	127
194.16448979591837	194.3154195011338	61	127
194.3386394557823	194.501179138322	64	127
194.3386394557823	194.501179138322	70	127
194.501179138322	194.6521088435374	61	127
194.501179138322	194.6521088435374	68	127
194.67532879818594	194.83786848072563	56	127
194.67532879818594	195.11650793650793	76	127
194.67532879818594	194.83786848072563	64	127
194.83786848072563	195.00040816326532	68	127
194.83786848072563	195.00040816326532	61	127
195.01201814058956	195.18616780045352	70	127
195.01201814058956	195.18616780045352	64	127
195.11650793650793	195.58090702947845	78	127
195.18616780045352	195.36031746031745	61	127
195.18616780045352	195.36031746031745	68	127
195.37192743764172	195.5344671201814	64	127
195.37192743764172	195.5344671201814	56	127
195.5344671201814	195.7202267573696	68	127
195.5344671201814	195.7202267573696	61	127
195.58090702947845	196.1962358276644	80	127
195.73183673469387	195.90598639455783	64	127
195.73183673469387	195.90598639455783	70	127
195.90598639455783	196.18462585034013	68	127
195.90598639455783	196.18462585034013	61	127
196.1962358276644	197.61265306122448	83	127
196.1962358276644	196.33555555555554	64	127
196.1962358276644	196.33555555555554	55	127
196.1962358276644	197.85646258503402	49	127
196.33555555555554	196.45165532879818	59	127
196.33555555555554	196.45165532879818	66	127
196.45165532879818	196.56775510204082	64	127
196.45165532879818	196.56775510204082	55	127
196.56775510204082	196.6722448979592	66	127
196.56775510204082	196.6722448979592	59	127
196.68385487528346	196.79995464852607	67	127
196.68385487528346	196.79995464852607	59	127
196.79995464852607	196.92766439909298	64	127
196.79995464852607	196.92766439909298	71	127
196.92766439909298	197.0437641723356	67	127
196.92766439909298	197.0437641723356	59	127
197.0437641723356	197.14825396825398	71	127
197.0437641723356	197.14825396825398	64	127
197.15986394557822	197.27596371882086	64	127
197.15986394557822	197.27596371882086	71	127
197.27596371882086	197.3920634920635	76	127
197.27596371882086	197.3920634920635	67	127
197.3920634920635	197.5081632653061	71	127
197.3920634920635	197.5081632653061	64	127
197.5081632653061	197.61265306122448	67	127
197.5081632653061	197.61265306122448	76	127
197.62426303854875	197.74036281179139	76	127
197.62426303854875	197.74036281179139	67	127
197.74036281179139	197.85646258503402	79	127
197.74036281179139	197.85646258503402	71	127
197.85646258503402	197.9609523809524	76	127
197.85646258503402	197.9609523809524	67	127
197.9609523809524	198.077052154195	79	127
197.9609523809524	198.077052154195	71	127
198.077052154195	198.75043083900226	61	127
198.077052154195	198.19315192743764	79	127
198.077052154195	198.19315192743764	71	127
198.19315192743764	198.25120181405896	76	127
198.19315192743764	198.25120181405896	83	127
198.25120181405896	198.3324716553288	67	127
198.25120181405896	198.3324716553288	76	127
198.34408163265306	198.43696145124716	67	127
198.34408163265306	198.43696145124716	76	127
198.43696145124716	198.51823129251702	71	127
198.43696145124716	198.51823129251702	79	127
198.51823129251702	198.63433106575962	67	127
198.51823129251702	198.63433106575962	76	127
198.63433106575962	198.738820861678	64	127
198.63433106575962	198.738820861678	71	127
198.75043083900226	198.8665306122449	71	127
198.75043083900226	199.85337868480727	49	127
198.75043083900226	198.8665306122449	64	127
198.8665306122449	198.98263038548754	67	127
198.8665306122449	198.98263038548754	76	127
198.98263038548754	199.1219501133787	64	127
198.98263038548754	199.1219501133787	71	127
199.1219501133787	199.26126984126984	59	127
199.1219501133787	199.26126984126984	67	127
199.2728798185941	199.64439909297053	59	127
199.2728798185941	199.64439909297053	67	127
199.64439909297053	199.76049886621314	71	127
199.64439909297053	199.76049886621314	64	127
199.76049886621314	199.89981859410432	67	127
199.76049886621314	199.89981859410432	59	127
199.89981859410432	200.0043083900227	64	127
199.89981859410432	200.0043083900227	55	127
200.01591836734693	203.80077097505668	37	127
200.01591836734693	200.16684807256235	64	127
200.01591836734693	200.16684807256235	56	127
200.01591836734693	201.38589569161	80	127
200.16684807256235	200.36421768707484	61	127
200.16684807256235	200.35260770975057	68	127
200.36421768707484	200.5615873015873	70	127
200.36421768707484	200.5615873015873	64	127
200.5615873015873	200.7473469387755	68	127
200.5615873015873	200.75895691609978	61	127
200.75895691609978	200.9098866213152	64	127
200.75895691609978	200.9098866213152	56	127
200.9098866213152	201.03759637188207	68	127
200.9098866213152	201.04920634920634	61	127
201.04920634920634	201.20013605442176	70	127
201.04920634920634	201.20013605442176	64	127
201.20013605442176	201.37428571428572	61	127
201.20013605442176	201.37428571428572	68	127
201.38589569161	201.5368253968254	56	127
201.38589569161	202.46562358276643	78	127
201.38589569161	201.5368253968254	64	127
201.5368253968254	201.69936507936507	61	127
201.5368253968254	201.68775510204082	68	127
201.69936507936507	201.8502947845805	70	127
201.69936507936507	201.8502947845805	64	127
201.8502947845805	202.0360544217687	61	127
201.8502947845805	202.02444444444444	68	127
202.0360544217687	202.18698412698413	64	127
202.0360544217687	202.18698412698413	56	127
202.18698412698413	202.34952380952382	68	127
202.18698412698413	202.3611337868481	61	127
202.3611337868481	202.52367346938775	64	127
202.3611337868481	202.52367346938775	70	127
202.52367346938775	202.74426303854875	61	127
202.52367346938775	202.74426303854875	68	127
202.75587301587302	202.90680272108844	56	127
202.75587301587302	203.24349206349206	76	127
202.75587301587302	202.90680272108844	64	127
202.90680272108844	203.15061224489796	61	127
202.90680272108844	203.06934240362813	68	127
203.15061224489796	203.2899319727891	70	127
203.15061224489796	203.2899319727891	64	127
203.24349206349206	203.6962811791383	78	127
203.2899319727891	203.42925170068028	68	127
203.2899319727891	203.4524716553288	61	127
203.4524716553288	203.6034013605442	64	127
203.4524716553288	203.6034013605442	56	127
203.6034013605442	203.78916099773244	68	127
203.6034013605442	203.80077097505668	61	127
203.6962811791383	204.18390022675737	80	127
203.80077097505668	204.02136054421769	64	127
203.80077097505668	204.02136054421769	70	127
204.02136054421769	204.1722902494331	61	127
204.02136054421769	204.1722902494331	68	127
204.18390022675737	205.623537414966	83	127
204.18390022675737	206.7148752834467	36	127
204.18390022675737	204.34643990929706	64	127
204.18390022675737	204.34643990929706	55	127
204.34643990929706	204.46253968253967	66	127
204.34643990929706	204.46253968253967	59	127
204.46253968253967	204.59024943310658	64	127
204.46253968253967	204.59024943310658	55	127
204.59024943310658	204.70634920634922	66	127
204.59024943310658	204.70634920634922	59	127
204.71795918367346	204.8340589569161	68	127
204.71795918367346	204.8340589569161	59	127
204.8340589569161	204.95015873015873	72	127
204.8340589569161	204.95015873015873	64	127
204.95015873015873	205.06625850340137	68	127
204.95015873015873	205.06625850340137	59	127
205.06625850340137	205.17074829931974	64	127
205.06625850340137	205.17074829931974	72	127
205.18235827664398	205.28684807256235	72	127
205.18235827664398	205.28684807256235	64	127
205.28684807256235	205.402947845805	76	127
205.28684807256235	205.402947845805	67	127
205.402947845805	205.51904761904763	72	127
205.402947845805	205.51904761904763	64	127
205.51904761904763	205.623537414966	76	127
205.51904761904763	205.623537414966	67	127
205.63514739229024	205.75124716553287	67	127
205.63514739229024	205.75124716553287	76	127
205.75124716553287	205.8673469387755	71	127
205.75124716553287	205.8673469387755	80	127
205.8673469387755	205.9602267573696	67	127
205.8673469387755	205.9602267573696	76	127
205.9602267573696	206.06471655328798	71	127
205.9602267573696	206.06471655328798	80	127
206.07632653061225	206.18081632653062	71	127
206.07632653061225	206.18081632653062	80	127
206.18081632653062	206.285306122449	83	127
206.18081632653062	206.285306122449	76	127
206.285306122449	206.4014058956916	80	127
206.285306122449	206.4014058956916	71	127
206.4014058956916	206.49428571428572	67	127
206.4014058956916	206.49428571428572	76	127
206.50589569160996	206.5987755102041	67	127
206.50589569160996	206.5987755102041	76	127
206.5987755102041	206.7148752834467	80	127
206.5987755102041	206.7148752834467	71	127
206.7148752834467	206.81936507936507	76	127
206.7148752834467	206.81936507936507	67	127
206.81936507936507	206.92385487528344	71	127
206.81936507936507	206.92385487528344	64	127
206.9354648526077	207.0283446712018	71	127
206.9354648526077	207.0283446712018	64	127
207.0283446712018	207.14444444444445	76	127
207.0283446712018	207.14444444444445	67	127
207.14444444444445	207.26054421768708	71	127
207.14444444444445	207.26054421768708	64	127
207.26054421768708	207.36503401360545	68	127
207.26054421768708	207.36503401360545	59	127
207.3766439909297	207.49274376417233	59	127
207.3766439909297	207.49274376417233	68	127
207.49274376417233	207.60884353741497	64	127
207.49274376417233	207.60884353741497	71	127
207.60884353741497	207.73655328798185	59	127
207.60884353741497	207.73655328798185	68	127
207.73655328798185	207.86426303854876	64	127
207.73655328798185	207.87587301587303	55	127
207.87587301587303	208.46798185941043	55	127
207.87587301587303	207.95714285714286	59	127
207.87587301587303	207.95714285714286	66	127
207.95714285714286	208.02680272108844	64	127
207.95714285714286	208.02680272108844	55	127
208.02680272108844	208.096462585034	66	127
208.02680272108844	208.096462585034	59	127
208.096462585034	208.17773242630386	64	127
208.096462585034	208.17773242630386	55	127
208.17773242630386	208.24739229024942	59	127
208.17773242630386	208.24739229024942	66	127
208.24739229024942	208.32866213151928	55	127
208.24739229024942	208.32866213151928	64	127
208.32866213151928	208.39832199546484	66	127
208.32866213151928	208.39832199546484	59	127
208.39832199546484	208.49120181405897	55	127
208.39832199546484	208.49120181405897	64	127
208.49120181405897	208.56086167800453	59	127
208.49120181405897	208.56086167800453	66	127
208.56086167800453	208.6653514739229	55	127
208.56086167800453	208.6653514739229	64	127
208.6653514739229	208.73501133786849	59	127
208.6653514739229	208.73501133786849	66	127
208.73501133786849	208.81628117913831	55	127
208.73501133786849	208.81628117913831	64	127
208.81628117913831	208.8859410430839	59	127
208.81628117913831	208.8859410430839	66	127
208.8859410430839	209.08331065759637	55	127
208.8859410430839	209.08331065759637	64	127
209.08331065759637	209.2342403628118	59	127
209.08331065759637	209.2342403628118	66	127
209.2342403628118	209.3619501133787	55	127
209.2342403628118	209.3619501133787	64	127
209.3619501133787	209.44321995464853	66	127
209.3619501133787	209.44321995464853	59	127
209.44321995464853	209.51287981859412	55	127
209.44321995464853	209.51287981859412	64	127
209.51287981859412	209.59414965986394	59	127
209.51287981859412	209.59414965986394	66	127
209.59414965986394	209.66380952380953	55	127
209.59414965986394	209.66380952380953	64	127
209.66380952380953	209.74507936507936	59	127
209.66380952380953	209.74507936507936	66	127
209.74507936507936	209.81473922902495	55	127
209.74507936507936	209.81473922902495	64	127
209.81473922902495	209.93083900226756	59	127
209.81473922902495	209.93083900226756	66	127
209.93083900226756	210.00049886621315	55	127
209.93083900226756	210.00049886621315	64	127
210.00049886621315	210.08176870748298	59	127
210.00049886621315	210.08176870748298	66	127
210.08176870748298	210.19786848072562	55	127
210.08176870748298	210.19786848072562	64	127
210.19786848072562	210.2675283446712	59	127
210.19786848072562	210.2675283446712	66	127
210.2675283446712	210.34879818594104	55	127
210.2675283446712	210.34879818594104	64	127
210.34879818594104	210.41845804988662	59	127
210.34879818594104	210.41845804988662	66	127
210.41845804988662	210.49972789115645	55	127
210.41845804988662	210.49972789115645	64	127
210.49972789115645	210.56938775510204	59	127
210.49972789115645	210.56938775510204	66	127
210.56938775510204	210.65065759637187	55	127
210.56938775510204	210.65065759637187	64	127
210.65065759637187	210.743537414966	59	127
210.65065759637187	210.743537414966	66	127
210.743537414966	211.04539682539684	55	127
210.743537414966	211.04539682539684	64	127
211.04539682539684	211.1150566893424	59	127
211.04539682539684	211.1150566893424	66	127
211.1150566893424	211.19632653061225	55	127
211.1150566893424	211.19632653061225	64	127
211.19632653061225	211.27759637188208	59	127
211.19632653061225	211.27759637188208	66	127
211.27759637188208	211.38208616780045	55	127
211.27759637188208	211.38208616780045	64	127
211.38208616780045	211.45174603174604	66	127
211.38208616780045	211.45174603174604	59	127
211.45174603174604	211.5214058956916	55	127
211.45174603174604	211.5214058956916	64	127
211.5214058956916	211.62589569160997	66	127
211.5214058956916	211.62589569160997	59	127
211.62589569160997	211.71877551020407	55	127
211.62589569160997	211.71877551020407	64	127
211.71877551020407	211.80004535147393	59	127
211.71877551020407	211.80004535147393	66	127
211.80004535147393	211.86970521541951	55	127
211.80004535147393	211.86970521541951	64	127
211.86970521541951	211.95097505668934	59	127
211.86970521541951	211.95097505668934	66	127
211.95097505668934	212.02063492063493	55	127
211.95097505668934	212.02063492063493	64	127
212.02063492063493	212.10190476190476	59	127
212.02063492063493	212.10190476190476	66	127
212.10190476190476	212.15995464852608	55	127
212.10190476190476	212.15995464852608	64	127
212.17156462585035	212.25283446712018	59	127
212.17156462585035	213.5647619047619	67	127
212.17156462585035	212.25283446712018	66	127
212.25283446712018	212.33410430839	64	127
212.25283446712018	212.33410430839	55	127
212.33410430839	212.41537414965987	66	127
212.33410430839	212.41537414965987	59	127
212.41537414965987	212.4966439909297	64	127
212.41537414965987	212.4966439909297	55	127
212.4966439909297	212.57791383219956	66	127
212.4966439909297	212.57791383219956	59	127
212.57791383219956	212.65918367346939	64	127
212.57791383219956	212.65918367346939	55	127
212.65918367346939	212.75206349206348	66	127
212.65918367346939	212.75206349206348	59	127
212.75206349206348	212.84494331065758	64	127
212.75206349206348	212.84494331065758	55	127
212.84494331065758	212.92621315192744	59	127
212.84494331065758	212.92621315192744	66	127
212.92621315192744	213.00748299319727	55	127
212.92621315192744	213.00748299319727	64	127
213.00748299319727	213.10036281179137	59	127
213.00748299319727	213.10036281179137	66	127
213.10036281179137	213.18163265306123	64	127
213.10036281179137	213.18163265306123	55	127
213.18163265306123	213.26290249433106	59	127
213.18163265306123	213.26290249433106	66	127
213.26290249433106	213.35578231292516	64	127
213.26290249433106	213.35578231292516	55	127
213.35578231292516	213.4718820861678	59	127
213.35578231292516	213.4718820861678	66	127
213.4718820861678	213.5647619047619	55	127
213.4718820861678	213.5647619047619	64	127
213.5647619047619	215.422358276644	66	127
213.5647619047619	213.64603174603175	59	127
213.5647619047619	213.64603174603175	66	127
213.64603174603175	213.73891156462585	64	127
213.64603174603175	213.73891156462585	55	127
213.73891156462585	213.82018140589568	66	127
213.73891156462585	213.82018140589568	59	127
213.82018140589568	213.9130612244898	64	127
213.82018140589568	213.9130612244898	55	127
213.9130612244898	213.99433106575964	66	127
213.9130612244898	213.99433106575964	59	127
213.99433106575964	214.08721088435374	64	127
213.99433106575964	214.08721088435374	55	127
214.08721088435374	214.1917006802721	66	127
214.08721088435374	214.1917006802721	59	127
214.1917006802721	214.2845804988662	64	127
214.1917006802721	214.2845804988662	55	127
214.2845804988662	214.36585034013606	66	127
214.2845804988662	214.36585034013606	59	127
214.36585034013606	214.45873015873016	64	127
214.36585034013606	214.45873015873016	55	127
214.45873015873016	214.55160997732426	66	127
214.45873015873016	214.55160997732426	59	127
214.55160997732426	214.64448979591836	55	127
214.55160997732426	214.64448979591836	64	127
214.64448979591836	214.73736961451246	59	127
214.64448979591836	214.73736961451246	66	127
214.73736961451246	214.86507936507937	64	127
214.73736961451246	214.86507936507937	55	127
214.86507936507937	215.3294784580499	66	127
214.86507936507937	215.3294784580499	59	127
215.3294784580499	215.422358276644	55	127
215.3294784580499	215.422358276644	64	127
215.422358276644	215.5152380952381	59	127
215.422358276644	215.96802721088434	64	127
215.422358276644	215.5152380952381	66	127
215.5152380952381	215.61972789115646	64	127
215.5152380952381	215.61972789115646	55	127
215.61972789115646	215.74743764172337	59	127
215.61972789115646	215.74743764172337	66	127
215.74743764172337	215.84031746031746	55	127
215.74743764172337	215.84031746031746	64	127
215.84031746031746	215.93319727891156	66	127
215.84031746031746	215.93319727891156	59	127
215.93319727891156	216.03768707482993	55	127
215.93319727891156	216.03768707482993	64	127
215.96802721088434	216.4904761904762	66	127
216.03768707482993	216.13056689342403	66	127
216.03768707482993	216.13056689342403	59	127
216.13056689342403	216.22344671201813	64	127
216.13056689342403	216.22344671201813	55	127
216.22344671201813	216.3279365079365	59	127
216.22344671201813	216.3279365079365	66	127
216.3279365079365	216.4208163265306	64	127
216.3279365079365	216.4208163265306	55	127
216.4208163265306	216.52530612244897	59	127
216.4208163265306	216.52530612244897	66	127
216.4904761904762	217.01292517006803	67	127
216.52530612244897	216.62979591836734	64	127
216.52530612244897	216.62979591836734	55	127
216.62979591836734	216.72267573696146	66	127
216.62979591836734	216.72267573696146	59	127
216.72267573696146	216.82716553287983	64	127
216.72267573696146	216.82716553287983	55	127
216.82716553287983	216.93165532879817	59	127
216.82716553287983	216.93165532879817	66	127
216.93165532879817	217.03614512471654	64	127
216.93165532879817	217.01292517006803	55	127
217.03614512471654	217.4308843537415	71	127
217.03614512471654	218.04621315192745	59	127
217.4308843537415	217.7443537414966	64	127
217.7443537414966	217.89528344671203	59	127
217.89528344671203	218.04621315192745	55	127
218.0578231292517	218.20875283446713	55	127
218.20875283446713	218.35968253968255	59	127
218.35968253968255	218.5222222222222	64	127
218.5222222222222	218.6615419501134	71	127
218.67315192743763	218.82408163265305	71	127
218.82408163265305	218.998231292517	64	127
218.998231292517	219.14916099773242	59	127
219.14916099773242	219.30009070294784	55	127
219.3117006802721	219.46263038548753	55	127
219.46263038548753	219.60195011337868	59	127
219.60195011337868	219.74126984126985	64	127
219.74126984126985	219.880589569161	71	127
219.89219954648527	220.00829931972788	71	127
220.00829931972788	220.1592290249433	64	127
220.1592290249433	220.31015873015872	59	127
220.31015873015872	220.4494784580499	55	127
220.46108843537414	220.61201814058956	55	127
220.61201814058956	220.6932879818594	59	127
220.6932879818594	220.8209977324263	64	127
220.8209977324263	220.90226757369615	71	127
220.90226757369615	221.0415873015873	71	127
221.0415873015873	221.19251700680272	64	127
221.19251700680272	221.33183673469387	59	127
221.33183673469387	221.424716553288	55	127
221.43632653061223	221.58725623582765	55	127
221.58725623582765	221.72657596371883	59	127
221.72657596371883	221.88911564625852	64	127
221.88911564625852	222.0168253968254	71	127
222.02843537414967	222.17936507936508	71	127
222.17936507936508	222.3302947845805	64	127
222.3302947845805	222.48122448979592	59	127
222.48122448979592	222.6089342403628	55	127
222.62054421768707	222.7714739229025	55	127
222.7714739229025	222.9224036281179	59	127
222.9224036281179	223.07333333333332	64	127
223.07333333333332	223.2126530612245	71	127
223.22426303854874	223.37519274376416	71	127
223.37519274376416	223.52612244897958	64	127
223.52612244897958	223.67705215419502	59	127
223.67705215419502	223.81637188208617	55	127
223.82798185941044	223.9905215419501	55	127
223.9905215419501	224.1530612244898	59	127
224.1530612244898	224.32721088435375	64	127
224.32721088435375	224.4665306122449	71	127
224.47814058956916	224.62907029478458	70	127
224.62907029478458	224.78	64	127
224.78	224.93092970521542	58	127
224.93092970521542	225.16312925170067	55	127
225.17473922902494	225.32566893424035	55	127
225.32566893424035	225.47659863945577	58	127
225.47659863945577	225.662358276644	64	127
225.662358276644	225.80167800453515	70	127
225.81328798185942	226.08031746031747	70	127
225.81328798185942	229.57492063492063	42	127
226.08031746031747	226.24285714285713	64	127
226.24285714285713	226.39378684807255	58	127
226.39378684807255	226.53310657596373	55	127
226.57954648526078	226.7536961451247	55	127
226.7536961451247	226.9742857142857	58	127
226.9742857142857	227.20648526077096	64	127
227.20648526077096	227.33419501133787	70	127
227.34580498866214	227.7057142857143	70	127
227.7057142857143	227.8914739229025	64	127
227.8914739229025	228.08884353741496	58	127
228.08884353741496	228.28621315192743	55	127
228.2978231292517	228.48358276643992	55	127
228.48358276643992	228.75061224489795	58	127
228.75061224489795	229.1801814058957	64	127
229.1801814058957	229.55170068027212	70	127
229.57492063492063	229.6561904761905	57	127
229.57492063492063	247.66326530612244	41	127
229.57492063492063	229.69102040816327	57	127
229.6561904761905	229.73746031746032	69	127
229.69102040816327	229.79551020408164	63	127
229.7490702947846	232.10589569161	81	127
229.7490702947846	232.10589569161	69	127
229.79551020408164	229.9	69	127
229.91160997732428	230.03931972789115	69	127
230.03931972789115	230.1554195011338	63	127
230.1554195011338	230.27151927437643	57	127
230.28312925170067	230.3992290249433	57	127
230.3992290249433	230.51532879818595	63	127
230.51532879818595	230.60820861678005	69	127
230.61981859410432	230.73591836734693	69	127
230.73591836734693	230.85201814058956	63	127
230.85201814058956	230.94489795918366	57	127
230.95650793650793	231.0609977324263	57	127
231.0609977324263	231.16548752834467	63	127
231.16548752834467	231.26997732426304	69	127
231.26997732426304	231.3744671201814	69	127
231.3744671201814	231.51378684807256	63	127
231.51378684807256	231.61827664399092	57	127
231.61827664399092	231.73437641723356	57	127
231.73437641723356	231.83886621315193	63	127
231.83886621315193	231.9433560090703	69	127
231.9433560090703	232.05945578231294	69	127
232.05945578231294	232.1639455782313	63	127
232.10589569161	233.12757369614513	86	127
232.10589569161	233.12757369614513	74	127
232.1639455782313	232.26843537414965	57	127
232.26843537414965	232.38453514739228	57	127
232.38453514739228	232.50063492063492	63	127
232.50063492063492	232.61673469387756	69	127
232.61673469387756	232.73283446712017	69	127
232.73283446712017	232.8489342403628	63	127
232.8489342403628	232.95342403628118	57	127
232.96503401360545	233.06952380952382	57	127
233.06952380952382	233.17401360544218	63	127
233.12757369614513	233.70807256235827	72	127
233.12757369614513	233.70807256235827	84	127
233.17401360544218	233.27850340136055	69	127
233.2901133786848	233.39460317460316	69	127
233.39460317460316	233.5803628117914	63	127
233.5803628117914	233.70807256235827	57	127
233.71968253968254	236.30870748299319	81	127
233.71968253968254	233.84739229024945	57	127
233.71968253968254	236.30870748299319	69	127
233.84739229024945	233.96349206349205	63	127
233.96349206349205	234.0795918367347	69	127
234.09120181405896	234.24213151927438	69	127
234.24213151927438	234.35823129251702	63	127
234.35823129251702	234.45111111111112	57	127
234.4627210884354	234.56721088435373	57	127
234.56721088435373	234.68331065759637	63	127
234.68331065759637	234.77619047619046	69	127
234.78780045351473	234.8922902494331	69	127
234.8922902494331	235.00839002267574	63	127
235.00839002267574	235.10126984126984	57	127
235.1128798185941	235.21736961451248	57	127
235.21736961451248	235.33346938775512	63	127
235.33346938775512	235.43795918367346	69	127
235.43795918367346	235.5540589569161	69	127
235.5540589569161	235.681768707483	63	127
235.681768707483	235.78625850340137	57	127
235.78625850340137	235.90235827664398	57	127
235.90235827664398	236.00684807256235	63	127
236.00684807256235	236.11133786848072	69	127
236.11133786848072	236.22743764172336	69	127
236.22743764172336	236.3667573696145	63	127
236.30870748299319	236.86598639455784	74	127
236.30870748299319	236.86598639455784	86	127
236.3667573696145	236.5292970521542	57	127
236.5292970521542	236.64539682539683	57	127
236.64539682539683	236.76149659863947	63	127
236.76149659863947	236.86598639455784	69	127
236.86598639455784	237.40004535147392	86	127
236.86598639455784	236.98208616780045	69	127
236.86598639455784	237.40004535147392	74	127
236.98208616780045	237.08657596371881	63	127
237.08657596371881	237.21428571428572	57	127
237.22589569160996	237.33038548752833	57	127
237.33038548752833	237.4697052154195	63	127
237.40004535147392	238.0037641723356	72	127
237.40004535147392	238.0037641723356	84	127
237.4697052154195	237.6554648526077	69	127
237.66707482993198	237.77156462585035	69	127
237.77156462585035	237.89927437641722	63	127
237.89927437641722	238.0037641723356	57	127
238.01537414965986	238.61909297052154	81	127
238.01537414965986	238.1314739229025	55	127
238.01537414965986	238.61909297052154	69	127
238.1314739229025	238.34045351473924	62	127
238.34045351473924	238.4449433106576	70	127
238.45655328798185	238.56104308390022	70	127
238.56104308390022	238.67714285714285	62	127
238.61909297052154	239.1299319727891	70	127
238.61909297052154	239.1299319727891	82	127
238.67714285714285	238.78163265306122	55	127
238.7932426303855	238.89773242630386	55	127
238.89773242630386	239.02544217687074	62	127
239.02544217687074	239.1299319727891	70	127
239.14154195011338	239.24603174603175	70	127
239.14154195011338	240.75532879818593	67	127
239.14154195011338	240.75532879818593	79	127
239.24603174603175	239.37374149659863	62	127
239.37374149659863	239.478231292517	55	127
239.478231292517	239.58272108843536	55	127
239.58272108843536	239.72204081632654	62	127
239.72204081632654	239.8265306122449	70	127
239.8265306122449	239.94263038548752	70	127
239.94263038548752	240.0471201814059	62	127
240.0471201814059	240.22126984126984	55	127
240.22126984126984	240.34897959183672	55	127
240.34897959183672	240.4534693877551	62	127
240.4534693877551	240.55795918367346	70	127
240.55795918367346	240.69727891156464	70	127
240.69727891156464	240.81337868480725	62	127
240.75532879818593	241.25455782312926	81	127
240.75532879818593	241.25455782312926	69	127
240.81337868480725	240.91786848072562	55	127
240.91786848072562	241.03396825396825	55	127
241.03396825396825	241.1500680272109	62	127
241.1500680272109	241.25455782312926	70	127
241.27777777777777	243.13537414965987	77	127
241.27777777777777	241.38226757369614	70	127
241.27777777777777	243.13537414965987	65	127
241.38226757369614	241.5796371882086	62	127
241.5796371882086	241.73056689342403	55	127
241.7421768707483	241.84666666666666	55	127
241.84666666666666	241.9627664399093	62	127
241.9627664399093	242.07886621315194	70	127
242.09047619047618	242.19496598639455	70	127
242.19496598639455	242.29945578231292	62	127
242.29945578231292	242.4039455782313	55	127
242.41555555555556	242.52004535147393	55	127
242.52004535147393	242.8683446712018	62	127
242.8683446712018	242.9612244897959	71	127
242.97283446712018	243.07732426303855	71	127
243.07732426303855	243.20503401360546	62	127
243.13537414965987	243.64621315192744	67	127
243.13537414965987	243.64621315192744	79	127
243.20503401360546	243.32113378684807	55	127
243.33274376417233	243.4372335600907	55	127
243.4372335600907	243.55333333333334	62	127
243.55333333333334	243.64621315192744	71	127
243.6578231292517	243.76231292517008	71	127
243.6578231292517	247.32657596371882	62	127
243.6578231292517	247.32657596371882	74	127
243.76231292517008	243.8784126984127	62	127
243.8784126984127	243.99451247165533	55	127
243.99451247165533	244.12222222222223	55	127
244.12222222222223	244.26154195011338	62	127
244.26154195011338	244.36603174603175	71	127
244.36603174603175	244.4821315192744	71	127
244.4821315192744	244.58662131519273	62	127
244.58662131519273	244.6911111111111	55	127
244.6911111111111	244.80721088435374	55	127
244.80721088435374	244.9117006802721	62	127
244.9117006802721	245.01619047619047	71	127
245.01619047619047	245.1322902494331	71	127
245.1322902494331	245.39931972789117	62	127
245.39931972789117	245.50380952380954	55	127
245.50380952380954	245.63151927437642	55	127
245.63151927437642	246.7344671201814	62	127
246.7344671201814	246.83895691609976	71	127
246.85056689342403	246.9550566893424	71	127
246.9550566893424	247.05954648526077	62	127
247.05954648526077	247.16403628117914	55	127
247.1756462585034	247.28013605442177	55	127
247.28013605442177	247.38462585034014	62	127
247.3381859410431	247.81419501133786	86	127
247.3381859410431	247.81419501133786	74	127
247.38462585034014	247.4891156462585	71	127
247.50072562358275	247.60521541950112	71	127
247.60521541950112	247.7097052154195	62	127
247.7097052154195	247.81419501133786	55	127
247.82580498866213	247.89546485260772	56	127
247.82580498866213	247.89546485260772	65	127
247.82580498866213	250.5309297052154	86	127
247.82580498866213	250.5309297052154	62	127
247.907074829932	247.98834467120182	65	127
247.907074829932	247.98834467120182	56	127
247.99995464852609	248.06961451247165	56	127
247.99995464852609	248.06961451247165	65	127
248.08122448979591	248.1508843537415	56	127
248.08122448979591	248.1508843537415	65	127
248.16249433106577	248.23215419501133	56	127
248.16249433106577	248.23215419501133	65	127
248.2437641723356	248.32503401360543	56	127
248.2437641723356	248.32503401360543	65	127
248.3366439909297	248.4063038548753	56	127
248.3366439909297	248.4063038548753	65	127
248.41791383219956	248.51079365079366	56	127
248.41791383219956	248.51079365079366	65	127
248.5224036281179	248.5920634920635	56	127
248.5224036281179	248.5920634920635	65	127
248.60367346938776	248.67333333333335	56	127
248.60367346938776	248.67333333333335	65	127
248.6849433106576	248.75460317460318	56	127
248.6849433106576	248.75460317460318	65	127
248.76621315192745	248.835873015873	56	127
248.76621315192745	248.835873015873	65	127
248.84748299319727	248.91714285714286	56	127
248.84748299319727	248.91714285714286	65	127
248.92875283446713	248.9984126984127	56	127
248.92875283446713	248.9984126984127	65	127
249.01002267573696	249.07968253968255	56	127
249.01002267573696	249.07968253968255	65	127
249.0912925170068	249.16095238095238	65	127
249.0912925170068	249.16095238095238	56	127
249.17256235827665	249.2422222222222	56	127
249.17256235827665	249.2422222222222	65	127
249.25383219954648	249.32349206349207	56	127
249.25383219954648	249.32349206349207	65	127
249.33510204081634	249.4047619047619	56	127
249.33510204081634	249.4047619047619	65	127
249.41637188208617	249.48603174603176	56	127
249.41637188208617	249.48603174603176	65	127
249.497641723356	249.56730158730159	65	127
249.497641723356	249.56730158730159	56	127
249.57891156462586	249.64857142857142	56	127
249.57891156462586	249.64857142857142	65	127
249.66018140589568	249.72984126984127	56	127
249.66018140589568	249.72984126984127	65	127
249.74145124716554	249.8111111111111	56	127
249.74145124716554	249.8111111111111	65	127
249.82272108843537	249.89238095238096	65	127
249.82272108843537	249.89238095238096	56	127
249.91560090702947	249.98526077097506	56	127
249.91560090702947	249.98526077097506	65	127
249.99687074829933	250.0665306122449	56	127
249.99687074829933	250.0665306122449	65	127
250.07814058956916	250.14780045351475	65	127
250.07814058956916	250.14780045351475	56	127
250.159410430839	250.25229024943312	56	127
250.159410430839	250.25229024943312	65	127
250.26390022675736	250.33356009070295	65	127
250.26390022675736	250.33356009070295	56	127
250.35678004535148	250.42643990929705	65	127
250.35678004535148	250.42643990929705	56	127
250.44965986394558	250.5077097505669	56	127
250.44965986394558	250.5077097505669	65	127
250.5309297052154	251.12303854875285	67	127
250.5309297052154	250.58897959183673	59	127
250.5309297052154	250.58897959183673	68	127
250.5309297052154	251.12303854875285	91	127
250.61219954648527	250.67024943310656	68	127
250.61219954648527	250.67024943310656	59	127
250.6934693877551	250.73990929705215	59	127
250.6934693877551	250.73990929705215	68	127
250.7631292517007	250.821179138322	59	127
250.7631292517007	250.821179138322	68	127
250.84439909297052	250.89083900226757	59	127
250.84439909297052	250.89083900226757	68	127
250.9140589569161	250.96049886621316	68	127
250.9140589569161	250.96049886621316	59	127
250.97210884353743	251.03015873015872	59	127
250.97210884353743	251.03015873015872	68	127
251.041768707483	251.11142857142858	59	127
251.041768707483	251.11142857142858	68	127
251.12303854875285	251.74997732426303	65	127
251.12303854875285	251.74997732426303	89	127
251.12303854875285	251.1926984126984	59	127
251.12303854875285	251.1926984126984	68	127
251.1926984126984	251.262358276644	59	127
251.1926984126984	251.262358276644	68	127
251.27396825396826	251.34362811791382	59	127
251.27396825396826	251.34362811791382	68	127
251.3552380952381	251.42489795918368	59	127
251.3552380952381	251.42489795918368	68	127
251.43650793650792	251.5061678004535	68	127
251.43650793650792	251.5061678004535	59	127
251.51777777777778	251.58743764172337	68	127
251.51777777777778	251.58743764172337	59	127
251.5990476190476	251.6687074829932	59	127
251.5990476190476	251.6687074829932	68	127
251.68031746031747	251.74997732426303	59	127
251.68031746031747	251.74997732426303	68	127
251.7615873015873	253.79333333333332	86	127
251.7615873015873	251.8312471655329	56	127
251.7615873015873	251.8312471655329	65	127
251.7615873015873	253.79333333333332	62	127
251.84285714285716	251.91251700680272	65	127
251.84285714285716	251.91251700680272	56	127
251.92412698412699	251.99378684807257	56	127
251.92412698412699	251.99378684807257	65	127
252.00539682539682	252.0750566893424	56	127
252.00539682539682	252.0750566893424	65	127
252.08666666666667	252.1679365079365	56	127
252.08666666666667	252.1679365079365	65	127
252.17954648526077	252.24920634920636	56	127
252.17954648526077	252.24920634920636	65	127
252.2608163265306	252.3304761904762	56	127
252.2608163265306	252.3304761904762	65	127
252.37691609977324	252.44657596371883	65	127
252.37691609977324	252.44657596371883	56	127
252.4581859410431	252.52784580498866	56	127
252.4581859410431	252.52784580498866	65	127
252.53945578231293	252.63233560090703	56	127
252.53945578231293	252.63233560090703	65	127
252.6439455782313	252.71360544217688	56	127
252.6439455782313	252.71360544217688	65	127
252.72521541950113	252.79487528344671	56	127
252.72521541950113	252.79487528344671	65	127
252.80648526077098	252.87614512471654	65	127
252.80648526077098	252.87614512471654	56	127
252.8877551020408	252.9574149659864	56	127
252.8877551020408	252.9574149659864	65	127
252.96902494331067	253.03868480725623	56	127
252.96902494331067	253.03868480725623	65	127
253.0502947845805	253.1199546485261	56	127
253.0502947845805	253.1199546485261	65	127
253.13156462585033	253.20122448979592	56	127
253.13156462585033	253.20122448979592	65	127
253.2128344671202	253.29410430839002	56	127
253.2128344671202	253.29410430839002	65	127
253.3057142857143	253.37537414965988	65	127
253.3057142857143	253.37537414965988	56	127
253.38698412698412	253.4566439909297	56	127
253.38698412698412	253.4566439909297	65	127
253.46825396825398	253.53791383219954	56	127
253.46825396825398	253.53791383219954	65	127
253.5495238095238	253.6191836734694	56	127
253.5495238095238	253.6191836734694	65	127
253.63079365079366	253.70045351473922	65	127
253.63079365079366	253.70045351473922	56	127
253.7120634920635	253.78172335600908	65	127
253.7120634920635	253.78172335600908	56	127
253.79333333333332	254.16485260770975	91	127
253.79333333333332	253.8629931972789	56	127
253.79333333333332	253.8629931972789	65	127
253.79333333333332	254.16485260770975	67	127
253.87460317460318	253.9326530612245	65	127
253.87460317460318	253.9326530612245	56	127
253.94426303854874	254.01392290249433	56	127
253.94426303854874	254.01392290249433	65	127
254.0255328798186	254.0487528344671	65	127
254.0255328798186	254.0487528344671	56	127
254.0487528344671	254.06036281179138	56	127
254.0487528344671	254.06036281179138	65	127
254.07197278911565	254.09519274376416	56	127
254.07197278911565	254.09519274376416	65	127
254.10680272108843	254.16485260770975	56	127
254.10680272108843	254.16485260770975	65	127
254.1880725623583	254.67569160997732	91	127
254.1880725623583	254.2461224489796	59	127
254.1880725623583	254.2461224489796	68	127
254.1880725623583	254.6873015873016	67	127
254.26934240362812	254.29256235827665	68	127
254.26934240362812	254.29256235827665	59	127
254.31578231292517	254.37383219954648	59	127
254.31578231292517	254.37383219954648	68	127
254.37383219954648	254.42027210884353	59	127
254.37383219954648	254.42027210884353	68	127
254.44349206349207	254.5015419501134	59	127
254.44349206349207	254.5015419501134	68	127
254.5247619047619	254.5944217687075	59	127
254.5247619047619	254.5944217687075	68	127
254.60603174603173	254.67569160997732	68	127
254.60603174603173	254.67569160997732	59	127
254.6873015873016	254.75696145124718	59	127
254.6873015873016	254.75696145124718	68	127
254.6873015873016	255.32585034013604	89	127
254.6873015873016	255.32585034013604	65	127
254.76857142857142	254.838231292517	68	127
254.76857142857142	254.838231292517	59	127
254.84984126984128	254.91950113378684	59	127
254.84984126984128	254.91950113378684	68	127
254.9311111111111	255.0007709750567	68	127
254.9311111111111	255.0007709750567	59	127
255.01238095238097	255.08204081632653	59	127
255.01238095238097	255.08204081632653	68	127
255.0936507936508	255.16331065759638	59	127
255.0936507936508	255.16331065759638	68	127
255.17492063492062	255.2445804988662	59	127
255.17492063492062	255.2445804988662	68	127
255.25619047619048	255.32585034013604	59	127
255.25619047619048	255.32585034013604	68	127
255.3374603174603	255.4071201814059	65	127
255.3374603174603	255.91795918367347	62	127
255.3374603174603	255.4071201814059	56	127
255.3374603174603	255.91795918367347	86	127
255.41873015873017	255.48839002267573	65	127
255.41873015873017	255.48839002267573	56	127
255.5	255.5696598639456	56	127
255.5	255.5696598639456	65	127
255.58126984126983	255.65092970521542	56	127
255.58126984126983	255.65092970521542	65	127
255.6625396825397	255.73219954648525	56	127
255.6625396825397	255.73219954648525	65	127
255.74380952380952	255.77863945578233	65	127
255.74380952380952	255.77863945578233	56	127
255.79024943310657	255.8482993197279	56	127
255.79024943310657	255.8482993197279	65	127
255.85990929705216	255.91795918367347	56	127
255.85990929705216	255.91795918367347	65	127
255.91795918367347	255.96439909297052	65	127
255.91795918367347	255.96439909297052	56	127
255.91795918367347	256.3126984126984	88	127
255.91795918367347	256.3126984126984	64	127
255.96439909297052	256.02244897959184	56	127
255.96439909297052	256.02244897959184	65	127
256.02244897959184	256.0921088435374	56	127
256.02244897959184	256.0921088435374	65	127
256.0921088435374	256.161768707483	56	127
256.0921088435374	256.161768707483	65	127
256.1733560090703	256.2314285714286	56	127
256.1733560090703	256.2314285714286	65	127
256.24303854875285	256.3126984126984	56	127
256.24303854875285	256.3126984126984	65	127
256.3243083900227	256.39396825396824	56	127
256.3243083900227	256.39396825396824	65	127
256.3243083900227	258.5766439909297	83	127
256.3243083900227	258.5766439909297	59	127
256.4055782312925	256.4752154195011	56	127
256.4055782312925	256.4752154195011	65	127
256.48684807256234	256.55650793650796	56	127
256.48684807256234	256.55650793650796	65	127
256.5681179138322	256.6377777777778	56	127
256.5681179138322	256.6377777777778	65	127
256.64938775510205	256.7190476190476	56	127
256.64938775510205	256.7190476190476	65	127
256.7306575963719	256.80031746031744	56	127
256.7306575963719	256.80031746031744	65	127
256.8119274376417	256.88156462585033	56	127
256.8119274376417	256.88156462585033	65	127
256.8931746031746	256.96285714285716	56	127
256.8931746031746	256.96285714285716	65	127
256.97446712018143	257.044126984127	56	127
256.97446712018143	257.044126984127	65	127
257.05573696145126	257.1253968253968	56	127
257.05573696145126	257.1253968253968	65	127
257.1370068027211	257.20666666666665	56	127
257.1370068027211	257.20666666666665	65	127
257.2298866213152	257.28793650793654	56	127
257.2298866213152	257.28793650793654	65	127
257.311156462585	257.3575963718821	56	127
257.311156462585	257.3575963718821	65	127
257.38081632653063	257.4388662131519	56	127
257.38081632653063	257.4388662131519	65	127
257.46208616780046	257.5085260770975	56	127
257.46208616780046	257.5085260770975	65	127
257.531746031746	257.5897959183674	56	127
257.531746031746	257.5897959183674	65	127
257.60138321995464	257.65945578231293	56	127
257.60138321995464	257.65945578231293	65	127
257.68267573696147	257.74072562358276	56	127
257.68267573696147	257.74072562358276	65	127
257.7639455782313	257.83360544217686	65	127
257.7639455782313	257.83360544217686	56	127
257.84521541950113	257.91485260770975	56	127
257.84521541950113	257.91485260770975	65	127
257.92648526077096	257.9961451247166	65	127
257.92648526077096	257.9961451247166	56	127
258.00773242630385	258.0774149659864	56	127
258.00773242630385	258.0774149659864	65	127
258.0890249433107	258.15868480725624	65	127
258.0890249433107	258.15868480725624	56	127
258.1702947845805	258.23995464852607	56	127
258.1702947845805	258.23995464852607	65	127
258.25156462585034	258.32120181405895	56	127
258.25156462585034	258.32120181405895	65	127
258.33283446712016	258.4024943310658	56	127
258.33283446712016	258.4024943310658	65	127
258.41408163265305	258.4837641723356	65	127
258.41408163265305	258.4837641723356	56	127
258.4953741496599	258.56503401360544	65	127
258.4953741496599	258.56503401360544	56	127
258.5766439909297	258.634693877551	56	127
258.5766439909297	258.634693877551	65	127
258.64630385487527	258.7159637188209	56	127
258.64630385487527	258.7159637188209	65	127
258.72755102040816	258.7972335600907	56	127
258.72755102040816	258.7972335600907	65	127
258.808843537415	258.87850340136055	65	127
258.808843537415	258.87850340136055	56	127
258.8901133786848	258.9481632653061	65	127
258.8901133786848	259.4938321995465	74	127
258.8901133786848	258.9481632653061	56	127
258.9597732426304	259.029410430839	65	127
258.9597732426304	259.029410430839	56	127
259.0410430839002	259.1107029478458	65	127
259.0410430839002	259.1107029478458	56	127
259.1223129251701	259.1803628117914	65	127
259.1223129251701	259.1803628117914	56	127
259.19197278911565	259.2616326530612	65	127
259.19197278911565	259.2616326530612	56	127
259.2732426303855	259.3428798185941	56	127
259.2732426303855	259.3428798185941	65	127
259.3545124716553	259.41256235827666	56	127
259.3545124716553	259.41256235827666	65	127
259.42417233560093	259.4938321995465	65	127
259.42417233560093	259.4938321995465	56	127
259.50544217687076	260.0743310657596	76	127
259.50544217687076	259.5751020408163	65	127
259.50544217687076	259.5751020408163	56	127
259.5867120181406	259.65637188208615	56	127
259.5867120181406	259.65637188208615	65	127
259.6679818594104	259.7028117913832	65	127
259.6679818594104	259.7028117913832	56	127
259.7028117913832	259.7608616780045	56	127
259.7028117913832	259.7608616780045	65	127
259.7724716553288	259.83052154195013	56	127
259.7724716553288	259.83052154195013	65	127
259.8421315192744	259.91179138321996	65	127
259.8421315192744	259.91179138321996	56	127
259.92340136054423	259.9930612244898	56	127
259.92340136054423	259.9930612244898	65	127
260.00467120181406	260.0743310657596	56	127
260.00467120181406	260.0743310657596	65	127
260.0859410430839	262.26861678004536	71	127
260.0859410430839	260.1555782312925	56	127
260.0859410430839	260.1555782312925	65	127
260.1672108843537	260.23687074829934	65	127
260.1672108843537	260.23687074829934	56	127
260.2484807256236	260.3065306122449	65	127
260.2484807256236	260.3065306122449	56	127
260.31814058956917	260.3878004535147	65	127
260.31814058956917	260.3878004535147	56	127
260.3878004535147	260.4458503401361	65	127
260.3878004535147	260.4458503401361	56	127
260.45746031746035	260.5271201814059	65	127
260.45746031746035	260.5271201814059	56	127
260.5387301587302	260.60839002267574	65	127
260.5387301587302	260.60839002267574	56	127
260.62	260.68965986394556	65	127
260.62	260.68965986394556	56	127
260.70126984126983	260.7593197278912	56	127
260.70126984126983	260.7593197278912	65	127
260.78253968253966	260.840589569161	56	127
260.78253968253966	260.840589569161	65	127
260.86380952380955	260.91024943310657	65	127
260.86380952380955	260.91024943310657	56	127
260.92185941043084	260.9798866213152	56	127
260.92185941043084	260.9798866213152	65	127
261.00312925170067	261.061179138322	56	127
261.00312925170067	261.061179138322	65	127
261.08437641723356	261.14244897959185	65	127
261.08437641723356	261.14244897959185	56	127
261.1656689342404	261.2237188208617	65	127
261.1656689342404	261.2237188208617	56	127
261.2469387755102	261.3049886621315	65	127
261.2469387755102	261.3049886621315	56	127
261.32820861678005	261.3978684807256	65	127
261.32820861678005	261.3978684807256	56	127
261.4094784580499	261.4791383219955	65	127
261.4094784580499	261.4791383219955	56	127
261.49072562358276	261.5604081632653	65	127
261.49072562358276	261.5604081632653	56	127
261.5720181405896	261.6184580498866	56	127
261.5720181405896	261.6184580498866	65	127
261.6184580498866	261.68809523809523	56	127
261.6184580498866	261.68809523809523	65	127
261.69972789115644	261.76938775510206	65	127
261.69972789115644	261.76938775510206	56	127
261.78099773242633	261.8506575963719	56	127
261.78099773242633	261.8506575963719	65	127
261.86226757369616	261.9319274376417	56	127
261.86226757369616	261.9319274376417	65	127
261.943537414966	262.01319727891155	65	127
261.943537414966	262.01319727891155	56	127
262.0248072562358	262.09444444444443	56	127
262.0248072562358	262.09444444444443	65	127
262.1060544217687	262.17573696145126	56	127
262.1060544217687	262.17573696145126	65	127
262.18734693877553	262.2570068027211	56	127
262.18734693877553	262.2570068027211	65	127
262.26861678004536	262.3382766439909	56	127
262.26861678004536	262.3382766439909	65	127
262.3498866213152	262.41954648526075	56	127
262.3498866213152	262.41954648526075	65	127
262.431156462585	262.50081632653064	56	127
262.431156462585	262.50081632653064	65	127
262.5124036281179	262.58208616780047	56	127
262.5124036281179	262.58208616780047	65	127
262.59369614512474	262.6633560090703	65	127
262.59369614512474	262.6633560090703	56	127
262.67496598639457	262.7446258503401	56	127
262.67496598639457	262.7446258503401	65	127
262.7562358276644	262.82589569160996	56	127
262.7562358276644	262.82589569160996	65	127
262.8375056689342	262.90716553287984	56	127
262.8375056689342	262.90716553287984	65	127
262.9187528344671	262.9884353741497	56	127
262.9187528344671	262.9884353741497	65	127
263.00004535147394	263.0697052154195	56	127
263.00004535147394	263.0697052154195	65	127
263.0813151927438	263.15097505668933	56	127
263.0813151927438	263.15097505668933	65	127
263.1625850340136	263.23224489795916	56	127
263.1625850340136	263.23224489795916	65	127
263.24385487528343	265.1478911564626	62	127
263.24385487528343	263.31351473922905	56	127
263.24385487528343	263.31351473922905	65	127
263.3251020408163	263.3947845804989	65	127
263.3251020408163	263.3947845804989	56	127
263.40639455782315	263.4760544217687	65	127
263.40639455782315	263.4760544217687	56	127
263.487664399093	263.55732426303854	65	127
263.487664399093	263.55732426303854	56	127
263.5689342403628	263.6385714285714	65	127
263.5689342403628	263.6385714285714	56	127
263.65020408163264	263.71986394557825	65	127
263.65020408163264	263.71986394557825	56	127
263.7314512471655	263.8011337868481	65	127
263.7314512471655	263.8011337868481	56	127
263.81274376417235	263.8824036281179	65	127
263.81274376417235	263.8824036281179	56	127
263.8940136054422	263.9520634920635	65	127
263.8940136054422	263.9520634920635	56	127
263.96367346938774	264.03333333333336	56	127
263.96367346938774	264.03333333333336	65	127
264.04492063492063	264.09138321995465	56	127
264.04492063492063	264.09138321995465	65	127
264.1029931972789	264.1726530612245	56	127
264.1029931972789	264.1726530612245	65	127
264.18426303854875	264.25390022675737	65	127
264.18426303854875	264.25390022675737	56	127
264.2655328798186	264.3351927437642	56	127
264.2655328798186	264.3351927437642	65	127
264.34678004535147	264.416462585034	56	127
264.34678004535147	264.416462585034	65	127
264.43968253968256	264.49773242630386	56	127
264.43968253968256	264.49773242630386	65	127
264.5209523809524	264.5790022675737	65	127
264.5209523809524	264.5790022675737	56	127
264.6022222222222	264.66024943310657	65	127
264.6022222222222	264.66024943310657	56	127
264.68349206349205	264.7415419501134	65	127
264.68349206349205	264.7415419501134	56	127
264.76473922902494	264.82281179138323	65	127
264.76473922902494	264.82281179138323	56	127
264.84603174603177	264.90408163265306	65	127
264.84603174603177	264.90408163265306	56	127
264.9273015873016	264.9737414965986	56	127
264.9273015873016	264.9737414965986	65	127
264.99696145124716	265.0550113378685	56	127
264.99696145124716	265.0550113378685	65	127
265.0665986394558	265.13628117913834	56	127
265.0665986394558	265.13628117913834	65	127
265.1478911564626	265.21755102040817	56	127
265.1478911564626	265.21755102040817	65	127
265.1478911564626	266.2043990929705	64	127
265.22916099773244	265.298820861678	65	127
265.22916099773244	265.298820861678	56	127
265.31043083900227	265.3800907029478	65	127
265.31043083900227	265.3800907029478	56	127
265.3917006802721	265.4613605442177	65	127
265.3917006802721	265.4613605442177	56	127
265.472947845805	265.54263038548754	65	127
265.472947845805	265.54263038548754	56	127
265.5542403628118	265.62390022675737	56	127
265.5542403628118	265.62390022675737	65	127
265.63551020408164	265.7051700680272	56	127
265.63551020408164	265.7051700680272	65	127
265.71678004535147	265.76321995464855	65	127
265.71678004535147	265.76321995464855	56	127
265.7748072562358	265.8444897959184	65	127
265.7748072562358	265.8444897959184	56	127
265.85609977324265	265.9257596371882	56	127
265.85609977324265	265.9257596371882	65	127
265.9373696145125	266.00702947845804	65	127
265.9373696145125	266.00702947845804	56	127
266.0186394557823	266.0882766439909	56	127
266.0186394557823	266.0882766439909	65	127
266.09990929705214	266.16956916099775	65	127
266.09990929705214	266.16956916099775	56	127
266.181179138322	266.2508390022676	56	127
266.181179138322	266.2508390022676	65	127
266.26244897959185	266.3321088435374	56	127
266.26244897959185	266.3321088435374	65	127
266.3437188208617	266.39013605442176	56	127
266.3437188208617	266.39013605442176	65	127
266.401768707483	267.27251700680273	65	127
266.401768707483	267.27251700680273	59	127
266.401768707483	267.27251700680273	55	127
301.8702267573696	302.03278911564627	64	127
302.03278911564627	302.17208616780044	76	127
302.1836961451247	302.32303854875283	76	127
302.32303854875283	302.4739682539683	76	127
302.4739682539683	302.6132879818594	88	127
302.6132879818594	302.7526077097506	88	127
302.76421768707485	302.8687074829932	81	127
302.8687074829932	302.98480725623585	76	127
302.98480725623585	303.0312471655329	88	127
303.0312471655329	303.0892970521542	90	127
303.0892970521542	303.1473469387755	88	127
303.1473469387755	303.1937641723356	90	127
303.1937641723356	303.2518367346939	88	127
303.2518367346939	303.3098866213152	90	127
303.3098866213152	303.35632653061225	88	127
303.35632653061225	303.41437641723354	90	127
303.41437641723354	303.4259863945578	90	127
303.4259863945578	303.4375963718821	90	127
303.4375963718821	303.4724263038549	90	127
303.4724263038549	303.48403628117916	88	127
303.48403628117916	303.5072335600907	88	127
303.5072335600907	303.54208616780045	90	127
303.54208616780045	303.6581859410431	64	127
303.54208616780045	303.6581859410431	56	127
303.54208616780045	303.9716553287982	88	127
303.6581859410431	303.76267573696146	61	127
303.6581859410431	303.76267573696146	68	127
303.76267573696146	303.8787755102041	70	127
303.76267573696146	303.8787755102041	64	127
303.8787755102041	303.9716553287982	61	127
303.8787755102041	303.9716553287982	68	127
303.9716553287982	304.07614512471656	56	127
303.9716553287982	304.07614512471656	64	127
303.9716553287982	304.86562358276643	87	127
304.07614512471656	304.18063492063493	61	127
304.07614512471656	304.18063492063493	68	127
304.1922448979592	304.29673469387757	70	127
304.1922448979592	304.29673469387757	64	127
304.29673469387757	304.86562358276643	68	127
304.29673469387757	304.86562358276643	61	127
304.86562358276643	304.98172335600907	64	127
304.86562358276643	304.98172335600907	56	127
304.86562358276643	305.36485260770974	85	127
304.98172335600907	305.43451247165535	68	127
304.98172335600907	305.43451247165535	61	127
305.36485260770974	305.5041723356009	87	127
305.43451247165535	305.5390022675737	70	127
305.43451247165535	305.5390022675737	64	127
305.5041723356009	305.65507936507936	88	127
305.5390022675737	305.65507936507936	61	127
305.5390022675737	305.65507936507936	68	127
305.6667120181406	305.77120181405894	58	127
305.6667120181406	305.77120181405894	66	127
305.6667120181406	306.0962811791383	90	127
305.77120181405894	305.8756916099773	61	127
305.77120181405894	305.8756916099773	68	127
305.8873015873016	305.99179138321995	70	127
305.8873015873016	305.99179138321995	66	127
305.99179138321995	306.0962811791383	68	127
305.99179138321995	306.0962811791383	61	127
306.0962811791383	306.5955102040816	85	127
306.0962811791383	306.21238095238095	66	127
306.0962811791383	306.21238095238095	58	127
306.21238095238095	306.3168707482993	61	127
306.21238095238095	306.3168707482993	68	127
306.3168707482993	306.4213605442177	70	127
306.3168707482993	306.4213605442177	66	127
306.4213605442177	306.58390022675735	68	127
306.4213605442177	306.58390022675735	61	127
306.5955102040816	306.71160997732426	66	127
306.5955102040816	306.71160997732426	58	127
306.5955102040816	307.0134693877551	90	127
306.71160997732426	306.8625396825397	61	127
306.71160997732426	306.8625396825397	68	127
306.8625396825397	306.97861678004534	70	127
306.8625396825397	306.97861678004534	66	127
306.97861678004534	307.1063492063492	68	127
306.97861678004534	307.1063492063492	61	127
307.1063492063492	307.22244897959183	64	127
307.1063492063492	307.22244897959183	56	127
307.1063492063492	307.5591383219955	88	127
307.22244897959183	307.33854875283447	61	127
307.22244897959183	307.33854875283447	68	127
307.33854875283447	307.44303854875284	64	127
307.33854875283447	307.44303854875284	70	127
307.44303854875284	307.5475283446712	61	127
307.44303854875284	307.5475283446712	68	127
307.5591383219955	307.6520181405896	64	127
307.5591383219955	307.97709750566895	87	127
307.5591383219955	307.6520181405896	56	127
307.6520181405896	307.75650793650794	61	127
307.6520181405896	307.75650793650794	68	127
307.75650793650794	307.8726077097506	64	127
307.75650793650794	307.8726077097506	70	127
307.8726077097506	307.97709750566895	61	127
307.8726077097506	307.97709750566895	68	127
307.97709750566895	308.0815873015873	64	127
307.97709750566895	308.0815873015873	56	127
307.97709750566895	308.1396371882086	85	127
308.0815873015873	308.19768707482996	68	127
308.0815873015873	308.19768707482996	61	127
308.1396371882086	308.2789569160998	87	127
308.2092743764172	308.3137641723356	70	127
308.2092743764172	308.3137641723356	64	127
308.2789569160998	308.61562358276643	88	127
308.3137641723356	308.61562358276643	61	127
308.3137641723356	308.61562358276643	68	127
308.62725623582764	308.731746031746	56	127
308.62725623582764	308.731746031746	64	127
308.62725623582764	309.8114739229025	80	127
308.731746031746	308.8362358276644	62	127
308.731746031746	308.8362358276644	66	127
308.8362358276644	308.952335600907	71	127
308.8362358276644	308.952335600907	64	127
308.952335600907	309.0568253968254	66	127
308.952335600907	309.0568253968254	62	127
309.0568253968254	309.16131519274376	64	127
309.0568253968254	309.16131519274376	56	127
309.16131519274376	309.2658049886621	62	127
309.16131519274376	309.2658049886621	66	127
309.2774149659864	309.3702947845805	71	127
309.2774149659864	309.3702947845805	64	127
309.3702947845805	309.47478458049886	66	127
309.3702947845805	309.47478458049886	62	127
309.47478458049886	309.5908843537415	64	127
309.47478458049886	309.5908843537415	56	127
309.5908843537415	309.69537414965987	62	127
309.5908843537415	309.69537414965987	66	127
309.69537414965987	309.8114739229025	71	127
309.69537414965987	309.8114739229025	64	127
309.8114739229025	309.9043537414966	66	127
309.8114739229025	309.9043537414966	62	127
309.9159637188209	310.02045351473924	76	127
309.9159637188209	310.02045351473924	68	127
309.9159637188209	310.3107029478458	64	127
310.02045351473924	310.11333333333334	73	127
310.02045351473924	310.11333333333334	80	127
310.1249433106576	310.229433106576	76	127
310.1249433106576	310.229433106576	82	127
310.229433106576	310.3107029478458	73	127
310.229433106576	310.3107029478458	80	127
310.3107029478458	310.42680272108845	76	127
310.3107029478458	310.42680272108845	68	127
310.3107029478458	310.74027210884356	63	127
310.42680272108845	310.51968253968255	73	127
310.42680272108845	310.51968253968255	80	127
310.51968253968255	310.6241723356009	82	127
310.51968253968255	310.6241723356009	76	127
310.6241723356009	310.7286621315193	80	127
310.6241723356009	310.7286621315193	73	127
310.74027210884356	310.8447619047619	61	127
310.74027210884356	310.8099319727891	76	127
310.74027210884356	310.8099319727891	68	127
310.8099319727891	310.9144217687075	73	127
310.8099319727891	310.9144217687075	80	127
310.8447619047619	310.98408163265304	63	127
310.92603174603175	311.0073015873016	76	127
310.92603174603175	311.0073015873016	82	127
310.98408163265304	311.0885714285714	64	127
311.0073015873016	311.0885714285714	80	127
311.0073015873016	311.0885714285714	73	127
311.0885714285714	311.20467120181405	78	127
311.0885714285714	311.20467120181405	70	127
311.0885714285714	311.51814058956916	66	127
311.20467120181405	311.3091609977324	80	127
311.20467120181405	311.3091609977324	73	127
311.3091609977324	311.4136507936508	78	127
311.3091609977324	311.4136507936508	82	127
311.4136507936508	311.5065306122449	80	127
311.4136507936508	311.5065306122449	73	127
311.51814058956916	311.6226303854875	70	127
311.51814058956916	311.6226303854875	78	127
311.51814058956916	311.93609977324263	61	127
311.6226303854875	311.7271201814059	73	127
311.6226303854875	311.7271201814059	80	127
311.7271201814059	311.84321995464853	82	127
311.7271201814059	311.84321995464853	78	127
311.84321995464853	311.93609977324263	80	127
311.84321995464853	311.93609977324263	73	127
311.93609977324263	312.040589569161	70	127
311.93609977324263	312.2031065759637	66	127
311.93609977324263	312.040589569161	78	127
312.040589569161	312.14507936507937	73	127
312.040589569161	312.14507936507937	80	127
312.15668934240364	312.2031065759637	82	127
312.15668934240364	312.2031065759637	78	127
312.2031065759637	312.2727891156463	73	127
312.2031065759637	312.2727891156463	80	127
312.28439909297055	312.3888888888889	76	127
312.28439909297055	312.3888888888889	68	127
312.28439909297055	312.6326984126984	64	127
312.3888888888889	312.481768707483	80	127
312.3888888888889	312.481768707483	73	127
312.481768707483	312.5862585034014	76	127
312.481768707483	312.5862585034014	82	127
312.5862585034014	312.6326984126984	80	127
312.5862585034014	312.6326984126984	73	127
312.6326984126984	312.7255782312925	76	127
312.6326984126984	312.7255782312925	68	127
312.6326984126984	313.02743764172334	63	127
312.7255782312925	312.83006802721087	73	127
312.7255782312925	312.83006802721087	80	127
312.84167800453514	312.93455782312924	82	127
312.84167800453514	312.93455782312924	76	127
312.93455782312924	313.02743764172334	80	127
312.93455782312924	313.02743764172334	73	127
313.02743764172334	313.1202947845805	76	127
313.02743764172334	313.1202947845805	68	127
313.02743764172334	313.15514739229025	61	127
313.1202947845805	313.22478458049886	80	127
313.1202947845805	313.22478458049886	73	127
313.15514739229025	313.2712471655329	63	127
313.22478458049886	313.31766439909296	82	127
313.22478458049886	313.31766439909296	76	127
313.2712471655329	313.42215419501133	64	127
313.31766439909296	313.42215419501133	80	127
313.31766439909296	313.42215419501133	73	127
313.42215419501133	313.51505668934243	76	127
313.42215419501133	313.51505668934243	67	127
313.42215419501133	314.59478458049887	55	127
313.51505668934243	313.6195464852608	73	127
313.51505668934243	313.6195464852608	79	127
313.63113378684807	313.73562358276644	76	127
313.63113378684807	313.73562358276644	82	127
313.73562358276644	313.84013605442175	73	127
313.73562358276644	313.84013605442175	79	127
313.84013605442175	313.9562358276644	67	127
313.84013605442175	313.9562358276644	76	127
313.9562358276644	314.06072562358275	73	127
313.9562358276644	314.06072562358275	79	127
314.06072562358275	314.15360544217685	82	127
314.06072562358275	314.15360544217685	76	127
314.15360544217685	314.2580952380952	79	127
314.15360544217685	314.2580952380952	73	127
314.2697052154195	314.37419501133786	67	127
314.2697052154195	314.37419501133786	76	127
314.37419501133786	314.47868480725623	73	127
314.37419501133786	314.47868480725623	79	127
314.4902947845805	314.59478458049887	82	127
314.4902947845805	314.59478458049887	76	127
314.59478458049887	314.68766439909297	73	127
314.59478458049887	314.68766439909297	79	127
314.68766439909297	315.10562358276644	55	127
314.68766439909297	314.7457142857143	76	127
314.68766439909297	314.88503401360543	76	127
314.7457142857143	314.8037641723356	73	127
314.8037641723356	314.8501814058957	76	127
314.8501814058957	314.88503401360543	73	127
314.88503401360543	314.9430839002268	76	127
314.9430839002268	314.9895238095238	73	127
314.9895238095238	315.04757369614515	76	127
315.04757369614515	315.10562358276644	73	127
315.10562358276644	315.14045351473925	76	127
315.10562358276644	315.14045351473925	64	127
315.10562358276644	315.38426303854874	54	127
315.14045351473925	315.19850340136054	61	127
315.14045351473925	315.19850340136054	73	127
315.19850340136054	315.2565532879819	64	127
315.19850340136054	315.2565532879819	76	127
315.2565532879819	315.3029931972789	61	127
315.2565532879819	315.3029931972789	73	127
315.3029931972789	315.349433106576	73	127
315.3029931972789	315.349433106576	61	127
315.349433106576	315.395873015873	76	127
315.349433106576	315.395873015873	64	127
315.395873015873	315.41909297052155	61	127
315.395873015873	315.41909297052155	73	127
315.41909297052155	315.57	76	127
315.41909297052155	315.45392290249436	64	127
315.41909297052155	315.5235827664399	52	127
315.45392290249436	315.51197278911565	61	127
315.51197278911565	315.5351927437642	64	127
315.5235827664399	315.63968253968255	54	127
315.5351927437642	315.57	61	127
315.57	315.6280725623583	64	127
315.6280725623583	315.67448979591836	61	127
315.63968253968255	315.76739229024946	55	127
315.67448979591836	315.73256235827665	64	127
315.73256235827665	315.77897959183673	61	127
315.77897959183673	315.8834693877551	61	127
315.77897959183673	315.9879818594104	64	127
315.8834693877551	315.9879818594104	55	127
315.9879818594104	316.1156916099773	61	127
316.1156916099773	316.23179138321996	55	127
316.23179138321996	316.32467120181406	63	127
316.32467120181406	316.41755102040815	55	127
316.41755102040815	316.51043083900225	63	127
316.51043083900225	316.6149206349206	55	127
316.6265306122449	316.74263038548753	61	127
316.74263038548753	316.8471201814059	55	127
316.8471201814059	316.96321995464854	61	127
316.96321995464854	317.0793197278912	55	127
317.0793197278912	317.13736961451247	88	127
317.0793197278912	317.46244897959184	67	127
317.13736961451247	317.18380952380954	85	127
317.18380952380954	317.24185941043083	88	127
317.24185941043083	317.2882993197279	85	127
317.2882993197279	317.33473922902493	88	127
317.33473922902493	317.36956916099774	85	127
317.36956916099774	317.4159863945578	88	127
317.4159863945578	317.46244897959184	85	127
317.46244897959184	317.81074829931976	66	127
317.46244897959184	317.49727891156465	76	127
317.46244897959184	317.49727891156465	88	127
317.49727891156465	317.55532879818594	85	127
317.49727891156465	317.55532879818594	73	127
317.55532879818594	317.601768707483	88	127
317.55532879818594	317.601768707483	76	127
317.601768707483	317.6598185941043	85	127
317.601768707483	317.6598185941043	73	127
317.6598185941043	317.71784580498866	76	127
317.6598185941043	317.71784580498866	88	127
317.71784580498866	317.7643083900227	73	127
317.71784580498866	317.7643083900227	85	127
317.7643083900227	317.822335600907	76	127
317.7643083900227	317.822335600907	88	127
317.822335600907	317.8804081632653	85	127
317.822335600907	317.8804081632653	73	127
317.8804081632653	317.99650793650795	88	127
317.8804081632653	317.9384580498866	76	127
317.8804081632653	317.96167800453514	64	127
317.9384580498866	317.96167800453514	73	127
317.96167800453514	318.0777777777778	66	127
317.96167800453514	318.0081179138322	73	127
318.0081179138322	318.05455782312924	76	127
318.05455782312924	318.1126077097506	73	127
318.0777777777778	318.21709750566896	67	127
318.1126077097506	318.1706575963719	76	127
318.1706575963719	318.21709750566896	73	127
318.21709750566896	318.3796371882086	76	127
318.21709750566896	318.30997732426306	73	127
318.30997732426306	318.3796371882086	70	127
318.3796371882086	318.484126984127	73	127
318.484126984127	318.58861678004536	70	127
318.6002267573696	318.704716553288	75	127
318.704716553288	318.80920634920636	70	127
318.80920634920636	318.925306122449	75	127
318.925306122449	319.04138321995464	70	127
319.04138321995464	319.1575056689342	73	127
319.1575056689342	319.2387755102041	70	127
319.2387755102041	319.2619954648526	73	127
319.2619954648526	319.36648526077096	70	127
319.3780952380952	319.80766439909297	79	127
319.3780952380952	319.4825850340136	76	127
319.4825850340136	319.58707482993196	73	127
319.58707482993196	319.7031746031746	64	127
319.7031746031746	319.80766439909297	73	127
319.80766439909297	320.1559637188209	78	127
319.80766439909297	319.90054421768707	76	127
319.90054421768707	320.00503401360544	73	127
320.0166439909297	320.1211337868481	64	127
320.1211337868481	320.22562358276645	73	127
320.2372335600907	320.31850340136054	76	127
320.2372335600907	320.3417233560091	76	127
320.31850340136054	320.3997732426304	73	127
320.3417233560091	320.469433106576	78	127
320.3997732426304	320.4926530612245	64	127
320.469433106576	320.58551020408163	79	127
320.4926530612245	320.58551020408163	73	127
320.58551020408163	320.72485260770975	63	127
320.58551020408163	320.94544217687076	82	127
320.58551020408163	320.6435827664399	75	127
320.6435827664399	320.69002267573694	77	127
320.69002267573694	320.7480725623583	75	127
320.72485260770975	320.8757823129252	65	127
320.7480725623583	320.8061224489796	77	127
320.8061224489796	320.85256235827666	75	127
320.85256235827666	320.91061224489795	77	127
320.8757823129252	321.0151020408163	67	127
320.91061224489795	320.9686621315193	75	127
320.9686621315193	321.0151020408163	77	127
321.0151020408163	321.3285714285714	70	127
321.0151020408163	321.03832199546486	75	127
321.0151020408163	321.1079818594104	75	127
321.03832199546486	321.07315192743766	77	127
321.07315192743766	321.1195918367347	75	127
321.1079818594104	321.2473015873016	77	127
321.1195918367347	321.17764172335603	77	127
321.17764172335603	321.2356916099773	75	127
321.2356916099773	321.29371882086167	77	127
321.2473015873016	321.39820861678004	79	127
321.29371882086167	321.3401814058957	75	127
321.3401814058957	321.39820861678004	77	127
321.39820861678004	321.6884807256236	82	127
321.39820861678004	321.45628117913833	74	127
321.39820861678004	321.5259410430839	63	127
321.45628117913833	321.49111111111114	75	127
321.49111111111114	321.54916099773243	74	127
321.5259410430839	321.63043083900226	65	127
321.54916099773243	321.6071882086168	75	127
321.6071882086168	321.618820861678	74	127
321.618820861678	321.66526077097507	75	127
321.63043083900226	321.75814058956917	67	127
321.66526077097507	321.7117006802721	74	127
321.7117006802721	321.75814058956917	75	127
321.75814058956917	321.80455782312924	74	127
321.75814058956917	322.04839002267573	70	127
321.75814058956917	321.86263038548753	75	127
321.80455782312924	321.8278004535147	75	127
321.8278004535147	321.8742403628118	74	127
321.86263038548753	321.9671201814059	77	127
321.8742403628118	321.9206802721088	75	127
321.9206802721088	321.95551020408163	74	127
321.95551020408163	322.0019501133787	75	127
321.9671201814059	322.1064399092971	79	127
322.0019501133787	322.06	74	127
322.06	322.1064399092971	75	127
322.11802721088435	322.2457596371882	63	127
322.11802721088435	322.16448979591837	73	127
322.11802721088435	322.44312925170067	82	127
322.16448979591837	322.21090702947845	75	127
322.21090702947845	322.26897959183674	73	127
322.2457596371882	322.3734693877551	65	127
322.26897959183674	322.30380952380955	75	127
322.30380952380955	322.35024943310657	73	127
322.35024943310657	322.4082993197279	75	127
322.3734693877551	322.5127891156463	67	127
322.4082993197279	322.4663492063492	73	127
322.4663492063492	322.5127891156463	75	127
322.5127891156463	322.5592290249433	73	127
322.5127891156463	322.5940589569161	75	127
322.5127891156463	322.7798185941043	70	127
322.5592290249433	322.5708390022676	75	127
322.5708390022676	322.6056689342404	73	127
322.5940589569161	322.7333560090703	77	127
322.6056689342404	322.6637188208617	75	127
322.6637188208617	322.721746031746	73	127
322.721746031746	322.7565986394558	75	127
322.7333560090703	322.8494784580499	79	127
322.7565986394558	322.80303854875285	73	127
322.80303854875285	322.8494784580499	75	127
322.86108843537414	323.2209977324263	83	127
322.86108843537414	323.0004081632653	61	127
322.86108843537414	322.9075283446712	71	127
322.9075283446712	322.9655782312925	73	127
322.9655782312925	323.02362811791386	71	127
323.0004081632653	323.1513378684807	63	127
323.02362811791386	323.0700680272109	73	127
323.0700680272109	323.1281179138322	71	127
323.1281179138322	323.1861678004535	73	127
323.1513378684807	323.2906575963719	64	127
323.1861678004535	323.2325850340136	71	127
323.2325850340136	323.2906575963719	73	127
323.2906575963719	323.604126984127	67	127
323.2906575963719	323.3487074829932	71	127
323.2906575963719	323.44156462585033	76	127
323.3487074829932	323.4067573696145	73	127
323.4067573696145	323.44156462585033	71	127
323.44156462585033	323.53446712018143	78	127
323.44156462585033	323.4648072562358	73	127
323.4648072562358	323.52285714285716	71	127
323.52285714285716	323.5692970521542	73	127
323.53446712018143	323.67378684807255	79	127
323.5692970521542	323.62734693877553	71	127
323.62734693877553	323.6853968253968	73	127
323.6853968253968	323.7318367346939	71	127
323.6853968253968	323.80149659863946	61	127
323.6853968253968	324.02208616780047	83	127
323.7318367346939	323.76666666666665	73	127
323.76666666666665	323.824716553288	71	127
323.80149659863946	323.9524036281179	63	127
323.824716553288	323.871156462585	73	127
323.871156462585	323.92920634920637	71	127
323.92920634920637	323.98725623582766	73	127
323.9524036281179	324.091746031746	64	127
323.98725623582766	324.03369614512474	71	127
324.03369614512474	324.091746031746	73	127
324.091746031746	324.2426757369615	76	127
324.091746031746	324.1497959183674	71	127
324.091746031746	324.3587528344671	67	127
324.1497959183674	324.1962358276644	73	127
324.1962358276644	324.25426303854874	71	127
324.2426757369615	324.3239455782313	78	127
324.25426303854874	324.31233560090703	73	127
324.31233560090703	324.3239455782313	71	127
324.3239455782313	324.3355555555556	73	127
324.3239455782313	324.4284353741497	79	127
324.3355555555556	324.3819954648526	71	127
324.3819954648526	324.4284353741497	73	127
324.4284353741497	324.4748752834467	71	127
324.4284353741497	324.52131519274377	61	127
324.4284353741497	324.71868480725624	83	127
324.4748752834467	324.48648526077096	73	127
324.48648526077096	324.5445351473923	71	127
324.52131519274377	324.6374149659864	63	127
324.5445351473923	324.56773242630385	73	127
324.56773242630385	324.62580498866214	71	127
324.62580498866214	324.68385487528343	73	127
324.6374149659864	324.7883446712018	64	127
324.68385487528343	324.7302947845805	71	127
324.7302947845805	324.7883446712018	73	127
324.7883446712018	325.0785714285714	67	127
324.7883446712018	324.79995464852607	71	127
324.7883446712018	324.8580045351474	76	127
324.79995464852607	324.8231746031746	73	127
324.8231746031746	324.8812244897959	71	127
324.8580045351474	325.0089342403628	78	127
324.8812244897959	324.93927437641725	73	127
324.93927437641725	324.98571428571427	71	127
324.98571428571427	325.0437641723356	73	127
325.0089342403628	325.148253968254	79	127
325.0437641723356	325.1018140589569	71	127
325.1018140589569	325.148253968254	73	127
325.148253968254	325.2063038548753	86	127
325.148253968254	325.2063038548753	70	127
325.148253968254	325.2063038548753	76	127
325.2063038548753	325.25274376417235	70	127
325.2063038548753	325.25274376417235	86	127
325.2063038548753	325.25274376417235	76	127
325.2643537414966	325.31079365079364	86	127
325.2643537414966	325.31079365079364	70	127
325.2643537414966	325.31079365079364	76	127
325.31079365079364	325.368843537415	86	127
325.31079365079364	325.368843537415	70	127
325.31079365079364	325.368843537415	76	127
325.368843537415	325.415283446712	76	127
325.368843537415	325.415283446712	86	127
325.368843537415	325.415283446712	70	127
325.4268934240363	325.47333333333336	86	127
325.4268934240363	325.47333333333336	70	127
325.4268934240363	325.47333333333336	76	127
325.47333333333336	325.53138321995465	86	127
325.47333333333336	325.53138321995465	70	127
325.47333333333336	325.53138321995465	76	127
325.53138321995465	325.5778231292517	86	127
325.53138321995465	325.5778231292517	70	127
325.53138321995465	325.5778231292517	76	127
325.589410430839	325.635873015873	85	127
325.589410430839	325.635873015873	70	127
325.589410430839	325.635873015873	76	127
325.6474829931973	325.69390022675736	85	127
325.6474829931973	325.69390022675736	70	127
325.6474829931973	325.69390022675736	76	127
325.69390022675736	325.7403628117914	85	127
325.69390022675736	325.7403628117914	70	127
325.69390022675736	325.7403628117914	76	127
325.75197278911565	325.79839002267573	85	127
325.75197278911565	325.79839002267573	70	127
325.75197278911565	325.79839002267573	76	127
325.81002267573695	325.856462585034	85	127
325.81002267573695	325.856462585034	70	127
325.81002267573695	325.856462585034	76	127
325.856462585034	325.9145124716553	85	127
325.856462585034	325.9145124716553	70	127
325.856462585034	325.9145124716553	76	127
325.9145124716553	325.9609523809524	85	127
325.9145124716553	325.9609523809524	70	127
325.9145124716553	325.9609523809524	76	127
325.97256235827666	326.0190022675737	85	127
325.97256235827666	326.0190022675737	70	127
325.97256235827666	326.0190022675737	76	127
326.0190022675737	326.07705215419503	84	127
326.0190022675737	326.07705215419503	70	127
326.0190022675737	326.07705215419503	76	127
326.07705215419503	326.12349206349205	84	127
326.07705215419503	326.12349206349205	70	127
326.07705215419503	326.12349206349205	76	127
326.1351020408163	326.1815419501134	70	127
326.1351020408163	326.1815419501134	84	127
326.1351020408163	326.1815419501134	76	127
326.1815419501134	326.2395918367347	84	127
326.1815419501134	326.2395918367347	70	127
326.1815419501134	326.2395918367347	76	127
326.2395918367347	326.28603174603177	84	127
326.2395918367347	326.28603174603177	70	127
326.2395918367347	326.28603174603177	76	127
326.29764172335604	326.34408163265306	84	127
326.29764172335604	326.34408163265306	70	127
326.29764172335604	326.34408163265306	76	127
326.34408163265306	326.4021088435374	84	127
326.34408163265306	326.4021088435374	70	127
326.34408163265306	326.4021088435374	76	127
326.4021088435374	326.4485714285714	84	127
326.4021088435374	326.4485714285714	70	127
326.4021088435374	326.4485714285714	76	127
326.4601814058957	326.5065986394558	83	127
326.4601814058957	326.5065986394558	70	127
326.4601814058957	326.5065986394558	76	127
326.5065986394558	326.56467120181406	83	127
326.5065986394558	326.56467120181406	70	127
326.5065986394558	326.56467120181406	76	127
326.56467120181406	326.61108843537414	83	127
326.56467120181406	326.61108843537414	70	127
326.56467120181406	326.61108843537414	76	127
326.62272108843536	326.66916099773243	83	127
326.62272108843536	326.66916099773243	70	127
326.62272108843536	326.66916099773243	76	127
326.66916099773243	326.7272108843537	83	127
326.66916099773243	326.7272108843537	70	127
326.66916099773243	326.7272108843537	76	127
326.7272108843537	326.7736507936508	83	127
326.7272108843537	326.7736507936508	70	127
326.7272108843537	326.7736507936508	76	127
326.78526077097507	326.8317006802721	83	127
326.78526077097507	326.8317006802721	70	127
326.78526077097507	326.8317006802721	76	127
326.84331065759636	326.88975056689344	83	127
326.84331065759636	326.88975056689344	70	127
326.84331065759636	326.88975056689344	76	127
326.88975056689344	326.92455782312925	82	127
326.88975056689344	326.92455782312925	70	127
326.88975056689344	326.92455782312925	76	127
326.93619047619046	326.98263038548754	82	127
326.93619047619046	326.98263038548754	70	127
326.93619047619046	326.98263038548754	76	127
326.9942403628118	327.02907029478456	82	127
326.9942403628118	327.02907029478456	70	127
326.9942403628118	327.02907029478456	76	127
327.02907029478456	327.0522902494331	82	127
327.02907029478456	327.0522902494331	70	127
327.02907029478456	327.0522902494331	76	127
327.0522902494331	327.0987301587302	82	127
327.0522902494331	327.0987301587302	70	127
327.0522902494331	327.0987301587302	76	127
327.11034013605445	327.1451700680272	81	127
327.11034013605445	327.1451700680272	70	127
327.11034013605445	327.1451700680272	76	127
327.1451700680272	327.20321995464855	81	127
327.1451700680272	327.20321995464855	70	127
327.1451700680272	327.20321995464855	76	127
327.20321995464855	327.24965986394557	81	127
327.20321995464855	327.24965986394557	70	127
327.20321995464855	327.24965986394557	76	127
327.26126984126984	327.29609977324264	81	127
327.26126984126984	327.29609977324264	70	127
327.26126984126984	327.29609977324264	76	127
327.29609977324264	327.34253968253967	81	127
327.29609977324264	327.34253968253967	70	127
327.29609977324264	327.34253968253967	76	127
327.34253968253967	327.38897959183674	76	127
327.34253968253967	327.38897959183674	81	127
327.34253968253967	327.38897959183674	70	127
327.400589569161	327.44702947845803	81	127
327.400589569161	327.44702947845803	70	127
327.400589569161	327.44702947845803	76	127
327.44702947845803	327.5050793650794	81	127
327.44702947845803	327.5050793650794	70	127
327.44702947845803	327.5050793650794	76	127
327.5050793650794	327.5515192743764	80	127
327.5050793650794	327.5515192743764	68	127
327.5050793650794	327.5515192743764	74	127
327.5631292517007	327.60956916099775	80	127
327.5631292517007	327.60956916099775	68	127
327.5631292517007	327.60956916099775	74	127
327.60956916099775	327.66761904761904	80	127
327.60956916099775	327.66761904761904	68	127
327.60956916099775	327.66761904761904	74	127
327.66761904761904	327.7140589569161	80	127
327.66761904761904	327.7140589569161	68	127
327.66761904761904	327.7140589569161	74	127
327.7256689342404	327.76049886621314	80	127
327.7256689342404	327.76049886621314	68	127
327.7256689342404	327.76049886621314	74	127
327.76049886621314	327.8185487528345	80	127
327.76049886621314	327.8185487528345	68	127
327.76049886621314	327.8185487528345	74	127
327.8185487528345	327.8649886621315	80	127
327.8185487528345	327.8649886621315	68	127
327.8185487528345	327.8649886621315	74	127
327.8765986394558	327.92303854875286	80	127
327.8765986394558	327.92303854875286	68	127
327.8765986394558	327.92303854875286	74	127
327.9346258503401	327.98108843537415	79	127
327.9346258503401	327.98108843537415	68	127
327.9346258503401	327.98108843537415	74	127
327.98108843537415	328.0391156462585	79	127
327.98108843537415	328.0391156462585	68	127
327.98108843537415	328.0391156462585	74	127
328.0391156462585	328.0855782312925	79	127
328.0391156462585	328.0855782312925	68	127
328.0391156462585	328.0855782312925	74	127
328.0971882086168	328.14360544217686	79	127
328.0971882086168	328.14360544217686	68	127
328.0971882086168	328.14360544217686	74	127
328.14360544217686	328.20167800453515	79	127
328.14360544217686	328.20167800453515	68	127
328.14360544217686	328.20167800453515	74	127
328.20167800453515	328.23650793650796	79	127
328.20167800453515	328.23650793650796	68	127
328.20167800453515	328.23650793650796	74	127
328.24809523809523	328.29455782312925	79	127
328.24809523809523	328.29455782312925	68	127
328.24809523809523	328.29455782312925	74	127
328.29455782312925	328.3525850340136	79	127
328.29455782312925	328.3525850340136	68	127
328.29455782312925	328.3525850340136	74	127
328.3525850340136	328.38743764172335	78	127
328.3525850340136	328.38743764172335	68	127
328.3525850340136	328.38743764172335	74	127
328.3990476190476	328.4454875283447	78	127
328.3990476190476	328.4454875283447	68	127
328.3990476190476	328.4454875283447	74	127
328.4454875283447	328.503537414966	78	127
328.4454875283447	328.503537414966	68	127
328.4454875283447	328.503537414966	74	127
328.503537414966	328.54995464852607	78	127
328.503537414966	328.54995464852607	68	127
328.503537414966	328.54995464852607	74	127
328.5615873015873	328.60802721088436	78	127
328.5615873015873	328.60802721088436	68	127
328.5615873015873	328.60802721088436	74	127
328.60802721088436	328.66607709750565	78	127
328.60802721088436	328.66607709750565	68	127
328.60802721088436	328.66607709750565	74	127
328.66607709750565	328.7125170068027	78	127
328.66607709750565	328.7125170068027	68	127
328.66607709750565	328.7125170068027	74	127
328.724126984127	328.7589342403628	78	127
328.724126984127	328.7589342403628	68	127
328.724126984127	328.7589342403628	74	127
328.7589342403628	328.8170068027211	77	127
328.7589342403628	328.8170068027211	62	127
328.7589342403628	328.8170068027211	71	127
328.8170068027211	328.8634240362812	77	127
328.8170068027211	328.8634240362812	62	127
328.8170068027211	328.8634240362812	71	127
328.8634240362812	328.88666666666666	77	127
328.8634240362812	328.88666666666666	62	127
328.8634240362812	328.88666666666666	71	127
328.88666666666666	328.93310657596373	77	127
328.88666666666666	328.93310657596373	62	127
328.88666666666666	328.93310657596373	71	127
328.93310657596373	328.97954648526076	77	127
328.93310657596373	328.97954648526076	62	127
328.93310657596373	328.97954648526076	71	127
328.991156462585	329.02598639455783	77	127
328.991156462585	329.02598639455783	62	127
328.991156462585	329.02598639455783	71	127
329.02598639455783	329.07242630385485	77	127
329.02598639455783	329.07242630385485	62	127
329.02598639455783	329.07242630385485	71	127
329.07242630385485	329.11886621315193	77	127
329.07242630385485	329.11886621315193	62	127
329.07242630385485	329.11886621315193	71	127
329.1304761904762	329.165283446712	76	127
329.1304761904762	329.165283446712	62	127
329.1304761904762	329.165283446712	71	127
329.165283446712	329.20013605442176	76	127
329.165283446712	329.20013605442176	62	127
329.165283446712	329.20013605442176	71	127
329.20013605442176	329.2233560090703	76	127
329.20013605442176	329.2233560090703	62	127
329.20013605442176	329.2233560090703	71	127
329.2233560090703	329.2697732426304	76	127
329.2233560090703	329.2697732426304	62	127
329.2233560090703	329.2697732426304	71	127
329.2814058956916	329.3162358276644	76	127
329.2814058956916	329.3162358276644	62	127
329.2814058956916	329.3162358276644	71	127
329.3162358276644	329.33945578231294	76	127
329.3162358276644	329.33945578231294	62	127
329.3162358276644	329.33945578231294	71	127
329.33945578231294	329.38589569160996	76	127
329.33945578231294	329.38589569160996	62	127
329.33945578231294	329.38589569160996	71	127
329.39750566893423	329.4439455782313	76	127
329.39750566893423	329.4439455782313	62	127
329.39750566893423	329.4439455782313	71	127
329.4439455782313	329.4555555555556	75	127
329.4439455782313	329.4555555555556	62	127
329.4439455782313	329.4555555555556	71	127
329.4555555555556	329.5019954648526	75	127
329.4555555555556	329.5019954648526	62	127
329.4555555555556	329.5019954648526	71	127
329.51360544217687	329.56004535147395	75	127
329.51360544217687	329.56004535147395	62	127
329.51360544217687	329.56004535147395	71	127
329.56004535147395	329.61809523809524	75	127
329.56004535147395	329.61809523809524	62	127
329.56004535147395	329.61809523809524	71	127
329.61809523809524	329.6645351473923	75	127
329.61809523809524	329.6645351473923	62	127
329.61809523809524	329.6645351473923	71	127
329.6761224489796	329.7225850340136	75	127
329.6761224489796	329.7225850340136	62	127
329.6761224489796	329.7225850340136	71	127
329.7225850340136	329.78061224489795	75	127
329.7225850340136	329.78061224489795	62	127
329.7225850340136	329.78061224489795	71	127
329.78061224489795	329.827074829932	75	127
329.78061224489795	329.827074829932	62	127
329.78061224489795	329.827074829932	71	127
329.83868480725624	329.8851020408163	74	127
329.83868480725624	329.8851020408163	59	127
329.83868480725624	329.8851020408163	68	127
329.8851020408163	329.9431746031746	74	127
329.8851020408163	329.9431746031746	59	127
329.8851020408163	329.9431746031746	68	127
329.9431746031746	329.9895918367347	74	127
329.9431746031746	329.9895918367347	59	127
329.9431746031746	329.9895918367347	68	127
330.0012244897959	330.047664399093	74	127
330.0012244897959	330.047664399093	59	127
330.0012244897959	330.047664399093	68	127
330.05927437641725	330.10571428571427	59	127
330.05927437641725	330.10571428571427	74	127
330.05927437641725	330.10571428571427	68	127
330.10571428571427	330.15215419501135	74	127
330.10571428571427	330.15215419501135	59	127
330.10571428571427	330.15215419501135	68	127
330.1637641723356	330.19859410430837	74	127
330.1637641723356	330.19859410430837	59	127
330.1637641723356	330.19859410430837	68	127
330.21020408163264	330.2566439909297	74	127
330.21020408163264	330.2566439909297	59	127
330.21020408163264	330.2566439909297	68	127
330.2566439909297	330.314693877551	73	127
330.2566439909297	330.314693877551	59	127
330.2566439909297	330.314693877551	68	127
330.314693877551	330.3611337868481	73	127
330.314693877551	330.3611337868481	59	127
330.314693877551	330.3611337868481	68	127
330.37274376417236	330.4191836734694	73	127
330.37274376417236	330.4191836734694	59	127
330.37274376417236	330.4191836734694	68	127
330.4191836734694	330.4772335600907	73	127
330.4191836734694	330.4772335600907	59	127
330.4191836734694	330.4772335600907	68	127
330.4772335600907	330.52367346938775	73	127
330.4772335600907	330.52367346938775	59	127
330.4772335600907	330.52367346938775	68	127
330.535283446712	330.55850340136055	73	127
330.535283446712	330.55850340136055	59	127
330.535283446712	330.55850340136055	68	127
330.55850340136055	330.61655328798184	73	127
330.55850340136055	330.61655328798184	59	127
330.55850340136055	330.61655328798184	68	127
330.61655328798184	330.65138321995465	73	127
330.61655328798184	330.65138321995465	59	127
330.61655328798184	330.65138321995465	68	127
330.6629931972789	330.70943310657594	72	127
330.6629931972789	330.70943310657594	59	127
330.6629931972789	330.70943310657594	68	127
330.70943310657594	330.755873015873	72	127
330.70943310657594	330.755873015873	59	127
330.70943310657594	330.755873015873	68	127
330.755873015873	330.8022902494331	72	127
330.755873015873	330.8022902494331	59	127
330.755873015873	330.8022902494331	68	127
330.8139229024943	330.8603628117914	72	127
330.8139229024943	330.8603628117914	59	127
330.8139229024943	330.8603628117914	68	127
330.8603628117914	330.9184126984127	72	127
330.8603628117914	330.9184126984127	59	127
330.8603628117914	330.9184126984127	68	127
330.9184126984127	330.96485260770976	72	127
330.9184126984127	330.96485260770976	59	127
330.9184126984127	330.96485260770976	68	127
330.976462585034	331.02290249433105	72	127
330.976462585034	331.02290249433105	59	127
330.976462585034	331.02290249433105	68	127
331.02290249433105	331.0809523809524	72	127
331.02290249433105	331.0809523809524	59	127
331.02290249433105	331.0809523809524	68	127
331.0809523809524	331.1273922902494	71	127
331.0809523809524	331.1273922902494	56	127
331.0809523809524	331.1273922902494	65	127
331.1390022675737	331.18544217687077	71	127
331.1390022675737	331.18544217687077	56	127
331.1390022675737	331.18544217687077	65	127
331.18544217687077	331.2318820861678	71	127
331.18544217687077	331.2318820861678	56	127
331.18544217687077	331.2318820861678	65	127
331.2318820861678	331.27832199546486	71	127
331.2318820861678	331.27832199546486	56	127
331.2318820861678	331.27832199546486	65	127
331.27832199546486	331.3247619047619	71	127
331.27832199546486	331.3247619047619	56	127
331.27832199546486	331.3247619047619	65	127
331.3247619047619	331.37120181405896	71	127
331.3247619047619	331.37120181405896	56	127
331.3247619047619	331.37120181405896	65	127
331.38281179138323	331.42925170068025	70	127
331.38281179138323	331.42925170068025	56	127
331.38281179138323	331.42925170068025	65	127
331.42925170068025	331.4873015873016	70	127
331.42925170068025	331.4873015873016	56	127
331.42925170068025	331.4873015873016	65	127
331.4873015873016	331.5337414965986	70	127
331.4873015873016	331.5337414965986	56	127
331.4873015873016	331.5337414965986	65	127
331.5453514739229	331.59179138321997	70	127
331.5453514739229	331.59179138321997	56	127
331.5453514739229	331.59179138321997	65	127
331.59179138321997	331.64984126984126	70	127
331.59179138321997	331.64984126984126	56	127
331.59179138321997	331.64984126984126	65	127
331.64984126984126	331.69628117913834	70	127
331.64984126984126	331.69628117913834	56	127
331.64984126984126	331.69628117913834	65	127
331.7078911564626	331.75433106575963	70	127
331.7078911564626	331.75433106575963	56	127
331.7078911564626	331.75433106575963	65	127
331.75433106575963	331.812380952381	70	127
331.75433106575963	331.812380952381	56	127
331.75433106575963	331.812380952381	65	127
331.812380952381	331.858820861678	69	127
331.812380952381	331.858820861678	56	127
331.812380952381	331.858820861678	65	127
331.87043083900227	331.91687074829935	69	127
331.87043083900227	331.91687074829935	56	127
331.87043083900227	331.91687074829935	65	127
331.91687074829935	331.97492063492064	69	127
331.91687074829935	331.97492063492064	56	127
331.91687074829935	331.97492063492064	65	127
331.97492063492064	332.0213605442177	69	127
331.97492063492064	332.0213605442177	56	127
331.97492063492064	332.0213605442177	65	127
332.032947845805	332.079410430839	69	127
332.032947845805	332.079410430839	56	127
332.032947845805	332.079410430839	65	127
332.079410430839	332.13743764172335	69	127
332.079410430839	332.13743764172335	56	127
332.079410430839	332.13743764172335	65	127
332.13743764172335	332.16068027210883	69	127
332.13743764172335	332.16068027210883	56	127
332.13743764172335	332.16068027210883	65	127
332.1722902494331	332.2187301587302	69	127
332.1722902494331	332.2187301587302	56	127
332.1722902494331	332.2187301587302	65	127
332.2187301587302	332.2767800453515	56	127
332.2187301587302	332.2767800453515	68	127
332.2187301587302	332.2767800453515	62	127
332.2767800453515	332.32321995464855	56	127
332.2767800453515	332.32321995464855	68	127
332.2767800453515	332.32321995464855	62	127
332.3348072562358	332.38126984126984	56	127
332.3348072562358	332.38126984126984	68	127
332.3348072562358	332.38126984126984	62	127
332.38126984126984	332.4277097505669	56	127
332.38126984126984	332.4277097505669	68	127
332.38126984126984	332.4277097505669	62	127
332.4277097505669	332.46253968253967	56	127
332.4277097505669	332.46253968253967	68	127
332.4277097505669	332.46253968253967	62	127
332.47414965986394	332.50897959183675	56	127
332.47414965986394	332.50897959183675	68	127
332.47414965986394	332.50897959183675	62	127
332.520589569161	332.56702947845804	56	127
332.520589569161	332.56702947845804	68	127
332.520589569161	332.56702947845804	62	127
332.56702947845804	332.6250793650794	56	127
332.56702947845804	332.6250793650794	68	127
332.56702947845804	332.6250793650794	62	127
332.6250793650794	332.6715192743764	56	127
332.6250793650794	332.6715192743764	67	127
332.6250793650794	332.6715192743764	62	127
332.6831292517007	332.72956916099776	56	127
332.6831292517007	332.72956916099776	67	127
332.6831292517007	332.72956916099776	62	127
332.72956916099776	332.78761904761905	56	127
332.72956916099776	332.78761904761905	67	127
332.72956916099776	332.78761904761905	62	127
332.78761904761905	332.82244897959185	56	127
332.78761904761905	332.82244897959185	67	127
332.78761904761905	332.82244897959185	62	127
332.82244897959185	332.8340589569161	56	127
332.82244897959185	332.8340589569161	67	127
332.82244897959185	332.8340589569161	62	127
332.8456462585034	332.88049886621314	56	127
332.8456462585034	332.88049886621314	67	127
332.8456462585034	332.88049886621314	62	127
332.88049886621314	332.9269387755102	55	127
332.88049886621314	332.9269387755102	66	127
332.88049886621314	332.9269387755102	61	127
332.9269387755102	332.97337868480724	55	127
332.9269387755102	332.97337868480724	66	127
332.9269387755102	332.97337868480724	61	127
332.9849886621315	333.0314285714286	55	127
332.9849886621315	333.0314285714286	66	127
332.9849886621315	333.0314285714286	61	127
333.0314285714286	333.0894784580499	55	127
333.0314285714286	333.0894784580499	66	127
333.0314285714286	333.0894784580499	61	127
333.0894784580499	333.13591836734696	55	127
333.0894784580499	333.13591836734696	66	127
333.0894784580499	333.13591836734696	61	127
333.14752834467123	333.19396825396825	55	127
333.14752834467123	333.19396825396825	66	127
333.14752834467123	333.19396825396825	61	127
333.19396825396825	333.24040816326533	55	127
333.19396825396825	333.24040816326533	66	127
333.19396825396825	333.24040816326533	61	127
333.24040816326533	333.28684807256235	55	127
333.24040816326533	333.28684807256235	66	127
333.24040816326533	333.28684807256235	61	127
333.2984580498866	333.3448979591837	56	127
333.2984580498866	333.3448979591837	65	127
333.2984580498866	333.3448979591837	60	127
333.35648526077097	333.402947845805	56	127
333.35648526077097	333.402947845805	65	127
333.35648526077097	333.402947845805	60	127
333.402947845805	333.4261678004535	56	127
333.402947845805	333.4261678004535	65	127
333.402947845805	333.4261678004535	60	127
333.4377777777778	333.4842176870748	56	127
333.4377777777778	333.4842176870748	65	127
333.4377777777778	333.4842176870748	60	127
333.4958276643991	333.54226757369617	56	127
333.4958276643991	333.54226757369617	65	127
333.4958276643991	333.54226757369617	60	127
333.54226757369617	333.60031746031746	56	127
333.54226757369617	333.60031746031746	65	127
333.54226757369617	333.60031746031746	60	127
333.60031746031746	333.64675736961453	56	127
333.60031746031746	333.64675736961453	65	127
333.60031746031746	333.64675736961453	60	127
333.6583673469388	333.69319727891155	56	127
333.6583673469388	333.69319727891155	65	127
333.6583673469388	333.69319727891155	60	127
333.69319727891155	333.7512471655329	56	127
333.69319727891155	333.7512471655329	64	127
333.69319727891155	333.7512471655329	60	127
333.7512471655329	333.7976870748299	56	127
333.7512471655329	333.7976870748299	64	127
333.7512471655329	333.7976870748299	60	127
333.8092970521542	333.85573696145127	56	127
333.8092970521542	333.85573696145127	64	127
333.8092970521542	333.85573696145127	60	127
333.85573696145127	333.91378684807256	56	127
333.85573696145127	333.91378684807256	64	127
333.85573696145127	333.91378684807256	60	127
333.91378684807256	333.96022675736964	56	127
333.91378684807256	333.96022675736964	64	127
333.91378684807256	333.96022675736964	60	127
333.9718140589569	334.01827664399093	56	127
333.9718140589569	334.01827664399093	64	127
333.9718140589569	334.01827664399093	60	127
334.01827664399093	334.04149659863947	56	127
334.01827664399093	334.04149659863947	64	127
334.01827664399093	334.04149659863947	60	127
334.04149659863947	334.0879365079365	56	127
334.04149659863947	334.0879365079365	64	127
334.04149659863947	334.0879365079365	60	127
334.09954648526076	334.14598639455784	60	127
334.14598639455784	334.18079365079365	60	127
334.18079365079365	334.22725623582767	60	127
334.22725623582767	334.27367346938775	60	127
334.285283446712	334.33174603174604	60	127
334.33174603174604	334.3897959183673	60	127
334.3897959183673	334.4362358276644	60	127
334.4478458049887	334.4942857142857	60	127
334.50589569160996	334.55233560090704	60	127
334.55233560090704	334.61038548752833	60	127
334.61038548752833	334.64521541950114	60	127
334.6568253968254	334.70326530612243	60	127
334.70326530612243	334.72648526077097	60	127
334.72648526077097	334.7613151927438	60	127
334.77292517006805	334.81936507936507	59	127
334.81936507936507	334.8774149659864	59	127
334.8774149659864	334.92385487528344	59	127
334.9354648526077	334.9819047619048	59	127
334.9819047619048	335.0399546485261	59	127
335.0399546485261	335.08639455782316	59	127
335.0979818594104	335.14444444444445	59	127
335.14444444444445	335.2024716553288	59	127
335.2024716553288	335.2489342403628	58	127
335.2605442176871	335.30696145124716	58	127
335.30696145124716	335.36503401360545	58	127
335.36503401360545	335.4114739229025	58	127
335.42308390022674	335.4695238095238	58	127
335.4695238095238	335.5275736961451	58	127
335.5275736961451	335.5740136054422	58	127
335.58562358276646	335.6320634920635	58	127
335.64367346938775	335.6668934240363	57	127
335.6668934240363	335.71331065759637	57	127
335.7249433106576	335.77138321995466	57	127
335.7829931972789	335.82943310657595	57	127
335.82943310657595	335.8874829931973	56	127
335.8874829931973	335.9339229024943	56	127
335.9455328798186	335.99197278911566	56	127
335.99197278911566	336.05002267573695	56	127
336.05002267573695	336.09646258503403	55	127
336.1080725623583	336.1545124716553	55	127
336.1545124716553	336.21256235827667	55	127
336.21256235827667	336.2590022675737	55	127
336.27061224489796	336.31705215419504	55	127
336.31705215419504	336.37510204081633	55	127
336.37510204081633	336.39832199546487	55	127
336.40993197278914	336.45637188208616	55	127
336.45637188208616	336.5144217687075	56	127
336.5144217687075	336.5608616780045	56	127
336.5724716553288	336.6189115646259	56	127
336.6189115646259	336.67696145124717	56	127
336.67696145124717	336.72340136054424	56	127
336.7349886621315	336.78145124716553	56	127
336.7930612244898	336.8394784580499	56	127
336.8394784580499	336.8859410430839	56	127
336.8975510204082	336.94396825396825	60	127
336.95560090702946	337.00204081632654	60	127
337.00204081632654	337.04848072562356	60	127
337.04848072562356	337.09492063492064	60	127
337.1065306122449	337.15297052154193	60	127
337.15297052154193	337.2110204081633	60	127
337.2110204081633	337.2574603174603	60	127
337.26907029478457	337.31551020408165	60	127
337.31551020408165	337.37356009070294	59	127
337.37356009070294	337.40839002267575	59	127
337.42	337.46643990929704	59	127
337.46643990929704	337.5244897959184	59	127
337.5244897959184	337.53609977324265	59	127
337.5476870748299	337.5825396825397	58	127
337.5825396825397	337.640589569161	58	127
337.640589569161	337.68702947845804	58	127
337.6986394557823	337.7450793650794	58	127
337.7450793650794	337.7915192743764	58	127
337.7915192743764	337.8379591836735	58	127
337.84956916099776	337.8960090702948	58	127
337.90761904761905	337.9540362811791	58	127
337.9540362811791	338.0121088435374	57	127
338.0121088435374	338.0585260770975	57	127
338.0701587301587	338.1165986394558	57	127
338.1165986394558	338.16301587301587	57	127
338.16301587301587	338.2094784580499	56	127
338.22108843537416	338.26750566893423	56	127
338.26750566893423	338.3255782312925	56	127
338.3255782312925	338.3719954648526	56	127
338.3836281179138	338.4300680272109	55	127
338.4300680272109	338.4881179138322	55	127
338.4881179138322	338.53455782312926	55	127
338.54616780045353	338.59260770975055	55	127
338.59260770975055	338.6506575963719	55	127
338.6506575963719	338.6970975056689	55	127
338.7087074829932	338.75514739229027	55	127
338.75514739229027	338.81319727891156	55	127
338.81319727891156	338.85963718820864	56	127
338.8712471655329	338.9176870748299	56	127
338.9176870748299	338.9757369614513	56	127
338.9757369614513	339.0221768707483	56	127
339.03378684807257	339.08020408163264	56	127
339.09183673469386	339.13827664399093	56	127
339.13827664399093	339.184693877551	56	127
339.1963265306122	339.2427664399093	56	127
339.2543764172336	339.3008163265306	60	127
339.2543764172336	339.3008163265306	45	127
339.2543764172336	339.4633560090703	60	127
339.3008163265306	339.35886621315194	45	127
339.3008163265306	339.35886621315194	60	127
339.35886621315194	339.40530612244896	45	127
339.35886621315194	339.40530612244896	60	127
339.41691609977323	339.4633560090703	60	127
339.41691609977323	339.4633560090703	45	127
339.4633560090703	339.5214058956916	60	127
339.4633560090703	339.5214058956916	45	127
339.5214058956916	339.5678458049887	60	127
339.5214058956916	339.5678458049887	45	127
339.57945578231295	339.62589569160997	45	127
339.57945578231295	339.62589569160997	60	127
339.62589569160997	339.6839455782313	60	127
339.62589569160997	339.6839455782313	45	127
339.6839455782313	339.73038548752834	59	127
339.6839455782313	339.73038548752834	43	127
339.7419954648526	339.7884353741497	59	127
339.7419954648526	339.7884353741497	43	127
339.7884353741497	339.846485260771	59	127
339.7884353741497	339.846485260771	43	127
339.846485260771	339.89292517006805	59	127
339.846485260771	339.89292517006805	43	127
339.9045124716553	339.95097505668934	59	127
339.9045124716553	339.95097505668934	43	127
339.95097505668934	340.0090022675737	59	127
339.95097505668934	340.0090022675737	43	127
340.0090022675737	340.0554648526077	59	127
340.0090022675737	340.0554648526077	43	127
340.067074829932	340.11349206349206	59	127
340.067074829932	340.11349206349206	43	127
340.11349206349206	340.17156462585035	58	127
340.11349206349206	340.17156462585035	42	127
340.17156462585035	340.2180045351474	58	127
340.17156462585035	340.2180045351474	42	127
340.22961451247164	340.2760544217687	58	127
340.22961451247164	340.2760544217687	42	127
340.2760544217687	340.33410430839	58	127
340.2760544217687	340.33410430839	42	127
340.33410430839	340.3805442176871	58	127
340.33410430839	340.3805442176871	42	127
340.39215419501136	340.4385941043084	58	127
340.39215419501136	340.4385941043084	42	127
340.45020408163265	340.4966439909297	58	127
340.45020408163265	340.4966439909297	42	127
340.4966439909297	340.554693877551	58	127
340.4966439909297	340.554693877551	42	127
340.554693877551	340.6011337868481	57	127
340.554693877551	340.6011337868481	41	127
340.61272108843536	340.6591836734694	57	127
340.61272108843536	340.6591836734694	41	127
340.6591836734694	340.71721088435373	57	127
340.6591836734694	340.71721088435373	41	127
340.71721088435373	340.76367346938775	57	127
340.71721088435373	340.76367346938775	41	127
340.775283446712	340.8217006802721	56	127
340.775283446712	340.8217006802721	40	127
340.8217006802721	340.89138321995466	56	127
340.8217006802721	340.89138321995466	40	127
340.89138321995466	340.9378231292517	56	127
340.89138321995466	340.9378231292517	40	127
340.94943310657595	340.99587301587303	56	127
340.94943310657595	340.99587301587303	40	127
340.99587301587303	341.0539229024943	55	127
340.99587301587303	341.0539229024943	39	127
341.0539229024943	341.1003628117914	55	127
341.0539229024943	341.1003628117914	39	127
341.11197278911567	341.1584126984127	55	127
341.11197278911567	341.1584126984127	39	127
341.1584126984127	341.21646258503404	55	127
341.1584126984127	341.21646258503404	39	127
341.21646258503404	341.26290249433106	55	127
341.21646258503404	341.26290249433106	39	127
341.2745124716553	341.3209523809524	55	127
341.2745124716553	341.3209523809524	39	127
341.3209523809524	341.3790022675737	55	127
341.3209523809524	341.3790022675737	39	127
341.3790022675737	341.4254421768708	55	127
341.3790022675737	341.4254421768708	39	127
341.43702947845804	341.48349206349206	58	127
341.43702947845804	341.48349206349206	42	127
341.48349206349206	341.5415192743764	58	127
341.48349206349206	341.5415192743764	42	127
341.5415192743764	341.58798185941043	58	127
341.5415192743764	341.58798185941043	42	127
341.5995918367347	341.6460090702948	58	127
341.5995918367347	341.6460090702948	42	127
341.657641723356	341.7040816326531	58	127
341.657641723356	341.7040816326531	42	127
341.7040816326531	341.7505215419501	58	127
341.7040816326531	341.7505215419501	42	127
341.76213151927436	341.80857142857144	58	127
341.76213151927436	341.80857142857144	42	127
341.8201814058957	341.86662131519273	58	127
341.8201814058957	341.86662131519273	42	127
341.86662131519273	341.9246712018141	60	127
341.86662131519273	341.9246712018141	45	127
341.9246712018141	341.9711111111111	60	127
341.9246712018141	341.9711111111111	45	127
341.98272108843537	342.02916099773245	60	127
341.98272108843537	342.02916099773245	45	127
342.02916099773245	342.08721088435374	60	127
342.02916099773245	342.08721088435374	45	127
342.08721088435374	342.1336507936508	60	127
342.08721088435374	342.1336507936508	45	127
342.1452607709751	342.1917006802721	60	127
342.1452607709751	342.1917006802721	45	127
342.1917006802721	342.24972789115645	60	127
342.1917006802721	342.24972789115645	45	127
342.24972789115645	342.2961904761905	60	127
342.24972789115645	342.2961904761905	45	127
342.30780045351474	342.3542176870748	59	127
342.30780045351474	342.3542176870748	43	127
342.3542176870748	342.4122902494331	59	127
342.3542176870748	342.4122902494331	43	127
342.4122902494331	342.4703401360544	59	127
342.4122902494331	342.4703401360544	43	127
342.4819501133787	342.52839002267575	59	127
342.4819501133787	342.52839002267575	43	127
342.52839002267575	342.58643990929704	59	127
342.52839002267575	342.58643990929704	43	127
342.58643990929704	342.6328798185941	59	127
342.58643990929704	342.6328798185941	43	127
342.6444897959184	342.6909297052154	59	127
342.6444897959184	342.6909297052154	43	127
342.6909297052154	342.74897959183676	59	127
342.6909297052154	342.74897959183676	43	127
342.74897959183676	342.7954195011338	58	127
342.74897959183676	342.7954195011338	42	127
342.80702947845805	342.8534693877551	58	127
342.80702947845805	342.8534693877551	42	127
342.8650566893424	342.9115192743764	58	127
342.8650566893424	342.9115192743764	42	127
342.9115192743764	342.9579591836735	58	127
342.9115192743764	342.9579591836735	42	127
342.96954648526076	343.0160090702948	58	127
342.96954648526076	343.0160090702948	42	127
343.02761904761905	343.07403628117913	58	127
343.02761904761905	343.07403628117913	42	127
343.07403628117913	343.1321088435374	58	127
343.07403628117913	343.1321088435374	42	127
343.1321088435374	343.1785260770975	58	127
343.1321088435374	343.1785260770975	42	127
343.1901587301587	343.2365986394558	57	127
343.1901587301587	343.2365986394558	41	127
343.2365986394558	343.2946485260771	57	127
343.2365986394558	343.2946485260771	41	127
343.2946485260771	343.34108843537416	57	127
343.2946485260771	343.34108843537416	41	127
343.35269841269843	343.39913832199545	57	127
343.35269841269843	343.39913832199545	41	127
343.39913832199545	343.4571882086168	57	127
343.39913832199545	343.4571882086168	41	127
343.4571882086168	343.5036281179138	57	127
343.4571882086168	343.5036281179138	41	127
343.5152380952381	343.56167800453517	57	127
343.5152380952381	343.56167800453517	41	127
343.56167800453517	343.61972789115646	57	127
343.56167800453517	343.61972789115646	41	127
343.61972789115646	343.66616780045354	56	127
343.61972789115646	343.66616780045354	40	127
343.6777777777778	343.7242176870748	56	127
343.6777777777778	343.7242176870748	40	127
343.7242176870748	343.7822448979592	56	127
343.7242176870748	343.7822448979592	40	127
343.7822448979592	343.8287074829932	56	127
343.7822448979592	343.8287074829932	40	127
343.84031746031746	343.88673469387754	56	127
343.84031746031746	343.88673469387754	40	127
343.88673469387754	343.94480725623583	56	127
343.88673469387754	343.94480725623583	40	127
343.94480725623583	343.9912244897959	56	127
343.94480725623583	343.9912244897959	40	127
344.0028571428571	344.0492970521542	56	127
344.0028571428571	344.0492970521542	40	127
344.0492970521542	344.1073469387755	54	127
344.0492970521542	344.1073469387755	38	127
344.0492970521542	344.1073469387755	45	127
344.1073469387755	344.15378684807257	54	127
344.1073469387755	344.15378684807257	38	127
344.1073469387755	344.15378684807257	45	127
344.16539682539684	344.21183673469386	54	127
344.16539682539684	344.21183673469386	38	127
344.16539682539684	344.21183673469386	45	127
344.22344671201813	344.2698866213152	54	127
344.22344671201813	344.2698866213152	38	127
344.22344671201813	344.2698866213152	45	127
344.2698866213152	344.3279365079365	54	127
344.2698866213152	344.3279365079365	38	127
344.2698866213152	344.3279365079365	45	127
344.3279365079365	344.3743764172336	54	127
344.3279365079365	344.3743764172336	38	127
344.3279365079365	344.3743764172336	45	127
344.38598639455785	344.43242630385487	54	127
344.38598639455785	344.43242630385487	38	127
344.38598639455785	344.43242630385487	45	127
344.43242630385487	344.4904761904762	54	127
344.43242630385487	344.4904761904762	38	127
344.43242630385487	344.4904761904762	45	127
344.4904761904762	344.53691609977324	50	127
344.4904761904762	344.53691609977324	58	127
344.4904761904762	344.53691609977324	36	127
344.4904761904762	344.53691609977324	43	127
344.5485260770975	344.5833560090703	50	127
344.5485260770975	344.5833560090703	58	127
344.5485260770975	344.5833560090703	36	127
344.5485260770975	344.5833560090703	43	127
344.5833560090703	344.6414058956916	50	127
344.5833560090703	344.6414058956916	58	127
344.5833560090703	344.6414058956916	36	127
344.5833560090703	344.6414058956916	43	127
344.6414058956916	344.6878458049887	50	127
344.6414058956916	344.6878458049887	58	127
344.6414058956916	344.6878458049887	36	127
344.6414058956916	344.6878458049887	43	127
344.69945578231295	344.74589569161	50	127
344.69945578231295	344.74589569161	58	127
344.69945578231295	344.74589569161	36	127
344.69945578231295	344.74589569161	43	127
344.74589569161	344.8039229024943	50	127
344.74589569161	344.8039229024943	58	127
344.74589569161	344.8039229024943	36	127
344.74589569161	344.8039229024943	43	127
344.8039229024943	344.85038548752834	50	127
344.8039229024943	344.85038548752834	58	127
344.8039229024943	344.85038548752834	36	127
344.8039229024943	344.85038548752834	43	127
344.8619954648526	344.9084126984127	50	127
344.8619954648526	344.9084126984127	58	127
344.8619954648526	344.9084126984127	36	127
344.8619954648526	344.9084126984127	43	127
344.9084126984127	344.966485260771	58	127
344.9084126984127	344.966485260771	62	127
344.9084126984127	344.966485260771	43	127
344.9084126984127	344.966485260771	52	127
344.966485260771	345.01290249433106	58	127
344.966485260771	345.01290249433106	62	127
344.966485260771	345.01290249433106	43	127
344.966485260771	345.01290249433106	52	127
345.02453514739227	345.07097505668935	58	127
345.02453514739227	345.07097505668935	62	127
345.02453514739227	345.07097505668935	43	127
345.02453514739227	345.07097505668935	52	127
345.07097505668935	345.12902494331064	58	127
345.07097505668935	345.12902494331064	62	127
345.07097505668935	345.12902494331064	43	127
345.07097505668935	345.12902494331064	52	127
345.12902494331064	345.1754648526077	58	127
345.12902494331064	345.1754648526077	62	127
345.12902494331064	345.1754648526077	43	127
345.12902494331064	345.1754648526077	52	127
345.187074829932	345.233514739229	58	127
345.187074829932	345.233514739229	62	127
345.187074829932	345.233514739229	43	127
345.187074829932	345.233514739229	52	127
345.233514739229	345.29156462585036	58	127
345.233514739229	345.29156462585036	62	127
345.233514739229	345.29156462585036	43	127
345.233514739229	345.29156462585036	52	127
345.29156462585036	345.3380045351474	58	127
345.29156462585036	345.3380045351474	62	127
345.29156462585036	345.3380045351474	43	127
345.29156462585036	345.3380045351474	52	127
345.34961451247165	345.3960544217687	62	127
345.34961451247165	345.3960544217687	69	127
345.34961451247165	345.3960544217687	52	127
345.34961451247165	345.3960544217687	58	127
345.407664399093	345.45410430839	62	127
345.407664399093	345.45410430839	69	127
345.407664399093	345.45410430839	52	127
345.407664399093	345.45410430839	58	127
345.45410430839	345.4889342403628	62	127
345.45410430839	345.4889342403628	69	127
345.45410430839	345.4889342403628	52	127
345.45410430839	345.4889342403628	58	127
345.5005442176871	345.5469841269841	62	127
345.5005442176871	345.5469841269841	69	127
345.5005442176871	345.5469841269841	52	127
345.5005442176871	345.5469841269841	58	127
345.5585941043084	345.60503401360546	62	127
345.5585941043084	345.60503401360546	69	127
345.5585941043084	345.60503401360546	52	127
345.5585941043084	345.60503401360546	58	127
345.60503401360546	345.66308390022675	62	127
345.60503401360546	345.66308390022675	69	127
345.60503401360546	345.66308390022675	52	127
345.60503401360546	345.66308390022675	58	127
345.66308390022675	345.69791383219956	62	127
345.66308390022675	345.69791383219956	69	127
345.66308390022675	345.69791383219956	52	127
345.66308390022675	345.69791383219956	58	127
345.70952380952383	345.75596371882085	62	127
345.70952380952383	345.75596371882085	69	127
345.70952380952383	345.75596371882085	52	127
345.70952380952383	345.75596371882085	58	127
345.75596371882085	345.97655328798186	62	127
345.75596371882085	345.97655328798186	69	127
345.75596371882085	346.9401814058957	58	127
