# onset,offset,note,velocity
0.15015873015873016	5.664897959183674	57	127
1.926485260770975	2.1238548752834467	64	127
1.926485260770975	2.414104308390023	45	127
1.926485260770975	2.414104308390023	52	127
1.926485260770975	2.414104308390023	60	127
2.1238548752834467	2.5882539682539685	60	127
2.878503401360544	4.724467120181406	58	127
2.878503401360544	4.724467120181406	43	127
2.878503401360544	4.724467120181406	50	127
2.878503401360544	4.724467120181406	62	127
5.664897959183674	6.3382766439909295	55	127
6.349886621315193	11.318956916099774	57	127
7.719863945578231	8.172630385487528	45	127
7.719863945578231	8.172630385487528	60	127
7.719863945578231	8.172630385487528	52	127
7.719863945578231	8.126213151927438	64	127
8.126213151927438	8.346802721088435	60	127
8.637052154195011	10.424965986394557	50	127
8.637052154195011	10.424965986394557	62	127
8.637052154195011	10.424965986394557	58	127
8.637052154195011	10.424965986394557	43	127
11.318956916099774	12.468344671201814	55	127
12.468344671201814	12.932743764172336	57	127
12.932743764172336	14.186621315192744	55	127
14.186621315192744	15.556598639455782	52	127
15.556598639455782	16.264807256235827	50	127
16.264807256235827	19.933560090702947	57	127
22.26716553287982	27.073696145124718	69	127
23.68358276643991	23.857732426303855	66	127
23.68358276643991	23.857732426303855	61	127
23.68358276643991	23.904172335600908	54	127
23.857732426303855	24.07832199546485	57	127
23.857732426303855	24.07832199546485	61	127
24.356961451247166	26.168117913832198	63	127
24.356961451247166	26.168117913832198	57	127
24.356961451247166	26.168117913832198	51	127
24.356961451247166	26.168117913832198	55	127
27.073696145124718	27.85156462585034	67	127
27.85156462585034	32.60004535147392	69	127
29.291201814058958	29.476961451247167	66	127
29.291201814058958	29.476961451247167	61	127
29.291201814058958	29.523401360544216	54	127
29.476961451247167	29.697551020408163	57	127
29.476961451247167	29.697551020408163	61	127
29.964580498866212	31.68285714285714	63	127
29.964580498866212	31.68285714285714	57	127
29.964580498866212	31.68285714285714	51	127
29.964580498866212	31.68285714285714	55	127
32.60004535147392	33.7378231292517	67	127
33.7378231292517	34.17900226757369	69	127
34.17900226757369	34.64340136054422	67	127
34.64340136054422	35.81600907029478	63	127
36.09462585034014	36.83768707482993	62	127
36.83768707482993	41.60938775510204	61	127
37.97546485260771	38.079954648526076	71	127
37.97546485260771	38.079954648526076	80	127
37.97546485260771	38.079954648526076	76	127
38.09156462585034	38.19605442176871	71	127
38.09156462585034	38.19605442176871	80	127
38.09156462585034	38.19605442176871	76	127
38.20766439909297	38.300544217687076	80	127
38.20766439909297	38.300544217687076	71	127
38.20766439909297	38.300544217687076	76	127
38.31215419501134	38.41664399092971	71	127
38.31215419501134	38.41664399092971	76	127
38.31215419501134	38.41664399092971	80	127
38.42825396825397	38.53274376417234	70	127
38.42825396825397	38.53274376417234	76	127
38.42825396825397	38.53274376417234	82	127
38.53274376417234	38.637233560090706	70	127
38.53274376417234	38.637233560090706	76	127
38.53274376417234	38.637233560090706	82	127
38.64884353741497	38.74172335600907	70	127
38.64884353741497	38.74172335600907	76	127
38.64884353741497	38.74172335600907	82	127
38.74172335600907	38.84621315192744	70	127
38.74172335600907	38.84621315192744	76	127
38.74172335600907	38.84621315192744	82	127
38.8578231292517	38.96231292517007	83	127
38.8578231292517	38.96231292517007	68	127
38.8578231292517	38.96231292517007	76	127
38.96231292517007	39.066802721088436	76	127
38.96231292517007	39.066802721088436	83	127
38.96231292517007	39.066802721088436	68	127
39.0784126984127	39.171292517006805	68	127
39.0784126984127	39.171292517006805	76	127
39.0784126984127	39.171292517006805	83	127
39.18290249433107	39.287392290249436	68	127
39.18290249433107	39.287392290249436	76	127
39.18290249433107	39.287392290249436	83	127
39.2990022675737	39.39185941043084	67	127
39.2990022675737	39.39185941043084	76	127
39.2990022675737	39.39185941043084	87	127
39.39185941043084	39.496371882086166	67	127
39.39185941043084	39.496371882086166	76	127
39.39185941043084	39.496371882086166	87	127
39.496371882086166	39.600861678004534	67	127
39.496371882086166	39.600861678004534	76	127
39.496371882086166	39.600861678004534	87	127
39.6124716553288	39.69374149659864	67	127
39.6124716553288	39.69374149659864	76	127
39.6124716553288	39.69374149659864	87	127
39.69374149659864	39.75179138321995	68	127
39.69374149659864	39.75179138321995	76	127
39.69374149659864	39.75179138321995	83	127
39.76337868480726	39.86789115646258	83	127
39.76337868480726	39.86789115646258	68	127
39.76337868480726	39.86789115646258	76	127
39.879501133786846	39.983990929705215	83	127
39.879501133786846	39.983990929705215	68	127
39.879501133786846	39.983990929705215	76	127
39.983990929705215	40.08848072562358	68	127
39.983990929705215	40.08848072562358	76	127
39.983990929705215	40.08848072562358	83	127
40.08848072562358	40.19297052154195	70	127
40.08848072562358	40.19297052154195	76	127
40.08848072562358	40.19297052154195	82	127
40.204580498866214	40.29746031746032	70	127
40.204580498866214	40.29746031746032	76	127
40.204580498866214	40.29746031746032	82	127
40.30907029478458	40.401927437641724	70	127
40.30907029478458	40.401927437641724	76	127
40.30907029478458	40.401927437641724	82	127
40.41356009070295	40.50643990929705	70	127
40.41356009070295	40.50643990929705	76	127
40.41356009070295	40.50643990929705	82	127
40.51804988662131	40.61092970521542	71	127
40.51804988662131	40.61092970521542	76	127
40.51804988662131	40.61092970521542	80	127
40.62253968253968	40.71541950113379	71	127
40.62253968253968	40.71541950113379	76	127
40.62253968253968	40.71541950113379	80	127
40.72702947845805	40.808299319727894	80	127
40.72702947845805	40.808299319727894	71	127
40.72702947845805	40.808299319727894	76	127
40.819909297052156	40.90117913832199	76	127
40.819909297052156	40.90117913832199	80	127
40.819909297052156	40.90117913832199	71	127
40.90117913832199	41.00566893424036	71	127
40.90117913832199	41.00566893424036	76	127
41.00566893424036	41.09854875283447	71	127
41.00566893424036	41.09854875283447	76	127
41.11015873015873	41.203038548752836	71	127
41.11015873015873	41.203038548752836	76	127
41.2146485260771	41.26108843537415	71	127
41.2146485260771	41.26108843537415	76	127
41.27269841269841	41.36557823129252	64	127
41.27269841269841	41.36557823129252	68	127
41.27269841269841	41.36557823129252	68	127
41.36557823129252	41.4352380952381	64	127
41.36557823129252	41.4352380952381	68	127
41.36557823129252	41.4352380952381	68	127
41.4352380952381	41.50489795918367	64	127
41.4352380952381	41.50489795918367	68	127
41.4352380952381	41.50489795918367	68	127
41.516507936507935	41.59777777777778	68	127
41.516507936507935	41.59777777777778	64	127
41.516507936507935	41.59777777777778	68	127
41.60938775510204	42.015736961451246	59	127
41.60938775510204	41.70226757369615	61	127
41.60938775510204	41.70226757369615	68	127
41.60938775510204	41.70226757369615	64	127
41.70226757369615	41.79512471655329	64	127
41.70226757369615	41.79512471655329	61	127
41.70226757369615	41.79512471655329	68	127
41.80673469387755	41.899637188208615	68	127
41.80673469387755	41.899637188208615	64	127
41.80673469387755	41.899637188208615	61	127
41.91124716553288	42.015736961451246	68	127
41.91124716553288	42.015736961451246	64	127
41.91124716553288	42.015736961451246	61	127
42.015736961451246	42.120226757369615	64	127
42.015736961451246	42.120226757369615	59	127
42.015736961451246	42.49174603174603	56	127
42.13183673469388	42.236326530612246	59	127
42.13183673469388	42.236326530612246	64	127
42.24793650793651	42.35242630385488	59	127
42.24793650793651	42.35242630385488	64	127
42.36403628117914	42.46852607709751	59	127
42.36403628117914	42.46852607709751	64	127
42.49174603174603	42.5962358276644	59	127
42.49174603174603	43.02580498866213	52	127
42.49174603174603	42.5962358276644	56	127
42.60784580498866	42.75877551020408	56	127
42.60784580498866	42.75877551020408	59	127
42.770385487528344	42.886485260770975	59	127
42.770385487528344	42.886485260770975	56	127
42.89809523809524	43.01419501133787	59	127
42.89809523809524	43.01419501133787	56	127
43.02580498866213	43.14190476190476	52	127
43.02580498866213	43.14190476190476	56	127
43.02580498866213	43.571451247165534	47	127
43.153514739229024	43.28122448979592	52	127
43.153514739229024	43.28122448979592	56	127
43.29283446712018	43.42054421768707	56	127
43.29283446712018	43.42054421768707	52	127
43.42054421768707	43.54825396825397	56	127
43.42054421768707	43.54825396825397	52	127
43.571451247165534	43.72240362811792	63	127
43.571451247165534	43.72240362811792	59	127
43.571451247165534	43.72240362811792	53	127
43.571451247165534	43.72240362811792	37	127
43.73401360544218	43.89655328798186	59	127
43.73401360544218	43.89655328798186	63	127
43.73401360544218	43.89655328798186	53	127
43.73401360544218	43.89655328798186	37	127
43.90816326530612	44.05909297052154	59	127
43.90816326530612	44.05909297052154	63	127
43.90816326530612	44.05909297052154	53	127
43.90816326530612	44.05909297052154	37	127
44.08229024943311	44.23324263038549	37	127
44.08229024943311	44.23324263038549	59	127
44.08229024943311	44.23324263038549	63	127
44.08229024943311	44.23324263038549	53	127
44.24485260770975	44.40739229024943	63	127
44.24485260770975	44.40739229024943	53	127
44.24485260770975	46.555238095238096	69	127
44.24485260770975	44.40739229024943	59	127
44.24485260770975	44.40739229024943	37	127
44.419002267573696	44.55832199546485	63	127
44.419002267573696	44.55832199546485	53	127
44.419002267573696	44.55832199546485	37	127
44.419002267573696	44.55832199546485	59	127
44.581541950113376	44.720839002267574	63	127
44.581541950113376	44.720839002267574	53	127
44.581541950113376	44.720839002267574	37	127
44.581541950113376	44.720839002267574	59	127
44.7324716553288	44.89501133786848	63	127
44.7324716553288	44.89501133786848	53	127
44.7324716553288	44.89501133786848	37	127
44.7324716553288	44.89501133786848	59	127
44.906621315192744	45.03433106575964	63	127
44.906621315192744	45.03433106575964	53	127
44.906621315192744	45.03433106575964	37	127
44.906621315192744	45.03433106575964	59	127
45.0459410430839	45.138820861678006	63	127
45.0459410430839	45.138820861678006	53	127
45.0459410430839	45.138820861678006	37	127
45.0459410430839	45.138820861678006	59	127
45.15043083900227	45.2665306122449	53	127
45.15043083900227	45.2665306122449	59	127
45.15043083900227	45.2665306122449	63	127
45.15043083900227	45.2665306122449	37	127
45.2665306122449	45.34777777777778	63	127
45.2665306122449	45.34777777777778	53	127
45.2665306122449	45.34777777777778	37	127
45.2665306122449	45.34777777777778	59	127
45.359410430839006	45.46390022675737	63	127
45.359410430839006	45.46390022675737	53	127
45.359410430839006	45.46390022675737	37	127
45.359410430839006	45.46390022675737	59	127
45.47548752834467	45.59160997732426	63	127
45.47548752834467	45.59160997732426	53	127
45.47548752834467	45.59160997732426	37	127
45.47548752834467	45.59160997732426	59	127
45.603197278911566	45.742539682539686	63	127
45.603197278911566	45.742539682539686	53	127
45.603197278911566	45.742539682539686	37	127
45.603197278911566	45.742539682539686	59	127
45.742539682539686	45.88185941043084	63	127
45.742539682539686	45.88185941043084	53	127
45.742539682539686	45.88185941043084	37	127
45.742539682539686	45.88185941043084	59	127
45.893469387755104	46.056009070294785	62	127
45.893469387755104	46.056009070294785	53	127
45.893469387755104	46.056009070294785	37	127
45.893469387755104	46.056009070294785	59	127
46.06761904761905	46.218548752834465	62	127
46.06761904761905	46.218548752834465	59	127
46.06761904761905	46.218548752834465	53	127
46.06761904761905	46.218548752834465	37	127
46.23015873015873	46.369455782312926	53	127
46.23015873015873	46.369455782312926	37	127
46.23015873015873	46.369455782312926	59	127
46.23015873015873	46.369455782312926	62	127
46.392698412698415	46.54362811791383	53	127
46.392698412698415	46.54362811791383	37	127
46.392698412698415	46.54362811791383	59	127
46.392698412698415	46.54362811791383	62	127
46.555238095238096	46.717777777777776	53	127
46.555238095238096	46.984807256235825	67	127
46.555238095238096	46.717777777777776	37	127
46.555238095238096	46.717777777777776	59	127
46.555238095238096	46.717777777777776	62	127
46.72938775510204	46.81065759637188	59	127
46.72938775510204	46.81065759637188	62	127
46.72938775510204	46.81065759637188	53	127
46.72938775510204	46.81065759637188	37	127
46.822267573696145	46.984807256235825	59	127
46.822267573696145	46.984807256235825	62	127
46.822267573696145	46.984807256235825	53	127
46.822267573696145	46.984807256235825	37	127
46.99639455782313	47.11251700680272	59	127
46.99639455782313	47.11251700680272	62	127
46.99639455782313	47.11251700680272	53	127
46.99639455782313	47.11251700680272	37	127
46.99639455782313	50.107891156462586	69	127
47.13573696145125	47.28666666666667	62	127
47.13573696145125	47.28666666666667	53	127
47.13573696145125	47.28666666666667	37	127
47.13573696145125	47.28666666666667	59	127
47.29827664399093	47.44920634920635	62	127
47.29827664399093	47.44920634920635	53	127
47.29827664399093	47.44920634920635	37	127
47.29827664399093	47.44920634920635	59	127
47.44920634920635	47.588526077097505	62	127
47.44920634920635	47.588526077097505	53	127
47.44920634920635	47.588526077097505	37	127
47.44920634920635	47.588526077097505	59	127
47.61174603174603	47.77428571428572	62	127
47.61174603174603	47.77428571428572	53	127
47.61174603174603	47.77428571428572	37	127
47.61174603174603	47.77428571428572	59	127
47.78589569160998	47.9368253968254	62	127
47.78589569160998	47.9368253968254	53	127
47.78589569160998	47.9368253968254	37	127
47.78589569160998	47.9368253968254	59	127
47.94843537414966	48.09936507936508	53	127
47.94843537414966	48.09936507936508	59	127
47.94843537414966	48.09936507936508	62	127
47.94843537414966	48.09936507936508	37	127
48.11097505668934	48.192244897959185	37	127
48.11097505668934	48.192244897959185	59	127
48.11097505668934	48.192244897959185	62	127
48.11097505668934	48.192244897959185	53	127
48.192244897959185	48.29673469387755	37	127
48.192244897959185	48.29673469387755	63	127
48.192244897959185	48.29673469387755	59	127
48.192244897959185	48.29673469387755	53	127
48.308344671201816	48.470884353741496	63	127
48.308344671201816	48.470884353741496	59	127
48.308344671201816	48.470884353741496	53	127
48.308344671201816	48.470884353741496	37	127
48.48249433106576	48.621814058956915	37	127
48.48249433106576	48.621814058956915	59	127
48.48249433106576	48.621814058956915	63	127
48.48249433106576	48.621814058956915	53	127
48.63342403628118	48.795963718820865	37	127
48.63342403628118	48.795963718820865	59	127
48.63342403628118	48.795963718820865	53	127
48.63342403628118	48.795963718820865	63	127
48.80757369614513	48.97011337868481	37	127
48.80757369614513	48.97011337868481	59	127
48.80757369614513	48.97011337868481	63	127
48.80757369614513	48.97011337868481	53	127
48.98172335600907	49.121043083900226	37	127
48.98172335600907	49.121043083900226	59	127
48.98172335600907	49.121043083900226	63	127
48.98172335600907	49.121043083900226	53	127
49.13265306122449	49.283582766439906	37	127
49.13265306122449	49.283582766439906	53	127
49.13265306122449	49.283582766439906	63	127
49.13265306122449	49.283582766439906	59	127
49.295192743764176	49.457732426303856	37	127
49.295192743764176	49.457732426303856	59	127
49.295192743764176	49.457732426303856	63	127
49.295192743764176	49.457732426303856	53	127
49.46934240362812	49.59705215419501	59	127
49.46934240362812	49.59705215419501	62	127
49.46934240362812	49.59705215419501	53	127
49.46934240362812	49.59705215419501	37	127
49.62027210884354	49.771201814058955	59	127
49.62027210884354	49.771201814058955	62	127
49.62027210884354	49.771201814058955	53	127
49.62027210884354	49.771201814058955	37	127
49.78281179138322	49.945351473922905	59	127
49.78281179138322	49.945351473922905	62	127
49.78281179138322	49.945351473922905	53	127
49.78281179138322	49.945351473922905	37	127
49.95696145124717	50.107891156462586	37	127
49.95696145124717	50.107891156462586	59	127
49.95696145124717	50.107891156462586	62	127
49.95696145124717	50.107891156462586	53	127
50.13111111111111	50.28204081632653	59	127
50.13111111111111	50.28204081632653	62	127
50.13111111111111	50.28204081632653	53	127
50.13111111111111	50.28204081632653	37	127
50.13111111111111	51.24566893424036	67	127
50.29365079365079	50.46780045351474	53	127
50.29365079365079	50.46780045351474	59	127
50.29365079365079	50.46780045351474	37	127
50.29365079365079	50.46780045351474	62	127
50.479410430839	50.63034013605442	59	127
50.479410430839	50.63034013605442	62	127
50.479410430839	50.63034013605442	53	127
50.479410430839	50.63034013605442	37	127
50.653560090702946	50.804489795918364	37	127
50.653560090702946	50.804489795918364	59	127
50.653560090702946	50.804489795918364	62	127
50.653560090702946	50.804489795918364	53	127
50.816099773242634	51.477868480725625	59	127
50.816099773242634	51.477868480725625	63	127
50.816099773242634	51.477868480725625	53	127
50.816099773242634	51.477868480725625	37	127
51.24566893424036	51.72167800453515	69	127
51.72167800453515	52.13963718820862	67	127
52.13963718820862	53.1497052154195	63	127
53.3702947845805	54.03206349206349	67	127
54.03206349206349	59.68612244897959	69	127
54.647392290249435	54.83315192743764	37	127
54.83315192743764	56.284399092970524	63	127
54.83315192743764	55.99414965986394	44	127
54.83315192743764	55.99414965986394	53	127
54.83315192743764	56.284399092970524	59	127
56.284399092970524	58.00267573696145	65	127
56.284399092970524	58.00267573696145	61	127
59.68612244897959	61.12575963718821	70	127
60.429160997732424	63.215555555555554	70	127
61.13736961451247	61.88040816326531	66	127
61.88040816326531	62.565396825396824	65	127
62.565396825396824	63.215555555555554	66	127
63.215555555555554	64.38816326530612	66	127
63.215555555555554	63.877324263038545	65	127
63.877324263038545	64.59714285714286	63	127
64.60875283446713	65.23569160997732	61	127
64.60875283446713	67.08167800453515	73	127
64.60875283446713	68.35877551020408	58	127
65.23569160997732	65.90907029478458	63	127
65.90907029478458	66.4779365079365	65	127
66.4779365079365	67.08167800453515	68	127
67.08167800453515	67.73181405895691	65	127
67.08167800453515	68.35877551020408	70	127
67.73181405895691	68.34716553287981	61	127
68.35877551020408	72.32938775510205	51	127
68.35877551020408	69.00891156462585	58	127
68.35877551020408	70.34408163265306	65	127
69.00891156462585	69.65909297052154	61	127
69.65909297052154	70.34408163265306	66	127
70.34408163265306	70.97102040816327	61	127
70.34408163265306	70.97102040816327	63	127
70.97102040816327	71.64439909297052	58	127
70.97102040816327	71.64439909297052	65	127
71.64439909297052	72.31777777777778	56	127
71.64439909297052	72.32938775510205	61	127
72.32938775510205	75.92848072562359	47	127
72.32938775510205	72.95632653061224	58	127
72.32938775510205	75.56857142857143	63	127
72.95632653061224	73.61809523809524	56	127
73.61809523809524	74.2566439909297	58	127
74.2566439909297	74.89519274376417	59	127
74.89519274376417	75.58018140589569	61	127
75.58018140589569	76.1722902494331	63	127
75.58018140589569	76.18390022675737	63	127
76.18390022675737	77.61192743764173	59	127
76.18390022675737	76.91532879818594	58	127
76.18390022675737	76.91532879818594	66	127
76.91532879818594	77.61192743764173	63	127
76.91532879818594	77.61192743764173	68	127
77.61192743764173	79.0631746031746	65	127
77.61192743764173	78.30852607709751	65	127
77.61192743764173	78.80775510204082	56	127
78.30852607709751	79.0631746031746	61	127
79.0631746031746	79.99197278911565	59	127
79.0631746031746	79.99197278911565	63	127
79.0631746031746	79.99197278911565	54	127
79.99197278911565	80.87433106575963	68	127
79.99197278911565	80.87433106575963	61	127
79.99197278911565	80.87433106575963	53	127
80.8859410430839	83.61428571428571	70	127
80.8859410430839	82.25591836734694	78	127
80.8859410430839	83.61428571428571	58	127
80.8859410430839	83.61428571428571	42	127
80.8859410430839	83.61428571428571	49	127
82.25591836734694	82.9292970521542	76	127
82.9292970521542	83.60265306122449	78	127
83.61428571428571	84.87977324263039	61	127
83.61428571428571	84.87977324263039	64	127
83.61428571428571	84.87977324263039	45	127
83.61428571428571	86.21492063492063	69	127
83.61428571428571	84.87977324263039	52	127
83.61428571428571	84.87977324263039	73	127
84.87977324263039	86.21492063492063	65	127
84.87977324263039	86.21492063492063	43	127
84.87977324263039	85.98272108843537	76	127
84.87977324263039	86.21492063492063	59	127
84.87977324263039	86.21492063492063	50	127
86.21492063492063	88.89682539682539	70	127
86.21492063492063	86.89988662131519	78	127
86.21492063492063	88.89682539682539	58	127
86.21492063492063	88.89682539682539	42	127
86.21492063492063	88.89682539682539	49	127
86.89988662131519	87.57328798185941	76	127
87.57328798185941	88.22344671201814	76	127
88.22344671201814	88.88521541950114	78	127
88.89682539682539	90.25519274376417	73	127
88.89682539682539	90.25519274376417	61	127
88.89682539682539	90.25519274376417	45	127
88.89682539682539	90.25519274376417	52	127
88.89682539682539	91.4509977324263	69	127
88.89682539682539	90.02299319727891	64	127
90.25519274376417	91.68321995464852	43	127
90.25519274376417	91.4509977324263	76	127
90.25519274376417	91.4509977324263	65	127
90.25519274376417	91.68321995464852	59	127
90.25519274376417	91.68321995464852	50	127
91.68321995464852	95.09655328798186	58	127
91.68321995464852	92.84421768707483	78	127
91.68321995464852	94.09809523809524	42	127
91.68321995464852	94.09809523809524	49	127
92.39142857142858	93.06480725623582	70	127
93.06480725623582	93.74977324263038	73	127
93.74977324263038	94.44639455782313	75	127
94.4580045351474	96.55941043083901	77	127
95.11977324263039	95.64222222222222	70	127
95.64222222222222	96.11823129251701	68	127
96.11823129251701	96.79160997732426	70	127
96.79160997732426	97.25600907029478	75	127
96.79160997732426	97.25600907029478	66	127
97.25600907029478	97.8132879818594	73	127
97.25600907029478	97.82489795918367	68	127
97.82489795918367	98.49827664399093	65	127
97.82489795918367	99.1368253968254	58	127
97.82489795918367	98.27768707482993	70	127
98.27768707482993	98.70725623582767	73	127
98.49827664399093	99.11360544217688	68	127
98.70725623582767	99.11360544217688	77	127
99.1368253968254	101.42399092970521	70	127
99.1368253968254	99.77537414965987	66	127
99.1368253968254	100.78544217687075	75	127
99.77537414965987	100.26299319727892	68	127
100.26299319727892	100.78544217687075	66	127
100.78544217687075	101.42399092970521	68	127
100.78544217687075	101.40077097505669	77	127
101.42399092970521	102.7475283446712	58	127
101.42399092970521	102.07414965986395	65	127
101.42399092970521	102.07414965986395	73	127
102.07414965986395	102.73591836734694	68	127
102.07414965986395	102.7475283446712	70	127
102.7475283446712	105.8590022675737	56	127
102.7475283446712	103.4092970521542	71	127
102.7475283446712	103.92013605442177	66	127
102.7475283446712	103.92013605442177	80	127
103.4092970521542	103.92013605442177	75	127
103.92013605442177	104.54707482993197	71	127
103.92013605442177	104.98825396825397	63	127
103.92013605442177	104.54707482993197	78	127
104.54707482993197	105.20884353741496	66	127
104.54707482993197	105.20884353741496	75	127
105.20884353741496	105.8590022675737	71	127
105.20884353741496	105.8590022675737	63	127
105.8590022675737	106.50916099773242	51	127
105.8590022675737	106.49755102040817	59	127
105.8590022675737	106.50916099773242	66	127
106.50916099773242	110.51460317460318	46	127
106.50916099773242	106.98517006802722	61	127
106.50916099773242	107.79786848072563	65	127
106.50916099773242	108.83115646258503	55	127
107.17092970521541	107.64693877551021	61	127
107.79786848072563	108.48285714285714	60	127
107.79786848072563	110.08503401360544	63	127
108.48285714285714	109.21428571428571	61	127
109.21428571428571	110.68875283446712	55	127
110.08503401360544	110.95578231292517	61	127
110.96739229024944	113.70734693877552	37	127
110.96739229024944	112.33736961451247	85	127
110.96739229024944	113.70734693877552	65	127
110.96739229024944	113.70734693877552	44	127
110.96739229024944	113.70734693877552	73	127
110.96739229024944	113.70734693877552	77	127
110.96739229024944	113.70734693877552	59	127
112.33736961451247	113.02235827664398	83	127
113.02235827664398	113.69573696145125	85	127
113.70734693877552	116.40086167800453	40	127
113.70734693877552	115.05410430839002	80	127
113.70734693877552	116.40086167800453	71	127
113.70734693877552	116.40086167800453	76	127
113.70734693877552	116.40086167800453	56	127
113.70734693877552	116.40086167800453	62	127
113.70734693877552	116.40086167800453	47	127
115.05410430839002	116.18027210884354	83	127
116.40086167800453	117.08585034013605	85	127
116.40086167800453	119.09437641723356	44	127
116.40086167800453	119.09437641723356	59	127
116.40086167800453	119.09437641723356	65	127
116.40086167800453	119.09437641723356	37	127
116.40086167800453	119.09437641723356	73	127
116.40086167800453	119.09437641723356	77	127
117.08585034013605	117.77083900226758	83	127
117.77083900226758	118.40938775510205	83	127
118.40938775510205	119.09437641723356	85	127
119.09437641723356	121.8459410430839	62	127
119.09437641723356	121.8459410430839	40	127
119.09437641723356	120.48757369614512	80	127
119.09437641723356	121.8459410430839	47	127
119.09437641723356	121.8459410430839	71	127
119.09437641723356	121.8459410430839	76	127
119.09437641723356	121.8459410430839	56	127
120.48757369614512	121.8459410430839	83	127
121.8459410430839	122.98371882086168	85	127
121.8459410430839	122.53092970521541	73	127
121.8459410430839	122.53092970521541	77	127
121.8459410430839	122.98371882086168	59	127
121.8459410430839	122.98371882086168	65	127
121.8459410430839	122.98371882086168	37	127
121.8459410430839	122.98371882086168	44	127
122.53092970521541	123.19269841269842	61	127
123.19269841269842	123.7615873015873	60	127
123.7615873015873	124.28403628117914	61	127
124.28403628117914	124.8297052154195	62	127
124.28403628117914	125.24766439909297	61	127
124.8297052154195	125.44503401360544	63	127
125.44503401360544	127.941179138322	68	127
125.44503401360544	126.0255328798186	66	127
126.0255328798186	126.64086167800454	65	127
126.6524716553288	127.33746031746031	62	127
126.6524716553288	127.941179138322	59	127
127.33746031746031	127.941179138322	63	127
127.941179138322	128.9628344671202	58	127
127.941179138322	128.33591836734695	66	127
127.941179138322	128.9628344671202	70	127
128.33591836734695	128.74226757369615	62	127
128.74226757369615	129.1950566893424	66	127
129.1950566893424	131.69120181405896	68	127
129.1950566893424	129.83360544217686	62	127
129.83360544217686	130.4257142857143	63	127
130.4257142857143	131.06426303854875	66	127
130.4257142857143	131.69120181405896	59	127
131.06426303854875	131.69120181405896	65	127
131.69120181405896	134.10607709750568	58	127
131.69120181405896	132.34136054421768	62	127
131.69120181405896	132.68963718820862	66	127
132.34136054421768	133.01473922902494	63	127
132.68963718820862	133.01473922902494	73	127
133.01473922902494	134.62852607709752	73	127
133.01473922902494	133.43269841269841	64	127
133.43269841269841	134.10607709750568	65	127
134.10607709750568	135.2902947845805	56	127
134.10607709750568	134.62852607709752	70	127
134.62852607709752	135.2902947845805	64	127
134.62852607709752	135.2902947845805	75	127
135.2902947845805	135.87079365079364	70	127
135.2902947845805	135.87079365079364	65	127
135.2902947845805	138.1463492063492	55	127
135.87079365079364	136.50934240362812	75	127
135.87079365079364	136.5209523809524	70	127
136.5209523809524	136.9505215419501	73	127
136.5209523809524	137.07823129251702	64	127
136.9505215419501	137.298820861678	71	127
137.07823129251702	137.71678004535147	65	127
137.298820861678	137.71678004535147	70	127
137.71678004535147	138.34371882086168	70	127
137.71678004535147	139.43505668934242	70	127
138.34371882086168	139.6556462585034	54	127
138.34371882086168	138.9706575963719	64	127
138.9706575963719	139.6556462585034	65	127
139.6556462585034	140.45673469387756	64	127
139.6556462585034	140.45673469387756	66	127
139.6556462585034	140.45673469387756	70	127
140.45673469387756	142.44204081632654	67	127
140.45673469387756	141.1068934240363	59	127
140.45673469387756	147.50399092970522	62	127
140.45673469387756	141.79185941043085	73	127
141.1068934240363	141.79185941043085	61	127
141.79185941043085	142.45362811791384	62	127
141.79185941043085	143.1154195011338	71	127
142.45362811791384	142.70904761904762	65	127
142.70904761904762	143.33600907029478	66	127
143.33600907029478	144.0209977324263	70	127
143.33600907029478	144.0209977324263	70	127
144.0209977324263	145.32131519274375	70	127
144.0209977324263	147.50399092970522	56	127
144.0209977324263	144.6827664399093	71	127
144.6827664399093	145.32131519274375	73	127
145.32131519274375	145.95986394557823	74	127
145.32131519274375	147.12086167800453	68	127
145.95986394557823	146.389410430839	78	127
146.389410430839	147.12086167800453	82	127
147.12086167800453	147.86390022675738	83	127
147.12086167800453	147.86390022675738	66	127
147.87548752834468	148.57210884353742	74	127
147.87548752834468	148.57210884353742	89	127
147.87548752834468	148.57210884353742	65	127
147.87548752834468	148.57210884353742	58	127
148.57210884353742	149.25707482993198	62	127
148.57210884353742	149.25707482993198	77	127
148.57210884353742	149.25707482993198	68	127
148.57210884353742	149.94208616780045	84	127
149.25707482993198	149.94208616780045	70	127
149.25707482993198	149.94208616780045	80	127
149.25707482993198	149.94208616780045	65	127
149.94208616780045	150.42968253968255	77	127
149.94208616780045	150.42968253968255	82	127
149.94208616780045	150.42968253968255	74	127
149.94208616780045	150.42968253968255	68	127
150.42968253968255	151.4978231292517	76	127
150.42968253968255	150.82444444444445	80	127
150.42968253968255	150.82444444444445	75	127
150.42968253968255	151.4978231292517	71	127
150.42968253968255	151.4978231292517	61	127
150.82444444444445	151.2772335600907	82	127
150.82444444444445	151.2772335600907	73	127
151.2772335600907	151.69519274376418	83	127
151.2772335600907	151.69519274376418	68	127
151.70678004535148	152.36857142857144	74	127
151.70678004535148	152.36857142857144	89	127
151.70678004535148	152.36857142857144	58	127
151.70678004535148	152.36857142857144	65	127
152.36857142857144	152.79814058956916	68	127
152.36857142857144	152.79814058956916	77	127
152.36857142857144	152.79814058956916	62	127
152.36857142857144	153.4134693877551	84	127
152.79814058956916	153.4134693877551	80	127
152.79814058956916	153.4134693877551	70	127
152.79814058956916	153.4134693877551	65	127
153.4134693877551	154.09845804988663	77	127
153.4134693877551	153.64566893424038	82	127
153.4134693877551	154.09845804988663	74	127
153.4134693877551	154.09845804988663	68	127
153.64566893424038	153.87786848072562	84	127
153.87786848072562	154.09845804988663	82	127
154.09845804988663	155.2942857142857	76	127
154.09845804988663	155.2942857142857	61	127
154.09845804988663	154.30743764172337	75	127
154.09845804988663	154.43514739229025	80	127
154.09845804988663	155.2942857142857	71	127
154.30743764172337	154.52802721088435	73	127
154.43514739229025	154.85310657596372	82	127
154.52802721088435	154.77181405895692	75	127
154.77181405895692	155.0272335600907	73	127
154.85310657596372	155.2942857142857	83	127
155.0272335600907	155.2942857142857	68	127
155.30589569160998	159.9150566893424	58	127
155.30589569160998	155.96766439909297	89	127
155.30589569160998	155.96766439909297	74	127
155.30589569160998	155.96766439909297	65	127
155.96766439909297	157.3144217687075	84	127
155.96766439909297	156.6526530612245	75	127
155.96766439909297	156.6526530612245	66	127
156.6526530612245	157.3144217687075	67	127
156.6526530612245	157.3144217687075	76	127
157.3144217687075	157.97619047619048	82	127
157.3144217687075	157.97619047619048	77	127
157.3144217687075	157.97619047619048	68	127
157.97619047619048	158.13873015873017	69	127
157.97619047619048	158.13873015873017	89	127
157.97619047619048	158.13873015873017	78	127
158.13873015873017	158.70761904761906	79	127
158.13873015873017	158.70761904761906	70	127
158.13873015873017	159.23006802721088	84	127
158.70761904761906	159.9150566893424	80	127
158.70761904761906	158.99786848072563	71	127
158.99786848072563	159.23006802721088	72	127
159.23006802721088	159.56675736961452	73	127
159.23006802721088	159.9150566893424	82	127
159.56675736961452	159.9150566893424	74	127
159.9150566893424	160.56521541950113	89	127
159.9150566893424	160.56521541950113	77	127
159.9150566893424	164.39650793650793	63	127
159.9150566893424	163.35160997732427	78	127
160.56521541950113	161.22698412698412	70	127
160.56521541950113	160.7974149659864	87	127
160.7974149659864	160.99478458049887	89	127
160.99478458049887	161.22698412698412	87	127
161.22698412698412	162.32993197278913	72	127
161.22698412698412	161.6449433106576	84	127
161.6449433106576	162.31832199546486	82	127
162.32993197278913	163.01492063492063	73	127
162.32993197278913	163.01492063492063	78	127
163.01492063492063	163.69990929705216	77	127
163.01492063492063	163.6882993197279	70	127
163.69990929705216	164.39650793650793	73	127
163.69990929705216	164.39650793650793	66	127
163.69990929705216	164.39650793650793	77	127
164.39650793650793	165.05827664399092	65	127
164.39650793650793	164.61709750566894	75	127
164.39650793650793	165.0466439909297	72	127
164.39650793650793	165.0466439909297	68	127
164.61709750566894	164.84929705215418	77	127
164.84929705215418	165.05827664399092	75	127
165.05827664399092	165.39496598639457	70	127
165.05827664399092	165.70843537414967	66	127
165.05827664399092	165.7200453514739	72	127
165.39496598639457	166.05673469387756	78	127
165.39496598639457	166.05673469387756	82	127
165.7200453514739	166.40503401360544	70	127
166.05673469387756	167.03197278911566	94	127
166.05673469387756	167.03197278911566	90	127
166.40503401360544	167.04356009070295	66	127
167.04356009070295	167.8098185941043	58	127
167.8098185941043	169.41201814058957	58	127
169.41201814058957	171.10707482993197	60	127
171.10707482993197	172.8253514739229	61	127
172.8253514739229	174.43913832199547	58	127
172.8253514739229	175.84394557823128	70	127
172.8253514739229	181.69537414965987	51	127
173.7657596371882	174.43913832199547	66	127
174.43913832199547	175.84394557823128	60	127
174.43913832199547	175.1473469387755	65	127
175.1473469387755	175.84394557823128	66	127
175.84394557823128	176.64503401360545	65	127
175.84394557823128	177.12104308390022	66	127
175.84394557823128	177.39968253968254	61	127
176.64503401360545	177.39968253968254	63	127
177.39968253968254	181.69537414965987	65	127
177.39968253968254	178.10789115646259	61	127
177.39968253968254	181.69537414965987	55	127
177.39968253968254	180.1396371882086	73	127
178.10789115646259	178.76965986394558	63	127
178.76965986394558	179.4546485260771	65	127
179.4546485260771	180.1396371882086	70	127
180.1396371882086	181.69537414965987	70	127
180.1396371882086	180.8362358276644	65	127
180.8362358276644	181.69537414965987	61	127
181.69537414965987	184.24956916099774	49	127
181.69537414965987	183.18145124716554	63	127
181.69537414965987	183.90126984126985	65	127
181.69537414965987	184.24956916099774	59	127
183.18145124716554	184.36566893424038	70	127
183.90126984126985	184.74879818594104	63	127
184.74879818594104	185.45700680272108	65	127
185.45700680272108	186.3974149659864	61	127
186.3974149659864	188.78907029478458	63	127
189.04448979591837	191.76122448979592	66	127
191.09945578231293	193.78136054421768	49	127
191.09945578231293	192.4578231292517	66	127
191.09945578231293	193.78136054421768	58	127
191.09945578231293	193.78136054421768	42	127
192.4578231292517	193.11959183673468	64	127
193.11959183673468	193.78136054421768	66	127
193.78136054421768	195.11650793650793	45	127
193.78136054421768	195.11650793650793	61	127
193.78136054421768	195.11650793650793	57	127
193.78136054421768	195.11650793650793	52	127
195.11650793650793	196.5097052154195	59	127
195.11650793650793	196.25428571428571	64	127
195.11650793650793	196.5097052154195	43	127
195.11650793650793	196.5097052154195	50	127
196.5097052154195	199.2728798185941	49	127
196.5097052154195	197.19469387755103	66	127
196.5097052154195	199.2728798185941	58	127
196.5097052154195	199.2728798185941	42	127
197.19469387755103	197.90290249433107	64	127
197.90290249433107	198.57628117913833	64	127
198.57628117913833	199.2728798185941	66	127
199.2728798185941	200.6544671201814	61	127
199.2728798185941	200.6544671201814	57	127
199.2728798185941	200.6544671201814	45	127
199.2728798185941	200.6544671201814	52	127
200.6544671201814	201.86190476190475	64	127
200.6544671201814	202.09410430839003	59	127
200.6544671201814	202.09410430839003	43	127
200.6544671201814	202.09410430839003	50	127
202.09410430839003	204.4857596371882	66	127
202.09410430839003	204.4857596371882	58	127
202.09410430839003	204.4857596371882	49	127
202.09410430839003	207.6668934240363	42	127
207.9107029478458	208.86272108843536	41	127
208.978820861678	209.06009070294783	42	127
209.09492063492064	209.17619047619047	41	127
209.21102040816328	209.2922902494331	40	127
209.33873015873016	217.08258503401362	40	127
209.68702947845804	209.77990929705214	61	127
209.68702947845804	209.77990929705214	66	127
209.68702947845804	209.77990929705214	70	127
209.77990929705214	209.89600907029478	58	127
209.77990929705214	209.89600907029478	61	127
209.77990929705214	209.89600907029478	66	127
210.10498866213152	212.17156462585035	68	127
210.10498866213152	212.17156462585035	59	127
210.10498866213152	212.17156462585035	62	127
212.7172335600907	213.18163265306123	56	127
212.7172335600907	213.18163265306123	61	127
212.7172335600907	213.18163265306123	58	127
214.99278911564625	215.4804081632653	56	127
214.99278911564625	215.4804081632653	58	127
214.99278911564625	215.4804081632653	61	127
217.09419501133786	217.36122448979592	42	127
217.36122448979592	218.67315192743763	40	127
218.67315192743763	218.96340136054422	44	127
218.9750113378685	219.26526077097506	40	127
219.27687074829933	219.57873015873017	43	127
219.5903401360544	230.97972789115647	39	127
219.89219954648527	219.98507936507937	79	127
219.89219954648527	219.98507936507937	73	127
219.89219954648527	219.98507936507937	88	127
219.98507936507937	220.0663492063492	83	127
219.98507936507937	220.0663492063492	76	127
219.98507936507937	220.0663492063492	90	127
220.0663492063492	220.1592290249433	79	127
220.0663492063492	220.1592290249433	73	127
220.0663492063492	220.1592290249433	88	127
220.1592290249433	220.25210884353743	83	127
220.1592290249433	220.25210884353743	76	127
220.1592290249433	220.25210884353743	90	127
220.25210884353743	220.34498866213153	79	127
220.25210884353743	220.34498866213153	73	127
220.25210884353743	220.34498866213153	88	127
220.34498866213153	220.42625850340136	90	127
220.34498866213153	220.42625850340136	83	127
220.34498866213153	220.42625850340136	76	127
220.42625850340136	220.51913832199546	79	127
220.42625850340136	220.51913832199546	88	127
220.42625850340136	220.51913832199546	73	127
220.51913832199546	220.61201814058956	83	127
220.51913832199546	220.61201814058956	76	127
220.51913832199546	220.61201814058956	90	127
220.61201814058956	220.6932879818594	79	127
220.61201814058956	220.6932879818594	73	127
220.61201814058956	220.6932879818594	88	127
220.6932879818594	220.7861678004535	83	127
220.6932879818594	220.7861678004535	76	127
220.6932879818594	220.7861678004535	90	127
220.7861678004535	220.8790476190476	79	127
220.7861678004535	220.8790476190476	73	127
220.7861678004535	220.8790476190476	88	127
220.8790476190476	220.96031746031747	83	127
220.8790476190476	220.96031746031747	76	127
220.8790476190476	220.96031746031747	90	127
220.96031746031747	221.05319727891157	79	127
220.96031746031747	221.05319727891157	73	127
220.96031746031747	221.05319727891157	88	127
221.05319727891157	221.14607709750567	83	127
221.05319727891157	221.14607709750567	76	127
221.05319727891157	221.14607709750567	90	127
221.14607709750567	221.2273469387755	88	127
221.14607709750567	221.2273469387755	79	127
221.14607709750567	221.2273469387755	73	127
221.2273469387755	221.32022675736962	83	127
221.2273469387755	221.32022675736962	90	127
221.2273469387755	221.32022675736962	76	127
221.32022675736962	221.41310657596372	79	127
221.32022675736962	221.41310657596372	87	127
221.32022675736962	221.41310657596372	75	127
221.41310657596372	221.50598639455782	88	127
221.41310657596372	221.50598639455782	82	127
221.41310657596372	221.50598639455782	76	127
221.50598639455782	221.58725623582765	79	127
221.50598639455782	221.58725623582765	75	127
221.50598639455782	221.58725623582765	87	127
221.58725623582765	221.64530612244897	82	127
221.58725623582765	221.64530612244897	76	127
221.58725623582765	221.64530612244897	88	127
221.64530612244897	221.6685260770975	79	127
221.64530612244897	221.6685260770975	75	127
221.64530612244897	221.6685260770975	87	127
221.6685260770975	221.74979591836734	82	127
221.6685260770975	221.74979591836734	76	127
221.6685260770975	221.74979591836734	88	127
221.74979591836734	221.84267573696144	79	127
221.74979591836734	221.84267573696144	75	127
221.74979591836734	221.84267573696144	87	127
221.84267573696144	221.9239455782313	88	127
221.84267573696144	221.9239455782313	82	127
221.84267573696144	221.9239455782313	76	127
221.93555555555557	222.0168253968254	69	127
221.93555555555557	222.0168253968254	85	127
221.93555555555557	222.0168253968254	79	127
222.0168253968254	222.09809523809523	81	127
222.0168253968254	222.09809523809523	71	127
222.0168253968254	222.09809523809523	87	127
222.09809523809523	222.19097505668935	79	127
222.09809523809523	222.19097505668935	69	127
222.09809523809523	222.19097505668935	85	127
222.19097505668935	222.24902494331064	81	127
222.19097505668935	222.24902494331064	71	127
222.19097505668935	222.24902494331064	87	127
222.24902494331064	222.34190476190477	79	127
222.24902494331064	222.34190476190477	69	127
222.24902494331064	222.34190476190477	85	127
222.34190476190477	222.43478458049887	81	127
222.34190476190477	222.43478458049887	71	127
222.34190476190477	222.43478458049887	87	127
222.43478458049887	222.5160544217687	79	127
222.43478458049887	222.5160544217687	69	127
222.43478458049887	222.5160544217687	85	127
222.5160544217687	222.6089342403628	81	127
222.5160544217687	222.6089342403628	71	127
222.5160544217687	222.6089342403628	87	127
222.6089342403628	222.70181405895693	81	127
222.6089342403628	222.70181405895693	76	127
222.6089342403628	222.70181405895693	73	127
222.70181405895693	222.79469387755103	79	127
222.70181405895693	222.79469387755103	83	127
222.70181405895693	222.79469387755103	76	127
222.79469387755103	222.87596371882086	81	127
222.79469387755103	222.87596371882086	73	127
222.79469387755103	222.87596371882086	76	127
222.87596371882086	222.96884353741495	79	127
222.87596371882086	222.96884353741495	76	127
222.87596371882086	222.96884353741495	83	127
222.96884353741495	223.06172335600908	76	127
222.96884353741495	223.06172335600908	73	127
222.96884353741495	223.06172335600908	81	127
223.06172335600908	223.1429931972789	83	127
223.06172335600908	223.1429931972789	79	127
223.06172335600908	223.1429931972789	76	127
223.1429931972789	223.2126530612245	73	127
223.1429931972789	223.2126530612245	81	127
223.1429931972789	223.2126530612245	76	127
223.2126530612245	223.28231292517006	83	127
223.2126530612245	223.28231292517006	76	127
223.2126530612245	223.28231292517006	79	127
223.29392290249433	223.41002267573697	76	127
223.29392290249433	223.3984126984127	73	127
223.29392290249433	223.43324263038548	81	127
223.3984126984127	223.4912925170068	76	127
223.41002267573697	223.52612244897958	79	127
223.43324263038548	223.57256235827666	83	127
223.4912925170068	223.5841723356009	73	127
223.52612244897958	223.5841723356009	76	127
223.57256235827666	223.66544217687076	81	127
223.5841723356009	223.64222222222222	71	127
223.5841723356009	223.7118820861678	73	127
223.64222222222222	223.74671201814058	69	127
223.66544217687076	223.8047619047619	79	127
223.7118820861678	223.82798185941044	71	127
223.74671201814058	223.83959183673468	67	127
223.8047619047619	223.90925170068027	76	127
223.82798185941044	223.90925170068027	69	127
223.83959183673468	223.90925170068027	64	127
223.90925170068027	224.00213151927437	67	127
223.90925170068027	224.00213151927437	61	127
223.90925170068027	224.00213151927437	76	127
224.00213151927437	224.0601814058957	71	127
224.00213151927437	224.0601814058957	64	127
224.00213151927437	224.0601814058957	78	127
224.0601814058957	224.14145124716552	67	127
224.0601814058957	224.14145124716552	61	127
224.0601814058957	224.14145124716552	76	127
224.14145124716552	224.23433106575965	71	127
224.14145124716552	224.23433106575965	64	127
224.14145124716552	224.23433106575965	78	127
224.23433106575965	224.31560090702948	76	127
224.23433106575965	224.31560090702948	67	127
224.23433106575965	224.31560090702948	61	127
224.31560090702948	224.3968707482993	64	127
224.31560090702948	224.3968707482993	78	127
224.31560090702948	224.3968707482993	71	127
224.3968707482993	224.48975056689343	67	127
224.3968707482993	224.48975056689343	76	127
224.3968707482993	224.48975056689343	61	127
224.48975056689343	224.58263038548753	78	127
224.48975056689343	224.58263038548753	71	127
224.48975056689343	224.58263038548753	64	127
224.58263038548753	224.64068027210885	67	127
224.58263038548753	224.64068027210885	61	127
224.58263038548753	224.64068027210885	76	127
224.64068027210885	224.73356009070295	71	127
224.64068027210885	224.73356009070295	64	127
224.64068027210885	224.73356009070295	78	127
224.73356009070295	224.82643990929705	67	127
224.73356009070295	224.82643990929705	61	127
224.73356009070295	224.82643990929705	76	127
224.82643990929705	224.91931972789115	71	127
224.82643990929705	224.91931972789115	64	127
224.82643990929705	224.91931972789115	78	127
224.91931972789115	225.000589569161	67	127
224.91931972789115	225.000589569161	61	127
224.91931972789115	225.000589569161	76	127
225.000589569161	225.0934693877551	78	127
225.000589569161	225.0934693877551	71	127
225.000589569161	225.0934693877551	64	127
225.0934693877551	225.1863492063492	61	127
225.0934693877551	225.1863492063492	76	127
225.0934693877551	225.1863492063492	67	127
225.1863492063492	225.26761904761904	71	127
225.1863492063492	225.26761904761904	64	127
225.1863492063492	225.26761904761904	78	127
225.26761904761904	225.36049886621316	67	127
225.26761904761904	225.36049886621316	63	127
225.26761904761904	225.36049886621316	75	127
225.36049886621316	225.43015873015872	70	127
225.36049886621316	225.43015873015872	64	127
225.36049886621316	225.43015873015872	76	127
225.43015873015872	225.4998185941043	67	127
225.43015873015872	225.4998185941043	63	127
225.43015873015872	225.4998185941043	75	127
225.4998185941043	225.58108843537414	70	127
225.4998185941043	225.58108843537414	64	127
225.4998185941043	225.58108843537414	76	127
225.58108843537414	225.67396825396824	67	127
225.58108843537414	225.67396825396824	63	127
225.58108843537414	225.67396825396824	75	127
225.67396825396824	225.70879818594105	70	127
225.67396825396824	225.70879818594105	64	127
225.67396825396824	225.70879818594105	76	127
225.70879818594105	225.80167800453515	75	127
225.70879818594105	225.80167800453515	67	127
225.70879818594105	225.80167800453515	63	127
225.80167800453515	225.88294784580498	64	127
225.80167800453515	225.88294784580498	76	127
225.80167800453515	225.88294784580498	70	127
225.89455782312925	225.98743764172335	67	127
225.89455782312925	225.98743764172335	57	127
225.89455782312925	225.98743764172335	73	127
225.98743764172335	226.0687074829932	75	127
225.98743764172335	226.0687074829932	69	127
225.98743764172335	226.0687074829932	59	127
226.0687074829932	226.1615873015873	67	127
226.0687074829932	226.1615873015873	57	127
226.0687074829932	226.1615873015873	73	127
226.1615873015873	226.2544671201814	69	127
226.1615873015873	226.2544671201814	59	127
226.1615873015873	226.2544671201814	75	127
226.2544671201814	226.33573696145126	67	127
226.2544671201814	226.33573696145126	57	127
226.2544671201814	226.33573696145126	73	127
226.33573696145126	226.42861678004536	69	127
226.33573696145126	226.42861678004536	59	127
226.33573696145126	226.42861678004536	75	127
226.42861678004536	226.52149659863946	67	127
226.42861678004536	226.52149659863946	57	127
226.42861678004536	226.52149659863946	73	127
226.52149659863946	226.6027664399093	69	127
226.52149659863946	226.6027664399093	59	127
226.52149659863946	226.6027664399093	75	127
226.6027664399093	226.6956462585034	69	127
226.6027664399093	226.6956462585034	64	127
226.6027664399093	226.6956462585034	61	127
226.6956462585034	226.78852607709752	71	127
226.6956462585034	226.78852607709752	67	127
226.6956462585034	226.78852607709752	64	127
226.78852607709752	226.86979591836734	64	127
226.78852607709752	226.86979591836734	61	127
226.78852607709752	226.86979591836734	69	127
226.86979591836734	226.96267573696144	67	127
226.86979591836734	226.96267573696144	64	127
226.86979591836734	226.96267573696144	71	127
226.96267573696144	227.05555555555554	64	127
226.96267573696144	227.05555555555554	61	127
226.96267573696144	227.05555555555554	69	127
227.05555555555554	227.1368253968254	67	127
227.05555555555554	227.1368253968254	64	127
227.05555555555554	227.1368253968254	71	127
227.1368253968254	227.2297052154195	64	127
227.1368253968254	227.2297052154195	61	127
227.1368253968254	227.2297052154195	69	127
227.2297052154195	227.31097505668933	67	127
227.2297052154195	227.31097505668933	64	127
227.2297052154195	227.31097505668933	71	127
227.3225850340136	227.43868480725624	64	127
227.3225850340136	227.46190476190475	69	127
227.3225850340136	227.42707482993197	61	127
227.42707482993197	227.51995464852607	64	127
227.43868480725624	227.55478458049888	67	127
227.46190476190475	227.6128344671202	71	127
227.51995464852607	227.62444444444444	61	127
227.55478458049888	227.68249433106575	64	127
227.6128344671202	227.75215419501134	69	127
227.62444444444444	227.7289342403628	59	127
227.68249433106575	227.7985941043084	61	127
227.7289342403628	227.83342403628117	57	127
227.75215419501134	227.8914739229025	67	127
227.7985941043084	227.91469387755103	59	127
227.83342403628117	227.93791383219954	55	127
227.8914739229025	228.0191836734694	64	127
227.91469387755103	228.0191836734694	57	127
227.93791383219954	228.0191836734694	52	127
228.0191836734694	228.08884353741496	64	127
228.0191836734694	228.08884353741496	55	127
228.0191836734694	228.08884353741496	49	127
228.08884353741496	228.18172335600906	66	127
228.08884353741496	228.18172335600906	59	127
228.08884353741496	228.18172335600906	52	127
228.18172335600906	228.2746031746032	64	127
228.18172335600906	228.2746031746032	55	127
228.18172335600906	228.2746031746032	49	127
228.2746031746032	228.35587301587302	66	127
228.2746031746032	228.35587301587302	59	127
228.2746031746032	228.35587301587302	52	127
228.35587301587302	228.44875283446711	55	127
228.35587301587302	228.44875283446711	64	127
228.35587301587302	228.44875283446711	49	127
228.44875283446711	228.5416326530612	66	127
228.44875283446711	228.5416326530612	59	127
228.44875283446711	228.5416326530612	52	127
228.5416326530612	228.62290249433107	64	127
228.5416326530612	228.62290249433107	55	127
228.5416326530612	228.62290249433107	49	127
228.62290249433107	228.71578231292517	66	127
228.62290249433107	228.71578231292517	59	127
228.62290249433107	228.71578231292517	52	127
228.71578231292517	228.80866213151927	64	127
228.71578231292517	228.80866213151927	55	127
228.71578231292517	228.80866213151927	49	127
228.80866213151927	228.88993197278913	66	127
228.80866213151927	228.88993197278913	59	127
228.80866213151927	228.88993197278913	52	127
228.88993197278913	228.98281179138323	64	127
228.88993197278913	228.98281179138323	55	127
228.88993197278913	228.98281179138323	49	127
228.98281179138323	229.07569160997733	66	127
228.98281179138323	229.07569160997733	59	127
228.98281179138323	229.07569160997733	52	127
229.07569160997733	229.15696145124716	64	127
229.07569160997733	229.15696145124716	55	127
229.07569160997733	229.15696145124716	49	127
229.15696145124716	229.24984126984128	52	127
229.15696145124716	229.24984126984128	66	127
229.15696145124716	229.24984126984128	59	127
229.24984126984128	229.34272108843538	64	127
229.24984126984128	229.34272108843538	55	127
229.24984126984128	229.34272108843538	49	127
229.34272108843538	229.4239909297052	59	127
229.34272108843538	229.4239909297052	52	127
229.34272108843538	229.4239909297052	66	127
229.4239909297052	229.78390022675737	49	127
229.4239909297052	229.78390022675737	63	127
229.4239909297052	229.78390022675737	55	127
231.2467573696145	232.80249433106576	38	127
232.9185941043084	233.034693877551	39	127
233.034693877551	233.15079365079364	38	127
233.15079365079364	233.26689342403628	37	127
233.27850340136055	242.54326530612244	37	127
237.16784580498867	237.26072562358277	58	127
237.16784580498867	237.26072562358277	63	127
237.16784580498867	237.26072562358277	67	127
237.26072562358277	237.3768253968254	55	127
237.26072562358277	237.3768253968254	58	127
237.26072562358277	237.3768253968254	63	127
237.52775510204083	237.8760544217687	56	127
237.52775510204083	237.8760544217687	59	127
237.52775510204083	237.8760544217687	65	127
238.34045351473924	238.77002267573695	58	127
238.34045351473924	238.77002267573695	55	127
238.34045351473924	238.77002267573695	53	127
239.39696145124717	239.90780045351474	55	127
239.39696145124717	239.90780045351474	58	127
239.39696145124717	239.90780045351474	53	127
242.5548752834467	242.78707482993198	39	127
242.78707482993198	244.6911111111111	37	127
244.6911111111111	244.99297052154196	41	127
244.99297052154196	245.2948299319728	37	127
245.2948299319728	245.6082993197279	40	127
245.6082993197279	251.25074829931972	36	127
245.91015873015874	246.00303854875284	76	127
245.91015873015874	246.00303854875284	70	127
245.91015873015874	246.00303854875284	85	127
246.00303854875284	246.09591836734694	79	127
246.00303854875284	246.09591836734694	73	127
246.00303854875284	246.09591836734694	87	127
246.09591836734694	246.17718820861677	76	127
246.09591836734694	246.17718820861677	70	127
246.09591836734694	246.17718820861677	85	127
246.17718820861677	246.2700680272109	79	127
246.17718820861677	246.2700680272109	73	127
246.17718820861677	246.2700680272109	87	127
246.2700680272109	246.362947845805	76	127
246.2700680272109	246.362947845805	70	127
246.2700680272109	246.362947845805	85	127
246.362947845805	246.44421768707483	87	127
246.362947845805	246.44421768707483	79	127
246.362947845805	246.44421768707483	73	127
246.44421768707483	246.53709750566892	76	127
246.44421768707483	246.53709750566892	85	127
246.44421768707483	246.53709750566892	70	127
246.53709750566892	246.62997732426305	79	127
246.53709750566892	246.62997732426305	87	127
246.53709750566892	246.62997732426305	73	127
246.62997732426305	246.71124716553288	85	127
246.62997732426305	246.71124716553288	76	127
246.62997732426305	246.71124716553288	70	127
246.71124716553288	246.80412698412698	79	127
246.71124716553288	246.80412698412698	73	127
246.71124716553288	246.80412698412698	87	127
246.80412698412698	246.89700680272108	76	127
246.80412698412698	246.89700680272108	70	127
246.80412698412698	246.89700680272108	85	127
246.89700680272108	246.98988662131518	79	127
246.89700680272108	246.98988662131518	73	127
246.89700680272108	246.98988662131518	87	127
246.98988662131518	247.0827664399093	76	127
246.98988662131518	247.0827664399093	70	127
246.98988662131518	247.0827664399093	85	127
247.0827664399093	247.1756462585034	79	127
247.0827664399093	247.1756462585034	73	127
247.0827664399093	247.1756462585034	87	127
247.1756462585034	247.2685260770975	85	127
247.1756462585034	247.2685260770975	76	127
247.1756462585034	247.2685260770975	70	127
247.2685260770975	247.34979591836733	79	127
247.2685260770975	247.34979591836733	87	127
247.2685260770975	247.34979591836733	73	127
247.34979591836733	247.44267573696146	76	127
247.34979591836733	247.44267573696146	72	127
247.34979591836733	247.44267573696146	84	127
247.44267573696146	247.53555555555556	79	127
247.44267573696146	247.53555555555556	73	127
247.44267573696146	247.53555555555556	85	127
247.53555555555556	247.6168253968254	76	127
247.53555555555556	247.6168253968254	72	127
247.53555555555556	247.6168253968254	84	127
247.6168253968254	247.7097052154195	79	127
247.6168253968254	247.7097052154195	73	127
247.6168253968254	247.7097052154195	85	127
247.7097052154195	247.80258503401362	76	127
247.7097052154195	247.80258503401362	72	127
247.7097052154195	247.80258503401362	84	127
247.80258503401362	247.88385487528345	79	127
247.80258503401362	247.88385487528345	73	127
247.80258503401362	247.88385487528345	85	127
247.88385487528345	247.97673469387755	76	127
247.88385487528345	247.97673469387755	72	127
247.88385487528345	247.97673469387755	84	127
247.97673469387755	248.0580045351474	85	127
247.97673469387755	248.0580045351474	79	127
247.97673469387755	248.0580045351474	73	127
248.06961451247165	248.1508843537415	78	127
248.06961451247165	248.1508843537415	82	127
248.06961451247165	248.1508843537415	66	127
248.1508843537415	248.2437641723356	84	127
248.1508843537415	248.2437641723356	68	127
248.1508843537415	248.2437641723356	79	127
248.2437641723356	248.3366439909297	78	127
248.2437641723356	248.3366439909297	82	127
248.2437641723356	248.3366439909297	66	127
248.3366439909297	248.4295238095238	68	127
248.3366439909297	248.4295238095238	79	127
248.3366439909297	248.4295238095238	84	127
248.4295238095238	248.51079365079366	66	127
248.4295238095238	248.51079365079366	82	127
248.4295238095238	248.51079365079366	78	127
248.51079365079366	248.60367346938776	79	127
248.51079365079366	248.60367346938776	84	127
248.51079365079366	248.60367346938776	68	127
248.60367346938776	248.69655328798186	78	127
248.60367346938776	248.69655328798186	82	127
248.60367346938776	248.69655328798186	66	127
248.69655328798186	248.77782312925171	68	127
248.69655328798186	248.77782312925171	79	127
248.69655328798186	248.77782312925171	84	127
248.77782312925171	248.8707029478458	70	127
248.77782312925171	248.8707029478458	78	127
248.77782312925171	248.8707029478458	73	127
248.8707029478458	248.9635827664399	76	127
248.8707029478458	248.9635827664399	80	127
248.8707029478458	248.9635827664399	73	127
248.9635827664399	249.04485260770974	73	127
248.9635827664399	249.04485260770974	78	127
248.9635827664399	249.04485260770974	70	127
249.04485260770974	249.13773242630384	76	127
249.04485260770974	249.13773242630384	73	127
249.04485260770974	249.13773242630384	80	127
249.13773242630384	249.23061224489797	73	127
249.13773242630384	249.23061224489797	70	127
249.13773242630384	249.23061224489797	78	127
249.23061224489797	249.3118820861678	76	127
249.23061224489797	249.3118820861678	73	127
249.23061224489797	249.3118820861678	80	127
249.3118820861678	249.4047619047619	73	127
249.3118820861678	249.4047619047619	70	127
249.3118820861678	249.4047619047619	78	127
249.4047619047619	249.48603174603176	76	127
249.4047619047619	249.48603174603176	73	127
249.4047619047619	249.48603174603176	80	127
249.497641723356	249.6253514739229	73	127
249.497641723356	249.64857142857142	78	127
249.497641723356	249.61374149659864	70	127
249.61374149659864	249.70662131519273	73	127
249.6253514739229	249.74145124716554	76	127
249.64857142857142	249.7878911564626	80	127
249.70662131519273	249.8111111111111	70	127
249.74145124716554	249.86916099773242	73	127
249.7878911564626	249.938820861678	78	127
249.8111111111111	249.91560090702947	68	127
249.86916099773242	249.98526077097506	70	127
249.91560090702947	250.02009070294784	66	127
249.938820861678	250.08975056689343	76	127
249.98526077097506	250.11297052154194	68	127
250.02009070294784	250.13619047619048	64	127
250.08975056689343	250.26390022675736	73	127
250.11297052154194	250.26390022675736	64	127
250.13619047619048	250.26390022675736	61	127
250.26390022675736	250.35678004535148	64	127
250.26390022675736	250.35678004535148	58	127
250.26390022675736	250.35678004535148	73	127
250.35678004535148	250.44965986394558	67	127
250.35678004535148	250.44965986394558	61	127
250.35678004535148	250.44965986394558	75	127
250.44965986394558	250.5309297052154	64	127
250.44965986394558	250.5309297052154	58	127
250.44965986394558	250.5309297052154	73	127
250.5309297052154	250.64702947845805	67	127
250.5309297052154	250.64702947845805	61	127
250.5309297052154	250.64702947845805	75	127
250.64702947845805	250.73990929705215	64	127
250.64702947845805	250.73990929705215	58	127
250.64702947845805	250.73990929705215	73	127
250.73990929705215	250.83278911564625	75	127
250.73990929705215	250.83278911564625	67	127
250.73990929705215	250.83278911564625	61	127
250.83278911564625	250.9140589569161	58	127
250.83278911564625	250.9140589569161	73	127
250.83278911564625	250.9140589569161	64	127
250.9140589569161	251.0069387755102	67	127
250.9140589569161	251.0069387755102	75	127
250.9140589569161	251.0069387755102	61	127
251.0069387755102	251.11142857142858	73	127
251.0069387755102	251.11142857142858	64	127
251.0069387755102	251.11142857142858	58	127
251.11142857142858	251.1926984126984	67	127
251.11142857142858	251.1926984126984	75	127
251.11142857142858	251.1926984126984	61	127
251.1926984126984	251.2855782312925	73	127
251.1926984126984	251.2855782312925	64	127
251.1926984126984	251.2855782312925	58	127
251.2855782312925	251.37845804988663	75	127
251.2855782312925	251.37845804988663	67	127
251.2855782312925	251.37845804988663	61	127
251.37845804988663	251.45972789115646	73	127
251.37845804988663	251.45972789115646	64	127
251.37845804988663	251.45972789115646	58	127
251.37845804988663	251.72675736961452	43	127
251.45972789115646	251.55260770975056	67	127
251.45972789115646	251.55260770975056	61	127
251.45972789115646	251.55260770975056	75	127
251.55260770975056	251.64548752834466	73	127
251.55260770975056	251.64548752834466	64	127
251.55260770975056	251.64548752834466	58	127
251.64548752834466	251.72675736961452	75	127
251.64548752834466	251.72675736961452	61	127
251.64548752834466	251.72675736961452	67	127
251.72675736961452	251.8312471655329	64	127
251.72675736961452	251.8312471655329	60	127
251.72675736961452	251.99378684807257	48	127
251.72675736961452	251.8312471655329	72	127
251.8312471655329	251.92412698412699	67	127
251.8312471655329	251.92412698412699	61	127
251.8312471655329	251.92412698412699	73	127
251.92412698412699	252.01700680272108	60	127
251.92412698412699	252.01700680272108	64	127
251.92412698412699	252.01700680272108	72	127
251.99378684807257	252.22598639455782	52	127
252.01700680272108	252.10988662131518	73	127
252.01700680272108	252.10988662131518	67	127
252.01700680272108	252.10988662131518	61	127
252.10988662131518	252.2027664399093	64	127
252.10988662131518	252.2027664399093	72	127
252.10988662131518	252.2027664399093	60	127
252.2027664399093	252.2956462585034	73	127
252.2027664399093	252.2956462585034	67	127
252.2027664399093	252.2956462585034	61	127
252.22598639455782	252.46979591836734	55	127
252.2956462585034	252.37691609977324	72	127
252.2956462585034	252.37691609977324	64	127
252.2956462585034	252.37691609977324	60	127
252.37691609977324	252.4581859410431	73	127
252.37691609977324	252.4581859410431	61	127
252.37691609977324	252.4581859410431	67	127
252.46979591836734	252.56267573696144	54	127
252.46979591836734	253.17800453514738	58	127
252.46979591836734	252.56267573696144	70	127
252.46979591836734	252.56267573696144	66	127
252.56267573696144	252.6439455782313	67	127
252.56267573696144	252.6439455782313	56	127
252.56267573696144	252.6439455782313	72	127
252.6439455782313	252.7368253968254	66	127
252.6439455782313	252.7368253968254	54	127
252.6439455782313	252.7368253968254	70	127
252.7368253968254	252.8297052154195	67	127
252.7368253968254	252.8297052154195	56	127
252.7368253968254	252.8297052154195	72	127
252.8297052154195	252.91097505668935	66	127
252.8297052154195	252.91097505668935	54	127
252.8297052154195	252.91097505668935	70	127
252.91097505668935	253.00385487528345	67	127
252.91097505668935	253.00385487528345	56	127
252.91097505668935	253.00385487528345	72	127
253.00385487528345	253.09673469387755	66	127
253.00385487528345	253.09673469387755	54	127
253.00385487528345	253.09673469387755	70	127
253.09673469387755	253.17800453514738	72	127
253.09673469387755	253.17800453514738	67	127
253.09673469387755	253.17800453514738	56	127
253.17800453514738	253.31732426303856	66	127
253.17800453514738	253.31732426303856	61	127
253.17800453514738	253.31732426303856	58	127
253.17800453514738	254.35061224489795	61	127
253.31732426303856	253.41020408163266	68	127
253.31732426303856	253.41020408163266	64	127
253.31732426303856	253.41020408163266	61	127
253.41020408163266	253.50308390022676	66	127
253.41020408163266	253.50308390022676	61	127
253.41020408163266	253.50308390022676	58	127
253.50308390022676	253.59596371882085	64	127
253.50308390022676	253.59596371882085	61	127
253.50308390022676	253.59596371882085	68	127
253.59596371882085	253.68884353741495	66	127
253.59596371882085	253.68884353741495	61	127
253.59596371882085	253.68884353741495	58	127
253.68884353741495	253.78172335600908	61	127
253.68884353741495	253.78172335600908	68	127
253.68884353741495	253.78172335600908	64	127
253.78172335600908	253.8629931972789	61	127
253.78172335600908	253.8629931972789	66	127
253.78172335600908	253.8629931972789	58	127
253.8629931972789	253.94426303854874	68	127
253.8629931972789	253.94426303854874	64	127
253.8629931972789	253.94426303854874	61	127
253.955873015873	254.00231292517006	61	127
253.955873015873	254.00231292517006	66	127
253.955873015873	254.00231292517006	58	127
254.00231292517006	254.0487528344671	58	127
254.00231292517006	254.10680272108843	66	127
254.00231292517006	254.10680272108843	61	127
254.0487528344671	254.08358276643992	58	127
254.08358276643992	254.13002267573697	61	127
254.10680272108843	254.15324263038548	64	127
254.10680272108843	254.14163265306124	66	127
254.13002267573697	254.19968253968253	61	127
254.14163265306124	254.2112925170068	68	127
254.15324263038548	254.28095238095239	64	127
254.19968253968253	254.22290249433107	61	127
254.2112925170068	254.31578231292517	68	127
254.22290249433107	254.28095238095239	58	127
254.28095238095239	254.32739229024943	58	127
254.28095238095239	254.32739229024943	61	127
254.31578231292517	254.35061224489795	68	127
254.32739229024943	254.35061224489795	58	127
254.32739229024943	254.4318820861678	61	127
254.35061224489795	255.44195011337868	66	127
254.35061224489795	254.39705215419502	66	127
254.35061224489795	254.39705215419502	56	127
254.39705215419502	254.5015419501134	66	127
254.39705215419502	254.4551020408163	56	127
254.4318820861678	254.47832199546485	60	127
254.4551020408163	254.47832199546485	56	127
254.47832199546485	254.5247619047619	54	127
254.47832199546485	254.69891156462586	60	127
254.5015419501134	254.55959183673468	66	127
254.5247619047619	254.69891156462586	54	127
254.55959183673468	254.7105215419501	64	127
254.69891156462586	254.72213151927437	54	127
254.69891156462586	254.7453514739229	58	127
254.7105215419501	254.98916099773243	64	127
254.72213151927437	254.76857142857142	52	127
254.7453514739229	255.05882086167802	58	127
254.76857142857142	255.0239909297052	52	127
254.98916099773243	255.05882086167802	64	127
255.0239909297052	255.05882086167802	52	127
255.07043083900226	255.17492063492062	64	127
255.07043083900226	255.17492063492062	58	127
255.07043083900226	255.17492063492062	48	127
255.17492063492062	255.25619047619048	48	127
255.17492063492062	255.26780045351475	66	127
255.17492063492062	255.26780045351475	61	127
255.26780045351475	255.34907029478458	48	127
255.26780045351475	255.36068027210885	64	127
255.26780045351475	255.36068027210885	58	127
255.36068027210885	255.44195011337868	66	127
255.36068027210885	255.44195011337868	61	127
255.36068027210885	255.44195011337868	48	127
255.44195011337868	255.52321995464854	48	127
255.44195011337868	255.53482993197278	64	127
255.44195011337868	255.53482993197278	58	127
255.44195011337868	255.79024943310657	70	127
255.53482993197278	255.61609977324264	48	127
255.53482993197278	255.6277097505669	66	127
255.53482993197278	255.6277097505669	61	127
255.6277097505669	255.70897959183674	58	127
255.6277097505669	255.70897959183674	48	127
255.6277097505669	255.70897959183674	64	127
255.70897959183674	255.79024943310657	48	127
255.70897959183674	255.80185941043084	66	127
255.70897959183674	255.80185941043084	61	127
255.80185941043084	259.7724716553288	72	127
255.80185941043084	255.8831292517007	48	127
255.80185941043084	255.89473922902494	64	127
255.80185941043084	255.89473922902494	58	127
255.89473922902494	256.0340589569161	66	127
255.89473922902494	256.0340589569161	60	127
255.89473922902494	256.0340589569161	48	127
256.0340589569161	256.1269387755102	64	127
256.0340589569161	256.1269387755102	58	127
256.0340589569161	256.11532879818594	48	127
256.1269387755102	256.2314285714286	66	127
256.1269387755102	256.2314285714286	60	127
256.1269387755102	256.2198185941043	48	127
256.2314285714286	256.38235827664397	48	127
256.2314285714286	256.38235827664397	64	127
256.2314285714286	256.38235827664397	58	127
256.38235827664397	256.4984580498866	60	127
256.38235827664397	256.4984580498866	48	127
256.38235827664397	256.4984580498866	66	127
256.4984580498866	256.602947845805	58	127
256.4984580498866	256.5797052154195	48	127
256.4984580498866	256.602947845805	64	127
256.602947845805	256.74226757369615	66	127
256.602947845805	256.74226757369615	60	127
256.602947845805	256.74226757369615	48	127
256.7654875283447	257.38081632653063	64	127
256.7654875283447	257.38081632653063	58	127
256.7654875283447	257.38081632653063	48	127
259.54024943310657	261.1656689342404	72	127
259.54024943310657	261.78099773242633	84	127
261.42108843537414	266.5294784580499	72	127
263.4180045351474	263.5689342403628	57	127
263.5689342403628	263.6966439909297	67	127
263.6966439909297	263.81274376417235	72	127
263.81274376417235	263.928843537415	76	127
263.94043083900226	264.0681632653061	76	127
264.0681632653061	264.195873015873	72	127
264.195873015873	264.31197278911566	67	127
264.31197278911566	264.4280725623583	57	127
264.43968253968256	265.08984126984126	57	127
265.08984126984126	265.21755102040817	67	127
265.21755102040817	265.3336507936508	72	127
265.3336507936508	265.4613605442177	76	127
265.472947845805	265.60068027210883	76	127
265.60068027210883	265.72839002267574	72	127
265.72839002267574	265.8444897959184	67	127
265.8444897959184	265.98378684807255	57	127
265.99541950113377	266.16956916099775	57	127
266.16956916099775	266.29725623582766	67	127
266.29725623582766	266.4249886621315	72	127
266.4249886621315	266.5294784580499	76	127
266.5526984126984	267.0983673469388	74	127
266.5526984126984	266.6920181405896	76	127
266.6920181405896	266.85455782312926	72	127
266.85455782312926	266.98226757369616	67	127
266.98226757369616	267.08675736961453	57	127
267.0983673469388	267.22607709750565	57	127
267.0983673469388	267.57437641723357	71	127
267.22607709750565	267.35378684807256	62	127
267.35378684807256	267.48149659863947	71	127
267.48149659863947	267.57437641723357	78	127
267.57437641723357	267.6904761904762	78	127
267.57437641723357	268.03877551020406	66	127
267.6904761904762	267.7949659863946	71	127
267.7949659863946	267.9226530612245	62	127
267.9226530612245	268.03877551020406	57	127
268.05038548752833	269.24621315192746	72	127
268.05038548752833	268.16648526077097	57	127
268.16648526077097	268.2941950113379	67	127
268.2941950113379	268.4219047619048	72	127
268.4219047619048	268.52639455782315	76	127
268.5379818594104	268.6424716553288	76	127
268.6424716553288	268.77020408163264	72	127
268.77020408163264	268.89791383219955	67	127
268.89791383219955	269.0140136054422	57	127
269.02562358276646	269.1417233560091	57	127
269.1417233560091	269.15331065759636	67	127
269.15331065759636	269.2346031746032	76	127
269.24621315192746	269.67578231292515	74	127
269.24621315192746	269.3622902494331	76	127
269.3622902494331	269.4784126984127	72	127
269.4784126984127	269.5480725623583	67	127
269.5480725623583	269.66414965986394	57	127
269.67578231292515	270.0124716553288	71	127
269.67578231292515	269.80349206349206	57	127
269.80349206349206	269.9195918367347	62	127
269.9195918367347	270.0473015873016	71	127
270.0124716553288	270.31433106575963	66	127
270.0473015873016	270.15179138322	78	127
270.16340136054424	270.2794784580499	78	127
270.2794784580499	270.39560090702946	71	127
270.31433106575963	270.6510204081633	69	127
270.39560090702946	270.53492063492064	62	127
270.53492063492064	270.6510204081633	57	127
270.66263038548755	271.7307482993197	72	127
270.66263038548755	270.79031746031745	57	127
270.66263038548755	272.2415873015873	76	127
270.79031746031745	270.8716099773243	67	127
270.8716099773243	270.97609977324265	72	127
270.97609977324265	271.0921768707483	76	127
271.10378684807256	271.16185941043085	76	127
271.16185941043085	271.2779591836735	72	127
271.2779591836735	271.38244897959186	67	127
271.38244897959186	271.4985487528345	57	127
271.51013605442176	271.6378684807256	57	127
271.6378684807256	271.7307482993197	67	127
271.7307482993197	271.75396825396825	76	127
271.7655782312925	271.89328798185943	76	127
271.7655782312925	271.89328798185943	71	127
271.89328798185943	272.02097505668934	72	127
272.02097505668934	272.11385487528344	67	127
272.02097505668934	272.11385487528344	74	127
272.11385487528344	272.229977324263	57	127
272.11385487528344	272.2415873015873	71	127
272.2415873015873	273.06589569160997	72	127
272.2415873015873	272.3692970521542	57	127
272.2415873015873	272.624693877551	71	127
272.3692970521542	272.4970068027211	67	127
272.4970068027211	272.56666666666666	72	127
272.56666666666666	272.61310657596374	76	127
272.624693877551	273.0542857142857	67	127
272.624693877551	272.75242630385486	76	127
272.75242630385486	272.83367346938775	72	127
272.83367346938775	272.94979591836733	67	127
272.94979591836733	273.0542857142857	57	127
273.06589569160997	273.1936054421769	57	127
273.06589569160997	273.56512471655327	71	127
273.06589569160997	274.7609523809524	79	127
273.1936054421769	273.3213151927438	67	127
273.3213151927438	273.4490022675737	73	127
273.4490022675737	273.55349206349206	76	127
273.56512471655327	274.2617006802721	69	127
273.56512471655327	273.6928344671202	76	127
273.6928344671202	273.8205442176871	73	127
273.8205442176871	273.9366439909297	67	127
273.9366439909297	274.05274376417236	57	127
274.05274376417236	274.1804535147392	57	127
274.1804535147392	274.2617006802721	67	127
274.2617006802721	274.3081632653061	73	127
274.3081632653061	274.42426303854876	76	127
274.435873015873	274.5287528344671	71	127
274.435873015873	274.45909297052157	76	127
274.45909297052157	274.5287528344671	73	127
274.5287528344671	274.65646258503403	67	127
274.5287528344671	274.74934240362813	69	127
274.65646258503403	274.74934240362813	57	127
274.7609523809524	275.2253514739229	67	127
274.7609523809524	274.87702947845804	57	127
274.7609523809524	275.65492063492064	76	127
274.87702947845804	275.0047619047619	67	127
275.0047619047619	275.1324716553288	73	127
275.1324716553288	275.21374149659863	76	127
275.2253514739229	275.6433106575964	69	127
275.2253514739229	275.32984126984127	76	127
275.32984126984127	275.4575510204082	73	127
275.4575510204082	275.52721088435374	67	127
275.52721088435374	275.6433106575964	57	127
275.65492063492064	276.4908390022676	64	127
275.65492063492064	275.78263038548755	55	127
275.65492063492064	276.90879818594107	71	127
275.78263038548755	275.92195011337867	65	127
275.92195011337867	276.02643990929704	69	127
276.02643990929704	276.1076870748299	76	127
276.11931972789114	276.24702947845805	76	127
276.24702947845805	276.33990929705215	69	127
276.33990929705215	276.40954648526076	65	127
276.40954648526076	276.4792290249433	55	127
276.4908390022676	277.6750566893424	62	127
276.4908390022676	276.6185260770975	55	127
276.6185260770975	276.7578684807256	65	127
276.7578684807256	276.78108843537416	69	127
276.78108843537416	276.8971882086168	76	127
276.90879818594107	277.0248752834467	76	127
276.90879818594107	277.3383446712018	69	127
277.0248752834467	277.1409977324263	69	127
277.1409977324263	277.19904761904763	65	127
277.19904761904763	277.32675736961454	55	127
277.3383446712018	277.4892970521542	55	127
277.3383446712018	277.87242630385487	71	127
277.4892970521542	277.57056689342403	65	127
277.57056689342403	277.7214965986395	69	127
277.7214965986395	277.8608163265306	76	127
277.87242630385487	278.27877551020407	67	127
277.87242630385487	277.9420634920635	76	127
277.87242630385487	278.0814058956916	64	127
277.9420634920635	278.0814058956916	69	127
278.0814058956916	278.1510430839002	65	127
278.0814058956916	278.27877551020407	62	127
278.1510430839002	278.27877551020407	55	127
278.3019954648526	278.3948752834467	69	127
278.3019954648526	278.4413151927438	55	127
278.3019954648526	278.73156462585035	62	127
278.3948752834467	278.51097505668935	62	127
278.4413151927438	278.5922448979592	64	127
278.51097505668935	278.63868480725625	55	127
278.5922448979592	278.7199546485261	72	127
278.63868480725625	278.7199546485261	48	127
278.73156462585035	279.2191836734694	72	127
278.73156462585035	278.8360544217687	48	127
278.73156462585035	279.2075736961451	60	127
278.73156462585035	279.2191836734694	60	127
278.8360544217687	278.96374149659863	55	127
278.96374149659863	279.0914739229025	62	127
279.0914739229025	279.2075736961451	69	127
279.2191836734694	279.26562358276647	71	127
279.2191836734694	280.4846712018141	79	127
279.2191836734694	280.4846712018141	67	127
279.26562358276647	279.3817006802721	64	127
279.3817006802721	279.4978231292517	55	127
279.4978231292517	279.5674829931973	48	127
279.5790702947846	279.69519274376415	48	127
279.69519274376415	279.7996825396825	55	127
279.7996825396825	279.92739229024943	64	127
279.92739229024943	280.04349206349207	71	127
280.05510204081634	280.14798185941044	70	127
280.14798185941044	280.2524716553288	63	127
280.2524716553288	280.3569614512472	55	127
280.3569614512472	280.4730612244898	48	127
280.4846712018141	280.9722902494331	81	127
280.4846712018141	280.61238095238093	48	127
280.4846712018141	280.9722902494331	69	127
280.61238095238093	280.72848072562357	55	127
280.72848072562357	280.8561904761905	63	127
280.8561904761905	280.9722902494331	70	127
280.9839002267574	281.1	69	127
280.9839002267574	281.3554195011338	78	127
280.9839002267574	281.3554195011338	66	127
281.1	281.18126984126985	62	127
281.18126984126985	281.2625396825397	55	127
281.2625396825397	281.3438095238095	48	127
281.3554195011338	281.45990929705215	48	127
281.3554195011338	281.81981859410433	74	127
281.3554195011338	281.81981859410433	62	127
281.45990929705215	281.58761904761906	55	127
281.58761904761906	281.7037188208617	62	127
281.7037188208617	281.81981859410433	69	127
281.8314058956916	282.9575736961451	67	127
281.8314058956916	281.9475283446712	71	127
281.8314058956916	282.9575736961451	79	127
281.9475283446712	282.0752380952381	64	127
282.0752380952381	282.19133786848073	55	127
282.19133786848073	282.30743764172337	48	127
282.31904761904764	282.44673469387754	48	127
282.44673469387754	282.5628571428571	55	127
282.5628571428571	282.6673469387755	64	127
282.6673469387755	282.7485941043084	71	127
282.7485941043084	282.8066666666667	70	127
282.8066666666667	282.87632653061223	63	127
282.87632653061223	282.89954648526077	55	127
282.89954648526077	282.94598639455785	48	127
282.9575736961451	283.4219954648526	69	127
282.9575736961451	283.0620634920635	48	127
282.9575736961451	283.4219954648526	81	127
283.0620634920635	283.18979591836734	55	127
283.18979591836734	283.31750566893425	63	127
283.31750566893425	283.4219954648526	70	127
283.4336054421769	283.747074829932	66	127
283.4336054421769	283.5613151927438	69	127
283.4336054421769	283.747074829932	78	127
283.5613151927438	283.66580498866216	62	127
283.66580498866216	283.7702721088435	55	127
283.747074829932	284.0605442176871	62	127
283.747074829932	284.0605442176871	74	127
283.7702721088435	283.8747619047619	48	127
283.8747619047619	284.01410430839	48	127
284.01410430839	284.1418140589569	55	127
284.0605442176871	284.3740136054422	78	127
284.0605442176871	284.3740136054422	66	127
284.1418140589569	284.26952380952383	62	127
284.26952380952383	284.3740136054422	69	127
284.3740136054422	284.4668934240363	70	127
284.3740136054422	286.1619501133787	70	127
284.3740136054422	285.6859410430839	82	127
284.4668934240363	284.57138321995467	63	127
284.57138321995467	284.6990702947846	55	127
284.6990702947846	284.80356009070294	48	127
284.81519274376416	284.9312925170068	48	127
284.81519274376416	285.30278911564625	67	127
284.9312925170068	285.0590022675737	55	127
285.0590022675737	285.1867120181406	63	127
285.1867120181406	285.30278911564625	70	127
285.3143990929705	285.4305215419501	70	127
285.3143990929705	285.98780045351475	63	127
285.4305215419501	285.53501133786847	63	127
285.53501133786847	285.62789115646257	55	127
285.62789115646257	285.67433106575965	48	127
285.6859410430839	286.1503401360544	79	127
285.6859410430839	285.778820861678	48	127
285.778820861678	285.9065306122449	55	127
285.9065306122449	286.0342403628118	63	127
286.0342403628118	286.1503401360544	70	127
286.1619501133787	286.4754195011338	62	127
286.1619501133787	286.2780498866213	70	127
286.1619501133787	286.6495691609977	82	127
286.1619501133787	287.0675283446712	55	127
286.2780498866213	286.39414965986396	63	127
286.39414965986396	286.52185941043086	55	127
286.4754195011338	286.83532879818597	63	127
286.52185941043086	286.6379365079365	48	127
286.6495691609977	287.21845804988664	84	127
286.6495691609977	286.81210884353743	48	127
286.81210884353743	286.93979591836734	55	127
286.84691609977324	287.21845804988664	62	127
286.93979591836734	287.102358276644	63	127
287.102358276644	287.21845804988664	70	127
287.2300680272109	287.322947845805	70	127
287.2300680272109	289.5404535147392	42	127
287.2300680272109	287.6364172335601	85	127
287.2300680272109	287.6364172335601	61	127
287.322947845805	287.43904761904764	64	127
287.43904761904764	287.543537414966	58	127
287.543537414966	287.62480725623584	49	127
287.6364172335601	287.71768707482994	49	127
287.6364172335601	287.99632653061224	90	127
287.6364172335601	287.99632653061224	66	127
287.71768707482994	287.8221768707483	58	127
287.8221768707483	287.9150566893424	64	127
287.9150566893424	287.99632653061224	70	127
287.99632653061224	288.3562358276644	87	127
287.99632653061224	288.08920634920634	70	127
287.99632653061224	288.3562358276644	63	127
288.08920634920634	288.18208616780043	64	127
288.18208616780043	288.2633560090703	58	127
288.2633560090703	288.3562358276644	49	127
288.3562358276644	288.71614512471655	85	127
288.3562358276644	288.4491156462585	49	127
288.3562358276644	288.71614512471655	61	127
288.4491156462585	288.5419954648526	58	127
288.5419954648526	288.6348752834467	64	127
288.6348752834467	288.71614512471655	70	127
288.7277551020408	288.97156462585036	84	127
288.7277551020408	288.8206349206349	70	127
288.7277551020408	288.97156462585036	60	127
288.8206349206349	288.913514739229	64	127
288.913514739229	289.0412244897959	58	127
288.97156462585036	289.28503401360547	86	127
288.97156462585036	289.28503401360547	62	127
289.0412244897959	289.1457142857143	48	127
289.15732426303856	289.26181405895693	48	127
289.26181405895693	289.35469387755103	58	127
289.29662131519274	289.9119501133787	57	127
289.29662131519274	289.9119501133787	81	127
289.35469387755103	289.4475736961451	64	127
289.4475736961451	289.5404535147392	70	127
289.5404535147392	290.2834920634921	54	127
289.5404535147392	289.6333333333333	70	127
289.6333333333333	289.7378231292517	64	127
289.7378231292517	289.8307029478458	58	127
289.8307029478458	289.9119501133787	48	127
289.9119501133787	290.2718820861678	79	127
289.9119501133787	290.2718820861678	55	127
289.9119501133787	290.0048299319728	48	127
290.0048299319728	290.0977324263039	58	127
290.0977324263039	290.190612244898	64	127
290.190612244898	290.2718820861678	70	127
290.2834920634921	290.898820861678	48	127
290.2834920634921	290.3763718820862	70	127
290.2834920634921	290.66662131519274	82	127
290.2834920634921	290.66662131519274	58	127
290.3763718820862	290.4692517006803	64	127
290.4692517006803	290.57374149659864	58	127
290.57374149659864	290.6550113378685	48	127
290.66662131519274	290.7478911564626	48	127
290.66662131519274	291.01492063492066	84	127
290.66662131519274	291.01492063492066	60	127
290.7478911564626	290.84077097505667	58	127
290.84077097505667	290.9336281179138	64	127
290.9336281179138	291.01492063492066	70	127
291.0265306122449	291.4096598639456	85	127
291.0265306122449	293.24403628117915	42	127
291.0265306122449	291.119410430839	70	127
291.0265306122449	291.4096598639456	61	127
291.119410430839	291.2122902494331	64	127
291.2122902494331	291.3167800453515	58	127
291.3167800453515	291.4096598639456	49	127
291.4096598639456	291.7695691609977	66	127
291.4096598639456	291.5025396825397	49	127
291.4096598639456	291.7695691609977	90	127
291.5025396825397	291.5954195011338	58	127
291.5954195011338	291.6766893424036	64	127
291.6766893424036	291.75795918367345	70	127
291.7695691609977	292.11786848072563	63	127
291.7695691609977	291.8624489795918	70	127
291.7695691609977	292.11786848072563	87	127
291.8624489795918	291.93210884353743	64	127
291.93210884353743	292.02498866213153	58	127
292.02498866213153	292.10625850340136	49	127
292.11786848072563	292.46614512471655	61	127
292.11786848072563	292.19913832199546	49	127
292.11786848072563	292.46614512471655	85	127
292.19913832199546	292.29201814058956	58	127
292.29201814058956	292.38489795918366	64	127
292.38489795918366	292.46614512471655	70	127
292.47777777777776	292.55904761904765	70	127
292.47777777777776	292.7564172335601	84	127
292.47777777777776	292.7564172335601	60	127
292.55904761904765	292.69836734693877	64	127
292.69836734693877	292.79124716553287	58	127
292.7564172335601	292.98861678004533	86	127
292.7564172335601	292.98861678004533	62	127
292.79124716553287	292.87249433106575	48	127
292.87249433106575	292.96539682539685	48	127
292.96539682539685	293.05827664399095	58	127
293.0002267573696	293.6039455782313	57	127
293.0002267573696	293.6039455782313	81	127
293.05827664399095	293.1395464852608	64	127
293.1395464852608	293.2324263038549	70	127
293.24403628117915	293.33691609977325	70	127
293.24403628117915	293.96385487528346	54	127
293.33691609977325	293.4181859410431	64	127
293.4181859410431	293.5110657596372	58	127
293.5110657596372	293.59231292517006	48	127
293.6039455782313	293.9522448979592	55	127
293.6039455782313	293.68521541950116	48	127
293.6039455782313	293.9522448979592	79	127
293.68521541950116	293.766485260771	58	127
293.766485260771	293.87097505668936	64	127
293.87097505668936	293.9522448979592	70	127
293.96385487528346	294.5327437641723	48	127
293.96385487528346	294.0451247165533	70	127
293.96385487528346	294.28893424036283	82	127
293.96385487528346	294.28893424036283	58	127
294.0451247165533	294.1263945578231	64	127
294.1263945578231	294.207641723356	58	127
294.207641723356	294.28893424036283	48	127
294.28893424036283	294.6372335600907	84	127
294.28893424036283	294.38181405895693	48	127
294.28893424036283	294.6372335600907	60	127
294.38181405895693	294.47469387755103	58	127
294.47469387755103	294.55596371882086	64	127
294.55596371882086	294.6372335600907	70	127
294.64884353741496	294.74172335600906	70	127
294.64884353741496	295.3686621315193	58	127
294.64884353741496	295.00875283446715	85	127
294.74172335600906	294.82297052154195	64	127
294.82297052154195	294.91585034013605	58	127
294.91585034013605	294.9971428571429	49	127
295.00875283446715	295.10163265306124	49	127
295.00875283446715	295.357052154195	87	127
295.10163265306124	295.1829024943311	58	127
295.1829024943311	295.2757823129252	64	127
295.2757823129252	295.357052154195	70	127
295.3686621315193	296.06526077097504	60	127
295.3686621315193	295.4499319727891	70	127
295.3686621315193	295.7169614512472	82	127
295.4499319727891	295.5428117913832	64	127
295.5428117913832	295.63566893424036	58	127
295.63566893424036	295.7169614512472	49	127
295.7169614512472	296.06526077097504	80	127
295.7169614512472	295.798231292517	49	127
295.798231292517	295.8911111111111	58	127
295.8911111111111	295.97238095238095	64	127
295.97238095238095	296.06526077097504	70	127
296.06526077097504	296.73863945578233	62	127
296.06526077097504	296.15814058956914	70	127
296.06526077097504	296.3903401360544	85	127
296.15814058956914	296.22780045351476	64	127
296.22780045351476	296.3090702947846	58	127
296.3090702947846	296.37873015873015	48	127
296.3903401360544	296.72702947845806	87	127
296.3903401360544	296.47160997732425	48	127
296.47160997732425	296.55285714285714	58	127
296.55285714285714	296.64575963718823	64	127
296.64575963718823	296.72702947845806	70	127
296.73863945578233	297.36557823129255	64	127
296.73863945578233	296.81990929705216	70	127
296.73863945578233	297.04049886621317	81	127
296.81990929705216	296.901179138322	64	127
296.901179138322	296.9940589569161	58	127
296.9940589569161	297.04049886621317	48	127
297.04049886621317	297.11015873015873	48	127
297.04049886621317	297.36557823129255	79	127
297.11015873015873	297.19142857142856	58	127
297.19142857142856	297.28430839002266	64	127
297.28430839002266	297.36557823129255	70	127
297.36557823129255	297.7254875283447	85	127
297.36557823129255	297.45845804988664	70	127
297.36557823129255	298.0621768707483	66	127
297.45845804988664	297.55133786848074	64	127
297.55133786848074	297.6326077097506	58	127
297.6326077097506	297.7138775510204	49	127
297.7254875283447	298.05056689342405	87	127
297.7254875283447	297.81836734693877	49	127
297.81836734693877	297.8764172335601	58	127
297.8764172335601	297.9692970521542	64	127
297.9692970521542	298.05056689342405	70	127
298.0621768707483	298.6542857142857	68	127
298.0621768707483	298.4104761904762	82	127
298.0621768707483	298.14344671201815	70	127
298.14344671201815	298.23632653061225	64	127
298.23632653061225	298.32920634920634	58	127
298.32920634920634	298.4104761904762	49	127
298.4104761904762	298.50333333333333	49	127
298.4104761904762	298.7587755102041	80	127
298.50333333333333	298.59621315192743	58	127
298.59621315192743	298.68911564625853	64	127
298.68911564625853	298.7587755102041	70	127
298.7587755102041	298.8516553287982	70	127
298.7587755102041	299.107052154195	85	127
298.7587755102041	299.107052154195	70	127
298.8516553287982	298.9445351473923	64	127
298.9445351473923	299.0258049886621	58	127
299.0258049886621	299.107052154195	49	127
299.1186848072562	299.7107936507937	54	127
299.1186848072562	299.21154195011337	49	127
299.1186848072562	299.46698412698413	87	127
299.1186848072562	299.7107936507937	72	127
299.21154195011337	299.2928344671202	58	127
299.2928344671202	299.3857142857143	64	127
299.3857142857143	299.46698412698413	70	127
299.4785941043084	299.55986394557823	70	127
299.4785941043084	299.8268707482993	82	127
299.55986394557823	299.6527437641723	64	127
299.6527437641723	299.7456235827664	58	127
299.7107936507937	299.95460317460316	73	127
299.7456235827664	299.8268707482993	49	127
299.8385034013605	299.95460317460316	80	127
299.8385034013605	300.1984126984127	42	127
299.8385034013605	299.9197732426304	49	127
299.9197732426304	300.0242403628118	58	127
299.95460317460316	300.0823129251701	82	127
299.95460317460316	300.1984126984127	78	127
300.0242403628118	300.1171428571429	64	127
300.0823129251701	300.1984126984127	80	127
300.1171428571429	300.1984126984127	70	127
300.1984126984127	300.430612244898	62	127
300.1984126984127	300.430612244898	78	127
300.1984126984127	300.430612244898	55	127
300.1984126984127	300.45383219954647	55	127
300.1984126984127	300.45383219954647	40	127
300.430612244898	301.63804988662133	55	127
300.430612244898	301.63804988662133	90	127
300.430612244898	301.63804988662133	78	127
300.430612244898	301.63804988662133	71	127
300.430612244898	301.63804988662133	62	127
300.45383219954647	300.7905215419501	47	127
300.45383219954647	300.7905215419501	62	127
300.7905215419501	301.12721088435376	71	127
300.7905215419501	301.12721088435376	55	127
301.138820861678	301.2317006802721	55	127
301.138820861678	301.2317006802721	71	127
301.2317006802721	301.3013605442177	47	127
301.2317006802721	301.3013605442177	62	127
301.3013605442177	301.3826303854875	40	127
301.3013605442177	301.3826303854875	55	127
301.3826303854875	301.4638775510204	40	127
301.3826303854875	301.4638775510204	55	127
301.4638775510204	301.63804988662133	62	127
301.4638775510204	301.63804988662133	47	127
301.63804988662133	301.7425396825397	71	127
301.63804988662133	301.7425396825397	55	127
301.75414965986397	301.8354195011338	40	127
301.75414965986397	301.8354195011338	55	127
301.75414965986397	302.1024489795918	88	127
301.75414965986397	302.1024489795918	76	127
301.8354195011338	301.91668934240363	47	127
301.8354195011338	301.91668934240363	62	127
301.91668934240363	301.9863492063492	71	127
301.91668934240363	301.9863492063492	55	127
301.9863492063492	302.0676190476191	71	127
301.9863492063492	302.0676190476191	55	127
302.0676190476191	302.3694784580499	62	127
302.0676190476191	302.3694784580499	47	127
302.3346485260771	303.00802721088434	74	127
302.3346485260771	303.00802721088434	86	127
302.3694784580499	302.6132879818594	40	127
302.3694784580499	302.6132879818594	55	127
302.62489795918367	302.7061678004535	40	127
302.62489795918367	302.7061678004535	55	127
302.7061678004535	302.9383673469388	62	127
302.7061678004535	302.9383673469388	47	127
302.9383673469388	303.00802721088434	71	127
302.9383673469388	303.00802721088434	55	127
303.00802721088434	303.3679365079365	71	127
303.00802721088434	303.0892970521542	55	127
303.00802721088434	303.0892970521542	40	127
303.00802721088434	303.3679365079365	83	127
303.0892970521542	303.17056689342405	47	127
303.0892970521542	303.17056689342405	62	127
303.17056689342405	303.2402267573696	71	127
303.17056689342405	303.2402267573696	55	127
303.2518367346939	303.3331065759637	71	127
303.2518367346939	303.3331065759637	55	127
303.3331065759637	303.41437641723354	62	127
303.3331065759637	303.41437641723354	47	127
303.3679365079365	304.3315646258503	66	127
303.3679365079365	304.3315646258503	78	127
303.41437641723354	304.0993650793651	40	127
303.41437641723354	304.0993650793651	55	127
304.0993650793651	304.18063492063493	40	127
304.0993650793651	304.18063492063493	55	127
304.18063492063493	304.26190476190476	47	127
304.18063492063493	304.26190476190476	62	127
304.26190476190476	304.3315646258503	71	127
304.26190476190476	304.3315646258503	55	127
304.3431746031746	305.1326530612245	78	127
304.3431746031746	304.4244217687075	71	127
304.3431746031746	304.4244217687075	55	127
304.3431746031746	305.1326530612245	55	127
304.3431746031746	305.1326530612245	66	127
304.4244217687075	304.6450340136054	47	127
304.4244217687075	304.6450340136054	62	127
304.6450340136054	304.71469387755104	55	127
304.6450340136054	304.71469387755104	40	127
304.71469387755104	304.7959637188209	55	127
304.71469387755104	304.7959637188209	40	127
304.7959637188209	304.88884353741497	47	127
304.7959637188209	304.88884353741497	62	127
304.88884353741497	304.95850340136053	71	127
304.88884353741497	304.95850340136053	55	127
304.9701133786848	305.05138321995463	40	127
304.9701133786848	305.05138321995463	71	127
305.05138321995463	305.1326530612245	47	127
305.05138321995463	305.1326530612245	62	127
305.1326530612245	305.2023129251701	55	127
305.1326530612245	305.2023129251701	55	127
305.2023129251701	305.2835827664399	55	127
305.2023129251701	305.6667120181406	64	127
305.2023129251701	305.2835827664399	71	127
305.2023129251701	305.6667120181406	76	127
305.2835827664399	305.36485260770974	62	127
305.2835827664399	305.36485260770974	47	127
305.36485260770974	305.5390022675737	55	127
305.36485260770974	305.5390022675737	40	127
305.550589569161	305.6318820861678	55	127
305.550589569161	305.6318820861678	40	127
305.6318820861678	305.71315192743765	62	127
305.6318820861678	305.71315192743765	47	127
305.6667120181406	306.1891609977324	62	127
305.6667120181406	306.1891609977324	74	127
305.71315192743765	305.7828117913832	71	127
305.71315192743765	305.7828117913832	55	127
305.7828117913832	305.8756916099773	40	127
305.7828117913832	305.8756916099773	71	127
305.8756916099773	305.9685714285714	62	127
305.8756916099773	305.9685714285714	47	127
305.9685714285714	306.1891609977324	55	127
305.9685714285714	306.1891609977324	55	127
306.2007709750567	306.2820408163265	71	127
306.2007709750567	306.2820408163265	55	127
306.2007709750567	307.1992290249433	59	127
306.2007709750567	307.1992290249433	71	127
306.2820408163265	306.3632879818594	62	127
306.2820408163265	306.3632879818594	47	127
306.3632879818594	306.43297052154196	40	127
306.3632879818594	306.43297052154196	55	127
306.43297052154196	306.58390022675735	55	127
306.43297052154196	306.58390022675735	40	127
306.58390022675735	307.2340589569161	62	127
306.58390022675735	307.2340589569161	47	127
307.1992290249433	307.57074829931975	54	127
307.1992290249433	307.57074829931975	66	127
307.2340589569161	307.31532879818593	71	127
307.2340589569161	307.31532879818593	55	127
307.31532879818593	307.3965759637188	55	127
307.31532879818593	307.3965759637188	71	127
307.3965759637188	307.4894557823129	62	127
307.3965759637188	307.4894557823129	47	127
307.4894557823129	307.57074829931975	55	127
307.4894557823129	307.57074829931975	40	127
307.57074829931975	308.7781859410431	54	127
307.57074829931975	307.6520181405896	55	127
307.57074829931975	307.6520181405896	62	127
307.57074829931975	308.0119274376417	40	127
307.57074829931975	308.7781859410431	66	127
307.6520181405896	307.9306575963719	55	127
307.6520181405896	307.9306575963719	62	127
307.9306575963719	308.0002947845805	62	127
307.9306575963719	308.0002947845805	55	127
308.0119274376417	308.06997732426305	55	127
308.0119274376417	308.2325170068027	47	127
308.0119274376417	308.06997732426305	62	127
308.0815873015873	308.16285714285715	55	127
308.0815873015873	308.16285714285715	62	127
308.16285714285715	308.2325170068027	62	127
308.16285714285715	308.2325170068027	55	127
308.2325170068027	308.29056689342406	55	127
308.2325170068027	308.29056689342406	62	127
308.2325170068027	308.5575963718821	40	127
308.3021768707483	308.44149659863945	62	127
308.3021768707483	308.44149659863945	55	127
308.4531065759637	308.5459863945578	62	127
308.4531065759637	308.5459863945578	55	127
308.5575963718821	308.61562358276643	62	127
308.5575963718821	308.61562358276643	55	127
308.5575963718821	308.7781859410431	47	127
308.62725623582764	308.70852607709753	62	127
308.62725623582764	308.70852607709753	55	127
308.70852607709753	308.7781859410431	62	127
308.70852607709753	308.7781859410431	55	127
308.7781859410431	310.6589795918367	52	127
308.7781859410431	310.6589795918367	64	127
308.7781859410431	308.8594557823129	55	127
308.7781859410431	308.8594557823129	62	127
308.7781859410431	309.0800453514739	40	127
308.8594557823129	308.92909297052154	55	127
308.8594557823129	308.92909297052154	62	127
308.92909297052154	308.9987755102041	55	127
308.92909297052154	308.9987755102041	62	127
308.9987755102041	309.0800453514739	55	127
308.9987755102041	309.0800453514739	62	127
309.0800453514739	309.38190476190476	47	127
309.0800453514739	309.1497052154195	55	127
309.0800453514739	309.1497052154195	62	127
309.1497052154195	309.2193650793651	62	127
309.1497052154195	309.2193650793651	55	127
309.2193650793651	309.28902494331066	55	127
309.2193650793651	309.28902494331066	62	127
309.28902494331066	309.38190476190476	55	127
309.28902494331066	309.38190476190476	62	127
309.38190476190476	309.4515646258503	62	127
309.38190476190476	309.4515646258503	55	127
309.38190476190476	309.67215419501133	40	127
309.4515646258503	309.52122448979594	62	127
309.4515646258503	309.52122448979594	55	127
309.5328117913832	309.5908843537415	55	127
309.5328117913832	309.5908843537415	62	127
309.60249433106577	309.66054421768706	55	127
309.60249433106577	309.66054421768706	62	127
309.67215419501133	309.7302040816327	55	127
309.67215419501133	309.9972335600907	47	127
309.67215419501133	309.7302040816327	62	127
309.74179138321995	309.8114739229025	62	127
309.74179138321995	309.8114739229025	55	127
309.8114739229025	309.88113378684807	55	127
309.8114739229025	309.88113378684807	62	127
309.88113378684807	309.9507709750567	62	127
309.88113378684807	309.9507709750567	55	127
309.9972335600907	310.8099319727891	40	127
309.9972335600907	310.5080725623583	55	127
309.9972335600907	310.5080725623583	62	127
310.51968253968255	310.64739229024946	55	127
310.51968253968255	310.64739229024946	62	127
310.6589795918367	311.1350113378685	50	127
310.6589795918367	311.14662131519276	62	127
310.6589795918367	310.7286621315193	55	127
310.6589795918367	310.7286621315193	62	127
310.7286621315193	310.79832199546485	62	127
310.7286621315193	310.79832199546485	55	127
310.8099319727891	310.86795918367346	62	127
310.8099319727891	310.86795918367346	55	127
310.8099319727891	311.1350113378685	47	127
310.8795918367347	310.9492517006803	55	127
310.8795918367347	310.9492517006803	62	127
310.9492517006803	311.06535147392293	62	127
310.9492517006803	311.06535147392293	55	127
311.0769387755102	311.1350113378685	62	127
311.0769387755102	311.1350113378685	55	127
311.14662131519276	311.92448979591836	56	127
311.14662131519276	311.92448979591836	62	127
311.14662131519276	313.00421768707486	40	127
311.14662131519276	311.92448979591836	56	127
311.14662131519276	313.00421768707486	47	127
311.14662131519276	313.00421768707486	53	127
311.92448979591836	313.6427664399093	56	127
311.92448979591836	313.6427664399093	62	127
313.00421768707486	314.69927437641724	53	127
313.6427664399093	314.69927437641724	62	127
313.6427664399093	314.69927437641724	56	127
314.69927437641724	316.17374149659867	56	127
314.69927437641724	316.17374149659867	62	127
314.69927437641724	316.17374149659867	47	127
317.2882993197279	317.3927891156463	66	127
317.2882993197279	318.042947845805	86	127
317.2882993197279	317.54371882086167	45	127
317.2882993197279	317.7991383219955	54	127
317.2882993197279	317.7991383219955	60	127
317.3927891156463	317.5669387755102	62	127
317.54371882086167	317.7991383219955	38	127
317.6714285714286	318.7859863945578	64	127
317.7991383219955	318.042947845805	45	127
317.7991383219955	318.3564172335601	54	127
317.7991383219955	318.3564172335601	60	127
318.042947845805	318.3564172335601	38	127
318.042947845805	318.5189569160998	84	127
318.3564172335601	318.64666666666665	45	127
318.3564172335601	318.90208616780046	54	127
318.3564172335601	318.90208616780046	60	127
318.5189569160998	318.8904761904762	86	127
318.64666666666665	318.8904761904762	38	127
318.90208616780046	319.99342403628117	81	127
318.90208616780046	319.04138321995464	69	127
318.90208616780046	319.35485260770974	47	127
318.90208616780046	319.76120181405895	57	127
318.90208616780046	319.76120181405895	63	127
319.04138321995464	319.3780952380952	65	127
319.35485260770974	319.76120181405895	41	127
319.6451247165533	320.7480725623583	67	127
319.76120181405895	320.2372335600907	57	127
319.76120181405895	319.99342403628117	47	127
319.76120181405895	320.2372335600907	63	127
319.99342403628117	320.7480725623583	84	127
319.99342403628117	320.2372335600907	41	127
320.2372335600907	321.618820861678	62	127
320.2372335600907	320.59714285714284	46	127
320.2372335600907	321.618820861678	56	127
320.59714285714284	320.8641723356009	41	127
321.618820861678	322.54761904761904	60	127
321.618820861678	321.72331065759636	66	127
321.618820861678	322.0716099773243	45	127
321.618820861678	322.22253968253966	86	127
321.618820861678	322.54761904761904	54	127
321.72331065759636	322.08321995464854	62	127
322.0716099773243	322.54761904761904	38	127
322.22253968253966	323.81310657596373	64	127
322.22253968253966	322.89591836734695	84	127
322.54761904761904	322.9075283446712	45	127
322.54761904761904	323.1513378684807	54	127
322.54761904761904	323.1513378684807	60	127
322.9075283446712	323.1513378684807	38	127
322.9075283446712	323.5692970521542	84	127
323.1513378684807	323.9524036281179	60	127
323.1513378684807	323.9524036281179	54	127
323.1513378684807	323.6970068027211	45	127
323.5692970521542	323.94081632653064	86	127
323.6970068027211	323.94081632653064	38	127
323.9524036281179	324.9160544217687	63	127
323.9524036281179	324.045306122449	69	127
323.9524036281179	324.44004535147394	47	127
323.9524036281179	324.9160544217687	57	127
323.9524036281179	325.15986394557825	81	127
324.045306122449	324.4516553287982	65	127
324.44004535147394	324.9160544217687	41	127
324.7883446712018	325.75197278911565	67	127
324.9160544217687	325.15986394557825	47	127
324.9160544217687	325.39206349206347	63	127
324.9160544217687	325.39206349206347	57	127
325.15986394557825	325.75197278911565	84	127
325.15986394557825	325.39206349206347	41	127
325.39206349206347	325.87968253968256	56	127
325.39206349206347	325.635873015873	46	127
325.39206349206347	325.87968253968256	62	127
325.635873015873	325.8680725623583	41	127
325.87968253968256	327.5863492063492	54	127
325.87968253968256	326.8200680272109	66	127
325.87968253968256	327.35414965986394	45	127
325.87968253968256	327.5863492063492	60	127
326.8200680272109	327.38897959183674	62	127
327.35414965986394	327.5979591836735	38	127
327.48185941043084	330.6281632653061	64	127
327.5979591836735	330.6281632653061	54	127
327.5979591836735	327.85337868480724	45	127
327.5979591836735	330.6281632653061	60	127
327.85337868480724	328.20167800453515	38	127
328.20167800453515	328.51514739229026	45	127
328.51514739229026	328.8053968253968	38	127
331.638231292517	331.74272108843536	65	127
331.638231292517	332.4509297052154	44	127
331.638231292517	332.7179591836735	53	127
331.638231292517	332.7179591836735	59	127
331.74272108843536	332.4857596371882	62	127
332.4509297052154	332.72956916099776	38	127
332.5902494331066	335.14444444444445	64	127
332.72956916099776	335.14444444444445	59	127
332.72956916099776	333.0894784580499	44	127
332.72956916099776	335.14444444444445	53	127
333.0894784580499	333.37972789115645	38	127
333.37972789115645	333.6583673469388	44	127
333.6583673469388	333.96022675736964	38	127
337.1181405895692	337.4780498866213	59	127
337.1181405895692	337.4896598639456	65	127
337.4896598639456	337.9192290249433	62	127
337.4896598639456	338.2443083900227	53	127
337.9308390022676	338.40684807256235	64	127
338.40684807256235	338.84802721088437	59	127
338.40684807256235	338.84802721088437	65	127
338.84802721088437	339.2079365079365	62	127
338.84802721088437	339.45174603174604	53	127
339.21954648526076	339.5678458049887	64	127
339.57945578231295	339.9277551020408	59	127
339.57945578231295	339.9277551020408	65	127
339.9277551020408	340.2760544217687	62	127
339.9277551020408	340.54308390022675	53	127
340.2760544217687	340.6475736961451	64	127
340.6591836734694	341.04231292517005	65	127
340.6591836734694	341.01909297052157	59	127
341.04231292517005	341.7388888888889	53	127
341.04231292517005	341.49510204081633	62	127
341.49510204081633	341.86662131519273	64	127
341.86662131519273	342.2961904761905	65	127
341.86662131519273	342.2845804988662	59	127
341.86662131519273	342.2845804988662	65	127
342.2961904761905	343.0508390022676	59	127
342.2961904761905	342.6909297052154	62	127
342.7025396825397	343.1785260770975	64	127
343.1901587301587	343.9912244897959	59	127
343.1901587301587	343.65455782312927	65	127
343.65455782312927	344.0957142857143	62	127
344.1073469387755	344.57174603174604	64	127
344.61818594104307	345.0477551020408	65	127
345.0477551020408	345.4889342403628	62	127
345.0477551020408	345.93009070294784	59	127
345.4889342403628	345.93009070294784	64	127
345.93009070294784	346.777641723356	65	127
345.93009070294784	347.7180498866213	59	127
346.78925170068027	348.6236281179138	61	127
346.78925170068027	347.7180498866213	62	127
347.7180498866213	348.6236281179138	63	127
347.7180498866213	349.3085941043084	59	127
348.6236281179138	351.2474603174603	68	127
348.6236281179138	349.0415873015873	49	127
348.6236281179138	349.3085941043084	66	127
349.0415873015873	349.5524263038549	42	127
349.3085941043084	349.97038548752835	65	127
349.3085941043084	350.6205442176871	59	127
349.5524263038549	349.97038548752835	49	127
349.97038548752835	350.6205442176871	62	127
349.97038548752835	350.3999546485261	42	127
350.3999546485261	350.8063038548753	49	127
350.6205442176871	351.2474603174603	63	127
350.6205442176871	351.897641723356	59	127
350.8063038548753	351.2474603174603	42	127
351.2474603174603	351.68866213151927	49	127
351.2474603174603	351.897641723356	66	127
351.2474603174603	352.5245804988662	70	127
351.68866213151927	352.10662131519274	42	127
351.897641723356	352.5245804988662	65	127
351.897641723356	353.1515192743764	59	127
352.10662131519274	352.5245804988662	49	127
352.5245804988662	352.9425396825397	42	127
352.5245804988662	353.1515192743764	62	127
352.5245804988662	355.1019954648526	68	127
352.9425396825397	353.36049886621316	49	127
353.1515192743764	353.8016553287982	63	127
353.1515192743764	354.4402267573696	59	127
353.36049886621316	353.8016553287982	42	127
353.8016553287982	354.23124716553286	49	127
353.8016553287982	354.4402267573696	66	127
354.23124716553286	354.64920634920634	42	127
354.4402267573696	355.1019954648526	65	127
354.4402267573696	356.00757369614513	59	127
354.64920634920634	355.1019954648526	49	127
355.1019954648526	355.7985941043084	42	127
355.1019954648526	356.00757369614513	62	127
355.1019954648526	356.32104308390024	66	127
355.7985941043084	356.21655328798187	49	127
356.00757369614513	356.63451247165534	63	127
356.00757369614513	357.26145124716555	58	127
356.21655328798187	356.63451247165534	42	127
356.32104308390024	356.63451247165534	73	127
356.63451247165534	358.5036961451247	73	127
356.63451247165534	357.0524716553288	49	127
356.63451247165534	357.26145124716555	64	127
357.0524716553288	357.4704308390023	42	127
357.26145124716555	357.8767800453515	65	127
357.26145124716555	358.5036961451247	58	127
357.4704308390023	357.8767800453515	49	127
357.8767800453515	358.29473922902497	42	127
357.8767800453515	358.5036961451247	70	127
358.29473922902497	358.7010884353742	49	127
358.5036961451247	359.7459863945578	58	127
358.5036961451247	359.13065759637186	64	127
358.5036961451247	359.13065759637186	75	127
358.7010884353742	359.13065759637186	42	127
359.13065759637186	359.7459863945578	65	127
359.13065759637186	359.5369841269841	49	127
359.13065759637186	359.7459863945578	70	127
359.5369841269841	359.95496598639454	42	127
359.7459863945578	360.3845351473923	66	127
359.7459863945578	360.3845351473923	58	127
359.7459863945578	360.3845351473923	75	127
359.95496598639454	360.3845351473923	49	127
360.3845351473923	360.80249433106576	46	127
360.3845351473923	360.80249433106576	73	127
360.3845351473923	361.02308390022677	64	127
360.3845351473923	361.02308390022677	55	127
360.80249433106576	361.2320634920635	71	127
360.80249433106576	361.2320634920635	39	127
361.02308390022677	361.52231292517007	65	127
361.02308390022677	362.137641723356	61	127
361.2320634920635	361.52231292517007	46	127
361.2320634920635	361.52231292517007	70	127
361.52231292517007	366.9209523809524	70	127
361.52231292517007	361.9286621315193	39	127
361.52231292517007	362.137641723356	70	127
361.9286621315193	362.3350113378685	46	127
362.137641723356	362.7297505668934	64	127
362.137641723356	362.7297505668934	55	127
362.3350113378685	362.7297505668934	39	127
362.7297505668934	363.98362811791384	61	127
362.7297505668934	363.3566893424036	65	127
362.7297505668934	363.1477097505669	46	127
363.1477097505669	363.56566893424036	51	127
363.3566893424036	363.98362811791384	70	127
363.56566893424036	363.98362811791384	55	127
363.98362811791384	364.5873469387755	55	127
363.98362811791384	364.38997732426304	58	127
363.98362811791384	364.5873469387755	64	127
364.38997732426304	364.79632653061225	63	127
364.5873469387755	365.1910657596372	65	127
364.5873469387755	365.1910657596372	61	127
364.79632653061225	365.1794557823129	65	127
365.1910657596372	365.36519274376417	61	127
365.1910657596372	365.6902947845805	64	127
365.1910657596372	365.6902947845805	55	127
365.36519274376417	365.5045351473923	59	127
365.5045351473923	365.6902947845805	61	127
365.6902947845805	366.30562358276643	65	127
365.6902947845805	365.88766439909296	59	127
365.6902947845805	366.30562358276643	61	127
365.88766439909296	366.30562358276643	58	127
366.30562358276643	367.3969614512472	61	127
366.30562358276643	366.7235827664399	55	127
366.30562358276643	366.93256235827664	64	127
366.7235827664399	367.1415419501134	51	127
366.93256235827664	367.68721088435376	70	127
366.93256235827664	367.6756009070295	65	127
367.1415419501134	367.6756009070295	46	127
367.68721088435376	371.27469387755104	66	127
367.68721088435376	371.27469387755104	62	127
367.68721088435376	368.1283900226757	47	127
367.68721088435376	368.9875283446712	73	127
368.1283900226757	368.56956916099773	49	127
368.56956916099773	368.9875283446712	50	127
368.9875283446712	370.94961451247167	71	127
368.9875283446712	369.4287074829932	53	127
369.4287074829932	369.88149659863944	54	127
369.88149659863944	370.3110657596372	58	127
370.3110657596372	370.72902494331066	59	127
370.72902494331066	371.1702040816327	61	127
370.94961451247167	371.64621315192744	70	127
371.1702040816327	371.63460317460317	62	127
371.64621315192744	375.0479365079365	62	127
371.64621315192744	372.05256235827665	71	127
371.64621315192744	372.8536507936508	70	127
371.64621315192744	375.0479365079365	56	127
372.05256235827665	372.45891156462585	73	127
372.45891156462585	372.8536507936508	74	127
372.8536507936508	373.27160997732426	77	127
372.8536507936508	374.7344671201814	68	127
373.27160997732426	373.67795918367347	78	127
373.67795918367347	374.1191383219955	82	127
374.1191383219955	374.53709750566895	83	127
374.53709750566895	374.94344671201816	85	127
374.7344671201814	375.34979591836736	66	127
374.94344671201816	375.34979591836736	86	127
375.36140589569163	375.99995464852606	89	127
375.36140589569163	375.512335600907	69	127
375.36140589569163	375.512335600907	77	127
375.36140589569163	375.512335600907	57	127
375.36140589569163	375.512335600907	65	127
375.36140589569163	375.512335600907	41	127
375.36140589569163	375.512335600907	48	127
375.5239455782313	375.67487528344674	69	127
375.5239455782313	375.67487528344674	77	127
375.5239455782313	375.67487528344674	57	127
375.5239455782313	375.67487528344674	65	127
375.5239455782313	375.67487528344674	41	127
375.5239455782313	375.67487528344674	48	127
375.686462585034	375.8258049886621	65	127
375.686462585034	375.8258049886621	69	127
375.686462585034	375.8258049886621	41	127
375.686462585034	375.8258049886621	57	127
375.686462585034	375.8258049886621	77	127
375.686462585034	375.8258049886621	48	127
375.8374149659864	375.98832199546484	65	127
375.8374149659864	375.98832199546484	69	127
375.8374149659864	375.98832199546484	77	127
375.8374149659864	375.98832199546484	57	127
375.8374149659864	375.98832199546484	41	127
375.8374149659864	375.98832199546484	48	127
375.99995464852606	377.2538321995465	84	127
375.99995464852606	376.13927437641723	69	127
375.99995464852606	376.13927437641723	77	127
375.99995464852606	376.13927437641723	57	127
375.99995464852606	376.13927437641723	65	127
375.99995464852606	376.13927437641723	45	127
375.99995464852606	376.13927437641723	53	127
376.1508843537415	376.30179138321995	45	127
376.1508843537415	376.30179138321995	69	127
376.1508843537415	376.30179138321995	77	127
376.1508843537415	376.30179138321995	57	127
376.1508843537415	376.30179138321995	65	127
376.1508843537415	376.30179138321995	53	127
376.31342403628116	376.45274376417234	69	127
376.31342403628116	376.45274376417234	77	127
376.31342403628116	376.45274376417234	57	127
376.31342403628116	376.45274376417234	65	127
376.31342403628116	376.45274376417234	45	127
376.31342403628116	376.45274376417234	53	127
376.4643537414966	376.615283446712	69	127
376.4643537414966	376.615283446712	77	127
376.4643537414966	376.615283446712	57	127
376.4643537414966	376.615283446712	65	127
376.4643537414966	376.615283446712	45	127
376.4643537414966	376.615283446712	53	127
376.62689342403627	376.76621315192745	69	127
376.62689342403627	376.76621315192745	77	127
376.62689342403627	376.76621315192745	57	127
376.62689342403627	376.76621315192745	65	127
376.62689342403627	376.76621315192745	48	127
376.7778231292517	376.9171201814059	69	127
376.7778231292517	376.9171201814059	77	127
376.7778231292517	376.9171201814059	57	127
376.7778231292517	376.9171201814059	65	127
376.7778231292517	376.9171201814059	48	127
376.9403628117914	377.07968253968255	65	127
376.9403628117914	377.07968253968255	69	127
376.9403628117914	377.07968253968255	77	127
376.9403628117914	377.07968253968255	57	127
376.9403628117914	377.07968253968255	48	127
377.0912925170068	377.23061224489794	69	127
377.0912925170068	377.23061224489794	77	127
377.0912925170068	377.23061224489794	57	127
377.0912925170068	377.23061224489794	65	127
377.0912925170068	377.23061224489794	48	127
377.2538321995465	377.9156009070295	81	127
377.2538321995465	377.39315192743766	69	127
377.2538321995465	377.39315192743766	77	127
377.2538321995465	377.39315192743766	60	127
377.2538321995465	377.39315192743766	53	127
377.4047619047619	377.5905215419501	69	127
377.4047619047619	377.5905215419501	77	127
377.4047619047619	377.5905215419501	60	127
377.4047619047619	377.5905215419501	53	127
377.6021315192744	377.76467120181405	69	127
377.6021315192744	377.76467120181405	77	127
377.6021315192744	377.76467120181405	60	127
377.6021315192744	377.76467120181405	53	127
377.7762811791383	377.9156009070295	60	127
377.7762811791383	377.9156009070295	69	127
377.7762811791383	377.9156009070295	77	127
377.7762811791383	377.9156009070295	53	127
377.92721088435377	378.07814058956916	63	127
377.92721088435377	378.07814058956916	71	127
377.92721088435377	378.07814058956916	56	127
377.92721088435377	378.34514739229024	80	127
378.08975056689343	378.2290702947846	63	127
378.08975056689343	378.2290702947846	71	127
378.08975056689343	378.2290702947846	56	127
378.2406575963719	378.39160997732426	63	127
378.2406575963719	378.39160997732426	71	127
378.2406575963719	378.39160997732426	56	127
378.34514739229024	378.75149659863945	82	127
378.40321995464853	378.5425170068027	56	127
378.40321995464853	378.5425170068027	71	127
378.40321995464853	378.5425170068027	63	127
378.554126984127	378.6934693877551	59	127
378.554126984127	378.6934693877551	66	127
378.554126984127	378.6934693877551	51	127
378.70507936507937	378.84439909297055	51	127
378.70507936507937	378.84439909297055	66	127
378.70507936507937	378.84439909297055	59	127
378.75149659863945	379.15784580498865	83	127
378.8559863945578	378.99532879818594	66	127
378.8559863945578	378.99532879818594	59	127
378.8559863945578	378.99532879818594	51	127
379.0185487528345	379.15784580498865	66	127
379.0185487528345	379.15784580498865	51	127
379.0185487528345	379.15784580498865	59	127
379.16947845804987	379.30879818594104	57	127
379.16947845804987	379.30879818594104	69	127
379.16947845804987	379.30879818594104	77	127
379.16947845804987	379.30879818594104	65	127
379.16947845804987	379.30879818594104	41	127
379.16947845804987	379.30879818594104	48	127
379.16947845804987	379.7383673469388	89	127
379.3204081632653	379.47131519274376	77	127
379.3204081632653	379.47131519274376	57	127
379.3204081632653	379.47131519274376	69	127
379.3204081632653	379.47131519274376	65	127
379.3204081632653	379.47131519274376	41	127
379.3204081632653	379.47131519274376	48	127
379.482947845805	379.62226757369615	69	127
379.482947845805	379.62226757369615	77	127
379.482947845805	379.62226757369615	57	127
379.482947845805	379.62226757369615	65	127
379.482947845805	379.62226757369615	41	127
379.482947845805	379.62226757369615	48	127
379.6338775510204	379.7383673469388	69	127
379.6338775510204	379.7383673469388	77	127
379.6338775510204	379.7383673469388	57	127
379.6338775510204	379.7383673469388	65	127
379.6338775510204	379.7383673469388	41	127
379.6338775510204	379.7383673469388	48	127
379.7383673469388	380.80648526077096	84	127
379.7383673469388	379.8196371882086	69	127
379.7383673469388	379.8196371882086	77	127
379.7383673469388	379.8196371882086	57	127
379.7383673469388	379.8196371882086	65	127
379.7383673469388	379.8196371882086	45	127
379.7383673469388	379.8196371882086	53	127
379.8312471655329	379.97056689342406	69	127
379.8312471655329	379.97056689342406	77	127
379.8312471655329	379.97056689342406	57	127
379.8312471655329	379.97056689342406	65	127
379.8312471655329	379.97056689342406	45	127
379.8312471655329	379.97056689342406	53	127
379.98215419501133	380.1098866213152	69	127
379.98215419501133	380.1098866213152	77	127
379.98215419501133	380.1098866213152	57	127
379.98215419501133	380.1098866213152	65	127
379.98215419501133	380.1098866213152	45	127
379.98215419501133	380.1098866213152	53	127
380.12149659863945	380.2724263038549	69	127
380.12149659863945	380.2724263038549	77	127
380.12149659863945	380.2724263038549	57	127
380.12149659863945	380.2724263038549	65	127
380.12149659863945	380.2724263038549	45	127
380.12149659863945	380.2724263038549	53	127
380.28401360544217	380.34208616780046	69	127
380.28401360544217	380.34208616780046	77	127
380.28401360544217	380.34208616780046	57	127
380.28401360544217	380.34208616780046	65	127
380.28401360544217	380.34208616780046	48	127
380.35369614512473	380.49301587301585	57	127
380.35369614512473	380.49301587301585	69	127
380.35369614512473	380.49301587301585	77	127
380.35369614512473	380.49301587301585	65	127
380.35369614512473	380.49301587301585	48	127
380.5046258503401	380.6439455782313	69	127
380.5046258503401	380.6439455782313	77	127
380.5046258503401	380.6439455782313	57	127
380.5046258503401	380.6439455782313	65	127
380.5046258503401	380.6439455782313	48	127
380.65555555555557	380.7948752834467	69	127
380.65555555555557	380.7948752834467	77	127
380.65555555555557	380.7948752834467	57	127
380.65555555555557	380.7948752834467	65	127
380.65555555555557	380.7948752834467	48	127
380.80648526077096	381.3985941043084	81	127
380.80648526077096	380.94580498866213	69	127
380.80648526077096	380.94580498866213	77	127
380.80648526077096	380.94580498866213	60	127
380.80648526077096	380.94580498866213	53	127
380.9574149659864	381.0967346938776	69	127
380.9574149659864	381.0967346938776	77	127
380.9574149659864	381.0967346938776	60	127
380.9574149659864	381.0967346938776	53	127
381.1083446712018	381.24766439909297	69	127
381.1083446712018	381.24766439909297	77	127
381.1083446712018	381.24766439909297	60	127
381.1083446712018	381.24766439909297	53	127
381.25927437641724	381.3985941043084	69	127
381.25927437641724	381.3985941043084	77	127
381.25927437641724	381.3985941043084	60	127
381.25927437641724	381.3985941043084	53	127
381.4102040816326	381.8049433106576	80	127
381.4102040816326	381.5495238095238	71	127
381.4102040816326	381.5495238095238	63	127
381.4102040816326	381.5495238095238	56	127
381.5611337868481	381.70045351473925	71	127
381.5611337868481	381.70045351473925	63	127
381.5611337868481	381.70045351473925	56	127
381.71206349206346	381.8397732426304	63	127
381.71206349206346	381.8397732426304	71	127
381.71206349206346	381.8397732426304	56	127
381.8049433106576	382.1880725623583	82	127
381.85138321995464	381.9907029478458	71	127
381.85138321995464	381.9907029478458	63	127
381.85138321995464	381.9907029478458	56	127
382.0023129251701	382.13002267573694	66	127
382.0023129251701	382.13002267573694	59	127
382.0023129251701	382.13002267573694	51	127
382.1416326530612	382.2809523809524	66	127
382.1416326530612	382.2809523809524	51	127
382.1416326530612	382.2809523809524	59	127
382.1880725623583	382.5479818594104	83	127
382.29256235827665	382.4086621315193	59	127
382.29256235827665	382.4086621315193	66	127
382.29256235827665	382.4086621315193	51	127
382.42027210884356	382.5479818594104	51	127
382.42027210884356	382.5479818594104	59	127
382.42027210884356	382.5479818594104	66	127
382.5595918367347	382.69891156462586	77	127
382.5595918367347	382.69891156462586	57	127
382.5595918367347	382.69891156462586	65	127
382.5595918367347	382.69891156462586	48	127
382.5595918367347	382.69891156462586	41	127
382.5595918367347	383.0007709750567	89	127
382.5595918367347	382.69891156462586	69	127
382.71052154195013	382.838231292517	69	127
382.71052154195013	382.838231292517	77	127
382.71052154195013	382.838231292517	57	127
382.71052154195013	382.838231292517	65	127
382.71052154195013	382.838231292517	41	127
382.71052154195013	382.838231292517	48	127
382.838231292517	382.9543310657596	57	127
382.838231292517	382.9543310657596	69	127
382.838231292517	382.9543310657596	77	127
382.838231292517	382.9543310657596	65	127
382.838231292517	382.9543310657596	41	127
382.838231292517	382.9543310657596	48	127
382.9543310657596	382.9891609977324	69	127
382.9543310657596	382.9891609977324	77	127
382.9543310657596	382.9891609977324	57	127
382.9543310657596	382.9891609977324	65	127
382.9543310657596	382.9891609977324	41	127
382.9543310657596	382.9891609977324	48	127
383.0007709750567	384.0340589569161	84	127
383.0007709750567	383.0820408163265	69	127
383.0007709750567	383.0820408163265	77	127
383.0007709750567	383.0820408163265	57	127
383.0007709750567	383.0820408163265	65	127
383.0007709750567	383.0820408163265	45	127
383.0007709750567	383.0820408163265	53	127
383.0936507936508	383.19814058956916	69	127
383.0936507936508	383.19814058956916	77	127
383.0936507936508	383.19814058956916	57	127
383.0936507936508	383.19814058956916	65	127
383.0936507936508	383.19814058956916	45	127
383.0936507936508	383.19814058956916	53	127
383.20975056689343	383.33746031746034	69	127
383.20975056689343	383.33746031746034	77	127
383.20975056689343	383.33746031746034	57	127
383.20975056689343	383.33746031746034	65	127
383.20975056689343	383.33746031746034	45	127
383.20975056689343	383.33746031746034	53	127
383.34907029478455	383.47678004535146	45	127
383.34907029478455	383.47678004535146	69	127
383.34907029478455	383.47678004535146	77	127
383.34907029478455	383.47678004535146	57	127
383.34907029478455	383.47678004535146	65	127
383.34907029478455	383.47678004535146	53	127
383.48839002267573	383.61609977324264	69	127
383.48839002267573	383.61609977324264	77	127
383.48839002267573	383.61609977324264	57	127
383.48839002267573	383.61609977324264	65	127
383.48839002267573	383.61609977324264	48	127
383.6277097505669	383.7554195011338	69	127
383.6277097505669	383.7554195011338	77	127
383.6277097505669	383.7554195011338	57	127
383.6277097505669	383.7554195011338	65	127
383.6277097505669	383.7554195011338	48	127
383.767029478458	383.88312925170067	69	127
383.767029478458	383.88312925170067	77	127
383.767029478458	383.88312925170067	57	127
383.767029478458	383.88312925170067	65	127
383.767029478458	383.88312925170067	48	127
383.89473922902494	384.02244897959184	69	127
383.89473922902494	384.02244897959184	77	127
383.89473922902494	384.02244897959184	57	127
383.89473922902494	384.02244897959184	65	127
383.89473922902494	384.02244897959184	48	127
384.0340589569161	384.161768707483	53	127
384.0340589569161	384.161768707483	69	127
384.0340589569161	384.161768707483	77	127
384.0340589569161	384.161768707483	57	127
384.0340589569161	384.161768707483	65	127
384.0340589569161	384.5448979591837	81	127
384.17337868480723	384.2778684807256	69	127
384.17337868480723	384.2778684807256	77	127
384.17337868480723	384.2778684807256	57	127
384.17337868480723	384.2778684807256	65	127
384.17337868480723	384.2778684807256	53	127
384.2778684807256	384.4055782312925	69	127
384.2778684807256	384.4055782312925	77	127
384.2778684807256	384.4055782312925	57	127
384.2778684807256	384.4055782312925	65	127
384.2778684807256	384.4055782312925	53	127
384.4171882086168	384.5448979591837	77	127
384.4171882086168	384.5448979591837	69	127
384.4171882086168	384.5448979591837	57	127
384.4171882086168	384.5448979591837	65	127
384.4171882086168	384.5448979591837	53	127
384.55650793650796	385.05573696145126	89	127
384.55650793650796	384.6726077097506	69	127
384.55650793650796	384.6726077097506	77	127
384.55650793650796	384.6726077097506	60	127
384.55650793650796	384.6726077097506	53	127
384.6842176870748	384.7887074829932	69	127
384.6842176870748	384.7887074829932	53	127
384.6842176870748	384.7887074829932	77	127
384.6842176870748	384.7887074829932	60	127
384.80031746031744	384.9164172335601	77	127
384.80031746031744	384.9164172335601	69	127
384.80031746031744	384.9164172335601	60	127
384.80031746031744	384.9164172335601	53	127
384.92802721088435	385.044126984127	60	127
384.92802721088435	385.044126984127	77	127
384.92802721088435	385.044126984127	53	127
384.92802721088435	385.044126984127	69	127
385.05573696145126	385.1718367346939	57	127
385.05573696145126	385.1718367346939	77	127
385.05573696145126	385.8916553287982	84	127
385.05573696145126	385.1718367346939	69	127
385.05573696145126	385.1718367346939	65	127
385.18344671201817	385.28793650793654	69	127
385.18344671201817	385.28793650793654	77	127
385.18344671201817	385.28793650793654	65	127
385.18344671201817	385.28793650793654	57	127
385.28793650793654	385.4040362811791	77	127
385.28793650793654	385.4040362811791	69	127
385.28793650793654	385.4040362811791	65	127
385.28793650793654	385.4040362811791	57	127
385.4156462585034	385.531746031746	69	127
385.4156462585034	385.531746031746	77	127
385.4156462585034	385.531746031746	65	127
385.4156462585034	385.531746031746	57	127
385.5433560090703	385.6710657596372	69	127
385.5433560090703	385.6710657596372	77	127
385.5433560090703	385.6710657596372	65	127
385.5433560090703	385.6710657596372	60	127
385.6710657596372	385.7987755102041	69	127
385.6710657596372	385.7987755102041	77	127
385.6710657596372	385.7987755102041	65	127
385.6710657596372	385.7987755102041	60	127
385.8103854875283	385.92648526077096	65	127
385.8103854875283	385.92648526077096	69	127
385.8103854875283	385.92648526077096	77	127
385.8103854875283	385.92648526077096	60	127
385.93809523809523	386.05419501133787	65	127
385.93809523809523	386.05419501133787	69	127
385.93809523809523	386.05419501133787	77	127
385.93809523809523	386.05419501133787	60	127
386.06580498866214	386.1819047619048	69	127
386.06580498866214	386.1819047619048	77	127
386.06580498866214	386.1819047619048	72	127
386.06580498866214	386.1819047619048	65	127
386.06580498866214	386.56503401360544	81	127
386.19351473922904	386.3096145124717	69	127
386.19351473922904	386.3096145124717	77	127
386.19351473922904	386.3096145124717	72	127
386.19351473922904	386.3096145124717	65	127
386.3212244897959	386.43732426303853	69	127
386.3212244897959	386.43732426303853	77	127
386.3212244897959	386.43732426303853	72	127
386.3212244897959	386.43732426303853	65	127
386.4489342403628	386.56503401360544	72	127
386.4489342403628	386.56503401360544	69	127
386.4489342403628	386.56503401360544	77	127
386.4489342403628	386.56503401360544	65	127
386.5766439909297	389.3165986394558	78	127
386.5766439909297	387.06426303854875	89	127
386.5766439909297	390.54725623582766	63	127
386.5766439909297	387.5518820861678	70	127
387.06426303854875	387.22680272108846	87	127
387.22680272108846	387.37773242630385	89	127
387.37773242630385	387.5518820861678	87	127
387.5518820861678	388.03950113378687	84	127
387.5518820861678	388.56195011337866	72	127
388.03950113378687	388.55034013605444	82	127
388.56195011337866	389.3978684807256	73	127
388.56195011337866	389.07278911564623	78	127
389.07278911564623	389.943537414966	70	127
389.95514739229026	390.54725623582766	73	127
389.95514739229026	390.54725623582766	66	127
389.95514739229026	390.54725623582766	77	127
390.54725623582766	390.76784580498867	75	127
390.54725623582766	391.2554648526077	72	127
390.54725623582766	391.2554648526077	68	127
390.54725623582766	391.26707482993197	65	127
390.76784580498867	391.1045351473923	77	127
391.1045351473923	391.26707482993197	75	127
391.26707482993197	391.8243537414966	72	127
391.26707482993197	391.55732426303854	70	127
391.26707482993197	391.8011337868481	66	127
391.55732426303854	392.24231292517004	78	127
391.55732426303854	392.24231292517004	82	127
391.8243537414966	392.4861224489796	70	127
392.24231292517004	392.9737414965986	90	127
392.24231292517004	392.9737414965986	94	127
392.4861224489796	392.9853514739229	66	127
392.9853514739229	393.7051700680272	58	127
393.71678004535147	395.063537414966	58	127
395.063537414966	396.7237641723356	60	127
396.7237641723356	398.0473015873016	61	127
398.6045804988662	400.97301587301587	70	127
398.6045804988662	399.84684807256235	58	127
398.6045804988662	407.6835827664399	51	127
399.2779591836735	399.84684807256235	66	127
399.84684807256235	400.4621768707483	65	127
399.84684807256235	400.97301587301587	60	127
400.4621768707483	400.97301587301587	66	127
400.97301587301587	401.83215419501136	65	127
400.97301587301587	402.7145124716553	66	127
400.97301587301587	402.29655328798185	61	127
401.83215419501136	402.70290249433106	63	127
402.7145124716553	406.60385487528345	73	127
402.7145124716553	403.5968707482993	61	127
402.7145124716553	406.9405442176871	55	127
402.7145124716553	406.9405442176871	65	127
403.5968707482993	404.18897959183676	63	127
404.33990929705215	404.78108843537416	65	127
404.78108843537416	404.8275283446712	66	127
404.8275283446712	404.87396825396826	67	127
404.87396825396826	404.90879818594107	68	127
404.90879818594107	404.9552380952381	69	127
404.9552380952381	405.00167800453517	70	127
405.00167800453517	405.0365079365079	71	127
405.0365079365079	406.0349659863946	72	127
406.0465759637188	406.4413151927438	71	127
406.4413151927438	406.82444444444445	65	127
406.60385487528345	407.6835827664399	70	127
406.82444444444445	407.6835827664399	61	127
407.6835827664399	417.9584126984127	59	127
407.6835827664399	417.9584126984127	49	127
407.6835827664399	409.18126984126985	63	127
407.6835827664399	409.81981859410433	65	127
409.18126984126985	410.55124716553286	70	127
409.81981859410433	410.55124716553286	63	127
410.55124716553286	412.01410430839	73	127
410.55124716553286	411.28267573696144	65	127
411.28267573696144	412.00249433106575	61	127
412.01410430839	417.9584126984127	63	127
412.01410430839	412.8268027210884	77	127
412.8268027210884	413.7439909297052	82	127
413.7439909297052	414.7772789115646	85	127
414.7772789115646	415.9266666666667	89	127
415.9266666666667	418.15578231292517	94	127
418.15578231292517	421.52267573696145	58	127
418.15578231292517	418.7827210884354	92	127
418.15578231292517	420.16430839002265	66	127
418.15578231292517	421.52267573696145	49	127
418.15578231292517	421.52267573696145	42	127
418.7827210884354	421.9174149659864	90	127
420.16430839002265	420.8725170068027	64	127
420.8725170068027	421.4994557823129	66	127
421.52267573696145	423.090022675737	45	127
421.52267573696145	423.090022675737	61	127
421.52267573696145	423.090022675737	52	127
421.52267573696145	423.090022675737	57	127
421.9406349206349	422.3934240362812	88	127
422.42825396825396	423.0784126984127	90	127
423.090022675737	424.7038095238095	50	127
423.090022675737	423.7750113378685	85	127
423.090022675737	424.4832199546485	64	127
423.090022675737	424.7038095238095	43	127
423.090022675737	424.7038095238095	59	127
423.7750113378685	424.69219954648526	83	127
424.7038095238095	427.18834467120183	58	127
424.7038095238095	425.13337868480727	85	127
424.7038095238095	425.342358276644	66	127
424.7038095238095	427.5250340136054	42	127
424.7038095238095	427.5250340136054	49	127
425.13337868480727	425.5745578231292	83	127
425.342358276644	426.0737868480726	64	127
425.5745578231292	426.0737868480726	85	127
426.09700680272107	426.8052154195011	64	127
426.09700680272107	427.9429931972789	78	127
426.8052154195011	427.51342403628115	66	127
427.5250340136054	429.0227210884354	52	127
427.5250340136054	429.0227210884354	61	127
427.5250340136054	429.0227210884354	45	127
427.5250340136054	429.0227210884354	57	127
427.95460317460316	428.40739229024945	76	127
428.4190022675737	429.0111111111111	78	127
429.0227210884354	430.85709750566895	43	127
429.0227210884354	430.1953287981859	73	127
429.0227210884354	430.63650793650794	64	127
429.0227210884354	430.85709750566895	59	127
429.0227210884354	430.85709750566895	50	127
430.1953287981859	430.82226757369614	71	127
430.85709750566895	431.3098866213152	66	127
430.85709750566895	432.1922448979592	58	127
430.85709750566895	432.1922448979592	66	127
430.85709750566895	432.1922448979592	42	127
430.85709750566895	432.1922448979592	49	127
431.3098866213152	431.9716553287982	64	127
431.9716553287982	432.4244444444444	66	127
432.4592743764172	433.9105215419501	61	127
433.3416326530612	434.94380952380953	61	127
434.9786394557823	435.71006802721087	59	127
435.71006802721087	436.75496598639455	61	127
436.75496598639455	438.17138321995463	54	127
438.17138321995463	438.33392290249435	66	127
438.17138321995463	439.1930612244898	60	127
438.17138321995463	439.1930612244898	45	127
438.17138321995463	439.56458049886623	38	127
438.17138321995463	441.9910657596372	54	127
438.33392290249435	438.64739229024946	62	127
438.8215419501134	441.09709750566896	64	127
439.1930612244898	439.84321995464853	59	127
439.1930612244898	439.83160997732426	44	127
439.84321995464853	441.09709750566896	58	127
439.84321995464853	441.09709750566896	36	127
439.84321995464853	441.09709750566896	43	127
442.00267573696146	443.0359637188209	52	127
443.04757369614515	443.45392290249436	54	127
443.46553287981857	443.8718820861678	52	127
443.88349206349204	445.0212698412698	48	127
444.4872108843537	445.6714285714286	48	127
445.8804081632653	446.530566893424	47	127
446.5421768707483	446.751156462585	56	127
446.5421768707483	446.704716553288	64	127
446.5421768707483	446.751156462585	52	127
446.5421768707483	450.1993197278912	46	127
446.704716553288	447.0181859410431	60	127
447.1691156462585	448.85256235827666	62	127
447.1691156462585	448.85256235827666	56	127
447.1691156462585	448.85256235827666	52	127
450.2109297052154	450.61727891156465	48	127
450.61727891156465	451.02362811791386	46	127
451.03523809523807	452.2891156462585	42	127
452.2891156462585	452.90444444444444	41	127
452.9160544217687	456.84022675736963	40	127
457.0492063492064	458.5468934240363	39	127
458.1289342403628	458.2218140589569	78	127
458.1289342403628	458.2218140589569	73	127
458.1289342403628	458.2218140589569	82	127
458.2334240362812	458.3263038548753	78	127
458.2334240362812	458.3263038548753	73	127
458.2334240362812	458.3263038548753	82	127
458.33791383219955	458.43079365079365	82	127
458.33791383219955	458.43079365079365	78	127
458.33791383219955	458.43079365079365	73	127
458.4424036281179	458.535283446712	73	127
458.4424036281179	458.535283446712	82	127
458.4424036281179	458.535283446712	78	127
458.5468934240363	458.6397732426304	84	127
458.5468934240363	458.6397732426304	78	127
458.5468934240363	458.6397732426304	72	127
458.5468934240363	460.38126984126984	51	127
458.65138321995465	458.74426303854875	78	127
458.65138321995465	458.74426303854875	72	127
458.65138321995465	458.74426303854875	84	127
458.755873015873	458.8487528344671	84	127
458.755873015873	458.8487528344671	78	127
458.755873015873	458.8487528344671	72	127
458.8487528344671	458.9416326530612	78	127
458.8487528344671	458.9416326530612	84	127
458.8487528344671	458.9416326530612	72	127
458.9532426303855	459.0461224489796	78	127
458.9532426303855	459.0461224489796	70	127
458.9532426303855	459.0461224489796	85	127
459.0461224489796	459.4060317460318	78	127
459.0461224489796	459.4060317460318	70	127
459.0461224489796	459.4060317460318	85	127
459.417641723356	459.49891156462587	78	127
459.417641723356	459.49891156462587	70	127
459.417641723356	459.49891156462587	85	127
459.51052154195014	459.59179138321997	78	127
459.51052154195014	459.59179138321997	70	127
459.51052154195014	459.59179138321997	85	127
459.60340136054424	459.69628117913834	78	127
459.60340136054424	459.69628117913834	69	127
459.60340136054424	459.69628117913834	89	127
459.69628117913834	459.78916099773244	78	127
459.69628117913834	459.78916099773244	69	127
459.69628117913834	459.78916099773244	89	127
459.78916099773244	459.88204081632654	78	127
459.78916099773244	459.88204081632654	69	127
459.78916099773244	459.88204081632654	89	127
459.88204081632654	459.97492063492064	89	127
459.88204081632654	459.97492063492064	78	127
459.88204081632654	459.97492063492064	69	127
459.97492063492064	460.06780045351474	78	127
459.97492063492064	460.06780045351474	85	127
459.97492063492064	460.06780045351474	70	127
460.06780045351474	460.1839002267574	78	127
460.06780045351474	460.1839002267574	70	127
460.06780045351474	460.1839002267574	85	127
460.19551020408164	460.2767800453515	85	127
460.19551020408164	460.2767800453515	78	127
460.19551020408164	460.2767800453515	70	127
460.28839002267574	460.36965986394557	85	127
460.28839002267574	460.36965986394557	70	127
460.28839002267574	460.36965986394557	78	127
460.38126984126984	460.46253968253967	72	127
460.38126984126984	465.1065306122449	63	127
460.38126984126984	460.46253968253967	84	127
460.38126984126984	460.46253968253967	78	127
460.50897959183675	460.5902494331066	78	127
460.50897959183675	460.5902494331066	72	127
460.50897959183675	460.5902494331066	84	127
460.60185941043085	460.69473922902495	78	127
460.60185941043085	460.69473922902495	72	127
460.60185941043085	460.69473922902495	84	127
460.7063492063492	460.7992290249433	78	127
460.7063492063492	460.7992290249433	72	127
460.7063492063492	460.7992290249433	84	127
460.8108390022676	460.8921088435374	82	127
460.8108390022676	460.8921088435374	78	127
460.8108390022676	460.8921088435374	73	127
460.9037188208617	460.9849886621315	73	127
460.9037188208617	460.9849886621315	82	127
460.9037188208617	460.9849886621315	78	127
460.9965986394558	461.0894784580499	78	127
460.9965986394558	461.0894784580499	73	127
460.9965986394558	461.0894784580499	82	127
461.0894784580499	461.182358276644	78	127
461.0894784580499	461.182358276644	73	127
461.0894784580499	461.182358276644	82	127
461.182358276644	461.28684807256235	77	127
461.182358276644	461.28684807256235	70	127
461.182358276644	461.28684807256235	78	127
461.28684807256235	461.37972789115645	77	127
461.28684807256235	461.37972789115645	70	127
461.28684807256235	461.37972789115645	78	127
461.37972789115645	461.55387755102043	77	127
461.37972789115645	461.56548752834465	70	127
461.37972789115645	461.55387755102043	78	127
461.56548752834465	461.64675736961453	77	127
461.56548752834465	461.669977324263	70	127
461.56548752834465	461.64675736961453	78	127
461.669977324263	461.7628571428571	73	127
461.669977324263	461.7744671201814	70	127
461.669977324263	461.7628571428571	66	127
461.7744671201814	461.85573696145127	66	127
461.7744671201814	461.85573696145127	73	127
461.7744671201814	461.92539682539683	70	127
461.92539682539683	462.01827664399093	73	127
461.92539682539683	462.01827664399093	66	127
461.92539682539683	462.0298866213152	70	127
462.0298866213152	462.13437641723357	70	127
462.0298866213152	462.13437641723357	66	127
462.0298866213152	462.13437641723357	73	127
462.13437641723357	462.33174603174604	66	127
462.13437641723357	462.33174603174604	61	127
462.13437641723357	462.33174603174604	70	127
462.33174603174604	462.4826757369614	61	127
462.33174603174604	462.4942857142857	70	127
462.33174603174604	462.4826757369614	66	127
462.4942857142857	462.6219954648526	61	127
462.4942857142857	462.6219954648526	70	127
462.4942857142857	462.6219954648526	66	127
462.6219954648526	462.78453514739226	61	127
462.6219954648526	462.79614512471653	70	127
462.6219954648526	462.78453514739226	66	127
462.79614512471653	463.2257142857143	58	127
462.79614512471653	463.2257142857143	66	127
462.79614512471653	463.2257142857143	61	127
463.2257142857143	463.3766439909297	58	127
463.2257142857143	463.388253968254	66	127
463.2257142857143	463.3766439909297	61	127
463.388253968254	463.5624036281179	58	127
463.388253968254	463.5740136054422	66	127
463.388253968254	463.5624036281179	61	127
463.5740136054422	464.0384126984127	61	127
463.5740136054422	464.0384126984127	58	127
463.5740136054422	464.05002267573695	66	127
464.05002267573695	464.2938321995465	54	127
464.05002267573695	464.2938321995465	58	127
464.05002267573695	464.30544217687077	61	127
464.30544217687077	464.4447619047619	54	127
464.30544217687077	464.4447619047619	58	127
464.30544217687077	464.45637188208616	61	127
464.45637188208616	464.59569160997734	61	127
464.45637188208616	464.58408163265307	54	127
464.45637188208616	464.58408163265307	58	127
464.59569160997734	464.7466213151927	61	127
464.59569160997734	464.73501133786846	58	127
464.59569160997734	464.73501133786846	54	127
464.7466213151927	464.9439909297052	54	127
464.7466213151927	464.9439909297052	61	127
464.7466213151927	464.95560090702946	58	127
464.95560090702946	465.09492063492064	54	127
464.95560090702946	465.09492063492064	61	127
464.95560090702946	465.1065306122449	58	127
465.1065306122449	465.26907029478457	61	127
465.1065306122449	465.26907029478457	54	127
465.1065306122449	465.2922902494331	58	127
465.2922902494331	465.4316099773243	61	127
465.2922902494331	465.4316099773243	54	127
465.2922902494331	465.4432199546485	58	127
465.4432199546485	465.6173696145125	55	127
465.4432199546485	465.6173696145125	65	127
465.4432199546485	465.6173696145125	61	127
465.4432199546485	469.20485260770977	51	127
465.6173696145125	465.77990929705214	55	127
465.6173696145125	465.77990929705214	65	127
465.6173696145125	465.77990929705214	61	127
465.77990929705214	465.9308390022676	55	127
465.77990929705214	465.9308390022676	65	127
465.77990929705214	465.9308390022676	61	127
465.9308390022676	466.27913832199545	55	127
465.9308390022676	466.27913832199545	65	127
465.9308390022676	466.27913832199545	61	127
466.27913832199545	466.4300680272109	65	127
466.27913832199545	466.4300680272109	61	127
466.27913832199545	466.4300680272109	55	127
466.27913832199545	467.8813151927438	69	127
466.4300680272109	466.59260770975055	61	127
466.4300680272109	466.59260770975055	55	127
466.4300680272109	466.59260770975055	65	127
466.59260770975055	466.743537414966	61	127
466.59260770975055	466.743537414966	55	127
466.59260770975055	466.743537414966	65	127
466.743537414966	466.90607709750566	61	127
466.743537414966	466.90607709750566	55	127
466.743537414966	466.90607709750566	65	127
466.90607709750566	467.0570068027211	61	127
466.90607709750566	467.0570068027211	55	127
466.90607709750566	467.0570068027211	65	127
467.0570068027211	467.2543764172336	55	127
467.0570068027211	467.2543764172336	65	127
467.0570068027211	467.2543764172336	61	127
467.2543764172336	467.40530612244896	61	127
467.2543764172336	467.40530612244896	55	127
467.2543764172336	467.40530612244896	65	127
467.40530612244896	467.5678458049887	55	127
467.40530612244896	467.5678458049887	65	127
467.40530612244896	467.5678458049887	61	127
467.5678458049887	467.71877551020407	65	127
467.5678458049887	467.71877551020407	61	127
467.5678458049887	467.71877551020407	55	127
467.71877551020407	467.8813151927438	61	127
467.71877551020407	467.8813151927438	55	127
467.71877551020407	467.8813151927438	65	127
467.8813151927438	468.17156462585035	67	127
467.8813151927438	468.0322448979592	55	127
467.8813151927438	468.0322448979592	65	127
467.8813151927438	468.0322448979592	61	127
468.0322448979592	468.1831746031746	61	127
468.0322448979592	468.1831746031746	65	127
468.0322448979592	468.1831746031746	55	127
468.1831746031746	468.3805442176871	61	127
468.1831746031746	475.2768707482993	69	127
468.1831746031746	468.3805442176871	55	127
468.1831746031746	468.3805442176871	65	127
468.3805442176871	468.5314739229025	61	127
468.3805442176871	468.5314739229025	65	127
468.3805442176871	468.5314739229025	55	127
468.5314739229025	468.7172335600907	65	127
468.5314739229025	468.7172335600907	55	127
468.5314739229025	468.7172335600907	61	127
468.7172335600907	468.89138321995466	61	127
468.7172335600907	468.89138321995466	55	127
468.7172335600907	468.89138321995466	65	127
468.89138321995466	469.0539229024943	55	127
468.89138321995466	469.0539229024943	65	127
468.89138321995466	469.0539229024943	61	127
469.0539229024943	469.20485260770977	61	127
469.0539229024943	469.20485260770977	65	127
469.0539229024943	469.20485260770977	55	127
469.20485260770977	469.3790022675737	65	127
469.20485260770977	469.3790022675737	61	127
469.20485260770977	469.3790022675737	55	127
469.3790022675737	469.52993197278914	65	127
469.3790022675737	469.52993197278914	61	127
469.3790022675737	469.52993197278914	55	127
469.52993197278914	469.6924716553288	64	127
469.52993197278914	469.6924716553288	55	127
469.6924716553288	469.8434013605442	64	127
469.6924716553288	469.8434013605442	55	127
469.8434013605442	470.02916099773245	64	127
469.8434013605442	470.02916099773245	55	127
470.02916099773245	470.2033106575964	64	127
470.02916099773245	470.2033106575964	55	127
470.2033106575964	470.35424036281177	55	127
470.2033106575964	470.35424036281177	64	127
470.35424036281177	470.5167800453515	55	127
470.35424036281177	470.5167800453515	64	127
470.5167800453515	470.66770975056687	55	127
470.5167800453515	470.66770975056687	64	127
470.66770975056687	470.84185941043086	64	127
470.66770975056687	470.84185941043086	55	127
470.84185941043086	471.0043990929705	59	127
470.84185941043086	471.0043990929705	63	127
471.0043990929705	471.21337868480725	59	127
471.0043990929705	471.21337868480725	63	127
471.21337868480725	471.6777777777778	59	127
471.21337868480725	471.6777777777778	63	127
471.6777777777778	471.9215873015873	59	127
471.6777777777778	471.9215873015873	63	127
471.9215873015873	472.084126984127	61	127
471.9215873015873	472.084126984127	65	127
472.084126984127	472.24666666666667	61	127
472.084126984127	472.24666666666667	65	127
472.24666666666667	472.40920634920633	61	127
472.24666666666667	472.40920634920633	65	127
472.40920634920633	472.5833560090703	61	127
472.40920634920633	472.5833560090703	65	127
472.5833560090703	472.74589569161	61	127
472.5833560090703	472.74589569161	65	127
472.74589569161	472.8968253968254	65	127
472.74589569161	472.8968253968254	61	127
472.8968253968254	473.0477551020408	65	127
472.8968253968254	473.0477551020408	61	127
473.0477551020408	473.22190476190474	65	127
473.0477551020408	473.22190476190474	61	127
475.2768707482993	478.794693877551	70	127
476.78616780045354	480.2111111111111	68	127
478.794693877551	480.2111111111111	63	127
478.794693877551	480.2111111111111	58	127
479.37519274376416	479.79315192743763	42	127
479.79315192743763	480.6871201814059	49	127
480.2111111111111	480.9077097505669	66	127
480.2111111111111	481.5346485260771	61	127
480.2111111111111	481.5346485260771	56	127
480.6871201814059	481.1282993197279	51	127
480.9077097505669	481.5346485260771	68	127
481.1282993197279	481.5346485260771	54	127
481.5346485260771	482.18480725623584	57	127
481.5346485260771	482.83496598639454	61	127
481.5346485260771	483.8334240362812	61	127
481.5346485260771	483.8334240362812	55	127
482.18480725623584	483.5083446712018	59	127
482.83496598639454	484.3790929705215	66	127
483.5083446712018	484.36748299319726	69	127
484.3790929705215	488.6980045351474	70	127
484.3790929705215	488.6980045351474	75	127
484.3790929705215	488.6980045351474	80	127
487.86208616780044	488.2800453514739	54	127
488.2800453514739	489.42943310657597	61	127
488.6980045351474	491.93718820861676	68	127
488.6980045351474	489.9634920634921	78	127
488.6980045351474	492.15777777777777	73	127
489.42943310657597	491.53083900226756	63	127
489.9634920634921	492.15777777777777	80	127
491.53083900226756	492.1461678004535	66	127
492.15777777777777	494.7584126984127	73	127
492.15777777777777	492.83115646258506	69	127
492.15777777777777	493.4580952380952	73	127
492.15777777777777	494.42172335600907	67	127
492.83115646258506	494.10825396825396	71	127
493.4580952380952	494.7584126984127	78	127
494.10825396825396	494.7351927437642	81	127
494.7584126984127	497.01074829931974	87	127
494.7584126984127	497.01074829931974	80	127
494.7584126984127	498.8102947845805	82	127
495.93102040816325	496.46507936507936	66	127
496.4882993197279	496.9991383219955	73	127
497.01074829931974	497.904716553288	75	127
497.01074829931974	497.9279365079365	78	127
497.01074829931974	498.8102947845805	85	127
497.9279365079365	498.8102947845805	87	127
497.9279365079365	504.1044444444444	78	127
498.8102947845805	504.1044444444444	90	127
498.8102947845805	504.1044444444444	94	127
498.8102947845805	504.1044444444444	85	127
