# onset,offset,note,velocity
1.0325170068027212	1.2531065759637188	88	127
1.2647165532879818	1.3807936507936507	87	127
1.3924263038548752	1.624625850340136	88	127
1.624625850340136	1.8916553287981859	83	127
1.903265306122449	2.181904761904762	80	127
2.181904761904762	2.437301587301587	83	127
2.448934240362812	2.5650340136054424	76	127
2.5650340136054424	2.6811337868480725	78	127
2.6811337868480725	2.808843537414966	76	127
2.808843537414966	2.9133333333333336	75	127
2.9249433106575964	3.1687528344671203	76	127
3.1687528344671203	3.400952380952381	71	127
3.412562358276644	3.6563718820861677	68	127
3.6563718820861677	3.9582312925170067	71	127
3.9582312925170067	4.120748299319728	64	127
4.120748299319728	4.23687074829932	71	127
4.248458049886621	4.364580498866213	66	127
4.376190476190477	4.492290249433107	71	127
4.50390022675737	4.62	68	127
4.62	4.73609977324263	71	127
4.73609977324263	4.840589569160998	69	127
4.852199546485261	4.968299319727891	71	127
4.979909297052155	5.072766439909297	68	127
5.072766439909297	5.2004761904761905	71	127
5.2004761904761905	5.3165986394557825	66	127
5.3165986394557825	5.432698412698413	71	127
5.444308390022676	5.572018140589569	64	127
5.572018140589569	5.722925170068027	76	127
5.722925170068027	5.850634920634921	75	127
5.850634920634921	5.966757369614513	73	127
5.978367346938776	6.106077097505669	71	127
6.117687074829932	6.233786848072563	76	127
6.233786848072563	6.361496598639456	75	127
6.361496598639456	6.477596371882086	73	127
6.489206349206349	6.6053061224489795	71	127
6.616916099773243	6.744625850340136	69	127
6.744625850340136	6.8723356009070296	68	127
6.8723356009070296	6.98843537414966	66	127
7.000045351473923	7.116145124716553	64	127
7.127755102040816	7.25546485260771	71	127
7.25546485260771	7.383174603174603	66	127
7.383174603174603	7.592154195011338	71	127
7.592154195011338	7.719863945578231	68	127
7.7430839002267575	7.859183673469388	71	127
7.859183673469388	7.975283446712018	69	127
7.975283446712018	8.126213151927438	71	127
8.126213151927438	8.230702947845804	68	127
8.242312925170069	8.346802721088435	71	127
8.358412698412698	8.462902494331066	66	127
8.462902494331066	8.602222222222222	71	127
8.602222222222222	8.718321995464853	64	127
8.729931972789116	8.846031746031747	76	127
8.857641723356009	8.97374149659864	75	127
8.97374149659864	9.113061224489796	73	127
9.113061224489796	9.229160997732427	71	127
9.240770975056689	9.35687074829932	76	127
9.368480725623582	9.472947845804988	75	127
9.472947845804988	9.600657596371882	73	127
9.600657596371882	9.728390022675738	71	127
9.74	9.844489795918367	69	127
9.856099773242631	9.97219954648526	68	127
9.97219954648526	10.088299319727891	66	127
10.099909297052154	10.227619047619047	64	127
10.227619047619047	10.35532879818594	66	127
10.35532879818594	10.448208616780045	68	127
10.45981859410431	10.564308390022676	69	127
10.575918367346938	10.69201814058957	71	127
10.69201814058957	10.784897959183674	73	127
10.784897959183674	10.900975056689342	75	127
10.912607709750567	11.017097505668934	76	127
11.017097505668934	11.12156462585034	78	127
11.12156462585034	11.249274376417233	80	127
11.249274376417233	11.365396825396825	81	127
11.376984126984127	11.493106575963719	78	127
11.504716553287983	11.644036281179138	80	127
11.644036281179138	11.771746031746032	83	127
11.771746031746032	11.899455782312925	76	127
11.899455782312925	12.015555555555556	78	127
12.027165532879819	12.061995464852608	80	127
12.061995464852608	12.166485260770974	81	127
12.166485260770974	12.294195011337868	83	127
12.294195011337868	12.410294784580499	85	127
12.421904761904761	12.52639455782313	87	127
12.538004535147392	12.654104308390023	88	127
12.654104308390023	12.781814058956916	85	127
12.781814058956916	12.955963718820861	87	127
12.99079365079365	13.095283446712019	88	127
13.118503401360543	13.246213151927437	83	127
13.246213151927437	13.37392290249433	81	127
13.37392290249433	13.513242630385488	83	127
13.513242630385488	13.594512471655328	80	127
13.606122448979592	13.722222222222221	83	127
13.733832199546486	13.849931972789115	81	127
13.849931972789115	13.977641723356008	83	127
13.977641723356008	14.070521541950113	80	127
14.082131519274377	14.198231292517006	83	127
14.221451247165533	14.337551020408164	78	127
14.337551020408164	14.44204081632653	83	127
14.44204081632653	14.47687074829932	76	127
14.47687074829932	14.59297052154195	88	127
14.604580498866213	14.732290249433106	87	127
14.732290249433106	14.929659863945579	85	127
14.929659863945579	15.057369614512472	83	127
15.068979591836735	15.185079365079366	76	127
15.196689342403628	15.31278911564626	85	127
15.31278911564626	15.440498866213153	76	127
15.440498866213153	15.568208616780046	83	127
15.568208616780046	15.684308390022675	76	127
15.69591836734694	15.812018140589569	81	127
15.823628117913833	15.951337868480726	76	127
15.951337868480726	16.079024943310657	80	127
16.079024943310657	16.20673469387755	83	127
16.218367346938777	16.334444444444443	78	127
16.34607709750567	16.462154195011337	83	127
16.462154195011337	16.566666666666666	80	127
16.566666666666666	16.671156462585035	83	127
16.705986394557822	16.822086167800453	81	127
16.833696145124716	16.984625850340137	83	127
16.984625850340137	17.11233560090703	80	127
17.11233560090703	17.240045351473924	83	127
17.240045351473924	17.356145124716555	78	127
17.367755102040817	17.48385487528345	83	127
17.49546485260771	17.553514739229026	76	127
17.553514739229026	17.61156462585034	88	127
17.61156462585034	17.72766439909297	87	127
17.739274376417235	17.8437641723356	85	127
17.8553514739229	17.971473922902494	83	127
17.971473922902494	18.099183673469387	76	127
18.099183673469387	18.215283446712018	85	127
18.22689342403628	18.34299319727891	76	127
18.354603174603174	18.482312925170067	83	127
18.482312925170067	18.621609977324262	76	127
18.621609977324262	18.784172335600907	81	127
18.784172335600907	18.923492063492063	76	127
18.935079365079364	19.09764172335601	80	127
19.10925170068027	19.248571428571427	76	127
19.260181405895693	19.318208616780044	76	127
19.318208616780044	19.469160997732427	76	127
19.341451247165534	19.67814058956916	75	127
19.469160997732427	19.852290249433107	76	127
19.736190476190476	19.98	76	127
19.86390022675737	20.13092970521542	76	127
19.98	20.258639455782312	78	127
20.13092970521542	20.386349206349205	76	127
20.270226757369613	20.5140589569161	75	127
20.397936507936507	20.63015873015873	76	127
20.5140589569161	20.757868480725623	76	127
20.63015873015873	20.885578231292516	76	127
20.757868480725623	21.01328798185941	80	127
20.89718820861678	21.12938775510204	76	127
21.024897959183672	21.257097505668934	78	127
21.12938775510204	21.373197278911565	76	127
21.257097505668934	21.50090702947846	80	127
21.384807256235828	21.628616780045352	76	127
21.51251700680272	21.756326530612245	81	127
21.628616780045352	21.872426303854876	76	127
21.756326530612245	22.00013605442177	78	127
21.88403628117914	22.139455782312925	76	127
22.011746031746032	22.27877551020408	80	127
22.139455782312925	22.394875283446712	76	127
22.27877551020408	22.522585034013606	76	127
22.406485260770975	22.6502947845805	76	127
22.534195011337868	22.778004535147392	75	127
22.6502947845805	22.905714285714286	76	127
22.778004535147392	23.021814058956917	76	127
22.905714285714286	23.14952380952381	76	127
23.03342403628118	23.277233560090703	78	127
23.161133786848072	23.31204081632653	76	127
23.277233560090703	23.42816326530612	75	127
23.31204081632653	23.474603174603175	76	127
23.439750566893423	23.53265306122449	76	127
23.474603174603175	23.660362811791384	76	127
23.53265306122449	23.776462585034015	80	127
23.660362811791384	23.904172335600908	76	127
23.788072562358277	24.0318820861678	78	127
23.91578231292517	24.159591836734695	76	127
24.0318820861678	24.29891156462585	80	127
24.159591836734695	24.41501133786848	76	127
24.29891156462585	24.542721088435375	81	127
24.426621315192744	24.68204081632653	76	127
24.542721088435375	24.809750566893424	78	127
24.68204081632653	24.925850340136055	76	127
24.809750566893424	25.05356009070295	80	127
24.937460317460317	25.18126984126984	76	127
25.06517006802721	25.18126984126984	80	127
25.18126984126984	25.308979591836735	76	127
25.308979591836735	25.52956916099773	80	127
25.43668934240363	25.645668934240362	76	127
25.52956916099773	25.645668934240362	80	127
25.645668934240362	25.773378684807255	76	127
25.773378684807255	26.028798185941042	80	127
25.924308390022677	26.156507936507936	76	127
26.040408163265305	26.156507936507936	80	127
26.156507936507936	26.28421768707483	76	127
26.28421768707483	26.528027210884353	80	127
26.423537414965985	26.655736961451247	76	127
26.539637188208616	26.655736961451247	80	127
26.66734693877551	26.795056689342402	75	127
26.795056689342402	27.027256235827664	80	127
26.911156462585033	27.143356009070295	76	127
27.027256235827664	27.143356009070295	80	127
27.154965986394558	27.24784580498866	75	127
27.24784580498866	27.503265306122447	80	127
27.375555555555554	27.630975056689344	76	127
27.514875283446713	27.630975056689344	80	127
27.642585034013607	27.758684807256238	75	127
27.758684807256238	28.00249433106576	80	127
27.88639455782313	28.11859410430839	76	127
28.00249433106576	28.11859410430839	80	127
28.13020408163265	28.23469387755102	74	127
28.23469387755102	28.478503401360545	80	127
28.362403628117914	28.594603174603176	76	127
28.478503401360545	28.594603174603176	80	127
28.606213151927438	28.69909297052154	74	127
28.710702947845807	28.954512471655327	80	127
28.826802721088434	29.07061224489796	76	127
28.954512471655327	29.07061224489796	80	127
29.08222222222222	29.18671201814059	74	127
29.198321995464852	29.40730158730159	81	127
29.291201814058958	29.523401360544216	76	127
29.40730158730159	29.523401360544216	81	127
29.535011337868482	29.65111111111111	73	127
29.662721088435376	29.918140589569163	81	127
29.79043083900227	30.045850340136056	76	127
29.918140589569163	30.045850340136056	81	127
30.045850340136056	30.161950113378683	73	127
30.17356009070295	30.428979591836736	81	127
30.312879818594105	30.55668934240363	76	127
30.428979591836736	30.55668934240363	81	127
30.55668934240363	30.684399092970523	73	127
30.696009070294785	30.951428571428572	81	127
30.83532879818594	31.079138321995465	76	127
30.951428571428572	31.079138321995465	81	127
31.079138321995465	31.20684807256236	71	127
31.21845804988662	31.462267573696145	81	127
31.346167800453514	31.58997732426304	76	127
31.462267573696145	31.58997732426304	81	127
31.58997732426304	31.729297052154195	71	127
31.729297052154195	31.98471655328798	81	127
31.86861678004535	32.112426303854875	76	127
31.98471655328798	32.112426303854875	81	127
32.112426303854875	32.24013605442177	71	127
32.24013605442177	32.495555555555555	80	127
32.379455782312924	32.62326530612245	76	127
32.50716553287982	32.62326530612245	80	127
32.62326530612245	32.72775510204082	71	127
32.72775510204082	32.983174603174604	80	127
32.86707482993197	33.12249433106576	76	127
32.994784580498866	33.12249433106576	80	127
33.12249433106576	33.23859410430839	71	127
33.23859410430839	33.482403628117915	80	127
33.366303854875284	33.598503401360546	76	127
33.49401360544218	33.598503401360546	80	127
33.598503401360546	33.702993197278914	71	127
33.702993197278914	33.94680272108844	80	127
33.83070294784581	34.07451247165533	76	127
33.9584126984127	34.07451247165533	80	127
34.086122448979594	34.202222222222225	69	127
34.202222222222225	34.43439909297052	80	127
34.32993197278912	34.562108843537416	76	127
34.446009070294785	34.562108843537416	80	127
34.57371882086168	34.68981859410431	69	127
34.68981859410431	34.93365079365079	80	127
34.8175283446712	35.061360544217685	76	127
34.945238095238096	35.061360544217685	80	127
35.07294784580499	35.177460317460316	69	127
35.177460317460316	35.4328798185941	78	127
35.30517006802721	35.54897959183673	76	127
35.4328798185941	35.54897959183673	78	127
35.560589569160996	35.67668934240363	69	127
35.67668934240363	35.92049886621315	78	127
35.80439909297052	36.03659863945578	76	127
35.92049886621315	36.03659863945578	78	127
36.048208616780045	36.164308390022676	69	127
36.17591836734694	36.39650793650794	78	127
36.28040816326531	36.500997732426306	76	127
36.39650793650794	36.500997732426306	78	127
36.500997732426306	36.61709750566894	69	127
36.6287074829932	36.872517006802724	78	127
36.74480725623583	36.97698412698413	76	127
36.872517006802724	36.97698412698413	78	127
36.988616780045355	37.093106575963716	68	127
37.10469387755102	37.3485260770975	78	127
37.22081632653061	37.4762358276644	76	127
37.3485260770975	37.4762358276644	78	127
37.4762358276644	37.60394557823129	68	127
37.615532879818595	37.847755102040814	78	127
37.731632653061226	37.97546485260771	76	127
37.847755102040814	37.97546485260771	78	127
37.97546485260771	38.09156462585034	68	127
38.1031746031746	38.33537414965986	76	127
38.230884353741494	38.463083900226756	76	127
38.33537414965986	38.463083900226756	76	127
38.463083900226756	38.567573696145125	68	127
38.57918367346939	38.788163265306125	76	127
38.672063492063494	38.91587301587302	76	127
38.788163265306125	38.91587301587302	76	127
38.91587301587302	39.04358276643991	68	127
39.04358276643991	39.287392290249436	76	127
39.171292517006805	39.41510204081633	76	127
39.287392290249436	39.41510204081633	76	127
39.41510204081633	39.54281179138322	68	127
39.54281179138322	39.74018140589569	76	127
39.62408163265306	39.86789115646258	76	127
39.75179138321995	39.86789115646258	76	127
39.86789115646258	39.99560090702948	66	127
39.99560090702948	40.239410430839	76	127
40.12331065759637	40.35551020408163	76	127
40.251020408163264	40.35551020408163	76	127
40.35551020408163	40.483219954648526	66	127
40.483219954648526	40.71541950113379	76	127
40.59931972789116	40.84312925170068	76	127
40.72702947845805	40.84312925170068	76	127
40.84312925170068	40.970839002267574	66	127
40.970839002267574	41.2146485260771	75	127
41.086938775510205	41.34235827664399	76	127
41.22625850340136	41.34235827664399	75	127
41.353968253968254	41.48167800453515	66	127
41.48167800453515	41.71387755102041	75	127
41.60938775510204	41.81836734693878	76	127
41.72548752834467	41.81836734693878	75	127
41.81836734693878	41.94607709750567	66	127
41.94607709750567	42.22471655328798	75	127
42.08539682539683	42.3756462585034	76	127
42.236326530612246	42.3756462585034	75	127
42.387256235827664	42.52657596371882	66	127
42.53818594104308	42.64267573696145	64	127
42.64267573696145	42.770385487528344	66	127
42.770385487528344	42.886485260770975	64	127
42.886485260770975	43.002585034013606	66	127
43.01419501133787	43.1302947845805	68	127
43.1302947845805	43.25800453514739	71	127
43.25800453514739	43.36249433106576	64	127
43.36249433106576	43.46698412698413	66	127
43.47859410430839	43.571451247165534	68	127
43.571451247165534	43.69916099773243	71	127
43.69916099773243	43.82687074829932	64	127
43.82687074829932	43.94299319727891	66	127
43.954580498866214	44.0707029478458	68	127
44.08229024943311	44.198412698412696	69	127
44.198412698412696	44.302902494331065	68	127
44.302902494331065	44.38417233560091	69	127
44.39578231292517	44.5118820861678	71	127
44.523492063492064	44.639591836734695	76	127
44.639591836734695	44.77891156462585	68	127
44.77891156462585	44.89501133786848	69	127
44.906621315192744	44.98789115646259	71	127
44.99950113378685	45.09235827664399	76	127
45.09235827664399	45.220068027210885	68	127
45.220068027210885	45.34777777777778	69	127
45.34777777777778	45.47548752834467	71	127
45.4871201814059	45.58	73	127
45.58	45.70770975056689	71	127
45.70770975056689	45.835419501133785	73	127
45.835419501133785	45.91668934240363	74	127
45.92829931972789	46.04439909297052	80	127
46.056009070294785	46.172108843537416	71	127
46.172108843537416	46.29981859410431	73	127
46.29981859410431	46.392698412698415	74	127
46.40430839002268	46.508798185941046	80	127
46.52040816326531	46.62487528344671	71	127
46.62487528344671	46.752585034013606	73	127
46.752585034013606	46.85709750566893	74	127
46.86868480725624	46.984807256235825	83	127
46.99639455782313	47.11251700680272	80	127
47.11251700680272	47.24022675736961	76	127
47.24022675736961	47.35632653061224	74	127
47.35632653061224	47.44920634920635	71	127
47.46081632653061	47.56530612244898	68	127
47.57691609977324	47.634965986394555	64	127
47.634965986394555	47.76267573696145	62	127
47.76267573696145	47.87877551020408	61	127
47.89038548752834	48.018095238095235	62	127
48.029705215419504	48.1574149659864	59	127
48.1574149659864	48.27351473922902	61	127
48.27351473922902	48.38961451247165	63	127
48.38961451247165	48.505714285714284	61	127
48.517324263038546	48.621814058956915	63	127
48.621814058956915	48.737913832199546	65	127
48.737913832199546	48.85401360544218	68	127
48.86562358276644	48.97011337868481	61	127
48.98172335600907	49.08621315192744	63	127
49.08621315192744	49.21392290249433	65	127
49.21392290249433	49.341632653061225	68	127
49.341632653061225	49.43451247165533	61	127
49.446122448979594	49.53900226757369	63	127
49.55061224489796	49.655102040816324	65	127
49.655102040816324	49.75959183673469	66	127
49.75959183673469	49.87569160997732	65	127
49.887301587301586	49.991791383219955	66	127
50.00340136054422	50.14272108843537	68	127
50.14272108843537	50.270430839002266	73	127
50.270430839002266	50.36331065759637	65	127
50.374920634920635	50.46780045351474	66	127
50.479410430839	50.595510204081634	68	127
50.595510204081634	50.72321995464853	73	127
50.72321995464853	50.83931972789116	65	127
50.83931972789116	50.94380952380953	66	127
50.95541950113379	51.05990929705215	68	127
51.07151927437642	51.17600907029478	69	127
51.17600907029478	51.28049886621315	68	127
51.28049886621315	51.408208616780044	69	127
51.408208616780044	51.524308390022675	71	127
51.53591836734694	51.66362811791383	77	127
51.66362811791383	51.77972789115646	68	127
51.77972789115646	51.87260770975057	69	127
51.88421768707483	51.9887074829932	71	127
52.00031746031746	52.11641723356009	77	127
52.11641723356009	52.23251700680272	68	127
52.23251700680272	52.33700680272109	69	127
52.348616780045354	52.464716553287985	71	127
52.47632653061225	52.59242630385488	80	127
52.59242630385488	52.7085260770975	77	127
52.7085260770975	52.836235827664396	73	127
52.836235827664396	52.95233560090703	83	127
52.96394557823129	53.08004535147392	80	127
53.09165532879818	53.207755102040814	81	127
53.207755102040814	53.34707482993197	78	127
53.34707482993197	53.45156462585034	77	127
53.4631746031746	53.56766439909297	80	127
53.57927437641723	53.67215419501134	73	127
53.67215419501134	53.776643990929706	71	127
53.776643990929706	53.86952380952381	69	127
53.881133786848075	53.985623582766436	73	127
53.997233560090706	54.11333333333334	69	127
54.11333333333334	54.2178231292517	66	127
54.2178231292517	54.34553287981859	78	127
54.34553287981859	54.46163265306122	75	127
54.473242630385485	54.55451247165533	76	127
54.56612244897959	54.68222222222222	73	127
54.68222222222222	54.79832199546485	72	127
54.79832199546485	54.90281179138322	75	127
54.90281179138322	55.01891156462585	68	127
55.030521541950115	55.146621315192746	66	127
55.146621315192746	55.27433106575964	64	127
55.27433106575964	55.39043083900227	68	127
55.40204081632653	55.518140589569164	64	127
55.529750566893426	55.61102040816326	61	127
55.61102040816326	55.71551020408163	64	127
55.71551020408163	55.83160997732426	68	127
55.843219954648525	55.959319727891156	73	127
55.97092970521542	56.08702947845805	68	127
56.08702947845805	56.179909297052156	76	127
56.179909297052156	56.29600907029479	73	127
56.29600907029479	56.41210884353742	80	127
56.42371882086168	56.53981859410431	73	127
56.55142857142857	56.65591836734694	72	127
56.65591836734694	56.74879818594104	75	127
56.74879818594104	56.86489795918367	72	127
56.876507936507934	56.93455782312925	68	127
56.946167800453516	57.06226757369615	80	127
57.06226757369615	57.2015873015873	79	127
57.2015873015873	57.329297052154196	80	127
57.34090702947846	57.480226757369614	79	127
57.50344671201814	57.60793650793651	80	127
57.60793650793651	57.72403628117914	75	127
57.72403628117914	57.816916099773245	76	127
57.816916099773245	57.933015873015876	73	127
57.94462585034014	58.03750566893424	72	127
58.04911564625851	58.15360544217687	75	127
58.15360544217687	58.25809523809524	72	127
58.25809523809524	58.32775510204082	68	127
58.33936507936508	58.45546485260771	78	127
58.467074829931974	58.583174603174605	77	127
58.583174603174605	58.7108843537415	78	127
58.7108843537415	58.82698412698413	77	127
58.83859410430839	58.93147392290249	78	127
58.94308390022676	59.059183673469384	75	127
59.059183673469384	59.15206349206349	76	127
59.15206349206349	59.26816326530612	73	127
59.279773242630384	59.40748299319728	72	127
59.41909297052154	59.52358276643991	75	127
59.52358276643991	59.6512925170068	72	127
59.6512925170068	59.779002267573695	68	127
59.779002267573695	59.895102040816326	69	127
59.90671201814059	60.01120181405896	68	127
60.02281179138322	60.13891156462585	69	127
60.13891156462585	60.24340136054422	68	127
60.24340136054422	60.35950113378685	69	127
60.37111111111111	60.48721088435374	63	127
60.498820861678006	60.61492063492064	64	127
60.61492063492064	60.74263038548753	61	127
60.74263038548753	60.87034013605442	60	127
60.881950113378686	60.97482993197279	66	127
60.986439909297054	61.09092970521542	61	127
61.09092970521542	61.23024943310658	66	127
61.23024943310658	61.35795918367347	63	127
61.35795918367347	61.462448979591834	66	127
61.4740589569161	61.5669387755102	61	127
61.578548752834465	61.694648526077096	66	127
61.694648526077096	61.7875283446712	60	127
61.7875283446712	61.85718820861678	66	127
61.868798185941046	62.0081179138322	63	127
62.019727891156464	62.14743764172336	66	127
62.15904761904762	62.27514739229025	56	127
62.27514739229025	62.414467120181406	66	127
62.414467120181406	62.518956916099775	75	127
62.53056689342404	62.635056689342406	66	127
62.64666666666667	62.75115646258504	72	127
62.75115646258504	62.89047619047619	66	127
62.89047619047619	63.006575963718824	75	127
63.018185941043086	63.13428571428572	66	127
63.14589569160998	63.26199546485261	72	127
63.26199546485261	63.35487528344671	66	127
63.35487528344671	63.47097505668934	75	127
63.47097505668934	63.58707482993197	66	127
63.598684807256234	63.73800453514739	56	127
63.74961451247165	63.86571428571428	64	127
63.86571428571428	63.993424036281176	73	127
63.993424036281176	64.10952380952381	64	127
64.12113378684808	64.24884353741497	76	127
64.26045351473923	64.37655328798186	64	127
64.37655328798186	64.48104308390023	73	127
64.48104308390023	64.5855328798186	64	127
64.59714285714286	64.7132426303855	76	127
64.72485260770975	64.84095238095239	64	127
64.84095238095239	64.95705215419501	73	127
64.95705215419501	65.07312925170068	64	127
65.07312925170068	65.18925170068027	56	127
65.20083900226757	65.3053514739229	66	127
65.3053514739229	65.43306122448979	75	127
65.43306122448979	65.57238095238095	66	127
65.57238095238095	65.67687074829932	72	127
65.68845804988662	65.80458049886622	66	127
65.81616780045351	65.9438775510204	75	127
65.9438775510204	66.0715873015873	66	127
66.0715873015873	66.1877097505669	72	127
66.1992970521542	66.32700680272109	66	127
66.33863945578231	66.44312925170068	75	127
66.44312925170068	66.57083900226758	66	127
66.57083900226758	66.69854875283447	56	127
66.71013605442177	66.8146485260771	64	127
66.82625850340136	66.95396825396826	73	127
66.95396825396826	67.08167800453515	64	127
67.08167800453515	67.23260770975057	76	127
67.23260770975057	67.34868480725623	64	127
67.36031746031746	67.47639455782313	73	127
67.48802721088435	67.60410430839002	64	127
67.60410430839002	67.74344671201814	76	127
67.74344671201814	67.85952380952381	64	127
67.87115646258503	68.0104761904762	73	127
68.02208616780045	68.13818594104309	64	127
68.13818594104309	68.27750566893424	56	127
68.27750566893424	68.4168253968254	67	127
68.42843537414966	68.53292517006803	73	127
68.5445351473923	68.66063492063492	67	127
68.66063492063492	68.78834467120181	76	127
68.78834467120181	68.9160544217687	67	127
68.9160544217687	69.03215419501134	73	127
69.0437641723356	69.13662131519274	67	127
69.13662131519274	69.26433106575963	76	127
69.26433106575963	69.40367346938775	67	127
69.40367346938775	69.53138321995465	73	127
69.54299319727892	69.68231292517007	67	127
69.69392290249434	69.81002267573696	56	127
69.81002267573696	69.93773242630385	67	127
69.93773242630385	70.05383219954649	73	127
70.06544217687075	70.20476190476191	67	127
70.21637188208616	70.3324716553288	76	127
70.3324716553288	70.4601814058957	67	127
70.4601814058957	70.57628117913832	73	127
70.57628117913832	70.68077097505669	67	127
70.69238095238096	70.82009070294785	76	127
70.82009070294785	70.94780045351474	67	127
70.94780045351474	71.06390022675737	73	127
71.06390022675737	71.19160997732426	67	127
71.20321995464853	71.3077097505669	56	127
71.31931972789116	71.4354195011338	68	127
71.4354195011338	71.56312925170069	73	127
71.56312925170069	71.69083900226758	68	127
71.70244897959184	71.8069387755102	75	127
71.81854875283447	71.94625850340137	68	127
71.94625850340137	72.08557823129252	73	127
72.08557823129252	72.22489795918368	68	127
72.22489795918368	72.32938775510205	75	127
72.3409977324263	72.45709750566894	68	127
72.45709750566894	72.59641723356009	73	127
72.59641723356009	72.73573696145125	68	127
72.73573696145125	72.82861678004535	56	127
72.82861678004535	72.94469387755102	66	127
72.94469387755102	73.07240362811791	72	127
73.07240362811791	73.21174603174603	66	127
73.21174603174603	73.3278231292517	75	127
73.33945578231292	73.45553287981859	66	127
73.46716553287982	73.57165532879819	72	127
73.57165532879819	73.68773242630385	66	127
73.68773242630385	73.81544217687075	75	127
73.82707482993197	73.93156462585034	66	127
73.94315192743764	74.07086167800453	72	127
74.07086167800453	74.22181405895692	66	127
74.22181405895692	74.36113378684807	61	127
74.36113378684807	74.48884353741497	73	127
74.50045351473923	74.61655328798186	71	127
74.62816326530613	74.74426303854875	69	127
74.74426303854875	74.88358276643991	68	127
74.88358276643991	75.01129251700681	73	127
75.01129251700681	75.11578231292518	68	127
75.12739229024943	75.24349206349207	66	127
75.25510204081633	75.37120181405896	64	127
75.37120181405896	75.49891156462586	68	127
75.49891156462586	75.61501133786848	64	127
75.62662131519275	75.74272108843537	63	127
75.75433106575964	75.83560090702947	61	127
75.83560090702947	75.99814058956916	73	127
75.99814058956916	76.10263038548753	68	127
76.11421768707483	76.2187074829932	66	127
76.23034013605442	76.34641723356009	64	127
76.34641723356009	76.46253968253968	68	127
76.46253968253968	76.57863945578231	64	127
76.59024943310658	76.69473922902495	63	127
76.7063492063492	76.81083900226757	61	127
76.81083900226757	76.95015873015873	64	127
76.95015873015873	77.07786848072563	61	127
77.07786848072563	77.1475283446712	59	127
77.15913832199547	77.28684807256236	58	127
77.29845804988662	77.41455782312926	66	127
77.41455782312926	77.54226757369615	73	127
77.54226757369615	77.66997732426304	66	127
77.6815873015873	77.79768707482994	76	127
77.8092970521542	77.92539682539683	66	127
77.92539682539683	78.05310657596372	73	127
78.05310657596372	78.16920634920635	66	127
78.18081632653062	78.29691609977324	76	127
78.30852607709751	78.41301587301588	66	127
78.41301587301588	78.54072562358277	73	127
78.54072562358277	78.6568253968254	66	127
78.6568253968254	78.77290249433106	58	127
78.78453514739229	78.90061224489796	66	127
78.91224489795918	79.02832199546485	76	127
79.02832199546485	79.17927437641724	66	127
79.17927437641724	79.30698412698413	73	127
79.31859410430839	79.42308390022676	66	127
79.43469387755103	79.55079365079365	76	127
79.55079365079365	79.66687074829932	66	127
79.66687074829932	79.79458049886621	73	127
79.80621315192744	79.93392290249433	66	127
79.9455328798186	80.0732426303855	76	127
80.08485260770975	80.22417233560091	66	127
80.22417233560091	80.3518820861678	59	127
80.3518820861678	80.4795918367347	83	127
80.49120181405895	80.60730158730159	82	127
80.64213151927437	80.75823129251701	80	127
80.75823129251701	80.89755102040816	78	127
80.89755102040816	81.03687074829932	83	127
81.03687074829932	81.16458049886621	78	127
81.17616780045351	81.29229024943311	76	127
81.3038775510204	81.36195011337868	75	127
81.36195011337868	81.50126984126985	78	127
81.50126984126985	81.60575963718821	75	127
81.61736961451247	81.71024943310658	73	127
81.72185941043084	81.83795918367348	71	127
81.83795918367348	81.97727891156462	83	127
81.97727891156462	82.09337868480726	78	127
82.10498866213152	82.22108843537416	76	127
82.23269841269841	82.29074829931973	75	127
82.29074829931973	82.43006802721088	78	127
82.43006802721088	82.55777777777777	75	127
82.55777777777777	82.67387755102041	73	127
82.68548752834467	82.8015873015873	71	127
82.8015873015873	82.9292970521542	75	127
82.9292970521542	83.05700680272109	71	127
83.05700680272109	83.17310657596371	69	127
83.18471655328798	83.30081632653061	68	127
83.31242630385488	83.4285260770975	74	127
83.4285260770975	83.5562358276644	76	127
83.5562358276644	83.67233560090703	74	127
83.68394557823129	83.80004535147393	80	127
83.81165532879818	83.91614512471655	74	127
83.91614512471655	84.04385487528344	83	127
84.04385487528344	84.14834467120181	74	127
84.15995464852608	84.2760544217687	80	127
84.28766439909298	84.4037641723356	74	127
84.4037641723356	84.57791383219954	76	127
84.57791383219954	84.70562358276644	74	127
84.70562358276644	84.82172335600907	68	127
84.82172335600907	84.92621315192744	74	127
84.9378231292517	85.05392290249434	76	127
85.05392290249434	85.19324263038548	74	127
85.19324263038548	85.29773242630385	68	127
85.29773242630385	85.40222222222222	74	127
85.41383219954649	85.48349206349206	66	127
85.48349206349206	85.61120181405896	74	127
85.61120181405896	85.71569160997733	68	127
85.72730158730158	85.84340136054422	74	127
85.85501133786848	85.97111111111111	64	127
85.97111111111111	86.098820861678	74	127
86.098820861678	86.2265306122449	73	127
86.2265306122449	86.34263038548752	76	127
86.3542403628118	86.48195011337869	81	127
86.48195011337869	86.6444671201814	80	127
86.6444671201814	86.7954195011338	81	127
86.7954195011338	86.91151927437642	76	127
86.92312925170069	87.03922902494331	74	127
87.05083900226758	87.13208616780045	76	127
87.13208616780045	87.24820861678005	73	127
87.24820861678005	87.36430839002267	76	127
87.37591836734694	87.49201814058956	71	127
87.50362811791383	87.63133786848073	76	127
87.63133786848073	87.75904761904762	69	127
87.75904761904762	87.86353741496599	81	127
87.87514739229024	87.99124716553288	80	127
88.00285714285714	88.11895691609978	78	127
88.11895691609978	88.2350566893424	76	127
88.2350566893424	88.3627664399093	69	127
88.3627664399093	88.46725623582766	78	127
88.47886621315193	88.59496598639456	69	127
88.60657596371883	88.72267573696145	76	127
88.72267573696145	88.86199546485261	69	127
88.86199546485261	88.97809523809524	74	127
88.9897052154195	89.10580498866213	69	127
89.1174149659864	89.23351473922902	73	127
89.23351473922902	89.36122448979592	76	127
89.36122448979592	89.47732426303855	71	127
89.48893424036281	89.6166439909297	76	127
89.62825396825397	89.7443537414966	73	127
89.7443537414966	89.87206349206349	76	127
89.87206349206349	89.99977324263038	74	127
89.99977324263038	90.12748299319728	76	127
90.13909297052155	90.2784126984127	73	127
90.2784126984127	90.40612244897959	76	127
90.40612244897959	90.51061224489796	71	127
90.51061224489796	90.61510204081632	76	127
90.6267120181406	90.7195918367347	69	127
90.73120181405896	90.84730158730159	81	127
90.84730158730159	90.98662131519275	80	127
90.98662131519275	91.14916099773242	78	127
91.16077097505669	91.31170068027211	76	127
91.32328798185941	91.439410430839	69	127
91.439410430839	91.5671201814059	78	127
91.5671201814059	91.66	69	127
91.67160997732427	91.79931972789116	76	127
91.81092970521541	91.93863945578231	69	127
91.93863945578231	92.08954648526077	74	127
92.08954648526077	92.20566893424036	69	127
92.20566893424036	92.34496598639456	73	127
92.34496598639456	92.57718820861678	69	127
92.47267573696145	92.70489795918367	69	127
92.58879818594104	92.83260770975056	69	127
92.70489795918367	92.93709750566893	68	127
92.83260770975056	93.06480725623582	69	127
92.9487074829932	93.20412698412699	69	127
93.0764172335601	93.33183673469388	69	127
93.20412698412699	93.43632653061225	71	127
93.33183673469388	93.52920634920635	69	127
93.4479365079365	93.65691609977324	68	127
93.54081632653062	93.74977324263038	69	127
93.65691609977324	93.86589569160998	69	127
93.74977324263038	94.00519274376417	69	127
93.8891156462585	94.12131519274377	73	127
94.0168253968254	94.27224489795918	69	127
94.12131519274377	94.39995464852608	71	127
94.27224489795918	94.51603174603174	69	127
94.39995464852608	94.64376417233561	73	127
94.52766439909297	94.7714739229025	69	127
94.65537414965986	94.88757369614513	74	127
94.7714739229025	95.00365079365079	69	127
94.88757369614513	95.13138321995464	71	127
95.01528344671202	95.24748299319728	69	127
95.13138321995464	95.37519274376417	73	127
95.24748299319728	95.4912925170068	69	127
95.37519274376417	95.61900226757369	69	127
95.50290249433107	95.73510204081633	69	127
95.63061224489796	95.82798185941043	68	127
95.73510204081633	95.95569160997732	69	127
95.82798185941043	96.06018140589569	69	127
95.95569160997732	96.17628117913833	69	127
96.07179138321996	96.30399092970522	71	127
96.18789115646258	96.42009070294785	69	127
96.30399092970522	96.53619047619047	68	127
96.42009070294785	96.66390022675736	69	127
96.54780045351474	96.78	69	127
96.67551020408163	96.91931972789115	69	127
96.78	97.03541950113379	73	127
96.91931972789115	97.1863492063492	69	127
97.04702947845804	97.3140589569161	71	127
97.19795918367348	97.44176870748299	69	127
97.3140589569161	97.55786848072562	73	127
97.44176870748299	97.70879818594105	69	127
97.56947845804989	97.83650793650794	74	127
97.7204081632653	97.96421768707484	69	127
97.83650793650794	98.09192743764173	71	127
97.96421768707484	98.24285714285715	69	127
98.09192743764173	98.37056689342404	73	127
98.2544671201814	98.52149659863946	69	127
98.39378684807257	98.52149659863946	73	127
98.52149659863946	98.66081632653061	69	127
98.66081632653061	98.9162358276644	73	127
98.7885260770975	99.04394557823129	69	127
98.92784580498866	99.04394557823129	73	127
99.04394557823129	99.18326530612245	69	127
99.18326530612245	99.41546485260771	73	127
99.31097505668934	99.5431746031746	69	127
99.42707482993197	99.5431746031746	73	127
99.5431746031746	99.6708843537415	69	127
99.6708843537415	99.90308390022676	73	127
99.79859410430839	100.01918367346939	69	127
99.90308390022676	100.01918367346939	73	127
100.03079365079365	100.14689342403628	68	127
100.14689342403628	100.35587301587302	73	127
100.26299319727892	100.48358276643991	69	127
100.36748299319729	100.48358276643991	73	127
100.49519274376418	100.6112925170068	68	127
100.6112925170068	100.84349206349206	73	127
100.75061224489797	100.95959183673469	69	127
100.85510204081632	100.95959183673469	73	127
100.97120181405896	101.06408163265306	68	127
101.06408163265306	101.30789115646259	73	127
101.19179138321995	101.42399092970521	69	127
101.31950113378684	101.42399092970521	73	127
101.43560090702948	101.5517006802721	67	127
101.5517006802721	101.79551020408164	73	127
101.679410430839	101.9	69	127
101.79551020408164	101.9	73	127
101.91160997732426	102.03931972789115	67	127
102.05092970521542	102.30634920634921	73	127
102.17863945578232	102.42244897959183	69	127
102.30634920634921	102.42244897959183	73	127
102.4340589569161	102.55015873015873	67	127
102.561768707483	102.80557823129251	74	127
102.67786848072562	102.91006802721088	69	127
102.80557823129251	102.91006802721088	74	127
102.92167800453515	103.02616780045352	66	127
103.03777777777778	103.26997732426304	74	127
103.14226757369615	103.4092970521542	69	127
103.26997732426304	103.4092970521542	74	127
103.4092970521542	103.52539682539683	66	127
103.5370068027211	103.79242630385488	74	127
103.67632653061224	103.92013605442177	69	127
103.79242630385488	103.92013605442177	74	127
103.92013605442177	104.0362358276644	66	127
104.04784580498867	104.29165532879819	74	127
104.17555555555556	104.41936507936508	69	127
104.29165532879819	104.41936507936508	74	127
104.41936507936508	104.5354648526077	64	127
104.54707482993197	104.80249433106576	74	127
104.68639455782314	104.90698412698413	69	127
104.80249433106576	104.90698412698413	74	127
104.90698412698413	105.02308390022675	64	127
105.03469387755102	105.26689342403628	74	127
105.15079365079364	105.37138321995465	69	127
105.26689342403628	105.37138321995465	74	127
105.37138321995465	105.49909297052154	64	127
105.49909297052154	105.7312925170068	73	127
105.62680272108844	105.8590022675737	69	127
105.74290249433106	105.8590022675737	73	127
105.8590022675737	105.97510204081632	64	127
105.97510204081632	106.23052154195011	73	127
106.10281179138322	106.33501133786848	69	127
106.24213151927438	106.33501133786848	73	127
106.33501133786848	106.46272108843537	64	127
106.46272108843537	106.7065306122449	73	127
106.57882086167801	106.81102040816326	69	127
106.71814058956916	106.81102040816326	73	127
106.81102040816326	106.93873015873015	64	127
106.93873015873015	107.22897959183673	73	127
107.11287981859411	107.41473922902495	69	127
107.28702947845805	107.41473922902495	73	127
107.4263492063492	107.54244897959184	62	127
107.54244897959184	107.78625850340136	73	127
107.67015873015873	107.91396825396825	69	127
107.79786848072563	107.91396825396825	73	127
107.92557823129252	108.04167800453514	62	127
108.04167800453514	108.26226757369615	73	127
108.14616780045351	108.38997732426304	69	127
108.2738775510204	108.38997732426304	73	127
108.4015873015873	108.51768707482994	62	127
108.51768707482994	108.73827664399093	71	127
108.65700680272109	108.85437641723357	69	127
108.7498866213152	108.85437641723357	71	127
108.86598639455782	108.97047619047619	62	127
108.97047619047619	109.22589569160998	71	127
109.09818594104308	109.33038548752835	69	127
109.22589569160998	109.33038548752835	71	127
109.3419954648526	109.4697052154195	62	127
109.48131519274376	109.6902947845805	71	127
109.58580498866213	109.7831746031746	69	127
109.6902947845805	109.7831746031746	71	127
109.79478458049887	109.93410430839002	62	127
109.94571428571429	110.21274376417233	71	127
110.06181405895691	110.32884353741497	69	127
110.21274376417233	110.32884353741497	71	127
110.34045351473922	110.44494331065759	61	127
110.45655328798186	110.70036281179138	71	127
110.57265306122449	110.82807256235827	69	127
110.70036281179138	110.82807256235827	71	127
110.82807256235827	110.94417233560091	61	127
110.95578231292517	111.1995918367347	71	127
111.0718820861678	111.31569160997732	69	127
111.1995918367347	111.31569160997732	71	127
111.31569160997732	111.43179138321996	61	127
111.44340136054421	111.68721088435375	69	127
111.57111111111111	111.80331065759637	69	127
111.68721088435375	111.80331065759637	69	127
111.80331065759637	111.91941043083901	61	127
111.93102040816326	112.19804988662132	69	127
112.07034013605443	112.32575963718821	69	127
112.19804988662132	112.32575963718821	69	127
112.32575963718821	112.44185941043084	61	127
112.4534693877551	112.66244897959184	69	127
112.55795918367347	112.77854875283447	69	127
112.66244897959184	112.77854875283447	69	127
112.77854875283447	112.90625850340136	61	127
112.90625850340136	113.15006802721088	69	127
113.04557823129252	113.24294784580499	69	127
113.16167800453515	113.24294784580499	69	127
113.24294784580499	113.35904761904762	59	127
113.35904761904762	113.60285714285715	69	127
113.48675736961451	113.68412698412699	69	127
113.60285714285715	113.68412698412699	69	127
113.68412698412699	113.82344671201814	59	127
113.82344671201814	114.03242630385488	69	127
113.92793650793651	114.17174603174603	69	127
114.04403628117913	114.17174603174603	69	127
114.17174603174603	114.29945578231292	59	127
114.29945578231292	114.5548752834467	68	127
114.42716553287981	114.6825850340136	69	127
114.56648526077097	114.6825850340136	68	127
114.70580498866214	114.84512471655329	59	127
114.84512471655329	115.11215419501134	68	127
114.98444444444445	115.23986394557824	69	127
115.11215419501134	115.23986394557824	68	127
115.23986394557824	115.36757369614513	59	127
115.36757369614513	115.68104308390022	68	127
115.50689342403628	115.83197278911565	69	127
115.69265306122449	115.83197278911565	68	127
115.84358276643991	116.04095238095238	59	127
116.0641723356009	116.20349206349206	57	127
116.20349206349206	116.35442176870748	59	127
116.35442176870748	116.49374149659864	57	127
116.49374149659864	116.60984126984127	59	127
116.62145124716554	116.73755102040816	61	127
116.74916099773243	116.86526077097506	64	127
116.86526077097506	116.99297052154195	57	127
116.99297052154195	117.09746031746032	59	127
117.09746031746032	117.21356009070294	61	127
117.22517006802721	117.34126984126983	64	127
117.34126984126983	117.45736961451247	57	127
117.45736961451247	117.5734693877551	59	127
117.5734693877551	117.65473922902494	61	127
117.66634920634921	117.7940589569161	62	127
117.80566893424036	117.921768707483	61	127
117.921768707483	118.06108843537415	62	127
118.06108843537415	118.17718820861678	64	127
118.18879818594104	118.30489795918368	69	127
118.31650793650793	118.4209977324263	61	127
118.4209977324263	118.5487074829932	62	127
118.5487074829932	118.65319727891156	64	127
118.66480725623583	118.78090702947846	69	127
118.79251700680273	118.87378684807257	61	127
118.87378684807257	119.00149659863946	62	127
119.00149659863946	119.12920634920636	64	127
119.12920634920636	119.24530612244898	66	127
119.25691609977325	119.3614058956916	64	127
119.37301587301587	119.47750566893424	66	127
119.47750566893424	119.59360544217687	67	127
119.59360544217687	119.7097052154195	73	127
119.72131519274376	119.82580498866213	64	127
119.8374149659864	119.9302947845805	66	127
119.9302947845805	120.05800453514739	67	127
120.05800453514739	120.17410430839003	73	127
120.18571428571428	120.30181405895692	64	127
120.31342403628118	120.41791383219955	66	127
120.41791383219955	120.54562358276644	67	127
120.54562358276644	120.6849433106576	76	127
120.6849433106576	120.80104308390023	73	127
120.8126530612245	120.92875283446712	74	127
120.92875283446712	121.04485260770976	76	127
121.04485260770976	121.12612244897959	73	127
121.12612244897959	121.2190022675737	70	127
121.23061224489796	121.35832199546485	71	127
121.36993197278912	121.49764172335601	73	127
121.49764172335601	121.63696145124716	70	127
121.63696145124716	121.76467120181405	66	127
121.77628117913832	121.90399092970522	64	127
121.90399092970522	122.03170068027211	62	127
122.03170068027211	122.17102040816326	61	127
122.17102040816326	122.2871201814059	59	127
122.29873015873015	122.41482993197279	61	127
122.42643990929706	122.54253968253968	62	127
122.54253968253968	122.67024943310658	66	127
122.67024943310658	122.77473922902495	59	127
122.77473922902495	122.87922902494331	61	127
122.89083900226757	123.01854875283446	62	127
123.03015873015873	123.1346485260771	66	127
123.1346485260771	123.25074829931972	59	127
123.25074829931972	123.33201814058957	61	127
123.34362811791384	123.45972789115646	62	127
123.47133786848073	123.58743764172335	64	127
123.58743764172335	123.703537414966	62	127
123.703537414966	123.79641723356009	64	127
123.80802721088435	123.88929705215419	66	127
123.90090702947846	124.02861678004535	71	127
124.02861678004535	124.14471655328798	62	127
124.14471655328798	124.27242630385487	64	127
124.27242630385487	124.38852607709751	66	127
124.40013605442176	124.5162358276644	71	127
124.5162358276644	124.6439455782313	62	127
124.6439455782313	124.76004535147392	64	127
124.76004535147392	124.85292517006803	66	127
124.86453514739229	124.98063492063493	68	127
124.99224489795918	125.10834467120182	66	127
125.10834467120182	125.20122448979592	68	127
125.20122448979592	125.30571428571429	69	127
125.31732426303854	125.43342403628118	75	127
125.44503401360544	125.56113378684807	66	127
125.56113378684807	125.65401360544217	68	127
125.65401360544217	125.75850340136054	69	127
125.77011337868481	125.88621315192744	75	127
125.8978231292517	125.9907029478458	66	127
125.9907029478458	126.0835827664399	68	127
126.0835827664399	126.2112925170068	69	127
126.2112925170068	126.33900226757369	78	127
126.35061224489796	126.46671201814058	75	127
126.47832199546485	126.58281179138322	76	127
126.58281179138322	126.71052154195011	78	127
126.71052154195011	126.80340136054421	75	127
126.81501133786848	126.91950113378685	72	127
126.93111111111111	127.02399092970522	73	127
127.02399092970522	127.15170068027211	75	127
127.15170068027211	127.25619047619048	72	127
127.26780045351474	127.38390022675738	68	127
127.39551020408163	127.51160997732427	66	127
127.51160997732427	127.61609977324262	65	127
127.61609977324262	127.74380952380952	83	127
127.74380952380952	127.85990929705216	80	127
127.87151927437641	127.97600907029478	81	127
127.97600907029478	128.10371882086167	83	127
128.10371882086167	128.23142857142858	80	127
128.23142857142858	128.33591836734695	77	127
128.34750566893425	128.46362811791383	78	127
128.46362811791383	128.5681179138322	80	127
128.5681179138322	128.6958276643991	77	127
128.6958276643991	128.80031746031747	73	127
128.8119274376417	128.91641723356008	71	127
128.92802721088435	129.02090702947845	69	127
129.02090702947845	129.1137641723356	85	127
129.1137641723356	129.2298866213152	81	127
129.24149659863946	129.3575963718821	83	127
129.3691836734694	129.48530612244897	85	127
129.48530612244897	129.61301587301588	81	127
129.61301587301588	129.74072562358276	78	127
129.74072562358276	129.84521541950113	80	127
129.8568253968254	129.98451247165534	81	127
129.99614512471655	130.12385487528346	78	127
130.12385487528346	130.22834467120182	74	127
130.22834467120182	130.32122448979592	73	127
130.3328344671202	130.43732426303856	71	127
130.4489342403628	130.56503401360544	86	127
130.56503401360544	130.69274376417235	83	127
130.69274376417235	130.80884353741496	85	127
130.82045351473923	130.93655328798187	86	127
130.94816326530614	131.06426303854875	83	127
131.06426303854875	131.19197278911565	80	127
131.19197278911565	131.3080725623583	81	127
131.3080725623583	131.4241723356009	83	127
131.43578231292517	131.50544217687076	80	127
131.50544217687076	131.63315192743764	77	127
131.63315192743764	131.8073015873016	80	127
131.8073015873016	131.92337868480726	73	127
131.93501133786847	132.03950113378684	75	127
132.0511111111111	132.16721088435375	73	127
132.16721088435375	132.26009070294785	75	127
132.26009070294785	132.3761904761905	77	127
132.38777777777779	132.5271201814059	80	127
132.5387074829932	132.65482993197278	73	127
132.65482993197278	132.73609977324264	75	127
132.73609977324264	132.840589569161	77	127
132.85219954648525	132.95668934240362	80	127
132.9682993197279	133.07278911564626	73	127
133.07278911564626	133.2121088435374	75	127
133.2121088435374	133.32820861678005	77	127
133.32820861678005	133.44430839002268	78	127
133.45589569160998	133.57201814058956	77	127
133.58362811791383	133.6881179138322	78	127
133.6881179138322	133.81580498866214	80	127
133.81580498866214	133.93192743764172	83	127
133.943537414966	134.05963718820863	77	127
134.07122448979592	134.1757142857143	78	127
134.1757142857143	134.29183673469387	80	127
134.29183673469387	134.41954648526078	83	127
134.43113378684808	134.54725623582766	77	127
134.55886621315193	134.67496598639457	78	127
134.67496598639457	134.77945578231294	80	127
134.77945578231294	134.90716553287982	81	127
134.90716553287982	135.00004535147391	80	127
135.01165532879818	135.11614512471655	81	127
135.11614512471655	135.2554648526077	83	127
135.2554648526077	135.39478458049888	86	127
135.39478458049888	135.5108843537415	80	127
135.52249433106576	135.62698412698413	81	127
135.6385941043084	135.75469387755103	83	127
135.75469387755103	135.87079365079364	86	127
135.87079365079364	135.9636507936508	80	127
135.975283446712	136.09138321995465	81	127
136.10299319727892	136.2074829931973	83	127
136.2074829931973	136.33519274376417	86	127
136.33519274376417	136.4512925170068	83	127
136.46290249433108	136.56739229024944	80	127
136.57897959183674	136.68349206349205	77	127
136.68349206349205	136.81120181405896	83	127
136.81120181405896	136.93891156462584	80	127
136.93891156462584	137.05501133786848	77	127
137.06662131519275	137.13625850340136	73	127
137.13625850340136	137.24074829931973	83	127
137.24074829931973	137.36848072562358	81	127
137.36848072562358	137.47297052154195	80	127
137.48458049886622	137.6006575963719	78	127
137.6122902494331	137.72839002267574	80	127
137.72839002267574	137.85607709750568	81	127
137.85607709750568	137.97219954648526	78	127
137.98380952380953	138.12312925170068	71	127
138.13473922902494	138.25083900226758	81	127
138.25083900226758	138.37854875283446	80	127
138.37854875283446	138.50625850340137	78	127
138.50625850340137	138.61074829931974	73	127
138.62233560090704	138.73845804988662	80	127
138.73845804988662	138.87775510204082	78	127
138.87775510204082	139.00548752834467	77	127
139.00548752834467	139.1215873015873	74	127
139.1331746031746	139.26090702947846	76	127
139.27251700680273	139.3885941043084	78	127
139.3885941043084	139.50471655328798	74	127
139.50471655328798	139.62081632653062	68	127
139.63242630385488	139.73691609977325	78	127
139.74850340136055	139.86462585034013	76	127
139.86462585034013	139.99233560090704	74	127
139.99233560090704	140.10843537414965	70	127
140.12004535147392	140.23614512471656	76	127
140.24775510204083	140.3522448979592	74	127
140.3522448979592	140.47995464852607	73	127
140.47995464852607	140.60766439909298	71	127
140.60766439909298	140.7237641723356	73	127
140.73537414965986	140.83986394557823	74	127
140.8514739229025	140.93274376417233	71	127
140.93274376417233	141.06045351473924	65	127
141.06045351473924	141.1649433106576	74	127
141.1765306122449	141.28102040816327	73	127
141.29265306122448	141.40875283446712	71	127
141.40875283446712	141.54807256235827	66	127
141.54807256235827	141.65256235827664	73	127
141.6641723356009	141.78027210884355	71	127
141.78027210884355	141.89637188208616	69	127
141.89637188208616	142.00086167800453	68	127
142.00086167800453	142.09374149659865	69	127
142.09374149659865	142.19820861678005	71	127
142.20984126984126	142.31433106575963	69	127
142.31433106575963	142.44204081632654	68	127
142.44204081632654	142.56975056689342	71	127
142.56975056689342	142.69746031746033	69	127
142.70904761904762	142.83678004535147	71	127
142.84839002267574	142.9528798185941	68	127
142.9528798185941	143.0457596371882	71	127
143.0457596371882	143.16185941043085	66	127
143.17344671201815	143.28956916099773	71	127
143.301179138322	143.40566893424037	65	127
143.40566893424037	143.53337868480725	66	127
143.53337868480725	143.63786848072561	68	127
143.64947845804988	143.76557823129252	69	127
143.7771882086168	143.90489795918367	71	127
143.90489795918367	144.00938775510204	65	127
144.00938775510204	144.13709750566895	74	127
144.13709750566895	144.25319727891156	65	127
144.26480725623583	144.3692970521542	73	127
144.38090702947846	144.49698412698413	65	127
144.49698412698413	144.62471655328798	71	127
144.62471655328798	144.74081632653062	65	127
144.74081632653062	144.8568934240363	66	127
144.8685260770975	144.96138321995466	69	127
144.96138321995466	145.06589569160997	66	127
145.06589569160997	145.17038548752834	61	127
145.1819954648526	145.29809523809524	57	127
145.3097052154195	145.41419501133788	61	127
145.41419501133788	145.55351473922903	66	127
145.55351473922903	145.6812244897959	61	127
145.6812244897959	145.8205442176871	69	127
145.83213151927438	145.94825396825397	61	127
145.94825396825397	146.0643537414966	66	127
146.0643537414966	146.18045351473924	61	127
146.18045351473924	146.27333333333334	65	127
146.2849433106576	146.389410430839	68	127
146.40104308390022	146.51714285714286	65	127
146.51714285714286	146.6448299319728	61	127
146.6448299319728	146.77256235827664	65	127
146.7841723356009	146.9118820861678	68	127
146.92349206349206	147.0395918367347	73	127
147.0395918367347	147.14408163265307	68	127
147.14408163265307	147.26015873015874	77	127
147.27179138321995	147.3878911564626	73	127
147.39950113378686	147.51557823129252	80	127
147.51557823129252	147.6317006802721	71	127
147.6317006802721	147.759410430839	69	127
147.759410430839	147.87548752834468	73	127
147.8871201814059	147.98	69	127
147.99160997732426	148.1077097505669	66	127
148.1077097505669	148.22380952380954	69	127
148.22380952380954	148.33990929705215	73	127
148.35151927437641	148.46761904761905	78	127
148.47922902494332	148.53725623582767	73	127
148.53725623582767	148.65337868480725	81	127
148.65337868480725	148.78108843537416	78	127
148.79267573696146	148.9204081632653	85	127
148.93201814058958	149.04809523809524	78	127
149.04809523809524	149.16421768707482	77	127
149.16421768707482	149.25707482993198	80	127
149.2687074829932	149.38480725623583	77	127
149.3964172335601	149.44285714285715	73	127
149.44285714285715	149.53573696145125	85	127
149.53573696145125	149.6750566893424	84	127
149.6750566893424	149.77954648526077	85	127
149.79115646258504	149.91884353741497	84	127
149.93047619047618	150.1162358276644	85	127
150.1162358276644	150.23233560090702	80	127
150.23233560090702	150.34843537414966	81	127
150.36004535147393	150.47614512471657	78	127
150.4877551020408	150.59224489795918	77	127
150.59224489795918	150.70834467120181	80	127
150.70834467120181	150.82444444444445	77	127
150.83603174603175	150.88249433106577	73	127
150.89410430839	150.99859410430838	83	127
150.99859410430838	151.1263038548753	82	127
151.1263038548753	151.25401360544217	83	127
151.25401360544217	151.4049433106576	82	127
151.41655328798186	151.54426303854876	83	127
151.55585034013606	151.67197278911564	80	127
151.67197278911564	151.78807256235828	81	127
151.78807256235828	151.90417233560092	78	127
151.91578231292516	152.02027210884353	77	127
152.0318820861678	152.14798185941044	80	127
152.14798185941044	152.27569160997732	77	127
152.27569160997732	152.32210884353742	73	127
152.33374149659863	152.44984126984127	74	127
152.46145124716554	152.5659410430839	73	127
152.5659410430839	152.68201814058958	74	127
152.68201814058958	152.8213605442177	73	127
152.832947845805	152.93743764172336	74	127
152.94907029478458	153.05356009070294	68	127
153.05356009070294	153.21609977324263	69	127
153.21609977324263	153.34378684807257	66	127
153.34378684807257	153.45990929705215	65	127
153.47151927437642	153.541179138322	68	127
153.55278911564625	153.6688888888889	73	127
153.6688888888889	153.7965986394558	83	127
153.7965986394558	153.9475283446712	83	127
153.9591156462585	154.0752380952381	80	127
154.08684807256236	154.19133786848073	81	127
154.19133786848073	154.3190476190476	78	127
154.3190476190476	154.41192743764174	77	127
154.42353741496598	154.52802721088435	80	127
154.53963718820862	154.63251700680271	73	127
154.63251700680271	154.76022675736962	71	127
154.76022675736962	154.8763038548753	69	127
154.8763038548753	154.99242630385487	73	127
155.00403628117914	155.12013605442178	78	127
155.13172335600908	155.25945578231293	85	127
155.25945578231293	155.38714285714286	85	127
155.38714285714286	155.50326530612244	81	127
155.5148752834467	155.63097505668935	83	127
155.64256235827665	155.7702947845805	80	127
155.7702947845805	155.89798185941044	78	127
155.89798185941044	156.0257142857143	81	127
156.03732426303856	156.15340136054422	74	127
156.16503401360544	156.28113378684807	73	127
156.28113378684807	156.38562358276644	71	127
156.38562358276644	156.50172335600908	74	127
156.50172335600908	156.60621315192745	67	127
156.61780045351475	156.72231292517006	66	127
156.72231292517006	156.85002267573697	65	127
156.85002267573697	156.9661224489796	68	127
156.9661224489796	157.0822222222222	61	127
157.09383219954648	157.2215419501134	59	127
157.23315192743763	157.337641723356	57	127
157.337641723356	157.4653514739229	61	127
157.4653514739229	157.58145124716555	66	127
157.5930612244898	157.70916099773243	68	127
157.7207709750567	157.84848072562357	69	127
157.84848072562357	157.999410430839	66	127
157.999410430839	158.13873015873017	71	127
158.15031746031747	158.27804988662132	66	127
158.2896598639456	158.41736961451247	73	127
158.41736961451247	158.54507936507937	66	127
158.54507936507937	158.6960090702948	74	127
158.6960090702948	158.82371882086167	66	127
158.83532879818594	158.96303854875285	61	127
158.96303854875285	159.11396825396827	66	127
159.11396825396827	159.27648526077098	68	127
159.27648526077098	159.4274149659864	65	127
159.4274149659864	159.70607709750567	66	127
159.71768707482994	159.86861678004536	69	127
159.88022675736963	159.99632653061224	68	127
160.0079365079365	160.14725623582765	69	127
160.14725623582765	160.33301587301588	69	127
160.33301587301588	160.4839455782313	69	127
160.4839455782313	160.8090022675737	68	127
160.82063492063492	160.94834467120182	69	127
160.95993197278912	161.09927437641724	66	127
161.09927437641724	161.26181405895693	69	127
161.26181405895693	161.37791383219954	64	127
161.3895238095238	161.49401360544218	69	127
161.50562358276645	161.61011337868482	63	127
161.61011337868482	161.7378231292517	69	127
161.7378231292517	161.84231292517006	64	127
161.85392290249433	161.99324263038548	69	127
162.00485260770975	162.1209523809524	66	127
162.1209523809524	162.26027210884354	69	127
162.26027210884354	162.3647619047619	68	127
162.37637188208618	162.46925170068027	69	127
162.48086167800454	162.64340136054423	69	127
162.64340136054423	162.78272108843538	69	127
162.78272108843538	162.9336507936508	66	127
162.9336507936508	163.06136054421768	69	127
163.07297052154195	163.17746031746032	68	127
163.18907029478459	163.30517006802722	69	127
163.30517006802722	163.4096598639456	68	127
163.4096598639456	163.49092970521542	66	127
163.5025396825397	163.61861678004536	64	127
163.63024943310657	163.7463492063492	76	127
163.7463492063492	163.87403628117914	75	127
163.87403628117914	163.99015873015873	76	127
164.001768707483	164.10625850340136	73	127
164.11786848072563	164.222358276644	76	127
164.222358276644	164.35006802721088	71	127
164.35006802721088	164.4893650793651	76	127
164.4893650793651	164.60548752834467	70	127
164.61709750566894	164.73319727891158	76	127
164.74478458049887	164.86090702947845	71	127
164.86090702947845	165.00020408163266	76	127
165.00020408163266	165.11632653061224	73	127
165.1279365079365	165.24403628117915	76	127
165.25562358276645	165.36013605442176	75	127
165.36013605442176	165.48784580498867	76	127
165.48784580498867	165.61555555555555	76	127
165.62716553287981	165.74326530612245	76	127
165.75487528344672	165.8593650793651	73	127
165.8593650793651	165.98707482993197	76	127
165.98707482993197	166.05673469387756	75	127
166.06834467120183	166.18444444444444	76	127
166.1960544217687	166.32376417233561	75	127
166.32376417233561	166.46308390022676	73	127
166.46308390022676	166.6024036281179	71	127
166.6024036281179	166.70689342403628	73	127
166.71850340136055	166.81138321995465	75	127
166.82299319727892	166.91587301587302	76	127
166.91587301587302	167.04356009070295	78	127
167.04356009070295	167.15968253968254	80	127
167.1712925170068	167.31061224489795	81	127
167.32222222222222	167.43832199546486	78	127
167.43832199546486	167.56603174603174	83	127
167.56603174603174	167.68213151927438	71	127
167.69374149659865	167.8330612244898	69	127
167.84467120181407	167.96074829931973	71	127
167.96074829931973	168.0768707482993	68	127
168.0768707482993	168.19297052154195	71	127
168.19297052154195	168.3090702947846	66	127
168.3206575963719	168.43678004535147	71	127
168.44839002267574	168.56448979591838	64	127
168.56448979591838	168.69219954648526	71	127
168.69219954648526	168.8082993197279	62	127
168.81990929705216	168.92439909297053	71	127
168.93598639455783	169.04049886621314	61	127
169.04049886621314	169.16820861678005	64	127
169.16820861678005	169.2843083900227	66	127
169.29591836734693	169.41201814058957	68	127
169.42362811791384	169.53972789115647	69	127
169.53972789115647	169.65582766439908	71	127
169.65582766439908	169.77192743764172	73	127
169.783537414966	169.88802721088436	74	127
169.89963718820863	169.99251700680273	76	127
169.99251700680273	170.1202267573696	78	127
170.1202267573696	170.27115646258503	80	127
170.27115646258503	170.38725623582766	76	127
170.39886621315193	170.5962358276644	81	127
170.60784580498867	170.73555555555555	69	127
170.73555555555555	170.86326530612246	68	127
170.86326530612246	171.02580498866214	69	127
171.0374149659864	171.15351473922902	66	127
171.1651247165533	171.29283446712017	69	127
171.29283446712017	171.39732426303854	64	127
171.39732426303854	171.51342403628118	69	127
171.52503401360545	171.62952380952382	63	127
171.64111111111112	171.74560090702948	69	127
171.74560090702948	171.8849433106576	61	127
171.8849433106576	172.01265306122448	69	127
172.01265306122448	172.12875283446712	59	127
172.1403628117914	172.25643990929706	63	127
172.26807256235827	172.37256235827664	64	127
172.37256235827664	172.48866213151928	66	127
172.48866213151928	172.60476190476192	68	127
172.6163492063492	172.74408163265306	69	127
172.75569160997733	172.84857142857143	71	127
172.84857142857143	172.94145124716553	73	127
172.94145124716553	173.0459410430839	75	127
173.05755102040817	173.16204081632654	76	127
173.1736507936508	173.32458049886623	78	127
173.32458049886623	173.48709750566894	75	127
173.48709750566894	173.62643990929706	80	127
173.69609977324262	173.82380952380953	64	127
173.8354195011338	173.9515192743764	62	127
173.9515192743764	174.06761904761905	64	127
174.06761904761905	174.19532879818595	61	127
174.19532879818595	174.31142857142856	64	127
174.32303854875283	174.43913832199547	59	127
174.45074829931974	174.56684807256235	64	127
174.56684807256235	174.682947845805	57	127
174.682947845805	174.82226757369614	64	127
174.8338775510204	174.97319727891156	56	127
174.98480725623583	175.07768707482992	64	127
175.0892970521542	175.17054421768708	57	127
175.1821768707483	175.3214739229025	64	127
175.3214739229025	175.44920634920635	73	127
175.44920634920635	175.54208616780045	71	127
175.54208616780045	175.6581859410431	73	127
175.6581859410431	175.78587301587302	76	127
175.79750566893424	175.9019954648526	81	127
175.9019954648526	176.0297052154195	80	127
176.0297052154195	176.14580498866212	81	127
176.1574149659864	176.2851247165533	78	127
176.2967120181406	176.4012244897959	73	127
176.4012244897959	176.52893424036282	76	127
176.52893424036282	176.64503401360545	59	127
176.65662131519275	176.76113378684806	66	127
176.77274376417233	176.88884353741497	75	127
176.88884353741497	177.01655328798185	73	127
177.01655328798185	177.14426303854876	75	127
177.14426303854876	177.24875283446713	78	127
177.2603628117914	177.38807256235827	81	127
177.39968253968254	177.5041723356009	80	127
177.5041723356009	177.62027210884355	81	127
177.62027210884355	177.73637188208616	78	127
177.74798185941043	177.86408163265307	75	127
177.87569160997734	177.99179138321995	78	127
177.99179138321995	178.10789115646259	59	127
178.10789115646259	178.22399092970522	68	127
178.23557823129252	178.31687074829932	71	127
178.3284807256236	178.44455782312926	69	127
178.44455782312926	178.54907029478457	71	127
178.54907029478457	178.6419501133787	76	127
178.65356009070294	178.76965986394558	80	127
178.78126984126985	178.89736961451248	78	127
178.89736961451248	179.02507936507936	80	127
179.02507936507936	179.15278911564627	76	127
179.15278911564627	179.24566893424037	71	127
179.25725623582767	179.37337868480725	76	127
179.38498866213152	179.50108843537416	59	127
179.50108843537416	179.62879818594104	70	127
179.62879818594104	179.7332879818594	73	127
179.74489795918367	179.8609977324263	71	127
179.8725850340136	179.97707482993198	73	127
179.97707482993198	180.10480725623583	76	127
180.10480725623583	180.22090702947847	82	127
180.23249433106577	180.32539682539684	80	127
180.33698412698413	180.46471655328799	82	127
180.46471655328799	180.59240362811792	76	127
180.59240362811792	180.7085260770975	73	127
180.7085260770975	180.8362358276644	76	127
180.8478231292517	180.95233560090702	75	127
180.9639455782313	181.0916553287982	83	127
181.1032426303855	181.21936507936508	82	127
181.23097505668935	181.35866213151928	80	127
181.35866213151928	181.48639455782313	78	127
181.48639455782313	181.60249433106577	83	127
181.61408163265307	181.71859410430838	78	127
181.73020408163265	181.8463038548753	76	127
181.8463038548753	181.96240362811793	75	127
181.96240362811793	182.0901133786848	78	127
182.0901133786848	182.20621315192744	75	127
182.2178231292517	182.33392290249432	73	127
182.3455328798186	182.46163265306123	71	127
182.46163265306123	182.5661224489796	83	127
182.5661224489796	182.67061224489797	81	127
182.68219954648526	182.77510204081634	80	127
182.78668934240363	182.90281179138321	78	127
182.90281179138321	183.03052154195012	81	127
183.03052154195012	183.1465986394558	78	127
183.158231292517	183.2511111111111	76	127
183.26272108843537	183.378820861678	75	127
183.378820861678	183.50650793650794	78	127
183.50650793650794	183.62263038548753	75	127
183.6342403628118	183.71551020408162	73	127
183.7271201814059	183.83160997732426	71	127
183.83160997732426	183.9477097505669	81	127
183.9477097505669	184.05219954648527	80	127
184.05219954648527	184.16827664399094	78	127
184.17990929705215	184.28439909297052	76	127
184.2960090702948	184.42369614512472	80	127
184.42369614512472	184.56303854875284	76	127
184.56303854875284	184.6791156462585	75	127
184.69074829931972	184.78360544217688	73	127
184.7952380952381	184.8881179138322	76	127
184.8881179138322	184.95777777777778	73	127
184.95777777777778	185.07387755102042	71	127
185.0854648526077	185.2015873015873	69	127
185.21319727891157	185.37573696145125	80	127
185.37573696145125	185.5150566893424	78	127
185.5150566893424	185.6427664399093	76	127
185.6427664399093	185.7704761904762	75	127
185.78208616780046	185.8981859410431	78	127
185.90979591836734	186.02589569160997	75	127
186.02589569160997	186.11877551020407	73	127
186.11877551020407	186.2348752834467	71	127
186.24648526077098	186.36258503401362	75	127
186.37419501133786	186.47868480725623	71	127
186.47868480725623	186.60639455782314	69	127
186.60639455782314	186.7224716553288	68	127
186.73410430839002	186.85020408163265	76	127
186.86181405895692	186.9778911564626	73	127
186.9778911564626	187.09401360544217	71	127
187.09401360544217	187.22172335600908	69	127
187.23331065759638	187.33780045351475	73	127
187.33780045351475	187.45392290249433	69	127
187.45392290249433	187.58163265306123	68	127
187.58163265306123	187.6861224489796	66	127
187.6861224489796	187.81383219954648	69	127
187.82544217687075	187.9415419501134	66	127
187.9531292517007	188.057641723356	64	127
188.057641723356	188.16213151927437	63	127
188.16213151927437	188.23179138321996	66	127
188.24340136054423	188.3594784580499	69	127
188.3711111111111	188.48721088435374	73	127
188.48721088435374	188.60331065759638	71	127
188.60331065759638	188.70780045351475	75	127
188.70780045351475	188.82390022675736	78	127
188.83551020408163	188.95160997732427	81	127
188.95160997732427	189.07931972789115	81	127
189.07931972789115	189.18380952380951	80	127
189.18380952380951	189.29990929705215	81	127
189.31151927437642	189.42761904761906	78	127
189.4392290249433	189.5669387755102	80	127
189.5669387755102	189.6946485260771	76	127
189.6946485260771	189.83396825396827	80	127
189.83396825396827	189.95006802721088	83	127
189.96167800453514	190.07777777777778	88	127
190.08938775510205	190.21709750566893	83	127
190.21709750566893	190.34480725623584	80	127
190.34480725623584	190.49573696145126	76	127
190.5073469387755	190.6350566893424	71	127
190.6350566893424	190.77437641723355	78	127
190.77437641723355	190.9136961451247	88	127
190.92530612244897	191.06462585034015	87	127
191.0762358276644	191.40131519274377	88	127
191.41292517006804	191.58707482993196	83	127
191.59868480725623	191.71478458049887	80	127
191.71478458049887	191.84249433106575	76	127
191.84249433106575	191.97020408163266	74	127
191.97020408163266	192.0863038548753	76	127
192.09791383219954	192.2024036281179	73	127
192.21401360544218	192.34172335600908	76	127
192.34172335600908	192.4926530612245	74	127
192.4926530612245	192.6087528344671	76	127
192.62036281179138	192.73646258503402	71	127
192.7480725623583	192.8641723356009	76	127
192.8641723356009	192.957052154195	73	127
192.957052154195	193.03832199546486	76	127
193.04993197278912	193.21247165532878	81	127
193.22408163265305	193.3401814058957	76	127
193.3401814058957	193.4330612244898	73	127
193.4330612244898	193.53755102040816	76	127
193.54916099773243	193.66526077097507	71	127
193.6768707482993	193.79297052154195	76	127
193.79297052154195	193.92068027210885	73	127
193.92068027210885	194.04839002267573	76	127
194.04839002267573	194.16448979591837	69	127
194.16448979591837	194.26897959183674	76	127
194.280589569161	194.39668934240362	71	127
194.39668934240362	194.52439909297053	76	127
194.52439909297053	194.64049886621316	80	127
194.6521088435374	194.76820861678004	76	127
194.7798185941043	194.88430839002268	71	127
194.88430839002268	195.00040816326532	76	127
195.00040816326532	195.10489795918366	69	127
195.10489795918366	195.1977777777778	76	127
195.20938775510203	195.32548752834467	71	127
195.32548752834467	195.4415873015873	76	127
195.4415873015873	195.52285714285713	68	127
195.52285714285713	195.6273469387755	76	127
195.63895691609977	195.7550566893424	69	127
195.76666666666668	195.8827664399093	76	127
195.8827664399093	196.02208616780047	78	127
196.0336961451247	196.14979591836735	76	127
196.16140589569162	196.2891156462585	75	127
196.2891156462585	196.4400453514739	76	127
196.4400453514739	196.7302947845805	76	127
196.59097505668933	196.8928344671202	76	127
196.7302947845805	196.8928344671202	78	127
196.8928344671202	197.05537414965985	76	127
197.06698412698412	197.3224036281179	80	127
197.33401360544218	197.5081632653061	76	127
197.51977324263038	199.16839002267574	81	127
197.51977324263038	199.16839002267574	75	127
197.51977324263038	199.16839002267574	66	127
197.51977324263038	199.16839002267574	59	127
199.18	199.98108843537415	83	127
199.98108843537415	201.65292517006802	80	127
199.98108843537415	201.65292517006802	71	127
199.98108843537415	201.65292517006802	64	127
201.6645351473923	201.91995464852607	57	127
201.93156462585034	202.2218140589569	81	127
202.2218140589569	202.61655328798187	80	127
202.61655328798187	202.77909297052153	81	127
202.77909297052153	202.8835827664399	78	127
202.8835827664399	204.19551020408164	78	127
202.8835827664399	204.6482993197279	71	127
204.19551020408164	204.6482993197279	76	127
204.65990929705217	204.79922902494332	76	127
204.79922902494332	205.01981859410432	88	127
205.01981859410432	205.7164172335601	87	127
205.7164172335601	205.9370068027211	85	127
205.94861678004534	206.08793650793652	83	127
206.09954648526076	206.2156462585034	88	127
206.2156462585034	206.3433560090703	81	127
206.3433560090703	206.44784580498867	88	127
206.45945578231292	206.57555555555555	80	127
206.58716553287982	206.83097505668934	88	127
206.83097505668934	206.95868480725625	78	127
206.95868480725625	207.13283446712018	88	127
207.14444444444445	207.26054421768708	76	127
207.27215419501132	207.38825396825396	76	127
207.38825396825396	207.51596371882087	75	127
207.51596371882087	207.5972335600907	73	127
207.5972335600907	207.70172335600907	71	127
207.71333333333334	207.82943310657598	76	127
207.82943310657598	207.95714285714286	69	127
207.95714285714286	208.01519274376417	76	127
208.01519274376417	208.14290249433105	68	127
208.15451247165532	208.27061224489796	76	127
208.28222222222223	208.39832199546484	66	127
208.39832199546484	208.51442176870748	76	127
208.51442176870748	208.6653514739229	64	127
208.6653514739229	208.7930612244898	68	127
208.7930612244898	208.92077097505668	71	127
208.93238095238095	209.02526077097505	75	127
209.02526077097505	209.09492063492064	76	127
209.09492063492064	209.22263038548752	80	127
209.22263038548752	209.25746031746033	83	127
209.25746031746033	209.44321995464853	87	127
209.44321995464853	210.15142857142857	88	127
