# onset,offset,note,velocity
0.09210884353741497	0.4636281179138322	71	127
0.09210884353741497	0.4636281179138322	64	127
0.4636281179138322	0.8003174603174603	73	127
0.4636281179138322	0.8003174603174603	69	127
0.8003174603174603	1.0325170068027212	69	127
1.0325170068027212	1.1718367346938776	71	127
1.1718367346938776	1.311156462585034	73	127
1.322766439909297	1.4620861678004535	75	127
1.4620861678004535	1.914875283446712	76	127
1.926485260770975	2.0658049886621317	68	127
2.0658049886621317	2.205124716553288	71	127
2.205124716553288	2.553424036281179	76	127
2.553424036281179	2.6811337868480725	76	127
2.6811337868480725	2.832063492063492	75	127
2.832063492063492	3.1919727891156464	76	127
3.1919727891156464	3.342902494331066	66	127
3.342902494331066	3.4938321995464854	68	127
3.505442176870748	3.6563718820861677	69	127
3.6563718820861677	3.807301587301587	71	127
3.807301587301587	3.96984126984127	73	127
3.981451247165533	4.109160997732427	69	127
4.109160997732427	4.457460317460318	71	127
4.457460317460318	4.678049886621316	69	127
4.678049886621316	4.840589569160998	68	127
4.840589569160998	4.979909297052155	66	127
4.979909297052155	5.11922902494331	68	127
5.130839002267574	5.4675283446712015	64	127
5.4675283446712015	5.606848072562358	80	127
5.6184580498866215	5.7693877551020405	76	127
5.7693877551020405	5.931927437641724	78	127
5.931927437641724	6.1525170068027215	75	127
6.164126984126984	6.326666666666667	71	127
6.326666666666667	6.4543764172335605	73	127
6.4543764172335605	6.582086167800454	75	127
6.582086167800454	6.709795918367347	76	127
6.72140589569161	6.883945578231293	78	127
6.883945578231293	7.023265306122449	81	127
7.023265306122449	7.243854875283446	80	127
7.25546485260771	7.418004535147392	76	127
7.418004535147392	7.568934240362812	71	127
7.568934240362812	7.719863945578231	75	127
7.731473922902494	7.882403628117914	76	127
7.882403628117914	8.044920634920635	78	127
8.044920634920635	8.20748299319728	80	127
8.20748299319728	8.381632653061224	83	127
8.381632653061224	8.544172335600907	78	127
8.544172335600907	8.683492063492064	75	127
8.683492063492064	8.846031746031747	71	127
8.857641723356009	9.008571428571429	73	127
9.008571428571429	9.159501133786849	75	127
9.159501133786849	9.310430839002267	76	127
9.322040816326531	9.461360544217687	78	127
9.461360544217687	9.600657596371882	81	127
9.600657596371882	9.763219954648527	80	127
9.77482993197279	9.925759637188209	76	127
9.925759637188209	10.076666666666666	71	127
10.076666666666666	10.227619047619047	75	127
10.227619047619047	10.378548752834467	76	127
10.378548752834467	10.54108843537415	78	127
10.552698412698414	10.73845804988662	80	127
10.73845804988662	10.935827664399094	83	127
10.935827664399094	11.12156462585034	76	127
11.133197278911565	11.27251700680272	75	127
11.27251700680272	11.400226757369614	73	127
11.400226757369614	11.527936507936507	75	127
11.539546485260772	11.76013605442177	76	127
11.76013605442177	11.911065759637188	75	127
11.911065759637188	12.050385487528345	73	127
12.061995464852608	12.22453514739229	71	127
12.22453514739229	12.387074829931972	70	127
12.387074829931972	12.538004535147392	68	127
12.549614512471654	12.688934240362812	66	127
12.688934240362812	12.839863945578232	68	127
12.839863945578232	12.99079365079365	70	127
12.99079365079365	13.199773242630386	71	127
13.199773242630386	13.362312925170068	73	127
13.362312925170068	13.501632653061224	75	127
13.501632653061224	13.652562358276644	76	127
13.664172335600908	13.803492063492063	75	127
13.803492063492063	13.989251700680272	73	127
13.989251700680272	14.128571428571428	75	127
14.140181405895692	14.279501133786848	76	127
14.279501133786848	14.453650793650795	75	127
14.453650793650795	14.59297052154195	73	127
14.616190476190477	14.755510204081633	71	127
14.755510204081633	14.906439909297053	70	127
14.906439909297053	15.103809523809524	68	127
15.103809523809524	15.254739229024944	66	127
15.266349206349206	15.405668934240364	68	127
15.405668934240364	15.54498866213152	70	127
15.54498866213152	15.69591836734694	71	127
15.707528344671202	15.846848072562358	73	127
15.846848072562358	15.997777777777777	76	127
15.997777777777777	16.22997732426304	75	127
16.241587301587302	16.380907029478458	73	127
16.380907029478458	16.54344671201814	71	127
16.54344671201814	16.705986394557822	73	127
16.705986394557822	16.856916099773244	75	127
16.856916099773244	16.9962358276644	76	127
16.9962358276644	17.18199546485261	78	127
17.18199546485261	17.309705215419502	69	127
17.321315192743764	17.46063492063492	68	127
17.46063492063492	17.623174603174604	71	127
17.623174603174604	17.76249433106576	76	127
17.774104308390022	17.901814058956916	75	127
17.901814058956916	18.075963718820862	76	127
18.075963718820862	18.215283446712018	82	127
18.22689342403628	18.389433106575964	83	127
18.389433106575964	18.52875283446712	73	127
18.52875283446712	18.71451247165533	64	127
18.71451247165533	18.865442176870747	75	127
18.87702947845805	18.99315192743764	73	127
18.99315192743764	19.17891156462585	71	127
19.17891156462585	19.341451247165534	66	127
19.353061224489796	19.49238095238095	73	127
19.49238095238095	19.631678004535146	71	127
19.631678004535146	19.771020408163267	70	127
19.78263038548753	19.933560090702947	71	127
19.933560090702947	20.072879818594103	66	127
20.072879818594103	20.235419501133787	63	127
20.235419501133787	20.409569160997734	66	127
20.409569160997734	20.7346485260771	59	127
20.7346485260771	21.09453514739229	71	127
20.7346485260771	21.09453514739229	64	127
21.09453514739229	21.39641723356009	73	127
21.09453514739229	21.39641723356009	69	127
21.40800453514739	21.651836734693877	69	127
21.651836734693877	21.849206349206348	71	127
21.849206349206348	21.988526077097507	73	127
22.00013605442177	22.139455782312925	75	127
22.139455782312925	22.46453514739229	76	127
22.46453514739229	22.592244897959183	68	127
22.603854875283446	22.754784580498868	71	127
22.754784580498868	23.021814058956917	76	127
23.03342403628118	23.184331065759636	76	127
23.184331065759636	23.370113378684806	75	127
23.370113378684806	23.822902494331064	76	127
23.822902494331064	23.962222222222223	66	127
23.962222222222223	24.089931972789117	68	127
24.089931972789117	24.252471655328797	69	127
24.252471655328797	24.473061224489797	71	127
24.473061224489797	24.623990929705215	73	127
24.623990929705215	24.76331065759637	69	127
24.774920634920633	25.05356009070295	71	127
25.05356009070295	25.21609977324263	69	127
25.227709750566895	25.401859410430838	68	127
25.401859410430838	25.55278911564626	66	127
25.55278911564626	25.726938775510202	68	127
25.73854875283447	26.086848072562358	64	127
26.086848072562358	26.249387755102042	80	127
26.249387755102042	26.388707482993198	76	127
26.40031746031746	26.609297052154194	78	127
26.609297052154194	26.748616780045353	75	127
26.748616780045353	26.88793650793651	71	127
26.89954648526077	27.08530612244898	73	127
27.08530612244898	27.224625850340136	75	127
27.224625850340136	27.375555555555554	76	127
27.38716553287982	27.526485260770976	78	127
27.526485260770976	27.66580498866213	81	127
27.66580498866213	27.85156462585034	80	127
27.85156462585034	28.00249433106576	76	127
28.00249433106576	28.15342403628118	71	127
28.15342403628118	28.31596371882086	75	127
28.31596371882086	28.443673469387754	76	127
28.455283446712016	28.675873015873016	78	127
28.675873015873016	28.850022675736962	80	127
28.850022675736962	29.00095238095238	83	127
29.012562358276643	29.198321995464852	78	127
29.198321995464852	29.349251700680274	75	127
29.349251700680274	29.511791383219954	71	127
29.523401360544216	29.6859410430839	73	127
29.6859410430839	29.813650793650794	75	127
29.813650793650794	29.95297052154195	76	127
29.95297052154195	30.115510204081634	78	127
30.127120181405896	30.266439909297052	81	127
30.266439909297052	30.440589569161	80	127
30.440589569161	30.60312925170068	76	127
30.614739229024945	30.765668934240363	71	127
30.765668934240363	30.90498866213152	75	127
30.90498866213152	31.055918367346937	76	127
31.055918367346937	31.21845804988662	78	127
31.21845804988662	31.392607709750568	80	127
31.40421768707483	31.58997732426304	83	127
31.58997732426304	31.8221768707483	76	127
31.8221768707483	31.93827664399093	75	127
31.93827664399093	32.065986394557825	73	127
32.07759637188209	32.228526077097506	75	127
32.228526077097506	32.36784580498866	76	127
32.36784580498866	32.553605442176874	75	127
32.565215419501136	32.70453514739229	73	127
32.70453514739229	32.86707482993197	71	127
32.86707482993197	33.01800453514739	70	127
33.01800453514739	33.2037641723356	68	127
33.215374149659866	33.377913832199546	66	127
33.377913832199546	33.528843537414964	68	127
33.528843537414964	33.69138321995465	70	127
33.702993197278914	33.88875283446712	71	127
33.88875283446712	34.062879818594105	73	127
34.062879818594105	34.202222222222225	75	127
34.21383219954649	34.353151927437644	76	127
34.353151927437644	34.585351473922906	75	127
34.585351473922906	34.736281179138324	73	127
34.736281179138324	34.898820861678004	75	127
34.898820861678004	35.03814058956916	76	127
35.03814058956916	35.177460317460316	75	127
35.177460317460316	35.31678004535147	73	127
35.32836734693878	35.4677097505669	71	127
35.4677097505669	35.63024943310658	70	127
35.63024943310658	35.79278911564626	68	127
35.80439909297052	35.97854875283447	66	127
35.97854875283447	36.117868480725626	68	127
36.117868480725626	36.28040816326531	70	127
36.29201814058957	36.44294784580499	71	127
36.44294784580499	36.60546485260771	73	127
36.60546485260771	36.768027210884355	76	127
36.768027210884355	36.91895691609977	75	127
36.91895691609977	37.081496598639454	73	127
37.081496598639454	37.20920634920635	71	127
37.20920634920635	37.36011337868481	73	127
37.371746031746035	37.51106575963719	75	127
37.51106575963719	37.696825396825396	76	127
37.696825396825396	37.90580498866213	78	127
37.917414965986396	38.068344671201814	69	127
38.068344671201814	38.19605442176871	68	127
38.19605442176871	38.33537414965986	71	127
38.346984126984125	38.53274376417234	76	127
38.53274376417234	38.672063492063494	75	127
38.672063492063494	38.81138321995465	76	127
38.81138321995465	38.96231292517007	82	127
38.97392290249433	39.14807256235828	83	127
39.14807256235828	39.2990022675737	73	127
39.2990022675737	39.449931972789116	64	127
39.46154195011338	39.6124716553288	75	127
39.6124716553288	39.77498866213152	73	127
39.77498866213152	39.937551020408165	71	127
39.94916099773243	40.14650793650794	66	127
40.14650793650794	40.28585034013606	73	127
40.28585034013606	40.425170068027214	71	127
40.425170068027214	40.587709750566894	70	127
40.587709750566894	40.73863945578231	71	127
40.73863945578231	40.85473922902494	66	127
40.85473922902494	40.9940589569161	63	127
41.00566893424036	41.17981859410431	66	127
41.17981859410431	41.516507936507935	59	127
41.5281179138322	41.899637188208615	78	127
41.5281179138322	41.899637188208615	71	127
41.899637188208615	42.24793650793651	80	127
41.899637188208615	42.24793650793651	76	127
42.24793650793651	42.398866213151926	76	127
42.398866213151926	42.5962358276644	78	127
42.5962358276644	42.723945578231294	80	127
42.73555555555556	42.89809523809524	82	127
42.89809523809524	43.269614512471655	83	127
43.28122448979592	43.44374149659864	75	127
43.44374149659864	43.583061224489796	78	127
43.583061224489796	43.8849433106576	83	127
43.8849433106576	44.08229024943311	83	127
44.08229024943311	44.27968253968254	82	127
44.27968253968254	44.60476190476191	83	127
44.60476190476191	44.755691609977326	73	127
44.755691609977326	44.88340136054422	76	127
44.92984126984127	45.069160997732425	81	127
45.069160997732425	45.20848072562358	73	127
45.20848072562358	45.37102040816327	72	127
45.39424036281179	45.54517006802721	75	127
45.54517006802721	45.68448979591837	80	127
45.68448979591837	45.85861678004535	78	127
45.87024943310658	46.06761904761905	78	127
46.06761904761905	46.218548752834465	76	127
46.218548752834465	46.334648526077096	75	127
46.334648526077096	46.47396825396825	76	127
46.47396825396825	46.79904761904762	73	127
46.81065759637188	46.99639455782313	76	127
46.99639455782313	47.1821768707483	73	127
47.1821768707483	47.321496598639456	68	127
47.33310657596372	47.48403628117914	69	127
47.48403628117914	47.646575963718824	71	127
47.646575963718824	47.79750566893424	73	127
47.809115646258505	47.971655328798185	74	127
47.971655328798185	48.11097505668934	80	127
48.11097505668934	48.2502947845805	83	127
48.27351473922902	48.44766439909297	74	127
48.44766439909297	48.63342403628118	73	127
48.63342403628118	48.795963718820865	71	127
48.795963718820865	48.912063492063496	69	127
48.92367346938776	49.074603174603176	71	127
49.074603174603176	49.23714285714286	73	127
49.23714285714286	49.37646258503401	76	127
49.388072562358275	49.53900226757369	81	127
49.53900226757369	49.724761904761905	73	127
49.724761904761905	49.887301587301586	68	127
49.89891156462585	50.061451247165536	69	127
50.061451247165536	50.23560090702948	71	127
50.23560090702948	50.3865306122449	73	127
50.3865306122449	50.58390022675737	74	127
50.58390022675737	50.72321995464853	80	127
50.72321995464853	50.89736961451247	83	127
50.89736961451247	51.05990929705215	74	127
51.07151927437642	51.22244897959184	73	127
51.22244897959184	51.38498866213152	71	127
51.38498866213152	51.5475283446712	69	127
51.55913832199546	51.69845804988662	71	127
51.69845804988662	51.83777777777778	73	127
51.83777777777778	51.97709750566894	76	127
51.9887074829932	52.13963718820862	81	127
52.13963718820862	52.33700680272109	73	127
52.33700680272109	52.60403628117914	74	127
52.60403628117914	52.75496598639456	71	127
52.76657596371882	52.940725623582765	68	127
52.940725623582765	53.08004535147392	66	127
53.08004535147392	53.207755102040814	65	127
53.219365079365076	53.35868480725624	68	127
53.35868480725624	53.52122448979592	71	127
53.52122448979592	53.706984126984125	74	127
53.71859410430839	53.85791383219954	73	127
53.85791383219954	53.997233560090706	69	127
53.997233560090706	54.159773242630386	66	127
54.159773242630386	54.34553287981859	64	127
54.34553287981859	54.48485260770975	62	127
54.48485260770975	54.6590022675737	61	127
54.6590022675737	54.79832199546485	62	127
54.809931972789116	54.94925170068027	73	127
54.94925170068027	55.08857142857143	71	127
55.08857142857143	55.21628117913832	81	127
55.22789115646258	55.43687074829932	80	127
55.43687074829932	55.599410430839	78	127
55.599410430839	55.76195011337869	73	127
55.77356009070295	55.947709750566894	80	127
55.947709750566894	56.08702947845805	78	127
56.08702947845805	56.26117913832199	77	127
56.26117913832199	56.400498866213155	78	127
56.400498866213155	56.53981859410431	73	127
56.53981859410431	56.69074829931973	69	127
56.69074829931973	56.876507936507934	73	127
56.8881179138322	57.2015873015873	66	127
57.2015873015873	57.34090702947846	81	127
57.35251700680272	57.63115646258503	78	127
57.63115646258503	57.78208616780045	75	127
57.78208616780045	57.92140589569161	78	127
57.92140589569161	58.07233560090703	71	127
58.07233560090703	58.22326530612245	73	127
58.22326530612245	58.362585034013605	75	127
58.362585034013605	58.50190476190476	76	127
58.513514739229024	58.65283446712018	78	127
58.65283446712018	58.8037641723356	81	127
58.8037641723356	58.966303854875285	80	127
58.97791383219955	59.21011337868481	83	127
59.21011337868481	59.349433106575965	76	127
59.349433106575965	59.50036281179138	78	127
59.558412698412695	59.68612244897959	80	127
59.68612244897959	59.82544217687075	81	127
59.82544217687075	59.96476190476191	83	127
59.96476190476191	60.12730158730159	74	127
60.12730158730159	60.28984126984127	73	127
60.28984126984127	60.429160997732424	76	127
60.429160997732424	60.55687074829932	69	127
60.56848072562358	60.73102040816327	73	127
60.73102040816327	60.881950113378686	78	127
60.881950113378686	61.032879818594104	80	127
61.044489795918366	61.23024943310658	81	127
61.23024943310658	61.42761904761905	78	127
61.42761904761905	61.5669387755102	76	127
61.578548752834465	61.68303854875283	75	127
61.68303854875283	61.799138321995464	73	127
61.799138321995464	61.99650793650794	75	127
61.99650793650794	62.3215873015873	71	127
62.3215873015873	62.681496598639455	71	127
62.3215873015873	62.681496598639455	64	127
62.69310657596372	63.018185941043086	73	127
62.69310657596372	63.018185941043086	69	127
63.018185941043086	63.18072562358277	69	127
63.19233560090703	63.389705215419504	71	127
63.389705215419504	63.505804988662135	73	127
63.505804988662135	63.62190476190476	75	127
63.62190476190476	63.772834467120184	76	127
63.772834467120184	63.9237641723356	78	127
63.9237641723356	64.05145124716553	75	127
64.05145124716553	64.19079365079365	78	127
64.20240362811792	64.37655328798186	81	127
64.37655328798186	64.5855328798186	78	127
64.5855328798186	64.70163265306122	75	127
64.7132426303855	64.85256235827664	71	127
64.85256235827664	64.98027210884354	73	127
64.98027210884354	65.13120181405895	69	127
65.14281179138322	65.29374149659864	68	127
65.29374149659864	65.45625850340136	76	127
65.45625850340136	65.73492063492064	83	127
65.7465306122449	65.96709750566893	81	127
65.7465306122449	66.14126984126985	71	127
65.96709750566893	66.14126984126985	80	127
66.14126984126985	66.30380952380952	78	127
66.31541950113379	66.48956916099773	80	127
66.48956916099773	66.64049886621315	76	127
66.64049886621315	66.8146485260771	71	127
66.8146485260771	66.98879818594105	68	127
66.98879818594105	67.162947845805	71	127
67.17455782312925	67.52285714285715	64	127
67.52285714285715	67.84793650793651	78	127
67.52285714285715	67.84793650793651	71	127
67.85952380952381	68.14979591836735	80	127
67.85952380952381	68.14979591836735	76	127
68.14979591836735	68.37036281179138	76	127
68.38199546485261	68.52131519274377	78	127
68.52131519274377	68.66063492063492	80	127
68.66063492063492	68.79995464852608	82	127
68.81156462585034	69.18308390022676	83	127
69.18308390022676	69.34562358276644	75	127
69.34562358276644	69.4849433106576	78	127
69.4849433106576	69.74036281179139	83	127
69.74036281179139	69.8912925170068	83	127
69.91451247165533	70.06544217687075	82	127
70.06544217687075	70.52984126984127	83	127
70.54145124716554	70.66916099773243	73	127
70.66916099773243	70.8665306122449	76	127
70.8665306122449	71.01746031746032	81	127
71.02904761904762	71.19160997732426	73	127
71.19160997732426	71.33092970521542	72	127
71.33092970521542	71.4934693877551	75	127
71.4934693877551	71.65600907029479	80	127
71.66759637188208	71.86498866213152	78	127
71.86498866213152	72.12040816326531	78	127
72.12040816326531	72.25972789115646	76	127
72.27133786848073	72.41065759637188	75	127
72.41065759637188	72.57319727891156	76	127
72.57319727891156	72.85183673469388	73	127
72.85183673469388	72.99115646258504	76	127
72.99115646258504	73.15369614512471	73	127
73.15369614512471	73.30460317460317	68	127
73.30460317460317	73.4439455782313	69	127
73.4439455782313	73.60648526077098	71	127
73.60648526077098	73.76902494331065	73	127
73.80385487528345	73.95478458049887	74	127
73.95478458049887	74.09410430839003	80	127
74.09410430839003	74.2914739229025	83	127
74.30308390022675	74.44240362811792	74	127
74.44240362811792	74.5817006802721	73	127
74.5817006802721	74.7326530612245	71	127
74.74426303854875	74.87197278911565	69	127
74.87197278911565	74.99968253968254	71	127
74.99968253968254	75.15061224489796	73	127
75.15061224489796	75.31315192743764	76	127
75.3247619047619	75.55696145124716	81	127
75.55696145124716	75.71950113378685	73	127
75.71950113378685	75.84721088435374	68	127
75.85879818594104	75.99814058956916	69	127
75.99814058956916	76.13746031746032	71	127
76.13746031746032	76.31160997732427	73	127
76.35804988662132	76.520589569161	74	127
76.520589569161	76.65990929705215	80	127
76.65990929705215	76.82244897959184	83	127
76.82244897959184	76.98496598639456	74	127
76.98496598639456	77.15913832199547	73	127
77.15913832199547	77.32167800453514	71	127
77.32167800453514	77.48421768707483	69	127
77.49580498866213	77.62351473922902	71	127
77.62351473922902	77.76285714285714	73	127
77.76285714285714	77.9021768707483	76	127
77.91378684807256	78.11115646258503	81	127
78.11115646258503	78.27369614512472	73	127
78.27369614512472	78.5291156462585	74	127
78.54072562358277	78.71487528344672	71	127
78.71487528344672	78.86580498866213	68	127
78.86580498866213	79.00512471655328	66	127
79.00512471655328	79.13283446712018	65	127
79.14444444444445	79.30698412698413	68	127
79.30698412698413	79.45791383219955	71	127
79.45791383219955	79.58562358276644	74	127
79.5972335600907	79.73655328798186	73	127
79.73655328798186	79.9222902494331	69	127
79.9222902494331	80.06163265306122	66	127
80.08485260770975	80.23578231292517	64	127
80.23578231292517	80.39832199546485	62	127
80.39832199546485	80.52603174603175	61	127
80.52603174603175	80.67696145124717	62	127
80.67696145124717	80.83950113378685	73	127
80.83950113378685	80.978820861678	71	127
80.978820861678	81.11814058956917	81	127
81.12975056689342	81.3271201814059	80	127
81.3271201814059	81.47804988662132	78	127
81.47804988662132	81.62897959183674	73	127
81.640589569161	81.83795918367348	80	127
81.83795918367348	82.00049886621315	78	127
82.00049886621315	82.13981859410431	77	127
82.15142857142857	82.32555555555555	78	127
82.32555555555555	82.45326530612245	73	127
82.45326530612245	82.59260770975057	69	127
82.59260770975057	82.75514739229025	73	127
82.76675736961451	83.13827664399093	66	127
83.13827664399093	83.28920634920635	81	127
83.30081632653061	83.50979591836735	78	127
83.50979591836735	83.66072562358276	75	127
83.66072562358276	83.80004535147393	78	127
83.81165532879818	83.95097505668934	71	127
83.95097505668934	84.07868480725624	73	127
84.07868480725624	84.25283446712018	75	127
84.25283446712018	84.4037641723356	76	127
84.4037641723356	84.55469387755102	78	127
84.55469387755102	84.7172335600907	81	127
84.7172335600907	84.90299319727892	80	127
84.91460317460317	85.05392290249434	83	127
85.05392290249434	85.20485260770975	76	127
85.20485260770975	85.42544217687075	78	127
85.43705215419502	85.57637188208616	80	127
85.57637188208616	85.71569160997733	81	127
85.71569160997733	85.86662131519275	83	127
85.87820861678004	86.05238095238096	74	127
86.05238095238096	86.21492063492063	73	127
86.21492063492063	86.34263038548752	76	127
86.34263038548752	86.49353741496599	69	127
86.49353741496599	86.6328798185941	73	127
86.6328798185941	86.7954195011338	78	127
86.7954195011338	86.95795918367347	80	127
86.96956916099774	87.08566893424036	81	127
87.08566893424036	87.34108843537415	78	127
87.34108843537415	87.48040816326531	76	127
87.49201814058956	87.6081179138322	75	127
87.6081179138322	87.7358276643991	73	127
87.7358276643991	87.87514739229024	75	127
87.88675736961451	88.20022675736962	71	127
88.20022675736962	88.53689342403628	71	127
88.20022675736962	88.53689342403628	64	127
88.5485260770975	88.90843537414966	73	127
88.5485260770975	88.90843537414966	69	127
88.90843537414966	89.1174149659864	69	127
89.12902494331065	89.29156462585034	71	127
89.29156462585034	89.47732426303855	73	127
89.47732426303855	89.62825396825397	75	127
89.63986394557823	89.79077097505669	76	127
89.79077097505669	89.9417006802721	78	127
89.9417006802721	90.0926530612245	75	127
90.0926530612245	90.24358276643991	78	127
90.24358276643991	90.38290249433106	81	127
90.38290249433106	90.55702947845805	78	127
90.55702947845805	90.70795918367347	75	127
90.7195918367347	90.85891156462586	71	127
90.85891156462586	90.998231292517	73	127
90.998231292517	91.14916099773242	69	127
91.16077097505669	91.31170068027211	68	127
91.31170068027211	91.49746031746032	76	127
91.49746031746032	91.78770975056689	83	127
91.78770975056689	91.92702947845805	81	127
91.78770975056689	92.07795918367347	71	127
91.92702947845805	92.07795918367347	80	127
92.07795918367347	92.22888888888889	78	127
92.24049886621316	92.57718820861678	80	127
92.57718820861678	92.73972789115646	76	127
92.73972789115646	92.9138775510204	71	127
92.92548752834468	93.19251700680272	68	127
93.19251700680272	93.50598639455782	71	127
93.50598639455782	93.9239455782313	64	127
95.15460317460318	95.3635827664399	64	127
