# onset,offset,note,velocity
1.9845351473922903	2.2980045351473923	55	127
2.2980045351473923	2.5650340136054424	57	127
2.5650340136054424	2.8436734693877552	59	127
2.8436734693877552	3.0874829931972787	60	127
3.0874829931972787	3.2384126984126986	59	127
3.2384126984126986	3.389342403628118	57	127
3.389342403628118	3.6563718820861677	55	127
3.6563718820861677	3.981451247165533	53	127
3.981451247165533	4.23687074829932	52	127
4.23687074829932	4.376190476190477	55	127
4.376190476190477	4.50390022675737	53	127
4.50390022675737	4.678049886621316	52	127
4.678049886621316	4.979909297052155	50	127
4.979909297052155	5.2817687074829935	48	127
5.2817687074829935	5.432698412698413	43	127
5.432698412698413	5.572018140589569	41	127
5.572018140589569	5.80421768707483	40	127
5.80421768707483	6.048027210884354	38	127
6.048027210884354	6.315056689342404	36	127
6.315056689342404	6.593696145124716	48	127
6.593696145124716	6.849115646258503	50	127
6.849115646258503	7.116145124716553	52	127
7.116145124716553	7.325124716553288	53	127
7.325124716553288	7.4760544217687075	52	127
7.4760544217687075	7.63859410430839	50	127
7.63859410430839	7.917233560090703	52	127
7.917233560090703	8.1378231292517	55	127
8.1378231292517	8.43968253968254	50	127
8.43968253968254	8.59061224489796	48	127
8.59061224489796	8.718321995464853	47	127
8.718321995464853	8.996938775510204	48	127
8.996938775510204	9.287210884353742	55	127
9.287210884353742	9.798049886621316	47	127
9.798049886621316	10.030249433106576	45	127
10.030249433106576	10.262448979591836	43	127
10.262448979591836	10.424965986394557	55	127
10.424965986394557	10.529478458049887	53	127
10.529478458049887	10.622358276643991	52	127
10.622358276643991	10.761678004535147	53	127
10.761678004535147	11.017097505668934	55	127
11.017097505668934	11.318956916099774	52	127
11.318956916099774	11.57437641723356	45	127
11.57437641723356	11.818163265306122	55	127
11.818163265306122	12.07360544217687	60	127
12.07360544217687	12.363854875283447	52	127
12.363854875283447	12.410294784580499	53	127
12.410294784580499	12.514784580498866	52	127
12.514784580498866	12.630884353741497	50	127
12.630884353741497	12.723764172335601	52	127
12.723764172335601	13.025623582766439	53	127
13.025623582766439	13.327482993197279	50	127
13.327482993197279	13.536462585034014	43	127
13.536462585034014	13.815102040816326	53	127
13.815102040816326	14.05891156462585	59	127
14.05891156462585	14.302721088435375	50	127
14.302721088435375	14.395600907029479	52	127
14.395600907029479	14.511700680272108	50	127
14.511700680272108	14.651020408163266	48	127
14.651020408163266	14.790340136054422	50	127
14.790340136054422	15.022539682539682	52	127
15.022539682539682	15.254739229024944	48	127
15.254739229024944	15.3940589569161	41	127
15.3940589569161	15.533378684807257	45	127
15.533378684807257	15.637868480725624	47	127
15.637868480725624	15.74235827664399	48	127
15.74235827664399	16.02097505668934	50	127
16.02097505668934	16.299637188208617	53	127
16.299637188208617	16.520226757369613	52	127
16.520226757369613	16.764036281179138	48	127
16.764036281179138	17.089115646258502	43	127
17.089115646258502	17.34453514739229	47	127
17.34453514739229	17.890204081632653	48	127
17.890204081632653	18.435873015873018	36	127
18.435873015873018	18.49390022675737	52	127
18.49390022675737	18.63324263038549	50	127
18.63324263038549	18.760952380952382	48	127
18.760952380952382	18.888662131519276	47	127
18.888662131519276	19.1324716553288	48	127
19.1324716553288	19.387891156462587	52	127
19.387891156462587	19.67814058956916	54	127
19.67814058956916	19.94517006802721	57	127
19.94517006802721	20.14251700680272	62	127
20.14251700680272	20.43278911564626	54	127
20.43278911564626	20.699818594104308	55	127
20.699818594104308	21.001678004535147	47	127
21.001678004535147	21.31514739229025	45	127
21.31514739229025	21.59378684807256	43	127
21.59378684807256	22.476145124716552	50	127
21.59378684807256	22.476145124716552	42	127
21.59378684807256	22.476145124716552	45	127
21.59378684807256	22.476145124716552	57	127
22.476145124716552	22.615442176870747	50	127
22.615442176870747	22.719954648526077	52	127
22.719954648526077	22.84766439909297	54	127
22.84766439909297	23.010204081632654	55	127
23.010204081632654	23.103083900226757	57	127
23.103083900226757	23.195963718820863	59	127
23.195963718820863	23.486213151927437	60	127
23.486213151927437	23.73002267573696	57	127
23.73002267573696	24.008662131519273	59	127
24.008662131519273	24.10154195011338	50	127
24.10154195011338	24.18281179138322	48	127
24.18281179138322	24.391791383219953	50	127
24.391791383219953	24.635600907029477	52	127
24.635600907029477	24.98390022675737	53	127
24.98390022675737	25.239319727891157	45	127
25.239319727891157	25.494739229024944	47	127
25.494739229024944	25.784988662131518	53	127
25.784988662131518	26.005578231292517	52	127
25.784988662131518	26.005578231292517	48	127
26.005578231292517	26.226167800453513	36	127
26.226167800453513	26.51641723356009	54	127
26.226167800453513	26.51641723356009	50	127
26.51641723356009	26.748616780045353	36	127
26.748616780045353	26.98081632653061	55	127
26.748616780045353	26.98081632653061	52	127
26.98081632653061	27.236235827664398	36	127
27.236235827664398	27.480045351473922	57	127
27.236235827664398	27.480045351473922	54	127
27.480045351473922	27.7702947845805	43	127
27.7702947845805	28.04893424036281	55	127
27.7702947845805	28.04893424036281	59	127
28.04893424036281	28.292743764172336	43	127
28.292743764172336	28.571383219954647	60	127
28.292743764172336	28.571383219954647	57	127
28.571383219954647	28.710702947845807	43	127
28.710702947845807	28.966122448979593	62	127
28.710702947845807	28.966122448979593	59	127
28.966122448979593	29.233151927437643	43	127
29.233151927437643	29.430521541950114	64	127
29.233151927437643	29.430521541950114	60	127
29.430521541950114	29.709160997732425	43	127
29.709160997732425	29.83687074829932	66	127
29.83687074829932	29.98780045351474	60	127
29.98780045351474	30.092290249433105	50	127
30.092290249433105	30.18517006802721	60	127
30.18517006802721	30.428979591836736	66	127
30.428979591836736	30.71922902494331	60	127
30.71922902494331	30.83532879818594	59	127
30.83532879818594	30.93981859410431	62	127
30.93981859410431	31.067528344671203	64	127
31.067528344671203	31.195238095238096	66	127
31.195238095238096	31.450657596371883	67	127
31.450657596371883	31.729297052154195	59	127
31.729297052154195	31.98471655328798	57	127
31.98471655328798	32.14725623582766	67	127
32.14725623582766	32.379455782312924	66	127
32.379455782312924	32.64648526077097	50	127
32.64648526077097	32.774195011337866	55	127
32.774195011337866	32.90190476190476	59	127
32.90190476190476	33.02961451247165	60	127
33.02961451247165	33.145714285714284	62	127
33.145714285714284	33.366303854875284	64	127
33.366303854875284	33.62172335600907	55	127
33.62172335600907	33.911972789115644	54	127
33.911972789115644	34.202222222222225	64	127
34.202222222222225	34.31829931972789	62	127
34.31829931972789	34.562108843537416	47	127
34.562108843537416	34.66662131519274	52	127
34.66662131519274	34.8059410430839	55	127
34.8059410430839	34.945238095238096	57	127
34.945238095238096	35.08458049886622	59	127
35.08458049886622	35.38643990929705	60	127
35.38643990929705	35.58378684807256	52	127
35.58378684807256	35.827619047619045	50	127
35.827619047619045	36.07142857142857	60	127
36.07142857142857	36.268798185941044	59	127
36.268798185941044	36.55904761904762	43	127
36.55904761904762	36.67514739229025	48	127
36.67514739229025	36.768027210884355	47	127
36.768027210884355	36.988616780045355	48	127
36.988616780045355	37.267256235827666	52	127
37.267256235827666	37.51106575963719	47	127
37.51106575963719	37.74324263038549	48	127
37.74324263038549	37.85934240362812	54	127
37.85934240362812	37.97546485260771	52	127
37.97546485260771	38.26571428571429	54	127
38.26571428571429	38.41664399092971	48	127
38.41664399092971	38.50952380952381	47	127
38.50952380952381	38.71850340136054	48	127
38.71850340136054	38.8578231292517	55	127
38.8578231292517	39.00873015873016	54	127
39.00873015873016	39.25256235827664	55	127
39.25256235827664	39.39185941043084	48	127
39.39185941043084	39.53120181405896	47	127
39.53120181405896	39.821451247165534	48	127
39.821451247165534	39.937551020408165	57	127
39.937551020408165	40.018798185941044	55	127
40.018798185941044	40.21619047619048	57	127
40.21619047619048	40.49482993197279	48	127
40.49482993197279	40.634149659863944	47	127
40.634149659863944	40.79668934240363	50	127
40.79668934240363	40.85473922902494	52	127
40.85473922902494	40.93600907029479	54	127
40.93600907029479	41.2146485260771	55	127
41.2146485260771	41.470068027210885	62	127
41.470068027210885	41.71387755102041	60	127
41.71387755102041	41.86480725623583	54	127
41.86480725623583	42.02734693877551	52	127
42.02734693877551	42.236326530612246	54	127
42.236326530612246	42.48013605442177	45	127
42.48013605442177	42.60784580498866	43	127
42.60784580498866	42.71233560090703	47	127
42.71233560090703	42.85165532879819	48	127
42.85165532879819	42.990975056689344	50	127
42.990975056689344	43.21156462585034	52	127
43.21156462585034	43.490204081632655	59	127
43.490204081632655	43.73401360544218	57	127
43.73401360544218	43.86172335600907	50	127
43.86172335600907	43.96621315192744	48	127
43.96621315192744	44.24485260770975	50	127
44.24485260770975	44.45383219954648	42	127
44.45383219954648	44.569931972789114	40	127
44.569931972789114	44.686031746031745	43	127
44.686031746031745	44.81374149659864	45	127
44.81374149659864	44.953061224489794	47	127
44.953061224489794	45.19687074829932	48	127
45.19687074829932	45.44068027210884	55	127
45.44068027210884	45.568390022675736	54	127
45.568390022675736	45.68448979591837	57	127
45.68448979591837	45.77736961451247	59	127
45.77736961451247	45.88185941043084	60	127
45.88185941043084	46.14888888888889	62	127
46.14888888888889	46.439138321995465	48	127
46.439138321995465	46.659727891156464	47	127
46.659727891156464	46.94997732426304	55	127
46.94997732426304	47.27505668934241	38	127
47.27505668934241	47.56530612244898	54	127
47.56530612244898	47.82072562358277	55	127
47.82072562358277	47.98326530612245	59	127
47.98326530612245	48.09936507936508	60	127
48.09936507936508	48.29673469387755	62	127
48.29673469387755	48.44766439909297	55	127
48.44766439909297	48.5637641723356	57	127
48.5637641723356	48.86562358276644	59	127
48.86562358276644	49.14426303854875	55	127
49.14426303854875	49.35324263038549	50	127
49.35324263038549	49.55061224489796	54	127
49.55061224489796	50.85092970521542	55	127
49.55061224489796	50.85092970521542	43	127
50.85092970521542	51.11795918367347	55	127
51.11795918367347	51.33854875283447	57	127
51.33854875283447	51.61718820861678	59	127
51.61718820861678	51.84938775510204	60	127
51.84938775510204	52.00031746031746	59	127
52.00031746031746	52.15124716553288	57	127
52.15124716553288	52.38344671201814	55	127
52.38344671201814	52.59242630385488	53	127
52.59242630385488	52.90589569160998	52	127
52.90589569160998	53.03360544217687	55	127
53.03360544217687	53.161315192743764	53	127
53.161315192743764	53.48639455782313	52	127
53.48639455782313	53.73020408163265	50	127
53.73020408163265	53.985623582766436	48	127
53.985623582766436	54.13655328798186	43	127
54.13655328798186	54.24104308390023	41	127
54.24104308390023	54.50807256235828	40	127
54.50807256235828	54.763492063492066	38	127
54.763492063492066	55.00730158730159	36	127
55.00730158730159	55.27433106575964	48	127
55.27433106575964	55.48331065759637	50	127
55.48331065759637	55.77356009070295	52	127
55.77356009070295	56.02897959183674	53	127
56.02897959183674	56.179909297052156	52	127
56.179909297052156	56.31922902494331	50	127
56.31922902494331	56.5746485260771	52	127
56.5746485260771	56.84167800453515	55	127
56.84167800453515	57.13192743764172	50	127
57.13192743764172	57.28285714285714	48	127
57.28285714285714	57.38734693877551	47	127
57.38734693877551	57.61954648526077	48	127
57.61954648526077	57.909795918367344	55	127
57.909795918367344	58.45546485260771	47	127
58.45546485260771	58.73410430839002	45	127
58.73410430839002	59.04757369614512	43	127
59.04757369614512	59.15206349206349	55	127
59.15206349206349	59.25655328798186	53	127
59.25655328798186	59.36104308390023	52	127
59.36104308390023	59.50036281179138	53	127
59.50036281179138	59.76739229024943	55	127
59.76739229024943	60.03442176870748	52	127
60.03442176870748	60.28984126984127	45	127
60.28984126984127	60.51043083900227	55	127
60.51043083900227	60.74263038548753	60	127
60.74263038548753	61.02126984126984	52	127
61.02126984126984	61.11414965986395	53	127
61.11414965986395	61.24185941043084	52	127
61.24185941043084	61.39278911564626	50	127
61.39278911564626	61.52049886621315	52	127
61.52049886621315	61.7875283446712	53	127
61.7875283446712	62.05455782312925	50	127
62.05455782312925	62.30997732426304	43	127
62.30997732426304	62.55378684807256	53	127
62.55378684807256	62.797596371882086	59	127
62.797596371882086	63.018185941043086	50	127
63.018185941043086	63.169115646258504	52	127
63.169115646258504	63.25038548752835	50	127
63.25038548752835	63.36648526077097	48	127
63.36648526077097	63.47097505668934	50	127
63.47097505668934	63.714784580498865	52	127
63.714784580498865	63.95859410430839	48	127
63.95859410430839	64.08630385487528	41	127
64.08630385487528	64.2372335600907	45	127
64.2372335600907	64.3649433106576	47	127
64.3649433106576	64.49265306122449	48	127
64.49265306122449	64.7132426303855	50	127
64.7132426303855	64.93383219954649	53	127
64.93383219954649	65.25891156462585	52	127
65.25891156462585	65.49111111111111	48	127
65.49111111111111	65.76975056689342	43	127
65.76975056689342	66.0715873015873	47	127
66.0715873015873	66.67532879818594	48	127
66.67532879818594	67.23260770975057	36	127
67.23260770975057	67.36031746031746	52	127
67.36031746031746	67.49963718820862	50	127
67.49963718820862	67.65056689342404	48	127
67.65056689342404	67.76666666666667	47	127
67.76666666666667	68.02208616780045	48	127
68.02208616780045	68.31233560090703	52	127
68.31233560090703	68.55614512471655	54	127
68.55614512471655	68.81156462585034	57	127
68.81156462585034	68.99732426303855	62	127
68.99732426303855	69.29918367346939	54	127
69.29918367346939	69.61265306122449	55	127
69.61265306122449	69.9841723356009	47	127
69.9841723356009	70.26278911564626	45	127
70.26278911564626	70.61111111111111	43	127
70.61111111111111	71.4354195011338	42	127
70.61111111111111	71.4354195011338	45	127
70.61111111111111	71.4354195011338	50	127
70.61111111111111	71.4354195011338	57	127
71.4354195011338	71.55151927437642	50	127
71.55151927437642	71.66759637188208	52	127
71.66759637188208	71.81854875283447	54	127
71.81854875283447	71.9346485260771	55	127
71.9346485260771	72.03913832199547	57	127
72.03913832199547	72.13201814058957	59	127
72.13201814058957	72.39904761904762	60	127
72.39904761904762	72.63124716553288	57	127
72.63124716553288	72.85183673469388	59	127
72.85183673469388	72.96793650793651	50	127
72.96793650793651	73.02598639455782	48	127
73.02598639455782	73.24657596371883	50	127
73.24657596371883	73.50199546485261	52	127
73.50199546485261	73.76902494331065	53	127
73.76902494331065	74.08249433106576	45	127
74.08249433106576	74.3843537414966	47	127
74.3843537414966	74.65138321995465	53	127
74.65138321995465	74.89519274376417	52	127
74.65138321995465	74.89519274376417	48	127
74.89519274376417	75.10417233560091	36	127
75.10417233560091	75.3247619047619	54	127
75.10417233560091	75.3247619047619	50	127
75.3247619047619	75.58018140589569	36	127
75.58018140589569	75.78916099773242	55	127
75.58018140589569	75.78916099773242	52	127
75.78916099773242	75.98650793650793	36	127
75.98650793650793	76.23034013605442	57	127
75.98650793650793	76.23034013605442	54	127
76.23034013605442	76.46253968253968	43	127
76.46253968253968	76.7527664399093	59	127
76.46253968253968	76.7527664399093	55	127
76.7527664399093	76.99659863945578	43	127
76.99659863945578	77.25201814058957	60	127
76.99659863945578	77.25201814058957	57	127
77.25201814058957	77.44938775510204	43	127
77.44938775510204	77.73963718820862	62	127
77.44938775510204	77.73963718820862	59	127
77.73963718820862	77.91378684807256	43	127
77.91378684807256	78.18081632653062	64	127
77.91378684807256	78.18081632653062	60	127
78.18081632653062	78.40140589569161	43	127
78.40140589569161	78.5291156462585	66	127
78.5291156462585	78.66843537414967	60	127
78.66843537414967	78.78453514739229	50	127
78.78453514739229	78.91224489795918	60	127
78.91224489795918	79.0980045351474	66	127
79.0980045351474	79.33020408163266	60	127
79.33020408163266	79.45791383219955	59	127
79.45791383219955	79.55079365079365	62	127
79.55079365079365	79.65528344671202	64	127
79.65528344671202	79.80621315192744	66	127
79.80621315192744	80.06163265306122	67	127
80.06163265306122	80.30541950113378	59	127
80.30541950113378	80.51442176870748	57	127
80.51442176870748	80.76984126984127	67	127
80.76984126984127	80.94399092970522	66	127
80.94399092970522	81.23424036281179	50	127
81.23424036281179	81.38517006802721	55	127
81.38517006802721	81.52448979591837	59	127
81.52448979591837	81.62897959183674	60	127
81.62897959183674	81.76829931972789	62	127
81.76829931972789	82.02371882086167	64	127
82.02371882086167	82.2675283446712	55	127
82.2675283446712	82.49972789115647	54	127
82.49972789115647	82.70868480725623	64	127
82.70868480725623	82.91768707482993	62	127
82.91768707482993	83.18471655328798	47	127
83.18471655328798	83.32401360544218	52	127
83.32401360544218	83.40530612244898	55	127
83.40530612244898	83.52140589569161	57	127
83.52140589569161	83.66072562358276	59	127
83.66072562358276	83.8697052154195	60	127
83.8697052154195	84.12512471655329	52	127
84.12512471655329	84.36893424036282	50	127
84.36893424036282	84.60111111111111	60	127
84.60111111111111	84.83333333333333	59	127
84.83333333333333	85.06553287981859	43	127
85.06553287981859	85.19324263038548	48	127
85.19324263038548	85.2861224489796	47	127
85.2861224489796	85.51832199546486	48	127
85.51832199546486	85.79696145124717	52	127
85.79696145124717	85.99433106575964	47	127
85.99433106575964	86.27297052154195	48	127
86.27297052154195	86.37746031746032	54	127
86.37746031746032	86.51675736961451	52	127
86.51675736961451	86.78380952380952	54	127
86.78380952380952	86.92312925170069	48	127
86.92312925170069	87.03922902494331	47	127
87.03922902494331	87.30625850340137	48	127
87.30625850340137	87.44557823129252	55	127
87.44557823129252	87.53843537414966	54	127
87.53843537414966	87.79387755102042	55	127
87.79387755102042	87.92158730158731	48	127
87.92158730158731	88.01446712018141	47	127
88.01446712018141	88.24666666666667	48	127
88.24666666666667	88.39759637188209	57	127
88.39759637188209	88.52530612244898	55	127
88.52530612244898	88.79231292517007	57	127
88.79231292517007	89.03614512471655	48	127
89.03614512471655	89.17544217687075	47	127
89.17544217687075	89.33800453514739	50	127
89.33800453514739	89.40766439909297	52	127
89.40766439909297	89.50054421768708	54	127
89.50054421768708	89.76757369614512	55	127
89.76757369614512	90.01138321995465	62	127
90.01138321995465	90.30160997732426	60	127
90.30160997732426	90.45253968253968	54	127
90.45253968253968	90.58024943310657	52	127
90.58024943310657	90.80086167800454	54	127
90.80086167800454	91.05628117913832	45	127
91.05628117913832	91.11433106575964	43	127
91.11433106575964	91.24204081632654	47	127
91.24204081632654	91.3465306122449	48	127
91.3465306122449	91.46263038548753	50	127
91.46263038548753	91.71804988662132	52	127
91.71804988662132	91.99668934240363	59	127
91.99668934240363	92.22888888888889	57	127
92.22888888888889	92.34496598639456	50	127
92.34496598639456	92.49591836734695	48	127
92.49591836734695	92.70489795918367	50	127
92.70489795918367	92.90226757369615	42	127
92.90226757369615	93.0415873015873	40	127
93.0415873015873	93.19251700680272	43	127
93.19251700680272	93.33183673469388	45	127
93.33183673469388	93.4479365079365	47	127
93.4479365079365	93.70335600907029	48	127
93.70335600907029	93.97038548752835	55	127
93.97038548752835	94.07487528344672	54	127
94.07487528344672	94.17936507936508	57	127
94.17936507936508	94.30707482993198	59	127
94.30707482993198	94.43478458049887	60	127
94.43478458049887	94.70181405895691	62	127
94.70181405895691	94.9920634920635	48	127
94.9920634920635	95.16621315192744	47	127
95.16621315192744	95.44485260770975	55	127
95.44485260770975	95.74671201814058	38	127
95.74671201814058	96.08340136054422	54	127
96.08340136054422	96.3736507936508	55	127
96.3736507936508	96.52458049886621	59	127
96.52458049886621	96.66390022675736	60	127
96.66390022675736	96.9077097505669	62	127
96.9077097505669	97.04702947845804	55	127
97.04702947845804	97.17473922902494	57	127
97.17473922902494	97.44176870748299	59	127
97.44176870748299	97.68557823129251	55	127
97.68557823129251	97.9409977324263	50	127
97.9409977324263	98.21963718820862	54	127
98.21963718820862	99.43868480725624	55	127
98.21963718820862	99.43868480725624	43	127
99.43868480725624	99.65927437641723	62	127
99.65927437641723	99.89147392290249	64	127
99.89147392290249	100.13528344671202	66	127
100.13528344671202	100.41392290249433	67	127
100.41392290249433	100.56485260770975	66	127
100.56485260770975	100.65773242630385	64	127
100.65773242630385	100.92476190476191	62	127
100.92476190476191	101.22662131519274	60	127
101.22662131519274	101.48204081632653	59	127
101.48204081632653	101.5865306122449	62	127
101.5865306122449	101.679410430839	60	127
101.679410430839	101.91160997732426	59	127
101.91160997732426	102.16702947845805	57	127
102.16702947845805	102.4340589569161	55	127
102.4340589569161	102.561768707483	50	127
102.561768707483	102.68947845804989	48	127
102.68947845804989	102.95650793650793	47	127
102.95650793650793	103.20031746031746	45	127
103.20031746031746	103.45573696145125	43	127
103.45573696145125	103.73437641723356	59	127
103.73437641723356	103.97818594104308	60	127
103.97818594104308	104.24521541950114	62	127
104.24521541950114	104.3497052154195	64	127
104.3497052154195	104.45419501133787	62	127
104.45419501133787	104.54707482993197	60	127
104.54707482993197	104.68639455782314	59	127
104.68639455782314	104.90698412698413	60	127
104.90698412698413	105.13918367346939	57	127
105.13918367346939	105.4178231292517	53	127
105.4178231292517	105.56875283446712	50	127
105.56875283446712	105.70807256235828	52	127
105.70807256235828	105.94027210884354	53	127
105.94027210884354	106.20730158730159	59	127
106.20730158730159	106.43950113378685	56	127
106.43950113378685	106.69492063492063	54	127
106.69492063492063	106.9271201814059	52	127
106.9271201814059	107.20575963718821	50	127
107.20575963718821	107.3334693877551	48	127
107.3334693877551	107.4263492063492	47	127
107.4263492063492	107.57727891156462	48	127
107.57727891156462	107.72820861678005	50	127
107.72820861678005	107.91396825396825	52	127
107.91396825396825	108.13455782312926	48	127
108.13455782312926	108.43641723356009	41	127
108.43641723356009	108.69183673469388	45	127
108.69183673469388	108.97047619047619	48	127
108.97047619047619	109.17945578231293	52	127
109.17945578231293	109.31877551020408	50	127
109.31877551020408	109.41165532879819	48	127
109.41165532879819	109.49292517006803	50	127
109.49292517006803	109.60902494331066	52	127
109.60902494331066	109.89927437641724	53	127
109.89927437641724	110.16630385487528	50	127
110.16630385487528	110.41011337868481	56	127
110.41011337868481	110.61909297052154	50	127
110.61909297052154	110.87451247165532	40	127
110.87451247165532	111.14154195011338	59	127
111.14154195011338	111.26925170068027	60	127
111.26925170068027	111.36213151927437	59	127
111.36213151927437	111.47823129251701	57	127
111.47823129251701	111.6059410430839	59	127
111.6059410430839	111.86136054421769	60	127
111.86136054421769	112.05873015873016	57	127
112.05873015873016	112.16321995464853	53	127
112.16321995464853	112.30253968253969	52	127
112.30253968253969	112.43024943310658	50	127
112.43024943310658	112.55795918367347	52	127
112.55795918367347	112.83659863945579	53	127
112.83659863945579	113.16167800453515	50	127
113.16167800453515	113.31260770975057	47	127
113.31260770975057	113.46353741496598	45	127
113.46353741496598	113.5564172335601	44	127
113.5564172335601	113.63768707482993	45	127
113.63768707482993	113.93954648526078	47	127
113.93954648526078	114.29945578231292	50	127
114.29945578231292	115.14698412698412	40	127
115.14698412698412	115.23986394557824	52	127
115.23986394557824	115.39079365079365	54	127
115.39079365079365	115.5301133786848	56	127
115.5301133786848	115.6578231292517	57	127
115.6578231292517	115.77392290249433	59	127
115.77392290249433	115.84358276643991	60	127
115.84358276643991	116.12222222222222	62	127
116.12222222222222	116.33120181405896	59	127
116.33120181405896	116.47052154195012	60	127
116.47052154195012	116.62145124716554	59	127
116.62145124716554	116.77238095238096	57	127
116.77238095238096	116.88848072562358	56	127
116.88848072562358	117.06263038548752	57	127
117.06263038548752	117.29482993197279	48	127
117.29482993197279	117.60829931972789	50	127
117.60829931972789	117.85210884353741	59	127
117.85210884353741	118.11913832199546	52	127
118.11913832199546	118.4209977324263	56	127
118.4209977324263	119.44267573696145	57	127
118.4209977324263	119.44267573696145	52	127
118.4209977324263	119.44267573696145	45	127
119.44267573696145	119.60521541950114	60	127
119.60521541950114	119.74453514739228	62	127
119.74453514739228	120.03478458049887	64	127
120.03478458049887	120.17410430839003	57	127
120.17410430839003	120.29020408163265	59	127
120.29020408163265	120.59206349206349	60	127
120.59206349206349	120.73138321995465	52	127
120.73138321995465	120.88231292517007	53	127
120.88231292517007	121.14934240362811	55	127
121.14934240362811	121.277052154195	58	127
121.277052154195	121.4047619047619	57	127
121.4047619047619	121.6253514739229	58	127
121.6253514739229	121.89238095238095	48	127
121.89238095238095	122.17102040816326	40	127
122.17102040816326	122.42643990929706	58	127
122.42643990929706	122.68185941043085	57	127
122.68185941043085	122.87922902494331	55	127
122.87922902494331	123.18108843537415	57	127
123.18108843537415	123.28557823129252	53	127
123.28557823129252	123.36684807256236	52	127
123.36684807256236	123.6687074829932	53	127
123.6687074829932	123.93573696145124	57	127
123.93573696145124	124.0750566893424	49	127
124.0750566893424	124.2027664399093	50	127
124.2027664399093	124.28403628117914	52	127
124.28403628117914	124.42335600907029	53	127
124.42335600907029	124.67877551020408	55	127
124.67877551020408	124.91097505668934	45	127
124.91097505668934	125.20122448979592	38	127
125.20122448979592	125.30571428571429	50	127
125.30571428571429	125.41020408163266	52	127
125.41020408163266	125.59596371882085	53	127
125.59596371882085	125.74689342403629	53	127
125.74689342403629	125.88621315192744	55	127
125.88621315192744	126.1184126984127	57	127
126.1184126984127	126.19968253968254	59	127
126.19968253968254	126.32739229024943	60	127
126.32739229024943	126.54798185941043	62	127
126.54798185941043	126.81501133786848	60	127
126.81501133786848	126.94272108843538	59	127
126.94272108843538	127.058820861678	53	127
127.058820861678	127.17492063492064	43	127
127.17492063492064	127.31424036281179	53	127
127.31424036281179	127.51160997732427	59	127
127.51160997732427	127.69736961451247	53	127
127.69736961451247	127.84829931972789	52	127
127.84829931972789	127.9992290249433	55	127
127.9992290249433	128.1269387755102	57	127
128.1269387755102	128.26625850340136	59	127
128.26625850340136	128.5448979591837	60	127
128.5448979591837	128.8119274376417	52	127
128.8119274376417	128.98607709750567	50	127
128.98607709750567	129.21825396825398	60	127
129.21825396825398	129.47367346938776	59	127
129.47367346938776	129.6942857142857	43	127
129.6942857142857	129.83360544217686	48	127
129.83360544217686	129.96131519274377	52	127
129.96131519274377	130.10063492063492	53	127
130.10063492063492	130.21673469387756	55	127
130.21673469387756	130.39086167800454	57	127
130.39086167800454	130.63469387755103	48	127
130.63469387755103	130.94816326530614	47	127
130.94816326530614	131.1687528344671	57	127
131.1687528344671	131.4241723356009	55	127
131.4241723356009	131.63315192743764	40	127
131.63315192743764	131.737641723356	45	127
131.737641723356	131.85374149659864	48	127
131.85374149659864	131.9930612244898	50	127
131.9930612244898	132.09755102040816	52	127
132.09755102040816	132.34136054421768	53	127
132.34136054421768	132.65482993197278	45	127
132.65482993197278	132.88702947845806	43	127
132.88702947845806	133.03795918367348	53	127
133.03795918367348	133.281768707483	52	127
133.281768707483	133.5952380952381	36	127
133.5952380952381	133.8738775510204	41	127
133.8738775510204	133.98997732426304	57	127
133.98997732426304	134.07122448979592	55	127
134.07122448979592	134.29183673469387	53	127
134.29183673469387	134.43113378684808	53	127
134.43113378684808	134.5356462585034	52	127
134.5356462585034	134.80267573696145	50	127
134.80267573696145	134.89555555555555	60	127
134.89555555555555	135.02326530612245	59	127
135.02326530612245	135.24385487528346	60	127
135.24385487528346	135.37156462585034	59	127
135.37156462585034	135.4760544217687	57	127
135.4760544217687	135.69664399092972	55	127
135.69664399092972	135.80113378684808	53	127
135.80113378684808	135.9520634920635	52	127
135.9520634920635	136.17265306122448	50	127
136.17265306122448	136.46290249433108	59	127
136.46290249433108	136.90408163265306	60	127
136.90408163265306	137.0434013605442	45	127
137.0434013605442	137.13625850340136	58	127
137.13625850340136	137.25238095238095	57	127
137.25238095238095	137.3336507936508	55	127
137.3336507936508	137.47297052154195	53	127
137.47297052154195	137.6006575963719	52	127
137.6006575963719	137.79804988662133	53	127
137.79804988662133	138.06507936507936	57	127
138.06507936507936	138.3321088435374	52	127
138.3321088435374	138.61074829931974	53	127
138.61074829931974	138.76167800453516	58	127
138.76167800453516	138.84294784580499	57	127
138.84294784580499	139.10997732426304	58	127
139.10997732426304	139.2492970521542	53	127
139.2492970521542	139.3421768707483	52	127
139.3421768707483	139.59759637188208	53	127
139.59759637188208	139.73691609977325	60	127
139.73691609977325	139.85301587301586	58	127
139.85301587301586	140.0503628117914	60	127
140.0503628117914	140.14326530612246	53	127
140.14326530612246	140.27097505668934	52	127
140.27097505668934	140.5031746031746	53	127
140.5031746031746	140.61927437641722	62	127
140.61927437641722	140.70054421768708	60	127
140.70054421768708	140.89791383219955	62	127
140.89791383219955	141.14172335600907	53	127
141.14172335600907	141.28102040816327	52	127
141.28102040816327	141.39714285714285	50	127
141.39714285714285	141.54807256235827	48	127
141.54807256235827	141.65256235827664	50	127
141.65256235827664	141.94278911564626	52	127
141.94278911564626	142.20984126984126	55	127
142.20984126984126	142.50009070294786	60	127
142.50009070294786	142.62780045351474	59	127
142.62780045351474	142.68585034013606	57	127
142.68585034013606	142.90643990929706	55	127
142.90643990929706	143.16185941043085	53	127
143.16185941043085	143.41727891156464	52	127
143.41727891156464	143.68428571428572	48	127
143.68428571428572	143.98614512471656	43	127
143.98614512471656	144.28802721088437	47	127
144.28802721088437	144.5550566893424	36	127
144.5550566893424	144.65954648526076	60	127
144.65954648526076	144.76403628117913	59	127
144.76403628117913	144.98462585034014	60	127
144.98462585034014	145.11231292517007	55	127
145.11231292517007	145.2516553287982	53	127
145.2516553287982	145.44902494331066	55	127
145.44902494331066	145.5767120181406	52	127
145.5767120181406	145.6812244897959	50	127
145.6812244897959	145.94825396825397	52	127
145.94825396825397	146.2384807256236	48	127
146.2384807256236	147.56204081632654	52	127
146.2384807256236	147.56204081632654	36	127
146.2384807256236	147.56204081632654	43	127
146.2384807256236	147.56204081632654	60	127
147.56204081632654	147.8871201814059	62	127
147.8871201814059	148.15414965986395	64	127
148.15414965986395	148.45600907029478	66	127
148.45600907029478	148.7346485260771	67	127
148.7346485260771	148.85074829931972	66	127
148.85074829931972	148.9552380952381	64	127
148.9552380952381	149.2338775510204	62	127
149.2338775510204	149.47768707482993	60	127
149.47768707482993	149.744716553288	59	127
149.744716553288	149.82598639455782	62	127
149.82598639455782	149.91884353741497	60	127
149.91884353741497	150.22072562358278	59	127
150.22072562358278	150.4877551020408	57	127
150.4877551020408	150.73156462585035	55	127
150.73156462585035	150.85927437641723	50	127
150.85927437641723	150.98698412698414	48	127
150.98698412698414	151.20757369614512	47	127
151.20757369614512	151.4629931972789	45	127
151.4629931972789	151.7184126984127	43	127
151.7184126984127	151.96219954648527	59	127
151.96219954648527	152.19442176870749	60	127
152.19442176870749	152.46145124716554	62	127
152.46145124716554	152.6007709750567	64	127
152.6007709750567	152.71687074829933	62	127
152.71687074829933	152.8445804988662	60	127
152.8445804988662	152.96068027210885	59	127
152.96068027210885	153.18126984126985	60	127
153.18126984126985	153.37863945578232	57	127
153.37863945578232	153.65727891156462	53	127
153.65727891156462	153.80820861678004	50	127
153.80820861678004	153.92430839002267	52	127
153.92430839002267	154.2145351473923	53	127
154.2145351473923	154.46995464852608	59	127
154.46995464852608	154.7021768707483	56	127
154.7021768707483	154.94598639455782	54	127
154.94598639455782	155.18979591836734	52	127
155.18979591836734	155.50326530612244	50	127
155.50326530612244	155.61936507936508	48	127
155.61936507936508	155.73546485260772	47	127
155.73546485260772	155.87478458049887	48	127
155.87478458049887	155.96766439909297	50	127
155.96766439909297	156.21147392290248	52	127
156.21147392290248	156.4901133786848	48	127
156.4901133786848	156.71070294784582	41	127
156.71070294784582	156.9661224489796	45	127
156.9661224489796	157.18671201814058	48	127
157.18671201814058	157.43049886621316	52	127
157.43049886621316	157.56984126984128	50	127
157.56984126984128	157.69755102040816	48	127
157.69755102040816	157.86009070294784	50	127
157.86009070294784	157.97619047619048	52	127
157.97619047619048	158.18517006802722	53	127
158.18517006802722	158.42897959183674	50	127
158.42897959183674	158.67278911564625	56	127
158.67278911564625	158.95142857142858	50	127
158.95142857142858	159.18362811791383	40	127
159.18362811791383	159.47387755102042	59	127
159.47387755102042	159.62480725623584	60	127
159.62480725623584	159.74090702947845	59	127
159.74090702947845	159.8337641723356	57	127
159.8337641723356	159.984716553288	59	127
159.984716553288	160.28657596371883	60	127
160.28657596371883	160.49555555555557	57	127
160.49555555555557	160.62326530612245	53	127
160.62326530612245	160.7625850340136	52	127
160.7625850340136	160.86707482993197	50	127
160.86707482993197	160.99478458049887	52	127
160.99478458049887	161.2385941043084	53	127
161.2385941043084	161.52884353741496	50	127
161.52884353741496	161.69138321995464	47	127
161.69138321995464	161.85392290249433	45	127
161.85392290249433	162.00485260770975	44	127
162.00485260770975	162.15578231292517	45	127
162.15578231292517	162.44603174603174	47	127
162.44603174603174	162.72467120181406	50	127
162.72467120181406	163.5954195011338	40	127
163.5954195011338	163.69990929705216	52	127
163.69990929705216	163.85083900226758	54	127
163.85083900226758	163.96693877551022	56	127
163.96693877551022	164.0946485260771	57	127
164.0946485260771	164.21074829931973	59	127
164.21074829931973	164.32684807256237	60	127
164.32684807256237	164.55904761904762	62	127
164.55904761904762	164.79122448979592	59	127
164.79122448979592	164.9421768707483	60	127
164.9421768707483	165.08149659863946	59	127
165.08149659863946	165.20920634920634	57	127
165.20920634920634	165.33691609977325	56	127
165.33691609977325	165.54589569160999	57	127
165.54589569160999	165.82453514739228	48	127
165.82453514739228	166.0451247165533	50	127
166.0451247165533	166.31215419501135	59	127
166.31215419501135	166.6024036281179	52	127
166.6024036281179	166.91587301587302	56	127
166.91587301587302	167.93755102040816	57	127
166.91587301587302	167.93755102040816	52	127
166.91587301587302	167.93755102040816	45	127
167.93755102040816	168.10009070294785	60	127
168.10009070294785	168.25102040816327	62	127
168.25102040816327	168.54126984126984	64	127
168.54126984126984	168.7154195011338	57	127
168.7154195011338	168.84312925170067	59	127
168.84312925170067	169.1449886621315	60	127
169.1449886621315	169.29591836734693	52	127
169.29591836734693	169.4004081632653	53	127
169.4004081632653	169.66743764172335	55	127
169.66743764172335	169.81836734693877	58	127
169.81836734693877	169.9692970521542	57	127
169.9692970521542	170.1898866213152	58	127
170.1898866213152	170.45691609977325	48	127
170.45691609977325	170.6891156462585	40	127
170.6891156462585	170.96775510204083	58	127
170.96775510204083	171.28122448979593	57	127
171.28122448979593	171.52503401360545	55	127
171.52503401360545	171.74560090702948	57	127
171.74560090702948	171.87333333333333	53	127
171.87333333333333	171.96621315192743	52	127
171.96621315192743	172.1984126984127	53	127
172.1984126984127	172.51185941043084	57	127
172.51185941043084	172.62798185941043	49	127
172.62798185941043	172.74408163265306	50	127
172.74408163265306	172.89501133786848	52	127
172.89501133786848	172.98789115646258	53	127
172.98789115646258	173.18526077097505	55	127
173.18526077097505	173.4290702947846	45	127
173.4290702947846	173.6728798185941	38	127
173.6728798185941	173.78895691609978	50	127
173.78895691609978	173.91668934240363	52	127
173.91668934240363	174.19532879818595	53	127
174.19532879818595	174.3346485260771	53	127
174.3346485260771	174.40428571428572	55	127
174.40428571428572	174.70616780045353	57	127
174.70616780045353	174.8338775510204	59	127
174.8338775510204	174.93836734693878	60	127
174.93836734693878	175.17054421768708	62	127
175.17054421768708	175.42596371882087	60	127
175.42596371882087	175.57689342403629	59	127
175.57689342403629	175.7162358276644	53	127
175.7162358276644	175.8091156462585	43	127
175.8091156462585	175.92521541950114	53	127
175.92521541950114	176.14580498866212	59	127
176.14580498866212	176.34317460317462	53	127
176.34317460317462	176.49410430839004	52	127
176.49410430839004	176.5985941043084	55	127
176.5985941043084	176.73791383219955	57	127
176.73791383219955	176.8772335600907	59	127
176.8772335600907	177.12104308390022	60	127
177.12104308390022	177.34163265306123	52	127
177.34163265306123	177.60866213151928	50	127
177.60866213151928	177.8524716553288	60	127
177.8524716553288	178.09628117913832	59	127
178.09628117913832	178.29365079365078	43	127
178.29365079365078	178.39814058956915	48	127
178.39814058956915	178.54907029478457	52	127
178.54907029478457	178.68839002267575	53	127
178.68839002267575	178.80448979591836	55	127
178.80448979591836	179.00183673469388	57	127
179.00183673469388	179.26888888888888	48	127
179.26888888888888	179.50108843537416	47	127
179.50108843537416	179.75650793650794	57	127
179.75650793650794	179.93065759637187	55	127
179.93065759637187	180.19768707482993	40	127
180.19768707482993	180.33698412698413	45	127
180.33698412698413	180.4298866213152	48	127
180.4298866213152	180.56920634920635	50	127
180.56920634920635	180.685306122449	52	127
180.685306122449	180.88267573696146	53	127
180.88267573696146	181.12648526077098	45	127
181.12648526077098	181.41673469387754	43	127
181.41673469387754	181.66052154195012	53	127
181.66052154195012	181.88113378684807	52	127
181.88113378684807	182.1829931972789	36	127
182.1829931972789	182.46163265306123	41	127
182.46163265306123	182.57773242630387	57	127
182.57773242630387	182.68219954648526	55	127
182.68219954648526	182.90281179138321	53	127
182.90281179138321	183.04210884353742	53	127
183.04210884353742	183.16984126984127	52	127
183.16984126984127	183.40201814058958	50	127
183.40201814058958	183.552947845805	60	127
183.552947845805	183.64585034013606	59	127
183.64585034013606	183.88965986394558	60	127
183.88965986394558	184.00575963718822	59	127
184.00575963718822	184.1334693877551	57	127
184.1334693877551	184.33083900226757	55	127
184.33083900226757	184.42369614512472	53	127
184.42369614512472	184.57462585034014	52	127
184.57462585034014	184.86489795918368	50	127
184.86489795918368	185.14353741496598	59	127
185.14353741496598	185.63115646258504	60	127
185.63115646258504	185.78208616780046	45	127
185.78208616780046	185.9214058956916	58	127
185.9214058956916	186.00267573696146	57	127
186.00267573696146	186.13038548752834	55	127
186.13038548752834	186.2348752834467	53	127
186.2348752834467	186.36258503401362	52	127
186.36258503401362	186.62961451247165	53	127
186.62961451247165	186.88503401360543	57	127
186.88503401360543	187.1172335600907	52	127
187.1172335600907	187.41909297052155	53	127
187.41909297052155	187.54680272108843	58	127
187.54680272108843	187.62807256235828	57	127
187.62807256235828	187.88349206349207	58	127
187.88349206349207	188.02281179138322	53	127
188.02281179138322	188.13891156462586	52	127
188.13891156462586	188.42916099773242	53	127
188.42916099773242	188.56848072562357	60	127
188.56848072562357	188.70780045351475	58	127
188.70780045351475	188.87031746031747	60	127
188.87031746031747	188.97480725623583	53	127
188.97480725623583	189.09092970521542	52	127
189.09092970521542	189.38115646258504	53	127
189.38115646258504	189.4740589569161	62	127
189.4740589569161	189.61337868480726	60	127
189.61337868480726	189.81074829931973	62	127
189.81074829931973	190.08938775510205	53	127
190.08938775510205	190.24031746031747	52	127
190.24031746031747	190.3912471655329	50	127
190.3912471655329	190.49573696145126	48	127
190.49573696145126	190.60022675736963	50	127
190.60022675736963	190.86725623582765	52	127
190.86725623582765	191.14589569160998	55	127
191.14589569160998	191.40131519274377	60	127
191.40131519274377	191.5174149659864	59	127
191.5174149659864	191.633514739229	57	127
191.633514739229	191.87732426303856	55	127
191.87732426303856	192.15596371882086	53	127
192.15596371882086	192.48104308390023	52	127
192.48104308390023	192.75968253968253	48	127
192.75968253968253	193.0847619047619	43	127
193.0847619047619	193.42145124716552	47	127
193.42145124716552	193.68848072562358	36	127
193.68848072562358	193.839410430839	60	127
193.839410430839	193.9671201814059	59	127
193.9671201814059	194.2457596371882	60	127
194.2457596371882	194.39668934240362	55	127
194.39668934240362	194.54761904761904	53	127
194.54761904761904	194.8146485260771	55	127
194.8146485260771	194.93074829931973	52	127
194.93074829931973	195.0584580498866	50	127
195.0584580498866	195.32548752834467	52	127
195.32548752834467	195.70861678004536	48	127
195.70861678004536	197.5546031746032	36	127
195.70861678004536	197.5546031746032	43	127
195.70861678004536	197.5546031746032	52	127
195.70861678004536	197.5546031746032	60	127
