# onset,offset,note,velocity
0.09210884353741497	0.5100680272108844	74	127
0.5100680272108844	0.9396371882086167	74	127
0.9512471655328798	1.4272562358276644	74	127
1.4388662131519274	1.8336054421768708	74	127
1.8452154195011339	2.007755102040816	72	127
2.0193650793650795	2.193514739229025	70	127
2.205124716553288	2.576643990929705	72	127
2.5882539682539685	2.9365306122448978	69	127
2.9481632653061225	3.366122448979592	70	127
3.377732426303855	3.784081632653061	67	127
3.784081632653061	3.8653514739229027	75	127
3.784081632653061	3.8653514739229027	67	127
3.8653514739229027	4.202040816326531	67	127
4.213650793650793	4.654829931972789	67	127
4.213650793650793	4.654829931972789	69	127
4.666439909297052	4.852199546485261	65	127
4.863809523809524	5.061179138321996	64	127
5.072766439909297	5.4675283446712015	74	127
5.072766439909297	5.4675283446712015	65	127
5.479138321995465	5.897074829931973	62	127
5.908707482993197	6.257006802721088	63	127
5.908707482993197	6.257006802721088	74	127
6.268616780045352	6.593696145124716	79	127
6.6053061224489795	7.011655328798186	63	127
6.6053061224489795	7.011655328798186	79	127
6.6053061224489795	7.011655328798186	72	127
7.011655328798186	7.359954648526077	79	127
7.359954648526077	7.7430839002267575	62	127
7.359954648526077	7.7430839002267575	79	127
7.359954648526077	7.7430839002267575	70	127
7.754693877551021	7.952063492063492	77	127
7.963673469387755	8.149433106575964	75	127
8.161043083900227	8.52092970521542	77	127
8.161043083900227	8.52092970521542	62	127
8.161043083900227	8.52092970521542	69	127
8.52092970521542	8.857641723356009	74	127
8.86922902494331	9.240770975056689	67	127
8.86922902494331	9.240770975056689	75	127
9.252380952380953	9.565827664399093	55	127
9.577460317460318	9.74	60	127
9.751609977324263	9.937369614512471	70	127
9.948956916099773	10.12312925170068	69	127
10.134739229024943	10.216009070294785	70	127
10.216009070294785	10.30888888888889	72	127
10.30888888888889	10.715238095238096	66	127
10.30888888888889	10.715238095238096	60	127
10.715238095238096	11.017097505668934	74	127
11.028707482993198	11.376984126984127	74	127
11.028707482993198	11.376984126984127	67	127
11.028707482993198	11.376984126984127	58	127
11.388616780045352	11.76013605442177	74	127
11.771746031746032	12.178095238095239	74	127
11.771746031746032	12.178095238095239	64	127
11.771746031746032	12.178095238095239	57	127
12.189705215419501	12.352244897959183	72	127
12.363854875283447	12.561224489795919	70	127
12.572834467120181	12.967573696145125	66	127
12.572834467120181	12.967573696145125	62	127
12.572834467120181	12.967573696145125	72	127
12.967573696145125	13.281043083900228	69	127
13.281043083900228	13.640952380952381	55	127
13.281043083900228	13.640952380952381	70	127
13.281043083900228	13.640952380952381	67	127
13.640952380952381	13.815102040816326	65	127
13.815102040816326	14.047301587301588	63	127
14.047301587301588	14.36077097505669	74	127
14.047301587301588	14.36077097505669	65	127
14.047301587301588	14.36077097505669	82	127
14.372380952380952	14.77873015873016	62	127
14.790340136054422	15.16185941043084	82	127
14.790340136054422	15.16185941043084	63	127
14.790340136054422	15.16185941043084	72	127
15.173469387755102	15.266349206349206	81	127
15.277959183673469	15.463718820861677	79	127
15.475328798185942	15.66108843537415	81	127
15.672698412698413	15.870068027210884	78	127
15.881678004535148	16.264807256235827	79	127
16.276394557823128	16.473786848072564	62	127
16.276394557823128	16.473786848072564	72	127
16.276394557823128	16.473786848072564	78	127
16.485396825396826	16.705986394557822	75	127
16.717573696145124	16.926575963718822	74	127
16.938185941043084	17.11233560090703	72	127
17.11233560090703	17.321315192743764	70	127
17.321315192743764	17.530294784580498	79	127
17.530294784580498	17.68122448979592	69	127
17.68122448979592	17.8553514739229	67	127
17.86698412698413	18.02952380952381	62	127
18.04113378684807	18.23848072562358	69	127
18.25011337868481	18.389433106575964	73	127
18.401043083900227	18.598412698412698	76	127
18.61002267573696	18.80736961451247	77	127
18.819002267573698	19.01637188208617	81	127
19.02798185941043	19.202131519274378	74	127
19.21374149659864	19.306621315192743	72	127
19.318208616780044	19.37628117913832	71	127
19.387891156462587	19.585260770975058	74	127
19.59687074829932	19.771020408163267	77	127
19.78263038548753	19.875510204081632	80	127
19.887097505668933	20.06126984126984	79	127
20.06126984126984	20.258639455782312	77	127
20.258639455782312	20.351519274376418	75	127
20.351519274376418	20.537278911564627	74	127
20.537278911564627	20.723038548752836	75	127
20.723038548752836	20.89718820861678	67	127
20.908798185941045	21.024897959183672	72	127
21.036507936507938	21.23387755102041	74	127
21.245487528344672	21.40800453514739	75	127
21.41963718820862	21.605396825396827	79	127
21.61700680272109	21.77954648526077	72	127
21.79113378684807	21.988526077097507	70	127
22.00013605442177	22.139455782312925	69	127
22.151065759637188	22.290385487528344	72	127
22.301972789115645	22.49936507936508	75	127
22.510975056689343	22.638684807256237	79	127
22.6502947845805	22.812834467120183	77	127
22.812834467120183	23.010204081632654	75	127
23.021814058956917	23.161133786848072	74	127
23.161133786848072	23.33528344671202	72	127
23.33528344671202	23.53265306122449	74	127
23.53265306122449	23.660362811791384	69	127
23.660362811791384	23.857732426303855	70	127
23.857732426303855	23.973832199546486	66	127
23.985442176870748	24.147981859410432	67	127
24.159591836734695	24.322131519274375	70	127
24.322131519274375	24.473061224489797	74	127
24.48467120181406	24.670430839002268	65	127
24.68204081632653	24.879410430839002	64	127
24.891020408163264	25.030340136054424	67	127
25.041950113378686	25.204489795918366	70	127
25.21609977324263	25.401859410430838	74	127
25.413469387755104	25.51795918367347	72	127
25.52956916099773	25.680498866213153	69	127
25.692108843537415	25.877868480725624	70	127
25.889478458049886	26.063628117913833	67	127
26.075238095238095	26.226167800453513	66	127
26.226167800453513	26.43514739229025	69	127
26.43514739229025	26.574467120181406	72	127
26.574467120181406	26.713786848072562	75	127
26.713786848072562	26.922766439909296	74	127
26.922766439909296	27.120136054421767	72	127
27.131746031746033	27.329115646258504	70	127
27.340725623582767	27.456825396825398	69	127
27.46843537414966	27.65419501133787	70	127
27.66580498866213	27.81673469387755	67	127
27.828344671201815	27.93283446712018	74	127
27.944444444444443	28.11859410430839	65	127
28.11859410430839	28.31596371882086	63	127
28.31596371882086	28.478503401360545	74	127
28.490113378684807	28.68748299319728	79	127
28.69909297052154	28.896462585034012	72	127
28.908072562358278	29.291201814058958	74	127
28.908072562358278	29.291201814058958	78	127
29.30281179138322	29.720770975056688	62	127
29.732380952380954	30.03424036281179	82	127
29.732380952380954	30.03424036281179	67	127
29.732380952380954	30.03424036281179	74	127
30.03424036281179	30.440589569161	82	127
30.03424036281179	30.440589569161	67	127
30.03424036281179	30.440589569161	74	127
30.440589569161	30.881768707482994	63	127
30.440589569161	30.881768707482994	82	127
30.440589569161	30.881768707482994	72	127
30.881768707482994	31.10235827664399	81	127
31.113968253968252	31.311337868480727	79	127
31.311337868480727	31.717687074829932	81	127
31.311337868480727	31.717687074829932	65	127
31.311337868480727	31.717687074829932	72	127
31.729297052154195	32.12403628117914	81	127
31.729297052154195	32.12403628117914	65	127
31.729297052154195	32.12403628117914	72	127
32.1356462585034	32.40267573696145	80	127
32.1356462585034	32.611655328798186	62	127
32.1356462585034	32.611655328798186	70	127
32.414263038548754	32.611655328798186	79	127
32.62326530612245	32.84385487528345	80	127
32.84385487528345	33.04120181405896	78	127
33.05281179138322	33.45918367346939	70	127
33.05281179138322	33.45918367346939	63	127
33.05281179138322	33.45918367346939	79	127
33.47079365079365	33.87714285714286	77	127
33.47079365079365	33.87714285714286	62	127
33.47079365079365	33.87714285714286	70	127
33.83070294784581	34.23705215419501	75	127
33.88875283446712	34.28349206349206	60	127
33.88875283446712	34.07451247165533	67	127
34.086122448979594	34.28349206349206	65	127
34.295102040816325	34.469251700680275	65	127
34.295102040816325	34.678231292517005	74	127
34.48086167800454	34.678231292517005	63	127
34.68981859410431	34.898820861678004	63	127
34.68981859410431	35.10780045351474	72	127
34.91043083900227	35.10780045351474	62	127
35.119410430839004	35.30517006802721	62	127
35.119410430839004	35.53736961451247	70	127
35.31678004535147	35.53736961451247	60	127
35.53736961451247	35.943718820861676	60	127
35.53736961451247	35.734739229024946	68	127
35.74634920634921	35.943718820861676	66	127
35.943718820861676	36.14108843537415	66	127
36.15269841269841	36.33843537414966	67	127
36.33843537414966	36.53582766439909	67	127
36.547437641723356	36.74480725623583	58	127
36.75641723356009	36.930566893424036	57	127
36.9421768707483	37.11632653061225	55	127
37.12793650793651	37.313696145124716	57	127
37.313696145124716	37.51106575963719	67	127
37.51106575963719	37.72004535147392	72	127
37.731632653061226	37.88258503401361	75	127
37.89419501133787	38.079954648526076	62	127
38.09156462585034	38.300544217687076	67	127
38.31215419501134	38.53274376417234	69	127
38.53274376417234	38.77655328798186	66	127
38.788163265306125	39.264149659863946	67	127
38.788163265306125	39.264149659863946	55	127
39.27578231292517	39.716961451247165	86	127
39.72857142857143	40.12331065759637	86	127
40.13492063492063	40.50643990929705	86	127
40.51804988662131	40.83151927437642	86	127
40.84312925170068	41.028888888888886	84	127
41.04047619047619	41.23786848072562	82	127
41.23786848072562	41.516507936507935	84	127
41.516507936507935	41.88802721088435	81	127
41.88802721088435	42.27115646258503	82	127
42.282766439909295	42.5962358276644	79	127
42.60784580498866	42.93290249433107	79	127
42.60784580498866	42.93290249433107	87	127
42.94451247165533	43.29283446712018	79	127
43.30444444444444	43.69916099773243	79	127
43.30444444444444	43.69916099773243	81	127
43.710793650793654	43.90816326530612	77	127
43.919773242630384	44.1055328798186	76	127
44.1055328798186	44.46541950113379	77	127
44.1055328798186	45.08077097505669	86	127
44.46541950113379	44.836938775510205	74	127
44.836938775510205	45.08077097505669	75	127
45.08077097505669	45.47548752834467	84	127
45.08077097505669	45.27814058956916	75	127
45.289750566893424	45.47548752834467	74	127
45.4871201814059	45.77736961451247	75	127
45.4871201814059	45.77736961451247	84	127
45.788979591836735	45.986326530612246	77	127
45.788979591836735	46.172108843537416	84	127
45.99795918367347	46.172108843537416	75	127
46.18371882086168	46.57845804988662	74	127
46.18371882086168	46.57845804988662	84	127
46.59006802721088	46.78743764172336	82	127
46.79904761904762	46.99639455782313	81	127
46.99639455782313	47.19378684807256	82	127
46.99639455782313	47.19378684807256	79	127
47.19378684807256	47.55369614512472	79	127
47.55369614512472	47.96004535147392	81	127
47.55369614512472	47.96004535147392	79	127
47.96004535147392	48.308344671201816	77	127
48.308344671201816	48.691473922902496	77	127
48.308344671201816	48.691473922902496	86	127
48.70308390022676	49.02816326530612	77	127
49.03977324263039	49.42290249433107	77	127
49.03977324263039	49.42290249433107	79	127
49.43451247165533	49.58544217687075	75	127
49.608662131519274	49.80603174603175	74	127
49.81764172335601	50.22399092970522	75	127
49.81764172335601	51.036689342403626	84	127
50.23560090702948	50.63034013605442	72	127
50.641950113378684	51.036689342403626	74	127
51.036689342403626	51.4546485260771	82	127
51.036689342403626	51.24566893424036	74	127
51.24566893424036	51.4546485260771	72	127
51.4546485260771	51.69845804988662	74	127
51.4546485260771	51.69845804988662	82	127
51.69845804988662	51.88421768707483	75	127
51.69845804988662	52.0815873015873	82	127
51.89582766439909	52.0815873015873	74	127
52.09319727891157	52.44149659863945	82	127
52.09319727891157	52.44149659863945	72	127
52.453106575963716	52.59242630385488	81	127
52.60403628117914	52.80140589569161	79	127
52.81301587301587	53.18453514739229	81	127
52.81301587301587	53.18453514739229	77	127
53.19614512471655	53.35868480725624	82	127
53.3702947845805	53.56766439909297	81	127
53.56766439909297	53.85791383219954	77	127
53.56766439909297	53.85791383219954	79	127
53.86952380952381	54.06689342403628	75	127
54.07850340136054	54.27587301587302	74	127
54.27587301587302	54.55451247165533	75	127
54.27587301587302	54.55451247165533	84	127
54.55451247165533	54.751882086167804	77	127
54.751882086167804	54.92603174603175	75	127
54.92603174603175	55.2859410430839	74	127
54.92603174603175	55.2859410430839	84	127
55.297551020408164	55.49492063492063	82	127
55.506530612244894	55.680680272108845	81	127
55.69229024943311	55.99414965986394	79	127
55.69229024943311	55.99414965986394	82	127
56.005759637188206	56.1334693877551	84	127
56.14507936507937	56.342448979591836	82	127
56.3540589569161	56.7604081632653	81	127
56.3540589569161	56.7604081632653	79	127
56.772018140589566	56.9809977324263	77	127
56.992607709750565	57.08548752834467	76	127
57.097097505668934	57.49183673469388	77	127
57.097097505668934	57.49183673469388	86	127
57.49183673469388	57.700816326530614	79	127
57.700816326530614	57.89818594104308	77	127
57.89818594104308	58.25809523809524	86	127
57.89818594104308	58.25809523809524	76	127
58.25809523809524	58.629614512471655	69	127
58.64122448979592	59.03596371882086	76	127
58.64122448979592	59.03596371882086	69	127
58.64122448979592	59.03596371882086	84	127
59.04757369614512	59.453922902494334	69	127
59.465532879818596	59.837052154195014	69	127
59.465532879818596	59.837052154195014	77	127
59.465532879818596	59.837052154195014	74	127
59.848662131519276	60.03442176870748	67	127
60.046031746031744	60.23179138321996	65	127
60.24340136054422	60.603310657596374	73	127
60.24340136054422	60.603310657596374	67	127
60.24340136054422	60.603310657596374	82	127
60.61492063492064	61.05609977324263	64	127
61.05609977324263	61.462448979591834	65	127
61.05609977324263	61.462448979591834	81	127
61.05609977324263	61.462448979591834	74	127
61.462448979591834	61.82235827664399	77	127
61.462448979591834	61.82235827664399	74	127
61.462448979591834	61.82235827664399	62	127
61.83396825396825	62.21709750566893	74	127
61.83396825396825	62.21709750566893	64	127
61.83396825396825	62.21709750566893	79	127
62.21709750566893	62.62344671201814	81	127
62.21709750566893	62.62344671201814	65	127
62.21709750566893	62.62344671201814	74	127
62.635056689342406	63.018185941043086	82	127
62.635056689342406	63.018185941043086	67	127
62.635056689342406	63.018185941043086	74	127
63.02979591836735	63.45936507936508	81	127
63.02979591836735	63.45936507936508	65	127
63.02979591836735	63.45936507936508	74	127
63.47097505668934	63.97020408163265	64	127
63.47097505668934	63.97020408163265	79	127
63.47097505668934	63.97020408163265	74	127
63.981814058956914	64.19079365079365	73	127
64.20240362811792	64.38816326530612	71	127
64.39977324263039	64.81770975056689	64	127
64.39977324263039	64.81770975056689	73	127
64.39977324263039	64.81770975056689	57	127
64.39977324263039	64.81770975056689	79	127
64.81770975056689	65.0847619047619	77	127
65.0847619047619	65.32854875283446	76	127
65.32854875283446	65.73492063492064	77	127
65.32854875283446	65.73492063492064	74	127
65.32854875283446	65.73492063492064	62	127
65.7465306122449	66.25736961451247	69	127
65.7465306122449	66.25736961451247	62	127
65.7465306122449	66.25736961451247	77	127
66.26897959183674	66.69854875283447	55	127
66.26897959183674	66.69854875283447	70	127
66.26897959183674	66.69854875283447	62	127
66.26897959183674	66.69854875283447	77	127
66.71013605442177	66.9075283446712	76	127
66.91913832199546	67.11650793650794	74	127
67.1281179138322	67.5344671201814	76	127
67.54607709750567	67.90598639455783	69	127
67.54607709750567	67.90598639455783	73	127
67.91759637188208	68.33555555555556	74	127
67.91759637188208	68.33555555555556	57	127
67.91759637188208	68.33555555555556	69	127
68.34716553287981	68.70707482993197	58	127
68.34716553287981	68.5445351473923	67	127
68.55614512471655	68.70707482993197	65	127
68.70707482993197	69.10181405895692	67	127
69.10181405895692	69.51975056689342	74	127
69.10181405895692	69.51975056689342	55	127
69.10181405895692	69.51975056689342	64	127
69.53138321995465	69.97256235827665	74	127
69.53138321995465	69.76358276643991	65	127
69.53138321995465	69.97256235827665	57	127
69.77517006802721	69.97256235827665	64	127
69.9841723356009	70.25120181405896	62	127
70.26278911564626	70.48340136054422	64	127
70.49501133786848	71.01746031746032	73	127
70.49501133786848	71.01746031746032	64	127
71.02904761904762	71.24965986394558	62	127
71.02904761904762	71.24965986394558	74	127
71.24965986394558	71.58634920634921	74	127
71.24965986394558	71.58634920634921	62	127
71.59795918367347	71.98108843537415	62	127
71.99269841269842	72.49192743764172	62	127
71.99269841269842	72.49192743764172	62	127
72.50353741496599	72.95632653061224	62	127
72.96793650793651	73.37428571428572	62	127
72.96793650793651	73.37428571428572	64	127
73.38589569160997	73.57165532879819	60	127
73.58324263038548	73.78063492063492	58	127
73.79224489795918	74.19857142857143	60	127
74.21020408163265	74.5817006802721	57	127
74.21020408163265	74.5817006802721	66	127
74.5817006802721	74.94163265306122	67	127
74.5817006802721	74.94163265306122	58	127
74.94163265306122	75.34795918367347	67	127
75.34795918367347	75.73108843537415	55	127
75.34795918367347	75.73108843537415	67	127
75.74272108843537	76.079410430839	67	127
76.0909977324263	76.35804988662132	57	127
76.0909977324263	76.35804988662132	67	127
76.36963718820861	76.56702947845805	65	127
76.57863945578231	76.77600907029479	63	127
76.78761904761905	77.20557823129252	65	127
77.21718820861678	77.5887074829932	62	127
77.21718820861678	77.5887074829932	59	127
77.60031746031746	78.0066439909297	63	127
77.60031746031746	78.0066439909297	60	127
78.0066439909297	78.37818594104309	72	127
78.37818594104309	78.7497052154195	64	127
78.37818594104309	78.7497052154195	57	127
78.37818594104309	78.7497052154195	72	127
78.7497052154195	79.13283446712018	72	127
79.14444444444445	79.48113378684808	62	127
79.14444444444445	79.48113378684808	72	127
79.14444444444445	79.48113378684808	66	127
79.49274376417233	79.70172335600907	70	127
79.71333333333334	79.86426303854876	69	127
79.87587301587301	80.28219954648526	67	127
79.87587301587301	80.28219954648526	70	127
80.29383219954649	80.4795918367347	72	127
80.49120181405895	80.66532879818594	70	127
80.67696145124717	81.0136507936508	69	127
80.67696145124717	81.0136507936508	67	127
80.67696145124717	81.0136507936508	62	127
81.02526077097505	81.19941043083901	65	127
81.21102040816326	81.38517006802721	64	127
81.38517006802721	81.69863945578231	74	127
81.38517006802721	81.69863945578231	65	127
81.69863945578231	81.90761904761905	67	127
81.90761904761905	82.02371882086167	65	127
82.02371882086167	82.40684807256235	74	127
82.02371882086167	82.40684807256235	56	127
82.02371882086167	82.40684807256235	64	127
82.41845804988662	82.62743764172336	76	127
82.65065759637189	82.84802721088435	77	127
82.85963718820862	83.05700680272109	76	127
83.05700680272109	83.25437641723356	74	127
83.26598639455783	83.40530612244898	73	127
83.41691609977325	83.63750566893424	74	127
83.64911564625851	84.12512471655329	64	127
83.64911564625851	84.12512471655329	55	127
83.64911564625851	84.12512471655329	73	127
84.13673469387756	84.53147392290249	81	127
84.54308390022676	84.86816326530612	65	127
84.54308390022676	84.86816326530612	74	127
84.54308390022676	84.86816326530612	81	127
84.87977324263039	85.27451247165533	81	127
85.2861224489796	85.58798185941043	81	127
85.2861224489796	85.58798185941043	74	127
85.2861224489796	85.58798185941043	70	127
85.59959183673469	85.75049886621315	79	127
85.76213151927438	85.95950113378684	77	127
85.97111111111111	86.36582766439909	79	127
86.37746031746032	86.78380952380952	74	127
86.37746031746032	86.78380952380952	64	127
86.37746031746032	86.78380952380952	79	127
86.78380952380952	87.201768707483	79	127
86.78380952380952	87.201768707483	69	127
86.78380952380952	87.201768707483	73	127
87.201768707483	87.41072562358276	77	127
87.41072562358276	87.57328798185941	76	127
87.57328798185941	87.95641723356009	77	127
87.96802721088436	88.37437641723356	77	127
87.96802721088436	88.37437641723356	62	127
87.96802721088436	88.37437641723356	74	127
88.38598639455782	88.80394557823129	74	127
88.38598639455782	88.80394557823129	67	127
88.38598639455782	88.80394557823129	82	127
88.81555555555556	89.22190476190477	81	127
89.23351473922902	89.6166439909297	81	127
89.23351473922902	89.6166439909297	65	127
89.23351473922902	89.6166439909297	74	127
89.62825396825397	90.02299319727891	80	127
90.03460317460318	90.41773242630386	64	127
90.03460317460318	90.41773242630386	80	127
90.03460317460318	90.41773242630386	74	127
90.41773242630386	90.82408163265306	81	127
90.82408163265306	91.23043083900227	64	127
90.82408163265306	91.23043083900227	57	127
90.82408163265306	91.23043083900227	81	127
90.82408163265306	91.23043083900227	73	127
91.24204081632654	91.63678004535147	78	127
91.64839002267574	92.05473922902495	72	127
91.64839002267574	92.05473922902495	62	127
91.64839002267574	92.05473922902495	78	127
92.0663492063492	92.47267573696145	79	127
92.48430839002268	92.90226757369615	71	127
92.48430839002268	92.90226757369615	62	127
92.48430839002268	92.90226757369615	79	127
92.9138775510204	93.25056689342404	76	127
93.2621768707483	93.66852607709751	67	127
93.2621768707483	93.66852607709751	61	127
93.2621768707483	93.66852607709751	76	127
93.2621768707483	93.66852607709751	70	127
93.68013605442177	94.06326530612245	77	127
94.06326530612245	94.50444444444445	65	127
94.06326530612245	94.50444444444445	77	127
94.06326530612245	94.50444444444445	62	127
94.06326530612245	94.50444444444445	69	127
94.50444444444445	94.8991836734694	74	127
94.91079365079365	95.28231292517007	58	127
94.91079365079365	95.28231292517007	74	127
94.91079365079365	95.28231292517007	69	127
95.29392290249433	95.66544217687076	75	127
95.67705215419501	96.03696145124717	67	127
95.67705215419501	96.03696145124717	58	127
95.67705215419501	96.03696145124717	75	127
96.04857142857144	96.43170068027212	73	127
96.44331065759637	96.8728798185941	73	127
96.44331065759637	96.8728798185941	57	127
96.44331065759637	96.8728798185941	67	127
96.8728798185941	97.07024943310658	82	127
97.08185941043084	97.2792290249433	80	127
97.29083900226757	97.69718820861678	81	127
97.69718820861678	98.10353741496598	73	127
97.69718820861678	98.10353741496598	57	127
97.69718820861678	98.10353741496598	67	127
98.10353741496598	98.47505668934241	57	127
98.10353741496598	98.47505668934241	74	127
98.10353741496598	98.47505668934241	65	127
98.48666666666666	98.68403628117913	82	127
98.6956462585034	98.89301587301587	80	127
98.90462585034014	99.31097505668934	81	127
99.3225850340136	99.75215419501134	79	127
99.3225850340136	99.75215419501134	85	127
99.3225850340136	99.75215419501134	69	127
99.7637641723356	100.15850340136055	70	127
99.7637641723356	100.15850340136055	77	127
99.7637641723356	100.15850340136055	86	127
100.1701133786848	100.69256235827665	84	127
100.7041723356009	101.1105215419501	78	127
100.7041723356009	101.1105215419501	69	127
100.7041723356009	101.1105215419501	84	127
101.12213151927438	101.6213605442177	82	127
101.6213605442177	102.09736961451247	82	127
101.6213605442177	102.09736961451247	67	127
101.6213605442177	102.09736961451247	79	127
102.09736961451247	102.50371882086168	77	127
102.09736961451247	102.50371882086168	81	127
102.51532879818595	102.91006802721088	81	127
102.51532879818595	102.91006802721088	77	127
102.92167800453515	103.25836734693877	76	127
102.92167800453515	103.25836734693877	85	127
103.26997732426304	103.64149659863945	85	127
103.26997732426304	103.64149659863945	76	127
103.65310657596372	104.08267573696145	77	127
103.65310657596372	104.08267573696145	86	127
104.09428571428572	104.54707482993197	77	127
104.09428571428572	104.54707482993197	86	127
104.55868480725624	104.95342403628118	79	127
104.55868480725624	104.95342403628118	73	127
104.96503401360545	105.35977324263038	73	127
104.96503401360545	105.55714285714286	79	127
105.35977324263038	105.7312925170068	69	127
105.55714285714286	105.7312925170068	81	127
105.7312925170068	106.13764172335601	77	127
105.7312925170068	106.13764172335601	74	127
106.14925170068027	106.57882086167801	76	127
106.14925170068027	106.57882086167801	67	127
106.14925170068027	106.57882086167801	74	127
106.59043083900227	108.20421768707483	76	127
106.59043083900227	106.96195011337869	69	127
106.59043083900227	108.20421768707483	74	127
106.97356009070295	107.37990929705215	67	127
107.39151927437642	107.78625850340136	69	127
107.79786848072563	108.20421768707483	65	127
108.21582766439909	109.74834467120182	76	127
108.21582766439909	108.61056689342404	67	127
108.21582766439909	109.74834467120182	73	127
108.6221768707483	109.01691609977324	65	127
109.01691609977324	109.41165532879819	67	127
109.41165532879819	109.74834467120182	64	127
109.75995464852608	110.17791383219955	81	127
109.75995464852608	111.37374149659864	74	127
109.75995464852608	110.17791383219955	65	127
110.1895238095238	110.59587301587301	79	127
110.1895238095238	110.59587301587301	64	127
110.60748299319728	110.95578231292517	81	127
110.60748299319728	110.95578231292517	65	127
110.96739229024944	111.37374149659864	62	127
110.96739229024944	111.37374149659864	77	127
111.3853514739229	112.91786848072563	79	127
111.3853514739229	112.91786848072563	64	127
111.3853514739229	111.74526077097505	74	127
111.75687074829932	112.14	73	127
112.15160997732427	112.5463492063492	74	127
112.5463492063492	112.91786848072563	71	127
112.91786848072563	114.43877551020408	73	127
112.91786848072563	114.43877551020408	69	127
112.91786848072563	113.31260770975057	79	127
113.32421768707484	113.69573696145125	77	127
113.70734693877552	114.04403628117913	79	127
114.0556462585034	114.43877551020408	76	127
114.45038548752835	116.0641723356009	62	127
114.45038548752835	114.82190476190476	77	127
114.45038548752835	114.82190476190476	74	127
114.83351473922903	115.23986394557824	76	127
114.83351473922903	115.23986394557824	73	127
115.25147392290249	115.6578231292517	77	127
115.25147392290249	115.6578231292517	74	127
115.66943310657597	116.0641723356009	76	127
115.66943310657597	116.0641723356009	79	127
116.0641723356009	116.45891156462585	81	127
116.0641723356009	116.45891156462585	77	127
116.0641723356009	117.43414965986395	62	127
116.45891156462585	116.67950113378684	82	127
116.45891156462585	116.67950113378684	79	127
116.69111111111111	117.08585034013605	81	127
116.69111111111111	117.08585034013605	77	127
117.09746031746032	117.43414965986395	76	127
117.09746031746032	117.43414965986395	79	127
117.4457596371882	117.84049886621315	77	127
117.4457596371882	118.81573696145125	62	127
117.4457596371882	117.84049886621315	74	127
117.84049886621315	118.17718820861678	76	127
117.84049886621315	118.17718820861678	73	127
118.18879818594104	118.52548752834467	77	127
118.18879818594104	118.52548752834467	74	127
118.53709750566894	118.81573696145125	79	127
118.53709750566894	118.81573696145125	76	127
118.8273469387755	119.23369614512471	81	127
118.8273469387755	120.45274376417234	62	127
118.8273469387755	119.23369614512471	77	127
119.23369614512471	119.62843537414966	79	127
119.23369614512471	119.62843537414966	76	127
119.62843537414966	120.03478458049887	81	127
119.62843537414966	120.03478458049887	77	127
120.04639455782313	120.45274376417234	83	127
120.04639455782313	120.45274376417234	74	127
120.4643537414966	120.8126530612245	76	127
120.4643537414966	122.05492063492063	62	127
120.4643537414966	120.8126530612245	85	127
120.82426303854875	121.23061224489796	83	127
120.82426303854875	121.23061224489796	74	127
121.24222222222222	121.64857142857143	76	127
121.24222222222222	121.64857142857143	85	127
121.66018140589568	122.05492063492063	86	127
121.66018140589568	122.05492063492063	77	127
122.0665306122449	122.40321995464852	88	127
122.0665306122449	123.5758276643991	62	127
122.0665306122449	122.40321995464852	79	127
122.41482993197279	122.79795918367347	89	127
122.41482993197279	122.79795918367347	81	127
122.79795918367347	123.18108843537415	88	127
122.79795918367347	123.18108843537415	79	127
123.18108843537415	123.5758276643991	86	127
123.18108843537415	123.5758276643991	77	127
123.58743764172335	123.84285714285714	85	127
123.58743764172335	124.99224489795918	62	127
123.58743764172335	123.84285714285714	76	127
123.85446712018141	124.26081632653062	74	127
123.85446712018141	124.26081632653062	83	127
124.27242630385487	124.56267573696145	76	127
124.27242630385487	124.56267573696145	85	127
124.57428571428571	124.99224489795918	77	127
124.57428571428571	124.99224489795918	86	127
125.00385487528345	126.59442176870748	62	127
125.00385487528345	125.42181405895691	88	127
125.00385487528345	125.42181405895691	79	127
125.43342403628118	125.83977324263039	77	127
125.43342403628118	125.83977324263039	86	127
125.85138321995466	126.13002267573697	88	127
125.85138321995466	126.13002267573697	79	127
126.13002267573697	126.59442176870748	85	127
126.13002267573697	126.59442176870748	76	127
126.60603174603175	127.04721088435375	62	127
127.058820861678	127.5	74	127
127.51160997732427	127.70897959183674	77	127
127.72058956916099	127.91795918367347	81	127
127.92956916099773	128.13854875283448	86	127
128.13854875283448	128.35913832199546	81	127
128.35913832199546	128.5681179138322	77	127
128.5681179138322	128.71904761904761	74	127
128.71904761904761	128.83514739229025	69	127
128.83514739229025	129.03251700680272	86	127
129.044126984127	129.24149659863946	84	127
129.25310657596373	129.40403628117915	82	127
129.41564625850341	129.61301587301588	84	127
129.62460317460318	129.83360544217686	81	127
129.84521541950113	130.0425850340136	78	127
130.05419501133787	130.25156462585034	74	127
130.2631746031746	130.58825396825398	55	127
130.59986394557822	130.79721088435375	67	127
130.80884353741496	130.97138321995465	70	127
130.98299319727892	131.1571201814059	74	127
131.1687528344671	131.36612244897958	79	127
131.37773242630385	131.51702947845806	74	127
131.52866213151927	131.7144217687075	70	127
131.7144217687075	131.88857142857142	67	127
131.88857142857142	132.09755102040816	62	127
132.09755102040816	132.3065306122449	79	127
132.3065306122449	132.48068027210886	77	127
132.48068027210886	132.64319727891157	75	127
132.65482993197278	132.81736961451247	77	127
132.82897959183674	132.9682993197279	74	127
132.97990929705216	133.16566893424036	71	127
133.17727891156463	133.3746485260771	67	127
133.38625850340136	133.56038548752835	60	127
133.57201814058956	133.7809977324263	72	127
133.79260770975057	133.98997732426304	75	127
134.0015873015873	134.19895691609977	79	127
134.21056689342404	134.38471655328797	84	127
134.4079365079365	134.60530612244898	79	127
134.61691609977325	134.76784580498867	75	127
134.77945578231294	134.96521541950113	72	127
134.9768253968254	135.17419501133787	67	127
135.17419501133787	135.3831746031746	84	127
135.3831746031746	135.5573015873016	82	127
135.5573015873016	135.74308390022676	81	127
135.74308390022676	135.9172335600907	82	127
135.92884353741496	136.12621315192743	79	127
136.1378231292517	136.25392290249434	76	127
136.25392290249434	136.41646258503403	72	127
136.42807256235827	136.6254195011338	65	127
136.637052154195	136.74154195011337	72	127
136.74154195011337	136.93891156462584	77	127
136.9505215419501	137.13625850340136	79	127
137.14789115646258	137.24074829931973	80	127
137.25238095238095	137.46136054421768	77	127
137.47297052154195	137.67034013605442	74	127
137.6819501133787	137.84448979591838	70	127
137.85607709750568	138.0186394557823	63	127
138.0186394557823	138.19278911564626	70	127
138.19278911564626	138.34371882086168	75	127
138.34371882086168	138.48303854875283	77	127
138.48303854875283	138.6804081632653	79	127
138.69201814058957	138.84294784580499	75	127
138.84294784580499	138.9822448979592	72	127
138.9938775510204	139.16802721088436	69	127
139.17963718820863	139.3770068027211	77	127
139.3770068027211	139.52793650793652	74	127
139.52793650793652	139.71369614512471	71	127
139.71369614512471	139.84140589569162	67	127
139.84140589569162	140.00392290249434	75	127
140.00392290249434	140.15485260770976	72	127
140.15485260770976	140.32902494331066	68	127
140.32902494331066	140.5031746031746	65	127
140.5031746031746	140.6308843537415	73	127
140.64249433106576	140.81662131519275	70	127
140.82825396825396	140.95596371882087	67	127
140.96757369614514	141.11850340136056	63	127
141.1301133786848	141.26943310657597	72	127
141.28102040816327	141.4435827664399	68	127
141.45519274376417	141.65256235827664	65	127
141.65256235827664	141.83832199546487	62	127
141.8499319727891	142.12857142857143	55	127
142.1401814058957	142.37238095238095	62	127
142.38399092970522	142.53492063492064	65	127
142.5465306122449	142.66260770975057	71	127
142.6742403628118	142.86	74	127
142.86	143.03414965986394	71	127
143.03414965986394	143.2082993197279	65	127
143.2082993197279	143.41727891156464	62	127
143.41727891156464	143.57979591836735	55	127
143.59142857142857	143.76557823129252	62	127
143.7771882086168	143.9281179138322	65	127
143.9397052154195	144.0558276643991	71	127
144.0558276643991	144.22997732426305	74	127
144.24156462585034	144.41573696145124	71	127
144.42734693877551	144.54344671201815	65	127
144.5550566893424	144.74081632653062	62	127
144.75240362811792	144.94979591836736	55	127
144.96138321995466	145.10072562358278	60	127
145.10072562358278	145.28648526077097	63	127
145.29809523809524	145.44902494331066	67	127
145.46063492063493	145.64639455782313	72	127
145.6580045351474	145.83213151927438	67	127
145.83213151927438	145.9830612244898	63	127
145.9830612244898	146.13399092970522	60	127
146.13399092970522	146.30816326530612	55	127
146.30816326530612	146.51714285714286	60	127
146.51714285714286	146.59839002267574	63	127
146.61002267573696	146.7261224489796	67	127
146.73773242630386	146.9118820861678	72	127
146.92349206349206	147.05120181405897	67	127
147.0628117913832	147.24857142857144	63	127
147.26015873015874	147.4459410430839	60	127
147.45755102040818	147.64331065759637	56	127
147.65492063492064	147.759410430839	60	127
147.7709977324263	147.98	63	127
147.99160997732426	148.13090702947846	67	127
148.14253968253968	148.25863945578232	72	127
148.27024943310659	148.4443990929705	67	127
148.4443990929705	148.59532879818593	63	127
148.6069387755102	148.75786848072562	60	127
148.75786848072562	148.94362811791385	56	127
148.94362811791385	149.07133786848073	60	127
149.07133786848073	149.21065759637187	63	127
149.21065759637187	149.38480725623583	67	127
149.38480725623583	149.52412698412698	72	127
149.53573696145125	149.6750566893424	67	127
149.6750566893424	149.83759637188209	63	127
149.84920634920636	150.03496598639455	60	127
150.04657596371882	150.2439455782313	57	127
150.25555555555556	150.44131519274376	62	127
150.45292517006803	150.62707482993198	66	127
150.62707482993198	150.75478458049886	69	127
150.76639455782313	150.92893424036282	72	127
150.94052154195012	151.11469387755102	69	127
151.11469387755102	151.26562358276644	66	127
151.2772335600907	151.4397732426304	62	127
151.4397732426304	151.52104308390022	57	127
151.5326530612245	151.73002267573696	62	127
151.74163265306123	151.90417233560092	66	127
151.91578231292516	152.0318820861678	69	127
152.0318820861678	152.2524716553288	72	127
152.2524716553288	152.4265986394558	69	127
152.4265986394558	152.6007709750567	66	127
152.6007709750567	152.8213605442177	62	127
152.832947845805	153.05356009070294	55	127
153.06517006802721	153.19285714285715	60	127
153.20448979591836	153.37863945578232	63	127
153.3902494331066	153.56439909297052	67	127
153.5760090702948	153.68049886621316	72	127
153.68049886621316	153.87786848072562	75	127
153.8894784580499	154.05201814058958	73	127
154.05201814058958	154.26097505668935	71	127
154.26097505668935	154.46995464852608	72	127
154.46995464852608	154.66734693877552	82	127
154.66734693877552	154.84149659863945	80	127
154.84149659863945	155.06208616780046	78	127
155.07369614512473	155.30589569160998	79	127
155.31750566893425	155.5148752834467	77	127
155.52648526077098	155.6774149659864	76	127
155.6774149659864	155.92122448979592	77	127
155.9328344671202	156.42045351473922	62	127
155.9328344671202	156.42045351473922	55	127
155.9328344671202	156.42045351473922	77	127
155.9328344671202	156.42045351473922	71	127
156.4320634920635	156.89646258503402	67	127
156.90807256235829	157.30281179138322	84	127
156.90807256235829	157.30281179138322	75	127
156.90807256235829	157.30281179138322	67	127
157.3144217687075	157.73238095238096	67	127
157.7439909297052	158.19675736961452	84	127
157.7439909297052	158.19675736961452	67	127
157.7439909297052	158.19675736961452	55	127
157.7439909297052	158.19675736961452	74	127
158.20839002267573	158.40573696145125	65	127
158.41736961451247	158.6960090702948	63	127
158.6960090702948	159.11396825396827	83	127
158.6960090702948	159.11396825396827	65	127
158.6960090702948	159.11396825396827	74	127
159.11396825396827	159.53190476190477	86	127
159.11396825396827	159.53190476190477	62	127
159.11396825396827	159.53190476190477	77	127
159.54353741496598	159.96149659863946	55	127
159.54353741496598	159.75251700680272	63	127
159.764126984127	159.96149659863946	74	127
159.97310657596373	160.18208616780046	79	127
160.19367346938776	160.3910657596372	71	127
160.40267573696144	160.77419501133787	72	127
160.78580498866214	161.2037641723356	79	127
160.78580498866214	161.2037641723356	63	127
160.78580498866214	161.2037641723356	72	127
161.2153514739229	161.74943310657596	72	127
161.2153514739229	161.74943310657596	79	127
161.2153514739229	161.74943310657596	62	127
161.2153514739229	161.74943310657596	55	127
161.76104308390023	162.03968253968253	77	127
162.0512925170068	162.24866213151927	75	127
162.26027210884354	162.66662131519274	67	127
162.26027210884354	162.66662131519274	77	127
162.26027210884354	162.66662131519274	71	127
162.66662131519274	163.0961904761905	74	127
163.0961904761905	163.49092970521542	60	127
163.0961904761905	163.49092970521542	75	127
163.0961904761905	163.49092970521542	67	127
163.5025396825397	163.69990929705216	74	127
163.71151927437643	163.94371882086168	72	127
163.95532879818595	164.38487528344672	65	127
163.95532879818595	164.38487528344672	56	127
163.95532879818595	164.38487528344672	73	127
164.39650793650793	164.82607709750567	71	127
164.83768707482994	165.3136961451247	57	127
164.83768707482994	165.58072562358277	72	127
164.83768707482994	165.3136961451247	66	127
165.59233560090703	165.8593650793651	74	127
165.87097505668933	166.34698412698413	62	127
165.87097505668933	166.5791836734694	71	127
165.87097505668933	166.34698412698413	55	127
166.59079365079364	166.84621315192743	72	127
166.8578231292517	167.3918820861678	72	127
166.8578231292517	167.3918820861678	63	127
166.8578231292517	167.3918820861678	60	127
167.4034693877551	167.84467120181407	60	127
167.84467120181407	168.28585034013605	60	127
168.28585034013605	168.66897959183675	60	127
168.68056689342404	169.11015873015873	60	127
168.68056689342404	169.11015873015873	62	127
169.121768707483	169.33074829931974	58	127
169.34233560090703	169.53972789115647	57	127
169.55133786848072	169.92285714285714	58	127
169.9344671201814	170.32920634920634	55	127
169.9344671201814	170.32920634920634	64	127
170.34081632653061	170.6891156462585	65	127
170.34081632653061	170.6891156462585	57	127
170.6891156462585	171.0374149659864	65	127
171.04902494331066	171.33925170068028	69	127
171.04902494331066	171.33925170068028	65	127
171.33925170068028	171.76884353741497	65	127
171.76884353741497	172.1635827664399	70	127
171.76884353741497	172.1635827664399	65	127
172.17519274376417	172.36092970521543	63	127
172.37256235827664	172.58154195011338	62	127
172.59315192743765	172.92984126984126	63	127
172.59315192743765	172.92984126984126	72	127
172.94145124716553	173.3013605442177	60	127
173.31297052154196	173.69609977324262	72	127
173.31297052154196	173.69609977324262	62	127
173.7077097505669	173.98634920634922	77	127
173.7077097505669	173.82380952380953	70	127
173.82380952380953	173.98634920634922	69	127
173.99793650793652	174.40428571428572	67	127
173.99793650793652	174.40428571428572	55	127
173.99793650793652	174.40428571428572	77	127
173.99793650793652	174.40428571428572	70	127
174.41591836734693	174.82226757369614	77	127
174.82226757369614	175.25183673469388	60	127
174.82226757369614	175.25183673469388	70	127
174.82226757369614	175.25183673469388	67	127
174.82226757369614	175.25183673469388	77	127
175.25183673469388	175.46081632653062	75	127
175.46081632653062	175.64657596371882	74	127
175.6581859410431	176.0297052154195	75	127
176.0412925170068	176.43605442176872	65	127
176.0412925170068	176.2154648526077	72	127
176.22707482993198	176.31995464852608	74	127
176.33156462585035	176.43605442176872	75	127
176.447641723356	176.9584807256236	70	127
176.447641723356	176.9584807256236	74	127
176.9701133786848	177.39968253968254	65	127
176.9701133786848	177.39968253968254	58	127
176.9701133786848	177.39968253968254	82	127
176.9701133786848	177.39968253968254	74	127
177.4112925170068	177.81764172335602	74	127
177.4112925170068	177.81764172335602	58	127
177.4112925170068	177.81764172335602	82	127
177.4112925170068	177.81764172335602	65	127
177.82922902494332	178.23557823129252	74	127
177.82922902494332	178.23557823129252	58	127
177.82922902494332	178.23557823129252	82	127
177.82922902494332	178.23557823129252	65	127
178.24721088435373	178.79287981859412	65	127
178.24721088435373	178.79287981859412	82	127
178.24721088435373	178.79287981859412	74	127
178.80448979591836	179.00183673469388	72	127
178.80448979591836	179.00183673469388	81	127
179.0134693877551	179.2340589569161	70	127
179.0134693877551	179.2340589569161	79	127
179.24566893424037	179.65201814058958	81	127
179.24566893424037	179.65201814058958	72	127
179.65201814058958	180.10480725623583	74	127
179.65201814058958	180.10480725623583	83	127
180.10480725623583	180.5227664399093	75	127
180.10480725623583	180.5227664399093	84	127
180.53437641723357	180.9639455782313	84	127
180.53437641723357	180.9639455782313	75	127
180.53437641723357	180.9639455782313	67	127
180.53437641723357	180.9639455782313	60	127
180.97555555555556	181.38190476190476	67	127
180.97555555555556	181.38190476190476	60	127
180.97555555555556	181.38190476190476	84	127
180.97555555555556	181.38190476190476	75	127
181.39351473922903	181.79986394557824	75	127
181.39351473922903	181.79986394557824	60	127
181.39351473922903	181.79986394557824	84	127
181.39351473922903	181.79986394557824	67	127
181.8114739229025	182.496462585034	67	127
181.8114739229025	182.496462585034	84	127
181.8114739229025	182.496462585034	75	127
182.50807256235828	182.71705215419502	74	127
182.50807256235828	182.71705215419502	82	127
182.7286621315193	182.91442176870748	72	127
182.7286621315193	182.91442176870748	81	127
182.92603174603175	183.36721088435374	82	127
182.92603174603175	183.36721088435374	74	127
183.378820861678	183.59941043083901	84	127
183.378820861678	183.80836734693878	75	127
183.59941043083901	183.80836734693878	79	127
183.80836734693878	184.23795918367347	65	127
183.80836734693878	184.23795918367347	81	127
183.80836734693878	184.23795918367347	75	127
184.23795918367347	184.4469387755102	82	127
184.23795918367347	184.6326984126984	74	127
184.4469387755102	184.6326984126984	77	127
184.64430839002267	185.0158276643991	74	127
184.64430839002267	185.0158276643991	63	127
184.64430839002267	185.0158276643991	79	127
185.02743764172337	185.21319727891157	81	127
185.02743764172337	185.4221768707483	72	127
185.22480725623583	185.4221768707483	79	127
185.43378684807257	185.85172335600907	77	127
185.43378684807257	185.85172335600907	62	127
185.43378684807257	185.85172335600907	72	127
185.8633560090703	186.25809523809525	70	127
185.8633560090703	186.0607029478458	79	127
186.0607029478458	186.25809523809525	74	127
186.2697052154195	186.44385487528345	75	127
186.45546485260772	186.68766439909297	72	127
186.69927437641724	186.8966439909297	69	127
186.90825396825397	187.1520634920635	65	127
187.16367346938776	187.62807256235828	58	127
187.63968253968255	188.1040589569161	65	127
187.63968253968255	188.1040589569161	58	127
187.63968253968255	188.1040589569161	74	127
188.11569160997732	188.56848072562357	65	127
188.11569160997732	188.56848072562357	74	127
188.11569160997732	188.56848072562357	58	127
188.58009070294784	189.0328798185941	74	127
188.58009070294784	189.0328798185941	65	127
188.58009070294784	189.0328798185941	57	127
189.04448979591837	189.4392290249433	65	127
189.04448979591837	189.4392290249433	74	127
189.04448979591837	189.4392290249433	55	127
189.45083900226757	189.64820861678004	67	127
189.45083900226757	189.64820861678004	75	127
189.6598185941043	189.90362811791383	74	127
189.6598185941043	189.90362811791383	65	127
189.9152380952381	190.37963718820862	72	127
189.9152380952381	190.37963718820862	57	127
189.9152380952381	190.37963718820862	63	127
190.37963718820862	190.8208163265306	70	127
190.37963718820862	190.8208163265306	58	127
190.37963718820862	190.8208163265306	62	127
190.8208163265306	191.33165532879818	69	127
190.8208163265306	191.33165532879818	60	127
190.8208163265306	191.33165532879818	63	127
191.33165532879818	191.81927437641724	77	127
191.33165532879818	191.81927437641724	62	127
191.33165532879818	191.81927437641724	70	127
191.8308843537415	192.23723356009071	62	127
191.8308843537415	192.23723356009071	77	127
191.8308843537415	192.23723356009071	70	127
192.24884353741496	192.66680272108843	70	127
192.24884353741496	192.66680272108843	62	127
192.24884353741496	192.66680272108843	77	127
192.6784126984127	193.29374149659864	55	127
192.6784126984127	193.29374149659864	70	127
192.6784126984127	193.29374149659864	62	127
192.6784126984127	193.29374149659864	77	127
193.3053514739229	193.57238095238094	79	127
193.5839909297052	193.80458049886622	77	127
193.81619047619049	194.21092970521542	75	127
193.81619047619049	194.21092970521542	57	127
193.81619047619049	194.21092970521542	65	127
194.2225396825397	194.64049886621316	74	127
194.2225396825397	194.64049886621316	58	127
194.2225396825397	194.64049886621316	65	127
194.64049886621316	195.09328798185942	63	127
194.64049886621316	195.09328798185942	79	127
194.64049886621316	195.09328798185942	74	127
195.09328798185942	195.33709750566894	81	127
195.33709750566894	195.55768707482994	82	127
195.55768707482994	196.0104761904762	72	127
195.55768707482994	195.80149659863946	82	127
195.81310657596373	196.0104761904762	81	127
196.0336961451247	196.23106575963718	79	127
196.24267573696144	196.4400453514739	77	127
196.45165532879818	196.8580045351474	82	127
196.86961451247166	197.31079365079364	70	127
196.86961451247166	197.31079365079364	62	127
196.86961451247166	197.31079365079364	77	127
197.3224036281179	197.7984126984127	65	127
197.3224036281179	197.54299319727892	75	127
197.5546031746032	197.7984126984127	74	127
197.81002267573697	198.04222222222222	72	127
198.0538321995465	198.47179138321997	70	127
198.4834013605442	198.85492063492063	58	127
198.8665306122449	199.09873015873015	74	127
199.09873015873015	199.3425396825397	72	127
199.37736961451247	199.59795918367348	74	127
199.59795918367348	199.7721088435374	70	127
199.78371882086168	199.98108843537415	74	127
199.98108843537415	200.17845804988661	69	127
200.19006802721088	200.36421768707484	74	127
200.37582766439908	200.57319727891158	67	127
200.57319727891158	200.71251700680273	74	127
200.724126984127	200.9331065759637	65	127
200.94471655328798	201.1304761904762	74	127
201.14208616780044	201.32784580498867	63	127
201.32784580498867	201.5019954648526	74	127
201.51360544217687	201.69936507936507	62	127
201.69936507936507	201.8851247165533	74	127
201.8851247165533	202.0708843537415	63	127
202.0708843537415	202.24503401360545	74	127
202.25664399092972	202.44240362811792	79	127
202.45401360544219	202.65138321995465	77	127
202.66299319727892	202.81392290249434	75	127
202.82553287981858	202.99968253968254	74	127
203.0112925170068	203.1390022675737	72	127
203.15061224489796	203.34798185941042	70	127
203.3595918367347	203.5453514739229	69	127
203.55696145124716	203.7427210884354	72	127
203.7427210884354	203.9284807256236	67	127
203.9284807256236	204.11424036281178	72	127
204.11424036281178	204.3	66	127
204.31160997732425	204.47414965986394	72	127
204.47414965986394	204.6482993197279	64	127
204.65990929705217	204.84566893424036	72	127
204.85727891156463	205.01981859410432	62	127
205.03142857142856	205.17074829931974	72	127
205.18235827664398	205.37972789115645	81	127
205.39133786848072	205.57709750566895	72	127
205.5887074829932	205.78607709750568	70	127
205.78607709750568	205.9602267573696	69	127
205.97183673469388	206.15759637188208	70	127
206.15759637188208	206.285306122449	67	127
206.29691609977326	206.47106575963718	69	127
206.47106575963718	206.65682539682538	62	127
206.66843537414965	206.86580498866212	77	127
206.86580498866212	207.03995464852608	68	127
207.05156462585035	207.23732426303854	67	127
207.24893424036281	207.434693877551	65	127
207.434693877551	207.55079365079365	67	127
207.56240362811792	207.7249433106576	63	127
207.73655328798185	207.9107029478458	65	127
207.9107029478458	208.06163265306122	58	127
208.06163265306122	208.2590022675737	74	127
208.27061224489796	208.45637188208616	65	127
208.45637188208616	208.65374149659863	63	127
208.6653514739229	208.82789115646258	62	127
208.82789115646258	209.02526077097505	63	127
209.03687074829932	209.17619047619047	60	127
209.18780045351474	209.3619501133787	62	127
209.37356009070294	209.53609977324263	55	127
209.5477097505669	209.74507936507936	70	127
209.75668934240363	209.91922902494332	62	127
209.93083900226756	210.1165986394558	63	127
210.1165986394558	210.302358276644	60	127
210.31396825396826	210.4881179138322	72	127
210.49972789115645	210.68548752834468	64	127
210.69709750566892	210.87124716553288	66	127
210.88285714285715	211.04539682539684	62	127
211.05700680272108	211.2079365079365	69	127
211.21954648526076	211.38208616780045	66	127
211.39369614512472	211.5562358276644	72	127
211.56784580498865	211.7419954648526	69	127
211.75360544217688	211.9277551020408	75	127
211.93936507936507	212.11351473922903	72	127
212.11351473922903	212.3108843537415	78	127
212.32249433106577	212.50825396825397	72	127
212.50825396825397	212.69401360544217	81	127
212.69401360544217	212.89138321995466	78	127
212.89138321995466	213.0655328798186	75	127
213.0655328798186	213.22807256235828	72	127
213.23968253968255	213.43705215419502	69	127
213.44866213151928	213.66925170068026	66	127
213.68086167800453	214.02916099773242	62	127
214.02916099773242	214.2613605442177	72	127
214.27297052154196	214.45873015873016	78	127
214.45873015873016	214.6328798185941	72	127
214.64448979591836	214.8302494331066	78	127
214.8302494331066	215.01600907029479	72	127
215.02761904761905	215.20176870748298	81	127
215.21337868480725	215.422358276644	72	127
215.43396825396826	215.70099773242632	62	127
215.71260770975056	215.9215873015873	72	127
215.93319727891156	216.10734693877552	78	127
216.11895691609976	216.29310657596372	72	127
216.29310657596372	216.47886621315192	78	127
216.4904761904762	216.65301587301587	72	127
216.65301587301587	216.82716553287983	81	127
216.83877551020407	217.03614512471654	72	127
217.03614512471654	217.24512471655328	62	127
217.25673469387755	217.44249433106575	70	127
217.45410430839001	217.65147392290248	74	127
217.66308390022675	217.84884353741498	70	127
217.86045351473922	218.04621315192745	74	127
218.0578231292517	218.22036281179138	70	127
218.23197278911564	218.41773242630384	79	127
218.4293424036281	218.61510204081634	70	127
218.62671201814058	218.83569160997732	62	127
218.83569160997732	218.998231292517	70	127
219.00984126984127	219.20721088435374	74	127
219.20721088435374	219.4045804988662	70	127
219.41619047619048	219.60195011337868	74	127
219.60195011337868	219.7528798185941	70	127
219.76448979591837	219.95024943310656	79	127
219.96185941043083	220.1592290249433	70	127
220.17083900226757	220.35659863945577	62	127
220.36820861678004	220.5655782312925	69	127
220.57718820861678	220.762947845805	78	127
220.77455782312924	220.9719274376417	74	127
220.9719274376417	221.14607709750567	78	127
221.15768707482994	221.33183673469387	74	127
221.33183673469387	221.50598639455782	84	127
221.5175963718821	221.71496598639456	74	127
221.71496598639456	221.91233560090703	62	127
221.9239455782313	222.12131519274377	69	127
222.12131519274377	222.30707482993196	78	127
222.31868480725623	222.48122448979592	74	127
222.4928344671202	222.6785941043084	78	127
222.69020408163266	222.8643537414966	74	127
222.87596371882086	223.06172335600908	84	127
223.07333333333332	223.25909297052155	74	127
223.2707029478458	223.47968253968253	62	127
223.47968253968253	223.67705215419502	74	127
223.68866213151927	223.8744217687075	79	127
223.8744217687075	224.04857142857142	74	127
224.0601814058957	224.2459410430839	79	127
224.2459410430839	224.43170068027212	74	127
224.44331065759638	224.6174603174603	82	127
224.62907029478458	224.82643990929705	74	127
224.83804988662132	225.0354195011338	62	127
225.04702947845806	225.24439909297053	74	127
225.2560090702948	225.441768707483	79	127
225.45337868480726	225.60430839002268	74	127
225.60430839002268	225.80167800453515	79	127
225.81328798185942	225.99904761904762	74	127
225.99904761904762	226.20802721088435	82	127
226.21963718820862	226.42861678004536	74	127
226.42861678004536	226.67242630385488	62	127
226.68403628117915	226.90462585034012	73	127
226.90462585034012	227.10199546485262	76	127
227.11360544217686	227.27614512471655	73	127
227.28775510204082	227.49673469387756	76	127
227.50834467120183	227.65927437641724	73	127
227.67088435374149	227.84503401360544	82	127
227.8566439909297	228.0424036281179	73	127
228.05401360544218	228.28621315192743	62	127
228.28621315192743	228.49519274376416	73	127
228.5184126984127	228.72739229024944	76	127
228.72739229024944	228.9247619047619	73	127
228.93637188208618	229.14535147392291	76	127
229.14535147392291	229.24984126984128	73	127
229.26145124716552	229.458820861678	82	127
229.458820861678	229.6561904761905	79	127
229.66780045351473	229.8651700680272	79	127
229.87678004535147	230.07414965986393	78	127
230.0857596371882	230.2482993197279	76	127
230.2482993197279	230.36439909297053	74	127
230.37600907029477	230.7475283446712	86	127
230.7475283446712	231.14226757369613	70	127
230.7475283446712	231.14226757369613	86	127
230.7475283446712	231.14226757369613	74	127
231.14226757369613	231.5950566893424	67	127
231.14226757369613	231.5950566893424	86	127
231.14226757369613	231.5950566893424	75	127
231.5950566893424	231.83886621315193	84	127
231.8504761904762	232.02462585034013	82	127
232.0362358276644	232.4425850340136	84	127
232.45419501133787	232.86054421768708	69	127
232.45419501133787	232.86054421768708	69	127
232.45419501133787	232.86054421768708	84	127
232.87215419501135	233.30172335600906	66	127
232.87215419501135	233.30172335600906	84	127
232.87215419501135	233.30172335600906	74	127
233.31333333333333	233.5107029478458	82	127
233.5107029478458	233.70807256235827	81	127
233.71968253968254	234.06798185941042	82	127
234.06798185941042	234.43950113378685	67	127
234.06798185941042	234.43950113378685	82	127
234.06798185941042	234.43950113378685	74	127
234.45111111111112	234.85746031746032	82	127
234.45111111111112	234.85746031746032	74	127
234.45111111111112	234.85746031746032	63	127
234.8690702947846	235.2754195011338	81	127
235.28702947845804	235.681768707483	73	127
235.28702947845804	235.681768707483	81	127
235.28702947845804	235.681768707483	64	127
235.681768707483	236.0881179138322	79	127
236.0881179138322	236.4944671201814	72	127
236.0881179138322	236.4944671201814	78	127
236.0881179138322	236.4944671201814	62	127
236.4944671201814	236.99369614512472	79	127
236.99369614512472	237.3768253968254	79	127
236.99369614512472	237.3768253968254	70	127
237.38843537414965	237.77156462585035	76	127
237.78317460317461	238.17791383219955	76	127
237.78317460317461	238.17791383219955	60	127
237.78317460317461	238.17791383219955	67	127
237.78317460317461	238.17791383219955	70	127
238.18952380952382	238.68875283446712	77	127
238.7003628117914	239.06027210884355	69	127
238.7003628117914	239.06027210884355	77	127
239.0718820861678	239.4201814058957	74	127
239.43179138321995	239.84975056689342	69	127
239.43179138321995	239.84975056689342	58	127
239.43179138321995	239.84975056689342	74	127
239.8613605442177	240.05873015873016	75	127
240.07034013605443	240.31414965986394	74	127
240.3257596371882	240.52312925170068	75	127
240.3257596371882	240.52312925170068	67	127
240.53473922902495	240.73210884353742	79	127
240.7437188208617	240.92947845804989	82	127
240.94108843537416	241.13845804988662	74	127
241.13845804988662	241.3358276643991	73	127
241.13845804988662	241.3358276643991	67	127
241.13845804988662	241.3358276643991	57	127
241.34743764172336	241.5564172335601	76	127
241.5564172335601	241.78861678004534	81	127
241.80022675736961	241.95115646258503	73	127
241.95115646258503	242.1485260770975	74	127
241.95115646258503	242.34589569160997	65	127
242.16013605442177	242.34589569160997	77	127
242.34589569160997	242.54326530612244	81	127
242.5548752834467	242.75224489795917	72	127
242.76385487528344	243.04249433106577	71	127
242.76385487528344	243.04249433106577	65	127
242.76385487528344	243.04249433106577	55	127
243.05410430839	243.23986394557824	80	127
243.2514739229025	243.47206349206348	79	127
243.47206349206348	243.66943310657595	77	127
243.68104308390022	243.8784126984127	79	127
243.8784126984127	244.06417233560092	74	127
244.07578231292516	244.2847619047619	75	127
244.2847619047619	244.4821315192744	71	127
244.49374149659863	244.6911111111111	72	127
244.49374149659863	244.6911111111111	63	127
244.49374149659863	244.6911111111111	55	127
244.6911111111111	244.8884807256236	80	127
244.90009070294784	245.08585034013606	79	127
245.0974603174603	245.2948299319728	77	127
245.30643990929704	245.49219954648527	79	127
245.50380952380954	245.701179138322	74	127
245.71278911564625	245.8869387755102	75	127
245.89854875283447	246.1075283446712	72	127
246.1075283446712	246.3281179138322	66	127
246.1075283446712	246.3281179138322	57	127
246.33972789115646	246.53709750566892	69	127
246.53709750566892	246.74607709750566	72	127
246.75768707482993	246.9550566893424	75	127
246.9550566893424	247.16403628117914	74	127
247.19886621315192	247.41945578231292	72	127
247.4310657596372	247.6516553287982	81	127
247.66326530612244	247.84902494331067	72	127
247.8606349206349	248.0580045351474	74	127
248.06961451247165	248.25537414965987	75	127
248.2669841269841	248.45274376417234	69	127
248.4643537414966	248.63850340136054	70	127
248.6501133786848	248.835873015873	72	127
248.835873015873	249.0332426303855	66	127
249.0332426303855	249.23061224489797	67	127
249.23061224489797	249.4395918367347	69	127
249.45120181405895	249.82272108843537	58	127
249.83433106575964	250.24068027210885	74	127
250.25229024943312	250.64702947845805	74	127
250.25229024943312	250.64702947845805	65	127
250.25229024943312	250.64702947845805	59	127
250.65863945578232	251.01854875283448	74	127
251.01854875283448	251.40167800453514	74	127
251.01854875283448	251.40167800453514	63	127
251.01854875283448	251.40167800453514	60	127
251.40167800453514	251.5758276643991	72	127
251.40167800453514	251.5758276643991	63	127
251.58743764172337	251.78480725623584	71	127
251.58743764172337	251.78480725623584	62	127
251.78480725623584	252.22598639455782	72	127
251.78480725623584	252.22598639455782	63	127
252.22598639455782	252.58589569160998	81	127
252.59750566893425	253.00385487528345	72	127
252.59750566893425	253.00385487528345	66	127
252.59750566893425	253.00385487528345	62	127
253.01546485260772	253.18961451247165	72	127
253.01546485260772	253.18961451247165	69	127
253.20122448979592	253.37537414965988	70	127
253.20122448979592	253.37537414965988	67	127
253.38698412698412	253.75850340136054	72	127
253.38698412698412	253.75850340136054	69	127
253.7701133786848	254.15324263038548	81	127
254.16485260770975	254.58281179138322	70	127
254.16485260770975	254.58281179138322	69	127
254.16485260770975	254.58281179138322	62	127
254.5944217687075	254.76857142857142	70	127
254.5944217687075	254.76857142857142	67	127
254.7801814058957	254.98916099773243	69	127
254.7801814058957	254.98916099773243	66	127
255.0007709750567	255.39551020408163	70	127
255.0007709750567	255.39551020408163	67	127
255.0007709750567	255.39551020408163	67	127
255.4071201814059	255.77863945578233	79	127
255.77863945578233	256.5100680272109	82	127
255.77863945578233	256.5100680272109	73	127
255.77863945578233	256.5100680272109	64	127
256.52167800453515	256.7190476190476	81	127
256.7190476190476	256.9164172335601	79	127
256.92802721088435	257.1253968253968	78	127
257.1253968253968	257.3575963718821	79	127
257.36920634920637	257.5897959183674	81	127
257.60138321995464	258.14707482993197	78	127
257.60138321995464	258.14707482993197	72	127
257.60138321995464	258.14707482993197	62	127
258.15868480725624	258.56503401360544	79	127
258.15868480725624	258.56503401360544	70	127
258.15868480725624	258.56503401360544	62	127
258.5766439909297	258.9946031746032	79	127
258.5766439909297	258.9946031746032	70	127
258.5766439909297	258.9946031746032	62	127
259.00621315192745	259.47061224489795	79	127
259.00621315192745	259.47061224489795	70	127
259.00621315192745	259.47061224489795	62	127
259.4822222222222	259.96984126984125	79	127
259.4822222222222	259.96984126984125	69	127
259.4822222222222	259.96984126984125	62	127
259.9814512471655	260.178820861678	60	127
260.2136507936508	260.45746031746035	58	127
260.4690476190476	260.91024943310657	78	127
260.4690476190476	260.91024943310657	69	127
260.4690476190476	260.91024943310657	62	127
260.4690476190476	260.91024943310657	60	127
260.92185941043084	261.3398185941043	57	127
261.3514285714286	261.76938775510206	77	127
261.3514285714286	261.76938775510206	74	127
261.3514285714286	261.76938775510206	67	127
261.3514285714286	261.76938775510206	59	127
261.76938775510206	261.9667573696145	60	127
261.9783673469388	262.17573696145126	59	127
262.17573696145126	262.605306122449	75	127
262.17573696145126	262.605306122449	67	127
262.17573696145126	262.605306122449	60	127
262.605306122449	263.0116553287982	55	127
263.0116553287982	263.3947845804989	75	127
263.0116553287982	263.3947845804989	65	127
263.0116553287982	263.3947845804989	57	127
263.40639455782315	263.6037641723356	58	127
263.6153741496599	263.77791383219954	57	127
263.7895238095238	264.21909297052156	74	127
263.7895238095238	264.21909297052156	65	127
263.7895238095238	264.21909297052156	58	127
264.2307029478458	264.6718820861678	82	127
264.2307029478458	264.6718820861678	74	127
264.2307029478458	264.6718820861678	62	127
264.68349206349205	265.08984126984126	63	127
264.68349206349205	265.08984126984126	79	127
264.68349206349205	265.08984126984126	74	127
265.1014512471655	265.298820861678	80	127
265.1014512471655	265.298820861678	72	127
265.298820861678	265.5310204081633	79	127
265.298820861678	265.5310204081633	70	127
265.54263038548754	265.72839002267574	80	127
265.54263038548754	265.94897959183675	72	127
265.74	265.94897959183675	78	127
265.960589569161	266.35532879818595	72	127
265.960589569161	266.35532879818595	79	127
265.960589569161	266.35532879818595	63	127
266.3669387755102	266.7848979591837	78	127
266.3669387755102	266.7848979591837	72	127
266.3669387755102	266.7848979591837	62	127
266.7848979591837	267.0170975056689	75	127
267.0287074829932	267.2376870748299	72	127
267.2376870748299	267.66725623582767	74	127
267.66725623582767	268.1316326530612	78	127
267.66725623582767	268.1316326530612	69	127
267.66725623582767	268.1316326530612	62	127
268.14326530612243	268.5728344671202	62	127
268.14326530612243	268.5728344671202	79	127
268.14326530612243	268.5728344671202	70	127
268.58444444444444	268.80503401360545	75	127
268.58444444444444	269.0140136054422	81	127
268.8166439909297	269.0140136054422	72	127
269.02562358276646	269.44358276643993	82	127
269.02562358276646	269.44358276643993	74	127
269.4551927437642	269.93120181405897	78	127
269.4551927437642	269.93120181405897	69	127
269.4551927437642	269.93120181405897	62	127
269.94281179138324	270.4536507936508	78	127
269.94281179138324	270.4536507936508	69	127
269.94281179138324	270.4536507936508	63	127
270.4652607709751	270.88321995464855	79	127
270.4652607709751	270.88321995464855	70	127
270.4652607709751	270.88321995464855	62	127
270.8948072562358	271.3360090702948	79	127
270.8948072562358	271.3360090702948	70	127
270.8948072562358	271.3360090702948	62	127
271.34761904761905	271.8352380952381	79	127
271.34761904761905	271.8352380952381	64	127
271.34761904761905	271.8352380952381	69	127
271.34761904761905	271.8352380952381	61	127
271.8352380952381	272.5898866213152	62	127
271.8352380952381	272.8220861678005	79	127
271.8352380952381	272.8220861678005	70	127
272.83367346938775	273.0891156462585	72	127
272.83367346938775	273.0891156462585	81	127
273.0891156462585	273.92503401360545	78	127
273.0891156462585	273.92503401360545	69	127
274.0411337868481	274.6912925170068	79	127
274.70290249433106	275.05120181405897	55	127
275.06281179138324	275.2949886621315	67	127
275.2949886621315	275.5039909297052	70	127
275.51560090702947	275.7361904761905	74	127
275.7361904761905	275.93356009070294	79	127
275.9451700680272	276.15414965986395	74	127
276.1657596371882	276.3515192743764	70	127
276.3631292517007	276.5372789115646	67	127
276.5488888888889	276.72301587301587	69	127
276.7346485260771	276.90879818594107	79	127
276.92038548752834	277.10616780045353	77	127
277.1177777777778	277.23385487528344	75	127
277.23385487528344	277.41963718820864	77	127
277.41963718820864	277.6170068027211	74	127
277.6286167800454	277.8027664399093	71	127
277.8027664399093	278.0001360544218	67	127
278.01174603174604	278.2207256235828	55	127
278.2207256235828	278.41809523809525	67	127
278.4297052154195	278.5922448979592	72	127
278.5922448979592	278.7431746031746	74	127
278.7547845804989	278.9405442176871	75	127
278.95215419501136	279.13791383219956	72	127
279.1495238095238	279.35850340136057	68	127
279.37011337868483	279.5674829931973	67	127
279.5674829931973	279.77646258503404	66	127
279.7880498866213	279.99702947845805	75	127
279.99702947845805	280.13637188208617	74	127
280.13637188208617	280.27569160997734	72	127
280.27569160997734	280.46145124716554	74	127
280.4730612244898	280.63560090702947	70	127
280.64721088435374	280.7981405895692	67	127
280.80972789115646	281.0071201814059	65	127
281.0187074829932	281.2277097505669	55	127
281.23931972789114	281.4250566893424	63	127
281.4366893424036	281.5992290249433	67	127
281.6108390022676	281.77337868480726	71	127
281.7849886621315	281.9707482993197	72	127
281.9707482993197	282.1565079365079	75	127
282.1681179138322	282.3770975056689	68	127
282.3770975056689	282.59768707482993	67	127
282.6092970521542	282.8066666666667	57	127
282.81827664399094	282.96920634920633	60	127
282.96920634920633	283.1549433106576	66	127
283.16655328798186	283.30589569161	69	127
283.30589569161	283.4800453514739	72	127
283.4916553287982	283.67739229024943	75	127
283.67739229024943	283.8747619047619	78	127
283.8863945578231	284.08374149659863	81	127
284.08374149659863	284.3043537414966	58	127
284.31596371882085	284.5249433106576	62	127
284.5249433106576	284.7107029478458	67	127
284.72231292517006	284.90807256235826	70	127
284.90807256235826	285.1054195011338	74	127
285.1054195011338	285.30278911564625	78	127
285.30278911564625	285.5001814058957	79	127
285.5001814058957	285.73238095238094	82	127
285.73238095238094	285.999410430839	60	127
285.999410430839	286.2432199546485	63	127
286.2432199546485	286.4638095238095	67	127
286.4638095238095	286.6960090702948	72	127
286.6960090702948	286.89337868480726	75	127
286.90498866213153	287.0907482993197	79	127
287.102358276644	287.40421768707483	81	127
287.4158276643991	287.84539682539685	84	127
287.84539682539685	288.1704535147392	62	127
288.53038548752835	288.98315192743763	84	127
289.0063945578231	289.4475736961451	82	127
289.4475736961451	289.74943310657596	74	127
289.76104308390023	289.93519274376416	73	127
289.9584126984127	290.15578231292517	82	127
290.15578231292517	290.48086167800454	81	127
290.48086167800454	290.84077097505667	72	127
290.8756009070295	291.0497505668934	71	127
291.0613605442177	291.1774603174603	81	127
291.1774603174603	291.3051700680272	79	127
291.3051700680272	291.57219954648525	70	127
291.57219954648525	291.6882993197279	69	127
291.69990929705216	291.83922902494334	79	127
291.83922902494334	292.001768707483	77	127
292.001768707483	292.15267573696144	68	127
292.15267573696144	292.2804081632653	67	127
292.29201814058956	292.4081179138322	77	127
292.41972789115647	292.5358276643991	75	127
292.5358276643991	292.70997732426304	67	127
292.70997732426304	292.9189569160998	66	127
292.93056689342404	293.05827664399095	75	127
293.0814739229025	293.19759637188207	74	127
293.19759637188207	293.3833333333333	65	127
293.3833333333333	293.6736054421769	64	127
293.69680272108843	293.8245351473923	74	127
293.83614512471655	294.033514739229	72	127
294.0451247165533	294.2192743764172	71	127
294.2192743764172	294.64884353741496	72	127
294.66045351473923	294.9971428571429	63	127
294.9971428571429	295.5428117913832	62	127
295.5428117913832	295.8098412698413	60	127
295.82145124716556	297.4816780045351	72	127
295.82145124716556	297.4816780045351	62	127
295.82145124716556	297.60938775510203	78	127
297.60938775510203	297.70226757369613	79	127
297.70226757369613	297.79514739229023	81	127
297.79514739229023	297.8996371882086	78	127
297.8996371882086	297.9925170068027	79	127
297.9925170068027	298.08537414965986	81	127
298.08537414965986	298.17827664399096	72	127
298.17827664399096	298.27115646258505	74	127
298.27115646258505	298.36403628117915	75	127
298.36403628117915	298.45691609977325	72	127
298.45691609977325	298.54979591836735	74	127
298.54979591836735	298.64267573696145	75	127
298.64267573696145	298.73555555555555	69	127
298.73555555555555	298.82843537414965	70	127
298.82843537414965	298.90968253968254	72	127
298.90968253968254	298.9793650793651	69	127
298.9793650793651	299.0606349206349	70	127
299.0606349206349	299.153514739229	72	127
299.153514739229	299.23478458049885	66	127
299.23478458049885	299.32766439909295	67	127
299.32766439909295	299.4205215419501	69	127
299.4205215419501	299.5134013605442	66	127
299.5134013605442	299.6063038548753	67	127
299.6063038548753	299.68757369614514	69	127
299.6991836734694	300.53510204081635	62	127
300.55832199546484	301.37102040816325	79	127
300.55832199546484	301.37102040816325	73	127
301.3826303854875	301.95151927437644	79	127
301.3826303854875	302.6597278911565	69	127
301.3826303854875	302.6597278911565	62	127
301.99795918367346	302.682925170068	81	127
302.682925170068	303.0544671201814	79	127
303.0544671201814	303.3795464852608	78	127
303.3795464852608	303.6233560090703	79	127
303.6233560090703	303.71621315192743	76	127
303.71621315192743	303.9135827664399	78	127
303.9135827664399	304.04131519274375	78	127
304.04131519274375	304.1458049886621	79	127
304.1458049886621	304.26190476190476	78	127
304.26190476190476	304.35478458049886	79	127
304.35478458049886	304.4708843537415	78	127
304.4708843537415	304.5637641723356	79	127
304.5637641723356	304.90045351473924	78	127
304.90045351473924	305.0049433106576	79	127
305.0049433106576	306.2936507936508	78	127
306.30526077097505	307.0599092970522	79	127
307.0831065759637	310.20621315192744	79	127
307.0831065759637	310.20621315192744	70	127
307.0831065759637	310.20621315192744	62	127
307.0831065759637	310.20621315192744	55	127
