# onset,offset,note,velocity
0.16174603174603175	0.521655328798186	79	127
0.5332879818594104	0.7306575963718821	82	127
0.7306575963718821	0.9164172335600907	79	127
0.9164172335600907	1.0209070294784581	74	127
1.0325170068027212	1.1718367346938776	79	127
1.1834467120181407	1.311156462585034	74	127
1.311156462585034	1.4388662131519274	70	127
1.4504761904761905	1.5781859410430839	74	127
1.5781859410430839	1.7058956916099772	70	127
1.7058956916099772	1.8219954648526078	67	127
1.8219954648526078	1.926485260770975	70	127
1.938095238095238	2.0425850340136056	67	127
2.0425850340136056	2.1586848072562357	62	127
2.1586848072562357	2.2631746031746034	67	127
2.2631746031746034	2.3792743764172335	62	127
2.3792743764172335	2.4837641723356008	58	127
2.495374149659864	2.6114512471655327	62	127
2.6230839002267574	2.7275736961451247	58	127
2.7275736961451247	2.8436734693877552	55	127
2.8436734693877552	2.9365306122448978	58	127
2.9481632653061225	3.041043083900227	62	127
3.0526530612244898	3.145532879818594	67	127
3.145532879818594	3.2732426303854876	70	127
3.2732426303854876	3.389342403628118	74	127
3.400952380952381	3.5170521541950115	79	127
3.5286621315192743	3.6563718820861677	74	127
3.6563718820861677	3.784081632653061	72	127
3.784081632653061	3.9350113378684806	70	127
3.9350113378684806	4.051111111111111	69	127
4.062721088435374	4.1788208616780045	67	127
4.190430839002268	4.294897959183674	66	127
4.294897959183674	4.422607709750567	62	127
4.422607709750567	4.538730158730159	66	127
4.55031746031746	4.666439909297052	69	127
4.678049886621316	4.805759637188209	74	127
4.805759637188209	4.945056689342404	78	127
4.945056689342404	5.061179138321996	81	127
5.072766439909297	5.212108843537415	75	127
5.223718820861678	5.339818594104308	74	127
5.339818594104308	5.4675283446712015	72	127
5.4675283446712015	5.5836281179138325	70	127
5.595215419501134	5.711337868480726	69	127
5.722925170068027	5.839047619047619	67	127
5.839047619047619	5.966757369614513	62	127
5.966757369614513	6.082857142857143	67	127
6.082857142857143	6.198956916099773	70	127
6.210566893424036	6.315056689342404	74	127
6.326666666666667	6.442766439909297	79	127
6.442766439909297	6.558866213151927	82	127
6.558866213151927	6.674965986394557	79	127
6.686575963718821	6.779455782312925	75	127
6.791065759637188	6.895555555555555	72	127
6.895555555555555	7.023265306122449	75	127
7.023265306122449	7.13936507936508	79	127
7.150975056689342	7.267074829931973	81	127
7.278684807256236	7.394784580498866	77	127
7.394784580498866	7.499274376417233	74	127
7.499274376417233	7.626984126984127	70	127
7.626984126984127	7.7430839002267575	74	127
7.754693877551021	7.847573696145124	77	127
7.859183673469388	7.975283446712018	79	127
7.975283446712018	8.102993197278911	75	127
8.102993197278911	8.219092970521542	72	127
8.230702947845804	8.335192743764173	69	127
8.346802721088435	8.462902494331066	72	127
8.462902494331066	8.59061224489796	75	127
8.59061224489796	8.753151927437642	62	127
8.787981859410431	8.915691609977324	79	127
8.927301587301587	9.043401360544218	78	127
9.043401360544218	9.171111111111111	79	127
9.171111111111111	9.287210884353742	81	127
9.298820861678005	9.414920634920636	72	127
9.426530612244898	9.542630385487529	67	127
9.542630385487529	9.670340136054422	72	127
9.670340136054422	9.798049886621316	70	127
9.798049886621316	9.914149659863945	72	127
9.937369614512471	10.053469387755102	74	127
10.065079365079365	10.181179138321996	65	127
10.181179138321996	10.297256235827664	60	127
10.297256235827664	10.401768707482994	77	127
10.413378684807256	10.517845804988662	76	127
10.529478458049887	10.633968253968254	77	127
10.633968253968254	10.761678004535147	79	127
10.761678004535147	10.866145124716553	70	127
10.877777777777778	10.982267573696145	65	127
10.993854875283446	11.109977324263038	70	127
11.109977324263038	11.22607709750567	69	127
11.22607709750567	11.353786848072563	70	127
11.353786848072563	11.469863945578231	72	127
11.481496598639456	11.60920634920635	63	127
11.620816326530612	11.736916099773243	58	127
11.736916099773243	11.864625850340136	75	127
11.864625850340136	11.980725623582767	74	127
11.99233560090703	12.10843537414966	75	127
12.120045351473923	12.236145124716554	77	127
12.236145124716554	12.363854875283447	68	127
12.363854875283447	12.49156462585034	63	127
12.503174603174603	12.619274376417234	58	127
12.630884353741497	12.746984126984128	63	127
12.746984126984128	12.874693877551021	67	127
12.874693877551021	12.979183673469388	63	127
12.99079365079365	13.095283446712019	67	127
13.106893424036281	13.222993197278912	72	127
13.222993197278912	13.362312925170068	67	127
13.362312925170068	13.490022675736961	72	127
13.490022675736961	13.594512471655328	75	127
13.606122448979592	13.710612244897959	72	127
13.722222222222221	13.82671201814059	75	127
13.82671201814059	13.954421768707483	65	127
13.954421768707483	14.070521541950113	60	127
14.082131519274377	14.198231292517006	65	127
14.20984126984127	14.337551020408164	69	127
14.337551020408164	14.465260770975057	65	127
14.465260770975057	14.581360544217688	69	127
14.59297052154195	14.709070294784581	74	127
14.720680272108844	14.836780045351475	69	127
14.836780045351475	14.952879818594104	74	127
14.952879818594104	15.080589569160997	77	127
15.080589569160997	15.185079365079366	74	127
15.196689342403628	15.301179138321995	77	127
15.31278911564626	15.417278911564626	67	127
15.417278911564626	15.533378684807257	62	127
15.533378684807257	15.62625850340136	67	127
15.637868480725624	15.753968253968255	70	127
15.765578231292517	15.870068027210884	67	127
15.870068027210884	15.997777777777777	70	127
15.997777777777777	16.090657596371884	75	127
16.102267573696146	16.218367346938777	70	127
16.22997732426304	16.31124716553288	75	127
16.31124716553288	16.42734693877551	79	127
16.42734693877551	16.520226757369613	75	127
16.53183673469388	16.647936507936507	79	127
16.659546485260773	16.740816326530613	69	127
16.740816326530613	16.868526077097506	65	127
16.868526077097506	16.97299319727891	69	127
16.97299319727891	17.07750566893424	72	127
17.07750566893424	17.19360544217687	69	127
17.205215419501133	17.29809523809524	72	127
17.29809523809524	17.425804988662133	77	127
17.425804988662133	17.530294784580498	72	127
17.5418820861678	17.65800453514739	77	127
17.669591836734693	17.785714285714285	81	127
17.785714285714285	17.901814058956916	77	127
17.901814058956916	18.017913832199547	81	127
18.02952380952381	18.14562358276644	70	127
18.157233560090702	18.26172335600907	72	127
18.26172335600907	18.377823129251702	74	127
18.377823129251702	18.505532879818595	82	127
18.505532879818595	18.621609977324262	81	127
18.63324263038549	18.749319727891155	82	127
18.760952380952382	18.900272108843538	72	127
18.900272108843538	19.039591836734694	74	127
19.039591836734694	19.155691609977325	75	127
19.167301587301587	19.283401360544218	82	127
19.29501133786848	19.422721088435374	81	127
19.422721088435374	19.550430839002267	82	127
19.550430839002267	19.643310657596373	74	127
19.654920634920636	19.75938775510204	75	127
19.771020408163267	19.887097505668933	77	127
19.887097505668933	19.991609977324263	82	127
19.991609977324263	20.107709750566894	81	127
20.119319727891156	20.235419501133787	82	127
20.24702947845805	20.351519274376418	75	127
20.351519274376418	20.46761904761905	77	127
20.46761904761905	20.595328798185943	79	127
20.595328798185943	20.71140589569161	82	127
20.723038548752836	20.839115646258502	81	127
20.85074829931973	20.978458049886623	82	127
20.978458049886623	21.106167800453516	69	127
21.106167800453516	21.222244897959182	72	127
21.257097505668934	21.384807256235828	75	127
21.39641723356009	21.51251700680272	79	127
21.51251700680272	21.640226757369614	77	127
21.640226757369614	21.756326530612245	75	127
21.767936507936508	21.8956462585034	74	127
21.907256235827663	22.034965986394557	70	127
22.034965986394557	22.16267573696145	75	127
22.16267573696145	22.313605442176872	70	127
22.313605442176872	22.429705215419503	77	127
22.441315192743765	22.557414965986396	68	127
22.56902494331066	22.673514739229024	67	127
22.673514739229024	22.789614512471655	69	127
22.789614512471655	22.905714285714286	70	127
22.917324263038548	23.03342403628118	62	127
23.04503401360544	23.184331065759636	60	127
23.184331065759636	23.370113378684806	69	127
23.370113378684806	23.61392290249433	58	127
23.625532879818593	23.764852607709752	62	127
23.776462585034015	23.892562358276646	60	127
23.892562358276646	24.02027210884354	58	127
24.02027210884354	24.147981859410432	57	127
24.159591836734695	24.275691609977326	55	127
24.287301587301588	24.41501133786848	57	127
24.41501133786848	24.554331065759637	67	127
24.554331065759637	24.705260770975055	66	127
24.705260770975055	24.83297052154195	64	127
24.844580498866215	24.972290249433108	62	127
24.98390022675737	25.123219954648526	72	127
25.123219954648526	25.25092970521542	70	127
25.25092970521542	25.378639455782313	69	127
25.390249433106575	25.55278911564626	67	127
25.576009070294784	25.692108843537415	77	127
25.692108843537415	25.81981859410431	76	127
25.81981859410431	25.947528344671202	74	127
25.959138321995464	26.09845804988662	73	127
26.110068027210886	26.226167800453513	82	127
26.226167800453513	26.353877551020407	81	127
26.353877551020407	26.493197278911566	79	127
26.493197278911566	26.62090702947846	77	127
26.632517006802722	26.771836734693878	76	127
26.771836734693878	26.89954648526077	77	127
26.89954648526077	27.027256235827664	74	127
27.027256235827664	27.143356009070295	79	127
27.154965986394558	27.317505668934242	74	127
27.340725623582767	27.480045351473922	81	127
27.480045351473922	27.66580498866213	72	127
27.66580498866213	27.85156462585034	70	127
27.863174603174603	27.990884353741496	81	127
28.00249433106576	28.11859410430839	79	127
28.11859410430839	28.246303854875283	77	127
28.246303854875283	28.362403628117914	76	127
28.374013605442176	28.490113378684807	74	127
28.50172335600907	28.594603174603176	76	127
28.594603174603176	28.73392290249433	72	127
28.73392290249433	28.861632653061225	77	127
28.861632653061225	29.00095238095238	72	127
29.012562358276643	29.140272108843536	79	127
29.1518820861678	29.26798185941043	70	127
29.26798185941043	29.442131519274376	69	127
29.442131519274376	29.558231292517007	79	127
29.56984126984127	29.6859410430839	77	127
29.697551020408163	29.825260770975056	76	127
29.825260770975056	29.95297052154195	74	127
29.95297052154195	30.080680272108843	73	127
30.092290249433105	30.196780045351474	74	127
30.208390022675736	30.312879818594105	70	127
30.312879818594105	30.440589569161	76	127
30.440589569161	30.568299319727892	70	127
30.568299319727892	30.684399092970523	77	127
30.696009070294785	30.82371882086168	69	127
30.82371882086168	30.951428571428572	67	127
30.951428571428572	31.079138321995465	77	127
31.079138321995465	31.195238095238096	76	127
31.20684807256236	31.32294784580499	74	127
31.334557823129252	31.462267573696145	73	127
31.462267573696145	31.613197278911564	71	127
31.613197278911564	31.740907029478457	73	127
31.75251700680272	31.86861678004535	69	127
31.880226757369613	31.996326530612244	74	127
31.996326530612244	32.112426303854875	69	127
32.112426303854875	32.228526077097506	76	127
32.24013605442177	32.333015873015874	67	127
32.34462585034014	32.46072562358277	65	127
32.46072562358277	32.5768253968254	74	127
32.5768253968254	32.68131519274377	70	127
32.68131519274377	32.797392290249434	67	127
32.80902494331066	32.92510204081633	64	127
32.936734693877554	33.04120181405896	72	127
33.04120181405896	33.15732426303855	62	127
33.15732426303855	33.28503401360544	70	127
33.296621315192745	33.41274376417233	67	127
33.42433106575964	33.54045351473923	64	127
33.54045351473923	33.644943310657595	60	127
33.644943310657595	33.761043083900226	69	127
33.77265306122449	33.87714285714286	58	127
33.88875283446712	33.99324263038549	67	127
33.99324263038549	34.12095238095238	64	127
34.12095238095238	34.26027210884354	61	127
34.26027210884354	34.37637188208617	57	127
34.38798185941043	34.50408163265306	65	127
34.50408163265306	34.631791383219955	55	127
34.631791383219955	34.75950113378685	65	127
34.75950113378685	34.87560090702948	64	127
34.88721088435374	35.014920634920635	62	127
35.0265306122449	35.177460317460316	61	127
35.177460317460316	35.31678004535147	59	127
35.31678004535147	35.4328798185941	57	127
35.444489795918365	35.560589569160996	62	127
35.57219954648526	35.68829931972789	61	127
35.68829931972789	35.83920634920635	64	127
35.83920634920635	35.95532879818594	62	127
35.96691609977324	36.083015873015874	65	127
36.09462585034014	36.22233560090703	57	127
36.22233560090703	36.35004535147392	64	127
36.35004535147392	36.489387755102044	62	127
36.489387755102044	36.61709750566894	65	127
36.6287074829932	36.74480725623583	64	127
36.75641723356009	36.86090702947846	67	127
36.86090702947846	36.988616780045355	57	127
36.988616780045355	37.10469387755102	65	127
37.11632653061225	37.22081632653061	64	127
37.22081632653061	37.32530612244898	67	127
37.32530612244898	37.44140589569161	65	127
37.44140589569161	37.55750566893424	69	127
37.5691156462585	37.685215419501134	58	127
37.696825396825396	37.81292517006803	67	127
37.81292517006803	37.92902494331066	66	127
37.92902494331066	38.05673469387755	69	127
38.05673469387755	38.16122448979592	67	127
38.17283446712018	38.31215419501134	70	127
38.31215419501134	38.451473922902494	61	127
38.451473922902494	38.614013605442175	70	127
38.614013605442175	38.7649433106576	69	127
38.77655328798186	38.89265306122449	67	127
38.904263038548756	39.02036281179139	65	127
39.02036281179139	39.15968253968254	64	127
39.15968253968254	39.32222222222222	65	127
39.333832199546485	39.46154195011338	62	127
39.47315192743764	39.6124716553288	65	127
39.6124716553288	39.75179138321995	69	127
39.75179138321995	39.879501133786846	74	127
39.89108843537415	40.00721088435374	77	127
40.018798185941044	40.13492063492063	81	127
40.14650793650794	40.320680272108845	77	127
40.320680272108845	40.541269841269845	69	127
40.69219954648526	41.017278911564624	73	127
40.69219954648526	41.017278911564624	67	127
40.69219954648526	41.017278911564624	57	127
41.017278911564624	42.25954648526077	74	127
41.017278911564624	42.25954648526077	66	127
41.017278911564624	42.25954648526077	62	127
42.27115646258503	42.49174603174603	79	127
42.49174603174603	42.619455782312926	82	127
42.63106575963719	42.79360544217687	79	127
42.79360544217687	42.92131519274376	74	127
42.92131519274376	43.03741496598639	79	127
43.049024943310656	43.16512471655329	74	127
43.17673469387755	43.28122448979592	70	127
43.28122448979592	43.39732426303855	74	127
43.39732426303855	43.51342403628118	70	127
43.52503401360544	43.64113378684807	67	127
43.652743764172335	43.768843537414966	70	127
43.768843537414966	43.89655328798186	67	127
43.89655328798186	44.02426303854875	62	127
44.02426303854875	44.11714285714286	67	127
44.12875283446712	44.23324263038549	62	127
44.24485260770975	44.34934240362812	58	127
44.34934240362812	44.477052154195015	62	127
44.477052154195015	44.59312925170068	58	127
44.60476190476191	44.720839002267574	55	127
44.7324716553288	44.8253514739229	58	127
44.8253514739229	44.953061224489794	62	127
44.953061224489794	45.069160997732425	67	127
45.08077097505669	45.185260770975056	70	127
45.19687074829932	45.31297052154195	74	127
45.31297052154195	45.44068027210884	79	127
45.44068027210884	45.568390022675736	74	127
45.568390022675736	45.68448979591837	72	127
45.69609977324263	45.81219954648526	70	127
45.82380952380952	45.951519274376416	69	127
45.951519274376416	46.07922902494331	67	127
46.07922902494331	46.19532879818594	66	127
46.2069387755102	46.323038548752834	62	127
46.334648526077096	46.45074829931973	66	127
46.45074829931973	46.57845804988662	69	127
46.57845804988662	46.68294784580499	74	127
46.69455782312925	46.81065759637188	78	127
46.822267573696145	46.938367346938776	81	127
46.938367346938776	47.06607709750567	75	127
47.06607709750567	47.1821768707483	74	127
47.19378684807256	47.321496598639456	72	127
47.33310657596372	47.44920634920635	70	127
47.44920634920635	47.57691609977324	69	127
47.57691609977324	47.704625850340136	67	127
47.704625850340136	47.82072562358277	62	127
47.83233560090703	47.9368253968254	67	127
47.94843537414966	48.05292517006803	70	127
48.05292517006803	48.1574149659864	74	127
48.1574149659864	48.27351473922902	79	127
48.28512471655329	48.401224489795915	82	127
48.412834467120184	48.52893424036281	79	127
48.52893424036281	48.6566439909297	75	127
48.6566439909297	48.77274376417233	72	127
48.784353741496595	48.900453514739226	75	127
48.912063492063496	49.02816326530612	79	127
49.02816326530612	49.15587301587301	81	127
49.15587301587301	49.283582766439906	77	127
49.283582766439906	49.39968253968254	74	127
49.4112925170068	49.52739229024943	70	127
49.53900226757369	49.62027210884354	74	127
49.62027210884354	49.74798185941043	77	127
49.74798185941043	49.86408163265306	79	127
49.87569160997732	49.991791383219955	75	127
50.00340136054422	50.11950113378685	72	127
50.11950113378685	50.24721088435374	69	127
50.24721088435374	50.36331065759637	72	127
50.374920634920635	50.491020408163266	75	127
50.50263038548753	50.653560090702946	62	127
50.653560090702946	50.7928798185941	79	127
50.7928798185941	50.90897959183673	78	127
50.920589569160995	51.036689342403626	79	127
51.04829931972789	51.16439909297052	81	127
51.16439909297052	51.303718820861675	72	127
51.303718820861675	51.43142857142857	67	127
51.43142857142857	51.5475283446712	72	127
51.55913832199546	51.67523809523809	70	127
51.686848072562356	51.80294784580499	72	127
51.80294784580499	51.93065759637188	74	127
51.93065759637188	52.05836734693877	65	127
52.0815873015873	52.19768707482993	60	127
52.20929705215419	52.32539682539682	77	127
52.32539682539682	52.453106575963716	76	127
52.453106575963716	52.56920634920635	77	127
52.58081632653061	52.69691609977324	79	127
52.7085260770975	52.824625850340134	70	127
52.824625850340134	52.95233560090703	65	127
52.95233560090703	53.08004535147392	70	127
53.08004535147392	53.19614512471655	69	127
53.207755102040814	53.323854875283445	70	127
53.33546485260771	53.4631746031746	72	127
53.4631746031746	53.602494331065756	63	127
53.602494331065756	53.74181405895692	58	127
53.75342403628118	53.86952380952381	75	127
53.881133786848075	53.997233560090706	74	127
53.997233560090706	54.1249433106576	75	127
54.1249433106576	54.24104308390023	77	127
54.25265306122449	54.368752834467124	68	127
54.380362811791386	54.50807256235828	63	127
54.50807256235828	54.63578231292517	58	127
54.63578231292517	54.751882086167804	63	127
54.763492063492066	54.8795918367347	67	127
54.89120181405896	55.00730158730159	63	127
55.00730158730159	55.123401360544214	67	127
55.123401360544214	55.25111111111111	72	127
55.25111111111111	55.36721088435374	67	127
55.378820861678	55.49492063492063	72	127
55.506530612244894	55.63424036281179	75	127
55.63424036281179	55.76195011337869	72	127
55.76195011337869	55.87804988662131	75	127
55.88965986394558	56.005759637188206	65	127
56.017369614512475	56.1334693877551	60	127
56.1334693877551	56.24956916099773	65	127
56.24956916099773	56.36566893424036	69	127
56.37727891156462	56.48176870748299	65	127
56.493378684807254	56.609478458049885	69	127
56.609478458049885	56.73718820861678	74	127
56.73718820861678	56.86489795918367	69	127
56.86489795918367	57.00421768707483	74	127
57.01582766439909	57.13192743764172	77	127
57.13192743764172	57.259637188208615	74	127
57.259637188208615	57.38734693877551	77	127
57.38734693877551	57.50344671201814	67	127
57.5150566893424	57.63115646258503	62	127
57.642766439909295	57.758866213151926	67	127
57.758866213151926	57.88657596371882	70	127
57.88657596371882	57.99106575963719	67	127
58.00267573696145	58.083945578231294	70	127
58.095555555555556	58.200045351473925	75	127
58.200045351473925	58.32775510204082	70	127
58.32775510204082	58.44385487528345	75	127
58.45546485260771	58.57156462585034	79	127
58.583174603174605	58.66444444444444	75	127
58.66444444444444	58.792154195011335	79	127
58.792154195011335	58.896643990929704	69	127
58.896643990929704	59.012743764172335	65	127
59.0243537414966	59.1172335600907	69	127
59.128843537414966	59.233333333333334	72	127
59.233333333333334	59.3378231292517	69	127
59.3378231292517	59.44231292517007	72	127
59.453922902494334	59.558412698412695	77	127
59.570022675736965	59.68612244897959	72	127
59.68612244897959	59.81383219954648	77	127
59.81383219954648	59.92993197278911	81	127
59.941541950113375	60.05764172335601	77	127
60.06925170068027	60.1853514739229	81	127
60.1853514739229	60.31306122448979	70	127
60.31306122448979	60.45238095238095	72	127
60.45238095238095	60.56848072562358	74	127
60.58009070294784	60.69619047619047	82	127
60.69619047619047	60.82390022675737	81	127
60.82390022675737	60.95160997732426	82	127
60.95160997732426	61.06770975056689	72	127
61.09092970521542	61.23024943310658	74	127
61.24185941043084	61.35795918367347	75	127
61.35795918367347	61.485668934240366	82	127
61.485668934240366	61.601768707483	81	127
61.61337868480726	61.72947845804989	82	127
61.752698412698415	61.868798185941046	74	127
61.868798185941046	61.98489795918368	75	127
61.98489795918368	62.1009977324263	77	127
62.11260770975057	62.228707482993194	82	127
62.24031746031746	62.35641723356009	81	127
62.35641723356009	62.48412698412698	82	127
62.48412698412698	62.611836734693874	75	127
62.611836734693874	62.70471655328798	77	127
62.71632653061224	62.832426303854874	79	127
62.844036281179136	62.96013605442177	82	127
62.96013605442177	63.08784580498866	81	127
63.08784580498866	63.20394557823129	82	127
63.215555555555554	63.331655328798185	69	127
63.34326530612245	63.45936507936508	72	127
63.45936507936508	63.598684807256234	75	127
63.598684807256234	63.714784580498865	79	127
63.72639455782313	63.84249433106576	77	127
63.85410430839002	63.981814058956914	75	127
63.981814058956914	64.12113378684808	74	127
64.12113378684808	64.24884353741497	70	127
64.24884353741497	64.3649433106576	75	127
64.37655328798186	64.49265306122449	70	127
64.49265306122449	64.62036281179138	77	127
64.62036281179138	64.75968253968254	68	127
64.75968253968254	64.87578231292517	67	127
64.88739229024944	65.02671201814059	69	127
65.03832199546486	65.15442176870748	70	127
65.15442176870748	65.28213151927437	62	127
65.28213151927437	65.39823129251701	60	127
65.40984126984127	65.5259410430839	69	127
65.53755102040816	65.6536507936508	58	127
65.6536507936508	65.93229024943311	62	127
65.93229024943311	66.08321995464853	60	127
66.09480725623582	66.22251700680272	58	127
66.23414965986395	66.35022675736961	57	127
66.35022675736961	66.501179138322	55	127
66.501179138322	66.64049886621315	57	127
66.64049886621315	66.75659863945579	67	127
66.76820861678004	66.89591836734694	66	127
66.9075283446712	67.02362811791383	64	127
67.02362811791383	67.18616780045352	62	127
67.18616780045352	67.30226757369614	72	127
67.31387755102041	67.42997732426304	70	127
67.4415873015873	67.58090702947845	69	127
67.58090702947845	67.72022675736962	67	127
67.72022675736962	67.83632653061224	77	127
67.84793650793651	67.96403628117913	76	127
67.9756462585034	68.09174603174603	74	127
68.09174603174603	68.24265306122449	73	127
68.24265306122449	68.40521541950113	82	127
68.40521541950113	68.53292517006803	81	127
68.5445351473923	68.67224489795919	79	127
68.67224489795919	68.79995464852608	77	127
68.79995464852608	68.93927437641723	76	127
68.93927437641723	69.10181405895692	77	127
69.11340136054422	69.25274376417234	74	127
69.26433106575963	69.38045351473923	79	127
69.38045351473923	69.50816326530612	74	127
69.50816326530612	69.62424036281179	81	127
69.63587301587302	69.75195011337868	72	127
69.76358276643991	69.87965986394558	70	127
69.87965986394558	70.05383219954649	81	127
70.05383219954649	70.16993197278912	79	127
70.18154195011338	70.29764172335601	77	127
70.30925170068028	70.4253514739229	76	127
70.4253514739229	70.5530612244898	74	127
70.5530612244898	70.68077097505669	76	127
70.68077097505669	70.79687074829933	72	127
70.80848072562358	70.92458049886622	77	127
70.93619047619048	71.05229024943311	72	127
71.05229024943311	71.22643990929706	79	127
71.22643990929706	71.34253968253968	70	127
71.35414965986395	71.4934693877551	69	127
71.50507936507937	71.63278911564626	79	127
71.63278911564626	71.76049886621315	77	127
71.76049886621315	71.87659863945578	76	127
71.88820861678005	72.01591836734694	74	127
72.0275283446712	72.15523809523809	73	127
72.15523809523809	72.28294784580498	74	127
72.28294784580498	72.41065759637188	70	127
72.41065759637188	72.52675736961451	76	127
72.53834467120181	72.65446712018141	70	127
72.65446712018141	72.7821768707483	77	127
72.7821768707483	72.92147392290249	69	127
72.92147392290249	73.03759637188209	67	127
73.04918367346939	73.16530612244898	77	127
73.17689342403628	73.29301587301588	76	127
73.29301587301588	73.42072562358277	74	127
73.42072562358277	73.53682539682539	73	127
73.54843537414966	73.66453514739229	71	127
73.67614512471656	73.79224489795918	73	127
73.79224489795918	73.91995464852607	69	127
73.91995464852607	74.02444444444444	74	127
74.03605442176871	74.12893424036281	69	127
74.14054421768708	74.2566439909297	76	127
74.2566439909297	74.3843537414966	67	127
74.3843537414966	74.51206349206349	65	127
74.51206349206349	74.61655328798186	74	127
74.62816326530613	74.74426303854875	70	127
74.75587301587302	74.86036281179139	67	127
74.86036281179139	74.98807256235828	64	127
74.98807256235828	75.10417233560091	72	127
75.11578231292518	75.2318820861678	62	127
75.24349206349207	75.34795918367347	70	127
75.34795918367347	75.46408163265306	67	127
75.46408163265306	75.56857142857143	64	127
75.58018140589569	75.6730612244898	60	127
75.68467120181406	75.78916099773242	69	127
75.78916099773242	75.91687074829932	58	127
75.91687074829932	76.06780045351474	67	127
76.06780045351474	76.18390022675737	64	127
76.19551020408163	76.31160997732427	61	127
76.31160997732427	76.45092970521542	57	127
76.45092970521542	76.57863945578231	65	127
76.57863945578231	76.69473922902495	55	127
76.7063492063492	76.84566893424036	65	127
76.85725623582766	76.97337868480726	64	127
76.97337868480726	77.10108843537415	62	127
77.10108843537415	77.26360544217687	61	127
77.2752380952381	77.39133786848073	59	127
77.40294784580499	77.51904761904763	57	127
77.51904761904763	77.64675736961452	62	127
77.64675736961452	77.76285714285714	61	127
77.77446712018141	77.9021768707483	64	127
77.91378684807256	78.01827664399093	62	127
78.01827664399093	78.14598639455782	65	127
78.14598639455782	78.27369614512472	57	127
78.27369614512472	78.40140589569161	64	127
78.41301587301588	78.5291156462585	62	127
78.54072562358277	78.6568253968254	65	127
78.6568253968254	78.79614512471656	64	127
78.79614512471656	78.91224489795918	67	127
78.92385487528345	79.03995464852608	57	127
79.05156462585035	79.16766439909297	65	127
79.16766439909297	79.29537414965986	64	127
79.29537414965986	79.41145124716553	67	127
79.42308390022676	79.53916099773242	65	127
79.55079365079365	79.66687074829932	69	127
79.66687074829932	79.79458049886621	58	127
79.79458049886621	79.9222902494331	67	127
79.9222902494331	80.0384126984127	66	127
80.05	80.16612244897959	69	127
80.16612244897959	80.29383219954649	67	127
80.29383219954649	80.4447619047619	70	127
80.4447619047619	80.60730158730159	61	127
80.61891156462585	80.74662131519274	70	127
80.75823129251701	80.89755102040816	69	127
80.89755102040816	81.0136507936508	67	127
81.0136507936508	81.12975056689342	65	127
81.14136054421769	81.26907029478458	64	127
81.29229024943311	81.52448979591837	65	127
81.52448979591837	81.69863945578231	62	127
81.69863945578231	81.81471655328798	65	127
81.8263492063492	81.96566893424037	69	127
81.97727891156462	82.09337868480726	74	127
82.09337868480726	82.22108843537416	77	127
82.22108843537416	82.34879818594105	81	127
82.34879818594105	82.58097505668934	77	127
82.59260770975057	82.81319727891156	69	127
82.95251700680272	83.2427664399093	73	127
82.95251700680272	83.2427664399093	67	127
82.95251700680272	83.2427664399093	57	127
83.25437641723356	84.36893424036282	74	127
83.25437641723356	84.36893424036282	66	127
83.25437641723356	84.36893424036282	62	127
84.38054421768707	84.51986394557824	62	127
84.51986394557824	84.65918367346939	57	127
84.67079365079366	84.8101133786848	62	127
84.83333333333333	84.96104308390022	66	127
84.97265306122449	85.08875283446712	62	127
85.10036281179138	85.23965986394558	66	127
85.23965986394558	85.3790022675737	69	127
85.3790022675737	85.50671201814059	66	127
85.51832199546486	85.63442176870748	69	127
85.64603174603175	85.76213151927438	74	127
85.76213151927438	85.92467120181406	69	127
85.92467120181406	86.08721088435374	74	127
86.098820861678	86.21492063492063	78	127
86.2265306122449	86.34263038548752	74	127
86.34263038548752	86.48195011337869	78	127
86.48195011337869	86.59804988662131	81	127
86.60965986394558	86.7257596371882	78	127
86.73736961451247	86.86507936507937	81	127
86.86507936507937	87.01600907029479	86	127
87.01600907029479	87.201768707483	81	127
87.201768707483	87.32947845804989	78	127
87.34108843537415	87.46879818594104	74	127
87.48040816326531	87.59650793650793	69	127
87.59650793650793	87.7358276643991	66	127
87.7358276643991	87.85192743764172	62	127
87.85192743764172	87.96802721088436	64	127
87.97963718820861	88.08412698412698	66	127
88.08412698412698	88.20022675736962	67	127
88.20022675736962	88.30471655328799	69	127
88.31632653061224	88.42081632653061	70	127
88.43242630385488	88.5485260770975	72	127
88.5485260770975	88.6762358276644	75	127
88.6762358276644	88.81555555555556	72	127
88.81555555555556	88.92002267573696	69	127
88.93165532879819	89.03614512471655	72	127
89.03614512471655	89.14063492063492	69	127
89.14063492063492	89.26834467120182	66	127
89.26834467120182	89.38444444444444	62	127
89.39605442176871	89.51215419501133	66	127
89.5237641723356	89.63986394557823	69	127
89.63986394557823	89.76757369614512	74	127
89.76757369614512	89.87206349206349	72	127
89.88367346938776	89.98816326530613	70	127
89.99977324263038	90.0926530612245	74	127
90.0926530612245	90.20875283446712	70	127
90.20875283446712	90.32482993197279	67	127
90.33646258503401	90.45253968253968	62	127
90.4641723356009	90.58024943310657	58	127
90.58024943310657	90.70795918367347	55	127
90.70795918367347	90.83566893424036	57	127
90.83566893424036	90.96337868480725	58	127
90.97501133786848	91.06786848072562	60	127
91.07950113378685	91.18399092970522	62	127
91.18399092970522	91.31170068027211	63	127
91.31170068027211	91.42780045351473	65	127
91.439410430839	91.55551020408163	68	127
91.5671201814059	91.67160997732427	65	127
91.67160997732427	91.79931972789116	62	127
91.79931972789116	91.91541950113378	65	127
91.92702947845805	92.04312925170068	62	127
92.05473922902495	92.17083900226757	59	127
92.17083900226757	92.28693877551021	55	127
92.28693877551021	92.36820861678005	59	127
92.36820861678005	92.46108843537415	62	127
92.47267573696145	92.57718820861678	67	127
92.58879818594104	92.69328798185941	65	127
92.69328798185941	92.8209977324263	63	127
92.8209977324263	92.93709750566893	60	127
92.9487074829932	93.05319727891157	63	127
93.06480725623582	93.16929705215419	67	127
93.16929705215419	93.29700680272109	72	127
93.29700680272109	93.41310657596372	74	127
93.42471655328798	93.56403628117914	75	127
93.5756462585034	93.68013605442177	72	127
93.68013605442177	93.7962358276644	68	127
93.7962358276644	93.87748299319728	65	127
93.8891156462585	94.00519274376417	68	127
94.0168253968254	94.13290249433106	72	127
94.13290249433106	94.24902494331066	74	127
94.24902494331066	94.37673469387755	70	127
94.37673469387755	94.49281179138322	67	127
94.49281179138322	94.59732426303854	63	127
94.60893424036281	94.71342403628118	67	127
94.71342403628118	94.84113378684808	70	127
94.84113378684808	94.9572335600907	72	127
94.96884353741497	95.09655328798186	68	127
95.10816326530612	95.22426303854876	65	127
95.22426303854876	95.35197278911565	62	127
95.35197278911565	95.45646258503402	65	127
95.46807256235827	95.58417233560091	68	127
95.59578231292517	95.7118820861678	55	127
95.7118820861678	95.85120181405895	72	127
95.85120181405895	95.99052154195012	71	127
95.99052154195012	96.14145124716553	72	127
96.15306122448979	96.26916099773243	74	127
96.28077097505668	96.39687074829932	65	127
96.39687074829932	96.52458049886621	60	127
96.52458049886621	96.64068027210884	77	127
96.65229024943311	96.76839002267573	75	127
96.78	96.9077097505669	77	127
96.9077097505669	97.03541950113379	79	127
97.03541950113379	97.15151927437641	70	127
97.16312925170068	97.2792290249433	65	127
97.29083900226757	97.39532879818594	70	127
97.39532879818594	97.51142857142857	68	127
97.51142857142857	97.6275283446712	70	127
97.63913832199546	97.7552380952381	72	127
97.76684807256235	97.88294784580499	63	127
97.88294784580499	97.99904761904762	58	127
97.99904761904762	98.12675736961451	75	127
98.12675736961451	98.24285714285715	74	127
98.2544671201814	98.37056689342404	75	127
98.3821768707483	98.49827664399093	77	127
98.49827664399093	98.62598639455783	68	127
98.62598639455783	98.7304761904762	63	127
98.74208616780045	98.86979591836734	68	127
98.88140589569161	98.99750566893424	67	127
98.99750566893424	99.11360544217688	68	127
99.11360544217688	99.24131519274377	70	127
99.2645351473923	99.40385487528344	61	127
99.41546485260771	99.60122448979592	56	127
99.60122448979592	99.72893424036282	60	127
99.72893424036282	99.85664399092971	65	127
99.85664399092971	99.97274376417234	68	127
99.9843537414966	100.1120634920635	67	127
100.12367346938775	100.25138321995465	65	127
100.25138321995465	100.39070294784581	59	127
100.39070294784581	100.50680272108843	62	127
100.5184126984127	100.63451247165533	65	127
100.6461224489796	100.76222222222222	68	127
100.76222222222222	100.88993197278911	67	127
100.88993197278911	101.00603174603175	65	127
101.01764172335601	101.15696145124717	60	127
101.16857142857143	101.28467120181406	64	127
101.28467120181406	101.42399092970521	65	127
101.42399092970521	101.54009070294785	68	127
101.5517006802721	101.66780045351474	67	127
101.679410430839	101.79551020408164	65	127
101.79551020408164	101.92321995464853	62	127
101.92321995464853	102.05092970521542	65	127
102.05092970521542	102.16702947845805	71	127
102.17863945578232	102.29473922902494	72	127
102.30634920634921	102.4340589569161	74	127
102.4340589569161	102.561768707483	65	127
102.561768707483	102.72430839002267	63	127
102.73591836734694	102.85201814058956	67	127
102.86362811791383	102.97972789115646	72	127
102.97972789115646	103.10743764172335	74	127
103.10743764172335	103.24675736961451	75	127
103.26997732426304	103.38607709750566	72	127
103.39768707482993	103.52539682539683	80	127
103.52539682539683	103.65310657596372	79	127
103.65310657596372	103.79242630385488	77	127
103.79242630385488	103.92013605442177	75	127
103.93174603174603	104.04784580498867	74	127
104.05945578231292	104.17555555555556	72	127
104.17555555555556	104.30326530612246	79	127
104.30326530612246	104.41936507936508	74	127
104.43097505668935	104.54707482993197	75	127
104.55868480725624	104.69800453514739	72	127
104.69800453514739	104.82571428571428	67	127
104.82571428571428	104.94181405895692	71	127
104.95342403628118	105.18562358276644	60	127
105.19723356009071	105.31333333333333	65	127
105.31333333333333	105.44104308390023	63	127
105.44104308390023	105.56875283446712	62	127
105.58036281179139	105.7312925170068	60	127
105.74290249433106	105.8590022675737	58	127
105.8590022675737	105.9867120181406	57	127
105.9867120181406	106.11442176870749	60	127
106.11442176870749	106.23052154195011	65	127
106.24213151927438	106.358231292517	60	127
106.36984126984127	106.4859410430839	65	127
106.4859410430839	106.61365079365079	69	127
106.61365079365079	106.72975056689343	65	127
106.74136054421768	106.85746031746032	69	127
106.86907029478458	106.96195011337869	72	127
106.96195011337869	107.08965986394558	69	127
107.08965986394558	107.21736961451248	72	127
107.22897959183673	107.34507936507937	75	127
107.35668934240363	107.47278911564626	72	127
107.47278911564626	107.61210884353741	75	127
107.61210884353741	107.7398185941043	81	127
107.7398185941043	107.85591836734694	79	127
107.8675283446712	107.98362811791384	77	127
107.98362811791384	108.11133786848073	75	127
108.11133786848073	108.25065759637188	74	127
108.25065759637188	108.36675736961452	72	127
108.37836734693877	108.49446712018141	70	127
108.50607709750567	108.61056689342404	72	127
108.61056689342404	108.72666666666667	74	127
108.72666666666667	108.8427664399093	76	127
108.85437641723357	108.95886621315192	78	127
108.97047619047619	109.08657596371881	81	127
109.08657596371881	109.21428571428571	84	127
109.21428571428571	109.33038548752835	81	127
109.3419954648526	109.45809523809524	78	127
109.4697052154195	109.59741496598639	81	127
109.59741496598639	109.72512471655328	78	127
109.72512471655328	109.86444444444444	72	127
109.86444444444444	109.98054421768707	78	127
109.99215419501134	110.10825396825396	72	127
110.11986394557823	110.23596371882086	69	127
110.23596371882086	110.36367346938775	72	127
110.36367346938775	110.47977324263039	69	127
110.49138321995464	110.59587301587301	66	127
110.60748299319728	110.73519274376417	69	127
110.73519274376417	110.86290249433107	66	127
110.86290249433107	110.97900226757369	62	127
110.99061224489796	111.10671201814058	72	127
111.11832199546485	111.23442176870748	70	127
111.23442176870748	111.36213151927437	67	127
111.36213151927437	111.50145124716553	70	127
111.50145124716553	111.62916099773243	67	127
111.64077097505668	111.75687074829932	64	127
111.75687074829932	111.87297052154194	74	127
111.87297052154194	111.96585034013606	72	127
111.96585034013606	112.08195011337868	69	127
112.09356009070295	112.19804988662132	72	127
112.20965986394557	112.32575963718821	69	127
112.32575963718821	112.4534693877551	66	127
112.4534693877551	112.56956916099773	75	127
112.581179138322	112.69727891156462	74	127
112.7088888888889	112.82498866213152	70	127
112.82498866213152	112.94108843537416	74	127
112.94108843537416	113.05718820861678	70	127
113.06879818594105	113.17328798185942	67	127
113.18489795918367	113.30099773242631	77	127
113.30099773242631	113.37065759637188	75	127
113.37065759637188	113.49836734693878	72	127
113.49836734693878	113.6144671201814	75	127
113.62607709750567	113.73056689342404	72	127
113.7421768707483	113.85827664399093	69	127
113.85827664399093	113.99759637188208	79	127
113.99759637188208	114.12530612244898	78	127
114.13691609977325	114.25301587301587	74	127
114.26462585034014	114.38072562358276	76	127
114.38072562358276	114.50843537414966	78	127
114.50843537414966	114.6245351473923	79	127
114.63614512471655	114.75224489795919	81	127
114.76385487528344	114.87995464852608	82	127
114.87995464852608	115.00766439909297	74	127
115.00766439909297	115.13537414965987	79	127
115.13537414965987	115.25147392290249	82	127
115.26308390022676	115.41401360544218	72	127
115.41401360544218	115.54172335600907	75	127
115.54172335600907	115.66943310657597	81	127
115.66943310657597	115.78553287981859	77	127
115.79714285714286	115.91324263038548	74	127
115.92485260770975	116.04095238095238	70	127
116.04095238095238	116.15705215419501	74	127
116.15705215419501	116.27315192743764	77	127
116.28476190476191	116.4124716553288	79	127
116.42408163265306	116.5401814058957	70	127
116.5401814058957	116.65628117913832	75	127
116.65628117913832	116.77238095238096	79	127
116.78399092970521	116.87687074829932	69	127
116.88848072562358	116.9813605442177	72	127
116.9813605442177	117.08585034013605	77	127
117.08585034013605	117.21356009070294	74	127
117.21356009070294	117.32965986394558	70	127
117.34126984126983	117.4457596371882	67	127
117.45736961451247	117.56185941043084	70	127
117.56185941043084	117.66634920634921	74	127
117.66634920634921	117.78244897959183	75	127
117.7940589569161	117.8869387755102	67	127
117.89854875283447	118.0146485260771	72	127
118.0146485260771	118.14235827664399	75	127
118.14235827664399	118.25845804988663	65	127
118.27006802721088	118.38616780045352	69	127
118.39777777777778	118.51387755102041	74	127
118.51387755102041	118.60675736961451	70	127
118.60675736961451	118.7344671201814	67	127
118.7344671201814	118.85056689342403	64	127
118.8621768707483	118.96666666666667	67	127
118.96666666666667	119.09437641723356	70	127
119.09437641723356	119.22208616780046	72	127
119.22208616780046	119.33818594104308	69	127
119.34979591836735	119.45428571428572	70	127
119.46589569160997	119.57038548752834	67	127
119.57038548752834	119.69809523809523	66	127
119.69809523809523	119.8025850340136	69	127
119.81419501133787	119.91868480725624	62	127
119.9302947845805	120.04639455782313	64	127
120.04639455782313	120.16249433106576	66	127
120.16249433106576	120.25537414965986	67	127
120.26698412698413	120.3714739229025	69	127
120.38308390022675	120.49918367346939	70	127
120.49918367346939	120.62689342403628	72	127
120.62689342403628	120.75460317460318	75	127
120.75460317460318	120.8707029478458	74	127
120.88231292517007	120.9984126984127	79	127
121.01002267573696	121.12612244897959	78	127
121.12612244897959	121.26544217687075	82	127
121.26544217687075	121.38154195011337	81	127
121.39315192743764	121.57891156462586	79	127
121.59052154195011	121.70662131519275	78	127
121.70662131519275	121.83433106575964	76	127
121.83433106575964	121.95043083900227	74	127
121.96204081632654	122.08975056689343	72	127
122.10136054421768	122.21746031746032	70	127
122.21746031746032	122.35678004535147	75	127
122.35678004535147	122.48448979591836	74	127
122.48448979591836	122.62380952380953	70	127
122.63541950113378	122.75151927437642	72	127
122.75151927437642	122.87922902494331	69	127
122.87922902494331	123.0069387755102	65	127
123.0069387755102	123.11142857142858	74	127
123.12303854875283	123.23913832199547	72	127
123.25074829931972	123.36684807256236	69	127
123.36684807256236	123.48294784580499	70	127
123.48294784580499	123.56421768707483	67	127
123.5758276643991	123.6687074829932	63	127
123.6687074829932	123.77319727891157	72	127
123.77319727891157	123.90090702947846	70	127
123.90090702947846	124.01700680272108	67	127
124.02861678004535	124.14471655328798	69	127
124.15632653061225	124.28403628117914	66	127
124.28403628117914	124.41174603174603	62	127
124.41174603174603	124.53945578231293	70	127
124.53945578231293	124.65555555555555	69	127
124.66716553287982	124.76004535147392	66	127
124.77165532879819	124.87614512471656	67	127
124.87614512471656	124.99224489795918	63	127
124.99224489795918	125.10834467120182	60	127
125.11995464852608	125.24766439909297	69	127
125.25927437641724	125.37537414965986	67	127
125.37537414965986	125.50308390022676	64	127
125.50308390022676	125.6191836734694	66	127
125.63079365079365	125.74689342403629	62	127
125.75850340136054	125.87460317460318	58	127
125.87460317460318	126.00231292517007	74	127
126.00231292517007	126.13002267573697	72	127
126.13002267573697	126.24612244897959	70	127
126.29256235827664	126.40866213151928	69	127
126.40866213151928	126.53637188208617	67	127
126.53637188208617	126.66408163265307	75	127
126.66408163265307	126.78018140589569	74	127
126.79179138321996	126.90789115646258	72	127
126.93111111111111	127.04721088435375	82	127
127.04721088435375	127.17492063492064	81	127
127.17492063492064	127.29102040816326	79	127
127.30263038548753	127.41873015873016	78	127
127.43034013605443	127.6277097505669	79	127
127.6277097505669	127.8134693877551	81	127
127.8134693877551	127.92956916099773	74	127
127.941179138322	128.08049886621316	75	127
128.10371882086167	128.2198185941043	72	127
128.2198185941043	128.37074829931973	65	127
128.37074829931973	128.49843537414966	71	127
128.49843537414966	128.61455782312925	74	127
128.62616780045352	128.74226757369615	68	127
128.75385487528345	128.86997732426303	67	127
128.86997732426303	129.00927437641724	65	127
129.00927437641724	129.12539682539682	64	127
129.1370068027211	129.25310657596373	67	127
129.26469387755103	129.3808163265306	72	127
129.3808163265306	129.5085260770975	76	127
129.5085260770975	129.62460317460318	79	127
129.6362358276644	129.75233560090703	70	127
129.7639455782313	129.89165532879818	63	127
129.89165532879818	130.0193650793651	69	127
130.0193650793651	130.14707482993197	72	127
130.14707482993197	130.2631746031746	67	127
130.27478458049887	130.39086167800454	65	127
130.39086167800454	130.5185941043084	63	127
130.5185941043084	130.65791383219954	62	127
130.65791383219954	130.77401360544218	65	127
130.78562358276645	130.9017006802721	70	127
130.91333333333333	131.02943310657596	74	127
131.02943310657596	131.1571201814059	77	127
131.1571201814059	131.26160997732427	68	127
131.27324263038548	131.4009523809524	67	127
131.4125396825397	131.52866213151927	75	127
131.52866213151927	131.66795918367347	70	127
131.66795918367347	131.78408163265306	67	127
131.79569160997733	131.92337868480726	63	127
131.93501133786847	132.0511111111111	62	127
132.0511111111111	132.16721088435375	60	127
132.16721088435375	132.3065306122449	75	127
132.3065306122449	132.42263038548754	72	127
132.43421768707483	132.55034013605442	70	127
132.56195011337869	132.67804988662132	69	127
132.67804988662132	132.8057596371882	67	127
132.8057596371882	132.92185941043084	66	127
132.9334693877551	133.04954648526078	74	127
133.061179138322	133.17727891156463	69	127
133.17727891156463	133.30496598639456	66	127
133.30496598639456	133.42108843537414	62	127
133.43269841269841	133.54879818594105	60	127
133.56038548752835	133.67650793650793	58	127
133.67650793650793	133.81580498866214	74	127
133.81580498866214	134.01319727891158	70	127
134.01319727891158	134.14090702947846	69	127
134.1757142857143	134.29183673469387	67	127
134.29183673469387	134.41954648526078	65	127
134.41954648526078	134.54725623582766	64	127
134.54725623582766	134.69818594104308	60	127
134.70979591836735	134.82589569161	67	127
134.83748299319728	134.96521541950113	58	127
134.96521541950113	135.09290249433107	57	127
135.09290249433107	135.20902494331065	67	127
135.22063492063492	135.33673469387756	66	127
135.34832199546486	135.4760544217687	62	127
135.4760544217687	135.59215419501135	69	127
135.59215419501135	135.69664399092972	60	127
135.708231292517	135.8243537414966	58	127
135.83596371882086	135.9636507936508	69	127
135.9636507936508	136.10299319727892	67	127
136.10299319727892	136.2074829931973	63	127
136.2074829931973	136.32356009070295	70	127
136.33519274376417	136.4512925170068	62	127
136.46290249433108	136.56739229024944	60	127
136.56739229024944	136.69510204081632	70	127
136.69510204081632	136.81120181405896	69	127
136.82281179138323	136.9273015873016	65	127
136.93891156462584	137.06662131519275	72	127
137.06662131519275	137.19433106575963	63	127
137.19433106575963	137.31043083900227	62	127
137.32204081632653	137.4265306122449	72	127
137.43814058956917	137.54263038548754	70	127
137.54263038548754	137.64709750566894	67	127
137.64709750566894	137.7748299319728	74	127
137.7748299319728	137.89092970521543	65	127
137.9025396825397	138.0186394557823	64	127
138.0186394557823	138.09990929705216	74	127
138.09990929705216	138.2392290249433	72	127
138.2392290249433	138.35532879818595	69	127
138.36691609977325	138.48303854875283	75	127
138.4946485260771	138.61074829931974	67	127
138.61074829931974	138.73845804988662	66	127
138.73845804988662	138.85455782312926	75	127
138.86616780045352	138.9938775510204	74	127
138.9938775510204	139.1215873015873	70	127
139.1215873015873	139.2492970521542	79	127
139.26090702947846	139.36539682539683	70	127
139.3770068027211	139.50471655328798	69	127
139.50471655328798	139.63242630385488	72	127
139.63242630385488	139.77174603174603	70	127
139.77174603174603	139.86462585034013	67	127
139.8762358276644	139.99233560090704	66	127
139.99233560090704	140.10843537414965	69	127
140.10843537414965	140.23614512471656	62	127
140.24775510204083	140.36385487528344	60	127
140.3754648526077	140.5031746031746	58	127
140.5031746031746	140.6308843537415	67	127
140.6308843537415	140.74698412698413	66	127
140.74698412698413	140.86308390022677	69	127
140.86308390022677	140.99079365079365	67	127
140.99079365079365	141.11850340136056	70	127
141.11850340136056	141.23460317460317	60	127
141.24621315192744	141.3507029478458	69	127
141.3507029478458	141.46680272108844	67	127
141.46680272108844	141.58290249433108	70	127
141.58290249433108	141.6990022675737	69	127
141.71061224489796	141.81510204081633	72	127
141.8267120181406	141.94278911564626	62	127
141.94278911564626	142.05891156462584	70	127
142.05891156462584	142.17501133786848	69	127
142.18662131519275	142.29111111111112	72	127
142.30269841269842	142.418820861678	70	127
142.418820861678	142.52331065759637	74	127
142.52331065759637	142.639410430839	63	127
142.65102040816328	142.7671201814059	72	127
142.77873015873016	142.8948299319728	71	127
142.8948299319728	143.02253968253967	74	127
143.02253968253967	143.17344671201815	72	127
143.17344671201815	143.28956916099773	75	127
143.34761904761905	143.4869387755102	66	127
143.49854875283447	143.6146485260771	75	127
143.6146485260771	143.74235827664398	74	127
143.74235827664398	143.85845804988662	72	127
143.8700680272109	144.00938775510204	70	127
144.0209977324263	144.1487074829932	69	127
144.1487074829932	144.32285714285715	70	127
144.32285714285715	144.45054421768708	74	127
144.4621768707483	144.57827664399093	79	127
144.6014739229025	144.72920634920635	82	127
144.72920634920635	144.8685260770975	79	127
144.88013605442177	145.01945578231292	74	127
145.0310657596372	145.1587755102041	70	127
145.1587755102041	145.28648526077097	67	127
145.28648526077097	145.5883446712018	62	127
145.62315192743765	145.99469387755101	78	127
145.62315192743765	145.99469387755101	72	127
145.62315192743765	145.99469387755101	62	127
145.99469387755101	147.26015873015874	79	127
145.99469387755101	147.26015873015874	70	127
145.99469387755101	147.26015873015874	62	127
145.99469387755101	147.26015873015874	55	127
147.27179138321995	147.42272108843537	62	127
147.43433106575964	147.56204081632654	57	127
147.57365079365078	147.73619047619047	62	127
147.74780045351474	147.86390022675738	66	127
147.87548752834468	148.00321995464853	62	127
148.00321995464853	148.14253968253968	66	127
148.14253968253968	148.27024943310659	69	127
148.28183673469388	148.40956916099773	66	127
148.421179138322	148.57210884353742	69	127
148.57210884353742	148.6998185941043	74	127
148.6998185941043	148.85074829931972	69	127
148.85074829931972	148.96684807256236	74	127
148.97845804988663	149.1061678004535	78	127
149.11777777777777	149.2338775510204	74	127
149.2338775510204	149.3615873015873	78	127
149.3615873015873	149.47768707482993	81	127
149.4892970521542	149.62861678004535	78	127
149.64022675736962	149.75632653061226	81	127
149.75632653061226	149.88403628117914	86	127
149.88403628117914	150.09301587301587	81	127
150.10462585034014	150.23233560090702	78	127
150.2439455782313	150.36004535147393	74	127
150.36004535147393	150.4877551020408	69	127
150.4877551020408	150.62707482993198	66	127
150.62707482993198	150.7431746031746	62	127
150.75478458049886	150.8708843537415	64	127
150.8708843537415	150.98698412698414	66	127
150.98698412698414	151.11469387755102	67	127
151.11469387755102	151.23079365079366	69	127
151.24240362811793	151.35850340136054	70	127
151.3701133786848	151.47460317460317	72	127
151.47460317460317	151.57909297052154	75	127
151.57909297052154	151.69519274376418	72	127
151.70678004535148	151.83451247165533	69	127
151.8461224489796	151.96219954648527	72	127
151.96219954648527	152.07832199546485	69	127
152.07832199546485	152.19442176870749	66	127
152.20603174603175	152.31052154195012	62	127
152.32210884353742	152.438231292517	66	127
152.438231292517	152.5659410430839	69	127
152.5659410430839	152.6936507936508	74	127
152.6936507936508	152.8213605442177	72	127
152.832947845805	152.94907029478458	70	127
152.96068027210885	153.06517006802721	74	127
153.06517006802721	153.18126984126985	70	127
153.18126984126985	153.28575963718822	67	127
153.29736961451246	153.4134693877551	62	127
153.42507936507937	153.541179138322	58	127
153.541179138322	153.6688888888889	55	127
153.6688888888889	153.78498866213152	57	127
153.7965986394558	153.9126984126984	58	127
153.92430839002267	154.02879818594104	60	127
154.02879818594104	154.15650793650795	62	127
154.15650793650795	154.27260770975056	63	127
154.27260770975056	154.3887074829932	65	127
154.40031746031747	154.50480725623584	68	127
154.51639455782313	154.63251700680271	65	127
154.63251700680271	154.76022675736962	62	127
154.76022675736962	154.8763038548753	65	127
154.8879365079365	155.00403628117914	62	127
155.0156462585034	155.12013605442178	59	127
155.12013605442178	155.23621315192744	55	127
155.23621315192744	155.32911564625851	59	127
155.34072562358276	155.4568253968254	62	127
155.46843537414966	155.57292517006803	67	127
155.57292517006803	155.68902494331067	65	127
155.68902494331067	155.78190476190477	63	127
155.79351473922904	155.89798185941044	60	127
155.90961451247165	156.0024716553288	63	127
156.0024716553288	156.1185941043084	67	127
156.1185941043084	156.2463038548753	72	127
156.2463038548753	156.38562358276644	74	127
156.3972335600907	156.50172335600908	75	127
156.51331065759638	156.61780045351475	72	127
156.61780045351475	156.72231292517006	68	127
156.72231292517006	156.82680272108843	65	127
156.8384126984127	156.94290249433107	68	127
156.95451247165533	157.07061224489797	72	127
157.07061224489797	157.19832199546485	74	127
157.19832199546485	157.3144217687075	70	127
157.32603174603176	157.43049886621316	67	127
157.44213151927437	157.558231292517	63	127
157.558231292517	157.68591836734694	67	127
157.68591836734694	157.8136507936508	70	127
157.8136507936508	157.91814058956916	72	127
157.92975056689343	158.0342403628118	68	127
158.0458276643991	158.16195011337868	65	127
158.16195011337868	158.2896598639456	62	127
158.2896598639456	158.40573696145125	65	127
158.41736961451247	158.5334693877551	68	127
158.54507936507937	158.67278911564625	55	127
158.67278911564625	158.8469387755102	72	127
158.8469387755102	158.96303854875285	71	127
158.9746485260771	159.09074829931973	72	127
159.102358276644	159.21845804988664	74	127
159.21845804988664	159.34616780045351	65	127
159.34616780045351	159.46226757369615	60	127
159.47387755102042	159.61319727891157	77	127
159.62480725623584	159.74090702947845	75	127
159.74090702947845	159.86861678004536	77	127
159.86861678004536	159.99632653061224	79	127
159.99632653061224	160.1008163265306	70	127
160.11242630385487	160.2285260770975	65	127
160.2285260770975	160.33301587301588	70	127
160.33301587301588	160.44909297052155	68	127
160.44909297052155	160.56521541950113	70	127
160.5768253968254	160.69292517006804	72	127
160.70451247165533	160.85544217687075	63	127
160.85544217687075	160.99478458049887	58	127
160.99478458049887	161.11086167800454	75	127
161.12249433106575	161.2385941043084	74	127
161.25020408163266	161.35469387755103	75	127
161.35469387755103	161.4824036281179	77	127
161.4824036281179	161.61011337868482	68	127
161.61011337868482	161.72619047619048	63	127
161.74943310657596	161.8655328798186	68	127
161.8655328798186	161.99324263038548	67	127
161.99324263038548	162.1441723356009	68	127
162.1441723356009	162.26027210884354	70	127
162.2718820861678	162.3995918367347	61	127
162.41120181405896	162.53891156462586	56	127
162.53891156462586	162.70142857142858	60	127
162.70142857142858	162.81755102040816	65	127
162.82916099773243	162.94526077097507	68	127
162.95684807256237	163.07297052154195	67	127
163.07297052154195	163.21226757369615	65	127
163.21226757369615	163.32839002267573	59	127
163.34	163.45609977324264	62	127
163.46768707482994	163.61861678004536	65	127
163.61861678004536	163.7463492063492	68	127
163.7463492063492	163.87403628117914	67	127
163.87403628117914	163.99015873015873	65	127
164.001768707483	164.10625850340136	60	127
164.11786848072563	164.2339455782313	64	127
164.2339455782313	164.36167800453515	65	127
164.36167800453515	164.5009977324263	68	127
164.51260770975057	164.65192743764172	67	127
164.663537414966	164.77963718820862	65	127
164.77963718820862	164.9073469387755	62	127
164.9073469387755	165.02344671201814	65	127
165.0350566893424	165.15113378684808	71	127
165.1627664399093	165.27886621315193	72	127
165.27886621315193	165.42979591836735	74	127
165.42979591836735	165.55750566893425	65	127
165.55750566893425	165.67360544217686	63	127
165.68521541950113	165.80131519274377	67	127
165.80131519274377	165.92902494331065	72	127
165.92902494331065	166.05673469387756	74	127
166.05673469387756	166.1960544217687	75	127
166.20766439909298	166.32376417233561	72	127
166.33537414965986	166.4514739229025	80	127
166.4514739229025	166.5791836734694	79	127
166.5791836734694	166.695283446712	77	127
166.70689342403628	166.8346031746032	75	127
166.84621315192743	166.96231292517007	74	127
166.96231292517007	167.15968253968254	72	127
167.15968253968254	167.27578231292517	79	127
167.28739229024944	167.4034693877551	74	127
167.41510204081632	167.5195918367347	75	127
167.5195918367347	167.6473015873016	72	127
167.6473015873016	167.77501133786848	67	127
167.77501133786848	167.89111111111112	71	127
167.90272108843538	168.0652380952381	60	127
168.08848072562358	168.20458049886622	65	127
168.20458049886622	168.3322902494331	63	127
168.3322902494331	168.46	62	127
168.4715873015873	168.61092970521543	60	127
168.6225396825397	168.7386394557823	58	127
168.7386394557823	168.87795918367348	57	127
168.87795918367348	168.9940589569161	60	127
169.00566893424036	169.121768707483	65	127
169.13337868480727	169.24947845804988	60	127
169.24947845804988	169.3771882086168	65	127
169.3771882086168	169.50489795918367	69	127
169.50489795918367	169.60938775510203	65	127
169.60938775510203	169.6906575963719	69	127
169.6906575963719	169.81836734693877	72	127
169.81836734693877	169.94607709750568	69	127
169.94607709750568	170.06215419501135	72	127
170.08539682539683	170.20149659863947	75	127
170.21308390022676	170.34081632653061	72	127
170.34081632653061	170.46850340136055	75	127
170.46850340136055	170.58462585034013	81	127
170.5962358276644	170.71233560090704	79	127
170.72392290249434	170.84004535147392	77	127
170.84004535147392	170.96775510204083	75	127
170.96775510204083	171.0722448979592	74	127
171.0838321995465	171.19995464852607	72	127
171.21156462585034	171.32766439909298	70	127
171.32766439909298	171.4437641723356	72	127
171.4437641723356	171.55986394557823	74	127
171.55986394557823	171.67596371882087	76	127
171.68757369614514	171.80367346938775	78	127
171.81528344671202	171.94299319727892	81	127
171.94299319727892	172.0707029478458	84	127
172.0707029478458	172.18680272108844	81	127
172.1984126984127	172.31451247165532	78	127
172.3261224489796	172.44222222222223	81	127
172.44222222222223	172.5699319727891	78	127
172.5699319727891	172.70925170068028	72	127
172.72086167800452	172.8253514739229	78	127
172.83696145124716	172.9530612244898	72	127
172.9530612244898	173.06916099773244	69	127
173.06916099773244	173.2084807256236	72	127
173.2084807256236	173.31297052154196	69	127
173.32458049886623	173.44068027210884	66	127
173.44068027210884	173.56839002267574	69	127
173.56839002267574	173.68448979591838	66	127
173.68448979591838	173.800589569161	62	127
173.81219954648526	173.9282993197279	72	127
173.93990929705217	174.05600907029478	70	127
174.05600907029478	174.17210884353742	67	127
174.17210884353742	174.28820861678005	70	127
174.29979591836735	174.41591836734693	67	127
174.4275283446712	174.53201814058957	64	127
174.53201814058957	174.6597052154195	74	127
174.6597052154195	174.7758276643991	72	127
174.78743764172336	174.9151247165533	69	127
174.9267573696145	175.03124716553287	72	127
175.03124716553287	175.1473469387755	69	127
175.1473469387755	175.28666666666666	66	127
175.28666666666666	175.39115646258503	75	127
175.4027664399093	175.4956462585034	74	127
175.50725623582767	175.6233560090703	70	127
175.6233560090703	175.75106575963719	74	127
175.75106575963719	175.86716553287982	70	127
175.8787755102041	175.98326530612246	67	127
175.9948752834467	176.11097505668934	77	127
176.11097505668934	176.22707482993198	75	127
176.22707482993198	176.34317460317462	72	127
176.35478458049886	176.447641723356	75	127
176.45927437641723	176.55213151927438	72	127
176.55213151927438	176.66825396825396	69	127
176.66825396825396	176.79596371882087	79	127
176.79596371882087	176.93528344671202	78	127
176.9468934240363	177.06297052154196	74	127
177.06297052154196	177.1907029478458	76	127
177.1907029478458	177.31839002267574	78	127
177.31839002267574	177.43451247165532	79	127
177.4461224489796	177.56222222222223	81	127
177.57380952380953	177.6899319727891	82	127
177.6899319727891	177.81764172335602	74	127
177.81764172335602	177.93371882086169	79	127
177.9453514739229	178.06145124716554	82	127
178.0730612244898	178.18913832199547	72	127
178.18913832199547	178.31687074829932	75	127
178.31687074829932	178.43297052154196	81	127
178.44455782312926	178.56068027210884	77	127
178.5722902494331	178.68839002267575	74	127
178.68839002267575	178.81609977324263	70	127
178.81609977324263	178.95539682539683	74	127
178.95539682539683	179.0715192743764	77	127
179.08312925170068	179.19922902494332	79	127
179.21081632653062	179.3269387755102	70	127
179.3269387755102	179.4546485260771	75	127
179.4546485260771	179.57074829931972	79	127
179.582358276644	179.65201814058958	69	127
179.66362811791385	179.7216553287982	72	127
179.7216553287982	179.84938775510204	77	127
179.84938775510204	179.9538775510204	74	127
179.96548752834468	180.08156462585035	70	127
180.09319727891156	180.2092970521542	67	127
180.2092970521542	180.33698412698413	70	127
180.33698412698413	180.47632653061225	74	127
180.47632653061225	180.59240362811792	75	127
180.60403628117913	180.7085260770975	67	127
180.7085260770975	180.7781859410431	72	127
180.7781859410431	180.90589569160997	75	127
180.90589569160997	181.0219954648526	65	127
181.03360544217688	181.14968253968254	69	127
181.16131519274376	181.2774149659864	74	127
181.2774149659864	181.39351473922903	70	127
181.39351473922903	181.48639455782313	67	127
181.4980045351474	181.61408163265307	64	127
181.62571428571428	181.73020408163265	67	127
181.73020408163265	181.8463038548753	70	127
181.8463038548753	181.96240362811793	72	127
181.97401360544217	182.0901133786848	69	127
182.0901133786848	182.2178231292517	70	127
182.2178231292517	182.35714285714286	67	127
182.35714285714286	182.48485260770974	66	127
182.48485260770974	182.57773242630387	69	127
182.5893424036281	182.70544217687075	62	127
182.71705215419502	182.80993197278912	64	127
182.80993197278912	182.91442176870748	66	127
182.91442176870748	183.01891156462585	67	127
183.03052154195012	183.1465986394558	69	127
183.158231292517	183.27433106575964	70	127
183.27433106575964	183.40201814058958	72	127
183.40201814058958	183.51814058956916	75	127
183.52975056689343	183.64585034013606	74	127
183.65743764172336	183.77356009070294	79	127
183.77356009070294	183.90126984126985	78	127
183.90126984126985	184.040589569161	82	127
184.040589569161	184.17990929705215	81	127
184.19151927437642	184.30761904761906	79	127
184.30761904761906	184.43532879818594	78	127
184.43532879818594	184.58625850340135	76	127
184.58625850340135	184.702358276644	74	127
184.71396825396826	184.83004535147393	72	127
184.84167800453514	184.96938775510205	70	127
184.96938775510205	185.09709750566893	75	127
185.09709750566893	185.21319727891157	74	127
185.22480725623583	185.3408843537415	70	127
185.3525170068027	185.46861678004535	72	127
185.46861678004535	185.5963038548753	69	127
185.5963038548753	185.71242630385487	65	127
185.72403628117914	185.84013605442178	74	127
185.85172335600907	185.95621315192744	72	127
185.95621315192744	186.0839455782313	69	127
186.0839455782313	186.20004535147393	70	127
186.20004535147393	186.3161224489796	67	127
186.3277551020408	186.43224489795918	63	127
186.44385487528345	186.5599546485261	72	127
186.5599546485261	186.68766439909297	70	127
186.68766439909297	186.8037641723356	67	127
186.81537414965987	186.91986394557824	69	127
186.93145124716554	187.03596371882085	66	127
187.03596371882085	187.16367346938776	62	127
187.16367346938776	187.2797732426304	70	127
187.29138321995464	187.395873015873	69	127
187.40748299319728	187.52358276643992	66	127
187.52358276643992	187.62807256235828	67	127
187.62807256235828	187.75578231292516	63	127
187.75578231292516	187.8718820861678	60	127
187.88349206349207	187.99956916099774	69	127
187.99956916099774	188.1273015873016	67	127
188.1273015873016	188.25498866213152	64	127
188.25498866213152	188.3711111111111	66	127
188.38272108843537	188.5104081632653	62	127
188.52204081632652	188.63814058956916	58	127
188.63814058956916	188.7658276643991	74	127
188.7658276643991	188.88195011337868	72	127
188.89356009070295	189.0096598639456	70	127
189.05609977324264	189.18380952380951	69	127
189.18380952380951	189.31151927437642	67	127
189.31151927437642	189.42761904761906	75	127
189.4392290249433	189.55532879818594	74	127
189.5669387755102	189.6946485260771	72	127
189.6946485260771	189.85718820861678	82	127
189.85718820861678	189.98489795918368	81	127
189.98489795918368	190.1009977324263	79	127
190.11260770975056	190.24031746031747	78	127
190.2519274376417	190.36802721088435	79	127
190.36802721088435	190.5421768707483	81	127
190.5421768707483	190.6698866213152	74	127
190.68149659863946	190.8208163265306	75	127
190.83242630385487	190.9485260770975	72	127
190.9485260770975	191.1110657596372	65	127
191.1110657596372	191.23877551020408	71	127
191.25038548752835	191.3897052154195	74	127
191.40131519274377	191.5174149659864	68	127
191.5174149659864	191.64512471655328	67	127
191.64512471655328	191.78444444444443	65	127
191.78444444444443	191.90054421768707	64	127
191.9237641723356	192.03986394557822	67	127
192.03986394557822	192.16757369614513	72	127
192.16757369614513	192.34172335600908	76	127
192.34172335600908	192.4578231292517	79	127
192.48104308390023	192.59714285714287	70	127
192.6087528344671	192.73646258503402	63	127
192.73646258503402	192.8641723356009	69	127
192.8641723356009	192.98027210884354	72	127
192.9918820861678	193.0847619047619	67	127
193.09637188208617	193.21247165532878	65	127
193.21247165532878	193.3401814058957	63	127
193.3401814058957	193.45628117913833	62	127
193.4678911564626	193.5839909297052	65	127
193.59560090702948	193.7465306122449	70	127
193.7465306122449	193.89746031746031	74	127
193.89746031746031	194.06	77	127
194.06	194.17609977324264	68	127
194.18770975056688	194.30380952380952	67	127
194.3154195011338	194.43151927437643	75	127
194.43151927437643	194.54761904761904	70	127
194.54761904761904	194.66371882086167	67	127
194.67532879818594	194.80303854875282	63	127
194.8146485260771	194.91913832199546	62	127
194.91913832199546	195.0352380952381	60	127
195.0352380952381	195.15133786848074	75	127
195.16294784580498	195.27904761904762	72	127
195.2906575963719	195.40675736961452	70	127
195.40675736961452	195.5344671201814	69	127
195.5344671201814	195.65056689342404	67	127
195.6621768707483	195.77827664399092	66	127
195.7898866213152	195.90598639455783	74	127
195.90598639455783	196.0336961451247	69	127
196.0336961451247	196.16140589569162	66	127
196.16140589569162	196.27750566893425	62	127
196.2891156462585	196.40521541950113	60	127
196.4168253968254	196.56775510204082	58	127
196.56775510204082	196.6954648526077	74	127
196.6954648526077	196.81156462585034	70	127
196.8231746031746	196.93927437641725	69	127
196.9508843537415	197.06698412698412	67	127
197.06698412698412	197.19469387755103	65	127
197.19469387755103	197.3224036281179	64	127
197.33401360544218	197.47333333333333	60	127
197.4849433106576	197.60104308390024	67	127
197.60104308390024	197.72875283446712	58	127
197.72875283446712	197.86807256235826	57	127
197.86807256235826	197.9841723356009	67	127
197.99578231292517	198.1118820861678	66	127
198.12349206349205	198.2395918367347	62	127
198.2395918367347	198.37891156462584	69	127
198.37891156462584	198.47179138321997	60	127
198.4834013605442	198.59950113378684	58	127
198.61111111111111	198.72721088435375	69	127
198.72721088435375	198.84331065759636	67	127
198.84331065759636	198.959410430839	63	127
198.97102040816327	199.0871201814059	70	127
199.09873015873015	199.2148299319728	62	127
199.2148299319728	199.33092970521542	60	127
199.33092970521542	199.4354195011338	70	127
199.44702947845806	199.56312925170067	69	127
199.57473922902494	199.69083900226758	65	127
199.69083900226758	199.81854875283446	72	127
199.81854875283446	199.95786848072564	63	127
199.95786848072564	200.07396825396825	62	127
200.08557823129252	200.19006802721088	72	127
200.20167800453515	200.30616780045352	70	127
200.30616780045352	200.4338775510204	67	127
200.4338775510204	200.54997732426304	74	127
200.5615873015873	200.66607709750568	65	127
200.67768707482992	200.79378684807256	64	127
200.79378684807256	200.92149659863946	74	127
200.92149659863946	201.0027664399093	72	127
201.01437641723356	201.1304761904762	69	127
201.14208616780044	201.25818594104308	75	127
201.25818594104308	201.38589569161	67	127
201.38589569161	201.51360544217687	66	127
201.51360544217687	201.6297052154195	75	127
201.64131519274378	201.75741496598638	74	127
201.76902494331065	201.9083446712018	70	127
201.9083446712018	202.0360544217687	79	127
202.0360544217687	202.15215419501135	70	127
202.1637641723356	202.2914739229025	69	127
202.2914739229025	202.41918367346938	72	127
202.41918367346938	202.55850340136055	70	127
202.55850340136055	202.66299319727892	67	127
202.66299319727892	202.77909297052153	66	127
202.7907029478458	202.90680272108844	69	127
202.90680272108844	203.0461224489796	62	127
203.05773242630386	203.18544217687074	60	127
203.197052154195	203.31315192743764	58	127
203.31315192743764	203.44086167800452	67	127
203.44086167800452	203.55696145124716	66	127
203.55696145124716	203.6730612244898	69	127
203.6730612244898	203.77755102040817	67	127
203.78916099773244	203.90526077097505	70	127
203.90526077097505	204.02136054421769	60	127
204.02136054421769	204.1490702947846	69	127
204.1490702947846	204.2651700680272	67	127
204.27678004535147	204.3928798185941	70	127
204.40448979591838	204.49736961451248	69	127
204.49736961451248	204.62507936507936	72	127
204.62507936507936	204.741179138322	62	127
204.75278911564627	204.84566893424036	70	127
204.85727891156463	204.97337868480724	69	127
204.97337868480724	205.10108843537415	72	127
205.10108843537415	205.2171882086168	70	127
205.22879818594103	205.29845804988662	74	127
205.3100680272109	205.42616780045353	63	127
205.42616780045353	205.5538775510204	72	127
205.5538775510204	205.69319727891155	71	127
205.69319727891155	205.83251700680273	74	127
205.84412698412697	205.9602267573696	72	127
205.97183673469388	206.13437641723357	75	127
206.13437641723357	206.29691609977326	66	127
206.29691609977326	206.41301587301587	75	127
206.42462585034014	206.55233560090704	74	127
206.56394557823128	206.7497052154195	72	127
206.7497052154195	206.88902494331066	70	127
206.88902494331066	207.03995464852608	69	127
207.05156462585035	207.24893424036281	70	127
207.24893424036281	207.3766439909297	74	127
207.38825396825396	207.5043537414966	79	127
207.5043537414966	207.70172335600907	82	127
207.70172335600907	207.88748299319727	79	127
207.89909297052154	208.03841269841269	74	127
208.05002267573695	208.2241723356009	70	127
208.2241723356009	208.3867120181406	67	127
208.3867120181406	208.83950113378685	62	127
208.85111111111112	209.39678004535148	78	127
208.85111111111112	209.39678004535148	72	127
208.85111111111112	209.39678004535148	62	127
209.40839002267575	211.08022675736962	79	127
209.40839002267575	211.08022675736962	70	127
209.40839002267575	211.08022675736962	62	127
209.40839002267575	211.08022675736962	55	127
212.8101133786848	213.08875283446713	67	127
