# onset,offset,note,velocity
1.7058956916099772	1.856825396825397	51	127
1.856825396825397	1.9961451247165534	53	127
1.9961451247165534	2.1006349206349206	55	127
2.1006349206349206	2.2863718820861676	56	127
2.2863718820861676	2.808843537414966	58	127
2.808843537414966	2.9946031746031747	60	127
2.9946031746031747	3.2848526077097504	56	127
3.2848526077097504	4.016281179138322	58	127
4.016281179138322	4.202040816326531	60	127
4.202040816326531	4.399410430839002	55	127
4.399410430839002	5.0495691609977325	56	127
5.0495691609977325	5.502358276643991	53	127
5.502358276643991	5.862267573696145	41	127
5.862267573696145	5.955147392290249	50	127
5.955147392290249	6.0364172335600905	51	127
6.0364172335600905	6.129297052154195	53	127
6.129297052154195	6.245396825396825	55	127
6.245396825396825	6.779455782312925	56	127
6.779455782312925	6.98843537414966	58	127
6.98843537414966	7.197414965986394	55	127
7.197414965986394	7.78952380952381	56	127
7.78952380952381	8.02172335600907	58	127
8.02172335600907	8.277142857142858	53	127
8.277142857142858	8.811201814058958	55	127
8.811201814058958	9.263990929705216	51	127
9.263990929705216	9.82124716553288	39	127
9.82124716553288	9.925759637188209	51	127
9.925759637188209	10.030249433106576	53	127
10.030249433106576	10.15795918367347	55	127
10.15795918367347	10.262448979591836	56	127
10.262448979591836	10.726848072562358	58	127
10.726848072562358	10.831337868480725	46	127
10.831337868480725	10.947437641723356	48	127
10.947437641723356	11.07514739229025	50	127
11.07514739229025	11.19124716553288	51	127
11.19124716553288	11.539546485260772	53	127
11.539546485260772	12.061995464852608	56	127
12.061995464852608	12.433514739229025	56	127
12.433514739229025	12.688934240362812	55	127
12.688934240362812	12.967573696145125	53	127
12.967573696145125	13.246213151927437	51	127
13.246213151927437	13.82671201814059	53	127
13.82671201814059	13.954421768707483	51	127
13.954421768707483	14.05891156462585	53	127
14.05891156462585	14.151791383219955	55	127
14.151791383219955	14.279501133786848	56	127
14.279501133786848	14.662630385487528	58	127
14.662630385487528	14.790340136054422	46	127
14.790340136054422	14.918049886621315	48	127
14.918049886621315	15.01092970521542	50	127
15.01092970521542	15.173469387755102	51	127
15.173469387755102	15.556598639455782	53	127
15.556598639455782	16.067437641723355	56	127
16.067437641723355	16.264807256235827	56	127
16.264807256235827	16.53183673469388	55	127
16.53183673469388	16.7756462585034	53	127
16.7756462585034	17.065895691609978	51	127
17.065895691609978	17.472244897959182	53	127
17.472244897959182	17.704444444444444	53	127
17.704444444444444	17.832154195011338	55	127
17.832154195011338	17.94825396825397	57	127
17.94825396825397	18.099183673469387	58	127
18.099183673469387	18.56358276643991	60	127
18.56358276643991	18.668072562358276	57	127
18.668072562358276	18.80736961451247	58	127
18.80736961451247	18.969931972789116	60	127
18.969931972789116	19.086031746031747	62	127
19.086031746031747	19.56204081632653	63	127
19.56204081632653	19.67814058956916	53	127
19.67814058956916	19.829070294784582	55	127
19.829070294784582	19.991609977324263	57	127
19.991609977324263	20.09609977324263	58	127
20.09609977324263	20.5256462585034	60	127
20.5256462585034	20.618548752834467	57	127
20.618548752834467	20.723038548752836	58	127
20.723038548752836	20.873968253968254	60	127
20.873968253968254	20.978458049886623	62	127
20.978458049886623	21.40800453514739	63	127
21.40800453514739	21.756326530612245	62	127
21.756326530612245	21.942086167800454	60	127
21.942086167800454	22.26716553287982	62	127
22.26716553287982	22.476145124716552	58	127
22.476145124716552	22.73156462585034	55	127
22.73156462585034	22.940544217687076	58	127
22.940544217687076	23.172743764172335	51	127
23.172743764172335	23.45138321995465	60	127
23.45138321995465	23.64875283446712	53	127
23.64875283446712	23.927392290249433	57	127
23.927392290249433	24.49628117913832	58	127
24.49628117913832	24.925850340136055	53	127
24.925850340136055	25.355419501133788	46	127
25.355419501133788	25.59922902494331	51	127
25.59922902494331	25.75015873015873	53	127
25.75015873015873	25.83142857142857	55	127
25.83142857142857	25.959138321995464	56	127
25.959138321995464	26.62090702947846	58	127
26.62090702947846	26.80666666666667	60	127
26.80666666666667	26.992426303854874	56	127
26.992426303854874	27.503265306122447	58	127
27.503265306122447	27.700634920634922	60	127
27.700634920634922	27.898004535147393	55	127
27.898004535147393	28.582993197278913	56	127
28.582993197278913	29.10544217687075	53	127
29.10544217687075	29.45374149659864	41	127
29.45374149659864	29.546621315192745	50	127
29.546621315192745	29.639501133786847	51	127
29.639501133786847	29.75560090702948	53	127
29.75560090702948	29.906530612244897	55	127
29.906530612244897	30.405759637188208	56	127
30.405759637188208	30.661179138321994	58	127
30.661179138321994	30.974648526077097	55	127
30.974648526077097	31.5087074829932	56	127
31.5087074829932	31.75251700680272	58	127
31.75251700680272	31.926666666666666	53	127
31.926666666666666	32.32140589569161	55	127
32.32140589569161	32.92510204081633	51	127
32.92510204081633	33.40113378684807	39	127
33.40113378684807	33.49401360544218	51	127
33.49401360544218	33.63333333333333	53	127
33.63333333333333	33.7378231292517	55	127
33.7378231292517	33.83070294784581	56	127
33.83070294784581	34.30668934240363	58	127
34.30668934240363	34.446009070294785	46	127
34.446009070294785	34.57371882086168	48	127
34.57371882086168	34.66662131519274	50	127
34.66662131519274	34.78272108843537	51	127
34.78272108843537	35.25873015873016	53	127
35.25873015873016	35.81600907029478	56	127
35.81600907029478	36.02498866213152	56	127
36.02498866213152	36.23396825396826	55	127
36.23396825396826	36.466145124716554	53	127
36.466145124716554	36.709977324263036	51	127
36.709977324263036	37.10469387755102	53	127
37.10469387755102	37.22081632653061	51	127
37.22081632653061	37.3833560090703	53	127
37.3833560090703	37.54589569160998	55	127
37.54589569160998	37.685215419501134	56	127
37.685215419501134	38.079954648526076	58	127
38.079954648526076	38.19605442176871	46	127
38.19605442176871	38.35859410430839	48	127
38.35859410430839	38.47469387755102	50	127
38.47469387755102	38.637233560090706	51	127
38.637233560090706	39.22934240362812	53	127
39.22934240362812	39.600861678004534	56	127
39.600861678004534	39.85628117913832	56	127
39.85628117913832	40.03040816326531	55	127
40.03040816326531	40.22780045351474	53	127
40.22780045351474	40.49482993197279	51	127
40.49482993197279	41.07532879818594	53	127
41.07532879818594	41.15659863945578	53	127
41.15659863945578	41.27269841269841	55	127
41.27269841269841	41.36557823129252	57	127
41.36557823129252	41.50489795918367	58	127
41.50489795918367	41.98090702947846	60	127
41.98090702947846	42.09700680272109	57	127
42.09700680272109	42.17825396825397	58	127
42.17825396825397	42.29437641723356	60	127
42.29437641723356	42.41047619047619	62	127
42.41047619047619	42.93290249433107	63	127
42.93290249433107	43.01419501133787	53	127
43.01419501133787	43.1302947845805	55	127
43.1302947845805	43.28122448979592	57	127
43.28122448979592	43.42054421768707	58	127
43.42054421768707	43.82687074829932	60	127
43.82687074829932	43.919773242630384	57	127
43.919773242630384	44.01265306122449	58	127
44.01265306122449	44.16358276643991	60	127
44.16358276643991	44.256462585034015	62	127
44.256462585034015	44.8253514739229	63	127
44.8253514739229	45.103968253968254	62	127
45.103968253968254	45.32458049886621	60	127
45.32458049886621	45.568390022675736	62	127
45.568390022675736	45.835419501133785	58	127
45.835419501133785	46.07922902494331	55	127
46.07922902494331	46.29981859410431	58	127
46.29981859410431	46.57845804988662	51	127
46.57845804988662	46.85709750566893	60	127
46.85709750566893	47.07768707482993	53	127
47.07768707482993	47.37952380952381	57	127
47.37952380952381	47.90199546485261	58	127
47.90199546485261	48.37800453514739	53	127
48.37800453514739	48.795963718820865	46	127
48.795963718820865	48.912063492063496	46	127
48.912063492063496	49.004943310657595	48	127
49.004943310657595	49.10943310657596	50	127
49.10943310657596	49.295192743764176	51	127
49.295192743764176	49.74798185941043	53	127
49.74798185941043	49.98018140589569	55	127
49.98018140589569	50.270430839002266	51	127
50.270430839002266	50.73482993197279	53	127
50.73482993197279	50.94380952380953	58	127
50.94380952380953	51.24566893424036	53	127
51.24566893424036	51.69845804988662	55	127
51.69845804988662	52.18607709750567	51	127
52.18607709750567	52.76657596371882	39	127
52.76657596371882	52.85945578231293	56	127
52.85945578231293	52.97555555555556	55	127
52.97555555555556	53.09165532879818	53	127
53.09165532879818	53.24258503401361	51	127
53.24258503401361	53.73020408163265	50	127
53.73020408163265	53.84630385487528	53	127
53.84630385487528	53.93918367346939	51	127
53.93918367346939	54.02045351473923	50	127
54.02045351473923	54.17138321995465	48	127
54.17138321995465	54.647392290249435	47	127
54.647392290249435	54.72866213151927	50	127
54.72866213151927	54.856371882086165	48	127
54.856371882086165	54.972471655328796	47	127
54.972471655328796	55.0653514739229	45	127
55.0653514739229	55.355600907029476	43	127
55.355600907029476	55.61102040816326	50	127
55.61102040816326	55.87804988662131	53	127
55.87804988662131	56.05219954648526	59	127
56.05219954648526	56.563038548752836	62	127
56.563038548752836	56.65591836734694	55	127
56.65591836734694	56.7604081632653	53	127
56.7604081632653	56.876507936507934	51	127
56.876507936507934	57.00421768707483	50	127
57.00421768707483	57.4221768707483	51	127
57.4221768707483	57.526666666666664	36	127
57.526666666666664	57.712426303854876	38	127
57.712426303854876	57.80530612244898	39	127
57.80530612244898	57.89818594104308	41	127
57.89818594104308	58.409024943310655	43	127
58.409024943310655	58.57156462585034	62	127
58.57156462585034	58.676054421768704	60	127
58.676054421768704	58.76893424036281	59	127
58.76893424036281	58.87342403628118	57	127
58.87342403628118	59.25655328798186	59	127
59.25655328798186	59.349433106575965	43	127
59.349433106575965	59.48875283446712	45	127
59.48875283446712	59.616462585034014	47	127
59.616462585034014	59.72095238095238	48	127
59.72095238095238	60.336281179138325	50	127
60.336281179138325	60.45238095238095	67	127
60.45238095238095	60.53365079365079	65	127
60.53365079365079	60.6265306122449	63	127
60.6265306122449	60.719410430839005	62	127
60.719410430839005	61.12575963718821	63	127
61.12575963718821	61.28829931972789	63	127
61.28829931972789	61.40439909297052	62	127
61.40439909297052	61.50888888888889	60	127
61.50888888888889	61.601768707483	59	127
61.601768707483	62.182267573696144	60	127
62.182267573696144	62.28675736961451	60	127
62.28675736961451	62.39124716553288	58	127
62.39124716553288	62.60022675736961	56	127
62.60022675736961	62.69310657596372	55	127
62.69310657596372	63.09945578231292	56	127
63.09945578231292	63.18072562358277	56	127
63.18072562358277	63.331655328798185	55	127
63.331655328798185	63.43614512471655	53	127
63.43614512471655	63.54063492063492	51	127
63.54063492063492	64.03986394557823	50	127
64.03986394557823	64.28367346938775	60	127
64.28367346938775	64.50426303854876	59	127
64.50426303854876	64.86417233560091	60	127
64.86417233560091	65.177641723356	56	127
65.177641723356	65.36340136054422	53	127
65.36340136054422	65.56074829931973	56	127
65.56074829931973	65.83938775510204	50	127
65.83938775510204	66.14126984126985	60	127
66.14126984126985	66.35022675736961	55	127
66.35022675736961	66.5592290249433	59	127
66.5592290249433	67.10489795918367	60	127
67.10489795918367	67.52285714285715	43	127
67.52285714285715	68.02208616780045	36	127
68.02208616780045	68.18462585034014	48	127
68.18462585034014	68.37036281179138	50	127
68.37036281179138	68.52131519274377	52	127
68.52131519274377	68.6374149659864	53	127
68.6374149659864	69.06698412698412	55	127
69.06698412698412	69.38045351473923	56	127
69.38045351473923	69.58943310657597	53	127
69.58943310657597	70.07705215419502	55	127
70.07705215419502	70.30925170068028	60	127
70.30925170068028	70.58789115646259	55	127
70.58789115646259	70.92458049886622	58	127
70.92458049886622	71.26126984126984	56	127
71.26126984126984	71.44702947845805	55	127
71.44702947845805	71.63278911564626	53	127
71.63278911564626	71.83015873015873	63	127
71.83015873015873	72.05072562358276	62	127
72.05072562358276	72.28294784580498	60	127
72.28294784580498	72.54997732426304	58	127
72.54997732426304	72.99115646258504	63	127
72.99115646258504	73.08403628117914	51	127
73.08403628117914	73.23496598639456	53	127
73.23496598639456	73.37428571428572	55	127
73.37428571428572	73.47877551020409	56	127
73.47877551020409	73.96639455782314	58	127
73.96639455782314	74.33791383219955	60	127
74.33791383219955	74.61655328798186	51	127
74.61655328798186	74.88358276643991	50	127
74.88358276643991	75.11578231292518	48	127
75.11578231292518	75.47566893424036	50	127
75.47566893424036	75.88204081632654	46	127
75.88204081632654	75.98650793650793	46	127
75.98650793650793	76.13746031746032	48	127
76.13746031746032	76.2187074829932	50	127
76.2187074829932	76.33482993197279	51	127
76.33482993197279	76.78761904761905	53	127
76.78761904761905	76.89210884353741	50	127
76.89210884353741	76.99659863945578	51	127
76.99659863945578	77.22879818594105	53	127
77.22879818594105	77.34489795918367	55	127
77.34489795918367	77.77446712018141	56	127
77.77446712018141	77.86734693877551	46	127
77.86734693877551	77.98344671201814	48	127
77.98344671201814	78.11115646258503	50	127
78.11115646258503	78.20403628117914	51	127
78.20403628117914	78.70326530612245	53	127
78.70326530612245	78.80775510204082	50	127
78.80775510204082	78.88902494331066	51	127
78.88902494331066	78.99351473922903	53	127
78.99351473922903	79.08639455782313	55	127
79.08639455782313	79.56240362811792	56	127
79.56240362811792	79.7249433106576	51	127
79.7249433106576	79.86426303854876	53	127
79.86426303854876	80.0035827664399	55	127
80.0035827664399	80.08485260770975	56	127
80.08485260770975	80.5724716553288	58	127
80.5724716553288	80.67696145124717	55	127
80.67696145124717	80.75823129251701	56	127
80.75823129251701	80.89755102040816	58	127
80.89755102040816	80.99043083900227	60	127
80.99043083900227	81.53609977324263	61	127
81.53609977324263	81.62897959183674	51	127
81.62897959183674	81.73346938775511	53	127
81.73346938775511	81.84956916099773	55	127
81.84956916099773	81.93083900226758	56	127
81.93083900226758	82.33718820861678	58	127
82.33718820861678	82.43006802721088	55	127
82.43006802721088	82.52294784580499	56	127
82.52294784580499	82.67387755102041	58	127
82.67387755102041	82.77836734693878	60	127
82.77836734693878	83.25437641723356	61	127
83.25437641723356	83.50979591836735	60	127
83.50979591836735	83.71877551020408	58	127
83.71877551020408	83.96256235827664	60	127
83.96256235827664	84.1831746031746	58	127
84.1831746031746	84.47340136054422	58	127
84.47340136054422	84.67079365079366	56	127
84.67079365079366	84.94943310657597	58	127
84.94943310657597	85.14680272108843	55	127
85.14680272108843	85.36736961451247	43	127
85.36736961451247	85.52993197278911	55	127
85.52993197278911	85.63442176870748	56	127
85.63442176870748	85.90145124716554	58	127
85.90145124716554	85.99433106575964	55	127
85.99433106575964	86.12204081632653	56	127
86.12204081632653	86.34263038548752	58	127
86.34263038548752	86.42390022675737	56	127
86.42390022675737	86.59804988662131	55	127
86.59804988662131	86.81863945578232	56	127
86.81863945578232	87.09727891156463	53	127
87.09727891156463	87.37591836734694	41	127
87.37591836734694	87.55006802721088	56	127
87.55006802721088	87.63133786848073	55	127
87.63133786848073	87.75904761904762	53	127
87.75904761904762	87.86353741496599	51	127
87.86353741496599	87.95641723356009	50	127
87.95641723356009	88.21183673469388	51	127
88.21183673469388	88.40918367346939	58	127
88.40918367346939	88.50208616780046	55	127
88.50208616780046	88.61818594104308	53	127
88.61818594104308	88.72267573696145	51	127
88.72267573696145	88.85038548752834	50	127
88.85038548752834	89.07097505668935	51	127
89.07097505668935	89.24512471655329	63	127
89.24512471655329	89.46571428571428	56	127
89.46571428571428	89.55857142857143	55	127
89.55857142857143	89.6514739229025	53	127
89.6514739229025	89.7443537414966	55	127
89.7443537414966	89.83723356009071	56	127
89.83723356009071	89.91848072562358	55	127
89.91848072562358	90.02299319727891	53	127
90.02299319727891	90.1855328798186	55	127
90.1855328798186	90.31324263038549	56	127
90.31324263038549	90.41773242630386	55	127
90.41773242630386	90.56866213151928	53	127
90.56866213151928	90.69637188208617	51	127
90.69637188208617	90.78925170068027	50	127
90.78925170068027	90.88213151927438	48	127
90.88213151927438	90.998231292517	46	127
90.998231292517	91.11433106575964	44	127
91.11433106575964	91.40458049886621	43	127
91.40458049886621	91.60195011337869	51	127
91.60195011337869	91.81092970521541	60	127
91.81092970521541	92.08954648526077	56	127
92.08954648526077	92.57718820861678	58	127
92.57718820861678	92.87904761904763	60	127
92.87904761904763	93.28539682539683	55	127
93.28539682539683	93.80784580498866	56	127
93.80784580498866	94.17936507936508	53	127
94.17936507936508	94.57410430839002	41	127
94.57410430839002	94.66698412698413	60	127
94.66698412698413	94.75986394557823	58	127
94.75986394557823	94.94562358276644	56	127
94.94562358276644	95.05011337868481	55	127
95.05011337868481	95.46807256235827	53	127
95.46807256235827	95.59578231292517	56	127
95.59578231292517	95.7118820861678	55	127
95.7118820861678	95.79315192743765	53	127
95.79315192743765	95.897641723356	51	127
95.897641723356	96.338820861678	50	127
96.338820861678	96.4665306122449	53	127
96.4665306122449	96.60585034013606	51	127
96.60585034013606	96.69873015873016	50	127
96.69873015873016	96.83804988662132	48	127
96.83804988662132	97.0934693877551	46	127
97.0934693877551	97.36049886621315	50	127
97.36049886621315	97.54625850340136	53	127
97.54625850340136	97.7552380952381	56	127
97.7552380952381	98.2544671201814	65	127
98.2544671201814	98.39378684807257	63	127
98.39378684807257	98.47505668934241	62	127
98.47505668934241	98.59115646258503	60	127
98.59115646258503	98.68403628117913	58	127
98.68403628117913	99.12521541950113	63	127
99.12521541950113	99.31097505668934	51	127
99.31097505668934	99.40385487528344	53	127
99.40385487528344	99.61283446712018	55	127
99.61283446712018	99.69410430839002	56	127
99.69410430839002	100.1701133786848	58	127
100.1701133786848	100.6112925170068	60	127
100.6112925170068	100.94798185941043	51	127
100.94798185941043	101.16857142857143	50	127
101.16857142857143	101.42399092970521	48	127
101.42399092970521	101.69102040816327	50	127
101.69102040816327	102.20185941043084	46	127
102.20185941043084	102.32956916099774	63	127
102.32956916099774	102.46888888888888	62	127
102.46888888888888	102.57337868480725	60	127
102.57337868480725	102.67786848072562	58	127
102.67786848072562	103.01455782312925	63	127
103.01455782312925	103.1887074829932	51	127
103.1887074829932	103.35124716553288	53	127
103.35124716553288	103.47895691609978	55	127
103.47895691609978	103.5950566893424	56	127
103.5950566893424	104.22199546485261	58	127
104.22199546485261	104.72122448979592	60	127
104.72122448979592	104.86054421768708	61	127
104.86054421768708	104.95342403628118	60	127
104.95342403628118	105.27850340136054	58	127
105.27850340136054	106.11442176870749	60	127
106.11442176870749	106.25374149659864	58	127
106.25374149659864	106.3930612244898	56	127
106.3930612244898	106.49755102040817	58	127
106.49755102040817	106.56721088435374	56	127
106.56721088435374	106.81102040816326	55	127
106.81102040816326	106.91551020408163	56	127
106.91551020408163	107.00839002267574	55	127
107.00839002267574	107.19414965986394	53	127
107.19414965986394	107.79786848072563	55	127
107.79786848072563	107.9604081632653	53	127
107.9604081632653	108.13455782312926	51	127
108.13455782312926	108.26226757369615	53	127
108.26226757369615	108.36675736961452	51	127
108.36675736961452	108.66861678004535	50	127
108.66861678004535	108.92403628117914	51	127
108.92403628117914	109.12140589569161	46	127
109.12140589569161	109.3768253968254	43	127
109.3768253968254	109.55097505668934	46	127
109.55097505668934	110.02698412698413	39	127
110.02698412698413	110.1314739229025	46	127
110.1314739229025	110.34045351473922	48	127
110.34045351473922	110.44494331065759	50	127
110.44494331065759	110.57265306122449	51	127
110.57265306122449	111.10671201814058	53	127
111.10671201814058	111.21120181405895	50	127
111.21120181405895	111.32730158730159	51	127
111.32730158730159	111.44340136054421	53	127
111.44340136054421	111.59433106575963	55	127
111.59433106575963	111.98907029478458	56	127
111.98907029478458	112.08195011337868	46	127
112.08195011337868	112.19804988662132	48	127
112.19804988662132	112.31414965986394	50	127
112.31414965986394	112.44185941043084	51	127
112.44185941043084	112.95269841269841	53	127
112.95269841269841	113.04557823129252	50	127
113.04557823129252	113.17328798185942	51	127
113.17328798185942	113.31260770975057	53	127
113.31260770975057	113.56802721088435	55	127
113.56802721088435	113.97437641723356	56	127
113.97437641723356	114.1833560090703	55	127
114.1833560090703	114.35750566893424	53	127
114.35750566893424	114.5548752834467	55	127
114.5548752834467	114.86834467120181	58	127
114.86834467120181	115.08893424036282	63	127
115.08893424036282	115.32113378684807	55	127
115.32113378684807	115.55333333333333	53	127
115.55333333333333	115.84358276643991	51	127
115.84358276643991	116.14544217687074	46	127
116.14544217687074	116.45891156462585	62	127
116.45891156462585	118.51387755102041	63	127
116.45891156462585	118.51387755102041	55	127
116.45891156462585	118.51387755102041	46	127
116.45891156462585	118.51387755102041	39	127
118.51387755102041	118.60675736961451	46	127
118.60675736961451	118.71124716553288	48	127
118.71124716553288	118.81573696145125	50	127
118.81573696145125	118.9550566893424	51	127
118.9550566893424	119.37301587301587	53	127
119.37301587301587	119.54716553287982	55	127
119.54716553287982	119.84902494331065	51	127
119.84902494331065	120.47596371882086	53	127
120.47596371882086	120.69655328798186	58	127
120.69655328798186	120.9055328798186	53	127
120.9055328798186	121.35832199546485	55	127
121.35832199546485	121.88077097505669	51	127
121.88077097505669	122.32195011337869	39	127
122.32195011337869	122.42643990929706	56	127
122.42643990929706	122.64702947845805	55	127
122.64702947845805	122.75151927437642	53	127
122.75151927437642	122.86761904761904	51	127
122.86761904761904	123.27396825396825	50	127
123.27396825396825	123.37845804988662	53	127
123.37845804988662	123.49455782312926	51	127
123.49455782312926	123.58743764172335	50	127
123.58743764172335	123.80802721088435	48	127
123.80802721088435	124.2956462585034	47	127
124.2956462585034	124.45818594104308	50	127
124.45818594104308	124.56267573696145	48	127
124.56267573696145	124.67877551020408	47	127
124.67877551020408	124.80648526077097	45	127
124.80648526077097	125.13156462585034	43	127
125.13156462585034	125.34054421768707	50	127
125.34054421768707	125.5843537414966	53	127
125.5843537414966	125.77011337868481	59	127
125.77011337868481	126.26934240362812	62	127
126.26934240362812	126.36222222222223	55	127
126.36222222222223	126.45510204081633	53	127
126.45510204081633	126.54798185941043	51	127
126.54798185941043	126.6524716553288	50	127
126.6524716553288	127.11687074829932	51	127
127.11687074829932	127.22136054421769	36	127
127.22136054421769	127.31424036281179	38	127
127.31424036281179	127.4071201814059	39	127
127.4071201814059	127.52321995464852	41	127
127.52321995464852	128.01083900226757	43	127
128.01083900226757	128.09208616780046	62	127
128.09208616780046	128.30108843537414	60	127
128.30108843537414	128.39396825396827	59	127
128.39396825396827	128.49843537414966	57	127
128.49843537414966	128.89319727891157	59	127
128.89319727891157	128.99768707482994	43	127
128.99768707482994	129.18344671201814	45	127
129.18344671201814	129.3227664399093	47	127
129.3227664399093	129.43886621315193	48	127
129.43886621315193	129.86843537414967	50	127
129.86843537414967	129.96131519274377	67	127
129.96131519274377	130.08902494331065	65	127
130.08902494331065	130.19351473922902	63	127
130.19351473922902	130.34444444444443	62	127
130.34444444444443	130.7507709750567	63	127
130.7507709750567	130.855283446712	63	127
130.855283446712	130.98299319727892	62	127
130.98299319727892	131.06426303854875	60	127
131.06426303854875	131.20358276643992	59	127
131.20358276643992	131.6447619047619	60	127
131.6447619047619	131.76086167800455	60	127
131.76086167800455	131.9001814058957	58	127
131.9001814058957	132.01628117913833	56	127
132.01628117913833	132.132358276644	55	127
132.132358276644	132.58517006802722	56	127
132.58517006802722	132.68963718820862	56	127
132.68963718820862	132.794126984127	55	127
132.794126984127	132.88702947845806	53	127
132.88702947845806	133.08439909297053	51	127
133.08439909297053	133.60684807256237	50	127
133.60684807256237	133.80421768707484	60	127
133.80421768707484	134.01319727891158	59	127
134.01319727891158	134.26861678004536	60	127
134.26861678004536	134.64013605442176	56	127
134.64013605442176	134.8491156462585	53	127
134.8491156462585	135.04646258503402	56	127
135.04646258503402	135.26707482993197	50	127
135.26707482993197	135.52249433106576	60	127
135.52249433106576	135.74308390022676	55	127
135.74308390022676	135.98689342403628	59	127
135.98689342403628	136.43968253968254	60	127
136.43968253968254	136.97374149659865	43	127
136.97374149659865	137.54263038548754	36	127
137.54263038548754	137.65873015873015	48	127
137.65873015873015	137.7515873015873	50	127
137.7515873015873	137.8677097505669	52	127
137.8677097505669	138.03024943310658	53	127
138.03024943310658	138.48303854875283	55	127
138.48303854875283	138.88938775510204	56	127
138.88938775510204	139.063537414966	53	127
139.063537414966	139.50471655328798	55	127
139.50471655328798	139.70208616780045	60	127
139.70208616780045	140.0387755102041	55	127
140.0387755102041	140.2245351473923	58	127
140.2245351473923	140.43351473922903	56	127
140.43351473922903	140.67732426303854	55	127
140.67732426303854	140.95596371882087	53	127
140.95596371882087	141.19977324263039	63	127
141.19977324263039	141.4319501133787	62	127
141.4319501133787	141.64095238095237	60	127
141.64095238095237	141.95442176870748	58	127
141.95442176870748	142.36077097505668	63	127
142.36077097505668	142.44204081632654	51	127
142.44204081632654	142.5581179138322	53	127
142.5581179138322	142.66260770975057	55	127
142.66260770975057	142.75551020408165	56	127
142.75551020408165	143.26634920634922	58	127
143.26634920634922	143.78879818594103	60	127
143.78879818594103	144.0209977324263	51	127
144.0209977324263	144.25319727891156	50	127
144.25319727891156	144.43895691609978	48	127
144.43895691609978	144.76403628117913	50	127
144.76403628117913	145.1819954648526	46	127
145.1819954648526	145.2748752834467	46	127
145.2748752834467	145.36773242630386	48	127
145.36773242630386	145.50707482993198	50	127
145.50707482993198	145.6580045351474	51	127
145.6580045351474	146.21528344671202	53	127
146.21528344671202	146.30816326530612	50	127
146.30816326530612	146.43587301587303	51	127
146.43587301587303	146.55197278911564	53	127
146.55197278911564	146.62163265306123	55	127
146.62163265306123	147.05120181405897	56	127
147.05120181405897	147.2021315192744	46	127
147.2021315192744	147.32984126984127	48	127
147.32984126984127	147.45755102040818	50	127
147.45755102040818	147.55043083900227	51	127
147.55043083900227	147.96839002267575	53	127
147.96839002267575	148.04965986394558	50	127
148.04965986394558	148.22380952380954	51	127
148.22380952380954	148.33990929705215	53	127
148.33990929705215	148.4443990929705	55	127
148.4443990929705	148.94362811791385	56	127
148.94362811791385	149.07133786848073	51	127
149.07133786848073	149.19904761904763	53	127
149.19904761904763	149.28031746031746	55	127
149.28031746031746	149.4196371882086	56	127
149.4196371882086	149.84920634920636	58	127
149.84920634920636	149.965306122449	55	127
149.965306122449	150.0697732426304	56	127
150.0697732426304	150.27875283446713	58	127
150.27875283446713	150.40648526077098	60	127
150.40648526077098	150.7895918367347	61	127
150.7895918367347	150.94052154195012	51	127
150.94052154195012	151.0566439909297	53	127
151.0566439909297	151.1495238095238	55	127
151.1495238095238	151.26562358276644	56	127
151.26562358276644	151.6835827664399	58	127
151.6835827664399	151.76485260770974	55	127
151.76485260770974	151.85773242630387	56	127
151.85773242630387	152.0318820861678	58	127
152.0318820861678	152.13637188208617	60	127
152.13637188208617	152.67043083900228	61	127
152.67043083900228	152.9142403628118	60	127
152.9142403628118	153.1580498866213	58	127
153.1580498866213	153.37863945578232	60	127
153.37863945578232	153.56439909297052	58	127
153.56439909297052	153.7965986394558	58	127
153.7965986394558	154.01718820861677	56	127
154.01718820861677	154.26097505668935	58	127
154.26097505668935	154.50480725623584	55	127
154.50480725623584	154.82988662131518	43	127
154.82988662131518	154.9227664399093	55	127
154.9227664399093	155.12013605442178	56	127
155.12013605442178	155.31750566893425	58	127
155.31750566893425	155.41038548752834	55	127
155.41038548752834	155.52648526077098	56	127
155.52648526077098	155.72385487528345	58	127
155.72385487528345	155.82834467120182	56	127
155.82834467120182	155.92122448979592	55	127
155.92122448979592	156.09537414965988	56	127
156.09537414965988	156.2578911564626	53	127
156.2578911564626	156.46689342403627	41	127
156.46689342403627	156.80358276643992	56	127
156.80358276643992	156.91965986394558	55	127
156.91965986394558	157.04739229024943	53	127
157.04739229024943	157.16349206349207	51	127
157.16349206349207	157.27956916099774	50	127
157.27956916099774	157.4653514739229	51	127
157.4653514739229	157.7439909297052	58	127
157.7439909297052	157.8717006802721	55	127
157.8717006802721	157.999410430839	53	127
157.999410430839	158.10390022675736	51	127
158.10390022675736	158.20839002267573	50	127
158.20839002267573	158.4521768707483	51	127
158.4521768707483	158.66115646258504	63	127
158.66115646258504	158.74244897959184	56	127
158.74244897959184	158.89337868480726	55	127
158.89337868480726	158.99786848072563	53	127
158.99786848072563	159.1719954648526	55	127
159.1719954648526	159.29972789115646	56	127
159.29972789115646	159.39260770975056	55	127
159.39260770975056	159.5087074829932	53	127
159.5087074829932	159.64802721088435	55	127
159.64802721088435	159.7292970521542	56	127
159.7292970521542	159.8337641723356	55	127
159.8337641723356	159.93825396825397	53	127
159.93825396825397	160.01954648526078	51	127
160.01954648526078	160.1356462585034	50	127
160.1356462585034	160.25174603174602	48	127
160.25174603174602	160.3562358276644	46	127
160.3562358276644	160.4839455782313	44	127
160.4839455782313	160.71614512471655	43	127
160.71614512471655	160.92512471655328	51	127
160.92512471655328	161.19215419501134	60	127
161.19215419501134	161.4824036281179	56	127
161.4824036281179	161.94680272108843	58	127
161.94680272108843	162.29510204081632	60	127
162.29510204081632	162.51569160997732	55	127
162.51569160997732	163.00328798185942	56	127
163.00328798185942	163.57219954648525	53	127
163.57219954648525	164.0946485260771	41	127
164.0946485260771	164.17591836734695	60	127
164.17591836734695	164.32684807256237	58	127
164.32684807256237	164.43133786848074	56	127
164.43133786848074	164.54743764172335	55	127
164.54743764172335	165.11632653061224	53	127
165.11632653061224	165.2208163265306	56	127
165.2208163265306	165.32530612244898	55	127
165.32530612244898	165.44140589569162	53	127
165.44140589569162	165.58072562358277	51	127
165.58072562358277	166.0218820861678	50	127
166.0218820861678	166.11478458049888	53	127
166.11478458049888	166.20766439909298	51	127
166.20766439909298	166.31215419501135	50	127
166.31215419501135	166.428231292517	48	127
166.428231292517	166.63721088435375	46	127
166.63721088435375	166.91587301587302	50	127
166.91587301587302	167.19448979591837	53	127
167.19448979591837	167.38027210884354	56	127
167.38027210884354	168.018820861678	65	127
168.018820861678	168.10009070294785	63	127
168.10009070294785	168.19297052154195	62	127
168.19297052154195	168.28585034013605	60	127
168.28585034013605	168.37873015873015	58	127
168.37873015873015	168.81990929705216	63	127
168.81990929705216	168.97083900226758	51	127
168.97083900226758	169.11015873015873	53	127
169.11015873015873	169.22625850340137	55	127
169.22625850340137	169.35396825396825	56	127
169.35396825396825	169.81836734693877	58	127
169.81836734693877	170.30598639455783	60	127
170.30598639455783	170.5962358276644	51	127
170.5962358276644	170.79360544217687	50	127
170.79360544217687	171.02580498866214	48	127
171.02580498866214	171.28122448979593	50	127
171.28122448979593	171.7920634920635	46	127
171.7920634920635	171.8965306122449	63	127
171.8965306122449	171.98943310657597	62	127
171.98943310657597	172.1635827664399	60	127
172.1635827664399	172.25643990929706	58	127
172.25643990929706	172.697641723356	63	127
172.697641723356	172.81374149659865	51	127
172.81374149659865	172.9530612244898	53	127
172.9530612244898	173.0459410430839	55	127
173.0459410430839	173.3013605442177	56	127
173.3013605442177	173.7077097505669	58	127
173.7077097505669	174.23015873015873	60	127
174.23015873015873	174.3346485260771	61	127
174.3346485260771	174.48557823129252	60	127
174.48557823129252	174.7409977324263	58	127
174.7409977324263	175.46081632653062	60	127
175.46081632653062	175.5885260770975	58	127
175.5885260770975	175.68138321995465	56	127
175.68138321995465	175.78587301587302	58	127
175.78587301587302	175.94843537414965	56	127
175.94843537414965	176.19222222222223	55	127
176.19222222222223	176.27351473922903	56	127
176.27351473922903	176.49410430839004	55	127
176.49410430839004	176.74952380952382	53	127
176.74952380952382	177.4112925170068	55	127
177.4112925170068	177.5041723356009	53	127
177.5041723356009	177.64349206349206	51	127
177.64349206349206	177.88730158730158	53	127
177.88730158730158	178.038231292517	51	127
178.038231292517	178.22399092970522	50	127
178.22399092970522	178.3865306122449	51	127
178.3865306122449	178.58390022675738	46	127
178.58390022675738	178.95539682539683	43	127
178.95539682539683	179.12956916099773	46	127
179.12956916099773	179.65201814058958	39	127
179.65201814058958	179.79133786848072	46	127
179.79133786848072	179.93065759637187	48	127
179.93065759637187	180.023537414966	50	127
180.023537414966	180.24412698412698	51	127
180.24412698412698	180.72013605442177	53	127
180.72013605442177	180.81301587301587	50	127
180.81301587301587	180.91750566893424	51	127
180.91750566893424	181.01038548752834	53	127
181.01038548752834	181.23097505668935	55	127
181.23097505668935	181.63732426303855	56	127
181.63732426303855	181.8114739229025	46	127
181.8114739229025	181.89274376417234	48	127
181.89274376417234	182.00884353741498	50	127
182.00884353741498	182.10172335600907	51	127
182.10172335600907	182.62417233560092	53	127
182.62417233560092	182.71705215419502	50	127
182.71705215419502	182.82154195011339	51	127
182.82154195011339	182.92603174603175	53	127
182.92603174603175	183.04210884353742	55	127
183.04210884353742	183.58780045351475	56	127
183.58780045351475	183.79678004535148	55	127
183.79678004535148	184.12185941043083	53	127
184.12185941043083	184.38888888888889	55	127
184.38888888888889	184.59786848072562	58	127
184.59786848072562	184.83004535147393	63	127
184.83004535147393	185.05065759637188	55	127
185.05065759637188	185.28285714285715	53	127
185.28285714285715	185.52666666666667	51	127
185.52666666666667	185.85172335600907	46	127
185.85172335600907	186.3161224489796	62	127
186.3161224489796	188.278231292517	46	127
186.3161224489796	188.278231292517	63	127
186.3161224489796	188.278231292517	55	127
186.3161224489796	188.278231292517	39	127
188.278231292517	190.97174603174602	51	127
188.278231292517	190.97174603174602	43	127
190.97174603174602	191.55224489795918	51	127
190.97174603174602	191.55224489795918	44	127
191.55224489795918	192.4926530612245	53	127
192.00503401360544	192.4926530612245	46	127
192.4926530612245	193.03832199546486	50	127
193.03832199546486	193.23569160997732	51	127
193.03832199546486	193.44467120181406	48	127
193.23569160997732	193.44467120181406	53	127
193.44467120181406	194.39668934240362	55	127
193.88585034013605	194.39668934240362	43	127
194.39668934240362	194.98879818594105	51	127
194.98879818594105	195.39514739229026	44	127
195.39514739229026	195.87115646258502	53	127
195.87115646258502	196.30072562358276	46	127
196.30072562358276	196.74190476190475	50	127
196.74190476190475	197.34562358276645	51	127
197.34562358276645	197.84485260770975	46	127
197.84485260770975	198.30925170068028	39	127
198.30925170068028	198.94780045351473	51	127
198.30925170068028	198.94780045351473	43	127
198.94780045351473	199.48185941043084	51	127
198.94780045351473	199.48185941043084	44	127
199.48185941043084	200.3177777777778	53	127
199.9346485260771	200.3177777777778	46	127
200.3177777777778	200.75895691609978	50	127
200.75895691609978	200.99115646258502	51	127
200.75895691609978	201.17691609977325	48	127
200.99115646258502	201.17691609977325	53	127
201.17691609977325	202.314693877551	55	127
201.64131519274378	202.314693877551	43	127
202.314693877551	202.87197278911566	51	127
202.87197278911566	203.49891156462584	44	127
203.49891156462584	203.84721088435373	53	127
203.84721088435373	204.31160997732425	46	127
204.31160997732425	204.78761904761905	50	127
204.78761904761905	205.29845804988662	51	127
205.29845804988662	205.82090702947846	46	127
205.82090702947846	206.20403628117913	39	127
206.20403628117913	206.7845351473923	58	127
206.20403628117913	206.7845351473923	51	127
206.7845351473923	207.27215419501132	58	127
206.7845351473923	207.27215419501132	56	127
207.27215419501132	208.23578231292518	60	127
207.7597732426304	208.23578231292518	55	127
208.23578231292518	208.978820861678	58	127
208.978820861678	209.31551020408162	56	127
209.31551020408162	209.7915192743764	55	127
209.7915192743764	210.88285714285715	56	127
210.88285714285715	211.405306122449	53	127
211.405306122449	212.25283446712018	56	127
212.25283446712018	212.85655328798185	58	127
212.25283446712018	212.85655328798185	50	127
212.85655328798185	213.86662131519273	56	127
213.39061224489797	213.86662131519273	51	127
213.86662131519273	214.29619047619047	55	127
214.29619047619047	214.48195011337867	53	127
214.48195011337867	214.70253968253968	51	127
214.70253968253968	214.9463492063492	50	127
214.9463492063492	215.13210884353742	48	127
215.13210884353742	215.39913832199545	46	127
215.39913832199545	215.63133786848073	44	127
215.63133786848073	216.0144671201814	43	127
215.63133786848073	216.0144671201814	51	127
216.0144671201814	216.6181859410431	44	127
216.0144671201814	216.6181859410431	51	127
216.6181859410431	217.6863038548753	53	127
217.1174149659864	217.6863038548753	46	127
217.6863038548753	218.06943310657596	50	127
218.06943310657596	218.61510204081634	48	127
218.06943310657596	218.34807256235828	51	127
218.34807256235828	218.61510204081634	53	127
218.61510204081634	219.54390022675736	55	127
219.13755102040815	219.54390022675736	43	127
219.54390022675736	220.08956916099774	51	127
220.08956916099774	220.65845804988663	44	127
220.65845804988663	221.02997732426303	53	127
221.02997732426303	221.4479365079365	46	127
221.4479365079365	221.86589569160998	50	127
221.86589569160998	223.4912925170068	39	127
221.86589569160998	223.4912925170068	46	127
221.86589569160998	223.4912925170068	51	127
223.4912925170068	223.92086167800454	58	127
223.4912925170068	223.92086167800454	51	127
223.92086167800454	224.47814058956916	58	127
223.92086167800454	224.47814058956916	56	127
224.47814058956916	225.41854875283445	60	127
225.000589569161	225.41854875283445	55	127
225.41854875283445	225.9177777777778	58	127
225.9177777777778	226.12675736961452	56	127
226.12675736961452	226.324126984127	55	127
226.324126984127	227.05555555555554	56	127
227.05555555555554	227.50834467120183	53	127
227.50834467120183	227.92630385487527	56	127
227.92630385487527	228.36748299319729	58	127
227.92630385487527	228.36748299319729	50	127
228.36748299319729	229.28467120181406	56	127
228.91315192743764	229.28467120181406	51	127
229.28467120181406	229.71424036281178	55	127
229.71424036281178	229.98126984126984	53	127
229.98126984126984	230.19024943310657	51	127
230.19024943310657	230.36439909297053	50	127
230.36439909297053	230.57337868480727	48	127
230.57337868480727	230.80557823129251	46	127
230.80557823129251	231.00294784580498	44	127
231.00294784580498	231.6879365079365	43	127
231.00294784580498	231.6879365079365	51	127
231.6879365079365	232.14072562358277	44	127
231.6879365079365	232.14072562358277	51	127
232.14072562358277	233.13918367346938	53	127
232.61673469387756	233.13918367346938	46	127
233.13918367346938	233.56875283446712	50	127
233.56875283446712	233.75451247165532	51	127
233.56875283446712	233.97510204081632	48	127
233.75451247165532	233.97510204081632	53	127
233.97510204081632	235.08965986394557	55	127
234.42789115646258	235.08965986394557	43	127
235.08965986394557	235.48439909297053	51	127
235.48439909297053	235.9371882086168	44	127
235.9371882086168	236.55251700680273	53	127
236.55251700680273	237.04013605442177	46	127
237.04013605442177	237.5625850340136	50	127
237.5625850340136	239.15315192743765	39	127
237.5625850340136	239.15315192743765	46	127
237.5625850340136	239.15315192743765	51	127
239.15315192743765	239.36213151927439	51	127
239.36213151927439	239.5362811791383	53	127
239.5362811791383	239.698820861678	55	127
239.698820861678	239.8845804988662	56	127
239.8845804988662	240.38380952380953	58	127
240.38380952380953	240.56956916099773	60	127
240.56956916099773	240.77854875283447	56	127
240.77854875283447	241.16167800453513	58	127
241.16167800453513	241.44031746031746	60	127
241.44031746031746	241.62607709750566	55	127
241.62607709750566	242.25301587301587	56	127
242.25301587301587	242.7754648526077	53	127
242.7754648526077	243.17020408163265	41	127
243.17020408163265	243.3095238095238	50	127
243.3095238095238	243.44884353741497	51	127
243.44884353741497	243.56494331065758	53	127
243.56494331065758	243.68104308390022	55	127
243.68104308390022	244.05256235827665	56	127
244.05256235827665	244.29637188208616	58	127
244.29637188208616	244.4821315192744	55	127
244.4821315192744	245.21356009070294	56	127
245.21356009070294	245.4109297052154	58	127
245.4109297052154	245.67795918367347	53	127
245.67795918367347	246.15396825396826	55	127
246.15396825396826	246.85056689342403	51	127
246.85056689342403	247.2104761904762	39	127
247.2104761904762	247.32657596371882	51	127
247.32657596371882	247.4310657596372	53	127
247.4310657596372	247.53555555555556	55	127
247.53555555555556	247.64004535147393	56	127
247.64004535147393	248.08122448979591	58	127
248.08122448979591	248.22054421768706	46	127
248.22054421768706	248.32503401360543	48	127
248.32503401360543	248.47596371882085	50	127
248.47596371882085	248.56884353741498	51	127
248.56884353741498	249.11451247165533	53	127
249.11451247165533	249.52086167800454	56	127
249.52086167800454	249.76467120181405	56	127
249.76467120181405	249.938820861678	55	127
249.938820861678	250.20585034013607	53	127
250.20585034013607	250.42643990929705	51	127
250.42643990929705	250.97210884353743	53	127
250.97210884353743	251.1346485260771	51	127
251.1346485260771	251.23913832199545	53	127
251.23913832199545	251.33201814058958	55	127
251.33201814058958	251.4132879818594	56	127
251.4132879818594	251.81963718820862	58	127
251.81963718820862	251.95895691609977	46	127
251.95895691609977	252.05183673469386	48	127
252.05183673469386	252.144716553288	50	127
252.144716553288	252.27242630385487	51	127
252.27242630385487	252.79487528344671	53	127
252.79487528344671	253.29410430839002	56	127
253.29410430839002	253.51469387755103	56	127
253.51469387755103	253.7120634920635	55	127
253.7120634920635	253.8978231292517	53	127
253.8978231292517	254.07197278911565	51	127
254.07197278911565	254.4551020408163	53	127
254.4551020408163	254.75696145124718	53	127
254.75696145124718	254.88467120181406	55	127
254.88467120181406	255.01238095238097	57	127
255.01238095238097	255.08204081632653	58	127
255.08204081632653	255.48839002267573	60	127
255.48839002267573	255.61609977324264	57	127
255.61609977324264	255.73219954648525	58	127
255.73219954648525	255.83668934240362	60	127
255.83668934240362	255.96439909297052	62	127
255.96439909297052	256.4520181405896	63	127
256.4520181405896	256.5332879818594	53	127
256.5332879818594	256.6958276643991	55	127
256.6958276643991	256.80031746031744	57	127
256.80031746031744	256.9860544217687	58	127
256.9860544217687	257.3924036281179	60	127
257.3924036281179	257.485306122449	57	127
257.485306122449	257.5897959183674	58	127
257.5897959183674	257.6710657596372	60	127
257.6710657596372	257.77555555555557	62	127
257.77555555555557	258.2631746031746	63	127
258.2631746031746	258.50698412698415	62	127
258.50698412698415	258.7624036281179	60	127
258.7624036281179	259.0178231292517	62	127
259.0178231292517	259.2151927437642	58	127
259.2151927437642	259.42417233560093	55	127
259.42417233560093	259.7028117913832	58	127
259.7028117913832	259.8885714285714	51	127
259.8885714285714	260.178820861678	60	127
260.178820861678	260.4342403628118	53	127
260.4342403628118	260.6780498866213	57	127
260.6780498866213	261.2121088435374	58	127
261.2121088435374	261.6532879818594	53	127
261.6532879818594	262.0712471655329	46	127
262.0712471655329	262.18734693877553	46	127
262.18734693877553	262.3382766439909	48	127
262.3382766439909	262.46598639455783	50	127
262.46598639455783	262.55886621315193	51	127
262.55886621315193	263.05809523809523	53	127
263.05809523809523	263.2902947845805	55	127
263.2902947845805	263.487664399093	51	127
263.487664399093	263.9868934240363	53	127
263.9868934240363	264.18426303854875	58	127
264.18426303854875	264.4745124716553	53	127
264.4745124716553	264.9853514739229	55	127
264.9853514739229	265.6122902494331	51	127
265.6122902494331	266.00702947845804	39	127
266.00702947845804	266.09990929705214	56	127
266.09990929705214	266.1927664399093	55	127
266.1927664399093	266.29725623582766	53	127
266.29725623582766	266.4365986394558	51	127
266.4365986394558	266.8777777777778	50	127
266.8777777777778	266.9706575963719	53	127
266.9706575963719	267.08675736961453	51	127
267.08675736961453	267.16802721088436	50	127
267.16802721088436	267.27251700680273	48	127
267.27251700680273	267.7485260770975	47	127
267.7485260770975	267.9110657596372	50	127
267.9110657596372	268.02714285714285	48	127
268.02714285714285	268.12004535147395	47	127
268.12004535147395	268.2477551020408	45	127
268.2477551020408	268.52639455782315	43	127
268.52639455782315	268.7585941043084	50	127
268.7585941043084	269.08367346938775	53	127
269.08367346938775	269.30426303854875	59	127
269.30426303854875	269.74544217687077	62	127
269.74544217687077	269.83832199546487	55	127
269.83832199546487	269.9195918367347	53	127
269.9195918367347	270.0589115646259	51	127
270.0589115646259	270.15179138322	50	127
270.15179138322	270.5581405895692	51	127
270.5581405895692	270.6510204081633	36	127
270.6510204081633	270.84839002267574	38	127
270.84839002267574	270.9644897959184	39	127
270.9644897959184	271.0457596371882	41	127
271.0457596371882	271.51013605442176	43	127
271.51013605442176	271.61462585034013	62	127
271.61462585034013	271.70750566893423	60	127
271.70750566893423	271.80040816326533	59	127
271.80040816326533	271.89328798185943	57	127
271.89328798185943	272.3344671201814	59	127
272.3344671201814	272.450566893424	43	127
272.450566893424	272.56666666666666	45	127
272.56666666666666	272.65954648526076	47	127
272.65954648526076	272.75242630385486	48	127
272.75242630385486	273.26326530612243	50	127
273.26326530612243	273.39097505668934	67	127
273.39097505668934	273.48385487528344	65	127
273.48385487528344	273.5883446712018	63	127
273.5883446712018	273.727664399093	62	127
273.727664399093	274.14562358276646	63	127
274.14562358276646	274.23850340136056	63	127
274.23850340136056	274.3546031746032	62	127
274.3546031746032	274.5055328798186	60	127
274.5055328798186	274.6332426303855	59	127
274.6332426303855	275.05120181405897	60	127
275.05120181405897	275.14408163265307	60	127
275.14408163265307	275.30662131519273	58	127
275.30662131519273	275.4807709750567	56	127
275.4807709750567	275.65492063492064	55	127
275.65492063492064	276.0496598639456	56	127
276.0496598639456	276.1309297052154	56	127
276.1309297052154	276.2354195011338	55	127
276.2354195011338	276.3979591836735	53	127
276.3979591836735	276.6185260770975	51	127
276.6185260770975	277.05972789115646	50	127
277.05972789115646	277.31514739229027	60	127
277.31514739229027	277.50090702947847	59	127
277.50090702947847	277.7098866213152	60	127
277.7098866213152	278.01174603174604	56	127
278.01174603174604	278.29038548752834	53	127
278.29038548752834	278.4645124716553	56	127
278.4645124716553	278.69673469387754	50	127
278.69673469387754	279.04503401360546	60	127
279.04503401360546	279.3004535147392	55	127
279.3004535147392	279.4861904761905	59	127
279.4861904761905	279.99702947845805	60	127
279.99702947845805	280.42662131519273	43	127
280.42662131519273	281.0651700680272	36	127
281.0651700680272	281.2509297052154	48	127
281.2509297052154	281.3438095238095	50	127
281.3438095238095	281.52954648526077	52	127
281.52954648526077	281.6688888888889	53	127
281.6688888888889	282.13326530612244	55	127
282.13326530612244	282.3887074829932	56	127
282.3887074829932	282.63251700680274	53	127
282.63251700680274	283.03886621315195	55	127
283.03886621315195	283.2478458049887	60	127
283.2478458049887	283.57290249433106	55	127
283.57290249433106	283.8399546485261	58	127
283.8399546485261	284.09537414965985	56	127
284.09537414965985	284.35079365079366	55	127
284.35079365079366	284.5945804988662	53	127
284.5945804988662	284.76875283446714	63	127
284.76875283446714	285.0125623582766	62	127
285.0125623582766	285.25637188208617	60	127
285.25637188208617	285.4653514739229	58	127
285.4653514739229	285.95297052154194	63	127
285.95297052154194	286.0342403628118	51	127
286.0342403628118	286.11551020408166	53	127
286.11551020408166	286.35931972789115	55	127
286.35931972789115	286.52185941043086	56	127
286.52185941043086	286.90498866213153	58	127
286.90498866213153	287.34616780045354	60	127
287.34616780045354	287.5667573696145	51	127
287.5667573696145	287.8221768707483	50	127
287.8221768707483	287.99632653061224	48	127
287.99632653061224	288.3562358276644	50	127
288.3562358276644	288.80902494331065	46	127
288.80902494331065	288.913514739229	46	127
288.913514739229	289.0180045351474	48	127
289.0180045351474	289.1805442176871	50	127
289.1805442176871	289.29662131519274	51	127
289.29662131519274	289.76104308390023	53	127
289.76104308390023	289.8655328798186	50	127
289.8655328798186	289.9584126984127	51	127
289.9584126984127	290.0861224489796	53	127
290.0861224489796	290.20222222222225	55	127
290.20222222222225	290.678231292517	56	127
290.678231292517	290.8175510204082	46	127
290.8175510204082	290.9684807256236	48	127
290.9684807256236	291.07297052154195	50	127
291.07297052154195	291.16585034013605	51	127
291.16585034013605	291.5838095238095	53	127
291.5838095238095	291.7231292517007	50	127
291.7231292517007	291.8508163265306	51	127
291.8508163265306	292.001768707483	53	127
292.001768707483	292.10625850340136	55	127
292.10625850340136	292.52421768707484	56	127
292.52421768707484	292.60548752834467	51	127
292.60548752834467	292.74480725623584	53	127
292.74480725623584	292.8260770975057	55	127
292.8260770975057	292.9189569160998	56	127
292.9189569160998	293.4181859410431	58	127
293.4181859410431	293.52267573696145	55	127
293.52267573696145	293.6387755102041	56	127
293.6387755102041	293.7316553287982	58	127
293.7316553287982	293.8245351473923	60	127
293.8245351473923	294.37020408163266	61	127
294.37020408163266	294.4979138321996	51	127
294.4979138321996	294.6256235827664	53	127
294.6256235827664	294.74172335600906	55	127
294.74172335600906	294.91585034013605	56	127
294.91585034013605	295.2990022675737	58	127
295.2990022675737	295.4034920634921	55	127
295.4034920634921	295.4847619047619	56	127
295.4847619047619	295.577641723356	58	127
295.577641723356	295.6705215419501	60	127
295.6705215419501	296.0768707482993	61	127
296.0768707482993	296.35548752834467	60	127
296.35548752834467	296.7154195011338	58	127
296.7154195011338	296.91278911564626	60	127
296.91278911564626	297.1681859410431	58	127
297.1681859410431	297.3539682539683	58	127
297.3539682539683	297.55133786848074	56	127
297.55133786848074	297.783514739229	58	127
297.783514739229	298.01573696145124	55	127
298.01573696145124	298.2827664399093	43	127
298.2827664399093	298.39884353741496	55	127
298.39884353741496	298.50333333333333	56	127
298.50333333333333	298.7819954648526	58	127
298.7819954648526	298.92131519274375	55	127
298.92131519274375	299.00256235827663	56	127
299.00256235827663	299.2580045351474	58	127
299.2580045351474	299.3392743764172	56	127
299.3392743764172	299.46698412698413	55	127
299.46698412698413	299.76884353741497	56	127
299.76884353741497	299.989433106576	53	127
299.989433106576	300.24485260770973	41	127
300.24485260770973	300.430612244898	56	127
300.430612244898	300.50027210884355	55	127
300.50027210884355	300.59315192743765	53	127
300.59315192743765	300.68603174603174	51	127
300.68603174603174	300.7673015873016	50	127
300.7673015873016	301.0807709750567	51	127
301.0807709750567	301.25489795918367	58	127
301.25489795918367	301.34780045351476	55	127
301.34780045351476	301.4290702947846	53	127
301.4290702947846	301.5219501133787	51	127
301.5219501133787	301.63804988662133	50	127
301.63804988662133	301.93990929705217	51	127
301.93990929705217	302.1024489795918	63	127
302.1024489795918	302.17208616780044	56	127
302.17208616780044	302.2533786848073	55	127
302.2533786848073	302.3462585034014	53	127
302.3462585034014	302.4275283446712	55	127
302.4275283446712	302.53201814058957	56	127
302.53201814058957	302.6132879818594	55	127
302.6132879818594	302.6945351473923	53	127
302.6945351473923	302.7874149659864	55	127
302.7874149659864	302.8687074829932	56	127
302.8687074829932	303.3098866213152	55	127
303.3098866213152	303.41437641723354	53	127
303.41437641723354	303.54208616780045	51	127
303.54208616780045	303.6233560090703	50	127
303.6233560090703	303.76267573696146	48	127
303.76267573696146	303.8671655328798	46	127
303.8671655328798	303.9716553287982	44	127
303.9716553287982	304.227052154195	43	127
304.227052154195	304.54054421768706	51	127
304.54054421768706	304.80757369614514	60	127
304.80757369614514	305.02816326530615	56	127
305.02816326530615	305.5041723356009	58	127
305.5041723356009	305.6899319727891	60	127
305.6899319727891	305.8756916099773	55	127
305.8756916099773	306.9670294784581	56	127
306.9670294784581	307.31532879818593	53	127
307.31532879818593	307.6752380952381	41	127
307.6752380952381	307.7681179138322	60	127
307.7681179138322	307.84938775510204	58	127
307.84938775510204	307.9654875283447	56	127
307.9654875283447	308.06997732426305	55	127
308.06997732426305	308.5459863945578	53	127
308.5459863945578	308.6388662131519	56	127
308.6388662131519	308.80140589569163	55	127
308.80140589569163	308.90589569161	53	127
308.90589569161	309.02197278911564	51	127
309.02197278911564	309.3702947845805	50	127
309.3702947845805	309.4631746031746	53	127
309.4631746031746	309.5444217687075	51	127
309.5444217687075	309.66054421768706	50	127
309.66054421768706	309.76503401360543	48	127
309.76503401360543	309.9972335600907	46	127
309.9972335600907	310.3803628117914	50	127
310.3803628117914	310.5893424036281	53	127
310.5893424036281	310.7751020408163	56	127
310.7751020408163	311.1814512471655	65	127
311.1814512471655	311.3091609977324	63	127
311.3091609977324	311.4020408163265	62	127
311.4020408163265	311.4949206349206	60	127
311.4949206349206	311.6226303854875	58	127
311.6226303854875	312.06380952380954	63	127
312.06380952380954	312.1682993197279	51	127
312.1682993197279	312.3192290249433	53	127
312.3192290249433	312.4469387755102	55	127
312.4469387755102	312.5862585034014	56	127
312.5862585034014	313.1202947845805	58	127
313.1202947845805	313.584716553288	60	127
313.584716553288	313.78208616780046	51	127
313.78208616780046	314.02589569161	50	127
314.02589569161	314.20004535147393	48	127
314.20004535147393	314.40902494331067	50	127
314.40902494331067	314.79215419501134	46	127
314.79215419501134	315.128843537415	63	127
315.128843537415	315.29138321995464	62	127
315.29138321995464	315.4423129251701	60	127
315.4423129251701	315.5351927437642	58	127
315.5351927437642	315.9879818594104	63	127
315.9879818594104	316.10408163265305	51	127
316.10408163265305	316.26662131519276	53	127
316.26662131519276	316.3826984126984	55	127
316.3826984126984	316.5220408163265	56	127
316.5220408163265	317.00965986394556	58	127
317.00965986394556	317.49727891156465	60	127
317.49727891156465	317.6133560090703	61	127
317.6133560090703	317.7062585034014	60	127
317.7062585034014	317.9268253968254	58	127
317.9268253968254	318.6931065759637	60	127
318.6931065759637	318.7859863945578	58	127
318.7859863945578	319.0646258503401	56	127
319.0646258503401	319.2039455782313	58	127
319.2039455782313	319.3316553287982	56	127
319.3316553287982	319.59868480725623	55	127
319.59868480725623	319.7031746031746	56	127
319.7031746031746	319.7960544217687	55	127
319.7960544217687	320.1211337868481	53	127
320.1211337868481	320.75968253968256	55	127
320.75968253968256	320.88736961451247	53	127
320.88736961451247	321.00349206349205	51	127
321.00349206349205	321.1195918367347	53	127
321.1195918367347	321.2473015873016	51	127
321.2473015873016	321.4678911564626	50	127
321.4678911564626	321.7117006802721	51	127
321.7117006802721	321.9322902494331	46	127
321.9322902494331	322.1993197278912	43	127
322.1993197278912	322.4315192743764	46	127
322.4315192743764	322.9771882086168	39	127
322.9771882086168	323.1048979591837	46	127
323.1048979591837	323.26743764172335	48	127
323.26743764172335	323.36031746031745	50	127
323.36031746031745	323.4764172335601	51	127
323.4764172335601	323.92920634920637	53	127
323.92920634920637	324.0685260770975	50	127
324.0685260770975	324.1846258503401	51	127
324.1846258503401	324.3355555555556	53	127
324.3355555555556	324.44004535147394	55	127
324.44004535147394	324.8231746031746	56	127
324.8231746031746	325.0553741496599	46	127
325.0553741496599	325.15986394557825	48	127
325.15986394557825	325.2295238095238	50	127
325.2295238095238	325.47333333333336	51	127
325.47333333333336	325.856462585034	53	127
325.856462585034	325.93773242630385	50	127
325.93773242630385	326.0422222222222	51	127
326.0422222222222	326.16993197278913	53	127
326.16993197278913	326.2628117913832	55	127
326.2628117913832	327.11034013605445	56	127
327.11034013605445	327.3193197278912	55	127
327.3193197278912	327.48185941043084	53	127
327.48185941043084	327.6908390022676	55	127
327.6908390022676	327.9346258503401	58	127
327.9346258503401	328.1320181405896	63	127
328.1320181405896	328.48031746031745	55	127
328.48031746031745	328.73573696145127	53	127
328.73573696145127	329.10725623582766	51	127
329.10725623582766	329.37426303854875	46	127
329.37426303854875	329.6761224489796	62	127
329.6761224489796	332.19551020408164	63	127
329.6761224489796	332.19551020408164	55	127
329.6761224489796	332.19551020408164	46	127
329.6761224489796	332.19551020408164	39	127
