# onset,offset,note,velocity
0.06888888888888889	0.9628571428571429	69	127
0.06888888888888889	2.9597732426303853	44	127
0.06888888888888889	0.9628571428571429	69	127
0.06888888888888889	0.9628571428571429	57	127
2.9713832199546486	5.827437641723356	45	127
5.862267573696145	8.381632653061224	53	127
5.862267573696145	8.381632653061224	57	127
8.393219954648526	11.19124716553288	59	127
8.393219954648526	11.19124716553288	56	127
8.393219954648526	11.19124716553288	52	127
11.202857142857143	13.733832199546486	63	127
11.202857142857143	13.733832199546486	57	127
11.202857142857143	13.733832199546486	60	127
13.745442176870748	16.380907029478458	56	127
13.745442176870748	16.380907029478458	64	127
13.745442176870748	16.380907029478458	59	127
16.39251700680272	19.248571428571427	51	127
16.39251700680272	19.248571428571427	72	127
16.39251700680272	19.248571428571427	57	127
16.39251700680272	19.248571428571427	66	127
19.260181405895693	22.034965986394557	68	127
19.260181405895693	22.034965986394557	71	127
19.260181405895693	22.034965986394557	52	127
22.046553287981858	24.960680272108842	80	127
22.046553287981858	24.960680272108842	62	127
22.046553287981858	24.960680272108842	71	127
22.046553287981858	24.960680272108842	53	127
24.972290249433108	27.61936507936508	81	127
24.972290249433108	27.61936507936508	52	127
24.972290249433108	27.61936507936508	72	127
24.972290249433108	27.61936507936508	60	127
27.630975056689344	30.13873015873016	83	127
27.630975056689344	30.13873015873016	44	127
27.630975056689344	30.13873015873016	62	127
27.630975056689344	30.13873015873016	65	127
30.161950113378683	33.435963718820865	45	127
30.161950113378683	33.435963718820865	84	127
30.161950113378683	33.435963718820865	64	127
30.161950113378683	33.435963718820865	72	127
30.161950113378683	33.435963718820865	60	127
33.44757369614513	36.326848072562356	39	127
33.44757369614513	36.326848072562356	54	127
33.44757369614513	36.326848072562356	69	127
33.44757369614513	36.326848072562356	84	127
36.33843537414966	39.35705215419501	68	127
36.33843537414966	39.35705215419501	83	127
36.33843537414966	39.35705215419501	40	127
36.33843537414966	39.35705215419501	56	127
39.380272108843535	40.71541950113379	65	127
39.380272108843535	42.09700680272109	57	127
39.380272108843535	42.09700680272109	48	127
39.380272108843535	42.09700680272109	75	127
40.71541950113379	42.09700680272109	66	127
42.10861678004535	43.74562358276644	76	127
42.10861678004535	43.74562358276644	56	127
42.10861678004535	43.74562358276644	47	127
42.10861678004535	43.74562358276644	68	127
43.757233560090704	45.672879818594105	62	127
43.757233560090704	45.672879818594105	59	127
43.757233560090704	45.672879818594105	56	127
43.757233560090704	45.672879818594105	47	127
43.757233560090704	45.672879818594105	77	127
43.757233560090704	45.672879818594105	74	127
45.69609977324263	45.84702947845805	77	127
45.69609977324263	46.09083900226757	62	127
45.69609977324263	46.09083900226757	74	127
45.69609977324263	46.09083900226757	53	127
45.69609977324263	46.09083900226757	55	127
45.69609977324263	46.09083900226757	47	127
45.84702947845805	45.986326530612246	76	127
45.986326530612246	46.09083900226757	74	127
46.09083900226757	46.218548752834465	77	127
46.218548752834465	46.29981859410431	74	127
46.29981859410431	46.34625850340136	72	127
46.34625850340136	46.439138321995465	71	127
46.439138321995465	46.53201814058957	74	127
46.53201814058957	46.62487528344671	71	127
46.62487528344671	46.717777777777776	69	127
46.717777777777776	46.79904761904762	68	127
46.79904761904762	46.891927437641726	71	127
46.891927437641726	47.01963718820862	65	127
47.01963718820862	47.100907029478456	64	127
47.100907029478456	47.205396825396825	62	127
47.205396825396825	47.33310657596372	65	127
47.33310657596372	47.41437641723356	62	127
47.41437641723356	47.542086167800456	60	127
47.542086167800456	47.68140589569161	59	127
47.68140589569161	47.76267573696145	62	127
47.76267573696145	47.87877551020408	59	127
47.87877551020408	47.99487528344671	57	127
47.99487528344671	48.09936507936508	56	127
48.09936507936508	48.22707482993197	59	127
48.22707482993197	48.37800453514739	62	127
48.37800453514739	48.505714285714284	68	127
48.505714285714284	48.70308390022676	71	127
48.70308390022676	48.900453514739226	74	127
48.900453514739226	49.57383219954649	69	127
48.900453514739226	49.30680272108844	77	127
48.900453514739226	49.57383219954649	64	127
48.900453514739226	49.57383219954649	52	127
48.900453514739226	49.57383219954649	48	127
49.30680272108844	49.829251700680274	76	127
49.840861678004536	53.17292517006803	76	127
50.39814058956916	50.816099773242634	69	127
50.816099773242634	50.94380952380953	71	127
50.94380952380953	51.38498866213152	72	127
51.39659863945578	51.640408163265306	71	127
51.640408163265306	51.77972789115646	69	127
51.791337868480724	52.348616780045354	69	127
52.348616780045354	53.997233560090706	68	127
53.17292517006803	53.45156462585034	75	127
53.45156462585034	53.997233560090706	56	127
53.45156462585034	53.997233560090706	52	127
53.45156462585034	53.62571428571429	74	127
53.62571428571429	53.81147392290249	72	127
53.81147392290249	53.997233560090706	71	127
53.997233560090706	54.51968253968254	71	127
53.997233560090706	56.05219954648526	53	127
53.997233560090706	55.00730158730159	57	127
54.51968253968254	54.8795918367347	69	127
54.8795918367347	55.01891156462585	71	127
55.01891156462585	55.47170068027211	72	127
55.01891156462585	56.05219954648526	63	127
55.47170068027211	55.901269841269844	71	127
55.901269841269844	56.05219954648526	69	127
56.05219954648526	56.62108843537415	69	127
56.05219954648526	58.10716553287982	59	127
56.05219954648526	58.10716553287982	52	127
56.63269841269841	57.58471655328798	68	127
57.58471655328798	57.96784580498866	65	127
57.96784580498866	58.10716553287982	64	127
58.11877551020408	60.01120181405896	62	127
58.11877551020408	60.01120181405896	59	127
58.11877551020408	58.61800453514739	64	127
58.11877551020408	60.01120181405896	44	127
58.11877551020408	60.53365079365079	52	127
58.629614512471655	58.966303854875285	65	127
58.966303854875285	59.070793650793654	64	127
59.070793650793654	59.52358276643991	64	127
59.53519274376417	59.88349206349206	74	127
59.88349206349206	60.02281179138322	71	127
60.02281179138322	60.53365079365079	74	127
60.02281179138322	61.636598639455784	45	127
60.02281179138322	61.636598639455784	60	127
60.53365079365079	61.636598639455784	72	127
60.53365079365079	60.99804988662132	59	127
60.99804988662132	61.11414965986395	56	127
61.11414965986395	61.636598639455784	59	127
61.648208616780046	62.62344671201814	57	127
61.648208616780046	62.15904761904762	47	127
61.648208616780046	62.019727891156464	77	127
62.019727891156464	62.15904761904762	75	127
62.15904761904762	62.62344671201814	77	127
62.15904761904762	62.62344671201814	48	127
62.635056689342406	63.447755102040816	60	127
62.635056689342406	63.447755102040816	76	127
62.635056689342406	63.447755102040816	64	127
62.635056689342406	62.902086167800455	70	127
62.902086167800455	63.02979591836735	68	127
63.02979591836735	63.447755102040816	70	127
63.447755102040816	63.935374149659864	60	127
63.447755102040816	63.79605442176871	81	127
63.447755102040816	63.935374149659864	69	127
63.447755102040816	63.935374149659864	64	127
63.79605442176871	63.94698412698413	76	127
63.94698412698413	65.2124716553288	62	127
63.94698412698413	64.42299319727891	79	127
64.42299319727891	65.0847619047619	77	127
64.42299319727891	64.66680272108843	69	127
64.66680272108843	64.8061224489796	64	127
64.8061224489796	65.2124716553288	67	127
65.0847619047619	65.2124716553288	74	127
65.22408163265307	66.26897959183674	62	127
65.22408163265307	65.64204081632653	74	127
65.22408163265307	65.64204081632653	62	127
65.22408163265307	66.26897959183674	65	127
65.22408163265307	66.26897959183674	58	127
65.64204081632653	65.76975056689342	70	127
65.64204081632653	65.76975056689342	58	127
65.76975056689342	66.17609977324263	58	127
65.76975056689342	66.17609977324263	70	127
66.17609977324263	66.26897959183674	53	127
66.17609977324263	66.26897959183674	65	127
66.26897959183674	66.57083900226758	53	127
66.26897959183674	66.57083900226758	53	127
66.26897959183674	66.57083900226758	65	127
66.57083900226758	66.67532879818594	50	127
66.57083900226758	66.67532879818594	50	127
66.57083900226758	66.67532879818594	62	127
66.6869387755102	67.0352380952381	50	127
66.6869387755102	67.0352380952381	50	127
66.6869387755102	67.0352380952381	62	127
67.0352380952381	67.15133786848072	58	127
67.0352380952381	67.15133786848072	58	127
67.0352380952381	67.15133786848072	46	127
67.162947845805	67.51124716553288	46	127
67.162947845805	67.51124716553288	58	127
67.162947845805	67.51124716553288	58	127
67.51124716553288	67.65056689342404	45	127
67.51124716553288	67.65056689342404	57	127
67.51124716553288	67.65056689342404	57	127
67.65056689342404	67.95242630385488	56	127
67.65056689342404	67.95242630385488	44	127
67.65056689342404	67.95242630385488	56	127
68.09174603174603	68.45165532879818	73	127
68.09174603174603	68.45165532879818	55	127
68.09174603174603	68.45165532879818	43	127
68.09174603174603	68.45165532879818	57	127
68.09174603174603	68.45165532879818	76	127
68.62578231292517	69.03215419501134	54	127
68.62578231292517	69.03215419501134	69	127
68.62578231292517	69.03215419501134	74	127
68.62578231292517	69.03215419501134	42	127
69.22952380952381	69.65909297052154	41	127
69.22952380952381	69.53138321995465	81	127
69.22952380952381	69.65909297052154	63	127
69.22952380952381	69.65909297052154	69	127
69.22952380952381	69.65909297052154	53	127
69.22952380952381	69.65909297052154	57	127
69.54299319727892	70.04222222222222	83	127
70.06544217687075	71.2844671201814	84	127
70.06544217687075	74.72104308390023	64	127
70.06544217687075	74.72104308390023	60	127
70.06544217687075	74.72104308390023	40	127
70.06544217687075	74.72104308390023	57	127
71.29609977324263	72.3409977324263	76	127
72.36421768707483	73.39750566893424	81	127
73.4091156462585	73.93156462585034	76	127
73.94315192743764	74.72104308390023	72	127
74.7326530612245	75.27832199546485	64	127
74.7326530612245	75.27832199546485	52	127
74.7326530612245	75.27832199546485	56	127
74.7326530612245	74.90680272108844	71	127
74.90680272108844	75.04612244897959	69	127
75.04612244897959	75.17383219954648	68	127
75.17383219954648	75.28993197278912	71	127
75.28993197278912	75.39442176870749	65	127
75.39442176870749	75.49891156462586	64	127
75.49891156462586	75.61501133786848	62	127
75.61501133786848	75.73108843537415	65	127
75.73108843537415	75.94009070294784	62	127
75.94009070294784	76.05619047619048	60	127
76.05619047619048	76.16068027210885	59	127
76.16068027210885	76.27678004535147	62	127
76.27678004535147	76.39287981859411	65	127
76.39287981859411	76.49734693877551	68	127
76.49734693877551	76.6134693877551	71	127
76.6134693877551	76.7527664399093	74	127
76.7527664399093	78.55233560090703	77	127
77.15913832199547	77.53065759637188	57	127
77.15913832199547	77.53065759637188	45	127
77.53065759637188	77.66997732426304	59	127
77.53065759637188	77.66997732426304	47	127
77.66997732426304	78.18081632653062	48	127
77.66997732426304	78.18081632653062	60	127
78.19242630385487	78.48267573696145	47	127
78.19242630385487	78.48267573696145	59	127
78.48267573696145	78.55233560090703	57	127
78.48267573696145	78.55233560090703	45	127
78.55233560090703	79.08639455782313	45	127
78.55233560090703	80.32866213151928	76	127
78.55233560090703	79.08639455782313	57	127
79.08639455782313	80.32866213151928	56	127
79.08639455782313	80.32866213151928	44	127
79.79458049886621	80.21256235827664	53	127
80.21256235827664	80.32866213151928	52	127
80.34027210884354	82.38362811791383	56	127
80.34027210884354	80.86272108843538	52	127
80.87433106575963	81.24585034013606	53	127
81.24585034013606	81.3271201814059	52	127
81.33873015873016	81.83795918367348	52	127
81.83795918367348	82.25591836734694	62	127
82.25591836734694	82.38362811791383	59	127
82.38362811791383	82.83639455782313	62	127
82.38362811791383	83.80004535147393	57	127
82.83639455782313	83.80004535147393	60	127
83.81165532879818	84.28766439909298	59	127
83.81165532879818	84.15995464852608	65	127
83.81165532879818	84.8101133786848	69	127
84.15995464852608	84.28766439909298	63	127
84.29927437641723	85.62278911564626	60	127
84.29927437641723	84.8101133786848	65	127
84.8101133786848	86.14526077097506	64	127
84.8101133786848	85.05392290249434	70	127
85.05392290249434	85.17002267573696	68	127
85.17002267573696	85.62278911564626	70	127
85.62278911564626	86.00591836734694	81	127
85.62278911564626	86.14526077097506	69	127
85.62278911564626	86.14526077097506	61	127
86.00591836734694	86.14526077097506	76	127
86.15687074829933	86.60965986394558	79	127
86.15687074829933	87.51521541950113	62	127
86.15687074829933	87.01600907029479	69	127
86.62124716553288	86.94634920634921	69	127
86.62124716553288	87.01600907029479	77	127
86.94634920634921	87.01600907029479	64	127
87.02759637188208	88.0260544217687	70	127
87.02759637188208	87.37591836734694	82	127
87.02759637188208	87.37591836734694	67	127
87.37591836734694	87.51521541950113	65	127
87.37591836734694	87.51521541950113	77	127
87.51521541950113	88.0260544217687	59	127
87.51521541950113	88.0260544217687	62	127
87.51521541950113	87.88675736961451	65	127
87.51521541950113	87.88675736961451	77	127
87.88675736961451	88.0260544217687	74	127
87.88675736961451	88.0260544217687	62	127
88.0260544217687	88.35115646258504	74	127
88.0260544217687	88.35115646258504	62	127
88.0260544217687	88.35115646258504	50	127
88.35115646258504	88.47886621315193	46	127
88.35115646258504	88.47886621315193	70	127
88.35115646258504	88.47886621315193	58	127
88.49047619047619	88.78072562358277	46	127
88.49047619047619	88.78072562358277	70	127
88.49047619047619	88.78072562358277	58	127
88.78072562358277	88.86199546485261	65	127
88.78072562358277	88.86199546485261	53	127
88.78072562358277	88.86199546485261	41	127
88.87360544217687	89.17544217687075	41	127
88.87360544217687	89.17544217687075	65	127
88.87360544217687	89.17544217687075	53	127
89.17544217687075	89.29156462585034	62	127
89.17544217687075	89.29156462585034	38	127
89.17544217687075	89.29156462585034	50	127
89.30315192743764	89.69791383219955	38	127
89.30315192743764	89.69791383219955	62	127
89.30315192743764	89.69791383219955	50	127
89.69791383219955	89.82562358276644	37	127
89.69791383219955	89.82562358276644	58	127
89.69791383219955	89.82562358276644	58	127
89.83723356009071	91.77609977324263	58	127
89.83723356009071	91.77609977324263	37	127
89.83723356009071	90.38290249433106	58	127
89.83723356009071	90.38290249433106	49	127
90.39451247165533	90.76603174603174	55	127
90.76603174603174	90.89374149659864	56	127
90.89374149659864	91.31170068027211	58	127
91.31170068027211	91.64839002267574	55	127
91.64839002267574	91.77609977324263	53	127
91.77609977324263	92.28693877551021	53	127
91.77609977324263	92.28693877551021	58	127
91.77609977324263	93.74977324263038	36	127
92.28693877551021	92.64684807256236	67	127
92.28693877551021	93.74977324263038	52	127
92.64684807256236	92.73972789115646	68	127
92.73972789115646	93.21571428571428	70	127
93.21571428571428	93.63369614512472	67	127
93.63369614512472	93.74977324263038	65	127
93.74977324263038	94.19097505668934	58	127
93.74977324263038	94.19097505668934	65	127
93.74977324263038	95.63061224489796	37	127
94.19097505668934	95.14299319727891	64	127
94.19097505668934	94.56249433106576	67	127
94.19097505668934	94.56249433106576	55	127
94.56249433106576	94.66698412698413	56	127
94.56249433106576	94.66698412698413	68	127
94.66698412698413	95.14299319727891	70	127
94.66698412698413	95.14299319727891	58	127
95.15460317460318	95.63061224489796	70	127
95.15460317460318	95.52612244897959	67	127
95.15460317460318	95.52612244897959	55	127
95.52612244897959	95.63061224489796	65	127
95.52612244897959	95.63061224489796	53	127
95.64222222222222	96.12984126984126	53	127
95.64222222222222	96.12984126984126	65	127
95.64222222222222	96.12984126984126	82	127
95.64222222222222	97.13990929705216	36	127
96.14145124716553	97.13990929705216	64	127
96.14145124716553	96.48975056689342	79	127
96.14145124716553	97.13990929705216	52	127
96.48975056689342	96.61746031746031	80	127
96.61746031746031	97.13990929705216	82	127
97.13990929705216	97.70879818594105	60	127
97.13990929705216	97.70879818594105	67	127
97.13990929705216	97.70879818594105	64	127
97.13990929705216	97.56947845804989	79	127
97.56947845804989	97.70879818594105	77	127
97.7204081632653	98.12675736961451	77	127
98.12675736961451	98.59115646258503	64	127
98.12675736961451	98.48666666666666	76	127
98.12675736961451	98.59115646258503	67	127
98.12675736961451	98.59115646258503	60	127
98.48666666666666	98.59115646258503	71	127
98.6027664399093	99.03233560090703	71	127
99.03233560090703	99.45029478458049	52	127
99.03233560090703	99.45029478458049	67	127
99.03233560090703	99.45029478458049	60	127
99.03233560090703	99.34580498866214	72	127
99.34580498866214	99.45029478458049	70	127
99.46190476190476	99.99596371882086	70	127
99.99596371882086	100.48358276643991	60	127
99.99596371882086	100.36748299319729	69	127
99.99596371882086	100.48358276643991	69	127
99.99596371882086	100.48358276643991	53	127
100.36748299319729	100.48358276643991	81	127
100.49519274376418	100.93637188208616	81	127
100.93637188208616	101.24984126984127	79	127
100.93637188208616	101.37755102040816	45	127
100.93637188208616	101.37755102040816	60	127
100.93637188208616	101.37755102040816	65	127
101.24984126984127	101.37755102040816	77	127
101.37755102040816	101.5517006802721	77	127
101.5517006802721	101.74907029478459	76	127
101.74907029478459	101.93482993197279	77	127
101.93482993197279	102.38761904761905	48	127
101.93482993197279	102.09736961451247	78	127
101.93482993197279	102.38761904761905	60	127
101.93482993197279	102.38761904761905	64	127
101.93482993197279	102.38761904761905	55	127
102.09736961451247	102.22507936507937	79	127
102.22507936507937	102.38761904761905	71	127
102.38761904761905	102.55015873015873	74	127
102.55015873015873	102.72430839002267	72	127
102.72430839002267	102.79396825396826	71	127
102.79396825396826	102.91006802721088	72	127
102.79396825396826	103.16548752834467	67	127
102.79396825396826	103.16548752834467	72	127
102.79396825396826	103.16548752834467	64	127
102.91006802721088	102.99133786848073	74	127
102.99133786848073	103.16548752834467	70	127
103.16548752834467	103.29319727891156	70	127
103.29319727891156	103.39768707482993	69	127
103.39768707482993	103.52539682539683	68	127
103.52539682539683	103.6298866213152	69	127
103.6298866213152	104.05945578231292	72	127
103.6298866213152	103.75759637188209	70	127
103.6298866213152	104.05945578231292	69	127
103.6298866213152	104.05945578231292	65	127
103.75759637188209	103.85047619047619	71	127
103.85047619047619	103.97818594104308	72	127
103.97818594104308	104.05945578231292	73	127
104.05945578231292	104.18716553287982	74	127
104.18716553287982	104.31487528344671	75	127
104.31487528344671	104.43097505668935	76	127
104.43097505668935	104.55868480725624	77	127
104.55868480725624	105.02308390022675	72	127
104.55868480725624	104.67478458049887	79	127
104.55868480725624	105.02308390022675	65	127
104.55868480725624	105.02308390022675	57	127
104.67478458049887	104.79088435374149	81	127
104.79088435374149	104.91859410430838	79	127
104.91859410430838	105.02308390022675	77	127
105.02308390022675	105.22045351473923	58	127
105.02308390022675	105.16240362811791	77	127
105.02308390022675	105.16240362811791	65	127
105.02308390022675	105.16240362811791	62	127
105.16240362811791	105.29011337868481	76	127
105.16240362811791	105.29011337868481	61	127
105.16240362811791	105.29011337868481	64	127
105.29011337868481	105.4178231292517	77	127
105.29011337868481	105.4178231292517	65	127
105.29011337868481	105.47587301587302	46	127
105.29011337868481	105.4178231292517	62	127
105.4178231292517	105.5455328798186	58	127
105.4178231292517	105.5455328798186	74	127
105.4178231292517	105.5455328798186	62	127
105.5455328798186	105.71968253968254	58	127
105.5455328798186	105.71968253968254	74	127
105.5455328798186	105.71968253968254	62	127
105.5455328798186	105.71968253968254	58	127
105.78934240362811	105.94027210884354	43	127
105.78934240362811	105.94027210884354	74	127
105.78934240362811	105.94027210884354	62	127
105.78934240362811	105.94027210884354	58	127
105.96349206349207	106.07959183673469	58	127
105.96349206349207	106.07959183673469	74	127
105.96349206349207	106.07959183673469	62	127
105.96349206349207	106.12603174603174	55	127
106.07959183673469	106.14925170068027	73	127
106.07959183673469	106.14925170068027	61	127
106.07959183673469	106.14925170068027	57	127
106.14925170068027	106.25374149659864	74	127
106.14925170068027	106.31179138321995	43	127
106.14925170068027	106.25374149659864	62	127
106.14925170068027	106.25374149659864	58	127
106.25374149659864	106.36984126984127	58	127
106.25374149659864	106.36984126984127	70	127
106.25374149659864	106.36984126984127	55	127
106.36984126984127	106.53238095238095	82	127
106.36984126984127	106.53238095238095	55	127
106.36984126984127	106.53238095238095	55	127
106.36984126984127	106.53238095238095	58	127
106.60204081632654	106.77619047619048	82	127
106.60204081632654	106.77619047619048	40	127
106.60204081632654	106.77619047619048	55	127
106.60204081632654	106.77619047619048	70	127
106.84585034013605	106.95034013605442	55	127
106.84585034013605	106.95034013605442	82	127
106.84585034013605	106.95034013605442	70	127
106.84585034013605	106.99678004535147	48	127
106.95034013605442	107.03160997732427	81	127
106.95034013605442	107.03160997732427	69	127
106.95034013605442	107.03160997732427	54	127
107.03160997732427	107.12448979591836	82	127
107.03160997732427	107.17092970521541	36	127
107.03160997732427	107.12448979591836	70	127
107.03160997732427	107.12448979591836	55	127
107.12448979591836	107.240589569161	52	127
107.12448979591836	107.240589569161	79	127
107.12448979591836	107.240589569161	67	127
107.240589569161	107.41473922902495	48	127
107.240589569161	107.41473922902495	79	127
107.240589569161	107.41473922902495	67	127
107.240589569161	107.41473922902495	52	127
107.48439909297052	107.65854875283446	48	127
107.48439909297052	107.65854875283446	79	127
107.48439909297052	107.65854875283446	67	127
107.48439909297052	107.65854875283446	52	127
107.72820861678005	107.84430839002268	79	127
107.72820861678005	107.84430839002268	67	127
107.72820861678005	107.84430839002268	52	127
107.72820861678005	107.902358276644	48	127
107.84430839002268	107.97201814058957	51	127
107.84430839002268	107.97201814058957	66	127
107.84430839002268	107.97201814058957	78	127
107.97201814058957	108.09972789115646	79	127
107.97201814058957	108.09972789115646	67	127
107.97201814058957	108.14616780045351	36	127
107.97201814058957	108.09972789115646	52	127
108.09972789115646	108.19260770975056	48	127
108.09972789115646	108.19260770975056	76	127
108.09972789115646	108.19260770975056	64	127
108.19260770975056	108.36675736961452	76	127
108.19260770975056	108.36675736961452	64	127
108.19260770975056	108.36675736961452	48	127
108.19260770975056	108.36675736961452	48	127
108.43641723356009	108.63378684807256	86	127
108.43641723356009	108.63378684807256	46	127
108.43641723356009	108.63378684807256	58	127
108.43641723356009	108.63378684807256	67	127
108.69183673469388	108.97047619047619	58	127
108.69183673469388	108.97047619047619	86	127
108.69183673469388	108.97047619047619	67	127
108.69183673469388	108.97047619047619	62	127
109.2839455782313	109.58580498866213	64	127
109.2839455782313	111.89619047619047	57	127
109.2839455782313	109.58580498866213	88	127
109.2839455782313	109.58580498866213	61	127
109.72512471655328	109.87605442176871	64	127
109.87605442176871	110.2243537414966	69	127
110.39850340136054	110.77002267573697	69	127
110.96739229024944	111.75687074829932	69	127
111.76848072562358	111.89619047619047	67	127
111.89619047619047	112.0471201814059	65	127
111.89619047619047	112.05873015873016	57	127
111.89619047619047	112.05873015873016	65	127
112.05873015873016	112.38380952380952	70	127
112.05873015873016	112.38380952380952	62	127
112.05873015873016	113.95115646258503	57	127
112.05873015873016	112.2328798185941	65	127
112.30253968253969	112.48829931972789	65	127
112.56956916099773	112.69727891156462	65	127
112.56956916099773	112.91786848072563	62	127
112.56956916099773	112.91786848072563	70	127
112.69727891156462	112.83659863945579	67	127
112.83659863945579	113.09201814058957	65	127
113.10362811791383	113.60285714285715	65	127
113.10362811791383	113.60285714285715	62	127
113.10362811791383	113.85827664399093	70	127
113.60285714285715	114.0208163265306	61	127
113.60285714285715	113.85827664399093	64	127
113.85827664399093	113.9627664399093	69	127
113.9627664399093	114.0208163265306	67	127
113.9627664399093	114.0208163265306	64	127
113.9627664399093	114.0208163265306	76	127
114.0208163265306	114.20657596371882	64	127
114.0208163265306	114.20657596371882	67	127
114.0208163265306	114.3691156462585	73	127
114.0208163265306	114.3691156462585	81	127
114.2762358276644	114.47360544217688	64	127
114.2762358276644	114.47360544217688	67	127
114.54326530612245	114.6825850340136	64	127
114.54326530612245	114.81029478458049	73	127
114.54326530612245	114.86834467120181	81	127
114.54326530612245	114.6825850340136	67	127
114.6825850340136	114.81029478458049	65	127
114.6825850340136	114.81029478458049	69	127
114.81029478458049	115.04249433106575	67	127
114.81029478458049	115.04249433106575	64	127
114.91478458049886	115.04249433106575	69	127
115.04249433106575	115.36757369614513	74	127
115.04249433106575	115.70426303854876	81	127
115.04249433106575	115.49528344671202	64	127
115.04249433106575	115.49528344671202	67	127
115.49528344671202	115.95968253968255	65	127
115.49528344671202	115.95968253968255	62	127
115.49528344671202	115.78553287981859	74	127
115.71587301587302	115.83197278911565	79	127
115.83197278911565	115.95968253968255	77	127
115.9712925170068	116.16866213151927	74	127
115.9712925170068	116.16866213151927	77	127
115.9712925170068	116.16866213151927	58	127
115.9712925170068	116.31959183673469	55	127
116.23832199546486	116.44730158730158	77	127
116.23832199546486	116.44730158730158	70	127
116.23832199546486	116.44730158730158	74	127
116.51696145124717	116.64467120181406	77	127
116.51696145124717	116.88848072562358	55	127
116.51696145124717	116.64467120181406	70	127
116.51696145124717	116.64467120181406	74	127
116.64467120181406	116.78399092970521	79	127
116.64467120181406	116.78399092970521	69	127
116.64467120181406	116.78399092970521	72	127
116.78399092970521	117.09746031746032	74	127
116.78399092970521	117.09746031746032	70	127
116.78399092970521	117.09746031746032	77	127
117.09746031746032	117.50380952380952	77	127
117.09746031746032	117.37609977324263	72	127
117.09746031746032	117.37609977324263	55	127
117.09746031746032	117.37609977324263	48	127
117.37609977324263	117.63151927437642	58	127
117.37609977324263	117.63151927437642	67	127
117.37609977324263	117.63151927437642	48	127
117.50380952380952	117.63151927437642	75	127
117.64312925170069	118.06108843537415	76	127
117.64312925170069	117.89854875283447	72	127
117.64312925170069	117.89854875283447	67	127
117.64312925170069	117.89854875283447	48	127
117.89854875283447	118.20040816326531	58	127
117.89854875283447	118.20040816326531	60	127
117.89854875283447	118.20040816326531	67	127
118.06108843537415	118.20040816326531	79	127
118.20040816326531	118.59514739229024	79	127
118.20040816326531	118.4558276643991	72	127
118.20040816326531	118.4558276643991	65	127
118.20040816326531	118.4558276643991	48	127
118.4558276643991	118.7344671201814	57	127
118.4558276643991	118.7344671201814	65	127
118.4558276643991	118.7344671201814	60	127
118.59514739229024	118.7344671201814	77	127
118.74607709750566	119.01310657596372	72	127
118.74607709750566	119.14081632653061	77	127
118.74607709750566	119.01310657596372	48	127
118.74607709750566	119.01310657596372	69	127
119.01310657596372	119.2685260770975	57	127
119.01310657596372	119.2685260770975	60	127
119.01310657596372	119.2685260770975	57	127
119.14081632653061	119.2685260770975	78	127
119.2685260770975	119.65165532879818	78	127
119.2685260770975	119.51233560090704	48	127
119.2685260770975	119.51233560090704	72	127
119.2685260770975	119.51233560090704	67	127
119.51233560090704	119.76775510204082	67	127
119.51233560090704	119.76775510204082	60	127
119.51233560090704	119.76775510204082	52	127
119.65165532879818	119.76775510204082	79	127
119.77936507936508	120.02317460317461	67	127
119.77936507936508	120.1508843537415	79	127
119.77936507936508	120.02317460317461	48	127
119.77936507936508	120.02317460317461	60	127
120.02317460317461	120.2785941043084	55	127
120.02317460317461	120.2785941043084	52	127
120.02317460317461	120.2785941043084	60	127
120.1508843537415	120.2785941043084	80	127
120.2785941043084	120.65011337868481	80	127
120.2785941043084	120.52240362811791	65	127
120.2785941043084	120.52240362811791	60	127
120.2785941043084	120.52240362811791	48	127
120.52240362811791	120.76621315192743	53	127
120.52240362811791	120.76621315192743	60	127
120.52240362811791	120.76621315192743	53	127
120.65011337868481	120.76621315192743	81	127
120.7778231292517	121.16095238095238	81	127
120.7778231292517	121.03324263038549	69	127
120.7778231292517	121.03324263038549	65	127
120.7778231292517	121.03324263038549	51	127
121.03324263038549	121.28866213151927	65	127
121.03324263038549	121.28866213151927	57	127
121.03324263038549	121.28866213151927	53	127
121.16095238095238	121.28866213151927	82	127
121.28866213151927	121.68340136054422	82	127
121.28866213151927	121.55569160997733	70	127
121.28866213151927	121.55569160997733	65	127
121.28866213151927	121.55569160997733	50	127
121.55569160997733	121.79950113378685	62	127
121.55569160997733	121.79950113378685	65	127
121.55569160997733	121.79950113378685	53	127
121.68340136054422	121.79950113378685	83	127
121.81111111111112	122.11297052154195	72	127
121.81111111111112	122.2522902494331	83	127
121.81111111111112	122.11297052154195	45	127
121.81111111111112	122.11297052154195	65	127
122.11297052154195	122.38	53	127
122.11297052154195	122.38	65	127
122.11297052154195	122.38	60	127
122.2522902494331	122.38	84	127
122.39160997732426	122.67024943310658	70	127
122.39160997732426	122.79795918367347	84	127
122.39160997732426	122.67024943310658	46	127
122.39160997732426	122.67024943310658	65	127
122.67024943310658	122.92566893424036	53	127
122.67024943310658	122.92566893424036	58	127
122.67024943310658	122.92566893424036	65	127
122.79795918367347	122.92566893424036	85	127
122.92566893424036	123.29718820861677	85	127
122.92566893424036	123.18108843537415	65	127
122.92566893424036	123.18108843537415	58	127
122.92566893424036	123.18108843537415	46	127
123.18108843537415	123.42489795918367	58	127
123.18108843537415	123.42489795918367	53	127
123.18108843537415	123.42489795918367	53	127
123.29718820861677	123.42489795918367	86	127
123.43650793650794	123.78480725623582	65	127
123.43650793650794	123.92412698412699	86	127
123.43650793650794	123.78480725623582	46	127
123.43650793650794	123.78480725623582	62	127
123.78480725623582	124.05183673469388	53	127
123.78480725623582	124.05183673469388	62	127
123.78480725623582	124.05183673469388	53	127
123.92412698412699	124.05183673469388	88	127
124.05183673469388	124.63233560090703	88	127
124.05183673469388	124.35369614512472	67	127
124.05183673469388	124.35369614512472	62	127
124.05183673469388	124.35369614512472	47	127
124.35369614512472	124.74843537414966	62	127
124.35369614512472	124.74843537414966	55	127
124.35369614512472	124.74843537414966	55	127
124.63233560090703	124.74843537414966	89	127
124.76004535147392	125.20122448979592	69	127
124.76004535147392	125.20122448979592	65	127
124.76004535147392	125.20122448979592	48	127
124.76004535147392	125.34054421768707	89	127
125.20122448979592	125.51469387755103	57	127
125.20122448979592	125.51469387755103	57	127
125.20122448979592	125.51469387755103	65	127
125.34054421768707	125.51469387755103	77	127
125.52630385487528	126.06036281179138	81	127
125.52630385487528	125.87460317460318	64	127
125.52630385487528	125.87460317460318	58	127
125.52630385487528	125.87460317460318	48	127
125.87460317460318	126.29256235827664	52	127
125.87460317460318	126.29256235827664	55	127
125.87460317460318	126.29256235827664	58	127
126.06036281179138	126.29256235827664	79	127
126.30417233560091	127.30263038548753	41	127
126.60603174603175	127.01238095238095	50	127
127.02399092970522	127.30263038548753	48	127
127.31424036281179	127.9063492063492	57	127
127.51160997732427	127.72058956916099	50	127
127.74380952380952	127.9063492063492	48	127
127.9063492063492	128.53328798185942	41	127
128.13854875283448	128.35913832199546	50	127
128.2894784580499	128.53328798185942	65	127
128.37074829931973	128.53328798185942	48	127
128.53328798185942	129.05573696145126	57	127
128.53328798185942	128.8119274376417	67	127
128.71904761904761	128.8815873015873	50	127
128.8119274376417	129.05573696145126	69	127
128.89319727891157	129.05573696145126	48	127
129.05573696145126	129.53174603174602	40	127
129.05573696145126	129.91487528344672	70	127
129.21825396825398	129.3575963718821	50	127
129.29954648526078	129.53174603174602	79	127
129.3691836734694	129.53174603174602	48	127
129.53174603174602	130.0425850340136	60	127
129.53174603174602	129.7871655328798	81	127
129.70589569160998	129.8568253968254	50	127
129.7871655328798	130.0425850340136	82	127
129.86843537414967	130.0425850340136	48	127
129.91487528344672	130.0425850340136	69	127
130.0425850340136	130.47215419501134	67	127
130.0425850340136	130.54179138321996	40	127
130.21673469387756	130.37927437641724	50	127
130.37927437641724	130.54179138321996	48	127
130.54179138321996	131.08748299319728	60	127
130.54179138321996	131.0178231292517	67	127
130.71596371882086	130.9017006802721	50	127
130.9017006802721	131.08748299319728	48	127
131.08748299319728	131.60993197278913	70	127
131.08748299319728	131.60993197278913	41	127
131.26160997732427	131.44739229024944	50	127
131.35451247165534	131.60993197278913	79	127
131.44739229024944	131.60993197278913	48	127
131.60993197278913	131.8653514739229	81	127
131.60993197278913	132.10916099773243	60	127
131.60993197278913	131.8653514739229	69	127
131.78408163265306	131.94662131519274	50	127
131.8653514739229	132.1207709750567	67	127
131.8653514739229	132.10916099773243	82	127
131.94662131519274	132.10916099773243	48	127
132.1207709750567	132.63160997732427	41	127
132.1207709750567	132.63160997732427	65	127
132.28328798185942	132.45746031746032	50	127
132.45746031746032	132.63160997732427	48	127
132.64319727891157	132.89861678004536	67	127
132.64319727891157	133.14244897959185	81	127
132.64319727891157	133.14244897959185	57	127
132.81736961451247	132.97990929705216	50	127
132.89861678004536	133.14244897959185	69	127
132.97990929705216	133.14244897959185	48	127
133.15403628117915	133.6881179138322	43	127
133.15403628117915	133.943537414966	67	127
133.30496598639456	133.4675283446712	50	127
133.4675283446712	133.6881179138322	48	127
133.69972789115647	134.1873469387755	55	127
133.8738775510204	134.02480725623582	50	127
133.943537414966	134.1873469387755	64	127
134.02480725623582	134.1873469387755	48	127
134.19895691609977	134.91877551020409	65	127
134.19895691609977	134.65174603174603	43	127
134.3498866213152	134.4775963718821	50	127
134.4775963718821	134.65174603174603	48	127
134.83748299319728	135.00004535147391	52	127
134.91877551020409	135.17419501133787	59	127
135.01165532879818	135.17419501133787	50	127
135.18580498866214	135.68503401360545	60	127
135.18580498866214	135.68503401360545	48	127
135.3251247165533	135.48766439909298	53	127
135.40639455782312	135.68503401360545	71	127
135.49927437641725	135.68503401360545	52	127
135.68503401360545	136.19587301587302	60	127
135.68503401360545	135.94045351473923	72	127
135.84757369614513	136.01011337868482	57	127
135.94045351473923	136.19587301587302	76	127
136.02172335600906	136.19587301587302	55	127
136.19587301587302	136.69510204081632	48	127
136.19587301587302	136.42807256235827	79	127
136.3584126984127	136.50934240362812	57	127
136.42807256235827	136.7067120181406	83	127
136.5209523809524	136.69510204081632	55	127
136.7067120181406	136.97374149659865	84	127
136.7067120181406	137.26399092970522	64	127
136.88083900226758	137.06662131519275	48	127
136.97374149659865	137.26399092970522	86	127
137.06662131519275	137.26399092970522	46	127
137.26399092970522	137.79804988662133	45	127
137.26399092970522	138.22761904761904	87	127
137.43814058956917	137.6122902494331	67	127
137.62390022675737	137.79804988662133	65	127
137.79804988662133	138.34371882086168	72	127
138.0186394557823	138.181179138322	55	127
138.181179138322	138.34371882086168	53	127
138.22761904761904	138.34371882086168	86	127
138.34371882086168	138.84294784580499	45	127
138.34371882086168	139.4002267573696	65	127
138.34371882086168	138.77326530612245	85	127
138.51784580498867	138.6804081632653	58	127
138.6804081632653	138.84294784580499	57	127
138.84294784580499	139.33056689342405	85	127
138.84294784580499	139.4002267573696	65	127
139.07514739229026	139.23766439909298	55	127
139.23766439909298	139.4002267573696	53	127
139.4002267573696	140.42190476190476	58	127
139.4002267573696	139.92267573696145	46	127
139.4002267573696	139.92267573696145	87	127
139.57437641723357	139.74850340136055	60	127
139.74850340136055	139.92267573696145	58	127
139.93428571428572	140.17809523809524	86	127
139.93428571428572	140.42190476190476	65	127
140.0968253968254	140.25934240362812	55	127
140.17809523809524	140.43351473922903	84	127
140.25934240362812	140.42190476190476	53	127
140.43351473922903	140.97918367346938	82	127
140.43351473922903	141.49002267573695	74	127
140.43351473922903	140.97918367346938	46	127
140.60766439909298	140.79342403628118	60	127
140.79342403628118	140.97918367346938	58	127
140.99079365079365	141.49002267573695	65	127
140.99079365079365	141.23460317460317	84	127
141.15333333333334	141.32746031746032	55	127
141.23460317460317	141.49002267573695	86	127
141.32746031746032	141.49002267573695	53	127
141.50163265306122	142.26789115646258	84	127
141.50163265306122	142.0124716553288	48	127
141.68736961451248	141.8499319727891	58	127
141.78027210884355	141.89637188208616	67	127
141.8499319727891	142.0124716553288	57	127
141.89637188208616	142.02408163265306	65	127
142.02408163265306	142.5117006802721	65	127
142.02408163265306	142.151768707483	64	127
142.151768707483	142.26789115646258	65	127
142.18662131519275	142.34916099773244	55	127
142.26789115646258	142.3956009070295	67	127
142.26789115646258	142.52331065759637	81	127
142.36077097505668	142.5117006802721	53	127
142.3956009070295	142.52331065759637	65	127
142.52331065759637	143.27795918367346	82	127
142.52331065759637	143.02253968253967	48	127
142.68585034013606	142.84839002267574	60	127
142.7671201814059	142.8948299319728	65	127
142.86	143.02253968253967	58	127
142.8948299319728	143.03414965986394	64	127
143.03414965986394	143.16185941043085	62	127
143.03414965986394	143.56820861678005	67	127
143.03414965986394	143.56820861678005	58	127
143.16185941043085	143.27795918367346	64	127
143.19668934240363	143.35922902494332	57	127
143.27795918367346	143.40566893424037	65	127
143.27795918367346	143.56820861678005	76	127
143.3708390022676	143.56820861678005	55	127
143.40566893424037	143.56820861678005	64	127
143.56820861678005	144.41573696145124	48	127
143.74235827664398	143.90489795918367	74	127
143.83521541950114	143.962947845805	79	127
143.91650793650794	144.10226757369614	72	127
143.962947845805	144.10226757369614	77	127
144.10226757369614	144.69437641723357	65	127
144.10226757369614	144.24156462585034	76	127
144.24156462585034	144.41573696145124	77	127
144.2764172335601	144.49698412698413	62	127
144.41573696145124	144.54344671201815	79	127
144.41573696145124	144.69437641723357	45	127
144.50861678004534	144.69437641723357	60	127
144.54344671201815	144.69437641723357	77	127
144.69437641723357	145.55351473922903	46	127
144.69437641723357	145.21680272108844	55	127
144.69437641723357	144.845306122449	76	127
144.845306122449	144.96138321995466	79	127
144.8685260770975	145.04267573696146	74	127
144.96138321995466	145.0891156462585	81	127
145.05428571428573	145.21680272108844	72	127
145.0891156462585	145.21680272108844	82	127
145.21680272108844	145.8205442176871	67	127
145.21680272108844	145.35614512471656	84	127
145.35614512471656	145.55351473922903	85	127
145.44902494331066	145.62315192743765	62	127
145.55351473922903	145.8205442176871	40	127
145.55351473922903	145.66961451247167	86	127
145.63478458049886	145.8205442176871	60	127
145.66961451247167	145.8205442176871	82	127
145.8205442176871	146.13399092970522	41	127
145.8205442176871	146.3778231292517	81	127
145.8205442176871	146.3778231292517	60	127
145.8205442176871	146.3778231292517	69	127
146.13399092970522	146.26172335600907	43	127
146.26172335600907	146.3778231292517	41	127
146.3778231292517	146.877052154195	79	127
146.3778231292517	146.877052154195	58	127
146.3778231292517	146.6332426303855	40	127
146.3778231292517	146.877052154195	70	127
146.6332426303855	146.76095238095238	41	127
146.76095238095238	146.877052154195	43	127
146.877052154195	147.1324716553288	45	127
146.877052154195	147.37628117913832	77	127
146.877052154195	147.37628117913832	57	127
146.877052154195	147.37628117913832	72	127
147.1324716553288	147.26015873015874	46	127
147.26015873015874	147.37628117913832	45	127
147.37628117913832	147.89873015873016	64	127
147.37628117913832	147.89873015873016	76	127
147.37628117913832	147.65492063492064	43	127
147.37628117913832	147.89873015873016	72	127
147.65492063492064	147.78263038548752	45	127
147.78263038548752	147.89873015873016	46	127
147.91034013605443	148.36312925170068	45	127
147.91034013605443	148.36312925170068	72	127
147.91034013605443	148.13090702947846	77	127
147.91034013605443	148.36312925170068	60	127
148.13090702947846	148.24702947845805	79	127
148.24702947845805	148.37473922902495	77	127
148.37473922902495	148.862358276644	76	127
148.37473922902495	148.862358276644	43	127
148.37473922902495	148.61854875283447	76	127
148.37473922902495	148.862358276644	58	127
148.61854875283447	148.74625850340135	77	127
148.74625850340135	148.87396825396826	79	127
148.87396825396826	149.33836734693878	41	127
148.87396825396826	149.33836734693878	77	127
148.87396825396826	149.33836734693878	57	127
148.87396825396826	149.11777777777777	81	127
149.11777777777777	149.2338775510204	82	127
149.2338775510204	149.34997732426305	81	127
149.34997732426305	149.82598639455782	52	127
149.34997732426305	149.59378684807257	79	127
149.34997732426305	149.59378684807257	36	127
149.34997732426305	149.82598639455782	79	127
149.59378684807257	149.7098866213152	81	127
149.59378684807257	149.82598639455782	48	127
149.7098866213152	149.82598639455782	82	127
149.83759637188209	150.09301587301587	48	127
149.83759637188209	150.61546485260772	84	127
149.83759637188209	150.09301587301587	81	127
149.83759637188209	150.09301587301587	41	127
150.09301587301587	150.2439455782313	81	127
150.09301587301587	150.2439455782313	41	127
150.09301587301587	150.2439455782313	57	127
150.2439455782313	150.3716553287982	58	127
150.2439455782313	150.3716553287982	79	127
150.2439455782313	150.3716553287982	43	127
150.3716553287982	151.1263038548753	77	127
150.3716553287982	150.61546485260772	45	127
150.3716553287982	150.61546485260772	60	127
150.61546485260772	150.75478458049886	62	127
150.61546485260772	150.75478458049886	84	127
150.61546485260772	150.75478458049886	46	127
150.75478458049886	150.88249433106577	64	127
150.75478458049886	150.88249433106577	82	127
150.75478458049886	150.88249433106577	48	127
150.88249433106577	151.1263038548753	65	127
150.88249433106577	151.61392290249432	81	127
150.88249433106577	151.1263038548753	50	127
151.1263038548753	151.25401360544217	77	127
151.1263038548753	151.25401360544217	65	127
151.1263038548753	151.25401360544217	50	127
151.25401360544217	151.38172335600908	52	127
151.25401360544217	151.38172335600908	76	127
151.25401360544217	151.38172335600908	67	127
151.38172335600908	152.1015419501134	53	127
151.38172335600908	151.50943310657595	69	127
151.38172335600908	152.1015419501134	74	127
151.50943310657595	151.6255328798186	67	127
151.6255328798186	151.74163265306123	81	127
151.6255328798186	151.74163265306123	65	127
151.74163265306123	151.8693424036281	79	127
151.74163265306123	151.8693424036281	64	127
151.8693424036281	151.99705215419502	62	127
151.8693424036281	152.6007709750567	77	127
151.99705215419502	152.11315192743766	57	127
152.11315192743766	152.22925170068027	74	127
152.11315192743766	152.22925170068027	55	127
152.11315192743766	152.22925170068027	58	127
152.22925170068027	152.35696145124717	57	127
152.22925170068027	152.35696145124717	72	127
152.22925170068027	152.35696145124717	60	127
152.35696145124717	152.48467120181405	62	127
152.35696145124717	153.04195011337868	70	127
152.35696145124717	153.04195011337868	58	127
152.48467120181405	152.61238095238096	64	127
152.61238095238096	152.72845804988663	77	127
152.61238095238096	152.72845804988663	62	127
152.72845804988663	152.85619047619048	60	127
152.72845804988663	152.85619047619048	76	127
152.85619047619048	153.0071201814059	74	127
152.85619047619048	153.04195011337868	58	127
153.05356009070294	153.16965986394558	86	127
153.05356009070294	153.16965986394558	62	127
153.05356009070294	153.16965986394558	70	127
153.05356009070294	153.16965986394558	46	127
153.16965986394558	153.29736961451246	48	127
153.16965986394558	153.29736961451246	84	127
153.16965986394558	153.29736961451246	64	127
153.16965986394558	153.29736961451246	69	127
153.29736961451246	153.42507936507937	50	127
153.29736961451246	153.42507936507937	82	127
153.29736961451246	153.42507936507937	65	127
153.29736961451246	153.42507936507937	67	127
153.42507936507937	153.55278911564625	81	127
153.42507936507937	153.55278911564625	67	127
153.42507936507937	153.55278911564625	65	127
153.42507936507937	153.55278911564625	52	127
153.55278911564625	153.68049886621316	64	127
153.55278911564625	153.68049886621316	79	127
153.55278911564625	153.68049886621316	69	127
153.55278911564625	153.68049886621316	53	127
153.68049886621316	153.7965986394558	77	127
153.68049886621316	153.7965986394558	55	127
153.68049886621316	153.7965986394558	62	127
153.68049886621316	153.7965986394558	70	127
153.7965986394558	153.92430839002267	76	127
153.7965986394558	153.92430839002267	58	127
153.7965986394558	153.92430839002267	60	127
153.7965986394558	153.92430839002267	72	127
153.92430839002267	154.0404081632653	57	127
153.92430839002267	154.0404081632653	77	127
153.92430839002267	154.0404081632653	74	127
153.92430839002267	154.0404081632653	62	127
154.05201814058958	154.15650793650795	55	127
154.05201814058958	154.15650793650795	79	127
154.05201814058958	154.15650793650795	76	127
154.05201814058958	154.15650793650795	64	127
154.1681179138322	154.26097505668935	81	127
154.1681179138322	154.26097505668935	77	127
154.1681179138322	154.26097505668935	65	127
154.1681179138322	154.26097505668935	53	127
154.26097505668935	154.3887074829932	52	127
154.26097505668935	154.3887074829932	82	127
154.26097505668935	154.3887074829932	79	127
154.26097505668935	154.3887074829932	67	127
154.3887074829932	154.50480725623584	53	127
154.3887074829932	154.50480725623584	81	127
154.3887074829932	154.50480725623584	77	127
154.3887074829932	154.50480725623584	65	127
154.51639455782313	154.63251700680271	79	127
154.51639455782313	154.63251700680271	76	127
154.51639455782313	154.63251700680271	64	127
154.51639455782313	154.63251700680271	55	127
154.64412698412698	154.76022675736962	74	127
154.64412698412698	154.76022675736962	77	127
154.64412698412698	154.76022675736962	62	127
154.64412698412698	154.76022675736962	57	127
154.76022675736962	154.8879365079365	72	127
154.76022675736962	154.8879365079365	76	127
154.76022675736962	154.8879365079365	58	127
154.76022675736962	154.8879365079365	60	127
154.8879365079365	155.00403628117914	74	127
154.8879365079365	155.00403628117914	62	127
154.8879365079365	155.00403628117914	57	127
154.8879365079365	155.00403628117914	77	127
155.00403628117914	155.12013605442178	79	127
155.00403628117914	155.12013605442178	76	127
155.00403628117914	155.12013605442178	64	127
155.00403628117914	155.12013605442178	55	127
155.13172335600908	155.22462585034015	65	127
155.13172335600908	155.22462585034015	81	127
155.13172335600908	155.22462585034015	77	127
155.13172335600908	155.22462585034015	53	127
155.23621315192744	155.34072562358276	82	127
155.23621315192744	155.34072562358276	52	127
155.23621315192744	155.34072562358276	67	127
155.23621315192744	155.34072562358276	79	127
155.34072562358276	155.4568253968254	69	127
155.34072562358276	155.4568253968254	50	127
155.34072562358276	155.4568253968254	84	127
155.34072562358276	155.4568253968254	81	127
155.4568253968254	155.57292517006803	86	127
155.4568253968254	155.57292517006803	82	127
155.4568253968254	155.57292517006803	70	127
155.4568253968254	155.57292517006803	48	127
155.5845351473923	155.68902494331067	72	127
155.5845351473923	155.68902494331067	88	127
155.5845351473923	155.68902494331067	84	127
155.5845351473923	155.68902494331067	46	127
155.7006349206349	156.16503401360544	89	127
155.7006349206349	155.81673469387755	77	127
155.7006349206349	155.81673469387755	65	127
155.7006349206349	155.81673469387755	45	127
155.81673469387755	155.92122448979592	46	127
155.81673469387755	155.92122448979592	76	127
155.81673469387755	155.92122448979592	67	127
155.92122448979592	156.03732426303856	69	127
155.92122448979592	156.03732426303856	74	127
155.92122448979592	156.03732426303856	48	127
156.04893424036283	156.16503401360544	50	127
156.04893424036283	156.16503401360544	72	127
156.04893424036283	156.16503401360544	70	127
156.1766439909297	156.29274376417234	70	127
156.1766439909297	156.29274376417234	72	127
156.1766439909297	156.29274376417234	52	127
156.29274376417234	156.42045351473922	69	127
156.29274376417234	156.42045351473922	74	127
156.29274376417234	156.42045351473922	53	127
156.42045351473922	156.54816326530613	67	127
156.42045351473922	156.54816326530613	55	127
156.42045351473922	156.54816326530613	76	127
156.54816326530613	156.6642403628118	57	127
156.54816326530613	156.6642403628118	77	127
156.54816326530613	156.6642403628118	65	127
156.675873015873	158.26643990929705	62	127
156.675873015873	156.78036281179138	79	127
156.675873015873	158.26643990929705	71	127
156.675873015873	158.26643990929705	65	127
156.78036281179138	156.90807256235829	81	127
156.90807256235829	157.02414965986395	83	127
157.02414965986395	157.1518820861678	84	127
157.16349206349207	157.29120181405895	86	127
157.29120181405895	157.43049886621316	88	127
157.43049886621316	157.56984126984128	89	127
157.56984126984128	157.73238095238096	91	127
157.73238095238096	157.8717006802721	91	127
157.8717006802721	158.02263038548753	89	127
158.02263038548753	158.13873015873017	88	127
158.13873015873017	158.26643990929705	89	127
158.26643990929705	158.39414965986396	88	127
158.26643990929705	158.80049886621316	71	127
158.26643990929705	158.80049886621316	65	127
158.26643990929705	158.80049886621316	62	127
158.39414965986396	158.52185941043084	89	127
158.52185941043084	158.66115646258504	88	127
158.66115646258504	158.80049886621316	86	127
158.80049886621316	159.2881179138322	72	127
158.80049886621316	158.92820861678004	86	127
158.80049886621316	159.2881179138322	67	127
158.80049886621316	159.2881179138322	64	127
158.92820861678004	159.05591836734695	84	127
159.05591836734695	159.18362811791383	83	127
159.18362811791383	159.2881179138322	84	127
159.2881179138322	159.78732426303856	67	127
159.2881179138322	159.78732426303856	70	127
159.2881179138322	159.4158276643991	84	127
159.2881179138322	159.78732426303856	76	127
159.4158276643991	159.54353741496598	82	127
159.54353741496598	159.6712471655329	81	127
159.6712471655329	159.78732426303856	79	127
159.78732426303856	159.9150566893424	79	127
159.78732426303856	160.25174603174602	77	127
159.78732426303856	160.25174603174602	72	127
159.78732426303856	160.25174603174602	69	127
159.9150566893424	160.03115646258505	77	127
160.03115646258505	160.12403628117914	76	127
160.12403628117914	160.25174603174602	77	127
160.25174603174602	160.7393650793651	46	127
160.25174603174602	160.7393650793651	55	127
160.25174603174602	160.7393650793651	62	127
160.25174603174602	160.37945578231293	76	127
160.25174603174602	161.22698412698412	65	127
160.37945578231293	160.49555555555557	77	127
160.49555555555557	160.62326530612245	76	127
160.62326530612245	160.7393650793651	74	127
160.75097505668936	161.22698412698412	48	127
160.75097505668936	160.85544217687075	74	127
160.75097505668936	161.22698412698412	60	127
160.75097505668936	161.22698412698412	57	127
160.85544217687075	160.9831746031746	72	127
160.9831746031746	161.11086167800454	71	127
161.11086167800454	161.22698412698412	72	127
161.22698412698412	161.76104308390023	52	127
161.22698412698412	161.76104308390023	67	127
161.22698412698412	161.76104308390023	55	127
161.22698412698412	161.36628117913833	72	127
161.36628117913833	161.4591836734694	70	127
161.4591836734694	161.57526077097506	69	127
161.57526077097506	161.76104308390023	67	127
161.7726530612245	162.15578231292517	53	127
161.7726530612245	161.8887528344671	55	127
161.7726530612245	162.15578231292517	69	127
161.7726530612245	162.15578231292517	60	127
161.8887528344671	162.00485260770975	53	127
162.00485260770975	162.1209523809524	52	127
162.1209523809524	162.16739229024944	53	127
162.16739229024944	162.28349206349208	52	127
162.16739229024944	162.64340136054423	71	127
162.16739229024944	162.64340136054423	67	127
162.16739229024944	162.64340136054423	62	127
162.28349206349208	162.41120181405896	53	127
162.41120181405896	162.53891156462586	52	127
162.53891156462586	162.64340136054423	50	127
162.65501133786847	163.10777777777778	55	127
162.65501133786847	163.10777777777778	64	127
162.65501133786847	162.7711111111111	50	127
162.65501133786847	163.10777777777778	72	127
162.7711111111111	162.8639909297052	48	127
162.8639909297052	162.99170068027212	47	127
162.99170068027212	163.10777777777778	48	127
163.119410430839	163.5954195011338	76	127
163.119410430839	163.5954195011338	67	127
163.119410430839	163.22390022675737	48	127
163.119410430839	163.5954195011338	72	127
163.22390022675737	163.35160997732427	46	127
163.35160997732427	163.47931972789115	45	127
163.47931972789115	163.5954195011338	43	127
163.60702947845806	163.72310657596373	46	127
163.60702947845806	164.07142857142858	65	127
163.60702947845806	163.72310657596373	79	127
163.60702947845806	164.07142857142858	72	127
163.72310657596373	163.85083900226758	77	127
163.72310657596373	163.85083900226758	45	127
163.85083900226758	163.9785260770975	43	127
163.85083900226758	163.9785260770975	76	127
163.9785260770975	164.08303854875282	77	127
163.9785260770975	164.07142857142858	45	127
164.08303854875282	164.54743764172335	59	127
164.08303854875282	164.54743764172335	50	127
164.08303854875282	164.54743764172335	53	127
164.08303854875282	164.19913832199546	76	127
164.19913832199546	164.3152380952381	77	127
164.3152380952381	164.43133786848074	79	127
164.43133786848074	164.54743764172335	81	127
164.55904761904762	164.68675736961453	60	127
164.55904761904762	164.68675736961453	48	127
164.55904761904762	164.68675736961453	53	127
164.55904761904762	164.68675736961453	81	127
164.68675736961453	164.79122448979592	55	127
164.68675736961453	164.79122448979592	82	127
164.68675736961453	164.79122448979592	67	127
164.68675736961453	164.79122448979592	46	127
164.79122448979592	164.93056689342404	84	127
164.79122448979592	164.93056689342404	45	127
164.79122448979592	164.93056689342404	57	127
164.79122448979592	164.93056689342404	65	127
164.93056689342404	165.05827664399092	85	127
164.93056689342404	165.05827664399092	43	127
164.93056689342404	165.05827664399092	64	127
164.93056689342404	165.05827664399092	58	127
165.05827664399092	165.18598639455783	41	127
165.05827664399092	165.18598639455783	65	127
165.05827664399092	165.18598639455783	57	127
165.05827664399092	165.18598639455783	86	127
165.18598639455783	165.32530612244898	40	127
165.18598639455783	165.32530612244898	85	127
165.18598639455783	165.32530612244898	67	127
165.18598639455783	165.32530612244898	55	127
165.32530612244898	165.4762358276644	69	127
165.32530612244898	165.4762358276644	53	127
165.32530612244898	165.4762358276644	38	127
165.32530612244898	165.4762358276644	86	127
165.4762358276644	165.70843537414967	55	127
165.4762358276644	165.70843537414967	70	127
165.4762358276644	165.70843537414967	76	127
165.4762358276644	165.70843537414967	36	127
165.7200453514739	166.2308843537415	77	127
165.7200453514739	166.2308843537415	57	127
165.7200453514739	166.2308843537415	41	127
165.7200453514739	166.2308843537415	69	127
166.2308843537415	166.34698412698413	43	127
166.2308843537415	166.34698412698413	76	127
166.2308843537415	166.34698412698413	67	127
166.2308843537415	166.34698412698413	58	127
166.3585941043084	166.7649433106576	73	127
166.3585941043084	166.7649433106576	46	127
166.3585941043084	166.7649433106576	52	127
166.3585941043084	166.7649433106576	55	127
166.7649433106576	166.88104308390024	64	127
166.7649433106576	166.88104308390024	55	127
166.7649433106576	166.88104308390024	49	127
166.7649433106576	166.88104308390024	70	127
166.89263038548754	167.32222222222222	52	127
166.89263038548754	167.32222222222222	67	127
166.89263038548754	167.32222222222222	58	127
166.89263038548754	167.32222222222222	61	127
167.32222222222222	167.4847619047619	58	127
167.32222222222222	167.4847619047619	61	127
167.32222222222222	167.4847619047619	64	127
167.32222222222222	167.4847619047619	55	127
167.49637188208618	167.96074829931973	64	127
167.49637188208618	167.96074829931973	58	127
167.49637188208618	167.96074829931973	55	127
167.49637188208618	167.96074829931973	73	127
167.96074829931973	168.11170068027212	65	127
167.96074829931973	168.11170068027212	60	127
167.96074829931973	168.11170068027212	57	127
167.96074829931973	168.11170068027212	72	127
168.11170068027212	169.8531746031746	74	127
168.11170068027212	169.8531746031746	56	127
168.11170068027212	169.8531746031746	47	127
168.11170068027212	169.8531746031746	65	127
169.8531746031746	171.1883446712018	64	127
169.8531746031746	171.1883446712018	55	127
169.8531746031746	171.1883446712018	48	127
169.8531746031746	171.1883446712018	72	127
171.19995464852607	171.58308390022677	72	127
171.19995464852607	171.58308390022677	69	127
171.19995464852607	171.58308390022677	53	127
171.19995464852607	171.58308390022677	60	127
171.58308390022677	171.71079365079365	61	127
171.58308390022677	171.71079365079365	67	127
171.58308390022677	171.71079365079365	52	127
171.58308390022677	171.71079365079365	73	127
171.71079365079365	172.11714285714285	70	127
171.71079365079365	172.11714285714285	76	127
171.71079365079365	172.11714285714285	64	127
171.71079365079365	172.11714285714285	49	127
172.11714285714285	172.25643990929706	79	127
172.11714285714285	172.25643990929706	46	127
172.11714285714285	172.25643990929706	67	127
172.11714285714285	172.25643990929706	73	127
172.25643990929706	172.7324716553288	58	127
172.25643990929706	172.7324716553288	82	127
172.25643990929706	172.7324716553288	73	127
172.25643990929706	172.7324716553288	43	127
172.7324716553288	172.871768707483	85	127
172.7324716553288	172.871768707483	82	127
172.7324716553288	172.871768707483	55	127
172.7324716553288	172.871768707483	40	127
172.871768707483	173.4290702947846	88	127
172.871768707483	173.4290702947846	49	127
172.871768707483	173.4290702947846	58	127
172.871768707483	173.4290702947846	79	127
173.4290702947846	173.82380952380953	57	127
173.4290702947846	173.82380952380953	89	127
173.4290702947846	173.82380952380953	81	127
173.4290702947846	173.82380952380953	48	127
173.8354195011338	175.27503401360545	50	127
173.8354195011338	175.27503401360545	71	127
173.8354195011338	175.27503401360545	65	127
173.8354195011338	175.27503401360545	56	127
175.27503401360545	176.62181405895691	65	127
175.27503401360545	176.62181405895691	72	127
175.27503401360545	176.62181405895691	57	127
175.27503401360545	176.62181405895691	48	127
176.62181405895691	178.11950113378686	74	127
176.62181405895691	177.79442176870748	65	127
176.62181405895691	177.79442176870748	56	127
176.62181405895691	177.79442176870748	47	127
177.79442176870748	179.35015873015874	55	127
177.79442176870748	179.35015873015874	64	127
177.79442176870748	179.35015873015874	48	127
178.13111111111112	178.43297052154196	64	127
178.43297052154196	178.89736961451248	74	127
178.89736961451248	179.35015873015874	72	127
179.35015873015874	181.0219954648526	65	127
179.35015873015874	181.0219954648526	56	127
179.35015873015874	181.5212244897959	74	127
179.35015873015874	181.0219954648526	47	127
181.03360544217688	183.4717006802721	64	127
181.03360544217688	183.4717006802721	48	127
181.03360544217688	183.4717006802721	36	127
181.03360544217688	183.4717006802721	55	127
181.03360544217688	183.4717006802721	48	127
181.03360544217688	183.4717006802721	55	127
181.53283446712018	181.9391836734694	60	127
181.9391836734694	182.8447619047619	70	127
182.8447619047619	183.4717006802721	67	127
183.4717006802721	183.91285714285715	53	127
183.4717006802721	183.91285714285715	69	127
183.4717006802721	183.91285714285715	65	127
183.4717006802721	183.91285714285715	53	127
184.261179138322	184.62108843537416	70	127
184.261179138322	184.62108843537416	50	127
184.261179138322	184.62108843537416	53	127
184.261179138322	184.62108843537416	65	127
184.9461678004535	185.17836734693878	65	127
184.9461678004535	185.17836734693878	72	127
184.9461678004535	185.17836734693878	69	127
184.9461678004535	185.17836734693878	48	127
185.46861678004535	185.7356462585034	48	127
185.46861678004535	185.7356462585034	79	127
185.46861678004535	185.7356462585034	67	127
185.46861678004535	185.7356462585034	64	127
186.4902947845805	188.20854875283447	41	127
186.4902947845805	186.9778911564626	81	127
186.4902947845805	186.9778911564626	63	127
186.4902947845805	186.9778911564626	60	127
188.20854875283447	190.90208616780046	41	127
190.90208616780046	198.62272108843538	57	127
190.90208616780046	193.5607709750567	42	127
193.57238095238094	195.77827664399092	53	127
193.57238095238094	195.77827664399092	51	127
195.80149659863946	200.10879818594105	50	127
195.80149659863946	198.077052154195	69	127
195.80149659863946	198.077052154195	54	127
198.077052154195	200.10879818594105	72	127
198.077052154195	200.10879818594105	63	127
198.62272108843538	198.99424036281178	66	127
198.99424036281178	199.11034013605442	67	127
199.11034013605442	199.60956916099772	69	127
199.60956916099772	199.99269841269842	67	127
199.99269841269842	200.10879818594105	66	127
200.10879818594105	202.1289342403628	50	127
200.10879818594105	200.60802721088436	69	127
200.10879818594105	201.07242630385488	70	127
200.10879818594105	202.1289342403628	62	127
200.60802721088436	201.32784580498867	67	127
201.08403628117915	202.1289342403628	58	127
201.32784580498867	201.58326530612246	67	127
201.58326530612246	201.82707482993197	66	127
201.82707482993197	202.14054421768708	67	127
202.14054421768708	204.1490702947846	54	127
202.14054421768708	206.27369614512472	50	127
202.14054421768708	204.1490702947846	63	127
202.14054421768708	204.1490702947846	60	127
202.14054421768708	202.63977324263038	70	127
202.65138321995465	203.02290249433108	69	127
203.02290249433108	203.16222222222223	70	127
203.16222222222223	203.63823129251702	72	127
203.64984126984126	204.00975056689342	70	127
204.00975056689342	204.1490702947846	69	127
204.16068027210883	206.27369614512472	62	127
204.16068027210883	206.27369614512472	55	127
204.16068027210883	206.27369614512472	58	127
204.16068027210883	204.65990929705217	72	127
204.65990929705217	205.7396371882086	70	127
205.7396371882086	206.13437641723357	75	127
206.13437641723357	206.27369614512472	74	127
206.27369614512472	206.77292517006802	50	127
206.27369614512472	208.28222222222223	60	127
206.27369614512472	208.28222222222223	62	127
206.27369614512472	206.77292517006802	54	127
206.27369614512472	206.77292517006802	74	127
206.77292517006802	207.15605442176872	54	127
206.77292517006802	207.15605442176872	75	127
206.77292517006802	207.15605442176872	57	127
207.15605442176872	207.27215419501132	74	127
207.15605442176872	207.27215419501132	58	127
207.15605442176872	207.27215419501132	55	127
207.27215419501132	207.79460317460317	57	127
207.27215419501132	207.79460317460317	74	127
207.27215419501132	207.79460317460317	60	127
207.79460317460317	208.1661224489796	84	127
207.79460317460317	208.28222222222223	57	127
207.79460317460317	208.28222222222223	54	127
208.1661224489796	208.28222222222223	81	127
208.28222222222223	208.85111111111112	56	127
208.28222222222223	208.85111111111112	84	127
208.28222222222223	208.85111111111112	62	127
208.28222222222223	208.85111111111112	53	127
208.86272108843536	209.87278911564627	83	127
208.86272108843536	209.87278911564627	67	127
208.86272108843536	209.87278911564627	55	127
208.86272108843536	209.22263038548752	53	127
208.86272108843536	209.22263038548752	50	127
209.22263038548752	209.3619501133787	55	127
209.22263038548752	209.3619501133787	51	127
209.3619501133787	209.87278911564627	56	127
209.3619501133787	209.87278911564627	53	127
209.87278911564627	210.27913832199548	68	127
209.87278911564627	210.15142857142857	55	127
209.87278911564627	210.15142857142857	51	127
209.87278911564627	210.39523809523808	84	127
210.15142857142857	210.39523809523808	48	127
210.15142857142857	210.39523809523808	51	127
210.27913832199548	210.39523809523808	67	127
210.39523809523808	212.33410430839	55	127
210.39523809523808	210.89446712018142	74	127
210.39523809523808	212.33410430839	50	127
210.39523809523808	212.33410430839	47	127
210.39523809523808	210.89446712018142	86	127
210.89446712018142	211.2659863945578	74	127
210.89446712018142	211.38208616780045	67	127
211.2659863945578	211.38208616780045	75	127
211.38208616780045	211.86970521541951	62	127
211.38208616780045	211.86970521541951	77	127
211.86970521541951	212.2180045351474	75	127
211.86970521541951	212.33410430839	67	127
212.2180045351474	212.33410430839	74	127
212.33410430839	213.8550113378685	51	127
212.33410430839	212.86816326530612	77	127
212.33410430839	212.86816326530612	60	127
212.33410430839	213.8550113378685	48	127
212.33410430839	213.8550113378685	55	127
212.86816326530612	213.8550113378685	75	127
212.86816326530612	213.2512925170068	56	127
213.2512925170068	213.36739229024943	55	127
213.3790022675737	213.8550113378685	55	127
213.86662131519273	214.2613605442177	63	127
213.86662131519273	214.93473922902496	67	127
213.86662131519273	214.38907029478457	46	127
213.86662131519273	214.38907029478457	74	127
214.2613605442177	214.38907029478457	62	127
214.38907029478457	215.43396825396826	72	127
214.38907029478457	215.43396825396826	44	127
214.38907029478457	214.93473922902496	62	127
214.93473922902496	215.34108843537416	60	127
214.93473922902496	215.34108843537416	63	127
215.34108843537416	215.43396825396826	62	127
215.34108843537416	215.43396825396826	62	127
215.43396825396826	216.44403628117914	56	127
215.43396825396826	215.89836734693878	63	127
215.43396825396826	215.89836734693878	60	127
215.43396825396826	216.44403628117914	66	127
215.90997732426302	216.31632653061226	62	127
215.90997732426302	216.31632653061226	62	127
216.31632653061226	216.44403628117914	63	127
216.31632653061226	216.44403628117914	60	127
216.4556462585034	218.96340136054422	55	127
216.4556462585034	216.9897052154195	60	127
216.4556462585034	216.9897052154195	63	127
216.4556462585034	218.44095238095238	67	127
217.00131519274376	218.44095238095238	59	127
217.00131519274376	217.36122448979592	62	127
217.36122448979592	217.47732426303855	63	127
217.47732426303855	217.95333333333335	65	127
217.9649433106576	218.32485260770974	63	127
218.32485260770974	218.44095238095238	62	127
218.45256235827665	218.96340136054422	65	127
218.45256235827665	220.4146485260771	75	127
218.45256235827665	219.4742403628118	60	127
218.9750113378685	219.3465306122449	63	127
218.9750113378685	219.3465306122449	48	127
219.3465306122449	219.48585034013607	50	127
219.3465306122449	219.48585034013607	65	127
219.48585034013607	219.93863945578232	51	127
219.48585034013607	219.93863945578232	67	127
219.48585034013607	220.4146485260771	72	127
219.95024943310656	220.2869387755102	65	127
219.95024943310656	220.2869387755102	50	127
220.2869387755102	220.4146485260771	48	127
220.2869387755102	220.4146485260771	63	127
220.4146485260771	222.34190476190477	84	127
220.4146485260771	220.91387755102042	46	127
220.4146485260771	220.67006802721087	62	127
220.4146485260771	222.34190476190477	87	127
220.67006802721087	220.91387755102042	60	127
220.91387755102042	221.27378684807258	44	127
220.91387755102042	221.27378684807258	48	127
221.27378684807258	221.37827664399094	46	127
221.27378684807258	221.37827664399094	50	127
221.37827664399094	221.8542857142857	51	127
221.37827664399094	221.8542857142857	48	127
221.8542857142857	222.2374149659864	46	127
221.8542857142857	222.2374149659864	50	127
222.2374149659864	222.34190476190477	48	127
222.2374149659864	222.34190476190477	44	127
222.353514739229	222.6785941043084	84	127
222.353514739229	222.6785941043084	53	127
222.353514739229	222.6785941043084	44	127
222.353514739229	222.6785941043084	87	127
222.81791383219954	223.15460317460318	45	127
222.81791383219954	223.15460317460318	86	127
222.81791383219954	223.15460317460318	84	127
222.81791383219954	223.15460317460318	54	127
223.31714285714287	223.7118820861678	43	127
223.31714285714287	223.7118820861678	86	127
223.31714285714287	223.7118820861678	74	127
223.31714285714287	223.7118820861678	84	127
223.31714285714287	223.7118820861678	55	127
223.897641723356	224.33882086167802	43	127
223.897641723356	224.33882086167802	86	127
223.897641723356	224.33882086167802	74	127
223.897641723356	224.33882086167802	83	127
223.897641723356	224.33882086167802	67	127
223.897641723356	224.33882086167802	55	127
225.8248979591837	225.9758276643991	50	127
225.8248979591837	225.9758276643991	38	127
225.9758276643991	226.33573696145126	36	127
225.9758276643991	226.33573696145126	48	127
226.33573696145126	226.45183673469387	50	127
226.33573696145126	226.45183673469387	38	127
226.46344671201814	226.7304761904762	41	127
226.46344671201814	226.7304761904762	53	127
226.7304761904762	227.68249433106575	40	127
226.7304761904762	227.68249433106575	52	127
227.68249433106575	227.92630385487527	41	127
227.68249433106575	227.92630385487527	53	127
227.92630385487527	228.28621315192743	40	127
227.92630385487527	228.28621315192743	52	127
228.28621315192743	228.4255328798186	53	127
228.28621315192743	228.4255328798186	41	127
228.4255328798186	228.7041723356009	45	127
228.4255328798186	228.7041723356009	57	127
228.7041723356009	229.62136054421768	55	127
228.7041723356009	229.62136054421768	43	127
229.9928798185941	230.09736961451247	74	127
229.9928798185941	230.09736961451247	62	127
230.09736961451247	230.48049886621314	60	127
230.09736961451247	230.48049886621314	72	127
230.48049886621314	230.61981859410432	74	127
230.48049886621314	230.61981859410432	62	127
230.61981859410432	230.85201814058956	77	127
230.61981859410432	230.85201814058956	65	127
230.85201814058956	231.79242630385488	76	127
230.85201814058956	231.79242630385488	64	127
230.94489795918366	231.07260770975057	48	127
230.94489795918366	231.07260770975057	60	127
231.07260770975057	231.4092970521542	59	127
231.07260770975057	231.4092970521542	47	127
231.4092970521542	231.54861678004536	48	127
231.4092970521542	231.54861678004536	60	127
231.54861678004536	231.80403628117915	52	127
231.54861678004536	231.80403628117915	40	127
231.80403628117915	232.04784580498867	65	127
231.80403628117915	232.58190476190475	50	127
231.80403628117915	232.58190476190475	38	127
231.80403628117915	232.04784580498867	77	127
232.04784580498867	232.45419501133787	76	127
232.04784580498867	232.45419501133787	64	127
232.45419501133787	232.58190476190475	77	127
232.45419501133787	232.58190476190475	65	127
232.58190476190475	232.83732426303854	69	127
232.58190476190475	232.83732426303854	81	127
232.83732426303854	233.8241723356009	79	127
232.83732426303854	233.8241723356009	67	127
232.96503401360545	233.08113378684808	64	127
232.96503401360545	233.08113378684808	52	127
233.08113378684808	233.45265306122448	50	127
233.08113378684808	233.45265306122448	62	127
233.45265306122448	233.5803628117914	64	127
233.45265306122448	233.5803628117914	52	127
233.5803628117914	233.8241723356009	43	127
233.5803628117914	233.8241723356009	55	127
233.8241723356009	234.63687074829932	53	127
233.8241723356009	234.0795918367347	81	127
233.8241723356009	234.0795918367347	69	127
233.8241723356009	234.63687074829932	41	127
234.0795918367347	234.49755102040817	67	127
234.0795918367347	234.49755102040817	79	127
234.49755102040817	234.63687074829932	81	127
234.49755102040817	234.63687074829932	69	127
234.63687074829932	235.0548299319728	53	127
234.63687074829932	235.0548299319728	81	127
234.63687074829932	235.0548299319728	69	127
234.63687074829932	235.0548299319728	41	127
235.0548299319728	235.19414965986394	58	127
235.0548299319728	235.19414965986394	76	127
235.0548299319728	235.19414965986394	73	127
235.0548299319728	235.19414965986394	55	127
235.2057596371882	235.37990929705217	76	127
235.2057596371882	235.37990929705217	58	127
235.2057596371882	235.37990929705217	55	127
235.2057596371882	235.37990929705217	73	127
235.44956916099773	235.67015873015873	77	127
235.44956916099773	235.67015873015873	57	127
235.44956916099773	235.67015873015873	53	127
235.44956916099773	235.67015873015873	74	127
235.75142857142856	236.13455782312926	79	127
235.75142857142856	236.13455782312926	76	127
235.75142857142856	236.13455782312926	55	127
235.75142857142856	236.13455782312926	52	127
236.13455782312926	236.2738775510204	53	127
236.13455782312926	236.2738775510204	74	127
236.13455782312926	236.2738775510204	71	127
236.13455782312926	236.2738775510204	57	127
236.28548752834467	236.48285714285714	74	127
236.28548752834467	236.48285714285714	53	127
236.28548752834467	236.48285714285714	57	127
236.28548752834467	236.48285714285714	71	127
236.54090702947846	236.72666666666666	55	127
236.54090702947846	236.72666666666666	76	127
236.54090702947846	236.72666666666666	72	127
236.54090702947846	236.72666666666666	52	127
236.80793650793652	237.19106575963718	50	127
236.80793650793652	237.19106575963718	77	127
236.80793650793652	237.19106575963718	65	127
236.80793650793652	237.19106575963718	53	127
237.19106575963718	237.30716553287982	67	127
237.19106575963718	237.30716553287982	69	127
237.19106575963718	237.30716553287982	60	127
237.19106575963718	237.30716553287982	64	127
237.30716553287982	237.49292517006802	64	127
237.30716553287982	237.49292517006802	69	127
237.30716553287982	237.49292517006802	60	127
237.30716553287982	237.49292517006802	67	127
237.55097505668934	237.73673469387754	65	127
237.55097505668934	237.73673469387754	71	127
237.55097505668934	237.73673469387754	67	127
237.55097505668934	237.73673469387754	62	127
237.79478458049886	237.98054421768708	60	127
237.79478458049886	237.98054421768708	72	127
237.79478458049886	237.98054421768708	69	127
237.79478458049886	237.98054421768708	64	127
238.0385941043084	238.2243537414966	59	127
238.0385941043084	238.2243537414966	74	127
238.0385941043084	238.2243537414966	71	127
238.0385941043084	238.2243537414966	62	127
238.2940136054422	238.50299319727893	57	127
238.2940136054422	238.50299319727893	76	127
238.2940136054422	238.50299319727893	72	127
238.2940136054422	238.50299319727893	60	127
238.57265306122449	238.78163265306122	55	127
238.57265306122449	238.78163265306122	77	127
238.57265306122449	238.78163265306122	74	127
238.57265306122449	238.78163265306122	59	127
238.8512925170068	239.2692517006803	55	127
238.8512925170068	240.84820861678006	55	127
238.8512925170068	240.84820861678006	60	127
238.8512925170068	240.84820861678006	76	127
239.2692517006803	239.44340136054421	47	127
239.44340136054421	239.80331065759637	48	127
239.80331065759637	239.919410430839	50	127
239.919410430839	240.34897959183672	52	127
240.34897959183672	240.73210884353742	50	127
240.73210884353742	240.84820861678006	48	127
240.8598185941043	242.69419501133788	60	127
240.8598185941043	242.69419501133788	88	127
240.8598185941043	242.69419501133788	72	127
240.8598185941043	241.35904761904763	47	127
241.37065759637187	241.63768707482993	45	127
241.63768707482993	241.76539682539683	47	127
241.76539682539683	242.19496598639455	48	127
242.20657596371882	242.57809523809524	47	127
242.57809523809524	242.69419501133788	45	127
242.70580498866212	242.9031746031746	45	127
242.70580498866212	244.5750113378685	76	127
242.70580498866212	244.5750113378685	71	127
242.70580498866212	244.5750113378685	91	127
242.70580498866212	242.9031746031746	59	127
242.9031746031746	243.14698412698414	52	127
242.9031746031746	243.14698412698414	43	127
243.15859410430838	243.49528344671202	43	127
243.15859410430838	243.49528344671202	52	127
243.49528344671202	243.57655328798185	54	127
243.49528344671202	243.57655328798185	45	127
243.57655328798185	244.06417233560092	47	127
243.57655328798185	244.06417233560092	55	127
244.06417233560092	244.44730158730158	45	127
244.06417233560092	244.44730158730158	54	127
244.44730158730158	244.5750113378685	43	127
244.44730158730158	244.5750113378685	52	127
244.5750113378685	244.90009070294784	91	127
244.5750113378685	244.90009070294784	72	127
244.5750113378685	244.90009070294784	76	127
244.5750113378685	244.90009070294784	52	127
244.5750113378685	244.90009070294784	45	127
245.06263038548752	245.42253968253968	46	127
245.06263038548752	245.42253968253968	90	127
245.06263038548752	245.42253968253968	73	127
245.06263038548752	245.42253968253968	76	127
245.06263038548752	245.42253968253968	52	127
245.59668934240364	245.96820861678003	90	127
245.59668934240364	245.96820861678003	47	127
245.59668934240364	245.96820861678003	59	127
245.59668934240364	245.96820861678003	76	127
245.59668934240364	245.96820861678003	66	127
246.16557823129253	246.59514739229024	59	127
246.16557823129253	246.59514739229024	90	127
246.16557823129253	246.59514739229024	66	127
246.16557823129253	246.59514739229024	75	127
246.16557823129253	246.59514739229024	47	127
246.7925170068027	248.69655328798186	63	127
246.7925170068027	248.69655328798186	51	127
246.7925170068027	248.69655328798186	39	127
248.69655328798186	250.89083900226757	52	127
248.69655328798186	250.89083900226757	64	127
248.69655328798186	250.89083900226757	40	127
250.89083900226757	252.8297052154195	82	127
250.89083900226757	252.8297052154195	48	127
250.89083900226757	252.8297052154195	64	127
250.89083900226757	252.8297052154195	76	127
252.84131519274376	255.0239909297052	66	127
252.84131519274376	255.3142403628118	83	127
252.84131519274376	255.0239909297052	47	127
252.84131519274376	255.0239909297052	66	127
252.84131519274376	255.0239909297052	59	127
252.84131519274376	255.0239909297052	75	127
255.03560090702948	257.531746031746	66	127
255.03560090702948	257.02090702947845	59	127
255.03560090702948	257.02090702947845	63	127
255.32585034013604	255.5696598639456	80	127
255.5696598639456	255.82507936507938	81	127
255.82507936507938	256.0340589569161	83	127
256.0340589569161	256.48684807256234	84	127
256.4984580498866	256.8931746031746	83	127
256.8931746031746	257.02090702947845	81	127
257.02090702947845	258.9365306122449	64	127
257.02090702947845	257.531746031746	81	127
257.02090702947845	260.9450793650794	59	127
257.5433560090703	257.92648526077096	67	127
257.5433560090703	258.43732426303853	79	127
257.92648526077096	258.05419501133787	69	127
258.05419501133787	258.43732426303853	71	127
258.4489342403628	258.82045351473926	69	127
258.4489342403628	258.82045351473926	78	127
258.82045351473926	258.9365306122449	76	127
258.82045351473926	258.9365306122449	67	127
258.9365306122449	259.1687528344671	76	127
258.9365306122449	259.65637188208615	67	127
258.9365306122449	260.9450793650794	72	127
259.1687528344671	259.42417233560093	75	127
259.42417233560093	259.78408163265306	76	127
259.65637188208615	259.8885714285714	66	127
259.78408163265306	259.8885714285714	78	127
259.8885714285714	260.41102040816327	79	127
259.8885714285714	260.1672108843537	64	127
260.1672108843537	260.42263038548754	71	127
260.42263038548754	260.6780498866213	69	127
260.42263038548754	260.8173696145125	78	127
260.6780498866213	260.9450793650794	67	127
260.8173696145125	260.9450793650794	76	127
260.95668934240365	262.9187528344671	59	127
260.95668934240365	262.37310657596373	71	127
260.95668934240365	261.42108843537414	76	127
260.95668934240365	261.42108843537414	67	127
261.42108843537414	262.9187528344671	75	127
261.42108843537414	262.37310657596373	66	127
262.37310657596373	262.77945578231294	69	127
262.37310657596373	262.77945578231294	66	127
262.77945578231294	262.9187528344671	67	127
262.77945578231294	262.9187528344671	71	127
262.9303854875283	263.45283446712017	57	127
262.9303854875283	263.45283446712017	66	127
262.9303854875283	264.7995918367347	75	127
262.9303854875283	263.45283446712017	69	127
262.9303854875283	263.45283446712017	72	127
263.45283446712017	263.81274376417235	60	127
263.45283446712017	263.81274376417235	66	127
263.45283446712017	263.81274376417235	57	127
263.81274376417235	263.94043083900226	55	127
263.81274376417235	263.94043083900226	67	127
263.81274376417235	263.94043083900226	59	127
263.94043083900226	264.416462585034	57	127
263.94043083900226	264.416462585034	54	127
263.94043083900226	264.416462585034	72	127
264.416462585034	264.68349206349205	55	127
264.416462585034	264.68349206349205	71	127
264.416462585034	264.68349206349205	59	127
264.68349206349205	264.7995918367347	57	127
264.68349206349205	264.7995918367347	69	127
264.68349206349205	264.7995918367347	60	127
264.7995918367347	266.6804081632653	76	127
264.7995918367347	265.252380952381	67	127
264.7995918367347	265.252380952381	60	127
264.7995918367347	265.252380952381	57	127
265.252380952381	266.1927664399093	55	127
265.252380952381	266.1927664399093	59	127
265.252380952381	265.62390022675737	67	127
265.62390022675737	265.7516099773243	69	127
265.7516099773243	267.08675736961453	71	127
266.2043990929705	266.6804081632653	54	127
266.2043990929705	266.6804081632653	57	127
266.6804081632653	268.5728344671202	84	127
266.6804081632653	267.08675736961453	52	127
266.6804081632653	267.08675736961453	55	127
267.0983673469388	267.4698866213152	67	127
267.0983673469388	267.4698866213152	40	127
267.0983673469388	267.4698866213152	55	127
267.4698866213152	267.58598639455784	69	127
267.4698866213152	267.58598639455784	42	127
267.4698866213152	267.58598639455784	57	127
267.58598639455784	268.07360544217687	71	127
267.58598639455784	268.07360544217687	43	127
267.58598639455784	268.07360544217687	59	127
268.08521541950114	268.4451020408163	57	127
268.08521541950114	268.4451020408163	69	127
268.08521541950114	268.4451020408163	42	127
268.4451020408163	268.5728344671202	67	127
268.4451020408163	268.5728344671202	55	127
268.4451020408163	268.5728344671202	40	127
268.5728344671202	269.08367346938775	55	127
268.5728344671202	269.08367346938775	67	127
268.5728344671202	269.08367346938775	40	127
268.5728344671202	275.4807709750567	83	127
269.095283446712	270.08213151927436	66	127
269.095283446712	270.08213151927436	39	127
269.095283446712	270.08213151927436	54	127
270.08213151927436	270.592947845805	60	127
270.08213151927436	270.592947845805	64	127
270.6045804988662	270.9528798185941	64	127
270.6045804988662	270.9528798185941	60	127
270.9528798185941	271.69591836734696	59	127
270.9528798185941	271.69591836734696	63	127
271.69591836734696	272.2183446712018	55	127
271.69591836734696	272.2183446712018	52	127
272.2183446712018	272.7408163265306	55	127
272.2183446712018	272.7408163265306	52	127
272.7408163265306	273.6347845804989	54	127
272.7408163265306	273.6347845804989	51	127
273.20521541950114	273.6347845804989	66	127
273.64639455782316	274.0991836734694	53	127
273.64639455782316	274.0991836734694	65	127
273.64639455782316	274.0991836734694	50	127
274.0991836734694	274.55197278911567	52	127
274.0991836734694	274.55197278911567	64	127
274.0991836734694	274.55197278911567	48	127
274.56358276643994	275.0395918367347	63	127
274.56358276643994	275.4807709750567	51	127
274.56358276643994	275.4807709750567	47	127
275.05120181405897	275.4807709750567	71	127
275.4807709750567	276.02643990929704	84	127
275.4807709750567	276.02643990929704	45	127
275.4807709750567	276.02643990929704	72	127
275.4807709750567	276.02643990929704	48	127
276.02643990929704	276.37473922902495	72	127
276.02643990929704	276.37473922902495	59	127
276.02643990929704	276.37473922902495	84	127
276.02643990929704	276.37473922902495	43	127
276.52566893424034	276.82750566893424	72	127
276.52566893424034	276.82750566893424	84	127
276.52566893424034	276.82750566893424	63	127
276.52566893424034	276.82750566893424	57	127
276.52566893424034	276.82750566893424	42	127
276.9784580498866	277.303537414966	72	127
276.9784580498866	277.303537414966	55	127
276.9784580498866	277.303537414966	40	127
276.9784580498866	277.303537414966	84	127
276.9784580498866	277.303537414966	64	127
277.4312244897959	277.8027664399093	66	127
277.4312244897959	277.8027664399093	54	127
277.4312244897959	277.8027664399093	39	127
277.4312244897959	277.8027664399093	84	127
277.4312244897959	277.8027664399093	72	127
278.0001360544218	278.37165532879817	69	127
278.0001360544218	278.37165532879817	54	127
278.0001360544218	278.37165532879817	63	127
278.0001360544218	278.16267573696143	84	127
278.0001360544218	278.37165532879817	72	127
278.16267573696143	278.27877551020407	83	127
278.27877551020407	278.406485260771	81	127
278.406485260771	278.5225850340136	84	127
278.5225850340136	278.6154648526077	81	127
278.6154648526077	278.7199546485261	79	127
278.7199546485261	278.78961451247164	78	127
278.78961451247164	278.87086167800453	78	127
278.87086167800453	278.96374149659863	76	127
278.96374149659863	279.068231292517	75	127
279.068231292517	279.1263038548753	78	127
279.1263038548753	279.23079365079366	72	127
279.23079365079366	279.335283446712	71	127
279.335283446712	279.4281632653061	69	127
279.4281632653061	279.5326530612245	72	127
279.5326530612245	279.69519274376415	69	127
279.69519274376415	279.7880498866213	67	127
279.7880498866213	279.8925396825397	66	127
279.8925396825397	279.9854421768708	69	127
279.9854421768708	280.1247619047619	63	127
280.1247619047619	280.22925170068027	66	127
280.22925170068027	280.3453514739229	69	127
280.3453514739229	280.46145124716554	72	127
280.46145124716554	280.6007482993197	75	127
280.6007482993197	280.7633106575964	78	127
280.7633106575964	281.0767800453515	81	127
281.0767800453515	281.71532879818596	69	127
281.0767800453515	281.72691609977323	84	127
281.0767800453515	281.71532879818596	66	127
281.0767800453515	281.71532879818596	75	127
281.0767800453515	281.71532879818596	59	127
281.72691609977323	282.09845804988663	83	127
282.1100680272109	285.337641723356	83	127
282.63251700680274	283.0156462585034	64	127
283.0156462585034	283.1549433106576	66	127
283.1549433106576	283.67739229024943	67	127
283.67739229024943	284.08374149659863	66	127
284.08374149659863	284.2114739229025	64	127
284.22308390022675	284.6874829931973	64	127
284.6990702947846	286.0922902494331	63	127
285.337641723356	285.5698412698413	82	127
285.5698412698413	285.7439909297052	81	127
285.7556009070295	285.9181179138322	79	127
285.9181179138322	286.0922902494331	78	127
286.1039002267574	288.2401360544218	72	127
286.1039002267574	286.3709297052154	78	127
286.3709297052154	286.661179138322	75	127
286.661179138322	287.0675283446712	76	127
287.0675283446712	287.20684807256237	78	127
287.20684807256237	287.7409070294785	79	127
287.75251700680275	288.12403628117914	78	127
288.12403628117914	288.2401360544218	76	127
288.2401360544218	290.38798185941044	71	127
288.2401360544218	288.692925170068	76	127
288.692925170068	289.8307029478458	75	127
289.8307029478458	289.98163265306124	74	127
289.98163265306124	290.13256235827663	72	127
290.13256235827663	290.38798185941044	71	127
290.3995918367347	290.88721088435375	71	127
290.3995918367347	292.51260770975057	66	127
290.3995918367347	292.51260770975057	63	127
290.898820861678	291.119410430839	74	127
291.119410430839	291.2471201814059	72	127
291.2471201814059	291.3748299319728	71	127
291.38643990929705	291.65344671201814	71	127
291.65344671201814	291.92049886621317	82	127
291.92049886621317	292.05979591836734	83	127
292.05979591836734	292.21074829931973	81	127
292.21074829931973	292.51260770975057	78	127
292.51260770975057	293.99866213151927	67	127
292.51260770975057	293.99866213151927	64	127
292.51260770975057	293.0350566893424	81	127
293.0350566893424	293.99866213151927	79	127
293.0350566893424	293.30208616780044	67	127
293.30208616780044	293.42979591836735	66	127
293.42979591836735	293.55750566893425	63	127
293.55750566893425	293.99866213151927	66	127
293.99866213151927	294.28893424036283	86	127
293.99866213151927	294.55596371882086	64	127
293.99866213151927	294.55596371882086	66	127
293.99866213151927	294.28893424036283	69	127
294.28893424036283	294.55596371882086	70	127
294.28893424036283	294.42825396825396	84	127
294.42825396825396	294.55596371882086	82	127
294.55596371882086	296.2161904761905	67	127
294.55596371882086	294.9971428571429	84	127
294.55596371882086	295.9491609977324	71	127
294.9971428571429	295.25256235827663	71	127
294.9971428571429	295.6705215419501	83	127
295.25256235827663	295.3686621315193	69	127
295.3686621315193	295.4963718820862	66	127
295.4963718820862	295.6821315192744	69	127
295.6821315192744	295.9491609977324	86	127
295.6821315192744	296.2161904761905	67	127
295.9491609977324	296.22780045351476	89	127
295.9491609977324	296.41356009070296	71	127
296.22780045351476	296.41356009070296	68	127
296.22780045351476	296.3671201814059	88	127
296.22780045351476	296.41356009070296	68	127
296.3671201814059	296.41356009070296	83	127
296.41356009070296	298.3524263038549	69	127
296.41356009070296	298.3524263038549	72	127
296.41356009070296	296.94761904761907	86	127
296.94761904761907	297.1681859410431	69	127
296.94761904761907	297.67902494331065	84	127
297.1681859410431	297.4004081632653	64	127
297.4004081632653	298.3524263038549	65	127
297.67902494331065	297.8067573696145	81	127
297.8067573696145	298.224716553288	81	127
298.224716553288	298.3524263038549	77	127
298.3524263038549	298.7239455782313	77	127
298.3524263038549	298.7239455782313	65	127
298.3524263038549	298.7239455782313	53	127
298.3524263038549	298.7239455782313	65	127
298.7239455782313	298.8516553287982	72	127
298.7239455782313	298.8516553287982	60	127
298.7239455782313	298.8516553287982	48	127
298.7239455782313	298.8516553287982	60	127
298.86326530612246	299.26961451247166	72	127
298.86326530612246	299.26961451247166	60	127
298.86326530612246	299.26961451247166	48	127
298.86326530612246	299.26961451247166	60	127
299.26961451247166	299.3857142857143	69	127
299.26961451247166	299.3857142857143	57	127
299.26961451247166	299.3857142857143	45	127
299.26961451247166	299.3857142857143	57	127
299.39732426303857	299.7107936507937	69	127
299.39732426303857	299.7107936507937	57	127
299.39732426303857	299.7107936507937	45	127
299.7107936507937	299.8268707482993	65	127
299.7107936507937	299.8268707482993	53	127
299.7107936507937	299.8268707482993	41	127
299.8385034013605	300.17519274376417	65	127
299.8385034013605	300.17519274376417	53	127
299.8385034013605	300.17519274376417	41	127
300.17519274376417	300.3029024943311	64	127
300.17519274376417	300.3029024943311	52	127
300.17519274376417	300.3029024943311	40	127
300.3029024943311	300.6163718820862	63	127
300.3029024943311	300.6163718820862	39	127
300.3029024943311	300.6163718820862	51	127
300.7905215419501	301.1156009070295	75	127
300.7905215419501	301.1156009070295	69	127
300.7905215419501	301.1156009070295	60	127
300.7905215419501	301.1156009070295	48	127
301.31297052154196	301.77736961451245	67	127
301.31297052154196	301.77736961451245	59	127
301.31297052154196	301.77736961451245	47	127
301.31297052154196	301.77736961451245	76	127
302.021179138322	302.50879818594103	76	127
302.021179138322	302.50879818594103	46	127
302.021179138322	302.50879818594103	58	127
302.021179138322	302.3810657596372	88	127
302.021179138322	302.50879818594103	67	127
302.3810657596372	302.7526077097506	90	127
302.76421768707485	304.98172335600907	76	127
302.76421768707485	307.81455782312923	47	127
302.76421768707485	307.81455782312923	59	127
302.76421768707485	303.20537414965986	91	127
302.76421768707485	304.98172335600907	64	127
303.20537414965986	303.7394557823129	83	127
303.7394557823129	304.3780045351474	88	127
304.3780045351474	304.99333333333334	91	127
304.99333333333334	307.81455782312923	76	127
304.99333333333334	306.6883900226757	95	127
304.99333333333334	307.81455782312923	67	127
306.7	307.81455782312923	79	127
307.8261678004535	310.42680272108845	75	127
307.8261678004535	308.62725623582764	78	127
307.8261678004535	309.8462811791383	59	127
307.8261678004535	309.8462811791383	47	127
309.85791383219953	310.42680272108845	42	127
309.85791383219953	310.42680272108845	54	127
310.4384126984127	311.6806575963719	86	127
310.4384126984127	311.0885714285714	40	127
310.4384126984127	311.6806575963719	74	127
310.4384126984127	311.0885714285714	52	127
311.6806575963719	312.1682993197279	68	127
311.6806575963719	312.1682993197279	80	127
312.1682993197279	314.42063492063494	55	127
312.1682993197279	313.92140589569163	46	127
312.1682993197279	313.92140589569163	67	127
312.1682993197279	312.59786848072565	79	127
312.1682993197279	314.42063492063494	52	127
312.59786848072565	312.9809977324263	61	127
312.9809977324263	313.1087074829932	62	127
313.1087074829932	313.4918367346939	64	127
313.4918367346939	313.81691609977327	62	127
313.81691609977327	313.92140589569163	61	127
313.92140589569163	314.42063492063494	61	127
313.92140589569163	315.76739229024946	45	127
314.42063492063494	314.8153741496599	74	127
314.42063492063494	315.76739229024946	62	127
314.42063492063494	315.76739229024946	53	127
314.8153741496599	314.8966439909297	76	127
314.8966439909297	315.3378231292517	77	127
315.3378231292517	315.63968253968255	76	127
315.63968253968255	315.76739229024946	74	127
315.76739229024946	318.1009977324263	45	127
315.76739229024946	317.6598185941043	58	127
315.76739229024946	316.2201814058957	67	127
315.76739229024946	316.2201814058957	74	127
316.2201814058957	316.5684807256236	73	127
316.2201814058957	316.5684807256236	64	127
316.5684807256236	316.68458049886624	65	127
316.5684807256236	316.68458049886624	74	127
316.68458049886624	317.13736961451247	76	127
316.68458049886624	317.13736961451247	67	127
317.13736961451247	317.52049886621313	74	127
317.13736961451247	317.52049886621313	65	127
317.52049886621313	317.6598185941043	64	127
317.52049886621313	317.6598185941043	73	127
317.6598185941043	318.1009977324263	67	127
317.6598185941043	318.1009977324263	76	127
317.6598185941043	318.9833560090703	57	127
318.1009977324263	318.3448072562358	65	127
318.1009977324263	318.3448072562358	50	127
318.1009977324263	318.9833560090703	74	127
318.3448072562358	318.484126984127	64	127
318.3448072562358	318.484126984127	52	127
318.484126984127	318.9833560090703	62	127
318.484126984127	318.9833560090703	53	127
318.9833560090703	319.6219047619048	74	127
318.9833560090703	319.30843537414967	62	127
318.9833560090703	319.30843537414967	53	127
318.9833560090703	319.30843537414967	46	127
319.30843537414967	319.3780952380952	64	127
319.30843537414967	319.3780952380952	55	127
319.30843537414967	319.3780952380952	45	127
319.3780952380952	319.8889342403628	45	127
319.3780952380952	319.8889342403628	64	127
319.3780952380952	319.8889342403628	55	127
319.63351473922904	319.8889342403628	73	127
319.8889342403628	320.53909297052155	74	127
319.8889342403628	320.22562358276645	62	127
319.8889342403628	320.22562358276645	53	127
319.8889342403628	320.22562358276645	46	127
320.22562358276645	320.35333333333335	64	127
320.22562358276645	320.35333333333335	55	127
320.22562358276645	320.35333333333335	45	127
320.35333333333335	320.7480725623583	55	127
320.35333333333335	320.7480725623583	45	127
320.35333333333335	320.7480725623583	64	127
320.5507029478458	320.7480725623583	76	127
320.7480725623583	321.2008616780045	61	127
320.7480725623583	321.08473922902493	70	127
320.7480725623583	321.08473922902493	64	127
320.7480725623583	321.08473922902493	55	127
321.08473922902493	321.2008616780045	69	127
321.08473922902493	321.2008616780045	67	127
321.08473922902493	321.2008616780045	52	127
321.2008616780045	321.72331065759636	61	127
321.2008616780045	321.72331065759636	69	127
321.2008616780045	321.72331065759636	64	127
321.2008616780045	321.72331065759636	55	127
321.72331065759636	322.6288662131519	53	127
321.72331065759636	322.06	70	127
321.72331065759636	322.06	73	127
321.72331065759636	322.06	64	127
322.06	322.1993197278912	69	127
322.06	322.1993197278912	74	127
322.06	322.1993197278912	65	127
322.1993197278912	322.6288662131519	69	127
322.1993197278912	322.6288662131519	74	127
322.1993197278912	322.6288662131519	65	127
322.6288662131519	322.98879818594105	52	127
322.6288662131519	322.98879818594105	79	127
322.6288662131519	322.98879818594105	58	127
322.98879818594105	323.1048979591837	76	127
322.98879818594105	323.1048979591837	57	127
322.98879818594105	323.1048979591837	49	127
323.11650793650796	323.604126984127	52	127
323.11650793650796	323.604126984127	79	127
323.11650793650796	323.604126984127	57	127
323.61573696145126	324.7883446712018	50	127
323.61573696145126	324.091746031746	58	127
323.61573696145126	324.091746031746	61	127
323.61573696145126	324.7883446712018	77	127
324.091746031746	324.21945578231293	62	127
324.091746031746	324.21945578231293	57	127
324.21945578231293	324.7883446712018	62	127
324.21945578231293	324.7883446712018	57	127
324.7883446712018	325.415283446712	65	127
324.7883446712018	325.2759637188209	57	127
324.7883446712018	325.2759637188209	45	127
324.7883446712018	325.415283446712	77	127
324.7883446712018	325.415283446712	62	127
325.2759637188209	325.415283446712	56	127
325.2759637188209	325.415283446712	44	127
325.4268934240363	327.3657596371882	65	127
325.4268934240363	325.9261224489796	77	127
325.4268934240363	327.3657596371882	62	127
325.4268934240363	327.3657596371882	74	127
325.4268934240363	327.3657596371882	56	127
325.4268934240363	327.3657596371882	44	127
325.9261224489796	326.28603174603177	74	127
326.28603174603177	326.4021088435374	75	127
326.4021088435374	326.85492063492063	77	127
326.85492063492063	327.2264172335601	74	127
327.2264172335601	327.3657596371882	72	127
327.3657596371882	329.165283446712	55	127
327.3657596371882	327.85337868480724	72	127
327.3657596371882	327.85337868480724	62	127
327.3657596371882	327.85337868480724	74	127
327.3657596371882	329.165283446712	65	127
327.3657596371882	329.165283446712	43	127
327.85337868480724	328.20167800453515	62	127
327.85337868480724	328.7125170068027	71	127
328.20167800453515	328.3177777777778	63	127
328.3177777777778	328.7125170068027	65	127
328.7125170068027	329.0492063492064	62	127
328.7125170068027	329.0492063492064	76	127
329.0492063492064	329.165283446712	77	127
329.0492063492064	329.165283446712	60	127
329.1769160997732	331.1622222222222	44	127
329.1769160997732	329.6645351473923	77	127
329.1769160997732	329.6645351473923	60	127
329.1769160997732	331.1622222222222	56	127
329.1769160997732	331.1622222222222	65	127
329.6645351473923	330.02444444444444	74	127
329.6645351473923	330.6746031746032	59	127
330.02444444444444	330.1637641723356	75	127
330.1637641723356	330.6746031746032	77	127
330.6746031746032	331.0345124716553	59	127
330.6746031746032	331.0345124716553	74	127
331.0345124716553	331.1622222222222	72	127
331.0345124716553	331.1622222222222	60	127
331.1622222222222	333.04303854875286	65	127
331.1622222222222	331.59179138321997	72	127
331.1622222222222	331.59179138321997	74	127
331.1622222222222	331.59179138321997	62	127
331.1622222222222	333.04303854875286	55	127
331.1622222222222	333.04303854875286	43	127
331.59179138321997	331.96331065759637	62	127
331.59179138321997	332.56702947845804	71	127
331.96331065759637	332.079410430839	63	127
332.079410430839	332.56702947845804	65	127
332.56702947845804	332.95013605442176	62	127
332.56702947845804	332.95013605442176	76	127
332.95013605442176	333.04303854875286	77	127
332.95013605442176	333.04303854875286	60	127
333.05462585034013	333.5770975056689	60	127
333.05462585034013	333.44938775510207	77	127
333.44938775510207	333.5770975056689	74	127
333.5770975056689	333.92539682539683	62	127
333.5770975056689	333.92539682539683	77	127
333.5770975056689	333.92539682539683	59	127
333.5770975056689	333.92539682539683	55	127
333.5770975056689	333.9718140589569	59	127
333.9718140589569	334.09954648526076	66	127
334.09954648526076	334.5639455782313	66	127
334.5755555555556	334.8774149659864	55	127
334.5755555555556	334.8774149659864	62	127
334.5755555555556	334.8774149659864	47	127
334.5755555555556	334.8774149659864	74	127
334.5755555555556	334.92385487528344	67	127
334.92385487528344	335.05156462585035	65	127
335.05156462585035	335.4695238095238	65	127
335.4811337868481	335.9455328798186	48	127
335.4811337868481	335.8410430839002	76	127
335.4811337868481	335.9455328798186	64	127
335.4811337868481	335.9455328798186	55	127
335.8410430839002	335.9455328798186	88	127
335.9455328798186	336.36349206349206	88	127
336.37510204081633	336.8046712018141	55	127
336.37510204081633	336.67696145124717	86	127
336.37510204081633	336.8046712018141	52	127
336.37510204081633	336.8046712018141	67	127
336.67696145124717	336.8046712018141	84	127
336.8046712018141	337.31551020408165	84	127
337.08331065759637	337.18780045351474	71	127
337.18780045351474	337.3271201814059	72	127
337.3271201814059	337.8379591836735	59	127
337.3271201814059	337.46643990929704	74	127
337.3271201814059	337.8379591836735	83	127
337.3271201814059	337.8379591836735	62	127
337.3271201814059	337.8379591836735	55	127
337.46643990929704	337.59414965986394	73	127
337.59414965986394	337.72185941043085	74	127
337.72185941043085	337.8379591836735	66	127
337.8379591836735	338.2443083900227	67	127
338.081768707483	338.1746485260771	78	127
338.1746485260771	338.2443083900227	79	127
338.2443083900227	338.72031746031746	67	127
338.2443083900227	338.36040816326533	81	127
338.2443083900227	338.72031746031746	62	127
338.2443083900227	338.72031746031746	59	127
338.36040816326533	338.4648752834467	80	127
338.4648752834467	338.59260770975055	81	127
338.59260770975055	338.72031746031746	77	127
338.73192743764173	338.85963718820864	77	127
338.85963718820864	338.95251700680274	75	127
338.95251700680274	339.03378684807257	76	127
339.03378684807257	339.1150566893424	77	127
339.1150566893424	339.5910430839002	60	127
339.1150566893424	339.23115646258503	78	127
339.1150566893424	339.5910430839002	67	127
339.1150566893424	339.5910430839002	64	127
339.23115646258503	339.3472562358277	79	127
339.3472562358277	339.48657596371885	80	127
339.48657596371885	339.60267573696143	81	127
339.60267573696143	339.73038548752834	82	127
339.73038548752834	339.81165532879817	83	127
339.81165532879817	339.89292517006805	84	127
339.89292517006805	340.0206349206349	85	127
340.0206349206349	340.4618140589569	60	127
340.0206349206349	340.13673469387754	86	127
340.0206349206349	340.4618140589569	67	127
340.0206349206349	340.4618140589569	72	127
340.0206349206349	340.4618140589569	52	127
340.13673469387754	340.1599546485261	88	127
340.1599546485261	340.33410430839	86	127
340.33410430839	340.4618140589569	84	127
340.4734240362812	340.6011337868481	72	127
340.4734240362812	340.6011337868481	84	127
340.4734240362812	340.6011337868481	69	127
340.4734240362812	340.67079365079366	53	127
340.6011337868481	340.71721088435373	68	127
340.6011337868481	340.71721088435373	83	127
340.6011337868481	340.71721088435373	71	127
340.71721088435373	340.85655328798185	72	127
340.71721088435373	340.85655328798185	84	127
340.71721088435373	340.85655328798185	69	127
340.71721088435373	340.90299319727893	41	127
340.85655328798185	340.94943310657595	69	127
340.85655328798185	340.94943310657595	69	127
340.85655328798185	340.94943310657595	65	127
340.94943310657595	341.1351700680272	53	127
340.94943310657595	341.1351700680272	81	127
340.94943310657595	341.1351700680272	65	127
340.94943310657595	341.1351700680272	69	127
341.20485260770977	341.3790022675737	69	127
341.20485260770977	341.3790022675737	81	127
341.20485260770977	341.3790022675737	65	127
341.20485260770977	341.3790022675737	41	127
341.4254421768708	341.5531519274376	69	127
341.4254421768708	341.5183219954649	81	127
341.4254421768708	341.5183219954649	65	127
341.4254421768708	341.5531519274376	53	127
341.5183219954649	341.62281179138324	80	127
341.5183219954649	341.62281179138324	64	127
341.62281179138324	341.7853514739229	50	127
341.62281179138324	341.7505215419501	81	127
341.62281179138324	341.7505215419501	65	127
341.62281179138324	341.7853514739229	50	127
341.7505215419501	341.83179138322	77	127
341.83179138322	341.99433106575964	62	127
341.83179138322	341.99433106575964	77	127
341.83179138322	341.99433106575964	65	127
341.83179138322	341.99433106575964	62	127
342.052358276644	342.2265306122449	50	127
342.052358276644	342.2265306122449	77	127
342.052358276644	342.2265306122449	65	127
342.052358276644	342.2265306122449	50	127
342.2961904761905	342.5051700680272	62	127
342.2961904761905	342.40068027210884	77	127
342.2961904761905	342.40068027210884	65	127
342.2961904761905	342.4471201814059	62	127
342.40068027210884	342.5051700680272	76	127
342.40068027210884	342.5051700680272	64	127
342.5051700680272	342.6328798185941	74	127
342.5051700680272	342.6328798185941	77	127
342.5051700680272	342.6328798185941	65	127
342.5051700680272	342.6909297052154	47	127
342.6328798185941	342.7373696145125	71	127
342.6328798185941	342.7373696145125	74	127
342.6328798185941	342.7373696145125	62	127
342.74897959183676	342.93473922902496	62	127
342.74897959183676	342.93473922902496	74	127
342.74897959183676	342.93473922902496	71	127
342.74897959183676	342.93473922902496	55	127
343.0043990929705	343.15532879818596	43	127
343.0043990929705	343.15532879818596	74	127
343.0043990929705	343.15532879818596	62	127
343.0043990929705	343.15532879818596	71	127
343.21337868480725	343.3178684807256	71	127
343.21337868480725	343.30625850340135	74	127
343.21337868480725	343.30625850340135	62	127
343.21337868480725	343.3178684807256	55	127
343.30625850340135	343.3875283446712	73	127
343.30625850340135	343.3875283446712	61	127
343.3875283446712	343.56167800453517	59	127
343.3875283446712	343.5036281179138	74	127
343.3875283446712	343.5036281179138	62	127
343.3875283446712	343.56167800453517	43	127
343.5036281179138	343.61972789115646	71	127
343.5036281179138	343.61972789115646	59	127
343.6313378684807	343.8287074829932	74	127
343.6313378684807	343.8287074829932	71	127
343.6313378684807	343.8287074829932	59	127
343.6313378684807	343.8287074829932	55	127
343.88673469387754	344.084126984127	74	127
343.88673469387754	344.084126984127	81	127
343.88673469387754	344.084126984127	57	127
343.88673469387754	344.084126984127	53	127
344.16539682539684	344.4556462585034	62	127
344.16539682539684	344.4556462585034	81	127
344.16539682539684	344.4556462585034	69	127
344.16539682539684	344.4556462585034	53	127
344.75750566893424	346.2203628117914	52	127
344.75750566893424	345.03614512471654	83	127
344.75750566893424	345.03614512471654	68	127
344.75750566893424	345.03614512471654	52	127
345.19868480725626	345.3380045351474	71	127
345.3380045351474	345.628231292517	76	127
345.7791836734694	346.1855328798186	76	127
346.2319727891157	346.38290249433106	64	127
346.38290249433106	347.05625850340135	76	127
346.38290249433106	346.7195918367347	69	127
346.8705215419501	347.14916099773245	69	127
347.05625850340135	347.1956009070295	74	127
347.1956009070295	347.3233106575964	72	127
347.1956009070295	347.33492063492065	72	127
347.33492063492065	347.52068027210885	69	127
347.33492063492065	347.52068027210885	72	127
347.33492063492065	347.61356009070295	77	127
347.57873015873014	347.7180498866213	69	127
347.57873015873014	347.7180498866213	72	127
347.79931972789115	348.0895691609977	77	127
347.79931972789115	347.9386394557823	72	127
347.79931972789115	347.9386394557823	69	127
347.9386394557823	348.0431292517007	74	127
347.9386394557823	348.0431292517007	71	127
348.0431292517007	348.2172789115646	69	127
348.0431292517007	348.2172789115646	72	127
348.2288888888889	348.7165079365079	69	127
348.2288888888889	348.7165079365079	72	127
348.2288888888889	348.9951473922903	77	127
348.7281179138322	349.2621768707483	68	127
348.7281179138322	348.92548752834466	71	127
348.9951473922903	349.1344671201814	76	127
348.9951473922903	349.19251700680275	71	127
349.1344671201814	349.2621768707483	74	127
349.1344671201814	349.2737868480726	47	127
349.2737868480726	349.4595464852608	71	127
349.2737868480726	349.4595464852608	74	127
349.2737868480726	349.6104535147392	52	127
349.52920634920633	349.69174603174605	74	127
349.52920634920633	349.69174603174605	71	127
349.7730158730159	350.06326530612245	52	127
349.7730158730159	349.8891156462585	74	127
349.7730158730159	349.8891156462585	71	127
349.8891156462585	349.9936054421769	76	127
349.8891156462585	349.9936054421769	72	127
349.9936054421769	350.2374149659864	71	127
349.9936054421769	350.2374149659864	74	127
350.1097052154195	350.24902494331064	64	127
350.24902494331064	350.4812244897959	52	127
350.24902494331064	350.41156462585036	72	127
350.24902494331064	350.41156462585036	69	127
350.24902494331064	350.57410430839	76	127
350.4812244897959	350.6785941043084	72	127
350.4812244897959	350.6785941043084	67	127
350.4812244897959	350.74825396825395	48	127
350.74825396825395	350.9920634920635	48	127
350.74825396825395	351.0849433106576	76	127
350.74825396825395	350.8643537414966	72	127
350.74825396825395	350.8643537414966	67	127
350.8643537414966	351.00367346938776	71	127
350.8643537414966	351.00367346938776	65	127
351.00367346938776	351.2474603174603	64	127
351.00367346938776	351.2474603174603	72	127
351.00367346938776	351.2474603174603	48	127
351.2474603174603	351.51451247165534	88	127
351.2474603174603	351.4448526077098	72	127
351.2474603174603	351.4448526077098	67	127
351.2474603174603	351.51451247165534	45	127
351.2474603174603	351.51451247165534	76	127
351.51451247165534	351.7699319727891	57	127
351.51451247165534	351.64222222222224	86	127
351.51451247165534	351.64222222222224	74	127
351.51451247165534	351.70027210884354	67	127
351.64222222222224	351.7699319727891	84	127
351.64222222222224	351.7699319727891	72	127
351.79315192743763	352.0834013605442	67	127
351.79315192743763	351.9324716553288	84	127
351.79315192743763	351.9324716553288	72	127
351.79315192743763	352.0834013605442	57	127
351.9324716553288	352.0834013605442	86	127
351.9324716553288	352.0834013605442	74	127
352.0834013605442	352.4317006802721	72	127
352.0834013605442	352.4317006802721	84	127
352.0834013605442	352.4317006802721	66	127
352.0834013605442	352.4317006802721	57	127
352.4317006802721	352.9425396825397	62	127
352.4317006802721	352.9425396825397	72	127
352.4317006802721	352.9425396825397	67	127
352.4317006802721	352.9425396825397	43	127
352.9425396825397	353.0702494331066	62	127
352.9425396825397	353.0702494331066	70	127
352.9425396825397	353.0702494331066	55	127
352.9425396825397	353.0702494331066	53	127
353.08185941043087	353.4765986394558	65	127
353.08185941043087	353.4765986394558	71	127
353.08185941043087	353.4765986394558	62	127
353.4765986394558	353.59269841269844	55	127
353.4765986394558	353.59269841269844	74	127
353.4765986394558	353.59269841269844	59	127
353.59269841269844	353.95260770975057	55	127
353.59269841269844	353.95260770975057	71	127
353.59269841269844	353.95260770975057	67	127
353.59269841269844	353.95260770975057	43	127
353.95260770975057	354.0687074829932	48	127
353.95260770975057	354.0687074829932	72	127
353.95260770975057	354.0687074829932	55	127
353.95260770975057	354.0687074829932	52	127
354.0803174603175	354.4750566893424	64	127
354.0803174603175	354.4750566893424	72	127
354.0803174603175	354.4750566893424	67	127
354.4750566893424	354.6027664399093	55	127
354.4750566893424	354.6027664399093	73	127
354.4750566893424	354.6027664399093	64	127
354.6027664399093	354.99750566893425	43	127
354.6027664399093	354.99750566893425	73	127
354.6027664399093	354.99750566893425	67	127
354.6027664399093	354.99750566893425	65	127
354.99750566893425	355.1716553287982	55	127
354.99750566893425	355.1716553287982	74	127
354.99750566893425	355.1716553287982	65	127
354.99750566893425	355.1716553287982	47	127
355.1716553287982	355.5663945578231	67	127
355.1716553287982	355.5663945578231	74	127
355.1716553287982	355.5663945578231	65	127
355.5663945578231	355.6708843537415	65	127
355.5663945578231	355.6708843537415	75	127
355.5663945578231	355.6708843537415	55	127
355.68249433106575	356.10045351473923	67	127
355.68249433106575	356.10045351473923	43	127
355.68249433106575	356.10045351473923	60	127
355.68249433106575	356.10045351473923	75	127
356.10045351473923	356.21655328798187	60	127
356.10045351473923	356.21655328798187	76	127
356.10045351473923	356.21655328798187	55	127
356.10045351473923	356.21655328798187	48	127
356.22816326530614	356.6112925170068	58	127
356.22816326530614	356.6112925170068	76	127
356.22816326530614	356.6112925170068	72	127
356.22816326530614	356.6112925170068	67	127
356.6112925170068	356.71578231292517	60	127
356.6112925170068	356.71578231292517	77	127
356.6112925170068	356.71578231292517	65	127
356.6112925170068	356.71578231292517	57	127
356.72739229024944	357.1105215419501	65	127
356.72739229024944	357.1105215419501	77	127
356.72739229024944	357.1105215419501	72	127
356.72739229024944	357.1105215419501	57	127
357.1105215419501	357.22662131519274	60	127
357.1105215419501	357.22662131519274	78	127
357.1105215419501	357.22662131519274	66	127
357.1105215419501	357.22662131519274	56	127
357.238231292517	357.63297052154195	60	127
357.238231292517	357.63297052154195	78	127
357.238231292517	357.63297052154195	72	127
357.238231292517	357.63297052154195	56	127
357.63297052154195	357.76068027210886	52	127
357.63297052154195	357.76068027210886	79	127
357.63297052154195	357.76068027210886	64	127
357.63297052154195	357.76068027210886	55	127
357.7839002267574	358.1554195011338	52	127
357.7839002267574	358.1554195011338	79	127
357.7839002267574	358.1554195011338	64	127
357.7839002267574	358.1554195011338	55	127
358.1554195011338	358.27151927437643	58	127
358.1554195011338	358.27151927437643	80	127
358.1554195011338	358.27151927437643	70	127
358.1554195011338	358.27151927437643	52	127
358.2831292517007	358.6894784580499	58	127
358.2831292517007	358.6894784580499	80	127
358.2831292517007	358.6894784580499	70	127
358.2831292517007	358.6894784580499	52	127
358.6894784580499	358.8171655328798	69	127
358.6894784580499	358.8171655328798	81	127
358.6894784580499	358.8171655328798	57	127
358.6894784580499	358.8171655328798	53	127
358.828798185941	359.21192743764175	53	127
358.828798185941	359.21192743764175	81	127
358.828798185941	359.21192743764175	69	127
358.828798185941	359.21192743764175	57	127
359.21192743764175	359.3280045351474	56	127
359.21192743764175	359.3280045351474	83	127
359.21192743764175	359.3280045351474	62	127
359.21192743764175	359.3280045351474	41	127
359.3396371882086	359.76920634920634	56	127
359.3396371882086	359.76920634920634	83	127
359.3396371882086	359.76920634920634	62	127
359.3396371882086	359.76920634920634	41	127
359.76920634920634	359.95496598639454	57	127
359.76920634920634	359.95496598639454	84	127
359.76920634920634	359.95496598639454	63	127
359.76920634920634	359.95496598639454	42	127
359.95496598639454	360.593514739229	57	127
359.95496598639454	360.593514739229	84	127
359.95496598639454	360.593514739229	63	127
359.95496598639454	360.593514739229	42	127
360.593514739229	360.84893424036284	55	127
360.593514739229	360.84893424036284	72	127
360.593514739229	360.84893424036284	64	127
360.593514739229	360.84893424036284	43	127
360.98825396825396	362.0215419501134	55	127
360.98825396825396	362.0215419501134	76	127
360.98825396825396	362.0215419501134	64	127
360.98825396825396	362.0215419501134	43	127
362.0215419501134	362.2421315192744	59	127
362.0215419501134	362.2421315192744	74	127
362.0215419501134	362.2421315192744	65	127
362.0215419501134	362.2421315192744	55	127
362.25374149659865	362.7645804988662	48	127
362.4278911564626	362.5904308390023	69	127
362.5904308390023	362.7645804988662	67	127
362.7645804988662	363.2638095238095	60	127
362.9271201814059	363.10126984126987	57	127
363.10126984126987	363.2638095238095	55	127
363.2754195011338	363.89074829931974	48	127
363.5076190476191	363.7165986394558	69	127
363.6353287981859	363.89074829931974	60	127
363.7398185941043	363.89074829931974	67	127
363.89074829931974	364.4131972789116	60	127
363.89074829931974	364.15777777777777	62	127
364.06489795918367	364.23902494331065	69	127
364.15777777777777	364.4131972789116	64	127
364.23902494331065	364.4131972789116	67	127
364.4131972789116	365.34199546485263	65	127
364.4131972789116	364.9356462585034	62	127
364.4131972789116	364.9356462585034	55	127
364.5873469387755	364.7498639455782	69	127
364.76149659863944	364.9356462585034	67	127
364.9472335600907	365.4697052154195	59	127
365.1214058956916	365.29555555555555	60	127
365.29555555555555	365.4697052154195	59	127
365.34199546485263	365.4697052154195	64	127
365.4697052154195	366.01537414965986	55	127
365.4697052154195	365.9457142857143	62	127
365.6786848072562	365.84122448979593	69	127
365.7599546485261	366.02698412698413	74	127
365.8528344671202	366.01537414965986	67	127
366.02698412698413	366.5378231292517	59	127
366.02698412698413	366.28238095238095	76	127
366.02698412698413	366.4565532879819	62	127
366.1895238095238	366.3636734693878	60	127
366.28238095238095	366.5378231292517	77	127
366.3636734693878	366.5378231292517	59	127
366.5378231292517	367.0022222222222	55	127
366.5378231292517	367.0022222222222	77	127
366.5378231292517	367.0022222222222	65	127
366.70036281179136	366.8629024943311	69	127
366.87451247165535	367.0022222222222	67	127
367.01383219954647	367.2692517006803	64	127
367.01383219954647	367.2692517006803	76	127
367.01383219954647	367.5362811791383	60	127
367.18798185941046	367.3621315192744	55	127
367.2692517006803	367.5362811791383	62	127
367.2692517006803	367.5362811791383	74	127
367.3621315192744	367.5362811791383	53	127
367.5362811791383	368.0355102040816	52	127
367.5362811791383	368.0355102040816	72	127
367.5362811791383	368.0355102040816	60	127
367.7104081632653	367.8845804988662	69	127
367.8845804988662	368.0355102040816	67	127
368.0471201814059	368.56956916099773	60	127
368.0471201814059	368.314149659864	74	127
368.0471201814059	368.314149659864	62	127
368.2328798185941	368.3954195011338	50	127
368.314149659864	368.56956916099773	64	127
368.314149659864	368.56956916099773	76	127
368.40702947845807	368.56956916099773	48	127
368.56956916099773	369.05718820861676	59	127
368.56956916099773	369.37065759637187	62	127
368.56956916099773	369.37065759637187	74	127
368.56956916099773	369.05718820861676	50	127
368.74371882086166	368.91786848072564	69	127
368.91786848072564	369.05718820861676	67	127
369.06879818594103	369.63768707482996	59	127
369.23133786848075	369.45190476190476	60	127
369.37065759637187	369.63768707482996	67	127
369.37065759637187	369.63768707482996	71	127
369.46353741496597	369.63768707482996	59	127
369.63768707482996	370.36909297052154	72	127
369.63768707482996	370.13691609977326	57	127
369.63768707482996	370.36909297052154	66	127
369.63768707482996	370.13691609977326	50	127
369.8118367346939	369.9859863945578	67	127
369.9859863945578	370.13691609977326	66	127
370.13691609977326	370.63614512471656	60	127
370.28784580498865	370.45038548752837	62	127
370.36909297052154	370.63614512471656	69	127
370.36909297052154	370.63614512471656	66	127
370.46199546485263	370.63614512471656	60	127
370.64775510204083	371.1934013605442	59	127
370.64775510204083	370.92639455782313	69	127
370.64775510204083	371.1934013605442	55	127
370.82190476190476	371.01927437641723	69	127
370.9380045351474	371.1934013605442	67	127
370.9380045351474	371.1934013605442	67	127
371.01927437641723	371.1934013605442	67	127
371.1934013605442	371.77392290249435	59	127
371.1934013605442	371.4836734693878	67	127
371.1934013605442	371.4836734693878	71	127
371.36757369614514	371.5649433106576	55	127
371.4836734693878	371.7855328798186	74	127
371.4836734693878	371.77392290249435	67	127
371.5765532879819	371.77392290249435	53	127
371.7855328798186	372.05256235827665	79	127
371.7855328798186	372.05256235827665	67	127
371.7855328798186	372.3428117913832	52	127
371.95968253968255	372.14544217687074	69	127
372.05256235827665	372.3428117913832	67	127
372.05256235827665	372.3428117913832	79	127
372.157052154195	372.3428117913832	67	127
372.3428117913832	372.9349206349206	60	127
372.3428117913832	372.6330612244898	81	127
372.3428117913832	372.6330612244898	69	127
372.5401814058957	372.73755102040815	62	127
372.6330612244898	372.9349206349206	70	127
372.6330612244898	372.9349206349206	82	127
372.73755102040815	372.9349206349206	60	127
372.9465306122449	373.86371882086166	70	127
372.9465306122449	373.434126984127	52	127
372.9465306122449	373.86371882086166	82	127
373.13226757369614	373.2948299319728	69	127
373.2948299319728	373.434126984127	67	127
373.434126984127	373.9798185941043	60	127
373.6082993197279	373.8056689342404	62	127
373.81727891156464	373.9798185941043	60	127
373.86371882086166	373.9798185941043	81	127
373.86371882086166	373.9798185941043	69	127
373.99142857142857	374.50226757369614	52	127
373.99142857142857	374.4209977324263	80	127
373.99142857142857	374.4209977324263	68	127
374.1655782312925	374.3281179138322	62	127
374.3281179138322	374.50226757369614	60	127
374.50226757369614	375.0479365079365	68	127
374.50226757369614	375.1175963718821	60	127
374.50226757369614	375.0479365079365	80	127
374.68802721088434	374.9550566893424	62	127
374.9550566893424	375.1175963718821	60	127
375.12920634920636	375.6516553287982	53	127
375.12920634920636	375.6516553287982	82	127
375.12920634920636	375.6516553287982	70	127
375.3033560090703	375.47748299319727	74	127
375.4891156462585	375.6516553287982	72	127
375.6516553287982	376.1857142857143	65	127
375.6516553287982	375.9302947845805	81	127
375.6516553287982	375.9302947845805	69	127
375.8258049886621	376.0115646258503	62	127
375.9302947845805	376.1857142857143	79	127
375.9302947845805	376.1857142857143	67	127
376.0115646258503	376.1857142857143	60	127
376.1857142857143	376.6965532879819	77	127
376.1857142857143	376.6965532879819	53	127
376.1857142857143	376.6965532879819	57	127
376.1857142857143	376.6965532879819	65	127
376.35986394557824	376.5224036281179	74	127
376.53401360544217	376.6965532879819	72	127
376.70814058956915	377.2422222222222	65	127
376.70814058956915	376.98680272108845	79	127
376.70814058956915	376.98680272108845	67	127
376.8823129251701	377.056462585034	62	127
376.98680272108845	377.2422222222222	69	127
376.98680272108845	377.2422222222222	81	127
377.0680725623583	377.2422222222222	60	127
377.2538321995465	377.83430839002267	64	127
377.2538321995465	377.83430839002267	55	127
377.2538321995465	378.11297052154197	79	127
377.2538321995465	378.11297052154197	67	127
377.4628117913832	377.63696145124715	74	127
377.6485714285714	377.83430839002267	72	127
377.83430839002267	378.38	64	127
378.02009070294787	378.1942403628118	62	127
378.11297052154197	378.38	64	127
378.11297052154197	378.38	76	127
378.21746031746034	378.38	60	127
378.38	378.9256689342404	55	127
378.38	379.1926984126984	77	127
378.38	379.1926984126984	65	127
378.57736961451246	378.75149659863945	72	127
378.75149659863945	378.9256689342404	71	127
378.9256689342404	379.4597278911565	65	127
379.1114285714286	379.2855782312925	64	127
379.1926984126984	379.4597278911565	59	127
379.1926984126984	379.4597278911565	71	127
379.2855782312925	379.4597278911565	62	127
379.47131519274376	380.2956462585034	43	127
379.47131519274376	379.65709750566896	76	127
379.47131519274376	380.2956462585034	55	127
379.65709750566896	379.7848072562358	71	127
379.703537414966	379.87766439909296	74	127
379.7848072562358	379.924126984127	72	127
379.87766439909296	380.0518367346939	72	127
379.924126984127	380.0518367346939	74	127
380.0518367346939	380.1795238095238	76	127
380.0518367346939	380.57428571428574	64	127
380.1795238095238	380.3188662131519	77	127
380.3188662131519	380.57428571428574	40	127
380.3188662131519	380.4581859410431	78	127
380.3188662131519	380.57428571428574	52	127
380.4581859410431	380.57428571428574	79	127
380.57428571428574	380.8645351473923	41	127
380.57428571428574	380.7368253968254	81	127
380.57428571428574	380.8645351473923	53	127
380.7368253968254	380.8645351473923	79	127
380.7832653061225	380.94580498866213	72	127
380.8645351473923	381.13156462585033	50	127
380.8645351473923	380.9922448979592	78	127
380.8645351473923	381.13156462585033	38	127
380.94580498866213	381.11995464852606	71	127
380.9922448979592	381.13156462585033	79	127
381.13156462585033	381.43342403628117	53	127
381.13156462585033	381.29410430839005	81	127
381.13156462585033	381.43342403628117	62	127
381.13156462585033	381.43342403628117	65	127
381.29410430839005	381.43342403628117	79	127
381.43342403628117	381.57274376417234	81	127
381.43342403628117	381.735283446712	47	127
381.43342403628117	381.57274376417234	77	127
381.43342403628117	381.735283446712	59	127
381.57274376417234	381.735283446712	74	127
381.57274376417234	381.735283446712	77	127
381.7468934240363	382.29256235827665	76	127
381.7468934240363	382.29256235827665	48	127
381.7468934240363	382.02553287981857	60	127
381.7468934240363	382.29256235827665	72	127
382.02553287981857	382.1532426303855	62	127
382.1532426303855	382.3041723356009	60	127
382.3041723356009	382.82662131519277	65	127
382.3041723356009	382.5828117913832	59	127
382.3041723356009	383.8715192743764	55	127
382.3041723356009	382.82662131519277	74	127
382.5828117913832	382.71052154195013	60	127
382.71052154195013	382.838231292517	62	127
382.838231292517	383.0820408163265	60	127
382.838231292517	383.0820408163265	64	127
382.838231292517	383.33746031746034	72	127
382.838231292517	383.33746031746034	64	127
383.0820408163265	383.20975056689343	65	127
383.0820408163265	383.20975056689343	62	127
383.20975056689343	383.34907029478455	64	127
383.20975056689343	383.34907029478455	60	127
383.34907029478455	383.61609977324264	59	127
383.34907029478455	383.61609977324264	62	127
383.34907029478455	383.8715192743764	65	127
383.34907029478455	383.8715192743764	67	127
383.61609977324264	383.7554195011338	64	127
383.61609977324264	383.7554195011338	60	127
383.7554195011338	383.8715192743764	65	127
383.7554195011338	383.8715192743764	62	127
383.88312925170067	384.3591383219955	64	127
383.88312925170067	384.3591383219955	67	127
383.88312925170067	384.1269387755102	72	127
383.88312925170067	384.3591383219955	55	127
384.1269387755102	384.2546485260771	74	127
384.2546485260771	384.3707482993197	72	127
384.3707482993197	384.8467573696145	62	127
384.3707482993197	384.61455782312925	71	127
384.3707482993197	384.61455782312925	67	127
384.3707482993197	384.8467573696145	65	127
384.61455782312925	384.7306575963719	72	127
384.61455782312925	384.7306575963719	69	127
384.7306575963719	384.8467573696145	71	127
384.7306575963719	384.8467573696145	74	127
384.8467573696145	385.3575963718821	64	127
384.8467573696145	385.1021768707483	76	127
384.8467573696145	385.1021768707483	72	127
384.8467573696145	385.3575963718821	60	127
385.1021768707483	385.2298866213152	74	127
385.1021768707483	385.2298866213152	77	127
385.2298866213152	385.3575963718821	76	127
385.2298866213152	385.3575963718821	72	127
385.3575963718821	385.84521541950113	62	127
385.3575963718821	385.5897959183674	74	127
385.3575963718821	385.5897959183674	71	127
385.3575963718821	385.84521541950113	59	127
385.5897959183674	385.7175056689342	72	127
385.5897959183674	385.7175056689342	76	127
385.7175056689342	385.84521541950113	77	127
385.7175056689342	385.84521541950113	74	127
385.84521541950113	386.55342403628117	79	127
385.84521541950113	386.0890249433107	76	127
385.84521541950113	386.0890249433107	48	127
385.84521541950113	386.0890249433107	60	127
386.10063492063495	386.2167346938775	60	127
386.10063492063495	386.43732426303853	64	127
386.2167346938775	386.3096145124717	62	127
386.3096145124717	386.82045351473926	48	127
386.3096145124717	386.56503401360544	64	127
386.43732426303853	386.56503401360544	55	127
386.56503401360544	386.6811337868481	65	127
386.56503401360544	386.6811337868481	79	127
386.56503401360544	386.6811337868481	64	127
386.6811337868481	386.82045351473926	62	127
386.6811337868481	386.82045351473926	77	127
386.6811337868481	386.82045351473926	67	127
386.82045351473926	387.1107029478458	69	127
386.82045351473926	387.1107029478458	60	127
386.82045351473926	387.5867120181406	76	127
387.1223129251701	387.25002267573694	69	127
387.1223129251701	387.4938321995465	72	127
387.25002267573694	387.3661224489796	71	127
387.3661224489796	387.96984126984125	72	127
387.3661224489796	387.8421315192744	36	127
387.4938321995465	387.59832199546486	60	127
387.59832199546486	387.72603174603177	72	127
387.59832199546486	387.72603174603177	88	127
387.72603174603177	387.8421315192744	71	127
387.72603174603177	387.8421315192744	86	127
387.8421315192744	388.6548299319728	84	127
387.8421315192744	388.09755102040816	69	127
387.96984126984125	388.10916099773243	60	127
388.10916099773243	388.23687074829934	62	127
388.10916099773243	388.4806802721088	81	127
388.23687074829934	388.352970521542	64	127
388.352970521542	388.8986394557823	53	127
388.352970521542	389.0263492063492	65	127
388.4806802721088	388.6548299319728	69	127
388.6548299319728	388.78253968253966	84	127
388.6548299319728	388.78253968253966	81	127
388.78253968253966	388.91024943310657	83	127
388.78253968253966	388.91024943310657	79	127
388.91024943310657	389.0263492063492	77	127
388.91024943310657	389.0263492063492	81	127
389.0263492063492	389.1540589569161	62	127
389.0263492063492	389.1540589569161	83	127
389.0263492063492	389.1540589569161	79	127
389.1540589569161	389.29337868480724	64	127
389.1540589569161	389.29337868480724	81	127
389.1540589569161	389.29337868480724	77	127
389.29337868480724	389.86226757369616	43	127
389.29337868480724	389.4326984126984	79	127
389.29337868480724	389.4326984126984	76	127
389.29337868480724	389.4326984126984	65	127
389.4326984126984	389.5720181405896	77	127
389.4326984126984	389.5720181405896	74	127
389.4326984126984	389.6300680272109	67	127
389.5720181405896	389.722947845805	76	127
389.5720181405896	389.722947845805	73	127
389.722947845805	389.8738775510204	74	127
389.722947845805	389.8738775510204	77	127
389.722947845805	389.95514739229026	55	127
389.8738775510204	390.0248072562358	74	127
389.8738775510204	390.0248072562358	71	127
390.0364172335601	390.28022675736963	36	127
390.0364172335601	390.5240362811791	76	127
390.0364172335601	390.5240362811791	67	127
390.0364172335601	392.5093424036281	79	127
390.28022675736963	390.4079365079365	62	127
390.4079365079365	390.5356462585034	60	127
390.5356462585034	391.0232653061224	65	127
390.5356462585034	390.77945578231294	59	127
390.5356462585034	391.0232653061224	74	127
390.77945578231294	390.90716553287984	60	127
390.90716553287984	391.0348752834467	62	127
391.0348752834467	391.27868480725624	64	127
391.0348752834467	391.27868480725624	64	127
391.0348752834467	391.5224943310658	72	127
391.27868480725624	391.40639455782315	65	127
391.27868480725624	391.40639455782315	62	127
391.40639455782315	391.53410430839	64	127
391.40639455782315	391.53410430839	60	127
391.53410430839	392.0101133786848	67	127
391.53410430839	391.77791383219954	59	127
391.53410430839	391.77791383219954	62	127
391.77791383219954	391.90562358276645	60	127
391.77791383219954	391.90562358276645	64	127
391.90562358276645	392.0101133786848	62	127
391.90562358276645	392.0101133786848	65	127
392.0217233560091	392.5093424036281	64	127
392.0217233560091	392.2655328798186	72	127
392.0217233560091	392.5093424036281	55	127
392.2655328798186	392.3932426303855	74	127
392.3932426303855	392.5093424036281	72	127
392.5093424036281	392.9853514739229	53	127
392.5093424036281	392.7647619047619	79	127
392.5093424036281	392.7647619047619	71	127
392.5093424036281	392.9853514739229	62	127
392.7647619047619	392.857641723356	72	127
392.7647619047619	392.857641723356	81	127
392.857641723356	392.9853514739229	74	127
392.857641723356	392.9853514739229	83	127
392.9853514739229	393.2407709750567	76	127
392.9853514739229	393.4845804988662	84	127
392.9853514739229	393.4845804988662	52	127
392.9853514739229	393.4845804988662	60	127
393.2407709750567	393.35687074829934	77	127
393.35687074829934	393.4845804988662	76	127
393.4845804988662	393.8444897959184	55	127
393.4845804988662	393.72839002267574	83	127
393.4845804988662	393.72839002267574	74	127
393.4845804988662	393.72839002267574	53	127
393.72839002267574	393.8444897959184	84	127
393.72839002267574	393.8444897959184	76	127
393.72839002267574	393.8444897959184	52	127
393.8444897959184	393.9721995464853	50	127
393.8444897959184	393.9721995464853	86	127
393.8444897959184	393.9721995464853	77	127
393.8444897959184	393.9721995464853	53	127
393.9721995464853	394.22761904761904	52	127
393.9721995464853	394.22761904761904	79	127
393.9721995464853	394.22761904761904	48	127
393.9721995464853	394.7152380952381	88	127
394.22761904761904	394.3437188208617	52	127
394.22761904761904	394.3437188208617	48	127
394.22761904761904	394.59913832199544	67	127
394.3437188208617	394.4714285714286	53	127
394.3437188208617	394.4714285714286	50	127
394.4714285714286	394.72684807256235	55	127
394.4714285714286	394.72684807256235	52	127
394.59913832199544	394.72684807256235	55	127
394.72684807256235	394.842947845805	67	127
394.72684807256235	394.842947845805	88	127
394.72684807256235	394.842947845805	57	127
394.72684807256235	394.842947845805	53	127
394.842947845805	394.9590476190476	55	127
394.842947845805	394.9590476190476	86	127
394.842947845805	394.9590476190476	65	127
394.842947845805	394.9590476190476	59	127
394.9590476190476	395.1912471655329	57	127
394.9590476190476	395.1912471655329	60	127
394.9590476190476	395.6904761904762	84	127
394.9590476190476	395.20285714285717	64	127
395.20285714285717	395.330566893424	60	127
395.20285714285717	395.330566893424	57	127
395.20285714285717	395.57437641723357	76	127
395.330566893424	395.44666666666666	59	127
395.330566893424	395.44666666666666	62	127
395.44666666666666	396.2013151927438	60	127
395.44666666666666	396.2013151927438	64	127
395.57437641723357	395.7020861678005	64	127
395.7020861678005	395.8297959183673	76	127
395.7020861678005	395.8297959183673	84	127
395.8297959183673	395.94589569160996	74	127
395.8297959183673	395.94589569160996	83	127
395.94589569160996	396.2013151927438	81	127
395.94589569160996	396.2013151927438	72	127
396.2013151927438	396.3406349206349	62	127
396.2013151927438	396.5728344671202	72	127
396.2013151927438	396.3406349206349	65	127
396.2013151927438	396.5728344671202	69	127
396.3406349206349	396.4683446712018	64	127
396.3406349206349	396.4683446712018	67	127
396.4683446712018	397.1997732426304	69	127
396.4683446712018	397.1997732426304	65	127
396.5728344671202	396.7005442176871	57	127
396.5728344671202	396.7005442176871	60	127
396.7005442176871	396.828253968254	69	127
396.7005442176871	396.828253968254	72	127
396.828253968254	396.95596371882084	67	127
396.828253968254	396.95596371882084	71	127
396.95596371882084	397.0720634920635	69	127
396.95596371882084	397.0720634920635	65	127
397.0720634920635	397.1997732426304	71	127
397.0720634920635	397.1997732426304	79	127
397.1997732426304	397.2926530612245	69	127
397.1997732426304	397.2926530612245	77	127
397.1997732426304	397.4087528344671	57	127
397.1997732426304	397.4087528344671	41	127
397.2926530612245	397.4087528344671	76	127
397.2926530612245	397.4087528344671	67	127
397.4203628117914	397.53646258503403	74	127
397.4203628117914	397.6641723356009	57	127
397.4203628117914	397.6641723356009	53	127
397.4203628117914	397.53646258503403	65	127
397.53646258503403	397.6641723356009	72	127
397.53646258503403	397.6641723356009	64	127
397.6641723356009	397.89637188208616	53	127
397.6641723356009	397.7918820861678	62	127
397.6641723356009	397.7918820861678	71	127
397.6641723356009	397.89637188208616	57	127
397.7918820861678	397.89637188208616	60	127
397.7918820861678	397.89637188208616	69	127
397.9079818594104	398.02408163265306	62	127
397.9079818594104	398.02408163265306	59	127
397.9079818594104	398.02408163265306	67	127
397.9079818594104	398.02408163265306	53	127
398.02408163265306	398.1401814058957	60	127
398.02408163265306	398.1401814058957	60	127
398.02408163265306	398.1401814058957	69	127
398.02408163265306	398.1401814058957	52	127
398.1401814058957	398.2678911564626	59	127
398.1401814058957	398.2678911564626	62	127
398.1401814058957	398.2678911564626	71	127
398.1401814058957	398.2678911564626	50	127
398.2678911564626	398.3839909297052	57	127
398.2678911564626	398.3839909297052	64	127
398.2678911564626	398.3839909297052	72	127
398.2678911564626	398.3839909297052	48	127
398.39560090702946	398.50009070294783	55	127
398.39560090702946	398.50009070294783	65	127
398.39560090702946	398.50009070294783	74	127
398.39560090702946	398.50009070294783	47	127
398.5117006802721	398.61619047619047	57	127
398.5117006802721	398.61619047619047	64	127
398.5117006802721	398.61619047619047	72	127
398.5117006802721	398.61619047619047	48	127
398.61619047619047	398.7322902494331	59	127
398.61619047619047	398.7322902494331	62	127
398.61619047619047	398.7322902494331	71	127
398.61619047619047	398.7322902494331	50	127
398.7322902494331	398.8367800453515	60	127
398.7322902494331	398.8367800453515	60	127
398.7322902494331	398.8367800453515	69	127
398.7322902494331	398.8367800453515	52	127
398.84839002267574	398.9528798185941	59	127
398.84839002267574	398.9528798185941	67	127
398.84839002267574	398.9528798185941	62	127
398.84839002267574	398.9528798185941	53	127
398.9644897959184	399.0573696145125	52	127
398.9644897959184	399.0573696145125	60	127
398.9644897959184	399.0573696145125	69	127
398.9644897959184	399.0573696145125	60	127
399.0573696145125	399.16185941043085	59	127
399.0573696145125	399.16185941043085	62	127
399.0573696145125	399.16185941043085	71	127
399.0573696145125	399.16185941043085	50	127
399.16185941043085	399.2779591836735	57	127
399.16185941043085	399.2779591836735	64	127
399.16185941043085	399.2779591836735	72	127
399.16185941043085	399.2779591836735	48	127
399.2779591836735	399.3940589569161	55	127
399.2779591836735	399.3940589569161	65	127
399.2779591836735	399.3940589569161	74	127
399.2779591836735	399.3940589569161	47	127
399.3940589569161	399.5101587301587	53	127
399.3940589569161	399.5101587301587	67	127
399.3940589569161	399.5101587301587	76	127
399.3940589569161	399.5101587301587	45	127
399.5101587301587	399.6378684807256	52	127
399.5101587301587	399.6378684807256	69	127
399.5101587301587	399.6378684807256	77	127
399.5101587301587	399.6378684807256	43	127
399.6378684807256	399.7655782312925	50	127
399.6378684807256	399.7655782312925	71	127
399.6378684807256	399.7655782312925	79	127
399.6378684807256	399.7655782312925	41	127
399.7655782312925	400.2648072562358	72	127
399.7655782312925	399.89328798185943	48	127
399.7655782312925	399.89328798185943	40	127
399.7655782312925	400.2648072562358	79	127
399.9048979591837	400.0209977324263	41	127
399.9048979591837	400.0209977324263	50	127
400.03260770975055	400.1370975056689	52	127
400.03260770975055	400.1370975056689	43	127
400.1370975056689	400.2648072562358	45	127
400.1370975056689	400.2648072562358	53	127
400.2648072562358	400.38090702947846	55	127
400.2648072562358	400.38090702947846	47	127
400.39251700680273	400.5086167800454	57	127
400.39251700680273	400.5086167800454	48	127
400.52022675736964	400.6363265306122	50	127
400.52022675736964	400.6363265306122	59	127
400.6363265306122	400.75242630385486	52	127
400.6363265306122	400.75242630385486	60	127
400.75242630385486	402.29655328798185	45	127
400.75242630385486	400.8685260770975	74	127
400.75242630385486	400.8685260770975	84	127
400.75242630385486	402.29655328798185	54	127
400.88013605442177	400.9962358276644	83	127
400.88013605442177	400.9962358276644	76	127
401.0078458049887	401.11233560090704	77	127
401.0078458049887	401.11233560090704	81	127
401.1239455782313	401.2400453514739	79	127
401.25165532879817	401.35614512471653	77	127
401.25165532879817	401.35614512471653	81	127
401.3677551020408	401.4954648526077	76	127
401.3677551020408	401.4954648526077	83	127
401.4954648526077	401.6347845804989	84	127
401.4954648526077	401.6347845804989	74	127
401.6347845804989	401.7857142857143	72	127
401.6347845804989	401.7857142857143	86	127
401.7857142857143	402.29655328798185	72	127
401.7857142857143	401.92503401360545	86	127
401.92503401360545	402.0411337868481	84	127
402.0411337868481	402.16884353741494	83	127
402.16884353741494	402.29655328798185	84	127
402.29655328798185	402.84222222222223	54	127
402.29655328798185	402.4474829931973	83	127
402.29655328798185	402.84222222222223	62	127
402.29655328798185	402.84222222222223	72	127
402.29655328798185	402.84222222222223	45	127
402.4474829931973	402.57519274376415	84	127
402.57519274376415	402.7145124716553	83	127
402.7145124716553	402.84222222222223	81	127
402.84222222222223	402.96993197278914	81	127
402.84222222222223	403.32984126984127	62	127
402.84222222222223	403.32984126984127	55	127
402.84222222222223	403.32984126984127	47	127
402.96993197278914	403.097641723356	79	127
403.097641723356	403.21374149659863	78	127
403.21374149659863	403.32984126984127	79	127
403.34145124716554	403.4575510204082	79	127
403.34145124716554	403.8174603174603	67	127
403.34145124716554	403.8174603174603	59	127
403.34145124716554	403.8174603174603	53	127
403.34145124716554	403.8174603174603	50	127
403.4575510204082	403.5852607709751	77	127
403.5852607709751	403.68975056689345	76	127
403.68975056689345	403.8174603174603	74	127
403.8174603174603	403.92195011337867	74	127
403.8174603174603	404.28185941043085	67	127
403.8174603174603	404.28185941043085	55	127
403.8174603174603	404.28185941043085	52	127
403.8174603174603	404.28185941043085	60	127
403.92195011337867	404.0380498866213	72	127
404.0380498866213	404.1657596371882	71	127
404.1657596371882	404.2934693877551	72	127
404.2934693877551	404.421179138322	71	127
404.2934693877551	404.8043083900227	78	127
404.2934693877551	404.8043083900227	66	127
404.421179138322	404.5488888888889	72	127
404.5488888888889	404.6765986394558	71	127
404.6765986394558	404.8043083900227	69	127
404.8043083900227	405.79115646258504	43	127
404.8043083900227	404.93201814058955	69	127
404.8043083900227	405.31514739229027	79	127
404.8043083900227	405.31514739229027	67	127
404.8043083900227	405.31514739229027	52	127
404.93201814058955	405.05972789115646	67	127
405.05972789115646	405.19904761904763	66	127
405.19904761904763	405.31514739229027	67	127
405.32675736961454	405.79115646258504	50	127
405.32675736961454	405.4428571428571	67	127
405.32675736961454	405.79115646258504	83	127
405.32675736961454	405.79115646258504	71	127
405.4428571428571	405.57056689342403	65	127
405.57056689342403	405.6750566893424	64	127
405.6750566893424	405.79115646258504	62	127
405.79115646258504	406.2671655328798	60	127
405.79115646258504	405.8956462585034	50	127
405.79115646258504	405.8956462585034	74	127
405.79115646258504	405.8956462585034	86	127
405.8956462585034	406.0349659863946	72	127
405.8956462585034	406.0349659863946	48	127
405.8956462585034	406.0349659863946	84	127
406.0349659863946	406.15106575963716	47	127
406.0349659863946	406.15106575963716	83	127
406.0349659863946	406.15106575963716	71	127
406.15106575963716	406.27877551020407	84	127
406.15106575963716	406.27877551020407	72	127
406.15106575963716	406.27877551020407	48	127
406.27877551020407	406.406485260771	83	127
406.27877551020407	406.406485260771	71	127
406.27877551020407	406.406485260771	47	127
406.27877551020407	406.7663945578231	78	127
406.406485260771	406.5341950113379	48	127
406.406485260771	406.5341950113379	84	127
406.406485260771	406.5341950113379	72	127
406.5341950113379	406.63868480725625	47	127
406.5341950113379	406.63868480725625	83	127
406.5341950113379	406.63868480725625	71	127
406.63868480725625	406.7663945578231	81	127
406.63868480725625	406.7663945578231	69	127
406.63868480725625	406.7663945578231	45	127
406.7663945578231	406.8708843537415	81	127
406.7663945578231	406.8708843537415	69	127
406.7663945578231	406.8708843537415	45	127
406.7663945578231	407.2191836734694	79	127
406.8708843537415	406.9985941043084	79	127
406.8708843537415	406.9985941043084	67	127
406.8708843537415	406.9985941043084	43	127
406.9985941043084	407.114693877551	66	127
406.9985941043084	407.114693877551	42	127
406.9985941043084	407.114693877551	78	127
407.114693877551	407.2191836734694	79	127
407.114693877551	407.2191836734694	43	127
407.114693877551	407.2191836734694	67	127
407.23079365079366	407.3468934240363	79	127
407.23079365079366	407.3468934240363	67	127
407.23079365079366	407.3468934240363	43	127
407.23079365079366	407.7184126984127	83	127
407.3468934240363	407.46299319727893	65	127
407.3468934240363	407.46299319727893	41	127
407.3468934240363	407.46299319727893	77	127
407.46299319727893	407.5907029478458	76	127
407.46299319727893	407.5907029478458	64	127
407.46299319727893	407.5907029478458	40	127
407.5907029478458	407.7184126984127	38	127
407.5907029478458	407.7184126984127	74	127
407.5907029478458	407.7184126984127	62	127
407.7184126984127	407.85773242630387	83	127
407.7184126984127	407.85773242630387	77	127
407.7184126984127	407.85773242630387	65	127
407.7184126984127	407.85773242630387	41	127
407.85773242630387	407.9854421768708	84	127
407.85773242630387	407.9854421768708	76	127
407.85773242630387	407.9854421768708	64	127
407.85773242630387	407.9854421768708	40	127
407.9854421768708	408.1131519274376	74	127
407.9854421768708	408.1131519274376	86	127
407.9854421768708	408.1131519274376	62	127
407.9854421768708	408.1131519274376	38	127
408.1131519274376	408.24086167800453	88	127
408.1131519274376	408.24086167800453	72	127
408.1131519274376	408.24086167800453	60	127
408.1131519274376	408.24086167800453	36	127
408.24086167800453	408.36857142857144	76	127
408.24086167800453	408.36857142857144	72	127
408.24086167800453	408.36857142857144	60	127
408.24086167800453	408.36857142857144	48	127
408.36857142857144	408.49628117913835	77	127
408.36857142857144	408.49628117913835	71	127
408.36857142857144	408.49628117913835	59	127
408.36857142857144	408.49628117913835	47	127
408.49628117913835	408.61238095238093	79	127
408.49628117913835	408.61238095238093	69	127
408.49628117913835	408.61238095238093	57	127
408.49628117913835	408.61238095238093	45	127
408.61238095238093	408.74009070294784	81	127
408.61238095238093	408.74009070294784	67	127
408.61238095238093	408.74009070294784	55	127
408.61238095238093	408.74009070294784	43	127
408.7517006802721	408.879410430839	79	127
408.7517006802721	408.879410430839	60	127
408.7517006802721	409.2160997732426	55	127
408.7517006802721	408.879410430839	64	127
408.879410430839	408.9839002267574	65	127
408.879410430839	408.9839002267574	59	127
408.879410430839	408.9839002267574	81	127
408.9839002267574	409.1	67	127
408.9839002267574	409.1	57	127
408.9839002267574	409.1	83	127
409.1	409.2160997732426	84	127
409.1	409.2160997732426	69	127
409.1	409.2160997732426	55	127
409.2160997732426	409.3554195011338	86	127
409.2160997732426	409.3554195011338	71	127
409.2160997732426	409.81981859410433	43	127
409.2160997732426	409.3554195011338	53	127
409.3554195011338	409.4831292517007	72	127
409.3554195011338	409.4831292517007	88	127
409.3554195011338	409.4831292517007	52	127
409.4831292517007	409.6224489795918	50	127
409.4831292517007	409.6224489795918	74	127
409.4831292517007	409.6224489795918	89	127
409.6224489795918	409.81981859410433	83	127
409.6224489795918	409.81981859410433	77	127
409.6224489795918	409.81981859410433	62	127
409.83142857142855	410.249387755102	76	127
409.83142857142855	410.249387755102	84	127
409.83142857142855	410.249387755102	55	127
409.83142857142855	410.249387755102	48	127
410.249387755102	410.4351473922903	83	127
410.249387755102	410.4351473922903	65	127
410.249387755102	410.4351473922903	53	127
410.249387755102	410.4351473922903	50	127
410.4467573696145	410.8531065759637	53	127
410.4467573696145	410.8531065759637	80	127
410.4467573696145	410.8531065759637	71	127
410.4467573696145	410.8531065759637	53	127
410.8531065759637	410.96920634920633	77	127
410.8531065759637	410.96920634920633	62	127
410.8531065759637	410.96920634920633	56	127
410.8531065759637	410.96920634920633	56	127
410.9808163265306	411.41038548752834	74	127
410.9808163265306	411.41038548752834	68	127
410.9808163265306	411.41038548752834	65	127
410.9808163265306	411.41038548752834	59	127
411.41038548752834	411.72385487528345	71	127
411.41038548752834	411.72385487528345	65	127
411.41038548752834	411.72385487528345	62	127
411.41038548752834	411.72385487528345	62	127
411.72385487528345	412.3740136054422	80	127
411.72385487528345	412.3740136054422	74	127
411.72385487528345	412.3740136054422	65	127
411.72385487528345	412.3740136054422	59	127
412.3740136054422	412.62943310657596	79	127
412.3740136054422	412.62943310657596	76	127
412.3740136054422	412.62943310657596	64	127
412.3740136054422	412.62943310657596	60	127
412.64104308390023	413.8484807256236	69	127
412.64104308390023	413.8484807256236	63	127
412.64104308390023	413.8484807256236	60	127
412.64104308390023	413.8484807256236	42	127
413.86009070294784	415.2300680272109	67	127
413.86009070294784	415.2300680272109	59	127
413.86009070294784	415.2300680272109	50	127
413.86009070294784	415.2300680272109	43	127
415.2300680272109	415.6944671201814	67	127
415.2300680272109	415.6944671201814	64	127
415.2300680272109	415.6944671201814	52	127
415.2300680272109	415.6944671201814	48	127
415.6944671201814	415.8337868480726	68	127
415.6944671201814	415.8337868480726	65	127
415.6944671201814	415.8337868480726	50	127
415.6944671201814	415.8337868480726	47	127
415.8337868480726	416.2633560090703	71	127
415.8337868480726	416.2633560090703	62	127
415.8337868480726	416.2633560090703	53	127
415.8337868480726	416.2633560090703	44	127
416.2633560090703	416.3794557823129	74	127
416.2633560090703	416.3794557823129	65	127
416.2633560090703	416.3794557823129	50	127
416.2633560090703	416.3794557823129	41	127
416.3794557823129	416.8206349206349	65	127
416.3794557823129	416.8206349206349	56	127
416.3794557823129	416.8206349206349	77	127
416.3794557823129	416.8206349206349	38	127
416.8206349206349	416.9599546485261	86	127
416.8206349206349	416.9599546485261	68	127
416.8206349206349	416.9599546485261	53	127
416.8206349206349	416.9599546485261	47	127
416.97156462585036	417.4591836734694	83	127
416.97156462585036	417.4591836734694	74	127
416.97156462585036	417.4591836734694	53	127
416.97156462585036	417.4591836734694	56	127
417.4591836734694	417.6913832199547	84	127
417.4591836734694	417.6913832199547	72	127
417.4591836734694	417.6913832199547	52	127
417.4591836734694	417.6913832199547	55	127
417.7029931972789	419.3167800453515	63	127
417.7029931972789	419.3167800453515	78	127
417.7029931972789	419.3167800453515	72	127
417.7029931972789	419.3167800453515	57	127
419.32839002267576	420.66353741496596	60	127
419.32839002267576	420.66353741496596	64	127
419.32839002267576	420.66353741496596	72	127
419.32839002267576	420.66353741496596	79	127
419.32839002267576	420.66353741496596	55	127
420.6751473922902	422.0683446712018	81	127
420.6751473922902	421.7897052154195	63	127
420.6751473922902	421.7897052154195	72	127
420.6751473922902	421.7897052154195	54	127
421.80131519274374	423.357052154195	71	127
421.80131519274374	423.357052154195	53	127
421.80131519274374	423.357052154195	62	127
421.80131519274374	423.357052154195	55	127
422.0683446712018	422.37020408163266	71	127
422.38181405895693	422.9507029478458	81	127
422.9507029478458	423.357052154195	79	127
423.357052154195	424.9360090702948	60	127
423.357052154195	424.9360090702948	51	127
423.357052154195	424.9360090702948	42	127
423.357052154195	425.22625850340137	81	127
424.94761904761907	426.64267573696145	43	127
424.94761904761907	426.64267573696145	65	127
424.94761904761907	426.64267573696145	55	127
424.94761904761907	426.64267573696145	50	127
424.94761904761907	426.64267573696145	71	127
425.22625850340137	425.55133786848074	55	127
425.55133786848074	425.95768707482995	65	127
426.09700680272107	426.64267573696145	62	127
426.64267573696145	427.9778231292517	64	127
426.64267573696145	427.9778231292517	60	127
426.64267573696145	427.9778231292517	52	127
426.64267573696145	427.9778231292517	55	127
426.64267573696145	427.9778231292517	48	127
428.27968253968254	428.59315192743765	66	127
428.27968253968254	428.59315192743765	60	127
428.27968253968254	428.59315192743765	50	127
428.27968253968254	428.59315192743765	45	127
428.9530612244898	429.359410430839	60	127
428.9530612244898	429.359410430839	67	127
428.9530612244898	429.359410430839	52	127
428.9530612244898	429.359410430839	43	127
429.6612698412698	430.0560090702948	71	127
429.6612698412698	430.0560090702948	62	127
429.6612698412698	430.0560090702948	53	127
429.6612698412698	430.0560090702948	43	127
430.98480725623585	431.5188662131519	71	127
430.98480725623585	431.5188662131519	62	127
430.98480725623585	431.5188662131519	53	127
430.98480725623585	431.5188662131519	44	127
433.02816326530615	433.36485260770974	71	127
433.02816326530615	433.36485260770974	62	127
433.02816326530615	433.36485260770974	53	127
433.02816326530615	433.36485260770974	44	127
433.6434920634921	433.99179138321995	72	127
433.6434920634921	433.99179138321995	60	127
433.6434920634921	433.99179138321995	52	127
433.6434920634921	433.99179138321995	45	127
434.2820408163265	434.56068027210887	64	127
434.2820408163265	434.56068027210887	73	127
434.2820408163265	434.56068027210887	58	127
434.2820408163265	434.56068027210887	55	127
435.39659863945576	435.94226757369614	70	127
435.39659863945576	435.94226757369614	73	127
435.39659863945576	435.94226757369614	58	127
435.39659863945576	435.94226757369614	55	127
435.39659863945576	435.94226757369614	67	127
436.9987755102041	437.3354648526077	73	127
436.9987755102041	437.3354648526077	64	127
436.9987755102041	437.3354648526077	70	127
436.9987755102041	437.3354648526077	55	127
437.6489342403628	437.9507936507936	74	127
437.6489342403628	437.9507936507936	60	127
437.6489342403628	437.9507936507936	69	127
437.6489342403628	437.9507936507936	54	127
438.229433106576	438.5429024943311	75	127
438.229433106576	438.5429024943311	69	127
438.229433106576	438.5429024943311	57	127
438.229433106576	438.5429024943311	53	127
438.8679818594104	439.2743310657596	68	127
438.8679818594104	439.2743310657596	76	127
438.8679818594104	439.2743310657596	59	127
438.8679818594104	439.2743310657596	52	127
439.65746031746033	441.7124263038549	74	127
439.65746031746033	441.7124263038549	59	127
439.65746031746033	441.7124263038549	44	127
439.65746031746033	441.7124263038549	77	127
441.7124263038549	444.3943310657596	72	127
441.7124263038549	443.8951020408163	76	127
441.7124263038549	443.8951020408163	60	127
441.7124263038549	443.8951020408163	45	127
443.9067120181406	445.90362811791385	53	127
443.9067120181406	445.90362811791385	63	127
443.9067120181406	444.87034013605444	60	127
444.3943310657596	444.74263038548753	69	127
444.74263038548753	444.8819501133787	71	127
444.8819501133787	445.4043990929705	72	127
444.8819501133787	445.4043990929705	57	127
445.4043990929705	445.7875283446712	71	127
445.4043990929705	445.90362811791385	59	127
445.7875283446712	445.90362811791385	69	127
445.9152380952381	446.36802721088435	69	127
445.9152380952381	446.36802721088435	60	127
445.9152380952381	447.9353741496599	64	127
445.9152380952381	447.9353741496599	52	127
446.36802721088435	447.44775510204084	68	127
446.36802721088435	447.44775510204084	59	127
447.44775510204084	447.9353741496599	52	127
447.44775510204084	447.9353741496599	56	127
447.9585941043084	449.8858503401361	51	127
447.9585941043084	449.8858503401361	57	127
448.44621315192745	448.78290249433104	53	127
448.78290249433104	448.9222222222222	55	127
448.9222222222222	449.398231292517	57	127
449.40984126984125	449.75814058956917	55	127
449.75814058956917	449.8858503401361	53	127
449.8858503401361	451.98725623582766	52	127
449.8858503401361	450.4315192743764	53	127
449.8858503401361	450.98879818594105	56	127
450.44312925170067	451.4764172335601	52	127
450.98879818594105	452.52131519274377	72	127
451.48802721088435	451.98725623582766	68	127
451.98725623582766	454.06544217687076	75	127
451.98725623582766	454.06544217687076	53	127
451.98725623582766	452.52131519274377	69	127
452.53292517006804	452.927664399093	69	127
452.53292517006804	452.927664399093	72	127
452.927664399093	453.0553741496599	71	127
452.927664399093	453.0553741496599	71	127
453.0553741496599	453.5778231292517	72	127
453.0553741496599	453.5778231292517	69	127
453.5778231292517	453.93773242630385	71	127
453.5778231292517	453.93773242630385	71	127
453.93773242630385	454.06544217687076	72	127
453.93773242630385	454.06544217687076	69	127
454.07705215419503	454.5066213151927	69	127
454.07705215419503	454.5066213151927	72	127
454.07705215419503	455.8998185941043	52	127
454.07705215419503	455.8998185941043	76	127
454.5066213151927	455.4238095238095	71	127
454.5066213151927	455.4238095238095	68	127
455.4238095238095	455.8069387755102	68	127
455.4238095238095	455.8069387755102	59	127
455.8069387755102	455.8998185941043	52	127
455.8069387755102	455.8998185941043	59	127
455.9114285714286	456.4454875283447	86	127
455.9114285714286	456.4454875283447	59	127
455.9114285714286	456.4454875283447	53	127
455.9114285714286	458.0360544217687	44	127
456.4454875283447	456.8518367346939	62	127
456.4454875283447	456.8518367346939	50	127
456.4454875283447	456.8518367346939	83	127
456.8518367346939	456.97954648526076	60	127
456.8518367346939	456.97954648526076	52	127
456.8518367346939	456.97954648526076	84	127
456.97954648526076	457.52521541950114	86	127
456.97954648526076	457.52521541950114	59	127
456.97954648526076	457.52521541950114	53	127
457.52521541950114	457.9199546485261	52	127
457.52521541950114	457.9199546485261	84	127
457.52521541950114	457.9199546485261	60	127
457.9199546485261	458.0360544217687	83	127
457.9199546485261	458.0360544217687	50	127
457.9199546485261	458.0360544217687	62	127
458.047664399093	458.52367346938775	53	127
458.047664399093	460.0213605442177	45	127
458.047664399093	458.52367346938775	86	127
458.047664399093	458.52367346938775	59	127
458.52367346938775	459.02290249433105	52	127
458.52367346938775	459.5453514739229	84	127
458.52367346938775	458.8951927437642	60	127
458.8951927437642	459.02290249433105	62	127
459.02290249433105	459.5453514739229	64	127
459.02290249433105	459.5453514739229	60	127
459.55696145124716	459.8936507936508	86	127
459.55696145124716	459.8936507936508	62	127
459.55696145124716	459.8936507936508	59	127
459.8936507936508	460.0213605442177	57	127
459.8936507936508	460.0213605442177	88	127
459.8936507936508	460.0213605442177	60	127
460.0213605442177	460.5438095238095	48	127
460.0213605442177	460.5438095238095	45	127
460.0213605442177	460.5438095238095	60	127
460.0213605442177	461.96022675736964	89	127
460.55541950113377	460.9269387755102	60	127
460.55541950113377	460.9269387755102	72	127
460.55541950113377	460.9269387755102	57	127
460.9269387755102	461.0546485260771	71	127
460.9269387755102	461.0546485260771	62	127
460.9269387755102	461.0546485260771	59	127
461.0546485260771	461.44938775510207	64	127
461.0546485260771	461.44938775510207	69	127
461.0546485260771	461.44938775510207	60	127
461.4609977324263	461.83251700680273	62	127
461.4609977324263	461.83251700680273	71	127
461.4609977324263	461.83251700680273	59	127
461.83251700680273	461.96022675736964	72	127
461.83251700680273	461.96022675736964	60	127
461.83251700680273	461.96022675736964	57	127
461.96022675736964	462.4362358276644	57	127
461.96022675736964	463.7249433106576	88	127
461.96022675736964	462.4362358276644	60	127
462.4478458049887	463.3185941043084	59	127
462.4478458049887	462.77292517006805	74	127
462.4478458049887	463.3185941043084	56	127
462.77292517006805	462.9006349206349	72	127
462.9006349206349	463.3185941043084	71	127
463.3185941043084	463.60884353741494	72	127
463.3185941043084	463.60884353741494	57	127
463.3185941043084	463.60884353741494	53	127
463.60884353741494	463.7249433106576	74	127
463.60884353741494	463.7249433106576	56	127
463.60884353741494	463.7249433106576	52	127
463.7249433106576	465.6173696145125	80	127
463.7249433106576	464.18934240362813	74	127
463.7249433106576	464.18934240362813	56	127
463.7249433106576	464.18934240362813	52	127
464.18934240362813	464.49120181405897	53	127
464.18934240362813	465.1181405895692	59	127
464.18934240362813	465.1181405895692	62	127
464.18934240362813	464.49120181405897	57	127
464.49120181405897	464.59569160997734	52	127
464.49120181405897	464.59569160997734	56	127
464.6073015873016	465.1181405895692	56	127
464.6073015873016	465.1181405895692	52	127
465.1181405895692	465.5128798185941	65	127
465.1181405895692	465.5128798185941	62	127
465.1181405895692	465.5128798185941	71	127
465.5128798185941	465.6173696145125	68	127
465.5128798185941	465.6173696145125	62	127
465.5128798185941	465.6173696145125	59	127
465.6173696145125	466.1514285714286	71	127
465.6173696145125	466.1514285714286	65	127
465.6173696145125	466.1514285714286	62	127
465.6173696145125	468.0902947845805	81	127
466.1514285714286	467.1963265306122	64	127
466.1514285714286	467.1963265306122	69	127
466.1514285714286	467.1963265306122	60	127
467.2079365079365	467.4749659863946	77	127
467.2079365079365	467.59106575963716	71	127
467.4749659863946	467.59106575963716	75	127
467.60267573696143	468.0902947845805	77	127
467.60267573696143	468.9726530612245	60	127
468.0902947845805	468.9726530612245	76	127
468.0902947845805	468.4269841269841	82	127
468.4269841269841	468.54308390022675	80	127
468.54308390022675	468.9726530612245	82	127
468.9726530612245	469.4718820861678	61	127
468.9726530612245	469.3441723356009	81	127
468.9726530612245	469.4718820861678	64	127
469.3441723356009	469.4718820861678	76	127
469.4718820861678	470.0059410430839	79	127
469.4718820861678	471.5036281179138	62	127
470.0175510204082	470.4239002267574	69	127
470.0175510204082	471.06244897959186	77	127
470.4239002267574	470.5516099773243	64	127
470.5632199546485	471.06244897959186	67	127
471.0740589569161	471.5036281179138	65	127
471.0740589569161	471.4107482993197	82	127
471.4107482993197	471.5036281179138	77	127
471.5036281179138	472.02607709750566	81	127
471.5036281179138	473.6398639455782	64	127
472.02607709750566	472.43242630385487	67	127
472.02607709750566	473.0941950113379	79	127
472.43242630385487	472.5601360544218	59	127
472.5601360544218	473.0941950113379	62	127
473.0941950113379	473.51215419501136	84	127
473.0941950113379	473.6398639455782	52	127
473.0941950113379	473.6398639455782	59	127
473.51215419501136	473.6398639455782	79	127
473.6514739229025	474.5338321995465	82	127
473.6514739229025	474.66154195011336	53	127
473.6514739229025	474.66154195011336	65	127
474.1507029478458	474.5338321995465	48	127
474.5338321995465	474.66154195011336	81	127
474.5338321995465	474.66154195011336	41	127
474.67315192743763	475.6367800453515	64	127
474.67315192743763	475.5090702947846	83	127
474.67315192743763	475.6367800453515	52	127
475.17238095238093	475.5090702947846	48	127
475.5090702947846	475.6367800453515	40	127
475.5090702947846	475.6367800453515	81	127
475.64839002267576	476.51913832199546	83	127
475.64839002267576	476.6352380952381	62	127
475.64839002267576	476.6352380952381	50	127
476.1360090702948	476.51913832199546	48	127
476.51913832199546	476.6352380952381	81	127
476.51913832199546	476.6352380952381	38	127
476.64684807256236	477.51759637188206	63	127
476.64684807256236	477.3898866213152	83	127
476.64684807256236	477.51759637188206	51	127
477.0415873015873	477.3898866213152	48	127
477.3898866213152	477.51759637188206	39	127
477.3898866213152	477.51759637188206	81	127
477.51759637188206	477.62208616780043	83	127
477.51759637188206	477.8194557823129	65	127
477.51759637188206	477.8194557823129	53	127
477.51759637188206	477.8194557823129	52	127
477.62208616780043	477.73818594104307	81	127
477.73818594104307	477.86589569161	83	127
477.86589569161	477.9936054421769	81	127
477.9936054421769	478.34190476190474	52	127
477.9936054421769	478.12131519274374	83	127
477.9936054421769	478.34190476190474	64	127
477.9936054421769	478.34190476190474	50	127
478.12131519274374	478.2606349206349	81	127
478.2606349206349	478.3651247165533	83	127
478.3651247165533	478.43478458049884	81	127
478.4463945578231	478.7366439909297	50	127
478.4463945578231	478.57410430839	83	127
478.4463945578231	478.7366439909297	62	127
478.4463945578231	478.7366439909297	50	127
478.57410430839	478.65537414965985	81	127
478.65537414965985	478.7714739229025	83	127
478.7714739229025	478.8991836734694	81	127
478.8991836734694	479.23587301587304	60	127
478.8991836734694	479.23587301587304	48	127
478.8991836734694	479.23587301587304	48	127
478.8991836734694	479.0268934240363	83	127
478.8991836734694	479.23587301587304	72	127
479.0268934240363	479.1429931972789	81	127
479.1429931972789	479.2707029478458	83	127
479.2707029478458	479.3984126984127	81	127
479.3984126984127	479.51451247165534	83	127
479.3984126984127	479.7234920634921	71	127
479.3984126984127	479.7234920634921	59	127
479.3984126984127	479.7234920634921	47	127
479.51451247165534	479.64222222222224	81	127
479.64222222222224	479.7583219954648	83	127
479.7583219954648	479.851201814059	81	127
479.851201814059	480.118231292517	57	127
479.851201814059	479.95569160997735	83	127
479.851201814059	480.118231292517	69	127
479.851201814059	480.118231292517	45	127
479.95569160997735	480.04857142857145	81	127
480.04857142857145	480.1530612244898	83	127
480.1530612244898	480.28077097505667	81	127
480.28077097505667	480.4084807256236	83	127
480.28077097505667	480.5942403628118	43	127
480.28077097505667	480.5942403628118	67	127
480.28077097505667	480.5942403628118	55	127
480.4084807256236	480.5361904761905	81	127
480.5361904761905	480.6290702947846	83	127
480.6290702947846	480.7451700680272	81	127
480.7451700680272	480.87287981859413	83	127
480.7451700680272	481.0586394557823	53	127
480.7451700680272	481.0586394557823	41	127
480.7451700680272	481.0586394557823	65	127
480.87287981859413	480.9657596371882	81	127
480.9657596371882	481.10507936507935	83	127
481.10507936507935	481.23278911564626	81	127
481.2443990929705	483.21809523809526	52	127
481.2443990929705	481.60430839002265	56	127
481.2443990929705	481.60430839002265	40	127
481.2443990929705	481.60430839002265	83	127
482.18480725623584	482.3125170068027	59	127
482.32412698412696	482.64920634920634	64	127
482.83496598639454	483.1716553287982	64	127
483.21809523809526	483.3458049886621	56	127
483.3574149659864	484.0772335600907	64	127
483.3574149659864	484.0772335600907	60	127
484.0772335600907	484.2049433106576	59	127
484.0772335600907	484.2049433106576	62	127
484.2049433106576	484.32104308390024	72	127
484.2049433106576	484.32104308390024	57	127
484.2049433106576	484.32104308390024	60	127
484.32104308390024	484.4719727891156	57	127
484.32104308390024	484.4719727891156	60	127
484.32104308390024	484.59968253968253	77	127
484.54163265306124	484.7041723356009	57	127
484.54163265306124	484.7041723356009	60	127
484.77383219954646	484.91315192743764	57	127
484.77383219954646	485.13374149659865	77	127
484.77383219954646	484.91315192743764	60	127
484.91315192743764	485.04086167800455	62	127
484.91315192743764	485.04086167800455	59	127
485.04086167800455	485.2962811791383	57	127
485.04086167800455	485.2962811791383	60	127
485.3078911564626	485.9348299319728	77	127
485.3078911564626	485.7839002267574	57	127
485.3078911564626	485.7839002267574	60	127
485.7839002267574	486.17863945578233	56	127
485.7839002267574	486.17863945578233	59	127
485.9348299319728	486.0509297052154	76	127
486.0509297052154	486.17863945578233	83	127
486.0509297052154	486.17863945578233	74	127
486.1902494331066	486.3760090702948	74	127
486.1902494331066	486.3760090702948	59	127
486.1902494331066	486.44566893424036	88	127
486.4224489795918	486.5501587301587	59	127
486.4224489795918	486.5501587301587	74	127
486.63142857142856	486.75913832199547	74	127
486.63142857142856	486.75913832199547	59	127
486.63142857142856	486.9797278911565	88	127
486.75913832199547	486.8868480725624	60	127
486.75913832199547	486.8868480725624	76	127
486.8868480725624	487.1538775510204	59	127
486.8868480725624	487.1538775510204	74	127
487.0261678004535	487.1538775510204	64	127
487.16548752834467	487.5718367346939	69	127
487.16548752834467	487.61827664399095	74	127
487.16548752834467	487.61827664399095	59	127
487.16548752834467	487.86208616780044	88	127
487.62988662131517	488.0130158730159	69	127
487.62988662131517	488.08267573696145	72	127
487.62988662131517	488.08267573696145	57	127
487.86208616780044	487.9665759637188	86	127
487.9665759637188	488.08267573696145	84	127
488.0942857142857	488.3497052154195	69	127
488.0942857142857	488.2800453514739	84	127
488.0942857142857	488.3497052154195	76	127
488.3497052154195	488.547074829932	84	127
488.3497052154195	488.61673469387756	76	127
488.3497052154195	488.61673469387756	69	127
488.62834467120183	488.6980045351474	84	127
488.62834467120183	488.83732426303857	76	127
488.62834467120183	488.83732426303857	69	127
488.6980045351474	488.83732426303857	86	127
488.83732426303857	489.08113378684806	84	127
488.83732426303857	489.08113378684806	76	127
488.83732426303857	489.08113378684806	69	127
489.0927437641723	489.3249433106576	75	127
489.0927437641723	489.3249433106576	84	127
489.0927437641723	489.3249433106576	69	127
489.3249433106576	489.6035827664399	83	127
489.3249433106576	489.6035827664399	76	127
489.3249433106576	489.6035827664399	68	127
489.6035827664399	489.75451247165535	72	127
489.6035827664399	489.75451247165535	69	127
489.75451247165535	489.89383219954647	74	127
489.75451247165535	489.89383219954647	71	127
489.89383219954647	490.1028117913832	63	127
489.89383219954647	490.1724716553288	72	127
489.89383219954647	490.1724716553288	69	127
490.1724716553288	490.4627210884354	72	127
490.1724716553288	490.4627210884354	69	127
490.1724716553288	490.4627210884354	63	127
490.4627210884354	490.7297505668934	71	127
490.4627210884354	490.7297505668934	68	127
490.4627210884354	490.7297505668934	64	127
490.7413605442177	490.89229024943313	84	127
490.89229024943313	490.98517006802723	86	127
490.98517006802723	491.25219954648526	84	127
490.98517006802723	491.25219954648526	75	127
490.98517006802723	491.25219954648526	69	127
491.2638095238095	491.6469387755102	84	127
491.2638095238095	491.6469387755102	75	127
491.2638095238095	491.6469387755102	69	127
491.6469387755102	491.7746485260771	83	127
491.6469387755102	491.7746485260771	76	127
491.6469387755102	491.7746485260771	68	127
491.7746485260771	491.97201814058957	83	127
491.7746485260771	491.97201814058957	76	127
491.7746485260771	491.97201814058957	68	127
492.04167800453513	492.2274376417234	84	127
492.04167800453513	492.2274376417234	75	127
492.04167800453513	492.2274376417234	69	127
492.29709750566894	492.7150566893424	84	127
492.29709750566894	492.7150566893424	75	127
492.29709750566894	492.7150566893424	69	127
492.7150566893424	492.83115646258506	83	127
492.7150566893424	492.83115646258506	76	127
492.7150566893424	492.83115646258506	68	127
492.83115646258506	493.01691609977325	83	127
492.83115646258506	493.01691609977325	76	127
492.83115646258506	493.01691609977325	68	127
493.0865759637188	493.2839455782313	84	127
493.0865759637188	493.2839455782313	76	127
493.0865759637188	493.2839455782313	70	127
493.0865759637188	493.4000453514739	67	127
493.4000453514739	493.79478458049886	85	127
493.4000453514739	493.79478458049886	76	127
493.4000453514739	493.79478458049886	70	127
493.4000453514739	493.79478458049886	67	127
493.79478458049886	493.93410430839003	86	127
493.79478458049886	493.93410430839003	77	127
493.79478458049886	493.93410430839003	69	127
493.79478458049886	493.93410430839003	65	127
493.93410430839003	494.14308390022677	86	127
493.93410430839003	494.14308390022677	77	127
493.93410430839003	494.14308390022677	69	127
493.93410430839003	494.14308390022677	65	127
494.21274376417233	494.4101133786848	85	127
494.21274376417233	494.4101133786848	76	127
494.21274376417233	494.4101133786848	70	127
494.21274376417233	494.4101133786848	67	127
494.4913832199546	494.87451247165535	85	127
494.4913832199546	494.87451247165535	76	127
494.4913832199546	494.87451247165535	70	127
494.4913832199546	494.87451247165535	67	127
494.87451247165535	495.01383219954647	86	127
494.87451247165535	495.01383219954647	77	127
494.87451247165535	495.01383219954647	69	127
494.87451247165535	495.01383219954647	65	127
495.02544217687074	495.2692517006803	86	127
495.02544217687074	495.2692517006803	77	127
495.02544217687074	495.2692517006803	69	127
495.02544217687074	495.2692517006803	65	127
495.33891156462585	495.5478911564626	87	127
495.33891156462585	495.5478911564626	72	127
495.33891156462585	495.5478911564626	69	127
495.33891156462585	495.5478911564626	65	127
495.61755102040814	496.0355102040816	87	127
495.61755102040814	496.0355102040816	72	127
495.61755102040814	496.0355102040816	69	127
495.61755102040814	496.0355102040816	65	127
496.0355102040816	496.15160997732426	64	127
496.0355102040816	496.15160997732426	68	127
496.0355102040816	496.15160997732426	88	127
496.0355102040816	496.15160997732426	64	127
496.1632199546485	496.581179138322	88	127
496.1632199546485	496.581179138322	70	127
496.1632199546485	496.581179138322	67	127
496.1632199546485	496.581179138322	61	127
496.581179138322	496.69727891156464	89	127
496.581179138322	496.69727891156464	69	127
496.581179138322	496.69727891156464	65	127
496.581179138322	496.69727891156464	62	127
496.7088888888889	497.16167800453513	89	127
496.7088888888889	497.16167800453513	69	127
496.7088888888889	497.16167800453513	65	127
496.7088888888889	497.16167800453513	62	127
497.16167800453513	497.34743764172333	90	127
497.16167800453513	497.34743764172333	75	127
497.16167800453513	497.34743764172333	63	127
497.16167800453513	497.34743764172333	60	127
497.3590476190476	497.73056689342405	90	127
497.3590476190476	497.73056689342405	69	127
497.3590476190476	497.73056689342405	63	127
497.3590476190476	497.73056689342405	60	127
497.73056689342405	497.97437641723354	91	127
497.73056689342405	497.97437641723354	74	127
497.73056689342405	497.97437641723354	62	127
497.73056689342405	497.97437641723354	59	127
497.9859863945578	498.3691156462585	91	127
497.9859863945578	498.3691156462585	74	127
497.9859863945578	498.3691156462585	59	127
497.9859863945578	498.3691156462585	53	127
498.3691156462585	498.4852154195011	92	127
498.3691156462585	498.4852154195011	71	127
498.3691156462585	498.4852154195011	62	127
498.3691156462585	498.4852154195011	52	127
498.4968253968254	498.9031746031746	59	127
498.4968253968254	498.9031746031746	92	127
498.4968253968254	498.9031746031746	62	127
498.4968253968254	498.9031746031746	52	127
498.9031746031746	499.05410430839004	72	127
498.9031746031746	499.05410430839004	93	127
498.9031746031746	499.05410430839004	57	127
498.9031746031746	499.05410430839004	51	127
499.05410430839004	499.77392290249435	93	127
499.05410430839004	499.77392290249435	69	127
499.05410430839004	499.77392290249435	60	127
499.05410430839004	499.77392290249435	53	127
499.77392290249435	499.91324263038547	81	127
499.77392290249435	499.91324263038547	72	127
499.77392290249435	499.91324263038547	69	127
499.77392290249435	499.91324263038547	52	127
499.92485260770974	500.18027210884355	52	127
499.92485260770974	501.0161904761905	84	127
499.92485260770974	501.0161904761905	60	127
499.92485260770974	501.0161904761905	57	127
500.377641723356	501.1322902494331	52	127
501.0161904761905	501.36448979591836	62	127
501.0161904761905	501.36448979591836	83	127
501.0161904761905	501.36448979591836	64	127
501.0161904761905	501.36448979591836	56	127
501.5618594104308	501.7592290249433	59	127
501.7592290249433	501.9449886621315	57	127
501.95659863945576	503.2104761904762	64	127
502.13074829931975	502.3048979591837	66	127
502.31650793650795	502.50226757369614	64	127
502.5138775510204	502.68802721088434	69	127
502.68802721088434	502.85056689342406	71	127
502.85056689342406	503.024716553288	69	127
503.024716553288	503.5819954648526	73	127
503.2104761904762	503.3962358276644	59	127
503.40784580498865	503.5819954648526	57	127
503.59360544217685	503.8025850340136	64	127
503.59360544217685	504.5920634920635	74	127
503.81419501133786	503.9883446712018	57	127
503.9883446712018	504.17410430839004	56	127
504.17410430839004	504.7081632653061	64	127
504.5920634920635	504.7081632653061	73	127
504.71977324263037	505.1841723356009	71	127
504.71977324263037	505.7530612244898	52	127
504.89392290249435	505.0680725623583	57	127
504.9751927437642	505.26544217687075	59	127
505.0680725623583	505.26544217687075	56	127
505.26544217687075	505.6834013605442	71	127
505.26544217687075	505.7530612244898	68	127
505.26544217687075	505.5092517006803	61	127
505.5092517006803	505.7530612244898	62	127
505.76467120181405	506.2871201814059	62	127
505.76467120181405	506.7863492063492	45	127
505.76467120181405	506.2871201814059	74	127
505.938820861678	506.11297052154197	59	127
506.12458049886624	506.2871201814059	57	127
506.2871201814059	506.7863492063492	64	127
506.2871201814059	506.54253968253965	61	127
506.2871201814059	506.54253968253965	73	127
506.54253968253965	506.7863492063492	71	127
506.54253968253965	506.7863492063492	59	127
506.7863492063492	507.2971882086168	69	127
506.7863492063492	507.2971882086168	57	127
506.7863492063492	507.2971882086168	54	127
506.96049886621313	507.1114285714286	59	127
507.12303854875285	507.2971882086168	57	127
507.30879818594104	507.5526077097506	59	127
507.30879818594104	507.5526077097506	71	127
507.30879818594104	507.5526077097506	56	127
507.30879818594104	507.84285714285716	64	127
507.5526077097506	507.84285714285716	61	127
507.5526077097506	507.84285714285716	73	127
507.5526077097506	507.84285714285716	57	127
507.84285714285716	508.365306122449	56	127
507.84285714285716	508.6439455782313	59	127
507.84285714285716	508.6439455782313	71	127
508.02861678004535	508.191156462585	66	127
508.2027664399093	508.365306122449	64	127
508.37691609977327	508.89936507936505	76	127
508.37691609977327	509.38698412698415	47	127
508.6439455782313	508.89936507936505	68	127
508.6439455782313	508.89936507936505	80	127
508.89936507936505	509.6540136054422	81	127
508.89936507936505	509.6540136054422	69	127
509.07351473922904	509.2360544217687	76	127
509.2360544217687	509.38698412698415	75	127
509.3985941043084	509.5611337868481	78	127
509.3985941043084	509.9210430839002	59	127
509.57274376417234	509.735283446712	75	127
509.6540136054422	509.9210430839002	75	127
509.6540136054422	509.9210430839002	63	127
509.735283446712	509.9210430839002	69	127
509.9210430839002	510.42027210884356	52	127
509.9210430839002	510.10680272108846	68	127
509.9210430839002	510.42027210884356	64	127
510.10680272108846	510.2693424036281	64	127
510.1880725623583	510.4318820861678	64	127
510.2693424036281	510.42027210884356	63	127
510.4318820861678	510.57120181405895	61	127
510.4318820861678	510.66408163265305	68	127
510.5828117913832	510.7337414965986	59	127
510.66408163265305	510.9078911564626	71	127
510.7453514739229	510.9078911564626	57	127
510.9078911564626	511.41873015873017	56	127
510.9078911564626	511.16331065759636	75	127
510.9078911564626	511.1517006802721	62	127
511.0820408163265	511.2445804988662	57	127
511.16331065759636	511.41873015873017	76	127
511.16331065759636	511.41873015873017	64	127
511.2445804988662	511.41873015873017	56	127
511.43034013605444	511.6277097505669	54	127
511.43034013605444	511.720589569161	64	127
511.43034013605444	511.720589569161	76	127
511.6393197278912	511.79024943310657	52	127
511.720589569161	511.97600907029477	78	127
511.720589569161	511.97600907029477	66	127
511.80185941043084	511.97600907029477	50	127
511.97600907029477	512.8815873015873	67	127
511.97600907029477	512.4984580498866	49	127
511.97600907029477	512.8815873015873	79	127
512.1733786848073	512.3591383219955	59	127
512.3591383219955	512.4984580498866	57	127
512.4984580498866	513.0092970521542	69	127
512.6609977324263	512.8351247165533	59	127
512.8467346938776	513.0092970521542	57	127
512.8815873015873	513.0209070294785	78	127
512.8815873015873	513.0209070294785	66	127
513.0209070294785	513.5665759637188	49	127
513.0209070294785	513.485306122449	77	127
513.0209070294785	513.485306122449	65	127
513.1834467120182	513.3924263038549	59	127
513.3924263038549	513.5665759637188	57	127
513.5665759637188	513.9961451247166	77	127
513.5665759637188	513.9961451247166	65	127
513.5665759637188	514.0890249433106	69	127
513.7291156462585	513.8916553287982	59	127
513.9032653061224	514.0890249433106	57	127
514.1006349206349	514.6230839002268	79	127
514.1006349206349	514.6230839002268	50	127
514.1006349206349	514.6230839002268	67	127
514.2747619047619	514.4373242630386	59	127
514.4373242630386	514.6230839002268	57	127
514.6230839002268	514.9249433106576	78	127
514.6230839002268	514.9249433106576	66	127
514.6230839002268	515.1571428571428	69	127
514.808843537415	514.9946031746032	59	127
514.9249433106576	515.1687528344671	76	127
514.9249433106576	515.1687528344671	64	127
515.0062131519275	515.1571428571428	57	127
515.1687528344671	515.7260317460317	62	127
515.1687528344671	515.7260317460317	74	127
515.1687528344671	515.7260317460317	66	127
515.3777324263039	515.5518820861678	59	127
515.563492063492	515.7260317460317	57	127
515.7260317460317	515.9698412698413	64	127
515.7260317460317	515.9698412698413	76	127
515.7260317460317	516.2252607709751	69	127
515.8769614512472	516.0627210884354	59	127
515.9698412698413	516.2252607709751	78	127
515.9698412698413	516.2252607709751	66	127
516.0627210884354	516.2252607709751	57	127
516.2368707482993	516.7593197278911	61	127
516.2368707482993	517.0379591836735	76	127
516.2368707482993	517.0379591836735	64	127
516.2368707482993	516.7593197278911	52	127
516.4342403628118	516.5967800453515	59	127
516.6083900226757	516.7593197278911	57	127
516.7593197278911	517.2933786848073	64	127
516.9450793650793	517.1192290249434	59	127
517.0379591836735	517.2933786848073	73	127
517.0379591836735	517.2933786848073	61	127
517.1192290249434	517.2933786848073	57	127
517.2933786848073	517.8390476190476	52	127
517.2933786848073	518.16410430839	74	127
517.2933786848073	518.16410430839	62	127
517.4675283446712	517.6532879818594	57	127
517.6532879818594	517.8390476190476	56	127
517.8506575963719	518.4543764172336	64	127
518.0712471655329	518.2453968253968	61	127
518.16410430839	518.4543764172336	68	127
518.16410430839	518.4543764172336	56	127
518.2570068027211	518.4543764172336	59	127
518.4659863945578	519.0116553287982	52	127
518.4659863945578	519.2786848072562	76	127
518.4659863945578	519.2786848072562	64	127
518.6401360544218	518.8142857142857	59	127
518.82589569161	519.0116553287982	57	127
519.0116553287982	519.5805215419501	64	127
519.1857823129252	519.3599546485261	59	127
519.2786848072562	519.5805215419501	72	127
519.2786848072562	519.5805215419501	60	127
519.3715646258504	519.5805215419501	57	127
519.5805215419501	520.1378231292517	52	127
519.5805215419501	520.1378231292517	74	127
519.5805215419501	520.4396825396825	62	127
519.7546938775511	519.9404535147393	57	127
519.9404535147393	520.1378231292517	56	127
520.1378231292517	520.4396825396825	86	127
520.1378231292517	520.8344217687074	64	127
520.3468027210885	520.5557823129252	60	127
520.4396825396825	520.8344217687074	80	127
520.4396825396825	520.8344217687074	64	127
520.5673922902495	520.8344217687074	59	127
520.8344217687074	521.3917006802722	53	127
520.8344217687074	521.3917006802722	83	127
520.8344217687074	522.842947845805	65	127
521.3917006802722	521.8096598639456	81	127
521.6703401360544	521.8096598639456	75	127
521.8096598639456	521.9141496598639	69	127
521.8096598639456	521.9141496598639	83	127
521.9141496598639	522.0418367346939	75	127
521.9141496598639	522.3669387755102	84	127
522.0418367346939	522.1695691609978	69	127
522.1695691609978	522.2972789115646	75	127
522.2972789115646	522.3669387755102	69	127
522.3669387755102	522.7268480725623	83	127
522.3669387755102	522.4830385487528	75	127
522.4830385487528	522.6107482993198	69	127
522.6107482993198	522.7268480725623	75	127
522.7268480725623	522.842947845805	81	127
522.7268480725623	522.842947845805	69	127
522.842947845805	523.3421768707483	81	127
522.842947845805	524.9559637188208	52	127
523.3421768707483	524.4102947845805	80	127
523.6208163265306	523.7601360544218	59	127
523.7601360544218	523.8762131519275	56	127
523.8762131519275	524.0039455782313	59	127
524.0039455782313	524.1432653061224	56	127
524.1432653061224	524.2825623582767	59	127
524.2825623582767	524.4102947845805	56	127
524.4102947845805	524.828253968254	77	127
524.4102947845805	524.5496145124716	59	127
524.5496145124716	524.6889115646259	56	127
524.6889115646259	524.828253968254	59	127
524.828253968254	524.9559637188208	56	127
524.828253968254	524.9559637188208	76	127
524.9559637188208	526.9760997732426	68	127
524.9559637188208	525.490022675737	76	127
525.490022675737	525.8267120181406	83	127
525.7221995464853	525.8267120181406	59	127
525.8267120181406	525.9428117913832	84	127
525.8267120181406	525.9428117913832	56	127
525.9428117913832	526.0821315192744	59	127
525.9428117913832	526.418820861678	86	127
526.0821315192744	526.2098412698413	56	127
526.2098412698413	526.3491383219955	59	127
526.3491383219955	526.418820861678	56	127
526.418820861678	526.8251700680272	84	127
526.418820861678	526.546507936508	59	127
526.546507936508	526.6858503401361	56	127
526.6858503401361	526.8251700680272	59	127
526.8251700680272	526.9760997732426	83	127
526.8251700680272	526.9760997732426	56	127
526.9760997732426	529.1007256235828	45	127
526.9760997732426	527.4985487528345	86	127
527.4985487528345	527.916507936508	84	127
527.788798185941	527.916507936508	64	127
527.788798185941	527.916507936508	72	127
527.916507936508	528.0558276643991	60	127
527.916507936508	528.0558276643991	86	127
527.916507936508	528.0558276643991	69	127
528.0558276643991	528.1951473922902	64	127
528.0558276643991	528.1951473922902	72	127
528.0558276643991	528.6014965986394	88	127
528.1951473922902	528.3344671201814	60	127
528.1951473922902	528.3344671201814	69	127
528.3344671201814	528.4621768707483	72	127
528.3344671201814	528.4621768707483	64	127
528.4621768707483	528.6014965986394	60	127
528.4621768707483	528.6014965986394	69	127
528.6014965986394	528.9846031746032	86	127
528.6014965986394	528.7408163265306	72	127
528.6014965986394	528.7408163265306	64	127
528.7408163265306	528.8569160997732	69	127
528.7408163265306	528.8569160997732	60	127
528.8569160997732	528.9846031746032	72	127
528.8569160997732	528.9846031746032	64	127
528.9846031746032	529.1007256235828	84	127
528.9846031746032	529.1007256235828	69	127
528.9846031746032	529.1007256235828	60	127
529.1007256235828	529.4954648526077	83	127
529.1007256235828	529.2516553287982	72	127
529.1007256235828	529.2516553287982	69	127
529.1007256235828	529.3097052154195	41	127
529.2516553287982	529.3793650793651	57	127
529.2516553287982	529.3793650793651	60	127
529.3793650793651	529.5419047619048	53	127
529.3793650793651	529.4954648526077	69	127
529.3793650793651	529.4954648526077	60	127
529.4954648526077	529.5535147392291	57	127
529.4954648526077	529.5419047619048	80	127
529.4954648526077	529.5535147392291	60	127
529.5535147392291	529.6580045351474	69	127
529.5535147392291	529.6580045351474	81	127
529.5535147392291	529.6580045351474	60	127
529.5535147392291	529.7857142857143	52	127
529.6580045351474	529.7857142857143	83	127
529.6580045351474	529.7857142857143	60	127
529.6580045351474	529.7857142857143	57	127
529.7857142857143	529.9018140589569	81	127
529.7857142857143	529.9018140589569	69	127
529.7857142857143	529.9018140589569	60	127
529.7857142857143	529.9714739229025	53	127
529.9018140589569	529.9830839002268	83	127
529.9018140589569	529.9830839002268	60	127
529.9018140589569	529.9830839002268	57	127
529.9830839002268	530.0991836734694	69	127
529.9830839002268	530.0991836734694	60	127
529.9830839002268	530.1572335600907	84	127
529.9830839002268	530.2152607709751	52	127
530.0991836734694	530.2152607709751	60	127
530.0991836734694	530.2152607709751	57	127
530.2152607709751	530.3313832199547	69	127
530.2152607709751	530.3313832199547	60	127
530.2152607709751	530.389433106576	84	127
530.2152607709751	530.389433106576	53	127
530.3313832199547	530.4590929705215	60	127
530.3313832199547	530.4590929705215	57	127
530.4590929705215	530.5868027210885	83	127
530.4590929705215	530.5868027210885	69	127
530.4590929705215	530.5868027210885	60	127
530.4590929705215	530.6332199546486	65	127
530.5868027210885	530.6796825396825	57	127
530.5868027210885	530.6796825396825	81	127
530.5868027210885	530.6796825396825	60	127
530.6796825396825	530.8073922902495	83	127
530.6796825396825	530.8073922902495	60	127
530.6796825396825	530.8073922902495	69	127
530.6796825396825	530.8538321995464	53	127
530.8073922902495	530.9118820861678	81	127
530.8073922902495	530.9118820861678	60	127
530.8073922902495	530.9118820861678	57	127
530.9234920634921	531.1092517006803	40	127
530.9234920634921	531.051179138322	69	127
530.9234920634921	531.051179138322	60	127
530.9234920634921	531.4111111111112	81	127
531.051179138322	531.1673015873016	60	127
531.051179138322	531.1673015873016	57	127
531.1673015873016	531.2950113378685	69	127
531.1673015873016	531.2950113378685	60	127
531.1673015873016	531.4111111111112	52	127
531.2950113378685	531.4227210884354	57	127
531.2950113378685	531.4227210884354	60	127
531.4227210884354	531.538820861678	68	127
531.4227210884354	531.538820861678	71	127
531.4227210884354	531.6548979591837	51	127
531.4227210884354	532.4095691609978	80	127
531.538820861678	531.6548979591837	59	127
531.538820861678	531.6548979591837	68	127
531.6548979591837	531.7710204081633	68	127
531.6548979591837	531.8987301587301	52	127
531.6548979591837	531.7710204081633	71	127
531.7710204081633	531.8987301587301	59	127
531.7710204081633	531.8987301587301	68	127
531.8987301587301	532.0264399092971	68	127
531.8987301587301	532.154149659864	51	127
531.8987301587301	532.0264399092971	71	127
532.0264399092971	532.1657596371882	59	127
532.0264399092971	532.1657596371882	68	127
532.1657596371882	532.2818594104308	68	127
532.1657596371882	532.3399092970521	52	127
532.1657596371882	532.2818594104308	71	127
532.2818594104308	532.4095691609978	68	127
532.2818594104308	532.4095691609978	59	127
532.4095691609978	532.5837188208617	64	127
532.4095691609978	532.5256689342403	77	127
532.4095691609978	532.5256689342403	71	127
532.4095691609978	532.5256689342403	68	127
532.5256689342403	532.641768707483	59	127
532.5256689342403	532.641768707483	68	127
532.5256689342403	532.641768707483	75	127
532.641768707483	532.7578684807256	77	127
532.641768707483	532.7578684807256	71	127
532.641768707483	532.7578684807256	68	127
532.641768707483	532.815918367347	52	127
532.7578684807256	532.8739455782313	68	127
532.7578684807256	532.8739455782313	76	127
532.7578684807256	532.8739455782313	59	127
532.8739455782313	532.9784580498866	71	127
532.8739455782313	532.9784580498866	68	127
532.8739455782313	533.036507936508	76	127
532.8739455782313	533.036507936508	40	127
532.9784580498866	533.1061678004535	68	127
532.9784580498866	533.1061678004535	59	127
533.1061678004535	533.2802947845805	76	127
533.1061678004535	533.2222675736962	71	127
533.1061678004535	533.2222675736962	68	127
533.1061678004535	533.3383673469388	52	127
533.2222675736962	533.3383673469388	59	127
533.2222675736962	533.3383673469388	68	127
533.3383673469388	533.4196371882086	77	127
533.3383673469388	533.4196371882086	71	127
533.3383673469388	533.4196371882086	68	127
533.3383673469388	533.524126984127	51	127
533.4196371882086	533.5357369614512	59	127
533.4196371882086	533.5357369614512	75	127
533.4196371882086	533.5357369614512	68	127
533.5357369614512	533.7679365079365	52	127
533.5357369614512	533.6518367346939	71	127
533.5357369614512	533.6518367346939	68	127
533.5357369614512	533.6518367346939	77	127
533.6518367346939	533.7679365079365	76	127
533.6518367346939	533.7679365079365	68	127
533.6518367346939	533.7679365079365	59	127
533.7679365079365	534.0001360544218	51	127
533.7679365079365	533.8840362811792	71	127
533.7679365079365	533.8840362811792	68	127
533.7679365079365	533.9420861678004	76	127
533.8840362811792	534.011746031746	68	127
533.8840362811792	534.011746031746	59	127
534.011746031746	534.1394557823129	71	127
534.011746031746	534.1394557823129	68	127
534.011746031746	534.18589569161	76	127
534.011746031746	534.18589569161	52	127
534.1394557823129	534.2555555555556	68	127
534.1394557823129	534.2555555555556	59	127
534.2555555555556	534.3832653061224	86	127
534.2555555555556	534.3832653061224	71	127
534.2555555555556	534.3832653061224	68	127
534.2555555555556	534.452925170068	64	127
534.3832653061224	534.5225623582767	76	127
534.3832653061224	534.5225623582767	68	127
534.3832653061224	534.5225623582767	59	127
534.5225623582767	534.6502947845805	86	127
534.5225623582767	534.6502947845805	71	127
534.5225623582767	534.6502947845805	68	127
534.5225623582767	534.7083219954649	52	127
534.6502947845805	534.7663945578231	83	127
534.6502947845805	534.7663945578231	68	127
534.6502947845805	534.7663945578231	59	127
534.7663945578231	534.9869841269841	45	127
534.7663945578231	535.3004535147393	86	127
534.7663945578231	534.9289115646259	72	127
534.7663945578231	534.9289115646259	69	127
534.9289115646259	535.0566439909297	64	127
534.9289115646259	535.0566439909297	60	127
535.0566439909297	535.3004535147393	57	127
535.0566439909297	535.1843537414966	72	127
535.0566439909297	535.1843537414966	69	127
535.1843537414966	535.3004535147393	60	127
535.1843537414966	535.3004535147393	64	127
535.3004535147393	535.4049433106576	69	127
535.3004535147393	535.5326303854876	56	127
535.3004535147393	536.2292517006803	84	127
535.3004535147393	535.4049433106576	72	127
535.4049433106576	535.5326303854876	60	127
535.4049433106576	535.5326303854876	64	127
535.5326303854876	535.776462585034	57	127
535.5326303854876	535.6603628117914	72	127
535.5326303854876	535.6603628117914	69	127
535.6603628117914	535.7880725623583	64	127
535.6603628117914	535.7880725623583	60	127
535.7880725623583	535.8925623582767	72	127
535.7880725623583	536.0086621315193	56	127
535.7880725623583	535.8925623582767	69	127
535.8925623582767	536.0086621315193	60	127
535.8925623582767	536.0086621315193	64	127
536.0086621315193	536.1828117913832	57	127
536.0086621315193	536.1363718820862	72	127
536.0086621315193	536.1363718820862	69	127
536.1363718820862	536.2408616780045	64	127
536.1363718820862	536.2408616780045	60	127
536.2408616780045	536.3569387755102	86	127
536.2408616780045	536.3569387755102	71	127
536.2408616780045	536.3569387755102	68	127
536.2408616780045	536.4150113378685	64	127
536.3569387755102	536.4846712018141	59	127
536.3569387755102	536.4846712018141	76	127
536.3569387755102	536.4846712018141	68	127
536.4846712018141	536.6123809523809	71	127
536.4846712018141	536.6123809523809	68	127
536.4846712018141	536.6123809523809	86	127
536.4846712018141	536.6704308390023	52	127
536.6123809523809	536.7284807256236	83	127
536.6123809523809	536.7284807256236	68	127
536.6123809523809	536.7284807256236	62	127
536.7400907029479	536.9258503401361	45	127
536.7400907029479	536.8678004535147	72	127
536.7400907029479	536.8678004535147	64	127
536.7400907029479	537.2509297052154	86	127
536.8678004535147	537.0071201814059	64	127
536.8678004535147	537.0071201814059	60	127
537.0071201814059	537.1348299319728	72	127
537.0071201814059	537.1348299319728	64	127
537.0071201814059	537.2509297052154	57	127
537.1348299319728	537.2625396825397	60	127
537.1348299319728	537.2625396825397	64	127
537.2625396825397	537.5063492063492	56	127
537.2625396825397	537.3786167800454	72	127
537.2625396825397	537.3786167800454	64	127
537.2625396825397	537.9707482993198	84	127
537.3786167800454	537.5063492063492	60	127
537.3786167800454	537.5063492063492	64	127
537.5063492063492	537.6340589569161	64	127
537.5063492063492	537.7385487528345	57	127
537.5063492063492	537.6340589569161	72	127
537.6340589569161	537.7501587301588	60	127
537.6340589569161	537.7501587301588	64	127
537.7501587301588	537.8662585034014	64	127
537.7501587301588	537.9707482993198	56	127
537.7501587301588	537.8662585034014	72	127
537.8662585034014	537.9707482993198	60	127
537.8662585034014	537.9707482993198	64	127
537.9707482993198	538.0984580498866	72	127
537.9707482993198	538.0984580498866	64	127
537.9707482993198	538.156507936508	57	127
537.9707482993198	538.2145578231292	76	127
538.0984580498866	538.2261678004535	64	127
538.0984580498866	538.2261678004535	60	127
538.2261678004535	538.3538775510204	88	127
538.2261678004535	538.3538775510204	71	127
538.2261678004535	538.3538775510204	68	127
538.2261678004535	538.423537414966	52	127
538.3538775510204	538.4815873015873	59	127
538.3538775510204	538.4815873015873	87	127
538.3538775510204	538.4815873015873	68	127
538.4815873015873	538.6209070294784	71	127
538.4815873015873	538.6209070294784	68	127
538.4815873015873	538.6209070294784	86	127
538.4815873015873	538.6789569160998	64	127
538.6209070294784	538.8066439909297	62	127
538.6209070294784	538.8066439909297	83	127
538.6209070294784	538.8066439909297	68	127
538.818253968254	538.9924263038549	41	127
538.818253968254	539.8631746031746	53	127
538.818253968254	539.7354648526077	86	127
538.818253968254	539.8631746031746	69	127
538.818253968254	539.8631746031746	57	127
539.0620861678004	539.30589569161	53	127
539.30589569161	539.6077551020409	52	127
539.6077551020409	539.8631746031746	53	127
539.7354648526077	539.8631746031746	84	127
539.8631746031746	540.0837641723356	65	127
539.8631746031746	540.1302040816327	65	127
539.8631746031746	540.8151927437642	83	127
540.0837641723356	540.1998639455783	53	127
540.1998639455783	540.3275736961451	65	127
540.1998639455783	540.4436507936508	53	127
540.3275736961451	540.4436507936508	53	127
540.4436507936508	540.5713832199547	65	127
540.4436507936508	540.6990929705215	52	127
540.5713832199547	540.6990929705215	53	127
540.6990929705215	540.9312925170068	53	127
540.6990929705215	540.8151927437642	65	127
540.8151927437642	540.9312925170068	53	127
540.8151927437642	540.9312925170068	81	127
540.9429024943311	541.8136507936508	84	127
540.9429024943311	541.070589569161	77	127
540.9429024943311	541.1286621315193	38	127
541.070589569161	541.1983219954649	65	127
541.1983219954649	541.3260317460317	77	127
541.1983219954649	541.4421315192744	50	127
541.3260317460317	541.4421315192744	65	127
541.4421315192744	541.685918367347	49	127
541.4421315192744	541.5698412698413	77	127
541.5698412698413	541.685918367347	65	127
541.685918367347	541.8136507936508	77	127
541.685918367347	541.9761904761905	50	127
541.8136507936508	541.9761904761905	65	127
541.8136507936508	541.9761904761905	83	127
541.9761904761905	542.8933560090703	81	127
541.9761904761905	542.1851700680272	64	127
541.9761904761905	542.1155102040816	64	127
542.1155102040816	542.2664399092971	52	127
542.2664399092971	542.3709297052154	64	127
542.2664399092971	542.4986167800454	52	127
542.3709297052154	542.4986167800454	52	127
542.4986167800454	542.7656689342404	51	127
542.4986167800454	542.6495691609978	64	127
542.6495691609978	542.7656689342404	52	127
542.7656689342404	542.8933560090703	64	127
542.7656689342404	543.0094784580499	52	127
542.8933560090703	543.0094784580499	80	127
542.8933560090703	543.0094784580499	52	127
543.0094784580499	543.1371882086167	59	127
543.0094784580499	543.1371882086167	55	127
543.0094784580499	543.1952380952381	37	127
543.0094784580499	543.8221768707483	79	127
543.1371882086167	543.2532879818594	55	127
543.1371882086167	543.2532879818594	52	127
543.2532879818594	543.4854875283447	49	127
543.2532879818594	543.369387755102	55	127
543.2532879818594	543.369387755102	57	127
543.369387755102	543.4854875283447	55	127
543.369387755102	543.4854875283447	52	127
543.4854875283447	543.717664399093	47	127
543.4854875283447	543.6015873015873	57	127
543.4854875283447	543.6015873015873	55	127
543.6015873015873	543.717664399093	52	127
543.6015873015873	543.717664399093	55	127
543.717664399093	543.8221768707483	55	127
543.717664399093	543.9266439909297	49	127
543.717664399093	543.8221768707483	57	127
543.8221768707483	543.9266439909297	55	127
543.8221768707483	543.9266439909297	52	127
543.8221768707483	543.9266439909297	76	127
543.9382766439909	544.7277324263039	77	127
543.9382766439909	544.1008163265307	65	127
543.9382766439909	544.1008163265307	57	127
543.9382766439909	544.1588662131519	62	127
544.1008163265307	544.2169160997732	57	127
544.1008163265307	544.2169160997732	53	127
544.2169160997732	544.4026757369614	50	127
544.2169160997732	544.3213832199547	57	127
544.2169160997732	544.3213832199547	65	127
544.3213832199547	544.4026757369614	57	127
544.3213832199547	544.4026757369614	53	127
544.4026757369614	544.6348752834467	49	127
544.4026757369614	544.5187755102041	65	127
544.4026757369614	544.5187755102041	57	127
544.5187755102041	544.6348752834467	53	127
544.5187755102041	544.6348752834467	57	127
544.6348752834467	544.7277324263039	65	127
544.6348752834467	544.8438548752835	50	127
544.6348752834467	544.7277324263039	57	127
544.7277324263039	544.8438548752835	53	127
544.7277324263039	544.8438548752835	74	127
544.7277324263039	544.8438548752835	57	127
544.8438548752835	544.959954648526	69	127
544.8438548752835	544.959954648526	60	127
544.8438548752835	545.0063945578231	40	127
544.8438548752835	545.6913832199547	72	127
544.959954648526	545.0760544217687	60	127
544.959954648526	545.0760544217687	57	127
545.0760544217687	545.1921541950113	69	127
545.0760544217687	545.1921541950113	60	127
545.0760544217687	545.3198639455783	52	127
545.1921541950113	545.3198639455783	57	127
545.1921541950113	545.3198639455783	60	127
545.3198639455783	545.575283446712	51	127
545.3198639455783	545.4475736961451	69	127
545.3198639455783	545.4475736961451	60	127
545.4475736961451	545.575283446712	60	127
545.4475736961451	545.575283446712	57	127
545.575283446712	545.6913832199547	60	127
545.575283446712	545.6913832199547	69	127
545.575283446712	545.8190929705215	52	127
545.6913832199547	545.8190929705215	76	127
545.6913832199547	545.8190929705215	60	127
545.6913832199547	545.8190929705215	57	127
545.8190929705215	546.6201814058957	71	127
545.8190929705215	545.97	68	127
545.8190929705215	545.97	59	127
545.8190929705215	546.0280725623583	64	127
545.97	546.0861224489796	59	127
545.97	546.0861224489796	56	127
546.0861224489796	546.3067120181406	52	127
546.0861224489796	546.2138321995465	59	127
546.0861224489796	546.2138321995465	68	127
546.2138321995465	546.3067120181406	59	127
546.2138321995465	546.3067120181406	56	127
546.3067120181406	546.3995918367347	68	127
546.3067120181406	546.3995918367347	59	127
546.3067120181406	546.5040816326531	51	127
546.3995918367347	546.5040816326531	59	127
546.3995918367347	546.5040816326531	56	127
546.5040816326531	546.6201814058957	59	127
546.5040816326531	546.6201814058957	68	127
546.5040816326531	546.7362811791384	52	127
546.6201814058957	546.7362811791384	76	127
546.6201814058957	546.7362811791384	59	127
546.6201814058957	546.7362811791384	56	127
546.7478911564626	547.6302494331065	70	127
546.7478911564626	546.8872108843537	58	127
546.7478911564626	546.8872108843537	55	127
546.7478911564626	546.9452607709751	37	127
546.8872108843537	547.0149206349206	55	127
546.8872108843537	547.0149206349206	52	127
547.0149206349206	547.2471201814059	49	127
547.0149206349206	547.1310204081633	55	127
547.0149206349206	547.1310204081633	57	127
547.1310204081633	547.2471201814059	55	127
547.1310204081633	547.2471201814059	52	127
547.2471201814059	547.3748299319728	57	127
547.2471201814059	547.3748299319728	55	127
547.2471201814059	547.5025396825397	47	127
547.3748299319728	547.5025396825397	55	127
547.3748299319728	547.5025396825397	52	127
547.5025396825397	547.6302494331065	55	127
547.5025396825397	547.7579591836735	49	127
547.5025396825397	547.6302494331065	57	127
547.6302494331065	547.7579591836735	55	127
547.6302494331065	547.7579591836735	52	127
547.6302494331065	547.7579591836735	79	127
547.7579591836735	547.8972789115646	65	127
547.7579591836735	547.8972789115646	57	127
547.7579591836735	547.9437188208617	62	127
547.7579591836735	548.617074829932	62	127
547.8972789115646	548.0133560090703	57	127
547.8972789115646	548.0133560090703	53	127
548.0133560090703	548.1294784580499	65	127
548.0133560090703	548.1294784580499	57	127
548.0133560090703	548.2571882086168	50	127
548.1294784580499	548.2571882086168	53	127
548.1294784580499	548.2571882086168	57	127
548.2571882086168	548.3848979591837	65	127
548.2571882086168	548.3848979591837	57	127
548.2571882086168	548.5126077097506	49	127
548.3848979591837	548.5126077097506	57	127
548.3848979591837	548.5126077097506	53	127
548.5126077097506	548.7215873015873	50	127
548.5126077097506	548.617074829932	57	127
548.5126077097506	548.617074829932	65	127
548.617074829932	548.7215873015873	57	127
548.617074829932	548.7215873015873	53	127
548.617074829932	548.7215873015873	77	127
548.7215873015873	548.8492970521542	69	127
548.7215873015873	548.8492970521542	60	127
548.7215873015873	548.9189569160998	40	127
548.7215873015873	549.6387528344671	72	127
548.8492970521542	548.9770068027211	60	127
548.8492970521542	548.9770068027211	57	127
548.9770068027211	549.2208163265307	52	127
548.9770068027211	549.104716553288	69	127
548.9770068027211	549.104716553288	60	127
549.104716553288	549.2208163265307	57	127
549.104716553288	549.2208163265307	60	127
549.2208163265307	549.5110657596372	51	127
549.2208163265307	549.3833560090703	69	127
549.2208163265307	549.3833560090703	72	127
549.3833560090703	549.5110657596372	69	127
549.3833560090703	549.5110657596372	60	127
549.5110657596372	549.6387528344671	69	127
549.5110657596372	549.6387528344671	72	127
549.5110657596372	549.7780952380953	52	127
549.6387528344671	549.7780952380953	60	127
549.6387528344671	549.7780952380953	69	127
549.6387528344671	549.7780952380953	88	127
549.7780952380953	549.9754648526077	64	127
549.7780952380953	549.9174149659864	72	127
549.7780952380953	550.9390929705215	91	127
549.7780952380953	549.9174149659864	69	127
549.9174149659864	550.1263945578231	60	127
549.9174149659864	550.1263945578231	69	127
550.1263945578231	550.4863038548752	52	127
550.1263945578231	550.2773242630385	72	127
550.1263945578231	550.2773242630385	69	127
550.2773242630385	550.4746712018141	69	127
550.2773242630385	550.4746712018141	60	127
550.4863038548752	550.6140136054422	68	127
550.4863038548752	550.7649433106576	51	127
550.4863038548752	550.6140136054422	71	127
550.6140136054422	550.7649433106576	68	127
550.6140136054422	550.7649433106576	59	127
550.7649433106576	550.9390929705215	71	127
550.7649433106576	550.9390929705215	68	127
550.7649433106576	551.4267120181406	52	127
550.9390929705215	551.4267120181406	89	127
550.9390929705215	551.4267120181406	68	127
550.9390929705215	551.4267120181406	59	127
551.4267120181406	553.609387755102	77	127
551.4267120181406	553.609387755102	89	127
552.0304308390023	552.4832199546486	72	127
552.0304308390023	552.4832199546486	69	127
552.4832199546486	552.6109297052154	71	127
552.4832199546486	552.6109297052154	74	127
552.6109297052154	553.0985487528345	72	127
552.6109297052154	553.0985487528345	76	127
553.1101587301588	553.4816780045352	71	127
553.1101587301588	553.4816780045352	74	127
553.4816780045352	553.609387755102	72	127
553.4816780045352	553.609387755102	69	127
553.609387755102	556.1055328798186	88	127
553.609387755102	554.1202267573697	72	127
553.609387755102	554.1202267573697	69	127
553.609387755102	557.8702494331066	76	127
554.1318367346939	554.5381859410431	71	127
554.1318367346939	554.5381859410431	68	127
554.5381859410431	554.6775056689343	72	127
554.5381859410431	554.6775056689343	69	127
554.6775056689343	555.199954648526	74	127
554.6775056689343	555.199954648526	71	127
555.2115646258503	555.6643537414966	69	127
555.2115646258503	555.6643537414966	72	127
555.6643537414966	555.8036734693877	67	127
555.6643537414966	555.8036734693877	71	127
555.8036734693877	559.1821768707483	65	127
555.8036734693877	559.1821768707483	69	127
556.1171428571429	556.5467120181406	80	127
556.5467120181406	557.1039909297052	81	127
557.1039909297052	557.359410430839	83	127
557.359410430839	557.5219501133787	86	127
557.5219501133787	557.6960997732426	84	127
557.6960997732426	557.8702494331066	83	127
557.8818594104308	558.067619047619	83	127
557.8818594104308	559.1821768707483	75	127
558.067619047619	558.2765986394558	84	127
558.2765986394558	558.4855782312925	81	127
558.4971882086168	559.1821768707483	81	127
559.1937868480726	560.5753741496599	64	127
559.1937868480726	560.5753741496599	80	127
559.1937868480726	560.5753741496599	71	127
559.1937868480726	561.7479818594104	76	127
560.5869841269841	561.7479818594104	61	127
560.5869841269841	561.7479818594104	70	127
560.5869841269841	561.7479818594104	79	127
561.7595918367347	563.1411564625851	62	127
561.7595918367347	564.2209070294784	74	127
561.7595918367347	563.1411564625851	78	127
561.7595918367347	563.1411564625851	69	127
563.1411564625851	564.2209070294784	77	127
563.1411564625851	564.2209070294784	59	127
563.1411564625851	564.2209070294784	68	127
564.2209070294784	565.5792743764173	67	127
564.2209070294784	565.5792743764173	76	127
564.2209070294784	565.2309750566893	60	127
564.2209070294784	565.5792743764173	72	127
565.2309750566893	565.5792743764173	48	127
565.5792743764173	566.8215192743764	65	127
565.5792743764173	566.496462585034	50	127
565.5792743764173	566.8215192743764	74	127
565.5792743764173	566.8215192743764	71	127
566.496462585034	566.8215192743764	38	127
566.8331292517007	568.2263492063493	69	127
566.8331292517007	568.2263492063493	64	127
566.8331292517007	568.2263492063493	72	127
566.8331292517007	570.1419954648526	40	127
568.2379591836735	570.1419954648526	71	127
568.2379591836735	570.1419954648526	68	127
568.2379591836735	570.1419954648526	62	127
570.1536054421769	572.0808616780046	56	127
570.1536054421769	570.3045124716554	53	127
570.1536054421769	570.3045124716554	48	127
570.3045124716554	570.4322448979592	52	127
570.3045124716554	570.4322448979592	50	127
570.4322448979592	570.5483446712018	53	127
570.4322448979592	570.5483446712018	48	127
570.5483446712018	570.6644444444445	52	127
570.5483446712018	570.6644444444445	50	127
570.6644444444445	570.7805442176871	48	127
570.6644444444445	570.7805442176871	53	127
570.7805442176871	570.908231292517	52	127
570.7805442176871	570.908231292517	50	127
570.908231292517	571.0359637188209	53	127
570.908231292517	571.0359637188209	48	127
571.0359637188209	571.1520634920635	52	127
571.0359637188209	571.1520634920635	50	127
571.1520634920635	571.2565532879819	53	127
571.1520634920635	571.2565532879819	48	127
571.2565532879819	571.3842630385487	52	127
571.2565532879819	571.3842630385487	50	127
571.3842630385487	571.4887528344672	53	127
571.3842630385487	571.4887528344672	48	127
571.4887528344672	571.6048526077097	52	127
571.4887528344672	571.6048526077097	50	127
571.6048526077097	571.7093424036282	53	127
571.6048526077097	571.7093424036282	48	127
571.7093424036282	571.837052154195	52	127
571.7093424036282	571.837052154195	50	127
571.837052154195	571.9647619047619	48	127
571.837052154195	571.9647619047619	53	127
571.9647619047619	572.0808616780046	50	127
571.9647619047619	572.0808616780046	52	127
572.0924716553288	572.2201814058957	48	127
572.0924716553288	574.0661678004535	68	127
572.0924716553288	572.2201814058957	53	127
572.0924716553288	574.0661678004535	83	127
572.2201814058957	572.3246712018141	50	127
572.2201814058957	572.3246712018141	52	127
572.3246712018141	572.452380952381	48	127
572.3246712018141	572.452380952381	53	127
572.452380952381	572.5800907029478	50	127
572.452380952381	572.5800907029478	52	127
572.5800907029478	572.7078004535148	48	127
572.5800907029478	572.7078004535148	53	127
572.7078004535148	572.8122902494331	50	127
572.7078004535148	572.8122902494331	52	127
572.8122902494331	572.94	48	127
572.8122902494331	572.94	53	127
572.94	573.0677097505669	50	127
572.94	573.0677097505669	52	127
573.0677097505669	573.1954195011338	48	127
573.0677097505669	573.1954195011338	53	127
573.1954195011338	573.3115192743765	50	127
573.1954195011338	573.3115192743765	52	127
573.3115192743765	573.4392290249433	48	127
573.3115192743765	573.4392290249433	53	127
573.4392290249433	573.5669160997733	50	127
573.4392290249433	573.5669160997733	52	127
573.5669160997733	573.6946485260771	48	127
573.5669160997733	573.6946485260771	53	127
573.6946485260771	573.8107482993197	52	127
573.6946485260771	573.8107482993197	50	127
573.8107482993197	573.9384580498867	53	127
573.8107482993197	573.9384580498867	48	127
573.9384580498867	574.0661678004535	52	127
573.9384580498867	574.0661678004535	50	127
574.0661678004535	574.1822448979592	48	127
574.0661678004535	575.7496145124717	86	127
574.0661678004535	574.1822448979592	71	127
574.0661678004535	574.1822448979592	53	127
574.1822448979592	574.3099773242631	52	127
574.1822448979592	574.3099773242631	50	127
574.1822448979592	574.3099773242631	68	127
574.3099773242631	574.4260770975056	71	127
574.3099773242631	574.4260770975056	53	127
574.3099773242631	574.4260770975056	48	127
574.4260770975056	574.5421768707483	52	127
574.4260770975056	574.5421768707483	68	127
574.4260770975056	574.5421768707483	50	127
574.5421768707483	574.6698866213152	53	127
574.5421768707483	574.6698866213152	48	127
574.5421768707483	574.6698866213152	71	127
574.6698866213152	574.7975736961452	52	127
574.6698866213152	574.7975736961452	50	127
574.6698866213152	574.7975736961452	68	127
574.7975736961452	574.9020861678005	53	127
574.7975736961452	574.9020861678005	48	127
574.7975736961452	574.9020861678005	71	127
574.9020861678005	575.0297959183673	52	127
574.9020861678005	575.0297959183673	50	127
574.9020861678005	575.0297959183673	68	127
575.0297959183673	575.0878458049887	53	127
575.0297959183673	575.0878458049887	48	127
575.0297959183673	575.0878458049887	71	127
575.0878458049887	575.1575056689343	53	127
575.0878458049887	575.1575056689343	48	127
575.0878458049887	575.1575056689343	71	127
575.1575056689343	575.2736054421769	52	127
575.1575056689343	575.2736054421769	50	127
575.1575056689343	575.2736054421769	68	127
575.2736054421769	575.4012925170068	53	127
575.2736054421769	575.4012925170068	48	127
575.2736054421769	575.4012925170068	71	127
575.4012925170068	575.5290249433107	68	127
575.4012925170068	575.5290249433107	52	127
575.4012925170068	575.5290249433107	50	127
575.5290249433107	575.6451247165533	48	127
575.5290249433107	575.6451247165533	71	127
575.5290249433107	575.6451247165533	53	127
575.6451247165533	575.7496145124717	68	127
575.6451247165533	575.7496145124717	52	127
575.6451247165533	575.7496145124717	50	127
575.7496145124717	575.8773242630385	39	127
575.7496145124717	577.4795011337868	71	127
575.7496145124717	575.8773242630385	77	127
575.7496145124717	575.8773242630385	68	127
575.7496145124717	577.4795011337868	80	127
575.8773242630385	576.0050340136055	40	127
575.8773242630385	576.0050340136055	76	127
575.8773242630385	576.0050340136055	59	127
576.0050340136055	576.1327437641723	39	127
576.0050340136055	576.1327437641723	77	127
576.0050340136055	576.1327437641723	68	127
576.1327437641723	576.2488435374149	40	127
576.1327437641723	576.2488435374149	76	127
576.1327437641723	576.2488435374149	59	127
576.2488435374149	576.3765532879819	77	127
576.2488435374149	576.3765532879819	68	127
576.2488435374149	576.3765532879819	39	127
576.3765532879819	576.5042630385487	40	127
576.3765532879819	576.5042630385487	76	127
576.3765532879819	576.5042630385487	59	127
576.5042630385487	576.6319501133787	39	127
576.5042630385487	576.6319501133787	68	127
576.5042630385487	576.6319501133787	77	127
576.6319501133787	576.7132426303855	40	127
576.6319501133787	576.7132426303855	76	127
576.6319501133787	576.7132426303855	59	127
576.7132426303855	576.8409297052154	39	127
576.7132426303855	576.8409297052154	77	127
576.7132426303855	576.8409297052154	68	127
576.8409297052154	576.9338321995465	40	127
576.8409297052154	576.9338321995465	76	127
576.8409297052154	576.9338321995465	59	127
576.9338321995465	577.0615419501133	77	127
576.9338321995465	577.0615419501133	68	127
576.9338321995465	577.0615419501133	39	127
577.0615419501133	577.2008616780046	76	127
577.0615419501133	577.2008616780046	40	127
577.0615419501133	577.2008616780046	59	127
577.2008616780046	577.3401814058957	68	127
577.2008616780046	577.3401814058957	39	127
577.2008616780046	577.3401814058957	77	127
577.3401814058957	577.4795011337868	40	127
577.3401814058957	577.4795011337868	76	127
577.3401814058957	577.4795011337868	59	127
577.4911111111111	577.6304308390023	71	127
577.4911111111111	577.7581405895692	69	127
577.4911111111111	577.7581405895692	81	127
577.4911111111111	577.7581405895692	57	127
577.4911111111111	577.7581405895692	45	127
577.6304308390023	577.7581405895692	69	127
577.7581405895692	577.885850340136	72	127
577.885850340136	578.0019501133787	69	127
578.013560090703	578.1412698412698	70	127
578.013560090703	578.2457596371883	81	127
578.013560090703	578.2457596371883	69	127
578.013560090703	578.2457596371883	55	127
578.013560090703	578.2457596371883	57	127
578.013560090703	578.2457596371883	43	127
578.1412698412698	578.2457596371883	69	127
578.2457596371883	578.3734693877551	73	127
578.3734693877551	578.4663265306123	69	127
578.4779365079365	578.6056689342404	70	127
578.4779365079365	578.7101587301587	81	127
578.4779365079365	578.7101587301587	69	127
578.4779365079365	578.7101587301587	54	127
578.4779365079365	578.7101587301587	57	127
578.4779365079365	578.7101587301587	42	127
578.6056689342404	578.7101587301587	69	127
578.7101587301587	578.8146485260771	74	127
578.8146485260771	578.9307482993197	69	127
578.942358276644	579.1861678004535	53	127
578.942358276644	579.1861678004535	57	127
578.942358276644	579.1861678004535	81	127
578.942358276644	579.0700680272109	71	127
578.942358276644	579.1861678004535	69	127
578.942358276644	579.1861678004535	41	127
579.0700680272109	579.1861678004535	69	127
579.1861678004535	579.2790476190477	74	127
579.2790476190477	579.3603174603174	69	127
579.3603174603174	579.7085941043084	81	127
579.3603174603174	579.4648072562359	71	127
579.3603174603174	579.5809070294785	57	127
579.3603174603174	579.5809070294785	52	127
579.3603174603174	579.5809070294785	40	127
579.4648072562359	579.5809070294785	69	127
579.5809070294785	579.7085941043084	76	127
579.7085941043084	579.824716553288	69	127
579.7085941043084	579.824716553288	83	127
579.824716553288	580.7186621315193	64	127
579.824716553288	579.9524263038548	71	127
579.824716553288	580.0569160997733	40	127
579.824716553288	580.7186621315193	84	127
579.9524263038548	580.0685260770975	69	127
580.0685260770975	580.1730158730159	81	127
580.1730158730159	580.2775056689343	69	127
580.2775056689343	580.4748752834467	52	127
580.2775056689343	580.3936054421769	74	127
580.3936054421769	580.486485260771	72	127
580.486485260771	580.6025850340136	81	127
580.6025850340136	580.7186621315193	72	127
580.7186621315193	581.1830839002267	83	127
580.7186621315193	580.8463945578231	72	127
580.7186621315193	580.9624943310657	68	127
580.7186621315193	580.9624943310657	40	127
580.8463945578231	580.97410430839	71	127
580.97410430839	581.0553741496599	80	127
581.0553741496599	581.1830839002267	71	127
581.1830839002267	581.4268934240363	81	127
581.1830839002267	581.4268934240363	55	127
581.1830839002267	581.4268934240363	57	127
581.1830839002267	581.4268934240363	45	127
581.1830839002267	581.3107936507937	58	127
581.1830839002267	581.4268934240363	69	127
581.3107936507937	581.4385034013605	57	127
581.4385034013605	581.5662131519274	61	127
581.5662131519274	581.6823129251701	57	127
581.6823129251701	581.810022675737	58	127
581.6823129251701	581.9145124716554	81	127
581.6823129251701	581.9145124716554	69	127
581.6823129251701	581.9145124716554	55	127
581.6823129251701	581.9145124716554	57	127
581.6823129251701	581.9145124716554	43	127
581.810022675737	581.9261224489796	57	127
581.9261224489796	582.0422222222222	61	127
582.0422222222222	582.1466893424036	57	127
582.1466893424036	582.2395918367347	58	127
582.1466893424036	582.3556689342404	81	127
582.1466893424036	582.3556689342404	69	127
582.1466893424036	582.3556689342404	54	127
582.1466893424036	582.3556689342404	57	127
582.1466893424036	582.3556689342404	42	127
582.2395918367347	582.3672789115647	57	127
582.3672789115647	582.4834013605442	62	127
582.4834013605442	582.5530612244899	57	127
582.5530612244899	582.6807709750567	59	127
582.5530612244899	582.785260770975	81	127
582.5530612244899	582.785260770975	69	127
582.5530612244899	582.785260770975	53	127
582.5530612244899	582.785260770975	57	127
582.5530612244899	582.785260770975	41	127
582.6807709750567	582.785260770975	57	127
582.785260770975	582.912970521542	62	127
582.912970521542	583.0290702947846	57	127
583.0290702947846	583.4238095238095	81	127
583.0290702947846	583.1683673469388	59	127
583.0290702947846	583.2960997732426	57	127
583.0290702947846	583.2960997732426	52	127
583.0290702947846	583.2960997732426	40	127
583.1683673469388	583.2960997732426	57	127
583.2960997732426	583.4238095238095	69	127
583.4238095238095	583.5399092970522	57	127
583.4238095238095	583.5399092970522	83	127
583.5515192743765	584.3642176870749	64	127
583.5515192743765	583.667619047619	59	127
583.5515192743765	583.795306122449	40	127
583.5515192743765	584.3642176870749	84	127
583.667619047619	583.795306122449	57	127
583.795306122449	583.9114285714286	69	127
583.9114285714286	584.1204081632653	52	127
583.9114285714286	584.0159183673469	62	127
584.0159183673469	584.1204081632653	60	127
584.1204081632653	584.2481179138322	72	127
584.2481179138322	584.3642176870749	60	127
584.3758276643991	584.6080045351474	64	127
584.3758276643991	584.4803174603175	65	127
584.3758276643991	584.6080045351474	68	127
584.3758276643991	584.8518367346938	83	127
584.4803174603175	584.6080045351474	64	127
584.6080045351474	584.7357369614513	76	127
584.7357369614513	584.8518367346938	64	127
584.8634467120181	585.1072562358277	76	127
584.8634467120181	585.1885260770975	72	127
584.8634467120181	585.1885260770975	81	127
584.8634467120181	585.1885260770975	62	127
584.8634467120181	585.1885260770975	69	127
584.8634467120181	585.1885260770975	57	127
584.9911564625851	585.2349433106576	76	127
585.1072562358277	585.3510657596372	76	127
585.2349433106576	585.4555555555555	76	127
585.3626757369615	585.5832653061225	76	127
585.4671655328798	585.6761451247165	76	127
585.5832653061225	585.7922448979592	76	127
585.6761451247165	585.9199546485261	76	127
585.8038548752835	586.1405442176871	52	127
585.8038548752835	586.047641723356	76	127
585.8038548752835	586.1405442176871	83	127
585.8038548752835	586.1405442176871	71	127
585.8038548752835	586.1405442176871	68	127
585.9315646258503	586.1753741496599	76	127
586.047641723356	586.3030839002267	76	127
586.1753741496599	586.4191836734694	76	127
586.3030839002267	586.5236734693877	76	127
586.4191836734694	586.7790929705216	76	127
586.5236734693877	586.6513605442177	80	127
586.6513605442177	586.7790929705216	76	127
586.7790929705216	587.1390022675737	84	127
586.7790929705216	587.1390022675737	69	127
586.7790929705216	587.1390022675737	57	127
586.7790929705216	587.0229024943311	76	127
586.7790929705216	587.1390022675737	72	127
586.9068027210884	587.1738321995465	76	127
587.0461224489796	587.2899319727891	76	127
587.1738321995465	587.4060317460318	76	127
587.2899319727891	587.5221315192744	76	127
587.4060317460318	587.6498412698413	76	127
587.5337414965986	587.6498412698413	81	127
587.6498412698413	587.7659410430839	76	127
587.6498412698413	588.1374603174603	76	127
587.7659410430839	588.1026303854875	88	127
587.7659410430839	588.0097505668934	76	127
587.7659410430839	588.1026303854875	68	127
587.7659410430839	588.1026303854875	71	127
587.7659410430839	588.1026303854875	52	127
588.0213605442177	588.2767800453515	76	127
588.1490702947846	588.4044897959184	76	127
588.2767800453515	588.5438095238095	76	127
588.4160997732426	588.9733786848072	76	127
588.5438095238095	588.7295691609977	88	127
588.7295691609977	588.9733786848072	80	127
589.1475283446712	590.9702947845805	69	127
589.1475283446712	590.9702947845805	57	127
589.1475283446712	590.9702947845805	45	127
589.1475283446712	590.9702947845805	81	127
589.1475283446712	590.9702947845805	64	127
589.1475283446712	590.9702947845805	72	127
589.1475283446712	590.9702947845805	60	127
592.932380952381	593.0717006802721	69	127
