# onset,offset,note,velocity
0.045668934240362814	2.0658049886621317	56	127
0.045668934240362814	2.0658049886621317	44	127
0.045668934240362814	1.8336054421768708	69	127
0.045668934240362814	2.0658049886621317	56	127
2.0774149659863945	2.4837641723356008	45	127
2.0774149659863945	2.4837641723356008	57	127
2.0774149659863945	2.4837641723356008	57	127
2.4837641723356008	2.8436734693877552	49	127
2.4837641723356008	2.8436734693877552	61	127
2.4837641723356008	2.8436734693877552	61	127
2.8436734693877552	3.2151927437641725	49	127
2.8436734693877552	3.2151927437641725	61	127
2.8436734693877552	3.2151927437641725	61	127
3.2268027210884354	3.70281179138322	50	127
3.2268027210884354	3.70281179138322	62	127
3.2268027210884354	3.70281179138322	62	127
3.70281179138322	4.074308390022676	54	127
3.70281179138322	4.074308390022676	66	127
3.70281179138322	4.074308390022676	66	127
4.074308390022676	4.457460317460318	46	127
4.074308390022676	4.457460317460318	58	127
4.074308390022676	4.457460317460318	58	127
4.457460317460318	4.805759637188209	47	127
4.457460317460318	4.805759637188209	59	127
4.457460317460318	4.805759637188209	59	127
4.817369614512471	5.2004761904761905	51	127
4.817369614512471	5.2004761904761905	63	127
4.817369614512471	5.2004761904761905	63	127
5.2004761904761905	5.630068027210885	63	127
5.2004761904761905	5.630068027210885	51	127
5.2004761904761905	5.630068027210885	51	127
5.630068027210885	6.082857142857143	52	127
5.630068027210885	6.082857142857143	52	127
5.630068027210885	6.082857142857143	64	127
6.094467120181406	6.570476190476191	56	127
6.094467120181406	6.570476190476191	68	127
6.094467120181406	6.570476190476191	56	127
6.570476190476191	6.9071655328798185	56	127
6.570476190476191	7.232244897959184	73	127
6.9071655328798185	7.232244897959184	57	127
7.232244897959184	7.394784580498866	71	127
7.232244897959184	7.545714285714285	61	127
7.394784580498866	7.545714285714285	69	127
7.557324263038549	7.719863945578231	68	127
7.557324263038549	7.894013605442177	61	127
7.719863945578231	7.894013605442177	65	127
7.894013605442177	8.277142857142858	62	127
7.894013605442177	8.126213151927438	66	127
8.277142857142858	8.764761904761905	66	127
8.776349206349206	9.113061224489796	46	127
8.776349206349206	9.542630385487529	62	127
9.113061224489796	9.542630385487529	47	127
9.542630385487529	9.728390022675738	61	127
9.542630385487529	9.960589569160998	50	127
9.728390022675738	9.960589569160998	59	127
9.960589569160998	10.216009070294785	57	127
9.960589569160998	10.424965986394557	51	127
10.216009070294785	10.424965986394557	54	127
10.436598639455783	10.703628117913832	56	127
10.436598639455783	10.84294784580499	52	127
10.84294784580499	11.202857142857143	56	127
11.202857142857143	11.57437641723356	60	127
11.202857142857143	11.911065759637188	76	127
11.585986394557823	11.911065759637188	61	127
11.911065759637188	12.07360544217687	74	127
11.911065759637188	12.247755102040816	64	127
12.085215419501134	12.247755102040816	73	127
12.247755102040816	12.433514739229025	71	127
12.247755102040816	12.60766439909297	65	127
12.433514739229025	12.60766439909297	68	127
12.60766439909297	12.851473922902494	69	127
12.60766439909297	12.967573696145125	66	127
12.979183673469388	13.431972789115646	69	127
13.431972789115646	13.768662131519275	64	127
13.431972789115646	13.768662131519275	61	127
13.431972789115646	13.594512471655328	73	127
13.606122448979592	13.768662131519275	70	127
13.768662131519275	14.09374149659864	63	127
13.768662131519275	13.989251700680272	71	127
13.768662131519275	14.09374149659864	66	127
14.105351473922903	14.453650793650795	66	127
14.105351473922903	14.453650793650795	69	127
14.453650793650795	14.813560090702948	59	127
14.453650793650795	14.813560090702948	51	127
14.453650793650795	14.639410430839002	69	127
14.453650793650795	14.813560090702948	54	127
14.651020408163266	14.813560090702948	66	127
14.813560090702948	15.336009070294784	52	127
14.813560090702948	15.219909297052155	68	127
14.813560090702948	15.336009070294784	56	127
15.336009070294784	15.904897959183673	56	127
15.336009070294784	15.904897959183673	59	127
15.904897959183673	16.682766439909297	68	127
15.904897959183673	16.682766439909297	56	127
15.904897959183673	16.322857142857142	39	127
16.34607709750567	16.682766439909297	40	127
16.682766439909297	16.845283446712017	66	127
16.682766439909297	17.019455782312924	44	127
16.682766439909297	16.845283446712017	54	127
16.856916099773244	17.019455782312924	64	127
16.856916099773244	17.019455782312924	52	127
17.019455782312924	17.332925170068027	52	127
17.019455782312924	17.332925170068027	44	127
17.019455782312924	17.170385487528346	63	127
17.170385487528346	17.332925170068027	60	127
17.34453514739229	17.623174603174604	61	127
17.34453514739229	17.739274376417235	45	127
17.739274376417235	18.087573696145125	49	127
18.087573696145125	18.969931972789116	81	127
18.087573696145125	18.969931972789116	69	127
18.087573696145125	18.621609977324262	53	127
18.621609977324262	18.969931972789116	54	127
18.981541950113378	19.144081632653062	68	127
18.981541950113378	19.144081632653062	80	127
18.981541950113378	19.306621315192743	57	127
19.144081632653062	19.306621315192743	66	127
19.144081632653062	19.306621315192743	78	127
19.306621315192743	19.67814058956916	58	127
19.306621315192743	19.48077097505669	76	127
19.306621315192743	19.48077097505669	64	127
19.503968253968253	19.67814058956916	61	127
19.503968253968253	19.67814058956916	73	127
19.67814058956916	20.072879818594103	59	127
19.67814058956916	19.956780045351476	75	127
19.67814058956916	20.072879818594103	63	127
20.188979591836734	20.537278911564627	63	127
20.188979591836734	20.537278911564627	66	127
20.537278911564627	21.23387755102041	80	127
20.537278911564627	20.89718820861678	66	127
20.537278911564627	20.89718820861678	62	127
20.89718820861678	21.23387755102041	64	127
20.89718820861678	21.23387755102041	68	127
21.245487528344672	21.570566893424036	71	127
21.245487528344672	21.40800453514739	78	127
21.245487528344672	21.570566893424036	68	127
21.40800453514739	21.570566893424036	76	127
21.570566893424036	21.942086167800454	64	127
21.570566893424036	21.77954648526077	75	127
21.570566893424036	21.942086167800454	68	127
21.77954648526077	21.942086167800454	72	127
21.942086167800454	22.27877551020408	73	127
21.942086167800454	22.394875283446712	57	127
21.942086167800454	22.394875283446712	69	127
22.394875283446712	22.73156462585034	68	127
22.394875283446712	22.557414965986396	85	127
22.394875283446712	22.73156462585034	65	127
22.557414965986396	22.73156462585034	83	127
22.754784580498868	23.195963718820863	65	127
22.754784580498868	23.195963718820863	61	127
22.754784580498868	22.998571428571427	83	127
22.998571428571427	23.195963718820863	80	127
23.195963718820863	23.567460317460316	69	127
23.195963718820863	23.567460317460316	66	127
23.195963718820863	23.45138321995465	81	127
23.567460317460316	23.73002267573696	83	127
23.567460317460316	23.892562358276646	66	127
23.567460317460316	23.892562358276646	63	127
23.73002267573696	23.892562358276646	81	127
23.904172335600908	24.345351473922904	63	127
23.904172335600908	24.06671201814059	81	127
23.904172335600908	24.345351473922904	59	127
24.06671201814059	24.345351473922904	78	127
24.345351473922904	24.75170068027211	68	127
24.345351473922904	24.75170068027211	64	127
24.345351473922904	24.623990929705215	80	127
24.75170068027211	25.111609977324264	68	127
24.75170068027211	25.111609977324264	59	127
24.75170068027211	24.925850340136055	81	127
24.75170068027211	24.98390022675737	52	127
24.937460317460317	25.111609977324264	80	127
25.111609977324264	25.308979591836735	68	127
25.111609977324264	25.36702947845805	47	127
25.111609977324264	25.308979591836735	80	127
25.111609977324264	25.308979591836735	59	127
25.308979591836735	25.471519274376416	77	127
25.308979591836735	25.471519274376416	68	127
25.308979591836735	25.471519274376416	71	127
25.48312925170068	25.773378684807255	69	127
25.48312925170068	25.773378684807255	59	127
25.48312925170068	25.773378684807255	78	127
25.48312925170068	25.773378684807255	59	127
25.91269841269841	26.168117913832198	59	127
25.91269841269841	26.168117913832198	47	127
25.91269841269841	26.09845804988662	80	127
25.91269841269841	26.168117913832198	69	127
26.110068027210886	26.28421768707483	78	127
26.29582766439909	26.528027210884353	69	127
26.29582766439909	26.574467120181406	47	127
26.29582766439909	26.528027210884353	78	127
26.29582766439909	26.528027210884353	57	127
26.528027210884353	26.7021768707483	75	127
26.528027210884353	26.7021768707483	59	127
26.528027210884353	26.7021768707483	66	127
26.7021768707483	26.96920634920635	64	127
26.7021768707483	26.96920634920635	52	127
26.7021768707483	26.96920634920635	76	127
26.7021768707483	26.96920634920635	56	127
27.503265306122447	27.898004535147393	44	127
27.503265306122447	27.898004535147393	56	127
27.503265306122447	27.898004535147393	56	127
27.898004535147393	28.455283446712016	57	127
27.898004535147393	28.455283446712016	57	127
27.898004535147393	28.455283446712016	45	127
28.466893424036282	28.850022675736962	61	127
28.466893424036282	28.850022675736962	49	127
28.466893424036282	28.850022675736962	61	127
28.850022675736962	29.175102040816327	49	127
28.850022675736962	29.175102040816327	61	127
28.850022675736962	29.175102040816327	61	127
29.175102040816327	29.56984126984127	50	127
29.175102040816327	29.56984126984127	62	127
29.175102040816327	29.56984126984127	62	127
29.56984126984127	29.918140589569163	54	127
29.56984126984127	29.918140589569163	66	127
29.56984126984127	29.918140589569163	66	127
29.929750566893425	30.25482993197279	46	127
29.929750566893425	30.25482993197279	58	127
29.929750566893425	30.25482993197279	58	127
30.25482993197279	30.71922902494331	59	127
30.25482993197279	30.71922902494331	47	127
30.25482993197279	30.71922902494331	59	127
30.71922902494331	31.20684807256236	51	127
30.71922902494331	31.20684807256236	63	127
30.71922902494331	31.20684807256236	63	127
31.21845804988662	31.566757369614514	51	127
31.21845804988662	31.566757369614514	63	127
31.21845804988662	31.566757369614514	51	127
31.566757369614514	31.926666666666666	52	127
31.566757369614514	31.926666666666666	64	127
31.566757369614514	31.926666666666666	52	127
31.926666666666666	32.40267573696145	56	127
31.926666666666666	32.40267573696145	68	127
31.926666666666666	32.40267573696145	56	127
32.40267573696145	33.099274376417235	73	127
32.40267573696145	32.72775510204082	56	127
32.73936507936508	33.099274376417235	57	127
33.099274376417235	33.28503401360544	71	127
33.099274376417235	33.47079365079365	61	127
33.296621315192745	33.47079365079365	69	127
33.47079365079365	33.80746031746032	61	127
33.47079365079365	33.62172335600907	68	127
33.62172335600907	33.80746031746032	65	127
33.819092970521545	34.07451247165533	66	127
33.819092970521545	34.190589569161	62	127
34.190589569161	34.70142857142857	66	127
34.70142857142857	35.08458049886622	46	127
34.70142857142857	35.40965986394558	62	127
35.08458049886622	35.40965986394558	47	127
35.42126984126984	35.618639455782315	61	127
35.42126984126984	35.79278911564626	50	127
35.618639455782315	35.79278911564626	59	127
35.79278911564626	36.02498866213152	57	127
35.79278911564626	36.22233560090703	51	127
36.03659863945578	36.22233560090703	54	127
36.22233560090703	36.466145124716554	56	127
36.22233560090703	36.6287074829932	52	127
36.64031746031746	36.97698412698413	56	127
36.97698412698413	37.36011337868481	60	127
36.97698412698413	37.70843537414966	76	127
37.36011337868481	37.70843537414966	61	127
37.72004535147392	37.90580498866213	74	127
37.72004535147392	38.068344671201814	64	127
37.90580498866213	38.068344671201814	73	127
38.079954648526076	38.2424716553288	71	127
38.079954648526076	38.405034013605444	65	127
38.2424716553288	38.405034013605444	68	127
38.405034013605444	38.71850340136054	69	127
38.405034013605444	38.834603174603174	66	127
38.834603174603174	39.287392290249436	69	127
39.2990022675737	39.65891156462585	64	127
39.2990022675737	39.65891156462585	61	127
39.2990022675737	39.46154195011338	73	127
39.46154195011338	39.65891156462585	70	127
39.65891156462585	39.99560090702948	63	127
39.65891156462585	39.879501133786846	71	127
39.65891156462585	39.99560090702948	66	127
39.99560090702948	40.35551020408163	66	127
39.99560090702948	40.35551020408163	69	127
40.367120181405895	40.7734693877551	51	127
40.367120181405895	40.7734693877551	54	127
40.367120181405895	40.587709750566894	69	127
40.367120181405895	40.7734693877551	59	127
40.587709750566894	40.7734693877551	66	127
40.7734693877551	41.06371882086168	68	127
40.7734693877551	41.22625850340136	56	127
40.7734693877551	41.22625850340136	52	127
41.22625850340136	41.72548752834467	59	127
41.22625850340136	41.72548752834467	56	127
41.72548752834467	42.46852607709751	68	127
41.72548752834467	42.46852607709751	56	127
41.72548752834467	42.14344671201814	39	127
42.14344671201814	42.46852607709751	40	127
42.48013605442177	42.63106575963719	66	127
42.48013605442177	42.75877551020408	44	127
42.48013605442177	42.63106575963719	54	127
42.63106575963719	42.75877551020408	64	127
42.63106575963719	42.75877551020408	52	127
42.75877551020408	43.153514739229024	52	127
42.75877551020408	43.153514739229024	44	127
42.75877551020408	42.96775510204082	63	127
42.97936507936508	43.153514739229024	60	127
43.153514739229024	43.59469387755102	45	127
43.153514739229024	43.46698412698413	61	127
43.61791383219955	43.9778231292517	49	127
43.989433106575966	44.76730158730159	69	127
43.989433106575966	44.32612244897959	53	127
43.989433106575966	44.76730158730159	81	127
44.32612244897959	44.76730158730159	54	127
44.76730158730159	44.92984126984127	80	127
44.76730158730159	45.11560090702948	57	127
44.76730158730159	44.92984126984127	68	127
44.92984126984127	45.11560090702948	78	127
44.92984126984127	45.11560090702948	66	127
45.127210884353744	45.289750566893424	76	127
45.127210884353744	45.46390022675737	58	127
45.127210884353744	45.289750566893424	64	127
45.289750566893424	45.46390022675737	73	127
45.289750566893424	45.46390022675737	61	127
45.46390022675737	45.719319727891154	75	127
45.46390022675737	46.06761904761905	59	127
45.46390022675737	46.06761904761905	63	127
46.06761904761905	46.45074829931973	63	127
46.06761904761905	46.45074829931973	66	127
46.46235827664399	46.775827664399095	62	127
46.46235827664399	47.100907029478456	80	127
46.46235827664399	46.775827664399095	66	127
46.775827664399095	47.100907029478456	68	127
46.775827664399095	47.100907029478456	64	127
47.100907029478456	47.425986394557825	71	127
47.100907029478456	47.425986394557825	68	127
47.100907029478456	47.263446712018144	78	127
47.27505668934241	47.425986394557825	76	127
47.425986394557825	47.76267573696145	64	127
47.425986394557825	47.76267573696145	68	127
47.425986394557825	47.60013605442177	75	127
47.60013605442177	47.76267573696145	72	127
47.77428571428572	48.029705215419504	73	127
47.77428571428572	48.16902494331066	69	127
47.77428571428572	48.16902494331066	57	127
48.16902494331066	48.55215419501134	68	127
48.16902494331066	48.55215419501134	65	127
48.16902494331066	48.354784580498865	85	127
48.36639455782313	48.55215419501134	83	127
48.55215419501134	48.958503401360545	65	127
48.55215419501134	48.958503401360545	61	127
48.55215419501134	48.737913832199546	83	127
48.737913832199546	48.958503401360545	80	127
48.97011337868481	49.179092970521545	81	127
48.97011337868481	49.283582766439906	66	127
48.97011337868481	49.283582766439906	69	127
49.283582766439906	49.6318820861678	66	127
49.283582766439906	49.6318820861678	63	127
49.283582766439906	49.46934240362812	83	127
49.46934240362812	49.6318820861678	81	127
49.6318820861678	50.08467120181406	63	127
49.6318820861678	50.08467120181406	59	127
49.6318820861678	49.80603174603175	81	127
49.829251700680274	50.08467120181406	78	127
50.08467120181406	50.30526077097505	80	127
50.08467120181406	50.43297052154195	64	127
50.08467120181406	50.43297052154195	68	127
50.444580498866216	50.85092970521542	68	127
50.444580498866216	50.85092970521542	59	127
50.444580498866216	50.66517006802721	81	127
50.444580498866216	50.72321995464853	52	127
50.66517006802721	50.85092970521542	80	127
50.85092970521542	51.025079365079364	59	127
50.85092970521542	51.025079365079364	80	127
50.85092970521542	51.025079365079364	68	127
50.85092970521542	51.08312925170068	47	127
51.036689342403626	51.199229024943314	71	127
51.036689342403626	51.199229024943314	77	127
51.036689342403626	51.199229024943314	68	127
51.199229024943314	51.4546485260771	59	127
51.199229024943314	51.4546485260771	69	127
51.199229024943314	51.4546485260771	59	127
51.199229024943314	51.4546485260771	78	127
51.570748299319725	51.83777777777778	59	127
51.570748299319725	51.83777777777778	47	127
51.570748299319725	51.7681179138322	80	127
51.570748299319725	51.83777777777778	69	127
51.7681179138322	51.953877551020405	78	127
51.953877551020405	52.244126984126986	69	127
51.953877551020405	52.3021768707483	47	127
51.953877551020405	52.244126984126986	78	127
51.953877551020405	52.244126984126986	57	127
52.244126984126986	52.49954648526077	75	127
52.244126984126986	52.49954648526077	59	127
52.244126984126986	52.49954648526077	66	127
52.49954648526077	52.789795918367346	76	127
52.49954648526077	52.789795918367346	64	127
52.49954648526077	52.789795918367346	56	127
52.49954648526077	52.789795918367346	52	127
52.940725623582765	53.323854875283445	55	127
52.940725623582765	53.323854875283445	67	127
52.940725623582765	53.323854875283445	55	127
52.940725623582765	53.323854875283445	43	127
53.323854875283445	53.69537414965986	42	127
53.323854875283445	53.69537414965986	66	127
53.323854875283445	53.69537414965986	54	127
53.69537414965986	54.090113378684805	55	127
53.69537414965986	54.090113378684805	43	127
53.69537414965986	54.090113378684805	67	127
53.69537414965986	54.090113378684805	55	127
54.090113378684805	54.48485260770975	47	127
54.090113378684805	54.48485260770975	71	127
54.090113378684805	54.48485260770975	59	127
54.090113378684805	54.48485260770975	59	127
54.49646258503402	54.8795918367347	47	127
54.49646258503402	54.8795918367347	71	127
54.49646258503402	54.8795918367347	59	127
54.49646258503402	54.8795918367347	59	127
54.8795918367347	55.21628117913832	72	127
54.8795918367347	55.21628117913832	60	127
54.8795918367347	55.21628117913832	60	127
54.8795918367347	55.21628117913832	48	127
55.21628117913832	55.796780045351476	64	127
55.21628117913832	55.796780045351476	76	127
55.21628117913832	55.796780045351476	64	127
55.21628117913832	55.796780045351476	52	127
55.80839002267574	56.1334693877551	54	127
55.80839002267574	56.1334693877551	78	127
55.80839002267574	56.1334693877551	66	127
56.1334693877551	56.47015873015873	79	127
56.1334693877551	56.47015873015873	55	127
56.1334693877551	56.47015873015873	67	127
56.47015873015873	56.7952380952381	83	127
56.47015873015873	56.7952380952381	59	127
56.47015873015873	56.7952380952381	71	127
56.80684807256236	57.166757369614515	71	127
56.80684807256236	57.166757369614515	47	127
56.80684807256236	57.166757369614515	83	127
56.80684807256236	57.166757369614515	59	127
57.166757369614515	57.89818594104308	72	127
57.166757369614515	57.89818594104308	84	127
57.166757369614515	57.89818594104308	60	127
57.166757369614515	57.89818594104308	48	127
57.89818594104308	58.246485260770974	55	127
57.89818594104308	58.246485260770974	61	127
57.89818594104308	58.246485260770974	88	127
57.89818594104308	58.246485260770974	76	127
58.246485260770974	58.966303854875285	77	127
58.246485260770974	58.64122448979592	53	127
58.246485260770974	58.966303854875285	81	127
58.246485260770974	58.64122448979592	57	127
58.64122448979592	58.966303854875285	55	127
58.64122448979592	58.966303854875285	59	127
58.97791383219955	59.53519274376417	62	127
58.97791383219955	59.53519274376417	59	127
58.97791383219955	59.233333333333334	79	127
58.97791383219955	59.233333333333334	76	127
59.233333333333334	59.53519274376417	77	127
59.233333333333334	59.53519274376417	74	127
59.53519274376417	60.35950113378685	64	127
59.53519274376417	59.70934240362812	74	127
59.53519274376417	60.35950113378685	67	127
59.53519274376417	59.70934240362812	77	127
59.72095238095238	59.88349206349206	71	127
59.72095238095238	59.88349206349206	74	127
59.88349206349206	60.13891156462585	76	127
59.88349206349206	60.13891156462585	72	127
60.35950113378685	60.56848072562358	65	127
60.35950113378685	60.56848072562358	62	127
60.56848072562358	60.77746031746032	64	127
60.56848072562358	60.77746031746032	60	127
60.78907029478458	61.4740589569161	81	127
60.78907029478458	61.4740589569161	77	127
60.78907029478458	60.95160997732426	64	127
60.78907029478458	60.95160997732426	60	127
60.95160997732426	61.11414965986395	60	127
60.95160997732426	61.11414965986395	57	127
61.11414965986395	61.35795918367347	62	127
61.11414965986395	61.35795918367347	59	127
61.4740589569161	61.68303854875283	76	127
61.4740589569161	61.68303854875283	79	127
61.68303854875283	61.88040816326531	77	127
61.68303854875283	61.88040816326531	74	127
61.89201814058957	62.739546485260774	67	127
61.89201814058957	62.1009977324263	77	127
61.89201814058957	62.1009977324263	74	127
61.89201814058957	62.739546485260774	64	127
62.1009977324263	62.26353741496599	74	127
62.1009977324263	62.26353741496599	71	127
62.26353741496599	62.57700680272109	76	127
62.26353741496599	62.57700680272109	72	127
62.739546485260774	62.96013605442177	62	127
62.739546485260774	62.96013605442177	65	127
62.96013605442177	63.15750566893424	64	127
62.96013605442177	63.15750566893424	60	127
63.169115646258504	63.95859410430839	62	127
63.169115646258504	63.95859410430839	58	127
63.56385487528345	63.95859410430839	79	127
63.56385487528345	63.95859410430839	76	127
63.95859410430839	64.1443537414966	81	127
63.95859410430839	64.1443537414966	77	127
63.95859410430839	64.1443537414966	60	127
63.95859410430839	64.1443537414966	57	127
64.1443537414966	64.33011337868481	82	127
64.1443537414966	64.33011337868481	55	127
64.1443537414966	64.33011337868481	58	127
64.1443537414966	64.33011337868481	79	127
64.33011337868481	65.16603174603175	57	127
64.33011337868481	64.7132426303855	84	127
64.33011337868481	64.7132426303855	77	127
64.33011337868481	65.16603174603175	45	127
64.72485260770975	65.16603174603175	77	127
64.72485260770975	65.16603174603175	65	127
65.16603174603175	65.35179138321996	55	127
65.16603174603175	65.35179138321996	43	127
65.16603174603175	65.51433106575963	81	127
65.16603174603175	65.51433106575963	69	127
65.35179138321996	65.51433106575963	53	127
65.35179138321996	65.51433106575963	41	127
65.5259410430839	65.82780045351474	51	127
65.5259410430839	65.82780045351474	39	127
65.5259410430839	66.01356009070295	81	127
65.5259410430839	66.01356009070295	69	127
65.82780045351474	66.01356009070295	48	127
65.82780045351474	66.01356009070295	36	127
66.01356009070295	66.25736961451247	50	127
66.01356009070295	66.25736961451247	38	127
66.01356009070295	66.35022675736961	82	127
66.01356009070295	66.35022675736961	70	127
66.36185941043084	66.67532879818594	86	127
66.36185941043084	66.67532879818594	74	127
66.67532879818594	67.46480725623583	70	127
66.67532879818594	67.0352380952381	41	127
66.67532879818594	67.46480725623583	58	127
67.04684807256236	67.46480725623583	43	127
67.46480725623583	67.67378684807257	69	127
67.46480725623583	67.67378684807257	57	127
67.46480725623583	67.85952380952381	46	127
67.67378684807257	67.85952380952381	67	127
67.67378684807257	67.85952380952381	55	127
67.87115646258503	68.27750566893424	47	127
67.87115646258503	68.0685260770975	65	127
67.87115646258503	68.0685260770975	53	127
68.0685260770975	68.27750566893424	50	127
68.0685260770975	68.27750566893424	62	127
68.27750566893424	68.49807256235827	64	127
68.27750566893424	68.49807256235827	52	127
68.27750566893424	68.6025850340136	48	127
68.61419501133787	68.77673469387756	79	127
68.61419501133787	68.77673469387756	53	127
68.61419501133787	68.77673469387756	50	127
68.77673469387756	69.06698412698412	72	127
68.77673469387756	69.06698412698412	55	127
68.77673469387756	69.06698412698412	52	127
69.06698412698412	69.40367346938775	55	127
69.06698412698412	69.40367346938775	52	127
69.06698412698412	69.74036281179139	84	127
69.06698412698412	69.74036281179139	81	127
69.42689342403628	69.74036281179139	53	127
69.42689342403628	69.74036281179139	57	127
69.74036281179139	70.0190022675737	79	127
69.74036281179139	70.22798185941043	60	127
69.74036281179139	70.0190022675737	82	127
69.74036281179139	70.22798185941043	57	127
70.0190022675737	70.22798185941043	81	127
70.0190022675737	70.22798185941043	77	127
70.23959183673469	71.07551020408164	58	127
70.23959183673469	71.07551020408164	62	127
70.23959183673469	70.4601814058957	79	127
70.23959183673469	70.4601814058957	76	127
70.4601814058957	70.64591836734694	76	127
70.4601814058957	70.64591836734694	72	127
70.64591836734694	70.959410430839	74	127
70.64591836734694	70.959410430839	77	127
71.0871201814059	71.26126984126984	58	127
71.0871201814059	71.26126984126984	55	127
71.26126984126984	71.42380952380952	57	127
71.26126984126984	71.42380952380952	53	127
71.42380952380952	71.60956916099774	81	127
71.42380952380952	71.60956916099774	77	127
71.42380952380952	72.15523809523809	55	127
71.42380952380952	72.15523809523809	52	127
71.60956916099774	71.76049886621315	74	127
71.60956916099774	71.76049886621315	77	127
71.77210884353741	72.0275283446712	79	127
71.77210884353741	72.0275283446712	76	127
72.15523809523809	72.32938775510205	53	127
72.15523809523809	72.32938775510205	50	127
72.32938775510205	72.54997732426304	52	127
72.32938775510205	72.54997732426304	48	127
72.56156462585034	72.71251700680273	82	127
72.56156462585034	73.13047619047619	53	127
72.56156462585034	73.13047619047619	57	127
72.56156462585034	72.71251700680273	79	127
72.71251700680273	72.95632653061224	79	127
72.71251700680273	72.95632653061224	76	127
72.95632653061224	73.21174603174603	77	127
72.95632653061224	73.21174603174603	81	127
73.14208616780046	73.33945578231292	52	127
73.14208616780046	73.33945578231292	55	127
73.3510657596372	73.51360544217687	53	127
73.3510657596372	73.51360544217687	50	127
73.3510657596372	73.59487528344671	81	127
73.3510657596372	73.59487528344671	77	127
73.51360544217687	73.68773242630385	52	127
73.51360544217687	73.68773242630385	48	127
73.68773242630385	73.90834467120182	50	127
73.68773242630385	73.90834467120182	46	127
73.68773242630385	74.08249433106576	81	127
73.68773242630385	74.08249433106576	77	127
73.91995464852607	74.08249433106576	45	127
73.91995464852607	74.08249433106576	48	127
74.08249433106576	74.2914739229025	52	127
74.08249433106576	74.2914739229025	43	127
74.08249433106576	74.37274376417234	82	127
74.08249433106576	74.37274376417234	79	127
74.2914739229025	74.50045351473923	53	127
74.2914739229025	74.50045351473923	41	127
74.50045351473923	74.67460317460318	55	127
74.50045351473923	74.76748299319728	79	127
74.50045351473923	74.76748299319728	76	127
74.50045351473923	74.88358276643991	48	127
74.67460317460318	74.88358276643991	60	127
74.88358276643991	75.12739229024943	84	127
74.88358276643991	75.12739229024943	54	127
74.88358276643991	75.28993197278912	69	127
75.1390022675737	75.40603174603174	74	127
75.1390022675737	75.40603174603174	66	127
75.40603174603174	75.62662131519275	82	127
75.40603174603174	75.62662131519275	62	127
75.40603174603174	75.62662131519275	67	127
75.74272108843537	75.90526077097506	82	127
75.74272108843537	75.96328798185941	67	127
75.74272108843537	75.96328798185941	60	127
75.74272108843537	75.96328798185941	64	127
75.90526077097506	76.06780045351474	72	127
76.06780045351474	76.31160997732427	81	127
76.06780045351474	76.31160997732427	72	127
76.06780045351474	76.31160997732427	65	127
76.41609977324264	76.57863945578231	81	127
76.41609977324264	76.63668934240363	65	127
76.41609977324264	76.63668934240363	62	127
76.57863945578231	76.78761904761905	71	127
76.78761904761905	77.00818594104308	70	127
76.78761904761905	77.00818594104308	79	127
76.78761904761905	77.00818594104308	67	127
76.78761904761905	77.00818594104308	64	127
77.1475283446712	77.40294784580499	79	127
77.1475283446712	77.4609977324263	64	127
77.1475283446712	77.4609977324263	61	127
77.40294784580499	77.57709750566893	69	127
77.57709750566893	77.8092970521542	77	127
77.57709750566893	77.8092970521542	65	127
77.57709750566893	77.8092970521542	62	127
77.93700680272109	78.14598639455782	77	127
77.93700680272109	78.2156462585034	74	127
77.93700680272109	78.2156462585034	67	127
77.93700680272109	78.2156462585034	59	127
78.14598639455782	78.32013605442177	67	127
78.33174603174604	78.5639455782313	76	127
78.33174603174604	78.5639455782313	67	127
78.33174603174604	78.5639455782313	72	127
78.33174603174604	78.5639455782313	60	127
78.66843537414967	78.86580498866213	76	127
78.66843537414967	78.93546485260771	65	127
78.66843537414967	78.93546485260771	72	127
78.66843537414967	78.93546485260771	57	127
78.86580498866213	79.14444444444445	65	127
79.15603174603174	79.43469387755103	74	127
79.15603174603174	79.35342403628118	65	127
79.15603174603174	79.43469387755103	59	127
79.15603174603174	79.43469387755103	43	127
79.35342403628118	79.65528344671202	55	127
79.65528344671202	79.84104308390023	45	127
79.65528344671202	80.02678004535147	50	127
79.65528344671202	80.37510204081633	65	127
79.84104308390023	80.02678004535147	42	127
80.02678004535147	80.37510204081633	62	127
80.02678004535147	80.25900226757369	43	127
80.38671201814059	80.5724716553288	60	127
80.38671201814059	80.5724716553288	64	127
80.5724716553288	80.75823129251701	62	127
80.5724716553288	80.75823129251701	59	127
80.75823129251701	81.60575963718821	52	127
80.75823129251701	80.94399092970522	45	127
80.75823129251701	81.60575963718821	67	127
80.96721088435375	81.15297052154195	42	127
81.15297052154195	81.4315873015873	43	127
81.61736961451247	81.77990929705216	65	127
81.61736961451247	81.77990929705216	50	127
81.77990929705216	81.96566893424037	48	127
81.77990929705216	81.96566893424037	64	127
81.96566893424037	82.78997732426303	62	127
81.96566893424037	82.13981859410431	45	127
81.96566893424037	82.78997732426303	74	127
81.96566893424037	82.78997732426303	59	127
81.96566893424037	82.78997732426303	53	127
82.15142857142857	82.3604081632653	42	127
82.37201814058957	82.68548752834467	43	127
82.78997732426303	82.95251700680272	64	127
82.78997732426303	82.95251700680272	60	127
82.78997732426303	82.95251700680272	72	127
82.95251700680272	83.11505668934241	62	127
82.95251700680272	83.11505668934241	71	127
82.95251700680272	83.11505668934241	65	127
83.13827664399093	84.14834467120181	60	127
83.13827664399093	83.30081632653061	45	127
83.13827664399093	84.14834467120181	55	127
83.13827664399093	84.14834467120181	76	127
83.13827664399093	84.14834467120181	64	127
83.31242630385488	83.4749433106576	42	127
83.48657596371882	84.04385487528344	43	127
84.15995464852608	84.32249433106576	65	127
84.15995464852608	84.32249433106576	74	127
84.15995464852608	84.32249433106576	62	127
84.33410430839002	84.50825396825397	72	127
84.33410430839002	84.50825396825397	67	127
84.33410430839002	84.50825396825397	64	127
84.50825396825397	85.19324263038548	71	127
84.50825396825397	84.68240362811791	81	127
84.50825396825397	85.19324263038548	67	127
84.50825396825397	85.19324263038548	50	127
84.50825396825397	85.19324263038548	62	127
84.50825396825397	85.19324263038548	65	127
84.69401360544218	84.8565306122449	78	127
84.8565306122449	85.08875283446712	79	127
85.19324263038548	85.36736961451247	64	127
85.19324263038548	85.36736961451247	72	127
85.19324263038548	85.36736961451247	55	127
85.3790022675737	85.52993197278911	74	127
85.3790022675737	85.52993197278911	62	127
85.3790022675737	85.52993197278911	53	127
85.52993197278911	86.36582766439909	67	127
85.52993197278911	85.71569160997733	81	127
85.52993197278911	86.36582766439909	72	127
85.52993197278911	86.36582766439909	52	127
85.52993197278911	86.36582766439909	64	127
85.52993197278911	86.36582766439909	67	127
85.71569160997733	85.88984126984127	78	127
85.88984126984127	86.12204081632653	79	127
86.36582766439909	86.69092970521542	74	127
86.36582766439909	86.69092970521542	57	127
86.36582766439909	86.69092970521542	65	127
86.74895691609977	86.91151927437642	76	127
86.74895691609977	86.91151927437642	55	127
86.74895691609977	86.91151927437642	64	127
86.91151927437642	87.37591836734694	47	127
86.91151927437642	87.77063492063492	64	127
87.38750566893424	87.77063492063492	48	127
87.77063492063492	87.92158730158731	62	127
87.77063492063492	88.1421768707483	52	127
87.93319727891156	88.1421768707483	60	127
88.1421768707483	88.86199546485261	72	127
88.1421768707483	88.35115646258504	59	127
88.1421768707483	88.52530612244898	52	127
88.35115646258504	88.52530612244898	56	127
88.52530612244898	88.75750566893424	57	127
88.52530612244898	88.86199546485261	53	127
88.87360544217687	89.04773242630385	71	127
88.87360544217687	89.27995464852607	57	127
89.04773242630385	89.27995464852607	69	127
89.27995464852607	90.0926530612245	69	127
89.27995464852607	89.47732426303855	67	127
89.27995464852607	89.68628117913832	64	127
89.27995464852607	89.68628117913832	61	127
89.48893424036281	89.68628117913832	64	127
89.68628117913832	90.0926530612245	65	127
89.68628117913832	90.0926530612245	62	127
89.68628117913832	90.0926530612245	62	127
90.10426303854875	90.48739229024943	69	127
90.10426303854875	90.2784126984127	67	127
90.10426303854875	90.48739229024943	62	127
90.10426303854875	90.48739229024943	65	127
90.2784126984127	90.48739229024943	65	127
90.48739229024943	90.66154195011337	65	127
90.48739229024943	90.87052154195011	71	127
90.48739229024943	91.30009070294784	67	127
90.48739229024943	90.87052154195011	55	127
90.48739229024943	90.87052154195011	62	127
90.67315192743764	90.87052154195011	62	127
90.87052154195011	91.16077097505669	64	127
90.87052154195011	91.30009070294784	60	127
90.87052154195011	91.30009070294784	72	127
91.30009070294784	91.46263038548753	65	127
91.30009070294784	91.46263038548753	69	127
91.30009070294784	91.46263038548753	62	127
91.46263038548753	91.64839002267574	67	127
91.46263038548753	91.64839002267574	64	127
91.46263038548753	91.64839002267574	64	127
91.66	91.9734693877551	55	127
91.66	91.81092970521541	65	127
91.66	91.9734693877551	71	127
91.66	91.9734693877551	62	127
91.66	92.39142857142858	55	127
91.81092970521541	91.9734693877551	62	127
91.9734693877551	92.39142857142858	60	127
91.9734693877551	92.39142857142858	72	127
91.9734693877551	92.20566893424036	64	127
92.39142857142858	92.57718820861678	59	127
92.39142857142858	92.57718820861678	53	127
92.39142857142858	92.57718820861678	81	127
92.39142857142858	92.57718820861678	74	127
92.57718820861678	92.73972789115646	60	127
92.57718820861678	92.73972789115646	79	127
92.57718820861678	92.73972789115646	76	127
92.57718820861678	92.73972789115646	52	127
92.75133786848073	92.9487074829932	74	127
92.75133786848073	92.9487074829932	77	127
92.75133786848073	93.11122448979592	55	127
92.75133786848073	93.11122448979592	47	127
92.9487074829932	93.11122448979592	74	127
92.9487074829932	93.11122448979592	65	127
93.11122448979592	93.50598639455782	48	127
93.11122448979592	93.40149659863945	76	127
93.11122448979592	93.40149659863945	64	127
93.11122448979592	93.50598639455782	55	127
93.50598639455782	93.86589569160998	56	127
93.50598639455782	93.66852607709751	76	127
93.50598639455782	93.86589569160998	52	127
93.66852607709751	93.86589569160998	74	127
93.87748299319728	94.21419501133786	56	127
93.87748299319728	94.05165532879819	74	127
93.87748299319728	94.05165532879819	59	127
94.05165532879819	94.21419501133786	64	127
94.05165532879819	94.21419501133786	71	127
94.21419501133786	94.73664399092971	64	127
94.21419501133786	94.46961451247165	72	127
94.21419501133786	94.73664399092971	57	127
94.73664399092971	94.91079365079365	88	127
94.73664399092971	95.0849433106576	80	127
94.73664399092971	95.0849433106576	64	127
94.92240362811792	95.0849433106576	86	127
95.0849433106576	95.46807256235827	68	127
95.0849433106576	95.3055328798186	86	127
95.0849433106576	95.3055328798186	83	127
95.3055328798186	95.46807256235827	76	127
95.3055328798186	95.46807256235827	83	127
95.47968253968254	95.81637188208617	76	127
95.47968253968254	95.70027210884354	84	127
95.47968253968254	95.81637188208617	69	127
95.81637188208617	95.99052154195012	84	127
95.81637188208617	96.26916099773243	48	127
95.81637188208617	96.26916099773243	36	127
96.0253514739229	96.26916099773243	83	127
96.26916099773243	96.64068027210884	40	127
96.26916099773243	96.45492063492064	83	127
96.26916099773243	96.64068027210884	52	127
96.45492063492064	96.64068027210884	80	127
96.65229024943311	96.88448979591837	81	127
96.65229024943311	97.000589569161	53	127
96.65229024943311	97.000589569161	41	127
97.000589569161	97.221179138322	84	127
97.000589569161	97.45337868480726	72	127
97.000589569161	97.45337868480726	60	127
97.221179138322	97.45337868480726	83	127
97.45337868480726	97.79006802721088	64	127
97.45337868480726	97.61591836734694	83	127
97.45337868480726	97.79006802721088	76	127
97.6275283446712	97.79006802721088	80	127
97.79006802721088	98.11514739229025	77	127
97.79006802721088	98.01065759637189	81	127
97.79006802721088	98.11514739229025	65	127
98.12675736961451	98.48666666666666	60	127
98.12675736961451	98.48666666666666	64	127
98.12675736961451	98.31251700680272	72	127
98.31251700680272	98.48666666666666	71	127
98.48666666666666	98.99750566893424	52	127
98.48666666666666	98.76530612244898	71	127
98.48666666666666	98.99750566893424	64	127
98.81174603174603	98.99750566893424	68	127
98.99750566893424	99.21809523809524	69	127
98.99750566893424	99.3225850340136	65	127
98.99750566893424	99.3225850340136	53	127
99.33419501133787	99.74054421768707	57	127
99.33419501133787	99.74054421768707	61	127
99.33419501133787	99.49673469387756	81	127
99.33419501133787	99.74054421768707	76	127
99.49673469387756	99.74054421768707	79	127
99.74054421768707	99.91469387755102	76	127
99.74054421768707	99.91469387755102	79	127
99.74054421768707	100.08884353741496	61	127
99.74054421768707	100.08884353741496	64	127
99.91469387755102	100.08884353741496	76	127
99.91469387755102	100.08884353741496	69	127
100.08884353741496	100.43714285714286	62	127
100.08884353741496	100.43714285714286	65	127
100.08884353741496	100.32104308390022	77	127
100.08884353741496	100.32104308390022	69	127
100.43714285714286	100.94798185941043	81	127
100.43714285714286	100.78544217687075	69	127
100.43714285714286	100.78544217687075	57	127
100.78544217687075	100.94798185941043	67	127
100.78544217687075	100.94798185941043	55	127
100.95959183673469	101.12213151927438	67	127
100.95959183673469	101.12213151927438	55	127
100.95959183673469	101.28467120181406	85	127
101.12213151927438	101.28467120181406	64	127
101.12213151927438	101.28467120181406	52	127
101.28467120181406	101.50526077097506	65	127
101.28467120181406	101.50526077097506	53	127
101.28467120181406	101.6213605442177	86	127
101.6213605442177	101.87678004535148	65	127
101.6213605442177	101.87678004535148	53	127
101.87678004535148	102.13219954648527	64	127
101.87678004535148	102.13219954648527	52	127
102.17863945578232	102.35278911564626	64	127
102.17863945578232	102.35278911564626	52	127
102.35278911564626	102.53854875283447	61	127
102.35278911564626	102.53854875283447	49	127
102.53854875283447	102.80557823129251	62	127
102.53854875283447	102.80557823129251	50	127
102.9681179138322	103.14226757369615	74	127
102.9681179138322	103.14226757369615	86	127
103.14226757369615	103.31641723356009	84	127
103.14226757369615	103.31641723356009	72	127
103.31641723356009	103.47895691609978	84	127
103.31641723356009	103.47895691609978	72	127
103.47895691609978	103.71115646258504	81	127
103.47895691609978	103.71115646258504	69	127
103.7227664399093	103.9433560090703	83	127
103.7227664399093	103.9433560090703	71	127
104.05945578231292	104.24521541950114	60	127
104.05945578231292	104.24521541950114	48	127
104.26843537414966	104.4774149659864	59	127
104.26843537414966	104.4774149659864	47	127
104.4774149659864	104.68639455782314	59	127
104.4774149659864	104.68639455782314	47	127
104.68639455782314	104.84893424036281	56	127
104.68639455782314	104.84893424036281	44	127
104.87215419501133	105.11596371882086	57	127
104.87215419501133	105.11596371882086	45	127
105.22045351473923	105.47587301587302	84	127
105.22045351473923	105.47587301587302	72	127
105.48748299319728	105.65002267573696	83	127
105.48748299319728	105.65002267573696	71	127
105.65002267573696	105.81256235827665	83	127
105.65002267573696	105.81256235827665	71	127
105.8241723356009	105.99832199546485	80	127
105.8241723356009	105.99832199546485	68	127
105.99832199546485	106.2653514739229	81	127
105.99832199546485	106.2653514739229	69	127
106.38145124716553	106.55560090702947	61	127
106.38145124716553	106.55560090702947	49	127
106.55560090702947	106.8342403628118	59	127
106.55560090702947	106.8342403628118	47	127
106.8342403628118	107.07804988662132	59	127
106.8342403628118	107.07804988662132	47	127
107.07804988662132	107.27541950113378	56	127
107.07804988662132	107.27541950113378	44	127
107.28702947845805	107.5540589569161	57	127
107.28702947845805	107.5540589569161	45	127
107.7398185941043	107.9952380952381	85	127
107.7398185941043	107.9952380952381	73	127
107.7398185941043	107.9952380952381	61	127
107.7398185941043	107.9952380952381	49	127
107.9952380952381	108.22743764172336	59	127
107.9952380952381	108.22743764172336	83	127
107.9952380952381	108.22743764172336	71	127
107.9952380952381	108.22743764172336	47	127
108.22743764172336	108.4015873015873	83	127
108.22743764172336	108.4015873015873	62	127
108.22743764172336	109.44648526077097	57	127
108.22743764172336	108.4015873015873	71	127
108.4015873015873	108.56412698412699	68	127
108.4015873015873	108.56412698412699	59	127
108.4015873015873	108.56412698412699	80	127
108.57573696145124	108.86598639455782	81	127
108.57573696145124	108.86598639455782	69	127
108.57573696145124	108.86598639455782	61	127
109.02852607709751	109.21428571428571	66	127
109.02852607709751	109.21428571428571	78	127
109.02852607709751	109.21428571428571	63	127
109.21428571428571	109.44648526077097	66	127
109.21428571428571	109.44648526077097	71	127
109.21428571428571	109.44648526077097	75	127
109.44648526077097	110.1314739229025	56	127
109.44648526077097	109.94571428571429	64	127
109.44648526077097	109.62063492063493	61	127
109.44648526077097	109.67868480725623	76	127
109.62063492063493	109.7831746031746	58	127
109.7831746031746	110.00376417233561	59	127
109.7831746031746	109.94571428571429	74	127
109.95732426303854	110.1314739229025	62	127
109.95732426303854	110.1314739229025	71	127
110.1314739229025	110.39850340136054	57	127
110.1314739229025	110.45655328798186	73	127
110.1314739229025	110.59587301587301	57	127
110.1314739229025	110.39850340136054	61	127
110.39850340136054	110.59587301587301	59	127
110.39850340136054	110.59587301587301	62	127
110.60748299319728	110.77002267573697	61	127
110.60748299319728	110.77002267573697	64	127
110.60748299319728	110.93256235827664	44	127
110.60748299319728	111.62916099773243	73	127
110.77002267573697	110.93256235827664	59	127
110.77002267573697	110.93256235827664	62	127
110.93256235827664	111.33891156462585	57	127
110.93256235827664	111.62916099773243	45	127
110.93256235827664	111.33891156462585	61	127
111.35052154195012	111.62916099773243	62	127
111.35052154195012	111.62916099773243	59	127
111.62916099773243	111.84975056689342	71	127
111.62916099773243	111.84975056689342	64	127
111.62916099773243	111.84975056689342	57	127
111.62916099773243	112.01229024943311	49	127
111.84975056689342	112.01229024943311	69	127
112.02390022675738	112.20965986394557	68	127
112.02390022675738	112.20965986394557	57	127
112.02390022675738	112.38380952380952	49	127
112.20965986394557	112.38380952380952	65	127
112.20965986394557	112.38380952380952	56	127
112.38380952380952	112.79015873015874	50	127
112.38380952380952	112.60439909297052	54	127
112.38380952380952	112.68566893424037	66	127
112.60439909297052	112.79015873015874	56	127
112.79015873015874	113.02235827664398	57	127
112.79015873015874	113.21972789115647	54	127
113.21972789115647	113.59124716553288	46	127
113.21972789115647	113.4287074829932	66	127
113.21972789115647	114.03242630385488	74	127
113.4287074829932	113.59124716553288	64	127
113.60285714285715	113.81183673469388	62	127
113.60285714285715	114.03242630385488	47	127
113.81183673469388	114.03242630385488	64	127
114.03242630385488	114.21818594104309	73	127
114.03242630385488	114.21818594104309	66	127
114.03242630385488	114.41555555555556	50	127
114.22979591836734	114.41555555555556	71	127
114.41555555555556	114.75224489795919	51	127
114.41555555555556	114.57809523809524	59	127
114.41555555555556	114.57809523809524	69	127
114.57809523809524	114.75224489795919	57	127
114.57809523809524	114.75224489795919	66	127
114.76385487528344	114.94961451247165	56	127
114.76385487528344	115.05410430839002	68	127
114.76385487528344	115.20503401360544	52	127
114.94961451247165	115.20503401360544	57	127
115.20503401360544	115.59977324263039	56	127
115.20503401360544	115.4372335600907	59	127
115.59977324263039	115.80875283446711	61	127
115.59977324263039	115.80875283446711	64	127
115.59977324263039	116.36603174603175	76	127
115.82036281179138	116.02934240362812	59	127
115.82036281179138	116.02934240362812	62	127
116.02934240362812	116.1918820861678	61	127
116.02934240362812	116.1918820861678	57	127
116.1918820861678	116.36603174603175	59	127
116.1918820861678	116.36603174603175	62	127
116.377641723356	116.55179138321995	74	127
116.377641723356	116.55179138321995	64	127
116.377641723356	116.55179138321995	61	127
116.55179138321995	116.71433106575964	73	127
116.71433106575964	116.87687074829932	71	127
116.71433106575964	117.05102040816327	57	127
116.71433106575964	117.05102040816327	54	127
116.88848072562358	117.05102040816327	68	127
117.05102040816327	117.24839002267574	56	127
117.05102040816327	117.32965986394558	69	127
117.24839002267574	117.480589569161	53	127
117.49219954648527	117.85210884353741	54	127
118.08430839002267	118.47904761904762	63	127
118.08430839002267	118.27006802721088	73	127
118.08430839002267	118.47904761904762	54	127
118.28167800453515	118.47904761904762	70	127
118.47904761904762	118.67641723356009	49	127
118.47904761904762	118.74607709750566	71	127
118.67641723356009	118.8621768707483	46	127
118.8621768707483	119.12920634920636	47	127
119.3033560090703	119.65165532879818	52	127
119.3033560090703	119.4891156462585	69	127
119.3033560090703	119.65165532879818	59	127
119.3033560090703	119.65165532879818	64	127
119.4891156462585	119.65165532879818	66	127
119.65165532879818	119.8025850340136	54	127
119.65165532879818	119.86063492063492	68	127
119.81419501133787	119.98834467120182	51	127
119.98834467120182	120.2785941043084	52	127
120.54562358276644	121.35832199546485	81	127
120.54562358276644	120.89392290249432	53	127
120.54562358276644	121.35832199546485	69	127
120.89392290249432	121.35832199546485	54	127
121.35832199546485	121.76467120181405	57	127
121.35832199546485	121.53247165532879	68	127
121.35832199546485	121.53247165532879	80	127
121.53247165532879	121.76467120181405	66	127
121.53247165532879	121.76467120181405	78	127
121.76467120181405	121.95043083900227	76	127
121.76467120181405	121.95043083900227	64	127
121.76467120181405	122.12458049886621	58	127
121.95043083900227	122.12458049886621	61	127
121.95043083900227	122.12458049886621	73	127
122.13619047619048	122.29873015873015	73	127
122.13619047619048	122.35678004535147	62	127
122.13619047619048	122.6586394557823	59	127
122.13619047619048	122.35678004535147	74	127
122.29873015873015	122.6586394557823	70	127
122.6586394557823	122.89083900226757	71	127
122.6586394557823	123.0069387755102	62	127
123.0069387755102	123.18108843537415	66	127
123.0069387755102	123.41328798185941	54	127
123.0069387755102	123.18108843537415	78	127
123.18108843537415	123.41328798185941	63	127
123.18108843537415	123.41328798185941	75	127
123.42489795918367	123.73836734693877	56	127
123.42489795918367	123.6338775510204	76	127
123.42489795918367	123.6338775510204	59	127
123.42489795918367	123.6338775510204	64	127
123.42489795918367	123.58743764172335	66	127
123.58743764172335	123.73836734693877	63	127
123.73836734693877	124.02861678004535	64	127
123.73836734693877	124.13310657596372	59	127
124.13310657596372	124.28403628117914	74	127
124.13310657596372	124.28403628117914	62	127
124.13310657596372	124.45818594104308	44	127
124.28403628117914	124.45818594104308	59	127
124.28403628117914	124.45818594104308	71	127
124.45818594104308	124.86453514739229	45	127
124.45818594104308	124.6439455782313	59	127
124.45818594104308	124.76004535147392	61	127
124.45818594104308	124.76004535147392	73	127
124.6439455782313	124.86453514739229	56	127
124.87614512471656	125.09673469387755	57	127
124.87614512471656	125.18961451247165	49	127
125.18961451247165	126.28095238095239	57	127
125.18961451247165	126.28095238095239	73	127
125.18961451247165	126.28095238095239	45	127
126.29256235827664	126.45510204081633	71	127
126.29256235827664	126.45510204081633	56	127
126.29256235827664	126.45510204081633	44	127
126.45510204081633	126.6524716553288	69	127
126.45510204081633	126.6524716553288	54	127
126.45510204081633	126.6524716553288	42	127
126.6524716553288	126.82662131519274	52	127
126.6524716553288	126.82662131519274	68	127
126.6524716553288	126.82662131519274	40	127
126.83823129251701	127.03560090702948	49	127
126.83823129251701	127.03560090702948	65	127
126.83823129251701	127.03560090702948	37	127
127.03560090702948	127.23297052154194	80	127
127.03560090702948	127.30263038548753	66	127
127.03560090702948	127.30263038548753	50	127
127.03560090702948	127.30263038548753	38	127
127.23297052154194	127.4071201814059	77	127
127.41873015873016	127.63931972789116	78	127
127.74380952380952	127.97600907029478	69	127
127.74380952380952	127.97600907029478	54	127
127.74380952380952	127.97600907029478	42	127
127.97600907029478	128.161768707483	66	127
127.97600907029478	128.161768707483	51	127
127.97600907029478	128.161768707483	39	127
128.161768707483	128.34750566893425	78	127
128.161768707483	128.4055782312925	68	127
128.161768707483	128.4055782312925	52	127
128.161768707483	128.4055782312925	40	127
128.35913832199546	128.5681179138322	75	127
128.5681179138322	128.8119274376417	76	127
128.93963718820862	129.1950566893424	71	127
128.93963718820862	129.1950566893424	62	127
128.93963718820862	129.1950566893424	50	127
129.1950566893424	129.3575963718821	68	127
129.1950566893424	129.3575963718821	59	127
129.1950566893424	129.3575963718821	47	127
129.3575963718821	129.56657596371883	78	127
129.3575963718821	129.65945578231293	69	127
129.3575963718821	129.65945578231293	61	127
129.3575963718821	129.65945578231293	49	127
129.57818594104307	130.10063492063492	75	127
130.10063492063492	130.2631746031746	76	127
130.2631746031746	130.4257142857143	85	127
130.43732426303856	131.1107029478458	85	127
130.43732426303856	130.59986394557822	74	127
130.43732426303856	130.59986394557822	71	127
130.59986394557822	130.7624036281179	71	127
130.59986394557822	130.7624036281179	68	127
130.7624036281179	131.1107029478458	73	127
130.7624036281179	131.1107029478458	69	127
131.1107029478458	131.44739229024944	76	127
131.1107029478458	131.27324263038548	83	127
131.1107029478458	131.44739229024944	73	127
131.28485260770975	131.44739229024944	81	127
131.44739229024944	131.8653514739229	61	127
131.44739229024944	131.8653514739229	65	127
131.44739229024944	132.22526077097507	81	127
131.44739229024944	132.22526077097507	69	127
131.8769387755102	132.22526077097507	62	127
131.8769387755102	132.22526077097507	66	127
132.22526077097507	132.73609977324264	69	127
132.22526077097507	132.4922902494331	80	127
132.22526077097507	132.4922902494331	68	127
132.22526077097507	132.73609977324264	66	127
132.50390022675737	132.73609977324264	66	127
132.50390022675737	132.73609977324264	78	127
132.73609977324264	132.91024943310657	76	127
132.73609977324264	133.43269841269841	86	127
132.73609977324264	132.91024943310657	73	127
132.91024943310657	133.07278911564626	70	127
132.91024943310657	133.07278911564626	73	127
133.08439909297053	133.43269841269841	74	127
133.08439909297053	133.43269841269841	71	127
133.43269841269841	133.76938775510203	78	127
133.43269841269841	133.5952380952381	85	127
133.43269841269841	133.76938775510203	74	127
133.60684807256237	133.76938775510203	83	127
133.76938775510203	134.15251700680273	63	127
133.76938775510203	134.5008163265306	83	127
133.76938775510203	134.15251700680273	66	127
133.76938775510203	134.5008163265306	71	127
134.15251700680273	134.5008163265306	68	127
134.15251700680273	134.5008163265306	64	127
134.51242630385488	135.11614512471655	71	127
134.51242630385488	134.83748299319728	81	127
134.51242630385488	134.83748299319728	69	127
134.51242630385488	135.11614512471655	68	127
134.83748299319728	135.11614512471655	68	127
134.83748299319728	135.11614512471655	80	127
135.11614512471655	135.4760544217687	60	127
135.11614512471655	135.4760544217687	48	127
135.11614512471655	135.8243537414966	88	127
135.11614512471655	135.8243537414966	76	127
135.4760544217687	135.8243537414966	61	127
135.4760544217687	135.8243537414966	49	127
135.83596371882086	136.0449433106576	86	127
135.83596371882086	136.0449433106576	74	127
135.83596371882086	136.2307029478458	64	127
135.83596371882086	136.2307029478458	52	127
136.0449433106576	136.2307029478458	73	127
136.0449433106576	136.2307029478458	85	127
136.2307029478458	136.41646258503403	71	127
136.2307029478458	136.41646258503403	83	127
136.2307029478458	136.60222222222222	65	127
136.2307029478458	136.60222222222222	53	127
136.42807256235827	136.60222222222222	80	127
136.42807256235827	136.60222222222222	68	127
136.60222222222222	137.0434013605442	66	127
136.60222222222222	137.0434013605442	54	127
136.60222222222222	136.83439909297053	81	127
136.60222222222222	136.83439909297053	69	127
137.0434013605442	137.40331065759636	61	127
137.0434013605442	137.24074829931973	81	127
137.0434013605442	137.24074829931973	73	127
137.0434013605442	137.40331065759636	57	127
137.24074829931973	137.40331065759636	80	127
137.24074829931973	137.40331065759636	76	127
137.43814058956917	137.65873015873015	69	127
137.43814058956917	137.5890702947846	80	127
137.43814058956917	137.78643990929706	49	127
137.43814058956917	137.78643990929706	37	127
137.6006575963719	137.78643990929706	77	127
137.78643990929706	138.181179138322	50	127
137.78643990929706	138.05346938775511	78	127
137.78643990929706	138.05346938775511	69	127
137.78643990929706	138.181179138322	38	127
138.181179138322	138.37854875283446	78	127
138.181179138322	138.37854875283446	70	127
138.181179138322	138.5643083900227	54	127
138.181179138322	138.5643083900227	42	127
138.39015873015873	138.5643083900227	76	127
138.39015873015873	138.5643083900227	73	127
138.57591836734693	138.93582766439908	58	127
138.57591836734693	138.73845804988662	76	127
138.57591836734693	138.81972789115648	66	127
138.57591836734693	138.93582766439908	46	127
138.7500680272109	138.93582766439908	73	127
138.93582766439908	139.2144671201814	66	127
138.93582766439908	139.31895691609978	59	127
138.93582766439908	139.31895691609978	47	127
138.93582766439908	139.2144671201814	74	127
139.31895691609978	139.5395238095238	88	127
139.31895691609978	139.5395238095238	68	127
139.31895691609978	139.70208616780045	40	127
139.31895691609978	139.70208616780045	52	127
139.5395238095238	139.70208616780045	71	127
139.5395238095238	139.70208616780045	86	127
139.70208616780045	139.89943310657597	86	127
139.70208616780045	139.89943310657597	64	127
139.70208616780045	140.0968253968254	56	127
139.70208616780045	140.0968253968254	44	127
139.89943310657597	140.0968253968254	83	127
139.89943310657597	140.0968253968254	71	127
140.0968253968254	140.3174149659864	85	127
140.0968253968254	140.3174149659864	64	127
140.0968253968254	140.42190476190476	57	127
140.0968253968254	140.42190476190476	45	127
140.42190476190476	140.80503401360545	86	127
140.42190476190476	140.80503401360545	66	127
140.42190476190476	140.96757369614514	70	127
140.42190476190476	141.7338321995465	66	127
140.80503401360545	140.96757369614514	64	127
140.80503401360545	140.96757369614514	85	127
140.96757369614514	141.1301133786848	64	127
140.96757369614514	141.1301133786848	85	127
140.96757369614514	141.29265306122448	73	127
141.1301133786848	141.29265306122448	61	127
141.1301133786848	141.29265306122448	82	127
141.29265306122448	141.55968253968254	62	127
141.29265306122448	141.55968253968254	83	127
141.29265306122448	141.7338321995465	78	127
141.7338321995465	142.79034013605443	64	127
141.7338321995465	141.93120181405897	85	127
141.7338321995465	141.93120181405897	68	127
141.7338321995465	141.93120181405897	64	127
141.93120181405897	142.12857142857143	83	127
141.93120181405897	142.12857142857143	62	127
142.1401814058957	142.46526077097505	71	127
142.1401814058957	142.30269841269842	83	127
142.1401814058957	142.30269841269842	62	127
142.31433106575963	142.46526077097505	59	127
142.31433106575963	142.46526077097505	80	127
142.47687074829932	142.68585034013606	81	127
142.47687074829932	142.68585034013606	61	127
142.47687074829932	142.79034013605443	76	127
142.813537414966	142.9644671201814	86	127
142.813537414966	142.9644671201814	59	127
142.813537414966	142.9644671201814	56	127
142.813537414966	143.03414965986394	40	127
142.97609977324262	143.1386394557823	85	127
142.97609977324262	143.1386394557823	61	127
142.97609977324262	143.1386394557823	57	127
143.2315192743764	143.41727891156464	85	127
143.2315192743764	143.41727891156464	61	127
143.2315192743764	143.41727891156464	57	127
143.2315192743764	143.47530612244898	40	127
143.41727891156464	143.57979591836735	52	127
143.41727891156464	143.57979591836735	82	127
143.41727891156464	143.57979591836735	64	127
143.57979591836735	143.85845804988662	83	127
143.57979591836735	143.85845804988662	62	127
143.57979591836735	143.85845804988662	56	127
143.57979591836735	143.85845804988662	52	127
143.97455782312926	144.13709750566895	85	127
143.97455782312926	144.13709750566895	64	127
143.97455782312926	144.13709750566895	52	127
143.97455782312926	144.1951247165533	40	127
144.13709750566895	144.45054421768708	83	127
144.13709750566895	144.45054421768708	68	127
144.13709750566895	144.45054421768708	50	127
144.45054421768708	144.70596371882087	83	127
144.45054421768708	144.70596371882087	68	127
144.45054421768708	144.70596371882087	62	127
144.45054421768708	144.78725623582767	40	127
144.71759637188208	144.92657596371882	80	127
144.71759637188208	144.92657596371882	71	127
144.71759637188208	144.92657596371882	52	127
144.92657596371882	145.29809523809524	81	127
144.92657596371882	145.29809523809524	64	127
144.92657596371882	145.29809523809524	69	127
144.92657596371882	145.29809523809524	52	127
144.92657596371882	145.29809523809524	45	127
145.50707482993198	145.90181405895692	69	127
145.50707482993198	145.90181405895692	57	127
145.50707482993198	145.90181405895692	45	127
145.91342403628119	146.27333333333334	68	127
145.91342403628119	146.27333333333334	56	127
145.91342403628119	146.27333333333334	44	127
146.27333333333334	146.67968253968255	69	127
146.27333333333334	146.67968253968255	57	127
146.27333333333334	146.67968253968255	45	127
146.67968253968255	147.02798185941043	72	127
146.67968253968255	147.02798185941043	60	127
146.67968253968255	147.02798185941043	48	127
147.02798185941043	147.43433106575964	71	127
147.02798185941043	147.43433106575964	59	127
147.02798185941043	147.43433106575964	47	127
147.4459410430839	147.84068027210884	72	127
147.4459410430839	147.84068027210884	60	127
147.4459410430839	147.84068027210884	48	127
147.84068027210884	148.18897959183673	76	127
147.84068027210884	148.18897959183673	64	127
147.84068027210884	148.18897959183673	52	127
148.18897959183673	148.52566893424037	66	127
148.18897959183673	148.52566893424037	54	127
148.18897959183673	148.52566893424037	42	127
148.53725623582767	148.93201814058958	67	127
148.53725623582767	148.93201814058958	55	127
148.53725623582767	148.93201814058958	43	127
148.93201814058958	149.34997732426305	72	127
148.93201814058958	149.34997732426305	60	127
148.93201814058958	149.34997732426305	60	127
148.93201814058958	149.34997732426305	48	127
149.34997732426305	149.69827664399094	71	127
149.34997732426305	149.69827664399094	59	127
149.34997732426305	149.69827664399094	59	127
149.34997732426305	149.69827664399094	47	127
149.7098866213152	150.12784580498865	72	127
149.7098866213152	150.12784580498865	60	127
149.7098866213152	150.12784580498865	60	127
149.7098866213152	150.12784580498865	48	127
150.12784580498865	150.59224489795918	76	127
150.12784580498865	150.59224489795918	64	127
150.12784580498865	150.59224489795918	52	127
150.12784580498865	150.59224489795918	52	127
150.59224489795918	150.92893424036282	66	127
150.59224489795918	150.92893424036282	78	127
150.59224489795918	150.92893424036282	54	127
150.92893424036282	151.28884353741498	67	127
150.92893424036282	151.28884353741498	79	127
150.92893424036282	151.28884353741498	55	127
151.30043083900227	151.6255328798186	83	127
151.30043083900227	151.6255328798186	71	127
151.30043083900227	151.6255328798186	59	127
151.6255328798186	152.1015419501134	71	127
151.6255328798186	152.1015419501134	83	127
151.6255328798186	152.1015419501134	59	127
151.6255328798186	152.1015419501134	47	127
152.1015419501134	152.55433106575964	84	127
152.1015419501134	152.55433106575964	72	127
152.1015419501134	152.55433106575964	60	127
152.1015419501134	152.55433106575964	48	127
152.86780045351475	153.19285714285715	88	127
152.86780045351475	153.19285714285715	76	127
152.86780045351475	153.19285714285715	55	127
152.86780045351475	153.19285714285715	60	127
153.19285714285715	153.68049886621316	57	127
153.19285714285715	153.68049886621316	53	127
153.19285714285715	154.06362811791382	81	127
153.19285714285715	154.06362811791382	77	127
153.68049886621316	154.06362811791382	59	127
153.68049886621316	154.06362811791382	55	127
154.06362811791382	154.23777777777778	76	127
154.06362811791382	154.6092970521542	59	127
154.06362811791382	154.23777777777778	79	127
154.06362811791382	154.6092970521542	62	127
154.23777777777778	154.6092970521542	77	127
154.23777777777778	154.6092970521542	74	127
154.6208843537415	154.78344671201813	74	127
154.6208843537415	154.78344671201813	77	127
154.6208843537415	155.37555555555556	67	127
154.6208843537415	155.37555555555556	64	127
154.78344671201813	154.96920634920636	74	127
154.78344671201813	154.96920634920636	71	127
154.96920634920636	155.21301587301588	76	127
154.96920634920636	155.21301587301588	72	127
155.37555555555556	155.68902494331067	65	127
155.37555555555556	155.68902494331067	62	127
155.68902494331067	155.9328344671202	64	127
155.68902494331067	155.9328344671202	60	127
155.94444444444446	156.68748299319728	81	127
155.94444444444446	156.68748299319728	77	127
155.94444444444446	156.13020408163266	64	127
155.94444444444446	156.13020408163266	60	127
156.13020408163266	156.31596371882085	60	127
156.13020408163266	156.31596371882085	57	127
156.31596371882085	156.54816326530613	59	127
156.31596371882085	156.54816326530613	62	127
156.68748299319728	156.85002267573697	79	127
156.68748299319728	156.85002267573697	76	127
156.86163265306124	157.09383219954648	77	127
156.86163265306124	157.09383219954648	74	127
157.09383219954648	157.25637188208617	77	127
157.09383219954648	157.25637188208617	74	127
157.09383219954648	157.89489795918368	67	127
157.09383219954648	157.89489795918368	64	127
157.25637188208617	157.41891156462586	74	127
157.25637188208617	157.41891156462586	71	127
157.51179138321996	157.75560090702947	76	127
157.51179138321996	157.75560090702947	72	127
157.89489795918368	158.13873015873017	62	127
157.89489795918368	158.13873015873017	65	127
158.15031746031747	158.33609977324264	64	127
158.15031746031747	158.33609977324264	60	127
158.33609977324264	159.18362811791383	58	127
158.33609977324264	159.18362811791383	62	127
158.76566893424035	159.18362811791383	79	127
158.76566893424035	159.18362811791383	76	127
159.18362811791383	159.35777777777778	57	127
159.18362811791383	159.35777777777778	81	127
159.18362811791383	159.35777777777778	77	127
159.18362811791383	159.35777777777778	60	127
159.36938775510205	159.54353741496598	82	127
159.36938775510205	159.54353741496598	79	127
159.36938775510205	159.54353741496598	58	127
159.36938775510205	159.54353741496598	55	127
159.54353741496598	159.89183673469387	84	127
159.54353741496598	159.89183673469387	77	127
159.54353741496598	160.36784580498866	57	127
159.54353741496598	160.36784580498866	45	127
159.89183673469387	160.36784580498866	77	127
159.89183673469387	160.36784580498866	65	127
160.3910657596372	160.56521541950113	55	127
160.3910657596372	160.56521541950113	43	127
160.3910657596372	160.75097505668936	81	127
160.3910657596372	160.75097505668936	69	127
160.56521541950113	160.75097505668936	41	127
160.56521541950113	160.75097505668936	53	127
160.75097505668936	160.91351473922902	51	127
160.75097505668936	160.91351473922902	39	127
160.75097505668936	161.18054421768707	81	127
160.75097505668936	161.18054421768707	69	127
160.92512471655328	161.18054421768707	48	127
160.92512471655328	161.18054421768707	36	127
161.18054421768707	161.4591836734694	50	127
161.18054421768707	161.4591836734694	38	127
161.18054421768707	161.56367346938777	82	127
161.18054421768707	161.56367346938777	70	127
161.58689342403628	161.91197278911565	86	127
161.58689342403628	161.91197278911565	74	127
161.91197278911565	162.24866213151927	41	127
161.91197278911565	162.72467120181406	70	127
161.91197278911565	162.72467120181406	58	127
162.24866213151927	162.72467120181406	43	127
162.72467120181406	162.89882086167802	69	127
162.72467120181406	162.89882086167802	57	127
162.72467120181406	163.06136054421768	46	127
162.89882086167802	163.06136054421768	67	127
162.89882086167802	163.06136054421768	55	127
163.07297052154195	163.2587074829932	53	127
163.07297052154195	163.2587074829932	65	127
163.07297052154195	163.46768707482994	47	127
163.2587074829932	163.46768707482994	50	127
163.2587074829932	163.46768707482994	62	127
163.46768707482994	163.8392290249433	48	127
163.46768707482994	163.69990929705216	64	127
163.46768707482994	163.69990929705216	52	127
163.8392290249433	164.03659863945578	53	127
163.8392290249433	164.03659863945578	79	127
163.8392290249433	164.03659863945578	50	127
164.03659863945578	164.2455782312925	72	127
164.03659863945578	164.2455782312925	55	127
164.03659863945578	164.2455782312925	52	127
164.25718820861678	164.68675736961453	55	127
164.25718820861678	164.68675736961453	52	127
164.25718820861678	165.0350566893424	84	127
164.25718820861678	165.0350566893424	81	127
164.68675736961453	165.0350566893424	57	127
164.68675736961453	165.0350566893424	53	127
165.0350566893424	165.2208163265306	82	127
165.0350566893424	165.2208163265306	79	127
165.0350566893424	165.4762358276644	60	127
165.0350566893424	165.4762358276644	57	127
165.2208163265306	165.4762358276644	81	127
165.2208163265306	165.4762358276644	77	127
165.48784580498867	165.66197278911565	79	127
165.48784580498867	166.24249433106576	58	127
165.48784580498867	166.24249433106576	62	127
165.48784580498867	165.66197278911565	76	127
165.66197278911565	165.82453514739228	72	127
165.66197278911565	165.82453514739228	76	127
165.83614512471655	166.11478458049888	74	127
165.83614512471655	166.11478458049888	77	127
166.24249433106576	166.55596371882086	58	127
166.24249433106576	166.55596371882086	55	127
166.5791836734694	166.7649433106576	57	127
166.5791836734694	166.7649433106576	53	127
166.7649433106576	166.96231292517007	81	127
166.7649433106576	166.96231292517007	77	127
166.7649433106576	167.4847619047619	52	127
166.7649433106576	167.4847619047619	55	127
166.96231292517007	167.13646258503402	77	127
166.96231292517007	167.13646258503402	74	127
167.14804988662132	167.38027210884354	79	127
167.14804988662132	167.38027210884354	76	127
167.4847619047619	167.68213151927438	53	127
167.4847619047619	167.68213151927438	50	127
167.69374149659865	167.86789115646258	48	127
167.69374149659865	167.86789115646258	52	127
167.86789115646258	168.04204081632653	82	127
167.86789115646258	168.04204081632653	79	127
167.86789115646258	168.4019501133787	57	127
167.86789115646258	168.4019501133787	53	127
168.04204081632653	168.22780045351473	79	127
168.04204081632653	168.22780045351473	76	127
168.239410430839	168.48321995464852	81	127
168.239410430839	168.48321995464852	77	127
168.4019501133787	168.56448979591838	55	127
168.4019501133787	168.56448979591838	52	127
168.56448979591838	168.91278911564626	77	127
168.56448979591838	168.79668934240362	53	127
168.56448979591838	168.79668934240362	50	127
168.56448979591838	168.91278911564626	81	127
168.79668934240362	168.9940589569161	48	127
168.79668934240362	168.9940589569161	52	127
168.9940589569161	169.4004081632653	81	127
168.9940589569161	169.4004081632653	77	127
168.9940589569161	169.17981859410432	50	127
168.9940589569161	169.17981859410432	46	127
169.19140589569162	169.4004081632653	48	127
169.19140589569162	169.4004081632653	45	127
169.4004081632653	169.60938775510203	43	127
169.4004081632653	169.60938775510203	52	127
169.4004081632653	169.6906575963719	82	127
169.4004081632653	169.6906575963719	79	127
169.60938775510203	169.8531746031746	53	127
169.60938775510203	169.8531746031746	41	127
169.86480725623582	170.1898866213152	76	127
169.86480725623582	170.1898866213152	79	127
169.86480725623582	170.05056689342405	55	127
169.86480725623582	170.27115646258503	48	127
170.05056689342405	170.27115646258503	60	127
170.27115646258503	170.56140589569162	69	127
170.27115646258503	170.44530612244898	84	127
170.27115646258503	170.44530612244898	54	127
170.51496598639457	170.67750566893423	74	127
170.51496598639457	170.67750566893423	66	127
170.67750566893423	170.89809523809524	82	127
170.67750566893423	170.89809523809524	62	127
170.67750566893423	170.89809523809524	67	127
171.01419501133788	171.1883446712018	82	127
171.01419501133788	171.24639455782312	67	127
171.01419501133788	171.24639455782312	60	127
171.01419501133788	171.24639455782312	64	127
171.1883446712018	171.37410430839003	72	127
171.37410430839003	171.60630385487528	81	127
171.37410430839003	171.60630385487528	72	127
171.37410430839003	171.60630385487528	65	127
171.71079365079365	171.8849433106576	81	127
171.71079365079365	171.94299319727892	65	127
171.71079365079365	171.94299319727892	62	127
171.8965306122449	172.05909297052153	71	127
172.05909297052153	172.27968253968254	79	127
172.05909297052153	172.27968253968254	70	127
172.05909297052153	172.27968253968254	67	127
172.05909297052153	172.27968253968254	64	127
172.44222222222223	172.75569160997733	64	127
172.44222222222223	172.697641723356	79	127
172.44222222222223	172.75569160997733	61	127
172.697641723356	172.8601814058957	69	127
172.8601814058957	173.23167800453515	77	127
172.8601814058957	173.23167800453515	65	127
172.8601814058957	173.23167800453515	62	127
173.34780045351474	173.51034013605442	77	127
173.34780045351474	173.56839002267574	74	127
173.34780045351474	173.56839002267574	67	127
173.34780045351474	173.56839002267574	59	127
173.51034013605442	173.6728798185941	67	127
173.68448979591838	173.90507936507936	76	127
173.68448979591838	173.90507936507936	67	127
173.68448979591838	173.90507936507936	72	127
173.68448979591838	173.90507936507936	60	127
174.00956916099773	174.18371882086169	76	127
174.00956916099773	174.27659863945578	65	127
174.00956916099773	174.27659863945578	72	127
174.00956916099773	174.27659863945578	57	127
174.18371882086169	174.47396825396825	65	127
174.48557823129252	174.79904761904763	43	127
174.48557823129252	174.72938775510204	65	127
174.48557823129252	174.79904761904763	74	127
174.48557823129252	174.79904761904763	59	127
174.72938775510204	174.93836734693878	55	127
174.93836734693878	175.70462585034014	65	127
174.93836734693878	175.29827664399093	50	127
174.93836734693878	175.10090702947846	45	127
175.11251700680273	175.29827664399093	42	127
175.29827664399093	175.60013605442177	43	127
175.29827664399093	175.70462585034014	62	127
175.7162358276644	175.89038548752833	64	127
175.7162358276644	175.89038548752833	60	127
175.89038548752833	176.0645351473923	59	127
175.89038548752833	176.0645351473923	62	127
176.0645351473923	176.23868480725625	45	127
176.0645351473923	176.88884353741497	67	127
176.0645351473923	176.88884353741497	52	127
176.2502947845805	176.43605442176872	42	127
176.43605442176872	176.7843537414966	43	127
176.90045351473924	177.07460317460317	65	127
176.90045351473924	177.07460317460317	50	127
177.07460317460317	177.24875283446713	64	127
177.07460317460317	177.24875283446713	48	127
177.24875283446713	177.4461224489796	45	127
177.24875283446713	178.13111111111112	74	127
177.24875283446713	178.13111111111112	59	127
177.24875283446713	178.13111111111112	62	127
177.24875283446713	178.13111111111112	53	127
177.4461224489796	177.6782993197279	42	127
177.6782993197279	177.99179138321995	43	127
178.13111111111112	178.30526077097505	72	127
178.13111111111112	178.30526077097505	64	127
178.13111111111112	178.30526077097505	60	127
178.30526077097505	178.46780045351474	62	127
178.30526077097505	178.46780045351474	71	127
178.30526077097505	178.46780045351474	65	127
178.479410430839	179.4894784580499	76	127
178.479410430839	179.4894784580499	64	127
178.479410430839	179.4894784580499	55	127
178.479410430839	178.67678004535148	45	127
178.479410430839	179.4894784580499	60	127
178.67678004535148	178.86253968253968	42	127
178.86253968253968	179.33854875283447	43	127
179.4894784580499	179.68684807256236	62	127
179.4894784580499	179.68684807256236	74	127
179.4894784580499	179.68684807256236	65	127
179.68684807256236	179.84938775510204	67	127
179.68684807256236	179.84938775510204	72	127
179.68684807256236	179.84938775510204	64	127
179.8725850340136	180.53437641723357	50	127
179.8725850340136	180.03514739229024	81	127
179.8725850340136	180.53437641723357	71	127
179.8725850340136	180.53437641723357	67	127
179.8725850340136	180.53437641723357	62	127
179.8725850340136	180.53437641723357	65	127
180.03514739229024	180.19768707482993	78	127
180.19768707482993	180.4298866213152	79	127
180.53437641723357	180.7085260770975	72	127
180.53437641723357	180.7085260770975	55	127
180.53437641723357	180.7085260770975	64	127
180.72013605442177	180.89426303854876	53	127
180.72013605442177	180.89426303854876	74	127
180.72013605442177	180.89426303854876	62	127
180.89426303854876	181.78825396825397	64	127
180.89426303854876	181.06843537414966	81	127
180.89426303854876	181.78825396825397	67	127
180.89426303854876	181.78825396825397	72	127
180.89426303854876	181.78825396825397	52	127
180.89426303854876	181.78825396825397	67	127
181.06843537414966	181.2541723356009	78	127
181.26580498866213	181.67215419501133	79	127
181.78825396825397	182.00884353741498	74	127
181.78825396825397	182.00884353741498	57	127
181.78825396825397	182.00884353741498	65	127
182.02043083900227	182.29909297052154	76	127
182.02043083900227	182.29909297052154	55	127
182.02043083900227	182.29909297052154	64	127
182.29909297052154	182.64739229024943	47	127
182.29909297052154	182.9956916099773	64	127
182.6590022675737	182.9956916099773	48	127
182.9956916099773	183.158231292517	62	127
182.9956916099773	183.36721088435374	52	127
183.18145124716554	183.36721088435374	60	127
183.36721088435374	184.15668934240364	72	127
183.36721088435374	183.62263038548753	59	127
183.36721088435374	183.82	52	127
183.62263038548753	183.82	56	127
183.82	184.05219954648527	57	127
183.82	184.15668934240364	53	127
184.16827664399094	184.36566893424038	71	127
184.16827664399094	184.62108843537416	57	127
184.36566893424038	184.62108843537416	69	127
184.62108843537416	185.4918367346939	69	127
184.62108843537416	184.84167800453514	67	127
184.62108843537416	185.05065759637188	64	127
184.62108843537416	185.05065759637188	61	127
184.8532879818594	185.05065759637188	64	127
185.05065759637188	185.4918367346939	65	127
185.05065759637188	185.4918367346939	62	127
185.05065759637188	185.4918367346939	62	127
185.50344671201813	185.9214058956916	69	127
185.50344671201813	185.71242630385487	67	127
185.50344671201813	185.9214058956916	62	127
185.50344671201813	185.9214058956916	65	127
185.71242630385487	185.9214058956916	65	127
185.9214058956916	186.09555555555556	65	127
185.9214058956916	186.28131519274376	71	127
185.9214058956916	186.28131519274376	62	127
185.9214058956916	186.6760544217687	67	127
185.9214058956916	186.28131519274376	55	127
186.10714285714286	186.28131519274376	62	127
186.28131519274376	186.4902947845805	64	127
186.28131519274376	186.6760544217687	60	127
186.28131519274376	186.6760544217687	72	127
186.6760544217687	186.83859410430838	65	127
186.6760544217687	186.83859410430838	69	127
186.6760544217687	186.83859410430838	62	127
186.83859410430838	187.0243537414966	67	127
186.83859410430838	187.0243537414966	64	127
186.83859410430838	187.0243537414966	64	127
187.04757369614512	187.88349206349207	55	127
187.04757369614512	187.23331065759638	65	127
187.04757369614512	187.395873015873	71	127
187.04757369614512	187.395873015873	55	127
187.04757369614512	187.395873015873	62	127
187.23331065759638	187.395873015873	62	127
187.395873015873	187.7093424036281	64	127
187.395873015873	187.88349206349207	72	127
187.395873015873	187.88349206349207	60	127
187.88349206349207	188.06925170068027	53	127
187.88349206349207	188.06925170068027	81	127
187.88349206349207	188.06925170068027	74	127
187.88349206349207	188.06925170068027	59	127
188.06925170068027	188.278231292517	76	127
188.06925170068027	188.278231292517	60	127
188.06925170068027	188.278231292517	79	127
188.06925170068027	188.278231292517	52	127
188.28984126984128	188.6613605442177	47	127
188.28984126984128	188.47560090702947	77	127
188.28984126984128	188.47560090702947	74	127
188.28984126984128	188.6613605442177	55	127
188.47560090702947	188.6613605442177	74	127
188.47560090702947	188.6613605442177	65	127
188.6613605442177	188.92839002267573	64	127
188.6613605442177	189.0328798185941	55	127
188.6613605442177	189.0328798185941	48	127
188.6613605442177	188.92839002267573	76	127
189.0328798185941	189.19541950113378	76	127
189.0328798185941	189.36956916099774	56	127
189.0328798185941	189.36956916099774	52	127
189.19541950113378	189.36956916099774	74	127
189.38115646258504	189.7294784580499	56	127
189.38115646258504	189.5669387755102	74	127
189.38115646258504	189.5669387755102	59	127
189.5669387755102	189.7294784580499	64	127
189.5669387755102	189.7294784580499	71	127
189.7294784580499	190.2519274376417	64	127
189.7294784580499	190.2519274376417	57	127
189.7294784580499	189.96167800453514	72	127
190.2519274376417	190.4144671201814	88	127
190.2519274376417	190.58861678004536	80	127
190.2519274376417	190.58861678004536	64	127
190.42607709750567	190.58861678004536	86	127
190.58861678004536	190.75115646258504	83	127
190.58861678004536	190.75115646258504	86	127
190.58861678004536	190.9136961451247	68	127
190.75115646258504	190.9136961451247	76	127
190.75115646258504	190.9136961451247	83	127
190.92530612244897	191.14589569160998	84	127
190.92530612244897	191.26199546485262	76	127
190.92530612244897	191.26199546485262	69	127
191.26199546485262	191.44775510204082	84	127
191.26199546485262	191.7031746031746	36	127
191.26199546485262	191.7031746031746	48	127
191.52902494331065	191.7031746031746	83	127
191.7031746031746	191.8657142857143	83	127
191.7031746031746	192.03986394557822	52	127
191.7031746031746	192.03986394557822	40	127
191.8657142857143	192.03986394557822	80	127
192.03986394557822	192.26045351473923	81	127
192.03986394557822	192.4229931972789	53	127
192.03986394557822	192.4229931972789	41	127
192.4229931972789	192.8641723356009	60	127
192.4229931972789	192.7016326530612	84	127
192.4229931972789	192.8641723356009	72	127
192.7016326530612	192.8641723356009	83	127
192.8641723356009	193.02671201814059	83	127
192.8641723356009	193.18925170068027	76	127
192.8641723356009	193.18925170068027	64	127
193.02671201814059	193.18925170068027	80	127
193.18925170068027	193.38662131519274	81	127
193.18925170068027	193.4911111111111	77	127
193.18925170068027	193.4911111111111	65	127
193.4911111111111	194.03678004535146	64	127
193.4911111111111	193.81619047619049	72	127
193.4911111111111	194.03678004535146	60	127
193.81619047619049	194.03678004535146	71	127
194.03678004535146	194.44312925170067	64	127
194.03678004535146	194.2225396825397	71	127
194.03678004535146	194.44312925170067	52	127
194.23414965986396	194.44312925170067	68	127
194.44312925170067	194.7798185941043	53	127
194.44312925170067	194.67532879818594	69	127
194.44312925170067	194.7798185941043	65	127
194.79142857142858	195.20938775510203	61	127
194.79142857142858	194.98879818594105	81	127
194.79142857142858	195.20938775510203	76	127
194.79142857142858	195.20938775510203	57	127
195.00040816326532	195.20938775510203	79	127
195.2209977324263	195.41836734693877	79	127
195.2209977324263	195.41836734693877	76	127
195.2209977324263	195.604126984127	61	127
195.2209977324263	195.604126984127	64	127
195.42997732426304	195.604126984127	76	127
195.42997732426304	195.604126984127	69	127
195.604126984127	195.98725623582766	62	127
195.604126984127	195.98725623582766	65	127
195.604126984127	195.82471655328797	77	127
195.604126984127	195.82471655328797	69	127
195.98725623582766	196.4168253968254	81	127
195.98725623582766	196.25428571428571	69	127
195.98725623582766	196.25428571428571	57	127
196.25428571428571	196.4168253968254	67	127
196.25428571428571	196.4168253968254	55	127
196.42843537414967	196.59097505668933	67	127
196.42843537414967	196.59097505668933	55	127
196.42843537414967	196.75351473922902	85	127
196.59097505668933	196.75351473922902	64	127
196.59097505668933	196.75351473922902	52	127
196.75351473922902	196.99732426303854	65	127
196.75351473922902	196.99732426303854	53	127
196.75351473922902	197.11342403628117	86	127
197.11342403628117	197.2991836734694	65	127
197.11342403628117	197.2991836734694	53	127
197.2991836734694	197.5546031746032	64	127
197.2991836734694	197.5546031746032	52	127
197.56621315192743	197.7635827664399	64	127
197.56621315192743	197.7635827664399	52	127
197.7635827664399	197.97256235827663	61	127
197.7635827664399	197.97256235827663	49	127
197.97256235827663	198.27442176870747	62	127
197.97256235827663	198.27442176870747	50	127
198.43696145124716	198.69238095238094	74	127
198.43696145124716	198.69238095238094	86	127
198.7039909297052	198.87814058956917	84	127
198.7039909297052	198.87814058956917	72	127
198.87814058956917	199.04068027210883	84	127
198.87814058956917	199.04068027210883	72	127
199.04068027210883	199.20321995464852	81	127
199.04068027210883	199.20321995464852	69	127
199.2148299319728	199.4354195011338	83	127
199.2148299319728	199.4354195011338	71	127
199.53990929705216	199.73727891156463	60	127
199.53990929705216	199.73727891156463	48	127
199.7488888888889	199.95786848072564	59	127
199.7488888888889	199.95786848072564	47	127
199.95786848072564	200.14362811791383	59	127
199.95786848072564	200.14362811791383	47	127
200.14362811791383	200.30616780045352	56	127
200.14362811791383	200.30616780045352	44	127
200.3177777777778	200.60802721088436	57	127
200.3177777777778	200.60802721088436	45	127
200.73573696145124	201.08403628117915	84	127
200.73573696145124	201.08403628117915	72	127
201.0956462585034	201.2465759637188	83	127
201.0956462585034	201.2465759637188	71	127
201.2465759637188	201.32784580498867	83	127
201.2465759637188	201.32784580498867	71	127
201.33945578231294	201.49038548752836	80	127
201.33945578231294	201.49038548752836	68	127
201.49038548752836	201.7922448979592	81	127
201.49038548752836	201.7922448979592	69	127
201.91995464852607	202.1289342403628	61	127
201.91995464852607	202.1289342403628	49	127
202.1637641723356	202.37274376417233	59	127
202.1637641723356	202.37274376417233	47	127
202.37274376417233	202.58172335600906	59	127
202.37274376417233	202.58172335600906	47	127
202.58172335600906	202.80231292517007	56	127
202.58172335600906	202.80231292517007	44	127
202.81392290249434	203.11578231292518	57	127
202.81392290249434	203.11578231292518	45	127
203.3595918367347	203.5453514739229	85	127
203.3595918367347	203.5453514739229	73	127
203.3595918367347	203.5453514739229	61	127
203.3595918367347	203.5453514739229	49	127
203.5453514739229	203.7659410430839	59	127
203.5453514739229	203.7659410430839	83	127
203.5453514739229	203.7659410430839	71	127
203.5453514739229	203.7659410430839	47	127
203.77755102040817	203.99814058956918	71	127
203.77755102040817	203.99814058956918	83	127
203.77755102040817	204.961768707483	57	127
203.77755102040817	203.99814058956918	62	127
203.99814058956918	204.1722902494331	68	127
203.99814058956918	204.1722902494331	59	127
203.99814058956918	204.1722902494331	80	127
204.1722902494331	204.47414965986394	69	127
204.1722902494331	204.47414965986394	61	127
204.1722902494331	204.47414965986394	81	127
204.5786394557823	204.76439909297054	66	127
204.5786394557823	204.76439909297054	63	127
204.5786394557823	204.76439909297054	78	127
204.77600907029478	204.961768707483	71	127
204.77600907029478	204.961768707483	66	127
204.77600907029478	204.961768707483	75	127
204.961768707483	205.25201814058957	76	127
204.961768707483	205.5887074829932	64	127
204.961768707483	205.76285714285714	56	127
204.961768707483	205.18235827664398	61	127
205.18235827664398	205.3681179138322	58	127
205.37972789115645	205.5887074829932	74	127
205.37972789115645	205.6467573696145	59	127
205.5887074829932	205.76285714285714	71	127
205.5887074829932	205.76285714285714	62	127
205.76285714285714	206.00666666666666	73	127
205.76285714285714	205.9370068027211	57	127
205.76285714285714	205.9370068027211	61	127
205.76285714285714	206.20403628117913	57	127
205.94861678004534	206.20403628117913	62	127
205.94861678004534	206.20403628117913	59	127
206.20403628117913	206.56394557823128	64	127
206.20403628117913	206.56394557823128	61	127
206.20403628117913	206.72648526077097	44	127
206.20403628117913	207.15605442176872	73	127
206.56394557823128	206.72648526077097	62	127
206.56394557823128	206.72648526077097	59	127
206.73809523809524	206.94707482993198	57	127
206.73809523809524	206.94707482993198	61	127
206.73809523809524	207.15605442176872	45	127
206.94707482993198	207.15605442176872	59	127
206.94707482993198	207.15605442176872	62	127
207.15605442176872	207.3185941043084	64	127
207.15605442176872	207.3185941043084	57	127
207.15605442176872	207.3185941043084	71	127
207.15605442176872	207.55079365079365	49	127
207.33020408163264	207.55079365079365	69	127
207.55079365079365	207.99197278911564	49	127
207.55079365079365	207.84104308390022	68	127
207.55079365079365	207.84104308390022	57	127
207.84104308390022	207.99197278911564	56	127
207.84104308390022	207.99197278911564	65	127
207.99197278911564	208.20095238095237	54	127
207.99197278911564	208.2590022675737	66	127
207.99197278911564	208.37510204081633	50	127
208.20095238095237	208.37510204081633	56	127
208.3867120181406	208.54925170068026	57	127
208.3867120181406	208.73501133786849	54	127
208.73501133786849	208.94399092970522	66	127
208.73501133786849	209.5477097505669	74	127
208.73501133786849	209.1645804988662	46	127
208.96721088435373	209.1645804988662	64	127
209.1645804988662	209.33873015873016	62	127
209.1645804988662	209.5477097505669	47	127
209.33873015873016	209.5477097505669	64	127
209.55931972789116	209.81473922902495	66	127
209.55931972789116	209.81473922902495	73	127
209.55931972789116	209.98888888888888	50	127
209.81473922902495	209.98888888888888	71	127
209.98888888888888	210.47650793650794	51	127
209.98888888888888	210.18625850340135	69	127
209.98888888888888	210.18625850340135	59	127
210.19786848072562	210.47650793650794	57	127
210.19786848072562	210.47650793650794	66	127
210.47650793650794	210.68548752834468	56	127
210.47650793650794	210.75514739229024	68	127
210.47650793650794	210.87124716553288	52	127
210.68548752834468	210.87124716553288	57	127
210.87124716553288	211.06861678004535	59	127
210.87124716553288	211.21954648526076	56	127
211.23115646258503	212.07868480725622	76	127
211.23115646258503	211.41691609977323	64	127
211.23115646258503	211.41691609977323	61	127
211.41691609977323	211.61428571428573	59	127
211.41691609977323	211.61428571428573	62	127
211.61428571428573	211.8348752834467	61	127
211.61428571428573	211.8348752834467	57	127
211.84648526077098	212.07868480725622	59	127
211.84648526077098	212.07868480725622	62	127
212.07868480725622	212.2412244897959	74	127
212.07868480725622	212.2412244897959	64	127
212.07868480725622	212.2412244897959	61	127
212.2412244897959	212.4037641723356	73	127
212.41537414965987	212.74045351473922	57	127
212.41537414965987	212.57791383219956	71	127
212.41537414965987	212.74045351473922	54	127
212.57791383219956	212.74045351473922	68	127
212.74045351473922	213.0307029478458	69	127
212.74045351473922	212.91460317460317	56	127
212.92621315192744	213.216462585034	53	127
213.216462585034	213.55315192743765	54	127
213.82018140589568	214.1684807256236	54	127
213.82018140589568	214.0059410430839	73	127
213.82018140589568	214.1684807256236	63	127
214.0059410430839	214.1684807256236	70	127
214.1684807256236	214.38907029478457	49	127
214.1684807256236	214.4471201814059	71	127
214.38907029478457	214.55160997732426	46	127
214.55160997732426	214.80702947845805	47	127
214.93473922902496	215.27142857142857	59	127
214.93473922902496	215.27142857142857	64	127
214.93473922902496	215.09727891156462	69	127
214.93473922902496	215.27142857142857	52	127
215.09727891156462	215.27142857142857	66	127
215.28303854875284	215.49201814058958	54	127
215.28303854875284	215.5500680272109	68	127
215.49201814058958	215.6661678004535	51	127
215.6661678004535	216.00285714285715	52	127
216.25827664399094	217.09419501133786	81	127
216.25827664399094	217.09419501133786	69	127
216.25827664399094	216.6414058956916	53	127
216.65301587301587	217.09419501133786	54	127
217.09419501133786	217.5237641723356	57	127
217.09419501133786	217.31478458049887	80	127
217.09419501133786	217.31478458049887	68	127
217.31478458049887	217.5237641723356	66	127
217.31478458049887	217.5237641723356	78	127
217.5237641723356	217.7443537414966	64	127
217.5237641723356	217.7443537414966	76	127
217.5237641723356	217.95333333333335	58	127
217.75596371882085	217.95333333333335	73	127
217.75596371882085	217.95333333333335	61	127
217.95333333333335	218.20875283446713	74	127
217.95333333333335	218.20875283446713	62	127
217.95333333333335	218.15070294784582	73	127
217.95333333333335	218.4061224489796	59	127
218.15070294784582	218.4061224489796	70	127
218.41773242630384	218.76603174603176	62	127
218.41773242630384	218.6615419501134	71	127
218.76603174603176	218.95179138321996	66	127
218.76603174603176	218.95179138321996	78	127
218.76603174603176	219.1259410430839	54	127
218.96340136054422	219.1259410430839	63	127
218.96340136054422	219.1259410430839	75	127
219.1259410430839	219.30009070294784	66	127
219.1259410430839	219.36975056689343	76	127
219.1259410430839	219.36975056689343	59	127
219.1259410430839	219.36975056689343	64	127
219.1259410430839	219.4742403628118	56	127
219.30009070294784	219.4742403628118	62	127
219.48585034013607	219.880589569161	59	127
219.48585034013607	219.77609977324263	64	127
219.880589569161	220.05473922902493	62	127
219.880589569161	220.05473922902493	74	127
219.880589569161	220.25210884353743	44	127
220.05473922902493	220.25210884353743	71	127
220.05473922902493	220.25210884353743	59	127
220.25210884353743	220.70489795918368	45	127
220.25210884353743	220.46108843537414	59	127
220.25210884353743	220.55396825396826	73	127
220.25210884353743	220.55396825396826	61	127
220.4726984126984	220.70489795918368	56	127
220.70489795918368	220.99514739229025	57	127
220.70489795918368	221.09963718820862	49	127
221.1112471655329	222.1097052154195	73	127
221.1112471655329	222.1097052154195	57	127
221.1112471655329	222.1097052154195	45	127
222.1097052154195	222.29546485260772	71	127
222.1097052154195	222.29546485260772	56	127
222.1097052154195	222.29546485260772	44	127
222.29546485260772	222.45800453514738	69	127
222.29546485260772	222.45800453514738	54	127
222.29546485260772	222.45800453514738	42	127
222.46961451247165	222.66698412698412	68	127
222.46961451247165	222.66698412698412	52	127
222.46961451247165	222.66698412698412	40	127
222.66698412698412	222.84113378684808	49	127
222.66698412698412	222.84113378684808	37	127
222.66698412698412	222.84113378684808	65	127
222.84113378684808	223.22426303854874	38	127
222.84113378684808	223.22426303854874	66	127
222.84113378684808	223.00367346938776	80	127
222.84113378684808	223.22426303854874	50	127
223.015283446712	223.3287528344671	77	127
223.3287528344671	223.54934240362812	78	127
223.66544217687076	223.86281179138322	69	127
223.66544217687076	223.86281179138322	54	127
223.66544217687076	223.86281179138322	42	127
223.86281179138322	224.0253514739229	66	127
223.86281179138322	224.0253514739229	51	127
223.86281179138322	224.0253514739229	39	127
224.03696145124715	224.19950113378684	78	127
224.03696145124715	224.25755102040816	68	127
224.03696145124715	224.25755102040816	52	127
224.03696145124715	224.25755102040816	40	127
224.19950113378684	224.36204081632653	75	127
224.36204081632653	224.6174603174603	76	127
224.79160997732427	225.07024943310657	62	127
224.79160997732427	225.07024943310657	71	127
224.79160997732427	225.07024943310657	50	127
225.07024943310657	225.2560090702948	68	127
225.07024943310657	225.2560090702948	59	127
225.07024943310657	225.2560090702948	47	127
225.26761904761904	225.54625850340136	61	127
225.26761904761904	225.48820861678004	78	127
225.26761904761904	225.54625850340136	69	127
225.26761904761904	225.54625850340136	49	127
225.48820861678004	225.69718820861678	75	127
225.69718820861678	226.08031746031747	76	127
226.09192743764171	226.27768707482994	85	127
226.27768707482994	226.99750566893425	85	127
226.27768707482994	226.45183673469387	74	127
226.27768707482994	226.45183673469387	71	127
226.45183673469387	226.6375963718821	68	127
226.45183673469387	226.6375963718821	71	127
226.6375963718821	226.99750566893425	69	127
226.6375963718821	226.99750566893425	73	127
227.0091156462585	227.38063492063492	73	127
227.0091156462585	227.17165532879818	83	127
227.0091156462585	227.38063492063492	76	127
227.17165532879818	227.38063492063492	81	127
227.38063492063492	227.8566439909297	61	127
227.38063492063492	227.8566439909297	65	127
227.38063492063492	228.18172335600906	81	127
227.38063492063492	228.18172335600906	69	127
227.8566439909297	228.18172335600906	66	127
227.8566439909297	228.18172335600906	62	127
228.19333333333333	228.35587301587302	68	127
228.19333333333333	228.35587301587302	80	127
228.19333333333333	228.6809523809524	69	127
228.19333333333333	228.6809523809524	66	127
228.35587301587302	228.6809523809524	66	127
228.35587301587302	228.6809523809524	78	127
228.6809523809524	229.458820861678	86	127
228.6809523809524	228.84349206349205	76	127
228.6809523809524	228.84349206349205	73	127
228.85510204081632	229.09891156462584	70	127
228.85510204081632	229.09891156462584	73	127
229.09891156462584	229.458820861678	74	127
229.09891156462584	229.458820861678	71	127
229.458820861678	229.78390022675737	78	127
229.458820861678	229.78390022675737	74	127
229.458820861678	229.62136054421768	85	127
229.62136054421768	229.78390022675737	83	127
229.79551020408164	230.61981859410432	71	127
229.79551020408164	230.23668934240362	66	127
229.79551020408164	230.23668934240362	63	127
229.79551020408164	230.61981859410432	83	127
230.23668934240362	230.61981859410432	68	127
230.23668934240362	230.61981859410432	64	127
230.61981859410432	230.82879818594105	81	127
230.61981859410432	230.82879818594105	69	127
230.61981859410432	231.0377777777778	71	127
230.61981859410432	231.0377777777778	68	127
230.82879818594105	231.0377777777778	80	127
230.82879818594105	231.0377777777778	68	127
231.04938775510203	231.43251700680273	48	127
231.04938775510203	231.43251700680273	60	127
231.04938775510203	231.80403628117915	88	127
231.04938775510203	231.80403628117915	76	127
231.43251700680273	231.80403628117915	49	127
231.43251700680273	231.80403628117915	61	127
231.80403628117915	231.97818594104308	74	127
231.80403628117915	232.1639455782313	52	127
231.80403628117915	231.97818594104308	86	127
231.80403628117915	232.1639455782313	64	127
231.97818594104308	232.1639455782313	85	127
231.97818594104308	232.1639455782313	73	127
232.17555555555555	232.36131519274377	71	127
232.17555555555555	232.36131519274377	83	127
232.17555555555555	232.52385487528343	65	127
232.17555555555555	232.52385487528343	53	127
232.36131519274377	232.52385487528343	80	127
232.36131519274377	232.52385487528343	68	127
232.52385487528343	233.0114739229025	66	127
232.52385487528343	233.0114739229025	54	127
232.52385487528343	232.80249433106576	81	127
232.52385487528343	232.80249433106576	69	127
233.0114739229025	233.2901133786848	73	127
233.0114739229025	233.2901133786848	81	127
233.0114739229025	233.46426303854875	61	127
233.0114739229025	233.46426303854875	57	127
233.30172335600906	233.46426303854875	80	127
233.30172335600906	233.46426303854875	76	127
233.46426303854875	233.70807256235827	69	127
233.46426303854875	233.62680272108844	80	127
233.46426303854875	233.80095238095237	37	127
233.46426303854875	233.80095238095237	49	127
233.62680272108844	233.80095238095237	77	127
233.81256235827664	234.0795918367347	69	127
233.81256235827664	234.0795918367347	78	127
233.81256235827664	234.18408163265306	50	127
233.81256235827664	234.18408163265306	38	127
234.18408163265306	234.34662131519275	78	127
234.18408163265306	234.34662131519275	70	127
234.18408163265306	234.54399092970522	54	127
234.18408163265306	234.54399092970522	42	127
234.35823129251702	234.54399092970522	76	127
234.35823129251702	234.54399092970522	73	127
234.54399092970522	234.74136054421768	76	127
234.54399092970522	234.799410430839	66	127
234.54399092970522	234.90390022675737	58	127
234.54399092970522	234.90390022675737	46	127
234.74136054421768	234.90390022675737	73	127
234.91551020408164	235.17092970521543	66	127
234.91551020408164	235.17092970521543	74	127
234.91551020408164	235.28702947845804	59	127
234.91551020408164	235.28702947845804	47	127
235.28702947845804	235.62371882086168	40	127
235.28702947845804	235.44956916099773	88	127
235.28702947845804	235.44956916099773	68	127
235.28702947845804	235.62371882086168	52	127
235.44956916099773	235.62371882086168	86	127
235.44956916099773	235.62371882086168	71	127
235.62371882086168	235.82108843537415	64	127
235.62371882086168	236.01845804988662	56	127
235.62371882086168	235.82108843537415	86	127
235.62371882086168	236.01845804988662	44	127
235.83269841269842	236.01845804988662	83	127
235.83269841269842	236.01845804988662	71	127
236.01845804988662	236.5292970521542	45	127
236.01845804988662	236.2738775510204	85	127
236.01845804988662	236.2738775510204	64	127
236.01845804988662	236.5292970521542	57	127
236.54090702947846	237.70190476190476	66	127
236.54090702947846	236.73827664399093	86	127
236.54090702947846	236.73827664399093	66	127
236.54090702947846	236.92403628117913	70	127
236.73827664399093	236.92403628117913	64	127
236.73827664399093	236.92403628117913	85	127
236.92403628117913	237.08657596371881	64	127
236.92403628117913	237.08657596371881	85	127
236.92403628117913	237.27233560090704	73	127
237.09818594104308	237.27233560090704	61	127
237.09818594104308	237.27233560090704	82	127
237.27233560090704	237.53936507936507	62	127
237.27233560090704	237.53936507936507	83	127
237.27233560090704	237.70190476190476	78	127
237.71351473922903	238.78163265306122	64	127
237.71351473922903	237.9108843537415	85	127
237.71351473922903	237.9108843537415	68	127
237.71351473922903	237.9108843537415	64	127
237.9108843537415	238.10825396825396	62	127
237.9108843537415	238.10825396825396	83	127
238.10825396825396	238.27079365079365	83	127
238.10825396825396	238.27079365079365	62	127
238.10825396825396	238.4449433106576	71	127
238.28240362811792	238.4449433106576	80	127
238.28240362811792	238.4449433106576	59	127
238.4449433106576	238.66553287981858	61	127
238.4449433106576	238.78163265306122	76	127
238.4449433106576	238.66553287981858	81	127
238.78163265306122	239.00222222222223	86	127
238.78163265306122	239.00222222222223	59	127
238.78163265306122	239.00222222222223	56	127
238.78163265306122	239.06027210884355	40	127
239.00222222222223	239.17637188208616	85	127
239.00222222222223	239.17637188208616	61	127
239.00222222222223	239.17637188208616	57	127
239.17637188208616	239.50145124716553	85	127
239.17637188208616	239.50145124716553	61	127
239.17637188208616	239.50145124716553	57	127
239.17637188208616	239.55950113378685	40	127
239.50145124716553	239.66399092970522	82	127
239.50145124716553	239.66399092970522	64	127
239.50145124716553	239.66399092970522	52	127
239.66399092970522	239.919410430839	83	127
239.66399092970522	239.919410430839	62	127
239.66399092970522	239.919410430839	56	127
239.66399092970522	239.919410430839	52	127
240.02390022675738	240.22126984126984	85	127
240.02390022675738	240.22126984126984	64	127
240.02390022675738	240.22126984126984	52	127
240.02390022675738	240.27931972789116	40	127
240.22126984126984	240.39541950113377	83	127
240.22126984126984	240.39541950113377	68	127
240.22126984126984	240.39541950113377	50	127
240.39541950113377	240.62761904761905	83	127
240.39541950113377	240.62761904761905	68	127
240.39541950113377	240.62761904761905	50	127
240.39541950113377	240.68566893424037	40	127
240.62761904761905	240.79015873015874	80	127
240.62761904761905	240.79015873015874	71	127
240.62761904761905	240.79015873015874	52	127
240.79015873015874	241.32421768707482	49	127
240.79015873015874	241.32421768707482	81	127
240.79015873015874	241.32421768707482	64	127
240.79015873015874	241.32421768707482	69	127
240.79015873015874	241.32421768707482	45	127
241.59124716553288	241.75378684807256	78	127
241.59124716553288	241.75378684807256	69	127
241.75378684807256	241.95115646258503	76	127
241.75378684807256	241.95115646258503	68	127
241.95115646258503	242.11369614512472	76	127
241.95115646258503	242.11369614512472	68	127
242.13691609977323	242.28784580498865	73	127
242.13691609977323	242.28784580498865	64	127
242.29945578231292	242.6245351473923	75	127
242.29945578231292	242.6245351473923	66	127
242.75224489795917	242.91478458049886	57	127
242.75224489795917	242.91478458049886	61	127
242.91478458049886	243.07732426303855	56	127
242.91478458049886	243.07732426303855	59	127
243.07732426303855	243.26308390022675	56	127
243.07732426303855	243.26308390022675	59	127
243.27469387755102	243.46045351473924	53	127
243.27469387755102	243.46045351473924	56	127
243.46045351473924	243.68104308390022	54	127
243.46045351473924	243.68104308390022	57	127
243.97129251700682	244.13383219954648	80	127
243.97129251700682	244.13383219954648	71	127
244.13383219954648	244.29637188208616	78	127
244.13383219954648	244.29637188208616	69	127
244.29637188208616	244.55179138321995	78	127
244.29637188208616	244.55179138321995	69	127
244.55179138321995	244.70272108843537	75	127
244.55179138321995	244.70272108843537	66	127
244.70272108843537	244.96975056689342	76	127
244.70272108843537	244.96975056689342	68	127
245.08585034013606	245.42253968253968	59	127
245.08585034013606	245.42253968253968	68	127
245.42253968253968	245.58507936507937	57	127
245.42253968253968	245.58507936507937	66	127
245.59668934240364	245.75922902494332	57	127
245.59668934240364	245.75922902494332	66	127
245.75922902494332	245.96820861678003	54	127
245.75922902494332	245.96820861678003	63	127
245.96820861678003	246.22362811791382	56	127
245.96820861678003	246.22362811791382	64	127
246.33972789115646	246.6067573696145	66	127
246.33972789115646	246.6067573696145	62	127
246.33972789115646	246.6067573696145	57	127
246.33972789115646	246.6067573696145	66	127
246.6067573696145	246.7692970521542	64	127
246.6067573696145	246.7692970521542	68	127
246.6067573696145	246.7692970521542	56	127
246.6067573696145	246.7692970521542	64	127
246.78090702947847	246.9550566893424	64	127
246.78090702947847	246.9550566893424	68	127
246.78090702947847	246.9550566893424	56	127
246.78090702947847	246.9550566893424	64	127
246.9550566893424	247.1175963718821	71	127
246.9550566893424	247.1175963718821	68	127
246.9550566893424	247.1175963718821	52	127
246.9550566893424	247.1175963718821	61	127
247.1175963718821	247.34979591836733	69	127
247.1175963718821	247.34979591836733	66	127
247.1175963718821	247.34979591836733	54	127
247.1175963718821	247.34979591836733	63	127
247.44267573696146	247.60521541950112	85	127
247.44267573696146	247.60521541950112	81	127
247.44267573696146	247.60521541950112	54	127
247.44267573696146	247.60521541950112	51	127
247.6168253968254	247.79097505668935	83	127
247.6168253968254	247.79097505668935	80	127
247.6168253968254	247.79097505668935	56	127
247.6168253968254	247.79097505668935	52	127
247.79097505668935	247.96512471655328	83	127
247.79097505668935	247.96512471655328	80	127
247.79097505668935	247.96512471655328	56	127
247.79097505668935	247.96512471655328	52	127
247.96512471655328	248.18571428571428	80	127
247.96512471655328	248.18571428571428	77	127
247.96512471655328	248.18571428571428	59	127
247.96512471655328	248.18571428571428	56	127
248.37147392290248	248.6501133786848	81	127
248.37147392290248	248.6501133786848	78	127
248.37147392290248	248.6501133786848	57	127
248.37147392290248	248.6501133786848	54	127
248.75460317460318	248.97519274376418	68	127
248.75460317460318	248.97519274376418	64	127
248.75460317460318	248.97519274376418	59	127
248.75460317460318	248.97519274376418	68	127
248.98680272108842	249.16095238095238	69	127
248.98680272108842	249.16095238095238	66	127
248.98680272108842	249.16095238095238	57	127
248.98680272108842	249.16095238095238	66	127
249.16095238095238	249.36993197278912	69	127
249.16095238095238	249.36993197278912	66	127
249.16095238095238	249.36993197278912	57	127
249.16095238095238	249.36993197278912	66	127
249.36993197278912	249.5324716553288	69	127
249.36993197278912	249.5324716553288	73	127
249.36993197278912	249.5324716553288	54	127
249.36993197278912	249.5324716553288	63	127
249.54408163265308	249.7878911564626	68	127
249.54408163265308	249.7878911564626	71	127
249.54408163265308	249.7878911564626	56	127
249.54408163265308	249.7878911564626	64	127
249.89238095238096	250.24068027210885	86	127
249.89238095238096	250.24068027210885	78	127
249.89238095238096	250.24068027210885	59	127
249.89238095238096	250.24068027210885	56	127
250.25229024943312	250.42643990929705	85	127
250.25229024943312	250.42643990929705	76	127
250.25229024943312	250.42643990929705	61	127
250.25229024943312	250.42643990929705	57	127
250.42643990929705	250.600589569161	85	127
250.42643990929705	250.600589569161	76	127
250.42643990929705	250.600589569161	61	127
250.42643990929705	250.600589569161	57	127
250.61219954648527	250.77473922902493	82	127
250.61219954648527	250.77473922902493	73	127
250.61219954648527	250.77473922902493	64	127
250.61219954648527	250.77473922902493	61	127
250.77473922902493	251.03015873015872	74	127
250.77473922902493	251.03015873015872	83	127
250.77473922902493	251.03015873015872	62	127
250.77473922902493	251.03015873015872	59	127
251.27396825396826	251.49455782312924	88	127
251.27396825396826	251.6687074829932	52	127
251.27396825396826	251.6687074829932	40	127
251.27396825396826	251.49455782312924	85	127
251.49455782312924	251.6687074829932	86	127
251.49455782312924	251.6687074829932	83	127
251.6687074829932	251.8544671201814	76	127
251.6687074829932	252.10988662131518	56	127
251.6687074829932	251.8544671201814	85	127
251.6687074829932	252.10988662131518	44	127
251.91251700680272	252.10988662131518	74	127
251.91251700680272	252.10988662131518	83	127
252.10988662131518	252.30725623582765	81	127
252.10988662131518	252.30725623582765	73	127
252.10988662131518	252.5742857142857	59	127
252.10988662131518	252.5742857142857	47	127
252.3304761904762	252.5742857142857	80	127
252.3304761904762	252.5742857142857	71	127
252.5742857142857	252.77165532879818	64	127
252.5742857142857	252.77165532879818	52	127
252.5742857142857	253.06190476190477	68	127
252.5742857142857	253.06190476190477	64	127
252.77165532879818	253.06190476190477	62	127
252.77165532879818	253.06190476190477	50	127
253.073514739229	253.35215419501134	61	127
253.073514739229	253.35215419501134	49	127
253.073514739229	253.6772335600907	71	127
253.073514739229	253.6772335600907	68	127
253.35215419501134	253.6772335600907	47	127
253.35215419501134	253.6772335600907	59	127
253.68884353741495	253.96748299319728	57	127
253.68884353741495	253.96748299319728	45	127
253.68884353741495	254.4318820861678	74	127
253.68884353741495	254.4318820861678	71	127
253.97909297052155	254.4318820861678	56	127
253.97909297052155	254.4318820861678	44	127
254.4318820861678	257.3227664399093	44	127
254.4318820861678	257.3227664399093	78	127
254.4318820861678	257.3227664399093	62	127
254.4318820861678	257.3227664399093	71	127
254.4318820861678	257.3227664399093	56	127
258.10063492063495	258.855283446712	62	127
258.10063492063495	258.855283446712	66	127
258.855283446712	259.0410430839002	61	127
258.855283446712	259.0410430839002	64	127
259.0410430839002	259.25002267573694	62	127
259.0410430839002	259.25002267573694	59	127
259.3428798185941	259.50544217687076	59	127
259.3428798185941	259.50544217687076	62	127
259.3428798185941	260.00467120181406	73	127
259.3428798185941	260.00467120181406	76	127
259.50544217687076	259.6795918367347	59	127
259.50544217687076	259.6795918367347	56	127
259.6795918367347	259.9001814058957	61	127
259.6795918367347	259.9001814058957	57	127
260.00467120181406	260.178820861678	74	127
260.00467120181406	260.178820861678	71	127
260.178820861678	260.36455782312925	73	127
260.178820861678	260.36455782312925	69	127
260.37619047619046	261.18888888888887	66	127
260.37619047619046	260.60839002267574	73	127
260.37619047619046	260.60839002267574	69	127
260.37619047619046	261.18888888888887	62	127
260.60839002267574	260.8057596371882	69	127
260.60839002267574	260.8057596371882	66	127
260.8057596371882	261.061179138322	71	127
260.8057596371882	261.061179138322	68	127
261.2237188208617	261.4326984126984	64	127
261.2237188208617	261.4326984126984	61	127
261.4326984126984	261.6184580498866	62	127
261.4326984126984	261.6184580498866	59	127
261.6184580498866	261.78099773242633	59	127
261.6184580498866	262.37310657596373	73	127
261.6184580498866	261.78099773242633	62	127
261.6184580498866	262.37310657596373	76	127
261.7925850340136	261.95514739229026	56	127
261.7925850340136	261.95514739229026	59	127
261.95514739229026	262.18734693877553	57	127
261.95514739229026	262.18734693877553	61	127
262.54725623582766	262.73301587301586	74	127
262.54725623582766	262.73301587301586	71	127
262.73301587301586	262.96521541950113	73	127
262.73301587301586	262.96521541950113	69	127
262.96521541950113	263.12773242630385	73	127
262.96521541950113	263.12773242630385	69	127
262.96521541950113	263.65020408163264	76	127
263.13936507936506	263.3019047619048	66	127
263.13936507936506	263.3019047619048	69	127
263.3019047619048	263.54571428571427	71	127
263.3019047619048	263.54571428571427	68	127
263.6734240362812	263.87079365079364	74	127
263.87079365079364	264.1726530612245	73	127
264.1726530612245	264.91569160997733	64	127
264.1726530612245	264.3351927437642	74	127
264.1726530612245	264.3351927437642	71	127
264.34678004535147	264.5209523809524	68	127
264.34678004535147	264.5209523809524	71	127
264.5209523809524	264.76473922902494	73	127
264.5209523809524	264.76473922902494	69	127
264.9273015873016	265.13628117913834	62	127
265.13628117913834	265.41492063492063	61	127
265.41492063492063	266.16956916099775	52	127
265.41492063492063	265.60068027210883	81	127
265.41492063492063	265.60068027210883	73	127
265.41492063492063	266.16956916099775	64	127
265.60068027210883	265.76321995464855	78	127
265.60068027210883	265.76321995464855	69	127
265.7748072562358	266.0302494331066	80	127
265.7748072562358	266.0302494331066	71	127
266.16956916099775	266.3669387755102	62	127
266.16956916099775	266.3669387755102	50	127
266.3785487528345	266.54108843537415	49	127
266.3785487528345	266.54108843537415	61	127
266.54108843537415	266.81972789115645	47	127
266.54108843537415	267.504716553288	76	127
266.54108843537415	266.81972789115645	59	127
266.54108843537415	267.504716553288	88	127
266.81972789115645	266.98226757369616	44	127
266.81972789115645	266.98226757369616	56	127
266.99387755102043	267.3770068027211	57	127
266.99387755102043	267.3770068027211	45	127
267.504716553288	267.67886621315193	86	127
267.504716553288	267.67886621315193	74	127
267.67886621315193	267.85301587301586	85	127
267.67886621315193	267.85301587301586	73	127
267.85301587301586	268.02714285714285	83	127
267.85301587301586	268.02714285714285	71	127
268.03877551020406	268.21292517006805	80	127
268.03877551020406	268.21292517006805	68	127
268.2245351473923	268.5147845804989	81	127
268.2245351473923	268.43349206349205	62	127
268.2245351473923	268.43349206349205	59	127
268.2245351473923	268.5147845804989	69	127
268.43349206349205	268.6424716553288	59	127
268.43349206349205	268.6424716553288	56	127
268.6424716553288	268.9675736961451	61	127
268.6424716553288	268.9675736961451	57	127
269.1997732426304	269.44358276643993	71	127
269.1997732426304	269.44358276643993	62	127
269.1997732426304	269.44358276643993	56	127
269.1997732426304	269.55965986394557	52	127
269.4551927437642	269.75705215419504	68	127
269.4551927437642	269.75705215419504	64	127
269.4551927437642	269.75705215419504	59	127
269.75705215419504	270.22145124716553	69	127
269.75705215419504	270.22145124716553	61	127
269.75705215419504	270.22145124716553	57	127
269.75705215419504	270.22145124716553	45	127
271.4172789115646	271.70750566893423	85	127
271.70750566893423	272.8685260770975	69	127
272.48539682539683	272.8685260770975	88	127
272.8685260770975	274.3197732426304	69	127
273.95984126984126	274.3197732426304	93	127
273.95984126984126	274.1340136054422	57	127
274.1340136054422	274.3197732426304	61	127
274.3197732426304	274.51714285714286	64	127
274.3197732426304	284.72231292517006	69	127
274.5287528344671	274.7145124716553	69	127
274.7145124716553	274.9467120181406	73	127
274.9467120181406	275.1324716553288	76	127
275.14408163265307	275.5039909297052	88	127
275.14408163265307	275.30662131519273	73	127
275.30662131519273	275.5039909297052	81	127
275.5039909297052	275.9451700680272	90	127
275.5039909297052	275.6781405895692	74	127
275.68975056689345	275.9451700680272	81	127
275.9451700680272	276.28185941043085	88	127
275.9451700680272	276.1076870748299	73	127
276.1076870748299	276.28185941043085	81	127
276.2934693877551	276.6185260770975	86	127
276.2934693877551	276.4560090702948	71	127
276.4560090702948	276.6185260770975	81	127
276.6185260770975	276.83913832199545	73	127
276.6185260770975	277.37319727891156	88	127
276.8507482993197	277.0365079365079	81	127
277.0365079365079	277.19904761904763	71	127
277.19904761904763	277.37319727891156	81	127
277.37319727891156	277.87242630385487	85	127
277.37319727891156	277.69827664399094	69	127
277.69827664399094	277.87242630385487	81	127
277.88403628117914	278.2439455782313	86	127
277.88403628117914	278.0814058956916	71	127
278.0814058956916	278.2439455782313	81	127
278.2439455782313	278.6502947845805	85	127
278.2439455782313	278.47614512471654	69	127
278.4877551020408	278.6502947845805	81	127
278.6502947845805	278.96374149659863	86	127
278.6502947845805	278.8128344671202	71	127
278.8128344671202	278.96374149659863	81	127
278.9753514739229	279.13791383219956	71	127
278.9753514739229	279.13791383219956	85	127
279.13791383219956	279.32367346938776	81	127
279.13791383219956	279.32367346938776	86	127
279.32367346938776	279.4861904761905	73	127
279.32367346938776	279.7184126984127	88	127
279.4978231292517	279.7184126984127	81	127
279.7184126984127	280.0783219954649	88	127
279.7184126984127	279.9041723356009	74	127
279.9041723356009	280.0783219954649	73	127
280.0783219954649	280.24086167800453	74	127
280.0783219954649	280.5078684807256	90	127
280.24086167800453	280.5078684807256	81	127
280.51950113378683	280.90263038548756	88	127
280.51950113378683	280.74009070294784	73	127
280.74009070294784	280.90263038548756	81	127
280.90263038548756	281.2973696145125	86	127
280.90263038548756	281.0767800453515	71	127
281.08839002267575	281.2973696145125	81	127
281.2973696145125	281.4831292517007	73	127
281.2973696145125	282.02879818594107	88	127
281.4831292517007	281.64566893424035	81	127
281.6572789115646	281.8430385487528	71	127
281.8430385487528	282.02879818594107	81	127
282.02879818594107	282.40031746031747	85	127
282.02879818594107	282.21455782312927	69	127
282.22616780045354	282.40031746031747	81	127
282.40031746031747	282.6673469387755	71	127
282.40031746031747	282.8298866213152	86	127
282.6673469387755	282.8298866213152	81	127
282.8414965986395	283.0156462585034	69	127
282.8414965986395	283.17818594104307	85	127
283.0156462585034	283.17818594104307	81	127
283.18979591836734	283.37555555555554	78	127
283.18979591836734	283.37555555555554	86	127
283.37555555555554	283.6077551020408	90	127
283.37555555555554	283.6077551020408	74	127
283.6077551020408	284.26952380952383	85	127
283.6077551020408	283.7702721088435	76	127
283.78190476190474	283.94444444444446	78	127
283.94444444444446	284.1069841269841	76	127
284.1069841269841	284.26952380952383	73	127
284.2811111111111	284.72231292517006	85	127
284.2811111111111	284.54816326530613	69	127
284.54816326530613	284.72231292517006	73	127
284.72231292517006	285.8717006802721	69	127
284.72231292517006	284.89643990929704	76	127
284.90807256235826	285.08222222222224	81	127
285.08222222222224	285.2447619047619	85	127
285.2447619047619	285.5234013605442	88	127
285.53501133786847	285.70916099773245	57	127
285.53501133786847	285.70916099773245	76	127
285.53501133786847	285.8717006802721	88	127
285.70916099773245	285.8717006802721	81	127
285.70916099773245	285.8717006802721	61	127
285.8717006802721	286.1039002267574	64	127
285.8717006802721	287.102358276644	69	127
285.8717006802721	286.1039002267574	76	127
286.1039002267574	286.3825396825397	69	127
286.1039002267574	286.3825396825397	85	127
286.3825396825397	286.54507936507935	73	127
286.3825396825397	286.54507936507935	76	127
286.5566893424036	286.74242630385487	85	127
286.5566893424036	286.74242630385487	76	127
286.74242630385487	287.102358276644	93	127
286.74242630385487	297.0869387755102	57	127
286.74242630385487	286.93979591836734	76	127
286.74242630385487	286.93979591836734	45	127
286.93979591836734	287.102358276644	49	127
286.93979591836734	287.102358276644	81	127
287.11396825396827	287.4158276643991	52	127
287.11396825396827	297.0869387755102	69	127
287.11396825396827	287.4158276643991	76	127
287.4158276643991	287.6480272108844	57	127
287.4158276643991	287.6480272108844	85	127
287.6480272108844	287.8221768707483	76	127
287.6480272108844	287.8221768707483	61	127
287.8337868480726	288.0079365079365	64	127
287.8337868480726	288.0079365079365	73	127
288.0079365079365	288.3678458049887	88	127
288.0079365079365	297.0869387755102	45	127
288.0079365079365	288.205306122449	73	127
288.205306122449	288.3678458049887	81	127
288.37943310657596	288.8322448979592	90	127
288.37943310657596	288.56521541950116	74	127
288.56521541950116	288.8322448979592	81	127
288.8322448979592	289.0063945578231	73	127
288.8322448979592	289.1805442176871	88	127
289.0063945578231	289.1805442176871	81	127
289.1805442176871	289.52884353741496	86	127
289.1805442176871	289.35469387755103	71	127
289.3663038548753	289.52884353741496	81	127
289.52884353741496	290.237052154195	88	127
289.52884353741496	289.71460317460316	73	127
289.71460317460316	289.87714285714287	81	127
289.88875283446714	290.06290249433107	71	127
290.06290249433107	290.237052154195	81	127
290.237052154195	290.66662131519274	85	127
290.237052154195	290.3995918367347	69	127
290.411201814059	290.66662131519274	81	127
290.66662131519274	291.0265306122449	86	127
290.66662131519274	290.85238095238094	71	127
290.85238095238094	291.0265306122449	81	127
291.0381179138322	291.3748299319728	85	127
291.0381179138322	291.20068027210885	69	127
291.20068027210885	291.3748299319728	81	127
291.3748299319728	291.781179138322	86	127
291.3748299319728	291.5373696145125	71	127
291.54895691609977	291.781179138322	81	127
291.781179138322	291.9437188208617	85	127
291.781179138322	291.9437188208617	71	127
291.97854875283446	292.15267573696144	81	127
291.97854875283446	292.15267573696144	86	127
292.15267573696144	292.5358276643991	88	127
292.15267573696144	292.3732879818594	73	127
292.3732879818594	292.5358276643991	81	127
292.5474376417234	292.9537868480726	88	127
292.5474376417234	292.7331972789116	74	127
292.7331972789116	292.9537868480726	73	127
292.9537868480726	293.325306122449	90	127
292.9537868480726	293.11632653061224	74	127
293.1279365079365	293.325306122449	81	127
293.325306122449	293.5342857142857	73	127
293.325306122449	293.7200453514739	88	127
293.5342857142857	293.7200453514739	81	127
293.7316553287982	294.0683446712018	86	127
293.7316553287982	293.9058049886621	71	127
293.9058049886621	294.0683446712018	81	127
294.0683446712018	294.83460317460316	88	127
294.0683446712018	294.2308843537415	73	127
294.24249433106576	294.4398639455782	81	127
294.4398639455782	294.6372335600907	71	127
294.6372335600907	294.83460317460316	81	127
294.83460317460316	294.9971428571429	69	127
294.83460317460316	295.15968253968254	85	127
294.9971428571429	295.15968253968254	81	127
295.1712925170068	295.41510204081635	71	127
295.1712925170068	295.63566893424036	86	127
295.41510204081635	295.63566893424036	81	127
295.63566893424036	295.798231292517	69	127
295.63566893424036	295.9491609977324	85	127
295.8098412698413	295.9491609977324	81	127
295.9491609977324	296.13492063492066	78	127
295.9491609977324	296.13492063492066	86	127
296.13492063492066	296.3671201814059	90	127
296.13492063492066	296.3671201814059	74	127
296.37873015873015	297.0869387755102	85	127
296.37873015873015	296.56448979591835	76	127
296.56448979591835	296.73863945578233	69	127
296.73863945578233	296.91278911564626	71	127
296.91278911564626	297.0869387755102	73	127
297.0869387755102	297.2959183673469	73	127
297.0869387755102	297.3539682539683	68	127
297.0869387755102	297.3539682539683	71	127
297.0869387755102	297.3539682539683	53	127
297.2959183673469	297.4816780045351	72	127
297.4816780045351	297.73709750566894	68	127
297.4816780045351	297.67902494331065	73	127
297.4816780045351	297.73709750566894	61	127
297.4816780045351	297.73709750566894	53	127
297.67902494331065	297.8415873015873	71	127
297.9925170068027	298.1666666666667	69	127
297.9925170068027	298.224716553288	61	127
297.9925170068027	298.224716553288	68	127
297.9925170068027	298.224716553288	53	127
298.1666666666667	298.32920634920634	68	127
298.32920634920634	298.50333333333333	78	127
298.32920634920634	298.5614058956916	61	127
298.32920634920634	298.5614058956916	69	127
298.32920634920634	298.5614058956916	54	127
298.51496598639454	298.67750566893426	77	127
298.67750566893426	298.86326530612246	78	127
298.67750566893426	298.9793650793651	61	127
298.67750566893426	298.9793650793651	69	127
298.67750566893426	298.9793650793651	54	127
298.86326530612246	299.08385487528346	80	127
299.09546485260773	299.28122448979593	81	127
299.09546485260773	299.3392743764172	61	127
299.09546485260773	299.3392743764172	69	127
299.09546485260773	299.3392743764172	54	127
299.28122448979593	299.4437641723356	78	127
299.4437641723356	299.68757369614514	66	127
299.4437641723356	299.6178911564626	71	127
299.4437641723356	299.68757369614514	59	127
299.4437641723356	299.68757369614514	51	127
299.6295238095238	299.7920634920635	70	127
299.7920634920635	300.1171428571429	59	127
299.7920634920635	300.1171428571429	66	127
299.7920634920635	300.04748299319726	71	127
299.7920634920635	300.1171428571429	51	127
300.04748299319726	300.2332199546485	69	127
300.2332199546485	300.45383219954647	68	127
300.2332199546485	300.5118820861678	59	127
300.2332199546485	300.5118820861678	66	127
300.2332199546485	300.5118820861678	51	127
300.45383219954647	300.6163718820862	66	127
300.62798185941045	300.87179138321994	76	127
300.62798185941045	300.95303854875283	59	127
300.62798185941045	300.95303854875283	68	127
300.62798185941045	300.95303854875283	52	127
300.87179138321994	301.0575283446712	75	127
301.0575283446712	301.22009070294786	76	127
301.0575283446712	301.27814058956915	59	127
301.0575283446712	301.27814058956915	68	127
301.0575283446712	301.27814058956915	52	127
301.2317006802721	301.40585034013606	78	127
301.40585034013606	301.58	80	127
301.40585034013606	301.6496598639456	59	127
301.40585034013606	301.6496598639456	68	127
301.40585034013606	301.6496598639456	52	127
301.58	301.77736961451245	76	127
301.82380952380953	301.99795918367346	81	127
301.82380952380953	302.0560090702948	59	127
301.82380952380953	302.0560090702948	69	127
301.82380952380953	302.0560090702948	54	127
301.99795918367346	302.1604988662132	80	127
302.1604988662132	302.3694784580499	81	127
302.1604988662132	302.4391383219955	59	127
302.1604988662132	302.4391383219955	69	127
302.1604988662132	302.4391383219955	54	127
302.3810657596372	302.57845804988665	80	127
302.57845804988665	302.7990476190476	81	127
302.57845804988665	302.85709750566895	59	127
302.57845804988665	302.85709750566895	69	127
302.57845804988665	302.85709750566895	54	127
302.7990476190476	302.9615873015873	83	127
302.9731972789116	303.1821768707483	85	127
302.9731972789116	303.2402267573696	59	127
302.9731972789116	303.2402267573696	69	127
302.9731972789116	303.2402267573696	54	127
303.1821768707483	303.344716553288	87	127
303.344716553288	303.5536961451247	88	127
303.344716553288	303.61172335600907	59	127
303.344716553288	303.61172335600907	64	127
303.344716553288	303.61172335600907	56	127
303.5536961451247	303.71621315192743	87	127
303.71621315192743	303.9368253968254	88	127
303.71621315192743	304.04131519274375	64	127
303.71621315192743	304.04131519274375	71	127
303.71621315192743	304.04131519274375	56	127
303.94843537414965	304.16902494331066	83	127
304.16902494331066	304.3431746031746	85	127
304.16902494331066	304.40122448979594	66	127
304.16902494331066	304.40122448979594	73	127
304.16902494331066	304.40122448979594	57	127
304.3431746031746	304.5057142857143	81	127
304.52891156462584	304.7959637188209	80	127
304.52891156462584	304.85401360544216	64	127
304.52891156462584	304.85401360544216	71	127
304.52891156462584	304.85401360544216	59	127
304.7959637188209	304.9701133786848	79	127
304.9701133786848	305.1326530612245	80	127
304.9701133786848	305.1907029478458	64	127
304.9701133786848	305.1907029478458	76	127
304.9701133786848	305.1907029478458	59	127
305.1442403628118	305.30680272108845	83	127
305.30680272108845	305.4693424036281	81	127
305.30680272108845	305.52739229024945	66	127
305.30680272108845	305.52739229024945	75	127
305.30680272108845	305.52739229024945	47	127
305.4693424036281	305.6434920634921	78	127
305.65507936507936	305.8640589569161	76	127
305.65507936507936	305.8640589569161	64	127
305.65507936507936	305.93374149659866	68	127
305.65507936507936	305.93374149659866	76	127
305.65507936507936	305.93374149659866	52	127
305.8640589569161	306.038231292517	80	127
305.8640589569161	306.038231292517	68	127
306.038231292517	306.2820408163265	52	127
306.038231292517	306.21238095238095	81	127
306.038231292517	306.21238095238095	69	127
306.038231292517	306.2820408163265	56	127
306.21238095238095	306.39814058956915	83	127
306.21238095238095	306.39814058956915	71	127
306.39814058956915	306.61873015873016	73	127
306.39814058956915	306.6767573696145	61	127
306.39814058956915	306.6767573696145	68	127
306.39814058956915	306.6767573696145	56	127
306.39814058956915	306.6767573696145	53	127
306.63034013605443	306.920589569161	72	127
306.920589569161	307.1992290249433	73	127
306.920589569161	307.25727891156464	61	127
306.920589569161	307.25727891156464	68	127
306.920589569161	307.25727891156464	56	127
306.920589569161	307.25727891156464	53	127
307.1992290249433	307.361768707483	71	127
307.3733786848073	307.53591836734694	69	127
307.3733786848073	307.5939455782313	61	127
307.3733786848073	307.5939455782313	68	127
307.3733786848073	307.5939455782313	56	127
307.3733786848073	307.5939455782313	53	127
307.53591836734694	307.69843537414965	68	127
307.69843537414965	307.9306575963719	78	127
307.69843537414965	307.9306575963719	66	127
307.69843537414965	307.9887074829932	61	127
307.69843537414965	307.9887074829932	66	127
307.69843537414965	307.9887074829932	57	127
307.94226757369614	308.10478458049886	77	127
307.94226757369614	308.10478458049886	65	127
308.10478458049886	308.3021768707483	78	127
308.10478458049886	308.3021768707483	66	127
308.10478458049886	308.3602267573696	61	127
308.10478458049886	308.3602267573696	66	127
308.10478458049886	308.3602267573696	57	127
308.3021768707483	308.4879365079365	80	127
308.3021768707483	308.4879365079365	68	127
308.4995464852608	308.6736961451247	81	127
308.4995464852608	308.6736961451247	69	127
308.4995464852608	308.731746031746	61	127
308.4995464852608	308.731746031746	66	127
308.4995464852608	308.731746031746	57	127
308.6736961451247	308.8362358276644	78	127
308.6736961451247	308.8362358276644	66	127
308.8362358276644	309.01038548752837	71	127
308.8362358276644	309.0916553287982	59	127
308.8362358276644	309.0916553287982	66	127
308.8362358276644	309.0916553287982	51	127
309.01038548752837	309.2193650793651	70	127
309.2193650793651	309.50961451247167	71	127
309.2193650793651	309.57927437641723	59	127
309.2193650793651	309.57927437641723	66	127
309.2193650793651	309.57927437641723	51	127
309.52122448979594	309.7302040816327	69	127
309.7302040816327	309.9159637188209	68	127
309.7302040816327	309.98562358276644	59	127
309.7302040816327	309.98562358276644	66	127
309.7302040816327	309.98562358276644	51	127
309.9159637188209	310.1017233560091	66	127
310.11333333333334	310.3107029478458	76	127
310.11333333333334	310.3107029478458	64	127
310.11333333333334	310.3803628117914	59	127
310.11333333333334	310.3803628117914	56	127
310.3107029478458	310.496462585034	75	127
310.3107029478458	310.496462585034	63	127
310.496462585034	310.70544217687075	76	127
310.496462585034	310.70544217687075	64	127
310.496462585034	310.7634693877551	59	127
310.496462585034	310.7634693877551	56	127
310.717052154195	310.8795918367347	78	127
310.717052154195	310.8795918367347	66	127
310.8795918367347	311.06535147392293	80	127
310.8795918367347	311.06535147392293	68	127
310.8795918367347	311.1234013605442	71	127
310.8795918367347	311.1234013605442	52	127
311.06535147392293	311.2278911564626	76	127
311.06535147392293	311.2278911564626	64	127
311.23950113378686	311.4368707482993	78	127
311.23950113378686	311.4368707482993	66	127
311.23950113378686	311.4949206349206	61	127
311.23950113378686	311.4949206349206	45	127
311.4368707482993	311.61102040816326	77	127
311.4368707482993	311.61102040816326	65	127
311.61102040816326	311.83160997732426	78	127
311.61102040816326	311.83160997732426	66	127
311.61102040816326	311.9012698412698	61	127
311.61102040816326	311.9012698412698	58	127
311.84321995464853	312.01736961451246	76	127
311.84321995464853	312.01736961451246	64	127
312.01736961451246	312.2031065759637	62	127
312.01736961451246	312.2031065759637	74	127
312.01736961451246	312.261179138322	66	127
312.01736961451246	312.261179138322	61	127
312.01736961451246	312.261179138322	58	127
312.2031065759637	312.481768707483	61	127
312.2031065759637	312.481768707483	73	127
312.481768707483	312.6443083900227	71	127
312.481768707483	312.6443083900227	59	127
312.6443083900227	312.8184580498866	70	127
312.6443083900227	312.8184580498866	58	127
312.83006802721087	313.0390476190476	71	127
312.83006802721087	313.0390476190476	59	127
313.0390476190476	313.2596371882086	73	127
313.0390476190476	313.2596371882086	61	127
313.2596371882086	313.4453968253968	74	127
313.2596371882086	313.4453968253968	62	127
313.4570068027211	313.65437641723355	59	127
313.4570068027211	313.65437641723355	71	127
313.65437641723355	313.851746031746	76	127
313.65437641723355	313.851746031746	64	127
313.65437641723355	313.90979591836737	59	127
313.65437641723355	313.90979591836737	44	127
313.851746031746	314.01428571428573	75	127
313.851746031746	314.01428571428573	63	127
314.02589569161	314.18843537414966	76	127
314.02589569161	314.18843537414966	64	127
314.02589569161	314.246462585034	59	127
314.02589569161	314.246462585034	56	127
314.18843537414966	314.3625850340136	74	127
314.18843537414966	314.3625850340136	62	127
314.3625850340136	314.6528117913832	56	127
314.3625850340136	314.5831746031746	73	127
314.3625850340136	314.5831746031746	61	127
314.3625850340136	314.6528117913832	64	127
314.3625850340136	314.6528117913832	59	127
314.59478458049887	314.8037641723356	59	127
314.59478458049887	314.8037641723356	71	127
314.8037641723356	315.0011337868481	69	127
314.8037641723356	315.0011337868481	57	127
315.0011337868481	315.23333333333335	68	127
315.0011337868481	315.23333333333335	56	127
315.23333333333335	315.41909297052155	57	127
315.23333333333335	315.41909297052155	69	127
315.41909297052155	315.5816326530612	71	127
315.41909297052155	315.5816326530612	59	127
315.5932426303855	315.76739229024946	73	127
315.5932426303855	315.76739229024946	61	127
315.76739229024946	316.01120181405895	69	127
315.76739229024946	316.01120181405895	57	127
316.01120181405895	316.23179138321996	64	127
316.01120181405895	316.17374149659867	52	127
316.01120181405895	316.23179138321996	71	127
316.01120181405895	316.23179138321996	83	127
316.01120181405895	316.23179138321996	68	127
316.18532879818594	316.3478911564626	56	127
316.3478911564626	316.6265306122449	83	127
316.3478911564626	316.5336507936508	59	127
316.3478911564626	316.6265306122449	71	127
316.3478911564626	316.6265306122449	68	127
316.3478911564626	316.6265306122449	64	127
316.5336507936508	316.73102040816326	64	127
316.74263038548753	316.91678004535146	68	127
316.74263038548753	316.99802721088435	71	127
316.74263038548753	316.99802721088435	83	127
316.74263038548753	316.99802721088435	68	127
316.74263038548753	316.99802721088435	64	127
316.91678004535146	317.1141496598639	71	127
317.1141496598639	317.3927891156463	63	127
317.1141496598639	317.2882993197279	69	127
317.1141496598639	317.3927891156463	71	127
317.1141496598639	317.3927891156463	83	127
317.1141496598639	317.3927891156463	66	127
317.2999092970522	317.49727891156465	66	127
317.49727891156465	317.68303854875285	63	127
317.49727891156465	317.74108843537414	71	127
317.49727891156465	317.74108843537414	83	127
317.49727891156465	317.74108843537414	63	127
317.49727891156465	317.74108843537414	66	127
317.68303854875285	317.86879818594105	59	127
317.86879818594105	318.0661678004535	57	127
317.86879818594105	318.12419501133786	71	127
317.86879818594105	318.12419501133786	83	127
317.86879818594105	318.12419501133786	66	127
317.86879818594105	318.12419501133786	63	127
318.0661678004535	318.22868480725623	54	127
318.24031746031744	318.40285714285716	56	127
318.24031746031744	318.46090702947845	71	127
318.24031746031744	318.46090702947845	83	127
318.24031746031744	318.46090702947845	68	127
318.24031746031744	318.46090702947845	64	127
318.40285714285716	318.5653968253968	59	127
318.5653968253968	318.971746031746	64	127
318.5653968253968	318.91369614512473	57	127
318.5653968253968	318.971746031746	71	127
318.5653968253968	318.971746031746	83	127
318.5653968253968	318.971746031746	68	127
318.925306122449	319.08784580498866	56	127
319.08784580498866	319.3432653061225	64	127
319.08784580498866	319.2852154195011	54	127
319.08784580498866	319.3432653061225	71	127
319.08784580498866	319.3432653061225	83	127
319.08784580498866	319.3432653061225	68	127
319.2852154195011	319.44775510204084	52	127
319.4593424036281	319.81927437641724	59	127
319.4593424036281	319.76120181405895	68	127
319.4593424036281	319.81927437641724	71	127
319.4593424036281	319.81927437641724	83	127
319.4593424036281	319.81927437641724	63	127
319.76120181405895	319.9237641723356	66	127
319.9237641723356	320.1443537414966	59	127
319.9237641723356	320.08630385487527	64	127
319.9237641723356	320.1443537414966	71	127
319.9237641723356	320.1443537414966	83	127
319.9237641723356	320.1443537414966	66	127
320.09791383219954	320.2720408163265	63	127
320.2720408163265	320.5623129251701	59	127
320.2720408163265	320.4926530612245	61	127
320.2720408163265	320.5623129251701	71	127
320.2720408163265	320.5623129251701	83	127
320.2720408163265	320.5623129251701	66	127
320.4926530612245	320.6783900226757	59	127
320.69002267573694	320.8757823129252	52	127
320.69002267573694	320.9338321995465	71	127
320.69002267573694	320.9338321995465	83	127
320.69002267573694	320.9338321995465	68	127
320.69002267573694	320.9338321995465	64	127
320.8757823129252	321.03832199546486	56	127
321.03832199546486	321.35179138321996	64	127
321.03832199546486	321.2821315192744	59	127
321.03832199546486	321.35179138321996	71	127
321.03832199546486	321.35179138321996	83	127
321.03832199546486	321.35179138321996	68	127
321.2821315192744	321.47950113378687	64	127
321.47950113378687	321.6536507936508	68	127
321.47950113378687	321.7117006802721	71	127
321.47950113378687	321.7117006802721	83	127
321.47950113378687	321.7117006802721	68	127
321.47950113378687	321.7117006802721	64	127
321.66526077097507	321.8278004535147	71	127
321.8278004535147	322.0019501133787	69	127
321.8278004535147	322.06	71	127
321.8278004535147	322.06	83	127
321.8278004535147	322.06	66	127
321.8278004535147	322.06	63	127
322.0019501133787	322.1877097505669	66	127
322.1993197278912	322.4779591836735	63	127
322.1993197278912	322.3734693877551	63	127
322.1993197278912	322.4779591836735	71	127
322.1993197278912	322.4779591836735	83	127
322.1993197278912	322.4779591836735	66	127
322.3734693877551	322.58244897959185	59	127
322.58244897959185	322.7449886621315	57	127
322.58244897959185	322.80303854875285	63	127
322.58244897959185	322.80303854875285	71	127
322.58244897959185	322.80303854875285	83	127
322.58244897959185	322.80303854875285	66	127
322.7565986394558	322.9771882086168	54	127
322.9771882086168	323.20938775510206	83	127
322.9771882086168	323.1397052154195	56	127
322.9771882086168	323.20938775510206	71	127
322.9771882086168	323.20938775510206	68	127
322.9771882086168	323.20938775510206	64	127
323.1397052154195	323.3138775510204	59	127
323.3254875283447	323.6970068027211	57	127
323.3254875283447	323.75503401360544	71	127
323.3254875283447	323.75503401360544	83	127
323.3254875283447	323.75503401360544	68	127
323.3254875283447	323.75503401360544	64	127
323.6970068027211	323.871156462585	56	127
323.871156462585	324.1497959183674	64	127
323.871156462585	324.091746031746	54	127
323.871156462585	324.1497959183674	71	127
323.871156462585	324.1497959183674	83	127
323.871156462585	324.1497959183674	68	127
324.091746031746	324.2775056689342	52	127
324.2775056689342	324.4516553287982	68	127
324.2775056689342	324.5097052154195	71	127
324.2775056689342	324.5097052154195	83	127
324.2775056689342	324.5097052154195	63	127
324.2775056689342	324.5097052154195	59	127
324.4632426303855	324.62580498866214	66	127
324.62580498866214	324.7883446712018	64	127
324.62580498866214	324.84639455782315	71	127
324.62580498866214	324.84639455782315	83	127
324.62580498866214	324.84639455782315	66	127
324.62580498866214	324.84639455782315	59	127
324.7883446712018	324.9508843537415	63	127
324.9624943310658	325.194693877551	59	127
324.9624943310658	325.12503401360544	61	127
324.9624943310658	325.194693877551	71	127
324.9624943310658	325.194693877551	83	127
324.9624943310658	325.194693877551	66	127
325.12503401360544	325.2991836734694	59	127
325.2991836734694	325.6010430839002	65	127
325.2991836734694	325.4849206349206	73	127
325.2991836734694	325.6010430839002	80	127
325.2991836734694	325.6010430839002	68	127
325.49655328798184	325.7403628117914	72	127
325.7403628117914	325.9028798185941	73	127
325.7403628117914	325.9957596371882	80	127
325.7403628117914	325.9957596371882	68	127
325.7403628117914	325.9957596371882	65	127
325.9028798185941	326.12349206349205	71	127
326.1351020408163	326.3092290249433	69	127
326.1351020408163	326.3673015873016	80	127
326.1351020408163	326.3673015873016	68	127
326.1351020408163	326.3673015873016	65	127
326.3092290249433	326.47179138321997	68	127
326.47179138321997	326.7155782312925	85	127
326.47179138321997	326.6459410430839	78	127
326.47179138321997	326.6459410430839	66	127
326.47179138321997	326.7155782312925	69	127
326.65755102040816	326.8200680272109	77	127
326.65755102040816	326.8200680272109	65	127
326.8200680272109	327.13356009070293	85	127
326.8200680272109	327.06390022675737	78	127
326.8200680272109	327.06390022675737	66	127
326.8200680272109	327.13356009070293	69	127
327.07551020408164	327.2728798185941	80	127
327.07551020408164	327.2728798185941	68	127
327.2728798185941	327.4934693877551	85	127
327.2728798185941	327.4353968253968	81	127
327.2728798185941	327.4353968253968	69	127
327.2728798185941	327.4934693877551	69	127
327.4353968253968	327.5979591836735	78	127
327.4353968253968	327.5979591836735	68	127
327.60956916099775	327.8765986394558	63	127
327.60956916099775	327.8185487528345	71	127
327.60956916099775	327.8765986394558	78	127
327.8185487528345	328.0507482993197	70	127
328.0507482993197	328.3177777777778	63	127
328.0507482993197	328.25972789115644	71	127
328.0507482993197	328.3177777777778	78	127
328.2713378684807	328.4454875283447	69	127
328.4454875283447	328.66607709750565	63	127
328.4454875283447	328.60802721088436	68	127
328.4454875283447	328.66607709750565	78	127
328.60802721088436	328.770566893424	66	127
328.7821768707483	329.0375963718821	64	127
328.7821768707483	329.0956462585034	68	127
328.7821768707483	329.0375963718821	76	127
328.7821768707483	329.0956462585034	83	127
329.0375963718821	329.20013605442176	75	127
329.0375963718821	329.20013605442176	63	127
329.20013605442176	329.43233560090704	76	127
329.20013605442176	329.43233560090704	64	127
329.20013605442176	329.5019954648526	83	127
329.20013605442176	329.5019954648526	68	127
329.4439455782313	329.60648526077097	66	127
329.4439455782313	329.60648526077097	78	127
329.60648526077097	329.8502947845805	83	127
329.60648526077097	329.79224489795916	80	127
329.60648526077097	329.79224489795916	68	127
329.60648526077097	329.8502947845805	68	127
329.79224489795916	330.0012244897959	76	127
329.79224489795916	330.0012244897959	66	127
330.0012244897959	330.3495238095238	66	127
330.0012244897959	330.2914512471655	69	127
330.0012244897959	330.3495238095238	71	127
330.0012244897959	330.3495238095238	83	127
330.2914512471655	330.4540136054422	68	127
330.46562358276645	330.7326530612245	66	127
330.46562358276645	330.6746031746032	69	127
330.46562358276645	330.7326530612245	71	127
330.46562358276645	330.7326530612245	83	127
330.6746031746032	330.8487528344671	71	127
330.8487528344671	331.0693424036281	66	127
330.8487528344671	331.01126984126984	73	127
330.8487528344671	331.0693424036281	71	127
330.8487528344671	331.0693424036281	83	127
330.8487528344671	331.0693424036281	69	127
331.02290249433105	331.2202721088435	75	127
331.2202721088435	331.4524716553288	66	127
331.2202721088435	331.3944217687075	76	127
331.2202721088435	331.4524716553288	71	127
331.2202721088435	331.4524716553288	83	127
331.2202721088435	331.4524716553288	69	127
331.3944217687075	331.5801814058957	75	127
331.59179138321997	331.84721088435373	68	127
331.59179138321997	331.78916099773244	76	127
331.59179138321997	331.84721088435373	71	127
331.59179138321997	331.84721088435373	83	127
331.78916099773244	331.9517006802721	75	127
331.9517006802721	332.2071201814059	71	127
331.9517006802721	332.1258503401361	76	127
331.9517006802721	332.2071201814059	76	127
331.9517006802721	332.2071201814059	56	127
332.13743764172335	332.34643990929703	71	127
332.34643990929703	332.60185941043085	73	127
332.34643990929703	332.65990929705214	76	127
332.34643990929703	332.65990929705214	57	127
332.34643990929703	332.65990929705214	61	127
332.34643990929703	332.65990929705214	64	127
332.60185941043085	332.8108390022676	69	127
332.8108390022676	333.0778684807256	59	127
332.8108390022676	333.0198185941043	68	127
332.8108390022676	333.0778684807256	76	127
332.8108390022676	333.0778684807256	59	127
332.8108390022676	333.0778684807256	64	127
333.0198185941043	333.182358276644	67	127
333.19396825396825	333.46097505668934	59	127
333.19396825396825	333.402947845805	68	127
333.19396825396825	333.46097505668934	76	127
333.19396825396825	333.46097505668934	59	127
333.19396825396825	333.46097505668934	64	127
333.402947845805	333.5654648526077	71	127
333.5654648526077	333.78607709750565	75	127
333.5654648526077	333.72802721088436	69	127
333.5654648526077	333.78607709750565	57	127
333.5654648526077	333.78607709750565	66	127
333.5654648526077	333.78607709750565	59	127
333.73963718820863	333.92539682539683	66	127
333.92539682539683	334.0879365079365	64	127
333.92539682539683	334.14598639455784	76	127
333.92539682539683	334.14598639455784	56	127
333.92539682539683	334.14598639455784	52	127
334.0879365079365	334.33174603174604	63	127
334.3433560090703	334.58714285714285	59	127
334.3433560090703	334.5291156462585	76	127
334.3433560090703	334.5291156462585	64	127
334.3433560090703	334.58714285714285	44	127
334.5291156462585	334.70326530612243	77	127
334.5291156462585	334.70326530612243	65	127
334.70326530612243	334.9702947845805	46	127
334.70326530612243	334.8774149659864	78	127
334.70326530612243	334.8774149659864	66	127
334.70326530612243	334.9702947845805	61	127
334.8890022675737	335.17927437641725	77	127
334.8890022675737	335.17927437641725	65	127
335.17927437641725	335.388253968254	66	127
335.17927437641725	335.388253968254	78	127
335.17927437641725	335.4463038548753	73	127
335.17927437641725	335.4463038548753	58	127
335.388253968254	335.5624036281179	76	127
335.388253968254	335.5624036281179	64	127
335.5740136054422	335.7946031746032	58	127
335.5740136054422	335.73655328798185	74	127
335.5740136054422	335.73655328798185	62	127
335.5740136054422	335.7946031746032	73	127
335.73655328798185	335.89909297052156	73	127
335.73655328798185	335.89909297052156	61	127
335.91068027210883	336.18934240362813	62	127
335.91068027210883	336.1312925170068	71	127
335.91068027210883	336.18934240362813	66	127
336.1312925170068	336.40993197278914	70	127
336.40993197278914	336.6537414965986	62	127
336.40993197278914	336.59569160997734	71	127
336.40993197278914	336.6537414965986	66	127
336.6073015873016	336.78145124716553	73	127
336.78145124716553	337.00204081632654	66	127
336.78145124716553	336.94396825396825	74	127
336.78145124716553	337.00204081632654	62	127
336.94396825396825	337.1065306122449	71	127
337.1181405895692	337.35031746031746	76	127
337.1181405895692	337.35031746031746	64	127
337.1181405895692	337.40839002267575	59	127
337.1181405895692	337.40839002267575	44	127
337.35031746031746	337.5128798185941	63	127
337.35031746031746	337.5128798185941	75	127
337.5128798185941	337.7334693877551	71	127
337.5128798185941	337.6754195011338	76	127
337.5128798185941	337.6754195011338	64	127
337.5128798185941	337.7334693877551	56	127
337.68702947845804	337.8843990929705	74	127
337.68702947845804	337.8843990929705	62	127
337.8843990929705	338.1165986394558	71	127
337.8843990929705	338.0585260770975	73	127
337.8843990929705	338.0585260770975	61	127
337.8843990929705	338.1165986394558	56	127
338.0585260770975	338.22108843537416	71	127
338.0585260770975	338.22108843537416	59	127
338.2326984126984	338.4881179138322	64	127
338.2326984126984	338.4300680272109	69	127
338.2326984126984	338.4881179138322	61	127
338.4300680272109	338.6158276643991	68	127
338.6158276643991	338.8364172335601	69	127
338.6158276643991	338.8944671201814	64	127
338.6158276643991	338.8944671201814	76	127
338.6158276643991	338.8944671201814	61	127
338.8364172335601	339.010566893424	71	127
339.010566893424	339.23115646258503	61	127
339.010566893424	339.17310657596374	73	127
339.010566893424	339.23115646258503	64	127
339.010566893424	339.23115646258503	76	127
339.184693877551	339.3472562358277	71	127
339.3472562358277	339.6491156462585	57	127
339.3472562358277	339.5678458049887	69	127
339.3472562358277	339.6491156462585	69	127
339.3472562358277	339.6491156462585	76	127
339.3472562358277	339.6491156462585	61	127
339.5678458049887	339.7536054421769	73	127
339.76521541950115	340.07868480725625	57	127
339.76521541950115	340.0206349206349	76	127
339.76521541950115	340.07868480725625	76	127
339.76521541950115	340.07868480725625	69	127
339.76521541950115	340.07868480725625	61	127
340.0206349206349	340.26444444444445	81	127
340.26444444444445	340.4269841269841	85	127
340.26444444444445	340.48503401360546	76	127
340.26444444444445	340.48503401360546	57	127
340.26444444444445	340.48503401360546	69	127
340.26444444444445	340.48503401360546	61	127
340.4385941043084	340.61272108843536	88	127
340.61272108843536	340.8797732426304	52	127
340.61272108843536	340.8217006802721	86	127
340.61272108843536	340.8797732426304	76	127
340.61272108843536	340.8797732426304	68	127
340.61272108843536	340.8797732426304	62	127
340.61272108843536	340.8797732426304	59	127
340.8217006802721	341.03068027210884	83	127
341.04231292517005	341.30934240362814	52	127
341.04231292517005	341.2280498866213	80	127
341.04231292517005	341.30934240362814	76	127
341.04231292517005	341.30934240362814	68	127
341.04231292517005	341.30934240362814	62	127
341.04231292517005	341.30934240362814	59	127
341.2280498866213	341.4138321995465	76	127
341.4138321995465	341.6460090702948	76	127
341.4138321995465	341.58798185941043	74	127
341.4138321995465	341.6460090702948	68	127
341.4138321995465	341.6460090702948	62	127
341.4138321995465	341.6460090702948	59	127
341.4138321995465	341.6460090702948	52	127
341.58798185941043	341.7505215419501	71	127
341.7505215419501	341.93628117913835	73	127
341.7505215419501	342.0059410430839	76	127
341.7505215419501	342.0059410430839	69	127
341.7505215419501	342.0059410430839	52	127
341.7505215419501	342.0059410430839	61	127
341.7505215419501	342.0059410430839	45	127
341.9478684807256	342.15684807256235	76	127
342.15684807256235	342.3890702947846	45	127
342.15684807256235	342.3310204081633	74	127
342.15684807256235	342.3890702947846	76	127
342.15684807256235	342.3890702947846	69	127
342.15684807256235	342.3890702947846	61	127
342.15684807256235	342.3890702947846	52	127
342.3310204081633	342.52839002267575	73	127
342.54	342.760566893424	45	127
342.54	342.7025396825397	71	127
342.54	342.760566893424	76	127
342.54	342.760566893424	69	127
342.54	342.760566893424	61	127
342.54	342.760566893424	52	127
342.7025396825397	342.8650566893424	69	127
342.8650566893424	343.1321088435374	52	127
342.8650566893424	343.06244897959186	73	127
342.8650566893424	343.1321088435374	76	127
342.8650566893424	343.1321088435374	68	127
342.8650566893424	343.1321088435374	59	127
342.8650566893424	343.1321088435374	52	127
343.07403628117913	343.30625850340135	71	127
343.30625850340135	343.52684807256236	52	127
343.30625850340135	343.46879818594107	69	127
343.30625850340135	343.52684807256236	76	127
343.30625850340135	343.52684807256236	68	127
343.30625850340135	343.52684807256236	52	127
343.30625850340135	343.52684807256236	59	127
343.46879818594107	343.6313378684807	68	127
343.6777777777778	343.93319727891156	59	127
343.6777777777778	343.8751473922903	66	127
343.6777777777778	343.93319727891156	76	127
343.6777777777778	343.93319727891156	68	127
343.6777777777778	343.93319727891156	52	127
343.6777777777778	343.93319727891156	52	127
343.8751473922903	344.0492970521542	64	127
344.0492970521542	344.2698866213152	69	127
344.0492970521542	344.33954648526077	76	127
344.0492970521542	344.33954648526077	69	127
344.0492970521542	344.33954648526077	52	127
344.0492970521542	344.33954648526077	61	127
344.0492970521542	344.33954648526077	45	127
344.2814965986395	344.4556462585034	73	127
344.4556462585034	344.72267573696143	45	127
344.4556462585034	344.62979591836734	76	127
344.4556462585034	344.72267573696143	76	127
344.4556462585034	344.72267573696143	69	127
344.4556462585034	344.72267573696143	61	127
344.62979591836734	344.8736054421769	81	127
344.8736054421769	345.1522448979592	61	127
344.8736054421769	345.0825850340136	85	127
344.8736054421769	345.1522448979592	76	127
344.8736054421769	345.1522448979592	69	127
344.8736054421769	345.1522448979592	45	127
345.0825850340136	345.25673469387755	88	127
345.2683446712018	345.5005442176871	68	127
345.2683446712018	345.4308843537415	86	127
345.2683446712018	345.5005442176871	76	127
345.2683446712018	345.5005442176871	40	127
345.2683446712018	345.5005442176871	62	127
345.2683446712018	345.5005442176871	59	127
345.4308843537415	345.61664399092973	83	127
345.61664399092973	345.895283446712	40	127
345.61664399092973	345.83721088435374	80	127
345.61664399092973	345.895283446712	76	127
345.61664399092973	345.895283446712	68	127
345.61664399092973	345.895283446712	62	127
345.61664399092973	345.895283446712	59	127
345.84884353741495	346.0345804988662	76	127
346.0345804988662	346.2668027210884	62	127
346.0345804988662	346.20875283446713	74	127
346.0345804988662	346.2668027210884	76	127
346.0345804988662	346.2668027210884	59	127
346.0345804988662	346.2668027210884	68	127
346.0345804988662	346.2668027210884	40	127
346.20875283446713	346.3712925170068	71	127
346.38290249433106	346.557052154195	73	127
346.38290249433106	346.6267120181406	76	127
346.38290249433106	346.6267120181406	69	127
346.38290249433106	346.6267120181406	52	127
346.38290249433106	346.6267120181406	61	127
346.38290249433106	346.6267120181406	45	127
346.557052154195	346.731201814059	76	127
346.731201814059	346.9169614512472	74	127
346.731201814059	346.998231292517	76	127
346.731201814059	346.998231292517	69	127
346.731201814059	346.998231292517	61	127
346.731201814059	346.998231292517	52	127
346.731201814059	346.998231292517	45	127
346.92857142857144	347.11433106575964	73	127
347.11433106575964	347.3465306122449	45	127
347.11433106575964	347.2884807256236	71	127
347.11433106575964	347.3465306122449	76	127
347.11433106575964	347.3465306122449	69	127
347.11433106575964	347.3465306122449	61	127
347.11433106575964	347.3465306122449	52	127
347.2884807256236	347.46260770975056	69	127
347.46260770975056	347.7528798185941	52	127
347.46260770975056	347.64839002267576	73	127
347.46260770975056	347.7528798185941	76	127
347.46260770975056	347.7528798185941	68	127
347.46260770975056	347.7528798185941	59	127
347.46260770975056	347.7528798185941	52	127
347.64839002267576	347.8573696145125	71	127
347.86897959183676	348.20566893424035	52	127
347.86897959183676	348.14761904761906	69	127
347.86897959183676	348.20566893424035	76	127
347.86897959183676	348.20566893424035	68	127
347.86897959183676	348.20566893424035	52	127
347.86897959183676	348.20566893424035	59	127
348.14761904761906	348.3449886621315	68	127
348.3449886621315	348.6004081632653	52	127
348.3449886621315	348.5307482993197	66	127
348.3449886621315	348.6004081632653	76	127
348.3449886621315	348.6004081632653	68	127
348.3449886621315	348.6004081632653	52	127
348.3449886621315	348.6004081632653	59	127
348.5307482993197	348.75133786848073	64	127
348.75133786848073	348.9951473922903	57	127
348.75133786848073	348.9951473922903	66	127
349.00673469387755	349.19251700680275	56	127
349.00673469387755	349.19251700680275	65	127
349.20410430839	349.37827664399094	54	127
349.20410430839	349.37827664399094	66	127
349.37827664399094	349.5524263038549	56	127
349.37827664399094	349.5524263038549	64	127
349.5524263038549	349.84267573696144	57	127
349.5524263038549	349.84267573696144	62	127
349.8542857142857	350.0400453514739	61	127
349.8542857142857	350.0400453514739	58	127
350.0400453514739	350.2025850340136	66	127
350.0400453514739	350.2025850340136	83	127
350.0400453514739	350.2025850340136	62	127
350.2025850340136	350.37673469387755	64	127
350.2025850340136	350.37673469387755	82	127
350.2025850340136	350.37673469387755	61	127
350.37673469387755	350.53925170068027	66	127
350.37673469387755	350.53925170068027	83	127
350.37673469387755	350.53925170068027	62	127
350.53925170068027	350.7018140589569	64	127
350.53925170068027	350.7018140589569	85	127
350.53925170068027	350.7018140589569	61	127
350.7134240362812	350.87596371882086	62	127
350.7134240362812	350.87596371882086	86	127
350.7134240362812	350.87596371882086	59	127
350.87596371882086	351.1197732426304	66	127
350.87596371882086	351.1197732426304	83	127
350.87596371882086	351.1197732426304	62	127
351.1197732426304	351.28231292517006	76	127
351.1197732426304	351.28231292517006	68	127
351.29392290249433	351.5261224489796	75	127
351.29392290249433	351.5261224489796	66	127
351.5261224489796	351.68866213151927	76	127
351.5261224489796	351.68866213151927	64	127
351.68866213151927	351.88603174603173	74	127
351.68866213151927	351.88603174603173	66	127
351.897641723356	352.1298412698413	73	127
351.897641723356	352.1298412698413	67	127
352.1298412698413	352.29238095238094	71	127
352.1298412698413	352.29238095238094	68	127
352.29238095238094	352.45492063492065	61	127
352.29238095238094	352.45492063492065	81	127
352.29238095238094	352.45492063492065	76	127
352.29238095238094	352.45492063492065	64	127
352.4665306122449	352.64068027210885	59	127
352.4665306122449	352.64068027210885	80	127
352.4665306122449	352.64068027210885	74	127
352.4665306122449	352.64068027210885	68	127
352.64068027210885	352.8960997732426	61	127
352.64068027210885	352.8960997732426	81	127
352.64068027210885	352.8960997732426	76	127
352.64068027210885	352.8960997732426	64	127
352.8960997732426	353.0702494331066	68	127
352.8960997732426	353.0702494331066	83	127
352.8960997732426	353.0702494331066	74	127
352.8960997732426	353.0702494331066	59	127
353.0702494331066	353.26761904761906	69	127
353.0702494331066	353.26761904761906	85	127
353.0702494331066	353.26761904761906	73	127
353.0702494331066	353.26761904761906	57	127
353.26761904761906	353.4301587301587	64	127
353.26761904761906	353.4301587301587	81	127
353.26761904761906	353.4301587301587	76	127
353.26761904761906	353.4301587301587	61	127
353.441768707483	353.77845804988664	66	127
353.441768707483	353.68557823129254	74	127
353.441768707483	353.77845804988664	69	127
353.68557823129254	353.882947845805	73	127
353.882947845805	354.1151247165533	66	127
353.882947845805	354.05709750566893	74	127
353.882947845805	354.1151247165533	69	127
354.0687074829932	354.23124716553286	76	127
354.23124716553286	354.5098866213152	62	127
354.23124716553286	354.4402267573696	78	127
354.23124716553286	354.5098866213152	66	127
354.23124716553286	354.5098866213152	69	127
354.4402267573696	354.62596371882086	80	127
354.63759637188207	354.86979591836734	62	127
354.63759637188207	354.8001360544218	81	127
354.63759637188207	354.86979591836734	66	127
354.63759637188207	354.86979591836734	69	127
354.8001360544218	354.9742857142857	80	127
354.9742857142857	355.22970521541953	61	127
354.9742857142857	355.14843537414964	81	127
354.9742857142857	355.22970521541953	64	127
354.9742857142857	355.22970521541953	69	127
355.1600453514739	355.3574149659864	80	127
355.3574149659864	355.5780045351474	61	127
355.3574149659864	355.5199546485261	81	127
355.3574149659864	355.5780045351474	66	127
355.3574149659864	355.5780045351474	69	127
355.5199546485261	355.77537414965985	76	127
355.7869841269841	355.96113378684805	78	127
355.7869841269841	356.0191836734694	66	127
355.7869841269841	356.0191836734694	69	127
355.7869841269841	356.0191836734694	62	127
355.96113378684805	356.13528344671204	74	127
356.1468934240363	356.3674603174603	64	127
356.1468934240363	356.30943310657597	73	127
356.1468934240363	356.3674603174603	69	127
356.30943310657597	356.49519274376416	72	127
356.49519274376416	356.8782993197279	52	127
356.49519274376416	356.66931972789115	73	127
356.49519274376416	356.8782993197279	57	127
356.68095238095236	356.99442176870747	76	127
356.99442176870747	357.26145124716555	52	127
356.99442176870747	357.1801587301587	74	127
356.99442176870747	357.26145124716555	56	127
357.1801587301587	357.3659410430839	71	127
357.3775510204082	357.6445804988662	61	127
357.3775510204082	357.5517006802721	69	127
357.3775510204082	357.6445804988662	57	127
357.5517006802721	357.79548752834467	73	127
357.79548752834467	357.9696598639456	74	127
357.79548752834467	358.0277097505669	61	127
357.79548752834467	358.0277097505669	57	127
357.98126984126986	358.16702947845806	76	127
358.16702947845806	358.38761904761907	54	127
358.16702947845806	358.38761904761907	46	127
358.16702947845806	358.3295691609977	78	127
358.16702947845806	358.38761904761907	66	127
358.16702947845806	358.38761904761907	61	127
358.3295691609977	358.49210884353744	77	127
358.5036961451247	358.7359183673469	46	127
358.5036961451247	358.67786848072564	78	127
358.5036961451247	358.7359183673469	66	127
358.5036961451247	358.7359183673469	61	127
358.5036961451247	358.7359183673469	54	127
358.67786848072564	358.8752380952381	76	127
358.8752380952381	359.16548752834467	46	127
358.8752380952381	359.1074376417234	74	127
358.8752380952381	359.16548752834467	66	127
358.8752380952381	359.16548752834467	61	127
358.8752380952381	359.16548752834467	54	127
359.1074376417234	359.2931972789116	73	127
359.2931972789116	359.5021768707483	71	127
359.2931972789116	359.5602267573696	66	127
359.2931972789116	359.5602267573696	54	127
359.2931972789116	359.5602267573696	50	127
359.5137868480726	359.6995464852608	70	127
359.6995464852608	359.89691609977325	71	127
359.6995464852608	359.9433333333333	66	127
359.6995464852608	359.9433333333333	54	127
359.6995464852608	359.9433333333333	50	127
359.89691609977325	360.0594557823129	73	127
360.0710657596372	360.30326530612246	50	127
360.0710657596372	360.24519274376416	74	127
360.0710657596372	360.30326530612246	66	127
360.0710657596372	360.30326530612246	54	127
360.24519274376416	360.44258503401363	71	127
360.44258503401363	360.7328344671202	44	127
360.44258503401363	360.65154195011337	76	127
360.44258503401363	360.7328344671202	64	127
360.44258503401363	360.7328344671202	59	127
360.66315192743764	360.8605215419501	75	127
360.8605215419501	361.1043537414966	52	127
360.8605215419501	361.1043537414966	44	127
360.8605215419501	361.0463038548753	76	127
360.8605215419501	361.1043537414966	59	127
360.8605215419501	361.1043537414966	64	127
361.0463038548753	361.20884353741496	74	127
361.22045351473923	361.47585034013605	52	127
361.22045351473923	361.47585034013605	44	127
361.22045351473923	361.40621315192743	73	127
361.22045351473923	361.47585034013605	59	127
361.22045351473923	361.47585034013605	64	127
361.40621315192743	361.5803401360544	71	127
361.5803401360544	361.8357823129252	52	127
361.5803401360544	361.8357823129252	49	127
361.5803401360544	361.75451247165535	69	127
361.5803401360544	361.8357823129252	64	127
361.75451247165535	361.9518820861678	68	127
361.9518820861678	362.25374149659865	52	127
361.9518820861678	362.25374149659865	49	127
361.9518820861678	362.2073015873016	69	127
361.9518820861678	362.25374149659865	64	127
362.2073015873016	362.40467120181404	71	127
362.40467120181404	362.6484807256236	64	127
362.40467120181404	362.5904308390023	73	127
362.40467120181404	362.6484807256236	52	127
362.40467120181404	362.6484807256236	49	127
362.5904308390023	362.7761904761905	69	127
362.78780045351476	363.12448979591835	54	127
362.78780045351476	363.0548299319728	74	127
362.78780045351476	363.12448979591835	62	127
362.78780045351476	363.12448979591835	57	127
363.0548299319728	363.2289795918367	73	127
363.2289795918367	363.4495691609977	57	127
363.2289795918367	363.4495691609977	54	127
363.2289795918367	363.39151927437644	74	127
363.2289795918367	363.4495691609977	62	127
363.4031292517007	363.5888888888889	76	127
363.5888888888889	363.8210657596372	57	127
363.5888888888889	363.8210657596372	54	127
363.5888888888889	363.75142857142856	78	127
363.5888888888889	363.8210657596372	62	127
363.75142857142856	363.94879818594103	80	127
363.9604081632653	364.2158276643991	57	127
363.9604081632653	364.1461678004535	81	127
363.9604081632653	364.2158276643991	66	127
363.9604081632653	364.2158276643991	50	127
364.1461678004535	364.3203174603175	80	127
364.3203174603175	364.564126984127	49	127
364.3203174603175	364.48285714285714	81	127
364.3203174603175	364.564126984127	64	127
364.3203174603175	364.564126984127	57	127
364.4944671201814	364.7150566893424	80	127
364.7150566893424	364.98208616780045	57	127
364.7150566893424	364.98208616780045	49	127
364.7150566893424	364.92403628117916	81	127
364.7150566893424	364.98208616780045	64	127
364.92403628117916	365.0981859410431	76	127
365.0981859410431	365.34199546485263	57	127
365.0981859410431	365.34199546485263	50	127
365.0981859410431	365.272335600907	78	127
365.0981859410431	365.34199546485263	66	127
365.272335600907	365.5045351473923	74	127
365.51614512471656	365.6786848072562	73	127
365.51614512471656	365.74834467120183	52	127
365.51614512471656	365.74834467120183	57	127
365.51614512471656	365.74834467120183	64	127
365.6786848072562	365.8528344671202	72	127
365.8528344671202	366.01537414965986	73	127
365.8528344671202	366.10825396825396	64	127
365.8528344671202	366.10825396825396	57	127
365.8528344671202	366.10825396825396	52	127
366.05020408163267	366.2591836734694	76	127
366.2591836734694	366.52621315192744	52	127
366.2591836734694	366.46816326530615	74	127
366.2591836734694	366.52621315192744	64	127
366.2591836734694	366.52621315192744	56	127
366.46816326530615	366.6307029478458	71	127
366.6423129251701	366.8629024943311	61	127
366.6423129251701	366.8629024943311	57	127
366.6423129251701	366.80485260770973	69	127
366.6423129251701	366.8629024943311	64	127
366.80485260770973	366.9790022675737	81	127
366.9790022675737	367.2344217687075	61	127
366.9790022675737	367.2344217687075	57	127
366.9790022675737	367.1763718820862	83	127
366.9790022675737	367.2344217687075	64	127
366.9790022675737	367.2344217687075	69	127
367.1763718820862	367.40854875283446	85	127
367.4434013605442	367.6639909297052	62	127
367.4434013605442	367.6639909297052	54	127
367.4434013605442	367.60591836734693	86	127
367.4434013605442	367.6639909297052	69	127
367.60591836734693	367.81489795918367	85	127
367.81489795918367	368.0819501133787	62	127
367.81489795918367	368.0819501133787	54	127
367.81489795918367	368.0238775510204	86	127
367.81489795918367	368.0819501133787	69	127
368.0238775510204	368.18643990929706	88	127
368.18643990929706	368.4534693877551	57	127
368.18643990929706	368.4534693877551	50	127
368.18643990929706	368.38380952380953	90	127
368.18643990929706	368.4534693877551	69	127
368.3954195011338	368.56956916099773	92	127
368.56956916099773	368.82498866213155	57	127
368.56956916099773	368.82498866213155	50	127
368.56956916099773	368.7088888888889	93	127
368.56956916099773	368.82498866213155	66	127
368.7669387755102	368.97591836734694	80	127
368.97591836734694	369.2081179138322	57	127
368.97591836734694	369.15006802721086	81	127
368.97591836734694	369.2081179138322	64	127
368.97591836734694	369.2081179138322	69	127
368.97591836734694	369.2081179138322	49	127
369.16167800453513	369.3590476190476	80	127
369.3590476190476	369.54478458049886	81	127
369.3590476190476	369.60285714285715	57	127
369.3590476190476	369.60285714285715	49	127
369.3590476190476	369.60285714285715	64	127
369.3590476190476	369.60285714285715	69	127
369.54478458049886	369.7189569160998	76	127
369.73056689342405	370.00920634920635	57	127
369.73056689342405	370.00920634920635	50	127
369.73056689342405	369.95115646258506	78	127
369.73056689342405	370.00920634920635	66	127
369.73056689342405	370.00920634920635	69	127
369.95115646258506	370.125306122449	74	127
370.125306122449	370.35750566893427	57	127
370.125306122449	370.35750566893427	52	127
370.125306122449	370.28784580498865	73	127
370.125306122449	370.35750566893427	64	127
370.125306122449	370.35750566893427	69	127
370.28784580498865	370.46199546485263	71	127
370.4735827664399	370.64775510204083	73	127
370.4735827664399	370.7058049886621	64	127
370.4735827664399	370.7058049886621	57	127
370.4735827664399	370.7058049886621	52	127
370.64775510204083	370.8102947845805	76	127
370.8102947845805	371.0657142857143	40	127
370.8102947845805	370.9960544217687	74	127
370.8102947845805	371.0657142857143	64	127
370.8102947845805	371.0657142857143	56	127
370.9960544217687	371.1934013605442	71	127
371.2050340136054	371.6578231292517	61	127
371.2050340136054	371.6578231292517	64	127
371.2050340136054	371.41401360544216	69	127
371.2050340136054	371.50689342403626	57	127
371.2050340136054	371.50689342403626	45	127
371.41401360544216	371.6578231292517	73	127
371.6578231292517	371.9480725623583	49	127
371.6578231292517	371.8784126984127	76	127
371.6578231292517	371.9480725623583	37	127
371.8784126984127	372.08739229024945	81	127
372.08739229024945	372.3892517006803	37	127
372.08739229024945	372.3892517006803	49	127
372.08739229024945	372.5285714285714	85	127
372.5285714285714	373.5618594104308	37	127
372.5285714285714	373.5618594104308	49	127
373.5734693877551	374.7925170068027	51	127
373.5734693877551	374.7925170068027	39	127
374.7925170068027	375.03632653061226	57	127
374.7925170068027	375.03632653061226	45	127
375.17562358276643	375.4310657596372	56	127
375.17562358276643	375.4310657596372	44	127
375.5587755102041	375.8374149659864	42	127
375.5587755102041	375.8374149659864	54	127
375.94190476190477	376.2553741496599	56	127
375.94190476190477	376.2553741496599	44	127
376.35986394557824	376.62689342403627	44	127
376.35986394557824	376.62689342403627	56	127
376.7546031746032	377.0332426303855	56	127
376.7546031746032	377.0332426303855	44	127
377.13773242630384	378.2406575963719	48	127
377.13773242630384	378.2406575963719	60	127
378.2522902494331	379.40167800453514	61	127
378.2522902494331	379.40167800453514	49	127
379.40167800453514	379.6338775510204	45	127
379.40167800453514	379.6338775510204	57	127
379.7615873015873	380.0170068027211	54	127
379.7615873015873	380.0170068027211	42	127
380.1331065759637	380.40013605442175	56	127
380.1331065759637	380.40013605442175	44	127
380.1331065759637	380.3304761904762	61	127
380.3304761904762	380.49301587301585	64	127
380.52784580498866	380.7832653061225	49	127
380.52784580498866	380.7832653061225	37	127
380.52784580498866	380.71360544217686	68	127
380.71360544217686	380.89936507936505	73	127
380.89936507936505	381.11995464852606	49	127
380.89936507936505	381.11995464852606	37	127
380.89936507936505	381.06190476190477	76	127
380.89936507936505	381.11995464852606	61	127
381.07351473922904	381.24766439909297	80	127
381.24766439909297	381.4914739229025	49	127
381.24766439909297	381.4914739229025	37	127
381.24766439909297	381.4218140589569	85	127
381.24766439909297	381.4914739229025	61	127
381.4218140589569	381.60757369614515	88	127
381.60757369614515	381.8629931972789	92	127
381.60757369614515	382.7221315192744	61	127
381.60757369614515	382.7221315192744	49	127
381.60757369614515	382.7221315192744	37	127
382.0023129251701	382.2345124716553	97	127
382.7221315192744	383.8599092970521	63	127
382.7221315192744	383.8599092970521	51	127
382.7221315192744	383.8599092970521	39	127
383.8715192743764	384.15015873015875	69	127
383.8715192743764	384.15015873015875	45	127
383.8715192743764	384.15015873015875	57	127
384.2662585034014	384.5448979591837	68	127
384.2662585034014	384.5448979591837	44	127
384.2662585034014	384.5448979591837	56	127
384.6842176870748	384.9048072562358	66	127
384.6842176870748	384.9048072562358	42	127
384.6842176870748	384.9048072562358	54	127
385.02090702947845	385.28793650793654	68	127
385.02090702947845	385.28793650793654	44	127
385.02090702947845	385.28793650793654	56	127
385.39242630385485	385.6362358276644	44	127
385.39242630385485	385.6362358276644	68	127
385.39242630385485	385.6362358276644	56	127
385.75233560090703	386.03097505668933	68	127
385.75233560090703	386.03097505668933	56	127
385.75233560090703	386.03097505668933	44	127
386.15868480725624	386.69274376417235	60	127
386.15868480725624	386.69274376417235	48	127
386.15868480725624	386.69274376417235	72	127
386.87850340136055	387.37773242630385	60	127
386.87850340136055	387.37773242630385	36	127
386.87850340136055	387.37773242630385	48	127
387.5402721088435	388.06272108843535	61	127
387.5402721088435	388.06272108843535	37	127
387.5402721088435	388.06272108843535	49	127
388.352970521542	388.97990929705213	73	127
388.352970521542	388.97990929705213	49	127
388.352970521542	388.97990929705213	61	127
389.2121088435374	389.4443083900227	45	127
389.2121088435374	389.4443083900227	57	127
389.2121088435374	389.4443083900227	69	127
389.5604081632653	389.76938775510206	42	127
389.5604081632653	389.76938775510206	66	127
389.5604081632653	389.76938775510206	54	127
389.8854875283447	390.14090702947846	44	127
389.8854875283447	390.14090702947846	68	127
389.8854875283447	390.14090702947846	56	127
390.26861678004536	390.51242630385485	56	127
390.26861678004536	390.51242630385485	44	127
390.26861678004536	390.51242630385485	44	127
390.6169160997732	390.86072562358277	49	127
390.6169160997732	390.86072562358277	49	127
390.6169160997732	390.86072562358277	61	127
390.96521541950113	391.18580498866214	73	127
390.96521541950113	391.18580498866214	61	127
390.96521541950113	391.18580498866214	61	127
391.3483446712018	391.6037641723356	57	127
391.3483446712018	394.13473922902494	45	127
391.3483446712018	391.6037641723356	57	127
391.754693877551	392.1146031746032	85	127
391.754693877551	391.928843537415	69	127
391.9404535147392	392.1146031746032	73	127
392.12621315192746	393.32204081632653	69	127
392.12621315192746	392.31197278911566	76	127
392.31197278911566	392.4745124716553	81	127
392.4861224489796	392.72993197278913	85	127
392.72993197278913	392.91569160997733	88	127
392.91569160997733	393.1014512471655	76	127
392.91569160997733	393.1014512471655	57	127
392.91569160997733	393.32204081632653	88	127
393.1014512471655	393.32204081632653	81	127
393.1014512471655	393.32204081632653	61	127
393.32204081632653	393.50780045351473	64	127
393.32204081632653	393.50780045351473	76	127
393.32204081632653	394.5643083900227	69	127
393.519410430839	393.7051700680272	85	127
393.519410430839	393.7051700680272	69	127
393.7051700680272	393.91414965986394	76	127
393.7051700680272	393.91414965986394	73	127
393.91414965986394	394.13473922902494	85	127
393.91414965986394	394.13473922902494	76	127
394.1463492063492	394.5643083900227	93	127
394.1463492063492	394.3437188208617	76	127
394.1463492063492	394.3437188208617	49	127
394.1463492063492	394.3437188208617	45	127
394.3437188208617	394.5643083900227	52	127
394.3437188208617	394.5643083900227	49	127
394.3437188208617	394.5643083900227	81	127
394.5643083900227	394.76167800453516	57	127
394.5643083900227	409.9243083900227	69	127
394.5643083900227	394.76167800453516	76	127
394.5643083900227	394.76167800453516	52	127
394.7732879818594	395.0983673469388	85	127
394.7732879818594	395.0983673469388	61	127
394.7732879818594	395.0983673469388	57	127
395.0983673469388	395.26090702947846	61	127
395.0983673469388	395.26090702947846	76	127
395.0983673469388	395.26090702947846	64	127
395.26090702947846	395.4234467120181	61	127
395.26090702947846	395.4234467120181	81	127
395.26090702947846	395.4234467120181	64	127
395.44666666666666	395.6208163265306	73	127
395.44666666666666	410.99242630385487	45	127
395.44666666666666	395.6208163265306	61	127
395.44666666666666	395.9110657596372	88	127
395.6208163265306	395.9110657596372	81	127
395.6208163265306	395.9110657596372	57	127
395.9110657596372	396.16648526077097	74	127
395.9110657596372	396.16648526077097	62	127
395.9110657596372	396.35224489795917	90	127
396.16648526077097	396.35224489795917	81	127
396.16648526077097	396.35224489795917	57	127
396.35224489795917	396.71215419501135	88	127
396.35224489795917	396.53800453514737	73	127
396.35224489795917	396.53800453514737	61	127
396.54961451247163	396.71215419501135	81	127
396.54961451247163	396.71215419501135	57	127
396.71215419501135	396.89791383219955	71	127
396.71215419501135	396.89791383219955	59	127
396.71215419501135	397.0604535147392	86	127
396.89791383219955	397.0604535147392	81	127
396.89791383219955	397.0604535147392	57	127
397.0720634920635	397.24621315192746	73	127
397.0720634920635	397.24621315192746	61	127
397.0720634920635	397.75705215419504	88	127
397.24621315192746	397.4087528344671	57	127
397.24621315192746	397.4087528344671	81	127
397.4087528344671	397.58290249433105	59	127
397.4087528344671	397.58290249433105	71	127
397.5945124716553	397.75705215419504	81	127
397.5945124716553	397.75705215419504	57	127
397.75705215419504	397.9195918367347	69	127
397.75705215419504	397.9195918367347	57	127
397.75705215419504	398.08213151927436	85	127
397.9195918367347	398.08213151927436	81	127
397.9195918367347	398.08213151927436	69	127
398.0937414965986	398.2911111111111	71	127
398.0937414965986	398.2911111111111	59	127
398.0937414965986	398.48848072562356	86	127
398.2911111111111	398.48848072562356	81	127
398.2911111111111	398.48848072562356	57	127
398.48848072562356	398.6510204081633	73	127
398.48848072562356	398.6510204081633	61	127
398.48848072562356	398.8367800453515	85	127
398.6742403628118	398.8367800453515	81	127
398.6742403628118	398.8367800453515	57	127
398.8367800453515	399.0573696145125	74	127
398.8367800453515	399.0573696145125	62	127
398.8367800453515	399.2431292517007	86	127
399.0573696145125	399.2431292517007	81	127
399.0573696145125	399.2431292517007	61	127
399.2431292517007	399.40566893424034	85	127
399.2431292517007	399.40566893424034	71	127
399.2431292517007	399.40566893424034	62	127
399.40566893424034	399.75396825396825	86	127
399.40566893424034	399.75396825396825	81	127
399.40566893424034	399.75396825396825	57	127
399.7655782312925	399.9281179138322	73	127
399.7655782312925	399.9281179138322	61	127
399.7655782312925	400.12548752834465	88	127
399.9281179138322	400.12548752834465	81	127
399.9281179138322	400.12548752834465	57	127
400.12548752834465	400.3344671201814	74	127
400.12548752834465	400.3344671201814	59	127
400.12548752834465	400.5086167800454	88	127
400.34607709750566	400.5086167800454	73	127
400.34607709750566	400.5086167800454	57	127
400.5086167800454	400.7756462585034	74	127
400.5086167800454	400.7756462585034	62	127
400.5086167800454	400.93818594104306	90	127
400.7756462585034	400.93818594104306	81	127
400.7756462585034	400.93818594104306	57	127
400.9614058956916	401.1239455782313	73	127
400.9614058956916	401.1239455782313	61	127
400.9614058956916	401.3213151927438	88	127
401.1239455782313	401.3213151927438	81	127
401.1239455782313	401.3213151927438	57	127
401.3213151927438	401.48385487528344	71	127
401.3213151927438	401.48385487528344	59	127
401.3213151927438	401.6928344671202	86	127
401.4954648526077	401.6928344671202	57	127
401.4954648526077	401.6928344671202	81	127
401.6928344671202	402.4474829931973	88	127
401.6928344671202	401.8669841269841	73	127
401.6928344671202	401.8669841269841	61	127
401.8669841269841	402.0875736961451	81	127
401.8669841269841	402.0875736961451	57	127
402.0875736961451	402.2849433106576	71	127
402.0875736961451	402.2849433106576	59	127
402.2849433106576	402.4474829931973	81	127
402.2849433106576	402.4474829931973	57	127
402.45909297052157	402.61002267573696	69	127
402.45909297052157	402.61002267573696	57	127
402.45909297052157	402.8073922902494	85	127
402.61002267573696	402.8073922902494	81	127
402.61002267573696	402.8073922902494	69	127
402.8073922902494	403.01637188208616	71	127
402.8073922902494	403.01637188208616	59	127
402.8073922902494	403.2601814058957	86	127
403.02798185941043	403.2601814058957	81	127
403.02798185941043	403.2601814058957	57	127
403.2601814058957	403.5968707482993	85	127
403.2601814058957	403.43433106575964	69	127
403.2601814058957	403.43433106575964	57	127
403.43433106575964	403.5968707482993	69	127
403.43433106575964	403.5968707482993	81	127
403.60848072562356	403.80585034013603	86	127
403.60848072562356	403.80585034013603	78	127
403.60848072562356	403.80585034013603	66	127
403.80585034013603	403.9916099773243	90	127
403.80585034013603	403.9916099773243	74	127
403.80585034013603	403.9916099773243	62	127
403.9916099773243	404.1657596371882	76	127
403.9916099773243	404.1657596371882	64	127
403.9916099773243	404.81591836734697	85	127
404.18897959183676	404.3979591836735	81	127
404.18897959183676	404.3979591836735	69	127
404.3979591836735	404.56049886621315	73	127
404.3979591836735	404.56049886621315	85	127
404.56049886621315	404.81591836734697	88	127
404.56049886621315	404.81591836734697	76	127
404.81591836734697	405.00167800453517	69	127
404.81591836734697	405.00167800453517	57	127
404.81591836734697	405.2106575963719	85	127
405.00167800453517	405.2106575963719	69	127
405.00167800453517	405.2106575963719	81	127
405.2222675736962	405.46607709750566	71	127
405.2222675736962	405.6286167800454	86	127
405.2222675736962	405.46607709750566	59	127
405.46607709750566	405.6286167800454	57	127
405.46607709750566	405.6286167800454	81	127
405.6286167800454	406.05818594104306	85	127
405.6286167800454	405.88403628117914	57	127
405.6286167800454	405.88403628117914	69	127
405.8956462585034	406.05818594104306	81	127
405.8956462585034	406.05818594104306	69	127
406.05818594104306	406.2207256235828	66	127
406.05818594104306	406.2207256235828	86	127
406.05818594104306	406.2207256235828	78	127
406.2207256235828	406.38326530612244	74	127
406.2207256235828	406.38326530612244	90	127
406.2207256235828	406.38326530612244	62	127
406.3948752834467	406.55741496598637	61	127
406.3948752834467	406.55741496598637	73	127
406.3948752834467	407.0914739229025	93	127
406.55741496598637	406.7199546485261	64	127
406.55741496598637	406.7199546485261	76	127
406.7199546485261	406.88249433106574	69	127
406.7199546485261	406.88249433106574	81	127
406.91732426303855	407.0914739229025	85	127
406.91732426303855	407.0914739229025	73	127
407.0914739229025	407.26562358276647	69	127
407.0914739229025	407.26562358276647	57	127
407.0914739229025	407.45138321995466	85	127
407.26562358276647	407.45138321995466	81	127
407.26562358276647	407.45138321995466	69	127
407.46299319727893	407.6603628117914	71	127
407.46299319727893	407.6603628117914	59	127
407.46299319727893	407.83451247165533	86	127
407.6603628117914	407.83451247165533	81	127
407.6603628117914	407.83451247165533	69	127
407.83451247165533	408.14798185941044	69	127
407.83451247165533	408.14798185941044	57	127
407.83451247165533	408.32213151927436	85	127
408.14798185941044	408.32213151927436	81	127
408.14798185941044	408.32213151927436	69	127
408.32213151927436	408.5775510204082	86	127
408.32213151927436	408.5775510204082	78	127
408.32213151927436	408.5775510204082	66	127
408.58916099773245	408.7865306122449	90	127
408.58916099773245	408.7865306122449	74	127
408.58916099773245	408.7865306122449	62	127
408.7865306122449	408.9722902494331	76	127
408.7865306122449	409.49473922902496	85	127
408.7865306122449	408.9722902494331	61	127
408.9722902494331	409.1348299319728	81	127
408.9722902494331	409.1348299319728	64	127
409.14643990929704	409.33219954648524	85	127
409.14643990929704	409.33219954648524	69	127
409.33219954648524	409.49473922902496	88	127
409.33219954648524	409.49473922902496	73	127
409.49473922902496	410.99242630385487	64	127
409.49473922902496	409.6572789115646	57	127
409.49473922902496	410.99242630385487	85	127
409.49473922902496	410.99242630385487	61	127
409.7501587301587	409.9243083900227	61	127
409.9243083900227	411.50326530612244	69	127
409.9243083900227	410.3306575963719	64	127
410.3770975056689	410.5744671201814	69	127
410.5744671201814	410.8066666666667	73	127
410.8298866213152	410.99242630385487	76	127
411.00403628117914	411.22462585034015	45	127
411.00403628117914	414.12712018140587	85	127
411.00403628117914	414.12712018140587	73	127
411.00403628117914	414.12712018140587	76	127
411.00403628117914	414.12712018140587	61	127
411.00403628117914	414.12712018140587	64	127
411.22462585034015	411.50326530612244	49	127
411.50326530612244	414.12712018140587	69	127
411.50326530612244	411.7354648526077	52	127
411.7354648526077	411.967664399093	57	127
411.9792743764172	412.26952380952383	61	127
412.28113378684805	412.62943310657596	64	127
412.64104308390023	414.12712018140587	45	127
415.6480272108844	416.49555555555554	56	127
415.6480272108844	416.49555555555554	56	127
415.6480272108844	416.49555555555554	44	127
416.5071655328798	417.15732426303856	57	127
416.5071655328798	417.15732426303856	45	127
416.5071655328798	417.15732426303856	57	127
417.1921541950113	417.6333333333333	61	127
417.1921541950113	417.6333333333333	61	127
417.1921541950113	417.6333333333333	49	127
417.6333333333333	417.97002267573697	61	127
417.6333333333333	417.97002267573697	49	127
417.6333333333333	417.97002267573697	61	127
417.97002267573697	418.38798185941044	50	127
417.97002267573697	418.38798185941044	62	127
417.97002267573697	418.38798185941044	62	127
418.3995918367347	418.7711111111111	54	127
418.3995918367347	418.7711111111111	66	127
418.3995918367347	418.7711111111111	66	127
418.7711111111111	419.0961904761905	46	127
418.7711111111111	419.0961904761905	58	127
418.7711111111111	419.0961904761905	58	127
419.0961904761905	419.5025396825397	47	127
419.0961904761905	419.5025396825397	59	127
419.0961904761905	419.5025396825397	59	127
419.51414965986396	419.9437188208617	51	127
419.51414965986396	419.9437188208617	63	127
419.51414965986396	419.9437188208617	63	127
419.9437188208617	420.2804081632653	51	127
419.9437188208617	420.2804081632653	63	127
419.9437188208617	420.2804081632653	51	127
420.2804081632653	420.65192743764175	52	127
420.2804081632653	420.65192743764175	64	127
420.2804081632653	420.65192743764175	52	127
420.65192743764175	421.2672562358277	56	127
420.65192743764175	421.2672562358277	56	127
420.65192743764175	421.2672562358277	68	127
421.2788662131519	421.89419501133784	73	127
421.2788662131519	421.592335600907	56	127
421.592335600907	421.89419501133784	57	127
421.89419501133784	422.05673469387756	71	127
421.89419501133784	422.24249433106576	61	127
422.05673469387756	422.24249433106576	69	127
422.27732426303857	422.6256235827664	61	127
422.27732426303857	422.46308390022676	68	127
422.46308390022676	422.6256235827664	65	127
422.6256235827664	422.8926530612245	66	127
422.6256235827664	423.2061224489796	62	127
423.2061224489796	423.5428117913832	66	127
423.5428117913832	423.8678911564626	46	127
423.5428117913832	424.25102040816324	62	127
423.87950113378685	424.25102040816324	47	127
424.25102040816324	424.4832199546485	61	127
424.25102040816324	424.69219954648526	50	127
424.4948299319728	424.69219954648526	59	127
424.69219954648526	424.92439909297053	57	127
424.69219954648526	425.09854875283446	51	127
424.92439909297053	425.09854875283446	54	127
425.11015873015873	425.45845804988664	52	127
425.11015873015873	425.36557823129255	56	127
425.45845804988664	425.91124716553287	56	127
425.91124716553287	426.36403628117915	60	127
425.91124716553287	426.70072562358274	76	127
426.36403628117915	426.70072562358274	61	127
426.712335600907	426.8748752834467	74	127
426.712335600907	427.0374149659864	64	127
426.8748752834467	427.0374149659864	73	127
427.0374149659864	427.1999546485261	71	127
427.0374149659864	427.3857142857143	65	127
427.2115646258503	427.3857142857143	68	127
427.3857142857143	427.64113378684806	69	127
427.3857142857143	427.76884353741497	66	127
427.8036734693878	428.210022675737	69	127
428.210022675737	428.54671201814057	64	127
428.210022675737	428.54671201814057	61	127
428.210022675737	428.37256235827664	73	127
428.3841723356009	428.54671201814057	70	127
428.54671201814057	428.8834013605442	63	127
428.54671201814057	428.7673015873016	71	127
428.54671201814057	428.8834013605442	66	127
428.8834013605442	429.2897505668934	66	127
428.8834013605442	429.2897505668934	69	127
429.3013605442177	429.7425396825397	54	127
429.3013605442177	429.4755102040816	69	127
429.3013605442177	429.7425396825397	59	127
429.3013605442177	429.7425396825397	51	127
429.4755102040816	429.7425396825397	66	127
429.7425396825397	430.0095691609977	68	127
429.7425396825397	430.12566893424037	56	127
429.7425396825397	430.12566893424037	52	127
430.12566893424037	430.59006802721086	59	127
430.12566893424037	430.59006802721086	56	127
430.60167800453513	431.40276643990927	68	127
430.60167800453513	431.40276643990927	56	127
430.60167800453513	430.9267573696145	39	127
430.9267573696145	431.40276643990927	40	127
431.40276643990927	431.5885260770975	66	127
431.40276643990927	431.76267573696146	44	127
431.40276643990927	431.5885260770975	54	127
431.5885260770975	431.76267573696146	64	127
431.5885260770975	431.76267573696146	52	127
431.76267573696146	432.16902494331066	44	127
431.76267573696146	431.9368253968254	63	127
431.76267573696146	432.16902494331066	52	127
431.9368253968254	432.16902494331066	60	127
432.1922448979592	432.5521541950113	45	127
432.1922448979592	432.4128344671202	61	127
432.5521541950113	432.9701133786848	49	127
432.9701133786848	433.8292517006803	81	127
432.9701133786848	433.8292517006803	69	127
432.9701133786848	433.49256235827664	53	127
433.5041723356009	433.8292517006803	54	127
433.8292517006803	433.99179138321995	68	127
433.8292517006803	433.99179138321995	80	127
433.8292517006803	434.1659410430839	57	127
434.0034013605442	434.1659410430839	78	127
434.0034013605442	434.1659410430839	66	127
434.1659410430839	434.34009070294786	76	127
434.1659410430839	434.34009070294786	64	127
434.1659410430839	434.53746031746033	58	127
434.34009070294786	434.53746031746033	73	127
434.34009070294786	434.53746031746033	61	127
434.5490702947846	435.0947392290249	59	127
434.5490702947846	435.0947392290249	63	127
434.5490702947846	434.7812698412698	75	127
435.11795918367346	435.4662585034014	66	127
435.11795918367346	435.4662585034014	63	127
435.4662585034014	435.8726077097506	62	127
435.4662585034014	435.8726077097506	66	127
435.4662585034014	436.1512471655329	80	127
435.8726077097506	436.1512471655329	68	127
435.8726077097506	436.1512471655329	64	127
436.16285714285715	436.4879365079365	71	127
436.16285714285715	436.4879365079365	68	127
436.16285714285715	436.3253968253968	78	127
436.3253968253968	436.4879365079365	76	127
436.4879365079365	436.8362358276644	64	127
436.4879365079365	436.8362358276644	68	127
436.4879365079365	436.6504761904762	75	127
436.66208616780045	436.8362358276644	72	127
436.8362358276644	437.1497052154195	73	127
436.8362358276644	437.25419501133786	69	127
436.8362358276644	437.25419501133786	57	127
437.2774149659864	437.66054421768706	68	127
437.2774149659864	437.66054421768706	65	127
437.2774149659864	437.43995464852605	85	127
437.43995464852605	437.66054421768706	83	127
437.66054421768706	438.0436734693877	61	127
437.66054421768706	437.88113378684807	83	127
437.66054421768706	438.0436734693877	65	127
437.88113378684807	438.0436734693877	80	127
438.0436734693877	438.3803628117914	69	127
438.0436734693877	438.3803628117914	66	127
438.0436734693877	438.26426303854873	81	127
438.3803628117914	438.717052154195	66	127
438.3803628117914	438.717052154195	63	127
438.3803628117914	438.5545124716553	83	127
438.5545124716553	438.717052154195	81	127
438.7286621315193	439.20467120181405	63	127
438.7286621315193	438.89120181405895	81	127
438.7286621315193	439.20467120181405	59	127
438.89120181405895	439.20467120181405	78	127
439.20467120181405	439.61102040816326	68	127
439.20467120181405	439.61102040816326	64	127
439.20467120181405	439.47170068027214	80	127
439.61102040816326	439.7851700680272	81	127
439.61102040816326	439.95931972789117	59	127
439.61102040816326	439.84321995464853	52	127
439.61102040816326	439.95931972789117	68	127
439.7851700680272	439.95931972789117	80	127
439.97092970521544	440.14507936507937	59	127
439.97092970521544	440.20312925170066	47	127
439.97092970521544	440.14507936507937	68	127
439.97092970521544	440.14507936507937	80	127
440.14507936507937	440.3192290249433	77	127
440.14507936507937	440.3192290249433	71	127
440.14507936507937	440.3192290249433	68	127
440.3192290249433	440.6326984126984	59	127
440.3192290249433	440.6326984126984	59	127
440.3192290249433	440.6326984126984	78	127
440.3192290249433	440.6326984126984	69	127
440.7371882086168	441.02743764172334	59	127
440.7371882086168	441.02743764172334	47	127
440.7371882086168	440.96938775510205	80	127
440.7371882086168	441.02743764172334	69	127
440.96938775510205	441.1667573696145	78	127
441.1667573696145	441.43378684807254	69	127
441.1667573696145	441.4918367346939	47	127
441.1667573696145	441.43378684807254	78	127
441.1667573696145	441.43378684807254	57	127
441.43378684807254	441.6195464852608	75	127
441.43378684807254	441.6195464852608	59	127
441.43378684807254	441.6195464852608	66	127
441.6195464852608	441.96784580498866	64	127
441.6195464852608	441.96784580498866	52	127
441.6195464852608	441.96784580498866	76	127
441.6195464852608	441.96784580498866	56	127
442.09555555555556	442.50190476190477	55	127
442.09555555555556	442.50190476190477	43	127
442.09555555555556	442.50190476190477	67	127
442.09555555555556	442.50190476190477	55	127
442.50190476190477	442.82698412698414	66	127
442.50190476190477	442.82698412698414	42	127
442.50190476190477	442.82698412698414	54	127
442.8385941043084	443.3146031746032	55	127
442.8385941043084	443.3146031746032	43	127
442.8385941043084	443.3146031746032	67	127
442.8385941043084	443.3146031746032	55	127
443.3146031746032	443.7557823129252	59	127
443.3146031746032	443.7557823129252	47	127
443.3146031746032	443.7557823129252	71	127
443.3146031746032	443.7557823129252	59	127
443.7557823129252	444.10408163265305	59	127
443.7557823129252	444.10408163265305	47	127
443.7557823129252	444.10408163265305	71	127
443.7557823129252	444.10408163265305	59	127
444.10408163265305	444.4407709750567	60	127
444.10408163265305	444.4407709750567	72	127
444.10408163265305	444.4407709750567	60	127
444.10408163265305	444.4407709750567	48	127
444.45238095238096	444.95160997732427	64	127
444.45238095238096	444.95160997732427	76	127
444.45238095238096	444.95160997732427	64	127
444.45238095238096	444.95160997732427	52	127
444.95160997732427	445.2882993197279	54	127
444.95160997732427	445.2882993197279	78	127
444.95160997732427	445.2882993197279	66	127
445.2882993197279	445.61337868480723	79	127
445.2882993197279	445.61337868480723	55	127
445.2882993197279	445.61337868480723	67	127
445.6249886621315	445.9500680272109	83	127
445.6249886621315	445.9500680272109	59	127
445.6249886621315	445.9500680272109	71	127
445.9500680272109	446.32158730158733	71	127
445.9500680272109	446.32158730158733	47	127
445.9500680272109	446.32158730158733	83	127
445.9500680272109	446.32158730158733	59	127
446.32158730158733	446.8556462585034	60	127
446.32158730158733	446.8556462585034	84	127
446.32158730158733	446.8556462585034	72	127
446.32158730158733	446.8556462585034	48	127
446.8556462585034	447.3316553287982	55	127
446.8556462585034	447.3316553287982	60	127
446.8556462585034	447.3316553287982	88	127
446.8556462585034	447.3316553287982	76	127
447.3432653061225	448.22562358276645	77	127
447.3432653061225	447.67995464852606	53	127
447.3432653061225	448.22562358276645	81	127
447.3432653061225	447.67995464852606	57	127
447.67995464852606	448.22562358276645	55	127
447.67995464852606	448.22562358276645	59	127
448.22562358276645	448.7480725623583	62	127
448.22562358276645	448.7480725623583	59	127
448.22562358276645	448.4229931972789	79	127
448.22562358276645	448.4229931972789	76	127
448.4346031746032	448.7480725623583	77	127
448.4346031746032	448.7480725623583	74	127
448.7480725623583	448.91061224489795	74	127
448.7480725623583	449.45628117913833	67	127
448.7480725623583	449.45628117913833	64	127
448.7480725623583	448.91061224489795	77	127
448.91061224489795	449.0847619047619	74	127
448.91061224489795	449.0847619047619	71	127
449.09637188208615	449.3401814058957	72	127
449.09637188208615	449.3401814058957	76	127
449.45628117913833	449.6884807256236	65	127
449.45628117913833	449.6884807256236	62	127
449.7117006802721	449.95551020408163	64	127
449.7117006802721	449.95551020408163	60	127
449.95551020408163	450.64049886621314	81	127
449.95551020408163	450.64049886621314	77	127
449.95551020408163	450.1180498866213	64	127
449.95551020408163	450.1180498866213	60	127
450.1180498866213	450.280589569161	60	127
450.1180498866213	450.280589569161	57	127
450.2921995464853	450.5243990929705	62	127
450.2921995464853	450.5243990929705	59	127
450.64049886621314	450.80303854875285	76	127
450.64049886621314	450.80303854875285	79	127
450.8146485260771	451.0120181405896	77	127
450.8146485260771	451.0120181405896	74	127
451.0120181405896	451.7550566893424	67	127
451.0120181405896	451.7550566893424	64	127
451.0120181405896	451.1977777777778	77	127
451.0120181405896	451.1977777777778	74	127
451.1977777777778	451.39514739229026	74	127
451.1977777777778	451.39514739229026	71	127
451.39514739229026	451.61573696145126	76	127
451.39514739229026	451.61573696145126	72	127
451.89437641723356	452.1033560090703	62	127
451.89437641723356	452.1033560090703	65	127
452.1033560090703	452.2775056689342	64	127
452.1033560090703	452.2775056689342	60	127
452.2775056689342	453.1018140589569	62	127
452.2775056689342	453.1018140589569	58	127
452.75351473922905	453.1018140589569	79	127
452.75351473922905	453.1018140589569	76	127
453.1134240362812	453.3340136054422	77	127
453.1134240362812	453.3340136054422	57	127
453.1134240362812	453.3340136054422	81	127
453.1134240362812	453.3340136054422	60	127
453.3340136054422	453.5429931972789	79	127
453.3340136054422	453.5429931972789	55	127
453.3340136054422	453.5429931972789	82	127
453.3340136054422	453.5429931972789	58	127
453.5429931972789	453.93773242630385	77	127
453.5429931972789	453.93773242630385	84	127
453.5429931972789	454.4137414965986	57	127
453.5429931972789	454.4137414965986	45	127
453.93773242630385	454.4137414965986	65	127
453.93773242630385	454.4137414965986	77	127
454.4253514739229	454.76204081632653	81	127
454.4253514739229	454.76204081632653	69	127
454.4253514739229	454.5878911564626	55	127
454.4253514739229	454.5878911564626	43	127
454.5995011337869	454.76204081632653	53	127
454.5995011337869	454.76204081632653	41	127
454.7736507936508	455.06390022675737	51	127
454.7736507936508	455.06390022675737	39	127
454.7736507936508	455.226439909297	81	127
454.7736507936508	455.226439909297	69	127
455.07551020408164	455.226439909297	48	127
455.07551020408164	455.226439909297	36	127
455.2380498866213	455.44702947845803	50	127
455.2380498866213	455.44702947845803	38	127
455.2380498866213	455.5631292517007	82	127
455.2380498866213	455.5631292517007	70	127
455.5631292517007	455.88820861678005	86	127
455.5631292517007	455.88820861678005	74	127
455.88820861678005	456.7125170068027	70	127
455.88820861678005	456.2481179138322	41	127
455.88820861678005	456.7125170068027	58	127
456.2481179138322	456.7125170068027	43	127
456.7125170068027	456.8982766439909	69	127
456.7125170068027	456.8982766439909	57	127
456.7125170068027	457.0840362811791	46	127
456.8982766439909	457.0840362811791	67	127
456.8982766439909	457.0840362811791	55	127
457.0840362811791	457.5019954648526	47	127
457.0840362811791	457.29301587301586	65	127
457.0840362811791	457.29301587301586	53	127
457.29301587301586	457.5019954648526	50	127
457.29301587301586	457.5019954648526	62	127
457.5019954648526	457.74580498866214	64	127
457.5019954648526	457.74580498866214	52	127
457.5019954648526	457.8619047619048	48	127
457.8619047619048	458.047664399093	79	127
457.8619047619048	458.047664399093	53	127
457.8619047619048	458.047664399093	50	127
458.047664399093	458.2566439909297	52	127
458.047664399093	458.2566439909297	72	127
458.047664399093	458.2566439909297	55	127
458.2566439909297	459.0461224489796	84	127
458.2566439909297	458.68621315192746	55	127
458.2566439909297	458.68621315192746	52	127
458.2566439909297	459.0461224489796	81	127
458.6978231292517	459.0461224489796	57	127
458.6978231292517	459.0461224489796	53	127
459.05773242630386	459.4408616780045	60	127
459.05773242630386	459.2318820861678	79	127
459.05773242630386	459.4408616780045	57	127
459.05773242630386	459.2318820861678	82	127
459.24349206349206	459.4408616780045	81	127
459.24349206349206	459.4408616780045	77	127
459.4524716553288	460.36965986394557	58	127
459.4524716553288	460.36965986394557	62	127
459.4524716553288	459.638231292517	79	127
459.4524716553288	459.638231292517	76	127
459.64984126984126	459.812380952381	76	127
459.64984126984126	459.812380952381	72	127
459.812380952381	460.25356009070293	74	127
459.812380952381	460.25356009070293	77	127
460.36965986394557	460.55541950113377	58	127
460.36965986394557	460.55541950113377	55	127
460.55541950113377	460.7179591836735	57	127
460.55541950113377	460.7179591836735	53	127
460.7179591836735	461.4377777777778	55	127
460.7179591836735	460.88049886621314	81	127
460.7179591836735	460.88049886621314	77	127
460.7179591836735	461.4377777777778	52	127
460.88049886621314	461.04303854875286	77	127
460.88049886621314	461.04303854875286	74	127
461.04303854875286	461.32167800453516	79	127
461.04303854875286	461.32167800453516	76	127
461.4377777777778	461.669977324263	50	127
461.4377777777778	461.669977324263	53	127
461.669977324263	461.8673469387755	52	127
461.669977324263	461.8673469387755	48	127
461.8673469387755	462.0298866213152	82	127
461.8673469387755	462.3549659863946	53	127
461.8673469387755	462.3549659863946	57	127
461.8673469387755	462.0298866213152	79	127
462.0298866213152	462.19242630385486	76	127
462.0298866213152	462.19242630385486	79	127
462.19242630385486	462.45945578231294	81	127
462.19242630385486	462.45945578231294	77	127
462.3549659863946	462.5639455782313	55	127
462.3549659863946	462.5639455782313	52	127
462.5639455782313	462.8425850340136	81	127
462.5639455782313	462.7497052154195	53	127
462.5639455782313	462.7497052154195	50	127
462.5639455782313	462.8425850340136	77	127
462.7497052154195	462.9819047619048	52	127
462.7497052154195	462.9819047619048	48	127
462.9819047619048	463.33020408163264	81	127
462.9819047619048	463.33020408163264	77	127
462.9819047619048	463.1560544217687	50	127
462.9819047619048	463.1560544217687	46	127
463.167664399093	463.33020408163264	48	127
463.167664399093	463.33020408163264	45	127
463.36503401360545	463.5275736961451	43	127
463.36503401360545	463.5275736961451	52	127
463.36503401360545	463.60884353741494	82	127
463.36503401360545	463.60884353741494	79	127
463.5275736961451	463.80621315192747	53	127
463.5275736961451	463.80621315192747	41	127
463.8178231292517	464.2241723356009	76	127
463.8178231292517	464.2241723356009	79	127
463.8178231292517	463.99197278911566	55	127
463.8178231292517	464.32866213151925	48	127
464.00358276643993	464.32866213151925	60	127
464.32866213151925	464.59569160997734	69	127
464.32866213151925	464.537641723356	84	127
464.32866213151925	464.537641723356	54	127
464.537641723356	464.7001814058957	74	127
464.537641723356	464.7001814058957	66	127
464.71179138322	464.96721088435373	82	127
464.71179138322	464.96721088435373	62	127
464.71179138322	464.96721088435373	67	127
465.0717006802721	465.2342403628118	82	127
465.0717006802721	465.3039002267574	67	127
465.0717006802721	465.3039002267574	60	127
465.0717006802721	465.3039002267574	64	127
465.24585034013603	465.50126984126985	72	127
465.50126984126985	465.72185941043085	81	127
465.50126984126985	465.72185941043085	72	127
465.50126984126985	465.72185941043085	65	127
465.8379591836735	466.00049886621315	81	127
465.8379591836735	466.05854875283444	65	127
465.8379591836735	466.05854875283444	62	127
466.00049886621315	466.1630385487528	71	127
466.1746485260771	466.4184580498866	79	127
466.1746485260771	466.4184580498866	70	127
466.1746485260771	466.4184580498866	67	127
466.1746485260771	466.4184580498866	64	127
466.54616780045353	466.76675736961454	64	127
466.54616780045353	466.7087074829932	79	127
466.54616780045353	466.76675736961454	61	127
466.72031746031746	466.8828571428571	69	127
466.8828571428571	467.1034467120181	65	127
466.8828571428571	467.1034467120181	77	127
466.8828571428571	467.1034467120181	62	127
467.2543764172336	467.45174603174604	77	127
467.2543764172336	467.5562358276644	74	127
467.2543764172336	467.5562358276644	67	127
467.2543764172336	467.5562358276644	59	127
467.45174603174604	467.69555555555553	67	127
467.69555555555553	467.9277551020408	72	127
467.69555555555553	467.9277551020408	76	127
467.69555555555553	467.9277551020408	67	127
467.69555555555553	467.9277551020408	60	127
468.067074829932	468.22961451247164	76	127
468.067074829932	468.29927437641726	65	127
468.067074829932	468.29927437641726	72	127
468.067074829932	468.29927437641726	57	127
468.22961451247164	468.48503401360546	65	127
468.48503401360546	468.67079365079366	65	127
468.48503401360546	468.775283446712	74	127
468.48503401360546	468.775283446712	59	127
468.48503401360546	468.775283446712	43	127
468.67079365079366	468.8797732426304	55	127
468.89138321995466	469.2512925170068	50	127
468.89138321995466	469.0539229024943	45	127
468.89138321995466	469.7040816326531	65	127
469.0539229024943	469.2512925170068	42	127
469.2512925170068	469.7040816326531	62	127
469.2512925170068	469.49510204081633	43	127
469.7040816326531	469.86662131519273	60	127
469.7040816326531	469.86662131519273	64	127
469.86662131519273	470.0639909297052	62	127
469.86662131519273	470.0639909297052	59	127
470.08721088435374	470.9231292517007	52	127
470.08721088435374	470.27297052154194	45	127
470.08721088435374	470.9231292517007	67	127
470.27297052154194	470.4703401360544	42	127
470.4703401360544	470.7954195011338	43	127
470.9231292517007	471.08566893424035	65	127
470.9231292517007	471.08566893424035	50	127
471.08566893424035	471.27142857142854	64	127
471.08566893424035	471.27142857142854	48	127
471.27142857142854	472.1073469387755	53	127
471.27142857142854	472.1073469387755	74	127
471.27142857142854	472.1073469387755	59	127
471.27142857142854	472.1073469387755	62	127
471.27142857142854	471.46879818594107	45	127
471.46879818594107	471.71260770975056	42	127
471.7242176870748	471.99124716553285	43	127
472.1073469387755	472.2698866213152	64	127
472.1073469387755	472.2698866213152	72	127
472.1073469387755	472.2698866213152	60	127
472.2814965986395	472.44403628117914	71	127
472.2814965986395	472.44403628117914	65	127
472.2814965986395	472.44403628117914	62	127
472.44403628117914	473.47732426303855	76	127
472.44403628117914	472.62979591836734	45	127
472.44403628117914	473.47732426303855	60	127
472.44403628117914	473.47732426303855	64	127
472.44403628117914	473.47732426303855	55	127
472.62979591836734	472.81555555555553	42	127
472.8271655328798	473.3728344671202	43	127
473.47732426303855	473.6514739229025	74	127
473.47732426303855	473.6514739229025	65	127
473.47732426303855	473.6514739229025	62	127
473.66308390022675	473.82562358276647	72	127
473.66308390022675	473.82562358276647	64	127
473.66308390022675	473.82562358276647	67	127
473.82562358276647	473.9881632653061	81	127
473.82562358276647	474.4990022675737	71	127
473.82562358276647	474.4990022675737	67	127
473.82562358276647	474.4990022675737	50	127
473.82562358276647	474.4990022675737	62	127
473.82562358276647	474.4990022675737	65	127
473.9881632653061	474.1390929705215	78	127
474.1507029478458	474.3712925170068	79	127
474.4990022675737	474.6847619047619	64	127
474.4990022675737	474.6847619047619	72	127
474.4990022675737	474.6847619047619	55	127
474.6847619047619	475.0098412698413	74	127
474.6847619047619	475.0098412698413	53	127
474.6847619047619	475.0098412698413	62	127
475.0098412698413	475.7528798185941	67	127
475.0098412698413	475.7528798185941	52	127
475.0098412698413	475.1956009070295	81	127
475.0098412698413	475.7528798185941	64	127
475.0098412698413	475.7528798185941	67	127
475.0098412698413	475.7528798185941	72	127
475.20721088435374	475.4045804988662	78	127
475.4045804988662	475.6367800453515	79	127
475.7644897959184	475.92702947845805	57	127
475.7644897959184	475.92702947845805	74	127
475.7644897959184	475.92702947845805	65	127
475.92702947845805	476.1940589569161	55	127
475.92702947845805	476.1940589569161	76	127
475.92702947845805	476.1940589569161	64	127
476.1940589569161	476.6352380952381	47	127
476.1940589569161	477.01836734693876	64	127
476.6352380952381	477.01836734693876	48	127
477.02997732426303	477.23895691609977	62	127
477.02997732426303	477.42471655328796	52	127
477.23895691609977	477.42471655328796	60	127
477.42471655328796	478.1677551020408	72	127
477.42471655328796	477.6685260770975	59	127
477.42471655328796	477.83106575963717	52	127
477.6685260770975	477.83106575963717	56	127
477.83106575963717	478.0516553287982	57	127
477.83106575963717	478.1677551020408	53	127
478.1677551020408	478.3999546485261	71	127
478.1677551020408	478.65537414965985	57	127
478.3999546485261	478.65537414965985	69	127
478.6669841269841	479.46807256235826	69	127
478.6669841269841	478.8875736961451	67	127
478.6669841269841	479.06172335600905	64	127
478.6669841269841	479.06172335600905	61	127
478.8875736961451	479.06172335600905	64	127
479.06172335600905	479.46807256235826	65	127
479.06172335600905	479.46807256235826	62	127
479.06172335600905	479.46807256235826	62	127
479.46807256235826	479.8628117913832	69	127
479.46807256235826	479.6654421768707	67	127
479.46807256235826	479.8628117913832	62	127
479.46807256235826	479.8628117913832	65	127
479.6654421768707	479.8628117913832	65	127
479.87442176870746	480.04857142857145	65	127
479.87442176870746	480.2111111111111	55	127
479.87442176870746	480.2111111111111	62	127
479.87442176870746	480.2111111111111	71	127
479.87442176870746	480.6639002267574	67	127
480.04857142857145	480.2111111111111	62	127
480.2111111111111	480.54780045351475	64	127
480.2111111111111	480.6639002267574	60	127
480.2111111111111	480.6639002267574	72	127
480.6639002267574	480.82643990929705	65	127
480.6639002267574	480.82643990929705	62	127
480.6639002267574	480.82643990929705	69	127
480.8380498866213	481.0238095238095	67	127
480.8380498866213	481.0238095238095	64	127
480.8380498866213	481.0238095238095	64	127
481.0238095238095	481.8365079365079	55	127
481.0238095238095	481.18634920634923	65	127
481.0238095238095	481.36049886621316	71	127
481.0238095238095	481.36049886621316	55	127
481.0238095238095	481.36049886621316	62	127
481.18634920634923	481.36049886621316	62	127
481.37210884353743	481.67396825396827	64	127
481.37210884353743	481.8365079365079	72	127
481.37210884353743	481.8365079365079	60	127
481.8365079365079	482.0222675736961	53	127
481.8365079365079	482.0222675736961	81	127
481.8365079365079	482.0222675736961	74	127
481.8365079365079	482.0222675736961	59	127
482.0338775510204	482.2196371882086	76	127
482.0338775510204	482.2196371882086	60	127
482.0338775510204	482.2196371882086	79	127
482.0338775510204	482.2196371882086	52	127
482.2196371882086	482.54471655328797	47	127
482.2196371882086	482.3821768707483	77	127
482.2196371882086	482.3821768707483	74	127
482.2196371882086	482.54471655328797	55	127
482.3821768707483	482.54471655328797	74	127
482.3821768707483	482.54471655328797	65	127
482.55632653061224	482.7885260770975	64	127
482.55632653061224	482.8930158730159	55	127
482.55632653061224	482.8930158730159	48	127
482.55632653061224	482.7885260770975	76	127
482.8930158730159	483.1136054421769	76	127
482.8930158730159	483.31097505668936	56	127
482.8930158730159	483.31097505668936	52	127
483.12521541950116	483.31097505668936	74	127
483.31097505668936	483.64766439909295	56	127
483.31097505668936	483.473514739229	74	127
483.31097505668936	483.473514739229	59	127
483.473514739229	483.64766439909295	64	127
483.473514739229	483.64766439909295	71	127
483.64766439909295	484.1468934240363	64	127
483.64766439909295	484.1468934240363	57	127
483.64766439909295	484.0191836734694	72	127
484.18172335600906	484.3442630385488	88	127
484.18172335600906	484.50680272108843	80	127
484.18172335600906	484.50680272108843	64	127
484.3442630385488	484.50680272108843	86	127
484.50680272108843	484.68095238095236	83	127
484.50680272108843	484.68095238095236	86	127
484.50680272108843	484.85510204081635	68	127
484.69256235827663	484.85510204081635	76	127
484.69256235827663	484.85510204081635	83	127
484.85510204081635	485.08730158730157	84	127
484.85510204081635	485.22662131519274	76	127
484.85510204081635	485.22662131519274	69	127
485.238231292517	485.4356009070295	84	127
485.238231292517	485.6097505668934	36	127
485.238231292517	485.6097505668934	48	127
485.4356009070295	485.6097505668934	83	127
485.6097505668934	485.7722902494331	83	127
485.6097505668934	485.9580498866213	52	127
485.6097505668934	485.9580498866213	40	127
485.7839002267574	485.9580498866213	80	127
485.9580498866213	486.1902494331066	81	127
485.9580498866213	486.48049886621317	53	127
485.9580498866213	486.48049886621317	41	127
486.48049886621317	486.86362811791383	60	127
486.48049886621317	486.67786848072564	84	127
486.48049886621317	486.86362811791383	72	127
486.67786848072564	486.86362811791383	83	127
486.8752380952381	487.03777777777776	83	127
486.8752380952381	487.2003174603175	76	127
486.8752380952381	487.2003174603175	64	127
487.03777777777776	487.2003174603175	80	127
487.2003174603175	487.4092970521542	81	127
487.2003174603175	487.52539682539685	77	127
487.2003174603175	487.52539682539685	65	127
487.52539682539685	488.02462585034016	64	127
487.52539682539685	487.7808163265306	72	127
487.52539682539685	488.02462585034016	60	127
487.7808163265306	488.02462585034016	71	127
488.0362358276644	488.21038548752836	71	127
488.0362358276644	488.4077551020408	52	127
488.0362358276644	488.4077551020408	64	127
488.21038548752836	488.4077551020408	68	127
488.4077551020408	488.76766439909295	69	127
488.4077551020408	488.8721541950113	53	127
488.4077551020408	488.8721541950113	65	127
488.8721541950113	489.25528344671204	61	127
488.8721541950113	489.03469387755104	81	127
488.8721541950113	489.25528344671204	76	127
488.8721541950113	489.25528344671204	57	127
489.03469387755104	489.25528344671204	79	127
489.2785034013605	489.44104308390024	79	127
489.2785034013605	489.44104308390024	76	127
489.2785034013605	489.61519274376417	61	127
489.2785034013605	489.61519274376417	64	127
489.44104308390024	489.61519274376417	76	127
489.44104308390024	489.61519274376417	69	127
489.62680272108844	489.94027210884354	62	127
489.62680272108844	489.94027210884354	65	127
489.62680272108844	489.8357823129252	77	127
489.62680272108844	489.8357823129252	69	127
489.94027210884354	490.31179138321994	69	127
489.94027210884354	490.31179138321994	57	127
489.94027210884354	490.4859410430839	81	127
490.3234013605442	490.4859410430839	67	127
490.3234013605442	490.4859410430839	55	127
490.4859410430839	490.6484807256236	67	127
490.4859410430839	490.6484807256236	55	127
490.4859410430839	490.81102040816324	85	127
490.6484807256236	490.81102040816324	64	127
490.6484807256236	490.81102040816324	52	127
490.8226303854875	491.0432199546485	65	127
490.8226303854875	491.0432199546485	53	127
490.8226303854875	491.1477097505669	86	127
491.1477097505669	491.31024943310655	65	127
491.1477097505669	491.31024943310655	53	127
491.48439909297053	491.67015873015873	64	127
491.48439909297053	491.67015873015873	52	127
491.67015873015873	491.8675283446712	64	127
491.67015873015873	491.8675283446712	52	127
491.8675283446712	492.0532879818594	61	127
491.8675283446712	492.0532879818594	49	127
492.06489795918367	492.38997732426304	50	127
492.06489795918367	492.38997732426304	62	127
492.51768707482995	492.7266666666667	74	127
492.51768707482995	492.7266666666667	86	127
492.7266666666667	492.9008163265306	84	127
492.7266666666667	492.9008163265306	72	127
492.9008163265306	493.051746031746	84	127
492.9008163265306	493.051746031746	72	127
493.0633560090703	493.26072562358274	81	127
493.0633560090703	493.26072562358274	69	127
493.26072562358274	493.48131519274375	83	127
493.26072562358274	493.48131519274375	71	127
493.5974149659864	493.7831746031746	60	127
493.5974149659864	493.7831746031746	48	127
493.7831746031746	494.01537414965986	59	127
493.7831746031746	494.01537414965986	47	127
494.01537414965986	494.21274376417233	59	127
494.01537414965986	494.21274376417233	47	127
494.2243537414966	494.38689342403626	56	127
494.2243537414966	494.38689342403626	44	127
494.38689342403626	494.6655328798186	57	127
494.38689342403626	494.6655328798186	45	127
494.80485260770973	495.02544217687074	84	127
494.80485260770973	495.02544217687074	72	127
495.02544217687074	495.2228117913832	83	127
495.02544217687074	495.2228117913832	71	127
495.2228117913832	495.3969614512472	83	127
495.2228117913832	495.3969614512472	71	127
495.3969614512472	495.5827210884354	80	127
495.3969614512472	495.5827210884354	68	127
495.5827210884354	495.8265306122449	81	127
495.5827210884354	495.8265306122449	69	127
495.9426303854875	496.2096598639456	61	127
495.9426303854875	496.2096598639456	49	127
496.2212698412698	496.40702947845807	59	127
496.2212698412698	496.40702947845807	47	127
496.40702947845807	496.60439909297054	59	127
496.40702947845807	496.60439909297054	47	127
496.60439909297054	496.801768707483	56	127
496.60439909297054	496.801768707483	44	127
496.8133786848073	497.10362811791384	57	127
496.8133786848073	497.10362811791384	45	127
497.3126077097506	497.5448072562358	85	127
497.3126077097506	497.5448072562358	73	127
497.3126077097506	497.5448072562358	61	127
497.3126077097506	497.5448072562358	49	127
497.55641723356007	497.82344671201815	83	127
497.55641723356007	497.82344671201815	71	127
497.55641723356007	497.82344671201815	59	127
497.55641723356007	497.82344671201815	47	127
497.82344671201815	497.9975963718821	71	127
497.82344671201815	498.9380045351474	57	127
497.82344671201815	497.9975963718821	62	127
497.82344671201815	497.9975963718821	83	127
497.9975963718821	498.171746031746	80	127
497.9975963718821	498.171746031746	68	127
497.9975963718821	498.171746031746	59	127
498.19496598639455	498.4852154195011	61	127
498.19496598639455	498.4852154195011	81	127
498.19496598639455	498.4852154195011	69	127
498.60131519274375	498.76385487528347	66	127
498.60131519274375	498.76385487528347	63	127
498.60131519274375	498.76385487528347	78	127
498.7754648526077	498.9380045351474	75	127
498.7754648526077	498.9380045351474	71	127
498.7754648526077	498.9380045351474	66	127
498.9380045351474	499.4836734693878	64	127
498.9380045351474	499.1121541950113	61	127
498.9380045351474	499.1702040816327	76	127
498.9380045351474	499.6578231292517	56	127
499.1121541950113	499.27469387755104	58	127
499.28630385487526	499.5417233560091	59	127
499.28630385487526	499.4836734693878	74	127
499.4836734693878	499.6578231292517	62	127
499.4836734693878	499.6578231292517	71	127
499.6578231292517	499.8784126984127	57	127
499.6578231292517	499.8784126984127	61	127
499.6578231292517	500.05256235827665	73	127
499.6578231292517	500.18027210884355	57	127
499.9829024943311	500.18027210884355	62	127
499.9829024943311	500.18027210884355	59	127
500.18027210884355	500.3428117913832	61	127
500.18027210884355	500.3428117913832	64	127
500.18027210884355	500.51696145124714	44	127
500.18027210884355	501.22517006802724	73	127
500.3544217687075	500.51696145124714	62	127
500.3544217687075	500.51696145124714	59	127
500.51696145124714	501.22517006802724	45	127
500.51696145124714	500.6911111111111	61	127
500.51696145124714	500.6911111111111	57	127
500.6911111111111	501.22517006802724	62	127
500.6911111111111	501.22517006802724	59	127
501.23678004535145	501.4341496598639	64	127
501.23678004535145	501.4341496598639	57	127
501.23678004535145	501.4341496598639	71	127
501.23678004535145	501.6547392290249	49	127
501.4341496598639	501.6547392290249	69	127
501.6547392290249	502.00303854875284	49	127
501.6547392290249	501.8404988662131	68	127
501.6547392290249	501.8404988662131	57	127
501.8404988662131	502.00303854875284	56	127
501.8404988662131	502.00303854875284	65	127
502.00303854875284	502.3048979591837	66	127
502.00303854875284	502.2468480725624	54	127
502.00303854875284	502.45582766439907	50	127
502.2584580498866	502.45582766439907	56	127
502.45582766439907	502.6648072562358	57	127
502.45582766439907	502.94344671201816	54	127
502.9550566893424	503.64004535147393	74	127
502.9550566893424	503.1175963718821	66	127
502.9550566893424	503.291746031746	46	127
503.1175963718821	503.291746031746	64	127
503.291746031746	503.44267573696146	62	127
503.291746031746	503.64004535147393	47	127
503.45428571428573	503.64004535147393	64	127
503.64004535147393	503.8258049886621	73	127
503.64004535147393	503.8258049886621	66	127
503.64004535147393	503.9883446712018	50	127
503.8258049886621	503.9883446712018	71	127
503.99995464852606	504.3714739229025	51	127
503.99995464852606	504.17410430839004	69	127
503.99995464852606	504.17410430839004	59	127
504.17410430839004	504.3714739229025	57	127
504.17410430839004	504.3714739229025	66	127
504.3714739229025	504.615283446712	68	127
504.3714739229025	504.54562358276644	56	127
504.3714739229025	504.835873015873	52	127
504.5572335600907	504.835873015873	57	127
504.835873015873	505.0680725623583	59	127
504.835873015873	505.3118820861678	56	127
505.3118820861678	505.5092517006803	61	127
505.3118820861678	505.5092517006803	64	127
505.3118820861678	506.1013605442177	76	127
505.5092517006803	505.71823129251703	59	127
505.5092517006803	505.71823129251703	62	127
505.72984126984124	505.9156009070295	61	127
505.72984126984124	505.9156009070295	57	127
505.9156009070295	506.1013605442177	62	127
505.9156009070295	506.1013605442177	59	127
506.1013605442177	506.2755102040816	74	127
506.1013605442177	506.2755102040816	64	127
506.1013605442177	506.2755102040816	61	127
506.2871201814059	506.4612698412698	73	127
506.4612698412698	506.6354195011338	71	127
506.4612698412698	506.79795918367347	57	127
506.4612698412698	506.79795918367347	54	127
506.6354195011338	506.79795918367347	68	127
506.80956916099774	507.2855782312925	56	127
506.80956916099774	507.3552380952381	69	127
507.2855782312925	507.4597278911565	53	127
507.4597278911565	507.6919274376417	54	127
507.8660770975057	508.2259863945578	63	127
507.8660770975057	508.02861678004535	73	127
507.8660770975057	508.2259863945578	54	127
508.02861678004535	508.2259863945578	70	127
508.2259863945578	508.5394557823129	71	127
508.2259863945578	508.48140589569164	49	127
508.48140589569164	508.6439455782313	46	127
508.65555555555557	508.89936507936505	47	127
509.0502947845805	509.2360544217687	69	127
509.0502947845805	509.4102040816326	59	127
509.0502947845805	509.4102040816326	64	127
509.0502947845805	509.4102040816326	52	127
509.24766439909297	509.4102040816326	66	127
509.4102040816326	509.6424036281179	54	127
509.4102040816326	509.70045351473925	68	127
509.6424036281179	509.8281632653061	51	127
509.8397732426304	510.0835827664399	52	127
510.3622222222222	511.2445804988662	81	127
510.3622222222222	511.2445804988662	69	127
510.3622222222222	510.75696145124715	53	127
510.75696145124715	511.2445804988662	54	127
511.2445804988662	511.6857596371882	57	127
511.2445804988662	511.4071201814059	80	127
511.2445804988662	511.4071201814059	68	127
511.4071201814059	511.6857596371882	66	127
511.4071201814059	511.6857596371882	78	127
511.69736961451247	511.8715192743764	64	127
511.69736961451247	511.8715192743764	76	127
511.69736961451247	512.0572789115646	58	127
511.8715192743764	512.0572789115646	73	127
511.8715192743764	512.0572789115646	61	127
512.0572789115646	512.3475283446712	74	127
512.0572789115646	512.3475283446712	62	127
512.0572789115646	512.2894784580499	73	127
512.0572789115646	512.4868480725623	59	127
512.3010884353741	512.4868480725623	70	127
512.4868480725623	512.8351247165533	62	127
512.4868480725623	512.7306575963719	71	127
512.8467346938776	513.0092970521542	66	127
512.8467346938776	513.0092970521542	78	127
512.8467346938776	513.2066666666667	54	127
513.0092970521542	513.2066666666667	63	127
513.0092970521542	513.2066666666667	75	127
513.2066666666667	513.4040362811792	66	127
513.2066666666667	513.485306122449	76	127
513.2066666666667	513.485306122449	59	127
513.2066666666667	513.485306122449	64	127
513.2066666666667	513.6014058956916	56	127
513.4156462585034	513.6014058956916	62	127
513.6014058956916	513.9380952380952	59	127
513.6014058956916	513.8336054421769	64	127
513.9497052154195	514.1238548752834	62	127
513.9497052154195	514.1238548752834	74	127
513.9497052154195	514.2863718820862	44	127
514.1238548752834	514.2863718820862	71	127
514.1238548752834	514.2863718820862	59	127
514.2863718820862	514.7740136054422	45	127
514.2863718820862	514.5069841269841	59	127
514.2863718820862	514.6346938775511	73	127
514.2863718820862	514.6346938775511	61	127
514.5069841269841	514.7740136054422	56	127
514.7740136054422	515.0526530612245	57	127
514.7740136054422	515.2035827664399	49	127
515.2035827664399	516.1323809523809	73	127
515.2035827664399	516.1323809523809	57	127
515.2035827664399	516.1323809523809	45	127
516.1323809523809	516.2949206349207	71	127
516.1323809523809	516.2949206349207	56	127
516.1323809523809	516.2949206349207	44	127
516.306507936508	516.5039002267574	69	127
516.306507936508	516.5039002267574	54	127
516.306507936508	516.5039002267574	42	127
516.5039002267574	516.6664399092971	68	127
516.5039002267574	516.6664399092971	52	127
516.5039002267574	516.6664399092971	40	127
516.6664399092971	516.9334467120182	65	127
516.6664399092971	516.9334467120182	49	127
516.6664399092971	516.9334467120182	37	127
516.9450793650793	517.1540589569161	80	127
516.9450793650793	517.2121088435374	66	127
516.9450793650793	517.2121088435374	50	127
516.9450793650793	517.2121088435374	38	127
517.1540589569161	517.3165986394558	77	127
517.3165986394558	517.5487755102041	78	127
517.6532879818594	517.8738775510204	69	127
517.6532879818594	517.8738775510204	54	127
517.6532879818594	517.8738775510204	42	127
517.8854875283447	518.1060770975057	66	127
517.8854875283447	518.1060770975057	51	127
517.8854875283447	518.1060770975057	39	127
518.1060770975057	518.3150566893424	78	127
518.1060770975057	518.4195464852608	68	127
518.1060770975057	518.4195464852608	52	127
518.1060770975057	518.4195464852608	40	127
518.3150566893424	518.5240362811792	75	127
518.5356462585034	518.7330158730159	76	127
518.8375056689342	519.0697052154195	71	127
518.8375056689342	519.0697052154195	62	127
518.8375056689342	519.0697052154195	50	127
519.0813151927438	519.3019047619048	68	127
519.0813151927438	519.3019047619048	59	127
519.0813151927438	519.3019047619048	47	127
519.3019047619048	519.5224943310658	78	127
519.3019047619048	519.5921315192744	69	127
519.3019047619048	519.5921315192744	61	127
519.3019047619048	519.5921315192744	49	127
519.5224943310658	519.7314739229025	75	127
519.8011111111111	519.9752834467121	76	127
519.9752834467121	520.4396825396825	85	127
520.4396825396825	521.1130612244898	85	127
520.4396825396825	520.6138095238096	74	127
520.4396825396825	520.6138095238096	71	127
520.6138095238096	520.7763718820862	71	127
520.6138095238096	520.7763718820862	68	127
520.7763718820862	521.1130612244898	73	127
520.7763718820862	521.1130612244898	69	127
521.1130612244898	521.2756009070295	83	127
521.1130612244898	521.4381179138322	76	127
521.1130612244898	521.4381179138322	73	127
521.2756009070295	521.4381179138322	81	127
521.4497505668934	521.9025396825397	61	127
521.4497505668934	521.9025396825397	65	127
521.4497505668934	522.2508163265306	81	127
521.4497505668934	522.2508163265306	69	127
521.9025396825397	522.2508163265306	62	127
521.9025396825397	522.2508163265306	66	127
522.2508163265306	522.7036281179138	69	127
522.2508163265306	522.4365986394558	80	127
522.2508163265306	522.4365986394558	68	127
522.2508163265306	522.7036281179138	66	127
522.4365986394558	522.7036281179138	66	127
522.4365986394558	522.7036281179138	78	127
522.7152380952381	522.8777777777777	76	127
522.7152380952381	523.4234467120182	86	127
522.7152380952381	522.8777777777777	73	127
522.8777777777777	523.0519274376418	70	127
522.8777777777777	523.0519274376418	73	127
523.0519274376418	523.4234467120182	74	127
523.0519274376418	523.4234467120182	71	127
523.4234467120182	523.7833560090703	78	127
523.4234467120182	523.5859863945578	85	127
523.4234467120182	523.7833560090703	74	127
523.5859863945578	523.7833560090703	83	127
523.7833560090703	524.1548752834467	63	127
523.7833560090703	524.5031519274377	83	127
523.7833560090703	524.1548752834467	66	127
523.7833560090703	524.5031519274377	71	127
524.166485260771	524.5031519274377	68	127
524.166485260771	524.5031519274377	64	127
524.5031519274377	525.0720634920635	71	127
524.5031519274377	524.7121315192744	81	127
524.5031519274377	524.7121315192744	69	127
524.5031519274377	525.0720634920635	68	127
524.7237641723356	525.0720634920635	68	127
524.7237641723356	525.0720634920635	80	127
525.0720634920635	525.490022675737	60	127
525.0720634920635	525.490022675737	48	127
525.0720634920635	525.8963718820862	88	127
525.0720634920635	525.8963718820862	76	127
525.5016326530613	525.8963718820862	61	127
525.5016326530613	525.8963718820862	49	127
525.8963718820862	526.105351473923	86	127
525.8963718820862	526.105351473923	74	127
525.8963718820862	526.3027210884354	64	127
525.8963718820862	526.3027210884354	52	127
526.1169614512472	526.3027210884354	73	127
526.1169614512472	526.3027210884354	85	127
526.3027210884354	526.4652607709751	71	127
526.3027210884354	526.639410430839	53	127
526.3027210884354	526.4652607709751	83	127
526.3027210884354	526.639410430839	65	127
526.4652607709751	526.639410430839	80	127
526.4652607709751	526.639410430839	68	127
526.639410430839	526.9296598639456	69	127
526.639410430839	526.9296598639456	81	127
526.639410430839	527.0573696145125	66	127
526.639410430839	527.0573696145125	54	127
527.0689795918368	527.254739229025	81	127
527.0689795918368	527.254739229025	73	127
527.0689795918368	527.4288888888889	61	127
527.0689795918368	527.4288888888889	57	127
527.254739229025	527.4288888888889	80	127
527.254739229025	527.4288888888889	76	127
527.4288888888889	527.695918367347	69	127
527.4288888888889	527.6030385487528	80	127
527.4288888888889	527.8004081632653	49	127
527.4288888888889	527.8004081632653	37	127
527.6030385487528	527.8004081632653	77	127
527.8120181405895	528.0674376417234	69	127
527.8120181405895	528.0674376417234	78	127
527.8120181405895	528.2067573696145	50	127
527.8120181405895	528.2067573696145	38	127
528.2067573696145	528.5898639455783	42	127
528.2067573696145	528.4273469387755	78	127
528.2067573696145	528.4273469387755	70	127
528.2067573696145	528.5898639455783	54	127
528.4273469387755	528.5898639455783	76	127
528.4273469387755	528.5898639455783	73	127
528.5898639455783	528.9730158730159	46	127
528.5898639455783	528.798843537415	76	127
528.5898639455783	528.8569160997732	66	127
528.5898639455783	528.9730158730159	58	127
528.798843537415	528.9730158730159	73	127
528.9846031746032	529.2168253968254	66	127
528.9846031746032	529.2168253968254	74	127
528.9846031746032	529.3561451247166	59	127
528.9846031746032	529.3561451247166	47	127
529.3793650793651	529.5302947845805	68	127
529.3793650793651	529.5302947845805	88	127
529.3793650793651	529.727664399093	52	127
529.3793650793651	529.727664399093	40	127
529.5651247165533	529.727664399093	86	127
529.5651247165533	529.727664399093	71	127
529.7392743764173	530.0527437641723	56	127
529.7392743764173	529.8902040816326	86	127
529.7392743764173	529.8902040816326	64	127
529.7392743764173	530.0527437641723	44	127
529.9018140589569	530.0527437641723	83	127
529.9018140589569	530.0527437641723	71	127
530.0643537414966	530.3197732426304	85	127
530.0643537414966	530.3197732426304	64	127
530.0643537414966	530.5984126984127	57	127
530.0643537414966	530.5984126984127	45	127
530.5984126984127	530.8538321995464	86	127
530.5984126984127	530.8538321995464	66	127
530.5984126984127	531.8058503401361	66	127
530.5984126984127	531.0163718820862	70	127
530.8538321995464	531.0163718820862	64	127
530.8538321995464	531.0163718820862	85	127
531.0163718820862	531.2021315192744	64	127
531.0163718820862	531.2021315192744	85	127
531.0163718820862	531.4343310657597	73	127
531.2021315192744	531.4343310657597	82	127
531.2021315192744	531.4343310657597	61	127
531.4343310657597	531.6897505668934	62	127
531.4343310657597	531.8058503401361	78	127
531.4343310657597	531.6897505668934	83	127
531.8058503401361	532.908798185941	64	127
531.8058503401361	531.98	85	127
531.8058503401361	531.98	68	127
531.8058503401361	531.98	64	127
531.98	532.2238095238096	83	127
531.98	532.2238095238096	62	127
532.2238095238096	532.3863492063492	83	127
532.2238095238096	532.3863492063492	62	127
532.2238095238096	532.5488888888889	71	127
532.3863492063492	532.5488888888889	80	127
532.3863492063492	532.5488888888889	59	127
532.5488888888889	532.908798185941	76	127
532.5488888888889	532.7694784580499	81	127
532.5488888888889	532.7694784580499	61	127
532.908798185941	533.129387755102	86	127
532.908798185941	533.129387755102	59	127
532.908798185941	533.129387755102	56	127
532.908798185941	533.1874376417234	40	127
533.129387755102	533.3615873015873	85	127
533.129387755102	533.3615873015873	61	127
533.129387755102	533.3615873015873	57	127
533.3615873015873	533.6170068027211	85	127
533.3615873015873	533.6170068027211	61	127
533.3615873015873	533.6170068027211	57	127
533.3615873015873	533.6750566893425	40	127
533.6286167800454	533.7795464852608	82	127
533.6286167800454	533.7795464852608	64	127
533.6286167800454	533.7795464852608	52	127
533.791156462585	534.0001360544218	83	127
533.791156462585	534.0001360544218	62	127
533.791156462585	534.0001360544218	56	127
533.791156462585	534.0001360544218	52	127
534.1975056689342	534.3484353741496	85	127
534.1975056689342	534.3484353741496	64	127
534.1975056689342	534.3484353741496	52	127
534.1975056689342	534.406485260771	40	127
534.3600453514739	534.5458049886621	83	127
534.3600453514739	534.5458049886621	68	127
534.3600453514739	534.5458049886621	50	127
534.5690249433106	534.7663945578231	83	127
534.5690249433106	534.7663945578231	68	127
534.5690249433106	534.7663945578231	50	127
534.5690249433106	534.8941043083901	40	127
534.847664399093	535.0102040816327	80	127
534.847664399093	535.0102040816327	71	127
534.847664399093	535.0102040816327	52	127
535.0102040816327	535.6951927437642	81	127
535.0102040816327	535.6951927437642	64	127
535.0102040816327	535.6951927437642	69	127
535.0102040816327	535.6951927437642	49	127
535.0102040816327	535.6951927437642	45	127
535.8693424036281	536.0318820861678	78	127
535.8693424036281	536.0318820861678	69	127
536.0318820861678	536.1944217687075	76	127
536.0318820861678	536.1944217687075	68	127
536.1944217687075	536.3569387755102	68	127
536.1944217687075	536.3569387755102	76	127
536.3569387755102	536.5195011337869	73	127
536.3569387755102	536.5195011337869	64	127
536.5195011337869	536.7400907029479	75	127
536.5195011337869	536.7400907029479	66	127
536.8445804988662	537.0187301587301	57	127
536.8445804988662	537.0187301587301	61	127
537.0187301587301	537.2509297052154	56	127
537.0187301587301	537.2509297052154	59	127
537.2509297052154	537.4250793650793	56	127
537.2509297052154	537.4250793650793	59	127
537.4250793650793	537.5875963718821	53	127
537.4250793650793	537.5875963718821	56	127
537.5875963718821	538.0171882086167	54	127
537.5875963718821	538.0171882086167	57	127
538.1681179138322	538.3306575963719	80	127
538.1681179138322	538.3306575963719	71	127
538.3306575963719	538.4931972789116	78	127
538.3306575963719	538.4931972789116	69	127
538.5048072562358	538.7602267573697	78	127
538.5048072562358	538.7602267573697	69	127
538.7718367346939	538.9343764172336	75	127
538.7718367346939	538.9343764172336	66	127
538.9459863945578	539.2246031746032	76	127
538.9459863945578	539.2246031746032	68	127
539.3407256235828	539.526485260771	59	127
539.3407256235828	539.526485260771	68	127
539.5729251700681	539.7354648526077	57	127
539.5729251700681	539.7354648526077	66	127
539.7702947845805	539.9560544217687	57	127
539.7702947845805	539.9560544217687	66	127
539.9560544217687	540.1302040816327	54	127
539.9560544217687	540.1302040816327	63	127
540.1302040816327	540.3507936507937	56	127
540.1302040816327	540.3507936507937	64	127
540.4552607709751	540.7687528344671	66	127
540.4552607709751	540.7687528344671	62	127
540.4552607709751	540.7687528344671	57	127
540.4552607709751	540.7687528344671	66	127
540.7687528344671	540.9312925170068	68	127
540.7687528344671	540.9312925170068	64	127
540.7687528344671	540.9312925170068	56	127
540.7687528344671	540.9312925170068	64	127
540.9312925170068	541.0938321995465	68	127
540.9312925170068	541.0938321995465	64	127
540.9312925170068	541.0938321995465	56	127
540.9312925170068	541.0938321995465	64	127
541.0938321995465	541.2563492063492	71	127
541.0938321995465	541.2563492063492	68	127
541.0938321995465	541.2563492063492	52	127
541.0938321995465	541.2563492063492	61	127
541.2563492063492	541.4885714285714	69	127
541.2563492063492	541.4885714285714	66	127
541.2563492063492	541.4885714285714	54	127
541.2563492063492	541.4885714285714	63	127
541.5930612244898	541.8252607709751	85	127
541.5930612244898	541.8252607709751	81	127
541.5930612244898	541.8252607709751	54	127
541.5930612244898	541.8252607709751	51	127
541.8252607709751	542.0458503401361	83	127
541.8252607709751	542.0458503401361	80	127
541.8252607709751	542.0458503401361	56	127
541.8252607709751	542.0458503401361	52	127
542.0458503401361	542.2083900226758	83	127
542.0458503401361	542.2083900226758	80	127
542.0458503401361	542.2083900226758	56	127
542.0458503401361	542.2083900226758	52	127
542.2083900226758	542.4986167800454	80	127
542.2083900226758	542.4986167800454	77	127
542.2083900226758	542.4986167800454	59	127
542.2083900226758	542.4986167800454	56	127
542.4986167800454	542.8701587301588	81	127
542.4986167800454	542.8701587301588	78	127
542.4986167800454	542.8701587301588	57	127
542.4986167800454	542.8701587301588	54	127
542.9862585034014	543.148798185941	68	127
542.9862585034014	543.148798185941	64	127
542.9862585034014	543.148798185941	59	127
542.9862585034014	543.148798185941	68	127
543.1604081632653	543.3345578231292	69	127
543.1604081632653	543.3345578231292	66	127
543.1604081632653	543.3345578231292	57	127
543.1604081632653	543.3345578231292	66	127
543.3461678004535	543.6131972789116	69	127
543.3461678004535	543.6131972789116	66	127
543.3461678004535	543.6131972789116	57	127
543.3461678004535	543.6131972789116	66	127
543.6248072562358	543.7757369614512	54	127
543.6248072562358	543.7757369614512	73	127
543.6248072562358	543.7757369614512	69	127
543.6248072562358	543.7757369614512	63	127
543.7873469387755	543.9963265306122	68	127
543.7873469387755	543.9963265306122	71	127
543.7873469387755	543.9963265306122	56	127
543.7873469387755	543.9963265306122	64	127
544.1124263038549	544.2749659863946	86	127
544.1124263038549	544.2749659863946	78	127
544.1124263038549	544.2749659863946	59	127
544.1124263038549	544.2749659863946	56	127
544.2865759637189	544.4607256235828	85	127
544.2865759637189	544.4607256235828	76	127
544.2865759637189	544.4607256235828	61	127
544.2865759637189	544.4607256235828	57	127
544.4607256235828	544.6580952380953	85	127
544.4607256235828	544.6580952380953	76	127
544.4607256235828	544.6580952380953	61	127
544.4607256235828	544.6580952380953	57	127
544.6580952380953	545.0644444444445	82	127
544.6580952380953	545.0644444444445	73	127
544.6580952380953	545.0644444444445	64	127
544.6580952380953	545.0644444444445	61	127
545.0760544217687	545.308253968254	74	127
545.0760544217687	545.308253968254	83	127
545.0760544217687	545.308253968254	62	127
545.0760544217687	545.308253968254	59	127
545.5056235827665	545.6913832199547	88	127
545.5056235827665	545.9003628117914	52	127
545.5056235827665	545.9003628117914	40	127
545.5056235827665	545.6913832199547	85	127
545.6913832199547	545.9003628117914	86	127
545.6913832199547	545.9003628117914	83	127
545.9119727891157	546.1325623582767	76	127
545.9119727891157	546.3531519274377	56	127
545.9119727891157	546.1325623582767	85	127
545.9119727891157	546.3531519274377	44	127
546.1325623582767	546.3531519274377	74	127
546.1325623582767	546.3531519274377	83	127
546.3531519274377	546.6085714285714	81	127
546.3531519274377	546.6085714285714	73	127
546.3531519274377	546.8756009070295	59	127
546.3531519274377	546.8756009070295	47	127
546.6085714285714	546.8756009070295	80	127
546.6085714285714	546.8756009070295	71	127
546.8756009070295	547.072970521542	52	127
546.8756009070295	547.072970521542	64	127
546.8756009070295	547.3748299319728	68	127
546.8756009070295	547.3748299319728	64	127
547.072970521542	547.3748299319728	50	127
547.072970521542	547.3748299319728	62	127
547.3748299319728	547.5838095238096	61	127
547.3748299319728	547.5838095238096	49	127
547.3748299319728	547.8624489795918	71	127
547.3748299319728	547.8624489795918	68	127
547.5953968253968	547.8624489795918	59	127
547.5953968253968	547.8624489795918	47	127
547.8972789115646	548.1875283446713	57	127
547.8972789115646	548.1875283446713	45	127
547.8972789115646	548.884126984127	74	127
547.8972789115646	548.884126984127	71	127
548.1875283446713	548.884126984127	56	127
548.1875283446713	548.884126984127	44	127
548.884126984127	551.484739229025	78	127
548.884126984127	551.484739229025	62	127
548.884126984127	551.484739229025	71	127
548.884126984127	551.484739229025	56	127
548.884126984127	551.484739229025	44	127
552.239410430839	552.8895691609978	66	127
552.239410430839	552.8895691609978	62	127
552.9127664399093	553.0985487528345	64	127
552.9127664399093	553.0985487528345	61	127
553.0985487528345	553.2843083900227	59	127
553.0985487528345	553.2843083900227	62	127
553.2843083900227	554.0157369614512	76	127
553.2843083900227	553.4468480725624	59	127
553.2843083900227	553.4468480725624	62	127
553.2843083900227	554.0157369614512	73	127
553.4584580498866	553.6209977324263	56	127
553.4584580498866	553.6209977324263	59	127
553.6209977324263	553.8880272108844	57	127
553.6209977324263	553.8880272108844	61	127
554.0157369614512	554.1782766439909	74	127
554.0157369614512	554.1782766439909	71	127
554.1898866213152	554.3756462585034	73	127
554.1898866213152	554.3756462585034	69	127
554.3756462585034	554.5497732426304	73	127
554.3756462585034	554.5497732426304	69	127
554.3756462585034	555.0954648526077	62	127
554.3756462585034	555.0954648526077	66	127
554.5497732426304	554.7123356009071	66	127
554.5497732426304	554.7123356009071	69	127
554.7355555555556	554.9677324263039	71	127
554.7355555555556	554.9677324263039	68	127
555.0954648526077	555.3508843537415	64	127
555.0954648526077	555.3508843537415	61	127
555.3624716553288	555.6295238095238	59	127
555.3624716553288	555.6295238095238	62	127
555.6295238095238	555.8501133786848	62	127
555.6295238095238	555.8501133786848	59	127
555.6295238095238	556.4886621315193	73	127
555.6295238095238	556.4886621315193	76	127
555.8501133786848	556.0126530612245	56	127
555.8501133786848	556.0126530612245	59	127
556.0242630385487	556.2912925170068	57	127
556.0242630385487	556.2912925170068	61	127
556.4886621315193	556.6744217687075	74	127
556.4886621315193	556.6744217687075	71	127
556.6860317460317	556.8950113378685	73	127
556.6860317460317	556.8950113378685	69	127
556.8950113378685	557.1039909297052	73	127
556.8950113378685	557.1039909297052	69	127
556.8950113378685	557.6148072562358	76	127
557.1039909297052	557.2781405895691	66	127
557.1039909297052	557.2781405895691	69	127
557.2897505668934	557.4987301587302	68	127
557.2897505668934	557.4987301587302	71	127
557.6148072562358	557.8818594104308	74	127
557.8934693877551	558.1140589569161	73	127
558.1140589569161	558.8919274376417	64	127
558.1140589569161	558.28820861678	74	127
558.1140589569161	558.28820861678	71	127
558.28820861678	558.508798185941	68	127
558.28820861678	558.508798185941	71	127
558.508798185941	558.7526077097506	69	127
558.508798185941	558.7526077097506	73	127
558.8919274376417	559.1473469387755	62	127
559.1473469387755	559.4027664399093	61	127
559.4143764172336	560.1458049886621	64	127
559.4143764172336	559.5769160997733	81	127
559.4143764172336	559.5769160997733	73	127
559.4143764172336	560.1458049886621	52	127
559.5769160997733	559.7626757369615	78	127
559.5769160997733	559.7626757369615	69	127
559.7626757369615	560.006485260771	71	127
559.7626757369615	560.006485260771	80	127
560.1458049886621	560.3547845804989	62	127
560.1458049886621	560.3547845804989	50	127
560.3547845804989	560.5173242630385	61	127
560.3547845804989	560.5173242630385	49	127
560.5637641723356	560.8307936507937	59	127
560.5637641723356	560.8307936507937	47	127
560.5637641723356	561.5157596371882	76	127
560.5637641723356	561.5157596371882	88	127
560.8307936507937	561.0049433106576	44	127
560.8307936507937	561.0049433106576	56	127
561.0049433106576	561.3996825396825	45	127
561.0049433106576	561.3996825396825	57	127
561.5157596371882	561.6899319727892	86	127
561.5157596371882	561.6899319727892	74	127
561.7015192743764	561.8756916099774	85	127
561.7015192743764	561.8756916099774	73	127
561.8756916099774	562.0614512471656	83	127
561.8756916099774	562.0614512471656	71	127
562.0614512471656	562.2472108843538	80	127
562.0614512471656	562.2472108843538	68	127
562.2472108843538	562.5374376417234	59	127
562.2472108843538	562.6187301587302	81	127
562.2472108843538	562.5374376417234	62	127
562.2472108843538	562.6187301587302	69	127
562.5374376417234	562.7464172335601	59	127
562.5374376417234	562.7464172335601	56	127
562.7580498866213	563.1179591836735	61	127
562.7580498866213	563.1179591836735	57	127
563.3501360544218	563.582358276644	56	127
563.3501360544218	563.582358276644	71	127
563.3501360544218	563.582358276644	62	127
563.3501360544218	563.7332879818595	52	127
563.582358276644	564.0003174603174	59	127
563.582358276644	564.0003174603174	64	127
563.582358276644	564.0003174603174	68	127
564.0119274376417	565.6257142857143	45	127
564.0119274376417	565.6257142857143	57	127
564.0119274376417	565.6257142857143	69	127
564.0119274376417	565.6257142857143	61	127
