# onset,offset,note,velocity
0.707437641723356	1.0557142857142856	48	127
0.707437641723356	1.0557142857142856	72	127
0.707437641723356	1.0557142857142856	48	127
1.5317460317460319	2.762380952380952	60	127
2.774013605442177	4.260090702947846	69	127
4.271700680272109	6.407936507936508	67	127
4.271700680272109	6.407936507936508	60	127
6.419546485260771	10.099909297052154	72	127
6.419546485260771	8.114603174603175	69	127
8.126213151927438	10.099909297052154	48	127
8.126213151927438	10.099909297052154	55	127
8.126213151927438	10.099909297052154	64	127
10.15795918367347	11.725283446712018	65	127
10.15795918367347	11.725283446712018	53	127
10.15795918367347	11.725283446712018	60	127
11.736916099773243	14.511700680272108	67	127
11.736916099773243	14.511700680272108	36	127
11.736916099773243	14.511700680272108	55	127
11.736916099773243	14.511700680272108	64	127
14.546530612244897	16.787256235827666	45	127
14.546530612244897	16.787256235827666	65	127
14.546530612244897	16.787256235827666	48	127
14.546530612244897	16.787256235827666	60	127
16.79886621315193	21.106167800453516	60	127
16.79886621315193	21.106167800453516	48	127
16.79886621315193	21.106167800453516	41	127
16.79886621315193	21.106167800453516	65	127
16.79886621315193	21.106167800453516	57	127
21.11777777777778	24.21764172335601	65	127
21.11777777777778	24.21764172335601	48	127
21.11777777777778	24.21764172335601	45	127
21.11777777777778	24.21764172335601	60	127
24.229251700680273	27.828344671201815	64	127
24.229251700680273	27.828344671201815	55	127
24.229251700680273	27.828344671201815	48	127
24.229251700680273	27.828344671201815	60	127
27.839954648526078	31.346167800453514	62	127
27.839954648526078	31.346167800453514	53	127
27.839954648526078	31.346167800453514	50	127
27.839954648526078	31.346167800453514	57	127
31.357777777777777	35.014920634920635	64	127
31.357777777777777	35.014920634920635	48	127
31.357777777777777	35.014920634920635	55	127
31.357777777777777	35.014920634920635	60	127
35.0265306122449	38.75331065759637	48	127
35.0265306122449	38.75331065759637	65	127
35.0265306122449	38.75331065759637	60	127
35.0265306122449	38.75331065759637	45	127
38.77655328798186	40.72702947845805	43	127
38.77655328798186	40.72702947845805	50	127
38.77655328798186	40.72702947845805	59	127
38.77655328798186	43.490204081632655	67	127
40.73863945578231	43.490204081632655	48	127
40.73863945578231	43.490204081632655	64	127
40.73863945578231	43.490204081632655	52	127
43.50181405895692	47.925215419501136	57	127
43.50181405895692	47.925215419501136	50	127
43.50181405895692	47.925215419501136	53	127
43.50181405895692	47.925215419501136	65	127
47.9368253968254	49.121043083900226	81	127
49.13265306122449	50.595510204081634	74	127
50.6071201814059	52.03514739229025	76	127
50.6071201814059	52.03514739229025	69	127
52.04675736961451	55.20467120181406	62	127
52.04675736961451	53.71859410430839	77	127
53.73020408163265	55.20467120181406	59	127
53.73020408163265	55.20467120181406	79	127
53.73020408163265	55.20467120181406	55	127
55.21628117913832	56.992607709750565	55	127
55.21628117913832	56.992607709750565	62	127
55.21628117913832	56.992607709750565	47	127
55.21628117913832	56.992607709750565	77	127
55.21628117913832	56.992607709750565	50	127
57.00421768707483	58.75732426303855	55	127
57.00421768707483	58.75732426303855	52	127
57.00421768707483	58.75732426303855	48	127
57.00421768707483	58.75732426303855	76	127
57.00421768707483	58.75732426303855	67	127
57.00421768707483	58.75732426303855	60	127
58.76893424036281	61.752698412698415	67	127
58.76893424036281	61.752698412698415	50	127
58.76893424036281	61.752698412698415	53	127
58.76893424036281	61.752698412698415	59	127
61.76430839002268	65.09637188208617	67	127
61.76430839002268	65.09637188208617	60	127
61.76430839002268	65.09637188208617	52	127
61.76430839002268	65.09637188208617	48	127
65.10798185941043	68.1962358276644	53	127
65.10798185941043	68.1962358276644	41	127
65.10798185941043	68.1962358276644	69	127
65.10798185941043	68.1962358276644	60	127
68.20784580498866	71.77210884353741	60	127
68.20784580498866	71.77210884353741	67	127
68.20784580498866	71.77210884353741	55	127
68.20784580498866	71.77210884353741	40	127
68.20784580498866	71.77210884353741	72	127
71.83015873015873	75.18544217687075	69	127
71.83015873015873	75.18544217687075	53	127
71.83015873015873	75.18544217687075	41	127
71.83015873015873	75.18544217687075	60	127
75.24349206349207	78.95868480725623	67	127
75.24349206349207	78.95868480725623	52	127
75.24349206349207	78.95868480725623	43	127
75.24349206349207	78.95868480725623	60	127
78.9702947845805	82.38362811791383	65	127
78.9702947845805	82.38362811791383	45	127
78.9702947845805	82.38362811791383	48	127
78.9702947845805	80.5724716553288	60	127
80.86272108843538	82.38362811791383	65	127
82.3952380952381	86.34263038548752	62	127
82.3952380952381	84.29927437641723	55	127
82.3952380952381	84.29927437641723	50	127
82.3952380952381	84.29927437641723	47	127
84.3108843537415	86.34263038548752	59	127
84.3108843537415	86.34263038548752	43	127
84.3108843537415	86.34263038548752	55	127
84.3108843537415	86.34263038548752	53	127
86.3542403628118	91.1259410430839	60	127
86.3542403628118	91.1259410430839	64	127
86.3542403628118	91.1259410430839	52	127
86.3542403628118	91.1259410430839	55	127
86.3542403628118	91.1259410430839	36	127
86.3542403628118	91.1259410430839	43	127
91.13755102040817	92.51913832199547	55	127
92.53074829931973	93.91233560090703	48	127
93.9239455782313	95.38680272108843	55	127
93.9239455782313	95.38680272108843	50	127
95.3984126984127	96.75678004535148	48	127
95.3984126984127	96.75678004535148	52	127
96.76839002267573	98.57954648526078	67	127
96.76839002267573	98.57954648526078	50	127
96.76839002267573	98.57954648526078	53	127
96.76839002267573	98.57954648526078	59	127
98.59115646258503	100.1701133786848	60	127
98.59115646258503	100.1701133786848	52	127
98.59115646258503	100.1701133786848	52	127
98.59115646258503	100.1701133786848	55	127
100.18172335600907	102.14380952380952	62	127
100.18172335600907	102.14380952380952	50	127
100.18172335600907	102.14380952380952	53	127
100.18172335600907	102.14380952380952	59	127
102.15541950113379	104.0014058956916	60	127
102.15541950113379	104.0014058956916	64	127
102.15541950113379	104.0014058956916	52	127
102.15541950113379	104.0014058956916	48	127
104.02462585034013	108.19260770975056	60	127
104.02462585034013	108.19260770975056	52	127
104.02462585034013	108.19260770975056	45	127
104.02462585034013	108.19260770975056	64	127
108.20421768707483	111.76848072562358	72	127
108.20421768707483	111.76848072562358	48	127
108.20421768707483	111.76848072562358	45	127
108.20421768707483	111.76848072562358	64	127
111.78009070294785	115.11215419501134	71	127
111.78009070294785	115.11215419501134	55	127
111.78009070294785	115.11215419501134	52	127
111.78009070294785	115.11215419501134	64	127
115.1237641723356	118.38616780045352	55	127
115.1237641723356	118.38616780045352	48	127
115.1237641723356	118.38616780045352	72	127
115.1237641723356	118.38616780045352	55	127
115.1237641723356	118.38616780045352	64	127
115.1237641723356	118.38616780045352	52	127
118.39777777777778	122.08975056689343	69	127
118.39777777777778	122.08975056689343	60	127
118.39777777777778	122.08975056689343	53	127
118.39777777777778	122.08975056689343	57	127
122.10136054421768	125.09673469387755	71	127
122.10136054421768	125.09673469387755	65	127
122.10136054421768	125.09673469387755	50	127
122.10136054421768	125.09673469387755	53	127
125.10834467120182	128.80031746031747	72	127
125.10834467120182	128.80031746031747	60	127
125.10834467120182	128.80031746031747	64	127
125.10834467120182	128.80031746031747	55	127
125.10834467120182	128.80031746031747	67	127
125.10834467120182	128.80031746031747	48	127
128.8119274376417	133.9087074829932	43	127
128.8119274376417	133.9087074829932	62	127
128.8119274376417	133.9087074829932	74	127
128.8119274376417	133.9087074829932	59	127
128.8119274376417	133.9087074829932	55	127
128.8119274376417	133.9087074829932	67	127
133.9202947845805	135.17419501133787	79	127
135.18580498866214	136.84603174603174	72	127
136.86925170068028	138.13473922902494	67	127
136.86925170068028	138.13473922902494	74	127
138.1463492063492	139.71369614512471	60	127
138.1463492063492	139.71369614512471	76	127
138.1463492063492	139.71369614512471	67	127
139.72530612244898	141.38553287981858	77	127
139.72530612244898	141.38553287981858	62	127
139.72530612244898	141.38553287981858	59	127
139.72530612244898	141.38553287981858	55	127
141.4319501133787	143.09219954648526	60	127
141.4319501133787	143.09219954648526	76	127
141.4319501133787	143.09219954648526	64	127
141.4319501133787	143.09219954648526	48	127
143.10380952380953	144.96138321995466	71	127
143.10380952380953	144.96138321995466	65	127
143.10380952380953	144.96138321995466	53	127
143.10380952380953	144.96138321995466	50	127
144.97301587301587	147.34145124716554	72	127
144.97301587301587	147.34145124716554	60	127
144.97301587301587	147.34145124716554	55	127
144.97301587301587	147.34145124716554	52	127
147.3530612244898	150.5574149659864	72	127
147.3530612244898	150.5574149659864	60	127
147.3530612244898	150.5574149659864	53	127
147.3530612244898	150.5574149659864	45	127
150.56902494331067	153.73854875283448	45	127
150.56902494331067	153.73854875283448	72	127
150.56902494331067	153.73854875283448	60	127
150.56902494331067	153.73854875283448	53	127
153.75013605442177	157.47696145124718	59	127
153.75013605442177	157.47696145124718	53	127
153.75013605442177	157.47696145124718	74	127
153.75013605442177	157.47696145124718	43	127
157.48857142857142	160.37945578231293	67	127
157.48857142857142	160.37945578231293	60	127
157.48857142857142	160.37945578231293	52	127
157.48857142857142	160.37945578231293	48	127
160.3910657596372	163.781179138322	69	127
160.3910657596372	163.781179138322	60	127
160.3910657596372	163.781179138322	53	127
160.3910657596372	163.781179138322	41	127
163.99015873015873	167.70532879818595	53	127
163.99015873015873	167.70532879818595	62	127
163.99015873015873	167.70532879818595	59	127
163.99015873015873	167.70532879818595	43	127
167.72857142857143	169.5281179138322	55	127
167.72857142857143	169.5281179138322	52	127
167.72857142857143	171.74560090702948	64	127
167.72857142857143	171.74560090702948	36	127
169.55133786848072	171.74560090702948	48	127
169.55133786848072	171.74560090702948	55	127
169.55133786848072	171.74560090702948	60	127
171.76884353741497	176.1225850340136	65	127
171.76884353741497	176.1225850340136	41	127
171.76884353741497	176.1225850340136	57	127
171.76884353741497	176.1225850340136	48	127
176.14580498866212	177.6782993197279	72	127
177.6899319727891	178.97863945578231	81	127
178.99024943310658	180.73174603174604	60	127
178.99024943310658	180.73174603174604	76	127
180.74333333333334	182.1829931972789	77	127
180.74333333333334	182.1829931972789	69	127
180.74333333333334	182.1829931972789	48	127
182.19460317460317	184.1102494331066	45	127
182.19460317460317	184.1102494331066	57	127
182.19460317460317	184.1102494331066	77	127
182.19460317460317	184.1102494331066	72	127
184.12185941043083	185.50344671201813	74	127
184.12185941043083	185.50344671201813	57	127
184.12185941043083	185.50344671201813	69	127
184.12185941043083	185.50344671201813	53	127
185.5150566893424	187.54680272108843	55	127
185.5150566893424	187.54680272108843	72	127
185.5150566893424	187.54680272108843	64	127
185.5150566893424	187.54680272108843	55	127
187.5584126984127	190.69310657596372	71	127
187.5584126984127	190.69310657596372	65	127
187.5584126984127	190.69310657596372	62	127
187.5584126984127	190.69310657596372	43	127
190.71632653061224	194.32702947845806	72	127
190.71632653061224	194.32702947845806	65	127
190.71632653061224	194.32702947845806	53	127
190.71632653061224	194.32702947845806	60	127
190.71632653061224	194.32702947845806	45	127
194.3386394557823	197.1366439909297	45	127
194.3386394557823	197.1366439909297	72	127
194.3386394557823	197.1366439909297	65	127
194.3386394557823	197.1366439909297	53	127
194.3386394557823	197.1366439909297	60	127
197.14825396825398	200.7821768707483	59	127
197.14825396825398	200.7821768707483	74	127
197.14825396825398	200.7821768707483	65	127
197.14825396825398	200.7821768707483	43	127
200.80539682539683	203.87043083900227	67	127
200.80539682539683	203.87043083900227	60	127
200.80539682539683	203.87043083900227	64	127
200.80539682539683	203.87043083900227	48	127
203.88204081632654	208.30544217687074	69	127
203.88204081632654	208.30544217687074	57	127
203.88204081632654	208.30544217687074	65	127
203.88204081632654	208.30544217687074	41	127
208.317052154195	211.91614512471656	57	127
208.317052154195	211.91614512471656	65	127
208.317052154195	211.91614512471656	53	127
208.317052154195	211.91614512471656	50	127
211.9277551020408	215.9564172335601	59	127
211.9277551020408	215.9564172335601	50	127
211.9277551020408	215.9564172335601	43	127
211.9277551020408	215.9564172335601	67	127
215.96802721088434	219.2536507936508	64	127
215.96802721088434	217.34961451247165	61	127
215.96802721088434	217.34961451247165	57	127
215.96802721088434	217.34961451247165	45	127
217.60503401360543	218.98662131519274	57	127
217.60503401360543	218.98662131519274	45	127
217.60503401360543	218.98662131519274	69	127
219.26526077097506	220.8790476190476	45	127
219.26526077097506	220.8790476190476	69	127
219.26526077097506	220.8790476190476	57	127
219.26526077097506	221.0183673469388	81	127
221.08802721088435	222.5508843537415	45	127
221.08802721088435	222.70181405895693	81	127
221.08802721088435	222.5508843537415	69	127
221.08802721088435	222.5508843537415	57	127
222.78308390022676	223.31714285714287	38	127
222.78308390022676	224.89609977324264	81	127
222.78308390022676	223.31714285714287	74	127
222.78308390022676	223.31714285714287	54	127
222.78308390022676	223.31714285714287	57	127
223.79315192743763	224.31560090702948	50	127
223.79315192743763	224.31560090702948	66	127
223.79315192743763	224.31560090702948	62	127
224.82643990929705	224.89609977324264	78	127
224.90770975056688	225.30244897959184	49	127
224.90770975056688	225.11668934240362	81	127
224.90770975056688	225.30244897959184	57	127
225.11668934240362	225.221179138322	83	127
225.221179138322	225.32566893424035	81	127
225.32566893424035	225.65074829931973	76	127
225.32566893424035	225.43015873015872	83	127
225.43015873015872	225.51142857142858	81	127
225.51142857142858	225.5694784580499	83	127
225.5694784580499	225.67396825396824	81	127
225.67396825396824	225.98743764172335	64	127
225.67396825396824	225.6855782312925	83	127
225.67396825396824	225.98743764172335	69	127
225.67396825396824	225.98743764172335	61	127
225.6855782312925	225.74362811791383	81	127
225.74362811791383	225.81328798185942	83	127
225.81328798185942	226.01065759637189	69	127
225.81328798185942	225.88294784580498	81	127
225.88294784580498	225.9409977324263	83	127
225.9409977324263	226.01065759637189	81	127
226.01065759637189	226.08031746031747	83	127
226.01065759637189	226.17319727891157	74	127
226.08031746031747	226.14997732426303	81	127
226.14997732426303	226.17319727891157	83	127
226.17319727891157	226.30090702947845	73	127
226.17319727891157	226.20802721088435	81	127
226.20802721088435	226.24285714285713	83	127
226.24285714285713	226.30090702947845	81	127
226.30090702947845	226.48666666666668	71	127
226.30090702947845	226.37056689342404	83	127
226.37056689342404	226.42861678004536	81	127
226.42861678004536	226.48666666666668	83	127
226.48666666666668	226.61437641723356	69	127
226.48666666666668	226.55632653061224	81	127
226.55632653061224	226.6027664399093	83	127
226.6027664399093	226.61437641723356	81	127
226.61437641723356	226.6608163265306	83	127
226.61437641723356	226.76530612244898	71	127
226.6608163265306	226.6956462585034	81	127
226.6956462585034	226.76530612244898	83	127
226.76530612244898	226.83496598639456	81	127
226.76530612244898	226.9742857142857	73	127
226.83496598639456	226.90462585034012	83	127
226.90462585034012	226.9742857142857	81	127
226.9742857142857	227.43868480725624	54	127
226.9742857142857	227.05555555555554	83	127
226.9742857142857	227.43868480725624	74	127
226.9742857142857	227.43868480725624	47	127
227.05555555555554	227.14843537414967	81	127
227.14843537414967	227.2297052154195	83	127
227.2297052154195	227.2993650793651	81	127
227.2993650793651	227.38063492063492	83	127
227.38063492063492	227.4502947845805	81	127
227.4502947845805	227.51995464852607	83	127
227.51995464852607	227.58961451247166	81	127
227.58961451247166	227.65927437641724	83	127
227.65927437641724	227.7289342403628	81	127
227.7289342403628	227.7985941043084	83	127
227.7985941043084	227.86825396825398	81	127
227.86825396825398	228.26299319727892	62	127
227.86825396825398	227.93791383219954	83	127
227.86825396825398	228.26299319727892	66	127
227.86825396825398	228.26299319727892	59	127
227.86825396825398	228.26299319727892	62	127
227.93791383219954	228.00757369614513	81	127
228.00757369614513	228.0772335600907	83	127
228.0772335600907	228.14689342403628	81	127
228.14689342403628	228.21655328798187	83	127
228.21655328798187	228.28621315192743	81	127
228.28621315192743	228.35587301587302	83	127
228.35587301587302	228.4255328798186	81	127
228.4255328798186	228.49519274376416	83	127
228.49519274376416	228.56485260770975	81	127
228.56485260770975	228.58807256235826	83	127
228.58807256235826	228.65773242630385	81	127
228.65773242630385	228.69256235827663	83	127
228.65773242630385	228.9247619047619	74	127
228.69256235827663	228.71578231292517	83	127
228.71578231292517	228.7390022675737	81	127
228.7390022675737	228.797052154195	83	127
228.797052154195	228.80866213151927	81	127
228.80866213151927	228.8667120181406	83	127
228.8667120181406	228.93637188208618	81	127
228.93637188208618	229.00603174603174	83	127
228.93637188208618	229.29628117913833	45	127
228.93637188208618	229.29628117913833	54	127
229.00603174603174	229.07569160997733	81	127
229.07569160997733	229.14535147392291	83	127
229.14535147392291	229.21501133786848	81	127
229.21501133786848	229.238231292517	83	127
229.238231292517	229.29628117913833	81	127
229.29628117913833	229.55170068027212	73	127
229.29628117913833	229.31950113378684	83	127
229.31950113378684	229.38916099773243	81	127
229.38916099773243	229.41238095238094	83	127
229.41238095238094	229.458820861678	81	127
229.458820861678	229.52848072562358	83	127
229.52848072562358	229.55170068027212	81	127
229.55170068027212	229.93482993197279	57	127
229.55170068027212	229.6097505668934	83	127
229.55170068027212	229.93482993197279	73	127
229.55170068027212	229.93482993197279	66	127
229.6097505668934	229.679410430839	81	127
229.679410430839	229.73746031746032	83	127
229.73746031746032	229.94643990929706	66	127
229.73746031746032	229.8071201814059	81	127
229.8071201814059	229.87678004535147	83	127
229.87678004535147	229.94643990929706	81	127
229.94643990929706	230.01609977324264	83	127
229.94643990929706	230.14380952380952	71	127
230.01609977324264	230.07414965986393	81	127
230.07414965986393	230.14380952380952	83	127
230.14380952380952	230.27151927437643	69	127
230.14380952380952	230.1786394557823	81	127
230.1786394557823	230.22507936507935	83	127
230.22507936507935	230.27151927437643	81	127
230.27151927437643	230.41083900226758	67	127
230.27151927437643	230.341179138322	83	127
230.341179138322	230.37600907029477	81	127
230.37600907029477	230.41083900226758	83	127
230.41083900226758	230.52693877551022	66	127
230.41083900226758	230.4688888888889	81	127
230.4688888888889	230.50371882086168	83	127
230.50371882086168	230.52693877551022	81	127
230.52693877551022	230.70108843537415	67	127
230.52693877551022	230.57337868480727	83	127
230.57337868480727	230.64303854875283	81	127
230.64303854875283	230.77074829931973	79	127
230.70108843537415	230.88684807256234	69	127
230.77074829931973	230.8984580498866	81	127
230.91006802721088	231.33963718820863	83	127
230.91006802721088	231.33963718820863	62	127
230.91006802721088	231.33963718820863	59	127
230.91006802721088	231.33963718820863	43	127
231.7808163265306	232.17555555555555	74	127
231.7808163265306	232.17555555555555	55	127
231.7808163265306	232.17555555555555	62	127
231.7808163265306	232.17555555555555	71	127
231.7808163265306	232.17555555555555	55	127
232.48902494331065	232.74444444444444	83	127
232.7560544217687	233.13918367346938	69	127
232.7560544217687	233.13918367346938	62	127
232.7560544217687	233.13918367346938	54	127
233.15079365079364	233.35977324263038	81	127
233.35977324263038	233.75451247165532	74	127
233.35977324263038	233.75451247165532	81	127
233.35977324263038	233.75451247165532	66	127
233.55714285714285	233.70807256235827	81	127
233.77773242630386	233.917052154195	83	127
233.9867120181406	234.05637188208615	85	127
234.11442176870747	235.50761904761904	47	127
234.11442176870747	234.25374149659865	86	127
234.11442176870747	235.50761904761904	50	127
234.3001814058957	234.4162811791383	88	127
234.43950113378685	234.56721088435373	90	127
234.60204081632654	234.74136054421768	91	127
234.78780045351473	235.50761904761904	93	127
235.13609977324262	235.50761904761904	74	127
235.50761904761904	235.7746485260771	69	127
235.50761904761904	236.01845804988662	91	127
235.50761904761904	236.01845804988662	52	127
235.50761904761904	236.01845804988662	49	127
235.7746485260771	236.0300680272109	76	127
236.0300680272109	236.4015873015873	69	127
236.0300680272109	236.70344671201815	90	127
236.0300680272109	236.70344671201815	54	127
236.0300680272109	236.70344671201815	50	127
236.4015873015873	236.7150566893424	74	127
236.7150566893424	237.00530612244899	88	127
236.7150566893424	237.00530612244899	73	127
236.7150566893424	237.33038548752833	57	127
236.7150566893424	237.33038548752833	52	127
237.00530612244899	237.3419954648526	61	127
237.00530612244899	237.3419954648526	76	127
237.3419954648526	238.43333333333334	52	127
237.3419954648526	238.43333333333334	83	127
237.3419954648526	238.0037641723356	44	127
237.3419954648526	237.66707482993198	62	127
237.66707482993198	238.0037641723356	64	127
238.0037641723356	238.8861224489796	45	127
238.0037641723356	238.43333333333334	61	127
238.43333333333334	238.87451247165532	64	127
238.43333333333334	238.87451247165532	55	127
238.43333333333334	238.87451247165532	81	127
238.89773242630386	239.35052154195012	66	127
238.89773242630386	238.99061224489796	83	127
238.89773242630386	239.35052154195012	74	127
238.89773242630386	239.35052154195012	38	127
238.89773242630386	239.35052154195012	54	127
238.99061224489796	239.0718820861678	81	127
239.0718820861678	239.14154195011338	83	127
239.14154195011338	239.2228117913832	81	127
239.2228117913832	239.2924716553288	83	127
239.2924716553288	239.37374149659863	81	127
239.37374149659863	239.44340136054421	83	127
239.44340136054421	239.52467120181407	81	127
239.52467120181407	239.54789115646258	83	127
239.54789115646258	239.58272108843536	81	127
239.58272108843536	239.65238095238095	83	127
239.65238095238095	239.73365079365078	81	127
239.73365079365078	240.1748299319728	66	127
239.73365079365078	239.81492063492064	83	127
239.73365079365078	240.1748299319728	62	127
239.73365079365078	240.1748299319728	50	127
239.81492063492064	239.8845804988662	81	127
239.8845804988662	239.96585034013606	83	127
239.96585034013606	240.03551020408165	81	127
240.03551020408165	240.11678004535148	83	127
240.11678004535148	240.18643990929706	81	127
240.18643990929706	240.2677097505669	83	127
240.2677097505669	240.33736961451248	81	127
240.33736961451248	240.4186394557823	83	127
240.4186394557823	240.4882993197279	81	127
240.4882993197279	240.79015873015874	78	127
240.4882993197279	240.54634920634922	81	127
240.54634920634922	240.65083900226756	80	127
240.65083900226756	240.801768707483	81	127
240.801768707483	241.2081179138322	52	127
240.801768707483	241.2081179138322	81	127
240.801768707483	241.2081179138322	49	127
241.21972789115645	241.32421768707482	57	127
241.21972789115645	241.32421768707482	76	127
241.3358276643991	241.76539682539683	69	127
241.3358276643991	241.76539682539683	61	127
241.53319727891156	241.77700680272108	69	127
241.77700680272108	242.19496598639455	88	127
241.77700680272108	241.9859863945578	74	127
241.9859863945578	242.02081632653062	73	127
242.02081632653062	242.2181859410431	71	127
242.2181859410431	242.39233560090702	69	127
242.2181859410431	242.3110657596372	86	127
242.3110657596372	242.38072562358278	85	127
242.39233560090702	242.50843537414966	83	127
242.39233560090702	242.57809523809524	71	127
242.57809523809524	242.7174149659864	81	127
242.57809523809524	242.76385487528344	73	127
242.78707482993198	243.2166439909297	50	127
242.78707482993198	242.8683446712018	83	127
242.78707482993198	243.2166439909297	74	127
242.78707482993198	243.2166439909297	47	127
242.8683446712018	242.9380045351474	81	127
242.9380045351474	243.00766439909296	83	127
243.00766439909296	243.1005442176871	81	127
243.1005442176871	243.17020408163265	83	127
243.17020408163265	243.23986394557824	81	127
243.23986394557824	243.3095238095238	83	127
243.3095238095238	243.37918367346938	81	127
243.37918367346938	243.44884353741497	83	127
243.44884353741497	243.51850340136053	81	127
243.51850340136053	243.58816326530612	83	127
243.58816326530612	243.6578231292517	81	127
243.6578231292517	244.05256235827665	62	127
243.6578231292517	243.72748299319727	83	127
243.6578231292517	244.05256235827665	62	127
243.6578231292517	244.05256235827665	59	127
243.72748299319727	243.7855328798186	81	127
243.7855328798186	243.85519274376418	83	127
243.85519274376418	243.92485260770974	81	127
243.92485260770974	243.99451247165533	83	127
243.99451247165533	244.06417233560092	81	127
244.06417233560092	244.13383219954648	83	127
244.13383219954648	244.20349206349206	81	127
244.20349206349206	244.27315192743765	83	127
244.27315192743765	244.3428117913832	81	127
244.3428117913832	244.4124716553288	83	127
244.4124716553288	244.47052154195012	81	127
244.47052154195012	244.49374149659863	83	127
244.47052154195012	244.6330612244898	86	127
244.49374149659863	244.55179138321995	81	127
244.55179138321995	244.598231292517	80	127
244.598231292517	244.6330612244898	81	127
244.64467120181405	245.0045804988662	45	127
244.64467120181405	245.0045804988662	81	127
244.64467120181405	245.0045804988662	54	127
245.02780045351474	245.20195011337867	66	127
245.02780045351474	245.20195011337867	85	127
245.21356009070294	245.59668934240364	66	127
245.21356009070294	245.59668934240364	57	127
245.42253968253968	245.61990929705215	78	127
245.61990929705215	245.82888888888888	83	127
245.61990929705215	246.11913832199548	85	127
245.82888888888888	246.03786848072562	81	127
246.03786848072562	246.11913832199548	79	127
246.11913832199548	246.16557823129253	83	127
246.11913832199548	246.24684807256236	78	127
246.16557823129253	246.2352380952381	81	127
246.24684807256236	246.62997732426305	57	127
246.24684807256236	246.37455782312927	79	127
246.24684807256236	246.43260770975056	79	127
246.24684807256236	246.62997732426305	60	127
246.24684807256236	246.62997732426305	62	127
246.43260770975056	246.62997732426305	81	127
246.43260770975056	246.57192743764173	78	127
246.6415873015873	247.10598639455782	55	127
246.6415873015873	247.10598639455782	83	127
246.6415873015873	247.10598639455782	71	127
246.6415873015873	247.10598639455782	43	127
247.44267573696146	247.79097505668935	55	127
247.44267573696146	247.79097505668935	83	127
247.44267573696146	247.79097505668935	71	127
247.44267573696146	247.79097505668935	62	127
247.44267573696146	247.79097505668935	55	127
248.16249433106577	248.5224036281179	83	127
248.53401360544217	248.84748299319727	69	127
248.53401360544217	248.84748299319727	57	127
248.53401360544217	248.84748299319727	62	127
248.53401360544217	248.84748299319727	42	127
248.8126530612245	248.8707029478458	83	127
248.8707029478458	249.07968253968255	81	127
249.07968253968255	249.2886621315193	80	127
249.2886621315193	249.57891156462586	54	127
249.2886621315193	249.57891156462586	81	127
249.2886621315193	249.57891156462586	74	127
249.45120181405895	249.5324716553288	81	127
249.55569160997732	249.57891156462586	81	127
249.59052154195012	249.79950113378686	83	127
249.79950113378686	249.83433106575964	85	127
249.8459410430839	249.89238095238096	85	127
249.89238095238096	251.11142857142858	47	127
249.89238095238096	250.11297052154194	86	127
249.89238095238096	251.11142857142858	50	127
250.11297052154194	250.26390022675736	88	127
250.27551020408163	250.32195011337868	88	127
250.32195011337868	250.43804988662131	90	127
250.43804988662131	250.54253968253968	91	127
250.55414965986395	251.12303854875285	93	127
250.77473922902493	250.821179138322	73	127
250.821179138322	251.11142857142858	74	127
251.12303854875285	251.8312471655329	52	127
251.12303854875285	251.8312471655329	49	127
251.12303854875285	251.84285714285716	91	127
251.4132879818594	251.47133786848073	80	127
251.47133786848073	251.81963718820862	81	127
251.84285714285716	252.52784580498866	90	127
251.84285714285716	252.52784580498866	54	127
251.84285714285716	252.52784580498866	50	127
252.144716553288	252.19115646258504	68	127
252.19115646258504	252.52784580498866	69	127
252.52784580498866	254.81501133786847	52	127
252.52784580498866	252.84131519274376	88	127
252.52784580498866	253.22444444444446	61	127
252.52784580498866	253.22444444444446	52	127
252.80648526077098	252.84131519274376	68	127
252.84131519274376	253.2128344671202	69	127
252.84131519274376	253.13156462585033	76	127
253.16639455782314	253.41020408163266	76	127
253.22444444444446	253.85138321995464	62	127
253.22444444444446	253.85138321995464	44	127
253.22444444444446	254.3390022675737	83	127
253.41020408163266	253.4566439909297	63	127
253.4566439909297	253.83977324263037	64	127
253.8629931972789	254.3390022675737	45	127
253.8629931972789	254.3390022675737	61	127
254.28095238095239	254.3390022675737	75	127
254.3390022675737	254.80340136054423	76	127
254.3390022675737	254.57120181405895	81	127
254.3390022675737	254.81501133786847	62	127
254.3390022675737	254.81501133786847	47	127
254.57120181405895	254.81501133786847	80	127
254.82662131519274	255.12848072562358	52	127
254.82662131519274	255.12848072562358	49	127
254.82662131519274	255.6857596371882	79	127
254.82662131519274	255.6857596371882	76	127
255.25619047619048	255.5696598639456	61	127
255.25619047619048	255.5696598639456	64	127
255.69736961451247	256.38235827664397	69	127
255.9992290249433	256.38235827664397	62	127
255.9992290249433	256.38235827664397	59	127
256.39396825396824	256.46362811791386	67	127
256.46362811791386	256.5332879818594	69	127
256.5332879818594	256.602947845805	67	127
256.602947845805	256.64938775510205	69	127
256.64938775510205	256.6726077097506	67	127
256.6726077097506	256.7190476190476	69	127
256.7190476190476	257.1370068027211	61	127
256.7190476190476	256.80031746031744	67	127
256.7190476190476	257.1370068027211	64	127
256.80031746031744	256.86997732426306	69	127
256.86997732426306	256.9396371882086	67	127
256.9396371882086	257.05573696145126	66	127
257.05573696145126	257.1370068027211	67	127
257.1370068027211	258.4837641723356	66	127
257.1370068027211	257.84521541950113	86	127
257.3924036281179	257.84521541950113	57	127
257.3924036281179	257.84521541950113	50	127
257.3924036281179	257.84521541950113	54	127
257.8568253968254	258.4837641723356	79	127
258.06580498866214	258.4837641723356	61	127
258.06580498866214	258.4837641723356	52	127
258.4953741496599	258.55342403628117	78	127
258.55342403628117	258.6230612244898	79	127
258.6230612244898	258.6811337868481	78	127
258.6811337868481	258.7159637188209	79	127
258.7159637188209	258.7624036281179	79	127
258.7624036281179	258.8320408163265	78	127
258.7624036281179	259.1107029478458	62	127
258.7624036281179	259.1107029478458	50	127
258.8320408163265	258.87850340136055	79	127
258.87850340136055	258.9249206349206	78	127
258.9249206349206	259.0178231292517	76	127
259.0178231292517	259.1223129251701	78	127
259.1223129251701	259.3661224489796	49	127
259.1223129251701	259.3661224489796	45	127
259.1223129251701	259.8421315192744	76	127
259.4590022675737	259.73764172335603	57	127
259.4590022675737	259.73764172335603	61	127
259.8537188208617	260.0278911564626	69	127
260.1555782312925	260.4690476190476	69	127
260.1555782312925	260.55034013605444	62	127
260.1555782312925	260.55034013605444	59	127
260.5619274376417	260.6316099773243	67	127
260.6316099773243	260.6780498866213	69	127
260.6780498866213	260.73609977324264	67	127
260.73609977324264	260.7593197278912	69	127
260.7593197278912	260.78253968253966	67	127
260.78253968253966	260.840589569161	69	127
260.840589569161	261.2237188208617	61	127
260.840589569161	260.91024943310657	67	127
260.840589569161	261.2237188208617	64	127
260.91024943310657	260.9682993197279	69	127
260.9682993197279	261.01473922902494	67	127
261.01473922902494	261.1308390022676	66	127
261.1308390022676	261.23532879818595	67	127
261.23532879818595	261.59521541950113	66	127
261.23532879818595	261.943537414966	86	127
261.59521541950113	261.943537414966	66	127
261.59521541950113	261.943537414966	62	127
261.59521541950113	261.95514739229026	74	127
261.95514739229026	262.0596371882086	79	127
261.95514739229026	262.1292970521542	73	127
262.1292970521542	262.5356462585034	64	127
262.1292970521542	262.431156462585	79	127
262.1292970521542	262.5356462585034	73	127
262.1292970521542	262.6168934240363	81	127
262.55886621315193	262.6168934240363	78	127
262.6168934240363	262.7214058956916	76	127
262.6168934240363	262.8375056689342	62	127
262.7214058956916	262.8375056689342	78	127
262.8375056689342	263.3251020408163	74	127
262.8375056689342	263.1045351473923	79	127
262.8375056689342	263.1045351473923	64	127
262.8375056689342	263.3251020408163	62	127
263.1045351473923	263.33673469387753	81	127
263.1045351473923	263.33673469387753	66	127
263.3483446712018	263.4760544217687	82	127
263.4760544217687	263.55732426303854	71	127
263.5805442176871	263.7663038548753	55	127
263.5805442176871	263.7663038548753	71	127
263.5805442176871	263.7663038548753	59	127
263.5805442176871	263.7663038548753	62	127
263.5805442176871	263.7663038548753	55	127
263.7895238095238	263.975283446712	83	127
263.7895238095238	263.975283446712	55	127
263.7895238095238	263.975283446712	71	127
263.7895238095238	263.975283446712	59	127
263.7895238095238	263.975283446712	62	127
263.7895238095238	263.975283446712	55	127
263.99850340136055	264.13782312925173	78	127
264.13782312925173	264.2887528344671	67	127
264.3003628117914	264.4861224489796	62	127
264.3003628117914	264.4861224489796	55	127
264.3003628117914	264.4861224489796	71	127
264.3003628117914	264.4861224489796	59	127
264.3003628117914	264.4861224489796	55	127
264.49773242630386	264.68349206349205	79	127
264.49773242630386	264.68349206349205	55	127
264.49773242630386	264.68349206349205	71	127
264.49773242630386	264.68349206349205	59	127
264.49773242630386	264.68349206349205	62	127
264.49773242630386	264.68349206349205	55	127
264.6951020408163	264.86925170068025	75	127
264.86925170068025	265.0201814058957	64	127
265.0201814058957	265.18272108843536	55	127
265.0201814058957	265.18272108843536	71	127
265.0201814058957	265.18272108843536	64	127
265.0201814058957	265.18272108843536	59	127
265.0201814058957	265.18272108843536	55	127
265.1943310657596	265.3917006802721	76	127
265.1943310657596	265.3917006802721	55	127
265.1943310657596	265.3917006802721	71	127
265.1943310657596	265.3917006802721	64	127
265.1943310657596	265.3917006802721	59	127
265.1943310657596	265.3917006802721	55	127
265.40331065759636	265.58907029478456	74	127
265.58907029478456	265.76321995464855	64	127
265.7748072562358	265.94897959183675	67	127
265.7748072562358	265.94897959183675	69	127
265.7748072562358	265.94897959183675	61	127
265.7748072562358	265.94897959183675	64	127
265.7748072562358	265.94897959183675	57	127
265.9721995464853	266.1231292517007	73	127
265.9721995464853	266.1231292517007	67	127
265.9721995464853	266.1231292517007	69	127
265.9721995464853	266.1231292517007	61	127
265.9721995464853	266.1231292517007	64	127
265.9721995464853	266.1231292517007	57	127
266.1463492063492	266.29725623582766	74	127
266.29725623582766	266.401768707483	64	127
266.4249886621315	266.5875283446712	67	127
266.4249886621315	266.5875283446712	69	127
266.4249886621315	266.5875283446712	61	127
266.4249886621315	266.5875283446712	64	127
266.4249886621315	266.5875283446712	57	127
266.5875283446712	266.7500680272109	76	127
266.5875283446712	266.7500680272109	67	127
266.5875283446712	266.7500680272109	69	127
266.5875283446712	266.7500680272109	61	127
266.5875283446712	266.7500680272109	64	127
266.5875283446712	266.7500680272109	57	127
266.7732879818594	266.9706575963719	78	127
266.9706575963719	267.1215873015873	67	127
267.1448072562358	267.29573696145127	67	127
267.1448072562358	267.29573696145127	69	127
267.1448072562358	267.29573696145127	61	127
267.1448072562358	267.29573696145127	64	127
267.1448072562358	267.29573696145127	57	127
267.29573696145127	267.48149659863947	79	127
267.29573696145127	267.48149659863947	67	127
267.29573696145127	267.48149659863947	69	127
267.29573696145127	267.48149659863947	61	127
267.29573696145127	267.48149659863947	64	127
267.29573696145127	267.48149659863947	57	127
267.49310657596374	267.66725623582767	80	127
267.66725623582767	267.85301587301586	76	127
267.86462585034013	268.0619954648526	69	127
267.86462585034013	268.0619954648526	67	127
267.86462585034013	268.0619954648526	64	127
267.86462585034013	268.0619954648526	55	127
267.86462585034013	268.0619954648526	49	127
268.07360544217687	268.27097505668934	81	127
268.07360544217687	268.27097505668934	67	127
268.07360544217687	268.27097505668934	69	127
268.07360544217687	268.27097505668934	52	127
268.07360544217687	268.27097505668934	55	127
268.07360544217687	268.27097505668934	49	127
268.2825850340136	268.4799546485261	82	127
268.4799546485261	268.5960544217687	76	127
268.607664399093	268.77020408163264	67	127
268.607664399093	268.77020408163264	69	127
268.607664399093	268.77020408163264	52	127
268.607664399093	268.77020408163264	55	127
268.607664399093	268.77020408163264	49	127
268.7818140589569	268.9675736961451	83	127
268.7818140589569	268.9675736961451	67	127
268.7818140589569	268.9675736961451	69	127
268.7818140589569	268.9675736961451	52	127
268.7818140589569	268.9675736961451	55	127
268.7818140589569	268.9675736961451	49	127
268.9791836734694	269.15331065759636	82	127
269.15331065759636	269.2810430839002	76	127
269.2926530612245	269.46678004535147	52	127
269.2926530612245	269.46678004535147	67	127
269.2926530612245	269.46678004535147	69	127
269.2926530612245	269.46678004535147	55	127
269.2926530612245	269.46678004535147	49	127
269.4784126984127	269.65256235827667	81	127
269.4784126984127	269.65256235827667	67	127
269.4784126984127	269.65256235827667	69	127
269.4784126984127	269.65256235827667	52	127
269.4784126984127	269.65256235827667	55	127
269.4784126984127	269.65256235827667	49	127
269.67578231292515	269.8731292517007	82	127
269.8731292517007	270.02408163265306	76	127
270.0473015873016	270.20984126984126	67	127
270.0473015873016	270.20984126984126	69	127
270.0473015873016	270.20984126984126	52	127
270.0473015873016	270.20984126984126	55	127
270.0473015873016	270.20984126984126	49	127
270.22145124716553	270.372380952381	83	127
270.22145124716553	270.372380952381	67	127
270.22145124716553	270.372380952381	69	127
270.22145124716553	270.372380952381	52	127
270.22145124716553	270.372380952381	55	127
270.22145124716553	270.372380952381	49	127
270.39560090702946	270.5813378684807	82	127
270.5813378684807	270.7439002267574	76	127
270.75551020408165	270.9296598639456	67	127
270.75551020408165	270.9296598639456	69	127
270.75551020408165	270.9296598639456	52	127
270.75551020408165	270.9296598639456	55	127
270.75551020408165	270.9296598639456	49	127
270.94126984126984	271.10378684807256	69	127
270.94126984126984	271.10378684807256	81	127
270.94126984126984	271.10378684807256	67	127
270.94126984126984	271.10378684807256	52	127
270.94126984126984	271.10378684807256	55	127
270.94126984126984	271.10378684807256	49	127
271.1154195011338	271.3243990929705	82	127
271.3243990929705	271.521768707483	76	127
271.53337868480725	271.75396825396825	61	127
271.53337868480725	271.75396825396825	52	127
271.53337868480725	271.75396825396825	43	127
271.53337868480725	271.75396825396825	61	127
271.53337868480725	271.75396825396825	64	127
271.7771882086168	272.00938775510207	43	127
271.7771882086168	272.00938775510207	83	127
271.7771882086168	272.00938775510207	71	127
271.7771882086168	272.00938775510207	61	127
271.7771882086168	272.00938775510207	52	127
272.03260770975055	272.8685260770975	83	127
272.03260770975055	272.8685260770975	71	127
272.03260770975055	272.8685260770975	52	127
272.03260770975055	272.8685260770975	61	127
272.03260770975055	272.8685260770975	43	127
272.88013605442177	273.66961451247164	86	127
272.88013605442177	273.66961451247164	62	127
272.88013605442177	273.66961451247164	66	127
272.88013605442177	273.66961451247164	50	127
272.88013605442177	273.66961451247164	59	127
272.88013605442177	273.66961451247164	44	127
273.6812244897959	275.3878684807256	66	127
273.6812244897959	274.4474829931973	90	127
273.6812244897959	274.4474829931973	50	127
273.6812244897959	274.4474829931973	62	127
273.6812244897959	275.3878684807256	57	127
273.6812244897959	275.3878684807256	45	127
274.45909297052157	275.3878684807256	54	127
274.45909297052157	275.3878684807256	62	127
274.45909297052157	274.93510204081633	93	127
274.93510204081633	275.3995011337868	81	127
275.3995011337868	276.641768707483	88	127
275.3995011337868	276.641768707483	57	127
275.3995011337868	276.641768707483	69	127
275.3995011337868	276.641768707483	55	127
275.3995011337868	276.3631292517007	37	127
276.3863492063492	276.9436281179138	38	127
276.65337868480725	277.01328798185943	86	127
276.65337868480725	277.01328798185943	74	127
276.65337868480725	277.01328798185943	54	127
277.01328798185943	277.303537414966	52	127
277.01328798185943	277.303537414966	88	127
277.01328798185943	277.303537414966	73	127
277.01328798185943	277.55895691609976	45	127
277.303537414966	277.5821768707483	50	127
277.303537414966	277.5821768707483	90	127
277.303537414966	277.5821768707483	74	127
277.5821768707483	277.9304761904762	45	127
277.5821768707483	277.9304761904762	49	127
277.5821768707483	278.47614512471654	76	127
277.5821768707483	278.47614512471654	91	127
278.0814058956916	278.36002267573696	61	127
278.0814058956916	278.36002267573696	57	127
278.4993650793651	278.69673469387754	69	127
278.82444444444445	279.05664399092973	69	127
278.82444444444445	279.13791383219956	62	127
278.82444444444445	279.13791383219956	59	127
279.1495238095238	279.2191836734694	67	127
279.2191836734694	279.28884353741495	69	127
279.28884353741495	279.3468934240363	67	127
279.3468934240363	279.3817006802721	69	127
279.3817006802721	279.45138321995466	67	127
279.45138321995466	279.5326530612245	69	127
279.5326530612245	279.9390022675737	61	127
279.5326530612245	279.60231292517005	67	127
279.5326530612245	279.9390022675737	64	127
279.60231292517005	279.6603628117914	69	127
279.6603628117914	279.74163265306123	67	127
279.74163265306123	279.8461224489796	66	127
279.8461224489796	279.95061224489797	67	127
279.96222222222224	280.5775510204082	86	127
279.96222222222224	281.40185941043086	66	127
280.217641723356	280.5775510204082	54	127
280.217641723356	280.5775510204082	57	127
280.217641723356	280.5775510204082	50	127
280.6007482993197	280.80972789115646	79	127
280.96068027210885	281.27414965986395	79	127
280.96068027210885	281.40185941043086	61	127
280.96068027210885	281.40185941043086	52	127
281.4250566893424	281.49473922902496	78	127
281.49473922902496	281.55278911564625	79	127
281.55278911564625	281.63403628117914	78	127
281.63403628117914	281.6921088435374	79	127
281.6921088435374	282.0171882086168	62	127
281.6921088435374	281.761768707483	78	127
281.6921088435374	282.0171882086168	50	127
281.761768707483	281.7849886621315	79	127
281.7849886621315	281.8314058956916	78	127
281.8314058956916	281.93589569160997	76	127
281.93589569160997	282.02879818594107	78	127
282.04038548752834	282.31904761904764	64	127
282.04038548752834	282.7602267573696	76	127
282.04038548752834	282.31904761904764	57	127
282.04038548752834	282.31904761904764	61	127
282.04038548752834	282.1681179138322	76	127
282.2377551020408	282.4351473922903	76	127
282.4351473922903	282.6092970521542	78	127
282.4351473922903	282.69056689342403	61	127
282.4351473922903	282.69056689342403	45	127
282.6092970521542	282.7602267573696	76	127
282.7602267573696	282.8879365079365	69	127
282.9343764172336	283.1549433106576	69	127
283.1549433106576	283.44521541950115	59	127
283.1549433106576	283.31750566893425	71	127
283.1549433106576	283.44521541950115	62	127
283.1549433106576	283.44521541950115	57	127
283.31750566893425	283.4684126984127	69	127
283.4684126984127	283.53809523809525	67	127
283.53809523809525	283.6077551020408	69	127
283.6077551020408	283.67739229024943	67	127
283.67739229024943	283.7354648526077	69	127
283.7354648526077	283.793514739229	67	127
283.793514739229	283.85156462585036	69	127
283.85156462585036	283.9212244897959	67	127
283.85156462585036	284.1998639455782	64	127
283.85156462585036	284.1998639455782	57	127
283.85156462585036	284.1998639455782	61	127
283.9212244897959	283.9908843537415	69	127
283.9908843537415	284.03732426303856	67	127
284.03732426303856	284.1185941043084	66	127
284.1185941043084	284.2114739229025	67	127
284.22308390022675	284.3391836734694	86	127
284.22308390022675	284.4320634920635	66	127
284.4204535147392	284.5133333333333	86	127
284.5133333333333	284.7455328798186	78	127
284.5133333333333	284.66426303854877	88	127
284.5133333333333	284.86163265306124	66	127
284.5133333333333	284.86163265306124	62	127
284.66426303854877	284.8732426303855	86	127
284.8732426303855	284.9312925170068	79	127
284.8732426303855	284.98934240362814	73	127
284.94290249433107	285.117052154195	79	127
285.117052154195	285.7207482993197	81	127
285.117052154195	285.48857142857145	73	127
285.117052154195	285.48857142857145	64	127
285.117052154195	285.291201814059	81	127
285.291201814059	285.511768707483	79	127
285.511768707483	285.54662131519274	78	127
285.54662131519274	285.61625850340135	79	127
285.61625850340135	285.67433106575965	78	127
285.67433106575965	285.7439909297052	76	127
285.7439909297052	285.9413605442177	78	127
285.7439909297052	285.9413605442177	69	127
285.9413605442177	286.1967800453515	74	127
285.9413605442177	286.0342403628118	79	127
285.9413605442177	286.0342403628118	67	127
285.9413605442177	286.1967800453515	62	127
286.0342403628118	286.1967800453515	81	127
286.0342403628118	286.1967800453515	66	127
286.22	286.440589569161	55	127
286.22	286.440589569161	67	127
286.22	286.45219954648525	82	127
286.45219954648525	286.661179138322	71	127
286.45219954648525	286.661179138322	55	127
286.45219954648525	286.661179138322	67	127
286.67278911564625	286.83532879818597	59	127
286.67278911564625	286.83532879818597	62	127
286.67278911564625	286.83532879818597	55	127
286.84691609977324	287.0442857142857	83	127
286.84691609977324	287.0442857142857	59	127
286.84691609977324	287.0442857142857	62	127
286.84691609977324	287.0442857142857	55	127
287.0559183673469	287.25326530612244	55	127
287.0559183673469	287.25326530612244	71	127
287.0559183673469	287.26489795918366	78	127
287.26489795918366	287.39260770975056	67	127
287.26489795918366	287.39260770975056	55	127
287.26489795918366	287.39260770975056	71	127
287.40421768707483	287.5667573696145	59	127
287.40421768707483	287.5667573696145	62	127
287.40421768707483	287.5667573696145	55	127
287.57836734693876	287.76410430839	79	127
287.57836734693876	287.76410430839	59	127
287.57836734693876	287.76410430839	62	127
287.57836734693876	287.76410430839	55	127
287.77573696145123	287.9266666666667	75	127
287.77573696145123	287.9150566893424	55	127
287.77573696145123	287.9150566893424	71	127
287.9266666666667	288.12403628117914	64	127
287.9266666666667	288.12403628117914	55	127
287.9266666666667	288.12403628117914	71	127
288.1356462585034	288.3214058956916	59	127
288.1356462585034	288.3214058956916	67	127
288.1356462585034	288.3214058956916	55	127
288.3330158730159	288.5071655328798	76	127
288.3330158730159	288.5071655328798	59	127
288.3330158730159	288.5071655328798	67	127
288.3330158730159	288.5071655328798	55	127
288.53038548752835	288.6812925170068	67	127
288.53038548752835	288.6812925170068	69	127
288.53038548752835	288.692925170068	74	127
288.692925170068	288.8554648526077	64	127
288.692925170068	288.8554648526077	67	127
288.692925170068	288.8554648526077	69	127
288.8554648526077	289.0412244897959	61	127
288.8554648526077	289.0412244897959	64	127
288.8554648526077	289.0412244897959	57	127
288.8554648526077	289.0412244897959	67	127
289.06444444444446	289.21537414965985	73	127
289.06444444444446	289.21537414965985	61	127
289.06444444444446	289.21537414965985	64	127
289.06444444444446	289.21537414965985	57	127
289.06444444444446	289.21537414965985	67	127
289.2385941043084	289.4127437641723	67	127
289.2385941043084	289.4127437641723	69	127
289.2385941043084	289.43596371882086	74	127
289.43596371882086	289.62172335600906	64	127
289.43596371882086	289.62172335600906	67	127
289.43596371882086	289.62172335600906	69	127
289.6449433106576	289.79587301587304	61	127
289.6449433106576	289.79587301587304	64	127
289.6449433106576	289.79587301587304	57	127
289.6449433106576	289.79587301587304	67	127
289.8190929705215	289.9932426303855	76	127
289.8190929705215	289.9932426303855	61	127
289.8190929705215	289.9932426303855	64	127
289.8190929705215	289.9932426303855	57	127
289.8190929705215	289.9932426303855	67	127
290.01643990929705	290.20222222222225	67	127
290.01643990929705	290.20222222222225	69	127
290.01643990929705	290.2138095238095	78	127
290.2138095238095	290.3182993197279	67	127
290.2138095238095	290.3182993197279	69	127
290.3182993197279	290.457641723356	61	127
290.3182993197279	290.457641723356	64	127
290.3182993197279	290.457641723356	57	127
290.3182993197279	290.457641723356	67	127
290.4692517006803	290.6550113378685	79	127
290.4692517006803	290.6550113378685	61	127
290.4692517006803	290.6550113378685	64	127
290.4692517006803	290.6550113378685	57	127
290.4692517006803	290.6550113378685	67	127
290.6550113378685	290.8175510204082	64	127
290.6550113378685	290.8175510204082	76	127
290.6550113378685	290.8175510204082	80	127
290.8175510204082	291.0033106575964	76	127
290.8175510204082	291.0033106575964	64	127
291.01492063492066	291.20068027210885	49	127
291.01492063492066	291.20068027210885	55	127
291.01492063492066	291.20068027210885	57	127
291.01492063492066	291.20068027210885	67	127
291.2122902494331	291.4096598639456	81	127
291.2122902494331	291.4096598639456	49	127
291.2122902494331	291.4096598639456	55	127
291.2122902494331	291.4096598639456	57	127
291.2122902494331	291.4096598639456	67	127
291.42126984126986	291.61863945578233	64	127
291.42126984126986	291.61863945578233	76	127
291.42126984126986	291.6302494331066	82	127
291.6302494331066	291.7231292517007	76	127
291.6302494331066	291.7231292517007	64	127
291.74632653061224	291.92049886621317	49	127
291.74632653061224	291.92049886621317	55	127
291.74632653061224	291.92049886621317	57	127
291.74632653061224	291.92049886621317	67	127
291.93210884353743	292.11786848072563	83	127
291.93210884353743	292.11786848072563	49	127
291.93210884353743	292.11786848072563	55	127
291.93210884353743	292.11786848072563	57	127
291.93210884353743	292.11786848072563	67	127
292.1410884353742	292.32684807256237	64	127
292.1410884353742	292.32684807256237	76	127
292.1410884353742	292.33845804988664	82	127
292.33845804988664	292.442947845805	76	127
292.33845804988664	292.442947845805	64	127
292.4545578231293	292.6403174603175	49	127
292.4545578231293	292.6403174603175	55	127
292.4545578231293	292.6403174603175	57	127
292.4545578231293	292.6403174603175	67	127
292.65192743764175	292.83768707482994	81	127
292.65192743764175	292.83768707482994	49	127
292.65192743764175	292.83768707482994	55	127
292.65192743764175	292.83768707482994	57	127
292.65192743764175	292.83768707482994	67	127
292.8609070294785	293.0466666666667	64	127
292.8609070294785	293.0466666666667	76	127
292.8609070294785	293.05827664399095	82	127
293.05827664399095	293.1743537414966	76	127
293.05827664399095	293.1743537414966	64	127
293.18596371882086	293.3485260770975	49	127
293.18596371882086	293.3485260770975	55	127
293.18596371882086	293.3485260770975	57	127
293.18596371882086	293.3485260770975	67	127
293.3601360544218	293.5342857142857	83	127
293.3601360544218	293.5342857142857	49	127
293.3601360544218	293.5342857142857	55	127
293.3601360544218	293.5342857142857	57	127
293.3601360544218	293.5342857142857	67	127
293.54589569161	293.7200453514739	64	127
293.54589569161	293.7200453514739	76	127
293.54589569161	293.7316553287982	82	127
293.7316553287982	293.9058049886621	76	127
293.7316553287982	293.9058049886621	64	127
293.92902494331065	294.10315192743764	55	127
293.92902494331065	294.10315192743764	49	127
293.92902494331065	294.10315192743764	57	127
293.92902494331065	294.10315192743764	67	127
294.11478458049885	294.28893424036283	55	127
294.11478458049885	294.28893424036283	81	127
294.11478458049885	294.28893424036283	49	127
294.11478458049885	294.28893424036283	57	127
294.11478458049885	294.28893424036283	67	127
294.3005215419501	294.4398639455782	64	127
294.3005215419501	294.4398639455782	73	127
294.3005215419501	294.46308390022676	82	127
294.46308390022676	294.64884353741496	76	127
294.46308390022676	294.64884353741496	64	127
294.46308390022676	294.64884353741496	73	127
294.6720634920635	294.84621315192743	61	127
294.6720634920635	294.84621315192743	64	127
294.6720634920635	294.84621315192743	52	127
294.6720634920635	294.84621315192743	61	127
294.6720634920635	294.84621315192743	43	127
294.8578231292517	295.0784126984127	83	127
294.8578231292517	295.0784126984127	61	127
294.8578231292517	295.0784126984127	64	127
294.8578231292517	295.0784126984127	52	127
294.8578231292517	295.0784126984127	61	127
294.8578231292517	295.0784126984127	43	127
295.10163265306124	295.91433106575965	83	127
295.10163265306124	295.91433106575965	71	127
295.10163265306124	295.91433106575965	52	127
295.10163265306124	295.91433106575965	61	127
295.10163265306124	295.91433106575965	43	127
295.9375283446712	296.83151927437643	66	127
295.9375283446712	296.83151927437643	86	127
295.9375283446712	296.83151927437643	62	127
295.9375283446712	296.83151927437643	50	127
295.9375283446712	296.83151927437643	59	127
295.9375283446712	296.83151927437643	44	127
296.8431292517007	297.7487074829932	50	127
296.8431292517007	297.7487074829932	62	127
296.8431292517007	297.7487074829932	90	127
296.8431292517007	298.7819954648526	57	127
296.8431292517007	298.7819954648526	66	127
296.8431292517007	298.7819954648526	45	127
297.7603174603175	298.2479365079365	93	127
297.7603174603175	298.7819954648526	54	127
297.7603174603175	298.7819954648526	62	127
298.2479365079365	298.80519274376417	81	127
298.80519274376417	300.03585034013605	69	127
298.80519274376417	299.78045351473924	37	127
298.80519274376417	300.03585034013605	88	127
298.80519274376417	300.03585034013605	57	127
298.80519274376417	300.03585034013605	55	127
299.8036734693878	300.3493424036281	38	127
300.04748299319726	300.3841723356009	86	127
300.04748299319726	300.3841723356009	74	127
300.04748299319726	300.3841723356009	54	127
300.3841723356009	300.6628117913832	67	127
300.3841723356009	300.6628117913832	85	127
300.3841723356009	300.6628117913832	52	127
300.3841723356009	300.99950113378685	50	127
300.6628117913832	300.99950113378685	66	127
300.6628117913832	301.0227210884354	50	127
300.6628117913832	300.99950113378685	86	127
301.0227210884354	301.56836734693877	48	127
301.0227210884354	301.9863492063492	66	127
301.0227210884354	301.9863492063492	54	127
301.0227210884354	302.82226757369614	86	127
301.56836734693877	301.99795918367346	46	127
301.99795918367346	303.5885260770975	50	127
301.99795918367346	302.40430839002266	47	127
301.99795918367346	302.82226757369614	74	127
302.40430839002266	302.8338775510204	48	127
302.8338775510204	303.6001360544218	62	127
302.8338775510204	303.22861678004534	50	127
302.8338775510204	303.6001360544218	78	127
303.22861678004534	303.5885260770975	48	127
303.61172335600907	311.1001814058957	50	127
303.61172335600907	304.04131519274375	48	127
303.61172335600907	305.9569387755102	79	127
304.04131519274375	304.40122448979594	46	127
304.40122448979594	305.2023129251701	62	127
304.40122448979594	304.8191836734694	47	127
304.8191836734694	305.21392290249435	49	127
305.21392290249435	305.5738321995465	50	127
305.21392290249435	305.9569387755102	67	127
305.5738321995465	305.9453514739229	47	127
305.9685714285714	306.37489795918367	47	127
305.9685714285714	307.4198185941043	78	127
306.37489795918367	306.7232199546485	44	127
306.7232199546485	307.03668934240363	45	127
306.7232199546485	307.43142857142857	62	127
307.03668934240363	307.44303854875284	49	127
307.44303854875284	307.84938775510204	50	127
307.44303854875284	307.84938775510204	78	127
307.44303854875284	308.25573696145125	66	127
307.84938775510204	308.244126984127	45	127
307.84938775510204	308.0583673469388	79	127
308.0583673469388	308.244126984127	81	127
308.2673469387755	309.0335827664399	83	127
308.2673469387755	308.6736961451247	45	127
308.6736961451247	309.0568253968254	42	127
309.0568253968254	309.83469387755105	83	127
309.0568253968254	309.8462811791383	62	127
309.0568253968254	309.4631746031746	43	127
309.4631746031746	309.8462811791383	49	127
309.8462811791383	310.2526303854875	50	127
309.8462811791383	310.2526303854875	83	127
309.8462811791383	310.6589795918367	71	127
310.2526303854875	310.47324263038547	85	127
310.2526303854875	310.64739229024946	43	127
310.47324263038547	310.64739229024946	86	127
310.67061224489794	311.1234013605442	43	127
310.67061224489794	311.46009070294787	86	127
311.1234013605442	311.47170068027214	73	127
311.1234013605442	311.47170068027214	61	127
311.1234013605442	311.47170068027214	41	127
311.47170068027214	311.8896371882086	74	127
311.47170068027214	311.8896371882086	62	127
311.47170068027214	311.8896371882086	42	127
311.47170068027214	312.2727891156463	81	127
311.8896371882086	312.2959863945578	73	127
311.8896371882086	312.2959863945578	61	127
311.8896371882086	312.2959863945578	41	127
312.2959863945578	312.7371882086168	38	127
312.2959863945578	312.7371882086168	74	127
312.2959863945578	312.7371882086168	62	127
312.2959863945578	313.1319274376417	78	127
312.7371882086168	313.1319274376417	60	127
312.7371882086168	313.1319274376417	50	127
312.7371882086168	313.1319274376417	72	127
313.15514739229025	313.584716553288	38	127
313.15514739229025	313.584716553288	72	127
313.15514739229025	314.22326530612247	79	127
313.15514739229025	313.584716553288	60	127
313.584716553288	313.9794557823129	70	127
313.584716553288	313.9794557823129	58	127
313.584716553288	313.9794557823129	50	127
313.9794557823129	314.3974149659864	71	127
313.9794557823129	314.3974149659864	59	127
313.9794557823129	314.3974149659864	38	127
314.246462585034	314.50190476190477	79	127
314.3974149659864	314.78054421768707	72	127
314.3974149659864	314.78054421768707	60	127
314.3974149659864	314.78054421768707	50	127
314.50190476190477	314.78054421768707	81	127
314.78054421768707	315.19850340136054	62	127
314.78054421768707	315.0591609977324	83	127
314.78054421768707	315.19850340136054	74	127
314.78054421768707	315.19850340136054	38	127
315.0591609977324	315.3029931972789	81	127
315.19850340136054	315.54680272108845	71	127
315.19850340136054	315.54680272108845	59	127
315.19850340136054	315.54680272108845	50	127
315.3029931972789	315.54680272108845	79	127
315.5584126984127	315.8951020408163	59	127
315.5584126984127	315.8951020408163	79	127
315.5584126984127	315.8951020408163	71	127
315.5584126984127	315.8951020408163	38	127
315.8951020408163	316.32467120181406	56	127
315.8951020408163	316.32467120181406	68	127
315.8951020408163	316.32467120181406	50	127
315.8951020408163	316.74263038548753	78	127
316.32467120181406	316.76585034013607	69	127
316.32467120181406	316.76585034013607	57	127
316.32467120181406	316.76585034013607	38	127
316.76585034013607	317.18380952380954	78	127
316.76585034013607	317.2070068027211	73	127
316.76585034013607	317.2070068027211	61	127
316.76585034013607	317.2070068027211	50	127
317.2070068027211	317.46244897959184	62	127
317.2070068027211	317.27668934240364	78	127
317.2070068027211	317.46244897959184	74	127
317.2070068027211	317.46244897959184	38	127
317.27668934240364	317.3463492063492	79	127
317.3463492063492	317.4159863945578	78	127
317.4159863945578	317.45083900226757	76	127
317.45083900226757	317.46244897959184	78	127
317.46244897959184	318.1590476190476	57	127
317.46244897959184	317.5669387755102	79	127
317.46244897959184	318.1590476190476	69	127
317.46244897959184	317.74108843537414	50	127
317.5785487528345	317.74108843537414	81	127
317.7643083900227	318.18226757369615	38	127
317.7643083900227	317.9732879818594	82	127
317.9732879818594	318.1590476190476	83	127
318.18226757369615	318.63503401360543	54	127
318.18226757369615	318.63503401360543	66	127
318.18226757369615	318.63503401360543	50	127
318.18226757369615	318.9833560090703	83	127
318.63503401360543	319.00657596371883	55	127
318.63503401360543	319.00657596371883	67	127
318.63503401360543	319.00657596371883	38	127
319.00657596371883	319.3432653061225	83	127
319.00657596371883	319.36648526077096	73	127
319.00657596371883	319.36648526077096	61	127
319.00657596371883	319.36648526077096	50	127
319.36648526077096	319.80766439909297	38	127
319.36648526077096	319.4361451247166	83	127
319.36648526077096	319.80766439909297	74	127
319.36648526077096	319.80766439909297	62	127
319.4361451247166	319.50580498866213	85	127
319.50580498866213	319.58707482993196	83	127
319.58707482993196	319.69156462585033	82	127
319.69156462585033	319.80766439909297	83	127
319.80766439909297	320.028253968254	85	127
319.80766439909297	320.2140136054422	67	127
319.80766439909297	320.2140136054422	55	127
319.80766439909297	320.2140136054422	50	127
320.028253968254	320.22562358276645	86	127
320.2372335600907	320.6783900226757	86	127
320.2372335600907	320.6783900226757	67	127
320.2372335600907	320.6783900226757	55	127
320.2372335600907	320.6783900226757	38	127
320.6783900226757	321.1079818594104	66	127
320.6783900226757	321.1079818594104	54	127
320.6783900226757	321.39820861678004	81	127
320.6783900226757	321.1079818594104	50	127
321.1079818594104	321.4214512471655	74	127
321.1079818594104	321.4214512471655	62	127
321.1079818594104	321.4214512471655	42	127
321.4214512471655	321.86263038548753	70	127
321.4214512471655	321.86263038548753	82	127
321.4214512471655	321.86263038548753	58	127
321.4214512471655	321.86263038548753	50	127
321.86263038548753	322.32702947845803	85	127
321.86263038548753	322.32702947845803	73	127
321.86263038548753	322.32702947845803	61	127
321.86263038548753	322.32702947845803	44	127
322.32702947845803	322.7914285714286	83	127
322.32702947845803	322.7914285714286	71	127
322.32702947845803	322.7914285714286	59	127
322.32702947845803	322.7914285714286	50	127
322.8146485260771	323.2558276643991	62	127
322.8146485260771	323.2558276643991	74	127
322.8146485260771	323.2558276643991	45	127
322.8146485260771	323.61573696145126	83	127
323.2558276643991	323.62734693877553	50	127
323.2558276643991	323.62734693877553	54	127
323.2558276643991	323.604126984127	66	127
323.62734693877553	324.9160544217687	74	127
323.62734693877553	324.0685260770975	45	127
323.62734693877553	324.0685260770975	66	127
323.62734693877553	324.0685260770975	57	127
324.0685260770975	324.4632426303855	54	127
324.0685260770975	324.4632426303855	50	127
324.0685260770975	324.4632426303855	57	127
324.4632426303855	324.9160544217687	45	127
324.4632426303855	324.9160544217687	67	127
324.4632426303855	324.9160544217687	57	127
324.9160544217687	325.38043083900226	55	127
324.9160544217687	325.38043083900226	76	127
324.9160544217687	325.38043083900226	57	127
324.9160544217687	325.38043083900226	49	127
325.415283446712	326.19315192743767	45	127
325.415283446712	325.6474829931973	66	127
325.415283446712	325.6474829931973	54	127
325.415283446712	326.19315192743767	76	127
325.6474829931973	325.8680725623583	74	127
325.6474829931973	325.8680725623583	62	127
325.8680725623583	326.0422222222222	78	127
325.8680725623583	326.0422222222222	66	127
326.0422222222222	326.20473922902494	76	127
326.0422222222222	326.20473922902494	64	127
326.20473922902494	326.98263038548754	78	127
326.20473922902494	326.98263038548754	38	127
326.20473922902494	326.4253514739229	62	127
326.20473922902494	326.4253514739229	74	127
326.4253514739229	326.6459410430839	73	127
326.4253514739229	326.6459410430839	61	127
326.6459410430839	326.8317006802721	59	127
326.6459410430839	326.8317006802721	71	127
326.8317006802721	326.9942403628118	69	127
326.8317006802721	326.9942403628118	57	127
326.9942403628118	327.18	67	127
326.9942403628118	327.18	55	127
326.9942403628118	327.7256689342404	79	127
326.9942403628118	327.7256689342404	40	127
327.18	327.3657596371882	64	127
327.18	327.3657596371882	76	127
327.3657596371882	327.57473922902494	73	127
327.3657596371882	327.57473922902494	61	127
327.57473922902494	327.73725623582766	67	127
327.57473922902494	327.73725623582766	55	127
327.73725623582766	327.9578684807256	54	127
327.73725623582766	328.4106575963719	81	127
327.73725623582766	327.9578684807256	66	127
327.73725623582766	328.4106575963719	42	127
327.9578684807256	328.1320181405896	62	127
327.9578684807256	328.1320181405896	74	127
328.1320181405896	328.2248979591837	69	127
328.1320181405896	328.2248979591837	57	127
328.2248979591837	328.42226757369616	66	127
328.2248979591837	328.42226757369616	54	127
328.42226757369616	328.64285714285717	65	127
328.42226757369616	328.64285714285717	53	127
328.42226757369616	329.11886621315193	83	127
328.42226757369616	329.11886621315193	44	127
328.64285714285717	328.8518367346939	62	127
328.64285714285717	328.8518367346939	74	127
328.8518367346939	328.991156462585	71	127
328.8518367346939	328.991156462585	59	127
328.991156462585	329.11886621315193	65	127
328.991156462585	329.11886621315193	53	127
329.11886621315193	330.047664399093	85	127
329.11886621315193	329.3510657596372	64	127
329.11886621315193	329.3510657596372	52	127
329.11886621315193	330.047664399093	45	127
329.3510657596372	329.5948752834467	73	127
329.3510657596372	329.5948752834467	61	127
329.5948752834467	329.8502947845805	67	127
329.5948752834467	329.8502947845805	55	127
329.8502947845805	330.0360544217687	64	127
329.8502947845805	330.0360544217687	52	127
330.05927437641725	330.8603628117914	86	127
330.05927437641725	330.8603628117914	66	127
330.05927437641725	330.314693877551	50	127
330.05927437641725	330.8603628117914	54	127
330.314693877551	330.50043083900226	54	127
330.50043083900226	330.7210430839002	57	127
330.7210430839002	330.8603628117914	55	127
330.8603628117914	333.0314285714286	50	127
330.8603628117914	331.05773242630386	54	127
330.8603628117914	331.24349206349206	81	127
330.8603628117914	333.0314285714286	62	127
330.8603628117914	333.0314285714286	74	127
331.05773242630386	331.24349206349206	52	127
331.24349206349206	331.56857142857143	78	127
331.24349206349206	331.3944217687075	50	127
331.3944217687075	331.59179138321997	48	127
331.59179138321997	332.032947845805	78	127
331.59179138321997	331.812380952381	47	127
331.812380952381	332.032947845805	55	127
332.032947845805	332.3116099773243	79	127
332.032947845805	332.16068027210883	50	127
332.16068027210883	332.3348072562358	47	127
332.3348072562358	332.65990929705214	80	127
332.3348072562358	332.54378684807256	45	127
332.54378684807256	332.65990929705214	54	127
332.65990929705214	332.8688888888889	50	127
332.65990929705214	333.0314285714286	81	127
332.8688888888889	333.05462585034013	45	127
333.05462585034013	333.83251700680273	50	127
333.05462585034013	333.26360544217687	44	127
333.05462585034013	333.44938775510207	82	127
333.05462585034013	333.83251700680273	62	127
333.05462585034013	333.83251700680273	74	127
333.26360544217687	333.44938775510207	54	127
333.44938775510207	333.83251700680273	83	127
333.44938775510207	333.63514739229026	50	127
333.63514739229026	333.83251700680273	44	127
333.83251700680273	335.17927437641725	76	127
333.83251700680273	334.01827664399093	43	127
333.83251700680273	334.23886621315194	83	127
333.83251700680273	334.68004535147395	64	127
333.83251700680273	335.17927437641725	52	127
334.01827664399093	334.23886621315194	45	127
334.23886621315194	334.6684353741497	85	127
334.23886621315194	334.4478458049887	43	127
334.4478458049887	334.6684353741497	40	127
334.6916326530612	335.1908843537415	85	127
334.6916326530612	334.947074829932	38	127
334.947074829932	335.1908843537415	45	127
335.1908843537415	335.655283446712	86	127
335.1908843537415	335.42308390022674	42	127
335.42308390022674	335.655283446712	38	127
335.6668934240363	336.36349206349206	50	127
335.6668934240363	336.36349206349206	86	127
335.6668934240363	336.36349206349206	74	127
335.6668934240363	336.36349206349206	38	127
336.63049886621314	337.4896598639456	74	127
336.63049886621314	337.4896598639456	86	127
336.63049886621314	337.4896598639456	50	127
336.63049886621314	337.4896598639456	38	127
337.6057596371882	338.5577777777778	38	127
337.6057596371882	338.5577777777778	74	127
337.6057596371882	338.5577777777778	86	127
337.6057596371882	338.5577777777778	50	127
339.5562358276644	340.5895238095238	55	127
339.5562358276644	340.5895238095238	84	127
339.5562358276644	340.5895238095238	72	127
339.5562358276644	340.5895238095238	52	127
340.71721088435373	341.84337868480725	55	127
340.71721088435373	341.84337868480725	84	127
340.71721088435373	341.84337868480725	72	127
340.71721088435373	341.84337868480725	52	127
343.08566893424035	344.22344671201813	57	127
343.08566893424035	344.22344671201813	85	127
343.08566893424035	344.22344671201813	73	127
343.08566893424035	344.22344671201813	53	127
345.51215419501136	348.6816780045352	57	127
345.51215419501136	348.0779365079365	72	127
345.51215419501136	348.6816780045352	84	127
345.51215419501136	348.6816780045352	53	127
348.0895691609977	350.1445351473923	60	127
350.15614512471655	352.3504308390023	69	127
351.8047619047619	353.04702947845806	48	127
352.36204081632656	353.04702947845806	67	127
353.0586394557823	355.54315192743763	57	127
353.0586394557823	355.54315192743763	72	127
354.8465759637188	356.21655328798187	48	127
355.55478458049885	356.21655328798187	55	127
355.55478458049885	356.21655328798187	72	127
355.55478458049885	356.21655328798187	52	127
356.2513832199547	357.99285714285713	65	127
356.2513832199547	357.99285714285713	60	127
356.2513832199547	358.7010884353742	57	127
358.0044671201814	359.61827664399095	67	127
358.0044671201814	359.61827664399095	64	127
358.71267573696144	359.61827664399095	55	127
359.64149659863943	363.1709297052154	60	127
359.64149659863943	361.2901133786848	57	127
359.64149659863943	363.78625850340137	65	127
361.30172335600906	363.78625850340137	53	127
361.30172335600906	363.78625850340137	57	127
361.30172335600906	365.1794557823129	77	127
363.1825396825397	363.78625850340137	60	127
363.79786848072564	365.8528344671202	53	127
363.79786848072564	366.78163265306125	72	127
363.79786848072564	366.78163265306125	69	127
365.1910657596372	368.2212471655329	77	127
365.8644217687075	366.78163265306125	45	127
366.7932199546485	368.2212471655329	57	127
366.7932199546485	370.5200453514739	72	127
366.7932199546485	368.2212471655329	65	127
368.2328798185941	371.64621315192744	76	127
368.2328798185941	368.9294784580499	60	127
368.2328798185941	370.5200453514739	55	127
368.9410657596372	370.5200453514739	48	127
370.5316553287982	371.64621315192744	60	127
370.5316553287982	371.64621315192744	60	127
370.5316553287982	373.50380952380954	67	127
371.6578231292517	373.50380952380954	57	127
371.6578231292517	372.2499319727891	62	127
371.6578231292517	375.1408163265306	74	127
372.2615419501134	373.50380952380954	50	127
373.5154195011338	375.8258049886621	62	127
373.5154195011338	375.1408163265306	65	127
373.5154195011338	375.1408163265306	69	127
375.1524263038549	377.35832199546485	67	127
375.1524263038549	377.35832199546485	72	127
375.1524263038549	378.6934693877551	76	127
375.8374149659864	377.35832199546485	48	127
377.3699319727891	378.6934693877551	60	127
377.3699319727891	380.24920634920636	72	127
377.3699319727891	378.6934693877551	67	127
378.70507936507937	381.88621315192745	77	127
378.70507936507937	379.3668253968254	55	127
378.70507936507937	380.24920634920636	65	127
379.3784580498866	380.24920634920636	45	127
380.26081632653063	381.88621315192745	60	127
380.26081632653063	383.5464399092971	77	127
380.26081632653063	381.88621315192745	57	127
381.8978231292517	383.5464399092971	59	127
381.8978231292517	385.9032653061224	79	127
381.8978231292517	382.5595918367347	55	127
381.8978231292517	383.5464399092971	62	127
382.57120181405895	383.5464399092971	43	127
383.5580498866213	385.9032653061224	60	127
383.5580498866213	385.9032653061224	64	127
383.5580498866213	385.9032653061224	60	127
383.5580498866213	387.9350113378685	76	127
385.9148752834467	386.50698412698415	62	127
385.9148752834467	389.502358276644	77	127
385.9148752834467	388.6548299319728	69	127
386.51859410430836	387.9350113378685	50	127
387.9466213151928	390.0944671201814	62	127
387.9466213151928	389.502358276644	74	127
388.666439909297	389.502358276644	67	127
389.51396825396824	390.0944671201814	65	127
389.51396825396824	390.65174603174603	81	127
390.10607709750565	390.65174603174603	67	127
390.10607709750565	390.65174603174603	64	127
390.6633560090703	392.2539229024943	69	127
390.6633560090703	393.0201814058957	74	127
390.6633560090703	393.0201814058957	65	127
392.2655328798186	393.7516099773243	69	127
393.03179138321997	393.7516099773243	67	127
393.03179138321997	393.7516099773243	76	127
393.76321995464855	394.3669387755102	65	127
393.76321995464855	396.0619954648526	77	127
393.76321995464855	396.0619954648526	62	127
394.49464852607707	395.4234467120181	55	127
395.44666666666666	396.94435374149657	55	127
396.07360544217687	396.94435374149657	64	127
396.07360544217687	396.94435374149657	79	127
396.9675736961451	398.53492063492064	77	127
396.9675736961451	399.3243990929705	55	127
396.9675736961451	399.3243990929705	62	127
396.9675736961451	399.3243990929705	47	127
398.5465306122449	400.1719274376417	76	127
399.3360090702948	400.1719274376417	48	127
399.3360090702948	400.1719274376417	55	127
399.3360090702948	400.1719274376417	64	127
400.183537414966	403.1905215419501	50	127
400.183537414966	402.01791383219955	59	127
400.183537414966	402.01791383219955	53	127
400.183537414966	404.28185941043085	67	127
402.0295238095238	404.28185941043085	52	127
402.0295238095238	404.28185941043085	55	127
402.0295238095238	404.28185941043085	60	127
402.0295238095238	405.43124716553285	79	127
403.20213151927436	404.28185941043085	48	127
404.2934693877551	406.19750566893424	60	127
404.2934693877551	405.43124716553285	64	127
404.2934693877551	405.43124716553285	55	127
404.2934693877551	407.01020408163265	67	127
405.4428571428571	407.01020408163265	60	127
405.4428571428571	408.61238095238093	81	127
406.2091156462585	407.01020408163265	60	127
407.0218140589569	408.61238095238093	65	127
407.0218140589569	409.58761904761906	53	127
407.0218140589569	410.28421768707483	72	127
408.6239909297052	410.28421768707483	67	127
408.6239909297052	411.9328344671202	84	127
409.5992290249433	410.28421768707483	53	127
410.2958276643991	411.9328344671202	55	127
410.2958276643991	411.9328344671202	67	127
410.2958276643991	412.59460317460315	52	127
410.2958276643991	413.8368707482993	79	127
411.94444444444446	415.0907482993197	48	127
411.94444444444446	415.0907482993197	81	127
411.94444444444446	415.0907482993197	60	127
412.6062131519274	413.8368707482993	41	127
413.8484807256236	415.6944671201814	53	127
413.8484807256236	417.1805442176871	77	127
415.102358276644	418.70145124716555	79	127
415.102358276644	420.3152380952381	48	127
415.102358276644	420.3152380952381	60	127
415.70607709750567	417.1805442176871	43	127
417.2037641723356	420.3152380952381	76	127
417.2037641723356	419.2703401360544	55	127
418.7130612244898	421.5691156462585	77	127
419.2819501133787	420.3152380952381	45	127
420.32684807256237	422.5443537414966	57	127
420.32684807256237	424.0768707482993	65	127
420.32684807256237	420.97700680272106	74	127
420.98861678004533	424.0768707482993	72	127
421.592335600907	426.0273469387755	74	127
422.55596371882086	424.0768707482993	43	127
424.0884807256236	426.0273469387755	65	127
424.0884807256236	426.6310657596372	55	127
424.0884807256236	427.2115646258503	71	127
426.05056689342405	428.46544217687074	76	127
426.05056689342405	429.46390022675735	64	127
426.64267573696145	427.2115646258503	55	127
427.2231746031746	429.46390022675735	72	127
427.2231746031746	428.46544217687074	48	127
428.477052154195	430.27659863945576	67	127
429.4755102040816	430.27659863945576	65	127
429.4755102040816	430.27659863945576	74	127
430.27659863945576	432.5521541950113	76	127
430.27659863945576	431.98326530612246	67	127
430.27659863945576	432.5521541950113	60	127
431.99487528344673	433.3416326530612	55	127
432.5637641723356	433.3416326530612	77	127
432.5637641723356	433.3416326530612	62	127
433.35324263038547	435.7332879818594	48	127
433.35324263038547	434.52585034013606	79	127
433.35324263038547	435.7332879818594	64	127
434.53746031746033	436.4066666666667	67	127
435.75650793650794	436.4066666666667	50	127
435.75650793650794	436.4066666666667	65	127
436.4182766439909	437.78825396825397	67	127
436.4182766439909	439.0421315192744	60	127
436.4182766439909	439.0421315192744	52	127
437.79986394557824	439.0421315192744	55	127
439.05374149659866	439.83160997732426	62	127
439.05374149659866	439.83160997732426	53	127
439.05374149659866	439.83160997732426	48	127
439.84321995464853	440.78362811791385	55	127
439.84321995464853	441.4453968253968	64	127
439.84321995464853	442.28131519274376	60	127
440.8184580498866	441.4453968253968	48	127
441.4918367346939	442.28131519274376	60	127
441.4918367346939	442.28131519274376	76	127
441.4918367346939	445.00965986394556	76	127
442.29292517006803	443.1172335600907	62	127
442.29292517006803	443.1172335600907	59	127
442.29292517006803	443.1172335600907	74	127
443.128843537415	445.86879818594105	57	127
443.128843537415	446.6350566893424	72	127
443.128843537415	446.6350566893424	64	127
445.0328798185941	448.3649433106576	84	127
445.8804081632653	446.6350566893424	52	127
446.64666666666665	449.9671201814059	81	127
446.64666666666665	447.7960544217687	45	127
446.64666666666665	448.3649433106576	60	127
447.80766439909297	448.3649433106576	57	127
448.37655328798184	449.9671201814059	52	127
448.37655328798184	449.0499319727891	64	127
448.37655328798184	451.2442176870748	83	127
449.0615419501134	449.9671201814059	52	127
449.9787301587302	453.18308390022673	79	127
449.9787301587302	451.2442176870748	67	127
449.9787301587302	452.17301587301586	64	127
451.2558276643991	454.518231292517	84	127
451.2558276643991	453.18308390022673	64	127
451.2558276643991	453.18308390022673	55	127
452.1846258503401	453.18308390022673	48	127
453.194693877551	456.2481179138322	79	127
453.194693877551	454.518231292517	76	127
453.194693877551	455.52829931972786	60	127
454.52984126984126	457.6297052154195	81	127
454.52984126984126	457.6297052154195	72	127
455.53990929705213	456.2481179138322	60	127
456.25972789115644	458.5468934240363	65	127
456.25972789115644	457.6297052154195	77	127
457.6413151927438	460.78761904761905	83	127
457.6413151927438	460.78761904761905	62	127
457.6413151927438	460.78761904761905	65	127
457.6413151927438	459.1622222222222	67	127
458.55850340136055	459.1622222222222	64	127
459.19705215419503	461.844126984127	62	127
459.19705215419503	462.64521541950114	67	127
460.82244897959185	464.31705215419504	64	127
460.82244897959185	464.31705215419504	84	127
460.82244897959185	464.31705215419504	60	127
461.85573696145127	462.64521541950114	60	127
462.6568253968254	466.2443083900227	67	127
462.6568253968254	465.09492063492064	55	127
464.36349206349206	469.63442176870745	59	127
464.36349206349206	469.63442176870745	62	127
464.36349206349206	467.7419954648526	86	127
465.1065306122449	466.2443083900227	45	127
466.25591836734696	469.04231292517005	43	127
466.25591836734696	467.7419954648526	71	127
467.7536054421769	469.63442176870745	79	127
469.0539229024943	469.63442176870745	53	127
469.6460317460317	471.57328798185944	55	127
469.6460317460317	472.16539682539684	72	127
469.6460317460317	472.16539682539684	52	127
471.58489795918365	472.97809523809525	67	127
472.1770068027211	472.97809523809525	74	127
472.1770068027211	472.97809523809525	59	127
472.9897052154195	474.56866213151926	60	127
472.9897052154195	475.1375510204082	76	127
472.9897052154195	475.1375510204082	60	127
474.58027210884353	475.7760997732426	55	127
475.14916099773245	475.7760997732426	62	127
475.14916099773245	475.7760997732426	77	127
475.14916099773245	475.7760997732426	59	127
475.7877097505669	478.3999546485261	64	127
475.7877097505669	477.61047619047616	76	127
475.7877097505669	478.3999546485261	48	127
475.7877097505669	479.23587301587304	55	127
477.62208616780043	479.23587301587304	71	127
478.41156462585036	479.23587301587304	50	127
478.41156462585036	479.23587301587304	65	127
479.3055328798186	481.27922902494333	67	127
479.3055328798186	481.27922902494333	72	127
479.3055328798186	481.27922902494333	52	127
479.3055328798186	482.9742857142857	55	127
481.29083900226755	482.09192743764174	57	127
481.29083900226755	484.27460317460316	84	127
481.29083900226755	486.4224489795918	60	127
482.103537414966	482.9742857142857	45	127
482.98589569161	485.4936507936508	57	127
482.98589569161	486.4224489795918	53	127
484.2862131519274	487.9665759637188	84	127
485.50526077097504	486.4224489795918	69	127
486.4340589569161	490.358231292517	65	127
486.4340589569161	487.9665759637188	57	127
486.4340589569161	487.9665759637188	60	127
487.9781859410431	488.593514739229	55	127
487.9781859410431	491.5192290249433	86	127
487.9781859410431	490.358231292517	59	127
488.61673469387756	490.358231292517	43	127
490.3698412698413	491.5192290249433	71	127
490.3698412698413	492.1345578231292	55	127
490.3698412698413	492.92403628117916	65	127
491.53083900226756	492.92403628117916	72	127
491.53083900226756	494.1895238095238	79	127
492.1461678004535	492.92403628117916	48	127
492.9356462585034	494.1895238095238	64	127
492.9356462585034	494.99061224489793	60	127
492.9356462585034	495.6291609977324	76	127
494.20113378684806	495.6291609977324	72	127
494.20113378684806	497.34743764172333	81	127
495.0022222222222	495.6291609977324	55	127
495.6407709750567	497.34743764172333	53	127
495.6407709750567	497.34743764172333	77	127
495.6407709750567	499.51850340136053	60	127
497.3590476190476	498.05564625850343	55	127
497.3590476190476	499.51850340136053	65	127
497.3590476190476	501.00458049886623	74	127
498.06725623582764	499.51850340136053	43	127
499.5301133786848	501.747619047619	55	127
499.5301133786848	501.00458049886623	59	127
499.5301133786848	502.4906575963719	62	127
501.0161904761905	502.4906575963719	67	127
501.0161904761905	502.4906575963719	55	127
501.0161904761905	504.48757369614515	76	127
501.7592290249433	502.4906575963719	48	127
502.50226757369614	506.54253968253965	60	127
502.50226757369614	504.48757369614515	55	127
502.50226757369614	505.61374149659866	60	127
504.49918367346936	506.54253968253965	53	127
504.49918367346936	506.54253968253965	57	127
504.49918367346936	508.9109750566893	77	127
505.6253514739229	506.54253968253965	53	127
506.5541496598639	508.9109750566893	65	127
506.5541496598639	508.9109750566893	69	127
506.5541496598639	508.9109750566893	53	127
508.9225850340136	510.397052154195	72	127
510.4086621315193	512.1269387755102	81	127
511.52321995464854	512.8351247165533	60	127
512.1385487528345	512.8351247165533	76	127
512.8467346938776	514.5534240362812	69	127
512.8467346938776	515.3777324263039	77	127
514.5650340136054	516.2252607709751	45	127
514.5650340136054	516.2252607709751	48	127
515.3893424036281	516.2252607709751	76	127
516.2484807256236	517.9203174603175	74	127
516.2484807256236	518.6749659863946	57	127
516.2484807256236	518.6749659863946	53	127
517.9319274376418	519.5689342403629	72	127
518.6865759637188	519.5689342403629	64	127
518.6865759637188	519.5689342403629	55	127
519.5805215419501	521.5310204081633	71	127
519.5805215419501	521.5310204081633	62	127
519.5805215419501	521.5310204081633	67	127
521.5426303854875	522.1231292517007	69	127
521.5426303854875	523.5975963718821	65	127
521.5426303854875	523.5975963718821	57	127
521.5426303854875	524.8514739229025	84	127
522.134739229025	523.5975963718821	57	127
523.6092063492064	526.1517913832199	69	127
523.6092063492064	527.1618367346939	72	127
523.6092063492064	527.1618367346939	65	127
525.4551927437642	528.6479365079365	84	127
526.1634013605442	527.1618367346939	57	127
527.1734693877551	530.48231292517	77	127
527.1734693877551	528.6479365079365	72	127
527.1734693877551	528.6479365079365	69	127
528.6595464852608	530.48231292517	71	127
528.6595464852608	529.2400453514739	67	127
528.6595464852608	531.6200907029479	86	127
529.2516553287982	530.48231292517	55	127
530.4939229024943	533.5473469387755	65	127
530.4939229024943	531.6200907029479	71	127
530.4939229024943	532.5372789115646	67	127
531.6317006802722	533.5473469387755	72	127
531.6317006802722	535.4049433106576	79	127
532.5488888888889	533.5473469387755	48	127
533.5589569160998	535.4049433106576	64	127
533.5589569160998	536.0086621315193	60	127
533.5589569160998	536.6704308390023	76	127
535.4165532879819	536.6704308390023	60	127
535.4165532879819	538.6673469387755	81	127
536.0202721088435	536.6704308390023	60	127
536.6820408163265	538.6673469387755	69	127
536.6820408163265	538.6673469387755	65	127
536.6820408163265	541.6511111111112	77	127
538.6789569160998	542.8004988662132	77	127
538.6789569160998	541.6511111111112	57	127
538.6789569160998	539.2362358276644	62	127
539.2478458049886	541.6511111111112	50	127
541.6626984126984	542.8004988662132	62	127
541.6626984126984	542.8004988662132	69	127
541.6626984126984	544.959954648526	74	127
542.8121088435374	546.4112018140589	79	127
542.8121088435374	544.959954648526	71	127
542.8121088435374	543.4506575963719	55	127
543.4622675736962	544.959954648526	43	127
544.9831746031746	546.4112018140589	55	127
544.9831746031746	546.4112018140589	71	127
544.9831746031746	546.4112018140589	62	127
546.4228117913832	547.2703401360544	57	127
546.4228117913832	548.8957369614512	69	127
546.4228117913832	549.8825850340136	76	127
546.4228117913832	550.6372335600907	61	127
547.2819501133787	548.2804081632653	45	127
548.2920181405896	552.1349206349206	57	127
548.9073469387755	549.8825850340136	64	127
549.8941950113378	551.3918820861678	76	127
549.8941950113378	552.9824489795918	81	127
550.6604308390023	551.3918820861678	61	127
551.4034920634921	552.9824489795918	79	127
551.4034920634921	552.9824489795918	64	127
552.1465306122449	552.9824489795918	47	127
553.0056689342404	553.4352380952381	50	127
553.0056689342404	553.4352380952381	38	127
553.0056689342404	553.6558276643991	86	127
553.0056689342404	553.6558276643991	62	127
553.0056689342404	553.6558276643991	69	127
553.0056689342404	553.6558276643991	78	127
553.8996371882087	554.4685260770975	66	127
553.8996371882087	554.4685260770975	50	127
553.8996371882087	554.6775056689343	62	127
553.8996371882087	554.6775056689343	78	127
554.9213151927438	555.4089342403628	90	127
555.4321541950113	555.8501133786848	69	127
555.4321541950113	555.8501133786848	64	127
555.4321541950113	555.8501133786848	49	127
555.8733333333333	556.16358276644	88	127
556.1867800453515	556.604739229025	81	127
556.1867800453515	556.604739229025	64	127
556.1867800453515	556.604739229025	61	127
556.4073696145125	556.6279818594104	81	127
556.6279818594104	556.8485714285714	86	127
556.8485714285714	556.9878911564626	85	127
556.9878911564626	557.1736507936508	81	127
557.1736507936508	557.2897505668934	83	127
557.2897505668934	557.4871201814059	85	127
557.5103401360544	557.9166893424036	62	127
557.5103401360544	557.9166893424036	59	127
557.5103401360544	557.9166893424036	86	127
557.5103401360544	557.9166893424036	47	127
558.2765986394558	558.5552380952381	62	127
558.2765986394558	558.5552380952381	78	127
558.2765986394558	558.5552380952381	74	127
558.2765986394558	558.5552380952381	71	127
558.2765986394558	558.5552380952381	59	127
558.9848072562359	559.3795464852608	86	127
559.4027664399093	559.7742857142857	66	127
559.4027664399093	559.7742857142857	61	127
559.4027664399093	559.7742857142857	45	127
559.7975056689343	559.9832653061225	85	127
560.006485260771	560.4592743764173	78	127
560.006485260771	560.4592743764173	73	127
560.006485260771	560.4592743764173	57	127
560.2386848072563	560.4824716553288	78	127
560.4824716553288	560.668253968254	83	127
560.668253968254	560.888820861678	81	127
560.888820861678	561.0978004535148	79	127
561.0978004535148	561.1674829931973	78	127
561.1674829931973	561.2487528344672	79	127
561.2487528344672	561.4461224489796	81	127
561.4809523809524	562.0150113378685	83	127
561.4809523809524	562.0150113378685	59	127
561.4809523809524	562.0150113378685	55	127
561.4809523809524	562.0150113378685	43	127
562.4213605442177	562.8044897959184	62	127
562.4213605442177	562.8044897959184	55	127
562.4213605442177	562.8044897959184	74	127
562.4213605442177	562.8044897959184	71	127
562.4213605442177	562.8044897959184	67	127
562.4213605442177	562.8044897959184	55	127
563.0482993197279	563.2921088435374	83	127
563.3037188208617	563.7332879818595	62	127
563.3037188208617	563.7332879818595	57	127
563.3037188208617	563.7332879818595	54	127
563.7448752834467	563.9770975056689	81	127
563.9887074829932	564.4066666666666	69	127
563.9887074829932	564.4066666666666	74	127
563.9887074829932	564.4066666666666	66	127
564.2092970521542	564.3486167800454	81	127
564.4182766439909	564.5691836734694	83	127
564.6388662131519	564.7665532879819	85	127
564.8362358276644	566.0668934240363	47	127
564.8362358276644	564.9871428571429	86	127
564.8362358276644	566.0668934240363	50	127
565.0452154195011	565.1729251700681	88	127
565.219365079365	565.3702947845806	90	127
565.439954648526	565.567664399093	91	127
565.6373242630385	566.0668934240363	93	127
565.834693877551	565.962403628118	57	127
565.9972108843538	566.0320634920635	62	127
566.0668934240363	566.6590022675737	91	127
566.0668934240363	566.2178004535148	64	127
566.0668934240363	566.6590022675737	49	127
566.0668934240363	566.6590022675737	57	127
566.2874829931973	566.4384126984127	66	127
566.4848526077097	566.6125396825397	69	127
566.6706122448979	567.2394784580499	57	127
566.6706122448979	566.7751020408164	69	127
566.6706122448979	567.2394784580499	50	127
566.6706122448979	567.2394784580499	90	127
566.6706122448979	567.2394784580499	54	127
566.8447619047619	566.9956916099774	71	127
567.0537414965986	567.1930612244898	73	127
567.1930612244898	567.2394784580499	74	127
567.2394784580499	567.9593197278912	62	127
567.2394784580499	567.3091609977324	73	127
567.2394784580499	567.9593197278912	57	127
567.2394784580499	567.599410430839	88	127
567.378820861678	567.5297505668934	76	127
567.599410430839	567.9709297052154	76	127
567.599410430839	567.7387301587302	74	127
567.7967800453515	567.9128798185941	73	127
567.9709297052154	568.6210884353742	52	127
567.9709297052154	568.087029478458	74	127
567.9709297052154	568.876485260771	83	127
567.9709297052154	568.6210884353742	44	127
567.9709297052154	568.6210884353742	59	127
568.1450793650794	568.2843990929705	71	127
568.3192290249433	568.4237188208617	76	127
568.435328798186	568.5746485260771	74	127
568.6326984126985	568.748798185941	73	127
568.6326984126985	568.876485260771	52	127
568.6326984126985	569.3525170068027	45	127
568.7720181405896	568.8416780045352	76	127
568.876485260771	569.3409070294784	81	127
568.876485260771	569.0274376417234	81	127
568.876485260771	569.3409070294784	55	127
568.876485260771	569.3409070294784	52	127
569.1087074829932	569.2712244897959	85	127
569.364126984127	569.5034467120181	81	127
569.364126984127	569.7820861678005	86	127
569.364126984127	569.7820861678005	54	127
569.364126984127	569.7820861678005	38	127
569.5963265306123	569.7356462585034	62	127
569.805306122449	569.9097959183673	78	127
569.9097959183673	570.0491156462585	79	127
570.1071428571429	570.246485260771	81	127
570.1071428571429	570.5367346938775	62	127
570.1071428571429	570.5367346938775	66	127
570.1071428571429	570.5367346938775	50	127
570.3277551020408	570.467074829932	83	127
570.5599546485261	570.6992517006803	85	127
570.73410430839	570.8385941043084	88	127
570.73410430839	571.0243537414966	78	127
570.73410430839	571.0243537414966	62	127
570.8385941043084	570.9779138321995	90	127
571.0475736961452	571.0591836734694	91	127
571.0591836734694	571.2101133786848	93	127
571.0591836734694	571.2101133786848	49	127
571.2333333333333	571.302993197279	69	127
571.2333333333333	571.6512925170068	76	127
571.302993197279	571.3726530612245	71	127
571.3726530612245	571.4539229024944	69	127
571.4539229024944	571.523560090703	71	127
571.523560090703	571.5932426303855	69	127
571.5932426303855	571.6745124716554	71	127
571.6745124716554	572.0924716553288	64	127
571.6745124716554	571.7441723356009	69	127
571.6745124716554	572.0924716553288	61	127
571.6745124716554	572.0924716553288	37	127
571.7441723356009	571.8138321995465	71	127
571.8138321995465	571.8951020408164	69	127
571.8951020408164	572.1156916099774	69	127
571.8951020408164	571.9647619047619	71	127
571.9647619047619	572.0344217687075	69	127
572.0344217687075	572.1156916099774	71	127
572.1156916099774	572.1853514739229	69	127
572.1156916099774	572.3362585034014	74	127
572.1853514739229	572.2550113378685	71	127
572.2550113378685	572.3362585034014	69	127
572.3362585034014	572.4407709750567	68	127
572.3362585034014	572.5452380952381	73	127
572.4407709750567	572.5452380952381	69	127
572.5452380952381	572.7542176870749	71	127
572.5452380952381	572.6149206349206	81	127
572.5452380952381	572.94	49	127
572.6149206349206	572.6845804988662	83	127
572.6845804988662	572.7542176870749	81	127
572.7542176870749	572.8239002267574	83	127
572.7542176870749	572.9631972789116	69	127
572.8239002267574	572.8819501133787	81	127
572.8819501133787	572.9631972789116	83	127
572.9631972789116	573.0328798185941	81	127
572.9631972789116	573.1489569160998	83	127
573.0328798185941	573.1025396825397	83	127
573.1025396825397	573.1489569160998	81	127
573.1489569160998	573.1838095238095	80	127
573.1489569160998	573.2650793650794	85	127
573.1838095238095	573.2650793650794	81	127
573.2882993197279	573.6830385487528	59	127
573.2882993197279	573.427619047619	74	127
573.2882993197279	573.6830385487528	86	127
573.4856689342404	573.6249886621315	62	127
573.7062585034014	573.7991383219954	74	127
573.7991383219954	573.8804081632653	76	127
573.9616780045352	574.4609070294784	54	127
573.9616780045352	574.1126077097506	78	127
573.9616780045352	574.4609070294784	62	127
573.9616780045352	574.4609070294784	62	127
573.9616780045352	574.4609070294784	47	127
574.2054875283446	574.3680272108844	83	127
574.5073469387755	574.6466666666666	85	127
574.7279365079365	574.8208163265306	86	127
574.8440362811791	575.018185941043	86	127
574.8440362811791	574.8556462585034	88	127
574.8440362811791	574.9020861678005	59	127
574.925306122449	575.018185941043	90	127
575.018185941043	575.3084353741497	90	127
575.018185941043	575.3084353741497	57	127
575.3316553287982	575.7496145124717	85	127
575.3316553287982	575.4012925170068	66	127
575.4012925170068	575.4709750566893	67	127
575.4709750566893	575.5522448979592	66	127
575.5522448979592	575.6218820861678	67	127
575.6218820861678	575.6915646258503	66	127
575.6915646258503	575.7728344671202	67	127
575.7728344671202	576.1791836734694	73	127
575.7728344671202	575.8424943310657	66	127
575.7728344671202	576.1791836734694	69	127
575.7728344671202	576.1791836734694	45	127
575.8424943310657	575.9121541950113	67	127
575.9121541950113	575.9934240362812	66	127
575.9934240362812	576.0514739229025	67	127
575.9934240362812	576.202403628118	78	127
576.0514739229025	576.1211337868481	66	127
576.1211337868481	576.202403628118	67	127
576.202403628118	576.2720634920635	66	127
576.202403628118	576.4113832199547	83	127
576.2720634920635	576.3417233560091	67	127
576.3417233560091	576.4113832199547	66	127
576.4113832199547	576.4810430839002	64	127
576.4113832199547	576.5623129251701	81	127
576.4810430839002	576.5623129251701	66	127
576.5623129251701	576.6668027210884	79	127
576.5623129251701	576.6319501133787	78	127
576.5623129251701	576.736462585034	57	127
576.6319501133787	576.6668027210884	78	127
576.6668027210884	576.7596825396826	78	127
576.6668027210884	576.7016326530612	78	127
576.7016326530612	576.7596825396826	79	127
576.7596825396826	576.8177324263039	78	127
576.7596825396826	576.957052154195	79	127
576.8177324263039	576.8757823129251	79	127
576.8757823129251	576.957052154195	78	127
576.957052154195	577.0499092970522	76	127
576.957052154195	577.1428117913832	81	127
577.0499092970522	577.1428117913832	78	127
577.1660317460318	577.5839909297052	55	127
577.1660317460318	577.3053514739229	62	127
577.1660317460318	577.5839909297052	83	127
577.3866213151928	577.5259410430839	74	127
577.6072108843538	577.6536281179139	76	127
577.7349206349206	577.7465306122449	78	127
577.8278004535148	578.2689569160998	62	127
577.8278004535148	577.9787301587302	79	127
577.8278004535148	578.2689569160998	55	127
577.8278004535148	578.2689569160998	71	127
577.8278004535148	578.2689569160998	43	127
578.0599773242631	578.2109297052154	81	127
578.2921995464852	578.4315192743765	83	127
578.5127891156462	578.5708390022676	85	127
578.5940589569161	578.6172789115647	86	127
578.5940589569161	579.0120181405896	83	127
578.5940589569161	578.8146485260771	55	127
578.6172789115647	578.7565986394558	86	127
578.8378684807257	578.9771882086168	86	127
579.0120181405896	579.0700680272109	86	127
579.0120181405896	579.0700680272109	54	127
579.0700680272109	579.1861678004535	80	127
579.1977777777778	580.0569160997733	54	127
579.1977777777778	579.604126984127	74	127
579.1977777777778	579.604126984127	69	127
579.1977777777778	579.604126984127	66	127
579.4183673469388	579.604126984127	81	127
579.6157369614513	579.7550566893424	81	127
579.7666666666667	579.9059637188209	83	127
579.9175736961452	580.0569160997733	85	127
580.0685260770975	581.7751927437641	67	127
580.0685260770975	580.2078458049887	85	127
580.0685260770975	580.5096825396826	47	127
580.2194557823129	580.358775510204	86	127
580.3703854875283	580.4980952380953	88	127
580.5096825396826	581.3456009070295	62	127
580.5096825396826	580.6374149659864	88	127
580.5096825396826	581.3456009070295	59	127
580.6490249433107	580.7883446712018	90	127
580.7999546485261	580.927641723356	91	127
580.9392517006803	581.3572335600907	93	127
581.3572335600907	581.7868027210884	81	127
581.3572335600907	582.2163718820862	62	127
581.3572335600907	582.2163718820862	59	127
581.7868027210884	583.7836961451247	69	127
581.7868027210884	582.2279818594104	79	127
582.2279818594104	582.9013605442177	61	127
582.2279818594104	582.5414512471656	91	127
582.2279818594104	582.9013605442177	64	127
582.5414512471656	582.912970521542	90	127
582.912970521542	583.3309297052155	66	127
582.912970521542	583.3309297052155	62	127
582.912970521542	583.3425396825397	78	127
583.3425396825397	583.7836961451247	88	127
583.3425396825397	584.062358276644	64	127
583.7836961451247	584.062358276644	73	127
583.7836961451247	584.0739682539682	69	127
583.7836961451247	584.0739682539682	76	127
584.0739682539682	585.0840362811791	83	127
584.0739682539682	584.8285941043084	74	127
584.0739682539682	584.8285941043084	56	127
584.0739682539682	585.2930158730159	64	127
584.8402267573696	585.2930158730159	73	127
584.8402267573696	585.2930158730159	57	127
585.0840362811791	585.2930158730159	76	127
585.2930158730159	585.7574149659864	59	127
585.2930158730159	585.5136054421769	81	127
585.2930158730159	585.7574149659864	74	127
585.2930158730159	585.7574149659864	62	127
585.5136054421769	585.7574149659864	80	127
585.7690249433107	586.5585034013606	79	127
585.7690249433107	586.5585034013606	76	127
585.7690249433107	586.09410430839	61	127
585.7690249433107	586.09410430839	64	127
586.2102040816327	586.4539909297052	52	127
586.2102040816327	586.4539909297052	49	127
586.5701133786848	587.2202721088436	69	127
586.9184126984127	587.2202721088436	62	127
586.9184126984127	587.2202721088436	59	127
587.2318820861678	587.3015419501133	67	127
587.3015419501133	587.3479818594104	69	127
587.3479818594104	587.3944217687075	67	127
587.3944217687075	587.4756689342404	69	127
587.4756689342404	587.5453514739229	67	127
587.5453514739229	587.6034013605442	69	127
587.6034013605442	588.0097505668934	61	127
587.6034013605442	587.6730385487529	67	127
587.6034013605442	588.0097505668934	64	127
587.6730385487529	587.7427210884354	69	127
587.7427210884354	587.812380952381	67	127
587.812380952381	587.9168707482993	66	127
587.9168707482993	588.0213605442177	67	127
588.0213605442177	588.6366893424037	86	127
588.0213605442177	589.3448979591836	66	127
588.2419501133787	588.6366893424037	62	127
588.2419501133787	588.6366893424037	66	127
588.6482993197279	589.3448979591836	79	127
588.9501587301587	589.3448979591836	61	127
588.9501587301587	589.3448979591836	52	127
589.3565079365079	589.4377777777778	78	127
589.4377777777778	589.4958276643991	79	127
589.4958276643991	589.5422675736961	79	127
589.5422675736961	589.6119274376417	78	127
589.6119274376417	589.6815873015873	79	127
589.6815873015873	590.0066666666667	50	127
589.6815873015873	589.7628571428571	78	127
589.6815873015873	590.0066666666667	62	127
589.7628571428571	589.7976870748299	79	127
589.7976870748299	589.8325170068027	78	127
589.8325170068027	589.9137868480726	76	127
589.9137868480726	590.0066666666667	78	127
590.0182766439909	590.2272562358277	61	127
590.0182766439909	590.2272562358277	57	127
590.0182766439909	590.7496825396826	76	127
590.3549659863945	590.6568253968254	45	127
590.3549659863945	590.6568253968254	49	127
590.7613151927437	591.0515646258503	69	127
591.0631746031746	591.3882539682539	69	127
591.0631746031746	591.3882539682539	62	127
591.0631746031746	591.3882539682539	59	127
591.3998639455782	591.4811337868481	67	127
591.4811337868481	591.5507936507937	69	127
591.5507936507937	591.5856235827664	67	127
591.5856235827664	591.6088435374149	69	127
591.6088435374149	591.6668934240363	67	127
591.6668934240363	591.7365532879819	69	127
591.7365532879819	592.1196825396826	64	127
591.7365532879819	591.8178231292517	67	127
591.7365532879819	592.1196825396826	61	127
591.8178231292517	591.8526530612245	69	127
591.8526530612245	591.9107029478458	67	127
591.9107029478458	592.0268027210884	66	127
592.0268027210884	592.1312925170068	67	127
592.1312925170068	592.3634920634921	66	127
592.1312925170068	592.7930385487529	86	127
592.3634920634921	593.1645804988663	69	127
592.3634920634921	592.7930385487529	66	127
592.3634920634921	592.7930385487529	62	127
592.804671201814	593.1645804988663	79	127
593.1877777777778	593.5825396825397	79	127
593.1877777777778	593.5825396825397	73	127
593.1877777777778	593.5825396825397	64	127
593.1877777777778	593.594149659864	81	127
593.594149659864	593.6754195011338	76	127
593.594149659864	593.8031065759637	69	127
593.6754195011338	593.8031065759637	78	127
593.8031065759637	594.0120861678005	67	127
593.8031065759637	594.0120861678005	79	127
593.8031065759637	594.2791383219954	62	127
593.8031065759637	594.2791383219954	74	127
594.0120861678005	594.2791383219954	66	127
594.0120861678005	594.2791383219954	81	127
594.2907482993197	594.4184353741497	71	127
594.2907482993197	594.3952380952381	55	127
594.2907482993197	594.3952380952381	67	127
594.4184353741497	594.6042176870749	59	127
594.4184353741497	594.6042176870749	55	127
594.6274149659864	594.8015873015873	83	127
594.6274149659864	594.8015873015873	59	127
594.6274149659864	594.8015873015873	55	127
594.8131972789116	594.9989569160998	55	127
594.8131972789116	594.9989569160998	71	127
594.8131972789116	594.9989569160998	78	127
594.9989569160998	595.1498866213152	55	127
594.9989569160998	595.1498866213152	71	127
594.9989569160998	595.1614965986395	67	127
595.1614965986395	595.3472562358277	59	127
595.1614965986395	595.3472562358277	55	127
595.3704761904762	595.5214058956916	55	127
595.3704761904762	595.5214058956916	79	127
595.3704761904762	595.5214058956916	59	127
595.5330158730159	595.6839455782313	71	127
595.5330158730159	595.6839455782313	55	127
595.5330158730159	595.7071655328798	75	127
595.7071655328798	595.8813151927437	71	127
595.7071655328798	595.8813151927437	55	127
595.7071655328798	595.892925170068	64	127
595.892925170068	596.067052154195	59	127
595.892925170068	596.067052154195	55	127
596.0902947845805	596.241224489796	76	127
596.0902947845805	596.241224489796	59	127
596.0902947845805	596.241224489796	55	127
596.2528344671202	596.4153741496599	67	127
596.2528344671202	596.4153741496599	69	127
596.2528344671202	596.4385941043084	74	127
596.4385941043084	596.6243537414966	67	127
596.4385941043084	596.6243537414966	69	127
596.4385941043084	596.6359637188209	64	127
596.6359637188209	596.775283446712	64	127
596.6359637188209	596.775283446712	61	127
596.6359637188209	596.775283446712	57	127
596.6359637188209	596.775283446712	67	127
596.7868934240363	596.9726530612245	73	127
596.7868934240363	596.9726530612245	64	127
596.7868934240363	596.9726530612245	61	127
596.7868934240363	596.9726530612245	57	127
596.7868934240363	596.9726530612245	67	127
596.9842630385488	597.1468027210884	67	127
596.9842630385488	597.1468027210884	69	127
596.9842630385488	597.1584126984127	74	127
597.1584126984127	597.3209523809523	69	127
597.1584126984127	597.3209523809523	67	127
597.1584126984127	597.3441723356009	64	127
597.3441723356009	597.4950793650794	61	127
597.3441723356009	597.4950793650794	57	127
597.3441723356009	597.4950793650794	64	127
597.3441723356009	597.4950793650794	67	127
597.4950793650794	597.657641723356	76	127
597.4950793650794	597.657641723356	64	127
597.4950793650794	597.657641723356	61	127
597.4950793650794	597.657641723356	57	127
597.4950793650794	597.657641723356	67	127
597.6808616780046	597.83179138322	67	127
597.6808616780046	597.83179138322	69	127
597.6808616780046	597.8434013605442	78	127
597.8434013605442	597.9827210884354	67	127
597.8434013605442	597.9827210884354	69	127
597.8434013605442	598.0059410430839	67	127
598.0059410430839	598.145260770975	64	127
598.0059410430839	598.145260770975	61	127
598.0059410430839	598.145260770975	57	127
598.0059410430839	598.145260770975	67	127
598.145260770975	598.2961904761905	79	127
598.145260770975	598.2961904761905	64	127
598.145260770975	598.2961904761905	61	127
598.145260770975	598.2961904761905	57	127
598.145260770975	598.2961904761905	67	127
598.3193877551021	598.5051473922903	64	127
598.3193877551021	598.5051473922903	76	127
598.3193877551021	598.5167573696145	80	127
598.5167573696145	598.6793197278912	64	127
598.5167573696145	598.6793197278912	76	127
598.5167573696145	598.7025396825397	76	127
598.7025396825397	598.8766893424037	49	127
598.7025396825397	598.8766893424037	55	127
598.7025396825397	598.8766893424037	57	127
598.7025396825397	598.8766893424037	67	127
598.8882993197279	599.0624489795919	81	127
598.8882993197279	599.0624489795919	49	127
598.8882993197279	599.0624489795919	55	127
598.8882993197279	599.0624489795919	57	127
598.8882993197279	599.0624489795919	67	127
599.0740589569161	599.2598185941043	64	127
599.0740589569161	599.2598185941043	76	127
599.0740589569161	599.2830385487529	82	127
599.2830385487529	599.3875283446712	64	127
599.2830385487529	599.3875283446712	76	127
599.2830385487529	599.3991383219955	76	127
599.3991383219955	599.550045351474	49	127
599.3991383219955	599.550045351474	55	127
599.3991383219955	599.550045351474	57	127
599.3991383219955	599.550045351474	67	127
599.5616780045351	599.7474149659864	83	127
599.5616780045351	599.7474149659864	49	127
599.5616780045351	599.7474149659864	55	127
599.5616780045351	599.7474149659864	57	127
599.5616780045351	599.7474149659864	67	127
599.7590476190476	599.9447845804989	64	127
599.7590476190476	599.9447845804989	76	127
599.7590476190476	599.9563945578232	82	127
599.9563945578232	600.084126984127	64	127
599.9563945578232	600.084126984127	76	127
599.9563945578232	600.0957369614513	76	127
600.0957369614513	600.2582766439909	49	127
600.0957369614513	600.2582766439909	55	127
600.0957369614513	600.2582766439909	57	127
600.0957369614513	600.2582766439909	67	127
600.2698866213152	600.4324263038549	67	127
600.2698866213152	600.4324263038549	81	127
600.2698866213152	600.4324263038549	49	127
600.2698866213152	600.4324263038549	55	127
600.2698866213152	600.4324263038549	57	127
600.4440362811791	600.5949659863945	76	127
600.4440362811791	600.5949659863945	64	127
600.4440362811791	600.6065759637188	82	127
600.6065759637188	600.7807256235827	76	127
600.6065759637188	600.7807256235827	64	127
600.6065759637188	600.792335600907	76	127
600.792335600907	600.9780725623583	57	127
600.792335600907	600.9780725623583	49	127
600.792335600907	600.9780725623583	55	127
600.792335600907	600.9780725623583	67	127
600.9897052154195	601.1638321995465	57	127
600.9897052154195	601.1638321995465	83	127
600.9897052154195	601.1638321995465	49	127
600.9897052154195	601.1638321995465	55	127
600.9897052154195	601.1638321995465	67	127
601.187052154195	601.3496145124717	76	127
601.187052154195	601.3496145124717	64	127
601.187052154195	601.3728117913832	82	127
601.3728117913832	601.5121541950114	76	127
601.3728117913832	601.5121541950114	64	127
601.3728117913832	601.5237641723356	76	127
601.5237641723356	601.6979138321996	55	127
601.5237641723356	601.6979138321996	49	127
601.5237641723356	601.6979138321996	57	127
601.5237641723356	601.6979138321996	67	127
601.7095238095238	601.8836734693878	67	127
601.7095238095238	601.8836734693878	81	127
601.7095238095238	601.8836734693878	49	127
601.7095238095238	601.8836734693878	55	127
601.7095238095238	601.8836734693878	57	127
601.895283446712	602.0810430839002	76	127
601.895283446712	602.0810430839002	64	127
601.895283446712	602.0926530612245	82	127
602.0926530612245	602.2668027210884	76	127
602.0926530612245	602.2668027210884	64	127
602.0926530612245	602.2784126984127	76	127
602.2784126984127	602.4757823129252	61	127
602.2784126984127	602.4757823129252	61	127
602.2784126984127	602.4757823129252	64	127
602.2784126984127	602.4757823129252	52	127
602.2784126984127	602.4757823129252	43	127
602.4873922902494	602.7544217687075	61	127
602.4873922902494	602.7544217687075	83	127
602.4873922902494	602.7544217687075	61	127
602.4873922902494	602.7544217687075	64	127
602.4873922902494	602.7544217687075	52	127
602.4873922902494	602.7544217687075	43	127
602.777641723356	603.6483900226757	52	127
602.777641723356	603.6483900226757	83	127
602.777641723356	603.6483900226757	71	127
602.777641723356	603.6483900226757	61	127
602.777641723356	603.6483900226757	43	127
603.6716099773242	604.4959183673469	86	127
603.6716099773242	604.4959183673469	62	127
603.6716099773242	604.4959183673469	66	127
603.6716099773242	604.4959183673469	50	127
603.6716099773242	604.4959183673469	59	127
603.6716099773242	604.4959183673469	44	127
604.5075283446712	606.2374149659864	45	127
604.5075283446712	605.3318367346939	90	127
604.5075283446712	606.2374149659864	50	127
604.5075283446712	606.2374149659864	62	127
604.5075283446712	606.2374149659864	57	127
604.5075283446712	606.2374149659864	66	127
605.3434467120181	605.8078458049887	93	127
605.8078458049887	606.2490249433107	81	127
606.2490249433107	607.3287528344671	67	127
606.2490249433107	607.0733333333334	37	127
606.2490249433107	607.3287528344671	88	127
606.2490249433107	607.5493424036281	57	127
607.0965306122449	608.0485714285714	38	127
607.3287528344671	607.5609523809524	86	127
607.3287528344671	607.5609523809524	66	127
607.5609523809524	607.8163718820862	91	127
607.5609523809524	607.8163718820862	76	127
607.5609523809524	607.8163718820862	61	127
607.8163718820862	608.0485714285714	90	127
607.8163718820862	608.0485714285714	74	127
607.8163718820862	608.0485714285714	62	127
608.07179138322	608.5361678004535	64	127
608.07179138322	608.2343310657596	88	127
608.07179138322	608.4084807256236	73	127
608.3156009070295	608.4433106575964	88	127
608.4433106575964	608.5361678004535	88	127
608.5477777777778	610.3009070294785	69	127
608.5477777777778	608.6987301587302	81	127
608.5477777777778	608.8612698412699	86	127
608.7683900226757	608.9889795918367	81	127
608.9889795918367	609.2095691609977	83	127
608.9889795918367	609.3024489795919	74	127
609.2095691609977	609.4185487528345	81	127
609.4301587301587	609.5114285714286	78	127
609.4301587301587	609.7436281179139	76	127
609.5114285714286	609.5810884353741	79	127
609.5810884353741	609.6507482993197	78	127
609.6507482993197	609.7320181405896	79	127
609.7320181405896	609.8016780045351	78	127
609.8016780045351	609.8713378684807	79	127
609.8713378684807	610.1848072562358	88	127
609.8713378684807	609.9526077097506	78	127
609.9526077097506	610.0222675736961	79	127
610.0222675736961	610.0919274376417	78	127
610.0919274376417	610.2080272108843	76	127
610.2080272108843	610.3009070294785	78	127
610.3125170068028	610.4634467120181	86	127
610.3125170068028	611.1832426303855	78	127
610.5331065759638	610.7536961451248	86	127
610.7536961451248	610.9742857142858	88	127
610.9742857142858	611.1832426303855	86	127
611.1948526077098	611.3458049886622	79	127
611.4154648526077	611.6360544217687	79	127
611.6360544217687	611.8450340136054	81	127
611.8450340136054	612.0540136054422	79	127
612.0656235827664	612.1468934240363	78	127
612.1468934240363	612.2165306122449	79	127
612.2165306122449	612.2629931972789	78	127
612.2629931972789	612.3442630385488	79	127
612.3442630385488	612.4139002267574	78	127
612.4139002267574	612.4835827664399	79	127
612.4835827664399	612.5648526077098	78	127
612.5648526077098	612.6344897959184	79	127
612.6344897959184	612.7041723356009	78	127
612.7041723356009	612.8202494331066	76	127
612.8202494331066	612.9247619047619	78	127
612.9247619047619	613.2382086167801	76	127
612.9247619047619	613.0756916099773	87	127
613.0756916099773	613.2265986394558	88	127
613.2265986394558	613.3659410430839	90	127
613.3659410430839	613.679410430839	85	127
613.3659410430839	613.5168707482993	88	127
613.5168707482993	613.6678004535147	87	127
613.6678004535147	613.7955102040817	88	127
613.8071201814059	614.120589569161	86	127
613.8071201814059	613.9580498866213	80	127
613.9580498866213	614.1089795918367	81	127
614.1089795918367	614.248276643991	83	127
614.248276643991	614.561768707483	74	127
614.248276643991	614.3992290249433	81	127
614.3992290249433	614.5501587301587	80	127
614.5501587301587	614.6778458049887	81	127
614.6894784580498	614.7707482993197	78	127
614.6894784580498	615.002947845805	76	127
614.7707482993197	614.8404081632654	79	127
614.8404081632654	614.9100680272109	78	127
614.9100680272109	614.9913378684807	79	127
614.9913378684807	615.0609977324264	78	127
615.0609977324264	615.1306575963719	79	127
615.1306575963719	615.444126984127	88	127
615.1306575963719	615.2119274376417	78	127
615.2119274376417	615.2815646258504	79	127
615.2815646258504	615.3512471655329	78	127
615.3512471655329	615.4673469387756	76	127
615.4673469387756	615.5370068027211	78	127
615.5370068027211	615.618276643991	76	127
615.618276643991	615.7924263038549	78	127
615.7924263038549	615.9433560090703	79	127
615.9433560090703	616.1175056689342	81	127
616.1407256235827	616.3845351473923	82	127
616.3845351473923	616.593514739229	59	127
616.3845351473923	616.593514739229	71	127
616.3845351473923	616.593514739229	62	127
616.6051247165533	616.767664399093	59	127
616.6051247165533	616.767664399093	62	127
616.6051247165533	616.7095918367347	82	127
616.7792743764172	616.8953741496599	85	127
616.7792743764172	616.9766439909297	43	127
616.8953741496599	616.9766439909297	83	127
616.9766439909297	617.1391836734693	43	127
616.9766439909297	617.1507936507936	78	127
617.1507936507936	617.3365306122449	67	127
617.1507936507936	617.3365306122449	71	127
617.1507936507936	617.3365306122449	62	127
617.1507936507936	617.3365306122449	59	127
617.3481632653061	617.5339002267574	71	127
617.3481632653061	617.4874829931973	78	127
617.3481632653061	617.5339002267574	67	127
617.3481632653061	617.5339002267574	62	127
617.3481632653061	617.5339002267574	59	127
617.5571428571428	617.7080725623583	43	127
617.5571428571428	617.6616326530612	81	127
617.6616326530612	617.7080725623583	79	127
617.7080725623583	617.8822222222223	43	127
617.7080725623583	617.9054421768708	75	127
617.9054421768708	618.0563718820862	59	127
617.9054421768708	618.0563718820862	64	127
617.9054421768708	618.0563718820862	71	127
617.9054421768708	618.0563718820862	67	127
617.9054421768708	618.0563718820862	62	127
618.0679818594105	618.2537414965986	71	127
618.0679818594105	618.2073015873016	75	127
618.0679818594105	618.2537414965986	67	127
618.0679818594105	618.2537414965986	62	127
618.0679818594105	618.2537414965986	59	127
618.2769614512472	618.4511111111111	43	127
618.2769614512472	618.3698412698412	78	127
618.3698412698412	618.4511111111111	76	127
618.4627210884354	618.6368707482993	45	127
618.4627210884354	618.6600907029479	74	127
618.6600907029479	618.8110204081632	61	127
618.6600907029479	618.8110204081632	64	127
618.6600907029479	618.8110204081632	69	127
618.6600907029479	618.8110204081632	67	127
618.6600907029479	618.8110204081632	64	127
618.8110204081632	618.973537414966	67	127
618.8110204081632	618.9387301587302	71	127
618.8110204081632	618.973537414966	69	127
618.8110204081632	618.973537414966	64	127
618.8110204081632	618.973537414966	61	127
618.9967800453514	619.1709070294785	45	127
618.9967800453514	619.0780498866213	74	127
619.0780498866213	619.1709070294785	73	127
619.1825396825396	619.3334693877551	45	127
619.1825396825396	619.3450793650794	74	127
619.3450793650794	619.5192290249433	61	127
619.3450793650794	619.5192290249433	64	127
619.3450793650794	619.5192290249433	69	127
619.3450793650794	619.5192290249433	67	127
619.3450793650794	619.5192290249433	64	127
619.5424489795919	619.6585487528345	69	127
619.5424489795919	619.6237188208617	75	127
619.5424489795919	619.6585487528345	67	127
619.5424489795919	619.6585487528345	64	127
619.5424489795919	619.6585487528345	61	127
619.6701587301587	619.8559183673469	45	127
619.6701587301587	619.7746258503402	78	127
619.7746258503402	619.8559183673469	76	127
619.8791383219955	620.0416780045351	45	127
619.8791383219955	620.0532879818594	78	127
620.0532879818594	620.2390476190476	67	127
620.0532879818594	620.2390476190476	69	127
620.0532879818594	620.2390476190476	64	127
620.0532879818594	620.2390476190476	61	127
620.2622675736961	620.4015646258504	67	127
620.2622675736961	620.343537414966	78	127
620.2622675736961	620.4015646258504	69	127
620.2622675736961	620.4015646258504	64	127
620.2622675736961	620.4015646258504	61	127
620.4131972789115	620.5989342403628	45	127
620.4131972789115	620.51768707483	81	127
620.51768707483	620.5989342403628	79	127
620.6221768707483	620.8079138321996	37	127
620.6221768707483	620.8195464852607	80	127
620.8195464852607	621.005283446712	55	127
620.8195464852607	621.005283446712	76	127
620.8195464852607	621.005283446712	67	127
620.8195464852607	621.005283446712	64	127
621.0168934240363	621.1910657596372	67	127
621.0168934240363	621.1446258503402	80	127
621.0168934240363	621.1910657596372	76	127
621.0168934240363	621.1910657596372	64	127
621.0168934240363	621.1910657596372	55	127
621.2026530612245	621.3536054421769	37	127
621.2026530612245	621.2955555555556	83	127
621.2955555555556	621.3536054421769	81	127
621.3652154195012	621.5509750566894	37	127
621.3652154195012	621.5625850340136	82	127
621.5625850340136	621.7367346938776	55	127
621.5625850340136	621.7367346938776	76	127
621.5625850340136	621.7367346938776	67	127
621.5625850340136	621.7367346938776	64	127
621.7599546485261	621.93410430839	67	127
621.7599546485261	621.887664399093	82	127
621.7599546485261	621.93410430839	76	127
621.7599546485261	621.93410430839	64	127
621.7599546485261	621.93410430839	55	127
621.9457142857143	622.0966439909297	37	127
621.9457142857143	622.0502040816326	85	127
622.0502040816326	622.0966439909297	83	127
622.1198639455782	622.2940136054422	37	127
622.1198639455782	622.3056235827664	82	127
622.3056235827664	622.5029931972789	76	127
622.3056235827664	622.4797732426304	76	127
622.3056235827664	622.4797732426304	67	127
622.3056235827664	622.4797732426304	64	127
622.3056235827664	622.4797732426304	55	127
622.5029931972789	622.6887528344671	83	127
622.5029931972789	622.6655328798186	76	127
622.5029931972789	622.6655328798186	67	127
622.5029931972789	622.6655328798186	64	127
622.5029931972789	622.6655328798186	55	127
622.6887528344671	622.8512698412699	81	127
622.6887528344671	622.8512698412699	37	127
622.8745124716553	623.0486394557823	76	127
622.8745124716553	623.0486394557823	55	127
622.8745124716553	623.0486394557823	64	127
622.8745124716553	623.0602494331066	82	127
622.8745124716553	623.0486394557823	37	127
622.8745124716553	623.0486394557823	67	127
623.0602494331066	623.2460090702948	76	127
623.0602494331066	623.2460090702948	73	127
623.0602494331066	623.2460090702948	67	127
623.2576190476191	623.4201814058957	67	127
623.2576190476191	623.3853514739229	82	127
623.2576190476191	623.4201814058957	73	127
623.2576190476191	623.4201814058957	76	127
623.43179138322	623.6059410430839	55	127
623.43179138322	623.6059410430839	49	127
623.43179138322	623.524671201814	85	127
623.524671201814	623.6059410430839	83	127
623.6175510204082	623.8033106575964	82	127
623.6175510204082	623.7800907029479	49	127
623.6175510204082	623.7800907029479	55	127
623.8033106575964	623.9658503401361	76	127
623.8033106575964	623.9658503401361	73	127
623.8033106575964	623.9658503401361	67	127
623.9890702947846	624.1051700680272	80	127
623.9890702947846	624.1516099773243	73	127
623.9890702947846	624.1516099773243	76	127
623.9890702947846	624.1516099773243	67	127
624.1632199546485	624.3373696145125	49	127
624.1632199546485	624.2560997732427	83	127
624.1632199546485	624.3373696145125	55	127
624.2560997732427	624.3373696145125	81	127
624.3489795918367	624.5347392290249	82	127
624.3489795918367	624.5231292517007	49	127
624.3489795918367	624.5231292517007	55	127
624.5347392290249	624.7204988662131	49	127
624.5347392290249	624.7204988662131	55	127
624.5347392290249	624.7204988662131	67	127
624.5347392290249	624.7204988662131	76	127
624.5347392290249	624.7204988662131	73	127
624.7321088435374	624.9178684807256	43	127
624.7321088435374	624.8714285714286	82	127
624.7321088435374	624.9178684807256	73	127
624.7321088435374	624.9178684807256	76	127
624.7321088435374	624.9178684807256	49	127
624.7321088435374	624.9178684807256	55	127
624.9410884353741	625.0455782312926	85	127
624.9410884353741	625.1500680272109	55	127
624.9410884353741	625.1500680272109	49	127
624.9410884353741	625.1500680272109	43	127
625.0455782312926	625.1500680272109	83	127
625.1732879818594	625.5796371882086	76	127
625.1732879818594	625.3822675736961	83	127
625.1732879818594	625.5796371882086	73	127
625.1732879818594	625.5796371882086	43	127
625.3822675736961	625.5796371882086	76	127
625.5796371882086	625.9627664399093	69	127
625.5796371882086	625.7770068027211	85	127
625.5796371882086	625.9627664399093	43	127
625.5796371882086	625.9627664399093	74	127
625.7770068027211	625.9627664399093	86	127
625.9859863945578	626.4271655328798	74	127
625.9859863945578	626.2065759637188	86	127
625.9859863945578	626.4271655328798	69	127
625.9859863945578	626.4271655328798	43	127
626.2065759637188	626.4271655328798	78	127
626.4271655328798	626.8451247165533	45	127
626.4271655328798	626.6477551020408	88	127
626.4271655328798	626.8451247165533	66	127
626.4271655328798	626.8451247165533	62	127
626.6477551020408	626.8451247165533	90	127
626.8683446712018	628.9233106575964	45	127
626.8683446712018	627.1005442176871	90	127
626.8683446712018	627.3211337868481	66	127
626.8683446712018	627.3211337868481	62	127
627.1005442176871	627.3211337868481	81	127
627.3211337868481	627.8435827664399	62	127
627.3211337868481	627.8435827664399	54	127
627.3211337868481	627.5765532879818	90	127
627.5765532879818	627.8435827664399	93	127
627.8668027210884	628.4705215419501	62	127
627.8668027210884	628.203492063492	93	127
627.8668027210884	628.9233106575964	54	127
628.203492063492	628.4705215419501	81	127
628.4705215419501	628.9233106575964	57	127
628.4705215419501	628.7027210884354	90	127
628.7027210884354	628.9233106575964	88	127
628.9465306122449	630.1539682539683	88	127
628.9465306122449	629.8637188208617	55	127
628.9465306122449	629.8637188208617	37	127
628.9465306122449	630.1539682539683	57	127
629.8869387755102	630.0610884353741	54	127
629.8869387755102	630.6299546485261	38	127
630.1539682539683	630.6648072562358	54	127
630.1539682539683	630.6648072562358	86	127
630.1539682539683	630.6648072562358	69	127
630.6648072562358	631.0363038548753	52	127
630.6648072562358	631.5239455782313	50	127
630.6648072562358	631.0363038548753	85	127
630.6648072562358	631.0363038548753	67	127
631.0363038548753	631.5239455782313	66	127
631.0363038548753	631.5239455782313	50	127
631.0363038548753	631.3962358276644	88	127
631.3962358276644	631.5239455782313	86	127
631.5471655328798	632.4875736961451	66	127
631.5471655328798	632.0579818594105	48	127
631.5471655328798	633.3699319727891	86	127
631.5471655328798	634.9721088435374	50	127
632.0579818594105	632.4991836734694	46	127
632.4991836734694	634.9721088435374	62	127
632.4991836734694	632.9635827664399	47	127
632.9635827664399	633.3815419501134	48	127
633.3815419501134	634.1826303854875	78	127
633.3815419501134	633.764671201814	50	127
633.764671201814	634.1826303854875	48	127
634.1942403628118	634.6354195011338	48	127
634.1942403628118	636.6555555555556	79	127
634.6354195011338	634.9837188208617	46	127
634.9837188208617	635.3436281179138	47	127
634.9837188208617	635.749977324263	74	127
634.9837188208617	636.6555555555556	52	127
635.3436281179138	635.7615873015873	49	127
635.7615873015873	636.2143764172336	71	127
635.7615873015873	636.2143764172336	50	127
636.2143764172336	636.6555555555556	47	127
636.6671655328798	638.2577324263038	78	127
636.6671655328798	637.468253968254	50	127
636.6671655328798	637.0619047619048	47	127
637.0619047619048	637.468253968254	44	127
637.468253968254	637.8513832199546	45	127
637.468253968254	639.0472108843537	54	127
637.468253968254	638.2577324263038	74	127
637.8513832199546	638.2693424036281	49	127
638.2693424036281	638.6989115646259	78	127
638.2693424036281	638.6989115646259	50	127
638.2693424036281	639.0472108843537	66	127
638.6989115646259	638.8846712018141	79	127
638.6989115646259	639.0472108843537	45	127
638.8846712018141	639.0472108843537	81	127
639.058820861678	639.4303401360544	45	127
639.058820861678	639.8250566893424	83	127
639.058820861678	639.8250566893424	50	127
639.4303401360544	639.8366893424036	42	127
639.8366893424036	641.5549659863946	59	127
639.8366893424036	640.2778684807256	43	127
639.8366893424036	640.7190476190476	83	127
639.8366893424036	640.7190476190476	74	127
640.2778684807256	640.7306575963719	49	127
640.7306575963719	641.5549659863946	71	127
640.7306575963719	640.823537414966	83	127
640.7306575963719	641.1834467120182	50	127
640.823537414966	640.8931972789115	85	127
640.8931972789115	640.9628571428572	83	127
640.9628571428572	641.0789569160997	82	127
641.0789569160997	641.1834467120182	83	127
641.1834467120182	641.3459863945578	85	127
641.1834467120182	641.5549659863946	43	127
641.3459863945578	641.5549659863946	86	127
641.5665759637188	642.8668934240363	86	127
641.5665759637188	642.0309750566894	43	127
642.0309750566894	642.4373242630386	61	127
642.0309750566894	642.4373242630386	73	127
642.0309750566894	642.4373242630386	41	127
642.4373242630386	642.8784807256236	74	127
642.4373242630386	642.8784807256236	62	127
642.4373242630386	642.8784807256236	42	127
642.8784807256236	643.3312925170068	61	127
642.8784807256236	643.3196825396825	81	127
642.8784807256236	643.3312925170068	73	127
642.8784807256236	643.3312925170068	40	127
643.3312925170068	643.737641723356	81	127
643.3312925170068	643.737641723356	74	127
643.3312925170068	643.737641723356	62	127
643.3312925170068	643.737641723356	38	127
643.737641723356	644.2136507936508	78	127
643.737641723356	644.2136507936508	73	127
643.737641723356	644.2136507936508	61	127
643.737641723356	644.2136507936508	50	127
644.2368707482993	644.6432199546485	78	127
644.2368707482993	644.6432199546485	73	127
644.2368707482993	644.6432199546485	61	127
644.2368707482993	644.6432199546485	38	127
644.6432199546485	645.0960090702948	70	127
644.6432199546485	645.0960090702948	58	127
644.6432199546485	645.0960090702948	50	127
644.6432199546485	645.502358276644	79	127
645.0960090702948	645.5255782312926	59	127
645.0960090702948	645.5255782312926	71	127
645.0960090702948	645.5255782312926	38	127
645.5255782312926	645.9551247165533	61	127
645.5255782312926	645.7345578231293	81	127
645.5255782312926	645.9551247165533	73	127
645.5255782312926	645.9551247165533	50	127
645.7345578231293	645.9551247165533	79	127
645.9551247165533	646.338276643991	38	127
645.9551247165533	646.1757369614512	78	127
645.9551247165533	646.338276643991	74	127
645.9551247165533	646.338276643991	62	127
646.1757369614512	646.338276643991	79	127
646.338276643991	646.6981859410431	59	127
646.338276643991	646.5008163265306	83	127
646.338276643991	646.6981859410431	71	127
646.338276643991	646.6981859410431	50	127
646.5008163265306	646.6981859410431	79	127
646.7214058956916	646.9071655328798	79	127
646.7214058956916	646.9884126984127	71	127
646.7214058956916	646.9884126984127	59	127
646.7214058956916	646.9884126984127	38	127
646.9071655328798	646.9884126984127	78	127
646.9884126984127	647.4063945578231	50	127
646.9884126984127	647.1974149659864	77	127
646.9884126984127	647.4063945578231	68	127
646.9884126984127	647.4063945578231	56	127
647.1974149659864	647.4063945578231	78	127
647.4063945578231	647.8243537414966	57	127
647.4063945578231	647.6269841269841	77	127
647.4063945578231	647.8243537414966	69	127
647.4063945578231	647.8243537414966	38	127
647.6269841269841	647.8243537414966	78	127
647.8243537414966	648.0333333333333	79	127
647.8243537414966	648.0333333333333	73	127
647.8243537414966	648.0333333333333	61	127
647.8243537414966	648.24231292517	50	127
648.0333333333333	648.24231292517	74	127
648.0333333333333	648.24231292517	62	127
648.0333333333333	648.24231292517	78	127
648.24231292517	648.4280725623582	77	127
648.24231292517	648.637052154195	74	127
648.24231292517	648.637052154195	62	127
648.24231292517	648.637052154195	38	127
648.4280725623582	648.637052154195	78	127
648.637052154195	648.857641723356	79	127
648.637052154195	649.0434013605442	50	127
648.637052154195	649.4381179138322	69	127
648.637052154195	649.4381179138322	57	127
648.857641723356	649.0434013605442	81	127
649.0666213151927	649.2523809523809	82	127
649.0666213151927	649.4613605442177	38	127
649.2523809523809	649.4613605442177	83	127
649.4613605442177	649.6703401360544	85	127
649.4613605442177	649.8793197278911	50	127
649.4613605442177	649.8793197278911	54	127
649.4613605442177	649.8793197278911	66	127
649.6703401360544	649.8560997732426	83	127
649.8793197278911	650.0882993197279	83	127
649.8793197278911	650.2856689342403	67	127
649.8793197278911	650.2856689342403	55	127
649.8793197278911	650.2856689342403	38	127
650.0882993197279	650.2856689342403	71	127
650.2856689342403	650.4597959183674	83	127
650.2856689342403	650.4597959183674	61	127
650.2856689342403	650.6804081632653	50	127
650.2856689342403	650.4597959183674	73	127
650.4597959183674	650.6571655328798	74	127
650.4597959183674	650.6571655328798	62	127
650.4597959183674	650.6571655328798	82	127
650.6804081632653	650.889387755102	82	127
650.6804081632653	651.0983673469387	74	127
650.6804081632653	651.0983673469387	62	127
650.6804081632653	651.0983673469387	38	127
650.889387755102	651.0983673469387	83	127
651.0983673469387	651.458276643991	50	127
651.0983673469387	651.2724943310658	85	127
651.0983673469387	651.458276643991	67	127
651.0983673469387	651.458276643991	55	127
651.2724943310658	651.458276643991	86	127
651.4814739229025	651.7136961451247	86	127
651.4814739229025	651.9575056689342	67	127
651.4814739229025	651.9575056689342	55	127
651.4814739229025	651.9575056689342	38	127
651.7136961451247	651.9575056689342	69	127
651.9575056689342	652.1780952380952	83	127
651.9575056689342	652.3986848072562	50	127
651.9575056689342	652.1780952380952	65	127
651.9575056689342	652.1780952380952	53	127
652.1780952380952	652.3986848072562	66	127
652.1780952380952	652.3754648526077	81	127
652.1780952380952	652.3986848072562	54	127
652.3986848072562	652.6308843537415	81	127
652.3986848072562	652.8398639455783	74	127
652.3986848072562	652.8398639455783	62	127
652.3986848072562	652.8398639455783	42	127
652.6308843537415	652.8398639455783	69	127
652.8398639455783	653.2810430839003	50	127
652.8398639455783	653.0256235827665	82	127
652.8398639455783	653.2810430839003	70	127
652.8398639455783	653.2810430839003	58	127
653.048843537415	653.2462131519275	82	127
653.2810430839003	653.7221995464853	74	127
653.2810430839003	653.5016326530613	82	127
653.2810430839003	653.7221995464853	62	127
653.2810430839003	653.7221995464853	44	127
653.5016326530613	653.7221995464853	71	127
653.7221995464853	653.931179138322	83	127
653.7221995464853	654.1750113378685	71	127
653.7221995464853	654.1750113378685	59	127
653.7221995464853	654.1750113378685	50	127
653.9544217687074	654.1750113378685	83	127
654.198231292517	654.6510204081633	62	127
654.198231292517	654.4304308390023	83	127
654.198231292517	654.6510204081633	74	127
654.198231292517	654.6510204081633	45	127
654.4304308390023	654.6510204081633	62	127
654.6510204081633	655.1154195011338	50	127
654.6510204081633	654.8716099773243	76	127
654.6510204081633	655.0921995464853	66	127
654.6510204081633	655.1154195011338	54	127
654.8716099773243	655.1154195011338	74	127
655.1154195011338	655.3592063492064	73	127
655.1154195011338	655.5798185941043	66	127
655.1154195011338	655.5798185941043	57	127
655.1154195011338	655.5798185941043	45	127
655.3592063492064	655.5798185941043	74	127
655.5798185941043	656.0326077097506	50	127
655.5798185941043	655.8352380952381	78	127
655.5798185941043	656.0326077097506	57	127
655.5798185941043	656.0326077097506	54	127
655.8352380952381	656.0326077097506	76	127
656.0326077097506	656.2531972789116	75	127
656.0326077097506	656.450566893424	67	127
656.0326077097506	656.450566893424	57	127
656.0326077097506	656.450566893424	45	127
656.2531972789116	656.450566893424	76	127
656.450566893424	656.6943764172336	79	127
656.450566893424	656.891746031746	57	127
656.450566893424	656.891746031746	55	127
656.450566893424	656.891746031746	52	127
656.6943764172336	656.891746031746	76	127
656.9149659863946	657.1239455782313	54	127
656.9149659863946	657.1239455782313	76	127
656.9149659863946	657.1239455782313	57	127
656.9149659863946	657.7624943310658	45	127
657.1239455782313	657.332925170068	74	127
657.1239455782313	657.332925170068	62	127
657.1239455782313	657.332925170068	78	127
657.332925170068	657.5535147392291	78	127
657.332925170068	657.5535147392291	66	127
657.332925170068	657.5535147392291	81	127
657.5535147392291	657.7741043083901	64	127
657.5535147392291	657.7741043083901	79	127
657.5535147392291	657.7741043083901	76	127
657.7741043083901	657.9830839002268	62	127
657.7741043083901	657.9830839002268	74	127
657.7741043083901	658.5055328798186	78	127
657.7741043083901	658.5055328798186	38	127
657.9830839002268	658.1920634920635	61	127
657.9830839002268	658.1920634920635	73	127
658.1920634920635	658.3546031746032	59	127
658.1920634920635	658.3546031746032	71	127
658.3546031746032	658.5171428571429	69	127
658.3546031746032	658.5171428571429	57	127
658.5171428571429	658.7261224489796	55	127
658.5171428571429	658.7261224489796	67	127
658.5171428571429	659.2485487528345	79	127
658.5171428571429	659.2485487528345	40	127
658.7261224489796	658.8654421768707	64	127
658.7261224489796	658.8654421768707	76	127
658.8654421768707	659.051179138322	73	127
658.8654421768707	659.051179138322	61	127
659.051179138322	659.2601814058957	67	127
659.051179138322	659.2601814058957	55	127
659.2601814058957	659.4343310657597	54	127
659.2601814058957	660.0148299319728	81	127
659.2601814058957	660.0148299319728	42	127
659.2601814058957	659.4343310657597	66	127
659.4343310657597	659.6432879818594	62	127
659.4343310657597	659.6432879818594	74	127
659.6432879818594	659.8638775510204	57	127
659.6432879818594	659.8638775510204	69	127
659.8638775510204	660.0264399092971	66	127
659.8638775510204	660.0264399092971	54	127
660.0264399092971	660.2354195011338	53	127
660.0264399092971	660.8739455782313	44	127
660.0264399092971	660.2354195011338	65	127
660.0264399092971	660.8739455782313	83	127
660.2354195011338	660.4443990929706	62	127
660.2354195011338	660.4443990929706	74	127
660.4443990929706	660.6649659863946	71	127
660.4443990929706	660.6649659863946	59	127
660.6649659863946	660.8855555555556	65	127
660.6649659863946	660.8855555555556	53	127
660.8855555555556	661.1061678004535	64	127
660.8855555555556	661.1061678004535	52	127
660.8855555555556	661.6866439909297	85	127
660.8855555555556	661.6866439909297	45	127
661.1061678004535	661.303537414966	61	127
661.1061678004535	661.303537414966	73	127
661.303537414966	661.524126984127	55	127
661.303537414966	661.524126984127	67	127
661.524126984127	661.698253968254	64	127
661.524126984127	661.698253968254	52	127
661.698253968254	662.5341950113378	54	127
661.698253968254	662.5341950113378	66	127
661.698253968254	661.9188662131519	86	127
661.698253968254	661.9188662131519	38	127
661.9188662131519	662.1162131519275	74	127
661.9188662131519	662.1278458049886	54	127
662.1278458049886	662.3368253968254	57	127
662.3368253968254	662.5458049886621	55	127
662.3368253968254	662.5341950113378	86	127
662.5458049886621	663.3120634920635	78	127
662.5458049886621	662.7431746031746	86	127
662.5458049886621	662.7431746031746	54	127
662.5458049886621	662.9289115646259	66	127
662.7431746031746	662.9289115646259	52	127
662.7431746031746	662.9057142857143	74	127
662.9289115646259	663.1378911564626	50	127
662.9289115646259	663.3120634920635	54	127
663.1378911564626	663.3352607709751	48	127
663.1378911564626	663.3120634920635	86	127
663.3352607709751	663.5210430839003	47	127
663.3352607709751	663.5210430839003	86	127
663.3352607709751	663.6371428571429	55	127
663.3352607709751	664.0086621315193	79	127
663.5210430839003	663.6371428571429	55	127
663.5210430839003	663.6139229024943	74	127
663.6371428571429	663.8461224489796	50	127
663.6371428571429	664.0086621315193	67	127
663.8461224489796	664.0318820861678	47	127
663.8461224489796	664.0086621315193	86	127
664.0318820861678	664.7748979591837	81	127
664.0318820861678	664.217641723356	86	127
664.0318820861678	664.217641723356	45	127
664.0318820861678	664.4034013605442	69	127
664.217641723356	664.4034013605442	54	127
664.217641723356	664.3917913832199	74	127
664.4034013605442	664.5891609977324	50	127
664.4034013605442	664.7748979591837	57	127
664.5891609977324	664.7865306122449	45	127
664.5891609977324	664.7748979591837	86	127
664.7865306122449	665.5179591836735	83	127
664.7865306122449	664.9955102040816	86	127
664.7865306122449	664.9955102040816	44	127
664.7865306122449	665.1580498866214	59	127
664.9955102040816	665.1580498866214	53	127
664.9955102040816	665.1464399092971	74	127
665.1580498866214	665.5179591836735	71	127
665.1580498866214	665.320589569161	50	127
665.320589569161	665.5295691609978	44	127
665.320589569161	665.5179591836735	86	127
665.5295691609978	666.8066439909297	85	127
665.5295691609978	665.9591383219955	61	127
665.5295691609978	665.7501587301588	88	127
665.5295691609978	665.7501587301588	43	127
665.7501587301588	665.9475283446712	76	127
665.7501587301588	665.9591383219955	45	127
665.9591383219955	666.377097505669	73	127
665.9591383219955	666.1797278911565	43	127
666.1797278911565	666.377097505669	40	127
666.1797278911565	666.377097505669	88	127
666.4002947845805	666.597664399093	88	127
666.4002947845805	666.597664399093	38	127
666.4002947845805	666.818253968254	73	127
666.597664399093	666.818253968254	45	127
666.597664399093	666.8066439909297	76	127
666.818253968254	667.0388662131519	42	127
666.818253968254	667.2710657596372	86	127
666.818253968254	667.2710657596372	74	127
667.0388662131519	667.2710657596372	38	127
667.0388662131519	667.2710657596372	90	127
667.2942857142857	668.060544217687	62	127
667.2942857142857	668.060544217687	86	127
667.2942857142857	668.060544217687	74	127
667.2942857142857	668.060544217687	50	127
667.2942857142857	668.060544217687	38	127
668.1650340136055	669.1402721088435	62	127
668.1650340136055	669.1402721088435	86	127
668.1650340136055	669.1402721088435	74	127
668.1650340136055	669.1402721088435	50	127
668.1650340136055	669.1402721088435	38	127
669.244761904762	670.1503401360544	62	127
669.244761904762	670.1503401360544	86	127
669.244761904762	670.1503401360544	74	127
669.244761904762	670.1503401360544	50	127
669.244761904762	670.1503401360544	38	127
671.2300680272109	672.3910657596372	55	127
671.2300680272109	672.3910657596372	84	127
671.2300680272109	672.3910657596372	72	127
671.2300680272109	672.3910657596372	52	127
672.5071655328799	673.7029931972789	55	127
672.5071655328799	673.7029931972789	84	127
672.5071655328799	673.7029931972789	72	127
672.5071655328799	673.7029931972789	52	127
675.0033106575963	676.4777777777778	52	127
675.0033106575963	676.4777777777778	84	127
675.0033106575963	676.4777777777778	72	127
675.0033106575963	676.4777777777778	55	127
677.6039455782313	680.6457596371882	53	127
677.6039455782313	680.6457596371882	84	127
677.6039455782313	680.6457596371882	72	127
677.6039455782313	680.6457596371882	57	127
680.6689795918368	681.6442176870748	60	127
681.6558276643991	683.989410430839	69	127
683.989410430839	684.3493424036282	67	127
684.3493424036282	685.2897505668934	55	127
684.3493424036282	685.6148072562358	72	127
685.2897505668934	687.6117460317461	57	127
685.6148072562358	686.4855782312925	74	127
686.4855782312925	688.1225850340136	72	127
687.6117460317461	688.1341950113379	55	127
688.1341950113379	689.28358276644	48	127
688.1341950113379	689.2719727891157	64	127
688.1341950113379	689.6086621315193	60	127
689.28358276644	691.3733786848072	65	127
689.28358276644	691.8842176870749	57	127
689.6086621315193	690.7812698412698	62	127
690.7812698412698	692.4879365079365	60	127
691.3849886621315	693.2309750566893	67	127
691.8842176870749	692.4995464852608	55	127
692.4995464852608	693.8463038548753	60	127
692.4995464852608	693.2309750566893	64	127
693.2425850340136	694.2526530612245	57	127
693.2425850340136	694.2526530612245	65	127
693.2425850340136	694.2526530612245	65	127
693.8463038548753	694.2642630385487	62	127
694.2642630385487	696.435328798186	60	127
694.2642630385487	695.8780498866213	45	127
694.2642630385487	699.5351700680272	77	127
694.2642630385487	695.8780498866213	53	127
695.8896598639456	699.5351700680272	45	127
695.8896598639456	697.5150566893424	55	127
696.4469160997733	697.5150566893424	52	127
697.5266666666666	699.5351700680272	53	127
697.5266666666666	699.5351700680272	53	127
699.5468027210884	705.6768707482993	77	127
699.5468027210884	703.459365079365	55	127
702.2867573696145	703.459365079365	60	127
703.459365079365	705.9787301587302	69	127
703.459365079365	705.6768707482993	53	127
705.6884807256235	709.2527437641724	76	127
705.6884807256235	707.6969841269841	60	127
705.9787301587302	706.4199092970522	67	127
706.4199092970522	708.26589569161	72	127
707.7085941043084	711.841768707483	48	127
708.26589569161	708.5909750566893	74	127
708.5909750566893	710.9942403628118	72	127
709.2643537414966	713.8851247165533	74	127
711.005850340136	711.8533786848072	65	127
711.8533786848072	716.0678004535148	36	127
711.8533786848072	712.9795464852608	67	127
712.9795464852608	714.314693877551	69	127
713.8967346938775	718.3897959183673	76	127
713.8967346938775	718.3897959183673	60	127
714.314693877551	714.6746031746031	65	127
714.6746031746031	716.4625396825397	67	127
716.0793877551021	718.3897959183673	48	127
716.4625396825397	716.741179138322	69	127
716.741179138322	722.5577777777778	67	127
718.4014058956916	724.020634920635	60	127
721.8379591836734	722.5577777777778	67	127
722.5693877551021	725.2977097505669	55	127
722.5693877551021	724.3108843537415	76	127
724.0322448979592	727.1437188208616	59	127
724.3108843537415	724.6359637188209	74	127
724.6359637188209	725.6692517006803	79	127
725.3093424036281	727.1437188208616	74	127
725.6692517006803	726.145260770975	81	127
726.145260770975	727.8751473922903	79	127
727.1553287981859	731.7180498866213	57	127
727.1553287981859	729.7095238095238	72	127
727.8867573696145	729.7211337868481	72	127
729.7211337868481	731.1375510204082	74	127
729.7211337868481	731.7180498866213	84	127
731.1375510204082	732.101179138322	76	127
731.7296598639456	736.4084807256236	59	127
731.7296598639456	736.4084807256236	65	127
731.7296598639456	733.9007256235827	86	127
732.101179138322	732.4030385487529	72	127
732.4030385487529	734.2141950113379	74	127
733.912335600907	736.4084807256236	79	127
734.2141950113379	734.6785941043084	76	127
734.6785941043084	736.4084807256236	74	127
736.4200907029478	739.0439455782313	65	127
736.4200907029478	737.5926984126984	81	127
736.4200907029478	737.5926984126984	72	127
737.0238095238095	737.6043083900227	48	127
737.6043083900227	741.5168707482993	57	127
737.6043083900227	743.5486167800453	60	127
739.0555555555555	745.0695238095238	64	127
741.5168707482993	742.2250793650794	55	127
742.2250793650794	744.1639455782313	60	127
743.5602267573696	746.3814512471655	72	127
744.1639455782313	744.5122222222222	62	127
744.5122222222222	745.8125623582766	60	127
745.0811337868481	749.3071655328798	62	127
745.8241723356009	746.3930612244898	53	127
746.3930612244898	750.990612244898	60	127
746.3930612244898	747.7165986394558	55	127
747.7165986394558	749.7947845804989	57	127
749.3187755102041	753.3009750566894	64	127
749.3187755102041	753.3009750566894	72	127
749.7947845804989	750.2011337868481	53	127
750.2011337868481	751.5827210884354	55	127
751.0022222222223	753.951156462585	60	127
751.5827210884354	751.9542403628118	57	127
751.9542403628118	753.3009750566894	55	127
753.3125850340136	757.4341496598639	72	127
753.3125850340136	753.9743764172335	52	127
753.9743764172335	754.4039455782313	59	127
753.9743764172335	754.4039455782313	50	127
754.4039455782313	755.5301133786849	43	127
754.4039455782313	755.9364625850341	60	127
754.4039455782313	755.9364625850341	52	127
755.5301133786849	757.7708390022676	52	127
755.9364625850341	756.3428117913833	53	127
755.9364625850341	756.3428117913833	62	127
756.3428117913833	757.4457596371882	60	127
756.3428117913833	757.4457596371882	52	127
757.4457596371882	760.9984126984127	71	127
757.4457596371882	760.9984126984127	79	127
757.7708390022676	758.4558276643991	50	127
758.4558276643991	759.732925170068	59	127
758.4558276643991	759.732925170068	55	127
759.732925170068	760.3714739229025	60	127
759.732925170068	760.3714739229025	57	127
760.3714739229025	762.0433106575964	55	127
760.3714739229025	760.9984126984127	59	127
761.1609523809524	765.2824943310658	79	127
761.1609523809524	765.2824943310658	69	127
762.066530612245	763.1578684807256	48	127
762.066530612245	763.8312471655329	60	127
763.1578684807256	764.4001360544218	50	127
763.8428571428572	764.3885260770975	62	127
764.4001360544218	765.2824943310658	60	127
764.4001360544218	765.5843537414966	52	127
765.29410430839	768.6609977324263	67	127
765.29410430839	768.6609977324263	71	127
765.29410430839	768.6609977324263	77	127
765.5843537414966	766.0139229024943	48	127
766.0139229024943	767.4419501133787	50	127
767.4419501133787	767.7438095238095	52	127
767.7438095238095	769.3808163265306	50	127
768.6726077097505	772.6083900226757	67	127
768.6726077097505	772.6083900226757	72	127
768.6726077097505	772.6083900226757	76	127
769.3808163265306	769.7407256235828	47	127
769.7407256235828	771.1687528344671	48	127
771.1687528344671	771.737641723356	50	127
771.737641723356	773.1192290249434	48	127
772.62	776.3816326530613	77	127
772.62	776.3816326530613	67	127
772.62	776.7067120181406	74	127
773.1192290249434	773.6532879818594	45	127
773.6532879818594	774.9884353741496	47	127
774.9884353741496	775.3019047619048	48	127
775.3019047619048	776.3816326530613	47	127
776.3932426303855	777.1478911564626	67	127
776.3932426303855	780.4219047619048	76	127
776.3932426303855	780.4219047619048	48	127
776.7067120181406	777.1478911564626	71	127
777.1478911564626	778.9706575963719	55	127
777.1478911564626	779.2609070294784	72	127
778.9706575963719	780.7585941043084	67	127
779.2609070294784	779.5627664399093	74	127
779.5627664399093	780.433514739229	72	127
780.433514739229	783.4985487528345	48	127
780.433514739229	789.0132879818594	74	127
780.433514739229	784.9730158730159	69	127
780.7585941043084	781.3971428571429	64	127
781.3971428571429	782.3259410430838	65	127
782.3259410430838	782.7206802721089	67	127
782.7206802721089	790.8012244897959	65	127
783.5101587301588	794.0171882086167	45	127
784.9730158730159	785.6928344671202	61	127
785.6928344671202	789.8840362811792	62	127
789.0248979591837	792.1363718820862	69	127
789.8840362811792	790.18589569161	64	127
790.18589569161	792.1479818594104	62	127
790.8012244897959	794.0171882086167	64	127
792.1479818594104	794.0171882086167	69	127
792.1479818594104	794.0171882086167	61	127
794.028798185941	799.7176870748299	50	127
794.028798185941	799.7176870748299	69	127
794.028798185941	799.7176870748299	62	127
794.028798185941	799.7176870748299	57	127
800.3446258503401	801.6681632653061	60	127
801.6797732426304	804.175918367347	69	127
804.175918367347	804.5938775510205	67	127
804.5938775510205	806.1960544217687	72	127
804.5938775510205	805.8245351473923	60	127
805.8245351473923	808.192970521542	69	127
806.1960544217687	807.3338321995465	74	127
807.3338321995465	809.6906575963719	72	127
808.192970521542	809.7022675736962	67	127
809.7022675736962	810.4104761904762	72	127
809.7022675736962	810.4220861678004	64	127
809.7022675736962	810.7123356009071	72	127
810.4220861678004	811.7572335600908	65	127
810.4220861678004	812.0474829931973	81	127
810.7123356009071	810.9909750566893	74	127
810.9909750566893	812.7556916099774	72	127
811.7688435374149	813.6380498866213	67	127
811.7688435374149	812.7556916099774	64	127
812.0590929705215	812.7673015873016	79	127
812.7673015873016	814.0327891156462	84	127
812.7673015873016	813.6380498866213	64	127
812.7673015873016	813.6380498866213	36	127
813.6496598639455	815.9368253968254	45	127
813.6496598639455	815.9368253968254	65	127
813.6496598639455	815.9368253968254	65	127
814.0327891156462	814.9383673469388	86	127
814.9383673469388	817.0862131519274	84	127
815.9832653061225	817.9453514739229	67	127
815.9832653061225	817.0862131519274	64	127
815.9832653061225	823.8316099773243	41	127
817.0978231292517	817.9569614512471	76	127
817.0978231292517	822.0320634920635	72	127
817.9569614512471	825.0158276643991	65	127
817.9569614512471	822.0436734693877	77	127
822.0436734693877	825.6543764172336	72	127
822.0436734693877	823.8316099773243	69	127
824.2960090702948	826.8385941043084	81	127
824.2960090702948	826.8385941043084	41	127
825.0274376417234	825.6543764172336	48	127
825.6659863945579	827.3610430839002	57	127
825.6659863945579	827.6977324263039	84	127
826.8502040816327	831.0994557823129	79	127
826.8502040816327	831.0994557823129	40	127
827.3610430839002	827.7209523809523	55	127
827.7209523809523	829.6714285714286	60	127
827.7209523809523	829.3695691609977	84	127
829.381179138322	831.7844444444445	91	127
829.6714285714286	830.3912471655328	62	127
830.3912471655328	831.7844444444445	60	127
831.1110657596372	834.8959183673469	38	127
831.1110657596372	834.8959183673469	77	127
831.7960544217688	832.7248526077097	91	127
831.7960544217688	832.7248526077097	53	127
832.7248526077097	834.8959183673469	89	127
832.7248526077097	834.3154195011338	55	127
834.3154195011338	835.2209977324263	57	127
834.9075283446712	839.226439909297	40	127
834.9075283446712	835.4764172335601	79	127
834.9075283446712	839.226439909297	84	127
835.2209977324263	835.4764172335601	53	127
835.4764172335601	837.4036734693877	72	127
835.4764172335601	837.6823129251701	55	127
837.4036734693877	839.5282993197279	79	127
837.6823129251701	838.5762811791383	57	127
838.5762811791383	839.226439909297	55	127
839.2380498866213	843.371201814059	84	127
839.2380498866213	843.371201814059	41	127
839.2380498866213	840.7705668934241	57	127
839.5399092970522	840.7705668934241	76	127
840.7705668934241	841.8851247165533	77	127
840.7705668934241	841.5019954648526	48	127
841.5019954648526	843.371201814059	69	127
841.8851247165533	842.4656235827664	79	127
842.4656235827664	843.7078911564626	77	127
843.417641723356	844.079410430839	62	127
843.417641723356	847.5159637188209	43	127
843.417641723356	844.6250793650794	83	127
843.7078911564626	844.079410430839	76	127
844.079410430839	845.0430385487529	77	127
844.079410430839	844.6366893424037	59	127
844.6366893424037	847.5159637188209	62	127
844.6366893424037	847.5159637188209	89	127
844.6366893424037	847.5159637188209	71	127
845.0430385487529	846.331746031746	79	127
846.331746031746	847.5159637188209	77	127
847.5275736961452	851.3820861678005	89	127
847.5275736961452	848.1429024943311	72	127
847.5275736961452	848.4795918367347	41	127
847.5275736961452	849.0368707482993	69	127
847.5275736961452	849.0368707482993	77	127
848.1429024943311	848.491201814059	71	127
848.491201814059	850.4532879818594	72	127
848.491201814059	849.0368707482993	36	127
849.0484807256236	851.9161451247165	45	127
849.0484807256236	851.3820861678005	65	127
850.4532879818594	850.7667573696145	74	127
850.7667573696145	851.9277551020408	72	127
851.3936961451247	855.3526984126984	88	127
851.3936961451247	851.9277551020408	60	127
851.9277551020408	852.4734240362811	43	127
851.9277551020408	852.4850340136054	62	127
851.9277551020408	852.4850340136054	71	127
852.4850340136054	853.1003628117913	48	127
852.4850340136054	853.7156916099773	72	127
852.4850340136054	853.7156916099773	64	127
853.1119727891156	855.3526984126984	48	127
853.1119727891156	855.3526984126984	36	127
853.7156916099773	854.3426303854875	74	127
853.7156916099773	854.3426303854875	65	127
854.3426303854875	856.2466666666667	72	127
854.3426303854875	856.2466666666667	64	127
855.3643083900226	859.3465306122449	36	127
855.3643083900226	859.3465306122449	86	127
855.3643083900226	859.3465306122449	48	127
856.2582766439909	856.5949659863945	72	127
856.2582766439909	856.5949659863945	64	127
856.5949659863945	857.9997732426303	65	127
856.5949659863945	857.9997732426303	74	127
857.9997732426303	858.2784126984127	67	127
857.9997732426303	858.2784126984127	76	127
858.2784126984127	859.3581405895692	65	127
858.2784126984127	859.7296598639456	74	127
859.3581405895692	863.1778231292517	47	127
859.3581405895692	863.1778231292517	88	127
859.3581405895692	859.7412698412699	67	127
859.7412698412699	860.3333786848073	74	127
859.7412698412699	860.3333786848073	59	127
860.3333786848073	861.471156462585	60	127
860.3333786848073	861.471156462585	76	127
861.471156462585	862.4580045351474	62	127
861.471156462585	862.4580045351474	77	127
862.4580045351474	863.5957823129252	60	127
862.4580045351474	863.5957823129252	76	127
863.189433106576	866.9510657596372	89	127
863.189433106576	866.9510657596372	45	127
863.5957823129252	864.118231292517	74	127
863.5957823129252	864.118231292517	71	127
864.118231292517	865.5578684807256	72	127
864.118231292517	865.5578684807256	76	127
865.5578684807256	865.882947845805	77	127
865.5578684807256	865.882947845805	74	127
865.882947845805	866.9626757369615	76	127
865.882947845805	866.9626757369615	72	127
866.9626757369615	870.9448979591837	47	127
866.9626757369615	867.2413151927437	74	127
866.9626757369615	867.2413151927437	65	127
866.9626757369615	870.9448979591837	91	127
867.2413151927437	867.9379138321996	76	127
867.2413151927437	867.9379138321996	60	127
867.9379138321996	869.3659410430839	74	127
867.9379138321996	869.3659410430839	62	127
869.3659410430839	869.725850340136	60	127
869.3659410430839	869.725850340136	76	127
869.725850340136	870.9448979591837	74	127
869.725850340136	870.9448979591837	62	127
870.9681179138322	874.5672108843537	60	127
870.9681179138322	874.5672108843537	69	127
870.9681179138322	874.5672108843537	48	127
870.9681179138322	874.5672108843537	60	127
870.9681179138322	874.5672108843537	36	127
870.9681179138322	874.5672108843537	48	127
870.9681179138322	878.3985034013606	89	127
874.578820861678	878.3985034013606	71	127
874.578820861678	878.3985034013606	65	127
874.578820861678	878.3985034013606	50	127
878.4101133786849	882.1485260770975	64	127
878.4101133786849	882.1485260770975	91	127
878.4101133786849	882.1485260770975	72	127
878.4101133786849	882.1485260770975	55	127
878.4101133786849	882.1485260770975	64	127
878.4101133786849	882.6245351473923	48	127
878.4101133786849	882.6245351473923	36	127
882.1833560090703	885.9798185941044	93	127
882.1833560090703	885.9798185941044	71	127
882.1833560090703	885.9798185941044	65	127
882.6245351473923	882.9612244897959	47	127
882.9612244897959	884.377641723356	48	127
884.377641723356	884.9465306122449	50	127
884.9465306122449	885.9798185941044	48	127
885.9914285714286	890.0433106575964	48	127
885.9914285714286	890.0433106575964	64	127
885.9914285714286	890.0433106575964	72	127
885.9914285714286	890.0433106575964	55	127
885.9914285714286	890.0433106575964	64	127
885.9914285714286	890.0433106575964	36	127
885.9914285714286	894.9891609977324	91	127
890.066530612245	894.9891609977324	65	127
890.066530612245	894.9891609977324	50	127
890.066530612245	894.9891609977324	59	127
895.0007709750566	898.9946031746032	91	127
895.7321995464853	896.6726077097505	52	127
895.7321995464853	896.6726077097505	48	127
896.6726077097505	897.6246258503402	50	127
896.6726077097505	897.6246258503402	53	127
897.6246258503402	899.296462585034	55	127
897.6246258503402	899.296462585034	52	127
899.0062131519275	902.2453968253968	89	127
899.296462585034	899.6795918367347	48	127
899.296462585034	899.6795918367347	52	127
899.6795918367347	901.4210884353741	53	127
899.6795918367347	900.7825396825397	59	127
899.6795918367347	901.4210884353741	50	127
900.7825396825397	901.6997278911565	60	127
901.4210884353741	901.6997278911565	52	127
901.4210884353741	901.6997278911565	55	127
901.6997278911565	902.2453968253968	62	127
901.6997278911565	903.8707936507936	57	127
901.6997278911565	903.8707936507936	53	127
902.2570068027211	906.6339682539683	84	127
903.8824036281179	904.9156916099773	55	127
903.8824036281179	904.9156916099773	52	127
903.8824036281179	904.9156916099773	60	127
904.9156916099773	905.9257596371882	62	127
904.9156916099773	905.9257596371882	57	127
904.9156916099773	905.9257596371882	53	127
905.9257596371882	908.3406349206349	60	127
905.9257596371882	906.6455782312925	64	127
905.9257596371882	908.3406349206349	55	127
906.6455782312925	911.6494784580499	81	127
906.6455782312925	908.6541043083901	60	127
908.3406349206349	908.6541043083901	52	127
908.3406349206349	908.6541043083901	55	127
908.6541043083901	909.6990022675737	72	127
908.6541043083901	909.6990022675737	57	127
908.6541043083901	909.6990022675737	53	127
909.6990022675737	910.1750113378685	55	127
909.6990022675737	910.1750113378685	76	127
909.6990022675737	910.1750113378685	60	127
910.1750113378685	911.6494784580499	57	127
910.1750113378685	912.2067573696145	77	127
910.1750113378685	911.6494784580499	72	127
911.6610884353742	912.2183673469387	48	127
911.6610884353742	915.5968707482994	79	127
912.2183673469387	913.3445351473923	76	127
912.2183673469387	913.3445351473923	52	127
912.2183673469387	913.3445351473923	36	127
913.3445351473923	914.7609523809524	74	127
913.3445351473923	914.7609523809524	53	127
913.3445351473923	914.7609523809524	38	127
914.7609523809524	916.0612698412698	72	127
914.7609523809524	916.0612698412698	55	127
914.7609523809524	916.0612698412698	40	127
915.6084807256236	919.3933333333333	77	127
916.0612698412698	917.2454875283447	52	127
916.0612698412698	917.2454875283447	69	127
916.0612698412698	917.2454875283447	36	127
917.2454875283447	918.3948752834467	38	127
917.2454875283447	918.3948752834467	53	127
917.2454875283447	918.3948752834467	71	127
918.3948752834467	918.847664399093	72	127
918.3948752834467	918.847664399093	55	127
918.3948752834467	918.847664399093	40	127
918.847664399093	919.3933333333333	57	127
918.847664399093	919.3933333333333	41	127
918.847664399093	920.879410430839	74	127
919.4049433106576	920.879410430839	59	127
919.4049433106576	920.879410430839	43	127
919.4049433106576	924.7803628117914	77	127
920.879410430839	921.2973696145125	57	127
920.879410430839	921.2973696145125	72	127
920.879410430839	921.2973696145125	60	127
921.2973696145125	922.8182766439909	62	127
921.2973696145125	922.8182766439909	59	127
921.2973696145125	922.8182766439909	71	127
922.8182766439909	923.4800453514739	64	127
922.8182766439909	923.4800453514739	60	127
922.8182766439909	923.4800453514739	69	127
923.4800453514739	924.7803628117914	67	127
923.4800453514739	924.7919727891157	65	127
923.4800453514739	924.7919727891157	62	127
924.7919727891157	929.5868934240362	76	127
924.7919727891157	929.5868934240362	72	127
927.2532879818594	929.5868934240362	64	127
927.2532879818594	929.5868934240362	55	127
927.2532879818594	929.5868934240362	48	127
929.5985034013605	934.3237641723356	55	127
929.5985034013605	934.3237641723356	64	127
929.5985034013605	934.3237641723356	72	127
929.5985034013605	934.3237641723356	48	127
934.3353741496599	938.8284353741496	77	127
934.3353741496599	938.8284353741496	71	127
934.3353741496599	938.8284353741496	55	127
934.3353741496599	938.8284353741496	62	127
934.3353741496599	938.8284353741496	43	127
938.979365079365	942.6365079365079	77	127
938.979365079365	942.6365079365079	62	127
942.6481179138322	946.5606802721088	60	127
942.6481179138322	946.5606802721088	76	127
942.6481179138322	946.5606802721088	84	127
942.6481179138322	946.5606802721088	48	127
946.5722902494331	951.4949206349206	64	127
946.5722902494331	951.4949206349206	72	127
946.5722902494331	951.4949206349206	84	127
946.5722902494331	951.4949206349206	48	127
951.5761904761905	955.1520634920635	43	127
951.5761904761905	953.5382766439909	83	127
951.5761904761905	955.1520634920635	86	127
951.5761904761905	955.1520634920635	62	127
951.5761904761905	955.1520634920635	65	127
953.5498866213152	955.1520634920635	77	127
953.5498866213152	955.1520634920635	71	127
955.1868934240363	961.6536507936507	43	127
955.1868934240363	961.6536507936507	86	127
955.1868934240363	961.6536507936507	71	127
955.1868934240363	961.6536507936507	77	127
955.1868934240363	961.6536507936507	59	127
955.1868934240363	961.6536507936507	65	127
955.1868934240363	961.6536507936507	36	127
961.665260770975	965.8796825396826	67	127
961.665260770975	965.8796825396826	84	127
961.665260770975	965.8796825396826	76	127
961.665260770975	965.8796825396826	48	127
961.665260770975	965.8796825396826	60	127
961.665260770975	965.8796825396826	36	127
961.665260770975	965.8796825396826	43	127
965.9145124716554	970.4307936507937	48	127
965.9145124716554	970.4307936507937	60	127
965.9145124716554	970.4307936507937	41	127
965.9145124716554	985.674693877551	84	127
968.0971882086168	968.817006802721	60	127
968.817006802721	970.9416326530612	69	127
970.4424036281179	974.5407256235827	55	127
970.4424036281179	976.0268027210884	40	127
970.9416326530612	971.4060317460318	67	127
971.4060317460318	973.2984580498867	72	127
973.2984580498867	973.7628571428571	74	127
973.7628571428571	976.0268027210884	72	127
974.552335600907	979.5446258503401	53	127
976.0384126984127	977.2806802721088	65	127
976.0384126984127	977.2690702947846	40	127
977.2806802721088	978.2907482993197	67	127
977.2806802721088	980.6359637188209	38	127
978.2907482993197	979.9277551020408	69	127
979.5562358276644	984.3279365079366	52	127
979.9277551020408	980.6475736961452	65	127
980.6475736961452	981.9362811791383	50	127
980.6475736961452	982.2613605442177	67	127
981.9478911564626	984.3279365079366	48	127
982.272970521542	982.6793197278912	69	127
982.6793197278912	984.3279365079366	67	127
984.3395464852608	1004.297097505669	36	127
984.3395464852608	987.2536507936508	69	127
984.3395464852608	988.9487074829932	65	127
984.3395464852608	1004.297097505669	48	127
985.6863038548753	987.265260770975	72	127
987.265260770975	990.6437641723356	72	127
987.265260770975	989.2621768707482	81	127
988.9603174603175	994.1848072562358	64	127
989.2621768707482	989.6104761904762	79	127
989.6104761904762	990.9572335600907	84	127
990.6553741496599	993.0354195011338	72	127
990.9572335600907	991.5957823129252	86	127
991.5957823129252	994.1848072562358	84	127
993.0470294784581	996.5184126984127	77	127
994.2080272108843	995.0787755102041	77	127
994.2080272108843	995.0671655328798	64	127
995.0787755102041	998.5037188208616	62	127
995.0787755102041	995.7521541950114	79	127
995.7521541950114	996.9015419501134	81	127
996.5648526077098	1001.9054421768708	76	127
996.9015419501134	998.5153287981859	77	127
998.5153287981859	1000.4774149659864	79	127
998.5153287981859	999.4789569160997	74	127
999.490566893424	1001.9054421768708	72	127
1000.4774149659864	1000.9302040816326	81	127
1000.9302040816326	1001.9054421768708	79	127
1001.9170521541951	1004.297097505669	69	127
1001.9170521541951	1006.1430839002268	89	127
1001.9170521541951	1011.5185034013606	48	127
1001.9170521541951	1011.5185034013606	60	127
1004.3087074829932	1004.9124263038549	36	127
1004.3087074829932	1004.9008163265306	74	127
1004.9124263038549	1007.652380952381	45	127
1004.9124263038549	1005.4813151927438	72	127
1005.492925170068	1006.1430839002268	77	127
1006.154693877551	1011.5185034013606	79	127
1006.154693877551	1011.5185034013606	88	127
1007.652380952381	1008.2444897959184	43	127
1008.2444897959184	1009.684126984127	48	127
1009.684126984127	1010.2646258503402	50	127
1010.2646258503402	1011.5185034013606	48	127
1011.5301133786849	1016.2669841269841	50	127
1011.5301133786849	1016.2669841269841	86	127
1011.5301133786849	1016.2669841269841	77	127
1011.5301133786849	1016.2669841269841	65	127
1016.2785941043084	1025.6362358276644	79	127
1016.2785941043084	1025.6362358276644	88	127
1016.2785941043084	1025.6362358276644	55	127
1016.2785941043084	1025.6362358276644	64	127
1016.2785941043084	1025.6362358276644	48	127
1025.6478458049887	1026.9017233560091	88	127
1025.6478458049887	1026.9017233560091	84	127
1025.6478458049887	1026.9017233560091	55	127
1025.6478458049887	1026.9017233560091	67	127
1025.6478458049887	1026.9017233560091	48	127
1027.0294331065759	1028.271700680272	86	127
1027.0294331065759	1028.271700680272	84	127
1027.0294331065759	1028.271700680272	55	127
1027.0294331065759	1028.271700680272	65	127
1027.0294331065759	1028.271700680272	48	127
1028.4342403628118	1029.804217687075	88	127
1028.4342403628118	1029.804217687075	84	127
1028.4342403628118	1029.804217687075	55	127
1028.4342403628118	1029.804217687075	67	127
1028.4342403628118	1029.804217687075	48	127
1029.989977324263	1036.085215419501	89	127
1029.989977324263	1036.085215419501	69	127
1029.989977324263	1036.085215419501	84	127
1029.989977324263	1036.085215419501	57	127
1029.989977324263	1036.085215419501	65	127
1029.989977324263	1036.085215419501	41	127
1036.0968253968254	1040.7640362811792	72	127
1036.0968253968254	1040.7640362811792	69	127
1040.7756462585035	1044.641768707483	93	127
1040.7756462585035	1044.641768707483	84	127
1040.7756462585035	1044.641768707483	72	127
1040.7756462585035	1044.641768707483	65	127
1044.6649886621315	1049.7037188208617	93	127
1044.6649886621315	1049.7037188208617	72	127
1044.6649886621315	1049.7037188208617	81	127
1044.6649886621315	1049.7037188208617	69	127
1044.6649886621315	1049.7037188208617	65	127
1049.715328798186	1057.2850113378686	89	127
1049.715328798186	1057.2850113378686	72	127
1049.715328798186	1057.2850113378686	81	127
1049.715328798186	1057.2850113378686	69	127
1049.715328798186	1057.2850113378686	65	127
