# onset,offset,note,velocity
2.2631746031746034	5.978367346938776	51	127
2.2631746031746034	5.978367346938776	55	127
2.2631746031746034	5.978367346938776	63	127
2.2631746031746034	3.1687528344671203	63	127
2.2631746031746034	5.978367346938776	46	127
2.2631746031746034	5.978367346938776	39	127
2.2631746031746034	5.978367346938776	58	127
6.001587301587302	6.698185941043084	63	127
6.001587301587302	6.698185941043084	58	127
6.001587301587302	6.698185941043084	51	127
6.001587301587302	6.698185941043084	55	127
6.001587301587302	6.698185941043084	46	127
6.001587301587302	6.698185941043084	39	127
7.069705215419501	9.263990929705216	41	127
7.069705215419501	9.263990929705216	50	127
7.069705215419501	9.263990929705216	56	127
7.069705215419501	9.263990929705216	58	127
9.310430839002267	10.018639455782314	56	127
9.310430839002267	10.018639455782314	41	127
9.310430839002267	10.018639455782314	50	127
9.310430839002267	10.018639455782314	58	127
10.366938775510205	14.035691609977324	67	127
10.366938775510205	14.035691609977324	51	127
10.366938775510205	14.035691609977324	58	127
10.366938775510205	14.035691609977324	63	127
10.366938775510205	14.035691609977324	46	127
10.366938775510205	14.035691609977324	55	127
10.366938775510205	14.035691609977324	39	127
14.070521541950113	14.883219954648526	63	127
14.070521541950113	14.883219954648526	67	127
14.070521541950113	14.883219954648526	55	127
14.070521541950113	14.883219954648526	46	127
14.070521541950113	14.883219954648526	39	127
14.070521541950113	14.883219954648526	58	127
14.070521541950113	14.883219954648526	51	127
15.254739229024944	17.367755102040817	62	127
15.254739229024944	17.367755102040817	65	127
15.254739229024944	17.367755102040817	58	127
15.254739229024944	17.367755102040817	44	127
15.254739229024944	17.367755102040817	53	127
15.254739229024944	17.367755102040817	58	127
17.390975056689342	18.215283446712018	53	127
17.390975056689342	18.215283446712018	62	127
17.390975056689342	18.215283446712018	65	127
17.390975056689342	18.215283446712018	58	127
17.390975056689342	18.215283446712018	44	127
17.390975056689342	18.215283446712018	58	127
18.575192743764173	21.77954648526077	70	127
18.575192743764173	21.77954648526077	58	127
18.575192743764173	21.77954648526077	63	127
18.575192743764173	21.77954648526077	51	127
18.575192743764173	21.77954648526077	55	127
18.575192743764173	21.77954648526077	43	127
21.8027664399093	22.66190476190476	63	127
21.8027664399093	22.66190476190476	67	127
21.8027664399093	22.66190476190476	60	127
21.8027664399093	22.66190476190476	51	127
21.8027664399093	22.66190476190476	48	127
23.04503401360544	28.246303854875283	51	127
23.04503401360544	24.705260770975055	72	127
23.04503401360544	26.28421768707483	60	127
23.04503401360544	26.28421768707483	63	127
23.04503401360544	27.66580498866213	44	127
24.71687074829932	24.972290249433108	71	127
24.972290249433108	25.25092970521542	72	127
25.25092970521542	25.425079365079366	71	127
25.425079365079366	25.59922902494331	72	127
25.59922902494331	25.773378684807255	71	127
25.773378684807255	25.970748299319727	72	127
25.970748299319727	26.13328798185941	71	127
26.13328798185941	26.307437641723357	72	127
26.307437641723357	26.458367346938775	71	127
26.307437641723357	28.675873015873016	60	127
26.458367346938775	26.644126984126984	72	127
26.644126984126984	26.78344671201814	71	127
26.78344671201814	26.96920634920635	72	127
26.96920634920635	27.120136054421767	71	127
27.120136054421767	27.259455782312926	72	127
27.259455782312926	27.445215419501135	74	127
27.445215419501135	27.700634920634922	72	127
27.712244897959184	29.11705215419501	44	127
27.712244897959184	28.246303854875283	72	127
28.257913832199545	28.68748299319728	48	127
28.257913832199545	28.68748299319728	79	127
28.68748299319728	29.976190476190474	58	127
28.68748299319728	29.11705215419501	74	127
28.68748299319728	29.523401360544216	53	127
29.11705215419501	29.523401360544216	70	127
29.11705215419501	30.347709750566892	43	127
29.535011337868482	29.976190476190474	75	127
29.535011337868482	31.183628117913834	51	127
29.976190476190474	31.183628117913834	60	127
29.976190476190474	30.347709750566892	72	127
30.347709750566892	30.5334693877551	70	127
30.347709750566892	31.555147392290248	41	127
30.5334693877551	30.730839002267572	68	127
30.730839002267572	30.98625850340136	68	127
30.997868480725625	31.183628117913834	67	127
31.195238095238096	32.391065759637186	58	127
31.195238095238096	31.473877551020408	68	127
31.195238095238096	31.949886621315194	50	127
31.555147392290248	32.78578231292517	43	127
31.555147392290248	32.391065759637186	70	127
31.949886621315194	32.391065759637186	51	127
32.40267573696145	32.78578231292517	71	127
32.40267573696145	32.78578231292517	59	127
32.40267573696145	32.78578231292517	49	127
32.78578231292517	33.145714285714284	72	127
32.78578231292517	33.145714285714284	48	127
32.78578231292517	33.5172335600907	60	127
32.78578231292517	33.5172335600907	44	127
33.145714285714284	33.5172335600907	56	127
33.145714285714284	33.5172335600907	77	127
33.528843537414964	34.37637188208617	56	127
33.528843537414964	33.93517006802721	74	127
33.528843537414964	34.75950113378685	58	127
33.528843537414964	34.37637188208617	65	127
33.93517006802721	34.37637188208617	70	127
34.37637188208617	35.177460317460316	63	127
34.37637188208617	34.75950113378685	55	127
34.37637188208617	34.75950113378685	75	127
34.75950113378685	35.177460317460316	72	127
34.75950113378685	35.177460317460316	56	127
34.75950113378685	35.177460317460316	56	127
35.18907029478458	35.37482993197279	70	127
35.18907029478458	35.58378684807256	62	127
35.18907029478458	35.58378684807256	46	127
35.18907029478458	36.37328798185941	53	127
35.37482993197279	35.58378684807256	68	127
35.58378684807256	35.781179138321995	68	127
35.58378684807256	35.96691609977324	63	127
35.58378684807256	35.96691609977324	48	127
35.781179138321995	35.96691609977324	67	127
35.96691609977324	36.15269841269841	63	127
35.96691609977324	36.15269841269841	48	127
35.96691609977324	36.25718820861678	68	127
36.164308390022676	36.37328798185941	50	127
36.164308390022676	36.37328798185941	65	127
36.37328798185941	36.73319727891157	58	127
36.37328798185941	36.73319727891157	55	127
36.37328798185941	36.73319727891157	51	127
36.37328798185941	36.73319727891157	67	127
36.73319727891157	37.11632653061225	56	127
36.73319727891157	37.11632653061225	53	127
37.11632653061225	37.27886621315193	58	127
37.11632653061225	37.4878231292517	55	127
37.29047619047619	37.4878231292517	59	127
37.4878231292517	37.88258503401361	60	127
37.4878231292517	38.70689342403628	56	127
37.88258503401361	38.27732426303855	65	127
38.28893424036281	38.70689342403628	62	127
38.71850340136054	39.12485260770975	70	127
38.71850340136054	39.983990929705215	55	127
38.71850340136054	39.12485260770975	58	127
39.12485260770975	39.56603174603175	63	127
39.12485260770975	39.56603174603175	75	127
39.56603174603175	39.983990929705215	72	127
39.56603174603175	39.983990929705215	60	127
39.983990929705215	41.15659863945578	53	127
39.983990929705215	40.16975056689343	70	127
39.983990929705215	40.16975056689343	58	127
39.983990929705215	40.37873015873016	74	127
40.18136054421769	40.37873015873016	68	127
40.18136054421769	40.37873015873016	56	127
40.37873015873016	40.57609977324263	68	127
40.37873015873016	40.57609977324263	56	127
40.37873015873016	40.7734693877551	82	127
40.587709750566894	40.7734693877551	55	127
40.587709750566894	40.7734693877551	67	127
40.7734693877551	41.15659863945578	74	127
40.7734693877551	41.028888888888886	56	127
40.7734693877551	41.028888888888886	68	127
41.168185941043085	41.574557823129254	60	127
41.168185941043085	41.574557823129254	75	127
41.168185941043085	41.99251700680272	55	127
41.168185941043085	41.574557823129254	72	127
41.59777777777778	41.99251700680272	70	127
41.59777777777778	41.99251700680272	82	127
41.59777777777778	41.99251700680272	58	127
42.004126984126984	42.387256235827664	71	127
42.004126984126984	42.387256235827664	83	127
42.004126984126984	42.387256235827664	43	127
42.004126984126984	42.770385487528344	51	127
42.387256235827664	42.770385487528344	84	127
42.387256235827664	42.770385487528344	72	127
42.387256235827664	42.573015873015876	44	127
42.573015873015876	42.770385487528344	43	127
42.770385487528344	42.96775510204082	44	127
42.770385487528344	43.16512471655329	89	127
42.770385487528344	43.16512471655329	77	127
42.770385487528344	43.16512471655329	48	127
42.97936507936508	43.16512471655329	48	127
43.16512471655329	43.536643990929704	86	127
43.16512471655329	43.3508843537415	46	127
43.16512471655329	43.536643990929704	74	127
43.16512471655329	43.536643990929704	53	127
43.36249433106576	43.536643990929704	44	127
43.536643990929704	43.72240362811792	58	127
43.536643990929704	43.72240362811792	43	127
43.536643990929704	43.90816326530612	82	127
43.536643990929704	43.90816326530612	70	127
43.72240362811792	43.90816326530612	55	127
43.72240362811792	43.90816326530612	39	127
43.90816326530612	44.11714285714286	56	127
43.90816326530612	44.11714285714286	41	127
43.90816326530612	44.2912925170068	87	127
43.90816326530612	44.2912925170068	75	127
44.11714285714286	44.2912925170068	58	127
44.11714285714286	44.2912925170068	43	127
44.302902494331065	44.48866213151928	44	127
44.302902494331065	44.67442176870748	84	127
44.302902494331065	44.67442176870748	72	127
44.302902494331065	44.48866213151928	51	127
44.48866213151928	44.67442176870748	53	127
44.48866213151928	44.67442176870748	45	127
44.686031746031745	45.09235827664399	46	127
44.686031746031745	44.89501133786848	82	127
44.686031746031745	44.89501133786848	70	127
44.686031746031745	44.89501133786848	55	127
44.89501133786848	45.09235827664399	68	127
44.89501133786848	45.09235827664399	53	127
44.89501133786848	45.09235827664399	80	127
45.103968253968254	45.289750566893424	80	127
45.103968253968254	45.289750566893424	68	127
45.103968253968254	45.289750566893424	53	127
45.103968253968254	45.4871201814059	48	127
45.289750566893424	45.4871201814059	67	127
45.289750566893424	45.4871201814059	51	127
45.289750566893424	45.4871201814059	79	127
45.4871201814059	45.788979591836735	77	127
45.4871201814059	45.788979591836735	58	127
45.4871201814059	45.788979591836735	65	127
45.4871201814059	45.788979591836735	56	127
45.4871201814059	45.788979591836735	53	127
45.4871201814059	45.92829931972789	50	127
45.92829931972789	46.218548752834465	75	127
45.92829931972789	46.102448979591834	58	127
45.92829931972789	46.102448979591834	55	127
45.92829931972789	46.218548752834465	51	127
46.16049886621315	46.29981859410431	51	127
46.16049886621315	46.29981859410431	58	127
46.16049886621315	46.29981859410431	63	127
46.16049886621315	46.29981859410431	55	127
46.35784580498866	46.62487528344671	55	127
46.35784580498866	46.62487528344671	63	127
46.35784580498866	46.62487528344671	55	127
46.35784580498866	46.508798185941046	58	127
46.35784580498866	46.508798185941046	63	127
46.35784580498866	46.508798185941046	51	127
46.35784580498866	46.508798185941046	55	127
46.555238095238096	46.706167800453514	63	127
46.555238095238096	46.706167800453514	51	127
46.555238095238096	46.706167800453514	55	127
46.555238095238096	46.706167800453514	58	127
46.752585034013606	46.891927437641726	58	127
46.752585034013606	46.891927437641726	63	127
46.752585034013606	46.891927437641726	51	127
46.752585034013606	46.891927437641726	55	127
46.752585034013606	46.984807256235825	58	127
46.752585034013606	47.86716553287982	75	127
46.91514739229025	47.05446712018141	58	127
46.91514739229025	47.05446712018141	63	127
46.91514739229025	47.05446712018141	51	127
46.91514739229025	47.05446712018141	55	127
47.100907029478456	47.24022675736961	63	127
47.100907029478456	47.24022675736961	51	127
47.100907029478456	47.24022675736961	55	127
47.100907029478456	47.24022675736961	58	127
47.100907029478456	47.472426303854874	63	127
47.29827664399093	47.425986394557825	58	127
47.29827664399093	47.425986394557825	63	127
47.29827664399093	47.425986394557825	51	127
47.29827664399093	47.425986394557825	55	127
47.48403628117914	47.634965986394555	51	127
47.48403628117914	47.634965986394555	55	127
47.48403628117914	47.634965986394555	63	127
47.48403628117914	47.634965986394555	58	127
47.68140589569161	47.82072562358277	63	127
47.68140589569161	47.82072562358277	51	127
47.68140589569161	47.82072562358277	58	127
47.68140589569161	47.82072562358277	55	127
47.86716553287982	48.00648526077097	55	127
47.86716553287982	48.00648526077097	58	127
47.86716553287982	48.00648526077097	63	127
47.86716553287982	48.00648526077097	51	127
47.86716553287982	48.05292517006803	77	127
48.05292517006803	48.192244897959185	58	127
48.05292517006803	48.192244897959185	63	127
48.05292517006803	48.192244897959185	51	127
48.05292517006803	48.192244897959185	55	127
48.05292517006803	48.238684807256234	79	127
48.238684807256234	48.37800453514739	58	127
48.238684807256234	48.37800453514739	62	127
48.238684807256234	48.37800453514739	53	127
48.238684807256234	48.37800453514739	56	127
48.238684807256234	48.99333333333333	82	127
48.42444444444445	48.5637641723356	58	127
48.42444444444445	48.5637641723356	62	127
48.42444444444445	48.5637641723356	53	127
48.42444444444445	48.5637641723356	56	127
48.621814058956915	48.74952380952381	56	127
48.621814058956915	48.74952380952381	62	127
48.621814058956915	48.74952380952381	58	127
48.621814058956915	48.74952380952381	53	127
48.80757369614513	48.94689342403628	62	127
48.80757369614513	48.94689342403628	53	127
48.80757369614513	48.94689342403628	56	127
48.80757369614513	48.94689342403628	58	127
48.99333333333333	49.14426303854875	56	127
48.99333333333333	49.19070294784581	80	127
48.99333333333333	50.13111111111111	46	127
48.99333333333333	49.14426303854875	58	127
48.99333333333333	49.14426303854875	62	127
48.99333333333333	49.14426303854875	53	127
49.19070294784581	49.33002267573696	56	127
49.19070294784581	49.388072562358275	79	127
49.19070294784581	49.33002267573696	53	127
49.19070294784581	49.33002267573696	58	127
49.19070294784581	49.33002267573696	62	127
49.388072562358275	49.57383219954649	79	127
49.388072562358275	49.52739229024943	58	127
49.388072562358275	49.52739229024943	62	127
49.388072562358275	49.52739229024943	53	127
49.388072562358275	49.52739229024943	56	127
49.57383219954649	49.71315192743764	53	127
49.57383219954649	49.71315192743764	58	127
49.57383219954649	49.71315192743764	62	127
49.57383219954649	49.71315192743764	56	127
49.57383219954649	49.74798185941043	77	127
49.75959183673469	49.887301587301586	53	127
49.75959183673469	49.887301587301586	58	127
49.75959183673469	49.887301587301586	56	127
49.75959183673469	49.93374149659864	75	127
49.75959183673469	49.887301587301586	62	127
49.945351473922905	50.08467120181406	58	127
49.945351473922905	50.08467120181406	53	127
49.945351473922905	50.08467120181406	56	127
49.945351473922905	50.13111111111111	74	127
49.945351473922905	50.08467120181406	62	127
50.14272108843537	50.270430839002266	58	127
50.14272108843537	50.270430839002266	63	127
50.14272108843537	50.270430839002266	53	127
50.14272108843537	50.270430839002266	56	127
50.14272108843537	50.31687074829932	72	127
50.14272108843537	50.31687074829932	48	127
50.31687074829932	50.45619047619048	65	127
50.31687074829932	50.45619047619048	58	127
50.31687074829932	50.45619047619048	53	127
50.31687074829932	50.45619047619048	56	127
50.31687074829932	50.52585034013605	70	127
50.31687074829932	50.52585034013605	50	127
50.52585034013605	50.874149659863946	68	127
50.52585034013605	50.653560090702946	58	127
50.52585034013605	50.653560090702946	62	127
50.52585034013605	50.653560090702946	50	127
50.52585034013605	50.653560090702946	58	127
50.52585034013605	51.07151927437642	53	127
50.7	50.827709750566896	50	127
50.7	50.827709750566896	58	127
50.7	50.827709750566896	62	127
50.7	50.827709750566896	58	127
50.874149659863946	51.025079365079364	58	127
50.874149659863946	51.025079365079364	51	127
50.874149659863946	51.025079365079364	63	127
50.874149659863946	51.025079365079364	58	127
50.874149659863946	51.257278911564626	67	127
51.08312925170068	51.257278911564626	51	127
51.08312925170068	51.210839002267576	51	127
51.08312925170068	51.210839002267576	55	127
51.08312925170068	51.210839002267576	58	127
51.08312925170068	51.210839002267576	63	127
51.26888888888889	51.408208616780044	55	127
51.26888888888889	51.408208616780044	58	127
51.26888888888889	51.408208616780044	63	127
51.26888888888889	51.408208616780044	51	127
51.26888888888889	52.37183673469388	75	127
51.26888888888889	51.4546485260771	46	127
51.4546485260771	51.59396825396826	55	127
51.4546485260771	51.640408163265306	44	127
51.4546485260771	51.59396825396826	51	127
51.4546485260771	51.59396825396826	58	127
51.4546485260771	51.59396825396826	63	127
51.640408163265306	51.81455782312925	43	127
51.640408163265306	51.7681179138322	58	127
51.640408163265306	51.7681179138322	63	127
51.640408163265306	51.7681179138322	51	127
51.640408163265306	51.7681179138322	55	127
51.81455782312925	51.953877551020405	63	127
51.81455782312925	51.953877551020405	58	127
51.81455782312925	51.953877551020405	51	127
51.81455782312925	51.953877551020405	55	127
51.81455782312925	51.953877551020405	41	127
52.00031746031746	52.13963718820862	51	127
52.00031746031746	52.13963718820862	55	127
52.00031746031746	52.13963718820862	39	127
52.00031746031746	52.13963718820862	63	127
52.00031746031746	52.13963718820862	58	127
52.18607709750567	52.32539682539682	63	127
52.18607709750567	52.32539682539682	51	127
52.18607709750567	52.32539682539682	55	127
52.18607709750567	52.32539682539682	49	127
52.18607709750567	52.32539682539682	58	127
52.38344671201814	52.56920634920635	77	127
52.38344671201814	52.5227664399093	63	127
52.38344671201814	52.5227664399093	56	127
52.38344671201814	52.5227664399093	48	127
52.58081632653061	52.7433560090703	61	127
52.58081632653061	52.7433560090703	58	127
52.58081632653061	52.7433560090703	46	127
52.58081632653061	52.789795918367346	79	127
52.789795918367346	52.97555555555556	82	127
52.789795918367346	52.97555555555556	62	127
52.789795918367346	52.97555555555556	48	127
52.789795918367346	52.97555555555556	44	127
52.97555555555556	53.114875283446715	80	127
52.97555555555556	53.13809523809524	65	127
52.97555555555556	53.13809523809524	48	127
52.97555555555556	53.13809523809524	44	127
53.13809523809524	53.277414965986395	79	127
53.13809523809524	53.31224489795918	65	127
53.13809523809524	53.31224489795918	48	127
53.13809523809524	53.31224489795918	44	127
53.31224489795918	53.439954648526076	77	127
53.31224489795918	53.48639455782313	65	127
53.31224489795918	53.48639455782313	48	127
53.31224489795918	53.48639455782313	44	127
53.498004535147395	53.62571428571429	83	127
53.498004535147395	53.62571428571429	65	127
53.498004535147395	53.62571428571429	50	127
53.498004535147395	53.62571428571429	43	127
53.6837641723356	53.81147392290249	84	127
53.6837641723356	53.81147392290249	65	127
53.6837641723356	53.81147392290249	48	127
53.6837641723356	53.81147392290249	44	127
53.86952380952381	54.05528344671202	84	127
53.86952380952381	54.05528344671202	65	127
53.86952380952381	54.05528344671202	75	127
53.86952380952381	54.05528344671202	48	127
53.86952380952381	54.05528344671202	45	127
54.05528344671202	54.194603174603174	82	127
54.05528344671202	54.24104308390023	67	127
54.05528344671202	54.24104308390023	75	127
54.05528344671202	54.24104308390023	58	127
54.05528344671202	54.24104308390023	46	127
54.24104308390023	54.380362811791386	80	127
54.24104308390023	54.380362811791386	67	127
54.24104308390023	54.380362811791386	75	127
54.24104308390023	54.380362811791386	58	127
54.24104308390023	54.380362811791386	46	127
54.426802721088436	54.55451247165533	79	127
54.426802721088436	54.55451247165533	67	127
54.426802721088436	54.55451247165533	75	127
54.426802721088436	54.55451247165533	58	127
54.426802721088436	54.55451247165533	46	127
54.589342403628116	54.71705215419501	77	127
54.589342403628116	54.71705215419501	65	127
54.589342403628116	54.71705215419501	74	127
54.589342403628116	54.71705215419501	56	127
54.589342403628116	54.71705215419501	46	127
54.77510204081633	54.90281179138322	82	127
54.77510204081633	54.90281179138322	65	127
54.77510204081633	54.90281179138322	74	127
54.77510204081633	54.90281179138322	56	127
54.77510204081633	54.90281179138322	46	127
54.960861678004534	55.135011337868484	80	127
54.960861678004534	55.135011337868484	74	127
54.960861678004534	55.135011337868484	53	127
54.960861678004534	55.135011337868484	47	127
55.135011337868484	55.2859410430839	79	127
55.135011337868484	55.33238095238095	75	127
55.135011337868484	55.33238095238095	51	127
55.135011337868484	55.33238095238095	48	127
55.33238095238095	55.49492063492063	77	127
55.33238095238095	55.49492063492063	68	127
55.33238095238095	55.49492063492063	59	127
55.33238095238095	55.49492063492063	48	127
55.54136054421769	55.680680272108845	75	127
55.54136054421769	55.680680272108845	67	127
55.54136054421769	55.680680272108845	60	127
55.54136054421769	55.680680272108845	48	127
55.727120181405894	55.86643990929705	38	127
55.727120181405894	55.86643990929705	83	127
55.727120181405894	55.86643990929705	67	127
55.727120181405894	55.86643990929705	55	127
55.91287981859411	56.040589569161	56	127
55.91287981859411	56.040589569161	84	127
55.91287981859411	56.040589569161	38	127
55.91287981859411	56.040589569161	68	127
56.09863945578231	56.26117913832199	56	127
56.09863945578231	56.26117913832199	84	127
56.09863945578231	56.26117913832199	65	127
56.09863945578231	56.26117913832199	38	127
56.26117913832199	56.400498866213155	82	127
56.26117913832199	56.446938775510205	67	127
56.26117913832199	56.446938775510205	55	127
56.26117913832199	56.446938775510205	39	127
56.45854875283447	56.59786848072562	80	127
56.45854875283447	56.59786848072562	60	127
56.45854875283447	56.59786848072562	53	127
56.45854875283447	56.59786848072562	44	127
56.65591836734694	56.81845804988662	79	127
56.65591836734694	56.81845804988662	72	127
56.65591836734694	56.81845804988662	51	127
56.65591836734694	56.81845804988662	45	127
56.86489795918367	57.01582766439909	77	127
56.86489795918367	57.01582766439909	65	127
56.86489795918367	57.01582766439909	50	127
56.86489795918367	57.01582766439909	46	127
57.08548752834467	57.23641723356009	58	127
57.08548752834467	57.23641723356009	82	127
57.08548752834467	57.23641723356009	56	127
57.08548752834467	57.23641723356009	62	127
57.08548752834467	57.23641723356009	53	127
57.29446712018141	57.66598639455783	63	127
57.29446712018141	57.66598639455783	55	127
57.29446712018141	57.66598639455783	51	127
57.29446712018141	57.66598639455783	39	127
58.04911564625851	58.200045351473925	59	127
58.246485260770974	58.409024943310655	60	127
58.467074829931974	58.66444444444444	60	127
58.66444444444444	58.82698412698413	58	127
58.87342403628118	59.00113378684807	56	127
59.04757369614512	59.19850340136055	55	127
59.2449433106576	59.38426303854875	53	127
59.453922902494334	59.59324263038549	58	127
59.6512925170068	59.953151927437645	51	127
60.08086167800454	60.4059410430839	56	127
60.51043083900227	60.85873015873016	50	127
60.97482993197279	61.24185941043084	55	127
60.97482993197279	61.33473922902494	48	127
60.97482993197279	61.752698412698415	63	127
61.34634920634921	61.648208616780046	48	127
61.34634920634921	61.752698412698415	55	127
61.752698412698415	62.518956916099775	56	127
61.752698412698415	61.93845804988662	62	127
61.752698412698415	62.031337868480726	53	127
61.93845804988662	62.135827664399095	60	127
62.135827664399095	62.42607709750567	65	127
62.135827664399095	62.42607709750567	62	127
62.135827664399095	62.42607709750567	47	127
62.518956916099775	62.832426303854874	55	127
62.518956916099775	62.832426303854874	63	127
62.518956916099775	62.832426303854874	60	127
62.518956916099775	62.832426303854874	48	127
62.93691609977324	63.09945578231292	74	127
62.93691609977324	63.09945578231292	62	127
63.14589569160998	63.2968253968254	75	127
63.14589569160998	63.2968253968254	63	127
63.34326530612245	63.57546485260771	75	127
63.34326530612245	63.57546485260771	63	127
63.57546485260771	63.7031746031746	74	127
63.57546485260771	63.7031746031746	62	127
63.74961451247165	63.877324263038545	72	127
63.74961451247165	63.877324263038545	60	127
63.935374149659864	64.07469387755103	70	127
63.935374149659864	64.07469387755103	58	127
64.12113378684808	64.2720634920635	69	127
64.12113378684808	64.2720634920635	57	127
64.31850340136054	64.45782312925171	74	127
64.31850340136054	64.45782312925171	62	127
64.50426303854876	64.69	75	127
64.50426303854876	64.8061224489796	67	127
64.50426303854876	64.8061224489796	55	127
64.70163265306122	64.85256235827664	74	127
64.89900226757369	65.04993197278911	72	127
64.89900226757369	65.18925170068027	72	127
64.89900226757369	65.18925170068027	60	127
65.09637188208617	65.23569160997732	70	127
65.29374149659864	65.43306122448979	69	127
65.29374149659864	65.59560090702948	66	127
65.29374149659864	65.59560090702948	54	127
65.49111111111111	65.64204081632653	74	127
65.70009070294785	66.08321995464853	70	127
65.70009070294785	66.08321995464853	67	127
65.70009070294785	66.08321995464853	58	127
65.70009070294785	66.5940589569161	50	127
66.1992970521542	66.48956916099773	70	127
66.1992970521542	66.48956916099773	50	127
66.1992970521542	66.48956916099773	62	127
66.6056462585034	66.79142857142857	69	127
66.6056462585034	66.79142857142857	54	127
66.6056462585034	66.79142857142857	48	127
66.6056462585034	66.9075283446712	62	127
66.79142857142857	67.0004081632653	67	127
66.79142857142857	67.0004081632653	55	127
66.79142857142857	67.0004081632653	46	127
67.0004081632653	67.19777777777777	66	127
67.0004081632653	67.19777777777777	60	127
67.0004081632653	67.19777777777777	62	127
67.0004081632653	67.19777777777777	57	127
67.0004081632653	67.19777777777777	45	127
67.19777777777777	67.38353741496599	57	127
67.19777777777777	67.60410430839002	78	127
67.19777777777777	67.60410430839002	72	127
67.19777777777777	67.60410430839002	62	127
67.39514739229026	67.60410430839002	55	127
67.60410430839002	67.80149659863946	43	127
67.60410430839002	68.37036281179138	79	127
67.60410430839002	68.37036281179138	70	127
67.60410430839002	68.37036281179138	50	127
67.80149659863946	68.37036281179138	55	127
68.37036281179138	68.59097505668935	43	127
68.37036281179138	68.59097505668935	81	127
68.37036281179138	68.59097505668935	66	127
68.37036281179138	68.59097505668935	50	127
68.37036281179138	68.59097505668935	60	127
68.59097505668935	69.41528344671202	55	127
68.59097505668935	69.41528344671202	67	127
68.59097505668935	69.85646258503401	82	127
68.59097505668935	71.0871201814059	43	127
68.59097505668935	69.00891156462585	58	127
68.59097505668935	69.00891156462585	50	127
69.00891156462585	69.41528344671202	50	127
69.41528344671202	69.62424036281179	48	127
69.41528344671202	69.62424036281179	57	127
69.62424036281179	69.85646258503401	50	127
69.62424036281179	69.85646258503401	58	127
69.85646258503401	70.26278911564626	51	127
69.85646258503401	70.66916099773243	81	127
69.85646258503401	70.26278911564626	60	127
70.27442176870748	70.66916099773243	48	127
70.27442176870748	70.66916099773243	57	127
70.66916099773243	70.88975056689343	58	127
70.66916099773243	70.88975056689343	50	127
70.66916099773243	70.88975056689343	79	127
70.88975056689343	71.0871201814059	60	127
70.88975056689343	71.0871201814059	51	127
70.88975056689343	71.0871201814059	78	127
71.09873015873016	72.86344671201815	54	127
71.09873015873016	71.51668934240362	57	127
71.09873015873016	73.3162358276644	43	127
71.09873015873016	71.51668934240362	81	127
71.09873015873016	71.94625850340137	48	127
71.51668934240362	71.94625850340137	72	127
71.51668934240362	71.94625850340137	75	127
71.95786848072562	72.17843537414966	50	127
71.95786848072562	72.17843537414966	74	127
71.95786848072562	72.17843537414966	70	127
72.19006802721088	72.38743764172335	69	127
72.19006802721088	72.38743764172335	72	127
72.19006802721088	72.86344671201815	51	127
72.38743764172335	72.86344671201815	72	127
72.38743764172335	72.86344671201815	69	127
72.86344671201815	73.3162358276644	70	127
72.86344671201815	73.3162358276644	55	127
72.86344671201815	74.27986394557823	67	127
72.86344671201815	73.3162358276644	50	127
73.3162358276644	73.57165532879819	48	127
73.3162358276644	73.81544217687075	72	127
73.3162358276644	73.81544217687075	45	127
73.57165532879819	75.90526077097506	55	127
73.81544217687075	74.27986394557823	74	127
73.81544217687075	75.09253968253968	47	127
74.2914739229025	74.709410430839	79	127
74.2914739229025	75.47566893424036	62	127
74.709410430839	75.47566893424036	77	127
75.10417233560091	75.90526077097506	48	127
75.47566893424036	75.90526077097506	75	127
75.47566893424036	75.69628117913832	60	127
75.69628117913832	75.90526077097506	58	127
75.91687074829932	77.03142857142858	49	127
75.91687074829932	76.59024943310658	76	127
75.91687074829932	76.81083900226757	57	127
75.91687074829932	76.81083900226757	67	127
76.59024943310658	76.81083900226757	69	127
76.84566893424036	77.24038548752834	81	127
76.84566893424036	77.03142857142858	64	127
76.84566893424036	77.03142857142858	52	127
77.04303854875283	77.24038548752834	54	127
77.04303854875283	77.24038548752834	50	127
77.04303854875283	77.24038548752834	62	127
77.24038548752834	77.72802721088435	55	127
77.24038548752834	77.50743764172336	61	127
77.24038548752834	77.72802721088435	81	127
77.24038548752834	77.72802721088435	52	127
77.50743764172336	77.72802721088435	73	127
77.72802721088435	77.92539682539683	54	127
77.72802721088435	77.92539682539683	81	127
77.72802721088435	77.92539682539683	72	127
77.72802721088435	77.92539682539683	57	127
77.93700680272109	78.34335600907029	66	127
77.93700680272109	78.1343537414966	74	127
77.93700680272109	78.34335600907029	50	127
77.93700680272109	78.34335600907029	57	127
77.93700680272109	78.34335600907029	62	127
78.14598639455782	78.34335600907029	75	127
78.34335600907029	78.78453514739229	67	127
78.34335600907029	78.78453514739229	62	127
78.34335600907029	78.54072562358277	74	127
78.34335600907029	78.78453514739229	50	127
78.34335600907029	78.78453514739229	58	127
78.54072562358277	78.78453514739229	86	127
78.78453514739229	79.03995464852608	60	127
78.78453514739229	79.03995464852608	78	127
78.78453514739229	79.03995464852608	69	127
78.78453514739229	79.03995464852608	50	127
78.78453514739229	79.03995464852608	62	127
79.05156462585035	80.52603174603175	62	127
79.05156462585035	79.35342403628118	79	127
79.05156462585035	80.52603174603175	70	127
79.05156462585035	81.61736961451247	55	127
79.35342403628118	79.57401360544218	79	127
79.58562358276644	79.84104308390023	78	127
79.58562358276644	80.52603174603175	67	127
79.84104308390023	80.09646258503402	79	127
80.09646258503402	80.31705215419501	81	127
80.32866213151928	80.52603174603175	82	127
80.53761904761905	80.74662131519274	75	127
80.53761904761905	81.18780045351474	66	127
80.53761904761905	81.39678004535148	69	127
80.53761904761905	81.39678004535148	60	127
80.74662131519274	80.99043083900227	84	127
80.99043083900227	81.18780045351474	83	127
81.19941043083901	81.39678004535148	84	127
81.19941043083901	81.39678004535148	63	127
81.39678004535148	81.61736961451247	58	127
81.39678004535148	81.61736961451247	86	127
81.39678004535148	81.61736961451247	67	127
81.39678004535148	81.61736961451247	62	127
81.61736961451247	81.80312925170068	87	127
81.61736961451247	81.80312925170068	66	127
81.61736961451247	81.80312925170068	60	127
81.61736961451247	81.80312925170068	57	127
81.81471655328798	82.01210884353742	87	127
81.81471655328798	82.01210884353742	60	127
81.81471655328798	82.24430839002268	69	127
81.81471655328798	87.66614512471655	55	127
81.81471655328798	82.69709750566894	66	127
82.01210884353742	82.24430839002268	63	127
82.01210884353742	82.24430839002268	78	127
82.24430839002268	82.4881179138322	79	127
82.24430839002268	82.69709750566894	63	127
82.24430839002268	82.4881179138322	62	127
82.49972789115647	82.69709750566894	60	127
82.49972789115647	82.69709750566894	81	127
82.70868480725623	82.90607709750567	67	127
82.70868480725623	82.90607709750567	58	127
82.70868480725623	82.90607709750567	82	127
82.70868480725623	82.90607709750567	62	127
82.90607709750567	83.11505668934241	60	127
82.90607709750567	83.11505668934241	69	127
82.90607709750567	83.11505668934241	57	127
82.90607709750567	83.11505668934241	84	127
83.11505668934241	83.52140589569161	60	127
83.11505668934241	83.30081632653061	85	127
83.11505668934241	83.52140589569161	66	127
83.11505668934241	83.52140589569161	57	127
83.31242630385488	83.52140589569161	86	127
83.52140589569161	83.96256235827664	58	127
83.52140589569161	83.96256235827664	55	127
83.52140589569161	83.74199546485261	87	127
83.52140589569161	85.19324263038548	67	127
83.74199546485261	83.96256235827664	86	127
83.96256235827664	84.1831746031746	58	127
83.96256235827664	84.1831746031746	55	127
83.96256235827664	84.1831746031746	88	127
84.1831746031746	84.4037641723356	90	127
84.1831746031746	84.4037641723356	60	127
84.1831746031746	84.4037641723356	57	127
84.41537414965987	85.19324263038548	58	127
84.41537414965987	84.6243537414966	62	127
84.41537414965987	84.6243537414966	91	127
84.63596371882086	84.83333333333333	86	127
84.63596371882086	84.83333333333333	74	127
84.83333333333333	85.19324263038548	79	127
84.83333333333333	85.00748299319729	86	127
85.00748299319729	85.19324263038548	91	127
85.20485260770975	85.59959183673469	59	127
85.20485260770975	86.01755102040816	62	127
85.20485260770975	86.01755102040816	77	127
85.20485260770975	85.40222222222222	91	127
85.40222222222222	85.59959183673469	79	127
85.59959183673469	85.80857142857143	79	127
85.59959183673469	86.42390022675737	60	127
85.8201814058957	86.01755102040816	91	127
86.02916099773243	86.42390022675737	75	127
86.02916099773243	86.42390022675737	63	127
86.02916099773243	86.21492063492063	91	127
86.21492063492063	86.42390022675737	81	127
86.42390022675737	87.22498866213152	61	127
86.42390022675737	86.62124716553288	81	127
86.42390022675737	86.83024943310657	55	127
86.42390022675737	87.02759637188208	76	127
86.6328798185941	86.83024943310657	93	127
86.83024943310657	87.02759637188208	93	127
86.83024943310657	87.02759637188208	67	127
87.02759637188208	87.22498866213152	81	127
87.02759637188208	87.22498866213152	64	127
87.02759637188208	87.22498866213152	55	127
87.23659863945578	87.66614512471655	62	127
87.23659863945578	87.43396825396826	81	127
87.23659863945578	87.66614512471655	69	127
87.23659863945578	87.66614512471655	62	127
87.43396825396826	87.66614512471655	81	127
87.66614512471655	87.87514739229024	79	127
87.66614512471655	87.87514739229024	61	127
87.66614512471655	87.87514739229024	64	127
87.66614512471655	88.07251700680273	69	127
87.88675736961451	88.07251700680273	55	127
87.88675736961451	88.07251700680273	52	127
87.88675736961451	88.07251700680273	81	127
88.08412698412698	88.20022675736962	60	127
88.08412698412698	88.20022675736962	63	127
88.08412698412698	88.20022675736962	69	127
88.08412698412698	88.20022675736962	81	127
88.08412698412698	88.20022675736962	54	127
88.25827664399092	88.39759637188209	62	127
88.25827664399092	88.39759637188209	82	127
88.25827664399092	88.39759637188209	70	127
88.25827664399092	88.39759637188209	58	127
88.25827664399092	88.39759637188209	55	127
88.4556462585034	88.60657596371883	62	127
88.4556462585034	88.60657596371883	82	127
88.4556462585034	88.60657596371883	70	127
88.4556462585034	88.60657596371883	58	127
88.4556462585034	88.60657596371883	62	127
88.4556462585034	88.60657596371883	55	127
88.66460317460317	88.81555555555556	48	127
88.66460317460317	88.81555555555556	84	127
88.66460317460317	88.81555555555556	81	127
88.66460317460317	88.81555555555556	75	127
88.87360544217687	89.03614512471655	74	127
88.87360544217687	89.03614512471655	82	127
88.87360544217687	89.03614512471655	79	127
88.87360544217687	89.03614512471655	50	127
89.09419501133787	89.27995464852607	74	127
89.09419501133787	89.27995464852607	81	127
89.09419501133787	89.27995464852607	78	127
89.09419501133787	89.27995464852607	60	127
89.33800453514739	89.7443537414966	86	127
89.33800453514739	89.7443537414966	74	127
89.33800453514739	91.02145124716553	67	127
89.33800453514739	89.7443537414966	58	127
89.7443537414966	90.23197278911564	63	127
90.23197278911564	90.44095238095238	87	127
90.23197278911564	90.64993197278912	60	127
90.23197278911564	90.44095238095238	75	127
90.44095238095238	90.64993197278912	74	127
90.44095238095238	90.64993197278912	86	127
90.64993197278912	91.02145124716553	57	127
90.64993197278912	91.02145124716553	86	127
90.64993197278912	91.02145124716553	74	127
91.02145124716553	91.42780045351473	62	127
91.02145124716553	91.42780045351473	66	127
91.42780045351473	91.91541950113378	58	127
91.42780045351473	91.68321995464852	87	127
91.42780045351473	91.68321995464852	75	127
91.42780045351473	91.91541950113378	67	127
91.68321995464852	91.91541950113378	86	127
91.68321995464852	91.91541950113378	74	127
91.91541950113378	92.31015873015873	58	127
91.91541950113378	92.31015873015873	62	127
91.91541950113378	92.31015873015873	50	127
91.91541950113378	93.50598639455782	43	127
91.91541950113378	92.11278911564627	86	127
92.32176870748299	92.71650793650794	75	127
92.71650793650794	92.92548752834468	63	127
92.71650793650794	92.92548752834468	51	127
92.71650793650794	93.11122448979592	72	127
92.93709750566893	93.11122448979592	62	127
92.93709750566893	93.11122448979592	50	127
93.12285714285714	93.50598639455782	62	127
93.12285714285714	93.50598639455782	69	127
93.12285714285714	93.50598639455782	50	127
93.50598639455782	93.9239455782313	42	127
93.50598639455782	93.9239455782313	74	127
93.93555555555555	94.15614512471656	51	127
93.93555555555555	94.37673469387755	70	127
93.93555555555555	94.37673469387755	43	127
93.93555555555555	94.15614512471656	63	127
94.15614512471656	94.37673469387755	62	127
94.15614512471656	94.37673469387755	50	127
94.38832199546485	95.92086167800454	67	127
94.38832199546485	94.80630385487528	82	127
94.38832199546485	94.80630385487528	38	127
94.38832199546485	95.92086167800454	79	127
94.81791383219955	95.11977324263039	87	127
95.11977324263039	95.51451247165532	84	127
95.11977324263039	95.31714285714285	39	127
95.31714285714285	95.51451247165532	38	127
95.52612244897959	95.92086167800454	81	127
95.52612244897959	95.92086167800454	38	127
95.92086167800454	96.35043083900227	66	127
95.92086167800454	96.35043083900227	86	127
95.92086167800454	96.35043083900227	78	127
96.36204081632653	96.79160997732426	67	127
96.36204081632653	96.55941043083901	39	127
96.36204081632653	96.79160997732426	82	127
96.36204081632653	96.79160997732426	79	127
96.58263038548753	96.79160997732426	38	127
96.79160997732426	96.94253968253969	51	127
96.79160997732426	96.94253968253969	79	127
96.79160997732426	96.94253968253969	55	127
96.79160997732426	97.01219954648526	79	127
97.01219954648526	97.17473922902494	77	127
97.01219954648526	97.17473922902494	65	127
97.01219954648526	97.17473922902494	50	127
97.221179138322	97.36049886621315	48	127
97.221179138322	98.40539682539682	91	127
97.221179138322	97.36049886621315	75	127
97.221179138322	97.36049886621315	63	127
97.41854875283447	97.60430839002268	74	127
97.41854875283447	97.60430839002268	62	127
97.41854875283447	97.60430839002268	46	127
97.67396825396825	97.79006802721088	72	127
97.67396825396825	97.79006802721088	60	127
97.67396825396825	97.79006802721088	45	127
97.8481179138322	97.98743764172336	43	127
97.8481179138322	97.98743764172336	70	127
97.8481179138322	97.98743764172336	58	127
98.03387755102041	98.17319727891156	64	127
98.03387755102041	98.17319727891156	61	127
98.03387755102041	98.17319727891156	45	127
98.21963718820862	98.35895691609977	63	127
98.21963718820862	98.35895691609977	60	127
98.21963718820862	98.35895691609977	50	127
98.40539682539682	98.55632653061224	50	127
98.40539682539682	98.48666666666666	90	127
98.40539682539682	98.55632653061224	75	127
98.40539682539682	98.55632653061224	48	127
98.48666666666666	98.54471655328798	91	127
98.54471655328798	98.6027664399093	90	127
98.6027664399093	98.74208616780045	38	127
98.6027664399093	98.67242630385488	91	127
98.6027664399093	98.74208616780045	74	127
98.6027664399093	98.74208616780045	58	127
98.67242630385488	98.7304761904762	90	127
98.7304761904762	98.80013605442177	91	127
98.80013605442177	98.92784580498866	38	127
98.80013605442177	98.85818594104309	90	127
98.80013605442177	98.92784580498866	74	127
98.80013605442177	98.92784580498866	57	127
98.85818594104309	98.9162358276644	91	127
98.9162358276644	98.97428571428571	90	127
98.97428571428571	99.1368253968254	57	127
98.97428571428571	99.09038548752835	88	127
98.97428571428571	99.1368253968254	72	127
98.97428571428571	99.1368253968254	50	127
98.97428571428571	99.1368253968254	50	127
99.09038548752835	99.18326530612245	90	127
99.18326530612245	99.48512471655329	43	127
99.18326530612245	99.48512471655329	91	127
99.18326530612245	99.48512471655329	62	127
99.18326530612245	99.48512471655329	70	127
99.18326530612245	99.48512471655329	50	127
99.18326530612245	99.48512471655329	55	127
99.6360544217687	99.99596371882086	55	127
99.6360544217687	99.99596371882086	55	127
99.6360544217687	99.99596371882086	43	127
100.14689342403628	100.49519274376418	55	127
100.14689342403628	100.49519274376418	55	127
100.14689342403628	100.49519274376418	43	127
100.6461224489796	100.91315192743764	55	127
100.6461224489796	101.0524716553288	55	127
100.6461224489796	101.0524716553288	43	127
101.06408163265306	101.458820861678	62	127
101.47043083900226	101.85356009070294	62	127
101.86517006802721	104.40775510204081	62	127
102.28312925170069	102.75913832199547	70	127
102.75913832199547	103.21192743764172	70	127
103.21192743764172	103.60666666666667	70	127
103.61827664399092	104.01301587301587	69	127
103.61827664399092	104.01301587301587	89	127
103.61827664399092	104.01301587301587	72	127
104.01301587301587	104.08267573696145	90	127
104.01301587301587	104.40775510204081	69	127
104.01301587301587	104.40775510204081	72	127
104.08267573696145	104.15233560090702	91	127
104.15233560090702	104.21038548752834	90	127
104.21038548752834	104.31487528344671	88	127
104.31487528344671	104.41936507936508	90	127
104.41936507936508	104.68639455782314	62	127
104.41936507936508	104.68639455782314	71	127
104.41936507936508	104.68639455782314	55	127
104.41936507936508	104.68639455782314	43	127
104.41936507936508	104.68639455782314	62	127
104.41936507936508	104.68639455782314	91	127
104.81410430839003	105.09274376417234	55	127
104.81410430839003	105.09274376417234	55	127
104.81410430839003	105.09274376417234	43	127
105.22045351473923	105.53392290249433	55	127
105.22045351473923	105.53392290249433	55	127
105.22045351473923	105.53392290249433	43	127
105.67324263038549	106.13764172335601	55	127
105.67324263038549	106.13764172335601	43	127
106.13764172335601	106.55560090702947	62	127
106.55560090702947	106.98517006802722	62	127
106.98517006802722	109.49292517006803	62	127
107.4263492063492	107.8326984126984	71	127
107.4263492063492	107.8326984126984	67	127
107.8326984126984	108.25065759637188	71	127
107.8326984126984	108.25065759637188	67	127
108.25065759637188	108.66861678004535	67	127
108.25065759637188	108.66861678004535	71	127
108.68022675736961	109.01691609977324	72	127
108.68022675736961	109.01691609977324	78	127
108.68022675736961	109.01691609977324	69	127
109.02852607709751	109.09818594104308	78	127
109.02852607709751	109.09818594104308	72	127
109.02852607709751	109.09818594104308	69	127
109.09818594104308	109.17945578231293	79	127
109.09818594104308	109.17945578231293	74	127
109.09818594104308	109.17945578231293	71	127
109.17945578231293	109.26072562358277	78	127
109.17945578231293	109.26072562358277	72	127
109.17945578231293	109.26072562358277	69	127
109.26072562358277	109.35360544217687	70	127
109.26072562358277	109.35360544217687	76	127
109.26072562358277	109.35360544217687	67	127
109.35360544217687	109.49292517006803	69	127
109.35360544217687	109.49292517006803	78	127
109.35360544217687	109.49292517006803	72	127
111.72204081632653	112.14	50	127
111.72204081632653	112.14	66	127
111.72204081632653	112.14	57	127
111.72204081632653	112.14	60	127
112.14	112.2328798185941	60	127
112.14	112.2328798185941	66	127
112.14	112.2328798185941	57	127
112.14	112.2677097505669	52	127
112.2328798185941	112.30253968253969	62	127
112.2328798185941	112.30253968253969	67	127
112.2328798185941	112.30253968253969	58	127
112.2677097505669	112.39541950113379	50	127
112.30253968253969	112.39541950113379	66	127
112.30253968253969	112.39541950113379	57	127
112.30253968253969	112.39541950113379	60	127
112.39541950113379	112.47668934240363	59	127
112.39541950113379	112.47668934240363	64	127
112.39541950113379	112.47668934240363	55	127
112.39541950113379	112.47668934240363	52	127
112.47668934240363	112.61600907029478	60	127
112.47668934240363	112.61600907029478	66	127
112.47668934240363	112.61600907029478	57	127
112.47668934240363	112.61600907029478	50	127
112.61600907029478	115.69265306122449	43	127
112.61600907029478	112.91786848072563	55	127
112.61600907029478	112.91786848072563	62	127
112.61600907029478	112.91786848072563	71	127
112.61600907029478	115.69265306122449	79	127
112.61600907029478	115.69265306122449	71	127
112.61600907029478	115.69265306122449	50	127
112.61600907029478	115.69265306122449	59	127
112.61600907029478	115.69265306122449	50	127
115.70426303854876	116.34281179138323	55	127
115.70426303854876	116.34281179138323	62	127
115.70426303854876	116.34281179138323	71	127
115.70426303854876	116.34281179138323	79	127
115.70426303854876	116.34281179138323	50	127
115.70426303854876	116.34281179138323	59	127
115.70426303854876	116.34281179138323	43	127
115.70426303854876	116.34281179138323	50	127
116.67950113378684	118.72285714285714	45	127
116.67950113378684	118.72285714285714	74	127
116.67950113378684	118.72285714285714	62	127
116.67950113378684	118.72285714285714	66	127
116.67950113378684	118.72285714285714	50	127
116.67950113378684	118.72285714285714	60	127
118.74607709750566	119.3614058956916	50	127
118.74607709750566	119.3614058956916	74	127
118.74607709750566	119.3614058956916	62	127
118.74607709750566	119.3614058956916	66	127
118.74607709750566	119.3614058956916	60	127
118.74607709750566	119.3614058956916	45	127
119.68648526077098	122.97210884353741	59	127
119.68648526077098	120.06961451247166	55	127
119.68648526077098	120.06961451247166	62	127
119.68648526077098	120.06961451247166	74	127
119.68648526077098	120.06961451247166	71	127
119.68648526077098	122.97210884353741	50	127
119.68648526077098	122.97210884353741	83	127
119.68648526077098	122.97210884353741	79	127
119.68648526077098	122.97210884353741	50	127
119.68648526077098	122.97210884353741	43	127
122.99532879818594	123.6338775510204	55	127
122.99532879818594	123.6338775510204	62	127
122.99532879818594	123.6338775510204	74	127
122.99532879818594	123.6338775510204	83	127
122.99532879818594	123.6338775510204	71	127
122.99532879818594	123.6338775510204	79	127
122.99532879818594	123.6338775510204	50	127
122.99532879818594	123.6338775510204	59	127
122.99532879818594	123.6338775510204	43	127
122.99532879818594	123.6338775510204	50	127
123.95895691609978	125.86299319727891	48	127
123.95895691609978	125.86299319727891	81	127
123.95895691609978	125.86299319727891	78	127
123.95895691609978	125.86299319727891	50	127
123.95895691609978	125.86299319727891	62	127
125.87460317460318	126.5247619047619	50	127
125.87460317460318	126.5247619047619	81	127
125.87460317460318	126.5247619047619	78	127
125.87460317460318	126.5247619047619	62	127
125.87460317460318	126.5247619047619	48	127
126.81501133786848	129.21825396825398	62	127
126.81501133786848	129.21825396825398	86	127
126.81501133786848	129.21825396825398	71	127
126.81501133786848	129.21825396825398	79	127
126.81501133786848	129.21825396825398	55	127
126.81501133786848	129.21825396825398	47	127
129.24149659863946	129.75233560090703	67	127
129.24149659863946	129.75233560090703	83	127
129.24149659863946	129.75233560090703	79	127
129.24149659863946	129.75233560090703	55	127
129.24149659863946	129.75233560090703	52	127
130.03095238095239	133.1888888888889	55	127
130.03095238095239	130.99460317460318	67	127
130.03095238095239	130.99460317460318	76	127
130.03095238095239	131.50544217687076	88	127
130.03095238095239	133.1888888888889	48	127
130.03095238095239	133.1888888888889	36	127
130.03095238095239	133.1888888888889	48	127
131.0178231292517	133.1888888888889	64	127
131.0178231292517	133.1888888888889	55	127
131.52866213151927	131.8073015873016	75	127
131.8073015873016	132.07433106575965	76	127
132.07433106575965	132.26009070294785	75	127
132.26009070294785	132.44585034013605	76	127
132.44585034013605	132.63160997732427	75	127
132.63160997732427	132.81736961451247	76	127
132.81736961451247	133.01473922902494	75	127
133.01473922902494	133.2121088435374	76	127
133.2121088435374	135.11614512471655	64	127
133.2121088435374	133.38625850340136	75	127
133.2121088435374	135.11614512471655	55	127
133.2121088435374	135.11614512471655	48	127
133.2121088435374	134.62852607709752	36	127
133.2121088435374	134.62852607709752	50	127
133.2121088435374	135.11614512471655	55	127
133.38625850340136	133.54879818594105	76	127
133.54879818594105	133.69972789115647	75	127
133.69972789115647	133.8738775510204	76	127
133.8738775510204	134.05963718820863	75	127
134.05963718820863	134.24539682539682	76	127
134.24539682539682	134.4427664399093	78	127
134.4427664399093	134.62852607709752	76	127
134.67496598639457	135.11614512471655	76	127
134.67496598639457	135.85916099773243	60	127
135.12775510204082	135.52249433106576	48	127
135.12775510204082	135.52249433106576	81	127
135.52249433106576	135.85916099773243	60	127
135.52249433106576	135.85916099773243	78	127
135.52249433106576	136.2307029478458	69	127
135.87079365079364	136.2307029478458	74	127
135.87079365079364	136.9505215419501	59	127
135.87079365079364	136.2307029478458	62	127
136.24231292517007	136.57897959183674	79	127
136.24231292517007	136.57897959183674	62	127
136.57897959183674	136.9505215419501	76	127
136.57897959183674	137.298820861678	55	127
136.57897959183674	137.1130612244898	67	127
136.9505215419501	138.09990929705216	57	127
136.9505215419501	137.1130612244898	74	127
137.12467120181407	137.298820861678	72	127
137.12467120181407	137.298820861678	64	127
137.31043083900227	137.7051700680272	60	127
137.31043083900227	137.7051700680272	69	127
137.31043083900227	137.50780045351473	72	127
137.50780045351473	137.7051700680272	71	127
137.7051700680272	138.48303854875283	66	127
137.7051700680272	137.960589569161	72	127
137.7051700680272	138.09990929705216	57	127
138.09990929705216	139.31895691609978	59	127
138.09990929705216	138.48303854875283	62	127
138.09990929705216	138.88938775510204	74	127
138.4946485260771	138.88938775510204	67	127
138.4946485260771	139.70208616780045	55	127
138.88938775510204	139.31895691609978	75	127
138.88938775510204	139.31895691609978	65	127
139.31895691609978	139.70208616780045	64	127
139.31895691609978	139.70208616780045	76	127
139.31895691609978	140.47995464852607	60	127
139.71369614512471	140.89791383219955	48	127
139.71369614512471	140.0968253968254	57	127
139.71369614512471	140.0968253968254	81	127
140.10843537414965	140.89791383219955	78	127
140.10843537414965	140.89791383219955	69	127
140.47995464852607	141.65256235827664	62	127
140.89791383219955	141.26943310657597	83	127
140.89791383219955	141.26943310657597	59	127
140.89791383219955	141.65256235827664	50	127
141.28102040816327	141.65256235827664	71	127
141.28102040816327	142.02408163265306	79	127
141.65256235827664	142.02408163265306	52	127
141.65256235827664	142.02408163265306	72	127
141.65256235827664	142.4071882086168	64	127
142.02408163265306	142.4071882086168	60	127
142.02408163265306	142.4071882086168	84	127
142.02408163265306	142.4071882086168	64	127
142.418820861678	143.18507936507936	66	127
142.418820861678	142.99931972789116	72	127
142.418820861678	142.99931972789116	62	127
142.418820861678	143.18507936507936	81	127
142.418820861678	142.61619047619047	54	127
142.61619047619047	142.8019501133787	66	127
142.813537414966	142.99931972789116	62	127
142.99931972789116	143.18507936507936	66	127
142.99931972789116	143.18507936507936	60	127
143.18507936507936	143.3708390022676	67	127
143.18507936507936	143.3708390022676	83	127
143.18507936507936	143.3708390022676	59	127
143.18507936507936	143.56820861678005	67	127
143.3708390022676	143.56820861678005	57	127
143.3708390022676	143.56820861678005	69	127
143.3708390022676	143.56820861678005	84	127
143.56820861678005	143.76557823129252	55	127
143.56820861678005	143.98614512471656	43	127
143.56820861678005	143.76557823129252	86	127
143.56820861678005	143.76557823129252	71	127
143.76557823129252	143.98614512471656	87	127
143.76557823129252	143.98614512471656	59	127
143.76557823129252	143.98614512471656	53	127
143.99777777777777	144.5202267573696	64	127
143.99777777777777	144.5202267573696	52	127
143.99777777777777	144.5202267573696	48	127
143.99777777777777	145.42580498866212	88	127
143.99777777777777	145.42580498866212	36	127
144.53183673469388	145.00784580498868	69	127
144.53183673469388	145.00784580498868	57	127
144.53183673469388	145.79732426303855	48	127
145.00784580498868	145.79732426303855	54	127
145.00784580498868	145.42580498866212	76	127
145.00784580498868	145.79732426303855	66	127
145.42580498866212	146.55197278911564	86	127
145.80893424036282	146.9467120181406	47	127
145.80893424036282	146.18045351473924	71	127
145.80893424036282	146.18045351473924	59	127
146.18045351473924	146.55197278911564	74	127
146.18045351473924	146.9467120181406	67	127
146.18045351473924	146.9467120181406	55	127
146.55197278911564	147.7709977324263	84	127
146.95832199546484	147.3646485260771	72	127
146.95832199546484	147.3646485260771	60	127
146.95832199546484	148.200589569161	45	127
147.3646485260771	147.7709977324263	72	127
147.3646485260771	148.200589569161	69	127
147.3646485260771	148.200589569161	57	127
147.7709977324263	149.09455782312926	83	127
148.21219954648527	148.65337868480725	74	127
148.21219954648527	148.65337868480725	62	127
148.21219954648527	148.65337868480725	43	127
148.66498866213152	149.09455782312926	59	127
148.66498866213152	149.09455782312926	71	127
148.66498866213152	149.09455782312926	50	127
149.09455782312926	149.34997732426305	55	127
149.09455782312926	149.34997732426305	67	127
149.09455782312926	149.46607709750566	41	127
149.09455782312926	149.88403628117914	71	127
149.09455782312926	149.88403628117914	83	127
149.46607709750566	149.6750566893424	67	127
149.46607709750566	149.88403628117914	50	127
149.46607709750566	149.6750566893424	55	127
149.6750566893424	149.88403628117914	69	127
149.6750566893424	149.88403628117914	57	127
149.90725623582767	150.17426303854876	59	127
149.90725623582767	150.17426303854876	71	127
149.90725623582767	150.6502947845805	86	127
149.90725623582767	150.3019954648526	43	127
150.3019954648526	150.6502947845805	40	127
150.6502947845805	150.84766439909296	64	127
150.6502947845805	150.84766439909296	76	127
150.6502947845805	151.0566439909297	84	127
150.6502947845805	151.0566439909297	43	127
150.85927437641723	151.0566439909297	78	127
150.85927437641723	151.0566439909297	66	127
151.0566439909297	151.33528344671203	79	127
151.0566439909297	151.33528344671203	67	127
151.0566439909297	151.25401360544217	84	127
151.0566439909297	151.4629931972789	39	127
151.26562358276644	151.4629931972789	81	127
151.4629931972789	151.85773242630387	81	127
151.4629931972789	151.85773242630387	38	127
151.8693424036281	152.26408163265307	47	127
151.8693424036281	152.04349206349207	71	127
151.8693424036281	152.04349206349207	59	127
151.8693424036281	152.26408163265307	79	127
152.04349206349207	152.26408163265307	72	127
152.04349206349207	152.26408163265307	60	127
152.26408163265307	152.67043083900228	83	127
152.26408163265307	152.54272108843537	74	127
152.26408163265307	152.54272108843537	62	127
152.26408163265307	152.67043083900228	43	127
152.67043083900228	153.08836734693878	75	127
152.67043083900228	153.08836734693878	38	127
153.08836734693878	153.494716553288	48	127
153.08836734693878	153.27414965986395	69	127
153.08836734693878	153.27414965986395	57	127
153.08836734693878	153.494716553288	74	127
153.28575963718822	153.494716553288	71	127
153.28575963718822	153.494716553288	59	127
153.494716553288	153.71532879818594	72	127
153.494716553288	153.71532879818594	76	127
153.494716553288	153.71532879818594	60	127
153.494716553288	153.9475283446712	45	127
153.7269387755102	153.9475283446712	78	127
153.7269387755102	153.9475283446712	74	127
153.7269387755102	153.9475283446712	62	127
153.9475283446712	154.40031746031747	59	127
153.9475283446712	154.40031746031747	79	127
153.9475283446712	154.40031746031747	71	127
153.9475283446712	154.40031746031747	43	127
154.41192743764174	154.78344671201813	84	127
154.78344671201813	155.57292517006803	81	127
154.78344671201813	155.57292517006803	60	127
155.18979591836734	156.78036281179138	67	127
155.57292517006803	155.96766439909297	59	127
155.57292517006803	155.96766439909297	86	127
155.96766439909297	156.37401360544217	83	127
155.96766439909297	156.37401360544217	62	127
156.37401360544217	157.5930612244898	55	127
156.78036281179138	157.18671201814058	72	127
157.19832199546485	158.06907029478458	69	127
157.19832199546485	158.06907029478458	60	127
157.5930612244898	158.95142857142858	53	127
158.08068027210885	158.52185941043084	59	127
158.08068027210885	158.52185941043084	74	127
158.52185941043084	158.95142857142858	62	127
158.52185941043084	159.35777777777778	71	127
158.96303854875285	160.19367346938776	67	127
158.96303854875285	160.19367346938776	51	127
159.35777777777778	159.77573696145126	75	127
159.78732426303856	160.62326530612245	72	127
160.19367346938776	161.90036281179138	79	127
160.19367346938776	161.49401360544218	50	127
160.19367346938776	161.49401360544218	65	127
160.62326530612245	161.02961451247165	71	127
161.02961451247165	161.27342403628117	72	127
161.27342403628117	161.49401360544218	74	127
161.49401360544218	162.72467120181406	43	127
161.49401360544218	162.72467120181406	75	127
161.49401360544218	162.72467120181406	48	127
161.91197278911565	162.3067120181406	84	127
162.3067120181406	163.13102040816327	81	127
162.73628117913833	164.3152380952381	55	127
162.73628117913833	163.94371882086168	53	127
162.73628117913833	163.94371882086168	41	127
162.73628117913833	163.94371882086168	74	127
163.13102040816327	163.5257596371882	86	127
163.53736961451247	164.3152380952381	83	127
163.94371882086168	165.11632653061224	79	127
163.94371882086168	165.11632653061224	39	127
164.32684807256237	164.70997732426304	60	127
164.32684807256237	164.70997732426304	87	127
164.70997732426304	165.55750566893425	84	127
164.70997732426304	165.55750566893425	57	127
165.11632653061224	166.38179138321996	38	127
165.11632653061224	166.82299319727892	77	127
165.55750566893425	165.9522448979592	55	127
165.55750566893425	165.9522448979592	83	127
165.9522448979592	166.17281179138322	57	127
165.9522448979592	166.17281179138322	84	127
166.18444444444444	166.38179138321996	59	127
166.18444444444444	166.38179138321996	86	127
166.39342403628117	167.6124716553288	48	127
166.39342403628117	167.6124716553288	87	127
166.39342403628117	166.82299319727892	36	127
166.39342403628117	167.6124716553288	60	127
166.82299319727892	167.20612244897958	55	127
166.82299319727892	167.00875283446712	75	127
167.00875283446712	167.20612244897958	77	127
167.21773242630385	167.50798185941042	79	127
167.21773242630385	167.6124716553288	48	127
167.6124716553288	168.8663492063492	60	127
167.6124716553288	168.018820861678	46	127
167.6124716553288	168.8663492063492	87	127
167.6124716553288	168.8663492063492	48	127
168.03043083900226	168.43678004535147	55	127
168.03043083900226	168.21616780045352	72	127
168.22780045351473	168.43678004535147	74	127
168.43678004535147	168.75024943310657	75	127
168.43678004535147	168.8663492063492	48	127
168.87795918367348	171.33925170068028	60	127
168.87795918367348	169.3075283446712	45	127
168.87795918367348	169.72548752834467	87	127
168.87795918367348	171.33925170068028	48	127
169.3075283446712	169.72548752834467	53	127
169.3075283446712	169.51650793650794	72	127
169.51650793650794	169.72548752834467	74	127
169.72548752834467	170.13183673469388	48	127
169.72548752834467	170.0273469387755	76	127
169.72548752834467	170.53818594104308	91	127
170.13183673469388	170.53818594104308	44	127
170.53818594104308	170.73555555555555	53	127
170.53818594104308	170.73555555555555	72	127
170.53818594104308	170.93292517006802	89	127
170.74716553287982	170.93292517006802	48	127
170.74716553287982	170.93292517006802	76	127
170.9445351473923	171.72240362811792	77	127
170.9445351473923	171.14190476190475	89	127
170.9445351473923	171.33925170068028	44	127
171.14190476190475	171.33925170068028	86	127
171.33925170068028	171.72240362811792	48	127
171.33925170068028	171.72240362811792	86	127
171.33925170068028	171.72240362811792	43	127
171.72240362811792	172.0707029478458	51	127
171.72240362811792	171.8849433106576	75	127
171.72240362811792	172.0707029478458	84	127
171.72240362811792	172.697641723356	67	127
171.8849433106576	172.0707029478458	77	127
172.0707029478458	172.48866213151928	48	127
172.0707029478458	172.697641723356	87	127
172.0707029478458	172.697641723356	79	127
172.50027210884355	172.91823129251702	43	127
172.70925170068028	172.91823129251702	60	127
172.70925170068028	172.91823129251702	55	127
172.70925170068028	172.91823129251702	63	127
172.91823129251702	174.26498866213151	36	127
172.91823129251702	173.16204081632654	65	127
172.91823129251702	173.16204081632654	59	127
172.91823129251702	173.40585034013606	68	127
173.16204081632654	173.40585034013606	63	127
173.16204081632654	173.40585034013606	60	127
173.40585034013606	173.6148299319728	51	127
173.40585034013606	173.6148299319728	67	127
173.40585034013606	173.6148299319728	60	127
173.6148299319728	173.84702947845804	71	127
173.6148299319728	173.84702947845804	65	127
173.6148299319728	173.84702947845804	50	127
173.8586394557823	174.06761904761905	48	127
173.8586394557823	174.26498866213151	72	127
173.8586394557823	174.26498866213151	63	127
174.06761904761905	174.26498866213151	55	127
174.26498866213151	174.69455782312926	68	127
174.26498866213151	174.69455782312926	42	127
174.70616780045353	175.565306122449	38	127
174.70616780045353	174.89192743764173	67	127
174.903537414966	175.10090702947846	71	127
175.10090702947846	175.565306122449	72	127
175.10090702947846	176.77274376417233	60	127
175.565306122449	175.96004535147392	43	127
175.96004535147392	176.36639455782313	39	127
176.36639455782313	176.57537414965986	36	127
176.58698412698413	176.77274376417233	48	127
176.7843537414966	177.16746031746032	56	127
176.7843537414966	177.16746031746032	65	127
176.7843537414966	177.16746031746032	60	127
177.16746031746032	178.0150113378685	62	127
177.16746031746032	177.36485260770976	55	127
177.16746031746032	177.56222222222223	65	127
177.376462585034	177.56222222222223	59	127
177.57380952380953	178.0150113378685	60	127
177.57380952380953	178.87414965986395	72	127
177.57380952380953	178.0150113378685	53	127
178.0150113378685	178.4213605442177	67	127
178.0150113378685	178.4213605442177	51	127
178.43297052154196	178.87414965986395	55	127
178.43297052154196	179.33854875283447	63	127
178.87414965986395	180.19768707482993	75	127
178.87414965986395	180.19768707482993	60	127
179.35015873015874	179.802947845805	68	127
179.802947845805	180.60403628117913	65	127
180.19768707482993	181.97401360544217	39	127
180.19768707482993	181.5212244897959	73	127
180.19768707482993	181.5212244897959	58	127
180.60403628117913	181.08004535147393	70	127
181.08004535147393	181.97401360544217	67	127
181.53283446712018	182.7286621315193	56	127
181.53283446712018	182.7286621315193	72	127
181.97401360544217	182.35714285714286	60	127
181.97401360544217	182.35714285714286	44	127
182.35714285714286	182.7286621315193	41	127
182.35714285714286	183.158231292517	65	127
182.7286621315193	184.040589569161	70	127
182.7286621315193	184.040589569161	55	127
182.7286621315193	183.158231292517	37	127
183.16984126984127	183.58780045351475	58	127
183.16984126984127	183.58780045351475	43	127
183.58780045351475	184.040589569161	67	127
183.58780045351475	184.040589569161	63	127
183.58780045351475	184.040589569161	39	127
184.040589569161	184.17990929705215	63	127
184.040589569161	184.17990929705215	66	127
184.040589569161	184.17990929705215	36	127
184.040589569161	184.33083900226757	69	127
184.23795918367347	184.38888888888889	57	127
184.23795918367347	184.38888888888889	66	127
184.23795918367347	184.38888888888889	60	127
184.23795918367347	184.38888888888889	63	127
184.23795918367347	184.38888888888889	48	127
184.33083900226757	184.5281859410431	69	127
184.43532879818594	184.57462585034014	51	127
184.43532879818594	184.57462585034014	57	127
184.43532879818594	184.57462585034014	66	127
184.43532879818594	184.57462585034014	60	127
184.43532879818594	184.57462585034014	63	127
184.43532879818594	184.72557823129253	78	127
184.6326984126984	184.77201814058958	54	127
184.6326984126984	184.77201814058958	57	127
184.6326984126984	184.77201814058958	66	127
184.6326984126984	184.77201814058958	60	127
184.6326984126984	184.77201814058958	63	127
184.73718820861677	184.922947845805	69	127
184.83004535147393	184.96938775510205	63	127
184.83004535147393	184.96938775510205	57	127
184.83004535147393	184.96938775510205	66	127
184.83004535147393	185.09709750566893	78	127
184.83004535147393	184.96938775510205	60	127
184.83004535147393	184.96938775510205	57	127
185.0158276643991	185.14353741496598	63	127
185.0158276643991	185.14353741496598	57	127
185.0158276643991	185.14353741496598	66	127
185.0158276643991	185.14353741496598	60	127
185.0158276643991	185.14353741496598	60	127
185.09709750566893	185.28285714285715	69	127
185.18995464852608	185.74725623582768	78	127
185.18995464852608	185.3292970521542	60	127
185.18995464852608	185.3292970521542	63	127
185.18995464852608	185.46861678004535	66	127
185.18995464852608	185.46861678004535	57	127
185.18995464852608	185.56149659863945	63	127
185.37573696145125	185.5150566893424	63	127
185.46861678004535	185.65437641723355	69	127
185.56149659863945	185.95621315192744	42	127
185.56149659863945	185.70079365079366	60	127
185.56149659863945	185.84013605442178	78	127
185.75886621315192	185.88657596371883	57	127
185.75886621315192	185.88657596371883	57	127
185.85172335600907	186.0491156462585	69	127
185.96784580498866	186.40902494331067	39	127
185.96784580498866	186.09555555555556	60	127
185.96784580498866	186.09555555555556	55	127
185.96784580498866	186.29292517006803	78	127
186.16521541950112	186.36258503401362	63	127
186.16521541950112	186.36258503401362	51	127
186.40902494331067	186.69927437641724	63	127
186.40902494331067	186.5599546485261	66	127
186.40902494331067	186.5599546485261	78	127
186.40902494331067	186.69927437641724	36	127
186.60639455782314	186.74571428571429	69	127
186.60639455782314	186.74571428571429	75	127
186.69927437641724	186.88503401360543	57	127
186.79215419501134	187.08238095238096	66	127
186.79215419501134	186.93145124716554	72	127
186.79215419501134	187.17528344671203	42	127
186.9778911564626	187.12884353741498	75	127
186.9778911564626	187.12884353741498	69	127
187.09401360544217	187.26816326530613	57	127
187.18687074829933	187.57002267573696	39	127
187.18687074829933	187.31460317460318	78	127
187.18687074829933	187.31460317460318	66	127
187.18687074829933	187.4655328798186	66	127
187.38426303854877	187.52358276643992	81	127
187.38426303854877	187.52358276643992	63	127
187.47714285714287	187.66290249433106	57	127
187.57002267573696	187.8718820861678	66	127
187.57002267573696	187.7093424036281	84	127
187.57002267573696	187.7093424036281	75	127
187.57002267573696	187.8718820861678	36	127
187.75578231292516	187.92993197278912	72	127
187.75578231292516	187.92993197278912	87	127
187.8718820861678	188.06925170068027	48	127
187.97637188208617	188.33628117913833	42	127
187.97637188208617	188.11569160997732	87	127
187.97637188208617	188.11569160997732	69	127
187.97637188208617	188.24340136054423	54	127
188.16213151927437	188.28984126984128	90	127
188.16213151927437	188.28984126984128	72	127
188.16213151927437	188.28984126984128	69	127
188.24340136054423	188.42916099773242	48	127
188.33628117913833	188.61489795918368	54	127
188.33628117913833	188.47560090702947	90	127
188.33628117913833	188.47560090702947	72	127
188.33628117913833	188.47560090702947	69	127
188.33628117913833	188.71938775510205	39	127
188.5336507936508	188.6613605442177	60	127
188.5336507936508	188.6613605442177	69	127
188.7658276643991	188.92839002267573	65	127
188.7658276643991	188.92839002267573	53	127
188.7658276643991	188.92839002267573	37	127
188.7658276643991	188.92839002267573	61	127
188.7658276643991	189.0677097505669	70	127
188.97480725623583	189.11414965986395	41	127
188.97480725623583	189.11414965986395	61	127
188.97480725623583	189.11414965986395	65	127
188.97480725623583	189.11414965986395	58	127
188.97480725623583	189.11414965986395	49	127
189.0677097505669	189.2534693877551	70	127
189.160589569161	189.31151927437642	46	127
189.160589569161	189.31151927437642	61	127
189.160589569161	189.31151927437642	65	127
189.160589569161	189.31151927437642	58	127
189.160589569161	189.31151927437642	49	127
189.160589569161	189.45083900226757	77	127
189.35795918367347	189.49727891156462	49	127
189.35795918367347	189.49727891156462	61	127
189.35795918367347	189.49727891156462	65	127
189.35795918367347	189.49727891156462	58	127
189.35795918367347	189.49727891156462	49	127
189.45083900226757	189.64820861678004	70	127
189.54371882086167	189.6946485260771	58	127
189.54371882086167	189.6946485260771	61	127
189.54371882086167	189.6946485260771	65	127
189.54371882086167	189.6946485260771	49	127
189.54371882086167	189.6946485260771	53	127
189.54371882086167	189.822358276644	77	127
189.7526984126984	189.85718820861678	58	127
189.7526984126984	189.85718820861678	61	127
189.7526984126984	189.85718820861678	65	127
189.7526984126984	189.85718820861678	58	127
189.7526984126984	189.85718820861678	49	127
189.83396825396827	190.0081179138322	70	127
189.9152380952381	190.5073469387755	77	127
189.9152380952381	190.05455782312924	70	127
189.9152380952381	190.21709750566893	61	127
189.9152380952381	190.21709750566893	65	127
189.9152380952381	190.21709750566893	37	127
190.11260770975056	190.26353741496598	65	127
190.21709750566893	190.40285714285713	70	127
190.30997732426303	190.71632653061224	46	127
190.30997732426303	190.46090702947845	61	127
190.30997732426303	190.61183673469387	77	127
190.5073469387755	190.65827664399092	58	127
190.5073469387755	190.65827664399092	58	127
190.61183673469387	190.8208163265306	70	127
190.71632653061224	191.1342857142857	41	127
190.71632653061224	190.87886621315192	61	127
190.71632653061224	190.87886621315192	53	127
190.71632653061224	191.02979591836734	77	127
190.93691609977324	191.0762358276644	65	127
190.93691609977324	191.0762358276644	49	127
191.14589569160998	191.42453514739228	65	127
191.14589569160998	191.28521541950113	70	127
191.14589569160998	191.28521541950113	77	127
191.14589569160998	191.42453514739228	37	127
191.34326530612245	191.4825850340136	73	127
191.43614512471655	191.64512471655328	58	127
191.52902494331065	191.8308843537415	65	127
191.52902494331065	191.9237641723356	46	127
191.52902494331065	191.69156462585033	77	127
191.52902494331065	191.69156462585033	70	127
191.73800453514738	191.87732426303856	82	127
191.73800453514738	191.87732426303856	65	127
191.8308843537415	192.0166439909297	58	127
191.9237641723356	192.30689342403628	41	127
191.9237641723356	192.07469387755103	85	127
191.9237641723356	192.07469387755103	61	127
191.9237641723356	192.21401360544218	65	127
192.12113378684808	192.26045351473923	89	127
192.12113378684808	192.26045351473923	58	127
192.21401360544218	192.39977324263037	58	127
192.30689342403628	192.5855328798186	65	127
192.30689342403628	192.44621315192742	89	127
192.30689342403628	192.44621315192742	77	127
192.30689342403628	192.5855328798186	37	127
192.50426303854874	192.63197278911565	73	127
192.50426303854874	192.63197278911565	94	127
192.59714285714287	192.78290249433107	49	127
192.69002267573697	193.06154195011337	46	127
192.69002267573697	192.82934240362812	70	127
192.69002267573697	192.96866213151927	53	127
192.69002267573697	193.06154195011337	94	127
192.87578231292517	193.01510204081632	65	127
192.96866213151927	193.1544217687075	53	127
193.06154195011337	193.35179138321996	58	127
193.06154195011337	193.20086167800454	61	127
193.06154195011337	193.44467120181406	41	127
193.06154195011337	193.44467120181406	70	127
193.25891156462586	193.398231292517	58	127
193.44467120181406	193.59560090702948	37	127
193.44467120181406	193.59560090702948	59	127
193.44467120181406	193.59560090702948	68	127
193.44467120181406	193.59560090702948	53	127
193.44467120181406	193.59560090702948	56	127
193.44467120181406	193.78136054421768	71	127
193.6536507936508	193.82780045351473	68	127
193.6536507936508	193.82780045351473	59	127
193.6536507936508	193.82780045351473	53	127
193.6536507936508	193.82780045351473	56	127
193.6536507936508	193.82780045351473	41	127
193.79297052154195	193.9671201814059	71	127
193.88585034013605	194.01356009070295	59	127
193.88585034013605	194.1528798185941	77	127
193.88585034013605	194.01356009070295	53	127
193.88585034013605	194.01356009070295	56	127
193.88585034013605	194.01356009070295	44	127
193.88585034013605	194.01356009070295	68	127
194.07160997732427	194.21092970521542	56	127
194.07160997732427	194.21092970521542	59	127
194.07160997732427	194.21092970521542	68	127
194.07160997732427	194.21092970521542	49	127
194.07160997732427	194.21092970521542	53	127
194.1528798185941	194.36185941043084	71	127
194.25736961451247	194.4082993197279	53	127
194.25736961451247	194.4082993197279	59	127
194.25736961451247	194.4082993197279	68	127
194.25736961451247	194.4082993197279	56	127
194.25736961451247	194.4082993197279	53	127
194.25736961451247	194.54761904761904	77	127
194.45473922902494	194.5940589569161	56	127
194.45473922902494	194.5940589569161	59	127
194.45473922902494	194.5940589569161	68	127
194.45473922902494	194.5940589569161	53	127
194.45473922902494	194.5940589569161	56	127
194.54761904761904	194.74498866213153	71	127
194.64049886621316	195.23260770975057	77	127
194.64049886621316	194.80303854875282	68	127
194.64049886621316	194.95396825396824	59	127
194.64049886621316	194.95396825396824	68	127
194.64049886621316	194.95396825396824	37	127
194.84947845804987	195.00040816326532	65	127
194.9655782312925	195.13972789115647	71	127
195.0584580498866	195.42997732426304	44	127
195.0584580498866	195.18616780045352	59	127
195.0584580498866	195.32548752834467	80	127
195.24421768707484	195.38353741496599	65	127
195.24421768707484	195.38353741496599	56	127
195.33709750566894	195.52285714285713	71	127
195.42997732426304	195.80149659863946	41	127
195.42997732426304	195.56929705215418	68	127
195.42997732426304	195.56929705215418	53	127
195.42997732426304	195.70861678004536	80	127
195.61573696145123	195.7550566893424	71	127
195.61573696145123	195.7550566893424	50	127
195.70861678004536	195.89437641723356	71	127
195.80149659863946	195.9408163265306	77	127
195.80149659863946	195.9408163265306	80	127
195.80149659863946	196.06852607709752	53	127
195.80149659863946	196.06852607709752	56	127
195.80149659863946	196.06852607709752	37	127
195.98725623582766	196.1033560090703	80	127
195.98725623582766	196.1033560090703	77	127
196.06852607709752	196.24267573696144	59	127
196.14979591836735	196.42843537414967	68	127
196.14979591836735	196.52131519274377	44	127
196.14979591836735	196.2891156462585	83	127
196.14979591836735	196.2891156462585	77	127
196.3471655328798	196.47487528344672	89	127
196.3471655328798	196.47487528344672	71	127
196.4400453514739	196.62580498866214	59	127
196.53292517006804	196.90444444444444	41	127
196.53292517006804	196.6722448979592	89	127
196.53292517006804	196.6722448979592	68	127
196.53292517006804	196.81156462585034	68	127
196.71868480725624	196.8580045351474	91	127
196.71868480725624	196.8580045351474	65	127
196.81156462585034	196.99732426303854	59	127
196.90444444444444	197.18308390022676	37	127
196.90444444444444	197.0437641723356	91	127
196.90444444444444	197.0437641723356	77	127
196.90444444444444	197.18308390022676	68	127
197.09020408163266	197.2295238095238	92	127
197.09020408163266	197.2295238095238	71	127
197.18308390022676	197.36884353741496	49	127
197.27596371882086	197.5546031746032	56	127
197.27596371882086	197.415283446712	92	127
197.27596371882086	197.415283446712	65	127
197.27596371882086	197.415283446712	71	127
197.27596371882086	197.6474829931973	44	127
197.47333333333333	197.60104308390024	71	127
197.47333333333333	197.60104308390024	77	127
197.47333333333333	197.60104308390024	65	127
197.56621315192743	197.74036281179139	49	127
197.65909297052156	198.03061224489795	41	127
197.65909297052156	197.71714285714285	77	127
197.65909297052156	197.78680272108843	65	127
197.65909297052156	197.78680272108843	71	127
197.65909297052156	197.93773242630385	56	127
197.71714285714285	197.77519274376417	79	127
197.77519274376417	197.84485260770975	77	127
197.84485260770975	197.93773242630385	76	127
197.84485260770975	197.9841723356009	65	127
197.84485260770975	197.9841723356009	71	127
197.93773242630385	198.03061224489795	77	127
198.03061224489795	198.3673015873016	36	127
198.03061224489795	198.21637188208618	84	127
198.03061224489795	198.3673015873016	60	127
198.03061224489795	198.3673015873016	48	127
198.28603174603174	198.42535147392292	76	127
198.49501133786848	198.92458049886622	60	127
198.49501133786848	198.65755102040816	76	127
198.49501133786848	198.92458049886622	48	127
198.49501133786848	198.92458049886622	72	127
198.71560090702948	198.87814058956917	60	127
198.92458049886622	199.35414965986394	67	127
198.92458049886622	199.35414965986394	43	127
198.92458049886622	198.99424036281178	72	127
198.92458049886622	199.35414965986394	55	127
198.99424036281178	199.0522902494331	74	127
199.0522902494331	199.1451700680272	72	127
199.1451700680272	199.26126984126984	71	127
199.26126984126984	199.35414965986394	74	127
199.35414965986394	199.65600907029477	60	127
199.35414965986394	199.65600907029477	48	127
199.35414965986394	199.65600907029477	36	127
199.56312925170067	199.70244897959185	88	127
199.76049886621314	200.16684807256235	67	127
199.76049886621314	199.91142857142856	88	127
199.76049886621314	200.16684807256235	55	127
199.76049886621314	200.16684807256235	79	127
199.96947845804988	200.10879818594105	72	127
200.16684807256235	200.6892970521542	52	127
200.16684807256235	200.2481179138322	84	127
200.16684807256235	200.6892970521542	76	127
200.16684807256235	200.6892970521542	64	127
200.2481179138322	200.32938775510203	86	127
200.32938775510203	200.4338775510204	84	127
200.4338775510204	200.54997732426304	83	127
200.54997732426304	200.70090702947846	84	127
200.70090702947846	204.13746031746032	43	127
200.70090702947846	204.13746031746032	72	127
200.70090702947846	204.13746031746032	84	127
200.70090702947846	204.13746031746032	76	127
200.70090702947846	204.13746031746032	48	127
200.70090702947846	204.13746031746032	55	127
200.70090702947846	204.13746031746032	36	127
204.16068027210883	204.84566893424036	60	127
204.16068027210883	204.84566893424036	76	127
204.16068027210883	204.84566893424036	67	127
204.16068027210883	204.84566893424036	84	127
204.16068027210883	204.84566893424036	55	127
204.16068027210883	204.84566893424036	64	127
204.16068027210883	204.84566893424036	72	127
204.16068027210883	204.84566893424036	48	127
204.16068027210883	204.84566893424036	55	127
204.16068027210883	204.84566893424036	36	127
204.16068027210883	204.84566893424036	43	127
205.18235827664398	207.22571428571428	43	127
205.18235827664398	207.22571428571428	79	127
205.18235827664398	207.22571428571428	65	127
205.18235827664398	207.22571428571428	71	127
205.18235827664398	207.22571428571428	50	127
205.18235827664398	207.22571428571428	55	127
205.18235827664398	207.22571428571428	38	127
207.24893424036281	207.9107029478458	38	127
207.24893424036281	207.9107029478458	79	127
207.24893424036281	207.9107029478458	65	127
207.24893424036281	207.9107029478458	71	127
207.24893424036281	207.9107029478458	50	127
207.24893424036281	207.9107029478458	55	127
207.24893424036281	207.9107029478458	43	127
208.27061224489796	211.60267573696146	36	127
208.27061224489796	211.60267573696146	88	127
208.27061224489796	211.60267573696146	64	127
208.27061224489796	211.60267573696146	76	127
208.27061224489796	211.60267573696146	48	127
208.27061224489796	211.60267573696146	55	127
208.27061224489796	211.60267573696146	43	127
211.62589569160997	212.33410430839	55	127
211.62589569160997	212.33410430839	88	127
211.62589569160997	212.33410430839	72	127
211.62589569160997	212.33410430839	76	127
211.62589569160997	212.33410430839	48	127
211.62589569160997	212.33410430839	36	127
211.62589569160997	212.33410430839	43	127
212.68240362811792	214.6909297052154	43	127
212.68240362811792	214.6909297052154	86	127
212.68240362811792	214.6909297052154	71	127
212.68240362811792	214.6909297052154	79	127
212.68240362811792	214.6909297052154	50	127
212.68240362811792	214.6909297052154	59	127
212.68240362811792	214.6909297052154	41	127
214.71414965986395	215.37591836734694	41	127
214.71414965986395	215.37591836734694	86	127
214.71414965986395	215.37591836734694	71	127
214.71414965986395	215.37591836734694	79	127
214.71414965986395	215.37591836734694	50	127
214.71414965986395	215.37591836734694	59	127
214.71414965986395	215.37591836734694	43	127
215.72421768707483	219.3465306122449	55	127
215.72421768707483	218.06943310657596	91	127
215.72421768707483	218.06943310657596	72	127
215.72421768707483	218.06943310657596	79	127
215.72421768707483	218.06943310657596	40	127
215.72421768707483	218.06943310657596	43	127
215.72421768707483	219.3465306122449	48	127
218.06943310657596	219.55551020408163	64	127
218.06943310657596	219.55551020408163	60	127
218.06943310657596	219.3465306122449	79	127
219.35814058956916	219.7877097505669	84	127
219.5671201814059	219.74126984126985	60	127
219.5671201814059	219.74126984126985	64	127
219.7877097505669	219.92702947845805	59	127
219.7877097505669	219.92702947845805	62	127
219.7877097505669	220.17083900226757	81	127
219.9734693877551	220.12439909297052	64	127
219.9734693877551	220.12439909297052	60	127
220.17083900226757	220.31015873015872	62	127
220.17083900226757	220.31015873015872	65	127
220.17083900226757	220.35659863945577	79	127
220.35659863945577	220.50752834467121	64	127
220.35659863945577	220.50752834467121	67	127
220.35659863945577	220.55396825396826	77	127
220.55396825396826	220.6932879818594	65	127
220.55396825396826	220.6932879818594	69	127
220.55396825396826	220.73972789115646	77	127
220.75133786848073	220.89065759637188	67	127
220.75133786848073	220.89065759637188	71	127
220.75133786848073	220.93709750566893	76	127
220.9487074829932	221.08802721088435	69	127
220.9487074829932	221.08802721088435	72	127
220.9487074829932	221.23895691609977	77	127
221.14607709750567	221.28539682539682	74	127
221.14607709750567	221.28539682539682	71	127
221.33183673469387	221.72657596371883	67	127
221.33183673469387	221.48276643990928	76	127
221.33183673469387	221.72657596371883	76	127
221.33183673469387	221.72657596371883	72	127
221.5408163265306	221.68013605442178	64	127
221.72657596371883	222.09809523809523	72	127
221.72657596371883	221.86589569160998	64	127
221.9239455782313	222.05165532879818	76	127
221.9239455782313	222.05165532879818	64	127
221.9239455782313	222.05165532879818	48	127
222.1097052154195	222.50444444444443	69	127
222.1097052154195	222.2374149659864	74	127
222.1097052154195	222.2374149659864	65	127
222.1097052154195	222.2374149659864	47	127
222.29546485260772	222.45800453514738	76	127
222.29546485260772	222.45800453514738	65	127
222.29546485260772	222.45800453514738	48	127
222.50444444444443	222.65537414965988	50	127
222.50444444444443	222.65537414965988	77	127
222.50444444444443	222.65537414965988	64	127
222.50444444444443	222.72503401360544	67	127
222.72503401360544	222.8643537414966	62	127
222.72503401360544	222.91079365079366	65	127
222.72503401360544	222.8643537414966	79	127
222.72503401360544	222.8643537414966	52	127
222.91079365079366	223.0501133786848	62	127
222.91079365079366	223.09655328798186	65	127
222.91079365079366	223.0501133786848	81	127
222.91079365079366	223.0501133786848	53	127
223.09655328798186	223.28231292517006	64	127
223.09655328798186	223.235873015873	83	127
223.09655328798186	223.235873015873	55	127
223.09655328798186	223.235873015873	60	127
223.29392290249433	223.42163265306124	57	127
223.29392290249433	223.41002267573697	83	127
223.29392290249433	223.42163265306124	60	127
223.29392290249433	223.57256235827666	65	127
223.41002267573697	223.54934240362812	84	127
223.47968253968253	223.63061224489795	59	127
223.47968253968253	223.63061224489795	79	127
223.54934240362812	223.67705215419502	86	127
223.67705215419502	224.04857142857142	79	127
223.67705215419502	223.81637188208617	60	127
223.67705215419502	224.04857142857142	64	127
223.67705215419502	224.04857142857142	88	127
223.86281179138322	224.00213151927437	60	127
224.04857142857142	224.43170068027212	84	127
224.04857142857142	224.1878911564626	60	127
224.23433106575965	224.38526077097507	84	127
224.23433106575965	224.38526077097507	64	127
224.23433106575965	224.38526077097507	60	127
224.43170068027212	224.80321995464854	81	127
224.43170068027212	224.57102040816326	83	127
224.43170068027212	224.57102040816326	62	127
224.43170068027212	224.57102040816326	60	127
224.62907029478458	224.75678004535146	84	127
224.62907029478458	224.75678004535146	64	127
224.62907029478458	224.75678004535146	60	127
224.88448979591837	225.02380952380952	60	127
224.88448979591837	225.02380952380952	86	127
224.88448979591837	225.02380952380952	65	127
224.88448979591837	225.0934693877551	79	127
225.0934693877551	225.26761904761904	67	127
225.0934693877551	225.26761904761904	88	127
225.0934693877551	225.26761904761904	59	127
225.0934693877551	225.3140589569161	77	127
225.3140589569161	225.4998185941043	77	127
225.3140589569161	225.45337868480726	89	127
225.3140589569161	225.45337868480726	69	127
225.3140589569161	225.45337868480726	57	127
225.4998185941043	225.65074829931973	55	127
225.4998185941043	225.65074829931973	91	127
225.4998185941043	225.65074829931973	71	127
225.4998185941043	225.69718820861678	76	127
225.69718820861678	225.8481179138322	53	127
225.69718820861678	225.8481179138322	93	127
225.69718820861678	225.8481179138322	72	127
225.69718820861678	225.99904761904762	77	127
225.90616780045352	226.05709750566893	74	127
225.90616780045352	226.05709750566893	95	127
225.90616780045352	226.05709750566893	52	127
226.11514739229025	226.39378684807255	48	127
226.11514739229025	226.39378684807255	96	127
226.11514739229025	226.39378684807255	76	127
226.11514739229025	226.39378684807255	55	127
226.11514739229025	226.39378684807255	67	127
226.45183673469387	226.49827664399092	77	127
226.49827664399092	226.9162358276644	73	127
226.49827664399092	226.70725623582766	76	127
226.49827664399092	226.9162358276644	61	127
226.49827664399092	226.9162358276644	49	127
226.70725623582766	226.9162358276644	74	127
226.9162358276644	227.33419501133787	70	127
226.9162358276644	227.20648526077096	76	127
226.9162358276644	227.33419501133787	58	127
226.9162358276644	227.33419501133787	46	127
227.33419501133787	227.62444444444444	67	127
227.33419501133787	227.62444444444444	55	127
227.33419501133787	227.62444444444444	43	127
227.67088435374149	227.71732426303853	65	127
227.71732426303853	228.22816326530614	58	127
227.71732426303853	228.0191836734694	64	127
227.71732426303853	228.22816326530614	67	127
227.71732426303853	228.22816326530614	61	127
228.03079365079364	228.22816326530614	62	127
228.22816326530614	228.6112925170068	55	127
228.22816326530614	228.5184126984127	64	127
228.22816326530614	228.6112925170068	58	127
228.22816326530614	228.6112925170068	64	127
228.6112925170068	228.90154195011337	64	127
228.6112925170068	228.90154195011337	61	127
228.6112925170068	228.90154195011337	58	127
228.94798185941042	229.017641723356	77	127
229.017641723356	229.37755102040816	55	127
229.017641723356	229.19179138321996	76	127
229.017641723356	229.37755102040816	49	127
229.017641723356	229.37755102040816	67	127
229.19179138321996	229.37755102040816	74	127
229.38916099773243	229.79551020408164	61	127
229.38916099773243	229.70263038548754	76	127
229.38916099773243	229.79551020408164	73	127
229.38916099773243	229.79551020408164	46	127
229.8071201814059	230.12058956916098	60	127
229.8071201814059	230.12058956916098	72	127
229.8071201814059	230.12058956916098	44	127
230.1786394557823	230.2482993197279	79	127
230.2482993197279	230.70108843537415	68	127
230.2482993197279	230.4921088435374	77	127
230.2482993197279	230.70108843537415	56	127
230.2482993197279	230.70108843537415	72	127
230.4921088435374	230.70108843537415	76	127
230.70108843537415	231.10743764172335	68	127
230.70108843537415	230.9913378684807	77	127
230.70108843537415	231.10743764172335	60	127
230.70108843537415	231.10743764172335	65	127
231.10743764172335	231.43251700680273	41	127
231.10743764172335	231.43251700680273	65	127
231.10743764172335	231.43251700680273	53	127
231.47895691609978	231.52539682539683	79	127
231.52539682539683	231.9665759637188	60	127
231.52539682539683	231.75759637188207	77	127
231.52539682539683	231.9665759637188	48	127
231.52539682539683	231.9665759637188	72	127
231.75759637188207	231.9665759637188	76	127
231.9665759637188	232.3497052154195	56	127
231.9665759637188	232.2568253968254	77	127
231.9665759637188	232.3497052154195	68	127
231.9665759637188	232.3497052154195	44	127
232.36131519274377	232.63995464852607	41	127
232.36131519274377	232.63995464852607	65	127
232.36131519274377	232.63995464852607	53	127
232.6980045351474	232.74444444444444	67	127
232.74444444444444	233.17401360544218	60	127
232.74444444444444	232.98825396825396	65	127
232.74444444444444	233.17401360544218	72	127
232.74444444444444	233.17401360544218	68	127
232.98825396825396	233.17401360544218	64	127
233.18562358276645	233.5803628117914	56	127
233.18562358276645	233.46426303854875	65	127
233.18562358276645	233.5803628117914	77	127
233.18562358276645	233.5803628117914	65	127
233.5803628117914	233.88222222222223	53	127
233.5803628117914	233.88222222222223	80	127
233.5803628117914	233.88222222222223	60	127
233.9518820861678	234.0099319727891	79	127
234.0099319727891	234.40467120181407	48	127
234.0099319727891	234.2073015873016	77	127
234.0099319727891	234.40467120181407	44	127
234.0099319727891	234.40467120181407	84	127
234.21891156462584	234.40467120181407	76	127
234.40467120181407	234.77619047619046	56	127
234.40467120181407	234.68331065759637	77	127
234.40467120181407	234.77619047619046	80	127
234.40467120181407	234.77619047619046	41	127
234.77619047619046	235.06643990929706	40	127
234.77619047619046	235.06643990929706	79	127
234.77619047619046	235.06643990929706	49	127
234.77619047619046	235.06643990929706	58	127
235.1128798185941	235.15931972789116	80	127
235.15931972789116	235.6121088435374	70	127
235.15931972789116	235.41473922902495	79	127
235.15931972789116	235.6121088435374	61	127
235.15931972789116	235.6121088435374	64	127
235.41473922902495	235.6121088435374	77	127
235.62371882086168	235.9371882086168	79	127
235.62371882086168	236.0300680272109	61	127
235.62371882086168	236.0300680272109	67	127
235.62371882086168	236.0300680272109	58	127
236.06489795918367	236.38997732426304	55	127
236.06489795918367	236.38997732426304	55	127
236.06489795918367	236.38997732426304	67	127
236.06489795918367	236.38997732426304	39	127
236.44802721088436	236.4944671201814	80	127
236.4944671201814	236.88920634920635	61	127
236.4944671201814	236.69183673469388	79	127
236.4944671201814	236.88920634920635	49	127
236.4944671201814	236.88920634920635	73	127
236.69183673469388	236.88920634920635	77	127
236.88920634920635	237.29555555555555	58	127
236.88920634920635	237.19106575963718	79	127
236.88920634920635	237.29555555555555	70	127
236.88920634920635	237.29555555555555	46	127
237.29555555555555	237.62063492063493	39	127
237.29555555555555	237.62063492063493	67	127
237.29555555555555	237.62063492063493	55	127
237.66707482993198	237.71351473922903	68	127
237.71351473922903	238.0966439909297	58	127
237.71351473922903	237.89927437641722	67	127
237.71351473922903	238.0966439909297	61	127
237.71351473922903	238.0966439909297	76	127
237.9108843537415	238.0966439909297	65	127
238.0966439909297	238.50299319727893	75	127
238.0966439909297	238.50299319727893	63	127
238.0966439909297	238.4101133786848	67	127
238.0966439909297	238.50299319727893	61	127
238.50299319727893	238.82807256235827	73	127
238.50299319727893	238.82807256235827	67	127
238.50299319727893	238.82807256235827	64	127
238.87451247165532	238.93256235827664	80	127
238.93256235827664	239.2924716553288	49	127
238.93256235827664	239.1067120181406	79	127
238.93256235827664	239.2924716553288	64	127
239.1067120181406	239.2924716553288	77	127
239.2924716553288	239.71043083900227	61	127
239.2924716553288	239.57111111111112	79	127
239.2924716553288	239.71043083900227	51	127
239.71043083900227	240.0471201814059	52	127
239.71043083900227	240.0471201814059	58	127
240.1051700680272	240.15160997732426	82	127
240.15160997732426	240.6043990929705	48	127
240.15160997732426	240.38380952380953	80	127
240.15160997732426	240.6043990929705	51	127
240.15160997732426	240.6043990929705	60	127
240.39541950113377	240.6043990929705	79	127
240.6043990929705	240.99913832199547	51	127
240.6043990929705	240.90625850340135	80	127
240.6043990929705	240.99913832199547	56	127
240.6043990929705	240.99913832199547	48	127
240.99913832199547	241.3358276643991	44	127
240.99913832199547	241.3358276643991	60	127
240.99913832199547	241.3358276643991	51	127
241.38226757369614	241.4287074829932	82	127
241.4287074829932	241.81183673469388	51	127
241.4287074829932	241.61446712018142	80	127
241.4287074829932	241.81183673469388	75	127
241.4287074829932	241.81183673469388	63	127
241.61446712018142	241.81183673469388	79	127
241.82344671201815	242.28784580498865	48	127
241.82344671201815	242.1833560090703	80	127
241.82344671201815	242.28784580498865	72	127
241.82344671201815	242.28784580498865	60	127
242.29945578231292	242.5897052154195	44	127
242.29945578231292	242.5897052154195	68	127
242.29945578231292	242.5897052154195	56	127
242.6477551020408	242.69419501133788	70	127
242.69419501133788	243.1237641723356	60	127
242.69419501133788	242.91478458049886	68	127
242.69419501133788	243.1237641723356	63	127
242.69419501133788	243.1237641723356	68	127
242.91478458049886	243.1237641723356	67	127
243.1237641723356	243.48367346938775	56	127
243.1237641723356	243.39079365079365	68	127
243.1237641723356	243.48367346938775	63	127
243.1237641723356	243.48367346938775	60	127
243.48367346938775	243.76231292517008	56	127
243.48367346938775	243.76231292517008	60	127
243.48367346938775	243.76231292517008	51	127
243.80875283446713	243.85519274376418	82	127
243.85519274376418	244.2499319727891	60	127
243.85519274376418	244.05256235827665	80	127
243.85519274376418	244.2499319727891	48	127
243.85519274376418	244.2499319727891	63	127
244.06417233560092	244.2499319727891	79	127
244.2499319727891	244.64467120181405	51	127
244.2499319727891	244.64467120181405	72	127
244.2499319727891	244.54018140589568	80	127
244.2499319727891	244.64467120181405	44	127
244.64467120181405	244.93492063492064	52	127
244.64467120181405	244.93492063492064	73	127
244.64467120181405	244.93492063492064	43	127
244.9813605442177	245.039410430839	84	127
245.039410430839	245.4109297052154	43	127
245.039410430839	245.2251700680272	82	127
245.039410430839	245.4109297052154	55	127
245.039410430839	245.4109297052154	58	127
245.2251700680272	245.4109297052154	80	127
245.42253968253968	245.80566893424037	53	127
245.42253968253968	245.71278911564625	82	127
245.42253968253968	245.80566893424037	58	127
245.42253968253968	245.80566893424037	37	127
245.8172789115646	246.13074829931972	36	127
245.8172789115646	246.13074829931972	64	127
245.8172789115646	246.13074829931972	52	127
246.2004081632653	246.24684807256236	84	127
246.24684807256236	246.6764172335601	58	127
246.24684807256236	246.43260770975056	82	127
246.24684807256236	246.6764172335601	43	127
246.24684807256236	246.6764172335601	70	127
246.43260770975056	246.6764172335601	80	127
246.6764172335601	247.05954648526077	53	127
246.6764172335601	246.96666666666667	82	127
246.6764172335601	247.05954648526077	65	127
246.6764172335601	247.05954648526077	37	127
247.05954648526077	247.3614058956916	52	127
247.05954648526077	247.3614058956916	64	127
247.05954648526077	247.3614058956916	36	127
247.41945578231292	247.46589569160997	72	127
247.46589569160997	247.89546485260772	61	127
247.46589569160997	247.68648526077098	70	127
247.46589569160997	247.89546485260772	67	127
247.46589569160997	247.89546485260772	64	127
247.68648526077098	247.89546485260772	68	127
247.89546485260772	248.32503401360543	67	127
247.89546485260772	248.22054421768706	70	127
247.89546485260772	248.32503401360543	70	127
247.89546485260772	248.32503401360543	58	127
248.3366439909297	248.63850340136054	55	127
248.3366439909297	248.63850340136054	73	127
248.3366439909297	248.63850340136054	64	127
248.3366439909297	248.63850340136054	58	127
248.6849433106576	248.73138321995464	84	127
248.73138321995464	249.1261224489796	58	127
248.73138321995464	248.94036281179137	82	127
248.73138321995464	249.1261224489796	43	127
248.73138321995464	249.1261224489796	70	127
248.94036281179137	249.1261224489796	80	127
249.1261224489796	249.5324716553288	55	127
249.1261224489796	249.42798185941044	82	127
249.1261224489796	249.5324716553288	67	127
249.1261224489796	249.5324716553288	39	127
249.5324716553288	249.85755102040815	36	127
249.5324716553288	249.85755102040815	64	127
249.5324716553288	249.85755102040815	52	127
249.92721088435374	249.9736507936508	85	127
249.9736507936508	250.39160997732426	44	127
249.9736507936508	250.18263038548753	84	127
249.9736507936508	250.39160997732426	72	127
249.9736507936508	250.39160997732426	60	127
249.9736507936508	251.06498866213153	48	127
250.18263038548753	250.39160997732426	83	127
250.40321995464853	250.63541950113378	68	127
250.40321995464853	250.63541950113378	56	127
250.40321995464853	250.63541950113378	41	127
250.40321995464853	250.73990929705215	84	127
250.63541950113378	250.8560090702948	67	127
250.63541950113378	250.8560090702948	58	127
250.63541950113378	250.8560090702948	43	127
250.86761904761906	251.06498866213153	60	127
250.86761904761906	251.29718820861677	84	127
250.86761904761906	251.72675736961452	65	127
250.86761904761906	252.12149659863945	44	127
251.06498866213153	251.29718820861677	48	127
251.29718820861677	251.52938775510205	50	127
251.29718820861677	251.72675736961452	89	127
251.52938775510205	251.72675736961452	51	127
251.72675736961452	252.5162358276644	70	127
251.72675736961452	252.12149659863945	86	127
251.72675736961452	252.30725623582765	53	127
252.12149659863945	252.89936507936508	43	127
252.12149659863945	252.5162358276644	82	127
252.31886621315192	252.5162358276644	50	127
252.5162358276644	252.71360544217688	51	127
252.5162358276644	252.89936507936508	87	127
252.5162358276644	252.89936507936508	63	127
252.71360544217688	252.89936507936508	53	127
252.89936507936508	253.3057142857143	44	127
252.89936507936508	253.3057142857143	84	127
252.89936507936508	253.3057142857143	72	127
252.89936507936508	253.3057142857143	51	127
253.31732426303856	254.17646258503402	65	127
253.31732426303856	253.56113378684807	82	127
253.31732426303856	253.7701133786848	50	127
253.31732426303856	253.7701133786848	46	127
253.56113378684807	253.7701133786848	80	127
253.78172335600908	254.17646258503402	50	127
253.78172335600908	253.99070294784582	80	127
253.78172335600908	255.05882086167802	58	127
253.99070294784582	254.17646258503402	79	127
254.1880725623583	254.5015419501134	80	127
254.1880725623583	255.05882086167802	68	127
254.1880725623583	255.05882086167802	53	127
254.60603174603173	255.44195011337868	82	127
255.05882086167802	255.2445804988662	67	127
255.05882086167802	255.2445804988662	58	127
255.05882086167802	255.2445804988662	51	127
255.25619047619048	255.44195011337868	56	127
255.25619047619048	255.44195011337868	65	127
255.25619047619048	255.44195011337868	53	127
255.44195011337868	255.6277097505669	55	127
255.44195011337868	255.6277097505669	63	127
255.44195011337868	255.6277097505669	55	127
255.44195011337868	255.82507936507938	83	127
255.63931972789115	255.82507936507938	53	127
255.63931972789115	255.82507936507938	62	127
255.63931972789115	255.82507936507938	43	127
255.82507936507938	256.0340589569161	51	127
255.82507936507938	256.2198185941043	44	127
255.82507936507938	256.0340589569161	84	127
255.82507936507938	256.2198185941043	60	127
256.0340589569161	256.2198185941043	50	127
256.0340589569161	256.2198185941043	71	127
256.2198185941043	257.47369614512473	56	127
256.2198185941043	256.4520181405896	72	127
256.2198185941043	256.4520181405896	48	127
256.2198185941043	256.64938775510205	65	127
256.4520181405896	256.64938775510205	76	127
256.4520181405896	256.64938775510205	60	127
256.68419501133786	256.88156462585033	77	127
256.68419501133786	256.88156462585033	53	127
256.68419501133786	257.0789569160998	59	127
256.68419501133786	257.0789569160998	62	127
256.88156462585033	257.0789569160998	74	127
256.88156462585033	257.27632653061227	65	127
257.09054421768707	257.47369614512473	58	127
257.09054421768707	257.27632653061227	72	127
257.09054421768707	257.47369614512473	62	127
257.27632653061227	257.47369614512473	70	127
257.27632653061227	257.47369614512473	53	127
257.47369614512473	257.6710657596372	70	127
257.47369614512473	257.86843537414967	63	127
257.47369614512473	257.86843537414967	58	127
257.47369614512473	258.7043537414966	55	127
257.6710657596372	257.86843537414967	74	127
257.86843537414967	258.0774149659864	75	127
257.86843537414967	258.50698412698415	51	127
257.86843537414967	258.2747845804989	60	127
258.0890249433107	258.2747845804989	72	127
258.2747845804989	258.50698412698415	70	127
258.2747845804989	258.50698412698415	58	127
258.5185714285714	258.7043537414966	56	127
258.5185714285714	258.7043537414966	80	127
258.5185714285714	258.7043537414966	48	127
258.7043537414966	258.855283446712	80	127
258.7043537414966	258.855283446712	56	127
258.7043537414966	259.4590022675737	50	127
258.7043537414966	259.075873015873	53	127
258.8668934240363	259.075873015873	84	127
258.8668934240363	259.075873015873	55	127
259.075873015873	259.6679818594104	46	127
259.075873015873	259.2732426303855	82	127
259.075873015873	259.3661224489796	56	127
259.2732426303855	259.4590022675737	80	127
259.4590022675737	259.6679818594104	80	127
259.4590022675737	259.6679818594104	51	127
259.4590022675737	259.8421315192744	55	127
259.6679818594104	259.8421315192744	55	127
259.6679818594104	259.8421315192744	79	127
259.6679818594104	259.8421315192744	51	127
259.8537188208617	260.03950113378687	56	127
259.8537188208617	260.03950113378687	74	127
259.8537188208617	260.03950113378687	53	127
260.03950113378687	260.22526077097507	58	127
260.03950113378687	260.22526077097507	75	127
260.03950113378687	260.22526077097507	55	127
260.23687074829934	260.4342403628118	60	127
260.23687074829934	260.4342403628118	77	127
260.23687074829934	260.4342403628118	56	127
260.4342403628118	260.6664172335601	62	127
260.4342403628118	260.6664172335601	79	127
260.4342403628118	260.6664172335601	58	127
260.6664172335601	260.86380952380955	67	127
260.6664172335601	260.86380952380955	62	127
260.6664172335601	260.86380952380955	59	127
260.86380952380955	261.0727664399093	60	127
260.86380952380955	261.0727664399093	68	127
260.86380952380955	261.0727664399093	63	127
261.0727664399093	261.67650793650796	79	127
261.0727664399093	261.2585487528345	60	127
261.0727664399093	261.49072562358276	56	127
261.281746031746	261.49072562358276	64	127
261.49072562358276	262.14090702947846	68	127
261.49072562358276	261.67650793650796	65	127
261.68809523809523	261.8854875283447	77	127
261.68809523809523	261.8854875283447	62	127
261.8854875283447	262.14090702947846	60	127
261.8854875283447	262.14090702947846	60	127
262.1525170068027	262.3382766439909	58	127
262.1525170068027	262.3382766439909	67	127
262.1525170068027	262.3382766439909	62	127
262.3382766439909	262.9303854875283	77	127
262.3382766439909	262.5356462585034	58	127
262.3382766439909	262.73301587301586	55	127
262.5356462585034	262.73301587301586	62	127
262.7446258503401	263.4180045351474	67	127
262.7446258503401	262.9303854875283	63	127
262.9303854875283	263.1974149659864	75	127
262.9303854875283	263.1974149659864	60	127
263.2090249433107	263.4180045351474	58	127
263.2090249433107	263.4180045351474	58	127
263.2090249433107	263.6153741496599	63	127
263.4180045351474	263.6153741496599	60	127
263.4180045351474	263.6153741496599	65	127
263.4180045351474	263.6153741496599	56	127
263.62698412698415	264.6022222222222	65	127
263.62698412698415	263.81274376417235	56	127
263.62698412698415	264.21909297052156	75	127
263.62698412698415	264.21909297052156	60	127
263.62698412698415	264.21909297052156	63	127
263.81274376417235	264.0217233560091	55	127
264.0217233560091	264.21909297052156	56	127
264.21909297052156	264.416462585034	57	127
264.21909297052156	264.416462585034	75	127
264.21909297052156	264.416462585034	60	127
264.416462585034	264.6022222222222	58	127
264.416462585034	264.6022222222222	74	127
264.416462585034	264.6022222222222	58	127
264.6138321995465	264.82281179138323	60	127
264.6138321995465	264.82281179138323	75	127
264.6138321995465	264.82281179138323	56	127
264.6138321995465	265.0201814058957	65	127
264.82281179138323	265.0201814058957	55	127
264.82281179138323	265.0201814058957	77	127
264.82281179138323	265.0201814058957	62	127
265.03179138321997	265.21755102040817	53	127
265.03179138321997	265.21755102040817	67	127
265.03179138321997	265.21755102040817	79	127
265.03179138321997	265.21755102040817	63	127
265.21755102040817	265.41492063492063	65	127
265.21755102040817	265.41492063492063	68	127
265.21755102040817	265.41492063492063	51	127
265.21755102040817	265.41492063492063	80	127
265.41492063492063	265.58907029478456	49	127
265.41492063492063	265.58907029478456	70	127
265.41492063492063	265.58907029478456	82	127
265.41492063492063	265.58907029478456	67	127
265.58907029478456	266.35532879818595	72	127
265.58907029478456	265.7864172335601	48	127
265.58907029478456	265.960589569161	84	127
265.58907029478456	266.81972789115645	68	127
265.7864172335601	265.960589569161	52	127
265.9721995464853	266.16956916099775	53	127
266.16956916099775	266.35532879818595	52	127
266.3669387755102	266.63396825396825	53	127
266.3669387755102	266.81972789115645	70	127
266.63396825396825	266.81972789115645	50	127
266.63396825396825	266.81972789115645	65	127
266.8313378684807	268.0619954648526	67	127
266.8313378684807	267.0170975056689	58	127
266.8313378684807	267.0170975056689	51	127
266.8313378684807	267.22607709750565	70	127
267.0170975056689	267.22607709750565	62	127
267.0170975056689	267.22607709750565	50	127
267.22607709750565	267.44666666666666	63	127
267.22607709750565	267.44666666666666	51	127
267.22607709750565	267.6440362811791	79	127
267.44666666666666	267.6440362811791	50	127
267.44666666666666	267.6440362811791	62	127
267.6440362811791	267.85301587301586	63	127
267.6440362811791	267.85301587301586	51	127
267.6440362811791	268.0619954648526	75	127
267.86462585034013	268.0619954648526	60	127
267.86462585034013	268.0619954648526	48	127
268.0619954648526	268.2477551020408	67	127
268.0619954648526	268.2477551020408	75	127
268.0619954648526	268.2477551020408	58	127
268.0619954648526	268.45673469387754	58	127
268.25936507936507	268.45673469387754	65	127
268.25936507936507	268.45673469387754	68	127
268.25936507936507	268.45673469387754	74	127
268.45673469387754	268.874693877551	58	127
268.45673469387754	268.65410430839	74	127
268.45673469387754	268.65410430839	68	127
268.45673469387754	268.65410430839	65	127
268.65410430839	268.874693877551	75	127
268.65410430839	268.874693877551	67	127
268.65410430839	268.874693877551	63	127
268.874693877551	269.08367346938775	65	127
268.874693877551	269.17655328798185	62	127
268.874693877551	269.4784126984127	77	127
268.874693877551	269.26943310657595	58	127
269.08367346938775	269.26943310657595	68	127
269.2810430839002	269.4784126984127	68	127
269.2810430839002	269.43197278911566	51	127
269.2810430839002	269.43197278911566	58	127
269.2810430839002	269.58290249433105	63	127
269.4784126984127	269.6873922902494	67	127
269.4784126984127	269.62934240362813	51	127
269.4784126984127	269.62934240362813	58	127
269.4784126984127	269.6873922902494	75	127
269.6990022675737	270.02408163265306	39	127
269.6990022675737	269.84993197278914	51	127
269.6990022675737	269.84993197278914	58	127
269.6990022675737	269.9079818594104	58	127
269.6990022675737	269.9079818594104	67	127
269.6990022675737	270.02408163265306	43	127
269.9079818594104	270.07049886621314	58	127
269.9079818594104	270.07049886621314	63	127
269.9079818594104	270.07049886621314	51	127
269.9079818594104	270.07049886621314	55	127
269.9079818594104	270.07049886621314	70	127
270.12857142857143	270.2678911564626	51	127
270.12857142857143	270.2678911564626	55	127
270.12857142857143	271.3243990929705	63	127
270.12857142857143	270.2678911564626	70	127
270.12857142857143	270.2678911564626	58	127
270.12857142857143	270.2678911564626	63	127
270.31433106575963	270.4536507936508	70	127
270.31433106575963	270.4536507936508	58	127
270.31433106575963	270.4536507936508	63	127
270.31433106575963	270.4536507936508	51	127
270.31433106575963	270.4536507936508	55	127
270.5117006802721	270.66263038548755	70	127
270.5117006802721	270.66263038548755	58	127
270.5117006802721	270.66263038548755	63	127
270.5117006802721	270.66263038548755	51	127
270.5117006802721	270.66263038548755	55	127
270.7322902494331	270.8716099773243	58	127
270.7322902494331	270.8716099773243	70	127
270.7322902494331	270.8716099773243	63	127
270.7322902494331	270.8716099773243	51	127
270.7322902494331	270.8716099773243	55	127
270.9180498866213	271.0573696145125	70	127
270.9180498866213	271.0573696145125	58	127
270.9180498866213	271.0573696145125	63	127
270.9180498866213	271.0573696145125	51	127
270.9180498866213	271.0573696145125	55	127
271.1154195011338	271.2663492063492	70	127
271.1154195011338	271.2663492063492	58	127
271.1154195011338	271.2663492063492	63	127
271.1154195011338	271.2663492063492	51	127
271.1154195011338	271.2663492063492	55	127
271.3243990929705	271.4985487528345	65	127
271.3243990929705	271.4637188208617	58	127
271.3243990929705	271.4637188208617	63	127
271.3243990929705	271.4637188208617	51	127
271.3243990929705	271.4637188208617	55	127
271.3243990929705	271.4985487528345	70	127
271.51013605442176	271.6494784580499	58	127
271.51013605442176	271.6494784580499	51	127
271.51013605442176	271.6494784580499	55	127
271.51013605442176	271.69591836734696	63	127
271.51013605442176	271.69591836734696	67	127
271.69591836734696	271.8352380952381	56	127
271.69591836734696	272.5434467120181	70	127
271.69591836734696	271.8352380952381	56	127
271.69591836734696	271.8352380952381	62	127
271.69591836734696	271.8352380952381	58	127
271.69591836734696	271.8352380952381	53	127
271.89328798185943	272.03260770975055	56	127
271.89328798185943	272.03260770975055	62	127
271.89328798185943	272.03260770975055	58	127
271.89328798185943	272.03260770975055	53	127
271.89328798185943	272.03260770975055	56	127
272.11385487528344	272.29963718820864	62	127
272.11385487528344	272.29963718820864	56	127
272.11385487528344	272.29963718820864	58	127
272.11385487528344	272.29963718820864	53	127
272.11385487528344	272.29963718820864	56	127
272.3576870748299	272.4970068027211	62	127
272.3576870748299	272.4970068027211	58	127
272.3576870748299	272.4970068027211	53	127
272.3576870748299	272.4970068027211	56	127
272.3576870748299	272.4970068027211	56	127
272.5550566893424	272.78725623582767	68	127
272.5550566893424	272.7408163265306	56	127
272.5550566893424	272.7408163265306	56	127
272.5550566893424	272.7408163265306	62	127
272.5550566893424	272.7408163265306	58	127
272.5550566893424	272.7408163265306	53	127
272.78725623582767	272.92657596371885	56	127
272.78725623582767	272.92657596371885	56	127
272.78725623582767	272.92657596371885	62	127
272.78725623582767	272.92657596371885	58	127
272.78725623582767	272.92657596371885	53	127
272.78725623582767	272.97301587301587	67	127
272.98462585034014	273.1239455782313	50	127
272.98462585034014	273.1239455782313	56	127
272.98462585034014	273.1239455782313	65	127
272.98462585034014	273.1239455782313	58	127
272.98462585034014	273.17038548752834	67	127
273.17038548752834	273.3445124716553	65	127
273.17038548752834	273.29809523809524	56	127
273.17038548752834	273.29809523809524	65	127
273.17038548752834	273.29809523809524	58	127
273.17038548752834	273.29809523809524	50	127
273.35614512471653	273.5302947845805	63	127
273.35614512471653	273.48385487528344	56	127
273.35614512471653	273.48385487528344	65	127
273.35614512471653	273.48385487528344	58	127
273.35614512471653	273.48385487528344	50	127
273.5302947845805	273.6579818594104	50	127
273.5302947845805	273.6579818594104	56	127
273.5302947845805	273.6579818594104	65	127
273.5302947845805	273.6579818594104	58	127
273.5302947845805	273.70444444444445	62	127
273.70444444444445	273.8437641723356	50	127
273.70444444444445	273.8437641723356	56	127
273.70444444444445	273.8437641723356	65	127
273.70444444444445	273.8437641723356	58	127
273.70444444444445	273.89020408163265	60	127
273.9018140589569	274.0411337868481	50	127
273.9018140589569	274.0411337868481	56	127
273.9018140589569	274.0411337868481	65	127
273.9018140589569	274.0411337868481	58	127
273.9018140589569	274.0991836734694	58	127
274.0991836734694	274.2268934240363	55	127
274.0991836734694	274.2268934240363	55	127
274.0991836734694	274.2268934240363	67	127
274.0991836734694	274.2268934240363	58	127
274.0991836734694	274.2268934240363	63	127
274.0991836734694	274.2268934240363	51	127
274.0991836734694	274.27331065759637	56	127
274.2849433106576	274.42426303854876	63	127
274.2849433106576	274.42426303854876	70	127
274.2849433106576	274.42426303854876	58	127
274.2849433106576	274.42426303854876	51	127
274.2849433106576	274.42426303854876	55	127
274.2849433106576	274.47068027210884	55	127
274.47068027210884	274.6796598639456	53	127
274.47068027210884	274.6332426303855	58	127
274.47068027210884	274.6332426303855	63	127
274.47068027210884	274.6332426303855	51	127
274.47068027210884	274.6332426303855	72	127
274.47068027210884	274.6332426303855	55	127
274.6912925170068	274.8190022675737	55	127
274.6912925170068	274.8190022675737	74	127
274.6912925170068	274.8190022675737	58	127
274.6912925170068	274.8190022675737	63	127
274.6912925170068	274.8190022675737	51	127
274.6912925170068	274.87702947845804	51	127
274.87702947845804	276.0496598639456	75	127
274.87702947845804	275.01637188208616	58	127
274.87702947845804	275.01637188208616	63	127
274.87702947845804	275.01637188208616	51	127
274.87702947845804	275.01637188208616	55	127
274.87702947845804	275.0860090702948	49	127
275.0860090702948	275.2253514739229	58	127
275.0860090702948	275.2253514739229	63	127
275.0860090702948	275.2253514739229	51	127
275.0860090702948	275.2253514739229	55	127
275.0860090702948	275.28337868480725	48	127
275.28337868480725	275.492358276644	46	127
275.28337868480725	275.4459410430839	58	127
275.28337868480725	275.4459410430839	63	127
275.28337868480725	275.4459410430839	51	127
275.28337868480725	275.4459410430839	55	127
275.492358276644	275.6317006802721	63	127
275.492358276644	275.6317006802721	51	127
275.492358276644	275.6317006802721	55	127
275.492358276644	275.6317006802721	58	127
275.492358276644	275.6665306122449	44	127
275.6781405895692	275.8174603174603	58	127
275.6781405895692	275.8174603174603	63	127
275.6781405895692	275.8174603174603	51	127
275.6781405895692	275.8174603174603	55	127
275.6781405895692	275.8522902494331	43	127
275.8522902494331	275.9916099773243	55	127
275.8522902494331	275.9916099773243	58	127
275.8522902494331	275.9916099773243	63	127
275.8522902494331	275.9916099773243	51	127
275.8522902494331	276.0496598639456	41	127
276.06126984126985	276.2354195011338	39	127
276.06126984126985	276.18897959183676	58	127
276.06126984126985	276.18897959183676	63	127
276.06126984126985	276.18897959183676	51	127
276.06126984126985	276.18897959183676	55	127
276.06126984126985	276.2354195011338	77	127
276.2354195011338	276.4443990929705	79	127
276.2354195011338	276.3863492063492	58	127
276.2354195011338	276.3863492063492	63	127
276.2354195011338	276.4443990929705	37	127
276.2354195011338	276.3863492063492	51	127
276.2354195011338	276.3863492063492	55	127
276.4443990929705	276.6301587301587	36	127
276.4443990929705	276.5837188208617	60	127
276.4443990929705	276.5837188208617	63	127
276.4443990929705	276.5837188208617	51	127
276.4443990929705	276.5837188208617	56	127
276.4443990929705	277.19904761904763	82	127
276.6301587301587	276.78108843537416	63	127
276.6301587301587	276.78108843537416	56	127
276.6301587301587	276.82750566893424	48	127
276.6301587301587	276.78108843537416	60	127
276.6301587301587	276.78108843537416	51	127
276.82750566893424	276.96684807256236	63	127
276.82750566893424	276.96684807256236	51	127
276.82750566893424	276.96684807256236	60	127
276.82750566893424	276.96684807256236	56	127
276.82750566893424	277.01328798185943	48	127
277.0248752834467	277.15260770975055	60	127
277.0248752834467	277.15260770975055	63	127
277.0248752834467	277.15260770975055	51	127
277.0248752834467	277.15260770975055	56	127
277.0248752834467	277.15260770975055	60	127
277.19904761904763	277.32675736961454	63	127
277.19904761904763	278.36002267573696	68	127
277.19904761904763	277.32675736961454	60	127
277.19904761904763	277.32675736961454	60	127
277.19904761904763	278.16267573696143	80	127
277.38480725623583	277.5473469387755	63	127
277.38480725623583	277.5473469387755	60	127
277.38480725623583	277.5473469387755	60	127
277.59378684807257	277.73310657596375	63	127
277.59378684807257	277.73310657596375	60	127
277.59378684807257	277.73310657596375	60	127
277.79115646258504	277.91886621315194	60	127
277.79115646258504	277.91886621315194	60	127
277.79115646258504	277.91886621315194	63	127
277.96530612244896	278.10462585034014	60	127
277.96530612244896	278.10462585034014	63	127
277.96530612244896	278.10462585034014	60	127
278.16267573696143	278.3136054421769	63	127
278.16267573696143	278.3136054421769	60	127
278.16267573696143	278.36002267573696	60	127
278.16267573696143	278.3136054421769	60	127
278.37165532879817	278.5806349206349	70	127
278.37165532879817	278.5806349206349	58	127
278.37165532879817	278.5341950113379	60	127
278.37165532879817	278.5341950113379	63	127
278.37165532879817	278.5341950113379	60	127
278.5806349206349	278.73156462585035	60	127
278.5806349206349	278.73156462585035	60	127
278.5806349206349	278.73156462585035	63	127
278.5806349206349	278.7780045351474	56	127
278.5806349206349	278.7780045351474	72	127
278.78961451247164	278.9289342403628	55	127
278.78961451247164	278.9289342403628	63	127
278.78961451247164	278.9289342403628	61	127
278.78961451247164	279.5326530612245	75	127
278.78961451247164	278.9289342403628	58	127
278.9753514739229	279.10308390022675	55	127
278.9753514739229	279.10308390022675	63	127
278.9753514739229	279.10308390022675	61	127
278.9753514739229	279.10308390022675	58	127
279.1611337868481	279.3004535147392	63	127
279.1611337868481	279.3004535147392	55	127
279.1611337868481	279.3004535147392	61	127
279.1611337868481	279.3004535147392	58	127
279.335283446712	279.4745804988662	63	127
279.335283446712	279.4745804988662	55	127
279.335283446712	279.4745804988662	61	127
279.335283446712	279.4745804988662	58	127
279.5326530612245	280.68204081632655	75	127
279.5326530612245	279.67197278911567	55	127
279.5326530612245	279.67197278911567	63	127
279.5326530612245	279.7184126984127	73	127
279.5326530612245	279.7184126984127	58	127
279.7184126984127	279.86934240362814	56	127
279.7184126984127	279.86934240362814	63	127
279.7184126984127	279.91578231292516	72	127
279.7184126984127	279.91578231292516	56	127
279.91578231292516	280.05510204081634	58	127
279.91578231292516	280.05510204081634	63	127
279.91578231292516	280.10154195011336	72	127
279.91578231292516	280.10154195011336	56	127
280.1131519274376	280.2524716553288	58	127
280.1131519274376	280.2524716553288	63	127
280.1131519274376	280.2524716553288	70	127
280.1131519274376	280.2524716553288	55	127
280.2988888888889	280.438231292517	58	127
280.2988888888889	280.438231292517	63	127
280.2988888888889	280.438231292517	68	127
280.2988888888889	280.438231292517	53	127
280.49628117913835	280.63560090702947	63	127
280.49628117913835	280.63560090702947	58	127
280.49628117913835	280.63560090702947	67	127
280.49628117913835	280.63560090702947	51	127
280.68204081632655	280.8561904761905	77	127
280.68204081632655	280.80972789115646	58	127
280.68204081632655	280.80972789115646	63	127
280.68204081632655	280.80972789115646	65	127
280.68204081632655	280.80972789115646	49	127
280.86780045351475	281.0303401360544	46	127
280.86780045351475	281.0303401360544	58	127
280.86780045351475	281.0303401360544	63	127
280.86780045351475	281.0303401360544	61	127
280.86780045351475	281.0767800453515	79	127
281.0767800453515	281.90108843537416	82	127
281.0767800453515	281.2277097505669	60	127
281.0767800453515	281.2277097505669	63	127
281.0767800453515	281.2277097505669	60	127
281.0767800453515	281.2277097505669	44	127
281.2973696145125	281.4482993197279	60	127
281.2973696145125	281.4482993197279	63	127
281.2973696145125	281.4482993197279	51	127
281.2973696145125	281.4482993197279	60	127
281.2973696145125	281.4482993197279	43	127
281.5063492063492	281.6572789115646	60	127
281.5063492063492	281.6572789115646	63	127
281.5063492063492	281.6572789115646	51	127
281.5063492063492	281.6572789115646	60	127
281.5063492063492	281.6572789115646	43	127
281.7037188208617	281.8546485260771	43	127
281.7037188208617	281.8546485260771	60	127
281.7037188208617	281.8546485260771	63	127
281.7037188208617	281.8546485260771	51	127
281.7037188208617	281.8546485260771	60	127
281.91269841269843	282.05201814058955	60	127
281.91269841269843	283.0620634920635	68	127
281.91269841269843	282.05201814058955	51	127
281.91269841269843	282.2609977324263	80	127
281.91269841269843	282.05201814058955	43	127
282.0752380952381	282.21455782312927	51	127
282.0752380952381	282.21455782312927	43	127
282.0752380952381	282.21455782312927	60	127
282.28421768707483	283.5148752834467	78	127
282.28421768707483	282.423537414966	51	127
282.28421768707483	282.423537414966	56	127
282.28421768707483	282.423537414966	43	127
282.469977324263	282.6092970521542	44	127
282.469977324263	282.6092970521542	54	127
282.469977324263	282.6092970521542	39	127
282.6673469387755	282.81827664399094	44	127
282.6673469387755	282.81827664399094	39	127
282.6673469387755	282.81827664399094	54	127
282.86471655328796	283.0156462585034	39	127
282.86471655328796	283.0156462585034	44	127
282.86471655328796	283.0156462585034	54	127
283.0620634920635	283.2362358276644	39	127
283.0620634920635	283.2362358276644	54	127
283.0620634920635	283.28267573696144	70	127
283.0620634920635	283.2362358276644	44	127
283.2942857142857	283.4568253968254	44	127
283.2942857142857	283.4568253968254	48	127
283.2942857142857	283.4568253968254	56	127
283.2942857142857	283.4568253968254	39	127
283.2942857142857	283.5148752834467	72	127
283.5148752834467	285.0125623582766	77	127
283.5148752834467	283.6541950113379	56	127
283.5148752834467	283.6541950113379	49	127
283.5148752834467	283.6541950113379	44	127
283.5148752834467	283.6541950113379	37	127
283.5148752834467	283.7006349206349	75	127
283.72385487528345	283.8747619047619	73	127
283.72385487528345	283.8747619047619	56	127
283.72385487528345	283.8747619047619	49	127
283.72385487528345	283.8747619047619	44	127
283.72385487528345	283.8747619047619	37	127
283.90961451247165	284.0489342403628	72	127
283.90961451247165	284.0489342403628	56	127
283.90961451247165	284.0489342403628	49	127
283.90961451247165	284.0489342403628	44	127
283.90961451247165	284.0489342403628	37	127
284.1069841269841	284.2463038548753	70	127
284.1069841269841	284.2463038548753	58	127
284.1069841269841	284.2463038548753	49	127
284.1069841269841	284.2463038548753	46	127
284.1069841269841	284.2463038548753	37	127
284.2927437641723	284.4204535147392	76	127
284.2927437641723	284.4204535147392	58	127
284.2927437641723	284.4204535147392	49	127
284.2927437641723	284.4204535147392	46	127
284.2927437641723	284.4204535147392	38	127
284.44367346938776	284.57138321995467	38	127
284.44367346938776	284.57138321995467	77	127
284.44367346938776	284.57138321995467	58	127
284.44367346938776	284.57138321995467	49	127
284.44367346938776	284.57138321995467	46	127
284.62943310657596	284.76875283446714	51	127
284.62943310657596	284.76875283446714	46	127
284.62943310657596	284.76875283446714	39	127
284.62943310657596	284.8268027210884	77	127
284.62943310657596	284.76875283446714	58	127
284.8268027210884	284.9661224489796	75	127
284.8268027210884	284.9661224489796	58	127
284.8268027210884	284.9661224489796	51	127
284.8268027210884	284.9661224489796	46	127
284.8268027210884	284.9661224489796	39	127
285.0241723356009	286.2315873015873	79	127
285.0241723356009	285.1634920634921	73	127
285.0241723356009	285.1634920634921	58	127
285.0241723356009	285.1634920634921	51	127
285.0241723356009	285.1634920634921	46	127
285.0241723356009	285.1634920634921	39	127
285.22154195011336	285.3840816326531	72	127
285.22154195011336	285.3840816326531	60	127
285.22154195011336	285.3840816326531	51	127
285.22154195011336	285.3840816326531	48	127
285.22154195011336	285.3840816326531	39	127
285.44213151927437	285.6046712018141	70	127
285.44213151927437	285.6046712018141	62	127
285.44213151927437	285.6046712018141	51	127
285.44213151927437	285.6046712018141	39	127
285.44213151927437	285.6046712018141	50	127
285.6511111111111	285.7904308390023	43	127
285.6511111111111	285.7904308390023	75	127
285.6511111111111	285.7904308390023	55	127
285.6511111111111	285.7904308390023	51	127
285.6511111111111	285.7904308390023	39	127
285.8484807256236	285.98780045351475	48	127
285.8484807256236	285.98780045351475	55	127
285.8484807256236	285.98780045351475	39	127
285.8484807256236	286.0342403628118	73	127
286.04585034013604	286.1851700680272	72	127
286.04585034013604	286.1851700680272	60	127
286.04585034013604	286.1851700680272	48	127
286.04585034013604	286.1851700680272	39	127
286.2315873015873	287.40421768707483	80	127
286.2315873015873	286.3709297052154	70	127
286.2315873015873	286.3709297052154	60	127
286.2315873015873	286.3709297052154	48	127
286.2315873015873	286.3709297052154	41	127
286.42895691609976	286.5915192743764	60	127
286.42895691609976	286.5915192743764	68	127
286.42895691609976	286.5915192743764	48	127
286.42895691609976	286.5915192743764	41	127
286.6379365079365	286.7772789115646	76	127
286.6379365079365	286.7772789115646	53	127
286.6379365079365	286.7772789115646	38	127
286.6379365079365	286.7772789115646	58	127
286.83532879818597	286.9746485260771	58	127
286.83532879818597	286.9746485260771	53	127
286.83532879818597	286.9746485260771	38	127
286.83532879818597	286.9746485260771	77	127
287.02108843537417	287.21845804988664	50	127
287.02108843537417	287.21845804988664	58	127
287.02108843537417	287.21845804988664	38	127
287.02108843537417	287.21845804988664	77	127
287.21845804988664	287.40421768707483	60	127
287.21845804988664	287.3577551020408	75	127
287.21845804988664	287.3577551020408	51	127
287.21845804988664	287.3577551020408	39	127
287.40421768707483	287.543537414966	82	127
287.40421768707483	287.543537414966	73	127
287.40421768707483	287.543537414966	51	127
287.40421768707483	287.543537414966	39	127
287.40421768707483	287.58997732426303	55	127
287.6015873015873	287.7409070294785	72	127
287.6015873015873	287.7409070294785	84	127
287.6015873015873	287.7409070294785	51	127
287.6015873015873	287.7409070294785	39	127
287.6015873015873	287.79895691609977	56	127
287.79895691609977	287.9498866213152	70	127
287.79895691609977	287.9498866213152	85	127
287.79895691609977	287.9498866213152	51	127
287.79895691609977	287.9498866213152	39	127
287.79895691609977	287.99632653061224	58	127
288.0079365079365	288.1472562358277	75	127
288.0079365079365	288.1472562358277	55	127
288.0079365079365	288.205306122449	63	127
288.0079365079365	288.205306122449	51	127
288.205306122449	288.646485260771	56	127
288.205306122449	288.646485260771	56	127
288.205306122449	288.646485260771	44	127
289.1108843537415	289.26181405895693	84	127
289.1108843537415	289.26181405895693	72	127
289.3198639455782	289.47079365079367	85	127
289.3198639455782	289.47079365079367	73	127
289.5172335600907	289.71460317460316	85	127
289.5172335600907	289.71460317460316	73	127
289.7262131519274	289.8074603174603	84	127
289.7262131519274	289.8074603174603	72	127
289.8655328798186	290.0048299319728	70	127
289.8655328798186	290.0048299319728	82	127
290.06290249433107	290.2138095238095	80	127
290.06290249433107	290.2138095238095	68	127
290.26027210884354	290.3995918367347	79	127
290.26027210884354	290.3995918367347	67	127
290.44603174603174	290.5853514739229	84	127
290.44603174603174	290.5853514739229	72	127
290.6434013605442	290.898820861678	77	127
290.6434013605442	290.898820861678	65	127
291.0265306122449	291.32839002267576	82	127
291.0265306122449	291.32839002267576	70	127
291.4677097505669	291.73473922902497	64	127
291.4677097505669	291.73473922902497	76	127
291.4677097505669	291.73473922902497	67	127
291.8624489795918	292.6867573696145	48	127
291.8624489795918	292.15267573696144	68	127
291.8624489795918	292.15267573696144	80	127
291.8624489795918	292.15267573696144	65	127
292.30362811791383	292.48938775510203	68	127
292.30362811791383	292.48938775510203	65	127
292.30362811791383	292.5474376417234	74	127
292.5009977324263	292.6867573696145	70	127
292.5009977324263	292.6867573696145	67	127
292.6867573696145	292.8609070294785	79	127
292.6867573696145	292.8609070294785	70	127
292.6867573696145	292.8609070294785	67	127
292.6867573696145	292.8609070294785	46	127
292.8609070294785	293.0466666666667	77	127
292.8609070294785	293.0466666666667	72	127
292.8609070294785	293.0466666666667	68	127
292.8609070294785	293.0466666666667	44	127
293.0466666666667	293.3136961451247	76	127
293.0466666666667	293.3136961451247	72	127
293.0466666666667	293.3136961451247	70	127
293.0466666666667	293.3136961451247	43	127
293.4414058956916	293.70843537414964	77	127
293.4414058956916	293.70843537414964	72	127
293.4414058956916	293.70843537414964	68	127
293.4414058956916	293.70843537414964	41	127
293.83614512471655	293.97546485260773	71	127
293.83614512471655	293.97546485260773	59	127
294.033514739229	294.1612244897959	72	127
294.033514739229	294.1612244897959	60	127
294.2308843537415	294.42825396825396	72	127
294.2308843537415	294.42825396825396	60	127
294.42825396825396	294.56757369614513	70	127
294.42825396825396	294.56757369614513	58	127
294.6139909297052	294.7649433106576	68	127
294.6139909297052	294.7649433106576	56	127
294.8113605442177	294.96231292517007	67	127
294.8113605442177	294.96231292517007	55	127
295.0203401360544	295.136462585034	65	127
295.0203401360544	295.136462585034	53	127
295.19451247165534	295.32219954648525	70	127
295.19451247165534	295.32219954648525	58	127
295.38027210884354	295.56603174603174	72	127
295.38027210884354	295.6124716553288	63	127
295.38027210884354	295.6124716553288	51	127
295.56603174603174	295.69374149659865	70	127
295.75179138321994	295.8911111111111	68	127
295.75179138321994	296.018820861678	68	127
295.75179138321994	296.018820861678	56	127
295.9491609977324	296.10009070294785	67	127
296.15814058956914	296.3090702947846	65	127
296.15814058956914	296.4251700680272	62	127
296.15814058956914	296.4251700680272	50	127
296.35548752834467	296.50643990929706	70	127
296.55285714285714	296.81990929705216	55	127
296.55285714285714	296.81990929705216	67	127
296.55285714285714	297.1565986394558	51	127
296.55285714285714	297.36557823129255	82	127
296.95920634920634	297.23786848072564	48	127
296.95920634920634	297.23786848072564	60	127
297.1565986394558	297.36557823129255	48	127
297.36557823129255	297.562947845805	80	127
297.36557823129255	297.562947845805	65	127
297.36557823129255	297.562947845805	50	127
297.36557823129255	297.562947845805	53	127
297.5745351473923	297.8067573696145	79	127
297.5745351473923	297.8067573696145	63	127
297.5745351473923	297.8067573696145	51	127
297.5745351473923	297.8067573696145	51	127
297.81836734693877	298.05056689342405	79	127
297.81836734693877	298.05056689342405	56	127
297.81836734693877	298.05056689342405	62	127
297.81836734693877	298.05056689342405	53	127
297.81836734693877	298.05056689342405	51	127
298.05056689342405	298.45691609977325	51	127
298.05056689342405	298.2595464852608	77	127
298.05056689342405	298.45691609977325	74	127
298.05056689342405	298.45691609977325	53	127
298.2595464852608	298.45691609977325	68	127
298.4685260770975	298.7007029478458	55	127
298.4685260770975	299.0374149659864	75	127
298.4685260770975	299.0374149659864	51	127
298.4685260770975	298.7007029478458	67	127
298.73555555555555	299.0374149659864	68	127
298.73555555555555	299.0374149659864	53	127
299.0374149659864	299.28122448979593	62	127
299.0374149659864	299.28122448979593	77	127
299.0374149659864	299.28122448979593	59	127
299.0374149659864	299.28122448979593	56	127
299.0374149659864	299.28122448979593	51	127
299.28122448979593	300.7556916099773	58	127
299.28122448979593	299.50181405895694	55	127
299.28122448979593	300.7556916099773	79	127
299.28122448979593	304.29673469387757	39	127
299.50181405895694	299.7572335600907	63	127
299.76884353741497	299.989433106576	62	127
299.989433106576	300.22163265306125	63	127
300.22163265306125	300.44219954648526	65	127
300.44219954648526	300.7556916099773	67	127
300.7673015873016	301.66124716553287	77	127
300.7673015873016	300.9762811791383	59	127
300.7673015873016	301.66124716553287	56	127
300.9878911564626	301.2084807256236	68	127
301.2084807256236	301.40585034013606	67	127
301.40585034013606	301.66124716553287	68	127
301.66124716553287	301.8934693877551	70	127
301.66124716553287	301.8934693877551	55	127
301.66124716553287	301.8934693877551	75	127
301.90507936507936	302.1024489795918	53	127
301.90507936507936	302.1024489795918	71	127
301.90507936507936	302.1024489795918	74	127
302.1024489795918	302.31142857142856	62	127
302.1024489795918	302.9383673469388	56	127
302.1024489795918	302.5204081632653	77	127
302.31142857142856	302.5204081632653	77	127
302.5204081632653	302.72938775510204	76	127
302.5204081632653	302.9383673469388	71	127
302.7409977324263	302.9383673469388	77	127
302.94997732426305	303.17056689342405	70	127
302.94997732426305	303.17056689342405	55	127
302.94997732426305	303.17056689342405	79	127
303.17056689342405	303.4608163265306	80	127
303.17056689342405	303.4608163265306	68	127
303.17056689342405	303.4608163265306	53	127
303.4608163265306	303.8787755102041	53	127
303.4608163265306	303.6581859410431	81	127
303.4608163265306	303.8787755102041	68	127
303.6814058956916	303.8787755102041	82	127
303.89038548752836	304.29673469387757	67	127
303.89038548752836	304.08775510204083	82	127
303.89038548752836	306.920589569161	51	127
304.08775510204083	304.29673469387757	84	127
304.29673469387757	304.7495238095238	68	127
304.29673469387757	304.7495238095238	41	127
304.29673469387757	304.5173242630386	84	127
304.52891156462584	304.7495238095238	82	127
304.7495238095238	305.2023129251701	82	127
304.7495238095238	305.2023129251701	70	127
304.7495238095238	306.06142857142856	43	127
305.2023129251701	305.65507936507936	87	127
305.2023129251701	305.65507936507936	58	127
305.65507936507936	306.06142857142856	86	127
305.65507936507936	306.06142857142856	59	127
306.06142857142856	306.4561904761905	86	127
306.06142857142856	308.22090702947844	44	127
306.06142857142856	307.5475283446712	60	127
306.4561904761905	306.920589569161	83	127
306.93219954648526	307.12956916099773	86	127
306.93219954648526	307.3269387755102	52	127
307.12956916099773	307.3269387755102	84	127
307.3269387755102	307.5475283446712	53	127
307.3269387755102	307.5475283446712	84	127
307.5591383219955	307.7681179138322	67	127
307.5591383219955	307.7681179138322	79	127
307.5591383219955	307.7681179138322	52	127
307.7797278911565	307.9887074829932	70	127
307.7797278911565	307.9887074829932	82	127
307.7797278911565	307.9887074829932	55	127
307.9887074829932	308.22090702947844	53	127
307.9887074829932	308.22090702947844	80	127
307.9887074829932	308.22090702947844	68	127
308.22090702947844	308.9871655328798	45	127
308.22090702947844	308.4298866213152	84	127
308.22090702947844	308.4298866213152	72	127
308.22090702947844	308.9871655328798	54	127
308.44149659863945	308.9871655328798	60	127
308.44149659863945	308.7433560090703	72	127
308.7433560090703	308.9871655328798	75	127
308.9871655328798	309.42834467120184	44	127
308.9871655328798	309.2309523809524	74	127
308.9871655328798	309.42834467120184	59	127
308.9871655328798	309.42834467120184	53	127
309.2309523809524	309.42834467120184	86	127
309.42834467120184	309.8230839002268	58	127
309.42834467120184	309.8230839002268	55	127
309.42834467120184	309.8230839002268	43	127
309.42834467120184	309.8230839002268	87	127
309.83469387755105	310.06689342403627	89	127
309.83469387755105	310.06689342403627	62	127
309.83469387755105	310.06689342403627	56	127
309.83469387755105	310.06689342403627	41	127
310.07850340136054	314.14197278911564	51	127
310.07850340136054	310.17138321995463	79	127
310.07850340136054	310.275873015873	63	127
310.07850340136054	310.275873015873	39	127
310.1249433106576	311.2859410430839	91	127
310.275873015873	310.47324263038547	51	127
310.275873015873	310.47324263038547	67	127
310.47324263038547	310.67061224489794	50	127
310.47324263038547	310.67061224489794	65	127
310.67061224489794	310.8795918367347	67	127
310.67061224489794	310.8795918367347	51	127
310.8795918367347	311.0885714285714	53	127
310.8795918367347	311.0885714285714	68	127
311.0885714285714	311.2859410430839	70	127
311.0885714285714	311.2859410430839	55	127
311.2859410430839	312.0754195011338	89	127
311.2859410430839	311.4832879818594	56	127
311.2859410430839	311.4832879818594	71	127
311.4832879818594	311.6806575963719	65	127
311.4832879818594	311.6806575963719	56	127
311.6806575963719	311.87804988662134	64	127
311.6806575963719	311.87804988662134	55	127
311.87804988662134	312.0754195011338	65	127
311.87804988662134	312.0754195011338	56	127
312.0754195011338	312.28439909297055	67	127
312.0754195011338	312.28439909297055	87	127
312.0754195011338	312.28439909297055	58	127
312.28439909297055	312.51659863945576	68	127
312.28439909297055	312.51659863945576	59	127
312.28439909297055	312.51659863945576	86	127
312.51659863945576	312.7255782312925	50	127
312.51659863945576	312.92294784580497	89	127
312.51659863945576	312.7255782312925	68	127
312.7255782312925	312.87650793650795	53	127
312.7255782312925	312.92294784580497	62	127
312.92294784580497	313.1202947845805	62	127
312.92294784580497	313.0738775510204	53	127
312.92294784580497	313.34090702947844	83	127
313.1202947845805	313.34090702947844	74	127
313.1202947845805	313.2944671201814	53	127
313.34090702947844	313.5382766439909	75	127
313.34090702947844	313.5382766439909	55	127
313.34090702947844	313.5382766439909	82	127
313.5382766439909	313.73562358276644	77	127
313.5382766439909	313.73562358276644	80	127
313.5382766439909	313.73562358276644	56	127
313.73562358276644	314.14197278911564	77	127
313.73562358276644	314.14197278911564	80	127
313.73562358276644	314.14197278911564	56	127
314.14197278911564	315.5235827664399	75	127
314.14197278911564	314.60639455782314	79	127
314.14197278911564	314.60639455782314	51	127
314.14197278911564	314.60639455782314	55	127
314.60639455782314	315.0359637188209	53	127
314.60639455782314	315.0359637188209	56	127
314.60639455782314	315.0359637188209	80	127
315.0359637188209	316.41755102040815	55	127
315.0359637188209	315.27977324263037	81	127
315.0359637188209	315.5235827664399	58	127
315.27977324263037	315.5235827664399	82	127
315.5351927437642	317.24185941043083	63	127
315.5351927437642	315.9879818594104	63	127
315.5351927437642	315.77897959183673	84	127
315.77897959183673	315.9299319727891	82	127
315.9879818594104	316.83551020408163	62	127
315.9879818594104	316.1505215419501	83	127
316.19696145124715	316.37111111111113	83	127
316.4291609977324	316.6149206349206	83	127
316.4291609977324	317.64820861678004	56	127
316.6265306122449	316.83551020408163	86	127
316.83551020408163	317.0328798185941	86	127
316.83551020408163	317.24185941043083	59	127
317.0328798185941	317.24185941043083	83	127
317.2534693877551	317.4392290249433	62	127
317.2534693877551	317.4392290249433	86	127
317.2534693877551	317.8455782312925	64	127
317.45083900226757	317.64820861678004	84	127
317.45083900226757	317.64820861678004	60	127
317.64820861678004	317.8455782312925	60	127
317.64820861678004	317.8455782312925	84	127
317.64820861678004	318.46090702947845	56	127
317.8455782312925	318.042947845805	55	127
317.8455782312925	318.042947845805	64	127
317.8455782312925	318.042947845805	79	127
318.042947845805	318.2519274376417	58	127
318.042947845805	318.2519274376417	67	127
318.042947845805	318.2519274376417	82	127
318.263537414966	318.40285714285716	65	127
318.263537414966	318.40285714285716	56	127
318.263537414966	318.40285714285716	80	127
318.46090702947845	318.6118367346939	50	127
318.46090702947845	318.6118367346939	80	127
318.46090702947845	318.6118367346939	65	127
318.46090702947845	318.6118367346939	53	127
318.6698866213152	318.82081632653063	80	127
318.6698866213152	318.82081632653063	77	127
318.6698866213152	318.82081632653063	51	127
318.6698866213152	318.82081632653063	48	127
318.86725623582765	319.0181859410431	80	127
318.86725623582765	319.0181859410431	77	127
318.86725623582765	319.0181859410431	50	127
318.86725623582765	319.0181859410431	47	127
319.0762358276644	319.21555555555557	79	127
319.0762358276644	319.21555555555557	75	127
319.0762358276644	319.21555555555557	51	127
319.0762358276644	319.21555555555557	48	127
319.27360544217686	319.41292517006804	48	127
319.27360544217686	319.41292517006804	79	127
319.27360544217686	319.41292517006804	75	127
319.27360544217686	319.41292517006804	51	127
319.44775510204084	319.59868480725623	72	127
319.44775510204084	319.59868480725623	80	127
319.44775510204084	319.59868480725623	53	127
319.44775510204084	319.59868480725623	44	127
319.6567120181406	319.80766439909297	79	127
319.6567120181406	319.80766439909297	75	127
319.6567120181406	319.80766439909297	58	127
319.6567120181406	319.80766439909297	46	127
319.8656916099773	320.03986394557825	77	127
319.8656916099773	320.03986394557825	74	127
319.8656916099773	320.03986394557825	70	127
319.8656916099773	320.03986394557825	44	127
320.09791383219954	320.50426303854874	70	127
320.09791383219954	320.50426303854874	82	127
320.09791383219954	320.50426303854874	43	127
320.09791383219954	321.7117006802721	75	127
320.50426303854874	320.8990022675737	48	127
320.8990022675737	321.1079818594104	72	127
320.8990022675737	321.1079818594104	84	127
320.8990022675737	321.3053514739229	44	127
321.1195918367347	321.3053514739229	82	127
321.1195918367347	321.3053514739229	70	127
321.31696145124715	321.7117006802721	41	127
321.31696145124715	321.7117006802721	70	127
321.31696145124715	321.7117006802721	82	127
321.7117006802721	322.14126984126983	74	127
321.7117006802721	322.14126984126983	46	127
322.1528798185941	322.5592290249433	43	127
322.1528798185941	322.36185941043084	84	127
322.1528798185941	322.36185941043084	72	127
322.1528798185941	322.5592290249433	75	127
322.36185941043084	322.5592290249433	70	127
322.36185941043084	322.5592290249433	82	127
322.5592290249433	322.9771882086168	70	127
322.5592290249433	322.9771882086168	75	127
322.5592290249433	322.9771882086168	70	127
322.5592290249433	322.9771882086168	82	127
322.5592290249433	324.21945578231293	63	127
322.98879818594105	323.39514739229026	72	127
323.39514739229026	323.604126984127	60	127
323.39514739229026	323.604126984127	72	127
323.39514739229026	323.80149659863946	68	127
323.604126984127	323.80149659863946	58	127
323.604126984127	323.80149659863946	70	127
323.80149659863946	324.21945578231293	65	127
323.80149659863946	324.21945578231293	58	127
323.80149659863946	324.21945578231293	70	127
324.21945578231293	324.66063492063495	62	127
324.21945578231293	324.66063492063495	70	127
324.66063492063495	324.8695918367347	72	127
324.66063492063495	325.1018140589569	67	127
324.66063492063495	325.1018140589569	63	127
324.66063492063495	324.8695918367347	60	127
324.8812244897959	325.1018140589569	70	127
324.8812244897959	325.1018140589569	58	127
325.1018140589569	325.5081632653061	79	127
325.1018140589569	325.5081632653061	46	127
325.1018140589569	326.6459410430839	63	127
325.1018140589569	326.6459410430839	63	127
325.5197732426304	325.87968253968256	84	127
325.87968253968256	326.2628117913832	80	127
325.87968253968256	326.07705215419503	48	127
326.07705215419503	326.2628117913832	46	127
326.2744217687075	326.6459410430839	77	127
326.2744217687075	326.6459410430839	46	127
326.6459410430839	327.11034013605445	82	127
326.6459410430839	327.11034013605445	62	127
326.6459410430839	327.11034013605445	62	127
327.11034013605445	327.33090702947845	48	127
327.11034013605445	327.53990929705213	79	127
327.11034013605445	327.53990929705213	63	127
327.11034013605445	327.53990929705213	63	127
327.33090702947845	327.53990929705213	46	127
327.53990929705213	327.6908390022676	63	127
327.53990929705213	327.6908390022676	58	127
327.53990929705213	327.6908390022676	43	127
327.53990929705213	327.8069387755102	75	127
327.74888888888887	327.8765986394558	70	127
327.74888888888887	327.8765986394558	58	127
327.74888888888887	327.8765986394558	43	127
327.9346258503401	328.0971882086168	68	127
327.9346258503401	328.0971882086168	63	127
327.9346258503401	328.0971882086168	48	127
327.9346258503401	329.10725623582766	87	127
328.14360544217686	328.282947845805	62	127
328.14360544217686	328.282947845805	46	127
328.14360544217686	328.282947845805	67	127
328.34099773242633	328.503537414966	60	127
328.34099773242633	328.503537414966	44	127
328.34099773242633	328.503537414966	65	127
328.54995464852607	328.6892970521542	63	127
328.54995464852607	328.6892970521542	58	127
328.54995464852607	328.6892970521542	43	127
328.73573696145127	328.8750566893424	68	127
328.73573696145127	328.8750566893424	56	127
328.73573696145127	328.8750566893424	41	127
328.93310657596373	329.06079365079364	41	127
328.93310657596373	329.06079365079364	56	127
328.93310657596373	329.06079365079364	68	127
329.11886621315193	329.24657596371884	67	127
329.11886621315193	329.1769160997732	86	127
329.11886621315193	329.24657596371884	56	127
329.11886621315193	329.24657596371884	46	127
329.11886621315193	329.24657596371884	53	127
329.1769160997732	329.23496598639457	87	127
329.23496598639457	329.30462585034013	86	127
329.30462585034013	329.4439455782313	65	127
329.30462585034013	329.3626757369615	87	127
329.30462585034013	329.4439455782313	74	127
329.30462585034013	329.4439455782313	44	127
329.3626757369615	329.43233560090704	86	127
329.43233560090704	329.51360544217687	87	127
329.51360544217687	329.65292517006804	75	127
329.51360544217687	329.65292517006804	67	127
329.51360544217687	329.65292517006804	43	127
329.51360544217687	329.5716326530612	86	127
329.5716326530612	329.6413151927438	87	127
329.6413151927438	329.69936507936507	86	127
329.69936507936507	329.8502947845805	68	127
329.69936507936507	329.8502947845805	41	127
329.69936507936507	329.8502947845805	77	127
329.69936507936507	329.80385487528343	84	127
329.80385487528343	329.89673469387753	86	127
329.89673469387753	330.21020408163264	79	127
329.89673469387753	330.21020408163264	87	127
329.89673469387753	330.21020408163264	58	127
329.89673469387753	330.21020408163264	67	127
329.89673469387753	330.21020408163264	39	127
330.33791383219955	330.5817233560091	55	127
330.33791383219955	330.5817233560091	63	127
330.33791383219955	330.5817233560091	51	127
330.33791383219955	330.5817233560091	39	127
330.74426303854875	331.09256235827667	55	127
330.74426303854875	331.09256235827667	63	127
330.74426303854875	331.09256235827667	51	127
330.74426303854875	331.09256235827667	39	127
331.2318820861678	331.49891156462587	51	127
331.2318820861678	331.5337414965986	55	127
331.2318820861678	331.5337414965986	63	127
331.2318820861678	331.5337414965986	39	127
331.64984126984126	332.079410430839	58	127
332.079410430839	332.520589569161	58	127
332.520589569161	334.2969160997732	58	127
333.0198185941043	333.41455782312926	67	127
333.0198185941043	333.41455782312926	75	127
333.41455782312926	333.8092970521542	67	127
333.41455782312926	333.8092970521542	75	127
333.82090702947846	334.2969160997732	77	127
333.82090702947846	334.2969160997732	68	127
334.3085260770975	334.7613151927438	86	127
334.3085260770975	334.7613151927438	74	127
334.3085260770975	334.7613151927438	53	127
334.3085260770975	334.7613151927438	56	127
334.3085260770975	334.7613151927438	47	127
334.3085260770975	334.7613151927438	65	127
334.77292517006805	335.1908843537415	74	127
334.77292517006805	334.83097505668934	86	127
334.77292517006805	335.1908843537415	65	127
334.77292517006805	335.1908843537415	53	127
334.77292517006805	335.1908843537415	56	127
334.77292517006805	335.1908843537415	46	127
334.83097505668934	334.92385487528344	87	127
334.92385487528344	334.99349206349206	86	127
334.99349206349206	335.0979818594104	84	127
335.0979818594104	335.1908843537415	86	127
335.1908843537415	335.4695238095238	51	127
335.1908843537415	335.4695238095238	75	127
335.1908843537415	335.4695238095238	67	127
335.1908843537415	335.4695238095238	55	127
335.1908843537415	335.4695238095238	39	127
335.1908843537415	335.4695238095238	87	127
335.59723356009073	335.875873015873	39	127
335.59723356009073	335.875873015873	55	127
335.59723356009073	335.875873015873	63	127
335.59723356009073	335.875873015873	51	127
335.59723356009073	335.875873015873	55	127
336.0151700680272	336.27061224489796	63	127
336.0151700680272	336.27061224489796	51	127
336.0151700680272	336.27061224489796	55	127
336.0151700680272	336.27061224489796	39	127
336.0151700680272	336.27061224489796	55	127
336.4215192743764	336.7349886621315	39	127
336.4215192743764	336.7349886621315	55	127
336.4215192743764	336.7349886621315	63	127
336.4215192743764	336.7349886621315	51	127
336.4215192743764	336.7349886621315	55	127
336.86272108843536	337.2574603174603	58	127
337.2574603174603	337.6173696145125	58	127
337.6173696145125	339.21954648526076	58	127
338.0237188208617	338.4184580498866	67	127
338.0237188208617	338.4184580498866	75	127
338.4184580498866	338.81319727891156	67	127
338.4184580498866	338.81319727891156	75	127
338.81319727891156	339.21954648526076	77	127
338.81319727891156	339.21954648526076	68	127
339.21954648526076	339.62589569160997	86	127
339.21954648526076	339.62589569160997	68	127
339.21954648526076	339.62589569160997	53	127
339.21954648526076	339.62589569160997	47	127
339.62589569160997	340.04385487528344	46	127
339.62589569160997	339.6955328798186	86	127
339.62589569160997	340.04385487528344	68	127
339.62589569160997	340.04385487528344	53	127
339.6955328798186	339.7768253968254	87	127
339.7768253968254	339.846485260771	86	127
339.846485260771	339.95097505668934	84	127
339.95097505668934	340.04385487528344	86	127
342.9579591836735	343.7242176870748	58	127
342.9579591836735	343.7242176870748	74	127
342.9579591836735	343.7242176870748	68	127
342.9579591836735	343.7242176870748	65	127
343.7358276643991	344.24666666666667	58	127
343.7358276643991	343.8170975056689	73	127
343.7358276643991	344.24666666666667	67	127
343.7358276643991	344.24666666666667	64	127
343.8170975056689	343.9215873015873	75	127
343.9215873015873	344.0144671201814	73	127
344.0144671201814	344.11895691609976	72	127
344.11895691609976	344.25827664399094	73	127
344.25827664399094	344.69945578231295	75	127
344.25827664399094	345.51215419501136	60	127
344.25827664399094	347.218820861678	63	127
344.69945578231295	345.10580498866216	80	127
344.69945578231295	345.10580498866216	56	127
345.10580498866216	345.51215419501136	77	127
345.10580498866216	346.38290249433106	68	127
345.51215419501136	345.70952380952383	75	127
345.51215419501136	346.8124716553288	58	127
345.7211337868481	345.9533333333333	73	127
345.9649433106576	346.1855328798186	73	127
346.1855328798186	346.38290249433106	72	127
346.38290249433106	346.6847619047619	73	127
346.38290249433106	346.8124716553288	67	127
346.8240816326531	348.0895691609977	72	127
346.8240816326531	347.218820861678	63	127
346.8240816326531	348.0895691609977	56	127
347.218820861678	349.47115646258504	60	127
347.218820861678	347.64839002267576	68	127
347.66	348.0895691609977	65	127
348.0895691609977	349.47115646258504	70	127
348.0895691609977	349.47115646258504	55	127
348.0895691609977	348.321768707483	65	127
348.321768707483	348.56557823129253	64	127
348.56557823129253	348.77455782312927	64	127
348.78616780045354	348.983537414966	62	127
348.983537414966	349.34344671201814	64	127
349.47115646258504	351.20104308390023	65	127
349.47115646258504	349.8891156462585	60	127
349.47115646258504	350.7598639455782	68	127
349.47115646258504	350.7598639455782	53	127
349.9007256235828	350.353514739229	65	127
350.353514739229	350.7598639455782	62	127
350.7714739229025	351.00367346938776	60	127
350.7714739229025	352.0253514739229	67	127
350.7714739229025	352.0253514739229	55	127
351.00367346938776	351.20104308390023	58	127
351.20104308390023	352.0253514739229	63	127
351.20104308390023	351.42163265306124	58	127
351.42163265306124	351.6190022675737	57	127
351.630612244898	351.92086167800454	58	127
352.0253514739229	352.23433106575965	60	127
352.0253514739229	353.32566893424035	65	127
352.0253514739229	353.32566893424035	62	127
352.0253514739229	353.32566893424035	56	127
352.23433106575965	352.4433106575964	58	127
352.45492063492065	352.64068027210885	58	127
352.6522902494331	352.8844671201814	57	127
352.8844671201814	353.23278911564626	58	127
353.32566893424035	354.6027664399093	67	127
353.32566893424035	353.49979591836734	72	127
353.32566893424035	354.6027664399093	55	127
353.32566893424035	354.6027664399093	63	127
353.51142857142855	353.7204081632653	70	127
353.7204081632653	353.96421768707484	70	127
353.96421768707484	354.1964172335601	69	127
354.1964172335601	354.40539682539685	70	127
354.4169841269841	355.4154648526077	58	127
354.6143764172336	355.85662131519274	53	127
354.6143764172336	355.0091156462585	72	127
354.6143764172336	355.85662131519274	68	127
355.0091156462585	355.4154648526077	77	127
355.427074829932	356.6577324263039	65	127
355.427074829932	355.85662131519274	74	127
355.85662131519274	357.0524716553288	55	127
355.85662131519274	356.0539909297052	72	127
355.85662131519274	357.0524716553288	67	127
356.0539909297052	356.26297052154194	70	127
356.27460317460316	356.4719727891156	70	127
356.4719727891156	356.6577324263039	69	127
356.6577324263039	357.8651700680272	63	127
356.6577324263039	356.9595918367347	70	127
357.0640816326531	357.2498412698413	72	127
357.0640816326531	358.27151927437643	56	127
357.0640816326531	358.27151927437643	65	127
357.26145124716555	357.4704308390023	70	127
357.4704308390023	357.66780045351476	70	127
357.66780045351476	357.8651700680272	69	127
357.8651700680272	358.16702947845806	70	127
357.8651700680272	358.7475283446712	62	127
358.27151927437643	359.64149659863943	67	127
358.27151927437643	358.49210884353744	72	127
358.27151927437643	359.64149659863943	55	127
358.49210884353744	358.7475283446712	70	127
358.7475283446712	359.16548752834467	63	127
358.7475283446712	358.95650793650793	70	127
358.9681179138322	359.16548752834467	69	127
359.17709750566894	360.02462585034016	75	127
359.17709750566894	359.5021768707483	70	127
359.64149659863943	360.7908843537415	53	127
359.64149659863943	360.02462585034016	72	127
359.64149659863943	360.7908843537415	80	127
360.0362358276644	360.4193650793651	77	127
360.0362358276644	360.4193650793651	74	127
360.4193650793651	360.6051247165533	74	127
360.4193650793651	361.61519274376417	77	127
360.6051247165533	360.7908843537415	72	127
360.80249433106576	361.0114739229025	72	127
360.80249433106576	362.0099319727891	55	127
360.80249433106576	362.0099319727891	79	127
361.0114739229025	361.22045351473923	70	127
361.22045351473923	361.4178231292517	70	127
361.4178231292517	361.61519274376417	69	127
361.62680272108844	361.90544217687074	70	127
361.62680272108844	362.84585034013605	75	127
362.0099319727891	363.25219954648526	56	127
362.0099319727891	362.2305215419501	72	127
362.0099319727891	363.25219954648526	77	127
362.2305215419501	362.43950113378685	70	127
362.43950113378685	362.6368707482993	70	127
362.6484807256236	362.84585034013605	69	127
362.84585034013605	363.1360997732426	70	127
362.84585034013605	363.681768707483	74	127
363.25219954648526	364.5292970521542	79	127
363.25219954648526	365.3768253968254	55	127
363.25219954648526	363.4495691609977	84	127
363.461179138322	363.681768707483	82	127
363.69337868480727	364.0997278911565	75	127
363.69337868480727	363.89074829931974	82	127
363.89074829931974	364.0997278911565	81	127
364.0997278911565	364.3203174603175	82	127
364.0997278911565	364.5292970521542	63	127
364.3203174603175	364.5292970521542	70	127
364.5408843537415	364.76149659863944	72	127
364.5408843537415	364.76149659863944	63	127
364.5408843537415	365.8063945578231	80	127
364.76149659863944	364.9588662131519	62	127
364.76149659863944	364.9588662131519	70	127
364.9588662131519	365.1794557823129	62	127
364.9588662131519	365.1794557823129	70	127
365.1794557823129	365.3768253968254	69	127
365.1794557823129	365.3768253968254	60	127
365.38843537414965	365.6902947845805	70	127
365.38843537414965	365.6902947845805	62	127
365.38843537414965	366.65392290249434	53	127
365.8063945578231	367.11832199546484	82	127
365.8063945578231	366.0037641723356	77	127
365.8063945578231	366.0037641723356	70	127
365.8063945578231	366.0037641723356	56	127
366.0037641723356	366.24757369614514	55	127
366.0037641723356	366.24757369614514	75	127
366.2591836734694	366.4449433106576	55	127
366.2591836734694	366.4449433106576	75	127
366.4565532879819	366.65392290249434	74	127
366.4565532879819	366.65392290249434	53	127
366.65392290249434	367.9426303854875	51	127
366.65392290249434	366.96739229024945	75	127
366.65392290249434	366.96739229024945	55	127
367.11832199546484	367.3273015873016	74	127
367.11832199546484	368.801768707483	84	127
367.11832199546484	367.3273015873016	53	127
367.33891156462585	367.5362811791383	51	127
367.33891156462585	367.5362811791383	72	127
367.5362811791383	367.7336507936508	72	127
367.5362811791383	367.7336507936508	51	127
367.7336507936508	367.9426303854875	71	127
367.7336507936508	367.9426303854875	50	127
367.9426303854875	368.2677097505669	65	127
367.9426303854875	368.2677097505669	72	127
367.9426303854875	368.1632199546485	48	127
367.9426303854875	369.2197278911565	45	127
368.1748299319728	368.360589569161	50	127
368.37219954648526	368.581179138322	53	127
368.37219954648526	368.581179138322	74	127
368.581179138322	368.801768707483	51	127
368.581179138322	368.801768707483	72	127
368.801768707483	369.2197278911565	86	127
368.801768707483	369.01074829931974	72	127
368.801768707483	369.01074829931974	51	127
369.01074829931974	369.2197278911565	71	127
369.01074829931974	369.2197278911565	50	127
369.23133786848075	369.7421768707483	87	127
369.23133786848075	370.2065759637188	45	127
369.23133786848075	369.4983673469388	48	127
369.23133786848075	370.2065759637188	65	127
369.23133786848075	370.2065759637188	72	127
369.4983673469388	369.7421768707483	50	127
369.7421768707483	369.97437641723354	51	127
369.7421768707483	370.2065759637188	87	127
369.97437641723354	370.2065759637188	53	127
370.2181859410431	370.612925170068	82	127
370.2181859410431	370.612925170068	67	127
370.2181859410431	370.612925170068	70	127
370.2181859410431	370.612925170068	55	127
370.2181859410431	370.612925170068	46	127
370.612925170068	370.8799319727891	58	127
370.612925170068	371.5417233560091	80	127
370.612925170068	371.5417233560091	68	127
370.612925170068	371.5417233560091	65	127
370.8799319727891	371.08891156462585	59	127
371.10054421768706	371.5417233560091	60	127
371.5417233560091	371.95968253968255	79	127
371.5417233560091	371.7507029478458	63	127
371.5417233560091	371.95968253968255	67	127
371.5417233560091	371.95968253968255	61	127
371.7623129251701	371.95968253968255	64	127
371.95968253968255	372.18027210884355	68	127
371.95968253968255	372.18027210884355	60	127
371.95968253968255	372.18027210884355	65	127
371.95968253968255	372.18027210884355	80	127
372.1918820861678	372.50535147392293	82	127
372.1918820861678	372.50535147392293	70	127
372.1918820861678	372.50535147392293	58	127
372.1918820861678	372.50535147392293	67	127
372.50535147392293	374.2004081632653	84	127
372.50535147392293	372.72591836734694	74	127
372.50535147392293	372.72591836734694	53	127
372.50535147392293	372.9349206349206	68	127
372.72591836734694	372.9349206349206	51	127
372.72591836734694	372.9349206349206	72	127
372.9465306122449	373.3528798185941	44	127
372.9465306122449	373.14390022675735	51	127
372.9465306122449	373.14390022675735	72	127
373.1555102040816	373.3528798185941	71	127
373.1555102040816	373.3528798185941	50	127
373.3528798185941	374.6067573696145	45	127
373.3528798185941	373.55024943310656	48	127
373.3528798185941	373.6547392290249	72	127
373.55024943310656	373.7592290249433	50	127
373.7592290249433	373.99142857142857	74	127
373.7592290249433	373.99142857142857	53	127
374.00303854875284	374.2004081632653	72	127
374.00303854875284	374.2004081632653	51	127
374.2004081632653	374.40938775510205	51	127
374.2004081632653	374.6067573696145	86	127
374.2004081632653	374.40938775510205	72	127
374.40938775510205	374.6067573696145	71	127
374.40938775510205	374.6067573696145	50	127
374.6067573696145	375.44267573696146	87	127
374.6067573696145	374.8273469387755	65	127
374.6067573696145	374.8273469387755	72	127
374.6067573696145	374.8273469387755	48	127
374.6067573696145	375.024716553288	44	127
374.8389569160998	375.024716553288	65	127
374.8389569160998	375.024716553288	50	127
375.03632653061226	375.44267573696146	46	127
375.03632653061226	376.26698412698414	51	127
375.03632653061226	375.44267573696146	67	127
375.44267573696146	375.84902494331067	68	127
375.44267573696146	375.84902494331067	44	127
375.44267573696146	375.84902494331067	89	127
375.86063492063494	376.26698412698414	43	127
375.86063492063494	376.67333333333335	91	127
375.86063492063494	376.67333333333335	70	127
376.26698412698414	376.67333333333335	49	127
376.26698412698414	376.67333333333335	41	127
376.6849433106576	377.11448979591836	92	127
376.6849433106576	377.11448979591836	72	127
376.6849433106576	377.11448979591836	48	127
376.6849433106576	377.11448979591836	39	127
377.11448979591836	377.3234693877551	37	127
377.11448979591836	377.3234693877551	73	127
377.11448979591836	377.3234693877551	53	127
377.11448979591836	377.5556916099773	92	127
377.3234693877551	377.5556916099773	51	127
377.3234693877551	377.5556916099773	36	127
377.3234693877551	377.5556916099773	75	127
377.5556916099773	378.75149659863945	92	127
377.5556916099773	377.95043083900225	36	127
377.5556916099773	377.7530612244898	75	127
377.5556916099773	377.95043083900225	51	127
377.7530612244898	377.95043083900225	68	127
377.95043083900225	378.1478004535147	68	127
377.95043083900225	378.34514739229024	56	127
377.95043083900225	378.34514739229024	41	127
378.159410430839	378.34514739229024	67	127
378.35678004535146	379.15784580498865	38	127
378.35678004535146	378.6470068027211	68	127
378.35678004535146	379.15784580498865	53	127
378.75149659863945	378.9604761904762	72	127
378.75149659863945	380.0170068027211	91	127
378.9604761904762	379.15784580498865	70	127
379.16947845804987	379.58743764172334	43	127
379.16947845804987	379.3668253968254	70	127
379.16947845804987	379.58743764172334	58	127
379.3668253968254	379.58743764172334	69	127
379.58743764172334	379.924126984127	70	127
379.58743764172334	380.4233560090703	55	127
379.58743764172334	380.4233560090703	39	127
380.02861678004535	380.21437641723355	75	127
380.02861678004535	381.61918367346937	89	127
380.2259863945578	380.4233560090703	74	127
380.4233560090703	380.62072562358276	74	127
380.4233560090703	380.8180952380952	60	127
380.4233560090703	380.8180952380952	44	127
380.62072562358276	380.8180952380952	72	127
380.8180952380952	381.61918367346937	56	127
380.8180952380952	381.11995464852606	74	127
380.8180952380952	381.61918367346937	41	127
381.22444444444443	381.4218140589569	77	127
381.4218140589569	381.61918367346937	75	127
381.61918367346937	381.8397732426304	75	127
381.61918367346937	382.0603628117914	87	127
381.61918367346937	382.0603628117914	61	127
381.61918367346937	382.0603628117914	46	127
381.8629931972789	382.0603628117914	74	127
382.07197278911565	382.52476190476193	43	127
382.07197278911565	382.3273922902494	75	127
382.07197278911565	382.52476190476193	85	127
382.07197278911565	382.52476190476193	58	127
382.3273922902494	382.52476190476193	73	127
382.52476190476193	382.91950113378687	72	127
382.52476190476193	382.7221315192744	84	127
382.52476190476193	383.3722902494331	60	127
382.52476190476193	383.3722902494331	44	127
382.7337414965986	382.91950113378687	72	127
382.93111111111114	383.3722902494331	77	127
382.93111111111114	383.16331065759636	75	127
383.16331065759636	383.3722902494331	77	127
383.3722902494331	383.56965986394556	79	127
383.3722902494331	383.7786394557823	74	127
383.3722902494331	384.17337868480723	56	127
383.3722902494331	384.17337868480723	58	127
383.56965986394556	383.7786394557823	80	127
383.79024943310657	384.17337868480723	70	127
383.79024943310657	383.98761904761903	82	127
383.98761904761903	384.17337868480723	84	127
384.17337868480723	384.3707482993197	86	127
384.17337868480723	384.6377777777778	75	127
384.17337868480723	384.6377777777778	58	127
384.17337868480723	384.6377777777778	55	127
384.3707482993197	384.6377777777778	87	127
384.64938775510205	384.83514739229025	89	127
384.64938775510205	385.044126984127	72	127
384.64938775510205	385.044126984127	55	127
384.64938775510205	385.044126984127	51	127
384.8467573696145	385.044126984127	91	127
385.044126984127	385.24149659863946	94	127
385.044126984127	385.4388662131519	74	127
385.044126984127	385.4388662131519	53	127
385.044126984127	385.4388662131519	46	127
385.24149659863946	385.4388662131519	92	127
385.4388662131519	385.64784580498866	92	127
385.4388662131519	385.64784580498866	77	127
385.4388662131519	385.88004535147394	62	127
385.4388662131519	385.88004535147394	58	127
385.6710657596372	385.88004535147394	91	127
385.6710657596372	385.88004535147394	75	127
385.88004535147394	386.0774149659864	63	127
385.88004535147394	386.19351473922904	70	127
385.88004535147394	386.19351473922904	92	127
385.88004535147394	386.0774149659864	60	127
385.88004535147394	386.19351473922904	77	127
386.0774149659864	386.2980045351474	65	127
386.0774149659864	386.2980045351474	62	127
386.2980045351474	386.73918367346937	63	127
386.2980045351474	386.5418140589569	65	127
386.2980045351474	386.73918367346937	91	127
386.2980045351474	386.73918367346937	70	127
386.2980045351474	386.73918367346937	79	127
386.55342403628117	386.9481632653061	63	127
386.75079365079364	388.4342403628118	75	127
386.75079365079364	386.9481632653061	79	127
386.9481632653061	387.1455328798186	65	127
386.9481632653061	387.1455328798186	80	127
387.1455328798186	387.5402721088435	67	127
387.1455328798186	387.34290249433104	82	127
387.34290249433104	387.5402721088435	83	127
387.5518820861678	388.0278911564626	84	127
387.5518820861678	388.8521995464853	68	127
388.0278911564626	388.4342403628118	89	127
388.4458503401361	389.6881179138322	77	127
388.4458503401361	388.8521995464853	86	127
388.8521995464853	389.28176870748297	82	127
388.8521995464853	390.0596371882086	67	127
389.29337868480724	389.6881179138322	87	127
389.6881179138322	390.0596371882086	84	127
389.6881179138322	390.87233560090704	75	127
390.0596371882086	391.7895238095238	65	127
390.0596371882086	390.2570068027211	82	127
390.26861678004536	390.46598639455783	80	127
390.46598639455783	390.67496598639457	80	127
390.67496598639457	390.87233560090704	79	127
390.87233560090704	391.24385487528343	80	127
390.87233560090704	392.21909297052156	74	127
391.3483446712018	391.7895238095238	79	127
391.7895238095238	392.21909297052156	63	127
392.21909297052156	393.44975056689344	75	127
392.21909297052156	392.62544217687076	67	127
392.21909297052156	392.62544217687076	58	127
392.62544217687076	392.82281179138323	58	127
392.62544217687076	394.3669387755102	65	127
392.82281179138323	393.03179138321997	56	127
393.03179138321997	393.2407709750567	56	127
393.2407709750567	393.44975056689344	55	127
393.44975056689344	393.78643990929703	56	127
393.44975056689344	394.8081179138322	74	127
393.91414965986394	394.3669387755102	55	127
394.3785487528345	394.8081179138322	63	127
394.81972789115645	395.2492970521542	75	127
394.81972789115645	395.2492970521542	67	127
394.81972789115645	395.2492970521542	63	127
394.81972789115645	395.2492970521542	46	127
394.81972789115645	395.48149659863947	87	127
395.26090702947846	395.48149659863947	48	127
395.26090702947846	396.86308390022674	65	127
395.26090702947846	396.86308390022674	68	127
395.48149659863947	395.6556462585034	46	127
395.48149659863947	395.6556462585034	86	127
395.66725623582767	395.86462585034013	86	127
395.66725623582767	395.86462585034013	46	127
395.86462585034013	396.12004535147395	84	127
395.86462585034013	396.12004535147395	45	127
396.13165532879816	396.6889342403628	46	127
396.13165532879816	396.6889342403628	86	127
396.874693877551	397.6990022675737	87	127
396.874693877551	397.6990022675737	67	127
396.874693877551	397.6990022675737	63	127
396.874693877551	397.6990022675737	39	127
400.03260770975055	400.2648072562358	63	127
