# onset,offset,note,velocity
0.12693877551020408	0.2546258503401361	68	127
0.719047619047619	2.1238548752834467	39	127
2.147074829931973	14.929659863945579	39	127
3.691201814058957	5.328208616780046	49	127
5.351428571428571	14.929659863945579	49	127
7.1741950113378685	8.904081632653062	58	127
8.927301587301587	14.929659863945579	58	127
10.668798185941043	12.584444444444445	61	127
12.60766439909297	14.929659863945579	61	127
14.941269841269841	15.486938775510204	63	127
14.941269841269841	16.647936507936507	58	127
14.941269841269841	16.647936507936507	49	127
14.941269841269841	16.647936507936507	39	127
15.498548752834466	16.647936507936507	65	127
16.671156462585035	17.286462585034013	39	127
16.671156462585035	17.286462585034013	67	127
16.671156462585035	17.286462585034013	58	127
16.671156462585035	17.286462585034013	49	127
17.29809523809524	20.28185941043084	68	127
17.29809523809524	19.120861678004534	56	127
17.29809523809524	19.120861678004534	39	127
17.29809523809524	24.36857142857143	48	127
19.1324716553288	24.36857142857143	44	127
19.1324716553288	20.86235827664399	60	127
20.305079365079365	20.86235827664399	70	127
20.86235827664399	22.034965986394557	72	127
20.86235827664399	24.36857142857143	60	127
20.86235827664399	24.36857142857143	63	127
22.046553287981858	22.6502947845805	73	127
22.66190476190476	23.776462585034015	75	127
23.79968253968254	24.36857142857143	77	127
24.38018140589569	27.7702947845805	43	127
24.38018140589569	27.7702947845805	63	127
24.38018140589569	25.52956916099773	77	127
24.38018140589569	26.12167800453515	49	127
24.38018140589569	27.7702947845805	58	127
25.541179138321997	26.12167800453515	75	127
26.13328798185941	29.48857142857143	51	127
26.13328798185941	27.16657596371882	73	127
27.18979591836735	27.7702947845805	70	127
27.781904761904762	28.931292517006803	67	127
27.781904761904762	31.497097505668933	61	127
27.781904761904762	31.497097505668933	63	127
27.781904761904762	31.497097505668933	46	127
28.942902494331065	30.13873015873016	75	127
29.50018140589569	31.497097505668933	51	127
30.15034013605442	30.812108843537416	73	127
30.82371882086168	31.497097505668933	70	127
31.52031746031746	34.91043083900227	51	127
31.52031746031746	34.91043083900227	48	127
31.52031746031746	33.180521541950114	60	127
31.52031746031746	33.180521541950114	63	127
31.52031746031746	32.60004535147392	68	127
32.611655328798186	33.180521541950114	80	127
33.19215419501134	36.489387755102044	56	127
33.19215419501134	34.32993197278912	79	127
34.34154195011338	34.91043083900227	77	127
34.92204081632653	38.19605442176871	51	127
34.92204081632653	35.89727891156463	77	127
34.92204081632653	36.489387755102044	48	127
35.90888888888889	36.489387755102044	75	127
36.500997732426306	37.62716553287982	73	127
36.500997732426306	38.19605442176871	60	127
36.500997732426306	38.19605442176871	56	127
37.638775510204084	38.19605442176871	72	127
38.20766439909297	39.86789115646258	60	127
38.20766439909297	40.85473922902494	75	127
38.20766439909297	42.80521541950113	51	127
38.20766439909297	41.49328798185941	56	127
39.879501133786846	42.80521541950113	63	127
40.866349206349206	40.95922902494331	72	127
40.95922902494331	41.04047619047619	73	127
41.04047619047619	41.15659863945578	72	127
41.15659863945578	41.27269841269841	73	127
41.27269841269841	41.37718820861678	72	127
41.37718820861678	41.50489795918367	73	127
41.50489795918367	42.80521541950113	70	127
41.50489795918367	42.80521541950113	55	127
42.816802721088436	44.59312925170068	51	127
42.816802721088436	43.50181405895692	55	127
42.816802721088436	43.50181405895692	51	127
42.816802721088436	44.59312925170068	75	127
43.50181405895692	44.59312925170068	53	127
43.50181405895692	44.59312925170068	56	127
44.60476190476191	45.27814058956916	58	127
44.60476190476191	45.27814058956916	73	127
44.60476190476191	45.27814058956916	51	127
44.60476190476191	45.27814058956916	55	127
45.289750566893424	47.03124716553288	51	127
45.289750566893424	46.46235827664399	72	127
45.289750566893424	47.03124716553288	60	127
45.289750566893424	48.134195011337866	56	127
46.48555555555556	47.03124716553288	82	127
47.042857142857144	48.134195011337866	68	127
47.042857142857144	48.134195011337866	53	127
47.042857142857144	48.134195011337866	80	127
48.14580498866213	48.72630385487528	79	127
48.14580498866213	48.72630385487528	63	127
48.14580498866213	48.72630385487528	55	127
48.14580498866213	48.72630385487528	58	127
48.737913832199546	52.174467120181404	56	127
48.737913832199546	52.174467120181404	60	127
48.737913832199546	49.70154195011338	77	127
48.737913832199546	49.70154195011338	60	127
48.737913832199546	52.174467120181404	63	127
49.724761904761905	50.30526077097505	75	127
49.724761904761905	50.30526077097505	61	127
50.31687074829932	51.524308390022675	63	127
50.31687074829932	51.524308390022675	73	127
51.53591836734694	52.174467120181404	65	127
51.53591836734694	52.174467120181404	72	127
52.18607709750567	55.76195011337869	63	127
52.18607709750567	55.76195011337869	55	127
52.18607709750567	55.76195011337869	58	127
52.18607709750567	53.31224489795918	73	127
52.18607709750567	53.31224489795918	65	127
53.33546485260771	53.927573696145124	63	127
53.33546485260771	53.927573696145124	84	127
53.93918367346939	55.18145124716553	61	127
53.93918367346939	55.18145124716553	82	127
55.193061224489796	55.76195011337869	79	127
55.193061224489796	55.76195011337869	58	127
55.77356009070295	56.96938775510204	55	127
55.77356009070295	56.96938775510204	75	127
55.77356009070295	57.549886621315196	61	127
55.77356009070295	57.549886621315196	63	127
55.77356009070295	57.549886621315196	58	127
56.992607709750565	58.01428571428571	63	127
56.992607709750565	57.549886621315196	79	127
57.56149659863946	58.53673469387755	82	127
57.56149659863946	58.01428571428571	61	127
57.56149659863946	59.233333333333334	55	127
58.025895691609975	58.53673469387755	61	127
58.025895691609975	58.53673469387755	58	127
58.54834467120181	59.233333333333334	58	127
58.54834467120181	59.233333333333334	63	127
58.54834467120181	59.233333333333334	85	127
59.2449433106576	60.47560090702948	56	127
59.2449433106576	60.47560090702948	84	127
59.2449433106576	62.844036281179136	56	127
59.2449433106576	60.47560090702948	60	127
60.47560090702948	61.102539682539685	68	127
60.47560090702948	61.102539682539685	75	127
60.47560090702948	61.102539682539685	72	127
61.11414965986395	62.26353741496599	70	127
61.11414965986395	62.26353741496599	67	127
61.11414965986395	62.26353741496599	76	127
62.27514739229025	62.844036281179136	77	127
62.27514739229025	62.844036281179136	68	127
62.27514739229025	62.844036281179136	65	127
62.8556462585034	64.02825396825396	77	127
62.8556462585034	64.02825396825396	68	127
62.8556462585034	64.02825396825396	65	127
62.8556462585034	64.6784126984127	58	127
64.03986394557823	64.6784126984127	67	127
64.03986394557823	64.6784126984127	63	127
64.03986394557823	64.6784126984127	79	127
64.69	66.61727891156463	58	127
64.69	65.97873015873016	79	127
64.69	65.97873015873016	67	127
64.69	65.97873015873016	63	127
65.99034013605443	66.61727891156463	80	127
65.99034013605443	66.61727891156463	65	127
65.99034013605443	66.61727891156463	62	127
66.6288888888889	68.5445351473923	65	127
66.6288888888889	68.23106575963719	62	127
66.6288888888889	68.5445351473923	80	127
66.6288888888889	70.62272108843537	51	127
66.6288888888889	70.62272108843537	58	127
68.24265306122449	68.34716553287981	63	127
68.34716553287981	68.45165532879818	62	127
68.45165532879818	68.55614512471655	60	127
68.55614512471655	69.83324263038548	77	127
68.55614512471655	69.83324263038548	68	127
68.55614512471655	69.18308390022676	62	127
69.20630385487529	69.83324263038548	65	127
69.84485260770975	70.62272108843537	63	127
69.84485260770975	70.62272108843537	79	127
69.84485260770975	70.62272108843537	67	127
70.64591836734694	72.05072562358276	51	127
70.64591836734694	72.05072562358276	58	127
70.64591836734694	72.05072562358276	63	127
70.64591836734694	72.05072562358276	79	127
70.64591836734694	72.05072562358276	55	127
70.64591836734694	72.05072562358276	67	127
72.07396825396826	72.57319727891156	46	127
72.07396825396826	72.57319727891156	63	127
72.07396825396826	72.57319727891156	61	127
72.07396825396826	72.57319727891156	51	127
72.58480725623583	73.80385487528345	61	127
72.58480725623583	73.80385487528345	51	127
72.58480725623583	73.80385487528345	67	127
72.58480725623583	73.80385487528345	46	127
73.81544217687075	74.3843537414966	68	127
73.81544217687075	74.3843537414966	61	127
73.81544217687075	74.3843537414966	51	127
73.81544217687075	74.3843537414966	44	127
74.39596371882087	78.0066439909297	43	127
74.39596371882087	75.61501133786848	61	127
74.39596371882087	75.61501133786848	51	127
74.39596371882087	77.40294784580499	70	127
75.61501133786848	76.19551020408163	51	127
75.61501133786848	76.19551020408163	61	127
76.2071201814059	77.40294784580499	61	127
76.2071201814059	77.40294784580499	51	127
77.41455782312926	78.0066439909297	68	127
77.41455782312926	78.0066439909297	61	127
77.41455782312926	78.0066439909297	51	127
78.01827664399093	79.17927437641724	51	127
78.01827664399093	79.17927437641724	68	127
78.01827664399093	79.17927437641724	61	127
78.01827664399093	81.60575963718821	46	127
79.1908843537415	79.75977324263039	61	127
79.1908843537415	79.75977324263039	51	127
79.1908843537415	79.75977324263039	67	127
79.77136054421769	80.93238095238095	61	127
79.77136054421769	80.93238095238095	51	127
79.77136054421769	80.93238095238095	68	127
80.94399092970522	81.60575963718821	61	127
80.94399092970522	81.60575963718821	51	127
80.94399092970522	81.60575963718821	70	127
81.61736961451247	85.11195011337868	44	127
81.61736961451247	81.79151927437641	70	127
81.61736961451247	82.75514739229025	60	127
81.61736961451247	82.75514739229025	51	127
81.79151927437641	84.47340136054422	72	127
82.76675736961451	83.28920634920635	51	127
82.76675736961451	83.28920634920635	60	127
83.30081632653061	84.47340136054422	60	127
83.30081632653061	84.47340136054422	51	127
84.48503401360544	85.11195011337868	70	127
84.48503401360544	85.11195011337868	61	127
84.48503401360544	85.11195011337868	51	127
85.12358276643991	89.9649433106576	48	127
85.12358276643991	86.3542403628118	70	127
85.12358276643991	86.3542403628118	63	127
85.12358276643991	86.3542403628118	51	127
86.36582766439909	86.98117913832199	68	127
86.36582766439909	86.98117913832199	63	127
86.36582766439909	86.98117913832199	51	127
86.99278911564626	88.20022675736962	70	127
86.99278911564626	88.20022675736962	63	127
86.99278911564626	88.20022675736962	51	127
88.21183673469388	88.78072562358277	72	127
88.21183673469388	88.78072562358277	63	127
88.21183673469388	88.78072562358277	51	127
88.79231292517007	89.9649433106576	63	127
88.79231292517007	89.9649433106576	51	127
88.79231292517007	91.76448979591837	73	127
89.97655328798186	90.58024943310657	51	127
89.97655328798186	90.58024943310657	61	127
89.97655328798186	90.58024943310657	46	127
90.5918820861678	91.76448979591837	60	127
90.5918820861678	91.76448979591837	51	127
90.5918820861678	91.76448979591837	44	127
91.77609977324263	92.40303854875283	43	127
91.77609977324263	92.40303854875283	75	127
91.77609977324263	92.40303854875283	58	127
91.77609977324263	92.40303854875283	51	127
92.4146485260771	93.56403628117914	51	127
92.4146485260771	93.56403628117914	77	127
92.4146485260771	93.56403628117914	56	127
92.4146485260771	93.56403628117914	41	127
93.5756462585034	94.09809523809524	51	127
93.5756462585034	94.09809523809524	79	127
93.5756462585034	94.09809523809524	58	127
93.5756462585034	94.09809523809524	39	127
94.10968253968254	95.25909297052154	51	127
94.10968253968254	95.25909297052154	80	127
94.10968253968254	95.25909297052154	58	127
94.10968253968254	95.25909297052154	65	127
94.10968253968254	95.25909297052154	38	127
95.2707029478458	95.897641723356	51	127
95.2707029478458	95.897641723356	82	127
95.2707029478458	95.897641723356	58	127
95.2707029478458	95.897641723356	67	127
95.2707029478458	95.897641723356	37	127
95.90925170068027	97.15151927437641	51	127
95.90925170068027	97.15151927437641	80	127
95.90925170068027	97.15151927437641	60	127
95.90925170068027	97.15151927437641	68	127
95.90925170068027	97.15151927437641	36	127
97.16312925170068	97.82489795918367	53	127
97.16312925170068	97.82489795918367	75	127
97.16312925170068	97.82489795918367	60	127
97.16312925170068	97.82489795918367	37	127
97.83650793650794	99.14843537414966	55	127
97.83650793650794	99.14843537414966	73	127
97.83650793650794	99.14843537414966	58	127
97.83650793650794	99.14843537414966	39	127
99.17165532879818	99.78698412698412	61	127
99.17165532879818	99.78698412698412	70	127
99.17165532879818	99.78698412698412	55	127
99.17165532879818	99.78698412698412	51	127
99.17165532879818	99.78698412698412	39	127
99.79859410430839	101.1105215419501	68	127
99.79859410430839	101.1105215419501	56	127
99.79859410430839	101.1105215419501	51	127
99.79859410430839	101.1105215419501	60	127
99.79859410430839	101.1105215419501	44	127
101.12213151927438	101.81873015873016	51	127
101.12213151927438	101.81873015873016	58	127
101.12213151927438	101.81873015873016	55	127
101.12213151927438	101.81873015873016	51	127
101.81873015873016	103.01455782312925	55	127
101.81873015873016	103.01455782312925	63	127
101.81873015873016	103.01455782312925	51	127
101.81873015873016	103.01455782312925	58	127
103.02616780045352	103.65310657596372	56	127
103.02616780045352	103.65310657596372	65	127
103.02616780045352	103.65310657596372	51	127
103.02616780045352	103.65310657596372	60	127
103.66471655328799	106.56721088435374	67	127
103.66471655328799	103.86208616780046	56	127
103.66471655328799	105.0114739229025	51	127
103.66471655328799	105.0114739229025	61	127
103.86208616780046	106.56721088435374	58	127
105.02308390022675	105.47587301587302	75	127
105.02308390022675	105.47587301587302	51	127
105.02308390022675	105.47587301587302	61	127
105.48748299319728	106.56721088435374	79	127
105.48748299319728	106.56721088435374	51	127
105.48748299319728	106.56721088435374	61	127
106.57882086167801	107.19414965986394	51	127
106.57882086167801	107.19414965986394	80	127
106.57882086167801	107.19414965986394	65	127
106.57882086167801	107.19414965986394	61	127
106.57882086167801	107.19414965986394	56	127
107.20575963718821	108.4015873015873	61	127
107.20575963718821	108.4015873015873	82	127
107.20575963718821	108.4015873015873	65	127
107.20575963718821	108.4015873015873	56	127
107.20575963718821	108.4015873015873	51	127
108.41319727891157	109.00530612244899	61	127
108.41319727891157	109.00530612244899	55	127
108.41319727891157	109.00530612244899	51	127
108.41319727891157	109.00530612244899	63	127
109.01691609977324	110.15469387755103	51	127
109.01691609977324	110.15469387755103	65	127
109.01691609977324	110.15469387755103	61	127
109.01691609977324	110.15469387755103	56	127
110.16630385487528	110.74680272108843	58	127
110.16630385487528	110.74680272108843	51	127
110.16630385487528	110.74680272108843	67	127
110.16630385487528	110.74680272108843	61	127
110.7584126984127	111.89619047619047	60	127
110.7584126984127	110.90934240362812	58	127
110.7584126984127	111.89619047619047	51	127
110.7584126984127	113.75378684807256	68	127
110.90934240362812	113.75378684807256	60	127
111.90780045351474	112.51151927437641	51	127
111.90780045351474	112.51151927437641	75	127
112.52312925170068	113.75378684807256	80	127
112.52312925170068	113.75378684807256	63	127
113.76539682539682	114.38072562358276	61	127
113.76539682539682	114.38072562358276	82	127
113.76539682539682	114.38072562358276	67	127
113.76539682539682	114.38072562358276	51	127
113.76539682539682	114.38072562358276	58	127
114.39233560090703	115.5301133786848	63	127
114.39233560090703	115.5301133786848	51	127
114.39233560090703	115.5301133786848	60	127
114.39233560090703	115.5301133786848	58	127
114.39233560090703	116.13383219954649	84	127
115.54172335600907	116.13383219954649	56	127
115.54172335600907	116.13383219954649	51	127
115.54172335600907	116.73755102040816	68	127
115.54172335600907	116.13383219954649	60	127
116.14544217687074	117.31804988662131	54	127
116.14544217687074	117.31804988662131	70	127
116.14544217687074	117.31804988662131	51	127
116.74916099773243	117.31804988662131	58	127
117.32965986394558	117.99142857142857	51	127
117.32965986394558	117.99142857142857	72	127
117.32965986394558	117.99142857142857	56	127
117.32965986394558	117.99142857142857	54	127
118.00303854875284	119.19886621315193	53	127
118.00303854875284	120.95197278911564	73	127
118.00303854875284	119.19886621315193	56	127
118.00303854875284	119.19886621315193	49	127
119.19886621315193	120.95197278911564	68	127
119.19886621315193	119.8025850340136	54	127
119.19886621315193	119.8025850340136	51	127
119.81419501133787	120.95197278911564	53	127
119.81419501133787	120.95197278911564	49	127
120.96358276643991	121.54408163265306	48	127
120.96358276643991	121.54408163265306	75	127
120.96358276643991	121.54408163265306	68	127
120.96358276643991	121.54408163265306	51	127
121.55569160997733	122.67024943310658	49	127
121.55569160997733	122.67024943310658	77	127
121.55569160997733	122.67024943310658	68	127
121.55569160997733	122.67024943310658	46	127
122.68185941043085	123.25074829931972	61	127
122.68185941043085	123.25074829931972	79	127
122.68185941043085	123.25074829931972	70	127
122.68185941043085	123.25074829931972	40	127
123.25074829931972	124.44657596371881	60	127
123.25074829931972	124.44657596371881	80	127
123.25074829931972	124.44657596371881	72	127
123.25074829931972	124.44657596371881	39	127
124.45818594104308	125.07351473922903	53	127
124.45818594104308	125.07351473922903	82	127
124.45818594104308	125.07351473922903	70	127
124.45818594104308	125.07351473922903	56	127
124.45818594104308	125.07351473922903	38	127
125.08512471655328	128.24301587301588	39	127
125.08512471655328	126.30417233560091	80	127
125.08512471655328	126.30417233560091	72	127
125.08512471655328	126.30417233560091	56	127
126.32739229024943	126.93111111111111	75	127
126.32739229024943	126.93111111111111	60	127
126.32739229024943	126.93111111111111	57	127
126.94272108843538	128.24301587301588	73	127
126.94272108843538	128.24301587301588	61	127
126.94272108843538	128.24301587301588	58	127
128.2546485260771	128.9744671201814	51	127
128.2546485260771	128.9744671201814	70	127
128.2546485260771	128.9744671201814	61	127
128.2546485260771	128.9744671201814	67	127
128.98607709750567	130.93655328798187	60	127
128.98607709750567	130.27478458049887	68	127
128.98607709750567	130.27478458049887	68	127
128.98607709750567	132.17879818594105	51	127
130.28637188208617	130.93655328798187	63	127
130.28637188208617	130.93655328798187	69	127
130.94816326530614	132.17879818594105	70	127
130.94816326530614	132.17879818594105	55	127
130.94816326530614	132.17879818594105	61	127
132.19043083900226	132.7825396825397	70	127
132.19043083900226	132.7825396825397	67	127
132.19043083900226	132.7825396825397	37	127
132.19043083900226	134.11768707482995	51	127
132.8057596371882	134.11768707482995	75	127
132.8057596371882	134.11768707482995	36	127
132.8057596371882	134.11768707482995	66	127
132.8057596371882	134.11768707482995	56	127
134.1292970521542	134.7330158730159	54	127
134.1292970521542	134.7330158730159	68	127
134.1292970521542	134.7330158730159	60	127
134.1292970521542	134.7330158730159	39	127
134.74462585034013	136.03333333333333	53	127
134.74462585034013	136.03333333333333	73	127
134.74462585034013	136.03333333333333	56	127
134.74462585034013	136.03333333333333	65	127
134.74462585034013	136.03333333333333	37	127
136.0449433106576	136.637052154195	56	127
136.0449433106576	136.637052154195	68	127
136.0449433106576	136.637052154195	61	127
136.0449433106576	136.637052154195	40	127
136.64866213151927	137.93736961451248	53	127
136.64866213151927	137.93736961451248	72	127
136.64866213151927	137.93736961451248	56	127
136.64866213151927	137.93736961451248	68	127
136.64866213151927	137.93736961451248	38	127
137.94897959183675	138.6571882086168	56	127
137.94897959183675	138.6571882086168	68	127
137.94897959183675	138.6571882086168	60	127
137.94897959183675	138.6571882086168	39	127
138.66879818594106	140.0619954648526	60	127
138.66879818594106	140.0619954648526	63	127
138.66879818594106	140.0619954648526	56	127
138.66879818594106	140.0619954648526	51	127
140.07360544217687	140.74698412698413	58	127
140.07360544217687	140.74698412698413	67	127
140.07360544217687	140.74698412698413	55	127
140.07360544217687	140.74698412698413	51	127
140.07360544217687	140.74698412698413	61	127
140.7585941043084	142.151768707483	63	127
140.7585941043084	142.151768707483	68	127
140.7585941043084	142.151768707483	51	127
140.7585941043084	142.151768707483	56	127
140.7585941043084	142.151768707483	60	127
142.9528798185941	144.42734693877551	39	127
142.9528798185941	144.42734693877551	70	127
142.9528798185941	144.42734693877551	55	127
142.9528798185941	144.42734693877551	63	127
142.9528798185941	144.42734693877551	51	127
142.9528798185941	144.42734693877551	61	127
145.22843537414965	146.8190022675737	60	127
145.22843537414965	146.8190022675737	68	127
145.22843537414965	146.8190022675737	56	127
145.22843537414965	146.8190022675737	63	127
145.22843537414965	146.8190022675737	51	127
145.22843537414965	146.8190022675737	44	127
146.84222222222223	148.8275283446712	75	127
146.84222222222223	148.8275283446712	55	127
147.4459410430839	148.8275283446712	51	127
148.83913832199548	149.21065759637187	53	127
148.83913832199548	150.95215419501133	63	127
148.83913832199548	149.21065759637187	74	127
148.83913832199548	149.21065759637187	56	127
149.21065759637187	149.51249433106577	73	127
149.21065759637187	149.51249433106577	58	127
149.21065759637187	149.51249433106577	55	127
149.53573696145125	150.95215419501133	58	127
149.53573696145125	150.95215419501133	73	127
149.53573696145125	150.95215419501133	55	127
150.9637641723356	152.86780045351475	60	127
150.9637641723356	151.26562358276644	65	127
150.9637641723356	151.57909297052154	72	127
150.9637641723356	152.86780045351475	56	127
151.26562358276644	151.57909297052154	67	127
151.5907029478458	152.55433106575964	67	127
152.5659410430839	154.30743764172337	68	127
152.87941043083902	153.20448979591836	61	127
152.87941043083902	153.20448979591836	58	127
153.20448979591836	153.56439909297052	63	127
153.20448979591836	153.56439909297052	60	127
153.5760090702948	155.0272335600907	60	127
153.5760090702948	155.0272335600907	63	127
154.3190476190476	154.7021768707483	67	127
154.7021768707483	155.03886621315192	68	127
155.03886621315192	155.37555555555556	70	127
155.03886621315192	155.37555555555556	61	127
155.03886621315192	155.37555555555556	61	127
155.37555555555556	155.71224489795918	60	127
155.37555555555556	155.71224489795918	72	127
155.37555555555556	155.71224489795918	63	127
155.72385487528345	157.83687074829933	53	127
155.72385487528345	156.44367346938776	63	127
155.72385487528345	157.10544217687075	69	127
155.72385487528345	157.10544217687075	72	127
155.72385487528345	157.83687074829933	60	127
156.45528344671203	157.45374149659864	66	127
157.11705215419502	157.51179138321996	69	127
157.51179138321996	157.83687074829933	65	127
157.51179138321996	157.84848072562357	72	127
157.84848072562357	158.55666666666667	57	127
157.84848072562357	158.55666666666667	60	127
157.84848072562357	158.55666666666667	65	127
158.56829931972788	159.21845804988664	53	127
158.56829931972788	159.21845804988664	69	127
158.56829931972788	159.21845804988664	63	127
159.23006802721088	160.8902947845805	58	127
159.23006802721088	159.8337641723356	70	127
159.23006802721088	160.8902947845805	61	127
159.8337641723356	160.21691609977324	82	127
160.2285260770975	161.49401360544218	82	127
160.90190476190477	161.49401360544218	58	127
160.90190476190477	161.49401360544218	62	127
161.50562358276645	161.81909297052155	63	127
161.50562358276645	161.81909297052155	81	127
161.50562358276645	161.81909297052155	60	127
161.81909297052155	162.19061224489795	65	127
161.81909297052155	162.19061224489795	80	127
161.81909297052155	162.19061224489795	62	127
162.20222222222222	163.58380952380952	80	127
162.20222222222222	162.852358276644	65	127
162.20222222222222	163.58380952380952	62	127
162.87560090702948	164.3152380952381	70	127
163.60702947845806	163.99015873015873	79	127
163.60702947845806	164.69836734693877	79	127
163.60702947845806	164.3152380952381	63	127
163.99015873015873	164.3152380952381	87	127
164.32684807256237	165.0350566893424	63	127
164.32684807256237	165.0350566893424	67	127
164.32684807256237	165.73165532879818	87	127
164.70997732426304	166.4166439909297	70	127
165.0466439909297	165.73165532879818	67	127
165.0466439909297	165.73165532879818	63	127
165.74326530612245	166.05673469387756	86	127
165.74326530612245	166.05673469387756	68	127
165.74326530612245	166.05673469387756	65	127
166.05673469387756	166.4166439909297	67	127
166.05673469387756	166.4166439909297	70	127
166.05673469387756	166.428231292517	85	127
166.428231292517	167.04356009070295	67	127
166.428231292517	166.74172335600906	71	127
166.428231292517	167.04356009070295	84	127
166.428231292517	167.04356009070295	64	127
166.74172335600906	168.4948299319728	72	127
167.05519274376417	167.41510204081632	80	127
167.05519274376417	167.8098185941043	68	127
167.05519274376417	167.8098185941043	65	127
167.41510204081632	167.82145124716553	79	127
167.82145124716553	168.19297052154195	70	127
167.82145124716553	168.19297052154195	67	127
167.82145124716553	168.34390022675737	77	127
168.19297052154195	168.50643990929706	72	127
168.19297052154195	168.50643990929706	68	127
168.50643990929706	169.2843083900227	56	127
168.50643990929706	168.93598639455783	76	127
168.50643990929706	169.2843083900227	53	127
168.93598639455783	169.2843083900227	77	127
169.29591836734693	169.60938775510203	80	127
169.29591836734693	169.60938775510203	77	127
169.60938775510203	169.73709750566894	79	127
169.60938775510203	169.73709750566894	75	127
169.73709750566894	170.22471655328798	77	127
169.73709750566894	170.07378684807256	58	127
169.73709750566894	170.07378684807256	55	127
169.73709750566894	170.22471655328798	73	127
170.07378684807256	170.38725623582766	56	127
170.07378684807256	170.38725623582766	60	127
170.38725623582766	170.74716553287982	72	127
170.38725623582766	170.88648526077097	58	127
170.38725623582766	170.88648526077097	55	127
170.74716553287982	171.06063492063493	73	127
171.0722448979592	171.42054421768708	73	127
171.0722448979592	171.42054421768708	77	127
171.42054421768708	171.72240362811792	75	127
171.42054421768708	171.72240362811792	72	127
171.72240362811792	172.2332426303855	73	127
171.72240362811792	172.08231292517007	60	127
171.72240362811792	172.08231292517007	56	127
171.72240362811792	172.2332426303855	70	127
172.08231292517007	172.40736961451248	61	127
172.08231292517007	172.40736961451248	58	127
172.40736961451248	172.89501133786848	56	127
172.40736961451248	172.74408163265306	71	127
172.40736961451248	172.89501133786848	60	127
172.74408163265306	173.0459410430839	72	127
173.05755102040817	173.37102040816328	72	127
173.05755102040817	173.37102040816328	75	127
173.37102040816328	173.73092970521543	73	127
173.37102040816328	173.73092970521543	70	127
173.73092970521543	174.31142857142856	68	127
173.73092970521543	174.13727891156464	61	127
173.73092970521543	174.13727891156464	58	127
173.73092970521543	174.31142857142856	72	127
174.13727891156464	174.5087755102041	63	127
174.13727891156464	174.5087755102041	60	127
174.5204081632653	175.9019954648526	63	127
174.5204081632653	175.2170068027211	63	127
174.5204081632653	175.9019954648526	72	127
174.5204081632653	175.9019954648526	68	127
175.2402267573696	175.9019954648526	60	127
175.91360544217687	176.4708843537415	68	127
175.91360544217687	176.4708843537415	75	127
175.91360544217687	176.4708843537415	72	127
175.91360544217687	176.4708843537415	56	127
176.48249433106577	177.05138321995466	72	127
176.48249433106577	177.05138321995466	80	127
176.48249433106577	177.05138321995466	75	127
176.48249433106577	177.05138321995466	51	127
177.06297052154196	177.71315192743765	84	127
177.06297052154196	177.71315192743765	80	127
177.06297052154196	177.71315192743765	75	127
177.06297052154196	177.71315192743765	48	127
177.73637188208616	178.44455782312926	44	127
177.73637188208616	178.44455782312926	87	127
177.73637188208616	178.44455782312926	84	127
177.73637188208616	178.44455782312926	75	127
178.46780045351474	179.10632653061225	44	127
178.46780045351474	179.10632653061225	87	127
178.46780045351474	179.10632653061225	75	127
178.46780045351474	179.43142857142857	82	127
179.11795918367346	179.75650793650794	43	127
179.11795918367346	179.75650793650794	82	127
179.11795918367346	179.75650793650794	51	127
179.44303854875284	179.77972789115645	70	127
179.77972789115645	180.1164172335601	53	127
179.77972789115645	179.88421768707482	82	127
179.77972789115645	180.1164172335601	68	127
179.77972789115645	180.1164172335601	41	127
179.88421768707482	180.00031746031746	84	127
180.00031746031746	180.1164172335601	82	127
180.1164172335601	180.45310657596372	39	127
180.1164172335601	180.3021768707483	81	127
180.1164172335601	180.45310657596372	67	127
180.1164172335601	180.45310657596372	55	127
180.3021768707483	180.46471655328799	82	127
180.46471655328799	181.82308390022675	55	127
180.46471655328799	181.1148752834467	85	127
180.46471655328799	181.1148752834467	67	127
180.46471655328799	181.82308390022675	39	127
181.12648526077098	181.82308390022675	73	127
181.12648526077098	181.82308390022675	75	127
181.83469387755102	182.55451247165533	73	127
181.83469387755102	181.9391836734694	63	127
181.83469387755102	182.1829931972789	56	127
181.83469387755102	182.1829931972789	41	127
181.9391836734694	182.0668934240363	65	127
182.0668934240363	182.1829931972789	63	127
182.1829931972789	182.39197278911564	62	127
182.1829931972789	182.55451247165533	43	127
182.1829931972789	182.55451247165533	58	127
182.39197278911564	182.5661224489796	63	127
182.5661224489796	183.34399092970523	58	127
182.5661224489796	183.34399092970523	61	127
182.5661224489796	183.99414965986395	51	127
182.5661224489796	184.71396825396826	63	127
183.35560090702947	183.99414965986395	60	127
183.35560090702947	183.99414965986395	56	127
184.00575963718822	184.71396825396826	49	127
184.00575963718822	184.3540589569161	53	127
184.00575963718822	184.71396825396826	58	127
184.36566893424038	184.71396825396826	55	127
184.7604081632653	186.18843537414966	58	127
184.7604081632653	186.18843537414966	55	127
184.7604081632653	185.5150566893424	63	127
184.7604081632653	186.18843537414966	49	127
185.52666666666667	186.18843537414966	75	127
186.18843537414966	188.3711111111111	75	127
186.18843537414966	186.51351473922904	56	127
186.18843537414966	186.51351473922904	48	127
186.18843537414966	186.8734240362812	56	127
186.52512471655328	186.8734240362812	72	127
186.52512471655328	186.8734240362812	68	127
186.88503401360543	188.3711111111111	72	127
186.88503401360543	187.63968253968255	68	127
187.66290249433106	188.3711111111111	75	127
188.38272108843537	188.74263038548753	74	127
188.38272108843537	188.7542403628118	77	127
188.38272108843537	188.74263038548753	71	127
188.7542403628118	189.10253968253969	79	127
188.7542403628118	189.10253968253969	70	127
188.7542403628118	189.10253968253969	73	127
189.11414965986395	190.61183673469387	79	127
189.11414965986395	190.61183673469387	70	127
189.11414965986395	190.61183673469387	73	127
190.62344671201814	191.40131519274377	72	127
190.62344671201814	191.40131519274377	41	127
190.62344671201814	191.40131519274377	80	127
190.62344671201814	191.40131519274377	68	127
191.41292517006804	192.8641723356009	68	127
191.41292517006804	192.8641723356009	41	127
191.41292517006804	192.8641723356009	60	127
192.88739229024944	193.2705215419501	56	127
192.88739229024944	193.2705215419501	65	127
192.88739229024944	193.2705215419501	43	127
193.28213151927437	193.64204081632653	63	127
193.28213151927437	193.64204081632653	55	127
193.28213151927437	193.64204081632653	44	127
193.66526077097507	195.13972789115647	63	127
193.66526077097507	194.45473922902494	54	127
193.66526077097507	194.45473922902494	45	127
194.4663492063492	195.82471655328797	46	127
194.4663492063492	195.82471655328797	53	127
195.15133786848074	197.18308390022676	73	127
195.15133786848074	195.82471655328797	61	127
195.83632653061224	196.49809523809523	53	127
195.83632653061224	197.18308390022676	70	127
196.5097052154195	197.18308390022676	58	127
197.20630385487527	197.9841723356009	58	127
197.20630385487527	197.61265306122448	75	127
197.20630385487527	197.61265306122448	60	127
197.62426303854875	197.9841723356009	61	127
197.62426303854875	197.9841723356009	77	127
197.99578231292517	200.38743764172335	36	127
197.99578231292517	199.09873015873015	77	127
197.99578231292517	199.09873015873015	67	127
197.99578231292517	199.09873015873015	70	127
197.99578231292517	199.4934693877551	61	127
197.99578231292517	199.4934693877551	46	127
197.99578231292517	200.38743764172335	48	127
199.11034013605442	199.4934693877551	67	127
199.11034013605442	199.4934693877551	76	127
199.50507936507935	199.92303854875283	65	127
199.50507936507935	199.92303854875283	44	127
199.50507936507935	199.92303854875283	60	127
199.50507936507935	199.92303854875283	77	127
199.9346485260771	200.38743764172335	79	127
199.9346485260771	200.38743764172335	64	127
199.9346485260771	200.38743764172335	43	127
199.9346485260771	200.38743764172335	58	127
200.4338775510204	201.8154648526077	49	127
200.4338775510204	201.8154648526077	61	127
200.4338775510204	201.8154648526077	82	127
200.4338775510204	201.8154648526077	55	127
200.4338775510204	201.8154648526077	39	127
201.83868480725624	202.1637641723356	41	127
201.83868480725624	202.1637641723356	80	127
201.83868480725624	202.1637641723356	56	127
201.83868480725624	202.1637641723356	48	127
201.83868480725624	202.1637641723356	60	127
202.17537414965986	204.09102040816327	41	127
202.17537414965986	204.09102040816327	68	127
202.17537414965986	204.09102040816327	80	127
202.17537414965986	204.09102040816327	72	127
204.10263038548752	204.45092970521543	60	127
204.10263038548752	204.45092970521543	77	127
204.10263038548752	204.45092970521543	72	127
204.10263038548752	204.45092970521543	44	127
204.46253968253967	206.41301587301587	60	127
204.46253968253967	206.41301587301587	77	127
204.46253968253967	206.41301587301587	72	127
204.46253968253967	206.41301587301587	44	127
206.4362358276644	206.8425850340136	66	127
206.4362358276644	206.8425850340136	75	127
206.4362358276644	206.8425850340136	72	127
206.4362358276644	206.8425850340136	45	127
206.85419501133788	209.06009070294783	66	127
206.85419501133788	209.06009070294783	75	127
206.85419501133788	209.06009070294783	72	127
206.85419501133788	209.06009070294783	45	127
209.0717006802721	209.7334693877551	74	127
209.0717006802721	209.7334693877551	68	127
209.0717006802721	209.7334693877551	65	127
209.0717006802721	209.7334693877551	46	127
209.74507936507936	211.08022675736962	74	127
209.74507936507936	211.08022675736962	68	127
209.74507936507936	211.08022675736962	65	127
209.74507936507936	214.67931972789117	39	127
209.74507936507936	214.67931972789117	48	127
211.10344671201815	211.78843537414966	86	127
211.10344671201815	213.92467120181405	65	127
211.10344671201815	213.92467120181405	56	127
211.80004535147393	212.46181405895692	89	127
212.4734240362812	213.2512925170068	92	127
213.27451247165533	213.92467120181405	89	127
213.93628117913832	214.67931972789117	53	127
213.93628117913832	214.67931972789117	86	127
213.93628117913832	215.43396825396826	56	127
214.70253968253968	215.43396825396826	50	127
214.70253968253968	215.43396825396826	89	127
214.70253968253968	216.46725623582768	46	127
214.70253968253968	216.46725623582768	39	127
215.45718820861677	216.46725623582768	55	127
215.45718820861677	216.46725623582768	87	127
215.45718820861677	216.46725623582768	51	127
216.47886621315192	217.9301133786848	55	127
216.47886621315192	217.9301133786848	51	127
216.47886621315192	217.25673469387755	39	127
216.47886621315192	217.25673469387755	85	127
217.26834467120182	218.67315192743763	39	127
217.26834467120182	217.9301133786848	82	127
217.94172335600908	218.67315192743763	79	127
217.94172335600908	218.67315192743763	67	127
217.94172335600908	218.67315192743763	55	127
218.6847619047619	219.4974603174603	77	127
218.6847619047619	218.96340136054422	70	127
218.6847619047619	218.96340136054422	58	127
218.6847619047619	218.96340136054422	43	127
219.0678911564626	219.32331065759638	72	127
219.0678911564626	219.32331065759638	60	127
219.0678911564626	219.32331065759638	44	127
219.50907029478458	220.89065759637188	60	127
219.50907029478458	220.18244897959184	77	127
219.50907029478458	220.89065759637188	45	127
219.50907029478458	220.89065759637188	72	127
220.21727891156462	220.89065759637188	75	127
220.90226757369615	223.31714285714287	46	127
220.90226757369615	221.77301587301588	75	127
220.90226757369615	221.77301587301588	73	127
220.90226757369615	221.77301587301588	61	127
221.7962358276644	223.31714285714287	73	127
221.7962358276644	223.31714285714287	55	127
221.7962358276644	223.31714285714287	51	127
223.3287528344671	223.64222222222222	53	127
223.3287528344671	223.64222222222222	72	127
223.3287528344671	223.64222222222222	56	127
223.3287528344671	223.64222222222222	44	127
223.65383219954649	224.0601814058957	55	127
223.65383219954649	224.0601814058957	70	127
223.65383219954649	224.0601814058957	58	127
223.65383219954649	224.0601814058957	43	127
224.07179138321996	225.51142857142858	68	127
224.07179138321996	224.75678004535146	60	127
224.07179138321996	224.75678004535146	56	127
224.07179138321996	225.51142857142858	41	127
224.78	225.51142857142858	61	127
224.78	225.51142857142858	58	127
225.52303854875282	226.3821768707483	39	127
225.52303854875282	225.90616780045352	67	127
225.52303854875282	226.3821768707483	61	127
225.52303854875282	226.3821768707483	58	127
225.90616780045352	226.3821768707483	77	127
226.39378684807255	227.12521541950113	58	127
226.39378684807255	227.12521541950113	77	127
226.39378684807255	227.12521541950113	61	127
226.39378684807255	227.55478458049888	39	127
227.1368253968254	227.8914739229025	75	127
227.1368253968254	227.8914739229025	58	127
227.1368253968254	227.8914739229025	55	127
227.56639455782312	227.8914739229025	39	127
227.90308390022676	228.7738321995465	51	127
227.90308390022676	228.23977324263038	44	127
227.90308390022676	228.25138321995465	72	127
227.90308390022676	228.25138321995465	60	127
228.25138321995465	228.7738321995465	46	127
228.25138321995465	228.7738321995465	61	127
228.25138321995465	228.78544217687076	70	127
228.78544217687076	230.32956916099772	51	127
228.78544217687076	229.6097505668934	62	127
228.78544217687076	230.32956916099772	67	127
228.78544217687076	230.32956916099772	47	127
229.63297052154195	230.32956916099772	63	127
230.341179138322	231.8156462585034	63	127
230.341179138322	230.75913832199547	68	127
230.341179138322	231.1538775510204	51	127
230.341179138322	231.1538775510204	48	127
230.75913832199547	231.1538775510204	75	127
231.16548752834467	231.8156462585034	60	127
231.16548752834467	231.8156462585034	75	127
231.82725623582766	232.4425850340136	56	127
231.82725623582766	232.14072562358277	77	127
231.82725623582766	232.4425850340136	60	127
232.14072562358277	232.45419501133787	75	127
232.45419501133787	232.81410430839003	61	127
232.45419501133787	232.81410430839003	73	127
232.45419501133787	232.81410430839003	58	127
232.81410430839003	233.54553287981858	72	127
232.81410430839003	233.54553287981858	63	127
232.81410430839003	233.54553287981858	60	127
233.54553287981858	234.2305215419501	70	127
233.54553287981858	234.2305215419501	64	127
233.54553287981858	234.2305215419501	61	127
234.25374149659865	234.99678004535147	69	127
234.25374149659865	234.68331065759637	61	127
234.25374149659865	234.68331065759637	64	127
234.68331065759637	234.99678004535147	64	127
234.68331065759637	235.00839002267574	61	127
235.00839002267574	237.14462585034013	56	127
235.00839002267574	235.33346938775512	63	127
235.00839002267574	235.34507936507936	68	127
235.00839002267574	236.4364172335601	60	127
235.34507936507936	236.4364172335601	75	127
235.34507936507936	235.681768707483	78	127
235.69337868480724	236.80793650793652	78	127
236.44802721088436	237.14462585034013	72	127
236.44802721088436	237.14462585034013	66	127
236.80793650793652	237.1562358276644	82	127
237.1562358276644	237.51614512471656	65	127
237.1562358276644	237.51614512471656	80	127
237.1562358276644	237.51614512471656	73	127
237.1562358276644	237.51614512471656	58	127
237.51614512471656	237.92249433106576	60	127
237.51614512471656	237.92249433106576	78	127
237.51614512471656	237.92249433106576	63	127
237.51614512471656	237.94571428571427	75	127
237.94571428571427	238.71197278911563	63	127
237.94571428571427	238.71197278911563	78	127
237.94571428571427	238.71197278911563	69	127
237.94571428571427	238.71197278911563	60	127
238.73519274376417	239.94263038548752	65	127
238.73519274376417	239.94263038548752	77	127
238.73519274376417	239.94263038548752	68	127
238.73519274376417	239.94263038548752	61	127
239.96585034013606	240.30253968253967	72	127
239.96585034013606	240.30253968253967	75	127
239.96585034013606	240.30253968253967	68	127
239.96585034013606	240.30253968253967	63	127
239.96585034013606	240.30253968253967	66	127
240.31414965986394	241.06879818594103	72	127
240.31414965986394	241.06879818594103	87	127
240.31414965986394	241.06879818594103	68	127
240.31414965986394	241.06879818594103	66	127
240.31414965986394	241.06879818594103	63	127
241.09201814058957	242.13691609977323	65	127
241.09201814058957	242.13691609977323	86	127
241.09201814058957	242.13691609977323	71	127
241.09201814058957	242.13691609977323	68	127
242.1485260770975	242.50843537414966	64	127
242.1485260770975	242.50843537414966	85	127
242.1485260770975	242.50843537414966	70	127
242.1485260770975	242.50843537414966	67	127
242.52004535147393	243.23986394557824	64	127
242.52004535147393	243.23986394557824	85	127
242.52004535147393	243.23986394557824	70	127
242.52004535147393	243.23986394557824	67	127
243.2514739229025	244.44730158730158	63	127
243.2514739229025	244.44730158730158	84	127
243.2514739229025	244.44730158730158	68	127
243.2514739229025	244.44730158730158	68	127
244.45891156462585	245.0045804988662	48	127
244.45891156462585	245.0045804988662	84	127
244.45891156462585	245.0045804988662	63	127
244.45891156462585	245.0045804988662	68	127
245.01619047619047	245.77083900226756	48	127
245.01619047619047	245.77083900226756	84	127
245.01619047619047	245.77083900226756	63	127
245.01619047619047	245.77083900226756	68	127
245.78244897959183	247.024716553288	49	127
245.78244897959183	247.024716553288	82	127
245.78244897959183	247.024716553288	65	127
245.78244897959183	247.024716553288	70	127
247.03632653061226	247.37301587301587	49	127
247.03632653061226	247.37301587301587	80	127
247.03632653061226	247.37301587301587	65	127
247.03632653061226	247.37301587301587	71	127
247.38462585034014	249.64857142857142	80	127
247.38462585034014	248.19732426303855	49	127
247.38462585034014	248.19732426303855	71	127
247.38462585034014	249.0332426303855	65	127
248.20893424036282	249.0332426303855	48	127
248.20893424036282	249.0332426303855	72	127
249.04485260770974	249.9736507936508	56	127
249.04485260770974	249.64857142857142	68	127
249.04485260770974	249.9736507936508	65	127
249.04485260770974	249.9736507936508	49	127
249.64857142857142	249.9736507936508	65	127
249.64857142857142	249.9736507936508	82	127
250.00848072562357	250.38	83	127
250.00848072562357	250.38	56	127
250.00848072562357	251.63387755102042	51	127
250.00848072562357	250.92566893424035	63	127
250.38	250.93727891156462	68	127
250.38	250.92566893424035	84	127
250.93727891156462	252.05183673469386	70	127
250.93727891156462	251.63387755102042	82	127
250.93727891156462	252.05183673469386	61	127
251.64548752834466	252.70199546485262	51	127
251.64548752834466	252.70199546485262	79	127
252.06344671201813	252.70199546485262	73	127
252.06344671201813	252.70199546485262	58	127
252.72521541950113	253.74689342403627	51	127
252.72521541950113	253.74689342403627	79	127
252.72521541950113	253.74689342403627	73	127
252.72521541950113	253.74689342403627	58	127
253.7701133786848	254.79179138321996	60	127
253.7701133786848	254.28095238095239	80	127
253.7701133786848	254.28095238095239	72	127
253.7701133786848	254.79179138321996	56	127
254.28095238095239	254.80340136054423	72	127
254.28095238095239	254.80340136054423	63	127
254.80340136054423	255.23297052154194	60	127
254.80340136054423	255.22136054421767	51	127
254.80340136054423	255.23297052154194	77	127
254.80340136054423	255.23297052154194	44	127
255.23297052154194	255.79024943310657	48	127
255.23297052154194	255.79024943310657	75	127
255.23297052154194	255.79024943310657	63	127
255.23297052154194	255.79024943310657	45	127
255.80185941043084	256.5100680272109	45	127
255.80185941043084	256.5100680272109	63	127
255.80185941043084	256.5100680272109	48	127
255.80185941043084	256.9048072562358	75	127
256.5332879818594	256.9048072562358	49	127
256.5332879818594	256.9048072562358	61	127
256.5332879818594	257.4388662131519	46	127
256.9164172335601	257.4388662131519	61	127
256.9164172335601	257.4388662131519	79	127
256.9164172335601	257.86843537414967	51	127
257.4504761904762	257.8916553287982	43	127
257.4504761904762	257.86843537414967	58	127
257.4504761904762	257.86843537414967	79	127
257.8916553287982	258.2283446712018	41	127
257.8916553287982	258.2283446712018	80	127
257.8916553287982	258.2283446712018	56	127
257.8916553287982	258.2283446712018	51	127
258.23995464852607	258.9829931972789	41	127
258.23995464852607	258.9829931972789	55	127
258.23995464852607	259.7492290249433	81	127
258.9946031746032	260.8173696145125	67	127
258.9946031746032	259.7492290249433	39	127
258.9946031746032	261.27015873015876	55	127
259.7608616780045	260.4458503401361	82	127
259.7608616780045	260.1207709750567	39	127
260.1207709750567	260.4458503401361	52	127
260.1207709750567	260.4458503401361	49	127
260.45746031746035	261.68809523809523	82	127
260.45746031746035	262.164126984127	49	127
260.45746031746035	262.164126984127	52	127
260.92185941043084	261.27015873015876	64	127
261.281746031746	262.164126984127	64	127
261.69972789115644	261.9087074829932	84	127
261.9087074829932	262.18734693877553	82	127
262.18734693877553	262.5704761904762	48	127
262.18734693877553	262.5704761904762	80	127
262.18734693877553	262.5704761904762	63	127
262.18734693877553	262.5704761904762	51	127
262.5704761904762	262.95360544217687	79	127
262.5704761904762	262.95360544217687	61	127
262.5704761904762	262.95360544217687	49	127
262.5704761904762	262.95360544217687	46	127
262.95360544217687	263.68503401360545	77	127
262.95360544217687	264.4280725623583	60	127
262.95360544217687	264.4280725623583	48	127
262.95360544217687	264.4280725623583	44	127
263.6966439909297	264.4280725623583	75	127
264.43968253968256	266.7152380952381	58	127
264.43968253968256	264.84603174603177	75	127
264.43968253968256	265.2407709750567	43	127
264.43968253968256	266.7152380952381	49	127
264.84603174603177	265.2407709750567	87	127
265.26396825396824	266.3669387755102	87	127
265.26396825396824	266.7152380952381	67	127
266.39013605442176	266.72684807256235	79	127
266.72684807256235	267.10995464852607	65	127
266.72684807256235	267.10995464852607	80	127
266.72684807256235	267.10995464852607	56	127
266.72684807256235	267.10995464852607	48	127
267.10995464852607	267.4582766439909	55	127
267.10995464852607	267.4582766439909	82	127
267.10995464852607	267.4582766439909	49	127
267.10995464852607	267.4582766439909	63	127
267.4698866213152	268.5728344671202	55	127
267.4698866213152	268.5728344671202	49	127
267.4698866213152	268.9559410430839	63	127
267.4698866213152	268.5728344671202	83	127
268.58444444444444	268.9559410430839	84	127
268.58444444444444	268.9559410430839	56	127
268.58444444444444	268.9559410430839	48	127
268.9675736961451	269.8731292517007	84	127
268.9675736961451	269.5132426303855	56	127
268.9675736961451	269.5132426303855	48	127
268.9675736961451	269.8731292517007	51	127
269.5132426303855	269.8731292517007	56	127
269.5132426303855	269.8731292517007	60	127
269.8847619047619	270.2794784580499	84	127
269.8847619047619	271.4521088435374	51	127
269.8847619047619	270.2794784580499	60	127
269.8847619047619	270.2794784580499	56	127
270.2794784580499	270.7439002267574	83	127
270.2794784580499	270.7439002267574	61	127
270.2794784580499	270.7439002267574	55	127
270.7439002267574	271.1154195011338	60	127
270.7439002267574	271.0921768707483	56	127
270.7439002267574	271.1154195011338	84	127
271.1154195011338	271.4637188208617	72	127
271.1154195011338	271.4637188208617	56	127
271.4637188208617	271.8119954648526	73	127
271.4637188208617	271.8119954648526	70	127
271.4637188208617	271.8119954648526	58	127
271.4637188208617	271.8119954648526	49	127
271.8119954648526	272.1370975056689	75	127
271.8119954648526	272.1254648526077	48	127
271.8119954648526	272.1370975056689	68	127
271.8119954648526	272.1370975056689	60	127
272.1370975056689	272.75242630385486	63	127
272.1370975056689	272.75242630385486	61	127
272.1370975056689	272.450566893424	77	127
272.1370975056689	273.4722448979592	46	127
272.450566893424	272.76403628117913	75	127
272.76403628117913	273.14714285714285	77	127
272.76403628117913	273.4722448979592	61	127
272.76403628117913	273.4722448979592	63	127
273.14714285714285	273.4722448979592	79	127
273.48385487528344	273.7857142857143	79	127
273.48385487528344	274.0991836734694	60	127
273.48385487528344	274.0991836734694	63	127
273.48385487528344	274.0991836734694	44	127
273.7857142857143	274.0991836734694	80	127
274.11079365079365	274.7145124716553	42	127
274.11079365079365	274.42426303854876	80	127
274.11079365079365	274.42426303854876	63	127
274.11079365079365	274.42426303854876	60	127
274.42426303854876	274.7261224489796	58	127
274.42426303854876	274.7145124716553	82	127
274.42426303854876	274.7261224489796	61	127
274.7261224489796	275.06281179138324	82	127
274.7261224489796	275.0744217687075	60	127
274.7261224489796	275.0744217687075	56	127
274.7261224489796	275.43433106575964	54	127
275.0744217687075	275.4459410430839	80	127
275.0744217687075	275.4459410430839	63	127
275.0744217687075	275.4459410430839	60	127
275.4459410430839	275.84068027210884	82	127
275.4459410430839	275.84068027210884	65	127
275.4459410430839	275.84068027210884	61	127
275.4459410430839	275.84068027210884	53	127
275.84068027210884	276.2702494331066	84	127
275.84068027210884	276.2702494331066	66	127
275.84068027210884	276.2702494331066	51	127
275.84068027210884	276.28185941043085	63	127
276.28185941043085	276.9900680272109	84	127
276.28185941043085	276.9900680272109	66	127
276.28185941043085	276.9900680272109	56	127
276.28185941043085	276.9900680272109	51	127
277.01328798185943	278.05818594104306	85	127
277.01328798185943	278.05818594104306	65	127
277.01328798185943	278.05818594104306	68	127
277.01328798185943	278.05818594104306	49	127
278.06979591836733	278.406485260771	87	127
278.06979591836733	278.406485260771	63	127
278.06979591836733	278.406485260771	68	127
278.06979591836733	278.406485260771	48	127
278.41809523809525	279.2191836734694	87	127
278.41809523809525	279.2191836734694	68	127
278.41809523809525	279.2191836734694	63	127
278.41809523809525	279.2191836734694	60	127
279.23079365079366	280.2873015873016	89	127
279.23079365079366	280.2873015873016	68	127
279.23079365079366	280.2873015873016	62	127
279.23079365079366	280.2873015873016	58	127
280.2988888888889	280.72848072562357	91	127
280.2988888888889	280.72848072562357	70	127
280.2988888888889	280.72848072562357	61	127
280.2988888888889	280.72848072562357	52	127
280.74009070294784	281.5179591836735	91	127
280.74009070294784	281.5179591836735	70	127
280.74009070294784	281.5179591836735	61	127
280.74009070294784	281.5179591836735	52	127
281.52954648526077	283.00403628117914	92	127
281.52954648526077	283.00403628117914	68	127
281.52954648526077	283.00403628117914	60	127
281.52954648526077	283.00403628117914	51	127
283.0156462585034	283.4684126984127	92	127
283.0156462585034	283.4684126984127	68	127
283.0156462585034	283.4684126984127	48	127
283.0156462585034	283.4684126984127	39	127
283.4800453514739	284.234693877551	92	127
283.4800453514739	284.234693877551	68	127
283.4800453514739	284.234693877551	60	127
283.4800453514739	284.234693877551	39	127
284.2463038548753	285.76721088435374	94	127
284.2463038548753	285.76721088435374	68	127
284.2463038548753	285.76721088435374	53	127
284.2463038548753	285.76721088435374	56	127
284.2463038548753	285.76721088435374	37	127
285.7904308390023	286.1967800453515	77	127
285.7904308390023	286.1967800453515	95	127
285.7904308390023	286.1967800453515	53	127
285.7904308390023	286.1967800453515	56	127
285.7904308390023	286.1967800453515	37	127
286.20839002267576	286.9746485260771	37	127
286.20839002267576	286.9746485260771	95	127
286.20839002267576	286.9746485260771	53	127
286.20839002267576	288.1008163265306	77	127
286.20839002267576	286.9746485260771	56	127
286.99786848072563	287.7409070294785	56	127
286.99786848072563	287.7409070294785	96	127
286.99786848072563	287.7409070294785	53	127
286.99786848072563	287.7409070294785	36	127
287.75251700680275	288.1008163265306	92	127
287.75251700680275	289.13410430839	37	127
287.75251700680275	289.13410430839	53	127
288.1008163265306	288.43750566893425	89	127
288.1008163265306	288.43750566893425	73	127
288.43750566893425	289.13410430839	72	127
288.43750566893425	289.13410430839	87	127
289.1457142857143	290.20222222222225	85	127
289.1457142857143	290.20222222222225	70	127
289.1457142857143	290.20222222222225	55	127
289.1457142857143	290.20222222222225	39	127
290.2138095238095	291.38643990929705	39	127
290.2138095238095	290.60857142857145	82	127
290.2138095238095	290.60857142857145	67	127
290.2138095238095	290.60857142857145	61	127
290.6201587301587	291.38643990929705	60	127
290.6201587301587	291.38643990929705	63	127
290.6201587301587	291.38643990929705	80	127
291.3980498866213	292.3152380952381	72	127
291.3980498866213	292.9189569160998	68	127
291.3980498866213	292.9189569160998	60	127
291.3980498866213	292.9189569160998	51	127
292.33845804988664	292.93056689342404	68	127
292.93056689342404	293.9058049886621	60	127
292.93056689342404	293.9058049886621	69	127
292.93056689342404	293.9058049886621	63	127
292.93056689342404	293.9058049886621	51	127
293.9174149659864	294.8113605442177	69	127
293.9174149659864	294.8113605442177	60	127
293.9174149659864	294.8113605442177	63	127
293.9174149659864	295.2177324263039	51	127
294.82297052154195	295.7169614512472	55	127
294.82297052154195	296.2161904761905	61	127
294.82297052154195	296.2161904761905	70	127
295.22931972789115	295.7169614512472	51	127
295.75179138321994	296.22780045351476	51	127
295.75179138321994	296.22780045351476	58	127
296.22780045351476	296.7966893424036	67	127
296.22780045351476	296.7966893424036	58	127
296.22780045351476	296.7966893424036	49	127
296.22780045351476	296.7966893424036	75	127
296.81990929705216	297.7138775510204	63	127
296.81990929705216	298.59621315192743	75	127
296.81990929705216	298.59621315192743	67	127
296.81990929705216	298.59621315192743	48	127
297.7254875283447	298.59621315192743	51	127
298.60784580498864	299.36249433106576	68	127
298.60784580498864	299.36249433106576	60	127
298.60784580498864	299.36249433106576	54	127
298.60784580498864	299.36249433106576	51	127
299.36249433106576	299.73401360544216	75	127
299.36249433106576	299.73401360544216	67	127
299.36249433106576	299.73401360544216	51	127
299.36249433106576	299.73401360544216	48	127
299.73401360544216	301.2897505668934	73	127
299.73401360544216	301.2897505668934	65	127
299.73401360544216	301.2897505668934	53	127
299.73401360544216	301.2897505668934	49	127
301.31297052154196	301.75414965986397	61	127
301.31297052154196	301.75414965986397	56	127
301.31297052154196	301.75414965986397	52	127
301.31297052154196	301.75414965986397	68	127
301.75414965986397	302.21854875283447	73	127
301.75414965986397	302.21854875283447	52	127
301.75414965986397	304.0297052154195	68	127
301.75414965986397	302.21854875283447	49	127
302.21854875283447	304.01807256235827	72	127
302.21854875283447	304.01807256235827	56	127
302.21854875283447	304.01807256235827	51	127
304.0297052154195	304.6102040816327	68	127
304.0297052154195	304.6102040816327	63	127
304.0297052154195	304.6102040816327	60	127
304.0297052154195	304.6102040816327	56	127
304.6102040816327	304.99333333333334	60	127
304.6102040816327	304.99333333333334	72	127
304.6102040816327	304.99333333333334	56	127
304.6102040816327	306.66517006802724	51	127
304.99333333333334	307.22244897959183	58	127
304.99333333333334	307.22244897959183	61	127
304.99333333333334	306.6419501133787	63	127
306.66517006802724	307.22244897959183	63	127
306.66517006802724	307.22244897959183	55	127
307.22244897959183	307.5939455782313	79	127
307.22244897959183	307.5939455782313	73	127
307.22244897959183	307.5939455782313	70	127
307.22244897959183	307.5939455782313	64	127
307.5939455782313	308.4879365079365	70	127
307.5939455782313	308.4879365079365	80	127
307.5939455782313	308.4879365079365	74	127
307.5939455782313	308.4879365079365	65	127
309.67215419501133	310.11333333333334	74	127
309.67215419501133	310.6357823129252	70	127
309.67215419501133	310.11333333333334	65	127
309.67215419501133	310.11333333333334	80	127
310.11333333333334	310.6357823129252	82	127
310.11333333333334	310.6357823129252	73	127
310.11333333333334	310.6357823129252	67	127
312.4121088435374	312.8184580498866	82	127
312.4121088435374	312.8184580498866	73	127
312.4121088435374	312.8184580498866	70	127
312.4121088435374	312.8184580498866	67	127
312.8184580498866	313.59632653061226	72	127
312.8184580498866	313.59632653061226	72	127
312.8184580498866	313.59632653061226	68	127
312.8184580498866	313.59632653061226	75	127
313.9794557823129	314.14197278911564	51	127
313.9794557823129	314.14197278911564	51	127
314.7108843537415	314.87342403628116	50	127
314.7108843537415	314.87342403628116	51	127
315.0591609977324	315.6861224489796	63	127
315.37265306122447	315.51197278911565	49	127
315.37265306122447	315.51197278911565	51	127
315.7093424036281	315.86027210884356	65	127
315.87185941043083	315.9763492063492	67	127
315.9879818594104	316.1505215419501	68	127
315.9879818594104	316.23179138321996	48	127
315.9879818594104	316.23179138321996	51	127
316.3362811791383	317.00965986394556	62	127
316.7078004535147	316.9283900226757	48	127
316.7078004535147	316.9283900226757	44	127
316.7078004535147	316.9283900226757	51	127
317.0212698412698	317.18380952380954	63	127
317.18380952380954	317.3579591836735	71	127
317.3579591836735	317.52049886621313	72	127
317.3579591836735	317.601768707483	48	127
317.3579591836735	317.601768707483	44	127
317.3579591836735	317.601768707483	51	127
317.72947845804987	318.30997732426306	67	127
318.05455782312924	318.1938775510204	44	127
318.05455782312924	318.1938775510204	51	127
318.05455782312924	318.1938775510204	48	127
318.32158730158733	318.5189569160998	68	127
318.5189569160998	318.6698866213152	72	127
318.6698866213152	318.8324263038549	75	127
318.6698866213152	318.91369614512473	48	127
318.6698866213152	318.91369614512473	44	127
318.6698866213152	318.91369614512473	51	127
319.04138321995464	319.21555555555557	60	127
319.04138321995464	319.5638321995465	84	127
319.2852154195011	319.49419501133787	44	127
319.2852154195011	319.49419501133787	48	127
319.2852154195011	319.49419501133787	51	127
319.5754648526077	319.77283446712016	82	127
319.5754648526077	319.7496145124717	72	127
319.77283446712016	319.9237641723356	80	127
319.9237641723356	320.1095238095238	44	127
319.9237641723356	320.1095238095238	51	127
319.9237641723356	320.03986394557825	79	127
319.9237641723356	320.1095238095238	48	127
320.2372335600907	320.8293424036281	78	127
320.2372335600907	320.3417233560091	60	127
320.4578231292517	320.7132426303855	48	127
320.4578231292517	320.7132426303855	44	127
320.4578231292517	320.7132426303855	51	127
320.85256235827666	321.03832199546486	77	127
320.85256235827666	321.0151020408163	75	127
321.03832199546486	321.22408163265305	75	127
321.22408163265305	321.36340136054423	73	127
321.22408163265305	321.36340136054423	49	127
321.22408163265305	321.36340136054423	46	127
321.22408163265305	321.36340136054423	51	127
321.4330612244898	322.0716099773243	77	127
321.4330612244898	321.57238095238097	55	127
321.7465306122449	321.9671201814059	46	127
321.7465306122449	321.9671201814059	49	127
321.7465306122449	321.9671201814059	51	127
322.0948299319728	322.26897959183674	76	127
322.0948299319728	322.25736961451247	73	127
322.0948299319728	322.25736961451247	67	127
322.26897959183674	322.45473922902494	75	127
322.45473922902494	322.71015873015875	46	127
322.45473922902494	322.6288662131519	74	127
322.45473922902494	322.71015873015875	49	127
322.45473922902494	322.71015873015875	51	127
322.80303854875285	323.39514739229026	73	127
322.80303854875285	322.95396825396824	67	127
323.0700680272109	323.2790476190476	49	127
323.0700680272109	323.2790476190476	46	127
323.0700680272109	323.2790476190476	51	127
323.4067573696145	323.58090702947845	79	127
323.4067573696145	323.5925170068027	70	127
323.5925170068027	323.6970068027211	68	127
323.6970068027211	323.85954648526075	51	127
323.6970068027211	323.824716553288	67	127
323.6970068027211	323.85954648526075	49	127
323.6970068027211	323.85954648526075	46	127
323.9175963718821	324.62580498866214	85	127
323.9175963718821	324.0685260770975	55	127
324.265873015873	324.5097052154195	49	127
324.265873015873	324.5097052154195	46	127
324.265873015873	324.5097052154195	51	127
324.6374149659864	324.8231746031746	84	127
324.6374149659864	324.81156462585034	67	127
324.8231746031746	324.97408163265305	82	127
324.97408163265305	325.1366439909297	46	127
324.97408163265305	325.06698412698415	80	127
324.97408163265305	325.1366439909297	49	127
324.97408163265305	325.1366439909297	51	127
325.25274376417235	325.81002267573695	79	127
325.25274376417235	325.4268934240363	75	127
325.589410430839	325.7055328798186	51	127
325.589410430839	325.7055328798186	50	127
325.589410430839	325.7055328798186	47	127
325.8216326530612	325.98417233560093	75	127
325.8216326530612	326.0073922902494	77	127
326.0073922902494	326.1815419501134	76	127
326.1815419501134	326.34408163265306	75	127
326.1815419501134	326.4137188208617	51	127
326.1815419501134	326.4137188208617	48	127
326.5414512471655	326.70399092970524	63	127
326.5414512471655	327.18	80	127
326.5414512471655	326.70399092970524	60	127
326.88975056689344	327.0987301587302	56	127
326.88975056689344	327.0987301587302	48	127
327.20321995464855	327.35414965986394	80	127
327.20321995464855	327.35414965986394	75	127
327.35414965986394	327.5050793650794	76	127
327.5050793650794	327.7140589569161	49	127
327.5050793650794	327.6443990929705	77	127
327.5050793650794	327.7140589569161	56	127
327.841746031746	328.01591836734696	65	127
327.841746031746	328.4106575963719	77	127
328.10879818594105	328.34099773242633	56	127
328.10879818594105	328.34099773242633	61	127
328.42226757369616	328.57319727891155	65	127
328.42226757369616	328.5848072562358	76	127
328.5848072562358	328.7589342403628	75	127
328.7589342403628	328.96791383219954	53	127
328.7589342403628	328.88666666666666	73	127
328.7589342403628	328.96791383219954	56	127
329.0840362811791	329.6877551020408	75	127
329.0840362811791	329.2581859410431	63	127
329.37426303854875	329.5716326530612	58	127
329.37426303854875	329.5716326530612	55	127
329.69936507936507	329.87351473922905	74	127
329.69936507936507	329.8619047619048	75	127
329.87351473922905	330.047664399093	73	127
330.047664399093	330.27986394557826	60	127
330.047664399093	330.19859410430837	72	127
330.047664399093	330.27986394557826	56	127
330.3959410430839	330.99968253968257	85	127
330.3959410430839	330.5468934240363	63	127
330.70943310657594	330.8951927437642	61	127
330.70943310657594	330.8951927437642	58	127
331.01126984126984	331.1157596371882	75	127
331.01126984126984	331.1273922902494	82	127
331.1273922902494	331.28993197278913	79	127
331.28993197278913	331.5337414965986	60	127
331.28993197278913	331.4524716553288	80	127
331.28993197278913	331.5337414965986	63	127
331.66145124716553	332.2187301587302	84	127
331.66145124716553	331.812380952381	60	127
331.66145124716553	331.812380952381	63	127
331.9400907029478	332.1142403628118	56	127
331.9400907029478	332.1142403628118	63	127
331.9400907029478	332.1142403628118	51	127
331.9400907029478	332.1142403628118	60	127
332.23031746031745	332.4277097505669	82	127
332.23031746031745	332.4044897959184	60	127
332.23031746031745	332.4044897959184	68	127
332.4277097505669	332.5786394557823	80	127
332.5786394557823	332.7992290249433	60	127
332.5786394557823	332.7992290249433	56	127
332.5786394557823	332.7992290249433	63	127
332.5786394557823	332.7992290249433	51	127
332.5786394557823	332.9037188208617	79	127
332.9037188208617	333.0894784580499	80	127
332.9037188208617	333.0778684807256	63	127
332.9037188208617	333.0778684807256	72	127
333.0894784580499	333.22879818594106	82	127
333.22879818594106	333.4377777777778	60	127
333.22879818594106	333.4377777777778	56	127
333.22879818594106	333.4377777777778	63	127
333.22879818594106	333.4377777777778	51	127
333.22879818594106	333.5654648526077	80	127
333.5654648526077	333.6815873015873	75	127
333.5654648526077	333.6815873015873	72	127
333.5654648526077	333.6815873015873	80	127
333.6815873015873	333.83251700680273	72	127
333.83251700680273	334.0763038548753	58	127
333.83251700680273	334.0763038548753	55	127
333.83251700680273	334.0763038548753	63	127
333.83251700680273	334.0763038548753	51	127
333.83251700680273	334.19242630385486	70	127
334.2040362811791	334.50589569160996	63	127
334.2040362811791	334.4478458049887	51	127
334.2040362811791	334.4478458049887	55	127
334.2040362811791	334.4478458049887	58	127
334.2040362811791	334.73809523809524	85	127
334.50589569160996	334.64521541950114	51	127
334.50589569160996	334.64521541950114	63	127
334.50589569160996	334.64521541950114	55	127
334.7613151927438	334.9819047619048	55	127
334.7613151927438	334.9819047619048	61	127
334.7613151927438	335.0979818594104	75	127
334.7613151927438	334.947074829932	84	127
334.7613151927438	334.9819047619048	51	127
334.947074829932	335.10961451247164	82	127
335.10961451247164	335.2605442176871	51	127
335.10961451247164	335.2489342403628	80	127
335.10961451247164	335.2605442176871	63	127
335.10961451247164	335.2605442176871	55	127
335.2489342403628	335.388253968254	79	127
335.388253968254	335.59723356009073	61	127
335.388253968254	335.5275736961451	82	127
335.388253968254	335.59723356009073	51	127
335.388253968254	335.59723356009073	55	127
335.388253968254	335.6901133786848	63	127
335.5275736961451	335.7017233560091	75	127
335.7017233560091	335.875873015873	77	127
335.7017233560091	335.89909297052156	63	127
335.7017233560091	335.89909297052156	58	127
335.7017233560091	335.89909297052156	51	127
335.875873015873	335.9455328798186	75	127
335.9455328798186	336.3518820861678	75	127
335.9455328798186	336.1661224489796	77	127
335.9455328798186	336.22414965986394	51	127
335.9455328798186	336.22414965986394	58	127
335.9455328798186	336.22414965986394	61	127
336.1661224489796	336.37510204081633	79	127
336.37510204081633	336.7349886621315	80	127
336.37510204081633	336.5608616780045	68	127
336.37510204081633	336.6189115646259	63	127
336.37510204081633	336.6189115646259	60	127
336.37510204081633	336.6189115646259	51	127
336.5608616780045	336.7349886621315	67	127
336.7349886621315	336.9207709750567	60	127
336.7349886621315	336.86272108843536	68	127
336.7349886621315	336.9207709750567	51	127
336.7349886621315	337.3039002267574	63	127
336.86272108843536	337.00204081632654	63	127
337.00204081632654	337.1065306122449	68	127
337.00204081632654	337.17619047619047	51	127
337.00204081632654	337.17619047619047	44	127
337.00204081632654	337.17619047619047	60	127
337.1065306122449	337.3039002267574	63	127
337.3039002267574	337.53609977324265	48	127
337.3039002267574	337.3967800453515	63	127
337.3039002267574	337.53609977324265	51	127
337.3039002267574	337.4896598639456	65	127
337.3967800453515	337.4896598639456	65	127
337.4896598639456	337.6638095238095	67	127
337.4896598639456	337.5709297052154	62	127
337.5709297052154	337.6638095238095	63	127
337.6638095238095	337.81473922902495	44	127
337.6638095238095	337.75666666666666	68	127
337.6638095238095	337.81473922902495	60	127
337.6638095238095	337.81473922902495	51	127
337.75666666666666	337.94244897959186	67	127
337.94244897959186	338.6158276643991	75	127
337.94244897959186	338.1049886621315	68	127
337.94244897959186	338.1514285714286	48	127
337.94244897959186	338.1514285714286	51	127
338.1049886621315	338.25591836734696	63	127
338.25591836734696	338.44167800453516	65	127
338.25591836734696	338.49972789115645	60	127
338.25591836734696	338.49972789115645	51	127
338.25591836734696	338.49972789115645	44	127
338.44167800453516	338.6158276643991	67	127
338.6158276643991	338.81319727891156	48	127
338.6158276643991	338.68548752834465	75	127
338.6158276643991	338.81319727891156	51	127
338.6158276643991	338.75514739229027	68	127
338.68548752834465	338.75514739229027	77	127
338.75514739229027	338.9292970521542	70	127
338.75514739229027	338.8364172335601	74	127
338.8364172335601	338.9292970521542	75	127
338.9292970521542	339.21954648526076	63	127
338.9292970521542	339.04539682539684	84	127
338.9292970521542	339.1150566893424	60	127
338.9292970521542	339.1150566893424	51	127
338.9292970521542	339.1150566893424	44	127
339.04539682539684	339.23115646258503	79	127
339.23115646258503	339.41691609977323	80	127
339.23115646258503	339.44013605442177	48	127
339.23115646258503	339.44013605442177	51	127
339.23115646258503	339.8697052154195	72	127
339.41691609977323	339.54462585034014	79	127
339.54462585034014	339.71877551020407	80	127
339.54462585034014	339.7768253968254	60	127
339.54462585034014	339.7768253968254	51	127
339.54462585034014	339.7768253968254	44	127
339.71877551020407	339.8697052154195	83	127
339.8697052154195	339.9277551020408	72	127
339.8697052154195	339.9741950113379	84	127
339.8697052154195	340.0322448979592	48	127
339.8697052154195	340.0322448979592	51	127
339.9277551020408	339.9741950113379	73	127
339.9741950113379	340.067074829932	71	127
339.9741950113379	340.1599546485261	83	127
340.067074829932	340.1599546485261	72	127
340.1599546485261	340.4037641723356	51	127
340.1599546485261	340.3457142857143	84	127
340.1599546485261	340.4037641723356	60	127
340.1599546485261	340.4037641723356	44	127
340.3457142857143	340.4618140589569	85	127
340.4618140589569	340.63596371882085	87	127
340.4618140589569	340.6591836734694	48	127
340.4618140589569	340.6591836734694	51	127
340.4618140589569	341.1003628117914	68	127
340.63596371882085	340.775283446712	86	127
340.775283446712	340.92619047619047	87	127
340.775283446712	340.98426303854876	63	127
340.775283446712	340.98426303854876	56	127
340.775283446712	340.98426303854876	47	127
340.92619047619047	341.1003628117914	88	127
341.1003628117914	341.1932426303855	68	127
341.1003628117914	341.26290249433106	89	127
341.1003628117914	341.3325396825397	51	127
341.1003628117914	341.3325396825397	51	127
341.1932426303855	341.26290249433106	70	127
341.26290249433106	341.35578231292516	67	127
341.26290249433106	341.44866213151926	87	127
341.35578231292516	341.44866213151926	68	127
341.44866213151926	341.657641723356	63	127
341.44866213151926	341.5995918367347	75	127
341.44866213151926	341.657641723356	55	127
341.44866213151926	341.657641723356	46	127
341.44866213151926	341.7505215419501	85	127
341.5995918367347	341.77374149659863	73	127
341.77374149659863	341.90145124716554	55	127
341.77374149659863	341.90145124716554	72	127
341.77374149659863	341.90145124716554	51	127
341.77374149659863	341.90145124716554	51	127
341.77374149659863	342.3310204081633	63	127
341.90145124716554	342.0175510204082	73	127
342.0175510204082	342.21492063492065	46	127
342.0175510204082	342.15684807256235	75	127
342.0175510204082	342.21492063492065	63	127
342.0175510204082	342.21492063492065	55	127
342.15684807256235	342.3310204081633	73	127
342.3310204081633	342.4239002267574	63	127
342.3310204081633	342.5051700680272	77	127
342.3310204081633	342.5748299319728	51	127
342.3310204081633	342.5748299319728	51	127
342.3310204081633	342.5748299319728	55	127
342.4239002267574	342.5051700680272	65	127
342.5051700680272	342.6096598639456	62	127
342.5051700680272	342.7025396825397	73	127
342.6096598639456	342.7025396825397	63	127
342.7025396825397	342.8186394557823	72	127
342.7025396825397	342.8650566893424	63	127
342.7025396825397	342.8650566893424	55	127
342.7025396825397	342.8650566893424	49	127
342.8186394557823	342.981179138322	70	127
342.981179138322	343.1785260770975	55	127
342.981179138322	343.1321088435374	73	127
342.981179138322	343.1785260770975	51	127
342.981179138322	343.1785260770975	51	127
342.981179138322	343.53845804988663	61	127
343.1321088435374	343.30625850340135	70	127
343.30625850340135	343.39913832199545	68	127
343.30625850340135	343.44557823129253	63	127
343.30625850340135	343.44557823129253	55	127
343.30625850340135	343.44557823129253	46	127
343.39913832199545	343.53845804988663	67	127
343.53845804988663	343.74743764172337	51	127
343.53845804988663	343.6081179138322	73	127
343.53845804988663	343.6893650793651	70	127
343.53845804988663	343.74743764172337	55	127
343.53845804988663	343.74743764172337	51	127
343.6081179138322	343.6893650793651	75	127
343.6893650793651	343.8751473922903	68	127
343.6893650793651	343.7822448979592	72	127
343.7822448979592	343.8751473922903	73	127
343.8751473922903	344.084126984127	63	127
343.8751473922903	344.084126984127	55	127
343.8751473922903	344.084126984127	46	127
343.8751473922903	344.1770068027211	67	127
343.8751473922903	344.02607709750566	67	127
344.02607709750566	344.1886167800454	77	127
344.1886167800454	344.8736054421769	67	127
344.1886167800454	344.35115646258504	76	127
344.1886167800454	344.40920634920633	51	127
344.1886167800454	344.40920634920633	55	127
344.1886167800454	344.40920634920633	51	127
344.35115646258504	344.5020634920635	75	127
344.5020634920635	344.74589569161	56	127
344.5020634920635	344.6878458049887	74	127
344.5020634920635	344.74589569161	63	127
344.5020634920635	344.74589569161	48	127
344.6878458049887	344.8736054421769	75	127
344.8736054421769	344.9548752834467	68	127
344.8736054421769	345.0013151927438	85	127
344.8736054421769	345.0477551020408	56	127
344.8736054421769	345.0477551020408	51	127
344.9548752834467	345.0013151927438	70	127
345.0013151927438	345.1522448979592	84	127
345.0013151927438	345.0825850340136	67	127
345.0825850340136	345.1522448979592	68	127
345.1522448979592	345.2683446712018	82	127
345.1522448979592	345.3380045351474	63	127
345.1522448979592	345.3380045351474	58	127
345.1522448979592	345.3380045351474	49	127
345.2683446712018	345.44249433106575	84	127
345.44249433106575	346.02299319727894	70	127
345.44249433106575	345.60503401360546	85	127
345.44249433106575	345.674693877551	58	127
345.44249433106575	345.674693877551	51	127
345.60503401360546	345.79079365079366	86	127
345.79079365079366	345.895283446712	58	127
345.79079365079366	345.83721088435374	87	127
345.79079365079366	345.895283446712	63	127
345.79079365079366	345.895283446712	43	127
345.83721088435374	346.02299319727894	82	127
346.02299319727894	346.11587301587304	70	127
346.02299319727894	346.1855328798186	87	127
346.02299319727894	346.24356009070294	55	127
346.02299319727894	346.24356009070294	51	127
346.11587301587304	346.1855328798186	72	127
346.1855328798186	346.2784126984127	68	127
346.1855328798186	346.3712925170068	85	127
346.2784126984127	346.3712925170068	70	127
346.3712925170068	346.52222222222224	60	127
346.3712925170068	346.47578231292516	71	127
346.3712925170068	346.52222222222224	48	127
346.3712925170068	346.52222222222224	44	127
346.3712925170068	346.6267120181406	84	127
346.47578231292516	346.6383219954649	72	127
346.6383219954649	346.83569160997735	73	127
346.6383219954649	346.89374149659864	56	127
346.6383219954649	346.89374149659864	48	127
346.6383219954649	346.89374149659864	48	127
346.6383219954649	347.3581405895692	60	127
346.83569160997735	346.98662131519274	72	127
347.0098412698413	347.2304308390023	48	127
347.0098412698413	347.2304308390023	55	127
347.0098412698413	347.2304308390023	40	127
347.0098412698413	347.1839909297052	72	127
347.1839909297052	347.3581405895692	70	127
347.3581405895692	347.5903401360544	48	127
347.3581405895692	347.4510204081633	60	127
347.3581405895692	347.5439002267574	68	127
347.3581405895692	347.5903401360544	48	127
347.4510204081633	347.5439002267574	61	127
347.5439002267574	347.61356009070295	59	127
347.5439002267574	347.6948299319728	67	127
347.61356009070295	347.6948299319728	60	127
347.6948299319728	347.8573696145125	68	127
347.6948299319728	347.9154195011338	60	127
347.6948299319728	347.9154195011338	48	127
347.6948299319728	347.9154195011338	41	127
347.8573696145125	347.97344671201813	67	127
347.97344671201813	348.1940589569161	48	127
347.97344671201813	348.14761904761906	65	127
347.97344671201813	348.1940589569161	56	127
347.97344671201813	348.1940589569161	48	127
347.97344671201813	348.56557823129253	77	127
348.14761904761906	348.27532879818597	64	127
348.27532879818597	348.47269841269843	60	127
348.27532879818597	348.47269841269843	48	127
348.27532879818597	348.47269841269843	45	127
348.27532879818597	348.42625850340136	65	127
348.42625850340136	348.56557823129253	60	127
348.56557823129253	348.7281179138322	67	127
348.56557823129253	348.7977551020408	53	127
348.56557823129253	348.65845804988663	77	127
348.56557823129253	348.7977551020408	57	127
348.56557823129253	348.7977551020408	48	127
348.65845804988663	348.7281179138322	79	127
348.7281179138322	348.83260770975056	76	127
348.7281179138322	348.92548752834466	65	127
348.83260770975056	348.9022448979592	77	127
348.92548752834466	349.0880272108844	77	127
348.92548752834466	349.14607709750567	63	127
348.92548752834466	349.14607709750567	55	127
348.92548752834466	349.14607709750567	46	127
349.0880272108844	349.23895691609977	75	127
349.23895691609977	349.4827664399093	55	127
349.23895691609977	349.42471655328796	74	127
349.23895691609977	349.4827664399093	51	127
349.23895691609977	349.4827664399093	55	127
349.23895691609977	349.78462585034015	58	127
349.42471655328796	349.50598639455785	75	127
349.50598639455785	349.69174603174605	63	127
349.50598639455785	349.69174603174605	55	127
349.50598639455785	349.69174603174605	46	127
349.50598639455785	349.62208616780043	78	127
349.62208616780043	349.78462585034015	79	127
349.78462585034015	349.8891156462585	70	127
349.78462585034015	349.9819954648526	81	127
349.78462585034015	350.0400453514739	51	127
349.78462585034015	350.0400453514739	55	127
349.78462585034015	350.0400453514739	55	127
349.8891156462585	349.9819954648526	72	127
349.9819954648526	350.0516553287982	69	127
349.9819954648526	350.1445351473923	82	127
350.0516553287982	350.1445351473923	70	127
350.1445351473923	350.2954648526077	84	127
350.1445351473923	350.34190476190474	63	127
350.1445351473923	350.34190476190474	55	127
350.1445351473923	350.34190476190474	46	127
350.2954648526077	350.4580045351474	82	127
350.4580045351474	350.59732426303856	86	127
350.4580045351474	350.5857142857143	63	127
350.4580045351474	350.65537414965985	51	127
350.4580045351474	350.65537414965985	55	127
350.4580045351474	350.65537414965985	55	127
350.59732426303856	350.7598639455782	87	127
350.7598639455782	350.9920634920635	65	127
350.7598639455782	350.91079365079366	62	127
350.7598639455782	350.9340136054422	89	127
350.7598639455782	350.9920634920635	56	127
350.7598639455782	350.9920634920635	46	127
350.9340136054422	351.1197732426304	86	127
351.1197732426304	351.2590929705215	56	127
351.1197732426304	351.2126530612245	74	127
351.1197732426304	351.2126530612245	89	127
351.1197732426304	351.2590929705215	53	127
351.1197732426304	351.2590929705215	56	127
351.2126530612245	351.38680272108843	91	127
351.2126530612245	351.29392290249433	72	127
351.29392290249433	351.38680272108843	74	127
351.38680272108843	351.6538095238095	65	127
351.38680272108843	351.6538095238095	56	127
351.38680272108843	351.6538095238095	47	127
351.38680272108843	352.0601814058957	92	127
351.5725623582766	351.73510204081634	74	127
351.73510204081634	351.88603174603173	77	127
351.73510204081634	351.95569160997735	50	127
351.73510204081634	351.95569160997735	56	127
351.88603174603173	352.0834013605442	79	127
352.0834013605442	352.2227210884354	65	127
352.0834013605442	352.2227210884354	56	127
352.0834013605442	352.2227210884354	46	127
352.0834013605442	352.4897505668934	80	127
352.18789115646257	352.3504308390023	80	127
352.3504308390023	352.5013605442177	77	127
352.3504308390023	352.559410430839	50	127
352.3504308390023	352.559410430839	56	127
352.5013605442177	352.68709750566893	75	127
352.68709750566893	352.87287981859413	65	127
352.68709750566893	352.87287981859413	56	127
352.68709750566893	352.87287981859413	47	127
352.68709750566893	353.1282993197279	74	127
352.8380498866213	352.95414965986396	62	127
352.95414965986396	353.2095691609977	50	127
352.95414965986396	353.2095691609977	56	127
352.95414965986396	353.1515192743764	65	127
353.1515192743764	353.3372789115646	67	127
353.3372789115646	353.49979591836734	46	127
353.3372789115646	353.49979591836734	65	127
353.3372789115646	353.49979591836734	62	127
353.3372789115646	353.8016553287982	68	127
353.441768707483	353.6275283446712	84	127
353.6275283446712	353.81326530612245	82	127
353.6275283446712	353.882947845805	53	127
353.6275283446712	353.882947845805	56	127
353.6275283446712	353.882947845805	56	127
353.81326530612245	353.96421768707484	74	127
353.96421768707484	354.14997732426303	51	127
353.96421768707484	354.1267573696145	77	127
353.96421768707484	354.14997732426303	63	127
353.96421768707484	354.14997732426303	55	127
354.1267573696145	354.2660770975057	75	127
354.2660770975057	354.4402267573696	74	127
354.2660770975057	354.4866666666667	58	127
354.2660770975057	354.4866666666667	55	127
354.2660770975057	354.8930158730159	63	127
354.4402267573696	354.6143764172336	73	127
354.6143764172336	354.765306122449	72	127
354.6143764172336	354.8233333333333	51	127
354.6143764172336	354.8233333333333	60	127
354.6143764172336	354.8233333333333	51	127
354.765306122449	354.8930158730159	70	127
354.8930158730159	355.1019954648526	51	127
354.8930158730159	355.03231292517006	68	127
354.8930158730159	354.9742857142857	60	127
354.8930158730159	355.1019954648526	56	127
354.9742857142857	355.03231292517006	61	127
355.03231292517006	355.22970521541953	67	127
355.03231292517006	355.13680272108843	58	127
355.13680272108843	355.22970521541953	60	127
355.22970521541953	355.4154648526077	65	127
355.22970521541953	355.4502947845805	61	127
355.22970521541953	355.4502947845805	51	127
355.22970521541953	355.4502947845805	51	127
355.4154648526077	355.5780045351474	63	127
355.5780045351474	355.69410430839	62	127
355.5780045351474	355.72893424036283	55	127
355.5780045351474	355.72893424036283	58	127
355.5780045351474	356.1933333333333	75	127
355.69410430839	355.85662131519274	61	127
355.85662131519274	356.00757369614513	60	127
355.85662131519274	356.0772335600907	56	127
355.85662131519274	356.0772335600907	51	127
356.00757369614513	356.1933333333333	59	127
356.1933333333333	356.2978231292517	75	127
356.1933333333333	356.3907029478458	58	127
356.1933333333333	356.44875283446714	51	127
356.1933333333333	356.44875283446714	60	127
356.2978231292517	356.3907029478458	77	127
356.3907029478458	356.4835827664399	74	127
356.3907029478458	356.576462585034	56	127
356.4835827664399	356.576462585034	75	127
356.576462585034	356.80866213151927	58	127
356.576462585034	356.80866213151927	51	127
356.576462585034	356.9247619047619	55	127
356.576462585034	356.9247619047619	75	127
356.576462585034	356.80866213151927	63	127
356.9363718820862	357.1221315192744	55	127
356.9363718820862	357.1221315192744	61	127
356.9363718820862	357.4704308390023	63	127
356.9363718820862	357.4704308390023	67	127
357.1801587301587	357.3775510204082	51	127
357.1801587301587	357.3775510204082	58	127
357.49362811791383	357.6561904761905	67	127
357.49362811791383	357.6561904761905	63	127
357.49362811791383	357.7026303854875	55	127
357.49362811791383	357.7026303854875	61	127
357.6561904761905	357.8303401360544	68	127
357.6561904761905	357.8303401360544	65	127
357.8303401360544	358.0625396825397	70	127
357.8303401360544	358.0509297052154	61	127
357.8303401360544	358.0509297052154	51	127
357.8303401360544	358.0625396825397	67	127
358.1438095238095	358.36439909297053	51	127
358.1438095238095	358.36439909297053	61	127
358.1438095238095	358.7475283446712	70	127
358.1438095238095	358.7475283446712	67	127
358.45727891156463	358.66625850340137	61	127
358.45727891156463	358.66625850340137	51	127
358.75913832199547	358.9100680272109	70	127
358.75913832199547	358.9100680272109	67	127
358.75913832199547	358.9681179138322	51	127
358.75913832199547	358.9681179138322	61	127
358.9100680272109	359.08421768707484	72	127
358.9100680272109	359.08421768707484	68	127
359.08421768707484	359.7575963718821	51	127
359.08421768707484	359.30480725623585	73	127
359.08421768707484	359.30480725623585	70	127
359.08421768707484	359.3860770975057	51	127
359.08421768707484	359.7575963718821	61	127
359.39768707482995	360.0710657596372	79	127
359.39768707482995	359.664716553288	63	127
359.7808163265306	359.9781859410431	75	127
359.7808163265306	360.08267573696145	63	127
360.08267573696145	360.2800453514739	75	127
360.08267573696145	360.2800453514739	79	127
360.08267573696145	360.2800453514739	61	127
360.2800453514739	360.4658049886621	77	127
360.2800453514739	360.4658049886621	80	127
360.2800453514739	360.4658049886621	58	127
360.4658049886621	360.7328344671202	51	127
360.4658049886621	360.74444444444447	79	127
360.4658049886621	360.74444444444447	82	127
360.84893424036284	361.1856235827664	82	127
360.84893424036284	361.1856235827664	79	127
361.03469387755104	361.1972335600907	73	127
361.1972335600907	361.40621315192743	84	127
361.1972335600907	361.40621315192743	80	127
361.1972335600907	361.40621315192743	72	127
361.40621315192743	361.61519274376417	85	127
361.40621315192743	361.61519274376417	82	127
361.40621315192743	361.61519274376417	70	127
361.61519274376417	362.25374149659865	87	127
361.61519274376417	361.7893424036281	68	127
361.61519274376417	362.06798185941045	84	127
361.88219954648525	362.66009070294785	56	127
361.88219954648525	362.66009070294785	48	127
362.2653514739229	362.6717006802721	80	127
362.6717006802721	362.8690702947846	56	127
362.6717006802721	363.0548299319728	72	127
362.6717006802721	362.8690702947846	48	127
362.8690702947846	363.06643990929706	51	127
362.8690702947846	363.06643990929706	58	127
363.06643990929706	363.43795918367346	72	127
363.06643990929706	363.34507936507936	56	127
363.06643990929706	363.34507936507936	60	127
363.4495691609977	364.1461678004535	63	127
363.4495691609977	364.1461678004535	60	127
363.8326984126984	364.15777777777777	80	127
363.8326984126984	364.9008163265306	80	127
364.15777777777777	364.343514739229	75	127
364.15777777777777	364.343514739229	60	127
364.15777777777777	364.343514739229	63	127
364.343514739229	364.5408843537415	61	127
364.343514739229	364.5408843537415	73	127
364.343514739229	364.5408843537415	65	127
364.5408843537415	364.9008163265306	63	127
364.5408843537415	364.7266666666667	72	127
364.5408843537415	364.9008163265306	66	127
364.9124263038549	365.3535827664399	75	127
364.9124263038549	365.3535827664399	84	127
365.20267573696145	365.36519274376417	68	127
365.36519274376417	365.55097505668937	65	127
365.36519274376417	365.55097505668937	77	127
365.36519274376417	365.88766439909296	56	127
365.55097505668937	365.73673469387757	61	127
365.55097505668937	365.7251247165533	78	127
365.73673469387757	365.9573242630386	78	127
365.73673469387757	365.9573242630386	84	127
365.73673469387757	366.0734013605442	60	127
365.88766439909296	366.0734013605442	51	127
366.0734013605442	366.5726530612245	75	127
366.0734013605442	366.23596371882087	56	127
366.0734013605442	366.23596371882087	48	127
366.0734013605442	366.5726530612245	78	127
366.23596371882087	366.39850340136053	48	127
366.23596371882087	366.3868707482993	44	127
366.39850340136053	366.74680272108844	63	127
366.39850340136053	366.74680272108844	44	127
366.5842403628118	366.74680272108844	80	127
366.5842403628118	366.74680272108844	77	127
366.74680272108844	366.93256235827664	42	127
366.74680272108844	366.9093424036281	78	127
366.74680272108844	366.93256235827664	82	127
366.74680272108844	366.93256235827664	60	127
366.93256235827664	367.11832199546484	78	127
366.93256235827664	367.11832199546484	84	127
366.93256235827664	367.11832199546484	56	127
366.93256235827664	367.11832199546484	39	127
367.11832199546484	367.4550113378685	76	127
367.11832199546484	367.4550113378685	37	127
367.11832199546484	370.5897052154195	85	127
367.11832199546484	367.3621315192744	68	127
367.46662131519275	368.15160997732426	61	127
367.46662131519275	368.15160997732426	49	127
367.46662131519275	368.15160997732426	37	127
368.1748299319728	368.360589569161	49	127
368.1748299319728	368.360589569161	61	127
368.1748299319728	368.360589569161	37	127
368.360589569161	368.5463492063492	51	127
368.360589569161	368.5463492063492	63	127
368.360589569161	368.5463492063492	39	127
368.5463492063492	368.8133786848073	52	127
368.5463492063492	368.8133786848073	40	127
368.5463492063492	368.8133786848073	64	127
368.91786848072564	369.6144671201814	73	127
368.91786848072564	369.6144671201814	61	127
368.91786848072564	369.6144671201814	49	127
369.63768707482996	369.82344671201815	61	127
369.63768707482996	369.82344671201815	73	127
369.63768707482996	369.82344671201815	49	127
369.82344671201815	369.9975963718821	63	127
369.82344671201815	369.9975963718821	51	127
369.82344671201815	369.9975963718821	75	127
369.9975963718821	370.26460317460317	64	127
369.9975963718821	370.26460317460317	76	127
369.9975963718821	370.26460317460317	52	127
370.36909297052154	370.96122448979594	73	127
370.612925170068	370.86834467120184	64	127
370.612925170068	370.86834467120184	68	127
370.612925170068	370.9728344671202	64	127
370.9728344671202	371.1237641723356	73	127
370.9728344671202	371.1237641723356	61	127
371.1237641723356	371.2979138321995	56	127
371.1237641723356	371.2979138321995	75	127
371.2979138321995	371.4720634920635	76	127
371.2979138321995	371.55333333333334	70	127
371.2979138321995	371.55333333333334	68	127
371.2979138321995	371.55333333333334	62	127
371.669433106576	372.3428117913832	77	127
371.99451247165536	372.2267120181406	70	127
371.99451247165536	372.2267120181406	68	127
371.99451247165536	372.2267120181406	62	127
371.99451247165536	372.3544217687075	68	127
372.3544217687075	372.5401814058957	79	127
372.3544217687075	372.5401814058957	65	127
372.5401814058957	372.73755102040815	80	127
372.5401814058957	372.7491609977324	62	127
372.7491609977324	373.039410430839	63	127
372.7491609977324	373.039410430839	80	127
372.7491609977324	373.039410430839	72	127
372.7491609977324	373.039410430839	68	127
373.14390022675735	373.7592290249433	75	127
373.41092970521544	373.6663492063492	63	127
373.41092970521544	373.6663492063492	72	127
373.41092970521544	373.77083900226756	72	127
373.77083900226756	373.96820861678003	77	127
373.77083900226756	373.96820861678003	68	127
373.96820861678003	374.1539455782313	75	127
373.96820861678003	374.17718820861677	69	127
374.17718820861677	374.44421768707485	70	127
374.17718820861677	374.44421768707485	75	127
374.17718820861677	374.44421768707485	67	127
374.17718820861677	374.44421768707485	63	127
374.5487074829932	375.1059863945578	74	127
374.804126984127	375.07113378684807	70	127
374.804126984127	375.07113378684807	63	127
374.804126984127	375.12920634920636	82	127
375.12920634920636	375.22208616780046	73	127
375.12920634920636	375.22208616780046	77	127
375.22208616780046	375.3962358276644	70	127
375.22208616780046	375.3962358276644	79	127
375.3962358276644	375.6516553287982	80	127
375.3962358276644	375.6516553287982	68	127
375.3962358276644	375.75614512471657	63	127
375.75614512471657	375.94190476190477	60	127
375.75614512471657	376.35986394557824	75	127
375.94190476190477	376.1044444444444	56	127
376.1044444444444	376.3830839002268	84	127
376.1044444444444	376.35986394557824	51	127
376.1044444444444	376.3830839002268	68	127
376.3830839002268	376.5572335600907	80	127
376.3830839002268	376.568843537415	77	127
376.3830839002268	376.568843537415	63	127
376.568843537415	376.70814058956915	75	127
376.568843537415	376.71977324263037	81	127
376.568843537415	376.71977324263037	60	127
376.71977324263037	376.9403628117914	75	127
376.71977324263037	376.9984126984127	58	127
376.71977324263037	376.9984126984127	63	127
376.9984126984127	377.1841723356009	58	127
376.9984126984127	377.71823129251703	74	127
377.1841723356009	377.3699319727891	55	127
377.3699319727891	377.7298185941043	82	127
377.3699319727891	377.71823129251703	58	127
377.3699319727891	377.7298185941043	53	127
377.7298185941043	377.9156009070295	77	127
377.7298185941043	377.90399092970523	51	127
377.7298185941043	377.9156009070295	73	127
377.7298185941043	377.9156009070295	58	127
377.9156009070295	378.07814058956916	79	127
377.9156009070295	378.07814058956916	70	127
377.9156009070295	378.07814058956916	51	127
377.9156009070295	378.07814058956916	51	127
378.07814058956916	378.4612698412698	54	127
378.07814058956916	378.35678004535146	80	127
378.07814058956916	378.6354195011338	63	127
378.07814058956916	378.6354195011338	72	127
378.07814058956916	378.6354195011338	60	127
378.4612698412698	378.6586394557823	51	127
378.4612698412698	379.1462585034014	69	127
378.6586394557823	378.80956916099774	48	127
378.80956916099774	379.15784580498865	63	127
378.80956916099774	379.30879818594104	42	127
379.15784580498865	379.3204081632653	68	127
379.15784580498865	379.3204081632653	60	127
379.3204081632653	379.5061678004535	75	127
379.3204081632653	379.5061678004535	54	127
379.5061678004535	379.87766439909296	53	127
379.5061678004535	380.07505668934243	73	127
379.87766439909296	380.0866439909297	49	127
379.87766439909296	380.56267573696147	58	127
380.0866439909297	380.2375963718821	44	127
380.2375963718821	380.6903854875283	41	127
380.2375963718821	380.57428571428574	65	127
380.57428571428574	380.71360544217686	56	127
380.57428571428574	380.71360544217686	61	127
380.71360544217686	380.89936507936505	56	127
380.71360544217686	380.89936507936505	61	127
380.89936507936505	381.4102040816326	60	127
380.89936507936505	381.24766439909297	51	127
381.24766439909297	381.4218140589569	48	127
381.24766439909297	381.8746031746032	77	127
381.4218140589569	381.53791383219954	44	127
381.53791383219954	382.02553287981857	39	127
381.53791383219954	381.8746031746032	63	127
381.8746031746032	382.03714285714284	60	127
381.8746031746032	382.03714285714284	75	127
382.03714285714284	382.19968253968256	84	127
382.03714285714284	382.19968253968256	56	127
382.19968253968256	382.5479818594104	51	127
382.19968253968256	382.71052154195013	82	127
382.19968253968256	382.71052154195013	55	127
382.5479818594104	383.2213605442177	67	127
382.5479818594104	382.7221315192744	49	127
382.7221315192744	382.9078911564626	44	127
382.9078911564626	383.2445804988662	58	127
382.9078911564626	383.4071201814059	39	127
383.2445804988662	383.41873015873017	64	127
383.2445804988662	383.41873015873017	55	127
383.41873015873017	383.5928798185941	63	127
383.41873015873017	383.5928798185941	49	127
383.5928798185941	383.92956916099774	51	127
383.5928798185941	384.08049886621313	68	127
383.5928798185941	384.08049886621313	48	127
383.92956916099774	384.61455782312925	77	127
383.92956916099774	384.1037188208617	48	127
384.1037188208617	384.28947845804987	44	127
384.28947845804987	384.80031746031744	39	127
384.28947845804987	384.6261678004535	60	127
384.6261678004535	384.8119274376417	75	127
384.6261678004535	384.8119274376417	56	127
384.8119274376417	384.9976870748299	80	127
384.8119274376417	384.9976870748299	51	127
384.9976870748299	385.47369614512473	49	127
384.9976870748299	385.3459863945578	51	127
384.9976870748299	385.47369614512473	82	127
385.3459863945578	385.4969160997732	49	127
385.3459863945578	385.9961451247166	64	127
385.4969160997732	385.6710657596372	46	127
385.6710657596372	386.0077551020408	58	127
385.6710657596372	386.0077551020408	55	127
385.6710657596372	386.1702947845805	39	127
386.0077551020408	386.1819047619048	58	127
386.0077551020408	386.1819047619048	63	127
386.0077551020408	386.1819047619048	55	127
386.1819047619048	386.33283446712016	70	127
386.1819047619048	386.33283446712016	55	127
386.1819047619048	386.33283446712016	49	127
386.33283446712016	386.7972335600907	56	127
386.33283446712016	386.5418140589569	60	127
386.33283446712016	386.5418140589569	48	127
386.33283446712016	386.5418140589569	39	127
386.33283446712016	386.4837641723356	68	127
386.4837641723356	386.65791383219954	56	127
386.65791383219954	386.808843537415	58	127
386.65791383219954	386.855283446712	48	127
386.65791383219954	386.855283446712	60	127
386.808843537415	386.9829931972789	60	127
386.9829931972789	387.1339229024943	62	127
386.9829931972789	387.2035827664399	56	127
386.9829931972789	387.2035827664399	48	127
386.9829931972789	387.2035827664399	51	127
387.1339229024943	387.3080725623583	63	127
387.3080725623583	387.4938321995465	56	127
387.3080725623583	387.5751020408163	48	127
387.3080725623583	387.5751020408163	60	127
387.4938321995465	387.6795918367347	64	127
387.7028117913832	387.92340136054423	49	127
387.7028117913832	387.8653514739229	64	127
387.7028117913832	387.92340136054423	58	127
387.7028117913832	387.92340136054423	55	127
387.8653514739229	388.0278911564626	65	127
388.0278911564626	388.23687074829934	51	127
388.0278911564626	388.23687074829934	58	127
388.0278911564626	388.19043083900226	58	127
388.19043083900226	388.29492063492063	67	127
388.29492063492063	388.46907029478456	67	127
388.29492063492063	388.5271201814059	63	127
388.29492063492063	388.5271201814059	60	127
388.29492063492063	388.5271201814059	48	127
388.46907029478456	388.6548299319728	87	127
388.46907029478456	388.6548299319728	68	127
388.6548299319728	388.840589569161	85	127
388.6548299319728	388.840589569161	63	127
388.6548299319728	388.88702947845803	51	127
388.6548299319728	388.88702947845803	56	127
388.840589569161	388.97990929705213	84	127
388.840589569161	388.97990929705213	68	127
388.97990929705213	389.20049886621314	43	127
388.97990929705213	389.14244897959185	82	127
388.97990929705213	389.20049886621314	61	127
388.97990929705213	389.20049886621314	51	127
388.97990929705213	389.3165986394558	70	127
389.14244897959185	389.3165986394558	84	127
389.3165986394558	389.4791383219955	85	127
389.3165986394558	389.54879818594105	55	127
389.3165986394558	389.54879818594105	51	127
389.3165986394558	389.9667573696145	63	127
389.4791383219955	389.60684807256234	84	127
389.60684807256234	389.8506575963719	61	127
389.60684807256234	389.8506575963719	51	127
389.60684807256234	389.8506575963719	46	127
389.60684807256234	389.79260770975054	85	127
389.79260770975054	389.98997732426307	87	127
389.98997732426307	390.08285714285716	63	127
389.98997732426307	390.164126984127	89	127
389.98997732426307	390.2221768707483	58	127
389.98997732426307	390.2221768707483	55	127
390.08285714285716	390.164126984127	65	127
390.164126984127	390.2570068027211	62	127
390.164126984127	390.3382766439909	87	127
390.2570068027211	390.3382766439909	63	127
390.3382766439909	390.48920634920637	51	127
390.3382766439909	390.48920634920637	85	127
390.3382766439909	390.48920634920637	61	127
390.3382766439909	390.48920634920637	46	127
390.48920634920637	390.55886621315193	87	127
390.55886621315193	390.8142857142857	58	127
390.55886621315193	390.8142857142857	55	127
390.55886621315193	390.7562358276644	85	127
390.55886621315193	391.2090249433107	75	127
390.7562358276644	390.9419954648526	84	127
390.9419954648526	391.05809523809523	82	127
390.9419954648526	391.1161451247166	58	127
390.9419954648526	391.1161451247166	49	127
391.05809523809523	391.2206349206349	84	127
391.2206349206349	391.31351473922905	75	127
391.2206349206349	391.3831746031746	82	127
391.2206349206349	391.42961451247163	55	127
391.2206349206349	391.42961451247163	58	127
391.31351473922905	391.3831746031746	77	127
391.3831746031746	391.46444444444444	74	127
391.3831746031746	391.54571428571427	80	127
391.46444444444444	391.54571428571427	75	127
391.54571428571427	391.77791383219954	51	127
391.54571428571427	391.708253968254	70	127
391.54571428571427	391.77791383219954	58	127
391.54571428571427	391.77791383219954	49	127
391.54571428571427	391.8824036281179	79	127
391.708253968254	391.8824036281179	63	127
391.8824036281179	392.0797732426304	51	127
391.8824036281179	392.0797732426304	58	127
391.8824036281179	392.5209523809524	55	127
391.8824036281179	392.03333333333336	65	127
392.03333333333336	392.2074829931973	63	127
392.2074829931973	392.40485260770976	49	127
392.2074829931973	392.37002267573695	65	127
392.2074829931973	392.40485260770976	58	127
392.2074829931973	392.40485260770976	51	127
392.37002267573695	392.53256235827666	63	127
392.53256235827666	392.59061224489795	63	127
392.53256235827666	392.6138321995465	65	127
392.53256235827666	392.68349206349205	51	127
392.53256235827666	392.68349206349205	58	127
392.59061224489795	392.6138321995465	65	127
392.6138321995465	392.7067120181406	62	127
392.6138321995465	392.7879818594104	67	127
392.7067120181406	392.7995918367347	63	127
392.7995918367347	393.0550113378685	51	127
392.7995918367347	392.99696145124716	67	127
392.7995918367347	393.0550113378685	60	127
392.7995918367347	393.0550113378685	48	127
392.99696145124716	393.18272108843536	68	127
393.18272108843536	393.3917006802721	56	127
393.18272108843536	393.3336507936508	63	127
393.18272108843536	393.3917006802721	48	127
393.18272108843536	393.8677097505669	75	127
393.3336507936508	393.50780045351473	68	127
393.519410430839	393.69356009070293	68	127
393.519410430839	393.76321995464855	61	127
393.519410430839	393.76321995464855	51	127
393.519410430839	393.76321995464855	46	127
393.69356009070293	393.87931972789113	70	127
393.87931972789113	394.0302494331066	55	127
393.87931972789113	393.9721995464853	75	127
393.87931972789113	394.0302494331066	63	127
393.87931972789113	394.0302494331066	49	127
393.9721995464853	394.0302494331066	77	127
394.0302494331066	394.1115192743764	70	127
394.0302494331066	394.04185941043085	74	127
394.04185941043085	394.13473922902494	75	127
394.13473922902494	394.3321088435374	51	127
394.13473922902494	394.3321088435374	44	127
394.13473922902494	394.2856689342404	84	127
394.13473922902494	394.2856689342404	70	127
394.13473922902494	394.3321088435374	56	127
394.2856689342404	394.4598185941043	63	127
394.2856689342404	394.4598185941043	85	127
394.4598185941043	394.63396825396825	87	127
394.4598185941043	394.6920181405896	56	127
394.4598185941043	395.07514739229026	72	127
394.4598185941043	394.6920181405896	48	127
394.63396825396825	394.8081179138322	85	127
394.8081179138322	395.0519274376417	56	127
394.8081179138322	394.99387755102043	84	127
394.8081179138322	395.0519274376417	51	127
394.8081179138322	395.0519274376417	51	127
394.99387755102043	395.0983673469388	85	127
395.0983673469388	395.1912471655329	63	127
395.0983673469388	395.284126984127	84	127
395.0983673469388	395.3421768707483	48	127
395.0983673469388	395.3421768707483	60	127
395.1912471655329	395.284126984127	65	127
395.284126984127	395.4234467120181	82	127
395.284126984127	395.3770068027211	62	127
395.3770068027211	395.4350566893424	63	127
395.4350566893424	395.67886621315193	56	127
395.4350566893424	395.67886621315193	51	127
395.4350566893424	395.67886621315193	44	127
395.4350566893424	395.6208163265306	82	127
395.6208163265306	395.7485260770975	84	127
395.7485260770975	396.35224489795917	72	127
395.7485260770975	395.9110657596372	82	127
395.7485260770975	395.98072562358277	51	127
395.7485260770975	395.98072562358277	56	127
395.9110657596372	396.0968253968254	80	127
396.0968253968254	396.27097505668934	51	127
396.0968253968254	396.25936507936507	80	127
396.0968253968254	396.27097505668934	60	127
396.0968253968254	396.27097505668934	51	127
396.25936507936507	396.3754648526077	79	127
396.3754648526077	396.4683446712018	75	127
396.3754648526077	396.5612244897959	80	127
396.3754648526077	396.61927437641725	56	127
396.3754648526077	396.61927437641725	60	127
396.4683446712018	396.5612244897959	77	127
396.5612244897959	396.65410430839	74	127
396.5612244897959	396.7469841269841	82	127
396.65410430839	396.7353741496599	75	127
396.7469841269841	396.85147392290247	75	127
396.7469841269841	396.9211337868481	51	127
396.7469841269841	396.9211337868481	56	127
396.7469841269841	396.9211337868481	42	127
396.7469841269841	397.0024036281179	84	127
396.85147392290247	397.0024036281179	77	127
397.0024036281179	397.67578231292515	56	127
397.0024036281179	397.1881632653061	78	127
397.0024036281179	397.2229931972789	48	127
397.0024036281179	397.2229931972789	56	127
397.1881632653061	397.33909297052156	77	127
397.33909297052156	397.52485260770976	75	127
397.33909297052156	397.5712925170068	60	127
397.33909297052156	397.5712925170068	51	127
397.33909297052156	397.5712925170068	44	127
397.52485260770976	397.6873922902494	77	127
397.6873922902494	397.84993197278914	56	127
397.6873922902494	397.8267120181406	75	127
397.6873922902494	397.75705215419504	56	127
397.6873922902494	397.84993197278914	48	127
397.75705215419504	397.8267120181406	58	127
397.8267120181406	397.9544217687075	73	127
397.8267120181406	397.8847619047619	55	127
397.8847619047619	397.9544217687075	56	127
397.9544217687075	398.1866213151927	51	127
397.9544217687075	398.1866213151927	42	127
397.9544217687075	398.11696145124716	73	127
397.9544217687075	398.1866213151927	60	127
398.11696145124716	398.30272108843536	72	127
398.30272108843536	398.4536507936508	73	127
398.30272108843536	398.47687074829935	48	127
398.30272108843536	398.47687074829935	56	127
398.30272108843536	398.9528798185941	75	127
398.4536507936508	398.59297052154193	75	127
398.59297052154193	398.8367800453515	54	127
398.59297052154193	398.7787301587302	70	127
398.59297052154193	398.8367800453515	60	127
398.59297052154193	398.8367800453515	51	127
398.7787301587302	398.9644897959184	68	127
398.9644897959184	399.1734693877551	63	127
398.9644897959184	399.0109297052154	80	127
398.9644897959184	399.1038095238095	70	127
398.9644897959184	399.1734693877551	48	127
399.0109297052154	399.0457596371882	82	127
399.0457596371882	399.1038095238095	80	127
399.1038095238095	399.28956916099776	72	127
399.1038095238095	399.1966893424036	79	127
399.1966893424036	399.28956916099776	80	127
399.28956916099776	399.53337868480725	73	127
399.28956916099776	399.53337868480725	56	127
399.28956916099776	399.53337868480725	40	127
399.4869387755102	399.6146485260771	80	127
399.6146485260771	400.183537414966	61	127
399.6146485260771	399.7771882086168	85	127
399.6146485260771	399.8236281179138	52	127
399.6146485260771	399.8236281179138	56	127
399.7771882086168	399.9281179138322	84	127
399.9281179138322	400.1138775510204	56	127
399.9281179138322	399.962947845805	85	127
399.9281179138322	400.1138775510204	52	127
400.0442176870748	400.19514739229027	80	127
400.19514739229027	400.38090702947846	85	127
400.19514739229027	400.2648072562358	66	127
400.19514739229027	400.43895691609976	52	127
400.19514739229027	400.43895691609976	61	127
400.2648072562358	400.3228571428571	64	127
400.3228571428571	400.38090702947846	66	127
400.38090702947846	400.56666666666666	84	127
400.38090702947846	400.43895691609976	64	127
400.43895691609976	400.4970068027211	63	127
400.4970068027211	400.56666666666666	64	127
400.56666666666666	400.78725623582767	85	127
400.56666666666666	400.78725623582767	56	127
400.56666666666666	400.78725623582767	40	127
400.7408163265306	400.9149659863946	68	127
400.9149659863946	401.06589569160997	72	127
400.9149659863946	401.06589569160997	73	127
400.9149659863946	401.1007256235828	52	127
400.9149659863946	401.1007256235828	56	127
400.9149659863946	401.507074829932	80	127
401.06589569160997	401.1819954648526	72	127
401.1819954648526	401.4141950113379	52	127
401.1819954648526	401.4141950113379	56	127
401.1819954648526	401.26326530612243	73	127
401.34453514739226	401.5302947845805	68	127
401.5302947845805	401.76249433106574	61	127
401.5302947845805	401.5883446712018	80	127
401.5302947845805	401.70444444444445	73	127
401.5302947845805	401.76249433106574	52	127
401.5883446712018	401.64639455782316	82	127
401.64639455782316	401.70444444444445	80	127
401.70444444444445	401.8437641723356	75	127
401.70444444444445	401.79732426303855	79	127
401.79732426303855	401.8437641723356	80	127
401.8437641723356	401.994693877551	76	127
401.8437641723356	402.0295238095238	56	127
401.8437641723356	402.0295238095238	37	127
401.994693877551	402.15723356009073	76	127
401.994693877551	402.15723356009073	67	127
402.15723356009073	402.3197732426304	49	127
402.15723356009073	402.2849433106576	88	127
402.15723356009073	402.3197732426304	56	127
402.15723356009073	402.70290249433106	68	127
402.2849433106576	402.42426303854876	76	127
402.42426303854876	402.65646258503403	49	127
402.42426303854876	402.65646258503403	56	127
402.42426303854876	402.4939229024943	88	127
402.61002267573696	402.7261224489796	77	127
402.7261224489796	402.95832199546487	53	127
402.7261224489796	402.7841723356009	68	127
402.7261224489796	402.9118820861678	89	127
402.7261224489796	402.95832199546487	56	127
402.7841723356009	402.8538321995465	70	127
402.8538321995465	402.9118820861678	68	127
402.9118820861678	402.9931519274376	67	127
402.9118820861678	403.0860317460317	77	127
402.9931519274376	403.0860317460317	68	127
403.0860317460317	403.32984126984127	79	127
403.0860317460317	403.32984126984127	63	127
403.0860317460317	403.32984126984127	58	127
403.0860317460317	403.32984126984127	49	127
403.2601814058957	403.43433106575964	67	127
403.43433106575964	403.56204081632654	79	127
403.43433106575964	403.62009070294783	49	127
403.43433106575964	403.62009070294783	58	127
403.43433106575964	403.6317006802721	64	127
403.56204081632654	403.74780045351474	67	127
403.74780045351474	403.8174603174603	80	127
403.74780045351474	403.98	58	127
403.74780045351474	403.98	50	127
403.74780045351474	404.10770975056687	65	127
403.92195011337867	404.1309297052154	70	127
404.1309297052154	404.28185941043085	82	127
404.1309297052154	404.18897959183676	65	127
404.1309297052154	404.3282993197279	56	127
404.1309297052154	404.3282993197279	50	127
404.18897959183676	404.2354195011338	67	127
404.2354195011338	404.28185941043085	65	127
404.28185941043085	404.3631292517007	64	127
404.28185941043085	404.4560090702948	70	127
404.3631292517007	404.4560090702948	65	127
404.4560090702948	404.65337868480725	51	127
404.4560090702948	404.65337868480725	80	127
404.4560090702948	404.65337868480725	63	127
404.4560090702948	404.65337868480725	60	127
404.60693877551023	404.74625850340135	80	127
404.74625850340135	404.8971882086168	92	127
404.74625850340135	404.9552380952381	51	127
404.74625850340135	404.9552380952381	60	127
404.74625850340135	405.40802721088437	68	127
404.8971882086168	405.0713378684807	91	127
405.0713378684807	405.2338775510204	92	127
405.0713378684807	405.29192743764173	63	127
405.0713378684807	405.29192743764173	60	127
405.0713378684807	405.29192743764173	51	127
405.2338775510204	405.41963718820864	87	127
405.41963718820864	405.4892970521542	68	127
405.41963718820864	405.60539682539684	89	127
405.41963718820864	405.6750566893424	51	127
405.41963718820864	405.6750566893424	60	127
405.4892970521542	405.5473469387755	70	127
405.5473469387755	405.60539682539684	68	127
405.60539682539684	405.74471655328796	87	127
405.60539682539684	405.6750566893424	67	127
405.6750566893424	405.74471655328796	68	127
405.74471655328796	405.9072562358277	85	127
405.74471655328796	405.96530612244896	67	127
405.74471655328796	405.96530612244896	58	127
405.74471655328796	405.96530612244896	51	127
405.9072562358277	406.0349659863946	82	127
406.0349659863946	406.2207256235828	55	127
406.0349659863946	406.2207256235828	63	127
406.0349659863946	406.2207256235828	61	127
406.0349659863946	406.66190476190474	70	127
406.0349659863946	406.16267573696143	84	127
406.16267573696143	406.3484353741497	82	127
406.3484353741497	406.5806349206349	58	127
406.3484353741497	406.51097505668935	79	127
406.3484353741497	406.5806349206349	63	127
406.3484353741497	406.5806349206349	51	127
406.51097505668935	406.66190476190474	75	127
406.66190476190474	406.7199546485261	70	127
406.66190476190474	406.89410430839	55	127
406.66190476190474	406.8360544217687	77	127
406.66190476190474	406.89410430839	61	127
406.66190476190474	406.89410430839	63	127
406.7199546485261	406.7780045351474	72	127
406.7780045351474	406.8360544217687	70	127
406.8360544217687	407.0218140589569	75	127
406.8360544217687	406.9289342403628	68	127
406.9289342403628	407.0218140589569	70	127
407.0218140589569	407.1611337868481	60	127
407.0218140589569	407.1611337868481	80	127
407.0218140589569	407.1611337868481	63	127
407.0218140589569	407.1611337868481	51	127
407.13791383219956	407.2540136054422	63	127
407.2540136054422	407.5210430839002	60	127
407.2540136054422	407.45138321995466	75	127
407.2540136054422	407.5210430839002	48	127
407.2540136054422	407.92739229024943	68	127
407.45138321995466	407.64875283446713	74	127
407.64875283446713	407.7532426303855	75	127
407.64875283446713	407.82290249433106	63	127
407.64875283446713	407.82290249433106	60	127
407.64875283446713	407.82290249433106	51	127
407.7532426303855	407.95061224489797	72	127
407.95061224489797	408.1247619047619	71	127
407.95061224489797	408.00866213151926	63	127
407.95061224489797	408.171201814059	57	127
407.95061224489797	408.171201814059	56	127
408.00866213151926	408.0667120181406	65	127
408.0667120181406	408.1247619047619	63	127
408.1247619047619	408.2060317460317	62	127
408.1247619047619	408.2989115646258	72	127
408.2060317460317	408.2989115646258	63	127
408.2989115646258	408.4846712018141	51	127
408.2989115646258	408.42662131519273	73	127
408.2989115646258	408.4846712018141	63	127
408.2989115646258	408.4846712018141	58	127
408.42662131519273	408.61238095238093	72	127
408.61238095238093	408.7865306122449	73	127
408.61238095238093	408.82136054421767	51	127
408.61238095238093	408.82136054421767	58	127
408.61238095238093	409.23931972789114	63	127
408.7865306122449	408.9374603174603	75	127
408.9374603174603	409.14643990929704	51	127
408.9374603174603	409.1	77	127
408.9374603174603	409.14643990929704	63	127
408.9374603174603	409.14643990929704	55	127
409.1	409.2625396825397	75	127
409.2625396825397	409.45990929705215	61	127
409.2625396825397	409.45990929705215	58	127
409.2625396825397	409.30897959183676	63	127
409.2625396825397	409.42507936507934	77	127
409.2625396825397	409.45990929705215	51	127
409.30897959183676	409.36702947845805	65	127
409.36702947845805	409.42507936507934	63	127
409.42507936507934	409.49473922902496	62	127
409.42507936507934	409.58761904761906	79	127
409.49473922902496	409.58761904761906	63	127
409.58761904761906	409.7849886621315	80	127
409.58761904761906	409.7849886621315	63	127
409.58761904761906	409.7849886621315	60	127
409.58761904761906	409.7849886621315	51	127
409.73854875283445	409.86625850340135	80	127
409.86625850340135	410.08684807256236	60	127
409.86625850340135	410.05201814058955	87	127
409.86625850340135	410.08684807256236	48	127
409.86625850340135	410.08684807256236	56	127
409.86625850340135	410.45836734693876	75	127
410.05201814058955	410.1681179138322	86	127
410.1681179138322	410.3422675736961	68	127
410.1681179138322	410.3422675736961	60	127
410.1681179138322	410.3422675736961	54	127
410.1681179138322	410.202947845805	87	127
410.28421768707483	410.469977324263	68	127
410.469977324263	410.5164172335601	68	127
410.469977324263	410.7021768707483	60	127
410.469977324263	410.63251700680274	78	127
410.469977324263	410.7021768707483	48	127
410.469977324263	410.7021768707483	63	127
410.5280272108844	410.55124716553286	70	127
410.5744671201814	410.6209070294785	68	127
410.63251700680274	410.81827664399094	75	127
410.81827664399094	411.03886621315195	61	127
410.81827664399094	411.03886621315195	73	127
410.81827664399094	411.03886621315195	53	127
410.81827664399094	411.03886621315195	68	127
410.9808163265306	411.15496598639453	68	127
411.15496598639453	411.36394557823127	53	127
411.15496598639453	411.30589569161	73	127
411.15496598639453	411.36394557823127	61	127
411.15496598639453	411.36394557823127	61	127
411.15496598639453	411.8051247165533	80	127
411.30589569161	411.4568253968254	72	127
411.4568253968254	411.68902494331064	68	127
411.4568253968254	411.68902494331064	61	127
411.4568253968254	411.68902494331064	52	127
411.4568253968254	411.53809523809525	73	127
411.6425850340136	411.81673469387755	68	127
411.81673469387755	411.8863945578231	80	127
411.81673469387755	412.07215419501136	61	127
411.81673469387755	412.07215419501136	56	127
411.81673469387755	412.07215419501136	68	127
411.81673469387755	412.00249433106575	76	127
411.8863945578231	411.94444444444446	82	127
411.94444444444446	412.00249433106575	80	127
412.00249433106575	412.09537414965985	79	127
412.00249433106575	412.1185941043084	73	127
412.09537414965985	412.1185941043084	80	127
412.1185941043084	412.3043537414966	72	127
412.1185941043084	412.3043537414966	68	127
412.1185941043084	412.3043537414966	56	127
412.1185941043084	412.3043537414966	51	127
412.26952380952383	412.4320634920635	80	127
412.4320634920635	412.64104308390023	61	127
412.4320634920635	412.6178231292517	82	127
412.4320634920635	412.64104308390023	51	127
412.4320634920635	412.9777324263039	68	127
412.6178231292517	412.76875283446714	80	127
412.76875283446714	412.8384126984127	84	127
412.76875283446714	412.9196825396825	68	127
412.76875283446714	412.9196825396825	60	127
412.76875283446714	412.9196825396825	51	127
412.9196825396825	412.98934240362814	80	127
412.98934240362814	413.23315192743763	51	127
412.98934240362814	413.0590022675737	75	127
412.98934240362814	413.17510204081634	82	127
412.98934240362814	413.23315192743763	60	127
413.0590022675737	413.1054421768707	77	127
413.1054421768707	413.17510204081634	75	127
413.17510204081634	413.26798185941044	74	127
413.17510204081634	413.31442176870746	80	127
413.26798185941044	413.31442176870746	75	127
413.31442176870746	413.54662131519274	75	127
413.31442176870746	413.54662131519274	67	127
413.31442176870746	413.54662131519274	58	127
413.31442176870746	413.54662131519274	49	127
413.48857142857145	413.6627210884354	63	127
413.6627210884354	413.8484807256236	65	127
413.6627210884354	413.9065306122449	51	127
413.6627210884354	413.9065306122449	60	127
413.6627210884354	414.32448979591834	79	127
413.8484807256236	414.0110204081633	63	127
414.0110204081633	414.0922902494331	67	127
414.0110204081633	414.23160997732424	63	127
414.0110204081633	414.23160997732424	58	127
414.0110204081633	414.23160997732424	49	127
414.17356009070295	414.32448979591834	63	127
414.32448979591834	414.5566893424036	58	127
414.32448979591834	414.3825396825397	79	127
414.32448979591834	414.4986394557823	65	127
414.32448979591834	414.5566893424036	49	127
414.3825396825397	414.4289795918367	80	127
414.4289795918367	414.4986394557823	79	127
414.4986394557823	414.57990929705215	77	127
414.4986394557823	414.661179138322	63	127
414.57990929705215	414.661179138322	79	127
414.661179138322	414.85854875283445	58	127
414.661179138322	414.85854875283445	68	127
414.661179138322	414.85854875283445	63	127
414.661179138322	414.85854875283445	48	127
414.80049886621316	414.85854875283445	63	127
414.80049886621316	414.98625850340136	75	127
414.85854875283445	414.92820861678007	65	127
414.92820861678007	414.98625850340136	63	127
414.98625850340136	415.102358276644	80	127
414.98625850340136	415.0675283446712	62	127
414.98625850340136	415.1371882086168	58	127
414.98625850340136	415.1371882086168	48	127
415.0675283446712	415.102358276644	63	127
415.102358276644	415.2416780045352	79	127
415.2416780045352	415.43904761904764	63	127
415.2416780045352	415.43904761904764	56	127
415.2416780045352	415.43904761904764	80	127
415.2416780045352	415.43904761904764	48	127
415.3809977324263	415.5667573696145	63	127
415.5667573696145	415.7409070294785	72	127
415.5667573696145	415.62480725623584	75	127
415.5667573696145	415.7873469387755	56	127
415.5667573696145	415.7873469387755	48	127
415.62480725623584	415.68285714285713	77	127
415.68285714285713	415.7409070294785	75	127
415.7409070294785	415.81056689342404	73	127
415.7409070294785	415.8802267573696	70	127
415.81056689342404	415.89183673469387	75	127
415.89183673469387	416.1356462585034	58	127
415.89183673469387	416.1356462585034	63	127
415.89183673469387	416.1356462585034	49	127
415.89183673469387	416.1472562358277	70	127
416.07759637188207	416.25174603174605	75	127
416.07759637188207	416.1356462585034	63	127
416.1356462585034	416.1936961451247	65	127
416.1936961451247	416.25174603174605	63	127
416.25174603174605	416.4491156462585	82	127
416.25174603174605	416.34462585034015	62	127
416.25174603174605	416.472335600907	49	127
416.25174603174605	416.472335600907	56	127
416.34462585034015	416.4491156462585	63	127
416.4491156462585	416.6000453514739	81	127
416.6000453514739	416.8206349206349	49	127
416.6000453514739	416.8206349206349	82	127
416.6000453514739	416.8206349206349	63	127
416.6000453514739	416.8206349206349	55	127
416.7741950113379	416.9251247165533	63	127
416.9251247165533	417.15732426303856	55	127
416.9251247165533	416.9831746031746	75	127
416.9251247165533	417.1108843537415	72	127
416.9251247165533	417.15732426303856	51	127
416.9831746031746	417.0528344671202	77	127
417.0528344671202	417.1108843537415	75	127
417.1108843537415	417.1805442176871	73	127
417.1108843537415	417.26181405895693	70	127
417.1805442176871	417.26181405895693	75	127
417.26181405895693	417.52884353741496	63	127
417.26181405895693	417.52884353741496	56	127
417.26181405895693	417.52884353741496	48	127
417.26181405895693	417.5404535147392	68	127
417.4591836734694	417.6449433106576	75	127
417.65655328798186	417.9119727891156	56	127
417.65655328798186	417.7262131519274	63	127
417.65655328798186	417.8307029478458	80	127
417.65655328798186	417.9119727891156	48	127
417.7262131519274	417.79587301587304	65	127
417.79587301587304	417.84231292517006	63	127
417.84231292517006	417.94680272108843	62	127
417.84231292517006	418.02807256235826	79	127
417.94680272108843	418.03968253968253	63	127
418.03968253968253	418.3183219954648	36	127
418.03968253968253	418.3183219954648	80	127
418.03968253968253	418.3183219954648	68	127
418.03968253968253	418.3183219954648	56	127
418.457641723356	418.75950113378684	60	127
418.457641723356	418.75950113378684	48	127
418.457641723356	418.75950113378684	48	127
418.898820861678	420.5358276643991	61	127
418.898820861678	420.5358276643991	49	127
418.898820861678	420.5358276643991	37	127
420.55904761904765	427.96621315192743	40	127
420.55904761904765	423.090022675737	64	127
420.55904761904765	424.6689795918367	64	127
420.55904761904765	426.1550566893424	52	127
423.19451247165534	426.1550566893424	56	127
424.680589569161	426.1550566893424	68	127
426.1666666666667	427.96621315192743	55	127
426.1666666666667	427.96621315192743	73	127
426.1666666666667	427.96621315192743	58	127
427.9778231292517	429.4755102040816	73	127
427.9778231292517	429.4755102040816	66	127
427.9778231292517	430.9267573696145	54	127
427.9778231292517	430.9267573696145	39	127
429.4871201814059	432.4592743764172	66	127
429.4871201814059	432.4592743764172	59	127
429.4871201814059	431.7046258503401	71	127
430.9383673469388	434.21238095238095	59	127
430.9383673469388	434.21238095238095	45	127
430.9383673469388	434.21238095238095	54	127
431.72784580498865	432.4592743764172	71	127
432.4708843537415	434.9554195011338	71	127
432.4708843537415	433.39968253968254	73	127
433.4229024943311	434.21238095238095	75	127
434.2356009070295	435.6404081632653	44	127
434.2356009070295	437.57927437641723	76	127
434.2356009070295	435.6404081632653	52	127
434.2356009070295	435.6404081632653	59	127
434.9670294784581	445.10253968253966	64	127
434.9670294784581	445.10253968253966	76	127
435.6520181405896	438.1481632653061	52	127
435.6520181405896	438.1481632653061	61	127
435.6520181405896	438.1481632653061	45	127
437.5908843537415	438.1481632653061	66	127
438.17138321995463	439.83160997732426	66	127
438.17138321995463	439.83160997732426	52	127
438.17138321995463	439.83160997732426	59	127
438.17138321995463	439.83160997732426	47	127
440.1915192743764	441.9446258503401	49	127
440.1915192743764	441.9446258503401	58	127
440.1915192743764	441.9446258503401	66	127
442.42063492063494	444.1505215419501	66	127
442.42063492063494	444.1505215419501	59	127
442.42063492063494	444.1505215419501	47	127
444.17374149659867	445.10253968253966	52	127
444.17374149659867	446.08938775510205	46	127
444.17374149659867	446.58861678004536	73	127
445.1141496598639	446.99496598639456	64	127
445.1141496598639	446.99496598639456	55	127
446.1009977324263	446.99496598639456	47	127
446.58861678004536	447.0181859410431	71	127
447.0181859410431	448.028253968254	63	127
447.0181859410431	448.028253968254	54	127
447.0181859410431	448.028253968254	47	127
447.0181859410431	448.8757823129252	83	127
448.0514739229025	448.8757823129252	66	127
448.0514739229025	448.8757823129252	71	127
448.0514739229025	448.8757823129252	63	127
448.8873922902494	449.90907029478456	63	127
448.8873922902494	449.90907029478456	71	127
448.8873922902494	449.90907029478456	66	127
448.8873922902494	449.90907029478456	81	127
449.9322902494331	453.6126530612245	68	127
449.9322902494331	453.6126530612245	64	127
449.9322902494331	450.61727891156465	81	127
449.9322902494331	451.604126984127	59	127
449.9322902494331	453.6126530612245	71	127
450.64049886621314	451.604126984127	80	127
451.61573696145126	456.66607709750565	64	127
451.61573696145126	452.39360544217686	80	127
452.40521541950113	453.06698412698415	88	127
453.06698412698415	453.62426303854875	85	127
453.62426303854875	454.5878911564626	83	127
453.62426303854875	455.2844897959184	73	127
453.62426303854875	455.2844897959184	67	127
454.62272108843536	455.2844897959184	82	127
455.29609977324264	456.66607709750565	67	127
455.29609977324264	455.94625850340134	82	127
455.29609977324264	456.66607709750565	73	127
455.9578684807256	456.66607709750565	82	127
456.6892970521542	458.55850340136055	73	127
456.6892970521542	457.42072562358277	82	127
456.6892970521542	460.36965986394557	66	127
456.6892970521542	460.36965986394557	63	127
457.43233560090704	458.55850340136055	83	127
458.5817233560091	461.2055782312925	71	127
458.5817233560091	459.47569160997733	83	127
459.49891156462587	459.92848072562356	93	127
459.92848072562356	460.38126984126984	90	127
460.38126984126984	464.1196825396825	66	127
460.38126984126984	461.2055782312925	88	127
460.38126984126984	461.96022675736964	69	127
461.2171882086168	461.96022675736964	87	127
461.2171882086168	461.96022675736964	71	127
461.97183673469385	463.4114739229025	85	127
461.97183673469385	463.4114739229025	73	127
461.97183673469385	464.1196825396825	71	127
461.97183673469385	464.1196825396825	69	127
463.42308390022674	464.1196825396825	75	127
463.42308390022674	464.1196825396825	83	127
464.1312925170068	464.9323809523809	83	127
464.1312925170068	465.861179138322	68	127
464.1312925170068	465.861179138322	71	127
464.1312925170068	465.861179138322	64	127
464.1312925170068	465.861179138322	76	127
464.95560090702946	465.861179138322	76	127
465.8843990929705	469.611201814059	59	127
465.8843990929705	466.9176870748299	80	127
465.8843990929705	467.6839455782313	56	127
465.8843990929705	467.6839455782313	40	127
465.8843990929705	477.7962358276644	47	127
466.9292970521542	467.6839455782313	83	127
467.69555555555553	470.43551020408165	54	127
467.69555555555553	470.43551020408165	39	127
467.69555555555553	469.4718820861678	85	127
469.657641723356	471.3875283446712	71	127
469.657641723356	470.2845804988662	87	127
470.4703401360544	472.30471655328796	37	127
470.4703401360544	471.201768707483	88	127
470.4703401360544	472.30471655328796	52	127
471.39913832199545	473.9881632653061	70	127
471.39913832199545	472.11895691609976	90	127
472.3279365079365	477.7962358276644	52	127
472.3279365079365	474.777641723356	92	127
472.3279365079365	477.7962358276644	36	127
472.3279365079365	477.7962358276644	56	127
473.9997732426304	474.777641723356	76	127
474.80086167800454	476.1824489795918	64	127
474.80086167800454	476.1824489795918	58	127
476.2172789115646	477.7962358276644	64	127
476.2172789115646	477.7962358276644	58	127
477.8078458049887	478.7366439909297	59	127
477.8078458049887	480.14145124716555	59	127
477.8078458049887	480.14145124716555	54	127
477.8078458049887	480.14145124716555	39	127
477.8078458049887	480.14145124716555	47	127
480.1530612244898	481.17473922902496	54	127
480.1530612244898	481.17473922902496	59	127
480.1530612244898	481.17473922902496	39	127
480.1530612244898	481.17473922902496	47	127
480.1530612244898	496.4418594104308	71	127
481.19795918367345	485.7839002267574	54	127
481.19795918367345	485.7839002267574	39	127
481.19795918367345	484.8434920634921	66	127
484.85510204081635	485.7839002267574	64	127
485.7955102040816	489.02308390022677	57	127
485.7955102040816	487.54861678004534	63	127
485.7955102040816	489.02308390022677	42	127
487.5718367346939	488.2800453514739	64	127
488.2916553287982	489.02308390022677	66	127
489.0463038548753	491.19414965986397	68	127
489.0463038548753	491.87913832199547	56	127
489.0463038548753	491.87913832199547	41	127
489.0463038548753	496.4418594104308	62	127
491.20575963718824	491.87913832199547	66	127
491.902358276644	493.79478458049886	65	127
491.902358276644	495.8265306122449	44	127
491.902358276644	496.49990929705217	59	127
493.8063945578231	495.8265306122449	66	127
495.83814058956915	496.49990929705217	41	127
495.83814058956915	496.49990929705217	68	127
496.51151927437644	498.60131519274375	69	127
496.51151927437644	498.60131519274375	63	127
496.51151927437644	498.60131519274375	57	127
496.51151927437644	498.60131519274375	42	127
498.612925170068	500.23832199546484	47	127
498.612925170068	502.68802721088434	75	127
498.612925170068	504.9751927437642	69	127
498.612925170068	504.9751927437642	54	127
498.612925170068	504.9751927437642	57	127
500.2499319727891	507.36684807256233	48	127
500.2499319727891	507.36684807256233	36	127
502.75768707482996	503.76775510204084	76	127
503.7793650793651	504.9751927437642	78	127
504.98680272108845	507.36684807256233	48	127
504.98680272108845	507.36684807256233	55	127
504.98680272108845	507.36684807256233	60	127
504.98680272108845	507.36684807256233	76	127
504.98680272108845	507.36684807256233	67	127
507.3784580498866	509.0851247165533	39	127
507.3784580498866	509.0851247165533	71	127
507.3784580498866	509.0851247165533	66	127
507.3784580498866	509.0851247165533	54	127
509.0967346938776	509.514693877551	59	127
509.0967346938776	509.909433106576	64	127
509.0967346938776	509.909433106576	56	127
509.0967346938776	509.909433106576	40	127
509.514693877551	509.909433106576	71	127
509.94426303854874	510.6756916099773	71	127
509.94426303854874	511.25619047619045	68	127
509.94426303854874	511.25619047619045	68	127
509.94426303854874	511.25619047619045	64	127
510.6756916099773	511.2678004535147	83	127
511.2678004535147	512.0688888888889	71	127
511.2678004535147	511.67414965986393	82	127
511.2678004535147	512.0688888888889	68	127
511.2678004535147	512.0688888888889	64	127
511.67414965986393	512.0804988662131	83	127
512.0804988662131	514.808843537415	69	127
512.0804988662131	514.808843537415	66	127
512.0804988662131	515.563492063492	83	127
512.0804988662131	514.808843537415	75	127
514.8320634920635	515.563492063492	76	127
514.8320634920635	515.563492063492	68	127
514.8320634920635	515.563492063492	64	127
515.5751020408163	517.0495691609977	66	127
515.5751020408163	516.306507936508	71	127
515.5751020408163	517.0495691609977	90	127
515.5751020408163	517.0495691609977	63	127
516.3181179138322	517.0495691609977	78	127
517.0727891156463	517.8274376417233	76	127
517.0727891156463	517.8274376417233	68	127
517.0727891156463	517.8274376417233	64	127
517.0727891156463	519.0116553287982	83	127
517.8390476190476	519.0116553287982	75	127
517.8390476190476	519.0116553287982	69	127
517.8390476190476	519.0116553287982	66	127
519.0348752834467	521.7051700680272	71	127
519.0348752834467	521.7051700680272	76	127
519.0348752834467	521.7051700680272	68	127
519.0348752834467	522.4830385487528	83	127
521.7167800453515	522.4830385487528	69	127
521.7167800453515	522.4830385487528	66	127
521.7167800453515	522.4830385487528	78	127
522.4946485260771	523.9110657596372	68	127
522.4946485260771	523.9110657596372	65	127
522.4946485260771	523.1912471655329	71	127
522.4946485260771	523.9110657596372	92	127
523.2028571428572	523.9110657596372	80	127
523.9226757369614	524.6889115646259	66	127
523.9226757369614	524.6889115646259	78	127
523.9226757369614	524.6889115646259	69	127
523.9226757369614	525.5596825396825	83	127
524.7121315192744	525.5596825396825	68	127
524.7121315192744	525.5596825396825	77	127
524.7121315192744	525.5596825396825	71	127
525.5712925170068	527.1038095238096	66	127
525.5712925170068	527.1038095238096	69	127
525.5712925170068	526.4304308390023	69	127
525.5712925170068	527.1038095238096	87	127
526.4420408163265	527.1038095238096	81	127
527.1154195011338	532.3282993197279	48	127
527.1154195011338	528.4970068027211	90	127
527.1154195011338	529.9018140589569	75	127
527.1154195011338	532.3282993197279	66	127
527.1154195011338	532.3282993197279	75	127
527.1154195011338	532.3282993197279	60	127
528.5086167800454	532.3282993197279	93	127
529.9134240362812	531.4923809523809	76	127
531.5039909297052	532.3282993197279	78	127
532.3515192743764	534.3135827664399	64	127
532.3515192743764	534.3135827664399	76	127
532.3515192743764	535.0566439909297	48	127
532.3515192743764	535.0566439909297	76	127
532.3515192743764	533.2802947845805	91	127
532.3515192743764	535.0566439909297	60	127
533.2919047619048	534.3135827664399	90	127
534.3600453514739	535.0566439909297	67	127
534.3600453514739	535.0566439909297	88	127
535.068253968254	535.776462585034	66	127
535.068253968254	535.776462585034	51	127
535.068253968254	536.4962811791384	71	127
535.068253968254	535.776462585034	59	127
535.068253968254	536.4962811791384	90	127
535.7996825396825	537.8546485260771	59	127
535.7996825396825	536.4962811791384	66	127
535.7996825396825	536.4962811791384	51	127
536.5078911564626	537.8546485260771	52	127
536.5078911564626	537.8546485260771	59	127
536.5078911564626	537.8546485260771	88	127
536.5078911564626	537.494739229025	68	127
537.494739229025	537.8546485260771	67	127
537.8662585034014	538.7602267573697	36	127
537.8662585034014	538.7602267573697	67	127
537.8662585034014	538.7602267573697	76	127
537.8662585034014	538.7602267573697	55	127
537.8662585034014	538.7602267573697	60	127
537.8662585034014	538.7602267573697	48	127
538.8298866213152	539.7238548752835	71	127
538.8298866213152	539.7238548752835	66	127
538.8298866213152	539.7238548752835	51	127
538.8298866213152	539.7238548752835	39	127
539.7354648526077	547.3748299319728	40	127
539.7354648526077	540.5133333333333	71	127
539.7354648526077	541.4885714285714	56	127
539.7354648526077	541.4885714285714	50	127
539.7354648526077	545.308253968254	52	127
540.5365532879819	541.4885714285714	68	127
541.5001814058957	543.4158276643991	57	127
541.5001814058957	542.3477097505669	49	127
541.5001814058957	542.3477097505669	71	127
542.3593197278911	544.3562358276644	69	127
542.3593197278911	543.4158276643991	48	127
543.4274376417234	545.308253968254	47	127
543.4274376417234	545.308253968254	59	127
544.3794557823129	545.308253968254	64	127
545.3198639455783	547.3748299319728	46	127
545.3198639455783	546.2834920634921	68	127
545.3198639455783	547.3748299319728	61	127
545.3198639455783	547.3748299319728	52	127
546.3183219954649	548.2920181405896	66	127
547.3980272108844	548.2920181405896	60	127
547.3980272108844	548.2920181405896	45	127
547.3980272108844	552.5644897959183	40	127
547.3980272108844	550.4050340136055	52	127
548.3268480725624	549.0931065759637	43	127
548.3268480725624	551.7169614512471	59	127
548.3268480725624	549.1163265306122	64	127
549.1163265306122	550.4050340136055	66	127
549.1163265306122	551.7169614512471	45	127
550.4050340136055	552.1697505668934	59	127
550.4050340136055	552.1697505668934	51	127
552.5877097505669	557.6148072562358	64	127
553.4120181405896	554.050566893424	64	127
553.4120181405896	554.050566893424	40	127
553.4120181405896	554.050566893424	52	127
554.224716553288	554.7239455782313	52	127
554.224716553288	554.7239455782313	40	127
554.224716553288	554.7239455782313	64	127
554.8748752834467	555.327664399093	64	127
554.8748752834467	555.327664399093	52	127
554.8748752834467	555.327664399093	40	127
555.4669841269841	556.0126530612245	64	127
555.4669841269841	556.0126530612245	52	127
555.4669841269841	556.0126530612245	40	127
556.1519727891157	556.7440816326531	52	127
556.1519727891157	556.7440816326531	40	127
556.1519727891157	556.7440816326531	64	127
556.8950113378685	557.6148072562358	64	127
556.8950113378685	557.6148072562358	52	127
556.8950113378685	557.6148072562358	40	127
557.6264172335601	563.4894784580499	51	127
557.6264172335601	558.2649886621315	63	127
557.6264172335601	558.2649886621315	39	127
557.6264172335601	562.1078684807256	63	127
558.28820861678	559.0080272108844	63	127
558.28820861678	558.3694784580499	39	127
558.3694784580499	558.462358276644	41	127
558.462358276644	558.5552380952381	39	127
558.5552380952381	558.636485260771	41	127
558.636485260771	558.7874376417234	39	127
558.7874376417234	558.903537414966	38	127
558.903537414966	559.0196371882087	39	127
559.0196371882087	559.6001360544218	63	127
559.0196371882087	559.6001360544218	60	127
559.0196371882087	559.5536961451247	44	127
559.7510657596372	560.2967346938775	63	127
559.7510657596372	560.2619047619048	48	127
559.7510657596372	560.2967346938775	60	127
560.447664399093	560.9004308390023	51	127
560.447664399093	560.9468934240363	60	127
560.447664399093	560.9468934240363	63	127
561.0978004535148	561.4461224489796	55	127
561.0978004535148	561.4925623582767	60	127
561.0978004535148	561.4925623582767	63	127
561.6318820861678	561.9685714285714	60	127
561.6318820861678	561.9685714285714	63	127
561.6318820861678	561.9221088435374	56	127
562.1194784580499	562.6071201814059	75	127
562.1194784580499	562.653560090703	60	127
562.1194784580499	562.653560090703	63	127
562.1194784580499	562.6071201814059	60	127
562.7231972789116	562.8857596371882	75	127
562.8044897959184	564.0815873015873	84	127
562.8044897959184	563.3269387755103	63	127
562.8044897959184	563.3733786848072	60	127
562.8044897959184	563.3733786848072	63	127
563.5010884353742	564.0119274376417	60	127
563.5010884353742	564.0119274376417	63	127
563.5010884353742	564.0119274376417	51	127
563.5010884353742	563.9654648526077	67	127
564.0815873015873	564.4298866213152	51	127
564.0815873015873	564.244126984127	82	127
564.0815873015873	564.3834467120181	68	127
564.0815873015873	564.4298866213152	60	127
564.0815873015873	564.4298866213152	63	127
564.244126984127	564.5343764172336	80	127
564.5459863945579	565.0219954648526	70	127
564.5459863945579	565.0684353741497	61	127
564.5459863945579	565.0684353741497	63	127
564.5459863945579	570.467074829932	58	127
564.5459863945579	565.7302040816327	80	127
564.5459863945579	570.467074829932	51	127
565.1613151927438	565.5444444444445	39	127
565.1613151927438	565.5908616780046	61	127
565.1613151927438	565.5908616780046	63	127
565.741814058957	566.2294331065759	61	127
565.741814058957	566.055283446712	79	127
565.741814058957	565.834693877551	39	127
565.741814058957	566.2294331065759	63	127
565.834693877551	565.8927437641723	41	127
565.8927437641723	565.962403628118	39	127
565.962403628118	566.055283446712	41	127
566.055283446712	566.1481632653062	39	127
566.055283446712	566.3223129251701	75	127
566.1481632653062	566.2526530612245	38	127
566.2526530612245	566.3455328798186	39	127
566.3455328798186	566.8679818594104	63	127
566.3455328798186	569.2596371882087	87	127
566.3455328798186	566.8331292517007	43	127
566.3455328798186	566.8679818594104	61	127
566.937641723356	567.3207709750567	61	127
566.937641723356	567.3207709750567	63	127
566.937641723356	567.2743310657596	46	127
567.4717006802721	567.9825396825397	63	127
567.4717006802721	567.9825396825397	61	127
567.4717006802721	567.9360997732426	49	127
568.0754195011338	568.5049886621315	51	127
568.0754195011338	568.5514285714286	63	127
568.0754195011338	568.5514285714286	61	127
568.6791383219954	569.1087074829932	55	127
568.6791383219954	569.143537414966	61	127
568.6791383219954	569.143537414966	63	127
569.2712244897959	569.7472562358276	63	127
569.2712244897959	569.8749659863946	85	127
569.2712244897959	569.7472562358276	61	127
569.2712244897959	569.7124263038548	58	127
569.8981632653062	570.339365079365	63	127
569.8981632653062	570.3625850340136	61	127
569.8981632653062	570.3625850340136	63	127
569.8981632653062	570.9314739229025	85	127
570.467074829932	570.8850340136055	61	127
570.467074829932	570.8850340136055	63	127
570.467074829932	570.8850340136055	51	127
570.467074829932	570.8850340136055	58	127
570.467074829932	570.8850340136055	65	127
570.954693877551	571.302993197279	84	127
570.954693877551	571.4771428571429	67	127
570.954693877551	571.5119727891157	61	127
570.954693877551	571.5119727891157	63	127
570.954693877551	571.5119727891157	51	127
570.954693877551	571.5119727891157	58	127
571.302993197279	571.6048526077097	82	127
571.616462585034	572.1272789115646	82	127
571.616462585034	572.0228117913832	66	127
571.616462585034	572.057641723356	63	127
571.616462585034	572.1040816326531	51	127
571.616462585034	572.1040816326531	60	127
572.1272789115646	572.5336507936508	63	127
572.1272789115646	572.6033106575964	81	127
572.1272789115646	572.5220408163266	36	127
572.1272789115646	574.9949433106576	54	127
572.1272789115646	572.5336507936508	57	127
572.6033106575964	573.1954195011338	87	127
572.6033106575964	572.7542176870749	37	127
572.6033106575964	573.114149659864	57	127
572.6033106575964	573.114149659864	63	127
572.7542176870749	572.9283900226758	36	127
572.9283900226758	573.0909297052154	37	127
573.0909297052154	573.1954195011338	36	127
573.1954195011338	573.64820861678	63	127
573.1954195011338	574.3796145124717	87	127
573.1954195011338	573.6133786848072	39	127
573.1954195011338	573.64820861678	60	127
573.7991383219954	574.2403174603174	60	127
573.7991383219954	574.1938548752835	42	127
573.7991383219954	574.2403174603174	63	127
574.391224489796	574.8672562358277	63	127
574.391224489796	574.7163265306123	85	127
574.391224489796	574.8208163265306	45	127
574.391224489796	574.8672562358277	60	127
574.7163265306123	574.9949433106576	84	127
575.0065532879819	575.4361451247165	65	127
575.0065532879819	575.4825850340136	58	127
575.0065532879819	575.6102721088436	84	127
575.0065532879819	577.3053514739229	58	127
575.0065532879819	577.3053514739229	53	127
575.6102721088436	576.1211337868481	58	127
575.6102721088436	576.1211337868481	82	127
575.6102721088436	576.1095238095238	37	127
575.6102721088436	576.1211337868481	65	127
576.1211337868481	577.8161904761905	89	127
576.1211337868481	576.1559637188209	37	127
576.1211337868481	576.6203628117914	65	127
576.1211337868481	576.6203628117914	61	127
576.1559637188209	576.2488435374149	39	127
576.2488435374149	576.3301133786848	37	127
576.3301133786848	576.4113832199547	39	127
576.4113832199547	576.5274829931973	37	127
576.5274829931973	576.643560090703	36	127
576.643560090703	576.7132426303855	37	127
576.7132426303855	577.2240816326531	65	127
576.7132426303855	577.177641723356	41	127
576.7132426303855	577.2240816326531	61	127
577.3053514739229	577.792970521542	53	127
577.3053514739229	577.792970521542	58	127
577.3053514739229	577.7813605442177	46	127
577.3053514739229	577.792970521542	61	127
577.3053514739229	577.792970521542	65	127
577.8161904761905	578.1528798185941	87	127
577.8161904761905	578.2805668934241	49	127
577.8161904761905	578.327029478458	61	127
577.8161904761905	578.327029478458	65	127
577.8161904761905	578.327029478458	53	127
577.8161904761905	578.327029478458	58	127
578.1528798185941	578.4315192743765	85	127
578.4431292517007	581.8796825396826	56	127
578.4431292517007	580.1033333333334	84	127
578.4431292517007	578.8494784580499	63	127
578.4431292517007	578.89589569161	60	127
578.4431292517007	578.89589569161	68	127
578.4431292517007	580.1033333333334	51	127
578.988798185941	579.4531972789116	60	127
578.988798185941	579.4067573696145	39	127
578.988798185941	579.4531972789116	68	127
579.5576870748299	580.0336961451247	60	127
579.5576870748299	579.6273469387755	39	127
579.5576870748299	580.0336961451247	68	127
579.6273469387755	579.6853968253969	41	127
579.6853968253969	579.7550566893424	39	127
579.7550566893424	579.824716553288	41	127
579.824716553288	579.9524263038548	39	127
579.9524263038548	580.0685260770975	38	127
580.0685260770975	580.1033333333334	39	127
580.1033333333334	582.4601814058957	53	127
580.1033333333334	580.5561451247165	44	127
580.1033333333334	580.6025850340136	68	127
580.1033333333334	581.8796825396826	83	127
580.7419047619047	581.1366213151928	47	127
580.7419047619047	581.1830839002267	68	127
581.2991836734694	581.7751927437641	59	127
581.2991836734694	581.7751927437641	68	127
581.2991836734694	581.7287528344672	50	127
581.8912925170068	582.3208616780046	51	127
581.8912925170068	582.3556689342404	67	127
581.8912925170068	582.8665306122449	82	127
581.8912925170068	584.0159183673469	55	127
582.47179138322	582.8665306122449	63	127
582.47179138322	582.8665306122449	58	127
582.47179138322	584.0159183673469	51	127
582.47179138322	582.8200907029478	55	127
582.8665306122449	583.1103401360544	80	127
582.8665306122449	583.2612698412698	56	127
582.8665306122449	583.2960997732426	58	127
582.8665306122449	583.2960997732426	63	127
583.1103401360544	583.4238095238095	79	127
583.4238095238095	583.88820861678	58	127
583.4238095238095	583.8533786848072	63	127
583.4238095238095	583.88820861678	63	127
583.4238095238095	583.7256689342404	77	127
583.7256689342404	584.0159183673469	76	127
584.0275283446712	584.3642176870749	76	127
584.0275283446712	584.5267573696145	65	127
584.0275283446712	584.5499773242631	58	127
584.0275283446712	584.5499773242631	63	127
584.0275283446712	584.6196145124717	51	127
584.0275283446712	584.6196145124717	56	127
584.3642176870749	584.6312471655328	75	127
584.6312471655328	585.165306122449	58	127
584.6312471655328	584.724126984127	73	127
584.6312471655328	585.165306122449	63	127
584.6312471655328	585.2814058956916	58	127
584.6312471655328	585.2814058956916	51	127
584.6312471655328	585.1188662131519	67	127
584.724126984127	584.7937868480726	75	127
584.7937868480726	584.8750566893424	73	127
584.8750566893424	584.9563265306123	75	127
584.9563265306123	585.0724263038549	73	127
585.0724263038549	585.1885260770975	72	127
585.1885260770975	585.2930158730159	73	127
585.2930158730159	585.8502721088436	60	127
585.2930158730159	585.9315646258503	72	127
585.2930158730159	588.6250793650794	56	127
585.2930158730159	585.8502721088436	60	127
585.2930158730159	585.8502721088436	63	127
585.2930158730159	585.8502721088436	51	127
585.9315646258503	586.4075736961452	60	127
585.9315646258503	586.4075736961452	75	127
585.9315646258503	586.4075736961452	51	127
585.9315646258503	586.4656235827664	63	127
586.4772335600907	587.0345124716554	75	127
586.4772335600907	586.5701133786848	63	127
586.4772335600907	587.0345124716554	60	127
586.4772335600907	587.0345124716554	51	127
586.5701133786848	586.6281632653062	65	127
586.6281632653062	586.7210430839002	63	127
586.7210430839002	586.8139229024944	65	127
586.8139229024944	586.930022675737	63	127
586.930022675737	587.0345124716554	62	127
587.0345124716554	587.1041723356009	63	127
587.1041723356009	587.6730385487529	75	127
587.1041723356009	587.6730385487529	51	127
587.1041723356009	587.6730385487529	60	127
587.1041723356009	587.59179138322	68	127
587.7891609977324	588.2651700680273	75	127
587.7891609977324	588.2651700680273	51	127
587.7891609977324	588.2651700680273	60	127
587.7891609977324	588.1955102040816	72	127
588.346439909297	588.741179138322	75	127
588.346439909297	588.8108390022676	75	127
588.346439909297	588.8108390022676	51	127
588.346439909297	588.8108390022676	60	127
588.6366893424037	588.9269387755102	58	127
588.9269387755102	589.4842176870749	75	127
588.9269387755102	589.4842176870749	51	127
588.9269387755102	590.50589569161	60	127
588.9269387755102	589.4842176870749	60	127
588.9269387755102	589.4145578231293	80	127
589.5887074829932	590.0414965986395	51	127
589.5887074829932	589.9602267573696	84	127
589.5887074829932	590.0414965986395	75	127
589.5887074829932	590.0414965986395	60	127
590.157596371882	590.5871655328798	87	127
590.157596371882	590.6452154195011	75	127
590.157596371882	590.6452154195011	51	127
590.157596371882	590.6452154195011	60	127
590.50589569161	590.7613151927437	61	127
590.7613151927437	591.7829931972789	63	127
590.7613151927437	590.9238548752835	91	127
590.7613151927437	590.9586621315193	75	127
590.7613151927437	590.9586621315193	51	127
590.7613151927437	590.9586621315193	60	127
591.0747845804989	591.3882539682539	60	127
591.0747845804989	591.3882539682539	75	127
591.0747845804989	591.3302040816327	92	127
591.0747845804989	591.3882539682539	51	127
591.5159637188209	592.0151927437641	75	127
591.5159637188209	592.0151927437641	51	127
591.5159637188209	591.9339229024944	80	127
591.5159637188209	592.0151927437641	60	127
591.7829931972789	592.1312925170068	65	127
592.1429024943311	592.6073015873015	79	127
592.1429024943311	592.6073015873015	51	127
592.1429024943311	592.6073015873015	61	127
592.1429024943311	592.6073015873015	63	127
592.1429024943311	592.6073015873015	75	127
592.1429024943311	593.2806802721088	65	127
592.6073015873015	592.8975510204082	61	127
592.6073015873015	592.9556009070295	77	127
592.6073015873015	592.9556009070295	63	127
592.6073015873015	592.8975510204082	51	127
592.9672108843538	593.5012698412698	51	127
592.9672108843538	593.025260770975	63	127
592.9672108843538	593.5012698412698	61	127
592.9672108843538	593.6057369614513	75	127
593.025260770975	593.1065306122449	65	127
593.1065306122449	593.1993877551021	63	127
593.1993877551021	593.2806802721088	65	127
593.2806802721088	593.3851700680273	63	127
593.2806802721088	593.6173469387755	63	127
593.3851700680273	593.5012698412698	62	127
593.5012698412698	593.6173469387755	63	127
593.6173469387755	594.1978684807257	63	127
593.6173469387755	594.1978684807257	75	127
593.6173469387755	594.1978684807257	51	127
593.6173469387755	594.1978684807257	58	127
593.6173469387755	595.1150566893424	61	127
593.6173469387755	594.1282086167801	67	127
594.3139682539683	594.6970975056689	63	127
594.3139682539683	594.6970975056689	75	127
594.3139682539683	594.6970975056689	51	127
594.3139682539683	594.6970975056689	58	127
594.3139682539683	594.6158276643991	70	127
594.8131972789116	595.3704761904762	63	127
594.8131972789116	595.277596371882	73	127
594.8131972789116	595.3704761904762	75	127
594.8131972789116	595.3704761904762	51	127
594.8131972789116	595.3704761904762	58	127
595.1150566893424	595.4981859410431	58	127
595.4981859410431	596.020634920635	75	127
595.4981859410431	595.9393650793651	75	127
595.4981859410431	596.020634920635	63	127
595.4981859410431	597.170022675737	55	127
595.4981859410431	596.020634920635	58	127
595.4981859410431	596.020634920635	51	127
596.1599546485261	596.728843537415	51	127
596.1599546485261	596.6591836734694	79	127
596.1599546485261	596.728843537415	63	127
596.1599546485261	596.728843537415	75	127
596.1599546485261	596.728843537415	58	127
596.8565532879819	597.3209523809523	82	127
596.8565532879819	597.390612244898	63	127
596.8565532879819	597.390612244898	75	127
596.8565532879819	597.390612244898	51	127
596.8565532879819	597.390612244898	61	127
597.170022675737	597.5066893424037	63	127
597.5066893424037	597.8898185941043	63	127
597.5066893424037	597.8550113378685	87	127
597.5066893424037	597.8898185941043	70	127
597.5066893424037	597.8898185941043	51	127
597.5066893424037	597.8898185941043	61	127
597.5066893424037	598.5283673469388	61	127
597.8898185941043	598.052380952381	63	127
597.8898185941043	598.052380952381	70	127
597.8898185941043	598.052380952381	51	127
597.8898185941043	598.052380952381	61	127
597.8898185941043	597.9827210884354	89	127
598.1800907029478	598.7257369614513	91	127
598.1800907029478	598.807029478458	67	127
598.1800907029478	598.807029478458	70	127
598.1800907029478	598.807029478458	51	127
598.1800907029478	598.807029478458	58	127
598.5283673469388	598.9115192743765	58	127
598.9115192743765	598.9927891156462	72	127
598.9115192743765	598.9927891156462	51	127
598.9115192743765	598.9927891156462	92	127
598.9115192743765	599.9563945578232	56	127
598.9927891156462	599.4804081632653	52	127
598.9927891156462	599.4804081632653	72	127
598.9927891156462	599.5848979591836	72	127
599.5965079365079	600.2002267573696	56	127
599.5965079365079	600.2002267573696	53	127
599.5965079365079	599.6893877551021	84	127
599.6893877551021	599.7706575963718	85	127
599.7706575963718	599.863537414966	84	127
599.863537414966	599.9563945578232	85	127
599.9563945578232	600.084126984127	84	127
599.9563945578232	600.3279365079366	68	127
600.084126984127	600.2002267573696	83	127
600.2002267573696	600.3279365079366	84	127
600.3279365079366	601.7791609977324	67	127
600.3279365079366	600.9432653061225	56	127
600.3279365079366	600.9432653061225	53	127
600.9548752834468	601.4773242630386	58	127
600.9548752834468	601.4773242630386	72	127
600.9548752834468	601.4773242630386	55	127
601.4773242630386	602.069433106576	56	127
601.4773242630386	601.5585941043084	77	127
601.4773242630386	602.069433106576	60	127
601.5585941043084	601.6398639455782	79	127
601.6398639455782	601.7095238095238	77	127
601.7095238095238	601.7791609977324	79	127
601.7791609977324	602.069433106576	65	127
601.7791609977324	601.895283446712	77	127
601.895283446712	601.9997505668935	76	127
601.9997505668935	602.069433106576	77	127
602.069433106576	602.6847619047619	57	127
602.069433106576	602.5918820861679	60	127
602.069433106576	603.5787301587302	65	127
602.6963718820862	603.2187981859411	55	127
602.6963718820862	603.2187981859411	58	127
602.6963718820862	603.3233106575964	70	127
602.6963718820862	603.2187981859411	67	127
603.3349206349206	603.6832199546485	58	127
603.3349206349206	603.4277777777778	79	127
603.3349206349206	603.6832199546485	67	127
603.3349206349206	603.6832199546485	55	127
603.4277777777778	603.5090702947846	80	127
603.5090702947846	603.5439002267574	79	127
603.5439002267574	603.5787301587302	80	127
603.5787301587302	603.7760997732427	63	127
603.5787301587302	603.6832199546485	79	127
603.6832199546485	603.7760997732427	79	127
603.7760997732427	604.3333786848073	68	127
603.7760997732427	604.3333786848073	58	127
603.7760997732427	605.1925170068027	65	127
604.4262585034014	604.9370975056689	70	127
604.4262585034014	604.8558049886622	68	127
604.4262585034014	604.8558049886622	58	127
604.9487074829932	605.0183673469388	80	127
604.9487074829932	605.3666666666667	58	127
604.9487074829932	605.3666666666667	65	127
604.9487074829932	605.3666666666667	62	127
605.0183673469388	605.0880272108843	82	127
605.0880272108843	605.1576870748299	80	127
605.1576870748299	605.1925170068027	82	127
605.1925170068027	605.4479365079366	61	127
605.1925170068027	605.2737641723356	80	127
605.2737641723356	605.3666666666667	79	127
605.3666666666667	605.4595238095238	80	127
605.4595238095238	607.0268934240363	62	127
605.4595238095238	605.9936054421769	56	127
605.4595238095238	605.9936054421769	51	127
605.4595238095238	605.9936054421769	58	127
605.4595238095238	605.9936054421769	65	127
606.1097052154195	606.6437641723356	65	127
606.1097052154195	606.6437641723356	51	127
606.1097052154195	606.6437641723356	58	127
606.1097052154195	606.7134240362811	70	127
606.1097052154195	606.6437641723356	56	127
606.7134240362811	607.2590929705216	65	127
606.7134240362811	606.7830839002268	80	127
606.7134240362811	607.2590929705216	58	127
606.7134240362811	607.2590929705216	56	127
606.7134240362811	607.2590929705216	51	127
606.7830839002268	606.8527437641724	82	127
606.8527437641724	606.9456235827664	80	127
606.9456235827664	607.0268934240363	82	127
607.0268934240363	607.1429931972789	80	127
607.0268934240363	607.3519727891156	65	127
607.1429931972789	607.2590929705216	79	127
607.2590929705216	607.3519727891156	80	127
607.3519727891156	607.851201814059	56	127
607.3519727891156	607.851201814059	65	127
607.3519727891156	607.851201814059	51	127
607.3519727891156	607.851201814059	58	127
607.3519727891156	607.9556916099773	65	127
607.9673015873016	608.5245578231293	56	127
607.9673015873016	608.9657596371882	68	127
607.9673015873016	608.5245578231293	51	127
607.9673015873016	608.6290702947846	77	127
607.9673015873016	608.5245578231293	65	127
607.9673015873016	608.5245578231293	58	127
608.6406802721089	609.1863492063492	56	127
608.6406802721089	608.7219501133787	82	127
608.6406802721089	609.1863492063492	51	127
608.6406802721089	609.1863492063492	65	127
608.6406802721089	609.1863492063492	58	127
608.7219501133787	608.8032199546485	84	127
608.8032199546485	608.8960997732427	82	127
608.8960997732427	608.9773696145124	84	127
608.9773696145124	609.1166893424037	61	127
608.9773696145124	609.0702494331066	82	127
609.0702494331066	609.1863492063492	81	127
609.1863492063492	609.2908390022676	82	127
609.2908390022676	609.7436281179139	58	127
609.2908390022676	609.7436281179139	55	127
609.2908390022676	609.7436281179139	67	127
609.2908390022676	609.7436281179139	51	127
609.2908390022676	609.8365079365079	65	127
609.8481179138322	610.3821541950114	55	127
609.8481179138322	610.3821541950114	75	127
609.8481179138322	610.3821541950114	51	127
609.8481179138322	610.3821541950114	63	127
610.3937868480725	610.985873015873	56	127
610.3937868480725	610.4750566893424	87	127
610.3937868480725	610.718866213152	61	127
610.3937868480725	610.985873015873	53	127
610.4750566893424	610.5679138321996	89	127
610.5679138321996	610.6375963718821	87	127
610.6375963718821	610.718866213152	89	127
610.718866213152	610.8349659863945	87	127
610.718866213152	610.985873015873	60	127
610.8349659863945	610.9162358276644	86	127
610.9162358276644	611.0091156462585	87	127
611.0091156462585	611.5431746031746	60	127
611.0091156462585	611.5431746031746	56	127
611.0091156462585	611.5431746031746	53	127
611.5547845804989	612.0424036281179	75	127
611.5547845804989	612.0424036281179	58	127
611.5547845804989	612.0424036281179	55	127
611.5547845804989	612.0424036281179	58	127
612.0424036281179	612.1236734693878	87	127
612.0424036281179	612.6809523809524	56	127
612.0424036281179	612.6809523809524	56	127
612.0424036281179	612.6809523809524	60	127
612.1236734693878	612.2165306122449	89	127
612.2165306122449	612.2978231292517	87	127
612.2978231292517	612.3790929705216	89	127
612.3790929705216	612.4835827664399	87	127
612.4835827664399	612.576462585034	86	127
612.576462585034	612.6925623582766	87	127
612.6925623582766	615.8736961451248	70	127
612.6925623582766	613.1685714285715	58	127
612.6925623582766	613.1685714285715	63	127
612.6925623582766	613.1685714285715	51	127
612.6925623582766	613.1685714285715	61	127
612.6925623582766	613.2382086167801	55	127
613.2614512471655	613.6561678004535	63	127
613.2614512471655	613.6561678004535	51	127
613.2614512471655	613.6561678004535	61	127
613.2614512471655	613.7490702947846	39	127
613.2614512471655	613.6561678004535	75	127
613.7606802721089	614.3063492063492	63	127
613.7606802721089	613.853537414966	39	127
613.7606802721089	614.3063492063492	61	127
613.7606802721089	614.3063492063492	51	127
613.7606802721089	614.3063492063492	75	127
613.853537414966	613.9348299319728	41	127
613.9348299319728	614.0160997732427	39	127
614.0160997732427	614.1089795918367	41	127
614.1089795918367	614.2134693877551	39	127
614.2134693877551	614.3063492063492	38	127
614.3063492063492	614.4224489795919	39	127
614.4224489795919	614.9565079365079	63	127
614.4224489795919	614.9565079365079	51	127
614.4224489795919	614.9565079365079	61	127
614.4224489795919	614.9565079365079	75	127
614.4224489795919	614.8984580498866	43	127
615.0609977324264	615.444126984127	63	127
615.0609977324264	615.3744671201814	46	127
615.0609977324264	615.444126984127	75	127
615.0609977324264	615.444126984127	51	127
615.0609977324264	615.444126984127	61	127
615.5602267573696	616.0942630385488	63	127
615.5602267573696	616.0362358276644	49	127
615.5602267573696	616.0942630385488	51	127
615.5602267573696	616.0942630385488	61	127
615.5602267573696	616.0942630385488	75	127
615.885283446712	616.1871655328798	68	127
616.1987755102041	617.6732426303855	68	127
616.1987755102041	616.593514739229	51	127
616.1987755102041	616.6631746031746	63	127
616.1987755102041	616.6631746031746	75	127
616.1987755102041	616.6631746031746	51	127
616.1987755102041	616.6631746031746	61	127
616.7444444444444	617.2668934240363	75	127
616.7444444444444	617.2668934240363	63	127
616.7444444444444	617.2668934240363	51	127
616.7444444444444	617.2668934240363	61	127
616.7444444444444	617.2204535147392	55	127
617.3713832199546	617.8938321995465	63	127
617.3713832199546	617.8125623582766	58	127
617.3713832199546	617.8938321995465	75	127
617.3713832199546	617.8938321995465	51	127
617.3713832199546	617.8938321995465	61	127
617.6732426303855	617.9054421768708	67	127
617.9054421768708	618.3698412698412	75	127
617.9054421768708	618.3698412698412	63	127
617.9054421768708	619.2754195011338	68	127
617.9054421768708	618.3698412698412	61	127
617.9054421768708	618.31179138322	63	127
617.9054421768708	618.3698412698412	51	127
618.4627210884354	618.9619274376417	63	127
618.4627210884354	618.8922902494331	65	127
618.4627210884354	618.9619274376417	75	127
618.4627210884354	618.9619274376417	51	127
618.4627210884354	618.9619274376417	61	127
618.9851700680272	619.3915192743764	67	127
618.9851700680272	619.4495691609977	75	127
618.9851700680272	619.4495691609977	63	127
618.9851700680272	619.4495691609977	51	127
618.9851700680272	619.4495691609977	61	127
619.2754195011338	619.5540589569162	70	127
619.5540589569162	619.9487981859411	63	127
619.5540589569162	619.9487981859411	51	127
619.5540589569162	619.9487981859411	60	127
619.5540589569162	620.0416780045351	71	127
619.5540589569162	620.0416780045351	57	127
619.5540589569162	619.9487981859411	75	127
620.0532879818594	620.51768707483	63	127
620.0532879818594	622.6655328798186	72	127
620.0532879818594	620.51768707483	75	127
620.0532879818594	620.51768707483	51	127
620.0532879818594	620.51768707483	60	127
620.0532879818594	620.5989342403628	41	127
620.6105442176871	621.1097959183674	60	127
620.6105442176871	620.6918367346939	41	127
620.6105442176871	621.1097959183674	63	127
620.6105442176871	621.1097959183674	75	127
620.6105442176871	621.1097959183674	51	127
620.6918367346939	620.784716553288	43	127
620.784716553288	620.8659863945578	41	127
620.8659863945578	620.9356462585034	43	127
620.9356462585034	621.0285260770975	41	127
621.0285260770975	621.1097959183674	40	127
621.1097959183674	621.225873015873	41	127
621.225873015873	621.6786848072562	63	127
621.225873015873	621.6786848072562	75	127
621.225873015873	621.6786848072562	51	127
621.225873015873	621.6786848072562	60	127
621.225873015873	621.6090022675737	41	127
621.7483446712018	622.2359410430839	63	127
621.7483446712018	622.2359410430839	75	127
621.7483446712018	622.2359410430839	51	127
621.7483446712018	622.2359410430839	60	127
621.7483446712018	622.1779138321996	45	127
622.3520634920635	622.8861224489796	51	127
622.3520634920635	622.8164625850341	48	127
622.3520634920635	622.8861224489796	63	127
622.3520634920635	622.8861224489796	75	127
622.3520634920635	622.8861224489796	60	127
622.6655328798186	623.0022222222223	71	127
623.0022222222223	623.4434013605443	63	127
623.0022222222223	623.3853514739229	53	127
623.0022222222223	623.4434013605443	75	127
623.0022222222223	623.4434013605443	51	127
623.0022222222223	623.4434013605443	60	127
623.0022222222223	624.4070294784581	70	127
623.4898412698412	624.0239002267574	75	127
623.4898412698412	624.0239002267574	60	127
623.4898412698412	624.0239002267574	63	127
623.4898412698412	623.9426303854875	60	127
623.4898412698412	624.0239002267574	51	127
624.0935600907029	624.6043990929705	63	127
624.0935600907029	624.6043990929705	75	127
624.0935600907029	624.6043990929705	51	127
624.0935600907029	624.6043990929705	60	127
624.0935600907029	624.5347392290249	65	127
624.4070294784581	624.6508390022676	69	127
624.6508390022676	626.0092063492064	70	127
624.6508390022676	625.0919954648526	65	127
624.6508390022676	625.1616780045351	63	127
624.6508390022676	625.1616780045351	75	127
624.6508390022676	625.1616780045351	51	127
624.6508390022676	625.1616780045351	60	127
625.2777777777778	625.6144671201814	63	127
625.2777777777778	625.6144671201814	75	127
625.2777777777778	625.6144671201814	51	127
625.2777777777778	625.6144671201814	60	127
625.2777777777778	625.5912471655329	67	127
625.7189342403628	626.1949659863945	63	127
625.7189342403628	626.1601360544217	69	127
625.7189342403628	626.1949659863945	75	127
625.7189342403628	626.1949659863945	51	127
625.7189342403628	626.1949659863945	60	127
626.0092063492064	626.2646258503402	72	127
626.2646258503402	626.6825850340136	53	127
626.2646258503402	626.6825850340136	62	127
626.2646258503402	629.2483900226757	74	127
626.2646258503402	626.6941950113379	68	127
626.2646258503402	626.6825850340136	74	127
626.2646258503402	626.6825850340136	58	127
626.6941950113379	627.1934240362812	58	127
626.6941950113379	627.1934240362812	56	127
626.6941950113379	627.1934240362812	62	127
626.6941950113379	627.1934240362812	53	127
626.6941950113379	627.274693877551	46	127
627.2863038548753	627.3675736961451	46	127
627.2863038548753	627.8435827664399	62	127
627.2863038548753	627.8435827664399	53	127
627.2863038548753	627.8435827664399	58	127
627.2863038548753	627.8435827664399	56	127
627.3675736961451	627.448843537415	48	127
627.448843537415	627.5417006802721	46	127
627.5417006802721	627.6229931972789	48	127
627.6229931972789	627.7274829931973	46	127
627.7274829931973	627.8435827664399	45	127
627.8435827664399	627.9248526077098	46	127
627.9248526077098	628.4008616780045	62	127
627.9248526077098	628.4008616780045	56	127
627.9248526077098	628.4008616780045	53	127
627.9248526077098	628.4008616780045	58	127
627.9248526077098	628.3544217687075	53	127
628.5053514739229	628.8536507936508	62	127
628.5053514739229	628.8420408163265	56	127
628.5053514739229	628.8536507936508	56	127
628.5053514739229	628.8536507936508	53	127
628.5053514739229	628.8536507936508	58	127
628.9581405895692	629.4109297052154	58	127
628.9581405895692	629.4689795918367	56	127
628.9581405895692	629.4689795918367	62	127
628.9581405895692	629.4689795918367	53	127
628.9581405895692	629.4689795918367	58	127
629.26	629.5734693877552	75	127
629.5734693877552	630.1075283446712	62	127
629.5734693877552	630.1075283446712	53	127
629.5734693877552	630.0378684807256	62	127
629.5734693877552	630.1075283446712	58	127
629.5734693877552	630.8853968253968	77	127
629.5734693877552	630.1075283446712	56	127
630.1771882086168	630.6648072562358	53	127
630.1771882086168	630.6183446712018	63	127
630.1771882086168	630.6648072562358	56	127
630.1771882086168	630.6648072562358	62	127
630.1771882086168	630.6648072562358	58	127
630.6764172335601	631.0479365079365	65	127
630.6764172335601	631.1175963718821	56	127
630.6764172335601	631.1175963718821	62	127
630.6764172335601	631.1175963718821	53	127
630.6764172335601	631.1175963718821	58	127
630.8853968253968	631.2336734693878	79	127
631.2336734693878	631.7097052154195	65	127
631.2336734693878	631.7793650793651	56	127
631.2336734693878	631.7793650793651	62	127
631.2336734693878	631.7793650793651	53	127
631.2336734693878	631.7793650793651	58	127
631.2336734693878	632.7197732426304	80	127
631.8838548752834	632.3598639455782	62	127
631.8838548752834	632.3598639455782	58	127
631.8838548752834	632.2902040816326	67	127
631.8838548752834	632.3598639455782	56	127
631.8838548752834	632.3598639455782	51	127
632.4411337868481	632.9403628117914	56	127
632.4411337868481	632.9403628117914	62	127
632.4411337868481	632.9403628117914	50	127
632.4411337868481	632.9403628117914	58	127
632.4411337868481	632.8706802721089	68	127
632.7197732426304	633.0564625850341	82	127
633.0564625850341	634.38	80	127
633.0564625850341	633.6137414965987	56	127
633.0564625850341	633.6137414965987	63	127
633.0564625850341	633.6137414965987	51	127
633.0564625850341	633.6137414965987	60	127
633.0564625850341	633.6949886621315	68	127
633.7066213151927	634.0084807256236	63	127
633.7066213151927	634.0084807256236	60	127
633.7066213151927	634.0084807256236	51	127
633.7066213151927	634.0084807256236	56	127
633.7066213151927	634.1013378684808	51	127
634.1129705215419	634.5657596371882	56	127
634.1129705215419	634.5657596371882	60	127
634.1129705215419	634.1942403628118	51	127
634.1129705215419	634.5657596371882	51	127
634.1129705215419	634.5657596371882	63	127
634.1942403628118	634.2639002267574	53	127
634.2639002267574	634.3451700680272	51	127
634.3451700680272	634.38	53	127
634.38	634.4728798185942	51	127
634.38	634.6586394557823	75	127
634.4728798185942	634.5657596371882	50	127
634.5657596371882	634.6586394557823	51	127
634.6586394557823	636.144693877551	73	127
634.6586394557823	635.1694784580499	55	127
634.6586394557823	635.1694784580499	63	127
634.6586394557823	635.1694784580499	51	127
634.6586394557823	635.1694784580499	58	127
634.6586394557823	635.262358276644	51	127
635.2739682539683	635.7964172335601	51	127
635.2739682539683	635.7964172335601	58	127
635.2739682539683	635.7964172335601	61	127
635.2739682539683	635.87768707483	39	127
635.2739682539683	635.7964172335601	63	127
635.9009070294785	636.3769160997732	51	127
635.9009070294785	636.3769160997732	55	127
635.9009070294785	636.3769160997732	63	127
635.9009070294785	636.3769160997732	58	127
635.9009070294785	635.970566893424	41	127
635.970566893424	636.0634467120182	39	127
636.0634467120182	636.144693877551	41	127
636.144693877551	636.2608163265306	39	127
636.144693877551	636.4581859410431	70	127
636.2608163265306	636.3769160997732	38	127
636.3769160997732	636.4581859410431	39	127
636.4581859410431	637.0038548752834	63	127
636.4581859410431	637.0038548752834	56	127
636.4581859410431	637.0967346938776	68	127
636.4581859410431	637.0967346938776	51	127
636.4581859410431	637.0967346938776	60	127
636.4581859410431	637.0967346938776	39	127
637.1083446712018	637.6191836734694	63	127
637.1083446712018	637.6191836734694	58	127
637.1083446712018	637.6191836734694	55	127
637.6307936507936	637.8862131519274	65	127
637.6307936507936	637.7120634920635	75	127
637.6307936507936	637.8862131519274	56	127
637.6307936507936	637.8862131519274	60	127
637.7120634920635	637.7700907029479	77	127
637.7700907029479	637.8049433106576	75	127
637.8049433106576	637.8165532879818	74	127
637.8165532879818	637.909433106576	75	127
637.909433106576	638.4551020408163	57	127
637.909433106576	638.4551020408163	66	127
637.909433106576	638.4551020408163	63	127
637.909433106576	638.4551020408163	60	127
638.4667120181406	639.0936507936508	75	127
638.4667120181406	639.0936507936508	67	127
638.4667120181406	639.0936507936508	58	127
638.4667120181406	639.0936507936508	61	127
639.1052607709751	639.6625396825397	51	127
639.1052607709751	639.186530612245	87	127
639.1052607709751	639.6625396825397	60	127
639.1052607709751	639.6625396825397	68	127
639.1052607709751	639.6625396825397	60	127
639.186530612245	639.279410430839	89	127
639.279410430839	639.3606802721089	87	127
639.3606802721089	639.4303401360544	89	127
639.4303401360544	639.4883900226757	87	127
639.4883900226757	639.5696598639456	86	127
639.5696598639456	639.6741496598639	87	127
639.6741496598639	640.2662585034013	57	127
639.6741496598639	640.1269387755102	75	127
639.6741496598639	640.2662585034013	66	127
639.6741496598639	640.2662585034013	51	127
639.6741496598639	640.2662585034013	60	127
640.2778684807256	643.2151927437642	51	127
640.2778684807256	640.7190476190476	63	127
640.2778684807256	642.9713832199546	67	127
640.2778684807256	642.9713832199546	61	127
640.2778684807256	642.9713832199546	58	127
640.9048072562358	640.99768707483	63	127
640.99768707483	641.04410430839	65	127
641.04410430839	641.1137868480726	63	127
641.1137868480726	641.1486167800454	65	127
641.1486167800454	641.2298866213152	63	127
641.2298866213152	641.3343764172336	62	127
641.3343764172336	641.438866213152	63	127
641.438866213152	641.8568027210885	67	127
642.0193650793651	642.5185941043084	70	127
642.6695011337869	643.0990702947846	73	127
642.9713832199546	643.2151927437642	65	127
642.9713832199546	643.2151927437642	60	127
642.9713832199546	643.2151927437642	56	127
643.2151927437642	644.6432199546485	60	127
643.2151927437642	643.6447619047619	75	127
643.2151927437642	644.6432199546485	65	127
643.2151927437642	644.6432199546485	56	127
643.8073015873016	644.306507936508	79	127
644.4690702947846	644.6664399092971	82	127
644.6432199546485	644.8289795918367	63	127
644.6432199546485	644.8289795918367	58	127
644.6432199546485	644.8289795918367	55	127
644.8289795918367	646.384716553288	56	127
644.8289795918367	645.235328798186	86	127
644.8289795918367	646.384716553288	65	127
644.8289795918367	646.384716553288	60	127
645.3862585034013	645.8390476190476	87	127
646.0248072562358	646.5356462585034	87	127
646.384716553288	646.7330158730159	67	127
646.384716553288	646.7330158730159	61	127
646.384716553288	646.7562358276645	58	127
646.7562358276645	647.9752834467121	58	127
646.7562358276645	647.1857823129252	75	127
646.7562358276645	647.9752834467121	67	127
646.7562358276645	647.9752834467121	61	127
647.3367346938776	647.8011111111111	63	127
647.9868707482993	649.9838095238096	60	127
647.9868707482993	648.0797732426304	63	127
647.9868707482993	649.9838095238096	69	127
647.9868707482993	649.9838095238096	63	127
648.0797732426304	648.149433106576	65	127
648.149433106576	648.2307029478458	63	127
648.2307029478458	648.3003628117914	65	127
648.3003628117914	648.4048299319728	63	127
648.4048299319728	648.4977324263039	62	127
648.4977324263039	648.5790022675737	63	127
648.5790022675737	649.0085487528345	66	127
649.1827210884354	649.6819501133787	69	127
649.8444671201814	650.134739229025	72	127
649.9838095238096	650.3088888888889	66	127
649.9838095238096	650.3088888888889	61	127
649.9838095238096	650.3088888888889	58	127
650.3204988662131	651.6092063492064	58	127
650.3204988662131	650.7036281179138	75	127
650.3204988662131	651.6092063492064	66	127
650.3204988662131	651.6092063492064	61	127
650.8661451247166	651.0983673469387	78	127
651.2724943310658	651.7369160997732	84	127
651.6092063492064	651.8762131519275	60	127
651.6092063492064	651.8762131519275	65	127
651.6092063492064	651.8762131519275	57	127
651.8762131519275	652.1780952380952	88	127
651.8762131519275	653.3507029478458	67	127
651.8762131519275	653.3507029478458	61	127
651.8762131519275	653.3507029478458	58	127
652.3406349206349	652.7934240362812	89	127
652.9791836734694	653.0836734693878	77	127
653.0836734693878	653.1649433106576	79	127
653.1649433106576	653.269433106576	77	127
653.269433106576	653.3507029478458	79	127
653.3507029478458	653.490022675737	77	127
653.3507029478458	653.7221995464853	60	127
653.3507029478458	653.7221995464853	63	127
653.3507029478458	653.7221995464853	69	127
653.490022675737	653.5945124716553	76	127
653.5945124716553	653.710612244898	77	127
653.7221995464853	656.8801360544218	70	127
653.7221995464853	654.1401587301588	77	127
653.7221995464853	656.8801360544218	62	127
653.7221995464853	656.8801360544218	65	127
653.7221995464853	656.8801360544218	68	127
654.1401587301588	654.5348979591837	58	127
654.6974603174604	654.7787301587301	58	127
654.7787301587301	654.8483900226757	60	127
654.8483900226757	654.9296598639456	58	127
654.9296598639456	655.0109297052154	60	127
655.0109297052154	655.1270294784581	58	127
655.1270294784581	655.2431292517007	57	127
655.2431292517007	655.3243990929706	58	127
655.3243990929706	655.8120181405895	62	127
655.962925170068	656.3808843537415	65	127
656.5550566893425	657.0426757369614	68	127
656.8801360544218	657.1587755102041	67	127
656.8801360544218	657.1587755102041	72	127
656.8801360544218	657.1587755102041	63	127
657.1587755102041	657.5767346938776	70	127
657.1587755102041	658.4590929705215	74	127
657.1587755102041	658.4590929705215	68	127
657.1587755102041	658.4590929705215	65	127
657.7160544217687	658.0527437641723	74	127
658.2385034013605	658.5984126984127	77	127
658.4590929705215	658.7493424036281	70	127
658.4590929705215	658.7493424036281	75	127
658.4590929705215	658.7493424036281	67	127
658.7493424036281	659.2137414965987	82	127
658.7493424036281	660.2238095238096	77	127
658.7493424036281	660.2238095238096	74	127
658.7493424036281	660.2238095238096	68	127
659.3646712018141	659.7129705215419	89	127
659.8638775510204	659.9567800453515	87	127
659.9567800453515	660.0496371882086	89	127
660.0496371882086	660.1309297052154	87	127
660.1309297052154	660.2238095238096	89	127
660.2238095238096	660.3282993197279	87	127
660.2238095238096	660.5140589569161	79	127
660.2238095238096	660.5140589569161	73	127
660.2238095238096	660.5140589569161	70	127
660.3282993197279	660.4327891156463	86	127
660.4327891156463	660.5140589569161	87	127
660.5256689342403	660.8391383219955	70	127
660.5256689342403	660.9784580498866	87	127
660.5256689342403	660.8391383219955	79	127
660.5256689342403	660.8391383219955	73	127
660.8391383219955	662.0465759637189	68	127
660.8391383219955	661.7679365079365	80	127
660.8391383219955	662.0465759637189	72	127
661.1642176870748	661.6170068027211	63	127
661.7795464852608	662.0465759637189	75	127
661.7795464852608	661.8375963718821	75	127
661.8375963718821	661.9072335600907	77	127
661.9072335600907	661.9769160997732	75	127
661.9769160997732	662.0465759637189	77	127
662.0465759637189	662.3368253968254	72	127
662.0465759637189	662.1394557823129	75	127
662.0465759637189	662.3368253968254	68	127
662.0465759637189	662.3368253968254	63	127
662.1394557823129	662.2207256235828	74	127
662.2207256235828	662.3252154195011	75	127
662.3368253968254	663.8112925170068	67	127
662.3368253968254	662.7780045351474	75	127
662.3368253968254	663.8112925170068	61	127
662.3368253968254	663.8112925170068	70	127
662.9173015873016	663.3585034013605	63	127
663.5210430839003	663.60231292517	79	127
663.60231292517	663.6603628117914	80	127
663.6603628117914	663.730022675737	79	127
663.730022675737	663.8112925170068	80	127
663.8112925170068	664.1131519274377	58	127
663.8112925170068	663.904172335601	79	127
663.8112925170068	664.1015419501134	63	127
663.8112925170068	664.1131519274377	67	127
663.904172335601	664.0086621315193	77	127
664.0086621315193	664.1131519274377	79	127
664.1131519274377	665.5992290249433	56	127
664.1131519274377	664.6007709750567	80	127
664.1131519274377	664.7748979591837	72	127
664.1131519274377	664.7748979591837	63	127
664.7865306122449	665.5875963718821	68	127
664.7865306122449	665.5875963718821	60	127
664.7865306122449	665.1696371882086	63	127
665.3089795918368	665.3670068027211	75	127
665.3670068027211	665.4366893424036	77	127
665.4366893424036	665.5179591836735	75	127
665.5179591836735	665.5992290249433	77	127
665.5992290249433	665.7733786848073	63	127
665.5992290249433	665.7037188208617	75	127
665.5992290249433	665.7733786848073	60	127
665.5992290249433	665.7733786848073	57	127
665.7037188208617	665.7385487528345	74	127
665.7385487528345	665.761768707483	75	127
665.7733786848073	667.1665759637189	58	127
665.7733786848073	666.1332879818594	75	127
665.7733786848073	667.1665759637189	61	127
665.7733786848073	666.9343764172336	63	127
666.3190476190476	666.7718367346939	63	127
666.9459863945578	667.1665759637189	73	127
666.9459863945578	667.0388662131519	79	127
667.0388662131519	667.0969160997732	80	127
667.0969160997732	667.1665759637189	80	127
667.1665759637189	667.4219727891157	63	127
667.1665759637189	667.2594557823129	79	127
667.1665759637189	667.4219727891157	70	127
667.1665759637189	667.4219727891157	67	127
667.2594557823129	667.3175056689342	77	127
667.3175056689342	667.4219727891157	79	127
667.4219727891157	669.0357823129252	72	127
667.4219727891157	669.0357823129252	66	127
667.4219727891157	667.8863945578231	80	127
667.4219727891157	669.0357823129252	63	127
668.060544217687	668.5249433106576	80	127
668.7107029478458	668.7919727891157	78	127
668.7919727891157	668.8732426303854	80	127
668.8732426303854	668.9429024943311	78	127
668.9429024943311	669.0357823129252	80	127
669.0357823129252	669.3144217687075	56	127
669.0357823129252	669.1402721088435	78	127
669.0357823129252	669.3028117913832	68	127
669.0357823129252	669.3144217687075	60	127
669.1402721088435	669.2215419501134	77	127
669.2215419501134	669.3144217687075	78	127
669.3144217687075	670.7192290249433	61	127
669.3144217687075	669.7091609977324	77	127
669.3144217687075	669.8600907029479	65	127
669.3144217687075	670.7192290249433	68	127
669.8716780045352	670.7075963718821	64	127
669.8716780045352	670.2432199546486	80	127
670.4173696145125	670.4986167800454	76	127
670.4986167800454	670.5566893424036	78	127
670.5566893424036	670.6379591836735	76	127
670.6379591836735	670.7192290249433	78	127
670.7192290249433	670.835328798186	76	127
670.7192290249433	671.0094784580499	64	127
670.7192290249433	671.0094784580499	61	127
670.7192290249433	671.0094784580499	56	127
670.835328798186	670.92820861678	75	127
670.92820861678	671.0094784580499	76	127
671.0094784580499	671.4854875283447	75	127
671.0094784580499	672.6348752834467	68	127
671.0094784580499	672.6348752834467	63	127
671.0094784580499	672.6348752834467	60	127
671.6712471655329	672.1704761904762	80	127
672.2981859410431	672.3794557823129	75	127
672.3794557823129	672.4607256235828	77	127
672.4607256235828	672.5536054421768	75	127
672.5536054421768	672.6348752834467	77	127
672.6348752834467	672.9251247165533	56	127
672.6348752834467	672.9251247165533	60	127
672.6348752834467	672.7277324263039	75	127
672.6348752834467	672.9251247165533	63	127
672.7277324263039	672.8206349206349	74	127
672.8206349206349	672.9135147392291	75	127
672.9251247165533	674.2951020408163	73	127
672.9251247165533	673.3314739229025	75	127
672.9251247165533	674.2951020408163	51	127
672.9251247165533	674.2951020408163	55	127
673.4591836734694	673.7842630385487	85	127
673.97	674.0512925170068	75	127
674.0512925170068	674.1209523809524	77	127
674.1209523809524	674.2022222222222	75	127
674.2022222222222	674.2951020408163	77	127
674.2951020408163	674.6434013605442	70	127
674.2951020408163	674.4112018140589	75	127
674.2951020408163	674.6434013605442	55	127
674.2951020408163	674.6434013605442	61	127
674.4112018140589	674.5273015873016	74	127
674.5273015873016	674.6317913832199	75	127
674.6434013605442	675.0149206349206	75	127
674.6434013605442	675.6650793650794	68	127
674.6434013605442	675.6650793650794	60	127
674.6434013605442	675.6650793650794	56	127
675.1310204081633	675.560589569161	84	127
675.6766893424036	675.781179138322	75	127
675.781179138322	675.8508390022675	77	127
675.8508390022675	675.9321088435374	75	127
675.9321088435374	676.001746031746	77	127
676.001746031746	676.0946485260771	75	127
676.0946485260771	676.2107256235828	74	127
676.2107256235828	676.3152380952381	75	127
676.3268480725624	677.4529931972789	75	127
676.3268480725624	676.663537414966	75	127
676.3268480725624	677.4529931972789	67	127
676.3268480725624	677.4529931972789	61	127
676.3268480725624	677.4529931972789	58	127
676.709977324263	677.2672562358276	85	127
677.4762358276644	677.5807256235828	79	127
677.5807256235828	677.6852154195011	80	127
677.6852154195011	677.7432653061225	79	127
677.7432653061225	677.8477324263039	80	127
677.8477324263039	677.9290249433107	79	127
677.9290249433107	678.0683219954649	77	127
678.0683219954649	678.1960544217687	79	127
678.1960544217687	679.5892517006803	80	127
678.1960544217687	679.5892517006803	68	127
678.1960544217687	679.5892517006803	60	127
678.1960544217687	679.5892517006803	56	127
680.3439002267573	680.7270068027211	82	127
681.342358276644	681.8996371882087	68	127
681.342358276644	682.8516553287982	80	127
681.342358276644	682.8516553287982	73	127
681.342358276644	682.8516553287982	65	127
682.1086167800454	682.6542857142857	72	127
682.8632653061225	682.9561224489796	68	127
682.9561224489796	683.0490249433107	70	127
683.0490249433107	683.1302947845805	68	127
683.1302947845805	683.2115646258503	70	127
683.2115646258503	683.327664399093	68	127
683.327664399093	683.3740816326531	67	127
683.3740816326531	684.5931292517007	66	127
683.3740816326531	683.7572335600908	68	127
683.3740816326531	684.5931292517007	75	127
683.942993197279	684.384149659864	80	127
684.6163718820861	684.7092517006803	72	127
684.7092517006803	684.7789115646259	73	127
684.7789115646259	684.8717913832199	72	127
684.8717913832199	684.9994784580499	73	127
684.9994784580499	685.138820861678	72	127
685.138820861678	685.2549206349206	70	127
685.2549206349206	685.3942403628118	72	127
685.3942403628118	687.0080272108844	73	127
685.3942403628118	687.0080272108844	68	127
685.3942403628118	687.0080272108844	65	127
687.0312471655329	687.7046258503401	55	127
687.7278458049886	689.0861904761905	56	127
689.0978004535148	689.7595918367347	60	127
689.7595918367347	694.5312925170068	61	127
691.0134693877551	691.6520181405896	52	127
691.6520181405896	692.6388662131519	53	127
692.6504761904762	693.2890249433107	57	127
693.3006349206349	698.4554648526077	58	127
694.5429024943311	695.1814512471656	65	127
695.1930612244898	696.52820861678	66	127
696.5514285714286	697.189977324263	70	127
697.2015873015873	701.381179138322	68	127
698.467074829932	699.0359637188209	59	127
699.0591836734694	700.2085714285714	60	127
700.2201814058957	700.8122902494331	63	127
700.8239002267574	705.8510204081633	66	127
701.4043990929705	702.042947845805	71	127
702.0545578231292	702.6814965986395	72	127
702.6931065759637	703.8889342403628	70	127
703.9005442176871	704.5739229024944	68	127
704.5855328798186	707.6621768707483	73	127
705.8742176870749	706.2805668934241	64	127
706.2921995464852	709.6590929705216	65	127
707.6737868480726	708.3355555555555	69	127
708.358775510204	711.7372789115647	70	127
709.6707029478458	710.3672789115647	62	127
710.4021315192743	713.7574149659864	63	127
711.7488888888889	712.4338775510204	66	127
712.4454875283446	715.7195011337868	65	127
713.7690249433107	714.3959637188209	61	127
714.4075736961452	717.7163945578232	60	127
715.7311111111111	716.4160997732426	63	127
716.4277097505669	718.4362358276644	61	127
717.7396371882086	718.4362358276644	67	127
717.7396371882086	718.4362358276644	58	127
718.4478458049887	719.829433106576	60	127
718.4478458049887	719.829433106576	68	127
718.4478458049887	719.829433106576	56	127
719.8410430839002	720.6073015873015	71	127
719.8410430839002	720.6073015873015	48	127
719.8410430839002	720.6073015873015	36	127
720.6073015873015	725.6228117913832	49	127
720.6073015873015	725.6228117913832	37	127
720.6073015873015	725.6228117913832	73	127
721.8263265306123	722.4532879818594	79	127
722.4648979591836	723.6142857142858	80	127
723.62589569161	724.241224489796	84	127
724.2644217687075	735.6073922902494	85	127
725.6344217687075	726.2845804988663	76	127
725.6344217687075	726.2845804988663	64	127
725.6344217687075	726.2845804988663	49	127
726.3077777777778	727.5036281179139	68	127
726.3077777777778	727.5036281179139	80	127
726.3077777777778	727.5036281179139	47	127
727.5152380952381	728.0957369614513	59	127
727.5152380952381	728.0957369614513	71	127
727.5152380952381	728.0957369614513	51	127
728.1073469387755	729.361224489796	69	127
728.1073469387755	729.361224489796	57	127
728.1073469387755	729.361224489796	54	127
729.3728117913832	730.0229931972789	61	127
729.3728117913832	730.0229931972789	45	127
729.3728117913832	730.0229931972789	73	127
730.0346031746031	731.3233106575964	64	127
730.0346031746031	731.3233106575964	44	127
730.0346031746031	731.3233106575964	76	127
731.3349206349206	731.9502494331066	56	127
731.3349206349206	731.9502494331066	47	127
731.3349206349206	731.9502494331066	68	127
731.9618594104309	732.983537414966	66	127
731.9618594104309	732.983537414966	54	127
731.9618594104309	732.983537414966	51	127
733.0067573696145	733.645306122449	42	127
733.0067573696145	733.645306122449	69	127
733.0067573696145	733.645306122449	57	127
733.6569160997733	734.9340136054421	61	127
733.6569160997733	734.9340136054421	40	127
733.6569160997733	734.9340136054421	73	127
734.9456235827664	735.6073922902494	64	127
734.9456235827664	735.6073922902494	52	127
734.9456235827664	735.6073922902494	49	127
735.630612244898	737.0121995464852	73	127
735.630612244898	737.0121995464852	61	127
735.630612244898	737.0121995464852	39	127
735.630612244898	737.8016780045351	78	127
737.0238095238095	737.8016780045351	63	127
737.0238095238095	737.8016780045351	51	127
737.0238095238095	737.8016780045351	49	127
737.8132879818594	739.1832426303855	72	127
737.8132879818594	739.1832426303855	60	127
737.8132879818594	739.1832426303855	39	127
737.8132879818594	739.868253968254	80	127
739.1948526077098	739.868253968254	51	127
739.1948526077098	739.868253968254	63	127
739.1948526077098	739.868253968254	48	127
739.8798639455782	741.1569614512472	76	127
739.8798639455782	750.4681632653061	37	127
739.8798639455782	741.1569614512472	73	127
739.8798639455782	741.1569614512472	49	127
739.8798639455782	741.1569614512472	64	127
741.1685714285715	741.7839002267574	64	127
741.1685714285715	741.7839002267574	73	127
741.7955102040817	743.0609977324264	68	127
741.7955102040817	743.0609977324264	71	127
743.0841950113379	743.5834467120181	59	127
743.0841950113379	743.5834467120181	75	127
743.5950566893424	744.5586848072562	57	127
743.5950566893424	744.5586848072562	78	127
744.5702947845805	745.0927437641724	61	127
744.5702947845805	745.0927437641724	69	127
745.1159410430839	746.3814512471655	68	127
745.1159410430839	746.3814512471655	64	127
746.3930612244898	746.9155102040817	71	127
746.3930612244898	746.9155102040817	56	127
746.9387301587302	748.1345578231293	75	127
746.9387301587302	748.1345578231293	54	127
748.1461678004536	748.6337868480725	57	127
748.1461678004536	748.6337868480725	66	127
748.6453968253968	749.8295918367347	64	127
748.6453968253968	749.8295918367347	61	127
749.8295918367347	750.4681632653061	52	127
749.8295918367347	750.4681632653061	73	127
750.4913832199546	751.7220408163265	63	127
750.4913832199546	751.7220408163265	61	127
750.4913832199546	752.4070294784581	42	127
751.745260770975	752.4070294784581	73	127
751.745260770975	752.4070294784581	51	127
752.4186394557823	753.6725170068028	63	127
752.4186394557823	753.6725170068028	60	127
752.4186394557823	755.5185034013606	44	127
753.684126984127	754.3110657596372	72	127
753.684126984127	754.3110657596372	51	127
754.3226530612245	757.480589569161	52	127
754.3226530612245	755.5185034013606	73	127
754.3226530612245	757.480589569161	61	127
755.5301133786849	756.3195918367347	43	127
756.331201814059	757.480589569161	44	127
757.4921995464853	758.2119954648526	48	127
757.4921995464853	758.2119954648526	63	127
757.4921995464853	758.2119954648526	54	127
758.2352380952381	761.1957823129252	73	127
758.2352380952381	765.5843537414966	49	127
758.2352380952381	759.3730158730159	64	127
758.2352380952381	759.3730158730159	52	127
759.3846258503402	761.1957823129252	64	127
759.3846258503402	759.9883446712018	67	127
759.9999546485261	761.1957823129252	68	127
761.2073922902495	761.8691609977325	75	127
761.2073922902495	761.8691609977325	72	127
761.2073922902495	761.8691609977325	66	127
761.8691609977325	765.5843537414966	64	127
761.8691609977325	762.9837188208617	76	127
761.8691609977325	765.5843537414966	73	127
762.9953287981859	763.6106575963719	78	127
763.6222675736961	764.852925170068	80	127
764.8645351473923	765.5843537414966	81	127
765.5959637188208	766.9891609977324	73	127
765.5959637188208	766.9891609977324	64	127
765.5959637188208	766.9891609977324	57	127
765.5959637188208	769.0325170068028	45	127
765.5959637188208	766.9891609977324	81	127
767.0007709750566	769.0325170068028	61	127
767.0007709750566	769.0325170068028	57	127
767.0007709750566	769.0325170068028	73	127
769.0441269841269	769.752335600907	62	127
769.0441269841269	769.752335600907	74	127
769.0441269841269	769.752335600907	56	127
769.0441269841269	769.752335600907	44	127
769.7639455782313	771.12231292517	76	127
769.7639455782313	771.12231292517	64	127
769.7639455782313	771.12231292517	54	127
769.7639455782313	771.12231292517	42	127
771.1339229024943	771.7724716553288	78	127
771.1339229024943	771.7724716553288	66	127
771.1339229024943	771.7724716553288	52	127
771.1339229024943	771.7724716553288	40	127
771.7956916099773	773.3862585034013	68	127
771.7956916099773	773.3862585034013	80	127
771.7956916099773	773.3862585034013	50	127
771.7956916099773	773.3862585034013	38	127
773.3978684807256	774.2453968253968	81	127
773.3978684807256	774.2453968253968	49	127
773.3978684807256	774.2453968253968	37	127
773.3978684807256	774.2453968253968	69	127
774.2686167800454	774.9652154195011	79	127
774.2686167800454	781.7454421768707	39	127
774.2686167800454	775.6385941043084	51	127
774.2686167800454	774.9652154195011	67	127
774.9768253968253	775.6385941043084	80	127
774.9768253968253	775.6385941043084	68	127
775.6618140589569	776.2771428571428	56	127
775.6618140589569	776.2771428571428	75	127
775.6618140589569	776.2771428571428	60	127
776.2887528344671	776.9040816326531	74	127
776.2887528344671	776.9040816326531	59	127
776.2887528344671	777.4729705215419	53	127
776.9156916099773	777.4729705215419	73	127
776.9156916099773	777.4729705215419	56	127
777.4961904761905	778.1463492063492	55	127
777.4961904761905	778.1463492063492	70	127
777.4961904761905	778.1463492063492	58	127
778.1695691609978	778.9590476190476	67	127
778.1695691609978	778.3088888888889	75	127
778.1695691609978	778.9590476190476	58	127
778.3088888888889	778.44820861678	77	127
778.44820861678	778.5991383219955	75	127
778.5991383219955	778.6920181405895	77	127
778.6920181405895	778.796507936508	75	127
778.796507936508	778.889387755102	77	127
778.889387755102	778.9822675736962	75	127
778.9822675736962	779.5163265306122	68	127
778.9822675736962	779.0635374149659	77	127
778.9822675736962	779.5163265306122	60	127
779.0635374149659	779.1448072562358	75	127
779.1448072562358	779.23768707483	77	127
779.23768707483	779.3189569160998	75	127
779.3189569160998	779.3770068027211	77	127
779.3770068027211	779.4698866213151	75	127
779.4698866213151	779.504716553288	77	127
779.504716553288	779.5279365079365	75	127
779.5279365079365	779.9110657596372	72	127
779.5279365079365	779.5627664399093	77	127
779.5279365079365	779.9110657596372	63	127
779.5627664399093	779.6208163265306	75	127
779.6208163265306	779.6556462585035	77	127
779.6556462585035	779.7369160997732	75	127
779.7369160997732	779.8065759637188	77	127
779.8065759637188	779.8878458049886	75	127
779.8878458049886	779.9110657596372	77	127
779.9110657596372	780.5147845804988	65	127
779.9110657596372	779.992335600907	77	127
779.9110657596372	780.5147845804988	62	127
779.992335600907	780.0619954648527	75	127
780.0619954648527	780.1200453514739	77	127
780.1200453514739	780.212925170068	75	127
780.212925170068	780.2941950113378	77	127
780.2941950113378	780.3638548752834	75	127
780.3638548752834	780.4567346938776	77	127
780.4567346938776	780.5263945578231	75	127
780.5263945578231	781.1765532879818	70	127
780.5263945578231	780.5844444444444	77	127
780.5263945578231	781.1765532879818	61	127
780.5844444444444	780.6773242630386	75	127
780.6773242630386	780.7702040816326	77	127
780.7702040816326	780.8514739229025	75	127
780.8514739229025	780.9443537414966	77	127
780.9443537414966	781.0256235827665	75	127
781.0256235827665	781.1068934240362	77	127
781.1068934240362	781.1997732426304	75	127
781.1997732426304	781.7454421768707	67	127
781.1997732426304	781.2578231292517	77	127
781.1997732426304	781.7454421768707	58	127
781.2578231292517	781.3274829931972	75	127
781.3274829931972	781.3739229024943	77	127
781.3739229024943	781.4551927437642	75	127
781.4551927437642	781.5132426303854	77	127
781.5132426303854	781.6061224489796	75	127
781.6061224489796	781.6873922902495	77	127
781.6873922902495	781.757052154195	75	127
781.757052154195	781.8499319727891	77	127
781.757052154195	782.4072108843537	59	127
781.757052154195	782.4072108843537	55	127
781.757052154195	782.4072108843537	63	127
781.8499319727891	781.9312018140589	75	127
781.9312018140589	782.0124716553288	77	127
782.0124716553288	782.105351473923	75	127
782.105351473923	782.1634013605442	77	127
782.1634013605442	782.2446712018141	75	127
782.2446712018141	782.3375510204081	77	127
782.3375510204081	782.418820861678	75	127
782.418820861678	782.9877097505669	60	127
782.418820861678	782.4884807256236	77	127
782.418820861678	782.9877097505669	56	127
782.418820861678	782.9877097505669	60	127
782.4884807256236	782.5465306122449	75	127
782.5465306122449	782.6045804988662	77	127
782.6045804988662	782.6742403628118	75	127
782.6742403628118	782.7555102040816	77	127
782.7555102040816	782.8367800453515	75	127
782.8367800453515	782.9064399092971	73	127
782.9064399092971	782.9993197278911	75	127
782.9993197278911	783.5565986394557	48	127
782.9993197278911	783.0341496598639	80	127
782.9993197278911	783.5565986394557	51	127
782.9993197278911	783.5565986394557	72	127
783.0341496598639	783.1270294784581	82	127
783.1270294784581	783.1966893424036	80	127
783.1966893424036	783.2779591836735	82	127
783.2779591836735	783.3940589569161	80	127
783.3940589569161	783.4637188208617	79	127
783.4637188208617	783.5798185941043	80	127
783.5798185941043	784.1951473922902	53	127
783.5798185941043	783.6610884353742	82	127
783.5798185941043	784.1951473922902	77	127
783.5798185941043	784.1951473922902	50	127
783.6610884353742	783.742358276644	84	127
783.742358276644	783.8120181405895	82	127
783.8120181405895	783.8932879818594	84	127
783.8932879818594	783.9745578231292	82	127
783.9745578231292	784.0442176870748	84	127
784.0442176870748	784.1254875283447	82	127
784.1254875283447	784.2067573696145	84	127
784.2067573696145	784.7408163265306	70	127
784.2067573696145	784.7408163265306	58	127
784.2067573696145	784.2880272108844	82	127
784.2067573696145	784.7408163265306	49	127
784.2880272108844	784.3344671201814	84	127
784.3344671201814	784.404126984127	82	127
784.404126984127	784.4737868480726	84	127
784.4737868480726	784.5202267573696	82	127
784.5202267573696	784.6014965986394	84	127
784.6014965986394	784.6827664399093	82	127
784.6827664399093	784.7524263038549	84	127
784.7524263038549	785.3097052154195	55	127
784.7524263038549	784.7756462585035	82	127
784.7524263038549	785.3097052154195	46	127
784.7524263038549	785.3097052154195	73	127
784.7756462585035	784.8336961451247	84	127
784.8336961451247	784.9149659863946	82	127
784.9149659863946	784.9846258503401	84	127
784.9846258503401	785.1007256235828	82	127
785.1007256235828	785.2052154195011	80	127
785.2052154195011	785.3213151927438	82	127
785.3213151927438	785.9830839002268	73	127
785.3213151927438	785.4025850340136	85	127
785.3213151927438	785.9830839002268	58	127
785.3213151927438	785.9830839002268	43	127
785.4025850340136	785.4722448979592	87	127
785.4722448979592	785.5651247165533	85	127
785.5651247165533	785.6463945578231	87	127
785.6463945578231	785.727664399093	85	127
785.727664399093	785.8321541950113	87	127
785.8321541950113	785.9134240362812	85	127
785.9134240362812	785.9946938775511	87	127
785.9946938775511	786.656462585034	41	127
785.9946938775511	786.0875736961451	85	127
785.9946938775511	786.656462585034	82	127
785.9946938775511	786.656462585034	56	127
786.0875736961451	786.168843537415	87	127
786.168843537415	786.2501133786848	85	127
786.2501133786848	786.3429931972789	87	127
786.3429931972789	786.4242630385487	85	127
786.4242630385487	786.5055328798186	87	127
786.5055328798186	786.5868027210885	85	127
786.5868027210885	786.6680725623582	87	127
786.6680725623582	786.7493424036281	86	127
786.6680725623582	787.3414512471655	82	127
786.6680725623582	788.0148299319728	39	127
786.6680725623582	787.3414512471655	55	127
786.7493424036281	786.8306122448979	87	127
786.8306122448979	786.9234920634921	86	127
786.9234920634921	787.004761904762	87	127
787.004761904762	787.1208616780045	86	127
787.1208616780045	787.2369614512471	84	127
787.2369614512471	787.3530612244898	86	127
787.3530612244898	787.6897505668934	82	127
787.3530612244898	787.4459410430838	87	127
787.3530612244898	788.0148299319728	55	127
787.4459410430838	787.5272108843537	89	127
787.5272108843537	787.6084807256236	87	127
787.6084807256236	787.6897505668934	89	127
787.6897505668934	788.0264399092971	70	127
787.6897505668934	787.7710204081633	87	127
787.7710204081633	787.852290249433	89	127
787.852290249433	787.9451700680272	87	127
787.9451700680272	788.0264399092971	89	127
788.0264399092971	788.7694784580499	61	127
788.0264399092971	788.1193197278911	87	127
788.0264399092971	788.7694784580499	77	127
788.0264399092971	788.7694784580499	51	127
788.1193197278911	788.200589569161	89	127
788.200589569161	788.2934693877551	87	127
788.2934693877551	788.3863492063492	89	127
788.3863492063492	788.5256689342403	87	127
788.5256689342403	788.641768707483	85	127
788.641768707483	788.7810884353742	87	127
788.7810884353742	789.1409977324263	75	127
788.7810884353742	789.1409977324263	60	127
788.7810884353742	789.5589569160998	63	127
788.7810884353742	789.1409977324263	89	127
789.1409977324263	789.570566893424	91	127
789.1409977324263	789.570566893424	73	127
789.1409977324263	789.570566893424	58	127
789.570566893424	790.232335600907	72	127
789.570566893424	789.9304761904762	92	127
789.570566893424	791.776462585034	51	127
789.9304761904762	790.2439455782313	74	127
790.2439455782313	792.4846712018141	60	127
790.2439455782313	790.6038548752834	75	127
790.6038548752834	791.1495238095238	74	127
791.1495238095238	793.1696598639455	44	127
791.1495238095238	791.4629931972789	75	127
791.4629931972789	791.7880725623583	79	127
791.7880725623583	792.1595918367346	80	127
791.7880725623583	793.8314285714285	51	127
792.1595918367346	792.4962811791384	82	127
792.4962811791384	792.8678004535147	80	127
792.4962811791384	794.5164172335601	60	127
792.8678004535147	793.1696598639455	79	127
793.1696598639455	793.494739229025	80	127
793.1696598639455	795.2130158730158	44	127
793.494739229025	793.8546485260771	82	127
793.8546485260771	795.9212244897959	51	127
793.8546485260771	794.2029478458049	84	127
794.2029478458049	794.5280272108844	85	127
794.5280272108844	796.6526530612244	60	127
794.5280272108844	794.8763265306122	84	127
794.8763265306122	795.2246258503401	83	127
795.2246258503401	795.5845351473923	84	127
795.2246258503401	797.3028117913832	44	127
795.5845351473923	795.9328344671202	85	127
795.9328344671202	797.9761904761905	51	127
795.9328344671202	796.2695238095238	86	127
796.2695238095238	796.675873015873	87	127
796.675873015873	797.0009523809524	89	127
796.675873015873	798.6960090702947	60	127
797.0009523809524	797.3144217687075	87	127
797.3144217687075	797.6627210884353	77	127
797.3144217687075	797.9761904761905	44	127
797.6627210884353	797.9761904761905	89	127
797.9878004535148	798.3477097505669	89	127
797.9878004535148	799.4274376417234	46	127
797.9878004535148	800.205306122449	51	127
798.3477097505669	798.7192290249433	87	127
798.7192290249433	800.9135147392291	61	127
798.7192290249433	799.055918367347	85	127
799.055918367347	799.4390476190476	84	127
799.4390476190476	801.5868934240362	46	127
799.4390476190476	799.8221768707483	87	127
799.8221768707483	800.2169160997732	85	127
800.2169160997732	800.5768253968254	84	127
800.2169160997732	802.2138321995465	51	127
800.5768253968254	800.9251247165533	82	127
800.9251247165533	801.2618140589569	81	127
800.9251247165533	802.8639909297052	61	127
801.2618140589569	801.6101133786848	82	127
801.6101133786848	803.5954195011337	46	127
801.6101133786848	801.92358276644	85	127
801.92358276644	802.2254421768707	82	127
802.2254421768707	804.268798185941	51	127
802.2254421768707	802.5505215419502	80	127
802.5505215419502	802.8756009070295	79	127
802.8756009070295	804.9073469387755	61	127
802.8756009070295	803.2122902494331	78	127
803.2122902494331	803.607029478458	79	127
803.607029478458	803.9321088435374	82	127
803.607029478458	805.5575056689343	46	127
803.9321088435374	804.2804081632653	79	127
804.2804081632653	806.25410430839	51	127
804.2804081632653	804.6519274376417	77	127
804.6519274376417	804.9189569160998	75	127
804.9189569160998	805.2208163265307	74	127
804.9189569160998	806.25410430839	61	127
805.2208163265307	805.5691156462585	75	127
805.5691156462585	806.25410430839	46	127
805.5691156462585	805.9058049886621	77	127
805.9058049886621	806.2773242630385	79	127
806.2773242630385	807.5660317460317	48	127
806.2773242630385	806.5907936507937	82	127
806.2773242630385	806.915873015873	63	127
806.2773242630385	808.2278004535148	51	127
806.5907936507937	806.9274829931973	79	127
806.9274829931973	808.9243990929705	56	127
806.9274829931973	807.264172335601	82	127
807.264172335601	807.577641723356	80	127
807.577641723356	808.2278004535148	48	127
807.577641723356	807.9027210884353	84	127
807.9027210884353	808.239410430839	80	127
808.239410430839	809.5745578231292	49	127
808.239410430839	808.5760997732426	79	127
808.239410430839	810.2827664399093	53	127
808.5760997732426	808.947619047619	76	127
808.947619047619	810.2827664399093	68	127
808.947619047619	809.2610884353742	79	127
808.947619047619	810.2827664399093	56	127
809.2610884353742	809.5861678004535	77	127
809.5861678004535	810.2827664399093	49	127
809.5861678004535	809.9460770975056	80	127
809.9460770975056	810.2943764172336	77	127
810.2943764172336	811.6643537414966	51	127
810.2943764172336	810.6542857142857	75	127
810.2943764172336	810.979365079365	67	127
810.2943764172336	812.3725623582767	55	127
810.6542857142857	810.9909750566893	72	127
810.9909750566893	811.3392743764173	75	127
810.9909750566893	812.3725623582767	58	127
810.9909750566893	812.3725623582767	67	127
811.3392743764173	811.6759637188209	73	127
811.6759637188209	812.035873015873	77	127
811.6759637188209	812.3725623582767	51	127
812.035873015873	812.3841723356009	73	127
812.3841723356009	813.6960997732426	51	127
812.3841723356009	812.7208616780046	73	127
812.3841723356009	813.0343310657596	60	127
812.3841723356009	814.3578684807256	56	127
812.7208616780046	813.0459410430839	71	127
813.0459410430839	813.3710204081633	73	127
813.0459410430839	814.9848072562359	60	127
813.0459410430839	814.9848072562359	68	127
813.3710204081633	813.7193197278912	72	127
813.7193197278912	815.6117460317461	51	127
813.7193197278912	814.0211791383219	75	127
814.0211791383219	814.3694784580499	72	127
814.3694784580499	814.6713378684807	80	127
814.3694784580499	816.273514739229	56	127
814.6713378684807	814.9964172335601	75	127
814.9964172335601	816.8772335600908	68	127
814.9964172335601	816.8772335600908	60	127
814.9964172335601	815.2866666666666	84	127
815.2866666666666	815.6233560090703	80	127
815.6233560090703	817.4925623582767	51	127
815.6233560090703	815.9600453514739	87	127
815.9600453514739	816.2967346938775	84	127
816.2967346938775	818.2007709750567	56	127
816.2967346938775	816.5985941043084	92	127
816.5985941043084	816.8888435374149	91	127
816.8888435374149	817.1790929705215	89	127
816.8888435374149	818.2007709750567	60	127
816.8888435374149	818.2007709750567	68	127
817.1790929705215	817.5041723356009	87	127
817.5041723356009	817.8756916099774	85	127
817.5041723356009	819.535918367347	51	127
817.8756916099774	818.212380952381	84	127
818.212380952381	820.4182766439909	55	127
818.212380952381	818.525850340136	82	127
818.212380952381	818.8393197278912	70	127
818.525850340136	818.8509297052154	81	127
818.8509297052154	819.2108390022676	80	127
818.8509297052154	821.0568253968254	63	127
818.8509297052154	821.0568253968254	58	127
819.2108390022676	819.5475283446712	79	127
819.5475283446712	820.4182766439909	51	127
819.5475283446712	819.8958276643991	77	127
819.8958276643991	820.1280272108844	75	127
820.1280272108844	820.4298866213152	73	127
820.4298866213152	820.7317460317461	56	127
820.4298866213152	820.7317460317461	72	127
820.4298866213152	820.7317460317461	53	127
820.7317460317461	821.0684353741497	58	127
820.7317460317461	821.0684353741497	70	127
820.7317460317461	821.0684353741497	55	127
821.0684353741497	821.3702947845806	68	127
821.0684353741497	821.3702947845806	65	127
821.0684353741497	821.3702947845806	60	127
821.0684353741497	821.3702947845806	56	127
821.3702947845806	821.7069841269841	67	127
821.3702947845806	821.7069841269841	61	127
821.3702947845806	821.7069841269841	58	127
821.7069841269841	822.055283446712	65	127
821.7069841269841	822.055283446712	68	127
821.7069841269841	822.055283446712	60	127
821.7069841269841	822.055283446712	56	127
822.055283446712	822.3803628117914	70	127
822.055283446712	822.3803628117914	58	127
822.055283446712	822.3803628117914	55	127
822.055283446712	826.3625850340136	63	127
822.3803628117914	822.6822222222222	56	127
822.3803628117914	822.6822222222222	72	127
822.3803628117914	822.6822222222222	53	127
822.6822222222222	823.0073015873016	51	127
822.6822222222222	823.0073015873016	73	127
822.6822222222222	823.0073015873016	55	127
823.0073015873016	823.3207709750567	56	127
823.0073015873016	823.3207709750567	72	127
823.0073015873016	823.3207709750567	53	127
823.3207709750567	823.645850340136	58	127
823.3207709750567	823.645850340136	55	127
823.3207709750567	823.645850340136	70	127
823.645850340136	823.9244897959184	68	127
823.645850340136	823.9244897959184	60	127
823.645850340136	823.9244897959184	56	127
823.9244897959184	824.2727891156462	61	127
823.9244897959184	824.2727891156462	67	127
823.9244897959184	824.2727891156462	58	127
824.2727891156462	824.5514285714286	60	127
824.2727891156462	824.5514285714286	56	127
824.2727891156462	824.5514285714286	68	127
824.5514285714286	824.8416780045352	70	127
824.5514285714286	824.8416780045352	58	127
824.5514285714286	824.8416780045352	55	127
824.8416780045352	825.1667573696145	68	127
824.8416780045352	825.1667573696145	60	127
824.8416780045352	825.1667573696145	56	127
825.1667573696145	825.4918367346938	61	127
825.1667573696145	825.4918367346938	58	127
825.1667573696145	825.4918367346938	67	127
825.4918367346938	825.7936961451247	63	127
825.4918367346938	825.7936961451247	60	127
825.4918367346938	825.7936961451247	65	127
825.7936961451247	826.0491156462585	65	127
825.7936961451247	826.0491156462585	61	127
825.7936961451247	826.0491156462585	63	127
826.0491156462585	826.3741950113379	65	127
826.0491156462585	826.3741950113379	63	127
826.0491156462585	826.3741950113379	60	127
826.3741950113379	826.6760544217688	67	127
826.3741950113379	826.6760544217688	61	127
826.3741950113379	826.6760544217688	58	127
826.3741950113379	828.1389115646258	75	127
826.6760544217688	827.0127437641723	68	127
826.6760544217688	827.0127437641723	60	127
826.6760544217688	827.0127437641723	56	127
827.0127437641723	827.302993197279	55	127
827.0127437641723	827.302993197279	58	127
827.0127437641723	827.302993197279	70	127
827.302993197279	827.5351927437641	72	127
827.302993197279	827.5351927437641	56	127
827.302993197279	827.5351927437641	53	127
827.5351927437641	827.8254421768708	51	127
827.5351927437641	827.8254421768708	73	127
827.5351927437641	827.8254421768708	55	127
827.8254421768708	828.1505215419501	75	127
827.8254421768708	828.1505215419501	53	127
827.8254421768708	828.1505215419501	49	127
828.1505215419501	829.427619047619	87	127
828.1505215419501	828.4756009070295	77	127
828.1505215419501	828.4756009070295	51	127
828.1505215419501	828.4756009070295	48	127
828.4756009070295	828.7890702947846	49	127
828.4756009070295	828.7890702947846	46	127
828.4756009070295	828.7890702947846	79	127
828.7890702947846	829.1025396825397	44	127
828.7890702947846	829.1025396825397	80	127
828.7890702947846	829.1025396825397	48	127
829.1025396825397	829.4392290249433	43	127
829.1025396825397	829.4392290249433	49	127
829.1025396825397	829.4392290249433	82	127
829.4392290249433	829.7643083900226	44	127
829.4392290249433	833.6420408163266	63	127
829.4392290249433	829.7643083900226	84	127
829.4392290249433	829.7643083900226	48	127
829.7643083900226	830.1242176870749	51	127
829.7643083900226	830.1242176870749	58	127
829.7643083900226	830.1242176870749	73	127
830.1242176870749	830.4260770975056	60	127
830.1242176870749	830.4260770975056	56	127
830.1242176870749	830.4260770975056	75	127
830.4260770975056	830.6931065759637	58	127
830.4260770975056	830.6931065759637	58	127
830.4260770975056	830.6931065759637	73	127
830.6931065759637	830.925306122449	72	127
830.6931065759637	830.925306122449	56	127
830.6931065759637	830.925306122449	60	127
830.925306122449	831.2503854875283	73	127
830.925306122449	831.2503854875283	58	127
830.925306122449	831.2503854875283	58	127
831.2503854875283	831.540634920635	60	127
831.2503854875283	831.540634920635	72	127
831.2503854875283	831.540634920635	56	127
831.540634920635	831.8424943310657	55	127
831.540634920635	831.8424943310657	73	127
831.540634920635	831.8424943310657	46	127
831.8424943310657	832.1327437641723	75	127
831.8424943310657	832.1327437641723	56	127
831.8424943310657	832.1327437641723	48	127
832.1327437641723	832.4346031746031	49	127
832.1327437641723	832.4346031746031	73	127
832.1327437641723	832.4346031746031	58	127
832.4346031746031	832.7248526077097	60	127
832.4346031746031	832.7248526077097	51	127
832.4346031746031	832.7248526077097	72	127
832.7248526077097	833.0151020408164	70	127
832.7248526077097	833.0267120181406	61	127
832.7248526077097	833.0267120181406	55	127
833.0267120181406	833.3866213151928	60	127
833.0267120181406	833.3866213151928	70	127
833.0267120181406	833.3866213151928	56	127
833.3866213151928	833.6536507936507	60	127
833.3866213151928	833.6536507936507	63	127
833.3866213151928	833.6536507936507	68	127
833.6536507936507	833.9439002267574	58	127
833.6536507936507	835.4299773242631	75	127
833.6536507936507	833.9439002267574	70	127
833.6536507936507	833.9439002267574	61	127
833.9439002267574	834.2921995464852	60	127
833.9439002267574	834.2921995464852	56	127
833.9439002267574	834.2921995464852	72	127
834.2921995464852	834.5592290249433	58	127
834.2921995464852	834.5592290249433	55	127
834.2921995464852	834.5592290249433	73	127
834.5592290249433	834.8494784580499	75	127
834.5592290249433	834.8494784580499	56	127
834.5592290249433	834.8494784580499	53	127
834.8494784580499	835.1861678004535	51	127
834.8494784580499	835.1861678004535	77	127
834.8494784580499	835.1861678004535	55	127
835.1861678004535	835.4299773242631	79	127
835.1861678004535	835.4299773242631	49	127
835.1861678004535	835.4299773242631	53	127
835.4299773242631	835.7550566893424	48	127
835.4299773242631	835.7550566893424	80	127
835.4299773242631	836.3471655328798	87	127
835.4299773242631	835.7550566893424	51	127
835.7550566893424	836.0569160997733	82	127
835.7550566893424	836.0569160997733	49	127
835.7550566893424	836.0569160997733	46	127
836.0569160997733	836.3471655328798	44	127
836.0569160997733	836.3471655328798	83	127
836.0569160997733	836.3471655328798	51	127
836.3471655328798	836.6722448979592	80	127
836.3471655328798	836.6722448979592	84	127
836.3471655328798	836.6722448979592	63	127
836.3471655328798	836.6722448979592	43	127
836.6722448979592	837.0089342403628	85	127
836.6722448979592	837.0089342403628	56	127
836.6722448979592	841.1769160997733	68	127
836.6722448979592	837.0089342403628	41	127
837.0089342403628	837.3107936507937	48	127
837.0089342403628	837.3107936507937	68	127
837.0089342403628	837.3107936507937	42	127
837.3107936507937	837.6242630385487	49	127
837.3107936507937	837.6242630385487	41	127
837.3107936507937	837.6242630385487	70	127
837.6242630385487	837.9261224489796	51	127
837.6242630385487	837.9261224489796	39	127
837.6242630385487	837.9261224489796	72	127
837.9261224489796	838.2395918367347	53	127
837.9261224489796	838.2395918367347	37	127
837.9261224489796	838.2395918367347	73	127
838.2395918367347	838.5530612244899	54	127
838.2395918367347	838.5530612244899	39	127
838.2395918367347	838.5530612244899	72	127
838.5530612244899	838.912970521542	56	127
838.5530612244899	838.912970521542	41	127
838.5530612244899	838.912970521542	73	127
838.912970521542	839.2032199546485	72	127
838.912970521542	839.2032199546485	54	127
838.912970521542	839.2032199546485	63	127
839.2032199546485	839.5166893424037	73	127
839.2032199546485	839.5166893424037	53	127
839.2032199546485	839.5166893424037	61	127
839.5166893424037	839.8301587301587	54	127
839.5166893424037	839.8301587301587	72	127
839.5166893424037	839.8301587301587	63	127
839.8301587301587	840.1668480725624	73	127
839.8301587301587	840.1668480725624	61	127
839.8301587301587	840.1668480725624	53	127
840.1668480725624	840.5151473922903	75	127
840.1668480725624	840.5151473922903	60	127
840.1668480725624	840.5151473922903	51	127
840.5151473922903	840.8518367346938	49	127
840.5151473922903	840.8518367346938	77	127
840.5151473922903	840.8518367346938	61	127
840.8518367346938	841.2001360544218	75	127
840.8518367346938	841.2001360544218	72	127
840.8518367346938	841.2001360544218	66	127
841.2001360544218	842.8487528344671	80	127
841.2001360544218	841.5368253968254	65	127
841.2001360544218	841.5368253968254	77	127
841.2001360544218	841.5368253968254	73	127
841.5368253968254	841.8386848072562	72	127
841.5368253968254	841.8386848072562	75	127
841.5368253968254	841.8386848072562	66	127
841.8386848072562	841.9199546485261	73	127
841.8386848072562	841.9199546485261	65	127
841.8386848072562	841.9199546485261	77	127
841.9199546485261	842.1869841269842	66	127
841.9199546485261	842.1869841269842	63	127
841.9199546485261	842.1869841269842	78	127
842.1869841269842	842.5236734693877	65	127
842.1869841269842	842.5236734693877	61	127
842.1869841269842	842.5236734693877	80	127
842.5236734693877	842.8487528344671	79	127
842.5236734693877	842.8487528344671	64	127
842.5236734693877	842.8487528344671	49	127
842.8487528344671	843.1273922902494	80	127
842.8487528344671	843.1273922902494	65	127
842.8487528344671	843.1273922902494	49	127
842.8487528344671	844.520589569161	92	127
843.1273922902494	843.4524716553288	51	127
843.1273922902494	843.4524716553288	79	127
843.1273922902494	843.4524716553288	63	127
843.4524716553288	843.7195011337868	61	127
843.4524716553288	843.7195011337868	53	127
843.4524716553288	843.7195011337868	80	127
843.7195011337868	843.9168707482993	82	127
843.7195011337868	843.9168707482993	62	127
843.7195011337868	843.9168707482993	52	127
843.9168707482993	844.253560090703	51	127
843.9168707482993	844.253560090703	68	127
843.9168707482993	844.253560090703	60	127
844.253560090703	844.5321995464852	79	127
844.253560090703	844.5321995464852	61	127
844.253560090703	844.5321995464852	53	127
844.5321995464852	846.3433560090702	87	127
844.5321995464852	844.8456689342404	80	127
844.5321995464852	844.8456689342404	60	127
844.5321995464852	844.8456689342404	51	127
844.8456689342404	845.1243083900226	68	127
844.8456689342404	845.1243083900226	60	127
844.8456689342404	845.1243083900226	75	127
845.1243083900226	845.4609977324263	59	127
845.1243083900226	845.4609977324263	77	127
845.1243083900226	845.4609977324263	67	127
845.4609977324263	845.7744671201814	68	127
845.4609977324263	845.7744671201814	60	127
845.4609977324263	845.7744671201814	75	127
845.7744671201814	846.0879365079365	51	127
845.7744671201814	846.0879365079365	73	127
845.7744671201814	846.0879365079365	55	127
846.0879365079365	846.3549659863945	72	127
846.0879365079365	846.3549659863945	56	127
846.0879365079365	846.3549659863945	53	127
846.3549659863945	848.0268027210884	87	127
846.3549659863945	846.7148752834468	73	127
846.3549659863945	846.7148752834468	55	127
846.3549659863945	846.7148752834468	51	127
846.7148752834468	847.0515646258503	67	127
846.7148752834468	847.0515646258503	61	127
846.7148752834468	847.0515646258503	70	127
847.0515646258503	847.3882539682539	69	127
847.0515646258503	847.3882539682539	66	127
847.0515646258503	847.3882539682539	60	127
847.3882539682539	847.6785034013606	67	127
847.3882539682539	847.6785034013606	70	127
847.3882539682539	847.6785034013606	61	127
847.6785034013606	848.0268027210884	68	127
847.6785034013606	848.0268027210884	63	127
847.6785034013606	848.0268027210884	60	127
848.0268027210884	848.3518820861678	79	127
848.0268027210884	848.3518820861678	67	127
848.0268027210884	848.3518820861678	62	127
848.0268027210884	848.3518820861678	59	127
848.3518820861678	848.6189115646258	80	127
848.3518820861678	848.6189115646258	68	127
848.3518820861678	848.6189115646258	63	127
848.3518820861678	848.6189115646258	60	127
848.6189115646258	848.8859410430839	75	127
848.6189115646258	848.8859410430839	63	127
848.6189115646258	848.8859410430839	60	127
848.6189115646258	848.8859410430839	56	127
848.8859410430839	849.199410430839	77	127
848.8859410430839	849.199410430839	65	127
848.8859410430839	849.199410430839	61	127
848.8859410430839	849.199410430839	55	127
849.199410430839	849.5012698412698	75	127
849.199410430839	849.5012698412698	63	127
849.199410430839	849.5012698412698	60	127
849.199410430839	849.5012698412698	56	127
849.5012698412698	849.8379591836734	73	127
849.5012698412698	849.8379591836734	61	127
849.5012698412698	849.8379591836734	55	127
849.5012698412698	849.8379591836734	51	127
849.8379591836734	850.1049886621315	72	127
849.8379591836734	850.1049886621315	60	127
849.8379591836734	850.1049886621315	56	127
849.8379591836734	850.1049886621315	53	127
850.1049886621315	850.4416780045351	55	127
850.1049886621315	850.4532879818594	73	127
850.1049886621315	850.4532879818594	61	127
850.1049886621315	850.4532879818594	51	127
850.4532879818594	850.7783673469388	82	127
850.4532879818594	850.7783673469388	58	127
850.4532879818594	850.7783673469388	55	127
850.4532879818594	850.7783673469388	49	127
850.7783673469388	851.0802267573696	57	127
850.7783673469388	851.0802267573696	84	127
850.7783673469388	851.0802267573696	51	127
850.7783673469388	851.0802267573696	48	127
851.0802267573696	851.4865759637188	82	127
851.0802267573696	851.4865759637188	58	127
851.0802267573696	851.4865759637188	55	127
851.0802267573696	851.4865759637188	49	127
851.4865759637188	853.2280725623583	48	127
851.4865759637188	851.8464852607709	87	127
851.4865759637188	852.5314739229025	51	127
851.4865759637188	853.2280725623583	63	127
851.8464852607709	852.2180045351474	80	127
852.2180045351474	853.216462585034	81	127
852.554693877551	852.8681632653061	54	127
852.8681632653061	853.5647619047619	53	127
853.2280725623583	853.5879818594104	41	127
853.2280725623583	853.5879818594104	87	127
853.2280725623583	853.5879818594104	72	127
853.5879818594104	853.924671201814	65	127
853.5879818594104	853.924671201814	85	127
853.5879818594104	855.3410884353741	46	127
853.5879818594104	854.6096598639456	58	127
853.924671201814	854.2613605442177	80	127
853.924671201814	854.2613605442177	64	127
854.2613605442177	854.6212698412699	63	127
854.2613605442177	855.3294784580498	79	127
854.6212698412699	854.981179138322	52	127
854.6212698412699	855.3294784580498	61	127
854.981179138322	855.6777777777778	51	127
855.3410884353741	855.6893877551021	85	127
855.3410884353741	855.6893877551021	70	127
855.3410884353741	855.6893877551021	39	127
855.6893877551021	856.7691156462585	51	127
855.6893877551021	856.0609070294785	84	127
855.6893877551021	856.0609070294785	68	127
855.6893877551021	857.5237641723356	44	127
856.0609070294785	856.4092063492063	80	127
856.0609070294785	856.4092063492063	61	127
856.4092063492063	857.5005442176871	75	127
856.4092063492063	857.5005442176871	60	127
856.7807256235827	857.140634920635	53	127
857.140634920635	857.848843537415	51	127
857.5237641723356	857.8720634920635	84	127
857.5237641723356	857.8720634920635	68	127
857.5237641723356	857.8720634920635	39	127
857.8720634920635	858.6615419501134	67	127
857.8720634920635	858.2784126984127	82	127
857.8720634920635	859.0911111111111	51	127
857.8720634920635	859.9966893424037	49	127
858.2784126984127	858.6615419501134	76	127
858.6615419501134	859.9734693877551	75	127
858.6615419501134	859.9734693877551	55	127
859.1027210884354	859.5206802721088	53	127
859.5206802721088	860.4262585034014	51	127
859.9966893424037	860.4262585034014	82	127
859.9966893424037	860.4262585034014	73	127
859.9966893424037	860.4262585034014	39	127
863.0965532879818	863.189433106576	63	127
863.0965532879818	863.189433106576	51	127
863.2474829931973	863.7467120181406	63	127
863.2474829931973	863.7467120181406	51	127
863.9092517006802	864.4665306122449	63	127
863.9092517006802	864.4665306122449	51	127
864.6522902494331	865.1631292517006	63	127
864.6522902494331	865.1631292517006	51	127
865.3604988662131	865.755238095238	63	127
865.3604988662131	865.755238095238	51	127
865.9409977324264	866.4402267573696	63	127
865.9409977324264	866.4402267573696	51	127
866.6492063492063	867.1484353741497	63	127
866.6492063492063	867.1484353741497	51	127
866.6492063492063	871.0261678004535	66	127
867.3341950113379	867.7753741496599	51	127
867.3341950113379	867.7753741496599	63	127
867.9727437641724	868.4255328798185	51	127
867.9727437641724	868.4255328798185	63	127
868.5532426303855	868.9828117913833	51	127
868.5532426303855	868.9828117913833	63	127
869.1801814058957	869.6561904761904	51	127
869.1801814058957	869.6561904761904	63	127
869.7839002267574	870.2134693877551	51	127
869.7839002267574	870.2134693877551	63	127
870.3992290249433	870.8520181405896	51	127
870.3992290249433	870.8520181405896	63	127
871.0377777777778	871.490566893424	78	127
871.0377777777778	871.490566893424	63	127
871.0377777777778	871.490566893424	48	127
871.664716553288	871.7459863945578	78	127
871.664716553288	872.1291156462585	48	127
871.664716553288	872.1291156462585	63	127
871.7459863945578	871.8272562358277	80	127
871.8272562358277	871.8853061224489	78	127
871.8853061224489	871.9549659863945	80	127
871.9549659863945	872.0826757369615	78	127
872.0826757369615	872.1871655328798	77	127
872.1871655328798	872.2916553287982	78	127
872.2916553287982	872.767664399093	63	127
872.2916553287982	872.767664399093	48	127
872.2916553287982	872.767664399093	84	127
872.9534240362811	873.4178231292517	87	127
872.9534240362811	873.4178231292517	63	127
872.9534240362811	873.4178231292517	48	127
873.6035827664399	874.0447619047619	63	127
873.6035827664399	874.0447619047619	90	127
873.6035827664399	874.0447619047619	48	127
874.2305215419501	874.6717006802721	65	127
874.2305215419501	878.4797732426304	89	127
874.2305215419501	874.6717006802721	49	127
874.8574603174603	875.3102494331066	49	127
874.8574603174603	875.3102494331066	65	127
875.4379591836735	875.8791383219955	49	127
875.4379591836735	875.8791383219955	65	127
876.0416780045351	876.4596371882086	65	127
876.0416780045351	876.4596371882086	49	127
876.6453968253968	877.0865759637188	49	127
876.6453968253968	877.0865759637188	65	127
877.2375056689342	877.7367346938776	49	127
877.2375056689342	877.7367346938776	65	127
877.887664399093	878.3172335600907	49	127
877.887664399093	878.3172335600907	65	127
878.5029931972789	878.9673922902494	77	127
878.5029931972789	878.9673922902494	65	127
878.5029931972789	878.9673922902494	49	127
879.1183219954648	879.211201814059	80	127
879.1183219954648	879.5711111111111	65	127
879.1183219954648	879.5711111111111	49	127
879.211201814059	879.2808616780045	82	127
879.2808616780045	879.3389115646258	80	127
879.3389115646258	879.4201814058957	82	127
879.4201814058957	879.5362811791383	80	127
879.5362811791383	879.6175510204082	79	127
879.6175510204082	879.7220408163265	80	127
879.7220408163265	880.1864399092971	85	127
879.7220408163265	880.1864399092971	65	127
879.7220408163265	880.1864399092971	49	127
880.3721995464853	880.7321088435374	87	127
880.3721995464853	880.7321088435374	49	127
880.3721995464853	880.7321088435374	65	127
880.9178684807256	881.289387755102	65	127
880.9178684807256	881.289387755102	49	127
880.9178684807256	881.289387755102	89	127
881.417097505669	883.0889342403628	91	127
881.417097505669	882.0672562358277	64	127
881.417097505669	882.0672562358277	49	127
882.078866213152	882.7522448979591	49	127
882.078866213152	882.7522448979591	64	127
882.7522448979591	883.0889342403628	64	127
882.7522448979591	883.0889342403628	49	127
883.0889342403628	883.4140136054422	92	127
883.0889342403628	883.4372335600907	63	127
883.0889342403628	883.4372335600907	48	127
883.4372335600907	884.1454421768708	65	127
883.4372335600907	885.1555102040817	92	127
883.4372335600907	884.1454421768708	49	127
884.157052154195	884.8304308390022	65	127
884.157052154195	884.8304308390022	73	127
884.8420408163265	885.480589569161	73	127
884.8420408163265	885.1555102040817	65	127
885.1555102040817	885.480589569161	89	127
885.1555102040817	885.480589569161	67	127
885.8753287981859	886.5254875283447	73	127
885.8753287981859	886.2120181405895	67	127
885.8753287981859	886.75768707483	89	127
886.2120181405895	886.5254875283447	68	127
886.537097505669	886.6415873015873	73	127
886.537097505669	886.6415873015873	68	127
886.6415873015873	887.0943764172335	72	127
886.6415873015873	887.0943764172335	68	127
886.75768707483	887.0943764172335	87	127
887.1059863945578	887.46589569161	69	127
887.1059863945578	887.8374149659863	72	127
887.1059863945578	888.8707029478458	87	127
887.46589569161	887.8374149659863	70	127
887.8490249433106	888.2089342403629	72	127
887.8490249433106	888.5107936507936	70	127
888.2089342403629	888.5224036281179	73	127
888.5224036281179	889.277052154195	61	127
888.5224036281179	889.277052154195	58	127
888.8707029478458	889.2886621315192	79	127
889.2886621315192	890.7631292517007	80	127
889.2886621315192	890.7631292517007	61	127
889.2886621315192	890.7631292517007	56	127
891.4945578231293	892.8761451247166	61	127
891.4945578231293	892.8761451247166	82	127
891.4945578231293	892.8761451247166	56	127
893.6075736961451	894.8034013605442	80	127
893.6075736961451	894.8034013605442	56	127
893.6075736961451	897.1486167800454	68	127
897.1602267573696	898.6114739229025	68	127
897.1602267573696	898.6114739229025	59	127
897.1602267573696	898.6114739229025	64	127
899.3080725623582	900.5619501133787	66	127
899.3080725623582	900.5619501133787	69	127
899.3080725623582	900.5619501133787	59	127
901.2585487528345	902.5936961451247	52	127
901.2585487528345	902.5936961451247	68	127
901.2585487528345	906.44820861678	80	127
904.9969614512472	906.44820861678	68	127
904.9969614512472	906.44820861678	60	127
906.4598185941043	906.8197278911565	75	127
906.8197278911565	907.1680272108844	76	127
907.1796371882086	908.5612244897959	67	127
907.1796371882086	907.5279365079365	76	127
907.1796371882086	908.5612244897959	61	127
907.1796371882086	908.5612244897959	70	127
907.5279365079365	907.8646258503402	77	127
907.8646258503402	908.2245351473923	72	127
908.2245351473923	908.5728344671202	73	127
908.5728344671202	908.8979138321995	65	127
908.8979138321995	909.269433106576	67	127
909.269433106576	910.639410430839	60	127
909.269433106576	909.6177324263039	70	127
909.269433106576	910.639410430839	68	127
909.269433106576	910.639410430839	51	127
909.6177324263039	909.9544217687074	67	127
909.9544217687074	910.3143310657597	70	127
910.3143310657597	910.6510204081633	68	127
910.6510204081633	910.9877097505669	59	127
910.6510204081633	910.9877097505669	63	127
910.9877097505669	911.3243990929706	60	127
910.9877097505669	911.3243990929706	64	127
911.347619047619	912.5782766439909	51	127
911.347619047619	912.5782766439909	70	127
911.347619047619	911.6146485260771	60	127
911.347619047619	911.6146485260771	64	127
911.347619047619	912.5782766439909	61	127
911.347619047619	912.5782766439909	67	127
911.6146485260771	911.9513378684808	65	127
911.6146485260771	911.9513378684808	61	127
911.9513378684808	912.2996371882086	60	127
911.9513378684808	912.2996371882086	57	127
912.2996371882086	912.5898866213151	58	127
912.2996371882086	912.5898866213151	61	127
912.5898866213151	912.9149659863946	53	127
912.5898866213151	914.2501133786848	61	127
912.9149659863946	913.286485260771	55	127
913.286485260771	913.5883446712019	58	127
913.5883446712019	913.9018140589569	55	127
913.9018140589569	914.2501133786848	58	127
913.9018140589569	914.2501133786848	67	127
914.2501133786848	914.5519727891157	68	127
914.2501133786848	914.5635827664399	60	127
914.2501133786848	914.5635827664399	56	127
914.5635827664399	914.8886621315193	63	127
914.5635827664399	914.8886621315193	71	127
914.5635827664399	914.8886621315193	68	127
914.5635827664399	914.8886621315193	51	127
914.8886621315193	915.2137414965987	72	127
914.8886621315193	915.2137414965987	67	127
914.8886621315193	915.225351473923	64	127
914.8886621315193	915.225351473923	52	127
915.225351473923	915.4807709750567	72	127
915.225351473923	915.4807709750567	67	127
915.225351473923	915.4807709750567	52	127
915.225351473923	915.4807709750567	60	127
915.4807709750567	915.8058503401361	53	127
915.4807709750567	915.8058503401361	73	127
915.4807709750567	915.8058503401361	65	127
915.4807709750567	915.8058503401361	56	127
915.8058503401361	916.1657596371882	63	127
915.8058503401361	916.1657596371882	69	127
915.8058503401361	916.1657596371882	48	127
915.8058503401361	916.1657596371882	60	127
916.1657596371882	916.5604988662132	61	127
916.1657596371882	916.5604988662132	53	127
916.1657596371882	916.5604988662132	49	127
916.1657596371882	916.5604988662132	70	127
916.5604988662132	918.3948752834467	73	127
916.5604988662132	916.9204081632653	65	127
916.5604988662132	916.9204081632653	56	127
916.5604988662132	916.9204081632653	41	127
916.9204081632653	917.6170068027211	58	127
916.9204081632653	917.257097505669	64	127
916.9204081632653	917.257097505669	43	127
917.257097505669	917.6286167800454	46	127
917.257097505669	918.7431746031746	63	127
917.6286167800454	918.011746031746	61	127
917.6286167800454	918.011746031746	43	127
918.011746031746	918.3948752834467	46	127
918.011746031746	918.3948752834467	58	127
918.3948752834467	918.7663945578231	44	127
918.3948752834467	918.7663945578231	60	127
918.7663945578231	919.1263038548752	53	127
918.7663945578231	919.1263038548752	41	127
918.7663945578231	920.6123809523809	73	127
918.7663945578231	919.1263038548752	56	127
919.1263038548752	919.4397732426304	43	127
919.1263038548752	919.8112925170068	58	127
919.1263038548752	919.4397732426304	52	127
919.4397732426304	919.8345124716553	46	127
919.4397732426304	921.0303401360544	51	127
919.8345124716553	920.217641723356	61	127
919.8345124716553	920.217641723356	43	127
920.217641723356	920.6123809523809	46	127
920.217641723356	920.6123809523809	58	127
920.6123809523809	921.0419501133787	72	127
920.6123809523809	921.0419501133787	60	127
920.6123809523809	921.0419501133787	44	127
921.0419501133787	921.4482993197279	41	127
921.0419501133787	921.4482993197279	68	127
921.0419501133787	921.4482993197279	60	127
921.0419501133787	924.1766439909297	75	127
921.4482993197279	921.9591383219955	58	127
921.4482993197279	921.9591383219955	43	127
921.4482993197279	921.9591383219955	70	127
921.9591383219955	924.1766439909297	46	127
921.9591383219955	924.1766439909297	61	127
921.9591383219955	924.1766439909297	51	127
921.9591383219955	924.1766439909297	67	127
924.2579138321995	925.1054421768707	46	127
924.2579138321995	925.1054421768707	61	127
924.2579138321995	925.1054421768707	75	127
924.2579138321995	925.1054421768707	67	127
924.2579138321995	925.1054421768707	51	127
925.2795918367347	926.1271201814059	75	127
925.2795918367347	926.1271201814059	67	127
925.2795918367347	926.1271201814059	51	127
925.2795918367347	926.1271201814059	61	127
925.2795918367347	926.1271201814059	46	127
926.3128798185941	927.2300680272109	61	127
926.3128798185941	927.2300680272109	77	127
926.3128798185941	927.2300680272109	63	127
926.3128798185941	927.2300680272109	75	127
926.3128798185941	927.2300680272109	51	127
926.3128798185941	927.2300680272109	46	127
927.3809977324263	928.4955555555556	63	127
927.3809977324263	928.4955555555556	75	127
927.3809977324263	928.4955555555556	79	127
927.3809977324263	928.4955555555556	51	127
927.3809977324263	928.4955555555556	61	127
927.3809977324263	928.4955555555556	46	127
928.7277551020408	931.4793197278912	61	127
928.7277551020408	931.4793197278912	79	127
928.7277551020408	931.4793197278912	75	127
928.7277551020408	931.4793197278912	46	127
928.7277551020408	934.8810430839002	63	127
928.7277551020408	934.8810430839002	51	127
931.560589569161	934.8810430839002	75	127
931.560589569161	934.8810430839002	60	127
931.560589569161	934.8810430839002	80	127
931.560589569161	934.8810430839002	44	127
938.1202267573697	938.7007256235828	68	127
