# onset,offset,note,velocity
0.707437641723356	0.9744671201814059	55	127
0.707437641723356	0.9744671201814059	67	127
0.707437641723356	0.9744671201814059	55	127
0.707437641723356	0.9744671201814059	43	127
1.0557142857142856	1.5201360544217688	67	127
1.0557142857142856	1.5201360544217688	79	127
1.0557142857142856	1.5201360544217688	55	127
1.0557142857142856	1.5201360544217688	55	127
1.6710657596371883	2.750793650793651	80	127
1.6710657596371883	2.750793650793651	68	127
1.6710657596371883	2.750793650793651	56	127
1.6710657596371883	2.750793650793651	56	127
2.750793650793651	3.0294331065759637	77	127
2.750793650793651	3.0294331065759637	65	127
2.750793650793651	3.0294331065759637	53	127
2.750793650793651	3.0294331065759637	53	127
3.041043083900227	3.412562358276644	74	127
3.041043083900227	3.412562358276644	62	127
3.041043083900227	3.412562358276644	50	127
3.041043083900227	3.412562358276644	50	127
3.412562358276644	3.679591836734694	75	127
3.412562358276644	3.679591836734694	63	127
3.412562358276644	3.679591836734694	51	127
3.412562358276644	3.679591836734694	51	127
3.691201814058957	3.9582312925170067	71	127
3.691201814058957	3.9582312925170067	59	127
3.691201814058957	3.9582312925170067	59	127
3.691201814058957	3.9582312925170067	47	127
3.9582312925170067	4.225260770975057	72	127
3.9582312925170067	4.225260770975057	60	127
3.9582312925170067	4.225260770975057	60	127
3.9582312925170067	4.225260770975057	48	127
4.23687074829932	4.527120181405896	69	127
4.23687074829932	4.527120181405896	57	127
4.23687074829932	4.527120181405896	57	127
4.23687074829932	4.527120181405896	45	127
4.527120181405896	4.910249433106576	58	127
4.527120181405896	4.910249433106576	46	127
4.527120181405896	4.910249433106576	58	127
4.527120181405896	4.910249433106576	70	127
4.910249433106576	5.177278911564626	43	127
4.910249433106576	5.177278911564626	55	127
4.910249433106576	5.177278911564626	55	127
4.910249433106576	5.177278911564626	67	127
5.177278911564626	5.455918367346939	56	127
5.177278911564626	5.455918367346939	56	127
5.177278911564626	5.455918367346939	68	127
5.177278911564626	5.455918367346939	44	127
5.455918367346939	5.757777777777778	65	127
5.455918367346939	5.757777777777778	53	127
5.455918367346939	5.757777777777778	41	127
5.757777777777778	6.1873469387755105	58	127
5.757777777777778	6.1873469387755105	46	127
5.757777777777778	6.1873469387755105	70	127
5.757777777777778	10.935827664399094	58	127
6.198956916099773	6.802675736961452	39	127
6.198956916099773	6.326666666666667	63	127
6.198956916099773	10.935827664399094	51	127
6.361496598639456	6.489206349206349	70	127
6.489206349206349	6.686575963718821	67	127
6.686575963718821	6.802675736961452	63	127
6.814285714285714	7.394784580498866	68	127
6.814285714285714	7.394784580498866	41	127
7.40639455782313	8.242312925170069	39	127
7.40639455782313	7.696643990929705	63	127
7.754693877551021	7.90562358276644	70	127
7.90562358276644	8.05655328798186	67	127
8.05655328798186	8.242312925170069	63	127
8.242312925170069	8.799591836734693	41	127
8.242312925170069	8.799591836734693	68	127
8.799591836734693	9.414920634920636	39	127
8.799591836734693	8.915691609977324	63	127
8.927301587301587	9.101451247165533	70	127
9.113061224489796	9.287210884353742	67	127
9.287210884353742	9.414920634920636	63	127
9.414920634920636	10.041836734693877	69	127
9.414920634920636	11.30734693877551	41	127
10.041836734693877	10.332108843537416	70	127
10.35532879818594	10.668798185941043	72	127
10.668798185941043	10.935827664399094	68	127
10.947437641723356	11.086757369614512	58	127
10.947437641723356	11.30734693877551	65	127
10.947437641723356	11.30734693877551	50	127
11.179637188208616	11.30734693877551	56	127
11.30734693877551	11.562766439909296	51	127
11.30734693877551	11.562766439909296	63	127
11.30734693877551	11.562766439909296	55	127
11.30734693877551	11.864625850340136	43	127
11.57437641723356	13.118503401360543	58	127
11.57437641723356	11.864625850340136	53	127
11.57437641723356	11.864625850340136	62	127
11.864625850340136	12.236145124716554	60	127
11.864625850340136	12.236145124716554	51	127
11.864625850340136	12.52639455782313	44	127
12.247755102040816	12.52639455782313	58	127
12.247755102040816	12.52639455782313	50	127
12.52639455782313	12.863083900226757	51	127
12.52639455782313	12.863083900226757	60	127
12.52639455782313	13.118503401360543	43	127
12.863083900226757	13.118503401360543	62	127
12.863083900226757	13.118503401360543	53	127
13.130113378684808	13.37392290249433	63	127
13.130113378684808	13.640952380952381	41	127
13.130113378684808	13.37392290249433	55	127
13.130113378684808	13.37392290249433	60	127
13.37392290249433	13.640952380952381	56	127
13.37392290249433	13.640952380952381	62	127
13.37392290249433	13.640952380952381	65	127
13.652562358276644	13.94281179138322	63	127
13.652562358276644	13.94281179138322	67	127
13.652562358276644	13.94281179138322	58	127
13.652562358276644	13.94281179138322	39	127
13.652562358276644	13.94281179138322	55	127
13.94281179138322	14.20984126984127	36	127
13.94281179138322	14.20984126984127	51	127
13.94281179138322	14.20984126984127	67	127
13.94281179138322	14.20984126984127	70	127
14.221451247165533	14.534920634920635	38	127
14.221451247165533	14.534920634920635	53	127
14.221451247165533	14.534920634920635	65	127
14.221451247165533	14.534920634920635	68	127
14.534920634920635	14.813560090702948	63	127
14.534920634920635	14.813560090702948	39	127
14.534920634920635	14.813560090702948	55	127
14.534920634920635	14.813560090702948	67	127
14.82517006802721	15.173469387755102	46	127
14.82517006802721	15.173469387755102	67	127
14.82517006802721	15.173469387755102	55	127
14.82517006802721	15.521768707482993	63	127
15.173469387755102	15.521768707482993	65	127
15.173469387755102	15.521768707482993	60	127
15.173469387755102	15.521768707482993	45	127
15.521768707482993	15.870068027210884	65	127
15.521768707482993	15.870068027210884	46	127
15.521768707482993	15.870068027210884	58	127
15.521768707482993	15.870068027210884	62	127
15.881678004535148	16.264807256235827	56	127
15.881678004535148	16.264807256235827	38	127
15.881678004535148	16.264807256235827	53	127
16.264807256235827	20.885578231292516	51	127
16.264807256235827	16.54344671201814	55	127
16.264807256235827	16.41573696145125	63	127
16.264807256235827	16.91496598639456	39	127
16.41573696145125	16.54344671201814	70	127
16.57827664399093	20.885578231292516	58	127
16.57827664399093	16.705986394557822	67	127
16.72920634920635	16.91496598639456	63	127
16.91496598639456	17.46063492063492	68	127
16.91496598639456	17.46063492063492	41	127
17.46063492063492	17.599954648526076	63	127
17.46063492063492	18.02952380952381	39	127
17.599954648526076	17.716054421768707	70	127
17.72766439909297	17.901814058956916	67	127
17.913424036281178	18.02952380952381	63	127
18.02952380952381	18.621609977324262	41	127
18.02952380952381	18.621609977324262	68	127
18.668072562358276	19.32984126984127	39	127
18.668072562358276	18.79578231292517	63	127
18.79578231292517	19.01637188208617	70	127
19.01637188208617	19.1324716553288	67	127
19.167301587301587	19.32984126984127	63	127
19.341451247165534	21.152607709750566	41	127
19.341451247165534	20.09609977324263	69	127
20.107709750566894	20.351519274376418	70	127
20.351519274376418	20.606938775510205	72	127
20.63015873015873	20.885578231292516	68	127
20.885578231292516	21.152607709750566	50	127
20.885578231292516	21.036507936507938	58	127
20.885578231292516	21.152607709750566	65	127
21.036507936507938	21.152607709750566	56	127
21.16421768707483	21.756326530612245	43	127
21.16421768707483	21.466077097505668	51	127
21.16421768707483	21.466077097505668	55	127
21.16421768707483	21.466077097505668	63	127
21.466077097505668	22.940544217687076	58	127
21.466077097505668	21.756326530612245	62	127
21.466077097505668	21.756326530612245	53	127
21.767936507936508	22.27877551020408	44	127
21.767936507936508	22.011746031746032	60	127
21.767936507936508	22.011746031746032	51	127
22.011746031746032	22.27877551020408	50	127
22.011746031746032	22.27877551020408	58	127
22.290385487528344	22.6502947845805	60	127
22.290385487528344	22.6502947845805	51	127
22.290385487528344	22.940544217687076	43	127
22.6502947845805	22.940544217687076	53	127
22.6502947845805	22.940544217687076	62	127
22.940544217687076	23.486213151927437	41	127
22.940544217687076	23.207573696145126	63	127
22.940544217687076	23.207573696145126	60	127
22.940544217687076	23.207573696145126	55	127
23.219183673469388	23.486213151927437	56	127
23.219183673469388	23.486213151927437	62	127
23.219183673469388	23.486213151927437	65	127
23.486213151927437	23.764852607709752	58	127
23.486213151927437	24.345351473922904	63	127
23.486213151927437	23.764852607709752	67	127
23.486213151927437	23.764852607709752	39	127
23.776462585034015	24.0318820861678	37	127
23.776462585034015	24.0318820861678	70	127
23.776462585034015	24.0318820861678	55	127
24.0318820861678	24.345351473922904	36	127
24.0318820861678	24.345351473922904	68	127
24.0318820861678	24.345351473922904	51	127
24.356961451247166	24.670430839002268	53	127
24.356961451247166	24.670430839002268	38	127
24.356961451247166	24.473061224489797	58	127
24.356961451247166	24.670430839002268	65	127
24.48467120181406	24.670430839002268	56	127
24.68204081632653	24.98390022675737	56	127
24.68204081632653	24.98390022675737	65	127
24.68204081632653	24.98390022675737	50	127
24.68204081632653	24.98390022675737	39	127
24.98390022675737	25.274149659863944	51	127
24.98390022675737	25.274149659863944	55	127
24.98390022675737	25.274149659863944	63	127
24.98390022675737	25.274149659863944	46	127
25.28575963718821	25.622448979591837	55	127
25.28575963718821	25.622448979591837	51	127
25.28575963718821	25.622448979591837	51	127
25.28575963718821	25.622448979591837	63	127
25.6340589569161	26.05201814058957	70	127
26.05201814058957	26.330657596371882	75	127
26.342267573696144	26.690566893424037	74	127
26.690566893424037	27.027256235827664	75	127
27.038866213151927	27.28267573696145	63	127
27.038866213151927	27.28267573696145	58	127
27.038866213151927	27.28267573696145	79	127
27.28267573696145	27.58453514739229	60	127
27.28267573696145	27.58453514739229	70	127
27.28267573696145	27.58453514739229	63	127
27.596145124716553	27.85156462585034	65	127
27.596145124716553	27.85156462585034	68	127
27.596145124716553	27.85156462585034	62	127
27.85156462585034	28.19986394557823	67	127
27.85156462585034	28.19986394557823	67	127
27.85156462585034	28.19986394557823	63	127
28.223083900226758	28.559773242630385	72	127
28.223083900226758	28.559773242630385	63	127
28.223083900226758	28.559773242630385	67	127
28.223083900226758	28.559773242630385	75	127
28.559773242630385	28.629433106575963	72	127
28.559773242630385	28.826802721088434	65	127
28.559773242630385	28.826802721088434	69	127
28.559773242630385	28.629433106575963	75	127
28.629433106575963	28.68748299319728	77	127
28.629433106575963	28.68748299319728	74	127
28.68748299319728	28.826802721088434	75	127
28.68748299319728	28.826802721088434	72	127
28.8384126984127	29.10544217687075	57	127
28.8384126984127	29.10544217687075	63	127
28.8384126984127	29.10544217687075	72	127
29.10544217687075	29.38408163265306	65	127
29.10544217687075	29.38408163265306	53	127
29.10544217687075	29.163492063492065	62	127
29.10544217687075	29.163492063492065	70	127
29.163492063492065	29.22154195011338	72	127
29.163492063492065	29.22154195011338	63	127
29.22154195011338	29.38408163265306	70	127
29.22154195011338	29.38408163265306	62	127
29.38408163265306	29.60467120181406	63	127
29.38408163265306	29.60467120181406	60	127
29.38408163265306	29.60467120181406	69	127
29.616281179138323	29.860090702947847	53	127
29.616281179138323	29.860090702947847	57	127
29.616281179138323	29.674331065759638	63	127
29.616281179138323	29.674331065759638	72	127
29.674331065759638	29.743990929705216	65	127
29.674331065759638	29.743990929705216	74	127
29.743990929705216	29.860090702947847	72	127
29.743990929705216	29.860090702947847	63	127
29.87170068027211	30.18517006802721	62	127
29.87170068027211	30.18517006802721	58	127
29.87170068027211	30.18517006802721	58	127
29.87170068027211	30.103900226757368	70	127
30.18517006802721	30.568299319727892	62	127
30.18517006802721	30.568299319727892	58	127
30.18517006802721	30.568299319727892	58	127
30.18517006802721	30.475419501133786	70	127
30.568299319727892	30.997868480725625	70	127
31.009478458049887	31.276507936507937	75	127
31.276507936507937	31.52031746031746	74	127
31.531927437641723	31.764126984126985	75	127
31.764126984126985	32.10081632653061	67	127
31.764126984126985	32.10081632653061	63	127
31.764126984126985	32.10081632653061	58	127
31.764126984126985	32.10081632653061	79	127
32.1356462585034	32.42589569160998	68	127
32.1356462585034	32.42589569160998	63	127
32.1356462585034	32.42589569160998	60	127
32.1356462585034	32.42589569160998	70	127
32.42589569160998	32.68131519274377	70	127
32.42589569160998	32.68131519274377	65	127
32.42589569160998	32.68131519274377	62	127
32.42589569160998	32.68131519274377	68	127
32.69292517006803	32.948344671201816	67	127
32.69292517006803	32.948344671201816	70	127
32.69292517006803	32.948344671201816	67	127
32.69292517006803	32.948344671201816	63	127
32.948344671201816	33.23859410430839	51	127
32.948344671201816	33.23859410430839	68	127
32.948344671201816	33.23859410430839	75	127
32.948344671201816	33.23859410430839	48	127
33.25020408163265	33.50562358276644	51	127
33.25020408163265	33.50562358276644	48	127
33.25020408163265	33.319863945578234	75	127
33.25020408163265	33.50562358276644	68	127
33.319863945578234	33.38952380952381	77	127
33.38952380952381	33.50562358276644	75	127
33.50562358276644	33.78426303854875	72	127
33.78426303854875	34.07451247165533	51	127
33.78426303854875	33.85392290249433	67	127
33.78426303854875	33.85392290249433	70	127
33.78426303854875	34.07451247165533	48	127
33.85392290249433	33.92358276643991	68	127
33.85392290249433	33.92358276643991	72	127
33.92358276643991	34.07451247165533	70	127
33.92358276643991	34.07451247165533	67	127
34.07451247165533	34.34154195011338	65	127
34.07451247165533	34.34154195011338	68	127
34.07451247165533	34.34154195011338	50	127
34.07451247165533	34.34154195011338	53	127
34.353151927437644	34.65501133786848	63	127
34.353151927437644	34.65501133786848	51	127
34.353151927437644	34.65501133786848	55	127
34.353151927437644	34.65501133786848	67	127
34.65501133786848	34.8059410430839	68	127
34.65501133786848	34.98009070294785	62	127
34.65501133786848	34.98009070294785	53	127
34.65501133786848	34.98009070294785	46	127
34.8059410430839	34.98009070294785	65	127
34.99170068027211	35.32836734693878	55	127
34.99170068027211	35.32836734693878	51	127
34.99170068027211	35.32836734693878	63	127
35.32836734693878	35.6534693877551	58	127
35.32836734693878	35.90888888888889	67	127
35.665079365079364	35.90888888888889	63	127
35.90888888888889	36.19913832199546	62	127
35.90888888888889	36.19913832199546	65	127
36.19913832199546	36.45455782312925	67	127
36.19913832199546	36.45455782312925	63	127
36.466145124716554	36.96539682539682	75	127
36.466145124716554	36.709977324263036	70	127
36.466145124716554	36.709977324263036	67	127
36.709977324263036	36.96539682539682	58	127
36.709977324263036	36.96539682539682	67	127
36.97698412698413	37.22081632653061	65	127
36.97698412698413	37.22081632653061	74	127
36.97698412698413	37.22081632653061	56	127
37.22081632653061	37.464625850340134	75	127
37.22081632653061	37.464625850340134	63	127
37.22081632653061	37.464625850340134	55	127
37.4762358276644	37.685215419501134	51	127
37.4762358276644	37.685215419501134	79	127
37.4762358276644	37.87095238095238	51	127
37.4762358276644	37.685215419501134	67	127
37.685215419501134	37.87095238095238	68	127
37.685215419501134	37.87095238095238	80	127
37.685215419501134	37.87095238095238	53	127
37.87095238095238	38.05673469387755	55	127
37.87095238095238	38.05673469387755	70	127
37.87095238095238	38.05673469387755	82	127
37.87095238095238	37.94063492063492	51	127
37.94063492063492	37.998662131519275	53	127
37.998662131519275	38.19605442176871	51	127
38.20766439909297	38.47469387755102	48	127
38.20766439909297	38.346984126984125	84	127
38.20766439909297	38.346984126984125	72	127
38.20766439909297	38.346984126984125	56	127
38.35859410430839	38.47469387755102	74	127
38.35859410430839	38.47469387755102	86	127
38.35859410430839	38.47469387755102	58	127
38.47469387755102	38.66045351473923	75	127
38.47469387755102	38.66045351473923	87	127
38.47469387755102	38.66045351473923	60	127
38.47469387755102	38.55596371882086	46	127
38.55596371882086	38.614013605442175	48	127
38.614013605442175	38.7649433106576	46	127
38.77655328798186	38.93909297052154	62	127
38.77655328798186	39.10163265306122	45	127
38.77655328798186	38.93909297052154	89	127
38.77655328798186	38.93909297052154	77	127
38.96231292517007	39.10163265306122	79	127
38.96231292517007	39.10163265306122	63	127
38.96231292517007	39.10163265306122	91	127
39.10163265306122	39.36866213151927	91	127
39.10163265306122	39.36866213151927	87	127
39.10163265306122	39.36866213151927	79	127
39.10163265306122	39.36866213151927	63	127
39.25256235827664	39.36866213151927	48	127
39.380272108843535	39.7053514739229	65	127
39.380272108843535	39.6124716553288	46	127
39.380272108843535	39.7053514739229	92	127
39.380272108843535	39.7053514739229	80	127
39.7053514739229	39.91433106575964	62	127
39.7053514739229	40.00721088435374	46	127
39.7053514739229	39.91433106575964	77	127
39.7053514739229	39.91433106575964	89	127
40.018798185941044	40.27421768707483	65	127
40.018798185941044	40.27421768707483	62	127
40.018798185941044	40.27421768707483	56	127
40.018798185941044	40.27421768707483	58	127
40.27421768707483	40.56448979591837	67	127
40.27421768707483	40.56448979591837	55	127
40.27421768707483	40.56448979591837	63	127
40.56448979591837	40.84312925170068	53	127
40.56448979591837	40.84312925170068	62	127
40.56448979591837	40.84312925170068	65	127
40.85473922902494	41.168185941043085	63	127
40.85473922902494	41.168185941043085	67	127
40.85473922902494	41.168185941043085	55	127
41.168185941043085	41.400408163265304	75	127
41.168185941043085	41.400408163265304	70	127
41.168185941043085	41.400408163265304	67	127
41.168185941043085	41.400408163265304	58	127
41.41199546485261	41.65582766439909	60	127
41.41199546485261	41.65582766439909	70	127
41.41199546485261	41.65582766439909	48	127
41.41199546485261	41.65582766439909	58	127
41.65582766439909	41.94607709750567	50	127
41.65582766439909	41.94607709750567	68	127
41.65582766439909	41.94607709750567	62	127
41.65582766439909	41.94607709750567	56	127
41.957687074829934	42.22471655328798	67	127
41.957687074829934	42.22471655328798	51	127
41.957687074829934	42.22471655328798	55	127
41.957687074829934	42.22471655328798	63	127
42.22471655328798	42.53818594104308	51	127
42.22471655328798	42.387256235827664	67	127
42.22471655328798	42.387256235827664	55	127
42.22471655328798	42.387256235827664	51	127
42.387256235827664	42.53818594104308	68	127
42.387256235827664	42.53818594104308	56	127
42.387256235827664	42.53818594104308	53	127
42.549795918367344	42.723945578231294	58	127
42.549795918367344	42.60784580498866	51	127
42.549795918367344	42.723945578231294	70	127
42.549795918367344	42.723945578231294	55	127
42.60784580498866	42.665895691609975	53	127
42.665895691609975	42.82843537414966	51	127
42.82843537414966	42.96775510204082	60	127
42.82843537414966	43.08385487528345	48	127
42.82843537414966	42.96775510204082	63	127
42.82843537414966	42.96775510204082	75	127
42.96775510204082	43.08385487528345	77	127
42.96775510204082	43.08385487528345	62	127
42.96775510204082	43.08385487528345	65	127
43.09546485260771	43.269614512471655	63	127
43.09546485260771	43.269614512471655	67	127
43.09546485260771	43.269614512471655	79	127
43.09546485260771	43.153514739229024	46	127
43.153514739229024	43.23478458049887	48	127
43.23478458049887	43.385714285714286	46	127
43.385714285714286	43.51342403628118	79	127
43.385714285714286	43.51342403628118	67	127
43.385714285714286	43.51342403628118	63	127
43.385714285714286	43.62952380952381	44	127
43.51342403628118	43.62952380952381	80	127
43.51342403628118	43.62952380952381	65	127
43.51342403628118	43.62952380952381	68	127
43.64113378684807	43.80367346938775	82	127
43.64113378684807	43.8849433106576	43	127
43.64113378684807	43.80367346938775	67	127
43.64113378684807	43.80367346938775	70	127
43.8849433106576	44.02426303854875	72	127
43.8849433106576	44.02426303854875	84	127
43.8849433106576	44.02426303854875	44	127
43.8849433106576	44.02426303854875	63	127
44.02426303854875	44.151972789115646	74	127
44.02426303854875	44.151972789115646	86	127
44.02426303854875	44.151972789115646	56	127
44.02426303854875	44.151972789115646	41	127
44.16358276643991	44.34934240362812	87	127
44.16358276643991	44.337709750566894	75	127
44.16358276643991	44.337709750566894	55	127
44.16358276643991	44.337709750566894	39	127
44.419002267573696	44.59312925170068	44	127
44.419002267573696	44.59312925170068	51	127
44.419002267573696	44.59312925170068	60	127
44.419002267573696	44.77891156462585	87	127
44.59312925170068	44.77891156462585	62	127
44.59312925170068	44.77891156462585	53	127
44.59312925170068	44.77891156462585	41	127
44.8253514739229	45.58	55	127
44.8253514739229	45.58	63	127
44.8253514739229	45.336190476190474	87	127
44.8253514739229	45.103968253968254	39	127
45.103968253968254	45.336190476190474	46	127
45.336190476190474	47.4027664399093	82	127
45.336190476190474	45.452290249433105	43	127
45.46390022675737	45.58	39	127
45.59160997732426	46.11403628117914	44	127
45.59160997732426	45.73090702947846	62	127
45.59160997732426	46.11403628117914	53	127
45.73090702947846	45.85861678004535	65	127
45.85861678004535	45.97473922902494	62	127
45.986326530612246	46.11403628117914	58	127
46.125668934240366	46.24174603174603	39	127
46.125668934240366	46.38108843537415	67	127
46.125668934240366	46.62487528344671	51	127
46.24174603174603	46.38108843537415	46	127
46.38108843537415	46.62487528344671	63	127
46.38108843537415	46.508798185941046	43	127
46.508798185941046	46.62487528344671	39	127
46.63650793650794	47.14734693877551	53	127
46.63650793650794	46.76421768707483	62	127
46.63650793650794	47.14734693877551	44	127
46.775827664399095	46.891927437641726	65	127
46.891927437641726	47.03124716553288	62	127
47.03124716553288	47.14734693877551	58	127
47.158956916099775	47.4027664399093	67	127
47.158956916099775	47.27505668934241	39	127
47.158956916099775	48.36639455782313	51	127
47.28666666666667	47.4027664399093	46	127
47.4027664399093	47.55369614512472	43	127
47.4027664399093	47.693015873015874	87	127
47.4027664399093	47.89038548752834	63	127
47.55369614512472	47.693015873015874	39	127
47.704625850340136	48.36639455782313	45	127
47.704625850340136	48.36639455782313	84	127
47.90199546485261	48.04131519274377	66	127
48.04131519274377	48.238684807256234	65	127
48.238684807256234	48.36639455782313	63	127
48.36639455782313	48.64503401360544	46	127
48.36639455782313	48.48249433106576	63	127
48.36639455782313	48.64503401360544	77	127
48.36639455782313	48.48249433106576	60	127
48.49410430839002	48.64503401360544	62	127
48.49410430839002	48.64503401360544	58	127
48.6566439909297	48.784353741496595	65	127
48.6566439909297	48.784353741496595	50	127
48.6566439909297	48.99333333333333	48	127
48.6566439909297	48.99333333333333	77	127
48.784353741496595	48.99333333333333	50	127
48.784353741496595	48.99333333333333	62	127
48.99333333333333	49.10943310657596	60	127
48.99333333333333	49.10943310657596	51	127
48.99333333333333	49.23714285714286	82	127
48.99333333333333	49.23714285714286	44	127
49.121043083900226	49.23714285714286	58	127
49.121043083900226	49.23714285714286	50	127
49.24875283446712	49.37646258503401	51	127
49.24875283446712	49.37646258503401	60	127
49.24875283446712	49.504172335600906	41	127
49.24875283446712	49.74798185941043	82	127
49.37646258503401	49.504172335600906	53	127
49.37646258503401	49.504172335600906	62	127
49.504172335600906	49.74798185941043	63	127
49.504172335600906	49.62027210884354	55	127
49.504172335600906	50.02662131519274	39	127
49.6318820861678	49.74798185941043	58	127
49.75959183673469	50.02662131519274	75	127
49.75959183673469	49.87569160997732	55	127
49.75959183673469	52.464716553287985	70	127
49.87569160997732	50.02662131519274	51	127
50.02662131519274	50.18916099773243	38	127
50.02662131519274	50.66517006802721	56	127
50.02662131519274	50.31687074829932	77	127
50.20077097505669	50.31687074829932	46	127
50.328480725623585	50.66517006802721	70	127
50.328480725623585	50.444580498866216	41	127
50.444580498866216	50.66517006802721	38	127
50.66517006802721	50.88575963718821	55	127
50.66517006802721	51.361768707482995	39	127
50.88575963718821	51.025079365079364	58	127
51.05990929705215	51.210839002267576	55	127
51.05990929705215	51.361768707482995	87	127
51.22244897959184	51.361768707482995	51	127
51.361768707482995	51.524308390022675	38	127
51.361768707482995	51.91904761904762	56	127
51.361768707482995	51.66362811791383	89	127
51.524308390022675	51.66362811791383	46	127
51.67523809523809	51.791337868480724	41	127
51.67523809523809	51.91904761904762	82	127
51.80294784580499	51.91904761904762	38	127
51.91904761904762	52.63886621315193	39	127
51.91904761904762	52.04675736961451	55	127
51.91904761904762	52.16285714285714	91	127
52.04675736961451	52.16285714285714	58	127
52.18607709750567	52.33700680272109	55	127
52.18607709750567	52.464716553287985	87	127
52.348616780045354	52.464716553287985	51	127
52.464716553287985	53.03360544217687	57	127
52.464716553287985	52.789795918367346	84	127
52.464716553287985	53.03360544217687	72	127
52.63886621315193	52.789795918367346	42	127
52.789795918367346	53.03360544217687	89	127
52.789795918367346	52.90589569160998	41	127
52.91750566893424	53.03360544217687	39	127
53.04521541950113	53.31224489795918	38	127
53.04521541950113	53.31224489795918	89	127
53.04521541950113	53.31224489795918	74	127
53.04521541950113	53.31224489795918	58	127
53.31224489795918	53.590884353741494	36	127
53.31224489795918	53.53283446712018	87	127
53.31224489795918	53.590884353741494	75	127
53.31224489795918	53.590884353741494	60	127
53.602494331065756	53.93918367346939	57	127
53.602494331065756	53.86952380952381	87	127
53.602494331065756	53.93918367346939	72	127
53.602494331065756	53.93918367346939	41	127
53.93918367346939	54.34553287981859	53	127
53.93918367346939	54.34553287981859	69	127
53.93918367346939	54.34553287981859	87	127
53.93918367346939	54.34553287981859	53	127
54.380362811791386	54.49646258503402	58	127
54.380362811791386	54.62417233560091	86	127
54.380362811791386	57.84013605442177	53	127
54.380362811791386	54.49646258503402	53	127
54.49646258503402	54.62417233560091	62	127
54.49646258503402	54.62417233560091	65	127
54.62417233560091	54.751882086167804	62	127
54.62417233560091	54.751882086167804	58	127
54.763492063492066	54.8795918367347	58	127
54.763492063492066	54.8795918367347	53	127
54.89120181405896	55.01891156462585	67	127
54.89120181405896	55.54136054421769	63	127
54.89120181405896	55.01891156462585	51	127
55.01891156462585	55.193061224489796	53	127
55.01891156462585	55.193061224489796	72	127
55.193061224489796	55.413650793650795	69	127
55.193061224489796	55.413650793650795	51	127
55.413650793650795	55.54136054421769	65	127
55.413650793650795	55.54136054421769	53	127
55.55297052154195	55.680680272108845	53	127
55.55297052154195	55.680680272108845	58	127
55.55297052154195	55.83160997732426	74	127
55.69229024943311	55.83160997732426	65	127
55.69229024943311	55.83160997732426	62	127
55.83160997732426	55.959319727891156	62	127
55.83160997732426	56.08702947845805	70	127
55.83160997732426	55.959319727891156	58	127
55.959319727891156	56.08702947845805	53	127
55.959319727891156	56.08702947845805	58	127
56.09863945578231	56.23795918367347	67	127
56.09863945578231	56.74879818594104	63	127
56.09863945578231	56.23795918367347	51	127
56.24956916099773	56.43532879818594	53	127
56.24956916099773	56.43532879818594	72	127
56.43532879818594	56.609478458049885	51	127
56.43532879818594	56.609478458049885	69	127
56.609478458049885	56.74879818594104	53	127
56.609478458049885	56.74879818594104	65	127
56.7604081632653	56.89972789115646	58	127
56.7604081632653	56.89972789115646	53	127
56.7604081632653	57.02743764172335	74	127
56.91133786848073	57.02743764172335	62	127
56.91133786848073	57.02743764172335	65	127
57.02743764172335	57.155147392290246	58	127
57.02743764172335	57.155147392290246	62	127
57.02743764172335	57.155147392290246	77	127
57.155147392290246	57.29446712018141	58	127
57.155147392290246	57.29446712018141	74	127
57.155147392290246	57.29446712018141	53	127
57.29446712018141	57.41056689342403	58	127
57.29446712018141	57.41056689342403	73	127
57.29446712018141	57.84013605442177	64	127
57.4221768707483	57.53827664399093	57	127
57.4221768707483	57.53827664399093	72	127
57.549886621315196	57.700816326530614	58	127
57.549886621315196	57.700816326530614	73	127
57.700816326530614	57.84013605442177	55	127
57.700816326530614	57.84013605442177	70	127
57.84013605442177	58.13038548752834	53	127
57.84013605442177	57.979455782312925	70	127
57.84013605442177	58.13038548752834	65	127
57.84013605442177	58.13038548752834	51	127
57.99106575963719	58.13038548752834	69	127
58.15360544217687	58.83859410430839	65	127
58.15360544217687	58.30453514739229	70	127
58.15360544217687	58.4902947845805	67	127
58.30453514739229	58.4902947845805	72	127
58.4902947845805	58.629614512471655	67	127
58.4902947845805	58.83859410430839	63	127
58.66444444444444	58.83859410430839	65	127
58.850204081632654	59.128843537414966	60	127
58.850204081632654	59.37265306122449	65	127
58.850204081632654	58.97791383219955	67	127
58.97791383219955	59.128843537414966	69	127
59.128843537414966	59.2449433106576	62	127
59.128843537414966	59.2449433106576	70	127
59.25655328798186	59.37265306122449	74	127
59.25655328798186	59.37265306122449	77	127
59.38426303854875	59.511972789115646	74	127
59.38426303854875	59.511972789115646	65	127
59.38426303854875	59.6512925170068	58	127
59.511972789115646	59.6512925170068	70	127
59.511972789115646	59.6512925170068	62	127
59.6512925170068	60.324671201814056	75	127
59.6512925170068	60.324671201814056	72	127
59.6512925170068	59.848662131519276	57	127
59.6512925170068	59.848662131519276	65	127
59.848662131519276	59.97637188208617	72	127
59.848662131519276	59.97637188208617	65	127
59.98798185941043	60.19696145124716	60	127
59.98798185941043	60.19696145124716	69	127
60.20857142857143	60.324671201814056	65	127
60.20857142857143	60.324671201814056	57	127
60.324671201814056	60.45238095238095	70	127
60.324671201814056	60.45238095238095	62	127
60.324671201814056	60.59170068027211	74	127
60.324671201814056	60.59170068027211	63	127
60.45238095238095	60.59170068027211	74	127
60.45238095238095	60.59170068027211	77	127
60.603310657596374	60.719410430839005	74	127
60.603310657596374	60.719410430839005	65	127
60.603310657596374	60.83551020408163	58	127
60.73102040816327	60.83551020408163	70	127
60.73102040816327	60.83551020408163	62	127
60.83551020408163	61.49727891156463	72	127
60.83551020408163	60.96321995464853	65	127
60.83551020408163	60.96321995464853	57	127
60.83551020408163	61.49727891156463	75	127
60.96321995464853	61.13736961451247	65	127
60.96321995464853	61.13736961451247	72	127
61.148979591836735	61.27668934240363	69	127
61.148979591836735	61.27668934240363	60	127
61.311519274376415	61.49727891156463	65	127
61.311519274376415	61.49727891156463	57	127
61.49727891156463	61.76430839002268	63	127
61.49727891156463	61.636598639455784	70	127
61.49727891156463	61.636598639455784	62	127
61.49727891156463	61.636598639455784	74	127
61.636598639455784	61.76430839002268	74	127
61.636598639455784	61.76430839002268	70	127
61.636598639455784	61.76430839002268	77	127
61.76430839002268	61.88040816326531	74	127
61.76430839002268	61.88040816326531	70	127
61.76430839002268	61.88040816326531	65	127
61.76430839002268	62.15904761904762	58	127
61.89201814058957	62.019727891156464	65	127
61.89201814058957	62.019727891156464	62	127
61.89201814058957	62.019727891156464	70	127
62.031337868480726	62.5421768707483	76	127
62.031337868480726	62.5421768707483	73	127
62.031337868480726	62.5421768707483	67	127
62.15904761904762	62.28675736961451	61	127
62.28675736961451	62.414467120181406	60	127
62.42607709750567	62.5421768707483	58	127
62.55378684807256	63.227165532879816	77	127
62.55378684807256	62.66988662131519	57	127
62.55378684807256	63.227165532879816	72	127
62.55378684807256	63.227165532879816	60	127
62.66988662131519	62.80920634920635	60	127
62.80920634920635	63.08784580498866	58	127
63.09945578231292	63.227165532879816	57	127
63.23877551020408	64.10952380952381	60	127
63.23877551020408	63.36648526077097	56	127
63.23877551020408	63.80766439909297	78	127
63.23877551020408	64.10952380952381	72	127
63.36648526077097	63.494195011337865	55	127
63.552244897959184	63.65673469387755	56	127
63.69156462585034	63.784444444444446	56	127
63.84249433106576	64.10952380952381	78	127
63.84249433106576	64.10952380952381	56	127
64.10952380952381	64.45782312925171	71	127
64.10952380952381	64.45782312925171	79	127
64.10952380952381	64.45782312925171	62	127
64.10952380952381	64.45782312925171	55	127
64.48104308390023	64.73646258503402	75	127
64.48104308390023	64.73646258503402	67	127
64.48104308390023	64.73646258503402	72	127
64.48104308390023	64.73646258503402	48	127
64.73646258503402	65.00349206349206	72	127
64.73646258503402	65.00349206349206	63	127
64.73646258503402	65.00349206349206	67	127
64.73646258503402	65.00349206349206	51	127
65.01510204081633	65.28213151927437	74	127
65.01510204081633	65.28213151927437	70	127
65.01510204081633	65.28213151927437	62	127
65.01510204081633	65.28213151927437	53	127
65.28213151927437	65.64204081632653	75	127
65.28213151927437	65.64204081632653	69	127
65.28213151927437	65.64204081632653	60	127
65.28213151927437	65.64204081632653	41	127
65.6536507936508	65.99034013605443	63	127
65.6536507936508	65.99034013605443	53	127
65.6536507936508	65.99034013605443	72	127
65.6536507936508	65.99034013605443	66	127
65.99034013605443	66.32700680272109	53	127
65.99034013605443	66.12965986394558	69	127
65.99034013605443	66.12965986394558	65	127
65.99034013605443	66.32700680272109	60	127
66.12965986394558	66.32700680272109	81	127
66.12965986394558	66.32700680272109	63	127
66.32700680272109	66.54761904761905	62	127
66.32700680272109	66.54761904761905	58	127
66.32700680272109	66.54761904761905	46	127
66.32700680272109	66.54761904761905	82	127
66.64049886621315	66.84947845804989	82	127
66.64049886621315	66.84947845804989	79	127
66.64049886621315	66.84947845804989	70	127
66.64049886621315	66.84947845804989	63	127
66.94235827664399	67.13972789115647	62	127
66.94235827664399	67.13972789115647	82	127
66.94235827664399	67.13972789115647	77	127
66.94235827664399	67.13972789115647	70	127
67.23260770975057	67.42997732426304	82	127
67.23260770975057	67.42997732426304	75	127
67.23260770975057	67.42997732426304	72	127
67.23260770975057	67.42997732426304	60	127
67.51124716553288	67.70861678004535	74	127
67.51124716553288	67.70861678004535	74	127
67.51124716553288	67.70861678004535	58	127
67.51124716553288	67.78988662131519	82	127
67.80149659863946	67.95242630385488	84	127
67.80149659863946	68.02208616780045	72	127
67.80149659863946	68.02208616780045	65	127
67.80149659863946	68.02208616780045	57	127
67.95242630385488	68.1033560090703	86	127
68.1033560090703	68.31233560090703	87	127
68.1033560090703	68.31233560090703	70	127
68.1033560090703	68.31233560090703	70	127
68.1033560090703	68.31233560090703	55	127
68.39360544217688	68.59097505668935	86	127
68.39360544217688	68.59097505668935	70	127
68.39360544217688	68.59097505668935	58	127
68.39360544217688	68.59097505668935	53	127
68.7302947845805	68.93927437641723	70	127
68.7302947845805	68.93927437641723	91	127
68.7302947845805	68.93927437641723	58	127
68.7302947845805	68.93927437641723	51	127
69.02054421768707	69.19469387755102	71	127
69.02054421768707	69.19469387755102	89	127
69.02054421768707	69.19469387755102	59	127
69.02054421768707	69.19469387755102	50	127
69.28757369614513	69.368820861678	89	127
69.28757369614513	69.51975056689342	72	127
69.28757369614513	69.51975056689342	60	127
69.28757369614513	69.51975056689342	48	127
69.368820861678	69.53138321995465	87	127
69.61265306122449	69.72875283446712	74	127
69.61265306122449	69.72875283446712	62	127
69.61265306122449	69.77517006802721	86	127
69.61265306122449	69.77517006802721	46	127
69.74036281179139	69.85646258503401	76	127
69.74036281179139	69.85646258503401	64	127
69.85646258503401	69.9261224489796	86	127
69.85646258503401	70.04222222222222	77	127
69.85646258503401	70.04222222222222	65	127
69.85646258503401	70.04222222222222	45	127
69.9261224489796	70.05383219954649	84	127
70.12349206349207	70.34408163265306	79	127
70.12349206349207	70.34408163265306	82	127
70.12349206349207	70.34408163265306	67	127
70.12349206349207	70.34408163265306	43	127
70.4253514739229	70.61111111111111	41	127
70.4253514739229	70.61111111111111	84	127
70.4253514739229	70.61111111111111	81	127
70.4253514739229	70.61111111111111	69	127
70.69238095238096	70.90133786848072	77	127
70.69238095238096	70.85492063492063	79	127
70.69238095238096	70.85492063492063	70	127
70.69238095238096	70.90133786848072	63	127
70.8665306122449	70.9942403628118	81	127
70.8665306122449	70.9942403628118	72	127
71.00585034013605	71.2728798185941	70	127
71.00585034013605	71.2728798185941	82	127
71.00585034013605	71.2728798185941	77	127
71.00585034013605	71.2728798185941	62	127
71.35414965986395	71.55151927437642	79	127
71.35414965986395	71.55151927437642	82	127
71.35414965986395	71.55151927437642	63	127
71.35414965986395	71.55151927437642	67	127
71.64439909297052	71.81854875283447	62	127
71.64439909297052	71.81854875283447	82	127
71.64439909297052	71.81854875283447	77	127
71.64439909297052	71.81854875283447	65	127
71.8998185941043	72.06235827664399	60	127
71.8998185941043	72.06235827664399	82	127
71.8998185941043	72.06235827664399	75	127
71.8998185941043	72.06235827664399	63	127
72.15523809523809	72.32938775510205	58	127
72.15523809523809	72.32938775510205	74	127
72.15523809523809	72.32938775510205	62	127
72.15523809523809	72.43385487528344	82	127
72.43385487528344	72.64285714285714	57	127
72.43385487528344	72.54997732426304	84	127
72.43385487528344	72.64285714285714	72	127
72.43385487528344	72.64285714285714	60	127
72.56156462585034	72.71251700680273	86	127
72.72412698412698	72.9098866213152	58	127
72.72412698412698	72.9098866213152	87	127
72.72412698412698	72.9098866213152	70	127
72.72412698412698	72.9098866213152	55	127
73.0027664399093	73.2001133786848	58	127
73.0027664399093	73.2001133786848	86	127
73.0027664399093	73.2001133786848	70	127
73.0027664399093	73.2001133786848	53	127
73.29301587301588	73.45553287981859	91	127
73.29301587301588	73.45553287981859	70	127
73.29301587301588	73.45553287981859	58	127
73.29301587301588	73.45553287981859	51	127
73.58324263038548	73.76902494331065	50	127
73.58324263038548	73.76902494331065	89	127
73.58324263038548	73.76902494331065	71	127
73.58324263038548	73.76902494331065	58	127
73.86190476190477	74.07086167800453	48	127
73.86190476190477	73.91995464852607	89	127
73.86190476190477	74.07086167800453	72	127
73.86190476190477	74.07086167800453	60	127
73.91995464852607	74.09410430839003	87	127
74.15215419501133	74.39596371882087	62	127
74.15215419501133	74.39596371882087	86	127
74.15215419501133	74.39596371882087	74	127
74.15215419501133	74.39596371882087	46	127
74.47723356009071	74.7326530612245	53	127
74.47723356009071	74.54689342403628	86	127
74.47723356009071	74.65138321995465	81	127
74.47723356009071	74.7326530612245	65	127
74.54689342403628	74.67460317460318	84	127
74.7326530612245	74.94163265306122	79	127
74.7326530612245	74.94163265306122	82	127
75.01129251700681	75.17383219954648	77	127
75.01129251700681	75.06934240362811	82	127
75.06934240362811	75.197052154195	81	127
75.25510204081633	75.42925170068027	79	127
75.25510204081633	75.42925170068027	75	127
75.51052154195011	75.71950113378685	65	127
75.51052154195011	75.71950113378685	62	127
75.51052154195011	75.56857142857143	79	127
75.51052154195011	75.71950113378685	74	127
75.56857142857143	75.74272108843537	77	127
75.81238095238095	76.05619047619048	63	127
75.81238095238095	76.05619047619048	75	127
75.81238095238095	76.05619047619048	72	127
75.81238095238095	76.05619047619048	60	127
76.14907029478458	76.33482993197279	58	127
76.14907029478458	76.2187074829932	75	127
76.14907029478458	76.33482993197279	70	127
76.14907029478458	76.33482993197279	62	127
76.2187074829932	76.36963718820861	74	127
76.43931972789116	76.63668934240363	60	127
76.43931972789116	76.63668934240363	72	127
76.43931972789116	76.63668934240363	65	127
76.43931972789116	76.63668934240363	53	127
76.71795918367347	76.92693877551021	62	127
76.71795918367347	76.78761904761905	72	127
76.71795918367347	77.01981859410431	58	127
76.71795918367347	77.01981859410431	50	127
76.78761904761905	76.93854875283446	70	127
77.03142857142858	77.20557823129252	69	127
77.03142857142858	77.20557823129252	65	127
77.28684807256236	77.35650793650794	69	127
77.28684807256236	77.48421768707483	63	127
77.35650793650794	77.49580498866213	67	127
77.57709750566893	77.79768707482994	62	127
77.57709750566893	77.79768707482994	65	127
77.57709750566893	77.79768707482994	46	127
77.89056689342404	78.05310657596372	55	127
77.89056689342404	77.94861678004536	80	127
77.89056689342404	78.05310657596372	63	127
77.89056689342404	78.05310657596372	46	127
77.94861678004536	78.0879365079365	79	127
78.1575963718821	78.32013605442177	47	127
78.1575963718821	78.32013605442177	77	127
78.1575963718821	78.32013605442177	67	127
78.1575963718821	78.32013605442177	62	127
78.4362358276644	78.59877551020408	48	127
78.4362358276644	78.49428571428571	77	127
78.4362358276644	78.59877551020408	67	127
78.4362358276644	78.59877551020408	60	127
78.49428571428571	78.6219954648526	75	127
78.69165532879819	78.80775510204082	50	127
78.69165532879819	78.87741496598639	74	127
78.69165532879819	78.87741496598639	70	127
78.69165532879819	78.87741496598639	58	127
78.80775510204082	78.99351473922903	52	127
78.99351473922903	79.17927437641724	53	127
78.99351473922903	79.0631746031746	74	127
78.99351473922903	79.17927437641724	69	127
78.99351473922903	79.17927437641724	60	127
79.0631746031746	79.20249433106576	72	127
79.28374149659864	79.45791383219955	61	127
79.28374149659864	79.45791383219955	70	127
79.28374149659864	79.45791383219955	64	127
79.28374149659864	79.45791383219955	53	127
79.53916099773242	79.74816326530612	53	127
79.53916099773242	79.6320634920635	70	127
79.53916099773242	79.74816326530612	65	127
79.53916099773242	79.74816326530612	60	127
79.6320634920635	79.75977324263039	69	127
79.84104308390023	80.08485260770975	58	127
79.84104308390023	80.08485260770975	67	127
79.84104308390023	80.08485260770975	64	127
79.84104308390023	80.08485260770975	61	127
79.84104308390023	80.08485260770975	53	127
80.17770975056689	80.36349206349206	61	127
80.17770975056689	80.36349206349206	49	127
80.49120181405895	80.68854875283446	50	127
80.49120181405895	80.68854875283446	62	127
80.79303854875283	80.99043083900227	46	127
80.79303854875283	80.99043083900227	58	127
81.07170068027212	81.25746031746031	62	127
81.07170068027212	81.25746031746031	50	127
81.33873015873016	81.5128798185941	63	127
81.33873015873016	81.5128798185941	51	127
81.60575963718821	81.76829931972789	64	127
81.60575963718821	81.76829931972789	52	127
81.861179138322	82.44167800453515	67	127
81.861179138322	82.44167800453515	55	127
81.861179138322	82.03532879818594	55	127
81.861179138322	82.03532879818594	67	127
81.861179138322	82.03532879818594	55	127
82.16303854875284	82.3604081632653	79	127
82.16303854875284	82.3604081632653	67	127
82.44167800453515	82.59260770975057	68	127
82.44167800453515	82.59260770975057	56	127
82.68548752834467	82.88285714285715	69	127
82.68548752834467	82.88285714285715	57	127
82.96410430839002	83.13827664399093	65	127
82.96410430839002	83.13827664399093	53	127
83.23115646258503	83.41691609977325	69	127
83.23115646258503	83.41691609977325	57	127
83.50979591836735	83.74199546485261	58	127
83.50979591836735	83.74199546485261	70	127
83.84648526077098	84.02063492063492	71	127
83.84648526077098	84.02063492063492	59	127
84.10190476190476	84.64757369614513	74	127
84.10190476190476	84.64757369614513	62	127
84.10190476190476	84.28766439909298	62	127
84.10190476190476	84.28766439909298	50	127
84.38054421768707	84.60111111111111	74	127
84.38054421768707	84.60111111111111	62	127
84.65918367346939	84.83333333333333	59	127
84.65918367346939	84.83333333333333	71	127
84.91460317460317	85.12358276643991	72	127
84.91460317460317	85.12358276643991	60	127
85.22807256235828	85.42544217687075	51	127
85.22807256235828	85.42544217687075	63	127
85.22807256235828	85.71569160997733	75	127
85.22807256235828	85.71569160997733	63	127
85.51832199546486	85.63442176870748	63	127
85.51832199546486	85.63442176870748	75	127
85.72730158730158	85.9130612244898	61	127
85.72730158730158	85.9130612244898	73	127
85.98272108843537	86.18009070294785	74	127
85.98272108843537	86.18009070294785	62	127
86.26133786848072	86.4471201814059	53	127
86.26133786848072	86.93473922902494	65	127
86.26133786848072	86.4471201814059	65	127
86.26133786848072	86.93473922902494	77	127
86.54	86.78380952380952	65	127
86.54	86.78380952380952	77	127
86.93473922902494	88.20022675736962	82	127
86.93473922902494	87.12049886621315	75	127
86.93473922902494	87.12049886621315	63	127
86.93473922902494	87.12049886621315	47	127
86.93473922902494	88.20022675736962	70	127
87.24820861678005	87.48040816326531	76	127
87.24820861678005	87.48040816326531	36	127
87.24820861678005	87.48040816326531	55	127
87.24820861678005	87.48040816326531	48	127
87.24820861678005	87.48040816326531	64	127
87.63133786848073	88.20022675736962	79	127
87.63133786848073	88.20022675736962	76	127
87.63133786848073	88.20022675736962	55	127
87.63133786848073	88.20022675736962	64	127
87.63133786848073	88.20022675736962	36	127
87.63133786848073	88.20022675736962	48	127
88.20022675736962	89.46571428571428	70	127
88.20022675736962	89.46571428571428	82	127
88.20022675736962	88.40918367346939	75	127
88.20022675736962	88.40918367346939	63	127
88.20022675736962	88.40918367346939	47	127
88.52530612244898	88.73428571428572	76	127
88.52530612244898	88.73428571428572	55	127
88.52530612244898	88.73428571428572	64	127
88.52530612244898	88.73428571428572	36	127
88.52530612244898	88.73428571428572	48	127
88.83877551020409	89.46571428571428	36	127
88.83877551020409	89.46571428571428	76	127
88.83877551020409	89.46571428571428	79	127
88.83877551020409	89.46571428571428	55	127
88.83877551020409	89.46571428571428	64	127
88.83877551020409	89.46571428571428	48	127
89.47732426303855	90.5918820861678	82	127
89.47732426303855	89.6514739229025	75	127
89.47732426303855	89.6514739229025	63	127
89.47732426303855	89.6514739229025	47	127
89.47732426303855	90.5918820861678	70	127
89.73274376417234	89.9649433106576	55	127
89.73274376417234	89.9649433106576	64	127
89.73274376417234	89.9649433106576	36	127
89.73274376417234	89.9649433106576	48	127
89.73274376417234	89.9649433106576	76	127
90.0578231292517	90.5918820861678	48	127
90.0578231292517	90.5918820861678	76	127
90.0578231292517	90.5918820861678	79	127
90.0578231292517	90.5918820861678	55	127
90.0578231292517	90.5918820861678	64	127
90.0578231292517	90.5918820861678	36	127
90.60349206349207	90.84730158730159	53	127
90.60349206349207	90.84730158730159	82	127
90.60349206349207	90.84730158730159	77	127
90.60349206349207	90.84730158730159	38	127
90.84730158730159	91.16077097505669	55	127
90.84730158730159	91.02145124716553	81	127
90.84730158730159	91.02145124716553	77	127
90.84730158730159	91.16077097505669	39	127
91.02145124716553	91.16077097505669	75	127
91.02145124716553	91.16077097505669	79	127
91.18399092970522	91.4509977324263	41	127
91.18399092970522	91.35814058956916	77	127
91.18399092970522	91.35814058956916	74	127
91.18399092970522	91.4509977324263	58	127
91.4509977324263	91.64839002267574	57	127
91.4509977324263	91.64839002267574	75	127
91.4509977324263	91.64839002267574	72	127
91.4509977324263	91.64839002267574	60	127
91.64839002267574	91.76448979591837	62	127
91.64839002267574	91.76448979591837	74	127
91.64839002267574	91.76448979591837	70	127
91.64839002267574	91.76448979591837	58	127
91.77609977324263	91.93863945578231	36	127
91.77609977324263	91.93863945578231	82	127
91.77609977324263	91.93863945578231	75	127
91.77609977324263	91.93863945578231	48	127
91.77609977324263	91.93863945578231	55	127
91.77609977324263	91.93863945578231	43	127
92.01990929705215	92.22888888888889	43	127
92.01990929705215	92.13600907029479	84	127
92.01990929705215	92.22888888888889	55	127
92.01990929705215	92.22888888888889	36	127
92.01990929705215	92.22888888888889	76	127
92.01990929705215	92.22888888888889	48	127
92.13600907029479	92.22888888888889	82	127
92.22888888888889	92.31015873015873	81	127
92.31015873015873	92.84421768707483	48	127
92.31015873015873	92.47267573696145	82	127
92.31015873015873	92.84421768707483	76	127
92.31015873015873	92.84421768707483	79	127
92.31015873015873	92.84421768707483	55	127
92.31015873015873	92.84421768707483	36	127
92.31015873015873	92.84421768707483	43	127
92.58879818594104	92.68167800453514	84	127
92.68167800453514	92.76294784580499	82	127
92.76294784580499	92.84421768707483	81	127
92.84421768707483	93.02997732426304	48	127
92.84421768707483	93.02997732426304	55	127
92.84421768707483	93.02997732426304	43	127
92.84421768707483	93.02997732426304	36	127
92.84421768707483	93.02997732426304	82	127
92.84421768707483	93.02997732426304	75	127
93.12285714285714	93.32022675736961	36	127
93.12285714285714	93.32022675736961	48	127
93.12285714285714	93.32022675736961	55	127
93.12285714285714	93.21571428571428	84	127
93.12285714285714	93.32022675736961	43	127
93.12285714285714	93.32022675736961	76	127
93.21571428571428	93.32022675736961	82	127
93.32022675736961	93.40149659863945	81	127
93.40149659863945	94.06326530612245	36	127
93.40149659863945	93.66852607709751	82	127
93.40149659863945	94.06326530612245	76	127
93.40149659863945	94.06326530612245	79	127
93.40149659863945	94.06326530612245	48	127
93.40149659863945	94.06326530612245	55	127
93.40149659863945	94.06326530612245	43	127
93.76140589569161	93.86589569160998	84	127
93.86589569160998	93.95877551020408	82	127
93.95877551020408	94.06326530612245	81	127
94.06326530612245	94.22580498866213	48	127
94.06326530612245	94.22580498866213	55	127
94.06326530612245	94.22580498866213	43	127
94.06326530612245	94.22580498866213	36	127
94.06326530612245	94.22580498866213	82	127
94.06326530612245	94.22580498866213	75	127
94.31868480725623	94.5508843537415	43	127
94.31868480725623	94.4580045351474	84	127
94.31868480725623	94.5508843537415	55	127
94.31868480725623	94.5508843537415	36	127
94.31868480725623	94.5508843537415	76	127
94.31868480725623	94.5508843537415	48	127
94.4580045351474	94.5508843537415	82	127
94.5508843537415	94.63215419501134	81	127
94.63215419501134	95.18943310657596	79	127
94.63215419501134	94.84113378684808	82	127
94.63215419501134	95.18943310657596	76	127
94.63215419501134	95.18943310657596	48	127
94.63215419501134	95.18943310657596	55	127
94.63215419501134	95.18943310657596	36	127
94.63215419501134	95.18943310657596	43	127
94.94562358276644	95.02689342403629	84	127
95.02689342403629	95.10816326530612	82	127
95.10816326530612	95.18943310657596	81	127
95.18943310657596	95.45646258503402	38	127
95.18943310657596	95.45646258503402	82	127
95.18943310657596	95.45646258503402	70	127
95.18943310657596	95.45646258503402	53	127
95.46807256235827	95.72349206349206	55	127
95.46807256235827	95.59578231292517	81	127
95.46807256235827	95.72349206349206	39	127
95.46807256235827	95.72349206349206	70	127
95.60739229024944	95.72349206349206	79	127
95.72349206349206	95.96730158730159	41	127
95.72349206349206	95.897641723356	77	127
95.72349206349206	95.96730158730159	74	127
95.72349206349206	95.96730158730159	58	127
95.97891156462585	96.17628117913833	72	127
95.97891156462585	96.17628117913833	75	127
95.97891156462585	96.17628117913833	57	127
95.97891156462585	96.17628117913833	60	127
96.19950113378685	96.31560090702948	62	127
96.19950113378685	96.31560090702948	74	127
96.19950113378685	96.31560090702948	70	127
96.19950113378685	96.31560090702948	58	127
96.31560090702948	96.44331065759637	59	127
96.31560090702948	96.44331065759637	77	127
96.31560090702948	96.44331065759637	74	127
96.31560090702948	96.44331065759637	62	127
96.44331065759637	96.58263038548753	63	127
96.44331065759637	96.58263038548753	75	127
96.44331065759637	96.58263038548753	72	127
96.44331065759637	96.58263038548753	60	127
96.59424036281179	96.71034013605443	65	127
96.59424036281179	96.71034013605443	74	127
96.59424036281179	96.71034013605443	71	127
96.59424036281179	96.71034013605443	62	127
96.72195011337868	96.83804988662132	63	127
96.72195011337868	96.83804988662132	75	127
96.72195011337868	96.83804988662132	72	127
96.72195011337868	96.83804988662132	60	127
96.83804988662132	97.11668934240363	63	127
96.83804988662132	97.11668934240363	75	127
96.83804988662132	97.11668934240363	72	127
96.83804988662132	97.11668934240363	60	127
97.11668934240363	97.41854875283447	60	127
97.11668934240363	97.41854875283447	75	127
97.11668934240363	97.41854875283447	72	127
97.11668934240363	97.41854875283447	57	127
97.43015873015872	97.54625850340136	57	127
97.43015873015872	97.54625850340136	75	127
97.43015873015872	97.54625850340136	72	127
97.43015873015872	97.54625850340136	60	127
97.54625850340136	97.67396825396825	62	127
97.54625850340136	97.67396825396825	74	127
97.54625850340136	97.67396825396825	70	127
97.54625850340136	97.67396825396825	58	127
97.67396825396825	97.79006802721088	63	127
97.67396825396825	97.79006802721088	72	127
97.67396825396825	97.79006802721088	69	127
97.67396825396825	97.79006802721088	60	127
97.80167800453515	97.92938775510204	62	127
97.80167800453515	97.92938775510204	74	127
97.80167800453515	97.92938775510204	70	127
97.80167800453515	97.92938775510204	58	127
97.9409977324263	98.20802721088435	62	127
97.9409977324263	98.20802721088435	74	127
97.9409977324263	98.20802721088435	70	127
97.9409977324263	98.20802721088435	58	127
98.20802721088435	98.49827664399093	58	127
98.20802721088435	98.49827664399093	55	127
98.50988662131519	98.62598639455783	53	127
98.50988662131519	98.62598639455783	56	127
98.62598639455783	98.83496598639456	55	127
98.62598639455783	98.83496598639456	51	127
98.83496598639456	98.96267573696146	53	127
98.83496598639456	98.96267573696146	50	127
98.97428571428571	99.12521541950113	51	127
98.97428571428571	99.12521541950113	55	127
99.1368253968254	99.29936507936507	53	127
99.1368253968254	99.29936507936507	50	127
99.38063492063492	99.55478458049886	55	127
99.38063492063492	99.55478458049886	51	127
99.64766439909297	99.78698412698412	53	127
99.64766439909297	99.78698412698412	50	127
99.79859410430839	99.92630385487529	51	127
99.79859410430839	99.92630385487529	48	127
99.92630385487529	100.04240362811791	50	127
99.92630385487529	100.04240362811791	46	127
100.04240362811791	100.18172335600907	51	127
100.04240362811791	100.18172335600907	48	127
100.19333333333333	100.46036281179138	50	127
100.19333333333333	100.46036281179138	46	127
100.6112925170068	100.80866213151927	75	127
100.6112925170068	100.80866213151927	79	127
100.6112925170068	100.80866213151927	60	127
100.6112925170068	100.80866213151927	57	127
100.80866213151927	100.93637188208616	58	127
100.80866213151927	100.93637188208616	77	127
100.80866213151927	100.93637188208616	74	127
100.80866213151927	100.93637188208616	62	127
100.94798185941043	101.06408163265306	62	127
100.94798185941043	101.06408163265306	77	127
100.94798185941043	101.06408163265306	74	127
100.94798185941043	101.06408163265306	58	127
101.07569160997733	101.19179138321995	63	127
101.07569160997733	101.19179138321995	75	127
101.07569160997733	101.19179138321995	72	127
101.07569160997733	101.19179138321995	60	127
101.19179138321995	101.31950113378684	65	127
101.19179138321995	101.31950113378684	74	127
101.19179138321995	101.31950113378684	71	127
101.19179138321995	101.31950113378684	62	127
101.31950113378684	101.44721088435374	72	127
101.31950113378684	101.44721088435374	75	127
101.31950113378684	101.44721088435374	60	127
101.31950113378684	101.44721088435374	63	127
101.44721088435374	101.69102040816327	60	127
101.44721088435374	101.69102040816327	75	127
101.44721088435374	101.69102040816327	72	127
101.44721088435374	101.69102040816327	63	127
101.70263038548752	101.96965986394558	57	127
101.70263038548752	101.96965986394558	75	127
101.70263038548752	101.96965986394558	72	127
101.70263038548752	101.96965986394558	60	127
101.96965986394558	102.13219954648527	60	127
101.96965986394558	102.13219954648527	75	127
101.96965986394558	102.13219954648527	72	127
101.96965986394558	102.13219954648527	57	127
102.15541950113379	102.29473922902494	62	127
102.15541950113379	102.29473922902494	74	127
102.15541950113379	102.29473922902494	70	127
102.15541950113379	102.29473922902494	58	127
102.30634920634921	102.4340589569161	63	127
102.30634920634921	102.4340589569161	72	127
102.30634920634921	102.4340589569161	69	127
102.30634920634921	102.4340589569161	60	127
102.4340589569161	102.57337868480725	62	127
102.4340589569161	102.57337868480725	74	127
102.4340589569161	102.57337868480725	70	127
102.4340589569161	102.57337868480725	58	127
102.57337868480725	102.81718820861678	58	127
102.57337868480725	102.81718820861678	74	127
102.57337868480725	102.81718820861678	70	127
102.57337868480725	102.81718820861678	62	127
102.82879818594104	102.94489795918368	72	127
102.82879818594104	102.94489795918368	68	127
102.94489795918368	103.24675736961451	70	127
102.94489795918368	103.24675736961451	67	127
103.24675736961451	103.38607709750566	67	127
103.24675736961451	103.38607709750566	70	127
103.39768707482993	103.51378684807256	68	127
103.39768707482993	103.51378684807256	65	127
103.52539682539683	103.68793650793651	67	127
103.52539682539683	103.68793650793651	64	127
103.68793650793651	103.83886621315193	68	127
103.68793650793651	103.83886621315193	65	127
103.83886621315193	104.1291156462585	68	127
103.83886621315193	104.1291156462585	65	127
104.14072562358277	104.48902494331065	68	127
104.14072562358277	104.48902494331065	65	127
104.48902494331065	104.61673469387755	68	127
104.48902494331065	104.61673469387755	65	127
104.61673469387755	104.73283446712018	67	127
104.61673469387755	104.73283446712018	63	127
104.75605442176871	104.87215419501133	65	127
104.75605442176871	104.87215419501133	62	127
104.8837641723356	105.0114739229025	67	127
104.8837641723356	105.0114739229025	63	127
105.0114739229025	105.25528344671201	67	127
105.0114739229025	105.25528344671201	63	127
105.26689342403628	105.56875283446712	87	127
105.26689342403628	105.56875283446712	84	127
105.58036281179139	105.69646258503401	86	127
105.58036281179139	105.69646258503401	82	127
105.70807256235828	105.8241723356009	80	127
105.70807256235828	105.8241723356009	84	127
105.83578231292518	105.96349206349207	82	127
105.83578231292518	105.96349206349207	79	127
105.97510204081632	106.09120181405896	84	127
105.97510204081632	106.09120181405896	80	127
106.10281179138322	106.27696145124716	82	127
106.10281179138322	106.27696145124716	79	127
106.34662131519275	106.53238095238095	84	127
106.34662131519275	106.53238095238095	80	127
106.60204081632654	106.78780045351473	82	127
106.60204081632654	106.78780045351473	79	127
106.78780045351473	106.91551020408163	80	127
106.78780045351473	106.91551020408163	77	127
106.91551020408163	107.06643990929705	79	127
106.91551020408163	107.06643990929705	75	127
107.06643990929705	107.20575963718821	80	127
107.06643990929705	107.20575963718821	77	127
107.20575963718821	107.4263492063492	79	127
107.20575963718821	107.4263492063492	75	127
107.49600907029479	107.62371882086168	84	127
107.49600907029479	107.62371882086168	80	127
107.49600907029479	107.68176870748299	67	127
107.49600907029479	107.68176870748299	63	127
107.62371882086168	107.75142857142858	79	127
107.62371882086168	107.75142857142858	82	127
107.75142857142858	107.89074829931972	63	127
107.75142857142858	107.89074829931972	82	127
107.75142857142858	107.89074829931972	79	127
107.75142857142858	107.89074829931972	60	127
107.902358276644	108.01845804988662	65	127
107.902358276644	108.01845804988662	80	127
107.902358276644	108.01845804988662	77	127
107.902358276644	108.01845804988662	62	127
108.03006802721089	108.16938775510204	79	127
108.03006802721089	108.16938775510204	76	127
108.1809977324263	108.3087074829932	80	127
108.1809977324263	108.3087074829932	77	127
108.32031746031745	108.61056689342404	80	127
108.32031746031745	108.61056689342404	77	127
108.68022675736961	108.85437641723357	77	127
108.68022675736961	108.85437641723357	80	127
108.92403628117914	109.06335600907029	80	127
108.92403628117914	109.06335600907029	77	127
108.92403628117914	109.06335600907029	65	127
108.92403628117914	109.06335600907029	62	127
109.07496598639456	109.19106575963718	79	127
109.07496598639456	109.19106575963718	75	127
109.07496598639456	109.19106575963718	67	127
109.07496598639456	109.19106575963718	63	127
109.19106575963718	109.36521541950114	74	127
109.19106575963718	109.36521541950114	78	127
109.36521541950114	109.49292517006803	79	127
109.36521541950114	109.49292517006803	75	127
109.49292517006803	109.6902947845805	79	127
109.49292517006803	109.6902947845805	75	127
109.75995464852608	109.95732426303854	79	127
109.75995464852608	109.95732426303854	75	127
110.02698412698413	110.16630385487528	63	127
110.02698412698413	110.16630385487528	80	127
110.02698412698413	110.16630385487528	77	127
110.02698412698413	110.16630385487528	59	127
110.17791383219955	110.29401360544217	67	127
110.17791383219955	110.29401360544217	79	127
110.17791383219955	110.29401360544217	75	127
110.17791383219955	110.29401360544217	63	127
110.30562358276644	110.45655328798186	74	127
110.30562358276644	110.45655328798186	78	127
110.45655328798186	110.58426303854876	79	127
110.45655328798186	110.58426303854876	75	127
110.58426303854876	110.78163265306122	79	127
110.58426303854876	110.78163265306122	75	127
110.8512925170068	111.03705215419501	79	127
110.8512925170068	111.03705215419501	75	127
111.10671201814058	111.23442176870748	77	127
111.10671201814058	111.23442176870748	55	127
111.10671201814058	111.23442176870748	80	127
111.10671201814058	111.23442176870748	59	127
111.23442176870748	111.43179138321996	75	127
111.23442176870748	111.43179138321996	59	127
111.23442176870748	111.43179138321996	79	127
111.23442176870748	111.43179138321996	63	127
111.44340136054421	111.57111111111111	74	127
111.44340136054421	111.57111111111111	78	127
111.57111111111111	111.698820861678	79	127
111.57111111111111	111.698820861678	75	127
111.698820861678	111.89619047619047	79	127
111.698820861678	111.89619047619047	75	127
111.96585034013606	112.16321995464853	75	127
111.96585034013606	112.16321995464853	79	127
112.2328798185941	112.360589569161	80	127
112.2328798185941	112.360589569161	77	127
112.2328798185941	112.360589569161	55	127
112.2328798185941	112.360589569161	51	127
112.37219954648526	112.5463492063492	59	127
112.37219954648526	112.5463492063492	55	127
112.37219954648526	112.5463492063492	79	127
112.37219954648526	112.5463492063492	75	127
112.5463492063492	112.74371882086167	74	127
112.5463492063492	112.74371882086167	78	127
112.75532879818594	112.88303854875284	79	127
112.75532879818594	112.88303854875284	75	127
112.88303854875284	113.06879818594105	75	127
112.88303854875284	113.06879818594105	79	127
113.13845804988662	113.25455782312925	79	127
113.13845804988662	113.25455782312925	75	127
113.31260770975057	113.44031746031746	77	127
113.31260770975057	113.44031746031746	47	127
113.31260770975057	113.44031746031746	80	127
113.31260770975057	113.44031746031746	51	127
113.45192743764173	113.59124716553288	51	127
113.45192743764173	113.59124716553288	79	127
113.45192743764173	113.59124716553288	75	127
113.45192743764173	113.59124716553288	55	127
113.59124716553288	113.77700680272109	78	127
113.59124716553288	113.77700680272109	74	127
113.77700680272109	113.92793650793651	79	127
113.77700680272109	113.92793650793651	75	127
113.93954648526078	114.06725623582767	48	127
113.93954648526078	114.13691609977325	75	127
113.93954648526078	114.06725623582767	51	127
113.93954648526078	114.13691609977325	79	127
114.07886621315193	114.21818594104309	51	127
114.07886621315193	114.21818594104309	55	127
114.21818594104309	114.52004535147393	79	127
114.21818594104309	114.52004535147393	75	127
114.69419501133787	114.96122448979592	67	127
114.69419501133787	114.96122448979592	43	127
114.69419501133787	114.96122448979592	67	127
114.69419501133787	114.96122448979592	55	127
114.69419501133787	114.96122448979592	55	127
115.05410430839002	115.29791383219954	79	127
115.05410430839002	115.29791383219954	67	127
115.05410430839002	115.29791383219954	55	127
115.05410430839002	115.29791383219954	67	127
115.69265306122449	116.52857142857142	68	127
115.69265306122449	116.52857142857142	80	127
115.69265306122449	116.52857142857142	68	127
115.69265306122449	116.52857142857142	56	127
116.52857142857142	116.84204081632653	65	127
116.52857142857142	116.84204081632653	65	127
116.52857142857142	116.84204081632653	53	127
116.52857142857142	116.84204081632653	77	127
116.84204081632653	117.08585034013605	74	127
116.84204081632653	117.08585034013605	62	127
116.84204081632653	117.08585034013605	50	127
116.84204081632653	117.08585034013605	62	127
117.09746031746032	117.3877097505669	75	127
117.09746031746032	117.3877097505669	63	127
117.09746031746032	117.3877097505669	51	127
117.09746031746032	117.3877097505669	63	127
117.3877097505669	117.65473922902494	71	127
117.3877097505669	117.65473922902494	59	127
117.3877097505669	117.65473922902494	47	127
117.3877097505669	117.65473922902494	59	127
117.67795918367347	117.93337868480725	72	127
117.67795918367347	117.93337868480725	48	127
117.67795918367347	117.93337868480725	60	127
117.67795918367347	117.93337868480725	60	127
117.93337868480725	118.27006802721088	57	127
117.93337868480725	118.27006802721088	69	127
117.93337868480725	118.27006802721088	57	127
117.93337868480725	118.27006802721088	45	127
118.28167800453515	118.61836734693877	58	127
118.28167800453515	118.61836734693877	58	127
118.28167800453515	118.61836734693877	46	127
118.28167800453515	118.61836734693877	70	127
118.61836734693877	118.88539682539682	67	127
118.61836734693877	118.88539682539682	55	127
118.61836734693877	118.88539682539682	43	127
118.61836734693877	118.88539682539682	55	127
118.8970068027211	119.16403628117914	68	127
118.8970068027211	119.16403628117914	56	127
118.8970068027211	119.16403628117914	44	127
118.8970068027211	119.16403628117914	56	127
119.16403628117914	119.40784580498867	65	127
119.16403628117914	119.40784580498867	41	127
119.16403628117914	119.40784580498867	53	127
119.41945578231292	119.7097052154195	46	127
119.41945578231292	119.7097052154195	70	127
119.41945578231292	119.7097052154195	58	127
119.7097052154195	120.01156462585034	41	127
119.7097052154195	120.01156462585034	53	127
119.7097052154195	120.01156462585034	65	127
120.02317460317461	120.31342403628118	67	127
120.02317460317461	120.31342403628118	55	127
120.02317460317461	120.31342403628118	43	127
120.31342403628118	121.48603174603174	39	127
120.31342403628118	120.65011337868481	51	127
120.31342403628118	120.65011337868481	63	127
120.66172335600908	120.94036281179139	77	127
120.66172335600908	120.94036281179139	56	127
120.94036281179139	121.24222222222222	56	127
120.94036281179139	121.24222222222222	72	127
121.24222222222222	121.48603174603174	74	127
121.24222222222222	121.48603174603174	58	127
121.49764172335601	123.74997732426304	51	127
121.49764172335601	121.74145124716553	70	127
121.49764172335601	121.74145124716553	55	127
121.74145124716553	121.99687074829932	67	127
121.74145124716553	121.99687074829932	75	127
122.00848072562358	122.26390022675737	71	127
122.00848072562358	122.26390022675737	67	127
122.26390022675737	122.53092970521541	68	127
122.26390022675737	122.53092970521541	72	127
122.54253968253968	122.86761904761904	68	127
122.54253968253968	122.86761904761904	60	127
122.86761904761904	123.21591836734694	74	127
122.86761904761904	123.21591836734694	58	127
122.86761904761904	123.21591836734694	67	127
123.2275283446712	123.74997732426304	62	127
123.2275283446712	124.1098866213152	67	127
123.2275283446712	123.49455782312926	69	127
123.49455782312926	123.74997732426304	70	127
123.7615873015873	125.30571428571429	60	127
123.7615873015873	124.1098866213152	67	127
123.7615873015873	124.41174603174603	52	127
124.1098866213152	124.41174603174603	55	127
124.1098866213152	124.41174603174603	72	127
124.42335600907029	125.30571428571429	53	127
124.42335600907029	124.7368253968254	67	127
124.42335600907029	124.7368253968254	58	127
124.7368253968254	125.00385487528345	60	127
124.7368253968254	125.00385487528345	68	127
125.0154648526077	125.30571428571429	65	127
125.0154648526077	125.30571428571429	56	127
125.30571428571429	125.57274376417233	73	127
125.30571428571429	125.57274376417233	80	127
125.30571428571429	125.57274376417233	53	127
125.30571428571429	125.88621315192744	77	127
125.57274376417233	125.80494331065759	60	127
125.57274376417233	125.88621315192744	80	127
125.57274376417233	125.80494331065759	71	127
125.90943310657596	126.07197278911565	76	127
125.90943310657596	126.07197278911565	79	127
125.90943310657596	126.07197278911565	72	127
125.90943310657596	126.07197278911565	60	127
126.16485260770975	126.33900226757369	79	127
126.16485260770975	126.33900226757369	72	127
126.16485260770975	126.33900226757369	60	127
126.16485260770975	126.33900226757369	76	127
126.44349206349206	126.62925170068027	79	127
126.44349206349206	126.62925170068027	72	127
126.44349206349206	126.62925170068027	60	127
126.44349206349206	126.62925170068027	76	127
126.74535147392291	126.90789115646258	79	127
126.74535147392291	126.90789115646258	72	127
126.74535147392291	126.90789115646258	67	127
126.74535147392291	126.90789115646258	76	127
127.0007709750567	127.16331065759637	79	127
127.0007709750567	127.16331065759637	72	127
127.0007709750567	127.16331065759637	67	127
127.0007709750567	127.16331065759637	84	127
127.0007709750567	127.16331065759637	76	127
127.24458049886621	127.41873015873016	79	127
127.24458049886621	127.41873015873016	72	127
127.24458049886621	127.41873015873016	67	127
127.24458049886621	127.41873015873016	84	127
127.24458049886621	127.41873015873016	76	127
127.5	127.66253968253969	79	127
127.5	127.66253968253969	67	127
127.5	127.66253968253969	72	127
127.5	127.66253968253969	84	127
127.5	127.66253968253969	76	127
127.77863945578231	127.96439909297052	72	127
127.77863945578231	127.96439909297052	76	127
127.77863945578231	127.96439909297052	79	127
127.77863945578231	127.96439909297052	67	127
127.77863945578231	128.0688888888889	84	127
128.09208616780046	128.35913832199546	72	127
128.09208616780046	128.35913832199546	79	127
128.09208616780046	128.35913832199546	76	127
128.09208616780046	128.3126984126984	86	127
128.09208616780046	128.35913832199546	67	127
128.32430839002268	128.46362811791383	88	127
128.46362811791383	128.63777777777779	74	127
128.46362811791383	128.63777777777779	89	127
128.46362811791383	128.63777777777779	79	127
128.46362811791383	128.63777777777779	72	127
128.46362811791383	128.63777777777779	67	127
128.74226757369615	128.91641723356008	79	127
128.74226757369615	128.91641723356008	72	127
128.74226757369615	128.91641723356008	67	127
128.74226757369615	128.91641723356008	88	127
128.74226757369615	128.91641723356008	72	127
128.99768707482994	129.18344671201814	93	127
128.99768707482994	129.18344671201814	72	127
128.99768707482994	129.18344671201814	67	127
128.99768707482994	129.18344671201814	77	127
129.34598639455783	129.5433560090703	91	127
129.34598639455783	129.5433560090703	72	127
129.34598639455783	129.5433560090703	67	127
129.34598639455783	129.5433560090703	76	127
129.62460317460318	129.79877551020408	89	127
129.62460317460318	129.79877551020408	67	127
129.62460317460318	129.79877551020408	74	127
129.62460317460318	129.79877551020408	83	127
129.88002267573697	130.03095238095239	84	127
129.88002267573697	130.03095238095239	88	127
129.88002267573697	130.03095238095239	72	127
129.88002267573697	130.03095238095239	67	127
130.12385487528346	130.28637188208617	83	127
130.12385487528346	130.28637188208617	74	127
130.12385487528346	130.28637188208617	67	127
130.12385487528346	130.28637188208617	86	127
130.36766439909297	130.53020408163266	84	127
130.36766439909297	130.53020408163266	69	127
130.36766439909297	130.53020408163266	67	127
130.36766439909297	130.53020408163266	79	127
130.62308390022676	130.78562358276645	86	127
130.62308390022676	130.78562358276645	67	127
130.62308390022676	130.78562358276645	71	127
130.62308390022676	130.78562358276645	79	127
130.87850340136055	131.1107029478458	67	127
130.87850340136055	131.1107029478458	79	127
130.87850340136055	131.1107029478458	74	127
131.21519274376416	131.4241723356009	36	127
131.21519274376416	131.4241723356009	75	127
131.21519274376416	131.4241723356009	67	127
131.21519274376416	131.4241723356009	79	127
131.21519274376416	131.4241723356009	48	127
131.50544217687076	131.7144217687075	67	127
131.50544217687076	131.7144217687075	79	127
131.50544217687076	131.7144217687075	48	127
131.50544217687076	131.7144217687075	36	127
131.77244897959184	131.96984126984128	65	127
131.77244897959184	131.96984126984128	48	127
131.77244897959184	131.96984126984128	36	127
131.77244897959184	131.96984126984128	77	127
132.03950113378684	132.24848072562358	75	127
132.03950113378684	132.24848072562358	36	127
132.03950113378684	132.24848072562358	48	127
132.03950113378684	132.24848072562358	63	127
132.31814058956917	132.50390022675737	74	127
132.31814058956917	132.50390022675737	62	127
132.57356009070295	132.77092970521542	72	127
132.57356009070295	132.77092970521542	60	127
132.8754195011338	133.061179138322	70	127
132.8754195011338	133.061179138322	41	127
132.8754195011338	133.061179138322	53	127
132.8754195011338	133.061179138322	58	127
133.13083900226758	133.30496598639456	41	127
133.13083900226758	133.30496598639456	72	127
133.13083900226758	133.30496598639456	60	127
133.13083900226758	133.30496598639456	51	127
133.3746485260771	133.5952380952381	44	127
133.3746485260771	133.5952380952381	72	127
133.3746485260771	133.5952380952381	60	127
133.3746485260771	133.5952380952381	56	127
133.6881179138322	133.9202947845805	84	127
133.6881179138322	133.9202947845805	43	127
133.6881179138322	133.9202947845805	55	127
133.6881179138322	133.9202947845805	72	127
134.01319727891158	134.22215419501134	41	127
134.01319727891158	134.22215419501134	84	127
134.01319727891158	134.22215419501134	72	127
134.01319727891158	134.22215419501134	53	127
134.30344671201814	134.48920634920634	84	127
134.30344671201814	134.48920634920634	39	127
134.30344671201814	134.48920634920634	51	127
134.30344671201814	134.48920634920634	72	127
134.55886621315193	134.81428571428572	84	127
134.55886621315193	134.81428571428572	72	127
134.55886621315193	134.7330158730159	50	127
134.55886621315193	134.7330158730159	38	127
134.81428571428572	135.04646258503402	48	127
134.81428571428572	134.98843537414967	74	127
134.81428571428572	135.04646258503402	36	127
134.81428571428572	134.98843537414967	86	127
134.98843537414967	135.10453514739228	87	127
134.98843537414967	135.10453514739228	75	127
135.11614512471655	135.27868480725624	77	127
135.11614512471655	135.27868480725624	89	127
135.11614512471655	135.3018820861678	50	127
135.11614512471655	135.3018820861678	47	127
135.39478458049888	135.5689342403628	87	127
135.39478458049888	135.58054421768708	48	127
135.39478458049888	135.58054421768708	51	127
135.39478458049888	135.5689342403628	75	127
135.71986394557823	135.90562358276645	43	127
135.71986394557823	135.8824036281179	87	127
135.71986394557823	135.8824036281179	75	127
135.71986394557823	135.90562358276645	55	127
135.975283446712	136.16104308390024	86	127
135.975283446712	136.16104308390024	74	127
135.975283446712	136.17265306122448	67	127
135.975283446712	136.17265306122448	55	127
136.25392290249434	136.46290249433108	43	127
136.25392290249434	136.31197278911566	86	127
136.25392290249434	136.31197278911566	74	127
136.25392290249434	136.46290249433108	55	127
136.31197278911566	136.46290249433108	72	127
136.31197278911566	136.46290249433108	84	127
136.5209523809524	136.69510204081632	83	127
136.5209523809524	136.69510204081632	71	127
136.5209523809524	136.7067120181406	55	127
136.5209523809524	136.7067120181406	43	127
136.77637188208618	137.05501133786848	43	127
136.77637188208618	136.83439909297053	83	127
136.77637188208618	136.83439909297053	71	127
136.77637188208618	137.05501133786848	55	127
136.83439909297053	136.99696145124716	68	127
136.83439909297053	136.99696145124716	80	127
137.06662131519275	137.1827210884354	57	127
137.06662131519275	137.1827210884354	45	127
137.06662131519275	137.22916099773244	79	127
137.06662131519275	137.22916099773244	67	127
137.1827210884354	137.32204081632653	47	127
137.1827210884354	137.32204081632653	59	127
137.32204081632653	137.50780045351473	60	127
137.32204081632653	137.50780045351473	48	127
137.32204081632653	137.50780045351473	78	127
137.32204081632653	137.50780045351473	66	127
137.6006575963719	137.76321995464852	47	127
137.6006575963719	137.76321995464852	79	127
137.6006575963719	137.76321995464852	67	127
137.6006575963719	137.76321995464852	59	127
137.85607709750568	138.0186394557823	51	127
137.85607709750568	138.0186394557823	79	127
137.85607709750568	138.0186394557823	67	127
137.85607709750568	138.0186394557823	63	127
138.13473922902494	138.29727891156463	79	127
138.13473922902494	138.29727891156463	67	127
138.13473922902494	138.29727891156463	62	127
138.13473922902494	138.29727891156463	50	127
138.37854875283446	138.47142857142856	50	127
138.37854875283446	138.57591836734693	67	127
138.37854875283446	138.47142857142856	62	127
138.37854875283446	138.57591836734693	79	127
138.47142857142856	138.5875283446712	60	127
138.47142857142856	138.5875283446712	48	127
138.66879818594106	138.86616780045352	47	127
138.66879818594106	138.86616780045352	79	127
138.66879818594106	138.86616780045352	67	127
138.66879818594106	138.86616780045352	59	127
138.9822448979592	139.05192743764172	59	127
138.9822448979592	139.05192743764172	47	127
138.9822448979592	139.23766439909298	79	127
138.9822448979592	139.23766439909298	67	127
139.05192743764172	139.17963718820863	57	127
139.05192743764172	139.17963718820863	45	127
139.2492970521542	139.43505668934242	55	127
139.2492970521542	139.43505668934242	43	127
139.2492970521542	139.3885941043084	81	127
139.2492970521542	139.3885941043084	69	127
139.4002267573696	139.51632653061225	71	127
139.4002267573696	139.51632653061225	83	127
139.51632653061225	139.6904761904762	42	127
139.51632653061225	139.6904761904762	84	127
139.51632653061225	139.6904761904762	72	127
139.51632653061225	139.6904761904762	54	127
139.77174603174603	139.93428571428572	83	127
139.77174603174603	139.93428571428572	71	127
139.77174603174603	139.93428571428572	55	127
139.77174603174603	139.93428571428572	43	127
140.01555555555555	140.25934240362812	71	127
140.01555555555555	140.1897052154195	63	127
140.01555555555555	140.1897052154195	51	127
140.01555555555555	140.25934240362812	83	127
140.27097505668934	140.43351473922903	50	127
140.27097505668934	140.43351473922903	62	127
140.27097505668934	140.38707482993198	84	127
140.27097505668934	140.38707482993198	72	127
140.39868480725625	140.52639455782312	86	127
140.39868480725625	140.52639455782312	74	127
140.52639455782312	140.71215419501135	87	127
140.52639455782312	140.5960544217687	62	127
140.52639455782312	140.5960544217687	50	127
140.52639455782312	140.71215419501135	75	127
140.5960544217687	140.7237641723356	60	127
140.5960544217687	140.7237641723356	48	127
140.82825396825396	141.0372335600907	47	127
140.82825396825396	141.0372335600907	86	127
140.82825396825396	141.0372335600907	74	127
140.82825396825396	141.0372335600907	59	127
141.15333333333334	141.33909297052153	56	127
141.15333333333334	141.4203628117914	74	127
141.15333333333334	141.4203628117914	86	127
141.15333333333334	141.33909297052153	44	127
141.4319501133787	141.54807256235827	75	127
141.4319501133787	141.59451247165532	43	127
141.4319501133787	141.54807256235827	87	127
141.4319501133787	141.59451247165532	55	127
141.55968253968254	141.68736961451248	89	127
141.55968253968254	141.68736961451248	77	127
141.68736961451248	141.86154195011338	79	127
141.68736961451248	141.86154195011338	91	127
141.68736961451248	141.86154195011338	53	127
141.68736961451248	141.86154195011338	41	127
141.95442176870748	142.18662131519275	71	127
141.95442176870748	142.18662131519275	38	127
141.95442176870748	142.18662131519275	50	127
141.95442176870748	142.18662131519275	59	127
142.30269841269842	142.813537414966	63	127
142.30269841269842	142.44204081632654	72	127
142.30269841269842	142.4884807256236	72	127
142.44204081632654	142.56975056689342	79	127
142.56975056689342	142.68585034013606	75	127
142.56975056689342	142.7322902494331	72	127
142.69746031746033	142.813537414966	72	127
142.8251700680272	143.24312925170068	65	127
142.8251700680272	142.9644671201814	72	127
142.8251700680272	143.24312925170068	80	127
143.01092970521543	143.16185941043085	72	127
143.24312925170068	143.8004081632653	63	127
143.24312925170068	143.55659863945579	72	127
143.24312925170068	143.35922902494332	72	127
143.35922902494332	143.55659863945579	79	127
143.55659863945579	143.68428571428572	74	127
143.55659863945579	143.68428571428572	75	127
143.68428571428572	143.8004081632653	72	127
143.68428571428572	143.8004081632653	75	127
143.81201814058957	144.40412698412698	79	127
143.81201814058957	143.98614512471656	77	127
143.81201814058957	144.40412698412698	60	127
144.16031746031746	144.33446712018142	75	127
144.41573696145124	144.53183673469388	67	127
144.41573696145124	144.57827664399093	55	127
144.41573696145124	144.9381859410431	71	127
144.54344671201815	144.67115646258503	74	127
144.67115646258503	144.81047619047618	71	127
144.67115646258503	144.8568934240363	55	127
144.81047619047618	144.9381859410431	67	127
144.94979591836736	145.4954648526077	75	127
144.94979591836736	145.4954648526077	72	127
144.94979591836736	145.1239455782313	55	127
145.21680272108844	145.41419501133788	55	127
145.50707482993198	145.66961451247167	67	127
145.50707482993198	145.8437641723356	55	127
145.50707482993198	146.09918367346938	71	127
145.50707482993198	145.72764172335602	79	127
145.6812244897959	145.8437641723356	74	127
145.8437641723356	145.9714739229025	57	127
145.8437641723356	145.9714739229025	71	127
145.8437641723356	146.01791383219955	79	127
145.9714739229025	146.09918367346938	67	127
145.9714739229025	146.09918367346938	59	127
146.09918367346938	146.33138321995466	79	127
146.09918367346938	146.33138321995466	60	127
146.09918367346938	146.71451247165533	67	127
146.09918367346938	146.71451247165533	74	127
146.42426303854876	146.62163265306123	59	127
146.42426303854876	146.62163265306123	79	127
146.71451247165533	146.92349206349206	84	127
146.71451247165533	147.2950113378685	46	127
146.71451247165533	146.92349206349206	76	127
146.71451247165533	146.877052154195	60	127
146.88866213151928	147.00473922902495	67	127
147.01637188208616	147.2021315192744	84	127
147.01637188208616	147.2021315192744	72	127
147.01637188208616	147.2021315192744	67	127
147.01637188208616	147.1324716553288	64	127
147.1324716553288	147.2950113378685	60	127
147.2950113378685	147.6084807256236	84	127
147.2950113378685	147.6084807256236	72	127
147.2950113378685	147.96839002267575	68	127
147.2950113378685	147.96839002267575	48	127
147.2950113378685	147.6084807256236	65	127
147.7245804988662	147.8871201814059	84	127
147.7245804988662	147.8871201814059	72	127
147.7245804988662	147.8871201814059	65	127
147.96839002267575	148.11931972789117	60	127
147.96839002267575	148.16575963718822	64	127
147.96839002267575	148.50244897959183	46	127
147.96839002267575	148.16575963718822	72	127
147.96839002267575	148.23541950113378	84	127
148.11931972789117	148.23541950113378	67	127
148.24702947845805	148.421179138322	48	127
148.24702947845805	148.37473922902495	86	127
148.24702947845805	148.37473922902495	64	127
148.24702947845805	148.421179138322	60	127
148.37473922902495	148.50244897959183	60	127
148.37473922902495	148.50244897959183	88	127
148.50244897959183	149.03650793650795	67	127
148.50244897959183	149.03650793650795	43	127
148.50244897959183	148.6998185941043	89	127
148.50244897959183	148.6998185941043	60	127
148.50244897959183	148.6998185941043	48	127
148.50244897959183	149.03650793650795	70	127
148.79267573696146	148.9552380952381	48	127
148.79267573696146	148.9552380952381	88	127
148.79267573696146	148.9552380952381	60	127
149.03650793650795	149.21065759637187	89	127
149.03650793650795	149.21065759637187	48	127
149.03650793650795	149.21065759637187	60	127
149.03650793650795	149.21065759637187	68	127
149.03650793650795	149.16421768707482	41	127
149.16421768707482	149.44285714285715	48	127
149.45446712018142	149.6518367346939	72	127
149.45446712018142	149.6518367346939	48	127
149.45446712018142	149.6518367346939	60	127
149.45446712018142	149.6518367346939	77	127
149.45446712018142	149.60539682539684	44	127
149.45446712018142	149.6518367346939	89	127
149.61700680272108	149.744716553288	41	127
149.744716553288	149.97691609977323	91	127
149.744716553288	149.97691609977323	76	127
149.744716553288	153.5760090702948	46	127
149.744716553288	149.97691609977323	72	127
149.744716553288	149.93047619047618	48	127
149.93047619047618	150.0581859410431	55	127
150.0697732426304	150.23233560090702	91	127
150.0697732426304	150.23233560090702	76	127
150.0697732426304	150.23233560090702	72	127
150.0697732426304	150.18589569160997	52	127
150.19750566893424	150.32519274376418	48	127
150.32519274376418	150.51097505668935	91	127
150.32519274376418	150.51097505668935	76	127
150.32519274376418	150.51097505668935	72	127
150.32519274376418	150.45292517006803	52	127
150.45292517006803	150.59224489795918	60	127
150.59224489795918	150.8012244897959	72	127
150.59224489795918	150.75478458049886	55	127
150.59224489795918	150.8012244897959	91	127
150.59224489795918	150.8012244897959	76	127
150.76639455782313	150.88249433106577	52	127
150.89410430839	151.06825396825397	72	127
150.89410430839	151.06825396825397	76	127
150.89410430839	151.02181405895692	55	127
150.89410430839	151.06825396825397	91	127
151.02181405895692	151.1495238095238	64	127
151.1495238095238	151.3120634920635	91	127
151.1495238095238	151.3120634920635	76	127
151.1495238095238	151.3120634920635	72	127
151.1495238095238	151.26562358276644	60	127
151.2772335600907	151.4049433106576	55	127
151.41655328798186	151.57909297052154	72	127
151.41655328798186	151.5326530612245	60	127
151.41655328798186	151.57909297052154	76	127
151.41655328798186	151.5326530612245	64	127
151.5326530612245	151.66036281179137	72	127
151.5326530612245	151.66036281179137	67	127
151.66036281179137	151.82290249433106	76	127
151.66036281179137	151.776462585034	67	127
151.66036281179137	151.776462585034	64	127
151.66036281179137	151.82290249433106	72	127
151.78807256235828	151.92739229024943	64	127
151.78807256235828	151.92739229024943	60	127
151.9390022675737	152.1015419501134	72	127
151.9390022675737	152.05510204081634	64	127
151.9390022675737	152.1015419501134	76	127
151.9390022675737	152.05510204081634	67	127
152.05510204081634	152.18281179138322	76	127
152.05510204081634	152.18281179138322	72	127
152.18281179138322	152.35696145124717	72	127
152.18281179138322	152.31052154195012	67	127
152.18281179138322	152.35696145124717	76	127
152.18281179138322	152.31052154195012	72	127
152.31052154195012	152.4265986394558	67	127
152.31052154195012	152.4265986394558	64	127
152.438231292517	152.61238095238096	72	127
152.438231292517	152.5659410430839	67	127
152.438231292517	152.61238095238096	76	127
152.438231292517	152.5659410430839	72	127
152.5659410430839	152.70526077097506	76	127
152.5659410430839	152.70526077097506	79	127
152.70526077097506	152.89102040816326	72	127
152.70526077097506	152.8445804988662	76	127
152.70526077097506	152.8445804988662	72	127
152.70526077097506	152.89102040816326	76	127
152.8445804988662	152.9838775510204	72	127
152.8445804988662	152.9838775510204	67	127
152.99551020408163	153.14643990929704	64	127
152.99551020408163	153.14643990929704	76	127
152.99551020408163	153.19285714285715	72	127
152.99551020408163	153.19285714285715	76	127
153.1580498866213	153.29736961451246	91	127
153.1580498866213	153.29736961451246	60	127
153.29736961451246	153.5063492063492	72	127
153.29736961451246	153.45990929705215	55	127
153.29736961451246	153.5063492063492	76	127
153.29736961451246	153.45990929705215	88	127
153.45990929705215	153.5760090702948	52	127
153.45990929705215	153.5760090702948	84	127
153.59920634920636	153.761768707483	72	127
153.59920634920636	153.761768707483	57	127
153.59920634920636	153.761768707483	77	127
153.59920634920636	153.761768707483	48	127
153.59920634920636	153.71532879818594	41	127
153.59920634920636	153.761768707483	89	127
153.7269387755102	153.84303854875284	48	127
153.84303854875284	154.01718820861677	72	127
153.84303854875284	153.97074829931972	45	127
153.84303854875284	154.01718820861677	89	127
153.84303854875284	154.01718820861677	77	127
153.84303854875284	154.01718820861677	48	127
153.84303854875284	154.01718820861677	60	127
153.97074829931972	154.08684807256236	41	127
154.11004535147393	154.2958276643991	76	127
154.11004535147393	154.2958276643991	72	127
154.11004535147393	158.01102040816326	46	127
154.11004535147393	154.2958276643991	91	127
154.11004535147393	154.2261678004535	48	127
154.23777777777778	154.40031746031747	55	127
154.40031746031747	154.59768707482993	91	127
154.40031746031747	154.59768707482993	76	127
154.40031746031747	154.59768707482993	72	127
154.40031746031747	154.53963718820862	52	127
154.53963718820862	154.67895691609976	48	127
154.67895691609976	154.85310657596372	76	127
154.67895691609976	154.7950566893424	52	127
154.67895691609976	154.85310657596372	91	127
154.67895691609976	154.85310657596372	72	127
154.80666666666667	154.94598639455782	60	127
154.9575963718821	155.2014058956916	72	127
154.9575963718821	155.2014058956916	76	127
154.9575963718821	155.2014058956916	91	127
154.9575963718821	155.15496598639456	55	127
155.15496598639456	155.28267573696147	52	127
155.28267573696147	155.49163265306123	91	127
155.28267573696147	155.44521541950112	55	127
155.28267573696147	155.49163265306123	72	127
155.28267573696147	155.49163265306123	76	127
155.4568253968254	155.59614512471654	64	127
155.6077551020408	155.79351473922904	72	127
155.6077551020408	155.79351473922904	76	127
155.6077551020408	155.72385487528345	60	127
155.6077551020408	155.79351473922904	91	127
155.72385487528345	155.87478458049887	55	127
155.87478458049887	156.07215419501134	72	127
155.87478458049887	156.0257142857143	60	127
155.87478458049887	156.07215419501134	76	127
155.87478458049887	156.0257142857143	64	127
156.03732426303856	156.15340136054422	72	127
156.03732426303856	156.15340136054422	67	127
156.16503401360544	156.28113378684807	64	127
156.16503401360544	156.32757369614512	76	127
156.16503401360544	156.32757369614512	72	127
156.16503401360544	156.28113378684807	67	127
156.28113378684807	156.3972335600907	64	127
156.28113378684807	156.3972335600907	60	127
156.3972335600907	156.57138321995464	72	127
156.3972335600907	156.5249433106576	67	127
156.3972335600907	156.5249433106576	64	127
156.3972335600907	156.57138321995464	76	127
156.5249433106576	156.6526530612245	72	127
156.5249433106576	156.6526530612245	76	127
156.6642403628118	156.80358276643992	67	127
156.6642403628118	156.85002267573697	76	127
156.6642403628118	156.80358276643992	72	127
156.6642403628118	156.85002267573697	72	127
156.80358276643992	156.94290249433107	67	127
156.80358276643992	156.94290249433107	64	127
156.94290249433107	157.0822222222222	67	127
156.94290249433107	157.12863945578232	76	127
156.94290249433107	157.0822222222222	72	127
156.94290249433107	157.12863945578232	72	127
157.0822222222222	157.23315192743763	79	127
157.0822222222222	157.23315192743763	76	127
157.2447619047619	157.36086167800454	72	127
157.2447619047619	157.4073015873016	76	127
157.2447619047619	157.36086167800454	76	127
157.2447619047619	157.4073015873016	72	127
157.3724716553288	157.5001814058957	67	127
157.3724716553288	157.5001814058957	72	127
157.5001814058957	157.6278911564626	64	127
157.5001814058957	157.6278911564626	76	127
157.5001814058957	157.67433106575965	72	127
157.5001814058957	157.67433106575965	76	127
157.6278911564626	157.7439909297052	91	127
157.6278911564626	157.7439909297052	60	127
157.75560090702947	157.88331065759638	88	127
157.75560090702947	157.88331065759638	55	127
157.75560090702947	157.92975056689343	72	127
157.75560090702947	157.92975056689343	76	127
157.89489795918368	158.01102040816326	84	127
157.89489795918368	158.01102040816326	52	127
158.01102040816326	158.30124716553289	45	127
158.01102040816326	158.61473922902493	84	127
158.01102040816326	158.16195011337868	75	127
158.01102040816326	158.30124716553289	48	127
158.16195011337868	158.30124716553289	84	127
158.32448979591837	158.47541950113379	77	127
158.32448979591837	158.61473922902493	60	127
158.32448979591837	158.61473922902493	57	127
158.48702947845806	158.61473922902493	75	127
158.61473922902493	158.80049886621316	74	127
158.61473922902493	158.92820861678004	62	127
158.61473922902493	159.23006802721088	74	127
158.61473922902493	159.23006802721088	58	127
158.80049886621316	158.92820861678004	82	127
158.92820861678004	159.04430839002268	77	127
158.92820861678004	159.23006802721088	65	127
159.05591836734695	159.23006802721088	74	127
159.24167800453515	159.49709750566893	70	127
159.24167800453515	159.74090702947845	82	127
159.24167800453515	159.74090702947845	55	127
159.24167800453515	159.35777777777778	73	127
159.35777777777778	159.49709750566893	82	127
159.49709750566893	159.74090702947845	58	127
159.49709750566893	159.61319727891157	75	127
159.62480725623584	159.74090702947845	73	127
159.75251700680272	160.04274376417234	60	127
159.75251700680272	160.49555555555557	72	127
159.75251700680272	160.3562358276644	56	127
159.75251700680272	159.89183673469387	72	127
159.89183673469387	160.04274376417234	80	127
160.04274376417234	160.18208616780046	75	127
160.04274376417234	160.3562358276644	63	127
160.19367346938776	160.3562358276644	72	127
160.36784580498866	160.91351473922902	53	127
160.36784580498866	160.91351473922902	80	127
160.36784580498866	160.62326530612245	68	127
160.49555555555557	160.62326530612245	80	127
160.62326530612245	160.91351473922902	56	127
160.62326530612245	160.78580498866214	73	127
160.7974149659864	160.91351473922902	72	127
160.92512471655328	161.0528344671202	70	127
160.92512471655328	161.2037641723356	58	127
160.92512471655328	161.4707709750567	55	127
160.92512471655328	161.795873015873	70	127
161.0528344671202	161.2037641723356	79	127
161.2037641723356	161.4707709750567	61	127
161.2037641723356	161.34308390022676	73	127
161.34308390022676	161.4707709750567	70	127
161.4824036281179	161.6217006802721	82	127
161.4824036281179	162.13256235827666	52	127
161.4824036281179	161.795873015873	67	127
161.63333333333333	161.795873015873	79	127
161.795873015873	162.2718820861678	72	127
161.795873015873	161.98160997732427	72	127
161.795873015873	162.13256235827666	55	127
161.98160997732427	162.13256235827666	82	127
162.1441723356009	162.41120181405896	56	127
162.1441723356009	162.70142857142858	53	127
162.1441723356009	162.852358276644	80	127
162.28349206349208	162.41120181405896	80	127
162.41120181405896	162.56213151927437	77	127
162.41120181405896	162.70142857142858	68	127
162.56213151927437	162.70142857142858	72	127
162.7130612244898	163.29356009070295	50	127
162.7130612244898	163.0265306122449	65	127
162.7130612244898	163.42126984126983	70	127
162.88721088435375	163.0265306122449	77	127
163.0265306122449	163.29356009070295	53	127
163.0265306122449	163.1542403628118	70	127
163.1542403628118	163.29356009070295	80	127
163.29356009070295	163.95532879818595	79	127
163.29356009070295	163.57219954648525	55	127
163.29356009070295	163.8392290249433	51	127
163.4328798185941	163.57219954648525	79	127
163.58380952380952	163.69990929705216	75	127
163.58380952380952	163.8392290249433	67	127
163.69990929705216	163.8392290249433	70	127
163.8392290249433	164.60548752834467	68	127
163.8392290249433	164.12945578231293	60	127
163.8392290249433	164.4893650793651	48	127
163.96693877551022	164.12945578231293	76	127
164.14108843537414	164.3384580498866	68	127
164.14108843537414	164.4893650793651	48	127
164.3384580498866	164.4893650793651	79	127
164.4893650793651	164.73319727891158	53	127
164.4893650793651	165.00020408163266	77	127
164.4893650793651	165.00020408163266	49	127
164.61709750566894	164.73319727891158	77	127
164.74478458049887	165.00020408163266	65	127
164.74478458049887	164.86090702947845	73	127
164.86090702947845	165.00020408163266	68	127
165.00020408163266	165.13954648526078	75	127
165.00020408163266	165.27886621315193	60	127
165.00020408163266	165.59233560090703	68	127
165.00020408163266	165.59233560090703	51	127
165.15113378684808	165.27886621315193	72	127
165.2904761904762	165.59233560090703	72	127
165.2904761904762	165.4530158730159	68	127
165.4530158730159	165.59233560090703	75	127
165.59233560090703	166.24249433106576	74	127
165.59233560090703	169.76031746031745	51	127
165.59233560090703	165.73165532879818	65	127
165.59233560090703	165.8825850340136	71	127
165.73165532879818	165.8825850340136	71	127
165.89419501133787	166.0451247165533	68	127
165.89419501133787	166.24249433106576	59	127
166.05673469387756	166.24249433106576	65	127
166.24249433106576	166.39342403628117	73	127
166.24249433106576	166.56757369614513	58	127
166.24249433106576	166.8578231292517	67	127
166.39342403628117	166.56757369614513	70	127
166.5791836734694	166.71850340136055	64	127
166.5791836734694	166.8578231292517	70	127
166.73011337868482	166.8578231292517	73	127
166.8578231292517	167.41510204081632	72	127
166.8578231292517	166.99714285714285	63	127
166.8578231292517	167.11324263038549	68	127
166.99714285714285	167.11324263038549	72	127
167.12485260770976	167.27578231292517	68	127
167.12485260770976	167.41510204081632	56	127
167.28739229024944	167.41510204081632	63	127
167.41510204081632	167.98399092970521	71	127
167.41510204081632	167.58925170068028	62	127
167.41510204081632	167.71696145124716	65	127
167.58925170068028	167.71696145124716	68	127
167.71696145124716	167.85628117913834	65	127
167.71696145124716	167.98399092970521	68	127
167.86789115646258	167.98399092970521	62	127
167.99560090702948	168.0652380952381	70	127
167.99560090702948	168.28585034013605	67	127
167.99560090702948	168.12331065759636	61	127
168.0652380952381	168.12331065759636	72	127
168.12331065759636	168.28585034013605	67	127
168.12331065759636	168.21616780045352	70	127
168.21616780045352	168.28585034013605	72	127
168.28585034013605	168.57607709750567	55	127
168.28585034013605	168.37873015873015	70	127
168.28585034013605	168.43678004535147	64	127
168.37873015873015	168.44839002267574	72	127
168.44839002267574	168.50643990929706	70	127
168.44839002267574	168.57607709750567	61	127
168.50643990929706	168.5877097505669	72	127
168.5877097505669	168.65736961451248	70	127
168.5877097505669	168.84312925170067	67	127
168.5877097505669	168.7154195011338	64	127
168.65736961451248	168.7154195011338	72	127
168.7154195011338	168.84312925170067	70	127
168.7154195011338	168.78507936507935	70	127
168.78507936507935	168.84312925170067	72	127
168.84312925170067	168.901179138322	70	127
168.84312925170067	169.4468253968254	73	127
168.84312925170067	168.9592290249433	67	127
168.901179138322	168.98242630385488	72	127
168.98242630385488	169.04049886621314	70	127
168.98242630385488	169.1449886621315	64	127
169.04049886621314	169.15659863945578	72	127
169.15659863945578	169.2146485260771	70	127
169.15659863945578	169.29591836734693	67	127
169.2146485260771	169.29591836734693	72	127
169.29591836734693	169.3771882086168	70	127
169.29591836734693	169.4468253968254	73	127
169.3771882086168	169.4468253968254	72	127
169.4468253968254	169.58616780045352	67	127
169.4468253968254	169.53972789115647	70	127
169.4468253968254	169.58616780045352	70	127
169.53972789115647	169.60938775510203	72	127
169.60938775510203	169.76031746031745	67	127
169.60938775510203	169.76031746031745	70	127
169.60938775510203	169.67904761904762	70	127
169.67904761904762	169.783537414966	72	127
169.783537414966	169.8531746031746	68	127
169.783537414966	169.91124716553287	68	127
169.783537414966	170.03895691609978	56	127
169.783537414966	169.91124716553287	72	127
169.8531746031746	169.91124716553287	70	127
169.91124716553287	169.98090702947846	68	127
169.91124716553287	170.03895691609978	75	127
169.91124716553287	170.03895691609978	80	127
169.98090702947846	170.03895691609978	70	127
170.03895691609978	170.16666666666666	72	127
170.03895691609978	170.1085941043084	68	127
170.03895691609978	170.16666666666666	75	127
170.1085941043084	170.16666666666666	70	127
170.16666666666666	170.46850340136055	68	127
170.16666666666666	170.24793650793652	68	127
170.16666666666666	170.46850340136055	72	127
170.24793650793652	170.48013605442176	70	127
170.48013605442176	171.0838321995465	77	127
170.48013605442176	170.56140589569162	68	127
170.48013605442176	171.0838321995465	73	127
170.56140589569162	170.65428571428572	70	127
170.65428571428572	170.73555555555555	68	127
170.73555555555555	170.80521541950114	70	127
170.80521541950114	170.89809523809524	68	127
170.89809523809524	170.96775510204083	70	127
170.96775510204083	171.02580498866214	68	127
171.02580498866214	171.0954648526077	70	127
171.0954648526077	171.2231746031746	68	127
171.0954648526077	171.2231746031746	72	127
171.0954648526077	171.1651247165533	68	127
171.1651247165533	171.2347619047619	70	127
171.2347619047619	171.30444444444444	68	127
171.2347619047619	171.38569160997733	80	127
171.2347619047619	171.38569160997733	75	127
171.30444444444444	171.38569160997733	70	127
171.38569160997733	171.54825396825396	75	127
171.38569160997733	171.54825396825396	72	127
171.38569160997733	171.46698412698413	68	127
171.46698412698413	171.54825396825396	70	127
171.54825396825396	171.67596371882087	68	127
171.54825396825396	171.61791383219955	68	127
171.54825396825396	171.67596371882087	72	127
171.61791383219955	171.68757369614514	70	127
171.68757369614514	172.22163265306122	73	127
171.68757369614514	171.74560090702948	68	127
171.68757369614514	172.22163265306122	77	127
171.74560090702948	171.81528344671202	70	127
171.81528344671202	171.8849433106576	68	127
171.8849433106576	171.94299319727892	70	127
171.94299319727892	172.01265306122448	68	127
172.01265306122448	172.0707029478458	70	127
172.0707029478458	172.1403628117914	68	127
172.1403628117914	172.22163265306122	70	127
172.22163265306122	172.39578231292518	72	127
172.22163265306122	172.39578231292518	68	127
172.22163265306122	172.31451247165532	68	127
172.31451247165532	172.40736961451248	70	127
172.40736961451248	172.55832199546487	75	127
172.40736961451248	172.50027210884355	68	127
172.40736961451248	172.55832199546487	80	127
172.50027210884355	172.5699319727891	70	127
172.5699319727891	172.68603174603174	72	127
172.5699319727891	172.62798185941043	68	127
172.5699319727891	172.68603174603174	75	127
172.62798185941043	172.68603174603174	70	127
172.68603174603174	172.76727891156463	68	127
172.68603174603174	172.8834013605442	68	127
172.68603174603174	172.8834013605442	72	127
172.76727891156463	172.8834013605442	70	127
172.8834013605442	173.55678004535147	74	127
172.8834013605442	172.9530612244898	68	127
172.8834013605442	173.2665306122449	77	127
172.9530612244898	173.03433106575963	70	127
173.03433106575963	173.09238095238095	68	127
173.09238095238095	173.2781179138322	70	127
173.2781179138322	173.89344671201815	65	127
173.2781179138322	173.33619047619047	68	127
173.33619047619047	173.4290702947846	70	127
173.4290702947846	173.49873015873015	68	127
173.49873015873015	173.55678004535147	70	127
173.55678004535147	173.89344671201815	75	127
173.55678004535147	173.62643990929706	68	127
173.62643990929706	173.71931972789116	70	127
173.71931972789116	173.81219954648526	68	127
173.81219954648526	173.90507936507936	70	127
173.90507936507936	174.41591836734693	63	127
173.90507936507936	173.96312925170068	68	127
173.90507936507936	174.17210884353742	77	127
173.96312925170068	174.04437641723356	70	127
174.04437641723356	174.1140589569161	68	127
174.1140589569161	174.17210884353742	70	127
174.17210884353742	174.41591836734693	73	127
174.17210884353742	174.41591836734693	67	127
174.47396825396825	174.72938775510204	70	127
174.47396825396825	174.60167800453516	68	127
174.47396825396825	174.60167800453516	65	127
174.60167800453516	174.72938775510204	70	127
174.60167800453516	174.72938775510204	67	127
174.72938775510204	175.00802721088436	68	127
174.72938775510204	175.00802721088436	72	127
174.72938775510204	175.00802721088436	63	127
175.01961451247166	175.27503401360545	70	127
175.01961451247166	175.27503401360545	73	127
175.01961451247166	175.27503401360545	67	127
175.27503401360545	175.565306122449	74	127
175.27503401360545	175.565306122449	65	127
175.27503401360545	175.565306122449	68	127
175.57689342403629	175.89038548752833	63	127
175.57689342403629	175.6581859410431	75	127
175.57689342403629	175.89038548752833	67	127
175.6581859410431	175.73945578231292	77	127
175.73945578231292	175.8091156462585	75	127
175.8091156462585	175.89038548752833	77	127
175.89038548752833	175.96004535147392	75	127
175.89038548752833	176.14580498866212	68	127
175.89038548752833	176.14580498866212	65	127
175.96004535147392	176.0297052154195	77	127
176.0297052154195	176.09936507936507	75	127
176.09936507936507	176.1574149659864	77	127
176.1574149659864	176.36639455782313	75	127
176.1574149659864	176.55213151927438	67	127
176.1574149659864	176.55213151927438	70	127
176.36639455782313	176.43605442176872	77	127
176.43605442176872	176.49410430839004	75	127
176.49410430839004	176.55213151927438	77	127
176.55213151927438	176.8540136054422	72	127
176.55213151927438	176.8540136054422	68	127
176.55213151927438	176.72630385487528	75	127
176.72630385487528	176.8540136054422	77	127
176.8540136054422	177.0978231292517	73	127
176.8540136054422	177.0978231292517	79	127
176.8540136054422	177.0978231292517	70	127
177.10943310657598	177.376462585034	72	127
177.10943310657598	177.376462585034	80	127
177.10943310657598	177.376462585034	75	127
177.376462585034	177.65510204081633	72	127
177.376462585034	177.65510204081633	75	127
177.376462585034	177.65510204081633	75	127
177.6782993197279	178.00340136054422	73	127
177.6782993197279	178.00340136054422	79	127
177.6782993197279	178.00340136054422	70	127
178.00340136054422	178.3517006802721	68	127
178.00340136054422	178.3517006802721	80	127
178.00340136054422	178.3517006802721	72	127
178.36331065759637	178.67678004535148	72	127
178.36331065759637	178.67678004535148	80	127
178.36331065759637	178.67678004535148	63	127
178.67678004535148	178.96702947845804	70	127
178.67678004535148	178.96702947845804	79	127
178.67678004535148	178.96702947845804	74	127
178.97863945578231	179.28049886621315	75	127
178.97863945578231	179.582358276644	79	127
178.97863945578231	179.582358276644	70	127
179.28049886621315	179.582358276644	73	127
179.59396825396826	180.24412698412698	80	127
179.59396825396826	179.8261678004535	68	127
179.59396825396826	180.24412698412698	72	127
179.83777777777777	179.9538775510204	75	127
179.9538775510204	180.09319727891156	72	127
180.09319727891156	180.24412698412698	68	127
180.25573696145125	181.14968253968254	63	127
180.25573696145125	180.7781859410431	67	127
180.25573696145125	180.7781859410431	73	127
180.25573696145125	180.3718367346939	75	127
180.38342403628118	180.5227664399093	82	127
180.5227664399093	180.65047619047618	79	127
180.65047619047618	180.7781859410431	75	127
180.78979591836736	181.57927437641723	80	127
180.78979591836736	181.57927437641723	72	127
180.78979591836736	181.14968253968254	68	127
181.17292517006803	181.31224489795918	75	127
181.17292517006803	181.31224489795918	72	127
181.31224489795918	181.43995464852608	68	127
181.31224489795918	181.43995464852608	72	127
181.43995464852608	181.57927437641723	63	127
181.43995464852608	181.57927437641723	68	127
181.57927437641723	182.14816326530612	73	127
181.57927437641723	181.70698412698414	75	127
181.57927437641723	182.14816326530612	67	127
181.57927437641723	182.29909297052154	63	127
181.71859410430838	181.8463038548753	82	127
181.85791383219956	181.98562358276644	79	127
181.98562358276644	182.14816326530612	75	127
182.14816326530612	182.67061224489797	72	127
182.14816326530612	182.78668934240363	80	127
182.14816326530612	182.29909297052154	68	127
182.3107029478458	182.42678004535148	75	127
182.3107029478458	182.42678004535148	72	127
182.4384126984127	182.54290249433106	68	127
182.4384126984127	182.54290249433106	72	127
182.54290249433106	182.67061224489797	63	127
182.54290249433106	182.67061224489797	68	127
182.67061224489797	183.21628117913832	74	127
182.67061224489797	183.52975056689343	63	127
182.67061224489797	183.21628117913832	65	127
182.79832199546485	182.92603174603175	84	127
182.93764172335602	183.0653514739229	82	127
183.0653514739229	183.21628117913832	80	127
183.21628117913832	183.52975056689343	75	127
183.21628117913832	183.52975056689343	79	127
183.21628117913832	183.52975056689343	67	127
183.552947845805	184.15668934240364	63	127
183.552947845805	183.84321995464853	80	127
183.552947845805	183.84321995464853	77	127
183.84321995464853	184.15668934240364	77	127
183.84321995464853	184.15668934240364	73	127
183.84321995464853	184.15668934240364	67	127
184.19151927437642	184.3540589569161	68	127
184.19151927437642	184.49337868480725	70	127
184.19151927437642	184.3540589569161	65	127
184.19151927437642	184.49337868480725	85	127
184.3540589569161	184.49337868480725	70	127
184.3540589569161	184.49337868480725	67	127
184.49337868480725	184.83004535147393	72	127
184.49337868480725	184.83004535147393	84	127
184.49337868480725	184.83004535147393	68	127
184.49337868480725	184.83004535147393	68	127
184.84167800453514	185.09709750566893	82	127
184.84167800453514	185.09709750566893	73	127
184.84167800453514	185.09709750566893	67	127
184.84167800453514	185.09709750566893	70	127
185.1087074829932	185.38734693877552	75	127
185.1087074829932	185.38734693877552	80	127
185.1087074829932	185.38734693877552	72	127
185.1087074829932	185.38734693877552	65	127
185.39895691609976	185.6775963718821	79	127
185.39895691609976	185.6775963718821	73	127
185.39895691609976	185.6775963718821	63	127
185.39895691609976	185.6775963718821	75	127
185.68920634920636	185.94462585034015	80	127
185.68920634920636	185.94462585034015	72	127
185.68920634920636	185.94462585034015	65	127
185.68920634920636	187.1172335600907	75	127
185.94462585034015	186.20004535147393	58	127
185.94462585034015	187.1172335600907	63	127
185.94462585034015	186.20004535147393	67	127
185.94462585034015	186.20004535147393	82	127
186.20004535147393	186.51351473922904	84	127
186.20004535147393	186.51351473922904	56	127
186.20004535147393	186.51351473922904	68	127
186.51351473922904	186.82696145124717	70	127
186.51351473922904	186.82696145124717	85	127
186.51351473922904	186.82696145124717	55	127
186.82696145124717	187.1172335600907	84	127
186.82696145124717	187.1172335600907	72	127
186.82696145124717	187.1172335600907	56	127
187.1172335600907	187.48873015873016	72	127
187.1172335600907	187.48873015873016	65	127
187.1172335600907	187.48873015873016	75	127
187.1172335600907	187.48873015873016	81	127
187.50036281179138	187.79061224489797	70	127
187.50036281179138	187.79061224489797	64	127
187.50036281179138	187.79061224489797	73	127
187.50036281179138	187.79061224489797	82	127
187.79061224489797	188.1273015873016	63	127
187.79061224489797	188.1273015873016	79	127
187.79061224489797	188.1273015873016	70	127
187.79061224489797	188.1273015873016	73	127
188.1273015873016	188.4059410430839	73	127
188.1273015873016	188.4059410430839	79	127
188.1273015873016	188.4059410430839	63	127
188.1273015873016	188.4059410430839	70	127
188.41755102040815	188.67297052154194	80	127
188.41755102040815	188.67297052154194	72	127
188.41755102040815	188.67297052154194	68	127
188.41755102040815	188.67297052154194	68	127
188.74263038548753	189.10253968253969	68	127
188.74263038548753	189.10253968253969	80	127
188.74263038548753	189.10253968253969	68	127
188.74263038548753	189.10253968253969	72	127
189.11414965986395	189.38115646258504	63	127
189.39278911564625	189.70625850340136	68	127
189.70625850340136	190.1009977324263	67	127
190.11260770975056	190.37963718820862	68	127
190.37963718820862	190.65827664399092	72	127
190.6698866213152	190.9136961451247	63	127
190.9136961451247	191.2039455782313	61	127
191.2039455782313	191.5174149659864	60	127
191.52902494331065	191.7960544217687	60	127
191.52902494331065	191.7960544217687	68	127
191.7960544217687	192.07469387755103	60	127
191.7960544217687	192.07469387755103	68	127
192.0863038548753	192.6087528344671	67	127
192.0863038548753	192.6087528344671	58	127
192.6087528344671	192.72485260770975	67	127
192.6087528344671	192.72485260770975	58	127
192.73646258503402	192.87578231292517	56	127
192.73646258503402	192.87578231292517	65	127
192.88739229024944	193.00349206349208	55	127
192.88739229024944	193.13120181405895	58	127
192.88739229024944	193.00349206349208	63	127
193.01510204081632	193.13120181405895	62	127
193.01510204081632	193.13120181405895	53	127
193.14281179138322	193.51433106575965	51	127
193.14281179138322	193.51433106575965	56	127
193.14281179138322	193.51433106575965	65	127
193.51433106575965	193.86263038548753	55	127
193.51433106575965	193.86263038548753	58	127
193.51433106575965	193.86263038548753	63	127
193.8742403628118	194.17609977324264	63	127
193.8742403628118	194.17609977324264	55	127
193.8742403628118	194.17609977324264	51	127
194.18770975056688	194.43151927437643	75	127
194.18770975056688	194.43151927437643	63	127
194.43151927437643	194.6869387755102	80	127
194.43151927437643	194.6869387755102	68	127
194.721768707483	195.01201814058956	67	127
194.721768707483	195.01201814058956	79	127
195.01201814058956	195.32548752834467	68	127
195.01201814058956	195.32548752834467	80	127
195.33709750566894	195.604126984127	72	127
195.33709750566894	195.9175963718821	51	127
195.33709750566894	195.604126984127	84	127
195.33709750566894	195.604126984127	68	127
195.604126984127	195.9175963718821	75	127
195.604126984127	195.9175963718821	60	127
195.604126984127	195.9175963718821	63	127
195.92920634920634	196.20784580498866	61	127
195.92920634920634	196.20784580498866	73	127
195.92920634920634	196.20784580498866	58	127
195.92920634920634	196.20784580498866	52	127
196.20784580498866	196.54453514739228	72	127
196.20784580498866	196.54453514739228	56	127
196.20784580498866	196.54453514739228	53	127
196.20784580498866	196.54453514739228	60	127
196.55614512471655	196.8231746031746	64	127
196.55614512471655	196.8231746031746	80	127
196.55614512471655	196.8231746031746	48	127
196.55614512471655	196.8231746031746	68	127
196.8231746031746	197.1366439909297	80	127
196.8231746031746	197.6707029478458	49	127
196.8231746031746	197.1366439909297	68	127
196.8231746031746	197.1366439909297	65	127
197.14825396825398	197.415283446712	67	127
197.14825396825398	197.415283446712	79	127
197.14825396825398	197.415283446712	63	127
197.415283446712	197.54299319727892	79	127
197.415283446712	197.54299319727892	63	127
197.415283446712	197.54299319727892	67	127
197.54299319727892	197.6707029478458	65	127
197.54299319727892	197.6707029478458	77	127
197.54299319727892	197.6707029478458	61	127
197.6707029478458	197.81002267573697	60	127
197.6707029478458	197.81002267573697	75	127
197.6707029478458	197.81002267573697	63	127
197.6707029478458	197.94934240362812	61	127
197.81002267573697	197.94934240362812	58	127
197.81002267573697	197.94934240362812	61	127
197.81002267573697	197.94934240362812	73	127
197.94934240362812	198.35569160997733	60	127
197.94934240362812	198.35569160997733	56	127
197.94934240362812	198.35569160997733	63	127
197.94934240362812	198.35569160997733	72	127
198.3673015873016	198.51823129251702	61	127
198.3673015873016	198.51823129251702	73	127
198.3673015873016	198.6807709750567	55	127
198.3673015873016	198.99424036281178	51	127
198.52984126984126	198.6807709750567	70	127
198.52984126984126	198.6807709750567	58	127
198.6807709750567	198.99424036281178	68	127
198.6807709750567	198.99424036281178	56	127
198.6807709750567	198.99424036281178	60	127
199.00585034013605	199.15678004535147	49	127
199.00585034013605	199.15678004535147	70	127
199.00585034013605	199.15678004535147	51	127
199.00585034013605	199.29609977324262	75	127
199.15678004535147	199.29609977324262	46	127
199.15678004535147	199.29609977324262	49	127
199.15678004535147	199.29609977324262	67	127
199.29609977324262	199.5515192743764	68	127
199.29609977324262	200.73573696145124	48	127
199.29609977324262	199.87659863945578	44	127
199.29609977324262	199.5515192743764	80	127
199.56312925170067	199.87659863945578	79	127
199.56312925170067	199.87659863945578	67	127
199.87659863945578	200.1552380952381	68	127
199.87659863945578	200.73573696145124	36	127
199.87659863945578	200.1552380952381	80	127
200.16684807256235	200.4106575963719	84	127
200.16684807256235	200.4106575963719	72	127
200.4106575963719	200.73573696145124	60	127
200.4106575963719	200.73573696145124	75	127
200.7473469387755	201.0027664399093	37	127
200.7473469387755	201.0027664399093	73	127
200.7473469387755	201.0027664399093	58	127
200.7473469387755	201.0027664399093	49	127
201.0027664399093	201.5019954648526	72	127
201.0027664399093	201.5019954648526	39	127
201.0027664399093	201.5019954648526	51	127
201.0027664399093	201.5019954648526	56	127
201.5019954648526	201.76902494331065	40	127
201.5019954648526	201.6297052154195	55	127
201.5019954648526	201.76902494331065	84	127
201.5019954648526	201.76902494331065	52	127
201.64131519274378	201.76902494331065	79	127
201.78063492063492	202.02444444444444	84	127
201.78063492063492	202.02444444444444	80	127
201.78063492063492	202.02444444444444	53	127
201.78063492063492	202.02444444444444	41	127
202.02444444444444	202.26825396825396	43	127
202.02444444444444	202.14054421768708	82	127
202.02444444444444	202.14054421768708	79	127
202.02444444444444	202.26825396825396	55	127
202.15215419501135	202.26825396825396	80	127
202.15215419501135	202.26825396825396	77	127
202.27986394557823	202.53528344671201	56	127
202.27986394557823	202.40757369614514	77	127
202.27986394557823	202.53528344671201	44	127
202.27986394557823	202.40757369614514	80	127
202.40757369614514	202.53528344671201	75	127
202.40757369614514	202.53528344671201	79	127
202.53528344671201	202.94163265306122	58	127
202.53528344671201	202.66299319727892	79	127
202.53528344671201	202.66299319727892	75	127
202.53528344671201	202.94163265306122	46	127
202.67460317460316	202.94163265306122	77	127
202.67460317460316	202.94163265306122	74	127
202.976462585034	203.22027210884355	80	127
202.976462585034	203.22027210884355	39	127
202.976462585034	203.22027210884355	51	127
202.976462585034	203.22027210884355	77	127
203.22027210884355	203.49891156462584	62	127
203.22027210884355	203.49891156462584	79	127
203.22027210884355	203.49891156462584	75	127
203.22027210884355	203.49891156462584	50	127
203.5105215419501	203.77755102040817	51	127
203.5105215419501	203.77755102040817	79	127
203.5105215419501	203.77755102040817	75	127
203.5105215419501	203.77755102040817	63	127
203.77755102040817	204.04458049886622	62	127
203.77755102040817	203.90526077097505	67	127
203.77755102040817	204.04458049886622	75	127
203.77755102040817	204.04458049886622	49	127
203.90526077097505	204.04458049886622	55	127
204.05619047619047	204.4277097505669	48	127
204.05619047619047	204.4277097505669	80	127
204.05619047619047	204.4277097505669	63	127
204.05619047619047	204.4277097505669	60	127
204.4277097505669	204.741179138322	58	127
204.4277097505669	204.741179138322	79	127
204.4277097505669	204.741179138322	61	127
204.4277097505669	204.741179138322	46	127
204.75278911564627	205.08947845804988	44	127
204.75278911564627	205.08947845804988	80	127
204.75278911564627	205.08947845804988	60	127
204.75278911564627	205.08947845804988	56	127
205.08947845804988	205.41455782312926	51	127
205.08947845804988	205.41455782312926	84	127
205.08947845804988	205.41455782312926	68	127
205.08947845804988	205.41455782312926	39	127
205.42616780045353	205.6815873015873	75	127
205.42616780045353	205.6815873015873	41	127
205.42616780045353	205.6815873015873	53	127
205.42616780045353	205.6815873015873	72	127
205.6815873015873	206.06471655328798	55	127
205.6815873015873	206.06471655328798	73	127
205.6815873015873	206.06471655328798	70	127
205.6815873015873	206.06471655328798	43	127
206.06471655328798	206.33174603174604	72	127
206.06471655328798	206.33174603174604	56	127
206.06471655328798	206.33174603174604	44	127
206.06471655328798	206.33174603174604	68	127
206.3433560090703	206.64521541950114	80	127
206.3433560090703	206.90063492063493	36	127
206.3433560090703	206.90063492063493	48	127
206.3433560090703	206.64521541950114	75	127
206.64521541950114	206.90063492063493	77	127
206.64521541950114	206.90063492063493	80	127
206.91224489795917	207.22571428571428	79	127
206.91224489795917	207.22571428571428	75	127
206.91224489795917	207.49274376417233	50	127
206.91224489795917	207.49274376417233	37	127
207.22571428571428	207.35342403628118	75	127
207.22571428571428	207.35342403628118	79	127
207.35342403628118	207.49274376417233	73	127
207.35342403628118	207.49274376417233	77	127
207.49274376417233	207.7597732426304	39	127
207.49274376417233	207.62045351473924	75	127
207.49274376417233	207.62045351473924	72	127
207.49274376417233	207.7597732426304	51	127
207.63206349206348	207.7597732426304	73	127
207.63206349206348	207.7597732426304	70	127
207.77138321995466	208.05002267573695	68	127
207.77138321995466	208.05002267573695	39	127
207.77138321995466	208.05002267573695	72	127
207.77138321995466	208.05002267573695	51	127
208.06163265306122	208.2241723356009	70	127
208.06163265306122	208.71179138321995	51	127
208.06163265306122	208.2241723356009	73	127
208.06163265306122	208.2241723356009	67	127
208.2241723356009	208.37510204081633	67	127
208.2241723356009	208.37510204081633	70	127
208.2241723356009	208.37510204081633	61	127
208.37510204081633	208.71179138321995	67	127
208.37510204081633	208.71179138321995	61	127
208.37510204081633	208.71179138321995	58	127
208.71179138321995	209.08331065759637	63	127
208.71179138321995	209.08331065759637	73	127
208.71179138321995	209.08331065759637	67	127
208.71179138321995	209.08331065759637	70	127
209.09492063492064	209.43160997732426	60	127
209.09492063492064	209.43160997732426	77	127
209.09492063492064	209.43160997732426	63	127
209.09492063492064	209.43160997732426	68	127
209.43160997732426	210.33718820861677	60	127
209.43160997732426	209.98888888888888	63	127
209.43160997732426	209.59414965986394	75	127
209.59414965986394	209.72185941043085	72	127
209.72185941043085	209.90761904761905	68	127
210.01210884353742	210.33718820861677	76	127
210.01210884353742	210.33718820861677	64	127
210.3604081632653	210.65065759637187	65	127
210.3604081632653	210.65065759637187	61	127
210.3604081632653	210.65065759637187	79	127
210.65065759637187	211.2427664399093	65	127
210.65065759637187	210.77836734693878	77	127
210.65065759637187	211.2427664399093	61	127
210.77836734693878	210.9292970521542	73	127
210.9292970521542	211.1498866213152	70	127
211.27759637188208	211.86970521541951	67	127
211.27759637188208	211.54462585034014	79	127
211.27759637188208	211.86970521541951	64	127
211.5562358276644	211.86970521541951	80	127
211.86970521541951	213.05392290249432	67	127
211.86970521541951	213.05392290249432	64	127
211.86970521541951	211.9974149659864	79	127
211.9974149659864	212.1483446712018	76	127
212.15995464852608	212.36893424036282	72	127
212.4734240362812	212.76367346938775	79	127
212.76367346938775	213.05392290249432	82	127
213.05392290249432	214.29619047619047	65	127
213.05392290249432	214.29619047619047	69	127
213.05392290249432	213.1932426303855	81	127
213.1932426303855	213.32095238095238	75	127
213.33256235827665	213.64603174603175	72	127
213.73891156462585	214.0059410430839	81	127
214.0059410430839	214.29619047619047	84	127
214.29619047619047	215.422358276644	67	127
214.29619047619047	214.42390022675738	83	127
214.29619047619047	215.422358276644	71	127
214.43551020408162	214.56321995464853	77	127
214.5748299319728	214.760589569161	74	127
214.84185941043083	215.13210884353742	83	127
215.13210884353742	215.422358276644	84	127
215.43396825396826	216.68784580498865	67	127
215.43396825396826	215.56167800453514	83	127
215.43396825396826	216.68784580498865	71	127
215.5732879818594	215.70099773242632	77	127
215.71260770975056	215.93319727891156	74	127
216.02607709750566	216.3975963718821	83	127
216.3975963718821	216.68784580498865	84	127
216.69945578231292	217.9301133786848	68	127
216.69945578231292	216.83877551020407	83	127
216.69945578231292	217.26834467120182	71	127
216.85038548752834	216.97809523809525	77	127
216.9897052154195	217.17546485260772	74	127
217.26834467120182	217.65147392290248	82	127
217.26834467120182	217.9301133786848	74	127
217.26834467120182	217.9301133786848	77	127
217.26834467120182	217.9301133786848	70	127
217.66308390022675	217.9301133786848	84	127
217.9301133786848	219.1259410430839	68	127
217.9301133786848	218.13909297052155	82	127
217.9301133786848	219.1259410430839	70	127
217.9301133786848	219.1259410430839	77	127
217.9301133786848	219.1259410430839	74	127
218.15070294784582	218.2784126984127	77	127
218.2784126984127	218.47578231292516	74	127
218.56866213151926	218.8473015873016	82	127
218.8473015873016	219.1259410430839	84	127
219.1259410430839	219.3813605442177	82	127
219.1259410430839	220.42625850340136	68	127
219.1259410430839	220.42625850340136	70	127
219.1259410430839	220.42625850340136	77	127
219.1259410430839	220.42625850340136	74	127
219.39297052154194	219.57873015873017	77	127
219.57873015873017	219.79931972789115	74	127
219.880589569161	220.1592290249433	82	127
220.1592290249433	220.42625850340136	84	127
220.43786848072563	221.72657596371883	77	127
220.43786848072563	220.6932879818594	82	127
220.43786848072563	221.72657596371883	70	127
220.43786848072563	221.72657596371883	74	127
220.43786848072563	221.72657596371883	68	127
220.6932879818594	220.84421768707483	77	127
220.8558276643991	221.1344671201814	74	127
221.34344671201814	221.72657596371883	82	127
221.73818594104307	222.41156462585033	67	127
221.73818594104307	221.9471655328798	75	127
221.73818594104307	222.12131519274377	75	127
221.73818594104307	222.12131519274377	70	127
221.73818594104307	222.12131519274377	79	127
221.9471655328798	222.12131519274377	82	127
222.13292517006803	222.27224489795918	79	127
222.13292517006803	222.41156462585033	70	127
222.13292517006803	222.41156462585033	75	127
222.28385487528345	222.41156462585033	75	127
222.41156462585033	222.9572335600907	65	127
222.41156462585033	222.53927437641724	72	127
222.41156462585033	222.9572335600907	80	127
222.41156462585033	222.9572335600907	68	127
222.53927437641724	222.66698412698412	77	127
222.66698412698412	222.8063038548753	74	127
222.81791383219954	223.28231292517006	70	127
222.98045351473922	223.5841723356009	67	127
222.98045351473922	223.09655328798186	75	127
222.98045351473922	223.28231292517006	75	127
223.09655328798186	223.28231292517006	82	127
223.28231292517006	223.41002267573697	79	127
223.28231292517006	223.5841723356009	75	127
223.28231292517006	223.5841723356009	70	127
223.42163265306124	223.5841723356009	75	127
223.59578231292517	224.12984126984128	68	127
223.59578231292517	223.74671201814058	72	127
223.59578231292517	224.12984126984128	65	127
223.59578231292517	224.12984126984128	80	127
223.74671201814058	223.8744217687075	77	127
223.8744217687075	224.00213151927437	74	127
224.01374149659864	224.51297052154194	70	127
224.14145124716552	224.83804988662132	67	127
224.14145124716552	224.2807709750567	75	127
224.14145124716552	224.51297052154194	75	127
224.2807709750567	224.51297052154194	82	127
224.51297052154194	224.6522902494331	79	127
224.51297052154194	225.000589569161	75	127
224.51297052154194	224.83804988662132	70	127
224.6522902494331	224.83804988662132	75	127
224.8496598639456	225.000589569161	72	127
224.8496598639456	225.74362811791383	65	127
224.8496598639456	225.43015873015872	81	127
225.000589569161	225.13990929705216	78	127
225.000589569161	225.13990929705216	75	127
225.13990929705216	225.2792290249433	74	127
225.13990929705216	225.2792290249433	77	127
225.2792290249433	225.43015873015872	75	127
225.2792290249433	225.43015873015872	72	127
225.441768707483	225.74362811791383	73	127
225.441768707483	225.74362811791383	70	127
225.441768707483	225.74362811791383	82	127
225.74362811791383	226.31251700680272	72	127
225.74362811791383	225.99904761904762	84	127
225.74362811791383	225.99904761904762	67	127
225.74362811791383	225.99904761904762	64	127
226.01065759637189	226.31251700680272	80	127
226.01065759637189	226.31251700680272	65	127
226.01065759637189	226.31251700680272	68	127
226.31251700680272	226.61437641723356	56	127
226.31251700680272	226.61437641723356	77	127
226.31251700680272	226.61437641723356	72	127
226.31251700680272	226.61437641723356	60	127
226.62598639455783	226.9162358276644	75	127
226.62598639455783	226.9162358276644	66	127
226.62598639455783	226.9162358276644	72	127
226.62598639455783	226.9162358276644	57	127
226.9162358276644	227.27614512471655	70	127
226.9162358276644	227.53156462585034	58	127
226.9162358276644	227.27614512471655	74	127
226.9162358276644	227.27614512471655	65	127
227.27614512471655	227.53156462585034	63	127
227.27614512471655	227.53156462585034	72	127
227.27614512471655	227.53156462585034	66	127
227.5431746031746	227.91469387755103	58	127
227.5431746031746	227.91469387755103	70	127
227.5431746031746	227.91469387755103	65	127
227.5431746031746	227.91469387755103	62	127
227.91469387755103	228.18172335600906	58	127
227.91469387755103	228.18172335600906	72	127
227.91469387755103	228.18172335600906	67	127
227.91469387755103	228.18172335600906	63	127
228.19333333333333	228.44875283446711	74	127
228.19333333333333	228.78544217687076	70	127
228.19333333333333	228.44875283446711	56	127
228.19333333333333	228.44875283446711	65	127
228.44875283446711	228.78544217687076	67	127
228.44875283446711	228.78544217687076	75	127
228.44875283446711	228.78544217687076	55	127
228.797052154195	229.06408163265306	56	127
228.797052154195	229.06408163265306	53	127
228.797052154195	229.06408163265306	77	127
228.797052154195	229.06408163265306	74	127
229.06408163265306	229.47043083900226	55	127
229.06408163265306	229.47043083900226	79	127
229.06408163265306	229.47043083900226	75	127
229.06408163265306	229.47043083900226	51	127
229.48204081632653	229.76068027210886	48	127
229.48204081632653	229.76068027210886	82	127
229.48204081632653	229.76068027210886	79	127
229.48204081632653	229.76068027210886	51	127
229.76068027210886	230.09736961451247	77	127
229.76068027210886	230.09736961451247	50	127
229.76068027210886	230.09736961451247	53	127
229.76068027210886	229.94643990929706	80	127
230.10897959183674	230.28312925170067	79	127
230.10897959183674	230.36439909297053	51	127
230.10897959183674	230.36439909297053	55	127
230.10897959183674	230.36439909297053	75	127
230.36439909297053	230.63142857142856	55	127
230.36439909297053	230.63142857142856	79	127
230.36439909297053	230.63142857142856	46	127
230.36439909297053	230.97972789115647	75	127
230.64303854875283	230.97972789115647	45	127
230.64303854875283	230.8984580498866	77	127
230.64303854875283	230.97972789115647	60	127
230.97972789115647	231.444126984127	46	127
230.97972789115647	231.444126984127	58	127
230.97972789115647	231.36285714285714	77	127
230.97972789115647	231.444126984127	74	127
231.4673469387755	231.86208616780044	65	127
231.4673469387755	231.86208616780044	56	127
231.4673469387755	232.48902494331065	82	127
231.4673469387755	231.98979591836735	58	127
231.4673469387755	231.86208616780044	38	127
231.4673469387755	231.86208616780044	53	127
231.86208616780044	231.98979591836735	51	127
231.86208616780044	234.31179138321994	39	127
231.86208616780044	231.98979591836735	67	127
231.86208616780044	231.98979591836735	55	127
231.98979591836735	232.11750566893423	70	127
231.98979591836735	232.11750566893423	58	127
232.11750566893423	232.23360544217687	67	127
232.11750566893423	232.23360544217687	55	127
232.24521541950114	232.36131519274377	51	127
232.24521541950114	232.36131519274377	63	127
232.37292517006802	232.8837641723356	68	127
232.37292517006802	232.8837641723356	56	127
232.48902494331065	232.61673469387756	89	127
232.61673469387756	232.74444444444444	86	127
232.76766439909298	232.8837641723356	82	127
232.9418140589569	233.09274376417233	55	127
232.9418140589569	233.24367346938774	87	127
232.9418140589569	233.09274376417233	67	127
233.09274376417233	233.24367346938774	70	127
233.09274376417233	233.24367346938774	58	127
233.24367346938774	233.35977324263038	55	127
233.24367346938774	233.6035827664399	82	127
233.24367346938774	233.35977324263038	67	127
233.37138321995465	233.4874829931973	51	127
233.37138321995465	233.4874829931973	63	127
233.49909297052153	233.99832199546486	56	127
233.49909297052153	233.99832199546486	68	127
233.6035827664399	233.74290249433108	89	127
233.74290249433108	233.88222222222223	86	127
233.88222222222223	233.99832199546486	82	127
234.0099319727891	234.12603174603174	67	127
234.0099319727891	234.31179138321994	87	127
234.0099319727891	234.12603174603174	55	127
234.12603174603174	234.31179138321994	58	127
234.12603174603174	234.31179138321994	70	127
234.31179138321994	234.60204081632654	43	127
234.31179138321994	234.4627210884354	82	127
234.31179138321994	234.4627210884354	67	127
234.31179138321994	234.4627210884354	55	127
234.4627210884354	234.76458049886622	87	127
234.4627210884354	234.60204081632654	63	127
234.4627210884354	234.60204081632654	51	127
234.6136507936508	235.240589569161	57	127
234.6136507936508	235.240589569161	69	127
234.6136507936508	234.90390022675737	42	127
234.77619047619046	234.90390022675737	91	127
234.90390022675737	235.240589569161	41	127
234.90390022675737	235.03160997732425	89	127
235.03160997732425	235.240589569161	87	127
235.25219954648526	235.97201814058957	58	127
235.25219954648526	235.40312925170068	87	127
235.25219954648526	235.5540589569161	70	127
235.25219954648526	236.09972789115648	41	127
235.41473922902495	235.5540589569161	86	127
235.5540589569161	235.8443083900227	84	127
235.5540589569161	235.72820861678005	84	127
235.72820861678005	235.8443083900227	86	127
235.85591836734693	236.09972789115648	80	127
235.85591836734693	235.97201814058957	86	127
235.98362811791384	236.09972789115648	84	127
235.98362811791384	236.09972789115648	50	127
236.09972789115648	236.30870748299319	84	127
236.09972789115648	236.4944671201814	77	127
236.09972789115648	236.30870748299319	43	127
236.09972789115648	236.30870748299319	51	127
236.30870748299319	236.4944671201814	44	127
236.30870748299319	236.4944671201814	82	127
236.30870748299319	236.4944671201814	53	127
236.4944671201814	236.73827664399093	75	127
236.4944671201814	236.61056689342405	82	127
236.4944671201814	236.73827664399093	55	127
236.4944671201814	237.12140589569162	43	127
236.6221768707483	236.73827664399093	87	127
236.7498866213152	236.9356462585034	82	127
236.7498866213152	237.12140589569162	74	127
236.7498866213152	237.12140589569162	53	127
236.9356462585034	237.12140589569162	86	127
237.12140589569162	237.26072562358277	82	127
237.12140589569162	237.4116553287982	72	127
237.12140589569162	237.4116553287982	51	127
237.12140589569162	237.67868480725625	44	127
237.27233560090704	237.4116553287982	84	127
237.42326530612246	237.53936507936507	82	127
237.42326530612246	237.67868480725625	50	127
237.42326530612246	237.67868480725625	70	127
237.53936507936507	237.67868480725625	82	127
237.67868480725625	237.9689342403628	84	127
237.67868480725625	238.24757369614514	43	127
237.67868480725625	237.9689342403628	72	127
237.67868480725625	237.9689342403628	51	127
237.98054421768708	238.24757369614514	86	127
237.98054421768708	238.24757369614514	74	127
237.98054421768708	238.24757369614514	53	127
238.24757369614514	238.77002267573695	41	127
238.24757369614514	238.51460317460317	87	127
238.24757369614514	238.51460317460317	75	127
238.24757369614514	238.51460317460317	55	127
238.52621315192744	238.77002267573695	89	127
238.52621315192744	238.77002267573695	56	127
238.52621315192744	238.77002267573695	77	127
238.77002267573695	239.0718820861678	58	127
238.77002267573695	239.0718820861678	79	127
238.77002267573695	239.0718820861678	39	127
238.77002267573695	239.0718820861678	91	127
239.08349206349206	239.37374149659863	37	127
239.08349206349206	239.65238095238095	51	127
239.08349206349206	239.37374149659863	94	127
239.08349206349206	239.37374149659863	82	127
239.37374149659863	239.65238095238095	92	127
239.37374149659863	239.65238095238095	80	127
239.37374149659863	239.65238095238095	36	127
239.66399092970522	239.9542403628118	38	127
239.66399092970522	239.8265306122449	53	127
239.66399092970522	239.9542403628118	89	127
239.66399092970522	239.9542403628118	77	127
239.83814058956915	239.9542403628118	56	127
239.9542403628118	240.37219954648526	89	127
239.9542403628118	240.37219954648526	39	127
239.9542403628118	240.37219954648526	56	127
239.9542403628118	240.37219954648526	77	127
240.38380952380953	240.47668934240363	51	127
240.38380952380953	240.59278911564627	75	127
240.38380952380953	240.59278911564627	55	127
240.38380952380953	240.59278911564627	87	127
240.52312925170068	240.61600907029478	53	127
240.66244897959183	240.77854875283447	55	127
240.66244897959183	240.94108843537416	55	127
240.66244897959183	240.94108843537416	75	127
240.66244897959183	240.94108843537416	87	127
240.88303854875284	240.97591836734694	56	127
241.01074829931972	241.11523809523808	58	127
241.01074829931972	241.11523809523808	79	127
241.01074829931972	241.11523809523808	63	127
241.01074829931972	241.28938775510204	82	127
241.1500680272109	241.25455782312926	80	127
241.1500680272109	241.25455782312926	65	127
241.1500680272109	241.25455782312926	58	127
241.3009977324263	241.4287074829932	67	127
241.3009977324263	241.5796371882086	58	127
241.3009977324263	241.4287074829932	82	127
241.3009977324263	241.5796371882086	87	127
241.4287074829932	241.5796371882086	80	127
241.4287074829932	241.5796371882086	65	127
241.5796371882086	241.71895691609978	80	127
241.5796371882086	241.84666666666666	86	127
241.5796371882086	241.71895691609978	65	127
241.73056689342403	241.84666666666666	79	127
241.73056689342403	241.84666666666666	63	127
241.85827664399093	241.97437641723357	79	127
241.85827664399093	242.125306122449	87	127
241.85827664399093	241.97437641723357	75	127
241.97437641723357	242.125306122449	74	127
241.97437641723357	242.125306122449	77	127
242.125306122449	242.2414058956916	75	127
242.125306122449	242.2414058956916	72	127
242.125306122449	242.3691156462585	91	127
242.25301587301587	242.3691156462585	70	127
242.25301587301587	242.3691156462585	74	127
242.38072562358278	242.4968253968254	72	127
242.38072562358278	242.6477551020408	82	127
242.38072562358278	242.4968253968254	68	127
242.4968253968254	242.6477551020408	70	127
242.4968253968254	242.6477551020408	67	127
242.6477551020408	242.78707482993198	72	127
242.6477551020408	242.92639455782313	80	127
242.6477551020408	242.78707482993198	68	127
242.79868480725622	242.92639455782313	65	127
242.79868480725622	242.92639455782313	74	127
242.9380045351474	243.05410430839	75	127
242.9380045351474	243.2166439909297	79	127
242.9380045351474	243.05410430839	63	127
243.05410430839	243.2166439909297	67	127
243.05410430839	243.2166439909297	75	127
243.2166439909297	243.48367346938775	87	127
243.2166439909297	243.35596371882087	77	127
243.2166439909297	243.35596371882087	58	127
243.2166439909297	243.35596371882087	68	127
243.35596371882087	243.48367346938775	79	127
243.35596371882087	243.48367346938775	58	127
243.35596371882087	243.48367346938775	70	127
243.49528344671202	243.61138321995466	72	127
243.49528344671202	243.55333333333334	87	127
243.49528344671202	243.61138321995466	80	127
243.49528344671202	243.61138321995466	58	127
243.55333333333334	243.6229931972789	89	127
243.6229931972789	243.73909297052154	58	127
243.6229931972789	243.73909297052154	87	127
243.6229931972789	243.73909297052154	79	127
243.6229931972789	243.73909297052154	75	127
243.73909297052154	243.8784126984127	79	127
243.73909297052154	243.8784126984127	58	127
243.73909297052154	243.8784126984127	75	127
243.73909297052154	243.99451247165533	84	127
243.8784126984127	243.99451247165533	58	127
243.8784126984127	243.99451247165533	77	127
243.8784126984127	243.99451247165533	74	127
244.0061224489796	244.12222222222223	58	127
244.0061224489796	244.06417233560092	82	127
244.0061224489796	244.12222222222223	77	127
244.0061224489796	244.12222222222223	74	127
244.06417233560092	244.13383219954648	84	127
244.13383219954648	244.2499319727891	82	127
244.13383219954648	244.2499319727891	58	127
244.13383219954648	244.2499319727891	72	127
244.13383219954648	244.2499319727891	75	127
244.2499319727891	244.40086167800453	58	127
244.2499319727891	244.40086167800453	75	127
244.2499319727891	244.40086167800453	72	127
244.2499319727891	244.5750113378685	81	127
244.40086167800453	244.5750113378685	58	127
244.40086167800453	244.5750113378685	74	127
244.40086167800453	244.5750113378685	77	127
244.58662131519273	244.64467120181405	84	127
244.58662131519273	244.70272108843537	58	127
244.58662131519273	244.70272108843537	74	127
244.58662131519273	244.70272108843537	77	127
244.64467120181405	244.71433106575964	86	127
244.71433106575964	244.84204081632652	58	127
244.71433106575964	244.84204081632652	84	127
244.71433106575964	244.84204081632652	79	127
244.71433106575964	244.84204081632652	75	127
244.84204081632652	245.0045804988662	74	127
244.84204081632652	245.0045804988662	77	127
244.84204081632652	245.06263038548752	82	127
244.84204081632652	245.0045804988662	58	127
245.0045804988662	245.14390022675738	58	127
245.0045804988662	245.14390022675738	75	127
245.0045804988662	245.14390022675738	72	127
245.14390022675738	245.42253968253968	58	127
245.14390022675738	245.26	75	127
245.14390022675738	245.26	72	127
245.14390022675738	245.32965986394558	82	127
245.27160997732426	245.42253968253968	70	127
245.27160997732426	245.42253968253968	74	127
245.43414965986395	245.56185941043083	70	127
245.43414965986395	245.56185941043083	79	127
245.43414965986395	245.56185941043083	82	127
245.56185941043083	245.68956916099773	77	127
245.56185941043083	245.68956916099773	87	127
245.56185941043083	245.68956916099773	68	127
245.68956916099773	245.93337868480725	87	127
245.68956916099773	245.80566893424037	82	127
245.68956916099773	245.80566893424037	67	127
245.8172789115646	245.93337868480725	80	127
245.8172789115646	245.93337868480725	65	127
245.94498866213152	246.06108843537416	65	127
245.94498866213152	246.21201814058958	86	127
245.94498866213152	246.06108843537416	80	127
246.06108843537416	246.21201814058958	63	127
246.06108843537416	246.21201814058958	79	127
246.21201814058958	246.3281179138322	75	127
246.21201814058958	246.46743764172336	87	127
246.21201814058958	246.3281179138322	79	127
246.33972789115646	246.46743764172336	74	127
246.33972789115646	246.46743764172336	77	127
246.4790476190476	246.59514739229024	75	127
246.4790476190476	246.7344671201814	91	127
246.4790476190476	246.59514739229024	72	127
246.59514739229024	246.7344671201814	70	127
246.59514739229024	246.7344671201814	74	127
246.7344671201814	246.8621768707483	72	127
246.7344671201814	247.024716553288	82	127
246.7344671201814	246.8621768707483	68	127
246.87378684807257	247.024716553288	70	127
246.87378684807257	247.024716553288	67	127
247.03632653061226	247.15242630385487	72	127
247.03632653061226	247.28013605442177	80	127
247.03632653061226	247.15242630385487	65	127
247.15242630385487	247.28013605442177	65	127
247.15242630385487	247.28013605442177	74	127
247.28013605442177	247.53555555555556	79	127
247.28013605442177	247.40784580498865	74	127
247.28013605442177	247.40784580498865	65	127
247.40784580498865	247.53555555555556	63	127
247.40784580498865	247.53555555555556	75	127
247.54716553287983	247.66326530612244	63	127
247.54716553287983	247.8374149659864	87	127
247.54716553287983	247.66326530612244	55	127
247.54716553287983	247.66326530612244	70	127
247.6748752834467	247.8374149659864	71	127
247.6748752834467	247.8374149659864	55	127
247.6748752834467	247.8374149659864	63	127
247.8374149659864	247.96512471655328	71	127
247.8374149659864	247.96512471655328	63	127
247.8374149659864	247.96512471655328	55	127
247.8374149659864	247.907074829932	87	127
247.907074829932	247.96512471655328	89	127
247.96512471655328	248.09283446712018	63	127
247.96512471655328	248.09283446712018	87	127
247.96512471655328	248.09283446712018	72	127
247.96512471655328	248.09283446712018	56	127
248.10444444444445	248.22054421768706	72	127
248.10444444444445	248.22054421768706	56	127
248.10444444444445	248.22054421768706	63	127
248.10444444444445	248.35986394557824	84	127
248.23215419501133	248.35986394557824	63	127
248.23215419501133	248.35986394557824	74	127
248.23215419501133	248.35986394557824	58	127
248.35986394557824	248.5224036281179	63	127
248.35986394557824	248.4643537414966	82	127
248.35986394557824	248.5224036281179	74	127
248.35986394557824	248.5224036281179	58	127
248.4643537414966	248.5224036281179	84	127
248.5224036281179	248.66172335600908	75	127
248.5224036281179	248.66172335600908	60	127
248.5224036281179	248.66172335600908	63	127
248.5224036281179	248.66172335600908	82	127
248.67333333333335	248.78943310657596	63	127
248.67333333333335	248.78943310657596	75	127
248.67333333333335	248.78943310657596	60	127
248.67333333333335	248.92875283446713	80	127
248.80104308390023	248.92875283446713	77	127
248.80104308390023	248.92875283446713	62	127
248.80104308390023	248.92875283446713	63	127
248.92875283446713	249.056462585034	63	127
248.92875283446713	249.056462585034	77	127
248.92875283446713	249.056462585034	62	127
248.92875283446713	249.19578231292516	79	127
249.056462585034	249.19578231292516	79	127
249.056462585034	249.19578231292516	63	127
249.056462585034	249.19578231292516	63	127
249.19578231292516	249.32349206349207	70	127
249.19578231292516	249.32349206349207	80	127
249.19578231292516	249.32349206349207	77	127
249.19578231292516	249.32349206349207	63	127
249.33510204081634	249.46281179138322	74	127
249.33510204081634	249.46281179138322	68	127
249.33510204081634	249.46281179138322	63	127
249.33510204081634	249.46281179138322	77	127
249.4744217687075	249.55569160997732	75	127
249.4744217687075	249.77628117913832	75	127
249.4744217687075	249.77628117913832	63	127
249.4744217687075	249.77628117913832	70	127
249.4744217687075	249.77628117913832	67	127
249.59052154195012	249.74145124716554	86	127
249.77628117913832	250.0317006802721	67	127
249.77628117913832	249.86916099773242	87	127
249.77628117913832	250.0317006802721	70	127
249.9039909297052	249.99687074829933	84	127
250.04331065759638	250.2871201814059	67	127
250.04331065759638	250.159410430839	84	127
250.04331065759638	250.2871201814059	75	127
250.159410430839	250.2871201814059	82	127
250.2871201814059	250.54253968253968	74	127
250.2871201814059	250.41482993197278	70	127
250.2871201814059	250.54253968253968	65	127
250.42643990929705	250.54253968253968	46	127
250.42643990929705	250.54253968253968	80	127
250.55414965986395	250.83278911564625	67	127
250.55414965986395	250.83278911564625	58	127
250.55414965986395	250.83278911564625	75	127
250.55414965986395	250.6934693877551	80	127
250.6934693877551	250.83278911564625	79	127
250.83278911564625	251.01854875283448	67	127
250.83278911564625	251.14625850340136	70	127
250.83278911564625	251.14625850340136	79	127
251.03015873015872	251.14625850340136	46	127
251.03015873015872	251.14625850340136	77	127
251.1694784580499	251.45972789115646	67	127
251.1694784580499	251.30879818594104	77	127
251.1694784580499	251.45972789115646	70	127
251.1694784580499	251.45972789115646	58	127
251.30879818594104	251.45972789115646	75	127
251.45972789115646	251.58743764172337	77	127
251.45972789115646	251.74997732426303	65	127
251.45972789115646	251.74997732426303	68	127
251.58743764172337	251.74997732426303	46	127
251.58743764172337	251.74997732426303	79	127
251.7615873015873	252.02861678004535	63	127
251.7615873015873	252.02861678004535	67	127
251.7615873015873	251.90090702947845	80	127
251.7615873015873	252.02861678004535	58	127
251.91251700680272	252.02861678004535	81	127
252.02861678004535	252.15632653061223	82	127
252.02861678004535	252.27242630385487	75	127
252.02861678004535	252.27242630385487	67	127
252.15632653061223	252.27242630385487	84	127
252.15632653061223	252.27242630385487	46	127
252.28403628117914	252.34208616780046	75	127
252.28403628117914	252.41174603174602	82	127
252.28403628117914	252.56267573696144	67	127
252.28403628117914	252.56267573696144	58	127
252.34208616780046	252.4233560090703	77	127
252.4233560090703	252.56267573696144	75	127
252.4233560090703	252.56267573696144	81	127
252.56267573696144	252.69038548752835	82	127
252.56267573696144	252.80648526077098	72	127
252.56267573696144	252.80648526077098	63	127
252.69038548752835	252.80648526077098	46	127
252.69038548752835	252.80648526077098	84	127
252.81809523809522	252.87614512471654	62	127
252.81809523809522	253.08512471655328	58	127
252.81809523809522	252.87614512471654	70	127
252.81809523809522	252.94580498866213	86	127
252.87614512471654	252.9574149659864	72	127
252.87614512471654	252.9574149659864	63	127
252.9574149659864	253.08512471655328	87	127
252.9574149659864	253.08512471655328	70	127
252.9574149659864	253.08512471655328	62	127
253.08512471655328	253.24766439909297	89	127
253.08512471655328	253.37537414965988	60	127
253.08512471655328	253.37537414965988	69	127
253.24766439909297	253.37537414965988	46	127
253.24766439909297	253.37537414965988	89	127
253.37537414965988	253.43342403628117	72	127
253.37537414965988	253.6772335600907	58	127
253.37537414965988	253.53791383219954	89	127
253.37537414965988	253.43342403628117	63	127
253.43342403628117	253.5495238095238	65	127
253.43342403628117	253.5495238095238	74	127
253.5495238095238	253.6772335600907	72	127
253.5495238095238	253.6772335600907	89	127
253.5495238095238	253.6772335600907	63	127
253.68884353741495	253.8049433106576	91	127
253.68884353741495	253.8629931972789	62	127
253.68884353741495	253.8629931972789	70	127
253.8049433106576	253.9326530612245	46	127
253.8049433106576	253.9326530612245	93	127
253.9326530612245	254.19968253968253	62	127
253.9326530612245	254.19968253968253	58	127
253.9326530612245	254.1184126984127	70	127
253.9326530612245	254.0487528344671	94	127
254.06036281179138	254.19968253968253	82	127
254.2112925170068	254.47832199546485	70	127
254.2112925170068	254.47832199546485	67	127
254.2112925170068	254.35061224489795	84	127
254.35061224489795	254.47832199546485	82	127
254.35061224489795	254.47832199546485	46	127
254.47832199546485	254.5944217687075	84	127
254.47832199546485	254.7801814058957	75	127
254.47832199546485	254.7801814058957	67	127
254.47832199546485	254.7801814058957	58	127
254.60603174603173	254.7801814058957	82	127
254.79179138321996	254.97755102040816	70	127
254.79179138321996	255.10526077097506	65	127
254.79179138321996	255.10526077097506	74	127
254.97755102040816	255.10526077097506	46	127
254.97755102040816	255.10526077097506	80	127
255.10526077097506	255.38390022675736	67	127
255.10526077097506	255.22136054421767	80	127
255.10526077097506	255.38390022675736	75	127
255.10526077097506	255.38390022675736	58	127
255.23297052154194	255.38390022675736	79	127
255.39551020408163	255.55804988662132	67	127
255.39551020408163	255.6857596371882	79	127
255.39551020408163	255.6857596371882	70	127
255.55804988662132	255.6857596371882	77	127
255.55804988662132	255.6857596371882	46	127
255.6857596371882	255.92956916099774	70	127
255.6857596371882	255.92956916099774	67	127
255.6857596371882	255.92956916099774	58	127
255.6857596371882	255.8134693877551	77	127
255.8134693877551	255.92956916099774	75	127
255.94117913832198	256.05727891156465	87	127
255.94117913832198	256.2546485260771	68	127
255.94117913832198	256.2546485260771	65	127
256.08049886621313	256.2546485260771	58	127
256.08049886621313	256.2546485260771	86	127
256.2546485260771	256.4520181405896	87	127
256.2546485260771	256.5681179138322	67	127
256.2546485260771	256.5681179138322	63	127
256.2546485260771	256.5681179138322	63	127
256.4520181405896	256.5681179138322	86	127
256.5797052154195	256.70743764172335	84	127
256.5797052154195	256.83514739229025	75	127
256.5797052154195	256.83514739229025	67	127
256.7190476190476	256.83514739229025	51	127
256.7190476190476	256.83514739229025	83	127
256.83514739229025	257.0789569160998	56	127
256.83514739229025	257.0789569160998	75	127
256.83514739229025	257.0789569160998	72	127
256.83514739229025	256.96285714285716	83	127
256.96285714285716	257.0789569160998	84	127
257.09054421768707	257.20666666666665	86	127
257.09054421768707	257.33437641723356	72	127
257.09054421768707	257.33437641723356	68	127
257.2182766439909	257.33437641723356	87	127
257.2182766439909	257.33437641723356	44	127
257.33437641723356	257.4040136054422	70	127
257.33437641723356	257.46208616780046	88	127
257.33437641723356	257.4040136054422	67	127
257.33437641723356	257.5897959183674	56	127
257.4040136054422	257.46208616780046	68	127
257.4040136054422	257.46208616780046	72	127
257.46208616780046	257.5897959183674	70	127
257.46208616780046	257.5897959183674	89	127
257.46208616780046	257.5897959183674	67	127
257.5897959183674	257.7291156462585	91	127
257.5897959183674	257.8568253968254	65	127
257.5897959183674	257.8568253968254	68	127
257.74072562358276	257.8568253968254	46	127
257.74072562358276	257.8568253968254	92	127
257.86843537414967	258.1354648526077	58	127
257.86843537414967	257.9845351473923	93	127
257.86843537414967	257.9845351473923	63	127
257.86843537414967	258.1354648526077	67	127
257.9961451247166	258.1354648526077	94	127
257.9961451247166	258.1354648526077	58	127
258.14707482993197	258.2747845804989	96	127
258.14707482993197	258.2747845804989	68	127
258.14707482993197	258.2747845804989	58	127
258.2747845804989	258.4024943310658	46	127
258.2747845804989	258.367664399093	65	127
258.2747845804989	258.367664399093	56	127
258.2747845804989	258.4024943310658	98	127
258.41408163265305	258.4953741496599	63	127
258.41408163265305	258.4953741496599	55	127
258.41408163265305	258.5418140589569	51	127
258.41408163265305	258.6695238095238	99	127
258.5418140589569	258.6695238095238	51	127
258.5418140589569	258.6695238095238	70	127
258.5418140589569	258.6695238095238	55	127
258.6695238095238	258.9597732426304	75	127
258.6695238095238	258.7972335600907	72	127
258.6695238095238	258.7972335600907	56	127
258.6695238095238	258.7972335600907	51	127
258.808843537415	258.9597732426304	68	127
258.808843537415	258.9597732426304	53	127
258.808843537415	258.9597732426304	51	127
258.9597732426304	259.1803628117914	51	127
258.9597732426304	259.1803628117914	75	127
258.9597732426304	259.1803628117914	67	127
258.9597732426304	259.1803628117914	55	127
259.3661224489796	259.59832199546486	75	127
259.3661224489796	259.59832199546486	68	127
259.3661224489796	259.59832199546486	63	127
259.3661224489796	259.59832199546486	72	127
259.69120181405896	259.8537188208617	67	127
259.69120181405896	259.8537188208617	75	127
259.69120181405896	259.8537188208617	70	127
259.69120181405896	259.8537188208617	63	127
260.00467120181406	260.178820861678	75	127
260.00467120181406	260.178820861678	68	127
260.00467120181406	260.178820861678	63	127
260.00467120181406	260.178820861678	65	127
260.2717006802721	260.5271201814059	75	127
260.2717006802721	260.4342403628118	67	127
260.2717006802721	260.4342403628118	63	127
260.2717006802721	260.4342403628118	63	127
260.5387301587302	260.6548299319728	77	127
260.5387301587302	260.7128798185941	62	127
260.5387301587302	260.7128798185941	75	127
260.5387301587302	260.7128798185941	65	127
260.6548299319728	260.82897959183674	79	127
260.82897959183674	261.0727664399093	63	127
260.82897959183674	261.0727664399093	75	127
260.82897959183674	261.0727664399093	60	127
260.82897959183674	261.0727664399093	80	127
261.1656689342404	261.32820861678005	58	127
261.1656689342404	261.32820861678005	79	127
261.1656689342404	261.32820861678005	63	127
261.1656689342404	261.32820861678005	75	127
261.4094784580499	261.59521541950113	84	127
261.4094784580499	261.59521541950113	63	127
261.4094784580499	261.59521541950113	75	127
261.4094784580499	261.59521541950113	56	127
261.68809523809523	261.9087074829932	75	127
261.68809523809523	261.86226757369616	70	127
261.68809523809523	261.9087074829932	82	127
261.68809523809523	261.9087074829932	55	127
261.86226757369616	262.0248072562358	72	127
262.0248072562358	262.1292970521542	82	127
262.0248072562358	262.2570068027211	53	127
262.0248072562358	262.2570068027211	70	127
262.0248072562358	262.2570068027211	74	127
262.1292970521542	262.26861678004536	80	127
262.3382766439909	262.5124036281179	51	127
262.3382766439909	262.5124036281179	79	127
262.3382766439909	262.5124036281179	75	127
262.3382766439909	262.5124036281179	70	127
262.59369614512474	262.68657596371884	79	127
262.59369614512474	262.7910657596372	46	127
262.59369614512474	262.7910657596372	70	127
262.59369614512474	262.7910657596372	74	127
262.68657596371884	262.8026757369615	77	127
262.87233560090704	263.0348752834467	72	127
262.87233560090704	263.0348752834467	70	127
262.87233560090704	263.0348752834467	58	127
262.87233560090704	263.0348752834467	75	127
263.13936507936506	263.3483446712018	58	127
263.13936507936506	263.3483446712018	77	127
263.13936507936506	263.3483446712018	74	127
263.13936507936506	263.3483446712018	70	127
263.4295918367347	263.59215419501135	70	127
263.4295918367347	263.59215419501135	65	127
263.4295918367347	263.59215419501135	68	127
263.7430612244898	263.9520634920635	67	127
263.7430612244898	263.9520634920635	75	127
263.7430612244898	263.9520634920635	63	127
264.0681632653061	264.2307029478458	68	127
264.0681632653061	264.2307029478458	75	127
264.0681632653061	264.2307029478458	72	127
264.31197278911566	264.5093424036281	70	127
264.31197278911566	264.5093424036281	75	127
264.31197278911566	264.5093424036281	67	127
264.6022222222222	264.77637188208615	75	127
264.6022222222222	264.77637188208615	68	127
264.6022222222222	264.77637188208615	65	127
264.8808616780045	265.04340136054424	63	127
264.8808616780045	265.13628117913834	75	127
264.8808616780045	265.04340136054424	63	127
264.8808616780045	265.04340136054424	67	127
265.13628117913834	265.3336507936508	62	127
265.13628117913834	265.3336507936508	65	127
265.13628117913834	265.3336507936508	75	127
265.13628117913834	265.26396825396824	77	127
265.2755782312925	265.44975056689344	79	127
265.4613605442177	265.6587301587302	60	127
265.4613605442177	265.6587301587302	80	127
265.4613605442177	265.6587301587302	75	127
265.4613605442177	265.6587301587302	63	127
265.7516099773243	265.9257596371882	79	127
265.7516099773243	265.9257596371882	58	127
265.7516099773243	265.9257596371882	63	127
265.7516099773243	265.9257596371882	75	127
266.0302494331066	266.2856689342404	70	127
266.0302494331066	266.1927664399093	84	127
266.0302494331066	266.1927664399093	75	127
266.0302494331066	266.1927664399093	56	127
266.2856689342404	266.4249886621315	70	127
266.2856689342404	266.4714285714286	82	127
266.2856689342404	266.4714285714286	75	127
266.2856689342404	266.4714285714286	55	127
266.4249886621315	266.5643083900227	72	127
266.57591836734696	266.7732879818594	77	127
266.57591836734696	266.7732879818594	74	127
266.57591836734696	266.7732879818594	53	127
266.57591836734696	266.63396825396825	82	127
266.63396825396825	266.7848979591837	80	127
266.85455782312926	267.0519274376417	75	127
266.85455782312926	267.0519274376417	51	127
266.85455782312926	267.0519274376417	79	127
267.16802721088436	267.22607709750565	79	127
267.16802721088436	267.35378684807256	70	127
267.16802721088436	267.4350566893424	74	127
267.16802721088436	267.4350566893424	58	127
267.22607709750565	267.36539682539683	77	127
267.4350566893424	267.6092063492064	75	127
267.4350566893424	267.6092063492064	72	127
267.6904761904762	267.8297732426304	70	127
267.6904761904762	267.725283446712	75	127
267.725283446712	267.85301587301586	74	127
267.9110657596372	268.1897052154195	46	127
267.9110657596372	268.1084353741497	58	127
267.9110657596372	268.1084353741497	68	127
267.9110657596372	268.1084353741497	72	127
268.2013151927438	268.2825850340136	68	127
268.2013151927438	268.39868480725625	55	127
268.2013151927438	268.2825850340136	72	127
268.2013151927438	268.39868480725625	58	127
268.2825850340136	268.4219047619048	70	127
268.2825850340136	268.4219047619048	67	127
268.5612244897959	268.7934240362812	53	127
268.5612244897959	268.7934240362812	70	127
268.5612244897959	268.7934240362812	65	127
268.5612244897959	268.7934240362812	56	127
268.874693877551	269.0372335600907	51	127
268.874693877551	268.93274376417236	65	127
268.874693877551	268.93274376417236	68	127
268.874693877551	269.0372335600907	55	127
268.93274376417236	269.048820861678	67	127
268.93274376417236	269.048820861678	63	127
269.11850340136056	269.315873015873	58	127
269.11850340136056	269.315873015873	65	127
269.11850340136056	269.315873015873	53	127
269.11850340136056	269.315873015873	46	127
269.39714285714285	269.6409523809524	43	127
269.39714285714285	269.4551927437642	65	127
269.39714285714285	269.6409523809524	55	127
269.39714285714285	269.6409523809524	51	127
269.4551927437642	269.58290249433105	63	127
269.65256235827667	269.8151020408163	62	127
269.89637188208616	269.9660317460318	62	127
269.9660317460318	270.1401814058957	60	127
270.22145124716553	270.43043083900227	58	127
270.53492063492064	270.70907029478457	62	127
270.53492063492064	270.6045804988662	86	127
270.53492063492064	270.70907029478457	80	127
270.6045804988662	270.72068027210884	84	127
270.79031746031745	270.9528798185941	82	127
270.79031746031745	270.9528798185941	63	127
270.79031746031745	270.9528798185941	79	127
271.03414965986394	271.10378684807256	82	127
271.03414965986394	271.2431292517007	62	127
271.03414965986394	271.2431292517007	70	127
271.03414965986394	271.2431292517007	77	127
271.10378684807256	271.25473922902495	80	127
271.3243990929705	271.4869387755102	63	127
271.3243990929705	271.4869387755102	79	127
271.3243990929705	271.4869387755102	75	127
271.3243990929705	271.4869387755102	70	127
271.56820861678005	271.66108843537415	79	127
271.56820861678005	271.78879818594106	74	127
271.56820861678005	271.78879818594106	70	127
271.56820861678005	271.78879818594106	65	127
271.66108843537415	271.80040816326533	77	127
271.93972789115645	272.11385487528344	53	127
271.93972789115645	272.11385487528344	65	127
271.93972789115645	272.11385487528344	72	127
271.93972789115645	272.11385487528344	75	127
272.20675736961454	272.2764172335601	75	127
272.20675736961454	272.38090702947846	58	127
272.20675736961454	272.38090702947846	65	127
272.20675736961454	272.38090702947846	70	127
272.2764172335601	272.39251700680273	74	127
272.48539682539683	272.67115646258503	58	127
272.48539682539683	272.67115646258503	72	127
272.48539682539683	272.67115646258503	63	127
272.48539682539683	272.67115646258503	69	127
272.48539682539683	272.67115646258503	66	127
272.8104761904762	272.98462585034014	42	127
272.8104761904762	272.98462585034014	66	127
272.8104761904762	272.98462585034014	54	127
273.06589569160997	273.2284353741497	43	127
273.06589569160997	273.2284353741497	55	127
273.06589569160997	273.2284353741497	67	127
273.3097052154195	273.5419047619048	51	127
273.3097052154195	273.5419047619048	63	127
273.3097052154195	273.5419047619048	39	127
273.61156462585035	273.7857142857143	43	127
273.61156462585035	273.7857142857143	67	127
273.61156462585035	273.7857142857143	55	127
273.8785941043084	274.0991836734694	56	127
273.8785941043084	274.0991836734694	68	127
273.8785941043084	274.0991836734694	44	127
274.1804535147392	274.3546031746032	45	127
274.1804535147392	274.3546031746032	69	127
274.1804535147392	274.3546031746032	57	127
274.47068027210884	275.10925170068026	60	127
274.47068027210884	274.7145124716553	60	127
274.47068027210884	275.10925170068026	72	127
274.47068027210884	275.10925170068026	48	127
274.47068027210884	275.10925170068026	48	127
274.8654421768708	275.02798185941043	72	127
275.10925170068026	275.28337868480725	61	127
275.10925170068026	275.28337868480725	49	127
275.37628117913835	275.52721088435374	50	127
275.37628117913835	275.52721088435374	62	127
275.60848072562356	275.84068027210884	46	127
275.60848072562356	275.84068027210884	58	127
275.92195011337867	276.11931972789114	62	127
275.92195011337867	276.11931972789114	50	127
276.2121768707483	276.37473922902495	63	127
276.2121768707483	276.37473922902495	51	127
276.4560090702948	276.60693877551023	52	127
276.4560090702948	276.60693877551023	64	127
276.7114285714286	277.2687074829932	67	127
276.7114285714286	276.8971882086168	55	127
276.7114285714286	277.2687074829932	55	127
276.7114285714286	276.8971882086168	67	127
277.01328798185943	277.18743764172336	79	127
277.01328798185943	277.18743764172336	67	127
277.2687074829932	277.4544671201814	64	127
277.2687074829932	277.4544671201814	52	127
277.5821768707483	277.7563265306122	53	127
277.5821768707483	277.7563265306122	65	127
277.87242630385487	278.0814058956916	56	127
277.87242630385487	278.4645124716553	68	127
277.87242630385487	278.0814058956916	68	127
277.87242630385487	278.4645124716553	56	127
278.16267573696143	278.37165532879817	68	127
278.16267573696143	278.37165532879817	80	127
278.4645124716553	278.6618820861678	66	127
278.4645124716553	278.6618820861678	54	127
278.7431746031746	278.9057142857143	67	127
278.7431746031746	278.9057142857143	55	127
278.9985941043084	279.2191836734694	58	127
278.9985941043084	279.5790702947846	70	127
278.9985941043084	279.5790702947846	58	127
278.9985941043084	279.2191836734694	70	127
279.32367346938776	279.4745804988662	82	127
279.32367346938776	279.4745804988662	70	127
279.5790702947846	279.8461224489796	68	127
279.5790702947846	279.8461224489796	41	127
279.5790702947846	280.8910204081633	75	127
279.5790702947846	280.8910204081633	87	127
279.5790702947846	279.8461224489796	56	127
279.92739229024943	280.22925170068027	69	127
279.92739229024943	280.22925170068027	41	127
279.92739229024943	280.22925170068027	57	127
280.3105215419501	280.8910204081633	69	127
280.3105215419501	280.8910204081633	72	127
280.3105215419501	280.8910204081633	53	127
280.3105215419501	280.8910204081633	57	127
280.3105215419501	280.8910204081633	41	127
280.8910204081633	281.0767800453515	56	127
280.8910204081633	281.0767800453515	41	127
280.8910204081633	282.1565079365079	75	127
280.8910204081633	282.1565079365079	87	127
280.8910204081633	281.0767800453515	68	127
281.2509297052154	281.4482993197279	69	127
281.2509297052154	281.4482993197279	41	127
281.2509297052154	281.4482993197279	57	127
281.541179138322	282.1565079365079	69	127
281.541179138322	282.1565079365079	53	127
281.541179138322	282.1565079365079	57	127
281.541179138322	282.1565079365079	41	127
281.541179138322	282.1565079365079	72	127
282.1681179138322	282.3538775510204	68	127
282.1681179138322	282.3538775510204	56	127
282.1681179138322	282.3538775510204	41	127
282.1681179138322	283.41038548752834	75	127
282.1681179138322	283.41038548752834	87	127
282.44673469387754	282.6557142857143	57	127
282.44673469387754	282.6557142857143	69	127
282.44673469387754	282.6557142857143	41	127
282.7485941043084	283.41038548752834	72	127
282.7485941043084	283.41038548752834	69	127
282.7485941043084	283.41038548752834	53	127
282.7485941043084	283.41038548752834	57	127
282.7485941043084	283.41038548752834	41	127
283.4219954648526	283.67739229024943	70	127
283.4219954648526	283.67739229024943	82	127
283.4219954648526	283.67739229024943	58	127
283.4219954648526	283.67739229024943	43	127
283.4219954648526	283.67739229024943	75	127
283.4219954648526	283.67739229024943	87	127
283.67739229024943	283.81673469387755	82	127
283.67739229024943	283.9328344671202	44	127
283.67739229024943	283.9328344671202	60	127
283.67739229024943	283.81673469387755	86	127
283.81673469387755	283.9328344671202	84	127
283.81673469387755	283.9328344671202	80	127
283.94444444444446	284.1069841269841	46	127
283.94444444444446	284.1069841269841	82	127
283.94444444444446	284.1069841269841	79	127
283.94444444444446	284.1069841269841	63	127
284.1998639455782	284.35079365079366	80	127
284.1998639455782	284.35079365079366	77	127
284.1998639455782	284.35079365079366	65	127
284.1998639455782	284.35079365079366	62	127
284.35079365079366	284.47850340136057	79	127
284.35079365079366	284.47850340136057	75	127
284.35079365079366	284.47850340136057	67	127
284.35079365079366	284.47850340136057	63	127
284.5249433106576	284.7107029478458	53	127
284.5249433106576	284.7107029478458	60	127
284.5249433106576	284.7107029478458	41	127
284.5249433106576	284.7107029478458	48	127
284.5249433106576	284.7107029478458	87	127
284.5249433106576	284.7107029478458	80	127
284.8384126984127	285.0938321995465	53	127
284.8384126984127	285.0938321995465	41	127
284.8384126984127	285.0938321995465	48	127
284.8384126984127	285.0938321995465	81	127
284.8384126984127	285.0938321995465	60	127
284.8384126984127	284.94290249433107	89	127
284.8384126984127	285.0938321995465	69	127
284.94290249433107	285.0938321995465	87	127
285.0938321995465	285.1983219954649	86	127
285.1983219954649	285.7439909297052	53	127
285.1983219954649	285.7439909297052	41	127
285.1983219954649	285.7439909297052	69	127
285.1983219954649	285.7439909297052	48	127
285.1983219954649	285.7439909297052	84	127
285.1983219954649	285.7439909297052	60	127
285.1983219954649	285.36086167800454	87	127
285.4769614512472	285.58145124716555	89	127
285.58145124716555	285.6627210884354	87	127
285.6627210884354	285.7439909297052	86	127
285.7439909297052	285.9065306122449	48	127
285.7439909297052	285.9065306122449	87	127
285.7439909297052	285.9065306122449	80	127
285.7439909297052	285.9065306122449	53	127
285.7439909297052	285.9065306122449	60	127
285.7439909297052	285.9065306122449	41	127
286.0110204081633	286.20839002267576	53	127
286.0110204081633	286.20839002267576	41	127
286.0110204081633	286.20839002267576	48	127
286.0110204081633	286.20839002267576	81	127
286.0110204081633	286.20839002267576	60	127
286.0110204081633	286.1270975056689	89	127
286.0110204081633	286.20839002267576	69	127
286.1270975056689	286.20839002267576	87	127
286.20839002267576	286.2896598639456	86	127
286.2896598639456	286.85854875283445	53	127
286.2896598639456	286.85854875283445	41	127
286.2896598639456	286.85854875283445	60	127
286.2896598639456	286.85854875283445	48	127
286.2896598639456	286.48702947845806	87	127
286.2896598639456	286.85854875283445	69	127
286.2896598639456	286.85854875283445	84	127
286.5915192743764	286.6843990929705	89	127
286.6843990929705	286.76566893424035	87	127
286.76566893424035	286.85854875283445	86	127
286.85854875283445	287.0559183673469	60	127
286.85854875283445	287.0559183673469	87	127
286.85854875283445	287.0559183673469	80	127
286.85854875283445	287.0559183673469	53	127
286.85854875283445	287.0559183673469	41	127
286.85854875283445	287.0559183673469	48	127
287.1487755102041	287.2416780045352	89	127
287.1487755102041	287.3345578231293	41	127
287.1487755102041	287.3345578231293	48	127
287.1487755102041	287.3345578231293	69	127
287.1487755102041	287.3345578231293	81	127
287.1487755102041	287.3345578231293	53	127
287.1487755102041	287.3345578231293	60	127
287.2416780045352	287.3345578231293	87	127
287.3345578231293	287.4274376417234	86	127
287.4274376417234	287.61319727891157	87	127
287.4274376417234	287.97308390022675	60	127
287.4274376417234	287.97308390022675	41	127
287.4274376417234	287.97308390022675	48	127
287.4274376417234	287.97308390022675	69	127
287.4274376417234	287.97308390022675	84	127
287.4274376417234	287.97308390022675	53	127
287.70607709750567	287.81056689342404	89	127
287.81056689342404	287.89183673469387	87	127
287.89183673469387	287.97308390022675	86	127
287.97308390022675	288.25174603174605	55	127
287.97308390022675	288.1124263038549	70	127
287.97308390022675	288.25174603174605	87	127
287.97308390022675	288.25174603174605	43	127
288.1124263038549	288.25174603174605	82	127
288.2633560090703	288.37943310657596	86	127
288.2633560090703	288.37943310657596	82	127
288.2633560090703	288.5187755102041	48	127
288.2633560090703	288.5187755102041	44	127
288.3910657596372	288.5187755102041	84	127
288.3910657596372	288.5187755102041	80	127
288.5187755102041	288.7045351473923	46	127
288.5187755102041	288.65809523809526	51	127
288.5187755102041	288.7045351473923	82	127
288.5187755102041	288.7045351473923	79	127
288.65809523809526	288.78578231292516	63	127
288.7974149659864	288.913514739229	80	127
288.7974149659864	288.913514739229	77	127
288.7974149659864	288.913514739229	65	127
288.7974149659864	288.913514739229	62	127
288.97156462585036	289.087641723356	79	127
288.97156462585036	289.087641723356	75	127
288.97156462585036	289.087641723356	67	127
288.97156462585036	289.087641723356	63	127
289.087641723356	289.2269841269841	82	127
289.087641723356	289.2269841269841	79	127
289.087641723356	289.2269841269841	63	127
289.2269841269841	289.3198639455782	62	127
289.2269841269841	289.34308390022676	80	127
289.2269841269841	289.34308390022676	77	127
289.2269841269841	289.34308390022676	65	127
289.35469387755103	289.48240362811794	62	127
289.35469387755103	289.5056009070295	79	127
289.35469387755103	289.5056009070295	76	127
289.35469387755103	289.5056009070295	67	127
289.5172335600907	289.5984807256236	62	127
289.5172335600907	289.6333333333333	80	127
289.5172335600907	289.6333333333333	77	127
289.5172335600907	289.6333333333333	65	127
289.6333333333333	289.8190929705215	80	127
289.6333333333333	289.8190929705215	77	127
289.6333333333333	289.8190929705215	65	127
289.6333333333333	289.8190929705215	62	127
289.9003628117914	290.10931972789115	80	127
289.9003628117914	290.10931972789115	77	127
289.9003628117914	290.10931972789115	65	127
289.9003628117914	290.10931972789115	62	127
290.2138095238095	290.34154195011337	80	127
290.2138095238095	290.34154195011337	77	127
290.2138095238095	290.34154195011337	65	127
290.34154195011337	290.4692517006803	75	127
290.34154195011337	290.43442176870747	67	127
290.34154195011337	290.43442176870747	63	127
290.34154195011337	290.4692517006803	79	127
290.4692517006803	290.5621315192744	67	127
290.4692517006803	290.5621315192744	63	127
290.4692517006803	290.5853514739229	78	127
290.4692517006803	290.5853514739229	74	127
290.5969614512472	290.678231292517	67	127
290.5969614512472	290.678231292517	63	127
290.5969614512472	290.7130612244898	79	127
290.5969614512472	290.7130612244898	75	127
290.7246485260771	290.9336281179138	67	127
290.7246485260771	290.9336281179138	63	127
290.7246485260771	291.07297052154195	79	127
290.7246485260771	291.07297052154195	75	127
291.07297052154195	291.2703401360544	63	127
291.07297052154195	291.2703401360544	60	127
291.42126984126986	291.61863945578233	62	127
291.42126984126986	291.61863945578233	58	127
291.61863945578233	291.7695691609977	60	127
291.61863945578233	291.7695691609977	56	127
291.7695691609977	291.8972789115646	58	127
291.7695691609977	291.8972789115646	55	127
291.8972789115646	292.01337868480726	60	127
291.8972789115646	292.01337868480726	56	127
292.02498866213153	292.19913832199546	58	127
292.02498866213153	292.19913832199546	55	127
292.29201814058956	292.46614512471655	60	127
292.29201814058956	292.46614512471655	56	127
292.5706349206349	292.6867573696145	58	127
292.5706349206349	292.6867573696145	55	127
292.69836734693877	292.8260770975057	56	127
292.69836734693877	292.8260770975057	53	127
292.8260770975057	292.9769841269841	55	127
292.8260770975057	292.9769841269841	51	127
292.9769841269841	293.0931065759637	56	127
292.9769841269841	293.0931065759637	53	127
293.104716553288	293.30208616780044	55	127
293.104716553288	293.30208616780044	51	127
293.4414058956916	293.6387755102041	84	127
293.4414058956916	293.6387755102041	80	127
293.4414058956916	293.68521541950116	67	127
293.4414058956916	293.68521541950116	63	127
293.6387755102041	293.7548752834467	82	127
293.6387755102041	293.7548752834467	77	127
293.766485260771	293.88258503401363	82	127
293.766485260771	293.88258503401363	79	127
293.766485260771	293.88258503401363	63	127
293.766485260771	293.88258503401363	60	127
293.8941723356009	293.97546485260773	62	127
293.8941723356009	294.0102947845805	80	127
293.8941723356009	294.0102947845805	77	127
293.8941723356009	294.0102947845805	65	127
294.0102947845805	294.11478458049885	62	127
294.0102947845805	294.1612244897959	79	127
294.0102947845805	294.1612244897959	76	127
294.0102947845805	294.1612244897959	67	127
294.1612244897959	294.25410430839	62	127
294.1612244897959	294.28893424036283	80	127
294.1612244897959	294.28893424036283	77	127
294.1612244897959	294.28893424036283	65	127
294.28893424036283	294.4514739229025	80	127
294.28893424036283	294.4514739229025	77	127
294.28893424036283	294.4514739229025	65	127
294.28893424036283	294.4514739229025	62	127
294.6139909297052	294.83460317460316	80	127
294.6139909297052	294.83460317460316	77	127
294.6139909297052	294.83460317460316	65	127
294.6139909297052	294.83460317460316	62	127
294.91585034013605	295.0319727891156	80	127
294.91585034013605	295.0319727891156	77	127
294.91585034013605	295.0319727891156	65	127
294.91585034013605	295.0319727891156	62	127
295.0435827664399	295.1248299319728	67	127
295.0435827664399	295.1248299319728	63	127
295.0435827664399	295.15968253968254	79	127
295.0435827664399	295.15968253968254	75	127
295.1712925170068	295.2641723356009	67	127
295.1712925170068	295.2641723356009	63	127
295.1712925170068	295.310612244898	78	127
295.1712925170068	295.310612244898	74	127
295.310612244898	295.41510204081635	67	127
295.310612244898	295.41510204081635	63	127
295.310612244898	295.46154195011337	79	127
295.310612244898	295.46154195011337	75	127
295.46154195011337	295.63566893424036	79	127
295.46154195011337	295.63566893424036	75	127
295.46154195011337	295.72857142857146	67	127
295.46154195011337	295.72857142857146	63	127
295.7401587301587	295.91433106575965	82	127
295.7401587301587	295.91433106575965	79	127
296.00721088435375	296.13492063492066	82	127
296.00721088435375	296.13492063492066	79	127
296.00721088435375	296.13492063492066	48	127
296.00721088435375	296.13492063492066	45	127
296.13492063492066	296.2742403628118	80	127
296.13492063492066	296.2742403628118	77	127
296.13492063492066	296.2742403628118	50	127
296.13492063492066	296.2742403628118	46	127
296.3090702947846	296.4948299319728	76	127
296.3090702947846	296.4948299319728	79	127
296.4948299319728	296.6225396825397	80	127
296.4948299319728	296.6225396825397	77	127
296.6225396825397	296.7966893424036	80	127
296.6225396825397	296.7966893424036	77	127
296.86632653061224	297.0288888888889	80	127
296.86632653061224	297.0288888888889	77	127
297.11015873015873	297.2494784580499	82	127
297.11015873015873	297.2494784580499	79	127
297.11015873015873	297.2494784580499	50	127
297.11015873015873	297.4352380952381	47	127
297.2610884353742	297.4352380952381	77	127
297.2610884353742	297.4352380952381	80	127
297.2610884353742	297.4352380952381	51	127
297.4468480725624	297.5861678004535	79	127
297.4468480725624	297.5861678004535	76	127
297.59777777777776	297.7138775510204	80	127
297.59777777777776	297.7138775510204	77	127
297.7138775510204	297.8880045351474	80	127
297.7138775510204	297.8880045351474	77	127
297.9692970521542	298.1202267573696	80	127
297.9692970521542	298.1202267573696	77	127
298.2131065759637	298.3524263038549	50	127
298.2131065759637	298.3524263038549	80	127
298.2131065759637	298.3524263038549	77	127
298.2131065759637	298.3524263038549	47	127
298.3524263038549	298.49172335600906	79	127
298.3524263038549	298.49172335600906	75	127
298.3524263038549	298.49172335600906	51	127
298.3524263038549	298.49172335600906	48	127
298.50333333333333	298.6542857142857	77	127
298.50333333333333	298.6542857142857	74	127
298.6542857142857	298.7819954648526	79	127
298.6542857142857	298.7819954648526	75	127
298.7936054421769	298.9793650793651	79	127
298.7936054421769	298.9793650793651	75	127
299.0606349206349	299.2463945578231	79	127
299.0606349206349	299.2463945578231	75	127
299.3508843537415	299.5134013605442	51	127
299.3508843537415	299.5134013605442	48	127
299.3508843537415	299.90816326530614	79	127
299.3508843537415	299.90816326530614	75	127
299.5134013605442	299.90816326530614	55	127
299.5134013605442	299.90816326530614	51	127
299.90816326530614	300.18680272108844	79	127
299.90816326530614	300.18680272108844	75	127
300.1984126984127	300.4886621315193	79	127
300.1984126984127	300.4886621315193	75	127
300.4886621315193	300.6628117913832	75	127
300.4886621315193	300.6628117913832	79	127
300.6628117913832	300.84854875283446	52	127
300.6628117913832	301.1039909297052	79	127
300.6628117913832	301.1039909297052	76	127
300.6628117913832	300.84854875283446	48	127
300.84854875283446	301.1039909297052	55	127
300.84854875283446	301.1039909297052	52	127
301.1039909297052	301.56836734693877	76	127
301.1039909297052	301.56836734693877	60	127
301.1039909297052	301.56836734693877	79	127
301.58	302.07920634920634	79	127
301.58	302.07920634920634	76	127
301.58	302.07920634920634	60	127
302.09083900226756	303.1937641723356	60	127
302.09083900226756	303.1937641723356	79	127
302.09083900226756	303.1937641723356	76	127
303.20537414965986	303.3098866213152	76	127
303.20537414965986	309.3238548752835	60	127
303.20537414965986	303.3098866213152	79	127
303.3098866213152	303.3795464852608	80	127
303.3098866213152	303.3795464852608	77	127
303.3795464852608	303.44920634920635	79	127
303.3795464852608	303.44920634920635	76	127
303.44920634920635	303.5188662131519	80	127
303.44920634920635	303.5188662131519	77	127
303.5188662131519	303.6001360544218	76	127
303.5188662131519	303.6001360544218	79	127
303.6001360544218	303.66979591836736	77	127
303.6001360544218	303.66979591836736	80	127
303.66979591836736	303.7394557823129	76	127
303.66979591836736	303.7394557823129	79	127
303.7394557823129	303.80909297052153	77	127
303.7394557823129	303.80909297052153	80	127
303.80909297052153	303.8787755102041	76	127
303.80909297052153	303.8787755102041	79	127
303.8787755102041	303.94843537414965	77	127
303.8787755102041	303.94843537414965	80	127
303.94843537414965	304.01807256235827	76	127
303.94843537414965	304.01807256235827	79	127
304.01807256235827	304.08775510204083	77	127
304.01807256235827	304.08775510204083	80	127
304.08775510204083	304.1458049886621	76	127
304.08775510204083	304.1458049886621	79	127
304.1458049886621	304.21546485260774	77	127
304.1458049886621	304.21546485260774	80	127
304.21546485260774	304.2851247165533	79	127
304.21546485260774	304.2851247165533	76	127
304.2851247165533	304.3663945578231	80	127
304.2851247165533	304.3663945578231	77	127
304.3663945578231	304.4360544217687	76	127
304.3663945578231	304.4360544217687	79	127
304.4360544217687	304.5173242630386	77	127
304.4360544217687	304.5173242630386	80	127
304.5173242630386	304.6102040816327	76	127
304.5173242630386	304.6102040816327	79	127
304.6102040816327	304.67986394557823	77	127
304.6102040816327	304.67986394557823	80	127
304.67986394557823	304.7495238095238	76	127
304.67986394557823	304.7495238095238	79	127
304.7495238095238	304.8191836734694	77	127
304.7495238095238	304.8191836734694	80	127
304.8191836734694	304.88884353741497	76	127
304.8191836734694	304.88884353741497	79	127
304.88884353741497	304.95850340136053	77	127
304.88884353741497	304.95850340136053	80	127
304.95850340136053	305.02816326530615	76	127
304.95850340136053	305.02816326530615	79	127
305.02816326530615	305.109433106576	77	127
305.02816326530615	305.109433106576	80	127
305.109433106576	305.17909297052154	76	127
305.109433106576	305.17909297052154	79	127
305.17909297052154	305.24873015873015	80	127
305.17909297052154	305.24873015873015	77	127
305.24873015873015	305.3184126984127	79	127
305.24873015873015	305.3184126984127	76	127
305.3184126984127	305.3880725623583	77	127
305.3184126984127	305.3880725623583	80	127
305.3880725623583	305.4809523809524	76	127
305.3880725623583	305.4809523809524	79	127
305.4809523809524	305.550589569161	77	127
305.4809523809524	305.550589569161	80	127
305.550589569161	305.6318820861678	76	127
305.550589569161	305.6318820861678	79	127
305.6318820861678	305.7247619047619	77	127
305.6318820861678	305.7247619047619	80	127
305.7247619047619	305.80603174603175	76	127
305.7247619047619	305.80603174603175	79	127
305.80603174603175	305.89891156462585	77	127
305.80603174603175	305.89891156462585	80	127
305.89891156462585	306.0034013605442	76	127
305.89891156462585	306.0034013605442	79	127
306.0034013605442	306.0730612244898	77	127
306.0034013605442	306.0730612244898	81	127
306.0730612244898	306.1427210884354	76	127
306.0730612244898	306.1427210884354	79	127
306.1427210884354	306.2239909297052	81	127
306.1427210884354	306.2239909297052	77	127
306.2239909297052	306.2936507936508	79	127
306.2239909297052	306.2936507936508	76	127
306.2936507936508	306.37489795918367	77	127
306.2936507936508	306.37489795918367	81	127
306.37489795918367	306.44458049886623	79	127
306.37489795918367	306.44458049886623	76	127
306.44458049886623	306.5142403628118	81	127
306.44458049886623	306.5142403628118	77	127
306.5142403628118	306.58390022675735	76	127
306.5142403628118	306.58390022675735	79	127
306.58390022675735	306.65356009070297	77	127
306.58390022675735	306.65356009070297	81	127
306.65356009070297	306.7232199546485	76	127
306.65356009070297	306.7232199546485	79	127
306.7232199546485	306.7928798185941	77	127
306.7232199546485	306.7928798185941	81	127
306.7928798185941	306.8625396825397	76	127
306.7928798185941	306.8625396825397	79	127
306.8625396825397	306.9554195011338	77	127
306.8625396825397	306.9554195011338	81	127
306.9554195011338	307.0482993197279	76	127
306.9554195011338	307.0482993197279	79	127
307.0482993197279	307.15278911564627	77	127
307.0482993197279	307.15278911564627	81	127
307.15278911564627	307.22244897959183	79	127
307.15278911564627	307.22244897959183	76	127
307.22244897959183	307.3269387755102	81	127
307.22244897959183	307.3269387755102	77	127
307.3269387755102	307.3965759637188	79	127
307.3269387755102	307.3965759637188	76	127
307.3965759637188	307.47786848072565	77	127
307.3965759637188	307.47786848072565	81	127
307.47786848072565	307.582358276644	76	127
307.47786848072565	307.582358276644	79	127
307.582358276644	307.6520181405896	77	127
307.582358276644	307.6520181405896	81	127
307.6520181405896	307.72167800453514	76	127
307.6520181405896	307.72167800453514	79	127
307.72167800453514	307.802925170068	77	127
307.72167800453514	307.802925170068	81	127
307.802925170068	307.8726077097506	76	127
307.802925170068	307.8726077097506	79	127
307.8726077097506	307.9538775510204	77	127
307.8726077097506	307.9538775510204	81	127
307.9538775510204	308.023537414966	76	127
307.9538775510204	308.023537414966	79	127
308.023537414966	308.0931972789116	81	127
308.023537414966	308.0931972789116	77	127
308.0931972789116	308.16285714285715	79	127
308.0931972789116	308.16285714285715	76	127
308.16285714285715	308.3021768707483	81	127
308.16285714285715	308.3021768707483	77	127
308.3021768707483	308.41825396825396	76	127
308.3021768707483	308.41825396825396	79	127
308.41825396825396	308.5227664399093	81	127
308.41825396825396	308.5227664399093	77	127
308.5227664399093	308.731746031746	76	127
308.5227664399093	308.731746031746	79	127
308.731746031746	308.80140589569163	81	127
308.731746031746	308.80140589569163	77	127
308.80140589569163	309.16131519274376	79	127
308.80140589569163	309.16131519274376	76	127
309.16131519274376	309.3238548752835	81	127
309.16131519274376	309.3238548752835	77	127
309.3238548752835	309.39351473922903	79	127
309.3238548752835	309.39351473922903	76	127
309.3238548752835	309.76503401360543	60	127
309.3238548752835	309.76503401360543	64	127
309.39351473922903	309.47478458049886	81	127
309.39351473922903	309.47478458049886	77	127
309.47478458049886	309.5444217687075	79	127
309.47478458049886	309.5444217687075	76	127
309.5444217687075	309.61410430839004	81	127
309.5444217687075	309.61410430839004	77	127
309.61410430839004	309.69537414965987	79	127
309.61410430839004	309.69537414965987	76	127
309.69537414965987	309.76503401360543	81	127
309.69537414965987	309.76503401360543	77	127
309.76503401360543	310.5429024943311	67	127
309.76503401360543	310.5429024943311	64	127
309.76503401360543	309.88113378684807	79	127
309.76503401360543	309.88113378684807	76	127
309.88113378684807	309.97401360544217	77	127
309.88113378684807	309.97401360544217	81	127
309.97401360544217	310.05526077097505	79	127
309.97401360544217	310.05526077097505	76	127
310.05526077097505	310.1249433106576	81	127
310.05526077097505	310.1249433106576	77	127
310.1249433106576	310.3107029478458	79	127
310.1249433106576	310.3107029478458	76	127
310.3107029478458	310.55448979591836	81	127
310.3107029478458	310.55448979591836	77	127
310.55448979591836	310.6357823129252	79	127
310.55448979591836	310.6357823129252	76	127
310.6357823129252	310.717052154195	81	127
310.6357823129252	310.717052154195	77	127
310.717052154195	310.7867120181406	79	127
310.717052154195	310.7867120181406	76	127
310.7867120181406	310.8795918367347	77	127
310.7867120181406	310.8795918367347	81	127
310.8795918367347	310.9492517006803	79	127
310.8795918367347	310.9492517006803	76	127
310.9492517006803	311.0305215419501	81	127
310.9492517006803	311.0305215419501	77	127
311.0305215419501	311.5297505668934	60	127
311.0305215419501	311.15823129251703	79	127
311.0305215419501	311.15823129251703	76	127
311.0305215419501	311.5297505668934	64	127
311.1814512471655	311.39043083900225	74	127
311.1814512471655	311.39043083900225	77	127
311.4020408163265	311.5297505668934	76	127
311.4020408163265	311.5297505668934	72	127
311.5413605442177	311.9825396825397	67	127
311.5413605442177	311.9825396825397	64	127
311.5413605442177	311.70390022675736	71	127
311.5413605442177	311.70390022675736	74	127
311.7155102040816	311.84321995464853	72	127
311.7155102040816	311.84321995464853	69	127
311.8548299319728	311.9825396825397	67	127
311.8548299319728	311.9825396825397	71	127
311.994126984127	312.12185941043083	69	127
311.994126984127	312.12185941043083	65	127
312.1334693877551	312.2959863945578	64	127
312.1334693877551	312.2959863945578	67	127
312.307619047619	312.4469387755102	71	127
312.307619047619	312.4469387755102	62	127
312.4585487528345	312.9461678004535	72	127
312.4585487528345	318.7395238095238	60	127
312.4585487528345	312.59786848072565	64	127
312.4585487528345	312.9461678004535	64	127
312.6094557823129	312.7604081632653	60	127
312.7720181405896	312.9461678004535	62	127
312.9577777777778	313.851746031746	72	127
312.9577777777778	313.364126984127	79	127
312.9577777777778	313.0854875283447	64	127
313.09709750566896	313.22478458049886	65	127
313.2364172335601	313.364126984127	67	127
313.364126984127	313.5498866213152	76	127
313.364126984127	313.5382766439909	69	127
313.5382766439909	313.6775963718821	71	127
313.60793650793653	313.7704761904762	72	127
313.6775963718821	313.851746031746	72	127
313.851746031746	314.10716553287983	67	127
313.851746031746	314.02589569161	74	127
313.851746031746	315.2449433106576	71	127
314.02589569161	314.22326530612247	76	127
314.10716553287983	315.2449433106576	77	127
314.22326530612247	314.38580498866213	72	127
314.38580498866213	314.51351473922904	71	127
314.5251247165533	314.6528117913832	69	127
314.6644444444444	314.79215419501134	67	127
314.8037641723356	314.95467120181405	65	127
314.96630385487526	315.09401360544217	64	127
315.10562358276644	315.2449433106576	62	127
315.2565532879819	315.77897959183673	72	127
315.2565532879819	315.395873015873	64	127
315.2565532879819	315.77897959183673	64	127
315.4074829931973	315.60485260770974	60	127
315.616462585034	315.77897959183673	62	127
315.79061224489794	316.76585034013607	72	127
315.79061224489794	316.27823129251703	79	127
315.79061224489794	315.9299319727891	64	127
315.9415419501134	316.10408163265305	65	127
316.1156916099773	316.27823129251703	67	127
316.2898185941043	316.45238095238096	76	127
316.2898185941043	316.4291609977324	69	127
316.4407709750567	316.6149206349206	71	127
316.54526077097506	316.7078004535147	72	127
316.6265306122449	316.76585034013607	72	127
316.77746031746034	318.7395238095238	63	127
316.77746031746034	316.90514739229025	72	127
316.77746031746034	316.9864399092971	66	127
316.91678004535146	317.09092970521544	75	127
316.99802721088435	318.1590476190476	78	127
317.1025170068027	317.27668934240364	72	127
317.2882993197279	317.4392290249433	75	127
317.45083900226757	317.601768707483	72	127
317.6133560090703	317.7526984126984	75	127
317.7526984126984	317.8920181405896	72	127
317.8920181405896	318.0313378684807	75	127
318.0313378684807	318.1590476190476	72	127
318.1590476190476	318.3912471655329	75	127
318.1590476190476	318.46090702947845	67	127
318.3912471655329	318.58861678004536	72	127
318.46090702947845	318.7395238095238	79	127
318.58861678004536	318.7395238095238	75	127
318.7395238095238	318.86725623582765	72	127
318.7395238095238	318.93691609977327	72	127
318.7395238095238	318.93691609977327	56	127
318.7395238095238	318.94850340136054	68	127
318.8788662131519	319.00657596371883	75	127
318.94850340136054	319.1575056689342	80	127
319.0181859410431	319.1575056689342	73	127
319.1691156462585	319.2968253968254	75	127
319.1691156462585	319.2968253968254	72	127
319.30843537414967	319.4593424036281	77	127
319.30843537414967	319.4593424036281	73	127
319.4709750566893	319.6102947845805	73	127
319.4709750566893	319.6102947845805	70	127
319.6219047619048	319.76120181405895	72	127
319.6219047619048	319.76120181405895	68	127
319.77283446712016	319.90054421768707	73	127
319.77283446712016	319.90054421768707	70	127
319.91215419501134	320.03986394557825	70	127
319.91215419501134	320.03986394557825	67	127
320.0514739229025	320.17918367346937	68	127
320.0514739229025	320.17918367346937	65	127
320.19079365079364	320.31850340136054	70	127
320.19079365079364	320.31850340136054	67	127
320.3301133786848	320.469433106576	67	127
320.3301133786848	320.469433106576	63	127
320.48102040816326	320.63197278911565	65	127
320.48102040816326	320.63197278911565	61	127
320.6435827664399	320.8061224489796	60	127
320.6435827664399	320.8061224489796	63	127
320.81773242630385	321.00349206349205	67	127
320.81773242630385	321.00349206349205	58	127
321.07315192743766	321.5259410430839	68	127
321.07315192743766	321.2356916099773	63	127
321.07315192743766	321.2356916099773	60	127
321.07315192743766	327.0987301587302	44	127
321.2473015873016	321.3750113378685	60	127
321.2473015873016	321.3750113378685	56	127
321.38662131519277	321.5259410430839	58	127
321.38662131519277	321.5259410430839	61	127
321.53755102040816	321.67687074829934	63	127
321.53755102040816	322.013537414966	75	127
321.53755102040816	321.67687074829934	60	127
321.6884807256236	321.8742403628118	61	127
321.6884807256236	321.8742403628118	65	127
321.8858503401361	322.013537414966	67	127
321.8858503401361	322.013537414966	63	127
322.013537414966	322.16448979591837	65	127
322.013537414966	322.17609977324264	72	127
322.013537414966	322.16448979591837	68	127
322.16448979591837	322.30380952380955	70	127
322.16448979591837	322.30380952380955	67	127
322.23414965986393	322.3850793650794	68	127
322.30380952380955	322.44312925170067	68	127
322.30380952380955	322.44312925170067	72	127
322.44312925170067	322.58244897959185	70	127
322.44312925170067	322.6985487528345	63	127
322.44312925170067	322.58244897959185	73	127
322.58244897959185	322.7914285714286	68	127
322.58244897959185	322.7914285714286	72	127
322.6985487528345	323.81310657596373	73	127
322.7914285714286	322.93072562358276	67	127
322.7914285714286	322.93072562358276	70	127
322.93072562358276	323.0700680272109	68	127
322.93072562358276	323.0700680272109	65	127
323.08167800453515	323.20938775510206	67	127
323.08167800453515	323.20938775510206	63	127
323.2209977324263	323.3487074829932	61	127
323.2209977324263	323.3487074829932	65	127
323.36031746031745	323.52285714285716	63	127
323.36031746031745	323.52285714285716	60	127
323.53446712018143	323.67378684807255	61	127
323.53446712018143	323.67378684807255	65	127
323.6853968253968	323.81310657596373	67	127
323.6853968253968	323.81310657596373	58	127
323.824716553288	323.9524036281179	60	127
323.824716553288	324.25426303854874	68	127
323.824716553288	323.9524036281179	63	127
323.9640362811791	324.091746031746	56	127
323.9640362811791	324.091746031746	60	127
324.1033560090703	324.25426303854874	61	127
324.1033560090703	324.25426303854874	58	127
324.265873015873	324.39360544217686	63	127
324.265873015873	324.39360544217686	60	127
324.265873015873	324.71868480725624	75	127
324.40521541950113	324.53292517006804	65	127
324.40521541950113	324.53292517006804	61	127
324.5445351473923	324.71868480725624	67	127
324.5445351473923	324.71868480725624	63	127
324.7302947845805	324.8580045351474	65	127
324.7302947845805	324.8580045351474	68	127
324.7302947845805	324.8812244897959	72	127
324.8695918367347	325.0089342403628	70	127
324.8695918367347	325.0089342403628	67	127
324.93927437641725	325.09020408163263	68	127
325.0205442176871	325.15986394557825	68	127
325.0205442176871	325.15986394557825	72	127
325.1714739229025	325.2991836734694	68	127
325.1714739229025	325.38043083900226	62	127
325.1714739229025	325.2991836734694	71	127
325.31079365079364	325.43850340136055	68	127
325.31079365079364	325.43850340136055	71	127
325.38043083900226	326.5414512471655	74	127
325.4501133786848	325.6126530612245	71	127
325.4501133786848	325.6126530612245	68	127
325.62426303854875	325.75197278911565	68	127
325.62426303854875	325.75197278911565	71	127
325.7635827664399	325.9145124716553	68	127
325.7635827664399	325.9145124716553	71	127
325.9261224489796	326.06544217687076	68	127
325.9261224489796	326.06544217687076	71	127
326.06544217687076	326.20473922902494	71	127
326.06544217687076	326.20473922902494	68	127
326.20473922902494	326.39052154195014	68	127
326.20473922902494	326.39052154195014	71	127
326.39052154195014	326.5414512471655	68	127
326.39052154195014	326.5414512471655	71	127
326.5414512471655	326.7736507936508	63	127
326.5414512471655	326.6807709750567	71	127
326.5414512471655	326.6807709750567	68	127
326.6807709750567	326.959410430839	68	127
326.6807709750567	326.959410430839	71	127
326.7736507936508	327.0987301587302	75	127
326.959410430839	327.0987301587302	68	127
326.959410430839	327.0987301587302	71	127
327.0987301587302	327.2380498866213	68	127
327.0987301587302	327.3077097505669	40	127
327.0987301587302	327.3193197278912	64	127
327.0987301587302	327.2380498866213	71	127
327.24965986394557	327.3773696145125	68	127
327.24965986394557	327.3773696145125	71	127
327.3193197278912	327.53990929705213	76	127
327.38897959183674	327.53990929705213	71	127
327.38897959183674	327.53990929705213	68	127
327.5515192743764	327.6792290249433	56	127
327.5515192743764	327.6792290249433	64	127
327.5515192743764	327.6792290249433	76	127
327.70244897959185	327.98108843537415	64	127
327.70244897959185	327.98108843537415	75	127
327.70244897959185	327.98108843537415	56	127
327.9926984126984	328.1204081632653	64	127
327.9926984126984	328.1204081632653	73	127
327.9926984126984	328.1204081632653	56	127
328.1320181405896	328.2713378684807	64	127
328.1320181405896	328.2713378684807	71	127
328.1320181405896	328.2713378684807	56	127
328.282947845805	328.4106575963719	66	127
328.282947845805	328.4106575963719	69	127
328.282947845805	328.4106575963719	57	127
328.43387755102043	328.57319727891155	68	127
328.43387755102043	328.57319727891155	59	127
328.5848072562358	328.724126984127	69	127
328.5848072562358	328.724126984127	66	127
328.5848072562358	328.724126984127	61	127
328.73573696145127	328.8634240362812	71	127
328.73573696145127	328.8634240362812	64	127
328.73573696145127	328.8634240362812	63	127
328.8750566893424	329.02598639455783	64	127
328.8750566893424	329.02598639455783	73	127
328.8750566893424	329.02598639455783	63	127
329.0375963718821	329.1769160997732	75	127
329.0375963718821	329.1769160997732	66	127
329.0375963718821	329.1769160997732	61	127
329.20013605442176	329.3626757369615	76	127
329.20013605442176	329.3626757369615	59	127
329.20013605442176	329.3626757369615	68	127
329.37426303854875	329.5019954648526	69	127
329.37426303854875	329.5019954648526	78	127
329.37426303854875	329.5019954648526	57	127
329.51360544217687	329.65292517006804	80	127
329.51360544217687	329.65292517006804	56	127
329.51360544217687	329.9895918367347	71	127
329.51360544217687	329.9895918367347	64	127
329.6645351473923	329.80385487528343	76	127
329.6645351473923	329.80385487528343	80	127
329.8154648526077	329.9895918367347	78	127
330.0012244897959	330.1405442176871	76	127
330.0012244897959	330.1405442176871	80	127
330.0012244897959	330.50043083900226	71	127
330.0012244897959	335.434693877551	52	127
330.15215419501135	330.3495238095238	75	127
330.15215419501135	330.3495238095238	81	127
330.3611337868481	330.50043083900226	83	127
330.3611337868481	330.50043083900226	73	127
330.50043083900226	330.65138321995465	71	127
330.50043083900226	330.65138321995465	85	127
330.50043083900226	330.6629931972789	68	127
330.65138321995465	330.8139229024943	69	127
330.65138321995465	330.8139229024943	87	127
330.74426303854875	330.8951927437642	64	127
330.8139229024943	330.9532426303855	88	127
330.8139229024943	330.9532426303855	68	127
330.9532426303855	331.10414965986394	90	127
330.9532426303855	331.10414965986394	66	127
330.9532426303855	331.2202721088435	64	127
331.10414965986394	331.27832199546486	68	127
331.10414965986394	331.27832199546486	88	127
331.2202721088435	332.3348072562358	69	127
331.27832199546486	331.41761904761904	87	127
331.27832199546486	331.41761904761904	69	127
331.41761904761904	331.5453514739229	85	127
331.41761904761904	331.5453514739229	71	127
331.55696145124716	331.77755102040817	83	127
331.55696145124716	331.77755102040817	73	127
331.78916099773244	331.91687074829935	81	127
331.78916099773244	331.91687074829935	75	127
331.9284580498866	332.05619047619047	76	127
331.9284580498866	332.05619047619047	80	127
332.06780045351474	332.19551020408164	78	127
332.06780045351474	332.19551020408164	81	127
332.2071201814059	332.3348072562358	75	127
332.2071201814059	332.3348072562358	78	127
332.34643990929703	332.8340589569161	64	127
332.34643990929703	332.520589569161	80	127
332.34643990929703	332.520589569161	83	127
332.5321995464853	332.6831292517007	76	127
332.5321995464853	332.6831292517007	80	127
332.69473922902495	332.8340589569161	78	127
332.8456462585034	332.9849886621315	80	127
332.8456462585034	332.9849886621315	76	127
332.8456462585034	333.402947845805	71	127
332.9965986394558	333.22879818594106	75	127
332.9965986394558	333.22879818594106	81	127
333.24040816326533	333.402947845805	73	127
333.24040816326533	333.402947845805	83	127
333.41455782312926	333.60031746031746	85	127
333.41455782312926	333.60031746031746	71	127
333.41455782312926	333.6119274376417	68	127
333.60031746031746	333.82090702947846	69	127
333.60031746031746	333.82090702947846	87	127
333.7164172335601	333.92539682539683	64	127
333.83251700680273	333.9834467120181	68	127
333.83251700680273	333.9834467120181	88	127
333.9950566893424	334.19242630385486	78	127
333.9950566893424	334.19242630385486	69	127
333.9950566893424	335.434693877551	69	127
334.19242630385486	334.3781632653061	81	127
334.19242630385486	334.3781632653061	90	127
334.3897959183673	334.5291156462585	78	127
334.3897959183673	334.5291156462585	69	127
334.59877551020406	334.72648526077097	90	127
334.59877551020406	334.72648526077097	81	127
334.73809523809524	334.86580498866215	78	127
334.73809523809524	334.86580498866215	69	127
334.8774149659864	335.00512471655327	81	127
334.8774149659864	335.00512471655327	90	127
335.01673469387754	335.14444444444445	78	127
335.01673469387754	335.14444444444445	69	127
335.1560544217687	335.2953741496599	81	127
335.1560544217687	335.2953741496599	90	127
335.30696145124716	335.434693877551	78	127
335.30696145124716	335.434693877551	69	127
335.434693877551	335.5624036281179	90	127
335.434693877551	335.73655328798185	81	127
335.434693877551	335.73655328798185	51	127
335.434693877551	335.73655328798185	69	127
335.5740136054422	335.7017233560091	78	127
335.71331065759637	335.8410430839002	90	127
335.8526530612245	336.00358276643993	79	127
335.8526530612245	336.2009523809524	70	127
335.8526530612245	336.2009523809524	82	127
335.8526530612245	336.2009523809524	51	127
336.0151700680272	336.1661224489796	91	127
336.17773242630386	336.30544217687077	79	127
336.31705215419504	336.4447619047619	91	127
336.45637188208616	336.58408163265307	79	127
336.59569160997734	336.78145124716553	91	127
336.7930612244898	337.2574603174603	71	127
336.7930612244898	337.08331065759637	79	127
336.7930612244898	337.2574603174603	83	127
336.7930612244898	337.2574603174603	51	127
337.09492063492064	337.22263038548755	91	127
337.2342403628118	337.37356009070294	79	127
337.37356009070294	337.8031292517007	51	127
337.37356009070294	337.55931972789114	92	127
337.37356009070294	337.8031292517007	72	127
337.37356009070294	337.8031292517007	84	127
337.55931972789114	337.7682993197279	80	127
337.7682993197279	337.90761904761905	92	127
337.90761904761905	338.0469387755102	80	127
338.0469387755102	338.18625850340135	92	127
338.18625850340135	338.302358276644	80	127
338.302358276644	338.66226757369617	73	127
338.302358276644	338.4648752834467	92	127
338.302358276644	338.66226757369617	77	127
338.302358276644	338.66226757369617	51	127
338.47648526077097	338.6158276643991	80	127
338.62743764172336	338.789977324263	92	127
338.8015873015873	339.184693877551	51	127
338.8015873015873	338.9757369614513	80	127
338.8015873015873	339.184693877551	74	127
338.8015873015873	339.184693877551	77	127
338.98732426303854	339.1498866213152	92	127
339.1614965986395	339.31242630385486	80	127
339.32403628117913	339.4749659863946	92	127
339.48657596371885	339.60267573696143	80	127
339.6142857142857	339.7419954648526	92	127
339.7536054421769	340.17156462585035	74	127
339.7536054421769	339.89292517006805	80	127
339.7536054421769	340.17156462585035	77	127
339.7536054421769	340.17156462585035	51	127
339.9045124716553	340.13673469387754	92	127
340.1483446712018	340.3108616780045	80	127
340.32249433106574	340.4618140589569	91	127
340.32249433106574	340.7520634920635	70	127
340.32249433106574	340.7520634920635	79	127
340.32249433106574	340.7520634920635	51	127
340.32249433106574	340.7520634920635	75	127
340.4618140589569	340.70562358276646	79	127
340.71721088435373	340.85655328798185	91	127
340.8681632653061	341.0074829931973	79	127
341.01909297052157	341.1468027210884	91	127
341.1584126984127	341.29773242630387	79	127
341.30934240362814	341.84337868480725	63	127
341.30934240362814	341.43702947845804	58	127
341.30934240362814	341.43702947845804	67	127
341.30934240362814	343.1321088435374	91	127
341.44866213151926	341.5995918367347	70	127
341.44866213151926	341.5995918367347	63	127
341.611201814059	341.84337868480725	58	127
341.611201814059	341.84337868480725	65	127
341.85501133786846	341.98272108843537	70	127
341.85501133786846	342.27297052154194	70	127
341.85501133786846	341.98272108843537	67	127
341.98272108843537	342.1336507936508	68	127
341.98272108843537	342.1336507936508	58	127
342.1336507936508	342.27297052154194	70	127
342.1336507936508	342.27297052154194	70	127
342.27297052154194	342.4471201814059	67	127
342.27297052154194	342.43551020408165	58	127
342.27297052154194	342.43551020408165	72	127
342.43551020408165	342.58643990929704	70	127
342.43551020408165	342.58643990929704	74	127
342.5051700680272	342.6676870748299	63	127
342.58643990929704	342.7257596371882	58	127
342.58643990929704	342.7257596371882	75	127
342.7257596371882	342.8650566893424	70	127
342.7257596371882	342.8650566893424	77	127
342.7257596371882	342.93473922902496	58	127
342.8650566893424	342.99278911564625	58	127
342.8650566893424	342.99278911564625	75	127
342.93473922902496	344.0144671201814	68	127
343.0043990929705	343.1321088435374	70	127
343.0043990929705	343.1321088435374	74	127
343.1437188208617	344.0028571428571	92	127
343.1437188208617	343.28301587301587	72	127
343.1437188208617	343.28301587301587	58	127
343.2946485260771	343.44557823129253	70	127
343.2946485260771	343.44557823129253	70	127
343.4571882086168	343.5848752834467	58	127
343.4571882086168	343.5848752834467	68	127
343.5965079365079	343.7242176870748	70	127
343.5965079365079	343.7242176870748	67	127
343.7358276643991	343.863537414966	58	127
343.7358276643991	343.863537414966	68	127
343.8751473922903	344.0028571428571	65	127
343.8751473922903	344.0028571428571	70	127
344.0144671201814	344.1421768707483	58	127
344.0144671201814	344.1421768707483	67	127
344.0144671201814	344.5833560090703	63	127
344.0144671201814	345.45410430839	91	127
344.15378684807257	344.43242630385487	63	127
344.15378684807257	344.43242630385487	70	127
344.44403628117914	344.5833560090703	58	127
344.44403628117914	344.5833560090703	65	127
344.5949659863946	344.72267573696143	67	127
344.5949659863946	344.72267573696143	70	127
344.5949659863946	345.01290249433106	70	127
344.7342857142857	344.8736054421769	68	127
344.7342857142857	344.8736054421769	58	127
344.88521541950115	345.01290249433106	70	127
344.88521541950115	345.01290249433106	70	127
345.02453514739227	345.1754648526077	72	127
345.02453514739227	345.1754648526077	58	127
345.02453514739227	345.187074829932	67	127
345.187074829932	345.3147619047619	74	127
345.187074829932	345.3147619047619	70	127
345.25673469387755	345.3960544217687	63	127
345.32637188208616	345.45410430839	58	127
345.32637188208616	345.45410430839	75	127
345.4657142857143	345.69791383219956	57	127
345.4657142857143	346.33646258503404	89	127
345.4657142857143	345.5934240362812	72	127
345.4657142857143	345.5934240362812	77	127
345.60503401360546	345.7675736961451	60	127
345.60503401360546	345.7675736961451	75	127
345.69791383219956	346.8705215419501	69	127
345.7791836734694	345.9068934240363	72	127
345.7791836734694	345.9068934240363	74	127
345.91850340136057	346.0462131519274	60	127
345.91850340136057	346.0462131519274	72	127
346.0462131519274	346.19714285714286	70	127
346.0462131519274	346.19714285714286	72	127
346.19714285714286	346.33646258503404	60	127
346.19714285714286	346.33646258503404	69	127
346.33646258503404	346.47578231292516	72	127
346.33646258503404	346.47578231292516	67	127
346.33646258503404	346.47578231292516	87	127
346.47578231292516	346.7195918367347	60	127
346.47578231292516	346.7195918367347	65	127
346.47578231292516	346.7195918367347	89	127
346.7195918367347	346.8705215419501	63	127
346.7195918367347	346.8705215419501	72	127
346.7195918367347	346.8705215419501	91	127
346.8705215419501	347.46260770975056	55	127
346.8705215419501	347.14916099773245	63	127
346.8705215419501	347.2304308390023	79	127
346.8705215419501	347.2304308390023	58	127
347.14916099773245	347.30009070294784	75	127
347.2304308390023	347.4742176870748	91	127
347.2304308390023	347.4742176870748	70	127
347.3117006802721	347.46260770975056	63	127
347.4742176870748	347.6832199546485	59	127
347.4742176870748	347.6019501133787	75	127
347.4742176870748	347.6832199546485	79	127
347.61356009070295	347.74126984126985	63	127
347.6832199546485	347.92702947845805	91	127
347.6832199546485	347.92702947845805	71	127
347.7528798185941	347.9154195011338	75	127
347.92702947845805	348.14761904761906	67	127
347.92702947845805	348.05473922902496	63	127
348.06634920634923	348.2172789115646	75	127
348.14761904761906	348.36820861678007	79	127
348.2288888888889	348.3565986394558	63	127
348.36820861678007	348.6004081632653	80	127
348.36820861678007	348.51913832199546	75	127
348.36820861678007	348.6004081632653	59	127
348.5307482993197	348.65845804988663	63	127
348.6004081632653	348.7977551020408	71	127
348.6004081632653	348.7977551020408	92	127
348.6700680272109	348.78616780045354	75	127
348.7977551020408	349.01836734693876	60	127
348.7977551020408	348.92548752834466	63	127
348.7977551020408	349.01836734693876	80	127
348.93709750566893	349.0764172335601	75	127
349.01836734693876	349.25056689342404	92	127
349.01836734693876	349.25056689342404	72	127
349.11124716553286	349.23895691609977	63	127
349.25056689342404	349.47115646258504	68	127
349.25056689342404	349.37827664399094	75	127
349.3898866213152	349.52920634920633	63	127
349.47115646258504	349.69174603174605	80	127
349.5408163265306	349.6801360544218	75	127
349.69174603174605	349.9471655328798	56	127
349.69174603174605	349.84267573696144	63	127
349.69174603174605	349.9471655328798	77	127
349.8542857142857	350.00521541950116	75	127
349.9471655328798	350.15614512471655	89	127
349.9471655328798	350.15614512471655	68	127
350.0168253968254	350.1445351473923	63	127
350.15614512471655	350.5857142857143	57	127
350.15614512471655	350.2954648526077	75	127
350.15614512471655	350.5857142857143	78	127
350.2954648526077	350.65537414965985	63	127
350.5857142857143	350.8063038548753	69	127
350.5857142857143	350.8063038548753	90	127
350.65537414965985	350.8063038548753	75	127
350.8063038548753	351.0385034013606	66	127
350.8063038548753	350.9572335600907	63	127
350.9572335600907	351.10816326530613	75	127
351.0385034013606	351.2474603174603	78	127
351.10816326530613	351.2474603174603	63	127
351.2474603174603	351.5377324263039	57	127
351.2474603174603	351.3984126984127	75	127
351.2474603174603	351.5377324263039	78	127
351.3984126984127	351.59578231292517	63	127
351.5377324263039	351.78154195011336	90	127
351.5377324263039	351.78154195011336	69	127
351.60739229024944	351.7699319727891	75	127
351.78154195011336	352.0253514739229	58	127
351.78154195011336	351.9092517006803	63	127
351.78154195011336	352.0253514739229	79	127
351.92086167800454	352.0834013605442	75	127
352.0253514739229	352.23433106575965	91	127
352.0253514739229	352.23433106575965	70	127
352.09501133786847	352.2227210884354	63	127
352.23433106575965	352.5361904761905	67	127
352.23433106575965	352.4317006802721	75	127
352.4433106575964	352.5942403628118	63	127
352.5361904761905	352.8380498866213	79	127
352.60585034013604	352.82643990929705	75	127
352.8380498866213	353.3024489795918	75	127
352.8380498866213	352.9773696145125	51	127
352.8380498866213	353.0586394557823	67	127
352.8380498866213	353.0586394557823	46	127
352.98895691609977	353.1282993197279	63	127
353.0586394557823	353.3140589569161	79	127
353.0586394557823	353.3140589569161	58	127
353.1515192743764	353.3024489795918	51	127
353.3140589569161	353.73201814058956	87	127
353.3140589569161	353.46498866213153	63	127
353.3140589569161	353.5346485260771	67	127
353.3140589569161	353.5346485260771	47	127
353.4765986394558	353.59269841269844	51	127
353.5346485260771	353.74362811791383	59	127
353.5346485260771	353.74362811791383	79	127
353.6042857142857	353.73201814058956	63	127
353.74362811791383	353.882947845805	51	127
353.74362811791383	353.8945578231293	82	127
353.8945578231293	354.0222675736961	63	127
353.96421768707484	354.103537414966	79	127
354.0338775510204	354.1731972789116	51	127
354.18480725623584	354.6608163265306	63	127
354.18480725623584	354.37056689342404	63	127
354.18480725623584	354.46344671201814	67	127
354.18480725623584	354.46344671201814	47	127
354.3821768707483	354.5214739229025	51	127
354.46344671201814	354.6724263038549	79	127
354.46344671201814	354.6724263038549	59	127
354.5331065759637	354.6608163265306	63	127
354.6724263038549	355.0787755102041	75	127
354.6724263038549	354.8001360544218	51	127
354.6724263038549	354.86979591836734	68	127
354.6724263038549	354.86979591836734	48	127
354.8001360544218	354.9394557823129	63	127
354.86979591836734	355.0787755102041	80	127
354.86979591836734	355.0787755102041	60	127
354.9394557823129	355.0787755102041	51	127
355.0787755102041	355.22970521541953	72	127
355.0787755102041	355.21809523809526	63	127
355.21809523809526	355.3806349206349	51	127
355.31097505668936	355.49673469387756	68	127
355.3806349206349	355.54315192743763	63	127
355.54315192743763	355.81020408163266	44	127
355.54315192743763	356.0191836734694	75	127
355.54315192743763	355.71732426303856	51	127
355.54315192743763	355.81020408163266	65	127
355.71732426303856	355.86825396825395	63	127
355.81020408163266	356.03079365079367	77	127
355.81020408163266	356.03079365079367	56	127
355.8798639455782	356.0191836734694	51	127
356.03079365079367	356.4603401360544	87	127
356.03079365079367	356.18172335600906	63	127
356.03079365079367	356.26297052154194	66	127
356.03079365079367	356.26297052154194	45	127
356.1933333333333	356.32104308390024	51	127
356.26297052154194	356.4719727891156	78	127
356.26297052154194	356.4719727891156	57	127
356.3326530612245	356.4603401360544	63	127
356.4719727891156	356.6229024943311	84	127
356.4719727891156	356.59968253968253	51	127
356.6112925170068	356.7390022675737	63	127
356.68095238095236	356.8318820861678	78	127
356.750612244898	356.8899319727891	51	127
356.90154195011337	357.07566893424035	63	127
356.90154195011337	357.16857142857145	66	127
356.90154195011337	357.16857142857145	45	127
356.90154195011337	357.41238095238094	63	127
357.08730158730157	357.2730612244898	51	127
357.16857142857145	357.4356009070295	57	127
357.16857142857145	357.4356009070295	78	127
357.2846485260771	357.41238095238094	63	127
357.4356009070295	357.8767800453515	75	127
357.4356009070295	357.59814058956914	51	127
357.4356009070295	357.679410430839	67	127
357.4356009070295	357.679410430839	46	127
357.6097505668934	357.7374603174603	63	127
357.679410430839	357.88839002267576	79	127
357.679410430839	357.88839002267576	58	127
357.7490702947846	357.8767800453515	51	127
357.88839002267576	358.07414965986396	70	127
357.88839002267576	358.0625396825397	63	127
358.07414965986396	358.20183673469387	51	127
358.1438095238095	358.2831292517007	67	127
358.2134693877551	358.35278911564626	63	127
358.36439909297053	358.8171655328798	63	127
358.36439909297053	358.53854875283446	51	127
358.36439909297053	358.6198185941043	43	127
358.36439909297053	358.8171655328798	75	127
358.5501587301587	358.67786848072564	63	127
358.6198185941043	358.828798185941	55	127
358.6894784580499	358.8171655328798	51	127
358.828798185941	359.23514739229023	87	127
358.828798185941	358.95650793650793	63	127
358.828798185941	359.02614512471655	43	127
358.828798185941	359.23514739229023	75	127
358.95650793650793	359.0958276643991	51	127
359.02614512471655	359.23514739229023	55	127
359.0958276643991	359.23514739229023	63	127
359.23514739229023	359.3744671201814	51	127
359.23514739229023	359.3860770975057	83	127
359.23514739229023	359.3860770975057	71	127
359.3744671201814	359.5021768707483	63	127
359.44412698412697	359.58344671201814	79	127
359.44412698412697	359.58344671201814	67	127
359.5021768707483	359.64149659863943	51	127
359.64149659863943	360.11750566893426	63	127
359.64149659863943	359.8272562358277	63	127
359.64149659863943	359.89691609977325	43	127
359.8272562358277	359.95496598639454	51	127
359.89691609977325	360.1291156462585	55	127
359.9665759637188	360.11750566893426	63	127
360.1291156462585	360.326485260771	84	127
360.1291156462585	360.2568253968254	51	127
360.1291156462585	360.33809523809526	44	127
360.1291156462585	360.55866213151927	75	127
360.26843537414965	360.39614512471655	63	127
360.33809523809526	360.5702947845805	56	127
360.4077551020408	360.55866213151927	51	127
360.5702947845805	360.70961451247166	63	127
360.5702947845805	360.7328344671202	72	127
360.5702947845805	360.7328344671202	75	127
360.72122448979593	360.84893424036284	51	127
360.7908843537415	360.94181405895694	72	127
360.7908843537415	360.94181405895694	68	127
360.8605215419501	360.98825396825396	63	127
360.9998639455782	361.40621315192743	75	127
360.9998639455782	361.12757369614513	51	127
360.9998639455782	361.20884353741496	41	127
360.9998639455782	361.40621315192743	63	127
361.1391836734694	361.2668707482993	63	127
361.20884353741496	361.4178231292517	53	127
361.2785034013605	361.40621315192743	51	127
361.4178231292517	361.8357823129252	75	127
361.4178231292517	361.5571428571429	63	127
361.4178231292517	361.6384126984127	42	127
361.4178231292517	361.8357823129252	87	127
361.56875283446715	361.696462585034	51	127
361.6384126984127	361.84739229024945	54	127
361.70807256235827	361.8357823129252	63	127
361.84739229024945	361.9634920634921	51	127
361.84739229024945	361.97510204081635	84	127
361.84739229024945	361.97510204081635	72	127
361.97510204081635	362.1028117913832	63	127
362.0447619047619	362.1840589569161	69	127
362.0447619047619	362.1840589569161	81	127
362.1144217687075	362.2305215419501	51	127
362.2421315192744	362.5207709750567	42	127
362.2421315192744	362.40467120181404	63	127
362.2421315192744	362.7297505668934	75	127
362.2421315192744	362.7297505668934	63	127
362.40467120181404	362.578820861678	51	127
362.5207709750567	362.7413605442177	54	127
362.5904308390023	362.7297505668934	63	127
362.7413605442177	362.97356009070296	43	127
362.7413605442177	363.1825396825397	75	127
362.7413605442177	362.88068027210886	51	127
362.7413605442177	363.1825396825397	87	127
362.89229024943313	363.0432199546485	63	127
362.97356009070296	363.19414965986397	55	127
363.0548299319728	363.1825396825397	51	127
363.19414965986397	363.3566893424036	63	127
363.19414965986397	363.3566893424036	39	127
363.19414965986397	363.37990929705217	79	127
363.19414965986397	363.37990929705217	70	127
363.3682993197279	363.5424489795918	51	127
363.3682993197279	363.5424489795918	39	127
363.47278911564626	363.6353287981859	58	127
363.47278911564626	363.6353287981859	67	127
363.47278911564626	363.6353287981859	91	127
363.5540589569161	363.69337868480727	63	127
363.5540589569161	363.69337868480727	39	127
363.70498866213154	363.84430839002266	70	127
363.70498866213154	363.84430839002266	67	127
363.70498866213154	363.84430839002266	39	127
363.70498866213154	364.1461678004535	87	127
363.85591836734693	364.0068480725624	39	127
363.85591836734693	364.0068480725624	67	127
363.85591836734693	364.0068480725624	63	127
364.0068480725624	364.1461678004535	39	127
364.0068480725624	364.1461678004535	65	127
364.0068480725624	364.1461678004535	68	127
364.15777777777777	364.2854875283447	39	127
364.15777777777777	364.57573696145124	94	127
364.15777777777777	364.2854875283447	70	127
364.15777777777777	364.2854875283447	67	127
364.29709750566894	364.42480725623585	68	127
364.29709750566894	364.42480725623585	39	127
364.29709750566894	364.42480725623585	72	127
364.44802721088433	364.57573696145124	74	127
364.44802721088433	364.57573696145124	70	127
364.44802721088433	364.57573696145124	39	127
364.5873469387755	364.7150566893424	72	127
364.5873469387755	364.7150566893424	39	127
364.5873469387755	364.7150566893424	75	127
364.5873469387755	364.73827664399096	91	127
364.7266666666667	364.8659863945578	77	127
364.7266666666667	364.8659863945578	74	127
364.7266666666667	364.8659863945578	39	127
364.79632653061225	364.9704761904762	87	127
364.8775963718821	365.01691609977325	39	127
364.8775963718821	365.01691609977325	79	127
364.8775963718821	365.01691609977325	75	127
365.0285260770975	365.16784580498864	77	127
365.0285260770975	365.16784580498864	74	127
365.0285260770975	365.16784580498864	39	127
365.0285260770975	366.29401360544216	92	127
365.1794557823129	365.3071655328798	72	127
365.1794557823129	365.3071655328798	39	127
365.1794557823129	365.3071655328798	75	127
365.33038548752836	365.45807256235827	74	127
365.33038548752836	365.45807256235827	70	127
365.33038548752836	365.45807256235827	39	127
365.4697052154195	365.5974149659864	72	127
365.4697052154195	365.5974149659864	68	127
365.4697052154195	365.5974149659864	39	127
365.60902494331066	365.73673469387757	39	127
365.60902494331066	365.73673469387757	70	127
365.60902494331066	365.73673469387757	67	127
365.74834467120183	365.87603174603174	68	127
365.74834467120183	365.87603174603174	65	127
365.74834467120183	365.87603174603174	39	127
365.88766439909296	366.01537414965986	39	127
365.88766439909296	366.01537414965986	67	127
365.88766439909296	366.01537414965986	63	127
366.02698412698413	366.15469387755104	65	127
366.02698412698413	366.15469387755104	39	127
366.02698412698413	366.15469387755104	68	127
366.1663038548753	366.29401360544216	65	127
366.1663038548753	366.29401360544216	62	127
366.1663038548753	366.29401360544216	39	127
366.30562358276643	366.43333333333334	58	127
366.30562358276643	366.43333333333334	67	127
366.30562358276643	366.43333333333334	39	127
366.30562358276643	366.7235827664399	87	127
366.43333333333334	366.5842403628118	55	127
366.43333333333334	366.5842403628118	39	127
366.43333333333334	366.5842403628118	63	127
366.5842403628118	366.7235827664399	39	127
366.5842403628118	366.7235827664399	56	127
366.5842403628118	366.7235827664399	65	127
366.7235827664399	366.8629024943311	39	127
366.7235827664399	367.18798185941046	94	127
366.7235827664399	366.8629024943311	67	127
366.7235827664399	366.8629024943311	58	127
366.8629024943311	367.0022222222222	60	127
366.8629024943311	367.0022222222222	39	127
366.8629024943311	367.0022222222222	68	127
367.0022222222222	367.18798185941046	70	127
367.0022222222222	367.18798185941046	62	127
367.0022222222222	367.18798185941046	39	127
367.18798185941046	367.3273015873016	72	127
367.18798185941046	367.3273015873016	63	127
367.18798185941046	367.3273015873016	39	127
367.18798185941046	367.33891156462585	91	127
367.3273015873016	367.478231292517	74	127
367.3273015873016	367.478231292517	65	127
367.3273015873016	367.478231292517	39	127
367.4201814058957	367.5827210884354	87	127
367.50142857142856	367.6291609977324	67	127
367.50142857142856	367.6291609977324	75	127
367.50142857142856	367.6291609977324	39	127
367.6407709750567	367.78009070294786	39	127
367.6407709750567	368.8946485260771	93	127
367.6407709750567	367.78009070294786	66	127
367.6407709750567	367.78009070294786	72	127
367.79170068027213	367.91938775510204	66	127
367.79170068027213	367.91938775510204	72	127
367.79170068027213	367.91938775510204	39	127
367.93102040816325	368.05873015873016	72	127
367.93102040816325	368.05873015873016	39	127
367.93102040816325	368.05873015873016	66	127
368.0703401360544	368.19804988662133	72	127
368.0703401360544	368.19804988662133	39	127
368.0703401360544	368.19804988662133	66	127
368.2096598639456	368.33736961451245	72	127
368.2096598639456	368.33736961451245	39	127
368.2096598639456	368.33736961451245	66	127
368.3489795918367	368.47668934240363	72	127
368.3489795918367	368.47668934240363	39	127
368.3489795918367	368.47668934240363	66	127
368.4882993197279	368.6160090702948	66	127
368.4882993197279	368.6160090702948	72	127
368.4882993197279	368.6160090702948	39	127
368.6275963718821	368.75532879818593	39	127
368.6275963718821	368.75532879818593	66	127
368.6275963718821	368.75532879818593	72	127
368.7669387755102	368.8946485260771	39	127
368.7669387755102	368.8946485260771	66	127
368.7669387755102	368.8946485260771	72	127
368.9062585034014	369.3009977324263	94	127
368.9062585034014	369.022358276644	58	127
368.9062585034014	369.022358276644	68	127
368.9062585034014	369.022358276644	65	127
368.9062585034014	369.022358276644	39	127
369.0339455782313	369.16167800453513	39	127
369.0339455782313	369.16167800453513	65	127
369.0339455782313	369.16167800453513	58	127
369.0339455782313	369.16167800453513	68	127
369.1732879818594	369.3009977324263	65	127
369.1732879818594	369.3009977324263	58	127
369.1732879818594	369.3009977324263	68	127
369.1732879818594	369.3009977324263	39	127
369.3126077097506	369.4403174603175	65	127
369.3126077097506	369.4403174603175	58	127
369.3126077097506	369.4403174603175	68	127
369.3126077097506	369.4403174603175	39	127
369.3126077097506	369.7073469387755	96	127
369.45190476190476	369.56802721088434	68	127
369.45190476190476	369.56802721088434	65	127
369.45190476190476	369.56802721088434	58	127
369.45190476190476	369.56802721088434	39	127
369.5796371882086	369.7073469387755	58	127
369.5796371882086	369.7073469387755	68	127
369.5796371882086	369.7073469387755	39	127
369.5796371882086	369.7073469387755	65	127
369.7189569160998	369.85825396825396	65	127
369.7189569160998	369.85825396825396	58	127
369.7189569160998	369.85825396825396	68	127
369.7189569160998	369.85825396825396	39	127
369.7189569160998	369.8698866213152	92	127
369.8698866213152	370.00920634920635	65	127
369.8698866213152	370.00920634920635	58	127
369.8698866213152	370.00920634920635	68	127
369.8698866213152	370.00920634920635	39	127
369.95115646258506	370.10208616780045	89	127
370.0208163265306	370.1601133786848	65	127
370.0208163265306	370.1601133786848	58	127
370.0208163265306	370.1601133786848	68	127
370.0208163265306	370.1601133786848	39	127
370.171746031746	370.3342857142857	68	127
370.171746031746	370.3342857142857	58	127
370.171746031746	370.3342857142857	65	127
370.171746031746	370.3342857142857	39	127
370.171746031746	370.60131519274375	87	127
370.3342857142857	370.4852154195011	68	127
370.3342857142857	370.4852154195011	58	127
370.3342857142857	370.4852154195011	65	127
370.3342857142857	370.4852154195011	39	127
370.4852154195011	370.60131519274375	58	127
370.4852154195011	370.60131519274375	65	127
370.4852154195011	370.60131519274375	39	127
370.4852154195011	370.60131519274375	68	127
370.60131519274375	370.7522448979592	68	127
370.60131519274375	370.7522448979592	58	127
370.60131519274375	370.7522448979592	65	127
370.60131519274375	370.7522448979592	39	127
370.60131519274375	371.0308843537415	86	127
370.7522448979592	370.8915646258503	68	127
370.7522448979592	370.8915646258503	58	127
370.7522448979592	370.8915646258503	65	127
370.7522448979592	370.8915646258503	39	127
370.8915646258503	371.0308843537415	68	127
370.8915646258503	371.0308843537415	58	127
370.8915646258503	371.0308843537415	65	127
370.8915646258503	371.0308843537415	39	127
371.0308843537415	371.18179138321995	58	127
371.0308843537415	371.18179138321995	68	127
371.0308843537415	371.18179138321995	65	127
371.0308843537415	371.18179138321995	39	127
371.0308843537415	371.1934013605442	84	127
371.18179138321995	371.3095238095238	65	127
371.18179138321995	371.3095238095238	68	127
371.18179138321995	371.3095238095238	58	127
371.18179138321995	371.3095238095238	39	127
371.2514739229025	371.4024036281179	82	127
371.32113378684807	371.448843537415	39	127
371.32113378684807	371.448843537415	68	127
371.32113378684807	371.448843537415	58	127
371.32113378684807	371.448843537415	65	127
371.46045351473924	371.86680272108845	84	127
371.46045351473924	371.58816326530615	56	127
371.46045351473924	371.58816326530615	68	127
371.46045351473924	371.58816326530615	58	127
371.46045351473924	371.58816326530615	65	127
371.46045351473924	371.58816326530615	39	127
371.5997505668934	371.72748299319727	68	127
371.5997505668934	371.72748299319727	58	127
371.5997505668934	371.72748299319727	65	127
371.5997505668934	371.72748299319727	39	127
371.5997505668934	371.72748299319727	56	127
371.73909297052154	371.86680272108845	56	127
371.73909297052154	371.86680272108845	68	127
371.73909297052154	371.86680272108845	58	127
371.73909297052154	371.86680272108845	65	127
371.73909297052154	371.86680272108845	39	127
371.8784126984127	372.01773242630384	58	127
371.8784126984127	372.01773242630384	65	127
371.8784126984127	372.01773242630384	56	127
371.8784126984127	372.01773242630384	39	127
371.8784126984127	372.33120181405894	86	127
371.8784126984127	372.01773242630384	68	127
372.0293424036281	372.1918820861678	65	127
372.0293424036281	372.1918820861678	56	127
372.0293424036281	372.1918820861678	68	127
372.0293424036281	372.1918820861678	58	127
372.0293424036281	372.1918820861678	39	127
372.2034693877551	372.33120181405894	56	127
372.2034693877551	372.33120181405894	68	127
372.2034693877551	372.33120181405894	58	127
372.2034693877551	372.33120181405894	65	127
372.2034693877551	372.33120181405894	39	127
372.3428117913832	372.4821315192744	39	127
372.3428117913832	372.4821315192744	56	127
372.3428117913832	372.4821315192744	68	127
372.3428117913832	372.4821315192744	58	127
372.3428117913832	372.4821315192744	65	127
372.3428117913832	372.50535147392293	87	127
372.49374149659866	372.6330612244898	68	127
372.49374149659866	372.6330612244898	58	127
372.49374149659866	372.6330612244898	65	127
372.49374149659866	372.6330612244898	39	127
372.49374149659866	372.6330612244898	56	127
372.5750113378685	372.73755102040815	89	127
372.64467120181405	372.7839909297052	56	127
372.64467120181405	372.7839909297052	68	127
372.64467120181405	372.7839909297052	58	127
372.64467120181405	372.7839909297052	65	127
372.64467120181405	372.7839909297052	39	127
372.7956009070295	372.9465306122449	56	127
372.7956009070295	372.9465306122449	68	127
372.7956009070295	372.9465306122449	58	127
372.7956009070295	372.9465306122449	65	127
372.7956009070295	372.9465306122449	39	127
372.7956009070295	373.26	91	127
372.95814058956915	373.08585034013606	56	127
372.95814058956915	373.08585034013606	68	127
372.95814058956915	373.08585034013606	58	127
372.95814058956915	373.08585034013606	65	127
372.95814058956915	373.08585034013606	39	127
373.09746031746033	373.26	68	127
373.09746031746033	373.26	58	127
373.09746031746033	373.26	65	127
373.09746031746033	373.26	39	127
373.09746031746033	373.26	56	127
373.27160997732426	373.41092970521544	56	127
373.27160997732426	373.41092970521544	68	127
373.27160997732426	373.41092970521544	58	127
373.27160997732426	373.41092970521544	65	127
373.27160997732426	373.41092970521544	39	127
373.27160997732426	373.6199092970522	92	127
373.4225396825397	373.58507936507937	56	127
373.4225396825397	373.58507936507937	68	127
373.4225396825397	373.58507936507937	58	127
373.4225396825397	373.58507936507937	65	127
373.4225396825397	373.58507936507937	39	127
373.59668934240364	373.7475963718821	56	127
373.59668934240364	373.7475963718821	68	127
373.59668934240364	373.7475963718821	58	127
373.59668934240364	373.7475963718821	65	127
373.59668934240364	373.7475963718821	39	127
373.7592290249433	373.921768707483	39	127
373.7592290249433	373.921768707483	56	127
373.7592290249433	373.921768707483	68	127
373.7592290249433	373.921768707483	58	127
373.7592290249433	373.921768707483	65	127
373.7592290249433	374.142358276644	89	127
373.9333786848073	374.09591836734694	39	127
373.9333786848073	374.09591836734694	58	127
373.9333786848073	374.09591836734694	68	127
373.9333786848073	374.09591836734694	56	127
373.9333786848073	374.09591836734694	65	127
374.1075283446712	374.27006802721087	39	127
374.1075283446712	374.27006802721087	56	127
374.1075283446712	374.27006802721087	68	127
374.1075283446712	374.27006802721087	58	127
374.1075283446712	374.27006802721087	65	127
374.28167800453514	374.72285714285715	63	127
374.28167800453514	374.4326077097506	67	127
374.28167800453514	374.4326077097506	58	127
374.28167800453514	374.4326077097506	63	127
374.28167800453514	374.4326077097506	39	127
374.28167800453514	374.4326077097506	55	127
374.44421768707485	374.583537414966	51	127
374.44421768707485	374.583537414966	63	127
374.44421768707485	374.583537414966	55	127
374.59514739229024	374.72285714285715	63	127
374.59514739229024	374.72285714285715	56	127
374.59514739229024	374.72285714285715	53	127
374.7344671201814	374.8737641723356	63	127
374.7344671201814	374.8737641723356	58	127
374.7344671201814	375.17562358276643	70	127
374.7344671201814	374.8737641723356	55	127
374.8853968253968	375.03632653061226	63	127
374.8853968253968	375.03632653061226	60	127
374.8853968253968	375.03632653061226	56	127
375.0479365079365	375.17562358276643	62	127
375.0479365079365	375.17562358276643	58	127
375.0479365079365	375.17562358276643	63	127
375.18725623582765	375.31496598639455	63	127
375.18725623582765	375.31496598639455	60	127
375.18725623582765	375.31496598639455	63	127
375.18725623582765	375.3381859410431	67	127
375.3265759637188	375.45428571428573	65	127
375.3265759637188	375.45428571428573	62	127
375.3265759637188	375.45428571428573	63	127
375.3962358276644	375.5587755102041	63	127
375.46589569161	375.6052154195011	67	127
375.46589569161	375.6052154195011	63	127
375.46589569161	375.6052154195011	63	127
375.6168253968254	375.8838321995465	58	127
375.6168253968254	375.8025850340136	68	127
375.6168253968254	375.8025850340136	65	127
375.6168253968254	375.8025850340136	63	127
375.81419501133786	375.94190476190477	70	127
375.81419501133786	375.94190476190477	62	127
375.81419501133786	375.94190476190477	67	127
375.8838321995465	377.01	68	127
375.95351473922904	376.08122448979594	68	127
375.95351473922904	376.08122448979594	60	127
375.95351473922904	376.08122448979594	72	127
376.0928117913832	376.22054421768706	70	127
376.0928117913832	376.22054421768706	58	127
376.0928117913832	376.22054421768706	74	127
376.23215419501133	376.3714739229025	72	127
376.23215419501133	376.3714739229025	56	127
376.23215419501133	376.3714739229025	75	127
376.3830839002268	376.5224036281179	74	127
376.3830839002268	376.5224036281179	55	127
376.3830839002268	376.5224036281179	77	127
376.54562358276644	376.67333333333335	75	127
376.54562358276644	376.67333333333335	53	127
376.54562358276644	376.67333333333335	79	127
376.6849433106576	376.82426303854874	80	127
376.6849433106576	376.82426303854874	77	127
376.6849433106576	376.82426303854874	51	127
376.8474829931973	376.9984126984127	74	127
376.8474829931973	376.9984126984127	77	127
376.8474829931973	376.9984126984127	53	127
377.01	377.17256235827665	55	127
377.01	377.17256235827665	82	127
377.01	377.497641723356	63	127
377.01	377.17256235827665	70	127
377.1841723356009	377.3467120181406	39	127
377.1841723356009	377.3467120181406	67	127
377.1841723356009	377.3467120181406	55	127
377.35832199546485	377.497641723356	68	127
377.35832199546485	377.497641723356	56	127
377.35832199546485	377.497641723356	41	127
377.5092517006803	377.63696145124715	70	127
377.5092517006803	377.63696145124715	58	127
377.5092517006803	377.63696145124715	43	127
377.5092517006803	377.93879818594104	70	127
377.6485714285714	377.7762811791383	60	127
377.6485714285714	377.7762811791383	44	127
377.6485714285714	377.7762811791383	72	127
377.7878911564626	377.93879818594104	62	127
377.7878911564626	377.93879818594104	46	127
377.7878911564626	377.93879818594104	74	127
377.95043083900225	378.08975056689343	67	127
377.95043083900225	378.07814058956916	75	127
377.95043083900225	378.07814058956916	63	127
377.95043083900225	378.07814058956916	48	127
378.07814058956916	378.2290702947846	50	127
378.07814058956916	378.2290702947846	65	127
378.07814058956916	378.2290702947846	77	127
378.1478004535147	378.31034013605444	63	127
378.2290702947846	378.3683900226757	51	127
378.2290702947846	378.3683900226757	79	127
378.2290702947846	378.3683900226757	67	127
378.3683900226757	378.53092970521544	41	127
378.3683900226757	378.53092970521544	79	127
378.3683900226757	378.53092970521544	63	127
378.3683900226757	378.600589569161	69	127
378.53092970521544	378.67024943310656	75	127
378.53092970521544	378.67024943310656	72	127
378.53092970521544	378.67024943310656	41	127
378.600589569161	379.6338775510204	81	127
378.67024943310656	378.80956916099774	70	127
378.67024943310656	378.80956916099774	74	127
378.67024943310656	378.80956916099774	41	127
378.80956916099774	378.9256689342404	72	127
378.80956916099774	378.9256689342404	69	127
378.80956916099774	378.9256689342404	41	127
378.93727891156465	379.06496598639455	41	127
378.93727891156465	379.06496598639455	70	127
378.93727891156465	379.06496598639455	67	127
379.07659863945577	379.2043083900227	65	127
379.07659863945577	379.2043083900227	41	127
379.07659863945577	379.2043083900227	69	127
379.21591836734694	379.34362811791385	67	127
379.21591836734694	379.34362811791385	63	127
379.21591836734694	379.34362811791385	41	127
379.3552380952381	379.482947845805	65	127
379.3552380952381	379.482947845805	62	127
379.3552380952381	379.482947845805	41	127
379.49455782312924	379.62226757369615	41	127
379.49455782312924	379.62226757369615	63	127
379.49455782312924	379.62226757369615	60	127
379.6338775510204	379.87766439909296	70	127
379.6338775510204	379.7964172335601	56	127
379.6338775510204	379.7964172335601	62	127
379.6338775510204	379.7964172335601	58	127
379.6338775510204	379.7964172335601	41	127
379.80802721088435	379.98215419501133	41	127
379.80802721088435	379.98215419501133	56	127
379.80802721088435	379.98215419501133	62	127
379.80802721088435	379.98215419501133	58	127
379.87766439909296	380.144716553288	82	127
379.99378684807255	380.1331065759637	56	127
379.99378684807255	380.1331065759637	62	127
379.99378684807255	380.1331065759637	58	127
379.99378684807255	380.1331065759637	41	127
380.144716553288	380.37691609977327	72	127
380.144716553288	380.2724263038549	56	127
380.144716553288	380.2724263038549	62	127
380.144716553288	380.2724263038549	58	127
380.144716553288	380.2724263038549	41	127
380.28401360544217	380.43496598639456	41	127
380.28401360544217	380.43496598639456	56	127
380.28401360544217	380.43496598639456	62	127
380.28401360544217	380.43496598639456	58	127
380.37691609977327	380.5394557823129	84	127
380.44657596371883	380.5975056689342	58	127
380.44657596371883	380.5975056689342	56	127
380.44657596371883	380.5975056689342	62	127
380.44657596371883	380.5975056689342	41	127
380.6091156462585	380.7368253968254	41	127
380.6091156462585	380.7368253968254	56	127
380.6091156462585	380.7368253968254	62	127
380.6091156462585	380.7368253968254	58	127
380.6091156462585	380.74843537414966	80	127
380.7368253968254	380.8645351473923	62	127
380.7368253968254	380.8645351473923	56	127
380.7368253968254	380.8645351473923	58	127
380.7368253968254	380.8645351473923	41	127
380.80648526077096	380.94580498866213	77	127
380.8761451247166	381.0154648526077	41	127
380.8761451247166	381.0154648526077	56	127
380.8761451247166	381.0154648526077	62	127
380.8761451247166	381.0154648526077	58	127
381.03868480725623	381.1780045351474	62	127
381.03868480725623	381.1780045351474	56	127
381.03868480725623	381.1780045351474	58	127
381.03868480725623	381.1780045351474	41	127
381.03868480725623	381.2824943310658	75	127
381.1896145124717	381.34054421768707	41	127
381.1896145124717	381.34054421768707	56	127
381.1896145124717	381.34054421768707	62	127
381.1896145124717	381.34054421768707	58	127
381.2824943310658	381.514693877551	87	127
381.35215419501134	381.5030839002268	58	127
381.35215419501134	381.5030839002268	56	127
381.35215419501134	381.5030839002268	62	127
381.35215419501134	381.5030839002268	41	127
381.514693877551	381.6424036281179	58	127
381.514693877551	381.6424036281179	56	127
381.514693877551	381.6424036281179	62	127
381.514693877551	381.6424036281179	41	127
381.514693877551	381.735283446712	74	127
381.6540136054422	381.79333333333335	56	127
381.6540136054422	381.79333333333335	62	127
381.6540136054422	381.79333333333335	58	127
381.6540136054422	381.79333333333335	41	127
381.735283446712	381.8746031746032	86	127
381.8049433106576	381.93265306122447	58	127
381.8049433106576	381.93265306122447	56	127
381.8049433106576	381.93265306122447	62	127
381.8049433106576	381.93265306122447	41	127
381.93265306122447	382.10680272108846	41	127
381.93265306122447	382.10680272108846	56	127
381.93265306122447	382.10680272108846	62	127
381.93265306122447	382.10680272108846	58	127
381.93265306122447	382.1184126984127	84	127
382.10680272108846	382.2345124716553	41	127
382.10680272108846	382.2345124716553	56	127
382.10680272108846	382.2345124716553	62	127
382.10680272108846	382.2345124716553	58	127
382.16485260770975	382.3157823129252	82	127
382.2345124716553	382.3738321995465	62	127
382.2345124716553	382.3738321995465	56	127
382.2345124716553	382.3738321995465	58	127
382.2345124716553	382.3738321995465	41	127
382.3738321995465	382.61764172335603	72	127
382.3738321995465	382.52476190476193	56	127
382.3738321995465	382.52476190476193	62	127
382.3738321995465	382.52476190476193	58	127
382.3738321995465	382.52476190476193	41	127
382.52476190476193	382.6873015873016	58	127
382.52476190476193	382.6873015873016	56	127
382.52476190476193	382.6873015873016	62	127
382.52476190476193	382.6873015873016	41	127
382.61764172335603	382.82662131519277	84	127
382.6873015873016	382.82662131519277	56	127
382.6873015873016	382.82662131519277	62	127
382.6873015873016	382.82662131519277	58	127
382.6873015873016	382.82662131519277	41	127
382.82662131519277	382.9659410430839	58	127
382.82662131519277	382.9659410430839	56	127
382.82662131519277	382.9659410430839	62	127
382.82662131519277	383.0472108843537	74	127
382.82662131519277	382.9659410430839	41	127
382.97755102040816	383.11687074829933	41	127
382.97755102040816	383.11687074829933	56	127
382.97755102040816	383.11687074829933	62	127
382.97755102040816	383.11687074829933	58	127
383.0472108843537	383.2213605442177	86	127
383.1284807256236	383.2678004535147	41	127
383.1284807256236	383.2678004535147	56	127
383.1284807256236	383.2678004535147	62	127
383.1284807256236	383.2678004535147	58	127
383.279410430839	383.4071201814059	41	127
383.279410430839	383.4071201814059	56	127
383.279410430839	383.4071201814059	62	127
383.279410430839	383.4071201814059	58	127
383.279410430839	383.43034013605444	87	127
383.41873015873017	383.5580498866213	41	127
383.41873015873017	383.5580498866213	56	127
383.41873015873017	383.5580498866213	62	127
383.41873015873017	383.5580498866213	58	127
383.48839002267573	383.65092970521545	89	127
383.56965986394556	383.69736961451247	58	127
383.56965986394556	383.69736961451247	56	127
383.56965986394556	383.69736961451247	62	127
383.56965986394556	383.69736961451247	41	127
383.70897959183674	383.8715192743764	41	127
383.70897959183674	383.8715192743764	56	127
383.70897959183674	383.8715192743764	62	127
383.70897959183674	383.8715192743764	58	127
383.70897959183674	383.98761904761903	79	127
383.88312925170067	384.05727891156465	41	127
383.88312925170067	384.05727891156465	62	127
383.88312925170067	384.05727891156465	56	127
383.88312925170067	384.05727891156465	58	127
383.98761904761903	384.20820861678004	91	127
384.05727891156465	384.1965986394558	56	127
384.05727891156465	384.1965986394558	62	127
384.05727891156465	384.1965986394558	58	127
384.05727891156465	384.1965986394558	41	127
384.20820861678004	384.3591383219955	58	127
384.20820861678004	384.3591383219955	56	127
384.20820861678004	384.3591383219955	62	127
384.20820861678004	384.3591383219955	41	127
384.20820861678004	384.4404081632653	80	127
384.3707482993197	384.5100680272109	41	127
384.3707482993197	384.5100680272109	56	127
384.3707482993197	384.5100680272109	62	127
384.3707482993197	384.5100680272109	58	127
384.4404081632653	384.6726077097506	92	127
384.52167800453515	384.6726077097506	41	127
384.52167800453515	384.6726077097506	56	127
384.52167800453515	384.6726077097506	62	127
384.52167800453515	384.6726077097506	58	127
384.6726077097506	384.8467573696145	56	127
384.6726077097506	384.8467573696145	62	127
384.6726077097506	384.8467573696145	58	127
384.6726077097506	384.8467573696145	41	127
384.6726077097506	384.9396371882086	77	127
384.8583673469388	385.0325170068027	41	127
384.8583673469388	385.0325170068027	56	127
384.8583673469388	385.0325170068027	62	127
384.8583673469388	385.0325170068027	58	127
384.9396371882086	385.2182766439909	89	127
385.044126984127	385.20666666666665	56	127
385.044126984127	385.20666666666665	62	127
385.044126984127	385.20666666666665	58	127
385.044126984127	385.20666666666665	41	127
385.2182766439909	385.56657596371883	43	127
385.2182766439909	385.56657596371883	87	127
385.2182766439909	385.56657596371883	58	127
385.2182766439909	385.68267573696147	82	127
385.69428571428574	386.05419501133787	44	127
385.69428571428574	386.05419501133787	87	127
385.69428571428574	386.05419501133787	56	127
385.69428571428574	386.1702947845805	84	127
386.1819047619048	386.33283446712016	80	127
386.4024943310658	386.55342403628117	77	127
386.64630385487527	386.93655328798184	70	127
386.64630385487527	386.93655328798184	91	127
386.64630385487527	386.93655328798184	46	127
386.64630385487527	387.075873015873	75	127
387.0874829931973	387.50544217687076	92	127
387.0874829931973	387.50544217687076	70	127
387.0874829931973	387.50544217687076	58	127
387.0874829931973	387.59832199546486	77	127
387.6099319727891	387.7608616780045	74	127
387.81891156462586	387.9814512471655	70	127
388.0511111111111	388.352970521542	55	127
388.0511111111111	388.352970521542	75	127
388.0511111111111	388.4806802721088	70	127
388.50390022675737	388.8173696145125	56	127
388.50390022675737	388.8173696145125	75	127
388.50390022675737	388.92185941043084	72	127
388.9334693877551	389.0843990929705	68	127
389.14244897959185	389.29337868480724	65	127
389.4326984126984	389.76938775510206	58	127
389.4326984126984	389.76938775510206	79	127
389.4326984126984	389.8854875283447	63	127
389.8854875283447	390.2221768707483	80	127
389.8854875283447	390.3382766439909	65	127
389.8854875283447	390.2221768707483	58	127
390.3382766439909	390.48920634920637	62	127
390.55886621315193	390.73301587301586	58	127
390.8491156462585	391.2206349206349	70	127
390.8491156462585	391.32512471655326	70	127
390.8491156462585	391.32512471655326	58	127
391.33673469387753	391.754693877551	72	127
391.33673469387753	391.65020408163264	70	127
391.33673469387753	391.754693877551	60	127
391.7663038548753	391.9404535147392	68	127
391.7663038548753	391.9404535147392	56	127
391.99850340136055	392.14943310657594	65	127
391.99850340136055	392.14943310657594	53	127
392.2074829931973	392.63705215419503	67	127
392.2074829931973	392.53256235827666	70	127
392.2074829931973	392.63705215419503	79	127
392.2074829931973	392.63705215419503	51	127
392.6486621315193	393.0550113378685	68	127
392.6486621315193	392.95052154195014	70	127
392.6486621315193	393.0550113378685	80	127
392.6486621315193	393.0550113378685	53	127
393.0666213151927	393.2407709750567	50	127
393.0666213151927	393.2407709750567	77	127
393.0666213151927	393.2407709750567	65	127
393.31043083900227	393.4613605442177	46	127
393.31043083900227	393.4613605442177	74	127
393.31043083900227	393.4613605442177	62	127
393.54263038548754	393.9721995464853	43	127
393.54263038548754	393.9721995464853	82	127
393.54263038548754	393.9721995464853	75	127
393.54263038548754	393.9721995464853	70	127
393.9838095238095	394.401768707483	72	127
393.9838095238095	394.401768707483	84	127
393.9838095238095	394.401768707483	75	127
393.9838095238095	394.401768707483	44	127
394.41337868480724	394.5643083900227	68	127
394.41337868480724	394.5643083900227	80	127
394.41337868480724	394.5643083900227	75	127
394.41337868480724	394.5643083900227	41	127
394.63396825396825	394.79650793650796	65	127
394.63396825396825	394.79650793650796	77	127
394.63396825396825	394.79650793650796	74	127
394.63396825396825	394.79650793650796	46	127
394.85455782312926	395.29573696145127	67	127
394.85455782312926	395.29573696145127	87	127
394.85455782312926	395.29573696145127	79	127
394.85455782312926	395.29573696145127	47	127
395.29573696145127	395.7369160997732	46	127
395.29573696145127	395.7369160997732	89	127
395.29573696145127	395.7369160997732	80	127
395.29573696145127	395.7369160997732	68	127
395.5163265306122	395.67886621315193	77	127
395.7369160997732	395.89945578231294	82	127
395.7369160997732	395.89945578231294	77	127
395.7369160997732	395.89945578231294	65	127
395.7369160997732	395.89945578231294	46	127
395.9691156462585	396.17809523809524	46	127
395.9691156462585	396.17809523809524	65	127
395.9691156462585	396.17809523809524	86	127
395.9691156462585	396.17809523809524	65	127
395.9691156462585	396.17809523809524	74	127
395.9691156462585	396.17809523809524	56	127
396.2477551020408	396.36385487528344	55	127
396.2477551020408	396.36385487528344	87	127
396.2477551020408	396.36385487528344	58	127
396.2477551020408	396.36385487528344	51	127
396.3754648526077	396.52639455782315	55	127
396.3754648526077	396.52639455782315	86	127
396.3754648526077	396.52639455782315	58	127
396.3754648526077	396.52639455782315	51	127
396.53800453514737	396.6889342403628	58	127
396.53800453514737	396.6889342403628	84	127
396.53800453514737	396.6889342403628	55	127
396.53800453514737	396.6889342403628	51	127
396.7005442176871	396.828253968254	51	127
396.7005442176871	396.828253968254	82	127
396.7005442176871	396.828253968254	58	127
396.7005442176871	396.828253968254	55	127
396.83986394557826	396.95596371882084	55	127
396.83986394557826	396.95596371882084	80	127
396.83986394557826	396.95596371882084	58	127
396.83986394557826	396.95596371882084	51	127
396.95596371882084	397.08367346938775	55	127
396.95596371882084	397.08367346938775	79	127
396.95596371882084	397.08367346938775	58	127
396.95596371882084	397.08367346938775	51	127
397.095283446712	397.1997732426304	56	127
397.095283446712	397.1997732426304	84	127
397.095283446712	397.1997732426304	60	127
397.095283446712	397.1997732426304	51	127
397.21138321995466	397.35070294784583	60	127
397.21138321995466	397.35070294784583	82	127
397.21138321995466	397.35070294784583	51	127
397.21138321995466	397.35070294784583	56	127
397.35070294784583	397.4784126984127	51	127
397.35070294784583	397.4784126984127	80	127
397.35070294784583	397.4784126984127	60	127
397.35070294784583	397.4784126984127	56	127
397.49002267573695	397.62934240362813	51	127
397.49002267573695	397.62934240362813	79	127
397.49002267573695	397.62934240362813	60	127
397.49002267573695	397.62934240362813	56	127
397.6409523809524	397.7802721088435	56	127
397.6409523809524	397.7802721088435	77	127
397.6409523809524	397.7802721088435	60	127
397.6409523809524	397.7802721088435	51	127
397.7918820861678	397.9544217687075	56	127
397.7918820861678	397.9544217687075	75	127
397.7918820861678	397.9544217687075	60	127
397.7918820861678	397.9544217687075	51	127
397.9660317460318	398.0937414965986	53	127
397.9660317460318	398.0937414965986	74	127
397.9660317460318	398.0937414965986	62	127
397.9660317460318	398.0937414965986	51	127
398.1053514739229	398.2795011337868	53	127
398.1053514739229	398.2795011337868	72	127
398.1053514739229	398.2795011337868	62	127
398.1053514739229	398.2795011337868	51	127
398.2911111111111	398.4536507936508	51	127
398.2911111111111	398.4536507936508	70	127
398.2911111111111	398.4536507936508	62	127
398.2911111111111	398.4536507936508	53	127
398.4536507936508	398.61619047619047	51	127
398.4536507936508	398.61619047619047	72	127
398.4536507936508	398.61619047619047	62	127
398.4536507936508	398.61619047619047	53	127
398.62780045351474	398.7671201814059	53	127
398.62780045351474	398.7671201814059	74	127
398.62780045351474	398.7671201814059	62	127
398.62780045351474	398.7671201814059	51	127
398.7787301587302	398.9180498866213	53	127
398.7787301587302	398.9180498866213	70	127
398.7787301587302	398.9180498866213	62	127
398.7787301587302	398.9180498866213	51	127
398.9180498866213	399.0457596371882	63	127
398.9180498866213	399.0457596371882	75	127
398.9180498866213	399.0457596371882	63	127
399.0573696145125	399.1850793650794	62	127
399.0573696145125	399.1850793650794	74	127
399.0573696145125	399.1850793650794	62	127
399.1966893424036	399.3360090702948	60	127
399.1966893424036	399.3360090702948	60	127
399.1966893424036	399.3360090702948	72	127
399.3360090702948	399.4637188208617	58	127
399.3360090702948	399.4637188208617	70	127
399.3360090702948	399.4637188208617	70	127
399.47532879818596	399.6030385487528	68	127
399.47532879818596	399.6030385487528	56	127
399.47532879818596	399.6030385487528	68	127
399.6146485260771	399.7307482993197	55	127
399.6146485260771	399.7307482993197	67	127
399.6146485260771	399.7307482993197	67	127
399.742358276644	399.89328798185943	60	127
399.742358276644	399.89328798185943	72	127
399.742358276644	399.89328798185943	72	127
399.9048979591837	400.0558276643991	58	127
399.9048979591837	400.0558276643991	70	127
399.9048979591837	400.0558276643991	70	127
400.06743764172336	400.19514739229027	56	127
400.06743764172336	400.19514739229027	68	127
400.06743764172336	400.19514739229027	68	127
400.20675736961454	400.29963718820864	67	127
400.20675736961454	400.29963718820864	67	127
400.20675736961454	400.29963718820864	55	127
400.29963718820864	400.43895691609976	65	127
400.29963718820864	400.43895691609976	53	127
400.29963718820864	400.43895691609976	65	127
400.450566893424	400.57827664399093	51	127
400.450566893424	400.57827664399093	63	127
400.450566893424	400.57827664399093	63	127
400.5898866213152	400.7292063492063	50	127
400.5898866213152	400.7292063492063	62	127
400.5898866213152	400.7292063492063	62	127
400.7292063492063	400.8685260770975	48	127
400.7292063492063	400.8685260770975	60	127
400.7292063492063	400.8685260770975	60	127
400.88013605442177	401.01945578231295	58	127
400.88013605442177	401.01945578231295	46	127
400.88013605442177	401.01945578231295	58	127
401.0310657596372	401.15877551020407	60	127
401.0310657596372	401.15877551020407	60	127
401.0310657596372	401.15877551020407	48	127
401.17038548752834	401.286485260771	62	127
401.17038548752834	401.286485260771	50	127
401.17038548752834	401.286485260771	62	127
401.3097052154195	401.44902494331063	46	127
401.3097052154195	401.44902494331063	58	127
401.3097052154195	401.44902494331063	58	127
401.4606349206349	401.8437641723356	51	127
401.4606349206349	401.8437641723356	63	127
401.4606349206349	401.8437641723356	63	127
401.9598639455782	402.38943310657595	55	127
401.9598639455782	402.38943310657595	63	127
401.9598639455782	402.38943310657595	55	127
401.9598639455782	402.38943310657595	63	127
401.9598639455782	402.38943310657595	75	127
401.9598639455782	402.38943310657595	51	127
403.6665306122449	404.10770975056687	58	127
403.6665306122449	404.10770975056687	77	127
403.6665306122449	404.10770975056687	70	127
403.6665306122449	404.10770975056687	62	127
403.6665306122449	404.10770975056687	62	127
403.6665306122449	404.10770975056687	58	127
405.18743764172336	405.8608163265306	63	127
405.18743764172336	405.8608163265306	63	127
405.18743764172336	405.8608163265306	70	127
405.18743764172336	405.8608163265306	51	127
405.18743764172336	405.8608163265306	79	127
407.04503401360546	407.6603628117914	82	127
407.04503401360546	407.6603628117914	58	127
407.04503401360546	407.6603628117914	77	127
407.04503401360546	407.6603628117914	46	127
407.04503401360546	407.6603628117914	70	127
407.04503401360546	407.6603628117914	62	127
408.04349206349207	408.14798185941044	67	127
408.04349206349207	408.14798185941044	75	127
408.04349206349207	408.14798185941044	70	127
408.14798185941044	408.2989115646258	72	127
408.14798185941044	408.2989115646258	77	127
408.14798185941044	408.2989115646258	68	127
408.2989115646258	408.438231292517	70	127
408.2989115646258	408.438231292517	75	127
408.2989115646258	408.438231292517	67	127
408.4498412698413	408.5659410430839	71	127
408.4498412698413	408.5659410430839	68	127
408.4498412698413	408.5659410430839	74	127
408.5775510204082	408.70526077097503	68	127
408.5775510204082	408.70526077097503	72	127
408.5775510204082	408.70526077097503	75	127
408.7168707482993	408.8561904761905	71	127
408.7168707482993	408.8561904761905	74	127
408.7168707482993	408.8561904761905	68	127
408.86780045351475	408.9839002267574	67	127
408.86780045351475	408.9839002267574	70	127
408.86780045351475	408.9839002267574	75	127
408.99551020408165	409.1232199546485	72	127
408.99551020408165	409.1232199546485	77	127
408.99551020408165	409.1232199546485	68	127
409.1348299319728	409.2973696145125	67	127
409.1348299319728	409.2973696145125	70	127
409.1348299319728	409.2973696145125	75	127
409.2973696145125	409.4482993197279	70	127
409.2973696145125	409.4482993197279	67	127
409.2973696145125	409.4482993197279	75	127
409.45990929705215	409.6108390022676	68	127
409.45990929705215	409.6108390022676	72	127
409.45990929705215	409.6108390022676	77	127
409.6224489795918	409.7965986394558	70	127
409.6224489795918	409.7965986394558	75	127
409.6224489795918	409.7965986394558	67	127
409.7965986394558	409.9359183673469	68	127
409.7965986394558	409.9359183673469	71	127
409.7965986394558	409.9359183673469	74	127
409.9475283446712	410.09845804988663	72	127
409.9475283446712	410.09845804988663	75	127
409.9475283446712	410.09845804988663	68	127
410.1100680272109	410.249387755102	68	127
410.1100680272109	410.249387755102	71	127
410.1100680272109	410.249387755102	74	127
410.249387755102	410.7370068027211	70	127
410.249387755102	410.7370068027211	67	127
410.249387755102	410.7370068027211	75	127
410.7486167800453	410.8879365079365	75	127
410.7486167800453	410.8879365079365	70	127
410.7486167800453	410.8879365079365	58	127
410.7486167800453	411.18979591836734	39	127
410.7486167800453	410.8879365079365	67	127
410.91115646258504	411.06208616780043	58	127
410.91115646258504	411.06208616780043	72	127
410.91115646258504	411.06208616780043	67	127
410.91115646258504	411.06208616780043	70	127
410.91115646258504	411.06208616780043	67	127
411.0736961451247	411.18979591836734	67	127
411.0736961451247	411.18979591836734	67	127
411.0736961451247	411.18979591836734	74	127
411.0736961451247	411.18979591836734	58	127
411.0736961451247	411.18979591836734	70	127
411.2014058956916	411.3407256235828	67	127
411.2014058956916	411.6425850340136	46	127
411.2014058956916	411.3407256235828	75	127
411.2014058956916	411.3407256235828	67	127
411.2014058956916	411.3407256235828	70	127
411.2014058956916	411.3407256235828	58	127
411.3407256235828	411.50326530612244	67	127
411.3407256235828	411.50326530612244	70	127
411.3407256235828	411.50326530612244	58	127
411.3407256235828	411.50326530612244	67	127
411.3407256235828	411.50326530612244	77	127
411.5148752834467	411.6425850340136	67	127
411.5148752834467	411.6425850340136	70	127
411.5148752834467	411.6425850340136	58	127
411.5148752834467	411.6425850340136	67	127
411.5148752834467	411.6425850340136	79	127
411.6541950113379	411.793514739229	70	127
411.6541950113379	411.793514739229	80	127
411.6541950113379	411.793514739229	67	127
411.6541950113379	411.793514739229	58	127
411.6541950113379	411.793514739229	67	127
411.6541950113379	411.8051247165533	43	127
411.793514739229	411.9328344671202	67	127
411.793514739229	411.9328344671202	70	127
411.793514739229	411.9328344671202	58	127
411.793514739229	411.9328344671202	67	127
411.793514739229	411.9328344671202	82	127
411.87478458049884	412.0489342403628	39	127
411.94444444444446	412.1185941043084	67	127
411.94444444444446	412.1185941043084	84	127
411.94444444444446	412.1185941043084	67	127
411.94444444444446	412.1185941043084	70	127
411.94444444444446	412.1185941043084	58	127
412.13020408163266	413.53501133786847	86	127
412.13020408163266	413.53501133786847	44	127
412.13020408163266	412.6526530612245	58	127
412.13020408163266	412.2927437641723	77	127
412.2927437641723	412.4668934240363	75	127
412.4901133786848	412.6526530612245	74	127
412.66426303854877	413.0938321995465	65	127
412.66426303854877	412.7919727891156	72	127
412.8035827664399	412.94290249433107	70	127
412.94290249433107	413.0938321995465	68	127
413.1054421768707	413.25637188208617	62	127
413.1054421768707	413.23315192743763	67	127
413.2447619047619	413.3840816326531	67	127
413.31442176870746	413.4769614512472	58	127
413.3840816326531	413.53501133786847	65	127
413.54662131519274	413.67433106575965	70	127
413.54662131519274	413.67433106575965	75	127
413.54662131519274	413.67433106575965	67	127
413.6859410430839	413.82526077097504	72	127
413.6859410430839	413.82526077097504	77	127
413.6859410430839	413.82526077097504	68	127
413.82526077097504	413.999410430839	70	127
413.82526077097504	413.999410430839	75	127
413.82526077097504	413.999410430839	67	127
414.0110204081633	414.13873015873014	71	127
414.0110204081633	414.13873015873014	74	127
414.0110204081633	414.13873015873014	68	127
414.1503401360544	414.2780498866213	72	127
414.1503401360544	414.2780498866213	75	127
414.1503401360544	414.2780498866213	68	127
414.2896598639456	414.45219954648525	71	127
414.2896598639456	414.45219954648525	74	127
414.2896598639456	414.45219954648525	68	127
414.4638095238095	414.5915192743764	70	127
414.4638095238095	414.5915192743764	75	127
414.4638095238095	414.5915192743764	67	127
414.6031292517007	414.7424489795918	72	127
414.6031292517007	414.7424489795918	77	127
414.6031292517007	414.7424489795918	68	127
414.7540589569161	414.98625850340136	70	127
414.7540589569161	414.98625850340136	75	127
414.7540589569161	414.98625850340136	67	127
414.98625850340136	415.12557823129254	70	127
414.98625850340136	415.12557823129254	75	127
414.98625850340136	415.12557823129254	67	127
415.1371882086168	415.26489795918366	72	127
415.1371882086168	415.26489795918366	77	127
415.1371882086168	415.26489795918366	68	127
415.29972789115646	415.43904761904764	70	127
415.29972789115646	415.43904761904764	75	127
415.29972789115646	415.43904761904764	67	127
415.43904761904764	415.58997732426303	71	127
415.43904761904764	415.58997732426303	74	127
415.43904761904764	415.58997732426303	68	127
415.6015873015873	415.7292970521542	72	127
415.6015873015873	415.7292970521542	75	127
415.6015873015873	415.7292970521542	68	127
415.7409070294785	415.9614965986394	71	127
415.7409070294785	415.9614965986394	74	127
415.7409070294785	415.9614965986394	68	127
415.9614965986394	416.3678458049887	70	127
415.9614965986394	416.3678458049887	67	127
415.9614965986394	416.3678458049887	75	127
416.3794557823129	416.5187755102041	51	127
416.3794557823129	416.8554648526077	75	127
416.3794557823129	416.5187755102041	75	127
416.3794557823129	416.5187755102041	67	127
416.53038548752835	416.7045351473923	67	127
416.53038548752835	416.7045351473923	53	127
416.53038548752835	416.7045351473923	70	127
416.71614512471655	416.8554648526077	70	127
416.71614512471655	416.8554648526077	67	127
416.71614512471655	416.8554648526077	55	127
416.867074829932	417.0412244897959	67	127
416.867074829932	417.0412244897959	56	127
416.867074829932	417.35469387755103	82	127
416.867074829932	417.0412244897959	70	127
417.0412244897959	417.21537414965985	70	127
417.0412244897959	417.21537414965985	67	127
417.0412244897959	417.21537414965985	58	127
417.2269841269841	417.35469387755103	60	127
417.2269841269841	417.35469387755103	70	127
417.2269841269841	417.35469387755103	67	127
417.3663038548753	417.52884353741496	67	127
417.3663038548753	417.52884353741496	62	127
417.3663038548753	417.52884353741496	70	127
417.3663038548753	417.5404535147392	79	127
417.52884353741496	417.6913832199547	70	127
417.52884353741496	417.6913832199547	67	127
417.52884353741496	417.6913832199547	63	127
417.5985034013605	417.80748299319725	75	127
417.7029931972789	417.85392290249433	63	127
417.7029931972789	417.85392290249433	70	127
417.7029931972789	417.85392290249433	67	127
417.8655328798186	417.9932426303855	70	127
417.8655328798186	417.9932426303855	66	127
417.8655328798186	417.9932426303855	63	127
417.8655328798186	419.16585034013605	81	127
418.0048526077097	418.15578231292517	66	127
418.0048526077097	418.15578231292517	63	127
418.0048526077097	418.15578231292517	70	127
418.16739229024944	418.29510204081635	70	127
418.16739229024944	418.29510204081635	66	127
418.16739229024944	418.29510204081635	63	127
418.3067120181406	418.43442176870747	63	127
418.3067120181406	418.43442176870747	70	127
418.3067120181406	418.43442176870747	66	127
418.44603174603174	418.5853514739229	63	127
418.44603174603174	418.5853514739229	66	127
418.44603174603174	418.5853514739229	70	127
418.5853514739229	418.72467120181403	66	127
418.5853514739229	418.72467120181403	63	127
418.5853514739229	418.72467120181403	70	127
418.7362811791383	418.8639909297052	66	127
418.7362811791383	418.8639909297052	63	127
418.7362811791383	418.8639909297052	70	127
418.8756009070295	419.0265306122449	70	127
418.8756009070295	419.0265306122449	66	127
418.8756009070295	419.0265306122449	63	127
419.0265306122449	419.16585034013605	70	127
419.0265306122449	419.16585034013605	66	127
419.0265306122449	419.16585034013605	63	127
419.1774603174603	419.3051700680272	67	127
419.1774603174603	419.3051700680272	63	127
419.1774603174603	420.02498866213153	82	127
419.1774603174603	419.3051700680272	70	127
419.3167800453515	419.4560997732426	70	127
419.3167800453515	419.4560997732426	67	127
419.3167800453515	419.4560997732426	63	127
419.4560997732426	419.5954195011338	63	127
419.4560997732426	419.5954195011338	70	127
419.4560997732426	419.5954195011338	67	127
419.60702947845806	419.73473922902497	67	127
419.60702947845806	419.73473922902497	63	127
419.60702947845806	419.73473922902497	70	127
419.7463492063492	419.8740589569161	63	127
419.7463492063492	419.8740589569161	70	127
419.7463492063492	419.8740589569161	67	127
419.88566893424036	420.02498866213153	70	127
419.88566893424036	420.02498866213153	67	127
419.88566893424036	420.02498866213153	63	127
420.0365986394558	420.16430839002265	63	127
420.0365986394558	420.16430839002265	70	127
420.0365986394558	420.16430839002265	67	127
420.1759183673469	420.30362811791383	70	127
420.1759183673469	420.30362811791383	67	127
420.1759183673469	420.30362811791383	63	127
420.3152380952381	420.4661678004535	70	127
420.3152380952381	420.4661678004535	67	127
420.3152380952381	420.4661678004535	63	127
420.4661678004535	420.6287074829932	70	127
420.4661678004535	420.6287074829932	66	127
420.4661678004535	420.6287074829932	63	127
420.4661678004535	421.987074829932	81	127
420.66353741496596	420.80285714285714	66	127
420.66353741496596	420.80285714285714	70	127
420.66353741496596	420.80285714285714	63	127
420.8144671201814	420.9537868480726	63	127
420.8144671201814	420.9537868480726	70	127
420.8144671201814	420.9537868480726	66	127
420.9537868480726	421.104716553288	63	127
420.9537868480726	421.104716553288	66	127
420.9537868480726	421.104716553288	70	127
421.11632653061224	421.2556462585034	66	127
421.11632653061224	421.2556462585034	63	127
421.11632653061224	421.2556462585034	70	127
421.2672562358277	421.4065759637188	63	127
421.2672562358277	421.4065759637188	70	127
421.2672562358277	421.4065759637188	66	127
421.4181859410431	421.5691156462585	63	127
421.4181859410431	421.5691156462585	66	127
421.4181859410431	421.5691156462585	70	127
421.5691156462585	421.7200453514739	63	127
421.5691156462585	421.7200453514739	70	127
421.5691156462585	421.7200453514739	66	127
421.7316553287982	421.987074829932	70	127
421.7316553287982	421.987074829932	66	127
421.7316553287982	421.987074829932	63	127
421.9986848072562	423.38027210884354	70	127
421.9986848072562	423.38027210884354	82	127
421.9986848072562	423.38027210884354	58	127
421.9986848072562	423.38027210884354	46	127
423.84467120181404	424.72702947845806	77	127
423.84467120181404	424.72702947845806	86	127
423.84467120181404	424.72702947845806	58	127
423.84467120181404	424.72702947845806	65	127
423.84467120181404	424.72702947845806	74	127
423.84467120181404	424.72702947845806	58	127
423.84467120181404	424.72702947845806	70	127
425.05210884353744	426.0853968253968	39	127
425.05210884353744	426.0853968253968	70	127
425.05210884353744	426.0853968253968	79	127
425.05210884353744	426.0853968253968	87	127
425.05210884353744	426.0853968253968	55	127
425.05210884353744	426.0853968253968	63	127
425.05210884353744	426.0853968253968	75	127
