# onset,offset,note,velocity
0.2546258503401361	1.3343764172335602	64	127
0.2546258503401361	1.3343764172335602	71	127
0.2546258503401361	1.3343764172335602	67	127
0.2546258503401361	1.3343764172335602	59	127
0.2546258503401361	1.3343764172335602	76	127
0.2546258503401361	1.3343764172335602	64	127
0.2546258503401361	1.3343764172335602	52	127
1.8916553287981859	2.414104308390023	71	127
1.8916553287981859	2.414104308390023	83	127
1.8916553287981859	2.414104308390023	78	127
1.8916553287981859	2.414104308390023	59	127
1.8916553287981859	2.414104308390023	66	127
1.8916553287981859	2.414104308390023	51	127
4.4458503401360545	4.782539682539682	64	127
4.4458503401360545	4.782539682539682	52	127
4.782539682539682	5.096009070294785	59	127
4.782539682539682	5.096009070294785	47	127
5.107619047619048	5.409478458049887	67	127
5.107619047619048	5.409478458049887	55	127
5.409478458049887	6.349886621315193	59	127
5.409478458049887	6.419546485260771	71	127
5.409478458049887	6.965215419501134	59	127
6.349886621315193	7.278684807256236	54	127
6.349886621315193	7.278684807256236	57	127
6.431156462585034	6.593696145124716	72	127
6.593696145124716	6.767845804988662	69	127
6.779455782312925	6.965215419501134	66	127
6.965215419501134	7.278684807256236	47	127
6.965215419501134	7.104535147392291	63	127
7.104535147392291	7.278684807256236	59	127
7.290294784580499	7.696643990929705	52	127
7.290294784580499	7.696643990929705	64	127
7.290294784580499	7.696643990929705	55	127
7.290294784580499	7.696643990929705	40	127
9.728390022675738	10.030249433106576	65	127
9.728390022675738	10.030249433106576	53	127
9.728390022675738	10.030249433106576	41	127
10.030249433106576	10.285668934240363	48	127
10.030249433106576	10.285668934240363	60	127
10.030249433106576	10.285668934240363	36	127
10.297256235827664	10.610748299319727	69	127
10.297256235827664	10.610748299319727	57	127
10.297256235827664	10.610748299319727	45	127
10.610748299319727	11.45827664399093	60	127
10.610748299319727	11.45827664399093	60	127
10.610748299319727	11.597573696145124	72	127
10.610748299319727	12.10843537414966	48	127
11.45827664399093	12.49156462585034	55	127
11.45827664399093	12.49156462585034	58	127
11.60920634920635	11.76013605442177	74	127
11.771746031746032	11.922675736961452	70	127
11.934285714285714	12.10843537414966	67	127
12.10843537414966	12.294195011337868	64	127
12.10843537414966	12.49156462585034	48	127
12.305804988662132	12.49156462585034	60	127
12.503174603174603	13.106893424036281	57	127
12.503174603174603	13.106893424036281	65	127
12.503174603174603	13.106893424036281	53	127
12.503174603174603	13.106893424036281	41	127
14.86	15.196689342403628	66	127
15.20829931972789	15.54498866213152	63	127
15.556598639455782	18.79578231292517	69	127
15.89328798185941	16.102267573696146	75	127
16.11387755102041	16.41573696145125	72	127
16.42734693877551	18.79578231292517	78	127
16.764036281179138	17.716054421768707	72	127
16.764036281179138	18.79578231292517	63	127
17.72766439909297	18.79578231292517	71	127
18.80736961451247	19.051201814058956	78	127
18.80736961451247	19.051201814058956	63	127
19.051201814058956	19.387891156462587	57	127
19.051201814058956	19.387891156462587	75	127
19.387891156462587	22.696734693877552	66	127
19.387891156462587	22.696734693877552	81	127
19.67814058956916	19.991609977324263	45	127
19.991609977324263	20.28185941043084	42	127
20.293469387755103	21.605396825396827	48	127
20.572108843537414	22.696734693877552	51	127
21.605396825396827	22.696734693877552	47	127
22.696734693877552	26.28421768707483	47	127
22.696734693877552	23.137913832199548	79	127
22.696734693877552	23.277233560090703	52	127
22.696734693877552	23.590702947845806	67	127
23.137913832199548	23.277233560090703	76	127
23.288843537414966	23.45138321995465	79	127
23.288843537414966	23.590702947845806	52	127
23.462993197278912	23.590702947845806	76	127
23.590702947845806	24.670430839002268	75	127
23.590702947845806	23.892562358276646	69	127
23.590702947845806	24.206031746031748	54	127
23.904172335600908	24.06671201814059	72	127
24.06671201814059	24.206031746031748	71	127
24.21764172335601	24.36857142857143	60	127
24.21764172335601	24.36857142857143	66	127
24.38018140589569	24.531111111111112	69	127
24.38018140589569	24.531111111111112	59	127
24.531111111111112	25.123219954648526	59	127
24.531111111111112	25.123219954648526	67	127
24.68204081632653	24.809750566893424	76	127
24.821360544217686	24.972290249433108	78	127
24.972290249433108	25.123219954648526	76	127
25.123219954648526	25.25092970521542	79	127
25.123219954648526	25.401859410430838	67	127
25.123219954648526	25.401859410430838	52	127
25.262539682539682	25.401859410430838	76	127
25.401859410430838	25.692108843537415	76	127
25.401859410430838	25.541179138321997	69	127
25.401859410430838	25.993968253968255	54	127
25.541179138321997	25.692108843537415	69	127
25.703718820861678	26.28421768707483	75	127
25.703718820861678	25.843038548752833	72	127
25.854648526077096	25.993968253968255	71	127
25.993968253968255	26.12167800453515	60	127
25.993968253968255	26.12167800453515	66	127
26.13328798185941	26.28421768707483	59	127
26.13328798185941	26.28421768707483	69	127
26.29582766439909	26.458367346938775	76	127
26.29582766439909	26.62090702947846	67	127
26.29582766439909	26.62090702947846	59	127
26.29582766439909	26.62090702947846	52	127
26.458367346938775	26.632517006802722	75	127
26.632517006802722	26.80666666666667	76	127
26.80666666666667	26.86471655328798	78	127
26.86471655328798	26.922766439909296	79	127
26.922766439909296	27.08530612244898	59	127
26.922766439909296	27.096916099773242	71	127
27.096916099773242	27.224625850340136	72	127
27.096916099773242	27.317505668934242	57	127
27.096916099773242	27.317505668934242	45	127
27.096916099773242	27.224625850340136	60	127
27.224625850340136	27.317505668934242	62	127
27.224625850340136	27.329115646258504	74	127
27.329115646258504	27.480045351473922	64	127
27.329115646258504	27.491655328798185	76	127
27.491655328798185	27.61936507936508	56	127
27.491655328798185	27.61936507936508	68	127
27.61936507936508	27.723854875283447	57	127
27.61936507936508	27.73546485260771	69	127
27.73546485260771	27.839954648526078	59	127
27.73546485260771	27.839954648526078	71	127
27.839954648526078	27.96766439909297	72	127
27.839954648526078	28.11859410430839	60	127
27.96766439909297	28.11859410430839	52	127
27.96766439909297	28.11859410430839	64	127
28.11859410430839	28.257913832199545	53	127
28.11859410430839	28.257913832199545	65	127
28.257913832199545	28.327573696145123	55	127
28.257913832199545	28.327573696145123	67	127
28.327573696145123	28.50172335600907	57	127
28.327573696145123	28.50172335600907	69	127
28.50172335600907	28.629433106575963	48	127
28.50172335600907	28.629433106575963	60	127
28.629433106575963	28.745532879818594	62	127
28.629433106575963	28.745532879818594	50	127
28.745532879818594	28.896462585034012	52	127
28.745532879818594	28.896462585034012	64	127
28.896462585034012	29.03578231292517	53	127
28.896462585034012	29.047392290249434	65	127
29.047392290249434	29.163492063492065	55	127
29.047392290249434	29.175102040816327	67	127
29.175102040816327	29.326031746031745	57	127
29.175102040816327	29.326031746031745	69	127
29.326031746031745	29.48857142857143	71	127
29.326031746031745	29.48857142857143	59	127
29.50018140589569	29.662721088435376	60	127
29.50018140589569	29.674331065759638	72	127
29.674331065759638	29.75560090702948	59	127
29.674331065759638	29.75560090702948	71	127
29.75560090702948	29.883310657596372	62	127
29.75560090702948	29.894920634920634	74	127
29.894920634920634	30.022630385487528	60	127
29.894920634920634	30.03424036281179	72	127
30.03424036281179	30.13873015873016	59	127
30.03424036281179	30.13873015873016	71	127
30.13873015873016	30.25482993197279	57	127
30.13873015873016	30.266439909297052	69	127
30.266439909297052	30.440589569161	67	127
30.266439909297052	30.428979591836736	55	127
30.440589569161	30.5334693877551	53	127
30.440589569161	30.5334693877551	65	127
30.5334693877551	30.672789115646257	52	127
30.5334693877551	30.684399092970523	64	127
30.684399092970523	30.858548752834466	53	127
30.684399092970523	30.858548752834466	65	127
30.858548752834466	31.044308390022675	57	127
30.858548752834466	31.044308390022675	69	127
31.044308390022675	31.241678004535146	72	127
31.044308390022675	31.241678004535146	60	127
31.241678004535146	31.380997732426305	72	127
31.241678004535146	31.380997732426305	60	127
31.392607709750568	31.717687074829932	61	127
31.392607709750568	31.717687074829932	46	127
31.392607709750568	32.414263038548754	64	127
31.392607709750568	32.414263038548754	55	127
31.729297052154195	32.065986394557825	61	127
31.729297052154195	32.065986394557825	46	127
32.07759637188209	32.414263038548754	59	127
32.07759637188209	32.414263038548754	47	127
32.414263038548754	32.762585034013604	67	127
32.414263038548754	32.762585034013604	47	127
32.414263038548754	32.762585034013604	59	127
32.414263038548754	32.762585034013604	64	127
32.762585034013604	33.1108843537415	63	127
32.762585034013604	33.1108843537415	66	127
32.762585034013604	33.1108843537415	57	127
32.762585034013604	33.1108843537415	47	127
33.12249433106576	33.598503401360546	63	127
33.12249433106576	33.598503401360546	57	127
33.12249433106576	33.598503401360546	48	127
33.12249433106576	33.598503401360546	66	127
34.00485260770975	34.43439909297052	83	127
34.00485260770975	34.43439909297052	71	127
34.00485260770975	34.43439909297052	78	127
34.00485260770975	34.43439909297052	63	127
34.00485260770975	34.43439909297052	66	127
34.00485260770975	34.43439909297052	39	127
36.466145124716554	38.20766439909297	52	127
36.96539682539682	37.10469387755102	64	127
37.11632653061225	37.371746031746035	76	127
37.11632653061225	37.232403628117915	67	127
37.11632653061225	37.371746031746035	55	127
37.24403628117914	37.371746031746035	64	127
37.371746031746035	37.917414965986396	78	127
37.371746031746035	37.615532879818595	57	127
37.371746031746035	38.35859410430839	63	127
37.62716553287982	37.74324263038549	60	127
37.74324263038549	37.917414965986396	59	127
37.917414965986396	38.05673469387755	84	127
37.917414965986396	38.05673469387755	54	127
38.068344671201814	38.20766439909297	83	127
38.068344671201814	38.20766439909297	57	127
38.21927437641723	39.9259410430839	52	127
38.21927437641723	38.50952380952381	57	127
38.21927437641723	38.7649433106576	83	127
38.35859410430839	38.50952380952381	64	127
38.521133786848075	38.62560090702948	66	127
38.521133786848075	38.683673469387756	55	127
38.637233560090706	38.7649433106576	64	127
38.7649433106576	38.91587301587302	67	127
38.7649433106576	39.09002267573696	76	127
38.7649433106576	39.00873015873016	55	127
38.92748299319728	39.09002267573696	64	127
39.10163265306122	39.9259410430839	63	127
39.10163265306122	39.333832199546485	57	127
39.10163265306122	39.635668934240364	78	127
39.333832199546485	39.47315192743764	60	127
39.4847619047619	39.635668934240364	59	127
39.635668934240364	39.77498866213152	54	127
39.635668934240364	39.77498866213152	84	127
39.78662131519275	39.9259410430839	83	127
39.78662131519275	39.9259410430839	57	127
39.937551020408165	40.19297052154195	83	127
39.937551020408165	40.49482993197279	55	127
39.937551020408165	40.06526077097506	64	127
39.937551020408165	40.49482993197279	52	127
40.06526077097506	40.19297052154195	63	127
40.204580498866214	40.367120181405895	64	127
40.37873015873016	40.49482993197279	66	127
40.49482993197279	40.62253968253968	67	127
40.634149659863944	40.750249433106575	59	127
40.634149659863944	40.750249433106575	71	127
40.76185941043084	41.33074829931973	57	127
40.76185941043084	40.924399092970525	72	127
40.76185941043084	40.924399092970525	60	127
40.76185941043084	41.33074829931973	45	127
40.924399092970525	41.05210884353742	62	127
40.924399092970525	41.05210884353742	74	127
41.05210884353742	41.17981859410431	76	127
41.05210884353742	41.17981859410431	64	127
41.17981859410431	41.33074829931973	56	127
41.17981859410431	41.33074829931973	68	127
41.33074829931973	41.4352380952381	57	127
41.33074829931973	41.4352380952381	69	127
41.4352380952381	41.470068027210885	71	127
41.4352380952381	41.470068027210885	59	127
41.470068027210885	41.737097505668935	60	127
41.470068027210885	41.59777777777778	72	127
41.60938775510204	41.737097505668935	64	127
41.60938775510204	41.737097505668935	52	127
41.737097505668935	41.88802721088435	65	127
41.737097505668935	41.88802721088435	53	127
41.899637188208615	42.050544217687076	55	127
41.899637188208615	42.050544217687076	67	127
42.0621768707483	42.22471655328798	69	127
42.0621768707483	42.22471655328798	57	127
42.22471655328798	42.35242630385488	60	127
42.22471655328798	42.35242630385488	48	127
42.35242630385488	42.503356009070295	62	127
42.35242630385488	42.503356009070295	50	127
42.51496598639456	42.665895691609975	64	127
42.51496598639456	42.665895691609975	52	127
42.665895691609975	42.781995464852606	65	127
42.665895691609975	42.781995464852606	53	127
42.79360544217687	42.89809523809524	67	127
42.79360544217687	42.89809523809524	55	127
42.89809523809524	43.002585034013606	69	127
42.89809523809524	43.002585034013606	57	127
43.002585034013606	43.14190476190476	71	127
43.002585034013606	43.14190476190476	59	127
43.153514739229024	43.29283446712018	72	127
43.153514739229024	43.29283446712018	60	127
43.153514739229024	43.385714285714286	60	127
43.30444444444444	43.4553514739229	74	127
43.30444444444444	43.4553514739229	62	127
43.46698412698413	43.606303854875286	76	127
43.46698412698413	43.606303854875286	64	127
43.606303854875286	43.69916099773243	65	127
43.606303854875286	43.69916099773243	77	127
43.606303854875286	43.69916099773243	53	127
43.606303854875286	43.69916099773243	41	127
43.69916099773243	43.873333333333335	55	127
43.69916099773243	43.873333333333335	79	127
43.69916099773243	43.873333333333335	67	127
43.69916099773243	43.873333333333335	43	127
43.8849433106576	43.9778231292517	81	127
43.8849433106576	43.9778231292517	69	127
43.8849433106576	43.9778231292517	57	127
43.8849433106576	43.9778231292517	45	127
43.9778231292517	44.093922902494334	83	127
43.9778231292517	44.093922902494334	71	127
43.9778231292517	44.093922902494334	59	127
43.9778231292517	44.093922902494334	47	127
44.1055328798186	44.27968253968254	84	127
44.1055328798186	44.27968253968254	72	127
44.1055328798186	44.27968253968254	60	127
44.1055328798186	44.27968253968254	48	127
44.27968253968254	44.44222222222222	86	127
44.27968253968254	44.44222222222222	74	127
44.27968253968254	44.44222222222222	62	127
44.27968253968254	44.44222222222222	50	127
44.5118820861678	44.61637188208617	89	127
44.5118820861678	44.61637188208617	77	127
44.5118820861678	44.61637188208617	65	127
44.5118820861678	44.61637188208617	53	127
44.67442176870748	44.76730158730159	65	127
44.67442176870748	44.76730158730159	48	127
44.67442176870748	44.76730158730159	45	127
44.67442176870748	44.76730158730159	89	127
44.8253514739229	45.835419501133785	89	127
44.8253514739229	44.88340136054422	71	127
44.8253514739229	44.88340136054422	50	127
44.8253514739229	44.88340136054422	43	127
44.88340136054422	44.99950113378685	50	127
44.88340136054422	44.99950113378685	43	127
44.88340136054422	44.99950113378685	59	127
45.0459410430839	45.15043083900227	50	127
45.0459410430839	45.15043083900227	43	127
45.0459410430839	45.15043083900227	59	127
45.185260770975056	45.2665306122449	50	127
45.185260770975056	45.2665306122449	43	127
45.185260770975056	45.2665306122449	59	127
45.2665306122449	45.38263038548753	43	127
45.2665306122449	45.38263038548753	59	127
45.2665306122449	45.38263038548753	50	127
45.42907029478458	45.4871201814059	43	127
45.42907029478458	45.4871201814059	50	127
45.42907029478458	45.4871201814059	59	127
45.4871201814059	45.568390022675736	50	127
45.4871201814059	45.568390022675736	43	127
45.4871201814059	45.568390022675736	59	127
45.568390022675736	45.64965986394558	50	127
45.568390022675736	45.64965986394558	43	127
45.568390022675736	45.64965986394558	59	127
45.68448979591837	45.81219954648526	50	127
45.68448979591837	45.81219954648526	43	127
45.68448979591837	45.81219954648526	59	127
45.835419501133785	45.88185941043084	65	127
45.835419501133785	45.939909297052154	59	127
45.835419501133785	45.939909297052154	50	127
45.835419501133785	45.939909297052154	43	127
45.88185941043084	45.939909297052154	67	127
45.939909297052154	45.99795918367347	65	127
45.99795918367347	46.07922902494331	63	127
45.99795918367347	46.11403628117914	59	127
45.99795918367347	46.11403628117914	50	127
45.99795918367347	46.11403628117914	43	127
46.07922902494331	46.14888888888889	65	127
46.14888888888889	47.60013605442177	75	127
46.14888888888889	46.31142857142857	63	127
46.14888888888889	47.60013605442177	72	127
46.14888888888889	46.822267573696145	48	127
46.323038548752834	46.48555555555556	67	127
46.49716553287982	46.659727891156464	72	127
46.659727891156464	46.822267573696145	67	127
46.83387755102041	46.97319727891156	75	127
46.984807256235825	47.14734693877551	72	127
47.14734693877551	47.28666666666667	79	127
47.29827664399093	47.44920634920635	84	127
47.44920634920635	47.56530612244898	79	127
47.61174603174603	47.65818594104309	63	127
47.61174603174603	47.65818594104309	60	127
47.61174603174603	47.7162358276644	87	127
47.65818594104309	47.7162358276644	65	127
47.65818594104309	47.7162358276644	62	127
47.7162358276644	47.77428571428572	63	127
47.7162358276644	47.77428571428572	60	127
47.77428571428572	47.83233560090703	62	127
47.77428571428572	47.83233560090703	59	127
47.77428571428572	47.86716553287982	87	127
47.83233560090703	47.91360544217687	63	127
47.83233560090703	47.91360544217687	60	127
47.91360544217687	48.018095238095235	62	127
47.91360544217687	48.018095238095235	60	127
47.91360544217687	48.018095238095235	69	127
47.91360544217687	48.018095238095235	42	127
47.91360544217687	49.20231292517007	86	127
48.06453514739229	48.16902494331066	69	127
48.06453514739229	48.16902494331066	62	127
48.06453514739229	48.16902494331066	42	127
48.06453514739229	48.16902494331066	60	127
48.22707482993197	48.33156462585034	69	127
48.22707482993197	48.33156462585034	62	127
48.22707482993197	48.33156462585034	42	127
48.22707482993197	48.33156462585034	60	127
48.37800453514739	48.505714285714284	69	127
48.37800453514739	48.505714285714284	62	127
48.37800453514739	48.505714285714284	42	127
48.37800453514739	48.505714285714284	60	127
48.55215419501134	48.61020408163265	69	127
48.55215419501134	48.61020408163265	62	127
48.55215419501134	48.61020408163265	42	127
48.55215419501134	48.61020408163265	60	127
48.621814058956915	48.737913832199546	69	127
48.621814058956915	48.737913832199546	62	127
48.621814058956915	48.737913832199546	42	127
48.621814058956915	48.737913832199546	60	127
48.77274376417233	48.900453514739226	69	127
48.77274376417233	48.900453514739226	60	127
48.77274376417233	48.900453514739226	62	127
48.77274376417233	48.900453514739226	42	127
48.93528344671202	49.02816326530612	62	127
48.93528344671202	49.02816326530612	69	127
48.93528344671202	49.02816326530612	42	127
48.93528344671202	49.02816326530612	60	127
49.074603174603176	49.15587301587301	69	127
49.074603174603176	49.15587301587301	62	127
49.074603174603176	49.15587301587301	42	127
49.074603174603176	49.15587301587301	60	127
49.20231292517007	49.33002267573696	60	127
49.20231292517007	49.26036281179138	60	127
49.20231292517007	49.33002267573696	69	127
49.20231292517007	49.33002267573696	62	127
49.20231292517007	49.33002267573696	42	127
49.26036281179138	49.3184126984127	62	127
49.3184126984127	49.37646258503401	60	127
49.37646258503401	49.48095238095238	60	127
49.37646258503401	49.48095238095238	69	127
49.37646258503401	49.48095238095238	62	127
49.37646258503401	49.48095238095238	42	127
49.37646258503401	49.457732426303856	59	127
49.457732426303856	49.52739229024943	60	127
49.53900226757369	50.827709750566896	67	127
49.53900226757369	49.678321995464856	58	127
49.53900226757369	50.1659410430839	43	127
49.53900226757369	50.827709750566896	70	127
49.678321995464856	49.840861678004536	62	127
49.8524716553288	50.00340136054422	67	127
50.01501133786848	50.1659410430839	62	127
50.1659410430839	50.328480725623585	70	127
50.34009070294785	50.50263038548753	67	127
50.51424036281179	50.595510204081634	74	127
50.595510204081634	50.641950113378684	70	127
50.653560090702946	50.66517006802721	79	127
50.67678004535147	50.78126984126984	74	127
50.827709750566896	50.88575963718821	55	127
50.827709750566896	50.88575963718821	58	127
50.827709750566896	50.95541950113379	82	127
50.88575963718821	50.94380952380953	57	127
50.88575963718821	50.94380952380953	60	127
50.94380952380953	51.00185941043084	58	127
50.94380952380953	51.00185941043084	55	127
51.00185941043084	51.08312925170068	57	127
51.00185941043084	51.08312925170068	54	127
51.00185941043084	51.11795918367347	82	127
51.08312925170068	51.141179138321995	58	127
51.08312925170068	51.141179138321995	55	127
51.15278911564626	51.26888888888889	51	127
51.15278911564626	52.26734693877551	82	127
51.15278911564626	51.26888888888889	55	127
51.15278911564626	51.26888888888889	67	127
51.15278911564626	51.26888888888889	39	127
51.31532879818594	51.43142857142857	39	127
51.31532879818594	51.43142857142857	67	127
51.31532879818594	51.43142857142857	55	127
51.31532879818594	51.43142857142857	51	127
51.477868480725625	51.582358276643994	67	127
51.477868480725625	51.582358276643994	55	127
51.477868480725625	51.582358276643994	51	127
51.477868480725625	51.582358276643994	39	127
51.628798185941044	51.686848072562356	39	127
51.628798185941044	51.686848072562356	55	127
51.628798185941044	51.686848072562356	67	127
51.628798185941044	51.686848072562356	51	127
51.73328798185941	51.860997732426306	39	127
51.73328798185941	51.860997732426306	51	127
51.73328798185941	51.860997732426306	55	127
51.73328798185941	51.860997732426306	67	127
51.907437641723355	52.00031746031746	39	127
51.907437641723355	52.00031746031746	55	127
51.907437641723355	52.00031746031746	67	127
51.907437641723355	52.00031746031746	51	127
52.00031746031746	52.05836734693877	67	127
52.00031746031746	52.05836734693877	51	127
52.00031746031746	52.05836734693877	39	127
52.00031746031746	52.05836734693877	55	127
52.10480725623583	52.22090702947846	67	127
52.10480725623583	52.22090702947846	51	127
52.10480725623583	52.22090702947846	39	127
52.10480725623583	52.22090702947846	55	127
52.27895691609977	52.395056689342404	67	127
52.27895691609977	52.395056689342404	51	127
52.27895691609977	52.395056689342404	39	127
52.27895691609977	52.32539682539682	61	127
52.27895691609977	52.395056689342404	55	127
52.32539682539682	52.38344671201814	62	127
52.38344671201814	52.44149659863945	61	127
52.44149659863945	52.5227664399093	59	127
52.44149659863945	52.557596371882084	39	127
52.44149659863945	52.557596371882084	55	127
52.44149659863945	52.557596371882084	67	127
52.44149659863945	52.557596371882084	51	127
52.5227664399093	52.59242630385488	61	127
52.60403628117914	53.19614512471655	66	127
52.60403628117914	53.823083900226756	38	127
52.60403628117914	52.76657596371882	62	127
52.60403628117914	53.056825396825396	50	127
52.778185941043084	52.9291156462585	69	127
52.9291156462585	53.056825396825396	74	127
53.06843537414966	53.19614512471655	72	127
53.06843537414966	53.19614512471655	51	127
53.207755102040814	53.34707482993197	48	127
53.207755102040814	53.498004535147395	70	127
53.207755102040814	53.498004535147395	67	127
53.34707482993197	53.498004535147395	49	127
53.50961451247166	53.614104308390026	66	127
53.50961451247166	53.71859410430839	50	127
53.50961451247166	53.997233560090706	69	127
53.62571428571429	53.71859410430839	57	127
53.71859410430839	53.823083900226756	62	127
53.83469387755102	53.997233560090706	60	127
53.83469387755102	53.997233560090706	39	127
54.00884353741497	54.148163265306124	58	127
54.00884353741497	54.148163265306124	36	127
54.00884353741497	54.28748299319728	67	127
54.148163265306124	54.28748299319728	70	127
54.148163265306124	54.28748299319728	37	127
54.29909297052154	54.45002267573696	66	127
54.29909297052154	54.45002267573696	69	127
54.29909297052154	55.460090702947845	38	127
54.46163265306122	54.48485260770975	67	127
54.46163265306122	54.48485260770975	75	127
54.46163265306122	54.48485260770975	70	127
54.48485260770975	54.62417233560091	72	127
54.48485260770975	54.62417233560091	69	127
54.62417233560091	54.751882086167804	73	127
54.62417233560091	54.751882086167804	70	127
54.62417233560091	54.751882086167804	67	127
54.763492063492066	54.914421768707484	69	127
54.763492063492066	54.914421768707484	74	127
54.763492063492066	54.914421768707484	66	127
54.92603174603175	55.08857142857143	73	127
54.92603174603175	55.08857142857143	79	127
54.92603174603175	55.08857142857143	63	127
55.08857142857143	55.22789115646258	78	127
55.08857142857143	55.22789115646258	74	127
55.08857142857143	55.22789115646258	62	127
55.239501133786845	55.30916099773243	79	127
55.239501133786845	55.30916099773243	61	127
55.239501133786845	55.30916099773243	82	127
55.30916099773243	55.460090702947845	62	127
55.30916099773243	55.460090702947845	78	127
55.30916099773243	55.460090702947845	81	127
55.460090702947845	55.622630385487525	64	127
55.460090702947845	55.622630385487525	85	127
55.460090702947845	55.622630385487525	45	127
55.460090702947845	55.622630385487525	79	127
55.63424036281179	55.680680272108845	86	127
55.63424036281179	55.680680272108845	78	127
55.63424036281179	55.680680272108845	62	127
55.63424036281179	55.680680272108845	38	127
55.69229024943311	55.85482993197279	85	127
55.69229024943311	55.85482993197279	79	127
55.69229024943311	55.85482993197279	64	127
55.69229024943311	55.85482993197279	45	127
55.85482993197279	55.93609977324263	38	127
55.85482993197279	56.017369614512475	86	127
55.85482993197279	56.017369614512475	78	127
55.85482993197279	56.017369614512475	62	127
55.947709750566894	56.09863945578231	37	127
56.110249433106574	56.21473922902494	38	127
56.110249433106574	56.29600907029479	86	127
56.110249433106574	56.29600907029479	69	127
56.110249433106574	56.29600907029479	78	127
56.110249433106574	56.29600907029479	50	127
56.21473922902494	56.37727891156462	37	127
56.388888888888886	56.63269841269841	50	127
56.388888888888886	56.55142857142857	38	127
56.388888888888886	56.63269841269841	86	127
56.388888888888886	56.63269841269841	69	127
56.388888888888886	56.63269841269841	78	127
56.563038548752836	56.69074829931973	37	127
56.69074829931973	56.7952380952381	50	127
56.69074829931973	56.92294784580499	86	127
56.69074829931973	56.92294784580499	69	127
56.69074829931973	56.92294784580499	78	127
56.69074829931973	59.465532879818596	38	127
56.80684807256236	56.92294784580499	49	127
56.93455782312925	57.03904761904762	50	127
57.03904761904762	57.17836734693878	49	127
57.18997732426304	57.329297052154196	50	127
57.34090702947846	57.49183673469388	49	127
57.49183673469388	57.58471655328798	50	127
57.58471655328798	57.67759637188209	49	127
57.68920634920635	57.84013605442177	50	127
57.85174603174603	58.01428571428571	49	127
58.01428571428571	58.1768253968254	50	127
58.18843537414966	58.25809523809524	49	127
58.2697052154195	58.409024943310655	50	127
58.409024943310655	58.54834467120181	49	127
58.55995464852608	58.7108843537415	50	127
58.7108843537415	58.8037641723356	49	127
58.8037641723356	58.966303854875285	50	127
58.97791383219955	59.128843537414966	49	127
59.14045351473923	59.25655328798186	50	127
59.25655328798186	59.36104308390023	48	127
59.36104308390023	59.50036281179138	50	127
59.511972789115646	59.6512925170068	48	127
59.511972789115646	59.6512925170068	42	127
59.6512925170068	59.80222222222222	50	127
59.6512925170068	59.80222222222222	40	127
59.81383219954648	59.999591836734695	48	127
59.81383219954648	59.999591836734695	43	127
60.01120181405896	60.20857142857143	50	127
60.01120181405896	60.48721088435374	42	127
60.20857142857143	60.34789115646259	48	127
60.34789115646259	60.48721088435374	50	127
60.498820861678006	60.61492063492064	45	127
60.498820861678006	60.61492063492064	48	127
60.61492063492064	60.75424036281179	50	127
60.61492063492064	60.75424036281179	44	127
60.75424036281179	60.89356009070295	47	127
60.75424036281179	60.89356009070295	48	127
60.90517006802721	61.52049886621315	45	127
60.90517006802721	61.05609977324263	50	127
60.90517006802721	61.34634920634921	81	127
61.06770975056689	61.20702947845805	48	127
61.20702947845805	61.34634920634921	50	127
61.35795918367347	61.52049886621315	48	127
61.35795918367347	61.52049886621315	78	127
61.532108843537415	61.68303854875283	79	127
61.532108843537415	61.68303854875283	50	127
61.68303854875283	61.83396825396825	76	127
61.68303854875283	61.83396825396825	48	127
61.845578231292514	61.98489795918368	50	127
61.845578231292514	62.05455782312925	74	127
61.99650793650794	62.14743764172336	48	127
62.14743764172336	62.28675736961451	50	127
62.14743764172336	62.3215873015873	74	127
62.298367346938775	62.35641723356009	48	127
62.36802721088436	62.53056689342404	50	127
62.36802721088436	62.58861678004535	74	127
62.53056689342404	62.66988662131519	48	127
62.681496598639455	63.15750566893424	42	127
62.681496598639455	62.832426303854874	50	127
62.681496598639455	63.30843537414966	74	127
62.844036281179136	62.99496598639456	48	127
62.99496598639456	63.15750566893424	50	127
63.169115646258504	63.30843537414966	45	127
63.169115646258504	63.30843537414966	48	127
63.32004535147392	63.4825850340136	50	127
63.32004535147392	63.4825850340136	44	127
63.4825850340136	63.598684807256234	47	127
63.4825850340136	63.598684807256234	48	127
63.610294784580496	63.73800453514739	50	127
63.610294784580496	64.08630385487528	45	127
63.74961451247165	63.91215419501134	48	127
63.91215419501134	64.08630385487528	50	127
64.08630385487528	64.2372335600907	48	127
64.08630385487528	64.2372335600907	48	127
64.24884353741497	64.38816326530612	50	127
64.24884353741497	64.38816326530612	47	127
64.39977324263039	64.52748299319728	50	127
64.39977324263039	64.52748299319728	48	127
64.52748299319728	64.6784126984127	50	127
64.52748299319728	65.13120181405895	48	127
64.52748299319728	64.6784126984127	66	127
64.52748299319728	65.02671201814059	84	127
64.69	64.85256235827664	62	127
64.69	64.85256235827664	48	127
64.86417233560091	65.02671201814059	66	127
64.86417233560091	65.02671201814059	50	127
65.02671201814059	65.13120181405895	62	127
65.02671201814059	65.13120181405895	83	127
65.02671201814059	65.13120181405895	48	127
65.14281179138322	65.22408163265307	81	127
65.14281179138322	65.22408163265307	66	127
65.14281179138322	65.22408163265307	50	127
65.23569160997732	65.37501133786849	80	127
65.23569160997732	65.37501133786849	62	127
65.23569160997732	65.37501133786849	48	127
65.37501133786849	65.43306122448979	81	127
65.37501133786849	65.43306122448979	66	127
65.37501133786849	65.43306122448979	50	127
65.44467120181406	65.58396825396825	83	127
65.44467120181406	65.58396825396825	62	127
65.44467120181406	65.58396825396825	48	127
65.58396825396825	65.70009070294785	66	127
65.58396825396825	65.70009070294785	84	127
65.58396825396825	65.70009070294785	50	127
65.70009070294785	65.82780045351474	86	127
65.70009070294785	65.82780045351474	62	127
65.70009070294785	65.82780045351474	48	127
65.83938775510204	66.00195011337868	88	127
65.83938775510204	66.00195011337868	66	127
65.83938775510204	66.00195011337868	54	127
65.83938775510204	66.16448979591837	48	127
66.01356009070295	66.16448979591837	50	127
66.01356009070295	66.16448979591837	86	127
66.01356009070295	66.16448979591837	62	127
66.16448979591837	66.29219954648526	67	127
66.16448979591837	66.29219954648526	55	127
66.16448979591837	66.75659863945579	86	127
66.16448979591837	66.75659863945579	47	127
66.30380952380952	66.46634920634921	62	127
66.30380952380952	66.46634920634921	50	127
66.4779365079365	66.5940589569161	67	127
66.4779365079365	66.5940589569161	55	127
66.5940589569161	66.75659863945579	50	127
66.5940589569161	66.75659863945579	62	127
66.76820861678004	67.0004081632653	91	127
66.76820861678004	66.84947845804989	67	127
66.76820861678004	66.84947845804989	55	127
66.86106575963719	67.0004081632653	50	127
66.86106575963719	67.0004081632653	62	127
67.0004081632653	67.162947845805	55	127
67.0004081632653	67.5692970521542	48	127
67.0004081632653	67.162947845805	67	127
67.0004081632653	67.5692970521542	90	127
67.162947845805	67.32548752834467	64	127
67.162947845805	67.32548752834467	52	127
67.33709750566894	67.42997732426304	67	127
67.33709750566894	67.42997732426304	55	127
67.42997732426304	67.5692970521542	64	127
67.42997732426304	67.5692970521542	52	127
67.5692970521542	67.58090702947845	88	127
67.5692970521542	67.68539682539682	67	127
67.5692970521542	67.68539682539682	55	127
67.58090702947845	67.63895691609977	90	127
67.63895691609977	67.69700680272109	88	127
67.69700680272109	67.77827664399094	86	127
67.69700680272109	67.85952380952381	64	127
67.69700680272109	67.85952380952381	52	127
67.77827664399094	67.85952380952381	88	127
67.87115646258503	68.32394557823129	50	127
67.87115646258503	68.02208616780045	66	127
67.87115646258503	68.02208616780045	54	127
67.87115646258503	68.32394557823129	86	127
68.02208616780045	68.16140589569162	57	127
68.02208616780045	68.16140589569162	69	127
68.17301587301587	68.21945578231292	62	127
68.17301587301587	68.21945578231292	50	127
68.21945578231292	68.32394557823129	54	127
68.21945578231292	68.32394557823129	66	127
68.32394557823129	68.46326530612245	69	127
68.32394557823129	68.37036281179138	84	127
68.32394557823129	68.46326530612245	57	127
68.37036281179138	68.42843537414966	86	127
68.42843537414966	68.4748752834467	84	127
68.4748752834467	68.55614512471655	83	127
68.4748752834467	68.61419501133787	66	127
68.4748752834467	68.61419501133787	54	127
68.55614512471655	68.62578231292517	84	127
68.62578231292517	69.46172335600907	55	127
68.62578231292517	68.77673469387756	67	127
68.62578231292517	68.9160544217687	83	127
68.62578231292517	68.9160544217687	43	127
68.77673469387756	68.9160544217687	66	127
68.92766439909298	69.06698412698412	67	127
69.0785941043084	69.20630385487529	66	127
69.0785941043084	69.20630385487529	69	127
69.0785941043084	69.20630385487529	64	127
69.20630385487529	69.31079365079366	62	127
69.20630385487529	69.31079365079366	67	127
69.20630385487529	69.31079365079366	71	127
69.32240362811791	69.46172335600907	69	127
69.32240362811791	69.46172335600907	72	127
69.32240362811791	69.46172335600907	60	127
69.47333333333333	70.3324716553288	59	127
69.47333333333333	69.61265306122449	67	127
69.47333333333333	70.05383219954649	74	127
69.61265306122449	69.75195011337868	62	127
69.76358276643991	69.87965986394558	67	127
69.8912925170068	70.05383219954649	62	127
70.05383219954649	70.3324716553288	79	127
70.05383219954649	70.16993197278912	67	127
70.16993197278912	70.3324716553288	62	127
70.34408163265306	70.92458049886622	60	127
70.34408163265306	70.49501133786848	67	127
70.34408163265306	70.49501133786848	64	127
70.34408163265306	70.92458049886622	78	127
70.50662131519275	70.62272108843537	64	127
70.50662131519275	70.62272108843537	60	127
70.62272108843537	70.76204081632653	72	127
70.62272108843537	70.76204081632653	64	127
70.77362811791383	70.92458049886622	67	127
70.77362811791383	70.92458049886622	60	127
70.93619047619048	71.0871201814059	64	127
70.93619047619048	70.9942403628118	76	127
70.93619047619048	71.0871201814059	72	127
70.93619047619048	71.0871201814059	60	127
70.9942403628118	71.05229024943311	78	127
71.05229024943311	71.0871201814059	76	127
71.0871201814059	71.13356009070294	78	127
71.0871201814059	71.23804988662131	67	127
71.0871201814059	71.23804988662131	60	127
71.0871201814059	71.23804988662131	64	127
71.13356009070294	71.18	76	127
71.18	71.23804988662131	78	127
71.23804988662131	71.4121768707483	69	127
71.23804988662131	71.4121768707483	66	127
71.23804988662131	71.58634920634921	72	127
71.23804988662131	72.53834467120181	75	127
71.42380952380952	71.58634920634921	69	127
71.42380952380952	71.58634920634921	66	127
71.59795918367347	71.77210884353741	66	127
71.59795918367347	71.94625850340137	84	127
71.59795918367347	71.77210884353741	69	127
71.77210884353741	71.94625850340137	66	127
71.77210884353741	71.94625850340137	69	127
71.94625850340137	72.08557823129252	66	127
71.94625850340137	72.08557823129252	69	127
71.94625850340137	72.21328798185941	84	127
72.09718820861679	72.21328798185941	69	127
72.09718820861679	72.21328798185941	66	127
72.22489795918368	72.38743764172335	66	127
72.22489795918368	73.3162358276644	84	127
72.22489795918368	72.38743764172335	69	127
72.39904761904762	72.53834467120181	69	127
72.39904761904762	72.53834467120181	66	127
72.53834467120181	72.70090702947846	66	127
72.53834467120181	72.89827664399093	74	127
72.53834467120181	72.70090702947846	69	127
72.71251700680273	72.89827664399093	69	127
72.71251700680273	72.89827664399093	66	127
72.9098866213152	73.3162358276644	74	127
72.9098866213152	73.10725623582766	69	127
72.9098866213152	73.10725623582766	66	127
73.10725623582766	73.3162358276644	69	127
73.10725623582766	73.3162358276644	66	127
73.3278231292517	74.22181405895692	71	127
73.3278231292517	73.66453514739229	74	127
73.3278231292517	74.22181405895692	67	127
73.3278231292517	74.39596371882087	83	127
73.67614512471656	73.8502947845805	79	127
73.8502947845805	73.93156462585034	78	127
73.94315192743764	74.04766439909297	76	127
74.05927437641724	74.22181405895692	75	127
74.22181405895692	74.57011337868481	64	127
74.22181405895692	74.6978231292517	76	127
74.22181405895692	75.17383219954648	60	127
74.40757369614512	74.57011337868481	80	127
74.57011337868481	74.6978231292517	72	127
74.57011337868481	74.6978231292517	81	127
74.709410430839	74.87197278911565	71	127
74.709410430839	74.87197278911565	74	127
74.709410430839	74.8255328798186	84	127
74.88358276643991	75.03451247165533	72	127
74.88358276643991	75.03451247165533	69	127
74.88358276643991	74.98807256235828	88	127
75.03451247165533	75.1390022675737	88	127
75.03451247165533	75.17383219954648	71	127
75.03451247165533	75.17383219954648	67	127
75.18544217687075	76.26517006802722	69	127
75.18544217687075	75.33637188208617	62	127
75.18544217687075	75.66145124716553	88	127
75.18544217687075	76.26517006802722	66	127
75.34795918367347	75.51052154195011	54	127
75.51052154195011	75.56857142857143	57	127
75.56857142857143	75.66145124716553	55	127
75.66145124716553	75.81238095238095	54	127
75.66145124716553	76.13746031746032	86	127
75.82399092970522	75.97492063492064	52	127
75.97492063492064	76.92693877551021	50	127
76.13746031746032	76.26517006802722	90	127
76.26517006802722	76.42770975056689	93	127
76.26517006802722	76.55541950113378	66	127
76.26517006802722	76.55541950113378	62	127
76.42770975056689	76.55541950113378	90	127
76.56702947845805	76.72954648526077	67	127
76.56702947845805	76.72954648526077	64	127
76.56702947845805	76.72954648526077	86	127
76.741179138322	76.92693877551021	84	127
76.741179138322	76.92693877551021	69	127
76.741179138322	76.92693877551021	66	127
76.92693877551021	77.07786848072563	71	127
76.92693877551021	77.07786848072563	67	127
76.92693877551021	77.75122448979592	55	127
76.92693877551021	77.41455782312926	83	127
77.08947845804988	77.24038548752834	62	127
77.08947845804988	77.24038548752834	74	127
77.25201814058957	77.37972789115646	67	127
77.25201814058957	77.37972789115646	79	127
77.37972789115646	77.41455782312926	66	127
77.37972789115646	77.41455782312926	78	127
77.41455782312926	77.5887074829932	76	127
77.41455782312926	77.91378684807256	71	127
77.41455782312926	77.5887074829932	64	127
77.5887074829932	77.75122448979592	63	127
77.5887074829932	77.75122448979592	75	127
77.76285714285714	77.91378684807256	76	127
77.76285714285714	77.91378684807256	64	127
77.76285714285714	77.91378684807256	48	127
77.92539682539683	78.06471655328798	65	127
77.92539682539683	78.06471655328798	68	127
77.92539682539683	78.06471655328798	77	127
77.92539682539683	78.06471655328798	50	127
78.06471655328798	78.22725623582767	76	127
78.06471655328798	78.22725623582767	64	127
78.06471655328798	78.22725623582767	48	127
78.06471655328798	78.22725623582767	69	127
78.23886621315192	78.38977324263038	72	127
78.23886621315192	78.38977324263038	74	127
78.23886621315192	78.38977324263038	62	127
78.23886621315192	78.38977324263038	47	127
78.40140589569161	78.5639455782313	76	127
78.40140589569161	78.5639455782313	72	127
78.40140589569161	78.5639455782313	60	127
78.40140589569161	78.5639455782313	45	127
78.5639455782313	78.6568253968254	76	127
78.5639455782313	78.6568253968254	71	127
78.5639455782313	78.6568253968254	59	127
78.5639455782313	78.6568253968254	43	127
78.66843537414967	78.77290249433106	69	127
78.66843537414967	78.77290249433106	57	127
78.66843537414967	79.14444444444445	76	127
78.66843537414967	78.77290249433106	42	127
78.77290249433106	78.83097505668934	71	127
78.77290249433106	78.83097505668934	59	127
78.77290249433106	78.83097505668934	43	127
78.84258503401361	78.99351473922903	60	127
78.84258503401361	78.99351473922903	72	127
78.84258503401361	78.99351473922903	45	127
79.00512471655328	79.14444444444445	71	127
79.00512471655328	79.14444444444445	59	127
79.00512471655328	79.14444444444445	43	127
79.14444444444445	79.6320634920635	74	127
79.14444444444445	79.30698412698413	69	127
79.14444444444445	79.30698412698413	57	127
79.14444444444445	79.30698412698413	42	127
79.31859410430839	79.48113378684808	55	127
79.31859410430839	79.48113378684808	40	127
79.31859410430839	79.48113378684808	67	127
79.48113378684808	79.6320634920635	54	127
79.48113378684808	79.6320634920635	66	127
79.48113378684808	79.6320634920635	38	127
79.64365079365079	79.75977324263039	78	127
79.64365079365079	79.75977324263039	66	127
79.64365079365079	79.75977324263039	54	127
79.64365079365079	79.75977324263039	50	127
79.75977324263039	79.87587301587301	81	127
79.75977324263039	79.87587301587301	64	127
79.75977324263039	79.87587301587301	52	127
79.75977324263039	79.87587301587301	49	127
79.87587301587301	80.01519274376417	78	127
79.87587301587301	80.01519274376417	66	127
79.87587301587301	80.01519274376417	54	127
79.87587301587301	80.01519274376417	50	127
80.02678004535147	80.15448979591837	74	127
80.02678004535147	80.15448979591837	67	127
80.02678004535147	80.15448979591837	55	127
80.02678004535147	80.15448979591837	52	127
80.15448979591837	80.32866213151928	57	127
80.15448979591837	80.32866213151928	54	127
80.15448979591837	80.32866213151928	69	127
80.15448979591837	80.50281179138322	72	127
80.32866213151928	81.38517006802721	59	127
80.32866213151928	81.38517006802721	62	127
80.32866213151928	81.38517006802721	55	127
80.51442176870748	80.67696145124717	70	127
80.67696145124717	80.85111111111111	72	127
80.86272108843538	81.02526077097505	71	127
81.03687074829932	81.21102040816326	81	127
81.21102040816326	81.38517006802721	79	127
81.39678004535148	82.8015873015873	49	127
81.39678004535148	82.8015873015873	67	127
81.39678004535148	82.8015873015873	57	127
81.57092970521542	81.73346938775511	69	127
81.74507936507936	81.90761904761905	76	127
81.9192290249433	82.11659863945579	75	127
82.11659863945579	82.27913832199546	78	127
82.29074829931973	82.45326530612245	76	127
82.46489795918367	82.8015873015873	76	127
82.81319727891156	83.14988662131519	50	127
82.81319727891156	83.14988662131519	62	127
82.81319727891156	83.14988662131519	59	127
82.81319727891156	83.7768253968254	67	127
83.16149659863946	83.4633560090703	59	127
83.16149659863946	83.4633560090703	50	127
83.16149659863946	83.4633560090703	62	127
83.4749433106576	83.7768253968254	62	127
83.4749433106576	83.7768253968254	59	127
83.4749433106576	83.7768253968254	50	127
83.78843537414966	84.05546485260771	71	127
83.78843537414966	84.05546485260771	67	127
83.78843537414966	84.05546485260771	62	127
83.78843537414966	84.13673469387756	50	127
84.14834467120181	84.41537414965987	69	127
84.14834467120181	84.41537414965987	66	127
84.14834467120181	84.41537414965987	60	127
84.14834467120181	84.50825396825397	50	127
84.51986394557824	85.06553287981859	66	127
84.51986394557824	85.06553287981859	69	127
84.51986394557824	85.06553287981859	60	127
84.51986394557824	85.06553287981859	51	127
85.07714285714286	85.21646258503401	66	127
85.07714285714286	85.21646258503401	69	127
85.07714285714286	85.21646258503401	62	127
85.07714285714286	85.21646258503401	50	127
85.26290249433107	85.36736961451247	66	127
85.26290249433107	85.36736961451247	69	127
85.26290249433107	85.36736961451247	63	127
85.26290249433107	85.36736961451247	48	127
85.41383219954649	85.54154195011338	69	127
85.41383219954649	85.54154195011338	50	127
85.41383219954649	85.54154195011338	66	127
85.41383219954649	85.54154195011338	62	127
85.58798185941043	86.02916099773243	66	127
85.58798185941043	86.02916099773243	69	127
85.58798185941043	86.02916099773243	60	127
85.58798185941043	86.02916099773243	51	127
86.02916099773243	86.15687074829933	66	127
86.02916099773243	86.15687074829933	69	127
86.02916099773243	86.15687074829933	62	127
86.02916099773243	86.15687074829933	50	127
86.20331065759638	86.30780045351474	66	127
86.20331065759638	86.30780045351474	69	127
86.20331065759638	86.30780045351474	63	127
86.20331065759638	86.30780045351474	48	127
86.36582766439909	86.48195011337869	66	127
86.36582766439909	86.48195011337869	69	127
86.36582766439909	86.48195011337869	63	127
86.36582766439909	86.48195011337869	48	127
86.52839002267574	87.00437641723356	67	127
86.52839002267574	87.00437641723356	70	127
86.52839002267574	87.00437641723356	64	127
86.52839002267574	87.00437641723356	73	127
87.00437641723356	87.13208616780045	67	127
87.00437641723356	87.13208616780045	70	127
87.00437641723356	87.13208616780045	62	127
87.00437641723356	87.13208616780045	74	127
87.15530612244898	87.27142857142857	67	127
87.15530612244898	87.27142857142857	70	127
87.15530612244898	87.27142857142857	61	127
87.15530612244898	87.27142857142857	76	127
87.32947845804989	87.44557823129252	67	127
87.32947845804989	87.44557823129252	70	127
87.32947845804989	87.44557823129252	62	127
87.32947845804989	87.44557823129252	74	127
87.49201814058956	87.96802721088436	67	127
87.49201814058956	87.96802721088436	70	127
87.49201814058956	87.96802721088436	64	127
87.49201814058956	87.96802721088436	73	127
87.96802721088436	88.09573696145125	67	127
87.96802721088436	88.09573696145125	70	127
87.96802721088436	88.09573696145125	62	127
87.96802721088436	88.09573696145125	74	127
88.1421768707483	88.25827664399092	67	127
88.1421768707483	88.25827664399092	70	127
88.1421768707483	88.25827664399092	61	127
88.1421768707483	88.25827664399092	76	127
88.30471655328799	88.4556462585034	70	127
88.30471655328799	88.4556462585034	67	127
88.30471655328799	88.4556462585034	61	127
88.30471655328799	88.4556462585034	76	127
88.51369614512471	89.05936507936508	60	127
88.51369614512471	89.05936507936508	76	127
88.51369614512471	89.05936507936508	66	127
88.51369614512471	89.05936507936508	69	127
89.07097505668935	89.76757369614512	74	127
89.07097505668935	89.41927437641723	72	127
89.07097505668935	89.41927437641723	69	127
89.07097505668935	89.41927437641723	42	127
89.41927437641723	89.76757369614512	67	127
89.41927437641723	89.76757369614512	71	127
89.41927437641723	89.76757369614512	43	127
89.76757369614512	90.04619047619047	69	127
89.76757369614512	90.04619047619047	66	127
89.76757369614512	90.04619047619047	72	127
89.76757369614512	90.04619047619047	45	127
90.0578231292517	90.40612244897959	67	127
90.0578231292517	90.40612244897959	62	127
90.0578231292517	90.40612244897959	71	127
90.0578231292517	90.40612244897959	47	127
90.41773242630386	90.74281179138322	48	127
90.41773242630386	90.58024943310657	71	127
90.41773242630386	90.74281179138322	64	127
90.41773242630386	90.74281179138322	60	127
90.58024943310657	90.74281179138322	69	127
90.74281179138322	91.11433106575964	59	127
90.74281179138322	91.11433106575964	67	127
90.74281179138322	91.11433106575964	50	127
90.74281179138322	91.11433106575964	62	127
91.11433106575964	91.4742403628118	61	127
91.11433106575964	91.4742403628118	57	127
91.11433106575964	91.4742403628118	67	127
91.11433106575964	91.4742403628118	52	127
91.48585034013605	92.22888888888889	62	127
91.48585034013605	92.22888888888889	59	127
91.48585034013605	92.22888888888889	67	127
91.48585034013605	92.65845804988662	50	127
92.24049886621316	92.65845804988662	60	127
92.24049886621316	92.65845804988662	57	127
92.24049886621316	92.65845804988662	66	127
92.65845804988662	93.16929705215419	69	127
92.65845804988662	93.16929705215419	66	127
92.65845804988662	93.16929705215419	60	127
92.65845804988662	93.16929705215419	51	127
93.18090702947846	93.28539682539683	69	127
93.18090702947846	93.28539682539683	66	127
93.18090702947846	93.28539682539683	62	127
93.18090702947846	93.28539682539683	50	127
93.33183673469388	93.4479365079365	48	127
93.33183673469388	93.4479365079365	69	127
93.33183673469388	93.4479365079365	66	127
93.33183673469388	93.4479365079365	63	127
93.4827664399093	93.61047619047619	66	127
93.4827664399093	93.61047619047619	63	127
93.4827664399093	93.61047619047619	69	127
93.4827664399093	93.61047619047619	48	127
93.63369614512472	93.97038548752835	69	127
93.63369614512472	93.97038548752835	66	127
93.63369614512472	93.97038548752835	63	127
93.63369614512472	93.97038548752835	47	127
93.98197278911564	94.06326530612245	69	127
93.98197278911564	94.06326530612245	66	127
93.98197278911564	94.06326530612245	63	127
93.98197278911564	94.06326530612245	47	127
94.10968253968254	94.22580498866213	67	127
94.10968253968254	94.22580498866213	64	127
94.10968253968254	94.22580498866213	64	127
94.10968253968254	94.22580498866213	47	127
94.28385487528345	94.41156462585035	79	127
94.28385487528345	94.41156462585035	76	127
94.28385487528345	94.41156462585035	62	127
94.28385487528345	94.41156462585035	46	127
94.4580045351474	94.91079365079365	79	127
94.4580045351474	94.91079365079365	76	127
94.4580045351474	94.91079365079365	61	127
94.4580045351474	94.91079365079365	45	127
94.91079365079365	95.03850340136054	79	127
94.91079365079365	95.03850340136054	76	127
94.91079365079365	95.03850340136054	61	127
94.91079365079365	95.03850340136054	45	127
95.09655328798186	95.21265306122449	77	127
95.09655328798186	95.21265306122449	74	127
95.09655328798186	95.21265306122449	62	127
95.09655328798186	95.21265306122449	45	127
95.2707029478458	95.3984126984127	89	127
95.2707029478458	95.3984126984127	74	127
95.2707029478458	95.3984126984127	60	127
95.2707029478458	95.3984126984127	44	127
95.44485260770975	95.82798185941043	89	127
95.44485260770975	95.82798185941043	74	127
95.44485260770975	95.82798185941043	59	127
95.44485260770975	95.82798185941043	43	127
95.82798185941043	95.96730158730159	89	127
95.82798185941043	95.96730158730159	74	127
95.82798185941043	95.96730158730159	59	127
95.82798185941043	95.96730158730159	43	127
96.00213151927437	96.12984126984126	88	127
96.00213151927437	96.12984126984126	72	127
96.00213151927437	96.12984126984126	64	127
96.00213151927437	96.12984126984126	36	127
96.18789115646258	96.338820861678	70	127
96.18789115646258	96.338820861678	91	127
96.18789115646258	96.338820861678	79	127
96.18789115646258	96.338820861678	64	127
96.18789115646258	96.338820861678	36	127
96.39687074829932	97.33727891156462	91	127
96.39687074829932	96.73356009070295	79	127
96.39687074829932	96.73356009070295	71	127
96.39687074829932	96.73356009070295	38	127
96.39687074829932	96.64068027210884	62	127
96.73356009070295	98.23124716553288	62	127
96.73356009070295	97.08185941043084	62	127
97.08185941043084	97.44176870748299	74	127
97.33727891156462	98.92784580498866	89	127
97.44176870748299	97.59269841269841	76	127
97.60430839002268	97.7552380952381	74	127
97.76684807256235	97.91777777777777	72	127
97.91777777777777	98.04548752834467	71	127
98.05709750566893	98.23124716553288	69	127
98.23124716553288	99.28775510204082	62	127
98.23124716553288	99.28775510204082	68	127
98.93945578231292	99.93791383219954	88	127
99.28775510204082	99.93791383219954	61	127
99.28775510204082	99.93791383219954	69	127
99.94952380952381	100.2978231292517	87	127
99.94952380952381	100.2978231292517	60	127
99.94952380952381	100.2978231292517	66	127
100.30943310657597	100.62290249433107	67	127
100.30943310657597	100.46036281179138	86	127
100.30943310657597	100.94798185941043	59	127
100.47197278911564	100.62290249433107	85	127
100.62290249433107	100.77383219954649	84	127
100.62290249433107	100.94798185941043	38	127
100.78544217687075	100.94798185941043	83	127
100.94798185941043	101.1105215419501	81	127
100.94798185941043	102.9681179138322	50	127
100.94798185941043	101.28467120181406	53	127
101.12213151927438	101.28467120181406	79	127
101.29628117913832	102.29473922902494	62	127
101.29628117913832	101.458820861678	77	127
101.458820861678	101.60975056689342	76	127
101.6213605442177	101.78390022675737	74	127
101.6213605442177	101.95804988662131	59	127
101.78390022675737	101.95804988662131	72	127
101.96965986394558	102.10897959183673	71	127
101.96965986394558	102.9681179138322	65	127
102.120589569161	102.29473922902494	69	127
102.29473922902494	102.9681179138322	59	127
102.29473922902494	102.9681179138322	68	127
102.97972789115646	103.96657596371882	69	127
102.97972789115646	103.96657596371882	64	127
102.97972789115646	103.96657596371882	57	127
102.97972789115646	103.96657596371882	49	127
103.97818594104308	104.65156462585034	66	127
103.97818594104308	104.65156462585034	63	127
103.97818594104308	104.65156462585034	57	127
103.97818594104308	104.65156462585034	48	127
104.6631746031746	105.29011337868481	55	127
104.6631746031746	105.29011337868481	67	127
104.6631746031746	105.29011337868481	62	127
104.6631746031746	105.29011337868481	47	127
105.29011337868481	105.92866213151927	65	127
105.29011337868481	105.92866213151927	62	127
105.29011337868481	105.92866213151927	56	127
105.29011337868481	105.92866213151927	47	127
105.94027210884354	106.55560090702947	64	127
105.94027210884354	106.55560090702947	60	127
105.94027210884354	106.55560090702947	57	127
105.94027210884354	106.55560090702947	48	127
106.55560090702947	107.20575963718821	55	127
106.55560090702947	107.20575963718821	67	127
106.55560090702947	107.20575963718821	64	127
106.55560090702947	107.20575963718821	58	127
106.55560090702947	107.20575963718821	49	127
107.21736961451248	107.8326984126984	55	127
107.21736961451248	107.8326984126984	67	127
107.21736961451248	107.8326984126984	64	127
107.21736961451248	107.8326984126984	59	127
107.21736961451248	107.8326984126984	50	127
107.8326984126984	108.48285714285714	55	127
107.8326984126984	108.48285714285714	67	127
107.8326984126984	108.48285714285714	61	127
107.8326984126984	108.48285714285714	58	127
107.8326984126984	108.48285714285714	51	127
108.48285714285714	109.05174603174603	55	127
108.48285714285714	109.05174603174603	67	127
108.48285714285714	109.05174603174603	60	127
108.48285714285714	109.05174603174603	58	127
108.48285714285714	109.05174603174603	52	127
109.05174603174603	109.66707482993198	55	127
109.05174603174603	109.66707482993198	67	127
109.05174603174603	109.66707482993198	61	127
109.05174603174603	109.66707482993198	58	127
109.05174603174603	109.66707482993198	52	127
109.67868480725623	110.2243537414966	55	127
109.67868480725623	110.2243537414966	67	127
109.67868480725623	110.2243537414966	61	127
109.67868480725623	110.2243537414966	58	127
109.67868480725623	110.2243537414966	52	127
110.2243537414966	110.8512925170068	55	127
110.2243537414966	110.8512925170068	70	127
110.2243537414966	110.8512925170068	67	127
110.2243537414966	110.8512925170068	61	127
110.2243537414966	110.8512925170068	51	127
110.86290249433107	111.43179138321996	55	127
110.86290249433107	111.43179138321996	70	127
110.86290249433107	111.43179138321996	67	127
110.86290249433107	111.43179138321996	61	127
110.86290249433107	111.43179138321996	51	127
111.43179138321996	112.05873015873016	55	127
111.43179138321996	112.05873015873016	70	127
111.43179138321996	112.05873015873016	67	127
111.43179138321996	112.05873015873016	61	127
111.43179138321996	112.05873015873016	51	127
112.07034013605443	112.7088888888889	74	127
112.07034013605443	112.7088888888889	67	127
112.07034013605443	112.7088888888889	71	127
112.07034013605443	112.7088888888889	62	127
112.07034013605443	112.7088888888889	50	127
112.7088888888889	113.31260770975057	74	127
112.7088888888889	113.31260770975057	67	127
112.7088888888889	113.31260770975057	71	127
112.7088888888889	113.31260770975057	62	127
112.7088888888889	113.31260770975057	50	127
113.31260770975057	113.95115646258503	74	127
113.31260770975057	113.95115646258503	67	127
113.31260770975057	113.95115646258503	71	127
113.31260770975057	113.95115646258503	62	127
113.31260770975057	113.95115646258503	50	127
113.9627664399093	114.63614512471655	74	127
113.9627664399093	114.63614512471655	86	127
113.9627664399093	114.63614512471655	72	127
113.9627664399093	114.63614512471655	78	127
113.9627664399093	114.63614512471655	62	127
113.9627664399093	114.63614512471655	69	127
113.9627664399093	114.63614512471655	38	127
114.64775510204082	115.22825396825397	74	127
114.64775510204082	115.22825396825397	86	127
114.64775510204082	115.22825396825397	72	127
114.64775510204082	115.22825396825397	78	127
114.64775510204082	115.22825396825397	62	127
114.64775510204082	115.22825396825397	69	127
114.64775510204082	115.22825396825397	38	127
115.23986394557824	115.57655328798187	74	127
115.23986394557824	115.57655328798187	86	127
115.23986394557824	115.57655328798187	72	127
115.23986394557824	115.57655328798187	78	127
115.23986394557824	115.57655328798187	62	127
115.23986394557824	115.57655328798187	69	127
115.23986394557824	115.57655328798187	38	127
115.58816326530612	115.77392290249433	59	127
115.58816326530612	115.77392290249433	43	127
115.58816326530612	115.77392290249433	86	127
115.77392290249433	115.8784126984127	83	127
115.77392290249433	115.90163265306123	62	127
115.77392290249433	115.90163265306123	38	127
115.90163265306123	115.9712925170068	79	127
115.90163265306123	116.01773242630385	59	127
115.90163265306123	116.01773242630385	43	127
116.01773242630385	116.12222222222222	74	127
116.01773242630385	116.14544217687074	62	127
116.01773242630385	116.14544217687074	38	127
116.14544217687074	116.30798185941043	59	127
116.14544217687074	116.30798185941043	43	127
116.14544217687074	116.26154195011338	71	127
116.30798185941043	116.4124716553288	62	127
116.30798185941043	116.4124716553288	38	127
116.30798185941043	116.36603174603175	67	127
116.4124716553288	117.26	62	127
116.4124716553288	116.5401814058957	59	127
116.4124716553288	116.5401814058957	43	127
116.5401814058957	116.65628117913832	62	127
116.5401814058957	116.65628117913832	38	127
116.66789115646259	116.80721088435374	59	127
116.66789115646259	116.80721088435374	43	127
116.818820861678	116.95814058956915	62	127
116.818820861678	116.95814058956915	38	127
116.96975056689342	117.10907029478459	43	127
116.96975056689342	117.10907029478459	59	127
117.12068027210884	117.26	62	127
117.12068027210884	117.26	38	127
117.27160997732426	117.41092970521542	60	127
117.27160997732426	117.41092970521542	42	127
117.27160997732426	117.41092970521542	86	127
117.41092970521542	117.49219954648527	84	127
117.41092970521542	117.49219954648527	62	127
117.41092970521542	117.49219954648527	38	127
117.49219954648527	117.5734693877551	81	127
117.49219954648527	117.60829931972789	60	127
117.49219954648527	117.60829931972789	42	127
117.61990929705216	117.75922902494331	62	127
117.61990929705216	117.75922902494331	38	127
117.61990929705216	117.72439909297051	74	127
117.77083900226758	117.84049886621315	72	127
117.77083900226758	117.87532879818595	60	127
117.77083900226758	117.87532879818595	42	127
117.8869387755102	117.9798185941043	69	127
117.8869387755102	118.00303854875284	62	127
117.8869387755102	118.00303854875284	38	127
118.0146485260771	118.15396825396826	60	127
118.0146485260771	118.7692970521542	62	127
118.0146485260771	118.15396825396826	42	127
118.16557823129251	118.31650793650793	62	127
118.16557823129251	118.31650793650793	38	127
118.3281179138322	118.4558276643991	42	127
118.3281179138322	118.4558276643991	60	127
118.4558276643991	118.49065759637188	38	127
118.4558276643991	118.49065759637188	62	127
118.49065759637188	118.62997732426304	42	127
118.49065759637188	118.62997732426304	60	127
118.62997732426304	118.7692970521542	62	127
118.62997732426304	118.7692970521542	38	127
118.7692970521542	118.93183673469387	59	127
118.7692970521542	118.93183673469387	74	127
118.7692970521542	118.93183673469387	43	127
118.93183673469387	119.09437641723356	38	127
118.93183673469387	119.04793650793651	71	127
118.93183673469387	119.09437641723356	62	127
119.09437641723356	119.18725623582766	67	127
119.09437641723356	119.22208616780046	59	127
119.09437641723356	119.22208616780046	43	127
119.22208616780046	119.33818594104308	62	127
119.22208616780046	119.38462585034014	62	127
119.22208616780046	119.38462585034014	38	127
119.38462585034014	119.47750566893424	59	127
119.38462585034014	119.52394557823129	59	127
119.38462585034014	119.52394557823129	43	127
119.52394557823129	119.61682539682539	55	127
119.52394557823129	119.66326530612245	62	127
119.52394557823129	119.66326530612245	38	127
119.66326530612245	119.8025850340136	43	127
119.66326530612245	119.8025850340136	86	127
119.66326530612245	120.40630385487529	50	127
119.66326530612245	119.8025850340136	59	127
119.8025850340136	119.86063492063492	83	127
119.8025850340136	119.89546485260772	62	127
119.8025850340136	119.89546485260772	38	127
119.90707482993197	120.02317460317461	43	127
119.90707482993197	119.99995464852607	79	127
119.90707482993197	120.02317460317461	59	127
120.03478458049887	120.16249433106576	62	127
120.03478458049887	120.16249433106576	38	127
120.03478458049887	120.12766439909296	74	127
120.17410430839003	120.25537414965986	43	127
120.17410430839003	120.23215419501133	71	127
120.17410430839003	120.25537414965986	59	127
120.26698412698413	120.40630385487529	62	127
120.26698412698413	120.3714739229025	67	127
120.26698412698413	120.40630385487529	38	127
120.41791383219955	121.1841723356009	62	127
120.41791383219955	120.55723356009071	60	127
120.41791383219955	120.55723356009071	74	127
120.41791383219955	120.55723356009071	42	127
120.56884353741496	120.71977324263038	62	127
120.56884353741496	120.71977324263038	38	127
120.56884353741496	120.6849433106576	72	127
120.73138321995465	120.84748299319727	60	127
120.73138321995465	120.84748299319727	42	127
120.73138321995465	120.83587301587302	69	127
120.84748299319727	120.8707029478458	62	127
120.84748299319727	120.9055328798186	62	127
120.84748299319727	120.9055328798186	38	127
120.91714285714286	121.05646258503401	42	127
120.91714285714286	121.03324263038549	60	127
120.91714285714286	121.05646258503401	60	127
121.06807256235828	121.14934240362811	57	127
121.06807256235828	121.1841723356009	62	127
121.06807256235828	121.1841723356009	38	127
121.19578231292518	121.33510204081632	86	127
121.19578231292518	121.32349206349207	60	127
121.19578231292518	121.99687074829932	50	127
121.19578231292518	121.32349206349207	42	127
121.33510204081632	121.47442176870749	62	127
121.33510204081632	121.47442176870749	38	127
121.33510204081632	121.43959183673469	84	127
121.47442176870749	121.55569160997733	81	127
121.47442176870749	121.60213151927438	60	127
121.47442176870749	121.60213151927438	42	127
121.60213151927438	121.70662131519275	38	127
121.60213151927438	121.66018140589568	74	127
121.60213151927438	121.70662131519275	62	127
121.70662131519275	121.85755102040817	42	127
121.70662131519275	121.82272108843537	72	127
121.70662131519275	121.85755102040817	60	127
121.85755102040817	121.99687074829932	38	127
121.85755102040817	121.95043083900227	69	127
121.85755102040817	121.99687074829932	62	127
121.99687074829932	122.13619047619048	59	127
121.99687074829932	122.13619047619048	55	127
121.99687074829932	122.13619047619048	62	127
121.99687074829932	122.53092970521541	67	127
122.13619047619048	122.24068027210885	59	127
122.13619047619048	122.2871201814059	62	127
122.13619047619048	122.2871201814059	59	127
122.2871201814059	122.36839002267574	55	127
122.2871201814059	122.41482993197279	55	127
122.2871201814059	122.41482993197279	59	127
122.41482993197279	122.53092970521541	62	127
122.41482993197279	122.50770975056689	50	127
122.41482993197279	122.53092970521541	59	127
122.53092970521541	122.64702947845805	47	127
122.53092970521541	122.68185941043085	59	127
122.53092970521541	122.68185941043085	55	127
122.68185941043085	122.84439909297052	59	127
122.68185941043085	122.79795918367347	43	127
122.68185941043085	122.84439909297052	62	127
122.85600907029479	123.0069387755102	59	127
122.85600907029479	123.0069387755102	57	127
122.85600907029479	123.01854875283446	81	127
122.85600907029479	123.4481179138322	42	127
123.01854875283446	123.1346485260771	63	127
123.01854875283446	123.1346485260771	59	127
123.01854875283446	123.12303854875283	78	127
123.14625850340136	123.262358276644	75	127
123.14625850340136	123.29718820861677	59	127
123.14625850340136	123.29718820861677	57	127
123.30879818594104	123.41328798185941	71	127
123.30879818594104	123.4481179138322	63	127
123.30879818594104	123.4481179138322	59	127
123.45972789115646	123.61065759637188	59	127
123.45972789115646	123.61065759637188	57	127
123.45972789115646	123.78480725623582	47	127
123.45972789115646	123.5758276643991	69	127
123.6338775510204	123.78480725623582	63	127
123.6338775510204	123.74997732426304	66	127
123.6338775510204	123.78480725623582	59	127
123.79641723356009	124.2956462585034	64	127
123.79641723356009	124.2956462585034	71	127
123.79641723356009	124.2956462585034	76	127
123.79641723356009	124.2956462585034	55	127
123.79641723356009	124.2956462585034	55	127
123.79641723356009	124.2956462585034	52	127
124.78326530612244	125.16639455782312	71	127
124.78326530612244	125.16639455782312	83	127
124.78326530612244	125.16639455782312	59	127
124.78326530612244	125.16639455782312	66	127
124.78326530612244	125.16639455782312	54	127
124.78326530612244	125.16639455782312	59	127
124.78326530612244	125.16639455782312	51	127
127.08204081632653	127.39551020408163	52	127
127.08204081632653	127.39551020408163	64	127
127.4071201814059	127.69736961451247	47	127
127.4071201814059	127.69736961451247	59	127
127.70897959183674	127.9992290249433	67	127
127.70897959183674	127.9992290249433	55	127
127.9992290249433	129.64784580498866	59	127
127.9992290249433	128.98607709750567	59	127
127.9992290249433	129.1137641723356	71	127
128.98607709750567	130.0193650793651	54	127
128.98607709750567	130.0193650793651	57	127
129.12539682539682	129.2879365079365	72	127
129.29954648526078	129.46208616780046	69	127
129.47367346938776	129.64784580498866	66	127
129.64784580498866	129.83360544217686	63	127
129.64784580498866	130.0193650793651	47	127
129.84521541950113	130.0193650793651	59	127
130.03095238095239	130.65791383219954	64	127
130.03095238095239	130.65791383219954	55	127
130.03095238095239	130.65791383219954	52	127
130.03095238095239	130.65791383219954	40	127
132.60839002267574	132.89861678004536	65	127
132.60839002267574	132.89861678004536	53	127
132.60839002267574	132.89861678004536	41	127
132.91024943310657	133.22371882086168	36	127
132.91024943310657	133.22371882086168	60	127
132.91024943310657	133.22371882086168	48	127
133.23532879818595	133.502358276644	45	127
133.23532879818595	133.502358276644	69	127
133.23532879818595	133.502358276644	57	127
133.502358276644	134.60530612244898	72	127
133.502358276644	134.43113378684808	60	127
133.502358276644	135.10453514739228	48	127
133.502358276644	134.43113378684808	60	127
134.4427664399093	135.46444444444444	58	127
134.4427664399093	135.46444444444444	55	127
134.60530612244898	134.7562358276644	74	127
134.76784580498867	134.94197278911565	70	127
134.94197278911565	135.10453514739228	67	127
135.11614512471655	135.27868480725624	64	127
135.11614512471655	135.46444444444444	48	127
135.2902947845805	135.46444444444444	60	127
135.4760544217687	136.0449433106576	65	127
135.4760544217687	136.0449433106576	57	127
135.4760544217687	136.0449433106576	41	127
135.4760544217687	136.0449433106576	53	127
137.80965986394557	138.13473922902494	66	127
138.1463492063492	138.47142857142856	63	127
138.47142857142856	141.80349206349206	69	127
138.78489795918367	139.0867573696145	75	127
139.09836734693877	139.42344671201815	72	127
139.42344671201815	141.80349206349206	78	127
139.7833560090703	140.82825396825396	72	127
139.7833560090703	141.80349206349206	63	127
140.83986394557823	141.80349206349206	71	127
141.81510204081633	142.151768707483	63	127
141.81510204081633	142.151768707483	78	127
142.151768707483	142.4884807256236	57	127
142.151768707483	142.4884807256236	75	127
142.50009070294786	145.91342403628119	81	127
142.50009070294786	145.91342403628119	66	127
142.79034013605443	143.12702947845804	45	127
143.12702947845804	143.4637188208617	42	127
143.47530612244898	144.75240362811792	48	127
143.8004081632653	145.91342403628119	51	127
144.75240362811792	145.91342403628119	47	127
145.91342403628119	146.9467120181406	67	127
145.91342403628119	146.61002267573696	52	127
145.91342403628119	146.43587301587303	79	127
145.91342403628119	149.54734693877552	47	127
146.43587301587303	146.61002267573696	76	127
146.62163265306123	146.9467120181406	52	127
146.62163265306123	146.7841723356009	79	127
146.79578231292518	146.9467120181406	76	127
146.9467120181406	147.23696145124717	69	127
146.9467120181406	147.55043083900227	54	127
146.9467120181406	147.95678004535148	75	127
147.24857142857144	147.39950113378686	72	127
147.39950113378686	147.55043083900227	71	127
147.55043083900227	147.6200680272109	60	127
147.55043083900227	147.6200680272109	66	127
147.6317006802721	147.7942403628118	59	127
147.6317006802721	147.7942403628118	69	127
147.80585034013606	148.28183673469388	67	127
147.80585034013606	148.28183673469388	59	127
147.95678004535148	148.11931972789117	76	127
148.13090702947846	148.17734693877551	78	127
148.17734693877551	148.28183673469388	76	127
148.28183673469388	148.421179138322	79	127
148.28183673469388	148.5837188208617	67	127
148.28183673469388	148.5837188208617	52	127
148.43278911564627	148.5837188208617	76	127
148.59532879818593	148.87396825396826	76	127
148.59532879818593	149.21065759637187	54	127
148.59532879818593	148.71142857142857	69	127
148.71142857142857	148.87396825396826	69	127
148.88557823129253	149.03650793650795	72	127
148.88557823129253	149.54734693877552	75	127
149.04809523809524	149.21065759637187	71	127
149.21065759637187	149.37319727891156	60	127
149.21065759637187	149.37319727891156	66	127
149.38480725623583	149.54734693877552	69	127
149.38480725623583	149.54734693877552	59	127
149.55893424036282	149.86081632653062	67	127
149.55893424036282	149.7098866213152	76	127
149.55893424036282	149.86081632653062	59	127
149.55893424036282	149.86081632653062	52	127
149.7098866213152	149.86081632653062	75	127
149.87242630385487	150.01174603174604	76	127
150.02333333333334	150.0697732426304	78	127
150.0697732426304	150.1510657596372	79	127
150.16267573696146	150.29038548752834	71	127
150.16267573696146	150.29038548752834	59	127
150.3019954648526	150.59224489795918	57	127
150.3019954648526	150.45292517006803	72	127
150.3019954648526	150.45292517006803	60	127
150.3019954648526	150.59224489795918	45	127
150.45292517006803	150.59224489795918	74	127
150.45292517006803	150.59224489795918	62	127
150.59224489795918	150.7431746031746	76	127
150.59224489795918	150.7431746031746	64	127
150.7431746031746	150.8708843537415	68	127
150.7431746031746	150.8708843537415	56	127
150.88249433106577	150.94052154195012	69	127
150.88249433106577	150.94052154195012	57	127
150.94052154195012	151.07986394557824	71	127
150.94052154195012	151.07986394557824	59	127
151.09145124716554	151.23079365079366	72	127
151.09145124716554	151.35850340136054	60	127
151.24240362811793	151.35850340136054	64	127
151.24240362811793	151.35850340136054	52	127
151.35850340136054	151.48621315192744	65	127
151.35850340136054	151.48621315192744	53	127
151.4978231292517	151.63714285714286	67	127
151.4978231292517	151.63714285714286	55	127
151.64875283446713	151.78807256235828	69	127
151.64875283446713	151.78807256235828	57	127
151.78807256235828	151.90417233560092	60	127
151.78807256235828	151.90417233560092	48	127
151.91578231292516	152.05510204081634	62	127
151.91578231292516	152.05510204081634	50	127
152.06668934240363	152.20603174603175	64	127
152.06668934240363	152.20603174603175	52	127
152.20603174603175	152.3453514739229	65	127
152.20603174603175	152.3453514739229	53	127
152.35696145124717	152.438231292517	67	127
152.35696145124717	152.438231292517	55	127
152.438231292517	152.58916099773242	69	127
152.438231292517	152.58916099773242	57	127
152.58916099773242	152.7517006802721	71	127
152.58916099773242	152.7517006802721	59	127
152.76331065759638	152.90263038548753	72	127
152.76331065759638	152.90263038548753	60	127
152.9142403628118	153.03034013605443	71	127
152.9142403628118	153.03034013605443	59	127
153.03034013605443	153.18126984126985	74	127
153.03034013605443	153.18126984126985	62	127
153.19285714285715	153.28575963718822	72	127
153.19285714285715	153.28575963718822	60	127
153.28575963718822	153.40185941043083	71	127
153.28575963718822	153.40185941043083	59	127
153.40185941043083	153.56439909297052	69	127
153.40185941043083	153.56439909297052	57	127
153.56439909297052	153.71532879818594	67	127
153.56439909297052	153.71532879818594	55	127
153.71532879818594	153.86625850340135	65	127
153.71532879818594	153.86625850340135	53	127
153.87786848072562	153.92430839002267	64	127
153.87786848072562	153.92430839002267	52	127
153.92430839002267	154.08684807256236	65	127
153.92430839002267	154.08684807256236	53	127
154.09845804988663	154.27260770975056	69	127
154.09845804988663	154.27260770975056	57	127
154.27260770975056	154.4583673469388	72	127
154.27260770975056	154.4583673469388	60	127
154.46995464852608	154.7950566893424	72	127
154.46995464852608	154.7950566893424	60	127
154.7950566893424	155.7006349206349	55	127
154.7950566893424	155.12013605442178	61	127
154.7950566893424	155.12013605442178	46	127
154.7950566893424	155.7006349206349	64	127
155.12013605442178	155.39877551020408	46	127
155.12013605442178	155.39877551020408	61	127
155.41038548752834	155.7006349206349	59	127
155.41038548752834	155.7006349206349	47	127
155.71224489795918	156.0257142857143	64	127
155.71224489795918	156.0257142857143	59	127
155.71224489795918	156.0257142857143	67	127
155.71224489795918	156.0257142857143	47	127
156.03732426303856	156.37401360544217	66	127
156.03732426303856	156.37401360544217	63	127
156.03732426303856	156.37401360544217	57	127
156.03732426303856	156.37401360544217	47	127
156.37401360544217	156.8384126984127	57	127
156.37401360544217	156.8384126984127	66	127
156.37401360544217	156.8384126984127	63	127
156.37401360544217	156.8384126984127	48	127
157.36086167800454	157.88331065759638	83	127
157.36086167800454	157.88331065759638	71	127
157.36086167800454	157.88331065759638	78	127
157.36086167800454	157.88331065759638	63	127
157.36086167800454	157.88331065759638	66	127
157.36086167800454	157.88331065759638	39	127
159.9150566893424	161.65655328798186	52	127
160.40267573696144	160.56521541950113	64	127
160.56521541950113	160.7974149659864	55	127
160.56521541950113	160.646485260771	67	127
160.56521541950113	160.7974149659864	76	127
160.646485260771	160.7974149659864	64	127
160.8090022675737	161.37791383219954	78	127
160.8090022675737	161.795873015873	63	127
160.8090022675737	161.0644217687075	57	127
161.0644217687075	161.2153514739229	60	127
161.22698412698412	161.37791383219954	59	127
161.3895238095238	161.52884353741496	84	127
161.3895238095238	161.52884353741496	54	127
161.52884353741496	161.65655328798186	83	127
161.52884353741496	161.65655328798186	57	127
161.66816326530613	163.44448979591837	52	127
161.66816326530613	161.93519274376416	57	127
161.66816326530613	162.23702947845806	83	127
161.80748299319728	161.93519274376416	64	127
161.93519274376416	162.16739229024944	55	127
161.93519274376416	162.07451247165534	66	127
162.08609977324264	162.23702947845806	64	127
162.23702947845806	162.46925170068027	55	127
162.23702947845806	162.5505215419501	76	127
162.23702947845806	162.38798185941044	67	127
162.38798185941044	162.5505215419501	64	127
162.56213151927437	162.79433106575965	57	127
162.56213151927437	163.0961904761905	78	127
162.56213151927437	163.44448979591837	63	127
162.79433106575965	162.9336507936508	60	127
162.94526077097507	163.0961904761905	59	127
163.10777777777778	163.27034013605441	54	127
163.10777777777778	163.27034013605441	84	127
163.27034013605441	163.44448979591837	57	127
163.27034013605441	163.44448979591837	83	127
163.44448979591837	163.75795918367348	83	127
163.44448979591837	164.001768707483	52	127
163.44448979591837	163.58380952380952	64	127
163.44448979591837	164.001768707483	55	127
163.5954195011338	163.75795918367348	63	127
163.75795918367348	163.89727891156463	64	127
163.89727891156463	164.001768707483	66	127
164.01337868480726	164.14108843537414	67	127
164.1526984126984	164.222358276644	71	127
164.1526984126984	164.222358276644	59	127
164.222358276644	164.37328798185942	72	127
164.222358276644	164.37328798185942	60	127
164.222358276644	164.76802721088436	57	127
164.222358276644	164.76802721088436	45	127
164.38487528344672	164.53580498866214	62	127
164.38487528344672	164.53580498866214	74	127
164.54743764172335	164.67514739229026	76	127
164.54743764172335	164.67514739229026	64	127
164.68675736961453	164.76802721088436	56	127
164.68675736961453	164.76802721088436	68	127
164.76802721088436	164.8957142857143	69	127
164.76802721088436	164.8957142857143	57	127
164.9073469387755	165.05827664399092	59	127
164.9073469387755	165.05827664399092	71	127
165.0698866213152	165.2208163265306	72	127
165.0698866213152	165.37174603174603	60	127
165.23242630385488	165.37174603174603	64	127
165.23242630385488	165.37174603174603	52	127
165.3833560090703	165.4762358276644	65	127
165.3833560090703	165.4762358276644	53	127
165.4762358276644	165.62716553287981	67	127
165.4762358276644	165.62716553287981	55	127
165.62716553287981	165.7200453514739	69	127
165.62716553287981	165.7200453514739	57	127
165.7200453514739	165.87097505668933	60	127
165.7200453514739	165.87097505668933	48	127
165.87097505668933	166.0218820861678	62	127
165.87097505668933	166.0218820861678	50	127
166.0218820861678	166.17281179138322	64	127
166.0218820861678	166.17281179138322	52	127
166.17281179138322	166.2657142857143	65	127
166.17281179138322	166.2657142857143	53	127
166.2657142857143	166.38179138321996	67	127
166.2657142857143	166.38179138321996	55	127
166.38179138321996	166.5443537414966	69	127
166.38179138321996	166.5443537414966	57	127
166.5443537414966	166.695283446712	71	127
166.5443537414966	166.695283446712	59	127
166.70689342403628	166.8578231292517	72	127
166.70689342403628	166.8578231292517	60	127
166.70689342403628	166.93907029478459	60	127
166.86943310657597	167.0203628117914	62	127
166.86943310657597	167.0203628117914	74	127
167.03197278911566	167.13646258503402	64	127
167.03197278911566	167.13646258503402	76	127
167.14804988662132	167.2409523809524	41	127
167.14804988662132	167.2409523809524	77	127
167.14804988662132	167.2409523809524	65	127
167.14804988662132	167.2409523809524	53	127
167.25256235827663	167.36866213151927	55	127
167.25256235827663	167.36866213151927	79	127
167.25256235827663	167.36866213151927	67	127
167.25256235827663	167.36866213151927	43	127
167.38027210884354	167.46154195011337	81	127
167.38027210884354	167.46154195011337	69	127
167.38027210884354	167.46154195011337	57	127
167.38027210884354	167.46154195011337	45	127
167.47315192743764	167.62408163265306	83	127
167.47315192743764	167.62408163265306	71	127
167.47315192743764	167.62408163265306	59	127
167.47315192743764	167.62408163265306	47	127
167.63569160997733	167.78662131519275	48	127
167.63569160997733	167.78662131519275	84	127
167.63569160997733	167.78662131519275	72	127
167.63569160997733	167.78662131519275	60	127
167.79823129251702	167.96074829931973	74	127
167.79823129251702	167.96074829931973	62	127
167.79823129251702	167.96074829931973	50	127
167.79823129251702	167.96074829931973	86	127
167.97238095238095	168.04204081632653	88	127
167.97238095238095	168.04204081632653	76	127
167.97238095238095	168.04204081632653	64	127
167.97238095238095	168.04204081632653	52	127
168.0768707482993	168.16972789115647	53	127
168.0768707482993	168.16972789115647	89	127
168.0768707482993	168.16972789115647	77	127
168.0768707482993	168.16972789115647	65	127
168.22780045351473	168.35551020408164	65	127
168.22780045351473	168.35551020408164	48	127
168.22780045351473	168.35551020408164	45	127
168.22780045351473	168.35551020408164	89	127
168.41356009070296	169.2146485260771	89	127
168.41356009070296	168.52965986394557	71	127
168.41356009070296	168.52965986394557	50	127
168.41356009070296	168.52965986394557	43	127
168.57607709750567	168.70380952380953	50	127
168.57607709750567	168.70380952380953	43	127
168.57607709750567	168.70380952380953	59	127
168.75024943310657	168.87795918367348	59	127
168.75024943310657	168.87795918367348	50	127
168.75024943310657	168.87795918367348	43	127
168.91278911564626	169.0288888888889	50	127
168.91278911564626	169.0288888888889	43	127
168.91278911564626	169.0288888888889	59	127
169.0521088435374	169.16820861678005	59	127
169.0521088435374	169.16820861678005	50	127
169.0521088435374	169.16820861678005	43	127
169.22625850340137	169.34233560090703	50	127
169.22625850340137	169.27269841269842	65	127
169.22625850340137	169.34233560090703	59	127
169.22625850340137	169.34233560090703	43	127
169.27269841269842	169.33074829931974	67	127
169.33074829931974	169.38879818594106	65	127
169.38879818594106	169.48167800453515	63	127
169.38879818594106	169.51650793650794	59	127
169.38879818594106	169.51650793650794	50	127
169.38879818594106	169.51650793650794	43	127
169.48167800453515	169.55133786848072	65	127
169.56294784580498	171.0722448979592	72	127
169.56294784580498	169.7487074829932	63	127
169.56294784580498	170.2827664399093	48	127
169.56294784580498	171.0722448979592	75	127
169.76031746031745	169.92285714285714	67	127
169.92285714285714	170.1085941043084	72	127
170.1202267573696	170.2827664399093	67	127
170.29437641723356	170.45691609977325	75	127
170.45691609977325	170.61943310657597	72	127
170.63106575963718	170.77038548752836	79	127
170.77038548752836	170.92131519274378	84	127
170.93292517006802	171.0374149659864	79	127
171.0838321995465	171.19995464852607	87	127
171.0838321995465	171.14190476190475	63	127
171.0838321995465	171.14190476190475	60	127
171.14190476190475	171.19995464852607	65	127
171.14190476190475	171.19995464852607	62	127
171.19995464852607	171.24639455782312	60	127
171.19995464852607	171.24639455782312	63	127
171.24639455782312	171.33925170068028	59	127
171.24639455782312	171.37410430839003	87	127
171.24639455782312	171.33925170068028	62	127
171.33925170068028	171.42054421768708	63	127
171.33925170068028	171.42054421768708	60	127
171.42054421768708	172.697641723356	86	127
171.42054421768708	171.54825396825396	60	127
171.42054421768708	171.54825396825396	69	127
171.42054421768708	171.54825396825396	62	127
171.42054421768708	171.54825396825396	42	127
171.59467120181407	171.69918367346938	69	127
171.59467120181407	171.69918367346938	62	127
171.59467120181407	171.69918367346938	42	127
171.59467120181407	171.69918367346938	60	127
171.71079365079365	171.82689342403629	69	127
171.71079365079365	171.82689342403629	62	127
171.71079365079365	171.82689342403629	42	127
171.71079365079365	171.82689342403629	60	127
171.85009070294785	171.95460317460316	69	127
171.85009070294785	171.95460317460316	62	127
171.85009070294785	171.95460317460316	42	127
171.85009070294785	171.95460317460316	60	127
171.95460317460316	172.0474829931973	60	127
171.95460317460316	172.0474829931973	69	127
171.95460317460316	172.0474829931973	62	127
171.95460317460316	172.0474829931973	42	127
172.0707029478458	172.18680272108844	69	127
172.0707029478458	172.18680272108844	62	127
172.0707029478458	172.18680272108844	42	127
172.0707029478458	172.18680272108844	60	127
172.2332426303855	172.33773242630386	69	127
172.2332426303855	172.33773242630386	62	127
172.2332426303855	172.33773242630386	42	127
172.2332426303855	172.33773242630386	60	127
172.39578231292518	172.50027210884355	69	127
172.39578231292518	172.50027210884355	62	127
172.39578231292518	172.50027210884355	42	127
172.39578231292518	172.50027210884355	60	127
172.5467120181406	172.67442176870748	69	127
172.5467120181406	172.67442176870748	62	127
172.5467120181406	172.67442176870748	42	127
172.5467120181406	172.67442176870748	60	127
172.70925170068028	172.80213151927438	69	127
172.70925170068028	172.76727891156463	60	127
172.70925170068028	172.80213151927438	60	127
172.70925170068028	172.80213151927438	62	127
172.70925170068028	172.80213151927438	42	127
172.76727891156463	172.80213151927438	62	127
172.80213151927438	172.8601814058957	60	127
172.8601814058957	172.96467120181407	69	127
172.8601814058957	172.96467120181407	62	127
172.8601814058957	172.96467120181407	42	127
172.8601814058957	172.96467120181407	60	127
172.8601814058957	172.92984126984126	59	127
172.92984126984126	173.01111111111112	60	127
173.01111111111112	174.23015873015873	67	127
173.01111111111112	173.1736507936508	58	127
173.01111111111112	173.66126984126984	43	127
173.01111111111112	174.23015873015873	70	127
173.18526077097505	173.33619047619047	62	127
173.34780045351474	173.51034013605442	67	127
173.51034013605442	173.66126984126984	62	127
173.6728798185941	173.84702947845804	70	127
173.8586394557823	174.021179138322	67	127
174.021179138322	174.06761904761905	74	127
174.06761904761905	174.07922902494332	79	127
174.07922902494332	174.18371882086169	74	127
174.23015873015873	174.36947845804988	82	127
174.23015873015873	174.28820861678005	58	127
174.23015873015873	174.28820861678005	55	127
174.28820861678005	174.34625850340137	60	127
174.28820861678005	174.34625850340137	57	127
174.34625850340137	174.41591836734693	55	127
174.34625850340137	174.41591836734693	58	127
174.41591836734693	174.53201814058957	82	127
174.41591836734693	174.4971882086168	54	127
174.41591836734693	174.4971882086168	57	127
174.4971882086168	174.57845804988662	58	127
174.4971882086168	174.57845804988662	55	127
174.57845804988662	175.51886621315194	82	127
174.57845804988662	174.70616780045353	55	127
174.57845804988662	174.70616780045353	67	127
174.57845804988662	174.70616780045353	51	127
174.57845804988662	174.70616780045353	39	127
174.75260770975058	174.82226757369614	67	127
174.75260770975058	174.82226757369614	51	127
174.75260770975058	174.82226757369614	39	127
174.75260770975058	174.82226757369614	55	127
174.85709750566895	174.97319727891156	67	127
174.85709750566895	174.97319727891156	51	127
174.85709750566895	174.97319727891156	39	127
174.85709750566895	174.97319727891156	55	127
175.01961451247166	175.13573696145124	67	127
175.01961451247166	175.13573696145124	51	127
175.01961451247166	175.13573696145124	39	127
175.01961451247166	175.13573696145124	55	127
175.1821768707483	175.29827664399093	67	127
175.1821768707483	175.29827664399093	51	127
175.1821768707483	175.29827664399093	39	127
175.1821768707483	175.29827664399093	55	127
175.35632653061225	175.4724263038549	67	127
175.35632653061225	175.4724263038549	51	127
175.35632653061225	175.4724263038549	39	127
175.35632653061225	175.4724263038549	55	127
175.51886621315194	175.6233560090703	55	127
175.51886621315194	175.55369614512472	61	127
175.51886621315194	175.6233560090703	67	127
175.51886621315194	175.6233560090703	51	127
175.51886621315194	175.6233560090703	39	127
175.55369614512472	175.61174603174604	62	127
175.61174603174604	175.66979591836736	61	127
175.66979591836736	175.79750566893424	55	127
175.66979591836736	175.79750566893424	67	127
175.66979591836736	175.79750566893424	51	127
175.66979591836736	175.79750566893424	39	127
175.66979591836736	175.76267573696146	59	127
175.76267573696146	175.84394557823128	61	127
175.85555555555555	176.0412925170068	62	127
175.85555555555555	177.23714285714286	38	127
175.85555555555555	176.36639455782313	50	127
175.85555555555555	176.54054421768708	66	127
176.0412925170068	176.20385487528344	69	127
176.2154648526077	176.36639455782313	74	127
176.3780045351474	176.54054421768708	51	127
176.3780045351474	176.54054421768708	72	127
176.54054421768708	176.6914739229025	48	127
176.54054421768708	176.8540136054422	70	127
176.54054421768708	176.8540136054422	67	127
176.7030612244898	176.8540136054422	49	127
176.86562358276643	177.38807256235827	69	127
176.86562358276643	177.02816326530612	66	127
176.86562358276643	177.12104308390022	50	127
177.02816326530612	177.12104308390022	57	127
177.12104308390022	177.23714285714286	62	127
177.23714285714286	177.38807256235827	39	127
177.23714285714286	177.38807256235827	60	127
177.38807256235827	177.6782993197279	67	127
177.38807256235827	177.52739229024942	36	127
177.38807256235827	177.52739229024942	58	127
177.52739229024942	177.6782993197279	70	127
177.52739229024942	177.6782993197279	37	127
177.6899319727891	178.8277097505669	38	127
177.6899319727891	177.80603174603175	66	127
177.6899319727891	177.80603174603175	69	127
177.80603174603175	177.9221315192744	70	127
177.80603174603175	177.9221315192744	67	127
177.80603174603175	177.9221315192744	75	127
177.9221315192744	178.02662131519276	69	127
177.9221315192744	178.02662131519276	72	127
178.02662131519276	178.13111111111112	70	127
178.02662131519276	178.13111111111112	67	127
178.02662131519276	178.13111111111112	73	127
178.13111111111112	178.28204081632654	69	127
178.13111111111112	178.28204081632654	66	127
178.13111111111112	178.28204081632654	74	127
178.28204081632654	178.40975056689342	79	127
178.28204081632654	178.40975056689342	73	127
178.28204081632654	178.40975056689342	63	127
178.4213605442177	178.56068027210884	62	127
178.4213605442177	178.56068027210884	78	127
178.4213605442177	178.56068027210884	74	127
178.5722902494331	178.68839002267575	61	127
178.5722902494331	178.68839002267575	79	127
178.5722902494331	178.68839002267575	82	127
178.68839002267575	178.8277097505669	62	127
178.68839002267575	178.8277097505669	78	127
178.68839002267575	178.8277097505669	81	127
178.83931972789117	178.90897959183673	64	127
178.83931972789117	178.90897959183673	85	127
178.83931972789117	178.90897959183673	45	127
178.83931972789117	178.90897959183673	79	127
178.920589569161	179.05990929705214	78	127
178.920589569161	179.05990929705214	86	127
178.920589569161	179.05990929705214	62	127
178.920589569161	179.05990929705214	38	127
179.05990929705214	179.21081632653062	85	127
179.05990929705214	179.21081632653062	79	127
179.05990929705214	179.21081632653062	64	127
179.05990929705214	179.21081632653062	45	127
179.21081632653062	179.31532879818593	38	127
179.21081632653062	179.3965986394558	86	127
179.21081632653062	179.3965986394558	78	127
179.21081632653062	179.3965986394558	62	127
179.3269387755102	179.4894784580499	37	127
179.4894784580499	179.7216553287982	86	127
179.4894784580499	179.7216553287982	69	127
179.4894784580499	179.7216553287982	78	127
179.4894784580499	179.7216553287982	50	127
179.4894784580499	179.62879818594104	38	127
179.6404081632653	179.79133786848072	37	127
179.802947845805	179.93065759637187	38	127
179.802947845805	179.9887074829932	86	127
179.802947845805	179.9887074829932	69	127
179.802947845805	179.9887074829932	78	127
179.802947845805	179.9887074829932	50	127
179.93065759637187	180.08156462585035	37	127
180.08156462585035	180.41827664399094	86	127
180.08156462585035	180.24412698412698	50	127
180.08156462585035	182.9724716553288	38	127
180.08156462585035	180.41827664399094	69	127
180.08156462585035	180.41827664399094	78	127
180.25573696145125	180.41827664399094	49	127
180.41827664399094	180.55759637188208	50	127
180.55759637188208	180.69691609977323	49	127
180.69691609977323	180.78979591836736	50	127
180.78979591836736	180.90589569160997	49	127
180.90589569160997	180.99875283446713	50	127
181.01038548752834	181.14968253968254	49	127
181.16131519274376	181.31224489795918	50	127
181.31224489795918	181.4283446712018	49	127
181.43995464852608	181.61408163265307	50	127
181.62571428571428	181.7650113378685	49	127
181.7650113378685	181.88113378684807	50	127
181.89274376417234	182.00884353741498	49	127
182.02043083900227	182.1597732426304	50	127
182.1597732426304	182.26426303854876	49	127
182.27585034013606	182.4035827664399	50	127
182.4035827664399	182.55451247165533	49	127
182.55451247165533	182.68219954648526	50	127
182.69383219954648	182.85637188208617	48	127
182.86798185941043	183.01891156462585	50	127
183.01891156462585	183.16984126984127	48	127
183.01891156462585	183.16984126984127	42	127
183.18145124716554	183.33238095238096	50	127
183.18145124716554	183.33238095238096	40	127
183.34399092970523	183.49492063492065	43	127
183.34399092970523	183.49492063492065	48	127
183.49492063492065	183.92448979591836	42	127
183.49492063492065	183.6342403628118	50	127
183.6342403628118	183.77356009070294	48	127
183.7851700680272	183.92448979591836	50	127
183.93609977324263	184.09863945578232	48	127
183.93609977324263	184.09863945578232	45	127
184.09863945578232	184.2263492063492	50	127
184.09863945578232	184.2263492063492	44	127
184.23795918367347	184.41210884353742	48	127
184.23795918367347	184.41210884353742	47	127
184.42369614512472	184.95777777777778	45	127
184.42369614512472	184.57462585034014	50	127
184.42369614512472	184.87650793650795	81	127
184.57462585034014	184.72557823129253	48	127
184.73718820861677	184.87650793650795	50	127
184.87650793650795	184.95777777777778	78	127
184.87650793650795	184.95777777777778	48	127
184.95777777777778	185.12031746031747	79	127
184.95777777777778	185.12031746031747	50	127
185.13192743764174	185.29444444444445	48	127
185.13192743764174	185.29444444444445	76	127
185.29444444444445	185.45700680272108	50	127
185.29444444444445	185.53827664399094	74	127
185.45700680272108	185.61954648526077	48	127
185.63115646258504	185.79369614512473	50	127
185.63115646258504	185.87496598639456	74	127
185.80528344671202	185.96784580498866	48	127
185.96784580498866	186.13038548752834	50	127
185.96784580498866	186.22326530612244	74	127
186.1419954648526	186.29292517006803	48	127
186.3045351473923	186.45546485260772	50	127
186.3045351473923	186.75732426303856	42	127
186.3045351473923	186.94308390022675	74	127
186.45546485260772	186.6180045351474	48	127
186.62961451247165	186.75732426303856	50	127
186.76893424036282	186.94308390022675	48	127
186.76893424036282	186.94308390022675	45	127
186.94308390022675	187.10562358276644	44	127
186.94308390022675	187.10562358276644	50	127
187.10562358276644	187.26816326530613	48	127
187.10562358276644	187.26816326530613	47	127
187.2797732426304	187.395873015873	50	127
187.2797732426304	187.6512925170068	45	127
187.395873015873	187.50036281179138	48	127
187.50036281179138	187.6512925170068	50	127
187.66290249433106	187.7790022675737	48	127
187.66290249433106	187.7790022675737	48	127
187.79061224489797	187.9415419501134	50	127
187.79061224489797	187.9415419501134	47	127
187.9415419501134	188.057641723356	48	127
187.9415419501134	188.057641723356	50	127
188.06925170068027	188.69619047619048	48	127
188.06925170068027	188.19696145124718	66	127
188.06925170068027	188.19696145124718	50	127
188.06925170068027	188.5336507936508	84	127
188.20854875283447	188.3711111111111	48	127
188.20854875283447	188.3711111111111	62	127
188.3711111111111	188.5336507936508	66	127
188.3711111111111	188.5336507936508	50	127
188.54526077097506	188.69619047619048	62	127
188.54526077097506	188.69619047619048	48	127
188.54526077097506	188.69619047619048	83	127
188.70780045351475	188.87031746031747	81	127
188.70780045351475	188.87031746031747	66	127
188.70780045351475	188.87031746031747	50	127
188.87031746031747	188.99804988662132	80	127
188.87031746031747	188.99804988662132	62	127
188.87031746031747	188.99804988662132	48	127
189.0096598639456	189.13736961451247	81	127
189.0096598639456	189.13736961451247	66	127
189.0096598639456	189.13736961451247	50	127
189.13736961451247	189.20702947845805	83	127
189.13736961451247	189.20702947845805	62	127
189.13736961451247	189.20702947845805	48	127
189.20702947845805	189.27666666666667	84	127
189.20702947845805	189.27666666666667	66	127
189.20702947845805	189.27666666666667	50	127
189.27666666666667	189.39278911564625	86	127
189.27666666666667	189.39278911564625	62	127
189.27666666666667	189.39278911564625	48	127
189.40439909297052	189.5669387755102	88	127
189.40439909297052	189.5669387755102	66	127
189.40439909297052	189.5669387755102	54	127
189.40439909297052	189.7294784580499	48	127
189.5669387755102	189.7294784580499	86	127
189.5669387755102	189.7294784580499	62	127
189.5669387755102	189.7294784580499	50	127
189.7410657596372	189.90362811791383	55	127
189.7410657596372	189.90362811791383	67	127
189.7410657596372	190.36802721088435	86	127
189.7410657596372	190.36802721088435	47	127
189.9152380952381	190.05455782312924	62	127
189.9152380952381	190.05455782312924	50	127
190.05455782312924	190.21709750566893	67	127
190.05455782312924	190.21709750566893	55	127
190.21709750566893	190.36802721088435	50	127
190.21709750566893	190.36802721088435	62	127
190.37963718820862	190.55378684807258	91	127
190.37963718820862	190.49573696145126	67	127
190.37963718820862	190.49573696145126	55	127
190.49573696145126	190.55378684807258	50	127
190.49573696145126	190.55378684807258	62	127
190.55378684807258	190.6698866213152	55	127
190.55378684807258	191.14589569160998	48	127
190.55378684807258	190.6698866213152	67	127
190.55378684807258	191.14589569160998	90	127
190.68149659863946	190.84403628117914	64	127
190.68149659863946	190.84403628117914	52	127
190.8556462585034	190.9833560090703	67	127
190.8556462585034	190.9833560090703	55	127
190.9833560090703	191.14589569160998	64	127
190.9833560090703	191.14589569160998	52	127
191.15750566893425	191.21555555555557	88	127
191.15750566893425	191.30843537414967	67	127
191.15750566893425	191.30843537414967	55	127
191.21555555555557	191.27360544217686	90	127
191.27360544217686	191.32004535147394	88	127
191.32004535147394	191.3897052154195	86	127
191.32004535147394	191.42453514739228	64	127
191.32004535147394	191.42453514739228	52	127
191.3897052154195	191.42453514739228	88	127
191.42453514739228	191.99342403628117	86	127
191.42453514739228	191.57546485260772	66	127
191.42453514739228	191.57546485260772	54	127
191.42453514739228	191.99342403628117	50	127
191.58707482993196	191.7031746031746	69	127
191.58707482993196	191.7031746031746	57	127
191.71478458049887	191.8657142857143	62	127
191.71478458049887	191.8657142857143	50	127
191.8657142857143	191.99342403628117	54	127
191.8657142857143	191.99342403628117	66	127
192.00503401360544	192.06308390022676	84	127
192.00503401360544	192.16757369614513	69	127
192.00503401360544	192.16757369614513	57	127
192.06308390022676	192.12113378684808	86	127
192.12113378684808	192.1791836734694	84	127
192.1791836734694	192.21401360544218	83	127
192.1791836734694	192.26045351473923	66	127
192.1791836734694	192.26045351473923	54	127
192.21401360544218	192.26045351473923	84	127
192.26045351473923	192.46943310657596	83	127
192.26045351473923	192.30689342403628	67	127
192.26045351473923	192.46943310657596	43	127
192.26045351473923	193.11959183673468	55	127
192.31850340136054	192.46943310657596	66	127
192.46943310657596	192.62036281179138	67	127
192.62036281179138	192.75968253968253	66	127
192.62036281179138	192.75968253968253	69	127
192.62036281179138	192.75968253968253	64	127
192.7712925170068	192.9338321995465	71	127
192.7712925170068	192.9338321995465	67	127
192.7712925170068	192.9338321995465	62	127
192.94544217687076	193.11959183673468	72	127
192.94544217687076	193.11959183673468	69	127
192.94544217687076	193.11959183673468	60	127
193.11959183673468	194.06	59	127
193.11959183673468	193.28213151927437	67	127
193.11959183673468	193.7233106575964	74	127
193.28213151927437	193.40984126984128	62	127
193.42145124716552	193.54916099773243	67	127
193.5607709750567	193.7233106575964	62	127
193.7233106575964	194.06	79	127
193.7233106575964	193.88585034013605	67	127
193.89746031746031	194.06	62	127
194.07160997732427	194.73337868480726	60	127
194.07160997732427	194.23414965986396	67	127
194.07160997732427	194.23414965986396	64	127
194.07160997732427	194.73337868480726	78	127
194.23414965986396	194.38507936507938	64	127
194.23414965986396	194.38507936507938	60	127
194.39668934240362	194.5592290249433	64	127
194.39668934240362	194.5592290249433	72	127
194.57083900226758	194.73337868480726	60	127
194.57083900226758	194.73337868480726	67	127
194.73337868480726	194.79142857142858	76	127
194.73337868480726	194.89591836734695	72	127
194.73337868480726	194.89591836734695	64	127
194.73337868480726	194.89591836734695	60	127
194.79142857142858	194.84947845804987	78	127
194.84947845804987	194.9075283446712	76	127
194.9075283446712	195.07006802721088	60	127
194.9075283446712	194.9655782312925	78	127
194.9075283446712	195.07006802721088	67	127
194.9075283446712	195.07006802721088	64	127
194.9655782312925	195.02362811791383	76	127
195.02362811791383	195.07006802721088	78	127
195.08167800453515	195.24421768707484	69	127
195.08167800453515	195.24421768707484	66	127
195.08167800453515	195.40675736961452	72	127
195.08167800453515	196.30072562358276	75	127
195.24421768707484	195.40675736961452	66	127
195.24421768707484	195.40675736961452	69	127
195.41836734693877	195.74344671201814	84	127
195.41836734693877	195.58090702947845	69	127
195.41836734693877	195.58090702947845	66	127
195.59251700680272	195.74344671201814	69	127
195.59251700680272	195.74344671201814	66	127
195.74344671201814	196.0104761904762	84	127
195.74344671201814	195.89437641723356	69	127
195.74344671201814	195.89437641723356	66	127
195.90598639455783	196.0104761904762	66	127
195.90598639455783	196.0104761904762	69	127
196.02208616780047	196.13818594104308	66	127
196.02208616780047	197.0785941043084	84	127
196.02208616780047	196.13818594104308	69	127
196.14979591836735	196.30072562358276	66	127
196.14979591836735	196.30072562358276	69	127
196.31233560090703	196.48648526077096	69	127
196.31233560090703	196.48648526077096	66	127
196.31233560090703	196.68385487528346	74	127
196.49809523809523	196.68385487528346	66	127
196.49809523809523	196.68385487528346	69	127
196.68385487528346	196.88122448979593	66	127
196.68385487528346	197.0785941043084	74	127
196.68385487528346	196.88122448979593	69	127
196.8928344671202	197.0785941043084	69	127
196.8928344671202	197.0785941043084	66	127
197.09020408163266	197.42689342403628	74	127
197.09020408163266	197.86807256235826	71	127
197.09020408163266	197.86807256235826	67	127
197.09020408163266	198.01900226757368	83	127
197.43850340136055	197.49655328798187	79	127
197.49655328798187	197.63587301587302	78	127
197.6474829931973	197.71714285714285	76	127
197.72875283446712	197.86807256235826	75	127
197.86807256235826	198.34408163265306	76	127
197.86807256235826	198.19315192743764	64	127
197.86807256235826	198.84331065759636	60	127
198.03061224489795	198.19315192743764	80	127
198.2047619047619	198.34408163265306	72	127
198.2047619047619	198.34408163265306	81	127
198.34408163265306	198.4601814058957	84	127
198.34408163265306	198.50662131519275	74	127
198.34408163265306	198.50662131519275	71	127
198.51823129251702	198.66916099773243	72	127
198.51823129251702	198.62272108843538	88	127
198.51823129251702	198.66916099773243	69	127
198.66916099773243	198.84331065759636	67	127
198.66916099773243	198.84331065759636	71	127
198.66916099773243	198.7968707482993	88	127
198.85492063492063	199.91142857142856	66	127
198.85492063492063	198.98263038548754	62	127
198.85492063492063	199.42380952380952	88	127
198.85492063492063	199.91142857142856	69	127
198.99424036281178	199.16839002267574	54	127
199.16839002267574	199.23804988662133	57	127
199.24965986394557	199.42380952380952	55	127
199.42380952380952	199.57473922902494	54	127
199.42380952380952	199.85337868480727	86	127
199.5863492063492	199.73727891156463	52	127
199.7488888888889	200.58480725623582	50	127
199.85337868480727	199.91142857142856	90	127
199.92303854875283	200.25972789115647	66	127
199.92303854875283	200.25972789115647	62	127
199.92303854875283	200.07396825396825	93	127
200.08557823129252	200.25972789115647	90	127
200.25972789115647	200.4106575963719	86	127
200.25972789115647	200.4106575963719	67	127
200.25972789115647	200.4106575963719	64	127
200.4106575963719	200.58480725623582	69	127
200.4106575963719	200.58480725623582	84	127
200.4106575963719	200.58480725623582	66	127
200.58480725623582	200.7473469387755	71	127
200.58480725623582	200.7473469387755	67	127
200.58480725623582	201.08403628117915	83	127
200.58480725623582	201.44394557823128	55	127
200.75895691609978	200.87505668934241	74	127
200.75895691609978	200.87505668934241	62	127
200.88666666666666	201.0608163265306	79	127
200.88666666666666	201.0608163265306	67	127
201.0608163265306	201.08403628117915	66	127
201.0608163265306	201.08403628117915	78	127
201.0956462585034	201.25818594104308	64	127
201.0956462585034	201.25818594104308	76	127
201.0956462585034	201.61809523809524	71	127
201.26979591836735	201.44394557823128	75	127
201.26979591836735	201.44394557823128	63	127
201.45555555555555	201.61809523809524	64	127
201.45555555555555	201.61809523809524	76	127
201.45555555555555	201.61809523809524	48	127
201.6297052154195	201.75741496598638	68	127
201.6297052154195	201.75741496598638	77	127
201.6297052154195	201.75741496598638	65	127
201.6297052154195	201.75741496598638	50	127
201.75741496598638	201.9083446712018	69	127
201.75741496598638	201.9083446712018	76	127
201.75741496598638	201.9083446712018	64	127
201.75741496598638	201.9083446712018	48	127
201.9083446712018	202.05927437641722	72	127
201.9083446712018	202.05927437641722	74	127
201.9083446712018	202.05927437641722	62	127
201.9083446712018	202.05927437641722	47	127
202.0708843537415	202.1985941043084	76	127
202.0708843537415	202.1985941043084	72	127
202.0708843537415	202.1985941043084	60	127
202.0708843537415	202.1985941043084	45	127
202.1985941043084	202.37274376417233	76	127
202.1985941043084	202.37274376417233	71	127
202.1985941043084	202.37274376417233	59	127
202.1985941043084	202.37274376417233	43	127
202.3843537414966	202.4772335600907	69	127
202.3843537414966	202.4772335600907	57	127
202.3843537414966	202.4772335600907	42	127
202.3843537414966	202.87197278911566	76	127
202.4772335600907	202.6281632653061	59	127
202.4772335600907	202.6281632653061	43	127
202.4772335600907	202.6281632653061	71	127
202.6281632653061	202.74426303854875	72	127
202.6281632653061	202.74426303854875	60	127
202.6281632653061	202.74426303854875	45	127
202.74426303854875	202.87197278911566	71	127
202.74426303854875	202.87197278911566	59	127
202.74426303854875	202.87197278911566	43	127
202.87197278911566	203.03451247165532	57	127
202.87197278911566	203.2899319727891	74	127
202.87197278911566	203.03451247165532	42	127
202.87197278911566	203.03451247165532	69	127
203.0461224489796	203.16222222222223	67	127
203.0461224489796	203.16222222222223	40	127
203.0461224489796	203.16222222222223	55	127
203.1738321995465	203.2899319727891	38	127
203.1738321995465	203.2899319727891	66	127
203.1738321995465	203.2899319727891	54	127
203.2899319727891	203.44086167800452	54	127
203.2899319727891	203.44086167800452	66	127
203.2899319727891	203.44086167800452	78	127
203.2899319727891	203.44086167800452	50	127
203.4524716553288	203.5801814058957	81	127
203.4524716553288	203.5801814058957	64	127
203.4524716553288	203.5801814058957	52	127
203.4524716553288	203.5801814058957	49	127
203.59179138321994	203.73111111111112	78	127
203.59179138321994	203.73111111111112	66	127
203.59179138321994	203.73111111111112	54	127
203.59179138321994	203.73111111111112	50	127
203.73111111111112	203.8936507936508	74	127
203.73111111111112	203.8936507936508	67	127
203.73111111111112	203.8936507936508	55	127
203.73111111111112	203.8936507936508	52	127
203.90526077097505	204.09102040816327	69	127
203.90526077097505	204.09102040816327	57	127
203.90526077097505	204.09102040816327	54	127
203.90526077097505	204.27678004535147	72	127
204.10263038548752	205.19396825396825	62	127
204.10263038548752	205.19396825396825	59	127
204.10263038548752	205.19396825396825	55	127
204.28839002267574	204.4857596371882	70	127
204.49736961451248	204.6715192743764	72	127
204.6715192743764	204.8340589569161	71	127
204.84566893424036	205.00820861678005	81	127
205.01981859410432	205.19396825396825	79	127
205.19396825396825	206.66843537414965	67	127
205.19396825396825	206.66843537414965	49	127
205.19396825396825	206.66843537414965	57	127
205.41455782312926	205.5887074829932	69	127
205.5887074829932	205.75124716553287	76	127
205.76285714285714	205.97183673469388	75	127
205.98344671201815	206.15759637188208	78	127
206.15759637188208	206.32013605442177	76	127
206.33174603174604	206.66843537414965	76	127
206.66843537414965	207.0051247165533	50	127
206.66843537414965	207.0051247165533	62	127
206.66843537414965	207.0051247165533	59	127
206.66843537414965	207.6668934240363	67	127
207.0051247165533	207.36503401360545	59	127
207.0051247165533	207.36503401360545	50	127
207.0051247165533	207.36503401360545	62	127
207.36503401360545	207.6668934240363	62	127
207.36503401360545	207.6668934240363	59	127
207.36503401360545	207.6668934240363	50	127
207.67850340136056	207.95714285714286	71	127
207.67850340136056	207.95714285714286	67	127
207.67850340136056	207.95714285714286	62	127
207.67850340136056	208.05002267573695	50	127
208.06163265306122	208.34027210884355	69	127
208.06163265306122	208.34027210884355	66	127
208.06163265306122	208.34027210884355	60	127
208.06163265306122	208.44476190476192	50	127
208.44476190476192	208.9556009070295	66	127
208.44476190476192	208.9556009070295	69	127
208.44476190476192	208.9556009070295	60	127
208.44476190476192	208.9556009070295	51	127
208.9556009070295	209.06009070294783	66	127
208.9556009070295	209.06009070294783	69	127
208.9556009070295	209.06009070294783	62	127
208.9556009070295	209.06009070294783	50	127
209.08331065759637	209.199410430839	66	127
209.08331065759637	209.199410430839	69	127
209.08331065759637	209.199410430839	63	127
209.08331065759637	209.199410430839	48	127
209.25746031746033	209.35034013605443	66	127
209.25746031746033	209.35034013605443	69	127
209.25746031746033	209.35034013605443	62	127
209.25746031746033	209.35034013605443	50	127
209.39678004535148	209.87278911564627	66	127
209.39678004535148	209.87278911564627	69	127
209.39678004535148	209.87278911564627	60	127
209.39678004535148	209.87278911564627	51	127
209.87278911564627	210.00049886621315	66	127
209.87278911564627	210.00049886621315	69	127
209.87278911564627	210.00049886621315	62	127
209.87278911564627	210.00049886621315	50	127
210.0469387755102	210.15142857142857	66	127
210.0469387755102	210.15142857142857	69	127
210.0469387755102	210.15142857142857	63	127
210.0469387755102	210.15142857142857	48	127
210.18625850340135	210.302358276644	66	127
210.18625850340135	210.302358276644	69	127
210.18625850340135	210.302358276644	63	127
210.18625850340135	210.302358276644	48	127
210.34879818594104	210.8015873015873	67	127
210.34879818594104	210.8015873015873	70	127
210.34879818594104	210.8015873015873	64	127
210.34879818594104	210.8015873015873	73	127
210.8015873015873	210.90607709750566	67	127
210.8015873015873	210.90607709750566	70	127
210.8015873015873	210.90607709750566	62	127
210.8015873015873	210.90607709750566	74	127
210.9525170068027	211.0221768707483	67	127
210.9525170068027	211.0221768707483	70	127
210.9525170068027	211.0221768707483	61	127
210.9525170068027	211.0221768707483	76	127
211.08022675736962	211.19632653061225	67	127
211.08022675736962	211.19632653061225	70	127
211.08022675736962	211.19632653061225	62	127
211.08022675736962	211.19632653061225	74	127
211.2427664399093	211.7419954648526	67	127
211.2427664399093	211.7419954648526	70	127
211.2427664399093	211.7419954648526	64	127
211.2427664399093	211.7419954648526	73	127
211.7419954648526	211.86970521541951	62	127
211.7419954648526	211.86970521541951	70	127
211.7419954648526	211.86970521541951	74	127
211.7419954648526	211.86970521541951	67	127
211.91614512471656	212.02063492063493	67	127
211.91614512471656	212.02063492063493	70	127
211.91614512471656	212.02063492063493	61	127
211.91614512471656	212.02063492063493	76	127
212.04385487528344	212.17156462585035	76	127
212.04385487528344	212.17156462585035	67	127
212.04385487528344	212.17156462585035	70	127
212.04385487528344	212.17156462585035	61	127
212.22961451247164	212.94943310657595	69	127
212.22961451247164	212.94943310657595	66	127
212.22961451247164	212.94943310657595	60	127
212.22961451247164	212.94943310657595	76	127
212.94943310657595	213.27451247165533	69	127
212.94943310657595	213.27451247165533	72	127
212.94943310657595	213.27451247165533	42	127
212.94943310657595	213.63442176870748	74	127
213.2861224489796	213.63442176870748	67	127
213.2861224489796	213.63442176870748	43	127
213.2861224489796	213.63442176870748	71	127
213.64603174603175	213.98272108843537	66	127
213.64603174603175	213.98272108843537	69	127
213.64603174603175	213.98272108843537	72	127
213.64603174603175	213.98272108843537	45	127
213.98272108843537	214.319410430839	67	127
213.98272108843537	214.319410430839	71	127
213.98272108843537	214.319410430839	47	127
213.98272108843537	214.319410430839	62	127
214.319410430839	214.65609977324263	48	127
214.319410430839	214.48195011337867	71	127
214.319410430839	214.65609977324263	64	127
214.319410430839	214.65609977324263	60	127
214.49356009070294	214.65609977324263	69	127
214.6677097505669	215.00439909297052	59	127
214.6677097505669	215.00439909297052	62	127
214.6677097505669	215.00439909297052	67	127
214.6677097505669	215.00439909297052	50	127
215.01600907029479	215.36430839002267	61	127
215.01600907029479	215.36430839002267	57	127
215.01600907029479	215.36430839002267	67	127
215.01600907029479	215.36430839002267	52	127
215.37591836734694	216.03768707482993	62	127
215.37591836734694	216.03768707482993	59	127
215.37591836734694	216.03768707482993	67	127
215.37591836734694	216.46725623582768	50	127
216.0492970521542	216.46725623582768	66	127
216.0492970521542	216.46725623582768	60	127
216.0492970521542	216.46725623582768	57	127
216.47886621315192	217.03614512471654	69	127
216.47886621315192	217.03614512471654	66	127
216.47886621315192	217.03614512471654	60	127
216.47886621315192	217.03614512471654	51	127
217.03614512471654	217.1406349206349	69	127
217.03614512471654	217.1406349206349	66	127
217.03614512471654	217.1406349206349	62	127
217.03614512471654	217.1406349206349	50	127
217.17546485260772	217.29156462585033	69	127
217.17546485260772	217.29156462585033	66	127
217.17546485260772	217.29156462585033	63	127
217.17546485260772	217.29156462585033	48	127
217.3380045351474	217.44249433106575	69	127
217.3380045351474	217.44249433106575	66	127
217.3380045351474	217.44249433106575	63	127
217.3380045351474	217.44249433106575	48	127
217.47732426303855	217.91850340136054	69	127
217.47732426303855	217.91850340136054	66	127
217.47732426303855	217.91850340136054	63	127
217.47732426303855	217.91850340136054	47	127
217.9301133786848	218.0229931972789	69	127
217.9301133786848	218.0229931972789	66	127
217.9301133786848	218.0229931972789	63	127
217.9301133786848	218.0229931972789	47	127
218.06943310657596	218.19714285714286	67	127
218.06943310657596	218.19714285714286	64	127
218.06943310657596	218.19714285714286	64	127
218.06943310657596	218.19714285714286	47	127
218.2435827664399	218.3712925170068	79	127
218.2435827664399	218.3712925170068	76	127
218.2435827664399	218.3712925170068	62	127
218.2435827664399	218.3712925170068	46	127
218.44095238095238	218.82408163265305	79	127
218.44095238095238	218.82408163265305	76	127
218.44095238095238	218.82408163265305	61	127
218.44095238095238	218.82408163265305	45	127
218.82408163265305	218.9401814058957	79	127
218.82408163265305	218.9401814058957	76	127
218.82408163265305	218.9401814058957	61	127
218.82408163265305	218.9401814058957	45	127
218.98662131519274	219.10272108843537	77	127
218.98662131519274	219.10272108843537	74	127
218.98662131519274	219.10272108843537	62	127
218.98662131519274	219.10272108843537	45	127
219.1607709750567	219.28848072562357	89	127
219.1607709750567	219.28848072562357	74	127
219.1607709750567	219.28848072562357	60	127
219.1607709750567	219.28848072562357	44	127
219.33492063492062	219.79931972789115	74	127
219.33492063492062	219.79931972789115	89	127
219.33492063492062	219.79931972789115	59	127
219.33492063492062	219.79931972789115	43	127
219.79931972789115	219.91541950113378	89	127
219.79931972789115	219.91541950113378	74	127
219.79931972789115	219.91541950113378	59	127
219.79931972789115	219.91541950113378	43	127
219.95024943310656	220.0663492063492	88	127
219.95024943310656	220.0663492063492	72	127
219.95024943310656	220.0663492063492	64	127
219.95024943310656	220.0663492063492	36	127
220.08956916099774	220.2288888888889	91	127
220.08956916099774	220.2288888888889	79	127
220.08956916099774	220.2288888888889	70	127
220.08956916099774	220.2288888888889	64	127
220.08956916099774	220.2288888888889	36	127
220.2869387755102	220.53074829931973	62	127
220.2869387755102	220.61201814058956	79	127
220.2869387755102	220.61201814058956	71	127
220.2869387755102	220.61201814058956	38	127
220.2869387755102	221.1692970521542	91	127
220.62362811791382	222.16775510204081	62	127
220.62362811791382	220.96031746031747	62	127
220.9719274376417	221.30861678004536	74	127
221.1692970521542	222.88757369614513	89	127
221.32022675736962	221.49437641723355	76	127
221.49437641723355	221.65691609977324	74	127
221.6685260770975	221.81945578231293	72	127
221.81945578231293	221.99360544217686	71	127
221.99360544217686	222.16775510204081	69	127
222.17936507936508	223.22426303854874	62	127
222.17936507936508	223.22426303854874	68	127
222.88757369614513	223.92086167800454	88	127
223.235873015873	223.92086167800454	69	127
223.235873015873	223.92086167800454	61	127
223.9324716553288	224.32721088435375	87	127
223.9324716553288	224.32721088435375	60	127
223.9324716553288	224.32721088435375	66	127
224.32721088435375	224.50136054421768	86	127
224.32721088435375	225.000589569161	59	127
224.32721088435375	224.67551020408163	67	127
224.51297052154194	224.67551020408163	85	127
224.6871201814059	225.000589569161	38	127
224.6871201814059	224.82643990929705	84	127
224.82643990929705	225.000589569161	83	127
225.01219954648525	225.17473922902494	81	127
225.01219954648525	225.3488888888889	53	127
225.01219954648525	227.05555555555554	50	127
225.17473922902494	225.3488888888889	79	127
225.36049886621316	225.52303854875282	77	127
225.36049886621316	226.35895691609977	62	127
225.5346485260771	225.70879818594105	76	127
225.70879818594105	226.0338775510204	59	127
225.70879818594105	225.87133786848074	74	127
225.88294784580498	226.0338775510204	72	127
226.0338775510204	226.19641723356008	71	127
226.0338775510204	227.05555555555554	65	127
226.20802721088435	226.35895691609977	69	127
226.37056689342404	227.05555555555554	59	127
226.37056689342404	227.05555555555554	68	127
227.05555555555554	228.08884353741496	69	127
227.05555555555554	228.08884353741496	64	127
227.05555555555554	228.08884353741496	57	127
227.05555555555554	228.08884353741496	49	127
228.10045351473923	228.797052154195	66	127
228.10045351473923	228.797052154195	63	127
228.10045351473923	228.797052154195	57	127
228.10045351473923	228.797052154195	48	127
228.797052154195	229.44721088435375	67	127
228.797052154195	229.44721088435375	62	127
228.797052154195	229.44721088435375	55	127
228.797052154195	229.44721088435375	47	127
229.458820861678	230.0857596371882	65	127
229.458820861678	230.0857596371882	62	127
229.458820861678	230.0857596371882	56	127
229.458820861678	230.0857596371882	47	127
230.0857596371882	230.73591836734693	64	127
230.0857596371882	230.73591836734693	60	127
230.0857596371882	230.73591836734693	57	127
230.0857596371882	230.73591836734693	48	127
230.7475283446712	231.42090702947846	55	127
230.7475283446712	231.42090702947846	67	127
230.7475283446712	231.42090702947846	64	127
230.7475283446712	231.42090702947846	58	127
230.7475283446712	231.42090702947846	49	127
231.42090702947846	232.14072562358277	55	127
231.42090702947846	232.14072562358277	67	127
231.42090702947846	232.14072562358277	64	127
231.42090702947846	232.14072562358277	59	127
231.42090702947846	232.14072562358277	50	127
232.15233560090704	232.86054421768708	55	127
232.15233560090704	232.86054421768708	67	127
232.15233560090704	232.86054421768708	61	127
232.15233560090704	232.86054421768708	58	127
232.15233560090704	232.86054421768708	51	127
232.86054421768708	233.40621315192743	55	127
232.86054421768708	233.40621315192743	67	127
232.86054421768708	233.40621315192743	60	127
232.86054421768708	233.40621315192743	58	127
232.86054421768708	233.40621315192743	52	127
233.4178231292517	234.09120181405896	55	127
233.4178231292517	234.09120181405896	67	127
233.4178231292517	234.09120181405896	61	127
233.4178231292517	234.09120181405896	58	127
233.4178231292517	234.09120181405896	52	127
234.09120181405896	234.56721088435373	55	127
234.09120181405896	234.56721088435373	67	127
234.09120181405896	234.56721088435373	61	127
234.09120181405896	234.56721088435373	58	127
234.09120181405896	234.56721088435373	52	127
234.578820861678	235.28702947845804	70	127
234.578820861678	235.28702947845804	67	127
234.578820861678	235.28702947845804	61	127
234.578820861678	235.28702947845804	51	127
234.578820861678	235.28702947845804	55	127
235.28702947845804	235.91396825396825	55	127
235.28702947845804	235.91396825396825	70	127
235.28702947845804	235.91396825396825	67	127
235.28702947845804	235.91396825396825	61	127
235.28702947845804	235.91396825396825	51	127
235.92557823129252	236.38997732426304	55	127
235.92557823129252	236.38997732426304	70	127
235.92557823129252	236.38997732426304	67	127
235.92557823129252	236.38997732426304	61	127
235.92557823129252	236.38997732426304	51	127
236.4015873015873	237.00530612244899	74	127
236.4015873015873	237.00530612244899	67	127
236.4015873015873	237.00530612244899	71	127
236.4015873015873	237.00530612244899	62	127
236.4015873015873	237.00530612244899	50	127
237.01691609977325	237.67868480725625	74	127
237.01691609977325	237.67868480725625	67	127
237.01691609977325	237.67868480725625	71	127
237.01691609977325	237.67868480725625	62	127
237.01691609977325	237.67868480725625	50	127
237.6902947845805	238.39850340136056	74	127
237.6902947845805	238.39850340136056	67	127
237.6902947845805	238.39850340136056	71	127
237.6902947845805	238.39850340136056	62	127
237.6902947845805	238.39850340136056	50	127
238.39850340136056	239.0718820861678	74	127
238.39850340136056	239.0718820861678	86	127
238.39850340136056	239.0718820861678	72	127
238.39850340136056	239.0718820861678	78	127
238.39850340136056	239.0718820861678	62	127
238.39850340136056	239.0718820861678	69	127
238.39850340136056	239.0718820861678	38	127
239.08349206349206	239.61755102040817	74	127
239.08349206349206	239.61755102040817	86	127
239.08349206349206	239.61755102040817	72	127
239.08349206349206	239.61755102040817	78	127
239.08349206349206	239.61755102040817	62	127
239.08349206349206	239.61755102040817	69	127
239.08349206349206	239.61755102040817	38	127
239.6291609977324	240.0122902494331	62	127
239.6291609977324	240.0122902494331	74	127
239.6291609977324	240.0122902494331	86	127
239.6291609977324	240.0122902494331	72	127
239.6291609977324	240.0122902494331	78	127
239.6291609977324	240.0122902494331	69	127
239.6291609977324	240.0122902494331	38	127
240.02390022675738	240.1748299319728	59	127
240.02390022675738	240.1748299319728	43	127
240.02390022675738	240.18643990929706	86	127
240.18643990929706	240.29092970521543	83	127
240.18643990929706	240.33736961451248	62	127
240.18643990929706	240.33736961451248	38	127
240.33736961451248	240.44185941043085	79	127
240.33736961451248	240.47668934240363	59	127
240.33736961451248	240.47668934240363	43	127
240.47668934240363	240.581179138322	74	127
240.47668934240363	240.59278911564627	62	127
240.47668934240363	240.59278911564627	38	127
240.59278911564627	240.72049886621315	71	127
240.59278911564627	240.75532879818593	59	127
240.59278911564627	240.75532879818593	43	127
240.7669387755102	240.87142857142857	67	127
240.7669387755102	240.8946485260771	62	127
240.7669387755102	240.8946485260771	38	127
240.8946485260771	241.06879818594103	59	127
240.8946485260771	241.06879818594103	43	127
240.8946485260771	241.70734693877552	62	127
241.06879818594103	241.1500680272109	38	127
241.06879818594103	241.1500680272109	62	127
241.16167800453513	241.28938775510204	43	127
241.16167800453513	241.28938775510204	59	127
241.28938775510204	241.41709750566892	38	127
241.28938775510204	241.41709750566892	62	127
241.41709750566892	241.54480725623583	43	127
241.41709750566892	241.54480725623583	59	127
241.5564172335601	241.70734693877552	62	127
241.5564172335601	241.70734693877552	38	127
241.71895691609978	241.88149659863944	60	127
241.71895691609978	241.88149659863944	42	127
241.71895691609978	241.88149659863944	86	127
241.88149659863944	241.95115646258503	84	127
241.88149659863944	241.9859863945578	62	127
241.88149659863944	241.9859863945578	38	127
241.99759637188208	242.07886621315194	81	127
241.99759637188208	242.125306122449	60	127
241.99759637188208	242.125306122449	42	127
242.13691609977323	242.2181859410431	74	127
242.13691609977323	242.25301587301587	62	127
242.13691609977323	242.25301587301587	38	127
242.25301587301587	242.3691156462585	72	127
242.25301587301587	242.3691156462585	60	127
242.25301587301587	242.3691156462585	42	127
242.38072562358278	242.50843537414966	38	127
242.38072562358278	242.47360544217688	69	127
242.38072562358278	242.50843537414966	62	127
242.52004535147393	242.63614512471656	42	127
242.52004535147393	243.3095238095238	62	127
242.52004535147393	242.63614512471656	60	127
242.63614512471656	242.7754648526077	62	127
242.63614512471656	242.7754648526077	38	127
242.78707482993198	242.92639455782313	42	127
242.78707482993198	242.92639455782313	60	127
242.9380045351474	243.06571428571428	62	127
242.9380045351474	243.06571428571428	38	127
243.06571428571428	243.1934240362812	60	127
243.06571428571428	243.1934240362812	42	127
243.1934240362812	243.3095238095238	38	127
243.1934240362812	243.3095238095238	62	127
243.32113378684807	243.48367346938775	59	127
243.32113378684807	243.48367346938775	74	127
243.32113378684807	243.48367346938775	43	127
243.48367346938775	243.54172335600907	71	127
243.48367346938775	243.58816326530612	62	127
243.48367346938775	243.58816326530612	38	127
243.58816326530612	243.71587301587303	67	127
243.58816326530612	243.7507029478458	59	127
243.58816326530612	243.7507029478458	43	127
243.76231292517008	243.86680272108845	62	127
243.76231292517008	243.90163265306123	62	127
243.76231292517008	243.90163265306123	38	127
243.90163265306123	244.0061224489796	59	127
243.90163265306123	244.05256235827665	59	127
243.90163265306123	244.05256235827665	43	127
244.05256235827665	244.14544217687074	38	127
244.05256235827665	244.11061224489796	55	127
244.05256235827665	244.14544217687074	62	127
244.15705215419501	244.29637188208616	43	127
244.15705215419501	244.30798185941043	86	127
244.15705215419501	244.9117006802721	50	127
244.15705215419501	244.29637188208616	59	127
244.30798185941043	244.3428117913832	83	127
244.30798185941043	244.38925170068026	62	127
244.30798185941043	244.38925170068026	38	127
244.38925170068026	244.45891156462585	43	127
244.38925170068026	244.42408163265307	79	127
244.38925170068026	244.45891156462585	59	127
244.47052154195012	244.60984126984127	38	127
244.47052154195012	244.60984126984127	62	127
244.47052154195012	244.5750113378685	74	127
244.62145124716554	244.7607709750567	43	127
244.62145124716554	244.71433106575964	71	127
244.62145124716554	244.7607709750567	59	127
244.7607709750567	244.9117006802721	62	127
244.7607709750567	244.87687074829932	67	127
244.7607709750567	244.9117006802721	38	127
244.9117006802721	245.06263038548752	42	127
244.9117006802721	245.06263038548752	60	127
244.9117006802721	245.06263038548752	74	127
244.9117006802721	245.73600907029478	62	127
245.0742403628118	245.20195011337867	38	127
245.0742403628118	245.15551020408162	72	127
245.0742403628118	245.20195011337867	62	127
245.20195011337867	245.2948299319728	69	127
245.20195011337867	245.32965986394558	60	127
245.20195011337867	245.32965986394558	42	127
245.34126984126985	245.45736961451246	62	127
245.34126984126985	245.45736961451246	38	127
245.34126984126985	245.43414965986395	62	127
245.45736961451246	245.5502494331066	60	127
245.45736961451246	245.58507936507937	60	127
245.45736961451246	245.58507936507937	42	127
245.58507936507937	245.73600907029478	38	127
245.58507936507937	245.701179138322	57	127
245.58507936507937	245.73600907029478	62	127
245.74761904761905	245.84049886621315	60	127
245.74761904761905	245.84049886621315	42	127
245.74761904761905	245.84049886621315	86	127
245.74761904761905	246.52548752834468	50	127
245.84049886621315	245.9798185941043	62	127
245.84049886621315	245.9798185941043	38	127
245.84049886621315	245.93337868480725	84	127
245.9798185941043	246.06108843537416	81	127
245.9798185941043	246.0726984126984	60	127
245.9798185941043	246.0726984126984	42	127
246.08430839002267	246.2004081632653	62	127
246.08430839002267	246.15396825396826	74	127
246.08430839002267	246.2004081632653	38	127
246.21201814058958	246.362947845805	60	127
246.21201814058958	246.31650793650795	72	127
246.21201814058958	246.362947845805	42	127
246.362947845805	246.52548752834468	38	127
246.362947845805	246.52548752834468	62	127
246.362947845805	246.49065759637188	69	127
246.52548752834468	246.6764172335601	58	127
246.52548752834468	246.6764172335601	55	127
246.52548752834468	246.6764172335601	62	127
246.52548752834468	247.00149659863945	67	127
246.68802721088434	246.81573696145125	58	127
246.68802721088434	246.7692970521542	58	127
246.68802721088434	246.81573696145125	62	127
246.81573696145125	246.9318367346939	55	127
246.81573696145125	246.9318367346939	58	127
246.81573696145125	246.9318367346939	55	127
246.9318367346939	247.00149659863945	62	127
246.9318367346939	246.97827664399094	50	127
246.9318367346939	247.00149659863945	58	127
247.01310657596372	247.10598639455782	46	127
247.01310657596372	247.15242630385487	58	127
247.01310657596372	247.15242630385487	55	127
247.16403628117914	247.32657596371882	62	127
247.16403628117914	247.28013605442177	43	127
247.16403628117914	247.32657596371882	58	127
247.32657596371882	247.4310657596372	80	127
247.32657596371882	247.81419501133786	41	127
247.32657596371882	247.4310657596372	56	127
247.32657596371882	247.4310657596372	58	127
247.4310657596372	247.55877551020407	58	127
247.4310657596372	247.51233560090702	77	127
247.4310657596372	247.55877551020407	62	127
247.55877551020407	247.6516553287982	56	127
247.55877551020407	247.60521541950112	74	127
247.55877551020407	247.6516553287982	58	127
247.6516553287982	247.81419501133786	62	127
247.6516553287982	247.77936507936508	70	127
247.6516553287982	247.81419501133786	58	127
247.82580498866213	247.96512471655328	58	127
247.82580498866213	247.96512471655328	56	127
247.82580498866213	248.1160544217687	47	127
247.82580498866213	247.94190476190477	68	127
247.97673469387755	248.06961451247165	65	127
247.97673469387755	248.1160544217687	62	127
247.97673469387755	248.1160544217687	58	127
248.1160544217687	248.56884353741498	55	127
248.1160544217687	248.56884353741498	63	127
248.1160544217687	248.56884353741498	75	127
248.1160544217687	248.56884353741498	51	127
248.1160544217687	248.56884353741498	39	127
249.06807256235828	249.4047619047619	70	127
249.06807256235828	249.4047619047619	82	127
249.06807256235828	249.4047619047619	58	127
249.06807256235828	249.4047619047619	65	127
249.06807256235828	249.4047619047619	50	127
249.06807256235828	249.4047619047619	38	127
251.58743764172337	252.06344671201813	63	127
251.58743764172337	252.06344671201813	58	127
251.58743764172337	252.06344671201813	54	127
251.58743764172337	252.06344671201813	51	127
252.5510657596372	252.8297052154195	70	127
252.5510657596372	252.8297052154195	58	127
252.5510657596372	252.8297052154195	53	127
252.5510657596372	252.8297052154195	50	127
255.19814058956916	255.6857596371882	63	127
255.19814058956916	255.6857596371882	58	127
255.19814058956916	255.6857596371882	54	127
255.19814058956916	255.6857596371882	51	127
256.20820861678004	256.6726077097506	70	127
256.20820861678004	256.6726077097506	64	127
256.20820861678004	256.6726077097506	61	127
256.20820861678004	256.6726077097506	49	127
258.91333333333336	259.4938321995465	62	127
258.91333333333336	259.4938321995465	71	127
258.91333333333336	259.4938321995465	54	127
258.91333333333336	259.4938321995465	47	127
260.01628117913833	260.5619274376417	73	127
260.01628117913833	260.5619274376417	61	127
260.01628117913833	260.5619274376417	66	127
260.01628117913833	260.5619274376417	54	127
260.01628117913833	260.5619274376417	46	127
260.01628117913833	264.27714285714285	78	127
262.36149659863946	262.65174603174603	47	127
262.6633560090703	263.00004535147394	42	127
263.00004535147394	263.2902947845805	50	127
263.3019047619048	265.12467120181407	54	127
263.8591836734694	264.12621315192746	62	127
263.8591836734694	264.12621315192746	59	127
264.13782312925173	264.77637188208615	58	127
264.13782312925173	264.77637188208615	61	127
264.2887528344671	264.45126984126983	79	127
264.45126984126983	264.62544217687076	76	127
264.63705215419503	264.77637188208615	73	127
264.7879818594104	264.93891156462587	70	127
264.7879818594104	265.12467120181407	64	127
264.7879818594104	265.12467120181407	61	127
264.93891156462587	265.12467120181407	66	127
265.13628117913834	265.69356009070293	59	127
265.13628117913834	265.69356009070293	71	127
265.13628117913834	265.69356009070293	62	127
265.13628117913834	265.69356009070293	55	127
267.76013605442176	268.07360544217687	48	127
268.08521541950114	268.3754648526077	43	127
268.3754648526077	268.6424716553288	51	127
268.65410430839	270.6510204081633	55	127
269.30426303854875	269.61773242630386	60	127
269.30426303854875	269.7918820861678	79	127
269.30426303854875	269.61773242630386	63	127
269.62934240362813	270.2678911564626	62	127
269.62934240362813	270.2678911564626	59	127
269.80349206349206	269.9544217687075	80	127
269.9544217687075	270.11696145124716	77	127
270.12857142857143	270.2678911564626	74	127
270.2794784580499	270.4652607709751	71	127
270.2794784580499	270.6510204081633	65	127
270.2794784580499	270.6510204081633	62	127
270.4652607709751	270.6510204081633	67	127
270.66263038548755	271.8236281179138	72	127
270.66263038548755	274.2617006802721	60	127
270.66263038548755	272.4970068027211	56	127
270.66263038548755	279.82290249433106	63	127
271.53337868480725	274.2617006802721	56	127
271.8352380952381	272.1370975056689	68	127
272.1487074829932	272.4970068027211	75	127
272.4970068027211	272.83367346938775	44	127
272.4970068027211	273.56512471655327	80	127
272.84530612244896	273.1239455782313	39	127
273.1355555555556	273.4490022675737	48	127
273.4490022675737	274.5751700680272	51	127
273.57673469387754	273.73927437641726	75	127
273.7508616780045	273.9134240362812	72	127
273.9134240362812	274.06433106575963	68	127
274.06433106575963	274.11079365079365	63	127
274.1224036281179	274.2617006802721	60	127
274.27331065759637	277.8956462585034	58	127
274.27331065759637	277.8956462585034	55	127
274.27331065759637	274.5751700680272	63	127
274.5868027210884	274.83061224489796	61	127
274.5868027210884	274.74934240362813	53	127
274.7609523809524	274.9118820861678	49	127
274.9118820861678	275.0744217687075	46	127
274.9118820861678	275.15569160997734	61	127
275.0860090702948	275.23696145124717	43	127
275.24857142857144	275.52721088435374	41	127
275.24857142857144	275.52721088435374	73	127
275.52721088435374	275.7710204081633	39	127
275.52721088435374	275.8639002267574	70	127
275.8639002267574	276.1076870748299	39	127
275.8639002267574	276.18897959183676	79	127
276.200589569161	277.1642176870748	82	127
276.200589569161	276.52566893424034	46	127
276.5372789115646	276.78108843537416	39	127
276.78108843537416	277.0365079365079	49	127
277.0481179138322	278.19750566893424	51	127
277.1642176870748	277.3383446712018	79	127
277.3383446712018	277.47768707482993	73	127
277.4892970521542	277.6286167800454	70	127
277.64020408163265	277.79115646258504	67	127
277.79115646258504	277.8956462585034	63	127
277.9072562358277	278.19750566893424	61	127
277.9072562358277	279.82290249433106	60	127
277.9072562358277	279.82290249433106	56	127
278.19750566893424	278.36002267573696	60	127
278.19750566893424	278.4413151927438	60	127
278.37165532879817	278.51097505668935	56	127
278.5225850340136	278.7780045351474	60	127
278.5225850340136	278.6851247165533	51	127
278.6851247165533	278.85927437641726	48	127
278.87086167800453	279.19596371882085	72	127
278.87086167800453	279.19596371882085	46	127
279.19596371882085	279.4978231292517	68	127
279.19596371882085	279.4397732426304	44	127
279.50943310657595	280.05510204081634	75	127
279.50943310657595	279.7532426303855	44	127
279.82290249433106	280.05510204081634	56	127
279.82290249433106	280.05510204081634	60	127
279.82290249433106	280.05510204081634	44	127
280.05510204081634	280.22925170068027	42	127
280.05510204081634	280.2873015873016	56	127
280.05510204081634	280.2873015873016	72	127
280.05510204081634	280.2873015873016	51	127
280.2988888888889	280.49628117913835	42	127
280.2988888888889	280.8910204081633	78	127
280.2988888888889	280.8910204081633	63	127
280.2988888888889	280.8910204081633	60	127
280.58916099773245	280.8910204081633	42	127
280.90263038548756	281.1696598639456	60	127
280.90263038548756	281.0071201814059	78	127
280.90263038548756	281.08839002267575	41	127
280.90263038548756	281.1696598639456	57	127
281.0071201814059	281.1696598639456	75	127
281.18126984126985	281.30897959183676	72	127
281.18126984126985	281.3902494331066	41	127
281.18126984126985	281.4831292517007	66	127
281.18126984126985	281.4831292517007	63	127
281.32056689342403	281.4831292517007	70	127
281.4831292517007	281.7965986394558	60	127
281.4831292517007	281.72691609977323	69	127
281.4831292517007	281.72691609977323	41	127
281.4831292517007	281.7965986394558	63	127
281.80820861678006	282.04038548752834	41	127
281.80820861678006	281.95913832199545	78	127
281.80820861678006	282.12167800453517	60	127
281.80820861678006	282.12167800453517	57	127
281.95913832199545	282.12167800453517	75	127
282.13326530612244	282.31904761904764	41	127
282.13326530612244	282.249387755102	72	127
282.13326530612244	282.40031746031747	65	127
282.13326530612244	282.40031746031747	63	127
282.2609977324263	282.40031746031747	69	127
282.40031746031747	286.20839002267576	41	127
282.40031746031747	282.53963718820864	70	127
282.40031746031747	282.7021768707483	61	127
282.7137868480726	283.03886621315195	58	127
282.7137868480726	282.87632653061223	82	127
282.87632653061223	283.03886621315195	77	127
283.0504761904762	283.2942857142857	65	127
283.0504761904762	283.2130158730159	73	127
283.22462585034015	283.2942857142857	70	127
283.2942857142857	283.3987755102041	69	127
283.2942857142857	283.8747619047619	66	127
283.2942857142857	283.57290249433106	60	127
283.5845351473923	283.8747619047619	53	127
283.5845351473923	283.7122448979592	78	127
283.7122448979592	283.8747619047619	75	127
283.8747619047619	284.1185941043084	63	127
283.8747619047619	283.97925170068027	72	127
283.8747619047619	284.1185941043084	65	127
283.9908843537415	284.1185941043084	69	127
284.13020408163266	284.26952380952383	70	127
284.13020408163266	284.4320634920635	61	127
284.26952380952383	284.4320634920635	77	127
284.44367346938776	284.5945804988662	82	127
284.44367346938776	284.7107029478458	58	127
284.6062131519274	284.7107029478458	77	127
284.7107029478458	284.85002267573697	73	127
284.7107029478458	285.0009297052154	65	127
284.7107029478458	285.0009297052154	61	127
284.86163265306124	285.0009297052154	70	127
285.0125623582766	285.511768707483	66	127
285.0125623582766	285.2447619047619	60	127
285.0125623582766	285.1518820861678	69	127
285.1634920634921	285.2447619047619	75	127
285.2447619047619	285.4072789115646	78	127
285.2447619047619	285.511768707483	53	127
285.41891156462583	285.511768707483	75	127
285.5234013605442	285.89492063492065	65	127
285.5234013605442	285.89492063492065	63	127
285.5234013605442	285.6859410430839	72	127
285.6975510204082	285.89492063492065	69	127
285.9065306122449	286.20839002267576	70	127
285.9065306122449	286.20839002267576	61	127
286.22	286.7772789115646	70	127
286.22	286.7772789115646	73	127
286.440589569161	286.7772789115646	53	127
286.440589569161	286.7772789115646	41	127
286.7888888888889	287.34616780045354	73	127
286.7888888888889	287.34616780045354	70	127
287.02108843537417	287.34616780045354	53	127
287.02108843537417	287.34616780045354	41	127
287.3577551020408	287.89183673469387	73	127
287.3577551020408	287.89183673469387	70	127
287.543537414966	287.89183673469387	53	127
287.543537414966	287.89183673469387	41	127
287.89183673469387	288.4839229024943	73	127
287.89183673469387	288.4839229024943	70	127
288.15886621315195	288.4839229024943	53	127
288.15886621315195	288.4839229024943	41	127
288.4839229024943	288.9947619047619	73	127
288.4839229024943	288.9947619047619	70	127
288.65809523809526	288.9947619047619	53	127
288.65809523809526	288.9947619047619	41	127
288.9947619047619	289.57528344671204	73	127
288.9947619047619	289.57528344671204	70	127
289.2734240362812	289.57528344671204	54	127
289.2734240362812	289.57528344671204	42	127
289.57528344671204	290.07451247165534	73	127
289.57528344671204	290.07451247165534	70	127
289.76104308390023	290.07451247165534	54	127
289.76104308390023	290.07451247165534	42	127
290.0861224489796	290.6550113378685	73	127
290.0861224489796	290.6550113378685	70	127
290.3067120181406	290.6550113378685	54	127
290.3067120181406	290.6550113378685	42	127
290.66662131519274	291.29356009070295	73	127
290.66662131519274	291.29356009070295	70	127
290.98009070294785	291.29356009070295	54	127
290.98009070294785	291.29356009070295	42	127
291.29356009070295	291.82761904761907	73	127
291.29356009070295	291.82761904761907	70	127
291.51414965986396	291.82761904761907	54	127
291.51414965986396	291.82761904761907	42	127
291.83922902494334	292.33845804988664	73	127
291.83922902494334	292.33845804988664	70	127
292.01337868480726	292.33845804988664	54	127
292.01337868480726	292.33845804988664	42	127
292.3500680272109	292.89573696145123	73	127
292.3500680272109	292.89573696145123	70	127
292.5938775510204	292.89573696145123	67	127
292.5938775510204	292.89573696145123	54	127
292.9073469387755	293.3485260770975	73	127
292.9073469387755	293.3485260770975	76	127
292.9073469387755	293.3485260770975	70	127
292.9073469387755	293.3485260770975	67	127
293.0698866213152	293.3485260770975	54	127
293.3601360544218	293.9522448979592	73	127
293.3601360544218	293.9522448979592	76	127
293.3601360544218	293.9522448979592	70	127
293.3601360544218	293.9522448979592	67	127
293.6271655328798	293.9522448979592	54	127
293.9522448979592	294.42825396825396	73	127
293.9522448979592	294.42825396825396	76	127
293.9522448979592	294.42825396825396	70	127
293.9522448979592	294.42825396825396	67	127
294.0799546485261	294.42825396825396	54	127
294.4398639455782	295.0319727891156	73	127
294.4398639455782	295.0319727891156	82	127
294.4398639455782	295.0319727891156	79	127
294.4398639455782	295.0319727891156	64	127
294.69528344671204	295.0319727891156	54	127
295.0319727891156	295.56603174603174	73	127
295.0319727891156	295.56603174603174	82	127
295.0319727891156	295.56603174603174	79	127
295.0319727891156	295.56603174603174	64	127
295.2061224489796	295.56603174603174	54	127
295.577641723356	295.9027210884354	73	127
295.577641723356	295.9027210884354	82	127
295.577641723356	295.9027210884354	78	127
295.577641723356	295.9027210884354	64	127
295.9027210884354	296.2045804988662	78	127
295.9027210884354	296.04201814058956	83	127
295.9027210884354	296.04201814058956	74	127
295.9027210884354	299.23478458049885	54	127
296.2161904761905	296.3671201814059	83	127
296.2161904761905	296.50643990929706	59	127
296.3671201814059	296.50643990929706	78	127
296.50643990929706	296.6573469387755	74	127
296.50643990929706	296.7966893424036	66	127
296.6573469387755	296.7966893424036	71	127
296.7966893424036	297.09854875283446	61	127
296.7966893424036	297.36557823129255	67	127
296.7966893424036	296.94761904761907	70	127
297.09854875283446	297.36557823129255	54	127
297.09854875283446	297.23786848072564	79	127
297.23786848072564	297.36557823129255	76	127
297.36557823129255	297.6209977324263	66	127
297.36557823129255	297.6209977324263	64	127
297.36557823129255	297.4932879818594	73	127
297.4932879818594	297.6209977324263	70	127
297.6209977324263	297.7487074829932	71	127
297.6209977324263	297.86480725623585	62	127
297.7487074829932	297.8764172335601	78	127
297.8764172335601	298.14344671201815	59	127
297.8764172335601	297.9925170068027	83	127
297.9925170068027	298.1550566893424	78	127
298.1550566893424	298.2943537414966	74	127
298.1550566893424	298.445306122449	66	127
298.1550566893424	298.445306122449	62	127
298.2943537414966	298.45691609977325	71	127
298.45691609977325	298.7007029478458	61	127
298.45691609977325	298.92131519274375	67	127
298.45691609977325	298.5730158730159	70	127
298.5730158730159	298.7007029478458	76	127
298.7007029478458	298.7819954648526	79	127
298.7007029478458	298.92131519274375	54	127
298.7819954648526	298.92131519274375	76	127
298.92131519274375	299.23478458049885	64	127
298.92131519274375	299.08385487528346	73	127
298.92131519274375	299.23478458049885	66	127
299.08385487528346	299.23478458049885	70	127
299.2463945578231	299.55986394557823	71	127
299.2463945578231	299.55986394557823	66	127
299.2463945578231	299.55986394557823	62	127
299.2463945578231	299.55986394557823	54	127
299.5714739229025	300.17519274376417	74	127
299.5714739229025	300.17519274376417	71	127
299.87333333333333	300.17519274376417	66	127
299.87333333333333	300.17519274376417	54	127
300.17519274376417	300.7092517006803	74	127
300.17519274376417	300.7092517006803	71	127
300.3841723356009	300.7092517006803	66	127
300.3841723356009	300.7092517006803	54	127
300.72086167800455	301.3826303854875	71	127
300.72086167800455	301.3826303854875	74	127
301.04594104308393	301.3826303854875	66	127
301.04594104308393	301.3826303854875	54	127
301.3942403628118	301.84702947845807	74	127
301.3942403628118	301.84702947845807	71	127
301.54517006802723	301.84702947845807	66	127
301.54517006802723	301.84702947845807	54	127
301.84702947845807	302.41591836734693	74	127
301.84702947845807	302.41591836734693	71	127
302.13727891156464	302.41591836734693	66	127
302.13727891156464	302.41591836734693	54	127
302.41591836734693	302.5900453514739	71	127
302.41591836734693	302.91514739229024	74	127
302.60167800453513	302.91514739229024	72	127
302.60167800453513	302.91514739229024	69	127
302.60167800453513	302.91514739229024	54	127
302.9267573696145	303.5188662131519	74	127
302.9267573696145	303.5188662131519	72	127
302.9267573696145	303.5188662131519	69	127
303.1937641723356	303.5188662131519	54	127
303.5304761904762	304.08775510204083	74	127
303.5304761904762	304.08775510204083	72	127
303.5304761904762	304.08775510204083	69	127
303.76267573696146	304.08775510204083	54	127
304.08775510204083	304.66825396825396	74	127
304.08775510204083	304.66825396825396	72	127
304.08775510204083	304.66825396825396	69	127
304.3431746031746	304.66825396825396	54	127
304.66825396825396	305.2255328798186	74	127
304.66825396825396	305.2255328798186	72	127
304.66825396825396	305.2255328798186	69	127
304.90045351473924	305.2255328798186	54	127
305.2371428571429	305.67832199546484	74	127
305.2371428571429	305.67832199546484	72	127
305.2371428571429	305.67832199546484	69	127
305.39968253968254	305.67832199546484	54	127
305.6899319727891	305.93374149659866	72	127
305.6899319727891	305.93374149659866	69	127
305.6899319727891	306.2820408163265	74	127
305.9453514739229	306.2820408163265	71	127
305.9453514739229	306.2820408163265	67	127
305.9453514739229	306.2820408163265	53	127
306.2820408163265	306.88573696145124	74	127
306.2820408163265	306.88573696145124	71	127
306.2820408163265	306.88573696145124	67	127
306.56068027210887	306.88573696145124	53	127
306.89736961451246	307.38496598639455	71	127
306.89736961451246	307.38496598639455	74	127
306.89736961451246	307.38496598639455	67	127
307.0599092970522	307.38496598639455	53	127
307.3965759637188	307.5475283446712	67	127
307.3965759637188	307.8609977324263	74	127
307.3965759637188	307.8609977324263	71	127
307.5475283446712	307.8609977324263	65	127
307.5475283446712	307.8609977324263	62	127
307.5475283446712	307.8609977324263	67	127
307.5475283446712	307.8609977324263	50	127
307.8609977324263	308.4531065759637	77	127
307.8609977324263	308.4531065759637	67	127
307.8609977324263	308.4531065759637	71	127
307.8609977324263	308.4531065759637	62	127
307.8609977324263	308.4531065759637	65	127
308.11641723356007	308.4531065759637	50	127
308.4531065759637	308.84784580498865	65	127
308.4531065759637	308.84784580498865	67	127
308.4531065759637	308.84784580498865	77	127
308.4531065759637	308.84784580498865	71	127
308.4531065759637	308.84784580498865	62	127
308.62725623582764	308.84784580498865	50	127
308.8594557823129	309.52122448979594	67	127
308.8594557823129	309.52122448979594	65	127
308.8594557823129	309.52122448979594	77	127
308.8594557823129	309.19614512471657	71	127
308.8594557823129	309.52122448979594	62	127
309.19614512471657	309.52122448979594	47	127
309.19614512471657	309.52122448979594	74	127
309.5328117913832	310.05526077097505	62	127
309.5328117913832	310.05526077097505	67	127
309.5328117913832	310.05526077097505	77	127
309.5328117913832	310.05526077097505	74	127
309.5328117913832	310.05526077097505	65	127
309.8114739229025	310.05526077097505	47	127
310.05526077097505	310.6009523809524	67	127
310.05526077097505	310.6009523809524	77	127
310.05526077097505	310.6009523809524	74	127
310.05526077097505	310.6009523809524	62	127
310.05526077097505	310.6009523809524	65	127
310.29909297052154	310.6009523809524	47	127
310.6009523809524	310.7634693877551	67	127
310.6009523809524	310.7634693877551	74	127
310.6009523809524	310.7634693877551	62	127
310.6009523809524	310.7634693877551	65	127
310.6009523809524	311.1001814058957	77	127
310.7751020408163	311.1001814058957	55	127
310.7751020408163	311.1001814058957	59	127
310.7751020408163	311.1001814058957	62	127
310.7751020408163	311.1001814058957	43	127
311.11179138321995	311.6806575963719	55	127
311.11179138321995	311.6806575963719	83	127
311.11179138321995	311.6806575963719	77	127
311.11179138321995	311.6806575963719	62	127
311.3556009070295	311.6806575963719	43	127
311.6806575963719	312.34244897959184	83	127
311.6806575963719	312.34244897959184	77	127
311.6806575963719	312.34244897959184	55	127
311.6806575963719	312.34244897959184	62	127
312.02897959183673	312.34244897959184	43	127
312.3540589569161	312.5862585034014	55	127
312.3540589569161	312.5862585034014	83	127
312.3540589569161	312.5862585034014	77	127
312.3540589569161	312.5862585034014	62	127
312.5862585034014	313.15514739229025	48	127
312.5862585034014	313.15514739229025	36	127
312.5862585034014	313.15514739229025	60	127
312.5862585034014	312.74879818594104	84	127
312.5862585034014	312.74879818594104	76	127
312.7604081632653	312.8997278911565	83	127
312.7604081632653	312.8997278911565	74	127
312.8997278911565	312.9926077097506	84	127
312.8997278911565	312.9926077097506	76	127
313.00421768707486	313.15514739229025	79	127
313.00421768707486	313.15514739229025	88	127
313.1667573696145	313.2131746031746	86	127
313.1667573696145	313.2131746031746	77	127
313.2131746031746	313.2944671201814	84	127
313.2131746031746	313.2944671201814	76	127
313.3060770975057	313.4570068027211	83	127
313.3060770975057	313.7704761904762	43	127
313.3060770975057	313.4570068027211	74	127
313.3060770975057	313.6195464852608	55	127
313.3060770975057	313.6195464852608	67	127
313.46861678004535	313.6195464852608	84	127
313.46861678004535	313.6195464852608	76	127
313.6195464852608	313.7704761904762	83	127
313.6195464852608	313.7704761904762	74	127
313.78208616780046	313.9329931972789	76	127
313.78208616780046	313.9329931972789	81	127
313.78208616780046	313.9329931972789	72	127
313.9446258503401	314.06072562358275	74	127
313.9446258503401	314.06072562358275	79	127
313.9446258503401	314.06072562358275	71	127
314.06072562358275	314.0839455782313	76	127
314.06072562358275	314.0839455782313	81	127
314.06072562358275	314.0839455782313	72	127
314.09555555555556	314.1303854875284	79	127
314.09555555555556	314.1303854875284	71	127
314.09555555555556	314.1303854875284	74	127
314.14197278911564	314.2580952380952	77	127
314.14197278911564	314.2580952380952	69	127
314.14197278911564	314.2580952380952	72	127
314.2697052154195	314.3393424036281	76	127
314.2697052154195	314.3393424036281	67	127
314.2697052154195	314.3393424036281	71	127
314.3509750566893	314.4438321995465	69	127
314.3509750566893	314.4438321995465	77	127
314.3509750566893	314.4438321995465	72	127
314.4438321995465	314.5251247165533	76	127
314.4438321995465	314.5251247165533	67	127
314.4438321995465	314.5251247165533	71	127
314.5251247165533	314.6296145124717	74	127
314.5251247165533	314.6296145124717	65	127
314.5251247165533	314.6296145124717	69	127
314.6296145124717	314.7573015873016	64	127
314.6296145124717	314.7573015873016	72	127
314.6296145124717	314.7573015873016	67	127
314.7573015873016	314.8966439909297	69	127
314.7573015873016	314.8966439909297	74	127
314.7573015873016	314.8966439909297	65	127
314.8966439909297	315.0011337868481	72	127
314.8966439909297	315.0011337868481	64	127
314.8966439909297	315.0011337868481	67	127
315.0011337868481	315.1636507936508	71	127
315.0011337868481	315.1636507936508	62	127
315.0011337868481	315.1636507936508	65	127
315.1636507936508	315.27977324263037	60	127
315.1636507936508	315.27977324263037	69	127
315.1636507936508	315.27977324263037	64	127
315.27977324263037	315.4074829931973	65	127
315.27977324263037	315.4074829931973	71	127
315.27977324263037	315.4074829931973	62	127
315.4074829931973	315.77897959183673	60	127
315.4074829931973	315.54680272108845	60	127
315.4074829931973	315.54680272108845	64	127
315.4074829931973	315.77897959183673	72	127
315.54680272108845	315.63968253968255	59	127
315.54680272108845	315.63968253968255	62	127
315.6512925170068	315.77897959183673	64	127
315.6512925170068	315.77897959183673	60	127
315.79061224489794	315.9067120181406	67	127
315.79061224489794	315.9067120181406	64	127
315.91832199546485	315.9879818594104	62	127
315.91832199546485	315.9879818594104	65	127
315.9995918367347	316.13891156462586	64	127
315.9995918367347	316.13891156462586	60	127
316.1505215419501	316.23179138321996	62	127
316.1505215419501	316.23179138321996	59	127
316.1505215419501	316.4291609977324	79	127
316.1505215419501	316.4291609977324	67	127
316.23179138321996	316.32467120181406	60	127
316.23179138321996	316.32467120181406	64	127
316.3362811791383	316.4291609977324	65	127
316.3362811791383	316.4291609977324	62	127
316.4407709750567	316.5684807256236	64	127
316.4407709750567	316.5684807256236	60	127
316.58009070294787	316.7078004535147	62	127
316.58009070294787	316.7078004535147	59	127
316.7078004535147	316.8122902494331	60	127
316.7078004535147	316.8122902494331	64	127
316.82390022675736	316.91678004535146	59	127
316.82390022675736	316.91678004535146	62	127
316.9283900226757	317.04448979591837	57	127
316.9283900226757	317.04448979591837	60	127
317.05609977324264	317.18380952380954	59	127
317.05609977324264	317.18380952380954	55	127
317.18380952380954	317.27668934240364	57	127
317.18380952380954	317.27668934240364	60	127
317.27668934240364	317.4159863945578	59	127
317.27668934240364	317.4159863945578	55	127
317.4159863945578	317.5785487528345	57	127
317.4159863945578	317.5785487528345	53	127
317.5785487528345	317.7062585034014	55	127
317.5785487528345	317.7062585034014	52	127
317.7062585034014	317.83396825396824	53	127
317.7062585034014	317.83396825396824	57	127
317.83396825396824	317.9848979591837	55	127
317.83396825396824	317.9848979591837	52	127
317.9848979591837	318.0777777777778	50	127
317.9848979591837	318.0777777777778	53	127
318.0777777777778	318.2054875283447	52	127
318.0777777777778	318.2054875283447	48	127
318.0777777777778	318.263537414966	80	127
318.2054875283447	318.263537414966	47	127
318.2054875283447	318.263537414966	50	127
318.263537414966	318.40285714285716	81	127
318.263537414966	318.68149659863946	48	127
318.263537414966	318.68149659863946	45	127
318.263537414966	318.68149659863946	57	127
318.263537414966	318.40285714285716	72	127
318.4144671201814	318.53054421768707	80	127
318.4144671201814	318.53054421768707	71	127
318.5421768707483	318.68149659863946	72	127
318.5421768707483	318.68149659863946	81	127
318.6931065759637	318.82081632653063	76	127
318.6931065759637	318.82081632653063	84	127
318.8324263038549	318.91369614512473	83	127
318.8324263038549	318.91369614512473	74	127
318.91369614512473	318.94850340136054	81	127
318.91369614512473	318.94850340136054	72	127
318.96013605442175	319.1110657596372	71	127
318.96013605442175	319.35485260770974	52	127
318.96013605442175	319.1110657596372	80	127
318.96013605442175	319.22716553287984	64	127
319.1110657596372	319.22716553287984	81	127
319.1110657596372	319.22716553287984	72	127
319.2387755102041	319.35485260770974	71	127
319.2387755102041	319.35485260770974	80	127
319.36648526077096	319.5174149659864	69	127
319.36648526077096	319.5174149659864	77	127
319.36648526077096	319.5174149659864	72	127
319.5290249433107	319.67995464852606	68	127
319.5290249433107	319.67995464852606	76	127
319.5290249433107	319.67995464852606	71	127
319.69156462585033	319.76120181405895	69	127
319.69156462585033	319.76120181405895	77	127
319.69156462585033	319.76120181405895	72	127
319.77283446712016	319.8424943310658	76	127
319.77283446712016	319.8424943310658	67	127
319.77283446712016	319.8424943310658	71	127
319.8424943310658	319.9701814058957	74	127
319.8424943310658	319.9701814058957	65	127
319.8424943310658	319.9701814058957	69	127
319.9701814058957	320.08630385487527	72	127
319.9701814058957	320.08630385487527	64	127
319.9701814058957	320.08630385487527	67	127
320.08630385487527	320.1559637188209	65	127
320.08630385487527	320.1559637188209	74	127
320.08630385487527	320.1559637188209	69	127
320.1559637188209	320.3068934240363	67	127
320.1559637188209	320.3068934240363	72	127
320.1559637188209	320.3068934240363	64	127
320.3068934240363	320.3997732426304	71	127
320.3068934240363	320.3997732426304	62	127
320.3068934240363	320.3997732426304	65	127
320.3997732426304	320.4926530612245	60	127
320.3997732426304	320.4926530612245	69	127
320.3997732426304	320.4926530612245	64	127
320.4926530612245	320.63197278911565	65	127
320.4926530612245	320.63197278911565	62	127
320.4926530612245	320.63197278911565	71	127
320.63197278911565	320.7712925170068	64	127
320.63197278911565	320.7712925170068	69	127
320.63197278911565	320.7712925170068	60	127
320.7712925170068	320.8293424036281	68	127
320.7712925170068	320.8293424036281	59	127
320.7712925170068	320.8293424036281	62	127
320.8293424036281	320.98027210884356	60	127
320.8293424036281	320.98027210884356	66	127
320.8293424036281	320.98027210884356	57	127
320.98027210884356	321.1195918367347	62	127
320.98027210884356	321.1195918367347	68	127
320.98027210884356	321.1195918367347	59	127
321.1195918367347	321.47950113378687	57	127
321.1195918367347	321.1892290249433	57	127
321.1195918367347	321.1892290249433	60	127
321.1195918367347	321.47950113378687	69	127
321.2008616780045	321.3401814058957	59	127
321.2008616780045	321.3401814058957	56	127
321.35179138321996	321.47950113378687	60	127
321.35179138321996	321.47950113378687	57	127
321.49111111111114	321.6420408163265	64	127
321.49111111111114	321.6420408163265	60	127
321.6536507936508	321.7465306122449	62	127
321.6536507936508	321.7465306122449	59	127
321.75814058956917	321.8858503401361	60	127
321.75814058956917	321.8858503401361	57	127
321.89746031746034	322.04839002267573	59	127
321.89746031746034	322.280589569161	64	127
321.89746031746034	322.280589569161	76	127
321.89746031746034	322.04839002267573	56	127
322.06	322.17609977324264	60	127
322.06	322.17609977324264	57	127
322.1877097505669	322.280589569161	59	127
322.1877097505669	322.280589569161	56	127
322.280589569161	322.32702947845803	57	127
322.280589569161	322.32702947845803	53	127
322.32702947845803	322.4082993197279	56	127
322.32702947845803	322.4082993197279	52	127
322.4082993197279	322.5127891156463	57	127
322.4082993197279	322.5127891156463	53	127
322.5127891156463	322.61727891156465	55	127
322.5127891156463	322.61727891156465	52	127
322.61727891156465	322.76820861678004	53	127
322.61727891156465	322.76820861678004	50	127
322.76820861678004	322.9075283446712	52	127
322.76820861678004	322.9075283446712	48	127
322.9075283446712	323.0584580498866	53	127
322.9075283446712	323.0584580498866	50	127
323.0584580498866	323.1281179138322	48	127
323.0584580498866	323.1281179138322	52	127
323.1281179138322	323.2209977324263	50	127
323.1281179138322	323.2209977324263	47	127
323.2209977324263	323.3719274376417	48	127
323.2209977324263	323.3719274376417	45	127
323.3719274376417	323.4764172335601	50	127
323.3719274376417	323.4764172335601	47	127
323.4764172335601	323.604126984127	52	127
323.4764172335601	323.604126984127	48	127
323.61573696145126	323.72022675736963	47	127
323.61573696145126	323.72022675736963	50	127
323.7318367346939	323.89437641723356	48	127
323.7318367346939	323.89437641723356	45	127
323.89437641723356	324.0685260770975	50	127
323.89437641723356	324.0685260770975	47	127
324.0685260770975	327.400589569161	45	127
324.0685260770975	324.9160544217687	48	127
324.44004535147394	324.57936507936506	69	127
324.59097505668933	324.9160544217687	64	127
324.59097505668933	324.75351473922905	72	127
324.75351473922905	324.9160544217687	69	127
324.9160544217687	325.9261224489796	68	127
324.9160544217687	325.28755102040816	65	127
324.9160544217687	325.4501133786848	50	127
325.28755102040816	325.4501133786848	59	127
325.4617233560091	325.78680272108846	53	127
325.4617233560091	325.62426303854875	62	127
325.635873015873	325.78680272108846	60	127
325.78680272108846	326.4021088435374	52	127
325.78680272108846	326.4021088435374	60	127
325.9261224489796	326.0886621315193	69	127
326.10024943310657	326.2628117913832	71	127
326.2744217687075	326.4021088435374	69	127
326.4021088435374	326.48340136054424	72	127
326.4021088435374	326.61108843537414	64	127
326.4021088435374	326.61108843537414	48	127
326.48340136054424	326.61108843537414	69	127
326.61108843537414	326.959410430839	65	127
326.61108843537414	327.0871201814059	50	127
326.61108843537414	327.400589569161	68	127
326.959410430839	327.0871201814059	59	127
327.0871201814059	327.2380498866213	53	127
327.0871201814059	327.2380498866213	62	127
327.24965986394557	327.400589569161	60	127
327.24965986394557	327.400589569161	52	127
327.4121995464853	327.8649886621315	52	127
327.4121995464853	327.53990929705213	69	127
327.4121995464853	327.8649886621315	60	127
327.4121995464853	327.8649886621315	45	127
327.53990929705213	327.5515192743764	68	127
327.5515192743764	327.6908390022676	69	127
327.70244897959185	327.8649886621315	71	127
327.8649886621315	328.0043083900227	72	127
328.01591836734696	328.1552380952381	64	127
328.16684807256235	328.45707482993197	57	127
328.16684807256235	328.3061678004535	65	127
328.16684807256235	328.45707482993197	62	127
328.16684807256235	328.7125170068027	38	127
328.3061678004535	328.45707482993197	67	127
328.4687074829932	328.57319727891155	69	127
328.5848072562358	328.7125170068027	61	127
328.7125170068027	328.88666666666666	62	127
328.88666666666666	329.0492063492064	64	127
329.06079365079364	329.21174603174603	65	127
329.2233560090703	329.38589569160996	69	127
329.2233560090703	329.38589569160996	57	127
329.38589569160996	329.52521541950114	58	127
329.38589569160996	329.5368253968254	70	127
329.5368253968254	329.71097505668934	72	127
329.5368253968254	329.69936507936507	60	127
329.71097505668934	329.79224489795916	62	127
329.71097505668934	329.79224489795916	74	127
329.79224489795916	329.93156462585034	53	127
329.79224489795916	329.9431746031746	65	127
329.9431746031746	329.9895918367347	55	127
329.9431746031746	329.9895918367347	67	127
329.9895918367347	330.1405442176871	69	127
329.9895918367347	330.1405442176871	57	127
330.1405442176871	330.30308390022674	70	127
330.1405442176871	330.2914512471655	58	127
330.30308390022674	330.46562358276645	72	127
330.30308390022674	330.4540136054422	60	127
330.46562358276645	330.61655328798184	62	127
330.46562358276645	330.61655328798184	74	127
330.61655328798184	330.6629931972789	63	127
330.61655328798184	330.6629931972789	75	127
330.6629931972789	330.8255328798186	65	127
330.6629931972789	330.83714285714285	77	127
330.83714285714285	330.9880725623583	64	127
330.83714285714285	330.9880725623583	76	127
330.9880725623583	331.1390022675737	67	127
330.9880725623583	331.15061224489796	79	127
331.15061224489796	331.3247619047619	77	127
331.15061224489796	331.3131292517007	65	127
331.3247619047619	331.41761904761904	63	127
331.3247619047619	331.41761904761904	75	127
331.41761904761904	331.5221088435374	74	127
331.41761904761904	331.51052154195014	62	127
331.5221088435374	331.64984126984126	60	127
331.5221088435374	331.66145124716553	72	127
331.66145124716553	331.82396825396825	70	127
331.66145124716553	331.82396825396825	58	127
331.82396825396825	331.91687074829935	69	127
331.82396825396825	331.91687074829935	57	127
331.91687074829935	332.05619047619047	70	127
331.91687074829935	332.0445804988662	58	127
332.05619047619047	332.2187301587302	62	127
332.05619047619047	332.23031746031745	74	127
332.23031746031745	332.3928798185941	65	127
332.23031746031745	332.3928798185941	77	127
332.3928798185941	332.6250793650794	77	127
332.3928798185941	332.6250793650794	65	127
332.63668934240366	332.961768707483	66	127
332.63668934240366	333.60031746031746	69	127
332.63668934240366	332.961768707483	50	127
332.63668934240366	333.60031746031746	60	127
332.97337868480724	333.28684807256235	50	127
332.97337868480724	333.28684807256235	66	127
333.28684807256235	333.60031746031746	52	127
333.28684807256235	333.60031746031746	64	127
333.6119274376417	333.9950566893424	69	127
333.6119274376417	333.9950566893424	64	127
333.6119274376417	333.9950566893424	52	127
333.6119274376417	333.9950566893424	72	127
333.9950566893424	334.3433560090703	68	127
333.9950566893424	334.3433560090703	71	127
333.9950566893424	334.3433560090703	64	127
333.9950566893424	334.3433560090703	52	127
334.3433560090703	335.1212244897959	69	127
334.3433560090703	334.9354648526077	57	127
334.3433560090703	335.1212244897959	64	127
334.3433560090703	335.50433106575963	72	127
334.95868480725625	335.1212244897959	57	127
335.1328344671202	335.50433106575963	66	127
335.1328344671202	335.30696145124716	60	127
335.1328344671202	335.50433106575963	63	127
335.30696145124716	335.50433106575963	57	127
335.51596371882084	336.78145124716553	56	127
335.51596371882084	336.22414965986394	65	127
335.51596371882084	336.58408163265307	71	127
335.51596371882084	336.58408163265307	62	127
336.22414965986394	336.58408163265307	64	127
336.59569160997734	338.1978684807256	72	127
336.59569160997734	337.42	64	127
336.59569160997734	337.42	60	127
336.78145124716553	336.978820861678	57	127
336.9904308390023	337.1645804988662	59	127
337.17619047619047	337.42	57	127
337.4316099773243	337.6057596371882	60	127
337.4316099773243	337.84956916099776	66	127
337.4316099773243	337.84956916099776	63	127
337.6173696145125	337.84956916099776	57	127
337.84956916099776	339.09183673469386	62	127
337.84956916099776	338.743537414966	65	127
337.84956916099776	339.2775963718821	56	127
338.2094784580499	338.3836281179138	71	127
338.3952380952381	338.56936507936507	72	127
338.56936507936507	338.743537414966	71	127
338.75514739229027	339.09183673469386	64	127
338.75514739229027	338.9292970521542	74	127
338.9292970521542	339.09183673469386	71	127
339.1034467120181	339.85809523809525	72	127
339.1034467120181	339.85809523809525	64	127
339.1034467120181	339.85809523809525	60	127
339.2891836734694	339.4981632653061	56	127
339.4981632653061	339.6839455782313	57	127
339.6955328798186	339.85809523809525	59	127
339.8697052154195	340.0322448979592	60	127
340.04385487528344	340.20637188208616	52	127
340.2180045351474	340.3805442176871	53	127
340.3805442176871	340.54308390022675	55	127
340.54308390022675	340.6591836734694	57	127
340.67079365079366	340.8333333333333	49	127
340.67079365079366	340.8333333333333	61	127
340.8449433106576	340.9726530612245	62	127
340.8449433106576	340.9726530612245	50	127
340.9726530612245	341.11197278911567	52	127
340.9726530612245	341.11197278911567	64	127
341.11197278911567	341.18163265306123	65	127
341.11197278911567	341.18163265306123	53	127
341.1932426303855	341.3325396825397	45	127
341.1932426303855	341.3325396825397	57	127
341.3441723356009	341.44866213151926	58	127
341.3441723356009	341.44866213151926	46	127
341.4602721088435	341.611201814059	60	127
341.4602721088435	341.611201814059	48	127
341.62281179138324	341.76213151927436	62	127
341.62281179138324	341.76213151927436	50	127
341.76213151927436	341.86662131519273	65	127
341.76213151927436	341.86662131519273	53	127
341.76213151927436	341.86662131519273	41	127
341.86662131519273	341.99433106575964	43	127
341.86662131519273	341.99433106575964	67	127
341.86662131519273	341.99433106575964	55	127
341.99433106575964	342.1452607709751	69	127
341.99433106575964	342.1452607709751	57	127
341.99433106575964	342.1452607709751	45	127
342.1452607709751	342.2845804988662	70	127
342.1452607709751	342.2845804988662	58	127
342.1452607709751	342.2845804988662	46	127
342.2845804988662	342.4471201814059	77	127
342.2845804988662	342.4471201814059	65	127
342.2845804988662	342.4471201814059	53	127
342.2845804988662	342.4471201814059	41	127
342.4471201814059	342.54	67	127
342.4471201814059	342.54	79	127
342.4471201814059	342.54	55	127
342.4471201814059	342.54	43	127
342.54	342.6676870748299	69	127
342.54	342.6676870748299	81	127
342.54	342.6676870748299	57	127
342.54	342.6676870748299	45	127
342.6676870748299	342.8186394557823	70	127
342.6676870748299	342.8186394557823	82	127
342.6676870748299	342.8186394557823	58	127
342.6676870748299	342.8186394557823	46	127
342.8186394557823	342.96954648526076	77	127
342.8186394557823	342.96954648526076	65	127
342.8186394557823	342.96954648526076	53	127
342.8186394557823	342.96954648526076	41	127
342.96954648526076	343.06244897959186	67	127
342.96954648526076	343.06244897959186	79	127
342.96954648526076	343.06244897959186	55	127
342.96954648526076	343.06244897959186	43	127
343.06244897959186	343.1901587301587	69	127
343.06244897959186	343.1901587301587	81	127
343.06244897959186	343.1901587301587	57	127
343.06244897959186	343.1901587301587	45	127
343.201768707483	343.3294784580499	70	127
343.201768707483	343.3294784580499	82	127
343.201768707483	343.3294784580499	58	127
343.201768707483	343.3294784580499	46	127
343.34108843537416	343.44557823129253	77	127
343.34108843537416	343.44557823129253	65	127
343.34108843537416	343.44557823129253	53	127
343.34108843537416	343.44557823129253	41	127
343.4571882086168	343.5848752834467	67	127
343.4571882086168	343.5848752834467	79	127
343.4571882086168	343.5848752834467	55	127
343.4571882086168	343.5848752834467	43	127
343.5965079365079	343.7242176870748	69	127
343.5965079365079	343.7242176870748	81	127
343.5965079365079	343.7242176870748	57	127
343.5965079365079	343.7242176870748	45	127
343.7358276643991	343.8287074829932	70	127
343.7358276643991	343.8287074829932	82	127
343.7358276643991	343.8287074829932	58	127
343.7358276643991	343.8287074829932	46	127
343.84031746031746	343.9680272108844	77	127
343.84031746031746	343.9680272108844	65	127
343.84031746031746	343.9680272108844	53	127
343.84031746031746	343.9680272108844	41	127
343.97963718820864	344.13056689342403	67	127
343.97963718820864	344.13056689342403	79	127
343.97963718820864	344.13056689342403	55	127
343.97963718820864	344.13056689342403	43	127
344.1421768707483	344.25827664399094	69	127
344.1421768707483	344.25827664399094	81	127
344.1421768707483	344.25827664399094	57	127
344.1421768707483	344.25827664399094	45	127
344.2698866213152	344.40920634920633	70	127
344.2698866213152	344.40920634920633	82	127
344.2698866213152	344.40920634920633	58	127
344.2698866213152	344.40920634920633	46	127
344.4208163265306	344.5485260770975	77	127
344.4208163265306	344.5485260770975	65	127
344.4208163265306	344.5485260770975	53	127
344.4208163265306	344.5485260770975	41	127
344.5601360544218	344.66462585034014	67	127
344.5601360544218	344.66462585034014	79	127
344.5601360544218	344.66462585034014	55	127
344.5601360544218	344.66462585034014	43	127
344.6762358276644	344.79233560090705	81	127
344.6762358276644	344.79233560090705	57	127
344.6762358276644	344.79233560090705	69	127
344.6762358276644	344.79233560090705	45	127
344.79233560090705	344.94326530612244	70	127
344.79233560090705	344.94326530612244	82	127
344.79233560090705	344.94326530612244	58	127
344.79233560090705	344.94326530612244	46	127
344.94326530612244	345.0825850340136	77	127
344.94326530612244	345.0825850340136	65	127
344.94326530612244	345.0825850340136	53	127
344.94326530612244	345.0825850340136	41	127
345.0825850340136	345.233514739229	67	127
345.0825850340136	345.233514739229	79	127
345.0825850340136	345.233514739229	55	127
345.0825850340136	345.233514739229	43	127
345.233514739229	345.3147619047619	69	127
345.233514739229	345.3147619047619	81	127
345.233514739229	345.3147619047619	57	127
345.233514739229	345.3147619047619	45	127
345.3147619047619	345.47732426303855	70	127
345.3147619047619	345.47732426303855	82	127
345.3147619047619	345.47732426303855	58	127
345.3147619047619	345.47732426303855	46	127
345.47732426303855	345.5934240362812	77	127
345.47732426303855	345.5934240362812	65	127
345.47732426303855	345.5934240362812	53	127
345.47732426303855	345.5934240362812	41	127
345.5934240362812	345.73272108843537	67	127
345.5934240362812	345.73272108843537	79	127
345.5934240362812	345.73272108843537	55	127
345.5934240362812	345.73272108843537	43	127
345.73272108843537	345.8720634920635	69	127
345.73272108843537	345.8720634920635	81	127
345.73272108843537	345.8720634920635	57	127
345.73272108843537	345.8720634920635	45	127
345.8720634920635	345.97655328798186	58	127
345.8720634920635	345.97655328798186	70	127
345.8720634920635	345.97655328798186	46	127
345.8720634920635	346.777641723356	82	127
346.01138321995467	346.10426303854877	46	127
346.01138321995467	346.10426303854877	62	127
346.01138321995467	346.10426303854877	53	127
346.1507029478458	346.2668027210884	46	127
346.1507029478458	346.2668027210884	53	127
346.1507029478458	346.2668027210884	62	127
346.2668027210884	346.3596825396825	53	127
346.2668027210884	346.3596825396825	62	127
346.2668027210884	346.3596825396825	46	127
346.3712925170068	346.42934240362814	53	127
346.3712925170068	346.42934240362814	62	127
346.3712925170068	346.42934240362814	46	127
346.47578231292516	346.5918820861678	46	127
346.47578231292516	346.5918820861678	53	127
346.47578231292516	346.5918820861678	62	127
346.6383219954649	346.7543990929705	62	127
346.6383219954649	346.7543990929705	53	127
346.6383219954649	346.7543990929705	46	127
346.80086167800454	346.9169614512472	62	127
346.80086167800454	346.8588888888889	56	127
346.80086167800454	346.9169614512472	53	127
346.80086167800454	346.9169614512472	46	127
346.8588888888889	346.9053514739229	58	127
346.9053514739229	346.96337868480725	56	127
346.96337868480725	347.06789115646257	55	127
346.96337868480725	347.11433106575964	62	127
346.96337868480725	347.11433106575964	53	127
346.96337868480725	347.11433106575964	46	127
347.06789115646257	347.1607482993197	56	127
347.17238095238093	347.3233106575964	55	127
347.17238095238093	348.6700680272109	74	127
347.17238095238093	347.8109297052154	47	127
347.17238095238093	348.6700680272109	77	127
347.33492063492065	347.4742176870748	59	127
347.48585034013604	347.64839002267576	62	127
347.64839002267576	347.8109297052154	59	127
347.8109297052154	347.97344671201813	67	127
347.97344671201813	348.1360090702948	62	127
348.1360090702948	348.29854875283445	71	127
348.29854875283445	348.4030385487528	67	127
348.4030385487528	348.5307482993197	74	127
348.5307482993197	348.6352380952381	71	127
348.6816780045352	348.83260770975056	43	127
348.6816780045352	348.73972789115646	66	127
348.6816780045352	348.73972789115646	62	127
348.6816780045352	348.7977551020408	79	127
348.73972789115646	348.7977551020408	64	127
348.73972789115646	348.7977551020408	67	127
348.7977551020408	348.83260770975056	66	127
348.7977551020408	348.83260770975056	62	127
348.83260770975056	348.93709750566893	79	127
348.83260770975056	348.9022448979592	60	127
348.83260770975056	348.983537414966	43	127
348.83260770975056	348.9022448979592	64	127
348.9022448979592	348.983537414966	66	127
348.9022448979592	348.983537414966	62	127
348.983537414966	349.0764172335601	60	127
348.983537414966	349.0764172335601	64	127
348.983537414966	349.0764172335601	36	127
348.983537414966	350.15614512471655	84	127
349.1344671201814	349.2273469387755	52	127
349.1344671201814	349.2273469387755	48	127
349.1344671201814	349.2273469387755	64	127
349.1344671201814	349.2273469387755	55	127
349.28539682539684	349.3666666666667	52	127
349.28539682539684	349.3666666666667	48	127
349.28539682539684	349.3666666666667	64	127
349.28539682539684	349.3666666666667	55	127
349.41308390022675	349.50598639455785	55	127
349.41308390022675	349.50598639455785	48	127
349.41308390022675	349.50598639455785	64	127
349.41308390022675	349.50598639455785	52	127
349.50598639455785	349.62208616780043	64	127
349.50598639455785	349.62208616780043	48	127
349.50598639455785	349.62208616780043	52	127
349.50598639455785	349.62208616780043	55	127
349.6336961451247	349.6801360544218	64	127
349.6336961451247	349.6801360544218	52	127
349.6336961451247	349.6801360544218	55	127
349.6336961451247	349.6801360544218	48	127
349.6801360544218	349.7730158730159	48	127
349.6801360544218	349.7730158730159	55	127
349.6801360544218	349.7730158730159	64	127
349.6801360544218	349.7730158730159	52	127
349.8078458049887	349.83106575963717	64	127
349.8078458049887	349.83106575963717	48	127
349.8078458049887	349.83106575963717	52	127
349.8078458049887	349.83106575963717	55	127
349.87750566893425	349.9819954648526	64	127
349.87750566893425	349.9819954648526	55	127
349.87750566893425	349.9819954648526	52	127
349.87750566893425	349.9819954648526	48	127
350.0284126984127	350.13290249433106	55	127
350.0284126984127	350.13290249433106	52	127
350.0284126984127	350.13290249433106	48	127
350.0284126984127	350.13290249433106	64	127
350.1793650793651	350.2954648526077	55	127
350.1793650793651	350.2954648526077	64	127
350.1793650793651	350.2954648526077	52	127
350.1793650793651	350.2374149659864	58	127
350.1793650793651	350.2954648526077	48	127
350.2374149659864	350.28385487528345	60	127
350.28385487528345	350.31868480725626	58	127
350.31868480725626	350.41156462585036	64	127
350.31868480725626	350.41156462585036	48	127
350.31868480725626	350.37673469387755	57	127
350.31868480725626	350.41156462585036	52	127
350.31868480725626	350.41156462585036	55	127
350.37673469387755	350.4463945578231	58	127
350.4580045351474	350.59732426303856	57	127
350.4580045351474	351.6654195011338	76	127
350.4580045351474	351.0733333333333	49	127
350.4580045351474	351.6654195011338	79	127
350.6089342403628	350.74825396825395	61	127
350.74825396825395	350.91079365079366	64	127
350.91079365079366	351.0733333333333	61	127
351.0733333333333	351.22426303854877	69	127
351.22426303854877	351.32875283446714	64	127
351.32875283446714	351.3984126984127	69	127
351.3984126984127	351.54934240362815	76	127
351.54934240362815	351.6538095238095	73	127
351.677052154195	351.73510204081634	64	127
351.677052154195	351.79315192743763	81	127
351.677052154195	351.8395918367347	45	127
351.677052154195	351.73510204081634	67	127
351.73510204081634	351.79315192743763	69	127
351.73510204081634	351.79315192743763	65	127
351.79315192743763	351.8395918367347	67	127
351.79315192743763	351.8395918367347	64	127
351.8395918367347	351.9905215419501	45	127
351.8395918367347	351.92086167800454	65	127
351.8395918367347	351.92086167800454	62	127
351.8395918367347	351.9440816326531	81	127
351.92086167800454	351.9905215419501	67	127
351.92086167800454	351.9905215419501	64	127
352.00213151927437	352.10662131519274	62	127
352.00213151927437	353.3024489795918	86	127
352.00213151927437	352.10662131519274	65	127
352.00213151927437	352.10662131519274	38	127
352.1530612244898	352.2459410430839	50	127
352.1530612244898	352.2459410430839	57	127
352.1530612244898	352.2459410430839	53	127
352.1530612244898	352.2459410430839	65	127
352.2575510204082	352.32721088435375	50	127
352.2575510204082	352.32721088435375	65	127
352.2575510204082	352.32721088435375	53	127
352.2575510204082	352.32721088435375	57	127
352.36204081632656	352.4665306122449	53	127
352.36204081632656	352.4665306122449	57	127
352.36204081632656	352.4665306122449	65	127
352.36204081632656	352.4665306122449	50	127
352.4781179138322	352.5942403628118	53	127
352.4781179138322	352.5942403628118	57	127
352.4781179138322	352.5942403628118	65	127
352.4781179138322	352.5942403628118	50	127
352.6290702947846	352.7451700680272	53	127
352.6290702947846	352.7451700680272	57	127
352.6290702947846	352.7451700680272	65	127
352.6290702947846	352.7451700680272	50	127
352.79160997732424	352.9077097505669	53	127
352.79160997732424	352.9077097505669	57	127
352.79160997732424	352.9077097505669	50	127
352.79160997732424	352.9077097505669	65	127
352.9425396825397	353.0354195011338	53	127
352.9425396825397	353.0354195011338	57	127
352.9425396825397	353.0354195011338	65	127
352.9425396825397	353.0354195011338	50	127
353.0354195011338	353.1282993197279	53	127
353.0354195011338	353.1282993197279	57	127
353.0354195011338	353.1282993197279	65	127
353.0354195011338	353.1282993197279	50	127
353.1631292517007	353.27922902494333	65	127
353.1631292517007	353.27922902494333	53	127
353.1631292517007	353.27922902494333	50	127
353.1631292517007	353.27922902494333	57	127
353.32566893424035	353.3837188208617	60	127
353.32566893424035	353.441768707483	65	127
353.32566893424035	353.441768707483	53	127
353.32566893424035	353.441768707483	57	127
353.32566893424035	353.441768707483	50	127
353.3837188208617	353.4301587301587	62	127
353.4301587301587	353.48820861678007	60	127
353.48820861678007	353.55786848072563	59	127
353.48820861678007	353.59269841269844	65	127
353.48820861678007	353.59269841269844	53	127
353.48820861678007	353.59269841269844	50	127
353.48820861678007	353.59269841269844	57	127
353.55786848072563	353.6275283446712	60	127
353.63913832199546	354.8233333333333	81	127
353.63913832199546	354.2660770975057	51	127
353.63913832199546	354.8233333333333	66	127
353.63913832199546	353.7900680272109	59	127
353.7900680272109	353.95260770975057	63	127
353.95260770975057	354.103537414966	66	127
354.103537414966	354.2660770975057	63	127
354.2660770975057	354.42861678004533	71	127
354.42861678004533	354.59115646258505	66	127
354.59115646258505	354.6608163265306	75	127
354.6608163265306	354.6724263038549	78	127
354.6724263038549	354.7885260770975	75	127
354.8349433106576	354.8930158730159	66	127
354.8349433106576	354.9510657596372	83	127
354.8349433106576	354.99750566893425	47	127
354.8349433106576	354.8930158730159	69	127
354.8930158730159	354.9510657596372	71	127
354.8930158730159	354.9510657596372	67	127
354.9510657596372	355.0091156462585	69	127
354.9510657596372	355.0091156462585	66	127
355.0091156462585	355.1136054421769	83	127
355.0091156462585	355.09038548752835	67	127
355.0091156462585	355.09038548752835	64	127
355.0091156462585	355.18326530612245	47	127
355.09038548752835	355.18326530612245	66	127
355.09038548752835	355.18326530612245	69	127
355.1948752834467	355.4851247165533	67	127
355.1948752834467	355.4851247165533	64	127
355.1948752834467	356.50680272108843	88	127
355.1948752834467	356.50680272108843	52	127
355.49673469387756	356.50680272108843	76	127
355.49673469387756	356.50680272108843	64	127
356.5184126984127	356.576462585034	74	127
356.5184126984127	356.576462585034	62	127
356.5184126984127	356.576462585034	50	127
356.5184126984127	356.576462585034	86	127
356.576462585034	356.6229024943311	88	127
356.576462585034	356.6229024943311	76	127
356.576462585034	356.6229024943311	64	127
356.576462585034	356.6229024943311	52	127
356.6229024943311	356.68095238095236	86	127
356.6229024943311	356.68095238095236	62	127
356.6229024943311	356.68095238095236	50	127
356.6229024943311	356.68095238095236	74	127
356.68095238095236	356.76222222222225	84	127
356.68095238095236	356.76222222222225	60	127
356.68095238095236	356.76222222222225	48	127
356.68095238095236	356.76222222222225	72	127
356.76222222222225	356.8434920634921	86	127
356.76222222222225	356.8434920634921	62	127
356.76222222222225	356.8434920634921	50	127
356.76222222222225	356.8434920634921	74	127
356.8434920634921	357.13374149659865	84	127
356.8434920634921	357.13374149659865	72	127
356.8434920634921	357.13374149659865	60	127
356.8434920634921	357.13374149659865	48	127
357.3775510204082	357.4239909297052	83	127
357.3775510204082	357.4239909297052	59	127
357.3775510204082	357.4239909297052	47	127
357.3775510204082	357.4239909297052	71	127
357.4239909297052	357.4704308390023	84	127
357.4239909297052	357.4704308390023	60	127
357.4239909297052	357.4704308390023	48	127
357.4239909297052	357.4704308390023	72	127
357.4704308390023	357.5168707482993	83	127
357.4704308390023	357.5168707482993	59	127
357.4704308390023	357.5168707482993	47	127
357.4704308390023	357.5168707482993	71	127
357.5168707482993	357.59814058956914	81	127
357.5168707482993	357.59814058956914	69	127
357.5168707482993	357.59814058956914	57	127
357.5168707482993	357.59814058956914	45	127
357.59814058956914	357.679410430839	83	127
357.59814058956914	357.679410430839	59	127
357.59814058956914	357.679410430839	47	127
357.59814058956914	357.679410430839	71	127
357.679410430839	358.0044671201814	81	127
357.679410430839	358.0044671201814	57	127
357.679410430839	358.0044671201814	45	127
357.679410430839	358.0044671201814	69	127
358.2831292517007	358.3295691609977	79	127
358.2831292517007	358.3295691609977	55	127
358.2831292517007	358.3295691609977	43	127
358.2831292517007	358.3295691609977	67	127
358.3295691609977	358.38761904761907	81	127
358.3295691609977	358.38761904761907	69	127
358.3295691609977	358.38761904761907	57	127
358.3295691609977	358.38761904761907	45	127
358.38761904761907	358.44566893424036	79	127
358.38761904761907	358.44566893424036	55	127
358.38761904761907	358.44566893424036	43	127
358.38761904761907	358.44566893424036	67	127
358.44566893424036	358.48049886621317	78	127
358.44566893424036	358.48049886621317	54	127
358.44566893424036	358.48049886621317	42	127
358.44566893424036	358.48049886621317	66	127
358.48049886621317	358.561768707483	79	127
358.48049886621317	358.561768707483	55	127
358.48049886621317	358.561768707483	43	127
358.48049886621317	358.561768707483	67	127
358.561768707483	359.83884353741496	78	127
358.561768707483	359.83884353741496	66	127
358.561768707483	359.83884353741496	54	127
358.561768707483	359.83884353741496	42	127
359.8504761904762	359.9085260770975	76	127
359.8504761904762	359.9085260770975	52	127
359.8504761904762	359.9085260770975	40	127
359.8504761904762	359.9085260770975	64	127
359.9085260770975	359.95496598639454	78	127
359.9085260770975	359.95496598639454	54	127
359.9085260770975	359.95496598639454	42	127
359.9085260770975	359.95496598639454	66	127
359.95496598639454	360.0130158730159	76	127
359.95496598639454	360.0130158730159	52	127
359.95496598639454	360.0130158730159	40	127
359.95496598639454	360.0130158730159	64	127
360.0130158730159	360.0942857142857	75	127
360.0130158730159	360.0942857142857	63	127
360.0130158730159	360.0942857142857	51	127
360.0130158730159	360.0942857142857	39	127
360.0942857142857	360.1639455782313	76	127
360.0942857142857	360.1639455782313	52	127
360.0942857142857	360.1639455782313	40	127
360.0942857142857	360.1639455782313	64	127
360.1639455782313	360.43097505668936	75	127
360.1639455782313	360.43097505668936	51	127
360.1639455782313	360.43097505668936	39	127
360.1639455782313	360.43097505668936	63	127
360.67478458049885	360.70961451247166	75	127
360.67478458049885	360.70961451247166	51	127
360.67478458049885	360.70961451247166	39	127
360.67478458049885	360.70961451247166	63	127
360.70961451247166	360.76766439909295	76	127
360.70961451247166	360.76766439909295	64	127
360.70961451247166	360.76766439909295	52	127
360.70961451247166	360.76766439909295	40	127
360.76766439909295	360.81410430839003	75	127
360.76766439909295	360.81410430839003	51	127
360.76766439909295	360.81410430839003	39	127
360.76766439909295	360.81410430839003	63	127
360.81410430839003	360.89537414965986	61	127
360.81410430839003	360.89537414965986	49	127
360.81410430839003	360.89537414965986	37	127
360.81410430839003	360.89537414965986	73	127
360.89537414965986	360.94181405895694	75	127
360.89537414965986	360.94181405895694	51	127
360.89537414965986	360.94181405895694	39	127
360.89537414965986	360.94181405895694	63	127
360.94181405895694	361.25528344671204	76	127
360.94181405895694	361.25528344671204	64	127
360.94181405895694	361.25528344671204	52	127
360.94181405895694	361.25528344671204	40	127
361.53392290249434	361.5803401360544	70	127
361.53392290249434	361.5803401360544	58	127
361.53392290249434	361.5803401360544	46	127
361.53392290249434	361.5803401360544	58	127
361.5803401360544	361.6384126984127	70	127
361.5803401360544	361.6384126984127	58	127
361.5803401360544	361.6384126984127	46	127
361.5803401360544	361.6384126984127	58	127
361.6384126984127	361.650022675737	69	127
361.6384126984127	361.650022675737	57	127
361.6384126984127	361.650022675737	45	127
361.6384126984127	361.650022675737	57	127
361.650022675737	361.7312925170068	70	127
361.650022675737	361.7312925170068	58	127
361.650022675737	361.7312925170068	58	127
361.650022675737	361.7312925170068	46	127
361.7312925170068	362.0447619047619	71	127
361.7312925170068	362.0447619047619	59	127
361.7312925170068	362.0447619047619	47	127
361.7312925170068	362.0447619047619	59	127
362.28854875283446	362.3350113378685	71	127
362.28854875283446	362.3350113378685	47	127
362.28854875283446	362.3350113378685	59	127
362.3350113378685	362.3698412698413	72	127
362.3350113378685	362.3698412698413	60	127
362.3350113378685	362.3698412698413	48	127
362.3698412698413	362.40467120181404	71	127
362.3698412698413	362.40467120181404	59	127
362.3698412698413	362.40467120181404	47	127
362.40467120181404	362.47433106575966	69	127
362.40467120181404	362.47433106575966	57	127
362.40467120181404	362.47433106575966	45	127
362.47433106575966	362.5556009070295	71	127
362.47433106575966	362.5556009070295	47	127
362.47433106575966	362.5556009070295	59	127
362.5556009070295	362.8226303854875	72	127
362.5556009070295	362.8226303854875	60	127
362.5556009070295	362.8226303854875	48	127
363.00836734693877	363.06643990929706	66	127
363.00836734693877	363.06643990929706	54	127
363.00836734693877	363.06643990929706	42	127
363.06643990929706	363.10126984126987	55	127
363.06643990929706	363.10126984126987	43	127
363.06643990929706	363.10126984126987	67	127
363.10126984126987	363.15931972789116	66	127
363.10126984126987	363.15931972789116	54	127
363.10126984126987	363.15931972789116	42	127
363.15931972789116	363.240589569161	64	127
363.15931972789116	363.240589569161	52	127
363.15931972789116	363.240589569161	40	127
363.240589569161	363.29863945578234	66	127
363.240589569161	363.29863945578234	54	127
363.240589569161	363.29863945578234	42	127
363.29863945578234	363.6004988662132	55	127
363.29863945578234	363.6004988662132	43	127
363.29863945578234	363.6004988662132	67	127
363.902358276644	363.94879818594103	67	127
363.902358276644	363.94879818594103	55	127
363.902358276644	363.94879818594103	43	127
363.94879818594103	364.0068480725624	45	127
363.94879818594103	364.0068480725624	69	127
363.94879818594103	364.0068480725624	57	127
364.0068480725624	364.04167800453513	43	127
364.0068480725624	364.04167800453513	67	127
364.0068480725624	364.04167800453513	55	127
364.04167800453513	364.11133786848075	66	127
364.04167800453513	364.11133786848075	42	127
364.04167800453513	364.11133786848075	54	127
364.11133786848075	364.1926077097506	55	127
364.11133786848075	364.1926077097506	67	127
364.11133786848075	364.1926077097506	43	127
364.1926077097506	364.51768707482995	45	127
364.1926077097506	364.51768707482995	57	127
364.1926077097506	364.51768707482995	69	127
364.6802267573696	364.7266666666667	63	127
364.6802267573696	364.7266666666667	51	127
364.6802267573696	364.7266666666667	39	127
364.7266666666667	364.79632653061225	64	127
364.7266666666667	364.79632653061225	52	127
364.7266666666667	364.79632653061225	40	127
364.79632653061225	364.8543537414966	51	127
364.79632653061225	364.8543537414966	63	127
364.79632653061225	364.8543537414966	39	127
364.8543537414966	364.9356462585034	61	127
364.8543537414966	364.9356462585034	37	127
364.8543537414966	364.9356462585034	49	127
364.9356462585034	365.01691609977325	63	127
364.9356462585034	365.01691609977325	39	127
364.9356462585034	365.01691609977325	51	127
365.01691609977325	365.5858049886621	40	127
365.01691609977325	365.5858049886621	52	127
365.01691609977325	365.16784580498864	64	127
365.01691609977325	365.3071655328798	64	127
365.16784580498864	365.3071655328798	67	127
365.3187755102041	365.446485260771	66	127
365.446485260771	365.5858049886621	64	127
365.5974149659864	365.7251247165533	63	127
365.73673469387757	365.8063945578231	64	127
365.8063945578231	365.9457142857143	57	127
365.8063945578231	366.1895238095238	47	127
365.8063945578231	366.1895238095238	63	127
365.9457142857143	366.05020408163267	60	127
366.05020408163267	366.1895238095238	59	127
366.20113378684806	366.3636734693878	57	127
366.37528344671205	366.5378231292517	56	127
366.549433106576	366.7351927437642	57	127
366.7351927437642	366.8977097505669	66	127
366.7351927437642	366.9093424036281	75	127
366.9093424036281	367.0834920634921	78	127
366.9093424036281	367.0718820861678	69	127
367.0834920634921	367.2228117913832	76	127
367.0834920634921	367.2228117913832	67	127
367.2228117913832	367.3505215419501	73	127
367.2228117913832	367.33891156462585	64	127
367.3505215419501	367.50142857142856	66	127
367.3505215419501	367.50142857142856	75	127
367.50142857142856	367.60591836734693	81	127
367.50142857142856	367.59433106575966	78	127
367.60591836734693	367.7336507936508	81	127
367.60591836734693	367.74526077097505	84	127
367.60591836734693	367.7336507936508	59	127
367.74526077097505	367.90780045351477	79	127
367.74526077097505	367.90780045351477	61	127
367.74526077097505	367.90780045351477	83	127
367.90780045351477	368.0238775510204	63	127
367.90780045351477	368.0238775510204	78	127
367.90780045351477	368.0238775510204	81	127
368.0238775510204	368.0819501133787	79	127
368.0238775510204	368.0703401360544	64	127
368.0238775510204	368.0703401360544	76	127
368.0819501133787	368.2328798185941	75	127
368.0819501133787	368.2328798185941	78	127
368.0819501133787	368.2328798185941	66	127
368.2328798185941	368.69727891156464	76	127
368.2328798185941	368.8598185941043	67	127
368.2328798185941	368.3954195011338	52	127
368.2328798185941	368.69727891156464	71	127
368.2328798185941	368.69727891156464	64	127
368.3954195011338	368.55795918367346	55	127
368.55795918367346	368.69727891156464	54	127
368.7088888888889	368.8598185941043	52	127
368.8598185941043	368.9991383219955	51	127
369.01074829931974	369.13843537414965	52	127
369.15006802721086	369.73056689342405	51	127
369.15006802721086	369.6260770975057	83	127
369.15006802721086	369.6260770975057	71	127
369.15006802721086	369.6260770975057	66	127
369.15006802721086	369.3126077097506	57	127
369.3126077097506	369.47514739229024	59	127
369.4867573696145	369.6260770975057	59	127
369.63768707482996	369.73056689342405	57	127
369.73056689342405	369.8698866213152	56	127
369.88149659863944	370.0208163265306	57	127
370.0208163265306	370.14852607709753	63	127
370.14852607709753	370.28784580498865	66	127
370.28784580498865	370.45038548752837	64	127
370.45038548752837	370.5200453514739	63	127
370.5200453514739	370.6593650793651	61	127
370.6593650793651	370.83351473922903	63	127
370.83351473922903	370.96122448979594	69	127
370.96122448979594	371.1121541950113	72	127
370.96122448979594	371.10054421768706	60	127
371.1121541950113	371.2514739229025	59	127
371.1121541950113	371.2514739229025	71	127
371.2514739229025	371.42562358276643	69	127
371.2514739229025	371.41401360544216	57	127
371.42562358276643	371.55333333333334	55	127
371.42562358276643	371.5649433106576	67	127
371.5649433106576	371.7042403628118	54	127
371.5649433106576	371.7042403628118	66	127
371.715873015873	372.01773242630384	64	127
371.715873015873	372.01773242630384	52	127
372.01773242630384	372.33120181405894	47	127
372.01773242630384	372.33120181405894	59	127
372.3428117913832	372.6330612244898	55	127
372.3428117913832	372.6330612244898	67	127
372.64467120181405	373.59668934240364	71	127
372.64467120181405	373.4457596371882	59	127
372.64467120181405	374.06108843537413	59	127
373.4457596371882	374.44421768707485	57	127
373.4457596371882	374.44421768707485	54	127
373.6082993197279	373.7360090702948	72	127
373.7475963718821	373.87532879818593	69	127
373.8869387755102	374.06108843537413	66	127
374.06108843537413	374.2468480725624	63	127
374.06108843537413	374.44421768707485	47	127
374.2468480725624	374.44421768707485	59	127
374.4558049886621	375.0131065759637	64	127
374.4558049886621	375.0131065759637	55	127
374.4558049886621	375.0131065759637	40	127
374.4558049886621	375.0131065759637	52	127
377.01	377.3234693877551	65	127
377.01	377.3234693877551	53	127
377.01	377.3234693877551	41	127
377.3234693877551	377.61374149659866	60	127
377.3234693877551	377.61374149659866	36	127
377.3234693877551	377.61374149659866	48	127
377.62532879818593	377.90399092970523	57	127
377.62532879818593	377.90399092970523	69	127
377.62532879818593	377.90399092970523	45	127
377.9156009070295	378.80956916099774	60	127
377.9156009070295	378.98371882086167	72	127
377.9156009070295	378.80956916099774	60	127
377.9156009070295	379.97056689342406	48	127
378.821179138322	379.80802721088435	58	127
378.821179138322	379.80802721088435	55	127
378.99532879818594	379.12303854875285	74	127
379.12303854875285	379.27396825396823	70	127
379.2855782312925	379.4481179138322	67	127
379.4597278911565	379.62226757369615	64	127
379.6338775510204	379.80802721088435	60	127
379.80802721088435	380.4233560090703	53	127
379.80802721088435	380.4233560090703	57	127
379.80802721088435	380.4233560090703	65	127
379.98215419501133	380.1331065759637	50	127
380.1331065759637	380.2724263038549	46	127
380.2724263038549	380.4233560090703	43	127
380.43496598639456	380.58589569161	40	127
380.5975056689342	380.7252154195011	36	127
380.7252154195011	381.1780045351474	41	127
382.397052154195	382.7337414965986	66	127
382.7453514739229	383.058820861678	63	127
383.07043083900226	386.06580498866214	69	127
383.3722902494331	383.5928798185941	75	127
383.60448979591837	383.9063492063492	72	127
383.9179591836735	386.06580498866214	78	127
384.2546485260771	385.1718367346939	60	127
385.1718367346939	386.06580498866214	59	127
386.0774149659864	386.4024943310658	78	127
386.0774149659864	386.4024943310658	63	127
386.41410430839	386.73918367346937	75	127
386.41410430839	386.73918367346937	59	127
386.73918367346937	390.18734693877553	81	127
386.73918367346937	387.69120181405896	66	127
387.075873015873	389.061179138322	72	127
387.075873015873	387.4009523809524	39	127
387.41256235827666	387.69120181405896	36	127
387.69120181405896	390.18734693877553	42	127
387.69120181405896	388.01628117913833	64	127
388.0278911564626	390.18734693877553	63	127
389.061179138322	390.18734693877553	71	127
390.19895691609975	390.67496598639457	79	127
390.19895691609975	390.8375056689342	64	127
390.19895691609975	390.8375056689342	71	127
390.19895691609975	393.6471201814059	40	127
390.68657596371884	390.8375056689342	76	127
390.8491156462585	390.9768253968254	79	127
390.8491156462585	391.15097505668933	52	127
390.8491156462585	391.15097505668933	67	127
390.9768253968254	391.15097505668933	76	127
391.15097505668933	391.4412244897959	69	127
391.15097505668933	391.77791383219954	54	127
391.15097505668933	392.2655328798186	75	127
391.45283446712017	391.6153741496599	72	127
391.6153741496599	391.77791383219954	71	127
391.7895238095238	391.928843537415	60	127
391.7895238095238	391.928843537415	66	127
391.9404535147392	392.1029931972789	69	127
391.9404535147392	392.1029931972789	59	127
392.1029931972789	392.7067120181406	59	127
392.1029931972789	392.7067120181406	67	127
392.27714285714285	392.4280725623583	76	127
392.4280725623583	392.5790022675737	78	127
392.5790022675737	392.7067120181406	76	127
392.7067120181406	392.86925170068025	52	127
392.7067120181406	392.86925170068025	67	127
392.7067120181406	392.82281179138323	79	127
392.8344217687075	392.86925170068025	76	127
392.86925170068025	393.31043083900227	54	127
392.86925170068025	393.6471201814059	75	127
392.86925170068025	392.9273015873016	69	127
392.93891156462587	393.0666213151927	69	127
393.078231292517	393.1478911564626	72	127
393.1478911564626	393.31043083900227	71	127
393.32204081632653	393.4729705215419	66	127
393.32204081632653	393.4729705215419	60	127
393.4845804988662	393.6471201814059	69	127
393.4845804988662	393.6471201814059	59	127
393.6471201814059	393.80965986394557	76	127
393.6471201814059	394.2392290249433	52	127
393.6471201814059	394.2392290249433	59	127
393.6471201814059	394.2392290249433	67	127
393.82126984126984	393.94897959183675	75	127
393.960589569161	394.08829931972787	76	127
394.08829931972787	394.2392290249433	78	127
394.2392290249433	394.3901587301587	79	127
394.401768707483	394.5178684807256	71	127
394.5178684807256	394.99387755102043	57	127
394.5178684807256	394.99387755102043	60	127
394.5178684807256	394.63396825396825	72	127
394.5178684807256	394.99387755102043	45	127
394.63396825396825	394.76167800453516	74	127
394.7732879818594	394.8313378684807	76	127
394.842947845805	394.99387755102043	68	127
394.99387755102043	395.1448072562358	69	127
395.1564172335601	395.27251700680273	71	127
395.284126984127	395.4234467120181	72	127
395.4234467120181	395.58598639455784	64	127
395.5975963718821	395.7369160997732	66	127
395.7369160997732	395.89945578231294	68	127
395.89945578231294	395.99233560090704	69	127
395.99233560090704	396.12004535147395	59	127
396.13165532879816	396.2825850340136	60	127
396.2825850340136	396.433514739229	62	127
396.44512471655327	396.607664399093	64	127
396.607664399093	396.7353741496599	56	127
396.7353741496599	396.8166439909297	57	127
396.828253968254	396.99079365079365	59	127
397.0024036281179	397.1649433106576	60	127
397.1649433106576	397.21138321995466	52	127
397.21138321995466	397.315873015873	54	127
397.3274829931973	397.4784126984127	56	127
397.4784126984127	397.65256235827667	57	127
397.65256235827667	397.7918820861678	52	127
397.80349206349206	397.9544217687075	54	127
397.9660317460318	398.08213151927436	56	127
398.08213151927436	398.22145124716553	57	127
398.2330612244898	398.34916099773244	52	127
398.34916099773244	398.43043083900227	53	127
398.43043083900227	398.56975056689345	55	127
398.58136054421766	398.70907029478457	57	127
398.72068027210884	398.88321995464855	52	127
398.88321995464855	399.0225396825397	53	127
399.03414965986394	399.1734693877551	55	127
399.1850793650794	399.34761904761905	57	127
399.34761904761905	399.4985487528345	48	127
399.5101587301587	399.6494784580499	50	127
399.6494784580499	399.742358276644	52	127
399.742358276644	399.8236281179138	53	127
399.8352380952381	399.9281179138322	48	127
399.93972789115645	400.10226757369617	50	127
400.10226757369617	400.2764172335601	52	127
400.2764172335601	400.43895691609976	53	127
400.450566893424	400.56666666666666	48	127
400.450566893424	400.56666666666666	70	127
400.450566893424	400.56666666666666	36	127
400.56666666666666	400.69437641723357	69	127
400.56666666666666	400.69437641723357	38	127
400.56666666666666	400.69437641723357	50	127
400.69437641723357	400.8336961451247	52	127
400.69437641723357	400.8336961451247	40	127
400.69437641723357	400.8336961451247	67	127
400.84530612244896	400.98462585034014	65	127
400.84530612244896	400.98462585034014	41	127
400.84530612244896	400.98462585034014	53	127
400.9962358276644	401.15877551020407	36	127
400.9962358276644	401.15877551020407	70	127
400.9962358276644	401.15877551020407	48	127
400.9962358276644	401.15877551020407	74	127
401.17038548752834	401.29809523809524	69	127
401.17038548752834	401.29809523809524	72	127
401.17038548752834	401.29809523809524	38	127
401.17038548752834	401.29809523809524	50	127
401.3097052154195	401.42580498866215	67	127
401.3097052154195	401.42580498866215	40	127
401.3097052154195	401.42580498866215	52	127
401.3097052154195	401.42580498866215	70	127
401.4374149659864	401.57673469387754	65	127
401.4374149659864	401.57673469387754	69	127
401.4374149659864	401.57673469387754	41	127
401.4374149659864	401.57673469387754	53	127
401.5883446712018	401.75088435374147	82	127
401.5883446712018	401.75088435374147	74	127
401.5883446712018	401.75088435374147	36	127
401.5883446712018	401.75088435374147	48	127
401.75088435374147	401.9134240362812	38	127
401.75088435374147	401.9134240362812	50	127
401.75088435374147	401.9134240362812	72	127
401.75088435374147	401.9134240362812	81	127
401.9134240362812	402.0411337868481	70	127
401.9134240362812	402.0411337868481	40	127
401.9134240362812	402.0411337868481	79	127
401.9134240362812	402.0411337868481	52	127
402.0411337868481	402.1804535147392	69	127
402.0411337868481	402.1804535147392	77	127
402.0411337868481	402.1804535147392	41	127
402.0411337868481	402.1804535147392	53	127
402.1804535147392	402.33138321995466	82	127
402.1804535147392	402.33138321995466	60	127
402.1804535147392	402.33138321995466	48	127
402.1804535147392	402.33138321995466	86	127
402.33138321995466	402.4474829931973	81	127
402.33138321995466	402.4474829931973	84	127
402.33138321995466	402.4474829931973	50	127
402.33138321995466	402.4474829931973	62	127
402.4474829931973	402.5984126984127	79	127
402.4474829931973	402.5984126984127	52	127
402.4474829931973	402.5984126984127	64	127
402.4474829931973	402.5984126984127	82	127
402.5984126984127	402.65646258503403	53	127
402.5984126984127	402.65646258503403	65	127
402.5984126984127	402.6680725623583	77	127
402.5984126984127	402.6680725623583	81	127
402.6680725623583	402.7841723356009	53	127
402.6680725623583	402.83061224489796	82	127
402.6680725623583	402.83061224489796	79	127
402.6680725623583	402.7841723356009	65	127
402.83061224489796	402.9931519274376	77	127
402.83061224489796	402.9467120181406	53	127
402.83061224489796	402.9467120181406	65	127
402.83061224489796	402.9931519274376	81	127
402.9931519274376	403.097641723356	53	127
402.9931519274376	403.12086167800453	76	127
402.9931519274376	403.097641723356	65	127
402.9931519274376	403.12086167800453	80	127
403.12086167800453	403.1905215419501	53	127
403.12086167800453	403.1905215419501	65	127
403.12086167800453	403.23696145124717	76	127
403.12086167800453	403.23696145124717	79	127
403.24857142857144	403.3995011337868	74	127
403.24857142857144	403.37628117913835	53	127
403.24857142857144	403.3995011337868	77	127
403.24857142857144	403.37628117913835	65	127
403.4111111111111	403.538820861678	53	127
403.4111111111111	403.538820861678	65	127
403.4111111111111	403.56204081632654	72	127
403.4111111111111	403.56204081632654	76	127
403.5736507936508	403.74780045351474	74	127
403.5736507936508	405.01328798185943	65	127
403.5736507936508	405.01328798185943	53	127
403.5736507936508	404.1309297052154	71	127
403.74780045351474	403.8871201814059	55	127
403.8871201814059	403.96839002267575	62	127
403.96839002267575	404.1309297052154	59	127
404.1309297052154	404.28185941043085	67	127
404.2934693877551	404.421179138322	62	127
404.43278911564624	404.59532879818596	71	127
404.59532879818596	404.7230385487528	67	127
404.7230385487528	404.87396825396826	74	127
404.8855782312925	405.00167800453517	71	127
405.0481179138322	405.10616780045353	53	127
405.0481179138322	405.1758276643991	79	127
405.0481179138322	405.10616780045353	41	127
405.10616780045353	405.1642176870748	43	127
405.10616780045353	405.1642176870748	55	127
405.1642176870748	405.2222675736962	53	127
405.1642176870748	405.2222675736962	41	127
405.2222675736962	405.31514739229027	40	127
405.2222675736962	405.31514739229027	52	127
405.2222675736962	405.349977324263	79	127
405.31514739229027	405.37319727891156	53	127
405.31514739229027	405.37319727891156	41	127
405.37319727891156	405.4892970521542	55	127
405.37319727891156	405.9304761904762	52	127
405.37319727891156	405.9304761904762	40	127
405.37319727891156	406.627074829932	79	127
405.50090702947847	405.6170068027211	60	127
405.6170068027211	405.7679365079365	64	127
405.77954648526077	405.9304761904762	60	127
405.9420861678004	406.0465759637188	67	127
406.0465759637188	406.15106575963716	64	127
406.16267573696143	406.29038548752834	72	127
406.3019954648526	406.406485260771	67	127
406.406485260771	406.51097505668935	76	127
406.51097505668935	406.6154648526077	72	127
406.673514739229	406.78961451247164	79	127
406.673514739229	406.73156462585035	67	127
406.73156462585035	406.7780045351474	69	127
406.7780045351474	406.8360544217687	67	127
406.8360544217687	406.8708843537415	65	127
406.8360544217687	406.9057142857143	79	127
406.8708843537415	406.9405442176871	67	127
406.9405442176871	408.217641723356	62	127
406.9405442176871	406.9985941043084	65	127
406.9405442176871	408.217641723356	50	127
406.9405442176871	407.3933333333333	79	127
406.9985941043084	407.0798639455782	55	127
407.0798639455782	407.23079365079366	62	127
407.2424036281179	407.3933333333333	59	127
407.4049433106576	407.55587301587303	65	127
407.55587301587303	407.73002267573696	62	127
407.73002267573696	407.7996825396825	71	127
407.8112925170068	407.95061224489797	65	127
407.95061224489797	408.0899319727891	74	127
408.0899319727891	408.217641723356	71	127
408.2640816326531	408.32213151927436	38	127
408.2640816326531	408.32213151927436	50	127
408.2640816326531	408.3801814058957	77	127
408.32213151927436	408.3801814058957	52	127
408.32213151927436	408.3801814058957	40	127
408.3801814058957	408.438231292517	38	127
408.3801814058957	408.438231292517	50	127
408.438231292517	408.51950113378683	48	127
408.438231292517	408.55433106575964	77	127
408.438231292517	408.51950113378683	36	127
408.51950113378683	408.60077097505666	38	127
408.51950113378683	408.60077097505666	50	127
408.60077097505666	409.8778684807256	76	127
408.60077097505666	409.1696598639456	48	127
408.60077097505666	408.7633106575964	57	127
408.60077097505666	409.1696598639456	36	127
408.77492063492065	408.9374603174603	60	127
408.9490702947846	409.01873015873014	64	127
409.01873015873014	409.1696598639456	60	127
409.18126984126985	409.33219954648524	69	127
409.3438095238095	409.4831292517007	64	127
409.4831292517007	409.5643990929705	72	127
409.5760090702948	409.6688888888889	69	127
409.68049886621316	409.761768707483	76	127
409.761768707483	409.8778684807256	72	127
409.9243083900227	409.982358276644	64	127
409.9243083900227	410.0404081632653	81	127
409.982358276644	410.0404081632653	66	127
410.0404081632653	410.0636281179138	64	127
410.0636281179138	410.6209070294785	63	127
410.0636281179138	411.3987755102041	81	127
410.0636281179138	410.1100680272109	51	127
410.12167800453517	410.28421768707483	54	127
410.2958276643991	410.4467573696145	59	127
410.4467573696145	410.6209070294785	54	127
410.6209070294785	410.78344671201813	63	127
410.7950566893424	410.94598639455785	59	127
410.94598639455785	411.08530612244897	66	127
411.08530612244897	411.2362358276644	63	127
411.2478458049887	411.35233560090705	71	127
411.36394557823127	411.3987755102041	66	127
411.4336054421769	411.747074829932	78	127
411.4336054421769	411.4916553287982	69	127
411.4336054421769	411.5613151927438	75	127
411.4336054421769	411.5845351473923	47	127
411.4916553287982	411.5497052154195	71	127
411.5497052154195	411.59614512471654	69	127
411.59614512471654	411.7006349206349	75	127
411.59614512471654	411.66580498866216	67	127
411.59614512471654	411.747074829932	47	127
411.66580498866216	411.747074829932	69	127
411.747074829932	411.8980045351474	67	127
411.747074829932	411.8980045351474	46	127
411.747074829932	413.0938321995465	76	127
411.747074829932	413.0938321995465	79	127
411.8980045351474	412.0489342403628	58	127
411.8980045351474	412.0489342403628	46	127
412.0489342403628	412.17664399092973	64	127
412.0489342403628	412.17664399092973	52	127
412.17664399092973	412.2927437641723	49	127
412.17664399092973	412.2927437641723	61	127
412.2927437641723	412.4320634920635	55	127
412.2927437641723	412.4320634920635	67	127
412.44367346938776	412.53655328798186	64	127
412.44367346938776	412.53655328798186	52	127
412.54816326530613	412.6990929705215	61	127
412.54816326530613	412.6990929705215	49	127
412.6990929705215	412.8268027210884	46	127
412.6990929705215	412.8268027210884	58	127
412.8384126984127	412.95451247165533	67	127
412.8384126984127	412.95451247165533	55	127
412.9661224489796	413.117052154195	64	127
412.9661224489796	413.117052154195	52	127
413.117052154195	413.2447619047619	61	127
413.117052154195	413.1634920634921	67	127
413.117052154195	413.1634920634921	76	127
413.117052154195	413.2447619047619	49	127
413.1634920634921	413.2099319727891	69	127
413.1634920634921	413.2099319727891	78	127
413.2099319727891	413.25637188208617	76	127
413.2099319727891	413.25637188208617	67	127
413.25637188208617	413.337641723356	75	127
413.25637188208617	413.39569160997735	58	127
413.25637188208617	413.39569160997735	46	127
413.25637188208617	413.337641723356	66	127
413.337641723356	413.40730158730156	76	127
413.337641723356	413.40730158730156	67	127
413.40730158730156	413.62789115646257	59	127
413.40730158730156	414.61473922902496	47	127
413.40730158730156	413.54662131519274	75	127
413.40730158730156	413.62789115646257	66	127
413.54662131519274	413.62789115646257	66	127
413.62789115646257	413.7556009070295	71	127
413.62789115646257	413.9065306122449	63	127
413.76721088435374	413.9065306122449	60	127
413.76721088435374	413.9065306122449	69	127
413.9065306122449	414.17356009070295	67	127
413.9065306122449	414.17356009070295	64	127
413.9065306122449	414.04585034013604	57	127
414.04585034013604	414.17356009070295	58	127
414.1851700680272	414.71922902494333	66	127
414.1851700680272	414.3128798185941	59	127
414.1851700680272	414.4638095238095	63	127
414.32448979591834	414.4638095238095	54	127
414.4638095238095	414.61473922902496	59	127
414.61473922902496	414.71922902494333	57	127
414.61473922902496	414.71922902494333	48	127
414.7308390022676	415.04430839002265	55	127
414.7308390022676	415.04430839002265	64	127
414.7308390022676	414.881768707483	45	127
414.881768707483	415.04430839002265	61	127
414.881768707483	415.04430839002265	46	127
415.0559183673469	415.148798185941	63	127
415.0559183673469	415.148798185941	59	127
415.0559183673469	416.21691609977324	47	127
415.0559183673469	415.148798185941	54	127
415.148798185941	415.26489795918366	67	127
415.148798185941	415.26489795918366	64	127
415.148798185941	415.26489795918366	72	127
415.26489795918366	415.40421768707483	69	127
415.26489795918366	415.40421768707483	66	127
415.26489795918366	415.40421768707483	67	127
415.4158276643991	415.543537414966	67	127
415.4158276643991	415.543537414966	64	127
415.4158276643991	415.543537414966	70	127
415.5551473922902	415.70607709750567	71	127
415.5551473922902	415.70607709750567	63	127
415.5551473922902	415.70607709750567	66	127
415.70607709750567	415.89183673469387	61	127
415.70607709750567	415.89183673469387	76	127
415.70607709750567	415.89183673469387	70	127
415.90344671201814	416.0079365079365	59	127
415.90344671201814	416.0079365079365	75	127
415.90344671201814	416.0079365079365	71	127
416.0195464852608	416.12403628117914	79	127
416.0195464852608	416.12403628117914	58	127
416.0195464852608	416.12403628117914	76	127
416.12403628117914	416.21691609977324	78	127
416.12403628117914	416.21691609977324	59	127
416.12403628117914	416.21691609977324	75	127
416.21691609977324	416.3678458049887	61	127
416.21691609977324	416.3678458049887	82	127
416.21691609977324	416.3678458049887	76	127
416.21691609977324	416.3678458049887	54	127
416.3794557823129	416.49555555555554	75	127
416.3794557823129	416.49555555555554	83	127
416.3794557823129	416.49555555555554	47	127
416.3794557823129	416.49555555555554	59	127
416.49555555555554	416.6348752834467	76	127
416.49555555555554	416.6348752834467	52	127
416.49555555555554	416.6348752834467	61	127
416.49555555555554	416.6348752834467	82	127
416.6348752834467	416.867074829932	83	127
416.6348752834467	416.867074829932	59	127
416.6348752834467	416.7741950113379	47	127
416.6348752834467	416.867074829932	75	127
416.7858049886621	416.9483446712018	46	127
416.9483446712018	417.1457142857143	75	127
416.9483446712018	417.1457142857143	59	127
416.9483446712018	417.07605442176873	47	127
416.9483446712018	417.1457142857143	83	127
417.07605442176873	417.21537414965985	46	127
417.2269841269841	417.43596371882086	83	127
417.2269841269841	417.43596371882086	59	127
417.2269841269841	417.43596371882086	75	127
417.2269841269841	417.35469387755103	47	127
417.3663038548753	417.5172335600907	46	127
417.5172335600907	418.1441723356009	75	127
417.5172335600907	420.55904761904765	47	127
417.5172335600907	417.65655328798186	59	127
417.5172335600907	418.1441723356009	83	127
417.66816326530613	417.8190929705215	58	127
417.8307029478458	417.97002267573697	59	127
417.97002267573697	418.1441723356009	58	127
418.1441723356009	418.29510204081635	59	127
418.3067120181406	418.43442176870747	58	127
418.43442176870747	418.52730158730157	59	127
418.53891156462583	418.7130612244898	58	127
418.72467120181403	418.85238095238094	59	127
418.85238095238094	419.01492063492066	58	127
419.01492063492066	419.1426303854875	59	127
419.1542403628118	419.2819501133787	58	127
419.2819501133787	419.4096598639456	59	127
419.42126984126986	419.5373696145125	58	127
419.5489795918367	419.6766893424036	59	127
419.6766893424036	419.82761904761907	58	127
419.82761904761907	419.9553287981859	59	127
419.9669387755102	420.0830385487528	58	127
420.0830385487528	420.25718820861675	59	127
420.25718820861675	420.38489795918366	57	127
420.39650793650793	420.55904761904765	59	127
420.55904761904765	420.7215873015873	57	127
420.55904761904765	420.7215873015873	51	127
420.7215873015873	420.8725170068027	49	127
420.7215873015873	420.8725170068027	59	127
420.88412698412696	421.0350566893424	52	127
420.88412698412696	421.0350566893424	57	127
421.0466666666667	421.5110657596372	51	127
421.0466666666667	421.2208163265306	59	127
421.2208163265306	421.37174603174606	57	127
421.38335600907027	421.5110657596372	59	127
421.52267573696145	421.6968253968254	57	127
421.52267573696145	421.6968253968254	54	127
421.6968253968254	421.8477551020408	53	127
421.6968253968254	421.8477551020408	59	127
421.8593650793651	421.987074829932	57	127
421.8593650793651	421.987074829932	56	127
421.987074829932	422.11478458049885	59	127
421.987074829932	422.4050340136054	78	127
421.987074829932	422.5791836734694	54	127
422.11478458049885	422.2657142857143	57	127
422.27732426303857	422.4050340136054	59	127
422.4166439909297	422.5791836734694	75	127
422.4166439909297	422.5791836734694	57	127
422.5791836734694	422.7301133786848	59	127
422.5791836734694	422.7301133786848	76	127
422.74172335600906	422.8578231292517	57	127
422.74172335600906	422.8578231292517	73	127
422.86943310657597	423.1248526077097	71	127
422.86943310657597	422.97392290249434	59	127
422.97392290249434	423.1248526077097	57	127
423.136462585034	423.2757823129252	59	127
423.136462585034	423.43832199546483	71	127
423.28739229024944	423.43832199546483	57	127
423.43832199546483	423.56603174603174	59	127
423.43832199546483	423.7169614512472	71	127
423.56603174603174	423.7169614512472	57	127
423.72857142857146	423.87950113378685	59	127
423.72857142857146	424.2045804988662	51	127
423.72857142857146	424.37873015873015	71	127
423.8911111111111	424.0420408163265	57	127
424.0420408163265	424.2045804988662	59	127
424.2161904761905	424.37873015873015	54	127
424.2161904761905	424.37873015873015	57	127
424.3903401360544	424.5528798185941	53	127
424.3903401360544	424.5528798185941	59	127
424.5528798185941	424.680589569161	56	127
424.5528798185941	424.680589569161	57	127
424.69219954648526	425.13337868480727	54	127
424.69219954648526	424.81990929705216	59	127
424.83151927437643	424.9824489795918	57	127
424.9824489795918	425.13337868480727	59	127
425.13337868480727	425.2610884353742	57	127
425.13337868480727	425.2610884353742	57	127
425.2610884353742	425.41201814058957	59	127
425.2610884353742	425.41201814058957	56	127
425.41201814058957	425.55133786848074	59	127
425.41201814058957	425.55133786848074	57	127
425.562947845805	426.1318367346939	57	127
425.562947845805	425.7254875283447	59	127
425.562947845805	426.00412698412697	81	127
425.73709750566894	425.8996371882086	57	127
425.8996371882086	426.00412698412697	59	127
426.00412698412697	426.1318367346939	78	127
426.00412698412697	426.1318367346939	57	127
426.14344671201815	426.2827664399093	80	127
426.14344671201815	426.2827664399093	59	127
426.2827664399093	426.4336961451247	76	127
426.2827664399093	426.4336961451247	57	127
426.445306122449	426.5962358276644	59	127
426.445306122449	426.77038548752836	75	127
426.60784580498864	426.77038548752836	57	127
426.77038548752836	426.8400453514739	59	127
426.77038548752836	426.99097505668936	75	127
426.8400453514739	426.99097505668936	57	127
427.0025850340136	427.2928344671202	75	127
427.0025850340136	427.153514739229	59	127
427.153514739229	427.2928344671202	57	127
427.2928344671202	427.96621315192743	75	127
427.2928344671202	427.45537414965986	47	127
427.2928344671202	427.8036734693878	59	127
427.46698412698413	427.6295238095238	45	127
427.64113378684806	427.8036734693878	47	127
427.8036734693878	427.96621315192743	63	127
427.8036734693878	427.96621315192743	45	127
427.9778231292517	428.1171428571429	47	127
427.9778231292517	428.1171428571429	61	127
428.1287528344671	428.26807256235827	45	127
428.1287528344671	428.26807256235827	64	127
428.26807256235827	428.430612244898	47	127
428.26807256235827	428.7556916099773	63	127
428.4422222222222	428.59315192743765	45	127
428.6047619047619	428.7556916099773	47	127
428.7556916099773	428.918231292517	66	127
428.7556916099773	428.918231292517	45	127
428.918231292517	429.0807709750567	65	127
428.918231292517	429.0807709750567	47	127
429.09238095238095	429.2549206349206	68	127
429.09238095238095	429.2549206349206	45	127
429.2549206349206	429.73092970521543	59	127
429.2549206349206	429.8934693877551	66	127
429.2549206349206	429.73092970521543	71	127
429.2549206349206	429.40585034013606	47	127
429.4174603174603	429.5683900226757	45	127
429.58	429.73092970521543	47	127
429.73092970521543	429.8934693877551	63	127
429.73092970521543	429.8934693877551	75	127
429.73092970521543	429.8934693877551	45	127
429.90507936507936	430.03278911564627	73	127
429.90507936507936	430.03278911564627	61	127
429.90507936507936	430.03278911564627	47	127
430.04439909297054	430.1953287981859	45	127
430.04439909297054	430.1953287981859	76	127
430.04439909297054	430.1953287981859	64	127
430.1953287981859	430.63650793650794	75	127
430.1953287981859	430.2998185941043	47	127
430.1953287981859	430.63650793650794	63	127
430.2998185941043	430.462358276644	45	127
430.4739682539683	430.63650793650794	47	127
430.6481179138322	430.7990476190476	78	127
430.6481179138322	430.7990476190476	66	127
430.6481179138322	430.7990476190476	45	127
430.7990476190476	430.9267573696145	47	127
430.7990476190476	430.9267573696145	65	127
430.7990476190476	430.9267573696145	77	127
430.9383673469388	431.10090702947844	45	127
430.9383673469388	431.10090702947844	68	127
430.9383673469388	431.10090702947844	80	127
431.1125170068027	431.57691609977326	63	127
431.1125170068027	431.72784580498865	78	127
431.1125170068027	431.2750566893424	47	127
431.1125170068027	431.72784580498865	66	127
431.2750566893424	431.4259863945578	45	127
431.4375963718821	431.57691609977326	47	127
431.5885260770975	431.72784580498865	45	127
431.5885260770975	431.72784580498865	66	127
431.72784580498865	431.8787755102041	47	127
431.72784580498865	431.8787755102041	65	127
431.89038548752836	432.04131519274375	45	127
431.89038548752836	432.04131519274375	68	127
432.052925170068	432.21546485260774	47	127
432.052925170068	432.5057142857143	66	127
432.21546485260774	432.3315646258503	45	127
432.3431746031746	432.5057142857143	47	127
432.5173242630386	432.66825396825396	69	127
432.5173242630386	432.66825396825396	45	127
432.66825396825396	432.8307936507936	68	127
432.66825396825396	432.8307936507936	47	127
432.8424036281179	433.0049433106576	71	127
432.8424036281179	433.0049433106576	45	127
433.0165532879819	433.4809523809524	63	127
433.0165532879819	433.17909297052154	47	127
433.0165532879819	433.4809523809524	75	127
433.17909297052154	433.3416326530612	45	127
433.35324263038547	433.4809523809524	47	127
433.49256235827664	433.62027210884355	66	127
433.49256235827664	433.62027210884355	78	127
433.49256235827664	433.62027210884355	45	127
433.62027210884355	433.7944217687075	77	127
433.62027210884355	433.7944217687075	65	127
433.62027210884355	433.7944217687075	47	127
433.7944217687075	433.9453514739229	68	127
433.7944217687075	433.9453514739229	80	127
433.7944217687075	433.9453514739229	45	127
433.95696145124714	434.1078911564626	47	127
433.95696145124714	434.1078911564626	66	127
433.95696145124714	434.1078911564626	78	127
434.11950113378686	434.27043083900224	80	127
434.11950113378686	434.27043083900224	68	127
434.11950113378686	434.27043083900224	45	127
434.27043083900224	434.44458049886623	69	127
434.27043083900224	434.44458049886623	47	127
434.27043083900224	434.44458049886623	81	127
434.4561904761905	434.6071201814059	71	127
434.4561904761905	434.6071201814059	45	127
434.4561904761905	434.6071201814059	83	127
434.61873015873016	434.7812698412698	73	127
434.61873015873016	434.7812698412698	47	127
434.61873015873016	434.7812698412698	85	127
434.61873015873016	434.7812698412698	54	127
434.7928798185941	434.9786394557823	83	127
434.7928798185941	434.9786394557823	45	127
434.7928798185941	434.9786394557823	71	127
434.7928798185941	434.9786394557823	51	127
434.9786394557823	435.4198185941043	71	127
434.9786394557823	435.11795918367346	44	127
434.9786394557823	435.4198185941043	83	127
434.9786394557823	435.11795918367346	59	127
435.12956916099773	435.2688888888889	52	127
435.12956916099773	435.2688888888889	52	127
435.2688888888889	435.33854875283447	44	127
435.2688888888889	435.33854875283447	59	127
435.33854875283447	435.4198185941043	52	127
435.33854875283447	435.4198185941043	52	127
435.4198185941043	435.57074829931975	59	127
435.4198185941043	435.57074829931975	44	127
435.4198185941043	435.66362811791385	88	127
435.57074829931975	435.66362811791385	52	127
435.57074829931975	435.66362811791385	52	127
435.6752380952381	435.79133786848075	61	127
435.6752380952381	436.12802721088434	87	127
435.6752380952381	435.79133786848075	45	127
435.80294784580497	435.9654875283447	52	127
435.80294784580497	435.9654875283447	52	127
435.9654875283447	436.0815873015873	61	127
435.9654875283447	436.0815873015873	45	127
436.0931972789116	436.12802721088434	52	127
436.0931972789116	436.12802721088434	52	127
436.1396371882086	436.31378684807254	61	127
436.1396371882086	436.31378684807254	45	127
436.1396371882086	436.1860770975057	85	127
436.1860770975057	436.25573696145125	87	127
436.25573696145125	436.31378684807254	85	127
436.31378684807254	436.511156462585	52	127
436.31378684807254	436.511156462585	52	127
436.31378684807254	436.4182766439909	83	127
436.4182766439909	436.511156462585	85	127
436.511156462585	436.6504761904762	51	127
436.511156462585	437.06843537414966	83	127
436.511156462585	436.6504761904762	47	127
436.66208616780045	436.7781859410431	51	127
436.66208616780045	436.7781859410431	54	127
436.7781859410431	436.9291156462585	47	127
436.7781859410431	436.9291156462585	51	127
436.9291156462585	437.06843537414966	51	127
436.9291156462585	437.06843537414966	54	127
437.06843537414966	437.2193650793651	51	127
437.06843537414966	437.11487528344674	81	127
437.06843537414966	437.2193650793651	47	127
437.11487528344674	437.172925170068	83	127
437.172925170068	437.2309750566893	81	127
437.2309750566893	437.3238548752835	80	127
437.2309750566893	437.38190476190476	54	127
437.2309750566893	437.38190476190476	51	127
437.3238548752835	437.38190476190476	81	127
437.38190476190476	437.7418140589569	80	127
437.38190476190476	437.7418140589569	52	127
437.38190476190476	437.5560544217687	64	127
437.38190476190476	437.7418140589569	56	127
437.56766439909296	437.7418140589569	63	127
437.7418140589569	437.89274376417234	64	127
437.9043537414966	438.06689342403627	63	127
437.9043537414966	438.06689342403627	61	127
437.9043537414966	438.06689342403627	66	127
438.06689342403627	438.2178231292517	64	127
438.06689342403627	438.2178231292517	68	127
438.06689342403627	438.2178231292517	59	127
438.2178231292517	438.3803628117914	57	127
438.2178231292517	438.3803628117914	69	127
438.2178231292517	438.3803628117914	66	127
438.39197278911564	438.56612244897957	64	127
438.39197278911564	439.2627210884354	56	127
438.39197278911564	439.0305215419501	71	127
438.56612244897957	438.74027210884356	59	127
438.7518820861678	438.8679818594104	64	127
438.8679818594104	439.0305215419501	59	127
439.0305215419501	439.1234013605442	64	127
439.0305215419501	439.2627210884354	76	127
439.1350113378685	439.2627210884354	59	127
439.2627210884354	439.4368707482993	61	127
439.2627210884354	440.21473922902493	57	127
439.2627210884354	439.9128798185941	75	127
439.2627210884354	439.4368707482993	64	127
439.4368707482993	439.599410430839	64	127
439.4368707482993	439.599410430839	57	127
439.61102040816326	439.75034013605443	61	127
439.61102040816326	439.75034013605443	69	127
439.75034013605443	439.9128798185941	57	127
439.75034013605443	439.9128798185941	64	127
439.9128798185941	439.97092970521544	73	127
439.9128798185941	440.0754195011338	69	127
439.9128798185941	440.0754195011338	61	127
439.97092970521544	440.02897959183673	75	127
440.02897959183673	440.0870294784581	73	127
440.0870294784581	440.21473922902493	64	127
440.0870294784581	440.21473922902493	57	127
440.0870294784581	440.12185941043083	75	127
440.12185941043083	440.1682993197279	73	127
440.1682993197279	440.21473922902493	75	127
440.21473922902493	441.4570068027211	72	127
440.21473922902493	440.5514285714286	69	127
440.21473922902493	440.37727891156464	63	127
440.21473922902493	440.37727891156464	66	127
440.3888888888889	440.5514285714286	63	127
440.3888888888889	440.5514285714286	66	127
440.56303854875284	440.71396825396823	63	127
440.56303854875284	440.71396825396823	66	127
440.56303854875284	440.8881179138322	81	127
440.71396825396823	440.8881179138322	63	127
440.71396825396823	440.8881179138322	66	127
440.8997278911565	441.15514739229025	81	127
440.8997278911565	441.01582766439907	63	127
440.8997278911565	441.01582766439907	66	127
441.01582766439907	441.15514739229025	63	127
441.01582766439907	441.15514739229025	66	127
441.15514739229025	441.3176870748299	63	127
441.15514739229025	442.2348752834467	81	127
441.15514739229025	441.3176870748299	66	127
441.3176870748299	441.4570068027211	66	127
441.3176870748299	441.4570068027211	63	127
441.4570068027211	441.81691609977327	71	127
441.4570068027211	441.6195464852608	63	127
441.4570068027211	441.6195464852608	66	127
441.6195464852608	441.81691609977327	66	127
441.6195464852608	441.81691609977327	63	127
441.81691609977327	442.02589569161	63	127
441.81691609977327	442.2348752834467	71	127
441.81691609977327	442.02589569161	66	127
442.02589569161	442.2348752834467	66	127
442.02589569161	442.2348752834467	63	127
442.2348752834467	443.10562358276644	64	127
442.2348752834467	443.10562358276644	64	127
442.2348752834467	442.5831746031746	71	127
442.2348752834467	443.27977324263037	80	127
442.5831746031746	442.7573242630385	76	127
442.7573242630385	442.8502040816326	75	127
442.8502040816326	442.96630385487526	73	127
442.96630385487526	443.10562358276644	72	127
443.1172335600907	443.60485260770974	73	127
443.1172335600907	444.0924716553288	57	127
443.1172335600907	443.45392290249436	61	127
443.29138321995464	443.45392290249436	77	127
443.46553287981857	443.60485260770974	69	127
443.46553287981857	443.60485260770974	78	127
443.60485260770974	443.7441723356009	68	127
443.60485260770974	443.7441723356009	71	127
443.60485260770974	443.69773242630384	81	127
443.7557823129252	443.8718820861678	85	127
443.7557823129252	443.91832199546485	66	127
443.7557823129252	443.91832199546485	69	127
443.9299319727891	444.0924716553288	64	127
443.9299319727891	444.0924716553288	68	127
443.9299319727891	444.04603174603176	85	127
444.10408163265305	444.26662131519276	59	127
444.10408163265305	445.2650793650794	66	127
444.10408163265305	445.2650793650794	63	127
444.10408163265305	444.58009070294787	85	127
444.27823129251703	444.4407709750567	51	127
444.4407709750567	444.51043083900225	54	127
444.5220408163265	444.58009070294787	52	127
444.58009070294787	444.74263038548753	51	127
444.58009070294787	445.09092970521544	83	127
444.7542403628118	444.91678004535146	49	127
444.9283900226757	445.90362811791385	47	127
445.10253968253966	445.2650793650794	87	127
445.2650793650794	445.59015873015875	59	127
445.2650793650794	445.59015873015875	63	127
445.2650793650794	445.41600907029476	90	127
445.42761904761903	445.59015873015875	87	127
445.601768707483	445.7643083900227	61	127
445.601768707483	445.7643083900227	64	127
445.601768707483	445.7643083900227	83	127
445.77591836734695	445.90362811791385	63	127
445.77591836734695	445.90362811791385	66	127
445.77591836734695	445.90362811791385	81	127
445.9152380952381	446.5189569160998	80	127
445.9152380952381	446.05455782312924	64	127
445.9152380952381	446.7627664399093	52	127
445.9152380952381	446.05455782312924	68	127
446.0661678004535	446.2287074829932	59	127
446.0661678004535	446.2287074829932	71	127
446.24031746031744	446.3796371882086	76	127
446.24031746031744	446.3796371882086	64	127
446.3912471655329	446.5189569160998	63	127
446.3912471655329	446.5189569160998	75	127
446.530566893424	446.93691609977327	68	127
446.530566893424	446.6350566893424	61	127
446.530566893424	446.6350566893424	73	127
446.64666666666665	446.7627664399093	60	127
446.64666666666665	446.7627664399093	72	127
446.77437641723355	446.93691609977327	57	127
446.77437641723355	447.2968253968254	73	127
446.77437641723355	447.2968253968254	61	127
446.9485260770975	447.1110657596372	65	127
446.9485260770975	447.1110657596372	45	127
447.12267573696147	447.2968253968254	66	127
447.12267573696147	447.2968253968254	57	127
447.2968253968254	447.45936507936506	59	127
447.2968253968254	447.45936507936506	56	127
447.2968253968254	447.45936507936506	71	127
447.2968253968254	447.4245351473923	69	127
447.45936507936506	447.58707482993196	73	127
447.45936507936506	447.63351473922904	69	127
447.45936507936506	447.63351473922904	54	127
447.45936507936506	447.63351473922904	57	127
447.63351473922904	447.7960544217687	68	127
447.63351473922904	447.7960544217687	52	127
447.63351473922904	447.7960544217687	56	127
447.63351473922904	447.7612244897959	73	127
447.7960544217687	447.87732426303853	66	127
447.7960544217687	447.87732426303853	54	127
447.7960544217687	448.3068934240363	73	127
447.7960544217687	447.87732426303853	51	127
447.87732426303853	448.00503401360544	56	127
447.87732426303853	448.00503401360544	68	127
447.87732426303853	448.00503401360544	52	127
448.00503401360544	448.1443537414966	69	127
448.00503401360544	448.1443537414966	54	127
448.00503401360544	448.1443537414966	57	127
448.1443537414966	448.3068934240363	52	127
448.1443537414966	448.3068934240363	56	127
448.1443537414966	448.3068934240363	68	127
448.3068934240363	448.41138321995464	54	127
448.3068934240363	448.41138321995464	66	127
448.3068934240363	448.41138321995464	51	127
448.3068934240363	448.7480725623583	71	127
448.41138321995464	448.5739229024943	52	127
448.41138321995464	448.5739229024943	49	127
448.41138321995464	448.5739229024943	64	127
448.5739229024943	449.0267120181406	47	127
448.5739229024943	448.7480725623583	63	127
448.5739229024943	448.7480725623583	51	127
448.7480725623583	448.8990022675737	63	127
448.7480725623583	448.8990022675737	75	127
448.7480725623583	448.8990022675737	59	127
448.8990022675737	449.0267120181406	58	127
448.8990022675737	449.0267120181406	61	127
448.8990022675737	449.0267120181406	78	127
449.0267120181406	449.17764172335603	47	127
449.0267120181406	449.17764172335603	59	127
449.0267120181406	449.17764172335603	63	127
449.0267120181406	449.17764172335603	75	127
449.17764172335603	449.3401814058957	49	127
449.17764172335603	449.3401814058957	71	127
449.17764172335603	449.3401814058957	59	127
449.17764172335603	449.3401814058957	64	127
449.3401814058957	449.67687074829934	69	127
449.3401814058957	449.49111111111114	51	127
449.3401814058957	449.49111111111114	59	127
449.3401814058957	449.49111111111114	66	127
449.49111111111114	450.62888888888887	59	127
449.49111111111114	450.62888888888887	52	127
449.49111111111114	450.62888888888887	52	127
449.67687074829934	449.8858503401361	67	127
449.89746031746034	450.0716099773243	69	127
450.08321995464854	450.2457596371882	68	127
450.25736961451247	450.4315192743764	78	127
450.44312925170067	450.62888888888887	76	127
450.64049886621314	452.1962358276644	64	127
450.64049886621314	452.1962358276644	54	127
450.64049886621314	452.1962358276644	46	127
450.89591836734695	451.08167800453515	66	127
451.0932879818594	451.3138775510204	73	127
451.3254875283447	451.4996371882086	72	127
451.5112471655329	451.67378684807255	75	127
451.6853968253968	451.8479365079365	73	127
451.8479365079365	452.1962358276644	73	127
452.20784580498866	452.5561451247166	47	127
452.20784580498866	452.5561451247166	59	127
452.20784580498866	453.31079365079364	64	127
452.20784580498866	452.5561451247166	56	127
452.5677551020408	452.927664399093	59	127
452.5677551020408	452.927664399093	47	127
452.5677551020408	452.927664399093	56	127
452.927664399093	453.31079365079364	59	127
452.927664399093	453.31079365079364	47	127
452.927664399093	453.31079365079364	56	127
453.3224036281179	453.7055328798186	68	127
453.3224036281179	453.7055328798186	64	127
453.3224036281179	453.7055328798186	59	127
453.3224036281179	453.7055328798186	47	127
453.7055328798186	454.0886621315193	66	127
453.7055328798186	454.0886621315193	57	127
453.7055328798186	454.0886621315193	47	127
453.7055328798186	454.0886621315193	63	127
454.0886621315193	454.62272108843536	57	127
454.0886621315193	454.62272108843536	63	127
454.0886621315193	454.62272108843536	66	127
454.0886621315193	454.62272108843536	48	127
454.6343310657596	454.76204081632653	63	127
454.6343310657596	454.76204081632653	47	127
454.6343310657596	454.76204081632653	59	127
454.6343310657596	454.76204081632653	66	127
454.8084807256236	454.9013605442177	63	127
454.8084807256236	454.9013605442177	66	127
454.8084807256236	454.9013605442177	60	127
454.8084807256236	454.9013605442177	45	127
454.94780045351473	455.04068027210883	59	127
454.94780045351473	455.04068027210883	66	127
454.94780045351473	455.04068027210883	47	127
454.94780045351473	455.04068027210883	63	127
455.0871201814059	455.4702494331066	63	127
455.0871201814059	455.4702494331066	66	127
455.0871201814059	455.4702494331066	57	127
455.0871201814059	455.4702494331066	48	127
455.48185941043084	455.60956916099775	63	127
455.48185941043084	455.60956916099775	59	127
455.48185941043084	455.60956916099775	66	127
455.48185941043084	455.60956916099775	47	127
455.66761904761904	455.7837188208617	63	127
455.66761904761904	455.7837188208617	66	127
455.66761904761904	455.7837188208617	60	127
455.66761904761904	455.7837188208617	45	127
455.83015873015876	455.94625850340134	60	127
455.83015873015876	455.94625850340134	45	127
455.83015873015876	455.94625850340134	66	127
455.83015873015876	455.94625850340134	63	127
455.9926984126984	456.4454875283447	67	127
455.9926984126984	456.4454875283447	70	127
455.9926984126984	456.4454875283447	64	127
455.9926984126984	456.4454875283447	61	127
456.4570975056689	456.57319727891155	64	127
456.4570975056689	456.57319727891155	67	127
456.4570975056689	456.57319727891155	71	127
456.4570975056689	456.57319727891155	59	127
456.6312471655329	456.724126984127	67	127
456.6312471655329	456.724126984127	64	127
456.6312471655329	456.724126984127	58	127
456.6312471655329	456.724126984127	73	127
456.75895691609975	456.8634467120181	71	127
456.75895691609975	456.8634467120181	64	127
456.75895691609975	456.8634467120181	67	127
456.75895691609975	456.8634467120181	59	127
456.9098866213152	457.38589569160996	67	127
456.9098866213152	457.38589569160996	64	127
456.9098866213152	457.38589569160996	70	127
456.9098866213152	457.38589569160996	61	127
457.39750566893423	457.49038548752833	67	127
457.39750566893423	457.49038548752833	71	127
457.39750566893423	457.49038548752833	64	127
457.39750566893423	457.49038548752833	59	127
457.5484353741497	457.6761451247165	67	127
457.5484353741497	457.6761451247165	64	127
457.5484353741497	457.6761451247165	73	127
457.5484353741497	457.6761451247165	58	127
457.7225850340136	457.8619047619048	73	127
457.7225850340136	457.8619047619048	58	127
457.7225850340136	457.8619047619048	64	127
457.7225850340136	457.8619047619048	67	127
457.9083446712018	459.1622222222222	66	127
457.9083446712018	458.5468934240363	57	127
457.9083446712018	458.5468934240363	73	127
457.9083446712018	459.1622222222222	63	127
458.55850340136055	459.1622222222222	72	127
458.55850340136055	459.1622222222222	45	127
459.1622222222222	459.4873015873016	44	127
459.1622222222222	459.4873015873016	59	127
459.1622222222222	459.4873015873016	64	127
459.1622222222222	459.4873015873016	71	127
459.49891156462587	460.14907029478456	57	127
459.49891156462587	460.14907029478456	49	127
459.49891156462587	460.4857596371882	64	127
459.49891156462587	460.14907029478456	69	127
460.16068027210883	460.4857596371882	59	127
460.16068027210883	460.3928798185941	47	127
460.16068027210883	460.3928798185941	68	127
460.4857596371882	460.7643990929705	64	127
460.4857596371882	460.7179591836735	66	127
460.4857596371882	460.7179591836735	46	127
460.4857596371882	460.7643990929705	61	127
460.7760090702948	461.47260770975055	47	127
460.7760090702948	461.47260770975055	56	127
460.7760090702948	461.47260770975055	64	127
460.7760090702948	461.47260770975055	59	127
461.4842176870748	461.8673469387755	57	127
461.4842176870748	461.8673469387755	47	127
461.4842176870748	461.6815873015873	68	127
461.4842176870748	461.8673469387755	63	127
461.69319727891155	461.8673469387755	66	127
461.87895691609975	462.4014058956916	57	127
461.87895691609975	462.4014058956916	48	127
461.87895691609975	462.4014058956916	66	127
461.87895691609975	462.4014058956916	63	127
462.41301587301587	462.5407256235828	59	127
462.41301587301587	462.5407256235828	66	127
462.41301587301587	462.5407256235828	47	127
462.41301587301587	462.5407256235828	63	127
462.59877551020406	462.72648526077097	66	127
462.59877551020406	462.72648526077097	60	127
462.59877551020406	462.72648526077097	45	127
462.59877551020406	462.72648526077097	63	127
462.77292517006805	462.88902494331063	60	127
462.77292517006805	462.88902494331063	66	127
462.77292517006805	462.88902494331063	45	127
462.77292517006805	462.88902494331063	63	127
462.9354648526077	463.3998639455782	60	127
462.9354648526077	463.3998639455782	66	127
462.9354648526077	463.3998639455782	63	127
462.9354648526077	463.3998639455782	44	127
463.4114739229025	463.4695238095238	63	127
463.4114739229025	463.4695238095238	60	127
463.4114739229025	463.4695238095238	66	127
463.4114739229025	463.4695238095238	44	127
463.5275736961451	463.6320634920635	61	127
463.5275736961451	463.6320634920635	61	127
463.5275736961451	463.6320634920635	44	127
463.5275736961451	463.6320634920635	64	127
463.67850340136056	463.7829931972789	76	127
463.67850340136056	463.7829931972789	43	127
463.67850340136056	463.7829931972789	73	127
463.67850340136056	463.7829931972789	59	127
463.82943310657595	464.32866213151925	58	127
463.82943310657595	464.32866213151925	73	127
463.82943310657595	464.32866213151925	42	127
463.82943310657595	464.32866213151925	76	127
464.32866213151925	464.46798185941043	73	127
464.32866213151925	464.46798185941043	58	127
464.32866213151925	464.46798185941043	76	127
464.32866213151925	464.46798185941043	54	127
464.5144217687075	464.6189115646259	54	127
464.5144217687075	464.6189115646259	59	127
464.5144217687075	464.6189115646259	74	127
464.5144217687075	464.6189115646259	71	127
464.67696145124717	464.7930612244898	57	127
464.67696145124717	464.7930612244898	53	127
464.67696145124717	464.7930612244898	86	127
464.67696145124717	464.7930612244898	83	127
464.67696145124717	464.7930612244898	74	127
464.8278911564626	465.3271201814059	86	127
464.8278911564626	465.3271201814059	52	127
464.8278911564626	465.3271201814059	56	127
464.8278911564626	465.3271201814059	83	127
464.8278911564626	465.3271201814059	74	127
465.3387301587302	465.4432199546485	68	127
465.3387301587302	465.4432199546485	71	127
465.3387301587302	465.4432199546485	86	127
465.3387301587302	465.4432199546485	52	127
465.46643990929704	465.6057596371882	57	127
465.46643990929704	465.6057596371882	85	127
465.46643990929704	465.6057596371882	69	127
465.46643990929704	465.6057596371882	69	127
465.6173696145125	465.7682993197279	88	127
465.6173696145125	465.7682993197279	73	127
465.6173696145125	465.7682993197279	67	127
465.6173696145125	465.7682993197279	76	127
465.6173696145125	465.7682993197279	58	127
465.8263492063492	466.72031746031746	88	127
465.8263492063492	468.7172335600907	59	127
465.8263492063492	466.081768707483	76	127
465.8263492063492	466.081768707483	68	127
465.8263492063492	466.081768707483	71	127
466.081768707483	466.37201814058955	59	127
466.3836281179138	466.8828571428571	71	127
466.73192743764173	468.3689342403628	86	127
466.8944671201814	467.0686167800454	73	127
467.0686167800454	467.18471655328796	71	127
467.18471655328796	467.35886621315194	69	127
467.35886621315194	467.5214058956916	68	127
467.53301587301587	467.69555555555553	66	127
467.7071655328798	468.7172335600907	65	127
467.7071655328798	468.7172335600907	68	127
468.3805442176871	469.30934240362814	85	127
468.7172335600907	469.30934240362814	58	127
468.7172335600907	469.30934240362814	66	127
468.7172335600907	469.30934240362814	73	127
469.30934240362814	469.6460317460317	84	127
469.30934240362814	469.6460317460317	63	127
469.30934240362814	469.6460317460317	66	127
469.30934240362814	469.6460317460317	57	127
469.657641723356	469.9711111111111	71	127
469.657641723356	469.9711111111111	56	127
469.657641723356	469.9711111111111	64	127
469.657641723356	469.7853514739229	83	127
469.79696145124717	469.9711111111111	81	127
469.9711111111111	470.2845804988662	47	127
469.9711111111111	470.1336507936508	80	127
470.1452607709751	470.2845804988662	78	127
470.2961904761905	471.2946485260771	59	127
470.2961904761905	470.4703401360544	76	127
470.4703401360544	470.6328798185941	75	127
470.6444897959184	470.7954195011338	74	127
470.6444897959184	470.9695691609977	50	127
470.7954195011338	470.9695691609977	73	127
470.9695691609977	471.1437188208617	71	127
470.9695691609977	471.6313378684807	59	127
470.9695691609977	471.2946485260771	56	127
471.1437188208617	471.2946485260771	69	127
471.2946485260771	472.33954648526077	62	127
471.2946485260771	472.33954648526077	47	127
471.2946485260771	471.4571882086168	68	127
471.46879818594107	471.6313378684807	66	127
471.642947845805	472.33954648526077	56	127
471.642947845805	472.33954648526077	65	127
472.35115646258504	473.4192743764172	66	127
472.35115646258504	473.4192743764172	46	127
472.35115646258504	473.4192743764172	54	127
472.35115646258504	473.4192743764172	61	127
473.4308843537415	473.9997732426304	63	127
473.4308843537415	473.9997732426304	45	127
473.4308843537415	473.9997732426304	60	127
473.4308843537415	473.9997732426304	54	127
473.9997732426304	474.67315192743763	59	127
473.9997732426304	474.67315192743763	64	127
473.9997732426304	474.67315192743763	44	127
473.9997732426304	474.67315192743763	52	127
474.6847619047619	475.3465306122449	53	127
474.6847619047619	475.3465306122449	59	127
474.6847619047619	475.3465306122449	62	127
474.6847619047619	475.3465306122449	44	127
475.3581405895692	475.9154195011338	45	127
475.3581405895692	475.9154195011338	57	127
475.3581405895692	475.9154195011338	61	127
475.3581405895692	475.9154195011338	54	127
475.92702947845805	476.588798185941	55	127
475.92702947845805	476.588798185941	46	127
475.92702947845805	476.588798185941	64	127
475.92702947845805	476.588798185941	61	127
476.6004081632653	477.23895691609977	64	127
476.6004081632653	477.23895691609977	59	127
476.6004081632653	477.23895691609977	55	127
476.6004081632653	477.23895691609977	47	127
477.25056689342404	477.92394557823127	55	127
477.25056689342404	477.92394557823127	58	127
477.25056689342404	477.92394557823127	48	127
477.25056689342404	477.92394557823127	64	127
477.93555555555554	478.57410430839	58	127
477.93555555555554	478.57410430839	64	127
477.93555555555554	478.57410430839	49	127
477.93555555555554	478.57410430839	55	127
478.5857142857143	479.20104308390023	55	127
478.5857142857143	479.20104308390023	49	127
478.5857142857143	479.20104308390023	58	127
478.5857142857143	479.20104308390023	64	127
479.2126530612245	479.8628117913832	49	127
479.2126530612245	479.8628117913832	55	127
479.2126530612245	479.8628117913832	64	127
479.2126530612245	479.8628117913832	58	127
479.8628117913832	480.4665306122449	64	127
479.8628117913832	480.4665306122449	48	127
479.8628117913832	480.4665306122449	58	127
479.8628117913832	480.4665306122449	67	127
480.4665306122449	481.0702494331066	48	127
480.4665306122449	481.0702494331066	58	127
480.4665306122449	481.0702494331066	64	127
480.4665306122449	481.0702494331066	67	127
481.0702494331066	481.4069387755102	64	127
481.0702494331066	481.4069387755102	48	127
481.0702494331066	481.4069387755102	67	127
481.0702494331066	481.4069387755102	58	127
481.41854875283445	482.0338775510204	67	127
481.41854875283445	482.0338775510204	64	127
481.41854875283445	482.0338775510204	59	127
481.41854875283445	482.0338775510204	47	127
481.41854875283445	482.0338775510204	71	127
482.0338775510204	482.71886621315195	47	127
482.0338775510204	482.71886621315195	71	127
482.0338775510204	482.71886621315195	67	127
482.0338775510204	482.71886621315195	59	127
482.0338775510204	482.71886621315195	64	127
482.73047619047617	483.40385487528346	59	127
482.73047619047617	483.40385487528346	71	127
482.73047619047617	483.40385487528346	64	127
482.73047619047617	483.40385487528346	67	127
482.73047619047617	483.40385487528346	47	127
483.40385487528346	484.05401360544215	83	127
483.40385487528346	484.05401360544215	59	127
483.40385487528346	484.05401360544215	69	127
483.40385487528346	484.05401360544215	66	127
483.40385487528346	484.05401360544215	75	127
483.40385487528346	484.05401360544215	71	127
483.40385487528346	484.05401360544215	47	127
484.0656235827664	484.4719727891156	47	127
484.0656235827664	484.4719727891156	83	127
484.0656235827664	484.4719727891156	71	127
484.0656235827664	484.4719727891156	75	127
484.0656235827664	484.4719727891156	69	127
484.0656235827664	484.4719727891156	59	127
484.0656235827664	484.4719727891156	66	127
484.4835827664399	484.8434920634921	83	127
484.4835827664399	484.8434920634921	59	127
484.4835827664399	484.8434920634921	75	127
484.4835827664399	484.8434920634921	71	127
484.4835827664399	484.8434920634921	66	127
484.4835827664399	484.8434920634921	69	127
484.4835827664399	484.8434920634921	47	127
484.85510204081635	485.0292517006803	83	127
484.85510204081635	485.26145124716555	76	127
484.85510204081635	485.0292517006803	52	127
484.85510204081635	485.0292517006803	56	127
484.85510204081635	485.26145124716555	68	127
485.04086167800455	485.09891156462584	47	127
485.04086167800455	485.09891156462584	59	127
485.04086167800455	485.0756916099773	80	127
485.09891156462584	485.1453514739229	56	127
485.09891156462584	485.1453514739229	76	127
485.09891156462584	485.1453514739229	52	127
485.1453514739229	485.26145124716555	47	127
485.1453514739229	485.26145124716555	59	127
485.1453514739229	485.22662131519274	71	127
485.2730612244898	485.41238095238094	56	127
485.2730612244898	485.3775510204082	68	127
485.2730612244898	485.41238095238094	52	127
485.4239909297052	485.5284807256236	64	127
485.4239909297052	485.57492063492066	47	127
485.4239909297052	485.57492063492066	59	127
485.57492063492066	485.72585034013605	56	127
485.57492063492066	485.72585034013605	52	127
485.57492063492066	486.49210884353744	59	127
485.72585034013605	485.8767800453515	47	127
485.72585034013605	485.8767800453515	59	127
485.88839002267576	486.0277097505669	56	127
485.88839002267576	486.0277097505669	52	127
486.0277097505669	486.17863945578233	59	127
486.0277097505669	486.17863945578233	47	127
486.17863945578233	486.341179138322	52	127
486.17863945578233	486.341179138322	56	127
486.341179138322	486.49210884353744	59	127
486.341179138322	486.49210884353744	47	127
486.50371882086165	486.66625850340137	83	127
486.50371882086165	486.66625850340137	51	127
486.50371882086165	486.66625850340137	57	127
486.66625850340137	486.80557823129254	59	127
486.66625850340137	486.77074829931973	81	127
486.66625850340137	486.80557823129254	47	127
486.81718820861676	486.9100680272109	78	127
486.81718820861676	486.9216780045351	51	127
486.81718820861676	486.9216780045351	57	127
486.9216780045351	486.9797278911565	59	127
486.9216780045351	486.9797278911565	71	127
486.9216780045351	486.9797278911565	47	127
486.9797278911565	487.0609977324263	57	127
486.9797278911565	487.03777777777776	69	127
486.9797278911565	487.0609977324263	51	127
487.07260770975057	487.1538775510204	66	127
487.07260770975057	487.1887074829932	47	127
487.07260770975057	487.1887074829932	59	127
487.1887074829932	488.1987755102041	59	127
487.1887074829932	487.35124716553287	57	127
487.1887074829932	487.35124716553287	51	127
487.35124716553287	487.5137868480726	59	127
487.35124716553287	487.5137868480726	47	127
487.52539682539685	487.67632653061224	57	127
487.52539682539685	487.67632653061224	51	127
487.6879365079365	487.8504761904762	59	127
487.6879365079365	487.8504761904762	47	127
487.8504761904762	488.0362358276644	51	127
487.8504761904762	488.0362358276644	57	127
488.04784580498864	488.1987755102041	47	127
488.04784580498864	488.1987755102041	59	127
488.21038548752836	488.3148752834467	68	127
488.21038548752836	488.3148752834467	71	127
488.21038548752836	488.3148752834467	52	127
488.3148752834467	488.45419501133784	47	127
488.3148752834467	488.45419501133784	71	127
488.3148752834467	488.44258503401363	68	127
488.45419501133784	488.61673469387756	52	127
488.45419501133784	488.5702947845805	64	127
488.45419501133784	488.61673469387756	68	127
488.61673469387756	488.72122448979593	71	127
488.61673469387756	488.72122448979593	47	127
488.61673469387756	488.70961451247166	59	127
488.72122448979593	488.84893424036284	52	127
488.72122448979593	488.83732426303857	56	127
488.72122448979593	488.84893424036284	68	127
488.84893424036284	488.9650340136054	71	127
488.84893424036284	488.9650340136054	47	127
488.84893424036284	488.93020408163267	59	127
488.9766439909297	489.1043537414966	52	127
488.9766439909297	489.7661224489796	52	127
488.9766439909297	489.1043537414966	68	127
488.9766439909297	489.1043537414966	83	127
489.1043537414966	489.2785034013605	47	127
489.1043537414966	489.2785034013605	71	127
489.1043537414966	489.2320634920635	80	127
489.2785034013605	489.34816326530614	68	127
489.2785034013605	489.34816326530614	52	127
489.2785034013605	489.34816326530614	76	127
489.34816326530614	489.4526530612245	71	127
489.34816326530614	489.49909297052153	47	127
489.34816326530614	489.49909297052153	71	127
489.5107029478458	489.59197278911563	68	127
489.5107029478458	489.6384126984127	68	127
489.5107029478458	489.6384126984127	52	127
489.6384126984127	489.7661224489796	47	127
489.6384126984127	489.7429024943311	64	127
489.6384126984127	489.7661224489796	71	127
489.7777324263038	489.917052154195	69	127
489.7777324263038	490.5091609977324	59	127
489.7777324263038	489.917052154195	51	127
489.7777324263038	489.917052154195	71	127
489.9286621315193	490.06798185941045	71	127
489.9286621315193	490.03315192743764	69	127
489.9286621315193	490.06798185941045	47	127
490.06798185941045	490.12603174603174	66	127
490.06798185941045	490.12603174603174	69	127
490.06798185941045	490.12603174603174	51	127
490.12603174603174	490.2421315192744	59	127
490.12603174603174	490.2885714285714	47	127
490.12603174603174	490.2885714285714	71	127
490.2885714285714	490.38145124716556	57	127
490.2885714285714	490.39306122448977	69	127
490.2885714285714	490.39306122448977	51	127
490.39306122448977	490.5091609977324	47	127
490.39306122448977	490.5091609977324	71	127
490.39306122448977	490.47433106575966	59	127
490.5207709750567	491.2638095238095	54	127
490.5207709750567	490.6484807256236	83	127
490.5207709750567	490.6484807256236	69	127
490.5207709750567	490.6484807256236	51	127
490.6484807256236	490.78780045351476	71	127
490.6484807256236	490.78780045351476	47	127
490.6484807256236	490.75297052154195	81	127
490.78780045351476	490.8574603174603	51	127
490.78780045351476	490.84585034013605	78	127
490.78780045351476	490.8574603174603	69	127
490.8574603174603	490.89229024943313	71	127
490.8574603174603	490.93873015873015	47	127
490.8574603174603	490.93873015873015	71	127
490.9503401360544	491.06643990929706	69	127
490.9503401360544	491.1128798185941	51	127
490.9503401360544	491.1128798185941	69	127
491.1128798185941	491.2638095238095	71	127
491.1128798185941	491.2289795918367	66	127
491.1128798185941	491.2638095238095	47	127
491.2754195011338	491.43795918367346	52	127
491.2754195011338	491.85591836734693	64	127
491.2754195011338	491.85591836734693	55	127
491.2754195011338	491.43795918367346	67	127
491.2754195011338	491.43795918367346	59	127
491.43795918367346	491.6004988662132	55	127
491.43795918367346	491.6004988662132	71	127
491.43795918367346	491.5540589569161	55	127
491.6004988662132	491.72820861678	67	127
491.6004988662132	491.72820861678	52	127
491.6004988662132	491.681768707483	52	127
491.72820861678	491.8210884353741	47	127
491.72820861678	491.85591836734693	55	127
491.72820861678	491.85591836734693	71	127
491.8675283446712	492.0068480725624	67	127
491.8675283446712	491.9604081632653	43	127
491.8675283446712	492.0068480725624	52	127
492.0068480725624	492.15777777777777	55	127
492.0068480725624	492.15777777777777	71	127
492.0068480725624	492.11133786848075	40	127
492.15777777777777	492.6337868480726	38	127
492.15777777777777	492.25065759637187	50	127
492.15777777777777	492.25065759637187	65	127
492.15777777777777	492.25065759637187	77	127
492.26226757369614	492.3667573696145	74	127
492.26226757369614	492.38997732426304	71	127
492.26226757369614	492.38997732426304	55	127
492.4015873015873	492.5292970521542	65	127
492.4015873015873	492.4944671201814	71	127
492.4015873015873	492.5292970521542	50	127
492.5292970521542	492.6337868480726	71	127
492.5292970521542	492.5989569160998	67	127
492.5292970521542	492.6337868480726	55	127
492.6453968253968	492.70344671201815	65	127
492.6453968253968	492.88920634920635	43	127
492.6453968253968	492.74988662131517	50	127
492.6453968253968	492.74988662131517	65	127
492.74988662131517	492.88920634920635	71	127
492.74988662131517	492.88920634920635	55	127
492.74988662131517	492.85437641723354	62	127
492.88920634920635	493.33038548752836	55	127
492.88920634920635	493.33038548752836	36	127
492.88920634920635	493.33038548752836	72	127
492.88920634920635	493.33038548752836	64	127
492.88920634920635	493.33038548752836	48	127
493.6786848072562	494.10825396825396	79	127
493.6786848072562	494.10825396825396	62	127
493.6786848072562	494.10825396825396	74	127
493.6786848072562	494.10825396825396	47	127
493.6786848072562	494.10825396825396	65	127
493.6786848072562	494.10825396825396	59	127
493.6786848072562	494.10825396825396	55	127
496.3489795918367	496.9526984126984	60	127
496.3489795918367	496.9526984126984	55	127
496.3489795918367	496.9526984126984	48	127
496.3489795918367	496.9526984126984	60	127
496.3489795918367	496.9526984126984	63	127
497.3009977324263	497.7189569160998	65	127
497.3009977324263	497.7189569160998	67	127
497.3009977324263	497.7189569160998	62	127
497.3009977324263	497.7189569160998	55	127
497.3009977324263	497.7189569160998	47	127
500.2151020408163	500.80721088435376	48	127
500.2151020408163	500.80721088435376	55	127
500.2151020408163	500.80721088435376	63	127
500.2151020408163	500.80721088435376	60	127
500.2151020408163	500.80721088435376	60	127
501.1555102040816	501.78244897959183	46	127
501.1555102040816	501.78244897959183	61	127
501.1555102040816	501.78244897959183	67	127
501.1555102040816	501.78244897959183	55	127
501.1555102040816	501.78244897959183	63	127
504.1624943310658	504.85909297052154	44	127
504.1624943310658	504.85909297052154	59	127
504.1624943310658	504.85909297052154	51	127
504.1624943310658	504.85909297052154	68	127
505.20739229024946	514.2747619047619	75	127
505.20739229024946	509.3289342403628	51	127
505.20739229024946	506.159410430839	58	127
505.20739229024946	508.34208616780046	43	127
506.159410430839	507.2855782312925	63	127
507.2971882086168	508.34208616780046	70	127
508.35369614512473	516.3181179138322	44	127
508.35369614512473	510.3390022675737	71	127
509.34054421768707	509.6772335600907	56	127
509.6772335600907	510.02553287981857	51	127
510.03714285714284	513.2995464852607	59	127
510.35061224489795	510.6408616780045	68	127
510.6408616780045	510.9891609977324	63	127
511.0007709750567	511.33746031746034	71	127
511.34907029478455	514.2747619047619	71	127
513.2995464852607	513.6478231292517	56	127
513.659433106576	513.9845351473923	51	127
513.9961451247166	517.4443083900227	59	127
514.2747619047619	518.5124263038549	76	127
514.2747619047619	514.588253968254	68	127
514.5998639455782	514.901723356009	64	127
514.9133333333333	516.3181179138322	71	127
516.3181179138322	518.5124263038549	45	127
516.3181179138322	518.5124263038549	72	127
517.455918367347	517.8158276643991	57	127
517.8274376417233	518.1757369614512	52	127
518.1757369614512	519.5457142857143	60	127
518.5240362811792	518.872335600907	69	127
518.5240362811792	520.5093424036281	41	127
518.5240362811792	520.5093424036281	74	127
518.8839455782313	519.2206349206349	62	127
519.2206349206349	520.5093424036281	72	127
519.5573242630386	519.8243537414966	53	127
519.8359637188208	520.1726530612245	50	127
520.1726530612245	520.5093424036281	57	127
520.5209523809524	522.4365986394558	72	127
520.5209523809524	522.4365986394558	43	127
520.5209523809524	520.8460317460317	64	127
520.5209523809524	521.4729705215419	55	127
520.8460317460317	521.1711111111111	60	127
521.1827210884354	522.4365986394558	67	127
521.4845804988662	521.7864399092971	52	127
521.7864399092971	522.0999092970521	48	127
522.1115192743764	522.4365986394558	55	127
522.4481859410431	524.4567346938776	71	127
522.4481859410431	524.4567346938776	44	127
522.4481859410431	523.4698639455783	53	127
522.4481859410431	522.7848979591837	62	127
522.7848979591837	523.1331972789116	59	127
523.1448072562358	524.4567346938776	65	127
523.4814739229025	523.8181859410431	59	127
523.8181859410431	524.1316553287982	53	127
524.1432653061224	524.7934240362812	62	127
524.4567346938776	526.3607709750567	45	127
524.4567346938776	525.3971428571429	72	127
524.4567346938776	527.3592063492064	64	127
524.8050340136055	525.1068707482993	52	127
525.1184807256236	525.3971428571429	60	127
525.3971428571429	525.7338095238096	52	127
525.3971428571429	526.3607709750567	69	127
525.7454421768707	526.0473015873016	60	127
526.0589115646259	526.3607709750567	52	127
526.3607709750567	527.3592063492064	67	127
526.3607709750567	526.6974603174604	59	127
526.3607709750567	527.3592063492064	47	127
526.7090702947846	527.0109297052154	52	127
527.0225396825397	527.3592063492064	59	127
527.3592063492064	528.3924943310658	66	127
527.3592063492064	528.3924943310658	48	127
527.3592063492064	527.7075283446712	54	127
527.3592063492064	528.3924943310658	63	127
527.7191383219955	528.0558276643991	57	127
528.0558276643991	528.3924943310658	54	127
528.404126984127	528.7292063492064	66	127
528.404126984127	528.7292063492064	63	127
528.404126984127	528.7292063492064	48	127
528.404126984127	528.7292063492064	57	127
528.7408163265306	529.2632653061224	66	127
528.7408163265306	529.2632653061224	63	127
529.0426757369614	529.2632653061224	48	127
529.0426757369614	529.2632653061224	57	127
529.2748752834467	529.8669841269841	63	127
529.2748752834467	529.8669841269841	66	127
529.6115419501134	529.8669841269841	48	127
529.6115419501134	529.8669841269841	57	127
529.8669841269841	530.5171428571429	66	127
529.8669841269841	530.5171428571429	63	127
530.2152607709751	530.5171428571429	48	127
530.2152607709751	530.5171428571429	57	127
530.5287528344671	531.2021315192744	63	127
530.5287528344671	531.2021315192744	66	127
530.8538321995464	531.2021315192744	48	127
530.8538321995464	531.2021315192744	57	127
531.2137414965987	531.759410430839	66	127
531.2137414965987	531.759410430839	63	127
531.4343310657597	531.759410430839	57	127
531.4343310657597	531.759410430839	48	127
531.759410430839	532.2470294784581	63	127
531.759410430839	532.2470294784581	66	127
531.9335600907029	532.2470294784581	57	127
531.9335600907029	532.2470294784581	47	127
531.9335600907029	532.2470294784581	54	127
532.2470294784581	532.8507482993198	66	127
532.2470294784581	532.8507482993198	69	127
532.5372789115646	532.8507482993198	54	127
532.5372789115646	532.8507482993198	57	127
532.5372789115646	532.8507482993198	47	127
532.862358276644	533.47768707483	69	127
532.862358276644	533.47768707483	66	127
533.1409977324263	533.47768707483	54	127
533.1409977324263	533.47768707483	57	127
533.1409977324263	533.47768707483	47	127
533.4892743764173	534.011746031746	66	127
533.4892743764173	534.011746031746	69	127
533.7098639455783	534.011746031746	47	127
533.7098639455783	534.011746031746	57	127
533.7098639455783	534.011746031746	54	127
534.011746031746	534.5690249433106	69	127
534.011746031746	534.5690249433106	72	127
534.232335600907	534.5690249433106	47	127
534.232335600907	534.5690249433106	54	127
534.232335600907	534.5690249433106	57	127
534.5690249433106	535.1378911564626	75	127
534.5690249433106	535.1378911564626	72	127
534.8244444444445	535.1378911564626	54	127
534.8244444444445	535.1378911564626	47	127
534.8244444444445	535.1378911564626	57	127
535.1495238095238	535.6371428571429	75	127
535.1495238095238	535.6371428571429	78	127
535.3004535147393	535.6371428571429	54	127
535.3004535147393	535.6371428571429	57	127
535.3004535147393	535.6371428571429	47	127
535.6487528344671	536.2060317460317	78	127
535.6487528344671	536.2060317460317	81	127
535.8693424036281	536.2060317460317	57	127
535.8693424036281	536.2060317460317	47	127
535.8693424036281	536.2060317460317	54	127
536.2060317460317	536.7400907029479	84	127
536.2060317460317	536.7400907029479	81	127
536.4150113378685	536.7400907029479	57	127
536.4150113378685	536.7400907029479	47	127
536.4150113378685	536.7400907029479	54	127
536.7517006802722	537.1928798185941	78	127
536.7517006802722	537.1928798185941	81	127
536.9374603174604	537.1928798185941	57	127
536.9374603174604	537.1928798185941	47	127
536.9374603174604	537.1928798185941	54	127
537.2044897959183	537.8314285714285	78	127
537.2044897959183	537.8314285714285	75	127
537.494739229025	537.8314285714285	47	127
537.494739229025	537.8314285714285	57	127
537.494739229025	537.8314285714285	54	127
537.8314285714285	538.3538775510204	75	127
537.8314285714285	538.3538775510204	72	127
538.0520181405896	538.3538775510204	54	127
538.0520181405896	538.3538775510204	57	127
538.0520181405896	538.3538775510204	47	127
538.3538775510204	538.8995464852608	72	127
538.3538775510204	538.8995464852608	69	127
538.6325170068027	538.8995464852608	57	127
538.6325170068027	538.8995464852608	47	127
538.6325170068027	538.8995464852608	54	127
538.911156462585	539.4219727891157	66	127
538.911156462585	539.4219727891157	69	127
539.1549659863946	539.4219727891157	54	127
539.1549659863946	539.4219727891157	47	127
539.1549659863946	539.4219727891157	57	127
539.4335827664399	540.0373015873016	63	127
539.4335827664399	540.0373015873016	66	127
539.7354648526077	540.0373015873016	54	127
539.7354648526077	540.0373015873016	47	127
539.7354648526077	540.0373015873016	57	127
540.0373015873016	540.5946031746032	63	127
540.0373015873016	540.5946031746032	60	127
540.3275736961451	540.5946031746032	57	127
540.3275736961451	540.5946031746032	47	127
540.3275736961451	540.5946031746032	54	127
540.5946031746032	541.070589569161	60	127
540.5946031746032	541.070589569161	57	127
540.7687528344671	541.070589569161	54	127
540.7687528344671	541.070589569161	57	127
540.7687528344671	541.070589569161	47	127
541.0822222222222	541.6626984126984	72	127
541.0822222222222	541.6626984126984	66	127
541.0822222222222	541.6626984126984	69	127
541.0822222222222	541.6626984126984	63	127
541.4073015873016	541.6626984126984	57	127
541.4073015873016	541.6626984126984	54	127
541.4073015873016	541.6626984126984	47	127
541.6743083900227	542.3012698412698	72	127
541.6743083900227	542.3012698412698	63	127
541.6743083900227	542.3012698412698	69	127
541.6743083900227	542.3012698412698	66	127
541.9878004535148	542.3012698412698	47	127
541.9878004535148	542.3012698412698	54	127
541.9878004535148	542.3012698412698	57	127
542.3128798185941	542.8237188208617	63	127
542.3128798185941	542.8237188208617	69	127
542.3128798185941	542.8237188208617	66	127
542.3128798185941	542.8237188208617	72	127
542.5334693877551	542.8237188208617	47	127
542.5334693877551	542.8237188208617	54	127
542.5334693877551	542.8237188208617	57	127
542.835328798186	543.3345578231292	72	127
542.835328798186	543.3345578231292	69	127
542.835328798186	543.3345578231292	63	127
542.835328798186	543.3345578231292	66	127
543.0675283446712	543.3345578231292	57	127
543.0675283446712	543.3345578231292	47	127
543.0675283446712	543.3345578231292	54	127
543.3461678004535	544.7858049886621	47	127
543.3461678004535	544.7858049886621	54	127
543.3461678004535	544.7858049886621	57	127
543.3461678004535	543.7292743764173	63	127
543.3461678004535	543.7292743764173	69	127
543.3461678004535	543.7292743764173	66	127
543.3461678004535	543.7292743764173	72	127
543.7409070294784	545.8423129251701	72	127
543.7409070294784	545.8423129251701	66	127
543.7409070294784	545.8423129251701	69	127
543.7409070294784	545.8423129251701	63	127
544.7974149659864	546.9104308390023	47	127
544.7974149659864	546.9104308390023	57	127
544.7974149659864	546.9104308390023	54	127
545.8539229024943	550.5095238095238	69	127
545.8539229024943	550.5095238095238	66	127
545.8539229024943	550.300544217687	72	127
545.8539229024943	550.300544217687	63	127
546.9104308390023	550.5095238095238	57	127
546.9104308390023	550.5095238095238	54	127
546.9104308390023	550.5095238095238	47	127
550.3237641723356	550.5095238095238	71	127
550.5095238095238	550.695283446712	70	127
550.7068934240363	550.8346031746032	71	127
550.8346031746032	550.9971428571429	75	127
551.0087528344671	551.1829024943311	78	127
551.1945124716553	551.2525623582767	81	127
551.2525623582767	551.4383219954649	79	127
551.4383219954649	551.5544217687075	78	127
551.5544217687075	551.6705215419502	81	127
551.6821088435374	551.8446712018141	84	127
551.8562811791384	552.0304308390023	75	127
552.0420408163266	552.5528798185941	76	127
552.0420408163266	555.6179138321995	64	127
552.0420408163266	552.9940589569161	67	127
552.0420408163266	552.9940589569161	64	127
552.5528798185941	552.7153968253969	76	127
552.7270068027211	552.8779591836735	79	127
552.8895691609978	552.9940589569161	76	127
553.0056689342404	554.2479365079365	75	127
553.0056689342404	553.7254648526077	66	127
553.0056689342404	553.3655782312925	69	127
553.3771882086168	553.562947845805	72	127
553.562947845805	553.7254648526077	71	127
553.7254648526077	553.9112471655329	72	127
553.7254648526077	553.9112471655329	66	127
553.9228571428572	554.0970068027211	69	127
553.9228571428572	554.0970068027211	71	127
554.0970068027211	554.5265759637189	71	127
554.0970068027211	554.5265759637189	67	127
554.2595464852608	554.4220861678004	76	127
554.4336961451247	554.4569160997733	78	127
554.4569160997733	554.5265759637189	76	127
554.5265759637189	554.7936054421768	67	127
554.5265759637189	554.6542857142857	79	127
554.5265759637189	554.7936054421768	64	127
554.6542857142857	554.7936054421768	76	127
554.7936054421768	555.2696145124717	66	127
554.7936054421768	554.8632653061225	69	127
554.7936054421768	555.6179138321995	75	127
554.8632653061225	554.9561224489796	69	127
554.9677324263039	555.1186848072563	72	127
555.1186848072563	555.2696145124717	71	127
555.2696145124717	555.4437641723356	72	127
555.2696145124717	555.4437641723356	66	127
555.4437641723356	555.6179138321995	71	127
555.4437641723356	555.6179138321995	69	127
555.6295238095238	556.0126530612245	67	127
555.6295238095238	556.0126530612245	71	127
555.6295238095238	556.0126530612245	64	127
555.6295238095238	555.7804308390023	76	127
555.7920408163266	555.9197732426304	75	127
555.9313832199547	555.9662131519275	76	127
555.9662131519275	556.0126530612245	78	127
556.0126530612245	556.1287528344672	79	127
556.1287528344672	556.256462585034	71	127
556.2680725623583	556.8253514739229	64	127
556.2680725623583	556.8253514739229	72	127
556.2680725623583	556.8253514739229	69	127
556.2680725623583	556.4422222222222	72	127
556.2680725623583	556.8253514739229	57	127
556.4422222222222	556.5815419501134	74	127
556.5815419501134	556.6744217687075	76	127
556.6744217687075	556.8253514739229	68	127
556.8369614512471	556.9762811791384	69	127
556.9762811791384	557.1156009070295	71	127
557.1272108843538	557.2897505668934	72	127
557.2897505668934	557.4174376417234	64	127
557.4290476190477	557.5219501133787	65	127
557.5219501133787	557.6148072562358	67	127
557.6148072562358	557.754149659864	69	127
557.7657596371882	557.9050793650794	60	127
557.9166893424036	558.0560090702947	62	127
558.067619047619	558.195328798186	64	127
558.2069387755103	558.2649886621315	65	127
558.2765986394558	558.3694784580499	67	127
558.3810884353742	558.5320181405896	69	127
558.5436281179138	558.682947845805	71	127
558.6945578231292	558.8454648526077	72	127
558.857074829932	558.9151473922902	71	127
558.9151473922902	559.0660544217687	74	127
559.0776870748299	559.2170068027211	72	127
559.2286167800454	559.3911564625851	71	127
559.4027664399093	559.4956462585034	69	127
559.5072562358276	559.8091156462585	45	127
559.5072562358276	559.6581632653061	67	127
559.6697732426304	559.8091156462585	60	127
559.6697732426304	559.8091156462585	65	127
559.6697732426304	559.8091156462585	57	127
559.8091156462585	559.9600453514739	60	127
559.8091156462585	559.9600453514739	65	127
559.8091156462585	559.9600453514739	64	127
559.9600453514739	560.0297052154195	57	127
559.9600453514739	560.0297052154195	65	127
559.9600453514739	560.0297052154195	60	127
560.0297052154195	560.1690249433107	69	127
560.0297052154195	560.1690249433107	65	127
560.0297052154195	560.3431746031746	45	127
560.0297052154195	560.1690249433107	60	127
560.1690249433107	560.3431746031746	57	127
560.1690249433107	560.5173242630385	72	127
560.1690249433107	560.3431746031746	60	127
560.3431746031746	560.668253968254	47	127
560.5173242630385	560.668253968254	64	127
560.5173242630385	560.668253968254	59	127
560.5173242630385	560.668253968254	55	127
560.668253968254	560.842403628118	59	127
560.668253968254	560.842403628118	64	127
560.668253968254	560.842403628118	63	127
560.842403628118	560.9004308390023	59	127
560.842403628118	560.9004308390023	64	127
560.842403628118	560.9004308390023	55	127
560.9004308390023	561.0397732426304	64	127
560.9004308390023	561.0397732426304	59	127
560.9004308390023	561.2023129251701	47	127
560.9004308390023	561.0397732426304	67	127
561.0397732426304	561.2023129251701	55	127
561.0397732426304	561.3184126984127	71	127
561.0397732426304	561.2023129251701	59	127
561.2023129251701	561.4345124716554	45	127
561.3184126984127	561.4345124716554	54	127
561.3184126984127	561.4345124716554	59	127
561.3184126984127	561.4345124716554	71	127
561.4345124716554	561.597052154195	59	127
561.4345124716554	561.597052154195	70	127
561.4345124716554	561.597052154195	63	127
561.597052154195	561.7479818594104	59	127
561.597052154195	561.7479818594104	54	127
561.597052154195	561.7479818594104	71	127
561.7479818594104	561.8756916099774	59	127
561.7479818594104	561.8756916099774	75	127
561.7479818594104	561.8756916099774	63	127
561.7479818594104	561.9801814058957	45	127
561.8756916099774	561.9801814058957	54	127
561.8756916099774	562.1194784580499	78	127
561.8756916099774	561.9801814058957	59	127
561.99179138322	562.258820861678	43	127
562.1194784580499	562.258820861678	76	127
562.1194784580499	562.258820861678	55	127
562.1194784580499	562.258820861678	59	127
562.2704308390023	562.3865306122449	64	127
562.2704308390023	562.3865306122449	59	127
562.2704308390023	562.3865306122449	75	127
562.3981405895692	562.5142403628118	59	127
562.3981405895692	562.5142403628118	55	127
562.3981405895692	562.5142403628118	76	127
562.5142403628118	562.6187301587302	79	127
562.5142403628118	562.7580498866213	43	127
562.5142403628118	562.6187301587302	64	127
562.5142403628118	562.6187301587302	59	127
562.6303401360544	562.7580498866213	55	127
562.6303401360544	562.7580498866213	59	127
562.6303401360544	562.7580498866213	83	127
562.7696598639455	563.0715192743764	45	127
562.7696598639455	562.920589569161	84	127
562.9321768707483	563.0715192743764	65	127
562.9321768707483	563.0715192743764	57	127
562.9321768707483	563.0715192743764	77	127
563.0831292517007	563.2224489795918	76	127
563.0831292517007	563.2224489795918	69	127
563.0831292517007	563.2224489795918	60	127
563.2224489795918	563.2921088435374	65	127
563.2224489795918	563.2921088435374	77	127
563.2224489795918	563.2921088435374	57	127
563.3037188208617	563.4198185941043	81	127
563.3037188208617	563.4198185941043	69	127
563.3037188208617	563.5591156462585	45	127
563.3037188208617	563.4198185941043	60	127
563.4198185941043	563.5591156462585	65	127
563.4198185941043	563.5591156462585	57	127
563.4198185941043	563.7100680272109	84	127
563.5707482993197	563.8609977324263	47	127
563.7216780045352	563.8609977324263	64	127
563.7216780045352	563.8609977324263	55	127
563.7216780045352	563.8609977324263	76	127
563.8726077097506	563.9770975056689	59	127
563.8726077097506	563.9770975056689	75	127
563.8726077097506	563.9770975056689	67	127
563.9887074829932	564.069977324263	55	127
563.9887074829932	564.069977324263	76	127
563.9887074829932	564.069977324263	64	127
564.0815873015873	564.3370068027211	47	127
564.0815873015873	564.1976870748299	67	127
564.0815873015873	564.1976870748299	79	127
564.0815873015873	564.1976870748299	59	127
564.1976870748299	564.5111564625851	83	127
564.1976870748299	564.3370068027211	64	127
564.1976870748299	564.3370068027211	55	127
564.3486167800454	564.685306122449	45	127
564.5227664399093	564.685306122449	75	127
564.5227664399093	564.685306122449	63	127
564.5227664399093	564.685306122449	54	127
564.6969160997733	564.8478458049887	59	127
564.6969160997733	564.8478458049887	73	127
564.6969160997733	564.8478458049887	66	127
564.8594557823129	564.9523356009071	78	127
564.8594557823129	564.9523356009071	59	127
564.8594557823129	564.9523356009071	66	127
564.8594557823129	565.1148752834467	45	127
564.9639455782313	565.1148752834467	63	127
564.9639455782313	565.2541950113379	83	127
564.9639455782313	565.1148752834467	54	127
565.126485260771	565.4167346938775	43	127
565.2658049886621	565.4167346938775	64	127
565.2658049886621	565.4167346938775	67	127
565.2658049886621	565.4167346938775	76	127
565.4167346938775	565.4863945578231	75	127
565.4167346938775	565.4863945578231	71	127
565.4167346938775	565.4863945578231	67	127
565.4863945578231	565.5444444444445	76	127
565.4863945578231	565.5444444444445	64	127
565.4863945578231	565.5444444444445	67	127
565.5444444444445	565.8927437641723	43	127
565.5444444444445	565.7185941043084	67	127
565.5444444444445	565.7185941043084	79	127
565.5444444444445	565.7185941043084	71	127
565.7185941043084	565.8927437641723	67	127
565.7185941043084	565.8927437641723	83	127
565.7185941043084	565.8927437641723	64	127
565.8927437641723	566.2061904761905	45	127
565.8927437641723	566.0668934240363	84	127
566.0668934240363	566.2061904761905	65	127
566.0668934240363	566.2061904761905	77	127
566.0668934240363	566.2061904761905	60	127
566.2061904761905	566.3687528344672	65	127
566.2061904761905	566.3687528344672	69	127
566.2061904761905	566.3687528344672	76	127
566.3687528344672	566.403560090703	60	127
566.3687528344672	566.403560090703	77	127
566.3687528344672	566.403560090703	65	127
566.403560090703	566.6938321995465	45	127
566.403560090703	566.5312925170068	69	127
566.403560090703	566.5312925170068	81	127
566.403560090703	566.5312925170068	65	127
566.5429024943311	566.8447619047619	84	127
566.5429024943311	566.6938321995465	65	127
566.5429024943311	566.6938321995465	60	127
566.7054421768707	567.0188888888889	47	127
566.8447619047619	567.0188888888889	83	127
566.8447619047619	567.0188888888889	64	127
566.8447619047619	567.0188888888889	59	127
567.0188888888889	567.0537414965986	82	127
567.0188888888889	567.0537414965986	64	127
567.0188888888889	567.0537414965986	67	127
567.0188888888889	567.2162811791384	47	127
567.0537414965986	567.2162811791384	64	127
567.0537414965986	567.2162811791384	59	127
567.0537414965986	567.2162811791384	83	127
567.2278684807256	567.3672108843538	64	127
567.2278684807256	567.5065306122449	47	127
567.2278684807256	567.3672108843538	67	127
567.2278684807256	567.3672108843538	88	127
567.3672108843538	567.5065306122449	64	127
567.3672108843538	567.5065306122449	91	127
567.3672108843538	567.5065306122449	59	127
567.5065306122449	567.9477097505669	93	127
567.5065306122449	567.6458276643991	69	127
567.5065306122449	567.6458276643991	66	127
567.5065306122449	567.6922902494331	47	127
567.6574603174603	567.6922902494331	66	127
567.6574603174603	567.6922902494331	59	127
567.6922902494331	567.9477097505669	47	127
567.6922902494331	567.8548072562359	69	127
567.6922902494331	567.8548072562359	66	127
567.8548072562359	567.9477097505669	59	127
567.8548072562359	567.9477097505669	66	127
567.9593197278912	568.1218594104308	66	127
567.9593197278912	568.1915192743764	75	127
567.9593197278912	568.1218594104308	69	127
567.9593197278912	568.2727891156462	47	127
568.1218594104308	568.2727891156462	59	127
568.1218594104308	568.2727891156462	66	127
568.2843990929705	568.6094784580499	52	127
568.2843990929705	568.6094784580499	64	127
568.2843990929705	568.6094784580499	76	127
568.2843990929705	568.6094784580499	64	127
568.6094784580499	568.8881179138322	71	127
568.6094784580499	568.8881179138322	47	127
568.6094784580499	568.8881179138322	59	127
568.6094784580499	568.8881179138322	59	127
568.8881179138322	569.1783673469388	67	127
568.8881179138322	569.1783673469388	55	127
568.8881179138322	569.1783673469388	79	127
568.8881179138322	569.1783673469388	67	127
569.189977324263	570.02589569161	59	127
569.189977324263	570.02589569161	83	127
569.189977324263	570.02589569161	71	127
569.189977324263	570.02589569161	71	127
570.0375056689343	570.1884353741497	84	127
570.0375056689343	570.1884353741497	60	127
570.0375056689343	570.1884353741497	72	127
570.0375056689343	570.1884353741497	72	127
570.2000453514739	570.3625850340136	81	127
570.2000453514739	570.3625850340136	69	127
570.2000453514739	570.3625850340136	57	127
570.2000453514739	570.3625850340136	69	127
570.3625850340136	570.4902947845806	78	127
570.3625850340136	570.4902947845806	66	127
570.3625850340136	570.4902947845806	54	127
570.3625850340136	570.4902947845806	66	127
570.5018820861678	570.5947845804989	63	127
570.5018820861678	570.5947845804989	63	127
570.5018820861678	570.5947845804989	51	127
570.5018820861678	570.5947845804989	75	127
570.6063945578231	570.7457142857143	71	127
570.6063945578231	570.7457142857143	59	127
570.6063945578231	570.7457142857143	47	127
570.6063945578231	570.7457142857143	59	127
570.7457142857143	570.9895238095238	64	127
570.7457142857143	570.9895238095238	52	127
570.7457142857143	570.9895238095238	64	127
570.7457142857143	570.8153741496599	76	127
570.8502040816327	570.9895238095238	72	127
570.9895238095238	571.5584126984127	57	127
570.9895238095238	571.2565532879819	40	127
570.9895238095238	571.0940136054422	69	127
570.9895238095238	571.2565532879819	60	127
571.1056009070295	571.2565532879819	66	127
571.2681632653062	571.7441723356009	59	127
571.2681632653062	571.5584126984127	40	127
571.2681632653062	571.4190929705215	63	127
571.4190929705215	571.5584126984127	59	127
571.5584126984127	571.7441723356009	40	127
571.5584126984127	571.6512925170068	64	127
571.5584126984127	571.7441723356009	55	127
571.6512925170068	571.7441723356009	72	127
571.7441723356009	572.3362585034014	57	127
571.7441723356009	571.8718820861678	69	127
571.7441723356009	572.0344217687075	60	127
571.7441723356009	572.0344217687075	40	127
571.8718820861678	572.0344217687075	66	127
572.0344217687075	572.3362585034014	40	127
572.0344217687075	572.5336507936508	59	127
572.0344217687075	572.1853514739229	63	127
572.1969614512471	572.3362585034014	59	127
572.3362585034014	572.5336507936508	55	127
572.3362585034014	572.5336507936508	40	127
572.3362585034014	572.4059410430839	64	127
572.4059410430839	572.5336507936508	72	127
572.5336507936508	572.8122902494331	60	127
572.5336507936508	573.1257596371883	57	127
572.5336507936508	572.672970521542	69	127
572.5336507936508	572.8122902494331	40	127
572.672970521542	572.8122902494331	66	127
572.8239002267574	573.1257596371883	40	127
572.8239002267574	573.9384580498867	59	127
572.8239002267574	572.9748299319727	63	127
572.986439909297	573.1257596371883	59	127
573.1373696145125	573.9384580498867	40	127
573.1373696145125	573.9384580498867	64	127
573.1373696145125	573.9384580498867	55	127
574.0777777777778	574.6118367346938	55	127
574.0777777777778	574.6118367346938	59	127
574.0777777777778	574.6118367346938	64	127
574.0777777777778	574.6118367346938	40	127
575.1110657596372	576.4926530612245	64	127
575.1110657596372	576.4926530612245	59	127
575.1110657596372	576.4926530612245	52	127
575.1110657596372	576.4926530612245	40	127
575.1110657596372	576.4926530612245	55	127
