# onset,offset,note,velocity
0.3823582766439909	1.0673469387755101	64	127
0.3823582766439909	2.7043537414965986	64	127
2.715963718820862	5.130839002267574	59	127
2.715963718820862	5.130839002267574	63	127
5.142448979591837	7.7430839002267575	54	127
5.142448979591837	7.7430839002267575	66	127
5.142448979591837	7.7430839002267575	57	127
7.754693877551021	10.111519274376418	64	127
7.754693877551021	10.111519274376418	61	127
7.754693877551021	10.111519274376418	49	127
7.754693877551021	10.111519274376418	56	127
10.12312925170068	12.712154195011339	69	127
10.12312925170068	12.712154195011339	54	127
10.12312925170068	12.712154195011339	48	127
10.12312925170068	12.712154195011339	63	127
12.723764172335601	13.94281179138322	68	127
12.723764172335601	13.94281179138322	52	127
12.723764172335601	13.94281179138322	47	127
12.723764172335601	13.94281179138322	64	127
13.954421768707483	15.556598639455782	61	127
13.954421768707483	15.556598639455782	54	127
13.954421768707483	15.556598639455782	45	127
13.954421768707483	14.999319727891157	71	127
15.01092970521542	15.556598639455782	69	127
15.568208616780046	18.64485260770975	68	127
15.568208616780046	20.32829931972789	47	127
15.568208616780046	18.64485260770975	64	127
15.568208616780046	17.19360544217687	56	127
17.205215419501133	18.64485260770975	58	127
18.656462585034014	20.32829931972789	66	127
18.656462585034014	20.32829931972789	59	127
18.656462585034014	20.32829931972789	63	127
20.351519274376418	23.904172335600908	62	127
21.79113378684807	23.904172335600908	71	127
23.91578231292517	29.41891156462585	57	127
23.91578231292517	26.98081632653061	61	127
23.91578231292517	26.98081632653061	69	127
27.00403628117914	29.41891156462585	66	127
27.00403628117914	29.41891156462585	47	127
27.00403628117914	29.41891156462585	63	127
29.430521541950114	32.10081632653061	68	127
29.430521541950114	32.10081632653061	63	127
29.430521541950114	32.10081632653061	56	127
29.430521541950114	32.10081632653061	48	127
32.112426303854875	34.87560090702948	58	127
32.112426303854875	34.87560090702948	52	127
32.112426303854875	34.87560090702948	49	127
32.112426303854875	34.87560090702948	64	127
34.88721088435374	37.32530612244898	57	127
34.88721088435374	37.32530612244898	51	127
34.88721088435374	37.32530612244898	47	127
34.88721088435374	36.97698412698413	66	127
36.988616780045355	37.32530612244898	68	127
37.32530612244898	38.92748299319728	64	127
37.32530612244898	38.92748299319728	40	127
37.32530612244898	38.92748299319728	52	127
37.32530612244898	38.92748299319728	56	127
38.93909297052154	39.91433106575964	59	127
38.93909297052154	39.91433106575964	71	127
39.9259410430839	41.7487074829932	47	127
39.9259410430839	41.7487074829932	69	127
39.9259410430839	41.7487074829932	57	127
41.76031746031746	42.86326530612245	59	127
41.76031746031746	43.31603174603175	66	127
41.76031746031746	43.31603174603175	54	127
41.76031746031746	43.31603174603175	45	127
42.9097052154195	43.31603174603175	59	127
43.32764172335601	45.77736961451247	44	127
43.32764172335601	45.77736961451247	64	127
43.32764172335601	44.65120181405896	59	127
43.32764172335601	45.77736961451247	52	127
44.66281179138322	45.510340136054424	71	127
45.54517006802721	45.77736961451247	71	127
45.788979591836735	46.740975056689344	69	127
45.788979591836735	48.354784580498865	63	127
45.788979591836735	48.354784580498865	51	127
45.788979591836735	48.354784580498865	42	127
46.752585034013606	47.14734693877551	68	127
47.158956916099775	48.018095238095235	66	127
48.029705215419504	48.354784580498865	64	127
48.354784580498865	51.26888888888889	45	127
48.354784580498865	51.26888888888889	66	127
48.354784580498865	51.26888888888889	54	127
48.354784580498865	49.457732426303856	63	127
49.46934240362812	50.31687074829932	73	127
50.328480725623585	51.26888888888889	73	127
51.28049886621315	52.244126984126986	73	127
51.28049886621315	54.18299319727891	64	127
51.28049886621315	54.18299319727891	52	127
51.28049886621315	54.18299319727891	44	127
52.25573696145125	52.6156462585034	71	127
52.627256235827666	53.63732426303855	76	127
53.63732426303855	54.18299319727891	80	127
54.194603174603174	56.772018140589566	69	127
54.194603174603174	56.772018140589566	48	127
54.194603174603174	55.11179138321995	80	127
54.194603174603174	56.772018140589566	57	127
55.123401360544214	55.39043083900227	78	127
55.40204081632653	56.41210884353742	76	127
56.43532879818594	56.772018140589566	75	127
56.7952380952381	58.04911564625851	68	127
56.7952380952381	59.50036281179138	49	127
56.7952380952381	57.758866213151926	76	127
56.7952380952381	58.04911564625851	56	127
57.77047619047619	58.04911564625851	64	127
58.13038548752834	59.186893424036285	71	127
58.13038548752834	59.186893424036285	63	127
58.13038548752834	59.186893424036285	59	127
59.19850340136055	59.50036281179138	68	127
59.19850340136055	59.50036281179138	64	127
59.19850340136055	59.50036281179138	56	127
59.50036281179138	63.81927437641723	47	127
59.50036281179138	60.47560090702948	64	127
59.50036281179138	61.92684807256236	68	127
59.50036281179138	61.92684807256236	56	127
60.498820861678006	60.78907029478458	66	127
60.80068027210884	61.65981859410431	68	127
61.67142857142857	61.92684807256236	70	127
61.93845804988662	63.81927437641723	66	127
61.93845804988662	63.41292517006803	70	127
61.93845804988662	63.81927437641723	54	127
63.447755102040816	63.81927437641723	71	127
63.830884353741496	65.16603174603175	71	127
65.20083900226757	65.47950113378685	71	127
65.49111111111111	68.37036281179138	59	127
65.49111111111111	68.37036281179138	53	127
65.49111111111111	66.38507936507936	71	127
65.49111111111111	68.37036281179138	71	127
66.39668934240363	66.80303854875284	72	127
66.83784580498866	67.81310657596372	72	127
67.82471655328798	68.37036281179138	73	127
68.38199546485261	69.62424036281179	73	127
68.38199546485261	71.19160997732426	69	127
68.38199546485261	71.19160997732426	57	127
68.38199546485261	71.19160997732426	54	127
69.65909297052154	69.97256235827665	75	127
69.9841723356009	70.91297052154195	76	127
70.92458049886622	71.19160997732426	78	127
71.19160997732426	73.71095238095238	54	127
71.19160997732426	72.00430839002267	80	127
71.19160997732426	73.71095238095238	66	127
71.19160997732426	76.88047619047619	48	127
72.01591836734694	72.48031746031747	80	127
72.49192743764172	73.42072562358277	81	127
73.4439455782313	73.71095238095238	80	127
73.7225850340136	74.53528344671201	80	127
73.7225850340136	76.88047619047619	68	127
73.7225850340136	76.88047619047619	56	127
74.55850340136054	74.8255328798186	78	127
74.84875283446712	75.98650793650793	76	127
75.98650793650793	76.88047619047619	75	127
76.89210884353741	79.53916099773242	64	127
76.89210884353741	79.53916099773242	49	127
76.89210884353741	79.53916099773242	52	127
76.89210884353741	77.92539682539683	76	127
77.93700680272109	78.22725623582767	73	127
78.25047619047619	79.21410430839002	71	127
79.22571428571429	79.53916099773242	70	127
79.56240362811792	82.58097505668934	47	127
79.56240362811792	82.0469387755102	54	127
79.56240362811792	80.52603174603175	69	127
79.56240362811792	82.0469387755102	66	127
80.53761904761905	81.09492063492064	66	127
81.12975056689342	82.0469387755102	63	127
82.05854875283447	82.58097505668934	68	127
82.05854875283447	82.58097505668934	59	127
82.05854875283447	82.58097505668934	56	127
82.63904761904762	83.93936507936507	64	127
82.63904761904762	83.93936507936507	40	127
82.63904761904762	83.20793650793651	64	127
82.63904761904762	83.93936507936507	52	127
83.50979591836735	83.93936507936507	68	127
83.95097505668934	84.87977324263039	64	127
85.1584126984127	85.40222222222222	68	127
85.40222222222222	85.93628117913832	59	127
86.48195011337869	86.760589569161	68	127
86.7721768707483	87.27142857142857	64	127
87.52684807256236	87.77063492063492	68	127
87.78226757369615	90.11587301587302	71	127
87.78226757369615	88.50208616780046	59	127
88.75750566893424	89.07097505668935	68	127
89.0825850340136	89.6166439909297	66	127
89.87206349206349	90.11587301587302	68	127
90.12748299319728	90.998231292517	59	127
90.12748299319728	92.69328798185941	75	127
91.35814058956916	91.61356009070295	68	127
91.62517006802722	92.15922902494331	66	127
92.46108843537415	92.69328798185941	68	127
92.70489795918367	95.16621315192744	52	127
92.70489795918367	96.29238095238095	76	127
92.70489795918367	93.42471655328798	59	127
93.73818594104308	93.99360544217687	68	127
94.00519274376417	94.65537414965986	64	127
94.91079365079365	95.16621315192744	68	127
95.16621315192744	97.87133786848072	56	127
95.16621315192744	95.78154195011338	59	127
96.04857142857144	96.29238095238095	68	127
96.30399092970522	97.54625850340136	75	127
96.30399092970522	97.30244897959183	64	127
97.55786848072562	97.87133786848072	68	127
97.55786848072562	97.87133786848072	73	127
97.88294784580499	99.1019954648526	71	127
97.88294784580499	102.86362811791383	59	127
97.88294784580499	98.48666666666666	59	127
97.88294784580499	100.25138321995465	47	127
98.81174603174603	99.1019954648526	66	127
99.11360544217688	99.61283446712018	63	127
99.11360544217688	99.94952380952381	78	127
99.94952380952381	100.25138321995465	66	127
99.94952380952381	100.25138321995465	75	127
100.26299319727892	100.80866213151927	59	127
100.26299319727892	102.86362811791383	51	127
100.26299319727892	101.47043083900226	71	127
101.1105215419501	101.47043083900226	69	127
101.48204081632653	102.00448979591837	66	127
101.48204081632653	102.46888888888888	73	127
102.48049886621315	102.86362811791383	69	127
102.87523809523809	103.5021768707483	59	127
102.87523809523809	104.0362358276644	59	127
102.87523809523809	108.09972789115646	68	127
102.87523809523809	108.09972789115646	52	127
103.78081632653061	104.0362358276644	64	127
104.0362358276644	104.5702947845805	59	127
104.0362358276644	104.82571428571428	68	127
104.83732426303855	105.12757369614512	64	127
104.83732426303855	105.12757369614512	64	127
105.13918367346939	105.70807256235828	56	127
105.13918367346939	106.30018140589569	61	127
105.99832199546485	106.30018140589569	64	127
106.31179138321995	107.41473922902495	64	127
106.31179138321995	107.05482993197279	61	127
107.44956916099773	108.09972789115646	64	127
107.44956916099773	108.09972789115646	61	127
108.11133786848073	108.65700680272109	56	127
108.11133786848073	110.23596371882086	48	127
108.11133786848073	110.23596371882086	56	127
108.11133786848073	110.23596371882086	68	127
108.92403628117914	109.16784580498866	66	127
109.17945578231293	109.70190476190476	63	127
109.98054421768707	110.23596371882086	66	127
110.24757369614512	112.69727891156462	44	127
110.24757369614512	110.94417233560091	56	127
110.24757369614512	112.69727891156462	72	127
110.24757369614512	112.69727891156462	54	127
111.24603174603175	111.54789115646258	63	127
111.55950113378685	112.19804988662132	60	127
112.46507936507936	112.69727891156462	63	127
112.7088888888889	116.34281179138323	73	127
112.7088888888889	113.32421768707484	56	127
112.7088888888889	115.27469387755102	52	127
112.7088888888889	115.27469387755102	49	127
113.59124716553288	114.00920634920635	64	127
114.00920634920635	114.74063492063492	61	127
115.01927437641723	115.27469387755102	64	127
115.28630385487529	117.72439909297051	47	127
115.28630385487529	117.72439909297051	68	127
115.28630385487529	115.84358276643991	56	127
116.0990022675737	116.34281179138323	64	127
116.35442176870748	117.3528798185941	75	127
116.35442176870748	117.07424036281179	61	127
117.36448979591837	117.72439909297051	76	127
117.36448979591837	117.72439909297051	64	127
117.73600907029478	119.38462585034014	64	127
117.73600907029478	119.38462585034014	73	127
117.73600907029478	119.38462585034014	76	127
117.73600907029478	119.38462585034014	61	127
117.73600907029478	119.38462585034014	66	127
117.73600907029478	119.38462585034014	46	127
119.3962358276644	120.58045351473923	78	127
119.3962358276644	120.58045351473923	73	127
119.3962358276644	120.58045351473923	54	127
119.3962358276644	120.58045351473923	46	127
120.59206349206349	121.07968253968254	76	127
120.59206349206349	121.07968253968254	73	127
120.59206349206349	121.07968253968254	54	127
120.59206349206349	121.07968253968254	46	127
121.0912925170068	122.00848072562358	54	127
121.0912925170068	122.00848072562358	75	127
121.0912925170068	122.00848072562358	71	127
121.0912925170068	122.00848072562358	47	127
122.04331065759636	122.34517006802722	68	127
122.04331065759636	122.34517006802722	73	127
122.04331065759636	122.34517006802722	53	127
122.04331065759636	122.34517006802722	49	127
122.35678004535147	123.27396825396825	49	127
122.35678004535147	123.27396825396825	71	127
122.35678004535147	123.27396825396825	53	127
123.03015873015873	123.27396825396825	68	127
123.28557823129252	123.83124716553289	53	127
123.28557823129252	123.83124716553289	73	127
123.28557823129252	123.83124716553289	49	127
123.83124716553289	124.81809523809524	70	127
123.83124716553289	125.25927437641724	66	127
123.83124716553289	125.25927437641724	54	127
123.83124716553289	129.34598639455783	54	127
124.94580498866213	125.25927437641724	80	127
125.2708843537415	126.24612244897959	78	127
125.2708843537415	126.24612244897959	61	127
125.2708843537415	126.24612244897959	58	127
126.25773242630386	126.6524716553288	76	127
126.25773242630386	126.6524716553288	61	127
126.25773242630386	126.6524716553288	58	127
126.66408163265307	127.8134693877551	59	127
126.66408163265307	127.8134693877551	75	127
126.66408163265307	127.8134693877551	63	127
127.82507936507936	128.1269387755102	63	127
127.82507936507936	128.1269387755102	59	127
127.82507936507936	128.1269387755102	73	127
128.13854875283448	128.9628344671202	71	127
128.13854875283448	128.9628344671202	65	127
128.13854875283448	128.9628344671202	61	127
128.9628344671202	129.34598639455783	65	127
128.9628344671202	129.34598639455783	73	127
128.9628344671202	129.34598639455783	61	127
129.58979591836734	130.91333333333333	54	127
129.58979591836734	131.27324263038548	70	127
129.58979591836734	131.27324263038548	66	127
129.58979591836734	131.27324263038548	61	127
130.9249433106576	131.27324263038548	67	127
131.3080725623583	132.32975056689344	66	127
131.3080725623583	132.70126984126983	73	127
131.3080725623583	132.70126984126983	70	127
131.3080725623583	132.70126984126983	66	127
132.34136054421768	132.70126984126983	64	127
132.7128798185941	133.82743764172335	62	127
132.7128798185941	134.07122448979592	74	127
132.7128798185941	134.07122448979592	71	127
132.7128798185941	134.07122448979592	66	127
133.83904761904762	134.07122448979592	61	127
134.08285714285714	135.08131519274377	59	127
134.08285714285714	135.67342403628118	77	127
134.08285714285714	135.67342403628118	74	127
134.08285714285714	135.67342403628118	68	127
135.09290249433107	135.67342403628118	61	127
135.67342403628118	137.17111111111112	73	127
135.67342403628118	137.17111111111112	66	127
135.67342403628118	138.13473922902494	58	127
135.67342403628118	142.47687074829932	78	127
137.1827210884354	138.13473922902494	76	127
137.1827210884354	138.13473922902494	54	127
138.1463492063492	138.45981859410432	59	127
138.1463492063492	138.45981859410432	75	127
138.1463492063492	138.45981859410432	56	127
138.47142857142856	139.45827664399093	58	127
138.47142857142856	139.45827664399093	61	127
138.47142857142856	139.45827664399093	73	127
139.4698866213152	139.74850340136055	59	127
139.4698866213152	139.74850340136055	71	127
139.4698866213152	139.74850340136055	63	127
139.76013605442176	141.15333333333334	61	127
139.76013605442176	141.15333333333334	64	127
139.76013605442176	141.15333333333334	70	127
141.1649433106576	141.94278911564626	76	127
141.1649433106576	141.94278911564626	58	127
141.1649433106576	141.94278911564626	61	127
141.95442176870748	144.13709750566895	59	127
141.95442176870748	143.01092970521543	75	127
141.95442176870748	144.13709750566895	63	127
142.4884807256236	142.74390022675738	80	127
142.75551020408165	143.01092970521543	82	127
143.02253968253967	143.33600907029478	83	127
143.34761904761905	143.8700680272109	85	127
143.88167800453516	144.13709750566895	87	127
144.1487074829932	144.48539682539683	88	127
144.1487074829932	144.48539682539683	54	127
144.1487074829932	144.48539682539683	61	127
144.48539682539683	147.8871201814059	90	127
144.48539682539683	145.5883446712018	51	127
144.48539682539683	145.5883446712018	59	127
145.72764172335602	145.99469387755101	54	127
145.72764172335602	145.99469387755101	51	127
146.00630385487528	147.07442176870748	51	127
146.00630385487528	147.07442176870748	59	127
147.21374149659863	147.37628117913832	54	127
147.21374149659863	147.37628117913832	61	127
147.3878911564626	149.84920634920636	63	127
147.3878911564626	149.84920634920636	59	127
147.89873015873016	148.14253968253968	92	127
148.15414965986395	148.47922902494332	94	127
148.49083900226756	148.72303854875284	95	127
148.7346485260771	149.5821768707483	94	127
149.59378684807257	149.84920634920636	92	127
149.84920634920636	150.09301587301587	90	127
149.84920634920636	150.09301587301587	61	127
149.84920634920636	150.09301587301587	63	127
150.10462585034014	152.438231292517	66	127
150.10462585034014	150.3948752834467	95	127
150.10462585034014	152.438231292517	63	127
150.3948752834467	150.7780045351474	94	127
150.7895918367347	151.0566439909297	92	127
151.06825396825397	151.38172335600908	90	127
151.39333333333335	151.66036281179137	88	127
151.67197278911564	151.92739229024943	87	127
151.9390022675737	152.18281179138322	85	127
152.19442176870749	152.438231292517	83	127
152.5659410430839	154.63251700680271	68	127
152.5659410430839	152.89102040816326	82	127
152.5659410430839	154.63251700680271	64	127
152.90263038548753	153.1348299319728	80	127
153.14643990929704	153.47151927437642	78	127
153.4831292517007	153.73854875283448	76	127
153.75013605442177	154.27260770975056	75	127
154.28421768707483	154.63251700680271	73	127
154.64412698412698	155.49163265306123	56	127
154.64412698412698	154.89954648526077	76	127
154.64412698412698	155.49163265306123	52	127
154.91115646258504	155.80512471655328	80	127
155.52648526077098	157.0590022675737	54	127
155.52648526077098	157.0590022675737	59	127
155.81673469387755	156.1766439909297	71	127
156.19986394557824	156.53655328798186	75	127
156.5597732426304	157.43049886621316	78	127
157.07061224489797	158.67278911564625	54	127
157.07061224489797	158.67278911564625	58	127
157.45374149659864	157.7904081632653	73	127
157.80204081632652	158.2896598639456	78	127
158.30124716553289	158.67278911564625	76	127
158.68439909297052	161.09927437641724	75	127
158.68439909297052	161.09927437641724	66	127
158.68439909297052	161.09927437641724	59	127
158.68439909297052	161.09927437641724	47	127
161.12249433106575	161.65655328798186	73	127
161.12249433106575	161.65655328798186	64	127
161.12249433106575	161.65655328798186	54	127
161.12249433106575	161.65655328798186	49	127
161.66816326530613	162.5853514739229	71	127
161.66816326530613	162.5853514739229	63	127
161.66816326530613	162.5853514739229	54	127
161.66816326530613	162.5853514739229	51	127
162.73628117913833	162.88721088435375	66	127
162.73628117913833	162.88721088435375	61	127
162.73628117913833	162.88721088435375	54	127
162.73628117913833	162.88721088435375	52	127
162.89882086167802	163.67668934240362	63	127
162.89882086167802	163.67668934240362	71	127
162.89882086167802	163.67668934240362	54	127
162.89882086167802	163.67668934240362	51	127
163.89727891156463	164.19913832199546	73	127
163.89727891156463	164.19913832199546	70	127
163.89727891156463	164.19913832199546	54	127
163.89727891156463	164.19913832199546	49	127
164.21074829931973	166.6024036281179	71	127
164.21074829931973	166.6024036281179	75	127
164.21074829931973	166.6024036281179	47	127
164.21074829931973	170.32920634920634	54	127
166.61401360544218	167.09002267573698	76	127
166.61401360544218	167.09002267573698	46	127
166.61401360544218	167.09002267573698	73	127
167.10163265306122	168.29746031746032	44	127
167.10163265306122	170.32920634920634	75	127
167.10163265306122	170.32920634920634	78	127
168.43678004535147	168.6225396825397	42	127
168.63414965986394	170.08539682539683	40	127
170.22471655328798	170.32920634920634	39	127
170.34081632653061	172.43061224489796	80	127
170.34081632653061	172.43061224489796	76	127
170.34081632653061	171.5018140589569	37	127
170.34081632653061	171.5018140589569	52	127
171.51342403628118	171.78045351473924	39	127
171.51342403628118	171.78045351473924	54	127
171.78045351473924	172.43061224489796	56	127
171.78045351473924	172.43061224489796	40	127
172.44222222222223	173.15043083900227	62	127
172.44222222222223	173.15043083900227	68	127
172.44222222222223	173.15043083900227	59	127
172.44222222222223	173.15043083900227	41	127
173.16204081632654	174.56684807256235	71	127
173.16204081632654	174.56684807256235	63	127
173.16204081632654	174.56684807256235	59	127
173.16204081632654	174.56684807256235	42	127
174.60167800453516	176.36639455782313	69	127
174.60167800453516	176.36639455782313	60	127
174.60167800453516	176.36639455782313	63	127
174.60167800453516	176.36639455782313	54	127
176.3780045351474	177.5041723356009	60	127
176.3780045351474	177.5041723356009	69	127
176.3780045351474	177.5041723356009	63	127
176.3780045351474	177.5041723356009	54	127
177.5041723356009	179.00183673469388	66	127
179.0134693877551	179.38498866213152	54	127
179.3965986394558	180.4298866213152	68	127
179.3965986394558	180.4298866213152	64	127
179.3965986394558	180.4298866213152	54	127
179.3965986394558	180.4298866213152	61	127
180.44149659863945	181.78825396825397	66	127
181.79986394557824	182.12492063492064	54	127
182.13655328798185	183.16984126984127	67	127
182.13655328798185	183.16984126984127	61	127
182.13655328798185	183.16984126984127	54	127
182.13655328798185	183.16984126984127	58	127
183.18145124716554	184.5398185941043	66	127
184.55142857142857	184.7952380952381	54	127
184.80684807256236	185.8285260770975	66	127
184.80684807256236	185.8285260770975	63	127
184.80684807256236	185.8285260770975	54	127
184.80684807256236	185.8285260770975	59	127
185.84013605442178	187.81383219954648	66	127
187.82544217687075	188.39433106575964	54	127
188.39433106575964	189.62498866213153	54	127
188.39433106575964	190.6698866213152	75	127
188.39433106575964	190.6698866213152	72	127
188.39433106575964	190.6698866213152	69	127
189.64820861678004	190.4144671201814	66	127
190.42607709750567	190.6698866213152	54	127
190.68149659863946	192.5507029478458	76	127
190.68149659863946	191.45936507936509	68	127
190.68149659863946	192.1791836734694	54	127
190.68149659863946	192.5507029478458	73	127
191.47097505668935	191.84249433106575	66	127
191.85410430839002	192.1791836734694	64	127
192.19079365079364	192.5507029478458	63	127
192.19079365079364	193.11959183673468	66	127
192.56231292517006	193.00349206349208	75	127
192.56231292517006	193.00349206349208	61	127
192.56231292517006	193.00349206349208	78	127
193.03832199546486	193.45628117913833	80	127
193.03832199546486	193.45628117913833	59	127
193.03832199546486	193.45628117913833	76	127
193.11959183673468	193.45628117913833	54	127
193.4678911564626	194.69854875283445	80	127
193.4678911564626	194.69854875283445	76	127
193.4678911564626	194.69854875283445	54	127
193.4678911564626	194.69854875283445	58	127
194.71015873015872	196.13818594104308	73	127
194.71015873015872	195.6273469387755	66	127
194.71015873015872	196.13818594104308	70	127
194.71015873015872	196.13818594104308	67	127
195.63895691609977	196.13818594104308	54	127
196.14979591836735	197.5778231292517	54	127
196.14979591836735	196.7302947845805	66	127
196.14979591836735	197.5778231292517	75	127
196.14979591836735	197.5778231292517	71	127
196.74190476190475	197.1366439909297	64	127
197.14825396825398	197.5778231292517	63	127
197.5778231292517	198.49501133786848	66	127
197.5778231292517	197.9841723356009	61	127
197.5778231292517	198.80848072562358	76	127
197.5778231292517	198.80848072562358	73	127
197.99578231292517	198.3905215419501	59	127
198.40213151927438	198.80848072562358	58	127
198.50662131519275	198.80848072562358	54	127
198.82009070294785	199.20321995464852	75	127
198.82009070294785	199.95786848072564	71	127
198.82009070294785	201.0608163265306	63	127
198.82009070294785	201.0608163265306	59	127
199.2148299319728	199.56312925170067	76	127
199.57473922902494	199.95786848072564	78	127
199.96947845804988	200.3177777777778	80	127
200.32938775510203	200.6892970521542	82	127
200.6892970521542	201.0608163265306	83	127
201.07242630385488	203.62662131519275	54	127
201.07242630385488	201.39750566893423	82	127
201.07242630385488	203.62662131519275	58	127
201.4091156462585	201.74580498866214	80	127
201.75741496598638	202.26825396825396	78	127
202.27986394557823	203.2667120181406	66	127
202.27986394557823	202.73265306122448	76	127
202.74426303854875	203.18544217687074	75	127
203.197052154195	203.62662131519275	73	127
203.3595918367347	203.62662131519275	64	127
203.62662131519275	206.1459863945578	59	127
203.62662131519275	204.02136054421769	71	127
203.62662131519275	204.89210884353741	63	127
203.62662131519275	206.1459863945578	56	127
204.03297052154196	204.5554195011338	73	127
204.56702947845804	204.89210884353741	75	127
204.90371882086168	205.2404081632653	76	127
205.25201814058957	205.65836734693877	78	127
205.66997732426304	206.1459863945578	80	127
206.15759637188208	208.72340136054422	54	127
206.15759637188208	206.56394557823128	78	127
206.15759637188208	208.72340136054422	51	127
206.56394557823128	206.9354648526077	76	127
206.94707482993198	207.33020408163264	75	127
207.3418140589569	208.37510204081633	59	127
207.3418140589569	207.7249433106576	73	127
207.77138321995466	208.2241723356009	71	127
208.23578231292518	208.72340136054422	70	127
208.37510204081633	208.72340136054422	58	127
208.73501133786849	211.17310657596371	52	127
208.73501133786849	209.1065306122449	68	127
208.73501133786849	210.82480725623583	56	127
208.73501133786849	211.17310657596371	56	127
209.11814058956915	209.51287981859412	70	127
209.51287981859412	209.8843990929705	71	127
209.89600907029478	210.302358276644	73	127
210.31396825396826	210.743537414966	75	127
210.75514739229024	211.17310657596371	76	127
210.8364172335601	211.17310657596371	58	127
211.18471655328798	211.57945578231292	75	127
211.18471655328798	213.57637188208616	47	127
211.18471655328798	213.57637188208616	51	127
211.18471655328798	212.69401360544217	59	127
211.5910657596372	211.93936507936507	73	127
211.9625850340136	212.3108843537415	71	127
212.32249433106577	212.69401360544217	70	127
212.70562358276644	213.13519274376418	61	127
212.70562358276644	213.13519274376418	68	127
213.14680272108845	213.57637188208616	66	127
213.14680272108845	213.57637188208616	63	127
213.5995918367347	213.99433106575964	64	127
213.5995918367347	214.760589569161	58	127
213.5995918367347	217.0477551020408	64	127
213.5995918367347	215.99124716553288	49	127
214.0059410430839	214.3542403628118	63	127
214.36585034013606	217.0477551020408	61	127
214.77219954648527	215.06244897959184	59	127
215.0740589569161	215.53845804988663	58	127
215.5500680272109	215.99124716553288	56	127
216.00285714285715	216.37437641723355	54	127
216.00285714285715	217.0477551020408	54	127
216.37437641723355	216.69945578231292	52	127
216.7110657596372	217.0477551020408	51	127
217.05936507936508	219.27687074829933	61	127
217.05936507936508	217.38444444444445	49	127
217.05936507936508	219.27687074829933	76	127
217.05936507936508	219.27687074829933	64	127
217.3960544217687	217.7095238095238	47	127
217.72113378684807	218.0578231292517	46	127
218.06943310657596	218.4293424036281	44	127
218.44095238095238	218.8473015873016	42	127
218.8473015873016	219.27687074829933	40	127
219.28848072562357	220.29854875283448	68	127
219.28848072562357	219.61356009070295	39	127
219.28848072562357	221.30861678004536	76	127
219.28848072562357	221.30861678004536	73	127
219.28848072562357	221.30861678004536	88	127
219.62517006802722	219.96185941043083	37	127
219.9734693877551	220.29854875283448	36	127
220.31015873015872	220.6352380952381	37	127
220.31015873015872	221.30861678004536	70	127
220.64684807256236	220.9719274376417	39	127
220.98353741496598	221.30861678004536	40	127
221.30861678004536	221.6685260770975	42	127
221.30861678004536	222.36512471655328	88	127
221.30861678004536	222.36512471655328	76	127
221.30861678004536	222.36512471655328	73	127
221.30861678004536	223.35197278911565	66	127
221.68013605442178	222.00521541950113	44	127
222.0168253968254	222.36512471655328	46	127
222.37673469387755	223.35197278911565	87	127
222.37673469387755	223.35197278911565	71	127
222.37673469387755	222.70181405895693	47	127
222.37673469387755	223.35197278911565	75	127
222.71342403628117	223.02689342403627	49	127
223.03850340136054	223.35197278911565	51	127
223.36358276643992	224.50136054421768	68	127
223.36358276643992	223.70027210884354	52	127
223.36358276643992	224.50136054421768	64	127
223.36358276643992	224.50136054421768	73	127
223.36358276643992	224.50136054421768	85	127
223.70027210884354	224.08340136054423	54	127
224.09501133786847	224.50136054421768	56	127
224.51297052154194	227.07877551020408	83	127
224.51297052154194	224.89609977324264	71	127
224.51297052154194	226.74208616780047	66	127
224.51297052154194	234.71814058956917	63	127
224.51297052154194	243.72748299319727	54	127
224.93092970521542	225.2792290249433	73	127
225.29083900226757	225.67396825396824	75	127
225.6855782312925	226.0338775510204	76	127
226.04548752834467	226.39378684807255	78	127
226.39378684807255	226.74208616780047	80	127
226.7536961451247	234.71814058956917	78	127
226.7536961451247	234.71814058956917	71	127
227.09038548752835	227.46190476190475	85	127
227.46190476190475	227.78698412698412	87	127
227.78698412698412	228.12367346938777	88	127
228.12367346938777	228.46036281179138	90	127
228.46036281179138	228.78544217687076	92	127
228.78544217687076	229.12213151927438	90	127
229.12213151927438	229.458820861678	92	127
229.458820861678	229.79551020408164	94	127
229.79551020408164	230.12058956916098	95	127
230.12058956916098	230.4340589569161	94	127
230.4340589569161	230.75913832199547	92	127
230.77074829931973	231.09582766439908	90	127
231.09582766439908	231.43251700680273	88	127
231.43251700680273	231.75759637188207	87	127
231.75759637188207	232.07106575963718	85	127
232.07106575963718	232.40775510204082	83	127
232.40775510204082	232.70961451247166	82	127
232.70961451247166	233.034693877551	80	127
233.034693877551	233.37138321995465	78	127
233.37138321995465	233.7312925170068	76	127
233.7312925170068	234.06798185941042	75	127
234.06798185941042	234.40467120181407	73	127
234.40467120181407	234.71814058956917	71	127
234.72975056689341	243.72748299319727	64	127
234.72975056689341	235.06643990929706	70	127
234.72975056689341	243.72748299319727	61	127
235.06643990929706	235.43795918367346	68	127
235.43795918367346	235.73981859410432	66	127
235.73981859410432	236.0881179138322	65	127
236.0881179138322	236.41319727891155	66	127
236.41319727891155	236.72666666666666	67	127
236.72666666666666	237.0633560090703	68	127
237.0633560090703	237.36521541950114	69	127
237.36521541950114	237.70190476190476	70	127
237.70190476190476	238.02698412698413	71	127
238.02698412698413	238.36367346938775	72	127
238.36367346938775	238.67714285714285	73	127
238.68875283446712	238.99061224489796	74	127
238.99061224489796	239.32730158730158	75	127
239.32730158730158	239.66399092970522	76	127
239.66399092970522	240.00068027210884	77	127
240.00068027210884	240.34897959183672	78	127
240.34897959183672	240.68566893424037	80	127
240.68566893424037	241.02235827664398	79	127
241.02235827664398	241.35904761904763	78	127
241.35904761904763	241.69573696145125	76	127
241.69573696145125	242.00920634920635	75	127
242.00920634920635	242.33428571428573	73	127
242.33428571428573	242.6477551020408	76	127
242.65936507936507	242.99605442176872	71	127
242.99605442176872	243.36757369614512	70	127
243.36757369614512	243.73909297052154	73	127
243.73909297052154	244.0990022675737	67	127
244.0990022675737	244.47052154195012	66	127
244.47052154195012	244.86526077097506	70	127
244.86526077097506	245.27160997732426	73	127
245.27160997732426	245.63151927437642	76	127
245.63151927437642	245.99142857142857	80	127
245.99142857142857	246.40938775510205	77	127
246.40938775510205	247.09437641723355	78	127
247.09437641723355	247.80258503401362	70	127
247.81419501133786	249.46281179138322	71	127
247.81419501133786	248.18571428571428	51	127
247.81419501133786	248.18571428571428	47	127
248.3134240362812	248.58045351473922	51	127
248.3134240362812	248.58045351473922	47	127
248.70816326530613	248.98680272108842	51	127
248.70816326530613	248.98680272108842	47	127
249.0912925170068	249.64857142857142	51	127
249.0912925170068	249.64857142857142	47	127
249.4744217687075	249.89238095238096	78	127
249.9039909297052	250.25229024943312	75	127
250.31034013605444	251.72675736961452	71	127
250.31034013605444	250.5309297052154	51	127
250.31034013605444	250.5309297052154	47	127
250.64702947845805	250.89083900226757	47	127
250.64702947845805	250.89083900226757	51	127
251.01854875283448	251.27396825396826	47	127
251.01854875283448	251.27396825396826	51	127
251.39006802721087	251.9473469387755	47	127
251.39006802721087	251.9473469387755	51	127
251.7383673469388	252.10988662131518	75	127
252.12149659863945	252.46979591836734	71	127
252.4814058956916	255.82507936507938	64	127
252.4814058956916	252.80648526077098	52	127
252.4814058956916	252.80648526077098	47	127
252.4814058956916	254.01392290249433	58	127
252.91097505668935	253.1431746031746	52	127
252.91097505668935	253.1431746031746	47	127
253.24766439909297	253.47986394557824	47	127
253.24766439909297	253.47986394557824	52	127
253.59596371882085	254.1880725623583	52	127
253.59596371882085	254.1880725623583	47	127
254.0255328798186	254.35061224489795	64	127
254.38544217687075	254.73374149659864	61	127
254.7453514739229	255.05882086167802	52	127
254.7453514739229	255.05882086167802	47	127
254.7453514739229	256.1965986394558	58	127
255.16331065759638	255.4071201814059	52	127
255.16331065759638	255.4071201814059	47	127
255.51160997732427	255.73219954648525	47	127
255.51160997732427	255.73219954648525	52	127
255.8482993197279	256.42879818594105	52	127
255.8482993197279	256.42879818594105	47	127
255.8482993197279	257.11378684807255	70	127
256.20820861678004	256.6261678004535	61	127
256.68419501133786	257.11378684807255	66	127
257.1253968253968	258.65791383219954	71	127
257.1253968253968	257.3924036281179	51	127
257.1253968253968	257.3924036281179	47	127
257.1253968253968	258.65791383219954	66	127
257.4968934240363	257.75233560090703	47	127
257.4968934240363	257.75233560090703	51	127
257.86843537414967	258.10063492063495	51	127
257.86843537414967	258.10063492063495	47	127
258.19351473922904	258.855283446712	47	127
258.19351473922904	258.855283446712	51	127
258.6695238095238	259.06426303854875	83	127
258.6695238095238	259.06426303854875	63	127
259.075873015873	259.4357823129252	66	127
259.075873015873	259.4357823129252	78	127
259.44736961451247	260.8753968253968	75	127
259.44736961451247	259.6795918367347	51	127
259.44736961451247	259.6795918367347	47	127
259.44736961451247	260.8753968253968	59	127
259.7956916099773	260.0278911564626	47	127
259.7956916099773	260.0278911564626	51	127
260.13238095238097	260.41102040816327	51	127
260.13238095238097	260.41102040816327	47	127
260.5271201814059	261.09600907029477	51	127
260.5271201814059	261.09600907029477	47	127
260.8753968253968	261.3049886621315	78	127
260.8753968253968	261.3049886621315	63	127
261.3165986394558	261.6532879818594	75	127
261.3165986394558	261.6532879818594	66	127
261.6648979591837	263.8824036281179	70	127
261.6648979591837	261.9087074829932	52	127
261.6648979591837	261.9087074829932	47	127
261.6648979591837	263.15097505668933	66	127
262.0364172335601	262.3150566893424	47	127
262.0364172335601	262.3150566893424	52	127
262.45437641723356	262.68657596371884	52	127
262.45437641723356	262.68657596371884	47	127
262.82589569160996	263.31351473922905	52	127
262.82589569160996	263.31351473922905	47	127
263.1625850340136	263.54571428571427	76	127
263.54571428571427	263.8824036281179	73	127
263.8940136054422	264.95052154195014	73	127
263.8940136054422	264.13782312925173	52	127
263.8940136054422	264.13782312925173	47	127
263.8940136054422	264.2307029478458	70	127
264.2422902494331	264.4745124716553	52	127
264.2422902494331	264.4745124716553	47	127
264.2422902494331	264.5673922902494	76	127
264.5790022675737	264.84603174603177	52	127
264.5790022675737	264.84603174603177	47	127
264.5790022675737	264.95052154195014	73	127
264.9621088435374	266.3088888888889	78	127
264.9621088435374	265.3452607709751	70	127
264.9621088435374	265.5310204081633	52	127
264.9621088435374	265.5310204081633	47	127
265.3684580498866	265.8792970521542	73	127
265.8909297052154	266.3088888888889	70	127
266.3088888888889	268.67732426303854	66	127
266.3088888888889	268.67732426303854	63	127
266.3088888888889	266.5178684807256	78	127
266.3088888888889	268.67732426303854	71	127
266.5178684807256	266.57591836734696	80	127
266.57591836734696	266.6571882086168	78	127
266.6571882086168	266.7152380952381	80	127
266.7152380952381	266.7732879818594	78	127
266.7732879818594	266.842947845805	80	127
266.842947845805	266.90097505668933	78	127
266.90097505668933	266.9590476190476	80	127
266.9590476190476	267.10995464852607	78	127
267.10995464852607	267.17963718820863	80	127
267.17963718820863	267.2492970521542	78	127
267.2492970521542	267.3189342403628	80	127
267.3189342403628	267.3770068027211	78	127
267.3770068027211	267.44666666666666	80	127
267.44666666666666	267.5163038548753	78	127
267.5163038548753	267.58598639455784	80	127
267.58598639455784	267.6440362811791	78	127
267.6440362811791	267.725283446712	80	127
267.725283446712	267.80657596371884	78	127
267.80657596371884	267.86462585034013	80	127
267.86462585034013	267.9226530612245	78	127
267.9226530612245	267.99233560090704	80	127
267.99233560090704	268.07360544217687	78	127
268.07360544217687	268.14326530612243	80	127
268.14326530612243	268.21292517006805	78	127
268.21292517006805	268.2941950113379	80	127
268.2941950113379	268.36385487528344	78	127
268.36385487528344	268.43349206349205	80	127
268.43349206349205	268.5031746031746	78	127
268.5031746031746	268.5612244897959	80	127
268.5612244897959	268.61927437641725	78	127
268.61927437641725	268.6889342403628	80	127
268.6889342403628	270.94126984126984	64	127
268.6889342403628	270.94126984126984	61	127
268.6889342403628	268.7585941043084	78	127
268.6889342403628	270.94126984126984	70	127
268.7585941043084	268.828253968254	80	127
268.828253968254	268.9095238095238	78	127
268.9095238095238	268.9675736961451	80	127
268.9675736961451	269.0372335600907	78	127
269.0372335600907	269.095283446712	80	127
269.095283446712	269.15331065759636	78	127
269.15331065759636	269.2229931972789	80	127
269.2229931972789	269.2810430839002	78	127
269.2810430839002	269.3739229024943	80	127
269.3739229024943	269.44358276643993	78	127
269.44358276643993	269.52485260770976	80	127
269.52485260770976	269.6061224489796	78	127
269.6061224489796	269.66414965986394	80	127
269.66414965986394	269.72222222222223	78	127
269.72222222222223	269.83832199546487	80	127
269.83832199546487	269.89637188208616	78	127
269.89637188208616	269.9660317460318	80	127
269.9660317460318	270.02408163265306	78	127
270.02408163265306	270.12857142857143	80	127
270.12857142857143	270.198231292517	78	127
270.198231292517	270.25628117913834	80	127
270.25628117913834	270.31433106575963	78	127
270.31433106575963	270.418820861678	80	127
270.418820861678	270.50009070294783	78	127
270.50009070294783	270.5813378684807	77	127
270.5813378684807	270.66263038548755	78	127
270.66263038548755	270.94126984126984	80	127
270.9528798185941	273.1355555555556	67	127
270.9528798185941	273.1355555555556	64	127
270.9528798185941	273.1355555555556	82	127
270.9528798185941	273.1355555555556	73	127
273.14714285714285	275.59684807256235	66	127
273.14714285714285	275.59684807256235	83	127
273.14714285714285	275.59684807256235	71	127
273.14714285714285	275.59684807256235	63	127
275.59684807256235	278.1162358276644	67	127
275.59684807256235	278.1162358276644	76	127
275.59684807256235	278.1162358276644	85	127
275.59684807256235	278.1162358276644	70	127
278.1278458049887	280.2060317460317	68	127
278.1278458049887	280.2060317460317	83	127
278.1278458049887	280.2060317460317	75	127
278.1278458049887	280.2060317460317	71	127
280.217641723356	281.21607709750566	64	127
280.217641723356	280.9722902494331	87	127
280.217641723356	281.21607709750566	68	127
280.9722902494331	281.21607709750566	85	127
281.2277097505669	284.0257142857143	66	127
281.2277097505669	284.0257142857143	83	127
281.2277097505669	284.0257142857143	75	127
281.2277097505669	285.30278911564625	66	127
284.03732426303856	285.30278911564625	54	127
284.03732426303856	285.30278911564625	82	127
284.03732426303856	285.30278911564625	73	127
285.3143990929705	286.61473922902496	64	127
286.62634920634923	289.19213151927437	62	127
286.62634920634923	289.19213151927437	78	127
286.62634920634923	289.19213151927437	47	127
289.2037641723356	293.70843537414964	43	127
289.2037641723356	291.560589569161	76	127
289.2037641723356	291.560589569161	59	127
289.2037641723356	293.70843537414964	64	127
291.560589569161	293.70843537414964	57	127
291.560589569161	292.05979591836734	81	127
291.560589569161	293.70843537414964	73	127
292.05979591836734	292.30362811791383	83	127
292.3152380952381	292.6287074829932	85	127
292.6403174603175	292.87249433106575	86	127
292.88412698412696	293.15115646258505	88	127
293.1627664399093	293.4530158730159	90	127
293.46462585034016	293.70843537414964	91	127
293.7316553287982	295.9491609977324	57	127
293.7316553287982	295.090022675737	93	127
293.7316553287982	295.9491609977324	62	127
293.7316553287982	295.9491609977324	74	127
293.7316553287982	295.9491609977324	54	127
293.7316553287982	295.9491609977324	42	127
295.10163265306124	295.34544217687073	91	127
295.357052154195	295.6705215419501	90	127
295.6705215419501	295.9491609977324	88	127
295.9607709750567	298.05056689342405	45	127
295.9607709750567	296.19297052154195	86	127
295.9607709750567	298.05056689342405	62	127
295.9607709750567	298.05056689342405	54	127
296.19297052154195	296.4367800453515	85	127
296.44836734693877	296.680589569161	83	127
296.69219954648526	296.92439909297053	81	127
296.9360090702948	297.1798185941043	79	127
297.19142857142856	297.42362811791384	78	127
297.4468480725624	297.7603174603175	76	127
297.77192743764175	298.05056689342405	74	127
298.0737868480726	300.1984126984127	55	127
298.0737868480726	298.3408163265306	73	127
298.0737868480726	300.5118820861678	45	127
298.0737868480726	300.1984126984127	64	127
298.3524263038549	298.6310657596372	71	127
298.64267573696145	298.90968253968254	69	127
298.92131519274375	299.2231746031746	67	127
299.23478458049885	299.54825396825396	66	127
299.5714739229025	299.8849433106576	64	127
299.8965532879819	300.1984126984127	62	127
300.210022675737	300.5118820861678	61	127
300.210022675737	300.5118820861678	66	127
300.210022675737	300.5118820861678	57	127
300.53510204081635	302.53201814058957	62	127
300.53510204081635	300.8950113378685	38	127
300.53510204081635	302.1488888888889	62	127
300.53510204081635	302.1488888888889	54	127
301.1039909297052	301.4290702947846	38	127
301.6148299319728	301.9863492063492	38	127
302.1604988662132	302.76421768707485	38	127
302.5552380952381	302.9731972789116	69	127
302.98480725623585	303.39115646258506	66	127
303.39115646258506	304.7843537414966	62	127
303.39115646258506	303.66979591836736	38	127
303.7742857142857	304.006485260771	38	127
304.11097505668937	304.3663945578231	38	127
304.4708843537415	304.98172335600907	38	127
304.7959637188209	305.16748299319727	66	127
305.17909297052154	305.550589569161	62	127
305.5622222222222	307.79133786848075	58	127
305.5622222222222	305.9105215419501	38	127
305.5622222222222	307.15278911564627	67	127
306.0150113378685	306.2820408163265	38	127
306.4097505668934	306.6883900226757	38	127
306.7928798185941	307.3269387755102	38	127
307.16439909297054	307.47786848072565	79	127
307.4894557823129	307.79133786848075	76	127
307.802925170068	308.03514739229024	38	127
307.802925170068	308.8594557823129	57	127
307.802925170068	309.25419501133786	73	127
308.1396371882086	308.4066666666667	38	127
308.51113378684806	308.7665759637188	38	127
308.8710657596372	309.4399319727891	38	127
308.8710657596372	310.008843537415	61	127
309.2658049886621	309.6257142857143	76	127
309.6373015873016	310.008843537415	67	127
310.02045351473924	312.19149659863945	62	127
310.02045351473924	311.5065306122449	65	127
310.02045351473924	311.5065306122449	50	127
310.02045351473924	310.3223129251701	38	127
310.42680272108845	310.64739229024946	38	127
310.7518820861678	310.97244897959183	38	127
311.0769387755102	311.6922902494331	38	127
311.51814058956916	311.8548299319728	57	127
311.51814058956916	311.8548299319728	69	127
311.86643990929707	312.19149659863945	65	127
311.86643990929707	312.19149659863945	53	127
312.19149659863945	312.5514285714286	38	127
312.19149659863945	313.73562358276644	62	127
312.19149659863945	313.73562358276644	50	127
312.19149659863945	314.4438321995465	69	127
312.19149659863945	314.4438321995465	77	127
312.702335600907	312.96938775510205	38	127
313.0738775510204	313.31766439909296	38	127
313.42215419501133	313.9329931972789	38	127
313.74725623582765	314.09555555555556	65	127
313.74725623582765	314.09555555555556	53	127
314.10716553287983	314.4438321995465	62	127
314.10716553287983	314.4438321995465	50	127
314.4554648526077	319.02979591836737	51	127
314.4554648526077	315.87185941043083	77	127
314.4554648526077	315.87185941043083	63	127
314.4554648526077	314.69927437641724	36	127
314.4554648526077	315.87185941043083	69	127
314.8037641723356	315.04757369614515	36	127
315.1520634920635	315.395873015873	36	127
315.5003628117914	316.0344217687075	36	127
315.8834693877551	316.2201814058957	87	127
315.8834693877551	316.2201814058957	69	127
316.23179138321996	316.55687074829933	72	127
316.23179138321996	316.55687074829933	84	127
316.5684807256236	316.8006575963719	41	127
316.5684807256236	316.91678004535146	75	127
316.5684807256236	317.9152380952381	81	127
316.9283900226757	317.2534693877551	69	127
316.9283900226757	317.160589569161	41	127
317.2534693877551	317.4856689342404	41	127
317.2534693877551	317.5785487528345	72	127
317.59015873015875	318.1358276643991	41	127
317.59015873015875	317.9152380952381	65	127
317.9268253968254	318.30997732426306	84	127
317.9268253968254	318.30997732426306	77	127
318.32158730158733	318.6931065759637	89	127
318.32158730158733	318.6931065759637	69	127
318.704716553288	320.88736961451247	46	127
318.704716553288	319.72639455782314	82	127
318.704716553288	319.72639455782314	70	127
319.04138321995464	319.30843537414967	50	127
319.3897052154195	319.6451247165533	50	127
319.72639455782314	320.07467120181406	50	127
320.08630385487527	320.3997732426304	74	127
320.08630385487527	320.3997732426304	52	127
320.469433106576	320.8061224489796	74	127
320.469433106576	320.8061224489796	52	127
320.8990022675737	321.22408163265305	52	127
320.8990022675737	323.0932879818594	45	127
320.8990022675737	321.22408163265305	74	127
321.2356916099773	321.49111111111114	60	127
321.2356916099773	321.49111111111114	53	127
321.2356916099773	321.49111111111114	72	127
321.5607709750567	321.81619047619046	60	127
321.5607709750567	321.81619047619046	53	127
321.5607709750567	321.81619047619046	72	127
321.94390022675736	322.35024943310657	60	127
321.94390022675736	322.22253968253966	53	127
322.35024943310657	322.6288662131519	62	127
322.35024943310657	322.6288662131519	53	127
322.6985487528345	323.02362811791386	62	127
322.6985487528345	323.02362811791386	53	127
323.1048979591837	325.25274376417235	48	127
323.1048979591837	323.44156462585033	62	127
323.1048979591837	323.44156462585033	53	127
323.45319727891155	323.7318367346939	51	127
323.45319727891155	323.7318367346939	63	127
323.7898866213152	324.08013605442176	63	127
323.7898866213152	324.08013605442176	51	127
324.17301587301586	324.5097052154195	51	127
324.52131519274377	324.7651247165533	54	127
324.52131519274377	324.7651247165533	75	127
324.8347845804989	325.1830612244898	75	127
324.8347845804989	325.1830612244898	54	127
325.2643537414966	327.34253968253967	47	127
325.2643537414966	325.62426303854875	75	127
325.2643537414966	325.62426303854875	54	127
325.635873015873	325.9261224489796	63	127
325.635873015873	325.9261224489796	55	127
325.635873015873	325.9261224489796	74	127
326.0190022675737	326.2744217687075	74	127
326.0190022675737	326.2744217687075	63	127
326.0190022675737	326.2744217687075	55	127
326.34408163265306	326.66916099773243	63	127
326.34408163265306	326.61108843537414	55	127
326.6807709750567	326.93619047619046	55	127
326.6807709750567	326.93619047619046	64	127
327.01743764172335	327.2844897959184	64	127
327.01743764172335	327.2844897959184	55	127
327.35414965986394	327.6792290249433	64	127
327.35414965986394	327.6792290249433	55	127
327.35414965986394	329.7225850340136	50	127
327.6908390022676	327.9926984126984	65	127
327.6908390022676	327.9926984126984	53	127
328.1320181405896	328.48031746031745	65	127
328.1320181405896	328.48031746031745	53	127
328.5615873015873	328.92149659863946	53	127
328.93310657596373	329.2581859410431	56	127
328.93310657596373	329.2581859410431	77	127
329.37426303854875	329.6413151927438	77	127
329.37426303854875	329.6413151927438	56	127
329.7341950113379	330.047664399093	77	127
329.7341950113379	330.047664399093	56	127
329.7341950113379	331.78916099773244	48	127
330.05927437641725	330.3495238095238	64	127
330.05927437641725	330.3495238095238	57	127
330.05927437641725	330.3495238095238	76	127
330.4540136054422	330.7326530612245	64	127
330.4540136054422	330.7326530612245	57	127
330.4540136054422	330.7326530612245	76	127
330.8139229024943	331.0693424036281	57	127
330.8139229024943	331.1390022675737	64	127
331.1390022675737	331.3944217687075	66	127
331.1390022675737	331.3944217687075	57	127
331.46408163265306	331.7311111111111	57	127
331.46408163265306	331.7311111111111	66	127
331.8007709750567	332.1142403628118	57	127
331.8007709750567	333.82090702947846	52	127
331.8007709750567	332.1142403628118	66	127
332.1258503401361	332.41609977324265	67	127
332.1258503401361	332.41609977324265	58	127
332.1258503401361	332.41609977324265	79	127
332.4973696145125	332.7760090702948	67	127
332.4973696145125	332.7760090702948	58	127
332.4973696145125	332.7760090702948	79	127
332.8456462585034	333.0778684807256	67	127
332.8456462585034	333.0778684807256	58	127
332.8456462585034	333.0778684807256	79	127
333.1591156462585	333.3913378684807	67	127
333.1591156462585	333.3913378684807	58	127
333.1591156462585	333.3913378684807	79	127
333.46097505668934	333.7628344671202	79	127
333.46097505668934	333.7628344671202	67	127
333.46097505668934	333.7628344671202	58	127
333.83251700680273	334.1227664399093	67	127
333.83251700680273	334.1227664399093	79	127
333.83251700680273	334.1227664399093	58	127
333.83251700680273	335.8526530612245	51	127
334.13437641723357	334.3897959183673	66	127
334.13437641723357	334.3897959183673	59	127
334.13437641723357	334.3897959183673	78	127
334.45945578231294	334.7497052154195	66	127
334.45945578231294	334.7497052154195	59	127
334.45945578231294	334.7497052154195	78	127
334.81936507936507	335.1560544217687	78	127
334.81936507936507	335.1560544217687	66	127
334.81936507936507	335.0979818594104	59	127
335.167664399093	335.434693877551	68	127
335.167664399093	335.434693877551	59	127
335.167664399093	335.434693877551	80	127
335.5275736961451	335.7829931972789	59	127
335.5275736961451	335.7829931972789	68	127
335.5275736961451	335.7829931972789	80	127
335.8526530612245	336.2009523809524	59	127
335.8526530612245	336.2009523809524	80	127
335.8526530612245	337.8843990929705	54	127
335.8526530612245	336.2009523809524	68	127
336.21256235827667	336.4795918367347	69	127
336.21256235827667	336.4795918367347	81	127
336.21256235827667	336.4795918367347	60	127
336.54925170068026	336.8394784580499	60	127
336.54925170068026	336.8394784580499	81	127
336.54925170068026	336.8394784580499	69	127
336.9207709750567	337.17619047619047	60	127
336.9207709750567	337.17619047619047	81	127
336.9207709750567	337.17619047619047	69	127
337.2458276643991	337.5128798185941	60	127
337.2458276643991	337.5128798185941	81	127
337.2458276643991	337.5128798185941	69	127
337.5825396825397	337.8379591836735	60	127
337.5825396825397	337.8379591836735	81	127
337.5825396825397	337.8379591836735	69	127
337.8843990929705	339.9045124716553	53	127
337.8843990929705	338.1978684807256	81	127
337.8843990929705	338.1978684807256	69	127
337.8843990929705	338.1978684807256	60	127
338.2094784580499	338.4881179138322	68	127
338.2094784580499	338.4881179138322	61	127
338.2094784580499	338.4881179138322	80	127
338.5577777777778	338.82480725623583	80	127
338.5577777777778	338.82480725623583	68	127
338.5577777777778	338.82480725623583	61	127
338.8944671201814	339.2427664399093	68	127
338.8944671201814	339.2427664399093	80	127
338.8944671201814	339.2427664399093	61	127
339.2543764172336	339.50979591836733	62	127
339.2543764172336	339.50979591836733	71	127
339.2543764172336	339.50979591836733	83	127
339.57945578231295	339.846485260771	83	127
339.57945578231295	339.846485260771	71	127
339.57945578231295	339.846485260771	62	127
339.91614512471654	340.2528344671202	56	127
339.91614512471654	340.2528344671202	83	127
339.91614512471654	340.2528344671202	71	127
339.91614512471654	340.2528344671202	62	127
340.26444444444445	340.508253968254	86	127
340.26444444444445	340.508253968254	74	127
340.26444444444445	340.5663038548753	65	127
340.26444444444445	340.5663038548753	56	127
340.57791383219956	340.85655328798185	86	127
340.57791383219956	340.85655328798185	74	127
340.57791383219956	340.9146031746032	62	127
340.57791383219956	340.9146031746032	71	127
340.57791383219956	340.9146031746032	56	127
340.92619047619047	341.2745124716553	86	127
340.92619047619047	341.2745124716553	74	127
340.92619047619047	341.2745124716553	62	127
340.92619047619047	341.2745124716553	71	127
340.92619047619047	341.2745124716553	56	127
341.2861224489796	341.5415192743764	89	127
341.2861224489796	341.5415192743764	77	127
341.2861224489796	341.611201814059	62	127
341.2861224489796	341.611201814059	71	127
341.2861224489796	341.611201814059	56	127
341.62281179138324	341.88984126984127	89	127
341.62281179138324	341.88984126984127	77	127
341.62281179138324	341.9478684807256	62	127
341.62281179138324	341.9478684807256	71	127
341.62281179138324	341.9478684807256	56	127
341.95950113378683	342.2845804988662	89	127
341.95950113378683	342.2845804988662	77	127
341.95950113378683	342.2845804988662	62	127
341.95950113378683	342.2845804988662	71	127
341.95950113378683	342.2845804988662	56	127
342.2961904761905	342.5516099773243	92	127
342.2961904761905	342.5516099773243	80	127
342.2961904761905	342.62126984126985	62	127
342.2961904761905	342.62126984126985	71	127
342.2961904761905	342.62126984126985	56	127
342.6328798185941	342.8882993197279	92	127
342.6328798185941	342.8882993197279	80	127
342.6328798185941	342.9463492063492	62	127
342.6328798185941	342.9463492063492	71	127
342.6328798185941	342.9463492063492	56	127
342.9579591836735	343.3178684807256	92	127
342.9579591836735	343.3178684807256	80	127
342.9579591836735	343.3178684807256	62	127
342.9579591836735	343.3178684807256	71	127
342.9579591836735	343.3178684807256	56	127
343.3294784580499	343.6081179138322	95	127
343.3294784580499	343.6081179138322	83	127
343.3294784580499	343.6777777777778	62	127
343.3294784580499	343.6777777777778	71	127
343.3294784580499	343.6777777777778	56	127
343.6893650793651	344.0028571428571	89	127
343.6893650793651	344.0028571428571	77	127
343.6893650793651	344.084126984127	62	127
343.6893650793651	344.084126984127	71	127
343.6893650793651	344.084126984127	56	127
344.0957142857143	344.44403628117914	57	127
344.0957142857143	344.44403628117914	78	127
344.0957142857143	344.44403628117914	61	127
344.0957142857143	345.44249433106575	90	127
344.4556462585034	344.79233560090705	61	127
344.4556462585034	344.79233560090705	57	127
344.4556462585034	344.79233560090705	66	127
344.8039229024943	345.1173922902494	66	127
344.8039229024943	345.1173922902494	61	127
344.8039229024943	345.1173922902494	57	127
345.12902494331064	345.44249433106575	66	127
345.12902494331064	345.44249433106575	61	127
345.12902494331064	345.44249433106575	57	127
345.45410430839	345.7791836734694	66	127
345.45410430839	345.7211337868481	85	127
345.45410430839	345.7791836734694	61	127
345.45410430839	345.7791836734694	57	127
345.79079365079366	346.0578231292517	81	127
345.79079365079366	346.1274829931973	66	127
345.79079365079366	346.1274829931973	61	127
345.79079365079366	346.1274829931973	57	127
346.1390702947846	346.41773242630387	78	127
346.1390702947846	346.48739229024943	66	127
346.1390702947846	346.48739229024943	61	127
346.1390702947846	346.48739229024943	57	127
346.48739229024943	346.83569160997735	66	127
346.48739229024943	346.777641723356	73	127
346.48739229024943	346.83569160997735	61	127
346.48739229024943	346.83569160997735	57	127
346.8473015873016	347.1259410430839	69	127
346.8473015873016	347.17238095238093	66	127
346.8473015873016	347.17238095238093	61	127
346.8473015873016	347.17238095238093	57	127
347.1839909297052	347.4161904761905	66	127
347.1839909297052	347.48585034013604	66	127
347.1839909297052	347.48585034013604	61	127
347.1839909297052	347.48585034013604	57	127
347.4974603174603	347.7528798185941	61	127
347.4974603174603	347.8225396825397	66	127
347.4974603174603	347.8225396825397	61	127
347.4974603174603	347.8225396825397	57	127
347.83414965986395	348.11278911564625	57	127
347.83414965986395	348.24049886621316	66	127
347.83414965986395	348.24049886621316	61	127
347.83414965986395	348.24049886621316	57	127
348.2521088435374	348.5771882086168	67	127
348.2521088435374	348.5771882086168	62	127
348.2521088435374	348.5771882086168	59	127
348.2521088435374	349.62208616780043	55	127
348.5887755102041	348.9022448979592	62	127
348.5887755102041	348.9022448979592	59	127
348.5887755102041	348.9022448979592	47	127
348.9022448979592	349.2621768707483	62	127
348.9022448979592	349.2621768707483	59	127
348.9022448979592	349.2621768707483	47	127
349.2737868480726	349.7962358276644	59	127
349.2737868480726	349.7962358276644	47	127
349.2737868480726	349.7962358276644	62	127
349.6336961451247	350.0168253968254	59	127
350.0284126984127	350.41156462585036	62	127
350.42317460317463	350.7714739229025	49	127
350.42317460317463	351.78154195011336	53	127
350.78308390022676	351.1197732426304	59	127
350.78308390022676	351.1197732426304	49	127
351.13138321995467	351.42163265306124	59	127
351.13138321995467	351.42163265306124	49	127
351.4332426303855	351.95569160997735	59	127
351.4332426303855	351.95569160997735	49	127
351.4332426303855	353.45337868480726	85	127
351.78154195011336	352.118231292517	56	127
352.1298412698413	352.4433106575964	61	127
352.45492063492065	352.7567800453515	49	127
352.45492063492065	352.7567800453515	57	127
352.45492063492065	352.7567800453515	66	127
352.45492063492065	352.7567800453515	45	127
352.76839002267576	353.10507936507935	66	127
352.76839002267576	353.10507936507935	49	127
352.76839002267576	353.10507936507935	45	127
352.76839002267576	353.10507936507935	57	127
353.1166893424036	353.45337868480726	57	127
353.1166893424036	353.45337868480726	66	127
353.1166893424036	353.45337868480726	49	127
353.1166893424036	353.45337868480726	45	127
353.46498866213153	353.7204081632653	90	127
353.46498866213153	353.77845804988664	57	127
353.46498866213153	353.77845804988664	66	127
353.46498866213153	353.77845804988664	49	127
353.46498866213153	353.77845804988664	45	127
353.7900680272109	354.05709750566893	85	127
353.7900680272109	354.1267573696145	57	127
353.7900680272109	354.1267573696145	66	127
353.7900680272109	354.1267573696145	49	127
353.7900680272109	354.1267573696145	45	127
354.13836734693876	354.4750566893424	49	127
354.13836734693876	354.40539682539685	81	127
354.13836734693876	354.4750566893424	57	127
354.13836734693876	354.4750566893424	66	127
354.13836734693876	354.4750566893424	45	127
354.4866666666667	354.8001360544218	57	127
354.4866666666667	354.8001360544218	66	127
354.4866666666667	354.8001360544218	49	127
354.4866666666667	354.7304535147392	78	127
354.4866666666667	354.8001360544218	45	127
354.8001360544218	355.05555555555554	73	127
354.8001360544218	355.1136054421769	57	127
354.8001360544218	355.1136054421769	66	127
354.8001360544218	355.1136054421769	49	127
354.8001360544218	355.1136054421769	45	127
355.12521541950116	355.3806349206349	69	127
355.12521541950116	355.4502947845805	57	127
355.12521541950116	355.4502947845805	66	127
355.12521541950116	355.4502947845805	49	127
355.12521541950116	355.4502947845805	45	127
355.46190476190475	355.72893424036283	66	127
355.46190476190475	355.7985941043084	57	127
355.46190476190475	355.7985941043084	66	127
355.46190476190475	355.7985941043084	49	127
355.46190476190475	355.7985941043084	45	127
355.81020408163266	356.13528344671204	49	127
355.81020408163266	356.0772335600907	61	127
355.81020408163266	356.13528344671204	57	127
355.81020408163266	356.13528344671204	66	127
355.81020408163266	356.13528344671204	45	127
356.1468934240363	356.50680272108843	57	127
356.1468934240363	356.44875283446714	57	127
356.1468934240363	356.50680272108843	49	127
356.1468934240363	356.50680272108843	45	127
356.1468934240363	356.50680272108843	66	127
356.5184126984127	356.8318820861678	67	127
356.5184126984127	357.8767800453515	55	127
356.5184126984127	356.8318820861678	50	127
356.5184126984127	356.8318820861678	45	127
356.8434920634921	357.16857142857145	47	127
356.8434920634921	357.16857142857145	62	127
356.8434920634921	357.16857142857145	59	127
357.16857142857145	357.49362811791383	59	127
357.16857142857145	357.49362811791383	47	127
357.16857142857145	357.49362811791383	62	127
357.50526077097504	358.03931972789115	62	127
357.50526077097504	358.03931972789115	47	127
357.88839002267576	358.20183673469387	59	127
358.2134693877551	358.5501587301587	62	127
358.561768707483	358.8868480725624	49	127
358.561768707483	359.9665759637188	53	127
358.89845804988664	359.30480725623585	49	127
359.3164172335601	359.64149659863943	49	127
359.64149659863943	359.9665759637188	65	127
359.64149659863943	360.17555555555555	49	127
359.9781859410431	360.34968253968253	68	127
359.9781859410431	360.34968253968253	56	127
360.36131519274375	360.72122448979593	73	127
360.36131519274375	360.72122448979593	61	127
360.7328344671202	362.1144217687075	54	127
360.7328344671202	362.1144217687075	66	127
361.0579138321996	361.39460317460316	45	127
361.40621315192743	361.75451247165535	45	127
361.7661224489796	362.358231292517	45	127
362.1144217687075	362.5439909297052	69	127
362.1144217687075	362.5439909297052	57	127
362.5556009070295	362.9038775510204	60	127
362.5556009070295	362.9038775510204	72	127
362.9155102040816	364.3087074829932	63	127
362.9155102040816	364.3087074829932	51	127
363.25219954648526	363.6004988662132	47	127
363.61210884353744	363.94879818594103	47	127
363.9604081632653	364.4712471655329	47	127
364.3203174603175	364.6337868480726	66	127
364.3203174603175	364.6337868480726	54	127
364.64537414965986	364.9704761904762	71	127
364.64537414965986	364.9704761904762	59	127
364.98208616780045	368.87142857142857	47	127
364.98208616780045	366.61909297052154	72	127
365.4000453514739	365.84122448979593	63	127
365.4000453514739	365.84122448979593	57	127
365.8528344671202	366.1778911564626	64	127
365.8528344671202	366.1778911564626	55	127
366.1895238095238	367.81489795918367	66	127
366.1895238095238	367.81489795918367	54	127
366.65392290249434	366.74680272108844	74	127
366.74680272108844	367.0834920634921	72	127
367.09507936507936	367.46662131519275	71	127
367.478231292517	368.87142857142857	72	127
367.8265306122449	368.1632199546485	54	127
367.8265306122449	368.1632199546485	66	127
368.1748299319728	368.5231065759637	67	127
368.1748299319728	368.5231065759637	52	127
368.534716553288	370.0208163265306	69	127
368.534716553288	370.0208163265306	51	127
368.88303854875284	369.2661678004535	47	127
368.88303854875284	368.9991383219955	74	127
368.9991383219955	369.2661678004535	72	127
369.27777777777777	369.6144671201814	47	127
369.27777777777777	369.6144671201814	71	127
369.6260770975057	373.3528798185941	47	127
369.6260770975057	371.2166439909297	72	127
370.0324263038549	370.41555555555556	63	127
370.0324263038549	370.41555555555556	57	127
370.4271655328798	370.8102947845805	64	127
370.4271655328798	370.8102947845805	55	127
370.83351473922903	372.2615419501134	54	127
370.83351473922903	372.2615419501134	66	127
371.2166439909297	371.2979138321995	74	127
371.2979138321995	371.58816326530615	72	127
371.5997505668934	371.92485260770974	71	127
371.936462585034	373.3528798185941	72	127
372.27315192743765	372.6098412698413	66	127
372.27315192743765	372.6098412698413	54	127
372.62142857142857	372.9697505668934	67	127
372.62142857142857	372.9697505668934	52	127
372.9813605442177	373.3528798185941	69	127
372.9813605442177	373.3528798185941	51	127
373.36448979591836	373.434126984127	74	127
373.36448979591836	373.7475963718821	69	127
373.36448979591836	373.7475963718821	51	127
373.36448979591836	373.7475963718821	47	127
373.434126984127	373.7475963718821	72	127
373.7475963718821	374.1191383219955	51	127
373.7475963718821	374.1191383219955	47	127
373.7475963718821	374.1191383219955	69	127
373.7475963718821	374.1191383219955	71	127
374.13074829931975	378.39160997732426	64	127
374.13074829931975	378.39160997732426	48	127
374.13074829931975	378.3683900226757	69	127
374.13074829931975	378.3683900226757	76	127
374.13074829931975	378.3683900226757	52	127
374.13074829931975	378.38	69	127
378.5077097505669	379.0069387755102	54	127
378.5077097505669	378.77473922902493	75	127
378.5077097505669	378.8327891156463	47	127
378.5077097505669	379.0069387755102	71	127
378.84439909297055	378.9140589569161	62	127
378.9140589569161	379.12303854875285	60	127
379.18108843537414	379.3784580498866	59	127
379.4597278911565	381.735283446712	60	127
379.7848072562358	379.8544671201814	59	127
379.8544671201814	380.0518367346939	57	127
380.0982766439909	380.34208616780046	56	127
380.411746031746	380.7368253968254	57	127
380.74843537414966	380.80648526077096	55	127
380.80648526077096	381.06190476190477	54	127
381.07351473922904	381.4102040816326	53	127
381.4218140589569	381.735283446712	54	127
381.7468934240363	382.13002267573694	59	127
381.7468934240363	382.13002267573694	57	127
381.7468934240363	382.13002267573694	51	127
381.7468934240363	382.13002267573694	47	127
382.1416326530612	382.53637188208614	59	127
382.1416326530612	382.53637188208614	55	127
382.1416326530612	382.53637188208614	52	127
382.1416326530612	382.53637188208614	47	127
382.5479818594104	386.9017233560091	48	127
382.5479818594104	386.9017233560091	64	127
382.5479818594104	386.9017233560091	57	127
382.5479818594104	386.9017233560091	52	127
382.5479818594104	386.9017233560091	36	127
387.06426303854875	388.09755102040816	59	127
387.06426303854875	388.09755102040816	54	127
387.06426303854875	388.09755102040816	47	127
387.06426303854875	388.09755102040816	63	127
388.10916099773243	388.95668934240365	59	127
388.9682993197279	389.2469387755102	47	127
389.2469387755102	390.3498866213152	47	127
389.2469387755102	390.3498866213152	72	127
389.2469387755102	390.3498866213152	63	127
389.2469387755102	390.3498866213152	69	127
389.2469387755102	390.3498866213152	66	127
390.36149659863946	391.1625850340136	59	127
391.1741950113379	391.5108843537415	47	127
391.5224943310658	392.63705215419503	71	127
391.5224943310658	392.63705215419503	59	127
391.5224943310658	392.63705215419503	67	127
391.5224943310658	392.63705215419503	64	127
391.5224943310658	392.63705215419503	47	127
392.6486621315193	393.4729705215419	59	127
393.4729705215419	393.80965986394557	47	127
393.82126984126984	394.88938775510206	66	127
393.82126984126984	394.88938775510206	69	127
393.82126984126984	394.88938775510206	60	127
393.82126984126984	394.88938775510206	63	127
393.82126984126984	394.88938775510206	47	127
394.9009977324263	395.72530612244896	59	127
395.7485260770975	395.98072562358277	47	127
395.99233560090704	397.0720634920635	59	127
395.99233560090704	397.0720634920635	64	127
395.99233560090704	397.0720634920635	59	127
395.99233560090704	397.0720634920635	67	127
395.99233560090704	397.0720634920635	47	127
397.08367346938775	397.89637188208616	59	127
397.9079818594104	398.16340136054424	47	127
398.17501133786845	399.25473922902495	60	127
398.17501133786845	399.25473922902495	66	127
398.17501133786845	399.25473922902495	57	127
398.17501133786845	399.25473922902495	63	127
398.17501133786845	399.25473922902495	47	127
399.2663492063492	400.0209977324263	59	127
400.03260770975055	400.6363265306122	47	127
400.6479365079365	401.6347845804989	59	127
400.6479365079365	401.6347845804989	64	127
400.6479365079365	401.6347845804989	55	127
400.6479365079365	401.6347845804989	59	127
400.6479365079365	401.6347845804989	47	127
401.64639455782316	402.4474829931973	59	127
402.45909297052157	402.73773242630386	47	127
402.74934240362813	403.759410430839	47	127
402.74934240362813	403.759410430839	55	127
402.74934240362813	403.759410430839	64	127
402.74934240362813	403.759410430839	61	127
402.74934240362813	403.759410430839	58	127
403.7710204081633	404.68820861678006	59	127
404.69981859410433	405.18743764172336	47	127
405.19904761904763	406.23233560090705	59	127
405.19904761904763	405.69827664399094	47	127
405.19904761904763	406.23233560090705	54	127
405.19904761904763	406.23233560090705	63	127
405.9885260770975	406.16267573696143	46	127
406.23233560090705	406.7663945578231	47	127
407.04503401360546	407.38172335600905	46	127
407.55587301587303	412.2463038548753	72	127
407.55587301587303	408.10154195011336	47	127
408.3801814058957	408.55433106575964	46	127
408.63560090702947	409.27414965986395	47	127
409.55278911564625	409.81981859410433	46	127
409.8894784580499	410.469977324263	47	127
409.8894784580499	412.2463038548753	64	127
410.7370068027211	410.9343764172336	45	127
411.1665759637188	411.7122448979592	47	127
411.9792743764172	412.17664399092973	45	127
412.25791383219956	412.95451247165533	47	127
412.25791383219956	414.71922902494333	59	127
412.25791383219956	414.71922902494333	66	127
412.25791383219956	414.71922902494333	63	127
412.25791383219956	415.90344671201814	71	127
413.3028117913832	413.51179138321993	45	127
413.58145124716555	414.12712018140587	47	127
414.45219954648525	414.661179138322	45	127
414.7308390022676	415.57836734693876	44	127
414.7308390022676	417.28503401360547	64	127
414.7308390022676	415.90344671201814	68	127
415.58997732426303	415.8337868480726	47	127
415.9150566893424	416.9599546485261	45	127
415.9150566893424	418.53891156462583	71	127
416.7045351473923	417.28503401360547	56	127
416.97156462585036	417.21537414965985	44	127
417.2966439909297	419.7115192743764	63	127
417.2966439909297	419.7115192743764	54	127
417.2966439909297	418.237052154195	42	127
418.24866213151927	418.4228117913832	40	127
418.5505215419501	419.42126984126986	39	127
418.5505215419501	419.7115192743764	69	127
419.43287981859413	419.6418594104308	37	127
419.7231292517007	420.5474376417234	36	127
419.7231292517007	420.8260770975057	68	127
419.7231292517007	422.11478458049885	66	127
419.7231292517007	422.11478458049885	56	127
420.55904761904765	420.74480725623584	44	127
420.83768707482994	421.8477551020408	46	127
420.83768707482994	423.3222222222222	75	127
421.8593650793651	422.05673469387756	48	127
422.1263945578231	423.06680272108844	49	127
422.1263945578231	424.5877097505669	64	127
422.1263945578231	424.5877097505669	49	127
422.7068934240363	422.8926530612245	47	127
423.33383219954646	424.3090702947846	45	127
423.33383219954646	425.77192743764175	73	127
424.32068027210886	424.5180498866213	44	127
424.5877097505669	426.86326530612246	69	127
424.5877097505669	425.45845804988664	42	127
424.5877097505669	425.77192743764175	57	127
425.47006802721086	425.70226757369613	47	127
425.78353741496596	426.58462585034016	49	127
425.78353741496596	426.86326530612246	78	127
425.78353741496596	426.86326530612246	54	127
426.5962358276644	426.7936054421769	51	127
426.8748752834467	428.1635827664399	56	127
426.8748752834467	427.7920634920635	52	127
426.8748752834467	428.1635827664399	68	127
426.8748752834467	428.1635827664399	76	127
427.8036734693878	428.1055328798186	51	127
428.17519274376417	429.4174603174603	61	127
428.17519274376417	429.05755102040814	71	127
428.17519274376417	429.05755102040814	80	127
428.17519274376417	429.05755102040814	49	127
429.05755102040814	429.2897505668934	45	127
429.05755102040814	429.4174603174603	69	127
429.05755102040814	429.4174603174603	78	127
429.44068027210886	431.78589569161	76	127
429.44068027210886	430.4275283446712	47	127
429.44068027210886	431.78589569161	68	127
429.44068027210886	432.49410430839004	49	127
430.4391383219955	430.62489795918367	52	127
430.69455782312923	431.54208616780045	56	127
431.5536961451247	431.72784580498865	58	127
431.79750566893426	432.8307936507936	59	127
431.79750566893426	433.2255328798186	66	127
431.79750566893426	433.2255328798186	75	127
432.8424036281179	433.14426303854873	57	127
433.2371428571429	434.1078911564626	56	127
433.2371428571429	434.3749206349206	74	127
434.11950113378686	434.30526077097505	54	127
434.3865306122449	438.1365532879819	73	127
434.3865306122449	435.43142857142857	53	127
434.3865306122449	436.75496598639455	71	127
435.44303854875284	435.61718820861677	51	127
435.6984580498866	436.75496598639455	56	127
435.6984580498866	436.4879365079365	49	127
436.4995464852608	436.6736961451247	53	127
436.7665759637188	439.36721088435377	69	127
436.7665759637188	437.76503401360543	54	127
436.7665759637188	438.1365532879819	54	127
437.7766439909297	438.0436734693877	52	127
438.1481632653061	439.05374149659866	72	127
438.1481632653061	439.05374149659866	51	127
438.1481632653061	439.36721088435377	57	127
439.06535147392293	439.36721088435377	73	127
439.06535147392293	439.2743310657596	49	127
439.39043083900225	440.2263492063492	48	127
439.39043083900225	441.805306122449	66	127
439.39043083900225	441.805306122449	75	127
439.39043083900225	441.805306122449	56	127
440.23795918367347	440.56303854875284	46	127
440.6326984126984	441.51505668934243	44	127
441.52666666666664	441.74725623582765	42	127
441.81691609977327	444.3943310657596	68	127
441.81691609977327	442.8153741496599	40	127
441.81691609977327	444.3943310657596	56	127
441.81691609977327	443.1520634920635	76	127
442.8966439909297	443.0824036281179	39	127
443.1520634920635	444.13891156462586	37	127
443.1520634920635	444.3943310657596	78	127
444.1505215419501	444.32467120181406	36	127
444.4059410430839	446.82081632653063	76	127
444.4059410430839	445.27668934240364	37	127
444.4059410430839	445.5669387755102	61	127
444.4059410430839	446.82081632653063	64	127
445.2882993197279	445.4856689342404	40	127
445.5785487528345	446.484126984127	46	127
445.5785487528345	446.82081632653063	58	127
446.5073469387755	446.751156462585	49	127
446.8324263038549	447.78444444444443	47	127
446.8324263038549	448.06308390022673	81	127
446.8324263038549	448.06308390022673	57	127
446.8324263038549	449.1195918367347	66	127
447.7960544217687	447.99342403628117	51	127
448.074693877551	449.1195918367347	54	127
448.074693877551	449.1195918367347	78	127
448.074693877551	449.1195918367347	57	127
449.13120181405895	449.5607709750567	80	127
449.13120181405895	449.47950113378687	59	127
449.13120181405895	449.5607709750567	68	127
449.13120181405895	449.5607709750567	59	127
449.57238095238097	450.6985487528345	64	127
449.57238095238097	450.16448979591837	40	127
449.57238095238097	450.6985487528345	56	127
449.57238095238097	451.81310657596373	76	127
450.4315192743764	450.64049886621314	56	127
450.71015873015875	451.26743764172335	52	127
451.5576870748299	451.7318367346939	56	127
451.824716553288	454.0886621315193	80	127
451.824716553288	452.4168253968254	47	127
452.7419047619048	452.927664399093	56	127
452.99732426303854	453.5429931972789	52	127
453.8332426303855	454.0073922902494	56	127
454.0886621315193	456.5848072562358	71	127
454.0886621315193	457.6877551020408	83	127
454.0886621315193	454.738820861678	47	127
455.02907029478456	455.3077097505669	54	127
455.38897959183674	456.0043083900227	51	127
456.2713378684807	456.4454875283447	54	127
456.5964172335601	459.0461224489796	75	127
456.5964172335601	457.16530612244895	47	127
457.4439455782313	457.6297052154195	57	127
457.69936507936507	458.3263038548753	54	127
457.69936507936507	458.6629931972789	85	127
458.6629931972789	458.9068027210884	57	127
458.6629931972789	459.0461224489796	81	127
459.05773242630386	459.5801814058957	47	127
459.05773242630386	459.11578231292515	80	127
459.05773242630386	462.55233560090704	76	127
459.05773242630386	461.44938775510207	52	127
459.11578231292515	459.19705215419503	81	127
459.19705215419503	459.2551020408163	80	127
459.2551020408163	459.3247619047619	81	127
459.3247619047619	459.38281179138323	80	127
459.38281179138323	459.4524716553288	81	127
459.4524716553288	459.52213151927435	80	127
459.52213151927435	459.60340136054424	81	127
459.60340136054424	459.66145124716553	80	127
459.66145124716553	459.7311111111111	81	127
459.7311111111111	459.78916099773244	80	127
459.78916099773244	459.858820861678	81	127
459.858820861678	459.9400907029478	80	127
459.858820861678	460.0445804988662	56	127
459.9400907029478	460.0213605442177	78	127
460.0213605442177	460.1142403628118	80	127
460.1142403628118	461.10108843537415	83	127
460.1142403628118	460.7643990929705	52	127
461.1126984126984	461.3448979591837	56	127
461.1126984126984	461.44938775510207	80	127
461.4609977324263	463.89909297052156	56	127
461.4609977324263	461.9834467120181	47	127
461.4609977324263	462.55233560090704	76	127
462.2504761904762	462.4942857142857	56	127
462.5639455782313	463.5624036281179	75	127
462.5639455782313	463.27215419501135	52	127
463.58562358276646	463.89909297052156	73	127
463.58562358276646	463.82943310657595	56	127
463.9107029478458	466.25591836734696	59	127
463.9107029478458	464.5144217687075	47	127
463.9107029478458	465.0136507936508	71	127
464.76984126984127	464.9439909297052	57	127
465.0252607709751	465.55931972789114	54	127
465.0252607709751	465.81473922902495	78	127
465.8263492063492	466.1398185941043	57	127
465.8263492063492	466.25591836734696	75	127
466.2675283446712	468.5198639455782	63	127
466.2675283446712	466.85963718820864	47	127
466.2675283446712	467.3704761904762	71	127
467.1150566893424	467.31242630385486	57	127
467.3820861678005	467.91614512471654	54	127
467.3820861678005	468.2063945578231	73	127
468.2180045351474	468.5198639455782	69	127
468.2180045351474	468.4618140589569	57	127
468.5314739229025	471.0508390022676	64	127
468.5314739229025	468.6243537414966	68	127
468.5314739229025	472.1770068027211	64	127
468.5314739229025	469.1003628117914	52	127
468.6243537414966	468.70562358276646	69	127
468.70562358276646	468.76367346938775	68	127
468.76367346938775	468.8333333333333	69	127
468.8333333333333	468.89138321995466	68	127
468.89138321995466	468.9726530612245	69	127
468.9726530612245	469.04231292517005	68	127
469.04231292517005	469.11197278911567	69	127
469.11197278911567	469.1932426303855	68	127
469.1932426303855	469.2861224489796	69	127
469.2861224489796	469.4138321995465	68	127
469.4138321995465	469.48349206349206	69	127
469.48349206349206	469.5995918367347	68	127
469.48349206349206	469.6924716553288	59	127
469.5995918367347	469.68086167800453	66	127
469.68086167800453	469.76213151927436	68	127
469.76213151927436	470.58643990929704	71	127
469.76213151927436	470.2845804988662	56	127
470.5980498866213	470.99278911564625	59	127
470.5980498866213	471.0508390022676	68	127
471.06244897959186	481.91777777777776	68	127
471.06244897959186	471.6313378684807	52	127
471.06244897959186	472.1770068027211	64	127
471.89836734693876	472.1073469387755	59	127
472.1770068027211	472.7342857142857	56	127
472.1770068027211	473.0013151927438	62	127
473.012925170068	473.2451247165533	59	127
473.012925170068	473.31478458049884	61	127
473.407664399093	474.3132426303855	59	127
473.407664399093	474.06943310657596	52	127
473.407664399093	481.91777777777776	71	127
473.407664399093	475.6367800453515	76	127
474.3248526077098	474.56866213151926	57	127
474.3248526077098	474.4990022675737	62	127
474.58027210884353	475.1259410430839	59	127
474.58027210884353	475.3697505668934	56	127
475.38136054421767	475.6367800453515	54	127
475.38136054421767	475.56712018140587	62	127
475.64839002267576	476.3565986394558	52	127
475.64839002267576	476.86743764172337	80	127
475.64839002267576	476.86743764172337	52	127
476.6236281179138	476.809387755102	59	127
476.87904761904764	477.8542857142857	83	127
476.87904761904764	478.132925170068	50	127
476.87904761904764	477.4595464852608	56	127
477.86589569161	478.0748752834467	59	127
477.86589569161	478.132925170068	85	127
478.1445351473923	483.0091156462585	49	127
478.1445351473923	478.7366439909297	53	127
478.1445351473923	479.0385034013606	83	127
479.0501133786848	479.3055328798186	81	127
479.0501133786848	479.24748299319725	61	127
479.31714285714287	479.92086167800454	56	127
479.31714285714287	480.2575510204082	80	127
480.2691609977324	480.4665306122449	61	127
480.2691609977324	480.5361904761905	78	127
480.54780045351475	481.36049886621316	49	127
480.54780045351475	483.0091156462585	77	127
481.662358276644	481.8481179138322	56	127
481.91777777777776	482.71886621315195	73	127
481.91777777777776	482.42861678004533	53	127
482.73047619047617	483.0091156462585	71	127
482.73047619047617	482.9162358276644	56	127
483.0207256235828	483.62444444444446	49	127
483.0207256235828	483.9495238095238	69	127
483.0207256235828	485.4007709750567	42	127
483.0207256235828	488.1639455782313	78	127
483.96113378684805	484.2862131519274	68	127
483.96113378684805	484.21655328798187	57	127
484.2978231292517	485.1221315192744	66	127
484.2978231292517	484.82027210884354	54	127
485.13374149659865	485.4007709750567	64	127
485.13374149659865	485.3427210884354	57	127
485.41238095238094	486.63142857142856	63	127
485.41238095238094	488.1639455782313	45	127
485.41238095238094	486.00448979591835	54	127
486.3295691609977	486.561768707483	57	127
486.6430385487528	487.4673469387755	54	127
486.6430385487528	488.1639455782313	61	127
487.86208616780044	488.0710657596372	57	127
488.17555555555555	489.7661224489796	51	127
488.17555555555555	489.7661224489796	80	127
488.17555555555555	489.7661224489796	60	127
488.17555555555555	489.7661224489796	44	127
489.7777324263038	490.5904308390023	51	127
489.7777324263038	490.5904308390023	80	127
489.7777324263038	490.5904308390023	68	127
489.7777324263038	490.5904308390023	48	127
490.6020408163265	490.9271201814059	48	127
490.6020408163265	490.9271201814059	78	127
490.6020408163265	490.9271201814059	68	127
490.6020408163265	490.9271201814059	51	127
490.9271201814059	491.98362811791384	49	127
490.9271201814059	491.98362811791384	76	127
490.9271201814059	491.98362811791384	68	127
490.9271201814059	491.98362811791384	52	127
491.9952380952381	492.2738775510204	58	127
491.9952380952381	492.2738775510204	75	127
491.9952380952381	492.2738775510204	67	127
491.9952380952381	492.2738775510204	51	127
492.38997732426304	493.4000453514739	58	127
492.38997732426304	493.4000453514739	73	127
492.38997732426304	493.4000453514739	67	127
492.38997732426304	493.4000453514739	51	127
493.4116553287982	493.7599546485261	58	127
493.4116553287982	493.7599546485261	75	127
493.4116553287982	493.7599546485261	67	127
493.4116553287982	493.7599546485261	51	127
493.79478458049886	495.28086167800456	56	127
493.79478458049886	494.8861224489796	72	127
493.79478458049886	495.28086167800456	44	127
493.79478458049886	495.28086167800456	68	127
494.89773242630383	495.28086167800456	81	127
495.2924716553288	496.1632199546485	68	127
495.2924716553288	496.1632199546485	80	127
495.2924716553288	496.1632199546485	51	127
495.2924716553288	496.1632199546485	48	127
496.1632199546485	496.46507936507936	48	127
496.1632199546485	496.46507936507936	78	127
496.1632199546485	496.46507936507936	68	127
496.1632199546485	496.46507936507936	51	127
496.47668934240363	497.64929705215417	52	127
496.47668934240363	497.64929705215417	76	127
496.47668934240363	497.64929705215417	68	127
496.47668934240363	497.64929705215417	49	127
497.66090702947844	497.9975963718821	57	127
497.66090702947844	497.9975963718821	75	127
497.66090702947844	497.9975963718821	69	127
497.66090702947844	497.9975963718821	54	127
498.10208616780045	499.3559637188209	57	127
498.10208616780045	499.3559637188209	73	127
498.10208616780045	499.3559637188209	69	127
498.10208616780045	499.3559637188209	54	127
499.36757369614514	499.73909297052154	54	127
499.36757369614514	499.73909297052154	72	127
499.36757369614514	499.73909297052154	63	127
499.36757369614514	499.73909297052154	69	127
499.36757369614514	499.73909297052154	57	127
499.7507029478458	501.23678004535145	54	127
499.7507029478458	501.23678004535145	71	127
499.7507029478458	501.23678004535145	63	127
499.7507029478458	501.23678004535145	69	127
499.7507029478458	501.23678004535145	57	127
501.2483900226757	502.5138775510204	66	127
501.2483900226757	502.5138775510204	83	127
501.2483900226757	502.5138775510204	71	127
501.2483900226757	502.5138775510204	51	127
502.5254875283447	502.7692970521542	66	127
502.5254875283447	502.7692970521542	81	127
502.5254875283447	502.7692970521542	71	127
502.5254875283447	502.7692970521542	51	127
502.7692970521542	503.54716553287983	68	127
502.7692970521542	503.54716553287983	80	127
502.7692970521542	503.54716553287983	71	127
502.7692970521542	503.54716553287983	52	127
503.5587755102041	504.0231746031746	61	127
503.5587755102041	504.0231746031746	78	127
503.5587755102041	504.0231746031746	69	127
503.5587755102041	504.0231746031746	54	127
504.0580045351474	504.95197278911564	76	127
504.0580045351474	504.95197278911564	69	127
504.0580045351474	504.95197278911564	61	127
504.0580045351474	504.95197278911564	54	127
504.9635827664399	505.4163718820862	78	127
504.9635827664399	505.4163718820862	69	127
504.9635827664399	505.4163718820862	61	127
504.9635827664399	505.4163718820862	54	127
505.48603174603176	506.9256689342404	59	127
505.48603174603176	506.600589569161	75	127
505.48603174603176	510.8730612244898	59	127
505.48603174603176	506.9256689342404	71	127
506.6121995464853	506.9256689342404	84	127
506.93727891156465	507.8544671201814	83	127
506.93727891156465	507.8544671201814	66	127
506.93727891156465	507.8544671201814	63	127
507.8544671201814	508.1331065759637	81	127
507.8544671201814	508.1331065759637	66	127
507.8544671201814	508.1331065759637	63	127
508.144716553288	509.3289342403628	79	127
508.144716553288	509.3289342403628	67	127
508.144716553288	509.3289342403628	64	127
509.34054421768707	509.61918367346937	66	127
509.34054421768707	509.61918367346937	78	127
509.34054421768707	509.61918367346937	70	127
509.63079365079363	510.4899319727891	76	127
509.63079365079363	510.4899319727891	70	127
509.63079365079363	510.4899319727891	67	127
510.5015419501134	510.8730612244898	78	127
510.5015419501134	510.8730612244898	70	127
510.5015419501134	510.8730612244898	66	127
510.8962811791383	512.9628571428572	66	127
510.8962811791383	512.1269387755102	59	127
510.8962811791383	512.9628571428572	75	127
510.8962811791383	512.9628571428572	71	127
512.1385487528345	512.9628571428572	72	127
512.9744671201814	513.7871655328798	71	127
512.9744671201814	514.0890249433106	78	127
512.9744671201814	514.0890249433106	75	127
512.9744671201814	514.0890249433106	71	127
513.7987755102041	514.0890249433106	69	127
514.1006349206349	515.3545124716553	71	127
514.1006349206349	515.3545124716553	76	127
514.1006349206349	514.9946031746032	67	127
514.1006349206349	515.3545124716553	79	127
515.0062131519275	515.3545124716553	66	127
515.3661224489796	516.4922902494332	64	127
515.3661224489796	516.7477097505669	82	127
515.3661224489796	516.7477097505669	79	127
515.3661224489796	516.7477097505669	73	127
516.5039002267574	516.7477097505669	66	127
516.7477097505669	522.889387755102	83	127
516.7477097505669	517.5255782312926	63	127
516.7477097505669	517.7809977324263	78	127
516.7477097505669	517.7809977324263	66	127
517.5371655328798	517.7809977324263	64	127
517.7926077097505	518.9651927437642	63	127
517.7926077097505	518.9651927437642	78	127
517.7926077097505	518.9651927437642	66	127
518.9768027210885	519.5224943310658	76	127
518.9768027210885	519.5224943310658	64	127
518.9768027210885	519.5224943310658	68	127
519.53410430839	520.370022675737	75	127
519.53410430839	520.370022675737	66	127
519.53410430839	520.370022675737	69	127
520.3816326530613	520.8808616780045	73	127
520.3816326530613	520.8808616780045	59	127
520.3816326530613	520.8808616780045	63	127
520.8924716553288	521.9257596371882	71	127
520.8924716553288	521.9257596371882	61	127
520.8924716553288	521.9257596371882	64	127
521.9373696145125	522.2624489795918	63	127
521.9373696145125	522.2624489795918	81	127
521.9373696145125	522.2624489795918	66	127
522.2740589569161	524.9443537414966	64	127
522.2740589569161	524.9443537414966	68	127
522.2740589569161	523.5279365079365	80	127
522.9009977324263	523.2144671201814	85	127
523.2260770975057	523.5279365079365	87	127
523.5395464852608	523.9226757369614	88	127
523.9342857142857	524.6192743764173	90	127
524.6308843537415	524.9443537414966	92	127
524.9559637188208	525.3158503401361	66	127
524.9559637188208	525.3158503401361	93	127
524.9559637188208	525.3158503401361	59	127
525.3274603174603	527.9397278911565	95	127
525.3274603174603	526.2911111111111	56	127
525.3274603174603	526.2911111111111	64	127
526.418820861678	526.5581405895691	56	127
526.418820861678	526.5581405895691	59	127
526.5697505668934	527.4404988662131	64	127
526.5697505668934	527.4404988662131	56	127
527.5681859410431	527.6843083900227	63	127
527.5681859410431	527.6843083900227	66	127
527.695918367347	530.0527437641723	64	127
527.695918367347	530.0527437641723	68	127
527.9513378684808	528.183514739229	93	127
528.1951473922902	528.6131065759637	92	127
528.624716553288	528.8685260770975	90	127
528.8801360544218	529.2284353741496	88	127
529.2400453514739	529.4722448979592	87	127
529.4838548752834	530.0527437641723	85	127
530.0643537414966	530.4010430839003	69	127
530.0643537414966	530.4010430839003	83	127
530.0643537414966	530.4010430839003	66	127
530.4126530612245	532.8043083900227	68	127
530.4126530612245	530.656462585034	88	127
530.4126530612245	532.8043083900227	71	127
530.6680725623582	530.9002721088435	87	127
530.9002721088435	531.1556916099773	85	127
531.1673015873016	531.445918367347	83	127
531.445918367347	531.8755102040816	81	127
531.8871201814059	532.2470294784581	80	127
532.2586167800454	532.5488888888889	78	127
532.5604988662132	532.8043083900227	76	127
532.8391383219955	534.9289115646259	73	127
532.8391383219955	533.082925170068	75	127
532.8391383219955	534.9289115646259	69	127
533.0945351473923	533.6170068027211	73	127
533.6286167800454	534.0814058956917	72	127
534.0930158730159	534.3484353741496	73	127
534.3600453514739	534.6735147392291	77	127
534.6851247165533	534.9289115646259	78	127
534.940544217687	535.2191836734694	81	127
534.940544217687	535.9157823129252	57	127
534.940544217687	535.9157823129252	61	127
535.2307936507937	536.1828117913832	85	127
535.9273922902495	537.320589569161	64	127
535.9273922902495	537.320589569161	59	127
536.1944217687075	536.6239909297052	76	127
536.6356009070295	536.9490702947846	80	127
536.9606575963719	537.7269387755102	83	127
537.3321995464853	538.8066439909297	63	127
537.3321995464853	538.8066439909297	59	127
537.7385487528345	538.0171882086167	78	127
538.0404081632653	538.423537414966	83	127
538.4467573696145	538.8066439909297	81	127
538.818253968254	541.2795918367347	52	127
538.818253968254	541.2795918367347	80	127
538.818253968254	541.2795918367347	71	127
538.818253968254	541.2795918367347	64	127
541.2912018140589	541.5930612244898	59	127
541.2912018140589	541.5930612244898	78	127
541.2912018140589	541.5930612244898	69	127
541.2912018140589	541.5930612244898	54	127
541.8020408163266	542.7888888888889	59	127
541.8020408163266	542.7888888888889	76	127
541.8020408163266	542.7888888888889	68	127
541.8020408163266	542.7888888888889	56	127
542.9398185941043	543.0675283446712	59	127
542.9398185941043	543.0675283446712	71	127
542.9398185941043	543.0675283446712	66	127
542.9398185941043	543.0675283446712	57	127
543.0791383219955	543.9731065759637	59	127
543.0791383219955	543.9731065759637	76	127
543.0791383219955	543.9731065759637	68	127
543.0791383219955	543.9731065759637	56	127
544.1124263038549	544.2285260770975	78	127
544.1124263038549	544.2285260770975	75	127
544.1124263038549	544.2285260770975	59	127
544.1124263038549	544.2285260770975	54	127
544.2285260770975	546.5273015873016	80	127
544.2285260770975	546.5273015873016	76	127
544.2285260770975	549.4646258503401	59	127
544.2285260770975	546.5273015873016	52	127
546.5389115646259	547.0033106575963	51	127
546.5389115646259	547.0033106575963	81	127
546.5389115646259	547.0033106575963	78	127
547.0149206349206	547.955328798186	49	127
547.0149206349206	549.4646258503401	83	127
547.0149206349206	549.4646258503401	80	127
548.1294784580499	548.3848979591837	47	127
548.396507936508	549.2208163265307	45	127
549.3485260770975	549.4646258503401	44	127
549.4762358276644	551.1248526077097	85	127
549.4762358276644	550.2889342403628	57	127
549.4762358276644	550.2889342403628	42	127
549.4762358276644	551.1248526077097	81	127
550.300544217687	550.6140136054422	59	127
550.300544217687	550.6140136054422	44	127
550.6256235827665	551.1248526077097	61	127
550.6256235827665	551.1248526077097	45	127
551.136462585034	551.6356916099774	46	127
551.136462585034	551.6356916099774	73	127
551.136462585034	551.6356916099774	64	127
551.136462585034	551.6356916099774	55	127
551.6473015873016	552.7850793650794	56	127
551.6473015873016	552.7850793650794	76	127
551.6473015873016	552.7850793650794	64	127
551.6473015873016	552.7850793650794	47	127
552.7966893424036	555.1767120181406	68	127
552.7966893424036	554.0621768707483	65	127
552.7966893424036	554.0621768707483	74	127
552.7966893424036	554.0621768707483	71	127
552.7966893424036	554.0621768707483	59	127
554.0737868480726	555.1767120181406	65	127
554.0737868480726	555.1767120181406	74	127
554.0737868480726	555.1767120181406	71	127
554.0737868480726	555.1767120181406	59	127
555.1883446712018	555.9546031746032	71	127
555.9662131519275	556.2100226757369	59	127
556.2216326530612	557.4755102040816	69	127
556.2216326530612	557.4755102040816	73	127
556.2216326530612	557.4755102040816	59	127
556.2216326530612	557.4755102040816	66	127
557.4871201814059	558.5552380952381	71	127
558.5552380952381	561.7247619047619	59	127
561.7363718820861	562.8625396825397	63	127
561.7363718820861	562.8625396825397	72	127
561.7363718820861	562.8625396825397	69	127
561.7363718820861	562.8625396825397	59	127
562.874149659864	563.8261678004535	71	127
563.8377777777778	564.7317460317461	59	127
564.7549659863946	565.7650340136055	59	127
564.7549659863946	565.7650340136055	71	127
564.7549659863946	565.7650340136055	68	127
564.7549659863946	565.7650340136055	64	127
565.7650340136055	566.8099092970522	71	127
566.8215192743764	567.994149659864	59	127
568.0057596371882	570.0607256235828	77	127
568.0057596371882	569.0274376417234	59	127
568.0057596371882	570.0607256235828	80	127
568.0057596371882	570.0607256235828	74	127
569.0390476190477	569.7936961451247	71	127
569.805306122449	570.0607256235828	59	127
570.0723356009071	571.6512925170068	78	127
570.0723356009071	570.5831746031746	73	127
570.0723356009071	571.2681632653062	59	127
570.0723356009071	571.6512925170068	81	127
570.5947845804989	570.9198412698413	71	127
570.9314739229025	571.2681632653062	69	127
571.2797732426304	571.6512925170068	68	127
571.2797732426304	572.3014512471656	71	127
571.6629024943311	572.2085714285714	83	127
571.6629024943311	572.2085714285714	80	127
571.6629024943311	572.2085714285714	66	127
572.2201814058957	572.6149206349206	64	127
572.2201814058957	572.6149206349206	85	127
572.2201814058957	572.6149206349206	81	127
572.3130612244898	572.6149206349206	59	127
572.6265306122449	573.822358276644	59	127
572.6265306122449	573.822358276644	85	127
572.6265306122449	573.822358276644	81	127
572.6265306122449	573.822358276644	63	127
573.8339682539682	575.2039229024944	72	127
573.8339682539682	574.9369160997733	71	127
573.8339682539682	575.2039229024944	78	127
573.8339682539682	575.2039229024944	75	127
574.9485260770975	575.2039229024944	59	127
575.2155328798186	575.7960544217688	71	127
575.2155328798186	576.515873015873	80	127
575.2155328798186	576.515873015873	76	127
575.2155328798186	576.515873015873	59	127
575.807641723356	576.1559637188209	69	127
576.1675736961452	576.515873015873	68	127
576.5274829931973	577.885850340136	78	127
576.5274829931973	577.0034920634921	66	127
576.5274829931973	577.5375510204082	71	127
576.5274829931973	577.885850340136	81	127
577.0151020408164	577.4214512471656	64	127
577.4330612244898	577.885850340136	63	127
577.5491609977324	577.885850340136	59	127
577.8974603174603	580.1962358276644	64	127
577.8974603174603	578.2921995464852	80	127
577.8974603174603	580.1962358276644	68	127
577.8974603174603	579.0120181405896	76	127
578.3038095238095	578.6521088435375	81	127
578.6637188208617	579.0120181405896	83	127
579.0236281179139	579.383537414966	85	127
579.3951473922903	579.7666666666667	87	127
579.7666666666667	580.1962358276644	88	127
580.2194557823129	581.3339909297052	66	127
580.2194557823129	580.6490249433107	87	127
580.2194557823129	582.7736281179139	63	127
580.2194557823129	582.7736281179139	59	127
580.660634920635	580.9857142857143	85	127
580.9973242630385	581.3339909297052	83	127
581.3456009070295	582.1466893424036	71	127
581.3456009070295	581.6707029478458	81	127
581.6823129251701	582.0422222222222	80	127
582.0538321995465	582.7736281179139	78	127
582.1582993197279	582.7736281179139	69	127
582.7736281179139	583.9926757369615	68	127
582.7736281179139	583.1915873015873	76	127
582.7736281179139	585.0143537414966	64	127
582.7736281179139	585.0143537414966	61	127
583.2032199546485	583.6095691609977	78	127
583.621179138322	583.9926757369615	80	127
584.0042857142857	584.3177777777778	81	127
584.3293877551021	584.6544671201814	83	127
584.6660770975056	585.0143537414966	85	127
585.0259637188209	587.6846485260771	59	127
585.0259637188209	586.2798639455782	59	127
585.0259637188209	587.6846485260771	56	127
585.0259637188209	585.3742857142857	83	127
585.3742857142857	585.9199546485261	81	127
585.9315646258503	586.2798639455782	80	127
586.2914739229025	587.371201814059	64	127
586.2914739229025	586.755873015873	78	127
586.7674829931973	587.2318820861678	76	127
587.2434920634921	587.6846485260771	75	127
587.371201814059	587.6846485260771	63	127
587.6962811791383	590.0298866213152	61	127
587.6962811791383	590.0298866213152	57	127
587.6962811791383	588.0445804988663	73	127
587.6962811791383	589.7628571428571	61	127
588.0561904761905	588.3928798185941	75	127
588.3928798185941	588.7760090702948	76	127
588.787619047619	589.2287981859411	78	127
589.2404081632653	589.6815873015873	80	127
589.6931972789116	590.0298866213152	81	127
589.7744671201814	590.0298866213152	63	127
590.0531065759637	592.1893197278912	56	127
590.0531065759637	590.4130158730159	80	127
590.0531065759637	592.1893197278912	52	127
590.0531065759637	591.5275736961452	64	127
590.4246258503401	590.8425850340136	78	127
590.8541950113379	591.21410430839	76	127
591.21410430839	591.5159637188209	75	127
591.5275736961452	591.8410430839002	73	127
591.5275736961452	591.8410430839002	66	127
591.8526530612245	592.1893197278912	68	127
591.8526530612245	592.1893197278912	71	127
592.2125623582766	594.5461678004535	54	127
592.2125623582766	592.6653514739229	69	127
592.2125623582766	593.5593197278912	63	127
592.2125623582766	595.579455782313	69	127
592.6769614512472	593.0717006802721	68	127
593.0833106575964	595.579455782313	66	127
593.5709297052155	593.8727891156462	64	127
593.8843990929705	594.209455782313	63	127
594.2210657596372	594.5461678004535	61	127
594.5577777777778	594.9176870748299	59	127
594.5577777777778	596.6591836734694	59	127
594.9292970521542	595.2311564625851	57	127
595.2427437641724	595.579455782313	56	127
595.5910657596372	595.9161451247165	54	127
595.5910657596372	597.5879818594104	69	127
595.5910657596372	597.5879818594104	78	127
595.9277551020408	596.2644217687075	52	127
596.2760317460318	596.6591836734694	51	127
596.6707709750567	599.6777777777778	66	127
596.6707709750567	596.9726530612245	49	127
596.9842630385488	597.2860997732427	47	127
597.2860997732427	597.5879818594104	45	127
597.5995918367347	597.9595011337868	44	127
597.5995918367347	599.6777777777778	81	127
597.5995918367347	599.6777777777778	69	127
597.9711111111111	598.3193877551021	42	127
598.3310204081632	598.6560997732427	40	127
598.6677097505669	598.981179138322	39	127
598.9927891156462	599.3410657596372	37	127
599.3526984126984	599.6777777777778	36	127
599.6777777777778	601.6863038548753	69	127
599.6777777777778	600.0028571428571	37	127
599.6777777777778	601.6863038548753	90	127
599.6777777777778	601.6863038548753	78	127
600.0144671201814	600.3279365079366	39	127
600.3395464852608	600.6878458049887	40	127
600.699455782313	601.012925170068	42	127
601.012925170068	601.3263945578232	40	127
601.3380045351474	601.6863038548753	39	127
601.6979138321996	602.6963718820862	68	127
601.6979138321996	602.0346031746031	40	127
601.6979138321996	602.6963718820862	88	127
601.6979138321996	602.6963718820862	71	127
601.6979138321996	602.6963718820862	76	127
602.0346031746031	602.3596825396826	42	127
602.3712925170069	602.6963718820862	44	127
602.7079818594104	603.7180498866213	73	127
602.7079818594104	603.044671201814	45	127
602.7079818594104	603.7180498866213	85	127
602.7079818594104	603.7180498866213	69	127
602.7079818594104	603.7180498866213	64	127
603.0562811791383	603.3813605442177	47	127
603.392970521542	603.7180498866213	49	127
603.7296598639456	605.691746031746	71	127
603.7296598639456	604.0314965986395	51	127
603.7296598639456	604.6816780045351	83	127
603.7296598639456	604.6816780045351	66	127
604.0314965986395	604.3565986394558	52	127
604.3565986394558	604.6816780045351	54	127
604.6932879818594	605.691746031746	68	127
604.6932879818594	605.0299773242631	52	127
604.6932879818594	605.691746031746	80	127
605.0299773242631	605.3550566893424	54	127
605.3666666666667	605.691746031746	56	127
605.7033560090703	606.794693877551	78	127
605.7033560090703	606.0516553287982	57	127
605.7033560090703	606.794693877551	69	127
605.7033560090703	606.794693877551	61	127
606.0632653061225	606.4580045351474	59	127
606.481201814059	606.794693877551	61	127
606.8063038548753	607.1429931972789	68	127
606.8063038548753	607.1429931972789	59	127
606.8063038548753	609.0702494331066	76	127
606.8063038548753	629.6547392290249	59	127
607.1546031746032	607.4680725623583	63	127
607.1546031746032	607.4680725623583	66	127
607.4796825396826	607.7815419501134	64	127
607.4796825396826	607.7815419501134	68	127
607.7931519274376	608.0950113378685	66	127
607.7931519274376	608.0950113378685	69	127
608.1066213151928	608.4200907029478	71	127
608.1066213151928	608.4200907029478	68	127
608.4317006802721	608.7567800453514	73	127
608.4317006802721	608.7567800453514	69	127
608.7683900226757	610.7304761904762	71	127
608.7683900226757	610.7304761904762	68	127
609.0818594104309	609.3953287981859	78	127
609.4069387755102	609.7320181405896	80	127
609.7436281179139	610.0687074829932	81	127
610.0803174603175	610.3937868480725	83	127
610.4053968253968	610.7304761904762	85	127
610.7420861678005	618.1724716553288	64	127
610.7420861678005	611.0787755102041	83	127
610.7420861678005	618.1724716553288	68	127
611.0903854875284	611.4038321995465	85	127
611.4154648526077	611.6824943310658	87	127
611.6824943310658	611.9495238095238	88	127
611.9611337868481	612.2513832199546	90	127
612.2513832199546	612.5648526077098	92	127
612.576462585034	612.9015419501134	93	127
612.9131519274376	613.2382086167801	95	127
613.2498185941043	613.5633106575964	97	127
613.5749206349207	613.9	95	127
613.9116099773242	614.248276643991	93	127
614.2598866213152	614.5849886621315	92	127
614.5849886621315	614.8984580498866	90	127
614.9100680272109	615.2119274376417	88	127
615.223537414966	615.5137868480725	87	127
615.5253968253968	615.711156462585	85	127
615.7227664399093	616.0246258503402	83	127
616.0362358276644	616.3032426303855	81	127
616.3148526077098	616.6399546485261	80	127
616.6399546485261	616.9534240362811	78	127
616.9650340136054	617.2668934240363	76	127
617.2785034013606	617.5687528344671	75	127
617.5803628117914	617.8590022675737	73	127
617.870612244898	618.1724716553288	71	127
618.184081632653	629.6547392290249	66	127
618.184081632653	618.5091609977325	69	127
618.184081632653	629.6547392290249	69	127
618.184081632653	629.6547392290249	75	127
618.5207709750567	618.8574603174603	68	127
618.8574603174603	619.1709070294785	66	127
619.1825396825396	619.5192290249433	64	127
619.5192290249433	619.8094784580499	63	127
619.8210884353741	620.1577777777778	61	127
620.1693877551021	620.5060770975057	59	127
620.51768707483	620.8892063492063	60	127
620.9008163265306	621.2026530612245	61	127
621.2142630385488	621.5509750566894	62	127
621.5625850340136	621.887664399093	63	127
621.8992743764172	622.2243310657597	64	127
622.2359410430839	622.5378231292517	65	127
622.549433106576	622.8512698412699	66	127
622.862902494331	623.1879818594105	67	127
623.1995918367347	623.5130612244898	68	127
623.524671201814	623.8497505668935	69	127
623.8613378684807	624.1864399092971	70	127
624.1980498866213	625.2313378684808	71	127
625.242947845805	626.3458956916099	72	127
626.3575056689342	627.3907936507936	75	127
627.4024036281179	628.55179138322	73	127
628.5633786848073	629.6547392290249	71	127
629.6663492063492	630.9666666666667	54	127
629.6663492063492	630.9666666666667	69	127
629.6663492063492	630.9666666666667	57	127
629.6663492063492	630.9666666666667	47	127
630.978276643991	632.2785941043084	54	127
630.978276643991	632.2785941043084	47	127
630.978276643991	632.2785941043084	66	127
630.978276643991	632.2785941043084	57	127
632.2902040816326	634.1013378684808	57	127
632.2902040816326	634.1013378684808	47	127
632.2902040816326	634.1013378684808	63	127
632.2902040816326	634.1013378684808	54	127
634.1129705215419	638.8730612244898	59	127
634.1129705215419	638.8730612244898	56	127
634.1129705215419	634.4380498866213	40	127
634.1129705215419	635.5874376417233	62	127
634.5193197278911	634.7979591836735	40	127
634.8908390022676	635.1462585034013	40	127
635.2507482993198	635.7964172335601	40	127
635.5990476190476	636.0286167800454	71	127
636.0402267573696	636.411746031746	68	127
636.4233560090703	638.0255328798186	62	127
636.4233560090703	636.7019954648526	40	127
636.7832653061224	637.1199546485261	40	127
637.2128344671202	637.5379138321996	40	127
637.6307936507936	638.1880498866213	40	127
638.0255328798186	638.3854195011338	64	127
638.3970294784581	638.8730612244898	62	127
638.8846712018141	641.1137868480726	52	127
638.8846712018141	639.1633106575964	40	127
638.8846712018141	640.3591383219955	60	127
638.8846712018141	643.563492063492	57	127
639.2445804988662	639.5348299319728	40	127
639.6160770975057	639.8831292517007	40	127
639.9643990929706	640.5216780045351	40	127
640.3707482993198	640.7074376417233	64	127
640.7190476190476	641.1137868480726	69	127
641.1253968253968	643.563492063492	51	127
641.1253968253968	641.4969160997732	40	127
641.1253968253968	642.5534240362812	63	127
641.5665759637188	641.8336054421769	40	127
641.9032653061224	642.1586848072562	40	127
642.2283446712019	642.7275736961451	40	127
642.5650340136054	643.2035827664399	66	127
643.2151927437642	643.563492063492	71	127
643.5751020408163	645.0960090702948	50	127
643.5751020408163	643.9350113378684	40	127
643.5751020408163	645.7809977324263	71	127
643.5751020408163	645.7809977324263	56	127
644.0046712018141	644.2717006802721	40	127
644.3529705215419	644.6316099773243	40	127
644.7244671201814	645.2701587301588	40	127
645.1076190476191	645.4443083900227	59	127
645.455918367347	645.7809977324263	56	127
645.7926077097505	650.5643083900227	76	127
645.7926077097505	646.2453968253968	40	127
645.7926077097505	647.5457142857143	50	127
645.7926077097505	648.2539229024943	68	127
646.3150566893424	646.651746031746	40	127
646.7214058956916	646.9768027210885	40	127
647.0580952380952	647.708253968254	40	127
647.5457142857143	647.9172335600907	52	127
647.928843537415	648.2539229024943	50	127
648.2655328798186	648.5557823129252	40	127
648.2655328798186	649.7516099773243	48	127
648.2655328798186	652.8746938775511	69	127
648.2655328798186	650.5643083900227	72	127
648.637052154195	648.9389115646259	40	127
649.0085487528345	649.3104308390023	40	127
649.3800907029479	650.0650793650793	40	127
649.7632199546485	650.2392063492064	52	127
650.2392063492064	650.5643083900227	57	127
650.575918367347	652.8746938775511	71	127
650.575918367347	650.889387755102	40	127
650.575918367347	652.1200453514739	51	127
650.575918367347	652.8746938775511	78	127
650.9590476190476	651.23768707483	40	127
651.3189569160998	651.6208163265306	40	127
651.6904535147393	652.3406349206349	40	127
652.1897052154195	652.5380045351474	54	127
652.5496145124716	652.8746938775511	59	127
652.8746938775511	653.9660317460317	76	127
652.8746938775511	654.325918367347	52	127
652.8746938775511	653.1881632653061	40	127
652.8746938775511	653.9660317460317	71	127
653.2578231292517	653.536462585034	40	127
653.6061224489796	653.8963718820862	40	127
653.977641723356	655.0225396825397	71	127
653.977641723356	656.2648072562358	80	127
653.977641723356	654.5000907029479	40	127
654.3375283446712	654.6858503401361	51	127
654.6974603174604	655.0225396825397	52	127
655.0341496598639	656.6595464852608	51	127
655.0341496598639	655.4637188208617	40	127
655.0341496598639	657.4374149659864	69	127
655.5449886621316	655.8468480725624	40	127
655.9281179138322	656.2067573696145	40	127
656.2764172335601	656.8801360544218	40	127
656.2764172335601	657.4374149659864	78	127
656.671156462585	657.1007256235828	49	127
657.112335600907	657.4374149659864	51	127
657.4490249433106	658.5984126984127	76	127
657.4490249433106	659.0628117913832	52	127
657.4490249433106	657.7392743764173	40	127
657.4490249433106	658.5984126984127	68	127
657.8205215419501	658.0991836734694	40	127
658.1804535147393	658.5403628117914	40	127
658.610022675737	659.7710204081633	71	127
658.610022675737	660.8043083900227	80	127
658.610022675737	659.2717913832199	40	127
659.0744217687075	659.445918367347	51	127
659.4575283446712	659.7710204081633	52	127
659.7826303854876	662.0814058956917	69	127
659.7826303854876	660.0612471655329	40	127
660.154149659864	660.4095691609978	40	127
660.4908390022675	660.7462585034014	40	127
660.815918367347	661.3964172335601	40	127
660.815918367347	662.0814058956917	78	127
661.1990476190476	661.6402267573696	49	127
661.6518367346939	662.0814058956917	51	127
662.0814058956917	664.3337414965987	76	127
662.0814058956917	664.3337414965987	68	127
662.0814058956917	662.6619047619048	40	127
662.0814058956917	662.406485260771	52	127
662.4180952380952	662.940544217687	54	127
662.9521541950113	663.288843537415	56	127
663.3004535147393	663.6139229024943	57	127
663.6255328798186	663.9738321995465	59	127
663.9854421768707	664.3337414965987	61	127
664.345328798186	666.3422675736962	59	127
664.345328798186	664.7052607709751	59	127
664.345328798186	666.3422675736962	78	127
664.345328798186	666.3422675736962	76	127
664.7052607709751	665.0303401360544	57	127
665.0419501133787	665.3786167800454	56	127
665.3902267573696	665.7037188208617	54	127
665.715328798186	666.0171882086167	52	127
666.028798185941	666.3422675736962	51	127
666.3538775510204	669.0589795918368	69	127
666.3538775510204	669.0589795918368	81	127
666.3538775510204	666.6673469387755	49	127
666.3538775510204	667.3755555555556	57	127
666.3538775510204	669.0589795918368	85	127
666.6789569160998	667.0272335600907	47	127
667.0388662131519	667.3755555555556	45	127
667.3871655328799	667.7122448979592	44	127
667.3871655328799	668.4901133786848	61	127
667.7238548752835	668.0953741496598	42	127
668.1069841269841	668.4901133786848	40	127
668.501723356009	669.0589795918368	54	127
668.501723356009	669.0589795918368	39	127
669.6162811791384	670.1851700680272	68	127
669.6162811791384	670.1851700680272	40	127
669.6162811791384	670.1851700680272	83	127
669.6162811791384	670.1851700680272	56	127
670.7308390022675	671.2997052154195	57	127
670.7308390022675	671.2997052154195	81	127
670.7308390022675	671.2997052154195	63	127
670.7308390022675	671.2997052154195	42	127
671.8453968253968	672.3910657596372	59	127
671.8453968253968	672.3910657596372	44	127
671.8453968253968	672.3910657596372	80	127
671.8453968253968	672.3910657596372	64	127
672.9483219954649	673.528843537415	66	127
672.9483219954649	673.528843537415	45	127
672.9483219954649	673.528843537415	78	127
672.9483219954649	673.528843537415	61	127
673.9351927437642	674.585328798186	76	127
673.9351927437642	674.585328798186	68	127
673.9351927437642	674.585328798186	46	127
673.9351927437642	674.585328798186	61	127
675.2471201814059	677.4065759637189	76	127
675.2471201814059	677.4065759637189	59	127
675.2471201814059	677.4065759637189	64	127
675.2471201814059	677.4065759637189	68	127
675.2471201814059	677.4065759637189	47	127
677.4181859410431	682.0273469387755	66	127
677.4181859410431	682.0273469387755	69	127
677.4181859410431	682.0273469387755	57	127
677.4181859410431	682.0273469387755	48	127
677.4181859410431	679.6589115646259	75	127
679.6821088435374	682.0273469387755	78	127
682.0389569160998	684.384149659864	64	127
682.0389569160998	686.8106575963719	61	127
682.0389569160998	686.8106575963719	49	127
682.0389569160998	684.384149659864	76	127
682.0389569160998	684.384149659864	68	127
684.384149659864	686.8106575963719	64	127
684.384149659864	686.8106575963719	81	127
684.384149659864	686.8106575963719	73	127
686.8222675736962	688.7030839002267	80	127
686.8222675736962	691.315328798186	71	127
686.8222675736962	691.315328798186	62	127
686.8222675736962	691.315328798186	53	127
688.7030839002267	688.9585034013605	81	127
688.9701133786848	691.315328798186	80	127
691.3269387755103	695.7387301587302	69	127
691.3269387755103	692.6040362811791	78	127
691.3269387755103	695.7387301587302	63	127
691.3269387755103	695.7387301587302	54	127
693.5908616780046	695.7387301587302	83	127
695.7503401360544	698.0491156462585	69	127
695.7503401360544	698.0491156462585	81	127
695.7503401360544	700.3827210884353	57	127
695.7503401360544	700.3827210884353	66	127
695.7503401360544	700.3827210884353	75	127
695.7503401360544	700.3827210884353	48	127
698.0607256235828	700.3827210884353	69	127
698.0607256235828	700.3827210884353	78	127
700.3943310657596	702.5189569160998	64	127
700.3943310657596	702.5189569160998	76	127
700.3943310657596	702.5189569160998	56	127
700.3943310657596	702.5189569160998	47	127
700.3943310657596	700.5684807256235	71	127
700.5684807256235	702.7743764172336	80	127
702.5305668934241	704.6087528344672	56	127
702.5305668934241	704.6087528344672	52	127
702.5305668934241	707.0816553287982	47	127
702.7859637188209	703.0297959183673	78	127
703.0414058956916	703.3200453514739	76	127
703.3316553287982	703.5754648526078	75	127
703.587074829932	703.85410430839	73	127
703.8657142857143	704.0979138321995	71	127
704.1095238095238	704.3533333333334	69	127
704.3533333333334	704.6087528344672	68	127
704.6203628117914	706.6404988662132	54	127
704.6203628117914	704.8641723356009	66	127
704.6203628117914	706.6404988662132	57	127
704.8757823129251	705.1195918367347	64	127
705.131201814059	705.3401814058957	63	127
705.35179138322	705.6072108843538	61	127
705.618820861678	705.885850340136	59	127
705.8974603174603	706.2573696145125	73	127
706.2689569160998	706.6404988662132	71	127
706.6521088435375	707.0816553287982	63	127
706.6521088435375	707.0816553287982	59	127
706.6521088435375	707.0816553287982	56	127
707.0932653061225	707.5228571428571	40	127
707.0932653061225	708.6025850340136	64	127
707.0932653061225	708.2891156462586	56	127
707.0932653061225	708.2891156462586	52	127
707.6273469387755	707.8943764172336	40	127
707.9640362811791	708.2194557823129	40	127
708.3007256235828	708.6141950113379	68	127
708.3007256235828	708.6141950113379	52	127
708.3007256235828	708.7883446712018	40	127
708.6258049886621	708.9624943310657	68	127
708.6258049886621	708.9624943310657	71	127
708.6258049886621	708.9624943310657	52	127
708.97410430839	709.3107936507937	68	127
708.97410430839	709.3107936507937	52	127
709.322403628118	710.8084807256236	62	127
709.322403628118	709.6242630385487	40	127
709.7403401360544	710.0190022675737	40	127
710.0886621315193	710.3789115646258	40	127
710.4485714285714	710.8200907029478	71	127
710.4485714285714	710.8200907029478	56	127
710.4485714285714	711.0290702947846	40	127
710.8317006802721	711.226439909297	64	127
710.8317006802721	711.226439909297	71	127
710.8317006802721	711.226439909297	56	127
711.2380498866213	711.5631292517007	62	127
711.2380498866213	711.5631292517007	71	127
711.2380498866213	711.5631292517007	56	127
711.574739229025	711.9346485260771	40	127
711.574739229025	712.7473469387755	60	127
712.0159183673469	712.3061678004535	40	127
712.3874376417234	712.7125170068027	40	127
712.7589569160998	713.1188662131519	73	127
712.7589569160998	713.3510657596372	40	127
712.7589569160998	713.1188662131519	57	127
712.7589569160998	713.1188662131519	61	127
713.1304761904762	713.5252154195011	64	127
713.1304761904762	713.5252154195011	73	127
713.1304761904762	713.5252154195011	57	127
713.5252154195011	713.8967346938775	69	127
713.5252154195011	713.8967346938775	73	127
713.5252154195011	713.8967346938775	57	127
713.9083446712018	715.3595918367347	63	127
713.9083446712018	714.221814058957	40	127
714.2914739229025	714.5468934240363	40	127
714.662970521542	714.9068027210884	40	127
714.9880725623583	715.6034013605442	40	127
714.9880725623583	715.371201814059	71	127
714.9880725623583	715.371201814059	57	127
715.3828117913832	715.7775510204082	57	127
715.3828117913832	715.7775510204082	66	127
715.3828117913832	715.7775510204082	71	127
715.7891609977324	716.1142403628118	57	127
715.7891609977324	716.1142403628118	71	127
716.1142403628118	717.6351473922903	52	127
716.1142403628118	716.4044897959184	40	127
716.1142403628118	716.4857369614513	71	127
716.1142403628118	717.2752380952381	68	127
716.4973469387755	716.8688888888889	64	127
716.4973469387755	716.7760090702948	40	127
716.8804988662132	717.2055782312925	40	127
716.8804988662132	717.2752380952381	68	127
717.2868480725624	717.844126984127	40	127
717.2868480725624	718.7148752834468	71	127
717.2868480725624	717.6351473922903	80	127
717.6467573696145	718.0182766439909	80	127
717.6467573696145	718.0182766439909	59	127
718.0298866213152	718.3549659863945	80	127
718.0298866213152	718.3549659863945	56	127
718.3665759637188	718.6568253968254	40	127
718.3665759637188	719.8410430839002	50	127
718.726485260771	719.0515646258503	40	127
718.726485260771	719.1096145124717	68	127
719.121224489796	719.4114739229025	40	127
719.121224489796	719.4695238095238	71	127
719.4811337868481	720.0616326530612	40	127
719.4811337868481	720.8743310657596	76	127
719.4811337868481	719.8526530612245	80	127
719.8642630385488	720.2241723356009	52	127
719.8642630385488	720.2241723356009	80	127
720.2357823129252	720.5492517006803	80	127
720.2357823129252	720.5492517006803	50	127
720.5608616780046	720.8162811791383	40	127
720.5608616780046	721.6057369614513	48	127
720.9091609977324	721.2109977324263	40	127
720.9091609977324	721.2806802721088	69	127
721.2806802721088	721.6057369614513	72	127
721.2806802721088	721.5477097505669	40	127
721.6173469387755	721.9540589569161	81	127
721.6173469387755	721.9540589569161	49	127
721.6173469387755	722.1165986394558	40	127
721.6173469387755	722.6158276643991	76	127
721.9656689342404	722.2907482993197	52	127
721.9656689342404	722.2907482993197	81	127
722.302358276644	722.6158276643991	57	127
722.302358276644	722.6158276643991	81	127
722.6274149659864	723.0105668934241	78	127
722.6274149659864	724.1599546485261	51	127
722.6274149659864	722.9409070294785	40	127
723.0337641723356	723.4285260770976	69	127
723.0337641723356	723.3472562358277	40	127
723.4401133786848	723.7652154195011	40	127
723.4401133786848	723.8232653061225	71	127
723.8348752834468	724.1715646258504	83	127
723.8348752834468	724.1715646258504	78	127
723.8348752834468	724.3573242630385	40	127
724.1831746031746	724.5895238095238	83	127
724.1831746031746	724.5895238095238	71	127
724.1831746031746	724.5895238095238	54	127
724.6011337868481	724.9726530612245	69	127
724.6011337868481	724.9726530612245	59	127
724.6011337868481	725.3325623582766	83	127
724.9842630385488	726.052380952381	68	127
724.9842630385488	725.2745124716554	40	127
724.9842630385488	726.4239002267574	52	127
725.3441723356009	725.611201814059	40	127
725.3441723356009	725.6692517006803	76	127
725.6808616780046	725.9827210884354	40	127
725.6808616780046	726.052380952381	80	127
726.0639909297053	726.5980498866213	40	127
726.0639909297053	727.5268253968254	83	127
726.4355102040817	726.8418594104309	51	127
726.4355102040817	726.8418594104309	68	127
726.8534693877551	727.1785487528344	52	127
726.8534693877551	727.1785487528344	71	127
727.1901587301587	728.2698866213152	69	127
727.1901587301587	727.4571882086168	40	127
727.5268253968254	727.8867573696145	78	127
727.5268253968254	729.0825850340136	51	127
727.5268253968254	727.8287074829932	40	127
727.8983673469388	728.2002267573696	40	127
727.8983673469388	728.2698866213152	81	127
728.2931065759637	729.7791609977324	83	127
728.2931065759637	728.8619954648526	40	127
728.7110657596372	729.0825850340136	49	127
728.7110657596372	729.0825850340136	69	127
729.0941950113379	729.4424943310657	71	127
729.0941950113379	729.4424943310657	51	127
729.45410430839	729.7211337868481	40	127
729.45410430839	730.510612244898	68	127
729.45410430839	730.9053514739229	52	127
729.7907709750567	730.1390929705216	76	127
729.7907709750567	730.069433106576	40	127
730.1390929705216	730.4409523809524	40	127
730.1390929705216	730.510612244898	80	127
730.5338321995465	731.1027210884354	40	127
730.5338321995465	732.0547392290249	83	127
730.9169614512472	731.3000907029478	68	127
730.9169614512472	731.3000907029478	51	127
731.3117006802721	731.6716099773242	71	127
731.3117006802721	731.6716099773242	52	127
731.6832199546485	731.9850793650794	40	127
731.6832199546485	732.8326077097506	69	127
731.6832199546485	733.1925170068027	51	127
732.0663492063492	732.4378458049887	78	127
732.0663492063492	732.3682086167801	40	127
732.449455782313	732.7513378684807	40	127
732.449455782313	732.8326077097506	81	127
732.8441950113379	733.3666666666667	40	127
732.8441950113379	734.040045351474	83	127
733.204126984127	733.5872562358277	69	127
733.204126984127	733.5872562358277	49	127
733.598866213152	734.040045351474	71	127
733.598866213152	734.040045351474	51	127
734.0516553287982	738.2428571428571	40	127
734.0516553287982	738.2428571428571	68	127
734.0516553287982	736.2227210884354	52	127
734.0516553287982	734.4580045351474	83	127
734.4696145124717	734.8295238095238	81	127
734.8411337868481	735.1546031746032	80	127
735.1662131519274	735.5144897959184	78	127
735.5260997732427	735.8744217687075	76	127
735.8860317460318	736.2227210884354	75	127
736.2343310657596	741.9928798185941	56	127
736.2343310657596	736.5826303854875	76	127
736.5942403628118	736.9425170068027	75	127
736.954126984127	737.2676190476191	73	127
737.2676190476191	737.5926984126984	71	127
737.6043083900227	737.8945578231293	70	127
737.9061678004535	738.2428571428571	73	127
738.2544671201814	741.9928798185941	71	127
738.2544671201814	738.5679138321996	71	127
738.2544671201814	744.280045351474	52	127
738.5679138321996	738.9162358276644	69	127
738.9278458049887	739.252925170068	68	127
739.2645351473923	739.5547845804989	66	127
739.5663945578232	739.868253968254	64	127
739.868253968254	740.1585034013606	63	127
740.1701133786848	740.4603628117914	64	127
740.4719727891156	740.6461224489796	63	127
740.6577324263038	740.9944217687075	61	127
741.0060317460318	741.2962811791383	59	127
741.2962811791383	741.6097505668935	58	127
741.6213605442177	741.9928798185941	61	127
742.0044897959184	751.5014512471655	59	127
742.0044897959184	742.341179138322	59	127
742.0044897959184	751.5014512471655	68	127
742.0044897959184	751.5014512471655	64	127
742.3527891156463	742.7126984126984	57	127
742.7243083900227	743.0609977324264	56	127
743.0725850340136	743.4092970521542	54	127
743.4209070294785	743.6531065759638	52	127
743.664716553288	744.0014058956916	51	127
744.0130158730159	751.5014512471655	52	127
744.2916553287982	744.547074829932	51	127
744.5586848072562	744.9185714285715	49	127
744.9301814058957	745.2436734693878	47	127
745.255283446712	745.5222902494331	46	127
745.5339002267574	745.8241723356009	49	127
745.8357823129252	746.1608616780045	47	127
746.1608616780045	746.3930612244898	45	127
746.404671201814	746.7297505668935	44	127
746.7413605442177	747.0664399092971	42	127
747.0780498866213	747.368276643991	40	127
747.3798866213152	747.7282086167801	39	127
747.7398185941043	748.0532879818594	40	127
748.0532879818594	748.2506575963719	39	127
748.2622675736961	748.4712471655329	42	127
748.4828571428571	748.784716553288	40	127
748.7963038548753	749.0981859410431	39	127
749.1097959183674	749.4464852607709	42	127
749.4580952380952	749.7715646258504	40	127
749.7831746031746	750.0734240362812	39	127
750.0850340136054	750.4333106575964	42	127
750.4449206349207	750.7816326530613	40	127
750.7932426303855	751.1299319727891	39	127
751.1415419501134	751.5014512471655	42	127
751.5130612244898	751.7800907029479	40	127
751.5130612244898	751.919410430839	64	127
751.5130612244898	751.919410430839	59	127
751.5130612244898	751.919410430839	56	127
751.7800907029479	752.0819274376418	39	127
752.0935600907029	752.3954195011338	42	127
752.4070294784581	752.8946258503402	64	127
752.4070294784581	752.8946258503402	59	127
752.4070294784581	752.8946258503402	56	127
752.4070294784581	752.7088888888889	40	127
752.7204988662131	753.0919954648526	39	127
753.1036054421769	753.4751473922903	42	127
753.4751473922903	754.0324263038549	40	127
753.4751473922903	754.0324263038549	64	127
753.4751473922903	754.0324263038549	59	127
753.4751473922903	754.0324263038549	56	127
755.7622902494331	756.3195918367347	56	127
755.7622902494331	756.3195918367347	52	127
755.7622902494331	756.3195918367347	40	127
755.7622902494331	756.3195918367347	59	127
758.3048979591837	764.6787755102041	40	127
758.3048979591837	764.6787755102041	59	127
758.3048979591837	764.6787755102041	56	127
758.3048979591837	764.6787755102041	52	127
