# onset,offset,note,velocity
0.09210884353741497	0.23142857142857143	52	127
0.09210884353741497	0.8583673469387755	60	127
0.09210884353741497	0.23142857142857143	55	127
0.09210884353741497	0.13854875283446713	64	127
0.09210884353741497	0.23142857142857143	36	127
0.47523809523809524	0.6261678004535147	52	127
0.47523809523809524	0.6261678004535147	55	127
0.47523809523809524	0.6261678004535147	48	127
0.6377777777777778	0.7422675736961452	55	127
0.6377777777777778	0.7422675736961452	52	127
0.6377777777777778	0.7422675736961452	48	127
0.8583673469387755	0.9628571428571429	84	127
0.9744671201814059	1.1021768707482993	52	127
0.9744671201814059	1.1021768707482993	86	127
0.9744671201814059	1.1021768707482993	55	127
0.9744671201814059	1.1021768707482993	48	127
1.1021768707482993	1.2066666666666668	52	127
1.1021768707482993	1.2066666666666668	88	127
1.1021768707482993	1.2066666666666668	55	127
1.1021768707482993	1.2066666666666668	48	127
1.4388662131519274	1.589795918367347	48	127
1.4388662131519274	1.589795918367347	86	127
1.4388662131519274	1.589795918367347	55	127
1.4388662131519274	1.589795918367347	52	127
1.589795918367347	1.7058956916099772	53	127
1.589795918367347	1.7058956916099772	84	127
1.589795918367347	1.7058956916099772	57	127
1.589795918367347	1.7058956916099772	48	127
1.938095238095238	2.089024943310658	53	127
1.938095238095238	2.089024943310658	81	127
1.938095238095238	2.089024943310658	59	127
1.938095238095238	2.089024943310658	48	127
2.1006349206349206	2.750793650793651	79	127
2.1006349206349206	2.216734693877551	60	127
2.1006349206349206	2.216734693877551	52	127
2.1006349206349206	2.216734693877551	48	127
2.414104308390023	2.530204081632653	55	127
2.414104308390023	2.530204081632653	52	127
2.414104308390023	2.530204081632653	48	127
2.530204081632653	2.6346938775510202	52	127
2.530204081632653	2.6346938775510202	55	127
2.530204081632653	2.6346938775510202	48	127
2.750793650793651	2.8436734693877552	84	127
2.855283446712018	2.9133333333333336	48	127
2.855283446712018	2.9133333333333336	86	127
2.855283446712018	2.9133333333333336	55	127
2.855283446712018	2.9133333333333336	52	127
2.9133333333333336	3.017823129251701	52	127
2.9133333333333336	3.017823129251701	88	127
2.9133333333333336	3.017823129251701	55	127
2.9133333333333336	3.017823129251701	48	127
3.0294331065759637	3.110702947845805	86	127
3.133922902494331	3.1687528344671203	84	127
3.1919727891156464	3.2848526077097504	52	127
3.1919727891156464	3.2732426303854876	83	127
3.1919727891156464	3.2848526077097504	55	127
3.1919727891156464	3.2848526077097504	48	127
3.2848526077097504	3.366122448979592	86	127
3.2848526077097504	3.366122448979592	57	127
3.2848526077097504	3.366122448979592	53	127
3.2848526077097504	3.366122448979592	48	127
3.366122448979592	3.447392290249433	84	127
3.482222222222222	3.5518820861678004	83	127
3.5867120181405894	3.691201814058957	48	127
3.5867120181405894	3.667981859410431	81	127
3.5867120181405894	3.691201814058957	59	127
3.5867120181405894	3.691201814058957	53	127
3.70281179138322	3.7956916099773244	48	127
3.70281179138322	3.7956916099773244	60	127
3.70281179138322	3.7956916099773244	52	127
3.70281179138322	4.260090702947846	79	127
3.981451247165533	4.0859410430839	52	127
3.981451247165533	4.0859410430839	55	127
3.981451247165533	4.0859410430839	48	127
4.0859410430839	4.1788208616780045	52	127
4.0859410430839	4.1788208616780045	55	127
4.0859410430839	4.1788208616780045	48	127
4.376190476190477	4.457460317460318	77	127
4.376190476190477	4.46907029478458	55	127
4.376190476190477	4.46907029478458	52	127
4.376190476190477	4.46907029478458	48	127
4.46907029478458	4.573560090702948	55	127
4.46907029478458	4.573560090702948	76	127
4.46907029478458	4.573560090702948	52	127
4.46907029478458	4.573560090702948	48	127
4.794149659863946	4.863809523809524	55	127
4.794149659863946	4.863809523809524	52	127
4.794149659863946	4.863809523809524	74	127
4.794149659863946	4.863809523809524	48	127
4.863809523809524	4.921859410430839	72	127
4.863809523809524	4.921859410430839	55	127
4.863809523809524	4.921859410430839	52	127
4.863809523809524	4.921859410430839	48	127
5.084399092970521	5.188888888888889	71	127
5.084399092970521	5.188888888888889	55	127
5.084399092970521	5.188888888888889	52	127
5.084399092970521	5.188888888888889	48	127
5.188888888888889	5.293378684807256	71	127
5.188888888888889	5.293378684807256	55	127
5.188888888888889	5.293378684807256	52	127
5.188888888888889	5.293378684807256	48	127
5.304988662131519	5.409478458049887	69	127
5.409478458049887	5.502358276643991	67	127
5.513968253968254	5.6184580498866215	69	127
5.513968253968254	5.6184580498866215	55	127
5.513968253968254	5.6184580498866215	52	127
5.513968253968254	5.6184580498866215	48	127
5.6184580498866215	5.688117913832199	47	127
5.6184580498866215	6.1873469387755105	71	127
5.6184580498866215	5.688117913832199	52	127
5.6184580498866215	5.688117913832199	55	127
5.908707482993197	6.013197278911565	55	127
5.908707482993197	6.013197278911565	52	127
5.908707482993197	6.013197278911565	47	127
6.024807256235827	6.094467120181406	54	127
6.024807256235827	6.094467120181406	57	127
6.024807256235827	6.094467120181406	47	127
6.198956916099773	6.3034467120181406	73	127
6.3034467120181406	6.407936507936508	75	127
6.3034467120181406	6.407936507936508	57	127
6.3034467120181406	6.407936507936508	54	127
6.3034467120181406	6.407936507936508	47	127
6.419546485260771	6.512426303854875	47	127
6.419546485260771	6.512426303854875	57	127
6.419546485260771	6.512426303854875	54	127
6.419546485260771	6.628526077097506	76	127
6.628526077097506	6.733015873015873	78	127
6.733015873015873	6.825895691609977	75	127
6.733015873015873	6.825895691609977	57	127
6.733015873015873	6.825895691609977	54	127
6.733015873015873	6.825895691609977	47	127
6.825895691609977	6.930385487528345	76	127
6.825895691609977	6.930385487528345	55	127
6.825895691609977	6.930385487528345	52	127
6.825895691609977	6.930385487528345	52	127
7.023265306122449	7.127755102040816	76	127
7.13936507936508	7.25546485260771	77	127
7.13936507936508	7.25546485260771	67	127
7.13936507936508	7.25546485260771	55	127
7.13936507936508	7.25546485260771	52	127
7.25546485260771	7.37156462585034	79	127
7.25546485260771	7.37156462585034	65	127
7.25546485260771	7.37156462585034	55	127
7.25546485260771	7.37156462585034	50	127
7.487664399092971	7.580544217687075	81	127
7.580544217687075	7.673424036281179	83	127
7.580544217687075	7.673424036281179	65	127
7.580544217687075	7.673424036281179	55	127
7.580544217687075	7.673424036281179	50	127
7.673424036281179	7.7779138321995465	48	127
7.673424036281179	8.253922902494331	84	127
7.673424036281179	7.7779138321995465	55	127
7.673424036281179	7.7779138321995465	64	127
7.963673469387755	8.044920634920635	67	127
7.963673469387755	8.044920634920635	64	127
7.963673469387755	8.044920634920635	60	127
8.044920634920635	8.161043083900227	64	127
8.044920634920635	8.161043083900227	67	127
8.044920634920635	8.161043083900227	60	127
8.253922902494331	8.358412698412698	84	127
8.370022675736962	8.474512471655329	88	127
8.370022675736962	8.474512471655329	67	127
8.370022675736962	8.474512471655329	64	127
8.370022675736962	8.474512471655329	60	127
8.695102040816327	8.799591836734693	67	127
8.695102040816327	8.799591836734693	60	127
8.695102040816327	8.799591836734693	86	127
8.695102040816327	8.799591836734693	64	127
8.799591836734693	8.892471655328798	69	127
8.799591836734693	8.892471655328798	65	127
8.799591836734693	8.892471655328798	60	127
8.799591836734693	8.892471655328798	84	127
9.101451247165533	9.2059410430839	60	127
9.101451247165533	9.2059410430839	81	127
9.101451247165533	9.2059410430839	71	127
9.101451247165533	9.2059410430839	65	127
9.2059410430839	9.310430839002267	64	127
9.2059410430839	9.751609977324263	79	127
9.2059410430839	9.310430839002267	60	127
9.2059410430839	9.310430839002267	72	127
9.531020408163265	9.647120181405896	67	127
9.531020408163265	9.647120181405896	64	127
9.531020408163265	9.647120181405896	60	127
9.763219954648527	9.844489795918367	84	127
9.844489795918367	9.925759637188209	86	127
9.844489795918367	9.925759637188209	67	127
9.844489795918367	9.925759637188209	64	127
9.844489795918367	9.925759637188209	60	127
9.937369614512471	10.041836734693877	88	127
9.937369614512471	10.041836734693877	67	127
9.937369614512471	10.041836734693877	64	127
9.937369614512471	10.041836734693877	60	127
10.041836734693877	10.12312925170068	86	127
10.15795918367347	10.239229024943311	84	127
10.250839002267574	10.332108843537416	83	127
10.250839002267574	10.332108843537416	67	127
10.250839002267574	10.332108843537416	64	127
10.250839002267574	10.332108843537416	60	127
10.332108843537416	10.436598639455783	69	127
10.332108843537416	10.436598639455783	86	127
10.332108843537416	10.436598639455783	65	127
10.332108843537416	10.436598639455783	60	127
10.448208616780045	10.517845804988662	84	127
10.552698412698414	10.599138321995465	83	127
10.633968253968254	10.715238095238096	81	127
10.633968253968254	10.73845804988662	71	127
10.633968253968254	10.73845804988662	65	127
10.633968253968254	10.73845804988662	60	127
10.73845804988662	11.214444444444444	79	127
10.73845804988662	10.84294784580499	72	127
10.73845804988662	10.84294784580499	64	127
10.73845804988662	10.84294784580499	60	127
11.028707482993198	11.051927437641723	64	127
11.028707482993198	11.051927437641723	60	127
11.028707482993198	11.051927437641723	67	127
11.063537414965987	11.168027210884354	67	127
11.063537414965987	11.168027210884354	64	127
11.063537414965987	11.168027210884354	60	127
11.260907029478458	11.365396825396825	64	127
11.260907029478458	11.342154195011338	77	127
11.260907029478458	11.365396825396825	67	127
11.260907029478458	11.365396825396825	60	127
11.376984126984127	11.469863945578231	76	127
11.376984126984127	11.469863945578231	67	127
11.376984126984127	11.469863945578231	64	127
11.376984126984127	11.469863945578231	60	127
11.678866213151927	11.783356009070294	74	127
11.678866213151927	11.783356009070294	67	127
11.678866213151927	11.783356009070294	64	127
11.678866213151927	11.783356009070294	60	127
11.783356009070294	11.887845804988663	72	127
11.783356009070294	11.887845804988663	67	127
11.783356009070294	11.887845804988663	64	127
11.783356009070294	11.887845804988663	60	127
12.131655328798185	12.236145124716554	71	127
12.131655328798185	12.236145124716554	67	127
12.131655328798185	12.236145124716554	64	127
12.131655328798185	12.236145124716554	60	127
12.236145124716554	12.34063492063492	60	127
12.236145124716554	12.34063492063492	71	127
12.236145124716554	12.34063492063492	67	127
12.236145124716554	12.34063492063492	64	127
12.34063492063492	12.410294784580499	69	127
12.421904761904761	12.52639455782313	67	127
12.52639455782313	12.60766439909297	69	127
12.52639455782313	12.60766439909297	67	127
12.52639455782313	12.60766439909297	64	127
12.52639455782313	12.60766439909297	60	127
12.619274376417234	12.712154195011339	59	127
12.619274376417234	12.712154195011339	67	127
12.619274376417234	12.712154195011339	64	127
12.619274376417234	13.153333333333334	71	127
12.90952380952381	12.955963718820861	64	127
12.90952380952381	12.955963718820861	59	127
12.90952380952381	12.955963718820861	67	127
12.955963718820861	13.037233560090703	66	127
12.955963718820861	13.037233560090703	69	127
12.955963718820861	13.037233560090703	59	127
13.153333333333334	13.257823129251701	73	127
13.269433106575963	13.37392290249433	69	127
13.269433106575963	13.37392290249433	75	127
13.269433106575963	13.37392290249433	66	127
13.269433106575963	13.37392290249433	59	127
13.37392290249433	13.478412698412699	69	127
13.37392290249433	13.478412698412699	66	127
13.37392290249433	13.478412698412699	59	127
13.37392290249433	13.571292517006803	76	127
13.571292517006803	13.687392290249432	78	127
13.687392290249432	13.791882086167801	75	127
13.687392290249432	13.791882086167801	69	127
13.687392290249432	13.791882086167801	66	127
13.687392290249432	13.791882086167801	59	127
13.803492063492063	13.90798185941043	67	127
13.803492063492063	13.90798185941043	59	127
13.803492063492063	13.90798185941043	64	127
13.803492063492063	14.047301587301588	76	127
14.047301587301588	14.128571428571428	64	127
14.047301587301588	14.128571428571428	59	127
14.047301587301588	14.128571428571428	52	127
14.128571428571428	14.233061224489797	52	127
14.128571428571428	14.233061224489797	64	127
14.128571428571428	14.233061224489797	59	127
14.128571428571428	14.430430839002268	79	127
14.44204081632653	14.546530612244897	59	127
14.44204081632653	14.546530612244897	64	127
14.44204081632653	14.546530612244897	52	127
14.546530612244897	14.639410430839002	54	127
14.546530612244897	14.639410430839002	61	127
14.546530612244897	15.173469387755102	78	127
14.546530612244897	14.639410430839002	58	127
14.86	14.964489795918368	54	127
14.86	14.964489795918368	61	127
14.86	14.964489795918368	58	127
14.964489795918368	15.080589569160997	58	127
14.964489795918368	15.080589569160997	54	127
14.964489795918368	15.080589569160997	61	127
15.185079365079366	15.324399092970522	85	127
15.219909297052155	15.324399092970522	61	127
15.219909297052155	15.324399092970522	58	127
15.219909297052155	15.324399092970522	54	127
15.324399092970522	15.417278911564626	58	127
15.324399092970522	15.417278911564626	85	127
15.324399092970522	15.417278911564626	61	127
15.324399092970522	15.417278911564626	54	127
15.417278911564626	15.51015873015873	82	127
15.521768707482993	15.672698412698413	78	127
15.614648526077097	15.730748299319728	61	127
15.614648526077097	15.730748299319728	58	127
15.614648526077097	15.730748299319728	54	127
15.730748299319728	15.835238095238095	61	127
15.730748299319728	15.835238095238095	58	127
15.730748299319728	15.835238095238095	54	127
15.730748299319728	15.89328798185941	78	127
15.951337868480726	16.04421768707483	78	127
15.997777777777777	16.102267573696146	61	127
15.997777777777777	16.102267573696146	58	127
15.997777777777777	16.102267573696146	54	127
16.102267573696146	16.42734693877551	78	127
16.102267573696146	16.42734693877551	61	127
16.102267573696146	16.42734693877551	58	127
16.102267573696146	16.42734693877551	54	127
16.54344671201814	16.88013605442177	57	127
16.54344671201814	16.88013605442177	84	127
16.54344671201814	16.88013605442177	66	127
16.54344671201814	16.88013605442177	50	127
17.007845804988662	17.37936507936508	55	127
17.007845804988662	17.37936507936508	65	127
17.007845804988662	17.37936507936508	83	127
17.007845804988662	17.37936507936508	62	127
17.507074829931973	17.8553514739229	77	127
17.507074829931973	17.8553514739229	55	127
17.507074829931973	17.8553514739229	62	127
17.507074829931973	17.8553514739229	43	127
17.507074829931973	17.8553514739229	83	127
17.983061224489795	18.61002267573696	84	127
17.983061224489795	18.087573696145125	76	127
17.983061224489795	18.087573696145125	55	127
17.983061224489795	18.087573696145125	48	127
17.983061224489795	18.087573696145125	36	127
18.284943310657596	18.389433106575964	55	127
18.284943310657596	18.389433106575964	48	127
18.284943310657596	18.389433106575964	36	127
18.284943310657596	18.389433106575964	64	127
18.389433106575964	18.49390022675737	48	127
18.389433106575964	18.49390022675737	64	127
18.389433106575964	18.49390022675737	55	127
18.389433106575964	18.49390022675737	36	127
18.61002267573696	18.656462585034014	84	127
18.656462585034014	18.749319727891155	86	127
18.656462585034014	18.749319727891155	64	127
18.656462585034014	18.749319727891155	55	127
18.656462585034014	18.749319727891155	48	127
18.656462585034014	18.749319727891155	36	127
18.760952380952382	18.853832199546485	88	127
18.760952380952382	18.853832199546485	64	127
18.760952380952382	18.853832199546485	55	127
18.760952380952382	18.853832199546485	48	127
18.760952380952382	18.853832199546485	36	127
19.074421768707484	19.155691609977325	86	127
19.074421768707484	19.155691609977325	64	127
19.074421768707484	19.155691609977325	55	127
19.074421768707484	19.155691609977325	48	127
19.074421768707484	19.155691609977325	36	127
19.167301587301587	19.248571428571427	65	127
19.167301587301587	19.248571428571427	84	127
19.167301587301587	19.248571428571427	57	127
19.167301587301587	19.248571428571427	48	127
19.167301587301587	19.248571428571427	36	127
19.434331065759636	19.527210884353742	65	127
19.434331065759636	19.527210884353742	59	127
19.434331065759636	19.527210884353742	48	127
19.434331065759636	19.527210884353742	36	127
19.434331065759636	19.527210884353742	81	127
19.527210884353742	20.16575963718821	79	127
19.527210884353742	19.631678004535146	64	127
19.527210884353742	19.631678004535146	60	127
19.527210884353742	19.631678004535146	48	127
19.527210884353742	19.631678004535146	36	127
19.840680272108845	19.94517006802721	55	127
19.840680272108845	19.94517006802721	48	127
19.840680272108845	19.94517006802721	36	127
19.840680272108845	19.94517006802721	64	127
19.94517006802721	20.06126984126984	55	127
19.94517006802721	20.06126984126984	48	127
19.94517006802721	20.06126984126984	36	127
19.94517006802721	20.06126984126984	64	127
20.17736961451247	20.212199546485262	84	127
20.212199546485262	20.316689342403627	86	127
20.212199546485262	20.316689342403627	64	127
20.212199546485262	20.316689342403627	55	127
20.212199546485262	20.316689342403627	48	127
20.212199546485262	20.316689342403627	36	127
20.32829931972789	20.421179138321996	88	127
20.32829931972789	20.421179138321996	64	127
20.32829931972789	20.421179138321996	55	127
20.32829931972789	20.421179138321996	48	127
20.32829931972789	20.421179138321996	36	127
20.421179138321996	20.490839002267574	86	127
20.5140589569161	20.595328798185943	84	127
20.618548752834467	20.699818594104308	83	127
20.618548752834467	20.7346485260771	64	127
20.618548752834467	20.7346485260771	55	127
20.618548752834467	20.7346485260771	48	127
20.618548752834467	20.7346485260771	36	127
20.7346485260771	20.839115646258502	65	127
20.7346485260771	20.839115646258502	86	127
20.7346485260771	20.839115646258502	57	127
20.7346485260771	20.839115646258502	48	127
20.7346485260771	20.839115646258502	36	127
20.85074829931973	20.908798185941045	84	127
20.908798185941045	20.943628117913832	83	127
20.978458049886623	21.071337868480725	65	127
20.978458049886623	21.071337868480725	59	127
20.978458049886623	21.071337868480725	48	127
20.978458049886623	21.071337868480725	36	127
20.978458049886623	21.0481179138322	81	127
21.071337868480725	21.709886621315192	79	127
21.071337868480725	21.152607709750566	48	127
21.071337868480725	21.152607709750566	36	127
21.071337868480725	21.152607709750566	64	127
21.071337868480725	21.152607709750566	60	127
21.384807256235828	21.489297052154196	36	127
21.384807256235828	21.489297052154196	67	127
21.384807256235828	21.489297052154196	52	127
21.384807256235828	21.489297052154196	48	127
21.50090702947846	21.605396825396827	48	127
21.50090702947846	21.605396825396827	67	127
21.50090702947846	21.605396825396827	52	127
21.50090702947846	21.605396825396827	36	127
21.767936507936508	21.849206349206348	77	127
21.767936507936508	21.849206349206348	65	127
21.767936507936508	21.872426303854876	50	127
21.767936507936508	21.872426303854876	48	127
21.767936507936508	21.872426303854876	36	127
21.872426303854876	21.96530612244898	76	127
21.872426303854876	21.96530612244898	64	127
21.872426303854876	21.96530612244898	48	127
21.872426303854876	21.96530612244898	48	127
21.872426303854876	21.96530612244898	36	127
22.104603174603174	22.16267573696145	74	127
22.104603174603174	22.16267573696145	62	127
22.104603174603174	22.16267573696145	50	127
22.104603174603174	22.16267573696145	48	127
22.104603174603174	22.16267573696145	36	127
22.16267573696145	22.26716553287982	48	127
22.16267573696145	22.26716553287982	72	127
22.16267573696145	22.26716553287982	60	127
22.16267573696145	22.26716553287982	52	127
22.16267573696145	22.26716553287982	36	127
22.441315192743765	22.534195011337868	59	127
22.441315192743765	22.534195011337868	52	127
22.441315192743765	22.534195011337868	48	127
22.441315192743765	22.534195011337868	36	127
22.441315192743765	22.534195011337868	71	127
22.534195011337868	22.638684807256237	71	127
22.534195011337868	22.638684807256237	59	127
22.534195011337868	22.638684807256237	52	127
22.534195011337868	22.638684807256237	48	127
22.534195011337868	22.638684807256237	36	127
22.638684807256237	22.74315192743764	69	127
22.638684807256237	22.74315192743764	57	127
22.754784580498868	22.836054421768708	67	127
22.754784580498868	22.836054421768708	55	127
22.836054421768708	22.940544217687076	36	127
22.836054421768708	22.940544217687076	69	127
22.836054421768708	22.940544217687076	57	127
22.836054421768708	22.940544217687076	52	127
22.836054421768708	22.940544217687076	48	127
22.95215419501134	23.056621315192743	55	127
22.95215419501134	23.056621315192743	52	127
22.95215419501134	23.056621315192743	47	127
22.95215419501134	23.521043083900228	71	127
22.95215419501134	23.521043083900228	59	127
23.219183673469388	23.323673469387757	47	127
23.219183673469388	23.323673469387757	55	127
23.219183673469388	23.323673469387757	52	127
23.323673469387757	23.404943310657597	47	127
23.323673469387757	23.404943310657597	54	127
23.323673469387757	23.404943310657597	57	127
23.521043083900228	23.625532879818593	73	127
23.521043083900228	23.625532879818593	61	127
23.63714285714286	23.741632653061224	75	127
23.63714285714286	23.741632653061224	63	127
23.63714285714286	23.741632653061224	54	127
23.63714285714286	23.741632653061224	57	127
23.63714285714286	23.741632653061224	47	127
23.741632653061224	23.927392290249433	76	127
23.741632653061224	23.83451247165533	54	127
23.741632653061224	23.83451247165533	57	127
23.741632653061224	23.83451247165533	47	127
23.741632653061224	23.927392290249433	64	127
23.927392290249433	23.985442176870748	78	127
23.927392290249433	23.985442176870748	66	127
23.985442176870748	24.089931972789117	75	127
23.985442176870748	24.089931972789117	57	127
23.985442176870748	24.089931972789117	47	127
23.985442176870748	24.089931972789117	54	127
23.985442176870748	24.089931972789117	63	127
24.10154195011338	24.11315192743764	64	127
24.10154195011338	24.11315192743764	67	127
24.10154195011338	24.11315192743764	59	127
24.10154195011338	24.26408163265306	76	127
24.26408163265306	24.40340136054422	64	127
24.26408163265306	24.40340136054422	59	127
24.26408163265306	24.40340136054422	52	127
24.41501133786848	24.531111111111112	64	127
24.41501133786848	24.531111111111112	59	127
24.41501133786848	24.531111111111112	52	127
24.41501133786848	24.76331065759637	79	127
24.774920634920633	24.879410430839002	59	127
24.774920634920633	24.879410430839002	64	127
24.774920634920633	24.879410430839002	52	127
24.891020408163264	24.995510204081633	61	127
24.891020408163264	24.995510204081633	58	127
24.891020408163264	24.995510204081633	54	127
24.891020408163264	25.541179138321997	78	127
25.227709750566895	25.33219954648526	58	127
25.227709750566895	25.33219954648526	54	127
25.227709750566895	25.33219954648526	61	127
25.343809523809522	25.43668934240363	58	127
25.343809523809522	25.43668934240363	54	127
25.343809523809522	25.43668934240363	61	127
25.541179138321997	25.657278911564624	85	127
25.55278911564626	25.657278911564624	61	127
25.55278911564626	25.657278911564624	58	127
25.55278911564626	25.657278911564624	54	127
25.66888888888889	25.773378684807255	85	127
25.66888888888889	25.773378684807255	61	127
25.66888888888889	25.773378684807255	58	127
25.66888888888889	25.773378684807255	54	127
25.773378684807255	25.889478458049886	82	127
25.889478458049886	26.05201814058957	78	127
26.005578231292517	26.110068027210886	58	127
26.005578231292517	26.110068027210886	54	127
26.005578231292517	26.110068027210886	61	127
26.110068027210886	26.272607709750567	78	127
26.110068027210886	26.21455782312925	61	127
26.110068027210886	26.21455782312925	58	127
26.110068027210886	26.21455782312925	54	127
26.330657596371882	26.377097505668935	78	127
26.330657596371882	26.43514739229025	61	127
26.330657596371882	26.43514739229025	58	127
26.330657596371882	26.43514739229025	54	127
26.43514739229025	26.760226757369615	78	127
26.43514739229025	26.760226757369615	61	127
26.43514739229025	26.760226757369615	58	127
26.43514739229025	26.760226757369615	54	127
26.88793650793651	27.27106575963719	50	127
26.88793650793651	27.27106575963719	84	127
26.88793650793651	27.27106575963719	66	127
26.88793650793651	27.27106575963719	57	127
27.410385487528345	27.758684807256238	65	127
27.410385487528345	27.758684807256238	62	127
27.410385487528345	27.758684807256238	55	127
27.410385487528345	27.758684807256238	83	127
27.874784580498865	28.176643990929705	43	127
27.874784580498865	28.176643990929705	77	127
27.874784580498865	28.176643990929705	55	127
27.874784580498865	28.176643990929705	62	127
27.874784580498865	28.176643990929705	83	127
28.292743764172336	28.896462585034012	84	127
28.292743764172336	28.397233560090704	76	127
28.292743764172336	28.397233560090704	55	127
28.292743764172336	28.397233560090704	48	127
28.292743764172336	28.397233560090704	36	127
28.582993197278913	28.664263038548754	52	127
28.582993197278913	28.664263038548754	55	127
28.582993197278913	28.664263038548754	48	127
28.582993197278913	28.664263038548754	36	127
28.582993197278913	28.664263038548754	64	127
28.675873015873016	28.780362811791385	48	127
28.675873015873016	28.780362811791385	64	127
28.675873015873016	28.780362811791385	52	127
28.675873015873016	28.780362811791385	55	127
28.675873015873016	28.780362811791385	36	127
28.908072562358278	29.012562358276643	64	127
28.908072562358278	29.012562358276643	52	127
28.908072562358278	29.012562358276643	55	127
28.908072562358278	29.012562358276643	48	127
28.908072562358278	29.012562358276643	36	127
28.908072562358278	29.012562358276643	86	127
29.012562358276643	29.11705215419501	64	127
29.012562358276643	29.11705215419501	52	127
29.012562358276643	29.11705215419501	55	127
29.012562358276643	29.11705215419501	48	127
29.012562358276643	29.11705215419501	88	127
29.012562358276643	29.11705215419501	36	127
29.30281179138322	29.40730158730159	86	127
29.30281179138322	29.40730158730159	64	127
29.30281179138322	29.40730158730159	52	127
29.30281179138322	29.40730158730159	55	127
29.30281179138322	29.40730158730159	48	127
29.30281179138322	29.40730158730159	36	127
29.40730158730159	29.523401360544216	48	127
29.40730158730159	29.523401360544216	84	127
29.40730158730159	29.523401360544216	65	127
29.40730158730159	29.523401360544216	54	127
29.40730158730159	29.523401360544216	57	127
29.40730158730159	29.523401360544216	36	127
29.720770975056688	29.825260770975056	65	127
29.720770975056688	29.825260770975056	59	127
29.720770975056688	29.825260770975056	48	127
29.720770975056688	29.825260770975056	36	127
29.720770975056688	29.825260770975056	81	127
29.83687074829932	30.463809523809523	79	127
29.83687074829932	29.929750566893425	64	127
29.83687074829932	29.929750566893425	60	127
29.83687074829932	29.929750566893425	48	127
29.83687074829932	29.929750566893425	36	127
30.127120181405896	30.243219954648527	52	127
30.127120181405896	30.243219954648527	55	127
30.127120181405896	30.243219954648527	48	127
30.127120181405896	30.243219954648527	36	127
30.127120181405896	30.243219954648527	67	127
30.243219954648527	30.347709750566892	67	127
30.243219954648527	30.347709750566892	52	127
30.243219954648527	30.347709750566892	55	127
30.243219954648527	30.347709750566892	48	127
30.243219954648527	30.347709750566892	36	127
30.463809523809523	30.55668934240363	84	127
30.568299319727892	30.661179138321994	86	127
30.568299319727892	30.661179138321994	67	127
30.568299319727892	30.661179138321994	52	127
30.568299319727892	30.661179138321994	55	127
30.568299319727892	30.661179138321994	48	127
30.568299319727892	30.661179138321994	36	127
30.661179138321994	30.730839002267572	88	127
30.661179138321994	30.730839002267572	67	127
30.661179138321994	30.730839002267572	52	127
30.661179138321994	30.730839002267572	55	127
30.661179138321994	30.730839002267572	48	127
30.661179138321994	30.730839002267572	36	127
30.74244897959184	30.812108843537416	86	127
30.82371882086168	30.893378684807256	84	127
30.91659863945578	30.974648526077097	83	127
30.91659863945578	30.98625850340136	67	127
30.91659863945578	30.98625850340136	52	127
30.91659863945578	30.98625850340136	55	127
30.91659863945578	30.98625850340136	48	127
30.91659863945578	30.98625850340136	36	127
30.997868480725625	31.10235827664399	86	127
30.997868480725625	31.10235827664399	54	127
30.997868480725625	31.10235827664399	57	127
30.997868480725625	31.10235827664399	48	127
30.997868480725625	31.10235827664399	36	127
31.10235827664399	31.183628117913834	84	127
31.21845804988662	31.2881179138322	83	127
31.21845804988662	31.32294784580499	72	127
31.32294784580499	31.40421768707483	81	127
31.32294784580499	31.427437641723355	74	127
31.32294784580499	31.427437641723355	59	127
31.32294784580499	31.427437641723355	48	127
31.32294784580499	31.427437641723355	36	127
31.43904761904762	31.543537414965986	60	127
31.43904761904762	31.543537414965986	76	127
31.43904761904762	31.543537414965986	48	127
31.43904761904762	31.543537414965986	36	127
31.43904761904762	31.97310657596372	79	127
31.543537414965986	31.613197278911564	74	127
31.636417233560092	31.67124716553288	72	127
31.67124716553288	31.78734693877551	48	127
31.67124716553288	31.78734693877551	36	127
31.67124716553288	31.78734693877551	52	127
31.67124716553288	31.75251700680272	71	127
31.78734693877551	31.880226757369613	36	127
31.78734693877551	31.880226757369613	74	127
31.78734693877551	31.880226757369613	53	127
31.78734693877551	31.880226757369613	48	127
31.89183673469388	31.961496598639457	72	127
31.97310657596372	32.01954648526077	71	127
32.05437641723356	32.1356462585034	77	127
32.05437641723356	32.1356462585034	69	127
32.05437641723356	32.15884353741497	57	127
32.05437641723356	32.15884353741497	48	127
32.05437641723356	32.15884353741497	36	127
32.15884353741497	32.21691609977324	67	127
32.15884353741497	32.21691609977324	76	127
32.15884353741497	32.21691609977324	60	127
32.15884353741497	32.21691609977324	48	127
32.15884353741497	32.21691609977324	36	127
32.40267573696145	32.50716553287982	74	127
32.40267573696145	32.50716553287982	69	127
32.40267573696145	32.50716553287982	65	127
32.40267573696145	32.50716553287982	48	127
32.40267573696145	32.50716553287982	36	127
32.51877551020408	32.62326530612245	72	127
32.51877551020408	32.62326530612245	67	127
32.51877551020408	32.62326530612245	64	127
32.51877551020408	32.62326530612245	48	127
32.51877551020408	32.62326530612245	36	127
32.80902494331066	32.90190476190476	71	127
32.80902494331066	32.90190476190476	65	127
32.80902494331066	32.90190476190476	62	127
32.80902494331066	32.90190476190476	48	127
32.80902494331066	32.90190476190476	36	127
32.90190476190476	32.95995464852608	36	127
32.90190476190476	32.95995464852608	71	127
32.90190476190476	32.95995464852608	64	127
32.90190476190476	32.95995464852608	60	127
32.90190476190476	32.95995464852608	48	127
32.95995464852608	33.07605442176871	69	127
33.07605442176871	33.15732426303855	67	127
33.16891156462585	33.261814058956915	69	127
33.16891156462585	33.261814058956915	64	127
33.16891156462585	33.261814058956915	60	127
33.16891156462585	33.261814058956915	60	127
33.261814058956915	33.366303854875284	59	127
33.261814058956915	33.366303854875284	67	127
33.261814058956915	33.366303854875284	64	127
33.261814058956915	33.865532879818595	71	127
33.57528344671202	33.679750566893425	64	127
33.57528344671202	33.679750566893425	59	127
33.57528344671202	33.679750566893425	67	127
33.679750566893425	33.79587301587301	64	127
33.679750566893425	33.79587301587301	67	127
33.679750566893425	33.79587301587301	59	127
33.87714285714286	33.9584126984127	69	127
33.9584126984127	34.062879818594105	59	127
33.9584126984127	34.062879818594105	71	127
33.9584126984127	34.062879818594105	67	127
33.9584126984127	34.062879818594105	64	127
34.07451247165533	34.17900226757369	69	127
34.07451247165533	34.17900226757369	64	127
34.07451247165533	34.17900226757369	57	127
34.07451247165533	34.64340136054422	72	127
34.353151927437644	34.45764172335601	64	127
34.353151927437644	34.45764172335601	57	127
34.353151927437644	34.45764172335601	69	127
34.45764172335601	34.562108843537416	63	127
34.45764172335601	34.562108843537416	57	127
34.45764172335601	34.562108843537416	66	127
34.64340136054422	34.747891156462586	71	127
34.75950113378685	34.84077097505669	75	127
34.75950113378685	34.84077097505669	66	127
34.75950113378685	34.84077097505669	59	127
34.75950113378685	34.84077097505669	57	127
34.84077097505669	34.945238095238096	76	127
34.84077097505669	34.945238095238096	64	127
34.84077097505669	34.945238095238096	59	127
34.84077097505669	34.945238095238096	55	127
35.061360544217685	35.14263038548753	71	127
35.14263038548753	35.2471201814059	76	127
35.14263038548753	35.2471201814059	64	127
35.14263038548753	35.2471201814059	59	127
35.14263038548753	35.2471201814059	55	127
35.25873015873016	35.36321995464853	78	127
35.25873015873016	35.36321995464853	63	127
35.25873015873016	35.36321995464853	57	127
35.25873015873016	35.36321995464853	54	127
35.4677097505669	35.49092970521542	71	127
35.502539682539684	35.59541950113379	78	127
35.502539682539684	35.59541950113379	63	127
35.502539682539684	35.59541950113379	57	127
35.502539682539684	35.59541950113379	54	127
35.59541950113379	35.69990929705215	79	127
35.59541950113379	35.69990929705215	64	127
35.59541950113379	35.69990929705215	59	127
35.59541950113379	35.69990929705215	52	127
35.81600907029478	35.90888888888889	76	127
35.90888888888889	36.001768707482995	79	127
35.90888888888889	36.001768707482995	64	127
35.90888888888889	36.001768707482995	59	127
35.90888888888889	36.001768707482995	52	127
36.01337868480726	36.117868480725626	81	127
36.01337868480726	36.117868480725626	64	127
36.01337868480726	36.117868480725626	57	127
36.01337868480726	36.117868480725626	48	127
36.23396825396826	36.33843537414966	76	127
36.35004535147392	36.44294784580499	81	127
36.35004535147392	36.44294784580499	64	127
36.35004535147392	36.44294784580499	57	127
36.35004535147392	36.44294784580499	48	127
36.44294784580499	36.547437641723356	83	127
36.44294784580499	36.547437641723356	64	127
36.44294784580499	36.547437641723356	56	127
36.44294784580499	36.547437641723356	47	127
36.67514739229025	36.768027210884355	76	127
36.768027210884355	36.86090702947846	83	127
36.768027210884355	36.86090702947846	68	127
36.768027210884355	36.86090702947846	52	127
36.768027210884355	36.86090702947846	47	127
36.872517006802724	36.96539682539682	84	127
36.872517006802724	36.96539682539682	69	127
36.872517006802724	36.96539682539682	52	127
36.872517006802724	36.96539682539682	45	127
37.035056689342404	37.13954648526077	81	127
37.151156462585035	37.20920634920635	78	127
37.151156462585035	37.20920634920635	69	127
37.151156462585035	37.20920634920635	54	127
37.151156462585035	37.20920634920635	45	127
37.20920634920635	37.313696145124716	75	127
37.20920634920635	37.313696145124716	63	127
37.20920634920635	37.313696145124716	54	127
37.20920634920635	37.313696145124716	47	127
37.42979591836735	37.534285714285716	71	127
37.534285714285716	37.62716553287982	75	127
37.534285714285716	37.62716553287982	71	127
37.534285714285716	37.62716553287982	54	127
37.534285714285716	37.62716553287982	47	127
37.62716553287982	37.72004535147392	76	127
37.62716553287982	37.72004535147392	71	127
37.62716553287982	37.72004535147392	55	127
37.62716553287982	37.82453514739229	43	127
37.82453514739229	37.92902494331066	71	127
37.82453514739229	38.04512471655329	55	127
37.82453514739229	38.04512471655329	64	127
37.82453514739229	38.04512471655329	59	127
37.94063492063492	38.04512471655329	75	127
38.04512471655329	38.138004535147395	76	127
38.04512471655329	38.230884353741494	55	127
38.25408163265306	38.451473922902494	55	127
38.25408163265306	38.35859410430839	71	127
38.25408163265306	38.451473922902494	64	127
38.25408163265306	38.451473922902494	59	127
38.35859410430839	38.451473922902494	76	127
38.451473922902494	38.683673469387756	54	127
38.451473922902494	38.567573696145125	78	127
38.683673469387756	38.881020408163266	66	127
38.683673469387756	38.77655328798186	71	127
38.683673469387756	38.881020408163266	63	127
38.683673469387756	38.881020408163266	57	127
38.77655328798186	38.881020408163266	78	127
38.89265306122449	38.98553287981859	79	127
38.89265306122449	39.09002267573696	52	127
39.09002267573696	39.24095238095238	67	127
39.09002267573696	39.24095238095238	59	127
39.09002267573696	39.14807256235828	76	127
39.09002267573696	39.24095238095238	64	127
39.14807256235828	39.24095238095238	79	127
39.24095238095238	39.46154195011338	48	127
39.24095238095238	39.34544217687075	81	127
39.46154195011338	39.670521541950116	64	127
39.46154195011338	39.56603174603175	76	127
39.46154195011338	39.670521541950116	69	127
39.46154195011338	39.670521541950116	60	127
39.56603174603175	39.670521541950116	81	127
39.68213151927438	39.78662131519275	83	127
39.68213151927438	39.879501133786846	47	127
39.879501133786846	40.100090702947846	68	127
39.879501133786846	39.983990929705215	76	127
39.879501133786846	40.100090702947846	62	127
39.879501133786846	40.100090702947846	71	127
39.99560090702948	40.100090702947846	83	127
40.100090702947846	40.204580498866214	84	127
40.100090702947846	40.29746031746032	45	127
40.30907029478458	40.41356009070295	81	127
40.30907029478458	40.50643990929705	72	127
40.30907029478458	40.50643990929705	69	127
40.41356009070295	40.50643990929705	78	127
40.51804988662131	40.62253968253968	75	127
40.51804988662131	40.71541950113379	47	127
40.71541950113379	40.93600907029479	66	127
40.71541950113379	40.819909297052156	71	127
40.71541950113379	40.93600907029479	69	127
40.83151927437642	40.93600907029479	75	127
40.93600907029479	41.04047619047619	76	127
40.93600907029479	41.04047619047619	67	127
40.93600907029479	41.15659863945578	59	127
40.93600907029479	41.15659863945578	40	127
41.04047619047619	41.15659863945578	78	127
41.168185941043085	41.27269841269841	76	127
41.27269841269841	41.37718820861678	66	127
41.27269841269841	41.37718820861678	75	127
41.38879818594104	41.470068027210885	64	127
41.38879818594104	41.470068027210885	76	127
41.48167800453515	41.574557823129254	79	127
41.574557823129254	41.59777777777778	78	127
41.60938775510204	41.71387755102041	76	127
41.60938775510204	41.71387755102041	59	127
41.71387755102041	41.93446712018141	66	127
41.71387755102041	41.93446712018141	47	127
41.71387755102041	41.82997732426304	75	127
41.71387755102041	41.82997732426304	69	127
41.71387755102041	41.93446712018141	59	127
41.82997732426304	41.93446712018141	76	127
41.94607709750567	42.050544217687076	75	127
42.050544217687076	42.1550566893424	73	127
42.050544217687076	42.1550566893424	67	127
42.1550566893424	42.25954648526077	75	127
42.1550566893424	42.25954648526077	66	127
42.27115646258503	42.340816326530614	78	127
42.340816326530614	42.387256235827664	76	127
42.387256235827664	42.49174603174603	75	127
42.387256235827664	42.49174603174603	59	127
42.503356009070295	42.60784580498866	67	127
42.503356009070295	42.60784580498866	76	127
42.503356009070295	42.71233560090703	59	127
42.503356009070295	42.71233560090703	52	127
42.60784580498866	42.71233560090703	78	127
42.723945578231294	42.82843537414966	76	127
42.82843537414966	42.92131519274376	75	127
42.82843537414966	42.92131519274376	66	127
42.92131519274376	43.02580498866213	64	127
42.92131519274376	43.02580498866213	76	127
43.03741496598639	43.14190476190476	79	127
43.14190476190476	43.199931972789116	78	127
43.199931972789116	43.30444444444444	76	127
43.199931972789116	43.30444444444444	59	127
43.31603174603175	43.54825396825397	47	127
43.31603174603175	43.42054421768707	75	127
43.31603174603175	43.42054421768707	69	127
43.31603174603175	43.54825396825397	54	127
43.31603174603175	43.54825396825397	59	127
43.42054421768707	43.54825396825397	76	127
43.54825396825397	43.64113378684807	78	127
43.652743764172335	43.74562358276644	79	127
43.652743764172335	43.74562358276644	67	127
43.74562358276644	43.85011337868481	81	127
43.74562358276644	43.85011337868481	66	127
43.86172335600907	43.96621315192744	83	127
43.96621315192744	44.05909297052154	87	127
43.96621315192744	44.05909297052154	59	127
44.0707029478458	44.17519274376417	55	127
44.0707029478458	44.17519274376417	52	127
44.0707029478458	44.27968253968254	88	127
44.0707029478458	44.27968253968254	67	127
44.27968253968254	44.34934240362812	55	127
44.27968253968254	44.34934240362812	52	127
44.360952380952384	44.46541950113379	57	127
44.360952380952384	44.46541950113379	54	127
44.46541950113379	44.569931972789114	59	127
44.46541950113379	44.569931972789114	55	127
44.69764172335601	44.77891156462585	60	127
44.69764172335601	44.77891156462585	57	127
44.77891156462585	44.87179138321996	62	127
44.77891156462585	44.87179138321996	59	127
44.88340136054422	44.98789115646259	64	127
44.88340136054422	44.98789115646259	60	127
45.09235827664399	45.19687074829932	64	127
45.09235827664399	45.19687074829932	60	127
45.20848072562358	45.31297052154195	66	127
45.20848072562358	45.31297052154195	62	127
45.31297052154195	45.37102040816327	72	127
45.31297052154195	45.37102040816327	67	127
45.31297052154195	45.37102040816327	64	127
45.37102040816327	45.41746031746032	74	127
45.37102040816327	45.41746031746032	69	127
45.37102040816327	45.41746031746032	66	127
45.41746031746032	45.47548752834467	72	127
45.41746031746032	45.47548752834467	67	127
45.41746031746032	45.47548752834467	64	127
45.47548752834467	45.53356009070295	74	127
45.47548752834467	45.53356009070295	69	127
45.47548752834467	45.53356009070295	66	127
45.53356009070295	45.603197278911566	72	127
45.53356009070295	45.603197278911566	67	127
45.53356009070295	45.603197278911566	64	127
45.603197278911566	45.68448979591837	71	127
45.603197278911566	45.68448979591837	66	127
45.603197278911566	45.68448979591837	62	127
45.68448979591837	45.75414965986395	72	127
45.68448979591837	45.75414965986395	67	127
45.68448979591837	45.75414965986395	64	127
45.75414965986395	45.85861678004535	71	127
45.75414965986395	45.85861678004535	78	127
45.75414965986395	45.96312925170068	66	127
45.75414965986395	45.96312925170068	62	127
45.96312925170068	46.021179138322	71	127
46.03278911564626	46.125668934240366	72	127
46.03278911564626	46.125668934240366	76	127
46.125668934240366	46.23015873015873	74	127
46.34625850340136	46.46235827664399	74	127
46.46235827664399	46.555238095238096	76	127
46.46235827664399	46.555238095238096	71	127
46.555238095238096	46.62487528344671	78	127
46.555238095238096	46.62487528344671	66	127
46.740975056689344	46.84548752834467	79	127
46.84548752834467	46.938367346938776	81	127
46.84548752834467	46.938367346938776	64	127
46.94997732426304	46.99639455782313	83	127
46.94997732426304	47.05446712018141	62	127
46.99639455782313	47.05446712018141	84	127
47.05446712018141	47.100907029478456	83	127
47.100907029478456	47.124104308390024	84	127
47.124104308390024	47.17056689342404	83	127
47.17056689342404	47.21700680272109	81	127
47.1821768707483	47.28666666666667	59	127
47.21700680272109	47.28666666666667	83	127
47.28666666666667	47.39115646258504	52	127
47.28666666666667	47.39115646258504	48	127
47.28666666666667	47.4956462585034	81	127
47.4956462585034	47.60013605442177	52	127
47.4956462585034	47.60013605442177	48	127
47.60013605442177	47.693015873015874	54	127
47.60013605442177	47.693015873015874	50	127
47.704625850340136	47.809115646258505	55	127
47.704625850340136	47.809115646258505	52	127
47.91360544217687	47.99487528344671	57	127
47.91360544217687	47.99487528344671	54	127
48.00648526077097	48.11097505668934	59	127
48.00648526077097	48.11097505668934	55	127
48.11097505668934	48.21546485260771	60	127
48.11097505668934	48.21546485260771	57	127
48.308344671201816	48.412834467120184	60	127
48.308344671201816	48.412834467120184	57	127
48.412834467120184	48.517324263038546	59	127
48.412834467120184	48.517324263038546	62	127
48.52893424036281	48.575374149659865	69	127
48.52893424036281	48.575374149659865	64	127
48.52893424036281	48.575374149659865	59	127
48.575374149659865	48.63342403628118	71	127
48.575374149659865	48.63342403628118	66	127
48.575374149659865	48.63342403628118	60	127
48.63342403628118	48.679863945578234	69	127
48.63342403628118	48.679863945578234	64	127
48.63342403628118	48.679863945578234	59	127
48.679863945578234	48.71469387755102	71	127
48.679863945578234	48.71469387755102	66	127
48.679863945578234	48.71469387755102	60	127
48.71469387755102	48.784353741496595	69	127
48.71469387755102	48.784353741496595	64	127
48.71469387755102	48.784353741496595	60	127
48.784353741496595	48.85401360544218	67	127
48.784353741496595	48.85401360544218	62	127
48.784353741496595	48.85401360544218	59	127
48.85401360544218	48.912063492063496	69	127
48.85401360544218	48.912063492063496	64	127
48.85401360544218	48.912063492063496	60	127
48.912063492063496	49.004943310657595	67	127
48.912063492063496	49.004943310657595	74	127
48.912063492063496	49.0978231292517	62	127
48.912063492063496	49.0978231292517	59	127
49.10943310657596	49.21392290249433	67	127
49.21392290249433	49.341632653061225	69	127
49.21392290249433	49.341632653061225	72	127
49.341632653061225	49.43451247165533	71	127
49.53900226757369	49.6318820861678	71	127
49.64349206349206	49.71315192743764	72	127
49.64349206349206	49.71315192743764	67	127
49.71315192743764	49.80603174603175	62	127
49.71315192743764	49.80603174603175	74	127
49.91052154195011	50.01501133786848	76	127
50.01501133786848	50.13111111111111	78	127
50.01501133786848	50.13111111111111	60	127
50.13111111111111	50.23560090702948	59	127
50.13111111111111	50.18916099773243	79	127
50.18916099773243	50.24721088435374	81	127
50.24721088435374	50.29365079365079	79	127
50.29365079365079	50.35170068027211	81	127
50.35170068027211	50.56068027210885	62	127
50.35170068027211	50.421360544217684	79	127
50.35170068027211	50.56068027210885	59	127
50.421360544217684	50.50263038548753	78	127
50.45619047619048	50.56068027210885	55	127
50.50263038548753	50.57229024943311	79	127
50.57229024943311	50.78126984126984	61	127
50.57229024943311	50.78126984126984	58	127
50.57229024943311	51.2340589569161	78	127
50.7928798185941	50.89736961451247	58	127
50.7928798185941	50.89736961451247	61	127
50.89736961451247	51.0134693877551	59	127
50.89736961451247	51.0134693877551	62	127
51.0134693877551	51.67523809523809	61	127
51.0134693877551	51.67523809523809	64	127
51.2340589569161	51.44303854875283	79	127
51.4546485260771	52.13963718820862	78	127
51.67523809523809	51.791337868480724	62	127
51.67523809523809	51.791337868480724	59	127
51.80294784580499	51.91904761904762	58	127
51.80294784580499	51.91904761904762	61	127
51.91904761904762	52.13963718820862	62	127
51.91904761904762	52.13963718820862	59	127
52.13963718820862	52.33700680272109	77	127
52.13963718820862	52.33700680272109	59	127
52.13963718820862	52.33700680272109	55	127
52.348616780045354	52.557596371882084	54	127
52.348616780045354	52.557596371882084	78	127
52.348616780045354	52.557596371882084	58	127
52.557596371882084	52.627256235827666	70	127
52.557596371882084	52.627256235827666	73	127
52.557596371882084	52.7433560090703	66	127
52.557596371882084	52.940725623582765	90	127
52.63886621315193	52.7433560090703	74	127
52.63886621315193	52.7433560090703	71	127
52.7433560090703	53.34707482993197	76	127
52.7433560090703	52.940725623582765	66	127
52.7433560090703	53.34707482993197	73	127
52.95233560090703	53.1497052154195	91	127
52.95233560090703	53.1497052154195	66	127
53.161315192743764	53.823083900226756	90	127
53.161315192743764	53.34707482993197	66	127
53.34707482993197	53.614104308390026	66	127
53.34707482993197	53.498004535147395	71	127
53.34707482993197	53.498004535147395	74	127
53.50961451247166	53.614104308390026	73	127
53.50961451247166	53.614104308390026	70	127
53.614104308390026	53.823083900226756	71	127
53.614104308390026	53.823083900226756	74	127
53.614104308390026	53.823083900226756	66	127
53.83469387755102	54.043673469387755	89	127
53.83469387755102	54.043673469387755	71	127
53.83469387755102	54.043673469387755	68	127
53.83469387755102	54.043673469387755	66	127
54.043673469387755	54.357142857142854	90	127
54.043673469387755	54.357142857142854	73	127
54.043673469387755	54.357142857142854	70	127
54.043673469387755	54.357142857142854	66	127
54.357142857142854	54.79832199546485	78	127
54.79832199546485	54.98408163265306	79	127
54.98408163265306	55.20467120181406	76	127
55.20467120181406	55.460090702947845	74	127
55.460090702947845	55.69229024943311	73	127
55.69229024943311	55.947709750566894	78	127
55.69229024943311	55.947709750566894	61	127
55.69229024943311	55.947709750566894	58	127
55.69229024943311	55.947709750566894	42	127
55.97092970521542	56.20312925170068	59	127
55.97092970521542	56.20312925170068	71	127
55.97092970521542	56.20312925170068	62	127
55.97092970521542	56.20312925170068	47	127
56.20312925170068	56.41210884353742	74	127
56.41210884353742	56.64430839002267	78	127
56.41210884353742	56.64430839002267	62	127
56.41210884353742	56.64430839002267	59	127
56.41210884353742	56.64430839002267	47	127
56.64430839002267	56.86489795918367	83	127
56.64430839002267	56.86489795918367	66	127
56.64430839002267	56.86489795918367	62	127
56.64430839002267	56.86489795918367	42	127
56.86489795918367	57.08548752834467	82	127
57.097097505668934	57.29446712018141	85	127
57.30607709750567	57.5150566893424	61	127
57.30607709750567	57.5150566893424	54	127
57.30607709750567	57.5150566893424	54	127
57.526666666666664	57.758866213151926	85	127
57.526666666666664	57.758866213151926	66	127
57.526666666666664	57.758866213151926	64	127
57.526666666666664	57.758866213151926	46	127
57.758866213151926	57.979455782312925	83	127
57.979455782312925	58.200045351473925	86	127
58.200045351473925	58.43224489795919	62	127
58.200045351473925	58.43224489795919	59	127
58.200045351473925	58.43224489795919	54	127
58.43224489795919	58.64122448979592	86	127
58.43224489795919	58.64122448979592	66	127
58.43224489795919	58.64122448979592	62	127
58.43224489795919	58.64122448979592	47	127
58.65283446712018	58.86181405895692	84	127
58.87342403628118	59.082403628117916	88	127
59.09401360544218	59.32621315192744	64	127
59.09401360544218	59.32621315192744	60	127
59.09401360544218	59.32621315192744	55	127
59.32621315192744	59.558412698412695	88	127
59.32621315192744	59.558412698412695	67	127
59.32621315192744	59.558412698412695	64	127
59.32621315192744	59.558412698412695	52	127
59.558412698412695	59.779002267573695	79	127
59.779002267573695	59.97637188208617	84	127
59.97637188208617	60.1853514739229	55	127
59.97637188208617	60.1853514739229	88	127
59.97637188208617	60.1853514739229	60	127
59.97637188208617	60.1853514739229	40	127
60.19696145124716	60.46399092970522	91	127
60.19696145124716	60.46399092970522	64	127
60.19696145124716	60.46399092970522	60	127
60.19696145124716	60.46399092970522	36	127
60.498820861678006	60.707800453514736	90	127
60.719410430839005	60.8471201814059	86	127
60.8471201814059	61.06770975056689	62	127
60.8471201814059	61.06770975056689	59	127
60.8471201814059	61.06770975056689	42	127
61.06770975056689	61.28829931972789	86	127
61.06770975056689	61.28829931972789	66	127
61.06770975056689	61.28829931972789	54	127
61.06770975056689	61.28829931972789	47	127
61.28829931972789	61.50888888888889	85	127
61.50888888888889	61.71786848072562	90	127
61.71786848072562	61.93845804988662	61	127
61.71786848072562	61.93845804988662	58	127
61.71786848072562	61.93845804988662	42	127
61.95006802721088	62.135827664399095	66	127
61.95006802721088	62.135827664399095	90	127
61.95006802721088	62.135827664399095	54	127
61.95006802721088	62.135827664399095	46	127
62.14743764172336	63.27360544217687	47	127
62.14743764172336	62.39124716553288	86	127
62.39124716553288	62.611836734693874	50	127
62.39124716553288	62.611836734693874	83	127
62.611836734693874	62.8556462585034	54	127
62.8556462585034	63.064625850340136	59	127
63.064625850340136	63.27360544217687	50	127
63.27360544217687	63.494195011337865	50	127
63.27360544217687	63.494195011337865	54	127
63.505804988662135	63.714784580498865	78	127
63.505804988662135	63.714784580498865	74	127
63.505804988662135	63.714784580498865	59	127
63.505804988662135	63.714784580498865	54	127
63.72639455782313	63.97020408163265	74	127
63.72639455782313	63.97020408163265	71	127
63.72639455782313	63.97020408163265	62	127
63.72639455782313	63.97020408163265	59	127
63.97020408163265	64.2372335600907	58	127
63.97020408163265	64.2372335600907	61	127
64.2372335600907	64.46943310657596	64	127
64.2372335600907	64.46943310657596	61	127
64.46943310657596	64.66680272108843	78	127
64.46943310657596	64.66680272108843	73	127
64.66680272108843	64.88739229024944	73	127
64.66680272108843	64.88739229024944	70	127
64.66680272108843	64.88739229024944	64	127
64.66680272108843	64.88739229024944	61	127
64.88739229024944	65.0847619047619	62	127
64.88739229024944	65.0847619047619	59	127
65.09637188208617	65.36340136054422	66	127
65.09637188208617	65.36340136054422	62	127
65.37501133786849	65.58396825396825	78	127
65.37501133786849	65.58396825396825	74	127
65.59560090702948	65.81616780045351	74	127
65.59560090702948	65.81616780045351	71	127
65.59560090702948	65.81616780045351	66	127
65.59560090702948	65.81616780045351	62	127
65.81616780045351	66.02517006802721	64	127
65.81616780045351	66.02517006802721	60	127
66.02517006802721	66.24575963718821	67	127
66.02517006802721	66.24575963718821	64	127
66.24575963718821	66.45471655328798	76	127
66.24575963718821	66.45471655328798	72	127
66.45471655328798	66.67532879818594	72	127
66.45471655328798	66.67532879818594	67	127
66.45471655328798	66.67532879818594	67	127
66.45471655328798	66.67532879818594	64	127
66.6869387755102	66.88430839002268	55	127
66.6869387755102	66.88430839002268	52	127
66.89591836734694	67.09326530612245	60	127
66.89591836734694	67.09326530612245	55	127
67.10489795918367	67.31387755102041	79	127
67.10489795918367	67.31387755102041	76	127
67.10489795918367	67.31387755102041	64	127
67.10489795918367	67.31387755102041	60	127
67.31387755102041	67.52285714285715	76	127
67.31387755102041	67.52285714285715	72	127
67.31387755102041	67.52285714285715	67	127
67.31387755102041	67.52285714285715	64	127
67.52285714285715	67.74344671201814	66	127
67.52285714285715	67.74344671201814	62	127
67.74344671201814	67.95242630385488	59	127
67.74344671201814	67.95242630385488	62	127
67.95242630385488	68.16140589569162	71	127
67.95242630385488	68.16140589569162	74	127
68.16140589569162	68.35877551020408	78	127
68.16140589569162	68.35877551020408	74	127
68.16140589569162	68.35877551020408	62	127
68.16140589569162	68.35877551020408	59	127
68.37036281179138	68.59097505668935	64	127
68.37036281179138	68.59097505668935	61	127
68.6025850340136	68.81156462585034	61	127
68.6025850340136	68.81156462585034	54	127
68.81156462585034	69.00891156462585	73	127
68.81156462585034	69.00891156462585	70	127
69.00891156462585	69.17147392290249	82	127
69.00891156462585	69.17147392290249	73	127
69.00891156462585	69.17147392290249	61	127
69.00891156462585	69.17147392290249	54	127
69.18308390022676	69.40367346938775	71	127
69.18308390022676	69.40367346938775	62	127
69.18308390022676	70.06544217687075	59	127
69.18308390022676	69.84485260770975	83	127
69.41528344671202	69.51975056689342	62	127
69.41528344671202	69.51975056689342	71	127
69.51975056689342	69.62424036281179	64	127
69.51975056689342	69.62424036281179	73	127
69.63587301587302	70.06544217687075	74	127
69.63587301587302	70.06544217687075	66	127
69.84485260770975	69.94934240362812	85	127
69.96095238095238	70.06544217687075	83	127
70.06544217687075	70.92458049886622	59	127
70.06544217687075	70.26278911564626	76	127
70.06544217687075	70.26278911564626	67	127
70.06544217687075	70.70399092970521	82	127
70.26278911564626	70.36730158730158	73	127
70.26278911564626	70.36730158730158	64	127
70.37891156462585	70.48340136054422	74	127
70.37891156462585	70.48340136054422	66	127
70.48340136054422	70.70399092970521	76	127
70.48340136054422	70.70399092970521	67	127
70.70399092970521	70.82009070294785	83	127
70.70399092970521	70.82009070294785	74	127
70.70399092970521	70.82009070294785	66	127
70.82009070294785	70.92458049886622	73	127
70.82009070294785	70.92458049886622	82	127
70.82009070294785	70.92458049886622	64	127
70.93619047619048	71.06390022675737	71	127
70.93619047619048	71.06390022675737	62	127
70.93619047619048	71.47024943310657	83	127
70.93619047619048	71.67922902494331	59	127
71.07551020408164	71.15675736961451	62	127
71.07551020408164	71.15675736961451	71	127
71.15675736961451	71.26126984126984	73	127
71.15675736961451	71.26126984126984	64	127
71.26126984126984	71.35414965986395	66	127
71.26126984126984	71.35414965986395	74	127
71.35414965986395	71.47024943310657	62	127
71.35414965986395	71.47024943310657	71	127
71.47024943310657	71.56312925170069	85	127
71.47024943310657	71.56312925170069	64	127
71.47024943310657	71.56312925170069	73	127
71.57473922902494	71.67922902494331	74	127
71.57473922902494	71.67922902494331	83	127
71.57473922902494	71.67922902494331	66	127
71.67922902494331	72.52675736961451	59	127
71.67922902494331	72.30614512471655	76	127
71.67922902494331	72.30614512471655	67	127
71.67922902494331	71.77210884353741	82	127
71.78371882086168	71.88820861678005	83	127
71.88820861678005	71.98108843537415	85	127
71.98108843537415	72.08557823129252	83	127
72.08557823129252	72.20167800453515	82	127
72.20167800453515	72.30614512471655	85	127
72.31777777777778	72.42226757369615	74	127
72.31777777777778	72.42226757369615	66	127
72.31777777777778	72.42226757369615	83	127
72.42226757369615	72.52675736961451	82	127
72.42226757369615	72.52675736961451	64	127
72.42226757369615	72.52675736961451	73	127
72.53834467120181	72.75895691609978	59	127
72.53834467120181	72.75895691609978	83	127
72.53834467120181	72.75895691609978	71	127
72.53834467120181	72.75895691609978	62	127
72.75895691609978	72.85183673469388	71	127
72.85183673469388	72.96793650793651	73	127
72.96793650793651	73.07240362811791	74	127
73.1885260770975	73.29301587301588	71	127
73.30460317460317	73.4091156462585	73	127
73.4091156462585	73.51360544217687	74	127
73.61809523809524	73.66453514739229	71	127
73.66453514739229	73.7225850340136	73	127
73.73419501133787	73.83866213151927	74	127
73.89673469387755	74.00122448979592	59	127
74.00122448979592	74.11732426303855	61	127
74.12893424036281	74.22181405895692	62	127
74.33791383219955	74.44240362811792	59	127
74.45399092970521	74.55850340136054	61	127
74.55850340136054	74.66299319727891	62	127
74.77909297052155	74.87197278911565	47	127
74.88358276643991	74.98807256235828	49	127
74.98807256235828	75.09253968253968	50	127
75.20866213151928	75.30154195011337	59	127
75.30154195011337	75.39442176870749	61	127
75.40603174603174	75.51052154195011	62	127
75.62662131519275	75.70789115646258	59	127
75.70789115646258	75.81238095238095	61	127
75.81238095238095	75.91687074829932	62	127
76.03297052154196	76.13746031746032	71	127
76.13746031746032	76.19551020408163	73	127
76.19551020408163	76.28839002267574	74	127
76.40448979591837	76.47412698412698	71	127
76.47412698412698	76.54380952380953	72	127
76.55541950113378	76.65990929705215	74	127
76.76439909297052	76.86888888888889	59	127
76.86888888888889	76.96176870748299	60	127
76.97337868480726	77.04303854875283	62	127
77.15913832199547	77.26360544217687	59	127
77.2752380952381	77.36809523809524	60	127
77.36809523809524	77.4609977324263	62	127
77.57709750566893	77.66997732426304	47	127
77.6815873015873	77.76285714285714	48	127
77.76285714285714	77.87893424036281	50	127
77.9950566893424	78.0879365079365	59	127
78.0879365079365	78.19242630385487	60	127
78.20403628117914	78.30852607709751	62	127
78.42462585034014	78.5291156462585	59	127
78.5291156462585	78.64519274376417	60	127
78.64519274376417	78.7497052154195	62	127
78.86580498866213	78.87741496598639	71	127
78.87741496598639	78.94707482993198	72	127
78.94707482993198	79.05156462585035	74	127
79.15603174603174	79.24893424036281	74	127
79.24893424036281	79.35342403628118	76	127
79.36503401360544	79.45791383219955	77	127
79.57401360544218	79.67850340136054	62	127
79.67850340136054	79.77136054421769	64	127
79.78299319727891	79.87587301587301	65	127
79.99197278911565	80.08485260770975	62	127
80.08485260770975	80.1312925170068	64	127
80.1312925170068	80.22417233560091	65	127
80.34027210884354	80.43312925170068	50	127
80.43312925170068	80.51442176870748	52	127
80.51442176870748	80.61891156462585	53	127
80.72340136054422	80.82789115646258	50	127
80.82789115646258	80.90916099773243	52	127
80.90916099773243	81.0136507936508	53	127
81.12975056689342	81.23424036281179	38	127
81.23424036281179	81.35034013605443	40	127
81.35034013605443	81.44321995464853	41	127
81.5477097505669	81.640589569161	50	127
81.65219954648526	81.72185941043084	52	127
81.72185941043084	81.8263492063492	53	127
81.94242630385487	82.05854875283447	38	127
82.05854875283447	82.15142857142857	40	127
82.16303854875284	82.25591836734694	41	127
82.37201814058957	82.44167800453515	62	127
82.37201814058957	82.44167800453515	50	127
82.44167800453515	82.54616780045352	64	127
82.44167800453515	82.54616780045352	52	127
82.54616780045352	82.68548752834467	65	127
82.54616780045352	82.68548752834467	53	127
82.68548752834467	82.78997732426303	38	127
82.8015873015873	82.90607709750567	40	127
82.90607709750567	83.04539682539682	41	127
83.04539682539682	83.14988662131519	74	127
83.04539682539682	83.14988662131519	50	127
83.16149659863946	83.26598639455783	76	127
83.16149659863946	83.26598639455783	52	127
83.26598639455783	83.4633560090703	77	127
83.26598639455783	83.4633560090703	53	127
83.68394557823129	83.9045351473923	53	127
83.68394557823129	83.9045351473923	41	127
83.91614512471655	84.02063492063492	62	127
83.91614512471655	84.02063492063492	50	127
83.91614512471655	84.02063492063492	38	127
84.02063492063492	84.13673469387756	64	127
84.02063492063492	84.13673469387756	52	127
84.02063492063492	84.13673469387756	40	127
84.13673469387756	84.34569160997732	65	127
84.13673469387756	84.34569160997732	53	127
84.13673469387756	84.34569160997732	41	127
84.34569160997732	84.45020408163265	74	127
84.34569160997732	84.45020408163265	62	127
84.34569160997732	84.45020408163265	50	127
84.34569160997732	84.45020408163265	38	127
84.46181405895692	84.56630385487529	76	127
84.46181405895692	84.56630385487529	64	127
84.46181405895692	84.56630385487529	52	127
84.46181405895692	84.56630385487529	40	127
84.56630385487529	84.78689342403628	77	127
84.56630385487529	84.78689342403628	65	127
84.56630385487529	84.78689342403628	53	127
84.56630385487529	84.78689342403628	41	127
84.78689342403628	84.90299319727892	86	127
84.78689342403628	84.90299319727892	74	127
84.78689342403628	84.90299319727892	50	127
84.78689342403628	84.90299319727892	38	127
84.90299319727892	84.96104308390022	88	127
84.90299319727892	84.96104308390022	76	127
84.90299319727892	84.96104308390022	52	127
84.90299319727892	84.96104308390022	40	127
84.96104308390022	85.12358276643991	89	127
84.96104308390022	85.12358276643991	77	127
84.96104308390022	85.12358276643991	53	127
84.96104308390022	85.12358276643991	41	127
85.12358276643991	85.19324263038548	86	127
85.12358276643991	85.19324263038548	74	127
85.12358276643991	85.19324263038548	50	127
85.12358276643991	85.19324263038548	38	127
85.19324263038548	85.29773242630385	88	127
85.19324263038548	85.29773242630385	76	127
85.19324263038548	85.29773242630385	52	127
85.19324263038548	85.29773242630385	40	127
85.30934240362812	85.50671201814059	89	127
85.30934240362812	85.50671201814059	77	127
85.30934240362812	85.50671201814059	53	127
85.30934240362812	85.50671201814059	41	127
85.50671201814059	85.59959183673469	50	127
85.50671201814059	85.59959183673469	38	127
85.59959183673469	85.70408163265306	52	127
85.59959183673469	85.70408163265306	40	127
85.70408163265306	85.92467120181406	53	127
85.70408163265306	85.92467120181406	41	127
85.92467120181406	86.02916099773243	50	127
85.92467120181406	86.02916099773243	38	127
86.04077097505669	86.14526077097506	52	127
86.04077097505669	86.14526077097506	40	127
86.14526077097506	86.27297052154195	53	127
86.14526077097506	86.27297052154195	41	127
86.27297052154195	86.40068027210884	50	127
86.27297052154195	86.40068027210884	38	127
86.40068027210884	86.50517006802721	52	127
86.40068027210884	86.50517006802721	40	127
86.50517006802721	86.57482993197279	53	127
86.50517006802721	86.57482993197279	41	127
86.57482993197279	86.67931972789115	55	127
86.57482993197279	86.67931972789115	43	127
86.67931972789115	86.7954195011338	55	127
86.67931972789115	86.7954195011338	53	127
86.67931972789115	86.7954195011338	41	127
86.80702947845805	86.92312925170069	57	127
86.80702947845805	86.92312925170069	52	127
86.80702947845805	86.92312925170069	40	127
86.92312925170069	87.06244897959184	59	127
86.92312925170069	87.06244897959184	50	127
86.92312925170069	87.06244897959184	38	127
87.06244897959184	87.1669387755102	36	127
87.06244897959184	87.1669387755102	60	127
87.06244897959184	87.1669387755102	48	127
87.06244897959184	87.66614512471655	60	127
87.34108843537415	87.44557823129252	48	127
87.34108843537415	87.44557823129252	52	127
87.34108843537415	87.44557823129252	55	127
87.44557823129252	87.56167800453515	52	127
87.44557823129252	87.56167800453515	55	127
87.44557823129252	87.56167800453515	48	127
87.66614512471655	87.7358276643991	84	127
87.7358276643991	87.79387755102042	52	127
87.7358276643991	87.79387755102042	86	127
87.7358276643991	87.79387755102042	55	127
87.7358276643991	87.79387755102042	48	127
87.80548752834467	87.90997732426304	88	127
87.80548752834467	87.90997732426304	55	127
87.80548752834467	87.90997732426304	52	127
87.80548752834467	87.90997732426304	48	127
88.11895691609978	88.21183673469388	86	127
88.11895691609978	88.21183673469388	55	127
88.11895691609978	88.21183673469388	52	127
88.11895691609978	88.21183673469388	48	127
88.21183673469388	88.31632653061224	84	127
88.21183673469388	88.31632653061224	57	127
88.21183673469388	88.31632653061224	53	127
88.21183673469388	88.31632653061224	48	127
88.5485260770975	88.65301587301587	59	127
88.5485260770975	88.65301587301587	53	127
88.5485260770975	88.65301587301587	48	127
88.5485260770975	88.65301587301587	81	127
88.65301587301587	88.74589569160997	60	127
88.65301587301587	88.74589569160997	52	127
88.65301587301587	89.22190476190477	79	127
88.65301587301587	88.74589569160997	48	127
88.89682539682539	89.00131519274376	55	127
88.89682539682539	89.00131519274376	52	127
88.89682539682539	89.00131519274376	48	127
89.01292517006803	89.1174149659864	52	127
89.01292517006803	89.1174149659864	48	127
89.01292517006803	89.1174149659864	55	127
89.23351473922902	89.29156462585034	84	127
89.29156462585034	89.38444444444444	52	127
89.29156462585034	89.38444444444444	86	127
89.29156462585034	89.38444444444444	55	127
89.29156462585034	89.38444444444444	48	127
89.39605442176871	89.48893424036281	55	127
89.39605442176871	89.48893424036281	52	127
89.39605442176871	89.48893424036281	48	127
89.39605442176871	89.48893424036281	88	127
89.48893424036281	89.55857142857143	86	127
89.59342403628118	89.6514739229025	84	127
89.68628117913832	89.70952380952382	83	127
89.68628117913832	89.7443537414966	55	127
89.68628117913832	89.7443537414966	52	127
89.68628117913832	89.7443537414966	48	127
89.7443537414966	89.84884353741496	86	127
89.7443537414966	89.84884353741496	57	127
89.7443537414966	89.84884353741496	53	127
89.7443537414966	89.84884353741496	48	127
89.84884353741496	89.89528344671201	84	127
89.93011337868481	89.98816326530613	83	127
90.02299319727891	90.12748299319728	48	127
90.02299319727891	90.10426303854875	81	127
90.02299319727891	90.12748299319728	59	127
90.02299319727891	90.12748299319728	53	127
90.12748299319728	90.24358276643991	60	127
90.12748299319728	90.24358276643991	52	127
90.12748299319728	90.24358276643991	48	127
90.12748299319728	90.7195918367347	79	127
90.40612244897959	90.4990022675737	52	127
90.40612244897959	90.4990022675737	48	127
90.40612244897959	90.4990022675737	55	127
90.51061224489796	90.61510204081632	52	127
90.51061224489796	90.61510204081632	48	127
90.51061224489796	90.61510204081632	55	127
90.81244897959184	90.89374149659864	77	127
90.81244897959184	90.91696145124716	55	127
90.81244897959184	90.91696145124716	52	127
90.81244897959184	90.91696145124716	48	127
90.91696145124716	90.998231292517	76	127
90.91696145124716	90.998231292517	55	127
90.91696145124716	90.998231292517	52	127
90.91696145124716	90.998231292517	48	127
91.23043083900227	91.31170068027211	55	127
91.23043083900227	91.31170068027211	74	127
91.23043083900227	91.31170068027211	52	127
91.23043083900227	91.31170068027211	48	127
91.31170068027211	91.40458049886621	72	127
91.31170068027211	91.40458049886621	55	127
91.31170068027211	91.40458049886621	52	127
91.31170068027211	91.40458049886621	48	127
91.55551020408163	91.66	71	127
91.55551020408163	91.66	55	127
91.55551020408163	91.66	52	127
91.55551020408163	91.66	48	127
91.66	91.77609977324263	71	127
91.66	91.77609977324263	55	127
91.66	91.77609977324263	52	127
91.66	91.77609977324263	48	127
91.77609977324263	91.86897959183673	69	127
91.880589569161	91.96183673469388	67	127
91.96183673469388	92.05473922902495	69	127
91.96183673469388	92.05473922902495	55	127
91.96183673469388	92.05473922902495	52	127
91.96183673469388	92.05473922902495	48	127
92.05473922902495	92.15922902494331	52	127
92.05473922902495	92.15922902494331	55	127
92.05473922902495	92.15922902494331	47	127
92.05473922902495	92.58879818594104	71	127
92.36820861678005	92.44947845804988	52	127
92.36820861678005	92.44947845804988	47	127
92.36820861678005	92.44947845804988	55	127
92.44947845804988	92.51913832199547	54	127
92.44947845804988	92.51913832199547	47	127
92.44947845804988	92.51913832199547	57	127
92.58879818594104	92.69328798185941	73	127
92.70489795918367	92.79777777777778	75	127
92.70489795918367	92.79777777777778	57	127
92.70489795918367	92.79777777777778	54	127
92.70489795918367	92.79777777777778	47	127
92.79777777777778	92.9138775510204	57	127
92.79777777777778	92.9138775510204	54	127
92.79777777777778	92.9138775510204	47	127
92.79777777777778	93.01836734693877	76	127
93.01836734693877	93.13446712018141	78	127
93.13446712018141	93.22734693877551	57	127
93.13446712018141	93.22734693877551	75	127
93.13446712018141	93.22734693877551	54	127
93.13446712018141	93.22734693877551	47	127
93.23893424036281	93.33183673469388	76	127
93.23893424036281	93.33183673469388	55	127
93.23893424036281	93.33183673469388	52	127
93.23893424036281	93.33183673469388	52	127
93.43632653061225	93.54081632653062	76	127
93.54081632653062	93.63369614512472	77	127
93.54081632653062	93.63369614512472	67	127
93.54081632653062	93.63369614512472	55	127
93.54081632653062	93.63369614512472	52	127
93.63369614512472	93.74977324263038	79	127
93.63369614512472	93.74977324263038	65	127
93.63369614512472	93.74977324263038	55	127
93.63369614512472	93.74977324263038	50	127
93.87748299319728	93.91233560090703	81	127
93.91233560090703	94.02843537414967	83	127
93.91233560090703	94.02843537414967	65	127
93.91233560090703	94.02843537414967	55	127
93.91233560090703	94.02843537414967	50	127
94.02843537414967	94.14453514739229	64	127
94.02843537414967	94.14453514739229	55	127
94.02843537414967	94.14453514739229	48	127
94.02843537414967	94.62052154195011	84	127
94.36510204081632	94.46961451247165	64	127
94.36510204081632	94.46961451247165	60	127
94.36510204081632	94.46961451247165	67	127
94.48122448979592	94.58571428571429	64	127
94.48122448979592	94.58571428571429	60	127
94.48122448979592	94.58571428571429	67	127
94.62052154195011	94.63215419501134	84	127
94.63215419501134	94.73664399092971	86	127
94.63215419501134	94.73664399092971	67	127
94.63215419501134	94.73664399092971	64	127
94.63215419501134	94.73664399092971	60	127
94.73664399092971	94.84113378684808	88	127
94.73664399092971	94.84113378684808	67	127
94.73664399092971	94.84113378684808	64	127
94.73664399092971	94.84113378684808	60	127
95.07333333333334	95.1778231292517	64	127
95.07333333333334	95.1778231292517	86	127
95.07333333333334	95.1778231292517	67	127
95.07333333333334	95.1778231292517	60	127
95.1778231292517	95.28231292517007	65	127
95.1778231292517	95.28231292517007	84	127
95.1778231292517	95.28231292517007	60	127
95.1778231292517	95.28231292517007	69	127
95.50290249433107	95.59578231292517	81	127
95.50290249433107	95.59578231292517	71	127
95.50290249433107	95.59578231292517	65	127
95.50290249433107	95.59578231292517	60	127
95.60739229024944	95.7118820861678	64	127
95.60739229024944	95.7118820861678	72	127
95.60739229024944	95.7118820861678	60	127
95.60739229024944	96.26916099773243	79	127
95.9324716553288	96.03696145124717	64	127
95.9324716553288	96.03696145124717	60	127
95.9324716553288	96.03696145124717	67	127
96.04857142857144	96.15306122448979	64	127
96.04857142857144	96.15306122448979	67	127
96.04857142857144	96.15306122448979	60	127
96.26916099773243	96.31560090702948	84	127
96.32721088435375	96.43170068027212	86	127
96.32721088435375	96.43170068027212	67	127
96.32721088435375	96.43170068027212	64	127
96.32721088435375	96.43170068027212	60	127
96.43170068027212	96.53619047619047	88	127
96.43170068027212	96.53619047619047	67	127
96.43170068027212	96.53619047619047	64	127
96.43170068027212	96.53619047619047	60	127
96.54780045351474	96.58263038548753	86	127
96.58263038548753	96.65229024943311	84	127
96.66390022675736	96.73356009070295	83	127
96.66390022675736	96.75678004535148	67	127
96.66390022675736	96.75678004535148	64	127
96.66390022675736	96.75678004535148	60	127
96.75678004535148	96.86126984126984	86	127
96.75678004535148	96.86126984126984	69	127
96.75678004535148	96.86126984126984	65	127
96.75678004535148	96.86126984126984	60	127
96.86126984126984	96.94253968253969	84	127
96.96575963718821	97.04702947845804	83	127
97.08185941043084	97.15151927437641	81	127
97.08185941043084	97.17473922902494	71	127
97.08185941043084	97.17473922902494	65	127
97.08185941043084	97.17473922902494	60	127
97.1863492063492	97.29083900226757	72	127
97.1863492063492	97.29083900226757	64	127
97.1863492063492	97.29083900226757	60	127
97.1863492063492	97.69718820861678	79	127
97.48820861678004	97.60430839002268	64	127
97.48820861678004	97.60430839002268	60	127
97.48820861678004	97.60430839002268	67	127
97.60430839002268	97.69718820861678	64	127
97.60430839002268	97.69718820861678	60	127
97.60430839002268	97.69718820861678	67	127
97.70879818594105	97.77845804988662	77	127
97.70879818594105	97.8132879818594	67	127
97.70879818594105	97.8132879818594	64	127
97.70879818594105	97.8132879818594	60	127
97.8132879818594	97.90616780045352	76	127
97.8132879818594	97.90616780045352	67	127
97.8132879818594	97.90616780045352	64	127
97.8132879818594	97.90616780045352	60	127
98.12675736961451	98.23124716553288	74	127
98.12675736961451	98.23124716553288	67	127
98.12675736961451	98.23124716553288	64	127
98.12675736961451	98.23124716553288	60	127
98.23124716553288	98.33573696145125	72	127
98.23124716553288	98.33573696145125	67	127
98.23124716553288	98.33573696145125	64	127
98.23124716553288	98.33573696145125	60	127
98.42861678004535	98.53310657596371	71	127
98.42861678004535	98.53310657596371	67	127
98.42861678004535	98.53310657596371	64	127
98.42861678004535	98.53310657596371	60	127
98.54471655328798	98.63759637188208	71	127
98.54471655328798	98.63759637188208	67	127
98.54471655328798	98.63759637188208	64	127
98.54471655328798	98.63759637188208	60	127
98.63759637188208	98.74208616780045	69	127
98.74208616780045	98.84657596371882	67	127
98.84657596371882	98.95106575963719	60	127
98.84657596371882	98.95106575963719	69	127
98.84657596371882	98.95106575963719	67	127
98.84657596371882	98.95106575963719	64	127
98.95106575963719	99.04394557823129	64	127
98.95106575963719	99.04394557823129	59	127
98.95106575963719	99.04394557823129	67	127
98.95106575963719	99.56639455782313	71	127
99.25292517006802	99.3574149659864	64	127
99.25292517006802	99.3574149659864	59	127
99.25292517006802	99.3574149659864	67	127
99.3574149659864	99.46190476190476	66	127
99.3574149659864	99.46190476190476	59	127
99.3574149659864	99.46190476190476	69	127
99.56639455782313	99.64766439909297	73	127
99.64766439909297	99.75215419501134	75	127
99.64766439909297	99.75215419501134	69	127
99.64766439909297	99.75215419501134	66	127
99.64766439909297	99.75215419501134	59	127
99.7637641723356	99.86825396825397	69	127
99.7637641723356	99.86825396825397	66	127
99.7637641723356	99.86825396825397	59	127
99.7637641723356	99.97274376417234	76	127
99.9843537414966	100.08884353741496	78	127
100.08884353741496	100.19333333333333	75	127
100.08884353741496	100.19333333333333	69	127
100.08884353741496	100.19333333333333	66	127
100.08884353741496	100.19333333333333	59	127
100.2049433106576	100.28621315192744	67	127
100.2049433106576	100.28621315192744	59	127
100.2049433106576	100.28621315192744	64	127
100.2049433106576	100.41392290249433	76	127
100.42553287981859	100.53002267573696	64	127
100.42553287981859	100.53002267573696	59	127
100.42553287981859	100.53002267573696	52	127
100.54163265306123	100.6461224489796	64	127
100.54163265306123	100.6461224489796	59	127
100.54163265306123	100.6461224489796	52	127
100.54163265306123	100.85510204081632	79	127
100.85510204081632	100.97120181405896	64	127
100.85510204081632	100.97120181405896	59	127
100.85510204081632	100.97120181405896	52	127
100.97120181405896	101.09891156462585	54	127
100.97120181405896	101.09891156462585	61	127
100.97120181405896	101.09891156462585	58	127
100.97120181405896	101.60975056689342	78	127
101.30789115646259	101.40077097505669	58	127
101.30789115646259	101.40077097505669	54	127
101.30789115646259	101.40077097505669	61	127
101.40077097505669	101.51687074829933	58	127
101.40077097505669	101.51687074829933	54	127
101.40077097505669	101.51687074829933	61	127
101.60975056689342	101.7142403628118	85	127
101.6213605442177	101.7142403628118	61	127
101.6213605442177	101.7142403628118	58	127
101.6213605442177	101.7142403628118	54	127
101.72585034013605	101.81873015873016	85	127
101.72585034013605	101.81873015873016	61	127
101.72585034013605	101.81873015873016	58	127
101.72585034013605	101.81873015873016	54	127
101.81873015873016	101.91160997732426	82	127
101.91160997732426	102.06253968253968	78	127
102.00448979591837	102.10897959183673	61	127
102.00448979591837	102.10897959183673	58	127
102.00448979591837	102.10897959183673	54	127
102.10897959183673	102.2134693877551	61	127
102.10897959183673	102.2134693877551	58	127
102.10897959183673	102.2134693877551	54	127
102.10897959183673	102.27151927437642	78	127
102.32956916099774	102.46888888888888	78	127
102.42244897959183	102.51532879818595	61	127
102.42244897959183	102.51532879818595	58	127
102.42244897959183	102.51532879818595	54	127
102.51532879818595	102.85201814058956	78	127
102.51532879818595	102.85201814058956	61	127
102.51532879818595	102.85201814058956	58	127
102.51532879818595	102.85201814058956	54	127
102.95650793650793	103.28158730158731	84	127
102.95650793650793	103.28158730158731	66	127
102.95650793650793	103.28158730158731	57	127
102.95650793650793	103.28158730158731	50	127
103.37446712018141	103.7227664399093	83	127
103.37446712018141	103.7227664399093	65	127
103.37446712018141	103.7227664399093	62	127
103.37446712018141	103.7227664399093	55	127
103.83886621315193	104.16394557823129	77	127
103.83886621315193	104.16394557823129	83	127
103.83886621315193	104.16394557823129	55	127
103.83886621315193	104.16394557823129	62	127
103.83886621315193	104.16394557823129	43	127
104.19877551020409	104.31487528344671	48	127
104.19877551020409	104.31487528344671	55	127
104.19877551020409	104.31487528344671	76	127
104.19877551020409	104.83732426303855	84	127
104.51224489795918	104.61673469387755	48	127
104.51224489795918	104.61673469387755	36	127
104.51224489795918	104.61673469387755	64	127
104.51224489795918	104.61673469387755	52	127
104.51224489795918	104.61673469387755	55	127
104.62834467120182	104.73283446712018	52	127
104.62834467120182	104.73283446712018	55	127
104.62834467120182	104.73283446712018	48	127
104.62834467120182	104.73283446712018	36	127
104.62834467120182	104.73283446712018	64	127
104.84893424036281	104.8837641723356	84	127
104.8837641723356	104.99986394557823	48	127
104.8837641723356	104.99986394557823	86	127
104.8837641723356	104.99986394557823	64	127
104.8837641723356	104.99986394557823	52	127
104.8837641723356	104.99986394557823	55	127
104.8837641723356	104.99986394557823	36	127
104.99986394557823	105.1043537414966	88	127
104.99986394557823	105.1043537414966	64	127
104.99986394557823	105.1043537414966	52	127
104.99986394557823	105.1043537414966	55	127
104.99986394557823	105.1043537414966	48	127
104.99986394557823	105.1043537414966	36	127
105.25528344671201	105.34816326530613	86	127
105.25528344671201	105.34816326530613	64	127
105.25528344671201	105.34816326530613	52	127
105.25528344671201	105.34816326530613	55	127
105.25528344671201	105.34816326530613	48	127
105.25528344671201	105.34816326530613	36	127
105.34816326530613	105.44104308390023	84	127
105.34816326530613	105.44104308390023	65	127
105.34816326530613	105.44104308390023	53	127
105.34816326530613	105.44104308390023	57	127
105.34816326530613	105.44104308390023	48	127
105.34816326530613	105.44104308390023	36	127
105.67324263038549	105.77773242630386	65	127
105.67324263038549	105.77773242630386	81	127
105.67324263038549	105.77773242630386	53	127
105.67324263038549	105.77773242630386	48	127
105.67324263038549	105.77773242630386	36	127
105.77773242630386	105.89383219954648	64	127
105.77773242630386	105.89383219954648	36	127
105.77773242630386	105.89383219954648	48	127
105.77773242630386	105.89383219954648	52	127
105.77773242630386	106.46272108843537	79	127
106.11442176870749	106.21891156462586	36	127
106.11442176870749	106.21891156462586	64	127
106.11442176870749	106.21891156462586	52	127
106.11442176870749	106.21891156462586	55	127
106.11442176870749	106.21891156462586	48	127
106.23052154195011	106.33501133786848	52	127
106.23052154195011	106.33501133786848	55	127
106.23052154195011	106.33501133786848	48	127
106.23052154195011	106.33501133786848	36	127
106.23052154195011	106.33501133786848	64	127
106.46272108843537	106.55560090702947	84	127
106.55560090702947	106.67170068027211	52	127
106.55560090702947	106.67170068027211	86	127
106.55560090702947	106.67170068027211	64	127
106.55560090702947	106.67170068027211	55	127
106.55560090702947	106.67170068027211	48	127
106.55560090702947	106.67170068027211	36	127
106.67170068027211	106.76458049886621	88	127
106.67170068027211	106.76458049886621	64	127
106.67170068027211	106.76458049886621	52	127
106.67170068027211	106.76458049886621	55	127
106.67170068027211	106.76458049886621	48	127
106.67170068027211	106.76458049886621	36	127
106.77619047619048	106.8342403628118	86	127
106.86907029478458	106.91551020408163	84	127
106.95034013605442	107.03160997732427	83	127
106.95034013605442	107.05482993197279	64	127
106.95034013605442	107.05482993197279	52	127
106.95034013605442	107.05482993197279	55	127
106.95034013605442	107.05482993197279	48	127
106.95034013605442	107.05482993197279	36	127
107.05482993197279	107.17092970521541	86	127
107.05482993197279	107.17092970521541	65	127
107.05482993197279	107.17092970521541	53	127
107.05482993197279	107.17092970521541	57	127
107.05482993197279	107.17092970521541	48	127
107.05482993197279	107.17092970521541	36	127
107.17092970521541	107.25219954648526	84	127
107.27541950113378	107.3334693877551	83	127
107.3682993197279	107.47278911564626	53	127
107.3682993197279	107.47278911564626	48	127
107.3682993197279	107.47278911564626	36	127
107.3682993197279	107.44956916099773	81	127
107.3682993197279	107.47278911564626	65	127
107.48439909297052	107.57727891156462	64	127
107.48439909297052	107.57727891156462	52	127
107.48439909297052	107.57727891156462	48	127
107.48439909297052	107.57727891156462	36	127
107.48439909297052	108.09972789115646	79	127
107.78625850340136	107.902358276644	55	127
107.78625850340136	107.902358276644	52	127
107.78625850340136	107.902358276644	48	127
107.78625850340136	107.902358276644	36	127
107.78625850340136	107.902358276644	67	127
107.902358276644	108.00684807256236	55	127
107.902358276644	108.00684807256236	67	127
107.902358276644	108.00684807256236	52	127
107.902358276644	108.00684807256236	48	127
107.902358276644	108.00684807256236	36	127
108.12294784580499	108.1809977324263	77	127
108.12294784580499	108.21582766439909	67	127
108.12294784580499	108.21582766439909	52	127
108.12294784580499	108.21582766439909	55	127
108.12294784580499	108.21582766439909	48	127
108.12294784580499	108.21582766439909	36	127
108.21582766439909	108.3087074829932	76	127
108.21582766439909	108.3087074829932	67	127
108.21582766439909	108.3087074829932	52	127
108.21582766439909	108.3087074829932	55	127
108.21582766439909	108.3087074829932	48	127
108.21582766439909	108.3087074829932	36	127
108.44802721088435	108.54090702947846	52	127
108.44802721088435	108.54090702947846	74	127
108.44802721088435	108.54090702947846	67	127
108.44802721088435	108.54090702947846	55	127
108.44802721088435	108.54090702947846	48	127
108.44802721088435	108.54090702947846	36	127
108.54090702947846	108.59895691609978	67	127
108.54090702947846	108.59895691609978	55	127
108.54090702947846	108.59895691609978	52	127
108.54090702947846	108.59895691609978	48	127
108.54090702947846	108.59895691609978	36	127
108.54090702947846	108.59895691609978	72	127
108.77310657596372	108.85437641723357	71	127
108.77310657596372	108.85437641723357	67	127
108.77310657596372	108.85437641723357	55	127
108.77310657596372	108.85437641723357	52	127
108.77310657596372	108.85437641723357	48	127
108.77310657596372	108.85437641723357	36	127
108.86598639455782	108.97047619047619	36	127
108.86598639455782	108.97047619047619	71	127
108.86598639455782	108.97047619047619	67	127
108.86598639455782	108.97047619047619	55	127
108.86598639455782	108.97047619047619	52	127
108.86598639455782	108.97047619047619	48	127
108.97047619047619	109.07496598639456	69	127
109.08657596371881	109.17945578231293	67	127
109.17945578231293	109.30716553287982	67	127
109.17945578231293	109.30716553287982	55	127
109.17945578231293	109.30716553287982	69	127
109.17945578231293	109.30716553287982	52	127
109.17945578231293	109.30716553287982	48	127
109.17945578231293	109.30716553287982	36	127
109.30716553287982	109.92249433106576	71	127
109.30716553287982	109.41165532879819	67	127
109.30716553287982	109.41165532879819	55	127
109.30716553287982	109.41165532879819	52	127
109.30716553287982	109.41165532879819	47	127
109.60902494331066	109.71351473922903	55	127
109.60902494331066	109.71351473922903	52	127
109.60902494331066	109.71351473922903	47	127
109.60902494331066	109.71351473922903	67	127
109.71351473922903	109.80639455782313	69	127
109.71351473922903	109.80639455782313	54	127
109.71351473922903	109.80639455782313	57	127
109.71351473922903	109.80639455782313	47	127
109.92249433106576	110.02698412698413	73	127
110.02698412698413	110.11986394557823	69	127
110.02698412698413	110.11986394557823	54	127
110.02698412698413	110.11986394557823	57	127
110.02698412698413	110.11986394557823	47	127
110.02698412698413	110.11986394557823	75	127
110.1314739229025	110.24757369614512	54	127
110.1314739229025	110.24757369614512	69	127
110.1314739229025	110.24757369614512	57	127
110.1314739229025	110.24757369614512	47	127
110.1314739229025	110.3520634920635	76	127
110.36367346938775	110.38689342403629	78	127
110.38689342403629	110.45655328798186	75	127
110.38689342403629	110.45655328798186	69	127
110.38689342403629	110.45655328798186	54	127
110.38689342403629	110.45655328798186	57	127
110.38689342403629	110.45655328798186	47	127
110.45655328798186	110.52621315192744	67	127
110.45655328798186	110.52621315192744	59	127
110.45655328798186	110.52621315192744	64	127
110.45655328798186	110.7235827664399	76	127
110.7235827664399	110.82807256235827	59	127
110.7235827664399	110.82807256235827	64	127
110.7235827664399	110.82807256235827	52	127
110.82807256235827	110.90934240362812	59	127
110.82807256235827	110.90934240362812	52	127
110.82807256235827	111.08349206349206	79	127
110.82807256235827	110.90934240362812	64	127
111.09510204081633	111.18798185941043	67	127
111.09510204081633	111.18798185941043	59	127
111.09510204081633	111.18798185941043	52	127
111.18798185941043	111.8265306122449	66	127
111.18798185941043	111.30408163265307	85	127
111.18798185941043	111.30408163265307	58	127
111.18798185941043	111.30408163265307	42	127
111.30408163265307	111.40857142857143	82	127
111.42018140589569	111.55950113378685	78	127
111.51306122448979	111.6059410430839	58	127
111.51306122448979	111.6059410430839	54	127
111.61755102040816	111.72204081632653	58	127
111.61755102040816	111.72204081632653	78	127
111.61755102040816	111.72204081632653	54	127
111.83814058956916	111.93102040816326	78	127
111.83814058956916	112.0471201814059	73	127
111.93102040816326	112.0471201814059	58	127
111.93102040816326	112.0471201814059	54	127
112.0471201814059	112.14	73	127
112.0471201814059	112.60439909297052	78	127
112.0471201814059	112.14	58	127
112.0471201814059	112.14	54	127
112.15160997732427	112.25609977324262	70	127
112.25609977324262	112.32575963718821	66	127
112.33736961451247	112.44185941043084	54	127
112.33736961451247	112.44185941043084	58	127
112.44185941043084	112.5463492063492	58	127
112.44185941043084	112.5463492063492	54	127
112.44185941043084	112.5463492063492	66	127
112.60439909297052	112.69727891156462	85	127
112.60439909297052	112.69727891156462	54	127
112.60439909297052	112.69727891156462	58	127
112.7088888888889	112.81337868480726	85	127
112.7088888888889	113.05718820861678	66	127
112.7088888888889	113.05718820861678	58	127
112.7088888888889	113.05718820861678	54	127
112.81337868480726	112.91786848072563	82	127
112.92947845804989	113.05718820861678	78	127
113.15006802721088	113.47514739229025	72	127
113.15006802721088	113.25455782312925	84	127
113.15006802721088	113.47514739229025	57	127
113.15006802721088	113.47514739229025	50	127
113.25455782312925	113.37065759637188	81	127
113.37065759637188	113.47514739229025	78	127
113.59124716553288	113.70734693877552	86	127
113.59124716553288	113.92793650793651	71	127
113.59124716553288	113.92793650793651	55	127
113.59124716553288	113.92793650793651	55	127
113.70734693877552	113.81183673469388	83	127
113.81183673469388	113.92793650793651	77	127
114.04403628117913	114.1485260770975	86	127
114.04403628117913	114.3691156462585	77	127
114.04403628117913	114.3691156462585	55	127
114.04403628117913	114.3691156462585	62	127
114.04403628117913	114.3691156462585	43	127
114.1485260770975	114.26462585034014	83	127
114.26462585034014	114.3691156462585	79	127
114.4968253968254	114.60131519274377	55	127
114.4968253968254	115.13537414965987	76	127
114.4968253968254	114.60131519274377	48	127
114.4968253968254	114.60131519274377	36	127
114.4968253968254	114.60131519274377	88	127
114.83351473922903	114.92639455782313	48	127
114.83351473922903	114.92639455782313	86	127
114.83351473922903	114.92639455782313	52	127
114.83351473922903	114.92639455782313	36	127
114.92639455782313	115.01927437641723	52	127
114.92639455782313	115.01927437641723	48	127
114.92639455782313	115.01927437641723	36	127
114.92639455782313	115.01927437641723	84	127
115.13537414965987	115.21664399092971	72	127
115.21664399092971	115.32113378684807	53	127
115.21664399092971	115.32113378684807	81	127
115.21664399092971	115.32113378684807	74	127
115.21664399092971	115.32113378684807	48	127
115.21664399092971	115.32113378684807	36	127
115.32113378684807	115.4372335600907	76	127
115.32113378684807	115.4372335600907	52	127
115.32113378684807	115.4372335600907	48	127
115.32113378684807	115.4372335600907	36	127
115.32113378684807	115.54172335600907	79	127
115.64621315192744	115.73909297052154	74	127
115.64621315192744	115.73909297052154	55	127
115.64621315192744	115.73909297052154	52	127
115.64621315192744	115.73909297052154	48	127
115.64621315192744	115.73909297052154	36	127
115.75070294784581	115.85519274376418	72	127
115.75070294784581	115.85519274376418	55	127
115.75070294784581	115.85519274376418	52	127
115.75070294784581	115.85519274376418	48	127
115.75070294784581	115.85519274376418	36	127
115.94807256235828	116.01773242630385	84	127
116.01773242630385	116.11061224489796	86	127
116.01773242630385	116.11061224489796	69	127
116.01773242630385	116.11061224489796	53	127
116.01773242630385	116.11061224489796	57	127
116.01773242630385	116.11061224489796	48	127
116.01773242630385	116.11061224489796	36	127
116.11061224489796	116.20349206349206	52	127
116.11061224489796	116.20349206349206	55	127
116.11061224489796	116.20349206349206	48	127
116.11061224489796	116.20349206349206	88	127
116.11061224489796	116.20349206349206	36	127
116.11061224489796	116.30798185941043	67	127
116.21510204081633	116.27315192743764	86	127
116.30798185941043	116.36603174603175	84	127
116.40086167800453	116.5053514739229	36	127
116.40086167800453	116.48213151927438	83	127
116.40086167800453	116.5053514739229	52	127
116.40086167800453	116.5053514739229	48	127
116.5053514739229	116.60984126984127	36	127
116.5053514739229	116.60984126984127	86	127
116.5053514739229	116.60984126984127	52	127
116.5053514739229	116.60984126984127	48	127
116.62145124716554	116.70272108843537	84	127
116.71433106575964	116.76077097505669	83	127
116.71433106575964	116.79560090702948	72	127
116.79560090702948	116.87687074829932	53	127
116.79560090702948	116.87687074829932	48	127
116.79560090702948	116.87687074829932	36	127
116.79560090702948	116.86526077097506	81	127
116.79560090702948	116.87687074829932	74	127
116.88848072562358	117.08585034013605	79	127
116.88848072562358	116.99297052154195	52	127
116.88848072562358	116.99297052154195	48	127
116.88848072562358	116.99297052154195	76	127
116.88848072562358	116.99297052154195	36	127
116.99297052154195	117.07424036281179	74	127
117.09746031746032	117.13229024943311	72	127
117.14390022675737	117.24839002267574	55	127
117.14390022675737	117.22517006802721	71	127
117.14390022675737	117.24839002267574	52	127
117.14390022675737	117.24839002267574	48	127
117.14390022675737	117.24839002267574	36	127
117.26	117.36448979591837	74	127
117.26	117.36448979591837	52	127
117.26	117.36448979591837	55	127
117.26	117.36448979591837	48	127
117.26	117.36448979591837	36	127
117.36448979591837	117.4457596371882	72	127
117.480589569161	117.51541950113379	71	127
117.480589569161	117.53863945578232	84	127
117.55024943310657	117.58507936507937	69	127
117.55024943310657	117.61990929705216	86	127
117.55024943310657	117.61990929705216	53	127
117.55024943310657	117.61990929705216	57	127
117.55024943310657	117.61990929705216	48	127
117.55024943310657	117.61990929705216	36	127
117.61990929705216	118.47904761904762	48	127
117.61990929705216	117.70117913832199	88	127
117.61990929705216	117.82888888888888	67	127
117.61990929705216	118.47904761904762	52	127
117.72439909297051	117.80566893424036	86	127
117.82888888888888	117.89854875283447	84	127
117.93337868480725	118.0146485260771	83	127
118.03786848072562	118.11913832199546	84	127
118.15396825396826	118.23523809523809	83	127
118.27006802721088	118.33972789115646	81	127
118.37455782312925	118.4558276643991	79	127
118.49065759637188	119.31496598639455	53	127
118.49065759637188	118.57192743764172	81	127
118.49065759637188	119.31496598639455	57	127
118.59514739229024	118.66480725623583	79	127
118.69963718820861	118.78090702947846	77	127
118.80412698412698	118.88539682539682	76	127
118.92022675736962	119.00149659863946	77	127
119.03632653061224	119.10598639455782	76	127
119.14081632653061	119.1756462585034	74	127
119.21047619047619	119.28013605442177	72	127
119.31496598639455	119.75614512471655	50	127
119.31496598639455	119.3962358276644	71	127
119.31496598639455	119.75614512471655	53	127
119.43106575963719	119.51233560090704	72	127
119.53555555555556	119.61682539682539	74	127
119.65165532879818	119.73292517006803	76	127
119.76775510204082	120.12766439909296	59	127
119.76775510204082	119.8374149659864	77	127
119.76775510204082	120.12766439909296	62	127
119.86063492063492	119.91868480725624	76	127
119.9302947845805	119.99995464852607	74	127
120.03478458049887	120.10444444444444	72	127
120.13927437641723	120.51079365079364	55	127
120.13927437641723	120.22054421768708	71	127
120.13927437641723	120.51079365079364	59	127
120.2437641723356	120.29020408163265	72	127
120.32503401360545	120.38308390022675	74	127
120.41791383219955	120.48757369614512	72	127
120.51079365079364	120.94036281179139	62	127
120.51079365079364	120.59206349206349	71	127
120.51079365079364	120.94036281179139	65	127
120.62689342403628	120.69655328798186	67	127
120.73138321995465	120.8126530612245	69	127
120.83587301587302	120.91714285714286	71	127
120.94036281179139	121.02163265306122	60	127
120.94036281179139	121.16095238095238	64	127
120.94036281179139	121.79950113378685	72	127
120.94036281179139	121.79950113378685	76	127
121.05646258503401	121.12612244897959	59	127
121.16095238095238	121.24222222222222	57	127
121.277052154195	121.3467120181406	55	127
121.38154195011337	121.79950113378685	64	127
121.38154195011337	121.45120181405896	57	127
121.38154195011337	121.79950113378685	60	127
121.47442176870749	121.55569160997733	55	127
121.59052154195011	121.66018140589568	53	127
121.69501133786848	121.77628117913832	52	127
121.79950113378685	121.86916099773242	53	127
121.79950113378685	122.58897959183673	81	127
121.79950113378685	122.58897959183673	65	127
121.79950113378685	122.58897959183673	69	127
121.86916099773242	121.93882086167801	52	127
121.97365079365079	122.04331065759636	50	127
122.0665306122449	122.14780045351473	48	127
122.18263038548753	122.2522902494331	53	127
122.2871201814059	122.36839002267574	52	127
122.39160997732426	122.47287981859411	50	127
122.49609977324263	122.55414965986395	48	127
122.58897959183673	122.6586394557823	50	127
122.58897959183673	122.98371882086168	62	127
122.58897959183673	122.98371882086168	77	127
122.58897959183673	122.98371882086168	65	127
122.6934693877551	122.76312925170068	48	127
122.79795918367347	122.86761904761904	47	127
122.89083900226757	122.96049886621316	45	127
122.99532879818594	123.80802721088435	71	127
122.99532879818594	123.06498866213153	47	127
122.99532879818594	123.40167800453514	86	127
122.99532879818594	123.92412698412699	74	127
123.0998185941043	123.18108843537415	45	127
123.20430839002267	123.28557823129252	44	127
123.30879818594104	123.36684807256236	42	127
123.40167800453514	123.80802721088435	83	127
123.40167800453514	123.48294784580499	44	127
123.50616780045351	123.5758276643991	45	127
123.61065759637188	123.68031746031745	47	127
123.703537414966	123.78480725623582	45	127
123.81963718820862	124.21437641723357	64	127
123.81963718820862	123.88929705215419	44	127
123.81963718820862	124.21437641723357	88	127
123.92412698412699	123.99378684807256	68	127
123.92412698412699	123.99378684807256	40	127
124.00539682539683	124.08666666666667	69	127
124.00539682539683	124.08666666666667	42	127
124.12149659863945	124.19115646258503	71	127
124.12149659863945	124.19115646258503	44	127
124.21437641723357	125.0154648526077	48	127
124.21437641723357	124.28403628117914	84	127
124.21437641723357	124.40013605442176	72	127
124.21437641723357	125.0154648526077	45	127
124.30725623582767	124.37691609977324	83	127
124.41174603174603	124.48140589569161	81	127
124.5162358276644	124.59750566893425	80	127
124.6091156462585	124.67877551020408	81	127
124.7019954648526	124.77165532879819	79	127
124.80648526077097	124.88775510204081	77	127
124.92258503401361	124.98063492063493	76	127
125.0154648526077	125.80494331065759	53	127
125.0154648526077	125.09673469387755	77	127
125.0154648526077	125.80494331065759	50	127
125.11995464852608	125.20122448979592	76	127
125.23605442176871	125.2708843537415	74	127
125.30571428571429	125.37537414965986	72	127
125.39859410430839	125.4566439909297	74	127
125.4914739229025	125.56113378684807	72	127
125.59596371882085	125.6772335600907	71	127
125.70045351473922	125.78172335600907	69	127
125.81655328798186	126.23451247165534	47	127
125.81655328798186	125.8978231292517	68	127
125.81655328798186	126.23451247165534	50	127
125.93265306122449	126.01392290249433	69	127
126.04875283446712	126.1184126984127	71	127
126.15324263038549	126.2112925170068	72	127
126.23451247165534	126.68730158730159	56	127
126.23451247165534	126.31578231292517	74	127
126.23451247165534	126.68730158730159	59	127
126.35061224489796	126.42027210884353	72	127
126.47832199546485	126.57120181405895	71	127
126.60603174603175	126.66408163265307	69	127
126.69891156462585	127.10526077097505	52	127
126.69891156462585	126.76857142857143	68	127
126.69891156462585	127.10526077097505	56	127
126.80340136054421	126.8730612244898	69	127
126.88467120181406	126.97755102040816	71	127
127.02399092970522	127.07043083900227	69	127
127.10526077097505	127.1865306122449	68	127
127.10526077097505	127.45356009070295	62	127
127.10526077097505	127.45356009070295	59	127
127.22136054421769	127.27941043083901	64	127
127.31424036281179	127.36068027210884	66	127
127.38390022675738	127.43034013605443	68	127
127.4651700680272	128.2894784580499	72	127
127.4651700680272	127.5348299319728	57	127
127.4651700680272	127.66253968253969	60	127
127.4651700680272	128.2894784580499	69	127
127.56965986394557	127.65092970521542	55	127
127.66253968253969	127.74380952380952	53	127
127.77863945578231	127.84829931972789	52	127
127.88312925170068	127.941179138322	57	127
127.88312925170068	128.2894784580499	57	127
127.88312925170068	128.2894784580499	60	127
127.96439909297052	128.04566893424035	55	127
128.08049886621316	128.15015873015872	53	127
128.18498866213153	128.26625850340136	52	127
128.2894784580499	129.47367346938776	65	127
128.2894784580499	128.37074829931973	53	127
128.2894784580499	129.07895691609977	77	127
128.2894784580499	129.47367346938776	62	127
128.4055782312925	128.44040816326532	52	127
128.4752380952381	128.55650793650793	50	127
128.59133786848074	128.6609977324263	48	127
128.6958276643991	128.77709750566893	50	127
128.80031746031747	128.8815873015873	48	127
128.91641723356008	128.98607709750567	46	127
129.02090702947845	129.07895691609977	45	127
129.07895691609977	129.47367346938776	74	127
129.07895691609977	129.1370068027211	46	127
129.17183673469387	129.24149659863946	45	127
129.27632653061224	129.3575963718821	43	127
129.3691836734694	129.4504761904762	41	127
129.48530612244897	130.25156462585034	70	127
129.48530612244897	129.55496598639456	43	127
129.48530612244897	129.83360544217686	82	127
129.48530612244897	130.25156462585034	67	127
129.58979591836734	129.6710657596372	41	127
129.70589569160998	129.74072562358276	40	127
129.7755328798186	129.81038548752835	38	127
129.83360544217686	129.90326530612245	40	127
129.83360544217686	130.25156462585034	79	127
129.93809523809523	130.00775510204082	41	127
130.0425850340136	130.12385487528346	43	127
130.14707482993197	130.22834467120182	41	127
130.2631746031746	131.09909297052155	84	127
130.2631746031746	130.3328344671202	40	127
130.2631746031746	130.69274376417235	79	127
130.2631746031746	130.69274376417235	70	127
130.3560544217687	130.43732426303856	36	127
130.46054421768707	130.55342403628117	38	127
130.58825396825398	130.65791383219954	40	127
130.69274376417235	130.89011337868482	69	127
130.69274376417235	130.89011337868482	41	127
130.69274376417235	131.09909297052155	77	127
130.89011337868482	130.99460317460318	53	127
130.99460317460318	131.09909297052155	55	127
131.1107029478458	131.48222222222222	72	127
131.1107029478458	131.21519274376416	57	127
131.1107029478458	131.48222222222222	81	127
131.21519274376416	131.31968253968253	53	127
131.31968253968253	131.4009523809524	55	127
131.4009523809524	131.48222222222222	57	127
131.48222222222222	131.91179138321996	74	127
131.48222222222222	131.69120181405896	58	127
131.48222222222222	131.91179138321996	77	127
131.70281179138323	131.8073015873016	38	127
131.8073015873016	131.91179138321996	39	127
131.92337868480726	132.73609977324264	82	127
131.92337868480726	132.02786848072563	41	127
131.92337868480726	132.35297052154195	80	127
132.02786848072563	132.1439909297052	38	127
132.1439909297052	132.2368707482993	39	127
132.24848072562358	132.35297052154195	41	127
132.35297052154195	132.73609977324264	79	127
132.35297052154195	132.55034013605442	39	127
132.56195011337869	132.63160997732427	51	127
132.63160997732427	132.73609977324264	53	127
132.73609977324264	133.13083900226758	75	127
132.73609977324264	132.840589569161	55	127
132.73609977324264	133.13083900226758	79	127
132.85219954648525	132.9450566893424	51	127
132.9450566893424	133.04954648526078	53	127
133.061179138322	133.13083900226758	55	127
133.14244897959185	133.53718820861678	76	127
133.14244897959185	133.35142857142858	57	127
133.14244897959185	133.53718820861678	73	127
133.36303854875283	133.43269841269841	49	127
133.43269841269841	133.53718820861678	50	127
133.53718820861678	133.63006802721088	52	127
133.53718820861678	133.95514739229026	81	127
133.53718820861678	133.95514739229026	79	127
133.64167800453515	133.74616780045352	52	127
133.64167800453515	133.74616780045352	49	127
133.74616780045352	133.8506575963719	53	127
133.74616780045352	133.8506575963719	50	127
133.8506575963719	133.95514739229026	52	127
133.8506575963719	133.95514739229026	55	127
133.96673469387756	134.1757142857143	77	127
133.96673469387756	134.38471655328797	53	127
133.96673469387756	134.1757142857143	74	127
133.96673469387756	134.38471655328797	56	127
134.1873469387755	134.2802267573696	65	127
134.29183673469387	134.38471655328797	67	127
134.38471655328797	134.80267573696145	50	127
134.38471655328797	134.48920634920634	68	127
134.38471655328797	134.80267573696145	53	127
134.5008163265306	134.60530612244898	65	127
134.60530612244898	134.69818594104308	67	127
134.69818594104308	134.80267573696145	68	127
134.81428571428572	135.19739229024944	50	127
134.81428571428572	134.98843537414967	67	127
134.81428571428572	135.19739229024944	47	127
134.98843537414967	135.08131519274377	83	127
135.09290249433107	135.19739229024944	84	127
135.19739229024944	136.02172335600906	55	127
135.19739229024944	135.3018820861678	86	127
135.19739229024944	135.58054421768708	53	127
135.3018820861678	135.3831746031746	83	127
135.39478458049888	135.48766439909298	84	127
135.48766439909298	135.58054421768708	86	127
135.59215419501135	135.7895238095238	84	127
135.59215419501135	136.02172335600906	51	127
135.7895238095238	135.90562358276645	63	127
135.9172335600907	136.02172335600906	65	127
136.02172335600906	136.4512925170068	48	127
136.02172335600906	136.12621315192743	66	127
136.02172335600906	136.4512925170068	51	127
136.12621315192743	136.2307029478458	63	127
136.24231292517007	136.34680272108844	65	127
136.34680272108844	136.4512925170068	66	127
136.4512925170068	136.6254195011338	65	127
136.4512925170068	136.83439909297053	48	127
136.4512925170068	136.83439909297053	45	127
136.6254195011338	136.72990929705216	81	127
136.72990929705216	136.83439909297053	82	127
136.83439909297053	136.93891156462584	84	127
136.83439909297053	137.26399092970522	75	127
136.83439909297053	137.26399092970522	41	127
136.83439909297053	140.45673469387756	53	127
136.93891156462584	137.0434013605442	81	127
137.05501133786848	137.15950113378685	82	127
137.15950113378685	137.26399092970522	84	127
137.26399092970522	143.73072562358277	46	127
137.26399092970522	137.49616780045352	74	127
137.26399092970522	137.8677097505669	82	127
137.50780045351473	140.45673469387756	62	127
137.8677097505669	137.94897959183675	82	127
137.94897959183675	138.06507936507936	84	127
138.06507936507936	138.15795918367348	86	127
138.401768707483	138.50625850340137	84	127
138.50625850340137	138.61074829931974	82	127
138.84294784580499	138.94743764172335	79	127
138.94743764172335	139.05192743764172	77	127
139.26090702947846	139.36539682539683	75	127
139.3770068027211	139.49308390022676	74	127
139.71369614512471	139.84140589569162	72	127
139.84140589569162	139.94589569161	70	127
140.15485260770976	140.25934240362812	69	127
140.25934240362812	140.36385487528344	70	127
140.45673469387756	140.67732426303854	63	127
140.45673469387756	140.57283446712017	55	127
140.57283446712017	140.67732426303854	57	127
140.57283446712017	140.67732426303854	67	127
140.6889342403628	142.44204081632654	58	127
140.6889342403628	141.24621315192744	65	127
140.6889342403628	142.07052154195011	62	127
141.24621315192744	141.32746031746032	70	127
141.33909297052153	141.4435827664399	72	127
141.4435827664399	141.54807256235827	74	127
141.76866213151928	141.87315192743765	72	127
141.87315192743765	141.96603174603175	70	127
142.08213151927438	142.26789115646258	63	127
142.18662131519275	142.26789115646258	67	127
142.27950113378685	142.36077097505668	65	127
142.27950113378685	142.36077097505668	62	127
142.5581179138322	142.65102040816328	58	127
142.5581179138322	142.65102040816328	63	127
142.5581179138322	142.65102040816328	55	127
142.65102040816328	142.74390022675738	53	127
142.65102040816328	142.74390022675738	62	127
142.65102040816328	142.74390022675738	58	127
142.97609977324262	143.080589569161	51	127
142.97609977324262	143.080589569161	65	127
142.97609977324262	143.080589569161	60	127
142.97609977324262	143.080589569161	69	127
143.080589569161	143.2198866213152	50	127
143.080589569161	143.18507936507936	58	127
143.080589569161	143.2198866213152	65	127
143.080589569161	143.2198866213152	70	127
143.28956916099773	143.3940589569161	69	127
143.28956916099773	143.42886621315193	57	127
143.28956916099773	143.42886621315193	48	127
143.51015873015874	143.66108843537415	50	127
143.51015873015874	143.73072562358277	67	127
143.51015873015874	143.66108843537415	55	127
143.74235827664398	143.82362811791384	65	127
143.74235827664398	143.85845804988662	62	127
143.74235827664398	143.85845804988662	50	127
143.74235827664398	143.9281179138322	46	127
143.82362811791384	143.9281179138322	67	127
143.9397052154195	144.10226757369614	45	127
143.9397052154195	144.16031746031746	61	127
143.9397052154195	144.16031746031746	52	127
143.9397052154195	144.5898866213152	69	127
144.16031746031746	144.2996371882086	43	127
144.3692970521542	144.5898866213152	41	127
144.5898866213152	144.69437641723357	40	127
144.5898866213152	144.78725623582767	57	127
144.70596371882087	144.78725623582767	41	127
144.78725623582767	144.91496598639455	43	127
144.78725623582767	145.37936507936507	69	127
144.98462585034014	145.13555555555556	41	127
145.1819954648526	145.37936507936507	40	127
145.39097505668934	145.4954648526077	38	127
145.39097505668934	145.5883446712018	57	127
145.4954648526077	145.5883446712018	40	127
145.5883446712018	145.73927437641723	81	127
145.5883446712018	145.73927437641723	41	127
145.5883446712018	146.2268934240363	69	127
145.79732426303855	145.95986394557823	40	127
145.79732426303855	145.95986394557823	79	127
146.01791383219955	146.2268934240363	77	127
146.01791383219955	146.2268934240363	38	127
146.2268934240363	146.34297052154196	76	127
146.2268934240363	146.34297052154196	37	127
146.2268934240363	146.44748299319727	57	127
146.34297052154196	146.44748299319727	77	127
146.34297052154196	146.44748299319727	38	127
146.45909297052154	146.62163265306123	79	127
146.45909297052154	146.62163265306123	64	127
146.45909297052154	146.62163265306123	40	127
146.45909297052154	146.66807256235828	69	127
146.67968253968255	146.85380952380953	77	127
146.67968253968255	146.85380952380953	62	127
146.67968253968255	146.85380952380953	41	127
146.67968253968255	146.90024943310658	57	127
146.9118820861678	147.1324716553288	69	127
146.9118820861678	147.1324716553288	76	127
146.9118820861678	147.1324716553288	61	127
146.9118820861678	147.1324716553288	43	127
147.1324716553288	147.23696145124717	74	127
147.1324716553288	147.23696145124717	59	127
147.1324716553288	147.23696145124717	45	127
147.1324716553288	147.3530612244898	57	127
147.24857142857144	147.3530612244898	43	127
147.24857142857144	147.3530612244898	61	127
147.24857142857144	147.3530612244898	76	127
147.3530612244898	147.57365079365078	41	127
147.3530612244898	148.0148299319728	62	127
147.3530612244898	147.51557823129252	77	127
147.3530612244898	147.57365079365078	77	127
147.57365079365078	147.74780045351474	76	127
147.80585034013606	148.0148299319728	74	127
148.0264172335601	148.15414965986395	50	127
148.0264172335601	148.04965986394558	73	127
148.04965986394558	148.15414965986395	74	127
148.16575963718822	148.2934693877551	75	127
148.16575963718822	148.6765986394558	62	127
148.35151927437641	148.4443990929705	74	127
148.49083900226756	148.6765986394558	72	127
148.6765986394558	148.78108843537416	71	127
148.6765986394558	148.88557823129253	78	127
148.6765986394558	148.88557823129253	50	127
148.6765986394558	148.88557823129253	57	127
148.79267573696146	148.88557823129253	72	127
148.88557823129253	149.03650793650795	79	127
148.88557823129253	149.03650793650795	58	127
148.88557823129253	149.03650793650795	74	127
148.88557823129253	149.4892970521542	62	127
149.082947845805	149.22226757369614	81	127
149.082947845805	149.22226757369614	57	127
149.082947845805	149.22226757369614	72	127
149.29192743764173	149.4892970521542	82	127
149.29192743764173	149.4892970521542	55	127
149.29192743764173	149.4892970521542	70	127
149.4892970521542	149.59378684807257	84	127
149.4892970521542	149.59378684807257	54	127
149.4892970521542	149.6750566893424	50	127
149.4892970521542	149.59378684807257	69	127
149.59378684807257	149.6750566893424	70	127
149.59378684807257	149.6750566893424	82	127
149.59378684807257	149.6750566893424	55	127
149.68666666666667	149.83759637188209	72	127
149.68666666666667	149.83759637188209	81	127
149.68666666666667	149.83759637188209	57	127
149.68666666666667	149.8956462585034	62	127
149.8956462585034	150.0581859410431	82	127
149.8956462585034	150.0581859410431	55	127
149.8956462585034	150.1162358276644	50	127
149.8956462585034	150.0581859410431	70	127
150.1162358276644	150.31360544217688	54	127
150.1162358276644	150.31360544217688	69	127
150.1162358276644	150.31360544217688	84	127
150.1162358276644	150.31360544217688	62	127
150.31360544217688	150.3948752834467	86	127
150.31360544217688	150.49936507936508	50	127
150.31360544217688	150.3948752834467	52	127
150.31360544217688	150.3948752834467	67	127
150.40648526077098	150.49936507936508	69	127
150.40648526077098	150.49936507936508	84	127
150.40648526077098	150.49936507936508	54	127
150.49936507936508	150.71995464852608	83	127
150.49936507936508	150.66190476190476	67	127
150.49936507936508	150.71995464852608	71	127
150.49936507936508	151.1495238095238	55	127
150.73156462585035	150.89410430839	65	127
150.95215419501133	151.1495238095238	63	127
151.16113378684807	151.24240362811793	62	127
151.16113378684807	151.34687074829932	43	127
151.24240362811793	151.34687074829932	63	127
151.34687074829932	151.47460317460317	65	127
151.34687074829932	151.92739229024943	55	127
151.34687074829932	151.47460317460317	80	127
151.5326530612245	151.66036281179137	63	127
151.5326530612245	151.66036281179137	79	127
151.70678004535148	151.92739229024943	62	127
151.70678004535148	151.92739229024943	77	127
151.92739229024943	152.04349206349207	60	127
151.92739229024943	152.04349206349207	75	127
151.92739229024943	152.13637188208617	43	127
152.04349206349207	152.13637188208617	62	127
152.04349206349207	152.13637188208617	77	127
152.13637188208617	152.80975056689343	55	127
152.13637188208617	152.29891156462585	79	127
152.13637188208617	152.29891156462585	60	127
152.13637188208617	152.29891156462585	63	127
152.36857142857144	152.5311111111111	77	127
152.36857142857144	152.5311111111111	62	127
152.36857142857144	152.5311111111111	62	127
152.58916099773242	152.80975056689343	75	127
152.58916099773242	152.80975056689343	63	127
152.58916099773242	152.80975056689343	60	127
152.80975056689343	152.89102040816326	59	127
152.80975056689343	152.89102040816326	74	127
152.80975056689343	152.99551020408163	43	127
152.80975056689343	152.89102040816326	65	127
152.89102040816326	152.99551020408163	63	127
152.89102040816326	152.99551020408163	75	127
152.89102040816326	152.99551020408163	60	127
152.99551020408163	153.1580498866213	77	127
152.99551020408163	153.20448979591836	55	127
152.99551020408163	153.1580498866213	62	127
152.99551020408163	153.1580498866213	62	127
153.20448979591836	153.33219954648527	75	127
153.20448979591836	153.33219954648527	63	127
153.20448979591836	153.33219954648527	60	127
153.20448979591836	153.3902494331066	43	127
153.3902494331066	153.5760090702948	65	127
153.3902494331066	153.5760090702948	59	127
153.3902494331066	153.5760090702948	55	127
153.3902494331066	153.5760090702948	74	127
153.5760090702948	153.69210884353743	72	127
153.5760090702948	153.69210884353743	57	127
153.5760090702948	153.7965986394558	43	127
153.5760090702948	153.69210884353743	67	127
153.69210884353743	153.7965986394558	74	127
153.69210884353743	153.7965986394558	65	127
153.69210884353743	153.7965986394558	59	127
153.80820861678004	154.58607709750567	48	127
153.80820861678004	153.9591156462585	76	127
153.80820861678004	154.58607709750567	60	127
153.80820861678004	154.7950566893424	64	127
154.01718820861677	154.11004535147393	76	127
154.11004535147393	154.19133786848073	77	127
154.19133786848073	154.37709750566893	79	127
154.37709750566893	154.46995464852608	81	127
154.4815873015873	154.58607709750567	82	127
154.58607709750567	154.7950566893424	57	127
154.58607709750567	155.66580498866213	81	127
154.58607709750567	154.7950566893424	49	127
154.7950566893424	154.91115646258504	61	127
154.7950566893424	154.91115646258504	57	127
154.7950566893424	154.91115646258504	52	127
154.9227664399093	155.0272335600907	59	127
154.9227664399093	155.0272335600907	62	127
154.9227664399093	155.0272335600907	50	127
155.0272335600907	155.23621315192744	61	127
155.0272335600907	155.23621315192744	49	127
155.0272335600907	155.23621315192744	64	127
155.24784580498866	155.35233560090703	65	127
155.24784580498866	155.35233560090703	62	127
155.24784580498866	155.35233560090703	47	127
155.35233560090703	155.4568253968254	64	127
155.35233560090703	155.4568253968254	67	127
155.35233560090703	155.4568253968254	45	127
155.46843537414966	156.23469387755102	62	127
155.46843537414966	156.23469387755102	50	127
155.46843537414966	156.23469387755102	65	127
155.6774149659864	155.7702947845805	77	127
155.7702947845805	155.87478458049887	79	127
155.87478458049887	156.04893424036283	81	127
156.04893424036283	156.13020408163266	83	127
156.14181405895692	156.23469387755102	84	127
156.23469387755102	156.45528344671203	51	127
156.23469387755102	158.98625850340136	83	127
156.23469387755102	156.45528344671203	66	127
156.23469387755102	156.45528344671203	59	127
156.45528344671203	156.57138321995464	59	127
156.45528344671203	156.57138321995464	54	127
156.45528344671203	156.57138321995464	63	127
156.57138321995464	156.675873015873	64	127
156.57138321995464	156.675873015873	61	127
156.57138321995464	156.675873015873	52	127
156.68748299319728	156.89646258503402	51	127
156.68748299319728	156.89646258503402	66	127
156.68748299319728	156.89646258503402	63	127
156.90807256235829	157.00095238095238	49	127
156.90807256235829	157.00095238095238	64	127
156.90807256235829	157.00095238095238	67	127
157.00095238095238	157.10544217687075	47	127
157.00095238095238	157.10544217687075	69	127
157.00095238095238	157.10544217687075	66	127
157.11705215419502	157.2215419501134	52	127
157.11705215419502	161.80748299319728	67	127
157.11705215419502	158.76566893424035	64	127
157.32603174603176	157.41891156462586	52	127
157.43049886621316	157.52340136054423	54	127
157.52340136054423	157.61628117913833	55	127
157.73238095238096	157.82526077097506	55	127
157.83687074829933	157.94133786848073	57	127
157.94133786848073	158.0458276643991	59	127
158.16195011337868	158.26643990929705	61	127
158.26643990929705	158.37092970521542	63	127
158.3825396825397	158.440589569161	64	127
158.440589569161	158.46380952380952	66	127
158.46380952380952	158.51024943310657	64	127
158.51024943310657	158.54507936507937	66	127
158.54507936507937	158.61473922902493	64	127
158.61473922902493	158.6960090702948	63	127
158.6960090702948	158.76566893424035	64	127
158.76566893424035	160.44909297052155	65	127
158.76566893424035	160.44909297052155	62	127
158.98625850340136	159.09074829931973	71	127
159.102358276644	159.20684807256237	72	127
159.20684807256237	159.29972789115646	74	127
159.4158276643991	159.52031746031747	74	127
159.52031746031747	159.62480725623584	76	127
159.63641723356008	159.74090702947845	77	127
159.84539682539682	159.92666666666668	79	127
159.92666666666668	160.0079365079365	81	127
160.01954648526078	160.0775963718821	83	127
160.0775963718821	160.12403628117914	84	127
160.12403628117914	160.18208616780046	83	127
160.18208616780046	160.2285260770975	84	127
160.2285260770975	160.29816326530613	83	127
160.29816326530613	160.37945578231293	81	127
160.37945578231293	160.44909297052155	83	127
160.44909297052155	160.55358276643992	60	127
160.44909297052155	160.65809523809523	84	127
160.44909297052155	160.55358276643992	64	127
160.65809523809523	160.7393650793651	48	127
160.65809523809523	160.7393650793651	52	127
160.75097505668936	160.84385487528345	50	127
160.75097505668936	160.84385487528345	53	127
160.84385487528345	160.92512471655328	52	127
160.84385487528345	160.92512471655328	55	127
161.02961451247165	161.12249433106575	53	127
161.02961451247165	161.12249433106575	57	127
161.12249433106575	161.19215419501134	55	127
161.12249433106575	161.19215419501134	59	127
161.2037641723356	161.30825396825398	57	127
161.2037641723356	161.30825396825398	60	127
161.36628117913833	161.4707709750567	57	127
161.36628117913833	161.4707709750567	60	127
161.4707709750567	161.58689342403628	59	127
161.4707709750567	161.58689342403628	62	127
161.58689342403628	161.6449433106576	60	127
161.58689342403628	161.6449433106576	64	127
161.6449433106576	161.70299319727891	66	127
161.6449433106576	161.70299319727891	62	127
161.70299319727891	161.74943310657596	64	127
161.70299319727891	161.74943310657596	60	127
161.74943310657596	161.80748299319728	66	127
161.74943310657596	161.80748299319728	62	127
161.80748299319728	162.0280725623583	67	127
161.80748299319728	162.0280725623583	76	127
161.80748299319728	161.8655328798186	60	127
161.80748299319728	161.8655328798186	64	127
161.8655328798186	161.9584126984127	62	127
161.8655328798186	161.9584126984127	59	127
161.9584126984127	162.0280725623583	64	127
161.9584126984127	162.0280725623583	60	127
162.0280725623583	163.6534693877551	59	127
162.0280725623583	163.6534693877551	62	127
162.0280725623583	162.13256235827666	68	127
162.0280725623583	162.8407709750567	64	127
162.24866213151927	162.35315192743764	68	127
162.35315192743764	162.457641723356	69	127
162.46925170068027	162.57374149659864	71	127
162.65501133786847	162.73628117913833	71	127
162.73628117913833	162.8407709750567	72	127
162.852358276644	163.06136054421768	74	127
162.852358276644	162.95684807256237	74	127
163.06136054421768	163.1542403628118	76	127
163.16585034013605	163.2587074829932	72	127
163.16585034013605	163.2587074829932	78	127
163.2587074829932	163.36319727891157	71	127
163.2587074829932	163.31678004535146	80	127
163.31678004535146	163.37482993197278	81	127
163.37482993197278	163.4096598639456	80	127
163.4096598639456	163.44448979591837	81	127
163.44448979591837	163.514126984127	80	127
163.514126984127	163.58380952380952	78	127
163.54897959183674	163.6534693877551	68	127
163.58380952380952	163.6534693877551	80	127
163.6534693877551	163.87403628117914	81	127
163.6534693877551	163.87403628117914	64	127
163.6534693877551	163.87403628117914	72	127
163.6534693877551	163.87403628117914	60	127
163.6534693877551	163.87403628117914	57	127
163.88566893424036	163.99015873015873	69	127
163.99015873015873	164.0946485260771	71	127
164.10625850340136	164.16430839002268	72	127
164.28038548752835	164.3384580498866	72	127
164.3384580498866	164.44294784580498	74	127
164.44294784580498	164.52421768707484	76	127
164.6287074829932	164.7215873015873	78	127
164.73319727891158	164.83768707482994	80	127
164.83768707482994	164.8957142857143	81	127
164.8957142857143	164.93056689342404	83	127
164.93056689342404	164.9770068027211	81	127
164.9770068027211	165.02344671201814	83	127
165.02344671201814	165.10471655328797	81	127
165.02344671201814	165.24403628117915	72	127
165.02344671201814	165.24403628117915	57	127
165.02344671201814	165.46462585034013	64	127
165.10471655328797	165.17437641723356	80	127
165.17437641723356	165.24403628117915	81	127
165.24403628117915	165.36013605442176	83	127
165.24403628117915	165.46462585034013	71	127
165.24403628117915	165.46462585034013	55	127
165.4762358276644	165.58072562358277	76	127
165.58072562358277	165.68521541950113	78	127
165.6968253968254	165.77809523809523	79	127
165.89419501133787	165.99868480725624	79	127
165.99868480725624	166.1031746031746	81	127
166.1031746031746	166.20766439909298	83	127
166.32376417233561	166.4166439909297	85	127
166.4166439909297	166.52113378684808	87	127
166.52113378684808	166.5791836734694	88	127
166.5791836734694	166.61401360544218	90	127
166.61401360544218	166.63721088435375	90	127
166.63721088435375	166.8578231292517	71	127
166.63721088435375	166.71850340136055	88	127
166.63721088435375	166.8578231292517	64	127
166.63721088435375	166.8578231292517	55	127
166.71850340136055	166.78814058956917	87	127
166.78814058956917	166.86943310657597	88	127
166.86943310657597	167.09002267573698	71	127
166.86943310657597	167.09002267573698	69	127
166.86943310657597	167.09002267573698	66	127
166.86943310657597	167.09002267573698	54	127
167.11324263038549	167.36866213151927	71	127
167.11324263038549	167.36866213151927	69	127
167.11324263038549	167.36866213151927	87	127
167.11324263038549	167.36866213151927	66	127
167.36866213151927	167.71696145124716	69	127
167.36866213151927	167.41510204081632	87	127
167.36866213151927	167.71696145124716	66	127
167.36866213151927	167.71696145124716	71	127
167.41510204081632	167.46154195011337	88	127
167.46154195011337	167.49637188208618	87	127
167.49637188208618	167.55439909297053	88	127
167.55439909297053	167.62408163265306	87	127
167.62408163265306	167.6588888888889	85	127
167.6588888888889	167.71696145124716	87	127
167.71696145124716	167.96074829931973	52	127
167.96074829931973	168.18136054421768	71	127
167.96074829931973	168.18136054421768	88	127
167.96074829931973	168.18136054421768	67	127
167.96074829931973	168.18136054421768	64	127
168.18136054421768	168.239410430839	88	127
168.18136054421768	168.51804988662133	67	127
168.18136054421768	168.51804988662133	71	127
168.18136054421768	168.51804988662133	64	127
168.239410430839	168.29746031746032	90	127
168.29746031746032	168.3090702947846	88	127
168.3090702947846	168.37873015873015	88	127
168.37873015873015	168.44839002267574	87	127
168.44839002267574	168.52965986394557	88	127
168.52965986394557	168.79668934240362	51	127
168.81990929705216	169.04049886621314	66	127
168.81990929705216	169.04049886621314	90	127
168.81990929705216	169.04049886621314	63	127
168.81990929705216	169.04049886621314	71	127
169.04049886621314	169.33074829931974	63	127
169.04049886621314	169.08691609977325	90	127
169.04049886621314	169.33074829931974	66	127
169.04049886621314	169.33074829931974	71	127
169.08691609977325	169.11015873015873	91	127
169.11015873015873	169.19140589569162	90	127
169.19140589569162	169.26108843537415	88	127
169.26108843537415	169.33074829931974	90	127
169.33074829931974	169.38879818594106	91	127
169.33074829931974	169.51650793650794	52	127
169.38879818594106	169.4468253968254	93	127
169.4468253968254	169.48167800453515	91	127
169.48167800453515	169.51650793650794	93	127
169.51650793650794	169.58616780045352	91	127
169.51650793650794	169.7138775510204	71	127
169.51650793650794	169.7138775510204	64	127
169.51650793650794	169.7138775510204	64	127
169.58616780045352	169.65582766439908	90	127
169.65582766439908	169.72548752834467	91	127
169.72548752834467	169.77192743764172	93	127
169.72548752834467	169.92285714285714	48	127
169.77192743764172	169.82997732426304	95	127
169.82997732426304	169.88802721088436	93	127
169.88802721088436	169.92285714285714	95	127
169.92285714285714	170.1085941043084	60	127
169.92285714285714	169.98090702947846	93	127
169.92285714285714	170.1085941043084	76	127
169.92285714285714	170.1085941043084	64	127
169.98090702947846	170.03895691609978	91	127
170.03895691609978	170.1202267573696	93	127
170.1202267573696	170.31757369614513	75	127
170.1202267573696	170.31757369614513	66	127
170.1202267573696	170.31757369614513	59	127
170.1202267573696	170.74716553287982	95	127
170.31757369614513	170.42208616780044	63	127
170.31757369614513	170.42208616780044	66	127
170.4336961451247	170.53818594104308	64	127
170.4336961451247	170.53818594104308	67	127
170.53818594104308	171.1883446712018	66	127
170.53818594104308	171.1883446712018	69	127
170.74716553287982	170.96775510204083	96	127
170.96775510204083	171.60630385487528	95	127
171.19995464852607	171.30444444444444	76	127
171.19995464852607	171.30444444444444	67	127
171.19995464852607	171.30444444444444	64	127
171.30444444444444	171.39732426303854	66	127
171.30444444444444	171.39732426303854	78	127
171.30444444444444	171.39732426303854	63	127
171.4089342403628	171.60630385487528	79	127
171.4089342403628	171.60630385487528	67	127
171.4089342403628	171.60630385487528	64	127
171.61791383219955	171.82689342403629	94	127
171.61791383219955	171.82689342403629	76	127
171.61791383219955	171.82689342403629	64	127
171.61791383219955	171.82689342403629	60	127
171.82689342403629	172.0474829931973	78	127
171.82689342403629	172.0474829931973	95	127
171.82689342403629	172.0474829931973	63	127
171.82689342403629	172.0474829931973	59	127
172.0474829931973	172.10551020408164	66	127
172.0474829931973	172.10551020408164	63	127
172.0474829931973	172.22163265306122	59	127
172.0474829931973	172.43061224489796	83	127
172.11714285714285	172.22163265306122	67	127
172.11714285714285	172.22163265306122	64	127
172.22163265306122	172.871768707483	69	127
172.22163265306122	172.43061224489796	59	127
172.22163265306122	172.871768707483	66	127
172.43061224489796	172.6395918367347	84	127
172.43061224489796	172.6395918367347	59	127
172.65120181405896	173.3013605442177	83	127
172.65120181405896	172.871768707483	59	127
172.8834013605442	173.08077097505668	59	127
172.8834013605442	172.9762811791383	67	127
172.8834013605442	172.9762811791383	64	127
172.9762811791383	173.08077097505668	66	127
172.9762811791383	173.08077097505668	63	127
173.09238095238095	173.3013605442177	59	127
173.09238095238095	173.3013605442177	67	127
173.09238095238095	173.3013605442177	64	127
173.3013605442177	173.5219501133787	64	127
173.3013605442177	173.5219501133787	61	127
173.3013605442177	173.5219501133787	59	127
173.3013605442177	173.5219501133787	82	127
173.5219501133787	173.78895691609978	59	127
173.5219501133787	173.78895691609978	83	127
173.5219501133787	173.78895691609978	66	127
173.5219501133787	173.78895691609978	63	127
173.78895691609978	174.23015873015873	83	127
174.23015873015873	174.4275283446712	84	127
174.4275283446712	174.6481179138322	81	127
174.6597052154195	174.89192743764173	79	127
174.89192743764173	175.13573696145124	78	127
175.1473469387755	175.39115646258503	83	127
175.1473469387755	175.39115646258503	66	127
175.1473469387755	175.39115646258503	63	127
175.1473469387755	175.39115646258503	47	127
175.39115646258503	175.6581859410431	76	127
175.39115646258503	175.6581859410431	67	127
175.39115646258503	175.6581859410431	64	127
175.39115646258503	175.6581859410431	52	127
175.6581859410431	175.9019954648526	79	127
175.91360544217687	176.1225850340136	83	127
175.91360544217687	176.1225850340136	67	127
175.91360544217687	176.1225850340136	64	127
175.91360544217687	176.1225850340136	52	127
176.13419501133788	176.34317460317462	88	127
176.13419501133788	176.34317460317462	71	127
176.13419501133788	176.34317460317462	67	127
176.13419501133788	176.34317460317462	47	127
176.35478458049886	176.57537414965986	87	127
176.57537414965986	176.79596371882087	90	127
176.79596371882087	177.05138321995466	69	127
176.79596371882087	177.05138321995466	66	127
176.79596371882087	177.05138321995466	59	127
177.05138321995466	177.27197278911564	90	127
177.05138321995466	177.27197278911564	71	127
177.05138321995466	177.27197278911564	69	127
177.05138321995466	177.27197278911564	51	127
177.27197278911564	177.49256235827664	88	127
177.5041723356009	177.6782993197279	91	127
177.6899319727891	177.89891156462585	67	127
177.6899319727891	177.89891156462585	59	127
177.6899319727891	177.89891156462585	59	127
177.9453514739229	178.1659410430839	91	127
177.9453514739229	178.1659410430839	71	127
177.9453514739229	178.1659410430839	67	127
177.9453514739229	178.1659410430839	52	127
178.1659410430839	178.3865306122449	89	127
178.3865306122449	178.52585034013606	93	127
178.52585034013606	178.7464172335601	69	127
178.52585034013606	178.7464172335601	65	127
178.52585034013606	178.7464172335601	60	127
178.7464172335601	178.95539682539683	93	127
178.7464172335601	178.95539682539683	72	127
178.7464172335601	178.95539682539683	69	127
178.7464172335601	178.95539682539683	57	127
178.95539682539683	179.17600907029478	84	127
179.18761904761905	179.3965986394558	89	127
179.40820861678006	179.62879818594104	93	127
179.40820861678006	179.62879818594104	65	127
179.40820861678006	179.62879818594104	60	127
179.40820861678006	179.62879818594104	45	127
179.62879818594104	179.84938775510204	96	127
179.62879818594104	179.84938775510204	69	127
179.62879818594104	179.84938775510204	65	127
179.62879818594104	179.84938775510204	41	127
179.84938775510204	180.06997732426305	95	127
180.06997732426305	180.2789569160998	91	127
180.2789569160998	180.51115646258503	67	127
180.2789569160998	180.51115646258503	64	127
180.2789569160998	180.51115646258503	47	127
180.51115646258503	180.73174603174604	91	127
180.51115646258503	180.73174603174604	71	127
180.51115646258503	180.73174603174604	59	127
180.51115646258503	180.73174603174604	52	127
180.74333333333334	180.9639455782313	93	127
180.97555555555556	181.0916553287982	90	127
181.1032426303855	181.34707482993198	69	127
181.1032426303855	181.34707482993198	66	127
181.1032426303855	181.34707482993198	47	127
181.34707482993198	181.55605442176872	90	127
181.34707482993198	181.55605442176872	71	127
181.34707482993198	181.55605442176872	59	127
181.34707482993198	181.55605442176872	51	127
181.55605442176872	181.7534240362812	91	127
181.55605442176872	181.7534240362812	52	127
181.7534240362812	181.96240362811793	88	127
181.7534240362812	181.96240362811793	55	127
181.96240362811793	182.1829931972789	59	127
182.19460317460317	182.39197278911564	88	127
182.19460317460317	182.39197278911564	64	127
182.4035827664399	182.61256235827665	52	127
182.4035827664399	182.61256235827665	55	127
182.62417233560092	182.8447619047619	55	127
182.62417233560092	182.8447619047619	59	127
182.8447619047619	183.0653514739229	79	127
182.8447619047619	183.0653514739229	83	127
182.8447619047619	183.0653514739229	59	127
182.8447619047619	183.0653514739229	64	127
183.0653514739229	183.2859410430839	79	127
183.0653514739229	183.2859410430839	76	127
183.0653514739229	183.2859410430839	64	127
183.0653514739229	183.2859410430839	67	127
183.2859410430839	183.552947845805	63	127
183.2859410430839	183.552947845805	66	127
183.552947845805	183.77356009070294	66	127
183.552947845805	183.77356009070294	69	127
183.7851700680272	183.98253968253968	83	127
183.7851700680272	183.98253968253968	78	127
183.99414965986395	184.19151927437642	78	127
183.99414965986395	184.19151927437642	75	127
183.99414965986395	184.19151927437642	66	127
183.99414965986395	184.19151927437642	69	127
184.2031292517007	184.42369614512472	64	127
184.2031292517007	184.42369614512472	67	127
184.42369614512472	184.69074829931972	67	127
184.42369614512472	184.69074829931972	71	127
184.69074829931972	184.89972789115646	83	127
184.69074829931972	184.89972789115646	79	127
184.89972789115646	185.12031746031747	79	127
184.89972789115646	185.12031746031747	76	127
184.89972789115646	185.12031746031747	67	127
184.89972789115646	185.12031746031747	71	127
185.12031746031747	185.3408843537415	65	127
185.12031746031747	185.3408843537415	69	127
185.3525170068027	185.56149659863945	69	127
185.3525170068027	185.56149659863945	72	127
185.57310657596372	185.78208616780046	81	127
185.57310657596372	185.78208616780046	77	127
185.79369614512473	186.0142857142857	77	127
185.79369614512473	186.0142857142857	72	127
185.79369614512473	186.0142857142857	69	127
185.79369614512473	186.0142857142857	72	127
186.0142857142857	186.24648526077098	57	127
186.0142857142857	186.24648526077098	60	127
186.24648526077098	186.46705215419502	65	127
186.24648526077098	186.46705215419502	60	127
186.46705215419502	186.64122448979592	84	127
186.46705215419502	186.64122448979592	81	127
186.46705215419502	186.64122448979592	65	127
186.46705215419502	186.64122448979592	69	127
186.64122448979592	186.82696145124717	81	127
186.64122448979592	186.82696145124717	77	127
186.64122448979592	186.82696145124717	69	127
186.64122448979592	186.82696145124717	72	127
186.82696145124717	187.0243537414966	67	127
186.82696145124717	187.0243537414966	71	127
187.03596371882085	187.26816326530613	64	127
187.03596371882085	187.26816326530613	67	127
187.2797732426304	187.48873015873016	79	127
187.2797732426304	187.48873015873016	76	127
187.48873015873016	187.7093424036281	83	127
187.48873015873016	187.7093424036281	79	127
187.48873015873016	187.7093424036281	64	127
187.48873015873016	187.7093424036281	67	127
187.7093424036281	187.92993197278912	66	127
187.7093424036281	187.92993197278912	69	127
187.92993197278912	188.13891156462586	59	127
187.92993197278912	188.13891156462586	66	127
188.13891156462586	188.3478911564626	78	127
188.13891156462586	188.3478911564626	75	127
188.3594784580499	188.55687074829933	83	127
188.3594784580499	188.55687074829933	78	127
188.3594784580499	188.55687074829933	59	127
188.3594784580499	188.55687074829933	66	127
188.56848072562357	188.7774603174603	76	127
188.56848072562357	188.7774603174603	64	127
188.56848072562357	188.7774603174603	67	127
188.78907029478458	188.98643990929705	79	127
188.78907029478458	188.98643990929705	64	127
188.98643990929705	190.2519274376417	48	127
188.98643990929705	190.2519274376417	60	127
188.98643990929705	189.17219954648527	82	127
189.17219954648527	189.39278911564625	88	127
189.39278911564625	190.2519274376417	45	127
189.39278911564625	190.2519274376417	89	127
189.39278911564625	189.62498866213153	72	127
189.62498866213153	189.83396825396827	77	127
189.8455782312925	190.042947845805	81	127
190.05455782312924	190.2519274376417	84	127
190.26353741496598	190.484126984127	82	127
190.26353741496598	191.12267573696144	88	127
190.26353741496598	191.12267573696144	43	127
190.26353741496598	191.12267573696144	48	127
190.26353741496598	191.12267573696144	60	127
190.484126984127	190.704716553288	79	127
190.90208616780046	191.12267573696144	79	127
191.12267573696144	192.0166439909297	89	127
191.12267573696144	192.0166439909297	48	127
191.12267573696144	191.35487528344672	81	127
191.12267573696144	192.0166439909297	60	127
191.12267573696144	192.0166439909297	41	127
191.35487528344672	191.58707482993196	77	127
191.81927437641724	192.0166439909297	77	127
192.0166439909297	192.82934240362812	48	127
192.0166439909297	192.21401360544218	79	127
192.0166439909297	192.82934240362812	88	127
192.0166439909297	192.82934240362812	60	127
192.0166439909297	192.82934240362812	36	127
192.21401360544218	192.38816326530613	72	127
192.57392290249433	192.82934240362812	72	127
192.82934240362812	193.04993197278912	48	127
192.82934240362812	193.04993197278912	45	127
193.06154195011337	193.25891156462586	53	127
193.06154195011337	193.25891156462586	48	127
193.2705215419501	193.4678911564626	53	127
193.2705215419501	193.4678911564626	72	127
193.2705215419501	193.4678911564626	69	127
193.2705215419501	193.4678911564626	57	127
193.47950113378684	193.68848072562358	69	127
193.47950113378684	193.68848072562358	65	127
193.47950113378684	193.68848072562358	60	127
193.47950113378684	193.68848072562358	57	127
193.68848072562358	193.9322902494331	59	127
193.68848072562358	193.9322902494331	55	127
193.9322902494331	194.16448979591837	55	127
193.9322902494331	194.16448979591837	52	127
194.16448979591837	194.38507936507938	67	127
194.16448979591837	194.38507936507938	64	127
194.38507936507938	194.60566893424036	71	127
194.38507936507938	194.60566893424036	67	127
194.38507936507938	194.60566893424036	55	127
194.38507936507938	194.60566893424036	52	127
194.60566893424036	194.8146485260771	57	127
194.60566893424036	194.8146485260771	54	127
194.8146485260771	195.0352380952381	54	127
194.8146485260771	195.0352380952381	47	127
195.04684807256237	195.26743764172335	66	127
195.04684807256237	195.26743764172335	63	127
195.27904761904762	195.47641723356008	71	127
195.27904761904762	195.47641723356008	63	127
195.27904761904762	195.47641723356008	54	127
195.27904761904762	195.47641723356008	47	127
195.47641723356008	195.70861678004536	64	127
195.47641723356008	195.70861678004536	55	127
195.47641723356008	195.70861678004536	52	127
195.70861678004536	195.9408163265306	67	127
195.9408163265306	196.1265759637188	70	127
195.9408163265306	197.25274376417232	48	127
195.9408163265306	197.25274376417232	60	127
196.1265759637188	196.35877551020408	76	127
196.37038548752835	197.25274376417232	45	127
196.37038548752835	196.5793650793651	72	127
196.37038548752835	197.25274376417232	72	127
196.37038548752835	197.25274376417232	77	127
196.59097505668933	196.79995464852607	77	127
196.81156462585034	197.03215419501134	81	127
197.03215419501134	197.25274376417232	84	127
197.25274376417232	197.47333333333333	82	127
197.25274376417232	198.13510204081632	43	127
197.25274376417232	198.13510204081632	76	127
197.25274376417232	198.13510204081632	48	127
197.25274376417232	198.13510204081632	70	127
197.25274376417232	198.13510204081632	60	127
197.47333333333333	197.68231292517007	79	127
197.92612244897958	198.13510204081632	79	127
198.1467120181406	199.01746031746032	69	127
198.1467120181406	198.35569160997733	81	127
198.1467120181406	199.01746031746032	77	127
198.1467120181406	199.01746031746032	48	127
198.1467120181406	199.01746031746032	60	127
198.1467120181406	199.01746031746032	41	127
198.3673015873016	198.59950113378684	77	127
198.82009070294785	199.01746031746032	77	127
199.01746031746032	199.88820861678005	36	127
199.01746031746032	199.22643990929706	79	127
199.01746031746032	199.88820861678005	67	127
199.01746031746032	199.88820861678005	76	127
199.01746031746032	199.88820861678005	48	127
199.01746031746032	199.88820861678005	60	127
199.22643990929706	199.41219954648525	72	127
199.63278911564626	199.88820861678005	72	127
199.88820861678005	200.09718820861679	48	127
199.88820861678005	200.09718820861679	45	127
200.10879818594105	200.29455782312925	53	127
200.10879818594105	200.29455782312925	48	127
200.30616780045352	200.48031746031745	57	127
200.30616780045352	200.48031746031745	84	127
200.30616780045352	200.48031746031745	81	127
200.30616780045352	200.48031746031745	53	127
200.49192743764172	200.70090702947846	77	127
200.49192743764172	200.70090702947846	81	127
200.49192743764172	200.70090702947846	60	127
200.49192743764172	200.70090702947846	57	127
200.70090702947846	200.94471655328798	59	127
200.70090702947846	200.94471655328798	55	127
200.94471655328798	201.17691609977325	55	127
200.94471655328798	201.17691609977325	52	127
201.17691609977325	201.36267573696145	79	127
201.17691609977325	201.36267573696145	76	127
201.36267573696145	201.58326530612246	83	127
201.36267573696145	201.58326530612246	79	127
201.36267573696145	201.58326530612246	55	127
201.36267573696145	201.58326530612246	52	127
201.58326530612246	201.7922448979592	57	127
201.58326530612246	201.7922448979592	54	127
201.80385487528343	201.98961451247166	54	127
201.80385487528343	201.98961451247166	47	127
202.00122448979593	202.18698412698413	78	127
202.00122448979593	202.18698412698413	75	127
202.1985941043084	202.41918367346938	78	127
202.1985941043084	202.41918367346938	87	127
202.1985941043084	202.41918367346938	54	127
202.1985941043084	202.41918367346938	47	127
202.43079365079365	203.2667120181406	40	127
202.43079365079365	202.61655328798187	76	127
202.43079365079365	203.03451247165532	88	127
202.43079365079365	202.61655328798187	55	127
202.6281632653061	202.73265306122448	55	127
202.6281632653061	202.73265306122448	64	127
202.73265306122448	202.81392290249434	66	127
202.73265306122448	202.81392290249434	57	127
202.82553287981858	203.2667120181406	67	127
202.82553287981858	203.2667120181406	59	127
203.03451247165532	203.1390022675737	90	127
203.15061224489796	203.2667120181406	88	127
203.2667120181406	203.96331065759637	87	127
203.2667120181406	203.53374149659865	69	127
203.2667120181406	203.53374149659865	60	127
203.2667120181406	204.18390022675737	40	127
203.53374149659865	203.62662131519275	66	127
203.53374149659865	203.62662131519275	57	127
203.63823129251702	203.7427210884354	67	127
203.63823129251702	203.7427210884354	59	127
203.7427210884354	203.96331065759637	60	127
203.7427210884354	203.96331065759637	69	127
203.96331065759637	204.079410430839	67	127
203.96331065759637	204.079410430839	59	127
203.96331065759637	204.079410430839	88	127
204.079410430839	204.18390022675737	66	127
204.079410430839	204.18390022675737	57	127
204.079410430839	204.18390022675737	90	127
204.19551020408164	204.40448979591838	64	127
204.19551020408164	204.40448979591838	55	127
204.19551020408164	204.84566893424036	88	127
204.19551020408164	205.06625850340137	40	127
204.41609977324262	204.520589569161	64	127
204.41609977324262	204.520589569161	55	127
204.520589569161	204.63668934240363	66	127
204.520589569161	204.63668934240363	57	127
204.63668934240363	204.741179138322	59	127
204.63668934240363	204.741179138322	67	127
204.741179138322	204.84566893424036	64	127
204.741179138322	204.84566893424036	55	127
204.84566893424036	204.95015873015873	66	127
204.84566893424036	204.95015873015873	90	127
204.84566893424036	204.95015873015873	57	127
204.961768707483	205.06625850340137	67	127
204.961768707483	205.06625850340137	59	127
204.961768707483	205.06625850340137	88	127
205.06625850340137	205.92539682539683	40	127
205.06625850340137	205.72802721088436	69	127
205.06625850340137	205.72802721088436	60	127
205.06625850340137	205.15913832199547	87	127
205.17074829931974	205.28684807256235	88	127
205.28684807256235	205.402947845805	90	127
205.402947845805	205.50743764172336	88	127
205.50743764172336	205.623537414966	87	127
205.623537414966	205.72802721088436	90	127
205.7396371882086	205.83251700680273	88	127
205.7396371882086	205.83251700680273	59	127
205.7396371882086	205.83251700680273	67	127
205.83251700680273	205.92539682539683	66	127
205.83251700680273	205.92539682539683	87	127
205.83251700680273	205.92539682539683	57	127
205.9370068027211	206.15759637188208	88	127
205.9370068027211	206.15759637188208	64	127
205.9370068027211	206.15759637188208	55	127
205.9370068027211	206.15759637188208	40	127
206.15759637188208	206.26208616780045	76	127
206.26208616780045	206.37818594104309	78	127
206.37818594104309	206.5291156462585	79	127
206.5291156462585	206.66843537414965	79	127
206.66843537414965	206.7845351473923	76	127
206.7845351473923	206.88902494331066	78	127
206.90063492063493	207.0980045351474	79	127
207.10961451247167	207.21410430839003	64	127
207.21410430839003	207.3185941043084	66	127
207.33020408163264	207.53918367346938	67	127
207.53918367346938	207.64367346938775	64	127
207.65528344671202	207.74816326530612	66	127
207.74816326530612	207.8526530612245	67	127
207.96875283446713	208.0732426303855	52	127
208.08485260770976	208.1661224489796	54	127
208.1661224489796	208.27061224489796	55	127
208.36349206349206	208.46798185941043	52	127
208.46798185941043	208.5724716553288	54	127
208.58408163265307	208.68857142857144	55	127
208.80467120181405	208.9091609977324	64	127
208.9091609977324	209.02526077097505	66	127
209.02526077097505	209.12975056689342	67	127
209.24585034013606	209.33873015873016	76	127
209.35034013605443	209.4548299319728	78	127
209.4548299319728	209.55931972789116	79	127
209.67541950113377	209.6986394557823	76	127
209.6986394557823	209.7915192743764	79	127
209.89600907029478	210.00049886621315	76	127
210.00049886621315	210.09337868480725	77	127
210.10498866213152	210.2094784580499	79	127
210.32557823129252	210.4300680272109	76	127
210.44167800453513	210.5461678004535	77	127
210.5461678004535	210.62743764172336	79	127
210.7087074829932	210.81319727891156	64	127
210.82480725623583	210.89446712018142	65	127
210.89446712018142	211.01056689342403	67	127
211.12666666666667	211.23115646258503	52	127
211.23115646258503	211.3356462585034	53	127
211.34725623582767	211.44013605442177	55	127
211.53301587301587	211.61428571428573	52	127
211.61428571428573	211.71877551020407	53	127
211.71877551020407	211.82326530612244	55	127
211.93936507936507	212.04385487528344	50	127
212.0554648526077	212.20639455782313	52	127
212.20639455782313	212.29927437641723	53	127
212.3805442176871	212.48503401360543	62	127
212.48503401360543	212.5314739229025	64	127
212.54308390022675	212.64757369614512	65	127
212.76367346938775	212.84494331065758	62	127
212.84494331065758	212.9029931972789	64	127
212.91460317460317	213.01909297052154	65	127
213.13519274376418	213.23968253968255	74	127
213.2512925170068	213.34417233560092	76	127
213.34417233560092	213.43705215419502	77	127
213.52993197278911	213.6228117913832	47	127
213.63442176870748	213.72730158730158	48	127
213.72730158730158	213.84340136054422	50	127
213.95950113378686	214.0407709750567	59	127
214.0407709750567	214.08721088435374	60	127
214.098820861678	214.20331065759638	62	127
214.319410430839	214.42390022675738	59	127
214.42390022675738	214.52839002267575	60	127
214.52839002267575	214.6328798185941	62	127
214.74897959183673	214.8302494331066	71	127
214.8302494331066	214.84185941043083	72	127
214.84185941043083	214.9463492063492	74	127
215.0740589569161	215.17854875283447	43	127
215.17854875283447	215.27142857142857	45	127
215.28303854875284	215.36430839002267	47	127
215.4804081632653	215.5732879818594	55	127
215.5732879818594	215.642947845805	57	127
215.65455782312924	215.74743764172337	59	127
215.85192743764173	215.9564172335601	45	127
215.96802721088434	216.06090702947847	47	127
216.06090702947847	216.17700680272108	48	127
216.29310657596372	216.3975963718821	57	127
216.40920634920636	216.4904761904762	59	127
216.4904761904762	216.5833560090703	60	127
216.65301587301587	216.7691156462585	47	127
216.7691156462585	216.87360544217688	48	127
216.88521541950112	216.9897052154195	50	127
217.10580498866213	217.18707482993196	59	127
217.18707482993196	217.2799546485261	60	127
217.2799546485261	217.37283446712019	62	127
217.47732426303855	217.57020408163265	48	127
217.58181405895692	217.6863038548753	50	127
217.6863038548753	217.8024036281179	52	127
217.9301133786848	218.0229931972789	60	127
218.0229931972789	218.10426303854877	62	127
218.10426303854877	218.20875283446713	64	127
218.32485260770974	218.41773242630384	50	127
218.41773242630384	218.54544217687075	52	127
218.55705215419502	218.63832199546485	53	127
218.74281179138322	218.80086167800454	62	127
218.80086167800454	218.89374149659864	64	127
218.89374149659864	218.998231292517	65	127
219.11433106575964	219.218820861678	38	127
219.23043083900228	219.33492063492062	40	127
219.33492063492062	219.4045804988662	41	127
219.52068027210885	219.6367800453515	50	127
219.6367800453515	219.72965986394559	52	127
219.74126984126985	219.8457596371882	54	127
219.96185941043083	220.03151927437642	38	127
220.03151927437642	220.12439909297052	40	127
220.1360090702948	220.24049886621316	41	127
220.35659863945577	220.43786848072563	50	127
220.43786848072563	220.49591836734695	52	127
220.49591836734695	220.58879818594104	54	127
220.70489795918368	220.79777777777778	38	127
220.80938775510205	220.91387755102042	40	127
220.91387755102042	221.05319727891157	41	127
221.1692970521542	221.19251700680272	62	127
221.1692970521542	221.19251700680272	50	127
221.19251700680272	221.28539682539682	64	127
221.19251700680272	221.28539682539682	52	127
221.29700680272109	221.40149659863945	65	127
221.29700680272109	221.40149659863945	53	127
221.5175963718821	221.62208616780046	38	127
221.62208616780046	221.72657596371883	40	127
221.72657596371883	221.78462585034015	53	127
221.72657596371883	221.78462585034015	42	127
221.90072562358276	221.99360544217686	62	127
221.90072562358276	221.99360544217686	50	127
221.90072562358276	221.99360544217686	38	127
222.00521541950113	222.09809523809523	64	127
222.00521541950113	222.09809523809523	52	127
222.00521541950113	222.09809523809523	40	127
222.09809523809523	222.2025850340136	65	127
222.09809523809523	222.2025850340136	53	127
222.09809523809523	222.2025850340136	41	127
222.31868480725623	222.43478458049887	38	127
222.31868480725623	222.43478458049887	74	127
222.31868480725623	222.43478458049887	62	127
222.31868480725623	222.43478458049887	50	127
222.43478458049887	222.53927437641724	64	127
222.43478458049887	222.53927437641724	76	127
222.43478458049887	222.53927437641724	52	127
222.43478458049887	222.53927437641724	40	127
222.5508843537415	222.65537414965988	77	127
222.5508843537415	222.65537414965988	65	127
222.5508843537415	222.65537414965988	53	127
222.5508843537415	222.65537414965988	41	127
222.7714739229025	222.8643537414966	86	127
222.7714739229025	222.8643537414966	74	127
222.7714739229025	222.8643537414966	50	127
222.7714739229025	222.8643537414966	38	127
222.8643537414966	222.96884353741495	88	127
222.8643537414966	222.96884353741495	76	127
222.8643537414966	222.96884353741495	52	127
222.8643537414966	222.96884353741495	40	127
222.98045351473922	223.03850340136054	89	127
222.98045351473922	223.03850340136054	77	127
222.98045351473922	223.03850340136054	53	127
222.98045351473922	223.03850340136054	41	127
223.11977324263037	223.2126530612245	86	127
223.11977324263037	223.2126530612245	74	127
223.11977324263037	223.2126530612245	50	127
223.11977324263037	223.2126530612245	38	127
223.22426303854874	223.31714285714287	88	127
223.22426303854874	223.31714285714287	76	127
223.22426303854874	223.31714285714287	52	127
223.22426303854874	223.31714285714287	40	127
223.31714285714287	223.38680272108843	89	127
223.31714285714287	223.38680272108843	77	127
223.31714285714287	223.38680272108843	53	127
223.31714285714287	223.38680272108843	41	127
223.4912925170068	223.5609523809524	50	127
223.4912925170068	223.5609523809524	38	127
223.57256235827666	223.67705215419502	52	127
223.57256235827666	223.67705215419502	40	127
223.67705215419502	223.81637188208617	53	127
223.67705215419502	223.81637188208617	41	127
223.9324716553288	224.04857142857142	50	127
223.9324716553288	224.04857142857142	38	127
224.04857142857142	224.17628117913833	52	127
224.04857142857142	224.17628117913833	40	127
224.1878911564626	224.29238095238094	53	127
224.1878911564626	224.29238095238094	41	127
224.3039909297052	224.40848072562358	50	127
224.3039909297052	224.40848072562358	38	127
224.40848072562358	224.50136054421768	52	127
224.40848072562358	224.50136054421768	40	127
224.51297052154194	224.60585034013604	53	127
224.51297052154194	224.60585034013604	41	127
224.60585034013604	224.7103401360544	55	127
224.60585034013604	224.7103401360544	43	127
224.7103401360544	224.81482993197278	55	127
224.7103401360544	224.81482993197278	53	127
224.7103401360544	224.81482993197278	41	127
224.81482993197278	224.91931972789115	57	127
224.81482993197278	224.91931972789115	52	127
224.81482993197278	224.91931972789115	40	127
224.93092970521542	225.01219954648525	59	127
224.93092970521542	225.01219954648525	50	127
224.93092970521542	225.01219954648525	38	127
225.01219954648525	225.11668934240362	55	127
225.01219954648525	225.11668934240362	52	127
225.01219954648525	225.11668934240362	36	127
225.01219954648525	225.5694784580499	60	127
225.29083900226757	225.38371882086167	52	127
225.29083900226757	225.38371882086167	48	127
225.29083900226757	225.38371882086167	55	127
225.39532879818594	225.46498866213153	52	127
225.39532879818594	225.46498866213153	48	127
225.39532879818594	225.46498866213153	55	127
225.5694784580499	225.65074829931973	84	127
225.65074829931973	225.76684807256237	86	127
225.65074829931973	225.76684807256237	55	127
225.65074829931973	225.76684807256237	52	127
225.65074829931973	225.76684807256237	48	127
225.76684807256237	225.87133786848074	88	127
225.76684807256237	225.87133786848074	55	127
225.76684807256237	225.87133786848074	52	127
225.76684807256237	225.87133786848074	48	127
226.10353741496598	226.20802721088435	55	127
226.10353741496598	226.20802721088435	86	127
226.10353741496598	226.20802721088435	52	127
226.10353741496598	226.20802721088435	48	127
226.20802721088435	226.3473469387755	57	127
226.20802721088435	226.3473469387755	84	127
226.20802721088435	226.3473469387755	53	127
226.20802721088435	226.3473469387755	48	127
226.55632653061224	226.6608163265306	81	127
226.55632653061224	226.6608163265306	59	127
226.55632653061224	226.6608163265306	53	127
226.55632653061224	226.6608163265306	48	127
226.67242630385488	226.77691609977325	52	127
226.67242630385488	226.77691609977325	60	127
226.67242630385488	226.77691609977325	48	127
226.67242630385488	227.17165532879818	79	127
226.85818594104308	226.93945578231293	64	127
226.85818594104308	226.93945578231293	60	127
226.85818594104308	226.93945578231293	67	127
226.95106575963717	227.05555555555554	64	127
226.95106575963717	227.05555555555554	67	127
226.95106575963717	227.05555555555554	60	127
227.17165532879818	227.2297052154195	84	127
227.24131519274377	227.34580498866214	86	127
227.24131519274377	227.34580498866214	67	127
227.24131519274377	227.34580498866214	64	127
227.24131519274377	227.34580498866214	60	127
227.34580498866214	227.4502947845805	88	127
227.34580498866214	227.4502947845805	67	127
227.34580498866214	227.4502947845805	64	127
227.34580498866214	227.4502947845805	60	127
227.46190476190475	227.5431746031746	86	127
227.56639455782312	227.58961451247166	84	127
227.60122448979592	227.64766439909297	83	127
227.60122448979592	227.65927437641724	67	127
227.60122448979592	227.65927437641724	64	127
227.60122448979592	227.65927437641724	60	127
227.65927437641724	227.77537414965985	86	127
227.65927437641724	227.77537414965985	69	127
227.65927437641724	227.77537414965985	65	127
227.65927437641724	227.77537414965985	60	127
227.77537414965985	227.84503401360544	84	127
227.87986394557822	227.9495238095238	83	127
227.9843537414966	228.06562358276645	81	127
227.9843537414966	228.08884353741496	71	127
227.9843537414966	228.08884353741496	65	127
227.9843537414966	228.08884353741496	60	127
228.10045351473923	228.2049433106576	72	127
228.10045351473923	228.2049433106576	64	127
228.10045351473923	228.2049433106576	60	127
228.10045351473923	228.5416326530612	79	127
228.33265306122448	228.44875283446711	64	127
228.33265306122448	228.44875283446711	60	127
228.33265306122448	228.44875283446711	67	127
228.44875283446711	228.5416326530612	64	127
228.44875283446711	228.5416326530612	60	127
228.44875283446711	228.5416326530612	67	127
228.5416326530612	228.62290249433107	77	127
228.5416326530612	228.64612244897958	67	127
228.5416326530612	228.64612244897958	64	127
228.5416326530612	228.64612244897958	60	127
228.64612244897958	228.75061224489795	76	127
228.64612244897958	228.75061224489795	67	127
228.64612244897958	228.75061224489795	64	127
228.64612244897958	228.75061224489795	60	127
228.98281179138323	229.0873015873016	74	127
228.98281179138323	229.0873015873016	67	127
228.98281179138323	229.0873015873016	64	127
228.98281179138323	229.0873015873016	60	127
229.09891156462584	229.2034013605442	72	127
229.09891156462584	229.2034013605442	67	127
229.09891156462584	229.2034013605442	64	127
229.09891156462584	229.2034013605442	60	127
229.4239909297052	229.52848072562358	71	127
229.4239909297052	229.52848072562358	67	127
229.4239909297052	229.52848072562358	64	127
229.4239909297052	229.52848072562358	60	127
229.54009070294785	229.64458049886622	71	127
229.54009070294785	229.64458049886622	67	127
229.54009070294785	229.64458049886622	64	127
229.54009070294785	229.64458049886622	60	127
229.64458049886622	229.76068027210886	69	127
229.76068027210886	229.8651700680272	67	127
229.87678004535147	229.96965986394557	60	127
229.87678004535147	229.96965986394557	69	127
229.87678004535147	229.96965986394557	67	127
229.87678004535147	229.96965986394557	64	127
229.96965986394557	230.07414965986393	64	127
229.96965986394557	230.07414965986393	67	127
229.96965986394557	230.07414965986393	59	127
229.96965986394557	230.50371882086168	71	127
230.2134693877551	230.31795918367348	64	127
230.2134693877551	230.31795918367348	59	127
230.2134693877551	230.31795918367348	67	127
230.31795918367348	230.41083900226758	69	127
230.31795918367348	230.41083900226758	66	127
230.31795918367348	230.41083900226758	59	127
230.51532879818595	230.55015873015873	73	127
230.55015873015873	230.6546485260771	75	127
230.55015873015873	230.6546485260771	69	127
230.55015873015873	230.6546485260771	66	127
230.55015873015873	230.6546485260771	59	127
230.66625850340137	230.77074829931973	69	127
230.66625850340137	230.77074829931973	66	127
230.66625850340137	230.77074829931973	59	127
230.66625850340137	230.8752380952381	76	127
230.88684807256234	230.9681179138322	78	127
230.9681179138322	231.07260770975057	75	127
230.9681179138322	231.07260770975057	69	127
230.9681179138322	231.07260770975057	66	127
230.9681179138322	231.07260770975057	59	127
231.07260770975057	231.1887074829932	76	127
231.07260770975057	231.1887074829932	67	127
231.07260770975057	231.1887074829932	64	127
231.07260770975057	231.1887074829932	52	127
231.30480725623582	231.4092970521542	76	127
231.42090702947846	231.47895691609978	77	127
231.42090702947846	231.47895691609978	55	127
231.42090702947846	231.47895691609978	67	127
231.42090702947846	231.47895691609978	55	127
231.42090702947846	231.47895691609978	52	127
231.49056689342405	231.58344671201814	79	127
231.49056689342405	231.58344671201814	55	127
231.49056689342405	231.58344671201814	67	127
231.49056689342405	231.58344671201814	53	127
231.49056689342405	231.58344671201814	50	127
231.6879365079365	231.69954648526078	81	127
231.69954648526078	231.8156462585034	55	127
231.69954648526078	231.8156462585034	83	127
231.69954648526078	231.8156462585034	67	127
231.69954648526078	231.8156462585034	53	127
231.69954648526078	231.8156462585034	50	127
231.82725623582766	231.93174603174603	67	127
231.82725623582766	232.39614512471655	84	127
231.82725623582766	231.93174603174603	52	127
231.82725623582766	231.93174603174603	48	127
231.82725623582766	231.93174603174603	55	127
231.93174603174603	232.04784580498867	64	127
232.04784580498867	232.07106575963718	66	127
232.07106575963718	232.17555555555555	67	127
232.07106575963718	232.17555555555555	52	127
232.07106575963718	232.17555555555555	48	127
232.17555555555555	232.28004535147392	52	127
232.17555555555555	232.28004535147392	48	127
232.39614512471655	232.50063492063492	84	127
232.39614512471655	232.50063492063492	69	127
232.5122448979592	232.61673469387756	86	127
232.5122448979592	232.61673469387756	71	127
232.5122448979592	232.61673469387756	52	127
232.5122448979592	232.61673469387756	48	127
232.61673469387756	232.70961451247166	88	127
232.61673469387756	232.70961451247166	52	127
232.61673469387756	232.70961451247166	48	127
232.61673469387756	233.24367346938774	72	127
232.93020408163267	233.034693877551	52	127
232.93020408163267	233.034693877551	48	127
232.93020408163267	233.034693877551	86	127
233.04630385487528	233.13918367346938	53	127
233.04630385487528	233.13918367346938	48	127
233.04630385487528	233.13918367346938	84	127
233.255283446712	233.33655328798187	72	127
233.33655328798187	233.42943310657597	81	127
233.33655328798187	233.42943310657597	74	127
233.33655328798187	233.42943310657597	53	127
233.33655328798187	233.42943310657597	48	127
233.42943310657597	233.49909297052153	76	127
233.42943310657597	233.49909297052153	52	127
233.42943310657597	233.49909297052153	48	127
233.42943310657597	234.05637188208615	79	127
233.7312925170068	233.83578231292518	74	127
233.7312925170068	233.83578231292518	52	127
233.7312925170068	233.83578231292518	48	127
233.83578231292518	233.94027210884354	72	127
233.83578231292518	233.94027210884354	52	127
233.83578231292518	233.94027210884354	48	127
234.05637188208615	234.10281179138323	84	127
234.10281179138323	234.19569160997733	86	127
234.10281179138323	234.19569160997733	69	127
234.10281179138323	234.19569160997733	52	127
234.10281179138323	234.19569160997733	48	127
234.19569160997733	234.76458049886622	67	127
234.19569160997733	234.3001814058957	88	127
234.19569160997733	234.3001814058957	52	127
234.19569160997733	234.3001814058957	48	127
234.3001814058957	234.38145124716553	86	127
234.4162811791383	234.45111111111112	84	127
234.4859410430839	234.56721088435373	48	127
234.4859410430839	234.56721088435373	83	127
234.4859410430839	234.56721088435373	52	127
234.578820861678	234.68331065759637	48	127
234.578820861678	234.68331065759637	53	127
234.578820861678	234.68331065759637	86	127
234.68331065759637	234.76458049886622	84	127
234.76458049886622	234.82263038548754	83	127
234.76458049886622	234.84585034013605	72	127
234.84585034013605	234.95034013605442	74	127
234.84585034013605	234.91551020408164	81	127
234.84585034013605	234.95034013605442	53	127
234.84585034013605	234.95034013605442	48	127
234.95034013605442	235.02	76	127
234.95034013605442	235.02	52	127
234.95034013605442	235.02	48	127
234.95034013605442	235.50761904761904	79	127
235.03160997732425	235.10126984126984	74	127
235.1128798185941	235.15931972789116	72	127
235.19414965986394	235.2986394557823	48	127
235.19414965986394	235.2754195011338	71	127
235.19414965986394	235.2986394557823	52	127
235.2986394557823	235.40312925170068	52	127
235.2986394557823	235.40312925170068	74	127
235.2986394557823	235.40312925170068	48	127
235.41473922902495	235.49600907029478	72	127
235.50761904761904	235.5888888888889	71	127
235.62371882086168	235.69337868480724	69	127
235.62371882086168	235.69337868480724	77	127
235.62371882086168	235.71659863945578	53	127
235.62371882086168	235.71659863945578	48	127
235.72820861678005	235.83269841269842	76	127
235.72820861678005	235.83269841269842	67	127
235.72820861678005	235.83269841269842	55	127
235.72820861678005	235.83269841269842	48	127
235.97201814058957	236.0532879818594	74	127
235.97201814058957	236.0532879818594	65	127
235.97201814058957	236.0532879818594	59	127
235.97201814058957	236.0532879818594	48	127
236.06489795918367	236.13455782312926	60	127
236.06489795918367	236.13455782312926	72	127
236.06489795918367	236.13455782312926	64	127
236.06489795918367	236.13455782312926	48	127
236.343537414966	236.42480725623582	71	127
236.343537414966	236.42480725623582	64	127
236.343537414966	236.42480725623582	52	127
236.343537414966	236.42480725623582	48	127
236.42480725623582	236.5292970521542	71	127
236.42480725623582	236.5292970521542	64	127
236.42480725623582	236.5292970521542	52	127
236.42480725623582	236.5292970521542	48	127
236.54090702947846	236.64539682539683	69	127
236.64539682539683	236.7150566893424	67	127
236.72666666666666	236.81954648526076	69	127
236.72666666666666	236.81954648526076	64	127
236.72666666666666	236.81954648526076	52	127
236.72666666666666	236.81954648526076	48	127
236.81954648526076	236.92403628117913	54	127
236.81954648526076	236.92403628117913	47	127
236.81954648526076	237.44648526077097	71	127
236.81954648526076	236.92403628117913	63	127
237.10979591836735	237.21428571428572	63	127
237.10979591836735	237.21428571428572	54	127
237.10979591836735	237.21428571428572	47	127
237.22589569160996	237.3419954648526	47	127
237.22589569160996	237.3419954648526	63	127
237.22589569160996	237.3419954648526	54	127
237.45809523809524	237.53936507936507	69	127
237.53936507936507	237.5974149659864	54	127
237.53936507936507	237.5974149659864	63	127
237.53936507936507	237.5974149659864	47	127
237.53936507936507	237.5974149659864	71	127
237.5974149659864	237.70190476190476	63	127
237.5974149659864	237.70190476190476	54	127
237.5974149659864	237.70190476190476	45	127
237.5974149659864	238.16630385487528	72	127
237.88766439909298	237.9689342403628	63	127
237.88766439909298	237.9689342403628	54	127
237.88766439909298	237.9689342403628	45	127
237.9689342403628	238.0618140589569	54	127
237.9689342403628	238.0618140589569	45	127
237.9689342403628	238.0618140589569	63	127
238.16630385487528	238.27079365079365	71	127
238.27079365079365	238.36367346938775	45	127
238.27079365079365	238.36367346938775	75	127
238.27079365079365	238.36367346938775	59	127
238.27079365079365	238.36367346938775	54	127
238.37528344671202	238.4797732426304	76	127
238.37528344671202	238.4797732426304	59	127
238.37528344671202	238.4797732426304	55	127
238.37528344671202	238.4797732426304	43	127
238.59587301587302	238.65392290249434	71	127
238.66553287981858	238.7584126984127	76	127
238.66553287981858	238.7584126984127	59	127
238.66553287981858	238.7584126984127	55	127
238.66553287981858	238.7584126984127	43	127
238.7584126984127	238.86290249433105	78	127
238.7584126984127	238.86290249433105	63	127
238.7584126984127	238.86290249433105	57	127
238.7584126984127	238.86290249433105	54	127
238.9790022675737	239.06027210884355	71	127
239.06027210884355	239.16476190476192	78	127
239.06027210884355	239.16476190476192	63	127
239.06027210884355	239.16476190476192	57	127
239.06027210884355	239.16476190476192	54	127
239.16476190476192	239.2692517006803	64	127
239.16476190476192	239.2692517006803	79	127
239.16476190476192	239.2692517006803	59	127
239.16476190476192	239.2692517006803	52	127
239.3853514739229	239.46662131519275	76	127
239.478231292517	239.58272108843536	79	127
239.478231292517	239.58272108843536	64	127
239.478231292517	239.58272108843536	59	127
239.478231292517	239.58272108843536	52	127
239.58272108843536	239.68721088435373	81	127
239.58272108843536	239.68721088435373	64	127
239.58272108843536	239.68721088435373	60	127
239.58272108843536	239.68721088435373	48	127
239.80331065759637	239.84975056689342	76	127
239.84975056689342	239.9542403628118	81	127
239.84975056689342	239.9542403628118	64	127
239.84975056689342	239.9542403628118	60	127
239.84975056689342	239.9542403628118	48	127
239.9542403628118	240.02390022675738	83	127
239.9542403628118	240.02390022675738	68	127
239.9542403628118	240.02390022675738	62	127
239.9542403628118	240.02390022675738	47	127
240.11678004535148	240.22126984126984	76	127
240.22126984126984	240.31414965986394	83	127
240.22126984126984	240.31414965986394	68	127
240.22126984126984	240.31414965986394	62	127
240.22126984126984	240.31414965986394	47	127
240.3257596371882	240.43024943310658	84	127
240.3257596371882	240.43024943310658	69	127
240.3257596371882	240.43024943310658	64	127
240.3257596371882	240.43024943310658	45	127
240.53473922902495	240.63922902494332	81	127
240.63922902494332	240.7437188208617	78	127
240.63922902494332	240.7437188208617	69	127
240.63922902494332	240.7437188208617	60	127
240.63922902494332	240.7437188208617	45	127
240.7437188208617	240.8365986394558	75	127
240.7437188208617	240.8365986394558	69	127
240.7437188208617	240.8365986394558	59	127
240.7437188208617	240.8365986394558	47	127
240.95269841269842	241.01074829931972	71	127
241.01074829931972	241.0804081632653	59	127
241.01074829931972	241.0804081632653	75	127
241.01074829931972	241.0804081632653	69	127
241.01074829931972	241.0804081632653	47	127
241.09201814058957	241.1732879818594	76	127
241.09201814058957	241.27777777777777	67	127
241.09201814058957	241.27777777777777	59	127
241.09201814058957	241.27777777777777	52	127
241.27777777777777	241.49836734693878	59	127
241.27777777777777	241.38226757369614	71	127
241.27777777777777	241.49836734693878	55	127
241.27777777777777	241.49836734693878	64	127
241.3938775510204	241.49836734693878	75	127
241.49836734693878	241.60285714285715	76	127
241.49836734693878	241.69573696145125	55	127
241.70734693877552	241.91632653061225	64	127
241.70734693877552	241.91632653061225	55	127
241.70734693877552	241.81183673469388	71	127
241.70734693877552	241.91632653061225	59	127
241.81183673469388	241.91632653061225	76	127
241.92793650793652	242.125306122449	54	127
241.92793650793652	242.03242630385486	78	127
242.125306122449	242.34589569160997	66	127
242.125306122449	242.22979591836736	71	127
242.125306122449	242.34589569160997	57	127
242.125306122449	242.34589569160997	63	127
242.2414058956916	242.34589569160997	78	127
242.34589569160997	242.45038548752834	79	127
242.34589569160997	242.54326530612244	52	127
242.5548752834467	242.7174149659864	67	127
242.5548752834467	242.7174149659864	64	127
242.5548752834467	242.6477551020408	76	127
242.5548752834467	242.7174149659864	59	127
242.6477551020408	242.7174149659864	79	127
242.72902494331066	242.82190476190476	81	127
242.72902494331066	242.92639455782313	48	127
242.92639455782313	243.11215419501133	69	127
242.92639455782313	243.11215419501133	60	127
242.92639455782313	243.0308843537415	76	127
242.92639455782313	243.11215419501133	60	127
243.04249433106577	243.11215419501133	81	127
243.11215419501133	243.3095238095238	47	127
243.11215419501133	243.2166439909297	83	127
243.32113378684807	243.5068934240363	68	127
243.32113378684807	243.42562358276643	76	127
243.32113378684807	243.5068934240363	62	127
243.32113378684807	243.5068934240363	71	127
243.42562358276643	243.5068934240363	83	127
243.5068934240363	243.6229931972789	84	127
243.5068934240363	243.73909297052154	45	127
243.73909297052154	243.9132426303855	72	127
243.73909297052154	243.8435827664399	81	127
243.73909297052154	243.9132426303855	69	127
243.8435827664399	243.9132426303855	78	127
243.92485260770974	244.13383219954648	47	127
243.92485260770974	244.01773242630387	75	127
244.14544217687074	244.35442176870748	69	127
244.14544217687074	244.2499319727891	71	127
244.14544217687074	244.35442176870748	66	127
244.2499319727891	244.35442176870748	75	127
244.35442176870748	244.47052154195012	76	127
244.35442176870748	244.47052154195012	67	127
244.35442176870748	244.58662131519273	64	127
244.35442176870748	244.58662131519273	59	127
244.35442176870748	244.58662131519273	52	127
244.4821315192744	244.58662131519273	78	127
244.58662131519273	244.6911111111111	76	127
244.6911111111111	244.79560090702947	75	127
244.6911111111111	244.79560090702947	66	127
244.80721088435374	244.90009070294784	76	127
244.80721088435374	244.90009070294784	64	127
244.90009070294784	244.99297052154196	79	127
244.99297052154196	245.0974603174603	78	127
245.10907029478457	245.21356009070294	76	127
245.10907029478457	245.21356009070294	59	127
245.21356009070294	245.32965986394558	75	127
245.21356009070294	245.32965986394558	69	127
245.21356009070294	245.45736961451246	59	127
245.21356009070294	245.45736961451246	66	127
245.21356009070294	245.45736961451246	47	127
245.34126984126985	245.45736961451246	76	127
245.45736961451246	245.56185941043083	75	127
245.56185941043083	245.6663492063492	67	127
245.56185941043083	245.6663492063492	73	127
245.67795918367347	245.78244897959183	66	127
245.67795918367347	245.78244897959183	75	127
245.78244897959183	245.8172789115646	78	127
245.8172789115646	245.8637188208617	76	127
245.87532879818593	245.96820861678003	75	127
245.87532879818593	245.96820861678003	59	127
245.96820861678003	246.16557823129253	59	127
245.96820861678003	246.16557823129253	40	127
245.96820861678003	246.0726984126984	76	127
245.96820861678003	246.0726984126984	67	127
245.96820861678003	246.16557823129253	64	127
246.0726984126984	246.16557823129253	78	127
246.17718820861677	246.2700680272109	76	127
246.2700680272109	246.37455782312927	75	127
246.2700680272109	246.37455782312927	66	127
246.3861678004535	246.4790476190476	76	127
246.3861678004535	246.4790476190476	64	127
246.4790476190476	246.57192743764173	79	127
246.57192743764173	246.65319727891156	78	127
246.66480725623583	246.7692970521542	76	127
246.66480725623583	246.7692970521542	59	127
246.7692970521542	246.87378684807257	69	127
246.7692970521542	246.87378684807257	75	127
246.7692970521542	246.97827664399094	66	127
246.7692970521542	246.97827664399094	59	127
246.7692970521542	246.97827664399094	47	127
246.87378684807257	246.97827664399094	76	127
246.98988662131518	247.09437641723355	78	127
247.09437641723355	247.18725623582768	79	127
247.09437641723355	247.18725623582768	67	127
247.18725623582768	247.29174603174604	66	127
247.18725623582768	247.29174603174604	81	127
247.30335600907028	247.40784580498865	83	127
247.40784580498865	247.51233560090702	85	127
247.5239455782313	247.62843537414966	87	127
247.5239455782313	247.62843537414966	59	127
247.62843537414966	248.04639455782313	64	127
247.62843537414966	247.88385487528345	88	127
247.62843537414966	248.04639455782313	71	127
247.62843537414966	248.04639455782313	67	127
247.62843537414966	248.04639455782313	59	127
247.62843537414966	248.04639455782313	52	127
248.19732426303855	248.27859410430838	91	127
248.27859410430838	248.30181405895692	88	127
248.3134240362812	248.41791383219956	93	127
248.3134240362812	248.41791383219956	51	127
248.3134240362812	248.54562358276644	66	127
248.3134240362812	248.54562358276644	71	127
248.3134240362812	248.54562358276644	59	127
248.66172335600908	248.76621315192745	91	127
248.66172335600908	248.76621315192745	52	127
248.76621315192745	248.88231292517005	90	127
248.76621315192745	248.88231292517005	54	127
249.10290249433106	249.20739229024943	83	127
249.10290249433106	249.20739229024943	59	127
249.2190022675737	249.32349206349207	91	127
249.2190022675737	249.4395918367347	67	127
249.2190022675737	249.4395918367347	71	127
249.2190022675737	249.4395918367347	59	127
249.2190022675737	249.4395918367347	52	127
249.55569160997732	249.60213151927437	90	127
249.82272108843537	249.92721088435374	79	127
249.938820861678	250.05492063492065	89	127
249.938820861678	250.05492063492065	47	127
249.938820861678	250.159410430839	77	127
249.938820861678	250.159410430839	55	127
249.938820861678	250.159410430839	62	127
250.27551020408163	250.38	88	127
250.27551020408163	250.38	48	127
250.38	250.48448979591836	86	127
250.38	250.48448979591836	50	127
250.68185941043083	250.7863492063492	79	127
250.68185941043083	250.7863492063492	55	127
250.7863492063492	250.89083900226757	88	127
250.7863492063492	251.0069387755102	76	127
250.7863492063492	251.0069387755102	55	127
250.7863492063492	251.0069387755102	48	127
251.12303854875285	251.15786848072563	86	127
251.15786848072563	251.25074829931972	84	127
251.42489795918368	251.52938775510205	76	127
251.52938775510205	251.74997732426303	71	127
251.52938775510205	251.63387755102042	86	127
251.52938775510205	251.63387755102042	44	127
251.52938775510205	251.74997732426303	64	127
251.8544671201814	251.93573696145125	84	127
251.8544671201814	251.93573696145125	45	127
251.9473469387755	252.05183673469386	83	127
251.9473469387755	252.05183673469386	47	127
252.27242630385487	252.36530612244897	76	127
252.27242630385487	252.36530612244897	52	127
252.36530612244897	252.52784580498866	84	127
252.36530612244897	252.60911564625852	64	127
252.36530612244897	252.60911564625852	72	127
252.36530612244897	252.60911564625852	69	127
252.36530612244897	252.60911564625852	45	127
252.60911564625852	252.77165532879818	83	127
252.8297052154195	252.99224489795918	81	127
252.99224489795918	253.06190476190477	80	127
253.073514739229	253.17800453514738	81	127
253.17800453514738	253.43342403628117	83	127
253.17800453514738	253.4914739229025	64	127
253.17800453514738	253.4914739229025	71	127
253.17800453514738	253.4914739229025	67	127
253.17800453514738	253.4914739229025	52	127
253.4914739229025	253.66562358276644	81	127
253.72367346938776	253.87460317460318	79	127
253.87460317460318	253.94426303854874	79	127
253.94426303854874	254.13002267573697	81	127
253.94426303854874	254.13002267573697	72	127
253.94426303854874	254.1880725623583	59	127
253.94426303854874	254.1880725623583	47	127
254.19968253968253	254.36222222222221	79	127
254.19968253968253	254.36222222222221	71	127
254.4318820861678	254.617641723356	78	127
254.4318820861678	254.617641723356	69	127
254.617641723356	254.66408163265305	76	127
254.617641723356	254.66408163265305	68	127
254.67569160997732	254.75696145124718	78	127
254.67569160997732	254.75696145124718	69	127
254.75696145124718	254.9311111111111	79	127
254.75696145124718	254.9311111111111	71	127
254.75696145124718	254.97755102040816	52	127
254.75696145124718	254.97755102040816	40	127
254.97755102040816	255.12848072562358	78	127
254.97755102040816	255.12848072562358	69	127
255.1865306122449	255.39551020408163	67	127
255.1865306122449	255.39551020408163	76	127
255.39551020408163	255.5	75	127
255.39551020408163	255.5	66	127
255.51160997732427	255.61609977324264	76	127
255.51160997732427	255.61609977324264	64	127
255.61609977324264	255.83668934240362	64	127
255.61609977324264	256.4055782312925	74	127
255.83668934240362	255.92956916099774	66	127
255.92956916099774	256.0340589569161	68	127
256.0456689342404	256.2198185941043	69	127
256.2198185941043	256.3126984126984	71	127
256.3126984126984	256.4055782312925	68	127
256.4171882086168	258.4256916099773	69	127
256.4171882086168	256.6261678004535	40	127
256.4171882086168	258.01936507936506	72	127
256.6261678004535	256.6958276643991	42	127
256.70743764172335	256.8119274376417	44	127
256.8119274376417	257.02090702947845	45	127
257.02090702947845	257.1253968253968	47	127
257.1370068027211	257.2182766439909	44	127
257.2182766439909	257.36920634920637	52	127
257.2182766439909	258.01936507936506	45	127
257.38081632653063	257.47369614512473	54	127
257.47369614512473	257.5897959183674	56	127
257.60138321995464	257.78716553287984	57	127
257.7987755102041	257.9032426303855	53	127
257.9032426303855	258.01936507936506	52	127
258.01936507936506	258.23995464852607	51	127
258.01936507936506	258.23995464852607	71	127
258.01936507936506	258.4256916099773	47	127
258.23995464852607	258.3096145124717	73	127
258.23995464852607	258.4256916099773	54	127
258.32120181405895	258.4256916099773	75	127
258.4256916099773	258.64630385487527	52	127
258.4256916099773	258.64630385487527	76	127
258.4256916099773	258.64630385487527	40	127
258.4256916099773	258.64630385487527	68	127
258.64630385487527	258.8668934240363	69	127
258.64630385487527	258.8668934240363	75	127
258.64630385487527	258.8668934240363	54	127
258.64630385487527	258.8668934240363	40	127
258.87850340136055	259.06426303854875	56	127
258.87850340136055	259.06426303854875	64	127
258.87850340136055	259.7492290249433	74	127
258.87850340136055	259.96984126984125	40	127
259.075873015873	260.78253968253966	52	127
259.075873015873	259.1803628117914	66	127
259.1803628117914	259.2732426303855	68	127
259.28485260770975	259.5286621315193	69	127
259.5286621315193	259.63315192743767	71	127
259.64473922902494	259.7492290249433	68	127
259.7492290249433	261.7925850340136	72	127
259.7492290249433	261.3514285714286	69	127
259.96984126984125	260.06272108843535	42	127
260.0743310657596	260.1672108843537	43	127
260.1672108843537	260.36455782312925	45	127
260.36455782312925	260.4690476190476	47	127
260.4690476190476	260.573537414966	43	127
260.5851700680272	261.5720181405896	45	127
260.79414965986393	260.88702947845803	54	127
260.88702947845803	260.9682993197279	56	127
260.9682993197279	261.1540589569161	57	127
261.1540589569161	261.23532879818595	53	127
261.2469387755102	261.3514285714286	52	127
261.3514285714286	262.41954648526075	50	127
261.3514285714286	262.23378684807255	65	127
261.5720181405896	261.68809523809523	46	127
261.68809523809523	261.7925850340136	48	127
261.8042176870748	262.54725623582766	70	127
261.8042176870748	262.01319727891155	50	127
262.0248072562358	262.1176870748299	46	127
262.1176870748299	262.23378684807255	45	127
262.2453968253968	263.0116553287982	67	127
262.2453968253968	263.24385487528343	43	127
262.41954648526075	262.5240362811791	51	127
262.5240362811791	262.54725623582766	53	127
262.54725623582766	262.77945578231294	55	127
262.54725623582766	263.4760544217687	70	127
262.77945578231294	262.8839455782313	51	127
262.8955555555556	263.0116553287982	50	127
263.0116553287982	263.71986394557825	64	127
263.0116553287982	263.71986394557825	49	127
263.24385487528343	263.35995464852607	52	127
263.35995464852607	263.4760544217687	53	127
263.487664399093	264.3584126984127	69	127
263.487664399093	263.71986394557825	55	127
263.7314512471655	263.8359410430839	61	127
263.7314512471655	263.8359410430839	64	127
263.7314512471655	263.8359410430839	52	127
263.8359410430839	263.9520634920635	49	127
263.8359410430839	263.9520634920635	67	127
263.8359410430839	263.9520634920635	64	127
263.9520634920635	264.1726530612245	50	127
263.9520634920635	264.3584126984127	65	127
263.9520634920635	264.3584126984127	62	127
264.1726530612245	264.2655328798186	50	127
264.2655328798186	264.3584126984127	52	127
264.3584126984127	265.1943310657596	68	127
264.3584126984127	264.6138321995465	53	127
264.3584126984127	265.41492063492063	65	127
264.3584126984127	265.41492063492063	62	127
264.6138321995465	264.71832199546486	50	127
264.71832199546486	264.82281179138323	48	127
264.82281179138323	264.9853514739229	47	127
264.99696145124716	265.1014512471655	50	127
265.1014512471655	265.1943310657596	52	127
265.2059410430839	265.98378684807255	67	127
265.2059410430839	265.41492063492063	53	127
265.4265306122449	265.49619047619046	59	127
265.4265306122449	265.49619047619046	50	127
265.4265306122449	265.49619047619046	62	127
265.49619047619046	265.60068027210883	65	127
265.49619047619046	265.60068027210883	62	127
265.49619047619046	265.60068027210883	47	127
265.60068027210883	265.7864172335601	64	127
265.60068027210883	265.7864172335601	60	127
265.60068027210883	265.7864172335601	48	127
265.7864172335601	265.8909297052154	48	127
265.7864172335601	265.8909297052154	64	127
265.90253968253967	265.98378684807255	62	127
265.90253968253967	265.98378684807255	50	127
265.98378684807255	266.1579591836735	52	127
265.98378684807255	266.1579591836735	60	127
265.98378684807255	266.7384580498866	67	127
266.1579591836735	266.2392290249433	48	127
266.1579591836735	266.2392290249433	58	127
266.1579591836735	266.9590476190476	64	127
266.2392290249433	266.3321088435374	59	127
266.2392290249433	266.3321088435374	47	127
266.3437188208617	266.5178684807256	46	127
266.3437188208617	266.5178684807256	61	127
266.5294784580499	266.63396825396825	61	127
266.5294784580499	266.63396825396825	46	127
266.63396825396825	266.7384580498866	47	127
266.63396825396825	266.7384580498866	59	127
266.7500680272109	266.9590476190476	66	127
266.7500680272109	266.9590476190476	58	127
266.7500680272109	266.9590476190476	49	127
266.9590476190476	267.063537414966	63	127
266.9590476190476	267.1912471655329	47	127
266.9590476190476	267.1912471655329	59	127
267.07514739229026	267.1912471655329	64	127
267.1912471655329	267.4350566893424	63	127
267.1912471655329	267.29573696145127	66	127
267.1912471655329	267.4350566893424	59	127
267.1912471655329	267.4350566893424	47	127
267.5279365079365	267.63242630385486	64	127
267.63242630385486	267.7485260770975	63	127
267.86462585034013	267.9691156462585	66	127
267.9691156462585	268.07360544217687	67	127
268.08521541950114	268.17809523809524	69	127
268.08521541950114	268.27097505668934	63	127
268.08521541950114	268.27097505668934	59	127
268.08521541950114	268.27097505668934	47	127
268.387074829932	268.49156462585034	67	127
268.49156462585034	268.5960544217687	66	127
268.71215419501135	268.8166439909297	64	127
268.83986394557826	268.9443310657596	66	127
268.9443310657596	269.0372335600907	67	127
268.9443310657596	269.15331065759636	64	127
268.9443310657596	269.15331065759636	59	127
268.9443310657596	269.15331065759636	47	127
269.25780045351473	269.35070294784583	66	127
269.3622902494331	269.46678004535147	64	127
269.58290249433105	269.6873922902494	67	127
269.6873922902494	269.7802721088435	69	127
269.7918820861678	269.8847619047619	71	127
269.7918820861678	270.0008616780045	64	127
269.7918820861678	270.0008616780045	59	127
269.7918820861678	270.0008616780045	47	127
270.11696145124716	270.22145124716553	69	127
270.22145124716553	270.31433106575963	67	127
270.43043083900227	270.53492063492064	75	127
270.5465306122449	270.61619047619047	76	127
270.61619047619047	270.72068027210884	75	127
270.61619047619047	270.72068027210884	78	127
270.61619047619047	270.8251700680272	69	127
270.61619047619047	270.8251700680272	66	127
270.61619047619047	270.8251700680272	59	127
270.94126984126984	271.03414965986394	76	127
271.0457596371882	271.12702947845804	78	127
271.0457596371882	271.12702947845804	75	127
271.2315192743764	271.3360090702948	78	127
271.2315192743764	271.3360090702948	63	127
271.3360090702948	271.44049886621315	79	127
271.3360090702948	271.44049886621315	64	127
271.44049886621315	271.5449886621315	81	127
271.44049886621315	271.5449886621315	66	127
271.44049886621315	271.62625850340135	59	127
271.7307482993197	271.8236281179138	79	127
271.7307482993197	271.8236281179138	64	127
271.8236281179138	271.9281179138322	78	127
271.8236281179138	271.9281179138322	63	127
272.0442176870748	272.16031746031746	76	127
272.16031746031746	272.2648072562358	78	127
272.2764172335601	272.38090702947846	76	127
272.2764172335601	272.38090702947846	79	127
272.2764172335601	272.48539682539683	59	127
272.5898866213152	272.6827664399093	78	127
272.69437641723357	272.78725623582767	79	127
272.69437641723357	272.78725623582767	76	127
272.9033560090703	273.0078458049887	64	127
272.9033560090703	273.0078458049887	79	127
273.01945578231295	273.0426530612245	66	127
273.01945578231295	273.0426530612245	81	127
273.0426530612245	273.14714285714285	83	127
273.0426530612245	273.14714285714285	67	127
273.0426530612245	273.26326530612243	59	127
273.3793650793651	273.42580498866215	81	127
273.3793650793651	273.42580498866215	66	127
273.42580498866215	273.5302947845805	79	127
273.42580498866215	273.5302947845805	64	127
273.64639455782316	273.7508616780045	63	127
273.7508616780045	273.8553514739229	64	127
273.8669841269841	273.994693877551	75	127
273.8669841269841	273.994693877551	66	127
274.11079365079365	274.215283446712	76	127
274.215283446712	274.33138321995466	64	127
274.33138321995466	274.435873015873	78	127
274.33138321995466	274.435873015873	63	127
274.55197278911567	274.65646258503403	63	127
274.55197278911567	274.65646258503403	66	127
274.6680725623583	274.74934240362813	64	127
274.6680725623583	274.74934240362813	67	127
274.74934240362813	274.79578231292516	87	127
274.74934240362813	274.79578231292516	66	127
274.74934240362813	274.79578231292516	69	127
274.87702947845804	274.9815192743764	64	127
274.87702947845804	274.9815192743764	67	127
274.9931519274376	275.097641723356	90	127
274.9931519274376	275.097641723356	63	127
274.9931519274376	275.097641723356	66	127
275.2253514739229	275.32984126984127	64	127
275.32984126984127	275.43433106575964	66	127
275.4459410430839	275.51560090702947	76	127
275.4459410430839	275.51560090702947	67	127
275.62009070294783	275.71297052154193	78	127
275.71297052154193	275.8290702947846	66	127
275.8290702947846	275.93356009070294	79	127
275.8290702947846	275.93356009070294	64	127
276.0844897959184	276.18897959183676	64	127
276.0844897959184	276.18897959183676	67	127
276.18897959183676	276.2934693877551	69	127
276.18897959183676	276.2934693877551	66	127
276.2934693877551	276.3979591836735	88	127
276.2934693877551	276.3979591836735	67	127
276.2934693877551	276.3979591836735	71	127
276.50244897959186	276.59532879818596	90	127
276.59532879818596	276.69981859410433	66	127
276.59532879818596	276.69981859410433	69	127
276.7114285714286	276.81591836734697	91	127
276.7114285714286	276.81591836734697	64	127
276.7114285714286	276.81591836734697	67	127
276.93201814058955	276.9552380952381	89	127
276.9552380952381	277.01328798185943	91	127
277.01328798185943	277.38480725623583	93	127
277.01328798185943	277.38480725623583	65	127
277.01328798185943	277.38480725623583	69	127
277.01328798185943	277.38480725623583	60	127
277.01328798185943	277.38480725623583	57	127
277.524126984127	277.6286167800454	91	127
277.6286167800454	277.73310657596375	89	127
277.7563265306122	277.79115646258504	93	127
277.7563265306122	277.79115646258504	77	127
277.79115646258504	277.87242630385487	94	127
277.79115646258504	277.87242630385487	79	127
277.87242630385487	277.97691609977323	81	127
277.87242630385487	277.97691609977323	96	127
278.0930158730159	278.2207256235828	94	127
278.0930158730159	278.2207256235828	79	127
278.2207256235828	278.3368253968254	93	127
278.2207256235828	278.3368253968254	77	127
278.47614512471654	278.56902494331064	41	127
278.5806349206349	278.6851247165533	43	127
278.6851247165533	278.9869841269841	96	127
278.6851247165533	278.8360544217687	45	127
278.6851247165533	278.9869841269841	69	127
278.6851247165533	278.9869841269841	77	127
278.6851247165533	278.9869841269841	53	127
278.6851247165533	278.9869841269841	60	127
279.068231292517	279.2075736961451	43	127
279.2191836734694	279.55587301587303	41	127
281.1696598639456	281.3786394557823	59	127
281.1696598639456	284.2114739229025	47	127
281.3786394557823	281.4831292517007	61	127
281.49473922902496	281.5992290249433	63	127
281.5992290249433	281.81981859410433	64	127
281.81981859410433	281.9243083900227	66	127
281.9243083900227	282.0171882086168	63	127
282.02879818594107	282.22616780045354	64	127
282.02879818594107	283.3407256235828	64	127
282.02879818594107	283.3407256235828	55	127
282.2377551020408	282.423537414966	66	127
282.4351473922903	282.6557142857143	67	127
282.6557142857143	282.87632653061223	69	127
282.87632653061223	284.2114739229025	71	127
283.3407256235828	283.8051247165533	54	127
283.3407256235828	283.8051247165533	63	127
283.81673469387755	284.2114739229025	64	127
283.81673469387755	284.2114739229025	55	127
284.2114739229025	284.6526530612245	46	127
284.2114739229025	284.4320634920635	72	127
284.2114739229025	284.6526530612245	64	127
284.2114739229025	284.6526530612245	55	127
284.4320634920635	284.53655328798186	77	127
284.54816326530613	284.6526530612245	79	127
284.6526530612245	284.75714285714287	81	127
284.6526530612245	284.8732426303855	57	127
284.6526530612245	284.8732426303855	65	127
284.6526530612245	284.8732426303855	53	127
284.6526530612245	284.8732426303855	60	127
284.6526530612245	284.8732426303855	45	127
284.98934240362814	285.0938321995465	79	127
285.1054195011338	285.20990929705215	77	127
285.32603174603173	285.4072789115646	81	127
285.32603174603173	285.4072789115646	77	127
285.4305215419501	285.511768707483	84	127
285.4305215419501	285.511768707483	81	127
285.73238095238094	285.8368707482993	82	127
285.73238095238094	285.8368707482993	79	127
285.8484807256236	285.9645804988662	81	127
285.8484807256236	285.9645804988662	77	127
286.08068027210885	286.17356009070295	41	127
286.1851700680272	286.3128798185941	43	127
286.3244671201814	286.4638095238095	45	127
286.3244671201814	286.53344671201813	72	127
286.3244671201814	286.53344671201813	84	127
286.3244671201814	286.53344671201813	69	127
286.3244671201814	286.53344671201813	77	127
286.3244671201814	286.53344671201813	53	127
286.3244671201814	286.53344671201813	60	127
286.67278911564625	286.81210884353743	43	127
286.81210884353743	287.12557823129254	41	127
288.9483446712018	289.15732426303856	59	127
288.9483446712018	292.02498866213153	47	127
289.15732426303856	289.2734240362812	61	127
289.2734240362812	289.37791383219957	63	127
289.38952380952384	289.5868934240363	64	127
289.5984807256236	289.6913832199547	66	127
289.6913832199547	289.7842630385488	63	127
289.79587301587304	291.1426303854875	55	127
289.79587301587304	291.1426303854875	64	127
289.79587301587304	289.9932426303855	64	127
289.9932426303855	290.20222222222225	66	127
290.20222222222225	290.411201814059	67	127
290.411201814059	290.66662131519274	69	127
290.66662131519274	292.02498866213153	71	127
291.1542403628118	291.5954195011338	63	127
291.1542403628118	291.5954195011338	54	127
291.5954195011338	292.02498866213153	64	127
291.5954195011338	292.02498866213153	55	127
292.02498866213153	292.43133786848074	64	127
292.02498866213153	292.43133786848074	55	127
292.02498866213153	292.43133786848074	46	127
292.02498866213153	292.89573696145123	72	127
292.442947845805	292.89573696145123	65	127
292.442947845805	292.89573696145123	60	127
292.442947845805	292.89573696145123	45	127
292.9073469387755	293.3485260770975	74	127
292.9073469387755	293.3485260770975	65	127
292.9073469387755	293.3485260770975	44	127
292.9073469387755	293.8245351473923	58	127
293.3485260770975	293.8245351473923	63	127
293.3485260770975	293.8245351473923	43	127
293.3485260770975	293.8245351473923	75	127
293.8245351473923	294.3121541950113	76	127
293.8245351473923	294.3121541950113	42	127
293.8245351473923	295.310612244898	70	127
293.8245351473923	295.8446485260771	61	127
294.3237641723356	294.7649433106576	77	127
294.3237641723356	294.7649433106576	41	127
294.7649433106576	295.310612244898	78	127
294.7649433106576	295.310612244898	40	127
295.310612244898	296.7734693877551	78	127
295.310612244898	296.3438775510204	69	127
295.310612244898	296.3438775510204	39	127
295.8562811791383	296.7734693877551	59	127
296.35548752834467	296.5180498866213	40	127
296.35548752834467	296.7966893424036	67	127
296.5760997732426	296.73863945578233	40	127
296.7966893424036	296.95920634920634	59	127
296.7966893424036	296.95920634920634	76	127
296.7966893424036	296.95920634920634	67	127
297.01727891156463	297.1681859410431	76	127
297.01727891156463	297.1681859410431	67	127
297.01727891156463	297.1681859410431	59	127
297.22625850340137	297.388798185941	48	127
297.4468480725624	297.60938775510203	48	127
297.67902494331065	297.8415873015873	76	127
297.67902494331065	297.8415873015873	67	127
297.67902494331065	297.8415873015873	60	127
297.8996371882086	298.0621768707483	76	127
297.8996371882086	298.0621768707483	67	127
297.8996371882086	298.0621768707483	60	127
298.1202267573696	298.2827664399093	45	127
298.32920634920634	298.49172335600906	45	127
298.54979591836735	298.712335600907	76	127
298.54979591836735	298.712335600907	66	127
298.54979591836735	298.712335600907	60	127
298.77038548752836	298.932925170068	76	127
298.77038548752836	298.932925170068	66	127
298.77038548752836	298.932925170068	60	127
298.99097505668936	299.1302947845805	47	127
299.1999546485261	299.36249433106576	47	127
299.4205215419501	299.58308390022677	75	127
299.4205215419501	299.58308390022677	66	127
299.4205215419501	299.58308390022677	59	127
299.64113378684806	299.8036734693878	59	127
299.64113378684806	299.8036734693878	75	127
299.64113378684806	299.8036734693878	66	127
299.86172335600907	299.96621315192743	40	127
299.9778231292517	300.0823129251701	40	127
300.0823129251701	300.18680272108844	40	127
300.1984126984127	300.2912925170068	40	127
300.2912925170068	300.3957823129252	79	127
300.2912925170068	300.3957823129252	64	127
300.2912925170068	300.3957823129252	59	127
300.40739229024945	300.5118820861678	79	127
300.40739229024945	300.5118820861678	64	127
300.40739229024945	300.5118820861678	59	127
300.5118820861678	300.62798185941045	79	127
300.5118820861678	300.62798185941045	64	127
300.5118820861678	300.62798185941045	59	127
300.62798185941045	300.7324716553288	79	127
300.62798185941045	300.7324716553288	64	127
300.62798185941045	300.7324716553288	59	127
300.7440589569161	300.8369614512472	48	127
300.8369614512472	300.94145124716556	48	127
300.95303854875283	301.03433106575966	48	127
301.03433106575966	301.09238095238095	48	127
301.1039909297052	301.2084807256236	79	127
301.1039909297052	301.2084807256236	64	127
301.1039909297052	301.2084807256236	60	127
301.2084807256236	301.3245804988662	79	127
301.2084807256236	301.3245804988662	64	127
301.2084807256236	301.3245804988662	60	127
301.3245804988662	301.4290702947846	79	127
301.3245804988662	301.4290702947846	64	127
301.3245804988662	301.4290702947846	60	127
301.44068027210886	301.54517006802723	79	127
301.44068027210886	301.54517006802723	64	127
301.44068027210886	301.54517006802723	60	127
301.54517006802723	301.6032199546485	45	127
301.6148299319728	301.71931972789116	45	127
301.71931972789116	301.81219954648526	45	127
301.82380952380953	301.9282993197279	45	127
301.9282993197279	302.04439909297054	78	127
301.9282993197279	302.04439909297054	64	127
301.9282993197279	302.04439909297054	60	127
302.04439909297054	302.1488888888889	78	127
302.04439909297054	302.1488888888889	64	127
302.04439909297054	302.1488888888889	60	127
302.1604988662132	302.26498866213154	78	127
302.1604988662132	302.26498866213154	64	127
302.1604988662132	302.26498866213154	60	127
302.26498866213154	302.3462585034014	78	127
302.26498866213154	302.3462585034014	64	127
302.26498866213154	302.3462585034014	60	127
302.35786848072564	302.462358276644	47	127
302.462358276644	302.5668480725624	47	127
302.57845804988665	302.682925170068	47	127
302.682925170068	302.7874149659864	47	127
302.7874149659864	302.89190476190475	78	127
302.7874149659864	302.89190476190475	63	127
302.7874149659864	302.89190476190475	59	127
302.90353741496597	303.0196371882086	78	127
302.90353741496597	303.0196371882086	63	127
302.90353741496597	303.0196371882086	59	127
303.0196371882086	303.1125170068027	78	127
303.0196371882086	303.1125170068027	63	127
303.0196371882086	303.1125170068027	59	127
303.124126984127	303.22861678004534	78	127
303.124126984127	303.22861678004534	63	127
303.124126984127	303.22861678004534	59	127
303.22861678004534	303.3331065759637	79	127
303.22861678004534	303.3331065759637	64	127
303.22861678004534	303.3331065759637	59	127
303.22861678004534	303.3331065759637	52	127
303.344716553288	303.4608163265306	79	127
303.344716553288	303.4608163265306	64	127
303.344716553288	303.4608163265306	59	127
303.344716553288	303.4608163265306	52	127
303.4608163265306	303.6001360544218	79	127
303.4608163265306	303.6001360544218	64	127
303.4608163265306	303.6001360544218	59	127
303.4608163265306	303.6001360544218	52	127
303.6001360544218	303.70460317460316	79	127
303.6001360544218	303.70460317460316	64	127
303.6001360544218	303.70460317460316	59	127
303.6001360544218	303.70460317460316	52	127
303.71621315192743	303.7742857142857	83	127
303.71621315192743	303.7742857142857	67	127
303.71621315192743	303.7742857142857	64	127
303.71621315192743	303.7742857142857	52	127
303.7742857142857	303.8671655328798	83	127
303.7742857142857	303.8671655328798	67	127
303.7742857142857	303.8671655328798	64	127
303.7742857142857	303.8671655328798	52	127
303.8787755102041	303.9600453514739	83	127
303.8787755102041	303.9600453514739	67	127
303.8787755102041	303.9600453514739	64	127
303.8787755102041	303.9600453514739	52	127
303.9600453514739	304.0645351473923	83	127
303.9600453514739	304.0645351473923	67	127
303.9600453514739	304.0645351473923	64	127
303.9600453514739	304.0645351473923	52	127
304.07614512471656	304.18063492063493	83	127
304.07614512471656	304.18063492063493	67	127
304.07614512471656	304.18063492063493	64	127
304.07614512471656	304.18063492063493	52	127
304.18063492063493	304.29673469387757	83	127
304.18063492063493	304.29673469387757	67	127
304.18063492063493	304.29673469387757	64	127
304.18063492063493	304.29673469387757	52	127
304.29673469387757	304.38961451247167	83	127
304.29673469387757	304.38961451247167	67	127
304.29673469387757	304.38961451247167	64	127
304.29673469387757	304.38961451247167	52	127
304.40122448979594	304.5057142857143	83	127
304.40122448979594	304.5057142857143	67	127
304.40122448979594	304.5057142857143	64	127
304.40122448979594	304.5057142857143	52	127
304.5057142857143	304.6102040816327	83	127
304.5057142857143	304.6102040816327	67	127
304.5057142857143	304.6102040816327	64	127
304.5057142857143	304.6102040816327	52	127
304.62181405895694	304.7378911564626	83	127
304.62181405895694	304.7378911564626	67	127
304.62181405895694	304.7378911564626	52	127
304.62181405895694	304.7378911564626	64	127
304.7378911564626	304.8307709750567	67	127
304.7378911564626	304.8307709750567	83	127
304.7378911564626	304.8307709750567	64	127
304.7378911564626	304.8307709750567	52	127
304.8424036281179	304.94689342403626	64	127
304.8424036281179	304.94689342403626	52	127
304.8424036281179	304.94689342403626	83	127
304.8424036281179	304.94689342403626	67	127
304.94689342403626	305.0629931972789	83	127
304.94689342403626	305.0629931972789	67	127
304.94689342403626	305.0629931972789	65	127
304.94689342403626	305.0629931972789	50	127
305.0629931972789	305.16748299319727	83	127
305.0629931972789	305.16748299319727	67	127
305.0629931972789	305.16748299319727	65	127
305.0629931972789	305.16748299319727	50	127
305.17909297052154	305.2835827664399	83	127
305.17909297052154	305.2835827664399	67	127
305.17909297052154	305.2835827664399	65	127
305.17909297052154	305.2835827664399	50	127
305.2835827664399	305.3880725623583	83	127
305.2835827664399	305.3880725623583	67	127
305.2835827664399	305.3880725623583	65	127
305.2835827664399	305.3880725623583	50	127
305.39968253968254	305.5041723356009	83	127
305.39968253968254	305.5041723356009	67	127
305.39968253968254	305.5041723356009	65	127
305.39968253968254	305.5041723356009	50	127
305.5041723356009	305.6086621315193	83	127
305.5041723356009	305.6086621315193	67	127
305.5041723356009	305.6086621315193	65	127
305.5041723356009	305.6086621315193	50	127
305.62027210884355	305.7247619047619	83	127
305.62027210884355	305.7247619047619	67	127
305.62027210884355	305.7247619047619	65	127
305.62027210884355	305.7247619047619	50	127
305.7247619047619	305.84086167800456	83	127
305.7247619047619	305.84086167800456	67	127
305.7247619047619	305.84086167800456	65	127
305.7247619047619	305.84086167800456	50	127
305.84086167800456	305.9569387755102	83	127
305.84086167800456	305.9569387755102	74	127
305.84086167800456	305.9569387755102	67	127
305.84086167800456	305.9569387755102	55	127
305.84086167800456	305.9569387755102	65	127
305.84086167800456	305.9569387755102	43	127
305.9569387755102	306.0498412698413	83	127
305.9569387755102	306.0498412698413	74	127
305.9569387755102	306.0498412698413	67	127
305.9569387755102	306.0498412698413	55	127
305.9569387755102	306.0498412698413	65	127
305.9569387755102	306.0498412698413	43	127
306.06142857142856	306.16591836734693	83	127
306.06142857142856	306.16591836734693	74	127
306.06142857142856	306.16591836734693	67	127
306.06142857142856	306.16591836734693	55	127
306.06142857142856	306.16591836734693	65	127
306.06142857142856	306.16591836734693	43	127
306.17755102040815	306.2820408163265	83	127
306.17755102040815	306.2820408163265	74	127
306.17755102040815	306.2820408163265	67	127
306.17755102040815	306.2820408163265	55	127
306.17755102040815	306.2820408163265	65	127
306.17755102040815	306.2820408163265	43	127
306.2936507936508	306.4213605442177	83	127
306.2936507936508	306.4213605442177	74	127
306.2936507936508	306.4213605442177	67	127
306.2936507936508	306.4213605442177	55	127
306.2936507936508	306.4213605442177	65	127
306.2936507936508	306.4213605442177	43	127
306.4213605442177	306.53746031746033	83	127
306.4213605442177	306.53746031746033	74	127
306.4213605442177	306.53746031746033	67	127
306.4213605442177	306.53746031746033	55	127
306.4213605442177	306.53746031746033	65	127
306.4213605442177	306.53746031746033	43	127
306.53746031746033	306.65356009070297	83	127
306.53746031746033	306.65356009070297	74	127
306.53746031746033	306.65356009070297	67	127
306.53746031746033	306.65356009070297	55	127
306.53746031746033	306.65356009070297	65	127
306.53746031746033	306.65356009070297	43	127
306.65356009070297	306.7696598639456	67	127
306.65356009070297	306.7696598639456	83	127
306.65356009070297	306.7696598639456	74	127
306.65356009070297	306.7696598639456	55	127
306.65356009070297	306.7696598639456	65	127
306.65356009070297	306.7696598639456	43	127
306.7812471655329	306.9554195011338	72	127
306.7812471655329	306.9554195011338	67	127
306.7812471655329	306.9554195011338	55	127
306.7812471655329	307.44303854875284	84	127
306.7812471655329	306.89736961451246	48	127
306.7812471655329	306.9554195011338	64	127
306.7812471655329	306.89736961451246	36	127
307.11795918367346	307.2340589569161	48	127
307.11795918367346	307.2340589569161	67	127
307.11795918367346	307.2340589569161	52	127
307.11795918367346	307.2340589569161	36	127
307.2340589569161	307.33854875283447	36	127
307.2340589569161	307.3965759637188	67	127
307.2340589569161	307.3965759637188	52	127
307.2340589569161	307.33854875283447	48	127
307.4546485260771	307.5126984126984	84	127
307.5126984126984	307.61718820861677	60	127
307.5126984126984	307.61718820861677	86	127
307.5126984126984	307.61718820861677	67	127
307.5126984126984	307.61718820861677	52	127
307.5126984126984	307.61718820861677	48	127
307.5126984126984	307.61718820861677	36	127
307.62879818594104	307.72167800453514	88	127
307.62879818594104	307.72167800453514	48	127
307.62879818594104	307.72167800453514	36	127
307.62879818594104	307.7797278911565	60	127
307.62879818594104	307.7797278911565	67	127
307.62879818594104	307.7797278911565	52	127
307.94226757369614	308.0467573696145	86	127
307.94226757369614	308.0467573696145	60	127
307.94226757369614	308.0467573696145	67	127
307.94226757369614	308.0467573696145	52	127
307.94226757369614	308.0467573696145	48	127
307.94226757369614	308.0467573696145	36	127
308.0467573696145	308.2092743764172	60	127
308.0467573696145	308.1512471655329	84	127
308.0467573696145	308.1512471655329	48	127
308.0467573696145	308.1512471655329	36	127
308.0467573696145	308.2092743764172	69	127
308.0467573696145	308.2092743764172	53	127
308.3602267573696	308.464716553288	69	127
308.3602267573696	308.464716553288	81	127
308.3602267573696	308.464716553288	53	127
308.3602267573696	308.464716553288	48	127
308.3602267573696	308.464716553288	36	127
308.3602267573696	308.464716553288	60	127
308.464716553288	308.5924263038549	60	127
308.464716553288	308.5924263038549	67	127
308.464716553288	308.5924263038549	52	127
308.464716553288	309.0568253968254	79	127
308.464716553288	308.56920634920635	48	127
308.464716553288	308.56920634920635	36	127
308.7433560090703	308.84784580498865	36	127
308.7433560090703	308.84784580498865	60	127
308.7433560090703	308.84784580498865	67	127
308.7433560090703	308.84784580498865	52	127
308.7433560090703	308.84784580498865	48	127
308.8594557823129	309.01038548752837	60	127
308.8594557823129	308.9639455782313	48	127
308.8594557823129	308.9639455782313	36	127
308.8594557823129	309.01038548752837	67	127
308.8594557823129	309.01038548752837	52	127
309.06843537414966	309.10326530612247	84	127
309.10326530612247	309.20775510204084	86	127
309.10326530612247	309.20775510204084	60	127
309.10326530612247	309.20775510204084	67	127
309.10326530612247	309.20775510204084	52	127
309.10326530612247	309.20775510204084	48	127
309.10326530612247	309.20775510204084	36	127
309.20775510204084	309.3122448979592	88	127
309.20775510204084	309.3122448979592	48	127
309.20775510204084	309.3122448979592	36	127
309.20775510204084	309.3702947845805	60	127
309.20775510204084	309.3702947845805	67	127
309.20775510204084	309.3702947845805	52	127
309.3238548752835	309.39351473922903	86	127
309.42834467120184	309.47478458049886	84	127
309.4980045351474	309.60249433106577	52	127
309.4980045351474	309.57927437641723	83	127
309.4980045351474	309.60249433106577	60	127
309.4980045351474	309.60249433106577	67	127
309.4980045351474	309.60249433106577	48	127
309.4980045351474	309.60249433106577	36	127
309.61410430839004	309.7302040816327	36	127
309.61410430839004	309.7766439909297	60	127
309.61410430839004	309.7766439909297	69	127
309.61410430839004	309.7302040816327	48	127
309.61410430839004	309.7302040816327	86	127
309.61410430839004	309.7766439909297	53	127
309.7302040816327	309.8114739229025	84	127
309.83469387755105	309.9159637188209	83	127
309.9507709750567	310.02045351473924	81	127
309.9507709750567	310.05526077097505	60	127
309.9507709750567	310.05526077097505	69	127
309.9507709750567	310.05526077097505	53	127
309.9507709750567	310.05526077097505	48	127
309.9507709750567	310.05526077097505	36	127
310.05526077097505	310.2178231292517	52	127
310.05526077097505	310.15977324263037	48	127
310.05526077097505	310.15977324263037	36	127
310.05526077097505	310.2178231292517	60	127
310.05526077097505	310.2178231292517	67	127
310.05526077097505	310.70544217687075	79	127
310.3687528344671	310.47324263038547	67	127
310.3687528344671	310.47324263038547	52	127
310.3687528344671	310.47324263038547	48	127
310.3687528344671	310.47324263038547	36	127
310.3687528344671	310.47324263038547	60	127
310.48485260770974	310.6009523809524	36	127
310.48485260770974	310.64739229024946	60	127
310.48485260770974	310.64739229024946	67	127
310.48485260770974	310.64739229024946	52	127
310.48485260770974	310.6009523809524	48	127
310.8099319727891	310.8447619047619	77	127
310.8099319727891	310.8795918367347	60	127
310.8099319727891	310.8795918367347	65	127
310.8099319727891	310.8795918367347	50	127
310.8099319727891	310.8795918367347	48	127
310.8099319727891	310.8795918367347	36	127
310.8795918367347	311.0073015873016	64	127
310.8795918367347	310.98408163265304	76	127
310.8795918367347	310.98408163265304	48	127
310.8795918367347	310.98408163265304	36	127
310.8795918367347	311.0073015873016	60	127
310.8795918367347	311.0073015873016	48	127
311.15823129251703	311.2627210884354	60	127
311.15823129251703	311.2627210884354	65	127
311.15823129251703	311.2627210884354	74	127
311.15823129251703	311.2627210884354	50	127
311.15823129251703	311.2627210884354	48	127
311.15823129251703	311.2627210884354	36	127
311.27430839002267	311.36721088435377	72	127
311.27430839002267	311.36721088435377	48	127
311.27430839002267	311.36721088435377	36	127
311.27430839002267	311.4136507936508	60	127
311.27430839002267	311.4136507936508	67	127
311.27430839002267	311.4136507936508	52	127
311.5877777777778	311.6806575963719	71	127
311.5877777777778	311.6806575963719	64	127
311.5877777777778	311.6806575963719	52	127
311.5877777777778	311.6806575963719	48	127
311.5877777777778	311.6806575963719	36	127
311.6806575963719	311.84321995464853	64	127
311.6806575963719	311.78514739229024	71	127
311.6806575963719	311.78514739229024	48	127
311.6806575963719	311.84321995464853	52	127
311.78514739229024	311.87804988662134	69	127
311.8896371882086	311.92448979591836	67	127
311.92448979591836	311.994126984127	69	127
311.92448979591836	311.994126984127	64	127
311.92448979591836	311.994126984127	52	127
311.92448979591836	311.994126984127	48	127
311.994126984127	312.14507936507937	54	127
311.994126984127	312.0870294784581	47	127
311.994126984127	312.14507936507937	63	127
311.994126984127	312.6326984126984	71	127
312.3192290249433	312.42371882086167	54	127
312.3192290249433	312.42371882086167	47	127
312.3192290249433	312.42371882086167	63	127
312.42371882086167	312.59786848072565	63	127
312.42371882086167	312.5398185941043	47	127
312.42371882086167	312.59786848072565	54	127
312.6326984126984	312.702335600907	69	127
312.702335600907	312.8068253968254	63	127
312.702335600907	312.8068253968254	71	127
312.702335600907	312.8068253968254	54	127
312.702335600907	312.8068253968254	47	127
312.8068253968254	312.96938775510205	63	127
312.8068253968254	312.91131519274376	45	127
312.8068253968254	312.96938775510205	54	127
312.8068253968254	313.4453968253968	72	127
313.1319274376417	313.2364172335601	54	127
313.1319274376417	313.2364172335601	45	127
313.1319274376417	313.2364172335601	63	127
313.24802721088435	313.3873469387755	63	127
313.24802721088435	313.3873469387755	54	127
313.24802721088435	313.34090702947844	45	127
313.4570068027211	313.5382766439909	71	127
313.5498866213152	313.65437641723355	75	127
313.5498866213152	313.65437641723355	66	127
313.5498866213152	313.65437641723355	59	127
313.5498866213152	313.65437641723355	57	127
313.65437641723355	313.7704761904762	76	127
313.65437641723355	313.7704761904762	55	127
313.65437641723355	313.805306122449	64	127
313.65437641723355	313.805306122449	59	127
313.851746031746	313.9562358276644	71	127
313.9562358276644	314.0491156462585	76	127
313.9562358276644	314.0491156462585	64	127
313.9562358276644	314.0491156462585	59	127
313.9562358276644	314.0491156462585	55	127
314.06072562358275	314.15360544217685	78	127
314.06072562358275	314.15360544217685	54	127
314.06072562358275	314.18843537414966	63	127
314.06072562358275	314.18843537414966	57	127
314.246462585034	314.3509750566893	71	127
314.3625850340136	314.4322448979592	78	127
314.3625850340136	314.4322448979592	63	127
314.3625850340136	314.4322448979592	57	127
314.3625850340136	314.4322448979592	54	127
314.4322448979592	314.5367346938776	79	127
314.4322448979592	314.5367346938776	52	127
314.4322448979592	314.59478458049887	64	127
314.4322448979592	314.59478458049887	59	127
314.6528117913832	314.73410430839004	76	127
314.73410430839004	314.8385941043084	67	127
314.73410430839004	314.8385941043084	79	127
314.73410430839004	314.8385941043084	64	127
314.73410430839004	314.8385941043084	52	127
314.8501814058957	314.9430839002268	81	127
314.8501814058957	314.9430839002268	48	127
314.8501814058957	314.9895238095238	69	127
314.8501814058957	314.9895238095238	64	127
315.0359637188209	315.14045351473925	76	127
315.14045351473925	315.23333333333335	81	127
315.14045351473925	315.23333333333335	69	127
315.14045351473925	315.23333333333335	64	127
315.14045351473925	315.23333333333335	48	127
315.23333333333335	315.3378231292517	83	127
315.23333333333335	315.3378231292517	47	127
315.23333333333335	315.4074829931973	68	127
315.23333333333335	315.4074829931973	62	127
315.4655102040816	315.57	76	127
315.57	315.67448979591836	83	127
315.57	315.67448979591836	68	127
315.57	315.67448979591836	62	127
315.57	315.67448979591836	47	127
315.67448979591836	315.79061224489794	84	127
315.67448979591836	315.79061224489794	45	127
315.67448979591836	315.8486621315193	69	127
315.67448979591836	315.8486621315193	60	127
315.9067120181406	315.96476190476193	81	127
315.96476190476193	316.0692517006803	78	127
315.96476190476193	316.0692517006803	69	127
315.96476190476193	316.0692517006803	66	127
315.96476190476193	316.0692517006803	45	127
316.08083900226757	316.18532879818594	75	127
316.08083900226757	316.18532879818594	47	127
316.08083900226757	316.2434013605442	69	127
316.08083900226757	316.2434013605442	66	127
316.3130612244898	316.3362811791383	71	127
316.3362811791383	316.4291609977324	75	127
316.3362811791383	316.4291609977324	69	127
316.3362811791383	316.4291609977324	66	127
316.3362811791383	316.4291609977324	47	127
316.4291609977324	316.5684807256236	64	127
316.4291609977324	316.5684807256236	64	127
316.4291609977324	316.6149206349206	76	127
316.4291609977324	316.6149206349206	40	127
316.6961678004535	316.76585034013607	62	127
316.6961678004535	316.76585034013607	55	127
316.6961678004535	316.76585034013607	52	127
316.76585034013607	316.8471201814059	60	127
316.76585034013607	316.8471201814059	57	127
316.76585034013607	316.8471201814059	52	127
316.99802721088435	317.0793197278912	64	127
316.99802721088435	317.0793197278912	57	127
316.99802721088435	317.0793197278912	60	127
316.99802721088435	317.0793197278912	52	127
317.09092970521544	317.1721995464853	76	127
317.09092970521544	317.2650793650794	55	127
317.09092970521544	317.2650793650794	59	127
317.09092970521544	317.2650793650794	52	127
317.3463492063492	317.4159863945578	74	127
317.4159863945578	317.4740589569161	72	127
317.6249886621315	317.7062585034014	69	127
317.7062585034014	317.7875283446712	64	127
317.7062585034014	317.7875283446712	55	127
317.7062585034014	317.7875283446712	40	127
317.7062585034014	317.8571882086168	67	127
317.9384580498866	318.0313378684807	62	127
317.9384580498866	318.0313378684807	55	127
317.9384580498866	318.0313378684807	52	127
318.042947845805	318.12419501133786	60	127
318.042947845805	318.12419501133786	57	127
318.042947845805	318.12419501133786	52	127
318.27514739229025	318.3448072562358	64	127
318.27514739229025	318.3448072562358	57	127
318.27514739229025	318.3448072562358	60	127
318.27514739229025	318.3448072562358	52	127
318.3448072562358	318.4144671201814	76	127
318.3448072562358	318.5073469387755	55	127
318.3448072562358	318.5073469387755	59	127
318.3448072562358	318.5073469387755	52	127
318.58861678004536	318.6582766439909	74	127
318.6582766439909	318.6698866213152	72	127
318.82081632653063	318.8788662131519	69	127
318.8788662131519	318.96013605442175	67	127
318.8788662131519	318.96013605442175	55	127
318.8788662131519	318.96013605442175	59	127
318.8788662131519	318.96013605442175	40	127
318.8788662131519	319.00657596371883	67	127
319.08784580498866	319.1691156462585	66	127
319.08784580498866	319.1691156462585	55	127
319.08784580498866	319.1691156462585	59	127
319.08784580498866	319.1691156462585	52	127
319.18072562358276	319.2503628117914	64	127
319.18072562358276	319.2503628117914	55	127
319.18072562358276	319.2503628117914	59	127
319.18072562358276	319.2503628117914	52	127
319.3897052154195	319.4709750566893	67	127
319.3897052154195	319.4709750566893	60	127
319.3897052154195	319.4709750566893	57	127
319.3897052154195	319.4709750566893	52	127
319.4709750566893	319.5522222222222	79	127
319.4709750566893	319.63351473922904	59	127
319.4709750566893	319.63351473922904	55	127
319.4709750566893	319.63351473922904	52	127
319.72639455782314	319.76120181405895	78	127
319.76120181405895	319.8308843537415	76	127
319.9585941043084	320.028253968254	72	127
320.03986394557825	320.1211337868481	67	127
320.03986394557825	320.1211337868481	55	127
320.03986394557825	320.1211337868481	59	127
320.03986394557825	320.1211337868481	40	127
320.03986394557825	320.2024036281179	71	127
320.28367346938774	320.3649433106576	66	127
320.28367346938774	320.3649433106576	55	127
320.28367346938774	320.3649433106576	59	127
320.28367346938774	320.3649433106576	52	127
320.3649433106576	320.44621315192745	64	127
320.3649433106576	320.44621315192745	55	127
320.3649433106576	320.44621315192745	59	127
320.3649433106576	320.44621315192745	52	127
320.63197278911565	320.736462585034	79	127
320.63197278911565	320.736462585034	60	127
320.63197278911565	320.736462585034	57	127
320.63197278911565	320.736462585034	52	127
320.736462585034	320.8641723356009	91	127
320.736462585034	320.8990022675737	59	127
320.736462585034	320.8990022675737	55	127
320.736462585034	320.8990022675737	52	127
320.99185941043083	321.03832199546486	90	127
321.0615419501134	321.1428117913832	84	127
321.0615419501134	321.1428117913832	69	127
321.0615419501134	321.1428117913832	64	127
321.0615419501134	321.1428117913832	52	127
321.1544217687075	321.27052154195013	83	127
321.1544217687075	321.31696145124715	67	127
321.1544217687075	321.31696145124715	64	127
321.1544217687075	321.31696145124715	52	127
321.39820861678004	321.40984126984125	81	127
321.40984126984125	321.5026984126984	79	127
321.63043083900226	321.7117006802721	78	127
321.63043083900226	321.7117006802721	69	127
321.63043083900226	321.7117006802721	63	127
321.63043083900226	321.7117006802721	47	127
321.7117006802721	321.839410430839	76	127
321.7117006802721	321.8858503401361	67	127
321.7117006802721	321.8858503401361	64	127
321.7117006802721	321.8858503401361	52	127
321.99034013605444	322.04839002267573	72	127
322.06	322.14126984126983	71	127
322.25736961451247	322.3386394557823	69	127
322.25736961451247	322.3386394557823	63	127
322.25736961451247	322.3386394557823	54	127
322.25736961451247	322.3386394557823	47	127
322.3386394557823	322.4663492063492	67	127
322.3386394557823	322.501179138322	64	127
322.3386394557823	322.501179138322	55	127
322.3386394557823	322.501179138322	52	127
322.5592290249433	322.61727891156465	66	127
322.61727891156465	322.6869387755102	64	127
322.8146485260771	322.9075283446712	63	127
322.8146485260771	322.9075283446712	57	127
322.8146485260771	322.9075283446712	54	127
322.8146485260771	322.9075283446712	47	127
322.9075283446712	323.02362811791386	64	127
322.9075283446712	323.0700680272109	59	127
322.9075283446712	323.0700680272109	55	127
322.9075283446712	323.0700680272109	52	127
323.1513378684807	323.2325850340136	63	127
323.24419501133787	323.2558276643991	64	127
323.383537414966	323.4183673469388	64	127
323.383537414966	323.4183673469388	58	127
323.383537414966	323.4183673469388	55	127
323.383537414966	323.4183673469388	48	127
323.4183673469388	323.53446712018143	65	127
323.4183673469388	323.5692970521542	60	127
323.4183673469388	323.5692970521542	57	127
323.4183673469388	323.5692970521542	53	127
323.65054421768707	323.7318367346939	64	127
323.7318367346939	323.80149659863946	65	127
323.8827664399093	323.9640362811791	66	127
323.8827664399093	323.9640362811791	60	127
323.8827664399093	323.9640362811791	57	127
323.8827664399093	323.9640362811791	50	127
323.9756462585034	324.1033560090703	67	127
323.9756462585034	324.1033560090703	59	127
323.9756462585034	324.1033560090703	55	127
323.9756462585034	324.1033560090703	55	127
324.2310657596372	324.30072562358276	68	127
324.2310657596372	324.30072562358276	62	127
324.2310657596372	324.30072562358276	59	127
324.2310657596372	324.30072562358276	52	127
324.30072562358276	324.3819954648526	69	127
324.30072562358276	324.3819954648526	60	127
324.30072562358276	324.3819954648526	57	127
324.30072562358276	324.3819954648526	57	127
324.5097052154195	324.56773242630385	70	127
324.5097052154195	324.56773242630385	64	127
324.5097052154195	324.56773242630385	61	127
324.5097052154195	324.56773242630385	54	127
324.56773242630385	324.6722222222222	71	127
324.56773242630385	324.6722222222222	62	127
324.56773242630385	324.6722222222222	59	127
324.56773242630385	324.6722222222222	59	127
324.79995464852607	324.8347845804989	71	127
324.79995464852607	324.8347845804989	65	127
324.79995464852607	324.8347845804989	62	127
324.79995464852607	324.8347845804989	55	127
324.84639455782315	324.9624943310658	72	127
324.84639455782315	324.9624943310658	64	127
324.84639455782315	324.9624943310658	60	127
324.84639455782315	324.9624943310658	60	127
325.0437641723356	325.1134240362812	73	127
325.0437641723356	325.1134240362812	67	127
325.0437641723356	325.1134240362812	64	127
325.0437641723356	325.1134240362812	57	127
325.12503401360544	325.2063038548753	74	127
325.12503401360544	325.2063038548753	65	127
325.12503401360544	325.2063038548753	62	127
325.12503401360544	325.2063038548753	62	127
325.28755102040816	325.368843537415	75	127
325.28755102040816	325.368843537415	69	127
325.28755102040816	325.368843537415	66	127
325.28755102040816	325.368843537415	59	127
325.368843537415	325.49655328798184	76	127
325.368843537415	325.49655328798184	67	127
325.368843537415	325.49655328798184	64	127
325.368843537415	325.49655328798184	52	127
325.6126530612245	325.6823129251701	75	127
325.6126530612245	325.6823129251701	69	127
325.6126530612245	325.6823129251701	66	127
325.6126530612245	325.6823129251701	59	127
325.6823129251701	325.7751927437642	76	127
325.6823129251701	325.7751927437642	67	127
325.6823129251701	325.7751927437642	64	127
325.6823129251701	325.7751927437642	52	127
325.89126984126983	325.97256235827666	78	127
325.89126984126983	325.97256235827666	75	127
325.89126984126983	325.97256235827666	69	127
325.89126984126983	325.97256235827666	59	127
325.97256235827666	326.06544217687076	79	127
325.97256235827666	326.06544217687076	76	127
325.97256235827666	326.06544217687076	67	127
325.97256235827666	326.06544217687076	52	127
326.16993197278913	326.2628117913832	79	127
326.16993197278913	326.2628117913832	76	127
326.16993197278913	326.2628117913832	67	127
326.16993197278913	326.2628117913832	52	127
326.37891156462587	326.43696145124716	87	127
326.37891156462587	326.43696145124716	78	127
326.37891156462587	326.43696145124716	71	127
326.37891156462587	326.43696145124716	47	127
326.43696145124716	326.57628117913833	88	127
326.43696145124716	326.57628117913833	79	127
326.43696145124716	326.57628117913833	71	127
326.43696145124716	326.57628117913833	52	127
326.62272108843536	326.70399092970524	87	127
326.62272108843536	326.70399092970524	78	127
326.62272108843536	326.70399092970524	71	127
326.62272108843536	326.70399092970524	47	127
326.70399092970524	326.84331065759636	88	127
326.70399092970524	326.84331065759636	79	127
326.70399092970524	326.84331065759636	71	127
326.70399092970524	326.84331065759636	52	127
326.98263038548754	327.07551020408164	90	127
326.98263038548754	327.07551020408164	75	127
326.98263038548754	327.07551020408164	59	127
326.98263038548754	327.07551020408164	47	127
327.07551020408164	327.16839002267574	91	127
327.07551020408164	327.16839002267574	76	127
327.07551020408164	327.16839002267574	59	127
327.07551020408164	327.16839002267574	52	127
327.1916099773243	327.2728798185941	90	127
327.1916099773243	327.2728798185941	75	127
327.1916099773243	327.2728798185941	59	127
327.1916099773243	327.2728798185941	47	127
327.2844897959184	327.400589569161	91	127
327.2844897959184	327.400589569161	76	127
327.2844897959184	327.400589569161	59	127
327.2844897959184	327.400589569161	52	127
327.5050793650794	327.53990929705213	95	127
327.5050793650794	327.53990929705213	71	127
327.5050793650794	327.53990929705213	78	127
327.5050793650794	327.53990929705213	63	127
327.5050793650794	327.53990929705213	47	127
327.53990929705213	327.70244897959185	95	127
327.53990929705213	327.70244897959185	71	127
327.53990929705213	327.70244897959185	79	127
327.53990929705213	327.70244897959185	64	127
327.53990929705213	327.70244897959185	40	127
327.88820861678005	328.07396825396825	63	127
327.88820861678005	328.07396825396825	71	127
327.88820861678005	328.07396825396825	78	127
327.88820861678005	328.07396825396825	59	127
327.88820861678005	328.07396825396825	66	127
327.88820861678005	328.07396825396825	75	127
327.88820861678005	328.07396825396825	59	127
327.88820861678005	328.07396825396825	69	127
327.88820861678005	328.07396825396825	47	127
328.29455782312925	328.4687074829932	64	127
328.29455782312925	328.4687074829932	71	127
328.29455782312925	328.4687074829932	79	127
328.29455782312925	328.4687074829932	59	127
328.29455782312925	328.4687074829932	67	127
328.29455782312925	328.4687074829932	76	127
328.29455782312925	328.4687074829932	67	127
328.29455782312925	328.4687074829932	59	127
328.29455782312925	328.4687074829932	52	127
328.6312471655329	328.8170068027211	59	127
328.6312471655329	328.8170068027211	66	127
328.6312471655329	328.8170068027211	75	127
328.6312471655329	328.8170068027211	69	127
328.6312471655329	328.8170068027211	59	127
328.6312471655329	328.8170068027211	66	127
328.6312471655329	328.8170068027211	47	127
329.0027664399093	329.20013605442176	55	127
329.0027664399093	329.20013605442176	64	127
329.0027664399093	329.20013605442176	76	127
329.0027664399093	329.20013605442176	59	127
329.0027664399093	329.20013605442176	67	127
329.0027664399093	329.20013605442176	59	127
329.0027664399093	329.20013605442176	64	127
329.0027664399093	329.20013605442176	52	127
329.80385487528343	330.02444444444444	59	127
329.80385487528343	330.02444444444444	66	127
329.80385487528343	330.02444444444444	71	127
329.80385487528343	330.02444444444444	59	127
329.80385487528343	330.02444444444444	63	127
329.80385487528343	330.02444444444444	47	127
330.7674829931973	331.1622222222222	64	127
330.7674829931973	331.1622222222222	55	127
330.7674829931973	331.1622222222222	52	127
330.7674829931973	331.1622222222222	40	127
