# onset,offset,note,velocity
1.2414965986394557	1.322766439909297	46	127
1.2414965986394557	1.322766439909297	46	127
1.2414965986394557	1.322766439909297	70	127
1.938095238095238	2.9829931972789114	58	127
1.938095238095238	2.9829931972789114	58	127
1.938095238095238	2.9829931972789114	46	127
2.9829931972789114	5.2004761904761905	57	127
2.9829931972789114	5.2004761904761905	57	127
2.9829931972789114	5.2004761904761905	45	127
5.328208616780046	6.106077097505669	44	127
5.328208616780046	6.106077097505669	56	127
5.328208616780046	6.106077097505669	56	127
6.117687074829932	7.104535147392291	55	127
6.117687074829932	7.104535147392291	43	127
6.117687074829932	7.104535147392291	55	127
7.116145124716553	7.917233560090703	60	127
7.116145124716553	7.917233560090703	55	127
7.116145124716553	7.917233560090703	36	127
7.116145124716553	7.917233560090703	63	127
7.928843537414966	9.554240362811791	53	127
7.928843537414966	8.648639455782313	38	127
7.928843537414966	9.554240362811791	62	127
7.928843537414966	9.554240362811791	58	127
8.660272108843538	9.554240362811791	39	127
9.577460317460318	10.262448979591836	41	127
9.577460317460318	10.262448979591836	53	127
9.577460317460318	10.262448979591836	60	127
9.577460317460318	10.262448979591836	57	127
12.212925170068027	13.536462585034014	70	127
12.212925170068027	12.828253968253968	53	127
12.212925170068027	13.536462585034014	53	127
12.212925170068027	13.536462585034014	62	127
12.839863945578232	13.536462585034014	46	127
13.548072562358277	15.916507936507937	69	127
13.548072562358277	15.916507936507937	53	127
13.548072562358277	15.916507936507937	48	127
13.548072562358277	15.916507936507937	63	127
15.9281179138322	16.462154195011337	59	127
15.9281179138322	16.462154195011337	53	127
15.9281179138322	16.462154195011337	50	127
15.9281179138322	16.462154195011337	68	127
16.473786848072564	17.5418820861678	60	127
16.473786848072564	17.5418820861678	51	127
16.473786848072564	17.5418820861678	67	127
16.473786848072564	17.5418820861678	55	127
17.588344671201813	18.215283446712018	53	127
17.588344671201813	18.215283446712018	53	127
17.588344671201813	18.215283446712018	69	127
17.588344671201813	18.215283446712018	63	127
17.588344671201813	18.215283446712018	60	127
18.22689342403628	19.608480725623583	60	127
18.22689342403628	20.537278911564627	53	127
18.22689342403628	19.608480725623583	53	127
18.22689342403628	19.608480725623583	69	127
18.22689342403628	19.608480725623583	63	127
19.620090702947845	20.537278911564627	70	127
19.620090702947845	20.537278911564627	46	127
19.620090702947845	20.537278911564627	62	127
19.620090702947845	20.537278911564627	58	127
23.021814058956917	23.69517006802721	72	127
23.021814058956917	23.69517006802721	53	127
23.021814058956917	23.69517006802721	45	127
23.021814058956917	23.69517006802721	60	127
23.73002267573696	25.645668934240362	72	127
23.73002267573696	25.645668934240362	60	127
23.73002267573696	25.645668934240362	45	127
23.73002267573696	26.562857142857144	53	127
25.657278911564624	26.562857142857144	74	127
25.657278911564624	26.562857142857144	43	127
25.657278911564624	26.562857142857144	58	127
27.85156462585034	28.513333333333332	48	127
27.85156462585034	28.513333333333332	43	127
27.85156462585034	28.513333333333332	76	127
27.85156462585034	28.513333333333332	58	127
27.85156462585034	28.513333333333332	55	127
28.524943310657598	32.948344671201816	76	127
28.524943310657598	30.777278911564625	48	127
28.524943310657598	30.777278911564625	58	127
28.524943310657598	30.777278911564625	55	127
28.524943310657598	30.777278911564625	43	127
30.80049886621315	33.58689342403628	70	127
30.80049886621315	32.112426303854875	36	127
30.80049886621315	32.948344671201816	67	127
32.12403628117914	32.948344671201816	48	127
32.95995464852608	33.598503401360546	79	127
32.95995464852608	33.97002267573696	41	127
32.95995464852608	33.598503401360546	64	127
33.598503401360546	33.97002267573696	69	127
33.598503401360546	33.97002267573696	65	127
33.598503401360546	33.97002267573696	77	127
33.981632653061226	35.177460317460316	77	127
33.981632653061226	35.177460317460316	65	127
33.981632653061226	34.59696145124717	41	127
33.981632653061226	35.177460317460316	69	127
34.62018140589569	35.177460317460316	65	127
35.18907029478458	35.81600907029478	65	127
35.827619047619045	36.52421768707483	65	127
36.52421768707483	37.917414965986396	65	127
37.92902494331066	38.57918367346939	66	127
38.59079365079365	39.84467120181406	67	127
39.85628117913832	40.21619047619048	62	127
39.85628117913832	40.49482993197279	59	127
40.21619047619048	40.50643990929705	65	127
40.50643990929705	41.15659863945578	63	127
40.50643990929705	41.15659863945578	60	127
41.168185941043085	42.03895691609977	62	127
41.168185941043085	41.44684807256236	59	127
41.44684807256236	42.03895691609977	62	127
42.03895691609977	42.79360544217687	63	127
42.03895691609977	42.79360544217687	60	127
42.80521541950113	43.6643537414966	58	127
42.80521541950113	43.6643537414966	64	127
43.67596371882086	44.34934240362812	65	127
43.67596371882086	44.34934240362812	58	127
44.360952380952384	44.97625850340136	65	127
44.360952380952384	44.97625850340136	57	127
44.98789115646259	45.96312925170068	55	127
44.98789115646259	45.96312925170068	65	127
45.97473922902494	46.54362811791383	65	127
45.97473922902494	46.54362811791383	53	127
46.555238095238096	47.55369614512472	65	127
46.555238095238096	47.55369614512472	51	127
47.56530612244898	48.27351473922902	66	127
47.56530612244898	48.27351473922902	50	127
48.28512471655329	49.283582766439906	51	127
48.28512471655329	49.283582766439906	67	127
49.295192743764176	49.58544217687075	62	127
49.295192743764176	49.89891156462585	53	127
49.295192743764176	49.89891156462585	47	127
49.58544217687075	49.91052154195011	65	127
49.91052154195011	50.711609977324265	48	127
49.91052154195011	50.711609977324265	63	127
49.91052154195011	50.711609977324265	53	127
50.72321995464853	51.39659863945578	53	127
50.72321995464853	51.39659863945578	50	127
50.72321995464853	51.08312925170068	59	127
51.08312925170068	51.408208616780044	62	127
51.408208616780044	52.290566893424035	51	127
51.408208616780044	52.290566893424035	60	127
51.408208616780044	52.290566893424035	55	127
52.31378684807256	53.04521541950113	55	127
52.31378684807256	53.04521541950113	58	127
52.31378684807256	53.04521541950113	52	127
53.056825396825396	54.043673469387755	55	127
53.056825396825396	54.043673469387755	58	127
53.056825396825396	54.043673469387755	52	127
54.05528344671202	54.86798185941043	57	127
54.05528344671202	54.86798185941043	77	127
54.05528344671202	54.86798185941043	53	127
54.05528344671202	54.86798185941043	53	127
54.8795918367347	55.63424036281179	77	127
54.8795918367347	55.63424036281179	51	127
54.8795918367347	55.63424036281179	53	127
54.8795918367347	55.63424036281179	67	127
55.64585034013606	56.48176870748299	50	127
55.64585034013606	56.48176870748299	82	127
55.64585034013606	56.48176870748299	65	127
55.64585034013606	56.48176870748299	53	127
56.493378684807254	57.07387755102041	68	127
56.493378684807254	57.07387755102041	82	127
56.493378684807254	57.07387755102041	38	127
56.493378684807254	57.07387755102041	53	127
57.08548752834467	57.88657596371882	83	127
57.08548752834467	57.88657596371882	56	127
57.08548752834467	57.88657596371882	53	127
57.08548752834467	57.88657596371882	38	127
57.909795918367344	58.54834467120181	39	127
57.909795918367344	58.54834467120181	84	127
57.909795918367344	58.54834467120181	55	127
57.909795918367344	58.54834467120181	48	127
58.55995464852608	59.291383219954646	79	127
58.55995464852608	60.324671201814056	60	127
58.55995464852608	59.674512471655326	40	127
58.55995464852608	59.674512471655326	55	127
59.291383219954646	59.68612244897959	82	127
59.68612244897959	60.324671201814056	41	127
59.68612244897959	60.324671201814056	53	127
59.68612244897959	60.324671201814056	80	127
60.336281179138325	60.707800453514736	76	127
60.336281179138325	61.05609977324263	58	127
60.336281179138325	61.05609977324263	43	127
60.336281179138325	61.59015873015873	72	127
60.707800453514736	61.06770975056689	79	127
61.06770975056689	61.59015873015873	44	127
61.06770975056689	61.59015873015873	56	127
61.06770975056689	61.59015873015873	77	127
61.601768707483	62.228707482993194	45	127
61.601768707483	62.228707482993194	75	127
61.601768707483	62.228707482993194	72	127
61.601768707483	62.228707482993194	54	127
62.24031746031746	62.93691609977324	45	127
62.24031746031746	62.93691609977324	54	127
62.24031746031746	62.93691609977324	72	127
62.24031746031746	62.93691609977324	75	127
63.598684807256234	64.62036281179138	74	127
63.598684807256234	64.62036281179138	70	127
63.598684807256234	64.62036281179138	46	127
63.598684807256234	64.62036281179138	53	127
64.65519274376418	65.2124716553288	72	127
64.65519274376418	65.2124716553288	46	127
64.65519274376418	65.2124716553288	51	127
64.65519274376418	65.2124716553288	69	127
64.65519274376418	65.2124716553288	66	127
65.22408163265307	65.95551020408163	50	127
65.22408163265307	65.95551020408163	46	127
65.22408163265307	66.91913832199546	65	127
65.22408163265307	65.95551020408163	70	127
65.96709750566893	66.91913832199546	51	127
65.96709750566893	66.91913832199546	69	127
65.96709750566893	66.91913832199546	48	127
66.93074829931973	67.67378684807257	68	127
66.93074829931973	68.68385487528344	58	127
66.93074829931973	67.67378684807257	50	127
66.93074829931973	67.67378684807257	53	127
67.68539682539682	68.68385487528344	51	127
67.68539682539682	69.34562358276644	55	127
67.68539682539682	68.68385487528344	67	127
68.69546485260771	69.3572335600907	77	127
68.69546485260771	69.97256235827665	70	127
68.69546485260771	69.97256235827665	55	127
69.3572335600907	70.00736961451247	58	127
69.3572335600907	69.97256235827665	75	127
70.00736961451247	71.15675736961451	54	127
70.00736961451247	71.15675736961451	69	127
70.00736961451247	71.15675736961451	60	127
70.00736961451247	73.21174603174603	75	127
71.16839002267574	73.21174603174603	72	127
71.16839002267574	73.21174603174603	53	127
71.16839002267574	73.21174603174603	57	127
74.62816326530613	74.74426303854875	74	127
74.74426303854875	74.8371201814059	75	127
74.84875283446712	74.95324263038549	74	127
74.95324263038549	75.05773242630386	72	127
75.06934240362811	75.16222222222223	70	127
75.16222222222223	75.2667120181406	72	127
75.27832199546485	75.38281179138322	70	127
75.38281179138322	75.49891156462586	69	127
75.49891156462586	76.02136054421769	70	127
75.49891156462586	75.64984126984127	67	127
75.66145124716553	75.77755102040817	69	127
75.77755102040817	75.90526077097506	67	127
75.91687074829932	76.02136054421769	65	127
76.02136054421769	76.12585034013605	63	127
76.02136054421769	76.43931972789116	70	127
76.12585034013605	76.23034013605442	65	127
76.23034013605442	76.33482993197279	63	127
76.33482993197279	76.43931972789116	62	127
76.45092970521542	76.67151927437642	70	127
76.45092970521542	76.55541950113378	60	127
76.55541950113378	76.67151927437642	62	127
76.67151927437642	76.90371882086168	70	127
76.67151927437642	76.78761904761905	60	127
76.78761904761905	76.90371882086168	58	127
76.91532879818594	77.03142857142858	58	127
76.91532879818594	78.19242630385487	75	127
76.91532879818594	78.19242630385487	60	127
76.91532879818594	78.19242630385487	69	127
76.91532879818594	78.19242630385487	53	127
77.04303854875283	77.15913832199547	57	127
77.15913832199547	77.25201814058957	55	127
77.25201814058957	77.34489795918367	57	127
77.35650793650794	77.4609977324263	60	127
77.4609977324263	77.5538775510204	65	127
77.56548752834468	77.64675736961452	69	127
77.64675736961452	77.73963718820862	70	127
77.75122448979592	77.85573696145124	72	127
77.85573696145124	77.97183673469388	71	127
77.97183673469388	78.07632653061225	72	127
78.0879365079365	78.19242630385487	74	127
78.19242630385487	78.30852607709751	75	127
78.32013605442177	78.42462585034014	77	127
78.42462585034014	78.5291156462585	75	127
78.5291156462585	78.6219954648526	74	127
78.6219954648526	78.72648526077097	72	127
78.72648526077097	78.83097505668934	74	127
78.84258503401361	78.93546485260771	72	127
78.93546485260771	79.03995464852608	70	127
79.05156462585035	79.15603174603174	69	127
79.05156462585035	79.49274376417233	72	127
79.15603174603174	79.27215419501134	70	127
79.28374149659864	79.388231292517	69	127
79.388231292517	79.49274376417233	67	127
79.49274376417233	79.58562358276644	65	127
79.49274376417233	79.89907029478458	72	127
79.5972335600907	79.70172335600907	67	127
79.70172335600907	79.78299319727891	65	127
79.79458049886621	79.89907029478458	63	127
79.89907029478458	80.08485260770975	72	127
79.89907029478458	79.99197278911565	62	127
79.99197278911565	80.08485260770975	63	127
80.08485260770975	80.22417233560091	62	127
80.08485260770975	80.3518820861678	72	127
80.22417233560091	80.3518820861678	60	127
80.3518820861678	81.67541950113379	50	127
80.3518820861678	81.67541950113379	70	127
80.3518820861678	80.46798185941043	60	127
80.3518820861678	81.36195011337868	77	127
80.46798185941043	80.58408163265307	58	127
80.59569160997732	80.70018140589569	57	127
80.70018140589569	80.80467120181406	58	127
80.81628117913833	80.92074829931973	62	127
80.92074829931973	81.02526077097505	65	127
81.03687074829932	81.14136054421769	70	127
81.14136054421769	81.25746031746031	74	127
81.25746031746031	81.36195011337868	77	127
81.37356009070295	81.47804988662132	79	127
81.37356009070295	81.47804988662132	75	127
81.47804988662132	81.5592970521542	77	127
81.47804988662132	81.5592970521542	74	127
81.57092970521542	81.67541950113379	72	127
81.57092970521542	81.67541950113379	75	127
81.67541950113379	81.77990929705216	62	127
81.67541950113379	81.77990929705216	74	127
81.67541950113379	81.77990929705216	58	127
81.67541950113379	81.77990929705216	70	127
81.79151927437641	81.88439909297053	60	127
81.79151927437641	81.88439909297053	75	127
81.79151927437641	81.88439909297053	72	127
81.79151927437641	81.88439909297053	57	127
81.88439909297053	82.00049886621315	74	127
81.88439909297053	82.00049886621315	58	127
81.88439909297053	82.00049886621315	62	127
81.88439909297053	82.00049886621315	70	127
82.00049886621315	82.09337868480726	63	127
82.00049886621315	82.09337868480726	60	127
82.00049886621315	82.09337868480726	72	127
82.00049886621315	82.09337868480726	69	127
82.10498866213152	82.20947845804989	70	127
82.10498866213152	82.20947845804989	67	127
82.10498866213152	82.20947845804989	65	127
82.10498866213152	82.20947845804989	62	127
82.20947845804989	82.30235827664399	63	127
82.20947845804989	82.30235827664399	69	127
82.20947845804989	82.30235827664399	65	127
82.20947845804989	82.30235827664399	67	127
82.31396825396826	82.41845804988662	62	127
82.31396825396826	82.41845804988662	70	127
82.31396825396826	82.41845804988662	67	127
82.31396825396826	82.41845804988662	65	127
82.41845804988662	82.52294784580499	72	127
82.41845804988662	82.52294784580499	69	127
82.41845804988662	82.52294784580499	63	127
82.41845804988662	82.52294784580499	60	127
82.53455782312925	82.62743764172336	62	127
82.53455782312925	82.62743764172336	74	127
82.53455782312925	82.62743764172336	70	127
82.53455782312925	82.62743764172336	58	127
82.62743764172336	82.74353741496599	75	127
82.62743764172336	82.74353741496599	57	127
82.62743764172336	82.74353741496599	60	127
82.62743764172336	82.74353741496599	72	127
82.74353741496599	82.87124716553288	58	127
82.74353741496599	82.87124716553288	55	127
82.74353741496599	82.87124716553288	77	127
82.74353741496599	82.87124716553288	74	127
82.88285714285715	82.98734693877552	79	127
82.88285714285715	82.98734693877552	75	127
82.88285714285715	82.98734693877552	57	127
82.88285714285715	82.98734693877552	53	127
82.98734693877552	83.09181405895691	51	127
82.98734693877552	83.09181405895691	81	127
82.98734693877552	83.09181405895691	77	127
82.98734693877552	83.09181405895691	55	127
83.10344671201814	83.20793650793651	50	127
83.10344671201814	83.20793650793651	82	127
83.10344671201814	83.20793650793651	79	127
83.10344671201814	83.20793650793651	53	127
83.2195238095238	83.32401360544218	84	127
83.2195238095238	83.32401360544218	81	127
83.2195238095238	83.32401360544218	51	127
83.2195238095238	83.32401360544218	48	127
83.3356462585034	83.44013605442177	46	127
83.3356462585034	83.44013605442177	86	127
83.3356462585034	83.44013605442177	82	127
83.3356462585034	83.44013605442177	50	127
83.45172335600907	83.67233560090703	48	127
83.45172335600907	83.67233560090703	87	127
83.45172335600907	83.67233560090703	84	127
83.45172335600907	83.67233560090703	45	127
83.73036281179138	84.00902494331066	58	127
83.73036281179138	84.00902494331066	46	127
83.73036281179138	84.00902494331066	86	127
83.73036281179138	84.00902494331066	82	127
84.09027210884354	85.12358276643991	41	127
84.09027210884354	85.12358276643991	60	127
84.09027210884354	85.12358276643991	89	127
84.09027210884354	85.12358276643991	81	127
86.34263038548752	87.35269841269842	41	127
87.36430839002267	90.1971201814059	40	127
87.36430839002267	89.50054421768708	60	127
89.51215419501133	90.1971201814059	55	127
89.51215419501133	91.92702947845805	58	127
90.20875283446712	91.26526077097506	39	127
90.20875283446712	91.26526077097506	54	127
91.27687074829932	91.92702947845805	53	127
91.27687074829932	91.92702947845805	38	127
91.95024943310658	93.09963718820862	50	127
91.95024943310658	93.09963718820862	67	127
91.95024943310658	93.09963718820862	46	127
93.11122448979592	93.95877551020408	48	127
93.11122448979592	94.8643537414966	65	127
93.11122448979592	94.8643537414966	45	127
93.97038548752835	94.8643537414966	59	127
94.8759410430839	95.57256235827664	64	127
94.8759410430839	95.57256235827664	60	127
94.8759410430839	95.57256235827664	43	127
95.58417233560091	97.000589569161	58	127
97.01219954648526	98.30090702947845	69	127
97.01219954648526	99.2645351473923	60	127
97.01219954648526	97.60430839002268	41	127
97.01219954648526	98.30090702947845	53	127
97.61591836734694	98.30090702947845	41	127
98.31251700680272	100.06562358276643	67	127
98.31251700680272	100.87832199546486	52	127
98.31251700680272	99.2645351473923	41	127
99.27614512471655	100.06562358276643	58	127
99.27614512471655	100.06562358276643	41	127
100.0772335600907	100.87832199546486	41	127
100.0772335600907	100.87832199546486	55	127
100.0772335600907	101.56331065759638	84	127
100.88993197278911	101.56331065759638	41	127
100.88993197278911	101.56331065759638	57	127
100.88993197278911	101.56331065759638	51	127
101.5865306122449	103.60666666666667	82	127
101.5865306122449	102.25990929705216	41	127
101.5865306122449	102.25990929705216	58	127
101.5865306122449	102.25990929705216	50	127
102.27151927437642	102.94489795918368	52	127
102.27151927437642	102.94489795918368	41	127
102.27151927437642	103.60666666666667	67	127
102.27151927437642	103.60666666666667	70	127
102.95650793650793	103.60666666666667	52	127
102.95650793650793	103.60666666666667	41	127
103.6298866213152	104.94181405895692	74	127
103.6298866213152	107.21736961451248	41	127
103.6298866213152	107.21736961451248	53	127
103.6298866213152	104.94181405895692	58	127
104.95342403628118	107.21736961451248	72	127
104.95342403628118	107.21736961451248	57	127
107.70498866213151	107.79786848072563	84	127
107.70498866213151	107.79786848072563	72	127
107.70498866213151	107.79786848072563	69	127
107.79786848072563	107.85591836734694	71	127
107.79786848072563	107.85591836734694	68	127
107.79786848072563	107.85591836734694	86	127
107.85591836734694	107.87913832199547	84	127
107.85591836734694	107.87913832199547	69	127
107.85591836734694	107.87913832199547	72	127
107.87913832199547	107.9604081632653	70	127
107.87913832199547	107.9604081632653	67	127
107.87913832199547	107.9604081632653	82	127
107.9604081632653	108.06489795918367	81	127
107.9604081632653	108.3087074829932	69	127
107.9604081632653	108.06489795918367	65	127
108.07650793650794	108.09972789115646	82	127
108.07650793650794	108.09972789115646	64	127
108.09972789115646	108.19260770975056	81	127
108.09972789115646	108.19260770975056	65	127
108.20421768707483	108.3087074829932	64	127
108.20421768707483	108.3087074829932	79	127
108.3087074829932	108.63378684807256	77	127
108.3087074829932	108.63378684807256	65	127
108.3087074829932	108.42480725623582	77	127
108.3087074829932	108.42480725623582	62	127
108.42480725623582	108.51768707482994	79	127
108.42480725623582	108.51768707482994	64	127
108.52929705215419	108.63378684807256	62	127
108.52929705215419	108.63378684807256	77	127
108.63378684807256	108.73827664399093	76	127
108.63378684807256	108.73827664399093	60	127
108.7498866213152	109.07496598639456	65	127
108.7498866213152	108.85437641723357	74	127
108.7498866213152	108.85437641723357	58	127
108.7498866213152	109.07496598639456	77	127
108.85437641723357	108.95886621315192	60	127
108.85437641723357	108.95886621315192	76	127
108.97047619047619	109.07496598639456	58	127
108.97047619047619	109.07496598639456	74	127
109.07496598639456	109.19106575963718	57	127
109.07496598639456	109.19106575963718	72	127
109.19106575963718	109.30716553287982	70	127
109.19106575963718	109.43487528344671	65	127
109.19106575963718	109.43487528344671	77	127
109.19106575963718	109.30716553287982	55	127
109.30716553287982	109.43487528344671	57	127
109.30716553287982	109.43487528344671	72	127
109.43487528344671	109.67868480725623	77	127
109.43487528344671	109.56258503401361	55	127
109.43487528344671	109.67868480725623	65	127
109.43487528344671	109.56258503401361	70	127
109.56258503401361	109.67868480725623	53	127
109.56258503401361	109.67868480725623	69	127
109.6902947845805	109.80639455782313	53	127
109.6902947845805	111.01383219954648	60	127
109.6902947845805	111.01383219954648	82	127
109.6902947845805	109.80639455782313	69	127
109.80639455782313	109.92249433106576	67	127
109.80639455782313	109.92249433106576	52	127
109.92249433106576	110.02698412698413	65	127
109.92249433106576	110.02698412698413	50	127
110.03859410430839	110.14308390022676	67	127
110.03859410430839	110.14308390022676	52	127
110.14308390022676	110.2591836734694	55	127
110.14308390022676	110.2591836734694	70	127
110.2591836734694	110.36367346938775	76	127
110.2591836734694	110.36367346938775	60	127
110.37528344671202	110.47977324263039	79	127
110.37528344671202	110.47977324263039	64	127
110.47977324263039	110.56104308390023	81	127
110.47977324263039	110.56104308390023	65	127
110.57265306122449	110.67714285714285	67	127
110.57265306122449	110.67714285714285	82	127
110.67714285714285	110.78163265306122	64	127
110.67714285714285	110.78163265306122	60	127
110.79324263038549	110.89773242630386	67	127
110.79324263038549	110.89773242630386	52	127
110.89773242630386	111.01383219954648	69	127
110.89773242630386	111.01383219954648	53	127
111.01383219954648	111.11832199546485	55	127
111.01383219954648	111.11832199546485	70	127
111.12993197278911	111.22281179138322	57	127
111.12993197278911	111.22281179138322	72	127
111.22281179138322	111.31569160997732	55	127
111.22281179138322	111.31569160997732	70	127
111.32730158730159	111.43179138321996	69	127
111.32730158730159	111.43179138321996	65	127
111.43179138321996	111.54789115646258	67	127
111.43179138321996	111.54789115646258	64	127
111.55950113378685	111.66399092970522	69	127
111.55950113378685	111.66399092970522	65	127
111.66399092970522	111.79170068027211	64	127
111.66399092970522	111.79170068027211	67	127
111.79170068027211	111.88458049886621	62	127
111.79170068027211	111.88458049886621	65	127
111.89619047619047	111.98907029478458	64	127
111.89619047619047	112.18643990929705	60	127
111.89619047619047	112.18643990929705	79	127
111.89619047619047	111.98907029478458	60	127
111.98907029478458	112.08195011337868	62	127
111.98907029478458	112.08195011337868	65	127
112.09356009070295	112.18643990929705	60	127
112.09356009070295	112.18643990929705	64	127
112.18643990929705	112.27931972789116	58	127
112.18643990929705	112.27931972789116	62	127
112.29092970521542	112.60439909297052	60	127
112.29092970521542	112.39541950113379	60	127
112.29092970521542	112.39541950113379	57	127
112.29092970521542	112.60439909297052	79	127
112.39541950113379	112.49990929705216	62	127
112.39541950113379	112.49990929705216	58	127
112.49990929705216	112.60439909297052	60	127
112.49990929705216	112.60439909297052	57	127
112.61600907029478	112.7088888888889	55	127
112.61600907029478	112.7088888888889	58	127
112.7088888888889	112.94108843537416	60	127
112.7088888888889	112.82498866213152	57	127
112.7088888888889	112.82498866213152	53	127
112.7088888888889	112.94108843537416	79	127
112.82498866213152	112.94108843537416	70	127
112.82498866213152	112.94108843537416	53	127
112.94108843537416	113.16167800453515	60	127
112.94108843537416	113.04557823129252	69	127
112.94108843537416	113.04557823129252	53	127
112.94108843537416	113.16167800453515	79	127
113.04557823129252	113.16167800453515	52	127
113.04557823129252	113.16167800453515	67	127
113.17328798185942	114.43877551020408	57	127
113.17328798185942	113.28938775510204	58	127
113.17328798185942	114.43877551020408	84	127
113.17328798185942	113.28938775510204	67	127
113.30099773242631	113.40548752834466	65	127
113.30099773242631	113.40548752834466	57	127
113.40548752834466	113.49836734693878	64	127
113.40548752834466	113.49836734693878	55	127
113.49836734693878	113.59124716553288	57	127
113.49836734693878	113.59124716553288	65	127
113.59124716553288	113.70734693877552	69	127
113.59124716553288	113.70734693877552	53	127
113.70734693877552	113.80022675736961	72	127
113.70734693877552	113.80022675736961	57	127
113.81183673469388	113.91632653061224	77	127
113.81183673469388	113.91632653061224	60	127
113.91632653061224	114.0208163265306	65	127
113.91632653061224	114.0208163265306	81	127
114.0208163265306	114.12530612244898	84	127
114.0208163265306	114.12530612244898	60	127
114.12530612244898	114.24140589569161	74	127
114.12530612244898	114.24140589569161	58	127
114.24140589569161	114.33428571428571	72	127
114.24140589569161	114.33428571428571	57	127
114.33428571428571	114.43877551020408	70	127
114.33428571428571	114.43877551020408	55	127
114.43877551020408	114.54326530612245	53	127
114.43877551020408	114.54326530612245	60	127
114.43877551020408	114.54326530612245	69	127
114.5548752834467	114.64775510204082	70	127
114.5548752834467	114.64775510204082	53	127
114.5548752834467	114.64775510204082	62	127
114.64775510204082	114.75224489795919	69	127
114.64775510204082	114.75224489795919	53	127
114.64775510204082	114.75224489795919	60	127
114.76385487528344	114.86834467120181	52	127
114.76385487528344	114.86834467120181	67	127
114.76385487528344	114.86834467120181	58	127
114.86834467120181	114.98444444444445	48	127
114.86834467120181	114.98444444444445	57	127
114.86834467120181	114.98444444444445	65	127
114.98444444444445	115.08893424036282	48	127
114.98444444444445	115.08893424036282	64	127
114.98444444444445	115.08893424036282	58	127
115.08893424036282	115.21664399092971	65	127
115.08893424036282	115.21664399092971	50	127
115.08893424036282	115.21664399092971	57	127
115.21664399092971	115.3443537414966	67	127
115.21664399092971	115.3443537414966	55	127
115.21664399092971	115.3443537414966	52	127
115.35596371882086	115.46045351473923	53	127
115.35596371882086	115.46045351473923	53	127
115.35596371882086	115.46045351473923	69	127
115.46045351473923	115.55333333333333	70	127
115.46045351473923	115.55333333333333	55	127
115.46045351473923	115.55333333333333	52	127
115.5649433106576	115.66943310657597	72	127
115.5649433106576	115.66943310657597	50	127
115.5649433106576	115.66943310657597	57	127
115.66943310657597	115.78553287981859	74	127
115.66943310657597	115.78553287981859	58	127
115.66943310657597	115.78553287981859	48	127
115.78553287981859	115.89002267573696	76	127
115.78553287981859	115.89002267573696	60	127
115.78553287981859	115.89002267573696	46	127
115.89002267573696	116.0061224489796	77	127
115.89002267573696	116.0061224489796	45	127
115.89002267573696	116.0061224489796	62	127
116.0061224489796	116.13383219954649	64	127
116.0061224489796	116.13383219954649	43	127
116.0061224489796	116.13383219954649	79	127
116.14544217687074	116.24993197278911	81	127
116.14544217687074	116.24993197278911	65	127
116.14544217687074	116.24993197278911	41	127
116.24993197278911	116.43569160997733	82	127
116.24993197278911	116.43569160997733	67	127
116.24993197278911	116.43569160997733	40	127
116.49374149659864	116.65628117913832	65	127
116.49374149659864	116.65628117913832	41	127
116.49374149659864	116.65628117913832	81	127
116.71433106575964	116.84204081632653	60	127
116.71433106575964	116.84204081632653	69	127
116.71433106575964	116.84204081632653	53	127
116.84204081632653	116.9465306122449	58	127
116.84204081632653	116.9465306122449	67	127
116.84204081632653	116.9465306122449	58	127
116.95814058956915	117.06263038548752	60	127
116.95814058956915	117.06263038548752	69	127
116.95814058956915	117.06263038548752	57	127
117.06263038548752	117.16712018140589	70	127
117.06263038548752	117.16712018140589	62	127
117.06263038548752	117.16712018140589	55	127
117.17873015873016	117.27160997732426	63	127
117.17873015873016	117.27160997732426	72	127
117.17873015873016	117.27160997732426	53	127
117.27160997732426	117.37609977324263	51	127
117.27160997732426	117.37609977324263	65	127
117.27160997732426	117.37609977324263	74	127
117.3877097505669	117.480589569161	67	127
117.3877097505669	117.480589569161	50	127
117.3877097505669	117.480589569161	75	127
117.480589569161	117.59668934240362	77	127
117.480589569161	117.59668934240362	69	127
117.480589569161	117.59668934240362	48	127
117.59668934240362	117.70117913832199	79	127
117.59668934240362	117.70117913832199	70	127
117.59668934240362	117.70117913832199	46	127
117.71278911564626	117.81727891156463	81	127
117.71278911564626	117.81727891156463	45	127
117.71278911564626	117.81727891156463	72	127
117.81727891156463	117.921768707483	74	127
117.81727891156463	117.921768707483	43	127
117.81727891156463	117.921768707483	82	127
117.93337868480725	118.03786848072562	84	127
117.93337868480725	118.03786848072562	75	127
117.93337868480725	118.03786848072562	41	127
118.03786848072562	118.20040816326531	77	127
118.03786848072562	118.14235827664399	86	127
118.03786848072562	118.20040816326531	79	127
118.03786848072562	118.20040816326531	41	127
118.15396825396826	118.25845804988663	87	127
118.25845804988663	118.43260770975057	53	127
118.25845804988663	118.38616780045352	86	127
118.25845804988663	118.43260770975057	81	127
118.25845804988663	118.43260770975057	75	127
118.38616780045352	118.49065759637188	84	127
118.50226757369614	118.60675736961451	82	127
118.50226757369614	118.60675736961451	50	127
118.50226757369614	118.60675736961451	58	127
118.60675736961451	118.71124716553288	48	127
118.60675736961451	118.71124716553288	57	127
118.60675736961451	118.71124716553288	84	127
118.72285714285714	118.8273469387755	58	127
118.72285714285714	118.8273469387755	82	127
118.72285714285714	118.8273469387755	50	127
118.8273469387755	118.9550566893424	51	127
118.8273469387755	118.9550566893424	81	127
118.8273469387755	118.9550566893424	60	127
118.96666666666667	119.29174603174603	46	127
118.96666666666667	119.07115646258504	53	127
118.96666666666667	119.07115646258504	79	127
118.96666666666667	119.07115646258504	62	127
119.07115646258504	119.18725623582766	60	127
119.07115646258504	119.18725623582766	81	127
119.07115646258504	119.18725623582766	51	127
119.18725623582766	119.29174603174603	62	127
119.18725623582766	119.29174603174603	79	127
119.18725623582766	119.29174603174603	53	127
119.3033560090703	119.40784580498867	55	127
119.3033560090703	119.40784580498867	63	127
119.3033560090703	119.40784580498867	77	127
119.40784580498867	119.50072562358277	57	127
119.40784580498867	119.72131519274376	46	127
119.40784580498867	119.50072562358277	65	127
119.40784580498867	119.50072562358277	75	127
119.51233560090704	119.61682539682539	63	127
119.51233560090704	119.61682539682539	77	127
119.51233560090704	119.61682539682539	55	127
119.61682539682539	119.72131519274376	65	127
119.61682539682539	119.72131519274376	57	127
119.61682539682539	119.72131519274376	75	127
119.73292517006803	119.8374149659864	74	127
119.73292517006803	119.8374149659864	67	127
119.73292517006803	119.8374149659864	58	127
119.8374149659864	119.94190476190477	72	127
119.8374149659864	119.99995464852607	46	127
119.8374149659864	119.94190476190477	60	127
119.8374149659864	119.94190476190477	69	127
119.94190476190477	120.05800453514739	58	127
119.94190476190477	120.05800453514739	74	127
119.94190476190477	120.05800453514739	67	127
120.05800453514739	120.17410430839003	72	127
120.05800453514739	120.23215419501133	46	127
120.05800453514739	120.17410430839003	60	127
120.05800453514739	120.17410430839003	69	127
120.18571428571428	120.29020408163265	62	127
120.18571428571428	120.29020408163265	70	127
120.31342403628118	120.42952380952381	72	127
120.31342403628118	121.59052154195011	51	127
120.31342403628118	120.42952380952381	70	127
120.31342403628118	120.42952380952381	55	127
120.42952380952381	120.54562358276644	53	127
120.42952380952381	120.54562358276644	69	127
120.42952380952381	120.54562358276644	72	127
120.54562358276644	120.65011337868481	67	127
120.54562358276644	120.65011337868481	72	127
120.54562358276644	120.65011337868481	52	127
120.66172335600908	120.76621315192743	72	127
120.66172335600908	120.76621315192743	69	127
120.66172335600908	120.76621315192743	53	127
120.76621315192743	120.8707029478458	57	127
120.76621315192743	120.8707029478458	72	127
120.8707029478458	120.98680272108844	77	127
120.8707029478458	120.98680272108844	65	127
120.8707029478458	120.98680272108844	60	127
120.9984126984127	121.0912925170068	65	127
120.9984126984127	121.0912925170068	81	127
120.9984126984127	121.0912925170068	65	127
121.0912925170068	121.17256235827665	82	127
121.0912925170068	121.17256235827665	67	127
121.0912925170068	121.17256235827665	65	127
121.1841723356009	121.28866213151927	69	127
121.1841723356009	121.28866213151927	84	127
121.1841723356009	121.28866213151927	65	127
121.28866213151927	121.38154195011337	82	127
121.28866213151927	121.38154195011337	67	127
121.28866213151927	121.38154195011337	65	127
121.39315192743764	121.47442176870749	84	127
121.39315192743764	121.47442176870749	65	127
121.39315192743764	121.47442176870749	69	127
121.47442176870749	121.59052154195011	65	127
121.47442176870749	121.59052154195011	86	127
121.47442176870749	121.59052154195011	70	127
121.59052154195011	121.68340136054422	72	127
121.59052154195011	121.68340136054422	87	127
121.59052154195011	121.68340136054422	65	127
121.69501133786848	121.79950113378685	89	127
121.69501133786848	121.79950113378685	55	127
121.69501133786848	121.79950113378685	74	127
121.79950113378685	121.90399092970522	87	127
121.79950113378685	121.90399092970522	72	127
121.79950113378685	121.90399092970522	57	127
121.91560090702947	122.04331065759636	58	127
121.91560090702947	122.04331065759636	70	127
121.91560090702947	122.04331065759636	86	127
122.04331065759636	122.14780045351473	84	127
122.04331065759636	122.14780045351473	60	127
122.04331065759636	122.14780045351473	69	127
122.159410430839	122.26390022675737	70	127
122.159410430839	122.26390022675737	86	127
122.159410430839	122.26390022675737	58	127
122.26390022675737	122.38	84	127
122.26390022675737	122.38	60	127
122.26390022675737	122.38	69	127
122.38	122.48448979591836	82	127
122.38	122.48448979591836	67	127
122.38	122.48448979591836	62	127
122.49609977324263	122.58897959183673	63	127
122.49609977324263	122.58897959183673	81	127
122.49609977324263	122.7863492063492	48	127
122.49609977324263	122.58897959183673	65	127
122.58897959183673	122.68185941043085	62	127
122.58897959183673	122.68185941043085	82	127
122.58897959183673	122.68185941043085	67	127
122.6934693877551	122.7863492063492	65	127
122.6934693877551	122.7863492063492	81	127
122.6934693877551	122.7863492063492	63	127
122.7863492063492	122.87922902494331	79	127
122.7863492063492	122.87922902494331	63	127
122.7863492063492	122.87922902494331	65	127
122.89083900226757	123.20430839002267	48	127
122.89083900226757	122.98371882086168	77	127
122.89083900226757	122.98371882086168	62	127
122.89083900226757	122.98371882086168	67	127
122.98371882086168	123.0998185941043	65	127
122.98371882086168	123.0998185941043	79	127
122.98371882086168	123.0998185941043	63	127
123.0998185941043	123.20430839002267	62	127
123.0998185941043	123.20430839002267	77	127
123.0998185941043	123.20430839002267	67	127
123.21591836734694	123.34362811791384	75	127
123.21591836734694	123.34362811791384	69	127
123.21591836734694	123.34362811791384	60	127
123.34362811791384	123.45972789115646	58	127
123.34362811791384	123.45972789115646	74	127
123.34362811791384	123.45972789115646	70	127
123.34362811791384	123.51777777777778	48	127
123.45972789115646	123.5758276643991	75	127
123.45972789115646	123.5758276643991	69	127
123.45972789115646	123.5758276643991	60	127
123.5758276643991	123.68031746031745	74	127
123.5758276643991	123.73836734693877	48	127
123.5758276643991	123.68031746031745	70	127
123.5758276643991	123.68031746031745	58	127
123.68031746031745	123.79641723356009	57	127
123.68031746031745	123.79641723356009	72	127
123.80802721088435	124.6091156462585	53	127
123.80802721088435	123.91251700680272	63	127
123.80802721088435	123.91251700680272	67	127
123.80802721088435	123.91251700680272	72	127
123.91251700680272	123.99378684807256	65	127
123.91251700680272	123.99378684807256	62	127
123.91251700680272	123.99378684807256	70	127
124.00539682539683	124.09827664399093	60	127
124.00539682539683	124.09827664399093	69	127
124.00539682539683	124.09827664399093	63	127
124.09827664399093	124.1679365079365	70	127
124.09827664399093	124.1679365079365	62	127
124.09827664399093	124.1679365079365	65	127
124.17954648526077	124.28403628117914	65	127
124.17954648526077	124.28403628117914	70	127
124.17954648526077	124.28403628117914	74	127
124.28403628117914	124.38852607709751	65	127
124.28403628117914	124.38852607709751	77	127
124.28403628117914	124.38852607709751	62	127
124.38852607709751	124.49301587301588	60	127
124.38852607709751	124.49301587301588	81	127
124.38852607709751	124.49301587301588	63	127
124.50462585034013	124.6091156462585	62	127
124.50462585034013	124.6091156462585	82	127
124.50462585034013	124.6091156462585	58	127
124.6091156462585	124.71360544217687	72	127
124.6091156462585	124.71360544217687	63	127
124.6091156462585	125.02707482993198	53	127
124.6091156462585	124.71360544217687	67	127
124.72521541950114	124.8297052154195	70	127
124.72521541950114	124.8297052154195	62	127
124.72521541950114	124.8297052154195	65	127
124.8297052154195	124.92258503401361	69	127
124.8297052154195	124.92258503401361	63	127
124.8297052154195	124.92258503401361	60	127
124.93419501133786	125.02707482993198	62	127
124.93419501133786	125.02707482993198	70	127
124.93419501133786	125.02707482993198	65	127
125.02707482993198	125.1431746031746	68	127
125.02707482993198	125.1431746031746	74	127
125.02707482993198	125.20122448979592	53	127
125.02707482993198	125.1431746031746	65	127
125.1431746031746	125.25927437641724	62	127
125.1431746031746	125.25927437641724	77	127
125.1431746031746	125.25927437641724	65	127
125.2708843537415	125.38698412698413	63	127
125.2708843537415	125.38698412698413	79	127
125.2708843537415	125.38698412698413	60	127
125.2708843537415	125.44503401360544	53	127
125.38698412698413	125.4914739229025	80	127
125.38698412698413	125.4914739229025	59	127
125.38698412698413	125.4914739229025	62	127
125.50308390022676	125.60757369614512	72	127
125.50308390022676	125.60757369614512	68	127
125.50308390022676	126.38544217687075	53	127
125.50308390022676	125.60757369614512	53	127
125.60757369614512	125.72367346938775	71	127
125.60757369614512	125.72367346938775	56	127
125.60757369614512	125.72367346938775	62	127
125.73528344671202	125.83977324263039	70	127
125.73528344671202	125.83977324263039	65	127
125.73528344671202	125.83977324263039	62	127
125.83977324263039	125.95587301587301	71	127
125.83977324263039	125.95587301587301	65	127
125.83977324263039	125.95587301587301	62	127
125.95587301587301	126.06036281179138	74	127
125.95587301587301	126.06036281179138	65	127
125.95587301587301	126.06036281179138	68	127
126.07197278911565	126.16485260770975	65	127
126.07197278911565	126.16485260770975	62	127
126.07197278911565	126.16485260770975	77	127
126.16485260770975	126.26934240362812	79	127
126.16485260770975	126.26934240362812	63	127
126.16485260770975	126.26934240362812	60	127
126.28095238095239	126.38544217687075	62	127
126.28095238095239	126.38544217687075	80	127
126.28095238095239	126.38544217687075	59	127
126.38544217687075	126.84984126984126	51	127
126.38544217687075	126.51315192743765	79	127
126.38544217687075	126.51315192743765	60	127
126.38544217687075	126.51315192743765	55	127
126.5247619047619	126.62925170068027	55	127
126.5247619047619	126.62925170068027	81	127
126.5247619047619	126.62925170068027	67	127
126.62925170068027	126.74535147392291	55	127
126.62925170068027	126.74535147392291	83	127
126.62925170068027	126.74535147392291	67	127
126.74535147392291	126.84984126984126	84	127
126.74535147392291	126.84984126984126	55	127
126.74535147392291	126.84984126984126	67	127
126.86145124716553	126.9659410430839	86	127
126.86145124716553	126.9659410430839	67	127
126.86145124716553	127.04721088435375	50	127
126.86145124716553	126.9659410430839	65	127
126.9659410430839	127.04721088435375	67	127
126.9659410430839	127.04721088435375	87	127
126.9659410430839	127.04721088435375	65	127
127.058820861678	127.16331065759637	89	127
127.058820861678	127.16331065759637	67	127
127.058820861678	127.16331065759637	63	127
127.058820861678	127.26780045351474	48	127
127.16331065759637	127.26780045351474	67	127
127.16331065759637	127.26780045351474	91	127
127.16331065759637	127.26780045351474	63	127
127.27941043083901	127.38390022675738	58	127
127.27941043083901	127.70897959183674	50	127
127.27941043083901	127.38390022675738	70	127
127.27941043083901	127.44195011337868	89	127
127.38390022675738	127.48839002267573	58	127
127.38390022675738	127.48839002267573	65	127
127.48839002267573	127.5928798185941	58	127
127.48839002267573	127.5928798185941	65	127
127.48839002267573	127.65092970521542	91	127
127.60448979591837	127.70897959183674	65	127
127.60448979591837	127.70897959183674	58	127
127.70897959183674	127.8134693877551	63	127
127.70897959183674	127.92956916099773	48	127
127.70897959183674	127.87151927437641	93	127
127.70897959183674	127.8134693877551	65	127
127.82507936507936	127.92956916099773	65	127
127.82507936507936	127.92956916099773	63	127
127.92956916099773	128.0340589569161	62	127
127.92956916099773	128.0340589569161	53	127
127.92956916099773	128.09208616780046	94	127
127.92956916099773	128.15015873015872	46	127
128.04566893424035	128.15015873015872	62	127
128.04566893424035	128.15015873015872	53	127
128.15015873015872	128.60292517006803	53	127
128.15015873015872	128.26625850340136	79	127
128.15015873015872	128.26625850340136	61	127
128.15015873015872	128.26625850340136	58	127
128.26625850340136	128.382358276644	58	127
128.26625850340136	128.382358276644	77	127
128.26625850340136	128.382358276644	61	127
128.382358276644	128.49843537414966	76	127
128.382358276644	128.49843537414966	58	127
128.382358276644	128.49843537414966	62	127
128.49843537414966	128.60292517006803	77	127
128.49843537414966	128.60292517006803	62	127
128.49843537414966	128.60292517006803	58	127
128.61455782312925	128.7074149659864	63	127
128.61455782312925	128.7074149659864	81	127
128.61455782312925	128.7074149659864	57	127
128.61455782312925	129.05573696145126	41	127
128.71904761904761	128.82353741496598	63	127
128.71904761904761	128.82353741496598	57	127
128.71904761904761	128.82353741496598	84	127
128.83514739229025	128.93963718820862	60	127
128.83514739229025	128.93963718820862	63	127
128.83514739229025	128.93963718820862	87	127
128.93963718820862	129.05573696145126	63	127
128.93963718820862	129.05573696145126	81	127
128.93963718820862	129.05573696145126	60	127
129.0673469387755	129.17183673469387	86	127
129.0673469387755	129.24149659863946	46	127
129.0673469387755	129.29954648526078	62	127
129.0673469387755	129.24149659863946	58	127
129.29954648526078	129.4504761904762	45	127
129.29954648526078	129.41564625850341	85	127
129.29954648526078	129.4504761904762	53	127
129.41564625850341	129.5201133786848	87	127
129.5201133786848	129.61301587301588	86	127
129.5201133786848	129.6710657596372	53	127
129.5201133786848	129.6710657596372	46	127
129.72909297052155	129.83360544217686	81	127
129.72909297052155	129.89165532879818	48	127
129.72909297052155	129.89165532879818	51	127
129.83360544217686	129.9497052154195	84	127
129.9497052154195	130.10063492063492	53	127
129.9497052154195	130.10063492063492	50	127
129.9497052154195	130.05419501133787	82	127
130.15868480725624	130.32122448979592	58	127
130.15868480725624	130.32122448979592	50	127
130.15868480725624	130.27478458049887	77	127
130.27478458049887	130.37927437641724	80	127
130.37927437641724	130.53020408163266	51	127
130.37927437641724	130.47215419501134	79	127
130.37927437641724	130.53020408163266	58	127
130.58825396825398	130.77401360544218	58	127
130.58825396825398	130.7043537414966	74	127
130.58825396825398	130.77401360544218	53	127
130.7043537414966	130.8320634920635	77	127
130.8320634920635	130.94816326530614	55	127
130.8320634920635	131.0526530612245	55	127
130.8320634920635	131.0526530612245	75	127
130.8320634920635	130.99460317460318	58	127
131.06426303854875	131.1687528344671	59	127
131.06426303854875	131.25002267573697	62	127
131.1687528344671	131.3080725623583	62	127
131.3080725623583	131.47061224489795	63	127
131.3080725623583	131.4125396825397	60	127
131.54027210884354	131.7144217687075	64	127
131.54027210884354	131.65637188208618	55	127
131.65637188208618	131.77244897959184	58	127
131.77244897959184	131.88857142857142	57	127
131.77244897959184	131.93501133786847	65	127
131.9930612244898	132.16721088435375	70	127
131.9930612244898	132.16721088435375	67	127
131.9930612244898	132.1207709750567	76	127
132.1207709750567	132.22526077097507	79	127
132.22526077097507	132.399410430839	69	127
132.22526077097507	132.399410430839	72	127
132.22526077097507	132.35297052154195	77	127
132.45746031746032	132.57356009070295	72	127
132.45746031746032	132.62	65	127
132.45746031746032	132.57356009070295	69	127
132.57356009070295	132.68963718820862	72	127
132.57356009070295	132.68963718820862	75	127
132.68963718820862	132.794126984127	74	127
132.68963718820862	132.89861678004536	70	127
132.68963718820862	132.840589569161	46	127
132.68963718820862	132.840589569161	58	127
132.91024943310657	133.07278911564626	45	127
132.91024943310657	133.07278911564626	53	127
132.91024943310657	133.01473922902494	85	127
133.01473922902494	133.13083900226758	87	127
133.13083900226758	133.29337868480727	53	127
133.13083900226758	133.23532879818595	86	127
133.13083900226758	133.29337868480727	46	127
133.35142857142858	133.4675283446712	81	127
133.35142857142858	133.51396825396824	60	127
133.35142857142858	133.51396825396824	63	127
133.4675283446712	133.57201814058956	84	127
133.57201814058956	133.74616780045352	65	127
133.57201814058956	133.74616780045352	62	127
133.57201814058956	133.69972789115647	82	127
133.80421768707484	133.96673469387756	50	127
133.80421768707484	133.96673469387756	58	127
133.80421768707484	133.9202947845805	77	127
133.9202947845805	134.02480725623582	80	127
134.02480725623582	134.21056689342404	79	127
134.02480725623582	134.21056689342404	51	127
134.02480725623582	134.21056689342404	58	127
134.2802267573696	134.43113378684808	65	127
134.2802267573696	134.38471655328797	74	127
134.2802267573696	134.43113378684808	70	127
134.38471655328797	134.5008163265306	77	127
134.5008163265306	134.69818594104308	70	127
134.5008163265306	134.65174603174603	75	127
134.5008163265306	134.65174603174603	67	127
134.70979591836735	134.81428571428572	59	127
134.70979591836735	134.87233560090704	50	127
134.81428571428572	134.93038548752835	62	127
134.93038548752835	135.09290249433107	60	127
134.93038548752835	135.09290249433107	51	127
135.15097505668933	135.27868480725624	67	127
135.15097505668933	135.31351473922902	52	127
135.15097505668933	135.31351473922902	60	127
135.27868480725624	135.37156462585034	70	127
135.37156462585034	135.5573015873016	60	127
135.37156462585034	135.5573015873016	53	127
135.37156462585034	135.5573015873016	69	127
135.61537414965986	135.74308390022676	76	127
135.61537414965986	135.7895238095238	70	127
135.61537414965986	135.7895238095238	67	127
135.74308390022676	135.85916099773243	79	127
135.85916099773243	136.01011337868482	69	127
135.85916099773243	136.01011337868482	77	127
135.85916099773243	136.01011337868482	72	127
136.07977324263038	136.2655328798186	77	127
136.07977324263038	136.2655328798186	65	127
136.07977324263038	136.32356009070295	57	127
136.07977324263038	136.2074829931973	60	127
136.2074829931973	136.33519274376417	63	127
136.33519274376417	136.43968253968254	62	127
136.33519274376417	136.78798185941042	58	127
136.33519274376417	136.78798185941042	65	127
136.33519274376417	136.78798185941042	86	127
136.43968253968254	136.55578231292517	60	127
136.55578231292517	136.6718820861678	58	127
136.68349206349205	136.78798185941042	57	127
136.78798185941042	136.90408163265306	58	127
136.91569160997733	137.0201814058957	60	127
137.0201814058957	137.14789115646258	62	127
137.0201814058957	137.1130612244898	79	127
137.1130612244898	137.19433106575963	77	127
137.15950113378685	137.26399092970522	63	127
137.19433106575963	137.26399092970522	76	127
137.26399092970522	137.38009070294785	45	127
137.26399092970522	137.4265306122449	65	127
137.26399092970522	137.6819501133787	77	127
137.26399092970522	137.38009070294785	84	127
137.38009070294785	137.48458049886622	82	127
137.38009070294785	137.48458049886622	43	127
137.48458049886622	137.57746031746032	81	127
137.48458049886622	137.57746031746032	41	127
137.48458049886622	137.57746031746032	65	127
137.57746031746032	137.6819501133787	67	127
137.57746031746032	137.6819501133787	40	127
137.57746031746032	137.6819501133787	79	127
137.69356009070296	137.79804988662133	81	127
137.69356009070296	137.79804988662133	65	127
137.69356009070296	137.79804988662133	41	127
137.79804988662133	137.9025396825397	82	127
137.79804988662133	137.9025396825397	63	127
137.79804988662133	137.9025396825397	43	127
137.91414965986394	138.0186394557823	45	127
137.91414965986394	138.0186394557823	84	127
137.91414965986394	137.98380952380953	67	127
137.91414965986394	138.0186394557823	62	127
137.98380952380953	138.06507936507936	65	127
138.0186394557823	138.13473922902494	86	127
138.0186394557823	138.13473922902494	46	127
138.0186394557823	138.13473922902494	60	127
138.06507936507936	138.13473922902494	64	127
138.13473922902494	138.61074829931974	46	127
138.13473922902494	138.61074829931974	65	127
138.13473922902494	138.61074829931974	86	127
138.13473922902494	138.25083900226758	62	127
138.25083900226758	138.37854875283446	60	127
138.37854875283446	138.4946485260771	58	127
138.50625850340137	138.61074829931974	57	127
138.61074829931974	138.7152380952381	58	127
138.7268253968254	138.85455782312926	60	127
138.85455782312926	138.9706575963719	62	127
138.85455782312926	138.93582766439908	79	127
138.93582766439908	139.00548752834467	77	127
138.9706575963719	139.07514739229026	63	127
139.00548752834467	139.07514739229026	76	127
139.07514739229026	139.51632653061225	77	127
139.07514739229026	139.19124716553287	84	127
139.07514739229026	139.19124716553287	45	127
139.07514739229026	139.23766439909298	65	127
139.19124716553287	139.29573696145124	82	127
139.19124716553287	139.29573696145124	43	127
139.3073469387755	139.41183673469388	81	127
139.3073469387755	139.41183673469388	65	127
139.3073469387755	139.41183673469388	41	127
139.41183673469388	139.51632653061225	79	127
139.41183673469388	139.51632653061225	67	127
139.41183673469388	139.51632653061225	40	127
139.52793650793652	139.62081632653062	81	127
139.52793650793652	139.62081632653062	41	127
139.52793650793652	139.62081632653062	65	127
139.62081632653062	139.73691609977325	63	127
139.62081632653062	139.73691609977325	82	127
139.62081632653062	139.73691609977325	43	127
139.73691609977325	139.84140589569162	45	127
139.73691609977325	139.84140589569162	84	127
139.73691609977325	139.84140589569162	62	127
139.84140589569162	139.95750566893423	86	127
139.84140589569162	139.95750566893423	46	127
139.84140589569162	139.95750566893423	60	127
139.95750566893423	140.1897052154195	86	127
139.95750566893423	140.1897052154195	74	127
139.95750566893423	140.1897052154195	50	127
139.95750566893423	140.1897052154195	62	127
140.24775510204083	140.3522448979592	62	127
140.24775510204083	140.3522448979592	82	127
140.24775510204083	140.3522448979592	74	127
140.24775510204083	140.3522448979592	50	127
140.36385487528344	140.4683446712018	51	127
140.36385487528344	140.4683446712018	81	127
140.36385487528344	140.4683446712018	75	127
140.36385487528344	140.4683446712018	63	127
140.4683446712018	140.57283446712017	50	127
140.4683446712018	140.57283446712017	82	127
140.4683446712018	140.57283446712017	74	127
140.4683446712018	140.57283446712017	62	127
140.58444444444444	140.6889342403628	60	127
140.58444444444444	140.6889342403628	84	127
140.58444444444444	140.6889342403628	72	127
140.58444444444444	140.6889342403628	48	127
140.6889342403628	140.80503401360545	46	127
140.6889342403628	140.80503401360545	86	127
140.6889342403628	140.80503401360545	70	127
140.6889342403628	140.80503401360545	58	127
140.80503401360545	140.90952380952382	45	127
140.80503401360545	140.90952380952382	87	127
140.80503401360545	140.90952380952382	69	127
140.80503401360545	140.90952380952382	57	127
140.92111111111112	141.08367346938775	70	127
140.92111111111112	141.08367346938775	86	127
140.92111111111112	141.08367346938775	58	127
140.92111111111112	141.08367346938775	46	127
141.14172335600907	141.24621315192744	70	127
141.14172335600907	141.24621315192744	79	127
141.14172335600907	141.24621315192744	58	127
141.14172335600907	141.24621315192744	46	127
141.24621315192744	141.3507029478458	60	127
141.24621315192744	141.3507029478458	48	127
141.24621315192744	141.3507029478458	78	127
141.24621315192744	141.3507029478458	72	127
141.36231292517007	141.45519274376417	58	127
141.36231292517007	141.45519274376417	79	127
141.36231292517007	141.45519274376417	46	127
141.36231292517007	141.45519274376417	70	127
141.45519274376417	141.55968253968254	57	127
141.45519274376417	141.55968253968254	81	127
141.45519274376417	141.55968253968254	69	127
141.45519274376417	141.55968253968254	45	127
141.55968253968254	141.65256235827664	43	127
141.55968253968254	141.65256235827664	82	127
141.55968253968254	141.65256235827664	67	127
141.55968253968254	141.65256235827664	55	127
141.6641723356009	141.76866213151928	84	127
141.6641723356009	141.76866213151928	42	127
141.6641723356009	141.76866213151928	54	127
141.6641723356009	141.76866213151928	66	127
141.76866213151928	141.9195918367347	67	127
141.76866213151928	141.9195918367347	43	127
141.76866213151928	141.9195918367347	55	127
141.76866213151928	141.9195918367347	82	127
141.97764172335602	142.08213151927438	55	127
141.97764172335602	142.08213151927438	76	127
141.97764172335602	142.08213151927438	67	127
141.97764172335602	142.08213151927438	43	127
142.09374149659865	142.26789115646258	45	127
142.09374149659865	142.26789115646258	74	127
142.09374149659865	142.26789115646258	69	127
142.09374149659865	142.26789115646258	57	127
142.26789115646258	142.38399092970522	43	127
142.26789115646258	142.38399092970522	76	127
142.26789115646258	142.38399092970522	67	127
142.26789115646258	142.38399092970522	55	127
142.38399092970522	142.47687074829932	53	127
142.38399092970522	142.47687074829932	77	127
142.38399092970522	142.47687074829932	65	127
142.38399092970522	142.47687074829932	41	127
142.4884807256236	142.59297052154196	40	127
142.4884807256236	142.59297052154196	79	127
142.4884807256236	142.59297052154196	64	127
142.4884807256236	142.59297052154196	52	127
142.59297052154196	142.69746031746033	38	127
142.59297052154196	142.69746031746033	81	127
142.59297052154196	142.69746031746033	62	127
142.59297052154196	142.69746031746033	50	127
142.70904761904762	142.87160997732425	48	127
142.70904761904762	142.87160997732425	82	127
142.70904761904762	142.87160997732425	60	127
142.70904761904762	142.87160997732425	36	127
142.92965986394557	143.03414965986394	60	127
142.92965986394557	143.03414965986394	48	127
142.92965986394557	143.03414965986394	82	127
142.92965986394557	143.03414965986394	72	127
143.03414965986394	143.15024943310658	74	127
143.03414965986394	143.15024943310658	81	127
143.03414965986394	143.15024943310658	50	127
143.03414965986394	143.15024943310658	62	127
143.15024943310658	143.25473922902495	60	127
143.15024943310658	143.25473922902495	82	127
143.15024943310658	143.25473922902495	48	127
143.15024943310658	143.25473922902495	72	127
143.26634920634922	143.38244897959183	70	127
143.26634920634922	143.38244897959183	46	127
143.26634920634922	143.38244897959183	84	127
143.26634920634922	143.38244897959183	58	127
143.38244897959183	143.4869387755102	69	127
143.38244897959183	143.4869387755102	57	127
143.38244897959183	143.4869387755102	45	127
143.38244897959183	143.4869387755102	86	127
143.49854875283447	143.60303854875283	67	127
143.49854875283447	143.60303854875283	55	127
143.49854875283447	143.60303854875283	43	127
143.49854875283447	143.60303854875283	88	127
143.60303854875283	143.7771882086168	65	127
143.60303854875283	143.7771882086168	41	127
143.60303854875283	143.7771882086168	89	127
143.60303854875283	143.7771882086168	53	127
143.84684807256235	144.00938775510204	72	127
143.84684807256235	144.00938775510204	60	127
143.84684807256235	144.00938775510204	84	127
144.07904761904763	144.2764172335601	69	127
144.07904761904763	144.2764172335601	57	127
144.07904761904763	144.2764172335601	81	127
144.33446712018142	144.5202267573696	65	127
144.33446712018142	144.5202267573696	77	127
144.33446712018142	144.5202267573696	53	127
144.57827664399093	144.75240362811792	63	127
144.57827664399093	144.75240362811792	51	127
144.57827664399093	144.75240362811792	75	127
144.82208616780045	144.9962358276644	72	127
144.82208616780045	144.9962358276644	60	127
144.82208616780045	144.9962358276644	48	127
145.05428571428573	145.21680272108844	45	127
145.05428571428573	145.21680272108844	57	127
145.05428571428573	145.21680272108844	69	127
145.2748752834467	145.4374149659864	53	127
145.2748752834467	145.4374149659864	65	127
145.2748752834467	145.4374149659864	41	127
145.51868480725625	145.69283446712018	63	127
145.51868480725625	145.69283446712018	51	127
145.51868480725625	145.69283446712018	39	127
145.76249433106577	145.92503401360545	62	127
145.76249433106577	145.92503401360545	38	127
145.76249433106577	145.92503401360545	50	127
145.99469387755101	146.1572335600907	53	127
145.99469387755101	146.1572335600907	41	127
145.99469387755101	146.1572335600907	65	127
146.21528344671202	146.3778231292517	70	127
146.21528344671202	146.3778231292517	46	127
146.21528344671202	146.3778231292517	58	127
146.44748299319727	146.61002267573696	50	127
146.44748299319727	146.61002267573696	62	127
146.44748299319727	146.61002267573696	74	127
146.66807256235828	146.85380952380953	65	127
146.66807256235828	146.85380952380953	53	127
146.66807256235828	146.85380952380953	77	127
146.66807256235828	146.85380952380953	65	127
146.9118820861678	147.0628117913832	70	127
146.9118820861678	147.0628117913832	58	127
146.9118820861678	147.0628117913832	82	127
146.9118820861678	147.0628117913832	70	127
147.12086167800453	147.28340136054422	64	127
147.12086167800453	147.28340136054422	52	127
147.12086167800453	147.28340136054422	76	127
147.12086167800453	147.28340136054422	64	127
147.3530612244898	147.51557823129252	53	127
147.3530612244898	147.51557823129252	65	127
147.3530612244898	147.51557823129252	65	127
147.3530612244898	147.68975056689342	77	127
147.6200680272109	147.7942403628118	72	127
147.6200680272109	147.7942403628118	84	127
147.6200680272109	147.7942403628118	60	127
147.8522902494331	148.15414965986395	84	127
147.8522902494331	148.0264172335601	69	127
147.8522902494331	148.0264172335601	81	127
147.8522902494331	148.0264172335601	57	127
148.08448979591836	148.25863945578232	65	127
148.08448979591836	148.25863945578232	77	127
148.08448979591836	148.25863945578232	53	127
148.3282993197279	148.49083900226756	75	127
148.3282993197279	148.49083900226756	63	127
148.3282993197279	149.4892970521542	89	127
148.3282993197279	148.49083900226756	51	127
148.54888888888888	148.71142857142857	48	127
148.54888888888888	148.71142857142857	72	127
148.54888888888888	148.71142857142857	60	127
148.7694784580499	148.93201814058958	57	127
148.7694784580499	148.93201814058958	69	127
148.7694784580499	148.93201814058958	45	127
149.0016553287982	149.21065759637187	65	127
149.0016553287982	149.21065759637187	41	127
149.0016553287982	149.21065759637187	53	127
149.28031746031746	149.44285714285715	63	127
149.28031746031746	149.44285714285715	51	127
149.28031746031746	149.44285714285715	39	127
149.50090702947847	149.6750566893424	38	127
149.50090702947847	149.6750566893424	62	127
149.50090702947847	149.6750566893424	50	127
149.75632653061226	149.93047619047618	65	127
149.75632653061226	149.93047619047618	41	127
149.75632653061226	149.93047619047618	53	127
149.9885260770975	150.1510657596372	70	127
149.9885260770975	150.1510657596372	58	127
149.9885260770975	150.1510657596372	46	127
150.2091156462585	150.38326530612244	74	127
150.2091156462585	150.38326530612244	50	127
150.2091156462585	150.38326530612244	62	127
150.44131519274376	150.60385487528345	65	127
150.44131519274376	150.60385487528345	53	127
150.44131519274376	150.60385487528345	77	127
150.67351473922903	150.82444444444445	82	127
150.67351473922903	150.82444444444445	58	127
150.67351473922903	150.82444444444445	70	127
150.89410430839	151.0566439909297	74	127
150.89410430839	151.0566439909297	62	127
150.89410430839	151.0566439909297	86	127
151.11469387755102	151.73002267573696	65	127
151.11469387755102	151.23079365079366	93	127
151.11469387755102	151.61392290249432	77	127
151.11469387755102	151.61392290249432	65	127
151.23079365079366	151.8461224489796	69	127
151.74163265306123	151.8461224489796	63	127
151.8461224489796	152.1015419501134	70	127
151.8461224489796	151.97383219954648	62	127
151.98544217687075	152.1015419501134	60	127
152.1015419501134	152.70526077097506	65	127
152.1015419501134	152.70526077097506	72	127
152.1015419501134	152.28730158730158	58	127
152.35696145124717	152.51950113378686	57	127
152.58916099773242	152.76331065759638	55	127
152.70526077097506	152.80975056689343	65	127
152.70526077097506	152.80975056689343	74	127
152.8213605442177	152.92585034013607	76	127
152.8213605442177	152.9838775510204	53	127
152.8213605442177	152.92585034013607	67	127
152.92585034013607	153.04195011337868	69	127
152.92585034013607	153.04195011337868	77	127
153.04195011337868	153.21609977324263	52	127
153.04195011337868	153.61083900226757	79	127
153.04195011337868	153.61083900226757	70	127
153.04195011337868	153.61083900226757	48	127
153.27414965986395	153.43668934240364	53	127
153.494716553288	153.6688888888889	55	127
153.62244897959184	153.7269387755102	69	127
153.62244897959184	153.7269387755102	77	127
153.62244897959184	153.7269387755102	50	127
153.7269387755102	153.83142857142857	76	127
153.7269387755102	153.87786848072562	57	127
153.7269387755102	153.83142857142857	67	127
153.7269387755102	153.83142857142857	52	127
153.83142857142857	153.93591836734694	74	127
153.83142857142857	153.93591836734694	53	127
153.83142857142857	153.93591836734694	65	127
153.93591836734694	154.1681179138322	72	127
153.93591836734694	154.51639455782313	55	127
153.93591836734694	154.51639455782313	48	127
153.93591836734694	154.11004535147393	58	127
153.93591836734694	154.1681179138322	64	127
154.17972789115646	154.3887074829932	62	127
154.17972789115646	154.3887074829932	70	127
154.17972789115646	154.34226757369615	60	127
154.40031746031747	154.66734693877552	60	127
154.40031746031747	154.59768707482993	62	127
154.40031746031747	154.66734693877552	69	127
154.51639455782313	154.66734693877552	48	127
154.66734693877552	154.76022675736962	50	127
154.66734693877552	154.81827664399094	64	127
154.66734693877552	154.8763038548753	67	127
154.66734693877552	154.8763038548753	58	127
154.76022675736962	154.8763038548753	52	127
154.8763038548753	155.09691609977324	41	127
154.8763038548753	155.09691609977324	65	127
154.8763038548753	155.09691609977324	53	127
155.30589569160998	155.5148752834467	42	127
155.30589569160998	155.5148752834467	66	127
155.30589569160998	155.5148752834467	54	127
155.75868480725623	156.0024716553288	55	127
155.75868480725623	156.0024716553288	43	127
155.75868480725623	156.0024716553288	55	127
155.75868480725623	156.0024716553288	67	127
156.29274376417234	156.51331065759638	68	127
156.29274376417234	156.51331065759638	56	127
156.29274376417234	156.51331065759638	56	127
156.29274376417234	156.51331065759638	44	127
156.75714285714287	157.01256235827665	57	127
156.75714285714287	157.01256235827665	45	127
156.75714285714287	157.01256235827665	69	127
156.75714285714287	157.01256235827665	57	127
157.25637188208617	157.51179138321996	46	127
157.25637188208617	157.51179138321996	58	127
157.25637188208617	157.51179138321996	70	127
157.25637188208617	157.51179138321996	58	127
157.8136507936508	158.0458276643991	59	127
157.8136507936508	158.0458276643991	47	127
157.8136507936508	158.0458276643991	59	127
157.8136507936508	158.0458276643991	71	127
158.30124716553289	158.59151927437642	72	127
158.30124716553289	158.59151927437642	48	127
158.30124716553289	158.59151927437642	60	127
158.30124716553289	158.59151927437642	60	127
158.95142857142858	160.3910657596372	73	127
158.95142857142858	160.3910657596372	49	127
158.95142857142858	160.3910657596372	49	127
158.95142857142858	160.3910657596372	61	127
160.40267573696144	160.51877551020408	49	127
160.51877551020408	160.65809523809523	51	127
160.65809523809523	160.7974149659864	49	127
160.7974149659864	160.93673469387755	47	127
160.93673469387755	162.5273015873016	46	127
162.53891156462586	162.64340136054423	46	127
162.64340136054423	162.8059410430839	47	127
162.8059410430839	162.91043083900226	46	127
162.91043083900226	163.08458049886622	44	127
163.08458049886622	168.41356009070296	42	127
163.08458049886622	164.02496598639456	58	127
164.02496598639456	165.01183673469387	57	127
164.02496598639456	165.01183673469387	48	127
164.02496598639456	165.01183673469387	66	127
165.01183673469387	166.14961451247166	49	127
165.01183673469387	165.4762358276644	65	127
165.01183673469387	166.14961451247166	56	127
165.65038548752835	166.07995464852607	63	127
166.16122448979593	166.55596371882086	61	127
166.16122448979593	167.10163265306122	56	127
166.16122448979593	167.10163265306122	65	127
166.64884353741496	167.0203628117914	59	127
167.10163265306122	168.18136054421768	66	127
167.10163265306122	167.6124716553288	58	127
167.10163265306122	168.18136054421768	58	127
167.6124716553288	168.41356009070296	61	127
168.42514739229026	168.54126984126984	49	127
168.54126984126984	168.70380952380953	48	127
168.70380952380953	168.81990929705216	49	127
168.81990929705216	168.93598639455783	51	127
168.93598639455783	169.09854875283446	49	127
169.09854875283446	169.2146485260771	47	127
169.2146485260771	170.53818594104308	46	127
170.53818594104308	170.65428571428572	46	127
170.65428571428572	170.79360544217687	45	127
170.79360544217687	170.9097052154195	46	127
170.9097052154195	171.04902494331066	47	127
171.04902494331066	171.17673469387756	46	127
171.17673469387756	171.33925170068028	44	127
171.33925170068028	174.82226757369614	42	127
171.33925170068028	172.43061224489796	70	127
172.43061224489796	174.34625850340137	48	127
172.43061224489796	174.34625850340137	57	127
172.43061224489796	173.38260770975057	78	127
173.3942403628118	173.81219954648526	77	127
173.89344671201815	174.27659863945578	75	127
174.34625850340137	174.75260770975058	58	127
174.34625850340137	174.75260770975058	49	127
174.34625850340137	174.75260770975058	73	127
174.82226757369614	175.28666666666666	60	127
174.82226757369614	175.28666666666666	72	127
174.82226757369614	175.34471655328798	44	127
174.82226757369614	175.28666666666666	54	127
175.35632653061225	176.34317460317462	62	127
175.35632653061225	176.34317460317462	71	127
175.35632653061225	176.34317460317462	53	127
175.35632653061225	176.34317460317462	44	127
176.34317460317462	177.36485260770976	54	127
176.34317460317462	177.36485260770976	46	127
176.34317460317462	177.36485260770976	70	127
176.34317460317462	177.36485260770976	61	127
177.43451247165532	178.59548752834468	47	127
177.43451247165532	178.59548752834468	66	127
177.43451247165532	178.59548752834468	68	127
177.43451247165532	178.59548752834468	51	127
178.59548752834468	179.7332879818594	48	127
178.59548752834468	179.7332879818594	63	127
178.59548752834468	179.7332879818594	68	127
178.59548752834468	179.7332879818594	66	127
179.7332879818594	180.47632653061225	68	127
179.7332879818594	181.2541723356009	49	127
179.7332879818594	181.2541723356009	61	127
179.7332879818594	180.47632653061225	53	127
180.48791383219955	180.73174603174604	54	127
180.48791383219955	180.73174603174604	70	127
180.73174603174604	181.2541723356009	71	127
180.73174603174604	181.2541723356009	56	127
181.2541723356009	181.88113378684807	68	127
181.2541723356009	181.88113378684807	41	127
181.88113378684807	183.51814058956916	58	127
181.88113378684807	182.68219954648526	66	127
181.88113378684807	182.96086167800453	58	127
181.88113378684807	183.51814058956916	49	127
182.68219954648526	182.96086167800453	68	127
182.9724716553288	183.51814058956916	70	127
182.9724716553288	183.51814058956916	66	127
183.52975056689343	183.59941043083901	42	127
183.52975056689343	183.59941043083901	49	127
183.6342403628118	183.71551020408162	70	127
183.6342403628118	183.71551020408162	46	127
183.6342403628118	183.71551020408162	58	127
183.75034013605443	183.80836734693878	56	127
183.75034013605443	183.80836734693878	69	127
183.75034013605443	183.80836734693878	44	127
183.84321995464853	183.92448979591836	67	127
183.84321995464853	183.92448979591836	54	127
183.84321995464853	183.92448979591836	42	127
183.95931972789117	184.40049886621316	65	127
183.95931972789117	184.40049886621316	41	127
183.95931972789117	184.40049886621316	53	127
184.5165986394558	184.58625850340135	66	127
184.5165986394558	184.58625850340135	42	127
184.5165986394558	184.58625850340135	54	127
184.71396825396826	184.7952380952381	65	127
184.71396825396826	184.7952380952381	41	127
184.71396825396826	184.7952380952381	53	127
184.83004535147393	184.91133786848073	51	127
184.83004535147393	184.91133786848073	39	127
184.83004535147393	184.91133786848073	63	127
184.9345351473923	185.36412698412698	49	127
184.9345351473923	185.36412698412698	61	127
184.9345351473923	185.36412698412698	37	127
185.48022675736962	185.56149659863945	53	127
185.48022675736962	185.56149659863945	37	127
185.48022675736962	185.56149659863945	71	127
185.48022675736962	185.56149659863945	62	127
185.6079365079365	185.68920634920636	54	127
185.6079365079365	185.68920634920636	39	127
185.6079365079365	185.68920634920636	70	127
185.6079365079365	185.68920634920636	62	127
185.71242630385487	185.79369614512473	62	127
185.71242630385487	185.79369614512473	41	127
185.71242630385487	185.79369614512473	68	127
185.71242630385487	185.79369614512473	56	127
185.8285260770975	186.2697052154195	42	127
185.8285260770975	186.2697052154195	70	127
185.8285260770975	186.2697052154195	61	127
185.8285260770975	186.2697052154195	49	127
187.63968253968255	187.72095238095238	54	127
187.63968253968255	187.72095238095238	66	127
187.63968253968255	187.72095238095238	42	127
187.75578231292516	187.81383219954648	41	127
187.75578231292516	187.81383219954648	65	127
187.75578231292516	187.81383219954648	53	127
187.84863945578232	187.91832199546485	63	127
187.84863945578232	187.91832199546485	39	127
187.84863945578232	187.91832199546485	51	127
187.9531292517007	188.4059410430839	50	127
187.9531292517007	188.4059410430839	62	127
187.9531292517007	188.4059410430839	38	127
188.52204081632652	188.67297052154194	63	127
188.52204081632652	188.67297052154194	51	127
188.52204081632652	188.67297052154194	51	127
188.71938775510205	188.78907029478458	61	127
188.71938775510205	188.78907029478458	49	127
188.71938775510205	188.78907029478458	49	127
188.82390022675736	188.9167800453515	59	127
188.82390022675736	188.9167800453515	59	127
188.82390022675736	188.9167800453515	47	127
188.96321995464854	189.4160090702948	46	127
188.96321995464854	189.4160090702948	58	127
188.96321995464854	189.4160090702948	58	127
189.601768707483	189.67142857142858	58	127
189.601768707483	189.67142857142858	68	127
189.601768707483	189.67142857142858	46	127
189.601768707483	189.67142857142858	53	127
189.71786848072563	189.79913832199546	58	127
189.71786848072563	189.79913832199546	66	127
189.71786848072563	189.79913832199546	48	127
189.71786848072563	189.79913832199546	53	127
189.83396825396827	189.90362811791383	58	127
189.83396825396827	189.90362811791383	50	127
189.83396825396827	189.90362811791383	65	127
189.83396825396827	189.90362811791383	53	127
189.93845804988663	190.3912471655329	58	127
189.93845804988663	190.3912471655329	54	127
189.93845804988663	190.3912471655329	51	127
189.93845804988663	190.3912471655329	66	127
190.5073469387755	190.64666666666668	58	127
190.5073469387755	190.64666666666668	54	127
190.5073469387755	190.64666666666668	51	127
190.5073469387755	190.64666666666668	65	127
190.68149659863946	190.75115646258504	58	127
190.68149659863946	190.75115646258504	51	127
190.68149659863946	190.75115646258504	63	127
190.68149659863946	190.75115646258504	54	127
190.78598639455782	190.8556462585034	54	127
190.78598639455782	190.8556462585034	51	127
190.78598639455782	190.8556462585034	61	127
190.78598639455782	190.8556462585034	58	127
190.87886621315192	191.366485260771	54	127
190.87886621315192	191.366485260771	44	127
190.87886621315192	191.366485260771	60	127
190.87886621315192	191.366485260771	63	127
191.49419501133787	191.56385487528345	44	127
191.49419501133787	191.56385487528345	70	127
191.49419501133787	191.56385487528345	60	127
191.49419501133787	191.56385487528345	54	127
191.6102947845805	191.7031746031746	61	127
191.6102947845805	191.7031746031746	68	127
191.6102947845805	191.7031746031746	46	127
191.6102947845805	191.7031746031746	53	127
191.73800453514738	191.81927437641724	66	127
191.73800453514738	191.81927437641724	51	127
191.73800453514738	191.81927437641724	48	127
191.73800453514738	191.81927437641724	63	127
191.84249433106575	192.28367346938776	56	127
191.84249433106575	192.28367346938776	49	127
191.84249433106575	192.28367346938776	65	127
191.84249433106575	192.28367346938776	53	127
192.41138321995464	192.4926530612245	68	127
192.41138321995464	192.4926530612245	75	127
192.41138321995464	192.4926530612245	37	127
192.41138321995464	192.4926530612245	53	127
192.59714285714287	192.6784126984127	73	127
192.59714285714287	192.6784126984127	68	127
192.59714285714287	192.6784126984127	53	127
192.59714285714287	192.6784126984127	37	127
192.7016326530612	192.79451247165534	37	127
192.7016326530612	192.79451247165534	53	127
192.7016326530612	192.79451247165534	68	127
192.7016326530612	192.79451247165534	71	127
192.82934240362812	193.37501133786847	54	127
192.82934240362812	193.37501133786847	66	127
192.82934240362812	193.37501133786847	39	127
192.82934240362812	193.37501133786847	70	127
193.5259410430839	193.59560090702948	58	127
193.5259410430839	193.59560090702948	39	127
193.5259410430839	193.59560090702948	78	127
193.5259410430839	193.59560090702948	54	127
193.61882086167802	193.70009070294785	58	127
193.61882086167802	193.70009070294785	77	127
193.61882086167802	193.70009070294785	39	127
193.61882086167802	193.70009070294785	54	127
193.73492063492063	193.81619047619049	78	127
193.73492063492063	193.81619047619049	58	127
193.73492063492063	193.81619047619049	54	127
193.73492063492063	193.81619047619049	39	127
193.839410430839	194.30380952380952	63	127
193.839410430839	194.30380952380952	68	127
193.839410430839	194.30380952380952	47	127
193.839410430839	194.30380952380952	54	127
194.43151927437643	194.57083900226758	54	127
194.43151927437643	194.57083900226758	44	127
194.43151927437643	194.57083900226758	75	127
194.43151927437643	194.57083900226758	60	127
194.60566893424036	194.71015873015872	44	127
194.60566893424036	194.71015873015872	74	127
194.60566893424036	194.71015873015872	54	127
194.60566893424036	194.71015873015872	60	127
194.75659863945577	194.83786848072563	60	127
194.75659863945577	194.83786848072563	75	127
194.75659863945577	194.83786848072563	44	127
194.75659863945577	194.83786848072563	54	127
194.8726984126984	195.41836734693877	59	127
194.8726984126984	195.41836734693877	49	127
194.8726984126984	195.41836734693877	65	127
194.8726984126984	195.41836734693877	56	127
195.42997732426304	196.26589569160998	49	127
195.42997732426304	195.5344671201814	82	127
195.5344671201814	195.65056689342404	83	127
195.65056689342404	195.7550566893424	82	127
195.7550566893424	195.87115646258502	80	127
195.87115646258502	196.74190476190475	42	127
195.87115646258502	199.69083900226758	61	127
195.87115646258502	195.96403628117915	82	127
195.96403628117915	196.04530612244898	83	127
196.04530612244898	196.16140589569162	82	127
196.16140589569162	196.26589569160998	80	127
196.26589569160998	197.20630385487527	51	127
196.26589569160998	196.3819954648526	78	127
196.3819954648526	196.48648526077096	80	127
196.48648526077096	196.62580498866214	78	127
196.62580498866214	196.74190476190475	77	127
196.75351473922902	196.8580045351474	77	127
196.75351473922902	197.6474829931973	44	127
196.8580045351474	196.97410430839003	78	127
196.97410430839003	197.1018140589569	77	127
197.1018140589569	197.21791383219954	75	127
197.21791383219954	197.31079365079364	73	127
197.21791383219954	198.13510204081632	53	127
197.31079365079364	197.42689342403628	75	127
197.42689342403628	197.54299319727892	73	127
197.54299319727892	197.6474829931973	72	127
197.6474829931973	197.7635827664399	71	127
197.6474829931973	198.63433106575962	46	127
197.7635827664399	197.86807256235826	73	127
197.86807256235826	198.00739229024944	71	127
198.00739229024944	198.13510204081632	70	127
198.13510204081632	198.63433106575962	54	127
198.13510204081632	198.27442176870747	68	127
198.27442176870747	198.40213151927438	70	127
198.40213151927438	198.51823129251702	68	127
198.51823129251702	198.65755102040816	66	127
198.65755102040816	199.09873015873015	47	127
198.65755102040816	199.09873015873015	56	127
198.65755102040816	198.76204081632653	65	127
198.76204081632653	198.87814058956917	66	127
198.87814058956917	198.98263038548754	65	127
198.98263038548754	199.09873015873015	63	127
199.09873015873015	199.57473922902494	53	127
199.09873015873015	199.57473922902494	49	127
199.09873015873015	199.20321995464852	61	127
199.20321995464852	199.3425396825397	63	127
199.3425396825397	199.4586394557823	61	127
199.4586394557823	199.57473922902494	59	127
199.57473922902494	199.92303854875283	58	127
199.57473922902494	199.92303854875283	54	127
199.57473922902494	199.92303854875283	49	127
199.70244897959185	199.8069387755102	63	127
199.8069387755102	199.92303854875283	61	127
199.92303854875283	200.0275283446712	60	127
200.0275283446712	200.1552380952381	61	127
200.0275283446712	200.38743764172335	54	127
200.0275283446712	200.38743764172335	70	127
200.0275283446712	200.38743764172335	58	127
200.1552380952381	200.2713378684807	63	127
200.2713378684807	200.38743764172335	61	127
200.38743764172335	200.503537414966	59	127
200.503537414966	200.8170068027211	53	127
200.503537414966	200.60802721088436	58	127
200.503537414966	200.8170068027211	73	127
200.503537414966	200.8170068027211	56	127
200.60802721088436	200.724126984127	59	127
200.724126984127	200.8170068027211	58	127
200.8170068027211	200.9331065759637	56	127
200.9331065759637	201.25818594104308	73	127
200.9331065759637	201.04920634920634	70	127
200.9331065759637	201.25818594104308	61	127
200.9331065759637	201.25818594104308	53	127
201.04920634920634	201.1536961451247	71	127
201.1536961451247	201.26979591836735	70	127
201.26979591836735	201.37428571428572	68	127
201.37428571428572	201.86190476190475	75	127
201.37428571428572	201.86190476190475	51	127
201.37428571428572	201.86190476190475	66	127
201.37428571428572	201.52521541950114	66	127
201.52521541950114	201.64131519274378	68	127
201.64131519274378	201.75741496598638	66	127
201.75741496598638	201.87351473922902	65	127
201.87351473922902	201.9780045351474	66	127
201.87351473922902	202.30308390022677	77	127
201.87351473922902	202.30308390022677	65	127
201.87351473922902	202.30308390022677	49	127
201.9780045351474	202.09410430839003	68	127
202.09410430839003	202.1985941043084	66	127
202.1985941043084	202.30308390022677	65	127
202.314693877551	202.74426303854875	48	127
202.314693877551	202.41918367346938	65	127
202.314693877551	202.74426303854875	78	127
202.314693877551	202.74426303854875	63	127
202.41918367346938	202.52367346938775	66	127
202.52367346938775	202.6281632653061	65	127
202.6281632653061	202.74426303854875	63	127
202.74426303854875	203.22027210884355	80	127
202.74426303854875	203.22027210884355	47	127
202.74426303854875	202.8603628117914	63	127
202.74426303854875	203.22027210884355	56	127
202.8603628117914	202.976462585034	61	127
202.976462585034	203.09256235827664	63	127
203.09256235827664	203.22027210884355	65	127
203.22027210884355	203.5453514739229	46	127
203.22027210884355	203.33637188208615	61	127
203.22027210884355	203.5453514739229	78	127
203.22027210884355	203.64984126984126	49	127
203.33637188208615	203.44086167800452	63	127
203.44086167800452	203.5453514739229	61	127
203.5453514739229	203.64984126984126	59	127
203.66145124716553	203.99814058956918	80	127
203.66145124716553	203.7659410430839	51	127
203.66145124716553	203.99814058956918	47	127
203.66145124716553	203.7659410430839	59	127
203.7659410430839	203.8936507936508	53	127
203.7659410430839	203.8936507936508	61	127
203.8936507936508	203.99814058956918	59	127
203.8936507936508	203.99814058956918	51	127
203.99814058956918	204.12585034013605	54	127
203.99814058956918	204.12585034013605	58	127
204.12585034013605	204.25356009070296	58	127
204.12585034013605	204.25356009070296	54	127
204.12585034013605	204.45092970521543	49	127
204.12585034013605	204.45092970521543	73	127
204.25356009070296	204.3580498866213	59	127
204.25356009070296	204.3580498866213	56	127
204.3580498866213	204.45092970521543	54	127
204.3580498866213	204.45092970521543	58	127
204.45092970521543	204.56702947845804	56	127
204.45092970521543	204.56702947845804	53	127
204.56702947845804	204.6715192743764	58	127
204.56702947845804	204.90371882086168	49	127
204.56702947845804	204.90371882086168	77	127
204.56702947845804	204.6715192743764	54	127
204.6715192743764	204.79922902494332	59	127
204.6715192743764	204.79922902494332	56	127
204.79922902494332	204.90371882086168	58	127
204.79922902494332	204.90371882086168	54	127
204.90371882086168	205.03142857142856	56	127
204.90371882086168	205.03142857142856	53	127
205.03142857142856	205.4958276643991	54	127
205.03142857142856	205.4958276643991	58	127
205.50743764172336	205.82090702947846	44	127
205.50743764172336	205.60031746031746	71	127
205.60031746031746	205.7164172335601	73	127
205.7164172335601	205.83251700680273	71	127
205.83251700680273	205.9370068027211	70	127
205.9370068027211	206.26208616780045	68	127
205.9370068027211	206.26208616780045	37	127
206.37818594104309	206.77292517006802	68	127
206.37818594104309	206.77292517006802	41	127
206.37818594104309	206.55233560090704	73	127
206.55233560090704	206.66843537414965	75	127
206.66843537414965	206.77292517006802	73	127
206.77292517006802	206.88902494331066	71	127
206.88902494331066	207.3418140589569	70	127
206.88902494331066	206.99351473922903	70	127
206.88902494331066	207.22571428571428	46	127
206.99351473922903	207.1212244897959	82	127
207.1212244897959	207.22571428571428	80	127
207.22571428571428	207.3418140589569	78	127
207.3418140589569	207.45791383219955	56	127
207.3418140589569	207.6668934240363	46	127
207.3418140589569	207.45791383219955	77	127
207.45791383219955	207.56240362811792	78	127
207.45791383219955	207.56240362811792	58	127
207.56240362811792	207.67850340136056	56	127
207.56240362811792	207.67850340136056	77	127
207.67850340136056	207.79460317460317	75	127
207.67850340136056	207.79460317460317	54	127
207.79460317460317	208.1312925170068	49	127
207.79460317460317	207.9107029478458	73	127
207.79460317460317	208.1312925170068	65	127
207.79460317460317	208.1312925170068	53	127
207.9107029478458	208.01519274376417	75	127
208.01519274376417	208.1312925170068	73	127
208.1312925170068	208.24739229024942	71	127
208.24739229024942	208.56086167800453	65	127
208.24739229024942	208.56086167800453	49	127
208.24739229024942	208.3518820861678	70	127
208.24739229024942	208.56086167800453	65	127
208.3518820861678	208.45637188208616	71	127
208.45637188208616	208.56086167800453	70	127
208.56086167800453	208.6653514739229	68	127
208.6653514739229	209.11814058956915	58	127
208.6653514739229	209.11814058956915	51	127
208.6653514739229	208.99043083900227	66	127
208.6653514739229	209.11814058956915	66	127
209.11814058956915	209.44321995464853	63	127
209.11814058956915	209.58253968253968	53	127
209.11814058956915	209.2342403628118	56	127
209.2342403628118	209.33873015873016	58	127
209.33873015873016	209.4780498866213	56	127
209.4780498866213	209.58253968253968	54	127
209.58253968253968	209.93083900226756	70	127
209.58253968253968	210.03532879818593	54	127
209.58253968253968	209.93083900226756	54	127
210.0469387755102	210.39523809523808	70	127
210.0469387755102	210.55777777777777	56	127
210.0469387755102	210.1746485260771	66	127
210.1746485260771	210.29074829931972	68	127
210.29074829931972	210.39523809523808	66	127
210.39523809523808	210.55777777777777	65	127
210.55777777777777	210.90607709750566	63	127
210.55777777777777	210.90607709750566	54	127
210.55777777777777	211.01056689342403	70	127
211.01056689342403	211.3356462585034	56	127
211.01056689342403	211.44013605442177	72	127
211.01056689342403	211.3356462585034	63	127
211.45174603174604	211.80004535147393	65	127
211.45174603174604	211.91614512471656	73	127
211.45174603174604	211.80004535147393	49	127
211.9277551020408	212.39215419501133	68	127
211.9277551020408	212.0554648526077	61	127
211.9277551020408	212.0554648526077	53	127
212.0554648526077	212.17156462585035	58	127
212.0554648526077	212.17156462585035	54	127
212.17156462585035	212.28766439909296	56	127
212.17156462585035	212.28766439909296	53	127
212.28766439909296	212.39215419501133	54	127
212.28766439909296	212.39215419501133	51	127
212.39215419501133	212.7172335600907	66	127
212.39215419501133	212.50825396825397	54	127
212.39215419501133	212.50825396825397	51	127
212.50825396825397	212.61274376417234	53	127
212.50825396825397	212.61274376417234	56	127
212.61274376417234	212.72884353741497	54	127
212.61274376417234	212.72884353741497	51	127
212.72884353741497	212.84494331065758	49	127
212.72884353741497	212.84494331065758	53	127
212.84494331065758	212.98426303854876	65	127
212.84494331065758	213.216462585034	68	127
212.84494331065758	212.98426303854876	49	127
212.98426303854876	213.11197278911564	66	127
212.98426303854876	213.11197278911564	51	127
213.11197278911564	213.216462585034	49	127
213.11197278911564	213.216462585034	65	127
213.216462585034	213.32095238095238	63	127
213.216462585034	213.32095238095238	47	127
213.33256235827665	213.43705215419502	63	127
213.33256235827665	213.68086167800453	61	127
213.33256235827665	213.43705215419502	47	127
213.43705215419502	213.55315192743765	61	127
213.43705215419502	213.55315192743765	46	127
213.55315192743765	213.68086167800453	44	127
213.55315192743765	213.68086167800453	59	127
213.68086167800453	213.76213151927436	42	127
213.68086167800453	213.76213151927436	58	127
213.76213151927436	214.08721088435374	58	127
213.76213151927436	213.88984126984127	78	127
213.88984126984127	213.98272108843537	80	127
213.98272108843537	214.098820861678	78	127
214.098820861678	214.20331065759638	77	127
214.20331065759638	214.33102040816325	77	127
214.20331065759638	214.55160997732426	56	127
214.33102040816325	214.43551020408162	78	127
214.43551020408162	214.55160997732426	77	127
214.55160997732426	214.67931972789117	75	127
214.67931972789117	214.99278911564625	78	127
214.67931972789117	214.99278911564625	58	127
214.67931972789117	214.78380952380954	73	127
214.67931972789117	214.78380952380954	46	127
214.78380952380954	214.89990929705215	75	127
214.78380952380954	214.89990929705215	47	127
214.89990929705215	214.99278911564625	46	127
214.89990929705215	214.99278911564625	73	127
214.99278911564625	215.08566893424037	71	127
214.99278911564625	215.08566893424037	44	127
215.09727891156462	215.422358276644	70	127
215.09727891156462	215.422358276644	49	127
215.09727891156462	215.20176870748298	71	127
215.09727891156462	215.20176870748298	44	127
215.20176870748298	215.31786848072562	70	127
215.20176870748298	215.31786848072562	42	127
215.31786848072562	215.43396825396826	41	127
215.31786848072562	215.43396825396826	68	127
215.43396825396826	215.5500680272109	66	127
215.43396825396826	215.5500680272109	42	127
215.5500680272109	215.6661678004535	83	127
215.5500680272109	215.86353741496598	71	127
215.5500680272109	215.6661678004535	44	127
215.6661678004535	215.7590476190476	85	127
215.6661678004535	215.7590476190476	46	127
215.7590476190476	215.87514739229024	44	127
215.7590476190476	215.87514739229024	83	127
215.87514739229024	215.9796371882086	82	127
215.87514739229024	215.9796371882086	42	127
215.9796371882086	216.09573696145125	41	127
215.9796371882086	216.31632653061226	80	127
215.9796371882086	216.09573696145125	68	127
215.9796371882086	216.31632653061226	71	127
216.09573696145125	216.20022675736962	42	127
216.09573696145125	216.20022675736962	70	127
216.20022675736962	216.31632653061226	68	127
216.20022675736962	216.31632653061226	41	127
216.31632653061226	216.4208163265306	66	127
216.31632653061226	216.4208163265306	39	127
216.4208163265306	216.74589569160997	38	127
216.4208163265306	216.52530612244897	82	127
216.4208163265306	216.74589569160997	77	127
216.4208163265306	216.74589569160997	65	127
216.52530612244897	216.6414058956916	83	127
216.6414058956916	216.74589569160997	82	127
216.74589569160997	216.8619954648526	80	127
216.8619954648526	217.18707482993196	78	127
216.8619954648526	217.18707482993196	70	127
216.8619954648526	216.96648526077098	66	127
216.8619954648526	216.96648526077098	39	127
216.96648526077098	217.08258503401362	68	127
216.96648526077098	217.08258503401362	41	127
217.08258503401362	217.19868480725623	39	127
217.08258503401362	217.19868480725623	66	127
217.19868480725623	217.2799546485261	65	127
217.19868480725623	217.2799546485261	37	127
217.2799546485261	217.6166439909297	63	127
217.2799546485261	217.6166439909297	36	127
217.2799546485261	217.3960544217687	80	127
217.2799546485261	217.3960544217687	68	127
217.3960544217687	217.50054421768706	82	127
217.3960544217687	217.50054421768706	66	127
217.50054421768706	217.6166439909297	65	127
217.50054421768706	217.6166439909297	80	127
217.6166439909297	217.72113378684807	78	127
217.6166439909297	217.72113378684807	63	127
217.72113378684807	217.84884353741498	77	127
217.72113378684807	218.04621315192745	37	127
217.72113378684807	217.84884353741498	65	127
217.84884353741498	217.94172335600908	75	127
217.84884353741498	217.94172335600908	66	127
217.94172335600908	218.04621315192745	65	127
217.94172335600908	218.04621315192745	73	127
218.04621315192745	218.16231292517006	72	127
218.04621315192745	218.16231292517006	63	127
218.16231292517006	218.29002267573696	66	127
218.16231292517006	218.35968253968255	70	127
218.16231292517006	218.5222222222222	61	127
218.16231292517006	218.5222222222222	42	127
218.29002267573696	218.41773242630384	68	127
218.41773242630384	218.58027210884353	82	127
218.41773242630384	218.5222222222222	66	127
218.5222222222222	218.63832199546485	65	127
218.63832199546485	218.96340136054422	63	127
218.63832199546485	218.96340136054422	36	127
218.63832199546485	218.7544217687075	84	127
218.63832199546485	218.7544217687075	63	127
218.7544217687075	218.85891156462586	85	127
218.7544217687075	218.85891156462586	65	127
218.85891156462586	218.9750113378685	63	127
218.85891156462586	218.9750113378685	84	127
218.9750113378685	219.0678911564626	82	127
218.9750113378685	219.0678911564626	61	127
219.0678911564626	219.39297052154194	60	127
219.0678911564626	219.39297052154194	53	127
219.0678911564626	219.17238095238096	65	127
219.0678911564626	219.218820861678	81	127
219.17238095238096	219.27687074829933	66	127
219.27687074829933	219.39297052154194	65	127
219.27687074829933	219.439410430839	89	127
219.39297052154194	219.50907029478458	63	127
219.50907029478458	219.82253968253968	65	127
219.50907029478458	219.82253968253968	62	127
219.50907029478458	219.61356009070295	70	127
219.50907029478458	219.67160997732427	70	127
219.61356009070295	219.72965986394559	71	127
219.72965986394559	219.82253968253968	70	127
219.72965986394559	219.880589569161	77	127
219.82253968253968	219.93863945578232	68	127
219.93863945578232	220.05473922902493	63	127
219.93863945578232	220.62362811791382	78	127
219.93863945578232	220.05473922902493	63	127
219.93863945578232	220.11278911564625	66	127
220.05473922902493	220.18244897959184	68	127
220.05473922902493	220.18244897959184	65	127
220.18244897959184	220.29854875283448	63	127
220.18244897959184	220.29854875283448	66	127
220.18244897959184	220.62362811791382	75	127
220.29854875283448	220.40303854875285	61	127
220.29854875283448	220.40303854875285	65	127
220.40303854875285	220.51913832199546	59	127
220.40303854875285	220.51913832199546	63	127
220.51913832199546	220.62362811791382	65	127
220.51913832199546	220.62362811791382	61	127
220.62362811791382	220.7861678004535	75	127
220.62362811791382	220.73972789115646	59	127
220.62362811791382	220.7861678004535	78	127
220.62362811791382	220.73972789115646	63	127
220.73972789115646	220.84421768707483	58	127
220.73972789115646	220.84421768707483	61	127
220.84421768707483	221.00675736961452	77	127
220.84421768707483	220.96031746031747	56	127
220.84421768707483	221.00675736961452	80	127
220.84421768707483	220.96031746031747	59	127
220.96031746031747	221.05319727891157	58	127
220.96031746031747	221.05319727891157	61	127
221.05319727891157	221.21573696145126	82	127
221.05319727891157	221.15768707482994	59	127
221.05319727891157	221.15768707482994	56	127
221.05319727891157	221.21573696145126	78	127
221.15768707482994	221.27378684807258	54	127
221.15768707482994	221.27378684807258	58	127
221.27378684807258	221.43632653061223	56	127
221.27378684807258	221.43632653061223	53	127
221.27378684807258	221.37827664399094	80	127
221.27378684807258	221.43632653061223	83	127
221.37827664399094	221.49437641723355	82	127
221.49437641723355	221.65691609977324	68	127
221.49437641723355	221.65691609977324	51	127
221.49437641723355	221.6104761904762	80	127
221.49437641723355	221.65691609977324	84	127
221.6104761904762	221.71496598639456	78	127
221.71496598639456	221.87750566893425	49	127
221.71496598639456	222.36512471655328	85	127
221.71496598639456	221.8310657596372	77	127
221.71496598639456	221.87750566893425	49	127
221.8310657596372	221.93555555555557	78	127
221.93555555555557	222.09809523809523	48	127
221.93555555555557	222.05165532879818	77	127
221.93555555555557	222.09809523809523	53	127
222.05165532879818	222.15614512471655	75	127
222.15614512471655	222.2606349206349	73	127
222.15614512471655	222.30707482993196	49	127
222.15614512471655	222.30707482993196	47	127
222.2606349206349	222.36512471655328	75	127
222.36512471655328	222.50444444444443	46	127
222.36512471655328	222.50444444444443	61	127
222.36512471655328	222.46961451247165	73	127
222.36512471655328	222.50444444444443	87	127
222.46961451247165	222.56249433106575	71	127
222.56249433106575	223.2126530612245	89	127
222.56249433106575	222.65537414965988	70	127
222.56249433106575	222.71342403628117	49	127
222.56249433106575	222.71342403628117	44	127
222.65537414965988	222.7714739229025	71	127
222.7714739229025	222.87596371882086	70	127
222.7714739229025	222.93401360544217	61	127
222.7714739229025	222.93401360544217	42	127
222.87596371882086	222.98045351473922	68	127
222.9920634920635	223.15460317460318	49	127
222.9920634920635	223.15460317460318	41	127
222.9920634920635	223.09655328798186	68	127
223.09655328798186	223.2126530612245	70	127
223.2126530612245	223.37519274376416	61	127
223.2126530612245	223.37519274376416	39	127
223.2126530612245	223.3287528344671	68	127
223.2126530612245	223.37519274376416	90	127
223.3287528344671	223.43324263038548	66	127
223.43324263038548	224.10662131519274	92	127
223.43324263038548	223.54934240362812	65	127
223.43324263038548	223.59578231292517	49	127
223.43324263038548	223.59578231292517	37	127
223.54934240362812	223.65383219954649	66	127
223.65383219954649	223.76993197278912	65	127
223.65383219954649	223.81637188208617	56	127
223.65383219954649	223.81637188208617	36	127
223.76993197278912	223.85120181405895	63	127
223.85120181405895	224.0253514739229	53	127
223.85120181405895	224.0253514739229	47	127
223.85120181405895	223.9673015873016	61	127
223.9673015873016	224.10662131519274	63	127
224.10662131519274	224.2111111111111	61	127
224.10662131519274	224.26916099773243	77	127
224.10662131519274	224.26916099773243	61	127
224.10662131519274	224.26916099773243	44	127
224.2111111111111	224.32721088435375	59	127
224.32721088435375	224.48975056689343	42	127
224.32721088435375	224.44331065759638	58	127
224.32721088435375	224.48975056689343	78	127
224.32721088435375	224.48975056689343	49	127
224.44331065759638	224.559410430839	59	127
224.559410430839	224.76839002267573	56	127
224.559410430839	224.76839002267573	41	127
224.559410430839	224.7103401360544	58	127
224.559410430839	224.76839002267573	80	127
224.7103401360544	224.83804988662132	56	127
224.83804988662132	225.76684807256237	42	127
224.83804988662132	226.7536961451247	66	127
224.83804988662132	224.95414965986396	54	127
224.83804988662132	225.76684807256237	82	127
224.95414965986396	225.0934693877551	56	127
225.0934693877551	225.221179138322	54	127
225.221179138322	225.32566893424035	53	127
225.32566893424035	225.441768707483	54	127
225.441768707483	225.54625850340136	56	127
225.54625850340136	225.662358276644	54	127
225.662358276644	225.7784580498866	53	127
225.7784580498866	225.88294784580498	54	127
225.7784580498866	226.7536961451247	47	127
225.7784580498866	226.7536961451247	87	127
225.88294784580498	225.99904761904762	56	127
225.99904761904762	226.10353741496598	54	127
226.10353741496598	226.24285714285713	53	127
226.24285714285713	226.35895691609977	54	127
226.35895691609977	226.4750566893424	56	127
226.4750566893424	226.61437641723356	54	127
226.61437641723356	226.7536961451247	53	127
226.7536961451247	227.7289342403628	46	127
226.7536961451247	227.7289342403628	85	127
226.7536961451247	226.86979591836734	54	127
226.7536961451247	227.7289342403628	66	127
226.86979591836734	226.99750566893425	56	127
226.99750566893425	227.11360544217686	54	127
227.11360544217686	227.21809523809523	53	127
227.21809523809523	227.34580498866214	53	127
227.34580498866214	227.4502947845805	54	127
227.4502947845805	227.6128344671202	53	127
227.6128344671202	227.7289342403628	51	127
227.74054421768707	227.84503401360544	51	127
227.74054421768707	228.65773242630385	89	127
227.74054421768707	228.65773242630385	44	127
227.74054421768707	228.65773242630385	71	127
227.84503401360544	227.96113378684808	53	127
227.96113378684808	228.06562358276645	51	127
228.06562358276645	228.18172335600906	49	127
228.18172335600906	228.2978231292517	51	127
228.2978231292517	228.41392290249433	53	127
228.41392290249433	228.53002267573697	51	127
228.53002267573697	228.65773242630385	49	127
228.65773242630385	229.57492063492063	49	127
228.65773242630385	228.797052154195	44	127
228.65773242630385	229.57492063492063	90	127
228.65773242630385	229.57492063492063	70	127
228.797052154195	228.90154195011337	46	127
228.90154195011337	229.02925170068028	44	127
229.02925170068028	229.13374149659865	42	127
229.13374149659865	229.24984126984128	44	127
229.24984126984128	229.3659410430839	46	127
229.3659410430839	229.47043083900226	44	127
229.47043083900226	229.57492063492063	42	127
229.5865306122449	230.51532879818595	92	127
229.5865306122449	229.69102040816327	42	127
229.5865306122449	230.03931972789115	49	127
229.5865306122449	230.51532879818595	71	127
229.69102040816327	229.8071201814059	44	127
229.8071201814059	229.91160997732428	42	127
229.91160997732428	230.03931972789115	41	127
230.03931972789115	230.1554195011338	51	127
230.03931972789115	230.1554195011338	39	127
230.1554195011338	230.25990929705216	49	127
230.1554195011338	230.25990929705216	41	127
230.25990929705216	230.38761904761904	51	127
230.25990929705216	230.38761904761904	39	127
230.38761904761904	230.51532879818595	53	127
230.38761904761904	230.51532879818595	37	127
230.51532879818595	230.68947845804988	54	127
230.51532879818595	230.68947845804988	90	127
230.51532879818595	230.68947845804988	70	127
230.51532879818595	230.68947845804988	42	127
230.7475283446712	230.93328798185942	54	127
230.7475283446712	230.93328798185942	66	127
230.7475283446712	230.93328798185942	54	127
231.00294784580498	231.21192743764172	54	127
231.00294784580498	231.21192743764172	66	127
231.00294784580498	231.21192743764172	54	127
231.223537414966	231.45573696145124	52	127
231.223537414966	231.45573696145124	64	127
231.223537414966	231.45573696145124	52	127
231.4673469387755	231.67632653061224	52	127
231.4673469387755	231.67632653061224	64	127
231.4673469387755	231.67632653061224	52	127
231.67632653061224	231.97818594104308	51	127
231.67632653061224	231.97818594104308	63	127
231.67632653061224	231.97818594104308	51	127
231.97818594104308	232.14072562358277	54	127
231.97818594104308	232.14072562358277	66	127
231.97818594104308	232.14072562358277	54	127
232.1987755102041	232.37292517006802	51	127
232.1987755102041	232.37292517006802	63	127
232.1987755102041	232.37292517006802	51	127
232.43097505668933	232.65156462585034	51	127
232.43097505668933	232.65156462585034	63	127
232.43097505668933	232.65156462585034	51	127
232.6631746031746	232.87215419501135	49	127
232.6631746031746	232.87215419501135	61	127
232.6631746031746	232.87215419501135	49	127
232.8837641723356	233.04630385487528	54	127
232.8837641723356	233.04630385487528	66	127
232.8837641723356	233.04630385487528	54	127
233.1043537414966	233.26689342403628	52	127
233.1043537414966	233.26689342403628	64	127
233.1043537414966	233.26689342403628	52	127
233.30172335600906	233.54553287981858	52	127
233.30172335600906	233.54553287981858	64	127
233.30172335600906	233.54553287981858	52	127
233.54553287981858	233.80095238095237	51	127
233.54553287981858	233.80095238095237	63	127
233.54553287981858	233.80095238095237	51	127
233.80095238095237	233.9518820861678	54	127
233.80095238095237	233.9518820861678	66	127
233.80095238095237	233.9518820861678	54	127
234.0099319727891	234.1724716553288	51	127
234.0099319727891	234.1724716553288	63	127
234.0099319727891	234.1724716553288	51	127
234.24213151927438	234.49755102040817	51	127
234.24213151927438	234.49755102040817	63	127
234.24213151927438	234.49755102040817	51	127
234.50916099773244	234.72975056689341	49	127
234.50916099773244	234.72975056689341	61	127
234.50916099773244	234.72975056689341	49	127
234.74136054421768	234.90390022675737	54	127
234.74136054421768	234.90390022675737	66	127
234.74136054421768	234.90390022675737	54	127
234.9619501133787	235.12448979591838	59	127
234.9619501133787	235.12448979591838	59	127
234.9619501133787	235.12448979591838	47	127
235.18253968253967	235.44956916099773	59	127
235.18253968253967	235.44956916099773	59	127
235.18253968253967	235.44956916099773	47	127
235.461179138322	235.69337868480724	58	127
235.461179138322	235.69337868480724	58	127
235.461179138322	235.69337868480724	46	127
235.7049886621315	235.94879818594103	66	127
235.7049886621315	235.94879818594103	66	127
235.7049886621315	235.94879818594103	54	127
236.01845804988662	236.20421768707482	42	127
236.01845804988662	236.20421768707482	66	127
236.01845804988662	236.20421768707482	54	127
236.2738775510204	237.04013605442177	54	127
236.2738775510204	237.04013605442177	66	127
236.2738775510204	237.04013605442177	42	127
237.05174603174603	241.21972789115645	53	127
237.05174603174603	241.21972789115645	65	127
237.05174603174603	241.21972789115645	41	127
241.23133786848072	248.37147392290248	54	127
242.54326530612244	244.3428117913832	56	127
242.54326530612244	244.3428117913832	41	127
244.35442176870748	245.20195011337867	58	127
244.35442176870748	245.20195011337867	40	127
245.21356009070294	245.80566893424037	59	127
245.21356009070294	245.80566893424037	39	127
245.8172789115646	247.0827664399093	59	127
245.8172789115646	247.0827664399093	47	127
247.09437641723355	248.37147392290248	46	127
247.09437641723355	249.6253514739229	61	127
248.38308390022675	249.6253514739229	53	127
248.38308390022675	249.6253514739229	44	127
252.4581859410431	252.78326530612244	73	127
252.4581859410431	252.56267573696144	73	127
252.56267573696144	252.67877551020408	75	127
252.67877551020408	252.78326530612244	73	127
252.78326530612244	252.9225850340136	71	127
252.9225850340136	253.25927437641724	73	127
252.9225850340136	253.03868480725623	70	127
253.03868480725623	253.15478458049887	71	127
253.15478458049887	253.2708843537415	70	127
253.2708843537415	253.38698412698412	68	127
253.38698412698412	253.8978231292517	66	127
253.38698412698412	253.56113378684807	73	127
253.63079365079366	253.82816326530613	73	127
253.90943310657596	255.47678004535146	78	127
255.48839002267573	258.2980045351474	50	127
255.48839002267573	258.2980045351474	38	127
255.48839002267573	262.36149659863946	62	127
258.3096145124717	260.4806802721088	37	127
258.3096145124717	260.4806802721088	52	127
260.4922902494331	261.45591836734695	54	127
260.4922902494331	260.77090702947845	36	127
260.78253968253966	261.45591836734695	48	127
261.4675283446712	262.36149659863946	47	127
261.4675283446712	262.36149659863946	55	127
262.384716553288	263.15097505668933	55	127
262.384716553288	263.15097505668933	64	127
262.384716553288	263.15097505668933	49	127
263.1625850340136	264.6138321995465	49	127
263.1625850340136	264.6138321995465	55	127
263.1625850340136	265.960589569161	57	127
264.62544217687076	265.960589569161	54	127
264.62544217687076	265.960589569161	50	127
269.1068934240363	269.4203628117914	69	127
269.1068934240363	269.21138321995466	69	127
269.21138321995466	269.315873015873	71	127
269.315873015873	269.43197278911566	69	127
269.43197278911566	269.53646258503403	67	127
269.53646258503403	269.7802721088435	69	127
269.53646258503403	269.65256235827667	66	127
269.65256235827667	269.74544217687077	67	127
269.74544217687077	269.7802721088435	66	127
269.7802721088435	269.9079818594104	64	127
269.9079818594104	270.4884580498866	62	127
269.9079818594104	270.11696145124716	69	127
270.1866213151927	270.40721088435373	69	127
270.4884580498866	272.0790476190476	74	127
274.1804535147392	274.93510204081633	55	127
274.1804535147392	274.93510204081633	64	127
274.1804535147392	274.93510204081633	49	127
274.96993197278914	276.33990929705215	49	127
274.96993197278914	276.33990929705215	55	127
274.96993197278914	277.97691609977323	57	127
276.3515192743764	277.97691609977323	54	127
276.3515192743764	277.97691609977323	50	127
279.73002267573696	280.22925170068027	67	127
279.73002267573696	280.22925170068027	76	127
279.73002267573696	280.22925170068027	61	127
280.24086167800453	281.5179591836735	67	127
280.24086167800453	281.5179591836735	61	127
280.24086167800453	282.9808163265306	69	127
281.52954648526077	282.9808163265306	66	127
281.52954648526077	282.9808163265306	62	127
283.526485260771	285.34925170068027	49	127
283.526485260771	285.34925170068027	64	127
283.526485260771	285.34925170068027	55	127
285.36086167800454	285.9065306122449	49	127
285.36086167800454	285.9065306122449	55	127
285.36086167800454	286.1619501133787	57	127
285.9065306122449	286.1619501133787	54	127
285.9065306122449	286.1619501133787	50	127
286.42895691609976	287.102358276644	49	127
286.42895691609976	287.102358276644	55	127
286.42895691609976	287.322947845805	57	127
287.102358276644	287.322947845805	54	127
287.102358276644	287.322947845805	50	127
287.70607709750567	288.15886621315195	49	127
287.70607709750567	288.15886621315195	55	127
287.70607709750567	288.37943310657596	57	127
288.15886621315195	288.37943310657596	50	127
288.15886621315195	288.37943310657596	54	127
288.15886621315195	288.6697052154195	69	127
288.6697052154195	289.12249433106575	55	127
288.6697052154195	289.12249433106575	69	127
288.6697052154195	289.12249433106575	57	127
288.6697052154195	289.12249433106575	49	127
289.13410430839	289.34308390022676	54	127
289.13410430839	289.2385941043084	69	127
289.13410430839	289.29662131519274	69	127
289.13410430839	289.34308390022676	50	127
289.2385941043084	289.34308390022676	71	127
289.35469387755103	289.52884353741496	69	127
289.35469387755103	289.4591836734694	69	127
289.4591836734694	289.57528344671204	67	127
289.5868934240363	290.5621315192744	57	127
289.5868934240363	290.03968253968253	74	127
289.5868934240363	290.03968253968253	66	127
289.5868934240363	290.03968253968253	62	127
290.03968253968253	290.2834920634921	54	127
290.03968253968253	290.2834920634921	62	127
290.5621315192744	291.0033106575964	66	127
290.5621315192744	291.0033106575964	62	127
290.5621315192744	291.97854875283446	69	127
291.01492063492066	291.23548752834466	62	127
291.01492063492066	291.23548752834466	54	127
291.47931972789115	291.97854875283446	62	127
291.47931972789115	291.97854875283446	54	127
291.97854875283446	292.23396825396827	67	127
291.97854875283446	292.23396825396827	57	127
291.97854875283446	292.23396825396827	50	127
292.23396825396827	292.4545578231293	66	127
292.46614512471655	292.89573696145123	57	127
292.46614512471655	292.6751247165533	64	127
292.46614512471655	292.89573696145123	66	127
292.6867573696145	292.89573696145123	62	127
292.9073469387755	293.1395464852608	66	127
292.9073469387755	293.1395464852608	57	127
292.9073469387755	293.1395464852608	50	127
293.1395464852608	293.3601360544218	62	127
293.3601360544218	293.812925170068	55	127
293.3601360544218	293.812925170068	62	127
293.3601360544218	293.812925170068	47	127
293.812925170068	294.033514739229	54	127
293.812925170068	294.033514739229	57	127
293.812925170068	294.033514739229	48	127
294.2657142857143	294.7068934240363	55	127
294.2657142857143	294.7068934240363	62	127
294.2657142857143	294.7068934240363	47	127
294.7068934240363	294.92748299319726	54	127
294.7068934240363	294.92748299319726	57	127
294.7068934240363	294.92748299319726	48	127
295.14807256235827	295.6705215419501	55	127
295.14807256235827	295.6705215419501	62	127
295.14807256235827	295.6705215419501	47	127
295.6821315192744	295.8911111111111	48	127
295.6821315192744	295.8911111111111	57	127
295.6821315192744	295.8911111111111	54	127
295.6821315192744	296.13492063492066	74	127
296.14650793650793	296.6225396825397	55	127
296.14650793650793	296.6225396825397	74	127
296.14650793650793	296.6225396825397	62	127
296.14650793650793	296.6225396825397	47	127
296.6225396825397	296.78507936507935	74	127
296.6225396825397	296.72702947845806	69	127
296.6225396825397	296.8431292517007	54	127
296.6225396825397	296.8431292517007	48	127
296.73863945578233	296.8431292517007	71	127
296.8431292517007	296.95920634920634	69	127
296.8431292517007	297.01727891156463	74	127
296.97083900226755	297.0753287981859	67	127
297.0753287981859	298.0273469387755	86	127
297.0753287981859	297.5281179138322	67	127
297.0753287981859	297.5281179138322	48	127
297.0753287981859	297.77192743764175	57	127
297.0753287981859	298.0273469387755	57	127
297.5397278911565	297.77192743764175	50	127
297.5397278911565	297.77192743764175	66	127
298.0273469387755	299.46698412698413	69	127
298.0273469387755	298.54979591836735	67	127
298.0273469387755	298.54979591836735	48	127
298.0273469387755	298.77038548752836	57	127
298.54979591836735	298.77038548752836	66	127
298.54979591836735	298.77038548752836	50	127
298.99097505668936	299.46698412698413	57	127
298.99097505668936	299.46698412698413	69	127
298.99097505668936	299.46698412698413	48	127
299.4785941043084	299.7107936507937	67	127
299.4785941043084	299.7107936507937	60	127
299.4785941043084	299.7107936507937	50	127
299.73401360544216	299.9429931972789	66	127
299.9429931972789	300.3841723356009	69	127
299.9429931972789	300.1635827664399	64	127
299.9429931972789	300.3841723356009	57	127
299.9429931972789	300.3841723356009	48	127
300.1635827664399	300.3841723356009	62	127
300.3841723356009	300.6047619047619	60	127
300.3841723356009	300.6047619047619	50	127
300.3841723356009	300.6047619047619	64	127
300.6047619047619	300.8253514739229	66	127
300.8369614512472	301.27814058956915	50	127
300.8369614512472	301.27814058956915	60	127
300.8369614512472	301.27814058956915	69	127
301.2897505668934	301.53356009070296	55	127
301.2897505668934	301.53356009070296	59	127
301.2897505668934	301.66124716553287	79	127
301.2897505668934	301.53356009070296	67	127
301.77736961451245	302.1024489795918	79	127
301.77736961451245	302.21854875283447	60	127
301.77736961451245	302.21854875283447	69	127
301.77736961451245	302.21854875283447	50	127
302.21854875283447	302.3810657596372	79	127
302.21854875283447	302.4391383219955	67	127
302.21854875283447	302.4391383219955	59	127
302.21854875283447	302.4391383219955	55	127
302.45074829931974	302.6132879818594	79	127
302.67133786848075	303.1125170068027	62	127
302.67133786848075	303.1125170068027	59	127
302.67133786848075	303.1125170068027	67	127
302.67133786848075	303.54208616780045	84	127
303.1125170068027	303.3331065759637	60	127
303.1125170068027	303.3331065759637	57	127
303.1125170068027	303.3331065759637	66	127
303.1125170068027	303.4259863945578	38	127
303.54208616780045	304.01807256235827	59	127
303.54208616780045	304.01807256235827	62	127
303.54208616780045	303.9135827664399	38	127
303.54208616780045	304.01807256235827	67	127
304.0297052154195	304.2386848072562	66	127
304.0297052154195	304.2386848072562	60	127
304.0297052154195	304.1922448979592	38	127
304.0297052154195	304.2386848072562	57	127
304.2502947845805	304.48249433106577	38	127
304.54054421768706	305.2255328798186	50	127
304.54054421768706	305.0165532879819	69	127
304.54054421768706	305.0165532879819	60	127
304.54054421768706	305.0165532879819	42	127
305.0165532879819	305.2255328798186	43	127
305.0165532879819	305.2255328798186	59	127
305.0165532879819	305.2255328798186	67	127
305.4460997732426	305.8756916099773	60	127
305.4460997732426	306.0962811791383	50	127
305.4460997732426	305.8756916099773	69	127
305.4460997732426	305.8756916099773	42	127
305.8873015873016	306.0962811791383	67	127
305.8873015873016	306.0962811791383	59	127
305.8873015873016	306.0962811791383	43	127
306.3284807256236	306.7232199546485	42	127
306.3284807256236	306.7232199546485	69	127
306.3284807256236	306.94380952380953	50	127
306.3284807256236	306.7232199546485	60	127
306.7232199546485	306.94380952380953	59	127
306.7232199546485	307.0599092970522	74	127
306.7232199546485	306.94380952380953	67	127
306.7232199546485	306.94380952380953	43	127
307.1760090702948	307.8261678004535	50	127
307.1760090702948	307.2804988662132	60	127
307.1760090702948	307.4894557823129	74	127
307.1760090702948	307.5939455782313	69	127
307.1760090702948	307.5939455782313	42	127
307.2804988662132	307.3733786848073	62	127
307.38496598639455	307.4894557823129	60	127
307.4894557823129	307.5939455782313	59	127
307.6055782312925	307.71006802721087	71	127
307.6055782312925	307.7681179138322	74	127
307.6055782312925	307.8261678004535	59	127
307.6055782312925	307.8261678004535	43	127
307.71006802721087	307.8261678004535	72	127
307.8261678004535	307.9306575963719	71	127
307.8261678004535	308.0002947845805	74	127
307.9538775510204	308.0583673469388	69	127
308.0583673469388	308.9987755102041	50	127
308.0583673469388	308.53437641723355	60	127
308.0583673469388	308.53437641723355	57	127
308.0583673469388	308.9987755102041	79	127
308.53437641723355	308.7665759637188	59	127
308.53437641723355	308.7665759637188	55	127
309.01038548752837	309.47478458049886	67	127
309.01038548752837	310.42680272108845	62	127
309.01038548752837	309.47478458049886	59	127
309.47478458049886	309.69537414965987	59	127
309.47478458049886	309.69537414965987	55	127
309.9507709750567	310.42680272108845	67	127
309.9507709750567	310.42680272108845	59	127
310.4384126984127	310.64739229024946	60	127
310.4384126984127	310.64739229024946	62	127
310.4384126984127	310.64739229024946	55	127
310.6589795918367	310.8563718820862	59	127
310.86795918367346	311.29755102040815	59	127
310.86795918367346	311.0885714285714	57	127
310.86795918367346	311.29755102040815	67	127
311.0885714285714	311.29755102040815	55	127
311.29755102040815	311.5065306122449	59	127
311.29755102040815	311.5065306122449	62	127
311.29755102040815	311.5065306122449	55	127
311.5065306122449	311.7271201814059	55	127
311.7271201814059	312.1682993197279	57	127
311.7271201814059	312.1682993197279	43	127
311.7271201814059	312.1682993197279	60	127
312.1799092970522	312.4004761904762	50	127
312.1799092970522	312.52820861678003	74	127
312.1799092970522	312.4004761904762	57	127
312.1799092970522	312.4004761904762	42	127
312.6443083900227	313.09709750566896	60	127
312.6443083900227	313.09709750566896	43	127
312.6443083900227	312.9809977324263	74	127
312.6443083900227	313.09709750566896	57	127
313.09709750566896	313.31766439909296	50	127
313.09709750566896	313.31766439909296	42	127
313.09709750566896	313.2596371882086	74	127
313.09709750566896	313.31766439909296	57	127
313.31766439909296	313.4802267573696	74	127
313.5382766439909	313.9794557823129	60	127
313.5382766439909	314.4322448979592	86	127
313.5382766439909	313.9794557823129	57	127
313.9910657596372	314.20004535147393	54	127
313.9910657596372	314.20004535147393	57	127
313.9910657596372	314.31614512471657	38	127
314.4322448979592	314.7689342403628	38	127
314.4322448979592	314.88503401360543	52	127
314.4322448979592	314.88503401360543	62	127
314.88503401360543	315.10562358276644	60	127
314.88503401360543	315.10562358276644	54	127
314.88503401360543	315.04757369614515	38	127
315.10562358276644	315.27977324263037	38	127
315.4423129251701	315.8486621315193	60	127
315.4423129251701	316.3362811791383	43	127
315.4423129251701	315.8486621315193	54	127
315.86027210884356	316.10408163265305	55	127
315.86027210884356	316.04603174603176	74	127
315.86027210884356	316.10408163265305	59	127
316.10408163265305	316.27823129251703	74	127
316.3362811791383	316.77746031746034	71	127
316.3362811791383	316.77746031746034	62	127
316.3362811791383	316.77746031746034	52	127
316.3362811791383	317.1954195011338	86	127
316.77746031746034	316.94	38	127
316.77746031746034	316.99802721088435	60	127
316.77746031746034	316.99802721088435	69	127
316.77746031746034	316.99802721088435	54	127
317.00965986394556	317.160589569161	38	127
317.2070068027211	317.64820861678004	60	127
317.2070068027211	318.12419501133786	43	127
317.2070068027211	317.64820861678004	54	127
317.64820861678004	317.8920181405896	55	127
317.64820861678004	317.81074829931976	74	127
317.64820861678004	317.8920181405896	59	127
317.8920181405896	318.0661678004535	74	127
318.12419501133786	318.5653968253968	62	127
318.12419501133786	318.9833560090703	86	127
318.12419501133786	318.5653968253968	71	127
318.12419501133786	318.5653968253968	52	127
318.5770068027211	318.7859863945578	54	127
318.5770068027211	318.7395238095238	38	127
318.5770068027211	318.7859863945578	60	127
318.5770068027211	318.7859863945578	69	127
318.7975963718821	318.93691609977327	38	127
318.99496598639456	319.4361451247166	60	127
318.99496598639456	319.4361451247166	41	127
318.99496598639456	319.4361451247166	50	127
319.4361451247166	319.6567120181406	59	127
319.4361451247166	319.6567120181406	53	127
319.4361451247166	319.59868480725623	38	127
319.6567120181406	319.81927437641724	38	127
319.87732426303853	320.31850340136054	60	127
319.87732426303853	320.31850340136054	41	127
319.87732426303853	320.31850340136054	50	127
320.3301133786848	320.48102040816326	38	127
320.3301133786848	320.5274829931973	53	127
320.3301133786848	320.48102040816326	79	127
320.3301133786848	320.5274829931973	59	127
320.53909297052155	320.69002267573694	79	127
320.53909297052155	320.69002267573694	38	127
320.7480725623583	321.2124716553288	36	127
320.7480725623583	321.2124716553288	62	127
320.7480725623583	321.2124716553288	51	127
320.7480725623583	321.6420408163265	79	127
321.2124716553288	321.53755102040816	43	127
321.2124716553288	321.4214512471655	55	127
321.2124716553288	321.4214512471655	60	127
321.6536507936508	322.0948299319728	51	127
321.6536507936508	322.0948299319728	62	127
321.6536507936508	322.95396825396824	91	127
321.6536507936508	321.99034013605444	43	127
322.1064399092971	322.32702947845803	55	127
322.1064399092971	322.26897959183674	43	127
322.1064399092971	322.32702947845803	60	127
322.32702947845803	322.4779591836735	43	127
322.53600907029477	322.95396825396824	62	127
322.53600907029477	322.95396825396824	48	127
322.53600907029477	322.95396825396824	51	127
322.95396825396824	323.17455782312925	55	127
322.95396825396824	323.2906575963719	55	127
322.95396825396824	323.17455782312925	89	127
322.95396825396824	323.17455782312925	60	127
323.1861678004535	323.383537414966	87	127
323.39514739229026	323.83632653061227	62	127
323.39514739229026	323.83632653061227	51	127
323.39514739229026	323.61573696145126	86	127
323.39514739229026	323.72022675736963	55	127
323.62734693877553	323.83632653061227	84	127
323.83632653061227	324.0568934240363	55	127
323.83632653061227	324.0568934240363	87	127
323.83632653061227	324.0568934240363	60	127
323.83632653061227	323.9988662131519	55	127
324.0568934240363	324.2426757369615	84	127
324.0568934240363	324.1846258503401	55	127
324.2426757369615	324.7419047619048	62	127
324.2426757369615	325.1830612244898	55	127
324.2426757369615	324.7419047619048	79	127
324.2426757369615	324.7419047619048	51	127
324.75351473922905	324.9624943310658	60	127
324.75351473922905	324.9624943310658	55	127
325.194693877551	325.635873015873	62	127
325.194693877551	326.52984126984126	67	127
325.194693877551	325.635873015873	51	127
325.635873015873	325.8680725623583	55	127
325.635873015873	325.8680725623583	60	127
326.07705215419503	326.52984126984126	62	127
326.07705215419503	326.52984126984126	51	127
326.5414512471655	326.75043083900226	65	127
326.5414512471655	326.8665306122449	79	127
326.5414512471655	326.75043083900226	60	127
326.5414512471655	326.75043083900226	55	127
326.76204081632653	326.9942403628118	63	127
326.9942403628118	327.4353968253968	67	127
326.9942403628118	327.4353968253968	51	127
326.9942403628118	327.2264172335601	62	127
326.9942403628118	327.33090702947845	79	127
327.2264172335601	327.4353968253968	60	127
327.4353968253968	327.6560090702948	55	127
327.4353968253968	327.6560090702948	60	127
327.4353968253968	327.6560090702948	63	127
327.4353968253968	327.5979591836735	79	127
327.6560090702948	327.8649886621315	60	127
327.6560090702948	327.8069387755102	79	127
327.8649886621315	328.3061678004535	62	127
327.8649886621315	328.3061678004535	52	127
327.8649886621315	328.3061678004535	55	127
327.8649886621315	328.74734693877554	84	127
328.3177777777778	328.52675736961453	55	127
328.3177777777778	328.64285714285717	60	127
328.3177777777778	328.52675736961453	60	127
328.74734693877554	329.1885260770975	52	127
328.74734693877554	329.07242630385485	60	127
328.74734693877554	329.1885260770975	62	127
329.1885260770975	329.3510657596372	60	127
329.1885260770975	329.4091156462585	55	127
329.1885260770975	329.4091156462585	60	127
329.4091156462585	329.5716326530612	60	127
329.6645351473923	330.09408163265306	48	127
329.6645351473923	330.5468934240363	64	127
329.6645351473923	330.09408163265306	62	127
330.10571428571427	330.3263038548753	60	127
330.10571428571427	330.3263038548753	55	127
330.10571428571427	330.268253968254	79	127
330.3263038548753	330.488843537415	79	127
330.5468934240363	330.96485260770976	62	127
330.5468934240363	330.96485260770976	51	127
330.5468934240363	331.4060317460318	84	127
330.96485260770976	331.18544217687077	60	127
330.96485260770976	331.1273922902494	60	127
330.96485260770976	331.18544217687077	55	127
331.19705215419503	331.3595918367347	60	127
331.41761904761904	331.84721088435373	60	127
331.41761904761904	331.84721088435373	48	127
331.41761904761904	331.84721088435373	64	127
331.84721088435373	332.05619047619047	55	127
331.84721088435373	332.16068027210883	79	127
331.84721088435373	332.05619047619047	52	127
331.84721088435373	331.9981405895692	60	127
332.05619047619047	332.2187301587302	60	127
332.2767800453515	332.60185941043085	79	127
332.2767800453515	332.7179591836735	63	127
332.2767800453515	332.7179591836735	48	127
332.2767800453515	332.7179591836735	60	127
332.7179591836735	332.95013605442176	55	127
332.7179591836735	332.8921088435374	60	127
332.7179591836735	332.95013605442176	51	127
332.7179591836735	332.8921088435374	79	127
332.961768707483	333.13591836734696	60	127
332.961768707483	333.13591836734696	79	127
333.19396825396825	333.6583673469388	67	127
333.19396825396825	336.23578231292515	63	127
333.19396825396825	334.09954648526076	79	127
333.19396825396825	333.6583673469388	48	127
333.6583673469388	333.87895691609975	63	127
333.6583673469388	333.87895691609975	51	127
334.09954648526076	335.3534240362812	91	127
334.09954648526076	334.55233560090704	63	127
334.09954648526076	334.55233560090704	48	127
334.5639455782313	334.7845124716553	57	127
334.5639455782313	334.7845124716553	53	127
334.947074829932	335.3534240362812	75	127
334.947074829932	335.3534240362812	53	127
335.3534240362812	335.5740136054422	69	127
335.3534240362812	335.5740136054422	60	127
335.3534240362812	335.5740136054422	89	127
335.5740136054422	335.7946031746032	87	127
335.80621315192747	336.0151700680272	75	127
335.80621315192747	336.0151700680272	86	127
335.80621315192747	336.0151700680272	53	127
336.0151700680272	336.23578231292515	65	127
336.0151700680272	336.23578231292515	84	127
336.0151700680272	336.23578231292515	63	127
336.23578231292515	336.4331292517007	82	127
336.23578231292515	336.3286394557823	67	127
336.23578231292515	336.3286394557823	65	127
336.23578231292515	336.3286394557823	62	127
336.3286394557823	336.4331292517007	67	127
336.3286394557823	336.4331292517007	63	127
336.3286394557823	336.4331292517007	65	127
336.4331292517007	336.6537414965986	84	127
336.4331292517007	336.537641723356	67	127
336.4331292517007	336.537641723356	65	127
336.4331292517007	336.537641723356	62	127
336.54925170068026	336.6537414965986	60	127
336.54925170068026	336.6537414965986	63	127
336.54925170068026	336.6537414965986	69	127
336.6537414965986	336.758231292517	70	127
336.6537414965986	336.758231292517	58	127
336.6537414965986	336.978820861678	86	127
336.6537414965986	336.758231292517	62	127
336.76984126984127	336.87433106575963	69	127
336.76984126984127	336.87433106575963	60	127
336.76984126984127	336.87433106575963	63	127
336.87433106575963	336.978820861678	58	127
336.87433106575963	336.978820861678	70	127
336.87433106575963	336.978820861678	62	127
336.9904308390023	337.09492063492064	72	127
336.9904308390023	337.09492063492064	57	127
336.9904308390023	337.09492063492064	60	127
337.09492063492064	337.18780045351474	74	127
337.09492063492064	337.37356009070294	82	127
337.09492063492064	337.18780045351474	55	127
337.09492063492064	337.18780045351474	58	127
337.18780045351474	337.28068027210884	57	127
337.18780045351474	337.28068027210884	72	127
337.18780045351474	337.28068027210884	60	127
337.2922902494331	337.37356009070294	74	127
337.2922902494331	337.37356009070294	55	127
337.2922902494331	337.37356009070294	58	127
337.37356009070294	337.4780498866213	53	127
337.37356009070294	337.4780498866213	75	127
337.37356009070294	337.4780498866213	57	127
337.4896598639456	337.55931972789114	77	127
337.4896598639456	337.75666666666666	82	127
337.4896598639456	337.55931972789114	55	127
337.4896598639456	337.55931972789114	51	127
337.55931972789114	337.640589569161	75	127
337.55931972789114	337.640589569161	53	127
337.55931972789114	337.640589569161	57	127
337.6521768707483	337.75666666666666	51	127
337.6521768707483	337.75666666666666	77	127
337.6521768707483	337.75666666666666	55	127
337.75666666666666	337.87278911564624	79	127
337.75666666666666	337.87278911564624	53	127
337.75666666666666	337.87278911564624	50	127
337.87278911564624	338.03532879818596	82	127
337.87278911564624	337.9772789115646	81	127
337.87278911564624	337.9772789115646	51	127
337.87278911564624	337.9772789115646	48	127
337.9772789115646	338.081768707483	53	127
337.9772789115646	338.081768707483	50	127
337.9772789115646	338.081768707483	79	127
338.09337868480725	338.26750566893423	82	127
338.09337868480725	338.1978684807256	81	127
338.09337868480725	338.1978684807256	51	127
338.09337868480725	338.1978684807256	48	127
338.2094784580499	338.3255782312925	46	127
338.2094784580499	338.3255782312925	50	127
338.2094784580499	338.3255782312925	82	127
338.3255782312925	338.45328798185943	48	127
338.3255782312925	339.60267573696143	84	127
338.3255782312925	339.60267573696143	87	127
338.3255782312925	338.45328798185943	46	127
338.45328798185943	338.5809977324263	45	127
338.45328798185943	338.5809977324263	60	127
338.5809977324263	338.66226757369617	58	127
338.5809977324263	338.66226757369617	48	127
338.67385487528344	338.7783446712018	60	127
338.67385487528344	338.7783446712018	52	127
338.7783446712018	338.8828344671202	53	127
338.7783446712018	338.8828344671202	57	127
338.8944671201814	338.98732426303854	60	127
338.8944671201814	338.98732426303854	55	127
338.98732426303854	339.08020408163264	65	127
338.98732426303854	339.08020408163264	57	127
339.09183673469386	339.17310657596374	67	127
339.09183673469386	339.17310657596374	58	127
339.17310657596374	339.2891836734694	69	127
339.17310657596374	339.2891836734694	60	127
339.2891836734694	339.39367346938775	67	127
339.2891836734694	339.39367346938775	59	127
339.40530612244896	339.50979591836733	69	127
339.40530612244896	339.50979591836733	60	127
339.50979591836733	339.60267573696143	62	127
339.50979591836733	339.60267573696143	70	127
339.6142857142857	339.71877551020407	72	127
339.6142857142857	339.71877551020407	69	127
339.6142857142857	339.71877551020407	63	127
339.71877551020407	339.82326530612244	74	127
339.71877551020407	339.82326530612244	67	127
339.71877551020407	339.82326530612244	65	127
339.8348752834467	339.9277551020408	69	127
339.8348752834467	339.9277551020408	72	127
339.8348752834467	339.9277551020408	63	127
339.9277551020408	340.0090022675737	70	127
339.9277551020408	340.0090022675737	62	127
339.9277551020408	340.0090022675737	70	127
340.0090022675737	340.0902947845805	60	127
340.0090022675737	340.0902947845805	72	127
340.0090022675737	340.0902947845805	69	127
340.1018820861678	340.1947845804989	70	127
340.1018820861678	340.1947845804989	70	127
340.1018820861678	340.1947845804989	62	127
340.1947845804989	340.29927437641726	60	127
340.1947845804989	340.29927437641726	72	127
340.1947845804989	340.29927437641726	69	127
340.3108616780045	340.4153514739229	74	127
340.3108616780045	340.4153514739229	58	127
340.3108616780045	340.4153514739229	67	127
340.4153514739229	340.508253968254	75	127
340.4153514739229	340.508253968254	57	127
340.4153514739229	340.72884353741495	84	127
340.4153514739229	340.508253968254	65	127
340.51984126984127	340.62433106575963	74	127
340.51984126984127	340.62433106575963	58	127
340.51984126984127	340.62433106575963	67	127
340.62433106575963	340.72884353741495	75	127
340.62433106575963	340.72884353741495	65	127
340.62433106575963	340.72884353741495	57	127
340.72884353741495	340.81011337868483	77	127
340.72884353741495	340.81011337868483	63	127
340.72884353741495	340.81011337868483	55	127
340.8217006802721	340.8797732426304	79	127
340.8217006802721	341.08875283446713	84	127
340.8217006802721	340.8797732426304	62	127
340.8217006802721	340.8797732426304	53	127
340.8797732426304	340.98426303854876	77	127
340.8797732426304	340.98426303854876	55	127
340.8797732426304	340.98426303854876	63	127
340.99587301587303	341.08875283446713	53	127
340.99587301587303	341.08875283446713	79	127
340.99587301587303	341.08875283446713	62	127
341.08875283446713	341.1932426303855	81	127
341.08875283446713	341.1932426303855	60	127
341.08875283446713	341.1932426303855	51	127
341.20485260770977	341.35578231292516	84	127
341.20485260770977	341.30934240362814	82	127
341.20485260770977	341.30934240362814	58	127
341.20485260770977	341.30934240362814	50	127
341.3209523809524	341.4138321995465	60	127
341.3209523809524	341.4138321995465	51	127
341.3209523809524	341.4138321995465	81	127
341.4254421768708	341.5995918367347	84	127
341.4254421768708	341.5415192743764	82	127
341.4254421768708	341.5415192743764	58	127
341.4254421768708	341.5415192743764	50	127
341.5415192743764	341.66925170068026	48	127
341.5415192743764	341.66925170068026	57	127
341.5415192743764	341.66925170068026	84	127
341.66925170068026	341.79696145124717	51	127
341.66925170068026	342.8534693877551	86	127
341.66925170068026	342.8534693877551	89	127
341.66925170068026	341.79696145124717	48	127
341.79696145124717	341.9130612244898	50	127
341.79696145124717	341.9130612244898	46	127
341.9246712018141	342.02916099773245	48	127
341.9246712018141	342.02916099773245	45	127
342.02916099773245	342.1336507936508	50	127
342.02916099773245	342.1336507936508	46	127
342.1452607709751	342.18009070294784	53	127
342.1452607709751	342.18009070294784	50	127
342.18009070294784	342.21492063492065	53	127
342.18009070294784	342.21492063492065	58	127
342.21492063492065	342.319410430839	62	127
342.21492063492065	342.319410430839	58	127
342.3310204081633	342.43551020408165	65	127
342.3310204081633	342.43551020408165	62	127
342.43551020408165	342.54	65	127
342.43551020408165	342.54	62	127
342.5516099773243	342.65609977324266	63	127
342.5516099773243	342.65609977324266	67	127
342.65609977324266	342.7373696145125	62	127
342.65609977324266	342.7373696145125	65	127
342.74897959183676	342.8534693877551	60	127
342.74897959183676	342.8534693877551	63	127
342.8534693877551	342.96954648526076	89	127
342.8534693877551	342.96954648526076	65	127
342.8534693877551	342.96954648526076	62	127
342.8534693877551	342.96954648526076	82	127
342.96954648526076	343.07403628117913	91	127
342.96954648526076	343.07403628117913	65	127
342.96954648526076	343.07403628117913	63	127
342.96954648526076	343.07403628117913	81	127
343.08566893424035	343.1901587301587	89	127
343.08566893424035	343.1901587301587	67	127
343.08566893424035	343.1901587301587	62	127
343.08566893424035	343.1901587301587	82	127
343.1901587301587	343.2946485260771	87	127
343.1901587301587	343.2946485260771	69	127
343.1901587301587	343.2946485260771	60	127
343.1901587301587	343.2946485260771	84	127
343.30625850340135	343.4107482993197	74	127
343.30625850340135	343.4107482993197	70	127
343.30625850340135	343.4107482993197	58	127
343.30625850340135	343.4107482993197	77	127
343.4107482993197	343.5036281179138	87	127
343.4107482993197	343.5036281179138	48	127
343.4107482993197	343.5036281179138	45	127
343.4107482993197	343.5036281179138	79	127
343.5152380952381	343.61972789115646	46	127
343.5152380952381	343.61972789115646	77	127
343.5152380952381	343.61972789115646	86	127
343.5152380952381	343.61972789115646	50	127
343.61972789115646	343.7358276643991	84	127
343.61972789115646	343.7358276643991	51	127
343.61972789115646	343.7358276643991	48	127
343.61972789115646	343.7358276643991	75	127
343.7358276643991	343.8287074829932	86	127
343.7358276643991	343.8287074829932	53	127
343.7358276643991	343.8287074829932	50	127
343.7358276643991	343.8287074829932	82	127
343.84031746031746	343.94480725623583	84	127
343.84031746031746	343.94480725623583	55	127
343.84031746031746	343.94480725623583	51	127
343.84031746031746	343.94480725623583	81	127
343.94480725623583	344.0492970521542	82	127
343.94480725623583	344.0492970521542	57	127
343.94480725623583	344.0492970521542	53	127
343.94480725623583	344.0492970521542	79	127
344.06090702947847	344.1421768707483	81	127
344.06090702947847	344.1421768707483	58	127
344.06090702947847	344.1421768707483	55	127
344.06090702947847	344.1421768707483	77	127
344.1421768707483	344.24666666666667	79	127
344.1421768707483	344.24666666666667	60	127
344.1421768707483	344.24666666666667	57	127
344.1421768707483	344.24666666666667	75	127
344.25827664399094	344.35115646258504	77	127
344.25827664399094	344.35115646258504	62	127
344.25827664399094	344.35115646258504	58	127
344.25827664399094	344.35115646258504	74	127
344.35115646258504	344.4672562358277	77	127
344.35115646258504	344.4672562358277	63	127
344.35115646258504	344.4672562358277	60	127
344.35115646258504	344.4672562358277	72	127
344.4672562358277	344.57174603174604	77	127
344.4672562358277	344.57174603174604	65	127
344.4672562358277	344.57174603174604	62	127
344.4672562358277	344.57174603174604	70	127
344.5833560090703	344.75750566893424	77	127
344.5833560090703	344.75750566893424	63	127
344.5833560090703	344.75750566893424	72	127
344.5833560090703	344.75750566893424	69	127
344.8155328798186	344.9897052154195	77	127
344.8155328798186	344.9897052154195	70	127
344.8155328798186	344.9897052154195	74	127
344.8155328798186	344.9897052154195	60	127
345.0477551020408	345.53537414965984	69	127
345.0477551020408	345.53537414965984	72	127
345.0477551020408	345.53537414965984	65	127
345.0477551020408	345.53537414965984	77	127
345.53537414965984	345.6863038548753	77	127
345.53537414965984	345.6863038548753	72	127
345.53537414965984	345.6863038548753	65	127
345.53537414965984	345.6863038548753	68	127
345.7443537414966	345.9068934240363	79	127
345.7443537414966	345.9068934240363	67	127
345.7443537414966	345.9068934240363	63	127
345.7443537414966	345.9068934240363	72	127
345.97655328798186	346.41773242630387	79	127
345.97655328798186	346.41773242630387	67	127
345.97655328798186	346.41773242630387	74	127
345.97655328798186	346.1390702947846	71	127
346.20875283446713	346.3712925170068	70	127
346.42934240362814	346.5918820861678	73	127
346.42934240362814	346.5918820861678	76	127
346.42934240362814	346.5918820861678	67	127
346.64990929705215	346.8124716553288	75	127
346.64990929705215	346.8124716553288	68	127
346.64990929705215	346.8124716553288	73	127
346.8705215419501	347.3117006802721	68	127
346.8705215419501	347.0330612244898	73	127
346.8705215419501	347.0330612244898	65	127
346.8705215419501	347.3117006802721	80	127
347.0911111111111	347.2536507936508	72	127
347.0911111111111	347.2536507936508	63	127
347.3117006802721	347.4510204081633	78	127
347.3117006802721	347.4510204081633	69	127
347.3117006802721	347.4510204081633	72	127
347.4974603174603	347.66	77	127
347.4974603174603	347.66	70	127
347.4974603174603	347.66	62	127
347.4974603174603	347.66	74	127
347.74126984126985	348.3101587301587	70	127
347.74126984126985	347.8573696145125	74	127
347.74126984126985	347.8573696145125	82	127
347.74126984126985	347.9038095238095	65	127
347.8573696145125	347.97344671201813	75	127
347.8573696145125	347.97344671201813	84	127
347.9850566893424	348.0895691609977	77	127
347.9850566893424	348.0895691609977	82	127
347.9850566893424	348.14761904761906	62	127
348.0895691609977	348.1940589569161	80	127
348.0895691609977	348.1940589569161	77	127
348.20566893424035	348.3101587301587	75	127
348.20566893424035	348.6236281179138	63	127
348.20566893424035	348.3101587301587	79	127
348.3101587301587	348.4030385487528	80	127
348.3101587301587	348.4030385487528	72	127
348.3101587301587	348.4030385487528	77	127
348.4030385487528	348.5075283446712	79	127
348.4030385487528	348.5075283446712	70	127
348.4030385487528	348.5075283446712	75	127
348.51913832199546	348.6236281179138	77	127
348.51913832199546	348.6236281179138	68	127
348.51913832199546	348.6236281179138	72	127
348.6236281179138	348.7281179138322	67	127
348.6236281179138	348.7281179138322	75	127
348.6236281179138	348.7281179138322	70	127
348.73972789115646	348.84421768707483	77	127
348.73972789115646	348.84421768707483	72	127
348.73972789115646	348.84421768707483	69	127
348.84421768707483	348.9487074829932	67	127
348.84421768707483	348.9487074829932	75	127
348.84421768707483	348.9487074829932	70	127
348.96031746031747	349.06480725623584	74	127
348.96031746031747	349.06480725623584	68	127
348.96031746031747	349.06480725623584	65	127
349.06480725623584	349.3898866213152	51	127
349.06480725623584	349.1809070294785	72	127
349.06480725623584	349.1809070294785	67	127
349.06480725623584	349.1809070294785	63	127
349.1809070294785	349.2737868480726	68	127
349.1809070294785	349.2737868480726	65	127
349.1809070294785	349.2737868480726	74	127
349.28539682539684	349.3898866213152	67	127
349.28539682539684	349.3898866213152	72	127
349.28539682539684	349.3898866213152	63	127
349.3898866213152	349.4827664399093	65	127
349.3898866213152	349.4827664399093	70	127
349.3898866213152	349.4827664399093	62	127
349.4943764172336	349.5872562358277	68	127
349.4943764172336	349.5872562358277	63	127
349.4943764172336	349.5872562358277	60	127
349.4943764172336	349.8078458049887	51	127
349.5872562358277	349.69174603174605	70	127
349.5872562358277	349.69174603174605	65	127
349.5872562358277	349.69174603174605	62	127
349.7033560090703	349.8078458049887	60	127
349.7033560090703	349.8078458049887	68	127
349.7033560090703	349.8078458049887	63	127
349.8078458049887	349.9239229024943	67	127
349.8078458049887	349.9239229024943	62	127
349.8078458049887	349.9239229024943	58	127
349.9239229024943	350.0284126984127	65	127
349.9239229024943	350.0284126984127	57	127
349.9239229024943	350.086485260771	51	127
349.9239229024943	350.0284126984127	60	127
350.0400453514739	350.1212925170068	58	127
350.0400453514739	350.1212925170068	55	127
350.0400453514739	350.1212925170068	67	127
350.13290249433106	350.22578231292516	57	127
350.13290249433106	350.22578231292516	65	127
350.13290249433106	350.22578231292516	60	127
350.13290249433106	350.2954648526077	51	127
350.2374149659864	350.353514739229	63	127
350.2374149659864	350.353514739229	55	127
350.2374149659864	350.353514739229	58	127
350.353514739229	351.59578231292517	63	127
350.353514739229	351.59578231292517	55	127
350.353514739229	351.59578231292517	51	127
350.353514739229	351.59578231292517	59	127
350.353514739229	350.4812244897959	63	127
350.353514739229	351.59578231292517	47	127
350.4812244897959	350.6089342403628	55	127
350.6089342403628	350.7134240362812	63	127
350.7134240362812	350.82952380952383	67	127
350.82952380952383	350.9456009070295	75	127
350.9456009070295	351.05009070294784	67	127
351.05009070294784	351.1545804988662	75	127
351.1545804988662	351.2474603174603	79	127
351.2474603174603	351.31714285714287	75	127
351.31714285714287	351.42163265306124	79	127
351.42163265306124	351.5377324263039	87	127
351.5377324263039	351.60739229024944	79	127
351.60739229024944	351.78154195011336	87	127
351.60739229024944	351.7118820861678	79	127
351.73510204081634	351.8395918367347	80	127
351.8395918367347	352.23433106575965	87	127
351.8395918367347	351.9905215419501	79	127
351.9905215419501	352.118231292517	77	127
352.118231292517	352.23433106575965	67	127
352.118231292517	352.23433106575965	75	127
352.2459410430839	352.3504308390023	89	127
352.2459410430839	352.3504308390023	72	127
352.2459410430839	352.3504308390023	68	127
352.3504308390023	352.45492063492065	87	127
352.3504308390023	352.45492063492065	70	127
352.3504308390023	352.45492063492065	67	127
352.45492063492065	352.559410430839	68	127
352.45492063492065	352.559410430839	86	127
352.45492063492065	352.559410430839	65	127
352.559410430839	352.6522902494331	67	127
352.559410430839	352.6522902494331	63	127
352.559410430839	352.86126984126986	51	127
352.559410430839	352.6522902494331	84	127
352.6522902494331	352.7567800453515	86	127
352.6522902494331	352.7567800453515	68	127
352.6522902494331	352.7567800453515	65	127
352.76839002267576	352.86126984126986	84	127
352.76839002267576	352.86126984126986	67	127
352.76839002267576	352.86126984126986	63	127
352.86126984126986	352.9657596371882	82	127
352.86126984126986	352.9657596371882	62	127
352.86126984126986	352.9657596371882	65	127
352.9773696145125	353.0702494331066	60	127
352.9773696145125	353.0702494331066	80	127
352.9773696145125	353.26761904761906	51	127
352.9773696145125	353.0702494331066	63	127
353.0702494331066	353.1631292517007	62	127
353.0702494331066	353.1631292517007	82	127
353.0702494331066	353.1631292517007	65	127
353.1631292517007	353.26761904761906	63	127
353.1631292517007	353.26761904761906	60	127
353.1631292517007	353.26761904761906	80	127
353.26761904761906	353.3837188208617	79	127
353.26761904761906	353.3837188208617	62	127
353.26761904761906	353.3837188208617	58	127
353.3837188208617	353.48820861678007	56	127
353.3837188208617	353.48820861678007	77	127
353.3837188208617	353.48820861678007	60	127
353.3837188208617	353.5346485260771	51	127
353.48820861678007	353.58108843537417	58	127
353.48820861678007	353.58108843537417	79	127
353.48820861678007	353.58108843537417	55	127
353.59269841269844	353.6971882086168	77	127
353.59269841269844	353.6971882086168	60	127
353.59269841269844	353.6971882086168	56	127
353.59269841269844	353.76684807256237	51	127
353.7087755102041	353.82489795918366	75	127
353.7087755102041	353.82489795918366	58	127
353.7087755102041	353.82489795918366	55	127
353.82489795918366	355.1716553287982	54	127
353.82489795918366	353.96421768707484	63	127
353.82489795918366	355.1716553287982	45	127
353.82489795918366	355.1716553287982	60	127
353.96421768707484	354.09192743764174	60	127
354.09192743764174	354.2080272108844	57	127
354.2080272108844	354.31249433106575	60	127
354.31249433106575	354.4402267573696	63	127
354.4402267573696	354.5331065759637	66	127
354.5331065759637	354.64920634920634	69	127
354.64920634920634	354.74208616780044	72	127
354.74208616780044	354.8581859410431	75	127
354.8581859410431	354.9742857142857	78	127
354.9742857142857	355.0671655328798	77	127
355.0671655328798	355.1716553287982	75	127
355.18326530612245	356.4371428571429	44	127
355.18326530612245	355.3922448979592	59	127
355.18326530612245	355.2877551020408	75	127
355.18326530612245	355.62444444444446	53	127
355.2877551020408	355.40385487528346	74	127
355.40385487528346	355.62444444444446	58	127
355.40385487528346	355.5083446712018	77	127
355.5083446712018	355.62444444444446	74	127
355.62444444444446	356.4371428571429	53	127
355.62444444444446	355.72893424036283	77	127
355.62444444444446	356.4371428571429	65	127
355.62444444444446	356.4371428571429	58	127
355.72893424036283	355.82181405895693	79	127
355.82181405895693	355.9263038548753	81	127
355.9263038548753	356.03079365079367	82	127
356.03079365079367	356.1468934240363	84	127
356.1468934240363	356.2513832199547	86	127
356.2513832199547	356.35587301587304	87	127
356.35587301587304	356.44875283446714	89	127
356.44875283446714	356.8782993197279	63	127
356.44875283446714	356.8782993197279	55	127
356.44875283446714	356.8782993197279	43	127
356.44875283446714	356.58807256235826	91	127
356.44875283446714	356.8782993197279	58	127
356.66931972789115	356.8318820861678	92	127
356.8899319727891	357.0524716553288	94	127
356.8899319727891	357.0524716553288	56	127
356.8899319727891	357.0524716553288	63	127
356.8899319727891	357.0524716553288	53	127
356.8899319727891	357.0524716553288	41	127
357.1105215419501	357.2730612244898	95	127
357.1105215419501	357.2730612244898	55	127
357.1105215419501	357.2730612244898	63	127
357.1105215419501	357.2730612244898	51	127
357.1105215419501	357.2730612244898	39	127
357.3311111111111	357.54009070294785	96	127
357.3311111111111	357.76068027210886	60	127
357.3311111111111	357.76068027210886	63	127
357.3311111111111	357.76068027210886	56	127
357.3311111111111	357.76068027210886	44	127
357.54009070294785	357.6561904761905	72	127
357.6561904761905	357.76068027210886	74	127
357.76068027210886	357.9348299319728	58	127
357.76068027210886	357.9348299319728	55	127
357.76068027210886	357.9348299319728	43	127
357.76068027210886	357.9348299319728	63	127
357.76068027210886	357.88839002267576	75	127
357.88839002267576	358.0277097505669	77	127
358.0277097505669	358.1902494331066	41	127
358.0277097505669	358.1438095238095	79	127
358.0277097505669	358.1902494331066	56	127
358.0277097505669	358.1902494331066	63	127
358.0277097505669	358.1902494331066	53	127
358.1438095238095	358.2482993197279	80	127
358.25990929705216	358.71267573696144	56	127
358.25990929705216	358.3760090702948	80	127
358.25990929705216	358.71267573696144	62	127
358.25990929705216	358.71267573696144	53	127
358.25990929705216	358.71267573696144	46	127
358.3760090702948	358.49210884353744	79	127
358.49210884353744	358.5965986394558	80	127
358.5965986394558	358.71267573696144	82	127
358.71267573696144	358.828798185941	84	127
358.71267573696144	358.8752380952381	57	127
358.71267573696144	358.8752380952381	51	127
358.71267573696144	359.21192743764175	46	127
358.828798185941	358.9332879818594	86	127
358.9332879818594	359.11902494331065	53	127
358.9332879818594	359.04938775510203	87	127
358.9332879818594	359.11902494331065	56	127
359.04938775510203	359.21192743764175	89	127
359.21192743764175	359.6879365079365	39	127
359.21192743764175	359.3280045351474	91	127
359.21192743764175	359.6879365079365	55	127
359.21192743764175	359.6879365079365	51	127
359.3280045351474	359.45573696145124	89	127
359.45573696145124	359.5718367346939	87	127
359.5718367346939	359.6879365079365	86	127
359.6879365079365	359.80403628117915	87	127
359.80403628117915	359.9201360544218	89	127
359.9201360544218	360.0014058956916	91	127
360.0014058956916	360.10589569161	93	127
360.10589569161	360.1987755102041	77	127
360.10589569161	360.1987755102041	62	127
360.10589569161	360.24519274376416	94	127
360.1987755102041	360.2916553287982	75	127
360.1987755102041	360.2916553287982	60	127
360.2916553287982	360.39614512471655	82	127
360.2916553287982	360.39614512471655	74	127
360.2916553287982	360.39614512471655	58	127
360.39614512471655	360.5122448979592	84	127
360.39614512471655	360.5122448979592	72	127
360.39614512471655	360.5122448979592	57	127
360.5122448979592	360.6051247165533	82	127
360.5122448979592	360.6051247165533	74	127
360.5122448979592	360.6051247165533	58	127
360.6051247165533	360.70961451247166	81	127
360.6051247165533	360.70961451247166	60	127
360.6051247165533	360.70961451247166	75	127
360.70961451247166	360.8257142857143	79	127
360.70961451247166	360.8257142857143	77	127
360.70961451247166	360.8257142857143	62	127
360.8257142857143	360.93020408163267	79	127
360.8257142857143	360.93020408163267	63	127
360.8257142857143	360.93020408163267	77	127
360.93020408163267	361.3713605442177	39	127
360.93020408163267	361.0463038548753	79	127
360.93020408163267	361.3713605442177	79	127
360.93020408163267	361.3713605442177	63	127
361.0463038548753	361.1507936507937	77	127
361.1507936507937	361.2668707482993	75	127
361.2668707482993	361.3829931972789	74	127
361.3829931972789	361.47585034013605	75	127
361.47585034013605	361.59197278911563	77	127
361.59197278911563	361.6848299319728	79	127
361.6848299319728	361.80095238095237	80	127
361.80095238095237	361.870612244898	77	127
361.80095238095237	361.870612244898	62	127
361.80095238095237	361.9286621315193	82	127
361.870612244898	361.9866893424036	75	127
361.870612244898	361.9866893424036	60	127
361.9866893424036	362.1028117913832	74	127
361.9866893424036	362.1028117913832	82	127
361.9866893424036	362.1028117913832	58	127
362.1028117913832	362.1840589569161	84	127
362.1028117913832	362.1840589569161	72	127
362.1028117913832	362.1840589569161	57	127
362.1840589569161	362.30018140589567	82	127
362.1840589569161	362.30018140589567	74	127
362.1840589569161	362.30018140589567	58	127
362.30018140589567	362.3930385487528	80	127
362.30018140589567	362.3930385487528	75	127
362.30018140589567	362.3930385487528	60	127
362.3930385487528	362.5091609977324	79	127
362.3930385487528	362.5091609977324	77	127
362.3930385487528	362.5091609977324	62	127
362.5091609977324	362.6136507936508	77	127
362.5091609977324	362.6136507936508	79	127
362.5091609977324	362.6136507936508	63	127
362.6136507936508	362.78780045351476	79	127
362.6136507936508	362.78780045351476	39	127
362.6136507936508	363.06643990929706	63	127
362.8574603174603	362.9619501133787	74	127
362.8574603174603	363.02	68	127
362.8574603174603	363.02	41	127
362.9619501133787	363.07804988662133	77	127
363.07804988662133	363.25219954648526	75	127
363.07804988662133	363.25219954648526	70	127
363.07804988662133	363.25219954648526	43	127
363.3102267573696	363.4031292517007	69	127
363.3102267573696	363.47278911564626	63	127
363.3102267573696	363.47278911564626	54	127
363.4031292517007	363.53083900226756	72	127
363.53083900226756	363.69337868480727	63	127
363.53083900226756	363.69337868480727	70	127
363.53083900226756	363.69337868480727	55	127
363.7398185941043	363.8675283446712	65	127
363.7398185941043	363.9139682539683	62	127
363.8675283446712	363.97201814058957	68	127
363.97201814058957	364.1345351473923	67	127
363.97201814058957	364.1345351473923	63	127
364.1926077097506	364.3087074829932	62	127
364.1926077097506	364.3087074829932	77	127
364.1926077097506	364.3087074829932	70	127
364.1926077097506	364.35514739229023	70	127
364.3087074829932	364.42480725623585	65	127
364.3087074829932	364.42480725623585	80	127
364.3087074829932	364.42480725623585	65	127
364.42480725623585	364.8427437641723	63	127
364.42480725623585	364.51768707482995	78	127
364.42480725623585	364.8427437641723	66	127
364.42480725623585	364.8427437641723	70	127
364.51768707482995	364.6337868480726	77	127
364.6337868480726	364.73827664399096	75	127
364.73827664399096	364.8543537414966	74	127
364.8543537414966	364.9588662131519	75	127
364.9588662131519	365.0633560090703	77	127
365.0633560090703	365.14462585034016	78	127
365.14462585034016	365.24911564625853	80	127
365.24911564625853	365.36519274376417	62	127
365.24911564625853	365.36519274376417	65	127
365.24911564625853	365.4116553287982	82	127
365.36519274376417	365.4697052154195	60	127
365.36519274376417	365.4697052154195	63	127
365.4697052154195	365.5858049886621	58	127
365.4697052154195	365.5858049886621	82	127
365.4697052154195	365.5858049886621	62	127
365.5858049886621	365.6902947845805	83	127
365.5858049886621	365.6902947845805	63	127
365.5858049886621	365.6902947845805	62	127
365.6902947845805	365.79478458049886	82	127
365.6902947845805	365.79478458049886	68	127
365.6902947845805	365.79478458049886	65	127
365.6902947845805	365.84122448979593	58	127
365.79478458049886	365.88766439909296	80	127
365.79478458049886	365.88766439909296	65	127
365.79478458049886	365.88766439909296	62	127
365.88766439909296	365.9921541950113	78	127
365.88766439909296	365.9921541950113	66	127
365.88766439909296	365.9921541950113	63	127
365.88766439909296	366.05020408163267	58	127
365.9921541950113	366.10825396825396	65	127
365.9921541950113	366.10825396825396	77	127
365.9921541950113	366.10825396825396	68	127
366.10825396825396	366.21274376417233	66	127
366.10825396825396	366.5378231292517	75	127
366.10825396825396	366.5378231292517	70	127
366.10825396825396	366.5378231292517	63	127
366.21274376417233	366.3172335600907	65	127
366.3172335600907	366.42172335600907	63	127
366.42172335600907	366.5378231292517	62	127
366.5378231292517	366.65392290249434	63	127
366.65392290249434	366.770022675737	65	127
366.770022675737	366.8861224489796	66	127
366.8861224489796	366.990589569161	68	127
366.990589569161	367.10671201814057	65	127
366.990589569161	367.10671201814057	62	127
366.990589569161	367.15315192743765	82	127
367.10671201814057	367.21120181405894	63	127
367.10671201814057	367.21120181405894	60	127
367.21120181405894	367.3273015873016	82	127
367.21120181405894	367.3273015873016	62	127
367.21120181405894	367.3273015873016	58	127
367.3273015873016	367.4434013605442	62	127
367.3273015873016	367.4434013605442	83	127
367.3273015873016	367.4434013605442	65	127
367.4434013605442	367.5478911564626	82	127
367.4434013605442	367.5478911564626	68	127
367.4434013605442	367.5478911564626	65	127
367.4434013605442	367.60591836734693	46	127
367.5478911564626	367.6639909297052	80	127
367.5478911564626	367.6639909297052	65	127
367.5478911564626	367.6639909297052	62	127
367.6639909297052	367.7684807256236	78	127
367.6639909297052	367.7684807256236	66	127
367.6639909297052	367.7684807256236	63	127
367.6639909297052	367.8265306122449	46	127
367.7684807256236	367.8961904761905	77	127
367.7684807256236	367.8961904761905	68	127
367.7684807256236	367.8961904761905	65	127
367.8961904761905	368.05873015873016	78	127
367.8961904761905	368.05873015873016	70	127
367.8961904761905	368.05873015873016	63	127
367.8961904761905	368.05873015873016	39	127
368.1167573696145	368.2328798185941	78	127
368.1167573696145	368.27931972789116	62	127
368.1167573696145	368.27931972789116	56	127
368.1167573696145	368.27931972789116	41	127
368.2328798185941	368.33736961451245	80	127
368.33736961451245	368.4534693877551	78	127
368.33736961451245	368.49990929705217	63	127
368.33736961451245	368.49990929705217	58	127
368.33736961451245	368.49990929705217	42	127
368.4534693877551	368.55795918367346	77	127
368.55795918367346	368.6740589569161	75	127
368.55795918367346	368.7204988662132	63	127
368.55795918367346	368.7204988662132	58	127
368.55795918367346	368.7204988662132	43	127
368.6740589569161	368.7669387755102	73	127
368.7669387755102	368.91786848072564	72	127
368.7669387755102	368.91786848072564	63	127
368.7669387755102	368.91786848072564	60	127
368.7669387755102	368.91786848072564	44	127
368.97591836734694	369.0804081632653	72	127
368.97591836734694	369.1268480725624	63	127
368.97591836734694	369.1268480725624	55	127
368.97591836734694	369.1268480725624	46	127
369.0804081632653	369.1848979591837	73	127
369.1848979591837	369.28938775510204	72	127
369.1848979591837	369.3474149659864	63	127
369.1848979591837	369.3474149659864	56	127
369.1848979591837	369.3474149659864	44	127
369.28938775510204	369.4054875283447	70	127
369.4054875283447	369.4983673469388	68	127
369.4054875283447	369.4983673469388	44	127
369.4054875283447	369.56802721088434	60	127
369.4054875283447	369.56802721088434	56	127
369.4983673469388	369.6260770975057	42	127
369.4983673469388	369.6260770975057	75	127
369.6260770975057	369.7421768707483	41	127
369.6260770975057	370.0788662131519	77	127
369.6260770975057	370.0788662131519	61	127
369.6260770975057	370.0788662131519	56	127
369.7421768707483	369.85825396825396	39	127
369.85825396825396	369.97437641723354	37	127
369.97437641723354	370.0788662131519	36	127
370.0788662131519	370.1833560090703	37	127
370.1833560090703	370.28784580498865	39	127
370.28784580498865	370.4039455782313	41	127
370.4039455782313	370.50843537414966	42	127
370.50843537414966	370.612925170068	75	127
370.50843537414966	370.612925170068	60	127
370.50843537414966	370.6593650793651	56	127
370.50843537414966	370.7174149659864	44	127
370.612925170068	370.72902494331066	73	127
370.612925170068	370.72902494331066	58	127
370.72902494331066	370.83351473922903	72	127
370.72902494331066	370.83351473922903	56	127
370.72902494331066	370.83351473922903	56	127
370.83351473922903	370.9380045351474	70	127
370.83351473922903	370.9380045351474	55	127
370.83351473922903	370.9380045351474	58	127
370.9380045351474	371.04249433106577	72	127
370.9380045351474	371.04249433106577	56	127
370.9380045351474	371.04249433106577	56	127
371.04249433106577	371.1585941043084	73	127
371.04249433106577	371.1585941043084	58	127
371.04249433106577	371.1585941043084	54	127
371.1585941043084	371.27469387755104	60	127
371.1585941043084	371.27469387755104	75	127
371.1585941043084	371.27469387755104	53	127
371.1585941043084	371.27469387755104	44	127
371.27469387755104	371.36757369614514	61	127
371.27469387755104	371.36757369614514	77	127
371.27469387755104	371.36757369614514	51	127
371.27469387755104	371.36757369614514	42	127
371.36757369614514	371.83197278911564	49	127
371.36757369614514	371.4836734693878	41	127
371.36757369614514	371.83197278911564	77	127
371.36757369614514	371.83197278911564	73	127
371.4836734693878	371.61138321995463	39	127
371.61138321995463	371.72748299319727	37	127
371.72748299319727	371.83197278911564	36	127
371.83197278911564	371.9480725623583	37	127
371.83197278911564	371.9480725623583	66	127
371.9480725623583	372.05256235827665	65	127
371.9480725623583	372.05256235827665	39	127
372.05256235827665	372.1686621315193	63	127
372.05256235827665	372.1686621315193	41	127
372.1686621315193	372.2847619047619	61	127
372.1686621315193	372.2847619047619	42	127
372.2847619047619	372.3892517006803	84	127
372.2847619047619	372.3892517006803	72	127
372.2847619047619	372.4356916099773	44	127
372.2847619047619	372.6098412698413	60	127
372.3892517006803	372.49374149659866	73	127
372.3892517006803	372.49374149659866	82	127
372.49374149659866	372.6098412698413	80	127
372.49374149659866	372.6098412698413	72	127
372.49374149659866	372.6098412698413	56	127
372.6098412698413	372.72591836734694	79	127
372.6098412698413	372.72591836734694	70	127
372.6098412698413	372.72591836734694	58	127
372.72591836734694	372.8420408163265	80	127
372.72591836734694	372.8420408163265	72	127
372.72591836734694	372.8420408163265	65	127
372.72591836734694	372.8420408163265	56	127
372.8420408163265	372.9465306122449	82	127
372.8420408163265	372.9465306122449	73	127
372.8420408163265	372.9465306122449	63	127
372.8420408163265	372.9465306122449	54	127
372.9465306122449	373.0626303854875	84	127
372.9465306122449	373.0626303854875	75	127
372.9465306122449	373.0626303854875	61	127
372.9465306122449	373.0626303854875	53	127
373.0626303854875	373.1671201814059	60	127
373.0626303854875	373.1671201814059	77	127
373.0626303854875	373.1671201814059	51	127
373.0626303854875	373.1671201814059	85	127
373.1671201814059	373.3412698412698	85	127
373.1671201814059	373.3412698412698	77	127
373.1671201814059	373.3412698412698	53	127
373.1671201814059	373.5154195011338	61	127
373.39931972789117	373.5154195011338	82	127
373.39931972789117	373.5154195011338	73	127
373.39931972789117	373.5154195011338	53	127
373.5154195011338	373.6199092970522	81	127
373.5154195011338	373.6199092970522	72	127
373.5154195011338	373.6199092970522	54	127
373.6199092970522	373.7360090702948	82	127
373.6199092970522	373.7360090702948	73	127
373.6199092970522	373.7360090702948	61	127
373.6199092970522	373.7360090702948	53	127
373.7360090702948	373.8404761904762	84	127
373.7360090702948	373.8404761904762	75	127
373.7360090702948	373.8404761904762	60	127
373.7360090702948	373.8404761904762	51	127
373.8404761904762	373.91015873015874	77	127
373.8404761904762	373.94496598639455	85	127
373.8404761904762	373.94496598639455	58	127
373.8404761904762	373.94496598639455	49	127
373.94496598639455	374.0262585034014	77	127
373.94496598639455	374.0494557823129	87	127
373.94496598639455	374.06108843537413	56	127
373.94496598639455	374.06108843537413	48	127
374.06108843537413	374.2352380952381	87	127
374.06108843537413	374.2352380952381	79	127
374.06108843537413	374.2352380952381	55	127
374.06108843537413	374.2352380952381	46	127
374.3048979591837	374.40938775510205	75	127
374.3048979591837	374.40938775510205	63	127
374.3048979591837	374.40938775510205	63	127
374.3048979591837	374.40938775510205	51	127
374.40938775510205	374.5487074829932	53	127
374.40938775510205	374.5487074829932	74	127
374.40938775510205	374.5487074829932	62	127
374.40938775510205	374.5487074829932	65	127
374.5487074829932	374.66478458049886	75	127
374.5487074829932	374.66478458049886	63	127
374.5487074829932	374.66478458049886	51	127
374.5487074829932	374.66478458049886	63	127
374.66478458049886	374.76927437641723	77	127
374.66478458049886	374.76927437641723	65	127
374.66478458049886	374.76927437641723	61	127
374.66478458049886	374.76927437641723	49	127
374.76927437641723	374.8970068027211	79	127
374.76927437641723	374.8970068027211	67	127
374.76927437641723	374.8970068027211	60	127
374.76927437641723	374.8970068027211	48	127
374.8970068027211	375.00149659863945	80	127
374.8970068027211	375.00149659863945	68	127
374.8970068027211	375.00149659863945	58	127
374.8970068027211	375.00149659863945	46	127
375.00149659863945	375.16403628117916	56	127
375.00149659863945	375.4310657596372	68	127
375.00149659863945	375.16403628117916	44	127
375.00149659863945	375.2801133786848	80	127
375.2104761904762	375.36140589569163	63	127
375.2104761904762	375.36140589569163	75	127
375.44267573696146	375.6052154195011	60	127
375.44267573696146	375.75614512471657	87	127
375.44267573696146	375.6052154195011	72	127
375.686462585034	375.86063492063494	68	127
375.686462585034	375.86063492063494	56	127
375.9186848072562	378.86761904761903	92	127
375.9186848072562	376.08122448979594	66	127
375.9186848072562	376.08122448979594	54	127
376.13927437641723	376.30179138321995	51	127
376.13927437641723	376.30179138321995	63	127
376.35986394557824	376.53401360544217	48	127
376.35986394557824	376.53401360544217	60	127
376.5920634920635	376.7778231292517	44	127
376.5920634920635	376.7778231292517	56	127
376.835873015873	376.9984126984127	42	127
376.835873015873	377.13773242630384	73	127
376.835873015873	376.9984126984127	54	127
377.0680725623583	377.23061224489794	41	127
377.0680725623583	377.23061224489794	53	127
377.2886621315193	377.4628117913832	44	127
377.2886621315193	377.4628117913832	56	127
377.2886621315193	377.5905215419501	68	127
377.52083900226756	377.6834013605442	49	127
377.52083900226756	377.6834013605442	61	127
377.7414512471655	377.90399092970523	65	127
377.7414512471655	377.90399092970523	53	127
377.7414512471655	378.6470068027211	61	127
377.9620408163265	378.12458049886624	56	127
377.9620408163265	378.12458049886624	68	127
378.1826303854875	378.34514739229024	73	127
378.1826303854875	378.34514739229024	61	127
378.40321995464853	378.58897959183673	55	127
378.40321995464853	378.58897959183673	67	127
378.6586394557823	378.9488888888889	56	127
378.6586394557823	378.9488888888889	44	127
378.8792290249433	379.041768707483	75	127
378.8792290249433	379.041768707483	87	127
379.0998185941043	379.262335600907	84	127
379.0998185941043	379.262335600907	72	127
379.0998185941043	379.3900680272109	63	127
379.0998185941043	379.3900680272109	51	127
379.3204081632653	379.482947845805	80	127
379.3204081632653	379.482947845805	68	127
379.5409977324263	379.7267573696145	78	127
379.5409977324263	379.7267573696145	66	127
379.5409977324263	380.4233560090703	68	127
379.5409977324263	380.4233560090703	56	127
379.7848072562358	379.9473469387755	63	127
379.7848072562358	379.9473469387755	75	127
380.0170068027211	380.1795238095238	72	127
380.0170068027211	380.1795238095238	60	127
380.24920634920636	380.38850340136054	68	127
380.24920634920636	380.38850340136054	56	127
380.43496598639456	380.5975056689342	54	127
380.43496598639456	380.5975056689342	42	127
380.43496598639456	380.5975056689342	66	127
380.65555555555557	380.8180952380952	65	127
380.65555555555557	380.8180952380952	53	127
380.65555555555557	380.8180952380952	41	127
380.8761451247166	381.07351473922904	68	127
380.8761451247166	381.07351473922904	56	127
380.8761451247166	381.07351473922904	44	127
381.13156462585033	381.29410430839005	73	127
381.13156462585033	381.29410430839005	61	127
381.13156462585033	381.29410430839005	49	127
381.35215419501134	381.514693877551	77	127
381.35215419501134	381.514693877551	65	127
381.35215419501134	381.514693877551	65	127
381.35215419501134	381.514693877551	53	127
381.57274376417234	381.735283446712	80	127
381.57274376417234	381.735283446712	68	127
381.57274376417234	381.735283446712	68	127
381.57274376417234	381.735283446712	56	127
381.8049433106576	381.9674829931973	85	127
381.8049433106576	381.9674829931973	73	127
381.8049433106576	381.9674829931973	73	127
381.8049433106576	381.9674829931973	61	127
382.02553287981857	382.176462585034	89	127
382.02553287981857	382.176462585034	77	127
382.02553287981857	382.176462585034	65	127
382.02553287981857	382.176462585034	53	127
382.2345124716553	382.4551020408163	56	127
382.2345124716553	382.6756916099773	92	127
382.2345124716553	382.6756916099773	80	127
382.2345124716553	382.6756916099773	68	127
382.6756916099773	382.88467120181406	55	127
382.6756916099773	382.88467120181406	58	127
383.11687074829933	383.3722902494331	56	127
383.11687074829933	383.3722902494331	54	127
383.11687074829933	383.3722902494331	60	127
383.6277097505669	383.8482993197279	58	127
383.6277097505669	383.8482993197279	56	127
383.6277097505669	383.8482993197279	53	127
383.6277097505669	383.8482993197279	61	127
384.08049886621313	384.30108843537414	59	127
384.08049886621313	384.30108843537414	56	127
384.08049886621313	384.30108843537414	52	127
384.08049886621313	384.30108843537414	62	127
384.5332879818594	384.80031746031744	60	127
384.5332879818594	384.80031746031744	56	127
384.5332879818594	384.80031746031744	51	127
384.5332879818594	384.80031746031744	63	127
385.05573696145126	385.311156462585	56	127
385.05573696145126	385.311156462585	50	127
385.05573696145126	385.311156462585	65	127
385.05573696145126	385.311156462585	62	127
385.55496598639456	385.7987755102041	63	127
385.55496598639456	385.7987755102041	57	127
385.55496598639456	385.7987755102041	49	127
385.55496598639456	385.7987755102041	66	127
386.1354648526077	387.6679818594104	63	127
386.1354648526077	387.6679818594104	57	127
386.1354648526077	387.6679818594104	48	127
386.1354648526077	387.6679818594104	66	127
387.6679818594104	387.78408163265306	56	127
387.78408163265306	387.91179138321996	58	127
387.91179138321996	388.0278911564626	56	127
388.0278911564626	388.13238095238097	54	127
388.13238095238097	389.5255782312925	53	127
389.5255782312925	389.64167800453515	53	127
389.64167800453515	389.7461678004535	54	127
389.7461678004535	389.8738775510204	53	127
389.8738775510204	389.98997732426307	51	127
389.98997732426307	390.9768253968254	65	127
389.98997732426307	390.9768253968254	56	127
389.98997732426307	394.9706575963719	49	127
390.9768253968254	392.1146031746032	65	127
390.9768253968254	392.1146031746032	57	127
390.9768253968254	392.1146031746032	73	127
392.12621315192746	392.53256235827666	72	127
392.12621315192746	393.1014512471655	66	127
392.12621315192746	393.1014512471655	58	127
392.62544217687076	393.0201814058957	70	127
393.1014512471655	393.5542403628118	63	127
393.1014512471655	393.4845804988662	59	127
393.1014512471655	393.4845804988662	68	127
393.5542403628118	398.97609977324265	56	127
393.5542403628118	393.9373696145125	60	127
393.5542403628118	393.9373696145125	66	127
393.5542403628118	393.99541950113377	63	127
394.00702947845804	394.9706575963719	61	127
394.00702947845804	394.49464852607707	65	127
394.49464852607707	395.2144671201814	68	127
395.2144671201814	395.35378684807256	44	127
395.35378684807256	395.48149659863947	43	127
395.48149659863947	395.6092063492064	44	127
395.6092063492064	395.7369160997732	46	127
395.7369160997732	395.85301587301586	44	127
395.85301587301586	395.9691156462585	42	127
395.9691156462585	397.1417233560091	41	127
396.1897052154195	396.30580498866215	56	127
396.30580498866215	396.433514739229	55	127
396.433514739229	396.5728344671202	56	127
396.5728344671202	396.67732426303854	58	127
396.67732426303854	396.7934240362812	56	127
396.7934240362812	396.89791383219955	54	127
396.89791383219955	398.16340136054424	53	127
397.1533333333333	397.2578231292517	41	127
397.2578231292517	397.3855328798186	40	127
397.3855328798186	397.5016326530612	41	127
397.5016326530612	397.65256235827667	42	127
397.65256235827667	397.7802721088435	41	127
397.7802721088435	397.89637188208616	39	127
397.89637188208616	398.97609977324265	37	127
397.89637188208616	398.97609977324265	65	127
398.16340136054424	398.33755102040817	53	127
398.33755102040817	398.44204081632654	52	127
398.44204081632654	398.5581405895692	53	127
398.5581405895692	398.685850340136	54	127
398.685850340136	398.8716099773243	53	127
398.8716099773243	398.9877097505669	51	127
398.9877097505669	400.9149659863946	65	127
398.9877097505669	399.98616780045353	57	127
398.9877097505669	399.98616780045353	73	127
398.9877097505669	400.9149659863946	49	127
399.98616780045353	400.3692970521542	72	127
399.98616780045353	400.9149659863946	58	127
400.43895691609976	400.85691609977323	70	127
400.92657596371885	401.98308390022675	51	127
400.92657596371885	401.35614512471653	68	127
400.92657596371885	401.35614512471653	60	127
400.92657596371885	401.73927437641726	63	127
401.42580498866215	401.9134240362812	58	127
401.42580498866215	401.9134240362812	67	127
401.73927437641726	401.98308390022675	61	127
401.98308390022675	402.92349206349206	60	127
401.98308390022675	402.92349206349206	57	127
401.98308390022675	402.92349206349206	51	127
401.98308390022675	402.92349206349206	66	127
402.93510204081633	404.06126984126985	53	127
402.93510204081633	404.06126984126985	65	127
402.93510204081633	404.06126984126985	56	127
402.93510204081633	404.06126984126985	61	127
404.06126984126985	405.18743764172336	63	127
404.06126984126985	405.18743764172336	58	127
404.06126984126985	405.18743764172336	54	127
404.06126984126985	405.18743764172336	61	127
405.18743764172336	406.15106575963716	63	127
405.18743764172336	406.15106575963716	58	127
405.18743764172336	406.15106575963716	55	127
405.18743764172336	406.15106575963716	61	127
406.15106575963716	406.66190476190474	56	127
406.15106575963716	406.66190476190474	44	127
406.15106575963716	407.2075736961451	63	127
406.15106575963716	407.2075736961451	60	127
406.673514739229	407.2075736961451	54	127
406.673514739229	407.2075736961451	45	127
407.2075736961451	407.85773242630387	46	127
407.2075736961451	408.54272108843537	61	127
407.2075736961451	408.54272108843537	58	127
407.2075736961451	408.54272108843537	53	127
407.85773242630387	408.54272108843537	65	127
408.55433106575964	409.5179591836735	61	127
408.55433106575964	409.5179591836735	58	127
408.55433106575964	410.0404081632653	53	127
408.55433106575964	410.0404081632653	65	127
409.5179591836735	410.5628571428571	61	127
409.5179591836735	410.5628571428571	58	127
410.0404081632653	410.5628571428571	52	127
410.0404081632653	410.5628571428571	67	127
410.5744671201814	411.9328344671202	53	127
410.5744671201814	411.4916553287982	69	127
410.5744671201814	411.9328344671202	60	127
410.5744671201814	411.9328344671202	57	127
411.4916553287982	412.0605442176871	41	127
412.0605442176871	412.2114739229025	43	127
412.2114739229025	412.3391836734694	41	127
412.3391836734694	412.47850340136057	39	127
412.47850340136057	414.1851700680272	38	127
414.48702947845806	414.5915192743764	38	127
414.5915192743764	414.7308390022676	39	127
414.7308390022676	414.85854875283445	38	127
414.85854875283445	415.0094784580499	36	127
415.0094784580499	419.03814058956914	46	127
415.0094784580499	416.0659863945578	50	127
416.0659863945578	417.08766439909294	58	127
417.08766439909294	418.02807256235826	60	127
417.08766439909294	417.47079365079367	57	127
417.5404535147392	417.97002267573697	55	127
418.03968253968253	418.411201814059	53	127
418.03968253968253	419.03814058956914	69	127
418.4692517006803	418.9684807256236	51	127
419.03814058956914	420.02498866213153	77	127
419.03814058956914	419.52575963718823	70	127
419.03814058956914	419.52575963718823	50	127
419.03814058956914	420.2804081632653	46	127
419.52575963718823	421.2324263038549	53	127
419.52575963718823	420.02498866213153	74	127
420.0365986394558	420.96539682539685	86	127
420.0365986394558	420.52421768707484	77	127
420.29201814058956	420.4081179138322	41	127
420.4081179138322	420.52421768707484	40	127
420.52421768707484	420.6403174603175	41	127
420.52421768707484	420.96539682539685	82	127
420.6403174603175	420.74480725623584	43	127
420.74480725623584	420.8609070294785	41	127
420.8609070294785	420.96539682539685	39	127
420.96539682539685	422.1380045351474	65	127
420.96539682539685	422.1380045351474	38	127
420.96539682539685	422.37020408163266	89	127
421.2324263038549	421.37174603174606	53	127
421.37174603174606	421.48784580498864	52	127
421.48784580498864	421.592335600907	53	127
421.592335600907	421.70843537414964	55	127
421.70843537414964	421.812925170068	53	127
421.812925170068	421.9174149659864	51	127
421.9174149659864	422.37020408163266	50	127
422.1380045351474	422.25410430839	65	127
422.1380045351474	422.25410430839	38	127
422.25410430839	422.37020408163266	64	127
422.25410430839	422.37020408163266	37	127
422.37020408163266	422.915873015873	93	127
422.37020408163266	422.4863038548753	65	127
422.37020408163266	422.4863038548753	38	127
422.4863038548753	422.59079365079367	39	127
422.4863038548753	422.59079365079367	67	127
422.59079365079367	422.7068934240363	65	127
422.59079365079367	422.7068934240363	38	127
422.7068934240363	422.915873015873	36	127
422.7068934240363	422.915873015873	63	127
422.915873015873	423.47315192743764	94	127
422.915873015873	424.0420408163265	62	127
422.915873015873	424.0420408163265	50	127
422.915873015873	425.0869387755102	46	127
423.4847619047619	426.45691609977325	89	127
424.0420408163265	425.0869387755102	82	127
424.0420408163265	424.6109297052154	62	127
424.6109297052154	425.0869387755102	70	127
425.09854875283446	425.4816780045351	81	127
425.09854875283446	425.4816780045351	69	127
425.09854875283446	427.9197732426304	48	127
425.55133786848074	425.92285714285714	79	127
425.55133786848074	425.92285714285714	67	127
425.9925170068027	426.3872562358277	65	127
425.9925170068027	426.3872562358277	77	127
426.45691609977325	426.8748752834467	55	127
426.45691609977325	426.9445351473923	88	127
426.45691609977325	426.8748752834467	76	127
426.95614512471656	427.9197732426304	57	127
426.95614512471656	427.9197732426304	53	127
426.95614512471656	427.9197732426304	75	127
426.95614512471656	427.9197732426304	87	127
427.9197732426304	429.03433106575966	74	127
427.9197732426304	429.03433106575966	86	127
427.9197732426304	429.03433106575966	53	127
427.9197732426304	429.03433106575966	58	127
427.9197732426304	429.03433106575966	50	127
429.04594104308393	430.1953287981859	84	127
429.04594104308393	430.1953287981859	72	127
429.04594104308393	430.1953287981859	58	127
429.04594104308393	430.1953287981859	55	127
429.04594104308393	430.1953287981859	51	127
430.1953287981859	431.2866666666667	52	127
430.1953287981859	431.2866666666667	84	127
430.1953287981859	431.2866666666667	72	127
430.1953287981859	431.2866666666667	58	127
430.1953287981859	431.2866666666667	67	127
431.2866666666667	432.0180952380952	57	127
431.2866666666667	432.7379138321995	63	127
431.2866666666667	432.2502947845805	65	127
431.2866666666667	432.0180952380952	84	127
432.0180952380952	432.2502947845805	86	127
432.0180952380952	432.2502947845805	59	127
432.26190476190476	432.7379138321995	87	127
432.26190476190476	432.7379138321995	65	127
432.26190476190476	432.7379138321995	60	127
432.7379138321995	433.36485260770974	45	127
433.36485260770974	434.11950113378686	82	127
433.36485260770974	434.11950113378686	65	127
433.36485260770974	434.11950113378686	62	127
433.36485260770974	435.0018594104308	70	127
434.1311111111111	434.4097505668934	63	127
434.1311111111111	434.4097505668934	60	127
434.1311111111111	434.4097505668934	84	127
434.4097505668934	435.0018594104308	86	127
434.4097505668934	435.0018594104308	58	127
434.4097505668934	435.0018594104308	62	127
435.0134693877551	435.4662585034014	62	127
435.0134693877551	435.0947392290249	58	127
435.0134693877551	435.0947392290249	46	127
435.11795918367346	435.21083900226756	62	127
435.11795918367346	435.21083900226756	50	127
435.11795918367346	435.21083900226756	74	127
435.24566893424037	435.3269387755102	60	127
435.24566893424037	435.3269387755102	48	127
435.24566893424037	435.3269387755102	72	127
435.361768707483	435.43142857142857	70	127
435.361768707483	435.43142857142857	58	127
435.361768707483	435.43142857142857	46	127
435.4662585034014	435.97709750566895	57	127
435.4662585034014	435.97709750566895	69	127
435.4662585034014	435.97709750566895	45	127
436.0931972789116	436.1744671201814	70	127
436.0931972789116	436.1744671201814	58	127
436.0931972789116	436.1744671201814	58	127
436.0931972789116	436.1744671201814	46	127
436.20929705215417	436.2789569160998	69	127
436.20929705215417	436.2789569160998	57	127
436.20929705215417	436.2789569160998	57	127
436.20929705215417	436.2789569160998	45	127
436.31378684807254	436.4066666666667	55	127
436.31378684807254	436.4066666666667	67	127
436.31378684807254	436.4066666666667	55	127
436.31378684807254	436.4066666666667	43	127
436.44149659863945	436.8594557823129	65	127
436.44149659863945	436.8594557823129	53	127
436.44149659863945	436.8594557823129	41	127
436.97555555555556	437.0452154195011	75	127
436.97555555555556	437.0452154195011	65	127
436.97555555555556	437.0452154195011	57	127
436.97555555555556	437.0452154195011	41	127
437.0800453514739	437.1497052154195	74	127
437.0800453514739	437.1497052154195	65	127
437.0800453514739	437.1497052154195	58	127
437.0800453514739	437.1497052154195	43	127
437.1845351473923	437.2774149659864	72	127
437.1845351473923	437.2774149659864	65	127
437.1845351473923	437.2774149659864	60	127
437.1845351473923	437.2774149659864	45	127
437.30063492063493	437.76503401360543	74	127
437.30063492063493	437.76503401360543	65	127
437.30063492063493	437.76503401360543	53	127
437.30063492063493	437.76503401360543	46	127
439.07696145124714	439.15823129251703	58	127
439.07696145124714	439.15823129251703	70	127
439.07696145124714	439.15823129251703	58	127
439.07696145124714	439.15823129251703	46	127
439.1814512471655	439.2627210884354	69	127
439.1814512471655	439.2627210884354	57	127
439.1814512471655	439.2627210884354	57	127
439.1814512471655	439.2627210884354	45	127
439.29755102040815	439.39043083900225	67	127
439.29755102040815	439.39043083900225	55	127
439.29755102040815	439.39043083900225	55	127
439.29755102040815	439.39043083900225	43	127
439.4136507936508	439.9012698412698	66	127
439.4136507936508	439.9012698412698	54	127
439.4136507936508	439.9012698412698	42	127
440.12185941043083	440.20312925170066	67	127
440.12185941043083	440.20312925170066	55	127
440.12185941043083	440.20312925170066	43	127
440.23795918367347	440.3192290249433	66	127
440.23795918367347	440.3192290249433	54	127
440.23795918367347	440.3192290249433	42	127
440.34244897959184	440.42371882086167	64	127
440.34244897959184	440.42371882086167	52	127
440.34244897959184	440.42371882086167	40	127
440.4585487528345	440.9461678004535	62	127
440.4585487528345	440.9461678004535	50	127
440.4585487528345	440.9461678004535	38	127
441.06226757369615	441.143537414966	72	127
441.06226757369615	441.143537414966	62	127
441.06226757369615	441.143537414966	50	127
441.06226757369615	441.143537414966	38	127
441.1667573696145	441.24802721088435	70	127
441.1667573696145	441.24802721088435	62	127
441.1667573696145	441.24802721088435	50	127
441.1667573696145	441.24802721088435	40	127
441.28285714285715	441.364126984127	69	127
441.28285714285715	441.364126984127	62	127
441.28285714285715	441.364126984127	50	127
441.28285714285715	441.364126984127	41	127
441.3989569160998	441.81691609977327	70	127
441.3989569160998	441.81691609977327	62	127
441.3989569160998	441.81691609977327	50	127
441.3989569160998	441.81691609977327	43	127
442.1419954648526	442.22326530612247	58	127
442.1419954648526	442.22326530612247	69	127
442.1419954648526	442.22326530612247	50	127
442.1419954648526	442.22326530612247	43	127
442.2580952380952	442.38580498866213	58	127
442.2580952380952	442.38580498866213	50	127
442.2580952380952	442.38580498866213	67	127
442.2580952380952	442.38580498866213	45	127
442.42063492063494	442.4902947845805	65	127
442.42063492063494	442.4902947845805	58	127
442.42063492063494	442.4902947845805	50	127
442.42063492063494	442.4902947845805	46	127
442.5251247165533	443.0359637188209	64	127
442.5251247165533	443.0359637188209	58	127
442.5251247165533	443.0359637188209	55	127
442.5251247165533	443.0359637188209	48	127
443.1520634920635	443.23333333333335	74	127
443.1520634920635	443.23333333333335	70	127
443.1520634920635	443.23333333333335	52	127
443.1520634920635	443.23333333333335	48	127
443.2681632653061	443.349433106576	72	127
443.2681632653061	443.349433106576	69	127
443.2681632653061	443.349433106576	53	127
443.2681632653061	443.349433106576	48	127
443.38426303854874	443.47714285714284	70	127
443.38426303854874	443.47714285714284	67	127
443.38426303854874	443.47714285714284	55	127
443.38426303854874	443.47714285714284	48	127
443.51197278911565	443.97637188208614	69	127
443.51197278911565	443.97637188208614	60	127
443.51197278911565	443.97637188208614	57	127
443.51197278911565	443.97637188208614	53	127
444.1853514739229	444.2434013605442	79	127
444.1853514739229	444.2434013605442	72	127
444.1853514739229	444.2434013605442	57	127
444.1853514739229	444.2434013605442	53	127
444.27823129251703	444.35950113378686	77	127
444.27823129251703	444.35950113378686	72	127
444.27823129251703	444.35950113378686	57	127
444.27823129251703	444.35950113378686	53	127
444.3943310657596	444.46399092970523	75	127
444.3943310657596	444.46399092970523	72	127
444.3943310657596	444.46399092970523	57	127
444.3943310657596	444.46399092970523	53	127
444.498820861678	445.00965986394556	58	127
444.498820861678	445.00965986394556	74	127
444.498820861678	445.00965986394556	70	127
444.498820861678	445.00965986394556	55	127
445.1257596371882	445.207029478458	82	127
445.1257596371882	445.207029478458	70	127
445.1257596371882	445.207029478458	62	127
445.1257596371882	445.207029478458	55	127
445.24185941043083	445.32312925170066	81	127
445.24185941043083	445.32312925170066	70	127
445.24185941043083	445.32312925170066	62	127
445.24185941043083	445.32312925170066	55	127
445.3579591836735	445.4392290249433	82	127
445.3579591836735	445.4392290249433	70	127
445.3579591836735	445.4392290249433	62	127
445.3579591836735	445.4392290249433	55	127
445.49727891156465	445.9500680272109	72	127
445.49727891156465	445.9500680272109	70	127
445.49727891156465	445.9500680272109	67	127
445.49727891156465	445.9500680272109	51	127
446.0777777777778	446.1358276643991	79	127
446.0777777777778	446.1358276643991	67	127
446.0777777777778	446.1358276643991	60	127
446.0777777777778	446.1358276643991	51	127
446.1706575963719	446.2519274376417	78	127
446.1706575963719	446.2519274376417	67	127
446.1706575963719	446.2519274376417	60	127
446.1706575963719	446.2519274376417	51	127
446.2867573696145	446.3796371882086	67	127
446.2867573696145	446.3796371882086	79	127
446.2867573696145	446.3796371882086	60	127
446.2867573696145	446.3796371882086	51	127
446.4144671201814	446.90208616780046	69	127
446.4144671201814	446.90208616780046	65	127
446.4144671201814	446.90208616780046	60	127
446.4144671201814	446.90208616780046	53	127
446.90208616780046	447.8308843537415	53	127
446.90208616780046	447.0181859410431	86	127
446.90208616780046	448.3649433106576	58	127
446.90208616780046	447.8308843537415	65	127
447.0181859410431	447.12267573696147	87	127
447.12267573696147	447.2503854875283	86	127
447.2503854875283	447.3548752834467	85	127
447.3548752834467	447.4709750566893	86	127
447.4709750566893	447.59868480725623	87	127
447.59868480725623	447.72639455782314	86	127
447.72639455782314	447.85410430839005	84	127
447.85410430839005	447.99342403628117	82	127
447.85410430839005	448.1095238095238	46	127
447.85410430839005	448.8409523809524	67	127
447.99342403628117	448.13274376417235	84	127
448.13274376417235	448.2372335600907	82	127
448.13274376417235	448.8409523809524	55	127
448.2372335600907	448.3649433106576	81	127
448.3649433106576	448.4926530612245	81	127
448.3649433106576	449.3285714285714	60	127
448.4926530612245	448.6203628117914	82	127
448.6203628117914	448.736462585034	81	127
448.736462585034	448.8409523809524	79	127
448.8409523809524	449.8278004535147	69	127
448.8409523809524	448.9918820861678	77	127
448.8409523809524	449.09637188208615	48	127
448.9918820861678	449.09637188208615	79	127
449.09637188208615	449.22408163265305	77	127
449.09637188208615	449.5956009070295	57	127
449.22408163265305	449.3401814058957	76	127
449.3401814058957	449.49111111111114	75	127
449.3401814058957	450.25736961451247	62	127
449.49111111111114	449.6072108843537	77	127
449.6072108843537	449.72331065759636	75	127
449.6072108843537	449.8278004535147	53	127
449.72331065759636	449.839410430839	74	127
449.839410430839	450.06	50	127
449.839410430839	449.94390022675736	72	127
449.839410430839	450.71015873015875	70	127
449.94390022675736	450.06	74	127
450.06	450.1528798185941	72	127
450.06	450.4779591836735	58	127
450.1528798185941	450.25736961451247	70	127
450.25736961451247	450.3734693877551	70	127
450.25736961451247	450.4779591836735	67	127
450.3734693877551	450.4779591836735	72	127
450.4779591836735	450.5940589569161	70	127
450.4779591836735	450.71015873015875	51	127
450.4779591836735	450.9307482993197	60	127
450.5940589569161	450.71015873015875	69	127
450.71015873015875	450.82625850340133	69	127
450.71015873015875	450.9307482993197	52	127
450.71015873015875	451.1513378684807	72	127
450.82625850340133	450.942358276644	67	127
450.942358276644	451.1513378684807	69	127
450.942358276644	451.1513378684807	53	127
450.942358276644	451.04684807256234	65	127
451.04684807256234	451.162947845805	63	127
451.162947845805	451.26743764172335	74	127
451.162947845805	451.4764172335601	62	127
451.162947845805	451.4764172335601	46	127
451.162947845805	451.604126984127	70	127
451.26743764172335	451.36031746031745	67	127
451.3719274376417	451.4764172335601	65	127
451.4764172335601	451.604126984127	63	127
451.604126984127	451.95242630385485	46	127
451.604126984127	451.70861678004536	62	127
451.604126984127	451.95242630385485	74	127
451.72022675736963	451.8479365079365	63	127
451.8479365079365	451.95242630385485	65	127
451.9640362811791	452.1033560090703	67	127
452.1033560090703	452.4632653061224	77	127
452.1033560090703	452.3239455782313	60	127
452.1033560090703	452.4632653061224	45	127
452.21945578231293	452.3239455782313	53	127
452.3239455782313	452.4632653061224	52	127
452.4632653061224	452.5677551020408	50	127
452.57936507936506	452.7302947845805	48	127
452.57936507936506	452.9624943310658	77	127
452.57936507936506	452.9624943310658	45	127
452.7302947845805	452.84639455782315	50	127
452.8580045351474	452.9624943310658	52	127
452.9624943310658	453.0553741496599	53	127
453.0553741496599	453.47333333333336	79	127
453.0553741496599	453.47333333333336	52	127
453.0553741496599	453.47333333333336	43	127
453.15986394557825	453.2759637188209	62	127
453.2759637188209	453.368843537415	60	127
453.368843537415	453.47333333333336	58	127
453.47333333333336	453.58943310657594	58	127
453.47333333333336	453.90290249433104	81	127
453.47333333333336	453.90290249433104	50	127
453.47333333333336	453.90290249433104	41	127
453.58943310657594	453.6939229024943	60	127
453.6939229024943	453.7984126984127	58	127
453.7984126984127	453.90290249433104	57	127
453.90290249433104	454.3208616780045	40	127
453.90290249433104	454.0190022675737	57	127
453.90290249433104	454.3208616780045	82	127
453.90290249433104	454.3208616780045	48	127
454.0190022675737	454.1351020408163	58	127
454.1351020408163	454.2395918367347	57	127
454.2395918367347	454.3324716553288	55	127
454.3324716553288	454.78526077097507	39	127
454.3324716553288	454.43696145124716	67	127
454.3324716553288	454.78526077097507	84	127
454.3324716553288	454.78526077097507	60	127
454.43696145124716	454.5530612244898	69	127
454.5530612244898	454.66916099773243	67	127
454.66916099773243	454.78526077097507	65	127
454.78526077097507	455.0987301587302	38	127
454.78526077097507	455.0987301587302	82	127
454.78526077097507	455.24965986394557	65	127
454.9013605442177	455.0058503401361	62	127
455.0058503401361	455.1451700680272	60	127
455.1451700680272	455.24965986394557	58	127
455.24965986394557	455.3773696145125	57	127
455.24965986394557	455.5631292517007	84	127
455.24965986394557	455.5631292517007	39	127
455.3773696145125	455.48185941043084	58	127
455.48185941043084	455.5979591836735	57	127
455.5979591836735	455.70244897959185	55	127
455.7140589569161	455.83015873015876	55	127
455.7140589569161	456.01591836734696	77	127
455.7140589569161	456.01591836734696	41	127
455.83015873015876	455.93464852607707	62	127
455.83015873015876	455.93464852607707	53	127
455.93464852607707	456.062358276644	60	127
455.93464852607707	456.062358276644	51	127
456.062358276644	456.20167800453515	58	127
456.062358276644	456.20167800453515	50	127
456.20167800453515	456.51514739229026	81	127
456.20167800453515	456.3177777777778	57	127
456.20167800453515	456.3177777777778	48	127
456.20167800453515	456.51514739229026	41	127
456.3177777777778	456.43387755102043	60	127
456.3177777777778	456.43387755102043	57	127
456.43387755102043	456.549977324263	62	127
456.43387755102043	456.549977324263	58	127
456.549977324263	456.6776870748299	63	127
456.549977324263	456.6776870748299	60	127
456.6776870748299	456.9679365079365	62	127
456.6776870748299	456.9679365079365	58	127
457.15369614512474	457.47877551020406	72	127
457.15369614512474	457.47877551020406	60	127
457.6297052154195	457.96639455782315	87	127
457.6297052154195	457.96639455782315	65	127
457.6297052154195	457.96639455782315	53	127
458.1289342403628	458.4424036281179	89	127
458.1289342403628	458.4424036281179	69	127
458.1289342403628	458.4424036281179	57	127
458.5817233560091	458.70943310657594	70	127
458.5817233560091	458.70943310657594	58	127
458.5817233560091	458.8951927437642	82	127
458.5817233560091	458.8951927437642	38	127
458.70943310657594	458.8139229024943	62	127
458.70943310657594	458.8139229024943	74	127
458.8139229024943	458.93002267573695	72	127
458.8139229024943	458.93002267573695	60	127
458.93002267573695	459.0345124716553	70	127
458.93002267573695	459.0345124716553	58	127
459.0345124716553	459.37120181405896	38	127
459.0345124716553	459.15061224489796	65	127
459.0345124716553	459.15061224489796	53	127
459.0345124716553	459.37120181405896	84	127
459.15061224489796	459.3015419501134	62	127
459.15061224489796	459.3015419501134	74	127
459.3015419501134	459.4060317460318	72	127
459.3015419501134	459.4060317460318	60	127
459.4060317460318	459.51052154195014	70	127
459.4060317460318	459.51052154195014	58	127
459.52213151927435	459.6266213151927	70	127
459.52213151927435	459.8239909297052	77	127
459.52213151927435	459.8239909297052	41	127
459.52213151927435	459.6266213151927	58	127
459.6266213151927	459.75433106575963	60	127
459.6266213151927	459.75433106575963	72	127
459.75433106575963	459.87043083900227	70	127
459.75433106575963	459.87043083900227	58	127
459.87043083900227	459.97492063492064	57	127
459.87043083900227	459.97492063492064	69	127
459.97492063492064	460.06780045351474	57	127
459.97492063492064	460.25356009070293	41	127
459.97492063492064	460.06780045351474	69	127
459.97492063492064	460.25356009070293	81	127
460.06780045351474	460.1722902494331	67	127
460.06780045351474	460.1722902494331	55	127
460.1722902494331	460.28839002267574	53	127
460.1722902494331	460.28839002267574	65	127
460.28839002267574	460.3928798185941	51	127
460.28839002267574	460.3928798185941	63	127
460.3928798185941	460.7063492063492	62	127
460.3928798185941	460.5321995464853	50	127
460.3928798185941	460.84566893424034	82	127
460.3928798185941	460.84566893424034	43	127
460.5321995464853	460.64829931972787	51	127
460.64829931972787	460.74117913832197	50	127
460.74117913832197	460.8572789115646	48	127
460.8572789115646	461.06625850340134	84	127
460.8572789115646	460.961768707483	50	127
460.8572789115646	461.14752834467123	63	127
460.8572789115646	461.3100680272109	45	127
460.961768707483	461.0778684807256	60	127
461.0778684807256	461.3100680272109	77	127
461.0778684807256	461.182358276644	58	127
461.182358276644	461.3100680272109	57	127
461.3100680272109	461.7628571428571	46	127
461.3100680272109	461.4261678004535	57	127
461.3100680272109	461.6119274376417	65	127
461.3100680272109	461.7628571428571	86	127
461.4261678004535	461.54226757369617	58	127
461.54226757369617	461.6583673469388	57	127
461.6583673469388	461.7628571428571	55	127
461.7628571428571	462.2156462585034	48	127
461.7628571428571	462.0763265306122	65	127
461.7628571428571	461.890566893424	55	127
461.7628571428571	462.2156462585034	87	127
461.890566893424	461.9950566893424	57	127
461.9950566893424	462.11115646258503	55	127
462.11115646258503	462.2156462585034	53	127
462.22725623582767	462.33174603174604	65	127
462.22725623582767	462.5291156462585	86	127
462.22725623582767	462.5291156462585	55	127
462.22725623582767	462.5291156462585	46	127
462.33174603174604	462.45945578231294	74	127
462.45945578231294	462.5639455782313	72	127
462.5639455782313	462.6684353741497	70	127
462.68004535147395	462.78453514739226	70	127
462.68004535147395	462.9702947845805	88	127
462.68004535147395	462.9702947845805	55	127
462.68004535147395	462.9702947845805	48	127
462.78453514739226	462.9006349206349	72	127
462.9006349206349	463.01673469387754	70	127
463.01673469387754	463.1212244897959	69	127
463.1212244897959	463.45791383219955	41	127
463.1212244897959	463.45791383219955	60	127
463.1212244897959	463.23732426303854	67	127
463.1212244897959	467.13827664399093	89	127
463.23732426303854	463.3534240362812	69	127
463.3534240362812	463.49274376417236	67	127
463.49274376417236	463.59723356009073	65	127
463.59723356009073	463.89909297052156	60	127
463.59723356009073	463.7133333333333	57	127
463.59723356009073	463.89909297052156	72	127
463.7133333333333	463.82943310657595	58	127
463.82943310657595	463.9339229024943	57	127
463.9339229024943	464.0384126984127	55	127
464.05002267573695	464.49120181405897	62	127
464.05002267573695	464.1545124716553	55	127
464.05002267573695	464.3402721088435	70	127
464.1545124716553	464.27061224489796	57	127
464.27061224489796	464.37510204081633	55	127
464.37510204081633	464.49120181405897	53	127
464.49120181405897	464.9323809523809	63	127
464.49120181405897	464.6073015873016	53	127
464.49120181405897	464.78145124716553	72	127
464.6073015873016	464.71179138322	55	127
464.71179138322	464.8278911564626	53	127
464.8278911564626	464.9323809523809	51	127
464.9323809523809	465.0252607709751	51	127
464.9323809523809	465.36195011337867	65	127
464.9323809523809	465.22263038548755	65	127
465.0252607709751	465.14136054421766	50	127
465.14136054421766	465.2574603174603	48	127
465.2574603174603	465.37356009070294	46	127
465.37356009070294	465.4780498866213	82	127
465.37356009070294	465.6638095238095	62	127
465.37356009070294	465.6638095238095	38	127
465.4780498866213	465.59414965986394	84	127
465.59414965986394	465.6986394557823	82	127
465.6986394557823	465.8031292517007	81	127
465.81473922902495	465.9192290249433	81	127
465.81473922902495	466.1049886621315	60	127
465.81473922902495	466.1049886621315	39	127
465.9192290249433	466.03532879818596	82	127
466.03532879818596	466.1398185941043	81	127
466.1398185941043	466.25591836734696	79	127
466.25591836734696	466.5577777777778	62	127
466.25591836734696	466.5577777777778	41	127
466.25591836734696	466.37201814058955	79	127
466.37201814058955	466.4765079365079	81	127
466.4765079365079	466.59260770975055	79	127
466.59260770975055	466.6970975056689	77	127
466.6970975056689	466.81319727891156	43	127
466.6970975056689	466.81319727891156	75	127
466.6970975056689	466.99895691609976	53	127
466.81319727891156	466.9176870748299	46	127
466.81319727891156	466.9176870748299	74	127
466.9176870748299	467.03378684807257	72	127
466.9176870748299	467.03378684807257	45	127
467.03378684807257	467.1498866213152	70	127
467.03378684807257	467.1498866213152	43	127
467.1498866213152	467.2543764172336	87	127
467.1498866213152	467.2543764172336	48	127
467.1498866213152	467.69555555555553	75	127
467.2543764172336	467.3704761904762	50	127
467.2543764172336	467.3704761904762	89	127
467.3704761904762	467.4749659863946	87	127
467.3704761904762	467.4749659863946	48	127
467.4749659863946	467.59106575963716	46	127
467.4749659863946	467.59106575963716	86	127
467.59106575963716	467.8697052154195	84	127
467.59106575963716	467.69555555555553	60	127
467.59106575963716	467.69555555555553	45	127
467.69555555555553	467.81165532879817	74	127
467.69555555555553	467.81165532879817	62	127
467.69555555555553	467.81165532879817	46	127
467.81165532879817	467.90453514739227	72	127
467.81165532879817	467.90453514739227	45	127
467.81165532879817	467.90453514739227	60	127
467.90453514739227	468.00902494331064	43	127
467.90453514739227	468.00902494331064	58	127
467.90453514739227	468.00902494331064	75	127
468.00902494331064	468.1831746031746	69	127
468.00902494331064	468.33410430839	42	127
468.00902494331064	468.13673469387754	86	127
468.00902494331064	468.1831746031746	69	127
468.13673469387754	468.2412244897959	87	127
468.2412244897959	468.3689342403628	86	127
468.2412244897959	468.41537414965984	57	127
468.2412244897959	468.5895238095238	74	127
468.3689342403628	468.4734240362812	84	127
468.4734240362812	468.5895238095238	58	127
468.4734240362812	468.5895238095238	43	127
468.4734240362812	468.76367346938775	82	127
468.5895238095238	468.70562358276646	60	127
468.5895238095238	468.70562358276646	72	127
468.5895238095238	468.70562358276646	45	127
468.70562358276646	468.79850340136056	58	127
468.70562358276646	468.79850340136056	70	127
468.70562358276646	468.79850340136056	43	127
468.79850340136056	468.9146031746032	74	127
468.79850340136056	468.9146031746032	57	127
468.79850340136056	468.9146031746032	41	127
468.9146031746032	469.0307029478458	72	127
468.9146031746032	469.0307029478458	84	127
468.9146031746032	469.08875283446713	55	127
468.9146031746032	469.21646258503404	40	127
469.0307029478458	469.1468027210884	74	127
469.0307029478458	469.1468027210884	82	127
469.1468027210884	469.30934240362814	48	127
469.1468027210884	469.2512925170068	81	127
469.1468027210884	469.2512925170068	72	127
469.2512925170068	469.3673922902494	70	127
469.2512925170068	469.3673922902494	79	127
469.3673922902494	469.437052154195	69	127
469.3673922902494	469.62281179138324	41	127
469.3673922902494	469.48349206349206	60	127
469.3673922902494	469.437052154195	77	127
469.437052154195	469.54154195011336	70	127
469.437052154195	469.54154195011336	79	127
469.54154195011336	469.657641723356	77	127
469.54154195011336	469.657641723356	69	127
469.54154195011336	469.7040816326531	62	127
469.657641723356	469.7505215419501	75	127
469.657641723356	469.7505215419501	67	127
469.7505215419501	469.85501133786846	70	127
469.7505215419501	469.90145124716554	74	127
469.7505215419501	470.0407709750567	65	127
469.7505215419501	470.0407709750567	46	127
469.85501133786846	469.95950113378683	72	127
469.95950113378683	470.07560090702947	70	127
469.95950113378683	470.12204081632655	82	127
470.07560090702947	470.2033106575964	69	127
470.2033106575964	470.30780045351474	67	127
470.2033106575964	470.30780045351474	75	127
470.2033106575964	470.36585034013603	43	127
470.2033106575964	470.49356009070294	70	127
470.30780045351474	470.4239002267574	69	127
470.30780045351474	470.4239002267574	77	127
470.4239002267574	470.52839002267575	75	127
470.4239002267574	470.52839002267575	67	127
470.4239002267574	470.58643990929704	55	127
470.52839002267575	470.6444897959184	74	127
470.52839002267575	470.6444897959184	65	127
470.6444897959184	470.74897959183676	57	127
470.6444897959184	470.80702947845805	72	127
470.6444897959184	470.80702947845805	63	127
470.6444897959184	470.80702947845805	69	127
470.74897959183676	470.86507936507934	58	127
470.86507936507934	470.99278911564625	57	127
470.86507936507934	471.0392290249433	81	127
470.86507936507934	471.0392290249433	72	127
470.86507936507934	471.0392290249433	64	127
470.99278911564625	471.0972789115646	55	127
471.0972789115646	471.21337868480725	74	127
471.0972789115646	471.25981859410433	74	127
471.0972789115646	471.25981859410433	54	127
471.0972789115646	471.39913832199545	69	127
471.21337868480725	471.3178684807256	75	127
471.3178684807256	471.5036281179138	81	127
471.3178684807256	471.43396825396826	74	127
471.3178684807256	471.5036281179138	66	127
471.43396825396826	471.56167800453517	72	127
471.56167800453517	471.8751473922903	67	127
471.56167800453517	471.689387755102	70	127
471.56167800453517	471.7358276643991	67	127
471.56167800453517	472.24666666666667	82	127
471.689387755102	471.80548752834466	72	127
471.80548752834466	471.97963718820864	65	127
471.80548752834466	471.909977324263	70	127
471.909977324263	472.03768707482993	69	127
472.03768707482993	472.1421768707483	67	127
472.03768707482993	472.2002267573696	63	127
472.1421768707483	472.25827664399094	69	127
472.25827664399094	472.4208163265306	67	127
472.25827664399094	472.3627664399093	67	127
472.25827664399094	472.4208163265306	82	127
472.25827664399094	472.4208163265306	62	127
472.3627664399093	472.47886621315195	65	127
472.47886621315195	472.5949659863946	63	127
472.47886621315195	472.6414058956916	84	127
472.47886621315195	472.6414058956916	69	127
472.47886621315195	472.6414058956916	60	127
472.5949659863946	472.69945578231295	65	127
472.69945578231295	472.8619954648526	70	127
472.69945578231295	472.81555555555553	63	127
472.69945578231295	472.8619954648526	86	127
472.69945578231295	472.8619954648526	58	127
472.81555555555553	472.9200453514739	62	127
472.9200453514739	473.02453514739227	60	127
472.9200453514739	473.07097505668935	87	127
472.9200453514739	473.07097505668935	57	127
472.9200453514739	473.07097505668935	60	127
473.02453514739227	473.12902494331064	62	127
473.12902494331064	473.3031746031746	88	127
473.12902494331064	473.25673469387755	60	127
473.12902494331064	473.3031746031746	67	127
473.12902494331064	473.3031746031746	55	127
473.25673469387755	473.3728344671202	58	127
473.3728344671202	473.53537414965984	69	127
473.3728344671202	474.02299319727894	89	127
473.3728344671202	473.53537414965984	53	127
473.3728344671202	473.47732426303855	57	127
473.47732426303855	473.5818140589569	58	127
473.5818140589569	473.6863038548753	57	127
473.5818140589569	473.7443537414966	70	127
473.5818140589569	473.7443537414966	52	127
473.6863038548753	473.80240362811793	55	127
473.80240362811793	473.9068934240363	53	127
473.80240362811793	473.9649433106576	69	127
473.80240362811793	473.9649433106576	51	127
473.9068934240363	474.02299319727894	55	127
474.02299319727894	474.1390929705215	53	127
474.02299319727894	474.1855328798186	91	127
474.02299319727894	474.1855328798186	70	127
474.02299319727894	474.1855328798186	50	127
474.1390929705215	474.2435827664399	52	127
474.2435827664399	474.3596825396825	51	127
474.2435827664399	474.4061224489796	48	127
474.2435827664399	474.92857142857144	93	127
474.2435827664399	474.4061224489796	72	127
474.3596825396825	474.4641723356009	53	127
474.4641723356009	474.56866213151926	51	127
474.4641723356009	474.61510204081634	74	127
474.4641723356009	474.61510204081634	46	127
474.56866213151926	474.67315192743763	50	127
474.67315192743763	474.8705215419501	72	127
474.67315192743763	474.80086167800454	60	127
474.67315192743763	474.8705215419501	45	127
474.80086167800454	474.9401814058957	62	127
474.9401814058957	475.0446712018141	60	127
474.9401814058957	475.1259410430839	94	127
474.9401814058957	475.1259410430839	74	127
474.9401814058957	475.1259410430839	43	127
475.0446712018141	475.1839909297052	58	127
475.1839909297052	475.3465306122449	75	127
475.1839909297052	475.2884807256236	57	127
475.1839909297052	475.3465306122449	41	127
475.1839909297052	475.8457596371882	96	127
475.2884807256236	475.4045804988662	58	127
475.4045804988662	475.56712018140587	76	127
475.4045804988662	475.56712018140587	39	127
475.4045804988662	475.5090702947846	57	127
475.5090702947846	475.6251700680272	55	127
475.6251700680272	475.7877097505669	77	127
475.6251700680272	475.7877097505669	39	127
475.6251700680272	475.74126984126985	53	127
475.74126984126985	475.8573696145125	55	127
475.8573696145125	475.98507936507934	53	127
475.8573696145125	476.0315192743764	81	127
475.8573696145125	476.0315192743764	65	127
475.8573696145125	476.0315192743764	48	127
475.98507936507934	476.1243990929705	51	127
476.1243990929705	476.2637188208617	50	127
476.1243990929705	476.321768707483	82	127
476.1243990929705	476.321768707483	77	127
476.1243990929705	476.321768707483	46	127
476.2637188208617	476.39142857142855	51	127
476.39142857142855	476.56557823129253	77	127
476.39142857142855	476.5075283446712	50	127
476.39142857142855	476.56557823129253	84	127
476.39142857142855	476.56557823129253	45	127
476.5075283446712	476.6352380952381	48	127
476.6352380952381	476.762947845805	77	127
476.6352380952381	477.64530612244897	46	127
476.6352380952381	477.64530612244897	86	127
476.6352380952381	477.64530612244897	53	127
476.762947845805	476.87904761904764	79	127
476.87904761904764	477.01836734693876	77	127
477.01836734693876	477.12285714285713	75	127
477.12285714285713	477.2737868480726	74	127
477.2737868480726	477.3898866213152	75	127
477.3898866213152	477.5408163265306	74	127
477.5408163265306	477.64530612244897	72	127
477.64530612244897	478.6321541950113	91	127
477.64530612244897	477.74979591836734	72	127
477.64530612244897	478.6321541950113	58	127
477.64530612244897	478.6321541950113	39	127
477.74979591836734	477.86589569161	70	127
477.86589569161	477.97038548752835	69	127
477.97038548752835	478.09809523809525	70	127
478.09809523809525	478.2141950113379	72	127
478.2141950113379	478.37673469387755	70	127
478.37673469387755	478.50444444444446	69	127
478.50444444444446	478.6321541950113	67	127
478.6321541950113	479.5377324263039	38	127
478.6321541950113	478.74825396825395	65	127
478.6321541950113	479.3055328798186	70	127
478.6321541950113	479.5377324263039	89	127
478.74825396825395	478.8643537414966	67	127
478.8643537414966	478.9804535147392	65	127
478.9804535147392	479.0849433106576	63	127
479.0849433106576	479.20104308390023	62	127
479.20104308390023	479.3055328798186	63	127
479.3055328798186	479.42163265306124	62	127
479.3055328798186	479.42163265306124	72	127
479.42163265306124	479.5377324263039	74	127
479.42163265306124	479.5377324263039	60	127
479.54934240362815	480.4433106575964	93	127
479.54934240362815	479.65383219954646	60	127
479.54934240362815	479.7583219954648	74	127
479.54934240362815	479.95569160997735	36	127
479.65383219954646	479.7699319727891	58	127
479.7699319727891	479.87442176870746	57	127
479.7699319727891	479.9092517006803	75	127
479.87442176870746	479.95569160997735	55	127
479.96730158730156	480.1298412698413	75	127
479.96730158730156	480.4433106575964	48	127
479.96730158730156	480.07179138321993	55	127
480.07179138321993	480.18789115646257	53	127
480.18789115646257	480.3039909297052	52	127
480.18789115646257	480.37365079365077	75	127
480.3039909297052	480.4433106575964	53	127
480.4433106575964	481.3837188208617	46	127
480.4433106575964	480.559410430839	55	127
480.4433106575964	480.67551020408166	75	127
480.4433106575964	481.3837188208617	94	127
480.559410430839	480.67551020408166	53	127
480.67551020408166	480.8496598639456	74	127
480.67551020408166	480.8032199546485	52	127
480.8032199546485	480.9309297052154	53	127
480.9309297052154	481.04702947845806	55	127
480.9309297052154	481.0934693877551	74	127
481.04702947845806	481.17473922902496	53	127
481.17473922902496	481.32566893424035	82	127
481.17473922902496	481.27922902494333	52	127
481.27922902494333	481.3953287981859	53	127
481.3953287981859	482.3009070294785	96	127
481.3953287981859	481.48820861678007	55	127
481.3953287981859	481.59269841269844	82	127
481.3953287981859	482.3009070294785	41	127
481.48820861678007	481.60430839002265	53	127
481.60430839002265	481.76684807256237	81	127
481.60430839002265	481.708798185941	52	127
481.708798185941	481.82489795918366	53	127
481.82489795918366	481.9874376417234	81	127
481.82489795918366	481.9409977324263	53	127
481.9409977324263	482.05709750566893	51	127
482.05709750566893	482.18480725623584	50	127
482.05709750566893	482.24285714285713	81	127
482.18480725623584	482.3009070294785	51	127
482.3009070294785	482.4866666666667	46	127
482.3009070294785	482.4866666666667	94	127
482.3009070294785	482.4866666666667	82	127
482.3009070294785	482.4866666666667	50	127
482.55632653061224	482.71886621315195	70	127
482.55632653061224	482.71886621315195	58	127
482.55632653061224	482.71886621315195	46	127
482.77691609977325	483.032335600907	70	127
482.77691609977325	483.032335600907	58	127
482.77691609977325	483.032335600907	46	127
483.032335600907	483.27614512471655	68	127
483.032335600907	483.27614512471655	56	127
483.032335600907	483.27614512471655	44	127
483.27614512471655	483.5083446712018	68	127
483.27614512471655	483.5083446712018	56	127
483.27614512471655	483.5083446712018	44	127
483.5083446712018	483.7521541950113	67	127
483.5083446712018	483.7521541950113	43	127
483.5083446712018	483.7521541950113	55	127
483.7637641723356	483.93791383219957	70	127
483.7637641723356	483.93791383219957	58	127
483.7637641723356	483.93791383219957	46	127
483.99596371882086	484.1585034013605	55	127
483.99596371882086	484.1585034013605	67	127
483.99596371882086	484.1585034013605	43	127
484.21655328798187	484.4371428571429	67	127
484.21655328798187	484.4371428571429	55	127
484.21655328798187	484.4371428571429	43	127
484.4371428571429	484.68095238095236	65	127
484.4371428571429	484.68095238095236	53	127
484.4371428571429	484.68095238095236	41	127
484.68095238095236	484.85510204081635	70	127
484.68095238095236	484.85510204081635	58	127
484.68095238095236	484.85510204081635	46	127
484.9363718820862	485.1453514739229	68	127
484.9363718820862	485.1453514739229	56	127
484.9363718820862	485.1453514739229	44	127
485.2034013605442	485.4239909297052	68	127
485.2034013605442	485.4239909297052	56	127
485.2034013605442	485.4239909297052	44	127
485.4356009070295	485.6445804988662	67	127
485.4356009070295	485.6445804988662	55	127
485.4356009070295	485.6445804988662	43	127
485.6561904761905	485.81873015873015	70	127
485.6561904761905	485.81873015873015	58	127
485.6561904761905	485.81873015873015	46	127
485.8767800453515	486.0625396825397	67	127
485.8767800453515	486.0625396825397	55	127
485.8767800453515	486.0625396825397	43	127
486.120589569161	486.3295691609977	67	127
486.120589569161	486.3295691609977	55	127
486.120589569161	486.3295691609977	43	127
486.3295691609977	486.53854875283446	65	127
486.3295691609977	486.53854875283446	53	127
486.3295691609977	486.53854875283446	41	127
486.53854875283446	486.7359183673469	70	127
486.53854875283446	486.7359183673469	58	127
486.53854875283446	486.7359183673469	46	127
486.7939682539683	486.9797278911565	63	127
486.7939682539683	486.9797278911565	51	127
486.7939682539683	486.9797278911565	39	127
487.03777777777776	487.26997732426304	63	127
487.03777777777776	487.26997732426304	51	127
487.03777777777776	487.26997732426304	39	127
487.2815873015873	487.5137868480726	62	127
487.2815873015873	487.5137868480726	50	127
487.2815873015873	487.5137868480726	38	127
487.5137868480726	487.71115646258505	70	127
487.5137868480726	487.71115646258505	58	127
487.5137868480726	487.71115646258505	46	127
487.7808163265306	488.0130158730159	62	127
487.7808163265306	488.0130158730159	50	127
487.7808163265306	488.0130158730159	38	127
488.08267573696145	488.6399546485261	62	127
488.08267573696145	488.6399546485261	50	127
488.08267573696145	488.6399546485261	38	127
488.6399546485261	490.1028117913832	60	127
488.6399546485261	490.1028117913832	48	127
488.6399546485261	490.1028117913832	36	127
490.1144217687075	490.6833106575964	58	127
490.1144217687075	490.6833106575964	58	127
490.1144217687075	490.6833106575964	46	127
490.6833106575964	491.57727891156463	58	127
490.6833106575964	491.57727891156463	58	127
490.6833106575964	491.57727891156463	46	127
491.57727891156463	492.74988662131517	57	127
491.57727891156463	492.74988662131517	57	127
491.57727891156463	492.74988662131517	45	127
492.74988662131517	496.3025396825397	70	127
492.74988662131517	496.3025396825397	64	127
492.74988662131517	496.3025396825397	58	127
492.74988662131517	496.3025396825397	43	127
496.314149659864	498.4271655328798	41	127
496.314149659864	499.1585941043084	69	127
496.314149659864	499.1585941043084	65	127
496.314149659864	499.1585941043084	60	127
498.4387755102041	499.1585941043084	53	127
499.1702040816327	500.0641723356009	68	127
499.1702040816327	500.0641723356009	65	127
499.1702040816327	500.0641723356009	59	127
499.1702040816327	500.0641723356009	50	127
500.0757823129252	500.7839909297052	67	127
500.0757823129252	500.7839909297052	63	127
500.0757823129252	500.7839909297052	60	127
500.0757823129252	500.7839909297052	51	127
500.8536507936508	502.3397278911565	75	127
500.8536507936508	502.3397278911565	72	127
500.8536507936508	502.3397278911565	67	127
500.8536507936508	502.3397278911565	48	127
502.3513378684807	503.3846258503401	70	127
502.3513378684807	503.3846258503401	65	127
502.3513378684807	503.3846258503401	50	127
502.3513378684807	504.41791383219953	74	127
503.3962358276644	504.41791383219953	65	127
503.3962358276644	504.41791383219953	70	127
503.3962358276644	504.41791383219953	51	127
504.4295238095238	505.32349206349204	72	127
504.4295238095238	505.32349206349204	65	127
504.4295238095238	505.32349206349204	69	127
504.4295238095238	505.32349206349204	53	127
506.62380952380954	507.1926984126984	65	127
506.62380952380954	507.1926984126984	62	127
506.62380952380954	507.1926984126984	65	127
506.62380952380954	508.0053968253968	82	127
507.2043083900227	508.0053968253968	74	127
507.2043083900227	508.0053968253968	70	127
507.2043083900227	508.0053968253968	58	127
508.0170068027211	510.0951927437642	75	127
508.0170068027211	510.0951927437642	65	127
508.0170068027211	510.0951927437642	81	127
508.0170068027211	510.0951927437642	60	127
510.10680272108846	511.058820861678	80	127
510.10680272108846	511.058820861678	71	127
510.10680272108846	511.058820861678	65	127
510.10680272108846	511.058820861678	62	127
511.0820408163265	512.4868480725623	79	127
511.0820408163265	512.4868480725623	72	127
511.0820408163265	512.4868480725623	67	127
511.0820408163265	512.4868480725623	63	127
512.4984580498866	513.3343764172336	81	127
512.4984580498866	513.3343764172336	75	127
512.4984580498866	513.3343764172336	72	127
512.4984580498866	513.3343764172336	65	127
513.3459863945578	515.029433106576	72	127
513.3459863945578	515.029433106576	81	127
513.3459863945578	515.029433106576	75	127
513.3459863945578	515.029433106576	66	127
515.0410430839003	515.737641723356	74	127
515.0410430839003	515.737641723356	82	127
515.0410430839003	515.737641723356	67	127
516.4574603174603	519.3831519274377	57	127
516.4574603174603	519.3831519274377	51	127
516.4574603174603	519.3831519274377	42	127
519.4063945578231	519.8824036281179	58	127
519.4063945578231	519.5224943310658	82	127
519.4063945578231	519.8824036281179	50	127
519.4063945578231	519.8824036281179	43	127
519.5224943310658	519.6618140589569	84	127
519.6618140589569	519.7663038548753	82	127
519.7779138321996	519.8824036281179	81	127
519.8824036281179	519.9868707482993	79	127
519.8824036281179	520.0449433106576	70	127
519.8824036281179	520.0449433106576	67	127
519.9984807256236	520.1029931972789	81	127
520.1029931972789	520.2190929705215	79	127
520.1029931972789	520.2655328798186	70	127
520.1029931972789	520.2655328798186	67	127
520.2190929705215	520.3351927437642	77	127
520.3468027210885	520.4512925170068	75	127
520.4512925170068	520.5673922902495	77	127
520.5673922902495	520.683492063492	75	127
520.6951020408163	520.811179138322	74	127
520.8227891156463	520.9505215419501	72	127
520.8227891156463	521.1130612244898	75	127
520.8227891156463	521.1130612244898	67	127
520.9621315192744	521.3104308390023	70	127
521.3104308390023	521.6122902494332	75	127
521.3104308390023	521.6122902494332	67	127
521.3104308390023	521.6935600907029	82	127
521.6935600907029	522.7036281179138	83	127
521.6935600907029	522.7036281179138	75	127
521.6935600907029	522.7036281179138	67	127
522.7036281179138	523.1912471655329	84	127
522.7036281179138	523.1912471655329	72	127
522.7036281179138	523.1912471655329	69	127
523.7136961451247	526.0821315192744	43	127
523.7136961451247	526.0821315192744	59	127
523.7136961451247	526.0821315192744	51	127
526.0937414965987	526.7787301587301	45	127
526.0937414965987	526.3375283446712	84	127
526.0937414965987	526.7787301587301	60	127
526.0937414965987	526.7787301587301	48	127
526.3607709750567	526.5233106575964	86	127
526.5233106575964	526.6742403628118	84	127
526.6742403628118	526.7787301587301	82	127
526.7903401360544	526.9528571428572	65	127
526.7903401360544	526.8948299319728	81	127
526.7903401360544	526.9528571428572	69	127
526.8948299319728	526.9993197278911	82	127
527.0109297052154	527.1154195011338	81	127
527.0109297052154	527.1734693877551	69	127
527.0109297052154	527.1734693877551	65	127
527.1154195011338	527.2199092970521	79	127
527.2315192743764	527.3360090702948	77	127
527.3475963718821	527.4404988662131	79	127
527.4521088435374	527.5681859410431	77	127
527.5681859410431	527.6843083900227	75	127
527.6843083900227	527.8700680272109	69	127
527.6843083900227	527.8120181405895	74	127
527.6843083900227	527.8700680272109	65	127
527.8120181405895	527.9281179138322	72	127
527.9397278911565	528.1719047619048	69	127
527.9397278911565	528.1719047619048	84	127
527.9397278911565	528.1719047619048	65	127
528.2531972789116	529.3793650793651	65	127
528.2531972789116	529.3793650793651	85	127
528.2531972789116	529.3793650793651	69	127
529.3909750566894	529.9250340136055	86	127
529.3909750566894	529.9250340136055	70	127
529.3909750566894	529.9250340136055	58	127
531.9103401360544	533.129387755102	61	127
531.9103401360544	533.129387755102	57	127
531.9103401360544	533.129387755102	53	127
533.1409977324263	533.6518367346939	53	127
533.1409977324263	533.2687074829932	86	127
533.1409977324263	533.6518367346939	62	127
533.1409977324263	533.6518367346939	58	127
533.2687074829932	533.3848072562358	87	127
533.3964172335601	533.5008843537415	86	127
533.5125170068027	533.6518367346939	84	127
533.6518367346939	533.8143764172336	53	127
533.6518367346939	533.8143764172336	62	127
533.6518367346939	533.7563265306122	82	127
533.6518367346939	533.8143764172336	58	127
533.7679365079365	533.8724263038549	84	127
533.8724263038549	534.0349659863946	53	127
533.8724263038549	533.9769160997732	82	127
533.8724263038549	534.0349659863946	62	127
533.8724263038549	534.0349659863946	58	127
533.9885260770975	534.0930158730159	81	127
534.0930158730159	534.1975056689342	79	127
534.1975056689342	534.2903854875284	81	127
534.2903854875284	534.406485260771	79	127
534.406485260771	534.5109523809524	77	127
534.5225623582767	534.627074829932	75	127
534.5225623582767	534.6851247165533	74	127
534.5225623582767	534.6851247165533	70	127
534.5225623582767	534.6851247165533	65	127
534.627074829932	534.7315419501134	77	127
534.7431746031746	534.8592743764173	75	127
534.7431746031746	534.9173015873016	74	127
534.7431746031746	534.9173015873016	70	127
534.7431746031746	534.9173015873016	65	127
534.8592743764173	534.9753741496598	74	127
534.9753741496598	535.4513832199547	86	127
534.9753741496598	535.6835827664399	70	127
534.9753741496598	535.6835827664399	65	127
534.9753741496598	535.4513832199547	74	127
535.4513832199547	535.6835827664399	87	127
535.4513832199547	535.6835827664399	73	127
535.6835827664399	535.9157823129252	88	127
535.6835827664399	535.9157823129252	73	127
535.6835827664399	535.9157823129252	70	127
535.6835827664399	535.9157823129252	65	127
535.9157823129252	536.3569387755102	88	127
535.9157823129252	536.3569387755102	73	127
535.9157823129252	536.3569387755102	70	127
535.9157823129252	538.1332879818594	65	127
536.3685487528345	536.5891609977324	69	127
536.3685487528345	536.5891609977324	72	127
536.3685487528345	536.5891609977324	89	127
536.5891609977324	536.8097505668934	72	127
536.5891609977324	536.8097505668934	90	127
536.5891609977324	536.8097505668934	69	127
536.8097505668934	537.2509297052154	69	127
536.8097505668934	537.2509297052154	90	127
536.8097505668934	537.2509297052154	72	127
537.2509297052154	537.4599092970521	74	127
537.2509297052154	537.4599092970521	71	127
537.2509297052154	537.4599092970521	91	127
537.4599092970521	537.6804988662132	89	127
537.4599092970521	537.6804988662132	74	127
537.4599092970521	537.6804988662132	71	127
537.6921088435374	538.1332879818594	89	127
537.6921088435374	538.1332879818594	74	127
537.6921088435374	538.1332879818594	71	127
538.1448979591837	538.377097505669	87	127
538.1448979591837	538.377097505669	75	127
538.1448979591837	538.377097505669	72	127
538.1448979591837	538.377097505669	65	127
538.377097505669	538.597664399093	70	127
538.377097505669	538.597664399093	88	127
538.377097505669	538.597664399093	73	127
538.377097505669	539.0388662131519	65	127
538.597664399093	539.0388662131519	73	127
538.597664399093	539.0388662131519	70	127
538.597664399093	539.0388662131519	88	127
539.0388662131519	539.2594557823129	69	127
539.0388662131519	539.2594557823129	89	127
539.0388662131519	539.2594557823129	65	127
539.0388662131519	539.2594557823129	72	127
539.2710657596372	539.4916553287982	87	127
539.2710657596372	539.4916553287982	72	127
539.2710657596372	539.9444444444445	65	127
539.2710657596372	539.4916553287982	69	127
539.5032653061224	539.9444444444445	87	127
539.5032653061224	539.9444444444445	72	127
539.5032653061224	539.9444444444445	69	127
539.9444444444445	540.1650340136055	86	127
539.9444444444445	540.1650340136055	70	127
539.9444444444445	540.1650340136055	68	127
539.9444444444445	540.1650340136055	65	127
540.1650340136055	540.4320634920635	68	127
540.1650340136055	540.4320634920635	86	127
540.1650340136055	540.4320634920635	70	127
540.1650340136055	540.8848526077097	65	127
540.4320634920635	540.8848526077097	68	127
540.4320634920635	541.1054421768707	70	127
540.4320634920635	540.8848526077097	86	127
540.896462585034	541.1054421768707	63	127
540.896462585034	541.1054421768707	67	127
540.896462585034	541.1054421768707	87	127
541.117052154195	541.337641723356	67	127
541.117052154195	541.337641723356	63	127
541.117052154195	541.337641723356	79	127
541.117052154195	541.337641723356	70	127
541.3608616780045	541.8252607709751	79	127
541.3608616780045	542.0690476190476	70	127
541.3608616780045	542.0690476190476	63	127
541.3608616780045	542.0690476190476	67	127
541.8252607709751	542.0690476190476	82	127
542.0806575963719	542.3360997732426	66	127
542.0806575963719	542.3360997732426	82	127
542.0806575963719	542.3360997732426	70	127
542.0806575963719	542.3360997732426	63	127
542.3360997732426	542.6263492063492	82	127
542.3360997732426	542.8585487528345	70	127
542.3360997732426	542.8585487528345	65	127
542.3360997732426	542.8585487528345	62	127
542.6263492063492	542.8585487528345	86	127
542.8585487528345	543.322947845805	72	127
542.8585487528345	543.102335600907	84	127
542.8585487528345	543.322947845805	63	127
542.8585487528345	543.322947845805	60	127
543.102335600907	543.322947845805	82	127
543.322947845805	543.7873469387755	58	127
543.322947845805	543.543537414966	86	127
543.322947845805	543.7873469387755	74	127
543.322947845805	543.7873469387755	62	127
543.543537414966	543.7873469387755	89	127
543.7989569160998	544.2285260770975	51	127
543.7989569160998	543.9963265306122	87	127
543.7989569160998	544.2285260770975	72	127
543.7989569160998	544.6697052154195	55	127
544.0079365079365	544.2285260770975	86	127
544.2285260770975	544.6697052154195	70	127
544.2285260770975	544.4491156462585	82	127
544.2285260770975	544.6697052154195	52	127
544.4491156462585	544.6697052154195	86	127
544.6697052154195	544.867074829932	84	127
544.6697052154195	545.087664399093	69	127
544.6697052154195	545.087664399093	60	127
544.6697052154195	546.0048526077097	53	127
544.867074829932	545.087664399093	81	127
545.087664399093	545.528843537415	72	127
545.087664399093	545.528843537415	63	127
545.087664399093	545.308253968254	79	127
545.3198639455783	545.528843537415	77	127
545.5404535147393	545.7610204081633	79	127
545.5404535147393	546.0048526077097	63	127
545.5404535147393	546.0048526077097	60	127
545.7726303854876	546.0048526077097	81	127
546.0048526077097	546.4808616780045	62	127
546.0048526077097	546.1325623582767	58	127
546.0048526077097	547.827619047619	46	127
546.1325623582767	546.2486621315193	63	127
546.2486621315193	546.364739229025	62	127
546.364739229025	546.4808616780045	60	127
546.4808616780045	546.8175510204081	82	127
546.4808616780045	546.6085714285714	58	127
546.6085714285714	546.7246712018141	60	127
546.7246712018141	546.8175510204081	58	127
546.8175510204081	546.9220408163266	57	127
546.9220408163266	547.0381405895691	55	127
546.9220408163266	547.2471201814059	82	127
547.0381405895691	547.1542403628118	57	127
547.1542403628118	547.2471201814059	55	127
547.2471201814059	547.3632199546486	53	127
547.3632199546486	547.4909297052154	51	127
547.3632199546486	547.5373696145125	82	127
547.4909297052154	547.5953968253968	53	127
547.5953968253968	547.7231292517007	51	127
547.5953968253968	547.7695691609978	82	127
547.7231292517007	547.827619047619	50	127
547.827619047619	547.9437188208617	57	127
547.827619047619	549.5342857142857	48	127
547.827619047619	549.5342857142857	87	127
547.9437188208617	548.04820861678	55	127
548.04820861678	548.1643083900227	57	127
548.1643083900227	548.2804081632653	58	127
548.2804081632653	548.3848979591837	60	127
548.2804081632653	548.6054875283447	41	127
548.3848979591837	548.5009977324263	58	127
548.5009977324263	548.6054875283447	60	127
548.6054875283447	548.7215873015873	62	127
548.7215873015873	549.0002267573697	41	127
548.7215873015873	548.7912471655329	63	127
548.7912471655329	548.8957369614512	62	127
548.8957369614512	549.0118367346939	63	127
549.0118367346939	549.1163265306122	65	127
549.1163265306122	549.2556462585034	41	127
549.1163265306122	549.2092063492064	67	127
549.2092063492064	549.3136961451247	65	127
549.3136961451247	549.4297732426304	67	127
549.3136961451247	549.4762358276644	41	127
549.4297732426304	549.5342857142857	69	127
549.5342857142857	551.2177324263039	46	127
549.5342857142857	549.6503628117914	62	127
549.5342857142857	551.2177324263039	70	127
549.6503628117914	549.766485260771	63	127
549.766485260771	549.8825850340136	62	127
549.8825850340136	549.9986848072563	60	127
549.9986848072563	550.079954648526	58	127
549.9986848072563	550.2540816326531	82	127
550.079954648526	550.1728344671202	60	127
550.1728344671202	550.2540816326531	58	127
550.2540816326531	550.3702040816327	57	127
550.3702040816327	550.4863038548752	55	127
550.3702040816327	550.695283446712	82	127
550.4863038548752	550.5907936507937	57	127
550.5907936507937	550.7068934240363	55	127
550.7068934240363	550.7881632653061	53	127
550.7881632653061	550.9042630385487	51	127
550.7881632653061	550.9507029478458	82	127
550.9042630385487	551.0087528344671	53	127
551.0087528344671	551.1596825396825	82	127
551.0087528344671	551.1248526077097	51	127
551.1248526077097	551.2177324263039	50	127
551.2293424036282	552.947619047619	48	127
551.2293424036282	551.3338321995465	57	127
551.2293424036282	552.5064172335601	87	127
551.3338321995465	551.4499319727892	55	127
551.4499319727892	551.5544217687075	57	127
551.5544217687075	551.6705215419502	58	127
551.6705215419502	551.9956009070295	41	127
551.6705215419502	551.7750113378685	60	127
551.7750113378685	551.8910884353742	58	127
551.8910884353742	552.0072108843538	60	127
552.0072108843538	552.1116780045352	62	127
552.1116780045352	552.3903401360544	41	127
552.1116780045352	552.192970521542	63	127
552.192970521542	552.2858503401361	62	127
552.2858503401361	552.4019501133787	63	127
552.4019501133787	552.5064172335601	65	127
552.5064172335601	552.680589569161	81	127
552.5064172335601	552.6225396825397	67	127
552.5064172335601	552.680589569161	41	127
552.6225396825397	552.7270068027211	65	127
552.7270068027211	552.8895691609978	41	127
552.7270068027211	552.8315192743764	67	127
552.7270068027211	552.8895691609978	81	127
552.8315192743764	552.947619047619	69	127
552.947619047619	553.295918367347	65	127
552.947619047619	553.295918367347	50	127
552.947619047619	553.295918367347	82	127
552.947619047619	553.295918367347	46	127
553.4236281179138	553.5861678004535	41	127
553.4236281179138	553.5861678004535	84	127
553.4236281179138	553.5861678004535	63	127
553.4236281179138	553.5861678004535	57	127
553.6558276643991	553.829977324263	84	127
553.6558276643991	553.829977324263	63	127
553.6558276643991	553.829977324263	57	127
553.6558276643991	553.829977324263	41	127
553.8996371882087	554.2595464852608	82	127
553.8996371882087	554.2595464852608	62	127
553.8996371882087	554.2595464852608	58	127
553.8996371882087	554.2595464852608	46	127
554.3988662131519	554.6078458049886	72	127
554.3988662131519	554.6078458049886	81	127
554.3988662131519	554.6078458049886	65	127
554.3988662131519	554.6078458049886	65	127
554.3988662131519	554.6078458049886	41	127
554.6775056689343	554.9561224489796	65	127
554.6775056689343	554.9561224489796	41	127
554.6775056689343	554.9561224489796	81	127
554.6775056689343	554.9561224489796	65	127
554.6775056689343	554.9561224489796	72	127
555.0490249433107	555.8268934240363	50	127
555.0490249433107	555.8268934240363	58	127
555.0490249433107	555.8268934240363	46	127
555.0490249433107	555.8268934240363	65	127
555.0490249433107	555.8268934240363	74	127
555.0490249433107	555.8268934240363	82	127
555.0490249433107	555.8268934240363	58	127
