# onset,offset,note,velocity
0.23142857142857143	0.9628571428571429	61	127
0.23142857142857143	0.5681179138321996	65	127
0.23142857142857143	0.5100680272108844	46	127
0.5797278911564626	0.6609977324263039	63	127
0.5797278911564626	0.6958276643990929	58	127
0.6726077097505669	0.7770975056689342	65	127
0.7770975056689342	1.4736961451247166	58	127
0.7770975056689342	0.9048072562358277	66	127
0.9628571428571429	1.0557142857142856	63	127
0.9628571428571429	1.0905668934240362	39	127
1.0557142857142856	1.1486167800453515	61	127
1.1486167800453515	1.6478458049886622	60	127
1.1486167800453515	1.2647165532879818	56	127
1.1486167800453515	1.311156462585034	63	127
1.311156462585034	1.3924263038548752	61	127
1.311156462585034	1.4156462585034013	44	127
1.3924263038548752	1.4736961451247166	63	127
1.4736961451247166	2.193514739229025	56	127
1.4736961451247166	1.589795918367347	65	127
1.6594557823129252	1.7291156462585033	61	127
1.6594557823129252	1.7523356009070294	37	127
1.7291156462585033	1.8103854875283447	60	127
1.8219954648526078	2.3792743764172335	58	127
1.8219954648526078	1.9497052154195011	42	127
1.8219954648526078	2.007755102040816	61	127
2.007755102040816	2.1006349206349206	60	127
2.007755102040816	2.135442176870748	54	127
2.1006349206349206	2.193514739229025	61	127
2.193514739229025	2.3212244897959184	42	127
2.193514739229025	2.3212244897959184	63	127
2.193514739229025	2.3212244897959184	54	127
2.3792743764172335	2.495374149659864	51	127
2.3792743764172335	2.495374149659864	42	127
2.3792743764172335	2.472154195011338	60	127
2.3792743764172335	2.495374149659864	63	127
2.472154195011338	2.553424036281179	58	127
2.553424036281179	2.7043537414965986	57	127
2.553424036281179	2.7043537414965986	65	127
2.553424036281179	2.7043537414965986	48	127
2.553424036281179	2.7043537414965986	41	127
3.2384126984126986	3.726031746031746	61	127
3.2384126984126986	3.366122448979592	46	127
3.2384126984126986	3.424172335600907	65	127
3.424172335600907	3.505442176870748	63	127
3.424172335600907	3.5402721088435376	58	127
3.505442176870748	3.5634920634920637	65	127
3.5634920634920637	3.679591836734694	66	127
3.5634920634920637	4.271700680272109	58	127
3.726031746031746	3.807301587301587	63	127
3.726031746031746	3.8421315192743766	39	127
3.807301587301587	3.9001814058956916	61	127
3.9117913832199545	4.457460317460318	60	127
3.9117913832199545	4.027891156462585	56	127
3.9117913832199545	4.074308390022676	63	127
4.0859410430839	4.167210884353741	61	127
4.0859410430839	4.202040816326531	44	127
4.1788208616780045	4.271700680272109	63	127
4.271700680272109	4.399410430839002	65	127
4.271700680272109	4.457460317460318	56	127
4.457460317460318	4.573560090702948	37	127
4.457460317460318	4.759319727891157	53	127
4.457460317460318	4.55031746031746	61	127
4.55031746031746	4.62	60	127
4.62	4.7477097505668935	42	127
4.62	4.7477097505668935	58	127
4.62	4.794149659863946	61	127
4.794149659863946	4.875419501133787	60	127
4.794149659863946	4.910249433106576	58	127
4.794149659863946	4.910249433106576	51	127
4.794149659863946	4.910249433106576	42	127
4.875419501133787	4.933469387755102	61	127
4.933469387755102	5.061179138321996	63	127
4.933469387755102	5.061179138321996	57	127
4.933469387755102	5.061179138321996	48	127
4.933469387755102	5.061179138321996	41	127
5.11922902494331	5.223718820861678	60	127
5.11922902494331	5.223718820861678	57	127
5.11922902494331	5.223718820861678	53	127
5.11922902494331	5.223718820861678	41	127
5.27015873015873	5.421065759637188	58	127
5.27015873015873	5.421065759637188	53	127
5.27015873015873	5.421065759637188	46	127
5.966757369614513	6.222176870748299	46	127
5.966757369614513	6.280226757369615	65	127
5.966757369614513	6.628526077097506	61	127
6.280226757369615	6.384716553287982	58	127
6.280226757369615	6.349886621315193	63	127
6.361496598639456	6.442766439909297	65	127
6.4543764172335605	7.1741950113378685	58	127
6.4543764172335605	6.570476190476191	66	127
6.6401360544217685	6.733015873015873	63	127
6.6401360544217685	6.767845804988662	39	127
6.733015873015873	6.825895691609977	61	127
6.825895691609977	7.000045351473923	63	127
6.825895691609977	6.941995464852607	56	127
6.825895691609977	7.348344671201814	60	127
7.000045351473923	7.116145124716553	44	127
7.000045351473923	7.081315192743764	61	127
7.081315192743764	7.1741950113378685	63	127
7.1741950113378685	7.290294784580499	65	127
7.1741950113378685	7.882403628117914	56	127
7.348344671201814	7.4412244897959186	61	127
7.348344671201814	7.4760544217687075	37	127
7.4412244897959186	7.534104308390023	60	127
7.545714285714285	7.708253968253969	61	127
7.545714285714285	8.033333333333333	58	127
7.545714285714285	7.661814058956916	42	127
7.708253968253969	7.812743764172335	54	127
7.708253968253969	7.7779138321995465	60	127
7.78952380952381	7.882403628117914	61	127
7.882403628117914	7.975283446712018	42	127
7.882403628117914	7.975283446712018	63	127
7.882403628117914	7.975283446712018	54	127
8.033333333333333	8.114603174603175	60	127
8.033333333333333	8.149433106575964	63	127
8.033333333333333	8.149433106575964	51	127
8.033333333333333	8.149433106575964	42	127
8.114603174603175	8.20748299319728	58	127
8.20748299319728	8.358412698412698	41	127
8.20748299319728	8.358412698412698	65	127
8.20748299319728	8.358412698412698	57	127
8.20748299319728	8.358412698412698	48	127
8.892471655328798	9.449750566893425	61	127
8.892471655328798	9.078231292517007	65	127
8.892471655328798	9.020181405895691	46	127
9.078231292517007	9.194331065759638	58	127
9.078231292517007	9.171111111111111	63	127
9.171111111111111	9.252380952380953	65	127
9.252380952380953	9.391700680272109	66	127
9.252380952380953	9.914149659863945	58	127
9.449750566893425	9.542630385487529	63	127
9.449750566893425	9.577460317460318	39	127
9.542630385487529	9.635510204081633	61	127
9.635510204081633	9.751609977324263	56	127
9.635510204081633	9.786439909297052	63	127
9.635510204081633	10.076666666666666	60	127
9.798049886621316	9.879319727891156	44	127
9.798049886621316	9.856099773242631	61	127
9.867709750566894	9.914149659863945	63	127
9.925759637188209	10.076666666666666	56	127
9.925759637188209	10.030249433106576	65	127
10.088299319727891	10.366938775510205	53	127
10.088299319727891	10.181179138321996	61	127
10.088299319727891	10.192789115646258	37	127
10.181179138321996	10.250839002267574	60	127
10.250839002267574	10.366938775510205	42	127
10.250839002267574	10.366938775510205	58	127
10.250839002267574	10.401768707482994	61	127
10.401768707482994	10.517845804988662	58	127
10.401768707482994	10.483038548752834	60	127
10.401768707482994	10.517845804988662	51	127
10.401768707482994	10.517845804988662	42	127
10.483038548752834	10.575918367346938	61	127
10.575918367346938	10.715238095238096	57	127
10.575918367346938	10.715238095238096	48	127
10.575918367346938	10.715238095238096	41	127
10.575918367346938	10.715238095238096	63	127
10.761678004535147	10.88938775510204	60	127
10.761678004535147	10.88938775510204	57	127
10.761678004535147	10.88938775510204	53	127
10.761678004535147	10.88938775510204	41	127
10.959047619047618	11.028707482993198	46	127
10.959047619047618	11.028707482993198	58	127
10.959047619047618	11.028707482993198	53	127
11.620816326530612	12.050385487528345	65	127
11.620816326530612	11.818163265306122	73	127
11.620816326530612	11.818163265306122	44	127
11.620816326530612	12.236145124716554	68	127
11.818163265306122	12.050385487528345	56	127
11.818163265306122	11.945895691609977	72	127
11.945895691609977	12.050385487528345	73	127
12.050385487528345	12.178095238095239	75	127
12.050385487528345	12.236145124716554	66	127
12.236145124716554	12.445124716553288	75	127
12.236145124716554	12.445124716553288	56	127
12.445124716553288	13.002403628117914	68	127
12.445124716553288	12.630884353741497	73	127
12.445124716553288	12.630884353741497	44	127
12.445124716553288	12.816643990929705	65	127
12.642494331065759	12.816643990929705	56	127
12.642494331065759	12.75859410430839	80	127
12.828253968253968	13.002403628117914	63	127
12.828253968253968	12.944353741496599	78	127
13.014013605442177	13.188163265306123	66	127
13.014013605442177	13.188163265306123	75	127
13.014013605442177	13.188163265306123	56	127
13.188163265306123	13.37392290249433	73	127
13.188163265306123	13.745442176870748	68	127
13.188163265306123	13.37392290249433	44	127
13.188163265306123	13.55968253968254	65	127
13.37392290249433	13.466802721088435	72	127
13.37392290249433	13.55968253968254	56	127
13.466802721088435	13.55968253968254	73	127
13.55968253968254	13.745442176870748	66	127
13.55968253968254	13.687392290249432	75	127
13.745442176870748	13.94281179138322	75	127
13.745442176870748	13.94281179138322	56	127
13.954421768707483	14.140181405895692	44	127
13.954421768707483	14.349160997732426	65	127
13.954421768707483	14.534920634920635	68	127
13.954421768707483	14.140181405895692	73	127
14.151791383219955	14.349160997732426	56	127
14.151791383219955	14.279501133786848	80	127
14.349160997732426	14.488480725623583	78	127
14.349160997732426	14.546530612244897	63	127
14.349160997732426	14.546530612244897	56	127
14.546530612244897	14.732290249433106	66	127
14.546530612244897	14.732290249433106	75	127
14.546530612244897	14.732290249433106	44	127
14.732290249433106	14.883219954648526	46	127
14.732290249433106	14.883219954648526	70	127
14.732290249433106	15.068979591836735	65	127
14.732290249433106	15.068979591836735	61	127
14.883219954648526	14.97609977324263	69	127
14.883219954648526	15.068979591836735	58	127
14.97609977324263	15.068979591836735	70	127
15.068979591836735	15.196689342403628	71	127
15.068979591836735	15.254739229024944	66	127
15.068979591836735	15.254739229024944	63	127
15.266349206349206	15.440498866213153	58	127
15.452108843537415	15.614648526077097	70	127
15.452108843537415	15.614648526077097	46	127
15.452108843537415	15.800408163265306	65	127
15.452108843537415	15.800408163265306	61	127
15.614648526077097	15.800408163265306	58	127
15.614648526077097	15.707528344671202	69	127
15.707528344671202	15.800408163265306	70	127
15.800408163265306	15.9281179138322	72	127
15.800408163265306	15.986167800453515	66	127
15.800408163265306	15.986167800453515	63	127
15.986167800453515	16.171927437641724	58	127
16.171927437641724	16.369297052154195	70	127
16.171927437641724	16.369297052154195	46	127
16.171927437641724	16.54344671201814	61	127
16.171927437641724	16.54344671201814	65	127
16.380907029478458	16.54344671201814	58	127
16.380907029478458	16.450566893424035	69	127
16.462154195011337	16.54344671201814	70	127
16.555056689342404	16.671156462585035	54	127
16.555056689342404	16.671156462585035	71	127
16.555056689342404	16.72920634920635	51	127
16.555056689342404	16.671156462585035	66	127
16.740816326530613	16.822086167800453	63	127
16.740816326530613	16.822086167800453	71	127
16.740816326530613	16.822086167800453	54	127
16.740816326530613	16.88013605442177	51	127
16.88013605442177	17.019455782312924	53	127
16.88013605442177	17.07750566893424	61	127
16.88013605442177	17.07750566893424	70	127
16.88013605442177	17.019455782312924	53	127
17.089115646258502	17.216825396825396	69	127
17.089115646258502	17.216825396825396	60	127
17.089115646258502	17.216825396825396	65	127
17.089115646258502	17.216825396825396	53	127
17.26326530612245	17.449024943310658	70	127
17.26326530612245	17.449024943310658	61	127
17.26326530612245	17.449024943310658	65	127
17.26326530612245	17.449024943310658	46	127
17.64639455782313	18.192063492063493	68	127
17.64639455782313	17.832154195011338	73	127
17.64639455782313	17.832154195011338	44	127
17.64639455782313	18.017913832199547	65	127
17.832154195011338	17.92501133786848	72	127
17.832154195011338	18.017913832199547	56	127
17.92501133786848	18.017913832199547	73	127
18.017913832199547	18.192063492063493	66	127
18.017913832199547	18.14562358276644	75	127
18.192063492063493	18.377823129251702	75	127
18.192063492063493	18.377823129251702	56	127
18.389433106575964	18.94671201814059	68	127
18.389433106575964	18.56358276643991	73	127
18.389433106575964	18.56358276643991	44	127
18.389433106575964	18.760952380952382	65	127
18.575192743764173	18.760952380952382	56	127
18.575192743764173	18.691292517006804	80	127
18.760952380952382	18.981541950113378	63	127
18.760952380952382	18.888662131519276	78	127
18.981541950113378	19.155691609977325	66	127
18.981541950113378	19.155691609977325	56	127
18.981541950113378	19.155691609977325	75	127
19.155691609977325	19.527210884353742	65	127
19.155691609977325	19.341451247165534	73	127
19.155691609977325	19.341451247165534	44	127
19.155691609977325	19.724580498866214	68	127
19.341451247165534	19.527210884353742	56	127
19.341451247165534	19.434331065759636	72	127
19.434331065759636	19.527210884353742	73	127
19.527210884353742	19.654920634920636	75	127
19.527210884353742	19.724580498866214	66	127
19.736190476190476	19.94517006802721	56	127
19.736190476190476	19.94517006802721	75	127
19.956780045351476	20.14251700680272	44	127
19.956780045351476	20.14251700680272	73	127
19.956780045351476	20.32829931972789	65	127
19.956780045351476	20.5140589569161	68	127
20.14251700680272	20.32829931972789	56	127
20.14251700680272	20.270226757369613	80	127
20.32829931972789	20.455986394557822	78	127
20.32829931972789	20.5140589569161	63	127
20.32829931972789	20.5140589569161	56	127
20.5140589569161	20.688208616780045	75	127
20.5140589569161	20.688208616780045	66	127
20.5140589569161	20.688208616780045	44	127
20.688208616780045	20.86235827664399	70	127
20.688208616780045	20.86235827664399	46	127
20.688208616780045	21.036507936507938	61	127
20.688208616780045	21.036507936507938	65	127
20.873968253968254	20.943628117913832	69	127
20.873968253968254	21.036507936507938	58	127
20.955238095238094	21.036507936507938	70	127
21.0481179138322	21.16421768707483	71	127
21.0481179138322	21.21065759637188	66	127
21.0481179138322	21.21065759637188	63	127
21.222244897959182	21.39641723356009	58	127
21.39641723356009	21.5821768707483	46	127
21.39641723356009	21.5821768707483	70	127
21.39641723356009	21.767936507936508	65	127
21.39641723356009	21.767936507936508	61	127
21.5821768707483	21.767936507936508	58	127
21.5821768707483	21.675056689342405	69	127
21.675056689342405	21.767936507936508	70	127
21.767936507936508	21.953696145124717	66	127
21.767936507936508	21.8956462585034	72	127
21.767936507936508	21.953696145124717	63	127
21.953696145124717	22.127845804988663	58	127
22.139455782312925	22.313605442176872	70	127
22.139455782312925	22.313605442176872	46	127
22.139455782312925	22.49936507936508	61	127
22.139455782312925	22.49936507936508	65	127
22.325215419501134	22.49936507936508	58	127
22.325215419501134	22.394875283446712	69	127
22.406485260770975	22.49936507936508	70	127
22.49936507936508	22.603854875283446	54	127
22.49936507936508	22.603854875283446	71	127
22.49936507936508	22.66190476190476	51	127
22.49936507936508	22.603854875283446	66	127
22.66190476190476	22.789614512471655	71	127
22.66190476190476	22.789614512471655	63	127
22.66190476190476	22.789614512471655	54	127
22.66190476190476	22.812834467120183	51	127
22.812834467120183	22.9637641723356	53	127
22.812834467120183	22.9637641723356	53	127
22.812834467120183	23.021814058956917	70	127
22.812834467120183	23.021814058956917	61	127
23.03342403628118	23.12628117913832	69	127
23.03342403628118	23.12628117913832	60	127
23.03342403628118	23.12628117913832	65	127
23.03342403628118	23.12628117913832	53	127
23.207573696145126	23.42816326530612	70	127
23.207573696145126	23.42816326530612	61	127
23.207573696145126	23.42816326530612	65	127
23.207573696145126	23.42816326530612	46	127
23.671972789115646	23.776462585034015	62	127
23.822902494331064	23.892562358276646	65	127
23.927392290249433	24.008662131519273	70	127
24.055102040816326	24.07832199546485	72	127
24.055102040816326	24.124761904761904	65	127
24.055102040816326	24.136371882086166	65	127
24.055102040816326	24.136371882086166	62	127
24.07832199546485	24.159591836734695	70	127
24.171201814058957	24.252471655328797	65	127
24.171201814058957	24.252471655328797	63	127
24.171201814058957	24.252471655328797	60	127
24.171201814058957	24.287301587301588	69	127
24.287301587301588	24.41501133786848	70	127
24.287301587301588	24.36857142857143	65	127
24.287301587301588	24.38018140589569	62	127
24.287301587301588	24.38018140589569	58	127
24.41501133786848	24.49628117913832	65	127
24.531111111111112	24.60077097505669	69	127
24.64721088435374	24.728480725623584	72	127
24.76331065759637	24.79814058956916	74	127
24.76331065759637	24.856190476190477	65	127
24.76331065759637	24.856190476190477	57	127
24.76331065759637	24.856190476190477	53	127
24.79814058956916	24.891020408163264	72	127
24.891020408163264	24.960680272108842	65	127
24.891020408163264	24.960680272108842	55	127
24.891020408163264	24.960680272108842	53	127
24.891020408163264	24.995510204081633	71	127
24.995510204081633	25.06517006802721	65	127
24.995510204081633	25.076780045351473	57	127
24.995510204081633	25.076780045351473	53	127
24.995510204081633	25.088390022675735	72	127
25.1	25.18126984126984	65	127
25.21609977324263	25.28575963718821	70	127
25.320589569160997	25.401859410430838	74	127
25.43668934240363	25.471519274376416	75	127
25.43668934240363	25.51795918367347	62	127
25.43668934240363	25.52956916099773	53	127
25.43668934240363	25.52956916099773	46	127
25.471519274376416	25.55278911564626	74	127
25.564399092970522	25.610839002267575	60	127
25.564399092970522	25.622448979591837	53	127
25.564399092970522	25.622448979591837	45	127
25.564399092970522	25.645668934240362	72	127
25.645668934240362	25.726938775510202	58	127
25.645668934240362	25.726938775510202	53	127
25.645668934240362	25.726938775510202	43	127
25.645668934240362	25.761768707482993	74	127
25.761768707482993	25.843038548752833	69	127
25.889478458049886	25.93591836734694	72	127
25.982358276643993	26.063628117913833	77	127
26.110068027210886	26.13328798185941	79	127
26.110068027210886	26.191337868480726	60	127
26.110068027210886	26.191337868480726	57	127
26.110068027210886	26.191337868480726	41	127
26.13328798185941	26.226167800453513	77	127
26.226167800453513	26.31904761904762	60	127
26.226167800453513	26.31904761904762	57	127
26.226167800453513	26.31904761904762	41	127
26.226167800453513	26.330657596371882	76	127
26.330657596371882	26.411927437641722	60	127
26.330657596371882	26.411927437641722	57	127
26.330657596371882	26.411927437641722	41	127
26.330657596371882	26.446757369614513	77	127
26.446757369614513	26.50480725623583	74	127
26.551247165532878	26.62090702947846	77	127
26.644126984126984	26.725396825396825	82	127
26.760226757369615	26.795056689342402	84	127
26.760226757369615	26.841496598639456	77	127
26.760226757369615	26.841496598639456	65	127
26.760226757369615	26.841496598639456	62	127
26.795056689342402	26.876326530612246	82	127
26.876326530612246	26.957596371882087	75	127
26.876326530612246	26.957596371882087	65	127
26.876326530612246	26.957596371882087	60	127
26.876326530612246	26.98081632653061	81	127
26.992426303854874	27.08530612244898	74	127
26.992426303854874	27.08530612244898	65	127
26.992426303854874	27.08530612244898	58	127
26.992426303854874	27.108526077097505	82	127
27.108526077097505	27.18979591836735	77	127
27.213015873015873	27.28267573696145	81	127
27.329115646258504	27.38716553287982	84	127
27.43360544217687	27.456825396825398	86	127
27.43360544217687	27.526485260770976	72	127
27.43360544217687	27.526485260770976	65	127
27.43360544217687	27.526485260770976	57	127
27.456825396825398	27.5497052154195	84	127
27.561315192743763	27.642585034013607	77	127
27.561315192743763	27.642585034013607	65	127
27.561315192743763	27.642585034013607	55	127
27.561315192743763	27.677414965986394	83	127
27.677414965986394	27.758684807256238	77	127
27.677414965986394	27.758684807256238	65	127
27.677414965986394	27.758684807256238	53	127
27.677414965986394	27.793514739229025	84	127
27.793514739229025	27.874784580498865	84	127
27.921224489795918	27.979274376417234	86	127
28.014104308390024	28.095374149659865	87	127
28.13020408163265	28.19986394557823	89	127
28.13020408163265	28.211473922902496	72	127
28.13020408163265	28.211473922902496	65	127
28.13020408163265	28.211473922902496	53	127
28.246303854875283	28.327573696145123	91	127
28.246303854875283	28.33918367346939	72	127
28.246303854875283	28.33918367346939	65	127
28.246303854875283	28.33918367346939	53	127
28.374013605442176	28.42045351473923	93	127
28.374013605442176	28.42045351473923	72	127
28.374013605442176	28.42045351473923	65	127
28.374013605442176	28.42045351473923	53	127
28.443673469387754	28.548163265306123	94	127
28.443673469387754	28.548163265306123	74	127
28.443673469387754	28.548163265306123	65	127
28.443673469387754	28.548163265306123	46	127
28.81519274376417	28.896462585034012	65	127
28.81519274376417	28.896462585034012	65	127
28.81519274376417	28.896462585034012	62	127
28.931292517006803	29.024172335600905	65	127
28.931292517006803	29.024172335600905	63	127
28.931292517006803	29.024172335600905	60	127
29.059002267573696	29.128662131519274	65	127
29.059002267573696	29.128662131519274	62	127
29.059002267573696	29.128662131519274	58	127
29.163492063492065	29.244761904761905	62	127
29.279591836734692	29.360861678004536	65	127
29.395691609977323	29.48857142857143	70	127
29.523401360544216	29.558231292517007	72	127
29.523401360544216	29.60467120181406	65	127
29.523401360544216	29.616281179138323	65	127
29.523401360544216	29.616281179138323	62	127
29.558231292517007	29.65111111111111	70	127
29.65111111111111	29.732380952380954	65	127
29.65111111111111	29.743990929705216	63	127
29.65111111111111	29.743990929705216	60	127
29.65111111111111	29.76721088435374	69	127
29.76721088435374	29.860090702947847	58	127
29.76721088435374	29.84848072562358	65	127
29.76721088435374	29.860090702947847	62	127
29.76721088435374	29.883310657596372	70	127
29.883310657596372	29.976190476190474	65	127
29.999410430839003	30.05746031746032	69	127
30.103900226757368	30.18517006802721	72	127
30.22	30.312879818594105	53	127
30.22	30.301269841269843	65	127
30.22	30.243219954648527	74	127
30.22	30.312879818594105	57	127
30.243219954648527	30.33609977324263	72	127
30.347709750566892	30.428979591836736	55	127
30.347709750566892	30.428979591836736	65	127
30.347709750566892	30.428979591836736	53	127
30.347709750566892	30.463809523809523	71	127
30.463809523809523	30.52185941043084	65	127
30.463809523809523	30.5334693877551	57	127
30.463809523809523	30.5334693877551	53	127
30.463809523809523	30.568299319727892	72	127
30.568299319727892	30.626349206349207	65	127
30.661179138321994	30.74244897959184	70	127
30.765668934240363	30.83532879818594	74	127
30.87015873015873	30.963038548752834	46	127
30.87015873015873	30.90498866213152	75	127
30.87015873015873	30.963038548752834	62	127
30.87015873015873	30.963038548752834	53	127
30.90498866213152	30.98625850340136	74	127
30.98625850340136	31.10235827664399	72	127
30.98625850340136	31.067528344671203	60	127
30.98625850340136	31.079138321995465	53	127
30.98625850340136	31.079138321995465	45	127
31.10235827664399	31.195238095238096	43	127
31.10235827664399	31.183628117913834	58	127
31.10235827664399	31.195238095238096	53	127
31.10235827664399	31.21845804988662	74	127
31.230068027210883	31.311337868480727	69	127
31.346167800453514	31.427437641723355	72	127
31.462267573696145	31.543537414965986	77	127
31.58997732426304	31.68285714285714	41	127
31.58997732426304	31.624807256235826	79	127
31.58997732426304	31.68285714285714	60	127
31.58997732426304	31.68285714285714	57	127
31.624807256235826	31.717687074829932	77	127
31.717687074829932	31.810566893424035	41	127
31.717687074829932	31.810566893424035	60	127
31.717687074829932	31.810566893424035	57	127
31.717687074829932	31.833786848072563	76	127
31.845396825396826	31.949886621315194	77	127
31.845396825396826	31.915056689342403	60	127
31.845396825396826	31.915056689342403	57	127
31.845396825396826	31.915056689342403	41	127
31.949886621315194	31.996326530612244	74	127
32.0427664399093	32.07759637188209	77	127
32.112426303854875	32.19369614512472	82	127
32.24013605442177	32.29818594104309	62	127
32.24013605442177	32.25174603174603	84	127
32.24013605442177	32.29818594104309	77	127
32.24013605442177	32.29818594104309	65	127
32.25174603174603	32.32140589569161	82	127
32.32140589569161	32.414263038548754	60	127
32.32140589569161	32.414263038548754	75	127
32.32140589569161	32.414263038548754	65	127
32.32140589569161	32.449115646258505	81	127
32.449115646258505	32.54197278911565	58	127
32.449115646258505	32.54197278911565	74	127
32.449115646258505	32.54197278911565	65	127
32.449115646258505	32.5768253968254	82	127
32.5768253968254	32.64648526077097	77	127
32.69292517006803	32.774195011337866	81	127
32.774195011337866	32.85546485260771	84	127
32.8902947845805	32.983174603174604	57	127
32.8902947845805	32.92510204081633	86	127
32.8902947845805	32.983174603174604	72	127
32.8902947845805	32.983174603174604	65	127
32.92510204081633	33.01800453514739	84	127
33.01800453514739	33.1108843537415	55	127
33.01800453514739	33.1108843537415	77	127
33.01800453514739	33.1108843537415	65	127
33.01800453514739	33.13410430839002	83	127
33.145714285714284	33.261814058956915	84	127
33.145714285714284	33.23859410430839	77	127
33.145714285714284	33.23859410430839	65	127
33.145714285714284	33.23859410430839	53	127
33.261814058956915	33.35469387755102	84	127
33.35469387755102	33.366303854875284	86	127
33.41274376417233	33.49401360544218	87	127
33.54045351473923	33.63333333333333	65	127
33.54045351473923	33.62172335600907	89	127
33.54045351473923	33.63333333333333	72	127
33.54045351473923	33.63333333333333	53	127
33.66816326530612	33.749433106575964	72	127
33.66816326530612	33.7378231292517	91	127
33.66816326530612	33.749433106575964	65	127
33.66816326530612	33.749433106575964	53	127
33.761043083900226	33.865532879818595	53	127
33.761043083900226	33.85392290249433	93	127
33.761043083900226	33.865532879818595	72	127
33.761043083900226	33.865532879818595	65	127
33.88875283446712	33.99324263038549	65	127
33.88875283446712	33.99324263038549	94	127
33.88875283446712	33.99324263038549	74	127
33.88875283446712	33.99324263038549	46	127
34.23705215419501	34.34154195011338	69	127
34.23705215419501	34.34154195011338	65	127
34.23705215419501	34.34154195011338	72	127
34.23705215419501	34.34154195011338	53	127
34.37637188208617	34.469251700680275	69	127
34.37637188208617	34.469251700680275	65	127
34.37637188208617	34.469251700680275	72	127
34.37637188208617	34.469251700680275	53	127
34.4924716553288	34.57371882086168	53	127
34.4924716553288	34.57371882086168	65	127
34.4924716553288	34.57371882086168	72	127
34.4924716553288	34.57371882086168	69	127
34.60857142857143	34.68981859410431	72	127
34.72467120181406	34.8059410430839	77	127
34.84077097505669	34.93365079365079	81	127
34.968480725623586	35.03814058956916	72	127
34.968480725623586	34.99170068027211	82	127
34.968480725623586	35.03814058956916	65	127
34.968480725623586	35.03814058956916	69	127
34.968480725623586	35.03814058956916	53	127
34.99170068027211	35.07294784580499	81	127
35.07294784580499	35.18907029478458	79	127
35.07294784580499	35.16585034013605	65	127
35.07294784580499	35.16585034013605	72	127
35.07294784580499	35.16585034013605	69	127
35.07294784580499	35.16585034013605	53	127
35.20065759637188	35.29356009070295	81	127
35.20065759637188	35.281950113378684	65	127
35.20065759637188	35.281950113378684	72	127
35.20065759637188	35.281950113378684	69	127
35.20065759637188	35.281950113378684	53	127
35.29356009070295	35.38643990929705	72	127
35.40965986394558	35.4677097505669	76	127
35.502539682539684	35.59541950113379	79	127
35.63024943310658	35.67668934240363	64	127
35.63024943310658	35.6534693877551	81	127
35.63024943310658	35.67668934240363	60	127
35.63024943310658	35.67668934240363	72	127
35.6534693877551	35.67668934240363	79	127
35.67668934240363	35.75795918367347	64	127
35.67668934240363	35.79278911564626	78	127
35.67668934240363	35.75795918367347	72	127
35.67668934240363	35.75795918367347	60	127
35.79278911564626	35.885668934240364	72	127
35.79278911564626	35.885668934240364	64	127
35.79278911564626	35.885668934240364	60	127
35.79278911564626	35.92049886621315	79	127
35.92049886621315	36.01337868480726	72	127
36.048208616780045	36.12947845804989	76	127
36.164308390022676	36.25718820861678	79	127
36.29201814058957	36.36167800453515	64	127
36.29201814058957	36.36167800453515	60	127
36.29201814058957	36.326848072562356	81	127
36.29201814058957	36.36167800453515	67	127
36.326848072562356	36.39650793650794	79	127
36.39650793650794	36.489387755102044	64	127
36.39650793650794	36.51260770975057	78	127
36.39650793650794	36.489387755102044	67	127
36.39650793650794	36.489387755102044	60	127
36.52421768707483	36.64031746031746	79	127
36.52421768707483	36.61709750566894	64	127
36.52421768707483	36.61709750566894	60	127
36.52421768707483	36.61709750566894	67	127
36.64031746031746	36.72156462585034	71	127
36.74480725623583	36.82607709750567	74	127
36.83768707482993	36.930566893424036	79	127
36.96539682539682	37.01183673469388	71	127
36.96539682539682	37.01183673469388	55	127
36.96539682539682	37.01183673469388	62	127
36.96539682539682	36.97698412698413	81	127
36.97698412698413	37.035056689342404	79	127
37.04666666666667	37.12793650793651	55	127
37.04666666666667	37.1627664399093	78	127
37.04666666666667	37.12793650793651	71	127
37.04666666666667	37.12793650793651	62	127
37.1627664399093	37.24403628117914	62	127
37.1627664399093	37.27886621315193	79	127
37.1627664399093	37.24403628117914	71	127
37.1627664399093	37.24403628117914	55	127
37.27886621315193	37.371746031746035	71	127
37.40657596371882	37.4762358276644	74	127
37.49945578231293	37.580725623582765	79	127
37.615532879818595	37.70843537414966	62	127
37.615532879818595	37.70843537414966	55	127
37.615532879818595	37.65038548752835	81	127
37.615532879818595	37.70843537414966	71	127
37.65038548752835	37.74324263038549	79	127
37.74324263038549	37.77809523809524	62	127
37.74324263038549	37.7897052154195	78	127
37.74324263038549	37.77809523809524	71	127
37.74324263038549	37.77809523809524	55	127
37.7897052154195	37.88258503401361	62	127
37.7897052154195	37.90580498866213	79	127
37.7897052154195	37.88258503401361	71	127
37.7897052154195	37.88258503401361	55	127
37.917414965986396	38.0102947845805	69	127
38.03351473922903	38.12637188208617	74	127
38.16122448979592	38.2424716553288	77	127
38.25408163265306	38.346984126984125	57	127
38.25408163265306	38.28893424036281	79	127
38.25408163265306	38.346984126984125	69	127
38.25408163265306	38.346984126984125	62	127
38.28893424036281	38.381791383219955	77	127
38.381791383219955	38.47469387755102	62	127
38.381791383219955	38.497891156462586	76	127
38.381791383219955	38.47469387755102	69	127
38.381791383219955	38.47469387755102	57	127
38.50952380952381	38.567573696145125	62	127
38.50952380952381	38.60240362811791	77	127
38.50952380952381	38.567573696145125	69	127
38.50952380952381	38.567573696145125	57	127
38.60240362811791	38.71850340136054	57	127
38.60240362811791	38.71850340136054	69	127
38.60240362811791	38.71850340136054	62	127
38.60240362811791	38.683673469387756	69	127
38.71850340136054	38.75331065759637	74	127
38.788163265306125	38.881020408163266	77	127
38.91587301587302	39.04358276643991	69	127
38.91587301587302	39.04358276643991	57	127
38.91587301587302	39.02036281179139	69	127
38.91587301587302	39.04358276643991	61	127
39.04358276643991	39.14807256235828	73	127
39.18290249433107	39.287392290249436	76	127
39.32222222222222	39.42671201814059	65	127
39.46154195011338	39.54281179138322	69	127
39.57764172335601	39.65891156462585	74	127
39.69374149659864	39.76337868480726	38	127
39.69374149659864	39.72857142857143	76	127
39.69374149659864	39.76337868480726	62	127
39.69374149659864	39.76337868480726	50	127
39.72857142857143	39.77498866213152	74	127
39.77498866213152	39.86789115646258	50	127
39.77498866213152	39.90269841269841	73	127
39.77498866213152	39.86789115646258	62	127
39.77498866213152	39.86789115646258	38	127
39.90269841269841	39.937551020408165	50	127
39.90269841269841	39.94916099773243	74	127
39.90269841269841	39.937551020408165	62	127
39.90269841269841	39.937551020408165	38	127
39.96077097505669	40.042040816326534	67	127
40.06526077097506	40.158140589569165	70	127
40.19297052154195	40.28585034013606	74	127
40.320680272108845	40.401927437641724	55	127
40.320680272108845	40.35551020408163	76	127
40.320680272108845	40.401927437641724	58	127
40.320680272108845	40.401927437641724	38	127
40.35551020408163	40.41356009070295	74	127
40.425170068027214	40.50643990929705	38	127
40.425170068027214	40.52963718820862	73	127
40.425170068027214	40.50643990929705	58	127
40.425170068027214	40.50643990929705	55	127
40.52963718820862	40.61092970521542	55	127
40.52963718820862	40.645759637188206	74	127
40.52963718820862	40.61092970521542	58	127
40.52963718820862	40.61092970521542	38	127
40.645759637188206	40.703809523809525	65	127
40.73863945578231	40.808299319727894	69	127
40.84312925170068	40.93600907029479	74	127
40.95922902494331	41.05210884353742	53	127
40.95922902494331	41.05210884353742	38	127
40.95922902494331	40.9940589569161	76	127
40.95922902494331	41.05210884353742	57	127
40.9940589569161	41.086938775510205	74	127
41.086938775510205	41.17981859410431	53	127
41.086938775510205	41.203038548752836	73	127
41.086938775510205	41.17981859410431	57	127
41.086938775510205	41.17981859410431	38	127
41.203038548752836	41.31913832199547	74	127
41.203038548752836	41.284285714285716	53	127
41.203038548752836	41.284285714285716	38	127
41.203038548752836	41.284285714285716	57	127
41.31913832199547	41.41199546485261	65	127
41.44684807256236	41.50489795918367	69	127
41.5397052154195	41.632607709750566	74	127
41.667414965986396	41.76031746031746	49	127
41.667414965986396	41.76031746031746	45	127
41.667414965986396	41.76031746031746	69	127
41.667414965986396	41.76031746031746	57	127
41.79512471655329	41.88802721088435	61	127
41.79512471655329	41.88802721088435	57	127
41.79512471655329	41.88802721088435	73	127
41.79512471655329	41.88802721088435	57	127
41.899637188208615	41.92283446712018	57	127
41.899637188208615	41.92283446712018	61	127
41.899637188208615	41.92283446712018	57	127
41.899637188208615	41.92283446712018	76	127
41.957687074829934	42.03895691609977	69	127
42.073786848072565	42.1550566893424	74	127
42.17825396825397	42.27115646258503	77	127
42.30596371882086	42.32920634920635	79	127
42.30596371882086	42.387256235827664	62	127
42.30596371882086	42.387256235827664	57	127
42.30596371882086	42.387256235827664	50	127
42.32920634920635	42.387256235827664	77	127
42.387256235827664	42.46852607709751	50	127
42.387256235827664	42.46852607709751	69	127
42.387256235827664	42.46852607709751	62	127
42.387256235827664	42.503356009070295	76	127
42.503356009070295	42.58462585034014	77	127
42.503356009070295	42.549795918367344	69	127
42.503356009070295	42.549795918367344	62	127
42.503356009070295	42.549795918367344	50	127
42.58462585034014	42.67750566893424	71	127
42.71233560090703	42.781995464852606	74	127
42.816802721088436	42.86326530612245	79	127
42.89809523809524	42.93290249433107	81	127
42.89809523809524	42.990975056689344	71	127
42.89809523809524	42.990975056689344	62	127
42.89809523809524	42.990975056689344	43	127
42.93290249433107	43.02580498866213	79	127
43.02580498866213	43.153514739229024	78	127
43.02580498866213	43.11868480725624	71	127
43.02580498866213	43.11868480725624	62	127
43.02580498866213	43.11868480725624	43	127
43.153514739229024	43.269614512471655	79	127
43.153514739229024	43.24639455782313	71	127
43.153514739229024	43.24639455782313	62	127
43.153514739229024	43.24639455782313	43	127
43.28122448979592	43.36249433106576	72	127
43.39732426303855	43.490204081632655	76	127
43.52503401360544	43.61791383219955	79	127
43.6643537414966	43.757233560090704	48	127
43.6643537414966	43.69916099773243	81	127
43.6643537414966	43.757233560090704	72	127
43.6643537414966	43.757233560090704	64	127
43.69916099773243	43.78045351473923	79	127
43.79206349206349	43.86172335600907	48	127
43.79206349206349	43.86172335600907	72	127
43.79206349206349	43.86172335600907	64	127
43.79206349206349	43.8849433106576	78	127
43.8849433106576	44.00104308390023	79	127
43.8849433106576	43.96621315192744	72	127
43.8849433106576	43.96621315192744	64	127
43.8849433106576	43.96621315192744	48	127
44.00104308390023	44.08229024943311	72	127
44.11714285714286	44.21	76	127
44.24485260770975	44.32612244897959	79	127
44.34934240362812	44.44222222222222	72	127
44.34934240362812	44.44222222222222	63	127
44.34934240362812	44.44222222222222	41	127
44.477052154195015	44.569931972789114	41	127
44.477052154195015	44.569931972789114	75	127
44.477052154195015	44.569931972789114	72	127
44.477052154195015	44.569931972789114	63	127
44.60476190476191	44.69764172335601	41	127
44.60476190476191	44.69764172335601	81	127
44.60476190476191	44.69764172335601	72	127
44.60476190476191	44.69764172335601	63	127
44.7324716553288	44.744081632653064	74	127
44.755691609977326	44.836938775510205	77	127
44.860181405895695	44.953061224489794	82	127
44.98789115646259	45.08077097505669	46	127
44.98789115646259	45.022721088435375	84	127
44.98789115646259	45.08077097505669	65	127
44.98789115646259	45.08077097505669	62	127
45.022721088435375	45.11560090702948	82	127
45.11560090702948	45.19687074829932	46	127
45.11560090702948	45.19687074829932	65	127
45.11560090702948	45.19687074829932	62	127
45.11560090702948	45.220068027210885	81	127
45.23167800453515	45.30136054421769	46	127
45.23167800453515	45.30136054421769	65	127
45.23167800453515	45.30136054421769	62	127
45.23167800453515	45.336190476190474	82	127
45.336190476190474	45.42907029478458	77	127
45.46390022675737	45.53356009070295	81	127
45.55678004535147	45.603197278911566	84	127
45.63804988662132	45.66126984126984	86	127
45.63804988662132	45.73090702947846	65	127
45.63804988662132	45.73090702947846	57	127
45.63804988662132	45.73090702947846	41	127
45.66126984126984	45.75414965986395	84	127
45.75414965986395	45.82380952380952	41	127
45.75414965986395	45.82380952380952	65	127
45.75414965986395	45.82380952380952	57	127
45.75414965986395	45.85861678004535	83	127
45.85861678004535	45.986326530612246	84	127
45.85861678004535	45.951519274376416	65	127
45.85861678004535	45.951519274376416	57	127
45.85861678004535	45.951519274376416	41	127
45.986326530612246	46.07922902494331	77	127
46.11403628117914	46.19532879818594	82	127
46.23015873015873	46.31142857142857	86	127
46.34625850340136	46.439138321995465	58	127
46.34625850340136	46.38108843537415	87	127
46.34625850340136	46.439138321995465	65	127
46.34625850340136	46.439138321995465	62	127
46.38108843537415	46.45074829931973	86	127
46.45074829931973	46.52040816326531	58	127
46.45074829931973	46.52040816326531	65	127
46.45074829931973	46.52040816326531	62	127
46.45074829931973	46.555238095238096	84	127
46.555238095238096	46.63650793650794	58	127
46.555238095238096	46.63650793650794	65	127
46.555238095238096	46.63650793650794	62	127
46.555238095238096	46.659727891156464	86	127
46.67133786848073	46.752585034013606	81	127
46.752585034013606	46.81065759637188	84	127
46.84548752834467	46.938367346938776	89	127
46.97319727891156	47.05446712018141	57	127
46.97319727891156	47.05446712018141	53	127
46.97319727891156	46.99639455782313	91	127
46.97319727891156	47.05446712018141	65	127
46.99639455782313	47.07768707482993	89	127
47.089297052154194	47.1821768707483	53	127
47.089297052154194	47.1821768707483	65	127
47.089297052154194	47.1821768707483	57	127
47.089297052154194	47.205396825396825	88	127
47.205396825396825	47.309886621315194	89	127
47.205396825396825	47.28666666666667	65	127
47.205396825396825	47.28666666666667	57	127
47.205396825396825	47.28666666666667	53	127
47.309886621315194	47.39115646258504	74	127
47.425986394557825	47.51886621315193	77	127
47.55369614512472	47.646575963718824	82	127
47.66979591836735	47.73945578231292	58	127
47.66979591836735	47.68140589569161	84	127
47.66979591836735	47.73945578231292	65	127
47.66979591836735	47.73945578231292	62	127
47.68140589569161	47.77428571428572	82	127
47.77428571428572	47.90199546485261	81	127
47.77428571428572	47.86716553287982	65	127
47.77428571428572	47.86716553287982	62	127
47.77428571428572	47.86716553287982	58	127
47.90199546485261	48.029705215419504	82	127
47.90199546485261	47.99487528344671	65	127
47.90199546485261	47.99487528344671	62	127
47.90199546485261	47.99487528344671	58	127
48.029705215419504	48.11097505668934	77	127
48.14580498866213	48.20385487528345	81	127
48.238684807256234	48.308344671201816	84	127
48.3431746031746	48.42444444444445	65	127
48.3431746031746	48.42444444444445	53	127
48.3431746031746	48.37800453514739	86	127
48.3431746031746	48.42444444444445	69	127
48.37800453514739	48.44766439909297	84	127
48.44766439909297	48.517324263038546	53	127
48.44766439909297	48.517324263038546	69	127
48.44766439909297	48.517324263038546	65	127
48.44766439909297	48.54054421768708	83	127
48.55215419501134	48.66825396825397	84	127
48.55215419501134	48.63342403628118	69	127
48.55215419501134	48.63342403628118	65	127
48.55215419501134	48.63342403628118	53	127
48.66825396825397	48.76113378684807	84	127
48.784353741496595	48.795963718820865	86	127
48.83079365079365	48.92367346938776	87	127
48.958503401360545	49.03977324263039	60	127
48.958503401360545	49.03977324263039	89	127
48.958503401360545	49.03977324263039	69	127
48.958503401360545	49.03977324263039	77	127
48.958503401360545	49.03977324263039	53	127
49.062993197278914	49.15587301587301	60	127
49.062993197278914	49.15587301587301	91	127
49.062993197278914	49.15587301587301	69	127
49.062993197278914	49.15587301587301	77	127
49.062993197278914	49.15587301587301	53	127
49.179092970521545	49.271972789115644	69	127
49.179092970521545	49.271972789115644	93	127
49.179092970521545	49.271972789115644	77	127
49.179092970521545	49.271972789115644	60	127
49.179092970521545	49.271972789115644	53	127
49.295192743764176	49.42290249433107	58	127
49.295192743764176	49.42290249433107	94	127
49.295192743764176	49.42290249433107	70	127
49.295192743764176	49.42290249433107	77	127
49.295192743764176	49.42290249433107	62	127
49.678321995464856	49.771201814058955	69	127
49.678321995464856	49.771201814058955	72	127
49.678321995464856	49.771201814058955	65	127
49.80603174603175	49.89891156462585	69	127
49.80603174603175	49.89891156462585	72	127
49.80603174603175	49.89891156462585	65	127
49.93374149659864	49.991791383219955	65	127
49.93374149659864	49.991791383219955	72	127
49.93374149659864	49.991791383219955	69	127
50.02662131519274	50.08467120181406	72	127
50.11950113378685	50.20077097505669	77	127
50.23560090702948	50.328480725623585	81	127
50.36331065759637	50.444580498866216	53	127
50.36331065759637	50.39814058956916	82	127
50.36331065759637	50.444580498866216	65	127
50.36331065759637	50.444580498866216	72	127
50.36331065759637	50.444580498866216	69	127
50.39814058956916	50.46780045351474	81	127
50.46780045351474	50.537460317460315	72	127
50.46780045351474	50.537460317460315	65	127
50.46780045351474	50.56068027210885	79	127
50.46780045351474	50.537460317460315	53	127
50.46780045351474	50.537460317460315	69	127
50.57229024943311	50.67678004535147	81	127
50.57229024943311	50.653560090702946	65	127
50.57229024943311	50.653560090702946	72	127
50.57229024943311	50.653560090702946	69	127
50.57229024943311	50.653560090702946	53	127
50.67678004535147	50.758049886621315	72	127
50.7928798185941	50.874149659863946	76	127
50.90897959183673	51.00185941043084	79	127
51.036689342403626	51.11795918367347	64	127
51.036689342403626	51.11795918367347	60	127
51.036689342403626	51.05990929705215	81	127
51.036689342403626	51.11795918367347	72	127
51.05990929705215	51.141179138321995	79	127
51.15278911564626	51.2340589569161	60	127
51.15278911564626	51.2340589569161	72	127
51.15278911564626	51.2340589569161	64	127
51.15278911564626	51.257278911564626	78	127
51.257278911564626	51.33854875283447	79	127
51.257278911564626	51.33854875283447	72	127
51.257278911564626	51.33854875283447	64	127
51.257278911564626	51.33854875283447	60	127
51.33854875283447	51.43142857142857	72	127
51.4546485260771	51.53591836734694	76	127
51.570748299319725	51.65201814058957	79	127
51.686848072562356	51.75650793650794	60	127
51.686848072562356	51.72167800453515	81	127
51.686848072562356	51.75650793650794	67	127
51.686848072562356	51.75650793650794	64	127
51.72167800453515	51.791337868480724	79	127
51.791337868480724	51.91904761904762	78	127
51.791337868480724	51.88421768707483	67	127
51.791337868480724	51.88421768707483	64	127
51.791337868480724	51.88421768707483	60	127
51.91904761904762	51.97709750566894	60	127
51.91904761904762	51.97709750566894	67	127
51.91904761904762	51.97709750566894	64	127
51.91904761904762	52.00031746031746	79	127
52.011927437641724	52.0815873015873	71	127
52.11641723356009	52.20929705215419	74	127
52.244126984126986	52.33700680272109	79	127
52.37183673469388	52.453106575963716	55	127
52.37183673469388	52.406666666666666	81	127
52.37183673469388	52.453106575963716	71	127
52.37183673469388	52.453106575963716	62	127
52.406666666666666	52.464716553287985	79	127
52.47632653061225	52.557596371882084	55	127
52.47632653061225	52.557596371882084	71	127
52.47632653061225	52.557596371882084	62	127
52.47632653061225	52.557596371882084	78	127
52.557596371882084	52.66208616780045	79	127
52.557596371882084	52.627256235827666	71	127
52.557596371882084	52.627256235827666	62	127
52.557596371882084	52.627256235827666	55	127
52.66208616780045	52.731746031746034	71	127
52.76657596371882	52.847845804988665	74	127
52.88267573696145	52.96394557823129	79	127
52.998775510204084	53.08004535147392	55	127
52.998775510204084	53.02199546485261	81	127
52.998775510204084	53.08004535147392	71	127
52.998775510204084	53.08004535147392	62	127
53.02199546485261	53.114875283446715	79	127
53.114875283446715	53.207755102040814	78	127
53.114875283446715	53.19614512471655	71	127
53.114875283446715	53.19614512471655	62	127
53.114875283446715	53.19614512471655	55	127
53.207755102040814	53.30063492063492	55	127
53.207755102040814	53.30063492063492	71	127
53.207755102040814	53.30063492063492	62	127
53.207755102040814	53.33546485260771	79	127
53.33546485260771	53.41673469387755	69	127
53.45156462585034	53.50961451247166	74	127
53.544444444444444	53.63732426303855	77	127
53.67215419501134	53.765034013605444	57	127
53.67215419501134	53.706984126984125	79	127
53.67215419501134	53.765034013605444	69	127
53.67215419501134	53.765034013605444	62	127
53.706984126984125	53.78825396825397	77	127
53.78825396825397	53.881133786848075	57	127
53.78825396825397	53.881133786848075	69	127
53.78825396825397	53.881133786848075	62	127
53.78825396825397	53.9043537414966	76	127
53.91596371882086	54.00884353741497	57	127
53.91596371882086	54.00884353741497	69	127
53.91596371882086	54.00884353741497	62	127
53.91596371882086	54.03206349206349	77	127
54.03206349206349	54.090113378684805	62	127
54.03206349206349	54.07850340136054	69	127
54.03206349206349	54.090113378684805	69	127
54.03206349206349	54.090113378684805	57	127
54.090113378684805	54.159773242630386	74	127
54.18299319727891	54.24104308390023	77	127
54.264263038548755	54.40358276643991	57	127
54.264263038548755	54.368752834467124	69	127
54.264263038548755	54.40358276643991	69	127
54.264263038548755	54.40358276643991	61	127
54.40358276643991	54.473242630385485	73	127
54.48485260770975	54.589342403628116	76	127
54.62417233560091	54.70544217687075	65	127
54.70544217687075	54.751882086167804	69	127
54.78671201814059	54.856371882086165	74	127
54.8795918367347	54.972471655328796	38	127
54.8795918367347	54.914421768707484	76	127
54.8795918367347	54.972471655328796	62	127
54.8795918367347	54.972471655328796	50	127
54.914421768707484	55.00730158730159	74	127
55.00730158730159	55.10018140589569	38	127
55.00730158730159	55.10018140589569	62	127
55.00730158730159	55.10018140589569	50	127
55.00730158730159	55.135011337868484	73	127
55.135011337868484	55.26272108843538	74	127
55.135011337868484	55.22789115646258	62	127
55.135011337868484	55.22789115646258	50	127
55.135011337868484	55.22789115646258	38	127
55.26272108843538	55.355600907029476	67	127
55.39043083900227	55.460090702947845	70	127
55.48331065759637	55.576190476190476	74	127
55.61102040816326	55.69229024943311	38	127
55.61102040816326	55.64585034013606	76	127
55.61102040816326	55.69229024943311	58	127
55.61102040816326	55.69229024943311	55	127
55.64585034013606	55.727120181405894	74	127
55.727120181405894	55.78517006802721	38	127
55.727120181405894	55.78517006802721	58	127
55.727120181405894	55.78517006802721	55	127
55.727120181405894	55.796780045351476	73	127
55.80839002267574	55.87804988662131	58	127
55.80839002267574	55.87804988662131	55	127
55.80839002267574	55.87804988662131	38	127
55.80839002267574	55.91287981859411	74	127
55.91287981859411	56.005759637188206	65	127
56.040589569161	56.1334693877551	69	127
56.16829931972789	56.23795918367347	74	127
56.27278911564626	56.31922902494331	53	127
56.27278911564626	56.31922902494331	38	127
56.27278911564626	56.31922902494331	57	127
56.27278911564626	56.342448979591836	74	127
56.342448979591836	56.43532879818594	38	127
56.342448979591836	56.43532879818594	57	127
56.342448979591836	56.43532879818594	53	127
56.342448979591836	56.446938775510205	73	127
56.446938775510205	56.55142857142857	74	127
56.446938775510205	56.51659863945578	57	127
56.446938775510205	56.51659863945578	53	127
56.446938775510205	56.51659863945578	38	127
56.55142857142857	56.64430839002267	65	127
56.67913832199547	56.772018140589566	69	127
56.7952380952381	56.876507936507934	74	127
56.91133786848073	57.00421768707483	49	127
56.91133786848073	57.00421768707483	69	127
56.91133786848073	57.00421768707483	57	127
56.91133786848073	57.00421768707483	45	127
57.03904761904762	57.12031746031746	57	127
57.03904761904762	57.12031746031746	73	127
57.03904761904762	57.12031746031746	61	127
57.03904761904762	57.12031746031746	57	127
57.143537414965984	57.22480725623583	57	127
57.143537414965984	57.22480725623583	76	127
57.143537414965984	57.22480725623583	61	127
57.143537414965984	57.22480725623583	57	127
57.27124716553288	57.35251700680272	69	127
57.38734693877551	57.46861678004535	74	127
57.480226757369614	57.56149659863946	77	127
57.596326530612245	57.68920634920635	50	127
57.596326530612245	57.63115646258503	79	127
57.596326530612245	57.68920634920635	62	127
57.596326530612245	57.68920634920635	57	127
57.63115646258503	57.712426303854876	77	127
57.72403628117914	57.79369614512472	50	127
57.72403628117914	57.79369614512472	69	127
57.72403628117914	57.79369614512472	62	127
57.72403628117914	57.82852607709751	76	127
57.82852607709751	57.933015873015876	77	127
57.82852607709751	57.89818594104308	69	127
57.82852607709751	57.89818594104308	62	127
57.82852607709751	57.89818594104308	50	127
57.933015873015876	58.01428571428571	71	127
58.04911564625851	58.13038548752834	74	127
58.16521541950113	58.25809523809524	79	127
58.2697052154195	58.28131519274376	62	127
58.2697052154195	58.28131519274376	43	127
58.2697052154195	58.28131519274376	81	127
58.2697052154195	58.28131519274376	71	127
58.28131519274376	58.292925170068024	79	127
58.292925170068024	58.37419501133787	43	127
58.292925170068024	58.37419501133787	71	127
58.292925170068024	58.37419501133787	62	127
58.292925170068024	58.409024943310655	78	127
58.409024943310655	58.50190476190476	62	127
58.409024943310655	58.50190476190476	71	127
58.409024943310655	58.50190476190476	43	127
58.409024943310655	58.53673469387755	79	127
58.53673469387755	58.629614512471655	72	127
58.66444444444444	58.745714285714286	76	127
58.78054421768707	58.87342403628118	79	127
58.908253968253966	59.00113378684807	64	127
58.908253968253966	59.00113378684807	48	127
58.908253968253966	58.94308390022676	81	127
58.908253968253966	59.00113378684807	72	127
58.94308390022676	59.03596371882086	79	127
59.03596371882086	59.09401360544218	64	127
59.03596371882086	59.09401360544218	78	127
59.03596371882086	59.09401360544218	72	127
59.03596371882086	59.09401360544218	48	127
59.10562358276644	59.16367346938775	64	127
59.10562358276644	59.19850340136055	79	127
59.10562358276644	59.16367346938775	72	127
59.10562358276644	59.16367346938775	48	127
59.19850340136055	59.291383219954646	72	127
59.31460317460318	59.395873015873015	76	127
59.4307029478458	59.53519274376417	79	127
59.570022675736965	59.662902494331064	41	127
59.570022675736965	59.662902494331064	72	127
59.570022675736965	59.662902494331064	63	127
59.68612244897959	59.779002267573695	75	127
59.68612244897959	59.779002267573695	72	127
59.68612244897959	59.779002267573695	63	127
59.68612244897959	59.779002267573695	41	127
59.81383219954648	59.895102040816326	72	127
59.81383219954648	59.895102040816326	81	127
59.81383219954648	59.895102040816326	63	127
59.81383219954648	59.895102040816326	41	127
59.895102040816326	59.941541950113375	74	127
59.97637188208617	60.046031746031744	77	127
60.06925170068027	60.162131519274375	82	127
60.19696145124716	60.278231292517006	62	127
60.19696145124716	60.278231292517006	46	127
60.19696145124716	60.23179138321996	84	127
60.19696145124716	60.278231292517006	65	127
60.23179138321996	60.31306122448979	82	127
60.31306122448979	60.39433106575964	62	127
60.31306122448979	60.429160997732424	81	127
60.31306122448979	60.39433106575964	65	127
60.31306122448979	60.39433106575964	46	127
60.429160997732424	60.51043083900227	62	127
60.429160997732424	60.53365079365079	82	127
60.429160997732424	60.51043083900227	65	127
60.429160997732424	60.51043083900227	46	127
60.545260770975055	60.6265306122449	77	127
60.661360544217686	60.719410430839005	81	127
60.74263038548753	60.812290249433104	84	127
60.8471201814059	60.94	41	127
60.8471201814059	60.881950113378686	86	127
60.8471201814059	60.94	65	127
60.8471201814059	60.94	57	127
60.881950113378686	60.96321995464853	84	127
60.97482993197279	61.032879818594104	41	127
60.97482993197279	61.032879818594104	65	127
60.97482993197279	61.032879818594104	57	127
60.97482993197279	61.06770975056689	83	127
61.06770975056689	61.148979591836735	57	127
61.06770975056689	61.148979591836735	65	127
61.06770975056689	61.148979591836735	41	127
61.06770975056689	61.18380952380952	84	127
61.18380952380952	61.27668934240363	77	127
61.311519274376415	61.40439909297052	82	127
61.43922902494331	61.45083900226757	86	127
61.45083900226757	61.54371882086168	62	127
61.45083900226757	61.54371882086168	58	127
61.45083900226757	61.485668934240366	87	127
61.45083900226757	61.54371882086168	65	127
61.485668934240366	61.5669387755102	86	127
61.5669387755102	61.648208616780046	62	127
61.5669387755102	61.67142857142857	84	127
61.5669387755102	61.648208616780046	65	127
61.5669387755102	61.648208616780046	58	127
61.67142857142857	61.72947845804989	62	127
61.67142857142857	61.76430839002268	86	127
61.67142857142857	61.72947845804989	65	127
61.67142857142857	61.72947845804989	58	127
61.76430839002268	61.85718820861678	81	127
61.89201814058957	61.97328798185941	84	127
62.0081179138322	62.1009977324263	89	127
62.135827664399095	62.228707482993194	57	127
62.135827664399095	62.17065759637188	91	127
62.135827664399095	62.228707482993194	65	127
62.135827664399095	62.228707482993194	53	127
62.17065759637188	62.26353741496599	89	127
62.26353741496599	62.35641723356009	53	127
62.26353741496599	62.37963718820862	88	127
62.26353741496599	62.35641723356009	65	127
62.26353741496599	62.35641723356009	57	127
62.39124716553288	62.47251700680272	57	127
62.39124716553288	62.50734693877551	89	127
62.39124716553288	62.47251700680272	65	127
62.39124716553288	62.47251700680272	53	127
62.50734693877551	62.58861678004535	74	127
62.60022675736961	62.65827664399093	77	127
62.69310657596372	62.785986394557824	82	127
62.82081632653061	62.89047619047619	62	127
62.82081632653061	62.89047619047619	58	127
62.82081632653061	62.844036281179136	84	127
62.82081632653061	62.89047619047619	65	127
62.844036281179136	62.92530612244898	82	127
62.92530612244898	63.018185941043086	62	127
62.92530612244898	63.05301587301587	81	127
62.92530612244898	63.018185941043086	65	127
62.92530612244898	63.018185941043086	58	127
63.05301587301587	63.169115646258504	82	127
63.05301587301587	63.13428571428572	65	127
63.05301587301587	63.13428571428572	62	127
63.05301587301587	63.13428571428572	58	127
63.169115646258504	63.26199546485261	77	127
63.2968253968254	63.36648526077097	81	127
63.389705215419504	63.4825850340136	84	127
63.505804988662135	63.58707482993197	65	127
63.505804988662135	63.52902494331066	86	127
63.505804988662135	63.58707482993197	69	127
63.505804988662135	63.58707482993197	53	127
63.52902494331066	63.62190476190476	84	127
63.62190476190476	63.714784580498865	53	127
63.62190476190476	63.74961451247165	83	127
63.62190476190476	63.714784580498865	69	127
63.62190476190476	63.714784580498865	65	127
63.74961451247165	63.81927437641723	65	127
63.74961451247165	63.84249433106576	84	127
63.74961451247165	63.81927437641723	69	127
63.74961451247165	63.81927437641723	53	127
63.84249433106576	63.90054421768708	84	127
63.935374149659864	63.95859410430839	86	127
63.993424036281176	64.07469387755103	87	127
64.10952380952381	64.21401360544218	77	127
64.10952380952381	64.21401360544218	53	127
64.10952380952381	64.21401360544218	89	127
64.10952380952381	64.21401360544218	69	127
64.10952380952381	64.21401360544218	60	127
64.2372335600907	64.33011337868481	77	127
64.2372335600907	64.33011337868481	53	127
64.2372335600907	64.33011337868481	91	127
64.2372335600907	64.33011337868481	69	127
64.2372335600907	64.33011337868481	60	127
64.33011337868481	64.39977324263039	77	127
64.33011337868481	64.39977324263039	53	127
64.33011337868481	64.39977324263039	93	127
64.33011337868481	64.39977324263039	69	127
64.33011337868481	64.39977324263039	60	127
64.42299319727891	64.57392290249433	70	127
64.42299319727891	64.57392290249433	94	127
64.42299319727891	64.57392290249433	77	127
64.42299319727891	64.57392290249433	62	127
64.42299319727891	64.57392290249433	58	127
64.74807256235827	64.85256235827664	75	127
64.74807256235827	64.85256235827664	72	127
64.74807256235827	64.85256235827664	65	127
64.86417233560091	64.92222222222222	72	127
64.86417233560091	64.92222222222222	65	127
64.86417233560091	64.92222222222222	75	127
64.96866213151928	65.06154195011338	75	127
64.96866213151928	65.06154195011338	65	127
64.96866213151928	65.06154195011338	72	127
65.09637188208617	65.177641723356	72	127
65.2124716553288	65.29374149659864	74	127
65.31696145124717	65.38662131519274	75	127
65.43306122448979	65.51433106575963	75	127
65.43306122448979	65.51433106575963	65	127
65.43306122448979	65.51433106575963	77	127
65.43306122448979	65.51433106575963	72	127
65.54916099773243	65.618820861678	75	127
65.54916099773243	65.618820861678	65	127
65.54916099773243	65.618820861678	79	127
65.54916099773243	65.618820861678	72	127
65.64204081632653	65.71167800453514	65	127
65.64204081632653	65.71167800453514	81	127
65.64204081632653	65.71167800453514	75	127
65.64204081632653	65.71167800453514	72	127
65.7465306122449	65.83938775510204	50	127
65.7465306122449	65.83938775510204	62	127
65.7465306122449	65.87424036281179	82	127
65.7465306122449	65.83938775510204	50	127
65.87424036281179	65.97873015873016	51	127
65.87424036281179	65.97873015873016	63	127
65.87424036281179	65.97873015873016	51	127
66.01356009070295	66.08321995464853	65	127
66.01356009070295	66.08321995464853	53	127
66.01356009070295	66.08321995464853	53	127
66.11804988662132	66.17609977324263	55	127
66.11804988662132	66.17609977324263	55	127
66.11804988662132	66.17609977324263	67	127
66.1992970521542	66.30380952380952	69	127
66.1992970521542	66.30380952380952	57	127
66.1992970521542	66.30380952380952	57	127
66.33863945578231	66.36185941043084	70	127
66.33863945578231	66.36185941043084	58	127
66.33863945578231	66.36185941043084	58	127
66.38507936507936	66.61727891156463	48	127
66.38507936507936	66.61727891156463	60	127
66.38507936507936	66.61727891156463	48	127
66.73335600907029	67.0004081632653	50	127
66.73335600907029	67.0004081632653	62	127
66.73335600907029	67.0004081632653	50	127
67.13972789115647	67.41836734693878	39	127
67.13972789115647	67.41836734693878	63	127
67.13972789115647	67.41836734693878	51	127
67.55768707482993	67.81310657596372	41	127
67.55768707482993	67.81310657596372	65	127
67.55768707482993	67.81310657596372	53	127
67.96403628117913	68.24265306122449	43	127
67.96403628117913	68.24265306122449	55	127
67.96403628117913	68.24265306122449	67	127
68.40521541950113	68.69546485260771	57	127
68.40521541950113	68.69546485260771	69	127
68.40521541950113	68.69546485260771	45	127
68.83478458049886	69.25274376417234	58	127
68.83478458049886	69.25274376417234	70	127
68.83478458049886	69.25274376417234	46	127
69.47333333333333	70.25120181405896	48	127
69.47333333333333	70.25120181405896	60	127
69.47333333333333	70.25120181405896	60	127
69.47333333333333	71.51668934240362	72	127
71.51668934240362	71.64439909297052	71	127
71.64439909297052	71.77210884353741	70	127
71.77210884353741	71.88820861678005	69	127
71.88820861678005	72.22489795918368	68	127
72.22489795918368	72.29455782312925	67	127
72.29455782312925	72.3758276643991	66	127
72.3758276643991	72.52675736961451	53	127
72.3758276643991	72.52675736961451	65	127
72.3758276643991	72.52675736961451	41	127
72.58480725623583	72.72412698412698	41	127
72.58480725623583	72.72412698412698	65	127
72.58480725623583	72.72412698412698	53	127
72.7821768707483	72.9098866213152	42	127
72.7821768707483	72.9098866213152	66	127
72.7821768707483	72.9098866213152	54	127
73.89673469387755	75.59179138321996	75	127
75.59179138321996	75.82399092970522	74	127
75.82399092970522	75.89365079365079	72	127
75.89365079365079	75.95170068027211	71	127
75.95170068027211	76.02136054421769	70	127
76.02136054421769	76.10263038548753	69	127
76.10263038548753	76.1722902494331	68	127
76.1722902494331	76.28839002267574	67	127
76.28839002267574	76.42770975056689	66	127
76.42770975056689	76.55541950113378	53	127
76.42770975056689	76.55541950113378	65	127
76.42770975056689	76.55541950113378	41	127
76.6250566893424	76.741179138322	53	127
76.6250566893424	76.741179138322	65	127
76.6250566893424	76.741179138322	41	127
76.81083900226757	76.91532879818594	42	127
76.81083900226757	76.91532879818594	66	127
76.81083900226757	76.91532879818594	54	127
77.9021768707483	79.74816326530612	78	127
79.74816326530612	79.8178231292517	77	127
79.8178231292517	79.9222902494331	75	127
79.9222902494331	79.99197278911565	73	127
79.99197278911565	80.06163265306122	72	127
80.06163265306122	80.1312925170068	71	127
80.1312925170068	80.20095238095239	70	127
80.20095238095239	80.27061224489796	69	127
80.27061224489796	80.3518820861678	68	127
80.3518820861678	80.42154195011338	67	127
80.42154195011338	80.64213151927437	66	127
80.64213151927437	80.76984126984127	58	127
80.64213151927437	80.82789115646258	65	127
80.64213151927437	81.18780045351474	61	127
80.64213151927437	81.00204081632653	53	127
80.83950113378685	80.95560090702948	46	127
80.83950113378685	80.92074829931973	63	127
80.93238095238095	81.00204081632653	65	127
81.0136507936508	81.14136054421769	66	127
81.0136507936508	81.71024943310658	51	127
81.18780045351474	81.28068027210884	39	127
81.18780045351474	81.24585034013606	63	127
81.24585034013606	81.33873015873016	61	127
81.33873015873016	81.88439909297053	60	127
81.33873015873016	81.46643990929705	44	127
81.33873015873016	81.52448979591837	63	127
81.52448979591837	81.65219954648526	56	127
81.52448979591837	81.61736961451247	61	127
81.61736961451247	81.71024943310658	63	127
81.71024943310658	82.07013605442177	49	127
81.71024943310658	81.84956916099773	65	127
81.89600907029478	81.97727891156462	61	127
81.89600907029478	82.01210884353742	49	127
81.9888888888889	82.07013605442177	60	127
82.07013605442177	82.18625850340136	54	127
82.07013605442177	82.18625850340136	58	127
82.07013605442177	82.18625850340136	49	127
82.07013605442177	82.24430839002268	61	127
82.25591836734694	82.32555555555555	60	127
82.25591836734694	82.3604081632653	42	127
82.25591836734694	82.3604081632653	49	127
82.25591836734694	82.3604081632653	58	127
82.32555555555555	82.3952380952381	61	127
82.3952380952381	82.51133786848072	63	127
82.3952380952381	82.49972789115647	58	127
82.3952380952381	82.49972789115647	48	127
82.3952380952381	82.49972789115647	42	127
82.55777777777777	82.68548752834467	42	127
82.55777777777777	82.68548752834467	58	127
82.55777777777777	82.68548752834467	48	127
82.55777777777777	82.69709750566894	63	127
82.74353741496599	82.91768707482993	42	127
82.74353741496599	82.91768707482993	65	127
82.74353741496599	82.91768707482993	57	127
82.74353741496599	82.91768707482993	48	127
82.91768707482993	83.0221768707483	60	127
83.0221768707483	83.11505668934241	61	127
83.12666666666667	83.2427664399093	63	127
83.31242630385488	83.4285260770975	60	127
83.49818594104309	83.61428571428571	58	127
83.49818594104309	83.64911564625851	65	127
83.49818594104309	83.81165532879818	53	127
83.49818594104309	84.14834467120181	61	127
83.64911564625851	83.75360544217688	46	127
83.64911564625851	83.71877551020408	63	127
83.71877551020408	83.81165532879818	65	127
83.81165532879818	84.49664399092971	51	127
83.81165532879818	83.93936507936507	66	127
83.97419501133787	84.09027210884354	39	127
84.14834467120181	84.25283446712018	44	127
84.14834467120181	84.3108843537415	63	127
84.14834467120181	84.68240362811791	60	127
84.32249433106576	84.4037641723356	61	127
84.32249433106576	84.4385941043084	56	127
84.41537414965987	84.49664399092971	63	127
84.50825396825397	84.63596371882086	65	127
84.50825396825397	85.01909297052154	49	127
84.68240362811791	84.8101133786848	49	127
84.68240362811791	84.77528344671202	61	127
84.77528344671202	84.86816326530612	60	127
84.86816326530612	84.98424036281179	58	127
84.86816326530612	84.98424036281179	54	127
84.86816326530612	85.01909297052154	61	127
85.01909297052154	85.13519274376418	42	127
85.01909297052154	85.11195011337868	60	127
85.01909297052154	85.13519274376418	58	127
85.01909297052154	85.13519274376418	51	127
85.11195011337868	85.18163265306123	61	127
85.18163265306123	85.32095238095238	63	127
85.18163265306123	85.30934240362812	57	127
85.18163265306123	85.30934240362812	51	127
85.18163265306123	85.30934240362812	41	127
85.3790022675737	85.48349206349206	41	127
85.3790022675737	85.48349206349206	57	127
85.3790022675737	85.48349206349206	53	127
85.3790022675737	85.49507936507936	60	127
85.55315192743764	85.63442176870748	53	127
85.55315192743764	85.68086167800453	58	127
85.55315192743764	85.68086167800453	46	127
85.6924716553288	85.7853514739229	60	127
85.6924716553288	85.7853514739229	48	127
85.7853514739229	85.87820861678004	49	127
85.7853514739229	85.87820861678004	61	127
85.87820861678004	85.99433106575964	51	127
85.87820861678004	85.99433106575964	63	127
86.05238095238096	86.18009070294785	60	127
86.05238095238096	86.18009070294785	48	127
86.2265306122449	86.56321995464853	61	127
86.2265306122449	86.27297052154195	65	127
86.2265306122449	86.3542403628118	61	127
86.2265306122449	86.3542403628118	58	127
86.27297052154195	86.319410430839	66	127
86.319410430839	86.36582766439909	65	127
86.36582766439909	86.41229024943311	66	127
86.41229024943311	86.47034013605442	65	127
86.41229024943311	86.52839002267574	46	127
86.41229024943311	86.52839002267574	49	127
86.47034013605442	86.52839002267574	63	127
86.52839002267574	86.56321995464853	65	127
86.57482993197279	86.6444671201814	75	127
86.57482993197279	86.65609977324263	66	127
86.71414965986395	86.83024943310657	39	127
86.71414965986395	86.83024943310657	63	127
86.71414965986395	86.83024943310657	54	127
86.71414965986395	86.84185941043084	78	127
86.89988662131519	87.21337868480725	60	127
86.89988662131519	86.93473922902494	63	127
86.89988662131519	86.98117913832199	60	127
86.89988662131519	86.98117913832199	44	127
86.93473922902494	86.96956916099774	65	127
86.96956916099774	86.99278911564626	63	127
86.99278911564626	87.03922902494331	65	127
87.03922902494331	87.15530612244898	56	127
87.03922902494331	87.15530612244898	48	127
87.03922902494331	87.09727891156463	63	127
87.09727891156463	87.15530612244898	61	127
87.15530612244898	87.21337868480725	63	127
87.21337868480725	87.32947845804989	65	127
87.21337868480725	87.31786848072562	73	127
87.37591836734694	87.50362811791383	49	127
87.37591836734694	87.50362811791383	61	127
87.37591836734694	87.50362811791383	53	127
87.37591836734694	87.51521541950113	77	127
87.56167800453515	87.68938775510205	70	127
87.56167800453515	87.6081179138322	61	127
87.56167800453515	87.68938775510205	54	127
87.56167800453515	87.92158730158731	58	127
87.6081179138322	87.66614512471655	63	127
87.66614512471655	87.71260770975057	61	127
87.71260770975057	87.75904761904762	63	127
87.75904761904762	87.86353741496599	42	127
87.75904761904762	87.80548752834467	61	127
87.75904761904762	87.86353741496599	58	127
87.80548752834467	87.86353741496599	60	127
87.86353741496599	87.92158730158731	61	127
87.93319727891156	88.06090702947846	70	127
87.93319727891156	88.07251700680273	63	127
88.11895691609978	88.25827664399092	75	127
88.11895691609978	88.24666666666667	42	127
88.11895691609978	88.24666666666667	58	127
88.11895691609978	88.24666666666667	58	127
88.30471655328799	88.43242630385488	69	127
88.30471655328799	88.43242630385488	57	127
88.30471655328799	88.43242630385488	53	127
88.30471655328799	88.44403628117914	65	127
88.49047619047619	88.59496598639456	69	127
88.49047619047619	88.59496598639456	57	127
88.49047619047619	88.59496598639456	41	127
88.49047619047619	88.60657596371883	77	127
88.61818594104308	88.68784580498867	65	127
88.61818594104308	88.68784580498867	77	127
88.75750566893424	88.86199546485261	65	127
88.75750566893424	88.86199546485261	53	127
88.93165532879819	89.04773242630385	73	127
88.93165532879819	88.97809523809524	65	127
88.93165532879819	89.41927437641723	61	127
88.93165532879819	89.04773242630385	58	127
88.97809523809524	89.02453514739229	66	127
89.02453514739229	89.05936507936508	65	127
89.05936507936508	89.10580498866213	66	127
89.10580498866213	89.2102947845805	61	127
89.10580498866213	89.16385487528345	65	127
89.10580498866213	89.2102947845805	46	127
89.16385487528345	89.2102947845805	63	127
89.2102947845805	89.25673469387755	65	127
89.25673469387755	89.37283446712019	66	127
89.41927437641723	89.53537414965986	78	127
89.41927437641723	89.50054421768708	63	127
89.41927437641723	89.5237641723356	66	127
89.41927437641723	89.5237641723356	39	127
89.50054421768708	89.57020408163265	61	127
89.57020408163265	89.68628117913832	72	127
89.57020408163265	89.6166439909297	63	127
89.57020408163265	89.97655328798186	60	127
89.57020408163265	89.68628117913832	44	127
89.6166439909297	89.66308390022675	65	127
89.66308390022675	89.69791383219955	63	127
89.69791383219955	89.7443537414966	65	127
89.7443537414966	89.86045351473923	60	127
89.7443537414966	89.81399092970521	63	127
89.7443537414966	89.86045351473923	56	127
89.81399092970521	89.86045351473923	61	127
89.86045351473923	89.89528344671201	63	127
89.90689342403628	89.9649433106576	65	127
89.98816326530613	90.069410430839	49	127
89.98816326530613	90.04619047619047	61	127
89.98816326530613	90.069410430839	65	127
89.98816326530613	90.08104308390023	77	127
90.04619047619047	90.12748299319728	60	127
90.12748299319728	90.24358276643991	70	127
90.12748299319728	90.16231292517007	61	127
90.12748299319728	90.24358276643991	58	127
90.12748299319728	90.24358276643991	54	127
90.16231292517007	90.20875283446712	63	127
90.20875283446712	90.25519274376417	61	127
90.25519274376417	90.30160997732426	63	127
90.30160997732426	90.41773242630386	42	127
90.30160997732426	90.34807256235828	61	127
90.30160997732426	90.41773242630386	70	127
90.30160997732426	90.41773242630386	58	127
90.34807256235828	90.41773242630386	60	127
90.41773242630386	90.47578231292518	61	127
90.47578231292518	90.5918820861678	57	127
90.47578231292518	90.5918820861678	72	127
90.47578231292518	90.5918820861678	41	127
90.47578231292518	90.60349206349207	63	127
90.64993197278912	90.77764172335601	60	127
90.64993197278912	90.77764172335601	69	127
90.64993197278912	90.77764172335601	57	127
90.64993197278912	90.77764172335601	41	127
90.78925170068027	90.96337868480725	70	127
90.78925170068027	90.9053514739229	58	127
90.78925170068027	90.96337868480725	58	127
90.78925170068027	90.96337868480725	46	127
90.97501133786848	91.05628117913832	61	127
90.97501133786848	91.05628117913832	49	127
91.06786848072562	91.13755102040817	63	127
91.06786848072562	91.13755102040817	51	127
91.14916099773242	91.27687074829932	65	127
91.14916099773242	91.27687074829932	53	127
91.33492063492064	91.4509977324263	61	127
91.33492063492064	91.4509977324263	49	127
91.50907029478458	92.04312925170068	68	127
91.50907029478458	91.62517006802722	44	127
91.50907029478458	91.68321995464852	73	127
91.50907029478458	91.86897959183673	65	127
91.68321995464852	91.81092970521541	56	127
91.68321995464852	91.77609977324263	72	127
91.77609977324263	91.86897959183673	73	127
91.86897959183673	92.04312925170068	66	127
91.86897959183673	91.98507936507937	75	127
92.05473922902495	92.17083900226757	56	127
92.05473922902495	92.22888888888889	75	127
92.24049886621316	92.4146485260771	73	127
92.24049886621316	92.35659863945578	44	127
92.24049886621316	92.61201814058957	65	127
92.24049886621316	92.78616780045351	68	127
92.42625850340136	92.55396825396825	56	127
92.42625850340136	92.55396825396825	80	127
92.61201814058957	92.73972789115646	78	127
92.61201814058957	92.78616780045351	63	127
92.78616780045351	92.9487074829932	78	127
92.78616780045351	92.9138775510204	56	127
92.9487074829932	93.43632653061225	68	127
92.9487074829932	93.01836734693877	44	127
92.9487074829932	93.06480725623582	73	127
92.9487074829932	93.25056689342404	65	127
93.06480725623582	93.19251700680272	56	127
93.06480725623582	93.15768707482994	72	127
93.15768707482994	93.2621768707483	73	127
93.2621768707483	93.43632653061225	66	127
93.2621768707483	93.37827664399093	75	127
93.4479365079365	93.5756462585034	56	127
93.4479365079365	93.64530612244899	75	127
93.64530612244899	94.00519274376417	65	127
93.64530612244899	93.77301587301588	44	127
93.64530612244899	93.83106575963718	73	127
93.64530612244899	94.19097505668934	68	127
93.83106575963718	93.94716553287982	80	127
93.83106575963718	93.94716553287982	56	127
94.00519274376417	94.13290249433106	78	127
94.00519274376417	94.19097505668934	63	127
94.19097505668934	94.31868480725623	44	127
94.19097505668934	94.37673469387755	78	127
94.37673469387755	94.72503401360544	65	127
94.37673469387755	94.49281179138322	46	127
94.37673469387755	94.5508843537415	70	127
94.37673469387755	94.72503401360544	61	127
94.56249433106576	94.64376417233561	69	127
94.56249433106576	94.66698412698413	58	127
94.64376417233561	94.73664399092971	70	127
94.73664399092971	94.8643537414966	71	127
94.73664399092971	94.91079365079365	66	127
94.73664399092971	94.91079365079365	63	127
94.91079365079365	95.03850340136054	58	127
95.0849433106576	95.45646258503402	61	127
95.0849433106576	95.21265306122449	46	127
95.0849433106576	95.2707029478458	70	127
95.0849433106576	95.45646258503402	65	127
95.2707029478458	95.3984126984127	58	127
95.2707029478458	95.3635827664399	69	127
95.3635827664399	95.45646258503402	70	127
95.45646258503402	95.64222222222222	63	127
95.45646258503402	95.58417233560091	72	127
95.45646258503402	95.64222222222222	66	127
95.65383219954649	95.76993197278911	58	127
95.8395918367347	96.16467120181406	61	127
95.8395918367347	95.9324716553288	46	127
95.8395918367347	95.99052154195012	70	127
95.8395918367347	96.16467120181406	65	127
96.00213151927437	96.10662131519274	58	127
96.00213151927437	96.07179138321996	69	127
96.07179138321996	96.16467120181406	70	127
96.16467120181406	96.25755102040816	51	127
96.16467120181406	96.25755102040816	71	127
96.16467120181406	96.25755102040816	66	127
96.16467120181406	96.25755102040816	54	127
96.30399092970522	96.42009070294785	51	127
96.30399092970522	96.42009070294785	71	127
96.30399092970522	96.42009070294785	63	127
96.30399092970522	96.42009070294785	54	127
96.47814058956916	96.60585034013606	70	127
96.47814058956916	96.60585034013606	53	127
96.47814058956916	96.60585034013606	53	127
96.47814058956916	96.60585034013606	61	127
96.60585034013606	96.71034013605443	65	127
96.60585034013606	96.71034013605443	69	127
96.60585034013606	96.71034013605443	60	127
96.60585034013606	96.71034013605443	53	127
96.78	96.89609977324263	65	127
96.78	96.89609977324263	70	127
96.78	96.89609977324263	61	127
96.78	96.89609977324263	46	127
97.13990929705216	97.49981859410431	61	127
97.13990929705216	97.17473922902494	73	127
97.13990929705216	97.26761904761905	46	127
97.13990929705216	97.49981859410431	65	127
97.17473922902494	97.221179138322	75	127
97.221179138322	97.26761904761905	73	127
97.26761904761905	97.3140589569161	75	127
97.3140589569161	97.37210884353742	73	127
97.3140589569161	97.45337868480726	56	127
97.37210884353742	97.44176870748299	72	127
97.44176870748299	97.49981859410431	73	127
97.49981859410431	97.61591836734694	66	127
97.49981859410431	97.59269841269841	75	127
97.49981859410431	97.61591836734694	60	127
97.61591836734694	97.80167800453515	66	127
97.61591836734694	97.7552380952381	87	127
97.61591836734694	97.7552380952381	56	127
97.61591836734694	97.80167800453515	75	127
97.80167800453515	98.17319727891156	61	127
97.80167800453515	97.87133786848072	73	127
97.80167800453515	97.9409977324263	44	127
97.80167800453515	98.17319727891156	65	127
97.87133786848072	97.92938775510204	75	127
97.92938775510204	97.99904761904762	73	127
97.99904761904762	98.12675736961451	80	127
97.99904761904762	98.12675736961451	56	127
98.18480725623583	98.37056689342404	72	127
98.18480725623583	98.32412698412699	78	127
98.18480725623583	98.37056689342404	63	127
98.37056689342404	98.55632653061224	75	127
98.37056689342404	98.50988662131519	90	127
98.37056689342404	98.50988662131519	56	127
98.37056689342404	98.55632653061224	72	127
98.55632653061224	98.89301587301587	61	127
98.55632653061224	98.61437641723356	73	127
98.55632653061224	98.68403628117913	44	127
98.55632653061224	98.89301587301587	65	127
98.61437641723356	98.67242630385488	75	127
98.67242630385488	98.7304761904762	73	127
98.7304761904762	98.8233560090703	72	127
98.7304761904762	98.85818594104309	56	127
98.8233560090703	98.89301587301587	73	127
98.89301587301587	99.06716553287981	66	127
98.89301587301587	99.02072562358276	75	127
98.89301587301587	99.06716553287981	60	127
99.07877551020408	99.25292517006802	66	127
99.07877551020408	99.20648526077098	87	127
99.07877551020408	99.20648526077098	56	127
99.07877551020408	99.25292517006802	75	127
99.2645351473923	99.58961451247166	61	127
99.2645351473923	99.3225850340136	73	127
99.2645351473923	99.39224489795919	44	127
99.2645351473923	99.58961451247166	65	127
99.3225850340136	99.38063492063492	75	127
99.38063492063492	99.43868480725624	73	127
99.43868480725624	99.57800453514739	80	127
99.43868480725624	99.57800453514739	56	127
99.58961451247166	99.7637641723356	72	127
99.58961451247166	99.71732426303855	78	127
99.58961451247166	99.7637641723356	63	127
99.7637641723356	99.94952380952381	75	127
99.7637641723356	99.90308390022676	90	127
99.7637641723356	99.90308390022676	44	127
99.7637641723356	99.94952380952381	72	127
99.94952380952381	100.32104308390022	61	127
99.94952380952381	100.01918367346939	70	127
99.94952380952381	100.08884353741496	46	127
99.94952380952381	100.32104308390022	65	127
100.01918367346939	100.0772335600907	72	127
100.0772335600907	100.13528344671202	70	127
100.13528344671202	100.22816326530612	69	127
100.13528344671202	100.27460317460317	58	127
100.22816326530612	100.33265306122449	70	127
100.33265306122449	100.49519274376418	63	127
100.33265306122449	100.44875283446711	71	127
100.33265306122449	100.49519274376418	66	127
100.50680272108843	100.63451247165533	58	127
100.69256235827665	100.8318820861678	46	127
100.69256235827665	100.75061224489797	70	127
100.69256235827665	101.0524716553288	61	127
100.69256235827665	101.0524716553288	65	127
100.75061224489797	100.82027210884354	72	127
100.82027210884354	100.87832199546486	70	127
100.87832199546486	101.01764172335601	58	127
100.87832199546486	100.97120181405896	69	127
100.97120181405896	101.0524716553288	70	127
101.0524716553288	101.16857142857143	72	127
101.0524716553288	101.21501133786848	66	127
101.0524716553288	101.21501133786848	63	127
101.21501133786848	101.35433106575964	58	127
101.40077097505669	101.74907029478459	65	127
101.40077097505669	101.47043083900226	70	127
101.40077097505669	101.52848072562358	46	127
101.40077097505669	101.74907029478459	61	127
101.47043083900226	101.51687074829933	72	127
101.51687074829933	101.5865306122449	70	127
101.5865306122449	101.679410430839	69	127
101.5865306122449	101.70263038548752	58	127
101.679410430839	101.76068027210884	70	127
101.76068027210884	101.88839002267574	71	127
101.76068027210884	101.88839002267574	66	127
101.76068027210884	101.88839002267574	54	127
101.76068027210884	101.88839002267574	51	127
101.93482993197279	102.03931972789115	71	127
101.93482993197279	102.03931972789115	63	127
101.93482993197279	102.03931972789115	54	127
101.93482993197279	102.03931972789115	51	127
102.0857596371882	102.23668934240362	53	127
102.0857596371882	102.23668934240362	53	127
102.0857596371882	102.28312925170069	70	127
102.0857596371882	102.28312925170069	61	127
102.28312925170069	102.39922902494331	65	127
102.28312925170069	102.39922902494331	69	127
102.28312925170069	102.39922902494331	60	127
102.28312925170069	102.39922902494331	53	127
102.45727891156463	102.59659863945578	46	127
102.45727891156463	102.59659863945578	65	127
102.45727891156463	102.59659863945578	70	127
102.45727891156463	102.59659863945578	61	127
102.85201814058956	103.36285714285714	61	127
102.85201814058956	102.99133786848073	58	127
102.85201814058956	103.02616780045352	53	127
103.02616780045352	103.15387755102041	46	127
103.02616780045352	103.11904761904762	51	127
103.11904761904762	103.20031746031746	53	127
103.20031746031746	103.33963718820861	54	127
103.36285714285714	103.43251700680273	63	127
103.36285714285714	103.47895691609978	39	127
103.44412698412698	103.52539682539683	61	127
103.52539682539683	103.6298866213152	44	127
103.52539682539683	103.66471655328799	51	127
103.52539682539683	103.98979591836735	60	127
103.67632653061224	103.79242630385488	56	127
103.67632653061224	103.75759637188209	49	127
103.75759637188209	103.83886621315193	51	127
103.83886621315193	103.95496598639455	53	127
103.98979591836735	104.09428571428572	49	127
103.98979591836735	104.08267573696145	61	127
104.08267573696145	104.14072562358277	60	127
104.14072562358277	104.72122448979592	58	127
104.14072562358277	104.26843537414966	54	127
104.14072562358277	104.31487528344671	49	127
104.32648526077098	104.4774149659864	42	127
104.32648526077098	104.43097505668935	48	127
104.43097505668935	104.52385487528345	49	127
104.52385487528345	104.67478458049887	42	127
104.52385487528345	104.67478458049887	51	127
104.73283446712018	104.86054421768708	51	127
104.73283446712018	104.86054421768708	42	127
104.73283446712018	104.90698412698413	60	127
104.91859410430838	105.11596371882086	57	127
104.91859410430838	105.11596371882086	53	127
104.91859410430838	105.11596371882086	41	127
105.71968253968254	105.87061224489796	42	127
105.71968253968254	105.92866213151927	49	127
105.71968253968254	106.36984126984127	58	127
105.92866213151927	106.09120181405896	42	127
105.92866213151927	106.03315192743764	48	127
106.03315192743764	106.14925170068027	49	127
106.14925170068027	106.31179138321995	42	127
106.14925170068027	106.31179138321995	51	127
106.38145124716553	106.55560090702947	42	127
106.38145124716553	106.55560090702947	51	127
106.38145124716553	106.62526077097506	60	127
106.62526077097506	106.86907029478458	57	127
106.62526077097506	106.86907029478458	53	127
106.62526077097506	106.86907029478458	41	127
107.61210884353741	107.7746485260771	54	127
107.61210884353741	107.84430839002268	73	127
107.61210884353741	107.94879818594104	82	127
107.85591836734694	107.91396825396825	66	127
107.85591836734694	107.91396825396825	72	127
107.9604081632653	108.1809977324263	75	127
107.9604081632653	108.1809977324263	66	127
107.9604081632653	108.26226757369615	84	127
108.26226757369615	108.58734693877551	77	127
108.26226757369615	108.58734693877551	69	127
108.26226757369615	108.58734693877551	81	127
108.26226757369615	108.58734693877551	65	127
109.52775510204081	109.66707482993198	42	127
109.52775510204081	109.72512471655328	73	127
109.52775510204081	110.06181405895691	70	127
109.52775510204081	110.06181405895691	58	127
109.87605442176871	109.96893424036281	72	127
109.87605442176871	110.00376417233561	54	127
109.96893424036281	110.07342403628118	73	127
110.07342403628118	110.21274376417233	75	127
110.07342403628118	110.21274376417233	70	127
110.07342403628118	110.21274376417233	58	127
110.07342403628118	110.21274376417233	42	127
110.27079365079365	110.41011337868481	77	127
110.27079365079365	110.41011337868481	60	127
110.27079365079365	110.41011337868481	65	127
110.27079365079365	110.41011337868481	57	127
110.27079365079365	110.41011337868481	41	127
110.47977324263039	110.70036281179138	70	127
110.47977324263039	110.70036281179138	58	127
110.47977324263039	110.70036281179138	65	127
110.47977324263039	110.70036281179138	58	127
110.47977324263039	110.70036281179138	46	127
117.65473922902494	117.70117913832199	70	127
