# onset,offset,note,velocity
0.034058956916099774	0.5681179138321996	49	127
0.034058956916099774	2.9017233560090703	70	127
0.034058956916099774	0.5681179138321996	49	127
1.7755555555555556	4.434240362811791	63	127
1.7755555555555556	4.434240362811791	60	127
2.9017233560090703	3.400952380952381	69	127
4.4458503401360545	5.409478458049887	66	127
4.4458503401360545	5.409478458049887	63	127
5.444308390022676	5.572018140589569	65	127
5.444308390022676	5.572018140589569	61	127
5.572018140589569	5.873877551020408	63	127
5.572018140589569	5.873877551020408	60	127
5.572018140589569	5.873877551020408	58	127
5.873877551020408	7.034875283446712	70	127
5.873877551020408	6.524036281179138	65	127
5.873877551020408	6.524036281179138	61	127
7.046485260770975	8.068163265306122	70	127
7.046485260770975	8.068163265306122	82	127
7.046485260770975	9.287210884353742	51	127
7.046485260770975	9.287210884353742	36	127
8.079773242630386	8.729931972789116	81	127
8.079773242630386	8.729931972789116	69	127
9.426530612244898	10.680408163265307	39	127
9.426530612244898	10.680408163265307	54	127
10.424965986394557	17.704444444444444	68	127
10.424965986394557	13.710612244897959	80	127
10.69201814058957	10.854557823129252	53	127
10.69201814058957	10.854557823129252	37	127
10.854557823129252	11.017097505668934	51	127
10.854557823129252	11.017097505668934	36	127
11.017097505668934	11.19124716553288	37	127
11.017097505668934	12.10843537414966	49	127
11.260907029478458	11.45827664399093	46	127
11.527936507936507	11.783356009070294	44	127
11.876235827664399	12.038775510204081	41	127
12.120045351473923	12.955963718820861	53	127
12.120045351473923	12.282585034013605	37	127
12.363854875283447	12.630884353741497	46	127
12.712154195011339	12.886303854875283	44	127
12.955963718820861	13.130113378684808	41	127
12.955963718820861	13.072063492063492	51	127
13.072063492063492	13.199773242630386	49	127
13.199773242630386	13.385532879818594	36	127
13.199773242630386	13.455192743764172	51	127
13.466802721088435	13.640952380952381	46	127
13.722222222222221	14.000861678004535	53	127
13.722222222222221	14.523310657596372	80	127
13.722222222222221	13.94281179138322	44	127
14.012471655328799	14.198231292517006	37	127
14.267891156462586	14.465260770975057	39	127
14.267891156462586	14.523310657596372	54	127
14.523310657596372	15.068979591836735	78	127
14.523310657596372	14.755510204081633	46	127
14.836780045351475	15.01092970521542	44	127
15.115419501133786	15.31278911564626	72	127
15.115419501133786	15.31278911564626	39	127
15.382448979591837	15.62625850340136	37	127
15.382448979591837	16.53183673469388	53	127
15.382448979591837	17.704444444444444	73	127
15.719138321995464	15.9281179138322	46	127
15.997777777777777	16.22997732426304	44	127
16.299637188208617	16.473786848072564	41	127
16.54344671201814	17.390975056689342	56	127
16.54344671201814	16.752426303854875	41	127
16.822086167800453	17.065895691609978	51	127
17.135555555555555	17.321315192743764	49	127
17.390975056689342	17.588344671201813	54	127
17.390975056689342	17.64639455782313	44	127
17.588344671201813	17.716054421768707	53	127
17.716054421768707	17.936643990929706	58	127
17.716054421768707	17.87859410430839	72	127
17.716054421768707	17.87859410430839	68	127
17.716054421768707	17.87859410430839	42	127
17.94825396825397	18.134013605442178	70	127
17.94825396825397	18.134013605442178	66	127
17.94825396825397	18.134013605442178	54	127
18.215283446712018	18.389433106575964	68	127
18.215283446712018	18.389433106575964	51	127
18.215283446712018	18.459092970521542	60	127
18.470702947845805	18.656462585034014	66	127
18.470702947845805	18.656462585034014	63	127
18.470702947845805	18.656462585034014	44	127
18.72612244897959	18.923492063492063	44	127
18.72612244897959	18.99315192743764	65	127
18.72612244897959	18.99315192743764	61	127
18.99315192743764	19.236961451247165	61	127
18.99315192743764	19.236961451247165	56	127
19.306621315192743	19.503968253968253	60	127
19.306621315192743	19.503968253968253	56	127
19.306621315192743	19.56204081632653	72	127
19.306621315192743	19.56204081632653	63	127
19.57362811791383	19.771020408163267	44	127
19.57362811791383	19.771020408163267	66	127
19.840680272108845	20.003219954648525	61	127
19.840680272108845	20.072879818594103	37	127
19.840680272108845	20.8275283446712	73	127
19.840680272108845	22.49936507936508	56	127
20.08448979591837	20.293469387755103	58	127
20.351519274376418	22.49936507936508	68	127
20.351519274376418	20.5256462585034	56	127
20.595328798185943	20.769478458049885	54	127
20.839115646258502	21.071337868480725	49	127
20.839115646258502	21.663424036281178	77	127
21.082947845804988	21.31514739229025	46	127
21.40800453514739	21.5821768707483	44	127
21.663424036281178	21.77954648526077	75	127
21.663424036281178	21.930476190476192	37	127
21.77954648526077	22.00013605442177	73	127
22.00013605442177	22.232312925170067	36	127
22.00013605442177	22.232312925170067	75	127
22.243945578231294	22.429705215419503	58	127
22.510975056689343	22.673514739229024	56	127
22.510975056689343	22.73156462585034	77	127
22.510975056689343	23.288843537414966	56	127
22.510975056689343	23.288843537414966	68	127
22.74315192743764	22.917324263038548	49	127
22.986984126984126	23.288843537414966	78	127
22.986984126984126	23.288843537414966	51	127
23.288843537414966	23.79968253968254	66	127
23.288843537414966	23.486213151927437	46	127
23.567460317460316	23.741632653061224	44	127
23.83451247165533	24.07832199546485	60	127
23.83451247165533	24.07832199546485	39	127
24.159591836734695	26.20294784580499	56	127
24.159591836734695	24.473061224489797	37	127
24.159591836734695	24.728480725623584	68	127
24.159591836734695	25.204489795918366	77	127
24.48467120181406	24.670430839002268	58	127
24.728480725623584	24.902630385487527	56	127
24.728480725623584	25.703718820861678	65	127
24.972290249433108	25.13482993197279	53	127
25.21609977324263	25.970748299319727	80	127
25.21609977324263	25.459909297052153	49	127
25.471519274376416	25.6340589569161	51	127
25.71532879818594	25.889478458049886	49	127
25.71532879818594	26.20294784580499	65	127
25.970748299319727	26.086848072562358	78	127
25.970748299319727	26.144897959183673	44	127
26.086848072562358	26.21455782312925	77	127
26.21455782312925	26.458367346938775	82	127
26.21455782312925	26.458367346938775	58	127
26.21455782312925	26.458367346938775	42	127
26.469977324263038	26.632517006802722	65	127
26.7021768707483	26.88793650793651	63	127
26.7021768707483	26.945986394557824	84	127
26.7021768707483	26.945986394557824	66	127
26.957596371882087	27.131746031746033	56	127
27.20140589569161	27.43360544217687	85	127
27.20140589569161	27.43360544217687	65	127
27.20140589569161	27.43360544217687	58	127
27.445215419501135	27.61936507936508	58	127
27.73546485260771	27.95605442176871	56	127
27.73546485260771	27.95605442176871	60	127
27.73546485260771	28.025714285714287	87	127
27.73546485260771	28.025714285714287	48	127
28.03732426303855	28.26952380952381	48	127
28.03732426303855	28.26952380952381	63	127
28.374013605442176	28.594603174603176	46	127
28.374013605442176	28.88485260770975	65	127
28.374013605442176	28.88485260770975	49	127
28.374013605442176	29.128662131519274	89	127
28.664263038548754	28.826802721088434	56	127
28.896462585034012	29.894920634920634	67	127
28.896462585034012	29.07061224489796	55	127
28.896462585034012	29.894920634920634	58	127
29.128662131519274	29.337641723356008	46	127
29.128662131519274	29.279591836734692	87	127
29.279591836734692	29.40730158730159	85	127
29.40730158730159	29.581451247165532	48	127
29.40730158730159	29.639501133786847	87	127
29.662721088435376	29.83687074829932	53	127
29.906530612244897	30.463809523809523	68	127
29.906530612244897	30.127120181405896	51	127
29.906530612244897	30.196780045351474	80	127
29.906530612244897	30.463809523809523	60	127
30.208390022675736	30.405759637188208	48	127
30.463809523809523	30.63795918367347	46	127
30.463809523809523	30.963038548752834	65	127
30.463809523809523	30.963038548752834	49	127
30.463809523809523	31.253287981859412	77	127
30.730839002267572	30.893378684807256	56	127
30.974648526077097	31.160408163265306	55	127
30.974648526077097	31.996326530612244	67	127
30.974648526077097	31.996326530612244	58	127
31.264897959183674	31.380997732426305	75	127
31.264897959183674	31.427437641723355	46	127
31.380997732426305	31.5087074829932	73	127
31.5087074829932	31.740907029478457	75	127
31.5087074829932	31.67124716553288	48	127
31.740907029478457	31.93827664399093	53	127
32.007936507936506	32.170476190476194	51	127
32.007936507936506	32.46072562358277	68	127
32.007936507936506	33.00639455782313	68	127
32.007936507936506	32.46072562358277	60	127
32.24013605442177	32.40267573696145	48	127
32.47233560090703	32.68131519274377	46	127
32.47233560090703	33.00639455782313	53	127
32.47233560090703	33.261814058956915	89	127
32.762585034013604	32.948344671201816	56	127
33.01800453514739	33.2037641723356	55	127
33.01800453514739	34.03968253968254	55	127
33.01800453514739	33.54045351473923	70	127
33.261814058956915	33.38952380952381	87	127
33.261814058956915	33.435963718820865	46	127
33.38952380952381	33.55204081632653	85	127
33.55204081632653	33.79587301587301	87	127
33.55204081632653	33.72621315192744	48	127
33.55204081632653	33.79587301587301	63	127
33.80746031746032	33.981632653061226	53	127
34.0512925170068	34.2718820861678	92	127
34.0512925170068	34.21383219954649	51	127
34.0512925170068	34.2718820861678	60	127
34.0512925170068	34.2718820861678	56	127
34.28349206349206	34.45764172335601	48	127
34.562108843537416	34.747891156462586	49	127
34.562108843537416	34.8059410430839	82	127
34.562108843537416	34.8059410430839	58	127
34.562108843537416	34.8059410430839	56	127
34.8175283446712	34.99170068027211	53	127
35.07294784580499	35.2471201814059	51	127
35.07294784580499	35.30517006802721	87	127
35.07294784580499	35.30517006802721	58	127
35.07294784580499	35.30517006802721	55	127
35.31678004535147	35.502539682539684	39	127
35.57219954648526	35.80439909297052	59	127
35.57219954648526	35.80439909297052	80	127
35.57219954648526	35.74634920634921	44	127
35.57219954648526	35.80439909297052	51	127
35.81600907029478	35.97854875283447	56	127
36.048208616780045	36.23396825396826	50	127
36.048208616780045	36.29201814058957	82	127
36.048208616780045	36.29201814058957	58	127
36.048208616780045	36.29201814058957	53	127
36.30362811791383	36.489387755102044	38	127
36.55904761904762	36.768027210884355	39	127
36.55904761904762	36.83768707482993	78	127
36.55904761904762	36.83768707482993	58	127
36.55904761904762	36.83768707482993	54	127
36.849274376417235	37.02344671201814	54	127
37.093106575963716	37.255646258503404	48	127
37.093106575963716	37.313696145124716	80	127
37.093106575963716	37.313696145124716	56	127
37.093106575963716	37.313696145124716	51	127
37.32530612244898	37.49945578231293	36	127
37.5691156462585	37.74324263038549	37	127
37.5691156462585	37.87095238095238	77	127
37.5691156462585	37.87095238095238	56	127
37.5691156462585	37.87095238095238	53	127
37.88258503401361	38.09156462585034	56	127
38.16122448979592	38.405034013605444	85	127
38.16122448979592	38.346984126984125	53	127
38.16122448979592	38.405034013605444	68	127
38.16122448979592	38.405034013605444	53	127
38.16122448979592	38.405034013605444	56	127
38.41664399092971	38.71850340136054	41	127
38.788163265306125	39.171292517006805	42	127
38.788163265306125	39.24095238095238	75	127
38.788163265306125	39.24095238095238	66	127
38.788163265306125	39.24095238095238	58	127
39.25256235827664	39.42671201814059	58	127
39.496371882086166	40.08848072562358	46	127
39.496371882086166	40.14650793650794	80	127
39.496371882086166	40.14650793650794	63	127
39.496371882086166	40.14650793650794	60	127
40.158140589569165	41.133378684807255	44	127
42.770385487528344	43.08385487528345	73	127
42.770385487528344	43.08385487528345	65	127
42.770385487528344	43.08385487528345	56	127
42.770385487528344	43.606303854875286	49	127
45.23167800453515	45.452290249433105	75	127
45.69609977324263	45.84702947845805	84	127
45.84702947845805	46.706167800453514	84	127
45.84702947845805	45.88185941043084	65	127
45.88185941043084	46.009569160997735	63	127
46.009569160997735	46.172108843537416	62	127
46.24174603174603	46.40430839002268	63	127
46.47396825396825	46.6481179138322	68	127
46.706167800453514	46.891927437641726	51	127
46.706167800453514	46.78743764172336	73	127
46.706167800453514	46.891927437641726	68	127
46.78743764172336	46.9615873015873	72	127
46.9615873015873	47.124104308390024	70	127
46.9615873015873	47.124104308390024	67	127
46.9615873015873	47.124104308390024	61	127
47.21700680272109	47.39115646258504	72	127
47.21700680272109	47.39115646258504	68	127
47.21700680272109	47.39115646258504	60	127
47.46081632653061	47.62335600907029	75	127
47.46081632653061	47.62335600907029	72	127
47.46081632653061	47.62335600907029	56	127
47.693015873015874	47.77428571428572	41	127
47.693015873015874	47.94843537414966	73	127
47.693015873015874	47.94843537414966	67	127
47.693015873015874	47.94843537414966	58	127
47.77428571428572	47.94843537414966	39	127
47.94843537414966	48.22707482993197	38	127
48.29673469387755	48.470884353741496	39	127
48.29673469387755	48.54054421768708	73	127
48.29673469387755	48.54054421768708	63	127
48.29673469387755	48.54054421768708	58	127
48.55215419501134	48.71469387755102	43	127
48.784353741496595	48.86562358276644	58	127
48.784353741496595	49.02816326530612	72	127
48.784353741496595	49.02816326530612	63	127
48.784353741496595	49.02816326530612	44	127
48.86562358276644	49.03977324263039	56	127
49.03977324263039	49.23714285714286	55	127
49.30680272108844	49.48095238095238	56	127
49.55061224489796	49.80603174603175	60	127
49.887301587301586	49.991791383219955	73	127
49.887301587301586	50.827709750566896	80	127
49.991791383219955	50.14272108843537	72	127
50.14272108843537	50.31687074829932	70	127
50.3865306122449	50.537460317460315	72	127
50.6071201814059	50.76965986394558	75	127
50.83931972789116	50.920589569160995	61	127
50.83931972789116	50.89736961451247	82	127
50.83931972789116	50.920589569160995	55	127
50.89736961451247	51.094739229024945	80	127
50.920589569160995	51.094739229024945	60	127
50.920589569160995	51.094739229024945	56	127
51.094739229024945	51.28049886621315	79	127
51.094739229024945	51.28049886621315	61	127
51.094739229024945	51.28049886621315	58	127
51.361768707482995	51.570748299319725	80	127
51.361768707482995	51.570748299319725	60	127
51.361768707482995	51.570748299319725	56	127
51.640408163265306	51.80294784580499	84	127
51.640408163265306	51.80294784580499	68	127
51.640408163265306	51.80294784580499	48	127
51.87260770975057	51.94226757369614	65	127
51.87260770975057	52.09319727891157	82	127
51.87260770975057	52.09319727891157	67	127
51.87260770975057	52.09319727891157	49	127
51.94226757369614	52.13963718820862	63	127
52.13963718820862	52.3021768707483	62	127
52.37183673469388	52.59242630385488	82	127
52.37183673469388	52.53437641723356	63	127
52.37183673469388	52.59242630385488	67	127
52.37183673469388	52.59242630385488	49	127
52.60403628117914	52.789795918367346	67	127
52.847845804988665	53.02199546485261	63	127
52.847845804988665	53.02199546485261	48	127
52.847845804988665	53.08004535147392	80	127
52.847845804988665	53.08004535147392	68	127
53.09165532879818	53.26580498866213	67	127
53.09165532879818	53.26580498866213	58	127
53.33546485260771	53.50961451247166	68	127
53.33546485260771	53.50961451247166	60	127
53.57927437641723	53.765034013605444	72	127
53.57927437641723	53.765034013605444	63	127
53.84630385487528	53.9043537414966	42	127
53.84630385487528	54.05528344671202	84	127
53.84630385487528	54.05528344671202	72	127
53.84630385487528	54.05528344671202	63	127
53.9043537414966	53.997233560090706	41	127
54.06689342403628	54.28748299319728	40	127
54.39197278911565	54.589342403628116	41	127
54.39197278911565	54.6590022675737	84	127
54.39197278911565	54.6590022675737	65	127
54.39197278911565	54.6590022675737	63	127
54.67061224489796	54.8447619047619	45	127
54.90281179138322	54.98408163265306	63	127
54.90281179138322	54.98408163265306	66	127
54.90281179138322	55.146621315192746	82	127
54.90281179138322	55.146621315192746	46	127
54.98408163265306	55.08857142857143	65	127
54.98408163265306	55.08857142857143	61	127
55.15823129251701	55.33238095238095	64	127
55.15823129251701	55.33238095238095	61	127
55.40204081632653	55.576190476190476	65	127
55.40204081632653	55.576190476190476	61	127
55.65746031746032	55.843219954648525	70	127
55.65746031746032	55.843219954648525	61	127
55.92448979591837	56.14507936507937	87	127
55.92448979591837	56.14507936507937	75	127
55.92448979591837	56.14507936507937	48	127
55.92448979591837	56.14507936507937	44	127
56.42371882086168	56.65591836734694	78	127
56.42371882086168	56.65591836734694	63	127
56.42371882086168	56.65591836734694	60	127
56.42371882086168	56.65591836734694	56	127
57.17836734693878	57.49183673469388	36	127
57.49183673469388	57.63115646258503	37	127
57.63115646258503	57.80530612244898	39	127
57.89818594104308	58.07233560090703	36	127
58.141995464852606	59.03596371882086	41	127
59.04757369614512	59.44231292517007	46	127
59.453922902494334	60.34789115646259	39	127
60.34789115646259	60.58009070294784	44	127
60.59170068027211	60.812290249433104	49	127
61.05609977324263	61.311519274376415	51	127
61.05609977324263	61.311519274376415	43	127
61.578548752834465	61.915238095238095	44	127
61.578548752834465	61.915238095238095	48	127
61.915238095238095	62.05455782312925	72	127
62.05455782312925	62.17065759637188	73	127
62.17065759637188	62.344807256235825	75	127
62.17065759637188	62.402857142857144	36	127
62.414467120181406	62.62344671201814	72	127
62.69310657596372	63.42453514739229	77	127
63.169115646258504	63.30843537414966	63	127
63.169115646258504	64.26045351473923	70	127
63.30843537414966	63.43614512471655	61	127
63.43614512471655	63.62190476190476	49	127
63.43614512471655	63.73800453514739	82	127
63.62190476190476	63.74961451247165	53	127
63.74961451247165	64.02825396825396	48	127
63.74961451247165	64.50426303854876	75	127
64.2720634920635	64.38816326530612	61	127
64.2720634920635	64.81770975056689	68	127
64.38816326530612	64.50426303854876	60	127
64.50426303854876	64.66680272108843	48	127
64.50426303854876	64.81770975056689	80	127
64.66680272108843	64.82934240362812	51	127
64.82934240362812	64.91061224489796	53	127
64.82934240362812	65.14281179138322	37	127
64.91061224489796	64.9918820861678	51	127
64.9918820861678	65.15442176870748	53	127
65.15442176870748	65.23569160997732	51	127
65.23569160997732	65.32854875283446	53	127
65.32854875283446	65.40984126984127	51	127
65.40984126984127	65.49111111111111	53	127
65.40984126984127	65.64204081632653	39	127
65.49111111111111	65.56074829931973	51	127
65.56074829931973	65.6536507936508	53	127
65.6536507936508	65.7465306122449	51	127
65.7465306122449	65.85102040816327	50	127
65.85102040816327	65.92068027210884	51	127
65.93229024943311	66.04839002267573	58	127
65.93229024943311	66.1992970521542	36	127
66.04839002267573	66.12965986394558	56	127
66.12965986394558	66.1992970521542	58	127
66.1992970521542	66.32700680272109	68	127
66.1992970521542	66.280589569161	56	127
66.280589569161	66.36185941043084	58	127
66.32700680272109	66.44312925170068	70	127
66.36185941043084	66.44312925170068	56	127
66.44312925170068	66.65210884353742	39	127
66.44312925170068	66.51278911564626	58	127
66.44312925170068	66.6056462585034	72	127
66.51278911564626	66.5940589569161	56	127
66.5940589569161	66.66371882086167	58	127
66.66371882086167	66.75659863945579	56	127
66.66371882086167	66.83784580498866	68	127
66.75659863945579	66.82625850340136	55	127
66.82625850340136	66.89591836734694	56	127
66.95396825396826	67.17455782312925	55	127
66.95396825396826	67.23260770975057	70	127
66.95396825396826	67.23260770975057	37	127
67.24421768707484	67.36031746031746	58	127
67.36031746031746	67.48802721088435	60	127
67.48802721088435	67.70861678004535	63	127
67.48802721088435	67.70861678004535	43	127
67.48802721088435	67.65056689342404	61	127
67.72022675736962	67.8827664399093	58	127
67.95242630385488	68.20784580498866	63	127
67.95242630385488	68.20784580498866	60	127
67.95242630385488	68.20784580498866	44	127
68.45165532879818	68.84639455782313	48	127
68.45165532879818	68.84639455782313	75	127
68.45165532879818	68.84639455782313	63	127
68.45165532879818	68.84639455782313	56	127
68.84639455782313	68.97410430839003	43	127
68.97410430839003	69.10181405895692	44	127
69.10181405895692	69.18308390022676	53	127
69.10181405895692	69.27596371882086	46	127
69.10181405895692	69.33401360544218	73	127
69.18308390022676	69.26433106575963	51	127
69.26433106575963	69.34562358276644	53	127
69.34562358276644	69.41528344671202	51	127
69.34562358276644	69.46172335600907	43	127
69.41528344671202	69.4965306122449	53	127
69.46172335600907	69.5778231292517	44	127
69.4965306122449	69.5778231292517	51	127
69.5778231292517	69.76358276643991	46	127
69.5778231292517	69.65909297052154	53	127
69.5778231292517	69.82163265306123	75	127
69.65909297052154	69.74036281179139	51	127
69.74036281179139	69.83324263038548	53	127
69.83324263038548	69.96095238095238	51	127
69.83324263038548	70.04222222222222	43	127
69.96095238095238	70.04222222222222	50	127
70.04222222222222	70.1118820861678	51	127
70.12349206349207	70.20476190476191	65	127
70.12349206349207	70.37891156462585	51	127
70.12349206349207	70.37891156462585	44	127
70.12349206349207	70.37891156462585	72	127
70.20476190476191	70.28600907029478	63	127
70.28600907029478	70.37891156462585	65	127
70.37891156462585	70.4601814058957	63	127
70.4601814058957	70.54145124716554	65	127
70.54145124716554	70.63433106575964	63	127
70.63433106575964	70.87814058956916	75	127
70.63433106575964	70.87814058956916	60	127
70.63433106575964	70.71560090702948	65	127
70.63433106575964	70.87814058956916	39	127
70.71560090702948	70.79687074829933	63	127
70.79687074829933	70.88975056689343	65	127
70.88975056689343	70.97102040816327	63	127
70.97102040816327	71.05229024943311	62	127
71.05229024943311	71.12195011337869	63	127
71.13356009070294	71.3077097505669	46	127
71.13356009070294	71.4121768707483	73	127
71.13356009070294	71.4121768707483	61	127
71.13356009070294	71.4121768707483	51	127
71.19160997732426	71.47024943310657	63	127
71.42380952380952	71.55151927437642	58	127
71.55151927437642	71.67922902494331	60	127
71.67922902494331	71.91142857142857	63	127
71.67922902494331	71.91142857142857	79	127
71.67922902494331	71.85337868480725	58	127
71.67922902494331	71.85337868480725	61	127
71.73727891156463	71.98108843537415	75	127
71.92301587301587	72.10879818594104	61	127
71.92301587301587	72.10879818594104	58	127
72.17843537414966	72.45709750566894	56	127
72.17843537414966	72.45709750566894	80	127
72.17843537414966	72.45709750566894	60	127
72.17843537414966	72.45709750566894	60	127
72.27133786848073	72.52675736961451	72	127
72.73573696145125	74.52367346938776	55	127
72.73573696145125	75.02290249433106	40	127
72.73573696145125	73.51360544217687	84	127
72.73573696145125	74.52367346938776	48	127
72.73573696145125	74.03605442176871	67	127
72.73573696145125	74.03605442176871	72	127
73.52521541950114	73.71095238095238	84	127
73.79224489795918	73.97800453514739	79	127
74.03605442176871	74.21020408163265	72	127
74.30308390022675	74.52367346938776	67	127
74.53528344671201	74.72104308390023	79	127
74.53528344671201	74.72104308390023	60	127
74.7907029478458	74.96482993197279	55	127
75.03451247165533	75.197052154195	48	127
75.03451247165533	75.15061224489796	81	127
75.03451247165533	75.197052154195	67	127
75.03451247165533	75.197052154195	52	127
75.03451247165533	75.197052154195	55	127
75.15061224489796	75.2667120181406	82	127
75.27832199546485	75.47566893424036	64	127
75.27832199546485	75.47566893424036	82	127
75.27832199546485	75.47566893424036	36	127
75.27832199546485	75.53374149659864	52	127
75.27832199546485	75.53374149659864	55	127
75.5453514739229	75.70789115646258	70	127
75.5453514739229	75.70789115646258	65	127
75.5453514739229	75.70789115646258	50	127
75.77755102040817	75.94009070294784	48	127
75.77755102040817	75.94009070294784	70	127
75.77755102040817	75.94009070294784	67	127
76.00975056689343	76.2071201814059	60	127
76.00975056689343	76.2071201814059	52	127
76.00975056689343	76.16068027210885	70	127
76.16068027210885	76.3	72	127
76.3	76.76439909297052	69	127
76.3	76.46253968253968	60	127
76.3	76.46253968253968	53	127
76.53219954648526	76.7063492063492	72	127
76.53219954648526	76.7063492063492	50	127
76.53219954648526	76.7063492063492	58	127
76.76439909297052	76.96176870748299	48	127
76.76439909297052	76.96176870748299	72	127
76.76439909297052	76.96176870748299	57	127
77.06625850340136	77.26360544217687	53	127
77.06625850340136	77.21718820861678	72	127
77.06625850340136	77.26360544217687	69	127
77.21718820861678	77.33328798185941	74	127
77.33328798185941	77.50743764172336	64	127
77.33328798185941	77.50743764172336	70	127
77.33328798185941	77.50743764172336	55	127
77.57709750566893	77.77446712018141	67	127
77.57709750566893	77.77446712018141	82	127
77.57709750566893	77.77446712018141	55	127
77.57709750566893	77.77446712018141	50	127
77.84412698412699	78.01827664399093	67	127
77.84412698412699	78.01827664399093	82	127
77.84412698412699	78.01827664399093	55	127
77.84412698412699	78.01827664399093	48	127
78.07632653061225	78.26206349206349	60	127
78.07632653061225	78.20403628117914	82	127
78.07632653061225	78.20403628117914	67	127
78.07632653061225	78.26206349206349	52	127
78.20403628117914	78.33174603174604	84	127
78.20403628117914	78.33174603174604	69	127
78.33174603174604	78.50589569160998	81	127
78.33174603174604	78.50589569160998	60	127
78.33174603174604	78.50589569160998	65	127
78.33174603174604	78.50589569160998	53	127
78.57555555555555	78.77290249433106	50	127
78.57555555555555	78.77290249433106	65	127
78.57555555555555	78.77290249433106	82	127
78.57555555555555	78.77290249433106	53	127
78.84258503401361	79.00512471655328	48	127
78.84258503401361	79.00512471655328	82	127
78.84258503401361	79.00512471655328	64	127
78.84258503401361	79.00512471655328	55	127
79.07478458049887	79.23732426303854	48	127
79.07478458049887	79.1908843537415	82	127
79.07478458049887	79.23732426303854	67	127
79.07478458049887	79.23732426303854	40	127
79.1908843537415	79.30698412698413	84	127
79.30698412698413	79.48113378684808	81	127
79.30698412698413	79.48113378684808	69	127
79.30698412698413	79.48113378684808	60	127
79.30698412698413	79.48113378684808	41	127
79.55079365079365	79.71333333333334	79	127
79.55079365079365	79.71333333333334	64	127
79.55079365079365	79.71333333333334	58	127
79.55079365079365	79.71333333333334	43	127
79.78299319727891	79.9455328798186	57	127
79.78299319727891	79.9455328798186	77	127
79.78299319727891	79.9455328798186	65	127
79.78299319727891	79.9455328798186	45	127
80.01519274376417	80.18934240362812	61	127
80.01519274376417	80.18934240362812	76	127
80.01519274376417	80.18934240362812	55	127
80.01519274376417	80.18934240362812	46	127
80.27061224489796	80.54925170068027	60	127
80.27061224489796	80.54925170068027	54	127
80.27061224489796	80.54925170068027	75	127
80.27061224489796	80.54925170068027	46	127
80.61891156462585	80.82789115646258	74	127
80.61891156462585	80.82789115646258	55	127
80.61891156462585	80.82789115646258	53	127
80.61891156462585	80.82789115646258	47	127
80.89755102040816	81.11814058956917	72	127
80.89755102040816	81.11814058956917	55	127
80.89755102040816	81.11814058956917	52	127
80.89755102040816	81.11814058956917	48	127
81.18780045351474	81.47804988662132	55	127
81.18780045351474	81.47804988662132	64	127
81.18780045351474	81.47804988662132	60	127
81.18780045351474	81.47804988662132	48	127
81.60575963718821	83.9974149659864	73	127
84.00902494331066	85.07714285714286	72	127
84.00902494331066	84.17156462585034	60	127
84.24120181405895	84.4037641723356	69	127
84.47340136054422	85.07714285714286	48	127
84.47340136054422	84.70562358276644	67	127
84.79850340136055	85.01909297052154	60	127
85.07714285714286	86.05238095238096	67	127
85.07714285714286	85.2512925170068	60	127
85.07714285714286	85.79696145124717	76	127
85.32095238095238	85.48349206349206	69	127
85.55315192743764	85.71569160997733	67	127
85.55315192743764	86.05238095238096	48	127
85.80857142857143	85.92467120181406	74	127
85.80857142857143	85.97111111111111	60	127
85.92467120181406	86.06399092970521	72	127
86.06399092970521	86.24975056689343	55	127
86.06399092970521	86.80702947845805	71	127
86.06399092970521	86.319410430839	74	127
86.319410430839	86.49353741496599	69	127
86.56321995464853	86.80702947845805	76	127
86.56321995464853	86.74895691609977	67	127
86.56321995464853	87.06244897959184	43	127
86.81863945578232	87.00437641723356	55	127
86.81863945578232	86.95795918367347	69	127
86.95795918367347	87.0740589569161	67	127
87.0740589569161	87.32947845804989	77	127
87.0740589569161	87.27142857142857	55	127
87.0740589569161	87.32947845804989	69	127
87.35269841269842	87.53843537414966	67	127
87.6081179138322	87.78226757369615	65	127
87.6081179138322	87.84031746031746	71	127
87.6081179138322	88.08412698412698	43	127
87.84031746031746	88.0260544217687	55	127
88.09573696145125	89.04773242630385	76	127
88.09573696145125	88.2698866213152	55	127
88.09573696145125	88.32793650793651	72	127
88.33954648526077	88.50208616780046	62	127
88.51369614512471	88.57174603174603	47	127
88.57174603174603	88.73428571428572	60	127
88.57174603174603	88.79231292517007	74	127
88.57174603174603	89.04773242630385	48	127
88.80394557823129	88.97809523809524	55	127
89.04773242630385	89.24512471655329	76	127
89.04773242630385	89.84884353741496	79	127
89.04773242630385	90.08104308390023	48	127
89.32639455782314	89.48893424036281	74	127
89.50054421768708	89.57020408163265	38	127
89.57020408163265	90.08104308390023	36	127
89.57020408163265	89.77918367346939	72	127
89.86045351473923	90.02299319727891	60	127
89.86045351473923	89.97655328798186	77	127
89.97655328798186	90.0926530612245	76	127
90.0926530612245	90.2784126984127	60	127
90.0926530612245	90.83566893424036	81	127
90.0926530612245	90.83566893424036	53	127
90.34807256235828	90.52222222222223	74	127
90.53383219954648	90.5918820861678	47	127
90.5918820861678	90.76603174603174	72	127
90.5918820861678	91.07950113378685	48	127
90.84730158730159	90.96337868480725	52	127
90.84730158730159	91.00984126984127	60	127
90.84730158730159	90.96337868480725	79	127
90.96337868480725	91.09108843537415	77	127
90.96337868480725	91.09108843537415	50	127
91.09108843537415	91.75287981859411	82	127
91.09108843537415	91.26526077097506	60	127
91.09108843537415	91.75287981859411	55	127
91.33492063492064	91.42780045351473	74	127
91.439410430839	91.50907029478458	59	127
91.50907029478458	91.69482993197279	72	127
91.50907029478458	92.04312925170068	60	127
91.76448979591837	91.91541950113378	53	127
91.76448979591837	91.9734693877551	60	127
91.76448979591837	91.91541950113378	81	127
91.91541950113378	92.0663492063492	52	127
91.91541950113378	92.0663492063492	79	127
92.0663492063492	92.29854875283446	57	127
92.0663492063492	93.32022675736961	84	127
92.0663492063492	92.29854875283446	60	127
92.0663492063492	93.06480725623582	41	127
92.43786848072563	92.542358276644	72	127
92.55396825396825	92.79777777777778	58	127
92.55396825396825	92.79777777777778	72	127
92.9487074829932	93.06480725623582	72	127
93.0764172335601	93.32022675736961	60	127
93.0764172335601	93.58725623582767	65	127
93.0764172335601	93.86589569160998	45	127
93.47113378684807	93.58725623582767	84	127
93.59884353741496	93.86589569160998	84	127
93.87748299319728	94.06326530612245	43	127
94.06326530612245	94.24902494331066	41	127
94.06326530612245	94.23739229024943	84	127
94.24902494331066	94.49281179138322	43	127
94.24902494331066	94.748231292517	76	127
94.63215419501134	94.748231292517	72	127
94.75986394557823	94.9920634920635	72	127
94.75986394557823	94.9920634920635	45	127
95.13138321995464	95.24748299319728	72	127
95.25909297052154	95.50290249433107	67	127
95.25909297052154	95.50290249433107	46	127
95.25909297052154	95.50290249433107	60	127
95.25909297052154	95.74671201814058	64	127
95.63061224489796	95.74671201814058	84	127
95.75832199546485	96.00213151927437	84	127
95.75832199546485	96.00213151927437	60	127
95.75832199546485	96.00213151927437	69	127
96.12984126984126	96.2459410430839	84	127
96.25755102040816	96.50136054421769	46	127
96.25755102040816	96.7451700680272	85	127
96.25755102040816	96.7451700680272	70	127
96.62907029478458	96.7451700680272	73	127
96.75678004535148	97.01219954648526	48	127
96.75678004535148	97.01219954648526	73	127
97.13990929705216	97.2792290249433	73	127
97.29083900226757	97.55786848072562	49	127
97.29083900226757	97.55786848072562	61	127
97.29083900226757	97.80167800453515	58	127
97.68557823129251	97.80167800453515	85	127
97.8132879818594	98.05709750566893	63	127
97.8132879818594	98.05709750566893	85	127
98.18480725623583	98.2892970521542	85	127
98.30090702947845	98.55632653061224	65	127
98.30090702947845	98.55632653061224	49	127
98.30090702947845	99.27614512471655	85	127
98.66081632653061	98.76530612244898	73	127
98.66081632653061	98.76530612244898	65	127
98.77691609977325	99.02072562358276	65	127
98.77691609977325	99.02072562358276	51	127
98.77691609977325	99.02072562358276	73	127
99.16004535147393	99.27614512471655	73	127
99.16004535147393	99.27614512471655	65	127
99.27614512471655	99.53156462585034	73	127
99.27614512471655	99.53156462585034	68	127
99.27614512471655	99.53156462585034	53	127
99.68249433106575	99.84503401360544	85	127
99.68249433106575	99.84503401360544	61	127
99.68249433106575	99.84503401360544	68	127
99.68249433106575	99.84503401360544	70	127
99.68249433106575	99.84503401360544	41	127
99.85664399092971	100.12367346938775	85	127
99.85664399092971	100.12367346938775	61	127
99.85664399092971	100.12367346938775	68	127
99.85664399092971	100.12367346938775	70	127
99.85664399092971	100.12367346938775	53	127
100.28621315192744	100.42553287981859	80	127
100.28621315192744	100.42553287981859	61	127
100.28621315192744	100.42553287981859	68	127
100.28621315192744	100.42553287981859	70	127
100.28621315192744	100.42553287981859	53	127
100.44875283446711	100.7041723356009	68	127
100.44875283446711	100.62290249433107	87	127
100.44875283446711	100.7041723356009	56	127
100.44875283446711	100.7041723356009	51	127
100.71578231292517	100.87832199546486	84	127
100.93637188208616	101.12213151927438	80	127
100.93637188208616	101.1801814058957	60	127
100.93637188208616	101.1801814058957	68	127
100.93637188208616	101.72585034013605	51	127
101.1801814058957	101.41238095238096	87	127
101.49365079365079	102.45727891156463	85	127
101.49365079365079	102.2134693877551	67	127
101.49365079365079	102.2134693877551	58	127
101.73746031746032	101.9	41	127
101.98126984126984	102.15541950113379	39	127
102.22507936507937	102.45727891156463	70	127
102.22507936507937	102.38761904761905	43	127
102.22507936507937	102.45727891156463	51	127
102.45727891156463	102.68947845804989	68	127
102.45727891156463	102.68947845804989	51	127
102.45727891156463	102.68947845804989	44	127
102.45727891156463	102.63142857142857	84	127
102.70108843537415	102.86362811791383	80	127
102.94489795918368	103.8156462585034	51	127
102.94489795918368	103.22353741496599	75	127
102.94489795918368	103.28158730158731	60	127
102.94489795918368	103.28158730158731	56	127
103.29319727891156	103.44412698412698	84	127
103.52539682539683	104.52385487528345	61	127
103.52539682539683	104.52385487528345	82	127
103.52539682539683	104.29165532879819	55	127
103.82725623582766	104.0014058956916	41	127
104.0710657596372	104.23360544217687	39	127
104.30326530612246	104.46580498866213	43	127
104.30326530612246	104.52385487528345	51	127
104.5354648526077	104.69800453514739	51	127
104.5354648526077	104.69800453514739	44	127
104.5354648526077	105.04630385487529	80	127
104.5354648526077	104.69800453514739	60	127
104.77927437641723	104.96503401360545	51	127
104.77927437641723	104.96503401360545	48	127
104.77927437641723	104.96503401360545	68	127
105.05791383219955	105.25528344671201	44	127
105.05791383219955	105.25528344671201	63	127
105.05791383219955	105.25528344671201	51	127
105.05791383219955	105.84739229024943	87	127
105.31333333333333	105.53392290249433	51	127
105.31333333333333	105.53392290249433	51	127
105.31333333333333	105.53392290249433	72	127
105.62680272108844	106.59043083900227	70	127
105.62680272108844	106.59043083900227	51	127
105.62680272108844	106.59043083900227	49	127
105.8590022675737	106.02154195011337	77	127
106.09120181405896	106.27696145124716	75	127
106.34662131519275	106.52077097505669	77	127
106.59043083900227	106.77619047619048	51	127
106.59043083900227	106.77619047619048	80	127
106.59043083900227	106.77619047619048	68	127
106.59043083900227	106.77619047619048	48	127
106.85746031746032	107.06643990929705	51	127
106.85746031746032	107.06643990929705	80	127
106.85746031746032	107.06643990929705	72	127
106.85746031746032	107.06643990929705	41	127
107.13609977324263	107.3334693877551	39	127
107.13609977324263	107.39151927437642	82	127
107.13609977324263	107.39151927437642	73	127
107.13609977324263	107.39151927437642	51	127
107.40312925170068	107.60049886621316	43	127
107.67015873015873	107.8675283446712	51	127
107.67015873015873	107.8675283446712	80	127
107.67015873015873	107.8675283446712	72	127
107.67015873015873	107.8675283446712	44	127
107.94879818594104	108.13455782312926	68	127
107.94879818594104	108.13455782312926	75	127
107.94879818594104	108.13455782312926	51	127
107.94879818594104	108.13455782312926	48	127
108.21582766439909	108.77310657596372	49	127
108.21582766439909	108.4015873015873	75	127
108.21582766439909	108.77310657596372	70	127
108.21582766439909	108.77310657596372	51	127
108.48285714285714	108.69183673469388	79	127
108.78471655328798	109.33038548752835	48	127
108.78471655328798	109.04013605442177	82	127
108.78471655328798	109.04013605442177	68	127
108.78471655328798	109.33038548752835	48	127
109.05174603174603	109.60902494331066	80	127
109.05174603174603	109.13301587301588	77	127
109.13301587301588	109.23750566893425	75	127
109.23750566893425	109.3419954648526	74	127
109.3419954648526	109.53936507936508	75	127
109.3419954648526	109.60902494331066	56	127
109.3419954648526	111.01383219954648	56	127
109.62063492063493	109.8180045351474	68	127
109.62063492063493	109.88766439909297	80	127
109.62063492063493	109.88766439909297	63	127
109.88766439909297	111.01383219954648	49	127
109.88766439909297	110.14308390022676	82	127
109.88766439909297	110.41011337868481	49	127
110.15469387755103	110.71197278911565	80	127
110.15469387755103	110.2591836734694	79	127
110.2591836734694	110.34045351473922	77	127
110.34045351473922	110.42172335600907	76	127
110.42172335600907	110.65392290249433	77	127
110.42172335600907	110.71197278911565	56	127
110.7235827664399	111.01383219954648	80	127
110.7235827664399	110.94417233560091	68	127
110.7235827664399	111.01383219954648	65	127
111.02544217687075	111.26925170068027	82	127
111.02544217687075	112.02390022675738	56	127
111.02544217687075	112.02390022675738	48	127
111.02544217687075	111.50145124716553	48	127
111.28086167800454	111.35052154195012	77	127
111.28086167800454	111.76848072562358	80	127
111.35052154195012	111.43179138321996	75	127
111.43179138321996	111.50145124716553	74	127
111.50145124716553	111.76848072562358	56	127
111.50145124716553	111.698820861678	75	127
111.79170068027211	112.02390022675738	80	127
111.79170068027211	111.96585034013606	68	127
111.79170068027211	112.02390022675738	63	127
112.03551020408163	112.88303854875284	85	127
112.03551020408163	113.17328798185942	51	127
112.03551020408163	113.17328798185942	58	127
112.03551020408163	112.61600907029478	46	127
112.360589569161	112.4534693877551	75	127
112.4534693877551	112.5463492063492	73	127
112.5463492063492	112.62761904761905	72	127
112.62761904761905	112.88303854875284	51	127
112.62761904761905	112.82498866213152	73	127
112.89464852607709	113.02235827664398	82	127
112.89464852607709	113.10362811791383	63	127
112.89464852607709	113.17328798185942	61	127
113.02235827664398	113.18489795918367	79	127
113.18489795918367	113.6492970521542	60	127
113.18489795918367	113.41709750566893	82	127
113.18489795918367	113.6492970521542	51	127
113.18489795918367	113.6492970521542	44	127
113.4287074829932	113.49836734693878	73	127
113.4287074829932	113.6492970521542	80	127
113.49836734693878	113.57963718820862	72	127
113.57963718820862	113.66090702947845	70	127
113.66090702947845	113.91632653061224	82	127
113.66090702947845	113.91632653061224	51	127
113.66090702947845	114.16013605442177	48	127
113.66090702947845	113.85827664399093	72	127
113.92793650793651	114.10208616780045	60	127
113.92793650793651	114.16013605442177	56	127
113.92793650793651	114.10208616780045	84	127
114.17174603174603	114.38072562358276	77	127
114.17174603174603	115.23986394557824	49	127
114.17174603174603	115.23986394557824	56	127
114.17174603174603	114.70580498866214	37	127
114.45038548752835	114.5548752834467	70	127
114.45038548752835	114.63614512471655	77	127
114.5548752834467	114.63614512471655	68	127
114.63614512471655	114.71741496598639	67	127
114.71741496598639	114.89156462585034	79	127
114.71741496598639	114.97283446712018	49	127
114.71741496598639	114.89156462585034	68	127
114.97283446712018	115.18181405895692	56	127
114.97283446712018	115.18181405895692	80	127
114.97283446712018	115.23986394557824	53	127
115.25147392290249	115.76231292517006	39	127
115.25147392290249	115.49528344671202	77	127
115.25147392290249	115.76231292517006	48	127
115.25147392290249	115.76231292517006	56	127
115.50689342403628	115.76231292517006	75	127
115.50689342403628	115.59977324263039	65	127
115.59977324263039	115.68104308390022	63	127
115.68104308390022	115.77392290249433	62	127
115.77392290249433	115.95968253968255	63	127
115.77392290249433	115.95968253968255	73	127
115.77392290249433	116.01773242630385	44	127
115.77392290249433	116.27315192743764	72	127
116.02934240362812	116.21510204081633	56	127
116.02934240362812	116.27315192743764	51	127
116.02934240362812	116.21510204081633	72	127
116.28476190476191	116.83043083900226	39	127
116.28476190476191	116.36603174603175	70	127
116.28476190476191	116.83043083900226	73	127
116.36603174603175	116.42408163265306	72	127
116.42408163265306	116.49374149659864	70	127
116.49374149659864	116.56340136054422	72	127
116.56340136054422	116.64467120181406	77	127
116.56340136054422	116.62145124716554	70	127
116.62145124716554	116.69111111111111	72	127
116.64467120181406	116.73755102040816	75	127
116.69111111111111	116.77238095238096	70	127
116.73755102040816	116.84204081632653	74	127
116.77238095238096	116.84204081632653	72	127
116.84204081632653	117.09746031746032	43	127
116.84204081632653	116.9117006802721	70	127
116.84204081632653	117.02780045351474	75	127
116.84204081632653	117.09746031746032	61	127
116.9117006802721	116.96975056689342	72	127
116.96975056689342	117.039410430839	70	127
117.039410430839	117.10907029478459	72	127
117.10907029478459	117.3877097505669	51	127
117.10907029478459	117.20195011337869	70	127
117.10907029478459	117.31804988662131	67	127
117.20195011337869	117.30643990929705	68	127
117.30643990929705	117.39931972789115	70	127
117.39931972789115	117.61990929705216	51	127
117.39931972789115	117.61990929705216	60	127
117.39931972789115	117.95659863945578	68	127
117.68956916099773	117.89854875283447	60	127
117.68956916099773	117.89854875283447	68	127
117.96820861678005	118.17718820861678	56	127
117.96820861678005	118.17718820861678	60	127
117.96820861678005	118.17718820861678	63	127
117.96820861678005	118.74607709750566	75	127
118.24684807256236	118.40938775510205	72	127
118.24684807256236	118.40938775510205	63	127
118.24684807256236	118.40938775510205	68	127
118.51387755102041	119.4891156462585	67	127
118.51387755102041	119.4891156462585	61	127
118.51387755102041	119.4891156462585	70	127
118.75768707482993	118.94344671201814	77	127
119.01310657596372	119.18725623582766	75	127
119.24530612244898	119.41945578231292	79	127
119.50072562358277	119.7097052154195	80	127
119.50072562358277	119.7097052154195	68	127
119.50072562358277	119.7097052154195	60	127
119.50072562358277	119.7097052154195	68	127
119.77936507936508	119.98834467120182	80	127
119.77936507936508	119.98834467120182	75	127
119.77936507936508	119.98834467120182	53	127
119.77936507936508	119.98834467120182	60	127
120.06961451247166	120.23215419501133	51	127
120.06961451247166	120.29020408163265	75	127
120.06961451247166	120.29020408163265	61	127
120.06961451247166	120.29020408163265	82	127
120.30181405895692	120.47596371882086	55	127
120.53401360544218	120.71977324263038	80	127
120.53401360544218	120.71977324263038	63	127
120.53401360544218	120.71977324263038	56	127
120.53401360544218	120.71977324263038	60	127
120.78943310657597	120.97519274376417	56	127
120.78943310657597	120.97519274376417	84	127
120.78943310657597	120.97519274376417	72	127
120.78943310657597	120.97519274376417	63	127
121.0912925170068	121.26544217687075	75	127
121.0912925170068	121.67179138321995	73	127
121.0912925170068	121.67179138321995	63	127
121.0912925170068	121.67179138321995	58	127
121.3467120181406	121.55569160997733	79	127
121.68340136054422	122.26390022675737	75	127
121.68340136054422	122.26390022675737	48	127
121.68340136054422	121.98526077097506	82	127
121.99687074829932	122.50770975056689	80	127
121.99687074829932	122.07814058956916	65	127
122.07814058956916	122.18263038548753	63	127
122.18263038548753	122.26390022675737	62	127
122.26390022675737	122.50770975056689	56	127
122.26390022675737	122.44965986394558	63	127
122.26390022675737	122.7863492063492	72	127
122.51931972789116	122.7863492063492	80	127
122.51931972789116	122.7863492063492	63	127
122.51931972789116	122.7282993197279	56	127
122.79795918367347	124.44657596371881	68	127
122.79795918367347	123.07659863945578	82	127
122.79795918367347	124.44657596371881	56	127
122.79795918367347	123.37845804988662	49	127
123.08820861678005	123.20430839002267	66	127
123.08820861678005	123.6338775510204	80	127
123.20430839002267	123.30879818594104	65	127
123.30879818594104	123.39006802721089	64	127
123.39006802721089	123.56421768707483	65	127
123.39006802721089	123.6338775510204	56	127
123.64548752834467	123.87768707482994	65	127
123.64548752834467	123.80802721088435	56	127
123.64548752834467	123.87768707482994	80	127
123.87768707482994	124.15632653061225	82	127
123.87768707482994	124.44657596371881	51	127
124.1679365079365	124.69038548752835	80	127
124.1679365079365	124.26081632653062	68	127
124.26081632653062	124.34208616780046	66	127
124.34208616780046	124.45818594104308	65	127
124.45818594104308	124.63233560090703	66	127
124.45818594104308	124.69038548752835	56	127
124.45818594104308	126.06036281179138	78	127
124.7019954648526	124.89936507936508	60	127
124.7019954648526	124.95741496598639	80	127
124.7019954648526	124.95741496598639	66	127
124.96902494331066	125.73528344671202	90	127
124.96902494331066	125.46825396825396	51	127
125.21283446712017	125.30571428571429	70	127
125.30571428571429	125.39859410430839	68	127
125.39859410430839	125.47986394557823	67	127
125.47986394557823	125.66562358276644	68	127
125.47986394557823	125.73528344671202	56	127
125.74689342403629	126.06036281179138	66	127
125.74689342403629	125.92104308390023	87	127
125.74689342403629	125.9907029478458	60	127
125.92104308390023	126.07197278911565	84	127
126.07197278911565	126.30417233560091	87	127
126.07197278911565	126.54798185941043	80	127
126.07197278911565	126.54798185941043	41	127
126.31578231292517	126.39705215419501	58	127
126.31578231292517	126.54798185941043	85	127
126.39705215419501	126.47832199546485	56	127
126.47832199546485	126.54798185941043	55	127
126.54798185941043	127.65092970521542	73	127
126.54798185941043	126.72213151927437	87	127
126.54798185941043	126.72213151927437	56	127
126.54798185941043	126.78018140589569	49	127
126.79179138321996	127.02399092970522	49	127
126.79179138321996	127.02399092970522	89	127
126.79179138321996	127.08204081632653	56	127
127.0936507936508	127.29102040816326	82	127
127.0936507936508	127.65092970521542	42	127
127.36068027210884	127.47678004535148	60	127
127.36068027210884	127.58126984126984	82	127
127.47678004535148	127.56965986394557	58	127
127.56965986394557	127.66253968253969	57	127
127.66253968253969	128.7074149659864	61	127
127.66253968253969	127.84829931972789	84	127
127.66253968253969	127.84829931972789	58	127
127.66253968253969	127.91795918367347	49	127
127.91795918367347	128.1269387755102	85	127
127.91795918367347	128.1269387755102	49	127
127.91795918367347	128.18498866213153	58	127
128.19657596371883	128.7074149659864	44	127
128.19657596371883	128.42879818594105	82	127
128.44040816326532	128.63777777777779	80	127
128.44040816326532	128.5448979591837	63	127
128.5448979591837	128.61455782312925	61	127
128.61455782312925	128.71904761904761	60	127
128.71904761904761	129.18344671201814	73	127
128.71904761904761	128.8815873015873	78	127
128.71904761904761	128.8815873015873	61	127
128.71904761904761	128.93963718820862	53	127
128.9512471655329	129.1137641723356	77	127
128.9512471655329	129.1137641723356	53	127
128.9512471655329	129.18344671201814	61	127
129.18344671201814	129.26469387755103	75	127
129.18344671201814	129.65945578231293	72	127
129.18344671201814	129.65945578231293	44	127
129.26469387755103	129.34598639455783	77	127
129.34598639455783	129.41564625850341	75	127
129.41564625850341	129.5085260770975	58	127
129.41564625850341	129.5085260770975	77	127
129.5085260770975	129.58979591836734	75	127
129.5085260770975	129.58979591836734	56	127
129.58979591836734	129.6710657596372	77	127
129.58979591836734	129.6710657596372	55	127
129.6710657596372	129.96131519274377	60	127
129.6710657596372	129.89165532879818	56	127
129.6710657596372	129.96131519274377	51	127
129.6710657596372	129.7871655328798	75	127
129.7871655328798	129.86843537414967	77	127
129.86843537414967	129.97292517006804	75	127
129.97292517006804	130.25156462585034	59	127
129.97292517006804	130.0425850340136	77	127
129.97292517006804	130.18190476190478	44	127
129.97292517006804	130.25156462585034	60	127
130.0425850340136	130.1122448979592	75	127
130.1122448979592	130.19351473922902	74	127
130.19351473922902	130.2631746031746	75	127
130.2631746031746	130.4489342403628	58	127
130.2631746031746	130.4489342403628	44	127
130.2631746031746	130.4489342403628	74	127
130.2631746031746	130.4489342403628	53	127
130.53020408163266	130.72757369614513	58	127
130.53020408163266	130.72757369614513	41	127
130.53020408163266	130.72757369614513	77	127
130.53020408163266	130.72757369614513	50	127
130.79721088435375	131.02943310657596	58	127
130.79721088435375	131.02943310657596	44	127
130.79721088435375	131.02943310657596	74	127
130.79721088435375	131.02943310657596	65	127
131.1107029478458	131.27324263038548	58	127
131.1107029478458	131.27324263038548	38	127
131.1107029478458	131.27324263038548	80	127
131.1107029478458	131.27324263038548	53	127
131.34290249433107	131.52866213151927	58	127
131.34290249433107	131.52866213151927	54	127
131.34290249433107	131.52866213151927	39	127
131.34290249433107	132.3761904761905	78	127
131.59832199546486	131.77244897959184	66	127
131.59832199546486	131.77244897959184	58	127
131.59832199546486	131.77244897959184	51	127
131.84213151927437	132.02786848072563	46	127
131.84213151927437	132.02786848072563	63	127
131.84213151927437	132.02786848072563	58	127
132.09755102040816	132.31814058956917	58	127
132.09755102040816	132.31814058956917	70	127
132.09755102040816	132.31814058956917	51	127
132.3761904761905	132.56195011337869	70	127
132.3761904761905	132.56195011337869	50	127
132.3761904761905	132.56195011337869	78	127
132.3761904761905	132.56195011337869	58	127
132.64319727891157	132.8754195011338	70	127
132.64319727891157	132.8754195011338	46	127
132.64319727891157	132.8754195011338	77	127
132.64319727891157	132.8754195011338	62	127
132.9450566893424	133.1192290249433	70	127
132.9450566893424	133.1192290249433	51	127
132.9450566893424	133.1192290249433	78	127
132.9450566893424	133.1192290249433	63	127
133.1888888888889	133.36303854875283	68	127
133.1888888888889	133.36303854875283	48	127
133.1888888888889	133.36303854875283	78	127
133.1888888888889	133.36303854875283	63	127
133.43269841269841	133.60684807256237	68	127
133.43269841269841	133.60684807256237	49	127
133.43269841269841	133.60684807256237	77	127
133.43269841269841	133.60684807256237	56	127
133.6881179138322	133.8738775510204	82	127
133.6881179138322	133.8738775510204	65	127
133.6881179138322	133.8738775510204	56	127
133.6881179138322	133.8738775510204	37	127
133.943537414966	134.1292970521542	56	127
133.943537414966	134.1292970521542	39	127
133.943537414966	134.1292970521542	80	127
133.943537414966	134.1292970521542	66	127
134.21056689342404	134.41954648526078	68	127
134.21056689342404	134.41954648526078	39	127
134.21056689342404	134.41954648526078	84	127
134.21056689342404	134.41954648526078	66	127
134.5008163265306	135.09290249433107	65	127
134.5008163265306	134.7562358276644	68	127
134.5008163265306	134.69818594104308	37	127
134.5008163265306	135.5689342403628	85	127
134.76784580498867	135.03487528344672	56	127
134.76784580498867	135.33673469387756	56	127
135.10453514739228	135.26707482993197	53	127
135.33673469387756	135.5108843537415	56	127
135.33673469387756	135.5689342403628	56	127
135.58054421768708	135.76630385487528	51	127
135.58054421768708	135.8243537414966	58	127
135.83596371882086	136.34680272108844	56	127
135.83596371882086	135.99850340136055	56	127
136.06814058956917	136.2307029478458	49	127
136.3584126984127	136.5209523809524	56	127
136.3584126984127	136.59061224489795	56	127
136.3584126984127	136.59061224489795	49	127
136.60222222222222	136.7995918367347	48	127
136.60222222222222	136.88083900226758	58	127
136.60222222222222	136.88083900226758	70	127
136.74154195011337	136.82281179138323	68	127
136.88083900226758	137.46136054421768	56	127
136.88083900226758	136.97374149659865	70	127
136.88083900226758	137.08981859410432	56	127
136.88083900226758	137.46136054421768	68	127
137.0201814058957	137.1130612244898	72	127
137.17111111111112	137.38009070294785	46	127
137.17111111111112	137.27560090702949	73	127
137.3336507936508	137.40331065759636	75	127
137.47297052154195	137.7051700680272	56	127
137.47297052154195	137.55424036281178	77	127
137.47297052154195	137.63551020408164	56	127
137.47297052154195	137.7051700680272	68	127
137.5890702947846	137.67034013605442	79	127
137.71678004535147	138.47142857142856	66	127
137.71678004535147	137.80965986394557	80	127
137.71678004535147	137.9025396825397	44	127
137.71678004535147	138.47142857142856	78	127
137.85607709750568	137.93736961451248	82	127
137.97219954648526	138.16956916099772	56	127
137.97219954648526	138.07668934240363	84	127
138.11149659863946	138.19278911564626	85	127
138.2392290249433	138.41337868480727	44	127
138.2392290249433	138.41337868480727	87	127
138.48303854875283	138.59913832199547	75	127
138.48303854875283	138.59913832199547	63	127
138.48303854875283	138.64557823129252	78	127
138.48303854875283	138.64557823129252	56	127
138.59913832199547	138.7152380952381	72	127
138.59913832199547	138.7152380952381	60	127
138.7152380952381	138.91260770975057	77	127
138.7152380952381	138.9706575963719	49	127
138.7152380952381	139.72530612244898	73	127
138.7152380952381	139.72530612244898	61	127
138.9822448979592	139.1331746031746	77	127
138.9822448979592	139.44666666666666	41	127
139.2144671201814	139.3770068027211	73	127
139.44666666666666	139.66725623582767	77	127
139.44666666666666	139.72530612244898	41	127
139.73691609977325	139.98072562358277	72	127
139.73691609977325	140.07360544217687	42	127
140.08521541950114	140.24775510204083	77	127
140.08521541950114	140.52639455782312	41	127
140.3174149659864	140.4683446712018	70	127
140.57283446712017	140.80503401360545	41	127
140.57283446712017	140.74698412698413	77	127
140.57283446712017	140.80503401360545	53	127
140.83986394557823	141.0140136054422	69	127
140.83986394557823	141.09528344671202	54	127
140.83986394557823	141.09528344671202	42	127
140.95596371882087	141.04884353741497	65	127
141.09528344671202	141.18816326530612	67	127
141.09528344671202	141.28102040816327	77	127
141.09528344671202	141.5712925170068	41	127
141.09528344671202	141.5712925170068	53	127
141.23460317460317	141.30426303854875	69	127
141.3507029478458	141.5132426303855	67	127
141.3507029478458	141.4203628117914	70	127
141.46680272108844	141.53643990929706	72	127
141.58290249433108	141.80349206349206	53	127
141.58290249433108	141.6641723356009	74	127
141.58290249433108	141.74544217687074	77	127
141.58290249433108	141.80349206349206	41	127
141.6990022675737	141.78027210884355	76	127
141.81510204081633	141.98925170068028	65	127
141.81510204081633	141.89637188208616	77	127
141.81510204081633	142.53492063492064	63	127
141.81510204081633	142.53492063492064	51	127
141.93120181405897	142.02408163265306	79	127
142.05891156462584	142.24467120181407	77	127
142.05891156462584	142.1401814058957	81	127
142.17501133786848	142.26789115646258	82	127
142.30269841269842	142.47687074829932	68	127
142.30269841269842	142.47687074829932	84	127
142.5465306122449	142.66260770975057	60	127
142.5465306122449	142.66260770975057	48	127
142.5465306122449	142.70904761904762	77	127
142.5465306122449	142.70904761904762	75	127
142.66260770975057	142.77873015873016	45	127
142.66260770975057	142.77873015873016	57	127
142.77873015873016	143.03414965986394	47	127
142.77873015873016	142.88321995464852	53	127
142.77873015873016	143.03414965986394	77	127
142.77873015873016	143.03414965986394	74	127
142.91802721088436	143.01092970521543	58	127
143.0457596371882	143.57979591836735	46	127
143.0457596371882	143.1386394557823	60	127
143.0457596371882	143.57979591836735	62	127
143.0457596371882	143.57979591836735	77	127
143.18507936507936	143.27795918367346	62	127
143.31278911564627	143.41727891156464	63	127
143.45210884353742	143.53337868480725	65	127
143.57979591836735	144.1487074829932	77	127
143.57979591836735	144.1487074829932	46	127
143.57979591836735	143.88167800453516	62	127
143.57979591836735	143.68428571428572	67	127
143.71913832199547	143.82362811791384	69	127
143.8932879818594	144.64793650793652	80	127
143.8932879818594	143.962947845805	70	127
144.04421768707482	144.1138775510204	72	127
144.16031746031746	144.64793650793652	46	127
144.16031746031746	144.22997732426305	74	127
144.16031746031746	144.64793650793652	62	127
144.28802721088437	144.3692970521542	75	127
144.40412698412698	144.5898866213152	77	127
144.65954648526076	144.83369614512472	68	127
144.65954648526076	144.89174603174604	46	127
144.65954648526076	145.14716553287982	70	127
144.65954648526076	144.7756462585034	77	127
144.7756462585034	144.9033560090703	74	127
144.9033560090703	144.98462585034014	75	127
144.9033560090703	145.4025850340136	51	127
144.9033560090703	145.14716553287982	67	127
145.01945578231292	145.11231292517007	75	127
145.14716553287982	145.64639455782313	70	127
145.14716553287982	145.64639455782313	51	127
145.14716553287982	145.24004535147392	77	127
145.14716553287982	145.64639455782313	67	127
145.28648526077097	145.36773242630386	79	127
145.41419501133788	145.4954648526077	80	127
145.41419501133788	145.87857142857143	39	127
145.54190476190476	145.61156462585035	83	127
145.6580045351474	146.14562358276643	67	127
145.6580045351474	146.14562358276643	70	127
145.6580045351474	145.87857142857143	51	127
145.6580045351474	145.73927437641723	84	127
145.77410430839004	145.85537414965987	86	127
145.91342403628119	145.99469387755101	87	127
145.91342403628119	146.6448299319728	58	127
146.04113378684806	146.12240362811792	89	127
146.1572335600907	146.6448299319728	70	127
146.1572335600907	146.2384807256236	91	127
146.1572335600907	146.6448299319728	67	127
146.27333333333334	146.35460317460317	92	127
146.389410430839	146.58680272108845	94	127
146.389410430839	146.88866213151928	37	127
146.656462585034	146.83061224489796	87	127
146.656462585034	146.88866213151928	67	127
146.656462585034	146.88866213151928	70	127
146.656462585034	146.7841723356009	55	127
146.7841723356009	146.90024943310658	51	127
146.90024943310658	147.01637188208616	68	127
146.90024943310658	147.15566893424037	89	127
146.90024943310658	147.15566893424037	51	127
146.90024943310658	147.15566893424037	36	127
147.05120181405897	147.1324716553288	56	127
147.16730158730158	147.66650793650794	48	127
147.16730158730158	147.24857142857144	58	127
147.16730158730158	147.66650793650794	87	127
147.16730158730158	147.66650793650794	56	127
147.28340136054422	147.37628117913832	60	127
147.42272108843537	147.50399092970522	61	127
147.55043083900227	147.6317006802721	63	127
147.66650793650794	148.15414965986395	48	127
147.66650793650794	147.74780045351474	65	127
147.66650793650794	147.89873015873016	87	127
147.66650793650794	147.89873015873016	56	127
147.78263038548752	147.86390022675738	67	127
147.91034013605443	148.00321995464853	68	127
147.91034013605443	148.15414965986395	58	127
147.91034013605443	148.66498866213152	87	127
148.04965986394558	148.11931972789117	70	127
148.16575963718822	148.66498866213152	48	127
148.16575963718822	148.23541950113378	72	127
148.16575963718822	148.66498866213152	56	127
148.28183673469388	148.36312925170068	73	127
148.39795918367346	148.5837188208617	75	127
148.6765986394558	148.87396825396826	68	127
148.6765986394558	148.93201814058958	48	127
148.6765986394558	148.81591836734694	84	127
148.6765986394558	148.93201814058958	56	127
148.81591836734694	148.94362811791385	80	127
148.94362811791385	149.18743764172336	89	127
148.94362811791385	149.03650793650795	49	127
148.94362811791385	149.03650793650795	51	127
149.07133786848073	149.1525850340136	39	127
149.07133786848073	149.1525850340136	55	127
149.18743764172336	149.2687074829932	56	127
149.18743764172336	149.2687074829932	41	127
149.18743764172336	149.66342403628119	87	127
149.18743764172336	149.66342403628119	70	127
149.31514739229024	149.38480725623583	43	127
149.31514739229024	149.38480725623583	58	127
149.43124716553288	149.51249433106577	60	127
149.43124716553288	149.51249433106577	44	127
149.55893424036282	149.62861678004535	61	127
149.55893424036282	149.62861678004535	46	127
149.6750566893424	149.75632653061226	63	127
149.6750566893424	149.75632653061226	48	127
149.6750566893424	149.91884353741497	75	127
149.6750566893424	150.17426303854876	70	127
149.79115646258504	149.8956462585034	65	127
149.79115646258504	149.8956462585034	49	127
149.93047619047618	150.01174603174604	51	127
149.93047619047618	150.01174603174604	67	127
149.93047619047618	150.66190476190476	85	127
150.04657596371882	150.13945578231292	68	127
150.04657596371882	150.13945578231292	53	127
150.18589569160997	150.66190476190476	70	127
150.18589569160997	150.26716553287983	70	127
150.18589569160997	150.26716553287983	55	127
150.3019954648526	150.38326530612244	56	127
150.3019954648526	150.38326530612244	72	127
150.42968253968255	150.60385487528345	73	127
150.42968253968255	150.60385487528345	58	127
150.67351473922903	150.89410430839	39	127
150.67351473922903	150.8012244897959	82	127
150.67351473922903	150.89410430839	55	127
150.8012244897959	150.99859410430838	79	127
150.99859410430838	151.52104308390022	55	127
150.99859410430838	151.76485260770974	85	127
150.99859410430838	153.06517006802721	70	127
150.99859410430838	153.06517006802721	41	127
151.5326530612245	154.17972789115646	61	127
151.776462585034	151.89256235827665	82	127
151.89256235827665	152.02027210884353	79	127
152.02027210884353	153.06517006802721	80	127
153.07678004535148	154.17972789115646	82	127
153.07678004535148	154.17972789115646	39	127
153.07678004535148	154.69056689342403	70	127
154.19133786848073	154.69056689342403	55	127
154.7021768707483	155.61936507936508	73	127
154.7021768707483	155.61936507936508	58	127
155.63097505668935	155.9328344671202	56	127
155.63097505668935	155.9328344671202	72	127
155.9328344671202	156.04893424036283	70	127
155.9328344671202	156.04893424036283	55	127
156.04893424036283	158.3825396825397	40	127
156.04893424036283	156.75714285714287	55	127
156.04893424036283	157.03578231292516	85	127
156.04893424036283	159.46226757369615	70	127
156.76873015873016	158.95142857142858	61	127
157.04739229024943	157.18671201814058	82	127
157.18671201814058	157.30281179138322	79	127
157.30281179138322	158.3825396825397	80	127
158.39414965986396	161.1689342403628	39	127
158.39414965986396	159.46226757369615	82	127
158.96303854875285	159.46226757369615	55	127
159.47387755102042	161.1689342403628	68	127
159.47387755102042	160.82063492063492	84	127
159.47387755102042	161.1689342403628	54	127
160.83224489795919	161.02961451247165	82	127
161.02961451247165	161.2037641723356	80	127
161.2037641723356	161.71460317460318	85	127
161.2037641723356	161.40113378684808	37	127
161.2037641723356	161.71460317460318	68	127
161.2037641723356	161.71460317460318	53	127
161.4707709750567	161.65655328798186	46	127
161.71460317460318	161.97002267573697	65	127
161.71460317460318	161.97002267573697	53	127
161.71460317460318	161.97002267573697	44	127
161.71460317460318	162.2718820861678	73	127
162.0512925170068	162.1209523809524	42	127
162.0512925170068	162.2138321995465	68	127
162.0512925170068	162.2138321995465	56	127
162.16739229024944	162.24866213151927	41	127
162.28349206349208	163.06136054421768	77	127
162.28349206349208	162.457641723356	37	127
162.5273015873016	162.7130612244898	46	127
162.79433106575965	162.99170068027212	44	127
162.79433106575965	162.99170068027212	65	127
162.79433106575965	162.99170068027212	53	127
163.06136054421768	163.2471201814059	68	127
163.06136054421768	163.14263038548754	42	127
163.06136054421768	163.20068027210885	75	127
163.06136054421768	163.2471201814059	56	127
163.20068027210885	163.27034013605441	41	127
163.20068027210885	163.31678004535146	73	127
163.31678004535146	163.5025396825397	36	127
163.31678004535146	163.560589569161	75	127
163.57219954648525	163.75795918367348	46	127
163.8392290249433	164.02496598639456	44	127
163.8392290249433	164.02496598639456	65	127
163.8392290249433	164.02496598639456	53	127
163.8392290249433	164.14108843537414	77	127
164.1526984126984	164.2339455782313	39	127
164.1526984126984	164.3152380952381	68	127
164.1526984126984	164.3152380952381	56	127
164.26879818594105	164.35006802721088	38	127
164.38487528344672	164.61709750566894	39	127
164.38487528344672	164.67514739229026	78	127
164.68675736961453	164.86090702947845	48	127
164.9421768707483	165.13954648526078	68	127
164.9421768707483	165.13954648526078	56	127
164.9421768707483	165.13954648526078	44	127
165.20920634920634	165.2904761904762	41	127
165.20920634920634	165.39496598639457	72	127
165.20920634920634	165.39496598639457	60	127
165.33691609977325	165.42979591836735	39	127
165.46462585034013	166.43986394557822	77	127
165.46462585034013	165.65038548752835	37	127
165.7200453514739	165.89419501133787	46	127
165.9522448979592	166.1380045351474	49	127
165.9522448979592	166.1380045351474	44	127
165.9522448979592	166.1380045351474	61	127
166.20766439909298	166.38179138321996	53	127
166.20766439909298	166.2889342403628	42	127
166.20766439909298	166.38179138321996	65	127
166.33537414965986	166.4166439909297	41	127
166.4514739229025	167.2409523809524	80	127
166.4514739229025	166.61401360544218	41	127
166.6836507936508	166.8578231292517	51	127
166.93907029478459	167.1712925170068	65	127
166.93907029478459	167.1712925170068	53	127
166.93907029478459	167.1712925170068	49	127
167.2409523809524	167.3338321995465	46	127
167.2409523809524	167.38027210884354	78	127
167.2409523809524	167.4267120181406	73	127
167.2409523809524	167.4267120181406	61	127
167.38027210884354	167.44990929705216	44	127
167.38027210884354	167.50798185941042	77	127
167.50798185941042	167.6705215419501	42	127
167.50798185941042	167.72857142857143	82	127
167.7401814058957	167.90272108843538	53	127
167.97238095238095	168.26263038548754	54	127
167.97238095238095	168.26263038548754	66	127
167.97238095238095	168.26263038548754	51	127
167.97238095238095	168.3206575963719	84	127
168.3322902494331	168.4948299319728	72	127
168.3322902494331	168.41356009070296	46	127
168.3322902494331	168.4948299319728	60	127
168.44839002267574	168.52965986394557	44	127
168.57607709750567	168.75024943310657	46	127
168.57607709750567	168.8082993197279	85	127
168.81990929705216	169.0288888888889	56	127
169.09854875283446	169.27269841269842	68	127
169.09854875283446	169.27269841269842	56	127
169.09854875283446	169.27269841269842	54	127
169.09854875283446	169.34233560090703	87	127
169.35396825396825	169.53972789115647	78	127
169.35396825396825	169.4352380952381	49	127
169.35396825396825	169.53972789115647	66	127
169.48167800453515	169.59775510204082	48	127
169.64421768707484	169.81836734693877	80	127
169.64421768707484	169.81836734693877	77	127
169.64421768707484	170.14344671201815	65	127
169.64421768707484	170.65428571428572	37	127
169.88802721088436	170.07378684807256	82	127
169.88802721088436	170.07378684807256	70	127
170.14344671201815	170.31757369614513	80	127
170.14344671201815	170.31757369614513	68	127
170.14344671201815	170.65428571428572	49	127
170.38725623582766	170.45691609977325	78	127
170.38725623582766	170.45691609977325	66	127
170.5033560090703	170.61943310657597	77	127
170.5033560090703	170.61943310657597	65	127
170.66589569161	170.8516553287982	61	127
170.66589569161	171.37410430839003	41	127
170.66589569161	170.8516553287982	73	127
170.66589569161	171.37410430839003	53	127
170.92131519274378	171.0838321995465	82	127
170.92131519274378	171.0838321995465	70	127
171.15351473922902	171.3160544217687	80	127
171.15351473922902	171.3160544217687	68	127
171.38569160997733	171.4901814058957	66	127
171.38569160997733	171.4901814058957	78	127
171.38569160997733	171.53664399092972	51	127
171.38569160997733	171.53664399092972	39	127
171.53664399092972	171.64111111111112	77	127
171.53664399092972	171.64111111111112	65	127
171.53664399092972	171.68757369614514	49	127
171.53664399092972	171.68757369614514	37	127
171.68757369614514	171.87333333333333	78	127
171.68757369614514	171.87333333333333	66	127
171.68757369614514	171.93138321995465	51	127
171.68757369614514	171.93138321995465	39	127
171.94299319727892	172.1403628117914	82	127
171.94299319727892	172.1403628117914	70	127
172.21002267573695	172.4190022675737	80	127
172.21002267573695	172.4190022675737	68	127
172.21002267573695	172.477052154195	53	127
172.21002267573695	172.477052154195	41	127
172.51185941043084	172.60476190476192	75	127
172.51185941043084	172.60476190476192	66	127
172.6395918367347	172.72086167800452	73	127
172.6395918367347	172.72086167800452	65	127
172.75569160997733	172.96467120181407	72	127
172.75569160997733	172.96467120181407	63	127
172.75569160997733	173.02269841269842	54	127
172.75569160997733	173.02269841269842	42	127
173.02269841269842	173.2084807256236	82	127
173.02269841269842	173.2084807256236	70	127
173.2781179138322	173.44068027210884	84	127
173.2781179138322	173.44068027210884	68	127
173.51034013605442	173.59160997732425	85	127
173.51034013605442	173.59160997732425	70	127
173.62643990929706	173.7077097505669	87	127
173.62643990929706	173.7077097505669	72	127
173.74251700680273	174.8338775510204	49	127
173.74251700680273	173.90507936507936	37	127
173.74251700680273	173.96312925170068	89	127
173.74251700680273	174.31142857142856	73	127
173.97473922902495	174.23015873015873	46	127
174.31142857142856	174.53201814058957	44	127
174.31142857142856	174.8338775510204	77	127
174.60167800453516	174.682947845805	42	127
174.72938775510204	174.79904761904763	41	127
174.84548752834468	175.53045351473924	80	127
174.84548752834468	175.00802721088436	41	127
174.84548752834468	175.53045351473924	53	127
175.07768707482992	175.2402267573696	51	127
175.3098866213152	175.4724263038549	49	127
175.3098866213152	175.79750566893424	73	127
175.54208616780045	175.66979591836736	78	127
175.54208616780045	175.66979591836736	51	127
175.54208616780045	175.6233560090703	46	127
175.66979591836736	175.76267573696146	44	127
175.66979591836736	175.79750566893424	77	127
175.66979591836736	175.79750566893424	49	127
175.79750566893424	176.01809523809524	42	127
175.79750566893424	176.58698412698413	70	127
175.79750566893424	176.07614512471656	54	127
175.79750566893424	176.07614512471656	82	127
176.08775510204083	176.2851247165533	53	127
176.36639455782313	176.58698412698413	84	127
176.36639455782313	176.52893424036282	51	127
176.36639455782313	176.58698412698413	54	127
176.62181405895691	176.7030612244898	46	127
176.62181405895691	176.74952380952382	68	127
176.74952380952382	176.86562358276643	66	127
176.74952380952382	176.84240362811792	44	127
176.8772335600907	177.10943310657598	85	127
176.8772335600907	177.05138321995466	46	127
176.8772335600907	177.10943310657598	54	127
176.8772335600907	177.64349206349206	66	127
177.10943310657598	177.2835827664399	56	127
177.3532426303855	177.64349206349206	87	127
177.3532426303855	177.64349206349206	54	127
177.3532426303855	177.57380952380953	54	127
177.6667120181406	177.7828117913832	49	127
177.6667120181406	177.81764172335602	65	127
177.81764172335602	177.89891156462585	48	127
177.81764172335602	177.93371882086169	63	127
177.93371882086169	178.4909977324263	53	127
177.93371882086169	178.18913832199547	46	127
177.93371882086169	178.4909977324263	68	127
177.93371882086169	178.7348299319728	89	127
178.258820861678	178.4213605442177	56	127
178.4909977324263	178.67678004535148	55	127
178.4909977324263	179.4662358276644	70	127
178.4909977324263	179.4662358276644	55	127
178.7464172335601	178.86253968253968	87	127
178.7464172335601	178.81609977324263	48	127
178.86253968253968	179.00183673469388	85	127
178.86253968253968	178.95539682539683	46	127
179.00183673469388	179.22244897959183	87	127
179.00183673469388	179.1643990929705	48	127
179.2340589569161	179.40820861678006	53	127
179.47786848072562	180.0467573696145	72	127
179.47786848072562	179.6404081632653	51	127
179.47786848072562	179.69845804988663	80	127
179.47786848072562	180.0467573696145	56	127
179.7100680272109	179.81455782312926	49	127
179.84938775510204	180.01192743764173	48	127
180.0467573696145	180.8362358276644	77	127
180.0467573696145	180.56920634920635	80	127
180.0467573696145	180.56920634920635	41	127
180.0467573696145	180.2789569160998	56	127
180.34861678004535	180.51115646258503	68	127
180.58081632653062	181.66052154195012	43	127
180.58081632653062	180.7781859410431	61	127
180.58081632653062	181.66052154195012	82	127
180.8478231292517	180.95233560090702	60	127
180.8478231292517	180.98716553287983	75	127
180.98716553287983	181.0916553287982	58	127
180.98716553287983	181.12648526077098	73	127
181.12648526077098	181.31224489795918	58	127
181.12648526077098	181.4283446712018	75	127
181.4283446712018	181.60249433106577	63	127
181.67215419501133	182.13655328798185	84	127
181.67215419501133	181.89274376417234	68	127
181.67215419501133	181.89274376417234	44	127
181.67215419501133	181.83469387755102	63	127
181.9043537414966	182.13655328798185	56	127
181.9043537414966	181.98562358276644	61	127
182.0320634920635	182.11333333333334	60	127
182.14816326530612	182.63575963718822	68	127
182.14816326530612	182.32231292517008	46	127
182.14816326530612	182.63575963718822	53	127
182.14816326530612	182.86798185941043	89	127
182.39197278911564	182.5661224489796	56	127
182.63575963718822	182.80993197278912	55	127
182.63575963718822	183.10018140589568	70	127
182.63575963718822	183.10018140589568	55	127
182.8795918367347	182.94925170068026	48	127
182.8795918367347	182.9956916099773	87	127
182.9956916099773	183.0653514739229	46	127
182.9956916099773	183.11179138321995	85	127
183.11179138321995	183.27433106575964	48	127
183.11179138321995	183.33238095238096	87	127
183.11179138321995	183.4484807256236	51	127
183.11179138321995	183.4484807256236	68	127
183.34399092970523	183.50650793650794	53	127
183.58780045351475	183.88965986394558	51	127
183.58780045351475	183.9477097505669	92	127
183.58780045351475	183.9477097505669	68	127
183.58780045351475	183.9477097505669	48	127
183.95931972789117	184.040589569161	49	127
184.07541950113378	184.15668934240364	48	127
184.19151927437642	184.37727891156462	49	127
184.19151927437642	184.43532879818594	82	127
184.19151927437642	184.43532879818594	65	127
184.19151927437642	184.43532879818594	56	127
184.4469387755102	184.6326984126984	53	127
184.702358276644	184.9345351473923	58	127
184.702358276644	184.87650793650795	51	127
184.702358276644	184.9345351473923	87	127
184.702358276644	184.9345351473923	55	127
184.9461678004535	185.02743764172337	41	127
185.06226757369615	185.17836734693878	39	127
185.21319727891157	185.38734693877552	44	127
185.21319727891157	185.46861678004535	80	127
185.21319727891157	185.46861678004535	59	127
185.21319727891157	185.46861678004535	51	127
185.4918367346939	185.66598639455782	56	127
185.75886621315192	185.94462585034015	50	127
185.75886621315192	186.0142857142857	82	127
185.75886621315192	186.0142857142857	58	127
185.75886621315192	186.0142857142857	53	127
186.0142857142857	186.13038548752834	39	127
186.16521541950112	186.24648526077098	38	127
186.29292517006803	186.50190476190477	39	127
186.29292517006803	186.57154195011339	78	127
186.29292517006803	186.57154195011339	58	127
186.29292517006803	186.57154195011339	54	127
186.5831746031746	186.74571428571429	51	127
186.81537414965987	187.01274376417234	48	127
186.81537414965987	187.10562358276644	80	127
186.81537414965987	187.10562358276644	56	127
186.81537414965987	187.10562358276644	51	127
187.1172335600907	187.19850340136054	37	127
187.2449433106576	187.31460317460318	36	127
187.36104308390023	187.54680272108843	37	127
187.36104308390023	187.63968253968255	77	127
187.36104308390023	187.63968253968255	56	127
187.36104308390023	187.63968253968255	53	127
187.66290249433106	187.82544217687075	56	127
187.89510204081634	188.0924716553288	53	127
187.89510204081634	188.15052154195013	85	127
187.89510204081634	188.15052154195013	68	127
187.89510204081634	188.15052154195013	53	127
188.16213151927437	188.24340136054423	42	127
188.28984126984128	188.3711111111111	41	127
188.4059410430839	188.5917006802721	42	127
188.4059410430839	188.64975056689343	75	127
188.4059410430839	188.64975056689343	70	127
188.4059410430839	188.64975056689343	54	127
188.6613605442177	188.8471201814059	54	127
188.92839002267573	189.12573696145125	51	127
188.92839002267573	189.20702947845805	80	127
188.92839002267573	189.20702947845805	72	127
188.92839002267573	189.20702947845805	54	127
189.21863945578232	189.31151927437642	46	127
189.35795918367347	189.45083900226757	44	127
189.49727891156462	189.8455782312925	73	127
189.49727891156462	189.8455782312925	68	127
189.49727891156462	189.8455782312925	53	127
189.49727891156462	189.8455782312925	49	127
193.5259410430839	193.73492063492063	75	127
194.30380952380952	194.47795918367348	84	127
195.08167800453515	196.17301587301588	68	127
195.08167800453515	195.16294784580498	58	127
195.08167800453515	196.17301587301588	85	127
195.08167800453515	196.17301587301588	65	127
195.16294784580498	195.2906575963719	56	127
195.36031746031745	195.56929705215418	55	127
195.63895691609977	195.85954648526078	56	127
195.92920634920634	196.1033560090703	61	127
196.17301587301588	196.37038548752835	53	127
196.17301587301588	196.4400453514739	68	127
196.17301587301588	196.23106575963718	75	127
196.17301587301588	196.23106575963718	66	127
196.23106575963718	196.37038548752835	73	127
196.23106575963718	196.37038548752835	65	127
196.45165532879818	196.61419501133787	72	127
196.45165532879818	196.61419501133787	54	127
196.45165532879818	196.61419501133787	63	127
196.68385487528346	196.84639455782312	73	127
196.68385487528346	196.84639455782312	53	127
196.68385487528346	196.84639455782312	65	127
196.68385487528346	196.90444444444444	56	127
196.9160544217687	197.0785941043084	77	127
196.9160544217687	197.0785941043084	68	127
196.9160544217687	197.0785941043084	49	127
197.14825396825398	197.38045351473923	54	127
197.14825396825398	197.20630385487527	58	127
197.14825396825398	197.38045351473923	68	127
197.14825396825398	197.38045351473923	75	127
197.20630385487527	197.31079365079364	56	127
197.38045351473923	197.56621315192743	55	127
197.63587301587302	197.86807256235826	75	127
197.63587301587302	197.81002267573697	56	127
197.63587301587302	197.86807256235826	54	127
197.63587301587302	198.13510204081632	44	127
197.87968253968253	198.077052154195	60	127
198.1467120181406	198.2047619047619	51	127
198.1467120181406	198.37891156462584	73	127
198.1467120181406	198.37891156462584	53	127
198.2047619047619	198.30925170068028	49	127
198.40213151927438	198.57628117913833	48	127
198.6459410430839	198.91297052154195	49	127
199.0290702947846	199.23804988662133	53	127
199.33092970521542	199.8069387755102	37	127
199.33092970521542	199.38897959183674	70	127
199.33092970521542	199.8069387755102	53	127
199.33092970521542	200.28294784580498	77	127
199.38897959183674	199.4934693877551	68	127
199.57473922902494	199.7488888888889	67	127
199.81854875283446	199.98108843537415	68	127
200.05074829931974	200.22489795918366	72	127
200.28294784580498	200.4687074829932	41	127
200.28294784580498	200.3409977324263	51	127
200.28294784580498	200.3409977324263	78	127
200.3409977324263	200.4687074829932	49	127
200.3409977324263	200.4687074829932	77	127
200.53836734693877	200.70090702947846	48	127
200.53836734693877	200.70090702947846	75	127
200.53836734693877	200.70090702947846	42	127
200.8170068027211	201.02598639455783	77	127
200.8170068027211	201.02598639455783	49	127
200.8170068027211	201.02598639455783	41	127
201.16530612244898	201.32784580498867	53	127
201.16530612244898	201.32784580498867	37	127
201.16530612244898	201.32784580498867	80	127
201.39750566893423	201.65292517006802	44	127
201.39750566893423	201.65292517006802	51	127
201.39750566893423	201.65292517006802	78	127
201.39750566893423	201.46716553287982	70	127
201.46716553287982	201.58326530612246	68	127
201.65292517006802	201.82707482993197	67	127
201.89673469387756	202.11732426303854	44	127
201.89673469387756	202.05927437641722	68	127
201.89673469387756	202.11732426303854	78	127
201.89673469387756	202.11732426303854	51	127
202.1289342403628	202.2914739229025	72	127
202.3611337868481	202.58172335600906	73	127
202.3611337868481	202.58172335600906	53	127
202.3611337868481	202.58172335600906	49	127
202.3611337868481	202.63977324263038	77	127
202.65138321995465	202.81392290249434	72	127
202.65138321995465	202.81392290249434	54	127
202.65138321995465	202.81392290249434	51	127
202.90680272108844	203.15061224489796	73	127
202.90680272108844	203.15061224489796	53	127
202.90680272108844	203.15061224489796	49	127
203.22027210884355	203.39442176870747	49	127
203.22027210884355	203.39442176870747	77	127
203.22027210884355	203.39442176870747	37	127
203.46408163265306	203.68467120181407	80	127
203.46408163265306	203.52213151927438	72	127
203.46408163265306	203.68467120181407	65	127
203.52213151927438	203.62662131519275	70	127
203.6962811791383	203.858820861678	69	127
203.94009070294786	204.11424036281178	70	127
203.94009070294786	204.1722902494331	80	127
203.94009070294786	204.1722902494331	65	127
204.18390022675737	204.3580498866213	74	127
204.4277097505669	204.65990929705217	78	127
204.4277097505669	204.4857596371882	65	127
204.4277097505669	204.60185941043085	51	127
204.4277097505669	204.65990929705217	75	127
204.4857596371882	204.60185941043085	63	127
204.6715192743764	204.85727891156463	50	127
204.6715192743764	204.85727891156463	62	127
204.91532879818595	205.10108843537415	51	127
204.91532879818595	205.10108843537415	63	127
205.18235827664398	205.39133786848072	54	127
205.18235827664398	205.39133786848072	66	127
205.47260770975058	205.7164172335601	83	127
205.47260770975058	205.7164172335601	80	127
205.47260770975058	205.7164172335601	53	127
205.47260770975058	205.7164172335601	49	127
205.97183673469388	206.2156462585034	68	127
205.97183673469388	206.2156462585034	83	127
205.97183673469388	206.2156462585034	65	127
205.97183673469388	206.2156462585034	61	127
206.90063492063493	207.01673469387754	41	127
207.01673469387754	207.14444444444445	42	127
207.14444444444445	207.36503401360545	44	127
207.48113378684806	207.65528344671202	41	127
207.7249433106576	208.63052154195012	46	127
208.6653514739229	208.94399092970522	51	127
208.9556009070295	209.87278911564627	44	127
209.8843990929705	210.1398185941043	49	127
210.1398185941043	210.40684807256235	66	127
210.1398185941043	210.40684807256235	60	127
210.6738775510204	210.9292970521542	68	127
210.6738775510204	210.9292970521542	56	127
210.6738775510204	210.9292970521542	60	127
211.19632653061225	211.46335600907028	65	127
211.19632653061225	211.46335600907028	61	127
211.19632653061225	211.46335600907028	61	127
211.47496598639455	211.60267573696146	77	127
211.60267573696146	211.73038548752834	78	127
211.73038548752834	211.9045351473923	80	127
211.73038548752834	211.97419501133786	49	127
211.98580498866212	212.15995464852608	77	127
212.2412244897959	212.9726530612245	82	127
212.74045351473922	212.86816326530612	60	127
212.74045351473922	213.75052154195012	42	127
212.86816326530612	212.98426303854876	58	127
212.98426303854876	213.22807256235828	87	127
212.98426303854876	213.11197278911564	69	127
213.11197278911564	213.23968253968255	70	127
213.23968253968255	214.0059410430839	80	127
213.76213151927436	214.23814058956916	41	127
213.76213151927436	213.88984126984127	58	127
213.88984126984127	214.0059410430839	56	127
214.0059410430839	214.23814058956916	85	127
214.0059410430839	214.1336507936508	67	127
214.0059410430839	214.23814058956916	42	127
214.1336507936508	214.23814058956916	68	127
214.24975056689343	214.33102040816325	58	127
214.33102040816325	214.4122902494331	56	127
214.4122902494331	214.5051700680272	58	127
214.5051700680272	214.80702947845805	44	127
214.5051700680272	214.62126984126985	56	127
214.62126984126985	214.73736961451246	58	127
214.73736961451246	214.81863945578232	56	127
214.81863945578232	215.05083900226757	63	127
214.81863945578232	214.89990929705215	58	127
214.89990929705215	214.96956916099774	56	127
214.96956916099774	215.06244897959184	58	127
215.06244897959184	215.15532879818593	56	127
215.15532879818593	215.24820861678003	55	127
215.24820861678003	215.31786848072562	56	127
215.3294784580499	215.58489795918368	41	127
215.3294784580499	215.422358276644	63	127
215.3294784580499	215.58489795918368	56	127
215.422358276644	215.5152380952381	61	127
215.5152380952381	215.59650793650795	63	127
215.59650793650795	215.67777777777778	61	127
215.59650793650795	215.71260770975056	73	127
215.67777777777778	215.7590476190476	63	127
215.71260770975056	215.85192743764173	75	127
215.7590476190476	215.85192743764173	61	127
215.85192743764173	215.93319727891156	63	127
215.85192743764173	216.02607709750566	77	127
215.85192743764173	216.09573696145125	65	127
215.85192743764173	216.09573696145125	44	127
215.93319727891156	216.02607709750566	61	127
216.02607709750566	216.10734693877552	63	127
216.10734693877552	216.18861678004535	61	127
216.10734693877552	216.28149659863945	73	127
216.18861678004535	216.26988662131518	60	127
216.26988662131518	216.33954648526077	61	127
216.35115646258504	216.56013605442178	63	127
216.35115646258504	216.6181859410431	75	127
216.35115646258504	216.6181859410431	42	127
216.62979591836734	216.79233560090702	51	127
216.79233560090702	216.90843537414966	53	127
216.90843537414966	217.08258503401362	54	127
216.90843537414966	217.1406349206349	72	127
216.90843537414966	217.1406349206349	63	127
216.90843537414966	217.1406349206349	48	127
217.15224489795918	217.3380045351474	51	127
217.40766439909297	217.66308390022675	68	127
217.40766439909297	217.66308390022675	53	127
217.40766439909297	217.66308390022675	56	127
217.40766439909297	217.66308390022675	49	127
217.89528344671203	218.13909297052155	53	127
217.89528344671203	218.13909297052155	80	127
217.89528344671203	218.13909297052155	61	127
218.4061224489796	218.4990022675737	70	127
218.4061224489796	218.5918820861678	51	127
218.4061224489796	218.64993197278912	78	127
218.4990022675737	218.58027210884353	68	127
218.58027210884353	218.6615419501134	70	127
218.6615419501134	218.78925170068027	48	127
218.6615419501134	218.74281179138322	68	127
218.74281179138322	218.82408163265305	70	127
218.78925170068027	218.91696145124718	49	127
218.82408163265305	218.91696145124718	68	127
218.91696145124718	219.14916099773242	80	127
218.91696145124718	218.998231292517	70	127
218.91696145124718	219.0911111111111	51	127
218.998231292517	219.07950113378683	68	127
219.07950113378683	219.1607709750567	70	127
219.1607709750567	219.24204081632652	68	127
219.1607709750567	219.33492063492062	48	127
219.24204081632652	219.33492063492062	67	127
219.33492063492062	219.4045804988662	68	127
219.41619047619048	219.50907029478458	58	127
219.41619047619048	219.60195011337868	68	127
219.41619047619048	219.67160997732427	77	127
219.41619047619048	219.67160997732427	49	127
219.50907029478458	219.5903401360544	56	127
219.5903401360544	219.68321995464854	58	127
219.68321995464854	219.76448979591837	56	127
219.68321995464854	219.81092970521541	73	127
219.76448979591837	219.85736961451246	58	127
219.81092970521541	219.92702947845805	75	127
219.85736961451246	219.92702947845805	56	127
219.92702947845805	220.00829931972788	58	127
219.92702947845805	220.10117913832198	77	127
219.92702947845805	220.1592290249433	80	127
219.92702947845805	220.1592290249433	44	127
220.00829931972788	220.08956916099774	56	127
220.08956916099774	220.17083900226757	58	127
220.17083900226757	220.25210884353743	56	127
220.17083900226757	220.35659863945577	73	127
220.25210884353743	220.34498866213153	55	127
220.34498866213153	220.4146485260771	56	127
220.42625850340136	220.61201814058956	51	127
220.42625850340136	220.67006802721087	78	127
220.42625850340136	220.67006802721087	72	127
220.42625850340136	220.55396825396826	56	127
220.49591836734695	220.73972789115646	68	127
220.93709750566893	221.05319727891157	56	127
220.93709750566893	221.12285714285716	63	127
220.93709750566893	221.12285714285716	66	127
220.93709750566893	221.19251700680272	84	127
221.00675736961452	221.2621768707483	68	127
221.204126984127	221.38988662131518	63	127
221.204126984127	221.38988662131518	66	127
221.47115646258504	221.6104761904762	53	127
221.47115646258504	221.7614058956916	85	127
221.47115646258504	221.7614058956916	61	127
221.5408163265306	221.8310657596372	65	127
221.77301587301588	221.98199546485262	65	127
222.07487528344672	224.40848072562358	45	127
222.07487528344672	222.8991836734694	89	127
222.07487528344672	223.8744217687075	65	127
222.07487528344672	223.8744217687075	72	127
222.07487528344672	224.40848072562358	53	127
222.07487528344672	223.41002267573697	72	127
222.07487528344672	223.41002267573697	77	127
222.91079365079366	223.07333333333332	89	127
223.1429931972789	223.35197278911565	84	127
223.42163265306124	223.5841723356009	77	127
223.65383219954649	223.8744217687075	72	127
223.88603174603173	224.118231292517	65	127
223.88603174603173	224.118231292517	84	127
224.1878911564626	224.36204081632653	60	127
224.42009070294785	224.58263038548753	72	127
224.42009070294785	224.58263038548753	57	127
224.42009070294785	224.58263038548753	53	127
224.42009070294785	224.53619047619048	86	127
224.42009070294785	224.58263038548753	65	127
224.53619047619048	224.64068027210885	87	127
224.6522902494331	224.81482993197278	87	127
224.6522902494331	224.81482993197278	72	127
224.6522902494331	224.81482993197278	69	127
224.6522902494331	224.81482993197278	41	127
224.6522902494331	224.81482993197278	65	127
224.88448979591837	225.04702947845806	63	127
224.88448979591837	225.04702947845806	65	127
224.88448979591837	225.04702947845806	72	127
224.88448979591837	225.04702947845806	58	127
224.88448979591837	225.04702947845806	55	127
225.11668934240362	225.29083900226757	63	127
225.11668934240362	225.29083900226757	65	127
225.11668934240362	225.29083900226757	72	127
225.11668934240362	225.29083900226757	57	127
225.11668934240362	225.29083900226757	53	127
225.3488888888889	225.47659863945577	63	127
225.3488888888889	225.52303854875282	65	127
225.3488888888889	225.52303854875282	72	127
225.3488888888889	225.52303854875282	60	127
225.3488888888889	225.52303854875282	57	127
225.47659863945577	225.5926984126984	65	127
225.5926984126984	225.7552380952381	65	127
225.5926984126984	225.7552380952381	74	127
225.5926984126984	225.7552380952381	70	127
225.5926984126984	226.04548752834467	62	127
225.5926984126984	225.7552380952381	58	127
225.8248979591837	225.98743764172335	65	127
225.8248979591837	225.98743764172335	77	127
225.8248979591837	225.98743764172335	74	127
225.8248979591837	225.98743764172335	55	127
226.05709750566893	226.2312471655329	77	127
226.05709750566893	226.2312471655329	65	127
226.05709750566893	226.2312471655329	74	127
226.05709750566893	226.2312471655329	53	127
226.30090702947845	226.4170068027211	77	127
226.30090702947845	226.4750566893424	65	127
226.30090702947845	226.4750566893424	74	127
226.30090702947845	226.4750566893424	59	127
226.4170068027211	226.54471655328797	79	127
226.54471655328797	226.71886621315193	75	127
226.54471655328797	226.71886621315193	69	127
226.54471655328797	226.71886621315193	65	127
226.54471655328797	226.71886621315193	60	127
226.78852607709752	226.9162358276644	39	127
226.78852607709752	226.9742857142857	84	127
226.78852607709752	226.9742857142857	77	127
226.78852607709752	226.9742857142857	57	127
226.9162358276644	227.0439455782313	38	127
227.0439455782313	227.2297052154195	84	127
227.0439455782313	227.2297052154195	77	127
227.0439455782313	227.2297052154195	65	127
227.0439455782313	227.2297052154195	39	127
227.2993650793651	227.47351473922902	77	127
227.2993650793651	227.4154648526077	84	127
227.2993650793651	227.47351473922902	69	127
227.2993650793651	227.47351473922902	65	127
227.2993650793651	227.47351473922902	41	127
227.4154648526077	227.5431746031746	86	127
227.5431746031746	227.7057142857143	82	127
227.5431746031746	227.7057142857143	77	127
227.5431746031746	227.7057142857143	65	127
227.5431746031746	227.7057142857143	70	127
227.5431746031746	227.7057142857143	38	127
227.77537414965985	227.9495238095238	87	127
227.77537414965985	227.9495238095238	75	127
227.77537414965985	227.9495238095238	58	127
227.77537414965985	227.9495238095238	43	127
228.03079365079364	228.2049433106576	87	127
228.03079365079364	228.2049433106576	81	127
228.03079365079364	228.2049433106576	60	127
228.03079365079364	228.2049433106576	41	127
228.2746031746032	228.40231292517007	87	127
228.2746031746032	228.44875283446711	84	127
228.2746031746032	228.44875283446711	65	127
228.2746031746032	228.44875283446711	45	127
228.40231292517007	228.5184126984127	89	127
228.5184126984127	228.69256235827663	86	127
228.5184126984127	228.69256235827663	77	127
228.5184126984127	228.69256235827663	65	127
228.5184126984127	228.69256235827663	46	127
228.76222222222222	228.94798185941042	84	127
228.76222222222222	228.94798185941042	69	127
228.76222222222222	228.94798185941042	63	127
228.76222222222222	228.94798185941042	48	127
229.017641723356	229.21501133786848	82	127
229.017641723356	229.21501133786848	70	127
229.017641723356	229.21501133786848	62	127
229.017641723356	229.21501133786848	50	127
229.28467120181406	229.44721088435375	81	127
229.28467120181406	229.44721088435375	66	127
229.28467120181406	229.44721088435375	60	127
229.28467120181406	229.44721088435375	51	127
229.55170068027212	229.72585034013605	80	127
229.55170068027212	229.72585034013605	65	127
229.55170068027212	229.72585034013605	59	127
229.55170068027212	229.72585034013605	51	127
229.79551020408164	229.95804988662132	79	127
229.79551020408164	229.95804988662132	60	127
229.79551020408164	229.95804988662132	58	127
229.79551020408164	229.95804988662132	52	127
230.07414965986393	230.27151927437643	77	127
230.07414965986393	230.27151927437643	62	127
230.07414965986393	230.27151927437643	58	127
230.07414965986393	230.27151927437643	53	127
230.35278911564626	230.59659863945578	69	127
230.35278911564626	230.59659863945578	65	127
230.35278911564626	230.59659863945578	60	127
230.35278911564626	230.59659863945578	53	127
230.79396825396825	233.09274376417233	78	127
233.1043537414966	233.27850340136055	65	127
233.1043537414966	234.06798185941042	77	127
233.35977324263038	233.52231292517007	74	127
233.59197278911566	233.7661224489796	72	127
233.59197278911566	234.06798185941042	65	127
233.84739229024945	234.0099319727891	65	127
234.0795918367347	234.85746031746032	81	127
234.0795918367347	235.10126984126984	72	127
234.0795918367347	234.31179138321994	65	127
234.38145124716553	234.54399092970522	74	127
234.6136507936508	235.10126984126984	65	127
234.6136507936508	234.77619047619046	72	127
234.8690702947846	234.9851700680272	79	127
234.8690702947846	235.04321995464852	65	127
234.9851700680272	235.1128798185941	77	127
235.1128798185941	235.2986394557823	60	127
235.1128798185941	235.92557823129252	76	127
235.1128798185941	235.35668934240363	79	127
235.3682993197279	235.56566893424036	74	127
235.62371882086168	235.8675283446712	72	127
235.62371882086168	235.92557823129252	81	127
235.62371882086168	236.19260770975058	60	127
235.9371882086168	236.13455782312926	60	127
235.9371882086168	236.0881179138322	74	127
236.0881179138322	236.20421768707482	72	127
236.20421768707482	236.42480725623582	74	127
236.20421768707482	236.3667573696145	60	127
236.20421768707482	236.42480725623582	82	127
236.4364172335601	236.59895691609978	74	127
236.66861678004534	236.8427664399093	72	127
236.66861678004534	236.90081632653062	76	127
236.66861678004534	237.22589569160996	60	127
236.90081632653062	237.16784580498867	60	127
237.23750566893423	238.16630385487528	81	127
237.23750566893423	237.40004535147392	60	127
237.23750566893423	237.45809523809524	77	127
237.4697052154195	237.6322448979592	74	127
237.64385487528344	237.70190476190476	52	127
237.70190476190476	237.8760544217687	72	127
237.70190476190476	237.93410430839003	79	127
237.70190476190476	238.16630385487528	53	127
237.94571428571427	238.10825396825396	60	127
238.17791383219955	239.18798185941043	65	127
238.17791383219955	238.36367346938775	81	127
238.17791383219955	238.8861224489796	84	127
238.43333333333334	238.59587301587302	79	127
238.60748299319727	238.66553287981858	64	127
238.66553287981858	238.82807256235827	77	127
238.66553287981858	239.18798185941043	65	127
238.89773242630386	239.04866213151928	82	127
238.89773242630386	239.1299319727891	65	127
239.04866213151928	239.1995918367347	81	127
239.1995918367347	239.919410430839	70	127
239.1995918367347	239.39696145124717	65	127
239.1995918367347	239.919410430839	86	127
239.46662131519275	239.64077097505668	79	127
239.64077097505668	239.698820861678	40	127
239.698820861678	239.8613605442177	77	127
239.698820861678	240.15160997732426	41	127
239.93102040816328	240.0471201814059	69	127
239.93102040816328	240.09356009070294	65	127
239.93102040816328	240.0471201814059	84	127
240.0471201814059	240.16321995464853	82	127
240.0471201814059	240.16321995464853	67	127
240.16321995464853	240.90625850340135	72	127
240.16321995464853	240.33736961451248	65	127
240.16321995464853	240.90625850340135	87	127
240.40702947845804	240.581179138322	79	127
240.59278911564627	240.65083900226756	52	127
240.65083900226756	240.84820861678006	77	127
240.65083900226756	241.2081179138322	53	127
240.91786848072562	241.06879818594103	70	127
240.91786848072562	241.06879818594103	86	127
240.91786848072562	241.13845804988662	65	127
241.06879818594103	241.21972789115645	84	127
241.06879818594103	241.21972789115645	69	127
241.21972789115645	241.463537414966	70	127
241.21972789115645	241.463537414966	65	127
241.21972789115645	241.463537414966	86	127
241.21972789115645	242.16013605442177	46	127
241.59124716553288	241.69573696145125	77	127
241.70734693877552	241.93954648526076	77	127
241.70734693877552	241.93954648526076	87	127
241.70734693877552	241.93954648526076	72	127
242.0556462585034	242.16013605442177	77	127
242.17174603174604	242.41555555555556	89	127
242.17174603174604	242.65936507936507	70	127
242.17174603174604	242.92639455782313	50	127
242.17174603174604	242.92639455782313	65	127
242.5316553287982	242.65936507936507	89	127
242.67097505668934	242.92639455782313	89	127
242.9380045351474	243.05410430839	48	127
242.9380045351474	243.05410430839	63	127
243.05410430839	243.15859410430838	89	127
243.05410430839	243.17020408163265	62	127
243.05410430839	243.17020408163265	46	127
243.17020408163265	243.41401360544216	63	127
243.17020408163265	243.41401360544216	48	127
243.17020408163265	243.6578231292517	81	127
243.55333333333334	243.6578231292517	77	127
243.66943310657595	243.95968253968255	77	127
243.66943310657595	243.95968253968255	58	127
243.66943310657595	243.95968253968255	50	127
244.08739229024943	244.1918820861678	77	127
244.20349206349206	244.4821315192744	69	127
244.20349206349206	244.4821315192744	60	127
244.20349206349206	244.4821315192744	51	127
244.60984126984127	244.71433106575964	89	127
244.7259410430839	244.94653061224489	62	127
244.7259410430839	244.94653061224489	89	127
244.7259410430839	244.94653061224489	70	127
245.0742403628118	245.17873015873016	89	127
245.17873015873016	245.4109297052154	70	127
245.17873015873016	245.4109297052154	63	127
245.17873015873016	245.4109297052154	51	127
245.17873015873016	245.64312925170069	90	127
245.53863945578232	245.64312925170069	78	127
245.53863945578232	245.64312925170069	63	127
245.65473922902495	245.89854875283447	78	127
245.65473922902495	245.89854875283447	63	127
245.65473922902495	245.89854875283447	53	127
246.03786848072562	246.2352380952381	78	127
246.03786848072562	246.2352380952381	63	127
246.24684807256236	246.49065759637188	78	127
246.24684807256236	246.49065759637188	63	127
246.24684807256236	246.49065759637188	54	127
246.6067573696145	246.72285714285715	90	127
246.6067573696145	246.72285714285715	75	127
246.7344671201814	246.9550566893424	90	127
246.7344671201814	246.9550566893424	75	127
246.7344671201814	246.9550566893424	65	127
247.10598639455782	247.22208616780046	90	127
247.10598639455782	247.22208616780046	75	127
247.23369614512472	247.46589569160997	75	127
247.23369614512472	247.46589569160997	66	127
247.23369614512472	247.46589569160997	54	127
247.23369614512472	247.7097052154195	90	127
247.59360544217688	247.7097052154195	78	127
247.59360544217688	247.7097052154195	63	127
247.72131519274376	247.95351473922904	78	127
247.72131519274376	247.95351473922904	63	127
247.72131519274376	247.95351473922904	56	127
248.08122448979591	248.17410430839	78	127
248.08122448979591	248.17410430839	63	127
248.18571428571428	248.39469387755102	78	127
248.18571428571428	248.39469387755102	63	127
248.18571428571428	248.39469387755102	58	127
248.53401360544217	248.63850340136054	90	127
248.53401360544217	248.63850340136054	78	127
248.53401360544217	248.63850340136054	63	127
248.53401360544217	248.63850340136054	73	127
248.53401360544217	248.63850340136054	46	127
248.6501133786848	248.89392290249432	90	127
248.6501133786848	248.89392290249432	78	127
248.6501133786848	248.89392290249432	73	127
248.6501133786848	248.89392290249432	63	127
248.6501133786848	248.89392290249432	58	127
249.056462585034	249.19578231292516	85	127
249.056462585034	249.19578231292516	77	127
249.056462585034	249.19578231292516	73	127
249.056462585034	249.19578231292516	65	127
249.056462585034	249.19578231292516	58	127
249.20739229024943	249.3815419501134	92	127
249.20739229024943	249.4395918367347	77	127
249.20739229024943	249.4395918367347	65	127
249.20739229024943	249.4395918367347	56	127
249.45120181405895	249.61374149659864	77	127
249.68340136054422	249.8459410430839	73	127
249.68340136054422	249.91560090702947	68	127
249.68340136054422	249.91560090702947	65	127
249.68340136054422	250.42643990929705	56	127
249.92721088435374	250.1013605442177	80	127
250.17102040816326	251.23913832199545	78	127
250.17102040816326	250.97210884353743	72	127
250.17102040816326	250.97210884353743	63	127
250.43804988662131	250.63541950113378	46	127
250.72829931972788	250.9140589569161	44	127
250.98371882086167	251.23913832199545	75	127
250.98371882086167	251.18108843537414	48	127
250.98371882086167	251.23913832199545	56	127
251.25074829931972	251.47133786848073	73	127
251.25074829931972	251.47133786848073	56	127
251.25074829931972	251.47133786848073	49	127
251.25074829931972	251.4132879818594	77	127
251.482947845805	251.65709750566893	85	127
251.72675736961452	252.4581859410431	56	127
251.72675736961452	251.90090702947845	80	127
251.72675736961452	251.9821768707483	65	127
251.72675736961452	251.9821768707483	61	127
251.99378684807257	252.15632653061223	89	127
252.22598639455782	253.25927437641724	87	127
252.22598639455782	252.9806349206349	60	127
252.22598639455782	253.25927437641724	66	127
252.46979591836734	252.63233560090703	46	127
252.71360544217688	252.9225850340136	44	127
252.9806349206349	253.16639455782314	48	127
252.9806349206349	253.25927437641724	56	127
253.2708843537415	253.44503401360544	49	127
253.2708843537415	253.44503401360544	65	127
253.2708843537415	253.74689342403627	85	127
253.2708843537415	253.44503401360544	54	127
253.5263038548753	253.68884353741495	65	127
253.5263038548753	253.68884353741495	73	127
253.5263038548753	253.68884353741495	68	127
253.75850340136054	253.9326530612245	73	127
253.75850340136054	253.9326530612245	66	127
253.75850340136054	253.9326530612245	61	127
253.75850340136054	254.53637188208617	80	127
254.0255328798186	254.19968253968253	77	127
254.0255328798186	254.19968253968253	73	127
254.0255328798186	254.19968253968253	68	127
254.28095238095239	255.23297052154194	75	127
254.28095238095239	255.23297052154194	66	127
254.28095238095239	255.23297052154194	72	127
254.54798185941044	254.7105215419501	82	127
254.7801814058957	254.94272108843538	80	127
255.01238095238097	255.17492063492062	84	127
255.2445804988662	255.4071201814059	85	127
255.2445804988662	255.4071201814059	73	127
255.2445804988662	255.4071201814059	65	127
255.2445804988662	255.4071201814059	68	127
255.5	255.720589569161	73	127
255.5	255.720589569161	85	127
255.5	255.720589569161	61	127
255.5	255.720589569161	46	127
255.77863945578233	255.95278911564625	44	127
255.77863945578233	256.0108390022676	87	127
255.77863945578233	256.0108390022676	68	127
255.77863945578233	256.0108390022676	66	127
256.0340589569161	256.20820861678004	48	127
256.27784580498866	256.46362811791386	85	127
256.27784580498866	256.46362811791386	68	127
256.27784580498866	256.46362811791386	65	127
256.27784580498866	256.46362811791386	49	127
256.55650793650796	256.7190476190476	82	127
256.55650793650796	256.7190476190476	65	127
256.55650793650796	256.7190476190476	49	127
256.55650793650796	256.7190476190476	37	127
256.80031746031744	256.9976870748299	80	127
256.80031746031744	256.9976870748299	60	127
256.80031746031744	257.3575963718821	66	127
256.80031746031744	257.3575963718821	39	127
257.0789569160998	257.264716553288	56	127
257.0789569160998	257.264716553288	75	127
257.36920634920637	258.4837641723356	56	127
257.36920634920637	257.64784580498866	75	127
257.36920634920637	257.8916553287982	41	127
257.65945578231293	258.19351473922904	73	127
257.65945578231293	257.74072562358276	70	127
257.74072562358276	257.8219954648526	68	127
257.8219954648526	257.91485260770975	67	127
257.91485260770975	258.19351473922904	49	127
257.91485260770975	258.1354648526077	68	127
258.2051247165533	258.4837641723356	73	127
258.2051247165533	258.4837641723356	56	127
258.2051247165533	258.4024943310658	61	127
258.4953741496599	259.0178231292517	42	127
258.4953741496599	258.7624036281179	75	127
258.4953741496599	259.517052154195	54	127
258.7624036281179	259.2732426303855	73	127
258.7624036281179	258.84367346938774	84	127
258.84367346938774	258.9481632653061	82	127
258.9481632653061	259.029410430839	81	127
259.029410430839	259.2151927437642	82	127
259.029410430839	259.2732426303855	49	127
259.28485260770975	259.517052154195	73	127
259.28485260770975	259.4590022675737	70	127
259.28485260770975	259.517052154195	58	127
259.28485260770975	259.517052154195	56	127
259.5286621315193	259.7724716553288	75	127
259.5286621315193	260.01628117913833	41	127
259.5286621315193	260.5619274376417	56	127
259.78408163265306	260.28331065759636	73	127
259.78408163265306	259.8653514739229	70	127
259.8653514739229	259.9466213151928	68	127
259.9466213151928	260.03950113378687	67	127
260.03950113378687	260.28331065759636	49	127
260.03950113378687	260.20204081632653	68	127
260.28331065759636	260.4922902494331	61	127
260.28331065759636	260.5619274376417	73	127
260.28331065759636	260.5619274376417	56	127
260.573537414966	261.3398185941043	78	127
260.573537414966	261.58360544217686	56	127
260.573537414966	261.09600907029477	39	127
260.573537414966	261.58360544217686	66	127
260.8521995464853	260.9334693877551	70	127
260.9334693877551	261.01473922902494	68	127
261.01473922902494	261.10761904761904	67	127
261.10761904761904	261.3398185941043	44	127
261.10761904761904	261.281746031746	68	127
261.3514285714286	261.5255782312925	56	127
261.3514285714286	261.4675283446712	75	127
261.3514285714286	261.58360544217686	54	127
261.4675283446712	261.59521541950113	72	127
261.59521541950113	261.86226757369616	75	127
261.59521541950113	262.1176870748299	37	127
261.59521541950113	262.64013605442176	56	127
261.59521541950113	262.64013605442176	65	127
261.86226757369616	261.95514739229026	75	127
261.86226757369616	262.0596371882086	73	127
261.95514739229026	262.0364172335601	73	127
262.0364172335601	262.1292970521542	72	127
262.1292970521542	262.30342403628117	73	127
262.1292970521542	262.30342403628117	75	127
262.1292970521542	262.37310657596373	44	127
262.384716553288	262.64013605442176	49	127
262.384716553288	262.58208616780047	77	127
262.384716553288	262.58208616780047	65	127
262.65174603174603	262.81426303854875	70	127
262.65174603174603	263.1161451247166	42	127
262.65174603174603	263.6385714285714	54	127
262.8839455782313	263.05809523809523	70	127
262.8839455782313	262.96521541950113	72	127
262.96521541950113	263.04648526077096	70	127
263.04648526077096	263.12773242630385	69	127
263.12773242630385	263.27868480725624	72	127
263.12773242630385	263.27868480725624	70	127
263.12773242630385	263.37156462585034	46	127
263.3831746031746	263.55732426303854	58	127
263.3831746031746	263.55732426303854	73	127
263.3831746031746	263.6385714285714	54	127
263.65020408163264	263.9172335600907	70	127
263.65020408163264	264.149410430839	44	127
263.65020408163264	264.63705215419503	49	127
263.928843537415	264.0101133786848	63	127
263.928843537415	264.09138321995465	68	127
264.0101133786848	264.0797732426304	61	127
264.0797732426304	264.1610430839002	60	127
264.1610430839002	264.3351927437642	61	127
264.1610430839002	264.3932426303855	49	127
264.1610430839002	264.3351927437642	66	127
264.40485260770976	264.5790022675737	65	127
264.40485260770976	264.5790022675737	56	127
264.40485260770976	264.63705215419503	53	127
264.68349206349205	264.76473922902494	63	127
264.68349206349205	264.93891156462587	48	127
264.68349206349205	265.18272108843536	44	127
264.76473922902494	264.85761904761904	65	127
264.85761904761904	264.95052154195014	63	127
264.95052154195014	265.0201814058957	65	127
264.95052154195014	265.0201814058957	73	127
265.0201814058957	265.1014512471655	72	127
265.0201814058957	265.1014512471655	63	127
265.1014512471655	265.18272108843536	65	127
265.1014512471655	265.18272108843536	70	127
265.18272108843536	265.44975056689344	51	127
265.18272108843536	265.2872108843537	63	127
265.18272108843536	265.3917006802721	72	127
265.18272108843536	265.44975056689344	66	127
265.2872108843537	265.3800907029478	65	127
265.3800907029478	265.4613605442177	63	127
265.4613605442177	265.58907029478456	61	127
265.4613605442177	265.63551020408164	63	127
265.4613605442177	265.6819274376417	60	127
265.58907029478456	265.69356009070293	63	127
265.69356009070293	265.8792970521542	53	127
265.69356009070293	265.8792970521542	61	127
265.69356009070293	266.1927664399093	61	127
265.94897959183675	266.13473922902494	65	127
265.94897959183675	266.13473922902494	56	127
266.2043990929705	266.3785487528345	61	127
266.2043990929705	266.3785487528345	53	127
266.4598185941043	266.622358276644	77	127
266.4598185941043	266.622358276644	61	127
266.4598185941043	266.622358276644	68	127
266.6920181405896	267.7833560090703	68	127
266.6920181405896	267.7833560090703	59	127
266.6920181405896	266.90097505668933	73	127
266.9706575963719	267.1564172335601	80	127
266.9706575963719	267.1564172335601	75	127
267.22607709750565	267.4350566893424	73	127
267.22607709750565	267.4350566893424	77	127
267.504716553288	267.725283446712	85	127
267.504716553288	267.725283446712	77	127
267.7949659863946	267.98072562358277	58	127
267.7949659863946	267.98072562358277	85	127
267.7949659863946	267.98072562358277	78	127
267.7949659863946	267.98072562358277	66	127
268.05038548752833	268.2245351473923	78	127
268.05038548752833	268.2245351473923	58	127
268.05038548752833	268.2245351473923	66	127
268.05038548752833	268.2245351473923	87	127
268.2941950113379	268.5612244897959	61	127
268.2941950113379	268.4799546485261	85	127
268.2941950113379	268.5612244897959	80	127
268.2941950113379	268.5612244897959	59	127
268.5728344671202	268.74696145124716	89	127
268.8166439909297	269.0024036281179	66	127
268.8166439909297	269.0024036281179	90	127
268.8166439909297	269.0024036281179	78	127
268.8166439909297	269.0024036281179	58	127
269.0720634920635	269.24621315192746	61	127
269.0720634920635	269.24621315192746	90	127
269.0720634920635	269.24621315192746	82	127
269.0720634920635	269.24621315192746	39	127
269.315873015873	269.84993197278914	61	127
269.315873015873	269.49002267573695	37	127
269.315873015873	269.84993197278914	92	127
269.315873015873	269.84993197278914	83	127
269.55965986394557	269.7338321995465	41	127
269.84993197278914	270.94126984126984	90	127
269.84993197278914	270.1749886621315	82	127
269.84993197278914	270.1749886621315	61	127
269.84993197278914	270.44204081632654	42	127
270.1866213151927	270.6858276643991	54	127
270.1866213151927	270.2678911564626	71	127
270.2678911564626	270.34916099773244	70	127
270.34916099773244	270.4536507936508	68	127
270.4536507936508	270.62780045351474	70	127
270.4536507936508	270.6858276643991	49	127
270.6974603174603	270.94126984126984	54	127
270.6974603174603	270.88321995464855	58	127
270.6974603174603	270.94126984126984	58	127
270.9528798185941	271.1850793650794	56	127
270.9528798185941	271.4288888888889	47	127
270.9528798185941	271.9513378684807	87	127
271.19666666666666	271.70750566893423	54	127
271.19666666666666	271.2779591836735	80	127
271.2779591836735	271.3592290249433	78	127
271.3592290249433	271.4288888888889	77	127
271.4288888888889	271.6494784580499	78	127
271.4288888888889	271.70750566893423	54	127
271.71913832199544	271.89328798185943	66	127
271.71913832199544	271.9513378684807	54	127
271.71913832199544	271.9513378684807	63	127
271.962947845805	272.43895691609976	46	127
271.962947845805	272.0442176870748	85	127
271.962947845805	272.19514739229027	56	127
272.0906575963719	272.1719274376417	73	127
272.20675736961454	272.28802721088437	75	127
272.20675736961454	272.70598639455784	54	127
272.28802721088437	272.3692970521542	73	127
272.3228344671202	272.404126984127	77	127
272.3692970521542	272.4621768707483	72	127
272.4621768707483	272.6479365079365	73	127
272.4621768707483	272.5550566893424	78	127
272.4621768707483	272.70598639455784	54	127
272.5898866213152	272.67115646258503	80	127
272.7175963718821	272.79886621315194	82	127
272.7175963718821	272.89174603174604	66	127
272.7175963718821	272.9614058956916	54	127
272.7175963718821	272.9614058956916	61	127
272.84530612244896	272.92657596371885	83	127
272.97301587301587	273.70444444444445	59	127
272.97301587301587	273.0426530612245	85	127
272.97301587301587	273.4606349206349	44	127
273.0891156462585	273.17038548752834	87	127
273.20521541950114	273.286485260771	89	127
273.20521541950114	273.286485260771	75	127
273.286485260771	273.39097505668934	73	127
273.35614512471653	273.4374149659864	90	127
273.39097505668934	273.4722448979592	72	127
273.4722448979592	273.64639455782316	73	127
273.4722448979592	273.64639455782316	92	127
273.4722448979592	273.70444444444445	49	127
273.727664399093	273.8669841269841	56	127
273.727664399093	273.92503401360545	83	127
273.727664399093	273.92503401360545	61	127
273.727664399093	273.98308390022675	59	127
273.8669841269841	273.994693877551	53	127
273.994693877551	275.0395918367347	73	127
273.994693877551	274.23850340136056	83	127
273.994693877551	274.23850340136056	66	127
273.994693877551	274.5287528344671	42	127
274.25011337868483	274.3546031746032	68	127
274.25011337868483	274.5287528344671	82	127
274.3546031746032	274.45909297052157	66	127
274.45909297052157	274.5403628117914	65	127
274.5403628117914	274.7145124716553	83	127
274.5403628117914	274.7145124716553	66	127
274.5403628117914	274.79578231292516	49	127
274.79578231292516	275.0395918367347	58	127
274.79578231292516	274.9815192743764	85	127
274.79578231292516	274.9815192743764	58	127
275.05120181405897	277.2570975056689	66	127
275.05120181405897	275.56204081632654	47	127
275.05120181405897	275.23696145124717	87	127
275.32984126984127	275.4111111111111	65	127
275.32984126984127	275.5039909297052	87	127
275.4111111111111	275.492358276644	63	127
275.492358276644	275.5736507936508	62	127
275.5736507936508	275.7710204081633	63	127
275.5736507936508	275.8522902494331	51	127
275.5736507936508	275.7710204081633	89	127
275.8639002267574	276.0380498866213	90	127
275.8639002267574	276.0380498866213	54	127
275.8639002267574	276.1076870748299	59	127
276.11931972789114	276.3863492063492	87	127
276.11931972789114	276.6649886621315	49	127
276.3979591836735	276.4908390022676	63	127
276.3979591836735	276.5837188208617	85	127
276.4908390022676	276.5721088435374	61	127
276.5721088435374	276.6765986394558	60	127
276.6765986394558	276.8855782312925	61	127
276.6765986394558	276.9552380952381	54	127
276.6765986394558	276.8855782312925	83	127
276.9552380952381	277.1758276643991	82	127
276.9552380952381	277.1758276643991	49	127
276.9552380952381	277.2570975056689	58	127
277.2570975056689	278.06979591836733	61	127
277.2570975056689	277.349977324263	80	127
277.2570975056689	278.06979591836733	65	127
277.2570975056689	278.06979591836733	49	127
277.349977324263	277.4312244897959	82	127
277.4312244897959	277.51251700680274	80	127
277.51251700680274	277.60539682539684	82	127
277.60539682539684	277.68666666666667	80	127
277.68666666666667	277.744693877551	82	127
277.744693877551	277.8143764172336	80	127
277.8143764172336	277.87242630385487	82	127
277.87242630385487	277.9304761904762	80	127
277.9304761904762	278.0233560090703	82	127
278.0233560090703	278.04655328798185	80	127
278.04655328798185	278.0814058956916	82	127
278.0814058956916	278.16267573696143	80	127
278.16267573696143	278.27877551020407	80	127
278.29038548752834	278.7780045351474	78	127
278.78961451247164	280.1943990929705	80	127
280.61238095238093	280.68204081632655	56	127
280.68204081632655	280.74009070294784	58	127
280.74009070294784	280.80972789115646	59	127
280.80972789115646	280.86780045351475	61	127
280.86780045351475	280.92585034013604	63	127
280.92585034013604	280.99551020408165	65	127
280.99551020408165	281.05356009070294	66	127
281.05356009070294	281.18126984126985	68	127
281.18126984126985	281.2509297052154	70	127
281.2509297052154	281.30897959183676	71	127
281.30897959183676	281.3902494331066	73	127
281.3902494331066	281.5179591836735	75	127
281.5179591836735	281.6108390022676	77	127
281.6108390022676	281.72691609977323	78	127
281.72691609977323	281.7965986394558	80	127
281.7965986394558	281.8546485260771	82	127
281.8546485260771	281.91269841269843	83	127
281.91269841269843	281.95913832199545	85	127
281.9707482993197	283.09691609977324	87	127
281.9707482993197	282.36548752834466	59	127
282.53963718820864	282.78344671201813	68	127
282.85308390022675	283.0272562358277	66	127
283.09691609977324	283.28267573696144	59	127
283.09691609977324	283.2130158730159	85	127
283.2130158730159	283.35233560090705	83	127
283.35233560090705	283.526485260771	58	127
283.35233560090705	283.5845351473923	85	127
283.59614512471654	283.75868480725626	66	127
283.59614512471654	283.75868480725626	54	127
283.8283446712018	283.9908843537415	61	127
283.8283446712018	283.9908843537415	49	127
283.8283446712018	284.07215419501136	78	127
284.08374149659863	284.26952380952383	58	127
284.08374149659863	284.26952380952383	46	127
284.3740136054422	284.90807256235826	63	127
284.3740136054422	284.6178231292517	47	127
284.3740136054422	284.90807256235826	51	127
284.3740136054422	285.1867120181406	75	127
284.67587301587304	284.85002267573697	56	127
284.9196825396825	285.0938321995465	53	127
284.9196825396825	285.8833106575964	53	127
284.9196825396825	285.8833106575964	65	127
285.1983219954649	285.3143990929705	73	127
285.1983219954649	285.36086167800454	44	127
285.3143990929705	285.4305215419501	71	127
285.4305215419501	285.5930612244898	46	127
285.4305215419501	285.6511111111111	73	127
285.6627210884354	285.8252380952381	54	127
285.8833106575964	286.45219954648525	54	127
285.8833106575964	286.1270975056689	49	127
285.8833106575964	286.20839002267576	66	127
285.8833106575964	286.45219954648525	66	127
286.22	286.39414965986396	46	127
286.4754195011338	287.48548752834466	59	127
286.4754195011338	286.95142857142855	63	127
286.4754195011338	286.661179138322	44	127
286.4754195011338	287.21845804988664	87	127
286.7308390022676	286.89337868480726	54	127
286.9746485260771	287.99632653061224	65	127
286.9746485260771	287.1487755102041	53	127
287.21845804988664	287.4158276643991	44	127
287.21845804988664	287.3345578231293	85	127
287.3345578231293	287.49709750566893	83	127
287.49709750566893	287.68285714285713	46	127
287.49709750566893	287.75251700680275	85	127
287.49709750566893	287.75251700680275	58	127
287.76410430839	287.93827664399095	56	127
288.0079365079365	288.2401360544218	90	127
288.0079365079365	288.2401360544218	58	127
288.0079365079365	288.18208616780043	54	127
288.0079365079365	288.9947619047619	66	127
288.2401360544218	288.42589569161	46	127
288.49555555555554	288.6697052154195	47	127
288.49555555555554	288.7393650793651	80	127
288.49555555555554	288.7393650793651	56	127
288.75097505668936	288.9251247165533	59	127
289.0063945578231	289.30825396825395	56	127
289.0063945578231	289.2269841269841	39	127
289.0063945578231	289.30825396825395	85	127
289.0063945578231	289.30825396825395	65	127
289.3198639455782	289.52884353741496	37	127
289.62172335600906	289.9235827664399	78	127
289.62172335600906	289.9235827664399	66	127
289.62172335600906	289.9235827664399	58	127
289.62172335600906	289.9235827664399	42	127
293.27884353741496	293.52267573696145	70	127
293.77809523809526	294.033514739229	76	127
294.3005215419501	294.5327437641723	82	127
294.7997732426304	295.0319727891156	76	127
294.7997732426304	295.28739229024944	55	127
294.96231292517007	295.0784126984127	64	127
295.1248299319728	295.24095238095236	70	127
295.2990022675737	295.531179138322	82	127
295.2990022675737	295.41510204081635	76	127
295.46154195011337	295.577641723356	64	127
295.46154195011337	295.577641723356	64	127
295.6240816326531	295.7401587301587	58	127
295.798231292517	296.0304308390023	75	127
295.798231292517	296.28585034013605	57	127
295.9607709750567	296.0768707482993	63	127
296.1233106575964	296.23941043083903	69	127
296.2974603174603	296.41356009070296	75	127
296.2974603174603	296.5296598639456	81	127
296.46	296.5760997732426	63	127
296.46	296.5760997732426	63	127
296.63414965986397	296.73863945578233	57	127
296.7966893424036	297.04049886621317	74	127
296.7966893424036	297.28430839002266	56	127
296.95920634920634	297.0753287981859	62	127
297.13337868480727	297.23786848072564	68	127
297.2959183673469	297.41201814058957	74	127
297.2959183673469	297.5397278911565	80	127
297.45845804988664	297.5745351473923	62	127
297.45845804988664	297.5745351473923	62	127
297.6326077097506	297.7487074829932	56	127
297.79514739229023	298.0389569160998	73	127
297.79514739229023	298.3059863945578	55	127
297.9692970521542	298.08537414965986	61	127
298.14344671201815	298.2595464852608	67	127
298.3175963718821	298.5730158730159	79	127
298.3175963718821	298.4336961451247	73	127
298.49172335600906	298.6194557823129	64	127
298.49172335600906	298.6194557823129	61	127
298.67750566893426	298.80519274376417	55	127
298.86326530612246	299.36249433106576	52	127
298.86326530612246	299.36249433106576	55	127
298.86326530612246	299.6063038548753	79	127
299.0374149659864	299.153514739229	61	127
299.1999546485261	299.31603174603174	67	127
299.37410430839003	299.4785941043084	73	127
299.5366439909297	299.6527437641723	61	127
299.5366439909297	299.6527437641723	61	127
299.6178911564626	299.7456235827664	77	127
299.6991836734694	299.81528344671204	55	127
299.7456235827664	299.87333333333333	76	127
299.87333333333333	300.6047619047619	79	127
300.03585034013605	300.15197278911563	61	127
300.1984126984127	300.31451247165535	67	127
300.37256235827664	300.4886621315193	73	127
300.53510204081635	300.65120181405894	61	127
300.53510204081635	300.65120181405894	61	127
300.6163718820862	300.7440589569161	77	127
300.697641723356	300.81374149659865	55	127
300.7440589569161	300.87179138321994	76	127
300.87179138321994	301.59160997732425	82	127
301.03433106575966	301.1504081632653	61	127
301.1968707482993	301.31297052154196	70	127
301.35938775510203	301.4755102040816	73	127
301.5219501133787	301.63804988662133	61	127
301.5219501133787	301.63804988662133	61	127
301.6032199546485	301.73092970521543	81	127
301.6960997732426	301.800589569161	55	127
301.73092970521543	301.84702947845807	79	127
301.84702947845807	302.62489795918367	82	127
302.0095691609977	302.12566893424037	61	127
302.1836961451247	302.2998185941043	70	127
302.35786848072564	302.48555555555555	73	127
302.54362811791384	302.67133786848075	61	127
302.54362811791384	302.67133786848075	61	127
302.63650793650794	302.7874149659864	81	127
302.7409977324263	302.8803174603175	55	127
302.7874149659864	302.9383673469388	79	127
302.9383673469388	303.94843537414965	64	127
302.9383673469388	303.94843537414965	73	127
302.9383673469388	305.1442403628118	82	127
302.9383673469388	305.1442403628118	43	127
303.9600453514739	306.35170068027213	61	127
303.9600453514739	306.35170068027213	52	127
305.155873015873	306.35170068027213	81	127
305.155873015873	306.35170068027213	45	127
306.3632879818594	306.85092970521544	61	127
306.3632879818594	306.85092970521544	64	127
306.8625396825397	307.62879818594104	73	127
306.8625396825397	307.62879818594104	67	127
306.8625396825397	307.62879818594104	64	127
306.8625396825397	307.62879818594104	57	127
307.6404081632653	307.75650793650794	62	127
307.6404081632653	307.75650793650794	74	127
307.6404081632653	307.75650793650794	65	127
307.6404081632653	307.8726077097506	58	127
307.75650793650794	307.8726077097506	61	127
307.75650793650794	307.8726077097506	64	127
307.75650793650794	307.8726077097506	76	127
307.8726077097506	310.33392290249435	82	127
307.8726077097506	308.97555555555556	73	127
307.8726077097506	310.33392290249435	43	127
307.8726077097506	308.97555555555556	64	127
308.9871655328798	310.33392290249435	61	127
308.9871655328798	310.33392290249435	52	127
310.3455328798186	310.9956916099773	80	127
310.3455328798186	310.9956916099773	60	127
310.3455328798186	310.9956916099773	51	127
310.3455328798186	310.9956916099773	44	127
311.0073015873016	311.5877777777778	72	127
311.0073015873016	311.5877777777778	63	127
311.5877777777778	312.5398185941043	72	127
311.5877777777778	312.5398185941043	75	127
311.5877777777778	312.5398185941043	66	127
311.5877777777778	312.5398185941043	56	127
312.5514285714286	312.7139455782313	73	127
312.5514285714286	312.7139455782313	65	127
312.5514285714286	312.93455782312924	58	127
312.7139455782313	312.9461678004535	75	127
312.7139455782313	312.9461678004535	72	127
312.7139455782313	312.9461678004535	63	127
312.9461678004535	314.09555555555556	75	127
312.9461678004535	314.09555555555556	72	127
312.9461678004535	315.51197278911565	82	127
312.9461678004535	315.51197278911565	42	127
314.10716553287983	315.9879818594104	63	127
314.10716553287983	315.9879818594104	60	127
315.5235827664399	315.9879818594104	81	127
315.5235827664399	315.9879818594104	41	127
316.01120181405895	316.4871882086168	75	127
316.01120181405895	316.4871882086168	72	127
316.01120181405895	316.4871882086168	65	127
316.01120181405895	316.9748299319728	81	127
316.498820861678	317.32312925170066	78	127
316.498820861678	317.32312925170066	75	127
316.9864399092971	317.55532879818594	65	127
316.9864399092971	317.55532879818594	81	127
317.32312925170066	317.45083900226757	77	127
317.32312925170066	317.45083900226757	73	127
317.45083900226757	317.5669387755102	72	127
317.45083900226757	317.55532879818594	75	127
317.5669387755102	318.71632653061226	80	127
317.5669387755102	318.71632653061226	65	127
317.5669387755102	318.05455782312924	75	127
318.0661678004535	319.3316553287982	74	127
318.0661678004535	318.2519274376417	65	127
318.32158730158733	318.6582766439909	58	127
318.72793650793653	319.6451247165533	83	127
318.72793650793653	319.6451247165533	68	127
319.3432653061225	319.6451247165533	58	127
319.3432653061225	319.91215419501134	74	127
319.6567120181406	319.80766439909297	67	127
319.6567120181406	319.80766439909297	82	127
319.80766439909297	319.91215419501134	80	127
319.80766439909297	319.9237641723356	65	127
319.9237641723356	320.4578231292517	80	127
319.9237641723356	321.1544217687075	73	127
319.9237641723356	321.1544217687075	70	127
320.22562358276645	320.3997732426304	58	127
320.469433106576	320.63197278911565	63	127
320.469433106576	321.67687074829934	79	127
321.16603174603176	321.9206802721088	77	127
321.16603174603176	321.9206802721088	73	127
321.6884807256236	321.9206802721088	63	127
321.6884807256236	322.16448979591837	79	127
321.9322902494331	322.04839002267573	75	127
321.9322902494331	322.04839002267573	72	127
322.04839002267573	322.17609977324264	73	127
322.04839002267573	322.17609977324264	70	127
322.17609977324264	323.48802721088435	63	127
322.17609977324264	322.7914285714286	73	127
322.17609977324264	323.48802721088435	78	127
322.501179138322	322.721746031746	63	127
322.80303854875285	324.0104761904762	72	127
322.80303854875285	323.1861678004535	56	127
323.4996371882086	324.31233560090703	82	127
323.4996371882086	324.31233560090703	66	127
324.02208616780047	324.31233560090703	56	127
324.02208616780047	324.5561451247166	72	127
324.3355555555556	324.4516553287982	65	127
324.3355555555556	324.4516553287982	80	127
324.4516553287982	324.56773242630385	63	127
324.4516553287982	324.5561451247166	78	127
324.56773242630385	325.7055328798186	71	127
324.56773242630385	325.1018140589569	78	127
324.56773242630385	325.7055328798186	68	127
324.81156462585034	325.0437641723356	56	127
325.1134240362812	326.2628117913832	77	127
325.1134240362812	325.38043083900226	61	127
325.71714285714285	326.4950113378685	71	127
325.71714285714285	326.4950113378685	75	127
326.2628117913832	326.76204081632653	77	127
326.2628117913832	326.4950113378685	61	127
326.5065986394558	326.6343310657596	70	127
326.5065986394558	326.6343310657596	73	127
326.6343310657596	326.76204081632653	71	127
326.6343310657596	326.76204081632653	68	127
326.78526077097507	327.400589569161	68	127
326.78526077097507	327.400589569161	77	127
326.78526077097507	327.400589569161	71	127
327.02907029478456	327.2148299319728	49	127
327.4121995464853	327.5863492063492	61	127
327.4121995464853	328.0971882086168	70	127
327.4121995464853	328.0971882086168	66	127
327.4121995464853	328.5964172335601	78	127
328.0971882086168	328.944716553288	73	127
328.0971882086168	328.944716553288	70	127
328.6196371882086	328.944716553288	61	127
328.6196371882086	329.2233560090703	78	127
328.9563265306123	329.10725623582766	68	127
328.9563265306123	329.10725623582766	71	127
329.10725623582766	329.2233560090703	66	127
329.10725623582766	329.23496598639457	70	127
329.23496598639457	329.7574149659864	70	127
329.23496598639457	329.7574149659864	66	127
329.23496598639457	329.7574149659864	78	127
329.4787528344671	329.6645351473923	49	127
329.7574149659864	329.93156462585034	61	127
329.7574149659864	330.24503401360545	65	127
329.7574149659864	330.7674829931973	80	127
329.7574149659864	330.7674829931973	68	127
330.2566439909297	331.0461224489796	41	127
330.2566439909297	331.0461224489796	56	127
330.77909297052156	331.37120181405896	80	127
330.77909297052156	331.37120181405896	68	127
331.05773242630386	331.2086394557823	39	127
331.05773242630386	331.2086394557823	54	127
331.2086394557823	331.38281179138323	37	127
331.2086394557823	331.38281179138323	53	127
331.38281179138323	331.56857142857143	80	127
331.38281179138323	331.6265986394558	66	127
331.38281179138323	331.6265986394558	63	127
331.38281179138323	331.6265986394558	36	127
331.638231292517	331.8007709750567	87	127
331.9284580498866	332.1839002267574	60	127
331.9284580498866	332.1142403628118	80	127
331.9284580498866	332.1839002267574	63	127
331.9284580498866	332.7179591836735	56	127
332.1839002267574	332.4044897959184	90	127
332.47414965986394	332.6482766439909	61	127
332.47414965986394	333.6815873015873	89	127
332.47414965986394	332.6482766439909	65	127
332.72956916099776	332.9037188208617	65	127
332.72956916099776	332.9037188208617	61	127
332.72956916099776	332.9037188208617	68	127
332.97337868480724	333.13591836734696	61	127
332.97337868480724	333.13591836734696	56	127
332.97337868480724	333.13591836734696	65	127
333.2055782312925	333.37972789115645	68	127
333.2055782312925	333.37972789115645	65	127
333.2055782312925	333.37972789115645	73	127
333.44938775510207	334.7845124716553	75	127
333.44938775510207	334.7845124716553	68	127
333.44938775510207	334.7845124716553	66	127
333.6815873015873	333.85573696145127	84	127
333.92539682539683	334.0879365079365	80	127
334.1575963718821	334.32013605442177	87	127
334.3897959183673	335.82943310657595	85	127
334.7961224489796	334.9702947845805	73	127
334.7961224489796	334.9702947845805	68	127
334.7961224489796	334.9702947845805	65	127
335.0283446712018	335.2024716553288	53	127
335.0283446712018	335.2024716553288	73	127
335.0283446712018	335.2024716553288	37	127
335.27215419501135	335.4811337868481	56	127
335.27215419501135	335.4811337868481	72	127
335.27215419501135	335.4811337868481	41	127
335.55079365079365	335.82943310657595	70	127
335.55079365079365	335.82943310657595	58	127
335.55079365079365	335.82943310657595	42	127
335.8410430839002	336.0268027210884	85	127
336.09646258503403	336.28222222222223	84	127
336.09646258503403	336.3518820861678	66	127
336.09646258503403	336.3518820861678	61	127
336.09646258503403	336.3518820861678	46	127
336.3518820861678	336.537641723356	82	127
336.6073015873016	336.8278911564626	82	127
336.6073015873016	336.8278911564626	63	127
336.6073015873016	336.8278911564626	56	127
336.6073015873016	336.8278911564626	48	127
336.8394784580499	337.00204081632654	80	127
337.0717006802721	337.31551020408165	78	127
337.0717006802721	337.3851700680272	61	127
337.0717006802721	337.3851700680272	56	127
337.0717006802721	337.3851700680272	49	127
337.3967800453515	337.5709297052154	77	127
337.640589569161	337.87278911564624	75	127
337.640589569161	337.87278911564624	63	127
337.640589569161	337.87278911564624	58	127
337.640589569161	337.87278911564624	54	127
337.87278911564624	338.1049886621315	71	127
338.1165986394558	338.3371882086168	68	127
338.1165986394558	338.3371882086168	70	127
338.1165986394558	338.3371882086168	58	127
338.1165986394558	338.3371882086168	53	127
338.34879818594106	338.6158276643991	74	127
338.62743764172336	338.8828344671202	66	127
338.62743764172336	338.8828344671202	70	127
338.62743764172336	338.8828344671202	51	127
338.62743764172336	338.8828344671202	75	127
338.8944671201814	339.08020408163264	77	127
339.1498866213152	339.32403628117913	78	127
339.1498866213152	339.3820861678005	66	127
339.1498866213152	339.3820861678005	63	127
339.1498866213152	339.3820861678005	56	127
339.39367346938775	339.6142857142857	72	127
339.6839455782313	339.85809523809525	65	127
339.6839455782313	339.85809523809525	53	127
339.6839455782313	340.8449433106576	80	127
339.9277551020408	340.0902947845805	68	127
339.9277551020408	340.0902947845805	65	127
340.1599546485261	340.32249433106574	61	127
340.1599546485261	340.32249433106574	65	127
340.39215419501136	340.554693877551	73	127
340.39215419501136	340.554693877551	65	127
340.62433106575963	341.3441723356009	60	127
340.62433106575963	341.3441723356009	75	127
340.85655328798185	341.04231292517005	87	127
340.85655328798185	341.04231292517005	48	127
341.1003628117914	341.2861224489796	80	127
341.1003628117914	341.2861224489796	44	127
341.35578231292516	341.5415192743764	90	127
341.35578231292516	341.5415192743764	72	127
341.35578231292516	341.5415192743764	56	127
341.35578231292516	341.5415192743764	51	127
341.611201814059	341.77374149659863	89	127
341.611201814059	341.77374149659863	73	127
341.611201814059	341.77374149659863	56	127
341.611201814059	342.5167800453515	49	127
341.84337868480725	342.0059410430839	77	127
341.84337868480725	342.0059410430839	70	127
341.84337868480725	342.0059410430839	85	127
342.0639909297052	342.2961904761905	87	127
342.0639909297052	342.2265306122449	68	127
342.0639909297052	342.2961904761905	78	127
342.2961904761905	342.4587074829932	72	127
342.52839002267575	342.7373696145125	85	127
342.52839002267575	342.7373696145125	77	127
342.52839002267575	342.7373696145125	73	127
342.99278911564625	343.1785260770975	85	127
342.99278911564625	343.1785260770975	73	127
342.99278911564625	343.1785260770975	65	127
342.99278911564625	343.1785260770975	46	127
343.24820861678006	343.422358276644	44	127
343.24820861678006	343.49201814058955	87	127
343.24820861678006	343.49201814058955	72	127
343.24820861678006	343.49201814058955	66	127
343.5036281179138	343.7009977324263	45	127
343.7822448979592	343.9912244897959	74	127
343.7822448979592	344.31632653061223	65	127
343.7822448979592	344.31632653061223	86	127
343.7822448979592	344.31632653061223	46	127
344.06090702947847	344.25827664399094	62	127
344.3279365079365	345.02453514739227	63	127
345.03614512471654	345.19868480725626	62	127
345.2683446712018	346.01138321995467	63	127
346.02299319727894	346.38290249433106	62	127
346.4990022675737	347.24204081632655	63	127
347.2536507936508	347.42780045351475	62	127
347.5439002267574	348.01990929705215	63	127
348.0315192743764	348.2637188208617	62	127
348.27532879818597	348.4494784580499	70	127
348.51913832199546	348.8209977324263	63	127
348.51913832199546	349.3202267573696	66	127
348.8209977324263	348.9951473922903	66	127
349.0880272108844	349.3202267573696	63	127
349.0880272108844	349.3202267573696	60	127
349.33183673469387	349.4943764172336	68	127
349.56403628117914	349.7962358276644	61	127
349.56403628117914	350.31868480725626	65	127
349.8078458049887	350.0168253968254	65	127
350.086485260771	350.31868480725626	61	127
350.086485260771	350.31868480725626	58	127
350.33027210884353	350.4928344671202	66	127
350.56249433106575	350.78308390022676	60	127
350.56249433106575	350.72503401360547	63	127
350.794693877551	350.9572335600907	63	127
350.794693877551	350.9572335600907	66	127
351.0268934240363	351.2474603174603	65	127
351.0268934240363	351.2474603174603	61	127
351.0268934240363	351.4912925170068	65	127
351.2590929705215	351.73510204081634	59	127
351.4912925170068	351.73510204081634	62	127
351.7467120181406	351.97891156462583	58	127
352.2227210884354	352.38526077097504	58	127
352.2227210884354	352.38526077097504	50	127
352.54780045351475	353.36049886621316	54	127
352.54780045351475	353.36049886621316	51	127
352.8380498866213	353.0702494331066	71	127
353.13990929705216	353.882947845805	70	127
353.37210884353743	353.55786848072563	70	127
353.37210884353743	353.55786848072563	58	127
353.37210884353743	353.55786848072563	50	127
353.63913832199546	354.37056689342404	54	127
353.63913832199546	354.37056689342404	51	127
353.63913832199546	353.882947845805	66	127
353.8945578231293	354.05709750566893	71	127
354.1267573696145	354.8581859410431	70	127
354.3821768707483	354.55632653061224	58	127
354.3821768707483	354.55632653061224	50	127
354.62596371882086	355.40385487528346	51	127
354.62596371882086	355.40385487528346	54	127
354.86979591836734	355.0787755102041	71	127
355.14843537414964	355.9263038548753	70	127
355.4154648526077	355.62444444444446	50	127
355.4154648526077	355.62444444444446	70	127
355.4154648526077	355.62444444444446	58	127
355.68249433106575	356.1701133786848	51	127
355.68249433106575	356.1701133786848	54	127
355.68249433106575	355.9263038548753	66	127
355.93791383219957	356.1120634920635	71	127
356.18172335600906	356.6577324263039	70	127
356.18172335600906	356.3442630385488	53	127
356.18172335600906	356.40231292517007	50	127
356.41392290249433	356.58807256235826	70	127
356.41392290249433	356.58807256235826	65	127
356.66931972789115	357.0524716553288	51	127
356.66931972789115	357.5284807256236	66	127
357.0524716553288	357.238231292517	63	127
357.0524716553288	357.238231292517	78	127
357.3078911564626	357.5284807256236	75	127
357.3078911564626	357.5284807256236	48	127
357.54009070294785	357.7026303854875	63	127
357.54009070294785	357.7026303854875	68	127
357.7722902494331	358.57337868480727	65	127
357.7722902494331	358.07414965986396	49	127
358.08575963718823	358.25990929705216	61	127
358.08575963718823	358.25990929705216	77	127
358.3295691609977	358.57337868480727	73	127
358.3295691609977	358.57337868480727	46	127
358.58498866213154	358.7475283446712	66	127
358.58498866213154	358.7475283446712	61	127
358.8404081632653	359.002947845805	63	127
358.8404081632653	359.07260770975057	48	127
359.1074376417234	359.26997732426304	75	127
359.1074376417234	359.26997732426304	66	127
359.1074376417234	359.26997732426304	56	127
359.3396371882086	359.6066666666667	77	127
359.3396371882086	359.6066666666667	49	127
359.61827664399095	359.7924263038549	65	127
359.61827664399095	359.7924263038549	56	127
359.8504761904762	360.0594557823129	61	127
359.8504761904762	360.0594557823129	56	127
359.8504761904762	360.11750566893426	47	127
360.1291156462585	360.2916553287982	85	127
360.1291156462585	360.2916553287982	65	127
360.1291156462585	360.2916553287982	61	127
360.36131519274375	360.53546485260773	42	127
360.36131519274375	360.6051247165533	87	127
360.36131519274375	360.6051247165533	66	127
360.36131519274375	360.6051247165533	61	127
360.61673469387756	360.7792743764172	42	127
360.61673469387756	360.83732426303857	85	127
360.84893424036284	361.650022675737	42	127
360.84893424036284	361.0463038548753	84	127
360.84893424036284	361.08113378684806	70	127
360.84893424036284	361.08113378684806	61	127
361.08113378684806	361.3829931972789	82	127
361.42943310657597	361.650022675737	60	127
361.42943310657597	361.650022675737	82	127
361.42943310657597	361.650022675737	63	127
361.66163265306125	361.89383219954647	80	127
361.66163265306125	361.8241723356009	44	127
361.90544217687074	362.6368707482993	38	127
361.90544217687074	362.1028117913832	78	127
361.90544217687074	362.12603174603174	65	127
361.90544217687074	362.12603174603174	59	127
362.137641723356	362.3350113378685	77	127
362.3698412698413	362.6368707482993	68	127
362.3698412698413	362.6368707482993	77	127
362.3698412698413	362.8690702947846	58	127
362.6484807256236	362.81102040816324	66	127
362.6484807256236	362.81102040816324	42	127
362.6484807256236	362.8690702947846	75	127
362.88068027210886	363.0432199546485	68	127
362.88068027210886	363.07804988662133	75	127
362.88068027210886	363.37990929705217	56	127
362.88068027210886	363.37990929705217	41	127
363.1360997732426	363.3102267573696	68	127
363.1360997732426	363.34507936507936	74	127
363.37990929705217	363.6353287981859	54	127
363.37990929705217	363.6353287981859	42	127
363.37990929705217	363.6353287981859	75	127
363.37990929705217	363.6353287981859	70	127
363.6469387755102	363.8210657596372	56	127
363.6469387755102	363.8210657596372	68	127
363.6469387755102	363.8210657596372	41	127
363.6469387755102	363.89074829931974	77	127
363.89074829931974	364.0881179138322	56	127
363.89074829931974	364.0881179138322	39	127
363.89074829931974	364.0881179138322	68	127
363.89074829931974	364.122947845805	78	127
364.16938775510204	364.4015873015873	44	127
364.16938775510204	364.4015873015873	66	127
364.16938775510204	364.4015873015873	56	127
364.16938775510204	364.4363945578231	72	127
364.48285714285714	364.7150566893424	75	127
364.48285714285714	364.9936961451247	65	127
364.48285714285714	364.9936961451247	37	127
364.48285714285714	365.5277551020408	56	127
364.7266666666667	365.2607029478458	73	127
365.005306122449	365.2607029478458	49	127
365.005306122449	366.0850340136054	61	127
365.272335600907	365.5277551020408	53	127
365.272335600907	365.5277551020408	73	127
365.5393650793651	365.7831746031746	75	127
365.5393650793651	366.595873015873	58	127
365.5393650793651	366.0850340136054	42	127
365.8063945578231	366.32884353741497	73	127
366.0850340136054	366.7351927437642	61	127
366.0850340136054	366.32884353741497	49	127
366.3520634920635	366.595873015873	58	127
366.3520634920635	366.595873015873	73	127
366.60748299319727	366.8512925170068	75	127
366.60748299319727	367.09507936507936	41	127
366.60748299319727	367.5827210884354	56	127
366.7351927437642	366.80485260770973	68	127
366.8629024943311	367.33891156462585	73	127
366.8629024943311	366.9441723356009	70	127
366.9790022675737	367.06027210884355	72	127
367.10671201814057	367.18798185941046	73	127
367.10671201814057	367.33891156462585	49	127
367.2228117913832	367.3040589569161	75	127
367.3505215419501	367.43179138321995	77	127
367.3505215419501	367.5827210884354	73	127
367.3505215419501	367.5827210884354	56	127
367.46662131519275	367.5478911564626	78	127
367.5827210884354	368.10517006802723	39	127
367.5827210884354	367.6639909297052	80	127
367.5827210884354	368.59278911564627	56	127
367.5827210884354	368.59278911564627	48	127
367.5827210884354	368.3489795918367	78	127
367.7104081632653	367.79170068027213	82	127
367.8265306122449	367.90780045351477	84	127
367.96585034013606	368.0703401360544	85	127
368.1167573696145	368.29092970521543	87	127
368.1167573696145	368.3489795918367	44	127
368.360589569161	368.534716553288	78	127
368.360589569161	368.47668934240363	75	127
368.360589569161	368.59278911564627	54	127
368.47668934240363	368.60439909297054	72	127
368.60439909297054	368.8365759637188	75	127
368.60439909297054	368.68566893424037	49	127
368.60439909297054	368.68566893424037	56	127
368.60439909297054	368.8365759637188	77	127
368.60439909297054	369.0920181405896	37	127
368.7204988662132	368.801768707483	49	127
368.84820861678	369.3474149659864	73	127
368.84820861678	368.9294784580499	70	127
368.84820861678	368.9294784580499	51	127
368.9294784580499	369.01074829931974	68	127
368.96430839002267	369.04555555555555	53	127
369.01074829931974	369.0920181405896	67	127
369.0920181405896	369.28938775510204	68	127
369.0920181405896	369.19650793650794	54	127
369.0920181405896	369.3474149659864	44	127
369.242925170068	369.32421768707485	56	127
369.3590476190476	369.56802721088434	73	127
369.3590476190476	369.4287074829932	58	127
369.3590476190476	369.50997732426305	61	127
369.3590476190476	369.56802721088434	53	127
369.46353741496597	369.54478458049886	60	127
369.5796371882086	369.82344671201815	73	127
369.5796371882086	369.66090702947844	61	127
369.5796371882086	370.0904761904762	37	127
369.7189569160998	369.8002267573696	63	127
369.8350566893424	370.3342857142857	71	127
369.8350566893424	369.9279365079365	66	127
369.8350566893424	369.9279365079365	65	127
369.9279365079365	370.0208163265306	65	127
369.96274376417233	370.05564625850343	66	127
370.0208163265306	370.10208616780045	63	127
370.10208616780045	370.3342857142857	44	127
370.10208616780045	370.2762358276644	65	127
370.10208616780045	370.2762358276644	68	127
370.34589569161	370.5897052154195	71	127
370.34589569161	370.50843537414966	56	127
370.34589569161	370.50843537414966	59	127
370.34589569161	370.5897052154195	53	127
370.60131519274375	371.5649433106576	54	127
370.60131519274375	370.6825850340136	37	127
370.60131519274375	370.8451247165533	71	127
370.74063492063493	370.82190476190476	37	127
370.85673469387757	370.9380045351474	39	127
370.85673469387757	370.9380045351474	75	127
370.85673469387757	371.32113378684807	70	127
370.9380045351474	371.01927437641723	73	127
370.9844217687075	371.0657142857143	41	127
371.01927437641723	371.10054421768706	72	127
371.10054421768706	371.1702040816327	42	127
371.10054421768706	371.2630839002268	73	127
371.2166439909297	371.2979138321995	44	127
371.33274376417233	371.50689342403626	66	127
371.33274376417233	371.41401360544216	46	127
371.33274376417233	371.5649433106576	70	127
371.448843537415	371.5301133786848	48	127
371.5765532879819	372.62142857142857	53	127
371.5765532879819	371.6578231292517	49	127
371.5765532879819	371.8087528344671	70	127
371.7042403628118	371.7855328798186	51	127
371.82036281179137	371.91324263038547	75	127
371.82036281179137	371.91324263038547	53	127
371.82036281179137	372.30795918367346	68	127
371.91324263038547	371.9829024943311	73	127
371.936462585034	372.01773242630384	54	127
371.9829024943311	372.0641723356009	72	127
372.0641723356009	372.23832199546484	73	127
372.0641723356009	372.23832199546484	56	127
372.3195918367347	372.5401814058957	65	127
372.3195918367347	372.5401814058957	49	127
372.3195918367347	372.62142857142857	68	127
372.6330612244898	373.72439909297054	68	127
372.6330612244898	372.72591836734694	73	127
372.6330612244898	372.72591836734694	53	127
372.6330612244898	372.72591836734694	47	127
372.7956009070295	372.8884807256236	53	127
372.7956009070295	372.8884807256236	47	127
372.7956009070295	372.8884807256236	61	127
372.9232879818594	373.00458049886623	53	127
372.9232879818594	373.00458049886623	47	127
372.9232879818594	373.00458049886623	61	127
373.05102040816325	373.12068027210887	53	127
373.05102040816325	373.12068027210887	47	127
373.05102040816325	373.12068027210887	61	127
373.1555102040816	373.2367573696145	53	127
373.1555102040816	373.2367573696145	47	127
373.1555102040816	373.2367573696145	61	127
373.27160997732426	373.3528798185941	61	127
373.27160997732426	373.3528798185941	53	127
373.27160997732426	373.3528798185941	47	127
373.39931972789117	373.480589569161	47	127
373.39931972789117	373.480589569161	61	127
373.39931972789117	373.480589569161	53	127
373.5154195011338	373.59668934240364	53	127
373.5154195011338	373.59668934240364	47	127
373.5154195011338	373.59668934240364	61	127
373.6431065759637	373.72439909297054	61	127
373.6431065759637	373.72439909297054	53	127
373.6431065759637	373.72439909297054	47	127
373.7475963718821	373.81727891156464	68	127
373.7475963718821	373.81727891156464	61	127
373.7475963718821	373.81727891156464	53	127
373.7475963718821	373.81727891156464	47	127
373.8521088435374	373.921768707483	70	127
373.8521088435374	373.921768707483	61	127
373.8521088435374	373.921768707483	53	127
373.8521088435374	373.921768707483	47	127
373.96820861678003	374.03786848072565	72	127
373.96820861678003	374.03786848072565	61	127
373.96820861678003	374.03786848072565	53	127
373.96820861678003	374.03786848072565	47	127
374.0726984126984	374.1539455782313	73	127
374.0726984126984	374.1539455782313	61	127
374.0726984126984	374.1539455782313	53	127
374.0726984126984	374.1539455782313	47	127
374.2004081632653	374.28167800453514	75	127
374.2004081632653	374.28167800453514	61	127
374.2004081632653	374.28167800453514	53	127
374.2004081632653	374.28167800453514	47	127
374.31650793650795	374.3977777777778	77	127
374.31650793650795	374.3977777777778	61	127
374.31650793650795	374.3977777777778	53	127
374.31650793650795	374.3977777777778	47	127
374.44421768707485	374.50226757369614	78	127
374.44421768707485	374.50226757369614	61	127
374.44421768707485	374.50226757369614	53	127
374.44421768707485	374.50226757369614	47	127
374.53709750566895	374.6183673469388	80	127
374.53709750566895	374.6183673469388	61	127
374.53709750566895	374.6183673469388	53	127
374.53709750566895	374.6183673469388	47	127
374.6531972789116	374.7344671201814	80	127
374.6531972789116	374.7344671201814	61	127
374.6531972789116	374.7344671201814	56	127
374.6531972789116	374.7344671201814	41	127
374.78090702947844	374.8621541950113	82	127
374.78090702947844	374.8621541950113	61	127
374.78090702947844	374.8621541950113	56	127
374.78090702947844	374.8621541950113	41	127
374.8970068027211	374.9550566893424	84	127
374.8970068027211	374.9550566893424	61	127
374.8970068027211	374.9550566893424	56	127
374.8970068027211	374.9550566893424	41	127
375.00149659863945	375.0827664399093	85	127
375.00149659863945	375.0827664399093	61	127
375.00149659863945	375.0827664399093	56	127
375.00149659863945	375.0827664399093	41	127
375.1175963718821	375.1988662131519	87	127
375.1175963718821	375.1988662131519	61	127
375.1175963718821	375.1988662131519	56	127
375.1175963718821	375.1988662131519	41	127
375.245306122449	375.31496598639455	61	127
375.245306122449	375.31496598639455	56	127
375.245306122449	375.31496598639455	89	127
375.245306122449	375.31496598639455	41	127
375.36140589569163	375.44267573696146	90	127
375.36140589569163	375.44267573696146	61	127
375.36140589569163	375.44267573696146	56	127
375.36140589569163	375.44267573696146	41	127
375.47748299319727	375.5587755102041	41	127
375.47748299319727	375.5587755102041	61	127
375.47748299319727	375.5587755102041	56	127
375.47748299319727	375.7097052154195	92	127
375.6052154195011	375.686462585034	56	127
375.6052154195011	375.686462585034	41	127
375.6052154195011	375.686462585034	61	127
375.72131519274376	375.8025850340136	61	127
375.72131519274376	375.8025850340136	56	127
375.72131519274376	375.8025850340136	41	127
375.84902494331067	375.9302947845805	61	127
375.84902494331067	375.9302947845805	56	127
375.84902494331067	375.9302947845805	41	127
375.9651247165533	376.04639455782313	61	127
375.9651247165533	376.0696145124717	54	127
375.9651247165533	376.0696145124717	42	127
375.9651247165533	376.1973015873016	94	127
376.08122448979594	376.1857142857143	54	127
376.08122448979594	376.1857142857143	42	127
376.08122448979594	376.1624943310658	61	127
376.2089342403628	376.30179138321995	54	127
376.2089342403628	376.30179138321995	42	127
376.2089342403628	376.2902040816327	61	127
376.31342403628116	376.39467120181405	61	127
376.31342403628116	376.41791383219953	54	127
376.31342403628116	376.41791383219953	42	127
376.44113378684807	376.67333333333335	84	127
376.44113378684807	376.53401360544217	66	127
376.44113378684807	376.53401360544217	51	127
376.44113378684807	376.53401360544217	44	127
376.5572335600907	376.6617233560091	51	127
376.5572335600907	376.6617233560091	44	127
376.5572335600907	376.6617233560091	66	127
376.6849433106576	376.7778231292517	66	127
376.6849433106576	376.7778231292517	51	127
376.6849433106576	376.7778231292517	44	127
376.80104308390025	376.9055328798186	44	127
376.80104308390025	376.9055328798186	51	127
376.80104308390025	376.9055328798186	66	127
376.9055328798186	376.9984126984127	46	127
376.9055328798186	377.1261224489796	85	127
376.9055328798186	376.9984126984127	65	127
376.9055328798186	376.9984126984127	49	127
377.0216326530612	377.11448979591836	49	127
377.0216326530612	377.11448979591836	46	127
377.0216326530612	377.11448979591836	65	127
377.13773242630384	377.2422222222222	65	127
377.13773242630384	377.2422222222222	49	127
377.13773242630384	377.2422222222222	46	127
377.26544217687075	377.3699319727891	46	127
377.26544217687075	377.3699319727891	49	127
377.26544217687075	377.3699319727891	65	127
377.3815419501134	377.497641723356	48	127
377.3815419501134	377.497641723356	63	127
377.3815419501134	377.62532879818593	80	127
377.3815419501134	377.497641723356	51	127
377.52083900226756	377.61374149659866	63	127
377.52083900226756	377.61374149659866	51	127
377.52083900226756	377.61374149659866	48	127
377.63696145124715	377.7298185941043	61	127
377.63696145124715	377.7298185941043	53	127
377.63696145124715	377.7298185941043	49	127
377.7530612244898	377.83430839002267	61	127
377.7530612244898	377.83430839002267	53	127
377.7530612244898	377.83430839002267	49	127
377.85755102040815	377.9736507936508	42	127
377.85755102040815	377.9736507936508	61	127
377.85755102040815	378.0432879818594	82	127
377.85755102040815	377.9736507936508	51	127
377.99687074829933	378.0432879818594	42	127
377.99687074829933	378.0432879818594	61	127
377.99687074829933	378.0432879818594	51	127
378.0432879818594	378.1361678004535	61	127
378.0432879818594	378.1361678004535	63	127
378.0432879818594	378.1361678004535	43	127
378.1478004535147	378.1826303854875	61	127
378.1478004535147	378.1826303854875	63	127
378.1478004535147	378.1826303854875	43	127
378.1942403628118	378.39160997732426	68	127
378.1942403628118	378.39160997732426	61	127
378.1942403628118	378.39160997732426	65	127
378.1942403628118	378.39160997732426	44	127
378.75149659863945	379.03015873015875	72	127
378.75149659863945	379.03015873015875	66	127
378.75149659863945	379.03015873015875	51	127
378.75149659863945	379.03015873015875	44	127
380.1331065759637	380.2259863945578	49	127
380.1331065759637	380.2259863945578	37	127
380.1331065759637	380.28401360544217	56	127
380.2259863945578	380.3188662131519	56	127
380.2259863945578	380.3188662131519	44	127
380.28401360544217	380.35369614512473	65	127
380.28401360544217	380.35369614512473	61	127
380.3188662131519	380.35369614512473	65	127
380.3188662131519	380.35369614512473	53	127
380.35369614512473	381.3985941043084	73	127
380.35369614512473	381.3985941043084	65	127
380.35369614512473	381.3985941043084	49	127
380.35369614512473	381.3985941043084	37	127
