# onset,offset,note,velocity
0.20820861678004535	2.0658049886621317	55	127
0.20820861678004535	1.6594557823129252	59	127
0.20820861678004535	1.6594557823129252	74	127
0.20820861678004535	1.4736961451247166	67	127
0.20820861678004535	1.6594557823129252	55	127
1.6594557823129252	2.1006349206349206	62	127
1.6594557823129252	2.1006349206349206	71	127
1.6594557823129252	2.1006349206349206	59	127
2.1006349206349206	2.530204081632653	59	127
2.1006349206349206	2.3212244897959184	74	127
2.1006349206349206	2.530204081632653	55	127
2.5418140589569163	2.9133333333333336	59	127
2.5418140589569163	2.9133333333333336	64	127
2.5418140589569163	3.366122448979592	64	127
2.5418140589569163	3.714421768707483	67	127
2.9133333333333336	3.366122448979592	52	127
2.9133333333333336	3.366122448979592	55	127
3.366122448979592	3.714421768707483	64	127
3.366122448979592	3.714421768707483	59	127
3.726031746031746	4.1788208616780045	48	127
3.726031746031746	3.96984126984127	69	127
3.726031746031746	4.1788208616780045	64	127
3.726031746031746	4.608390022675737	60	127
3.96984126984127	4.190430839002268	71	127
4.190430839002268	4.608390022675737	60	127
4.190430839002268	4.608390022675737	72	127
4.190430839002268	4.608390022675737	57	127
4.608390022675737	4.945056689342404	48	127
4.608390022675737	4.782539682539682	76	127
4.608390022675737	4.945056689342404	69	127
4.956689342403628	5.374625850340136	69	127
4.956689342403628	5.374625850340136	67	127
4.956689342403628	5.374625850340136	60	127
4.956689342403628	5.80421768707483	62	127
5.421065759637188	5.80421768707483	72	127
5.421065759637188	5.80421768707483	50	127
5.421065759637188	6.164126984126984	66	127
5.80421768707483	6.164126984126984	69	127
5.80421768707483	6.164126984126984	60	127
6.198956916099773	6.593696145124716	86	127
6.198956916099773	6.593696145124716	74	127
6.198956916099773	6.593696145124716	59	127
6.198956916099773	6.593696145124716	43	127
6.593696145124716	6.930385487528345	71	127
6.593696145124716	6.930385487528345	83	127
6.593696145124716	6.930385487528345	62	127
6.593696145124716	6.930385487528345	47	127
6.941995464852607	7.104535147392291	74	127
6.941995464852607	7.325124716553288	59	127
6.941995464852607	7.104535147392291	86	127
6.941995464852607	7.325124716553288	43	127
7.325124716553288	8.462902494331066	67	127
7.325124716553288	7.7430839002267575	64	127
7.325124716553288	7.7430839002267575	47	127
7.325124716553288	8.462902494331066	79	127
7.7430839002267575	8.05655328798186	55	127
7.7430839002267575	8.05655328798186	40	127
8.079773242630386	8.462902494331066	64	127
8.079773242630386	8.462902494331066	47	127
8.462902494331066	8.834421768707482	36	127
8.462902494331066	8.660272108843538	81	127
8.462902494331066	8.660272108843538	69	127
8.462902494331066	8.834421768707482	64	127
8.660272108843538	8.834421768707482	83	127
8.660272108843538	8.834421768707482	71	127
8.834421768707482	9.182721088435374	84	127
8.834421768707482	9.182721088435374	72	127
8.834421768707482	9.182721088435374	52	127
8.834421768707482	9.182721088435374	45	127
9.194331065759638	9.368480725623582	78	127
9.194331065759638	9.368480725623582	66	127
9.194331065759638	9.565827664399093	69	127
9.194331065759638	9.565827664399093	60	127
9.194331065759638	9.565827664399093	38	127
9.565827664399093	10.018639455782314	78	127
9.565827664399093	10.018639455782314	66	127
9.565827664399093	10.018639455782314	60	127
9.565827664399093	10.018639455782314	69	127
9.565827664399093	10.018639455782314	50	127
10.018639455782314	10.471428571428572	67	127
10.018639455782314	10.471428571428572	59	127
10.018639455782314	10.471428571428572	38	127
10.018639455782314	10.831337868480725	79	127
10.018639455782314	10.831337868480725	67	127
10.483038548752834	10.831337868480725	59	127
10.483038548752834	10.831337868480725	43	127
10.900975056689342	11.30734693877551	74	127
10.900975056689342	11.30734693877551	59	127
10.900975056689342	11.30734693877551	55	127
10.900975056689342	11.736916099773243	55	127
11.318956916099774	11.736916099773243	71	127
11.318956916099774	11.736916099773243	62	127
11.318956916099774	11.736916099773243	59	127
11.736916099773243	11.911065759637188	74	127
11.736916099773243	12.085215419501134	59	127
11.736916099773243	12.085215419501134	55	127
12.085215419501134	12.630884353741497	59	127
12.085215419501134	12.630884353741497	64	127
12.085215419501134	12.967573696145125	64	127
12.085215419501134	13.304263038548752	67	127
12.630884353741497	12.967573696145125	55	127
12.630884353741497	12.967573696145125	52	127
12.979183673469388	13.304263038548752	64	127
12.979183673469388	13.304263038548752	59	127
13.304263038548752	13.490022675736961	69	127
13.304263038548752	13.722222222222221	64	127
13.304263038548752	13.722222222222221	48	127
13.304263038548752	14.20984126984127	60	127
13.490022675736961	13.722222222222221	71	127
13.722222222222221	14.20984126984127	60	127
13.722222222222221	14.20984126984127	72	127
13.722222222222221	14.20984126984127	57	127
14.221451247165533	14.430430839002268	76	127
14.221451247165533	14.604580498866213	69	127
14.221451247165533	14.604580498866213	48	127
14.604580498866213	14.952879818594104	67	127
14.604580498866213	14.952879818594104	69	127
14.604580498866213	14.952879818594104	60	127
14.604580498866213	15.31278911564626	62	127
14.952879818594104	15.31278911564626	72	127
14.952879818594104	15.31278911564626	50	127
14.952879818594104	15.74235827664399	66	127
15.324399092970522	15.74235827664399	69	127
15.324399092970522	15.74235827664399	60	127
15.753968253968255	16.11387755102041	86	127
15.753968253968255	16.11387755102041	74	127
15.753968253968255	16.11387755102041	59	127
15.753968253968255	16.11387755102041	43	127
16.11387755102041	16.50861678004535	83	127
16.11387755102041	16.50861678004535	47	127
16.11387755102041	16.50861678004535	71	127
16.11387755102041	16.50861678004535	62	127
16.50861678004535	16.856916099773244	43	127
16.50861678004535	16.69437641723356	86	127
16.50861678004535	16.69437641723356	74	127
16.50861678004535	16.856916099773244	59	127
16.868526077097506	17.228412698412697	64	127
16.868526077097506	17.228412698412697	47	127
16.868526077097506	18.099183673469387	79	127
16.868526077097506	18.099183673469387	67	127
17.228412698412697	17.704444444444444	55	127
17.228412698412697	17.704444444444444	40	127
17.704444444444444	18.099183673469387	47	127
17.704444444444444	18.099183673469387	64	127
18.11077097505669	18.296553287981858	81	127
18.11077097505669	18.296553287981858	69	127
18.11077097505669	18.459092970521542	64	127
18.11077097505669	18.459092970521542	36	127
18.296553287981858	18.459092970521542	83	127
18.296553287981858	18.459092970521542	71	127
18.459092970521542	18.853832199546485	84	127
18.459092970521542	18.853832199546485	72	127
18.459092970521542	18.853832199546485	52	127
18.459092970521542	18.853832199546485	45	127
18.853832199546485	19.17891156462585	38	127
18.853832199546485	19.01637188208617	78	127
18.853832199546485	19.01637188208617	66	127
18.853832199546485	19.17891156462585	69	127
18.853832199546485	19.17891156462585	60	127
19.202131519274378	19.631678004535146	66	127
19.202131519274378	19.631678004535146	60	127
19.202131519274378	19.631678004535146	78	127
19.202131519274378	19.631678004535146	69	127
19.202131519274378	19.631678004535146	50	127
19.631678004535146	20.14251700680272	67	127
19.631678004535146	20.14251700680272	59	127
19.631678004535146	20.14251700680272	38	127
19.631678004535146	20.618548752834467	79	127
19.631678004535146	20.618548752834467	67	127
20.154149659863947	20.618548752834467	59	127
20.154149659863947	20.618548752834467	43	127
20.63015873015873	20.990068027210885	59	127
20.63015873015873	20.990068027210885	86	127
20.63015873015873	20.990068027210885	55	127
21.001678004535147	21.442857142857143	84	127
21.001678004535147	21.442857142857143	57	127
21.001678004535147	25.843038548752833	62	127
21.442857142857143	21.77954648526077	55	127
21.442857142857143	21.605396825396827	83	127
21.77954648526077	22.232312925170067	74	127
21.77954648526077	22.95215419501134	81	127
21.77954648526077	22.232312925170067	54	127
22.232312925170067	22.592244897959183	73	127
22.232312925170067	22.592244897959183	52	127
22.615442176870747	22.76639455782313	74	127
22.615442176870747	22.95215419501134	54	127
22.95215419501134	23.474603174603175	55	127
22.95215419501134	23.474603174603175	83	127
23.474603174603175	23.8112925170068	54	127
23.474603174603175	23.8112925170068	81	127
23.822902494331064	23.973832199546486	79	127
23.822902494331064	24.18281179138322	52	127
24.18281179138322	24.728480725623584	50	127
24.18281179138322	25.48312925170068	78	127
24.18281179138322	24.728480725623584	74	127
24.728480725623584	25.111609977324264	49	127
24.728480725623584	25.111609977324264	76	127
25.123219954648526	25.308979591836735	74	127
25.123219954648526	25.48312925170068	48	127
25.48312925170068	25.843038548752833	86	127
25.48312925170068	25.843038548752833	47	127
25.48312925170068	25.843038548752833	74	127
25.843038548752833	26.23777777777778	84	127
25.843038548752833	26.23777777777778	72	127
25.843038548752833	26.23777777777778	54	127
25.843038548752833	26.23777777777778	45	127
26.23777777777778	26.574467120181406	55	127
26.23777777777778	26.574467120181406	83	127
26.23777777777778	26.574467120181406	71	127
26.23777777777778	26.574467120181406	43	127
26.58607709750567	26.922766439909296	81	127
26.58607709750567	26.922766439909296	69	127
26.58607709750567	26.922766439909296	57	127
26.58607709750567	26.922766439909296	42	127
26.922766439909296	27.36394557823129	79	127
26.922766439909296	27.36394557823129	67	127
26.922766439909296	28.072154195011336	50	127
26.922766439909296	27.36394557823129	40	127
27.36394557823129	27.712244897959184	42	127
27.36394557823129	27.712244897959184	81	127
27.36394557823129	27.712244897959184	69	127
27.723854875283447	28.072154195011336	71	127
27.723854875283447	28.072154195011336	83	127
27.723854875283447	28.072154195011336	43	127
28.072154195011336	28.466893424036282	81	127
28.072154195011336	28.466893424036282	69	127
28.072154195011336	28.466893424036282	57	127
28.072154195011336	28.466893424036282	42	127
28.466893424036282	28.873242630385487	85	127
28.466893424036282	28.873242630385487	73	127
28.466893424036282	28.873242630385487	55	127
28.466893424036282	28.873242630385487	40	127
28.873242630385487	29.244761904761905	86	127
28.873242630385487	29.244761904761905	74	127
28.873242630385487	29.244761904761905	54	127
28.873242630385487	29.244761904761905	38	127
29.256371882086167	29.627891156462585	88	127
29.256371882086167	29.627891156462585	76	127
29.256371882086167	29.627891156462585	55	127
29.256371882086167	29.627891156462585	37	127
29.627891156462585	29.964580498866212	90	127
29.627891156462585	29.964580498866212	78	127
29.627891156462585	29.964580498866212	57	127
29.627891156462585	29.964580498866212	36	127
29.964580498866212	30.33609977324263	91	127
29.964580498866212	30.33609977324263	79	127
29.964580498866212	30.33609977324263	50	127
29.964580498866212	30.33609977324263	47	127
30.347709750566892	30.846938775510203	71	127
30.347709750566892	30.846938775510203	59	127
30.347709750566892	30.846938775510203	55	127
30.347709750566892	30.846938775510203	47	127
30.846938775510203	31.380997732426305	59	127
30.846938775510203	31.380997732426305	43	127
30.846938775510203	31.183628117913834	62	127
30.846938775510203	31.183628117913834	74	127
31.380997732426305	31.857006802721088	64	127
31.380997732426305	31.857006802721088	47	127
31.380997732426305	32.19369614512472	67	127
31.857006802721088	32.19369614512472	55	127
31.857006802721088	32.19369614512472	40	127
32.20530612244898	32.58843537414966	79	127
32.20530612244898	32.58843537414966	52	127
32.20530612244898	32.58843537414966	47	127
32.58843537414966	32.78578231292517	81	127
32.58843537414966	32.994784580498866	64	127
32.58843537414966	32.994784580498866	36	127
32.78578231292517	32.994784580498866	83	127
32.994784580498866	33.366303854875284	84	127
32.994784580498866	33.366303854875284	52	127
32.994784580498866	33.366303854875284	45	127
33.377913832199546	33.57528344671202	88	127
33.377913832199546	33.749433106575964	57	127
33.377913832199546	33.749433106575964	36	127
33.749433106575964	34.144172335600906	79	127
33.749433106575964	34.144172335600906	57	127
33.749433106575964	34.144172335600906	48	127
34.144172335600906	34.59696145124717	60	127
34.144172335600906	34.59696145124717	38	127
34.144172335600906	34.95684807256236	78	127
34.59696145124717	34.95684807256236	57	127
34.59696145124717	34.95684807256236	48	127
34.968480725623586	35.30517006802721	71	127
34.968480725623586	35.30517006802721	86	127
34.968480725623586	35.30517006802721	43	127
35.30517006802721	35.68829931972789	83	127
35.30517006802721	35.68829931972789	62	127
35.30517006802721	35.68829931972789	47	127
35.68829931972789	36.083015873015874	67	127
35.68829931972789	35.92049886621315	86	127
35.68829931972789	36.083015873015874	43	127
36.09462585034014	36.52421768707483	64	127
36.09462585034014	36.52421768707483	47	127
36.09462585034014	37.302086167800454	79	127
36.52421768707483	36.89573696145125	55	127
36.52421768707483	36.89573696145125	40	127
36.89573696145125	37.29047619047619	64	127
36.89573696145125	37.302086167800454	47	127
37.302086167800454	37.4878231292517	81	127
37.302086167800454	37.67360544217687	64	127
37.302086167800454	37.67360544217687	36	127
37.4878231292517	37.685215419501134	83	127
37.685215419501134	38.021904761904764	84	127
37.685215419501134	38.021904761904764	52	127
37.685215419501134	38.021904761904764	45	127
38.021904761904764	38.25408163265306	78	127
38.021904761904764	38.41664399092971	69	127
38.021904761904764	38.41664399092971	72	127
38.021904761904764	38.42825396825397	38	127
38.42825396825397	38.79977324263039	72	127
38.42825396825397	38.79977324263039	78	127
38.42825396825397	38.79977324263039	69	127
38.42825396825397	38.79977324263039	50	127
38.997142857142855	39.47315192743764	71	127
38.997142857142855	39.879501133786846	79	127
38.997142857142855	39.47315192743764	38	127
39.47315192743764	39.879501133786846	43	127
39.47315192743764	39.879501133786846	59	127
39.879501133786846	40.29746031746032	86	127
39.879501133786846	40.29746031746032	55	127
39.879501133786846	40.29746031746032	59	127
40.29746031746032	45.16204081632653	62	127
40.29746031746032	40.645759637188206	84	127
40.29746031746032	40.645759637188206	57	127
40.645759637188206	41.086938775510205	55	127
40.645759637188206	40.924399092970525	83	127
41.09854875283447	41.56294784580499	74	127
41.09854875283447	41.56294784580499	54	127
41.09854875283447	42.29437641723356	81	127
41.56294784580499	41.957687074829934	52	127
41.56294784580499	41.957687074829934	73	127
41.957687074829934	42.29437641723356	54	127
41.957687074829934	42.13183673469388	74	127
42.30596371882086	42.723945578231294	55	127
42.30596371882086	42.723945578231294	83	127
42.723945578231294	43.1302947845805	81	127
42.723945578231294	43.1302947845805	54	127
43.1302947845805	43.50181405895692	52	127
43.1302947845805	43.29283446712018	79	127
43.50181405895692	43.9778231292517	50	127
43.50181405895692	43.9778231292517	74	127
43.50181405895692	44.802131519274376	78	127
43.989433106575966	44.337709750566894	76	127
43.989433106575966	44.337709750566894	49	127
44.337709750566894	44.581541950113376	74	127
44.337709750566894	44.802131519274376	48	127
44.802131519274376	45.16204081632653	86	127
44.802131519274376	45.16204081632653	74	127
44.802131519274376	45.16204081632653	47	127
45.17365079365079	45.58	84	127
45.17365079365079	45.58	72	127
45.17365079365079	45.58	54	127
45.17365079365079	45.58	45	127
45.58	45.951519274376416	83	127
45.58	45.951519274376416	71	127
45.58	45.951519274376416	55	127
45.58	45.951519274376416	43	127
45.951519274376416	46.334648526077096	69	127
45.951519274376416	46.334648526077096	81	127
45.951519274376416	46.334648526077096	57	127
45.951519274376416	46.334648526077096	42	127
46.334648526077096	46.69455782312925	40	127
46.334648526077096	46.69455782312925	79	127
46.334648526077096	47.51886621315193	50	127
46.334648526077096	46.69455782312925	67	127
46.706167800453514	47.13573696145125	42	127
46.706167800453514	47.13573696145125	81	127
46.706167800453514	47.13573696145125	69	127
47.13573696145125	47.51886621315193	71	127
47.13573696145125	47.51886621315193	83	127
47.13573696145125	47.51886621315193	43	127
47.51886621315193	47.87877551020408	42	127
47.51886621315193	47.87877551020408	81	127
47.51886621315193	47.87877551020408	69	127
47.51886621315193	47.87877551020408	57	127
47.89038548752834	48.28512471655329	73	127
47.89038548752834	48.28512471655329	85	127
47.89038548752834	48.28512471655329	55	127
47.89038548752834	48.28512471655329	40	127
48.28512471655329	48.691473922902496	86	127
48.28512471655329	48.691473922902496	74	127
48.28512471655329	48.691473922902496	54	127
48.28512471655329	48.691473922902496	38	127
48.691473922902496	49.08621315192744	88	127
48.691473922902496	49.08621315192744	76	127
48.691473922902496	49.08621315192744	55	127
48.691473922902496	49.08621315192744	37	127
49.10943310657596	49.457732426303856	90	127
49.10943310657596	49.457732426303856	78	127
49.10943310657596	49.457732426303856	57	127
49.10943310657596	49.457732426303856	36	127
49.457732426303856	49.81764172335601	91	127
49.457732426303856	49.81764172335601	79	127
49.457732426303856	49.81764172335601	50	127
49.457732426303856	49.81764172335601	47	127
49.81764172335601	50.212380952380954	71	127
49.81764172335601	50.212380952380954	59	127
49.81764172335601	50.212380952380954	55	127
49.81764172335601	50.212380952380954	47	127
50.212380952380954	50.63034013605442	74	127
50.212380952380954	50.63034013605442	62	127
50.212380952380954	50.83931972789116	59	127
50.212380952380954	50.83931972789116	43	127
50.85092970521542	51.199229024943314	64	127
50.85092970521542	51.199229024943314	47	127
50.85092970521542	51.60557823129252	67	127
51.199229024943314	51.60557823129252	55	127
51.199229024943314	51.60557823129252	40	127
51.60557823129252	52.04675736961451	79	127
51.60557823129252	52.04675736961451	52	127
51.60557823129252	52.04675736961451	47	127
52.05836734693877	52.32539682539682	81	127
52.05836734693877	52.49954648526077	64	127
52.05836734693877	52.49954648526077	36	127
52.32539682539682	52.49954648526077	83	127
52.49954648526077	52.95233560090703	84	127
52.49954648526077	52.95233560090703	52	127
52.49954648526077	52.95233560090703	45	127
52.95233560090703	53.12648526077098	88	127
52.95233560090703	53.30063492063492	57	127
52.95233560090703	53.31224489795918	36	127
53.31224489795918	53.64893424036281	79	127
53.31224489795918	53.64893424036281	57	127
53.31224489795918	53.64893424036281	48	127
53.67215419501134	54.07850340136054	60	127
53.67215419501134	54.07850340136054	38	127
53.67215419501134	54.55451247165533	78	127
54.07850340136054	54.55451247165533	57	127
54.07850340136054	54.55451247165533	48	127
54.55451247165533	54.89120181405896	86	127
54.55451247165533	54.89120181405896	71	127
54.55451247165533	54.89120181405896	43	127
54.90281179138322	55.36721088435374	83	127
54.90281179138322	55.36721088435374	62	127
54.90281179138322	55.36721088435374	47	127
55.36721088435374	55.73873015873016	67	127
55.36721088435374	55.576190476190476	86	127
55.36721088435374	55.73873015873016	43	127
55.73873015873016	56.14507936507937	47	127
55.73873015873016	56.8881179138322	79	127
55.73873015873016	56.14507936507937	64	127
56.14507936507937	56.493378684807254	40	127
56.14507936507937	56.493378684807254	55	127
56.50498866213152	56.8881179138322	64	127
56.50498866213152	56.8881179138322	47	127
56.8881179138322	57.12031746031746	81	127
56.8881179138322	57.317687074829934	64	127
56.8881179138322	57.317687074829934	36	127
57.12031746031746	57.317687074829934	83	127
57.317687074829934	57.700816326530614	84	127
57.317687074829934	57.700816326530614	52	127
57.317687074829934	57.700816326530614	45	127
57.712426303854876	58.07233560090703	69	127
57.712426303854876	57.88657596371882	78	127
57.712426303854876	58.07233560090703	72	127
57.712426303854876	58.07233560090703	38	127
58.07233560090703	58.45546485260771	69	127
58.07233560090703	58.45546485260771	72	127
58.07233560090703	58.45546485260771	78	127
58.07233560090703	58.45546485260771	50	127
58.467074829931974	60.15052154195011	79	127
58.467074829931974	59.10562358276644	71	127
58.467074829931974	59.10562358276644	38	127
59.10562358276644	60.15052154195011	59	127
59.10562358276644	60.15052154195011	43	127
60.15052154195011	60.324671201814056	71	127
60.15052154195011	61.265079365079366	79	127
60.324671201814056	60.56848072562358	74	127
60.56848072562358	60.74263038548753	72	127
60.74263038548753	60.90517006802721	71	127
60.90517006802721	61.06770975056689	69	127
61.06770975056689	61.27668934240363	71	127
61.27668934240363	62.35641723356009	81	127
61.27668934240363	61.50888888888889	74	127
61.27668934240363	61.50888888888889	67	127
61.27668934240363	62.019727891156464	69	127
61.50888888888889	61.70625850340136	66	127
61.50888888888889	61.70625850340136	81	127
61.70625850340136	61.868798185941046	79	127
61.70625850340136	61.868798185941046	64	127
61.868798185941046	62.031337868480726	62	127
61.868798185941046	62.031337868480726	78	127
62.031337868480726	62.19387755102041	76	127
62.031337868480726	62.19387755102041	60	127
62.19387755102041	62.36802721088436	78	127
62.19387755102041	62.36802721088436	62	127
62.36802721088436	63.0762358276644	78	127
62.36802721088436	62.53056689342404	66	127
62.36802721088436	62.611836734693874	86	127
62.36802721088436	63.0762358276644	60	127
62.36802721088436	63.0762358276644	74	127
62.53056689342404	62.70471655328798	69	127
62.70471655328798	62.98335600907029	86	127
62.70471655328798	62.902086167800455	67	127
62.902086167800455	63.0762358276644	66	127
63.0762358276644	63.27360544217687	64	127
63.0762358276644	63.34326530612245	86	127
63.27360544217687	63.4825850340136	66	127
63.4825850340136	63.72639455782313	60	127
63.4825850340136	63.72639455782313	62	127
63.4825850340136	63.91215419501134	86	127
63.4825850340136	64.24884353741497	67	127
63.72639455782313	63.9237641723356	59	127
63.72639455782313	63.9237641723356	74	127
63.9237641723356	64.08630385487528	57	127
63.9237641723356	64.59714285714286	91	127
63.9237641723356	64.08630385487528	72	127
64.08630385487528	64.24884353741497	55	127
64.08630385487528	64.24884353741497	71	127
64.24884353741497	64.43458049886621	69	127
64.24884353741497	64.43458049886621	54	127
64.43458049886621	64.59714285714286	71	127
64.43458049886621	64.59714285714286	55	127
64.63197278911565	64.81770975056689	55	127
64.63197278911565	64.81770975056689	71	127
64.63197278911565	65.75814058956917	79	127
64.63197278911565	65.92068027210884	55	127
64.81770975056689	65.03832199546486	59	127
64.81770975056689	65.03832199546486	74	127
65.03832199546486	65.24730158730159	72	127
65.03832199546486	65.24730158730159	57	127
65.24730158730159	65.40984126984127	71	127
65.24730158730159	65.40984126984127	55	127
65.40984126984127	65.59560090702948	69	127
65.40984126984127	65.59560090702948	54	127
65.59560090702948	65.75814058956917	55	127
65.59560090702948	65.75814058956917	71	127
65.75814058956917	66.43151927437641	69	127
65.75814058956917	65.92068027210884	50	127
65.75814058956917	66.77981859410431	81	127
65.92068027210884	66.10643990929705	69	127
65.92068027210884	66.10643990929705	54	127
66.10643990929705	66.26897959183674	52	127
66.10643990929705	66.26897959183674	67	127
66.26897959183674	66.44312925170068	66	127
66.26897959183674	66.44312925170068	50	127
66.44312925170068	66.6056462585034	64	127
66.44312925170068	66.6056462585034	48	127
66.6056462585034	66.77981859410431	66	127
66.6056462585034	66.77981859410431	50	127
66.77981859410431	68.14979591836735	48	127
66.77981859410431	67.0004081632653	78	127
66.77981859410431	67.0004081632653	69	127
66.77981859410431	67.07006802721088	86	127
67.0004081632653	67.17455782312925	72	127
67.0004081632653	67.17455782312925	81	127
67.17455782312925	67.38353741496599	79	127
67.17455782312925	67.38353741496599	71	127
67.17455782312925	67.46480725623583	86	127
67.38353741496599	67.59251700680272	69	127
67.38353741496599	67.59251700680272	78	127
67.59251700680272	67.81310657596372	67	127
67.59251700680272	67.89437641723356	86	127
67.59251700680272	67.81310657596372	76	127
67.81310657596372	67.9872335600907	69	127
67.81310657596372	67.9872335600907	78	127
67.9872335600907	68.16140589569162	79	127
67.9872335600907	68.16140589569162	62	127
67.9872335600907	68.64902494331066	83	127
68.16140589569162	68.32394557823129	74	127
68.16140589569162	68.32394557823129	67	127
68.16140589569162	68.32394557823129	47	127
68.32394557823129	68.48648526077098	45	127
68.32394557823129	68.48648526077098	72	127
68.32394557823129	68.48648526077098	66	127
68.48648526077098	68.64902494331066	67	127
68.48648526077098	68.64902494331066	71	127
68.48648526077098	68.64902494331066	43	127
68.64902494331066	68.83478458049886	69	127
68.64902494331066	68.83478458049886	60	127
68.64902494331066	68.83478458049886	42	127
68.83478458049886	69.03215419501134	59	127
68.83478458049886	69.03215419501134	43	127
68.83478458049886	69.0437641723356	71	127
69.0437641723356	69.82163265306123	43	127
69.0437641723356	69.26433106575963	72	127
69.0437641723356	69.82163265306123	59	127
69.0437641723356	70.16993197278912	79	127
69.26433106575963	69.4501133786848	71	127
69.4501133786848	69.64746031746031	69	127
69.64746031746031	69.82163265306123	67	127
69.82163265306123	70.35569160997733	64	127
69.82163265306123	70.0190022675737	66	127
69.82163265306123	70.35569160997733	72	127
70.0190022675737	70.18154195011338	67	127
70.18154195011338	70.92458049886622	66	127
70.18154195011338	71.2844671201814	81	127
70.35569160997733	70.5530612244898	62	127
70.35569160997733	70.5530612244898	71	127
70.5530612244898	70.76204081632653	69	127
70.5530612244898	70.76204081632653	60	127
70.76204081632653	70.92458049886622	67	127
70.76204081632653	70.92458049886622	59	127
70.92458049886622	71.12195011337869	57	127
70.92458049886622	71.12195011337869	66	127
70.92458049886622	71.4934693877551	72	127
71.12195011337869	71.2844671201814	67	127
71.12195011337869	71.2844671201814	59	127
71.2844671201814	72.05072562358276	57	127
71.2844671201814	71.59795918367347	86	127
71.2844671201814	72.05072562358276	66	127
71.50507936507937	71.69083900226758	71	127
71.69083900226758	71.95786848072562	86	127
71.69083900226758	71.87659863945578	69	127
71.87659863945578	72.06235827664399	67	127
72.06235827664399	72.41065759637188	86	127
72.06235827664399	72.29455782312925	66	127
72.06235827664399	72.65446712018141	69	127
72.06235827664399	72.65446712018141	60	127
72.29455782312925	72.49192743764172	69	127
72.49192743764172	73.14208616780046	67	127
72.49192743764172	72.84022675736962	86	127
72.6660544217687	72.84022675736962	62	127
72.6660544217687	72.84022675736962	59	127
72.84022675736962	73.50199546485261	91	127
72.84022675736962	72.99115646258504	60	127
72.84022675736962	72.99115646258504	57	127
72.99115646258504	73.15369614512471	59	127
72.99115646258504	73.15369614512471	55	127
73.15369614512471	73.66453514739229	76	127
73.15369614512471	73.3278231292517	57	127
73.15369614512471	73.3278231292517	54	127
73.3278231292517	73.50199546485261	59	127
73.3278231292517	73.50199546485261	55	127
73.50199546485261	73.67614512471656	60	127
73.50199546485261	74.27986394557823	55	127
73.50199546485261	74.62816326530613	79	127
73.67614512471656	73.94315192743764	74	127
73.67614512471656	73.94315192743764	59	127
73.94315192743764	74.12893424036281	57	127
73.94315192743764	74.12893424036281	72	127
74.12893424036281	74.2914739229025	71	127
74.12893424036281	74.2914739229025	55	127
74.2914739229025	74.7907029478458	55	127
74.2914739229025	74.46562358276644	69	127
74.2914739229025	74.46562358276644	54	127
74.46562358276644	74.62816326530613	71	127
74.46562358276644	74.63977324263038	55	127
74.63977324263038	75.33637188208617	50	127
74.63977324263038	75.8007709750567	81	127
74.63977324263038	74.80231292517007	71	127
74.80231292517007	74.99968253968254	54	127
74.80231292517007	74.99968253968254	69	127
74.99968253968254	75.18544217687075	67	127
74.99968253968254	75.18544217687075	52	127
75.18544217687075	75.34795918367347	66	127
75.18544217687075	75.34795918367347	50	127
75.34795918367347	75.52213151927438	49	127
75.34795918367347	75.52213151927438	64	127
75.34795918367347	75.96328798185941	69	127
75.52213151927438	75.8007709750567	66	127
75.52213151927438	75.96328798185941	50	127
75.81238095238095	76.05619047619048	86	127
75.81238095238095	76.49734693877551	66	127
75.97492063492064	76.13746031746032	48	127
75.97492063492064	76.13746031746032	62	127
76.13746031746032	76.33482993197279	47	127
76.13746031746032	76.40448979591837	86	127
76.13746031746032	76.33482993197279	62	127
76.33482993197279	76.49734693877551	60	127
76.33482993197279	76.49734693877551	45	127
76.49734693877551	77.03142857142858	72	127
76.49734693877551	76.67151927437642	59	127
76.49734693877551	76.67151927437642	44	127
76.49734693877551	76.76439909297052	86	127
76.67151927437642	76.86888888888889	60	127
76.67151927437642	77.03142857142858	45	127
76.86888888888889	77.03142857142858	54	127
76.86888888888889	77.19396825396825	83	127
77.03142857142858	77.20557823129252	55	127
77.03142857142858	77.20557823129252	71	127
77.03142857142858	77.20557823129252	43	127
77.20557823129252	77.42616780045351	69	127
77.20557823129252	77.42616780045351	57	127
77.20557823129252	77.42616780045351	42	127
77.42616780045351	77.60031746031746	71	127
77.42616780045351	77.60031746031746	55	127
77.42616780045351	77.60031746031746	43	127
77.60031746031746	77.76285714285714	79	127
77.60031746031746	77.76285714285714	72	127
77.60031746031746	77.76285714285714	57	127
77.60031746031746	77.76285714285714	41	127
77.76285714285714	77.94861678004536	38	127
77.76285714285714	77.94861678004536	77	127
77.76285714285714	77.94861678004536	74	127
77.76285714285714	77.94861678004536	59	127
77.94861678004536	79.13283446712018	36	127
77.94861678004536	78.14598639455782	77	127
77.94861678004536	78.71487528344672	76	127
77.94861678004536	79.13283446712018	52	127
77.94861678004536	79.13283446712018	55	127
78.14598639455782	78.34335600907029	76	127
78.34335600907029	78.50589569160998	74	127
78.50589569160998	78.7497052154195	72	127
78.7497052154195	78.95868480725623	71	127
78.95868480725623	79.13283446712018	72	127
79.13283446712018	80.21256235827664	55	127
79.13283446712018	79.31859410430839	84	127
79.13283446712018	79.85265306122449	71	127
79.13283446712018	80.21256235827664	53	127
79.13283446712018	80.21256235827664	38	127
79.31859410430839	79.48113378684808	83	127
79.48113378684808	79.67850340136054	81	127
79.67850340136054	79.87587301587301	79	127
79.87587301587301	80.0384126984127	78	127
80.0384126984127	80.21256235827664	79	127
80.21256235827664	80.45637188208617	53	127
80.21256235827664	80.45637188208617	55	127
80.21256235827664	80.38671201814059	88	127
80.21256235827664	80.45637188208617	43	127
80.21256235827664	81.0136507936508	77	127
80.38671201814059	80.54925170068027	86	127
80.54925170068027	80.85111111111111	84	127
80.54925170068027	80.93238095238095	53	127
80.54925170068027	80.93238095238095	55	127
80.54925170068027	80.93238095238095	43	127
80.85111111111111	81.02526077097505	83	127
81.02526077097505	81.19941043083901	81	127
81.02526077097505	81.29229024943311	53	127
81.02526077097505	81.29229024943311	55	127
81.02526077097505	81.29229024943311	43	127
81.19941043083901	81.38517006802721	83	127
81.38517006802721	82.51133786848072	55	127
81.38517006802721	81.5592970521542	77	127
81.38517006802721	81.74507936507936	43	127
81.38517006802721	82.51133786848072	52	127
81.38517006802721	82.12820861678004	84	127
81.5592970521542	81.74507936507936	76	127
81.74507936507936	82.51133786848072	48	127
81.74507936507936	81.9540589569161	74	127
81.9540589569161	82.13981859410431	72	127
82.13981859410431	82.33718820861678	71	127
82.13981859410431	82.33718820861678	88	127
82.33718820861678	82.53455782312925	72	127
82.33718820861678	82.51133786848072	89	127
82.53455782312925	82.69709750566894	89	127
82.53455782312925	82.69709750566894	77	127
82.53455782312925	83.60265306122449	55	127
82.53455782312925	83.60265306122449	36	127
82.53455782312925	83.60265306122449	52	127
82.69709750566894	82.88285714285715	88	127
82.69709750566894	82.88285714285715	76	127
82.88285714285715	83.10344671201814	74	127
82.88285714285715	83.10344671201814	86	127
83.10344671201814	83.26598639455783	72	127
83.10344671201814	83.26598639455783	84	127
83.26598639455783	83.4285260770975	71	127
83.26598639455783	83.4285260770975	83	127
83.4285260770975	83.60265306122449	72	127
83.4285260770975	83.60265306122449	84	127
83.62589569160998	83.81165532879818	84	127
83.62589569160998	83.81165532879818	72	127
83.62589569160998	84.77528344671202	53	127
83.62589569160998	84.77528344671202	55	127
83.62589569160998	84.77528344671202	38	127
83.81165532879818	83.98578231292517	83	127
83.81165532879818	83.98578231292517	71	127
83.98578231292517	84.20639455782313	69	127
83.98578231292517	84.20639455782313	81	127
84.20639455782313	84.38054421768707	67	127
84.20639455782313	84.38054421768707	79	127
84.38054421768707	84.57791383219954	66	127
84.38054421768707	84.57791383219954	78	127
84.57791383219954	84.77528344671202	79	127
84.57791383219954	84.77528344671202	67	127
84.78689342403628	85.03070294784581	59	127
84.78689342403628	85.03070294784581	50	127
84.78689342403628	85.03070294784581	43	127
84.78689342403628	84.94943310657597	79	127
84.78689342403628	84.94943310657597	67	127
84.94943310657597	85.14680272108843	65	127
84.94943310657597	85.14680272108843	77	127
85.14680272108843	85.39061224489797	43	127
85.14680272108843	85.30934240362812	76	127
85.14680272108843	85.30934240362812	64	127
85.14680272108843	85.39061224489797	50	127
85.14680272108843	85.39061224489797	59	127
85.30934240362812	85.50671201814059	62	127
85.30934240362812	85.50671201814059	74	127
85.50671201814059	85.6924716553288	61	127
85.50671201814059	85.6924716553288	73	127
85.50671201814059	85.76213151927438	50	127
85.50671201814059	85.76213151927438	59	127
85.50671201814059	85.76213151927438	43	127
85.6924716553288	85.84340136054422	62	127
85.6924716553288	85.84340136054422	74	127
85.85501133786848	86.02916099773243	74	127
85.85501133786848	86.02916099773243	62	127
85.85501133786848	86.62124716553288	60	127
85.85501133786848	86.62124716553288	40	127
85.85501133786848	86.62124716553288	52	127
86.02916099773243	86.23814058956916	72	127
86.02916099773243	86.23814058956916	60	127
86.23814058956916	86.40068027210884	71	127
86.23814058956916	86.40068027210884	59	127
86.40068027210884	86.62124716553288	72	127
86.40068027210884	86.62124716553288	60	127
86.62124716553288	86.8534693877551	74	127
86.62124716553288	86.8534693877551	62	127
86.62124716553288	87.21337868480725	65	127
86.8534693877551	87.05083900226758	60	127
86.8534693877551	87.05083900226758	72	127
87.06244897959184	88.1421768707483	60	127
87.06244897959184	87.80548752834467	72	127
87.06244897959184	87.80548752834467	60	127
87.22498866213152	87.43396825396826	64	127
87.43396825396826	87.63133786848073	62	127
87.63133786848073	87.81709750566894	60	127
87.81709750566894	87.97963718820861	59	127
87.81709750566894	88.31632653061224	76	127
87.97963718820861	88.1421768707483	60	127
88.1537641723356	88.32793650793651	60	127
88.1537641723356	88.82716553287982	79	127
88.1537641723356	89.16385487528345	62	127
88.32793650793651	88.50208616780046	59	127
88.32793650793651	88.50208616780046	74	127
88.50208616780046	88.6762358276644	57	127
88.50208616780046	88.6762358276644	72	127
88.6762358276644	88.83877551020409	55	127
88.6762358276644	88.83877551020409	71	127
88.83877551020409	89.00131519274376	69	127
88.83877551020409	89.33800453514739	91	127
88.83877551020409	89.00131519274376	54	127
89.00131519274376	89.16385487528345	71	127
89.00131519274376	89.16385487528345	55	127
89.17544217687075	89.83723356009071	71	127
89.17544217687075	89.41927437641723	67	127
89.17544217687075	89.33800453514739	55	127
89.33800453514739	89.51215419501133	57	127
89.33800453514739	89.51215419501133	89	127
89.51215419501133	89.67469387755102	55	127
89.51215419501133	89.7443537414966	67	127
89.51215419501133	89.67469387755102	88	127
89.67469387755102	89.83723356009071	86	127
89.67469387755102	89.83723356009071	53	127
89.83723356009071	90.1971201814059	84	127
89.83723356009071	90.1971201814059	72	127
89.83723356009071	90.1971201814059	52	127
89.83723356009071	90.26680272108844	67	127
90.1971201814059	90.35968253968254	86	127
90.1971201814059	90.35968253968254	53	127
90.1971201814059	90.37129251700681	71	127
90.37129251700681	90.5918820861678	74	127
90.37129251700681	90.5918820861678	86	127
90.37129251700681	90.5918820861678	53	127
90.37129251700681	90.75442176870749	67	127
90.5918820861678	90.76603174603174	52	127
90.5918820861678	90.76603174603174	88	127
90.5918820861678	90.76603174603174	79	127
90.76603174603174	90.92857142857143	50	127
90.76603174603174	91.5322902494331	72	127
90.76603174603174	90.92857142857143	83	127
90.76603174603174	90.92857142857143	77	127
90.92857142857143	91.10272108843537	76	127
90.92857142857143	91.10272108843537	48	127
90.92857142857143	91.10272108843537	84	127
91.10272108843537	91.31170068027211	86	127
91.10272108843537	91.31170068027211	71	127
91.10272108843537	91.70641723356009	65	127
91.31170068027211	91.5322902494331	72	127
91.31170068027211	91.5322902494331	84	127
91.5322902494331	92.20566893424036	84	127
91.5322902494331	92.20566893424036	67	127
91.5322902494331	92.60038548752834	60	127
91.71804988662132	91.880589569161	64	127
91.880589569161	92.04312925170068	62	127
92.04312925170068	92.21725623582766	60	127
92.21725623582766	92.42625850340136	59	127
92.21725623582766	92.79777777777778	76	127
92.42625850340136	92.60038548752834	60	127
92.61201814058957	92.80938775510204	60	127
92.61201814058957	93.30861678004536	79	127
92.61201814058957	93.66852607709751	62	127
92.80938775510204	92.97192743764172	59	127
92.80938775510204	92.97192743764172	74	127
92.97192743764172	93.15768707482994	57	127
92.97192743764172	93.15768707482994	72	127
93.15768707482994	93.32022675736961	71	127
93.15768707482994	93.32022675736961	55	127
93.32022675736961	93.50598639455782	54	127
93.32022675736961	93.50598639455782	69	127
93.32022675736961	93.83106575963718	91	127
93.50598639455782	93.66852607709751	71	127
93.50598639455782	93.66852607709751	55	127
93.68013605442177	94.34190476190476	71	127
93.68013605442177	93.84267573696145	55	127
93.68013605442177	93.9239455782313	67	127
93.84267573696145	94.00519274376417	57	127
93.84267573696145	94.00519274376417	89	127
94.00519274376417	94.17936507936508	88	127
94.00519274376417	94.17936507936508	55	127
94.00519274376417	94.24902494331066	67	127
94.17936507936508	94.35351473922903	86	127
94.17936507936508	94.35351473922903	53	127
94.35351473922903	94.63215419501134	52	127
94.35351473922903	94.73664399092971	67	127
94.35351473922903	94.63215419501134	84	127
94.35351473922903	95.01528344671202	77	127
94.63215419501134	94.84113378684808	86	127
94.63215419501134	94.85274376417233	50	127
94.85274376417233	95.53773242630386	64	127
94.85274376417233	95.01528344671202	86	127
94.85274376417233	95.01528344671202	48	127
95.01528344671202	95.18943310657596	76	127
95.01528344671202	95.18943310657596	60	127
95.01528344671202	95.18943310657596	88	127
95.18943310657596	95.34036281179138	74	127
95.18943310657596	95.34036281179138	83	127
95.18943310657596	95.34036281179138	65	127
95.34036281179138	95.54934240362812	84	127
95.34036281179138	95.54934240362812	72	127
95.34036281179138	95.54934240362812	64	127
95.54934240362812	95.73510204081633	86	127
95.54934240362812	95.73510204081633	77	127
95.54934240362812	95.73510204081633	59	127
95.73510204081633	95.90925170068027	88	127
95.73510204081633	95.90925170068027	76	127
95.73510204081633	95.90925170068027	60	127
95.90925170068027	96.08340136054422	76	127
95.90925170068027	96.08340136054422	60	127
95.90925170068027	96.16467120181406	88	127
96.08340136054422	96.25755102040816	74	127
96.08340136054422	96.25755102040816	59	127
96.25755102040816	96.42009070294785	72	127
96.25755102040816	96.42009070294785	57	127
96.25755102040816	96.50136054421769	88	127
96.42009070294785	96.59424036281179	71	127
96.42009070294785	96.59424036281179	56	127
96.59424036281179	96.76839002267573	69	127
96.59424036281179	96.76839002267573	54	127
96.59424036281179	96.82643990929705	88	127
96.76839002267573	96.91931972789115	71	127
96.76839002267573	96.91931972789115	56	127
96.91931972789115	97.10507936507936	62	127
96.91931972789115	97.6275283446712	72	127
96.91931972789115	97.6275283446712	57	127
96.91931972789115	97.6275283446712	84	127
97.10507936507936	97.2792290249433	60	127
97.2792290249433	97.45337868480726	59	127
97.45337868480726	97.63913832199546	57	127
97.63913832199546	97.85972789115647	56	127
97.85972789115647	98.2544671201814	57	127
98.2544671201814	98.50988662131519	63	127
98.2544671201814	98.50988662131519	81	127
98.2544671201814	98.50988662131519	71	127
98.2544671201814	98.50988662131519	59	127
98.6027664399093	98.84657596371882	79	127
98.6027664399093	98.84657596371882	71	127
98.6027664399093	98.84657596371882	64	127
98.6027664399093	98.84657596371882	59	127
98.93945578231292	99.20648526077098	69	127
98.93945578231292	99.20648526077098	78	127
98.93945578231292	99.20648526077098	71	127
98.93945578231292	99.20648526077098	59	127
99.3225850340136	100.08884353741496	71	127
99.3225850340136	99.75215419501134	59	127
99.3225850340136	99.75215419501134	69	127
99.3225850340136	99.75215419501134	78	127
99.75215419501134	100.08884353741496	79	127
99.75215419501134	100.5184126984127	64	127
99.75215419501134	100.08884353741496	67	127
100.08884353741496	100.30943310657597	71	127
100.08884353741496	100.30943310657597	55	127
100.08884353741496	100.5184126984127	76	127
100.30943310657597	100.5184126984127	76	127
100.30943310657597	100.53002267573696	56	127
100.53002267573696	100.69256235827665	76	127
100.53002267573696	100.69256235827665	64	127
100.53002267573696	100.77383219954649	88	127
100.53002267573696	100.77383219954649	44	127
100.69256235827665	100.86671201814059	74	127
100.69256235827665	100.86671201814059	62	127
100.86671201814059	101.04086167800453	72	127
100.86671201814059	101.04086167800453	60	127
100.86671201814059	101.1105215419501	88	127
100.86671201814059	101.1105215419501	45	127
101.04086167800453	101.20340136054422	71	127
101.04086167800453	101.20340136054422	59	127
101.20340136054422	101.37755102040816	69	127
101.20340136054422	101.37755102040816	57	127
101.20340136054422	101.47043083900226	88	127
101.20340136054422	101.47043083900226	47	127
101.37755102040816	101.5517006802721	71	127
101.37755102040816	101.56331065759638	59	127
101.56331065759638	101.9	71	127
101.56331065759638	101.9	59	127
101.56331065759638	101.9	44	127
101.56331065759638	102.30634920634921	84	127
101.9	102.30634920634921	72	127
101.9	102.30634920634921	60	127
101.9	102.30634920634921	45	127
102.30634920634921	102.79396825396826	69	127
102.30634920634921	102.79396825396826	57	127
102.30634920634921	102.79396825396826	48	127
102.80557823129251	103.11904761904762	64	127
102.80557823129251	103.11904761904762	83	127
102.80557823129251	103.11904761904762	59	127
102.80557823129251	103.11904761904762	43	127
103.21192743764172	103.49056689342403	59	127
103.21192743764172	103.49056689342403	42	127
103.21192743764172	103.49056689342403	63	127
103.21192743764172	103.49056689342403	83	127
103.5950566893424	103.86208616780046	82	127
103.5950566893424	103.86208616780046	64	127
103.5950566893424	103.86208616780046	61	127
103.5950566893424	103.86208616780046	54	127
103.95496598639455	104.30326530612246	82	127
103.95496598639455	104.30326530612246	64	127
103.95496598639455	104.30326530612246	49	127
103.95496598639455	104.30326530612246	54	127
104.30326530612246	104.65156462585034	66	127
104.30326530612246	104.65156462585034	51	127
104.30326530612246	104.65156462585034	47	127
104.30326530612246	105.0114739229025	83	127
104.65156462585034	105.0114739229025	55	127
104.65156462585034	105.0114739229025	52	127
104.65156462585034	105.0114739229025	52	127
105.0114739229025	105.18562358276644	76	127
105.0114739229025	105.18562358276644	64	127
105.0114739229025	105.18562358276644	48	127
105.0114739229025	105.30172335600908	88	127
105.18562358276644	105.39460317460318	74	127
105.18562358276644	105.39460317460318	62	127
105.18562358276644	105.39460317460318	47	127
105.39460317460318	105.58036281179139	72	127
105.39460317460318	105.58036281179139	60	127
105.39460317460318	105.58036281179139	45	127
105.39460317460318	105.66163265306122	88	127
105.58036281179139	105.75451247165533	71	127
105.58036281179139	105.75451247165533	59	127
105.58036281179139	105.75451247165533	44	127
105.75451247165533	105.92866213151927	69	127
105.75451247165533	105.92866213151927	57	127
105.75451247165533	105.92866213151927	42	127
105.75451247165533	106.00993197278912	88	127
105.92866213151927	106.09120181405896	71	127
105.92866213151927	106.09120181405896	59	127
105.92866213151927	106.09120181405896	44	127
106.09120181405896	106.43950113378685	71	127
106.09120181405896	106.43950113378685	59	127
106.09120181405896	106.43950113378685	44	127
106.09120181405896	106.81102040816326	84	127
106.43950113378685	106.81102040816326	72	127
106.43950113378685	106.81102040816326	60	127
106.43950113378685	106.81102040816326	45	127
106.81102040816326	107.25219954648526	69	127
106.81102040816326	107.25219954648526	64	127
106.81102040816326	107.25219954648526	48	127
107.26380952380953	107.60049886621316	81	127
107.26380952380953	107.60049886621316	78	127
107.26380952380953	107.60049886621316	63	127
107.26380952380953	107.60049886621316	59	127
107.69337868480726	107.97201814058957	79	127
107.69337868480726	107.97201814058957	76	127
107.69337868480726	107.97201814058957	64	127
107.69337868480726	107.97201814058957	59	127
108.06489795918367	108.33192743764172	59	127
108.06489795918367	108.33192743764172	78	127
108.06489795918367	108.33192743764172	69	127
108.06489795918367	108.33192743764172	71	127
108.42480725623582	108.8079365079365	59	127
108.42480725623582	108.81954648526077	78	127
108.42480725623582	109.55097505668934	71	127
108.42480725623582	108.8079365079365	69	127
108.81954648526077	109.55097505668934	64	127
108.81954648526077	109.19106575963718	79	127
108.81954648526077	109.55097505668934	67	127
109.19106575963718	109.55097505668934	76	127
109.56258503401361	109.82961451247165	88	127
109.56258503401361	109.82961451247165	68	127
109.56258503401361	109.9108843537415	52	127
109.56258503401361	109.9108843537415	40	127
109.82961451247165	110.00376417233561	86	127
109.82961451247165	110.00376417233561	71	127
110.00376417233561	110.1895238095238	69	127
110.00376417233561	110.1895238095238	84	127
110.00376417233561	110.27079365079365	52	127
110.00376417233561	110.27079365079365	40	127
110.1895238095238	110.3520634920635	83	127
110.1895238095238	110.3520634920635	68	127
110.3520634920635	110.52621315192744	81	127
110.3520634920635	110.52621315192744	66	127
110.3520634920635	110.60748299319728	52	127
110.3520634920635	110.60748299319728	40	127
110.52621315192744	110.68875283446712	83	127
110.52621315192744	110.68875283446712	68	127
110.79324263038549	111.18798185941043	69	127
110.79324263038549	111.18798185941043	52	127
110.79324263038549	111.18798185941043	83	127
110.79324263038549	111.55950113378685	36	127
111.18798185941043	111.55950113378685	84	127
111.18798185941043	111.95424036281179	57	127
111.57111111111111	111.95424036281179	60	127
111.57111111111111	111.95424036281179	81	127
111.96585034013606	112.22126984126984	83	127
111.96585034013606	112.22126984126984	64	127
111.96585034013606	112.22126984126984	55	127
111.96585034013606	112.22126984126984	43	127
112.31414965986394	112.59278911564626	83	127
112.31414965986394	112.59278911564626	63	127
112.31414965986394	112.59278911564626	54	127
112.31414965986394	112.59278911564626	42	127
112.69727891156462	112.9875283446712	82	127
112.69727891156462	112.9875283446712	64	127
112.69727891156462	112.9875283446712	61	127
112.69727891156462	112.9875283446712	54	127
113.12684807256235	113.48675736961451	82	127
113.12684807256235	113.48675736961451	64	127
113.12684807256235	113.48675736961451	49	127
113.12684807256235	113.48675736961451	54	127
113.48675736961451	113.84666666666666	66	127
113.48675736961451	113.84666666666666	51	127
113.48675736961451	113.84666666666666	47	127
113.48675736961451	114.26462585034014	83	127
113.84666666666666	114.26462585034014	55	127
113.84666666666666	114.26462585034014	52	127
113.84666666666666	114.26462585034014	52	127
114.26462585034014	114.61292517006802	83	127
114.26462585034014	114.61292517006802	66	127
114.26462585034014	114.61292517006802	69	127
114.70580498866214	115.01927437641723	83	127
114.70580498866214	115.01927437641723	64	127
114.70580498866214	115.01927437641723	67	127
115.11215419501134	115.35596371882086	66	127
115.11215419501134	115.35596371882086	83	127
115.11215419501134	115.35596371882086	63	127
115.46045351473923	115.84358276643991	83	127
115.46045351473923	115.84358276643991	57	127
115.46045351473923	115.84358276643991	66	127
115.85519274376418	116.21510204081633	59	127
115.85519274376418	116.21510204081633	67	127
115.85519274376418	116.55179138321995	88	127
116.21510204081633	116.55179138321995	55	127
116.21510204081633	116.55179138321995	64	127
116.55179138321995	116.7259410430839	83	127
116.55179138321995	116.80721088435374	66	127
116.55179138321995	116.80721088435374	63	127
116.55179138321995	116.80721088435374	47	127
116.7259410430839	116.90009070294785	81	127
116.90009070294785	117.06263038548752	79	127
116.90009070294785	117.14390022675737	67	127
116.90009070294785	117.14390022675737	64	127
116.90009070294785	117.14390022675737	47	127
117.06263038548752	117.31804988662131	78	127
117.31804988662131	117.50380952380952	76	127
117.31804988662131	117.5734693877551	69	127
117.31804988662131	117.5734693877551	66	127
117.31804988662131	117.5734693877551	47	127
117.50380952380952	117.68956916099773	78	127
117.68956916099773	118.07269841269841	63	127
117.68956916099773	118.07269841269841	78	127
117.68956916099773	118.07269841269841	69	127
117.68956916099773	118.07269841269841	47	127
118.07269841269841	118.44421768707483	67	127
118.07269841269841	118.44421768707483	79	127
118.07269841269841	118.44421768707483	64	127
118.07269841269841	118.81573696145125	52	127
118.44421768707483	118.81573696145125	59	127
118.44421768707483	118.81573696145125	55	127
118.44421768707483	118.81573696145125	76	127
118.8273469387755	119.03632653061224	71	127
118.8273469387755	119.11759637188209	83	127
118.8273469387755	119.11759637188209	54	127
118.8273469387755	119.11759637188209	51	127
119.03632653061224	119.21047619047619	69	127
119.21047619047619	119.45428571428572	83	127
119.21047619047619	119.38462585034014	67	127
119.21047619047619	119.45428571428572	55	127
119.21047619047619	119.45428571428572	52	127
119.38462585034014	119.54716553287982	66	127
119.54716553287982	119.76775510204082	64	127
119.54716553287982	119.84902494331065	83	127
119.54716553287982	119.84902494331065	57	127
119.54716553287982	119.84902494331065	54	127
119.76775510204082	119.9302947845805	66	127
119.94190476190477	120.32503401360545	47	127
119.94190476190477	120.41791383219955	83	127
119.94190476190477	120.41791383219955	66	127
119.94190476190477	120.41791383219955	57	127
120.41791383219955	121.17256235827665	88	127
120.41791383219955	120.6849433106576	47	127
120.41791383219955	120.7778231292517	67	127
120.41791383219955	121.17256235827665	55	127
120.7778231292517	121.0912925170068	47	127
120.7778231292517	121.17256235827665	64	127
121.1841723356009	121.38154195011337	47	127
121.1841723356009	121.46281179138322	83	127
121.1841723356009	121.46281179138322	66	127
121.1841723356009	121.46281179138322	63	127
121.38154195011337	121.55569160997733	45	127
121.55569160997733	121.74145124716553	43	127
121.55569160997733	121.81111111111112	83	127
121.55569160997733	121.81111111111112	67	127
121.55569160997733	121.81111111111112	64	127
121.74145124716553	121.92721088435374	42	127
121.92721088435374	122.20585034013605	40	127
121.92721088435374	122.2871201814059	83	127
121.92721088435374	122.2871201814059	69	127
121.92721088435374	122.2871201814059	66	127
122.20585034013605	122.38	42	127
122.41482993197279	122.75151927437642	83	127
122.41482993197279	122.75151927437642	69	127
122.41482993197279	122.75151927437642	57	127
122.41482993197279	122.75151927437642	42	127
122.75151927437642	123.16947845804988	71	127
122.75151927437642	123.16947845804988	55	127
122.75151927437642	123.16947845804988	43	127
122.75151927437642	123.58743764172335	88	127
123.16947845804988	123.58743764172335	67	127
123.16947845804988	123.58743764172335	59	127
123.16947845804988	123.58743764172335	40	127
123.59904761904762	123.93573696145124	67	127
123.59904761904762	123.93573696145124	86	127
123.59904761904762	123.93573696145124	59	127
123.59904761904762	123.93573696145124	43	127
123.93573696145124	124.52784580498866	83	127
123.93573696145124	124.52784580498866	55	127
123.93573696145124	124.52784580498866	47	127
123.93573696145124	124.34208616780046	79	127
124.34208616780046	124.52784580498866	78	127
124.52784580498866	124.69038548752835	86	127
124.52784580498866	124.69038548752835	79	127
124.52784580498866	124.86453514739229	59	127
124.52784580498866	124.86453514739229	43	127
124.69038548752835	124.86453514739229	71	127
124.87614512471656	125.23605442176871	71	127
124.87614512471656	125.23605442176871	67	127
124.87614512471656	126.0255328798186	79	127
124.87614512471656	125.23605442176871	47	127
125.23605442176871	125.46825396825396	67	127
125.23605442176871	125.64240362811792	59	127
125.23605442176871	125.64240362811792	40	127
125.46825396825396	125.64240362811792	66	127
125.64240362811792	125.83977324263039	67	127
125.64240362811792	126.0255328798186	64	127
125.64240362811792	126.0255328798186	47	127
125.83977324263039	126.0255328798186	59	127
126.03714285714285	126.23451247165534	81	127
126.03714285714285	126.42027210884353	64	127
126.03714285714285	126.42027210884353	52	127
126.03714285714285	126.42027210884353	36	127
126.23451247165534	126.4318820861678	83	127
126.4318820861678	126.90789115646258	45	127
126.4318820861678	126.68730158730159	76	127
126.4318820861678	126.90789115646258	84	127
126.4318820861678	126.90789115646258	48	127
126.68730158730159	126.90789115646258	74	127
126.90789115646258	127.08204081632653	72	127
126.90789115646258	127.08204081632653	88	127
126.90789115646258	127.23297052154194	60	127
126.90789115646258	127.23297052154194	36	127
127.08204081632653	127.23297052154194	69	127
127.24458049886621	127.67414965986394	69	127
127.24458049886621	127.67414965986394	79	127
127.24458049886621	127.67414965986394	57	127
127.24458049886621	127.67414965986394	48	127
127.68575963718821	127.84829931972789	72	127
127.68575963718821	128.02244897959184	69	127
127.68575963718821	128.02244897959184	38	127
127.68575963718821	128.44040816326532	78	127
127.84829931972789	128.02244897959184	69	127
128.02244897959184	128.23142857142858	67	127
128.02244897959184	128.44040816326532	62	127
128.02244897959184	128.44040816326532	48	127
128.23142857142858	128.44040816326532	66	127
128.44040816326532	128.7887074829932	86	127
128.44040816326532	128.7887074829932	71	127
128.44040816326532	128.7887074829932	62	127
128.44040816326532	128.7887074829932	43	127
128.7887074829932	129.1950566893424	47	127
128.7887074829932	128.98607709750567	79	127
128.7887074829932	129.1950566893424	83	127
128.7887074829932	129.1950566893424	55	127
128.98607709750567	129.20666666666668	78	127
129.20666666666668	129.55496598639456	59	127
129.20666666666668	129.39242630385488	86	127
129.20666666666668	129.39242630385488	79	127
129.20666666666668	129.55496598639456	43	127
129.39242630385488	129.55496598639456	71	127
129.55496598639456	129.96131519274377	47	127
129.55496598639456	129.96131519274377	71	127
129.55496598639456	129.96131519274377	52	127
129.55496598639456	130.65791383219954	79	127
129.96131519274377	130.13544217687075	67	127
129.96131519274377	130.29800453514738	60	127
129.96131519274377	130.29800453514738	40	127
130.13544217687075	130.30961451247165	66	127
130.30961451247165	130.4953514739229	67	127
130.30961451247165	130.65791383219954	55	127
130.30961451247165	130.65791383219954	47	127
130.4953514739229	130.65791383219954	59	127
130.65791383219954	131.0178231292517	60	127
130.65791383219954	130.84367346938777	81	127
130.65791383219954	130.84367346938777	64	127
130.65791383219954	131.0178231292517	36	127
130.84367346938777	131.0178231292517	83	127
130.84367346938777	131.0178231292517	62	127
131.0178231292517	131.25002267573697	60	127
131.0178231292517	131.47061224489795	84	127
131.0178231292517	131.47061224489795	52	127
131.0178231292517	131.47061224489795	45	127
131.25002267573697	131.47061224489795	72	127
131.47061224489795	131.69120181405896	78	127
131.47061224489795	131.69120181405896	71	127
131.47061224489795	131.91179138321996	60	127
131.47061224489795	131.91179138321996	38	127
131.69120181405896	131.91179138321996	69	127
131.92337868480726	132.1439909297052	69	127
131.92337868480726	132.3065306122449	78	127
131.92337868480726	132.3065306122449	60	127
131.92337868480726	132.3065306122449	50	127
132.1439909297052	132.3065306122449	72	127
132.3065306122449	132.55034013605442	71	127
132.3065306122449	132.73609977324264	55	127
132.3065306122449	132.73609977324264	38	127
132.3065306122449	133.0960090702948	79	127
132.55034013605442	132.74770975056688	69	127
132.74770975056688	133.0960090702948	67	127
132.74770975056688	133.0960090702948	59	127
132.74770975056688	133.0960090702948	43	127
133.10761904761904	133.32820861678005	62	127
133.10761904761904	133.53718820861678	43	127
133.32820861678005	133.56038548752835	74	127
133.56038548752835	133.89709750566894	59	127
133.56038548752835	133.73455782312925	83	127
133.56038548752835	133.89709750566894	55	127
133.73455782312925	133.9087074829932	86	127
133.9087074829932	134.0944671201814	84	127
133.9087074829932	134.3266439909297	43	127
134.0944671201814	134.3266439909297	83	127
134.3266439909297	134.69818594104308	67	127
134.3266439909297	134.5356462585034	81	127
134.3266439909297	134.69818594104308	59	127
134.5356462585034	134.69818594104308	79	127
134.69818594104308	134.91877551020409	78	127
134.69818594104308	135.08131519274377	40	127
134.91877551020409	135.09290249433107	79	127
135.09290249433107	135.4180045351474	59	127
135.09290249433107	135.2554648526077	81	127
135.09290249433107	135.4180045351474	67	127
135.2554648526077	135.4180045351474	79	127
135.42961451247166	135.59215419501135	83	127
135.42961451247166	135.76630385487528	36	127
135.59215419501135	135.76630385487528	80	127
135.76630385487528	135.9520634920635	81	127
135.76630385487528	136.10299319727892	69	127
135.76630385487528	136.10299319727892	60	127
135.9520634920635	136.11458049886622	83	127
136.11458049886622	136.27714285714285	84	127
136.11458049886622	136.49773242630386	36	127
136.27714285714285	136.49773242630386	88	127
136.53256235827664	136.69510204081632	79	127
136.53256235827664	136.8924716553288	72	127
136.53256235827664	136.8924716553288	57	127
136.69510204081632	136.8924716553288	76	127
136.8924716553288	137.08981859410432	79	127
136.8924716553288	137.298820861678	38	127
137.08981859410432	137.298820861678	78	127
137.298820861678	137.47297052154195	76	127
137.298820861678	137.62390022675737	57	127
137.298820861678	137.62390022675737	72	127
137.47297052154195	137.62390022675737	78	127
137.63551020408164	137.84448979591838	62	127
137.63551020408164	138.11149659863946	43	127
137.84448979591838	138.12312925170068	74	127
138.12312925170068	138.28566893424036	83	127
138.12312925170068	138.44820861678005	67	127
138.12312925170068	138.44820861678005	59	127
138.28566893424036	138.44820861678005	86	127
138.44820861678005	138.6571882086168	84	127
138.44820861678005	138.83133786848072	43	127
138.6571882086168	138.83133786848072	83	127
138.84294784580499	139.00548752834467	81	127
138.84294784580499	139.16802721088436	71	127
138.84294784580499	139.16802721088436	52	127
138.84294784580499	139.16802721088436	55	127
139.00548752834467	139.17963718820863	79	127
139.17963718820863	139.55115646258503	40	127
139.17963718820863	139.4002267573696	78	127
139.4002267573696	139.55115646258503	79	127
139.55115646258503	139.72530612244898	81	127
139.55115646258503	139.88784580498867	71	127
139.55115646258503	139.88784580498867	52	127
139.55115646258503	139.88784580498867	55	127
139.72530612244898	139.88784580498867	79	127
139.88784580498867	140.29419501133788	36	127
139.88784580498867	140.08521541950114	80	127
140.08521541950114	140.30578231292517	81	127
140.30578231292517	140.5147619047619	83	127
140.30578231292517	140.6889342403628	64	127
140.30578231292517	140.6889342403628	57	127
140.5147619047619	140.70054421768708	84	127
140.70054421768708	141.07204081632653	60	127
140.70054421768708	140.89791383219955	76	127
140.70054421768708	141.07204081632653	57	127
140.70054421768708	141.07204081632653	38	127
140.89791383219955	141.07204081632653	78	127
141.07204081632653	141.28102040816327	78	127
141.07204081632653	141.4435827664399	72	127
141.07204081632653	141.4435827664399	62	127
141.28102040816327	141.45519274376417	69	127
141.45519274376417	141.79185941043085	38	127
141.45519274376417	141.61773242630386	78	127
141.61773242630386	141.80349206349206	81	127
141.80349206349206	141.97764172335602	78	127
141.80349206349206	142.151768707483	71	127
141.80349206349206	142.151768707483	62	127
141.80349206349206	142.151768707483	43	127
141.97764172335602	142.151768707483	79	127
142.151768707483	143.68428571428572	74	127
142.151768707483	142.5581179138322	71	127
142.151768707483	142.3956009070295	86	127
142.3956009070295	142.5581179138322	62	127
142.5581179138322	142.9644671201814	69	127
142.5581179138322	142.79034013605443	72	127
142.79034013605443	142.97609977324262	84	127
142.97609977324262	143.1386394557823	83	127
142.97609977324262	143.31278911564627	67	127
143.1386394557823	143.31278911564627	71	127
143.32437641723357	143.51015873015874	81	127
143.32437641723357	143.68428571428572	66	127
143.51015873015874	143.68428571428572	62	127
143.68428571428572	143.85845804988662	67	127
143.68428571428572	144.0209977324263	64	127
143.68428571428572	144.03260770975058	76	127
143.85845804988662	144.03260770975058	81	127
144.03260770975058	144.35768707482993	74	127
144.03260770975058	144.1951247165533	79	127
144.03260770975058	144.35768707482993	66	127
144.1951247165533	144.35768707482993	81	127
144.3692970521542	144.53183673469388	83	127
144.3692970521542	144.70596371882087	67	127
144.3692970521542	145.1587755102041	74	127
144.53183673469388	144.70596371882087	62	127
144.70596371882087	145.1587755102041	66	127
144.70596371882087	144.98462585034014	69	127
144.98462585034014	145.1587755102041	81	127
145.1587755102041	145.32131519274375	73	127
145.1587755102041	145.91342403628119	69	127
145.1587755102041	145.5302947845805	64	127
145.32131519274375	145.5302947845805	79	127
145.54190476190476	150.3019954648526	62	127
145.54190476190476	145.73927437641723	78	127
145.54190476190476	145.91342403628119	62	127
145.73927437641723	145.94825396825397	62	127
145.94825396825397	146.29655328798185	67	127
145.94825396825397	146.29655328798185	61	127
145.94825396825397	146.13399092970522	76	127
146.13399092970522	146.29655328798185	78	127
146.29655328798185	146.62163265306123	69	127
146.29655328798185	146.62163265306123	60	127
146.29655328798185	146.4707029478458	79	127
146.4707029478458	146.62163265306123	78	127
146.6332426303855	146.99315192743765	74	127
146.6332426303855	146.99315192743765	59	127
146.6332426303855	146.8190022675737	86	127
146.8190022675737	147.00473922902495	62	127
147.00473922902495	147.19052154195012	74	127
147.00473922902495	147.3646485260771	72	127
147.00473922902495	147.3646485260771	57	127
147.19052154195012	147.3646485260771	84	127
147.3646485260771	147.7942403628118	55	127
147.3646485260771	147.64331065759637	74	127
147.3646485260771	147.7942403628118	71	127
147.64331065759637	147.7942403628118	83	127
147.80585034013606	147.95678004535148	81	127
147.80585034013606	148.13090702947846	54	127
147.80585034013606	148.13090702947846	69	127
147.95678004535148	148.13090702947846	62	127
148.13090702947846	148.47922902494332	67	127
148.13090702947846	148.47922902494332	52	127
148.13090702947846	148.30507936507937	74	127
148.30507936507937	148.49083900226756	81	127
148.49083900226756	148.65337868480725	83	127
148.49083900226756	148.8275283446712	69	127
148.49083900226756	148.8275283446712	54	127
148.65337868480725	148.8275283446712	81	127
148.8275283446712	149.21065759637187	55	127
148.8275283446712	149.03650793650795	83	127
148.8275283446712	149.21065759637187	71	127
149.03650793650795	149.21065759637187	62	127
149.21065759637187	149.37319727891156	74	127
149.21065759637187	149.61700680272108	54	127
149.21065759637187	149.61700680272108	69	127
149.37319727891156	149.64022675736962	81	127
149.64022675736962	149.97691609977323	67	127
149.64022675736962	149.8143537414966	74	127
149.64022675736962	149.97691609977323	52	127
149.8143537414966	149.97691609977323	85	127
149.97691609977323	150.1510657596372	86	127
149.97691609977323	150.31360544217688	66	127
149.97691609977323	150.31360544217688	50	127
150.1510657596372	150.31360544217688	74	127
150.31360544217688	150.70834467120181	55	127
150.31360544217688	150.5341723356009	88	127
150.31360544217688	150.70834467120181	69	127
150.31360544217688	150.70834467120181	49	127
150.5341723356009	150.70834467120181	76	127
150.70834467120181	150.92893424036282	90	127
150.70834467120181	151.09145124716554	74	127
150.70834467120181	151.09145124716554	57	127
150.70834467120181	151.09145124716554	48	127
150.92893424036282	151.09145124716554	78	127
151.11469387755102	151.50943310657595	50	127
151.11469387755102	151.23079365079366	91	127
151.11469387755102	151.50943310657595	74	127
151.11469387755102	151.50943310657595	47	127
151.30043083900227	151.50943310657595	55	127
151.52104308390022	151.69519274376418	83	127
151.52104308390022	151.85773242630387	45	127
151.69519274376418	151.8693424036281	86	127
151.8693424036281	152.04349206349207	84	127
151.8693424036281	152.20603174603175	71	127
151.8693424036281	152.20603174603175	55	127
152.04349206349207	152.20603174603175	83	127
152.20603174603175	152.4150113378685	81	127
152.20603174603175	152.5659410430839	40	127
152.4150113378685	152.5775283446712	79	127
152.5775283446712	152.76331065759638	78	127
152.5775283446712	152.93743764172336	71	127
152.5775283446712	152.93743764172336	55	127
152.76331065759638	152.94907029478458	79	127
152.94907029478458	153.33219954648527	40	127
152.94907029478458	153.12321995464853	81	127
153.12321995464853	153.33219954648527	79	127
153.33219954648527	153.68049886621316	69	127
153.33219954648527	153.51795918367347	83	127
153.33219954648527	153.68049886621316	64	127
153.33219954648527	153.68049886621316	60	127
153.51795918367347	153.68049886621316	80	127
153.68049886621316	153.85462585034014	81	127
153.68049886621316	154.02879818594104	36	127
153.85462585034014	154.0404081632653	83	127
154.0404081632653	154.36546485260772	60	127
154.0404081632653	154.202947845805	84	127
154.0404081632653	154.36546485260772	76	127
154.202947845805	154.36546485260772	88	127
154.37709750566893	154.6208843537415	79	127
154.37709750566893	154.78344671201813	38	127
154.6208843537415	154.78344671201813	76	127
154.78344671201813	155.03886621315192	79	127
154.78344671201813	155.18979591836734	66	127
154.78344671201813	155.18979591836734	57	127
155.03886621315192	155.2014058956916	78	127
155.2014058956916	155.3639455782313	76	127
155.2014058956916	155.52648526077098	48	127
155.3639455782313	155.52648526077098	78	127
155.53809523809525	155.74705215419502	86	127
155.53809523809525	155.9560544217687	47	127
155.74705215419502	155.9560544217687	74	127
155.9560544217687	156.14181405895692	83	127
155.9560544217687	156.3043537414966	67	127
155.9560544217687	156.3043537414966	55	127
156.14181405895692	156.3043537414966	71	127
156.3043537414966	156.64104308390023	43	127
156.3043537414966	156.46689342403627	86	127
156.46689342403627	156.64104308390023	83	127
156.6526530612245	157.00095238095238	52	127
156.6526530612245	156.8151927437642	78	127
156.8151927437642	157.01256235827665	79	127
157.01256235827665	157.18671201814058	67	127
157.01256235827665	157.36086167800454	71	127
157.01256235827665	157.36086167800454	52	127
157.01256235827665	157.36086167800454	55	127
157.18671201814058	157.36086167800454	79	127
157.36086167800454	157.53498866213152	81	127
157.36086167800454	157.68591836734694	52	127
157.53498866213152	157.68591836734694	79	127
157.70916099773243	157.95297052154194	80	127
157.70916099773243	158.11551020408163	72	127
157.70916099773243	158.11551020408163	52	127
157.95297052154194	158.1271201814059	81	127
158.1271201814059	158.46380952380952	36	127
158.1271201814059	158.2896598639456	83	127
158.2896598639456	158.46380952380952	84	127
158.46380952380952	158.67278911564625	76	127
158.46380952380952	158.82371882086167	69	127
158.46380952380952	158.82371882086167	60	127
158.46380952380952	158.82371882086167	38	127
158.67278911564625	158.82371882086167	78	127
158.83532879818594	159.0094784580499	78	127
158.83532879818594	159.1719954648526	67	127
158.83532879818594	159.1719954648526	59	127
159.0094784580499	159.23006802721088	79	127
159.23006802721088	159.40421768707483	71	127
159.23006802721088	159.56675736961452	43	127
159.40421768707483	159.57834467120182	79	127
159.57834467120182	160.0079365079365	67	127
159.57834467120182	159.81056689342404	71	127
159.57834467120182	160.0079365079365	62	127
159.57834467120182	160.3910657596372	71	127
159.81056689342404	160.0079365079365	83	127
160.0079365079365	160.3910657596372	74	127
160.0079365079365	160.1356462585034	86	127
160.0079365079365	163.60702947845806	62	127
160.20530612244897	160.3910657596372	67	127
160.3910657596372	160.71614512471655	78	127
160.3910657596372	160.71614512471655	69	127
160.3910657596372	160.55358276643992	74	127
160.55358276643992	160.72775510204082	84	127
160.72775510204082	161.0528344671202	79	127
160.72775510204082	161.0528344671202	67	127
160.72775510204082	160.8902947845805	83	127
160.8902947845805	161.0528344671202	74	127
161.0528344671202	161.40113378684808	81	127
161.0528344671202	161.40113378684808	66	127
161.0528344671202	161.18054421768707	81	127
161.22698412698412	161.40113378684808	62	127
161.40113378684808	161.795873015873	67	127
161.40113378684808	161.795873015873	64	127
161.40113378684808	161.56367346938777	74	127
161.56367346938777	161.80748299319728	81	127
161.80748299319728	162.13256235827666	69	127
161.80748299319728	162.13256235827666	66	127
161.80748299319728	161.97002267573697	83	127
161.97002267573697	162.13256235827666	81	127
162.13256235827666	162.2718820861678	83	127
162.13256235827666	162.48086167800454	67	127
162.13256235827666	162.82916099773243	74	127
162.31832199546486	162.48086167800454	62	127
162.48086167800454	162.82916099773243	66	127
162.48086167800454	162.66662131519274	74	127
162.66662131519274	162.82916099773243	81	127
162.82916099773243	163.23551020408163	73	127
162.82916099773243	163.23551020408163	64	127
162.82916099773243	162.99170068027212	74	127
162.99170068027212	163.23551020408163	79	127
163.2471201814059	164.83768707482994	62	127
163.2471201814059	163.39804988662132	78	127
163.2471201814059	163.60702947845806	74	127
163.44448979591837	163.60702947845806	66	127
163.60702947845806	163.82761904761904	67	127
163.60702947845806	164.07142857142858	76	127
163.60702947845806	164.07142857142858	61	127
163.82761904761904	164.07142857142858	79	127
164.07142857142858	164.2339455782313	69	127
164.07142857142858	164.44294784580498	78	127
164.07142857142858	164.44294784580498	60	127
164.2339455782313	164.44294784580498	81	127
164.46616780045352	164.83768707482994	79	127
164.46616780045352	164.5938775510204	86	127
164.46616780045352	164.83768707482994	59	127
164.6402947845805	164.83768707482994	62	127
164.83768707482994	165.01183673469387	74	127
164.83768707482994	165.18598639455783	72	127
164.83768707482994	165.18598639455783	54	127
164.83768707482994	165.18598639455783	57	127
165.02344671201814	165.18598639455783	84	127
165.18598639455783	165.58072562358277	55	127
165.18598639455783	165.3833560090703	74	127
165.18598639455783	165.58072562358277	71	127
165.18598639455783	165.58072562358277	55	127
165.39496598639457	165.58072562358277	83	127
165.58072562358277	165.9754648526077	69	127
165.58072562358277	167.49637188208618	62	127
165.58072562358277	165.9754648526077	54	127
165.58072562358277	165.77809523809523	74	127
165.77809523809523	165.98707482993197	81	127
165.98707482993197	166.32376417233561	67	127
165.98707482993197	166.32376417233561	52	127
165.98707482993197	166.1380045351474	74	127
166.14961451247166	166.32376417233561	79	127
166.32376417233561	166.5095238095238	74	127
166.32376417233561	166.70689342403628	69	127
166.32376417233561	166.70689342403628	54	127
166.52113378684808	166.70689342403628	81	127
166.70689342403628	166.89263038548754	74	127
166.70689342403628	167.06680272108844	71	127
166.70689342403628	167.06680272108844	55	127
166.89263038548754	167.0784126984127	83	127
167.0784126984127	167.2409523809524	74	127
167.0784126984127	167.49637188208618	69	127
167.0784126984127	167.49637188208618	54	127
167.25256235827663	167.49637188208618	81	127
167.49637188208618	167.69374149659865	74	127
167.49637188208618	167.86789115646258	67	127
167.49637188208618	167.86789115646258	64	127
167.49637188208618	167.86789115646258	52	127
167.70532879818595	167.86789115646258	85	127
167.86789115646258	168.22780045351473	50	127
167.86789115646258	168.03043083900226	86	127
167.86789115646258	168.22780045351473	66	127
167.86789115646258	168.22780045351473	57	127
168.0536507936508	168.239410430839	74	127
168.239410430839	168.59931972789116	67	127
168.239410430839	168.59931972789116	55	127
168.239410430839	168.59931972789116	49	127
168.239410430839	168.41356009070296	76	127
168.42514739229026	168.61092970521543	88	127
168.61092970521543	168.78507936507935	78	127
168.61092970521543	168.9940589569161	69	127
168.61092970521543	168.9940589569161	57	127
168.61092970521543	168.9940589569161	48	127
168.79668934240362	168.9940589569161	90	127
169.00566893424036	169.17981859410432	59	127
169.00566893424036	169.63260770975057	91	127
169.00566893424036	169.63260770975057	50	127
169.00566893424036	169.63260770975057	43	127
169.42362811791384	169.63260770975057	71	127
169.63260770975057	169.98090702947846	59	127
169.63260770975057	169.81836734693877	79	127
169.63260770975057	169.98090702947846	83	127
169.63260770975057	169.98090702947846	47	127
169.81836734693877	169.99251700680273	78	127
169.99251700680273	170.14344671201815	86	127
169.99251700680273	170.15505668934242	79	127
169.99251700680273	170.32920634920634	67	127
169.99251700680273	170.32920634920634	43	127
170.15505668934242	170.32920634920634	71	127
170.32920634920634	170.48013605442176	71	127
170.32920634920634	170.7587755102041	64	127
170.32920634920634	170.7587755102041	47	127
170.32920634920634	171.4901814058957	79	127
170.5962358276644	170.7587755102041	55	127
170.7587755102041	170.92131519274378	67	127
170.7587755102041	171.0954648526077	52	127
170.7587755102041	171.0954648526077	40	127
170.92131519274378	171.10707482993197	66	127
171.10707482993197	171.30444444444444	67	127
171.10707482993197	171.4901814058957	55	127
171.10707482993197	171.4901814058957	47	127
171.30444444444444	171.4901814058957	59	127
171.4901814058957	171.6643537414966	81	127
171.4901814058957	171.6643537414966	76	127
171.4901814058957	171.82689342403629	60	127
171.4901814058957	171.82689342403629	36	127
171.6643537414966	171.82689342403629	83	127
171.6643537414966	171.82689342403629	74	127
171.82689342403629	172.1984126984127	52	127
171.82689342403629	172.00102040816327	72	127
171.82689342403629	172.1984126984127	84	127
171.82689342403629	172.1984126984127	45	127
172.00102040816327	172.1984126984127	71	127
172.1984126984127	172.37256235827664	88	127
172.1984126984127	172.37256235827664	69	127
172.1984126984127	172.5467120181406	60	127
172.1984126984127	172.5467120181406	36	127
172.37256235827664	172.5467120181406	60	127
172.5699319727891	172.81374149659865	72	127
172.5699319727891	172.9762811791383	79	127
172.5699319727891	172.9762811791383	60	127
172.5699319727891	172.9762811791383	45	127
172.81374149659865	172.9762811791383	69	127
172.9762811791383	173.18526077097505	72	127
172.9762811791383	173.359410430839	69	127
172.9762811791383	173.359410430839	38	127
172.9762811791383	173.75414965986394	78	127
173.18526077097505	173.359410430839	71	127
173.359410430839	173.533537414966	72	127
173.359410430839	173.75414965986394	60	127
173.359410430839	173.75414965986394	45	127
173.533537414966	173.75414965986394	66	127
173.7657596371882	174.12566893424037	59	127
173.7657596371882	173.89344671201815	71	127
173.7657596371882	174.12566893424037	86	127
173.7657596371882	174.12566893424037	43	127
173.96312925170068	174.12566893424037	55	127
174.12566893424037	174.31142857142856	67	127
174.12566893424037	174.4971882086168	83	127
174.12566893424037	174.4971882086168	55	127
174.12566893424037	174.4971882086168	47	127
174.31142857142856	174.4971882086168	66	127
174.4971882086168	174.682947845805	67	127
174.4971882086168	174.89192743764173	59	127
174.4971882086168	174.682947845805	86	127
174.4971882086168	174.89192743764173	43	127
174.682947845805	174.89192743764173	59	127
174.903537414966	175.93680272108844	79	127
174.903537414966	175.04285714285714	67	127
174.903537414966	175.26344671201815	59	127
174.903537414966	175.26344671201815	47	127
175.0892970521542	175.27503401360545	55	127
175.27503401360545	175.43759637188208	71	127
175.27503401360545	175.61174603174604	55	127
175.27503401360545	175.61174603174604	40	127
175.43759637188208	175.61174603174604	69	127
175.61174603174604	175.93680272108844	64	127
175.61174603174604	175.78587301587302	67	127
175.61174603174604	175.93680272108844	47	127
175.78587301587302	175.93680272108844	64	127
175.94843537414965	176.19222222222223	81	127
175.94843537414965	176.19222222222223	76	127
175.94843537414965	176.3780045351474	60	127
175.94843537414965	176.3780045351474	36	127
176.19222222222223	176.38961451247167	83	127
176.19222222222223	176.38961451247167	74	127
176.38961451247167	176.57537414965986	72	127
176.38961451247167	176.73791383219955	84	127
176.38961451247167	176.73791383219955	52	127
176.38961451247167	176.73791383219955	45	127
176.57537414965986	176.73791383219955	71	127
176.73791383219955	176.91204081632654	69	127
176.73791383219955	176.90045351473924	78	127
176.73791383219955	177.06297052154196	54	127
176.73791383219955	177.06297052154196	38	127
176.91204081632654	177.06297052154196	60	127
177.07460317460317	177.29519274376418	66	127
177.07460317460317	177.46931972789116	78	127
177.07460317460317	177.46931972789116	57	127
177.07460317460317	177.46931972789116	50	127
177.29519274376418	177.46931972789116	60	127
177.46931972789116	178.46780045351474	79	127
177.46931972789116	177.6782993197279	59	127
177.46931972789116	177.91052154195012	55	127
177.46931972789116	177.91052154195012	38	127
177.6782993197279	177.91052154195012	60	127
177.91052154195012	178.46780045351474	43	127
177.91052154195012	178.17755102040817	59	127
177.91052154195012	178.46780045351474	50	127
178.17755102040817	178.46780045351474	67	127
178.46780045351474	178.81609977324263	66	127
178.81609977324263	179.66362811791385	67	127
179.66362811791385	179.8609977324263	69	127
179.8609977324263	180.05836734693878	71	127
180.05836734693878	180.40666666666667	72	127
180.40666666666667	180.58081632653062	66	127
180.75496598639455	182.0668934240363	79	127
182.07850340136054	182.42678004535148	86	127
182.4384126984127	182.77510204081634	83	127
182.77510204081634	182.93764172335602	86	127
183.1350113378685	183.75034013605443	74	127
183.76192743764173	184.1102494331066	71	127
184.1102494331066	184.34244897959184	74	127
184.55142857142857	185.54986394557824	67	127
185.56149659863945	185.7356462585034	57	127
185.7356462585034	185.90979591836734	59	127
185.90979591836734	186.28131519274376	60	127
186.29292517006803	186.5831746031746	64	127
186.85020408163265	187.29138321995464	55	127
187.29138321995464	188.06925170068027	54	127
188.06925170068027	188.28984126984128	57	127
188.06925170068027	188.498820861678	53	127
188.28984126984128	188.498820861678	59	127
188.498820861678	188.88195011337868	60	127
188.498820861678	188.88195011337868	52	127
188.88195011337868	189.09092970521542	64	127
188.88195011337868	189.3231292517007	48	127
189.3231292517007	189.67142857142858	47	127
189.3231292517007	189.67142857142858	55	127
189.67142857142858	190.07777777777778	45	127
189.67142857142858	190.07777777777778	54	127
190.07777777777778	190.80920634920636	53	127
190.07777777777778	190.80920634920636	44	127
190.4492970521542	190.62344671201814	62	127
190.62344671201814	190.8208163265306	64	127
190.8208163265306	191.05301587301588	50	127
190.8208163265306	191.27360544217686	65	127
190.8208163265306	191.27360544217686	43	127
191.05301587301588	191.27360544217686	52	127
191.27360544217686	191.59868480725623	69	127
191.27360544217686	191.59868480725623	53	127
191.27360544217686	191.7960544217687	43	127
191.80766439909297	192.21401360544218	43	127
191.80766439909297	192.00503401360544	74	127
191.80766439909297	192.21401360544218	60	127
191.80766439909297	192.21401360544218	52	127
192.00503401360544	192.22562358276645	76	127
192.22562358276645	192.63197278911565	43	127
192.22562358276645	192.64358276643992	77	127
192.22562358276645	193.79297052154195	59	127
192.22562358276645	193.79297052154195	50	127
192.64358276643992	193.21247165532878	79	127
192.64358276643992	193.79297052154195	43	127
195.0352380952381	195.5112471655329	67	127
195.0352380952381	195.5112471655329	55	127
195.5112471655329	196.09174603174603	64	127
195.5112471655329	196.09174603174603	52	127
196.09174603174603	196.26589569160998	55	127
196.09174603174603	196.26589569160998	67	127
196.4400453514739	196.9160544217687	79	127
196.4400453514739	197.83324263038548	36	127
196.4400453514739	197.83324263038548	48	127
196.9160544217687	197.31079365079364	76	127
197.31079365079364	197.60104308390024	79	127
197.84485260770975	198.19315192743764	74	127
197.84485260770975	198.03061224489795	50	127
197.84485260770975	198.19315192743764	86	127
197.84485260770975	198.19315192743764	43	127
198.03061224489795	198.19315192743764	59	127
198.19315192743764	198.3673015873016	67	127
198.19315192743764	198.5530612244898	83	127
198.19315192743764	198.5530612244898	71	127
198.19315192743764	198.5530612244898	47	127
198.3673015873016	198.5530612244898	66	127
198.5530612244898	198.75043083900226	86	127
198.5530612244898	198.75043083900226	74	127
198.5530612244898	198.76204081632653	67	127
198.5530612244898	198.92458049886622	43	127
198.76204081632653	198.92458049886622	59	127
198.92458049886622	200.07396825396825	67	127
198.92458049886622	200.07396825396825	79	127
198.92458049886622	199.31931972789116	47	127
198.92458049886622	199.1219501133787	52	127
199.1219501133787	199.33092970521542	59	127
199.33092970521542	199.69083900226758	40	127
199.33092970521542	199.51668934240362	67	127
199.51668934240362	199.69083900226758	54	127
199.69083900226758	199.8649886621315	55	127
199.69083900226758	200.07396825396825	47	127
199.8649886621315	200.07396825396825	64	127
200.07396825396825	200.25972789115647	81	127
200.07396825396825	200.25972789115647	48	127
200.07396825396825	200.25972789115647	69	127
200.07396825396825	200.42226757369613	36	127
200.25972789115647	200.4338775510204	64	127
200.25972789115647	200.4338775510204	83	127
200.25972789115647	200.4338775510204	71	127
200.4338775510204	200.60802721088436	62	127
200.4338775510204	200.8170068027211	84	127
200.4338775510204	200.8170068027211	72	127
200.4338775510204	200.8170068027211	45	127
200.60802721088436	200.79378684807256	60	127
200.8170068027211	200.99115646258502	66	127
200.8170068027211	200.99115646258502	78	127
200.8170068027211	201.0027664399093	60	127
200.8170068027211	201.20013605442176	38	127
201.0027664399093	201.20013605442176	57	127
201.20013605442176	201.37428571428572	57	127
201.20013605442176	201.58326530612246	78	127
201.20013605442176	201.58326530612246	66	127
201.20013605442176	201.58326530612246	50	127
201.37428571428572	201.59487528344673	60	127
201.59487528344673	201.78063492063492	59	127
201.59487528344673	202.02444444444444	38	127
201.59487528344673	202.37274376417233	67	127
201.59487528344673	202.37274376417233	79	127
201.78063492063492	202.02444444444444	57	127
202.02444444444444	202.37274376417233	43	127
202.02444444444444	202.1985941043084	59	127
202.1985941043084	202.37274376417233	55	127
202.37274376417233	202.55850340136055	84	127
202.37274376417233	202.55850340136055	57	127
202.37274376417233	202.80231292517007	38	127
202.37274376417233	202.55850340136055	72	127
202.55850340136055	202.80231292517007	86	127
202.55850340136055	202.80231292517007	74	127
202.55850340136055	202.80231292517007	67	127
202.80231292517007	203.197052154195	45	127
202.80231292517007	203.0112925170068	66	127
202.80231292517007	203.197052154195	88	127
202.80231292517007	203.197052154195	76	127
203.0112925170068	203.197052154195	64	127
203.197052154195	203.37120181405896	81	127
203.197052154195	203.37120181405896	69	127
203.197052154195	203.38281179138323	66	127
203.197052154195	203.55696145124716	38	127
203.38281179138323	203.55696145124716	60	127
203.55696145124716	203.75433106575963	55	127
203.55696145124716	203.96331065759637	81	127
203.55696145124716	203.96331065759637	69	127
203.55696145124716	203.96331065759637	47	127
203.75433106575963	203.97492063492064	69	127
203.97492063492064	204.71795918367346	83	127
203.97492063492064	204.16068027210883	67	127
203.97492063492064	204.34643990929706	38	127
203.97492063492064	204.71795918367346	71	127
204.16068027210883	204.34643990929706	66	127
204.34643990929706	204.71795918367346	47	127
204.34643990929706	204.53219954648526	67	127
204.53219954648526	204.71795918367346	55	127
204.72956916099773	204.961768707483	72	127
204.72956916099773	204.961768707483	84	127
204.72956916099773	204.961768707483	57	127
204.72956916099773	205.20557823129252	38	127
204.961768707483	205.20557823129252	74	127
204.961768707483	205.20557823129252	86	127
204.961768707483	205.20557823129252	67	127
205.20557823129252	205.39133786848072	66	127
205.20557823129252	205.60031746031746	88	127
205.20557823129252	205.60031746031746	76	127
205.20557823129252	205.60031746031746	45	127
205.39133786848072	205.60031746031746	64	127
205.60031746031746	205.7744671201814	62	127
205.60031746031746	205.7744671201814	90	127
205.60031746031746	205.7744671201814	78	127
205.60031746031746	205.98344671201815	38	127
205.7744671201814	205.98344671201815	60	127
205.98344671201815	206.1924263038549	60	127
205.98344671201815	206.47106575963718	90	127
205.98344671201815	206.47106575963718	78	127
205.98344671201815	206.47106575963718	50	127
206.1924263038549	206.47106575963718	72	127
206.47106575963718	207.0051247165533	38	127
206.47106575963718	206.70326530612246	71	127
206.47106575963718	208.4795918367347	91	127
206.47106575963718	208.4795918367347	79	127
206.70326530612246	207.0051247165533	69	127
207.0051247165533	208.4795918367347	71	127
207.0051247165533	208.4795918367347	43	127
212.48503401360543	212.57791383219956	67	127
