# onset,offset,note,velocity
2.135442176870748	2.3212244897959184	53	127
2.135442176870748	2.193514739229025	77	127
2.135442176870748	2.3212244897959184	65	127
2.135442176870748	2.3212244897959184	53	127
2.193514739229025	2.2631746031746034	76	127
2.2631746031746034	2.3328344671201813	77	127
2.3328344671201813	2.4024943310657596	79	127
2.4024943310657596	2.460521541950113	77	127
2.460521541950113	2.530204081632653	76	127
2.530204081632653	2.5998639455782313	74	127
2.5998639455782313	2.6695238095238096	72	127
2.6695238095238096	2.7275736961451247	70	127
2.7275736961451247	2.797233560090703	69	127
2.797233560090703	2.8668934240362813	67	127
2.8668934240362813	2.9249433106575964	65	127
2.9249433106575964	3.110702947845805	58	127
2.9249433106575964	3.110702947845805	64	127
2.9249433106575964	3.110702947845805	48	127
2.9249433106575964	3.110702947845805	43	127
3.2616326530612243	3.412562358276644	58	127
3.2616326530612243	3.412562358276644	43	127
3.2616326530612243	3.412562358276644	64	127
3.2616326530612243	3.412562358276644	48	127
3.4706122448979593	3.667981859410431	58	127
3.4706122448979593	3.667981859410431	67	127
3.4706122448979593	3.667981859410431	40	127
3.4706122448979593	3.667981859410431	48	127
3.981451247165533	4.051111111111111	79	127
4.051111111111111	4.132380952380952	78	127
4.132380952380952	4.202040816326531	79	127
4.202040816326531	4.260090702947846	81	127
4.260090702947846	4.329750566893424	79	127
4.329750566893424	4.399410430839002	77	127
4.399410430839002	4.46907029478458	76	127
4.46907029478458	4.527120181405896	74	127
4.527120181405896	4.5967573696145125	72	127
4.5967573696145125	4.666439909297052	70	127
4.666439909297052	4.73609977324263	69	127
4.73609977324263	4.805759637188209	67	127
4.805759637188209	4.979909297052155	45	127
4.805759637188209	4.979909297052155	65	127
4.805759637188209	4.979909297052155	60	127
4.805759637188209	4.979909297052155	48	127
5.037959183673469	5.374625850340136	48	127
5.037959183673469	5.374625850340136	65	127
5.037959183673469	5.374625850340136	60	127
5.037959183673469	5.374625850340136	45	127
5.432698412698413	5.595215419501134	57	127
5.432698412698413	5.595215419501134	41	127
5.432698412698413	5.595215419501134	48	127
5.432698412698413	5.595215419501134	69	127
5.8854875283446715	5.955147392290249	72	127
5.955147392290249	6.024807256235827	71	127
6.024807256235827	6.082857142857143	72	127
6.082857142857143	6.164126984126984	74	127
6.082857142857143	6.593696145124716	60	127
6.082857142857143	6.3034467120181406	52	127
6.082857142857143	6.3034467120181406	67	127
6.164126984126984	6.245396825396825	72	127
6.245396825396825	6.315056689342404	70	127
6.315056689342404	6.535646258503402	53	127
6.315056689342404	6.593696145124716	60	127
6.315056689342404	6.593696145124716	69	127
6.593696145124716	6.744625850340136	77	127
6.593696145124716	6.791065759637188	41	127
6.593696145124716	6.849115646258503	69	127
6.593696145124716	6.849115646258503	60	127
6.849115646258503	6.918775510204082	72	127
6.918775510204082	6.98843537414966	71	127
6.98843537414966	7.046485260770975	72	127
7.046485260770975	7.580544217687075	60	127
7.046485260770975	7.116145124716553	74	127
7.046485260770975	7.25546485260771	67	127
7.046485260770975	7.25546485260771	52	127
7.116145124716553	7.185804988662132	72	127
7.185804988662132	7.267074829931973	70	127
7.267074829931973	7.534104308390023	53	127
7.267074829931973	7.592154195011338	69	127
7.267074829931973	7.580544217687075	60	127
7.592154195011338	7.708253968253969	77	127
7.592154195011338	7.824353741496599	60	127
7.592154195011338	7.824353741496599	69	127
7.592154195011338	7.754693877551021	41	127
7.824353741496599	7.894013605442177	72	127
7.894013605442177	7.952063492063492	71	127
7.952063492063492	8.02172335600907	72	127
8.02172335600907	8.114603174603175	74	127
8.02172335600907	8.497732426303855	60	127
8.02172335600907	8.277142857142858	52	127
8.02172335600907	8.277142857142858	67	127
8.114603174603175	8.20748299319728	72	127
8.20748299319728	8.277142857142858	70	127
8.277142857142858	8.497732426303855	60	127
8.277142857142858	8.509342403628118	69	127
8.277142857142858	8.451292517006802	53	127
8.509342403628118	8.799591836734693	62	127
8.509342403628118	8.799591836734693	69	127
8.509342403628118	8.683492063492064	84	127
8.509342403628118	8.753151927437642	54	127
8.811201814058958	8.97374149659864	55	127
8.811201814058958	9.05501133786848	72	127
8.811201814058958	9.05501133786848	67	127
8.811201814058958	9.05501133786848	64	127
9.066621315192744	9.275600907029478	71	127
9.066621315192744	9.171111111111111	76	127
9.066621315192744	9.217528344671202	43	127
9.066621315192744	9.275600907029478	65	127
9.171111111111111	9.275600907029478	74	127
9.287210884353742	9.519410430839002	72	127
9.287210884353742	9.461360544217687	48	127
9.287210884353742	9.519410430839002	64	127
9.287210884353742	9.519410430839002	67	127
9.77482993197279	9.832879818594105	65	127
9.832879818594105	9.914149659863945	64	127
9.914149659863945	10.00702947845805	65	127
10.00702947845805	10.076666666666666	67	127
10.076666666666666	10.134739229024943	65	127
10.134739229024943	10.262448979591836	64	127
10.262448979591836	10.343718820861678	62	127
10.343718820861678	10.424965986394557	60	127
10.424965986394557	10.483038548752834	58	127
10.483038548752834	10.552698412698414	57	127
10.552698412698414	10.622358276643991	55	127
10.622358276643991	10.680408163265307	53	127
10.69201814058957	10.84294784580499	43	127
10.69201814058957	10.84294784580499	60	127
10.69201814058957	10.84294784580499	52	127
10.970657596371883	11.144807256235827	60	127
10.970657596371883	11.144807256235827	43	127
10.970657596371883	11.144807256235827	52	127
11.260907029478458	11.469863945578231	82	127
11.260907029478458	11.469863945578231	40	127
11.260907029478458	11.469863945578231	55	127
11.260907029478458	11.469863945578231	70	127
11.516326530612245	11.678866213151927	82	127
11.725283446712018	11.794965986394558	67	127
11.725283446712018	11.922675736961452	76	127
11.794965986394558	11.864625850340136	66	127
11.864625850340136	11.934285714285714	67	127
11.934285714285714	11.99233560090703	69	127
11.99233560090703	12.061995464852608	67	127
12.061995464852608	12.131655328798185	65	127
12.131655328798185	12.201315192743763	64	127
12.201315192743763	12.259365079365079	62	127
12.259365079365079	12.34063492063492	60	127
12.34063492063492	12.410294784580499	58	127
12.410294784580499	12.479954648526077	57	127
12.479954648526077	12.549614512471654	55	127
12.549614512471654	12.723764172335601	45	127
12.549614512471654	12.723764172335601	60	127
12.549614512471654	12.723764172335601	53	127
12.793424036281179	12.932743764172336	45	127
12.793424036281179	12.932743764172336	53	127
12.793424036281179	12.932743764172336	60	127
12.99079365079365	13.397142857142857	84	127
12.99079365079365	13.397142857142857	72	127
12.99079365079365	13.397142857142857	57	127
12.99079365079365	13.397142857142857	41	127
13.455192743764172	13.606122448979592	84	127
13.652562358276644	13.722222222222221	72	127
13.722222222222221	13.791882086167801	71	127
13.791882086167801	13.849931972789115	72	127
13.849931972789115	13.919591836734694	74	127
13.849931972789115	14.418820861678004	60	127
13.849931972789115	14.047301587301588	67	127
13.849931972789115	14.047301587301588	52	127
13.919591836734694	13.989251700680272	72	127
13.989251700680272	14.05891156462585	70	127
14.05891156462585	14.418820861678004	60	127
14.05891156462585	14.418820861678004	69	127
14.05891156462585	14.36077097505669	53	127
14.418820861678004	14.581360544217688	41	127
14.418820861678004	14.639410430839002	69	127
14.418820861678004	14.639410430839002	60	127
14.418820861678004	14.534920634920635	77	127
14.639410430839002	14.709070294784581	72	127
14.709070294784581	14.77873015873016	71	127
14.77873015873016	14.836780045351475	72	127
14.836780045351475	15.057369614512472	52	127
14.836780045351475	15.266349206349206	60	127
14.836780045351475	14.906439909297053	74	127
14.836780045351475	15.057369614512472	67	127
14.906439909297053	14.97609977324263	72	127
14.97609977324263	15.068979591836735	70	127
15.068979591836735	15.266349206349206	60	127
15.068979591836735	15.219909297052155	53	127
15.068979591836735	15.277959183673469	69	127
15.277959183673469	15.452108843537415	77	127
15.277959183673469	15.51015873015873	41	127
15.277959183673469	15.579818594104308	69	127
15.277959183673469	15.579818594104308	60	127
15.579818594104308	15.649478458049886	72	127
15.649478458049886	15.719138321995464	71	127
15.719138321995464	15.788798185941044	72	127
15.788798185941044	15.97455782312925	52	127
15.788798185941044	15.858458049886622	74	127
15.788798185941044	15.97455782312925	67	127
15.788798185941044	16.288027210884355	60	127
15.858458049886622	15.9281179138322	72	127
15.9281179138322	15.986167800453515	70	127
15.986167800453515	16.288027210884355	60	127
15.986167800453515	16.299637188208617	69	127
15.986167800453515	16.241587301587302	53	127
16.299637188208617	16.462154195011337	57	127
16.299637188208617	16.462154195011337	72	127
16.299637188208617	16.39251700680272	87	127
16.299637188208617	16.462154195011337	54	127
16.520226757369613	16.72920634920635	58	127
16.520226757369613	16.72920634920635	70	127
16.520226757369613	16.72920634920635	86	127
16.520226757369613	16.72920634920635	55	127
16.787256235827666	16.938185941043084	88	127
16.787256235827666	16.938185941043084	55	127
16.787256235827666	16.938185941043084	49	127
16.787256235827666	16.938185941043084	70	127
16.9962358276644	17.15875283446712	89	127
16.9962358276644	17.15875283446712	69	127
16.9962358276644	17.15875283446712	53	127
16.9962358276644	17.15875283446712	50	127
17.216825396825396	17.402585034013605	67	127
17.216825396825396	17.402585034013605	47	127
17.216825396825396	17.402585034013605	62	127
17.216825396825396	17.402585034013605	65	127
17.46063492063492	17.820544217687075	65	127
17.46063492063492	17.739274376417235	69	127
17.46063492063492	17.820544217687075	48	127
17.46063492063492	17.820544217687075	60	127
18.017913832199547	18.505532879818595	58	127
18.017913832199547	18.42426303854875	64	127
18.017913832199547	18.41265306122449	55	127
18.017913832199547	18.505532879818595	36	127
18.017913832199547	18.505532879818595	48	127
18.668072562358276	19.155691609977325	57	127
18.668072562358276	19.155691609977325	41	127
18.668072562358276	19.155691609977325	53	127
18.668072562358276	19.155691609977325	65	127
19.608480725623583	19.71297052154195	57	127
19.71297052154195	19.829070294784582	60	127
19.829070294784582	19.98	67	127
19.98	20.08448979591837	65	127
20.08448979591837	20.24702947845805	57	127
20.08448979591837	20.24702947845805	60	127
20.24702947845805	20.351519274376418	60	127
20.24702947845805	20.351519274376418	65	127
20.351519274376418	20.44439909297052	67	127
20.351519274376418	20.44439909297052	70	127
20.44439909297052	20.572108843537414	69	127
20.44439909297052	20.572108843537414	65	127
20.572108843537414	20.990068027210885	67	127
20.572108843537414	20.688208616780045	59	127
20.572108843537414	20.990068027210885	64	127
20.688208616780045	20.792698412698414	60	127
20.792698412698414	20.89718820861678	59	127
20.89718820861678	20.990068027210885	60	127
20.990068027210885	21.09453514739229	59	127
21.09453514739229	21.338367346938774	60	127
21.338367346938774	21.43124716553288	55	127
21.43124716553288	21.54734693877551	52	127
21.558956916099774	21.675056689342405	60	127
21.558956916099774	22.058185941043085	48	127
21.675056689342405	21.825986394557823	64	127
21.825986394557823	21.942086167800454	69	127
21.942086167800454	22.058185941043085	67	127
22.058185941043085	22.16267573696145	64	127
22.058185941043085	22.16267573696145	60	127
22.16267573696145	22.26716553287982	67	127
22.16267573696145	22.26716553287982	64	127
22.26716553287982	22.371655328798187	69	127
22.26716553287982	22.371655328798187	72	127
22.371655328798187	22.46453514739229	67	127
22.371655328798187	22.46453514739229	70	127
22.476145124716552	22.870861678004534	65	127
22.476145124716552	22.56902494331066	52	127
22.476145124716552	22.870861678004534	69	127
22.56902494331066	22.673514739229024	53	127
22.673514739229024	22.778004535147392	52	127
22.778004535147392	22.870861678004534	53	127
22.870861678004534	23.03342403628118	52	127
23.03342403628118	23.14952380952381	53	127
23.14952380952381	23.41655328798186	48	127
23.41655328798186	23.509433106575965	45	127
23.521043083900228	23.64875283446712	60	127
23.521043083900228	23.950612244897957	41	127
23.64875283446712	23.753242630385486	65	127
23.753242630385486	23.857732426303855	70	127
23.857732426303855	23.950612244897957	69	127
23.950612244897957	24.055102040816326	65	127
24.055102040816326	24.147981859410432	69	127
24.147981859410432	24.252471655328797	74	127
24.252471655328797	24.356961451247166	72	127
24.356961451247166	24.44984126984127	69	127
24.44984126984127	24.5659410430839	72	127
24.5659410430839	24.658820861678006	79	127
24.658820861678006	24.774920634920633	77	127
24.774920634920633	24.879410430839002	72	127
24.879410430839002	24.98390022675737	77	127
24.98390022675737	25.459909297052153	60	127
24.98390022675737	25.088390022675735	82	127
25.088390022675735	25.18126984126984	81	127
25.18126984126984	25.459909297052153	52	127
25.18126984126984	25.413469387755104	79	127
25.18126984126984	25.459909297052153	67	127
25.413469387755104	25.55278911564626	77	127
25.55278911564626	25.703718820861678	48	127
25.55278911564626	25.703718820861678	60	127
25.55278911564626	25.703718820861678	64	127
25.55278911564626	25.657278911564624	76	127
25.657278911564624	25.761768707482993	74	127
25.761768707482993	25.959138321995464	60	127
25.761768707482993	25.959138321995464	67	127
25.761768707482993	25.959138321995464	52	127
25.761768707482993	25.924308390022677	72	127
25.924308390022677	26.01718820861678	73	127
26.01718820861678	26.179727891156464	48	127
26.01718820861678	26.179727891156464	60	127
26.01718820861678	26.179727891156464	64	127
26.01718820861678	26.12167800453515	74	127
26.12167800453515	26.249387755102042	67	127
26.249387755102042	26.829886621315193	67	127
26.249387755102042	26.528027210884353	53	127
26.249387755102042	26.829886621315193	70	127
26.249387755102042	27.05047619047619	60	127
26.58607709750567	26.771836734693878	41	127
26.829886621315193	26.992426303854874	53	127
26.829886621315193	26.992426303854874	69	127
26.829886621315193	26.992426303854874	65	127
27.05047619047619	27.224625850340136	69	127
27.05047619047619	27.224625850340136	57	127
27.05047619047619	27.224625850340136	69	127
27.294285714285714	28.025714285714287	57	127
27.294285714285714	28.025714285714287	45	127
27.294285714285714	28.025714285714287	57	127
28.025714285714287	28.106984126984127	45	127
28.025714285714287	28.106984126984127	57	127
28.025714285714287	28.106984126984127	57	127
28.106984126984127	28.292743764172336	47	127
28.106984126984127	28.292743764172336	59	127
28.106984126984127	28.292743764172336	59	127
28.292743764172336	28.397233560090704	61	127
28.292743764172336	28.397233560090704	49	127
28.292743764172336	28.397233560090704	61	127
28.397233560090704	28.548163265306123	50	127
28.397233560090704	28.548163265306123	62	127
28.397233560090704	28.548163265306123	62	127
28.629433106575963	28.80358276643991	52	127
28.629433106575963	28.80358276643991	64	127
28.629433106575963	28.80358276643991	52	127
28.850022675736962	29.024172335600905	53	127
28.850022675736962	29.024172335600905	65	127
28.850022675736962	29.024172335600905	53	127
29.08222222222222	29.244761904761905	55	127
29.08222222222222	29.244761904761905	67	127
29.08222222222222	29.244761904761905	55	127
29.30281179138322	29.4653514739229	69	127
29.30281179138322	29.4653514739229	57	127
29.30281179138322	29.4653514739229	57	127
29.523401360544216	29.6859410430839	59	127
29.523401360544216	29.6859410430839	59	127
29.523401360544216	29.6859410430839	71	127
29.732380952380954	29.883310657596372	60	127
29.732380952380954	29.883310657596372	72	127
29.732380952380954	29.883310657596372	60	127
29.941360544217687	30.15034013605442	73	127
29.941360544217687	30.15034013605442	61	127
29.941360544217687	30.15034013605442	61	127
30.208390022675736	30.440589569161	74	127
30.208390022675736	30.440589569161	62	127
30.208390022675736	30.440589569161	62	127
30.48702947845805	30.63795918367347	64	127
30.48702947845805	30.63795918367347	76	127
30.48702947845805	30.63795918367347	64	127
30.649569160997732	30.696009070294785	62	127
30.649569160997732	30.696009070294785	74	127
30.649569160997732	30.696009070294785	62	127
30.696009070294785	30.765668934240363	76	127
30.696009070294785	30.765668934240363	64	127
30.696009070294785	30.765668934240363	64	127
30.765668934240363	31.380997732426305	77	127
30.765668934240363	31.380997732426305	65	127
30.765668934240363	31.380997732426305	65	127
31.392607709750568	31.729297052154195	76	127
31.392607709750568	31.729297052154195	64	127
31.392607709750568	31.729297052154195	64	127
31.729297052154195	31.810566893424035	62	127
31.729297052154195	31.810566893424035	62	127
31.729297052154195	31.810566893424035	74	127
31.810566893424035	31.880226757369613	64	127
31.810566893424035	31.880226757369613	76	127
31.810566893424035	31.880226757369613	64	127
31.880226757369613	31.949886621315194	62	127
31.880226757369613	31.949886621315194	74	127
31.880226757369613	31.949886621315194	62	127
31.949886621315194	32.182086167800456	60	127
31.949886621315194	32.182086167800456	72	127
31.949886621315194	32.182086167800456	60	127
32.182086167800456	32.274965986394555	58	127
32.182086167800456	32.274965986394555	70	127
32.182086167800456	32.274965986394555	58	127
32.274965986394555	32.34462585034014	60	127
32.274965986394555	32.34462585034014	72	127
32.274965986394555	32.34462585034014	60	127
32.34462585034014	32.414263038548754	58	127
32.34462585034014	32.414263038548754	70	127
32.34462585034014	32.414263038548754	58	127
32.414263038548754	32.63487528344671	69	127
32.414263038548754	32.63487528344671	57	127
32.414263038548754	32.63487528344671	57	127
32.64648526077097	32.716145124716554	55	127
32.64648526077097	32.716145124716554	55	127
32.64648526077097	32.716145124716554	67	127
32.716145124716554	32.774195011337866	57	127
32.716145124716554	32.774195011337866	69	127
32.716145124716554	32.774195011337866	57	127
32.774195011337866	32.86707482993197	67	127
32.774195011337866	32.86707482993197	55	127
32.774195011337866	32.86707482993197	55	127
32.86707482993197	33.1108843537415	65	127
32.86707482993197	33.1108843537415	53	127
32.86707482993197	33.1108843537415	53	127
33.12249433106576	33.19215419501134	52	127
33.12249433106576	33.19215419501134	64	127
33.12249433106576	33.19215419501134	52	127
33.19215419501134	33.261814058956915	53	127
33.19215419501134	33.261814058956915	65	127
33.19215419501134	33.261814058956915	53	127
33.261814058956915	33.3314739229025	64	127
33.261814058956915	33.3314739229025	52	127
33.261814058956915	33.3314739229025	52	127
33.3314739229025	33.55204081632653	62	127
33.3314739229025	33.55204081632653	50	127
33.3314739229025	33.55204081632653	50	127
33.56367346938776	33.749433106575964	69	127
33.56367346938776	33.749433106575964	57	127
33.56367346938776	33.749433106575964	57	127
33.80746031746032	34.00485260770975	57	127
33.80746031746032	34.00485260770975	57	127
33.80746031746032	34.00485260770975	45	127
34.07451247165533	34.26027210884354	62	127
34.07451247165533	34.562108843537416	50	127
34.07451247165533	34.364761904761906	62	127
34.07451247165533	34.562108843537416	50	127
34.26027210884354	34.364761904761906	65	127
34.364761904761906	34.469251700680275	69	127
34.469251700680275	34.57371882086168	67	127
34.57371882086168	34.66662131519274	62	127
34.57371882086168	34.66662131519274	65	127
34.66662131519274	34.77111111111111	69	127
34.66662131519274	34.77111111111111	65	127
34.77111111111111	34.87560090702948	77	127
34.77111111111111	34.87560090702948	69	127
34.87560090702948	34.98009070294785	65	127
34.87560090702948	34.98009070294785	74	127
34.98009070294785	35.177460317460316	64	127
34.98009070294785	35.08458049886622	68	127
34.98009070294785	35.177460317460316	73	127
35.08458049886622	35.177460317460316	69	127
35.177460317460316	35.281950113378684	68	127
35.281950113378684	35.37482993197279	69	127
35.37482993197279	35.49092970521542	68	127
35.49092970521542	35.59541950113379	69	127
35.59541950113379	35.69990929705215	64	127
35.69990929705215	35.80439909297052	61	127
35.80439909297052	36.01337868480726	69	127
35.80439909297052	36.106258503401364	57	127
36.01337868480726	36.106258503401364	73	127
36.106258503401364	36.22233560090703	76	127
36.22233560090703	36.326848072562356	74	127
36.326848072562356	36.431337868480725	73	127
36.326848072562356	36.431337868480725	69	127
36.431337868480725	36.53582766439909	73	127
36.431337868480725	36.53582766439909	76	127
36.53582766439909	36.6287074829932	81	127
36.53582766439909	36.6287074829932	77	127
36.6287074829932	36.79124716553288	76	127
36.6287074829932	36.79124716553288	79	127
36.79124716553288	37.04666666666667	77	127
36.79124716553288	36.884126984126986	61	127
36.79124716553288	37.04666666666667	74	127
36.884126984126986	37.04666666666667	62	127
37.04666666666667	37.17437641723356	61	127
37.17437641723356	37.267256235827666	62	127
37.267256235827666	37.371746031746035	61	127
37.371746031746035	37.54589569160998	62	127
37.54589569160998	37.67360544217687	57	127
37.67360544217687	37.77809523809524	53	127
37.77809523809524	37.97546485260771	50	127
37.77809523809524	37.87095238095238	57	127
37.87095238095238	37.97546485260771	62	127
37.97546485260771	38.09156462585034	65	127
38.09156462585034	38.21927437641723	64	127
38.21927437641723	38.33537414965986	62	127
38.33537414965986	38.42825396825397	65	127
38.42825396825397	38.53274376417234	70	127
38.53274376417234	38.69528344671202	69	127
38.69528344671202	39.02036281179139	62	127
38.69528344671202	39.02036281179139	47	127
38.69528344671202	38.89265306122449	87	127
38.69528344671202	39.02036281179139	68	127
38.69528344671202	39.02036281179139	59	127
38.89265306122449	39.02036281179139	88	127
39.02036281179139	39.13643990929705	87	127
39.13643990929705	39.24095238095238	88	127
39.24095238095238	39.34544217687075	87	127
39.34544217687075	39.438321995464854	88	127
39.438321995464854	39.53120181405896	83	127
39.53120181405896	39.635668934240364	80	127
39.635668934240364	39.821451247165534	56	127
39.635668934240364	39.821451247165534	76	127
39.635668934240364	39.821451247165534	59	127
39.635668934240364	39.72857142857143	64	127
39.72857142857143	39.833061224489796	68	127
39.833061224489796	39.937551020408165	71	127
39.937551020408165	40.08848072562358	69	127
40.08848072562358	40.251020408163264	68	127
40.08848072562358	40.34390022675737	59	127
40.08848072562358	40.34390022675737	52	127
40.251020408163264	40.34390022675737	71	127
40.34390022675737	40.46	76	127
40.46	40.55287981859411	74	127
40.55287981859411	40.819909297052156	60	127
40.55287981859411	40.819909297052156	45	127
40.66897959183674	40.83151927437642	64	127
40.83151927437642	40.93600907029479	74	127
40.83151927437642	41.15659863945578	57	127
40.83151927437642	41.15659863945578	64	127
40.93600907029479	41.15659863945578	72	127
41.15659863945578	41.38879818594104	43	127
41.15659863945578	42.050544217687076	81	127
41.26108843537415	41.38879818594104	69	127
41.38879818594104	41.49328798185941	74	127
41.38879818594104	41.58616780045352	64	127
41.38879818594104	41.58616780045352	55	127
41.49328798185941	41.58616780045352	73	127
41.58616780045352	41.82997732426304	42	127
41.72548752834467	41.82997732426304	69	127
41.82997732426304	42.050544217687076	54	127
41.82997732426304	42.050544217687076	69	127
41.82997732426304	41.94607709750567	76	127
41.94607709750567	42.0621768707483	74	127
42.0621768707483	42.58462585034014	78	127
42.0621768707483	42.35242630385488	38	127
42.166666666666664	42.35242630385488	69	127
42.35242630385488	42.58462585034014	50	127
42.35242630385488	42.58462585034014	62	127
42.35242630385488	42.46852607709751	74	127
42.46852607709751	42.58462585034014	72	127
42.58462585034014	42.86326530612245	43	127
42.58462585034014	43.490204081632655	59	127
42.58462585034014	44.639591836734695	50	127
42.58462585034014	42.86326530612245	71	127
42.58462585034014	43.25800453514739	79	127
42.86326530612245	43.06061224489796	38	127
43.06061224489796	43.25800453514739	42	127
43.25800453514739	43.31603174603175	81	127
43.25800453514739	43.490204081632655	43	127
43.31603174603175	43.39732426303855	79	127
43.39732426303855	43.44374149659864	78	127
43.44374149659864	43.50181405895692	76	127
43.50181405895692	43.652743764172335	74	127
43.50181405895692	44.39578231292517	60	127
43.50181405895692	43.710793650793654	45	127
43.710793650793654	43.873333333333335	62	127
43.710793650793654	43.94299319727891	38	127
43.710793650793654	43.873333333333335	74	127
43.94299319727891	44.11714285714286	62	127
43.94299319727891	44.11714285714286	74	127
43.94299319727891	44.17519274376417	44	127
44.17519274376417	44.39578231292517	45	127
44.17519274376417	44.34934240362812	74	127
44.17519274376417	44.34934240362812	62	127
44.419002267573696	44.639591836734695	62	127
44.419002267573696	44.639591836734695	46	127
44.419002267573696	44.89501133786848	74	127
44.419002267573696	45.09235827664399	67	127
44.65120181405896	44.89501133786848	50	127
44.65120181405896	44.89501133786848	38	127
44.89501133786848	45.09235827664399	46	127
44.89501133786848	45.09235827664399	54	127
45.09235827664399	45.37102040816327	55	127
45.09235827664399	45.37102040816327	46	127
45.09235827664399	45.15043083900227	69	127
45.15043083900227	45.243310657596375	67	127
45.243310657596375	45.31297052154195	66	127
45.31297052154195	45.37102040816327	64	127
45.37102040816327	45.55678004535147	62	127
45.37102040816327	45.603197278911566	47	127
45.37102040816327	45.603197278911566	57	127
45.61482993197279	45.81219954648526	62	127
45.61482993197279	45.81219954648526	74	127
45.61482993197279	45.87024943310658	50	127
45.61482993197279	45.87024943310658	38	127
45.87024943310658	46.03278911564626	74	127
45.87024943310658	46.09083900226757	40	127
45.87024943310658	46.09083900226757	55	127
45.87024943310658	46.03278911564626	62	127
46.09083900226757	46.34625850340136	57	127
46.09083900226757	46.29981859410431	74	127
46.09083900226757	46.29981859410431	62	127
46.09083900226757	46.34625850340136	42	127
46.34625850340136	46.752585034013606	62	127
46.34625850340136	46.45074829931973	81	127
46.34625850340136	46.54362811791383	58	127
46.34625850340136	46.54362811791383	43	127
46.45074829931973	46.56684807256236	79	127
46.56684807256236	46.752585034013606	50	127
46.56684807256236	46.659727891156464	78	127
46.56684807256236	46.752585034013606	38	127
46.659727891156464	46.76421768707483	79	127
46.76421768707483	46.9615873015873	57	127
46.76421768707483	46.9615873015873	41	127
46.76421768707483	46.85709750566893	81	127
46.85709750566893	46.9615873015873	79	127
46.9615873015873	47.19378684807256	58	127
46.9615873015873	47.07768707482993	78	127
46.9615873015873	47.19378684807256	43	127
47.07768707482993	47.19378684807256	76	127
47.19378684807256	47.44920634920635	45	127
47.19378684807256	47.44920634920635	60	127
47.19378684807256	47.39115646258504	74	127
47.46081632653061	47.634965986394555	74	127
47.46081632653061	47.68140589569161	38	127
47.46081632653061	47.68140589569161	50	127
47.46081632653061	47.634965986394555	62	127
47.693015873015874	47.855555555555554	62	127
47.693015873015874	47.9368253968254	44	127
47.693015873015874	47.855555555555554	74	127
47.693015873015874	47.9368253968254	59	127
47.9368253968254	48.14580498866213	60	127
47.9368253968254	48.14580498866213	45	127
47.9368253968254	48.09936507936508	74	127
47.9368253968254	48.09936507936508	62	127
48.14580498866213	48.401224489795915	62	127
48.14580498866213	48.27351473922902	69	127
48.14580498866213	48.401224489795915	74	127
48.14580498866213	48.401224489795915	47	127
48.27351473922902	48.401224489795915	67	127
48.401224489795915	48.64503401360544	43	127
48.401224489795915	48.517324263038546	66	127
48.401224489795915	48.94689342403628	59	127
48.517324263038546	48.6566439909297	67	127
48.6566439909297	48.81918367346939	69	127
48.6566439909297	48.94689342403628	47	127
48.81918367346939	48.94689342403628	67	127
48.94689342403628	49.14426303854875	50	127
48.94689342403628	49.03977324263039	65	127
48.94689342403628	49.341632653061225	59	127
49.03977324263039	49.14426303854875	64	127
49.14426303854875	49.295192743764176	65	127
49.14426303854875	49.341632653061225	55	127
49.341632653061225	49.49256235827664	65	127
49.341632653061225	49.49256235827664	79	127
49.341632653061225	49.55061224489796	43	127
49.341632653061225	49.55061224489796	59	127
49.55061224489796	49.71315192743764	65	127
49.55061224489796	49.80603174603175	45	127
49.55061224489796	49.71315192743764	79	127
49.55061224489796	49.80603174603175	60	127
49.80603174603175	50.0730612244898	62	127
49.80603174603175	50.0730612244898	47	127
49.80603174603175	50.01501133786848	79	127
49.80603174603175	50.01501133786848	65	127
50.0730612244898	50.920589569160995	64	127
50.0730612244898	52.174467120181404	55	127
50.0730612244898	50.270430839002266	48	127
50.0730612244898	50.46780045351474	64	127
50.0730612244898	50.7	84	127
50.28204081632653	50.46780045351474	43	127
50.479410430839	50.7	47	127
50.7	50.920589569160995	48	127
50.7	50.74643990929705	86	127
50.74643990929705	50.804489795918364	84	127
50.804489795918364	50.86253968253968	83	127
50.86253968253968	50.920589569160995	81	127
50.920589569160995	51.187619047619044	50	127
50.920589569160995	51.12956916099773	79	127
50.920589569160995	51.88421768707483	65	127
51.187619047619044	51.37337868480726	67	127
51.187619047619044	51.37337868480726	79	127
51.187619047619044	51.419818594104306	43	127
51.44303854875283	51.66362811791383	48	127
51.44303854875283	51.59396825396826	79	127
51.44303854875283	51.59396825396826	67	127
51.66362811791383	51.83777777777778	67	127
51.66362811791383	51.83777777777778	79	127
51.66362811791383	51.88421768707483	50	127
51.88421768707483	52.174467120181404	67	127
51.88421768707483	52.59242630385488	72	127
51.88421768707483	52.38344671201814	79	127
51.88421768707483	52.174467120181404	52	127
52.174467120181404	52.38344671201814	43	127
52.174467120181404	52.38344671201814	55	127
52.395056689342404	52.59242630385488	50	127
52.395056689342404	52.59242630385488	59	127
52.60403628117914	52.80140589569161	60	127
52.60403628117914	52.80140589569161	52	127
52.60403628117914	52.65047619047619	74	127
52.65047619047619	52.69691609977324	72	127
52.69691609977324	52.75496598639456	71	127
52.75496598639456	52.80140589569161	69	127
52.80140589569161	52.98716553287982	67	127
52.80140589569161	53.03360544217687	53	127
52.80140589569161	53.03360544217687	62	127
53.03360544217687	53.18453514739229	67	127
53.03360544217687	53.230975056689346	55	127
53.03360544217687	53.230975056689346	43	127
53.03360544217687	53.18453514739229	79	127
53.24258503401361	53.381904761904764	67	127
53.24258503401361	53.42834467120181	45	127
53.24258503401361	53.381904761904764	79	127
53.24258503401361	53.42834467120181	60	127
53.439954648526076	53.63732426303855	67	127
53.439954648526076	53.71859410430839	62	127
53.439954648526076	53.63732426303855	79	127
53.439954648526076	53.71859410430839	47	127
53.71859410430839	53.85791383219954	86	127
53.71859410430839	54.17138321995465	67	127
53.71859410430839	53.95079365079365	64	127
53.71859410430839	53.95079365079365	48	127
53.85791383219954	53.95079365079365	84	127
53.95079365079365	54.17138321995465	55	127
53.95079365079365	54.05528344671202	83	127
53.95079365079365	54.17138321995465	43	127
54.05528344671202	54.17138321995465	84	127
54.17138321995465	54.27587301587302	86	127
54.17138321995465	54.368752834467124	47	127
54.17138321995465	54.368752834467124	62	127
54.27587301587302	54.380362811791386	84	127
54.380362811791386	54.589342403628116	64	127
54.380362811791386	54.473242630385485	83	127
54.380362811791386	54.589342403628116	48	127
54.473242630385485	54.589342403628116	81	127
54.589342403628116	54.83315192743764	65	127
54.589342403628116	54.83315192743764	50	127
54.589342403628116	54.763492063492066	79	127
54.83315192743764	55.00730158730159	67	127
54.83315192743764	55.05374149659864	55	127
54.83315192743764	55.05374149659864	43	127
54.83315192743764	55.00730158730159	79	127
55.05374149659864	55.239501133786845	67	127
55.05374149659864	55.2859410430839	49	127
55.05374149659864	55.239501133786845	79	127
55.05374149659864	55.2859410430839	64	127
55.297551020408164	55.44848072562358	67	127
55.297551020408164	55.506530612244894	65	127
55.297551020408164	55.44848072562358	79	127
55.297551020408164	55.506530612244894	50	127
55.518140589569164	55.76195011337869	52	127
55.518140589569164	55.959319727891156	79	127
55.518140589569164	55.63424036281179	74	127
55.518140589569164	55.76195011337869	67	127
55.63424036281179	55.76195011337869	72	127
55.76195011337869	55.959319727891156	43	127
55.76195011337869	55.86643990929705	71	127
55.76195011337869	55.959319727891156	55	127
55.86643990929705	55.959319727891156	72	127
55.959319727891156	56.179909297052156	59	127
55.959319727891156	56.063809523809525	74	127
55.959319727891156	56.179909297052156	50	127
56.063809523809525	56.179909297052156	72	127
56.179909297052156	56.37727891156462	60	127
56.179909297052156	56.37727891156462	52	127
56.179909297052156	56.284399092970524	71	127
56.284399092970524	56.388888888888886	69	127
56.388888888888886	56.609478458049885	53	127
56.388888888888886	56.55142857142857	67	127
56.388888888888886	56.609478458049885	62	127
56.609478458049885	56.81845804988662	55	127
56.609478458049885	56.81845804988662	43	127
56.609478458049885	56.772018140589566	79	127
56.609478458049885	56.772018140589566	67	127
56.830068027210885	56.9809977324263	79	127
56.830068027210885	57.06226757369615	45	127
56.830068027210885	57.06226757369615	60	127
56.830068027210885	56.9809977324263	67	127
57.06226757369615	57.34090702947846	47	127
57.06226757369615	57.27124716553288	79	127
57.06226757369615	57.27124716553288	67	127
57.06226757369615	57.34090702947846	62	127
57.34090702947846	57.480226757369614	81	127
57.34090702947846	57.57310657596372	67	127
57.34090702947846	57.57310657596372	64	127
57.34090702947846	57.57310657596372	48	127
57.480226757369614	57.58471655328798	79	127
57.58471655328798	57.700816326530614	78	127
57.700816326530614	57.80530612244898	79	127
57.80530612244898	57.89818594104308	81	127
57.89818594104308	58.00267573696145	79	127
58.00267573696145	58.44385487528345	67	127
58.00267573696145	58.246485260770974	59	127
58.00267573696145	58.13038548752834	77	127
58.13038548752834	58.246485260770974	76	127
58.246485260770974	58.44385487528345	60	127
58.246485260770974	58.35097505668934	77	127
58.35097505668934	58.44385487528345	76	127
58.44385487528345	58.64122448979592	72	127
58.44385487528345	58.54834467120181	75	127
58.54834467120181	58.65283446712018	76	127
58.65283446712018	58.75732426303855	77	127
58.75732426303855	58.86181405895692	76	127
58.86181405895692	59.25655328798186	64	127
58.86181405895692	58.95469387755102	74	127
58.86181405895692	59.059183673469384	56	127
58.95469387755102	59.059183673469384	71	127
59.059183673469384	59.25655328798186	57	127
59.059183673469384	59.16367346938775	74	127
59.16367346938775	59.25655328798186	72	127
59.25655328798186	59.38426303854875	71	127
59.25655328798186	59.47714285714286	69	127
59.38426303854875	59.54680272108843	72	127
59.54680272108843	59.63968253968254	74	127
59.63968253968254	59.80222222222222	72	127
59.80222222222222	59.999591836734695	52	127
59.80222222222222	59.895102040816326	70	127
59.80222222222222	60.19696145124716	60	127
59.895102040816326	59.999591836734695	67	127
59.999591836734695	60.10408163265306	68	127
59.999591836734695	60.19696145124716	53	127
60.10408163265306	60.19696145124716	69	127
60.19696145124716	60.30145124716553	70	127
60.30145124716553	60.39433106575964	71	127
60.39433106575964	60.498820861678006	72	127
60.498820861678006	60.603310657596374	73	127
60.603310657596374	60.69619047619047	74	127
60.69619047619047	60.812290249433104	75	127
60.812290249433104	60.91678004535147	76	127
60.812290249433104	61.00965986394558	53	127
60.91678004535147	61.00965986394558	77	127
61.00965986394558	61.11414965986395	78	127
61.00965986394558	61.20702947845805	69	127
61.00965986394558	61.20702947845805	60	127
61.11414965986395	61.20702947845805	79	127
61.20702947845805	61.34634920634921	80	127
61.20702947845805	61.4740589569161	53	127
61.34634920634921	61.485668934240366	81	127
61.485668934240366	61.68303854875283	69	127
61.485668934240366	61.68303854875283	65	127
61.485668934240366	61.578548752834465	77	127
61.578548752834465	61.68303854875283	74	127
61.694648526077096	61.868798185941046	74	127
61.694648526077096	61.99650793650794	55	127
61.868798185941046	61.97328798185941	72	127
61.99650793650794	62.19387755102041	64	127
61.99650793650794	62.06616780045351	72	127
61.99650793650794	62.19387755102041	67	127
62.1009977324263	62.17065759637188	72	127
62.19387755102041	62.3215873015873	72	127
62.19387755102041	62.414467120181406	43	127
62.3215873015873	62.39124716553288	71	127
62.414467120181406	62.49573696145125	71	127
62.414467120181406	62.62344671201814	65	127
62.414467120181406	62.62344671201814	62	127
62.518956916099775	62.60022675736961	71	127
62.635056689342406	62.75115646258504	69	127
62.75115646258504	62.8556462585034	67	127
62.8556462585034	62.97174603174603	66	127
62.97174603174603	63.064625850340136	67	127
63.064625850340136	63.26199546485261	69	127
63.26199546485261	63.37809523809524	67	127
63.37809523809524	63.4825850340136	65	127
63.37809523809524	63.86571428571428	79	127
63.37809523809524	63.58707482993197	47	127
63.4825850340136	63.598684807256234	62	127
63.598684807256234	63.772834467120184	65	127
63.598684807256234	63.86571428571428	48	127
63.772834467120184	63.877324263038545	64	127
63.877324263038545	64.07469387755103	84	127
63.877324263038545	64.07469387755103	55	127
63.877324263038545	63.97020408163265	63	127
63.97020408163265	64.07469387755103	64	127
64.07469387755103	64.2720634920635	60	127
64.07469387755103	64.17916099773242	65	127
64.17916099773242	64.2720634920635	64	127
64.2720634920635	64.49265306122449	76	127
64.2720634920635	64.49265306122449	44	127
64.2720634920635	64.38816326530612	62	127
64.38816326530612	64.50426303854876	59	127
64.50426303854876	64.8061224489796	60	127
64.50426303854876	64.8061224489796	45	127
64.50426303854876	64.6784126984127	86	127
64.6784126984127	64.86417233560091	84	127
64.86417233560091	65.07312925170068	52	127
64.86417233560091	64.96866213151928	83	127
64.96866213151928	65.07312925170068	84	127
65.07312925170068	65.27052154195012	57	127
65.07312925170068	65.177641723356	86	127
65.177641723356	65.27052154195012	84	127
65.27052154195012	65.72331065759637	72	127
65.27052154195012	65.37501133786849	82	127
65.27052154195012	65.49111111111111	52	127
65.37501133786849	65.49111111111111	79	127
65.49111111111111	65.72331065759637	53	127
65.49111111111111	65.63043083900227	82	127
65.63043083900227	65.73492063492064	81	127
65.73492063492064	65.93229024943311	60	127
65.73492063492064	65.93229024943311	77	127
65.73492063492064	65.82780045351474	80	127
65.82780045351474	65.93229024943311	81	127
65.93229024943311	66.12965986394558	65	127
65.93229024943311	66.03678004535148	82	127
66.03678004535148	66.12965986394558	81	127
66.12965986394558	66.280589569161	79	127
66.12965986394558	66.37346938775511	49	127
66.12965986394558	66.6056462585034	69	127
66.12965986394558	66.6056462585034	57	127
66.280589569161	66.37346938775511	76	127
66.37346938775511	66.51278911564626	79	127
66.37346938775511	66.6056462585034	50	127
66.51278911564626	66.69854875283447	77	127
66.69854875283447	66.83784580498866	65	127
66.69854875283447	66.79142857142857	81	127
66.69854875283447	66.83784580498866	81	127
66.79142857142857	66.89591836734694	79	127
66.89591836734694	66.98879818594105	77	127
66.89591836734694	67.0352380952381	81	127
66.89591836734694	67.0352380952381	65	127
66.98879818594105	67.09326530612245	76	127
67.09326530612245	67.24421768707484	65	127
67.09326530612245	67.24421768707484	81	127
67.09326530612245	67.19777777777777	74	127
67.19777777777777	67.30226757369614	72	127
67.30226757369614	67.70861678004535	81	127
67.30226757369614	67.70861678004535	65	127
67.30226757369614	67.40675736961451	71	127
67.30226757369614	67.49963718820862	43	127
67.40675736961451	67.49963718820862	72	127
67.49963718820862	67.60410430839002	74	127
67.49963718820862	67.70861678004535	55	127
67.60410430839002	67.70861678004535	76	127
67.70861678004535	67.81310657596372	77	127
67.70861678004535	67.92920634920635	64	127
67.70861678004535	67.92920634920635	55	127
67.70861678004535	67.92920634920635	79	127
67.81310657596372	67.92920634920635	79	127
67.92920634920635	68.03369614512472	81	127
67.92920634920635	68.13818594104309	62	127
67.92920634920635	68.13818594104309	55	127
67.92920634920635	68.13818594104309	77	127
68.03369614512472	68.13818594104309	83	127
68.13818594104309	68.31233560090703	76	127
68.13818594104309	68.35877551020408	48	127
68.13818594104309	68.31233560090703	60	127
68.13818594104309	68.23106575963719	84	127
68.26589569160998	68.35877551020408	79	127
68.35877551020408	68.61419501133787	76	127
68.35877551020408	68.5097052154195	88	127
68.35877551020408	68.61419501133787	60	127
68.35877551020408	68.86961451247166	67	127
68.5097052154195	68.61419501133787	84	127
68.61419501133787	68.86961451247166	62	127
68.61419501133787	68.75349206349206	84	127
68.61419501133787	68.86961451247166	77	127
68.75349206349206	68.88120181405895	83	127
68.88120181405895	69.368820861678	67	127
68.88120181405895	68.97410430839003	81	127
68.88120181405895	69.11340136054422	74	127
68.88120181405895	69.11340136054422	65	127
68.97410430839003	69.12503401360544	83	127
69.12503401360544	69.19469387755102	84	127
69.12503401360544	69.26433106575963	79	127
69.12503401360544	69.368820861678	64	127
69.21791383219954	69.368820861678	79	127
69.368820861678	69.70553287981859	76	127
69.368820861678	69.9261224489796	67	127
69.368820861678	69.70553287981859	60	127
69.368820861678	69.53138321995465	88	127
69.53138321995465	69.70553287981859	84	127
69.70553287981859	69.9261224489796	77	127
69.70553287981859	69.83324263038548	84	127
69.70553287981859	69.9261224489796	62	127
69.83324263038548	69.93773242630385	83	127
69.93773242630385	70.13507936507936	65	127
69.93773242630385	70.34408163265306	67	127
69.93773242630385	70.030589569161	81	127
69.93773242630385	70.13507936507936	74	127
70.030589569161	70.14671201814059	83	127
70.14671201814059	70.28600907029478	64	127
70.14671201814059	70.34408163265306	79	127
70.14671201814059	70.23959183673469	84	127
70.23959183673469	70.34408163265306	88	127
70.34408163265306	70.44857142857143	79	127
70.34408163265306	70.57628117913832	67	127
70.34408163265306	70.57628117913832	76	127
70.34408163265306	70.52984126984127	60	127
70.44857142857143	70.57628117913832	84	127
70.57628117913832	70.77362811791383	72	127
70.57628117913832	70.77362811791383	69	127
70.57628117913832	70.68077097505669	81	127
70.68077097505669	70.77362811791383	84	127
70.77362811791383	70.87814058956916	77	127
70.77362811791383	70.98263038548752	65	127
70.77362811791383	70.98263038548752	69	127
70.77362811791383	70.98263038548752	53	127
70.87814058956916	70.9942403628118	81	127
70.9942403628118	71.20321995464853	67	127
70.9942403628118	71.20321995464853	64	127
70.9942403628118	71.09873015873016	76	127
71.09873015873016	71.20321995464853	79	127
71.20321995464853	71.4121768707483	64	127
71.20321995464853	71.4121768707483	55	127
71.20321995464853	71.4121768707483	60	127
71.20321995464853	71.31931972789116	72	127
71.31931972789116	71.4121768707483	76	127
71.4121768707483	71.53988662131519	74	127
71.4121768707483	71.64439909297052	62	127
71.4121768707483	71.64439909297052	65	127
71.53988662131519	71.64439909297052	77	127
71.64439909297052	71.85337868480725	62	127
71.64439909297052	71.85337868480725	43	127
71.64439909297052	71.85337868480725	59	127
71.64439909297052	71.76049886621315	71	127
71.76049886621315	71.86498866213152	74	127
71.86498866213152	71.95786848072562	63	127
71.86498866213152	71.95786848072562	63	127
71.86498866213152	72.05072562358276	72	127
71.95786848072562	72.06235827664399	55	127
71.95786848072562	72.06235827664399	67	127
72.06235827664399	72.19006802721088	75	127
72.06235827664399	73.07240362811791	79	127
72.06235827664399	72.30614512471655	48	127
72.06235827664399	72.19006802721088	63	127
72.19006802721088	72.30614512471655	72	127
72.19006802721088	72.30614512471655	60	127
72.30614512471655	72.59641723356009	50	127
72.30614512471655	72.4687074829932	72	127
72.30614512471655	72.4687074829932	60	127
72.4687074829932	72.59641723356009	59	127
72.4687074829932	72.59641723356009	71	127
72.59641723356009	72.74734693877551	57	127
72.59641723356009	72.74734693877551	69	127
72.59641723356009	72.8750566893424	43	127
72.74734693877551	72.8750566893424	71	127
72.74734693877551	72.8750566893424	59	127
72.8750566893424	72.97954648526077	60	127
72.8750566893424	72.97954648526077	72	127
72.8750566893424	73.02598639455782	52	127
72.97954648526077	73.08403628117914	67	127
72.97954648526077	73.08403628117914	55	127
73.08403628117914	73.17689342403628	75	127
73.08403628117914	73.17689342403628	63	127
73.08403628117914	73.2814058956916	48	127
73.08403628117914	73.90834467120182	79	127
73.17689342403628	73.2814058956916	60	127
73.17689342403628	73.2814058956916	72	127
73.2814058956916	73.60648526077098	50	127
73.2814058956916	73.50199546485261	72	127
73.2814058956916	73.50199546485261	60	127
73.50199546485261	73.60648526077098	59	127
73.50199546485261	73.60648526077098	71	127
73.60648526077098	73.71095238095238	69	127
73.60648526077098	73.71095238095238	57	127
73.60648526077098	73.80385487528345	43	127
73.71095238095238	73.80385487528345	59	127
73.71095238095238	73.80385487528345	71	127
73.80385487528345	73.95478458049887	52	127
73.80385487528345	74.00122448979592	72	127
73.80385487528345	74.00122448979592	60	127
73.90834467120182	74.01283446712019	84	127
74.01283446712019	74.14054421768708	75	127
74.01283446712019	74.14054421768708	63	127
74.01283446712019	74.14054421768708	55	127
74.01283446712019	74.2566439909297	48	127
74.14054421768708	74.26825396825397	79	127
74.14054421768708	74.26825396825397	60	127
74.14054421768708	74.26825396825397	51	127
74.26825396825397	74.37274376417234	77	127
74.26825396825397	74.37274376417234	65	127
74.26825396825397	74.37274376417234	56	127
74.37274376417234	74.47723356009071	80	127
74.37274376417234	74.47723356009071	62	127
74.37274376417234	74.47723356009071	53	127
74.47723356009071	74.5817006802721	74	127
74.47723356009071	74.72104308390023	41	127
74.5817006802721	74.72104308390023	77	127
74.72104308390023	74.8255328798186	75	127
74.72104308390023	74.8255328798186	63	127
74.72104308390023	74.8255328798186	55	127
74.8255328798186	74.93002267573696	79	127
74.8255328798186	74.93002267573696	60	127
74.8255328798186	74.93002267573696	51	127
74.93002267573696	75.09253968253968	72	127
74.93002267573696	75.18544217687075	43	127
75.09253968253968	75.197052154195	75	127
75.197052154195	75.30154195011337	74	127
75.197052154195	75.30154195011337	53	127
75.197052154195	75.30154195011337	62	127
75.30154195011337	75.40603174603174	59	127
75.30154195011337	75.40603174603174	50	127
75.30154195011337	75.40603174603174	77	127
75.40603174603174	75.62662131519275	71	127
75.40603174603174	75.73108843537415	43	127
75.62662131519275	75.73108843537415	74	127
75.73108843537415	76.50897959183673	72	127
75.73108843537415	75.90526077097506	67	127
75.73108843537415	75.90526077097506	51	127
75.73108843537415	76.28839002267574	48	127
75.90526077097506	76.00975056689343	66	127
75.97492063492064	76.04458049886621	55	127
76.00975056689343	76.06780045351474	67	127
76.06780045351474	76.1722902494331	60	127
76.06780045351474	76.16068027210885	68	127
76.16068027210885	76.23034013605442	67	127
76.19551020408163	76.26517006802722	55	127
76.23034013605442	76.3	66	127
76.3	76.36963718820861	60	127
76.3	76.81083900226757	67	127
76.40448979591837	76.47412698412698	55	127
76.50897959183673	76.7063492063492	75	127
76.50897959183673	76.57863945578231	60	127
76.6134693877551	76.68312925170068	55	127
76.71795918367347	76.81083900226757	59	127
76.71795918367347	77.2752380952381	43	127
76.71795918367347	77.48421768707483	77	127
76.81083900226757	76.90371882086168	66	127
76.84566893424036	76.95015873015873	55	127
76.90371882086168	76.97337868480726	67	127
76.97337868480726	77.11267573696145	59	127
76.97337868480726	77.11267573696145	68	127
77.11267573696145	77.19396825396825	67	127
77.15913832199547	77.25201814058957	55	127
77.19396825396825	77.28684807256236	66	127
77.28684807256236	77.75122448979592	67	127
77.28684807256236	77.35650793650794	59	127
77.37972789115646	77.4609977324263	55	127
77.48421768707483	77.5538775510204	59	127
77.48421768707483	77.6815873015873	74	127
77.5887074829932	77.65836734693877	55	127
77.69319727891157	78.1575963718821	36	127
77.69319727891157	77.77446712018141	60	127
77.69319727891157	78.37818594104309	75	127
77.75122448979592	77.83251700680272	66	127
77.79768707482994	77.86734693877551	55	127
77.83251700680272	77.9021768707483	67	127
77.9021768707483	78.0066439909297	68	127
77.9021768707483	78.0066439909297	60	127
78.0066439909297	78.0879365079365	67	127
78.04149659863945	78.1343537414966	55	127
78.0879365079365	78.1575963718821	66	127
78.1575963718821	78.73809523809524	67	127
78.1575963718821	78.25047619047619	60	127
78.27369614512472	78.34335600907029	55	127
78.37818594104309	78.45945578231293	51	127
78.37818594104309	78.58716553287982	72	127
78.49428571428571	78.5639455782313	55	127
78.58716553287982	79.01673469387755	43	127
78.58716553287982	78.66843537414967	53	127
78.58716553287982	78.90061224489796	74	127
78.69165532879819	78.76131519274377	55	127
78.79614512471656	78.9702947845805	67	127
78.79614512471656	78.87741496598639	50	127
78.92385487528345	79.01673469387755	71	127
78.92385487528345	78.99351473922903	55	127
79.01673469387755	79.0980045351474	53	127
79.01673469387755	79.1908843537415	67	127
79.01673469387755	79.56240362811792	43	127
79.01673469387755	79.08639455782313	71	127
79.08639455782313	79.17927437641724	72	127
79.13283446712018	79.21410430839002	55	127
79.17927437641724	79.29537414965986	71	127
79.29537414965986	79.41145124716553	50	127
79.29537414965986	79.44630385487528	69	127
79.29537414965986	79.5159410430839	67	127
79.44630385487528	79.53916099773242	55	127
79.44630385487528	79.56240362811792	71	127
79.56240362811792	79.6320634920635	36	127
79.56240362811792	80.28219954648526	60	127
79.56240362811792	79.6320634920635	79	127
79.56240362811792	80.28219954648526	72	127
79.6320634920635	79.73655328798186	78	127
79.70172335600907	79.77136054421769	43	127
79.73655328798186	79.80621315192744	79	127
79.80621315192744	79.89907029478458	48	127
79.80621315192744	79.89907029478458	81	127
79.89907029478458	79.95714285714286	79	127
79.9222902494331	80.01519274376417	43	127
79.95714285714286	80.0384126984127	78	127
80.0384126984127	80.10807256235827	48	127
80.0384126984127	80.61891156462585	79	127
80.14290249433107	80.24739229024944	43	127
80.29383219954649	80.42154195011338	48	127
80.29383219954649	80.54925170068027	76	127
80.29383219954649	80.54925170068027	64	127
80.4447619047619	80.52603174603175	43	127
80.54925170068027	81.22263038548753	65	127
80.54925170068027	80.61891156462585	47	127
80.54925170068027	81.22263038548753	77	127
80.61891156462585	80.72340136054422	78	127
80.68854875283446	80.75823129251701	43	127
80.72340136054422	80.79303854875283	79	127
80.79303854875283	80.85111111111111	81	127
80.79303854875283	80.86272108843538	47	127
80.85111111111111	80.92074829931973	79	127
80.8859410430839	80.95560090702948	43	127
80.92074829931973	80.99043083900227	78	127
80.99043083900227	81.07170068027212	47	127
80.99043083900227	81.53609977324263	79	127
81.11814058956917	81.19941043083901	43	127
81.22263038548753	81.4548299319728	74	127
81.22263038548753	81.4548299319728	62	127
81.22263038548753	81.3038775510204	47	127
81.35034013605443	81.42	43	127
81.4548299319728	82.11659863945579	64	127
81.4548299319728	81.53609977324263	48	127
81.4548299319728	82.11659863945579	76	127
81.53609977324263	81.61736961451247	78	127
81.58253968253969	81.65219954648526	43	127
81.61736961451247	81.67541950113379	79	127
81.67541950113379	81.75668934240363	48	127
81.67541950113379	81.74507936507936	81	127
81.74507936507936	81.84956916099773	79	127
81.79151927437641	81.88439909297053	43	127
81.84956916099773	81.9192290249433	78	127
81.9192290249433	81.9888888888889	48	127
81.9192290249433	82.07013605442177	79	127
82.02371882086167	82.09337868480726	43	127
82.11659863945579	82.32555555555555	79	127
82.11659863945579	82.23269841269841	40	127
82.11659863945579	82.37201814058957	72	127
82.11659863945579	82.37201814058957	60	127
82.27913832199546	82.34879818594105	43	127
82.38362811791383	82.73192743764173	62	127
82.38362811791383	82.47650793650794	41	127
82.38362811791383	82.54616780045352	79	127
82.38362811791383	82.73192743764173	74	127
82.49972789115647	82.58097505668934	43	127
82.61582766439909	82.78997732426303	79	127
82.61582766439909	82.68548752834467	38	127
82.73192743764173	82.83639455782313	59	127
82.73192743764173	82.81319727891156	43	127
82.73192743764173	82.83639455782313	71	127
82.87124716553288	82.95251700680272	71	127
82.87124716553288	83.0221768707483	79	127
82.87124716553288	82.95251700680272	41	127
82.87124716553288	82.95251700680272	59	127
82.95251700680272	83.01056689342404	60	127
82.95251700680272	83.01056689342404	72	127
82.97573696145125	83.05700680272109	43	127
83.01056689342404	83.08022675736962	71	127
83.01056689342404	83.08022675736962	59	127
83.08022675736962	83.19630385487528	69	127
83.08022675736962	83.16149659863946	38	127
83.08022675736962	83.19630385487528	57	127
83.08022675736962	83.2427664399093	79	127
83.19630385487528	83.28920634920635	71	127
83.19630385487528	83.26598639455783	43	127
83.19630385487528	83.28920634920635	59	127
83.30081632653061	84.09027210884354	36	127
83.30081632653061	83.35886621315193	72	127
83.30081632653061	83.52140589569161	72	127
83.30081632653061	84.09027210884354	48	127
83.30081632653061	84.09027210884354	60	127
83.35886621315193	83.4285260770975	71	127
83.4285260770975	83.52140589569161	72	127
83.52140589569161	83.63750566893424	74	127
83.63750566893424	83.7768253968254	72	127
83.7768253968254	83.85807256235827	71	127
83.85807256235827	84.48503401360544	72	127
84.09027210884354	84.20639455782313	77	127
84.09027210884354	84.41537414965987	45	127
84.09027210884354	84.41537414965987	60	127
84.09027210884354	84.41537414965987	48	127
84.21798185941043	84.28766439909298	79	127
84.29927437641723	84.41537414965987	77	127
84.41537414965987	84.65918367346939	76	127
84.41537414965987	85.20485260770975	60	127
84.41537414965987	85.20485260770975	48	127
84.41537414965987	85.20485260770975	46	127
84.48503401360544	84.58952380952381	71	127
84.58952380952381	84.65918367346939	72	127
84.65918367346939	84.76367346938775	74	127
84.76367346938775	84.8449433106576	72	127
84.8449433106576	84.99587301587302	71	127
84.99587301587302	85.52993197278911	72	127
85.21646258503401	85.46027210884354	48	127
85.21646258503401	85.46027210884354	60	127
85.21646258503401	85.46027210884354	43	127
85.21646258503401	85.29773242630385	76	127
85.32095238095238	85.3790022675737	74	127
85.3790022675737	85.46027210884354	76	127
85.46027210884354	86.16848072562358	60	127
85.46027210884354	85.68086167800453	77	127
85.46027210884354	86.16848072562358	45	127
85.46027210884354	86.16848072562358	48	127
85.52993197278911	85.59959183673469	69	127
85.59959183673469	85.6924716553288	70	127
85.6924716553288	85.77374149659865	72	127
85.77374149659865	85.83179138321995	74	127
85.83179138321995	85.90145124716554	76	127
85.90145124716554	86.02916099773243	77	127
86.02916099773243	86.098820861678	76	127
86.098820861678	86.1917006802721	74	127
86.1917006802721	86.40068027210884	48	127
86.1917006802721	86.40068027210884	41	127
86.1917006802721	86.24975056689343	81	127
86.1917006802721	86.24975056689343	72	127
86.1917006802721	86.40068027210884	60	127
86.24975056689343	86.319410430839	79	127
86.24975056689343	86.319410430839	70	127
86.319410430839	86.40068027210884	81	127
86.319410430839	86.40068027210884	69	127
86.40068027210884	86.57482993197279	70	127
86.40068027210884	87.17854875283447	82	127
86.40068027210884	87.17854875283447	43	127
86.40068027210884	87.17854875283447	60	127
86.40068027210884	87.17854875283447	48	127
86.57482993197279	86.6444671201814	72	127
86.6444671201814	86.71414965986395	74	127
86.71414965986395	86.7721768707483	72	127
86.7721768707483	86.84185941043084	70	127
86.84185941043084	86.93473922902494	69	127
86.93473922902494	87.00437641723356	67	127
87.00437641723356	87.12049886621315	65	127
87.12049886621315	87.19015873015873	64	127
87.19015873015873	87.49201814058956	48	127
87.19015873015873	87.30625850340137	62	127
87.19015873015873	87.49201814058956	76	127
87.19015873015873	87.49201814058956	36	127
87.19015873015873	87.49201814058956	55	127
87.30625850340137	87.38750566893424	60	127
87.38750566893424	87.49201814058956	58	127
87.49201814058956	87.65455782312925	77	127
87.49201814058956	87.79387755102042	57	127
87.49201814058956	87.79387755102042	48	127
87.49201814058956	87.79387755102042	41	127
87.65455782312925	87.72421768707483	76	127
87.72421768707483	87.81709750566894	77	127
87.81709750566894	87.88675736961451	79	127
87.88675736961451	87.97963718820861	77	127
87.97963718820861	88.0492970521542	76	127
88.0492970521542	88.11895691609978	74	127
88.11895691609978	88.1770068027211	72	127
88.1770068027211	88.24666666666667	70	127
88.24666666666667	88.31632653061224	69	127
88.31632653061224	88.38598639455782	67	127
88.38598639455782	88.44403628117914	65	127
88.44403628117914	88.59496598639456	64	127
88.44403628117914	88.59496598639456	58	127
88.44403628117914	88.59496598639456	48	127
88.44403628117914	88.59496598639456	43	127
88.65301587301587	88.87360544217687	64	127
88.65301587301587	88.87360544217687	58	127
88.65301587301587	88.87360544217687	48	127
88.65301587301587	88.87360544217687	43	127
89.0825850340136	89.23351473922902	58	127
89.0825850340136	89.23351473922902	67	127
89.0825850340136	89.23351473922902	48	127
89.0825850340136	89.23351473922902	40	127
89.62825396825397	89.69791383219955	79	127
89.69791383219955	89.76757369614512	78	127
89.76757369614512	89.82562358276644	79	127
89.82562358276644	89.88367346938776	81	127
89.88367346938776	89.9417006802721	79	127
89.9417006802721	90.01138321995465	77	127
90.01138321995465	90.069410430839	76	127
90.069410430839	90.13909297052155	74	127
90.13909297052155	90.20875283446712	72	127
90.20875283446712	90.2784126984127	70	127
90.2784126984127	90.33646258503401	69	127
90.33646258503401	90.40612244897959	67	127
90.40612244897959	90.55702947845805	65	127
90.40612244897959	90.55702947845805	60	127
90.40612244897959	90.55702947845805	48	127
90.40612244897959	90.55702947845805	45	127
90.60349206349207	90.83566893424036	65	127
90.60349206349207	90.83566893424036	60	127
90.60349206349207	90.83566893424036	48	127
90.60349206349207	90.83566893424036	45	127
90.92857142857143	91.11433106575964	69	127
90.92857142857143	91.11433106575964	57	127
90.92857142857143	91.11433106575964	48	127
90.92857142857143	91.11433106575964	41	127
91.50907029478458	91.5787074829932	72	127
91.5787074829932	91.64839002267574	71	127
91.64839002267574	91.71804988662132	72	127
91.71804988662132	91.79931972789116	74	127
91.71804988662132	91.93863945578231	67	127
91.71804988662132	91.93863945578231	52	127
91.71804988662132	92.25210884353741	60	127
91.79931972789116	91.85736961451248	72	127
91.85736961451248	91.93863945578231	70	127
91.93863945578231	92.20566893424036	53	127
91.93863945578231	92.25210884353741	60	127
91.93863945578231	92.25210884353741	69	127
92.25210884353741	92.35659863945578	77	127
92.25210884353741	92.44947845804988	41	127
92.25210884353741	92.5075283446712	69	127
92.25210884353741	92.5075283446712	60	127
92.5075283446712	92.57718820861678	72	127
92.57718820861678	92.64684807256236	71	127
92.64684807256236	92.72809523809524	72	127
92.72809523809524	92.9487074829932	67	127
92.72809523809524	92.9487074829932	52	127
92.72809523809524	93.28539682539683	60	127
92.72809523809524	92.78616780045351	74	127
92.78616780045351	92.86743764172336	72	127
92.86743764172336	92.9487074829932	70	127
92.9487074829932	93.23893424036281	53	127
92.9487074829932	93.28539682539683	60	127
92.9487074829932	93.28539682539683	69	127
93.28539682539683	93.4827664399093	41	127
93.28539682539683	93.42471655328798	77	127
93.28539682539683	93.52920634920635	69	127
93.28539682539683	93.52920634920635	60	127
93.52920634920635	93.59884353741496	72	127
93.59884353741496	93.66852607709751	71	127
93.66852607709751	93.73818594104308	72	127
93.73818594104308	93.95877551020408	67	127
93.73818594104308	93.7962358276644	74	127
93.73818594104308	93.95877551020408	52	127
93.73818594104308	94.22580498866213	60	127
93.7962358276644	93.90072562358277	72	127
93.90072562358277	93.97038548752835	70	127
93.97038548752835	94.22580498866213	60	127
93.97038548752835	94.22580498866213	69	127
93.97038548752835	94.16775510204081	53	127
94.22580498866213	94.31868480725623	84	127
94.22580498866213	94.4580045351474	54	127
94.22580498866213	94.51603174603174	69	127
94.22580498866213	94.51603174603174	62	127
94.51603174603174	94.66698412698413	55	127
94.51603174603174	94.7714739229025	72	127
94.51603174603174	94.7714739229025	67	127
94.51603174603174	94.7714739229025	64	127
94.7714739229025	94.92240362811792	76	127
94.7714739229025	94.96884353741497	43	127
94.7714739229025	95.02689342403629	65	127
94.7714739229025	95.02689342403629	71	127
94.92240362811792	95.02689342403629	74	127
95.02689342403629	95.24748299319728	64	127
95.02689342403629	95.18943310657596	48	127
95.02689342403629	95.24748299319728	72	127
95.02689342403629	95.24748299319728	67	127
95.45646258503402	95.53773242630386	65	127
95.53773242630386	95.59578231292517	64	127
95.59578231292517	95.67705215419501	65	127
95.67705215419501	95.74671201814058	67	127
95.74671201814058	95.81637188208617	65	127
95.81637188208617	95.88603174603175	64	127
95.88603174603175	95.99052154195012	62	127
95.99052154195012	96.06018140589569	60	127
96.06018140589569	96.14145124716553	58	127
96.14145124716553	96.23433106575963	57	127
96.23433106575963	96.30399092970522	55	127
96.30399092970522	96.44331065759637	53	127
96.44331065759637	96.59424036281179	60	127
96.44331065759637	96.59424036281179	52	127
96.65229024943311	96.80321995464853	60	127
96.65229024943311	96.80321995464853	52	127
96.8728798185941	97.05863945578231	82	127
96.8728798185941	97.05863945578231	70	127
96.8728798185941	97.05863945578231	55	127
96.8728798185941	97.05863945578231	48	127
97.11668934240363	97.29083900226757	82	127
97.11668934240363	97.29083900226757	70	127
97.11668934240363	97.29083900226757	48	127
97.37210884353742	97.45337868480726	58	127
97.37210884353742	97.61591836734694	76	127
97.37210884353742	97.61591836734694	64	127
97.45337868480726	97.52303854875284	57	127
97.52303854875284	97.61591836734694	58	127
97.61591836734694	97.68557823129251	60	127
97.68557823129251	97.76684807256235	58	127
97.76684807256235	97.82489795918367	57	127
97.82489795918367	97.90616780045352	55	127
97.90616780045352	97.99904761904762	53	127
97.99904761904762	98.08031746031746	52	127
98.08031746031746	98.1615873015873	50	127
98.1615873015873	98.23124716553288	48	127
98.23124716553288	98.2892970521542	46	127
98.30090702947845	98.44022675736962	57	127
98.30090702947845	98.44022675736962	45	127
98.53310657596371	98.71886621315193	57	127
98.53310657596371	98.71886621315193	45	127
98.77691609977325	98.99750566893424	87	127
98.77691609977325	98.99750566893424	75	127
98.77691609977325	98.99750566893424	60	127
98.77691609977325	98.99750566893424	48	127
99.06716553287981	99.25292517006802	87	127
99.06716553287981	99.25292517006802	75	127
99.31097505668934	99.48512471655329	57	127
99.31097505668934	99.48512471655329	45	127
99.31097505668934	99.53156462585034	78	127
99.31097505668934	99.53156462585034	66	127
99.5431746031746	99.70571428571428	57	127
99.5431746031746	99.70571428571428	45	127
99.82181405895692	99.97274376417234	87	127
99.82181405895692	99.97274376417234	75	127
99.82181405895692	99.97274376417234	60	127
99.82181405895692	99.97274376417234	48	127
100.01918367346939	100.23977324263039	87	127
100.01918367346939	100.23977324263039	75	127
100.30943310657597	100.48358276643991	54	127
100.30943310657597	100.48358276643991	42	127
100.30943310657597	100.53002267573696	86	127
100.30943310657597	100.53002267573696	74	127
100.54163265306123	100.68095238095238	54	127
100.54163265306123	100.68095238095238	42	127
100.75061224489797	100.98281179138321	84	127
100.75061224489797	100.98281179138321	72	127
100.75061224489797	100.98281179138321	62	127
100.75061224489797	100.98281179138321	50	127
101.02925170068028	101.21501133786848	84	127
101.02925170068028	101.21501133786848	72	127
101.26145124716554	101.44721088435374	55	127
101.26145124716554	101.44721088435374	43	127
101.26145124716554	101.49365079365079	82	127
101.26145124716554	101.49365079365079	70	127
101.50526077097506	101.66780045351474	55	127
101.50526077097506	101.66780045351474	43	127
101.72585034013605	101.91160997732426	82	127
101.72585034013605	101.91160997732426	70	127
101.72585034013605	101.91160997732426	67	127
101.72585034013605	101.91160997732426	55	127
101.96965986394558	102.120589569161	82	127
101.96965986394558	102.120589569161	70	127
102.17863945578232	102.42244897959183	69	127
102.17863945578232	102.34117913832199	61	127
102.17863945578232	102.34117913832199	49	127
102.17863945578232	102.42244897959183	81	127
102.45727891156463	102.59659863945578	61	127
102.45727891156463	102.59659863945578	49	127
102.66625850340137	102.80557823129251	79	127
102.66625850340137	102.80557823129251	67	127
102.66625850340137	102.80557823129251	64	127
102.66625850340137	102.80557823129251	52	127
102.86362811791383	103.0609977324263	79	127
102.86362811791383	103.0609977324263	67	127
103.10743764172335	103.25836734693877	62	127
103.10743764172335	103.25836734693877	50	127
103.10743764172335	103.32802721088436	77	127
103.10743764172335	103.32802721088436	65	127
103.32802721088436	103.51378684807256	62	127
103.32802721088436	103.51378684807256	50	127
103.5950566893424	103.78081632653061	74	127
103.5950566893424	103.78081632653061	62	127
103.5950566893424	103.78081632653061	65	127
103.5950566893424	103.78081632653061	53	127
103.83886621315193	103.97818594104308	74	127
103.83886621315193	103.97818594104308	62	127
104.0362358276644	104.18716553287982	46	127
104.0362358276644	104.18716553287982	58	127
104.0362358276644	104.23360544217687	77	127
104.0362358276644	104.23360544217687	65	127
104.23360544217687	104.46580498866213	46	127
104.23360544217687	104.46580498866213	58	127
104.54707482993197	104.73283446712018	68	127
104.54707482993197	104.73283446712018	56	127
104.54707482993197	104.73283446712018	62	127
104.54707482993197	104.73283446712018	50	127
104.77927437641723	104.96503401360545	68	127
104.77927437641723	104.96503401360545	56	127
105.06952380952382	105.35977324263038	57	127
105.06952380952382	105.35977324263038	69	127
105.06952380952382	105.35977324263038	61	127
105.06952380952382	105.35977324263038	45	127
105.35977324263038	106.21891156462586	57	127
105.58036281179139	105.6384126984127	82	127
105.65002267573696	105.71968253968254	81	127
105.7312925170068	105.78934240362811	82	127
105.80095238095238	105.8590022675737	84	127
105.87061224489796	105.92866213151927	82	127
105.92866213151927	105.99832199546485	81	127
105.99832199546485	106.06798185941044	79	127
105.99832199546485	106.06798185941044	70	127
106.06798185941044	106.13764172335601	69	127
106.06798185941044	106.13764172335601	78	127
106.13764172335601	106.21891156462586	79	127
106.13764172335601	106.21891156462586	70	127
106.21891156462586	106.40467120181405	57	127
106.21891156462586	106.28857142857143	81	127
106.21891156462586	106.28857142857143	72	127
106.28857142857143	106.38145124716553	70	127
106.28857142857143	106.36984126984127	79	127
106.38145124716553	106.45111111111112	77	127
106.38145124716553	106.46272108843537	69	127
106.46272108843537	106.53238095238095	67	127
106.46272108843537	106.53238095238095	70	127
106.46272108843537	106.63687074829932	76	127
106.46272108843537	106.63687074829932	57	127
106.53238095238095	106.62526077097506	66	127
106.53238095238095	106.62526077097506	69	127
106.62526077097506	106.68331065759637	67	127
106.62526077097506	106.68331065759637	70	127
106.68331065759637	106.76458049886621	72	127
106.68331065759637	106.76458049886621	69	127
106.68331065759637	106.90390022675737	74	127
106.68331065759637	106.90390022675737	57	127
106.76458049886621	106.84585034013605	70	127
106.76458049886621	106.84585034013605	67	127
106.84585034013605	106.97356009070295	65	127
106.84585034013605	106.97356009070295	69	127
106.97356009070295	107.12448979591836	64	127
106.97356009070295	107.12448979591836	67	127
106.97356009070295	107.17092970521541	73	127
107.20575963718821	107.43795918367347	65	127
107.20575963718821	107.43795918367347	62	127
107.5540589569161	107.61210884353741	82	127
107.5540589569161	107.69337868480726	61	127
107.5540589569161	107.69337868480726	64	127
107.61210884353741	107.68176870748299	81	127
107.68176870748299	107.75142857142858	82	127
107.75142857142858	107.82108843537415	84	127
107.82108843537415	107.89074829931972	82	127
107.89074829931972	107.9604081632653	81	127
107.9604081632653	108.01845804988662	79	127
107.9604081632653	108.03006802721089	70	127
108.03006802721089	108.09972789115646	69	127
108.03006802721089	108.08811791383219	78	127
108.09972789115646	108.15777777777778	79	127
108.09972789115646	108.16938775510204	70	127
108.16938775510204	108.22743764172336	72	127
108.16938775510204	108.22743764172336	81	127
108.16938775510204	108.32031746031745	57	127
108.22743764172336	108.29709750566893	70	127
108.22743764172336	108.29709750566893	79	127
108.29709750566893	108.36675736961452	69	127
108.29709750566893	108.36675736961452	77	127
108.36675736961452	108.43641723356009	67	127
108.36675736961452	108.43641723356009	70	127
108.36675736961452	108.51768707482994	76	127
108.36675736961452	108.51768707482994	57	127
108.43641723356009	108.50607709750567	66	127
108.43641723356009	108.50607709750567	69	127
108.50607709750567	108.58734693877551	67	127
108.50607709750567	108.58734693877551	70	127
108.58734693877551	108.66861678004535	69	127
108.58734693877551	108.77310657596372	57	127
108.58734693877551	108.77310657596372	74	127
108.58734693877551	108.66861678004535	72	127
108.66861678004535	108.76149659863945	67	127
108.66861678004535	108.76149659863945	70	127
108.76149659863945	108.81954648526077	69	127
108.76149659863945	108.81954648526077	65	127
108.83115646258503	109.00530612244899	64	127
108.83115646258503	109.00530612244899	67	127
108.83115646258503	109.08657596371881	73	127
108.83115646258503	109.08657596371881	45	127
109.08657596371881	111.32730158730159	57	127
109.08657596371881	109.2491156462585	62	127
109.08657596371881	109.2491156462585	65	127
109.31877551020408	109.40004535147392	82	127
109.31877551020408	109.48131519274376	61	127
109.31877551020408	109.48131519274376	64	127
109.40004535147392	109.4697052154195	81	127
109.4697052154195	109.52775510204081	82	127
109.53936507936508	109.59741496598639	84	127
109.60902494331066	109.67868480725623	82	127
109.6902947845805	109.74834467120182	81	127
109.74834467120182	109.8180045351474	70	127
109.74834467120182	109.8180045351474	79	127
109.8180045351474	109.88766439909297	69	127
109.8180045351474	109.88766439909297	78	127
109.88766439909297	109.95732426303854	70	127
109.88766439909297	109.95732426303854	79	127
109.95732426303854	110.02698412698413	72	127
109.95732426303854	110.02698412698413	81	127
110.02698412698413	110.10825396825396	70	127
110.02698412698413	110.10825396825396	79	127
110.10825396825396	110.16630385487528	69	127
110.10825396825396	110.16630385487528	77	127
110.16630385487528	110.24757369614512	67	127
110.16630385487528	110.24757369614512	70	127
110.16630385487528	110.24757369614512	76	127
110.24757369614512	110.3172335600907	66	127
110.24757369614512	110.3172335600907	69	127
110.24757369614512	110.3172335600907	75	127
110.3172335600907	110.38689342403629	67	127
110.3172335600907	110.38689342403629	70	127
110.3172335600907	110.38689342403629	76	127
110.38689342403629	110.44494331065759	69	127
110.38689342403629	110.44494331065759	72	127
110.38689342403629	110.44494331065759	77	127
110.44494331065759	110.56104308390023	67	127
110.44494331065759	110.56104308390023	70	127
110.44494331065759	110.56104308390023	76	127
110.56104308390023	110.6307029478458	65	127
110.56104308390023	110.6307029478458	69	127
110.56104308390023	110.6307029478458	74	127
110.6307029478458	110.70036281179138	64	127
110.6307029478458	110.70036281179138	67	127
110.6307029478458	110.70036281179138	73	127
110.70036281179138	110.78163265306122	63	127
110.70036281179138	110.78163265306122	66	127
110.70036281179138	110.78163265306122	72	127
110.78163265306122	110.8512925170068	64	127
110.78163265306122	110.8512925170068	67	127
110.78163265306122	110.8512925170068	73	127
110.8512925170068	110.92095238095239	74	127
110.8512925170068	110.92095238095239	65	127
110.8512925170068	110.92095238095239	69	127
110.92095238095239	111.00222222222222	67	127
110.92095238095239	111.00222222222222	73	127
110.92095238095239	111.00222222222222	64	127
111.00222222222222	111.10671201814058	65	127
111.00222222222222	111.10671201814058	62	127
111.00222222222222	111.10671201814058	71	127
111.11832199546485	111.26925170068027	69	127
111.11832199546485	111.26925170068027	61	127
111.11832199546485	111.26925170068027	64	127
111.32730158730159	111.53628117913833	46	127
111.32730158730159	111.53628117913833	69	127
111.32730158730159	111.53628117913833	62	127
111.32730158730159	111.53628117913833	50	127
111.6059410430839	111.8265306122449	69	127
111.6059410430839	111.8265306122449	61	127
111.6059410430839	111.8265306122449	52	127
111.6059410430839	111.8265306122449	45	127
111.89619047619047	112.08195011337868	69	127
111.89619047619047	112.08195011337868	61	127
111.89619047619047	112.08195011337868	64	127
111.89619047619047	112.08195011337868	43	127
112.12839002267573	112.32575963718821	41	127
112.12839002267573	112.32575963718821	69	127
112.12839002267573	112.32575963718821	62	127
112.12839002267573	112.32575963718821	65	127
112.38380952380952	112.5463492063492	64	127
112.38380952380952	112.49990929705216	71	127
112.38380952380952	112.5463492063492	67	127
112.38380952380952	112.5463492063492	40	127
112.49990929705216	112.60439909297052	73	127
112.60439909297052	113.67251700680272	74	127
112.60439909297052	112.7088888888889	69	127
112.60439909297052	112.83659863945579	65	127
112.60439909297052	112.83659863945579	38	127
112.7088888888889	112.77854875283447	68	127
112.77854875283447	112.84820861678004	69	127
112.84820861678004	112.90625850340136	70	127
112.90625850340136	112.97591836734694	69	127
112.97591836734694	113.05718820861678	67	127
113.05718820861678	113.12684807256235	65	127
113.12684807256235	113.19650793650794	64	127
113.19650793650794	113.26616780045352	65	127
113.26616780045352	113.33582766439909	67	127
113.33582766439909	113.40548752834466	65	127
113.40548752834466	113.46353741496598	64	127
113.47514739229025	113.62607709750567	62	127
113.67251700680272	113.73056689342404	76	127
113.67251700680272	113.82344671201814	62	127
113.73056689342404	113.77700680272109	77	127
113.77700680272109	113.83505668934241	79	127
113.83505668934241	113.88149659863946	81	127
113.88149659863946	114.0556462585034	82	127
113.88149659863946	114.0556462585034	62	127
114.11369614512472	114.26462585034014	82	127
114.11369614512472	114.26462585034014	62	127
114.33428571428571	114.4968253968254	61	127
114.33428571428571	114.76385487528344	82	127
114.5548752834467	114.71741496598639	57	127
114.77546485260771	114.96122448979592	81	127
114.77546485260771	114.96122448979592	59	127
115.01927437641723	115.18181405895692	79	127
115.01927437641723	115.18181405895692	61	127
115.23986394557824	115.44884353741497	77	127
115.23986394557824	115.44884353741497	62	127
115.51850340136055	115.69265306122449	76	127
115.51850340136055	115.69265306122449	64	127
115.75070294784581	115.90163265306123	74	127
115.75070294784581	115.90163265306123	65	127
115.94807256235828	116.0990022675737	72	127
115.94807256235828	116.0990022675737	66	127
116.15705215419501	116.47052154195012	70	127
116.15705215419501	117.36448979591837	55	127
116.15705215419501	116.33120181405896	74	127
116.15705215419501	116.47052154195012	67	127
116.33120181405896	116.38925170068028	73	127
116.40086167800453	116.47052154195012	74	127
116.48213151927438	116.52857142857142	75	127
116.5401814058957	116.59823129251701	74	127
116.60984126984127	116.66789115646259	72	127
116.66789115646259	116.73755102040816	70	127
116.73755102040816	116.80721088435374	69	127
116.80721088435374	116.88848072562358	70	127
116.88848072562358	116.96975056689342	72	127
116.96975056689342	117.07424036281179	70	127
117.07424036281179	117.15551020408164	69	127
117.16712018140589	117.31804988662131	67	127
117.37609977324263	117.51541950113379	67	127
117.37609977324263	117.42253968253968	57	127
117.42253968253968	117.46897959183673	58	127
117.46897959183673	117.52702947845805	60	127
117.52702947845805	117.58507936507937	62	127
117.58507936507937	117.77083900226758	67	127
117.58507936507937	117.77083900226758	63	127
117.82888888888888	117.9798185941043	67	127
117.82888888888888	117.9798185941043	63	127
118.09591836734694	118.60675736961451	63	127
118.09591836734694	118.25845804988663	66	127
118.30489795918368	118.46743764172335	62	127
118.60675736961451	118.75768707482993	64	127
118.60675736961451	118.75768707482993	62	127
118.81573696145125	119.00149659863946	66	127
118.81573696145125	119.00149659863946	60	127
119.04793650793651	119.19886621315193	67	127
119.04793650793651	119.19886621315193	58	127
119.04793650793651	120.05800453514739	79	127
119.25691609977325	119.41945578231292	57	127
119.25691609977325	119.41945578231292	69	127
119.50072562358277	119.69809523809523	55	127
119.50072562358277	119.69809523809523	70	127
119.76775510204082	119.91868480725624	71	127
119.76775510204082	119.91868480725624	53	127
119.97673469387755	121.03324263038549	60	127
119.97673469387755	120.13927437641723	51	127
119.97673469387755	120.19732426303855	72	127
120.05800453514739	120.12766439909296	78	127
120.12766439909296	120.19732426303855	79	127
120.19732426303855	120.25537414965986	80	127
120.19732426303855	120.3714739229025	50	127
120.26698412698413	120.32503401360545	79	127
120.35986394557823	120.41791383219955	77	127
120.42952380952381	120.48757369614512	75	127
120.42952380952381	120.59206349206349	48	127
120.49918367346939	120.56884353741496	74	127
120.56884353741496	120.63850340136054	75	127
120.63850340136054	120.78943310657597	46	127
120.63850340136054	120.70816326530613	77	127
120.70816326530613	120.7778231292517	75	127
120.7778231292517	120.84748299319727	74	127
120.84748299319727	121.03324263038549	44	127
120.84748299319727	120.9984126984127	72	127
121.04485260770976	121.0912925170068	62	127
121.04485260770976	121.24222222222222	43	127
121.04485260770976	121.19578231292518	72	127
121.0912925170068	121.14934240362811	63	127
121.14934240362811	121.19578231292518	65	127
121.19578231292518	121.24222222222222	67	127
121.24222222222222	121.39315192743764	68	127
121.24222222222222	121.45120181405896	41	127
121.24222222222222	121.39315192743764	72	127
121.45120181405896	121.63696145124716	72	127
121.45120181405896	121.63696145124716	68	127
121.45120181405896	121.68340136054422	53	127
121.69501133786848	122.12458049886621	68	127
121.69501133786848	121.85755102040817	71	127
121.69501133786848	121.90399092970522	43	127
121.91560090702947	122.0665306122449	67	127
121.91560090702947	122.12458049886621	55	127
122.12458049886621	122.32195011337869	69	127
122.12458049886621	122.32195011337869	67	127
122.38	122.62380952380953	65	127
122.38	122.62380952380953	71	127
122.38	122.67024943310658	55	127
122.68185941043085	122.85600907029479	63	127
122.68185941043085	122.85600907029479	72	127
122.68185941043085	122.90244897959184	48	127
122.90244897959184	123.08820861678005	74	127
122.90244897959184	123.08820861678005	62	127
122.90244897959184	123.14625850340136	60	127
123.14625850340136	123.36684807256236	60	127
123.14625850340136	123.36684807256236	75	127
123.42489795918367	123.61065759637188	58	127
123.42489795918367	123.61065759637188	76	127
123.42489795918367	123.65709750566893	48	127
123.65709750566893	124.69038548752835	77	127
123.65709750566893	123.72675736961452	48	127
123.65709750566893	123.86607709750567	56	127
123.72675736961452	123.79641723356009	47	127
123.79641723356009	123.86607709750567	48	127
123.86607709750567	123.93573696145124	49	127
123.93573696145124	124.00539682539683	48	127
124.00539682539683	124.06344671201813	46	127
124.0750566893424	124.13310657596372	60	127
124.0750566893424	124.13310657596372	44	127
124.0750566893424	125.09673469387755	65	127
124.14471655328798	124.2027664399093	43	127
124.14471655328798	124.2027664399093	59	127
124.21437641723357	124.27242630385487	44	127
124.21437641723357	124.27242630385487	60	127
124.27242630385487	124.34208616780046	46	127
124.27242630385487	124.34208616780046	61	127
124.34208616780046	124.41174603174603	60	127
124.34208616780046	124.41174603174603	44	127
124.41174603174603	124.48140589569161	58	127
124.41174603174603	124.48140589569161	43	127
124.48140589569161	124.69038548752835	41	127
124.48140589569161	125.31732426303854	56	127
124.69038548752835	124.88775510204081	41	127
124.69038548752835	124.7368253968254	79	127
124.7368253968254	124.79487528344671	80	127
124.79487528344671	124.84131519274376	82	127
124.84131519274376	124.89936507936508	84	127
124.89936507936508	125.03868480725623	85	127
124.89936507936508	125.09673469387755	41	127
125.09673469387755	125.31732426303854	41	127
125.09673469387755	125.13156462585034	68	127
125.09673469387755	125.25927437641724	85	127
125.13156462585034	125.1780045351474	70	127
125.1780045351474	125.21283446712017	72	127
125.21283446712017	125.24766439909297	73	127
125.24766439909297	125.28249433106576	75	127
125.28249433106576	125.31732426303854	77	127
125.31732426303854	125.74689342403629	85	127
125.31732426303854	125.4914739229025	56	127
125.31732426303854	125.4914739229025	39	127
125.31732426303854	126.09519274376417	78	127
125.5495238095238	126.09519274376417	56	127
125.5495238095238	126.09519274376417	51	127
125.74689342403629	126.03714285714285	84	127
126.09519274376417	126.31578231292517	56	127
126.09519274376417	126.31578231292517	85	127
126.09519274376417	126.31578231292517	77	127
126.09519274376417	126.31578231292517	49	127
126.37383219954648	126.5247619047619	56	127
126.37383219954648	126.5247619047619	87	127
126.37383219954648	126.5247619047619	75	127
126.37383219954648	126.5247619047619	48	127
126.58281179138322	126.74535147392291	89	127
126.58281179138322	126.74535147392291	73	127
126.58281179138322	126.74535147392291	56	127
126.58281179138322	126.74535147392291	46	127
126.80340136054421	126.9659410430839	44	127
126.80340136054421	126.9659410430839	90	127
126.80340136054421	126.9659410430839	72	127
126.80340136054421	126.9659410430839	56	127
127.04721088435375	127.23297052154194	56	127
127.04721088435375	127.23297052154194	87	127
127.04721088435375	127.23297052154194	72	127
127.04721088435375	127.23297052154194	42	127
127.31424036281179	127.56965986394557	92	127
127.31424036281179	127.51160997732427	73	127
127.31424036281179	127.51160997732427	56	127
127.31424036281179	127.56965986394557	41	127
127.58126984126984	127.73219954648526	65	127
127.58126984126984	127.73219954648526	68	127
127.58126984126984	127.73219954648526	61	127
127.79024943310658	127.95278911564625	61	127
127.79024943310658	127.95278911564625	68	127
127.79024943310658	127.95278911564625	65	127
127.9992290249433	128.161768707483	68	127
127.9992290249433	128.161768707483	65	127
127.9992290249433	128.161768707483	61	127
128.2198185941043	128.48684807256237	61	127
128.2198185941043	128.48684807256237	68	127
128.2198185941043	128.48684807256237	65	127
128.5448979591837	128.75385487528345	65	127
128.5448979591837	128.75385487528345	68	127
128.5448979591837	128.75385487528345	61	127
128.8119274376417	128.9628344671202	65	127
128.8119274376417	128.9628344671202	68	127
128.8119274376417	128.9628344671202	61	127
129.00927437641724	129.17183673469387	65	127
129.00927437641724	129.17183673469387	68	127
129.00927437641724	129.17183673469387	61	127
129.2298866213152	129.39242630385488	65	127
129.2298866213152	129.39242630385488	68	127
129.2298866213152	129.39242630385488	61	127
129.4504761904762	129.6014058956916	68	127
129.4504761904762	129.6014058956916	61	127
129.4504761904762	129.6014058956916	65	127
129.65945578231293	129.86843537414967	65	127
129.65945578231293	129.86843537414967	68	127
129.65945578231293	129.86843537414967	61	127
129.91487528344672	130.06580498866214	68	127
129.91487528344672	130.06580498866214	65	127
129.91487528344672	130.06580498866214	61	127
130.12385487528346	130.4837641723356	61	127
130.12385487528346	130.4837641723356	68	127
130.12385487528346	130.4837641723356	65	127
130.54179138321996	130.69274376417235	65	127
130.54179138321996	130.69274376417235	68	127
130.54179138321996	130.69274376417235	61	127
130.80884353741496	130.94816326530614	65	127
130.80884353741496	130.94816326530614	68	127
130.80884353741496	130.94816326530614	61	127
131.00619047619048	131.1687528344671	61	127
131.00619047619048	131.1687528344671	68	127
131.00619047619048	131.1687528344671	65	127
131.00619047619048	131.21519274376416	77	127
131.21519274376416	131.81891156462586	63	127
131.21519274376416	131.4125396825397	68	127
131.21519274376416	131.4125396825397	60	127
131.21519274376416	131.81891156462586	78	127
131.4241723356009	131.60993197278913	67	127
131.62151927437642	132.34136054421768	68	127
131.81891156462586	132.01628117913833	75	127
131.81891156462586	132.01628117913833	60	127
132.01628117913833	132.74770975056688	72	127
132.01628117913833	132.74770975056688	56	127
132.34136054421768	132.5387074829932	67	127
132.55034013605442	133.22371882086168	68	127
132.74770975056688	132.9450566893424	75	127
132.74770975056688	132.9450566893424	66	127
132.9450566893424	133.64167800453515	73	127
132.9450566893424	133.64167800453515	65	127
133.22371882086168	133.42108843537414	67	127
133.43269841269841	134.1873469387755	68	127
133.65328798185942	133.89709750566894	77	127
133.65328798185942	133.89709750566894	68	127
133.89709750566894	134.60530612244898	80	127
133.89709750566894	134.60530612244898	65	127
134.1873469387755	134.39632653061224	67	127
134.4079365079365	135.01165532879818	68	127
134.61691609977325	134.81428571428572	77	127
134.61691609977325	134.81428571428572	61	127
134.81428571428572	135.5108843537415	78	127
134.81428571428572	135.5108843537415	63	127
135.01165532879818	135.2902947845805	67	127
135.2902947845805	135.9636507936508	68	127
135.52249433106576	135.71986394557823	75	127
135.52249433106576	135.71986394557823	60	127
135.71986394557823	136.38163265306122	72	127
135.71986394557823	136.38163265306122	56	127
135.9636507936508	136.17265306122448	67	127
136.17265306122448	136.9505215419501	68	127
136.3932426303855	136.57897959183674	75	127
136.3932426303855	136.57897959183674	66	127
136.59061224489795	136.9505215419501	73	127
136.59061224489795	136.9505215419501	65	127
136.9505215419501	137.3452380952381	56	127
136.9505215419501	137.3452380952381	73	127
136.9505215419501	137.3452380952381	65	127
136.9505215419501	137.3452380952381	49	127
137.3452380952381	137.54263038548754	73	127
137.3452380952381	137.54263038548754	65	127
137.3452380952381	137.54263038548754	56	127
137.3452380952381	137.54263038548754	49	127
137.54263038548754	137.80965986394557	73	127
137.54263038548754	137.80965986394557	65	127
137.54263038548754	137.80965986394557	56	127
137.54263038548754	137.80965986394557	49	127
137.82126984126984	138.03024943310658	73	127
137.82126984126984	138.03024943310658	65	127
137.82126984126984	138.03024943310658	56	127
137.82126984126984	138.03024943310658	49	127
138.03024943310658	138.2392290249433	73	127
138.03024943310658	138.2392290249433	65	127
138.03024943310658	138.2392290249433	58	127
138.03024943310658	138.2392290249433	46	127
138.2392290249433	138.44820861678005	73	127
138.2392290249433	138.44820861678005	65	127
138.2392290249433	138.44820861678005	58	127
138.2392290249433	138.44820861678005	46	127
138.44820861678005	138.78489795918367	73	127
138.44820861678005	138.78489795918367	65	127
138.44820861678005	138.78489795918367	58	127
138.44820861678005	138.78489795918367	46	127
138.79650793650794	139.02868480725624	73	127
138.79650793650794	139.02868480725624	65	127
138.79650793650794	139.02868480725624	58	127
138.79650793650794	139.02868480725624	46	127
139.05192743764172	139.2492970521542	58	127
139.05192743764172	139.2492970521542	66	127
139.05192743764172	139.2492970521542	73	127
139.05192743764172	139.2492970521542	54	127
139.2492970521542	139.5395238095238	73	127
139.2492970521542	139.5395238095238	66	127
139.2492970521542	139.5395238095238	58	127
139.2492970521542	139.5395238095238	54	127
139.5395238095238	139.74850340136055	73	127
139.5395238095238	139.74850340136055	66	127
139.5395238095238	139.74850340136055	58	127
139.5395238095238	139.74850340136055	54	127
139.74850340136055	139.95750566893423	73	127
139.74850340136055	139.95750566893423	66	127
139.74850340136055	139.95750566893423	58	127
139.74850340136055	139.95750566893423	54	127
139.9691156462585	140.16648526077097	75	127
139.9691156462585	140.16648526077097	66	127
139.9691156462585	140.16648526077097	58	127
139.9691156462585	140.16648526077097	51	127
140.16648526077097	140.3754648526077	75	127
140.16648526077097	140.3754648526077	66	127
140.16648526077097	140.3754648526077	58	127
140.16648526077097	140.3754648526077	51	127
140.3754648526077	140.60766439909298	75	127
140.3754648526077	140.60766439909298	66	127
140.3754648526077	140.60766439909298	58	127
140.3754648526077	140.60766439909298	51	127
140.60766439909298	140.82825396825396	75	127
140.60766439909298	140.82825396825396	66	127
140.60766439909298	140.82825396825396	58	127
140.60766439909298	140.82825396825396	51	127
140.83986394557823	141.02560090702949	75	127
140.83986394557823	141.02560090702949	66	127
140.83986394557823	141.02560090702949	59	127
141.0372335600907	141.23460317460317	75	127
141.0372335600907	141.23460317460317	66	127
141.0372335600907	141.23460317460317	59	127
141.23460317460317	141.4319501133787	75	127
141.23460317460317	141.4319501133787	66	127
141.23460317460317	141.4319501133787	59	127
141.4319501133787	141.64095238095237	75	127
141.4319501133787	141.64095238095237	66	127
141.4319501133787	141.64095238095237	59	127
141.65256235827664	141.8499319727891	76	127
141.65256235827664	141.8499319727891	67	127
141.65256235827664	141.8499319727891	59	127
141.86154195011338	142.07052154195011	76	127
141.86154195011338	142.07052154195011	67	127
141.86154195011338	142.07052154195011	59	127
142.07052154195011	142.26789115646258	76	127
142.07052154195011	142.26789115646258	67	127
142.07052154195011	142.26789115646258	59	127
142.27950113378685	142.47687074829932	76	127
142.27950113378685	142.47687074829932	67	127
142.27950113378685	142.47687074829932	59	127
142.47687074829932	142.72068027210884	77	127
142.47687074829932	142.72068027210884	67	127
142.47687074829932	142.72068027210884	59	127
142.47687074829932	142.72068027210884	62	127
142.47687074829932	142.72068027210884	43	127
142.7322902494331	142.94126984126984	77	127
142.7322902494331	142.94126984126984	67	127
142.7322902494331	142.94126984126984	59	127
142.7322902494331	142.94126984126984	62	127
142.7322902494331	142.94126984126984	43	127
142.9528798185941	143.18507936507936	77	127
142.9528798185941	143.18507936507936	67	127
142.9528798185941	143.18507936507936	59	127
142.9528798185941	143.18507936507936	62	127
142.9528798185941	143.18507936507936	43	127
143.19668934240363	143.41727891156464	77	127
143.19668934240363	143.41727891156464	67	127
143.19668934240363	143.41727891156464	59	127
143.19668934240363	143.41727891156464	62	127
143.19668934240363	143.41727891156464	43	127
143.42886621315193	143.64947845804988	55	127
143.64947845804988	143.8700680272109	55	127
143.8700680272109	144.06743764172336	55	127
144.07904761904763	144.2764172335601	55	127
144.2764172335601	144.5550566893424	55	127
144.5550566893424	144.75240362811792	55	127
144.76403628117913	144.98462585034014	55	127
144.98462585034014	145.21680272108844	55	127
145.21680272108844	145.54190476190476	55	127
145.54190476190476	145.7508843537415	55	127
145.76249433106577	145.95986394557823	64	127
145.76249433106577	145.95986394557823	55	127
145.76249433106577	145.95986394557823	48	127
145.76249433106577	145.95986394557823	76	127
145.95986394557823	146.61002267573696	77	127
145.95986394557823	146.16884353741497	55	127
145.95986394557823	146.61002267573696	65	127
145.95986394557823	146.61002267573696	50	127
146.18045351473924	146.3778231292517	54	127
146.3778231292517	147.0628117913832	55	127
146.62163265306123	146.85380952380953	47	127
146.62163265306123	146.85380952380953	74	127
146.62163265306123	146.85380952380953	62	127
146.85380952380953	147.49238095238096	71	127
146.85380952380953	147.49238095238096	59	127
146.85380952380953	147.49238095238096	43	127
147.07442176870748	147.2950113378685	54	127
147.2950113378685	148.0380498866213	55	127
147.49238095238096	147.7709977324263	62	127
147.49238095238096	147.7709977324263	74	127
147.49238095238096	147.7709977324263	53	127
147.7709977324263	148.45600907029478	72	127
147.7709977324263	148.45600907029478	60	127
147.7709977324263	148.45600907029478	52	127
148.0380498866213	148.25863945578232	54	127
148.25863945578232	148.90879818594104	55	127
148.45600907029478	148.6765986394558	64	127
148.45600907029478	148.6765986394558	55	127
148.45600907029478	148.6765986394558	76	127
148.68820861678006	149.52412698412698	67	127
148.68820861678006	149.52412698412698	79	127
148.68820861678006	149.52412698412698	52	127
148.90879818594104	149.21065759637187	54	127
149.22226757369614	149.52412698412698	55	127
149.52412698412698	149.72149659863945	64	127
149.52412698412698	149.72149659863945	48	127
149.52412698412698	149.965306122449	79	127
149.52412698412698	149.965306122449	67	127
149.73310657596372	150.4645351473923	65	127
149.73310657596372	150.4645351473923	50	127
149.965306122449	150.23233560090702	66	127
149.965306122449	150.23233560090702	78	127
150.2439455782313	150.89410430839	79	127
150.2439455782313	150.89410430839	67	127
150.4645351473923	150.68510204081633	62	127
150.4645351473923	150.68510204081633	46	127
150.68510204081633	151.3120634920635	59	127
150.68510204081633	151.3120634920635	43	127
150.89410430839	151.09145124716554	78	127
150.89410430839	151.09145124716554	66	127
151.09145124716554	151.70678004535148	79	127
151.09145124716554	151.8461224489796	67	127
151.33528344671203	151.6022902494331	53	127
151.33528344671203	151.6022902494331	65	127
151.6022902494331	152.658820861678	60	127
151.6022902494331	151.8461224489796	51	127
151.70678004535148	151.78807256235828	78	127
151.78807256235828	151.85773242630387	79	127
151.85773242630387	151.92739229024943	80	127
151.92739229024943	151.98544217687075	79	127
151.98544217687075	152.05510204081634	77	127
152.05510204081634	152.1247619047619	75	127
152.1247619047619	152.19442176870749	74	127
152.19442176870749	152.26408163265307	75	127
152.26408163265307	152.32210884353742	77	127
152.32210884353742	152.39179138321995	75	127
152.39179138321995	152.46145124716554	74	127
152.46145124716554	152.61238095238096	72	127
152.67043083900228	152.71687074829933	62	127
152.67043083900228	152.8213605442177	72	127
152.71687074829933	152.77492063492065	63	127
152.77492063492065	152.832947845805	65	127
152.832947845805	152.90263038548753	67	127
152.90263038548753	153.11160997732426	72	127
152.90263038548753	153.11160997732426	68	127
153.16965986394558	153.30897959183673	72	127
153.16965986394558	153.30897959183673	68	127
153.36702947845805	153.51795918367347	71	127
153.36702947845805	153.761768707483	68	127
153.55278911564625	153.70369614512472	67	127
153.761768707483	154.00555555555556	67	127
153.761768707483	154.00555555555556	69	127
154.08684807256236	154.26097505668935	65	127
154.08684807256236	154.26097505668935	71	127
154.3190476190476	154.46995464852608	63	127
154.3190476190476	154.46995464852608	72	127
154.51639455782313	154.67895691609976	74	127
154.51639455782313	154.67895691609976	62	127
154.73700680272108	154.8879365079365	75	127
154.73700680272108	154.8879365079365	60	127
154.94598639455782	155.09691609977324	76	127
154.94598639455782	155.09691609977324	58	127
155.15496598639456	155.3639455782313	77	127
155.15496598639456	155.21301587301588	60	127
155.15496598639456	156.2578911564626	65	127
155.15496598639456	155.3639455782313	56	127
155.21301587301588	155.28267573696147	59	127
155.28267573696147	155.3639455782313	60	127
155.3639455782313	155.43360544217688	61	127
155.43360544217688	155.49163265306123	60	127
155.50326530612244	155.57292517006803	58	127
155.5845351473923	155.64256235827665	56	127
155.64256235827665	155.71224489795918	55	127
155.71224489795918	155.78190476190477	56	127
155.78190476190477	155.87478458049887	58	127
155.88639455782314	155.96766439909297	56	127
155.97927437641724	156.03732426303856	55	127
156.03732426303856	156.19986394557824	53	127
156.2578911564626	156.42045351473922	53	127
156.2578911564626	156.3043537414966	67	127
156.3043537414966	156.36238095238096	69	127
156.36238095238096	156.42045351473922	70	127
156.42045351473922	156.46689342403627	72	127
156.46689342403627	156.62943310657596	73	127
156.46689342403627	156.62943310657596	53	127
156.68748299319728	156.82680272108843	73	127
156.68748299319728	156.82680272108843	53	127
156.87321995464853	157.0590022675737	52	127
156.87321995464853	157.4073015873016	73	127
157.12863945578232	157.36086167800454	48	127
157.4073015873016	157.60467120181406	72	127
157.4073015873016	157.60467120181406	50	127
157.66272108843538	157.8136507936508	70	127
157.66272108843538	157.8136507936508	52	127
157.8717006802721	158.02263038548753	53	127
157.8717006802721	158.02263038548753	68	127
157.8717006802721	158.99786848072563	77	127
158.08068027210885	158.22	55	127
158.08068027210885	158.22	67	127
158.27804988662132	158.48702947845806	56	127
158.27804988662132	158.48702947845806	65	127
158.54507936507937	158.74244897959184	57	127
158.54507936507937	158.74244897959184	63	127
158.80049886621316	158.99786848072563	58	127
158.80049886621316	158.95142857142858	61	127
158.99786848072563	159.16040816326532	73	127
158.99786848072563	159.06750566893425	79	127
159.06750566893425	159.11396825396827	81	127
159.11396825396827	159.1719954648526	82	127
159.1719954648526	159.21845804988664	84	127
159.21845804988664	159.36938775510205	70	127
159.21845804988664	159.36938775510205	85	127
159.4158276643991	159.6015873015873	68	127
159.4158276643991	159.6015873015873	85	127
159.65963718820862	160.06598639455783	85	127
159.65963718820862	159.8221768707483	66	127
159.86861678004536	160.01954648526078	65	127
160.0775963718821	160.21691609977324	84	127
160.0775963718821	160.21691609977324	63	127
160.28657596371883	160.43750566893425	61	127
160.28657596371883	160.43750566893425	85	127
160.49555555555557	160.63487528344672	60	127
160.49555555555557	160.70451247165533	87	127
160.70451247165533	160.85544217687075	75	127
160.70451247165533	160.75097505668936	80	127
160.75097505668936	160.8090022675737	82	127
160.8090022675737	160.85544217687075	84	127
160.85544217687075	160.91351473922902	85	127
160.91351473922902	161.0528344671202	72	127
160.91351473922902	161.0528344671202	87	127
161.12249433106575	161.28503401360544	70	127
161.12249433106575	161.28503401360544	87	127
161.35469387755103	161.76104308390023	87	127
161.35469387755103	161.49401360544218	68	127
161.5520634920635	161.71460317460318	66	127
161.76104308390023	161.91197278911565	85	127
161.76104308390023	161.91197278911565	65	127
161.97002267573697	162.1209523809524	63	127
161.97002267573697	162.1209523809524	87	127
161.97002267573697	162.19061224489795	60	127
161.97002267573697	162.19061224489795	44	127
162.19061224489795	162.34151927437642	49	127
162.19061224489795	162.34151927437642	65	127
162.19061224489795	162.34151927437642	61	127
162.19061224489795	162.38798185941044	89	127
162.3995918367347	162.65501133786847	65	127
162.3995918367347	162.4344217687075	68	127
162.3995918367347	162.65501133786847	61	127
162.4344217687075	162.50408163265305	70	127
162.50408163265305	162.5969387755102	72	127
162.5969387755102	162.65501133786847	73	127
162.65501133786847	162.70142857142858	75	127
162.70142857142858	162.8639909297052	77	127
162.70142857142858	162.8639909297052	65	127
162.70142857142858	162.8639909297052	61	127
162.9336507936508	163.07297052154195	77	127
162.9336507936508	163.07297052154195	63	127
162.9336507936508	163.07297052154195	60	127
163.13102040816327	163.57219954648525	77	127
163.13102040816327	163.30517006802722	61	127
163.13102040816327	163.30517006802722	58	127
163.36319727891157	163.4096598639456	77	127
163.36319727891157	163.514126984127	60	127
163.36319727891157	163.514126984127	56	127
163.4096598639456	163.44448979591837	79	127
163.44448979591837	163.47931972789115	80	127
163.47931972789115	163.5257596371882	82	127
163.5257596371882	163.57219954648525	84	127
163.57219954648525	163.73473922902494	85	127
163.57219954648525	163.73473922902494	76	127
163.57219954648525	163.73473922902494	58	127
163.57219954648525	163.73473922902494	55	127
163.79278911564626	163.94371882086168	85	127
163.79278911564626	163.94371882086168	77	127
163.79278911564626	163.94371882086168	56	127
163.79278911564626	163.94371882086168	53	127
164.001768707483	164.1526984126984	79	127
164.001768707483	164.1526984126984	55	127
164.001768707483	164.1526984126984	52	127
164.001768707483	164.19913832199546	84	127
164.19913832199546	164.25718820861678	72	127
164.19913832199546	164.35006802721088	64	127
164.19913832199546	164.35006802721088	67	127
164.25718820861678	164.30362811791383	74	127
164.30362811791383	164.36167800453515	76	127
164.36167800453515	164.4081179138322	77	127
164.4081179138322	164.60548752834467	67	127
164.4081179138322	164.60548752834467	64	127
164.4081179138322	164.60548752834467	79	127
164.663537414966	164.83768707482994	79	127
164.663537414966	164.83768707482994	65	127
164.663537414966	164.83768707482994	62	127
164.8957142857143	165.3136961451247	79	127
164.8957142857143	165.0698866213152	64	127
164.8957142857143	165.0698866213152	60	127
165.11632653061224	165.26725623582766	58	127
165.11632653061224	165.26725623582766	61	127
165.11632653061224	165.1627664399093	76	127
165.1627664399093	165.1975963718821	77	127
165.1975963718821	165.23242630385488	79	127
165.23242630385488	165.26725623582766	80	127
165.26725623582766	165.3136961451247	82	127
165.32530612244898	165.49945578231294	77	127
165.32530612244898	165.42979591836735	84	127
165.32530612244898	165.49945578231294	60	127
165.32530612244898	165.49945578231294	56	127
165.54589569160999	165.70843537414967	79	127
165.54589569160999	165.62716553287981	84	127
165.54589569160999	165.70843537414967	58	127
165.54589569160999	165.70843537414967	55	127
165.62716553287981	165.6968253968254	86	127
165.6968253968254	165.76646258503402	88	127
165.76646258503402	166.03351473922902	89	127
165.76646258503402	165.9754648526077	56	127
165.76646258503402	165.9754648526077	53	127
165.76646258503402	166.03351473922902	80	127
166.03351473922902	166.18444444444444	68	127
166.03351473922902	166.18444444444444	56	127
166.03351473922902	166.4514739229025	89	127
166.03351473922902	166.4514739229025	80	127
166.24249433106576	166.39342403628117	67	127
166.24249433106576	166.39342403628117	55	127
166.4514739229025	166.88104308390024	89	127
166.4514739229025	166.62562358276645	65	127
166.4514739229025	166.62562358276645	53	127
166.4514739229025	166.88104308390024	80	127
166.6836507936508	166.8346031746032	51	127
166.6836507936508	166.8346031746032	63	127
166.88104308390024	167.03197278911566	49	127
166.88104308390024	167.28739229024944	80	127
166.88104308390024	167.03197278911566	61	127
166.88104308390024	167.28739229024944	89	127
167.09002267573698	167.2409523809524	60	127
167.09002267573698	167.2409523809524	48	127
167.29897959183674	167.50798185941042	89	127
167.29897959183674	167.44990929705216	59	127
167.29897959183674	167.44990929705216	47	127
167.29897959183674	167.50798185941042	80	127
167.50798185941042	167.6124716553288	79	127
167.50798185941042	167.8098185941043	88	127
167.50798185941042	167.8098185941043	60	127
167.50798185941042	167.8098185941043	48	127
167.6124716553288	167.69374149659865	78	127
167.69374149659865	167.8330612244898	79	127
167.8330612244898	167.90272108843538	80	127
167.90272108843538	167.97238095238095	79	127
167.97238095238095	168.03043083900226	77	127
168.03043083900226	168.6457596371882	48	127
168.03043083900226	168.10009070294785	76	127
168.10009070294785	168.16972789115647	75	127
168.16972789115647	168.239410430839	76	127
168.239410430839	168.3090702947846	77	127
168.3090702947846	168.3671201814059	76	127
168.3671201814059	168.42514739229026	74	127
168.43678004535147	168.6457596371882	72	127
168.65736961451248	168.70380952380953	50	127
168.65736961451248	168.79668934240362	65	127
168.65736961451248	168.79668934240362	71	127
168.70380952380953	168.75024943310657	52	127
168.75024943310657	168.8082993197279	53	127
168.8082993197279	168.85473922902494	55	127
168.85473922902494	169.00566893424036	65	127
168.85473922902494	169.00566893424036	71	127
168.85473922902494	169.00566893424036	56	127
169.06371882086168	169.26108843537415	65	127
169.06371882086168	169.26108843537415	71	127
169.06371882086168	169.26108843537415	56	127
169.31913832199547	169.4352380952381	79	127
169.31913832199547	170.45691609977325	48	127
169.31913832199547	169.53972789115647	55	127
169.31913832199547	169.58616780045352	64	127
169.31913832199547	169.58616780045352	72	127
169.4352380952381	169.50489795918367	78	127
169.50489795918367	169.58616780045352	79	127
169.58616780045352	169.67904761904762	80	127
169.58616780045352	169.76031746031745	48	127
169.67904761904762	169.7487074829932	79	127
169.7487074829932	169.81836734693877	77	127
169.81836734693877	170.45691609977325	60	127
169.81836734693877	169.91124716553287	76	127
169.91124716553287	169.98090702947846	75	127
169.98090702947846	170.05056689342405	76	127
170.05056689342405	170.1202267573696	77	127
170.1202267573696	170.17827664399093	76	127
170.17827664399093	170.24793650793652	74	127
170.24793650793652	170.45691609977325	72	127
170.45691609977325	170.51496598639457	50	127
170.45691609977325	170.60784580498867	83	127
170.45691609977325	170.60784580498867	60	127
170.45691609977325	170.60784580498867	65	127
170.51496598639457	170.56140589569162	52	127
170.56140589569162	170.60784580498867	53	127
170.60784580498867	170.66589569161	55	127
170.66589569161	170.8168253968254	60	127
170.66589569161	170.8168253968254	83	127
170.66589569161	170.8168253968254	65	127
170.66589569161	170.8168253968254	56	127
170.86326530612246	171.0722448979592	83	127
170.86326530612246	171.0722448979592	60	127
170.86326530612246	171.0722448979592	65	127
170.86326530612246	171.0722448979592	56	127
171.14190476190475	171.43215419501135	64	127
171.14190476190475	171.2580045351474	79	127
171.14190476190475	171.36249433106576	55	127
171.14190476190475	171.43215419501135	84	127
171.14190476190475	171.43215419501135	60	127
171.2580045351474	171.3508843537415	78	127
171.3508843537415	171.43215419501135	79	127
171.43215419501135	171.5018140589569	80	127
171.43215419501135	171.58308390022677	48	127
171.5018140589569	171.5714739229025	79	127
171.5714739229025	171.65274376417233	77	127
171.65274376417233	171.72240362811792	76	127
171.65274376417233	172.26807256235827	48	127
171.72240362811792	171.7920634920635	75	127
171.7920634920635	171.86172335600907	76	127
171.86172335600907	171.93138321995465	77	127
171.93138321995465	172.00102040816327	76	127
172.00102040816327	172.0707029478458	74	127
172.0707029478458	172.22163265306122	72	127
172.27968253968254	172.43061224489796	65	127
172.27968253968254	172.31451247165532	48	127
172.27968253968254	172.43061224489796	71	127
172.31451247165532	172.34934240362813	50	127
172.34934240362813	172.39578231292518	52	127
172.39578231292518	172.43061224489796	53	127
172.43061224489796	172.48866213151928	55	127
172.48866213151928	172.65120181405896	65	127
172.48866213151928	172.65120181405896	71	127
172.48866213151928	172.65120181405896	56	127
172.7324716553288	172.89501133786848	65	127
172.7324716553288	172.89501133786848	71	127
172.7324716553288	172.89501133786848	56	127
172.9530612244898	173.1736507936508	55	127
172.9530612244898	173.02269841269842	79	127
172.9530612244898	173.22009070294786	64	127
172.9530612244898	173.22009070294786	72	127
172.9530612244898	174.1140589569161	36	127
173.03433106575963	173.16204081632654	78	127
173.16204081632654	173.22009070294786	79	127
173.22009070294786	173.38260770975057	48	127
173.22009070294786	173.3013605442177	80	127
173.3013605442177	173.37102040816328	79	127
173.37102040816328	173.44068027210884	77	127
173.44068027210884	174.1140589569161	60	127
173.44068027210884	173.51034013605442	76	127
173.51034013605442	173.59160997732425	75	127
173.59160997732425	173.6728798185941	76	127
173.6728798185941	173.74251700680273	77	127
173.74251700680273	173.81219954648526	76	127
173.81219954648526	173.88185941043085	74	127
173.89344671201815	174.1140589569161	72	127
174.1140589569161	174.16049886621315	36	127
174.1140589569161	174.26498866213151	60	127
174.1140589569161	174.26498866213151	65	127
174.1140589569161	174.26498866213151	83	127
174.1140589569161	174.26498866213151	68	127
174.16049886621315	174.19532879818595	38	127
174.19532879818595	174.23015873015873	40	127
174.23015873015873	174.27659863945578	41	127
174.27659863945578	174.32303854875283	43	127
174.32303854875283	174.47396825396825	83	127
174.32303854875283	174.47396825396825	68	127
174.32303854875283	174.47396825396825	60	127
174.32303854875283	174.47396825396825	65	127
174.32303854875283	174.47396825396825	44	127
174.5087755102041	174.6481179138322	83	127
174.5087755102041	174.6481179138322	68	127
174.5087755102041	174.6481179138322	60	127
174.5087755102041	174.6481179138322	65	127
174.5087755102041	174.6481179138322	41	127
174.69455782312926	174.903537414966	84	127
174.69455782312926	174.903537414966	67	127
174.69455782312926	174.903537414966	60	127
174.69455782312926	174.903537414966	64	127
174.69455782312926	174.903537414966	36	127
174.903537414966	175.10090702947846	67	127
174.903537414966	175.10090702947846	64	127
174.903537414966	175.10090702947846	60	127
175.11251700680273	175.3098866213152	67	127
175.11251700680273	175.3098866213152	64	127
175.11251700680273	175.3098866213152	60	127
175.3098866213152	175.51886621315194	67	127
175.3098866213152	175.51886621315194	64	127
175.3098866213152	175.51886621315194	60	127
175.51886621315194	175.72784580498868	67	127
175.51886621315194	175.72784580498868	64	127
175.51886621315194	175.72784580498868	60	127
175.73945578231292	175.93680272108844	67	127
175.73945578231292	175.93680272108844	64	127
175.73945578231292	175.93680272108844	60	127
175.94843537414965	176.14580498866212	67	127
175.94843537414965	176.14580498866212	64	127
175.94843537414965	176.14580498866212	60	127
176.14580498866212	176.35478458049886	67	127
176.14580498866212	176.35478458049886	64	127
176.14580498866212	176.35478458049886	60	127
176.35478458049886	176.55213151927438	68	127
176.35478458049886	176.55213151927438	65	127
176.35478458049886	176.55213151927438	60	127
176.5637641723356	176.76113378684806	65	127
176.5637641723356	176.76113378684806	60	127
176.5637641723356	176.76113378684806	68	127
176.76113378684806	176.99333333333334	68	127
176.76113378684806	176.99333333333334	65	127
176.76113378684806	176.99333333333334	60	127
176.99333333333334	177.23714285714286	68	127
176.99333333333334	177.23714285714286	65	127
176.99333333333334	177.23714285714286	60	127
177.24875283446713	177.64349206349206	68	127
177.24875283446713	177.64349206349206	65	127
177.24875283446713	177.64349206349206	61	127
177.64349206349206	177.88730158730158	68	127
177.64349206349206	177.88730158730158	65	127
177.64349206349206	177.88730158730158	61	127
177.88730158730158	178.0846485260771	68	127
177.88730158730158	178.0846485260771	65	127
177.88730158730158	178.0846485260771	61	127
178.09628117913832	178.29365079365078	68	127
178.09628117913832	178.29365079365078	65	127
178.09628117913832	178.29365079365078	61	127
178.30526077097505	178.56068027210884	69	127
178.30526077097505	178.56068027210884	66	127
178.30526077097505	178.56068027210884	61	127
178.56068027210884	178.83931972789117	69	127
178.56068027210884	178.83931972789117	66	127
178.56068027210884	178.83931972789117	61	127
178.83931972789117	179.15278911564627	69	127
178.83931972789117	179.15278911564627	66	127
178.83931972789117	179.15278911564627	61	127
179.1643990929705	179.37337868480725	69	127
179.1643990929705	179.37337868480725	66	127
179.1643990929705	179.37337868480725	61	127
179.37337868480725	179.62879818594104	69	127
179.37337868480725	179.62879818594104	66	127
179.37337868480725	179.62879818594104	61	127
179.62879818594104	179.8725850340136	69	127
179.62879818594104	179.8725850340136	66	127
179.62879818594104	179.8725850340136	61	127
179.88421768707482	180.09319727891156	61	127
179.88421768707482	180.09319727891156	69	127
179.88421768707482	180.09319727891156	66	127
180.09319727891156	180.3021768707483	69	127
180.09319727891156	180.3021768707483	61	127
180.09319727891156	180.3021768707483	66	127
180.3021768707483	180.63884353741497	69	127
180.3021768707483	180.63884353741497	66	127
180.3021768707483	180.63884353741497	62	127
180.65047619047618	180.85945578231292	69	127
180.8710657596372	181.06843537414966	69	127
181.06843537414966	181.31224489795918	69	127
181.31224489795918	181.5095918367347	69	127
181.5212244897959	181.71859410430838	69	127
181.71859410430838	181.92757369614512	69	127
181.92757369614512	182.12492063492064	69	127
181.92757369614512	182.12492063492064	78	127
181.92757369614512	182.12492063492064	62	127
182.13655328798185	182.7518820861678	64	127
182.13655328798185	182.33392290249432	69	127
182.13655328798185	182.7518820861678	79	127
182.33392290249432	182.55451247165533	68	127
182.55451247165533	183.16984126984127	69	127
182.76349206349207	182.96086167800453	61	127
182.76349206349207	182.96086167800453	76	127
182.9724716553288	183.62263038548753	57	127
182.9724716553288	183.62263038548753	73	127
183.16984126984127	183.39043083900228	68	127
183.39043083900228	184.19151927437642	69	127
183.6342403628118	183.84321995464853	55	127
183.6342403628118	183.84321995464853	76	127
183.84321995464853	184.6326984126984	54	127
183.84321995464853	184.6326984126984	74	127
184.19151927437642	184.40049886621316	68	127
184.41210884353742	185.05065759637188	69	127
184.6326984126984	184.84167800453514	78	127
184.6326984126984	184.84167800453514	62	127
184.84167800453514	185.6427664399093	81	127
184.84167800453514	185.6427664399093	66	127
185.06226757369615	185.44537414965987	68	127
185.44537414965987	186.18843537414966	69	127
185.6427664399093	185.93301587301588	78	127
185.6427664399093	185.93301587301588	62	127
185.6427664399093	185.93301587301588	50	127
185.93301587301588	186.6528344671202	79	127
185.93301587301588	186.6528344671202	61	127
185.93301587301588	186.6528344671202	52	127
186.22326530612244	186.43224489795918	68	127
186.43224489795918	187.09401360544217	69	127
186.6528344671202	186.86181405895692	49	127
186.6528344671202	186.86181405895692	76	127
186.6528344671202	186.86181405895692	64	127
186.8734240362812	187.59321995464853	73	127
186.8734240362812	187.59321995464853	67	127
186.8734240362812	187.59321995464853	45	127
187.10562358276644	187.36104308390023	68	127
187.3726530612245	188.0924716553288	69	127
187.59321995464853	187.84863945578232	61	127
187.59321995464853	187.84863945578232	76	127
187.59321995464853	187.84863945578232	55	127
187.84863945578232	188.0924716553288	74	127
187.84863945578232	188.0924716553288	62	127
187.84863945578232	188.0924716553288	54	127
188.0924716553288	188.28984126984128	74	127
188.0924716553288	188.28984126984128	66	127
188.0924716553288	188.28984126984128	57	127
188.0924716553288	188.28984126984128	50	127
188.28984126984128	188.52204081632652	74	127
188.28984126984128	188.52204081632652	66	127
188.28984126984128	188.52204081632652	57	127
188.28984126984128	188.52204081632652	50	127
188.52204081632652	188.7542403628118	74	127
188.52204081632652	188.7542403628118	66	127
188.52204081632652	188.7542403628118	57	127
188.52204081632652	188.7542403628118	50	127
188.7542403628118	188.96321995464854	74	127
188.7542403628118	188.96321995464854	66	127
188.7542403628118	188.96321995464854	57	127
188.7542403628118	188.96321995464854	50	127
188.97480725623583	189.19541950113378	74	127
188.97480725623583	189.19541950113378	65	127
188.97480725623583	189.19541950113378	57	127
188.97480725623583	189.19541950113378	50	127
189.19541950113378	189.39278911564625	74	127
189.19541950113378	189.39278911564625	65	127
189.19541950113378	189.39278911564625	57	127
189.19541950113378	189.39278911564625	50	127
189.40439909297052	189.601768707483	65	127
189.40439909297052	189.601768707483	74	127
189.40439909297052	189.601768707483	57	127
189.40439909297052	189.601768707483	50	127
189.601768707483	189.8455782312925	65	127
189.601768707483	189.8455782312925	57	127
189.601768707483	189.8455782312925	50	127
189.601768707483	189.8455782312925	74	127
189.85718820861678	190.07777777777778	74	127
189.85718820861678	190.07777777777778	65	127
189.85718820861678	190.07777777777778	58	127
189.85718820861678	190.07777777777778	46	127
190.07777777777778	190.2983673469388	74	127
190.07777777777778	190.2983673469388	65	127
190.07777777777778	190.2983673469388	58	127
190.07777777777778	190.2983673469388	46	127
190.30997732426303	190.5073469387755	74	127
190.30997732426303	190.5073469387755	65	127
190.30997732426303	190.5073469387755	58	127
190.30997732426303	190.5073469387755	46	127
190.5073469387755	190.71632653061224	46	127
190.5073469387755	190.71632653061224	74	127
190.5073469387755	190.71632653061224	65	127
190.5073469387755	190.71632653061224	58	127
190.7279365079365	190.93691609977324	65	127
190.7279365079365	190.93691609977324	80	127
190.7279365079365	190.93691609977324	62	127
190.7279365079365	190.93691609977324	46	127
190.93691609977324	191.19233560090703	80	127
190.93691609977324	191.19233560090703	65	127
190.93691609977324	191.19233560090703	62	127
190.93691609977324	191.19233560090703	46	127
191.19233560090703	191.45936507936509	65	127
191.19233560090703	191.45936507936509	80	127
191.19233560090703	191.45936507936509	62	127
191.19233560090703	191.45936507936509	46	127
191.47097505668935	191.69156462585033	46	127
191.47097505668935	191.69156462585033	65	127
191.47097505668935	191.69156462585033	62	127
191.47097505668935	191.69156462585033	80	127
191.7031746031746	191.90054421768707	46	127
191.90054421768707	192.1095238095238	46	127
192.12113378684808	192.31850340136054	46	127
192.31850340136054	192.53909297052155	46	127
192.5507029478458	192.78290249433107	46	127
192.78290249433107	193.0847619047619	46	127
193.0847619047619	193.31696145124715	67	127
193.0847619047619	193.31696145124715	51	127
193.0847619047619	193.31696145124715	46	127
193.0847619047619	193.31696145124715	79	127
193.31696145124715	193.5607709750567	46	127
193.31696145124715	194.06	80	127
193.31696145124715	194.06	68	127
193.31696145124715	194.06	50	127
193.5607709750567	193.81619047619049	45	127
193.82780045351473	194.58244897959185	46	127
194.06	194.26897959183674	77	127
194.06	194.26897959183674	65	127
194.06	194.26897959183674	53	127
194.280589569161	195.01201814058956	74	127
194.280589569161	195.01201814058956	62	127
194.280589569161	195.01201814058956	58	127
194.58244897959185	194.80303854875282	45	127
194.8146485260771	195.41836734693877	46	127
195.01201814058956	195.20938775510203	77	127
195.01201814058956	195.20938775510203	65	127
195.01201814058956	195.20938775510203	56	127
195.2209977324263	195.83632653061224	75	127
195.2209977324263	195.83632653061224	63	127
195.2209977324263	195.83632653061224	55	127
195.41836734693877	195.61573696145123	45	127
195.6273469387755	196.3819954648526	46	127
195.83632653061224	196.16140589569162	67	127
195.83632653061224	196.16140589569162	58	127
195.83632653061224	196.16140589569162	79	127
196.16140589569162	196.77673469387756	70	127
196.16140589569162	196.77673469387756	82	127
196.16140589569162	196.77673469387756	55	127
196.3819954648526	196.5793650793651	45	127
196.5793650793651	197.28757369614513	46	127
196.78834467120183	196.99732426303854	79	127
196.78834467120183	196.99732426303854	67	127
196.78834467120183	196.99732426303854	51	127
196.99732426303854	198.28603174603174	53	127
196.99732426303854	198.49501133786848	80	127
196.99732426303854	198.49501133786848	68	127
197.2991836734694	197.5546031746032	45	127
197.5546031746032	197.81002267573697	46	127
197.82163265306122	198.03061224489795	48	127
198.03061224489795	198.9361904761905	49	127
198.297641723356	198.43696145124716	59	127
198.49501133786848	198.71560090702948	79	127
198.49501133786848	198.71560090702948	67	127
198.49501133786848	198.65755102040816	59	127
198.71560090702948	198.9361904761905	77	127
198.71560090702948	198.87814058956917	59	127
198.71560090702948	198.9361904761905	65	127
198.9361904761905	199.1451700680272	48	127
198.9361904761905	199.35414965986394	76	127
198.9361904761905	199.35414965986394	64	127
198.9361904761905	199.35414965986394	60	127
199.1451700680272	199.35414965986394	47	127
199.3657596371882	199.56312925170067	48	127
199.3657596371882	199.98108843537415	55	127
199.3657596371882	200.17845804988661	82	127
199.3657596371882	200.17845804988661	70	127
199.56312925170067	199.7721088435374	50	127
199.78371882086168	200.61963718820863	52	127
199.98108843537415	200.13201814058957	61	127
200.19006802721088	200.38743764172335	81	127
200.19006802721088	200.32938775510203	61	127
200.38743764172335	200.57319727891158	61	127
200.38743764172335	200.61963718820863	79	127
200.63124716553287	200.9098866213152	50	127
200.63124716553287	201.11886621315193	78	127
200.63124716553287	201.11886621315193	62	127
200.9098866213152	201.11886621315193	49	127
201.1304761904762	202.01283446712017	87	127
201.1304761904762	201.36267573696145	50	127
201.1304761904762	201.36267573696145	54	127
201.1304761904762	202.01283446712017	75	127
201.36267573696145	201.58326530612246	55	127
201.36267573696145	201.58326530612246	52	127
201.58326530612246	201.80385487528343	57	127
201.58326530612246	202.4772335600907	54	127
201.80385487528343	202.01283446712017	62	127
202.01283446712017	202.25664399092972	74	127
202.01283446712017	202.25664399092972	86	127
202.01283446712017	202.25664399092972	57	127
202.26825396825396	202.4772335600907	62	127
202.26825396825396	202.4772335600907	72	127
202.26825396825396	202.4772335600907	84	127
202.4772335600907	202.67460317460316	58	127
202.4772335600907	203.11578231292518	82	127
202.4772335600907	203.11578231292518	70	127
202.4772335600907	203.33637188208615	55	127
202.68621315192743	202.89519274376417	62	127
202.89519274376417	203.11578231292518	58	127
203.12739229024945	203.33637188208615	69	127
203.12739229024945	203.33637188208615	62	127
203.12739229024945	203.33637188208615	81	127
203.33637188208615	203.56857142857143	67	127
203.33637188208615	204.21873015873015	52	127
203.33637188208615	203.56857142857143	79	127
203.33637188208615	203.56857142857143	58	127
203.59179138321994	203.78916099773244	81	127
203.59179138321994	203.78916099773244	69	127
203.59179138321994	203.78916099773244	60	127
203.78916099773244	203.9865306122449	55	127
203.78916099773244	203.9865306122449	82	127
203.78916099773244	203.9865306122449	70	127
203.9865306122449	204.21873015873015	84	127
203.9865306122449	204.21873015873015	72	127
203.9865306122449	204.21873015873015	60	127
204.21873015873015	204.41609977324262	57	127
204.21873015873015	204.62507936507936	82	127
204.21873015873015	204.62507936507936	70	127
204.21873015873015	204.82244897959183	53	127
204.41609977324262	204.56702947845804	60	127
204.62507936507936	204.82244897959183	69	127
204.62507936507936	204.77600907029478	60	127
204.62507936507936	204.82244897959183	81	127
204.82244897959183	205.04303854875283	60	127
204.82244897959183	205.11269841269842	79	127
204.82244897959183	205.11269841269842	67	127
204.82244897959183	205.11269841269842	52	127
205.12430839002266	205.3332879818594	77	127
205.12430839002266	205.3332879818594	65	127
205.12430839002266	205.3332879818594	60	127
205.12430839002266	206.01827664399093	50	127
205.3332879818594	205.54226757369614	79	127
205.3332879818594	205.4958276643991	53	127
205.3332879818594	205.54226757369614	67	127
205.5538775510204	205.7744671201814	69	127
205.5538775510204	205.7744671201814	81	127
205.5538775510204	205.7164172335601	53	127
205.7744671201814	205.97183673469388	53	127
205.7744671201814	206.01827664399093	83	127
205.7744671201814	206.01827664399093	65	127
206.0298866213152	206.08793650793652	67	127
206.0298866213152	206.22725623582767	84	127
206.0298866213152	206.22725623582767	52	127
206.0298866213152	206.16920634920635	36	127
206.08793650793652	206.15759637188208	66	127
206.15759637188208	206.22725623582767	67	127
206.22725623582767	206.65682539682538	52	127
206.22725623582767	206.29691609977326	68	127
206.22725623582767	206.37818594104309	48	127
206.22725623582767	206.65682539682538	55	127
206.29691609977326	206.36657596371882	67	127
206.36657596371882	206.4362358276644	65	127
206.4362358276644	206.49428571428572	64	127
206.4362358276644	206.57555555555555	40	127
206.49428571428572	206.56394557823128	63	127
206.56394557823128	206.65682539682538	64	127
206.65682539682538	206.8425850340136	52	127
206.65682539682538	207.16766439909298	55	127
206.65682539682538	206.72648526077097	65	127
206.65682539682538	207.16766439909298	52	127
206.72648526077097	206.83097505668934	64	127
206.83097505668934	206.88902494331066	62	127
206.88902494331066	207.08639455782313	60	127
206.88902494331066	207.08639455782313	43	127
207.16766439909298	207.3185941043084	60	127
207.16766439909298	207.3185941043084	52	127
207.16766439909298	207.3185941043084	55	127
207.16766439909298	207.3185941043084	55	127
207.36503401360545	207.51596371882087	60	127
207.36503401360545	207.51596371882087	52	127
207.36503401360545	207.51596371882087	55	127
207.36503401360545	207.51596371882087	48	127
207.5740136054422	207.87587301587303	55	127
207.5740136054422	207.87587301587303	60	127
207.5740136054422	207.87587301587303	52	127
207.5740136054422	207.87587301587303	60	127
207.92231292517008	208.10807256235827	55	127
207.92231292517008	208.01519274376417	79	127
207.92231292517008	208.15451247165532	59	127
207.92231292517008	208.15451247165532	43	127
208.01519274376417	208.08485260770976	78	127
208.08485260770976	208.1661224489796	79	127
208.1661224489796	208.23578231292518	80	127
208.1661224489796	208.30544217687074	67	127
208.23578231292518	208.29383219954647	79	127
208.29383219954647	208.36349206349206	77	127
208.36349206349206	208.978820861678	65	127
208.36349206349206	208.43315192743765	76	127
208.36349206349206	208.51442176870748	59	127
208.36349206349206	208.978820861678	55	127
208.43315192743765	208.5028117913832	75	127
208.5028117913832	208.5724716553288	76	127
208.5724716553288	208.6421315192744	77	127
208.5724716553288	208.71179138321995	71	127
208.6421315192744	208.7001814058957	76	127
208.7001814058957	208.78145124716553	74	127
208.78145124716553	208.93238095238095	62	127
208.78145124716553	208.93238095238095	71	127
208.99043083900227	209.12975056689342	74	127
208.99043083900227	209.12975056689342	65	127
208.99043083900227	209.12975056689342	71	127
208.99043083900227	209.12975056689342	55	127
209.18780045351474	209.33873015873016	71	127
209.18780045351474	209.33873015873016	55	127
209.18780045351474	209.33873015873016	65	127
209.18780045351474	209.33873015873016	55	127
209.42	209.55931972789116	71	127
209.42	209.55931972789116	55	127
209.42	209.55931972789116	65	127
209.42	209.55931972789116	67	127
209.61736961451248	210.73192743764173	52	127
209.61736961451248	209.8263492063492	36	127
209.61736961451248	209.67541950113377	67	127
209.61736961451248	210.08176870748298	72	127
209.61736961451248	210.73192743764173	55	127
209.6986394557823	209.77990929705214	66	127
209.77990929705214	209.87278911564627	67	127
209.87278911564627	210.0237188208617	48	127
209.87278911564627	209.94244897959183	68	127
209.94244897959183	210.01210884353742	67	127
210.01210884353742	210.08176870748298	65	127
210.08176870748298	210.23269841269843	40	127
210.08176870748298	210.15142857142857	64	127
210.15142857142857	210.22108843537416	63	127
210.22108843537416	210.302358276644	64	127
210.302358276644	210.37201814058957	65	127
210.302358276644	210.4532879818594	52	127
210.37201814058957	210.44167800453513	64	127
210.44167800453513	210.49972789115645	62	127
210.51133786848072	210.68548752834468	60	127
210.51133786848072	210.68548752834468	43	127
210.73192743764173	210.90607709750566	60	127
210.73192743764173	210.90607709750566	52	127
210.73192743764173	210.90607709750566	55	127
210.73192743764173	210.90607709750566	55	127
210.96412698412698	211.10344671201815	48	127
210.96412698412698	211.10344671201815	60	127
210.96412698412698	211.10344671201815	52	127
210.96412698412698	211.10344671201815	55	127
211.16149659863945	211.3356462585034	52	127
211.16149659863945	211.3356462585034	55	127
211.16149659863945	211.3356462585034	60	127
211.16149659863945	211.3356462585034	60	127
211.39369614512472	211.5562358276644	48	127
211.39369614512472	211.47496598639455	79	127
211.39369614512472	211.47496598639455	82	127
211.47496598639455	211.54462585034014	78	127
211.47496598639455	211.54462585034014	81	127
211.54462585034014	211.61428571428573	82	127
211.54462585034014	211.61428571428573	79	127
211.61428571428573	211.6839455782313	84	127
211.61428571428573	211.76521541950115	60	127
211.61428571428573	211.6839455782313	80	127
211.6839455782313	211.75360544217688	79	127
211.6839455782313	211.75360544217688	82	127
211.75360544217688	211.82326530612244	81	127
211.75360544217688	211.82326530612244	77	127
211.82326530612244	211.9625850340136	52	127
211.82326530612244	211.88131519274376	79	127
211.82326530612244	211.88131519274376	76	127
211.88131519274376	211.95097505668934	75	127
211.88131519274376	211.95097505668934	78	127
211.95097505668934	212.02063492063493	79	127
211.95097505668934	212.02063492063493	76	127
212.02063492063493	212.17156462585035	64	127
212.02063492063493	212.0902947845805	81	127
212.02063492063493	212.0902947845805	77	127
212.0902947845805	212.15995464852608	76	127
212.0902947845805	212.15995464852608	79	127
212.15995464852608	212.2180045351474	77	127
212.15995464852608	212.2180045351474	74	127
212.2180045351474	212.36893424036282	76	127
212.2180045351474	212.36893424036282	72	127
212.2180045351474	212.36893424036282	55	127
212.43859410430838	212.60113378684807	76	127
212.43859410430838	212.60113378684807	72	127
212.43859410430838	212.60113378684807	67	127
212.65918367346939	212.82172335600907	60	127
212.65918367346939	212.82172335600907	76	127
212.65918367346939	212.82172335600907	72	127
212.8797732426304	213.04231292517008	72	127
212.8797732426304	213.04231292517008	72	127
212.8797732426304	213.04231292517008	76	127
213.08875283446713	213.27451247165533	36	127
213.08875283446713	213.17002267573696	86	127
213.08875283446713	213.17002267573696	82	127
213.08875283446713	213.27451247165533	48	127
213.17002267573696	213.26290249433106	85	127
213.17002267573696	213.26290249433106	81	127
213.26290249433106	213.33256235827665	86	127
213.26290249433106	213.34417233560092	82	127
213.34417233560092	213.40222222222224	88	127
213.34417233560092	213.41383219954648	84	127
213.34417233560092	213.49510204081633	60	127
213.34417233560092	213.49510204081633	48	127
213.41383219954648	213.4718820861678	86	127
213.41383219954648	213.4718820861678	82	127
213.4718820861678	213.54154195011338	84	127
213.4718820861678	213.54154195011338	81	127
213.54154195011338	213.6924716553288	52	127
213.54154195011338	213.61120181405894	82	127
213.54154195011338	213.61120181405894	79	127
213.54154195011338	213.6924716553288	40	127
213.61120181405894	213.68086167800453	81	127
213.61120181405894	213.68086167800453	78	127
213.68086167800453	213.73891156462585	82	127
213.68086167800453	213.75052154195012	79	127
213.75052154195012	213.88984126984127	52	127
213.75052154195012	213.80857142857144	84	127
213.75052154195012	213.82018140589568	81	127
213.75052154195012	213.88984126984127	64	127
213.82018140589568	213.878231292517	82	127
213.82018140589568	213.878231292517	79	127
213.878231292517	213.9478911564626	81	127
213.878231292517	213.9478911564626	77	127
213.9478911564626	214.11043083900228	82	127
213.9478911564626	214.11043083900228	79	127
213.9478911564626	214.11043083900228	55	127
213.9478911564626	214.11043083900228	43	127
214.18009070294784	214.319410430839	82	127
214.18009070294784	214.319410430839	79	127
214.18009070294784	214.319410430839	67	127
214.18009070294784	214.319410430839	55	127
214.3774603174603	214.52839002267575	60	127
214.3774603174603	214.52839002267575	82	127
214.3774603174603	214.52839002267575	79	127
214.3774603174603	214.52839002267575	48	127
214.65609977324263	214.8534693877551	72	127
214.65609977324263	214.8534693877551	60	127
214.65609977324263	214.8534693877551	79	127
214.65609977324263	214.8534693877551	82	127
214.9231292517007	215.67777777777778	61	127
214.9231292517007	215.67777777777778	73	127
214.9231292517007	214.99278911564625	79	127
214.9231292517007	214.99278911564625	82	127
214.99278911564625	215.06244897959184	78	127
214.99278911564625	215.06244897959184	81	127
215.06244897959184	215.13210884353742	82	127
215.06244897959184	215.13210884353742	79	127
215.13210884353742	215.2365986394558	84	127
215.13210884353742	215.2365986394558	80	127
215.2365986394558	215.30625850340135	79	127
215.2365986394558	215.30625850340135	82	127
215.30625850340135	215.37591836734694	81	127
215.30625850340135	215.37591836734694	77	127
215.37591836734694	215.96802721088434	79	127
215.37591836734694	215.96802721088434	82	127
215.67777777777778	215.89836734693878	60	127
215.67777777777778	215.89836734693878	72	127
215.89836734693878	216.59496598639456	61	127
215.89836734693878	216.59496598639456	73	127
215.96802721088434	216.03768707482993	78	127
215.96802721088434	216.03768707482993	81	127
216.03768707482993	216.10734693877552	79	127
216.03768707482993	216.10734693877552	82	127
216.10734693877552	216.18861678004535	80	127
216.10734693877552	216.18861678004535	84	127
216.18861678004535	216.25827664399094	82	127
216.18861678004535	216.25827664399094	79	127
216.25827664399094	216.31632653061226	81	127
216.25827664399094	216.31632653061226	77	127
216.31632653061226	216.87360544217688	82	127
216.31632653061226	216.87360544217688	79	127
216.59496598639456	216.79233560090702	60	127
216.59496598639456	216.79233560090702	72	127
216.8039455782313	217.00131519274376	48	127
216.87360544217688	216.94326530612244	81	127
216.87360544217688	216.94326530612244	78	127
216.94326530612244	217.01292517006803	82	127
216.94326530612244	217.01292517006803	79	127
217.01292517006803	217.24512471655328	72	127
217.01292517006803	217.07097505668935	81	127
217.01292517006803	217.07097505668935	78	127
217.01292517006803	217.24512471655328	60	127
217.07097505668935	217.15224489795918	79	127
217.07097505668935	217.15224489795918	82	127
217.15224489795918	217.24512471655328	81	127
217.15224489795918	217.24512471655328	78	127
217.24512471655328	217.47732426303855	48	127
217.24512471655328	217.32639455782314	82	127
217.24512471655328	217.32639455782314	79	127
217.32639455782314	217.3960544217687	81	127
217.32639455782314	217.3960544217687	78	127
217.3960544217687	217.47732426303855	82	127
217.3960544217687	217.47732426303855	79	127
217.47732426303855	217.55859410430838	81	127
217.47732426303855	217.55859410430838	78	127
217.47732426303855	217.75596371882085	72	127
217.47732426303855	217.75596371882085	60	127
217.55859410430838	217.63986394557824	79	127
217.55859410430838	217.63986394557824	82	127
217.63986394557824	217.76757369614512	81	127
217.63986394557824	217.76757369614512	78	127
217.76757369614512	217.84884353741498	79	127
217.76757369614512	217.84884353741498	82	127
217.76757369614512	217.97655328798186	48	127
217.84884353741498	217.90689342403627	81	127
217.84884353741498	217.90689342403627	78	127
217.90689342403627	217.97655328798186	82	127
217.90689342403627	217.97655328798186	79	127
217.97655328798186	218.20875283446713	72	127
217.97655328798186	218.0578231292517	81	127
217.97655328798186	218.0578231292517	78	127
217.97655328798186	218.20875283446713	60	127
218.0578231292517	218.12748299319728	79	127
218.0578231292517	218.12748299319728	82	127
218.12748299319728	218.20875283446713	81	127
218.12748299319728	218.20875283446713	78	127
218.20875283446713	218.45256235827665	48	127
218.20875283446713	218.30163265306123	82	127
218.20875283446713	218.30163265306123	79	127
218.30163265306123	218.3712925170068	81	127
218.30163265306123	218.3712925170068	78	127
218.3712925170068	218.45256235827665	82	127
218.3712925170068	218.45256235827665	79	127
218.45256235827665	218.6847619047619	60	127
218.45256235827665	218.5222222222222	81	127
218.45256235827665	218.5222222222222	78	127
218.45256235827665	218.6847619047619	72	127
218.5222222222222	218.61510204081634	79	127
218.5222222222222	218.61510204081634	82	127
218.61510204081634	218.6847619047619	78	127
218.61510204081634	218.6847619047619	81	127
218.6847619047619	219.13755102040815	36	127
218.6847619047619	218.7544217687075	82	127
218.6847619047619	218.7544217687075	79	127
218.7544217687075	218.82408163265305	84	127
218.7544217687075	218.82408163265305	81	127
218.82408163265305	218.9053514739229	82	127
218.82408163265305	218.9053514739229	79	127
218.9053514739229	218.9750113378685	81	127
218.9053514739229	218.9750113378685	77	127
218.9750113378685	219.04467120181405	82	127
218.9750113378685	219.04467120181405	79	127
219.04467120181405	219.13755102040815	81	127
219.04467120181405	219.13755102040815	77	127
219.13755102040815	219.2536507936508	79	127
219.13755102040815	219.6367800453515	48	127
219.13755102040815	219.6367800453515	48	127
219.13755102040815	219.2536507936508	76	127
219.2536507936508	219.32331065759638	77	127
219.2536507936508	219.32331065759638	81	127
219.32331065759638	219.4045804988662	76	127
219.32331065759638	219.4045804988662	79	127
219.4045804988662	219.4742403628118	77	127
219.4045804988662	219.4742403628118	74	127
219.4742403628118	219.5671201814059	79	127
219.4742403628118	219.5671201814059	76	127
219.5671201814059	219.6367800453515	74	127
219.5671201814059	219.6367800453515	77	127
219.64839002267573	220.39142857142858	60	127
219.64839002267573	219.71804988662132	76	127
219.64839002267573	219.71804988662132	72	127
219.64839002267573	220.39142857142858	60	127
219.64839002267573	220.39142857142858	48	127
219.71804988662132	219.7877097505669	74	127
219.71804988662132	219.7877097505669	77	127
219.7877097505669	219.89219954648527	76	127
219.7877097505669	219.89219954648527	72	127
219.89219954648527	219.9734693877551	74	127
219.89219954648527	219.9734693877551	70	127
219.9734693877551	220.0431292517007	76	127
219.9734693877551	220.0431292517007	72	127
220.0431292517007	220.11278911564625	70	127
220.0431292517007	220.11278911564625	74	127
220.11278911564625	220.20566893424035	72	127
220.11278911564625	220.20566893424035	69	127
220.20566893424035	220.29854875283448	74	127
220.20566893424035	220.29854875283448	70	127
220.29854875283448	220.39142857142858	72	127
220.29854875283448	220.39142857142858	69	127
220.39142857142858	220.4726984126984	70	127
220.39142857142858	220.4726984126984	67	127
220.39142857142858	220.50752834467121	62	127
220.39142857142858	220.67006802721087	48	127
220.4726984126984	220.5655782312925	72	127
220.4726984126984	220.5655782312925	69	127
220.51913832199546	220.67006802721087	64	127
220.5655782312925	220.67006802721087	70	127
220.5655782312925	220.67006802721087	67	127
220.68167800453514	220.92548752834466	65	127
220.68167800453514	220.762947845805	65	127
220.68167800453514	220.92548752834466	53	127
220.68167800453514	220.92548752834466	69	127
220.762947845805	220.84421768707483	64	127
220.84421768707483	220.92548752834466	65	127
220.92548752834466	220.99514739229025	67	127
220.99514739229025	221.06480725623584	65	127
221.06480725623584	221.1344671201814	64	127
221.1344671201814	221.204126984127	62	127
221.204126984127	221.27378684807258	60	127
221.27378684807258	221.34344671201814	58	127
221.34344671201814	221.45954648526077	57	127
221.45954648526077	221.52920634920636	55	127
221.52920634920636	221.59886621315192	53	127
221.6104761904762	221.7614058956916	52	127
221.6104761904762	221.7614058956916	60	127
221.6104761904762	221.7614058956916	43	127
221.86589569160998	222.0168253968254	60	127
221.86589569160998	222.0168253968254	52	127
221.86589569160998	222.0168253968254	43	127
222.06326530612245	222.31868480725623	55	127
222.06326530612245	222.31868480725623	40	127
222.06326530612245	222.31868480725623	82	127
222.06326530612245	222.31868480725623	70	127
222.37673469387755	222.52766439909297	82	127
222.57410430839002	222.7714739229025	76	127
222.57410430839002	222.6437641723356	67	127
222.6437641723356	222.71342403628117	66	127
222.71342403628117	222.78308390022676	67	127
222.78308390022676	222.85274376417235	69	127
222.85274376417235	222.91079365079366	67	127
222.91079365079366	222.98045351473922	65	127
222.98045351473922	223.0501133786848	64	127
223.0501133786848	223.11977324263037	62	127
223.11977324263037	223.18943310657596	60	127
223.18943310657596	223.28231292517006	58	127
223.28231292517006	223.34036281179138	57	127
223.34036281179138	223.41002267573697	55	127
223.41002267573697	223.5609523809524	60	127
223.41002267573697	223.5609523809524	53	127
223.41002267573697	223.5609523809524	45	127
223.73510204081632	223.95569160997732	45	127
223.73510204081632	223.95569160997732	53	127
223.73510204081632	223.95569160997732	60	127
224.01374149659864	224.16467120181406	41	127
224.01374149659864	224.16467120181406	84	127
224.01374149659864	224.16467120181406	72	127
224.01374149659864	224.16467120181406	57	127
224.22272108843538	224.36204081632653	84	127
224.42009070294785	224.48975056689343	72	127
224.48975056689343	224.559410430839	71	127
224.559410430839	224.6174603174603	72	127
224.6174603174603	225.0934693877551	60	127
224.6174603174603	224.67551020408163	74	127
224.6174603174603	224.86126984126983	67	127
224.6174603174603	224.86126984126983	52	127
224.67551020408163	224.76839002267573	72	127
224.76839002267573	224.86126984126983	70	127
224.86126984126983	225.0934693877551	69	127
224.86126984126983	225.04702947845806	53	127
224.86126984126983	225.0934693877551	60	127
225.0934693877551	225.3721088435374	69	127
225.0934693877551	225.23278911564626	77	127
225.0934693877551	225.2792290249433	41	127
225.0934693877551	225.3721088435374	60	127
225.3721088435374	225.441768707483	72	127
225.441768707483	225.52303854875282	71	127
225.52303854875282	225.58108843537414	72	127
225.58108843537414	226.13836734693876	60	127
225.58108843537414	225.65074829931973	74	127
225.58108843537414	225.7784580498866	67	127
225.58108843537414	225.7784580498866	52	127
225.65074829931973	225.72040816326532	72	127
225.72040816326532	225.79006802721088	70	127
225.79006802721088	226.13836734693876	69	127
225.79006802721088	226.04548752834467	53	127
225.79006802721088	226.13836734693876	60	127
226.13836734693876	226.33573696145126	60	127
226.13836734693876	226.24285714285713	77	127
226.13836734693876	226.28929705215418	41	127
226.13836734693876	226.33573696145126	69	127
226.3473469387755	226.4170068027211	72	127
226.4170068027211	226.4750566893424	71	127
226.4750566893424	226.54471655328797	72	127
226.54471655328797	226.64920634920634	74	127
226.54471655328797	227.02072562358276	60	127
226.54471655328797	226.77691609977325	67	127
226.54471655328797	226.77691609977325	52	127
226.64920634920634	226.71886621315193	72	127
226.71886621315193	226.78852607709752	70	127
226.78852607709752	227.02072562358276	60	127
226.78852607709752	227.02072562358276	69	127
226.78852607709752	226.95106575963717	53	127
227.02072562358276	227.14843537414967	84	127
227.02072562358276	227.20648526077096	54	127
227.02072562358276	227.26453514739228	69	127
227.02072562358276	227.26453514739228	62	127
227.26453514739228	227.50834467120183	67	127
227.26453514739228	227.42707482993197	55	127
227.26453514739228	227.50834467120183	72	127
227.26453514739228	227.50834467120183	64	127
227.50834467120183	227.74054421768707	71	127
227.50834467120183	227.6360544217687	76	127
227.50834467120183	227.68249433106575	43	127
227.50834467120183	227.74054421768707	65	127
227.6360544217687	227.74054421768707	74	127
227.74054421768707	227.97274376417235	72	127
227.74054421768707	227.97274376417235	67	127
227.74054421768707	227.97274376417235	64	127
227.74054421768707	227.90308390022676	48	127
228.28621315192743	228.36748299319729	77	127
228.28621315192743	228.36748299319729	69	127
228.36748299319729	228.43714285714285	76	127
228.36748299319729	228.43714285714285	67	127
228.43714285714285	228.50680272108843	69	127
228.43714285714285	228.50680272108843	77	127
228.50680272108843	228.58807256235826	79	127
228.50680272108843	228.58807256235826	70	127
228.58807256235826	228.7041723356009	77	127
228.58807256235826	228.7041723356009	69	127
228.7041723356009	228.7738321995465	76	127
228.7041723356009	228.7738321995465	67	127
228.7738321995465	228.8318820861678	74	127
228.7738321995465	228.8318820861678	65	127
228.7738321995465	228.8318820861678	69	127
228.8318820861678	228.91315192743764	72	127
228.8318820861678	228.91315192743764	64	127
228.8318820861678	228.91315192743764	67	127
228.91315192743764	228.98281179138323	65	127
228.91315192743764	228.98281179138323	62	127
228.91315192743764	228.98281179138323	70	127
228.98281179138323	229.06408163265306	69	127
228.98281179138323	229.06408163265306	60	127
228.98281179138323	229.06408163265306	64	127
229.06408163265306	229.13374149659865	67	127
229.06408163265306	229.13374149659865	58	127
229.06408163265306	229.13374149659865	62	127
229.13374149659865	229.21501133786848	65	127
229.13374149659865	229.21501133786848	57	127
229.13374149659865	229.21501133786848	60	127
229.21501133786848	229.38916099773243	64	127
229.21501133786848	229.38916099773243	55	127
229.21501133786848	229.38916099773243	58	127
229.458820861678	229.6097505668934	64	127
229.458820861678	229.6097505668934	55	127
229.458820861678	229.6097505668934	58	127
229.69102040816327	229.9	58	127
229.69102040816327	229.9	67	127
229.69102040816327	229.9	64	127
229.69102040816327	229.9	48	127
229.95804988662132	230.12058956916098	48	127
230.19024943310657	230.561768707483	36	127
230.19024943310657	230.44566893424036	70	127
230.19024943310657	230.44566893424036	79	127
230.44566893424036	230.53854875283446	69	127
230.44566893424036	230.53854875283446	78	127
230.53854875283446	230.60820861678005	79	127
230.53854875283446	230.60820861678005	70	127
230.60820861678005	230.67786848072564	81	127
230.60820861678005	230.67786848072564	72	127
230.67786848072564	230.7475283446712	79	127
230.67786848072564	230.7475283446712	70	127
230.7475283446712	230.81718820861678	77	127
230.7475283446712	230.81718820861678	69	127
230.81718820861678	230.88684807256234	76	127
230.81718820861678	230.88684807256234	67	127
230.81718820861678	230.88684807256234	70	127
230.88684807256234	230.95650793650793	69	127
230.88684807256234	230.95650793650793	74	127
230.88684807256234	230.95650793650793	65	127
230.95650793650793	231.02616780045352	64	127
230.95650793650793	231.02616780045352	67	127
230.95650793650793	231.02616780045352	72	127
231.02616780045352	231.09582766439908	70	127
231.02616780045352	231.09582766439908	62	127
231.02616780045352	231.09582766439908	65	127
231.09582766439908	231.16548752834467	69	127
231.09582766439908	231.16548752834467	60	127
231.09582766439908	231.16548752834467	64	127
231.16548752834467	231.223537414966	67	127
231.16548752834467	231.223537414966	58	127
231.16548752834467	231.223537414966	62	127
231.25836734693877	231.39768707482995	65	127
231.25836734693877	231.39768707482995	57	127
231.25836734693877	231.39768707482995	60	127
231.45573696145124	231.61827664399092	65	127
231.45573696145124	231.61827664399092	57	127
231.45573696145124	231.61827664399092	60	127
231.6879365079365	231.88530612244898	65	127
231.6879365079365	231.88530612244898	69	127
231.6879365079365	231.88530612244898	60	127
231.6879365079365	231.88530612244898	53	127
231.9433560090703	232.09428571428572	53	127
232.14072562358277	232.21038548752836	72	127
232.14072562358277	232.29165532879819	41	127
232.21038548752836	232.28004535147392	71	127
232.28004535147392	232.3497052154195	72	127
232.3497052154195	232.4425850340136	74	127
232.3497052154195	232.80249433106576	60	127
232.3497052154195	232.5702947845805	67	127
232.3497052154195	232.5702947845805	52	127
232.4425850340136	232.50063492063492	72	127
232.50063492063492	232.5702947845805	70	127
232.5702947845805	232.80249433106576	60	127
232.5702947845805	232.7560544217687	53	127
232.5702947845805	232.80249433106576	69	127
232.80249433106576	232.90698412698413	77	127
232.80249433106576	232.95342403628118	41	127
232.80249433106576	233.12757369614513	60	127
232.80249433106576	233.12757369614513	69	127
233.13918367346938	233.1972335600907	72	127
233.1972335600907	233.27850340136055	71	127
233.27850340136055	233.3481632653061	72	127
233.3481632653061	233.69646258503403	67	127
233.3481632653061	233.69646258503403	52	127
233.3481632653061	233.90544217687074	60	127
233.3481632653061	233.4874829931973	74	127
233.4874829931973	233.55714285714285	72	127
233.55714285714285	233.69646258503403	70	127
233.69646258503403	233.8590022675737	53	127
233.69646258503403	233.90544217687074	60	127
233.69646258503403	233.90544217687074	69	127
233.90544217687074	234.05637188208615	41	127
233.90544217687074	234.0099319727891	77	127
233.90544217687074	234.11442176870747	69	127
233.90544217687074	234.11442176870747	60	127
234.12603174603174	234.18408163265306	72	127
234.18408163265306	234.25374149659865	71	127
234.25374149659865	234.3234013605442	72	127
234.3234013605442	234.52077097505668	52	127
234.3234013605442	234.3930612244898	74	127
234.3234013605442	234.52077097505668	67	127
234.3234013605442	234.74136054421768	60	127
234.3930612244898	234.45111111111112	72	127
234.45111111111112	234.52077097505668	70	127
234.52077097505668	234.74136054421768	60	127
234.52077097505668	234.74136054421768	69	127
234.52077097505668	234.69492063492063	53	127
234.74136054421768	234.8690702947846	87	127
234.74136054421768	234.91551020408164	72	127
234.74136054421768	234.91551020408164	57	127
234.74136054421768	234.91551020408164	54	127
234.97356009070296	235.240589569161	86	127
234.97356009070296	235.240589569161	70	127
234.97356009070296	235.240589569161	58	127
234.97356009070296	235.240589569161	55	127
235.2986394557823	235.48439909297053	88	127
235.2986394557823	235.48439909297053	70	127
235.2986394557823	235.48439909297053	55	127
235.2986394557823	235.48439909297053	49	127
235.53083900226758	235.69337868480724	89	127
235.53083900226758	235.69337868480724	69	127
235.53083900226758	235.69337868480724	50	127
235.53083900226758	235.69337868480724	53	127
235.75142857142856	235.92557823129252	67	127
235.75142857142856	235.92557823129252	65	127
235.75142857142856	235.92557823129252	62	127
235.75142857142856	235.92557823129252	47	127
235.98362811791384	236.38997732426304	65	127
235.98362811791384	236.2506575963719	69	127
235.98362811791384	236.38997732426304	60	127
235.98362811791384	236.38997732426304	48	127
236.50607709750568	236.81954648526076	55	127
236.50607709750568	236.81954648526076	64	127
236.50607709750568	236.97047619047618	58	127
236.50607709750568	236.97047619047618	48	127
236.50607709750568	236.97047619047618	36	127
237.08657596371881	237.66707482993198	57	127
237.08657596371881	237.66707482993198	65	127
237.08657596371881	237.66707482993198	53	127
237.08657596371881	237.66707482993198	41	127
238.11986394557823	238.2243537414966	57	127
238.2243537414966	238.34045351473924	60	127
238.34045351473924	238.4449433106576	67	127
238.4449433106576	238.5378231292517	65	127
238.5378231292517	238.65392290249434	57	127
238.5378231292517	238.65392290249434	60	127
238.65392290249434	238.78163265306122	60	127
238.65392290249434	238.78163265306122	65	127
238.78163265306122	238.8861224489796	70	127
238.78163265306122	238.8861224489796	67	127
238.8861224489796	239.0138321995465	69	127
238.8861224489796	239.0138321995465	65	127
239.0138321995465	239.50145124716553	67	127
239.0138321995465	239.16476190476192	59	127
239.0138321995465	239.50145124716553	64	127
239.16476190476192	239.2924716553288	60	127
239.2924716553288	239.40857142857143	59	127
239.40857142857143	239.50145124716553	60	127
239.50145124716553	239.6059410430839	59	127
239.6059410430839	239.75687074829932	60	127
239.75687074829932	239.84975056689342	55	127
239.84975056689342	239.94263038548752	52	127
239.9542403628118	240.15160997732426	60	127
239.9542403628118	240.46507936507936	48	127
240.15160997732426	240.25609977324262	64	127
240.25609977324262	240.360589569161	69	127
240.360589569161	240.46507936507936	67	127
240.46507936507936	240.56956916099773	64	127
240.46507936507936	240.56956916099773	60	127
240.56956916099773	240.6740589569161	67	127
240.56956916099773	240.6740589569161	64	127
240.6740589569161	240.79015873015874	72	127
240.6740589569161	240.79015873015874	69	127
240.79015873015874	240.90625850340135	70	127
240.79015873015874	240.90625850340135	67	127
240.91786848072562	241.40548752834468	65	127
240.91786848072562	241.0571882086168	52	127
240.91786848072562	241.40548752834468	69	127
241.0571882086168	241.19650793650794	53	127
241.19650793650794	241.3009977324263	52	127
241.3009977324263	241.40548752834468	53	127
241.40548752834468	241.53319727891156	52	127
241.53319727891156	241.63768707482993	53	127
241.63768707482993	241.7421768707483	48	127
241.7421768707483	241.8350566893424	45	127
241.84666666666666	241.9859863945578	60	127
241.84666666666666	242.29945578231292	41	127
241.9859863945578	242.09047619047618	65	127
242.09047619047618	242.20657596371882	70	127
242.20657596371882	242.29945578231292	69	127
242.29945578231292	242.4039455782313	65	127
242.4039455782313	242.50843537414966	69	127
242.50843537414966	242.63614512471656	74	127
242.63614512471656	242.74063492063493	72	127
242.74063492063493	242.83351473922903	69	127
242.83351473922903	242.9380045351474	72	127
242.9380045351474	243.04249433106577	79	127
243.04249433106577	243.14698412698414	77	127
243.14698412698414	243.2514739229025	72	127
243.2514739229025	243.3443537414966	77	127
243.3443537414966	243.80875283446713	60	127
243.3443537414966	243.44884353741497	82	127
243.44884353741497	243.55333333333334	81	127
243.55333333333334	243.77392290249432	79	127
243.55333333333334	243.82036281179137	67	127
243.55333333333334	243.82036281179137	52	127
243.77392290249432	243.8784126984127	77	127
243.8784126984127	244.04095238095238	64	127
243.8784126984127	243.97129251700682	76	127
243.8784126984127	244.04095238095238	60	127
243.8784126984127	244.04095238095238	48	127
243.97129251700682	244.08739229024943	74	127
244.08739229024943	244.21510204081633	72	127
244.08739229024943	244.26154195011338	67	127
244.08739229024943	244.26154195011338	60	127
244.08739229024943	244.26154195011338	52	127
244.21510204081633	244.33120181405894	73	127
244.33120181405894	244.5053514739229	48	127
244.33120181405894	244.4356916099773	74	127
244.33120181405894	244.5053514739229	64	127
244.33120181405894	244.5053514739229	60	127
244.4356916099773	244.56340136054422	67	127
244.56340136054422	244.7259410430839	53	127
244.56340136054422	245.14390022675738	70	127
244.56340136054422	245.14390022675738	67	127
244.56340136054422	245.3877097505669	60	127
244.79560090702947	245.0742403628118	41	127
245.15551020408162	245.32965986394558	69	127
245.15551020408162	245.32965986394558	65	127
245.15551020408162	245.32965986394558	53	127
245.3877097505669	245.5734693877551	69	127
245.3877097505669	245.5734693877551	69	127
245.3877097505669	245.5734693877551	57	127
245.64312925170069	246.4790476190476	57	127
245.64312925170069	246.4790476190476	57	127
245.64312925170069	246.4790476190476	45	127
246.4790476190476	246.56031746031746	57	127
246.4790476190476	246.56031746031746	57	127
246.4790476190476	246.56031746031746	45	127
246.56031746031746	246.6415873015873	59	127
246.56031746031746	246.6415873015873	59	127
246.56031746031746	246.6415873015873	47	127
246.6415873015873	246.71124716553288	61	127
246.6415873015873	246.71124716553288	61	127
246.6415873015873	246.71124716553288	49	127
246.72285714285715	246.90861678004535	62	127
246.72285714285715	246.90861678004535	62	127
246.72285714285715	246.90861678004535	50	127
246.96666666666667	247.12920634920636	64	127
246.96666666666667	247.12920634920636	52	127
246.96666666666667	247.12920634920636	52	127
247.1756462585034	247.3381859410431	65	127
247.1756462585034	247.3381859410431	53	127
247.1756462585034	247.3381859410431	53	127
247.38462585034014	247.57038548752834	67	127
247.38462585034014	247.57038548752834	55	127
247.38462585034014	247.57038548752834	55	127
247.6168253968254	247.7677551020408	69	127
247.6168253968254	247.7677551020408	57	127
247.6168253968254	247.7677551020408	57	127
247.82580498866213	247.97673469387755	71	127
247.82580498866213	247.97673469387755	59	127
247.82580498866213	247.97673469387755	59	127
248.0231746031746	248.19732426303855	72	127
248.0231746031746	248.19732426303855	60	127
248.0231746031746	248.19732426303855	60	127
248.2437641723356	248.41791383219956	73	127
248.2437641723356	248.41791383219956	61	127
248.2437641723356	248.41791383219956	61	127
248.47596371882085	248.7197732426304	74	127
248.47596371882085	248.7197732426304	62	127
248.47596371882085	248.7197732426304	62	127
248.77782312925171	248.91714285714286	76	127
248.77782312925171	248.91714285714286	64	127
248.77782312925171	248.91714285714286	64	127
248.92875283446713	248.97519274376418	74	127
248.92875283446713	248.97519274376418	62	127
248.92875283446713	248.97519274376418	62	127
248.97519274376418	249.02163265306123	76	127
248.97519274376418	249.02163265306123	64	127
248.97519274376418	249.02163265306123	64	127
249.02163265306123	249.63696145124717	77	127
249.02163265306123	249.63696145124717	65	127
249.02163265306123	249.63696145124717	65	127
249.64857142857142	249.96204081632652	76	127
249.64857142857142	249.96204081632652	64	127
249.64857142857142	249.96204081632652	64	127
249.96204081632652	250.0317006802721	74	127
249.96204081632652	250.0317006802721	62	127
249.96204081632652	250.0317006802721	62	127
250.0317006802721	250.08975056689343	76	127
250.0317006802721	250.08975056689343	64	127
250.0317006802721	250.08975056689343	64	127
250.08975056689343	250.159410430839	74	127
250.08975056689343	250.159410430839	62	127
250.08975056689343	250.159410430839	62	127
250.159410430839	250.35678004535148	72	127
250.159410430839	250.35678004535148	60	127
250.159410430839	250.35678004535148	60	127
250.35678004535148	250.43804988662131	70	127
250.35678004535148	250.43804988662131	58	127
250.35678004535148	250.43804988662131	58	127
250.43804988662131	250.5077097505669	72	127
250.43804988662131	250.5077097505669	60	127
250.43804988662131	250.5077097505669	60	127
250.5077097505669	250.57736961451246	70	127
250.5077097505669	250.57736961451246	58	127
250.5077097505669	250.57736961451246	58	127
250.57736961451246	250.8792290249433	69	127
250.57736961451246	250.8792290249433	57	127
250.57736961451246	250.8792290249433	57	127
250.8792290249433	250.96049886621316	67	127
250.8792290249433	250.96049886621316	55	127
250.8792290249433	250.96049886621316	55	127
250.96049886621316	251.05337868480726	69	127
250.96049886621316	251.05337868480726	57	127
250.96049886621316	251.05337868480726	57	127
251.05337868480726	251.1346485260771	67	127
251.05337868480726	251.1346485260771	55	127
251.05337868480726	251.1346485260771	55	127
251.1346485260771	251.39006802721087	65	127
251.1346485260771	251.39006802721087	53	127
251.1346485260771	251.39006802721087	53	127
251.4132879818594	251.5758276643991	64	127
251.4132879818594	251.5758276643991	52	127
251.4132879818594	251.5758276643991	52	127
251.64548752834466	251.78480725623584	65	127
251.64548752834466	251.78480725623584	53	127
251.64548752834466	251.78480725623584	53	127
251.8544671201814	252.00539682539682	63	127
251.8544671201814	252.00539682539682	51	127
251.8544671201814	252.00539682539682	51	127
252.06344671201813	252.24920634920636	60	127
252.06344671201813	252.24920634920636	48	127
252.06344671201813	252.24920634920636	48	127
252.31886621315192	252.43496598639456	58	127
252.31886621315192	252.53945578231293	58	127
252.31886621315192	252.53945578231293	46	127
252.31886621315192	252.53945578231293	46	127
252.43496598639456	252.53945578231293	62	127
252.53945578231293	252.6439455782313	65	127
252.6439455782313	252.74843537414966	63	127
252.74843537414966	252.85292517006803	62	127
252.74843537414966	252.85292517006803	58	127
252.85292517006803	252.99224489795918	65	127
252.85292517006803	252.99224489795918	62	127
252.99224489795918	253.1199546485261	65	127
252.99224489795918	253.1199546485261	74	127
253.1199546485261	253.24766439909297	70	127
253.1199546485261	253.24766439909297	62	127
253.24766439909297	253.6772335600907	60	127
253.24766439909297	253.35215419501134	52	127
253.24766439909297	253.6772335600907	69	127
253.35215419501134	253.46825396825398	53	127
253.46825396825398	253.58435374149659	52	127
253.58435374149659	253.68884353741495	53	127
253.68884353741495	253.8049433106576	52	127
253.8049433106576	253.92104308390023	53	127
253.92104308390023	254.03714285714287	48	127
254.03714285714287	254.14163265306124	45	127
254.14163265306124	254.58281179138322	41	127
254.14163265306124	254.26934240362812	53	127
254.26934240362812	254.37383219954648	57	127
254.37383219954648	254.48993197278912	60	127
254.48993197278912	254.5944217687075	58	127
254.5944217687075	254.69891156462586	57	127
254.69891156462586	254.8730612244898	60	127
254.69891156462586	254.8730612244898	57	127
254.8730612244898	255.01238095238097	65	127
254.8730612244898	255.01238095238097	62	127
255.01238095238097	255.1168707482993	60	127
255.01238095238097	255.1168707482993	63	127
255.1168707482993	255.54643990929705	62	127
255.1168707482993	255.2445804988662	57	127
255.1168707482993	255.54643990929705	58	127
255.2445804988662	255.34907029478458	58	127
255.34907029478458	255.45356009070295	57	127
255.45356009070295	255.54643990929705	58	127
255.54643990929705	255.65092970521542	57	127
255.65092970521542	255.77863945578233	58	127
255.77863945578233	255.89473922902494	53	127
255.89473922902494	256.0340589569161	50	127
256.0340589569161	256.15015873015875	55	127
256.0340589569161	256.4520181405896	46	127
256.15015873015875	256.2546485260771	58	127
256.2546485260771	256.3475283446712	62	127
256.3475283446712	256.4520181405896	60	127
256.4520181405896	256.5797052154195	55	127
256.4520181405896	256.5797052154195	58	127
256.5797052154195	256.6958276643991	62	127
256.5797052154195	256.6958276643991	58	127
256.6958276643991	256.8467573696145	70	127
256.6958276643991	256.8467573696145	62	127
256.8467573696145	256.9860544217687	67	127
256.8467573696145	256.9860544217687	58	127
256.9860544217687	257.4156462585034	57	127
256.9860544217687	257.1021768707483	85	127
256.9860544217687	257.4156462585034	66	127
257.1021768707483	257.20666666666665	86	127
257.20666666666665	257.2995238095238	85	127
257.2995238095238	257.4156462585034	86	127
257.4156462585034	257.52013605442176	85	127
257.52013605442176	257.61301587301585	86	127
257.61301587301585	257.7175056689342	81	127
257.7175056689342	257.8219954648526	78	127
257.8219954648526	257.96131519274377	62	127
257.8219954648526	258.2980045351474	74	127
257.96131519274377	258.0890249433107	66	127
258.0890249433107	258.19351473922904	69	127
258.19351473922904	258.2980045351474	67	127
258.2980045351474	258.4024943310658	66	127
258.2980045351474	258.4024943310658	50	127
258.4024943310658	258.53020408163263	69	127
258.4024943310658	258.53020408163263	54	127
258.53020408163263	258.634693877551	74	127
258.53020408163263	258.634693877551	58	127
258.634693877551	258.7624036281179	72	127
258.634693877551	258.7624036281179	57	127
258.7624036281179	258.91333333333336	43	127
258.7624036281179	259.00621315192745	55	127
258.8668934240363	259.00621315192745	62	127
259.00621315192745	259.1107029478458	72	127
259.00621315192745	259.1687528344671	55	127
259.00621315192745	259.2151927437642	62	127
259.1107029478458	259.22680272108846	70	127
259.22680272108846	259.41256235827666	41	127
259.3661224489796	259.5286621315193	62	127
259.5286621315193	259.65637188208615	72	127
259.5286621315193	259.7144217687075	53	127
259.5286621315193	259.7608616780045	62	127
259.65637188208615	259.7724716553288	71	127
259.7724716553288	259.91179138321996	40	127
259.8653514739229	259.96984126984125	67	127
259.96984126984125	260.0743310657596	74	127
259.96984126984125	260.13238095238097	52	127
259.96984126984125	260.178820861678	55	127
260.0743310657596	260.19043083900226	72	127
260.19043083900226	260.3878004535147	36	127
260.31814058956917	260.45746031746035	64	127
260.45746031746035	260.5619274376417	72	127
260.45746031746035	260.62	48	127
260.45746031746035	260.6780498866213	67	127
260.5619274376417	260.6780498866213	70	127
260.6780498866213	260.91024943310657	41	127
260.6780498866213	260.9682993197279	60	127
260.86380952380955	260.9682993197279	69	127
260.9682993197279	261.08437641723356	74	127
260.9682993197279	261.1308390022676	53	127
261.08437641723356	261.17725623582766	72	127
261.17725623582766	261.32820861678005	40	127
261.17725623582766	261.58360544217686	55	127
261.17725623582766	262.2221768707483	84	127
261.281746031746	261.3862358276644	67	127
261.3862358276644	261.5371882086168	52	127
261.3862358276644	261.49072562358276	74	127
261.49072562358276	261.58360544217686	72	127
261.58360544217686	261.8042176870748	38	127
261.58360544217686	262.2221768707483	57	127
261.68809523809523	261.9783673469388	69	127
261.9783673469388	262.164126984127	50	127
261.9783673469388	262.08285714285716	79	127
262.08285714285716	262.2221768707483	77	127
262.2221768707483	262.64013605442176	83	127
262.2221768707483	262.64013605442176	55	127
262.2221768707483	262.37310657596373	43	127
262.32666666666665	262.431156462585	65	127
262.431156462585	262.5356462585034	76	127
262.431156462585	262.58208616780047	55	127
262.5356462585034	262.64013605442176	74	127
262.64013605442176	264.76473922902494	55	127
262.64013605442176	262.8375056689342	72	127
262.64013605442176	262.8375056689342	48	127
262.64013605442176	262.8375056689342	64	127
262.64013605442176	263.3483446712018	84	127
262.64013605442176	263.5689342403628	52	127
262.8491156462585	263.13936507936506	43	127
263.13936507936506	263.3483446712018	47	127
263.35995464852607	263.40639455782315	86	127
263.35995464852607	263.5689342403628	48	127
263.40639455782315	263.45283446712017	84	127
263.45283446712017	263.5224943310658	83	127
263.5224943310658	263.5689342403628	81	127
263.5689342403628	264.5093424036281	53	127
263.5689342403628	263.7314512471655	79	127
263.5689342403628	263.77791383219954	50	127
263.77791383219954	264.05655328798184	43	127
263.77791383219954	263.9868934240363	79	127
263.77791383219954	263.9868934240363	67	127
264.05655328798184	264.2074829931973	79	127
264.05655328798184	264.2074829931973	67	127
264.05655328798184	264.25390022675737	49	127
264.25390022675737	264.46290249433105	79	127
264.25390022675737	264.46290249433105	67	127
264.25390022675737	264.5093424036281	50	127
264.5209523809524	264.76473922902494	52	127
264.5209523809524	264.99696145124716	79	127
264.5209523809524	265.21755102040817	72	127
264.76473922902494	264.99696145124716	43	127
264.76473922902494	264.99696145124716	55	127
265.00857142857143	265.21755102040817	59	127
265.00857142857143	265.21755102040817	50	127
265.21755102040817	265.472947845805	52	127
265.21755102040817	265.31043083900227	74	127
265.21755102040817	265.472947845805	60	127
265.31043083900227	265.3800907029478	72	127
265.3800907029478	265.4265306122449	71	127
265.4265306122449	265.4845804988662	69	127
265.4845804988662	265.67034013605445	62	127
265.4845804988662	265.6122902494331	67	127
265.4845804988662	265.67034013605445	53	127
265.67034013605445	265.82126984126984	79	127
265.67034013605445	265.82126984126984	67	127
265.67034013605445	265.8677097505669	55	127
265.67034013605445	265.8677097505669	43	127
265.8792970521542	266.0302494331066	79	127
265.8792970521542	266.0302494331066	67	127
265.8792970521542	266.0882766439909	60	127
265.8792970521542	266.0882766439909	45	127
266.0882766439909	266.26244897959185	79	127
266.0882766439909	266.26244897959185	67	127
266.0882766439909	266.3088888888889	62	127
266.0882766439909	266.3088888888889	47	127
266.3088888888889	266.57591836734696	67	127
266.3088888888889	266.41337868480724	86	127
266.3088888888889	266.57591836734696	64	127
266.3088888888889	266.57591836734696	48	127
266.41337868480724	266.57591836734696	84	127
266.57591836734696	266.6804081632653	83	127
266.57591836734696	266.79650793650796	55	127
266.57591836734696	266.79650793650796	43	127
266.6804081632653	266.79650793650796	84	127
266.79650793650796	266.90097505668933	86	127
266.79650793650796	267.0054648526077	62	127
266.79650793650796	267.0054648526077	47	127
266.90097505668933	267.0054648526077	84	127
267.0054648526077	267.10995464852607	83	127
267.0054648526077	267.20285714285717	64	127
267.0054648526077	267.20285714285717	48	127
267.10995464852607	267.20285714285717	81	127
267.20285714285717	267.4350566893424	65	127
267.20285714285717	267.38861678004537	79	127
267.20285714285717	267.4350566893424	50	127
267.44666666666666	267.62079365079364	79	127
267.44666666666666	267.62079365079364	67	127
267.44666666666666	267.6904761904762	55	127
267.44666666666666	267.6904761904762	43	127
267.6904761904762	267.86462585034013	79	127
267.6904761904762	267.86462585034013	67	127
267.6904761904762	267.9110657596372	64	127
267.6904761904762	267.9110657596372	48	127
267.9226530612245	268.0968253968254	79	127
267.9226530612245	268.0968253968254	67	127
267.9226530612245	268.17809523809524	65	127
267.9226530612245	268.17809523809524	50	127
268.17809523809524	268.30580498866215	74	127
268.17809523809524	268.39868480725625	67	127
268.17809523809524	268.39868480725625	52	127
268.17809523809524	268.61927437641725	79	127
268.30580498866215	268.4102947845805	72	127
268.4102947845805	268.61927437641725	48	127
268.4102947845805	268.5147845804989	71	127
268.4102947845805	268.828253968254	64	127
268.5147845804989	268.61927437641725	72	127
268.61927437641725	268.828253968254	52	127
268.61927437641725	268.7353741496599	74	127
268.7353741496599	268.83986394557826	72	127
268.83986394557826	268.9443310657596	70	127
268.83986394557826	269.24621315192746	64	127
268.83986394557826	269.0372335600907	55	127
268.9443310657596	269.0372335600907	69	127
269.0372335600907	269.24621315192746	60	127
269.0372335600907	269.24621315192746	70	127
269.24621315192746	269.4203628117914	72	127
269.24621315192746	269.4203628117914	58	127
269.24621315192746	269.4784126984127	52	127
269.24621315192746	269.4784126984127	36	127
269.4784126984127	269.6409523809524	72	127
269.4784126984127	269.6409523809524	58	127
269.4784126984127	269.6873922902494	53	127
269.4784126984127	269.6873922902494	38	127
269.6990022675737	269.93120181405897	40	127
269.6990022675737	269.8615419501134	72	127
269.6990022675737	269.8615419501134	58	127
269.6990022675737	269.93120181405897	55	127
269.94281179138324	270.16340136054424	41	127
269.94281179138324	270.38396825396825	57	127
269.94281179138324	270.6045804988662	77	127
269.94281179138324	270.84839002267574	57	127
269.94281179138324	271.97455782312926	48	127
270.1749886621315	270.38396825396825	36	127
270.38396825396825	270.6045804988662	40	127
270.6045804988662	270.6742403628118	79	127
270.6045804988662	270.84839002267574	41	127
270.6742403628118	270.7322902494331	77	127
270.7322902494331	270.79031746031745	76	127
270.79031746031745	270.86	74	127
270.86	271.71913832199544	58	127
270.86	271.03414965986394	72	127
270.86	271.080589569161	43	127
271.080589569161	271.301156462585	36	127
271.080589569161	271.2431292517007	60	127
271.080589569161	271.2431292517007	72	127
271.301156462585	271.44049886621315	72	127
271.301156462585	271.44049886621315	60	127
271.301156462585	271.4869387755102	42	127
271.4985487528345	271.66108843537415	60	127
271.4985487528345	271.66108843537415	72	127
271.4985487528345	271.71913832199544	43	127
271.7307482993197	271.97455782312926	45	127
271.7307482993197	272.39251700680273	65	127
271.7307482993197	271.97455782312926	60	127
271.7307482993197	272.19514739229027	72	127
271.97455782312926	272.19514739229027	36	127
271.97455782312926	272.19514739229027	48	127
272.19514739229027	272.39251700680273	52	127
272.19514739229027	272.39251700680273	43	127
272.404126984127	272.450566893424	67	127
272.404126984127	272.60149659863947	53	127
272.404126984127	272.60149659863947	45	127
272.450566893424	272.4970068027211	65	127
272.4970068027211	272.5550566893424	64	127
272.5550566893424	272.60149659863947	62	127
272.60149659863947	272.8220861678005	55	127
272.60149659863947	272.8220861678005	46	127
272.60149659863947	272.76403628117913	60	127
272.8220861678005	273.01945578231295	48	127
272.8220861678005	272.97301587301587	72	127
272.8220861678005	272.97301587301587	60	127
272.8220861678005	273.01945578231295	36	127
273.0310657596372	273.17038548752834	72	127
273.0310657596372	273.17038548752834	60	127
273.0310657596372	273.2284353741497	53	127
273.0310657596372	273.2284353741497	38	127
273.2284353741497	273.4374149659864	72	127
273.2284353741497	273.4374149659864	60	127
273.2284353741497	273.4954648526077	55	127
273.2284353741497	273.4954648526077	40	127
273.4954648526077	273.6347845804989	79	127
273.4954648526077	273.727664399093	57	127
273.4954648526077	273.727664399093	41	127
273.4954648526077	273.9714739229025	60	127
273.6347845804989	273.73927437641726	77	127
273.73927437641726	273.8785941043084	76	127
273.73927437641726	273.9714739229025	48	127
273.73927437641726	273.9714739229025	36	127
273.8785941043084	273.994693877551	77	127
273.994693877551	274.1920634920635	55	127
273.994693877551	274.0875736961451	79	127
273.994693877551	274.1920634920635	40	127
274.0875736961451	274.1920634920635	77	127
274.1920634920635	274.4010430839002	57	127
274.1920634920635	274.29655328798185	76	127
274.1920634920635	274.4010430839002	41	127
274.29655328798185	274.4010430839002	74	127
274.4010430839002	274.5751700680272	72	127
274.4010430839002	274.64485260770977	58	127
274.4010430839002	274.64485260770977	43	127
274.65646258503403	274.8538321995465	48	127
274.65646258503403	274.8073922902494	72	127
274.65646258503403	274.8073922902494	60	127
274.65646258503403	274.8538321995465	36	127
274.8538321995465	275.01637188208616	72	127
274.8538321995465	275.01637188208616	60	127
274.8538321995465	275.0744217687075	57	127
274.8538321995465	275.0744217687075	41	127
275.0744217687075	275.24857142857144	72	127
275.0744217687075	275.24857142857144	60	127
275.0744217687075	275.2949886621315	58	127
275.0744217687075	275.2949886621315	43	127
275.30662131519273	275.4111111111111	67	127
275.30662131519273	275.538820861678	60	127
275.30662131519273	275.538820861678	45	127
275.30662131519273	275.759410430839	72	127
275.4111111111111	275.538820861678	65	127
275.538820861678	275.759410430839	48	127
275.538820861678	275.759410430839	36	127
275.538820861678	275.6433106575964	64	127
275.6433106575964	275.759410430839	65	127
275.759410430839	275.8639002267574	67	127
275.759410430839	275.9567800453515	52	127
275.759410430839	275.9567800453515	43	127
275.8639002267574	275.96839002267575	65	127
275.96839002267575	276.0728798185941	64	127
275.96839002267575	276.2121768707483	53	127
275.96839002267575	276.2121768707483	45	127
276.0728798185941	276.2238095238095	62	127
276.2238095238095	276.421179138322	60	127
276.2238095238095	276.421179138322	55	127
276.2238095238095	276.421179138322	46	127
276.421179138322	276.59532879818596	70	127
276.421179138322	276.59532879818596	84	127
276.421179138322	276.65337868480725	52	127
276.421179138322	276.65337868480725	36	127
276.65337868480725	276.87396825396826	38	127
276.65337868480725	276.81591836734697	84	127
276.65337868480725	276.81591836734697	70	127
276.65337868480725	276.87396825396826	53	127
276.8855782312925	277.09455782312926	55	127
276.8855782312925	277.0365079365079	84	127
276.8855782312925	277.0365079365079	70	127
276.8855782312925	277.09455782312926	40	127
277.09455782312926	277.3964172335601	41	127
277.09455782312926	277.2687074829932	86	127
277.09455782312926	277.3964172335601	69	127
277.09455782312926	277.3964172335601	57	127
277.2687074829932	277.3964172335601	84	127
277.3964172335601	277.524126984127	83	127
277.524126984127	277.64020408163265	84	127
277.64020408163265	277.744693877551	86	127
277.744693877551	277.8375963718821	84	127
277.8375963718821	278.04655328798185	64	127
277.8375963718821	277.9420634920635	82	127
277.8375963718821	278.2439455782313	72	127
277.9420634920635	278.04655328798185	79	127
278.04655328798185	278.1510430839002	82	127
278.04655328798185	278.2439455782313	65	127
278.1510430839002	278.2555328798186	81	127
278.2555328798186	278.36002267573696	80	127
278.36002267573696	278.47614512471654	81	127
278.47614512471654	278.5806349206349	82	127
278.5806349206349	278.69673469387754	81	127
278.69673469387754	278.8012244897959	79	127
278.69673469387754	278.9057142857143	60	127
278.69673469387754	279.10308390022675	69	127
278.8012244897959	278.9057142857143	76	127
278.9057142857143	279.10308390022675	62	127
278.9057142857143	279.01020408163265	79	127
279.01020408163265	279.114693877551	77	127
279.114693877551	279.2075736961451	76	127
279.2075736961451	279.3120634920635	77	127
279.3120634920635	279.41655328798186	79	127
279.41655328798186	279.5326530612245	77	127
279.5326530612245	279.73002267573696	57	127
279.5326530612245	279.63714285714286	75	127
279.5326530612245	279.9390022675737	65	127
279.63714285714286	279.74163265306123	72	127
279.74163265306123	279.8461224489796	73	127
279.74163265306123	279.9390022675737	58	127
279.8461224489796	279.9390022675737	74	127
279.9390022675737	280.04349206349207	75	127
280.04349206349207	280.14798185941044	76	127
280.14798185941044	280.2524716553288	77	127
280.2524716553288	280.3569614512472	78	127
280.3569614512472	280.46145124716554	79	127
280.46145124716554	280.58916099773245	80	127
280.58916099773245	280.80972789115646	58	127
280.58916099773245	280.6936507936508	81	127
280.6936507936508	280.80972789115646	82	127
280.80972789115646	281.0303401360544	65	127
280.80972789115646	280.9142176870748	83	127
280.80972789115646	281.0303401360544	74	127
280.9142176870748	281.0303401360544	84	127
281.0303401360544	281.27414965986395	58	127
281.0303401360544	281.1580498866213	85	127
281.1580498866213	281.2857596371882	86	127
281.2857596371882	281.49473922902496	70	127
281.2857596371882	281.3786394557823	82	127
281.2857596371882	281.49473922902496	74	127
281.3786394557823	281.49473922902496	79	127
281.49473922902496	281.77337868480726	60	127
281.49473922902496	281.62242630385487	79	127
281.62242630385487	281.73854875283445	77	127
281.77337868480726	281.982358276644	72	127
281.77337868480726	281.8430385487528	77	127
281.77337868480726	281.982358276644	69	127
281.8894784580499	281.95913832199545	77	127
281.99396825396826	282.202947845805	48	127
281.99396825396826	282.09845804988663	77	127
282.09845804988663	282.17972789115646	76	127
282.202947845805	282.44673469387754	70	127
282.202947845805	282.2958276643991	76	127
282.202947845805	282.44673469387754	67	127
282.31904761904764	282.41192743764174	76	127
282.44673469387754	282.5512244897959	74	127
282.5512244897959	282.6557142857143	72	127
282.6557142857143	282.7602267573696	71	127
282.7602267573696	282.85308390022675	72	127
282.85308390022675	283.0272562358277	74	127
283.0272562358277	283.13174603174605	72	127
283.13174603174605	283.5497052154195	84	127
283.13174603174605	283.2362358276644	70	127
283.13174603174605	283.3291156462585	52	127
283.2362358276644	283.3407256235828	67	127
283.3407256235828	283.5497052154195	53	127
283.3407256235828	283.44521541950115	70	127
283.44521541950115	283.5613151927438	69	127
283.5613151927438	283.7702721088435	60	127
283.5613151927438	283.66580498866216	68	127
283.5613151927438	283.7702721088435	89	127
283.66580498866216	283.7702721088435	69	127
283.7702721088435	283.9908843537415	65	127
283.7702721088435	283.8747619047619	70	127
283.8747619047619	283.9908843537415	69	127
283.9908843537415	284.09537414965985	67	127
283.9908843537415	284.1998639455782	81	127
283.9908843537415	284.1998639455782	49	127
284.09537414965985	284.2114739229025	64	127
284.2114739229025	284.7803628117914	65	127
284.2114739229025	284.3391836734694	91	127
284.2114739229025	284.4668934240363	50	127
284.3391836734694	284.4668934240363	89	127
284.4668934240363	284.7803628117914	57	127
284.4668934240363	284.67587301587304	88	127
284.67587301587304	284.7803628117914	89	127
284.7803628117914	284.9777324263039	62	127
284.7803628117914	284.8848526077098	91	127
284.8848526077098	284.98934240362814	89	127
284.98934240362814	285.39569160997735	65	127
284.98934240362814	285.0938321995465	87	127
284.98934240362814	285.1867120181406	45	127
285.0938321995465	285.1867120181406	84	127
285.1867120181406	285.39569160997735	46	127
285.1867120181406	285.291201814059	87	127
285.291201814059	285.39569160997735	86	127
285.39569160997735	285.5930612244898	53	127
285.39569160997735	285.5001814058957	85	127
285.5001814058957	285.6046712018141	86	127
285.6046712018141	285.8484807256236	58	127
285.6046712018141	285.7439909297052	87	127
285.7439909297052	285.86009070294784	86	127
285.86009070294784	286.33607709750567	62	127
285.86009070294784	285.95297052154194	84	127
285.86009070294784	286.08068027210885	42	127
285.86009070294784	286.33607709750567	50	127
285.95297052154194	286.08068027210885	81	127
286.08068027210885	286.33607709750567	43	127
286.08068027210885	286.22	84	127
286.22	286.33607709750567	82	127
286.33607709750567	286.4986394557823	74	127
286.33607709750567	286.45219954648525	86	127
286.33607709750567	286.4986394557823	58	127
286.45219954648525	286.5566893424036	84	127
286.5566893424036	286.6495691609977	82	127
286.5566893424036	286.70761904761906	74	127
286.5566893424036	286.70761904761906	58	127
286.6495691609977	286.7540589569161	81	127
286.7540589569161	286.90498866213153	58	127
286.7540589569161	286.85854875283445	79	127
286.7540589569161	286.90498866213153	74	127
286.85854875283445	286.9630385487528	77	127
286.9630385487528	287.39260770975056	74	127
286.9630385487528	287.0675283446712	76	127
286.9630385487528	287.1604081632653	36	127
286.9630385487528	287.39260770975056	58	127
287.0675283446712	287.17201814058956	77	127
287.17201814058956	287.39260770975056	48	127
287.17201814058956	287.2765079365079	79	127
287.2765079365079	287.39260770975056	81	127
287.39260770975056	287.61319727891157	57	127
287.39260770975056	287.5087074829932	82	127
287.39260770975056	287.61319727891157	72	127
287.39260770975056	287.61319727891157	48	127
287.5087074829932	287.61319727891157	84	127
287.61319727891157	287.8570068027211	55	127
287.61319727891157	287.7292970521542	86	127
287.61319727891157	287.8570068027211	70	127
287.61319727891157	287.8570068027211	48	127
287.7292970521542	287.8570068027211	88	127
287.8570068027211	288.06596371882085	41	127
287.8570068027211	287.93827664399095	89	127
287.8570068027211	288.06596371882085	69	127
287.8570068027211	288.06596371882085	53	127
287.97308390022675	288.1008163265306	84	127
288.1008163265306	288.2981859410431	65	127
288.1008163265306	289.1457142857143	72	127
288.1008163265306	288.1936961451247	93	127
288.1936961451247	288.2981859410431	89	127
288.2981859410431	288.49555555555554	67	127
288.2981859410431	288.40267573696144	89	127
288.40267573696144	288.5071655328798	88	127
288.5071655328798	288.93673469387755	60	127
288.5071655328798	288.6000453514739	86	127
288.5071655328798	288.93673469387755	70	127
288.6000453514739	288.93673469387755	88	127
288.93673469387755	289.1457142857143	69	127
288.93673469387755	289.0063945578231	89	127
288.93673469387755	289.1457142857143	65	127
289.0412244897959	289.15732426303856	84	127
289.15732426303856	289.35469387755103	65	127
289.15732426303856	289.9584126984127	72	127
289.15732426303856	289.25020408163266	93	127
289.25020408163266	289.35469387755103	89	127
289.35469387755103	289.5520634920635	67	127
289.35469387755103	289.4591836734694	89	127
289.4591836734694	289.5520634920635	88	127
289.5520634920635	289.76104308390023	60	127
289.5520634920635	289.65655328798186	86	127
289.5520634920635	289.76104308390023	70	127
289.65655328798186	289.76104308390023	88	127
289.76104308390023	289.9584126984127	69	127
289.76104308390023	289.8655328798186	89	127
289.76104308390023	289.9584126984127	65	127
289.8655328798186	289.9584126984127	93	127
289.9584126984127	290.16739229024944	69	127
289.9584126984127	290.16739229024944	72	127
289.9584126984127	290.16739229024944	65	127
289.9584126984127	290.06290249433107	84	127
290.06290249433107	290.16739229024944	89	127
290.16739229024944	290.2718820861678	86	127
290.16739229024944	290.44603174603174	74	127
290.16739229024944	290.44603174603174	70	127
290.2718820861678	290.44603174603174	89	127
290.44603174603174	290.6434013605442	58	127
290.44603174603174	290.5505215419501	82	127
290.44603174603174	290.6434013605442	70	127
290.44603174603174	290.6434013605442	67	127
290.5505215419501	290.6550113378685	86	127
290.6550113378685	290.85238095238094	69	127
290.6550113378685	290.85238095238094	60	127
290.6550113378685	290.75950113378684	81	127
290.75950113378684	290.85238095238094	84	127
290.85238095238094	291.0497505668934	57	127
290.85238095238094	291.0497505668934	60	127
290.85238095238094	290.9568707482993	77	127
290.85238095238094	291.0497505668934	65	127
290.9568707482993	291.0613605442177	81	127
291.0613605442177	291.25873015873015	67	127
291.0613605442177	291.25873015873015	58	127
291.0613605442177	291.1542403628118	79	127
291.1542403628118	291.25873015873015	82	127
291.25873015873015	291.4560997732426	55	127
291.25873015873015	291.4560997732426	48	127
291.25873015873015	291.3632199546485	76	127
291.25873015873015	291.4560997732426	64	127
291.3632199546485	291.4677097505669	79	127
291.4677097505669	291.6882993197279	79	127
291.4677097505669	291.54895691609977	65	127
291.4677097505669	291.54895691609977	56	127
291.57219954648525	291.6882993197279	72	127
291.57219954648525	291.6882993197279	60	127
291.6882993197279	292.01337868480726	53	127
291.6882993197279	292.7331972789116	84	127
291.6882993197279	291.8508163265306	80	127
291.6882993197279	291.8508163265306	68	127
291.8508163265306	292.02498866213153	65	127
291.8508163265306	292.02498866213153	77	127
292.02498866213153	292.1410884353742	65	127
292.02498866213153	292.1410884353742	77	127
292.02498866213153	292.24557823129254	55	127
292.1410884353742	292.24557823129254	64	127
292.1410884353742	292.24557823129254	76	127
292.24557823129254	292.46614512471655	48	127
292.24557823129254	292.3732879818594	74	127
292.24557823129254	292.3732879818594	62	127
292.3732879818594	292.46614512471655	76	127
292.3732879818594	292.46614512471655	64	127
292.46614512471655	292.7331972789116	56	127
292.46614512471655	292.5938775510204	77	127
292.46614512471655	292.5938775510204	65	127
292.61709750566894	292.7331972789116	72	127
292.61709750566894	292.7331972789116	60	127
292.7331972789116	292.93056689342404	53	127
292.7331972789116	293.4994557823129	84	127
292.7331972789116	292.83768707482994	80	127
292.7331972789116	292.83768707482994	68	127
292.83768707482994	292.93056689342404	65	127
292.83768707482994	292.93056689342404	77	127
292.93056689342404	293.15115646258505	55	127
292.93056689342404	293.0466666666667	77	127
292.93056689342404	293.0466666666667	65	127
293.0466666666667	293.1627664399093	64	127
293.0466666666667	293.1627664399093	76	127
293.1627664399093	293.3833333333333	48	127
293.1627664399093	293.27884353741496	74	127
293.1627664399093	293.27884353741496	62	127
293.27884353741496	293.3833333333333	64	127
293.27884353741496	293.3833333333333	76	127
293.3833333333333	293.61555555555555	77	127
293.3833333333333	293.61555555555555	56	127
293.3833333333333	293.61555555555555	65	127
293.4994557823129	293.6271655328798	89	127
293.6271655328798	293.7200453514739	60	127
293.6271655328798	293.83614512471655	53	127
293.6271655328798	293.7200453514739	80	127
293.6271655328798	293.7200453514739	68	127
293.7200453514739	293.83614512471655	84	127
293.7200453514739	293.83614512471655	56	127
293.7200453514739	293.83614512471655	65	127
293.83614512471655	293.9522448979592	61	127
293.83614512471655	293.9522448979592	82	127
293.83614512471655	293.9522448979592	70	127
293.9522448979592	294.05673469387756	58	127
293.9522448979592	294.05673469387756	85	127
293.9522448979592	294.05673469387756	67	127
294.05673469387756	294.3121541950113	46	127
294.05673469387756	294.1612244897959	79	127
294.1612244897959	294.3121541950113	82	127
294.3121541950113	294.4166439909297	68	127
294.3121541950113	294.4166439909297	60	127
294.3121541950113	294.4166439909297	80	127
294.4166439909297	294.52113378684805	56	127
294.4166439909297	294.52113378684805	84	127
294.4166439909297	294.52113378684805	65	127
294.52113378684805	294.6372335600907	77	127
294.52113378684805	294.74172335600906	48	127
294.6372335600907	294.74172335600906	80	127
294.74172335600906	294.88104308390024	58	127
294.74172335600906	294.88104308390024	79	127
294.74172335600906	294.88104308390024	67	127
294.88104308390024	294.9971428571429	82	127
294.88104308390024	294.9971428571429	64	127
294.88104308390024	294.9971428571429	55	127
294.9971428571429	295.090022675737	76	127
294.9971428571429	295.24095238095236	36	127
295.090022675737	295.24095238095236	79	127
295.24095238095236	295.8562811791383	41	127
295.24095238095236	296.0768707482993	77	127
295.24095238095236	295.38027210884354	72	127
295.24095238095236	295.531179138322	56	127
295.38027210884354	295.56603174603174	71	127
295.531179138322	295.6124716553288	60	127
295.56603174603174	295.63566893424036	72	127
295.63566893424036	295.7169614512472	65	127
295.63566893424036	295.7053514739229	73	127
295.7053514739229	295.78662131519275	72	127
295.7401587301587	295.8330385487528	60	127
295.78662131519275	295.8562811791383	71	127
295.8562811791383	296.35548752834467	72	127
295.8562811791383	295.9375283446712	65	127
295.9607709750567	296.0536507936508	60	127
296.0768707482993	296.28585034013605	80	127
296.0768707482993	296.15814058956914	65	127
296.1813605442177	296.2626303854875	60	127
296.28585034013605	297.00566893424036	82	127
296.28585034013605	296.7966893424036	48	127
296.28585034013605	296.37873015873015	64	127
296.35548752834467	296.4367800453515	71	127
296.4019501133787	296.4832199546485	60	127
296.4367800453515	296.50643990929706	72	127
296.50643990929706	296.6573469387755	73	127
296.50643990929706	296.6689795918367	64	127
296.6573469387755	296.72702947845806	72	127
296.69219954648526	296.7734693877551	60	127
296.72702947845806	296.7966893424036	71	127
296.7966893424036	297.2959183673469	72	127
296.7966893424036	296.86632653061224	64	127
296.901179138322	296.97083900226755	60	127
297.00566893424036	297.0753287981859	64	127
297.00566893424036	297.22625850340137	79	127
297.11015873015873	297.19142857142856	60	127
297.22625850340137	297.2959183673469	65	127
297.22625850340137	297.67902494331065	53	127
297.22625850340137	297.8880045351474	80	127
297.2959183673469	297.36557823129255	71	127
297.33074829931974	297.4004081632653	60	127
297.36557823129255	297.45845804988664	72	127
297.45845804988664	297.5397278911565	73	127
297.45845804988664	297.5397278911565	65	127
297.5397278911565	297.60938775510203	72	127
297.5745351473923	297.64421768707484	60	127
297.60938775510203	297.67902494331065	71	127
297.67902494331065	297.7603174603175	65	127
297.67902494331065	298.3059863945578	72	127
297.79514739229023	297.86480725623585	60	127
297.8996371882086	297.9692970521542	56	127
297.8996371882086	298.09700680272107	77	127
298.00412698412697	298.0737868480726	60	127
298.10861678004534	298.5265759637188	48	127
298.10861678004534	298.42208616780044	79	127
298.10861678004534	298.17827664399096	58	127
298.2131065759637	298.2827664399093	60	127
298.3175963718821	298.5265759637188	72	127
298.3175963718821	298.3872562358277	55	127
298.42208616780044	298.54979591836735	76	127
298.42208616780044	298.50333333333333	60	127
298.54979591836735	299.08385487528346	48	127
298.54979591836735	298.6194557823129	76	127
298.54979591836735	298.6194557823129	58	127
298.54979591836735	298.82843537414965	72	127
298.6194557823129	298.68911564625853	77	127
298.6542857142857	298.77038548752836	60	127
298.68911564625853	298.8400453514739	76	127
298.8400453514739	298.95614512471656	74	127
298.8400453514739	299.08385487528346	72	127
298.8400453514739	298.92131519274375	55	127
298.95614512471656	299.04902494331066	60	127
298.95614512471656	299.08385487528346	76	127
299.09546485260773	299.21154195011337	41	127
299.09546485260773	299.8036734693878	65	127
299.09546485260773	299.8036734693878	77	127
299.09546485260773	299.1651247165533	77	127
299.1651247165533	299.26961451247166	83	127
299.21154195011337	299.30444444444447	48	127
299.26961451247166	299.3508843537415	84	127
299.3508843537415	299.46698412698413	53	127
299.3508843537415	299.45537414965986	86	127
299.45537414965986	299.5250113378685	84	127
299.49020408163267	299.5714739229025	48	127
299.5250113378685	299.59469387755104	83	127
299.59469387755104	300.1055328798186	84	127
299.59469387755104	299.67596371882087	53	127
299.6991836734694	299.78045351473924	48	127
299.8036734693878	300.03585034013605	69	127
299.8036734693878	300.03585034013605	81	127
299.8036734693878	299.8965532879819	53	127
299.9197732426304	300.0126530612245	48	127
300.03585034013605	300.6744217687075	70	127
300.03585034013605	300.6744217687075	82	127
300.03585034013605	300.1171428571429	52	127
300.1055328798186	300.17519274376417	83	127
300.14036281179136	300.22163265306125	48	127
300.17519274376417	300.24485260770973	84	127
300.24485260770973	300.3261224489796	52	127
300.24485260770973	300.31451247165535	86	127
300.31451247165535	300.3841723356009	84	127
300.3493424036281	300.44219954648526	48	127
300.3841723356009	300.46544217687074	83	127
300.46544217687074	301.0227210884354	84	127
300.46544217687074	300.5466893424036	52	127
300.5699319727891	300.65120181405894	48	127
300.6744217687075	300.95303854875283	79	127
300.6744217687075	300.95303854875283	67	127
300.6744217687075	300.7556916099773	52	127
300.77891156462584	300.9298412698413	48	127
300.95303854875283	301.62643990929706	81	127
300.95303854875283	301.62643990929706	69	127
300.95303854875283	301.0227210884354	53	127
301.0227210884354	301.09238095238095	83	127
301.0575283446712	301.12721088435376	48	127
301.09238095238095	301.1736507936508	84	127
301.1736507936508	301.2433106575964	86	127
301.1736507936508	301.2433106575964	53	127
301.2433106575964	301.31297052154196	84	127
301.27814058956915	301.34780045351476	48	127
301.31297052154196	301.3826303854875	83	127
301.3826303854875	302.04439909297054	84	127
301.3826303854875	301.4755102040816	53	127
301.5103401360544	301.59160997732425	48	127
301.62643990929706	301.84702947845807	77	127
301.62643990929706	301.84702947845807	65	127
301.62643990929706	301.7077097505669	45	127
301.7425396825397	301.81219954648526	48	127
301.84702947845807	302.1604988662132	67	127
301.84702947845807	301.91668934240363	46	127
301.84702947845807	302.1604988662132	79	127
301.95151927437644	302.021179138322	48	127
302.0560090702948	302.2069387755102	84	127
302.0560090702948	302.12566893424037	43	127
302.1604988662132	302.2533786848073	76	127
302.1604988662132	302.23015873015873	48	127
302.1604988662132	302.2533786848073	64	127
302.2533786848073	302.40430839002266	84	127
302.2533786848073	302.32303854875283	76	127
302.2533786848073	302.32303854875283	64	127
302.2533786848073	302.32303854875283	46	127
302.32303854875283	302.3926984126984	65	127
302.32303854875283	302.3926984126984	77	127
302.35786848072564	302.4275283446712	48	127
302.3926984126984	302.462358276644	76	127
302.3926984126984	302.462358276644	64	127
302.462358276644	302.57845804988665	62	127
302.462358276644	302.54362811791384	43	127
302.462358276644	302.57845804988665	74	127
302.462358276644	302.62489795918367	84	127
302.57845804988665	302.6481179138322	48	127
302.57845804988665	302.67133786848075	76	127
302.57845804988665	302.67133786848075	64	127
302.682925170068	303.3795464852608	53	127
302.682925170068	303.3795464852608	41	127
302.682925170068	302.7526077097506	77	127
302.682925170068	302.8803174603175	77	127
302.7526077097506	302.82226757369614	76	127
302.82226757369614	302.89190476190475	77	127
302.89190476190475	302.9963945578231	79	127
302.9963945578231	303.0892970521542	77	127
303.0892970521542	303.17056689342405	76	127
303.17056689342405	303.79750566893426	77	127
303.39115646258506	303.71621315192743	53	127
303.39115646258506	303.565306122449	82	127
303.39115646258506	303.71621315192743	50	127
303.565306122449	303.63496598639455	84	127
303.63496598639455	303.71621315192743	82	127
303.71621315192743	304.5637641723356	53	127
303.71621315192743	304.5637641723356	51	127
303.71621315192743	303.9600453514739	81	127
303.79750566893426	303.8787755102041	76	127
303.8787755102041	303.9600453514739	77	127
303.9600453514739	304.1458049886621	79	127
304.1458049886621	304.21546485260774	77	127
304.21546485260774	304.29673469387757	76	127
304.29673469387757	304.90045351473924	77	127
304.5637641723356	304.77274376417233	53	127
304.5637641723356	304.6334013605442	81	127
304.5637641723356	304.77274376417233	48	127
304.6334013605442	304.7030839002268	79	127
304.7030839002268	304.77274376417233	81	127
304.77274376417233	305.6318820861678	53	127
304.77274376417233	305.109433106576	82	127
304.77274376417233	305.6318820861678	50	127
304.90045351473924	305.0165532879819	74	127
305.0165532879819	305.109433106576	75	127
305.109433106576	305.2023129251701	77	127
305.2023129251701	305.2835827664399	79	127
305.2835827664399	305.376462585034	81	127
305.376462585034	305.4460997732426	82	127
305.4460997732426	305.52739229024945	81	127
305.52739229024945	305.6318820861678	79	127
305.6318820861678	305.7015419501134	77	127
305.6318820861678	305.8524489795918	46	127
305.6318820861678	305.8524489795918	53	127
305.6318820861678	305.7015419501134	86	127
305.7015419501134	305.7828117913832	75	127
305.7015419501134	305.7828117913832	84	127
305.7828117913832	305.8524489795918	74	127
305.7828117913832	305.8524489795918	86	127
305.8524489795918	306.5490702947846	87	127
305.8524489795918	306.5490702947846	53	127
305.8524489795918	306.5490702947846	48	127
305.8524489795918	305.9453514739229	75	127
305.9453514739229	306.0150113378685	77	127
306.0150113378685	306.0962811791383	79	127
306.0962811791383	306.17755102040815	77	127
306.17755102040815	306.24721088435376	75	127
306.24721088435376	306.34009070294786	74	127
306.34009070294786	306.39814058956915	72	127
306.4097505668934	306.46777777777777	70	127
306.479410430839	306.5490702947846	69	127
306.56068027210887	306.83931972789117	53	127
306.56068027210887	306.83931972789117	41	127
306.56068027210887	306.6767573696145	67	127
306.56068027210887	306.83931972789117	81	127
306.6883900226757	306.75804988662134	65	127
306.7696598639456	306.83931972789117	64	127
306.8625396825397	307.0831065759637	62	127
306.8625396825397	307.0831065759637	46	127
306.8625396825397	307.0831065759637	53	127
306.8625396825397	306.93219954648526	82	127
306.93219954648526	307.02507936507936	81	127
307.02507936507936	307.12956916099773	82	127
307.12956916099773	307.25727891156464	84	127
307.25727891156464	307.3269387755102	82	127
307.3269387755102	307.3965759637188	81	127
307.3965759637188	307.4662585034014	79	127
307.4662585034014	307.53591836734694	77	127
307.53591836734694	307.6055782312925	75	127
307.6055782312925	307.6752380952381	74	127
307.6752380952381	307.7448979591837	72	127
307.7448979591837	307.802925170068	70	127
307.81455782312923	307.9654875283447	60	127
307.81455782312923	307.9654875283447	65	127
307.81455782312923	307.9654875283447	69	127
307.81455782312923	307.9654875283447	63	127
308.023537414966	308.22090702947844	63	127
308.023537414966	308.22090702947844	69	127
308.023537414966	308.22090702947844	65	127
308.023537414966	308.22090702947844	60	127
308.2673469387755	308.51113378684806	63	127
308.2673469387755	308.51113378684806	57	127
308.2673469387755	308.51113378684806	65	127
308.2673469387755	308.51113378684806	72	127
308.8362358276644	308.90589569161	84	127
308.90589569161	308.97555555555556	83	127
308.97555555555556	309.0452154195011	84	127
309.0452154195011	309.126462585034	86	127
309.126462585034	309.19614512471657	84	127
309.19614512471657	309.2658049886621	82	127
309.2658049886621	309.33544217687074	81	127
309.33544217687074	309.4051247165533	79	127
309.4051247165533	309.47478458049886	77	127
309.47478458049886	309.5560544217687	75	127
309.5560544217687	309.6257142857143	74	127
309.6257142857143	309.69537414965987	72	127
309.69537414965987	309.85791383219953	71	127
309.69537414965987	309.85791383219953	65	127
309.69537414965987	309.85791383219953	62	127
309.69537414965987	309.85791383219953	68	127
309.9159637188209	310.11333333333334	71	127
309.9159637188209	310.11333333333334	65	127
309.9159637188209	310.11333333333334	62	127
309.9159637188209	310.11333333333334	68	127
310.17138321995463	310.3223129251701	74	127
310.17138321995463	310.3223129251701	59	127
310.17138321995463	310.3223129251701	65	127
310.17138321995463	310.3223129251701	68	127
310.5893424036281	310.79832199546485	62	127
310.79832199546485	310.92603174603175	61	127
310.92603174603175	310.9956916099773	62	127
310.9956916099773	311.0885714285714	64	127
311.0885714285714	311.15823129251703	62	127
311.15823129251703	311.25111111111113	60	127
311.25111111111113	311.3207709750567	58	127
311.3207709750567	311.4136507936508	57	127
311.4136507936508	311.4832879818594	55	127
311.4832879818594	311.55297052154197	53	127
311.55297052154197	311.6226303854875	52	127
311.6226303854875	311.6922902494331	50	127
311.6922902494331	311.8548299319728	49	127
311.9128798185941	312.06380952380954	49	127
312.12185941043083	312.2959863945578	67	127
312.12185941043083	312.2959863945578	52	127
312.3540589569161	312.6326984126984	67	127
312.702335600907	312.8532879818594	70	127
312.702335600907	312.8532879818594	73	127
312.92294784580497	313.0854875283447	73	127
313.15514739229025	313.28285714285715	76	127
313.15514739229025	313.28285714285715	79	127
313.3525170068027	313.5498866213152	79	127
313.63113378684807	313.805306122449	82	127
313.63113378684807	313.805306122449	67	127
313.63113378684807	313.805306122449	49	127
313.63113378684807	313.805306122449	72	127
313.87496598639456	314.0491156462585	82	127
313.87496598639456	314.0491156462585	49	127
313.87496598639456	314.0491156462585	67	127
313.87496598639456	314.0491156462585	72	127
314.10716553287983	314.2580952380952	67	127
314.10716553287983	314.2580952380952	79	127
314.10716553287983	314.2580952380952	72	127
314.10716553287983	314.2580952380952	52	127
314.40902494331067	314.55995464852606	72	127
314.40902494331067	314.55995464852606	67	127
314.6180045351474	314.82698412698414	70	127
314.6180045351474	314.82698412698414	55	127
314.6180045351474	314.82698412698414	67	127
314.6180045351474	314.82698412698414	76	127
314.87342403628116	315.0243537414966	67	127
314.87342403628116	315.0243537414966	76	127
314.87342403628116	315.0243537414966	70	127
314.87342403628116	315.0243537414966	55	127
315.10562358276644	315.2449433106576	67	127
315.10562358276644	315.2449433106576	73	127
315.10562358276644	315.2449433106576	70	127
315.10562358276644	315.2449433106576	58	127
315.3029931972789	315.4423129251701	70	127
315.3029931972789	315.4423129251701	67	127
315.51197278911565	315.6629024943311	66	127
315.51197278911565	315.6629024943311	81	127
315.51197278911565	315.6629024943311	69	127
315.51197278911565	315.6629024943311	48	127
315.7093424036281	315.86027210884356	81	127
315.7093424036281	315.86027210884356	66	127
315.7093424036281	315.86027210884356	48	127
315.7093424036281	315.86027210884356	69	127
315.9067120181406	316.0924716553288	78	127
315.9067120181406	316.0924716553288	69	127
315.9067120181406	316.0924716553288	66	127
315.9067120181406	316.0924716553288	51	127
316.1505215419501	316.3014512471655	69	127
316.1505215419501	316.3014512471655	66	127
316.37111111111113	316.5220408163265	54	127
316.37111111111113	316.5220408163265	75	127
316.37111111111113	316.5220408163265	69	127
316.37111111111113	316.5220408163265	66	127
316.58009070294787	316.7542403628118	66	127
316.58009070294787	316.7542403628118	75	127
316.58009070294787	316.7542403628118	69	127
316.58009070294787	316.7542403628118	54	127
316.8006575963719	316.9748299319728	66	127
316.8006575963719	316.9748299319728	72	127
316.8006575963719	316.9748299319728	69	127
316.8006575963719	316.9748299319728	57	127
317.0328798185941	317.1721995464853	69	127
317.0328798185941	317.1721995464853	66	127
317.23024943310656	317.4159863945578	65	127
317.23024943310656	317.4159863945578	80	127
317.23024943310656	317.4159863945578	68	127
317.23024943310656	317.4159863945578	47	127
317.4740589569161	317.6946485260771	80	127
317.4740589569161	317.6946485260771	68	127
317.4740589569161	317.6946485260771	65	127
317.4740589569161	317.6946485260771	47	127
317.74108843537414	317.8920181405896	77	127
317.74108843537414	317.8920181405896	68	127
317.74108843537414	317.8920181405896	65	127
317.74108843537414	317.8920181405896	50	127
317.9384580498866	318.1590476190476	65	127
317.9384580498866	318.1590476190476	68	127
318.21709750566896	318.36802721088435	65	127
318.21709750566896	318.36802721088435	74	127
318.21709750566896	318.36802721088435	68	127
318.21709750566896	318.36802721088435	53	127
318.4260770975057	318.5770068027211	65	127
318.4260770975057	318.5770068027211	74	127
318.4260770975057	318.5770068027211	68	127
318.4260770975057	318.5770068027211	53	127
318.62344671201816	318.7975963718821	68	127
318.62344671201816	318.7975963718821	56	127
318.62344671201816	318.7975963718821	71	127
318.62344671201816	318.7975963718821	65	127
318.84401360544217	318.99496598639456	68	127
318.84401360544217	318.99496598639456	65	127
319.0529931972789	319.19233560090703	53	127
319.0529931972789	319.19233560090703	74	127
319.0529931972789	319.19233560090703	68	127
319.0529931972789	319.19233560090703	65	127
319.2503628117914	319.40131519274377	65	127
319.2503628117914	319.40131519274377	74	127
319.2503628117914	319.40131519274377	68	127
319.2503628117914	319.40131519274377	53	127
319.4593424036281	319.7031746031746	65	127
319.4593424036281	319.7031746031746	71	127
319.4593424036281	319.7031746031746	68	127
319.4593424036281	319.7031746031746	56	127
319.78444444444443	319.94698412698415	68	127
319.78444444444443	319.94698412698415	65	127
320.09791383219954	320.3301133786848	65	127
320.09791383219954	320.3301133786848	74	127
320.09791383219954	320.3301133786848	68	127
320.09791383219954	320.3301133786848	53	127
320.3881632653061	320.53909297052155	65	127
320.3881632653061	320.53909297052155	74	127
320.3881632653061	320.53909297052155	68	127
320.3881632653061	320.53909297052155	53	127
320.59714285714284	320.75968253968256	71	127
320.59714285714284	320.75968253968256	68	127
320.59714285714284	320.75968253968256	65	127
320.59714285714284	320.75968253968256	56	127
320.8061224489796	320.957052154195	65	127
320.8061224489796	320.957052154195	68	127
321.00349206349205	321.1544217687075	67	127
321.00349206349205	321.1544217687075	73	127
321.00349206349205	321.1544217687075	64	127
321.2008616780045	321.3401814058957	67	127
321.2008616780045	321.3401814058957	73	127
321.2008616780045	321.3401814058957	64	127
321.39820861678004	321.53755102040816	67	127
321.39820861678004	321.53755102040816	70	127
321.39820861678004	321.53755102040816	64	127
321.5956009070295	321.7465306122449	64	127
321.5956009070295	321.7465306122449	67	127
321.792970521542	321.94390022675736	73	127
321.792970521542	321.94390022675736	64	127
321.792970521542	321.94390022675736	67	127
322.0019501133787	322.1528798185941	67	127
322.0019501133787	322.1528798185941	73	127
322.0019501133787	322.1528798185941	64	127
322.21090702947845	322.35024943310657	64	127
322.21090702947845	322.35024943310657	67	127
322.21090702947845	322.35024943310657	70	127
322.4082993197279	322.5708390022676	67	127
322.4082993197279	322.5708390022676	64	127
322.7333560090703	322.8843083900227	64	127
322.7333560090703	322.8843083900227	73	127
322.7333560090703	322.8843083900227	67	127
322.7333560090703	323.1281179138322	58	127
322.93072562358276	323.08167800453515	73	127
322.93072562358276	323.08167800453515	67	127
322.93072562358276	323.08167800453515	64	127
323.1397052154195	323.7782766439909	61	127
323.1397052154195	323.2790476190476	70	127
323.1397052154195	323.2790476190476	67	127
323.1397052154195	323.2790476190476	64	127
323.33707482993196	323.52285714285716	70	127
323.33707482993196	323.52285714285716	67	127
323.33707482993196	323.52285714285716	64	127
323.58090702947845	323.7782766439909	64	127
323.58090702947845	323.7318367346939	70	127
323.58090702947845	323.7782766439909	67	127
323.7782766439909	324.02208616780047	61	127
323.7782766439909	323.9756462585034	70	127
323.7782766439909	324.02208616780047	67	127
323.7782766439909	324.02208616780047	64	127
324.03369614512474	324.30072562358276	58	127
324.03369614512474	324.25426303854874	76	127
324.03369614512474	324.25426303854874	60	127
324.03369614512474	324.30072562358276	67	127
324.31233560090703	324.53292517006804	67	127
324.31233560090703	324.4748752834467	76	127
324.31233560090703	324.4748752834467	48	127
324.31233560090703	324.53292517006804	60	127
324.5445351473923	325.39206349206347	57	127
324.5445351473923	324.62580498866214	65	127
324.5445351473923	324.7651247165533	77	127
324.5445351473923	324.7651247165533	60	127
324.62580498866214	324.6954648526077	64	127
324.6954648526077	324.7651247165533	65	127
324.7651247165533	324.8347845804989	67	127
324.8347845804989	324.90444444444444	65	127
324.90444444444444	324.97408163265305	64	127
324.97408163265305	325.03215419501134	62	127
325.03215419501134	325.1018140589569	60	127
325.1018140589569	325.1714739229025	58	127
325.1714739229025	325.2411337868481	57	127
325.2411337868481	325.3340136054422	55	127
325.3340136054422	325.39206349206347	53	127
325.39206349206347	326.0073922902494	58	127
325.39206349206347	325.5546031746032	52	127
325.6126530612245	325.75197278911565	52	127
325.79839002267573	325.9493424036281	55	127
326.0073922902494	326.2628117913832	55	127
326.2628117913832	326.43696145124716	52	127
326.2628117913832	326.34408163265306	67	127
326.34408163265306	326.4253514739229	66	127
326.4253514739229	326.5065986394558	67	127
326.5065986394558	326.7736507936508	48	127
326.5065986394558	326.6807709750567	69	127
326.6807709750567	326.75043083900226	67	127
326.75043083900226	326.8200680272109	65	127
326.8200680272109	327.5282766439909	60	127
326.8200680272109	326.9013605442177	64	127
326.9013605442177	326.97102040816327	62	127
326.97102040816327	327.07551020408164	60	127
327.07551020408164	327.2148299319728	58	127
327.2148299319728	327.2844897959184	57	127
327.2844897959184	327.3657596371882	55	127
327.3657596371882	327.5282766439909	53	127
327.621179138322	327.74888888888887	53	127
327.621179138322	327.74888888888887	57	127
327.8069387755102	327.9694784580499	60	127
327.8069387755102	327.9694784580499	57	127
328.0275283446712	328.16684807256235	57	127
328.3177777777778	328.38743764172335	77	127
328.3177777777778	329.165283446712	69	127
328.3177777777778	328.944716553288	53	127
328.38743764172335	328.45707482993197	76	127
328.45707482993197	328.52675736961453	77	127
328.52675736961453	328.5964172335601	79	127
328.5964172335601	328.66607709750565	77	127
328.66607709750565	328.73573696145127	76	127
328.73573696145127	328.8053968253968	74	127
328.8053968253968	328.88666666666666	72	127
328.88666666666666	328.944716553288	70	127
328.944716553288	329.165283446712	48	127
328.944716553288	329.0375963718821	69	127
329.0375963718821	329.10725623582766	67	127
329.10725623582766	329.165283446712	65	127
329.1769160997732	329.93156462585034	70	127
329.1769160997732	329.3510657596372	64	127
329.1769160997732	329.93156462585034	55	127
329.39750566893423	329.5832426303855	64	127
329.6877551020408	329.8502947845805	67	127
329.93156462585034	330.15215419501135	67	127
329.93156462585034	330.15215419501135	48	127
330.1753741496599	330.88358276643993	58	127
330.1753741496599	330.24503401360545	79	127
330.1753741496599	330.314693877551	64	127
330.24503401360545	330.30308390022674	78	127
330.30308390022674	330.3959410430839	79	127
330.3959410430839	330.4772335600907	81	127
330.3959410430839	330.5701133786848	60	127
330.4772335600907	330.55850340136055	79	127
330.55850340136055	330.6281632653061	77	127
330.6281632653061	330.68621315192746	76	127
330.6281632653061	331.3479818594104	72	127
330.68621315192746	330.77909297052156	74	127
330.77909297052156	330.88358276643993	72	127
330.88358276643993	330.9532426303855	70	127
330.88358276643993	331.0809523809524	48	127
330.9532426303855	331.02290249433105	69	127
331.02290249433105	331.0809523809524	67	127
331.09256235827667	331.3479818594104	65	127
331.09256235827667	331.4060317460318	57	127
331.4060317460318	331.59179138321997	65	127
331.4060317460318	331.59179138321997	69	127
331.638231292517	331.8007709750567	69	127
331.638231292517	331.8007709750567	72	127
331.858820861678	332.00975056689344	69	127
332.0910204081633	332.91532879818595	81	127
332.0910204081633	332.1722902494331	53	127
332.0910204081633	332.3	65	127
332.0910204081633	332.91532879818595	69	127
332.1722902494331	332.24195011337866	52	127
332.24195011337866	332.3116099773243	53	127
332.3116099773243	332.46253968253967	48	127
332.3116099773243	332.38126984126984	55	127
332.3116099773243	332.46253968253967	60	127
332.38126984126984	332.4392970521542	53	127
332.4392970521542	332.50897959183675	52	127
332.50897959183675	332.5786394557823	50	127
332.50897959183675	332.65990929705214	60	127
332.50897959183675	332.65990929705214	48	127
332.5786394557823	332.6482766439909	48	127
332.6482766439909	332.7179591836735	46	127
332.7179591836735	332.78761904761905	45	127
332.7179591836735	332.8572789115646	48	127
332.7179591836735	332.8572789115646	60	127
332.78761904761905	332.8456462585034	43	127
332.8456462585034	332.91532879818595	41	127
332.91532879818595	333.5654648526077	70	127
332.91532879818595	333.5654648526077	82	127
332.91532879818595	333.0778684807256	48	127
332.91532879818595	333.0778684807256	60	127
332.91532879818595	333.0778684807256	40	127
333.13591836734696	333.2752380952381	60	127
333.13591836734696	333.2752380952381	40	127
333.13591836734696	333.2752380952381	48	127
333.3332879818594	333.5190476190476	60	127
333.3332879818594	333.5190476190476	48	127
333.3332879818594	333.5190476190476	43	127
333.5770975056689	333.78607709750565	67	127
333.5770975056689	333.72802721088436	48	127
333.5770975056689	333.72802721088436	60	127
333.5770975056689	333.78607709750565	79	127
333.78607709750565	333.9370068027211	60	127
333.78607709750565	333.85573696145127	58	127
333.78607709750565	333.9370068027211	64	127
333.78607709750565	333.9370068027211	48	127
333.78607709750565	333.9370068027211	76	127
333.85573696145127	333.92539682539683	57	127
333.92539682539683	333.9834467120181	58	127
333.9834467120181	334.1575963718821	60	127
333.9834467120181	334.064716553288	60	127
333.9834467120181	334.1575963718821	60	127
333.9834467120181	334.1575963718821	48	127
333.9834467120181	334.1575963718821	72	127
334.064716553288	334.14598639455784	58	127
334.14598639455784	334.2620861678005	57	127
334.2620861678005	334.33174603174604	55	127
334.2620861678005	334.42462585034014	48	127
334.2620861678005	334.42462585034014	60	127
334.2620861678005	334.92385487528344	84	127
334.2620861678005	334.92385487528344	72	127
334.33174603174604	334.41301587301587	53	127
334.41301587301587	334.4710657596372	52	127
334.4710657596372	334.5407256235828	50	127
334.4710657596372	334.6219954648526	48	127
334.4710657596372	334.6219954648526	60	127
334.5407256235828	334.61038548752833	48	127
334.61038548752833	334.68004535147395	46	127
334.68004535147395	334.83097505668934	48	127
334.68004535147395	334.83097505668934	60	127
334.68004535147395	334.83097505668934	45	127
334.92385487528344	335.0747845804989	53	127
334.92385487528344	335.0747845804989	81	127
334.92385487528344	335.0747845804989	69	127
334.92385487528344	335.0747845804989	41	127
335.1560544217687	335.33020408163264	57	127
335.1560544217687	335.33020408163264	84	127
335.1560544217687	335.33020408163264	72	127
335.1560544217687	335.33020408163264	45	127
335.3766439909297	335.5391836734694	60	127
335.3766439909297	335.5391836734694	81	127
335.3766439909297	335.5391836734694	69	127
335.3766439909297	335.5391836734694	48	127
335.608820861678	336.45637188208616	60	127
335.608820861678	335.67850340136056	87	127
335.608820861678	335.81780045351474	53	127
335.608820861678	336.45637188208616	63	127
335.608820861678	336.45637188208616	69	127
335.67850340136056	335.73655328798185	86	127
335.73655328798185	335.81780045351474	87	127
335.81780045351474	335.8874829931973	89	127
335.81780045351474	336.0268027210884	53	127
335.8874829931973	335.9687528344671	87	127
335.9687528344671	336.0384126984127	86	127
336.0384126984127	336.09646258503403	84	127
336.09646258503403	336.1661224489796	82	127
336.1661224489796	336.23578231292515	81	127
336.23578231292515	336.30544217687077	79	127
336.23578231292515	336.45637188208616	41	127
336.30544217687077	336.3867120181406	77	127
336.3867120181406	336.45637188208616	75	127
336.46798185941043	336.6189115646259	74	127
336.46798185941043	336.67696145124717	46	127
336.46798185941043	337.3851700680272	62	127
336.46798185941043	337.3851700680272	70	127
336.46798185941043	337.3851700680272	58	127
336.67696145124717	336.8394784580499	74	127
336.67696145124717	336.8859410430839	46	127
336.8859410430839	337.03684807256235	86	127
337.09492063492064	337.3851700680272	58	127
337.3851700680272	337.4548072562358	82	127
337.3851700680272	337.5825396825397	48	127
337.3851700680272	337.4548072562358	67	127
337.3851700680272	337.53609977324265	76	127
337.4548072562358	337.5244897959184	66	127
337.4548072562358	337.5244897959184	81	127
337.5244897959184	337.59414965986394	82	127
337.5244897959184	337.59414965986394	67	127
337.59414965986394	337.81473922902495	48	127
337.59414965986394	337.6638095238095	84	127
337.59414965986394	337.6638095238095	69	127
337.59414965986394	337.7682993197279	76	127
337.6638095238095	337.72185941043085	67	127
337.6638095238095	337.72185941043085	82	127
337.72185941043085	337.81473922902495	81	127
337.72185941043085	337.81473922902495	65	127
337.81473922902495	337.8960090702948	64	127
337.81473922902495	337.8960090702948	79	127
337.81473922902495	337.9772789115646	88	127
337.8960090702948	337.9656462585034	77	127
337.8960090702948	337.9656462585034	62	127
337.9656462585034	338.03532879818596	76	127
337.9656462585034	338.03532879818596	60	127
338.03532879818596	338.27913832199545	36	127
338.03532879818596	338.1165986394558	74	127
338.03532879818596	338.1165986394558	58	127
338.1165986394558	338.1746485260771	72	127
338.1165986394558	338.1746485260771	57	127
338.1746485260771	338.27913832199545	70	127
338.1746485260771	338.27913832199545	55	127
338.27913832199545	338.44167800453516	77	127
338.27913832199545	338.44167800453516	41	127
338.27913832199545	338.44167800453516	69	127
338.27913832199545	338.44167800453516	53	127
338.49972789115645	338.6506575963719	77	127
338.49972789115645	338.6506575963719	65	127
338.49972789115645	338.6506575963719	53	127
338.49972789115645	338.6506575963719	53	127
338.7087074829932	338.84802721088437	57	127
338.7087074829932	338.84802721088437	69	127
338.7087074829932	338.84802721088437	89	127
338.7087074829932	338.84802721088437	48	127
338.90607709750566	339.04539682539684	60	127
338.90607709750566	339.04539682539684	72	127
338.90607709750566	339.04539682539684	45	127
339.1614965986395	340.0206349206349	81	127
339.1614965986395	339.2543764172336	75	127
339.1614965986395	339.2543764172336	63	127
339.1614965986395	339.40530612244896	41	127
339.2543764172336	339.3472562358277	62	127
339.2543764172336	339.3472562358277	74	127
339.3472562358277	339.41691609977323	63	127
339.3472562358277	339.41691609977323	75	127
339.41691609977323	339.6142857142857	41	127
339.41691609977323	339.4749659863946	77	127
339.41691609977323	339.4749659863946	65	127
339.4749659863946	339.54462585034014	63	127
339.4749659863946	339.54462585034014	75	127
339.54462585034014	339.6142857142857	74	127
339.54462585034014	339.6142857142857	62	127
339.6142857142857	339.6839455782313	72	127
339.6142857142857	339.6839455782313	60	127
339.6839455782313	339.7536054421769	70	127
339.6839455782313	339.7536054421769	58	127
339.7536054421769	339.81165532879817	69	127
339.7536054421769	339.81165532879817	57	127
339.81165532879817	339.8813151927438	67	127
339.81165532879817	339.8813151927438	55	127
339.81165532879817	340.0206349206349	53	127
339.8813151927438	339.95097505668934	53	127
339.8813151927438	339.95097505668934	65	127
339.95097505668934	340.0206349206349	63	127
339.95097505668934	340.0206349206349	51	127
340.0206349206349	340.2180045351474	46	127
340.0206349206349	340.17156462585035	62	127
340.0206349206349	340.17156462585035	50	127
340.0206349206349	340.89138321995466	82	127
340.2180045351474	340.3805442176871	50	127
340.2180045351474	340.3805442176871	62	127
340.2180045351474	340.45020408163265	46	127
340.4618140589569	340.6475736961451	62	127
340.4618140589569	340.6475736961451	74	127
340.6940136054422	340.89138321995466	58	127
340.90299319727893	341.1584126984127	36	127
340.90299319727893	340.9726530612245	79	127
340.90299319727893	341.07714285714286	64	127
340.90299319727893	341.07714285714286	58	127
340.9726530612245	341.0539229024943	81	127
341.0539229024943	341.1584126984127	79	127
341.1584126984127	341.39061224489797	36	127
341.1584126984127	341.2280498866213	81	127
341.1584126984127	341.30934240362814	64	127
341.1584126984127	341.30934240362814	58	127
341.2280498866213	341.29773242630387	79	127
341.29773242630387	341.39061224489797	81	127
341.39061224489797	341.5531519274376	64	127
341.39061224489797	341.4602721088435	79	127
341.39061224489797	341.5531519274376	70	127
341.4602721088435	341.52993197278914	81	127
341.52993197278914	341.611201814059	79	127
341.611201814059	341.77374149659863	70	127
341.611201814059	341.77374149659863	64	127
341.611201814059	341.7273015873016	77	127
341.611201814059	341.83179138322	48	127
341.7273015873016	341.83179138322	79	127
341.84337868480725	342.08721088435374	65	127
341.84337868480725	342.08721088435374	77	127
341.84337868480725	342.08721088435374	69	127
341.84337868480725	342.08721088435374	41	127
342.08721088435374	342.319410430839	53	127
342.319410430839	342.3890702947846	72	127
342.3890702947846	342.4471201814059	71	127
342.4471201814059	342.5167800453515	72	127
342.5167800453515	342.7257596371882	52	127
342.5167800453515	342.5980498866213	74	127
342.5167800453515	342.96954648526076	60	127
342.5167800453515	342.7257596371882	67	127
342.5980498866213	342.6676870748299	72	127
342.6676870748299	342.7257596371882	70	127
342.7257596371882	342.96954648526076	69	127
342.7257596371882	342.96954648526076	60	127
342.7257596371882	342.96954648526076	53	127
342.981179138322	343.2365986394558	60	127
342.981179138322	343.2365986394558	69	127
342.981179138322	343.1321088435374	77	127
342.981179138322	343.2365986394558	41	127
343.2365986394558	343.3875283446712	72	127
343.3875283446712	343.44557823129253	71	127
343.44557823129253	343.5152380952381	72	127
343.5152380952381	343.93319727891156	60	127
343.5152380952381	343.5848752834467	74	127
343.5152380952381	343.71260770975056	67	127
343.5152380952381	343.71260770975056	52	127
343.5848752834467	343.65455782312927	72	127
343.65455782312927	343.71260770975056	70	127
343.71260770975056	343.93319727891156	60	127
343.71260770975056	343.93319727891156	53	127
343.71260770975056	343.93319727891156	69	127
343.94480725623583	344.1886167800454	41	127
343.94480725623583	344.07251700680274	81	127
343.94480725623583	344.1886167800454	72	127
343.94480725623583	344.1886167800454	65	127
344.20020408163265	344.29308390022675	72	127
344.29308390022675	344.3975736961451	71	127
344.3975736961451	344.4672562358277	72	127
344.4672562358277	344.66462585034014	60	127
344.4672562358277	344.53691609977324	74	127
344.4672562358277	344.66462585034014	67	127
344.4672562358277	344.66462585034014	52	127
344.53691609977324	344.60655328798185	72	127
344.60655328798185	344.66462585034014	70	127
344.66462585034014	344.8736054421769	69	127
344.66462585034014	344.7807256235828	60	127
344.66462585034014	344.7807256235828	57	127
344.66462585034014	344.8271655328798	53	127
344.7807256235828	344.85038548752834	57	127
344.7807256235828	344.85038548752834	53	127
344.8736054421769	344.97809523809525	77	127
344.8736054421769	344.9548752834467	60	127
344.8736054421769	344.9548752834467	57	127
344.8736054421769	345.03614512471654	41	127
344.97809523809525	345.0593650793651	57	127
344.97809523809525	345.0593650793651	60	127
345.0941950113379	345.29156462585036	70	127
345.0941950113379	345.187074829932	60	127
345.0941950113379	345.187074829932	58	127
345.0941950113379	345.233514739229	53	127
345.187074829932	345.25673469387755	58	127
345.187074829932	345.25673469387755	55	127
345.29156462585036	345.407664399093	79	127
345.29156462585036	345.38444444444445	60	127
345.29156462585036	345.38444444444445	58	127
345.29156462585036	345.45410430839	52	127
345.41925170068026	345.4889342403628	60	127
345.41925170068026	345.4889342403628	58	127
345.51215419501136	345.83721088435374	72	127
345.51215419501136	345.70952380952383	60	127
345.51215419501136	345.70952380952383	57	127
345.51215419501136	345.7791836734694	53	127
345.70952380952383	345.8140136054422	57	127
345.70952380952383	345.8140136054422	53	127
345.83721088435374	345.9649433106576	81	127
345.83721088435374	345.93009070294784	65	127
345.83721088435374	345.93009070294784	60	127
345.83721088435374	346.0462131519274	51	127
345.9649433106576	346.06943310657596	60	127
345.9649433106576	346.06943310657596	65	127
346.11587301587304	346.2203628117914	62	127
346.11587301587304	346.2784126984127	50	127
346.11587301587304	346.3248526077098	74	127
346.11587301587304	346.2203628117914	65	127
346.2203628117914	346.30163265306123	62	127
346.2203628117914	346.30163265306123	58	127
346.33646258503404	346.42934240362814	82	127
346.33646258503404	346.4061224489796	65	127
346.33646258503404	346.4061224489796	62	127
346.33646258503404	346.47578231292516	46	127
346.42934240362814	346.51061224489797	65	127
346.42934240362814	346.51061224489797	62	127
346.5338321995465	346.69637188208617	45	127
346.5338321995465	346.6383219954649	65	127
346.5338321995465	346.6383219954649	63	127
346.5338321995465	346.777641723356	77	127
346.6383219954649	346.7195918367347	60	127
346.6383219954649	346.7195918367347	63	127
346.777641723356	346.9053514739229	84	127
346.777641723356	346.8705215419501	65	127
346.777641723356	346.8705215419501	63	127
346.777641723356	346.951768707483	41	127
346.9053514739229	346.97501133786847	63	127
346.9053514739229	346.97501133786847	65	127
347.02145124716554	347.17238095238093	62	127
347.02145124716554	347.2536507936508	46	127
347.02145124716554	347.3117006802721	77	127
347.02145124716554	347.17238095238093	65	127
347.17238095238093	347.2884807256236	58	127
347.17238095238093	347.2884807256236	62	127
347.3233106575964	347.439410430839	86	127
347.3233106575964	347.4161904761905	65	127
347.3233106575964	347.4161904761905	62	127
347.3233106575964	347.48585034013604	45	127
347.439410430839	347.5090702947846	62	127
347.439410430839	347.5090702947846	65	127
347.55551020408166	347.66	64	127
347.55551020408166	347.70643990929705	43	127
347.55551020408166	347.7528798185941	79	127
347.55551020408166	347.66	67	127
347.66	347.7296598639456	58	127
347.66	347.7296598639456	64	127
347.7528798185941	347.8225396825397	64	127
347.7528798185941	347.8225396825397	67	127
347.7528798185941	347.8457596371882	88	127
347.7528798185941	347.9038095238095	48	127
347.8573696145125	347.92702947845805	67	127
347.8573696145125	347.92702947845805	64	127
347.9502494331066	348.05473922902496	65	127
347.9502494331066	348.101179138322	45	127
347.9502494331066	348.1940589569161	81	127
347.9502494331066	348.05473922902496	69	127
348.05473922902496	348.1243990929705	60	127
348.05473922902496	348.1243990929705	65	127
348.20566893424035	348.28691609977324	65	127
348.20566893424035	348.28691609977324	69	127
348.20566893424035	348.3101587301587	89	127
348.20566893424035	348.3565986394558	41	127
348.3101587301587	348.3914058956916	69	127
348.3101587301587	348.3914058956916	65	127
348.42625850340136	348.51913832199546	67	127
348.42625850340136	348.51913832199546	65	127
348.42625850340136	348.56557823129253	46	127
348.42625850340136	348.6352380952381	79	127
348.51913832199546	348.61201814058956	62	127
348.51913832199546	348.61201814058956	65	127
348.6352380952381	348.7281179138322	89	127
348.6352380952381	348.70489795918365	67	127
348.6352380952381	348.809387755102	45	127
348.6352380952381	348.70489795918365	65	127
348.73972789115646	348.83260770975056	67	127
348.73972789115646	348.83260770975056	65	127
348.8558276643991	348.96031746031747	67	127
348.8558276643991	349.05319727891157	79	127
348.8558276643991	348.96031746031747	65	127
348.8558276643991	349.00673469387755	46	127
348.96031746031747	349.02997732426303	65	127
348.96031746031747	349.02997732426303	62	127
349.06480725623584	349.1344671201814	67	127
349.06480725623584	349.1344671201814	65	127
349.06480725623584	349.15768707482994	89	127
349.06480725623584	349.20410430839	47	127
349.15768707482994	349.23895691609977	67	127
349.15768707482994	349.23895691609977	65	127
349.2621768707483	349.43632653061223	48	127
349.2621768707483	349.37827664399094	69	127
349.2621768707483	349.37827664399094	65	127
349.2621768707483	349.4943764172336	81	127
349.37827664399094	349.4595464852608	60	127
349.37827664399094	349.4595464852608	65	127
349.4943764172336	349.56403628117914	65	127
349.4943764172336	349.59886621315195	89	127
349.4943764172336	349.56403628117914	69	127
349.4943764172336	349.64530612244897	47	127
349.59886621315195	349.69174603174605	69	127
349.59886621315195	349.69174603174605	65	127
349.73818594104307	349.91233560090706	48	127
349.73818594104307	349.86589569161	70	127
349.73818594104307	349.86589569161	67	127
349.73818594104307	349.97038548752835	79	127
349.86589569161	349.9471655328798	60	127
349.86589569161	349.9471655328798	67	127
349.97038548752835	350.13290249433106	36	127
349.97038548752835	350.0516553287982	70	127
349.97038548752835	350.0516553287982	67	127
349.97038548752835	350.0748752834467	88	127
350.0748752834467	350.15614512471655	70	127
350.0748752834467	350.15614512471655	67	127
350.19097505668935	350.24902494331064	69	127
350.19097505668935	350.3999546485261	81	127
350.19097505668935	350.3999546485261	65	127
350.19097505668935	350.3999546485261	41	127
350.2606349206349	350.34190476190474	81	127
350.34190476190474	350.41156462585036	79	127
350.41156462585036	350.4812244897959	77	127
350.41156462585036	350.50444444444446	89	127
350.41156462585036	350.6089342403628	45	127
350.4812244897959	350.5508843537415	76	127
350.5508843537415	350.6205442176871	74	127
350.6205442176871	350.81791383219957	82	127
350.6205442176871	350.69020408163266	72	127
350.6205442176871	350.81791383219957	48	127
350.69020408163266	350.7598639455782	70	127
350.7598639455782	350.82952380952383	69	127
350.82952380952383	351.01528344671203	36	127
350.82952380952383	350.8875736961451	67	127
350.82952380952383	350.91079365079366	91	127
350.8875736961451	350.9572335600907	65	127
350.9572335600907	351.01528344671203	64	127
351.0268934240363	351.0733333333333	53	127
351.0268934240363	351.22426303854877	81	127
351.0268934240363	351.22426303854877	65	127
351.0268934240363	351.22426303854877	41	127
351.09655328798186	351.1662131519274	65	127
351.1662131519274	351.23587301587304	64	127
351.23587301587304	351.29392290249433	62	127
351.23587301587304	351.32875283446714	89	127
351.23587301587304	351.4332426303855	45	127
351.29392290249433	351.3635827664399	60	127
351.3635827664399	351.4332426303855	59	127
351.4332426303855	351.50290249433107	60	127
351.4332426303855	351.6538095238095	79	127
351.4332426303855	351.6538095238095	48	127
351.50290249433107	351.5841723356009	62	127
351.5841723356009	351.6538095238095	60	127
351.6538095238095	351.73510204081634	36	127
351.6538095238095	351.6654195011338	58	127
351.6538095238095	351.6654195011338	88	127
351.6654195011338	351.677052154195	57	127
351.677052154195	351.73510204081634	55	127
351.7467120181406	351.79315192743763	69	127
351.7467120181406	351.82798185941044	81	127
351.7467120181406	351.82798185941044	53	127
351.7467120181406	351.82798185941044	41	127
351.8163718820862	351.82798185941044	81	127
351.82798185941044	351.92086167800454	45	127
351.82798185941044	351.86278911564625	76	127
351.86278911564625	351.9324716553288	74	127
351.9324716553288	351.9905215419501	72	127
351.9324716553288	352.0601814058957	82	127
351.9324716553288	352.0601814058957	48	127
351.9905215419501	352.0253514739229	70	127
352.0253514739229	352.0601814058957	69	127
352.0601814058957	352.19950113378684	36	127
352.0601814058957	352.09501133786847	67	127
352.0601814058957	352.1298412698413	91	127
352.09501133786847	352.14145124716555	65	127
352.14145124716555	352.19950113378684	64	127
352.2111111111111	352.4084807256236	81	127
352.2111111111111	352.2575510204082	53	127
352.2111111111111	352.4084807256236	65	127
352.2111111111111	352.4084807256236	41	127
352.28077097505667	352.338820861678	65	127
352.338820861678	352.4084807256236	64	127
352.4084807256236	352.51297052154194	89	127
352.4084807256236	352.4781179138322	62	127
352.4084807256236	352.60585034013604	45	127
352.4781179138322	352.54780045351475	60	127
352.54780045351475	352.6174603174603	59	127
352.6174603174603	352.8032199546485	48	127
352.6174603174603	352.67551020408166	60	127
352.6174603174603	352.8032199546485	79	127
352.67551020408166	352.7451700680272	62	127
352.7451700680272	352.8032199546485	60	127
352.8032199546485	353.000589569161	36	127
352.8032199546485	352.87287981859413	58	127
352.8032199546485	352.8960997732426	88	127
352.87287981859413	352.9425396825397	57	127
352.9425396825397	353.000589569161	55	127
353.000589569161	353.04702947845806	65	127
353.000589569161	353.04702947845806	53	127
353.000589569161	353.1979365079365	81	127
353.000589569161	353.1979365079365	41	127
353.0586394557823	353.1282993197279	77	127
353.0586394557823	353.1282993197279	65	127
353.1282993197279	353.1979365079365	64	127
353.1282993197279	353.1979365079365	76	127
353.1979365079365	353.2560090702948	62	127
353.1979365079365	353.27922902494333	89	127
353.1979365079365	353.3837188208617	45	127
353.1979365079365	353.2560090702948	74	127
353.2560090702948	353.32566893424035	60	127
353.2560090702948	353.32566893424035	72	127
353.32566893424035	353.3837188208617	59	127
353.32566893424035	353.3837188208617	71	127
353.3837188208617	353.46498866213153	72	127
353.3837188208617	353.46498866213153	60	127
353.3837188208617	353.6042857142857	79	127
353.3837188208617	353.6042857142857	48	127
353.46498866213153	353.5346485260771	74	127
353.46498866213153	353.5346485260771	62	127
353.5346485260771	353.6042857142857	72	127
353.5346485260771	353.6042857142857	60	127
353.6042857142857	353.68557823129254	58	127
353.6042857142857	353.68557823129254	70	127
353.6042857142857	353.7204081632653	88	127
353.6042857142857	353.82489795918366	36	127
353.68557823129254	353.7552380952381	57	127
353.68557823129254	353.7552380952381	69	127
353.7552380952381	353.82489795918366	55	127
353.7552380952381	353.82489795918366	67	127
353.82489795918366	353.882947845805	65	127
353.82489795918366	353.882947845805	53	127
353.82489795918366	354.04548752834467	81	127
353.82489795918366	354.04548752834467	41	127
353.90614512471655	353.9758276643991	77	127
353.90614512471655	353.9758276643991	65	127
353.9758276643991	354.04548752834467	76	127
353.9758276643991	354.04548752834467	64	127
354.04548752834467	354.1267573696145	74	127
354.04548752834467	354.1267573696145	62	127
354.04548752834467	354.1267573696145	89	127
354.04548752834467	354.24285714285713	45	127
354.1267573696145	354.1731972789116	60	127
354.1267573696145	354.1731972789116	72	127
354.1731972789116	354.24285714285713	59	127
354.1731972789116	354.24285714285713	71	127
354.24285714285713	354.32410430839	60	127
354.24285714285713	354.4750566893424	48	127
354.24285714285713	354.32410430839	72	127
354.24285714285713	354.4750566893424	79	127
354.32410430839	354.40539682539685	74	127
354.32410430839	354.40539682539685	62	127
354.40539682539685	354.4750566893424	60	127
354.40539682539685	354.4750566893424	72	127
354.4750566893424	354.55632653061224	70	127
354.4750566893424	354.55632653061224	58	127
354.4750566893424	354.59115646258505	88	127
354.4750566893424	354.71886621315195	36	127
354.55632653061224	354.63759637188207	57	127
354.55632653061224	354.63759637188207	69	127
354.63759637188207	354.71886621315195	67	127
354.63759637188207	354.71886621315195	55	127
354.7304535147392	355.1019954648526	65	127
354.7304535147392	355.1019954648526	89	127
354.7304535147392	355.1019954648526	57	127
354.7304535147392	355.1019954648526	41	127
355.206485260771	355.53156462585036	67	127
355.206485260771	355.53156462585036	70	127
355.206485260771	355.53156462585036	76	127
355.206485260771	355.53156462585036	55	127
355.206485260771	355.53156462585036	64	127
355.206485260771	355.53156462585036	72	127
355.206485260771	355.53156462585036	48	127
355.206485260771	355.53156462585036	36	127
355.6592743764172	356.12367346938777	65	127
355.6592743764172	356.12367346938777	69	127
355.6592743764172	356.12367346938777	77	127
355.6592743764172	356.12367346938777	57	127
355.6592743764172	356.12367346938777	72	127
355.6592743764172	356.12367346938777	53	127
355.6592743764172	356.12367346938777	41	127
