# onset,offset,note,velocity
0.7306575963718821	0.8003174603174603	55	127
0.7306575963718821	1.2647165532879818	65	127
0.8003174603174603	0.8699773242630385	57	127
0.8699773242630385	1.8103854875283447	58	127
1.8219954648526078	2.8901133786848074	37	127
1.8219954648526078	2.774013605442177	53	127
2.7856009070294783	2.9017233560090703	55	127
2.9017233560090703	3.424172335600907	52	127
2.9017233560090703	3.424172335600907	36	127
3.2964625850340137	3.366122448979592	67	127
3.366122448979592	3.43578231292517	69	127
3.43578231292517	3.981451247165533	70	127
4.724467120181406	5.3165986394557825	58	127
5.328208616780046	6.268616780045352	37	127
5.328208616780046	6.129297052154195	53	127
5.328208616780046	6.268616780045352	58	127
6.140907029478458	6.268616780045352	55	127
6.280226757369615	6.663356009070295	52	127
6.280226757369615	6.663356009070295	36	127
6.280226757369615	6.524036281179138	55	127
6.280226757369615	6.524036281179138	64	127
6.535646258503402	6.6053061224489795	76	127
6.535646258503402	6.6053061224489795	67	127
6.6053061224489795	6.674965986394557	77	127
6.6053061224489795	6.674965986394557	69	127
6.674965986394557	7.092925170068027	79	127
6.674965986394557	7.092925170068027	70	127
7.429614512471655	7.534104308390023	55	127
7.534104308390023	7.708253968253969	48	127
7.708253968253969	7.859183673469388	52	127
7.859183673469388	8.277142857142858	53	127
8.172630385487528	8.28875283446712	69	127
8.28875283446712	8.52092970521542	60	127
8.52092970521542	8.729931972789116	65	127
8.729931972789116	9.066621315192744	67	127
8.985351473922902	9.066621315192744	70	127
9.066621315192744	9.2059410430839	60	127
9.2059410430839	9.426530612244898	67	127
9.43814058956916	9.681950113378685	69	127
9.681950113378685	9.798049886621316	70	127
9.798049886621316	10.146349206349207	53	127
9.798049886621316	10.146349206349207	57	127
9.798049886621316	10.680408163265307	72	127
10.146349206349207	10.262448979591836	55	127
10.146349206349207	10.262448979591836	58	127
10.262448979591836	10.680408163265307	60	127
10.262448979591836	10.424965986394557	57	127
10.483038548752834	10.680408163265307	65	127
10.680408163265307	10.84294784580499	64	127
10.84294784580499	10.982267573696145	62	127
10.993854875283446	11.330566893424036	60	127
11.12156462585034	11.342154195011338	74	127
11.342154195011338	11.562766439909296	70	127
11.562766439909296	11.794965986394558	67	127
11.794965986394558	12.178095238095239	65	127
12.027165532879819	12.178095238095239	55	127
12.178095238095239	12.398684807256236	52	127
12.398684807256236	12.584444444444445	48	127
12.596054421768708	12.944353741496599	57	127
12.944353741496599	13.06045351473923	58	127
13.06045351473923	13.37392290249433	69	127
13.06045351473923	13.652562358276644	60	127
13.06045351473923	13.37392290249433	65	127
13.37392290249433	13.408752834467121	67	127
13.37392290249433	13.408752834467121	70	127
13.408752834467121	13.849931972789115	65	127
13.408752834467121	13.652562358276644	72	127
13.768662131519275	13.849931972789115	77	127
13.768662131519275	13.849931972789115	65	127
13.849931972789115	14.05891156462585	76	127
13.849931972789115	14.05891156462585	64	127
14.05891156462585	14.244671201814059	62	127
14.05891156462585	14.244671201814059	74	127
14.256281179138321	14.395600907029479	72	127
14.256281179138321	14.395600907029479	60	127
14.511700680272108	14.639410430839002	86	127
14.511700680272108	14.639410430839002	62	127
14.511700680272108	14.639410430839002	74	127
14.639410430839002	14.813560090702948	70	127
14.639410430839002	14.813560090702948	82	127
14.639410430839002	14.813560090702948	58	127
14.813560090702948	15.045759637188208	79	127
14.813560090702948	15.045759637188208	67	127
14.813560090702948	15.045759637188208	55	127
15.045759637188208	15.266349206349206	77	127
15.045759637188208	15.266349206349206	53	127
15.045759637188208	15.254739229024944	65	127
15.370839002267573	15.452108843537415	79	127
15.370839002267573	15.452108843537415	55	127
15.370839002267573	15.452108843537415	67	127
15.452108843537415	15.684308390022675	52	127
15.452108843537415	15.684308390022675	76	127
15.452108843537415	15.684308390022675	64	127
15.684308390022675	15.9281179138322	60	127
15.684308390022675	15.9281179138322	48	127
15.684308390022675	15.9281179138322	72	127
15.939727891156462	16.42734693877551	65	127
15.939727891156462	16.42734693877551	77	127
15.939727891156462	16.42734693877551	53	127
16.938185941043084	17.669591836734693	72	127
16.938185941043084	17.669591836734693	60	127
16.938185941043084	17.669591836734693	48	127
17.68122448979592	18.598412698412698	50	127
17.68122448979592	18.598412698412698	38	127
17.68122448979592	18.598412698412698	62	127
18.61002267573696	19.457551020408165	57	127
18.61002267573696	19.457551020408165	45	127
18.61002267573696	19.457551020408165	69	127
18.61002267573696	19.457551020408165	57	127
19.457551020408165	20.305079365079365	55	127
19.457551020408165	20.305079365079365	43	127
19.457551020408165	20.305079365079365	67	127
19.457551020408165	20.305079365079365	55	127
20.316689342403627	21.16421768707483	74	127
20.316689342403627	21.16421768707483	50	127
20.316689342403627	21.16421768707483	62	127
21.175827664399094	22.023356009070294	64	127
21.175827664399094	22.023356009070294	40	127
21.175827664399094	22.023356009070294	52	127
22.034965986394557	22.812834467120183	70	127
22.034965986394557	22.812834467120183	58	127
22.034965986394557	22.812834467120183	58	127
22.034965986394557	22.812834467120183	46	127
22.824444444444445	23.4978231292517	57	127
22.824444444444445	23.4978231292517	45	127
22.824444444444445	23.4978231292517	69	127
22.824444444444445	23.4978231292517	57	127
23.509433106575965	24.507891156462584	57	127
23.509433106575965	24.507891156462584	38	127
23.509433106575965	24.507891156462584	81	127
23.509433106575965	24.507891156462584	53	127
24.507891156462584	26.51641723356009	59	127
24.507891156462584	26.51641723356009	50	127
24.507891156462584	25.541179138321997	77	127
24.507891156462584	26.51641723356009	43	127
25.541179138321997	25.657278911564624	76	127
25.657278911564624	25.726938775510202	74	127
25.726938775510202	25.854648526077096	72	127
25.854648526077096	25.993968253968255	71	127
25.993968253968255	26.13328798185941	74	127
26.13328798185941	26.23777777777778	67	127
26.23777777777778	26.388707482993198	66	127
26.388707482993198	26.528027210884353	67	127
26.528027210884353	26.81827664399093	55	127
26.528027210884353	26.644126984126984	69	127
26.528027210884353	26.81827664399093	59	127
26.528027210884353	26.81827664399093	65	127
26.528027210884353	26.81827664399093	62	127
26.528027210884353	26.81827664399093	43	127
26.644126984126984	26.795056689342402	71	127
26.795056689342402	26.934376417233562	72	127
26.934376417233562	27.213015873015873	43	127
26.934376417233562	27.213015873015873	55	127
26.934376417233562	27.213015873015873	62	127
26.934376417233562	27.062086167800455	74	127
26.934376417233562	27.213015873015873	59	127
26.934376417233562	27.213015873015873	65	127
27.062086167800455	27.178185941043083	76	127
27.178185941043083	27.24784580498866	77	127
27.24784580498866	27.5497052154195	62	127
27.24784580498866	27.5497052154195	55	127
27.24784580498866	27.5497052154195	43	127
27.24784580498866	27.35233560090703	79	127
27.24784580498866	27.5497052154195	59	127
27.24784580498866	27.5497052154195	65	127
27.35233560090703	27.514875283446713	81	127
27.514875283446713	27.689024943310656	83	127
27.700634920634922	28.19986394557823	36	127
27.700634920634922	28.19986394557823	84	127
27.700634920634922	28.19986394557823	55	127
27.700634920634922	28.19986394557823	64	127
27.700634920634922	28.19986394557823	48	127
27.700634920634922	28.19986394557823	60	127
28.211473922902496	28.513333333333332	83	127
28.513333333333332	28.757142857142856	84	127
28.88485260770975	29.07061224489796	50	127
28.88485260770975	29.059002267573696	84	127
28.88485260770975	29.07061224489796	59	127
29.07061224489796	29.18671201814059	53	127
29.07061224489796	29.18671201814059	62	127
29.198321995464852	29.45374149659864	60	127
29.198321995464852	31.055918367346937	84	127
29.198321995464852	29.45374149659864	52	127
29.593061224489794	29.941360544217687	67	127
29.593061224489794	29.941360544217687	52	127
29.593061224489794	29.941360544217687	40	127
29.941360544217687	30.011020408163265	70	127
29.941360544217687	30.011020408163265	43	127
30.011020408163265	31.172018140589568	51	127
30.011020408163265	30.289659863945577	69	127
30.011020408163265	30.289659863945577	42	127
30.382539682539683	31.172018140589568	63	127
30.382539682539683	30.696009070294785	42	127
30.777278911564625	31.613197278911564	42	127
31.055918367346937	31.172018140589568	78	127
31.183628117913834	31.52031746031746	82	127
31.183628117913834	31.531927437641723	54	127
31.183628117913834	31.613197278911564	62	127
31.531927437641723	31.613197278911564	58	127
31.624807256235826	32.95995464852608	46	127
31.624807256235826	31.98471655328798	82	127
31.624807256235826	31.98471655328798	62	127
31.624807256235826	31.98471655328798	50	127
32.12403628117914	32.46072562358277	67	127
32.12403628117914	32.46072562358277	50	127
32.12403628117914	32.46072562358277	82	127
32.60004535147392	34.09773242630386	82	127
32.60004535147392	33.08766439909297	50	127
32.97156462585034	33.08766439909297	38	127
33.099274376417235	33.44757369614513	43	127
33.099274376417235	33.44757369614513	50	127
33.44757369614513	33.77265306122449	52	127
33.44757369614513	33.77265306122449	43	127
33.44757369614513	33.78426303854875	67	127
33.78426303854875	34.09773242630386	43	127
33.78426303854875	34.09773242630386	60	127
33.78426303854875	34.09773242630386	52	127
34.09773242630386	34.411201814058956	79	127
34.09773242630386	34.52730158730159	53	127
34.09773242630386	34.39959183673469	60	127
34.09773242630386	34.39959183673469	41	127
34.411201814058956	34.52730158730159	82	127
34.52730158730159	35.502539682539684	72	127
34.52730158730159	34.87560090702948	81	127
34.52730158730159	34.87560090702948	69	127
34.52730158730159	34.87560090702948	41	127
35.00331065759637	35.37482993197279	41	127
35.00331065759637	35.37482993197279	81	127
35.00331065759637	35.37482993197279	69	127
35.514149659863946	36.24557823129252	65	127
35.514149659863946	35.79278911564626	81	127
35.80439909297052	36.14108843537415	64	127
35.80439909297052	36.14108843537415	60	127
36.14108843537415	36.24557823129252	67	127
36.14108843537415	36.24557823129252	64	127
36.25718820861678	36.91895691609977	77	127
36.25718820861678	36.91895691609977	69	127
36.25718820861678	36.500997732426306	65	127
36.25718820861678	36.500997732426306	62	127
36.55904761904762	36.82607709750567	65	127
36.55904761904762	36.82607709750567	62	127
36.930566893424036	37.418185941043085	62	127
36.930566893424036	37.418185941043085	71	127
37.42979591836735	37.696825396825396	73	127
37.42979591836735	37.696825396825396	64	127
37.696825396825396	37.81292517006803	67	127
37.696825396825396	37.81292517006803	76	127
37.82453514739229	38.50952380952381	56	127
37.82453514739229	38.05673469387755	74	127
37.82453514739229	38.05673469387755	65	127
38.14961451247166	38.43986394557823	74	127
38.14961451247166	38.43986394557823	65	127
38.50952380952381	38.77655328798186	74	127
38.50952380952381	38.77655328798186	65	127
38.50952380952381	38.77655328798186	47	127
38.788163265306125	39.19451247165533	62	127
38.788163265306125	39.19451247165533	47	127
38.788163265306125	39.19451247165533	74	127
39.19451247165533	39.27578231292517	77	127
39.19451247165533	39.27578231292517	50	127
39.19451247165533	39.27578231292517	59	127
39.287392290249436	39.53120181405896	58	127
39.287392290249436	40.042040816326534	79	127
39.287392290249436	39.53120181405896	76	127
39.287392290249436	39.53120181405896	48	127
39.670521541950116	39.91433106575964	58	127
39.670521541950116	39.91433106575964	76	127
39.670521541950116	39.91433106575964	48	127
40.053650793650796	40.22780045351474	57	127
40.053650793650796	40.970839002267574	72	127
40.053650793650796	40.22780045351474	69	127
40.053650793650796	40.22780045351474	53	127
40.27421768707483	40.39034013605442	69	127
40.27421768707483	40.39034013605442	53	127
40.27421768707483	40.39034013605442	65	127
40.27421768707483	40.39034013605442	57	127
40.46	40.587709750566894	65	127
40.46	40.587709750566894	69	127
40.46	40.587709750566894	57	127
40.46	40.587709750566894	53	127
40.645759637188206	40.808299319727894	57	127
40.645759637188206	40.808299319727894	53	127
40.645759637188206	40.808299319727894	65	127
40.645759637188206	40.808299319727894	69	127
40.83151927437642	41.17981859410431	57	127
40.83151927437642	41.17981859410431	69	127
40.83151927437642	41.17981859410431	53	127
40.83151927437642	41.17981859410431	65	127
40.970839002267574	41.191428571428574	77	127
41.191428571428574	41.38879818594104	76	127
41.38879818594104	41.551315192743765	77	127
41.551315192743765	41.690657596371885	72	127
41.76031746031746	41.99251700680272	74	127
41.99251700680272	42.189886621315196	69	127
42.189886621315196	42.29437641723356	70	127
42.29437641723356	42.456916099773245	69	127
42.49174603174603	42.73555555555556	82	127
42.73555555555556	42.9097052154195	77	127
42.9097052154195	43.17673469387755	79	127
43.17673469387755	44.16358276643991	69	127
43.17673469387755	43.3508843537415	50	127
43.17673469387755	43.6643537414966	81	127
43.17673469387755	43.3508843537415	57	127
43.17673469387755	43.3508843537415	53	127
43.432154195011336	43.606303854875286	65	127
43.432154195011336	43.606303854875286	62	127
43.6643537414966	43.80367346938775	65	127
43.6643537414966	43.80367346938775	62	127
43.86172335600907	43.9778231292517	65	127
43.86172335600907	43.9778231292517	62	127
43.989433106575966	44.34934240362812	65	127
43.989433106575966	44.34934240362812	62	127
44.17519274376417	44.360952380952384	74	127
44.360952380952384	44.569931972789114	73	127
44.569931972789114	44.755691609977326	74	127
44.755691609977326	44.88340136054422	69	127
44.953061224489794	45.138820861678006	70	127
45.138820861678006	45.37102040816327	65	127
45.37102040816327	45.510340136054424	67	127
45.510340136054424	45.61482993197279	65	127
45.68448979591837	45.85861678004535	67	127
45.85861678004535	46.102448979591834	64	127
46.102448979591834	46.276598639455784	65	127
46.276598639455784	46.439138321995465	67	127
46.276598639455784	46.439138321995465	62	127
46.276598639455784	46.439138321995465	59	127
46.276598639455784	47.21700680272109	74	127
46.52040816326531	46.68294784580499	59	127
46.52040816326531	46.68294784580499	71	127
46.52040816326531	46.68294784580499	55	127
46.752585034013606	46.81065759637188	71	127
46.752585034013606	46.81065759637188	55	127
46.752585034013606	46.81065759637188	59	127
46.8802947845805	46.984807256235825	59	127
46.8802947845805	46.984807256235825	55	127
46.8802947845805	46.984807256235825	71	127
47.05446712018141	47.35632653061224	71	127
47.05446712018141	47.35632653061224	59	127
47.05446712018141	47.35632653061224	55	127
47.22861678004535	47.367936507936506	79	127
47.367936507936506	47.60013605442177	78	127
47.60013605442177	47.77428571428572	79	127
47.77428571428572	47.925215419501136	78	127
47.99487528344671	48.22707482993197	79	127
47.99487528344671	48.22707482993197	67	127
48.22707482993197	48.354784580498865	62	127
48.22707482993197	48.354784580498865	74	127
48.354784580498865	48.58698412698413	76	127
48.354784580498865	48.58698412698413	64	127
48.58698412698413	48.66825396825397	74	127
48.58698412698413	48.66825396825397	62	127
48.737913832199546	48.958503401360545	64	127
48.737913832199546	48.958503401360545	59	127
48.737913832199546	48.958503401360545	76	127
48.958503401360545	49.15587301587301	71	127
48.958503401360545	49.15587301587301	59	127
48.958503401360545	49.15587301587301	55	127
49.15587301587301	49.37646258503401	72	127
49.15587301587301	49.37646258503401	60	127
49.15587301587301	49.37646258503401	57	127
49.37646258503401	49.81764172335601	62	127
49.37646258503401	50.978639455782314	67	127
49.37646258503401	49.59705215419501	74	127
49.37646258503401	49.81764172335601	59	127
49.59705215419501	49.81764172335601	71	127
49.81764172335601	49.89891156462585	74	127
49.96857142857143	50.061451247165536	74	127
50.13111111111111	50.35170068027211	74	127
50.13111111111111	50.35170068027211	71	127
50.35170068027211	50.595510204081634	71	127
50.35170068027211	50.595510204081634	67	127
50.595510204081634	50.711609977324265	71	127
50.595510204081634	50.76965986394558	79	127
50.78126984126984	50.920589569160995	71	127
50.88575963718821	50.978639455782314	79	127
50.99024943310658	51.640408163265306	79	127
50.99024943310658	52.395056689342404	62	127
50.99024943310658	51.199229024943314	69	127
51.199229024943314	51.419818594104306	62	127
51.419818594104306	51.570748299319725	69	127
51.61718820861678	51.640408163265306	69	127
51.640408163265306	52.395056689342404	78	127
51.640408163265306	51.80294784580499	69	127
51.80294784580499	52.03514739229025	66	127
52.03514739229025	52.25573696145125	72	127
52.31378684807256	52.395056689342404	72	127
52.395056689342404	53.25419501133787	72	127
52.395056689342404	54.06689342403628	55	127
52.395056689342404	52.627256235827666	62	127
52.627256235827666	52.847845804988665	55	127
52.847845804988665	52.998775510204084	62	127
53.04521541950113	53.19614512471655	62	127
53.26580498866213	54.06689342403628	71	127
53.26580498866213	53.42834467120181	62	127
53.42834467120181	53.64893424036281	59	127
53.64893424036281	53.85791383219954	65	127
53.96240362811791	54.06689342403628	65	127
54.07850340136054	55.01891156462585	48	127
54.07850340136054	54.29909297052154	43	127
54.07850340136054	54.809931972789116	65	127
54.29909297052154	54.46163265306122	36	127
54.46163265306122	54.577732426303854	43	127
54.63578231292517	54.751882086167804	43	127
54.82154195011338	55.91287981859411	64	127
54.82154195011338	55.01891156462585	43	127
55.01891156462585	55.25111111111111	48	127
55.01891156462585	55.25111111111111	36	127
55.25111111111111	55.44848072562358	52	127
55.25111111111111	55.44848072562358	48	127
55.56458049886621	55.680680272108845	48	127
55.56458049886621	55.680680272108845	52	127
55.680680272108845	56.52820861678005	48	127
55.680680272108845	57.53827664399093	52	127
55.92448979591837	56.08702947845805	60	127
55.92448979591837	56.08702947845805	64	127
56.08702947845805	56.23795918367347	76	127
56.08702947845805	56.23795918367347	72	127
56.30761904761905	56.47015873015873	76	127
56.30761904761905	56.47015873015873	72	127
56.53981859410431	57.317687074829934	44	127
56.53981859410431	56.74879818594104	76	127
56.53981859410431	56.74879818594104	72	127
56.74879818594104	56.96938775510204	64	127
56.74879818594104	56.96938775510204	60	127
56.96938775510204	57.143537414965984	76	127
56.96938775510204	57.143537414965984	72	127
57.22480725623583	57.317687074829934	76	127
57.22480725623583	57.317687074829934	72	127
57.329297052154196	57.933015873015876	76	127
57.329297052154196	58.316145124716556	73	127
57.329297052154196	58.095555555555556	43	127
57.549886621315196	57.7356462585034	52	127
57.7356462585034	57.88657596371882	58	127
57.933015873015876	58.04911564625851	58	127
57.933015873015876	58.095555555555556	73	127
58.10716553287982	58.316145124716556	76	127
58.10716553287982	58.246485260770974	57	127
58.10716553287982	58.53673469387755	42	127
58.316145124716556	58.54834467120181	74	127
58.316145124716556	58.54834467120181	64	127
58.316145124716556	58.478684807256236	57	127
58.54834467120181	59.30299319727891	41	127
58.54834467120181	58.629614512471655	74	127
58.54834467120181	58.629614512471655	62	127
58.54834467120181	58.629614512471655	83	127
58.629614512471655	58.8037641723356	62	127
58.629614512471655	58.8037641723356	81	127
58.629614512471655	58.8037641723356	74	127
58.88503401360544	59.10562358276644	74	127
59.10562358276644	59.31460317460318	67	127
59.10562358276644	59.31460317460318	55	127
59.10562358276644	59.30299319727891	72	127
59.31460317460318	59.47714285714286	67	127
59.31460317460318	59.662902494331064	40	127
59.31460317460318	59.47714285714286	72	127
59.31460317460318	59.54680272108843	81	127
59.54680272108843	59.76739229024943	79	127
59.54680272108843	59.72095238095238	72	127
59.54680272108843	59.72095238095238	67	127
59.76739229024943	60.06925170068027	41	127
59.76739229024943	59.98798185941043	72	127
59.98798185941043	60.115691609977326	55	127
59.98798185941043	60.10408163265306	71	127
59.98798185941043	60.115691609977326	62	127
60.115691609977326	60.266621315192744	62	127
60.115691609977326	60.266621315192744	71	127
60.115691609977326	60.31306122448979	81	127
60.115691609977326	60.39433106575964	43	127
60.31306122448979	60.52204081632653	79	127
60.31306122448979	60.46399092970522	71	127
60.31306122448979	60.46399092970522	62	127
60.53365079365079	60.881950113378686	60	127
60.53365079365079	63.993424036281176	79	127
60.53365079365079	60.69619047619047	60	127
60.69619047619047	60.85873015873016	55	127
60.85873015873016	60.96321995464853	57	127
60.96321995464853	61.13736961451247	64	127
60.96321995464853	60.99804988662132	55	127
60.99804988662132	61.102539682539685	52	127
61.102539682539685	61.265079365079366	53	127
61.265079365079366	61.54371882086168	67	127
61.265079365079366	61.40439909297052	52	127
61.40439909297052	61.52049886621315	48	127
61.52049886621315	61.67142857142857	50	127
61.67142857142857	62.1009977324263	48	127
61.67142857142857	61.82235827664399	64	127
61.67142857142857	61.98489795918368	72	127
61.82235827664399	61.961678004535145	62	127
61.961678004535145	62.1009977324263	60	127
62.1009977324263	62.26353741496599	65	127
62.1009977324263	62.42607709750567	71	127
62.26353741496599	62.39124716553288	62	127
62.39124716553288	62.55378684807256	59	127
62.55378684807256	62.92530612244898	74	127
62.55378684807256	62.70471655328798	55	127
62.70471655328798	62.89047619047619	50	127
62.89047619047619	63.064625850340136	47	127
63.064625850340136	63.993424036281176	77	127
63.064625850340136	63.227165532879816	55	127
63.227165532879816	63.37809523809524	59	127
63.37809523809524	63.54063492063492	62	127
63.54063492063492	63.69156462585034	67	127
63.69156462585034	63.84249433106576	71	127
63.84249433106576	64.00503401360544	74	127
64.00503401360544	64.28367346938775	79	127
64.00503401360544	64.15596371882086	77	127
64.00503401360544	64.33011337868481	71	127
64.15596371882086	64.28367346938775	74	127
64.28367346938775	64.34172335600907	76	127
64.34172335600907	64.42299319727891	83	127
64.34172335600907	64.42299319727891	74	127
64.42299319727891	64.45782312925171	72	127
64.45782312925171	64.50426303854876	71	127
64.45782312925171	64.69	86	127
64.50426303854876	64.66680272108843	67	127
64.66680272108843	64.81770975056689	69	127
64.81770975056689	65.22408163265307	67	127
64.81770975056689	64.96866213151928	71	127
64.81770975056689	65.15442176870748	89	127
64.96866213151928	65.13120181405895	69	127
65.13120181405895	65.22408163265307	67	127
65.22408163265307	65.25891156462585	88	127
65.22408163265307	65.25891156462585	72	127
65.25891156462585	65.34018140589569	64	127
65.35179138321996	65.68845804988662	91	127
65.35179138321996	65.49111111111111	60	127
65.50272108843538	65.6536507936508	55	127
65.66526077097505	65.80458049886622	52	127
65.81616780045351	66.280589569161	48	127
65.81616780045351	66.69854875283447	96	127
65.81616780045351	65.96709750566893	64	127
65.81616780045351	65.96709750566893	60	127
65.97873015873016	66.11804988662132	67	127
65.97873015873016	66.11804988662132	55	127
66.12965986394558	66.280589569161	72	127
66.12965986394558	66.280589569161	52	127
66.29219954648526	66.40829931972789	76	127
66.29219954648526	66.40829931972789	48	127
66.40829931972789	66.54761904761905	43	127
66.40829931972789	66.54761904761905	79	127
66.54761904761905	66.69854875283447	83	127
66.54761904761905	66.69854875283447	40	127
66.71013605442177	67.02362811791383	36	127
66.71013605442177	66.83784580498866	84	127
66.83784580498866	66.98879818594105	79	127
67.0004081632653	67.09326530612245	81	127
67.10489795918367	67.41836734693878	40	127
67.10489795918367	67.24421768707484	79	127
67.25582766439909	67.38353741496599	76	127
67.38353741496599	67.4415873015873	77	127
67.4415873015873	67.75505668934241	48	127
67.4415873015873	67.5692970521542	76	127
67.4415873015873	67.75505668934241	43	127
67.58090702947845	67.73181405895691	72	127
67.74344671201814	67.85952380952381	74	127
67.87115646258503	68.14979591836735	48	127
67.87115646258503	68.26589569160998	72	127
67.87115646258503	67.96403628117913	88	127
67.87115646258503	68.14979591836735	52	127
67.96403628117913	68.1149433106576	86	127
68.12657596371882	68.26589569160998	84	127
68.26589569160998	68.59097505668935	55	127
68.26589569160998	68.59097505668935	47	127
68.26589569160998	68.4168253968254	89	127
68.4168253968254	68.5445351473923	86	127
68.55614512471655	68.66063492063492	83	127
68.67224489795919	68.9508843537415	50	127
68.67224489795919	68.79995464852608	77	127
68.67224489795919	68.9508843537415	59	127
68.81156462585034	68.92766439909298	74	127
68.92766439909298	69.06698412698412	71	127
69.0785941043084	69.21791383219954	77	127
69.0785941043084	69.41528344671202	62	127
69.0785941043084	69.21791383219954	67	127
69.0785941043084	69.24111111111111	53	127
69.22952380952381	69.38045351473923	71	127
69.22952380952381	69.38045351473923	74	127
69.31079365079366	69.46172335600907	55	127
69.39204081632653	69.46172335600907	71	127
69.39204081632653	69.46172335600907	74	127
69.47333333333333	69.62424036281179	74	127
69.47333333333333	69.77517006802721	65	127
69.47333333333333	69.62424036281179	79	127
69.47333333333333	69.64746031746031	59	127
69.63587301587302	69.72875283446712	83	127
69.63587301587302	69.72875283446712	71	127
69.68231292517007	69.84485260770975	62	127
69.74036281179139	69.8912925170068	67	127
69.74036281179139	69.8912925170068	86	127
69.9028798185941	69.9841723356009	67	127
69.9028798185941	69.9841723356009	89	127
69.9028798185941	69.9841723356009	71	127
69.99578231292517	70.13507936507936	86	127
69.99578231292517	70.13507936507936	72	127
69.99578231292517	70.13507936507936	69	127
70.14671201814059	70.26278911564626	74	127
70.14671201814059	70.26278911564626	71	127
70.14671201814059	70.26278911564626	83	127
70.27442176870748	70.40213151927438	76	127
70.27442176870748	70.58789115646259	60	127
70.27442176870748	70.40213151927438	79	127
70.27442176870748	70.40213151927438	72	127
70.40213151927438	70.47179138321995	77	127
70.40213151927438	70.47179138321995	84	127
70.40213151927438	70.47179138321995	74	127
70.48340136054422	70.58789115646259	76	127
70.48340136054422	70.58789115646259	88	127
70.48340136054422	70.58789115646259	72	127
70.59950113378684	70.75043083900226	88	127
70.59950113378684	70.75043083900226	53	127
70.59950113378684	70.75043083900226	57	127
70.76204081632653	70.88975056689343	84	127
70.76204081632653	70.88975056689343	55	127
70.76204081632653	70.88975056689343	58	127
70.88975056689343	70.959410430839	57	127
70.88975056689343	70.959410430839	81	127
70.88975056689343	70.959410430839	60	127
70.959410430839	71.11034013605442	77	127
70.959410430839	71.11034013605442	62	127
70.959410430839	71.11034013605442	58	127
71.12195011337869	71.2728798185941	60	127
71.12195011337869	71.2728798185941	82	127
71.12195011337869	71.2728798185941	64	127
71.2728798185941	71.42380952380952	62	127
71.2728798185941	71.42380952380952	86	127
71.2728798185941	71.42380952380952	58	127
71.4354195011338	71.56312925170069	64	127
71.4354195011338	71.56312925170069	68	127
71.4354195011338	71.76049886621315	59	127
71.4354195011338	71.56312925170069	86	127
71.57473922902494	71.60956916099774	69	127
71.57473922902494	71.60956916099774	83	127
71.57473922902494	71.60956916099774	64	127
71.62117913832199	71.76049886621315	71	127
71.62117913832199	71.76049886621315	80	127
71.62117913832199	71.76049886621315	64	127
71.77210884353741	71.88820861678005	72	127
71.77210884353741	72.15523809523809	57	127
71.77210884353741	71.88820861678005	76	127
71.77210884353741	71.88820861678005	64	127
71.8998185941043	72.01591836734694	74	127
71.8998185941043	72.01591836734694	81	127
71.8998185941043	72.01591836734694	64	127
72.0275283446712	72.15523809523809	64	127
72.0275283446712	72.15523809523809	84	127
72.0275283446712	72.15523809523809	72	127
72.16684807256236	72.28294784580498	66	127
72.16684807256236	72.28294784580498	50	127
72.16684807256236	72.28294784580498	84	127
72.16684807256236	72.28294784580498	69	127
72.29455782312925	72.44548752834467	69	127
72.29455782312925	72.44548752834467	52	127
72.29455782312925	72.44548752834467	81	127
72.29455782312925	72.44548752834467	64	127
72.44548752834467	72.57319727891156	69	127
72.44548752834467	72.57319727891156	54	127
72.44548752834467	72.57319727891156	78	127
72.44548752834467	72.57319727891156	62	127
72.58480725623583	72.67768707482993	67	127
72.58480725623583	72.67768707482993	55	127
72.58480725623583	72.67768707482993	83	127
72.58480725623583	72.67768707482993	62	127
72.68927437641723	72.84022675736962	67	127
72.68927437641723	72.84022675736962	57	127
72.68927437641723	72.84022675736962	79	127
72.68927437641723	72.84022675736962	62	127
72.85183673469388	72.94469387755102	67	127
72.85183673469388	72.94469387755102	55	127
72.85183673469388	72.94469387755102	74	127
72.85183673469388	72.94469387755102	62	127
72.95632653061224	73.42072562358277	60	127
72.95632653061224	73.42072562358277	84	127
72.95632653061224	73.42072562358277	72	127
72.95632653061224	74.97646258503401	51	127
73.43231292517007	73.78063492063492	79	127
73.43231292517007	73.78063492063492	67	127
73.43231292517007	73.78063492063492	55	127
73.78063492063492	74.10571428571428	60	127
73.78063492063492	74.10571428571428	84	127
73.78063492063492	74.10571428571428	72	127
74.21020408163265	74.55850340136054	69	127
74.21020408163265	74.55850340136054	81	127
74.21020408163265	74.55850340136054	57	127
74.67460317460318	75.81238095238095	79	127
74.67460317460318	75.81238095238095	55	127
74.67460317460318	75.81238095238095	67	127
74.98807256235828	75.38281179138322	52	127
75.38281179138322	75.69628117913832	53	127
75.82399092970522	76.03297052154196	69	127
75.82399092970522	76.12585034013605	50	127
75.82399092970522	76.03297052154196	81	127
75.82399092970522	76.03297052154196	57	127
76.03297052154196	76.23034013605442	83	127
76.03297052154196	76.23034013605442	59	127
76.03297052154196	76.23034013605442	71	127
76.24192743764172	76.6134693877551	48	127
76.24192743764172	76.6134693877551	84	127
76.24192743764172	76.6134693877551	72	127
76.24192743764172	76.6134693877551	60	127
76.6250566893424	77.00818594104308	62	127
76.6250566893424	77.00818594104308	47	127
76.6250566893424	77.00818594104308	86	127
76.6250566893424	77.00818594104308	74	127
77.01981859410431	77.33328798185941	76	127
77.01981859410431	77.33328798185941	48	127
77.01981859410431	77.33328798185941	88	127
77.01981859410431	77.33328798185941	64	127
77.42616780045351	77.76285714285714	76	127
77.42616780045351	77.76285714285714	45	127
77.42616780045351	77.76285714285714	88	127
77.42616780045351	77.76285714285714	60	127
77.89056689342404	78.26206349206349	76	127
77.89056689342404	78.26206349206349	44	127
77.89056689342404	78.26206349206349	88	127
77.89056689342404	78.26206349206349	59	127
78.27369614512472	78.61038548752835	74	127
78.27369614512472	78.61038548752835	40	127
78.27369614512472	78.61038548752835	86	127
78.27369614512472	78.61038548752835	56	127
78.61038548752835	78.98190476190476	57	127
78.61038548752835	78.98190476190476	84	127
78.61038548752835	78.98190476190476	72	127
78.61038548752835	79.39986394557823	41	127
78.99351473922903	79.39986394557823	50	127
78.99351473922903	79.39986394557823	69	127
78.99351473922903	79.39986394557823	81	127
79.41145124716553	79.6320634920635	71	127
79.41145124716553	79.6320634920635	62	127
79.41145124716553	79.6320634920635	50	127
79.41145124716553	79.64365079365079	81	127
79.41145124716553	79.86426303854876	40	127
79.64365079365079	79.86426303854876	59	127
79.64365079365079	79.86426303854876	74	127
79.64365079365079	79.80621315192744	80	127
79.87587301587301	80.09646258503402	59	127
79.87587301587301	80.09646258503402	74	127
79.87587301587301	80.21256235827664	64	127
79.87587301587301	80.0384126984127	80	127
80.10807256235827	80.27061224489796	81	127
80.10807256235827	80.32866213151928	71	127
80.10807256235827	80.32866213151928	74	127
80.32866213151928	80.3518820861678	71	127
80.32866213151928	80.39832199546485	65	127
80.32866213151928	80.3518820861678	74	127
80.32866213151928	80.3518820861678	81	127
80.3518820861678	80.45637188208617	79	127
80.3518820861678	80.51442176870748	71	127
80.3518820861678	80.51442176870748	74	127
80.52603174603175	80.72340136054422	74	127
80.52603174603175	80.83950113378685	64	127
80.52603174603175	80.68854875283446	79	127
80.52603174603175	80.72340136054422	71	127
80.73501133786849	80.93238095238095	74	127
80.73501133786849	80.89755102040816	79	127
80.73501133786849	80.93238095238095	71	127
80.94399092970522	81.12975056689342	64	127
80.94399092970522	81.12975056689342	72	127
80.94399092970522	81.14136054421769	79	127
80.94399092970522	81.25746031746031	67	127
81.14136054421769	81.35034013605443	64	127
81.14136054421769	81.3038775510204	76	127
81.14136054421769	81.35034013605443	72	127
81.35034013605443	81.57092970521542	72	127
81.35034013605443	81.66380952380952	67	127
81.35034013605443	81.52448979591837	76	127
81.35034013605443	81.57092970521542	64	127
81.57092970521542	81.72185941043084	77	127
81.57092970521542	81.77990929705216	64	127
81.57092970521542	81.77990929705216	72	127
81.79151927437641	81.93083900226758	72	127
81.79151927437641	82.0469387755102	69	127
81.79151927437641	81.90761904761905	77	127
81.79151927437641	81.93083900226758	64	127
81.94242630385487	82.081768707483	78	127
81.94242630385487	82.15142857142857	60	127
81.94242630385487	82.15142857142857	72	127
82.16303854875284	82.30235827664399	78	127
82.16303854875284	82.30235827664399	76	127
82.16303854875284	82.41845804988662	69	127
82.16303854875284	82.30235827664399	60	127
82.31396825396826	82.53455782312925	76	127
82.31396825396826	82.47650793650794	79	127
82.31396825396826	82.53455782312925	72	127
82.54616780045352	82.66226757369614	64	127
82.54616780045352	82.66226757369614	81	127
82.54616780045352	82.66226757369614	76	127
82.54616780045352	82.66226757369614	72	127
82.66226757369614	82.74353741496599	76	127
82.66226757369614	82.74353741496599	64	127
82.66226757369614	82.74353741496599	80	127
82.66226757369614	82.74353741496599	71	127
82.75514739229025	82.8944671201814	74	127
82.75514739229025	82.8944671201814	64	127
82.75514739229025	82.8944671201814	80	127
82.75514739229025	82.8944671201814	71	127
82.8944671201814	83.04539682539682	71	127
82.8944671201814	83.05700680272109	80	127
82.8944671201814	83.04539682539682	74	127
82.8944671201814	83.04539682539682	64	127
83.05700680272109	83.19630385487528	74	127
83.05700680272109	83.19630385487528	64	127
83.05700680272109	83.19630385487528	81	127
83.05700680272109	83.19630385487528	71	127
83.20793650793651	83.26598639455783	74	127
83.20793650793651	83.26598639455783	64	127
83.20793650793651	83.26598639455783	81	127
83.20793650793651	83.26598639455783	71	127
83.27759637188208	83.41691609977325	74	127
83.27759637188208	83.41691609977325	71	127
83.27759637188208	83.41691609977325	65	127
83.27759637188208	83.4285260770975	81	127
83.4285260770975	83.57943310657596	71	127
83.4285260770975	83.57943310657596	65	127
83.4285260770975	83.57943310657596	80	127
83.4285260770975	83.57943310657596	74	127
83.59106575963719	83.68394557823129	74	127
83.59106575963719	83.68394557823129	65	127
83.59106575963719	83.68394557823129	80	127
83.59106575963719	83.68394557823129	71	127
83.68394557823129	83.75360544217688	71	127
83.68394557823129	83.76521541950113	80	127
83.68394557823129	83.75360544217688	74	127
83.68394557823129	83.75360544217688	65	127
83.76521541950113	83.89292517006803	74	127
83.76521541950113	83.89292517006803	65	127
83.76521541950113	83.89292517006803	79	127
83.76521541950113	83.89292517006803	71	127
83.9045351473923	84.03224489795919	71	127
83.9045351473923	84.03224489795919	79	127
83.9045351473923	84.03224489795919	74	127
83.9045351473923	84.03224489795919	65	127
84.04385487528344	84.1831746031746	67	127
84.04385487528344	84.1831746031746	64	127
84.04385487528344	84.1831746031746	72	127
84.04385487528344	84.19478458049886	79	127
84.19478458049886	84.34569160997732	72	127
84.19478458049886	84.34569160997732	76	127
84.19478458049886	84.34569160997732	64	127
84.19478458049886	84.34569160997732	67	127
84.34569160997732	84.47340136054422	64	127
84.34569160997732	84.47340136054422	67	127
84.34569160997732	84.47340136054422	77	127
84.34569160997732	84.47340136054422	72	127
84.48503401360544	84.63596371882086	59	127
84.48503401360544	84.63596371882086	77	127
84.48503401360544	84.63596371882086	74	127
84.48503401360544	84.63596371882086	67	127
84.63596371882086	84.77528344671202	74	127
84.63596371882086	84.77528344671202	67	127
84.63596371882086	84.77528344671202	78	127
84.63596371882086	84.77528344671202	59	127
84.78689342403628	84.91460317460317	74	127
84.78689342403628	84.91460317460317	67	127
84.78689342403628	84.91460317460317	79	127
84.78689342403628	84.91460317460317	59	127
84.91460317460317	85.04231292517007	60	127
84.91460317460317	85.05392290249434	79	127
84.91460317460317	85.04231292517007	69	127
84.91460317460317	85.04231292517007	67	127
85.05392290249434	85.1584126984127	69	127
85.05392290249434	85.1584126984127	60	127
85.05392290249434	85.1584126984127	67	127
85.05392290249434	85.1584126984127	81	127
85.1584126984127	85.26290249433107	67	127
85.1584126984127	85.27451247165533	79	127
85.1584126984127	85.26290249433107	69	127
85.1584126984127	85.26290249433107	60	127
85.27451247165533	85.39061224489797	62	127
85.27451247165533	85.40222222222222	77	127
85.27451247165533	85.39061224489797	71	127
85.27451247165533	85.39061224489797	67	127
85.40222222222222	85.50671201814059	62	127
85.40222222222222	85.51832199546486	76	127
85.40222222222222	85.50671201814059	71	127
85.40222222222222	85.50671201814059	67	127
85.51832199546486	85.70408163265306	74	127
85.51832199546486	85.6924716553288	71	127
85.51832199546486	85.6924716553288	62	127
85.51832199546486	85.6924716553288	67	127
85.70408163265306	86.49353741496599	72	127
85.70408163265306	86.49353741496599	64	127
85.70408163265306	88.2350566893424	67	127
85.70408163265306	86.49353741496599	48	127
86.50517006802721	87.27142857142857	65	127
86.50517006802721	86.65609977324263	71	127
86.50517006802721	87.27142857142857	50	127
86.65609977324263	86.78380952380952	81	127
86.78380952380952	86.92312925170069	79	127
86.92312925170069	87.01600907029479	77	127
87.01600907029479	87.14371882086168	76	127
87.14371882086168	87.28301587301587	74	127
87.28301587301587	87.46879818594104	67	127
87.28301587301587	87.46879818594104	72	127
87.28301587301587	87.46879818594104	52	127
87.59650793650793	87.94480725623583	62	127
87.59650793650793	87.94480725623583	74	127
87.59650793650793	87.94480725623583	57	127
87.59650793650793	87.94480725623583	53	127
88.08412698412698	88.43242630385488	55	127
88.08412698412698	88.2350566893424	59	127
88.08412698412698	88.2350566893424	62	127
88.08412698412698	88.43242630385488	67	127
88.2350566893424	88.39759637188209	41	127
88.2350566893424	88.39759637188209	69	127
88.39759637188209	88.52530612244898	67	127
88.39759637188209	88.51369614512471	43	127
88.52530612244898	88.60657596371883	65	127
88.52530612244898	88.59496598639456	43	127
88.60657596371883	88.75750566893424	45	127
88.60657596371883	88.7691156462585	64	127
88.7691156462585	88.92002267573696	62	127
88.7691156462585	88.90843537414966	47	127
88.92002267573696	89.75596371882087	64	127
88.92002267573696	90.51061224489796	55	127
88.92002267573696	89.75596371882087	48	127
88.92002267573696	89.75596371882087	52	127
89.0825850340136	89.2102947845805	79	127
89.2102947845805	89.33800453514739	77	127
89.33800453514739	89.48893424036281	76	127
89.48893424036281	89.6166439909297	74	127
89.6166439909297	89.76757369614512	72	127
89.76757369614512	90.51061224489796	50	127
89.76757369614512	90.64993197278912	67	127
89.76757369614512	89.89528344671201	71	127
89.76757369614512	90.51061224489796	53	127
89.89528344671201	90.02299319727891	81	127
90.02299319727891	90.1855328798186	79	127
90.1855328798186	90.25519274376417	77	127
90.25519274376417	90.37129251700681	76	127
90.37129251700681	90.51061224489796	74	127
90.51061224489796	90.83566893424036	55	127
90.51061224489796	90.83566893424036	72	127
90.51061224489796	90.83566893424036	52	127
90.66154195011337	90.80086167800454	69	127
90.80086167800454	90.96337868480725	67	127
90.96337868480725	91.30009070294784	53	127
90.96337868480725	91.30009070294784	86	127
90.96337868480725	91.11433106575964	65	127
90.96337868480725	91.30009070294784	57	127
91.11433106575964	91.26526077097506	64	127
91.26526077097506	91.39297052154195	62	127
91.39297052154195	91.72965986394559	55	127
91.39297052154195	91.54390022675737	55	127
91.39297052154195	91.72965986394559	79	127
91.39297052154195	91.72965986394559	64	127
91.54390022675737	91.70641723356009	57	127
91.70641723356009	91.84575963718821	55	127
91.84575963718821	92.13600907029479	74	127
91.84575963718821	92.13600907029479	83	127
91.84575963718821	92.13600907029479	43	127
91.84575963718821	91.95024943310658	53	127
91.95024943310658	92.08954648526077	52	127
92.08954648526077	92.28693877551021	50	127
92.29854875283446	92.75133786848073	52	127
92.29854875283446	92.75133786848073	40	127
92.29854875283446	92.75133786848073	85	127
92.29854875283446	92.75133786848073	67	127
92.29854875283446	92.75133786848073	69	127
93.51759637188209	93.63369614512472	76	127
93.63369614512472	93.81945578231293	69	127
93.63369614512472	94.36510204081632	69	127
93.63369614512472	93.91233560090703	67	127
93.81945578231293	93.9239455782313	73	127
93.9239455782313	94.36510204081632	65	127
93.9239455782313	94.36510204081632	74	127
95.18943310657596	95.3055328798186	62	127
95.3055328798186	95.64222222222222	50	127
95.3055328798186	95.64222222222222	43	127
95.3055328798186	95.52612244897959	55	127
95.3055328798186	95.64222222222222	65	127
95.52612244897959	95.65383219954649	59	127
95.65383219954649	95.99052154195012	48	127
95.65383219954649	95.99052154195012	36	127
95.65383219954649	95.99052154195012	64	127
95.65383219954649	95.99052154195012	60	127
96.82643990929705	96.94253968253969	88	127
96.94253968253969	97.8132879818594	69	127
96.94253968253969	97.17473922902494	81	127
96.94253968253969	97.39532879818594	76	127
96.94253968253969	97.39532879818594	67	127
97.17473922902494	97.4069387755102	85	127
97.4069387755102	97.8132879818594	65	127
97.4069387755102	97.8132879818594	86	127
97.4069387755102	97.8132879818594	74	127
98.66081632653061	98.7885260770975	62	127
98.7885260770975	99.65927437641723	43	127
98.7885260770975	98.84657596371882	55	127
98.7885260770975	99.65927437641723	59	127
98.7885260770975	99.65927437641723	50	127
98.7885260770975	99.65927437641723	55	127
98.84657596371882	99.09038548752835	59	127
99.09038548752835	99.65927437641723	62	127
100.27460317460317	101.12213151927438	50	127
101.13374149659865	102.20185941043084	40	127
102.2134693877551	103.02616780045352	47	127
103.03777777777778	103.9433560090703	45	127
103.95496598639455	104.9766439909297	52	127
104.86054421768708	104.93020408163265	59	127
104.93020408163265	104.98825396825397	60	127
104.98825396825397	105.90544217687075	42	127
104.98825396825397	105.90544217687075	62	127
105.917052154195	106.53238095238095	57	127
105.917052154195	106.63687074829932	48	127
106.53238095238095	106.64848072562359	59	127
106.64848072562359	107.12448979591836	55	127
106.64848072562359	107.62371882086168	47	127
107.62371882086168	108.54090702947846	79	127
108.42480725623582	108.48285714285714	62	127
108.48285714285714	108.55251700680272	64	127
108.55251700680272	109.41165532879819	65	127
108.55251700680272	109.41165532879819	69	127
109.42326530612245	110.2243537414966	60	127
109.42326530612245	110.32884353741497	76	127
110.2243537414966	110.32884353741497	62	127
110.34045351473922	111.04866213151928	74	127
110.34045351473922	110.47977324263039	43	127
110.34045351473922	111.04866213151928	59	127
110.49138321995464	110.64231292517007	47	127
110.65392290249433	110.77002267573697	50	127
110.78163265306122	110.81646258503402	55	127
110.81646258503402	110.95578231292517	59	127
110.95578231292517	111.04866213151928	62	127
111.06027210884353	111.83814058956916	81	127
111.06027210884353	111.53628117913833	65	127
111.72204081632653	111.79170068027211	40	127
111.79170068027211	111.84975056689342	41	127
111.84975056689342	112.69727891156462	43	127
111.84975056689342	112.69727891156462	71	127
112.7088888888889	113.5564172335601	77	127
112.7088888888889	113.45192743764173	38	127
113.45192743764173	113.5564172335601	39	127
113.56802721088435	114.45038548752835	75	127
113.56802721088435	114.45038548752835	36	127
113.56802721088435	113.73056689342404	60	127
113.7421768707483	113.89310657596371	63	127
113.89310657596371	114.00920634920635	67	127
114.00920634920635	114.13691609977325	72	127
114.1485260770975	114.28784580498866	75	127
114.29945578231292	114.45038548752835	79	127
114.45038548752835	114.79868480725624	84	127
114.45038548752835	115.27469387755102	63	127
115.17020408163265	115.22825396825397	70	127
115.22825396825397	115.28630385487529	72	127
115.28630385487529	116.05256235827665	73	127
115.28630385487529	116.05256235827665	53	127
116.0641723356009	116.90009070294785	60	127
116.0641723356009	116.78399092970521	69	127
116.78399092970521	116.90009070294785	70	127
116.9117006802721	117.77083900226758	67	127
116.9117006802721	117.77083900226758	58	127
116.9117006802721	117.05102040816327	67	127
117.06263038548752	117.17873015873016	70	127
117.19034013605442	117.34126984126983	73	127
117.3528798185941	117.46897959183673	79	127
117.480589569161	117.64312925170069	82	127
117.65473922902494	117.77083900226758	85	127
117.78244897959183	118.59514739229024	65	127
117.78244897959183	120.08122448979591	39	127
117.78244897959183	118.22362811791383	85	127
117.78244897959183	118.59514739229024	73	127
118.47904761904762	118.5487074829932	84	127
118.5487074829932	118.60675736961451	85	127
118.60675736961451	119.41945578231292	63	127
118.60675736961451	119.41945578231292	87	127
118.60675736961451	119.41945578231292	55	127
119.43106575963719	120.1508843537415	70	127
119.43106575963719	120.08122448979591	82	127
119.43106575963719	120.1508843537415	61	127
120.08122448979591	120.11605442176871	48	127
120.08122448979591	120.1508843537415	84	127
120.11605442176871	120.1508843537415	49	127
120.1508843537415	121.10290249433106	68	127
120.1508843537415	121.10290249433106	51	127
120.1508843537415	120.29020408163265	48	127
120.1508843537415	121.10290249433106	80	127
120.30181405895692	120.42952380952381	51	127
120.44113378684807	120.60367346938776	56	127
120.60367346938776	120.76621315192743	60	127
120.7778231292517	120.92875283446712	63	127
120.94036281179139	121.10290249433106	68	127
121.11451247165533	122.02009070294784	75	127
121.11451247165533	121.78789115646258	67	127
121.11451247165533	121.78789115646258	46	127
121.78789115646258	121.91560090702947	48	127
121.78789115646258	121.91560090702947	69	127
121.91560090702947	121.97365079365079	49	127
121.91560090702947	121.97365079365079	46	127
121.97365079365079	122.03170068027211	51	127
121.97365079365079	122.03170068027211	48	127
122.03170068027211	122.7282993197279	65	127
122.03170068027211	122.7282993197279	49	127
122.03170068027211	122.7282993197279	53	127
122.73990929705215	123.6338775510204	72	127
122.73990929705215	123.6338775510204	44	127
122.73990929705215	123.5409977324263	48	127
123.5409977324263	123.6338775510204	49	127
123.64548752834467	124.41174603174603	70	127
123.64548752834467	124.02861678004535	49	127
123.64548752834467	123.7615873015873	70	127
123.64548752834467	124.41174603174603	43	127
123.77319727891157	123.91251700680272	73	127
123.91251700680272	124.02861678004535	77	127
124.04022675736961	124.41174603174603	61	127
124.04022675736961	124.1679365079365	82	127
124.17954648526077	124.31886621315192	85	127
124.31886621315192	124.41174603174603	89	127
124.42335600907029	125.2708843537415	77	127
124.42335600907029	124.88775510204081	89	127
124.42335600907029	125.10834467120182	60	127
124.42335600907029	125.15478458049887	45	127
125.10834467120182	125.15478458049887	61	127
125.15478458049887	125.2708843537415	46	127
125.15478458049887	125.22444444444444	58	127
125.22444444444444	125.2708843537415	60	127
125.2708843537415	126.07197278911565	67	127
125.2708843537415	126.07197278911565	75	127
125.2708843537415	126.07197278911565	61	127
125.2708843537415	126.07197278911565	46	127
126.0835827664399	126.71052154195011	82	127
126.0835827664399	126.59442176870748	56	127
126.0835827664399	126.83823129251701	73	127
126.0835827664399	126.83823129251701	63	127
126.0835827664399	126.72213151927437	41	127
126.59442176870748	126.72213151927437	58	127
126.72213151927437	126.83823129251701	43	127
126.72213151927437	126.78018140589569	84	127
126.72213151927437	126.78018140589569	56	127
126.78018140589569	126.83823129251701	85	127
126.78018140589569	126.83823129251701	58	127
126.83823129251701	127.75541950113379	87	127
126.83823129251701	127.75541950113379	44	127
126.83823129251701	127.0007709750567	72	127
126.83823129251701	127.75541950113379	60	127
127.01238095238095	127.16331065759637	63	127
127.17492063492064	127.31424036281179	68	127
127.32585034013606	127.4651700680272	72	127
127.47678004535148	127.58126984126984	75	127
127.5928798185941	127.75541950113379	80	127
127.76702947845806	128.52167800453515	42	127
127.76702947845806	128.10371882086167	75	127
127.76702947845806	128.27786848072563	82	127
127.76702947845806	128.4055782312925	61	127
128.27786848072563	128.4055782312925	84	127
128.4055782312925	128.46362811791383	81	127
128.4055782312925	128.46362811791383	72	127
128.4055782312925	128.52167800453515	63	127
128.46362811791383	128.53328798185942	82	127
128.46362811791383	128.53328798185942	73	127
128.53328798185942	129.47367346938776	75	127
128.53328798185942	129.47367346938776	84	127
128.53328798185942	128.6958276643991	41	127
128.53328798185942	129.47367346938776	63	127
128.7074149659864	128.86997732426303	45	127
128.8815873015873	129.02090702947845	48	127
129.03251700680272	129.17183673469387	53	127
129.18344671201814	129.31115646258505	57	127
129.3227664399093	129.47367346938776	60	127
129.47367346938776	130.05419501133787	76	127
129.47367346938776	129.61301587301588	53	127
129.47367346938776	130.05419501133787	70	127
129.47367346938776	130.05419501133787	79	127
129.61301587301588	129.7639455782313	57	127
129.7639455782313	129.90326530612245	60	127
129.91487528344672	129.99614512471655	65	127
130.00775510204082	130.05419501133787	69	127
130.05419501133787	130.10063492063492	72	127
130.05419501133787	130.10063492063492	81	127
130.05419501133787	130.10063492063492	72	127
130.05419501133787	130.10063492063492	77	127
130.1122448979592	130.32122448979592	77	127
130.1122448979592	130.32122448979592	65	127
130.1122448979592	130.32122448979592	72	127
130.1122448979592	130.32122448979592	81	127
130.1122448979592	130.32122448979592	69	127
130.1122448979592	130.32122448979592	72	127
130.43732426303856	130.5185941043084	60	127
130.43732426303856	130.5185941043084	84	127
130.43732426303856	130.5185941043084	72	127
130.43732426303856	130.5185941043084	48	127
130.5185941043084	130.7507709750567	53	127
130.5185941043084	130.7507709750567	41	127
130.5185941043084	130.7507709750567	77	127
130.5185941043084	130.7507709750567	65	127
130.7507709750567	130.9249433106576	69	127
130.7507709750567	130.9249433106576	45	127
130.7507709750567	130.9249433106576	81	127
130.7507709750567	130.9249433106576	57	127
130.9249433106576	131.4241723356009	72	127
130.9249433106576	131.4241723356009	48	127
130.9249433106576	131.4241723356009	84	127
130.9249433106576	131.4241723356009	60	127
132.85219954648525	132.9682993197279	60	127
132.9682993197279	133.17727891156463	53	127
133.17727891156463	133.3746485260771	57	127
133.3746485260771	133.73455782312925	58	127
133.66487528344672	133.73455782312925	74	127
133.73455782312925	133.93192743764172	65	127
133.93192743764172	134.164126984127	70	127
134.164126984127	134.54725623582766	72	127
134.4427664399093	134.54725623582766	75	127
134.54725623582766	134.72140589569162	65	127
134.72140589569162	134.91877551020409	72	127
134.91877551020409	135.22063492063492	74	127
135.22063492063492	135.31351473922902	75	127
135.31351473922902	135.61537414965986	58	127
135.31351473922902	135.61537414965986	62	127
135.31351473922902	135.99850340136055	77	127
135.61537414965986	135.7314739229025	60	127
135.61537414965986	135.7314739229025	63	127
135.7314739229025	135.99850340136055	65	127
135.7314739229025	135.99850340136055	62	127
135.99850340136055	136.11458049886622	67	127
135.99850340136055	136.11458049886622	43	127
135.99850340136055	136.11458049886622	79	127
135.99850340136055	136.11458049886622	55	127
136.11458049886622	136.3003628117914	60	127
136.11458049886622	136.3003628117914	36	127
136.11458049886622	136.3003628117914	72	127
136.11458049886622	136.3003628117914	48	127
136.3003628117914	136.50934240362812	64	127
136.3003628117914	136.50934240362812	40	127
136.3003628117914	136.50934240362812	76	127
136.3003628117914	136.50934240362812	52	127
136.50934240362812	136.9273015873016	55	127
136.50934240362812	136.9273015873016	43	127
136.50934240362812	136.9273015873016	79	127
136.50934240362812	136.9273015873016	67	127
137.6819501133787	137.79804988662133	67	127
137.79804988662133	137.98380952380953	60	127
137.98380952380953	138.16956916099772	64	127
138.16956916099772	138.3088888888889	65	127
138.41337868480727	138.52947845804988	69	127
138.52947845804988	138.8081179138322	57	127
138.52947845804988	138.7152380952381	60	127
138.52947845804988	138.8081179138322	60	127
138.7152380952381	138.92421768707484	65	127
138.92421768707484	139.2492970521542	60	127
138.92421768707484	139.2492970521542	55	127
138.92421768707484	139.14480725623582	67	127
139.26090702947846	139.3770068027211	70	127
139.3770068027211	139.5627664399093	60	127
139.3770068027211	139.64401360544218	52	127
139.3770068027211	139.64401360544218	55	127
139.5627664399093	139.76013605442176	67	127
139.76013605442176	140.0968253968254	69	127
140.0968253968254	140.1897052154195	70	127
140.1897052154195	141.3507029478458	53	127
140.1897052154195	140.5380045351474	57	127
140.1897052154195	140.89791383219955	72	127
140.1897052154195	141.3507029478458	69	127
140.5380045351474	140.64249433106576	58	127
140.64249433106576	141.3507029478458	60	127
141.36231292517007	141.6990022675737	69	127
141.6990022675737	141.81510204081633	70	127
141.81510204081633	142.94126984126984	72	127
141.81510204081633	143.54498866213152	69	127
141.81510204081633	143.54498866213152	65	127
141.81510204081633	142.2330612244898	81	127
142.2330612244898	142.37238095238095	82	127
142.37238095238095	143.54498866213152	84	127
143.55659863945579	144.00938775510204	69	127
144.00938775510204	144.1138775510204	71	127
144.1138775510204	145.06589569160997	53	127
144.1138775510204	144.43895691609978	57	127
144.1138775510204	144.56666666666666	72	127
144.43895691609978	144.57827664399093	59	127
144.57827664399093	145.5651247165533	60	127
144.57827664399093	144.94979591836736	72	127
144.57827664399093	144.94979591836736	81	127
144.94979591836736	145.07750566893424	74	127
144.94979591836736	145.07750566893424	83	127
145.07750566893424	145.44902494331066	72	127
145.07750566893424	145.5651247165533	76	127
145.07750566893424	145.5651247165533	52	127
145.44902494331066	145.5767120181406	74	127
145.5767120181406	146.05274376417233	69	127
145.5767120181406	146.05274376417233	76	127
145.5767120181406	145.72764172335602	72	127
145.5767120181406	145.9366439909297	52	127
145.73927437641723	145.89020408163265	74	127
145.90181405895692	146.05274376417233	76	127
146.05274376417233	146.19206349206348	76	127
146.05274376417233	146.389410430839	57	127
146.20367346938775	146.35460317460317	76	127
146.35460317460317	146.48231292517008	76	127
146.40104308390022	146.45909297052154	36	127
146.45909297052154	146.49390022675738	38	127
146.49390022675738	146.62163265306123	74	127
146.49390022675738	146.9118820861678	56	127
146.49390022675738	146.9118820861678	40	127
146.49390022675738	146.79578231292518	52	127
146.6332426303855	146.77256235827664	72	127
146.7841723356009	146.9118820861678	71	127
146.92349206349206	147.21374149659863	56	127
146.92349206349206	147.0628117913832	71	127
147.07442176870748	147.21374149659863	71	127
147.21374149659863	147.27179138321995	71	127
147.28340136054422	147.51557823129252	52	127
147.28340136054422	147.42272108843537	72	127
147.28340136054422	147.51557823129252	45	127
147.43433106575964	147.48077097505669	71	127
147.48077097505669	147.6317006802721	69	127
147.64331065759637	147.93356009070294	56	127
147.64331065759637	147.93356009070294	40	127
147.64331065759637	147.78263038548752	71	127
147.78263038548752	147.89873015873016	69	127
147.91034013605443	148.0380498866213	68	127
147.9451700680272	147.99160997732426	61	127
147.99160997732426	148.04965986394558	62	127
148.04965986394558	148.28183673469388	45	127
148.04965986394558	148.28183673469388	52	127
148.04965986394558	148.16575963718822	69	127
148.04965986394558	148.39795918367346	64	127
148.17734693877551	148.23541950113378	73	127
148.24702947845805	148.39795918367346	74	127
148.40956916099773	148.72303854875284	61	127
148.40956916099773	148.52566893424037	76	127
148.53725623582767	148.68820861678006	77	127
148.6998185941043	148.83913832199548	79	127
148.85074829931972	148.87396825396826	77	127
148.85074829931972	148.87396825396826	65	127
148.85074829931972	148.87396825396826	62	127
148.87396825396826	148.88557823129253	69	127
148.88557823129253	149.21065759637187	86	127
148.88557823129253	149.02489795918368	69	127
149.03650793650795	149.18743764172336	69	127
149.11777777777777	149.43124716553288	65	127
149.18743764172336	149.31514739229024	69	127
149.3267573696145	149.66342403628119	81	127
149.3267573696145	149.46607709750566	67	127
149.47768707482993	149.62861678004535	65	127
149.55893424036282	149.8956462585034	64	127
149.64022675736962	149.77954648526077	64	127
149.79115646258504	149.93047619047618	64	127
149.79115646258504	150.09301587301587	85	127
149.93047619047618	150.04657596371882	64	127
150.0581859410431	150.2091156462585	64	127
150.22072562358278	150.38326530612244	65	127
150.22072562358278	150.34843537414966	69	127
150.22072562358278	150.58061224489796	86	127
150.3948752834467	150.54580498866213	64	127
150.3948752834467	150.54580498866213	67	127
150.54580498866213	150.69673469387754	62	127
150.54580498866213	150.69673469387754	65	127
150.70834467120181	150.83603174603175	64	127
150.70834467120181	150.99859410430838	81	127
150.70834467120181	150.83603174603175	67	127
150.83603174603175	150.9637641723356	62	127
150.83603174603175	150.9637641723356	65	127
150.97537414965987	151.10308390022675	61	127
150.97537414965987	151.10308390022675	64	127
150.99859410430838	151.0566439909297	38	127
151.0566439909297	151.11469387755102	40	127
151.11469387755102	151.4629931972789	42	127
151.11469387755102	151.25401360544217	62	127
151.11469387755102	151.25401360544217	66	127
151.11469387755102	151.34687074829932	86	127
151.25401360544217	151.32367346938776	64	127
151.25401360544217	151.32367346938776	67	127
151.32367346938776	151.4629931972789	66	127
151.32367346938776	151.4629931972789	69	127
151.47460317460317	151.61392290249432	69	127
151.47460317460317	151.61392290249432	66	127
151.6255328798186	151.776462585034	64	127
151.6255328798186	151.776462585034	67	127
151.78807256235828	151.92739229024943	62	127
151.78807256235828	151.92739229024943	66	127
151.92739229024943	152.17120181405895	62	127
151.92739229024943	152.17120181405895	38	127
151.92739229024943	152.0318820861678	71	127
152.04349206349207	152.1247619047619	72	127
152.13637188208617	152.28730158730158	74	127
152.17120181405895	152.22925170068027	83	127
152.22925170068027	152.28730158730158	84	127
152.28730158730158	152.5775283446712	43	127
152.28730158730158	152.5775283446712	59	127
152.28730158730158	152.6936507936508	86	127
152.28730158730158	152.4150113378685	74	127
152.4265986394558	152.5775283446712	74	127
152.5775283446712	152.6936507936508	74	127
152.70526077097506	152.94907029478458	66	127
152.70526077097506	152.94907029478458	38	127
152.70526077097506	152.7865306122449	72	127
152.79814058956916	152.93743764172336	71	127
152.93743764172336	153.06517006802721	69	127
152.96068027210885	153.01873015873016	81	127
153.01873015873016	153.07678004535148	84	127
153.07678004535148	153.35541950113378	57	127
153.07678004535148	153.45990929705215	86	127
153.07678004535148	153.20448979591836	69	127
153.07678004535148	153.35541950113378	42	127
153.07678004535148	153.35541950113378	62	127
153.20448979591836	153.30897959183673	69	127
153.320589569161	153.45990929705215	69	127
153.47151927437642	153.7965986394558	62	127
153.47151927437642	153.7965986394558	43	127
153.47151927437642	153.61083900226757	71	127
153.47151927437642	153.7965986394558	59	127
153.62244897959184	153.761768707483	69	127
153.761768707483	153.9126984126984	67	127
153.80820861678004	153.86625850340135	74	127
153.86625850340135	153.92430839002267	84	127
153.92430839002267	154.24938775510205	38	127
153.92430839002267	154.24938775510205	62	127
153.92430839002267	154.30743764172337	86	127
153.92430839002267	154.0752380952381	69	127
153.92430839002267	154.24938775510205	60	127
154.0752380952381	154.2145351473923	67	127
154.2261678004535	154.30743764172337	66	127
154.30743764172337	154.55124716553289	43	127
154.30743764172337	154.66734693877552	67	127
154.30743764172337	154.37709750566893	71	127
154.3887074829932	154.50480725623584	69	127
154.51639455782313	154.66734693877552	67	127
154.56285714285715	154.6208843537415	74	127
154.6208843537415	154.67895691609976	83	127
154.67895691609976	154.96920634920636	86	127
154.67895691609976	154.80666666666667	67	127
154.81827664399094	154.96920634920636	69	127
154.98079365079366	155.13172335600908	74	127
154.98079365079366	155.2710657596372	43	127
154.98079365079366	155.13172335600908	83	127
154.98079365079366	155.13172335600908	55	127
155.13172335600908	155.22462585034015	72	127
155.13172335600908	155.22462585034015	81	127
155.13172335600908	155.22462585034015	57	127
155.23621315192744	155.37555555555556	71	127
155.23621315192744	155.37555555555556	57	127
155.23621315192744	155.37555555555556	79	127
155.23621315192744	155.37555555555556	59	127
155.37555555555556	155.50326530612244	69	127
155.37555555555556	155.6077551020408	38	127
155.37555555555556	155.50326530612244	78	127
155.37555555555556	155.50326530612244	57	127
155.5148752834467	155.57292517006803	71	127
155.5148752834467	155.57292517006803	79	127
155.5148752834467	155.57292517006803	59	127
155.57292517006803	155.72385487528345	81	127
155.57292517006803	155.72385487528345	60	127
155.57292517006803	155.72385487528345	72	127
155.73546485260772	156.06054421768707	43	127
155.73546485260772	155.87478458049887	79	127
155.73546485260772	155.87478458049887	71	127
155.73546485260772	155.87478458049887	59	127
155.88639455782314	156.0257142857143	60	127
155.88639455782314	156.0257142857143	81	127
155.88639455782314	156.0257142857143	69	127
156.03732426303856	156.1766439909297	67	127
156.03732426303856	156.1766439909297	83	127
156.03732426303856	156.1766439909297	62	127
156.07215419501134	156.13020408163266	64	127
156.13020408163266	156.18825396825397	66	127
156.18825396825397	156.31596371882085	67	127
156.18825396825397	156.46689342403627	67	127
156.18825396825397	156.31596371882085	83	127
156.18825396825397	156.31596371882085	59	127
156.32757369614512	156.44367346938776	66	127
156.32757369614512	156.44367346938776	81	127
156.32757369614512	156.44367346938776	60	127
156.44367346938776	156.54816326530613	79	127
156.44367346938776	156.54816326530613	59	127
156.44367346938776	156.54816326530613	67	127
156.5597732426304	156.78036281179138	43	127
156.5597732426304	156.64104308390023	86	127
156.5597732426304	156.64104308390023	71	127
156.5597732426304	156.64104308390023	67	127
156.64104308390023	156.7455328798186	72	127
156.64104308390023	156.7455328798186	69	127
156.64104308390023	156.7455328798186	84	127
156.7455328798186	156.89646258503402	83	127
156.7455328798186	156.89646258503402	74	127
156.7455328798186	156.89646258503402	71	127
156.90807256235829	157.04739229024943	76	127
156.90807256235829	157.20993197278912	38	127
156.90807256235829	157.04739229024943	81	127
156.90807256235829	157.04739229024943	72	127
157.04739229024943	157.17507936507937	74	127
157.04739229024943	157.17507936507937	83	127
157.04739229024943	157.17507936507937	71	127
157.18671201814058	157.32603174603176	84	127
157.18671201814058	157.32603174603176	69	127
157.18671201814058	157.32603174603176	78	127
157.337641723356	157.43049886621316	79	127
157.337641723356	157.58145124716555	43	127
157.337641723356	157.43049886621316	83	127
157.337641723356	157.43049886621316	67	127
157.44213151927437	157.53498866213152	69	127
157.44213151927437	157.53498866213152	84	127
157.44213151927437	157.53498866213152	63	127
157.54662131519274	157.68591836734694	71	127
157.54662131519274	157.68591836734694	86	127
157.54662131519274	157.68591836734694	62	127
157.5930612244898	157.6394784580499	64	127
157.6394784580499	157.69755102040816	66	127
157.69755102040816	157.7904081632653	59	127
157.69755102040816	157.91814058956916	67	127
157.69755102040816	157.7904081632653	86	127
157.69755102040816	157.7904081632653	71	127
157.7904081632653	157.89489795918368	69	127
157.7904081632653	157.89489795918368	84	127
157.7904081632653	157.89489795918368	60	127
157.9065306122449	157.999410430839	83	127
157.9065306122449	157.999410430839	67	127
157.9065306122449	157.999410430839	62	127
158.01102040816326	158.16195011337868	52	127
158.01102040816326	158.3477097505669	48	127
158.01102040816326	158.16195011337868	67	127
158.01102040816326	158.16195011337868	76	127
158.17356009070295	158.30124716553289	62	127
158.17356009070295	158.30124716553289	74	127
158.17356009070295	158.30124716553289	54	127
158.3128798185941	158.46380952380952	72	127
158.3128798185941	158.46380952380952	55	127
158.3128798185941	158.46380952380952	64	127
158.46380952380952	158.73083900226757	43	127
158.46380952380952	158.57990929705215	65	127
158.46380952380952	158.57990929705215	71	127
158.46380952380952	158.57990929705215	57	127
158.59151927437642	158.73083900226757	72	127
158.59151927437642	158.73083900226757	55	127
158.59151927437642	158.73083900226757	64	127
158.73083900226757	158.8469387755102	74	127
158.73083900226757	158.8469387755102	54	127
158.73083900226757	158.8469387755102	62	127
158.85854875283448	158.96303854875285	72	127
158.85854875283448	159.102358276644	48	127
158.85854875283448	158.96303854875285	64	127
158.85854875283448	158.96303854875285	55	127
158.9746485260771	159.09074829931973	74	127
158.9746485260771	159.09074829931973	62	127
158.9746485260771	159.09074829931973	54	127
159.09074829931973	159.20684807256237	76	127
159.09074829931973	159.20684807256237	60	127
159.09074829931973	159.20684807256237	52	127
159.11396825396827	159.16040816326532	57	127
159.16040816326532	159.21845804988664	59	127
159.21845804988664	159.35777777777778	76	127
159.21845804988664	159.47387755102042	60	127
159.21845804988664	159.35777777777778	60	127
159.21845804988664	159.35777777777778	52	127
159.36938775510205	159.4274149659864	74	127
159.36938775510205	159.4274149659864	62	127
159.36938775510205	159.4274149659864	54	127
159.4390476190476	159.57834467120182	64	127
159.4390476190476	159.57834467120182	72	127
159.4390476190476	159.57834467120182	55	127
159.58997732426303	159.7292970521542	64	127
159.58997732426303	159.89183673469387	60	127
159.58997732426303	159.7292970521542	79	127
159.58997732426303	159.7292970521542	60	127
159.74090702947845	159.8570068027211	62	127
159.74090702947845	159.8570068027211	77	127
159.74090702947845	159.8570068027211	60	127
159.8570068027211	159.99632653061224	76	127
159.8570068027211	159.99632653061224	60	127
159.8570068027211	159.99632653061224	60	127
159.99632653061224	160.12403628117914	59	127
159.99632653061224	160.28657596371883	57	127
159.99632653061224	160.12403628117914	74	127
159.99632653061224	160.12403628117914	60	127
160.12403628117914	160.25174603174602	60	127
160.12403628117914	160.25174603174602	76	127
160.12403628117914	160.25174603174602	60	127
160.2633560090703	160.36784580498866	77	127
160.2633560090703	160.36784580498866	60	127
160.2633560090703	160.36784580498866	62	127
160.37945578231293	160.51877551020408	60	127
160.37945578231293	160.51877551020408	76	127
160.37945578231293	160.51877551020408	60	127
160.37945578231293	160.69292517006804	60	127
160.53038548752835	160.65809523809523	77	127
160.53038548752835	160.65809523809523	62	127
160.53038548752835	160.65809523809523	60	127
160.65809523809523	160.78580498866214	60	127
160.65809523809523	160.78580498866214	79	127
160.65809523809523	160.78580498866214	64	127
160.70451247165533	160.7625850340136	60	127
160.7625850340136	160.7974149659864	62	127
160.7974149659864	160.90190476190477	60	127
160.7974149659864	161.01800453514738	64	127
160.7974149659864	160.90190476190477	79	127
160.7974149659864	160.90190476190477	64	127
160.91351473922902	160.9831746031746	62	127
160.91351473922902	160.9831746031746	77	127
160.91351473922902	160.9831746031746	60	127
160.99478458049887	161.12249433106575	76	127
160.99478458049887	161.12249433106575	60	127
160.99478458049887	161.12249433106575	60	127
161.13410430839002	161.26181405895693	72	127
161.13410430839002	161.4591836734694	60	127
161.13410430839002	161.26181405895693	88	127
161.13410430839002	161.26181405895693	64	127
161.27342403628117	161.41274376417235	74	127
161.27342403628117	161.41274376417235	86	127
161.27342403628117	161.41274376417235	65	127
161.4243537414966	161.57526077097506	84	127
161.4243537414966	161.57526077097506	67	127
161.4243537414966	161.57526077097506	76	127
161.57526077097506	161.72619047619048	77	127
161.57526077097506	161.72619047619048	83	127
161.57526077097506	161.72619047619048	68	127
161.57526077097506	161.91197278911565	55	127
161.7378231292517	161.8771201814059	76	127
161.7378231292517	161.8771201814059	67	127
161.7378231292517	161.8771201814059	84	127
161.8771201814059	161.99324263038548	74	127
161.8771201814059	161.99324263038548	65	127
161.8771201814059	161.99324263038548	86	127
162.00485260770975	162.09773242630385	76	127
162.00485260770975	162.26027210884354	60	127
162.00485260770975	162.09773242630385	84	127
162.00485260770975	162.09773242630385	67	127
162.10934240362812	162.22544217687076	74	127
162.10934240362812	162.22544217687076	86	127
162.10934240362812	162.22544217687076	65	127
162.23702947845806	162.32993197278913	72	127
162.23702947845806	162.32993197278913	88	127
162.23702947845806	162.32993197278913	64	127
162.2718820861678	162.31832199546486	45	127
162.31832199546486	162.32993197278913	47	127
162.32993197278913	162.48086167800454	72	127
162.32993197278913	162.48086167800454	64	127
162.32993197278913	162.48086167800454	88	127
162.32993197278913	162.678231292517	48	127
162.49244897959184	162.63179138321996	65	127
162.49244897959184	162.63179138321996	74	127
162.49244897959184	162.63179138321996	86	127
162.64340136054423	162.72467120181406	76	127
162.64340136054423	162.72467120181406	84	127
162.64340136054423	162.72467120181406	67	127
162.72467120181406	162.8059410430839	55	127
162.72467120181406	162.8059410430839	48	127
162.72467120181406	162.8059410430839	91	127
162.72467120181406	162.8059410430839	64	127
162.81755102040816	162.9336507936508	62	127
162.81755102040816	162.9336507936508	48	127
162.81755102040816	162.9336507936508	89	127
162.81755102040816	162.9336507936508	55	127
162.9336507936508	163.07297052154195	60	127
162.9336507936508	163.07297052154195	48	127
162.9336507936508	163.07297052154195	88	127
162.9336507936508	163.07297052154195	55	127
163.08458049886622	163.22390022675737	68	127
163.08458049886622	163.22390022675737	43	127
163.08458049886622	163.22390022675737	86	127
163.08458049886622	163.22390022675737	53	127
163.22390022675737	163.36319727891157	67	127
163.22390022675737	163.36319727891157	43	127
163.22390022675737	163.36319727891157	88	127
163.22390022675737	163.36319727891157	52	127
163.36319727891157	163.45609977324264	65	127
163.36319727891157	163.45609977324264	43	127
163.36319727891157	163.45609977324264	89	127
163.36319727891157	163.45609977324264	50	127
163.46768707482994	163.5954195011338	67	127
163.46768707482994	163.5954195011338	88	127
163.46768707482994	163.5954195011338	52	127
163.46768707482994	163.5954195011338	48	127
163.60702947845806	163.7463492063492	50	127
163.60702947845806	163.7463492063492	36	127
163.60702947845806	163.7463492063492	89	127
163.60702947845806	163.7463492063492	65	127
163.7463492063492	163.85083900226758	64	127
163.7463492063492	163.85083900226758	36	127
163.7463492063492	163.85083900226758	91	127
163.7463492063492	163.85083900226758	48	127
163.86244897959185	163.9785260770975	76	127
163.86244897959185	163.9785260770975	37	127
163.86244897959185	163.9785260770975	91	127
163.86244897959185	163.9785260770975	58	127
163.99015873015873	164.07142857142858	77	127
163.99015873015873	164.07142857142858	37	127
163.99015873015873	164.07142857142858	58	127
163.99015873015873	164.07142857142858	93	127
164.07142857142858	164.17591836734695	94	127
164.07142857142858	164.17591836734695	37	127
164.07142857142858	164.17591836734695	79	127
164.07142857142858	164.11786848072563	55	127
164.11786848072563	164.1875283446712	57	127
164.1875283446712	164.96539682539682	58	127
164.1875283446712	164.3384580498866	37	127
164.1875283446712	164.61709750566894	94	127
164.1875283446712	164.3384580498866	79	127
164.35006802721088	164.51260770975057	37	127
164.35006802721088	164.51260770975057	81	127
164.52421768707484	164.61709750566894	37	127
164.52421768707484	164.61709750566894	82	127
164.6287074829932	164.74478458049887	37	127
164.6287074829932	164.74478458049887	82	127
164.7564172335601	164.83768707482994	82	127
164.7564172335601	164.83768707482994	37	127
164.83768707482994	164.96539682539682	37	127
164.83768707482994	164.96539682539682	82	127
164.9770068027211	166.14961451247166	82	127
164.9770068027211	166.14961451247166	70	127
164.9770068027211	165.5691156462585	53	127
164.98861678004536	165.13954648526078	37	127
165.15113378684808	165.25562358276645	37	127
165.26725623582766	165.3833560090703	37	127
165.39496598639457	165.52267573696145	37	127
165.53428571428572	165.68521541950113	37	127
165.5691156462585	165.68521541950113	55	127
165.68521541950113	165.83614512471655	37	127
165.68521541950113	166.14961451247166	52	127
165.84775510204082	165.99868480725624	37	127
165.99868480725624	166.14961451247166	37	127
166.16122448979593	166.2657142857143	37	127
166.16122448979593	166.4166439909297	77	127
166.16122448979593	166.4166439909297	65	127
166.2773015873016	166.39342403628117	37	127
166.40503401360544	166.52113378684808	37	127
166.4166439909297	166.53272108843538	79	127
166.4166439909297	166.53272108843538	67	127
166.53272108843538	166.9507029478458	76	127
166.53272108843538	166.73011337868482	36	127
166.53272108843538	166.73011337868482	64	127
166.84621315192743	166.96231292517007	46	127
166.84621315192743	166.96231292517007	70	127
166.84621315192743	166.96231292517007	58	127
166.96231292517007	167.18290249433107	65	127
166.96231292517007	167.18290249433107	53	127
166.96231292517007	167.18290249433107	41	127
167.18290249433107	167.38027210884354	55	127
167.18290249433107	167.38027210884354	43	127
167.18290249433107	167.38027210884354	67	127
167.38027210884354	167.79823129251702	40	127
167.38027210884354	167.79823129251702	64	127
167.38027210884354	167.79823129251702	52	127
168.59931972789116	168.7154195011338	67	127
168.59931972789116	168.7154195011338	55	127
168.7154195011338	168.901179138322	48	127
168.7154195011338	168.901179138322	60	127
168.901179138322	169.07532879818595	64	127
168.901179138322	169.07532879818595	52	127
169.07532879818595	169.23786848072564	65	127
169.07532879818595	169.23786848072564	53	127
169.35396825396825	169.47006802721089	81	127
169.35396825396825	169.47006802721089	57	127
169.35396825396825	169.47006802721089	69	127
169.47006802721089	169.6906575963719	60	127
169.47006802721089	169.6906575963719	48	127
169.47006802721089	169.6906575963719	72	127
169.6906575963719	169.8415873015873	65	127
169.6906575963719	169.8415873015873	53	127
169.6906575963719	169.8415873015873	77	127
169.8415873015873	170.06215419501135	67	127
169.8415873015873	170.20149659863947	79	127
169.8415873015873	170.06215419501135	55	127
170.17827664399093	170.21308390022676	58	127
170.17827664399093	170.21308390022676	70	127
170.21308390022676	170.4336961451247	60	127
170.21308390022676	170.4336961451247	48	127
170.4336961451247	170.64267573696145	55	127
170.4336961451247	170.64267573696145	67	127
170.64267573696145	170.95614512471656	69	127
170.64267573696145	170.95614512471656	57	127
170.95614512471656	171.04902494331066	58	127
170.95614512471656	171.04902494331066	70	127
171.04902494331066	171.67596371882087	72	127
171.04902494331066	171.67596371882087	60	127
171.04902494331066	171.38569160997733	81	127
171.04902494331066	171.38569160997733	53	127
171.38569160997733	171.4901814058957	82	127
171.38569160997733	171.4901814058957	55	127
171.4901814058957	171.85009070294785	57	127
171.4901814058957	171.85009070294785	84	127
171.67596371882087	171.86172335600907	77	127
171.67596371882087	171.86172335600907	65	127
171.86172335600907	172.09392290249434	64	127
171.86172335600907	172.09392290249434	76	127
172.09392290249434	172.30290249433108	74	127
172.09392290249434	172.30290249433108	62	127
172.30290249433108	172.40736961451248	60	127
172.30290249433108	172.40736961451248	72	127
172.4538321995465	172.66281179138323	74	127
172.4538321995465	172.66281179138323	62	127
172.66281179138323	172.84857142857143	58	127
172.66281179138323	172.84857142857143	70	127
172.84857142857143	173.03433106575963	67	127
172.84857142857143	173.03433106575963	55	127
173.03433106575963	173.16204081632654	53	127
173.03433106575963	173.16204081632654	65	127
173.23167800453515	173.46390022675737	55	127
173.23167800453515	173.46390022675737	67	127
173.46390022675737	173.6728798185941	64	127
173.46390022675737	173.6728798185941	52	127
173.6728798185941	173.89344671201815	60	127
173.6728798185941	173.89344671201815	48	127
173.89344671201815	174.19532879818595	69	127
173.89344671201815	174.19532879818595	69	127
174.19532879818595	174.31142857142856	70	127
174.19532879818595	174.31142857142856	70	127
174.31142857142856	174.82226757369614	60	127
174.31142857142856	174.6597052154195	69	127
174.31142857142856	174.6597052154195	65	127
174.31142857142856	174.94997732426305	72	127
174.6597052154195	174.70616780045353	70	127
174.6597052154195	174.70616780045353	67	127
174.70616780045353	174.94997732426305	69	127
174.70616780045353	174.82226757369614	72	127
174.88031746031746	174.96158730158731	65	127
174.96158730158731	175.19378684807256	64	127
174.96158730158731	175.19378684807256	76	127
175.19378684807256	175.42596371882087	62	127
175.19378684807256	175.42596371882087	74	127
175.42596371882087	175.66979591836736	72	127
175.42596371882087	175.66979591836736	60	127
175.76267573696146	175.8787755102041	86	127
175.76267573696146	175.86716553287982	43	127
175.76267573696146	175.8787755102041	74	127
175.76267573696146	175.8787755102041	50	127
175.8787755102041	176.0645351473923	58	127
175.8787755102041	176.0645351473923	43	127
175.8787755102041	176.0645351473923	82	127
175.8787755102041	176.0645351473923	70	127
176.0645351473923	176.2967120181406	67	127
176.0645351473923	176.2967120181406	46	127
176.0645351473923	176.2967120181406	79	127
176.0645351473923	176.2967120181406	62	127
176.2967120181406	176.43605442176872	65	127
176.2967120181406	176.43605442176872	48	127
176.2967120181406	176.43605442176872	77	127
176.2967120181406	176.43605442176872	57	127
176.48249433106577	176.61020408163265	70	127
176.48249433106577	176.61020408163265	36	127
176.48249433106577	176.61020408163265	79	127
176.48249433106577	176.61020408163265	52	127
176.61020408163265	176.8540136054422	67	127
176.61020408163265	176.8540136054422	40	127
176.61020408163265	176.8540136054422	76	127
176.61020408163265	176.8540136054422	55	127
176.8540136054422	177.02816326530612	64	127
176.8540136054422	177.02816326530612	58	127
176.8540136054422	177.02816326530612	43	127
176.8540136054422	177.02816326530612	72	127
177.02816326530612	177.62027210884355	77	127
177.02816326530612	177.62027210884355	57	127
177.02816326530612	177.62027210884355	57	127
177.02816326530612	177.62027210884355	65	127
177.02816326530612	177.62027210884355	41	127
178.22399092970522	178.3400680272109	59	127
178.22399092970522	178.3400680272109	47	127
178.22399092970522	178.3400680272109	71	127
178.22399092970522	178.3400680272109	59	127
178.3517006802721	178.7464172335601	60	127
178.3517006802721	178.7464172335601	48	127
178.3517006802721	178.7464172335601	72	127
178.3517006802721	178.7464172335601	60	127
178.7580498866213	179.19922902494332	37	127
178.7580498866213	179.19922902494332	61	127
178.7580498866213	179.19922902494332	49	127
179.19922902494332	179.61716553287982	38	127
179.19922902494332	179.61716553287982	62	127
179.19922902494332	179.61716553287982	50	127
179.62879818594104	180.0467573696145	57	127
179.62879818594104	180.0467573696145	45	127
179.62879818594104	180.0467573696145	69	127
179.62879818594104	180.0467573696145	57	127
180.05836734693878	180.48791383219955	58	127
180.05836734693878	180.48791383219955	70	127
180.05836734693878	180.48791383219955	58	127
180.05836734693878	180.48791383219955	46	127
180.49954648526077	180.8710657596372	57	127
180.49954648526077	180.8710657596372	45	127
180.49954648526077	180.8710657596372	69	127
180.49954648526077	180.8710657596372	57	127
180.88267573696146	181.26580498866213	55	127
180.88267573696146	181.26580498866213	43	127
180.88267573696146	181.26580498866213	67	127
180.88267573696146	181.26580498866213	55	127
181.2774149659864	181.64893424036282	61	127
181.2774149659864	181.64893424036282	49	127
181.2774149659864	181.64893424036282	73	127
181.2774149659864	181.64893424036282	61	127
181.66052154195012	182.0320634920635	62	127
181.66052154195012	182.0320634920635	50	127
181.66052154195012	182.0320634920635	74	127
181.66052154195012	182.0320634920635	62	127
182.04367346938776	182.45002267573696	51	127
182.04367346938776	182.45002267573696	39	127
182.04367346938776	182.45002267573696	63	127
182.45002267573696	182.8447619047619	40	127
182.45002267573696	182.8447619047619	52	127
182.45002267573696	182.8447619047619	64	127
182.85637188208617	183.2511111111111	48	127
182.85637188208617	183.2511111111111	72	127
182.85637188208617	183.2511111111111	60	127
183.2511111111111	183.71551020408162	58	127
183.2511111111111	183.71551020408162	46	127
183.2511111111111	183.71551020408162	70	127
183.7271201814059	184.08702947845805	46	127
183.7271201814059	184.08702947845805	70	127
183.7271201814059	184.08702947845805	58	127
184.09863945578232	184.37727891156462	45	127
184.09863945578232	184.37727891156462	69	127
184.09863945578232	184.37727891156462	57	127
184.38888888888889	184.83004535147393	64	127
184.84167800453514	185.30607709750566	65	127
185.18995464852608	185.25963718820861	72	127
185.25963718820861	185.31768707482993	74	127
185.31768707482993	186.15360544217688	75	127
185.31768707482993	185.70079365079366	54	127
185.71242630385487	186.15360544217688	55	127
186.16521541950112	186.94308390022675	70	127
186.16521541950112	186.64122448979592	62	127
186.64122448979592	186.9895238095238	63	127
186.94308390022675	186.9895238095238	72	127
187.00113378684807	187.33780045351475	69	127
187.00113378684807	187.33780045351475	62	127
187.34943310657596	187.8022222222222	60	127
187.8022222222222	188.17374149659864	78	127
187.8022222222222	188.17374149659864	66	127
188.17374149659864	188.55687074829933	79	127
188.17374149659864	188.55687074829933	67	127
188.46396825396826	188.52204081632652	50	127
188.52204081632652	188.56848072562357	51	127
188.56848072562357	188.92839002267573	68	127
188.56848072562357	189.3463492063492	53	127
188.56848072562357	188.92839002267573	56	127
188.94	189.3463492063492	69	127
188.94	189.3463492063492	57	127
189.35795918367347	189.79913832199546	77	127
189.35795918367347	190.11260770975056	48	127
189.35795918367347	189.79913832199546	65	127
189.79913832199546	190.21709750566893	75	127
189.79913832199546	190.21709750566893	63	127
190.11260770975056	190.21709750566893	50	127
190.2287074829932	191.0414058956916	46	127
190.2287074829932	190.62344671201814	75	127
190.2287074829932	190.62344671201814	63	127
190.6350566893424	191.0414058956916	62	127
190.6350566893424	191.0414058956916	74	127
191.0414058956916	191.42453514739228	65	127
191.0414058956916	191.42453514739228	77	127
191.0414058956916	191.42453514739228	53	127
191.0414058956916	191.42453514739228	41	127
191.43614512471655	191.73800453514738	51	127
191.43614512471655	191.73800453514738	39	127
191.43614512471655	191.73800453514738	75	127
191.43614512471655	191.73800453514738	63	127
191.74961451247165	192.21401360544218	63	127
191.74961451247165	192.21401360544218	39	127
191.74961451247165	192.21401360544218	75	127
191.74961451247165	192.21401360544218	51	127
192.22562358276645	192.6087528344671	62	127
192.22562358276645	192.6087528344671	38	127
192.22562358276645	192.6087528344671	74	127
192.22562358276645	192.6087528344671	50	127
192.62036281179138	193.03832199546486	72	127
192.62036281179138	193.03832199546486	48	127
192.62036281179138	193.03832199546486	84	127
192.62036281179138	193.03832199546486	60	127
193.03832199546486	193.31696145124715	70	127
193.03832199546486	193.31696145124715	46	127
193.03832199546486	193.31696145124715	82	127
193.03832199546486	193.31696145124715	58	127
193.32857142857142	193.70009070294785	38	127
193.32857142857142	193.70009070294785	81	127
193.32857142857142	193.70009070294785	69	127
193.32857142857142	193.70009070294785	54	127
193.71170068027212	194.14126984126983	39	127
193.71170068027212	194.30380952380952	79	127
193.71170068027212	194.14126984126983	67	127
193.71170068027212	194.14126984126983	55	127
194.14126984126983	194.5360090702948	55	127
194.14126984126983	194.5360090702948	58	127
194.14126984126983	194.5360090702948	39	127
194.30380952380952	194.4082993197279	77	127
194.4082993197279	194.54761904761904	75	127
194.54761904761904	194.942358276644	57	127
194.54761904761904	194.942358276644	41	127
194.54761904761904	194.6869387755102	74	127
194.54761904761904	194.942358276644	51	127
194.6869387755102	194.82625850340136	72	127
194.82625850340136	194.942358276644	75	127
194.95396825396824	195.26743764172335	48	127
194.95396825396824	195.26743764172335	63	127
194.95396825396824	195.26743764172335	41	127
194.95396825396824	195.11650793650793	70	127
195.11650793650793	195.24421768707484	69	127
195.24421768707484	195.3487074829932	72	127
195.3487074829932	195.68539682539682	41	127
195.3487074829932	195.68539682539682	63	127
195.3487074829932	195.49963718820862	65	127
195.3487074829932	195.68539682539682	60	127
195.49963718820862	195.6621768707483	69	127
195.6621768707483	195.77827664399092	70	127
195.77827664399092	195.9408163265306	72	127
195.77827664399092	196.0336961451247	63	127
195.77827664399092	196.0336961451247	60	127
195.77827664399092	196.0336961451247	41	127
195.9408163265306	196.02208616780047	74	127
196.02208616780047	196.1265759637188	75	127
196.1265759637188	196.4400453514739	60	127
196.1265759637188	196.4400453514739	63	127
196.1265759637188	196.4400453514739	41	127
196.1265759637188	196.25428571428571	77	127
196.25428571428571	196.40521541950113	79	127
196.40521541950113	196.47487528344672	81	127
196.48648526077096	196.9160544217687	55	127
196.48648526077096	196.81156462585034	82	127
196.48648526077096	196.9160544217687	64	127
196.48648526077096	196.9160544217687	58	127
196.48648526077096	196.9160544217687	43	127
196.92766439909298	197.1714739229025	81	127
197.1714739229025	197.2991836734694	84	127
197.2991836734694	201.67614512471656	36	127
197.2991836734694	198.3905215419501	52	127
197.2991836734694	197.65909297052156	82	127
197.78680272108843	197.7984126984127	82	127
197.78680272108843	198.3905215419501	55	127
197.90290249433107	200.0043083900227	82	127
198.40213151927438	198.5530612244898	51	127
198.40213151927438	198.5530612244898	66	127
198.5530612244898	198.8897505668934	52	127
198.5530612244898	198.8897505668934	67	127
199.01746031746032	199.38897959183674	67	127
199.01746031746032	199.38897959183674	52	127
199.51668934240362	200.0043083900227	52	127
199.51668934240362	200.0043083900227	67	127
200.01591836734693	200.37582766439908	64	127
200.01591836734693	200.37582766439908	79	127
200.01591836734693	200.37582766439908	55	127
200.37582766439908	200.42226757369613	52	127
200.37582766439908	200.42226757369613	82	127
200.37582766439908	200.42226757369613	67	127
200.42226757369613	200.7473469387755	81	127
200.42226757369613	200.7473469387755	65	127
200.42226757369613	200.7473469387755	53	127
200.82861678004537	201.07242630385488	53	127
200.82861678004537	201.07242630385488	80	127
200.82861678004537	201.07242630385488	60	127
201.21174603174603	202.04766439909298	53	127
201.21174603174603	202.82553287981858	55	127
201.21174603174603	202.04766439909298	74	127
201.21174603174603	202.04766439909298	59	127
201.68775510204082	201.9431746031746	47	127
201.9431746031746	202.05927437641722	50	127
202.05927437641722	202.82553287981858	79	127
202.05927437641722	202.30308390022677	48	127
202.05927437641722	202.82553287981858	58	127
202.05927437641722	202.82553287981858	52	127
202.39596371882087	202.70943310657597	48	127
202.83714285714285	202.99968253968254	53	127
202.83714285714285	203.7659410430839	72	127
202.83714285714285	202.99968253968254	57	127
202.83714285714285	202.99968253968254	53	127
203.05773242630386	203.20866213151928	60	127
203.05773242630386	203.20866213151928	69	127
203.05773242630386	203.20866213151928	53	127
203.24349206349206	203.40603174603174	60	127
203.24349206349206	203.40603174603174	69	127
203.24349206349206	203.40603174603174	53	127
203.47569160997733	203.6034013605442	60	127
203.47569160997733	203.6034013605442	69	127
203.47569160997733	203.6034013605442	53	127
203.6034013605442	203.97492063492064	69	127
203.6034013605442	203.97492063492064	53	127
203.6034013605442	203.97492063492064	65	127
203.77755102040817	203.97492063492064	77	127
203.97492063492064	204.16068027210883	76	127
204.16068027210883	204.3928798185941	77	127
204.3928798185941	204.5554195011338	72	127
204.60185941043085	204.82244897959183	74	127
204.82244897959183	205.04303854875283	69	127
205.04303854875283	205.20557823129252	70	127
205.20557823129252	205.34489795918367	69	127
205.402947845805	205.57709750566895	70	127
205.402947845805	205.57709750566895	82	127
205.57709750566895	205.76285714285714	77	127
205.57709750566895	205.76285714285714	65	127
205.76285714285714	205.94861678004534	67	127
205.76285714285714	205.94861678004534	79	127
205.94861678004534	206.1227664399093	53	127
205.94861678004534	206.95868480725625	81	127
205.94861678004534	206.1227664399093	69	127
205.94861678004534	206.1227664399093	50	127
206.18081632653062	206.32013605442177	65	127
206.18081632653062	206.32013605442177	69	127
206.18081632653062	206.32013605442177	62	127
206.38979591836735	206.54072562358277	65	127
206.38979591836735	206.54072562358277	69	127
206.38979591836735	206.54072562358277	62	127
206.61038548752833	206.72648526077097	65	127
206.61038548752833	206.72648526077097	69	127
206.61038548752833	206.72648526077097	62	127
206.79614512471656	207.10961451247167	62	127
206.79614512471656	207.10961451247167	69	127
206.79614512471656	207.10961451247167	65	127
206.9702947845805	207.10961451247167	86	127
207.10961451247167	207.30698412698413	85	127
207.30698412698413	207.53918367346938	86	127
207.53918367346938	207.70172335600907	81	127
207.77138321995466	208.0035827664399	82	127
208.0035827664399	208.23578231292518	77	127
208.23578231292518	208.4795918367347	79	127
208.4795918367347	208.53764172335602	81	127
208.60730158730158	208.78145124716553	77	127
208.60730158730158	208.78145124716553	69	127
208.60730158730158	208.73501133786849	57	127
208.60730158730158	208.73501133786849	50	127
208.78145124716553	208.93238095238095	50	127
208.78145124716553	209.00204081632654	79	127
208.78145124716553	208.93238095238095	59	127
208.78145124716553	209.00204081632654	65	127
209.00204081632654	209.1413605442177	50	127
209.00204081632654	209.21102040816328	77	127
209.00204081632654	209.1413605442177	59	127
209.00204081632654	209.199410430839	67	127
209.21102040816328	209.67541950113377	48	127
209.21102040816328	209.44321995464853	67	127
209.21102040816328	210.09337868480725	76	127
209.21102040816328	210.78997732426305	60	127
209.44321995464853	209.68702947845804	64	127
209.68702947845804	209.83795918367346	67	127
209.83795918367346	209.97727891156464	67	127
210.03532879818593	210.10498866213152	67	127
210.10498866213152	210.32557823129252	55	127
210.10498866213152	210.32557823129252	64	127
210.32557823129252	210.56938775510204	72	127
210.32557823129252	210.56938775510204	64	127
210.68548752834468	210.78997732426305	64	127
210.68548752834468	210.78997732426305	72	127
210.8015873015873	211.50979591836736	72	127
210.8015873015873	210.98734693877552	62	127
210.8015873015873	212.3805442176871	55	127
210.98734693877552	211.16149659863945	67	127
211.16149659863945	211.30081632653062	74	127
211.35886621315194	211.50979591836736	74	127
211.50979591836736	212.3805442176871	71	127
211.50979591836736	211.73038548752834	74	127
211.73038548752834	211.9277551020408	67	127
211.9277551020408	212.15995464852608	77	127
212.27605442176872	212.3805442176871	77	127
212.39215419501133	213.1235827664399	77	127
212.39215419501133	213.99433106575964	48	127
212.6243537414966	212.83333333333334	60	127
212.83333333333334	212.9029931972789	67	127
212.91460317460317	213.0655328798186	67	127
213.13519274376418	213.99433106575964	76	127
213.13519274376418	213.32095238095238	67	127
213.32095238095238	213.55315192743765	48	127
213.32095238095238	213.55315192743765	60	127
213.55315192743765	213.7853514739229	55	127
213.55315192743765	213.7853514739229	70	127
213.88984126984127	213.99433106575964	70	127
213.88984126984127	213.99433106575964	55	127
214.0059410430839	215.59650793650795	41	127
214.0059410430839	214.2265306122449	55	127
214.0059410430839	214.80702947845805	70	127
214.2265306122449	214.4471201814059	48	127
214.4471201814059	214.58643990929704	53	127
214.65609977324263	214.77219954648527	53	127
214.80702947845805	215.8287074829932	69	127
214.80702947845805	214.9463492063492	53	127
214.9463492063492	215.15532879818593	57	127
214.9463492063492	215.15532879818593	48	127
215.15532879818593	215.3875283446712	65	127
215.15532879818593	215.3875283446712	57	127
215.49201814058958	215.59650793650795	57	127
215.49201814058958	215.59650793650795	65	127
215.6081179138322	216.56013605442178	65	127
215.6081179138322	217.15224489795918	57	127
215.6081179138322	217.15224489795918	53	127
215.6081179138322	216.37437641723355	41	127
215.8287074829932	216.0144671201814	60	127
216.0144671201814	216.15378684807257	69	127
216.1653968253968	216.31632653061226	69	127
216.38598639455782	217.15224489795918	37	127
216.38598639455782	216.52530612244897	69	127
216.57174603174604	216.7342857142857	65	127
216.57174603174604	216.7342857142857	69	127
216.7342857142857	216.97809523809525	81	127
216.7342857142857	216.97809523809525	77	127
217.07097505668935	217.15224489795918	81	127
217.07097505668935	217.15224489795918	77	127
217.15224489795918	217.9301133786848	51	127
217.15224489795918	217.55859410430838	78	127
217.15224489795918	217.55859410430838	36	127
217.15224489795918	218.08104308390023	81	127
217.57020408163265	217.9301133786848	66	127
217.57020408163265	217.9301133786848	48	127
217.9301133786848	218.30163265306123	50	127
217.9301133786848	218.30163265306123	47	127
217.9301133786848	218.30163265306123	67	127
218.08104308390023	218.31324263038547	79	127
218.31324263038547	219.0678911564626	46	127
218.31324263038547	218.4990022675737	88	127
218.31324263038547	218.70798185941044	64	127
218.31324263038547	218.70798185941044	55	127
218.4990022675737	218.7195918367347	86	127
218.7195918367347	218.87052154195013	79	127
218.87052154195013	219.02145124716554	60	127
218.87052154195013	219.07950113378683	77	127
218.87052154195013	219.02145124716554	53	127
219.07950113378683	219.27687074829933	86	127
219.07950113378683	219.218820861678	65	127
219.07950113378683	219.218820861678	48	127
219.07950113378683	219.35814058956916	45	127
219.27687074829933	219.41619047619048	65	127
219.27687074829933	219.41619047619048	48	127
219.27687074829933	219.48585034013607	84	127
219.48585034013607	219.69482993197278	77	127
219.48585034013607	219.74126984126985	46	127
219.69482993197278	219.81092970521541	55	127
219.69482993197278	219.880589569161	76	127
219.69482993197278	219.81092970521541	48	127
219.880589569161	220.01990929705215	55	127
219.880589569161	220.12439909297052	48	127
219.880589569161	220.01990929705215	64	127
219.880589569161	220.01990929705215	86	127
220.01990929705215	220.18244897959184	64	127
220.01990929705215	220.25210884353743	84	127
220.01990929705215	220.18244897959184	55	127
220.26371882086167	221.5756462585034	57	127
220.26371882086167	222.19097505668935	84	127
220.26371882086167	220.4146485260771	77	127
220.26371882086167	220.62362811791382	53	127
220.42625850340136	220.57718820861678	72	127
220.58879818594104	220.73972789115646	74	127
220.75133786848073	221.02997732426303	57	127
220.75133786848073	220.89065759637188	72	127
220.90226757369615	220.99514739229025	69	127
221.00675736961452	221.09963718820862	70	127
221.1112471655329	221.4479365079365	60	127
221.1112471655329	221.2621768707483	69	127
221.2621768707483	221.41310657596372	65	127
221.424716553288	221.5756462585034	67	127
221.5756462585034	221.84267573696144	57	127
221.5756462585034	221.7033560090703	69	127
221.5756462585034	221.84267573696144	65	127
221.5756462585034	221.77301587301588	65	127
221.71496598639456	221.77301587301588	67	127
221.77301587301588	221.84267573696144	65	127
221.8542857142857	222.13292517006803	64	127
221.8542857142857	221.99360544217686	70	127
222.00521541950113	222.09809523809523	67	127
222.1097052154195	222.19097505668935	64	127
222.2025850340136	222.53927437641724	67	127
222.2025850340136	222.65537414965988	55	127
222.2025850340136	222.353514739229	58	127
222.2025850340136	222.65537414965988	64	127
222.2025850340136	222.53927437641724	88	127
222.36512471655328	222.4928344671202	55	127
222.50444444444443	222.65537414965988	52	127
222.65537414965988	223.35197278911565	70	127
222.65537414965988	223.10816326530613	48	127
222.65537414965988	222.8063038548753	60	127
222.65537414965988	222.9920634920635	91	127
222.81791383219954	222.96884353741495	64	127
222.96884353741495	223.10816326530613	67	127
223.11977324263037	223.13138321995464	72	127
223.11977324263037	223.2126530612245	94	127
223.13138321995464	223.1778231292517	76	127
223.1778231292517	223.35197278911565	79	127
223.36358276643992	223.59578231292517	72	127
223.36358276643992	223.51451247165534	82	127
223.36358276643992	223.51451247165534	67	127
223.52612244897958	223.5841723356009	79	127
223.52612244897958	223.5841723356009	64	127
223.5841723356009	223.7118820861678	81	127
223.5841723356009	223.7118820861678	65	127
223.72349206349207	224.0601814058957	76	127
223.72349206349207	223.8744217687075	79	127
223.72349206349207	223.8744217687075	58	127
223.8744217687075	224.0253514739229	76	127
223.8744217687075	224.0253514739229	55	127
224.03696145124715	224.1878911564626	77	127
224.03696145124715	224.1878911564626	57	127
224.1878911564626	224.48975056689343	79	127
224.1878911564626	224.32721088435375	76	127
224.1878911564626	224.32721088435375	55	127
224.33882086167802	224.4665306122449	72	127
224.33882086167802	224.4665306122449	52	127
224.4665306122449	224.5942403628118	74	127
224.4665306122449	224.5942403628118	53	127
224.60585034013604	224.95414965986396	52	127
224.60585034013604	224.74517006802722	67	127
224.60585034013604	224.74517006802722	72	127
224.60585034013604	224.74517006802722	64	127
224.60585034013604	224.8496598639456	82	127
224.75678004535146	224.81482993197278	62	127
224.75678004535146	224.81482993197278	65	127
224.82643990929705	224.95414965986396	64	127
224.82643990929705	224.95414965986396	60	127
224.95414965986396	225.0934693877551	65	127
224.95414965986396	225.24439909297053	81	127
225.10507936507938	225.23278911564626	60	127
225.24439909297053	225.36049886621316	57	127
225.3721088435374	225.67396825396824	84	127
225.3721088435374	225.47659863945577	53	127
225.48820861678004	225.63913832199546	48	127
225.63913832199546	225.79006802721088	45	127
225.80167800453515	225.95260770975057	69	127
225.80167800453515	226.2544671201814	41	127
225.80167800453515	227.69410430839002	89	127
225.80167800453515	226.13836734693876	65	127
225.95260770975057	226.10353741496598	72	127
226.11514739229025	226.2544671201814	75	127
226.26607709750567	226.54471655328797	72	127
226.26607709750567	226.42861678004536	81	127
226.4402267573696	226.54471655328797	84	127
226.54471655328797	226.5679365079365	87	127
226.57954648526078	226.6608163265306	70	127
226.57954648526078	226.81174603174603	86	127
226.6608163265306	226.76530612244898	65	127
226.77691609977325	226.92784580498866	67	127
226.93945578231293	227.07877551020408	65	127
226.93945578231293	227.21809523809523	74	127
227.09038548752835	227.18326530612245	62	127
227.19487528344672	227.33419501133787	63	127
227.34580498866214	227.42707482993197	62	127
227.34580498866214	227.56639455782312	77	127
227.42707482993197	227.53156462585034	58	127
227.5431746031746	227.69410430839002	60	127
227.69410430839002	227.97274376417235	82	127
227.69410430839002	228.06562358276645	58	127
227.69410430839002	227.84503401360544	86	127
227.84503401360544	227.93791383219954	84	127
227.9495238095238	228.06562358276645	82	127
228.06562358276645	228.40231292517007	41	127
228.06562358276645	228.2049433106576	87	127
228.06562358276645	228.40231292517007	81	127
228.21655328798187	228.36748299319729	84	127
228.37909297052155	228.5184126984127	81	127
228.53002267573697	228.84349206349205	84	127
228.53002267573697	228.6809523809524	75	127
228.53002267573697	228.84349206349205	45	127
228.69256235827663	228.797052154195	72	127
228.80866213151927	228.9595918367347	69	127
228.9595918367347	229.09891156462584	53	127
228.9595918367347	229.28467120181406	48	127
228.9595918367347	229.38916099773243	65	127
228.9595918367347	229.7490702947846	87	127
229.1105215419501	229.26145124716552	57	127
229.26145124716552	229.38916099773243	60	127
229.4007709750567	229.5168707482993	65	127
229.4007709750567	229.70263038548754	53	127
229.52848072562358	229.66780045351473	69	127
229.679410430839	229.7490702947846	72	127
229.76068027210886	230.05092970521542	77	127
229.76068027210886	230.05092970521542	57	127
229.76068027210886	229.88839002267574	63	127
229.88839002267574	230.00448979591837	60	127
230.01609977324264	230.1554195011338	62	127
230.16702947845806	230.45727891156463	60	127
230.16702947845806	230.25990929705216	60	127
230.16702947845806	230.45727891156463	81	127
230.27151927437643	230.42244897959185	57	127
230.4340589569161	230.561768707483	58	127
230.57337868480727	230.82879818594105	84	127
230.57337868480727	230.68947845804988	57	127
230.57337868480727	231.35124716553287	63	127
230.68947845804988	230.80557823129251	53	127
230.81718820861678	230.94489795918366	55	127
230.94489795918366	231.0377777777778	81	127
230.94489795918366	231.23514739229026	87	127
230.94489795918366	231.35124716553287	53	127
231.04938775510203	231.1887074829932	79	127
231.20031746031745	231.35124716553287	77	127
231.36285714285714	231.65310657596373	53	127
231.36285714285714	231.5021768707483	82	127
231.36285714285714	231.65310657596373	86	127
231.51378684807256	231.61827664399092	77	127
231.6298866213152	231.76920634920634	74	127
231.7808163265306	231.98979591836735	89	127
231.7808163265306	231.8504761904762	70	127
231.7808163265306	231.98979591836735	58	127
231.86208616780044	231.9433560090703	65	127
231.95496598639457	232.10589569161	62	127
232.10589569161	232.80249433106576	62	127
232.10589569161	232.95342403628118	94	127
232.10589569161	232.24521541950114	70	127
232.10589569161	232.52385487528343	58	127
232.2568253968254	232.37292517006802	65	127
232.37292517006802	232.52385487528343	62	127
232.5354648526077	232.54707482993197	58	127
232.54707482993197	232.68639455782312	53	127
232.6980045351474	232.80249433106576	50	127
232.81410430839003	233.15079365079364	36	127
232.81410430839003	233.15079365079364	52	127
232.96503401360545	233.1043537414966	79	127
233.11596371882086	233.255283446712	76	127
233.26689342403628	233.5803628117914	55	127
233.26689342403628	233.40621315192743	70	127
233.26689342403628	233.5803628117914	40	127
233.4178231292517	233.54553287981858	67	127
233.55714285714285	233.6732426303855	64	127
233.68485260770976	233.9867120181406	43	127
233.68485260770976	233.81256235827664	58	127
233.68485260770976	234.578820861678	52	127
233.68485260770976	233.9867120181406	64	127
233.68485260770976	234.578820861678	55	127
233.8241723356009	233.96349206349205	64	127
233.97510204081632	234.0795918367347	67	127
234.09120181405896	234.4627210884354	67	127
234.09120181405896	234.4627210884354	48	127
234.09120181405896	234.24213151927438	70	127
234.25374149659865	234.4162811791383	76	127
234.42789115646258	234.578820861678	79	127
234.59043083900227	234.6717006802721	64	127
234.59043083900227	234.6717006802721	60	127
234.59043083900227	234.6717006802721	82	127
234.59043083900227	234.6717006802721	67	127
234.6717006802721	234.72975056689341	60	127
234.6717006802721	234.72975056689341	62	127
234.6717006802721	234.72975056689341	65	127
234.6717006802721	234.72975056689341	79	127
234.74136054421768	234.8690702947846	67	127
234.74136054421768	234.8690702947846	76	127
234.74136054421768	234.8690702947846	64	127
234.74136054421768	234.8690702947846	60	127
234.88068027210883	235.03160997732425	65	127
234.88068027210883	235.03160997732425	65	127
234.88068027210883	235.03160997732425	72	127
234.88068027210883	235.03160997732425	69	127
235.03160997732425	235.08965986394557	70	127
235.03160997732425	235.08965986394557	65	127
235.03160997732425	235.08965986394557	77	127
235.03160997732425	235.08965986394557	67	127
235.08965986394557	235.21736961451248	69	127
235.08965986394557	235.21736961451248	65	127
235.08965986394557	235.21736961451248	81	127
235.08965986394557	235.21736961451248	65	127
235.21736961451248	235.35668934240363	70	127
235.21736961451248	235.35668934240363	65	127
235.21736961451248	235.35668934240363	81	127
235.21736961451248	235.35668934240363	65	127
235.3682993197279	235.44956916099773	72	127
235.3682993197279	235.44956916099773	65	127
235.3682993197279	235.44956916099773	77	127
235.3682993197279	235.44956916099773	70	127
235.461179138322	235.57727891156463	70	127
235.461179138322	235.57727891156463	74	127
235.461179138322	235.57727891156463	65	127
235.5888888888889	235.71659863945578	70	127
235.5888888888889	235.71659863945578	65	127
235.5888888888889	235.71659863945578	70	127
235.5888888888889	235.71659863945578	75	127
235.72820861678005	235.8675283446712	70	127
235.72820861678005	235.8675283446712	63	127
235.72820861678005	235.8675283446712	75	127
235.72820861678005	235.8675283446712	67	127
235.8675283446712	236.00684807256235	70	127
235.8675283446712	236.00684807256235	63	127
235.8675283446712	236.00684807256235	79	127
235.8675283446712	236.00684807256235	67	127
236.01845804988662	236.16938775510204	69	127
236.01845804988662	236.16938775510204	64	127
236.01845804988662	236.16938775510204	79	127
236.01845804988662	236.16938775510204	67	127
236.1809977324263	236.30870748299319	71	127
236.1809977324263	236.30870748299319	64	127
236.1809977324263	236.30870748299319	76	127
236.1809977324263	236.30870748299319	67	127
236.32031746031745	236.41319727891155	73	127
236.32031746031745	236.41319727891155	64	127
236.32031746031745	236.41319727891155	67	127
236.41319727891155	236.51768707482992	67	127
236.41319727891155	236.51768707482992	69	127
236.41319727891155	236.51768707482992	64	127
236.5292970521542	236.66861678004534	65	127
236.5292970521542	236.66861678004534	62	127
236.5292970521542	236.66861678004534	74	127
236.5292970521542	236.66861678004534	69	127
236.66861678004534	236.79632653061225	69	127
236.66861678004534	236.79632653061225	62	127
236.66861678004534	236.79632653061225	77	127
236.66861678004534	236.79632653061225	65	127
236.80793650793652	236.92403628117913	62	127
236.80793650793652	236.92403628117913	55	127
236.80793650793652	236.92403628117913	77	127
236.80793650793652	236.92403628117913	71	127
236.80793650793652	236.92403628117913	65	127
236.9356462585034	237.0633560090703	62	127
236.9356462585034	237.0633560090703	57	127
236.9356462585034	237.0633560090703	74	127
236.9356462585034	237.0633560090703	72	127
236.9356462585034	237.0633560090703	65	127
237.07496598639455	237.21428571428572	62	127
237.07496598639455	237.21428571428572	59	127
237.07496598639455	237.21428571428572	71	127
237.07496598639455	237.21428571428572	74	127
237.07496598639455	237.21428571428572	65	127
237.21428571428572	237.36521541950114	67	127
237.21428571428572	237.36521541950114	76	127
237.21428571428572	237.36521541950114	64	127
237.21428571428572	237.36521541950114	60	127
237.36521541950114	237.4697052154195	65	127
237.36521541950114	237.4697052154195	62	127
237.36521541950114	237.4697052154195	72	127
237.36521541950114	237.4697052154195	67	127
237.4697052154195	237.52775510204083	60	127
237.4697052154195	237.52775510204083	67	127
237.4697052154195	237.52775510204083	64	127
237.53936507936507	239.5362811791383	56	127
237.53936507936507	239.5362811791383	44	127
237.53936507936507	237.94571428571427	77	127
237.53936507936507	237.94571428571427	65	127
237.95732426303854	238.4449433106576	72	127
237.95732426303854	238.4449433106576	60	127
238.45655328798185	238.61909297052154	77	127
238.45655328798185	238.61909297052154	65	127
238.67714285714285	239.00222222222223	74	127
238.67714285714285	239.00222222222223	62	127
239.1299319727891	240.40702947845804	72	127
239.1299319727891	239.98907029478457	60	127
239.54789115646258	239.98907029478457	57	127
239.54789115646258	239.98907029478457	45	127
240.00068027210884	240.29092970521543	58	127
240.00068027210884	240.29092970521543	46	127
240.00068027210884	240.20965986394557	67	127
240.20965986394557	240.40702947845804	60	127
240.40702947845804	240.68566893424037	43	127
240.40702947845804	240.63922902494332	74	127
240.40702947845804	240.63922902494332	62	127
240.40702947845804	240.68566893424037	55	127
240.63922902494332	240.801768707483	76	127
240.63922902494332	240.801768707483	64	127
240.81337868480725	241.23133786848072	53	127
240.81337868480725	241.23133786848072	41	127
240.81337868480725	241.23133786848072	77	127
240.81337868480725	241.23133786848072	65	127
241.242947845805	241.67251700680274	61	127
241.242947845805	241.67251700680274	52	127
241.242947845805	241.67251700680274	79	127
241.242947845805	241.67251700680274	64	127
241.67251700680274	241.9627664399093	73	127
241.67251700680274	241.9627664399093	55	127
241.67251700680274	241.9627664399093	81	127
241.67251700680274	241.9627664399093	67	127
242.06725623582767	242.41555555555556	77	127
242.06725623582767	242.41555555555556	50	127
242.06725623582767	242.41555555555556	81	127
242.06725623582767	242.41555555555556	62	127
242.5316553287982	242.87995464852608	81	127
242.5316553287982	242.87995464852608	76	127
242.5316553287982	242.87995464852608	61	127
242.5316553287982	242.87995464852608	49	127
242.87995464852608	243.26308390022675	64	127
242.87995464852608	243.26308390022675	57	127
242.87995464852608	243.26308390022675	79	127
242.87995464852608	243.26308390022675	73	127
243.27469387755102	243.5301133786848	62	127
243.27469387755102	243.63460317460317	69	127
243.27469387755102	243.5301133786848	65	127
243.27469387755102	243.63460317460317	77	127
243.64621315192744	244.01773242630387	56	127
243.64621315192744	244.15705215419501	71	127
243.64621315192744	244.01773242630387	65	127
243.64621315192744	244.15705215419501	74	127
244.15705215419501	244.37764172335602	74	127
244.15705215419501	244.29637188208616	69	127
244.15705215419501	244.29637188208616	65	127
244.15705215419501	244.44730158730158	57	127
244.37764172335602	244.5053514739229	73	127
244.37764172335602	244.5053514739229	64	127
244.37764172335602	244.5053514739229	69	127
244.5750113378685	244.9117006802721	57	127
244.5750113378685	244.73755102040818	73	127
244.5750113378685	244.73755102040818	67	127
244.5750113378685	244.73755102040818	64	127
244.80721088435374	244.96975056689342	67	127
244.80721088435374	244.96975056689342	74	127
244.80721088435374	244.96975056689342	64	127
245.039410430839	245.27160997732426	74	127
245.039410430839	245.20195011337867	64	127
245.039410430839	245.37609977324263	58	127
245.039410430839	245.20195011337867	67	127
245.27160997732426	245.3877097505669	72	127
245.27160997732426	245.3877097505669	64	127
245.27160997732426	245.3877097505669	67	127
245.3877097505669	245.51541950113378	67	127
245.3877097505669	245.64312925170069	58	127
245.3877097505669	245.51541950113378	72	127
245.3877097505669	245.51541950113378	64	127
245.5502494331066	245.701179138322	72	127
245.5502494331066	245.701179138322	64	127
245.5502494331066	245.701179138322	67	127
245.75922902494332	245.8172789115646	57	127
245.75922902494332	245.9565986394558	60	127
245.75922902494332	245.8172789115646	65	127
245.75922902494332	245.8637188208617	72	127
245.8637188208617	246.0146485260771	65	127
245.8637188208617	246.0146485260771	69	127
245.8637188208617	246.0146485260771	53	127
246.08430839002267	246.11913832199548	65	127
246.08430839002267	246.11913832199548	69	127
246.08430839002267	246.11913832199548	53	127
246.08430839002267	246.2700680272109	60	127
246.16557823129253	246.3281179138322	53	127
246.16557823129253	246.3281179138322	70	127
246.16557823129253	246.3281179138322	65	127
246.39777777777778	246.5487074829932	65	127
246.39777777777778	246.66480725623583	62	127
246.39777777777778	246.5487074829932	70	127
246.39777777777778	246.5487074829932	53	127
246.61836734693878	246.66480725623583	71	127
246.61836734693878	246.66480725623583	53	127
246.61836734693878	246.66480725623583	65	127
246.66480725623583	246.78090702947847	65	127
246.66480725623583	246.97827664399094	62	127
246.66480725623583	246.78090702947847	71	127
246.66480725623583	246.78090702947847	53	127
246.8621768707483	247.0479365079365	69	127
246.8621768707483	247.0479365079365	65	127
246.8621768707483	247.0479365079365	72	127
247.12920634920636	247.23369614512472	69	127
247.12920634920636	247.23369614512472	77	127
247.12920634920636	247.23369614512472	72	127
247.23369614512472	247.30335600907028	69	127
247.23369614512472	247.30335600907028	73	127
247.23369614512472	247.30335600907028	77	127
247.30335600907028	247.4310657596372	77	127
247.30335600907028	247.4310657596372	73	127
247.30335600907028	247.4310657596372	69	127
247.44267573696146	247.5819954648526	65	127
247.44267573696146	247.5819954648526	77	127
247.44267573696146	247.5819954648526	69	127
247.44267573696146	247.5819954648526	73	127
247.59360544217688	247.73292517006803	77	127
247.59360544217688	247.73292517006803	69	127
247.59360544217688	247.73292517006803	74	127
247.59360544217688	247.73292517006803	65	127
247.7445351473923	247.88385487528345	77	127
247.7445351473923	247.88385487528345	69	127
247.7445351473923	247.88385487528345	86	127
247.7445351473923	247.88385487528345	65	127
247.89546485260772	248.04639455782313	70	127
247.89546485260772	248.04639455782313	65	127
247.89546485260772	248.04639455782313	86	127
247.89546485260772	248.04639455782313	77	127
248.04639455782313	248.19732426303855	77	127
248.04639455782313	248.19732426303855	85	127
248.04639455782313	248.19732426303855	70	127
248.04639455782313	248.19732426303855	65	127
248.20893424036282	248.32503401360543	65	127
248.20893424036282	248.32503401360543	85	127
248.20893424036282	248.32503401360543	70	127
248.20893424036282	248.32503401360543	77	127
248.32503401360543	248.44113378684807	65	127
248.32503401360543	248.44113378684807	77	127
248.32503401360543	248.44113378684807	58	127
248.32503401360543	248.44113378684807	85	127
248.32503401360543	248.44113378684807	70	127
248.45274376417234	248.54562358276644	77	127
248.45274376417234	248.54562358276644	58	127
248.45274376417234	248.54562358276644	84	127
248.45274376417234	248.54562358276644	70	127
248.45274376417234	248.54562358276644	65	127
248.5572335600907	248.69655328798186	77	127
248.5572335600907	248.69655328798186	58	127
248.5572335600907	248.69655328798186	84	127
248.5572335600907	248.69655328798186	70	127
248.5572335600907	248.69655328798186	65	127
248.70816326530613	248.8126530612245	84	127
248.70816326530613	248.8126530612245	69	127
248.70816326530613	248.8126530612245	65	127
248.70816326530613	248.8126530612245	77	127
248.82426303854876	248.97519274376418	69	127
248.82426303854876	248.97519274376418	81	127
248.82426303854876	248.97519274376418	77	127
248.82426303854876	248.97519274376418	65	127
248.98680272108842	249.1261224489796	65	127
248.98680272108842	249.1261224489796	82	127
248.98680272108842	249.1261224489796	69	127
248.98680272108842	249.1261224489796	77	127
249.13773242630384	249.25383219954648	65	127
249.13773242630384	249.25383219954648	77	127
249.13773242630384	249.25383219954648	60	127
249.13773242630384	249.25383219954648	82	127
249.13773242630384	249.25383219954648	69	127
249.25383219954648	249.32349206349207	77	127
249.25383219954648	249.32349206349207	60	127
249.25383219954648	249.32349206349207	83	127
249.25383219954648	249.32349206349207	69	127
249.25383219954648	249.32349206349207	65	127
249.33510204081634	249.48603174603176	77	127
249.33510204081634	249.48603174603176	60	127
249.33510204081634	249.48603174603176	84	127
249.33510204081634	249.48603174603176	69	127
249.33510204081634	249.48603174603176	65	127
249.48603174603176	249.59052154195012	62	127
249.48603174603176	249.59052154195012	70	127
249.48603174603176	249.59052154195012	77	127
249.48603174603176	249.59052154195012	65	127
249.48603174603176	249.59052154195012	84	127
249.59052154195012	249.74145124716554	62	127
249.59052154195012	249.75306122448978	86	127
249.59052154195012	249.74145124716554	70	127
249.59052154195012	249.74145124716554	77	127
249.59052154195012	249.74145124716554	65	127
249.75306122448978	249.8807709750567	65	127
249.75306122448978	249.89238095238096	84	127
249.75306122448978	249.8807709750567	70	127
249.75306122448978	249.8807709750567	77	127
249.75306122448978	249.8807709750567	62	127
249.89238095238096	250.02009070294784	67	127
249.89238095238096	250.02009070294784	82	127
249.89238095238096	250.02009070294784	72	127
249.89238095238096	250.02009070294784	70	127
249.89238095238096	250.02009070294784	64	127
250.02009070294784	250.13619047619048	67	127
250.02009070294784	250.14780045351475	81	127
250.02009070294784	250.13619047619048	72	127
250.02009070294784	250.13619047619048	70	127
250.02009070294784	250.13619047619048	64	127
250.14780045351475	250.32195011337868	79	127
250.14780045351475	250.32195011337868	70	127
250.14780045351475	250.32195011337868	72	127
250.14780045351475	250.32195011337868	67	127
250.14780045351475	250.32195011337868	64	127
250.33356009070295	252.24920634920636	72	127
250.33356009070295	251.03015873015872	77	127
250.33356009070295	251.03015873015872	57	127
250.33356009070295	251.03015873015872	53	127
251.041768707483	251.86607709750567	55	127
251.041768707483	251.15786848072563	76	127
251.041768707483	251.86607709750567	58	127
251.15786848072563	251.29718820861677	86	127
251.29718820861677	251.43650793650792	84	127
251.43650793650792	251.5758276643991	82	127
251.5758276643991	251.71514739229025	81	127
251.71514739229025	251.86607709750567	79	127
251.87768707482994	252.144716553288	60	127
251.87768707482994	252.144716553288	77	127
251.87768707482994	252.144716553288	57	127
252.24920634920636	252.58589569160998	67	127
252.24920634920636	252.58589569160998	58	127
252.24920634920636	252.58589569160998	79	127
252.24920634920636	252.58589569160998	62	127
252.72521541950113	253.0502947845805	72	127
252.72521541950113	253.0502947845805	64	127
252.72521541950113	252.87614512471654	60	127
252.72521541950113	252.8877551020408	55	127
252.8877551020408	253.01546485260772	50	127
252.8877551020408	253.01546485260772	65	127
253.01546485260772	253.15478458049887	48	127
253.01546485260772	253.16639455782314	64	127
253.16639455782314	253.29410430839002	62	127
253.16639455782314	254.5015419501134	60	127
253.16639455782314	253.28249433106575	46	127
253.29410430839002	253.41020408163266	45	127
253.29410430839002	253.42181405895693	60	127
253.42181405895693	253.53791383219954	43	127
253.42181405895693	253.53791383219954	58	127
253.5495238095238	254.37383219954648	57	127
253.5495238095238	254.37383219954648	41	127
253.68884353741495	253.81655328798186	84	127
253.81655328798186	253.94426303854874	82	127
253.94426303854874	254.10680272108843	81	127
254.10680272108843	254.22290249433107	79	127
254.22290249433107	254.37383219954648	77	127
254.37383219954648	255.12848072562358	43	127
254.37383219954648	255.12848072562358	58	127
254.37383219954648	254.5015419501134	76	127
254.5015419501134	254.6524716553288	86	127
254.5015419501134	254.6524716553288	62	127
254.6524716553288	254.75696145124718	84	127
254.6524716553288	254.75696145124718	60	127
254.75696145124718	254.86145124716552	58	127
254.75696145124718	254.86145124716552	82	127
254.86145124716552	254.98916099773243	81	127
254.86145124716552	254.98916099773243	57	127
254.98916099773243	255.12848072562358	79	127
254.98916099773243	255.12848072562358	55	127
255.14009070294784	255.29102040816326	65	127
255.14009070294784	255.46517006802722	60	127
255.14009070294784	255.46517006802722	45	127
255.14009070294784	255.46517006802722	77	127
255.29102040816326	255.44195011337868	69	127
255.44195011337868	255.58126984126983	67	127
255.58126984126983	255.96439909297052	46	127
255.58126984126983	255.96439909297052	62	127
255.58126984126983	255.76702947845806	65	127
255.58126984126983	255.96439909297052	79	127
255.76702947845806	255.91795918367347	64	127
255.91795918367347	256.0688662131519	62	127
256.0688662131519	256.4520181405896	72	127
256.0688662131519	256.2198185941043	55	127
256.0688662131519	256.2198185941043	60	127
256.0688662131519	256.4520181405896	48	127
256.2198185941043	256.4171882086168	62	127
256.2198185941043	256.4171882086168	74	127
256.4171882086168	256.5797052154195	72	127
256.4171882086168	256.5797052154195	60	127
256.5797052154195	256.9396371882086	76	127
256.5797052154195	256.7306575963719	70	127
256.5797052154195	256.7306575963719	58	127
256.5797052154195	256.9396371882086	88	127
256.5797052154195	256.9396371882086	60	127
256.7306575963719	256.9048072562358	69	127
256.7306575963719	256.9048072562358	57	127
256.9048072562358	257.09054421768707	67	127
256.9048072562358	257.09054421768707	55	127
257.1021768707483	257.68267573696147	90	127
257.1021768707483	257.68267573696147	78	127
257.1021768707483	257.68267573696147	72	127
257.1021768707483	257.68267573696147	48	127
257.1021768707483	257.68267573696147	60	127
257.1021768707483	257.68267573696147	45	127
258.367664399093	258.4024943310658	81	127
258.4024943310658	258.82045351473926	69	127
258.4024943310658	258.9249206349206	62	127
258.4024943310658	258.634693877551	74	127
258.4024943310658	258.82045351473926	60	127
258.634693877551	258.82045351473926	78	127
258.82045351473926	258.9249206349206	58	127
258.82045351473926	258.9249206349206	79	127
258.82045351473926	258.9249206349206	67	127
259.8073015873016	259.92340136054423	67	127
259.8073015873016	259.92340136054423	58	127
259.92340136054423	259.9930612244898	52	127
259.92340136054423	259.9930612244898	60	127
259.92340136054423	260.22526077097507	48	127
259.9930612244898	260.23687074829934	55	127
259.9930612244898	260.23687074829934	64	127
260.23687074829934	260.4922902494331	48	127
260.23687074829934	260.4922902494331	41	127
260.23687074829934	260.4922902494331	65	127
260.23687074829934	260.4922902494331	57	127
261.29337868480724	261.42108843537414	81	127
261.42108843537414	261.9087074829932	72	127
261.42108843537414	261.67650793650796	74	127
261.42108843537414	262.164126984127	74	127
261.67650793650796	261.92031746031745	78	127
261.92031746031745	262.164126984127	70	127
261.92031746031745	262.164126984127	79	127
263.0697052154195	263.1974149659864	67	127
263.0697052154195	263.1974149659864	58	127
263.1974149659864	263.40639455782315	52	127
263.1974149659864	263.65020408163264	48	127
263.1974149659864	263.40639455782315	60	127
263.40639455782315	263.65020408163264	55	127
263.40639455782315	263.6618140589569	64	127
263.6618140589569	264.05655328798184	52	127
263.6618140589569	264.05655328798184	36	127
263.6618140589569	264.05655328798184	55	127
263.6618140589569	264.05655328798184	67	127
264.6022222222222	265.078231292517	66	127
265.08984126984126	265.54263038548754	67	127
265.4265306122449	265.49619047619046	74	127
265.49619047619046	265.5542403628118	76	127
265.5542403628118	265.69356009070293	56	127
265.5542403628118	266.0650793650794	77	127
265.69356009070293	266.0650793650794	57	127
266.07668934240365	266.94743764172335	72	127
266.07668934240365	266.5643083900227	64	127
266.57591836734696	267.063537414966	65	127
266.94743764172335	267.0170975056689	40	127
266.94743764172335	267.07514739229026	74	127
267.0170975056689	267.07514739229026	42	127
267.07514739229026	267.53954648526076	64	127
267.07514739229026	267.53954648526076	43	127
267.07514739229026	267.53954648526076	71	127
267.551156462585	268.0155555555556	62	127
268.02714285714285	268.4451020408163	61	127
268.4451020408163	268.7237641723356	62	127
268.61927437641725	268.67732426303854	45	127
268.67732426303854	268.7237641723356	46	127
268.7237641723356	269.49002267573695	48	127
268.7237641723356	269.0720634920635	51	127
269.08367346938775	269.49002267573695	52	127
269.5016326530612	270.16340136054424	43	127
269.5016326530612	269.84993197278914	60	127
269.84993197278914	270.2678911564626	58	127
270.16340136054424	270.2794784580499	45	127
270.2794784580499	270.6974603174603	58	127
270.2794784580499	270.6974603174603	41	127
270.70907029478457	271.1386394557823	57	127
271.03414965986394	271.080589569161	36	127
271.080589569161	271.1386394557823	38	127
271.1386394557823	271.5449886621315	40	127
271.1386394557823	271.5449886621315	78	127
271.5565986394558	271.8700680272109	79	127
271.78879818594106	271.8236281179138	62	127
271.8236281179138	271.88167800453516	64	127
271.88167800453516	272.69437641723357	65	127
271.88167800453516	272.3228344671202	68	127
272.3228344671202	272.69437641723357	69	127
272.69437641723357	273.14714285714285	76	127
272.69437641723357	273.35614512471653	60	127
273.14714285714285	273.4606349206349	77	127
273.35614512471653	273.4722448979592	62	127
273.35614512471653	273.4141950113379	64	127
273.4141950113379	273.4722448979592	65	127
273.4722448979592	274.2617006802721	59	127
273.4722448979592	273.92503401360545	76	127
273.4722448979592	273.92503401360545	67	127
273.9366439909297	274.29655328798185	74	127
274.2617006802721	274.29655328798185	76	127
274.29655328798185	274.6796598639456	77	127
274.29655328798185	274.6796598639456	61	127
274.6796598639456	275.097641723356	62	127
275.0047619047619	275.0395918367347	79	127
275.0395918367347	275.10925170068026	81	127
275.10925170068026	275.9567800453515	82	127
275.10925170068026	275.51560090702947	51	127
275.52721088435374	275.9567800453515	52	127
275.96839002267575	276.4443990929705	77	127
275.96839002267575	276.09609977324266	64	127
275.96839002267575	276.31666666666666	60	127
276.1076870748299	276.2586394557823	67	127
276.2702494331066	276.31666666666666	72	127
276.31666666666666	276.3863492063492	76	127
276.31666666666666	276.6765986394558	58	127
276.3863492063492	276.51403628117913	79	127
276.4443990929705	276.56049886621315	79	127
276.51403628117913	276.6765986394558	84	127
276.56049886621315	276.6185260770975	77	127
276.6185260770975	276.68820861678006	79	127
276.68820861678006	277.6750566893424	81	127
276.68820861678006	277.1758276643991	84	127
276.68820861678006	277.1758276643991	52	127
277.18743764172336	277.6750566893424	53	127
277.68666666666667	278.1162358276644	60	127
277.68666666666667	278.3484353741497	76	127
277.68666666666667	277.82598639455784	65	127
277.8375963718821	277.96530612244896	69	127
277.97691609977323	278.1162358276644	72	127
278.1278458049887	278.5573922902494	57	127
278.1278458049887	278.2671655328798	77	127
278.27877551020407	278.3948752834467	81	127
278.3484353741497	278.4413151927438	77	127
278.406485260771	278.5573922902494	84	127
278.4413151927438	278.51097505668935	79	127
278.51097505668935	278.56902494331064	81	127
278.56902494331064	278.7083446712018	63	127
278.56902494331064	278.82444444444445	82	127
278.56902494331064	278.7083446712018	48	127
278.7083446712018	278.82444444444445	64	127
278.7083446712018	278.82444444444445	67	127
278.7083446712018	278.7780045351474	60	127
278.7780045351474	278.8360544217687	62	127
278.8360544217687	279.3120634920635	72	127
278.8360544217687	279.3120634920635	70	127
278.8360544217687	279.3120634920635	64	127
278.8360544217687	279.54426303854876	77	127
279.3120634920635	279.77646258503404	70	127
279.54426303854876	279.67197278911567	79	127
279.67197278911567	279.73002267573696	77	127
279.73002267573696	279.7880498866213	79	127
279.7880498866213	280.22925170068027	64	127
279.7880498866213	280.49628117913835	81	127
279.7880498866213	279.9390022675737	36	127
279.95061224489797	280.0783219954649	41	127
280.0783219954649	280.22925170068027	45	127
280.22925170068027	280.49628117913835	65	127
280.22925170068027	280.3801814058957	48	127
280.3801814058957	280.42662131519273	53	127
280.42662131519273	280.49628117913835	57	127
280.4498412698413	280.4730612244898	65	127
280.4730612244898	280.49628117913835	67	127
280.49628117913835	280.9374603174603	57	127
280.49628117913835	281.30897959183676	76	127
280.49628117913835	280.9374603174603	72	127
280.49628117913835	280.9374603174603	69	127
280.9490702947846	281.30897959183676	69	127
281.30897959183676	281.3554195011338	77	127
281.30897959183676	281.33219954648524	67	127
281.30897959183676	281.33219954648524	55	127
281.33219954648524	281.36702947845805	69	127
281.33219954648524	281.36702947845805	57	127
281.36702947845805	282.1448752834467	58	127
281.36702947845805	281.49473922902496	36	127
281.36702947845805	281.761768707483	75	127
281.36702947845805	282.1448752834467	70	127
281.5063492063492	281.62242630385487	40	127
281.63403628117914	281.761768707483	43	127
281.77337868480726	282.1448752834467	76	127
281.77337868480726	281.8546485260771	48	127
281.86625850340135	282.0171882086168	52	127
282.0171882086168	282.02879818594107	55	127
282.04038548752834	282.08684807256236	55	127
282.08684807256236	282.1565079365079	57	127
282.1565079365079	282.5744671201814	58	127
282.1565079365079	282.81827664399094	53	127
282.1565079365079	282.5744671201814	84	127
282.1565079365079	282.81827664399094	65	127
282.58607709750567	282.96920634920633	82	127
282.81827664399094	282.94598639455785	67	127
282.81827664399094	282.94598639455785	55	127
282.94598639455785	282.96920634920633	65	127
282.94598639455785	282.96920634920633	53	127
282.96920634920633	283.0736961451247	36	127
282.96920634920633	283.3291156462585	76	127
282.96920634920633	283.66580498866216	69	127
282.96920634920633	283.66580498866216	57	127
283.08530612244897	283.22462585034015	41	127
283.2362358276644	283.3291156462585	45	127
283.3407256235828	283.4684126984127	48	127
283.3407256235828	283.66580498866216	77	127
283.4684126984127	283.5613151927438	53	127
283.5613151927438	283.59614512471654	57	127
283.5845351473923	283.6425850340136	53	127
283.6425850340136	283.67739229024943	55	127
283.67739229024943	284.3972335600907	64	127
283.67739229024943	284.3972335600907	52	127
283.67739229024943	284.13020408163266	84	127
283.67739229024943	284.13020408163266	57	127
284.1418140589569	284.5133333333333	81	127
284.5133333333333	284.58299319727894	67	127
284.5133333333333	284.58299319727894	55	127
284.5133333333333	284.58299319727894	79	127
284.5133333333333	284.58299319727894	55	127
284.58299319727894	284.64104308390023	69	127
284.58299319727894	284.64104308390023	57	127
284.58299319727894	284.64104308390023	81	127
284.58299319727894	284.64104308390023	57	127
284.64104308390023	284.7803628117914	70	127
284.64104308390023	284.7803628117914	82	127
284.64104308390023	284.7803628117914	58	127
284.64104308390023	284.7803628117914	58	127
284.90807256235826	284.9661224489796	64	127
284.90807256235826	284.9661224489796	64	127
284.90807256235826	284.9661224489796	76	127
284.90807256235826	284.9661224489796	64	127
284.9661224489796	285.03578231292516	65	127
284.9661224489796	285.03578231292516	65	127
284.9661224489796	285.03578231292516	77	127
284.9661224489796	285.03578231292516	65	127
285.03578231292516	285.1983219954649	67	127
285.03578231292516	285.1983219954649	67	127
285.03578231292516	285.1983219954649	79	127
285.03578231292516	285.1983219954649	67	127
285.3143990929705	285.36086167800454	60	127
285.3143990929705	285.36086167800454	60	127
285.3143990929705	285.36086167800454	72	127
285.3143990929705	285.36086167800454	60	127
285.36086167800454	285.4072789115646	62	127
285.36086167800454	285.4072789115646	74	127
285.36086167800454	285.4072789115646	62	127
285.36086167800454	285.4072789115646	62	127
285.4072789115646	285.62789115646257	64	127
285.4072789115646	285.62789115646257	76	127
285.4072789115646	285.62789115646257	64	127
285.4072789115646	285.62789115646257	64	127
285.7207482993197	285.7556009070295	55	127
285.7207482993197	285.7556009070295	67	127
285.7207482993197	285.7556009070295	55	127
285.7556009070295	285.80204081632655	57	127
285.7556009070295	285.80204081632655	57	127
285.7556009070295	285.80204081632655	69	127
285.80204081632655	285.9413605442177	58	127
285.80204081632655	285.9413605442177	70	127
285.80204081632655	285.9413605442177	58	127
286.0342403628118	286.0922902494331	52	127
286.0342403628118	286.0922902494331	64	127
286.0342403628118	286.0922902494331	52	127
286.0922902494331	286.13873015873014	53	127
286.0922902494331	286.13873015873014	65	127
286.0922902494331	286.13873015873014	53	127
286.13873015873014	286.3477097505669	55	127
286.13873015873014	286.3477097505669	67	127
286.13873015873014	286.3477097505669	55	127
286.4754195011338	286.53344671201813	48	127
286.4754195011338	286.53344671201813	60	127
286.4754195011338	286.53344671201813	48	127
286.53344671201813	286.5915192743764	50	127
286.53344671201813	286.5915192743764	50	127
286.53344671201813	286.5915192743764	62	127
286.5915192743764	286.74242630385487	52	127
286.5915192743764	286.74242630385487	64	127
286.5915192743764	286.74242630385487	52	127
286.8701587301587	286.92820861678007	43	127
286.8701587301587	286.92820861678007	55	127
286.8701587301587	286.92820861678007	55	127
286.92820861678007	286.98625850340136	45	127
286.92820861678007	286.98625850340136	57	127
286.92820861678007	286.98625850340136	57	127
286.98625850340136	287.1371882086168	46	127
286.98625850340136	287.1952380952381	58	127
286.98625850340136	287.1371882086168	58	127
287.1371882086168	287.2765079365079	50	127
287.1371882086168	287.2765079365079	62	127
287.2765079365079	287.40421768707483	60	127
287.2765079365079	287.40421768707483	48	127
287.40421768707483	287.53192743764174	58	127
287.40421768707483	287.53192743764174	46	127
287.53192743764174	287.61319727891157	45	127
287.53192743764174	287.61319727891157	57	127
287.61319727891157	287.7292970521542	55	127
287.61319727891157	287.7292970521542	43	127
287.7409070294785	288.5768027210884	53	127
287.7409070294785	288.5768027210884	41	127
287.9266666666667	288.0543764172336	72	127
288.06596371882085	288.1704535147392	70	127
288.18208616780043	288.2981859410431	69	127
288.2981859410431	288.43750566893425	67	127
288.4491156462585	288.5768027210884	65	127
288.5768027210884	288.692925170068	64	127
288.5768027210884	289.37791383219957	43	127
288.5768027210884	288.692925170068	52	127
288.692925170068	288.80902494331065	74	127
288.692925170068	288.80902494331065	62	127
288.8206349206349	288.9599546485261	72	127
288.8206349206349	288.9599546485261	60	127
288.97156462585036	289.07605442176873	70	127
288.97156462585036	289.07605442176873	58	127
289.087641723356	289.2385941043084	69	127
289.087641723356	289.2385941043084	57	127
289.25020408163266	289.37791383219957	67	127
289.25020408163266	289.37791383219957	55	127
289.38952380952384	289.70297052154194	65	127
289.38952380952384	289.70297052154194	45	127
289.38952380952384	289.70297052154194	53	127
289.8074603174603	290.07451247165534	67	127
289.8074603174603	290.07451247165534	55	127
289.8074603174603	290.07451247165534	46	127
290.20222222222225	290.42278911564625	48	127
290.20222222222225	290.42278911564625	48	127
290.20222222222225	290.26027210884354	60	127
290.26027210884354	290.38798185941044	86	127
290.26027210884354	290.38798185941044	74	127
290.3995918367347	290.53891156462583	84	127
290.3995918367347	290.53891156462583	72	127
290.5505215419501	290.7478911564626	50	127
290.5505215419501	290.6898412698413	70	127
290.5505215419501	290.7478911564626	53	127
290.5505215419501	290.6898412698413	82	127
290.70145124716555	290.8059410430839	69	127
290.70145124716555	290.8059410430839	81	127
290.7478911564626	290.94526077097504	55	127
290.7478911564626	290.94526077097504	52	127
290.8175510204082	290.94526077097504	79	127
290.8175510204082	290.94526077097504	67	127
290.9568707482993	291.73473922902497	57	127
290.9568707482993	291.73473922902497	53	127
290.9568707482993	291.0845804988662	77	127
291.0845804988662	291.2239002267574	72	127
291.0845804988662	291.2239002267574	72	127
291.23548752834466	291.33997732426303	70	127
291.23548752834466	291.33997732426303	76	127
291.35160997732424	291.4909297052154	69	127
291.35160997732424	291.4909297052154	77	127
291.4909297052154	291.6302494331066	79	127
291.4909297052154	291.6302494331066	67	127
291.64183673469387	291.73473922902497	81	127
291.64183673469387	291.73473922902497	65	127
291.73473922902497	291.83922902494334	76	127
291.73473922902497	292.55904761904765	64	127
291.73473922902497	292.55904761904765	55	127
291.73473922902497	292.55904761904765	58	127
291.83922902494334	291.9669387755102	86	127
291.97854875283446	292.10625850340136	84	127
292.10625850340136	292.24557823129254	82	127
292.2571655328798	292.4081179138322	81	127
292.41972789115647	292.55904761904765	79	127
292.5706349206349	292.89573696145123	60	127
292.5706349206349	292.89573696145123	57	127
292.5706349206349	292.89573696145123	77	127
292.5706349206349	292.89573696145123	65	127
293.0350566893424	293.33691609977325	62	127
293.0350566893424	293.33691609977325	58	127
293.0350566893424	293.33691609977325	79	127
293.0350566893424	293.33691609977325	74	127
293.39496598639454	293.7316553287982	72	127
293.39496598639454	293.7316553287982	72	127
293.39496598639454	293.7316553287982	60	127
293.39496598639454	293.7316553287982	60	127
293.8477551020408	294.24249433106576	84	127
293.8477551020408	294.24249433106576	63	127
293.8477551020408	294.24249433106576	51	127
293.8477551020408	294.24249433106576	39	127
294.25410430839	294.3237641723356	81	127
294.3237641723356	294.3934240362812	82	127
294.3934240362812	296.2626303854875	51	127
294.3934240362812	296.2626303854875	39	127
294.3934240362812	295.4034920634921	84	127
294.3934240362812	295.82145124716556	63	127
295.41510204081635	296.1813605442177	79	127
295.8330385487528	296.2626303854875	60	127
296.1813605442177	296.2626303854875	81	127
296.2626303854875	296.4367800453515	39	127
296.2626303854875	296.4367800453515	69	127
296.2626303854875	296.4367800453515	51	127
296.2626303854875	296.4367800453515	78	127
296.97083900226755	297.04049886621317	69	127
296.97083900226755	297.04049886621317	81	127
297.04049886621317	297.11015873015873	82	127
297.04049886621317	297.11015873015873	70	127
297.11015873015873	297.6558276643991	72	127
297.11015873015873	297.6558276643991	84	127
298.01573696145124	298.08537414965986	60	127
298.01573696145124	298.08537414965986	84	127
298.01573696145124	298.08537414965986	72	127
298.01573696145124	298.08537414965986	48	127
298.08537414965986	298.1550566893424	62	127
298.08537414965986	298.1550566893424	50	127
298.08537414965986	298.1550566893424	86	127
298.08537414965986	298.1550566893424	74	127
298.1550566893424	298.8400453514739	75	127
298.1550566893424	298.8400453514739	51	127
298.1550566893424	298.8400453514739	87	127
298.1550566893424	298.8400453514739	63	127
298.8516553287982	299.49020408163267	70	127
298.8516553287982	299.49020408163267	46	127
298.8516553287982	299.49020408163267	82	127
298.8516553287982	299.49020408163267	58	127
299.49020408163267	299.59469387755104	72	127
299.49020408163267	299.59469387755104	48	127
299.49020408163267	299.59469387755104	84	127
299.49020408163267	299.59469387755104	60	127
299.6063038548753	299.9313605442177	45	127
299.6063038548753	299.9313605442177	69	127
299.6063038548753	299.9313605442177	57	127
299.6063038548753	299.9313605442177	81	127
299.9429931972789	300.00104308390024	72	127
299.9429931972789	300.00104308390024	84	127
300.00104308390024	300.0707029478458	74	127
300.00104308390024	300.0707029478458	86	127
300.0707029478458	300.477052154195	87	127
300.0707029478458	300.477052154195	75	127
300.3841723356009	300.44219954648526	48	127
300.44219954648526	300.477052154195	50	127
300.477052154195	300.8950113378685	51	127
300.7905215419501	300.90662131519275	60	127
300.90662131519275	301.1504081632653	53	127
301.1504081632653	301.35938775510203	57	127
301.35938775510203	301.7889795918367	58	127
301.6728798185941	301.800589569161	74	127
301.800589569161	302.03278911564627	65	127
302.03278911564627	302.26498866213154	70	127
302.26498866213154	302.3694784580499	72	127
302.3810657596372	302.49718820861676	75	127
302.49718820861676	302.8338775510204	57	127
302.49718820861676	302.72938775510204	65	127
302.72938775510204	302.94997732426305	72	127
302.94997732426305	303.2518367346939	74	127
303.2518367346939	303.35632653061225	75	127
303.35632653061225	303.90199546485263	77	127
303.35632653061225	303.61172335600907	62	127
303.35632653061225	303.61172335600907	58	127
303.61172335600907	303.72784580498865	63	127
303.61172335600907	303.72784580498865	60	127
303.72784580498865	303.99487528344673	65	127
303.72784580498865	304.0645351473923	62	127
303.99487528344673	304.07614512471656	79	127
304.07614512471656	304.3663945578231	64	127
304.07614512471656	304.29673469387757	72	127
304.07614512471656	304.3663945578231	60	127
304.07614512471656	304.3663945578231	55	127
304.29673469387757	304.49410430839004	76	127
304.49410430839004	304.8191836734694	77	127
304.8307709750567	304.94689342403626	69	127
304.94689342403626	305.17909297052154	60	127
305.17909297052154	305.34160997732425	65	127
305.34160997732425	305.58544217687074	67	127
305.597052154195	305.7015419501134	58	127
305.7015419501134	305.93374149659866	64	127
305.7015419501134	305.93374149659866	48	127
305.93374149659866	306.0150113378685	55	127
306.0150113378685	306.35170068027213	57	127
306.35170068027213	306.4213605442177	58	127
306.4213605442177	306.7696598639456	81	127
306.4213605442177	307.1063492063492	60	127
306.4213605442177	306.7696598639456	53	127
306.7696598639456	306.88573696145124	82	127
306.7696598639456	306.88573696145124	55	127
306.88573696145124	307.2340589569161	84	127
306.88573696145124	307.35015873015874	57	127
307.11795918367346	307.361768707483	65	127
307.361768707483	307.6055782312925	64	127
307.361768707483	307.6868480725624	86	127
307.6055782312925	307.75650793650794	62	127
307.75650793650794	307.8958276643991	60	127
307.9654875283447	308.1744671201814	74	127
307.9654875283447	308.1744671201814	58	127
308.1744671201814	308.38344671201816	70	127
308.1744671201814	308.38344671201816	52	127
308.1744671201814	308.38344671201816	43	127
308.38344671201816	308.5924263038549	67	127
308.38344671201816	308.5924263038549	58	127
308.38344671201816	308.5924263038549	46	127
308.5924263038549	308.731746031746	65	127
308.5924263038549	308.731746031746	57	127
308.5924263038549	308.90589569161	48	127
308.80140589569163	308.9871655328798	79	127
308.80140589569163	308.9871655328798	67	127
308.80140589569163	308.9871655328798	58	127
308.9871655328798	309.1497052154195	76	127
308.9871655328798	309.1497052154195	60	127
308.9871655328798	309.1497052154195	55	127
308.9871655328798	309.2658049886621	46	127
309.1497052154195	309.39351473922903	72	127
309.1497052154195	309.39351473922903	67	127
309.1497052154195	309.39351473922903	64	127
309.39351473922903	309.79986394557824	81	127
309.39351473922903	309.79986394557824	69	127
309.39351473922903	309.79986394557824	65	127
309.39351473922903	309.9391836734694	45	127
309.79986394557824	309.9507709750567	82	127
309.79986394557824	309.9507709750567	70	127
309.79986394557824	309.9507709750567	67	127
309.9507709750567	310.3803628117914	57	127
309.9507709750567	310.3803628117914	41	127
309.9507709750567	311.65746031746033	84	127
309.9507709750567	311.65746031746033	65	127
309.9507709750567	311.65746031746033	72	127
310.39197278911564	310.61256235827665	43	127
310.39197278911564	310.61256235827665	58	127
310.6357823129252	311.65746031746033	53	127
310.6357823129252	311.65746031746033	60	127
310.6357823129252	311.65746031746033	45	127
311.9825396825397	312.11024943310656	89	127
311.9825396825397	312.11024943310656	77	127
311.9825396825397	312.11024943310656	65	127
312.11024943310656	312.3540589569161	88	127
312.11024943310656	312.3540589569161	76	127
312.11024943310656	312.3540589569161	64	127
312.3540589569161	312.6094557823129	86	127
312.3540589569161	312.6094557823129	74	127
312.3540589569161	312.6094557823129	62	127
312.6094557823129	312.84167800453514	84	127
312.6094557823129	312.84167800453514	72	127
312.6094557823129	312.84167800453514	60	127
312.9809977324263	313.1087074829932	86	127
312.9809977324263	313.1087074829932	74	127
312.9809977324263	313.1087074829932	62	127
313.1087074829932	313.37573696145125	82	127
313.1087074829932	313.37573696145125	70	127
313.1087074829932	313.37573696145125	58	127
313.37573696145125	313.6427664399093	67	127
313.37573696145125	313.6427664399093	79	127
313.37573696145125	313.6427664399093	55	127
313.6427664399093	313.90979591836737	77	127
313.6427664399093	313.90979591836737	65	127
313.6427664399093	313.90979591836737	53	127
314.06072562358275	314.2116553287982	79	127
314.06072562358275	314.2116553287982	67	127
314.06072562358275	314.2116553287982	55	127
314.06072562358275	314.2116553287982	43	127
314.2116553287982	314.46707482993196	76	127
314.2116553287982	314.46707482993196	64	127
314.2116553287982	314.46707482993196	52	127
314.2116553287982	314.46707482993196	40	127
314.46707482993196	314.8037641723356	72	127
314.46707482993196	314.8037641723356	60	127
314.46707482993196	314.8037641723356	48	127
314.46707482993196	314.8037641723356	36	127
314.8153741496599	315.77897959183673	65	127
314.8153741496599	315.77897959183673	77	127
314.8153741496599	315.77897959183673	57	127
314.8153741496599	315.77897959183673	69	127
314.8153741496599	315.77897959183673	53	127
314.8153741496599	315.77897959183673	41	127
319.77283446712016	319.9237641723356	65	127
