# onset,offset,note,velocity
0.12693877551020408	0.2198185941043084	53	127
0.12693877551020408	0.2198185941043084	53	127
0.12693877551020408	0.2198185941043084	65	127
0.521655328798186	1.0905668934240362	60	127
0.719047619047619	1.287936507936508	53	127
0.719047619047619	0.8583673469387755	41	127
0.8815873015873016	1.4736961451247166	69	127
1.0905668934240362	1.6594557823129252	60	127
1.0905668934240362	1.2298866213151927	45	127
1.287936507936508	1.7987755102040817	52	127
1.287936507936508	1.4272562358276644	46	127
1.4736961451247166	1.9961451247165534	67	127
1.6594557823129252	2.193514739229025	60	127
1.6594557823129252	1.7523356009070294	48	127
1.8103854875283447	2.3444444444444446	53	127
1.8103854875283447	1.938095238095238	50	127
1.9961451247165534	2.5418140589569163	65	127
2.193514739229025	2.2980045351473923	48	127
2.193514739229025	2.739183673469388	60	127
2.3444444444444446	2.9365306122448978	52	127
2.3444444444444446	2.495374149659864	46	127
2.553424036281179	3.133922902494331	67	127
2.739183673469388	3.3312925170068026	60	127
2.739183673469388	2.878503401360544	43	127
2.9365306122448978	3.0874829931972787	41	127
2.9365306122448978	3.5170521541950115	53	127
3.133922902494331	3.749251700680272	69	127
3.3312925170068026	3.4706122448979593	45	127
3.3312925170068026	3.946621315192744	60	127
3.5286621315192743	3.679591836734694	46	127
3.5286621315192743	4.1439909297052155	52	127
3.749251700680272	4.376190476190477	67	127
3.946621315192744	4.097551020408163	48	127
3.946621315192744	4.1439909297052155	60	127
4.1439909297052155	4.318140589569161	57	127
4.1439909297052155	4.318140589569161	50	127
4.1439909297052155	4.318140589569161	53	127
4.376190476190477	4.527120181405896	65	127
4.376190476190477	4.527120181405896	53	127
4.376190476190477	4.527120181405896	38	127
4.376190476190477	4.527120181405896	57	127
4.585170068027211	4.7477097505668935	67	127
4.585170068027211	4.7477097505668935	36	127
4.585170068027211	4.7477097505668935	52	127
4.585170068027211	4.7477097505668935	64	127
4.805759637188209	4.945056689342404	41	127
4.805759637188209	4.945056689342404	65	127
4.805759637188209	4.945056689342404	57	127
4.805759637188209	4.945056689342404	53	127
4.968299319727891	5.130839002267574	62	127
4.968299319727891	5.130839002267574	69	127
4.968299319727891	5.130839002267574	77	127
5.188888888888889	5.339818594104308	79	127
5.188888888888889	5.548775510204082	84	127
5.188888888888889	5.339818594104308	76	127
5.188888888888889	5.339818594104308	60	127
5.397868480725624	5.525578231292517	69	127
5.397868480725624	5.525578231292517	77	127
5.397868480725624	5.525578231292517	65	127
5.525578231292517	5.780997732426304	81	127
5.560408163265306	5.780997732426304	65	127
5.560408163265306	5.699727891156463	57	127
5.560408163265306	5.908707482993197	84	127
5.780997732426304	5.908707482993197	64	127
5.780997732426304	6.233786848072563	79	127
5.908707482993197	6.442766439909297	84	127
5.908707482993197	6.001587301587302	60	127
5.908707482993197	6.048027210884354	70	127
6.048027210884354	6.233786848072563	69	127
6.048027210884354	6.1873469387755105	62	127
6.245396825396825	6.442766439909297	57	127
6.245396825396825	6.825895691609977	77	127
6.442766439909297	6.98843537414966	84	127
6.442766439909297	6.582086167800454	60	127
6.442766439909297	6.628526077097506	69	127
6.628526077097506	6.825895691609977	62	127
6.628526077097506	6.779455782312925	58	127
6.825895691609977	6.98843537414966	70	127
6.825895691609977	7.37156462585034	79	127
7.000045351473923	7.418004535147392	84	127
7.000045351473923	7.13936507936508	55	127
7.000045351473923	7.197414965986394	64	127
7.197414965986394	7.37156462585034	69	127
7.197414965986394	7.348344671201814	53	127
7.37156462585034	7.418004535147392	60	127
7.37156462585034	7.812743764172335	81	127
7.418004535147392	7.568934240362812	57	127
7.418004535147392	7.812743764172335	65	127
7.418004535147392	8.010113378684807	84	127
7.615374149659864	7.754693877551021	58	127
7.812743764172335	8.277142857142858	79	127
7.812743764172335	8.010113378684807	52	127
8.010113378684807	8.277142857142858	84	127
8.010113378684807	8.126213151927438	60	127
8.010113378684807	8.172630385487528	64	127
8.172630385487528	8.277142857142858	57	127
8.172630385487528	8.242312925170069	62	127
8.28875283446712	8.43968253968254	86	127
8.28875283446712	8.497732426303855	69	127
8.28875283446712	8.43968253968254	50	127
8.28875283446712	8.43968253968254	77	127
8.497732426303855	8.637052154195011	88	127
8.497732426303855	8.637052154195011	79	127
8.497732426303855	8.637052154195011	48	127
8.497732426303855	8.648639455782313	60	127
8.660272108843538	8.776349206349206	77	127
8.660272108843538	8.776349206349206	53	127
8.660272108843538	8.82281179138322	53	127
8.660272108843538	8.776349206349206	89	127
8.82281179138322	9.252380952380953	63	127
8.82281179138322	9.252380952380953	39	127
8.82281179138322	9.252380952380953	51	127
9.461360544217687	9.856099773242631	51	127
9.461360544217687	9.856099773242631	39	127
9.856099773242631	10.250839002267574	51	127
9.856099773242631	10.250839002267574	39	127
10.250839002267574	10.45981859410431	39	127
10.250839002267574	10.45981859410431	51	127
10.610748299319727	10.88938775510204	63	127
10.610748299319727	10.88938775510204	51	127
10.610748299319727	10.88938775510204	39	127
10.900975056689342	11.249274376417233	51	127
10.900975056689342	11.249274376417233	39	127
10.900975056689342	11.249274376417233	63	127
11.249274376417233	11.481496598639456	51	127
11.249274376417233	11.481496598639456	63	127
11.249274376417233	11.481496598639456	39	127
11.702086167800454	12.050385487528345	51	127
11.702086167800454	12.050385487528345	63	127
11.702086167800454	12.050385487528345	39	127
12.247755102040816	12.49156462585034	63	127
12.247755102040816	12.49156462585034	51	127
12.247755102040816	12.49156462585034	39	127
12.665714285714285	13.118503401360543	40	127
12.665714285714285	13.118503401360543	64	127
12.665714285714285	13.118503401360543	52	127
13.350702947845805	13.94281179138322	36	127
13.350702947845805	13.687392290249432	64	127
13.350702947845805	13.687392290249432	52	127
13.687392290249432	13.815102040816326	53	127
13.815102040816326	13.94281179138322	48	127
13.815102040816326	14.151791383219955	69	127
13.815102040816326	14.151791383219955	48	127
13.94281179138322	14.349160997732426	65	127
13.94281179138322	14.024081632653061	57	127
13.94281179138322	14.349160997732426	36	127
14.024081632653061	14.151791383219955	59	127
14.163401360544217	14.349160997732426	48	127
14.163401360544217	14.74390022675737	67	127
14.163401360544217	14.74390022675737	48	127
14.349160997732426	14.546530612244897	60	127
14.349160997732426	14.929659863945579	36	127
14.349160997732426	14.546530612244897	64	127
14.546530612244897	14.929659863945579	57	127
14.546530612244897	14.74390022675737	62	127
14.74390022675737	15.254739229024944	48	127
14.74390022675737	14.929659863945579	48	127
14.74390022675737	15.254739229024944	65	127
14.929659863945579	15.12702947845805	60	127
14.929659863945579	15.417278911564626	36	127
14.929659863945579	15.12702947845805	56	127
15.12702947845805	15.417278911564626	62	127
15.12702947845805	15.254739229024944	59	127
15.254739229024944	15.417278911564626	48	127
15.254739229024944	15.707528344671202	67	127
15.417278911564626	15.89328798185941	36	127
15.417278911564626	15.54498866213152	58	127
15.417278911564626	15.54498866213152	49	127
15.417278911564626	15.707528344671202	64	127
15.54498866213152	15.707528344671202	57	127
15.54498866213152	15.707528344671202	48	127
15.719138321995464	16.264807256235827	69	127
15.719138321995464	15.89328798185941	48	127
15.719138321995464	16.264807256235827	48	127
15.719138321995464	15.89328798185941	57	127
15.89328798185941	16.079024943310657	57	127
15.89328798185941	16.264807256235827	65	127
15.89328798185941	16.41573696145125	36	127
16.079024943310657	16.264807256235827	59	127
16.264807256235827	16.41573696145125	48	127
16.264807256235827	16.833696145124716	67	127
16.264807256235827	16.833696145124716	48	127
16.264807256235827	16.41573696145125	65	127
16.42734693877551	16.601496598639457	60	127
16.42734693877551	17.019455782312924	36	127
16.42734693877551	16.601496598639457	64	127
16.601496598639457	16.833696145124716	59	127
16.601496598639457	17.019455782312924	56	127
16.601496598639457	16.833696145124716	56	127
16.833696145124716	17.019455782312924	62	127
16.833696145124716	17.019455782312924	48	127
16.833696145124716	17.390975056689342	48	127
16.833696145124716	16.97299319727891	65	127
17.019455782312924	17.170385487528346	67	127
17.019455782312924	17.216825396825396	55	127
17.019455782312924	17.216825396825396	64	127
17.019455782312924	17.216825396825396	58	127
17.019455782312924	17.390975056689342	36	127
17.216825396825396	17.390975056689342	57	127
17.216825396825396	17.390975056689342	57	127
17.216825396825396	17.390975056689342	65	127
17.402585034013605	17.95986394557823	48	127
17.402585034013605	17.518684807256236	53	127
17.402585034013605	17.518684807256236	41	127
17.57673469387755	17.95986394557823	55	127
17.57673469387755	17.95986394557823	43	127
17.774104308390022	17.913424036281178	77	127
17.774104308390022	17.913424036281178	65	127
17.95986394557823	18.52875283446712	57	127
17.95986394557823	18.52875283446712	45	127
18.157233560090702	18.296553287981858	81	127
18.157233560090702	18.296553287981858	69	127
18.34299319727891	18.482312925170067	70	127
18.34299319727891	18.482312925170067	82	127
18.52875283446712	19.09764172335601	43	127
18.52875283446712	19.09764172335601	55	127
18.737732426303854	18.853832199546485	72	127
18.737732426303854	18.853832199546485	84	127
18.900272108843538	19.051201814058956	86	127
18.900272108843538	19.051201814058956	74	127
19.09764172335601	19.631678004535146	41	127
19.09764172335601	19.631678004535146	53	127
19.283401360544218	19.39950113378685	72	127
19.283401360544218	19.39950113378685	84	127
19.445918367346938	19.585260770975058	70	127
19.445918367346938	19.585260770975058	82	127
19.631678004535146	20.154149659863947	55	127
19.631678004535146	20.154149659863947	43	127
19.840680272108845	19.89873015873016	79	127
19.840680272108845	19.89873015873016	67	127
19.956780045351476	20.107709750566894	65	127
19.956780045351476	20.107709750566894	77	127
20.154149659863947	20.71140589569161	45	127
20.154149659863947	20.71140589569161	57	127
20.339909297052156	20.455986394557822	81	127
20.339909297052156	20.455986394557822	69	127
20.5140589569161	20.653356009070293	70	127
20.5140589569161	20.653356009070293	82	127
20.71140589569161	21.245487528344672	55	127
20.71140589569161	21.245487528344672	43	127
20.89718820861678	21.0481179138322	72	127
20.89718820861678	21.0481179138322	84	127
21.082947845804988	21.21065759637188	86	127
21.082947845804988	21.21065759637188	74	127
21.245487528344672	21.39641723356009	53	127
21.245487528344672	21.39641723356009	41	127
21.454467120181405	21.59378684807256	43	127
21.454467120181405	21.59378684807256	55	127
21.454467120181405	21.59378684807256	84	127
21.454467120181405	21.59378684807256	64	127
21.454467120181405	21.59378684807256	72	127
21.651836734693877	21.77954648526077	53	127
21.651836734693877	21.77954648526077	84	127
21.651836734693877	21.77954648526077	69	127
21.651836734693877	21.77954648526077	72	127
21.651836734693877	21.77954648526077	41	127
21.825986394557823	21.97691609977324	72	127
21.825986394557823	21.97691609977324	84	127
21.825986394557823	21.97691609977324	57	127
22.011746031746032	22.151065759637188	69	127
22.011746031746032	22.151065759637188	87	127
22.011746031746032	22.151065759637188	53	127
22.151065759637188	22.27877551020408	58	127
22.151065759637188	22.27877551020408	86	127
22.151065759637188	22.27877551020408	65	127
22.336825396825397	22.418095238095237	41	127
22.46453514739229	22.592244897959183	43	127
22.638684807256237	22.719954648526077	41	127
22.76639455782313	22.917324263038548	74	127
22.76639455782313	22.917324263038548	88	127
22.76639455782313	22.917324263038548	65	127
22.76639455782313	22.917324263038548	58	127
22.975374149659864	23.103083900226757	74	127
22.975374149659864	23.103083900226757	89	127
22.975374149659864	23.103083900226757	65	127
22.975374149659864	23.103083900226757	58	127
23.11469387755102	23.242403628117913	69	127
23.11469387755102	23.242403628117913	84	127
23.11469387755102	23.242403628117913	65	127
23.277233560090703	23.42816326530612	65	127
23.277233560090703	23.42816326530612	77	127
23.277233560090703	23.42816326530612	41	127
23.462993197278912	23.567460317460316	67	127
23.462993197278912	23.567460317460316	79	127
23.462993197278912	23.567460317460316	39	127
23.625532879818593	23.764852607709752	66	127
23.625532879818593	23.764852607709752	78	127
23.625532879818593	23.764852607709752	38	127
23.788072562358277	23.904172335600908	67	127
23.788072562358277	23.904172335600908	86	127
23.788072562358277	23.904172335600908	82	127
23.788072562358277	23.904172335600908	40	127
23.927392290249433	24.07832199546485	69	127
23.927392290249433	24.07832199546485	84	127
23.927392290249433	24.07832199546485	81	127
23.927392290249433	24.07832199546485	42	127
24.124761904761904	24.252471655328797	43	127
24.124761904761904	24.252471655328797	84	127
24.124761904761904	24.252471655328797	81	127
24.124761904761904	24.252471655328797	62	127
24.29891156462585	24.391791383219953	79	127
24.29891156462585	24.391791383219953	82	127
24.29891156462585	24.391791383219953	64	127
24.29891156462585	24.391791383219953	43	127
24.426621315192744	24.5659410430839	45	127
24.426621315192744	24.5659410430839	81	127
24.426621315192744	24.5659410430839	77	127
24.426621315192744	24.5659410430839	60	127
24.623990929705215	24.79814058956916	77	127
24.623990929705215	24.75170068027211	46	127
24.623990929705215	24.79814058956916	81	127
24.623990929705215	24.79814058956916	62	127
24.79814058956916	24.902630385487527	55	127
24.79814058956916	24.902630385487527	82	127
24.79814058956916	24.902630385487527	74	127
24.79814058956916	24.902630385487527	46	127
24.94907029478458	25.088390022675735	60	127
24.94907029478458	25.088390022675735	79	127
24.94907029478458	25.088390022675735	70	127
24.94907029478458	25.088390022675735	76	127
24.94907029478458	25.088390022675735	48	127
25.14643990929705	25.343809523809522	60	127
25.14643990929705	25.28575963718821	81	127
25.14643990929705	25.28575963718821	69	127
25.14643990929705	25.343809523809522	41	127
25.343809523809522	25.494739229024944	77	127
25.343809523809522	25.494739229024944	65	127
25.541179138321997	25.645668934240362	79	127
25.541179138321997	25.645668934240362	67	127
25.645668934240362	25.761768707482993	77	127
25.645668934240362	25.761768707482993	65	127
25.773378684807255	25.90108843537415	60	127
25.773378684807255	25.90108843537415	57	127
25.959138321995464	26.09845804988662	60	127
25.959138321995464	26.09845804988662	63	127
26.156507936507936	26.307437641723357	58	127
26.156507936507936	26.307437641723357	62	127
26.307437641723357	26.43514739229025	65	127
26.307437641723357	26.43514739229025	77	127
26.4815873015873	26.609297052154194	79	127
26.4815873015873	26.609297052154194	67	127
26.655736961451247	26.725396825396825	77	127
26.655736961451247	26.725396825396825	65	127
26.725396825396825	26.86471655328798	58	127
26.725396825396825	26.86471655328798	64	127
26.911156462585033	27.062086167800455	58	127
26.911156462585033	27.062086167800455	65	127
27.108526077097505	27.28267573696145	57	127
27.108526077097505	27.28267573696145	60	127
27.294285714285714	27.410385487528345	77	127
27.294285714285714	27.410385487528345	65	127
27.456825396825398	27.607755102040816	79	127
27.456825396825398	27.607755102040816	67	127
27.630975056689344	27.689024943310656	77	127
27.630975056689344	27.689024943310656	65	127
27.723854875283447	27.874784580498865	60	127
27.723854875283447	27.874784580498865	78	127
27.723854875283447	27.874784580498865	66	127
27.723854875283447	27.874784580498865	63	127
27.921224489795918	28.072154195011336	67	127
27.921224489795918	28.072154195011336	79	127
27.921224489795918	28.072154195011336	62	127
27.921224489795918	28.072154195011336	58	127
28.13020408163265	28.26952380952381	62	127
28.13020408163265	28.26952380952381	79	127
28.13020408163265	28.26952380952381	67	127
28.13020408163265	28.26952380952381	58	127
28.281133786848073	28.33918367346939	60	127
28.281133786848073	28.33918367346939	79	127
28.281133786848073	28.33918367346939	67	127
28.281133786848073	28.33918367346939	57	127
28.38562358276644	28.53655328798186	55	127
28.38562358276644	28.53655328798186	84	127
28.38562358276644	28.53655328798186	72	127
28.38562358276644	28.53655328798186	58	127
28.582993197278913	28.69909297052154	53	127
28.582993197278913	28.65265306122449	84	127
28.582993197278913	28.65265306122449	72	127
28.582993197278913	28.69909297052154	57	127
28.710702947845807	28.850022675736962	55	127
28.710702947845807	28.850022675736962	84	127
28.710702947845807	28.850022675736962	72	127
28.710702947845807	28.850022675736962	58	127
28.908072562358278	28.989342403628118	52	127
28.908072562358278	28.989342403628118	84	127
28.908072562358278	28.989342403628118	72	127
28.908072562358278	28.989342403628118	55	127
29.03578231292517	29.163492063492065	53	127
29.03578231292517	29.163492063492065	84	127
29.03578231292517	29.163492063492065	72	127
29.03578231292517	29.163492063492065	57	127
29.209931972789114	29.314421768707483	64	127
29.209931972789114	29.314421768707483	82	127
29.209931972789114	29.314421768707483	60	127
29.209931972789114	29.314421768707483	55	127
29.3724716553288	29.50018140589569	72	127
29.3724716553288	29.50018140589569	81	127
29.3724716553288	29.50018140589569	65	127
29.3724716553288	29.50018140589569	57	127
29.558231292517007	29.732380952380954	81	127
29.558231292517007	29.732380952380954	72	127
29.558231292517007	29.732380952380954	62	127
29.558231292517007	29.732380952380954	58	127
29.732380952380954	29.860090702947847	46	127
29.732380952380954	29.860090702947847	50	127
29.732380952380954	29.860090702947847	82	127
29.732380952380954	29.860090702947847	67	127
29.732380952380954	29.860090702947847	74	127
29.906530612244897	30.05746031746032	52	127
29.906530612244897	30.05746031746032	79	127
29.906530612244897	30.05746031746032	64	127
29.906530612244897	30.05746031746032	48	127
30.103900226757368	30.266439909297052	70	127
30.103900226757368	30.243219954648527	48	127
30.103900226757368	30.266439909297052	79	127
30.103900226757368	30.266439909297052	52	127
30.278049886621314	30.405759637188208	53	127
30.278049886621314	30.405759637188208	81	127
30.278049886621314	30.405759637188208	69	127
30.278049886621314	30.405759637188208	36	127
30.41736961451247	30.5334693877551	57	127
30.41736961451247	30.5334693877551	77	127
30.41736961451247	30.5334693877551	65	127
30.41736961451247	30.5334693877551	36	127
30.55668934240363	30.74244897959184	76	127
30.55668934240363	30.696009070294785	36	127
30.55668934240363	30.74244897959184	58	127
30.55668934240363	30.74244897959184	67	127
30.74244897959184	30.87015873015873	77	127
30.74244897959184	30.87015873015873	65	127
30.74244897959184	30.87015873015873	57	127
30.74244897959184	30.87015873015873	36	127
30.91659863945578	31.067528344671203	36	127
30.91659863945578	31.067528344671203	79	127
30.91659863945578	31.067528344671203	64	127
30.91659863945578	31.067528344671203	55	127
31.12557823129252	31.241678004535146	55	127
31.12557823129252	31.20684807256236	70	127
31.12557823129252	31.241678004535146	76	127
31.12557823129252	31.241678004535146	36	127
31.241678004535146	31.334557823129252	53	127
31.241678004535146	31.334557823129252	77	127
31.241678004535146	31.334557823129252	58	127
31.241678004535146	31.334557823129252	38	127
31.334557823129252	31.462267573696145	52	127
31.334557823129252	31.462267573696145	79	127
31.334557823129252	31.462267573696145	70	127
31.334557823129252	31.462267573696145	40	127
31.5087074829932	31.659637188208617	57	127
31.5087074829932	31.659637188208617	72	127
31.5087074829932	31.659637188208617	69	127
31.5087074829932	31.659637188208617	41	127
31.67124716553288	31.78734693877551	58	127
31.67124716553288	31.78734693877551	72	127
31.67124716553288	31.78734693877551	67	127
31.67124716553288	31.78734693877551	43	127
31.833786848072563	31.961496598639457	60	127
31.833786848072563	31.961496598639457	72	127
31.833786848072563	31.961496598639457	65	127
31.833786848072563	31.961496598639457	45	127
32.007936507936506	32.20530612244898	76	127
32.007936507936506	32.15884353741497	58	127
32.007936507936506	32.20530612244898	55	127
32.007936507936506	32.20530612244898	36	127
32.20530612244898	32.274965986394555	38	127
32.20530612244898	32.274965986394555	77	127
32.20530612244898	32.274965986394555	70	127
32.20530612244898	32.274965986394555	53	127
32.274965986394555	32.414263038548754	52	127
32.274965986394555	32.414263038548754	79	127
32.274965986394555	32.414263038548754	70	127
32.274965986394555	32.414263038548754	40	127
32.47233560090703	32.611655328798186	57	127
32.47233560090703	32.611655328798186	72	127
32.47233560090703	32.611655328798186	69	127
32.47233560090703	32.611655328798186	41	127
32.63487528344671	32.78578231292517	58	127
32.63487528344671	32.78578231292517	72	127
32.63487528344671	32.78578231292517	67	127
32.63487528344671	32.78578231292517	43	127
32.832244897959185	32.95995464852608	60	127
32.832244897959185	32.95995464852608	72	127
32.832244897959185	32.95995464852608	65	127
32.832244897959185	32.95995464852608	45	127
33.00639455782313	33.19215419501134	55	127
33.00639455782313	33.13410430839002	58	127
33.00639455782313	33.19215419501134	76	127
33.00639455782313	33.19215419501134	36	127
33.19215419501134	33.28503401360544	77	127
33.19215419501134	33.28503401360544	38	127
33.19215419501134	33.28503401360544	53	127
33.19215419501134	33.28503401360544	70	127
33.34308390022676	33.377913832199546	40	127
33.34308390022676	33.377913832199546	79	127
33.34308390022676	33.377913832199546	70	127
33.34308390022676	33.377913832199546	52	127
33.42433106575964	33.56367346938776	41	127
33.42433106575964	33.56367346938776	72	127
33.42433106575964	33.56367346938776	69	127
33.42433106575964	33.56367346938776	57	127
33.61011337868481	33.761043083900226	58	127
33.61011337868481	33.761043083900226	72	127
33.61011337868481	33.761043083900226	67	127
33.61011337868481	33.761043083900226	43	127
33.819092970521545	33.88875283446712	60	127
33.819092970521545	33.88875283446712	72	127
33.819092970521545	33.88875283446712	65	127
33.819092970521545	33.88875283446712	45	127
33.92358276643991	34.09773242630386	55	127
33.92358276643991	34.062879818594105	58	127
33.92358276643991	34.09773242630386	76	127
33.92358276643991	34.09773242630386	36	127
34.09773242630386	34.248662131519275	53	127
34.09773242630386	34.248662131519275	77	127
34.09773242630386	34.248662131519275	70	127
34.09773242630386	34.248662131519275	38	127
34.295102040816325	34.43439909297052	52	127
34.295102040816325	34.43439909297052	79	127
34.295102040816325	34.43439909297052	70	127
34.295102040816325	34.43439909297052	40	127
34.43439909297052	34.631791383219955	53	127
34.43439909297052	34.631791383219955	72	127
34.43439909297052	34.631791383219955	69	127
34.43439909297052	34.631791383219955	41	127
34.631791383219955	35.08458049886622	63	127
34.631791383219955	35.08458049886622	51	127
34.631791383219955	35.08458049886622	39	127
35.2471201814059	35.63024943310658	51	127
35.2471201814059	35.63024943310658	39	127
35.63024943310658	35.99015873015873	51	127
35.63024943310658	35.99015873015873	39	127
35.99015873015873	36.19913832199546	39	127
35.99015873015873	36.19913832199546	51	127
36.384897959183675	36.77963718820862	51	127
36.384897959183675	36.77963718820862	63	127
36.384897959183675	36.77963718820862	39	127
36.77963718820862	37.12793650793651	51	127
36.77963718820862	37.12793650793651	63	127
36.77963718820862	37.12793650793651	39	127
37.12793650793651	37.232403628117915	51	127
37.12793650793651	37.232403628117915	63	127
37.12793650793651	37.232403628117915	39	127
37.371746031746035	37.534285714285716	51	127
37.371746031746035	37.534285714285716	63	127
37.371746031746035	37.534285714285716	39	127
37.67360544217687	38.079954648526076	39	127
37.67360544217687	38.079954648526076	63	127
37.67360544217687	38.079954648526076	51	127
38.31215419501134	38.77655328798186	40	127
38.31215419501134	38.77655328798186	64	127
38.31215419501134	38.77655328798186	52	127
39.00873015873016	39.31061224489796	64	127
39.00873015873016	39.31061224489796	52	127
39.00873015873016	39.670521541950116	36	127
39.32222222222222	39.496371882086166	53	127
39.496371882086166	39.85628117913832	69	127
39.496371882086166	39.85628117913832	48	127
39.496371882086166	39.670521541950116	48	127
39.670521541950116	39.69374149659864	57	127
39.670521541950116	40.053650793650796	36	127
39.670521541950116	40.053650793650796	65	127
39.69374149659864	39.85628117913832	59	127
39.86789115646258	40.44839002267574	67	127
39.86789115646258	40.44839002267574	48	127
39.86789115646258	40.053650793650796	48	127
40.053650793650796	40.239410430839	60	127
40.053650793650796	40.239410430839	64	127
40.053650793650796	40.62253968253968	36	127
40.239410430839	40.62253968253968	57	127
40.239410430839	40.44839002267574	62	127
40.44839002267574	40.93600907029479	65	127
40.44839002267574	40.62253968253968	48	127
40.44839002267574	40.93600907029479	48	127
40.62253968253968	41.09854875283447	36	127
40.62253968253968	40.750249433106575	60	127
40.62253968253968	40.750249433106575	56	127
40.76185941043084	41.09854875283447	62	127
40.76185941043084	40.93600907029479	59	127
40.93600907029479	41.09854875283447	48	127
40.93600907029479	41.45845804988662	67	127
41.09854875283447	41.60938775510204	36	127
41.09854875283447	41.29589569160998	58	127
41.09854875283447	41.29589569160998	49	127
41.09854875283447	41.45845804988662	64	127
41.29589569160998	41.45845804988662	48	127
41.29589569160998	41.45845804988662	57	127
41.470068027210885	41.92283446712018	69	127
41.470068027210885	41.60938775510204	48	127
41.470068027210885	41.60938775510204	57	127
41.470068027210885	41.92283446712018	48	127
41.60938775510204	41.7487074829932	57	127
41.60938775510204	42.09700680272109	36	127
41.60938775510204	41.92283446712018	65	127
41.7487074829932	41.92283446712018	59	127
41.92283446712018	42.09700680272109	65	127
41.92283446712018	42.09700680272109	48	127
41.92283446712018	42.48013605442177	48	127
41.92283446712018	42.48013605442177	67	127
42.09700680272109	42.30596371882086	60	127
42.09700680272109	42.30596371882086	64	127
42.09700680272109	42.65428571428571	36	127
42.30596371882086	42.48013605442177	56	127
42.30596371882086	42.65428571428571	56	127
42.30596371882086	42.48013605442177	59	127
42.48013605442177	42.65428571428571	62	127
42.48013605442177	42.65428571428571	48	127
42.48013605442177	43.02580498866213	48	127
42.48013605442177	42.619455782312926	65	127
42.65428571428571	42.781995464852606	67	127
42.65428571428571	42.82843537414966	55	127
42.65428571428571	42.82843537414966	64	127
42.65428571428571	43.02580498866213	36	127
42.65428571428571	42.82843537414966	58	127
42.82843537414966	43.02580498866213	57	127
42.82843537414966	43.02580498866213	65	127
42.82843537414966	43.02580498866213	57	127
43.03741496598639	43.16512471655329	41	127
43.03741496598639	43.55986394557823	48	127
43.03741496598639	43.16512471655329	53	127
43.21156462585034	43.55986394557823	55	127
43.21156462585034	43.55986394557823	43	127
43.39732426303855	43.536643990929704	77	127
43.39732426303855	43.536643990929704	65	127
43.55986394557823	44.151972789115646	57	127
43.55986394557823	44.151972789115646	45	127
43.768843537414966	43.89655328798186	69	127
43.768843537414966	43.89655328798186	81	127
43.954580498866214	44.093922902494334	82	127
43.954580498866214	44.093922902494334	70	127
44.151972789115646	44.69764172335601	55	127
44.151972789115646	44.69764172335601	43	127
44.337709750566894	44.48866213151928	72	127
44.337709750566894	44.48866213151928	84	127
44.53510204081633	44.67442176870748	86	127
44.53510204081633	44.67442176870748	74	127
44.70922902494331	45.27814058956916	53	127
44.70922902494331	45.27814058956916	41	127
44.906621315192744	45.0459410430839	72	127
44.906621315192744	45.0459410430839	84	127
45.08077097505669	45.23167800453515	82	127
45.08077097505669	45.23167800453515	70	127
45.27814058956916	45.77736961451247	55	127
45.27814058956916	45.77736961451247	43	127
45.46390022675737	45.568390022675736	67	127
45.46390022675737	45.568390022675736	79	127
45.626439909297055	45.73090702947846	65	127
45.626439909297055	45.73090702947846	77	127
45.77736961451247	46.334648526077096	45	127
45.77736961451247	46.334648526077096	57	127
45.96312925170068	46.102448979591834	81	127
45.96312925170068	46.102448979591834	69	127
46.13727891156463	46.276598639455784	82	127
46.13727891156463	46.276598639455784	70	127
46.334648526077096	46.84548752834467	55	127
46.334648526077096	46.84548752834467	43	127
46.53201814058957	46.659727891156464	72	127
46.53201814058957	46.659727891156464	84	127
46.706167800453514	46.81065759637188	86	127
46.706167800453514	46.81065759637188	74	127
46.84548752834467	46.94997732426304	53	127
46.84548752834467	46.94997732426304	41	127
47.00800453514739	47.124104308390024	55	127
47.00800453514739	47.124104308390024	84	127
47.00800453514739	47.124104308390024	64	127
47.00800453514739	47.124104308390024	72	127
47.00800453514739	47.124104308390024	43	127
47.1821768707483	47.33310657596372	53	127
47.1821768707483	47.33310657596372	84	127
47.1821768707483	47.33310657596372	69	127
47.1821768707483	47.33310657596372	72	127
47.1821768707483	47.33310657596372	41	127
47.37952380952381	47.51886621315193	72	127
47.37952380952381	47.51886621315193	84	127
47.37952380952381	47.51886621315193	57	127
47.542086167800456	47.646575963718824	53	127
47.542086167800456	47.646575963718824	87	127
47.542086167800456	47.646575963718824	69	127
47.704625850340136	47.84394557823129	86	127
47.704625850340136	47.84394557823129	65	127
47.704625850340136	47.84394557823129	58	127
47.89038548752834	48.018095238095235	41	127
48.06453514739229	48.18063492063492	43	127
48.22707482993197	48.3431746031746	41	127
48.38961451247165	48.54054421768708	58	127
48.38961451247165	48.54054421768708	88	127
48.38961451247165	48.54054421768708	65	127
48.38961451247165	48.54054421768708	74	127
48.58698412698413	48.72630385487528	74	127
48.58698412698413	48.72630385487528	89	127
48.58698412698413	48.72630385487528	65	127
48.58698412698413	48.72630385487528	58	127
48.77274376417233	48.83079365079365	69	127
48.77274376417233	48.83079365079365	84	127
48.77274376417233	48.83079365079365	65	127
48.83079365079365	48.958503401360545	65	127
48.83079365079365	48.958503401360545	77	127
48.83079365079365	48.958503401360545	41	127
48.99333333333333	49.14426303854875	67	127
48.99333333333333	49.14426303854875	79	127
48.99333333333333	49.14426303854875	39	127
49.20231292517007	49.30680272108844	66	127
49.20231292517007	49.30680272108844	78	127
49.20231292517007	49.30680272108844	38	127
49.341632653061225	49.48095238095238	67	127
49.341632653061225	49.48095238095238	86	127
49.341632653061225	49.48095238095238	82	127
49.341632653061225	49.48095238095238	40	127
49.52739229024943	49.666712018140586	69	127
49.52739229024943	49.666712018140586	84	127
49.52739229024943	49.666712018140586	81	127
49.52739229024943	49.666712018140586	42	127
49.71315192743764	49.81764172335601	43	127
49.71315192743764	49.81764172335601	84	127
49.71315192743764	49.81764172335601	81	127
49.71315192743764	49.81764172335601	62	127
49.86408163265306	49.98018140589569	64	127
49.86408163265306	49.98018140589569	82	127
49.86408163265306	49.98018140589569	79	127
49.86408163265306	49.98018140589569	43	127
50.02662131519274	50.13111111111111	60	127
50.02662131519274	50.13111111111111	81	127
50.02662131519274	50.13111111111111	77	127
50.02662131519274	50.13111111111111	45	127
50.17755102040816	50.36331065759637	77	127
50.17755102040816	50.328480725623585	46	127
50.17755102040816	50.36331065759637	81	127
50.17755102040816	50.36331065759637	62	127
50.36331065759637	50.491020408163266	55	127
50.36331065759637	50.491020408163266	82	127
50.36331065759637	50.491020408163266	74	127
50.36331065759637	50.491020408163266	46	127
50.537460317460315	50.641950113378684	60	127
50.537460317460315	50.641950113378684	79	127
50.537460317460315	50.641950113378684	70	127
50.537460317460315	50.641950113378684	76	127
50.537460317460315	50.641950113378684	48	127
50.68839002267574	50.86253968253968	60	127
50.68839002267574	50.804489795918364	81	127
50.68839002267574	50.86253968253968	41	127
50.68839002267574	50.804489795918364	69	127
50.86253968253968	50.978639455782314	65	127
50.86253968253968	50.978639455782314	77	127
51.00185941043084	51.15278911564626	79	127
51.00185941043084	51.15278911564626	67	127
51.199229024943314	51.361768707482995	77	127
51.199229024943314	51.361768707482995	65	127
51.361768707482995	51.51269841269841	60	127
51.361768707482995	51.51269841269841	57	127
51.570748299319725	51.67523809523809	60	127
51.570748299319725	51.67523809523809	63	127
51.73328798185941	51.89582766439909	58	127
51.73328798185941	51.89582766439909	62	127
51.89582766439909	52.011927437641724	77	127
51.89582766439909	52.011927437641724	65	127
52.05836734693877	52.18607709750567	79	127
52.05836734693877	52.18607709750567	67	127
52.244126984126986	52.32539682539682	77	127
52.244126984126986	52.32539682539682	65	127
52.32539682539682	52.453106575963716	58	127
52.32539682539682	52.453106575963716	64	127
52.49954648526077	52.627256235827666	58	127
52.49954648526077	52.627256235827666	65	127
52.66208616780045	52.836235827664396	57	127
52.66208616780045	52.836235827664396	60	127
52.847845804988665	52.97555555555556	77	127
52.847845804988665	52.97555555555556	65	127
53.03360544217687	53.1497052154195	79	127
53.03360544217687	53.1497052154195	67	127
53.207755102040814	53.323854875283445	77	127
53.207755102040814	53.323854875283445	65	127
53.3702947845805	53.47478458049886	66	127
53.3702947845805	53.47478458049886	78	127
53.3702947845805	53.47478458049886	60	127
53.3702947845805	53.47478458049886	63	127
53.498004535147395	53.602494331065756	62	127
53.498004535147395	53.602494331065756	79	127
53.498004535147395	53.602494331065756	67	127
53.498004535147395	53.602494331065756	58	127
53.660544217687075	53.776643990929706	58	127
53.660544217687075	53.776643990929706	79	127
53.660544217687075	53.776643990929706	67	127
53.660544217687075	53.776643990929706	62	127
53.83469387755102	53.985623582766436	57	127
53.83469387755102	53.985623582766436	79	127
53.83469387755102	53.985623582766436	67	127
53.83469387755102	53.985623582766436	60	127
53.997233560090706	54.10172335600907	55	127
53.997233560090706	54.10172335600907	84	127
53.997233560090706	54.10172335600907	72	127
53.997233560090706	54.10172335600907	58	127
54.148163265306124	54.28748299319728	53	127
54.148163265306124	54.264263038548755	84	127
54.148163265306124	54.264263038548755	72	127
54.148163265306124	54.28748299319728	57	127
54.29909297052154	54.4384126984127	55	127
54.29909297052154	54.4384126984127	84	127
54.29909297052154	54.4384126984127	72	127
54.29909297052154	54.4384126984127	58	127
54.45002267573696	54.589342403628116	72	127
54.45002267573696	54.589342403628116	84	127
54.45002267573696	54.589342403628116	55	127
54.45002267573696	54.589342403628116	52	127
54.63578231292517	54.78671201814059	72	127
54.63578231292517	54.78671201814059	84	127
54.63578231292517	54.78671201814059	53	127
54.63578231292517	54.78671201814059	57	127
54.82154195011338	54.94925170068027	55	127
54.82154195011338	54.94925170068027	82	127
54.82154195011338	54.94925170068027	60	127
54.82154195011338	54.94925170068027	64	127
54.99569160997732	55.135011337868484	65	127
54.99569160997732	55.135011337868484	81	127
54.99569160997732	55.135011337868484	72	127
54.99569160997732	55.135011337868484	57	127
55.16984126984127	55.355600907029476	62	127
55.16984126984127	55.355600907029476	81	127
55.16984126984127	55.355600907029476	72	127
55.16984126984127	55.355600907029476	58	127
55.355600907029476	55.44848072562358	50	127
55.355600907029476	55.44848072562358	82	127
55.355600907029476	55.44848072562358	67	127
55.355600907029476	55.44848072562358	74	127
55.355600907029476	55.44848072562358	46	127
55.460090702947845	55.58780045351474	52	127
55.460090702947845	55.58780045351474	79	127
55.460090702947845	55.58780045351474	64	127
55.460090702947845	55.58780045351474	48	127
55.61102040816326	55.76195011337869	70	127
55.61102040816326	55.727120181405894	48	127
55.61102040816326	55.76195011337869	79	127
55.61102040816326	55.76195011337869	52	127
55.76195011337869	55.86643990929705	53	127
55.76195011337869	55.86643990929705	81	127
55.76195011337869	55.86643990929705	69	127
55.76195011337869	55.86643990929705	36	127
55.91287981859411	56.02897959183674	77	127
55.91287981859411	56.02897959183674	65	127
55.91287981859411	56.02897959183674	57	127
55.91287981859411	56.02897959183674	36	127
56.07541950113379	56.24956916099773	58	127
56.07541950113379	56.20312925170068	36	127
56.07541950113379	56.24956916099773	76	127
56.07541950113379	56.24956916099773	67	127
56.24956916099773	56.400498866213155	57	127
56.24956916099773	56.400498866213155	77	127
56.24956916099773	56.400498866213155	65	127
56.24956916099773	56.400498866213155	36	127
56.45854875283447	56.59786848072562	55	127
56.45854875283447	56.59786848072562	79	127
56.45854875283447	56.59786848072562	64	127
56.45854875283447	56.59786848072562	36	127
56.65591836734694	56.85328798185941	55	127
56.65591836734694	56.7952380952381	70	127
56.65591836734694	56.85328798185941	76	127
56.65591836734694	56.85328798185941	36	127
56.85328798185941	56.93455782312925	53	127
56.85328798185941	56.93455782312925	77	127
56.85328798185941	56.93455782312925	58	127
56.85328798185941	56.93455782312925	38	127
56.9809977324263	57.13192743764172	52	127
56.9809977324263	57.13192743764172	79	127
56.9809977324263	57.13192743764172	70	127
56.9809977324263	57.13192743764172	40	127
57.17836734693878	57.28285714285714	41	127
57.17836734693878	57.28285714285714	57	127
57.17836734693878	57.28285714285714	72	127
57.17836734693878	57.28285714285714	69	127
57.317687074829934	57.45700680272109	67	127
57.317687074829934	57.45700680272109	72	127
57.317687074829934	57.45700680272109	58	127
57.317687074829934	57.45700680272109	43	127
57.5150566893424	57.63115646258503	45	127
57.5150566893424	57.63115646258503	72	127
57.5150566893424	57.63115646258503	65	127
57.5150566893424	57.63115646258503	60	127
57.67759637188209	57.84013605442177	55	127
57.67759637188209	57.79369614512472	58	127
57.67759637188209	57.84013605442177	76	127
57.67759637188209	57.84013605442177	36	127
57.84013605442177	57.96784580498866	53	127
57.84013605442177	57.96784580498866	77	127
57.84013605442177	57.96784580498866	70	127
57.84013605442177	57.96784580498866	38	127
58.00267573696145	58.10716553287982	52	127
58.00267573696145	58.10716553287982	79	127
58.00267573696145	58.10716553287982	70	127
58.00267573696145	58.10716553287982	40	127
58.15360544217687	58.23487528344671	57	127
58.15360544217687	58.23487528344671	72	127
58.15360544217687	58.23487528344671	69	127
58.15360544217687	58.23487528344671	41	127
58.28131519274376	58.43224489795919	58	127
58.28131519274376	58.43224489795919	72	127
58.28131519274376	58.43224489795919	67	127
58.28131519274376	58.43224489795919	43	127
58.478684807256236	58.61800453514739	60	127
58.478684807256236	58.61800453514739	72	127
58.478684807256236	58.61800453514739	65	127
58.478684807256236	58.61800453514739	45	127
58.66444444444444	58.78054421768707	76	127
58.66444444444444	58.76893424036281	58	127
58.66444444444444	58.78054421768707	55	127
58.66444444444444	58.78054421768707	36	127
58.78054421768707	58.896643990929704	38	127
58.78054421768707	58.896643990929704	77	127
58.78054421768707	58.896643990929704	70	127
58.78054421768707	58.896643990929704	53	127
58.896643990929704	59.04757369614512	52	127
58.896643990929704	59.04757369614512	79	127
58.896643990929704	59.04757369614512	70	127
58.896643990929704	59.04757369614512	40	127
59.10562358276644	59.22172335600907	57	127
59.10562358276644	59.22172335600907	72	127
59.10562358276644	59.22172335600907	69	127
59.10562358276644	59.22172335600907	41	127
59.279773242630384	59.44231292517007	58	127
59.279773242630384	59.44231292517007	72	127
59.279773242630384	59.44231292517007	67	127
59.279773242630384	59.44231292517007	43	127
59.48875283446712	59.62807256235828	60	127
59.48875283446712	59.62807256235828	72	127
59.48875283446712	59.62807256235828	65	127
59.48875283446712	59.62807256235828	45	127
59.674512471655326	59.80222222222222	55	127
59.674512471655326	59.779002267573695	58	127
59.674512471655326	59.80222222222222	76	127
59.674512471655326	59.80222222222222	36	127
59.80222222222222	59.92993197278911	70	127
59.80222222222222	59.92993197278911	77	127
59.80222222222222	59.92993197278911	38	127
59.80222222222222	59.92993197278911	53	127
59.92993197278911	60.06925170068027	70	127
59.92993197278911	60.06925170068027	79	127
59.92993197278911	60.06925170068027	52	127
59.92993197278911	60.06925170068027	40	127
60.13891156462585	60.31306122448979	72	127
60.13891156462585	60.31306122448979	69	127
60.13891156462585	60.31306122448979	53	127
60.13891156462585	60.31306122448979	41	127
60.31306122448979	60.4059410430839	65	127
60.41755102040816	60.48721088435374	64	127
60.48721088435374	60.52204081632653	65	127
60.52204081632653	60.58009070294784	67	127
60.58009070294784	60.707800453514736	53	127
60.58009070294784	60.707800453514736	69	127
60.58009070294784	60.707800453514736	60	127
60.58009070294784	60.707800453514736	41	127
60.765850340136055	60.90517006802721	65	127
60.765850340136055	60.85873015873016	53	127
60.765850340136055	60.85873015873016	41	127
60.765850340136055	60.90517006802721	72	127
60.765850340136055	60.90517006802721	69	127
60.85873015873016	60.96321995464853	52	127
60.85873015873016	60.96321995464853	40	127
60.96321995464853	61.09092970521542	65	127
60.96321995464853	61.044489795918366	53	127
60.96321995464853	61.044489795918366	41	127
60.96321995464853	61.09092970521542	72	127
60.96321995464853	61.09092970521542	69	127
61.044489795918366	61.12575963718821	55	127
61.044489795918366	61.12575963718821	43	127
61.12575963718821	61.27668934240363	57	127
61.12575963718821	61.27668934240363	72	127
61.12575963718821	61.27668934240363	65	127
61.12575963718821	61.27668934240363	69	127
61.12575963718821	61.27668934240363	45	127
61.28829931972789	61.39278911564626	46	127
61.28829931972789	61.39278911564626	72	127
61.28829931972789	61.39278911564626	65	127
61.28829931972789	61.39278911564626	69	127
61.28829931972789	61.39278911564626	58	127
61.43922902494331	61.5669387755102	60	127
61.43922902494331	61.5669387755102	72	127
61.43922902494331	61.5669387755102	65	127
61.43922902494331	61.5669387755102	69	127
61.43922902494331	61.5669387755102	48	127
61.62498866213152	61.76430839002268	62	127
61.62498866213152	61.76430839002268	72	127
61.62498866213152	61.76430839002268	65	127
61.62498866213152	61.76430839002268	69	127
61.62498866213152	61.76430839002268	50	127
61.82235827664399	61.961678004535145	64	127
61.82235827664399	61.961678004535145	72	127
61.82235827664399	61.961678004535145	65	127
61.82235827664399	61.961678004535145	69	127
61.82235827664399	61.961678004535145	52	127
61.98489795918368	62.08938775510204	65	127
61.98489795918368	62.08938775510204	72	127
61.98489795918368	62.08938775510204	65	127
61.98489795918368	62.08938775510204	69	127
61.98489795918368	62.08938775510204	53	127
62.135827664399095	62.26353741496599	69	127
62.135827664399095	62.26353741496599	72	127
62.135827664399095	62.26353741496599	65	127
62.135827664399095	62.26353741496599	67	127
62.135827664399095	62.26353741496599	55	127
62.28675736961451	62.402857142857144	65	127
62.28675736961451	62.402857142857144	72	127
62.28675736961451	62.402857142857144	69	127
62.28675736961451	62.402857142857144	69	127
62.28675736961451	62.402857142857144	57	127
62.460907029478456	62.57700680272109	58	127
62.460907029478456	62.57700680272109	72	127
62.460907029478456	62.57700680272109	65	127
62.460907029478456	62.57700680272109	69	127
62.460907029478456	62.57700680272109	70	127
62.62344671201814	62.75115646258504	72	127
62.62344671201814	62.75115646258504	72	127
62.62344671201814	62.75115646258504	65	127
62.62344671201814	62.75115646258504	60	127
62.797596371882086	62.948526077097505	69	127
62.797596371882086	62.948526077097505	74	127
62.797596371882086	62.948526077097505	65	127
62.797596371882086	62.948526077097505	60	127
63.006575963718824	63.14589569160998	69	127
63.006575963718824	63.14589569160998	76	127
63.006575963718824	63.14589569160998	65	127
63.006575963718824	63.14589569160998	60	127
63.169115646258504	63.18072562358277	69	127
63.169115646258504	63.18072562358277	77	127
63.169115646258504	63.18072562358277	65	127
63.169115646258504	63.18072562358277	60	127
63.18072562358277	63.27360544217687	69	127
63.18072562358277	63.27360544217687	79	127
63.18072562358277	63.27360544217687	65	127
63.18072562358277	63.27360544217687	60	127
63.32004535147392	63.47097505668934	60	127
63.32004535147392	63.47097505668934	81	127
63.32004535147392	63.47097505668934	65	127
63.32004535147392	63.47097505668934	69	127
63.5174149659864	63.64512471655329	60	127
63.5174149659864	63.64512471655329	82	127
63.5174149659864	63.64512471655329	64	127
63.5174149659864	63.64512471655329	67	127
63.7031746031746	63.81927437641723	67	127
63.7031746031746	63.81927437641723	55	127
63.7031746031746	63.81927437641723	64	127
63.7031746031746	63.81927437641723	60	127
63.877324263038545	63.981814058956914	67	127
63.877324263038545	63.981814058956914	81	127
63.877324263038545	63.981814058956914	64	127
63.877324263038545	63.981814058956914	60	127
64.02825396825396	64.15596371882086	67	127
64.02825396825396	64.15596371882086	82	127
64.02825396825396	64.15596371882086	64	127
64.02825396825396	64.15596371882086	60	127
64.20240362811792	64.35333333333334	67	127
64.20240362811792	64.35333333333334	70	127
64.20240362811792	64.35333333333334	64	127
64.20240362811792	64.35333333333334	60	127
64.38816326530612	64.49265306122449	67	127
64.38816326530612	64.49265306122449	84	127
64.38816326530612	64.49265306122449	64	127
64.38816326530612	64.49265306122449	60	127
64.5507029478458	64.70163265306122	72	127
64.5507029478458	64.70163265306122	81	127
64.5507029478458	64.70163265306122	69	127
64.5507029478458	64.70163265306122	65	127
64.5507029478458	64.70163265306122	53	127
64.74807256235827	64.82934240362812	69	127
64.74807256235827	64.78290249433107	65	127
64.74807256235827	64.82934240362812	77	127
64.74807256235827	64.82934240362812	72	127
64.74807256235827	64.82934240362812	60	127
64.78290249433107	64.86417233560091	64	127
64.86417233560091	64.94541950113378	65	127
64.86417233560091	64.9918820861678	69	127
64.86417233560091	64.9918820861678	60	127
64.86417233560091	64.9918820861678	77	127
64.86417233560091	64.9918820861678	72	127
64.94541950113378	65.03832199546486	67	127
65.03832199546486	65.18925170068027	72	127
65.03832199546486	65.18925170068027	69	127
65.03832199546486	65.18925170068027	77	127
65.03832199546486	65.18925170068027	60	127
65.20083900226757	65.29374149659864	72	127
65.20083900226757	65.29374149659864	70	127
65.20083900226757	65.29374149659864	69	127
65.20083900226757	65.29374149659864	77	127
65.20083900226757	65.29374149659864	60	127
65.35179138321996	65.49111111111111	72	127
65.35179138321996	65.49111111111111	72	127
65.35179138321996	65.49111111111111	69	127
65.35179138321996	65.49111111111111	77	127
65.35179138321996	65.49111111111111	60	127
65.5259410430839	65.67687074829932	72	127
65.5259410430839	65.67687074829932	74	127
65.5259410430839	65.67687074829932	69	127
65.5259410430839	65.67687074829932	77	127
65.5259410430839	65.67687074829932	60	127
65.72331065759637	65.85102040816327	76	127
65.72331065759637	65.85102040816327	69	127
65.72331065759637	65.85102040816327	77	127
65.72331065759637	65.85102040816327	72	127
65.72331065759637	65.85102040816327	60	127
65.86263038548753	65.92068027210884	72	127
65.86263038548753	65.92068027210884	79	127
65.86263038548753	65.92068027210884	69	127
65.86263038548753	65.92068027210884	77	127
65.86263038548753	65.92068027210884	60	127
65.96709750566893	66.11804988662132	72	127
65.96709750566893	66.11804988662132	81	127
65.96709750566893	66.11804988662132	69	127
65.96709750566893	66.11804988662132	77	127
65.96709750566893	66.11804988662132	60	127
66.16448979591837	66.31541950113379	72	127
66.16448979591837	66.31541950113379	82	127
66.16448979591837	66.31541950113379	69	127
66.16448979591837	66.31541950113379	77	127
66.16448979591837	66.31541950113379	60	127
66.32700680272109	66.45471655328798	67	127
66.32700680272109	66.45471655328798	72	127
66.32700680272109	66.45471655328798	84	127
66.32700680272109	66.45471655328798	60	127
66.32700680272109	66.45471655328798	76	127
66.51278911564626	66.6288888888889	76	127
66.51278911564626	66.6288888888889	86	127
66.51278911564626	66.6288888888889	67	127
66.51278911564626	66.6288888888889	72	127
66.51278911564626	66.6288888888889	60	127
66.6869387755102	66.79142857142857	60	127
66.6869387755102	66.79142857142857	88	127
66.6869387755102	66.79142857142857	67	127
66.6869387755102	66.79142857142857	76	127
66.6869387755102	66.79142857142857	72	127
66.79142857142857	66.86106575963719	72	127
66.79142857142857	66.86106575963719	89	127
66.79142857142857	66.86106575963719	67	127
66.79142857142857	66.86106575963719	76	127
66.79142857142857	66.86106575963719	60	127
66.9075283446712	67.05845804988662	72	127
66.9075283446712	67.05845804988662	91	127
66.9075283446712	67.05845804988662	67	127
66.9075283446712	67.05845804988662	76	127
66.9075283446712	67.05845804988662	60	127
67.11650793650794	67.25582766439909	72	127
67.11650793650794	67.25582766439909	93	127
67.11650793650794	67.25582766439909	67	127
67.11650793650794	67.25582766439909	76	127
67.11650793650794	67.25582766439909	60	127
67.31387755102041	67.46480725623583	72	127
67.31387755102041	67.46480725623583	94	127
67.31387755102041	67.46480725623583	76	127
67.31387755102041	67.46480725623583	67	127
67.31387755102041	67.46480725623583	60	127
67.51124716553288	67.63895691609977	72	127
67.51124716553288	67.63895691609977	72	127
67.51124716553288	67.63895691609977	76	127
67.51124716553288	67.63895691609977	67	127
67.51124716553288	67.63895691609977	60	127
67.68539682539682	67.80149659863946	60	127
67.68539682539682	67.80149659863946	81	127
67.68539682539682	67.80149659863946	76	127
67.68539682539682	67.80149659863946	67	127
67.68539682539682	67.80149659863946	72	127
67.83632653061224	67.96403628117913	72	127
67.83632653061224	67.96403628117913	82	127
67.83632653061224	67.96403628117913	67	127
67.83632653061224	67.96403628117913	76	127
67.83632653061224	67.96403628117913	60	127
68.02208616780045	68.17301587301587	72	127
68.02208616780045	68.17301587301587	72	127
68.02208616780045	68.17301587301587	67	127
68.02208616780045	68.17301587301587	76	127
68.02208616780045	68.17301587301587	60	127
68.21945578231292	68.37036281179138	72	127
68.21945578231292	68.37036281179138	84	127
68.21945578231292	68.37036281179138	67	127
68.21945578231292	68.37036281179138	76	127
68.21945578231292	68.37036281179138	60	127
68.38199546485261	68.46326530612245	72	127
68.38199546485261	68.46326530612245	81	127
68.38199546485261	68.46326530612245	69	127
68.38199546485261	68.46326530612245	77	127
68.38199546485261	68.46326530612245	60	127
68.48648526077098	68.57936507936508	50	127
68.48648526077098	68.57936507936508	38	127
68.57936507936508	68.67224489795919	36	127
68.57936507936508	68.67224489795919	48	127
68.68385487528344	68.76512471655329	50	127
68.68385487528344	68.76512471655329	38	127
68.76512471655329	68.84639455782313	52	127
68.76512471655329	68.84639455782313	40	127
68.84639455782313	69.0437641723356	55	127
68.84639455782313	69.0437641723356	43	127
69.0437641723356	69.14825396825397	64	127
69.0437641723356	69.14825396825397	76	127
69.14825396825397	69.22952380952381	74	127
69.14825396825397	69.22952380952381	62	127
69.22952380952381	69.28757369614513	76	127
69.22952380952381	69.28757369614513	64	127
69.28757369614513	69.32240362811791	77	127
69.28757369614513	69.32240362811791	65	127
69.33401360544218	69.4501133786848	79	127
69.33401360544218	69.4501133786848	67	127
69.4501133786848	69.54299319727892	53	127
69.4501133786848	69.54299319727892	41	127
69.54299319727892	69.64746031746031	52	127
69.54299319727892	69.64746031746031	40	127
69.64746031746031	69.74036281179139	53	127
69.64746031746031	69.74036281179139	41	127
69.75195011337868	69.84485260770975	55	127
69.75195011337868	69.84485260770975	43	127
69.84485260770975	70.04222222222222	57	127
69.84485260770975	70.04222222222222	45	127
70.04222222222222	70.13507936507936	79	127
70.04222222222222	70.13507936507936	67	127
70.13507936507936	70.23959183673469	77	127
70.13507936507936	70.23959183673469	65	127
70.23959183673469	70.30925170068028	67	127
70.23959183673469	70.30925170068028	79	127
70.30925170068028	70.36730158730158	81	127
70.30925170068028	70.36730158730158	69	127
70.36730158730158	70.41371882086167	82	127
70.36730158730158	70.41371882086167	70	127
70.41371882086167	70.48340136054422	45	127
70.41371882086167	70.48340136054422	57	127
70.48340136054422	70.56467120181406	55	127
70.48340136054422	70.56467120181406	43	127
70.56467120181406	70.66916099773243	57	127
70.56467120181406	70.66916099773243	45	127
70.66916099773243	70.73882086167801	58	127
70.66916099773243	70.73882086167801	46	127
70.75043083900226	70.959410430839	60	127
70.75043083900226	70.959410430839	48	127
70.959410430839	71.04068027210884	79	127
70.959410430839	71.04068027210884	67	127
71.04068027210884	71.14517006802721	77	127
71.04068027210884	71.14517006802721	65	127
71.14517006802721	71.23804988662131	79	127
71.14517006802721	71.23804988662131	67	127
71.23804988662131	71.31931972789116	81	127
71.23804988662131	71.31931972789116	69	127
71.31931972789116	71.52829931972789	65	127
71.31931972789116	71.52829931972789	82	127
71.31931972789116	71.52829931972789	70	127
71.31931972789116	71.52829931972789	62	127
71.67922902494331	71.77210884353741	72	127
71.67922902494331	71.77210884353741	81	127
71.67922902494331	71.77210884353741	62	127
71.67922902494331	71.77210884353741	77	127
71.81854875283447	72.27133786848073	76	127
71.81854875283447	72.06235827664399	81	127
71.81854875283447	72.06235827664399	72	127
71.81854875283447	72.27133786848073	64	127
72.06235827664399	72.21328798185941	80	127
72.06235827664399	72.21328798185941	71	127
72.27133786848073	73.37428571428572	41	127
72.27133786848073	72.42226757369615	65	127
72.27133786848073	72.42226757369615	69	127
72.27133786848073	72.44548752834467	81	127
72.45709750566894	72.54997732426304	81	127
72.45709750566894	72.54997732426304	69	127
72.56156462585034	72.65446712018141	80	127
72.56156462585034	72.65446712018141	68	127
72.65446712018141	72.71251700680273	81	127
72.65446712018141	72.71251700680273	69	127
72.71251700680273	72.81698412698412	83	127
72.71251700680273	72.81698412698412	71	127
72.81698412698412	72.96793650793651	84	127
72.81698412698412	72.96793650793651	72	127
73.02598639455782	73.10725623582766	79	127
73.02598639455782	73.10725623582766	67	127
73.10725623582766	73.1885260770975	77	127
73.10725623582766	73.1885260770975	65	127
73.1885260770975	73.26979591836735	79	127
73.1885260770975	73.26979591836735	67	127
73.26979591836735	73.37428571428572	81	127
73.26979591836735	73.37428571428572	69	127
73.37428571428572	73.58324263038548	38	127
73.37428571428572	73.58324263038548	82	127
73.37428571428572	73.58324263038548	70	127
73.37428571428572	73.58324263038548	65	127
73.7225850340136	73.82707482993197	62	127
73.7225850340136	73.82707482993197	81	127
73.7225850340136	73.82707482993197	77	127
73.7225850340136	73.82707482993197	65	127
73.88512471655329	74.39596371882087	76	127
73.88512471655329	74.18698412698413	81	127
73.88512471655329	74.18698412698413	72	127
73.88512471655329	74.39596371882087	64	127
74.18698412698413	74.34952380952382	71	127
74.18698412698413	74.34952380952382	80	127
74.39596371882087	74.61655328798186	72	127
74.39596371882087	74.61655328798186	81	127
74.39596371882087	74.61655328798186	76	127
74.39596371882087	74.61655328798186	60	127
74.8255328798186	75.03451247165533	72	127
74.8255328798186	74.97646258503401	79	127
74.8255328798186	75.03451247165533	76	127
74.8255328798186	75.03451247165533	60	127
75.03451247165533	75.55696145124716	62	127
75.03451247165533	75.37120181405896	79	127
75.03451247165533	75.37120181405896	71	127
75.03451247165533	75.55696145124716	74	127
75.38281179138322	75.55696145124716	69	127
75.38281179138322	75.55696145124716	78	127
75.56857142857143	75.69628117913832	67	127
75.56857142857143	75.69628117913832	79	127
75.56857142857143	75.69628117913832	71	127
75.56857142857143	75.69628117913832	74	127
75.56857142857143	75.69628117913832	55	127
75.75433106575964	75.81238095238095	71	127
75.75433106575964	75.81238095238095	67	127
75.75433106575964	75.81238095238095	74	127
75.75433106575964	75.81238095238095	83	127
75.75433106575964	75.81238095238095	67	127
75.75433106575964	75.81238095238095	62	127
75.81238095238095	75.85879818594104	66	127
75.85879818594104	75.95170068027211	67	127
75.85879818594104	75.99814058956916	74	127
75.85879818594104	75.99814058956916	83	127
75.85879818594104	75.99814058956916	67	127
75.85879818594104	75.99814058956916	71	127
75.85879818594104	75.99814058956916	62	127
75.95170068027211	76.00975056689343	69	127
76.00975056689343	76.16068027210885	71	127
76.00975056689343	76.16068027210885	71	127
76.00975056689343	76.16068027210885	74	127
76.00975056689343	76.16068027210885	83	127
76.00975056689343	76.16068027210885	67	127
76.00975056689343	76.16068027210885	62	127
76.19551020408163	76.28839002267574	71	127
76.19551020408163	76.28839002267574	72	127
76.19551020408163	76.28839002267574	74	127
76.19551020408163	76.28839002267574	83	127
76.19551020408163	76.28839002267574	67	127
76.19551020408163	76.28839002267574	62	127
76.34641723356009	76.46253968253968	71	127
76.34641723356009	76.46253968253968	74	127
76.34641723356009	76.46253968253968	83	127
76.34641723356009	76.46253968253968	67	127
76.34641723356009	76.46253968253968	62	127
76.50897959183673	76.65990929705215	71	127
76.50897959183673	76.65990929705215	76	127
76.50897959183673	76.65990929705215	74	127
76.50897959183673	76.65990929705215	83	127
76.50897959183673	76.65990929705215	67	127
76.50897959183673	76.65990929705215	62	127
76.69473922902495	76.84566893424036	62	127
76.69473922902495	76.84566893424036	78	127
76.69473922902495	76.84566893424036	74	127
76.69473922902495	76.84566893424036	83	127
76.69473922902495	76.84566893424036	67	127
76.69473922902495	76.84566893424036	71	127
76.85725623582766	76.99659863945578	71	127
76.85725623582766	76.99659863945578	79	127
76.85725623582766	76.99659863945578	74	127
76.85725623582766	76.99659863945578	83	127
76.85725623582766	76.99659863945578	67	127
76.85725623582766	76.99659863945578	62	127
77.03142857142858	77.17074829931973	69	127
77.03142857142858	77.17074829931973	81	127
77.03142857142858	77.17074829931973	74	127
77.03142857142858	77.17074829931973	84	127
77.03142857142858	77.17074829931973	66	127
77.03142857142858	77.17074829931973	62	127
77.19396825396825	77.31006802721089	69	127
77.19396825396825	77.31006802721089	83	127
77.19396825396825	77.31006802721089	74	127
77.19396825396825	77.31006802721089	84	127
77.19396825396825	77.31006802721089	66	127
77.19396825396825	77.31006802721089	62	127
77.35650793650794	77.48421768707483	69	127
77.35650793650794	77.48421768707483	84	127
77.35650793650794	77.48421768707483	74	127
77.35650793650794	77.48421768707483	66	127
77.35650793650794	77.48421768707483	62	127
77.53065759637188	77.6815873015873	86	127
77.53065759637188	77.6815873015873	74	127
77.53065759637188	77.6815873015873	84	127
77.53065759637188	77.6815873015873	66	127
77.53065759637188	77.6815873015873	69	127
77.53065759637188	77.6815873015873	62	127
77.73963718820862	77.86734693877551	62	127
77.73963718820862	77.86734693877551	88	127
77.73963718820862	77.86734693877551	74	127
77.73963718820862	77.86734693877551	84	127
77.73963718820862	77.86734693877551	66	127
77.73963718820862	77.86734693877551	69	127
77.92539682539683	78.07632653061225	69	127
77.92539682539683	78.07632653061225	90	127
77.92539682539683	78.07632653061225	74	127
77.92539682539683	78.07632653061225	84	127
77.92539682539683	78.07632653061225	66	127
77.92539682539683	78.07632653061225	62	127
78.0879365079365	78.1343537414966	69	127
78.0879365079365	78.1343537414966	91	127
78.0879365079365	78.1343537414966	74	127
78.0879365079365	78.1343537414966	84	127
78.0879365079365	78.1343537414966	66	127
78.0879365079365	78.1343537414966	62	127
78.18081632653062	78.30852607709751	69	127
78.18081632653062	78.30852607709751	93	127
78.18081632653062	78.30852607709751	74	127
78.18081632653062	78.30852607709751	84	127
78.18081632653062	78.30852607709751	66	127
78.18081632653062	78.30852607709751	62	127
78.36657596371882	78.41301587301588	62	127
78.36657596371882	78.41301587301588	95	127
78.36657596371882	78.41301587301588	74	127
78.36657596371882	78.41301587301588	84	127
78.36657596371882	78.41301587301588	66	127
78.36657596371882	78.41301587301588	69	127
78.41301587301588	78.47106575963718	62	127
78.41301587301588	78.47106575963718	96	127
78.41301587301588	78.47106575963718	74	127
78.41301587301588	78.47106575963718	84	127
78.41301587301588	78.47106575963718	66	127
78.41301587301588	78.47106575963718	69	127
78.51748299319728	78.66843537414967	69	127
78.51748299319728	78.66843537414967	62	127
78.51748299319728	78.66843537414967	74	127
78.51748299319728	78.66843537414967	84	127
78.51748299319728	78.66843537414967	66	127
78.51748299319728	78.66843537414967	62	127
78.71487528344672	78.86580498866213	69	127
78.71487528344672	78.86580498866213	71	127
78.71487528344672	78.86580498866213	74	127
78.71487528344672	78.86580498866213	84	127
78.71487528344672	78.86580498866213	66	127
78.71487528344672	78.86580498866213	62	127
78.92385487528345	79.0631746031746	69	127
78.92385487528345	79.0631746031746	72	127
78.92385487528345	79.0631746031746	74	127
78.92385487528345	79.0631746031746	84	127
78.92385487528345	79.0631746031746	66	127
78.92385487528345	79.0631746031746	62	127
79.12122448979592	79.24893424036281	69	127
79.12122448979592	79.24893424036281	62	127
79.12122448979592	79.24893424036281	74	127
79.12122448979592	79.24893424036281	84	127
79.12122448979592	79.24893424036281	66	127
79.12122448979592	79.24893424036281	62	127
79.30698412698413	79.44630385487528	74	127
79.30698412698413	79.44630385487528	84	127
79.30698412698413	79.44630385487528	66	127
79.30698412698413	79.44630385487528	69	127
79.30698412698413	79.44630385487528	62	127
79.48113378684808	79.62045351473922	55	127
79.48113378684808	79.62045351473922	71	127
79.48113378684808	79.62045351473922	74	127
79.48113378684808	79.62045351473922	83	127
79.48113378684808	79.62045351473922	67	127
79.48113378684808	79.62045351473922	71	127
79.66687074829932	79.75977324263039	62	127
79.66687074829932	79.74816326530612	67	127
79.66687074829932	79.75977324263039	74	127
79.66687074829932	79.75977324263039	83	127
79.66687074829932	79.75977324263039	67	127
79.66687074829932	79.75977324263039	71	127
79.74816326530612	79.80621315192744	66	127
79.8178231292517	79.9455328798186	62	127
79.8178231292517	79.89907029478458	67	127
79.8178231292517	79.9455328798186	74	127
79.8178231292517	79.9455328798186	83	127
79.8178231292517	79.9455328798186	67	127
79.8178231292517	79.9455328798186	71	127
79.89907029478458	80.0035827664399	69	127
80.0035827664399	80.06163265306122	71	127
80.0035827664399	80.06163265306122	71	127
80.0035827664399	80.06163265306122	83	127
80.0035827664399	80.06163265306122	74	127
80.0035827664399	80.06163265306122	67	127
80.0035827664399	80.06163265306122	62	127
80.10807256235827	80.25900226757369	83	127
80.10807256235827	80.25900226757369	72	127
80.10807256235827	80.25900226757369	74	127
80.10807256235827	80.25900226757369	67	127
80.10807256235827	80.25900226757369	71	127
80.10807256235827	80.25900226757369	62	127
80.30541950113378	80.42154195011338	62	127
80.30541950113378	80.42154195011338	74	127
80.30541950113378	80.42154195011338	83	127
80.30541950113378	80.42154195011338	67	127
80.30541950113378	80.42154195011338	71	127
80.42154195011338	80.53761904761905	71	127
80.42154195011338	80.53761904761905	76	127
80.42154195011338	80.53761904761905	74	127
80.42154195011338	80.53761904761905	83	127
80.42154195011338	80.53761904761905	67	127
80.42154195011338	80.53761904761905	62	127
80.59569160997732	80.72340136054422	71	127
80.59569160997732	80.72340136054422	78	127
80.59569160997732	80.72340136054422	74	127
80.59569160997732	80.72340136054422	83	127
80.59569160997732	80.72340136054422	67	127
80.59569160997732	80.72340136054422	62	127
80.76984126984127	80.89755102040816	74	127
80.76984126984127	80.89755102040816	62	127
80.76984126984127	80.89755102040816	67	127
80.76984126984127	80.89755102040816	71	127
80.76984126984127	80.89755102040816	79	127
80.76984126984127	80.89755102040816	83	127
80.94399092970522	81.09492063492064	71	127
80.94399092970522	81.09492063492064	81	127
80.94399092970522	81.09492063492064	74	127
80.94399092970522	81.09492063492064	83	127
80.94399092970522	81.09492063492064	67	127
80.94399092970522	81.09492063492064	62	127
81.14136054421769	81.28068027210884	67	127
81.14136054421769	81.28068027210884	83	127
81.14136054421769	81.28068027210884	74	127
81.14136054421769	81.28068027210884	67	127
81.14136054421769	81.28068027210884	71	127
81.3271201814059	81.4548299319728	71	127
81.3271201814059	81.4548299319728	84	127
81.3271201814059	81.4548299319728	74	127
81.3271201814059	81.4548299319728	83	127
81.3271201814059	81.4548299319728	67	127
81.3271201814059	81.4548299319728	67	127
81.5128798185941	81.66380952380952	71	127
81.5128798185941	81.66380952380952	86	127
81.5128798185941	81.66380952380952	74	127
81.5128798185941	81.66380952380952	83	127
81.5128798185941	81.66380952380952	67	127
81.5128798185941	81.66380952380952	67	127
81.71024943310658	81.84956916099773	71	127
81.71024943310658	81.84956916099773	88	127
81.71024943310658	81.84956916099773	74	127
81.71024943310658	81.84956916099773	83	127
81.71024943310658	81.84956916099773	67	127
81.71024943310658	81.84956916099773	67	127
81.89600907029478	82.03532879818594	67	127
81.89600907029478	82.03532879818594	90	127
81.89600907029478	82.03532879818594	74	127
81.89600907029478	82.03532879818594	83	127
81.89600907029478	82.03532879818594	67	127
81.89600907029478	82.03532879818594	71	127
82.09337868480726	82.23269841269841	65	127
82.09337868480726	82.23269841269841	91	127
82.09337868480726	82.23269841269841	74	127
82.09337868480726	82.23269841269841	83	127
82.09337868480726	82.23269841269841	67	127
82.09337868480726	82.23269841269841	71	127
82.25591836734694	82.31396825396826	71	127
82.25591836734694	82.31396825396826	95	127
82.25591836734694	82.31396825396826	76	127
82.25591836734694	82.31396825396826	83	127
82.25591836734694	82.31396825396826	68	127
82.25591836734694	82.31396825396826	64	127
82.37201814058957	82.51133786848072	71	127
82.37201814058957	82.51133786848072	64	127
82.37201814058957	82.51133786848072	76	127
82.37201814058957	82.51133786848072	83	127
82.37201814058957	82.51133786848072	68	127
82.37201814058957	82.51133786848072	64	127
82.56938775510204	82.70868480725623	76	127
82.56938775510204	82.70868480725623	75	127
82.56938775510204	82.70868480725623	83	127
82.56938775510204	82.70868480725623	68	127
82.56938775510204	82.70868480725623	71	127
82.56938775510204	82.70868480725623	64	127
82.76675736961451	82.91768707482993	64	127
82.76675736961451	82.91768707482993	76	127
82.76675736961451	82.91768707482993	83	127
82.76675736961451	82.91768707482993	68	127
82.76675736961451	82.91768707482993	71	127
82.96410430839002	83.11505668934241	71	127
82.96410430839002	83.11505668934241	64	127
82.96410430839002	83.11505668934241	76	127
82.96410430839002	83.11505668934241	83	127
82.96410430839002	83.11505668934241	68	127
82.96410430839002	83.11505668934241	64	127
83.16149659863946	83.28920634920635	71	127
83.16149659863946	83.28920634920635	74	127
83.16149659863946	83.28920634920635	76	127
83.16149659863946	83.28920634920635	83	127
83.16149659863946	83.28920634920635	68	127
83.16149659863946	83.28920634920635	64	127
83.3472335600907	83.4749433106576	69	127
83.3472335600907	83.4749433106576	72	127
83.3472335600907	83.4749433106576	84	127
83.3472335600907	83.4749433106576	76	127
83.3472335600907	83.4749433106576	72	127
83.3472335600907	83.4749433106576	64	127
83.53301587301587	83.57943310657596	69	127
83.53301587301587	83.57943310657596	64	127
83.53301587301587	83.57943310657596	84	127
83.53301587301587	83.57943310657596	76	127
83.53301587301587	83.57943310657596	72	127
83.53301587301587	83.57943310657596	64	127
83.62589569160998	83.7768253968254	64	127
83.62589569160998	83.7768253968254	71	127
83.62589569160998	83.7768253968254	84	127
83.62589569160998	83.7768253968254	76	127
83.62589569160998	83.7768253968254	72	127
83.62589569160998	83.7768253968254	69	127
83.82326530612245	83.97419501133787	69	127
83.82326530612245	83.97419501133787	72	127
83.82326530612245	83.97419501133787	76	127
83.82326530612245	83.97419501133787	84	127
83.82326530612245	83.97419501133787	72	127
83.82326530612245	83.97419501133787	64	127
84.03224489795919	84.10190476190476	69	127
84.03224489795919	84.10190476190476	64	127
84.03224489795919	84.10190476190476	76	127
84.03224489795919	84.10190476190476	84	127
84.03224489795919	84.10190476190476	64	127
84.10190476190476	84.25283446712018	66	127
84.10190476190476	84.25283446712018	71	127
84.10190476190476	84.25283446712018	83	127
84.10190476190476	84.25283446712018	76	127
84.10190476190476	84.25283446712018	64	127
84.29927437641723	84.45020408163265	68	127
84.29927437641723	84.45020408163265	71	127
84.29927437641723	84.45020408163265	64	127
84.29927437641723	84.45020408163265	76	127
84.29927437641723	84.45020408163265	83	127
84.29927437641723	84.45020408163265	71	127
84.49664399092971	84.60111111111111	76	127
84.49664399092971	84.60111111111111	64	127
84.49664399092971	84.60111111111111	83	127
84.49664399092971	84.60111111111111	71	127
84.49664399092971	84.60111111111111	68	127
84.49664399092971	84.60111111111111	64	127
84.6243537414966	84.7172335600907	64	127
84.6243537414966	84.7172335600907	72	127
84.6243537414966	84.7172335600907	76	127
84.6243537414966	84.7172335600907	83	127
84.6243537414966	84.7172335600907	71	127
84.6243537414966	84.7172335600907	68	127
84.77528344671202	84.86816326530612	71	127
84.77528344671202	84.86816326530612	72	127
84.77528344671202	84.86816326530612	76	127
84.77528344671202	84.86816326530612	83	127
84.77528344671202	84.86816326530612	68	127
84.77528344671202	84.86816326530612	64	127
84.92621315192744	85.07714285714286	71	127
84.92621315192744	85.07714285714286	64	127
84.92621315192744	85.07714285714286	76	127
84.92621315192744	85.07714285714286	83	127
84.92621315192744	85.07714285714286	68	127
84.92621315192744	85.07714285714286	64	127
85.11195011337868	85.2512925170068	71	127
85.11195011337868	85.2512925170068	71	127
85.11195011337868	85.2512925170068	76	127
85.11195011337868	85.2512925170068	83	127
85.11195011337868	85.2512925170068	68	127
85.11195011337868	85.2512925170068	64	127
85.29773242630385	85.44866213151927	64	127
85.29773242630385	85.44866213151927	71	127
85.29773242630385	85.44866213151927	76	127
85.29773242630385	85.44866213151927	83	127
85.29773242630385	85.44866213151927	68	127
85.29773242630385	85.44866213151927	71	127
85.50671201814059	85.63442176870748	64	127
85.50671201814059	85.63442176870748	64	127
85.50671201814059	85.63442176870748	76	127
85.50671201814059	85.63442176870748	83	127
85.50671201814059	85.63442176870748	68	127
85.50671201814059	85.63442176870748	71	127
85.6924716553288	85.84340136054422	71	127
85.6924716553288	85.84340136054422	72	127
85.6924716553288	85.84340136054422	76	127
85.6924716553288	85.84340136054422	83	127
85.6924716553288	85.84340136054422	68	127
85.6924716553288	85.84340136054422	64	127
85.87820861678004	86.02916099773243	71	127
85.87820861678004	86.02916099773243	72	127
85.87820861678004	86.02916099773243	76	127
85.87820861678004	86.02916099773243	83	127
85.87820861678004	86.02916099773243	68	127
85.87820861678004	86.02916099773243	64	127
86.07560090702948	86.20331065759638	71	127
86.07560090702948	86.20331065759638	64	127
86.07560090702948	86.20331065759638	76	127
86.07560090702948	86.20331065759638	83	127
86.07560090702948	86.20331065759638	68	127
86.07560090702948	86.20331065759638	64	127
86.20331065759638	86.21492063492063	71	127
86.20331065759638	86.21492063492063	71	127
86.20331065759638	86.21492063492063	76	127
86.20331065759638	86.21492063492063	83	127
86.20331065759638	86.21492063492063	68	127
86.20331065759638	86.21492063492063	64	127
86.27297052154195	86.40068027210884	71	127
86.27297052154195	86.40068027210884	83	127
86.27297052154195	86.40068027210884	76	127
86.27297052154195	86.40068027210884	71	127
86.27297052154195	86.40068027210884	68	127
86.27297052154195	86.40068027210884	64	127
86.45873015873016	86.60965986394558	83	127
86.45873015873016	86.55160997732426	56	127
86.45873015873016	86.55160997732426	52	127
86.45873015873016	86.60965986394558	76	127
86.45873015873016	86.60965986394558	80	127
86.56321995464853	86.65609977324263	51	127
86.56321995464853	86.65609977324263	54	127
86.65609977324263	86.80702947845805	76	127
86.65609977324263	86.760589569161	56	127
86.65609977324263	86.760589569161	52	127
86.65609977324263	86.80702947845805	83	127
86.65609977324263	86.80702947845805	80	127
86.760589569161	86.8534693877551	57	127
86.760589569161	86.8534693877551	54	127
86.8534693877551	87.00437641723356	59	127
86.8534693877551	87.00437641723356	83	127
86.8534693877551	87.00437641723356	76	127
86.8534693877551	87.00437641723356	80	127
86.8534693877551	87.00437641723356	56	127
87.06244897959184	87.201768707483	80	127
87.06244897959184	87.15530612244898	61	127
87.06244897959184	87.201768707483	83	127
87.06244897959184	87.201768707483	76	127
87.15530612244898	87.25979591836735	59	127
87.25979591836735	87.35269841269842	80	127
87.25979591836735	87.31786848072562	61	127
87.25979591836735	87.35269841269842	83	127
87.25979591836735	87.35269841269842	76	127
87.31786848072562	87.35269841269842	62	127
87.35269841269842	87.39913832199547	64	127
87.35269841269842	87.39913832199547	83	127
87.35269841269842	87.39913832199547	76	127
87.35269841269842	87.39913832199547	80	127
87.35269841269842	87.44557823129252	69	127
87.45718820861678	87.6081179138322	71	127
87.45718820861678	87.6081179138322	83	127
87.45718820861678	87.6081179138322	76	127
87.45718820861678	87.6081179138322	80	127
87.45718820861678	87.6081179138322	64	127
87.64292517006803	87.80548752834467	88	127
87.64292517006803	87.74743764172335	69	127
87.64292517006803	87.80548752834467	64	127
87.64292517006803	87.74743764172335	66	127
87.75904761904762	87.86353741496599	64	127
87.75904761904762	87.86353741496599	68	127
87.86353741496599	87.97963718820861	66	127
87.86353741496599	87.97963718820861	69	127
87.86353741496599	88.0260544217687	86	127
87.86353741496599	88.0260544217687	64	127
87.97963718820861	88.08412698412698	68	127
87.97963718820861	88.08412698412698	71	127
88.08412698412698	88.22344671201814	69	127
88.08412698412698	88.22344671201814	64	127
88.08412698412698	88.22344671201814	69	127
88.08412698412698	88.22344671201814	85	127
88.08412698412698	88.22344671201814	57	127
88.25827664399092	88.40918367346939	64	127
88.25827664399092	88.3627664399093	57	127
88.25827664399092	88.40918367346939	85	127
88.25827664399092	88.40918367346939	69	127
88.25827664399092	88.40918367346939	73	127
88.3627664399093	88.46725623582766	56	127
88.46725623582766	88.60657596371883	64	127
88.46725623582766	88.56013605442178	57	127
88.46725623582766	88.60657596371883	85	127
88.46725623582766	88.60657596371883	69	127
88.46725623582766	88.60657596371883	73	127
88.56013605442178	88.66460317460317	59	127
88.66460317460317	88.81555555555556	73	127
88.66460317460317	88.81555555555556	61	127
88.66460317460317	88.81555555555556	76	127
88.66460317460317	88.81555555555556	85	127
88.66460317460317	88.81555555555556	69	127
88.66460317460317	88.81555555555556	64	127
88.86199546485261	89.01292517006803	76	127
88.86199546485261	89.01292517006803	62	127
88.86199546485261	89.01292517006803	85	127
88.86199546485261	89.01292517006803	69	127
88.86199546485261	89.01292517006803	73	127
88.86199546485261	89.01292517006803	64	127
89.03614512471655	89.18707482993197	64	127
89.03614512471655	89.18707482993197	64	127
89.03614512471655	89.18707482993197	76	127
89.03614512471655	89.18707482993197	85	127
89.03614512471655	89.18707482993197	69	127
89.03614512471655	89.18707482993197	73	127
89.23351473922902	89.30315192743764	73	127
89.23351473922902	89.30315192743764	66	127
89.23351473922902	89.30315192743764	76	127
89.23351473922902	89.30315192743764	85	127
89.23351473922902	89.30315192743764	69	127
89.23351473922902	89.30315192743764	64	127
89.32639455782314	89.47732426303855	73	127
89.32639455782314	89.47732426303855	68	127
89.32639455782314	89.47732426303855	76	127
89.32639455782314	89.47732426303855	85	127
89.32639455782314	89.47732426303855	69	127
89.32639455782314	89.47732426303855	64	127
89.47732426303855	89.6166439909297	69	127
89.47732426303855	89.6166439909297	69	127
89.47732426303855	89.6166439909297	64	127
89.47732426303855	89.6166439909297	76	127
89.47732426303855	89.6166439909297	85	127
89.47732426303855	89.6166439909297	73	127
89.6514739229025	89.77918367346939	71	127
89.6514739229025	89.77918367346939	71	127
89.6514739229025	89.77918367346939	76	127
89.6514739229025	89.77918367346939	86	127
89.6514739229025	89.77918367346939	68	127
89.6514739229025	89.77918367346939	64	127
89.83723356009071	89.97655328798186	64	127
89.83723356009071	89.97655328798186	73	127
89.83723356009071	89.97655328798186	76	127
89.83723356009071	89.97655328798186	86	127
89.83723356009071	89.97655328798186	68	127
89.83723356009071	89.97655328798186	71	127
90.02299319727891	90.1507029478458	71	127
90.02299319727891	90.1507029478458	74	127
90.02299319727891	90.1507029478458	76	127
90.02299319727891	90.1507029478458	86	127
90.02299319727891	90.1507029478458	68	127
90.02299319727891	90.1507029478458	64	127
90.20875283446712	90.29002267573696	71	127
90.20875283446712	90.29002267573696	76	127
90.20875283446712	90.29002267573696	86	127
90.20875283446712	90.29002267573696	68	127
90.20875283446712	90.29002267573696	64	127
90.33646258503401	90.45253968253968	71	127
90.33646258503401	90.45253968253968	78	127
90.33646258503401	90.45253968253968	76	127
90.33646258503401	90.45253968253968	86	127
90.33646258503401	90.45253968253968	68	127
90.33646258503401	90.45253968253968	64	127
90.48739229024943	90.60349206349207	64	127
90.48739229024943	90.60349206349207	80	127
90.48739229024943	90.60349206349207	76	127
90.48739229024943	90.60349206349207	86	127
90.48739229024943	90.60349206349207	68	127
90.48739229024943	90.60349206349207	71	127
90.66154195011337	90.75442176870749	64	127
90.66154195011337	90.75442176870749	81	127
90.66154195011337	90.75442176870749	76	127
90.66154195011337	90.75442176870749	86	127
90.66154195011337	90.75442176870749	68	127
90.66154195011337	90.75442176870749	71	127
90.78925170068027	90.92857142857143	71	127
90.78925170068027	90.92857142857143	83	127
90.78925170068027	90.92857142857143	76	127
90.78925170068027	90.92857142857143	86	127
90.78925170068027	90.92857142857143	68	127
90.78925170068027	90.92857142857143	64	127
90.97501133786848	91.11433106575964	71	127
90.97501133786848	91.11433106575964	85	127
90.97501133786848	91.11433106575964	76	127
90.97501133786848	91.11433106575964	86	127
90.97501133786848	91.11433106575964	68	127
90.97501133786848	91.11433106575964	64	127
91.16077097505669	91.30009070294784	68	127
91.16077097505669	91.30009070294784	86	127
91.16077097505669	91.30009070294784	76	127
91.16077097505669	91.30009070294784	83	127
91.16077097505669	91.30009070294784	71	127
91.16077097505669	91.30009070294784	64	127
91.3465306122449	91.48585034013605	76	127
91.3465306122449	91.439410430839	71	127
91.3465306122449	91.439410430839	68	127
91.3465306122449	91.48585034013605	64	127
91.439410430839	91.5322902494331	66	127
91.439410430839	91.5322902494331	69	127
91.5322902494331	91.64839002267574	64	127
91.5322902494331	91.60195011337869	71	127
91.5322902494331	91.60195011337869	68	127
91.5322902494331	91.64839002267574	85	127
91.60195011337869	91.66	73	127
91.60195011337869	91.66	69	127
91.66	91.77609977324263	64	127
91.66	91.77609977324263	86	127
91.66	91.77609977324263	74	127
91.66	91.77609977324263	71	127
91.82253968253968	91.93863945578231	76	127
91.82253968253968	91.90380952380953	71	127
91.82253968253968	91.90380952380953	68	127
91.82253968253968	91.93863945578231	64	127
91.90380952380953	91.9734693877551	69	127
91.90380952380953	91.9734693877551	66	127
91.9734693877551	92.101179138322	88	127
91.9734693877551	92.05473922902495	71	127
91.9734693877551	92.05473922902495	68	127
91.9734693877551	92.101179138322	64	127
92.05473922902495	92.14761904761905	73	127
92.05473922902495	92.14761904761905	69	127
92.15922902494331	92.29854875283446	69	127
92.15922902494331	92.29854875283446	85	127
92.15922902494331	92.29854875283446	73	127
92.15922902494331	92.29854875283446	57	127
92.35659863945578	92.5075283446712	81	127
92.35659863945578	92.44947845804988	45	127
92.35659863945578	92.5075283446712	88	127
92.35659863945578	92.5075283446712	76	127
92.35659863945578	92.5075283446712	73	127
92.46108843537415	92.55396825396825	44	127
92.55396825396825	92.70489795918367	76	127
92.55396825396825	92.65845804988662	45	127
92.55396825396825	92.70489795918367	88	127
92.55396825396825	92.70489795918367	73	127
92.55396825396825	92.70489795918367	81	127
92.65845804988662	92.75133786848073	47	127
92.75133786848073	92.90226757369615	49	127
92.75133786848073	92.90226757369615	88	127
92.75133786848073	92.90226757369615	76	127
92.75133786848073	92.90226757369615	73	127
92.75133786848073	92.90226757369615	81	127
92.96031746031746	93.00675736961452	81	127
92.96031746031746	93.00675736961452	50	127
92.96031746031746	93.00675736961452	76	127
92.96031746031746	93.00675736961452	88	127
92.96031746031746	93.00675736961452	73	127
93.00675736961452	93.0415873015873	81	127
93.00675736961452	93.0415873015873	76	127
93.00675736961452	93.0415873015873	88	127
93.00675736961452	93.0415873015873	73	127
93.00675736961452	93.08802721088435	52	127
93.08802721088435	93.23893424036281	81	127
93.08802721088435	93.23893424036281	76	127
93.08802721088435	93.23893424036281	88	127
93.08802721088435	93.23893424036281	73	127
93.08802721088435	93.23893424036281	54	127
93.28539682539683	93.43632653061225	88	127
93.28539682539683	93.3898866213152	68	127
93.28539682539683	93.3898866213152	56	127
93.28539682539683	93.43632653061225	76	127
93.3898866213152	93.4827664399093	54	127
93.3898866213152	93.4827664399093	66	127
93.4827664399093	93.54081632653062	68	127
93.4827664399093	93.54081632653062	56	127
93.4827664399093	93.58725623582767	76	127
93.4827664399093	93.58725623582767	88	127
93.54081632653062	93.64530612244899	57	127
93.54081632653062	93.64530612244899	69	127
93.64530612244899	93.77301587301588	88	127
93.64530612244899	93.77301587301588	71	127
93.64530612244899	93.77301587301588	56	127
93.64530612244899	93.77301587301588	64	127
93.64530612244899	93.77301587301588	59	127
93.64530612244899	93.77301587301588	76	127
93.7962358276644	93.9239455782313	57	127
93.7962358276644	93.9239455782313	76	127
93.7962358276644	93.9239455782313	88	127
93.7962358276644	93.9239455782313	73	127
93.7962358276644	93.9239455782313	64	127
93.97038548752835	94.00519274376417	59	127
93.97038548752835	94.00519274376417	76	127
93.97038548752835	94.00519274376417	88	127
93.97038548752835	94.00519274376417	74	127
93.97038548752835	94.00519274376417	64	127
94.00519274376417	94.15614512471656	68	127
94.00519274376417	94.15614512471656	76	127
94.00519274376417	94.15614512471656	88	127
94.00519274376417	94.15614512471656	71	127
94.00519274376417	94.15614512471656	64	127
94.21419501133786	94.35351473922903	73	127
94.21419501133786	94.35351473922903	78	127
94.21419501133786	94.35351473922903	69	127
94.21419501133786	94.35351473922903	64	127
94.39995464852608	94.5508843537415	71	127
94.39995464852608	94.5508843537415	80	127
94.39995464852608	94.5508843537415	74	127
94.39995464852608	94.5508843537415	64	127
94.59732426303854	94.70181405895691	64	127
94.59732426303854	94.70181405895691	81	127
94.59732426303854	94.70181405895691	74	127
94.59732426303854	94.70181405895691	66	127
94.748231292517	94.8759410430839	68	127
94.748231292517	94.8759410430839	83	127
94.748231292517	94.8759410430839	74	127
94.748231292517	94.8759410430839	64	127
94.93401360544217	95.02689342403629	69	127
94.93401360544217	95.02689342403629	85	127
94.93401360544217	95.02689342403629	74	127
94.93401360544217	95.02689342403629	64	127
95.0849433106576	95.22426303854876	71	127
95.0849433106576	95.22426303854876	86	127
95.0849433106576	95.22426303854876	74	127
95.0849433106576	95.22426303854876	68	127
95.0849433106576	95.22426303854876	64	127
95.28231292517007	95.4332426303855	71	127
95.28231292517007	95.4332426303855	76	127
95.28231292517007	95.4332426303855	74	127
95.28231292517007	95.4332426303855	83	127
95.28231292517007	95.4332426303855	68	127
95.28231292517007	95.4332426303855	64	127
95.47968253968254	95.63061224489796	83	127
95.47968253968254	95.63061224489796	85	127
95.47968253968254	95.63061224489796	74	127
95.47968253968254	95.63061224489796	71	127
95.47968253968254	95.63061224489796	68	127
95.47968253968254	95.63061224489796	64	127
95.67705215419501	95.73510204081633	86	127
95.67705215419501	95.73510204081633	74	127
95.67705215419501	95.73510204081633	83	127
95.67705215419501	95.73510204081633	68	127
95.67705215419501	95.73510204081633	71	127
95.67705215419501	95.73510204081633	64	127
95.74671201814058	95.88603174603175	64	127
95.74671201814058	95.88603174603175	76	127
95.74671201814058	95.88603174603175	74	127
95.74671201814058	95.88603174603175	83	127
95.74671201814058	95.88603174603175	68	127
95.74671201814058	95.88603174603175	71	127
95.9324716553288	96.00213151927437	71	127
95.9324716553288	96.00213151927437	88	127
95.9324716553288	96.00213151927437	74	127
95.9324716553288	96.00213151927437	83	127
95.9324716553288	96.00213151927437	68	127
95.9324716553288	96.00213151927437	64	127
96.04857142857144	96.16467120181406	68	127
96.04857142857144	96.16467120181406	86	127
96.04857142857144	96.16467120181406	74	127
96.04857142857144	96.16467120181406	83	127
96.04857142857144	96.16467120181406	71	127
96.04857142857144	96.16467120181406	64	127
96.21111111111111	96.35043083900227	76	127
96.21111111111111	96.30399092970522	86	127
96.21111111111111	96.30399092970522	44	127
96.21111111111111	96.35043083900227	74	127
96.21111111111111	96.35043083900227	83	127
96.21111111111111	96.35043083900227	68	127
96.30399092970522	96.39687074829932	88	127
96.30399092970522	96.39687074829932	42	127
96.40848072562358	96.52458049886621	83	127
96.40848072562358	96.50136054421769	86	127
96.40848072562358	96.50136054421769	44	127
96.40848072562358	96.52458049886621	74	127
96.40848072562358	96.52458049886621	76	127
96.40848072562358	96.52458049886621	68	127
96.50136054421769	96.54780045351474	85	127
96.50136054421769	96.54780045351474	45	127
96.54780045351474	96.69873015873016	74	127
96.54780045351474	96.69873015873016	68	127
96.54780045351474	96.69873015873016	76	127
96.54780045351474	96.69873015873016	83	127
96.54780045351474	96.69873015873016	47	127
96.7451700680272	96.83804988662132	56	127
96.7451700680272	96.83804988662132	71	127
96.7451700680272	96.83804988662132	59	127
96.7451700680272	96.89609977324263	64	127
96.84965986394558	96.94253968253969	57	127
96.84965986394558	96.94253968253969	73	127
96.84965986394558	96.94253968253969	54	127
96.94253968253969	97.04702947845804	56	127
96.94253968253969	97.04702947845804	71	127
96.94253968253969	97.04702947845804	59	127
96.94253968253969	97.0934693877551	64	127
97.04702947845804	97.13990929705216	61	127
97.04702947845804	97.13990929705216	69	127
97.04702947845804	97.13990929705216	57	127
97.13990929705216	97.25600907029478	59	127
97.13990929705216	97.25600907029478	68	127
97.13990929705216	97.25600907029478	62	127
97.13990929705216	97.25600907029478	64	127
97.30244897959183	97.38371882086167	68	127
97.30244897959183	97.38371882086167	71	127
97.30244897959183	97.38371882086167	64	127
97.30244897959183	97.38371882086167	62	127
97.38371882086167	97.47659863945579	62	127
97.38371882086167	97.47659863945579	71	127
97.38371882086167	97.47659863945579	68	127
97.38371882086167	97.51142857142857	64	127
97.47659863945579	97.55786848072562	69	127
97.47659863945579	97.55786848072562	73	127
97.47659863945579	97.55786848072562	61	127
97.55786848072562	97.68557823129251	59	127
97.55786848072562	97.68557823129251	74	127
97.55786848072562	97.68557823129251	68	127
97.55786848072562	97.68557823129251	64	127
97.73201814058957	97.80167800453515	54	127
97.73201814058957	97.80167800453515	86	127
97.73201814058957	97.80167800453515	66	127
97.73201814058957	97.80167800453515	42	127
97.80167800453515	97.90616780045352	52	127
97.80167800453515	97.90616780045352	85	127
97.80167800453515	97.90616780045352	64	127
97.80167800453515	97.90616780045352	40	127
97.90616780045352	97.99904761904762	54	127
97.90616780045352	97.99904761904762	86	127
97.90616780045352	97.99904761904762	66	127
97.90616780045352	97.99904761904762	42	127
97.99904761904762	98.05709750566893	56	127
97.99904761904762	98.05709750566893	83	127
97.99904761904762	98.05709750566893	68	127
97.99904761904762	98.05709750566893	44	127
98.05709750566893	98.21963718820862	57	127
98.05709750566893	98.21963718820862	81	127
98.05709750566893	98.21963718820862	69	127
98.05709750566893	98.21963718820862	45	127
98.27768707482993	98.34734693877552	42	127
98.27768707482993	98.34734693877552	66	127
98.27768707482993	98.34734693877552	54	127
98.27768707482993	98.39378684807257	69	127
98.34734693877552	98.41700680272109	52	127
98.34734693877552	98.41700680272109	64	127
98.34734693877552	98.41700680272109	40	127
98.41700680272109	98.49827664399093	42	127
98.41700680272109	98.49827664399093	66	127
98.41700680272109	98.49827664399093	54	127
98.41700680272109	98.55632653061224	85	127
98.50988662131519	98.59115646258503	56	127
98.50988662131519	98.59115646258503	68	127
98.50988662131519	98.59115646258503	44	127
98.59115646258503	98.6956462585034	57	127
98.59115646258503	98.6956462585034	69	127
98.59115646258503	98.6956462585034	45	127
98.74208616780045	98.84657596371882	42	127
98.74208616780045	98.84657596371882	66	127
98.74208616780045	98.84657596371882	54	127
98.74208616780045	98.89301587301587	88	127
98.84657596371882	98.93945578231292	52	127
98.84657596371882	98.93945578231292	64	127
98.84657596371882	98.93945578231292	40	127
98.95106575963719	99.03233560090703	42	127
98.95106575963719	99.03233560090703	66	127
98.95106575963719	99.07877551020408	69	127
98.95106575963719	99.03233560090703	54	127
99.03233560090703	99.12521541950113	68	127
99.03233560090703	99.12521541950113	56	127
99.03233560090703	99.12521541950113	44	127
99.12521541950113	99.2645351473923	45	127
99.12521541950113	99.2645351473923	88	127
99.12521541950113	99.2645351473923	69	127
99.12521541950113	99.2645351473923	57	127
99.28775510204082	99.39224489795919	42	127
99.28775510204082	99.39224489795919	66	127
99.28775510204082	99.39224489795919	54	127
99.28775510204082	99.43868480725624	69	127
99.39224489795919	99.48512471655329	52	127
99.39224489795919	99.48512471655329	64	127
99.39224489795919	99.48512471655329	40	127
99.48512471655329	99.58961451247166	42	127
99.48512471655329	99.58961451247166	66	127
99.48512471655329	99.58961451247166	54	127
99.48512471655329	99.6360544217687	93	127
99.58961451247166	99.68249433106575	68	127
99.58961451247166	99.68249433106575	56	127
99.58961451247166	99.68249433106575	44	127
99.69410430839002	99.78698412698412	45	127
99.69410430839002	100.32104308390022	88	127
99.69410430839002	99.78698412698412	69	127
99.69410430839002	99.78698412698412	57	127
99.81020408163265	99.87986394557824	66	127
99.81020408163265	99.87986394557824	54	127
99.81020408163265	99.87986394557824	42	127
99.87986394557824	99.9843537414966	64	127
99.87986394557824	99.9843537414966	52	127
99.87986394557824	99.9843537414966	40	127
99.9843537414966	100.05401360544218	54	127
99.9843537414966	100.05401360544218	66	127
99.9843537414966	100.05401360544218	42	127
100.06562358276643	100.14689342403628	68	127
100.06562358276643	100.14689342403628	56	127
100.06562358276643	100.14689342403628	44	127
100.14689342403628	100.28621315192744	69	127
100.14689342403628	100.28621315192744	57	127
100.14689342403628	100.28621315192744	45	127
100.32104308390022	100.39070294784581	42	127
100.32104308390022	100.39070294784581	66	127
100.32104308390022	100.39070294784581	54	127
100.32104308390022	100.43714285714286	69	127
100.39070294784581	100.49519274376418	52	127
100.39070294784581	100.49519274376418	64	127
100.39070294784581	100.49519274376418	40	127
100.49519274376418	100.57646258503401	66	127
100.49519274376418	100.57646258503401	54	127
100.49519274376418	100.57646258503401	42	127
100.49519274376418	100.62290249433107	86	127
100.57646258503401	100.68095238095238	44	127
100.57646258503401	100.68095238095238	68	127
100.57646258503401	100.68095238095238	56	127
100.68095238095238	100.79705215419501	45	127
100.68095238095238	100.79705215419501	85	127
100.68095238095238	100.79705215419501	69	127
100.68095238095238	100.79705215419501	57	127
100.79705215419501	100.90154195011338	54	127
100.79705215419501	100.94798185941043	69	127
100.79705215419501	100.90154195011338	66	127
100.79705215419501	100.90154195011338	42	127
100.90154195011338	100.99442176870748	52	127
100.90154195011338	100.99442176870748	64	127
100.90154195011338	100.99442176870748	40	127
100.99442176870748	101.09891156462585	42	127
100.99442176870748	101.09891156462585	66	127
100.99442176870748	101.09891156462585	54	127
100.99442176870748	101.13374149659865	86	127
101.09891156462585	101.1801814058957	56	127
101.09891156462585	101.1801814058957	68	127
101.09891156462585	101.1801814058957	44	127
101.1801814058957	101.26145124716554	57	127
101.1801814058957	101.26145124716554	85	127
101.1801814058957	101.26145124716554	69	127
101.1801814058957	101.26145124716554	45	127
101.30789115646259	101.40077097505669	42	127
101.30789115646259	101.40077097505669	66	127
101.30789115646259	101.40077097505669	54	127
101.30789115646259	101.458820861678	69	127
101.40077097505669	101.50526077097506	52	127
101.40077097505669	101.50526077097506	64	127
101.40077097505669	101.50526077097506	40	127
101.50526077097506	101.57492063492063	42	127
101.50526077097506	101.57492063492063	66	127
101.50526077097506	101.57492063492063	54	127
101.50526077097506	101.6213605442177	86	127
101.57492063492063	101.66780045351474	56	127
101.57492063492063	101.66780045351474	68	127
101.57492063492063	101.66780045351474	44	127
101.66780045351474	101.77229024943311	57	127
101.66780045351474	101.77229024943311	85	127
101.66780045351474	101.77229024943311	69	127
101.66780045351474	101.77229024943311	45	127
101.79551020408164	101.87678004535148	66	127
101.79551020408164	101.87678004535148	54	127
101.79551020408164	101.87678004535148	42	127
101.79551020408164	101.91160997732426	69	127
101.87678004535148	101.96965986394558	40	127
101.87678004535148	101.96965986394558	64	127
101.87678004535148	101.96965986394558	52	127
101.96965986394558	102.10897959183673	83	127
101.96965986394558	102.06253968253968	66	127
101.96965986394558	102.06253968253968	54	127
101.96965986394558	102.06253968253968	42	127
102.06253968253968	102.13219954648527	56	127
102.06253968253968	102.13219954648527	68	127
102.06253968253968	102.13219954648527	44	127
102.13219954648527	102.27151927437642	69	127
102.13219954648527	102.27151927437642	81	127
102.13219954648527	102.27151927437642	57	127
102.13219954648527	102.27151927437642	45	127
102.31795918367347	102.41083900226758	42	127
102.31795918367347	102.41083900226758	66	127
102.31795918367347	102.41083900226758	54	127
102.31795918367347	102.45727891156463	69	127
102.41083900226758	102.49210884353741	52	127
102.41083900226758	102.49210884353741	64	127
102.41083900226758	102.49210884353741	40	127
102.49210884353741	102.58498866213152	54	127
102.49210884353741	102.58498866213152	66	127
102.49210884353741	102.63142857142857	85	127
102.49210884353741	102.58498866213152	42	127
102.58498866213152	102.66625850340137	44	127
102.58498866213152	102.66625850340137	68	127
102.58498866213152	102.66625850340137	56	127
102.67786848072562	102.77074829931973	69	127
102.67786848072562	102.77074829931973	57	127
102.67786848072562	102.77074829931973	45	127
102.82879818594104	102.92167800453515	42	127
102.82879818594104	102.92167800453515	66	127
102.82879818594104	102.92167800453515	54	127
102.82879818594104	102.97972789115646	88	127
102.92167800453515	103.02616780045352	52	127
102.92167800453515	103.02616780045352	64	127
102.92167800453515	103.02616780045352	40	127
103.02616780045352	103.13065759637188	42	127
103.02616780045352	103.13065759637188	66	127
103.02616780045352	103.13065759637188	54	127
103.02616780045352	103.17709750566894	69	127
103.13065759637188	103.21192743764172	56	127
103.13065759637188	103.21192743764172	68	127
103.13065759637188	103.21192743764172	44	127
103.21192743764172	103.30480725623583	57	127
103.21192743764172	103.30480725623583	88	127
103.21192743764172	103.30480725623583	69	127
103.21192743764172	103.30480725623583	45	127
103.36285714285714	103.45573696145125	42	127
103.36285714285714	103.45573696145125	66	127
103.36285714285714	103.45573696145125	54	127
103.36285714285714	103.5021768707483	69	127
103.45573696145125	103.56022675736962	52	127
103.45573696145125	103.56022675736962	64	127
103.45573696145125	103.56022675736962	40	127
103.56022675736962	103.71115646258504	93	127
103.56022675736962	103.65310657596372	66	127
103.56022675736962	103.65310657596372	54	127
103.56022675736962	103.65310657596372	42	127
103.65310657596372	103.75759637188209	56	127
103.65310657596372	103.75759637188209	68	127
103.65310657596372	103.75759637188209	44	127
103.75759637188209	103.85047619047619	45	127
103.75759637188209	103.85047619047619	57	127
103.75759637188209	104.30326530612246	88	127
103.75759637188209	103.85047619047619	69	127
103.87369614512471	103.9433560090703	66	127
103.87369614512471	103.9433560090703	54	127
103.87369614512471	103.9433560090703	42	127
103.9433560090703	104.0362358276644	52	127
103.9433560090703	104.0362358276644	64	127
103.9433560090703	104.0362358276644	40	127
104.0362358276644	104.1291156462585	66	127
104.0362358276644	104.1291156462585	54	127
104.0362358276644	104.1291156462585	42	127
104.1291156462585	104.17555555555556	68	127
104.1291156462585	104.17555555555556	56	127
104.1291156462585	104.17555555555556	44	127
104.17555555555556	104.28004535147392	69	127
104.17555555555556	104.28004535147392	57	127
104.17555555555556	104.28004535147392	45	127
104.30326530612246	104.40775510204081	42	127
104.30326530612246	104.40775510204081	66	127
104.30326530612246	104.40775510204081	54	127
104.30326530612246	104.46580498866213	69	127
104.41936507936508	104.51224489795918	52	127
104.41936507936508	104.51224489795918	64	127
104.41936507936508	104.51224489795918	40	127
104.51224489795918	104.62834467120182	42	127
104.51224489795918	104.62834467120182	66	127
104.51224489795918	104.62834467120182	54	127
104.51224489795918	104.6631746031746	86	127
104.62834467120182	104.70961451247166	44	127
104.62834467120182	104.70961451247166	68	127
104.62834467120182	104.70961451247166	56	127
104.70961451247166	104.79088435374149	45	127
104.70961451247166	104.79088435374149	85	127
104.70961451247166	104.79088435374149	69	127
104.70961451247166	104.79088435374149	57	127
104.84893424036281	104.93020408163265	42	127
104.84893424036281	104.93020408163265	66	127
104.84893424036281	104.93020408163265	54	127
104.84893424036281	104.9766439909297	69	127
104.93020408163265	105.03469387755102	52	127
104.93020408163265	105.03469387755102	64	127
104.93020408163265	105.03469387755102	40	127
105.03469387755102	105.08113378684807	42	127
105.03469387755102	105.08113378684807	66	127
105.03469387755102	105.08113378684807	54	127
105.03469387755102	105.13918367346939	86	127
105.08113378684807	105.18562358276644	56	127
105.08113378684807	105.18562358276644	68	127
105.08113378684807	105.18562358276644	44	127
105.18562358276644	105.31333333333333	57	127
105.18562358276644	105.31333333333333	85	127
105.18562358276644	105.31333333333333	69	127
105.18562358276644	105.31333333333333	45	127
105.35977324263038	105.46426303854875	42	127
105.35977324263038	105.46426303854875	66	127
105.35977324263038	105.46426303854875	54	127
105.35977324263038	105.5107029478458	69	127
105.46426303854875	105.55714285714286	64	127
105.46426303854875	105.55714285714286	52	127
105.46426303854875	105.55714285714286	40	127
105.56875283446712	105.66163265306122	42	127
105.56875283446712	105.66163265306122	66	127
105.56875283446712	105.66163265306122	54	127
105.56875283446712	105.70807256235828	86	127
105.66163265306122	105.7312925170068	56	127
105.66163265306122	105.7312925170068	68	127
105.66163265306122	105.7312925170068	44	127
105.7312925170068	105.84739229024943	57	127
105.7312925170068	105.84739229024943	85	127
105.7312925170068	105.84739229024943	69	127
105.7312925170068	105.84739229024943	45	127
105.90544217687075	105.9867120181406	42	127
105.90544217687075	105.9867120181406	66	127
105.90544217687075	105.9867120181406	54	127
105.90544217687075	106.03315192743764	69	127
105.99832199546485	106.03315192743764	52	127
105.99832199546485	106.03315192743764	64	127
105.99832199546485	106.03315192743764	40	127
106.03315192743764	106.12603174603174	42	127
106.03315192743764	106.12603174603174	66	127
106.03315192743764	106.12603174603174	54	127
106.03315192743764	106.17247165532879	86	127
106.12603174603174	106.20730158730159	56	127
106.12603174603174	106.20730158730159	68	127
106.12603174603174	106.20730158730159	44	127
106.20730158730159	106.34662131519275	69	127
106.20730158730159	106.34662131519275	86	127
106.20730158730159	106.34662131519275	57	127
106.20730158730159	106.34662131519275	45	127
106.40467120181405	106.49755102040817	66	127
106.40467120181405	106.49755102040817	54	127
106.40467120181405	106.49755102040817	42	127
106.40467120181405	106.57882086167801	71	127
106.49755102040817	106.57882086167801	40	127
106.49755102040817	106.57882086167801	64	127
106.49755102040817	106.57882086167801	52	127
106.57882086167801	106.68331065759637	85	127
106.57882086167801	106.62526077097506	66	127
106.57882086167801	106.62526077097506	54	127
106.57882086167801	106.62526077097506	42	127
106.62526077097506	106.69492063492063	44	127
106.62526077097506	106.69492063492063	68	127
106.62526077097506	106.69492063492063	56	127
106.68331065759637	106.69492063492063	85	127
106.69492063492063	106.82263038548753	57	127
106.69492063492063	106.82263038548753	86	127
106.69492063492063	106.82263038548753	69	127
106.69492063492063	106.82263038548753	45	127
106.86907029478458	106.95034013605442	42	127
106.86907029478458	106.95034013605442	66	127
106.86907029478458	106.95034013605442	54	127
106.86907029478458	106.99678004535147	71	127
106.95034013605442	107.04321995464852	52	127
106.95034013605442	107.04321995464852	64	127
106.95034013605442	107.04321995464852	40	127
107.05482993197279	107.11287981859411	42	127
107.05482993197279	107.11287981859411	66	127
107.05482993197279	107.11287981859411	54	127
107.05482993197279	107.14770975056689	88	127
107.11287981859411	107.20575963718821	44	127
107.11287981859411	107.20575963718821	68	127
107.11287981859411	107.20575963718821	56	127
107.20575963718821	107.35668934240363	45	127
107.20575963718821	107.35668934240363	85	127
107.20575963718821	107.35668934240363	69	127
107.20575963718821	107.35668934240363	57	127
107.40312925170068	107.48439909297052	42	127
107.40312925170068	107.48439909297052	66	127
107.40312925170068	107.48439909297052	54	127
107.40312925170068	107.54244897959184	69	127
107.49600907029479	107.58888888888889	52	127
107.49600907029479	107.58888888888889	64	127
107.49600907029479	107.58888888888889	40	127
107.58888888888889	107.69337868480726	42	127
107.58888888888889	107.69337868480726	66	127
107.58888888888889	107.69337868480726	54	127
107.58888888888889	107.72820861678005	86	127
107.69337868480726	107.7746485260771	56	127
107.69337868480726	107.7746485260771	68	127
107.69337868480726	107.7746485260771	44	127
107.7746485260771	107.92557823129252	57	127
107.7746485260771	107.92557823129252	85	127
107.7746485260771	107.92557823129252	69	127
107.7746485260771	107.92557823129252	45	127
107.98362811791384	108.07650793650794	42	127
107.98362811791384	108.07650793650794	66	127
107.98362811791384	108.07650793650794	54	127
107.98362811791384	108.07650793650794	88	127
108.07650793650794	108.08811791383219	54	127
108.07650793650794	108.08811791383219	66	127
108.07650793650794	108.08811791383219	42	127
108.07650793650794	108.14616780045351	93	127
108.09972789115646	108.19260770975056	44	127
108.09972789115646	108.19260770975056	68	127
108.09972789115646	108.19260770975056	56	127
108.19260770975056	108.34353741496598	45	127
108.19260770975056	108.34353741496598	86	127
108.19260770975056	108.34353741496598	69	127
108.19260770975056	108.34353741496598	57	127
108.38997732426304	108.49446712018141	42	127
108.38997732426304	108.49446712018141	66	127
108.38997732426304	108.49446712018141	54	127
108.38997732426304	108.58734693877551	71	127
108.49446712018141	108.58734693877551	52	127
108.49446712018141	108.58734693877551	64	127
108.49446712018141	108.58734693877551	40	127
108.59895691609978	108.66861678004535	42	127
108.59895691609978	108.66861678004535	66	127
108.59895691609978	108.66861678004535	54	127
108.59895691609978	108.66861678004535	85	127
108.66861678004535	108.7150566893424	44	127
108.66861678004535	108.7150566893424	68	127
108.66861678004535	108.7150566893424	56	127
108.66861678004535	108.7150566893424	85	127
108.7150566893424	108.86598639455782	57	127
108.7150566893424	108.86598639455782	86	127
108.7150566893424	108.86598639455782	69	127
108.7150566893424	108.86598639455782	45	127
108.91242630385487	109.00530612244899	42	127
108.91242630385487	109.00530612244899	66	127
108.91242630385487	109.00530612244899	54	127
108.91242630385487	109.04013605442177	71	127
109.01691609977324	109.07496598639456	40	127
109.01691609977324	109.07496598639456	64	127
109.01691609977324	109.07496598639456	52	127
109.07496598639456	109.16784580498866	88	127
109.07496598639456	109.12140589569161	66	127
109.07496598639456	109.12140589569161	54	127
109.07496598639456	109.12140589569161	42	127
109.12140589569161	109.21428571428571	56	127
109.12140589569161	109.21428571428571	68	127
109.12140589569161	109.21428571428571	44	127
109.21428571428571	109.36521541950114	57	127
109.21428571428571	109.36521541950114	85	127
109.21428571428571	109.36521541950114	69	127
109.21428571428571	109.36521541950114	45	127
109.41165532879819	109.49292517006803	42	127
109.41165532879819	109.49292517006803	66	127
109.41165532879819	109.49292517006803	54	127
109.41165532879819	109.53936507936508	69	127
109.49292517006803	109.58580498866213	52	127
109.49292517006803	109.58580498866213	64	127
109.49292517006803	109.58580498866213	40	127
109.58580498866213	109.67868480725623	54	127
109.58580498866213	109.67868480725623	88	127
109.58580498866213	109.67868480725623	66	127
109.58580498866213	109.67868480725623	42	127
109.6902947845805	109.77156462585035	68	127
109.6902947845805	109.77156462585035	44	127
109.6902947845805	109.77156462585035	56	127
109.73673469387755	109.77156462585035	88	127
109.77156462585035	109.85283446712018	93	127
109.77156462585035	109.85283446712018	69	127
109.77156462585035	109.85283446712018	57	127
109.77156462585035	109.85283446712018	45	127
109.85283446712018	110.14308390022676	69	127
109.85283446712018	109.94571428571429	66	127
109.85283446712018	109.94571428571429	54	127
109.85283446712018	109.94571428571429	42	127
109.94571428571429	110.03859410430839	64	127
109.94571428571429	110.03859410430839	52	127
109.94571428571429	110.03859410430839	40	127
110.05020408163266	110.14308390022676	54	127
110.05020408163266	110.14308390022676	66	127
110.05020408163266	110.14308390022676	42	127
110.14308390022676	110.23596371882086	56	127
110.14308390022676	110.23596371882086	88	127
110.14308390022676	110.23596371882086	68	127
110.14308390022676	110.23596371882086	44	127
110.23596371882086	110.36367346938775	57	127
110.23596371882086	110.36367346938775	86	127
110.23596371882086	110.36367346938775	69	127
110.23596371882086	110.36367346938775	45	127
110.41011337868481	110.51460317460318	42	127
110.41011337868481	110.51460317460318	66	127
110.41011337868481	110.51460317460318	54	127
110.41011337868481	110.60748299319728	71	127
110.51460317460318	110.60748299319728	52	127
110.51460317460318	110.60748299319728	64	127
110.51460317460318	110.60748299319728	40	127
110.60748299319728	110.64231292517007	42	127
110.60748299319728	110.64231292517007	85	127
110.60748299319728	110.64231292517007	66	127
110.60748299319728	110.64231292517007	54	127
110.64231292517007	110.73519274376417	68	127
110.64231292517007	110.73519274376417	56	127
110.64231292517007	110.73519274376417	44	127
110.68875283446712	110.74680272108843	85	127
110.74680272108843	110.89773242630386	57	127
110.74680272108843	110.89773242630386	86	127
110.74680272108843	110.89773242630386	69	127
110.74680272108843	110.89773242630386	45	127
110.95578231292517	111.02544217687075	42	127
110.95578231292517	111.02544217687075	66	127
110.95578231292517	111.02544217687075	54	127
110.95578231292517	111.0718820861678	71	127
111.02544217687075	111.11832199546485	52	127
111.02544217687075	111.11832199546485	64	127
111.02544217687075	111.11832199546485	40	127
111.11832199546485	111.17637188208617	88	127
111.12993197278911	111.21120181405895	56	127
111.12993197278911	111.21120181405895	68	127
111.12993197278911	111.21120181405895	44	127
111.21120181405895	111.32730158730159	57	127
111.21120181405895	111.32730158730159	85	127
111.21120181405895	111.32730158730159	69	127
111.21120181405895	111.32730158730159	45	127
111.35052154195012	111.45501133786848	42	127
111.35052154195012	111.45501133786848	66	127
111.35052154195012	111.45501133786848	54	127
111.35052154195012	111.50145124716553	69	127
111.45501133786848	111.54789115646258	40	127
111.45501133786848	111.54789115646258	64	127
111.45501133786848	111.54789115646258	52	127
111.55950113378685	111.65238095238095	42	127
111.55950113378685	111.65238095238095	66	127
111.55950113378685	111.65238095238095	54	127
111.55950113378685	111.698820861678	86	127
111.65238095238095	111.74526077097505	56	127
111.65238095238095	111.74526077097505	68	127
111.65238095238095	111.74526077097505	44	127
111.74526077097505	111.88458049886621	57	127
111.74526077097505	111.88458049886621	85	127
111.74526077097505	111.88458049886621	69	127
111.74526077097505	111.88458049886621	45	127
111.88458049886621	111.98907029478458	42	127
111.88458049886621	111.98907029478458	66	127
111.88458049886621	111.98907029478458	54	127
111.88458049886621	112.03551020408163	88	127
111.98907029478458	112.08195011337868	52	127
111.98907029478458	112.08195011337868	64	127
111.98907029478458	112.08195011337868	40	127
112.08195011337868	112.12839002267573	42	127
112.08195011337868	112.12839002267573	66	127
112.08195011337868	112.12839002267573	54	127
112.08195011337868	112.15160997732427	93	127
112.12839002267573	112.16321995464853	56	127
112.12839002267573	112.16321995464853	68	127
112.12839002267573	112.16321995464853	44	127
112.1748299319728	112.30253968253969	57	127
112.1748299319728	112.30253968253969	86	127
112.1748299319728	112.30253968253969	69	127
112.1748299319728	112.30253968253969	45	127
112.360589569161	112.4534693877551	54	127
112.360589569161	112.4534693877551	66	127
112.360589569161	112.4534693877551	42	127
112.360589569161	112.55795918367347	71	127
112.4534693877551	112.55795918367347	40	127
112.4534693877551	112.55795918367347	64	127
112.4534693877551	112.55795918367347	52	127
112.55795918367347	112.62761904761905	42	127
112.55795918367347	112.62761904761905	85	127
112.55795918367347	112.62761904761905	66	127
112.55795918367347	112.62761904761905	54	127
112.62761904761905	112.7088888888889	44	127
112.62761904761905	112.7088888888889	68	127
112.62761904761905	112.7088888888889	56	127
112.66244897959184	112.7088888888889	85	127
112.7088888888889	112.83659863945579	57	127
112.7088888888889	112.83659863945579	86	127
112.7088888888889	112.83659863945579	69	127
112.7088888888889	112.83659863945579	45	127
112.87142857142857	112.96430839002268	42	127
112.87142857142857	112.96430839002268	66	127
112.87142857142857	112.96430839002268	54	127
112.87142857142857	112.99913832199546	71	127
112.96430839002268	113.02235827664398	52	127
112.96430839002268	113.02235827664398	64	127
112.96430839002268	113.02235827664398	40	127
113.02235827664398	113.0804081632653	42	127
113.02235827664398	113.0804081632653	66	127
113.02235827664398	113.0804081632653	54	127
113.02235827664398	113.12684807256235	88	127
113.0804081632653	113.17328798185942	68	127
113.0804081632653	113.17328798185942	44	127
113.0804081632653	113.17328798185942	56	127
113.17328798185942	113.26616780045352	69	127
113.17328798185942	113.26616780045352	85	127
113.17328798185942	113.26616780045352	57	127
113.17328798185942	113.26616780045352	45	127
113.26616780045352	113.32421768707484	42	127
113.26616780045352	113.32421768707484	66	127
113.26616780045352	113.32421768707484	54	127
113.26616780045352	113.35904761904762	69	127
113.32421768707484	113.40548752834466	52	127
113.32421768707484	113.40548752834466	64	127
113.32421768707484	113.40548752834466	40	127
113.40548752834466	113.50997732426303	54	127
113.40548752834466	113.50997732426303	88	127
113.40548752834466	113.50997732426303	66	127
113.40548752834466	113.50997732426303	42	127
113.50997732426303	113.60285714285715	44	127
113.50997732426303	113.60285714285715	68	127
113.50997732426303	113.60285714285715	56	127
113.5564172335601	113.6144671201814	88	127
113.6144671201814	113.7421768707483	45	127
113.6144671201814	113.7421768707483	69	127
113.6144671201814	113.7421768707483	57	127
113.6144671201814	113.77700680272109	93	127
113.77700680272109	114.06725623582767	69	127
113.77700680272109	113.86988662131519	66	127
113.77700680272109	113.86988662131519	54	127
113.77700680272109	113.86988662131519	42	127
113.86988662131519	113.97437641723356	64	127
113.86988662131519	113.97437641723356	52	127
113.86988662131519	113.97437641723356	40	127
113.97437641723356	114.06725623582767	42	127
113.97437641723356	114.06725623582767	66	127
113.97437641723356	114.06725623582767	54	127
114.07886621315193	114.17174603174603	44	127
114.07886621315193	114.17174603174603	85	127
114.07886621315193	114.17174603174603	68	127
114.07886621315193	114.17174603174603	56	127
114.17174603174603	114.31106575963719	57	127
114.17174603174603	114.31106575963719	86	127
114.17174603174603	114.31106575963719	69	127
114.17174603174603	114.31106575963719	45	127
114.35750566893424	114.43877551020408	42	127
114.35750566893424	114.43877551020408	66	127
114.35750566893424	114.43877551020408	54	127
114.35750566893424	114.4619954648526	71	127
114.43877551020408	114.50843537414966	52	127
114.43877551020408	114.50843537414966	64	127
114.43877551020408	114.50843537414966	40	127
114.50843537414966	114.57809523809524	42	127
114.50843537414966	114.57809523809524	66	127
114.50843537414966	114.57809523809524	54	127
114.50843537414966	114.6245351473923	88	127
114.57809523809524	114.6825850340136	56	127
114.57809523809524	114.6825850340136	68	127
114.57809523809524	114.6825850340136	44	127
114.6825850340136	114.82190476190476	57	127
114.6825850340136	114.82190476190476	85	127
114.6825850340136	114.82190476190476	69	127
114.6825850340136	114.82190476190476	45	127
114.83351473922903	114.91478458049886	42	127
114.83351473922903	114.91478458049886	66	127
114.83351473922903	114.91478458049886	54	127
114.83351473922903	114.96122448979592	69	127
114.91478458049886	115.00766439909297	40	127
114.91478458049886	115.00766439909297	64	127
114.91478458049886	115.00766439909297	52	127
115.00766439909297	115.10054421768707	42	127
115.00766439909297	115.10054421768707	66	127
115.00766439909297	115.10054421768707	54	127
115.00766439909297	115.13537414965987	88	127
115.10054421768707	115.17020408163265	56	127
115.10054421768707	115.17020408163265	68	127
115.10054421768707	115.17020408163265	44	127
115.17020408163265	115.30952380952381	57	127
115.17020408163265	115.30952380952381	85	127
115.17020408163265	115.30952380952381	69	127
115.17020408163265	115.30952380952381	45	127
115.32113378684807	115.40240362811791	42	127
115.32113378684807	115.40240362811791	66	127
115.32113378684807	115.40240362811791	54	127
115.32113378684807	115.46045351473923	69	127
115.40240362811791	115.50689342403628	52	127
115.40240362811791	115.50689342403628	64	127
115.40240362811791	115.50689342403628	40	127
115.50689342403628	115.61138321995465	54	127
115.50689342403628	115.61138321995465	88	127
115.50689342403628	115.61138321995465	66	127
115.50689342403628	115.61138321995465	42	127
115.61138321995465	115.68104308390022	44	127
115.61138321995465	115.68104308390022	68	127
115.61138321995465	115.68104308390022	56	127
115.64621315192744	115.68104308390022	88	127
115.68104308390022	115.83197278911565	45	127
115.68104308390022	115.83197278911565	69	127
115.68104308390022	115.83197278911565	57	127
115.68104308390022	115.85519274376418	93	127
115.85519274376418	115.94807256235828	66	127
115.85519274376418	115.94807256235828	54	127
115.85519274376418	115.94807256235828	42	127
115.85519274376418	116.13383219954649	69	127
115.95968253968255	116.02934240362812	52	127
115.95968253968255	116.02934240362812	40	127
115.95968253968255	116.02934240362812	64	127
116.02934240362812	116.13383219954649	42	127
116.02934240362812	116.13383219954649	66	127
116.02934240362812	116.13383219954649	54	127
116.13383219954649	116.22671201814059	56	127
116.13383219954649	116.22671201814059	85	127
116.13383219954649	116.22671201814059	68	127
116.13383219954649	116.22671201814059	44	127
116.22671201814059	116.35442176870748	45	127
116.22671201814059	116.35442176870748	86	127
116.22671201814059	116.35442176870748	69	127
116.22671201814059	116.35442176870748	57	127
116.38925170068028	116.44730158730158	71	127
116.38925170068028	116.40086167800453	66	127
116.38925170068028	116.40086167800453	54	127
116.38925170068028	116.40086167800453	42	127
116.40086167800453	116.49374149659864	64	127
116.40086167800453	116.49374149659864	52	127
116.40086167800453	116.49374149659864	40	127
116.5053514739229	116.59823129251701	42	127
116.5053514739229	116.59823129251701	66	127
116.5053514739229	116.64467120181406	88	127
116.5053514739229	116.59823129251701	54	127
116.59823129251701	116.69111111111111	44	127
116.59823129251701	116.69111111111111	56	127
116.59823129251701	116.69111111111111	68	127
116.69111111111111	116.79560090702948	85	127
116.69111111111111	116.79560090702948	69	127
116.69111111111111	116.79560090702948	57	127
116.69111111111111	116.79560090702948	45	127
116.80721088435374	116.90009070294785	42	127
116.80721088435374	116.90009070294785	66	127
116.80721088435374	116.90009070294785	54	127
116.80721088435374	116.9465306122449	69	127
116.90009070294785	117.00458049886622	52	127
116.90009070294785	117.00458049886622	64	127
116.90009070294785	117.00458049886622	40	127
117.00458049886622	117.10907029478459	42	127
117.00458049886622	117.10907029478459	66	127
117.00458049886622	117.10907029478459	54	127
117.00458049886622	117.15551020408164	88	127
117.10907029478459	117.17873015873016	56	127
117.10907029478459	117.17873015873016	68	127
117.10907029478459	117.17873015873016	44	127
117.17873015873016	117.28321995464853	57	127
117.17873015873016	117.28321995464853	85	127
117.17873015873016	117.28321995464853	69	127
117.17873015873016	117.28321995464853	45	127
117.34126984126983	117.43414965986395	42	127
117.34126984126983	117.43414965986395	66	127
117.34126984126983	117.43414965986395	54	127
117.34126984126983	117.49219954648527	69	127
117.4457596371882	117.52702947845805	52	127
117.4457596371882	117.52702947845805	64	127
117.4457596371882	117.52702947845805	40	127
117.52702947845805	117.5734693877551	54	127
117.52702947845805	117.5734693877551	88	127
117.52702947845805	117.5734693877551	66	127
117.52702947845805	117.5734693877551	42	127
117.5734693877551	117.67795918367347	68	127
117.5734693877551	117.67795918367347	56	127
117.5734693877551	117.67795918367347	44	127
117.61990929705216	117.67795918367347	88	127
117.67795918367347	117.87532879818595	93	127
117.67795918367347	117.82888888888888	69	127
117.67795918367347	117.82888888888888	57	127
117.67795918367347	117.82888888888888	45	127
117.8869387755102	118.24684807256236	69	127
117.8869387755102	117.9798185941043	66	127
117.8869387755102	117.9798185941043	54	127
117.8869387755102	117.9798185941043	42	127
117.99142857142857	118.09591836734694	64	127
117.99142857142857	118.09591836734694	52	127
117.99142857142857	118.09591836734694	40	127
118.09591836734694	118.20040816326531	66	127
118.09591836734694	118.20040816326531	54	127
118.09591836734694	118.20040816326531	42	127
118.20040816326531	118.24684807256236	56	127
118.20040816326531	118.24684807256236	68	127
118.20040816326531	118.24684807256236	44	127
118.24684807256236	118.28167800453515	57	127
118.24684807256236	118.28167800453515	73	127
118.24684807256236	118.28167800453515	69	127
118.24684807256236	118.28167800453515	45	127
118.33972789115646	118.44421768707483	42	127
118.33972789115646	118.44421768707483	66	127
118.33972789115646	118.44421768707483	54	127
118.33972789115646	118.49065759637188	57	127
118.44421768707483	118.5487074829932	64	127
118.44421768707483	118.5487074829932	40	127
118.44421768707483	118.5487074829932	52	127
118.5487074829932	118.64158730158731	76	127
118.5487074829932	118.64158730158731	66	127
118.5487074829932	118.64158730158731	54	127
118.5487074829932	118.64158730158731	42	127
118.64158730158731	118.71124716553288	68	127
118.64158730158731	118.71124716553288	56	127
118.64158730158731	118.71124716553288	44	127
118.66480725623583	118.71124716553288	76	127
118.71124716553288	118.75768707482993	81	127
118.71124716553288	118.79251700680273	69	127
118.71124716553288	118.79251700680273	57	127
118.71124716553288	118.79251700680273	45	127
118.75768707482993	119.23369614512471	69	127
118.85056689342403	118.9550566893424	66	127
118.85056689342403	119.23369614512471	57	127
118.85056689342403	118.9550566893424	54	127
118.85056689342403	118.9550566893424	42	127
118.9550566893424	119.03632653061224	52	127
118.9550566893424	119.03632653061224	40	127
118.9550566893424	119.03632653061224	64	127
119.03632653061224	119.14081632653061	66	127
119.03632653061224	119.14081632653061	54	127
119.03632653061224	119.14081632653061	42	127
119.14081632653061	119.23369614512471	56	127
119.14081632653061	119.23369614512471	68	127
119.14081632653061	119.23369614512471	44	127
119.23369614512471	119.32657596371882	57	127
119.23369614512471	119.32657596371882	85	127
119.23369614512471	119.32657596371882	69	127
119.23369614512471	119.32657596371882	45	127
119.38462585034014	119.45428571428572	42	127
119.38462585034014	119.45428571428572	66	127
119.38462585034014	119.45428571428572	54	127
119.38462585034014	119.50072562358277	69	127
119.45428571428572	119.55877551020409	40	127
119.45428571428572	119.55877551020409	64	127
119.45428571428572	119.55877551020409	52	127
119.55877551020409	119.61682539682539	42	127
119.55877551020409	119.61682539682539	88	127
119.55877551020409	119.61682539682539	66	127
119.55877551020409	119.61682539682539	54	127
119.61682539682539	119.69809523809523	44	127
119.61682539682539	119.69809523809523	68	127
119.61682539682539	119.69809523809523	56	127
119.67487528344671	119.69809523809523	88	127
119.69809523809523	119.8025850340136	45	127
119.69809523809523	119.8025850340136	69	127
119.69809523809523	119.8025850340136	57	127
119.69809523809523	119.8025850340136	93	127
119.8025850340136	120.05800453514739	69	127
119.8025850340136	119.86063492063492	66	127
119.8025850340136	119.86063492063492	54	127
119.8025850340136	119.86063492063492	42	127
119.86063492063492	119.95351473922902	64	127
119.86063492063492	119.95351473922902	52	127
119.86063492063492	119.95351473922902	40	127
119.95351473922902	120.05800453514739	54	127
119.95351473922902	120.05800453514739	66	127
119.95351473922902	120.05800453514739	42	127
120.05800453514739	120.16249433106576	44	127
120.05800453514739	120.16249433106576	56	127
120.05800453514739	120.16249433106576	68	127
120.11605442176871	120.17410430839003	64	127
120.17410430839003	120.2437641723356	69	127
120.17410430839003	120.2437641723356	57	127
120.17410430839003	120.2437641723356	45	127
120.17410430839003	120.26698412698413	69	127
120.26698412698413	120.45274376417234	57	127
120.26698412698413	120.3366439909297	66	127
120.26698412698413	120.3366439909297	54	127
120.26698412698413	120.3366439909297	42	127
120.3366439909297	120.40630385487529	64	127
120.3366439909297	120.40630385487529	52	127
120.3366439909297	120.40630385487529	40	127
120.40630385487529	120.45274376417234	54	127
120.40630385487529	120.45274376417234	66	127
120.40630385487529	120.45274376417234	42	127
120.45274376417234	120.54562358276644	56	127
120.45274376417234	120.54562358276644	68	127
120.45274376417234	120.54562358276644	44	127
120.49918367346939	120.54562358276644	64	127
120.54562358276644	120.73138321995465	69	127
120.54562358276644	120.70816326530613	69	127
120.54562358276644	120.70816326530613	57	127
120.54562358276644	120.70816326530613	45	127
120.73138321995465	121.33510204081632	57	127
120.73138321995465	120.82426303854875	66	127
120.73138321995465	120.82426303854875	54	127
120.73138321995465	120.82426303854875	42	127
120.83587301587302	120.94036281179139	64	127
120.83587301587302	120.94036281179139	52	127
120.83587301587302	120.94036281179139	40	127
120.94036281179139	121.01002267573696	66	127
120.94036281179139	121.01002267573696	54	127
120.94036281179139	121.01002267573696	42	127
121.01002267573696	121.11451247165533	56	127
121.01002267573696	121.11451247165533	68	127
121.01002267573696	121.11451247165533	44	127
121.11451247165533	121.277052154195	69	127
121.11451247165533	121.277052154195	57	127
121.11451247165533	121.277052154195	45	127
121.33510204081632	121.43959183673469	42	127
121.33510204081632	121.43959183673469	66	127
121.33510204081632	121.43959183673469	54	127
121.43959183673469	121.54408163265306	52	127
121.43959183673469	121.54408163265306	64	127
121.43959183673469	121.54408163265306	40	127
121.54408163265306	121.59052154195011	66	127
121.54408163265306	121.59052154195011	54	127
121.54408163265306	121.59052154195011	42	127
121.59052154195011	121.68340136054422	44	127
121.59052154195011	121.68340136054422	68	127
121.59052154195011	121.68340136054422	56	127
121.68340136054422	121.81111111111112	57	127
121.68340136054422	121.81111111111112	69	127
121.68340136054422	121.81111111111112	45	127
121.85755102040817	121.95043083900227	66	127
121.85755102040817	121.95043083900227	42	127
121.85755102040817	121.95043083900227	54	127
121.95043083900227	122.0665306122449	52	127
121.95043083900227	122.0665306122449	64	127
121.95043083900227	122.0665306122449	40	127
122.0665306122449	122.14780045351473	42	127
122.0665306122449	122.14780045351473	66	127
122.0665306122449	122.14780045351473	54	127
122.14780045351473	122.1942403628118	55	127
122.14780045351473	122.1942403628118	67	127
122.14780045351473	122.1942403628118	43	127
122.1942403628118	122.32195011337869	57	127
122.1942403628118	122.32195011337869	69	127
122.1942403628118	122.32195011337869	45	127
122.38	122.47287981859411	54	127
122.38	122.47287981859411	66	127
122.38	122.47287981859411	42	127
122.48448979591836	122.56575963718821	52	127
122.48448979591836	122.56575963718821	64	127
122.48448979591836	122.56575963718821	40	127
122.57736961451248	122.64702947845805	53	127
122.57736961451248	122.64702947845805	65	127
122.57736961451248	122.64702947845805	41	127
122.6586394557823	122.71668934240363	55	127
122.6586394557823	122.71668934240363	67	127
122.6586394557823	122.71668934240363	43	127
122.7282993197279	122.87922902494331	69	127
122.7282993197279	122.87922902494331	57	127
122.7282993197279	122.87922902494331	45	127
122.92566893424036	123.04176870748299	41	127
122.92566893424036	123.04176870748299	65	127
122.92566893424036	123.04176870748299	53	127
123.04176870748299	123.15786848072563	52	127
123.04176870748299	123.15786848072563	64	127
123.04176870748299	123.15786848072563	40	127
123.15786848072563	123.19269841269842	53	127
123.15786848072563	123.19269841269842	65	127
123.15786848072563	123.19269841269842	41	127
123.19269841269842	123.49455782312926	55	127
123.19269841269842	123.49455782312926	67	127
123.19269841269842	123.49455782312926	43	127
123.49455782312926	123.95895691609978	69	127
123.49455782312926	123.95895691609978	45	127
123.49455782312926	123.95895691609978	81	127
123.49455782312926	123.95895691609978	57	127
123.95895691609978	124.52784580498866	67	127
123.95895691609978	124.52784580498866	43	127
123.95895691609978	124.52784580498866	79	127
123.95895691609978	124.52784580498866	55	127
124.52784580498866	125.08512471655328	53	127
124.52784580498866	125.08512471655328	41	127
124.52784580498866	125.08512471655328	65	127
124.52784580498866	125.08512471655328	77	127
125.08512471655328	125.6772335600907	55	127
125.08512471655328	125.6772335600907	79	127
125.08512471655328	125.6772335600907	67	127
125.08512471655328	125.6772335600907	43	127
125.6772335600907	126.2112925170068	55	127
125.6772335600907	126.2112925170068	55	127
125.6772335600907	126.2112925170068	79	127
125.6772335600907	126.2112925170068	67	127
126.2112925170068	126.83823129251701	79	127
126.2112925170068	126.83823129251701	67	127
126.2112925170068	126.83823129251701	91	127
126.2112925170068	126.83823129251701	67	127
126.83823129251701	127.26780045351474	67	127
126.83823129251701	127.26780045351474	55	127
126.83823129251701	127.26780045351474	79	127
126.83823129251701	127.26780045351474	55	127
127.27941043083901	127.60448979591837	55	127
127.27941043083901	127.77863945578231	67	127
127.27941043083901	127.39551020408163	55	127
127.27941043083901	127.60448979591837	43	127
127.4071201814059	127.97600907029478	60	127
127.60448979591837	127.73219954648526	41	127
127.60448979591837	128.17337868480726	53	127
127.77863945578231	128.37074829931973	69	127
127.97600907029478	128.5681179138322	60	127
127.97600907029478	128.1269387755102	45	127
128.17337868480726	128.32430839002268	46	127
128.17337868480726	128.76548752834466	52	127
128.37074829931973	128.9628344671202	67	127
128.5681179138322	129.14861678004536	60	127
128.5681179138322	128.71904761904761	48	127
128.76548752834466	128.91641723356008	50	127
128.76548752834466	129.27632653061224	53	127
128.9628344671202	129.4504761904762	65	127
129.14861678004536	129.64784580498866	60	127
129.14861678004536	129.21825396825398	48	127
129.27632653061224	129.40403628117915	46	127
129.27632653061224	129.8568253968254	52	127
129.4504761904762	130.06580498866214	67	127
129.64784580498866	130.23993197278912	60	127
129.64784580498866	129.81038548752835	43	127
129.86843537414967	130.43732426303856	53	127
129.86843537414967	130.00775510204082	41	127
130.06580498866214	130.62308390022676	69	127
130.23993197278912	130.7507709750567	60	127
130.23993197278912	130.39086167800454	45	127
130.43732426303856	130.5766439909297	46	127
130.43732426303856	130.89011337868482	52	127
130.62308390022676	131.04104308390023	67	127
130.7624036281179	130.89011337868482	60	127
130.7624036281179	130.8320634920635	48	127
130.89011337868482	130.99460317460318	50	127
130.89011337868482	130.99460317460318	57	127
130.89011337868482	130.99460317460318	53	127
131.04104308390023	131.18036281179138	57	127
131.04104308390023	131.18036281179138	38	127
131.04104308390023	131.18036281179138	65	127
131.04104308390023	131.18036281179138	53	127
131.22680272108843	131.37773242630385	52	127
131.22680272108843	131.37773242630385	64	127
131.22680272108843	131.37773242630385	67	127
131.22680272108843	131.37773242630385	36	127
131.43578231292517	131.5518820861678	65	127
131.43578231292517	131.5518820861678	57	127
131.43578231292517	131.5518820861678	53	127
131.43578231292517	131.5518820861678	41	127
131.60993197278913	131.76086167800455	69	127
131.60993197278913	131.76086167800455	77	127
131.60993197278913	131.76086167800455	62	127
131.8073015873016	131.91179138321996	60	127
131.8073015873016	131.91179138321996	76	127
131.8073015873016	132.28328798185942	84	127
131.8073015873016	131.91179138321996	79	127
131.94662131519274	132.06272108843538	69	127
131.94662131519274	132.06272108843538	77	127
131.94662131519274	132.06272108843538	65	127
132.09755102040816	132.63160997732427	81	127
132.09755102040816	132.22526077097507	53	127
132.28328798185942	132.75931972789115	84	127
132.28328798185942	132.42263038548754	57	127
132.28328798185942	132.63160997732427	65	127
132.43421768707483	132.58517006802722	58	127
132.63160997732427	133.15403628117915	79	127
132.63160997732427	132.75931972789115	64	127
132.75931972789115	132.89861678004536	60	127
132.75931972789115	132.9450566893424	70	127
132.75931972789115	133.35142857142858	84	127
132.95668934240362	133.15403628117915	69	127
132.95668934240362	133.0960090702948	62	127
133.15403628117915	133.66487528344672	77	127
133.15403628117915	133.35142857142858	57	127
133.35142857142858	133.42108843537414	60	127
133.35142857142858	133.4675283446712	69	127
133.35142857142858	133.83904761904762	84	127
133.4675283446712	133.66487528344672	62	127
133.4675283446712	133.6184580498866	58	127
133.67650793650793	134.19895691609977	79	127
133.67650793650793	133.83904761904762	70	127
133.83904761904762	133.97836734693877	55	127
133.83904761904762	134.0015873015873	64	127
133.83904761904762	134.39632653061224	84	127
134.0015873015873	134.19895691609977	69	127
134.0015873015873	134.15251700680273	53	127
134.19895691609977	134.80267573696145	81	127
134.19895691609977	134.39632653061224	60	127
134.39632653061224	134.80267573696145	65	127
134.39632653061224	134.54725623582766	57	127
134.39632653061224	134.86072562358277	84	127
134.60530612244898	134.74462585034013	58	127
134.80267573696145	135.18580498866214	79	127
134.80267573696145	134.86072562358277	52	127
134.86072562358277	135.18580498866214	84	127
134.86072562358277	134.91877551020409	60	127
134.86072562358277	134.96521541950113	64	127
134.96521541950113	135.12775510204082	62	127
134.96521541950113	135.18580498866214	57	127
135.18580498866214	135.35995464852607	69	127
135.18580498866214	135.3251247165533	86	127
135.18580498866214	135.3251247165533	77	127
135.18580498866214	135.3251247165533	50	127
135.35995464852607	135.49927437641725	79	127
135.35995464852607	135.49927437641725	88	127
135.35995464852607	135.53410430839003	60	127
135.35995464852607	135.49927437641725	48	127
135.53410430839003	135.71986394557823	53	127
135.53410430839003	135.67342403628118	89	127
135.53410430839003	135.67342403628118	77	127
135.53410430839003	135.67342403628118	53	127
135.71986394557823	136.11458049886622	63	127
135.71986394557823	136.11458049886622	51	127
135.71986394557823	136.11458049886622	39	127
136.3003628117914	136.68349206349205	51	127
136.3003628117914	136.68349206349205	39	127
136.68349206349205	137.0201814058957	39	127
136.68349206349205	137.0201814058957	51	127
137.0201814058957	137.21755102040817	51	127
137.0201814058957	137.21755102040817	39	127
137.43814058956917	137.8328798185941	39	127
137.43814058956917	137.8328798185941	63	127
137.43814058956917	137.8328798185941	51	127
137.8328798185941	138.19278911564626	39	127
137.8328798185941	138.19278911564626	63	127
137.8328798185941	138.19278911564626	51	127
138.20439909297053	138.401768707483	39	127
138.20439909297053	138.401768707483	63	127
138.20439909297053	138.401768707483	51	127
138.62233560090704	138.8081179138322	39	127
138.62233560090704	138.8081179138322	63	127
138.62233560090704	138.8081179138322	51	127
138.84294784580499	139.2492970521542	39	127
138.84294784580499	139.2492970521542	63	127
138.84294784580499	139.2492970521542	51	127
139.48149659863947	139.92267573696145	52	127
139.48149659863947	139.92267573696145	40	127
139.48149659863947	139.92267573696145	64	127
140.15485260770976	140.47995464852607	52	127
140.15485260770976	140.874693877551	36	127
140.15485260770976	140.47995464852607	64	127
140.47995464852607	140.65410430839003	53	127
140.65410430839003	141.07204081632653	48	127
140.65410430839003	140.874693877551	48	127
140.65410430839003	141.07204081632653	69	127
140.874693877551	140.92111111111112	57	127
140.874693877551	141.26943310657597	65	127
140.874693877551	141.26943310657597	36	127
140.92111111111112	141.07204081632653	59	127
141.08367346938775	141.64095238095237	48	127
141.08367346938775	141.26943310657597	48	127
141.08367346938775	141.64095238095237	67	127
141.26943310657597	141.45519274376417	64	127
141.26943310657597	141.45519274376417	60	127
141.26943310657597	141.8267120181406	36	127
141.45519274376417	141.8267120181406	57	127
141.45519274376417	141.64095238095237	62	127
141.64095238095237	142.1401814058957	48	127
141.64095238095237	141.8267120181406	48	127
141.64095238095237	142.1401814058957	65	127
141.8267120181406	142.00086167800453	56	127
141.8267120181406	142.00086167800453	60	127
141.8267120181406	142.29111111111112	36	127
142.00086167800453	142.1401814058957	59	127
142.00086167800453	142.29111111111112	62	127
142.1401814058957	142.29111111111112	48	127
142.1401814058957	142.62780045351474	67	127
142.29111111111112	142.44204081632654	58	127
142.29111111111112	142.44204081632654	49	127
142.29111111111112	142.62780045351474	64	127
142.29111111111112	142.8251700680272	36	127
142.44204081632654	142.62780045351474	48	127
142.44204081632654	142.62780045351474	57	127
142.639410430839	143.17344671201815	69	127
142.639410430839	142.8251700680272	57	127
142.639410430839	142.8251700680272	48	127
142.639410430839	143.17344671201815	48	127
142.8251700680272	143.28956916099773	36	127
142.8251700680272	143.01092970521543	57	127
142.8251700680272	143.17344671201815	65	127
143.01092970521543	143.17344671201815	59	127
143.17344671201815	143.66108843537415	48	127
143.17344671201815	143.28956916099773	65	127
143.17344671201815	143.66108843537415	67	127
143.17344671201815	143.28956916099773	48	127
143.301179138322	143.85845804988662	36	127
143.301179138322	143.47530612244898	64	127
143.301179138322	143.47530612244898	60	127
143.47530612244898	143.66108843537415	59	127
143.47530612244898	143.66108843537415	56	127
143.47530612244898	143.85845804988662	56	127
143.66108843537415	143.85845804988662	48	127
143.66108843537415	143.81201814058957	65	127
143.66108843537415	144.1951247165533	48	127
143.66108843537415	143.85845804988662	62	127
143.85845804988662	144.00938775510204	64	127
143.85845804988662	143.97455782312926	67	127
143.85845804988662	144.00938775510204	55	127
143.85845804988662	144.00938775510204	58	127
143.85845804988662	144.1951247165533	36	127
144.00938775510204	144.1951247165533	65	127
144.00938775510204	144.1951247165533	57	127
144.00938775510204	144.1951247165533	57	127
144.2067573696145	144.82208616780045	48	127
144.2067573696145	144.3460544217687	53	127
144.2067573696145	144.3460544217687	41	127
144.39251700680273	144.82208616780045	43	127
144.39251700680273	144.82208616780045	55	127
144.62471655328798	144.7756462585034	77	127
144.62471655328798	144.7756462585034	65	127
144.82208616780045	145.3445351473923	57	127
144.82208616780045	145.3445351473923	45	127
145.04267573696146	145.14716553287982	81	127
145.04267573696146	145.14716553287982	69	127
145.20521541950114	145.33292517006802	70	127
145.20521541950114	145.33292517006802	82	127
145.3445351473923	145.94825396825397	55	127
145.3445351473923	145.94825396825397	43	127
145.54190476190476	145.70444444444445	84	127
145.54190476190476	145.70444444444445	72	127
145.7508843537415	145.89020408163265	86	127
145.7508843537415	145.89020408163265	74	127
145.94825396825397	146.389410430839	53	127
145.94825396825397	146.389410430839	41	127
146.12240362811792	146.21528344671202	84	127
146.12240362811792	146.21528344671202	72	127
146.26172335600907	146.389410430839	82	127
146.26172335600907	146.389410430839	70	127
146.389410430839	146.95832199546484	43	127
146.389410430839	146.95832199546484	55	127
146.57519274376418	146.71451247165533	79	127
146.57519274376418	146.71451247165533	67	127
146.77256235827664	146.9118820861678	77	127
146.77256235827664	146.9118820861678	65	127
146.95832199546484	147.52721088435374	57	127
146.95832199546484	147.52721088435374	45	127
147.14408163265307	147.28340136054422	81	127
147.14408163265307	147.28340136054422	69	127
147.34145124716554	147.46916099773242	82	127
147.34145124716554	147.46916099773242	70	127
147.52721088435374	148.06126984126985	43	127
147.52721088435374	148.06126984126985	55	127
147.7245804988662	147.84068027210884	84	127
147.7245804988662	147.84068027210884	72	127
147.8871201814059	148.0148299319728	86	127
147.8871201814059	148.0148299319728	74	127
148.06126984126985	148.17734693877551	53	127
148.06126984126985	148.17734693877551	41	127
148.23541950113378	148.36312925170068	72	127
148.23541950113378	148.36312925170068	43	127
148.23541950113378	148.36312925170068	84	127
148.23541950113378	148.36312925170068	64	127
148.23541950113378	148.36312925170068	55	127
148.38632653061225	148.52566893424037	72	127
148.38632653061225	148.52566893424037	41	127
148.38632653061225	148.52566893424037	84	127
148.38632653061225	148.52566893424037	69	127
148.38632653061225	148.52566893424037	53	127
148.57210884353742	148.68820861678006	72	127
148.57210884353742	148.68820861678006	84	127
148.57210884353742	148.68820861678006	57	127
148.7346485260771	148.88557823129253	87	127
148.7346485260771	148.88557823129253	69	127
148.7346485260771	148.88557823129253	53	127
148.94362811791385	149.082947845805	65	127
148.94362811791385	149.082947845805	58	127
148.94362811791385	149.082947845805	86	127
149.1409977324263	149.2687074829932	41	127
149.31514739229024	149.44285714285715	43	127
149.44285714285715	149.54734693877552	41	127
149.59378684807257	149.744716553288	65	127
149.59378684807257	149.744716553288	58	127
149.59378684807257	149.744716553288	88	127
149.59378684807257	149.744716553288	74	127
149.8027664399093	149.93047619047618	65	127
149.8027664399093	149.93047619047618	58	127
149.8027664399093	149.93047619047618	89	127
149.8027664399093	149.93047619047618	74	127
149.9885260770975	150.0581859410431	84	127
149.9885260770975	150.0581859410431	65	127
149.9885260770975	150.0581859410431	69	127
150.10462585034014	150.19750566893424	77	127
150.10462585034014	150.19750566893424	41	127
150.10462585034014	150.19750566893424	65	127
150.22072562358278	150.3716553287982	39	127
150.22072562358278	150.3716553287982	79	127
150.22072562358278	150.3716553287982	67	127
150.42968253968255	150.56902494331067	66	127
150.42968253968255	150.56902494331067	78	127
150.42968253968255	150.56902494331067	38	127
150.62707482993198	150.7780045351474	82	127
150.62707482993198	150.7780045351474	86	127
150.62707482993198	150.7780045351474	67	127
150.62707482993198	150.7780045351474	40	127
150.7895918367347	150.92893424036282	69	127
150.7895918367347	150.92893424036282	42	127
150.7895918367347	150.92893424036282	84	127
150.7895918367347	150.92893424036282	81	127
150.97537414965987	151.0566439909297	81	127
150.97537414965987	151.0566439909297	43	127
150.97537414965987	151.0566439909297	84	127
150.97537414965987	151.0566439909297	62	127
151.06825396825397	151.20757369614512	79	127
151.06825396825397	151.20757369614512	43	127
151.06825396825397	151.20757369614512	82	127
151.06825396825397	151.20757369614512	64	127
151.26562358276644	151.38172335600908	77	127
151.26562358276644	151.38172335600908	45	127
151.26562358276644	151.38172335600908	81	127
151.26562358276644	151.38172335600908	60	127
151.4397732426304	151.6255328798186	81	127
151.4397732426304	151.6255328798186	62	127
151.4397732426304	151.57909297052154	46	127
151.4397732426304	151.6255328798186	77	127
151.6255328798186	151.7532426303855	74	127
151.6255328798186	151.7532426303855	46	127
151.6255328798186	151.7532426303855	82	127
151.6255328798186	151.7532426303855	55	127
151.78807256235828	151.9390022675737	48	127
151.78807256235828	151.9390022675737	79	127
151.78807256235828	151.9390022675737	70	127
151.78807256235828	151.9390022675737	76	127
151.78807256235828	151.9390022675737	60	127
151.99705215419502	152.08993197278912	81	127
151.99705215419502	152.08993197278912	69	127
151.99705215419502	152.14798185941044	60	127
151.99705215419502	152.14798185941044	41	127
152.14798185941044	152.29891156462585	77	127
152.14798185941044	152.29891156462585	65	127
152.3453514739229	152.49628117913832	67	127
152.3453514739229	152.49628117913832	79	127
152.51950113378686	152.6007709750567	77	127
152.51950113378686	152.6007709750567	65	127
152.61238095238096	152.7517006802721	60	127
152.61238095238096	152.7517006802721	57	127
152.80975056689343	152.94907029478458	60	127
152.80975056689343	152.94907029478458	63	127
152.99551020408163	153.19285714285715	62	127
152.99551020408163	153.19285714285715	58	127
153.19285714285715	153.34378684807257	77	127
153.19285714285715	153.34378684807257	65	127
153.3902494331066	153.494716553288	67	127
153.3902494331066	153.494716553288	79	127
153.5063492063492	153.55278911564625	77	127
153.5063492063492	153.55278911564625	65	127
153.55278911564625	153.68049886621316	64	127
153.55278911564625	153.68049886621316	58	127
153.7269387755102	153.87786848072562	58	127
153.7269387755102	153.87786848072562	65	127
153.92430839002267	154.09845804988663	60	127
153.92430839002267	154.09845804988663	57	127
154.11004535147393	154.23777777777778	65	127
154.11004535147393	154.23777777777778	77	127
154.2958276643991	154.44675736961452	79	127
154.2958276643991	154.44675736961452	67	127
154.49319727891157	154.56285714285715	77	127
154.49319727891157	154.56285714285715	65	127
154.6092970521542	154.74861678004535	60	127
154.6092970521542	154.74861678004535	63	127
154.6092970521542	154.74861678004535	78	127
154.6092970521542	154.74861678004535	66	127
154.7950566893424	154.864716553288	67	127
154.7950566893424	154.864716553288	62	127
154.7950566893424	154.864716553288	79	127
154.7950566893424	154.864716553288	58	127
154.91115646258504	155.0272335600907	67	127
154.91115646258504	155.0272335600907	62	127
154.91115646258504	155.0272335600907	79	127
154.91115646258504	155.0272335600907	58	127
155.08530612244897	155.23621315192744	67	127
155.08530612244897	155.23621315192744	60	127
155.08530612244897	155.23621315192744	79	127
155.08530612244897	155.23621315192744	57	127
155.28267573696147	155.43360544217688	72	127
155.28267573696147	155.43360544217688	58	127
155.28267573696147	155.43360544217688	84	127
155.28267573696147	155.43360544217688	55	127
155.48004535147393	155.6077551020408	72	127
155.48004535147393	155.65419501133786	57	127
155.48004535147393	155.6077551020408	84	127
155.48004535147393	155.65419501133786	53	127
155.66580498866213	155.73546485260772	55	127
155.66580498866213	155.73546485260772	84	127
155.66580498866213	155.73546485260772	72	127
155.66580498866213	155.73546485260772	58	127
155.7702947845805	155.92122448979592	52	127
155.7702947845805	155.92122448979592	55	127
155.7702947845805	155.92122448979592	84	127
155.7702947845805	155.92122448979592	72	127
155.9560544217687	156.0837641723356	72	127
155.9560544217687	156.0837641723356	57	127
155.9560544217687	156.0837641723356	84	127
155.9560544217687	156.0837641723356	53	127
156.10696145124717	156.2578911564626	60	127
156.10696145124717	156.2578911564626	55	127
156.10696145124717	156.2578911564626	82	127
156.10696145124717	156.2578911564626	64	127
156.3043537414966	156.42045351473922	72	127
156.3043537414966	156.42045351473922	57	127
156.3043537414966	156.42045351473922	81	127
156.3043537414966	156.42045351473922	65	127
156.47850340136054	156.6642403628118	72	127
156.47850340136054	156.6642403628118	58	127
156.47850340136054	156.6642403628118	81	127
156.47850340136054	156.6642403628118	62	127
156.6642403628118	156.7455328798186	74	127
156.6642403628118	156.7455328798186	46	127
156.6642403628118	156.7455328798186	82	127
156.6642403628118	156.7455328798186	67	127
156.6642403628118	156.7455328798186	50	127
156.79197278911565	156.9312925170068	79	127
156.79197278911565	156.9312925170068	64	127
156.79197278911565	156.9312925170068	48	127
156.79197278911565	156.9312925170068	52	127
156.9661224489796	157.14027210884353	52	127
156.9661224489796	157.10544217687075	48	127
156.9661224489796	157.14027210884353	79	127
156.9661224489796	157.14027210884353	70	127
157.14027210884353	157.27956916099774	53	127
157.14027210884353	157.27956916099774	36	127
157.14027210884353	157.27956916099774	81	127
157.14027210884353	157.27956916099774	69	127
157.30281179138322	157.43049886621316	65	127
157.30281179138322	157.43049886621316	36	127
157.30281179138322	157.43049886621316	77	127
157.30281179138322	157.43049886621316	57	127
157.43049886621316	157.61628117913833	76	127
157.43049886621316	157.61628117913833	58	127
157.43049886621316	157.56984126984128	36	127
157.43049886621316	157.61628117913833	67	127
157.61628117913833	157.75560090702947	65	127
157.61628117913833	157.75560090702947	36	127
157.61628117913833	157.75560090702947	77	127
157.61628117913833	157.75560090702947	57	127
157.7904081632653	157.88331065759638	64	127
157.7904081632653	157.88331065759638	36	127
157.7904081632653	157.88331065759638	79	127
157.7904081632653	157.88331065759638	55	127
157.94133786848073	158.13873015873017	76	127
157.94133786848073	158.13873015873017	36	127
157.94133786848073	158.09229024943312	70	127
157.94133786848073	158.13873015873017	55	127
158.13873015873017	158.24321995464854	58	127
158.13873015873017	158.24321995464854	38	127
158.13873015873017	158.24321995464854	77	127
158.13873015873017	158.24321995464854	53	127
158.26643990929705	158.40573696145125	52	127
158.26643990929705	158.40573696145125	79	127
158.26643990929705	158.40573696145125	70	127
158.26643990929705	158.40573696145125	40	127
158.4521768707483	158.57990929705215	57	127
158.4521768707483	158.57990929705215	41	127
158.4521768707483	158.57990929705215	72	127
158.4521768707483	158.57990929705215	69	127
158.6263492063492	158.70761904761906	67	127
158.6263492063492	158.70761904761906	43	127
158.6263492063492	158.70761904761906	72	127
158.6263492063492	158.70761904761906	58	127
158.76566893424035	158.90498866213153	65	127
158.76566893424035	158.90498866213153	45	127
158.76566893424035	158.90498866213153	72	127
158.76566893424035	158.90498866213153	60	127
158.95142857142858	159.09074829931973	76	127
158.95142857142858	159.09074829931973	36	127
158.95142857142858	159.04430839002268	58	127
158.95142857142858	159.09074829931973	55	127
159.102358276644	159.21845804988664	70	127
159.102358276644	159.21845804988664	38	127
159.102358276644	159.21845804988664	77	127
159.102358276644	159.21845804988664	53	127
159.26489795918368	159.40421768707483	70	127
159.26489795918368	159.40421768707483	40	127
159.26489795918368	159.40421768707483	79	127
159.26489795918368	159.40421768707483	52	127
159.45065759637188	159.5087074829932	41	127
159.45065759637188	159.5087074829932	72	127
159.45065759637188	159.5087074829932	69	127
159.45065759637188	159.5087074829932	57	127
159.5087074829932	159.65963718820862	43	127
159.5087074829932	159.65963718820862	72	127
159.5087074829932	159.65963718820862	58	127
159.5087074829932	159.65963718820862	67	127
159.70607709750567	159.8221768707483	45	127
159.70607709750567	159.8221768707483	72	127
159.70607709750567	159.8221768707483	65	127
159.70607709750567	159.8221768707483	60	127
159.88022675736963	160.05437641723356	36	127
159.88022675736963	159.99632653061224	58	127
159.88022675736963	160.05437641723356	76	127
159.88022675736963	160.05437641723356	55	127
160.05437641723356	160.14725623582765	53	127
160.05437641723356	160.14725623582765	77	127
160.05437641723356	160.14725623582765	70	127
160.05437641723356	160.14725623582765	38	127
160.19367346938776	160.34460317460318	52	127
160.19367346938776	160.34460317460318	79	127
160.19367346938776	160.34460317460318	70	127
160.19367346938776	160.34460317460318	40	127
160.3910657596372	160.46072562358276	57	127
160.3910657596372	160.46072562358276	72	127
160.3910657596372	160.46072562358276	69	127
160.3910657596372	160.46072562358276	41	127
160.5071655328798	160.6697052154195	58	127
160.5071655328798	160.6697052154195	72	127
160.5071655328798	160.6697052154195	67	127
160.5071655328798	160.6697052154195	43	127
160.70451247165533	160.7974149659864	60	127
160.70451247165533	160.7974149659864	72	127
160.70451247165533	160.7974149659864	65	127
160.70451247165533	160.7974149659864	45	127
160.85544217687075	160.99478458049887	55	127
160.85544217687075	160.93673469387755	58	127
160.85544217687075	160.99478458049887	76	127
160.85544217687075	160.99478458049887	36	127
160.99478458049887	161.11086167800454	53	127
160.99478458049887	161.11086167800454	77	127
160.99478458049887	161.11086167800454	70	127
160.99478458049887	161.11086167800454	38	127
161.1689342403628	161.2966439909297	40	127
161.1689342403628	161.2966439909297	79	127
161.1689342403628	161.2966439909297	70	127
161.1689342403628	161.2966439909297	52	127
161.35469387755103	161.51723356009072	53	127
161.35469387755103	161.51723356009072	72	127
161.35469387755103	161.51723356009072	69	127
161.35469387755103	161.51723356009072	41	127
161.51723356009072	161.92358276643992	51	127
161.51723356009072	161.92358276643992	63	127
161.51723356009072	161.92358276643992	39	127
162.10934240362812	162.5273015873016	51	127
162.10934240362812	162.5273015873016	39	127
162.5273015873016	162.87560090702948	51	127
162.5273015873016	162.87560090702948	39	127
162.88721088435375	163.119410430839	51	127
162.88721088435375	163.119410430839	39	127
163.31678004535146	163.47931972789115	51	127
163.31678004535146	163.47931972789115	63	127
163.31678004535146	163.47931972789115	39	127
163.47931972789115	163.67668934240362	39	127
163.47931972789115	163.67668934240362	63	127
163.47931972789115	163.67668934240362	51	127
163.67668934240362	163.9088888888889	63	127
163.67668934240362	163.9088888888889	51	127
163.67668934240362	163.9088888888889	39	127
164.10625850340136	164.55904761904762	51	127
164.10625850340136	164.55904761904762	63	127
164.10625850340136	164.55904761904762	39	127
164.79122448979592	165.24403628117915	51	127
164.79122448979592	165.24403628117915	63	127
164.79122448979592	165.24403628117915	39	127
165.4762358276644	165.90580498866214	52	127
165.4762358276644	165.90580498866214	64	127
165.4762358276644	165.90580498866214	40	127
166.1380045351474	166.25410430839003	64	127
166.1380045351474	166.25410430839003	52	127
166.1380045351474	166.6720634920635	36	127
166.25410430839003	166.46308390022676	53	127
166.46308390022676	166.8578231292517	69	127
166.46308390022676	166.6720634920635	48	127
166.46308390022676	166.8578231292517	48	127
166.6720634920635	166.74172335600906	57	127
166.6720634920635	167.03197278911566	65	127
166.6720634920635	167.03197278911566	36	127
166.74172335600906	166.8578231292517	59	127
166.8578231292517	167.03197278911566	48	127
166.8578231292517	167.4034693877551	67	127
166.8578231292517	167.4034693877551	48	127
167.03197278911566	167.6124716553288	36	127
167.03197278911566	167.21773242630385	64	127
167.03197278911566	167.21773242630385	60	127
167.21773242630385	167.4034693877551	62	127
167.21773242630385	167.6124716553288	57	127
167.41510204081632	167.97238095238095	65	127
167.41510204081632	167.6124716553288	48	127
167.41510204081632	167.97238095238095	48	127
167.6124716553288	167.78662131519275	56	127
167.6124716553288	168.10009070294785	36	127
167.6124716553288	167.78662131519275	60	127
167.78662131519275	167.97238095238095	59	127
167.78662131519275	168.10009070294785	62	127
167.97238095238095	168.10009070294785	48	127
167.97238095238095	168.39034013605442	67	127
168.10009070294785	168.25102040816327	49	127
168.10009070294785	168.51804988662133	36	127
168.10009070294785	168.39034013605442	64	127
168.10009070294785	168.25102040816327	58	127
168.25102040816327	168.39034013605442	48	127
168.25102040816327	168.39034013605442	57	127
168.39034013605442	168.51804988662133	48	127
168.39034013605442	168.51804988662133	57	127
168.39034013605442	168.87795918367348	48	127
168.39034013605442	168.87795918367348	69	127
168.51804988662133	168.87795918367348	65	127
168.51804988662133	168.70380952380953	57	127
168.51804988662133	169.07532879818595	36	127
168.70380952380953	168.87795918367348	59	127
168.88956916099772	169.07532879818595	48	127
168.88956916099772	169.45845804988662	67	127
168.88956916099772	169.07532879818595	65	127
168.88956916099772	169.45845804988662	48	127
169.07532879818595	169.65582766439908	36	127
169.07532879818595	169.26108843537415	64	127
169.07532879818595	169.26108843537415	60	127
169.26108843537415	169.65582766439908	56	127
169.26108843537415	169.45845804988662	56	127
169.26108843537415	169.45845804988662	59	127
169.45845804988662	169.65582766439908	62	127
169.45845804988662	169.60938775510203	65	127
169.45845804988662	169.65582766439908	48	127
169.45845804988662	169.99251700680273	48	127
169.65582766439908	169.80673469387756	64	127
169.65582766439908	169.80673469387756	58	127
169.65582766439908	169.80673469387756	55	127
169.65582766439908	169.99251700680273	36	127
169.65582766439908	169.77192743764172	67	127
169.80673469387756	169.99251700680273	65	127
169.80673469387756	169.99251700680273	57	127
169.80673469387756	169.99251700680273	57	127
169.99251700680273	170.13183673469388	53	127
169.99251700680273	170.13183673469388	41	127
169.99251700680273	170.56140589569162	48	127
170.16666666666666	170.56140589569162	55	127
170.16666666666666	170.56140589569162	43	127
170.36401360544218	170.51496598639457	65	127
170.36401360544218	170.51496598639457	77	127
170.57299319727892	171.15351473922902	57	127
170.57299319727892	171.15351473922902	45	127
170.77038548752836	170.9097052154195	81	127
170.77038548752836	170.9097052154195	69	127
170.95614512471656	171.10707482993197	70	127
170.95614512471656	171.10707482993197	82	127
171.15351473922902	171.7572335600907	55	127
171.15351473922902	171.7572335600907	43	127
171.36249433106576	171.5018140589569	84	127
171.36249433106576	171.5018140589569	72	127
171.54825396825396	171.71079365079365	86	127
171.54825396825396	171.71079365079365	74	127
171.7572335600907	172.21002267573695	53	127
171.7572335600907	172.21002267573695	41	127
171.91977324263038	172.03587301587302	84	127
171.91977324263038	172.03587301587302	72	127
172.08231292517007	172.1635827664399	82	127
172.08231292517007	172.1635827664399	70	127
172.22163265306122	172.80213151927438	55	127
172.22163265306122	172.80213151927438	43	127
172.40736961451248	172.55832199546487	79	127
172.40736961451248	172.55832199546487	67	127
172.60476190476192	172.75569160997733	77	127
172.60476190476192	172.75569160997733	65	127
172.80213151927438	173.3013605442177	57	127
172.80213151927438	173.3013605442177	45	127
172.99950113378685	173.06916099773244	69	127
172.99950113378685	173.06916099773244	81	127
173.1156009070295	173.25492063492064	70	127
173.1156009070295	173.25492063492064	82	127
173.3013605442177	173.84702947845804	43	127
173.3013605442177	173.84702947845804	55	127
173.49873015873015	173.6148299319728	84	127
173.49873015873015	173.6148299319728	72	127
173.64965986394557	173.78895691609978	74	127
173.64965986394557	173.78895691609978	86	127
173.84702947845804	173.98634920634922	53	127
173.84702947845804	173.98634920634922	41	127
174.04437641723356	174.16049886621315	84	127
174.04437641723356	174.16049886621315	64	127
174.04437641723356	174.16049886621315	72	127
174.04437641723356	174.16049886621315	55	127
174.04437641723356	174.16049886621315	43	127
174.2069387755102	174.3578684807256	53	127
174.2069387755102	174.3578684807256	84	127
174.2069387755102	174.3578684807256	69	127
174.2069387755102	174.3578684807256	72	127
174.2069387755102	174.3578684807256	41	127
174.40428571428572	174.54362811791384	84	127
174.40428571428572	174.54362811791384	72	127
174.40428571428572	174.54362811791384	57	127
174.60167800453516	174.70616780045353	87	127
174.60167800453516	174.70616780045353	69	127
174.60167800453516	174.70616780045353	53	127
174.75260770975058	174.8687074829932	86	127
174.75260770975058	174.8687074829932	65	127
174.75260770975058	174.8687074829932	58	127
174.9151247165533	175.0660544217687	41	127
175.11251700680273	175.2170068027211	43	127
175.26344671201815	175.36793650793652	41	127
175.42596371882087	175.565306122449	88	127
175.42596371882087	175.565306122449	65	127
175.42596371882087	175.565306122449	74	127
175.42596371882087	175.565306122449	58	127
175.5885260770975	175.69301587301587	89	127
175.5885260770975	175.69301587301587	65	127
175.5885260770975	175.69301587301587	74	127
175.5885260770975	175.69301587301587	58	127
175.73945578231292	175.82072562358277	84	127
175.73945578231292	175.82072562358277	69	127
175.73945578231292	175.82072562358277	65	127
175.85555555555555	175.9948752834467	77	127
175.85555555555555	175.9948752834467	65	127
175.85555555555555	175.9948752834467	41	127
176.05292517006802	176.19222222222223	79	127
176.05292517006802	176.19222222222223	67	127
176.05292517006802	176.19222222222223	39	127
176.2502947845805	176.36639455782313	78	127
176.2502947845805	176.36639455782313	66	127
176.2502947845805	176.36639455782313	38	127
176.4012244897959	176.48249433106577	86	127
176.4012244897959	176.48249433106577	82	127
176.4012244897959	176.48249433106577	67	127
176.4012244897959	176.48249433106577	40	127
176.52893424036282	176.67986394557823	84	127
176.52893424036282	176.67986394557823	81	127
176.52893424036282	176.67986394557823	69	127
176.52893424036282	176.67986394557823	42	127
176.73791383219955	176.8772335600907	84	127
176.73791383219955	176.8772335600907	81	127
176.73791383219955	176.8772335600907	62	127
176.73791383219955	176.8772335600907	43	127
176.91204081632654	177.01655328798185	82	127
176.91204081632654	177.01655328798185	79	127
176.91204081632654	177.01655328798185	64	127
176.91204081632654	177.01655328798185	43	127
177.05138321995466	177.20231292517008	81	127
177.05138321995466	177.20231292517008	77	127
177.05138321995466	177.20231292517008	60	127
177.05138321995466	177.20231292517008	45	127
177.24875283446713	177.34163265306123	46	127
177.24875283446713	177.38807256235827	81	127
177.24875283446713	177.38807256235827	77	127
177.24875283446713	177.38807256235827	62	127
177.38807256235827	177.52739229024942	82	127
177.38807256235827	177.52739229024942	74	127
177.38807256235827	177.52739229024942	55	127
177.38807256235827	177.52739229024942	46	127
177.57380952380953	177.6899319727891	79	127
177.57380952380953	177.6899319727891	70	127
177.57380952380953	177.6899319727891	76	127
177.57380952380953	177.6899319727891	60	127
177.57380952380953	177.6899319727891	48	127
177.74798185941043	177.89891156462585	69	127
177.74798185941043	177.9453514739229	60	127
177.74798185941043	177.89891156462585	81	127
177.74798185941043	177.9453514739229	41	127
177.9453514739229	177.99179138321995	77	127
177.9453514739229	177.99179138321995	65	127
178.02662131519276	178.17755102040817	79	127
178.02662131519276	178.17755102040817	67	127
178.23557823129252	178.43297052154196	77	127
178.23557823129252	178.43297052154196	65	127
178.43297052154196	178.56068027210884	57	127
178.43297052154196	178.56068027210884	60	127
178.6071201814059	178.72321995464853	60	127
178.6071201814059	178.72321995464853	63	127
178.76965986394558	178.96702947845804	58	127
178.76965986394558	178.96702947845804	62	127
178.97863945578231	179.05990929705214	77	127
178.97863945578231	179.05990929705214	65	127
179.11795918367346	179.19922902494332	79	127
179.11795918367346	179.19922902494332	67	127
179.25725623582767	179.43142857142857	77	127
179.25725623582767	179.43142857142857	65	127
179.43142857142857	179.52430839002267	58	127
179.43142857142857	179.52430839002267	64	127
179.5475283446712	179.66362811791385	58	127
179.5475283446712	179.66362811791385	65	127
179.7216553287982	179.91904761904763	57	127
179.7216553287982	179.91904761904763	60	127
179.91904761904763	180.0467573696145	77	127
179.91904761904763	180.0467573696145	65	127
180.09319727891156	180.18607709750566	79	127
180.09319727891156	180.18607709750566	67	127
180.23249433106577	180.34861678004535	77	127
180.23249433106577	180.34861678004535	65	127
180.3950566893424	180.53437641723357	78	127
180.3950566893424	180.53437641723357	66	127
180.3950566893424	180.53437641723357	60	127
180.3950566893424	180.53437641723357	63	127
180.59240362811792	180.69691609977323	79	127
180.59240362811792	180.69691609977323	67	127
180.59240362811792	180.69691609977323	58	127
180.59240362811792	180.69691609977323	62	127
180.74333333333334	180.8710657596372	79	127
180.74333333333334	180.8710657596372	67	127
180.74333333333334	180.8710657596372	58	127
180.74333333333334	180.8710657596372	62	127
180.91750566893424	181.06843537414966	79	127
180.91750566893424	181.06843537414966	67	127
180.91750566893424	181.06843537414966	57	127
180.91750566893424	181.06843537414966	60	127
181.1148752834467	181.26580498866213	84	127
181.1148752834467	181.26580498866213	72	127
181.1148752834467	181.26580498866213	55	127
181.1148752834467	181.26580498866213	58	127
181.2774149659864	181.32385487528344	84	127
181.2774149659864	181.32385487528344	72	127
181.2774149659864	181.3702947845805	53	127
181.2774149659864	181.3702947845805	57	127
181.3702947845805	181.5095918367347	84	127
181.3702947845805	181.5095918367347	72	127
181.3702947845805	181.5095918367347	55	127
181.3702947845805	181.5095918367347	58	127
181.55605442176872	181.67215419501133	84	127
181.55605442176872	181.67215419501133	72	127
181.55605442176872	181.67215419501133	52	127
181.55605442176872	181.67215419501133	55	127
181.70698412698414	181.82308390022675	84	127
181.70698412698414	181.82308390022675	72	127
181.70698412698414	181.82308390022675	53	127
181.70698412698414	181.82308390022675	57	127
181.88113378684807	182.02043083900227	82	127
181.88113378684807	182.02043083900227	60	127
181.88113378684807	182.02043083900227	64	127
181.88113378684807	182.02043083900227	55	127
182.0668934240363	182.20621315192744	81	127
182.0668934240363	182.20621315192744	72	127
182.0668934240363	182.20621315192744	65	127
182.0668934240363	182.20621315192744	57	127
182.24104308390022	182.38034013605443	81	127
182.24104308390022	182.38034013605443	72	127
182.24104308390022	182.38034013605443	62	127
182.24104308390022	182.38034013605443	58	127
182.38034013605443	182.51968253968255	82	127
182.38034013605443	182.51968253968255	67	127
182.38034013605443	182.51968253968255	74	127
182.38034013605443	182.51968253968255	50	127
182.38034013605443	182.51968253968255	46	127
182.55451247165533	182.6590022675737	79	127
182.55451247165533	182.6590022675737	64	127
182.55451247165533	182.6590022675737	52	127
182.55451247165533	182.6590022675737	48	127
182.71705215419502	182.8447619047619	48	127
182.71705215419502	182.90281179138321	79	127
182.71705215419502	182.90281179138321	70	127
182.71705215419502	182.90281179138321	52	127
182.90281179138321	183.03052154195012	81	127
182.90281179138321	183.03052154195012	69	127
182.90281179138321	183.03052154195012	53	127
182.90281179138321	183.03052154195012	36	127
183.07696145124717	183.2278911564626	77	127
183.07696145124717	183.2278911564626	65	127
183.07696145124717	183.2278911564626	57	127
183.07696145124717	183.2278911564626	36	127
183.26272108843537	183.4136507936508	36	127
183.26272108843537	183.4484807256236	76	127
183.26272108843537	183.4484807256236	67	127
183.26272108843537	183.4484807256236	58	127
183.46009070294784	183.51814058956916	77	127
183.46009070294784	183.51814058956916	65	127
183.46009070294784	183.51814058956916	57	127
183.46009070294784	183.51814058956916	36	127
183.5645804988662	183.70390022675738	79	127
183.5645804988662	183.70390022675738	64	127
183.5645804988662	183.70390022675738	55	127
183.5645804988662	183.70390022675738	36	127
183.75034013605443	183.88965986394558	70	127
183.75034013605443	183.92448979591836	76	127
183.75034013605443	183.92448979591836	55	127
183.75034013605443	183.92448979591836	36	127
183.92448979591836	184.02897959183673	77	127
183.92448979591836	184.02897959183673	58	127
183.92448979591836	184.02897959183673	53	127
183.92448979591836	184.02897959183673	38	127
184.05219954648527	184.19151927437642	52	127
184.05219954648527	184.19151927437642	79	127
184.05219954648527	184.19151927437642	70	127
184.05219954648527	184.19151927437642	40	127
184.24956916099774	184.36566893424038	69	127
184.24956916099774	184.36566893424038	72	127
184.24956916099774	184.36566893424038	57	127
184.24956916099774	184.36566893424038	41	127
184.42369614512472	184.5398185941043	72	127
184.42369614512472	184.5398185941043	67	127
184.42369614512472	184.5398185941043	58	127
184.42369614512472	184.5398185941043	43	127
184.58625850340135	184.71396825396826	72	127
184.58625850340135	184.71396825396826	65	127
184.58625850340135	184.71396825396826	60	127
184.58625850340135	184.71396825396826	45	127
184.74879818594104	184.87650793650795	58	127
184.74879818594104	184.91133786848073	76	127
184.74879818594104	184.91133786848073	55	127
184.74879818594104	184.91133786848073	36	127
184.91133786848073	184.98099773242632	77	127
184.91133786848073	184.98099773242632	70	127
184.91133786848073	184.98099773242632	53	127
184.91133786848073	184.98099773242632	38	127
185.03902494331066	185.15514739229025	79	127
185.03902494331066	185.15514739229025	70	127
185.03902494331066	185.15514739229025	52	127
185.03902494331066	185.15514739229025	40	127
185.21319727891157	185.3292970521542	72	127
185.21319727891157	185.3292970521542	69	127
185.21319727891157	185.3292970521542	57	127
185.21319727891157	185.3292970521542	41	127
185.37573696145125	185.50344671201813	72	127
185.37573696145125	185.50344671201813	67	127
185.37573696145125	185.50344671201813	58	127
185.37573696145125	185.50344671201813	43	127
185.53827664399094	185.5963038548753	72	127
185.53827664399094	185.5963038548753	65	127
185.53827664399094	185.5963038548753	60	127
185.53827664399094	185.5963038548753	45	127
185.6427664399093	185.75886621315192	58	127
185.6427664399093	185.78208616780046	76	127
185.6427664399093	185.78208616780046	55	127
185.6427664399093	185.78208616780046	36	127
185.79369614512473	185.90979591836734	77	127
185.79369614512473	185.90979591836734	70	127
185.79369614512473	185.90979591836734	53	127
185.79369614512473	185.90979591836734	38	127
185.95621315192744	186.10714285714286	79	127
185.95621315192744	186.10714285714286	70	127
185.95621315192744	186.10714285714286	52	127
185.95621315192744	186.10714285714286	40	127
186.15360544217688	186.2697052154195	72	127
186.15360544217688	186.2697052154195	69	127
186.15360544217688	186.2697052154195	57	127
186.15360544217688	186.2697052154195	41	127
186.3277551020408	186.47868480725623	72	127
186.3277551020408	186.47868480725623	67	127
186.3277551020408	186.47868480725623	58	127
186.3277551020408	186.47868480725623	43	127
186.53673469387755	186.59478458049887	72	127
186.53673469387755	186.59478458049887	65	127
186.53673469387755	186.59478458049887	60	127
186.53673469387755	186.59478458049887	45	127
186.6528344671202	186.81537414965987	76	127
186.6528344671202	186.79215419501134	58	127
186.6528344671202	186.81537414965987	55	127
186.6528344671202	186.81537414965987	36	127
186.81537414965987	186.8966439909297	70	127
186.81537414965987	186.8966439909297	53	127
186.81537414965987	186.8966439909297	77	127
186.81537414965987	186.8966439909297	38	127
186.94308390022675	187.09401360544217	79	127
186.94308390022675	187.09401360544217	70	127
186.94308390022675	187.09401360544217	52	127
186.94308390022675	187.09401360544217	40	127
187.1172335600907	187.34943310657596	72	127
187.1172335600907	187.34943310657596	69	127
187.1172335600907	187.34943310657596	53	127
187.1172335600907	187.34943310657596	41	127
187.34943310657596	187.76739229024943	57	127
187.34943310657596	187.76739229024943	48	127
187.34943310657596	187.76739229024943	60	127
187.34943310657596	187.76739229024943	41	127
187.34943310657596	187.76739229024943	45	127
187.9647619047619	188.3594784580499	57	127
187.9647619047619	188.3594784580499	48	127
187.9647619047619	188.3594784580499	60	127
187.9647619047619	188.3594784580499	41	127
187.9647619047619	188.3594784580499	45	127
188.3594784580499	188.80068027210885	57	127
188.3594784580499	188.80068027210885	48	127
188.3594784580499	188.80068027210885	60	127
188.3594784580499	188.80068027210885	41	127
188.3594784580499	188.80068027210885	45	127
188.80068027210885	189.0328798185941	60	127
188.80068027210885	189.0328798185941	57	127
188.80068027210885	189.0328798185941	48	127
188.80068027210885	189.0328798185941	41	127
188.80068027210885	189.0328798185941	45	127
189.27666666666667	189.7410657596372	72	127
189.27666666666667	189.7410657596372	81	127
189.27666666666667	189.7410657596372	69	127
189.27666666666667	189.7410657596372	84	127
189.27666666666667	189.7410657596372	65	127
189.7410657596372	190.24031746031747	84	127
189.7410657596372	190.24031746031747	72	127
189.7410657596372	190.24031746031747	81	127
189.7410657596372	190.24031746031747	69	127
189.7410657596372	190.24031746031747	65	127
190.24031746031747	190.3912471655329	69	127
190.24031746031747	190.3912471655329	84	127
190.24031746031747	190.3912471655329	72	127
190.24031746031747	190.3912471655329	81	127
190.24031746031747	190.3912471655329	65	127
190.76276643990929	191.12267573696144	81	127
190.76276643990929	191.12267573696144	69	127
190.76276643990929	191.12267573696144	65	127
190.76276643990929	191.12267573696144	72	127
190.76276643990929	191.12267573696144	84	127
191.12267573696144	191.49419501133787	65	127
191.12267573696144	191.49419501133787	65	127
191.12267573696144	191.49419501133787	84	127
191.12267573696144	191.49419501133787	72	127
191.12267573696144	191.49419501133787	69	127
191.12267573696144	191.49419501133787	81	127
193.37501133786847	193.40984126984128	65	127
