# onset,offset,note,velocity
0.8815873015873016	14.383990929705215	53	127
0.8815873015873016	1.856825396825397	49	127
0.8815873015873016	1.856825396825397	61	127
3.9582312925170067	14.383990929705215	56	127
6.976825396825397	14.383990929705215	61	127
10.935827664399094	14.383990929705215	49	127
10.935827664399094	14.383990929705215	65	127
10.935827664399094	14.383990929705215	37	127
14.407210884353741	22.754784580498868	44	127
14.407210884353741	16.22997732426304	61	127
14.407210884353741	19.120861678004534	53	127
14.407210884353741	19.120861678004534	37	127
14.407210884353741	29.918140589569163	56	127
16.253197278911564	17.983061224489795	60	127
18.006303854875284	19.120861678004534	58	127
19.155691609977325	20.316689342403627	56	127
19.155691609977325	22.754784580498868	39	127
19.155691609977325	22.754784580498868	54	127
20.339909297052156	21.570566893424036	58	127
21.59378684807256	22.754784580498868	60	127
22.76639455782313	29.918140589569163	44	127
22.76639455782313	23.927392290249433	61	127
22.76639455782313	26.43514739229025	37	127
22.76639455782313	26.43514739229025	53	127
23.973832199546486	25.14643990929705	63	127
25.16965986394558	26.43514739229025	65	127
26.458367346938775	29.918140589569163	36	127
26.458367346938775	29.918140589569163	63	127
26.458367346938775	29.918140589569163	54	127
29.941360544217687	31.764126984126985	61	127
29.941360544217687	34.353151927437644	53	127
29.941360544217687	34.353151927437644	37	127
29.941360544217687	37.76648526077098	44	127
29.941360544217687	41.23786848072562	56	127
31.775736961451248	33.261814058956915	60	127
33.27342403628118	34.353151927437644	58	127
34.37637188208617	37.76648526077098	54	127
34.37637188208617	35.444489795918365	56	127
34.37637188208617	37.76648526077098	39	127
35.47931972789116	36.698367346938774	58	127
36.72156462585034	37.76648526077098	60	127
37.7897052154195	41.23786848072562	37	127
37.7897052154195	38.904263038548756	61	127
37.7897052154195	40.06526077097506	53	127
37.7897052154195	41.23786848072562	44	127
38.92748299319728	40.06526077097506	63	127
40.08848072562358	41.23786848072562	65	127
40.08848072562358	41.23786848072562	49	127
41.249478458049886	43.68757369614512	48	127
41.249478458049886	43.68757369614512	44	127
41.249478458049886	42.32920634920635	65	127
41.249478458049886	42.32920634920635	56	127
42.41047619047619	43.68757369614512	60	127
42.41047619047619	44.91823129251701	63	127
43.710793650793654	44.91823129251701	58	127
43.710793650793654	44.91823129251701	42	127
43.710793650793654	48.76113378684807	51	127
45.77736961451247	49.79442176870748	41	127
45.77736961451247	48.76113378684807	65	127
45.77736961451247	49.79442176870748	57	127
48.784353741496595	49.79442176870748	48	127
48.784353741496595	49.79442176870748	65	127
49.80603174603175	53.40512471655329	49	127
49.80603174603175	50.86253968253968	65	127
49.80603174603175	53.40512471655329	46	127
49.80603174603175	53.40512471655329	58	127
50.874149659863946	52.174467120181404	61	127
52.20929705215419	53.40512471655329	58	127
53.42834467120181	55.99414965986394	65	127
53.42834467120181	57.5150566893424	38	127
53.42834467120181	55.99414965986394	50	127
53.42834467120181	55.99414965986394	70	127
56.017369614512475	61.50888888888889	58	127
56.017369614512475	57.5150566893424	70	127
56.017369614512475	57.5150566893424	53	127
57.65437641723356	59.03596371882086	70	127
57.65437641723356	61.50888888888889	39	127
57.65437641723356	61.50888888888889	54	127
59.059183673469384	60.23179138321996	66	127
60.25501133786848	61.50888888888889	63	127
61.532108843537415	64.50426303854876	68	127
61.532108843537415	64.50426303854876	63	127
61.532108843537415	64.50426303854876	54	127
61.532108843537415	66.0715873015873	36	127
64.52748299319728	66.0715873015873	63	127
64.52748299319728	66.0715873015873	68	127
64.52748299319728	66.0715873015873	51	127
64.52748299319728	69.81002267573696	56	127
66.08321995464853	69.81002267573696	53	127
66.08321995464853	68.53292517006803	37	127
66.08321995464853	67.26743764172336	68	127
67.29065759637189	68.53292517006803	65	127
68.55614512471655	69.81002267573696	41	127
68.55614512471655	69.81002267573696	61	127
69.84485260770975	71.74888888888889	56	127
69.84485260770975	74.32628117913832	44	127
69.84485260770975	72.93310657596372	61	127
69.84485260770975	72.93310657596372	53	127
71.78371882086168	72.93310657596372	65	127
72.99115646258504	74.32628117913832	60	127
72.99115646258504	74.32628117913832	63	127
72.99115646258504	74.32628117913832	54	127
74.37274376417234	75.58018140589569	49	127
74.37274376417234	77.91378684807256	61	127
74.37274376417234	77.91378684807256	53	127
74.37274376417234	82.03532879818594	56	127
75.59179138321996	76.76439909297052	41	127
76.78761904761905	77.91378684807256	42	127
77.97183673469388	79.14444444444445	44	127
77.97183673469388	80.34027210884354	61	127
77.97183673469388	80.34027210884354	53	127
79.16766439909297	80.34027210884354	53	127
80.36349206349206	82.03532879818594	51	127
80.36349206349206	82.03532879818594	60	127
80.36349206349206	82.03532879818594	54	127
82.081768707483	83.3472335600907	61	127
82.081768707483	83.3472335600907	56	127
82.081768707483	84.60111111111111	53	127
82.081768707483	84.60111111111111	49	127
83.39369614512472	84.60111111111111	65	127
83.39369614512472	85.79696145124717	61	127
84.6243537414966	85.79696145124717	46	127
84.6243537414966	85.79696145124717	66	127
84.6243537414966	85.79696145124717	49	127
85.80857142857143	86.94634920634921	68	127
85.80857142857143	86.94634920634921	65	127
85.80857142857143	89.33800453514739	44	127
85.80857142857143	88.25827664399092	49	127
86.96956916099774	88.25827664399092	68	127
86.96956916099774	88.25827664399092	77	127
88.28147392290249	89.33800453514739	66	127
88.28147392290249	89.33800453514739	75	127
88.28147392290249	89.33800453514739	48	127
89.36122448979592	90.63832199546485	73	127
89.36122448979592	90.63832199546485	65	127
89.36122448979592	90.63832199546485	53	127
89.36122448979592	90.63832199546485	49	127
90.67315192743764	92.08954648526077	54	127
90.67315192743764	92.08954648526077	70	127
90.67315192743764	92.08954648526077	61	127
90.67315192743764	92.08954648526077	49	127
92.11278911564627	93.3550566893424	63	127
92.11278911564627	93.3550566893424	51	127
92.11278911564627	93.3550566893424	66	127
92.11278911564627	93.3550566893424	49	127
93.37827664399093	94.71342403628118	49	127
93.37827664399093	94.71342403628118	65	127
93.37827664399093	94.71342403628118	49	127
93.37827664399093	95.86281179138322	61	127
94.73664399092971	97.25600907029478	61	127
94.73664399092971	97.25600907029478	65	127
94.73664399092971	95.86281179138322	68	127
95.88603174603175	97.25600907029478	73	127
95.88603174603175	97.25600907029478	68	127
97.29083900226757	99.47351473922903	73	127
97.29083900226757	100.77383219954649	68	127
97.29083900226757	100.77383219954649	66	127
97.29083900226757	100.77383219954649	63	127
99.49673469387756	100.77383219954649	72	127
100.79705215419501	104.29165532879819	61	127
100.79705215419501	101.87678004535148	73	127
100.79705215419501	104.29165532879819	68	127
100.79705215419501	104.29165532879819	65	127
101.91160997732426	103.01455782312925	75	127
103.03777777777778	104.29165532879819	77	127
104.31487528344671	107.64693877551021	68	127
104.31487528344671	105.3829931972789	63	127
104.31487528344671	106.46272108843537	77	127
104.31487528344671	108.83115646258503	60	127
105.40621315192743	106.46272108843537	65	127
106.47433106575964	107.64693877551021	66	127
106.47433106575964	107.64693877551021	75	127
107.67015873015873	109.98054421768707	75	127
107.67015873015873	109.98054421768707	69	127
107.67015873015873	109.98054421768707	66	127
108.85437641723357	109.98054421768707	60	127
110.00376417233561	111.1647619047619	73	127
110.00376417233561	111.1647619047619	68	127
110.00376417233561	111.1647619047619	65	127
110.00376417233561	111.1647619047619	61	127
111.18798185941043	113.6492970521542	61	127
111.18798185941043	113.6492970521542	73	127
111.18798185941043	113.6492970521542	65	127
111.18798185941043	114.86834467120181	68	127
113.67251700680272	114.86834467120181	66	127
113.67251700680272	114.86834467120181	72	127
113.67251700680272	114.86834467120181	63	127
114.89156462585034	118.51387755102041	68	127
114.89156462585034	117.30643990929705	63	127
114.89156462585034	117.30643990929705	72	127
114.89156462585034	117.30643990929705	66	127
117.32965986394558	118.51387755102041	73	127
117.32965986394558	118.51387755102041	65	127
117.32965986394558	118.51387755102041	61	127
118.53709750566894	120.94036281179139	74	127
118.53709750566894	120.94036281179139	65	127
118.53709750566894	120.94036281179139	59	127
118.53709750566894	122.22907029478458	68	127
120.96358276643991	122.22907029478458	60	127
120.96358276643991	122.22907029478458	63	127
120.96358276643991	122.22907029478458	75	127
122.2522902494331	123.68031746031745	67	127
122.2522902494331	123.68031746031745	61	127
122.2522902494331	124.93419501133786	76	127
122.2522902494331	124.93419501133786	58	127
123.703537414966	124.93419501133786	67	127
123.703537414966	124.93419501133786	73	127
124.95741496598639	126.36222222222223	77	127
124.95741496598639	126.36222222222223	72	127
124.95741496598639	126.36222222222223	69	127
124.95741496598639	126.36222222222223	57	127
126.38544217687075	128.7887074829932	77	127
126.38544217687075	128.7887074829932	72	127
127.63931972789116	128.7887074829932	69	127
127.63931972789116	128.7887074829932	53	127
128.8119274376417	130.21673469387756	65	127
128.8119274376417	130.21673469387756	74	127
128.8119274376417	130.21673469387756	70	127
128.8119274376417	130.21673469387756	58	127
130.23993197278912	132.74770975056688	81	127
130.23993197278912	132.74770975056688	75	127
130.23993197278912	132.74770975056688	63	127
130.23993197278912	132.74770975056688	59	127
132.77092970521542	134.10607709750568	82	127
132.77092970521542	134.10607709750568	74	127
132.77092970521542	134.10607709750568	65	127
132.77092970521542	134.10607709750568	58	127
134.1292970521542	136.19587301587302	82	127
135.18580498866214	136.19587301587302	77	127
135.18580498866214	136.19587301587302	65	127
135.18580498866214	136.19587301587302	62	127
136.2190702947846	137.84448979591838	78	127
136.2190702947846	137.84448979591838	70	127
136.2190702947846	137.84448979591838	66	127
136.2190702947846	137.84448979591838	63	127
137.89092970521543	140.45673469387756	79	127
137.89092970521543	140.45673469387756	70	127
137.89092970521543	140.45673469387756	64	127
137.89092970521543	140.45673469387756	61	127
140.47995464852607	142.02408163265306	80	127
140.47995464852607	142.02408163265306	68	127
140.47995464852607	142.02408163265306	63	127
140.47995464852607	142.02408163265306	60	127
142.04727891156463	144.3692970521542	78	127
142.04727891156463	144.3692970521542	75	127
142.04727891156463	144.3692970521542	60	127
142.04727891156463	151.09145124716554	80	127
144.39251700680273	145.5767120181406	73	127
144.39251700680273	145.5767120181406	77	127
144.39251700680273	145.5767120181406	61	127
146.62163265306123	147.80585034013606	68	127
146.62163265306123	147.80585034013606	73	127
146.62163265306123	147.80585034013606	77	127
147.82907029478457	148.862358276644	75	127
147.82907029478457	148.862358276644	72	127
147.82907029478457	148.862358276644	66	127
148.88557823129253	149.93047619047618	72	127
148.88557823129253	149.93047619047618	66	127
148.88557823129253	149.93047619047618	75	127
149.95369614512472	152.94907029478458	73	127
149.95369614512472	152.94907029478458	68	127
149.95369614512472	152.94907029478458	65	127
151.11469387755102	152.94907029478458	85	127
152.97229024943312	159.96149659863946	56	127
154.43514739229025	155.6774149659864	61	127
154.43514739229025	155.6774149659864	77	127
154.43514739229025	155.6774149659864	68	127
155.7006349206349	156.94290249433107	75	127
155.7006349206349	156.94290249433107	60	127
155.7006349206349	156.94290249433107	66	127
156.9661224489796	158.66115646258504	75	127
156.9661224489796	158.66115646258504	60	127
156.9661224489796	158.66115646258504	66	127
158.67278911564625	161.09927437641724	65	127
158.67278911564625	159.96149659863946	56	127
158.67278911564625	161.09927437641724	73	127
159.984716553288	161.09927437641724	61	127
159.984716553288	161.09927437641724	68	127
161.12249433106575	167.7634013605442	56	127
161.12249433106575	167.7634013605442	68	127
162.66662131519274	163.88566893424036	41	127
162.66662131519274	163.88566893424036	49	127
163.94371882086168	165.09310657596373	54	127
163.94371882086168	165.09310657596373	37	127
165.11632653061224	166.52113378684808	54	127
165.11632653061224	166.52113378684808	39	127
166.55596371882086	167.7634013605442	53	127
166.55596371882086	170.8168253968254	37	127
167.78662131519275	170.8168253968254	52	127
167.78662131519275	170.8168253968254	73	127
167.78662131519275	170.8168253968254	61	127
170.88648526077097	173.2781179138322	61	127
170.88648526077097	173.2781179138322	56	127
170.88648526077097	173.2781179138322	52	127
170.88648526077097	173.2781179138322	37	127
173.91668934240363	176.07614512471656	61	127
173.91668934240363	176.07614512471656	56	127
173.91668934240363	176.07614512471656	52	127
173.91668934240363	176.07614512471656	37	127
176.09936507936507	178.69997732426305	60	127
176.09936507936507	178.69997732426305	56	127
176.09936507936507	178.69997732426305	54	127
176.09936507936507	178.69997732426305	39	127
179.31532879818593	181.4980045351474	60	127
179.31532879818593	181.4980045351474	56	127
179.31532879818593	181.4980045351474	54	127
179.31532879818593	181.4980045351474	39	127
181.5212244897959	184.040589569161	37	127
181.5212244897959	184.040589569161	61	127
181.5212244897959	184.040589569161	56	127
181.5212244897959	184.040589569161	52	127
184.6791156462585	186.75732426303856	61	127
184.6791156462585	186.75732426303856	56	127
184.6791156462585	186.75732426303856	52	127
184.6791156462585	186.75732426303856	44	127
186.79215419501134	187.97637188208617	63	127
186.79215419501134	187.97637188208617	60	127
186.79215419501134	187.97637188208617	51	127
186.79215419501134	187.97637188208617	44	127
188.60331065759638	189.77591836734695	69	127
188.60331065759638	189.77591836734695	60	127
188.60331065759638	189.77591836734695	51	127
188.60331065759638	189.77591836734695	44	127
189.88040816326532	190.55378684807258	68	127
189.88040816326532	190.55378684807258	60	127
189.88040816326532	190.55378684807258	51	127
189.88040816326532	190.55378684807258	44	127
190.62344671201814	191.54063492063491	63	127
190.62344671201814	191.54063492063491	59	127
190.62344671201814	191.54063492063491	56	127
190.62344671201814	191.54063492063491	44	127
191.65673469387755	194.25736961451247	64	127
191.65673469387755	194.25736961451247	59	127
191.65673469387755	194.25736961451247	56	127
191.65673469387755	194.25736961451247	40	127
194.88430839002268	196.7302947845805	64	127
194.88430839002268	196.7302947845805	56	127
194.88430839002268	196.7302947845805	59	127
194.88430839002268	196.7302947845805	52	127
196.7651247165533	199.22643990929706	63	127
196.7651247165533	199.22643990929706	57	127
196.7651247165533	199.22643990929706	59	127
196.7651247165533	199.22643990929706	54	127
201.2233560090703	201.80385487528343	63	127
201.2233560090703	201.80385487528343	57	127
201.2233560090703	201.80385487528343	59	127
201.2233560090703	201.80385487528343	54	127
201.82707482993197	204.34643990929706	68	127
201.82707482993197	204.34643990929706	56	127
201.82707482993197	204.34643990929706	59	127
201.82707482993197	204.34643990929706	52	127
204.99659863945578	206.65682539682538	68	127
204.99659863945578	206.65682539682538	64	127
204.99659863945578	206.65682539682538	56	127
204.99659863945578	206.65682539682538	52	127
206.68004535147392	208.08485260770976	71	127
206.68004535147392	208.08485260770976	63	127
206.68004535147392	208.08485260770976	54	127
206.68004535147392	208.08485260770976	47	127
209.80312925170068	210.5809977324263	71	127
209.80312925170068	210.5809977324263	63	127
209.80312925170068	210.5809977324263	54	127
209.80312925170068	210.5809977324263	45	127
210.68548752834468	211.60267573696146	71	127
210.68548752834468	211.60267573696146	64	127
210.68548752834468	211.60267573696146	52	127
210.68548752834468	211.60267573696146	44	127
211.6839455782313	212.34571428571428	71	127
211.6839455782313	212.34571428571428	63	127
211.6839455782313	212.34571428571428	57	127
211.6839455782313	212.34571428571428	42	127
212.42698412698414	214.9463492063492	56	127
212.42698412698414	214.9463492063492	71	127
212.42698412698414	214.9463492063492	62	127
212.42698412698414	214.9463492063492	41	127
215.5500680272109	216.09573696145125	71	127
215.5500680272109	216.09573696145125	74	127
215.5500680272109	216.09573696145125	68	127
215.5500680272109	216.09573696145125	41	127
216.11895691609976	218.78925170068027	73	127
216.11895691609976	218.78925170068027	71	127
216.11895691609976	218.78925170068027	68	127
216.11895691609976	218.78925170068027	41	127
220.46108843537414	221.02997732426303	73	127
220.46108843537414	221.02997732426303	71	127
220.46108843537414	221.02997732426303	68	127
220.46108843537414	221.02997732426303	41	127
221.05319727891157	224.07179138321996	73	127
221.05319727891157	224.07179138321996	64	127
221.05319727891157	224.07179138321996	55	127
221.05319727891157	224.07179138321996	67	127
221.05319727891157	224.07179138321996	46	127
225.10507936507938	225.8248979591837	79	127
225.10507936507938	225.8248979591837	76	127
225.10507936507938	225.8248979591837	61	127
225.10507936507938	225.8248979591837	46	127
225.8481179138322	229.1801814058957	79	127
225.8481179138322	229.1801814058957	76	127
225.8481179138322	229.1801814058957	61	127
225.8481179138322	229.1801814058957	46	127
230.05092970521542	230.61981859410432	78	127
230.05092970521542	230.61981859410432	64	127
230.05092970521542	230.61981859410432	61	127
230.05092970521542	230.61981859410432	46	127
230.64303854875283	233.65002267573695	78	127
230.64303854875283	233.65002267573695	63	127
230.64303854875283	233.65002267573695	57	127
230.64303854875283	233.65002267573695	48	127
234.35823129251702	235.2986394557823	87	127
234.35823129251702	235.2986394557823	78	127
234.35823129251702	235.2986394557823	72	127
234.35823129251702	235.2986394557823	45	127
235.34507936507936	238.95578231292518	87	127
235.34507936507936	238.95578231292518	78	127
235.34507936507936	238.95578231292518	72	127
235.34507936507936	238.95578231292518	45	127
239.80331065759637	240.46507936507936	88	127
239.80331065759637	240.46507936507936	64	127
239.80331065759637	240.46507936507936	73	127
239.80331065759637	240.46507936507936	58	127
239.80331065759637	240.46507936507936	43	127
240.4882993197279	243.61138321995466	88	127
240.4882993197279	243.61138321995466	64	127
240.4882993197279	243.61138321995466	73	127
240.4882993197279	243.61138321995466	56	127
240.4882993197279	243.61138321995466	44	127
244.73755102040818	245.3877097505669	84	127
244.73755102040818	245.3877097505669	66	127
244.73755102040818	245.3877097505669	56	127
244.73755102040818	245.3877097505669	51	127
245.42253968253968	247.00149659863945	85	127
245.42253968253968	247.00149659863945	64	127
245.42253968253968	247.00149659863945	56	127
245.42253968253968	247.00149659863945	49	127
247.7445351473923	248.30181405895692	61	127
247.7445351473923	248.30181405895692	85	127
247.7445351473923	248.30181405895692	57	127
247.7445351473923	248.30181405895692	42	127
248.38308390022675	248.9984126984127	83	127
248.38308390022675	248.9984126984127	65	127
248.38308390022675	248.9984126984127	56	127
248.38308390022675	248.9984126984127	42	127
249.11451247165533	250.1245804988662	81	127
249.11451247165533	250.1245804988662	66	127
249.11451247165533	250.1245804988662	57	127
249.11451247165533	250.1245804988662	42	127
250.20585034013607	253.4566439909297	80	127
250.20585034013607	253.4566439909297	64	127
250.20585034013607	253.4566439909297	61	127
250.20585034013607	253.4566439909297	44	127
254.2461224489796	254.82662131519274	68	127
254.2461224489796	254.82662131519274	60	127
254.2461224489796	254.82662131519274	54	127
254.2461224489796	254.82662131519274	51	127
254.86145124716552	256.1269387755102	68	127
254.86145124716552	256.1269387755102	61	127
254.86145124716552	256.1269387755102	64	127
254.86145124716552	256.1269387755102	52	127
254.86145124716552	256.1269387755102	49	127
256.80031746031744	258.1702947845805	61	127
256.80031746031744	258.1702947845805	53	127
256.80031746031744	258.1702947845805	49	127
258.3096145124717	258.9829931972789	65	127
258.3096145124717	258.9829931972789	61	127
258.3096145124717	258.9829931972789	53	127
258.3096145124717	258.9829931972789	47	127
259.1107029478458	259.9930612244898	66	127
259.1107029478458	259.9930612244898	61	127
259.1107029478458	259.9930612244898	54	127
259.1107029478458	259.9930612244898	45	127
260.09755102040816	262.6981859410431	61	127
260.09755102040816	262.6981859410431	52	127
260.09755102040816	262.6981859410431	68	127
260.09755102040816	262.6981859410431	44	127
263.31351473922905	266.2740589569161	68	127
263.31351473922905	266.2740589569161	60	127
263.31351473922905	266.2740589569161	51	127
263.31351473922905	266.2740589569161	44	127
267.49310657596374	272.8685260770975	68	127
267.49310657596374	269.26943310657595	61	127
267.49310657596374	269.26943310657595	53	127
269.2926530612245	270.12857142857143	58	127
269.2926530612245	270.12857142857143	66	127
269.2926530612245	272.8685260770975	37	127
269.2926530612245	272.8685260770975	49	127
270.12857142857143	271.3360090702948	63	127
270.12857142857143	271.3360090702948	54	127
271.3592290249433	272.8685260770975	61	127
271.3592290249433	272.8685260770975	53	127
272.89174603174604	274.11079365079365	48	127
272.89174603174604	275.2601814058957	77	127
272.89174603174604	278.0814058956916	56	127
272.89174603174604	274.11079365079365	51	127
274.15723356009073	275.2601814058957	46	127
274.15723356009073	275.2601814058957	49	127
275.28337868480725	276.37473922902495	78	127
275.28337868480725	276.37473922902495	48	127
275.28337868480725	276.37473922902495	44	127
276.3979591836735	277.5473469387755	46	127
276.3979591836735	277.5473469387755	49	127
276.3979591836735	277.5473469387755	77	127
277.57056689342403	278.673514739229	51	127
277.57056689342403	278.673514739229	75	127
277.57056689342403	278.673514739229	48	127
278.10462585034014	278.673514739229	66	127
278.69673469387754	279.92739229024943	49	127
278.69673469387754	279.92739229024943	73	127
278.69673469387754	279.92739229024943	65	127
278.69673469387754	279.92739229024943	53	127
279.95061224489797	281.14643990929704	51	127
279.95061224489797	281.14643990929704	72	127
279.95061224489797	281.14643990929704	60	127
279.95061224489797	281.14643990929704	54	127
281.1696598639456	282.3538775510204	61	127
281.1696598639456	282.3538775510204	56	127
281.1696598639456	282.3538775510204	53	127
281.1696598639456	282.3538775510204	70	127
282.36548752834466	283.57290249433106	53	127
282.36548752834466	283.57290249433106	68	127
282.36548752834466	283.57290249433106	61	127
282.36548752834466	283.57290249433106	56	127
283.5845351473923	284.5945804988662	70	127
283.5845351473923	284.5945804988662	60	127
283.5845351473923	285.999410430839	54	127
283.5845351473923	285.999410430839	51	127
284.6178231292517	285.999410430839	72	127
284.6178231292517	287.2416780045352	56	127
286.02260770975056	287.2416780045352	53	127
286.02260770975056	287.2416780045352	73	127
286.02260770975056	287.2416780045352	49	127
287.322947845805	288.53038548752835	48	127
287.322947845805	288.53038548752835	51	127
287.322947845805	288.53038548752835	75	127
287.322947845805	289.12249433106575	56	127
288.5536054421769	289.7726530612245	49	127
288.5536054421769	289.7726530612245	77	127
288.5536054421769	289.7726530612245	46	127
289.12249433106575	289.7726530612245	65	127
289.79587301587304	292.0830385487528	66	127
289.79587301587304	290.94526077097504	77	127
289.79587301587304	290.94526077097504	48	127
289.79587301587304	290.94526077097504	44	127
290.9684807256236	293.4878231292517	75	127
290.9684807256236	292.0830385487528	46	127
290.9684807256236	292.7331972789116	56	127
292.0946485260771	293.4878231292517	48	127
292.0946485260771	295.22931972789115	68	127
292.7331972789116	293.4878231292517	54	127
293.5110657596372	294.64884353741496	73	127
293.5110657596372	294.64884353741496	53	127
293.5110657596372	294.64884353741496	49	127
294.68367346938777	295.8446485260771	54	127
294.68367346938777	295.8446485260771	72	127
294.68367346938777	295.8446485260771	51	127
295.22931972789115	295.8446485260771	60	127
295.87950113378685	297.11015873015873	70	127
295.87950113378685	297.11015873015873	61	127
295.87950113378685	297.11015873015873	56	127
295.87950113378685	297.11015873015873	53	127
297.13337868480727	298.5614058956916	61	127
297.13337868480727	298.5614058956916	68	127
297.13337868480727	298.5614058956916	53	127
297.13337868480727	300.8253514739229	56	127
298.58462585034016	300.8253514739229	51	127
298.58462585034016	299.9197732426304	70	127
298.58462585034016	302.72938775510204	60	127
299.95460317460316	301.6728798185941	72	127
300.8253514739229	301.6728798185941	55	127
300.8253514739229	301.6728798185941	52	127
301.7077097505669	302.72938775510204	56	127
301.7077097505669	302.72938775510204	72	127
301.7077097505669	304.0645351473923	53	127
302.7409977324263	304.77274376417233	68	127
302.7409977324263	304.77274376417233	60	127
302.7409977324263	304.77274376417233	65	127
304.08775510204083	305.4460997732426	53	127
304.77274376417233	305.4460997732426	69	127
304.77274376417233	306.1427210884354	60	127
304.77274376417233	306.1427210884354	57	127
305.4693424036281	306.7232199546485	53	127
305.4693424036281	307.9190476190476	77	127
306.16591836734693	307.3733786848073	58	127
306.16591836734693	307.3733786848073	61	127
306.74643990929707	307.9190476190476	49	127
307.3965759637188	308.8130158730159	63	127
307.3965759637188	308.8130158730159	60	127
307.94226757369614	309.48639455782313	77	127
307.94226757369614	309.48639455782313	46	127
308.8362358276644	309.48639455782313	65	127
308.8362358276644	309.48639455782313	61	127
309.50961451247167	310.6357823129252	61	127
309.50961451247167	310.6357823129252	77	127
309.50961451247167	310.6357823129252	65	127
309.50961451247167	312.1334693877551	58	127
310.6589795918367	312.8648979591837	70	127
310.6589795918367	314.06072562358275	62	127
310.6589795918367	312.1334693877551	74	127
312.14507936507937	313.4918367346939	58	127
312.14507936507937	313.4918367346939	70	127
312.8648979591837	314.0374829931973	65	127
313.51505668934243	314.55995464852606	58	127
313.51505668934243	315.5816326530612	82	127
314.06072562358275	315.07079365079363	66	127
314.06072562358275	315.07079365079363	63	127
314.5831746031746	315.5816326530612	54	127
315.09401360544217	316.27823129251703	68	127
315.09401360544217	316.27823129251703	65	127
315.60485260770974	316.90514739229025	51	127
315.60485260770974	316.90514739229025	82	127
316.3014512471655	316.90514739229025	70	127
316.3014512471655	316.90514739229025	66	127
316.95160997732427	318.0081179138322	82	127
316.95160997732427	319.72639455782314	56	127
317.49727891156465	320.2372335600907	63	127
317.49727891156465	320.2372335600907	54	127
318.0313378684807	319.72639455782314	78	127
319.7496145124717	320.88736961451247	75	127
319.7496145124717	320.88736961451247	56	127
320.26045351473925	321.7000680272109	60	127
320.26045351473925	321.7000680272109	54	127
320.8990022675737	322.25736961451247	56	127
320.8990022675737	323.5576870748299	80	127
321.7117006802721	323.0120181405896	53	127
321.7117006802721	323.0120181405896	61	127
322.26897959183674	323.5576870748299	53	127
323.02362811791386	324.2310657596372	63	127
323.02362811791386	324.2310657596372	54	127
323.58090702947845	324.9624943310658	49	127
323.58090702947845	324.9624943310658	80	127
324.25426303854874	324.9624943310658	56	127
324.25426303854874	324.9624943310658	65	127
324.98571428571427	326.518231292517	61	127
324.98571428571427	326.518231292517	44	127
324.98571428571427	327.1219274376417	65	127
324.98571428571427	327.6443990929705	80	127
326.5414512471655	328.24809523809523	56	127
326.5414512471655	327.6443990929705	53	127
327.1451700680272	327.66761904761904	73	127
327.66761904761904	329.15369614512474	84	127
327.66761904761904	329.15369614512474	72	127
327.66761904761904	329.15369614512474	51	127
328.2713378684807	329.1769160997732	54	127
329.1769160997732	330.7210430839002	49	127
329.1769160997732	330.047664399093	73	127
329.1769160997732	330.047664399093	53	127
329.1769160997732	331.7311111111111	85	127
330.047664399093	331.2318820861678	65	127
330.047664399093	331.2318820861678	68	127
330.74426303854875	331.7311111111111	41	127
331.24349206349206	331.74272108843536	56	127
331.24349206349206	331.74272108843536	77	127
331.74272108843536	333.2519954648526	54	127
331.74272108843536	333.2519954648526	75	127
331.74272108843536	333.2519954648526	42	127
331.74272108843536	334.36657596371884	80	127
333.2752380952381	333.7976870748299	53	127
333.2752380952381	338.522947845805	44	127
333.2752380952381	333.7976870748299	73	127
333.7976870748299	335.0399546485261	49	127
333.7976870748299	335.0399546485261	65	127
334.3897959183673	335.55079365079365	89	127
335.0631746031746	335.8874829931973	53	127
335.0631746031746	335.8874829931973	73	127
335.8874829931973	336.96721088435373	72	127
335.8874829931973	336.96721088435373	54	127
335.8874829931973	336.96721088435373	87	127
336.9904308390023	337.9772789115646	73	127
336.9904308390023	339.12666666666667	53	127
336.9904308390023	339.67233560090705	85	127
337.9772789115646	339.12666666666667	61	127
338.5577777777778	339.67233560090705	41	127
339.1498866213152	339.6839455782313	65	127
339.1498866213152	339.6839455782313	61	127
339.6839455782313	341.58798185941043	42	127
339.6839455782313	344.1421768707483	80	127
339.6839455782313	342.26136054421767	63	127
339.6839455782313	342.26136054421767	60	127
341.6460090702948	342.9115192743764	44	127
342.2845804988662	343.5848752834467	61	127
342.2845804988662	343.5848752834467	53	127
342.93473922902496	344.1421768707483	53	127
343.6081179138322	346.4061224489796	56	127
343.6081179138322	344.15378684807257	68	127
344.15378684807257	346.4061224489796	66	127
344.15378684807257	345.57020408163265	84	127
344.15378684807257	345.57020408163265	51	127
345.5818140589569	346.96337868480725	85	127
345.5818140589569	346.96337868480725	49	127
346.42934240362814	347.61356009070295	65	127
346.42934240362814	347.61356009070295	56	127
346.98662131519274	348.1708390022676	49	127
346.98662131519274	348.1708390022676	82	127
347.6367800453515	348.1708390022676	56	127
347.6367800453515	348.1708390022676	66	127
348.1940589569161	349.3666666666667	66	127
348.1940589569161	349.3666666666667	58	127
348.1940589569161	350.086485260771	49	127
348.1940589569161	350.086485260771	78	127
349.3666666666667	350.086485260771	63	127
349.3666666666667	350.086485260771	60	127
350.1097052154195	350.8991836734694	77	127
350.1097052154195	354.3937868480726	49	127
350.1097052154195	350.8991836734694	61	127
350.92240362811793	351.7582993197279	75	127
350.92240362811793	354.3937868480726	53	127
351.7582993197279	352.3968707482993	73	127
351.7582993197279	352.3968707482993	56	127
352.3968707482993	353.0238095238095	61	127
353.0238095238095	354.3937868480726	68	127
353.0238095238095	353.81326530612245	64	127
353.81326530612245	354.4169841269841	65	127
354.4169841269841	358.7010884353742	51	127
354.99750566893425	355.82181405895693	73	127
354.99750566893425	358.7010884353742	54	127
355.82181405895693	356.66931972789115	72	127
355.82181405895693	356.66931972789115	56	127
356.66931972789115	357.2730612244898	60	127
356.971179138322	357.2730612244898	82	127
357.2730612244898	358.0277097505669	65	127
357.2730612244898	358.7010884353742	80	127
358.0277097505669	358.72430839002266	66	127
358.72430839002266	362.56721088435376	49	127
359.4092970521542	362.56721088435376	53	127
359.4092970521542	360.08267573696145	87	127
360.08267573696145	360.6399546485261	56	127
360.08267573696145	360.6399546485261	85	127
360.6399546485261	361.31333333333333	61	127
360.9766439909297	361.31333333333333	82	127
361.31333333333333	361.94027210884354	64	127
361.31333333333333	362.56721088435376	80	127
361.94027210884354	362.5904308390023	65	127
362.5904308390023	366.51460317460317	48	127
363.10126984126987	363.97201814058957	77	127
363.10126984126987	366.51460317460317	51	127
363.97201814058957	364.65700680272107	75	127
363.97201814058957	364.65700680272107	56	127
364.65700680272107	365.20267573696145	63	127
364.92403628117916	365.20267573696145	82	127
365.20267573696145	365.7715419501134	65	127
365.20267573696145	366.51460317460317	80	127
365.7715419501134	366.5378231292517	66	127
366.5378231292517	370.4852154195011	49	127
367.11832199546484	370.4852154195011	53	127
367.11832199546484	367.9426303854875	75	127
367.9426303854875	368.5463492063492	73	127
367.9426303854875	368.56956916099773	56	127
368.56956916099773	368.9294784580499	73	127
368.56956916099773	369.242925170068	61	127
368.9294784580499	369.242925170068	70	127
369.242925170068	370.4852154195011	68	127
369.242925170068	369.8698866213152	65	127
369.8698866213152	370.50843537414966	65	127
370.50843537414966	374.62997732426305	51	127
371.10054421768706	371.91324263038547	73	127
371.10054421768706	374.62997732426305	54	127
371.91324263038547	372.5169387755102	56	127
371.91324263038547	372.4821315192744	72	127
372.5169387755102	372.90009070294786	72	127
372.5169387755102	373.21356009070297	60	127
372.90009070294786	373.21356009070297	82	127
373.21356009070297	374.00303854875284	65	127
373.21356009070297	374.62997732426305	80	127
374.00303854875284	374.66478458049886	66	127
374.66478458049886	378.49609977324263	49	127
375.2801133786848	376.0115646258503	87	127
375.2801133786848	378.49609977324263	53	127
376.0115646258503	376.62689342403627	56	127
376.0115646258503	376.615283446712	85	127
376.62689342403627	376.9635827664399	85	127
376.62689342403627	377.2422222222222	61	127
376.9635827664399	377.2422222222222	82	127
377.2422222222222	378.49609977324263	80	127
377.2422222222222	377.83430839002267	64	127
377.83430839002267	378.5193197278912	65	127
378.5193197278912	381.514693877551	48	127
379.0998185941043	379.6919274376417	77	127
379.0998185941043	381.514693877551	51	127
379.6919274376417	380.35369614512473	75	127
379.6919274376417	380.365306122449	56	127
380.365306122449	380.6439455782313	75	127
380.365306122449	380.98063492063494	60	127
380.6439455782313	380.98063492063494	82	127
380.98063492063494	381.53791383219954	80	127
380.98063492063494	381.53791383219954	63	127
381.53791383219954	382.22290249433104	66	127
381.53791383219954	381.88621315192745	75	127
381.53791383219954	382.22290249433104	49	127
381.53791383219954	382.22290249433104	46	127
381.88621315192745	382.22290249433104	78	127
382.2461224489796	382.9659410430839	45	127
382.2461224489796	382.9659410430839	77	127
382.9659410430839	386.1819047619048	57	127
382.9659410430839	383.5580498866213	85	127
382.9659410430839	386.1819047619048	60	127
383.5580498866213	384.15015873015875	84	127
383.5580498866213	384.3126984126984	63	127
384.3126984126984	384.6842176870748	84	127
384.3126984126984	384.97446712018143	65	127
384.6842176870748	384.97446712018143	78	127
384.97446712018143	385.5781859410431	69	127
384.97446712018143	386.1819047619048	77	127
385.5781859410431	386.2051247165533	72	127
386.2051247165533	386.9017233560091	44	127
386.9017233560091	390.51242630385485	58	127
386.9017233560091	387.7724716553288	78	127
386.9017233560091	390.51242630385485	56	127
387.7724716553288	388.352970521542	77	127
387.7724716553288	388.37619047619046	62	127
388.37619047619046	388.95668934240365	65	127
388.37619047619046	388.64321995464854	77	127
388.64321995464854	388.95668934240365	83	127
388.95668934240365	389.69972789115644	68	127
388.95668934240365	390.51242630385485	82	127
389.69972789115644	390.5356462585034	70	127
390.5356462585034	391.2090249433107	43	127
391.2090249433107	394.622358276644	55	127
391.2090249433107	391.81274376417235	83	127
391.2090249433107	394.622358276644	58	127
391.81274376417235	392.37002267573695	61	127
391.81274376417235	392.3468027210884	82	127
392.37002267573695	392.6602721088435	82	127
392.37002267573695	393.13628117913834	63	127
392.6602721088435	393.13628117913834	76	127
393.13628117913834	393.76321995464855	67	127
393.13628117913834	394.622358276644	75	127
393.76321995464855	394.6455782312925	70	127
394.6455782312925	395.2376870748299	42	127
395.2376870748299	398.34916099773244	54	127
395.2376870748299	395.8878458049887	77	127
395.2376870748299	398.34916099773244	56	127
395.8878458049887	396.5147845804989	75	127
395.8878458049887	396.52639455782315	60	127
396.52639455782315	397.1649433106576	63	127
396.52639455782315	396.8166439909297	75	127
396.8166439909297	397.1649433106576	82	127
397.1649433106576	398.34916099773244	80	127
397.1649433106576	397.7802721088435	66	127
397.7802721088435	398.372380952381	68	127
398.372380952381	399.03414965986394	42	127
399.03414965986394	399.6378684807256	82	127
399.03414965986394	401.9366439909297	56	127
399.03414965986394	401.9366439909297	54	127
399.6378684807256	400.20675736961454	60	127
399.6378684807256	400.1719274376417	80	127
400.20675736961454	400.48539682539683	80	127
400.20675736961454	400.7756462585034	63	127
400.48539682539683	400.7756462585034	77	127
400.7756462585034	401.9366439909297	75	127
400.7756462585034	401.33292517006805	66	127
401.33292517006805	401.9598639455782	68	127
401.9598639455782	402.6912925170068	42	127
402.6912925170068	403.2253514739229	82	127
402.6912925170068	406.05818594104306	56	127
402.6912925170068	406.05818594104306	53	127
403.2253514739229	403.759410430839	61	127
403.2253514739229	403.7361904761905	80	127
403.759410430839	404.0380498866213	80	127
403.759410430839	404.37473922902495	65	127
404.0380498866213	404.37473922902495	87	127
404.37473922902495	406.05818594104306	85	127
404.37473922902495	405.41963718820864	68	127
405.41963718820864	406.0814058956916	73	127
406.0814058956916	408.9374603174603	44	127
406.69673469387754	408.9374603174603	53	127
406.69673469387754	407.5210430839002	82	127
406.69673469387754	410.36548752834466	56	127
407.5210430839002	408.2060317460317	61	127
407.5210430839002	408.18281179138324	80	127
408.2060317460317	408.9490702947846	65	127
408.2060317460317	408.61238095238093	80	127
408.61238095238093	408.9490702947846	85	127
408.9490702947846	409.7269387755102	63	127
408.9490702947846	410.36548752834466	84	127
408.9490702947846	410.36548752834466	44	127
408.9490702947846	410.36548752834466	54	127
409.7269387755102	410.3887074829932	68	127
410.3887074829932	411.18979591836734	41	127
411.18979591836734	414.4173696145125	56	127
411.18979591836734	411.8399546485261	82	127
411.18979591836734	414.4173696145125	53	127
411.8399546485261	412.44367346938776	61	127
411.8399546485261	412.40884353741495	80	127
412.44367346938776	412.75714285714287	80	127
412.44367346938776	413.00095238095236	65	127
412.75714285714287	413.00095238095236	87	127
413.00095238095236	413.86009070294784	68	127
413.00095238095236	414.4173696145125	85	127
413.86009070294784	414.440589569161	73	127
414.440589569161	415.04430839002265	41	127
415.04430839002265	418.1093424036281	53	127
415.04430839002265	415.57836734693876	82	127
415.04430839002265	418.1093424036281	56	127
415.57836734693876	416.21691609977324	80	127
415.57836734693876	416.25174603174605	62	127
416.25174603174605	416.9251247165533	65	127
416.25174603174605	416.5187755102041	80	127
416.5187755102041	416.9251247165533	87	127
416.9251247165533	417.52884353741496	68	127
416.9251247165533	418.60857142857145	86	127
417.52884353741496	418.1093424036281	71	127
418.1093424036281	421.48784580498864	42	127
418.63179138321993	419.42126984126986	87	127
418.63179138321993	421.4530158730159	54	127
418.63179138321993	422.5443537414966	58	127
419.42126984126986	420.24557823129254	89	127
419.42126984126986	420.24557823129254	63	127
420.24557823129254	420.8260770975057	66	127
420.24557823129254	420.8260770975057	90	127
420.8260770975057	421.4530158730159	70	127
420.8260770975057	421.48784580498864	92	127
421.48784580498864	422.5095238095238	94	127
421.48784580498864	422.5095238095238	70	127
421.48784580498864	422.5095238095238	55	127
421.48784580498864	422.5095238095238	43	127
422.5443537414966	425.70226757369613	44	127
422.5443537414966	423.3686621315193	94	127
423.3686621315193	425.05210884353744	65	127
423.3686621315193	424.3903401360544	58	127
423.3686621315193	425.70226757369613	53	127
424.3903401360544	425.05210884353744	56	127
424.3903401360544	425.0753287981859	68	127
425.0753287981859	425.42362811791384	56	127
425.0753287981859	425.7254875283447	73	127
425.0753287981859	427.1186848072562	56	127
425.42362811791384	425.7254875283447	61	127
425.7254875283447	427.1186848072562	60	127
425.7254875283447	426.3988662131519	77	127
425.7254875283447	427.1186848072562	44	127
425.7254875283447	427.1186848072562	54	127
426.3988662131519	427.14190476190475	75	127
427.14190476190475	430.2998185941043	37	127
427.8036734693878	428.7556916099773	63	127
427.8036734693878	430.2998185941043	65	127
427.8036734693878	430.2998185941043	49	127
428.7556916099773	429.3826303854875	68	127
428.7556916099773	429.359410430839	61	127
429.3826303854875	429.81219954648526	61	127
429.3826303854875	432.16902494331066	73	127
429.81219954648526	430.32303854875283	63	127
430.32303854875283	432.16902494331066	61	127
430.32303854875283	431.3098866213152	70	127
430.32303854875283	431.3098866213152	42	127
431.3098866213152	432.16902494331066	66	127
431.3098866213152	432.16902494331066	39	127
432.1922448979592	435.0134693877551	37	127
432.90045351473924	433.5622222222222	75	127
432.90045351473924	435.0134693877551	53	127
433.5622222222222	434.3284807256236	73	127
433.5622222222222	434.35170068027213	56	127
434.35170068027213	434.71160997732426	73	127
434.35170068027213	436.78979591836736	61	127
434.71160997732426	435.03668934240363	75	127
435.03668934240363	436.78979591836736	73	127
435.03668934240363	435.9190476190476	58	127
435.03668934240363	435.9190476190476	42	127
435.9190476190476	436.8130158730159	54	127
435.9190476190476	436.8130158730159	39	127
436.8130158730159	439.6806802721088	37	127
437.75342403628116	439.6806802721088	53	127
437.75342403628116	438.39197278911564	87	127
438.39197278911564	439.01891156462585	85	127
438.39197278911564	439.05374149659866	56	127
439.05374149659866	439.378820861678	85	127
439.05374149659866	441.87496598639456	61	127
439.378820861678	440.20312925170066	87	127
440.20312925170066	444.17374149659867	85	127
440.20312925170066	441.09709750566896	58	127
440.20312925170066	441.09709750566896	42	127
441.09709750566896	441.8981859410431	54	127
441.09709750566896	441.87496598639456	39	127
441.8981859410431	445.3579591836735	37	127
442.65283446712016	454.3208616780045	53	127
442.65283446712016	454.3208616780045	49	127
443.37265306122447	444.19696145124715	56	127
444.19696145124715	445.3927891156463	61	127
444.19696145124715	444.76585034013607	85	127
444.76585034013607	445.3927891156463	87	127
445.3927891156463	446.24031746031744	85	127
445.3927891156463	446.24031746031744	65	127
446.24031746031744	447.0414058956916	68	127
446.24031746031744	446.64666666666665	80	127
446.64666666666665	447.0414058956916	82	127
447.0414058956916	454.3208616780045	37	127
447.0414058956916	447.8424943310658	80	127
447.0414058956916	454.3208616780045	65	127
447.0414058956916	454.3208616780045	73	127
447.8424943310658	448.5623129251701	77	127
448.6087528344671	450.0251700680272	78	127
450.04839002267573	454.3208616780045	77	127
460.4509297052154	460.64829931972787	61	127
