# onset,offset,note,velocity
0.23142857142857143	1.6942857142857144	55	127
0.23142857142857143	1.6942857142857144	58	127
0.23142857142857143	1.6942857142857144	51	127
0.23142857142857143	0.9512471655328798	75	127
0.23142857142857143	1.6942857142857144	63	127
0.986077097505669	1.6942857142857144	79	127
1.7291156462585033	2.3560544217687074	79	127
2.3908843537414968	2.9365306122448978	79	127
2.9713832199546486	4.411020408163266	58	127
2.9713832199546486	4.411020408163266	51	127
2.9713832199546486	4.411020408163266	63	127
2.9713832199546486	3.667981859410431	79	127
2.9713832199546486	4.411020408163266	67	127
3.70281179138322	4.411020408163266	82	127
4.434240362811791	5.1540589569161	82	127
5.177278911564626	5.490748299319728	82	127
5.525578231292517	6.779455782312925	58	127
5.525578231292517	6.140907029478458	82	127
5.525578231292517	6.779455782312925	68	127
5.525578231292517	6.779455782312925	65	127
5.525578231292517	6.779455782312925	50	127
6.175736961451247	6.779455782312925	80	127
6.802675736961452	7.313514739229025	80	127
7.336734693877551	7.928843537414966	77	127
7.952063492063492	9.217528344671202	58	127
7.952063492063492	9.217528344671202	62	127
7.952063492063492	9.217528344671202	56	127
7.952063492063492	8.474512471655329	77	127
7.952063492063492	9.217528344671202	65	127
8.497732426303855	9.217528344671202	74	127
9.252380952380953	9.763219954648527	74	127
9.798049886621316	10.424965986394557	70	127
10.45981859410431	11.12156462585034	70	127
10.45981859410431	11.84140589569161	55	127
10.45981859410431	11.84140589569161	58	127
10.45981859410431	11.84140589569161	63	127
11.156417233560092	11.84140589569161	75	127
11.876235827664399	12.189705215419501	75	127
12.329024943310658	12.479954648526077	74	127
12.479954648526077	12.619274376417234	75	127
12.619274376417234	12.805034013605443	77	127
12.805034013605443	12.955963718820861	75	127
12.955963718820861	14.302721088435375	58	127
12.955963718820861	14.302721088435375	50	127
12.955963718820861	13.67578231292517	70	127
12.955963718820861	14.302721088435375	65	127
13.699002267573697	14.302721088435375	77	127
14.302721088435375	14.732290249433106	77	127
14.929659863945579	14.999319727891157	76	127
14.999319727891157	15.057369614512472	77	127
15.057369614512472	15.231519274376417	79	127
15.231519274376417	15.405668934240364	77	127
15.405668934240364	16.04421768707483	63	127
15.405668934240364	15.858458049886622	70	127
15.405668934240364	16.04421768707483	58	127
15.405668934240364	16.04421768707483	67	127
15.405668934240364	16.04421768707483	51	127
16.067437641723355	16.241587301587302	78	127
16.241587301587302	16.34607709750567	79	127
16.34607709750567	16.50861678004535	80	127
16.50861678004535	16.659546485260773	79	127
16.659546485260773	17.332925170068027	68	127
16.659546485260773	17.332925170068027	44	127
16.659546485260773	17.135555555555555	72	127
16.659546485260773	17.332925170068027	60	127
16.659546485260773	17.332925170068027	65	127
17.367755102040817	17.669591836734693	80	127
17.669591836734693	17.832154195011338	82	127
17.86698412698413	18.052721088435373	84	127
18.087573696145125	18.99315192743764	62	127
18.087573696145125	18.99315192743764	58	127
18.087573696145125	18.99315192743764	65	127
18.087573696145125	18.99315192743764	46	127
18.087573696145125	19.57362811791383	77	127
19.02798185941043	19.236961451247165	70	127
19.271791383219956	19.608480725623583	70	127
19.608480725623583	19.991609977324263	69	127
19.991609977324263	20.258639455782312	68	127
20.258639455782312	20.397936507936507	67	127
20.397936507936507	20.81591836734694	65	127
20.81591836734694	22.290385487528344	39	127
20.81591836734694	21.558956916099774	63	127
20.81591836734694	21.558956916099774	55	127
21.59378684807256	22.290385487528344	67	127
21.59378684807256	22.290385487528344	58	127
22.325215419501134	22.975374149659864	67	127
22.325215419501134	22.975374149659864	58	127
23.010204081632654	23.42816326530612	67	127
23.010204081632654	23.42816326530612	58	127
23.462993197278912	23.962222222222223	58	127
23.462993197278912	24.76331065759637	82	127
23.462993197278912	23.962222222222223	67	127
23.462993197278912	23.985442176870748	51	127
23.985442176870748	24.40340136054422	70	127
23.985442176870748	24.40340136054422	55	127
23.985442176870748	24.40340136054422	58	127
24.438231292517006	25.111609977324264	70	127
24.438231292517006	25.111609977324264	58	127
24.438231292517006	25.111609977324264	55	127
24.76331065759637	25.14643990929705	79	127
25.14643990929705	25.808208616780046	70	127
25.14643990929705	25.494739229024944	77	127
25.14643990929705	25.808208616780046	55	127
25.14643990929705	25.808208616780046	58	127
25.494739229024944	25.81981859410431	75	127
25.81981859410431	27.781904761904762	58	127
25.81981859410431	26.469977324263038	75	127
25.81981859410431	26.469977324263038	70	127
25.81981859410431	26.50480725623583	55	127
26.50480725623583	27.20140589569161	68	127
26.50480725623583	27.421995464852607	74	127
26.50480725623583	27.20140589569161	53	127
27.213015873015873	27.793514739229025	53	127
27.213015873015873	27.781904761904762	68	127
27.456825396825398	27.793514739229025	75	127
27.793514739229025	28.374013605442176	50	127
27.793514739229025	28.060544217687074	77	127
27.793514739229025	28.374013605442176	65	127
27.793514739229025	28.374013605442176	58	127
28.060544217687074	28.408843537414967	79	127
28.408843537414967	29.883310657596372	80	127
28.408843537414967	29.093832199546487	65	127
28.408843537414967	29.093832199546487	58	127
28.408843537414967	29.128662131519274	50	127
29.128662131519274	29.593061224489794	46	127
29.128662131519274	29.593061224489794	62	127
29.128662131519274	29.593061224489794	53	127
29.593061224489794	30.22	46	127
29.593061224489794	30.196780045351474	62	127
29.593061224489794	30.196780045351474	53	127
29.883310657596372	30.127120181405896	77	127
30.22	30.951428571428572	58	127
30.22	30.48702947845805	82	127
30.22	30.951428571428572	50	127
30.22	30.951428571428572	44	127
30.60312925170068	30.846938775510203	82	127
30.98625850340136	31.659637188208617	58	127
30.98625850340136	33.482403628117915	58	127
30.98625850340136	36.001768707482995	51	127
30.98625850340136	31.717687074829932	82	127
30.98625850340136	33.482403628117915	43	127
31.659637188208617	32.065986394557825	63	127
31.75251700680272	32.08920634920635	79	127
32.08920634920635	32.60004535147392	63	127
32.08920634920635	32.774195011337866	75	127
32.80902494331066	32.983174603174604	62	127
32.983174603174604	33.145714285714284	63	127
33.145714285714284	33.3314739229025	65	127
33.3314739229025	33.50562358276644	63	127
33.50562358276644	36.001768707482995	60	127
33.50562358276644	36.001768707482995	44	127
33.50562358276644	34.062879818594105	60	127
33.50562358276644	34.411201814058956	84	127
34.09773242630386	34.72467120181406	68	127
34.43439909297052	34.747891156462586	80	127
34.747891156462586	35.22390022675737	68	127
34.747891156462586	35.36321995464853	77	127
35.398049886621315	35.58378684807256	67	127
35.58378684807256	35.72312925170068	68	127
35.72312925170068	35.885668934240364	70	127
35.885668934240364	36.001768707482995	68	127
36.02498866213152	36.67514739229025	46	127
36.02498866213152	36.47775510204082	67	127
36.02498866213152	36.67514739229025	58	127
36.709977324263036	37.232403628117915	75	127
36.709977324263036	36.89573696145125	69	127
36.89573696145125	36.96539682539682	70	127
36.96539682539682	37.13954648526077	72	127
37.13954648526077	37.255646258503404	70	127
37.267256235827666	37.81292517006803	65	127
37.267256235827666	37.998662131519275	46	127
37.267256235827666	37.998662131519275	56	127
38.03351473922903	38.25408163265306	69	127
38.03351473922903	38.69528344671202	74	127
38.25408163265306	38.37018140589569	70	127
38.37018140589569	38.55596371882086	72	127
38.55596371882086	38.71850340136054	70	127
38.71850340136054	40.204580498866214	51	127
38.71850340136054	40.204580498866214	75	127
38.71850340136054	40.204580498866214	63	127
38.71850340136054	40.204580498866214	55	127
41.09854875283447	41.82997732426304	70	127
41.86480725623583	42.816802721088436	46	127
41.86480725623583	42.816802721088436	77	127
41.86480725623583	42.816802721088436	68	127
41.86480725623583	42.816802721088436	50	127
42.82843537414966	43.17673469387755	51	127
42.82843537414966	43.17673469387755	75	127
42.82843537414966	43.17673469387755	67	127
42.82843537414966	43.17673469387755	46	127
43.17673469387755	43.757233560090704	46	127
43.17673469387755	43.757233560090704	74	127
43.17673469387755	43.757233560090704	65	127
43.17673469387755	43.757233560090704	53	127
43.768843537414966	44.372562358276646	55	127
43.768843537414966	44.372562358276646	72	127
43.768843537414966	44.372562358276646	63	127
43.768843537414966	44.372562358276646	46	127
44.39578231292517	46.53201814058957	46	127
44.39578231292517	46.53201814058957	70	127
44.39578231292517	46.53201814058957	62	127
44.39578231292517	46.53201814058957	56	127
46.56684807256236	47.22861678004535	70	127
46.56684807256236	47.22861678004535	46	127
46.56684807256236	47.22861678004535	55	127
46.56684807256236	47.22861678004535	64	127
47.25181405895692	47.855555555555554	56	127
47.25181405895692	47.855555555555554	70	127
47.25181405895692	47.855555555555554	65	127
47.25181405895692	47.855555555555554	46	127
47.86716553287982	48.36639455782313	46	127
47.86716553287982	48.36639455782313	70	127
47.86716553287982	48.36639455782313	62	127
47.86716553287982	48.36639455782313	53	127
48.38961451247165	49.16748299319728	55	127
48.38961451247165	49.16748299319728	70	127
48.38961451247165	49.16748299319728	63	127
48.38961451247165	49.16748299319728	46	127
49.20231292517007	49.80603174603175	46	127
49.20231292517007	49.80603174603175	72	127
49.20231292517007	49.80603174603175	63	127
49.20231292517007	49.80603174603175	57	127
49.840861678004536	51.303718820861675	46	127
49.840861678004536	50.978639455782314	65	127
49.840861678004536	50.978639455782314	62	127
49.840861678004536	51.303718820861675	58	127
51.0134693877551	51.15278911564626	63	127
51.0134693877551	51.15278911564626	67	127
51.15278911564626	51.32693877551021	68	127
51.15278911564626	51.32693877551021	65	127
51.32693877551021	51.524308390022675	67	127
51.32693877551021	51.524308390022675	70	127
51.59396825396826	51.77972789115646	69	127
51.59396825396826	51.77972789115646	72	127
51.83777777777778	52.023537414965986	74	127
51.83777777777778	52.023537414965986	70	127
52.0815873015873	52.128027210884355	75	127
52.0815873015873	52.128027210884355	72	127
52.18607709750567	52.348616780045354	74	127
52.18607709750567	52.348616780045354	77	127
52.38344671201814	52.42988662131519	79	127
52.38344671201814	52.42988662131519	75	127
52.48793650793651	53.439954648526076	77	127
52.48793650793651	53.439954648526076	62	127
52.48793650793651	53.439954648526076	58	127
52.48793650793651	53.439954648526076	80	127
53.4631746031746	53.706984126984125	63	127
53.4631746031746	53.706984126984125	79	127
53.4631746031746	53.706984126984125	75	127
53.4631746031746	53.706984126984125	60	127
53.706984126984125	54.28748299319728	62	127
53.706984126984125	54.28748299319728	77	127
53.706984126984125	54.28748299319728	74	127
53.706984126984125	54.28748299319728	65	127
54.310702947845805	54.90281179138322	67	127
54.310702947845805	54.90281179138322	75	127
54.310702947845805	54.90281179138322	72	127
54.310702947845805	54.90281179138322	63	127
54.93764172335601	57.08548752834467	68	127
54.93764172335601	55.63424036281179	70	127
54.93764172335601	57.08548752834467	74	127
54.93764172335601	57.08548752834467	65	127
55.65746031746032	56.37727891156462	71	127
56.41210884353742	57.08548752834467	70	127
57.12031746031746	57.758866213151926	65	127
57.12031746031746	57.758866213151926	74	127
57.12031746031746	57.758866213151926	70	127
57.12031746031746	57.758866213151926	68	127
57.78208616780045	58.15360544217687	75	127
57.78208616780045	59.059183673469384	63	127
57.78208616780045	59.059183673469384	67	127
57.78208616780045	59.059183673469384	70	127
58.15360544217687	58.22326530612245	77	127
58.22326530612245	58.30453514739229	75	127
58.30453514739229	58.409024943310655	74	127
58.409024943310655	58.73410430839002	75	127
58.73410430839002	59.082403628117916	77	127
59.082403628117916	60.44077097505669	60	127
59.082403628117916	59.47714285714286	79	127
59.082403628117916	60.44077097505669	75	127
59.082403628117916	60.44077097505669	63	127
59.47714285714286	59.60485260770975	81	127
59.60485260770975	59.70934240362812	79	127
59.70934240362812	59.82544217687075	77	127
59.82544217687075	60.0924716553288	79	127
60.0924716553288	60.47560090702948	81	127
60.47560090702948	61.97328798185941	74	127
60.47560090702948	61.62498866213152	84	127
60.47560090702948	61.97328798185941	65	127
60.47560090702948	61.97328798185941	58	127
61.62498866213152	62.0081179138322	82	127
62.0081179138322	62.48412698412698	81	127
62.48412698412698	62.96013605442177	80	127
62.96013605442177	63.285215419501135	79	127
63.285215419501135	63.67995464852608	77	127
63.67995464852608	64.45782312925171	75	127
63.67995464852608	69.09020408163265	63	127
63.67995464852608	69.09020408163265	55	127
64.49265306122449	65.07312925170068	79	127
65.09637188208617	65.44467120181406	79	127
65.47950113378685	65.63043083900227	63	127
65.66526077097505	66.21092970521542	58	127
65.66526077097505	65.85102040816327	67	127
65.85102040816327	66.03678004535148	70	127
66.03678004535148	66.23414965986395	75	127
66.23414965986395	66.43151927437641	79	127
66.23414965986395	66.39668934240363	55	127
66.43151927437641	67.73181405895691	51	127
66.43151927437641	67.11650793650794	79	127
67.15133786848072	67.73181405895691	82	127
67.76666666666667	68.21945578231292	82	127
68.25428571428571	68.40521541950113	46	127
68.42843537414966	68.9160544217687	43	127
68.42843537414966	68.6025850340136	70	127
68.6025850340136	68.76512471655329	75	127
68.76512471655329	68.93927437641723	79	127
68.93927437641723	69.09020408163265	39	127
68.93927437641723	69.12503401360544	82	127
69.12503401360544	70.43696145124717	38	127
69.12503401360544	74.62816326530613	58	127
69.12503401360544	71.841768707483	65	127
69.12503401360544	69.81002267573696	82	127
69.84485260770975	70.14671201814059	80	127
70.30925170068028	70.43696145124717	80	127
70.47179138321995	71.11034013605442	80	127
70.959410430839	71.11034013605442	65	127
71.14517006802721	71.64439909297052	62	127
71.14517006802721	71.45863945578232	77	127
71.67922902494331	71.841768707483	77	127
71.67922902494331	71.841768707483	58	127
71.85337868480725	73.15369614512471	56	127
71.85337868480725	74.62816326530613	62	127
71.85337868480725	72.44548752834467	77	127
72.48031746031747	72.7821768707483	74	127
72.99115646258504	73.15369614512471	74	127
73.1885260770975	73.88512471655329	74	127
73.7225850340136	73.88512471655329	44	127
73.91995464852607	74.23342403628118	70	127
73.91995464852607	74.44240362811792	46	127
74.47723356009071	74.62816326530613	70	127
74.47723356009071	74.62816326530613	41	127
74.66299319727891	76.04458049886621	43	127
74.66299319727891	78.92385487528345	63	127
74.66299319727891	75.33637188208617	70	127
74.66299319727891	76.6134693877551	58	127
75.3595918367347	76.04458049886621	75	127
76.079410430839	76.6134693877551	75	127
76.63668934240363	76.78761904761905	51	127
76.63668934240363	76.78761904761905	55	127
76.82244897959184	77.26360544217687	53	127
76.82244897959184	76.93854875283446	74	127
76.82244897959184	77.26360544217687	56	127
76.97337868480726	77.08947845804988	75	127
77.12430839002268	77.26360544217687	77	127
77.28684807256236	77.43777777777778	55	127
77.28684807256236	77.43777777777778	75	127
77.28684807256236	77.43777777777778	58	127
77.47260770975056	78.92385487528345	56	127
77.47260770975056	79.34181405895691	60	127
77.47260770975056	78.16920634920635	72	127
78.20403628117914	78.92385487528345	80	127
78.93546485260771	79.34181405895691	80	127
78.93546485260771	80.22417233560091	65	127
79.35342403628118	79.5043537414966	41	127
79.35342403628118	79.5043537414966	56	127
79.53916099773242	80.0384126984127	44	127
79.53916099773242	79.71333333333334	79	127
79.53916099773242	80.0384126984127	60	127
79.71333333333334	79.87587301587301	80	127
79.87587301587301	80.06163265306122	82	127
80.06163265306122	80.23578231292517	80	127
80.06163265306122	80.22417233560091	56	127
80.06163265306122	80.22417233560091	41	127
80.25900226757369	80.95560090702948	58	127
80.25900226757369	80.74662131519274	79	127
80.25900226757369	80.95560090702948	63	127
80.25900226757369	80.95560090702948	46	127
80.99043083900227	81.17616780045351	81	127
81.17616780045351	81.36195011337868	82	127
81.36195011337868	81.53609977324263	84	127
81.53609977324263	81.67541950113379	82	127
81.67541950113379	82.19784580498866	77	127
81.67541950113379	82.38362811791383	46	127
81.67541950113379	82.38362811791383	56	127
81.67541950113379	82.38362811791383	62	127
82.41845804988662	82.63904761904762	81	127
82.63904761904762	82.78997732426303	82	127
82.78997732426303	82.9408843537415	84	127
82.9408843537415	83.16149659863946	82	127
83.16149659863946	85.05392290249434	75	127
83.16149659863946	85.05392290249434	63	127
83.16149659863946	85.05392290249434	55	127
83.16149659863946	85.05392290249434	51	127
86.12204081632653	86.89988662131519	58	127
86.12204081632653	86.89988662131519	46	127
86.92312925170069	88.37437641723356	70	127
86.92312925170069	88.37437641723356	58	127
88.40918367346939	88.94326530612246	66	127
88.40918367346939	88.94326530612246	54	127
88.96648526077098	89.67469387755102	62	127
88.96648526077098	89.67469387755102	50	127
89.70952380952382	91.0330612244898	51	127
89.70952380952382	91.0330612244898	63	127
91.05628117913832	91.76448979591837	58	127
91.05628117913832	91.76448979591837	46	127
91.78770975056689	92.42625850340136	50	127
91.78770975056689	92.42625850340136	62	127
91.78770975056689	92.42625850340136	50	127
92.44947845804988	93.0415873015873	51	127
92.44947845804988	93.0415873015873	63	127
92.44947845804988	93.0415873015873	51	127
93.0764172335601	93.61047619047619	53	127
93.0764172335601	93.61047619047619	53	127
93.0764172335601	93.61047619047619	65	127
93.64530612244899	94.30707482993198	54	127
93.64530612244899	94.30707482993198	54	127
93.64530612244899	94.30707482993198	66	127
94.3302947845805	94.8759410430839	69	127
94.3302947845805	94.8759410430839	57	127
94.3302947845805	94.8759410430839	57	127
94.91079365079365	95.64222222222222	58	127
94.91079365079365	95.64222222222222	70	127
94.91079365079365	95.64222222222222	58	127
95.66544217687076	96.28077097505668	72	127
95.66544217687076	96.28077097505668	60	127
95.66544217687076	96.28077097505668	60	127
96.32721088435375	96.8728798185941	61	127
96.32721088435375	96.8728798185941	61	127
96.32721088435375	96.8728798185941	73	127
96.89609977324263	97.69718820861678	76	127
96.89609977324263	97.69718820861678	64	127
96.89609977324263	97.69718820861678	64	127
97.74362811791383	99.6708843537415	77	127
97.74362811791383	98.97428571428571	65	127
97.74362811791383	98.97428571428571	65	127
97.74362811791383	99.6708843537415	65	127
99.00911564625851	99.6708843537415	61	127
99.00911564625851	99.6708843537415	70	127
99.70571428571428	100.99442176870748	65	127
99.70571428571428	100.33265306122449	75	127
99.70571428571428	100.33265306122449	72	127
99.70571428571428	100.33265306122449	57	127
100.35587301587302	100.99442176870748	58	127
100.35587301587302	100.99442176870748	73	127
100.35587301587302	100.99442176870748	70	127
101.02925170068028	101.60975056689342	72	127
101.02925170068028	101.60975056689342	63	127
101.02925170068028	101.60975056689342	57	127
101.02925170068028	101.60975056689342	53	127
101.64458049886622	102.30634920634921	70	127
101.64458049886622	102.30634920634921	61	127
101.64458049886622	102.30634920634921	58	127
101.64458049886622	102.30634920634921	54	127
102.34117913832199	103.0958276643991	66	127
102.34117913832199	103.0958276643991	58	127
102.34117913832199	103.0958276643991	63	127
102.34117913832199	103.0958276643991	51	127
103.13065759637188	103.85047619047619	65	127
103.13065759637188	103.85047619047619	58	127
103.13065759637188	103.85047619047619	61	127
103.13065759637188	103.85047619047619	53	127
104.63995464852607	105.42943310657597	65	127
104.63995464852607	105.42943310657597	57	127
104.63995464852607	105.42943310657597	60	127
104.63995464852607	105.42943310657597	41	127
106.21891156462586	107.8326984126984	46	127
106.21891156462586	107.8326984126984	58	127
106.21891156462586	107.8326984126984	58	127
108.50607709750567	109.00530612244899	58	127
109.04013605442177	109.20267573696145	75	127
109.04013605442177	110.15469387755103	70	127
109.20267573696145	109.55097505668934	77	127
109.55097505668934	109.80639455782313	78	127
109.80639455782313	110.1895238095238	80	127
110.1895238095238	110.39850340136054	82	127
110.1895238095238	110.59587301587301	66	127
110.39850340136054	110.6307029478458	83	127
110.6307029478458	111.257641723356	62	127
110.6307029478458	110.95578231292517	82	127
110.95578231292517	111.26925170068027	80	127
111.26925170068027	111.6059410430839	80	127
111.26925170068027	112.33736961451247	63	127
111.6059410430839	111.90780045351474	78	127
111.90780045351474	112.07034013605443	77	127
112.07034013605443	112.37219954648526	75	127
112.37219954648526	112.89464852607709	58	127
112.37219954648526	112.69727891156462	74	127
112.69727891156462	112.91786848072563	71	127
112.91786848072563	113.17328798185942	70	127
112.91786848072563	113.45192743764173	62	127
113.17328798185942	113.49836734693878	68	127
113.49836734693878	113.83505668934241	66	127
113.49836734693878	114.13691609977325	63	127
113.83505668934241	114.16013605442177	74	127
114.16013605442177	114.43877551020408	75	127
114.16013605442177	114.70580498866214	65	127
114.43877551020408	114.71741496598639	74	127
114.71741496598639	115.00766439909297	75	127
114.71741496598639	115.22825396825397	66	127
115.00766439909297	115.26308390022676	78	127
115.26308390022676	115.54172335600907	77	127
115.26308390022676	115.82036281179138	69	127
115.54172335600907	115.85519274376418	75	127
115.85519274376418	116.22671201814059	73	127
115.85519274376418	116.22671201814059	70	127
115.85519274376418	116.43569160997733	58	127
115.85519274376418	116.43569160997733	46	127
116.22671201814059	116.47052154195012	69	127
116.22671201814059	116.47052154195012	81	127
116.47052154195012	116.78399092970521	70	127
116.47052154195012	117.02780045351474	60	127
116.47052154195012	116.78399092970521	82	127
116.47052154195012	117.02780045351474	48	127
116.78399092970521	117.05102040816327	81	127
116.78399092970521	117.05102040816327	69	127
117.05102040816327	117.39931972789115	82	127
117.05102040816327	117.39931972789115	70	127
117.05102040816327	117.65473922902494	61	127
117.05102040816327	117.65473922902494	49	127
117.39931972789115	117.66634920634921	85	127
117.39931972789115	117.66634920634921	73	127
117.66634920634921	118.27006802721088	64	127
117.66634920634921	117.96820861678005	84	127
117.66634920634921	117.96820861678005	72	127
117.66634920634921	118.27006802721088	52	127
117.96820861678005	118.30489795918368	70	127
117.96820861678005	118.30489795918368	82	127
118.30489795918368	118.61836734693877	81	127
118.30489795918368	118.61836734693877	69	127
118.30489795918368	119.4891156462585	65	127
118.30489795918368	119.4891156462585	53	127
118.61836734693877	118.88539682539682	76	127
118.61836734693877	118.88539682539682	88	127
118.88539682539682	119.15242630385488	89	127
118.88539682539682	119.15242630385488	77	127
119.15242630385488	119.51233560090704	88	127
119.15242630385488	119.51233560090704	76	127
119.51233560090704	119.82580498866213	77	127
119.51233560090704	119.82580498866213	89	127
119.51233560090704	120.12766439909296	61	127
119.51233560090704	120.12766439909296	49	127
119.82580498866213	120.1508843537415	90	127
119.82580498866213	120.1508843537415	78	127
120.1508843537415	120.45274376417234	89	127
120.1508843537415	120.45274376417234	77	127
120.1508843537415	120.7429931972789	57	127
120.1508843537415	120.7429931972789	45	127
120.45274376417234	120.7778231292517	87	127
120.45274376417234	120.7778231292517	75	127
120.7778231292517	120.97519274376417	85	127
120.7778231292517	120.97519274376417	73	127
120.7778231292517	121.26544217687075	58	127
120.7778231292517	121.26544217687075	46	127
120.97519274376417	121.28866213151927	84	127
120.97519274376417	121.28866213151927	72	127
121.28866213151927	121.53247165532879	82	127
121.28866213151927	121.53247165532879	70	127
121.28866213151927	121.83433106575964	53	127
121.28866213151927	121.83433106575964	41	127
121.53247165532879	121.86916099773242	81	127
121.53247165532879	121.86916099773242	69	127
121.86916099773242	122.13619047619048	84	127
121.86916099773242	122.13619047619048	72	127
121.86916099773242	122.43804988662131	54	127
121.86916099773242	122.43804988662131	42	127
122.13619047619048	122.47287981859411	82	127
122.13619047619048	122.47287981859411	70	127
122.47287981859411	122.79795918367347	80	127
122.47287981859411	122.79795918367347	68	127
122.47287981859411	123.1346485260771	51	127
122.47287981859411	123.1346485260771	39	127
122.79795918367347	123.14625850340136	78	127
122.79795918367347	123.14625850340136	66	127
123.15786848072563	123.5409977324263	78	127
123.15786848072563	123.5409977324263	66	127
123.15786848072563	123.86607709750567	53	127
123.15786848072563	123.86607709750567	41	127
123.5409977324263	123.90090702947846	77	127
123.5409977324263	123.90090702947846	65	127
123.90090702947846	124.12149659863945	75	127
123.90090702947846	124.12149659863945	63	127
124.12149659863945	124.26081632653062	73	127
124.12149659863945	124.26081632653062	61	127
124.28403628117914	124.62072562358277	73	127
124.28403628117914	124.62072562358277	61	127
124.28403628117914	124.95741496598639	53	127
124.28403628117914	124.95741496598639	41	127
124.62072562358277	124.99224489795918	72	127
124.62072562358277	124.99224489795918	60	127
124.99224489795918	125.35215419501134	75	127
124.99224489795918	125.35215419501134	63	127
125.35215419501134	125.71206349206349	69	127
125.35215419501134	125.71206349206349	57	127
125.71206349206349	126.91950113378685	70	127
125.71206349206349	126.91950113378685	58	127
125.71206349206349	126.91950113378685	58	127
125.71206349206349	126.91950113378685	46	127
127.73219954648526	128.382358276644	49	127
128.41718820861678	129.62460317460318	61	127
129.64784580498866	130.22834467120182	58	127
129.64784580498866	130.93655328798187	73	127
130.22834467120182	130.93655328798187	61	127
130.22834467120182	130.95977324263038	80	127
130.22834467120182	130.95977324263038	53	127
130.95977324263038	131.4590022675737	61	127
130.95977324263038	131.4590022675737	82	127
130.95977324263038	131.4590022675737	54	127
130.95977324263038	131.77244897959184	73	127
131.4590022675737	131.77244897959184	49	127
131.4590022675737	131.77244897959184	65	127
131.4590022675737	131.77244897959184	80	127
132.17879818594105	132.64319727891157	54	127
132.17879818594105	132.64319727891157	82	127
132.17879818594105	132.64319727891157	66	127
132.17879818594105	132.99151927437643	73	127
132.64319727891157	132.99151927437643	80	127
132.64319727891157	132.99151927437643	65	127
132.64319727891157	132.99151927437643	49	127
133.3746485260771	134.5820634920635	58	127
134.61691609977325	135.35995464852607	54	127
134.61691609977325	135.99850340136055	70	127
135.35995464852607	135.99850340136055	58	127
135.35995464852607	136.01011337868482	77	127
135.35995464852607	136.01011337868482	50	127
136.01011337868482	136.69510204081632	78	127
136.01011337868482	136.69510204081632	58	127
136.01011337868482	136.69510204081632	51	127
136.01011337868482	137.03179138321997	70	127
136.69510204081632	137.03179138321997	77	127
136.69510204081632	137.03179138321997	62	127
136.69510204081632	137.03179138321997	46	127
137.36848072562358	138.05346938775511	78	127
137.36848072562358	138.05346938775511	63	127
137.36848072562358	138.05346938775511	51	127
137.36848072562358	138.05346938775511	70	127
138.05346938775511	138.37854875283446	61	127
138.05346938775511	138.63396825396825	46	127
138.05346938775511	138.37854875283446	67	127
138.39015873015873	138.63396825396825	87	127
138.66879818594106	139.94589569161	87	127
138.66879818594106	139.35378684807256	68	127
138.66879818594106	140.5147619047619	63	127
138.66879818594106	139.35378684807256	47	127
139.35378684807256	139.98072562358277	43	127
139.35378684807256	139.98072562358277	73	127
139.98072562358277	140.5380045351474	83	127
139.98072562358277	140.5380045351474	71	127
139.98072562358277	140.5380045351474	44	127
140.5380045351474	141.06045351473924	79	127
140.5380045351474	141.06045351473924	70	127
140.5380045351474	141.06045351473924	61	127
140.5380045351474	141.06045351473924	39	127
141.06045351473924	141.68736961451248	68	127
141.06045351473924	141.71061224489796	80	127
141.06045351473924	141.71061224489796	59	127
141.06045351473924	141.71061224489796	40	127
141.71061224489796	142.38399092970522	58	127
141.71061224489796	142.38399092970522	77	127
141.71061224489796	142.38399092970522	68	127
141.71061224489796	142.38399092970522	38	127
142.38399092970522	143.080589569161	78	127
142.38399092970522	143.080589569161	66	127
142.38399092970522	143.080589569161	58	127
142.38399092970522	143.080589569161	39	127
143.080589569161	143.8004081632653	75	127
143.080589569161	143.8004081632653	70	127
143.080589569161	143.8004081632653	54	127
143.080589569161	143.8004081632653	42	127
143.8004081632653	144.5898866213152	76	127
143.8004081632653	144.5898866213152	71	127
143.8004081632653	144.5898866213152	56	127
143.8004081632653	144.5898866213152	44	127
145.1819954648526	145.85537414965987	68	127
145.1819954648526	145.85537414965987	74	127
145.1819954648526	145.85537414965987	53	127
145.1819954648526	145.85537414965987	46	127
146.5055328798186	147.68975056689342	75	127
146.5055328798186	147.68975056689342	66	127
146.5055328798186	147.68975056689342	51	127
146.5055328798186	147.68975056689342	39	127
148.38632653061225	149.1409977324263	49	127
149.1409977324263	150.94052154195012	61	127
149.1409977324263	150.3019954648526	61	127
149.51249433106577	149.87242630385487	72	127
149.87242630385487	150.0581859410431	73	127
150.0581859410431	150.32519274376418	72	127
150.32519274376418	150.9637641723356	58	127
150.32519274376418	150.63868480725623	73	127
150.63868480725623	150.9637641723356	75	127
150.9637641723356	151.17274376417234	61	127
150.9637641723356	151.1959410430839	73	127
150.9637641723356	151.17274376417234	80	127
150.9637641723356	151.4397732426304	53	127
151.1959410430839	151.4049433106576	61	127
151.1959410430839	151.41655328798186	71	127
151.1959410430839	151.4049433106576	80	127
151.4397732426304	152.07832199546485	54	127
151.4397732426304	151.78807256235828	83	127
151.4397732426304	151.78807256235828	71	127
151.4397732426304	151.78807256235828	68	127
151.78807256235828	151.99705215419502	66	127
151.78807256235828	151.99705215419502	70	127
151.78807256235828	151.99705215419502	82	127
152.1015419501134	152.26408163265307	80	127
152.1015419501134	152.26408163265307	68	127
152.1015419501134	152.26408163265307	65	127
152.1015419501134	152.33374149659863	49	127
152.36857142857144	152.5659410430839	68	127
152.36857142857144	152.5659410430839	80	127
152.36857142857144	152.5659410430839	65	127
152.6936507936508	152.99551020408163	71	127
152.6936507936508	152.99551020408163	68	127
152.6936507936508	153.18126984126985	54	127
152.6936507936508	152.99551020408163	83	127
152.99551020408163	153.07678004535148	82	127
152.99551020408163	153.07678004535148	70	127
152.99551020408163	153.07678004535148	66	127
153.21609977324263	153.3902494331066	68	127
153.21609977324263	153.3902494331066	80	127
153.21609977324263	153.3902494331066	65	127
153.21609977324263	153.494716553288	49	127
153.52956916099774	153.69210884353743	80	127
153.52956916099774	153.69210884353743	68	127
153.52956916099774	153.69210884353743	65	127
153.87786848072562	154.96920634920636	58	127
153.87786848072562	155.63097505668935	58	127
154.19133786848073	154.51639455782313	69	127
154.51639455782313	154.67895691609976	70	127
154.67895691609976	154.99242630385487	69	127
154.99242630385487	155.28267573696147	70	127
154.99242630385487	155.63097505668935	54	127
155.28267573696147	155.65419501133786	71	127
155.65419501133786	155.88639455782314	58	127
155.65419501133786	155.88639455782314	77	127
155.65419501133786	155.90961451247165	70	127
155.65419501133786	156.1185941043084	50	127
155.90961451247165	156.1185941043084	58	127
155.90961451247165	156.1185941043084	68	127
155.90961451247165	156.1185941043084	77	127
156.1185941043084	156.44367346938776	68	127
156.1185941043084	156.78036281179138	50	127
156.1185941043084	156.44367346938776	65	127
156.1185941043084	156.44367346938776	80	127
156.44367346938776	156.68748299319728	78	127
156.44367346938776	156.68748299319728	66	127
156.44367346938776	156.68748299319728	63	127
156.8151927437642	157.12863945578232	46	127
156.8151927437642	157.04739229024943	77	127
156.8151927437642	157.04739229024943	65	127
156.8151927437642	157.04739229024943	62	127
157.16349206349207	157.337641723356	77	127
157.16349206349207	157.337641723356	62	127
157.16349206349207	157.337641723356	65	127
157.4073015873016	157.558231292517	65	127
157.4073015873016	157.53498866213152	80	127
157.4073015873016	157.82526077097506	51	127
157.4073015873016	157.558231292517	68	127
157.558231292517	157.7439909297052	63	127
157.558231292517	157.7439909297052	78	127
157.558231292517	157.7439909297052	66	127
157.86009070294784	158.09229024943312	87	127
157.86009070294784	158.09229024943312	67	127
157.86009070294784	158.09229024943312	61	127
157.86009070294784	158.55666666666667	46	127
158.20839002267573	158.46380952380952	67	127
158.20839002267573	158.46380952380952	87	127
158.20839002267573	158.46380952380952	61	127
158.57990929705215	159.84539682539682	63	127
158.57990929705215	158.91657596371883	87	127
158.57990929705215	159.29972789115646	47	127
158.57990929705215	158.91657596371883	68	127
158.91657596371883	159.29972789115646	86	127
158.91657596371883	159.29972789115646	74	127
159.29972789115646	159.84539682539682	43	127
159.29972789115646	159.63641723356008	87	127
159.29972789115646	159.63641723356008	75	127
159.63641723356008	159.84539682539682	76	127
159.63641723356008	159.84539682539682	88	127
159.84539682539682	160.05437641723356	75	127
159.84539682539682	160.05437641723356	87	127
159.84539682539682	160.3214058956916	59	127
159.84539682539682	160.3214058956916	44	127
160.05437641723356	160.3214058956916	85	127
160.05437641723356	160.3214058956916	73	127
160.3214058956916	160.6697052154195	71	127
160.3214058956916	161.01800453514738	39	127
160.3214058956916	160.6697052154195	83	127
160.3214058956916	161.01800453514738	55	127
160.6697052154195	161.01800453514738	82	127
160.6697052154195	161.01800453514738	70	127
161.01800453514738	161.28503401360544	73	127
161.01800453514738	161.49401360544218	40	127
161.01800453514738	161.28503401360544	85	127
161.01800453514738	161.49401360544218	56	127
161.28503401360544	161.49401360544218	83	127
161.28503401360544	161.49401360544218	71	127
161.49401360544218	161.81909297052155	70	127
161.49401360544218	161.81909297052155	82	127
161.49401360544218	162.16739229024944	53	127
161.49401360544218	162.16739229024944	38	127
161.81909297052155	162.15578231292517	68	127
161.81909297052155	162.15578231292517	80	127
162.16739229024944	162.41120181405896	68	127
162.16739229024944	162.74786848072563	54	127
162.16739229024944	162.41120181405896	80	127
162.16739229024944	162.74786848072563	39	127
162.41120181405896	162.74786848072563	78	127
162.41120181405896	162.74786848072563	66	127
162.74786848072563	163.46768707482994	58	127
162.74786848072563	163.46768707482994	42	127
162.74786848072563	163.10777777777778	77	127
162.74786848072563	163.10777777777778	65	127
163.10777777777778	163.46768707482994	75	127
163.10777777777778	163.46768707482994	63	127
163.46768707482994	164.1526984126984	76	127
163.46768707482994	164.1526984126984	64	127
163.46768707482994	164.1526984126984	59	127
163.46768707482994	164.1526984126984	44	127
164.86090702947845	165.59233560090703	74	127
164.86090702947845	165.59233560090703	62	127
164.86090702947845	165.59233560090703	56	127
164.86090702947845	165.59233560090703	46	127
166.38179138321996	167.82145124716553	75	127
166.38179138321996	167.82145124716553	63	127
166.38179138321996	167.82145124716553	54	127
166.38179138321996	167.82145124716553	47	127
168.50643990929706	169.01727891156463	63	127
169.0521088435374	169.6209977324263	75	127
169.0521088435374	169.6209977324263	71	127
169.3771882086168	169.64421768707484	86	127
169.64421768707484	170.004126984127	87	127
169.64421768707484	170.36401360544218	70	127
169.64421768707484	170.36401360544218	67	127
170.004126984127	170.3756462585034	88	127
170.3756462585034	170.48013605442176	87	127
170.3756462585034	170.72392290249434	71	127
170.3756462585034	170.72392290249434	68	127
170.48013605442176	170.7587755102041	85	127
170.7587755102041	171.4089342403628	67	127
170.7587755102041	171.11868480725624	83	127
170.7587755102041	171.4089342403628	63	127
171.11868480725624	171.4089342403628	82	127
171.4089342403628	171.91977324263038	68	127
171.4089342403628	171.91977324263038	64	127
171.4089342403628	171.60630385487528	85	127
171.60630385487528	171.95460317460316	83	127
171.95460317460316	172.30290249433108	82	127
171.95460317460316	172.62798185941043	65	127
171.95460317460316	172.62798185941043	62	127
172.30290249433108	172.6395918367347	80	127
172.66281179138323	172.89501133786848	80	127
172.66281179138323	173.16204081632654	66	127
172.66281179138323	173.16204081632654	63	127
172.89501133786848	173.18526077097505	78	127
173.18526077097505	173.47551020408164	77	127
173.18526077097505	173.800589569161	58	127
173.18526077097505	173.800589569161	54	127
173.47551020408164	173.8354195011338	75	127
173.8354195011338	174.76419501133788	76	127
173.8354195011338	174.76419501133788	59	127
173.8354195011338	174.76419501133788	56	127
176.26190476190476	176.90045351473924	66	127
176.26190476190476	176.90045351473924	75	127
176.26190476190476	176.90045351473924	60	127
176.26190476190476	176.90045351473924	57	127
176.26190476190476	176.90045351473924	45	127
177.64349206349206	178.22399092970522	57	127
177.64349206349206	178.22399092970522	66	127
177.64349206349206	178.22399092970522	75	127
177.64349206349206	178.22399092970522	60	127
177.64349206349206	178.22399092970522	45	127
178.87414965986395	180.22090702947847	62	127
178.87414965986395	180.22090702947847	65	127
178.87414965986395	180.22090702947847	74	127
178.87414965986395	179.59396825396826	58	127
178.87414965986395	180.22090702947847	46	127
179.61716553287982	180.22090702947847	70	127
180.25573696145125	180.89426303854876	70	127
180.89426303854876	180.99875283446713	69	127
180.99875283446713	181.14968253968254	70	127
181.14968253968254	181.31224489795918	71	127
181.31224489795918	181.4980045351474	70	127
181.4980045351474	182.20621315192744	66	127
181.4980045351474	182.20621315192744	58	127
181.4980045351474	182.90281179138321	58	127
181.4980045351474	183.99414965986395	70	127
182.24104308390022	182.90281179138321	75	127
182.24104308390022	182.90281179138321	66	127
182.92603174603175	183.30916099773242	75	127
182.92603174603175	183.30916099773242	66	127
183.34399092970523	183.51814058956916	74	127
183.34399092970523	183.51814058956916	65	127
183.51814058956916	183.6922902494331	75	127
183.51814058956916	183.6922902494331	66	127
183.6922902494331	183.86643990929704	77	127
183.6922902494331	183.86643990929704	68	127
183.86643990929704	184.01734693877552	75	127
183.86643990929704	184.01734693877552	66	127
184.01734693877552	184.59786848072562	65	127
184.01734693877552	184.59786848072562	74	127
184.01734693877552	184.59786848072562	58	127
184.01734693877552	185.39895691609976	46	127
184.6326984126984	185.39895691609976	70	127
185.4221768707483	186.02589569160997	70	127
186.0491156462585	186.18843537414966	69	127
186.18843537414966	186.37419501133786	70	127
186.37419501133786	186.5599546485261	71	127
186.5599546485261	186.79215419501134	70	127
186.79215419501134	190.0661678004535	70	127
186.79215419501134	187.43070294784582	70	127
186.79215419501134	187.43070294784582	58	127
186.79215419501134	188.04603174603176	58	127
187.45392290249433	188.04603174603176	78	127
187.45392290249433	188.04603174603176	63	127
188.08086167800454	188.67297052154194	78	127
188.08086167800454	188.67297052154194	63	127
188.69619047619048	188.83551020408163	62	127
188.69619047619048	188.83551020408163	77	127
188.83551020408163	189.02124716553288	63	127
188.83551020408163	189.02124716553288	78	127
189.02124716553288	189.20702947845805	65	127
189.02124716553288	189.20702947845805	80	127
189.20702947845805	189.38115646258504	78	127
189.20702947845805	189.38115646258504	63	127
189.38115646258504	190.0661678004535	62	127
189.38115646258504	190.0661678004535	77	127
189.38115646258504	190.0661678004535	58	127
190.1009977324263	190.53056689342404	82	127
190.1009977324263	190.53056689342404	77	127
190.1009977324263	190.53056689342404	74	127
190.55378684807258	191.23877551020408	70	127
191.25038548752835	191.64512471655328	80	127
191.25038548752835	191.64512471655328	75	127
191.25038548752835	191.64512471655328	72	127
191.67995464852606	192.30689342403628	70	127
192.34172335600908	192.75968253968253	79	127
192.34172335600908	192.75968253968253	74	127
192.34172335600908	192.75968253968253	70	127
192.75968253968253	193.53755102040816	70	127
193.5607709750567	194.1296598639456	77	127
193.5607709750567	194.1296598639456	72	127
193.5607709750567	194.1296598639456	68	127
194.14126984126983	194.36185941043084	75	127
194.14126984126983	194.36185941043084	70	127
194.14126984126983	194.36185941043084	67	127
194.39668934240362	194.6521088435374	58	127
194.6869387755102	194.95396825396824	74	127
194.6869387755102	194.95396825396824	68	127
194.6869387755102	194.95396825396824	65	127
194.98879818594105	195.2906575963719	58	127
195.32548752834467	195.52285714285713	72	127
195.32548752834467	195.52285714285713	67	127
195.32548752834467	195.52285714285713	63	127
195.54607709750567	195.83632653061224	58	127
195.85954648526078	195.99886621315193	70	127
195.85954648526078	195.99886621315193	65	127
195.85954648526078	195.99886621315193	62	127
196.0336961451247	196.3471655328798	58	127
196.37038548752835	196.66063492063492	68	127
196.37038548752835	196.66063492063492	63	127
196.37038548752835	196.66063492063492	60	127
196.6954648526077	196.9508843537415	46	127
196.9857142857143	197.24113378684808	67	127
196.9857142857143	197.24113378684808	62	127
196.9857142857143	197.24113378684808	58	127
197.2643537414966	197.5546031746032	46	127
197.56621315192743	197.7984126984127	65	127
197.56621315192743	197.7984126984127	60	127
197.56621315192743	197.7984126984127	56	127
197.82163265306122	198.077052154195	46	127
198.1118820861678	198.43696145124716	63	127
198.1118820861678	198.43696145124716	58	127
198.1118820861678	198.43696145124716	55	127
198.4601814058957	198.83170068027212	46	127
198.8665306122449	200.23650793650793	62	127
198.8665306122449	200.23650793650793	56	127
198.8665306122449	200.23650793650793	53	127
199.5515192743764	200.23650793650793	46	127
200.2713378684807	201.4091156462585	64	127
200.2713378684807	201.4091156462585	58	127
200.2713378684807	201.4091156462585	55	127
200.8170068027211	201.4091156462585	46	127
201.44394557823128	202.75587301587302	65	127
201.44394557823128	202.75587301587302	60	127
201.44394557823128	202.75587301587302	56	127
202.1057142857143	202.75587301587302	46	127
202.77909297052153	203.4524716553288	63	127
202.77909297052153	203.4524716553288	58	127
202.77909297052153	203.4524716553288	55	127
202.77909297052153	203.4524716553288	46	127
203.48730158730157	204.16068027210883	63	127
203.48730158730157	204.16068027210883	57	127
203.48730158730157	204.16068027210883	54	127
203.48730158730157	204.16068027210883	46	127
204.19551020408164	205.50743764172336	56	127
204.19551020408164	205.50743764172336	62	127
204.19551020408164	205.50743764172336	53	127
204.79922902494332	205.50743764172336	46	127
205.54226757369614	206.80775510204083	64	127
205.54226757369614	206.80775510204083	58	127
205.54226757369614	206.80775510204083	55	127
206.1924263038549	206.80775510204083	46	127
206.8425850340136	208.05002267573695	65	127
206.8425850340136	208.05002267573695	60	127
206.8425850340136	208.05002267573695	56	127
207.45791383219955	208.05002267573695	46	127
208.08485260770976	208.78145124716553	58	127
208.08485260770976	208.78145124716553	63	127
208.08485260770976	208.78145124716553	55	127
208.08485260770976	208.78145124716553	46	127
208.81628117913831	209.4780498866213	57	127
208.81628117913831	209.4780498866213	54	127
208.81628117913831	209.4780498866213	63	127
208.81628117913831	209.4780498866213	46	127
209.51287981859412	211.48657596371882	62	127
209.51287981859412	210.22108843537416	56	127
209.51287981859412	210.22108843537416	53	127
210.25591836734694	211.08022675736962	53	127
210.25591836734694	211.08022675736962	46	127
210.25591836734694	211.08022675736962	56	127
211.5214058956916	211.6839455782313	64	127
211.6839455782313	211.88131519274376	65	127
211.88131519274376	212.0902947845805	67	127
212.0902947845805	212.26444444444445	65	127
212.26444444444445	214.11043083900228	62	127
212.8797732426304	213.73891156462585	68	127
212.8797732426304	213.73891156462585	65	127
212.8797732426304	213.73891156462585	58	127
214.1336507936508	214.21492063492065	67	127
214.21492063492065	214.4122902494331	68	127
214.4122902494331	214.5980498866213	70	127
214.5980498866213	214.78380952380954	68	127
214.78380952380954	216.66462585034014	62	127
215.49201814058958	216.26988662131518	58	127
215.49201814058958	216.26988662131518	68	127
215.49201814058958	216.26988662131518	65	127
216.66462585034014	216.79233560090702	71	127
216.79233560090702	217.00131519274376	72	127
217.00131519274376	217.17546485260772	74	127
217.17546485260772	217.2799546485261	72	127
217.2799546485261	217.73274376417234	62	127
217.2799546485261	217.9301133786848	68	127
217.2799546485261	217.9301133786848	65	127
217.2799546485261	217.9301133786848	58	127
217.9649433106576	218.15070294784582	71	127
218.15070294784582	218.34807256235828	72	127
218.34807256235828	218.46417233560092	74	127
218.46417233560092	218.62671201814058	72	127
218.62671201814058	219.4974603174603	65	127
218.62671201814058	219.30009070294784	62	127
218.62671201814058	219.4974603174603	68	127
218.62671201814058	219.4974603174603	58	127
219.53229024943312	219.72965986394559	71	127
219.72965986394559	219.96185941043083	72	127
219.96185941043083	220.25210884353743	74	127
220.25210884353743	220.84421768707483	72	127
220.84421768707483	221.65691609977324	53	127
220.84421768707483	221.1344671201814	62	127
220.84421768707483	221.65691609977324	56	127
220.84421768707483	221.65691609977324	46	127
221.1344671201814	221.41310657596372	63	127
221.41310657596372	221.68013605442178	64	127
221.68013605442178	221.84267573696144	65	127
221.84267573696144	222.04004535147394	66	127
222.04004535147394	222.17936507936508	67	127
222.17936507936508	222.36512471655328	68	127
222.36512471655328	222.52766439909297	69	127
222.52766439909297	222.74825396825398	70	127
222.74825396825398	222.8991836734694	71	127
222.8991836734694	223.03850340136054	72	127
223.03850340136054	223.2126530612245	73	127
223.2126530612245	223.3984126984127	74	127
223.3984126984127	223.60739229024944	75	127
223.60739229024944	223.78154195011336	76	127
223.78154195011336	223.897641723356	77	127
223.897641723356	224.04857142857142	78	127
224.04857142857142	224.2459410430839	79	127
224.2459410430839	224.42009070294785	80	127
224.42009070294785	224.5942403628118	81	127
224.5942403628118	224.81482993197278	82	127
224.81482993197278	225.02380952380952	83	127
225.02380952380952	225.41854875283445	86	127
225.41854875283445	225.69718820861678	84	127
225.73201814058956	226.08031746031747	82	127
226.08031746031747	226.53310657596373	80	127
226.53310657596373	226.83496598639456	79	127
226.83496598639456	227.12521541950113	77	127
227.12521541950113	227.36902494331065	76	127
227.36902494331065	227.65927437641724	77	127
227.65927437641724	227.90308390022676	80	127
227.90308390022676	228.23977324263038	77	127
228.23977324263038	228.57646258503402	75	127
228.57646258503402	228.93637188208618	74	127
228.93637188208618	229.3659410430839	72	127
228.93637188208618	229.73746031746032	68	127
228.93637188208618	229.73746031746032	65	127
228.93637188208618	229.73746031746032	58	127
229.3659410430839	229.7722902494331	70	127
229.7722902494331	230.2134693877551	69	127
229.7722902494331	230.59659863945578	68	127
229.7722902494331	230.59659863945578	65	127
229.7722902494331	230.59659863945578	58	127
230.2134693877551	230.64303854875283	70	127
230.64303854875283	231.1538775510204	72	127
230.64303854875283	231.69954648526078	68	127
230.64303854875283	231.69954648526078	65	127
230.64303854875283	231.69954648526078	58	127
231.1538775510204	231.74598639455783	74	127
231.74598639455783	233.46426303854875	63	127
231.74598639455783	232.65156462585034	75	127
231.74598639455783	233.46426303854875	58	127
231.74598639455783	233.46426303854875	67	127
231.74598639455783	233.46426303854875	51	127
232.68639455782312	233.26689342403628	79	127
233.4874829931973	233.80095238095237	79	127
233.94027210884354	234.02154195011337	69	127
233.94027210884354	234.3001814058957	79	127
234.02154195011337	234.14925170068028	70	127
234.14925170068028	234.33501133786848	72	127
234.33501133786848	234.59043083900227	70	127
234.59043083900227	235.19414965986394	79	127
234.59043083900227	235.89074829931974	63	127
235.19414965986394	235.71659863945578	82	127
235.92557823129252	236.23904761904762	82	127
236.29709750566894	236.81954648526076	82	127
236.29709750566894	236.48285714285714	50	127
236.48285714285714	236.66861678004534	51	127
236.66861678004534	236.85437641723357	53	127
236.85437641723357	237.05174603174603	51	127
237.05174603174603	237.75995464852608	82	127
237.05174603174603	238.46816326530612	50	127
237.75995464852608	238.46816326530612	80	127
238.49138321995466	238.92095238095237	80	127
238.92095238095237	239.11832199546484	57	127
238.92095238095237	239.64077097505668	77	127
239.11832199546484	239.30408163265307	58	127
239.30408163265307	239.48984126984126	60	127
239.48984126984126	239.66399092970522	58	127
239.66399092970522	240.77854875283447	68	127
239.66399092970522	240.20965986394557	77	127
240.20965986394557	240.77854875283447	74	127
240.81337868480725	241.5215873015873	74	127
241.5215873015873	241.7421768707483	55	127
241.5215873015873	242.1833560090703	70	127
241.7421768707483	241.92793650793652	56	127
241.92793650793652	242.07886621315194	58	127
242.07886621315194	242.2181859410431	56	127
242.2181859410431	243.57655328798185	55	127
242.2181859410431	242.9612244897959	70	127
242.9612244897959	243.57655328798185	75	127
243.61138321995466	244.9117006802721	55	127
243.61138321995466	244.06417233560092	75	127
243.61138321995466	244.9117006802721	63	127
243.61138321995466	244.9117006802721	58	127
244.23832199546484	244.40086167800453	74	127
244.40086167800453	244.5750113378685	75	127
244.5750113378685	244.7607709750567	77	127
244.7607709750567	244.94653061224489	75	127
244.94653061224489	245.67795918367347	70	127
244.94653061224489	246.2932879818594	50	127
245.67795918367347	246.2932879818594	77	127
246.3281179138322	247.47750566893424	58	127
246.3281179138322	246.68802721088434	77	127
246.3281179138322	247.47750566893424	65	127
246.8621768707483	247.01310657596372	76	127
247.01310657596372	247.19886621315192	77	127
247.19886621315192	247.34979591836733	79	127
247.34979591836733	247.51233560090702	77	127
247.51233560090702	248.2437641723356	67	127
247.51233560090702	248.0580045351474	70	127
247.51233560090702	248.2437641723356	58	127
247.51233560090702	248.2437641723356	63	127
247.51233560090702	248.2437641723356	51	127
248.2669841269841	248.39469387755102	78	127
248.39469387755102	248.51079365079366	79	127
248.51079365079366	248.67333333333335	80	127
248.67333333333335	248.84748299319727	79	127
248.84748299319727	249.60213151927437	44	127
248.84748299319727	249.60213151927437	60	127
248.84748299319727	249.3815419501134	72	127
248.84748299319727	249.60213151927437	68	127
248.84748299319727	249.60213151927437	65	127
249.63696145124717	250.04331065759638	80	127
250.04331065759638	250.26390022675736	82	127
250.26390022675736	250.41482993197278	84	127
250.41482993197278	251.29718820861677	65	127
250.41482993197278	251.29718820861677	58	127
250.41482993197278	251.29718820861677	62	127
250.41482993197278	251.29718820861677	46	127
250.41482993197278	252.05183673469386	77	127
251.33201814058958	251.70353741496598	70	127
251.72675736961452	252.05183673469386	70	127
252.08666666666667	252.44657596371883	69	127
252.44657596371883	252.71360544217688	68	127
252.71360544217688	252.93419501133786	67	127
252.93419501133786	253.41020408163266	65	127
253.41020408163266	254.16485260770975	63	127
253.41020408163266	254.16485260770975	55	127
253.41020408163266	254.88467120181406	39	127
253.81655328798186	254.07197278911565	82	127
254.1880725623583	254.88467120181406	58	127
254.1880725623583	254.88467120181406	67	127
254.5247619047619	254.79179138321996	79	127
254.9078911564626	255.61609977324264	67	127
254.9078911564626	255.61609977324264	58	127
255.29102040816326	255.52321995464854	75	127
255.6277097505669	255.8134693877551	67	127
255.6277097505669	255.69736961451247	70	127
255.6277097505669	255.8134693877551	58	127
255.70897959183674	255.76702947845806	67	127
255.8482993197279	256.5332879818594	51	127
255.8482993197279	256.0688662131519	63	127
255.8482993197279	256.4984580498866	67	127
255.8482993197279	256.4984580498866	58	127
256.1733560090703	256.4171882086168	82	127
256.5332879818594	257.0789569160998	58	127
256.5332879818594	257.0789569160998	70	127
256.5332879818594	257.0789569160998	55	127
256.83514739229025	256.9860544217687	79	127
257.11378684807255	257.74072562358276	70	127
257.11378684807255	257.74072562358276	58	127
257.11378684807255	257.74072562358276	55	127
257.4504761904762	257.64784580498866	75	127
257.75233560090703	258.367664399093	55	127
257.75233560090703	257.93809523809523	70	127
257.75233560090703	258.367664399093	70	127
257.75233560090703	258.367664399093	58	127
258.00773242630385	258.1354648526077	67	127
258.1819047619048	258.3560544217687	63	127
258.3908843537415	258.9829931972789	70	127
258.3908843537415	258.588253968254	62	127
258.3908843537415	258.9829931972789	58	127
258.3908843537415	259.0178231292517	56	127
258.7159637188209	258.9365306122449	70	127
259.0178231292517	259.63315192743767	53	127
259.0178231292517	259.63315192743767	68	127
259.0178231292517	259.63315192743767	58	127
259.33129251700683	259.54024943310657	74	127
259.6679818594104	260.28331065759636	68	127
259.6679818594104	260.28331065759636	58	127
259.6679818594104	260.3065306122449	53	127
260.0278911564626	260.20204081632653	77	127
260.3065306122449	260.92185941043084	65	127
260.3065306122449	260.5271201814059	82	127
260.3065306122449	260.92185941043084	58	127
260.3065306122449	260.92185941043084	50	127
260.64321995464854	260.82897959183674	86	127
260.9450793650794	261.20049886621314	62	127
260.9450793650794	261.5604081632653	65	127
260.9450793650794	261.5604081632653	58	127
260.9450793650794	261.58360544217686	50	127
261.3165986394558	261.49072562358276	77	127
261.58360544217686	262.18734693877553	53	127
261.58360544217686	262.18734693877553	62	127
261.58360544217686	262.18734693877553	46	127
261.8390476190476	262.09444444444443	82	127
262.2221768707483	262.9187528344671	53	127
262.2221768707483	262.9187528344671	62	127
262.2221768707483	262.95360544217687	46	127
262.58208616780047	262.82589569160996	86	127
262.95360544217687	263.1741950113379	89	127
262.95360544217687	263.5689342403628	58	127
262.95360544217687	263.5689342403628	50	127
262.95360544217687	263.5689342403628	44	127
263.27868480725624	263.4760544217687	94	127
263.6037641723356	265.99541950113377	58	127
263.6037641723356	264.1726530612245	58	127
263.6037641723356	268.5031746031746	51	127
263.6037641723356	265.99541950113377	43	127
263.94043083900226	264.13782312925173	94	127
264.18426303854875	264.76473922902494	63	127
264.46290249433105	264.68349206349205	91	127
264.7995918367347	265.2755782312925	63	127
265.12467120181407	265.3452607709751	87	127
265.3684580498866	265.60068027210883	82	127
265.3684580498866	265.5542403628118	62	127
265.5542403628118	265.7051700680272	63	127
265.7051700680272	265.85609977324265	65	127
265.7051700680272	265.91414965986394	79	127
265.85609977324265	266.0186394557823	63	127
266.0186394557823	268.5031746031746	44	127
266.0186394557823	266.66879818594106	60	127
266.0186394557823	268.5031746031746	60	127
266.3785487528345	266.57591836734696	96	127
266.70360544217687	267.4234240362812	68	127
267.063537414966	267.3189342403628	92	127
267.44666666666666	267.86462585034013	68	127
267.71369614512474	267.89945578231294	89	127
267.98072562358277	268.0968253968254	67	127
267.98072562358277	268.1316326530612	84	127
268.0968253968254	268.17809523809524	68	127
268.17809523809524	268.34061224489795	70	127
268.17809523809524	268.4102947845805	80	127
268.34061224489795	268.5147845804989	68	127
268.5379818594104	269.095283446712	58	127
268.5379818594104	268.9559410430839	67	127
268.5379818594104	269.095283446712	51	127
268.5379818594104	269.095283446712	46	127
268.828253968254	269.02562358276646	79	127
269.1301133786848	269.315873015873	69	127
269.315873015873	269.46678004535147	70	127
269.46678004535147	269.5712925170068	72	127
269.46678004535147	269.58290249433105	82	127
269.5712925170068	269.6873922902494	70	127
269.71061224489796	270.25628117913834	65	127
269.71061224489796	270.44204081632654	62	127
269.71061224489796	270.44204081632654	56	127
269.71061224489796	270.44204081632654	46	127
270.08213151927436	270.34916099773244	77	127
270.47687074829935	270.6858276643991	69	127
270.6858276643991	270.9296598639456	70	127
270.9296598639456	271.0225396825397	72	127
270.9296598639456	271.0225396825397	82	127
271.0225396825397	271.1386394557823	70	127
271.1386394557823	272.7291836734694	55	127
271.1386394557823	272.7291836734694	75	127
271.1386394557823	272.7291836734694	63	127
271.1386394557823	272.7291836734694	51	127
273.57673469387754	274.36619047619047	70	127
274.4010430839002	275.37628117913835	50	127
274.4010430839002	275.37628117913835	77	127
274.4010430839002	275.37628117913835	68	127
274.4010430839002	275.37628117913835	46	127
275.3995011337868	275.74780045351474	67	127
275.3995011337868	275.74780045351474	51	127
275.3995011337868	275.74780045351474	46	127
275.3995011337868	275.74780045351474	75	127
275.74780045351474	276.43278911564624	74	127
275.74780045351474	276.43278911564624	65	127
275.74780045351474	276.43278911564624	53	127
275.74780045351474	276.43278911564624	46	127
276.46761904761905	277.15260770975055	72	127
276.46761904761905	277.15260770975055	63	127
276.46761904761905	277.15260770975055	55	127
276.46761904761905	277.15260770975055	46	127
277.18743764172336	279.13791383219956	70	127
277.18743764172336	279.13791383219956	62	127
277.18743764172336	279.13791383219956	56	127
277.18743764172336	279.13791383219956	46	127
279.17272108843537	279.77646258503404	70	127
279.17272108843537	279.77646258503404	64	127
279.17272108843537	279.77646258503404	55	127
279.17272108843537	279.77646258503404	46	127
279.8112925170068	280.4498412698413	70	127
279.8112925170068	280.4498412698413	65	127
279.8112925170068	280.4498412698413	56	127
279.8112925170068	280.4498412698413	46	127
280.4730612244898	281.0767800453515	70	127
280.4730612244898	281.0767800453515	62	127
280.4730612244898	281.0767800453515	53	127
280.4730612244898	281.0767800453515	46	127
281.1	281.7849886621315	70	127
281.1	281.7849886621315	63	127
281.1	281.7849886621315	55	127
281.1	281.7849886621315	46	127
281.81981859410433	282.59768707482993	57	127
281.81981859410433	282.59768707482993	46	127
281.81981859410433	282.59768707482993	72	127
281.81981859410433	282.59768707482993	63	127
282.63251700680274	283.9212244897959	65	127
282.63251700680274	284.3043537414966	46	127
282.63251700680274	284.3043537414966	58	127
282.63251700680274	283.9212244897959	62	127
283.9560544217687	284.1418140589569	67	127
283.9560544217687	284.1418140589569	63	127
284.1418140589569	284.3275736961451	68	127
284.1418140589569	284.3275736961451	65	127
284.3275736961451	284.5133333333333	70	127
284.3275736961451	284.5133333333333	67	127
284.58299319727894	284.76875283446714	72	127
284.58299319727894	284.76875283446714	69	127
284.8268027210884	284.95451247165533	74	127
284.8268027210884	284.95451247165533	70	127
284.9777324263039	285.14027210884353	75	127
284.9777324263039	285.14027210884353	72	127
285.17510204081634	285.32603174603173	77	127
285.17510204081634	285.32603174603173	74	127
285.36086167800454	285.5234013605442	79	127
285.36086167800454	285.5234013605442	75	127
285.5698412698413	286.57990929705215	58	127
285.5698412698413	286.57990929705215	80	127
285.5698412698413	286.57990929705215	77	127
285.5698412698413	286.57990929705215	62	127
286.5915192743764	286.85854875283445	75	127
286.5915192743764	286.85854875283445	63	127
286.5915192743764	286.85854875283445	60	127
286.5915192743764	286.85854875283445	79	127
286.85854875283445	287.57836734693876	77	127
286.85854875283445	287.57836734693876	74	127
286.85854875283445	287.57836734693876	65	127
286.85854875283445	287.57836734693876	62	127
287.57836734693876	288.1936961451247	63	127
287.57836734693876	288.1936961451247	75	127
287.57836734693876	288.1936961451247	72	127
287.57836734693876	288.1936961451247	67	127
288.21691609977324	288.93673469387755	70	127
288.21691609977324	290.3299319727891	74	127
288.21691609977324	290.3299319727891	68	127
288.21691609977324	290.3299319727891	65	127
288.97156462585036	289.62172335600906	71	127
289.65655328798186	290.3299319727891	70	127
290.3647619047619	291.0961904761905	68	127
290.3647619047619	291.0961904761905	65	127
290.3647619047619	291.0961904761905	74	127
290.3647619047619	291.0961904761905	70	127
291.119410430839	291.43287981859413	75	127
291.119410430839	292.38489795918366	70	127
291.119410430839	292.38489795918366	67	127
291.119410430839	292.38489795918366	63	127
291.43287981859413	291.5373696145125	77	127
291.5373696145125	291.66507936507935	75	127
291.66507936507935	291.781179138322	74	127
291.781179138322	292.05979591836734	75	127
292.05979591836734	292.39650793650793	77	127
292.39650793650793	292.7215873015873	79	127
292.39650793650793	293.8593650793651	63	127
292.39650793650793	293.8593650793651	75	127
292.39650793650793	293.8593650793651	60	127
292.7215873015873	292.8492970521542	81	127
292.8492970521542	292.96539682539685	79	127
292.96539682539685	293.0931065759637	77	127
293.0931065759637	293.4762358276644	79	127
293.4762358276644	293.8941723356009	81	127
293.8941723356009	295.310612244898	84	127
293.8941723356009	295.72857142857146	74	127
293.8941723356009	295.72857142857146	58	127
293.8941723356009	295.72857142857146	65	127
295.310612244898	295.7634013605442	82	127
295.7634013605442	296.44836734693877	81	127
296.44836734693877	296.901179138322	80	127
296.901179138322	297.2146485260771	79	127
297.2146485260771	297.59777777777776	77	127
297.59777777777776	298.445306122449	75	127
297.59777777777776	297.91124716553287	39	127
297.59777777777776	302.8687074829932	63	127
297.59777777777776	302.8687074829932	55	127
298.0621768707483	298.3408163265306	58	127
298.4685260770975	299.107052154195	79	127
298.7936054421769	299.0258049886621	55	127
299.1302947845805	299.37410430839003	79	127
299.26961451247166	299.45537414965986	51	127
299.5714739229025	299.6643537414966	55	127
299.5714739229025	299.78045351473924	46	127
299.6643537414966	299.78045351473924	58	127
299.78045351473924	299.8965532879819	63	127
299.8965532879819	300.12873015873015	43	127
299.8965532879819	300.0242403628118	67	127
300.0242403628118	300.12873015873015	70	127
300.12873015873015	300.256462585034	75	127
300.256462585034	300.50027210884355	51	127
300.256462585034	300.9298412698413	79	127
300.256462585034	301.6148299319728	39	127
300.6047619047619	300.84854875283446	70	127
300.95303854875283	301.6148299319728	82	127
301.3013605442177	301.5567800453515	67	127
301.6496598639456	302.07920634920634	82	127
301.91668934240363	302.17208616780044	58	127
302.28820861678	302.5204081632653	55	127
302.28820861678	302.3926984126984	63	127
302.3926984126984	302.5204081632653	67	127
302.5204081632653	302.62489795918367	70	127
302.62489795918367	302.7758276643991	51	127
302.62489795918367	302.6481179138322	75	127
302.6481179138322	302.7758276643991	79	127
302.7758276643991	302.89190476190475	82	127
302.89190476190475	308.244126984127	58	127
302.89190476190475	303.13573696145124	38	127
302.89190476190475	303.6001360544218	82	127
302.89190476190475	304.26190476190476	50	127
302.89190476190475	306.920589569161	65	127
303.26344671201815	303.5072335600907	58	127
303.61172335600907	303.90199546485263	80	127
303.9368253968254	304.16902494331066	53	127
304.11097505668937	304.26190476190476	80	127
304.29673469387757	304.88884353741497	80	127
304.5985941043084	304.7959637188209	53	127
304.9236734693878	305.2951927437642	77	127
304.9236734693878	305.2023129251701	50	127
305.330022675737	305.5157823129252	46	127
305.4809523809524	305.597052154195	77	127
305.62027210884355	305.8640589569161	50	127
305.62027210884355	306.24721088435376	77	127
305.62027210884355	306.920589569161	44	127
305.9569387755102	306.17755102040815	68	127
306.2820408163265	306.58390022675735	74	127
306.6071201814059	306.8277097505669	65	127
306.7696598639456	306.920589569161	74	127
306.9554195011338	308.244126984127	62	127
306.9554195011338	307.62879818594104	74	127
307.30371882086166	307.53591836734694	65	127
307.66362811791385	307.88421768707485	70	127
307.66362811791385	307.8261678004535	62	127
307.9074149659864	308.1512471655329	56	127
308.0931972789116	308.244126984127	70	127
308.2789569160998	308.952335600907	70	127
308.2789569160998	312.2959863945578	63	127
308.2789569160998	309.61410430839004	58	127
308.2789569160998	308.5227664399093	43	127
308.2789569160998	309.61410430839004	55	127
308.6504761904762	308.8710657596372	58	127
308.97555555555556	309.61410430839004	75	127
309.3238548752835	309.5444217687075	55	127
309.6489342403628	310.02045351473924	75	127
309.6489342403628	310.9028117913832	55	127
309.9391836734694	310.11333333333334	51	127
310.24104308390025	310.39197278911564	74	127
310.24104308390025	310.47324263038547	46	127
310.42680272108845	310.5660997732426	75	127
310.6009523809524	310.74027210884356	77	127
310.6009523809524	310.8099319727891	43	127
310.7751020408163	310.9028117913832	75	127
310.937641723356	311.5877777777778	72	127
310.937641723356	313.59632653061226	60	127
310.937641723356	311.1698185941043	56	127
310.937641723356	312.2959863945578	44	127
311.2627210884354	311.4949206349206	72	127
311.6226303854875	312.2959863945578	80	127
311.97092970521544	312.2031065759637	68	127
312.3192290249433	312.83006802721087	80	127
312.3192290249433	313.59632653061226	65	127
312.69074829931975	312.8997278911565	53	127
312.69074829931975	312.8997278911565	65	127
312.9809977324263	313.15514739229025	48	127
312.9809977324263	313.15514739229025	60	127
312.9809977324263	313.1087074829932	79	127
313.1087074829932	313.2596371882086	80	127
313.2596371882086	313.50344671201816	44	127
313.2596371882086	313.50344671201816	56	127
313.2596371882086	313.43378684807254	82	127
313.43378684807254	313.60793650793653	80	127
313.63113378684807	314.0839455782313	79	127
313.63113378684807	314.246462585034	58	127
313.63113378684807	314.246462585034	46	127
314.28131519274376	314.42063492063494	81	127
314.28131519274376	314.9430839002268	58	127
314.28131519274376	314.9430839002268	67	127
314.28131519274376	314.9430839002268	63	127
314.42063492063494	314.60639455782314	82	127
314.60639455782314	314.79215419501134	84	127
314.79215419501134	314.97791383219953	82	127
314.97791383219953	315.4887528344671	77	127
314.97791383219953	315.67448979591836	46	127
315.69773242630384	316.4871882086168	62	127
315.69773242630384	315.8951020408163	81	127
315.69773242630384	316.4871882086168	58	127
315.69773242630384	316.4871882086168	68	127
315.8951020408163	316.08083900226757	82	127
316.08083900226757	316.2898185941043	84	127
316.2898185941043	316.55687074829933	82	127
316.55687074829933	318.22868480725623	75	127
316.55687074829933	318.22868480725623	58	127
316.55687074829933	318.22868480725623	67	127
316.55687074829933	318.22868480725623	63	127
316.55687074829933	318.22868480725623	51	127
319.09945578231293	319.7960544217687	70	127
319.8308843537415	321.00349206349205	77	127
319.8308843537415	320.9686621315193	58	127
319.8308843537415	321.00349206349205	68	127
321.00349206349205	321.3401814058957	58	127
321.00349206349205	321.3750113378685	67	127
321.00349206349205	321.3750113378685	75	127
321.3750113378685	322.11802721088435	74	127
321.3750113378685	322.11802721088435	65	127
321.3750113378685	322.11802721088435	58	127
322.1528798185941	322.7333560090703	72	127
322.1528798185941	322.7333560090703	63	127
322.1528798185941	322.7333560090703	58	127
322.7565986394558	324.927664399093	70	127
322.7565986394558	324.927664399093	62	127
322.7565986394558	324.927664399093	58	127
324.9624943310658	325.6707029478458	68	127
324.9624943310658	325.6707029478458	62	127
324.9624943310658	325.6707029478458	59	127
325.7055328798186	326.3208616780045	60	127
325.7055328798186	326.34408163265306	67	127
325.7055328798186	326.34408163265306	63	127
326.34408163265306	327.0058503401361	59	127
326.34408163265306	327.04068027210883	68	127
326.34408163265306	327.04068027210883	62	127
327.04068027210883	327.841746031746	63	127
327.04068027210883	327.841746031746	60	127
327.04068027210883	327.8765986394558	67	127
327.8765986394558	328.7125170068027	56	127
327.8765986394558	328.7589342403628	72	127
327.8765986394558	328.7589342403628	63	127
328.7589342403628	330.2218140589569	65	127
328.7589342403628	330.2218140589569	62	127
328.7589342403628	330.2218140589569	58	127
331.1157596371882	331.9052607709751	70	127
331.9400907029478	333.10108843537415	58	127
331.9400907029478	333.1243083900227	80	127
331.9400907029478	333.1243083900227	75	127
331.9400907029478	333.1243083900227	72	127
333.1243083900227	333.46097505668934	58	127
333.1243083900227	333.50743764172336	79	127
333.1243083900227	333.50743764172336	74	127
333.1243083900227	333.50743764172336	70	127
333.50743764172336	334.18079365079365	77	127
333.50743764172336	334.18079365079365	72	127
333.50743764172336	334.18079365079365	68	127
333.50743764172336	334.18079365079365	58	127
334.2040362811791	334.83097505668934	75	127
334.2040362811791	334.83097505668934	70	127
334.2040362811791	334.83097505668934	67	127
334.2040362811791	334.83097505668934	58	127
334.86580498866215	337.03684807256235	74	127
334.86580498866215	337.03684807256235	68	127
334.86580498866215	337.03684807256235	65	127
334.86580498866215	337.03684807256235	58	127
337.0717006802721	337.7102494331066	75	127
337.0717006802721	337.7102494331066	68	127
337.0717006802721	337.7102494331066	65	127
337.0717006802721	337.7102494331066	59	127
337.7334693877551	338.3952380952381	68	127
337.7334693877551	338.3952380952381	65	127
337.7334693877551	338.4300680272109	74	127
337.7334693877551	338.4300680272109	58	127
338.4300680272109	339.1034467120181	68	127
338.4300680272109	339.1034467120181	65	127
338.4300680272109	339.1614965986395	75	127
338.4300680272109	339.1614965986395	59	127
339.1614965986395	339.9277551020408	68	127
339.1614965986395	339.9277551020408	65	127
339.1614965986395	339.9625850340136	74	127
339.1614965986395	339.9625850340136	58	127
339.9625850340136	340.8797732426304	68	127
339.9625850340136	340.8797732426304	65	127
339.9625850340136	340.92619047619047	75	127
339.9625850340136	340.92619047619047	59	127
340.92619047619047	342.58643990929704	74	127
340.92619047619047	342.58643990929704	68	127
340.92619047619047	342.58643990929704	65	127
340.92619047619047	342.58643990929704	58	127
344.15378684807257	345.51215419501136	75	127
344.15378684807257	345.51215419501136	67	127
344.15378684807257	345.51215419501136	63	127
344.15378684807257	345.51215419501136	60	127
347.11433106575964	347.4510204081633	56	127
347.11433106575964	348.4146485260771	63	127
347.11433106575964	348.4146485260771	72	127
347.11433106575964	348.4146485260771	60	127
347.11433106575964	348.4146485260771	56	127
347.11433106575964	348.4146485260771	44	127
349.7730158730159	350.33027210884353	63	127
349.7730158730159	350.33027210884353	55	127
349.7730158730159	350.33027210884353	58	127
349.7730158730159	350.33027210884353	46	127
351.0385034013606	351.7467120181406	65	127
351.0385034013606	351.7467120181406	56	127
351.0385034013606	351.7467120181406	62	127
351.0385034013606	351.7467120181406	46	127
352.4781179138322	353.08185941043087	63	127
352.4781179138322	353.08185941043087	55	127
352.4781179138322	353.08185941043087	58	127
352.4781179138322	353.08185941043087	39	127
354.62596371882086	355.31097505668936	55	127
354.62596371882086	355.31097505668936	55	127
354.62596371882086	355.31097505668936	43	127
355.34578231292517	356.8318820861678	67	127
355.34578231292517	356.8318820861678	67	127
355.34578231292517	356.8318820861678	55	127
356.85510204081635	357.48201814058956	63	127
356.85510204081635	357.48201814058956	63	127
356.85510204081635	357.48201814058956	51	127
357.48201814058956	358.2134693877551	59	127
357.48201814058956	358.2134693877551	59	127
357.48201814058956	358.2134693877551	47	127
358.2134693877551	359.5021768707483	60	127
358.2134693877551	359.5021768707483	60	127
358.2134693877551	359.5021768707483	48	127
359.52539682539685	360.17555555555555	55	127
359.52539682539685	360.17555555555555	55	127
359.52539682539685	360.17555555555555	43	127
360.17555555555555	360.84893424036284	59	127
360.17555555555555	360.84893424036284	59	127
360.17555555555555	360.84893424036284	47	127
360.84893424036284	361.49909297052153	60	127
360.84893424036284	361.49909297052153	60	127
360.84893424036284	361.49909297052153	48	127
361.49909297052153	362.1492517006803	62	127
361.49909297052153	362.1492517006803	62	127
361.49909297052153	362.1492517006803	50	127
362.1492517006803	362.84585034013605	63	127
362.1492517006803	362.84585034013605	63	127
362.1492517006803	362.84585034013605	51	127
362.84585034013605	363.65854875283446	66	127
362.84585034013605	363.65854875283446	66	127
362.84585034013605	363.65854875283446	54	127
363.65854875283446	365.5974149659864	67	127
363.65854875283446	365.5974149659864	67	127
363.65854875283446	365.5974149659864	55	127
366.2591836734694	366.7351927437642	67	127
366.7351927437642	367.9890702947846	79	127
366.7351927437642	368.60439909297054	55	127
366.7351927437642	368.60439909297054	64	127
366.7351927437642	368.60439909297054	48	127
366.7351927437642	368.60439909297054	60	127
366.7351927437642	368.60439909297054	36	127
366.7351927437642	368.60439909297054	48	127
368.0238775510204	368.6160090702948	76	127
368.6160090702948	369.2197278911565	62	127
368.6160090702948	369.2197278911565	55	127
368.6160090702948	369.2197278911565	65	127
368.6160090702948	369.2197278911565	48	127
368.6160090702948	369.2197278911565	36	127
368.6160090702948	369.2197278911565	48	127
368.6160090702948	369.25455782312923	71	127
369.25455782312923	370.45038548752837	72	127
369.25455782312923	371.13537414965987	55	127
369.25455782312923	371.13537414965987	64	127
369.25455782312923	371.13537414965987	48	127
369.25455782312923	371.13537414965987	60	127
369.25455782312923	371.13537414965987	36	127
369.25455782312923	371.13537414965987	48	127
370.4852154195011	371.1702040816327	67	127
371.1702040816327	371.7623129251701	71	127
371.1702040816327	371.72748299319727	55	127
371.1702040816327	371.72748299319727	65	127
371.1702040816327	371.72748299319727	48	127
371.1702040816327	371.72748299319727	62	127
371.1702040816327	371.72748299319727	36	127
371.1702040816327	371.72748299319727	48	127
371.7623129251701	373.77083900226756	48	127
371.7623129251701	373.14390022675735	72	127
371.7623129251701	373.77083900226756	55	127
371.7623129251701	373.77083900226756	64	127
371.7623129251701	373.77083900226756	48	127
371.7623129251701	373.77083900226756	60	127
371.7623129251701	373.77083900226756	36	127
373.1555102040816	373.8056689342404	67	127
373.8056689342404	374.53709750566895	36	127
373.8056689342404	374.53709750566895	55	127
373.8056689342404	374.53709750566895	65	127
373.8056689342404	374.53709750566895	48	127
373.8056689342404	374.53709750566895	62	127
373.8056689342404	374.53709750566895	48	127
373.8056689342404	374.5719274376417	71	127
374.5719274376417	375.3381859410431	55	127
374.5719274376417	375.291746031746	36	127
374.5719274376417	375.291746031746	48	127
374.5719274376417	375.3381859410431	64	127
374.5719274376417	375.3381859410431	60	127
374.5719274376417	377.6950113378685	72	127
375.3381859410431	375.98832199546484	65	127
375.3381859410431	375.98832199546484	62	127
375.3381859410431	376.44113378684807	60	127
375.98832199546484	376.44113378684807	66	127
375.98832199546484	376.44113378684807	63	127
376.44113378684807	377.11448979591836	58	127
376.44113378684807	377.1493424036281	67	127
376.44113378684807	377.1493424036281	64	127
377.1493424036281	377.7298185941043	65	127
377.1493424036281	377.7298185941043	68	127
377.1493424036281	377.7298185941043	56	127
377.7298185941043	378.40321995464853	70	127
377.7298185941043	378.07814058956916	74	127
377.7298185941043	378.3683900226757	60	127
377.7298185941043	378.40321995464853	55	127
378.07814058956916	378.40321995464853	76	127
378.40321995464853	379.03015873015875	68	127
378.40321995464853	378.99532879818594	77	127
378.40321995464853	378.99532879818594	60	127
378.40321995464853	379.03015873015875	53	127
379.03015873015875	379.65709750566896	51	127
379.03015873015875	379.65709750566896	69	127
379.03015873015875	379.65709750566896	60	127
379.03015873015875	380.2259863945578	77	127
379.65709750566896	380.26081632653063	50	127
379.65709750566896	380.26081632653063	70	127
379.65709750566896	380.26081632653063	65	127
380.26081632653063	380.96902494331067	48	127
380.26081632653063	380.632335600907	79	127
380.26081632653063	380.93419501133786	53	127
380.26081632653063	380.96902494331067	75	127
380.632335600907	380.96902494331067	81	127
380.96902494331067	381.735283446712	53	127
380.96902494331067	381.35215419501134	82	127
380.96902494331067	381.735283446712	46	127
380.96902494331067	381.735283446712	74	127
381.35215419501134	381.735283446712	84	127
381.735283446712	382.79179138321996	77	127
381.735283446712	382.2809523809524	85	127
381.735283446712	382.75696145124715	58	127
381.735283446712	382.79179138321996	44	127
382.2809523809524	382.79179138321996	86	127
382.79179138321996	384.8119274376417	58	127
382.79179138321996	384.8119274376417	87	127
382.79179138321996	384.8119274376417	63	127
382.79179138321996	384.8119274376417	70	127
382.79179138321996	384.8119274376417	43	127
385.64784580498866	387.3893424036281	72	127
385.64784580498866	386.06580498866214	68	127
385.64784580498866	387.3893424036281	75	127
385.64784580498866	387.3893424036281	84	127
385.64784580498866	387.3893424036281	56	127
385.64784580498866	387.3893424036281	44	127
385.64784580498866	387.3893424036281	63	127
385.64784580498866	387.3893424036281	56	127
388.2136507936508	388.7593197278912	63	127
388.2136507936508	388.7593197278912	55	127
388.2136507936508	388.7593197278912	58	127
388.2136507936508	388.7593197278912	46	127
389.4326984126984	389.9319274376417	46	127
389.4326984126984	389.9319274376417	65	127
389.4326984126984	389.9319274376417	56	127
389.4326984126984	389.9319274376417	62	127
390.5704761904762	391.00004535147394	58	127
390.5704761904762	391.00004535147394	63	127
390.5704761904762	391.00004535147394	55	127
390.5704761904762	391.00004535147394	39	127
392.2655328798186	392.37002267573695	57	127
392.37002267573695	392.5209523809524	58	127
392.5209523809524	392.6718820861678	60	127
392.6718820861678	392.77637188208615	58	127
392.77637188208615	395.20285714285717	56	127
392.77637188208615	393.94897959183675	50	127
392.77637188208615	397.33909297052156	46	127
394.5294784580499	394.6920181405896	68	127
394.6920181405896	394.8661678004535	70	127
394.8661678004535	395.0519274376417	72	127
395.0519274376417	395.2376870748299	70	127
395.2376870748299	397.33909297052156	55	127
395.2376870748299	396.14326530612243	63	127
396.7469841269841	396.8863038548753	81	127
396.8863038548753	397.0372335600907	82	127
397.0372335600907	397.17655328798185	84	127
397.17655328798185	397.36231292517004	82	127
397.36231292517004	397.9660317460318	68	127
397.36231292517004	397.7918820861678	74	127
397.36231292517004	397.9660317460318	58	127
397.36231292517004	397.9660317460318	65	127
397.36231292517004	397.9660317460318	46	127
398.0008616780045	398.1866213151927	81	127
398.1866213151927	398.34916099773244	82	127
398.34916099773244	398.40721088435373	84	127
398.40721088435373	398.5581405895692	82	127
398.5581405895692	399.1386394557823	46	127
398.5581405895692	399.1386394557823	65	127
398.5581405895692	398.9877097505669	74	127
398.5581405895692	399.1386394557823	58	127
398.5581405895692	399.1386394557823	68	127
399.16185941043085	399.3708390022676	81	127
399.3708390022676	399.53337868480725	82	127
399.53337868480725	399.62625850340135	84	127
399.62625850340135	399.8700680272109	82	127
399.8700680272109	401.0078458049887	75	127
399.8700680272109	400.7175963718821	58	127
399.8700680272109	400.7175963718821	67	127
399.8700680272109	400.7175963718821	63	127
399.8700680272109	400.7175963718821	51	127
401.0426757369614	401.25165532879817	57	127
401.25165532879817	401.4954648526077	58	127
401.4954648526077	401.73927437641726	57	127
401.73927437641726	401.9134240362812	58	127
401.9134240362812	402.0643537414966	57	127
402.0643537414966	402.1804535147392	58	127
402.1804535147392	402.38943310657595	60	127
402.38943310657595	402.5287528344671	58	127
402.5287528344671	403.9103401360544	50	127
402.5287528344671	405.00167800453517	56	127
402.5287528344671	407.13791383219956	46	127
403.9451700680272	404.1425396825397	69	127
404.1425396825397	404.3282993197279	70	127
404.3282993197279	404.4908390022676	69	127
404.4908390022676	404.61854875283444	70	127
404.61854875283444	404.68820861678006	69	127
404.68820861678006	404.78108843537416	70	127
404.78108843537416	404.8971882086168	72	127
404.8971882086168	405.02489795918365	70	127
405.02489795918365	407.13791383219956	55	127
405.02489795918365	406.0349659863946	63	127
406.05818594104306	406.18589569160997	81	127
406.18589569160997	406.3019954648526	82	127
406.3019954648526	406.4297052154195	81	127
406.4297052154195	406.6154648526077	82	127
406.6154648526077	406.7199546485261	81	127
406.7199546485261	406.89410430839	82	127
406.89410430839	407.01020408163265	84	127
407.01020408163265	407.1727437641723	82	127
407.1727437641723	407.6139229024943	74	127
407.1727437641723	407.8112925170068	56	127
407.1727437641723	407.8112925170068	62	127
407.1727437641723	407.8112925170068	53	127
407.1727437641723	407.8112925170068	46	127
407.8461224489796	407.95061224489797	81	127
407.95061224489797	408.0783219954649	82	127
408.0783219954649	408.2060317460317	84	127
408.2060317460317	408.3105215419501	82	127
408.3105215419501	408.36857142857144	81	127
408.36857142857144	408.49628117913835	82	127
408.49628117913835	409.0303401360544	56	127
408.49628117913835	409.0303401360544	62	127
408.49628117913835	408.8445804988662	74	127
408.49628117913835	409.0303401360544	53	127
408.49628117913835	409.0303401360544	46	127
409.0651700680272	409.2044897959184	81	127
409.2044897959184	409.3554195011338	82	127
409.3554195011338	409.5063492063492	84	127
409.5063492063492	409.5992290249433	82	127
409.5992290249433	409.7269387755102	81	127
409.7269387755102	409.9359183673469	82	127
409.9359183673469	411.0272562358277	51	127
409.9359183673469	411.0272562358277	55	127
409.9359183673469	411.0272562358277	63	127
409.9359183673469	411.0272562358277	51	127
409.9359183673469	411.3987755102041	75	127
412.234693877551	412.47850340136057	79	127
412.5133333333333	413.44213151927437	70	127
414.30126984126986	414.9630385487528	75	127
414.30126984126986	414.9630385487528	63	127
414.9630385487528	415.8337868480726	55	127
414.9630385487528	415.8337868480726	67	127
416.7045351473923	417.4243537414966	70	127
416.7045351473923	417.4243537414966	58	127
417.4243537414966	419.92049886621317	51	127
417.4243537414966	419.92049886621317	63	127
