# onset,offset,note,velocity
0.8119274376417234	0.9744671201814059	45	127
0.8119274376417234	1.0209070294784581	57	127
0.8119274376417234	1.2298866213151927	64	127
0.8119274376417234	1.2298866213151927	73	127
0.8119274376417234	1.2298866213151927	81	127
1.0325170068027212	1.1834467120181407	49	127
1.2298866213151927	1.3924263038548752	52	127
1.2763265306122449	1.322766439909297	71	127
1.322766439909297	1.3924263038548752	69	127
1.3924263038548752	1.4388662131519274	68	127
1.4388662131519274	1.9497052154195011	61	127
1.4388662131519274	1.6362358276643991	69	127
1.4388662131519274	1.9497052154195011	64	127
1.4388662131519274	1.9497052154195011	57	127
1.7058956916099772	1.8916553287981859	71	127
1.9497052154195011	2.0658049886621317	73	127
2.1238548752834467	2.2863718820861676	45	127
2.3328344671201813	2.448934240362812	49	127
2.506984126984127	2.6695238095238096	52	127
2.5650340136054424	2.6230839002267574	74	127
2.6230839002267574	2.6811337868480725	73	127
2.6811337868480725	2.7275736961451247	71	127
2.7275736961451247	2.8668934240362813	73	127
2.7275736961451247	3.157142857142857	64	127
2.7275736961451247	3.157142857142857	61	127
2.7275736961451247	3.157142857142857	57	127
2.9249433106575964	3.099092970521542	74	127
3.157142857142857	3.2616326530612243	76	127
3.2616326530612243	3.424172335600907	45	127
3.5518820861678004	3.726031746031746	49	127
3.784081632653061	3.9582312925170067	52	127
3.8421315192743766	3.9117913832199545	78	127
3.9117913832199545	3.9582312925170067	76	127
3.9582312925170067	4.016281179138322	75	127
4.016281179138322	4.202040816326531	76	127
4.016281179138322	4.538730158730159	64	127
4.016281179138322	4.538730158730159	61	127
4.016281179138322	4.538730158730159	57	127
4.318140589569161	4.492290249433107	78	127
4.55031746031746	4.7477097505668935	80	127
4.805759637188209	4.956689342403628	81	127
5.0147392290249435	5.1656689342403626	83	127
5.2004761904761905	5.293378684807256	85	127
5.339818594104308	5.479138321995465	85	127
5.525578231292517	5.606848072562358	86	127
5.630068027210885	5.664897959183674	88	127
5.676507936507937	6.3034467120181406	90	127
5.676507936507937	5.8854875283446715	45	127
5.676507936507937	6.849115646258503	66	127
5.676507936507937	6.849115646258503	62	127
5.8854875283446715	6.106077097505669	50	127
6.106077097505669	6.3034467120181406	54	127
6.3034467120181406	6.431156462585034	86	127
6.3034467120181406	7.046485260770975	45	127
6.651746031746032	6.791065759637188	85	127
6.849115646258503	8.567392290249433	59	127
6.849115646258503	7.046485260770975	83	127
6.849115646258503	8.567392290249433	68	127
7.046485260770975	7.25546485260771	50	127
7.25546485260771	7.452834467120182	52	127
7.25546485260771	7.394784580498866	85	127
7.452834467120182	7.661814058956916	86	127
7.452834467120182	8.265510204081632	45	127
7.835963718820862	7.986893424036281	87	127
8.044920634920635	8.567392290249433	88	127
8.277142857142858	8.43968253968254	50	127
8.451292517006802	8.567392290249433	52	127
8.579002267573696	8.729931972789116	85	127
8.579002267573696	8.776349206349206	45	127
8.579002267573696	9.809659863945578	61	127
8.579002267573696	9.809659863945578	69	127
8.787981859410431	8.938911564625851	81	127
8.787981859410431	8.985351473922902	49	127
8.996938775510204	9.159501133786849	83	127
8.996938775510204	9.2059410430839	52	127
9.2059410430839	9.368480725623582	85	127
9.2059410430839	9.414920634920636	45	127
9.414920634920636	9.542630385487529	85	127
9.414920634920636	9.600657596371882	49	127
9.600657596371882	9.809659863945578	52	127
9.600657596371882	9.751609977324263	86	127
9.809659863945578	9.97219954648526	88	127
9.809659863945578	10.448208616780045	67	127
9.809659863945578	10.448208616780045	61	127
9.809659863945578	10.030249433106576	45	127
10.030249433106576	10.181179138321996	88	127
10.030249433106576	10.239229024943311	52	127
10.239229024943311	10.390136054421768	89	127
10.239229024943311	10.448208616780045	55	127
10.448208616780045	11.562766439909296	62	127
10.448208616780045	10.645555555555555	45	127
10.448208616780045	11.051927437641723	90	127
10.448208616780045	11.562766439909296	66	127
10.645555555555555	10.854557823129252	50	127
10.854557823129252	11.051927437641723	54	127
11.051927437641723	11.388616780045352	86	127
11.051927437641723	11.771746031746032	45	127
11.400226757369614	11.516326530612245	85	127
11.57437641723356	11.725283446712018	83	127
11.57437641723356	12.793424036281179	68	127
11.57437641723356	12.793424036281179	59	127
11.783356009070294	11.980725623582767	50	127
11.99233560090703	12.096825396825396	52	127
11.99233560090703	12.07360544217687	85	127
12.10843537414966	12.259365079365079	86	127
12.10843537414966	12.317414965986394	45	127
12.317414965986394	12.572834467120181	47	127
12.572834467120181	12.793424036281179	50	127
12.572834467120181	12.746984126984128	88	127
12.793424036281179	13.222993197278912	61	127
12.793424036281179	13.222993197278912	45	127
12.793424036281179	13.222993197278912	69	127
12.793424036281179	13.222993197278912	81	127
13.466802721088435	13.548072562358277	69	127
13.548072562358277	13.652562358276644	71	127
13.652562358276644	13.745442176870748	73	127
13.745442176870748	13.815102040816326	74	127
13.815102040816326	13.896371882086168	76	127
13.896371882086168	13.989251700680272	73	127
13.989251700680272	14.372380952380952	74	127
14.20984126984127	14.337551020408164	52	127
14.20984126984127	14.337551020408164	52	127
14.20984126984127	14.337551020408164	64	127
14.372380952380952	14.511700680272108	64	127
14.372380952380952	14.511700680272108	52	127
14.372380952380952	14.511700680272108	52	127
14.581360544217688	14.685850340136055	76	127
14.685850340136055	14.790340136054422	78	127
14.790340136054422	14.894829931972788	80	127
14.894829931972788	14.999319727891157	81	127
14.999319727891157	15.092199546485261	83	127
15.092199546485261	15.173469387755102	80	127
15.173469387755102	15.498548752834466	81	127
15.31278911564626	15.475328798185942	49	127
15.31278911564626	15.475328798185942	61	127
15.31278911564626	15.475328798185942	49	127
15.498548752834466	15.649478458049886	49	127
15.498548752834466	15.649478458049886	61	127
15.498548752834466	15.649478458049886	49	127
15.707528344671202	15.835238095238095	69	127
15.835238095238095	15.951337868480726	71	127
15.951337868480726	16.02097505668934	73	127
16.02097505668934	16.11387755102041	74	127
16.11387755102041	16.20673469387755	76	127
16.20673469387755	16.31124716553288	73	127
16.31124716553288	16.41573696145125	78	127
16.473786848072564	16.624716553287982	62	127
16.473786848072564	16.624716553287982	50	127
16.473786848072564	16.624716553287982	50	127
16.682766439909297	16.845283446712017	62	127
16.682766439909297	16.845283446712017	50	127
16.682766439909297	16.845283446712017	50	127
16.903333333333332	17.042675736961453	80	127
17.100702947845804	17.216825396825396	64	127
17.100702947845804	17.216825396825396	52	127
17.100702947845804	17.216825396825396	52	127
17.27487528344671	17.402585034013605	64	127
17.27487528344671	17.402585034013605	52	127
17.27487528344671	17.402585034013605	52	127
17.449024943310658	17.57673469387755	81	127
17.634784580498867	17.785714285714285	57	127
17.634784580498867	17.785714285714285	57	127
17.634784580498867	17.785714285714285	45	127
17.8553514739229	18.017913832199547	57	127
17.8553514739229	18.017913832199547	57	127
17.8553514739229	18.017913832199547	45	127
18.075963718820862	18.18045351473923	69	127
18.18045351473923	18.284943310657596	71	127
18.284943310657596	18.354603174603174	73	127
18.354603174603174	18.470702947845805	74	127
18.470702947845805	18.575192743764173	76	127
18.575192743764173	18.679659863945577	73	127
18.679659863945577	19.051201814058956	74	127
18.842222222222222	18.99315192743764	52	127
18.842222222222222	18.99315192743764	64	127
18.842222222222222	18.99315192743764	52	127
19.051201814058956	19.21374149659864	64	127
19.051201814058956	19.21374149659864	52	127
19.051201814058956	19.21374149659864	52	127
19.271791383219956	19.387891156462587	76	127
19.387891156462587	19.49238095238095	78	127
19.49238095238095	19.59687074829932	80	127
19.59687074829932	19.666530612244898	81	127
19.666530612244898	19.724580498866214	80	127
19.724580498866214	19.817460317460316	81	127
19.875510204081632	20.08448979591837	69	127
19.875510204081632	20.08448979591837	61	127
19.875510204081632	20.08448979591837	49	127
19.875510204081632	20.08448979591837	49	127
20.14251700680272	20.293469387755103	69	127
20.14251700680272	20.293469387755103	61	127
20.14251700680272	20.293469387755103	49	127
20.14251700680272	20.293469387755103	49	127
20.351519274376418	20.5256462585034	81	127
20.583696145124716	20.7346485260771	55	127
20.583696145124716	20.7346485260771	67	127
20.583696145124716	20.7346485260771	55	127
20.792698412698414	20.966825396825396	67	127
20.792698412698414	20.966825396825396	55	127
20.792698412698414	20.966825396825396	55	127
21.024897959183672	21.152607709750566	81	127
21.19904761904762	21.326757369614512	54	127
21.19904761904762	21.326757369614512	66	127
21.19904761904762	21.326757369614512	54	127
21.384807256235828	21.535714285714285	66	127
21.384807256235828	21.535714285714285	54	127
21.384807256235828	21.535714285714285	54	127
21.59378684807256	21.721496598639455	81	127
21.73310657596372	21.872426303854876	65	127
21.73310657596372	21.872426303854876	53	127
21.73310657596372	21.872426303854876	53	127
21.930476190476192	22.1162358276644	65	127
21.930476190476192	22.1162358276644	53	127
21.930476190476192	22.1162358276644	53	127
22.18589569160998	24.26408163265306	52	127
22.18589569160998	22.429705215419503	64	127
22.18589569160998	22.638684807256237	64	127
22.18589569160998	22.801224489795917	52	127
22.429705215419503	22.54580498866213	68	127
22.54580498866213	22.638684807256237	71	127
22.638684807256237	22.74315192743764	76	127
22.74315192743764	22.801224489795917	80	127
22.801224489795917	23.010204081632654	50	127
22.801224489795917	23.207573696145126	83	127
23.010204081632654	23.207573696145126	47	127
23.207573696145126	23.41655328798186	50	127
23.207573696145126	23.41655328798186	80	127
23.41655328798186	23.625532879818593	49	127
23.41655328798186	23.869342403628117	81	127
23.625532879818593	23.869342403628117	73	127
23.625532879818593	23.869342403628117	45	127
23.869342403628117	24.07832199546485	83	127
23.869342403628117	24.07832199546485	71	127
23.869342403628117	24.07832199546485	44	127
24.07832199546485	24.26408163265306	45	127
24.07832199546485	24.26408163265306	73	127
24.07832199546485	24.473061224489797	85	127
24.26408163265306	24.473061224489797	69	127
24.26408163265306	24.473061224489797	57	127
24.26408163265306	24.473061224489797	42	127
24.473061224489797	24.670430839002268	87	127
24.473061224489797	24.670430839002268	71	127
24.473061224489797	24.670430839002268	57	127
24.473061224489797	24.670430839002268	47	127
24.68204081632653	24.83297052154195	88	127
24.68204081632653	24.83297052154195	40	127
24.68204081632653	25.007120181405895	56	127
24.68204081632653	25.007120181405895	71	127
24.856190476190477	25.007120181405895	52	127
24.856190476190477	24.98390022675737	76	127
25.018730158730158	25.05356009070295	78	127
25.018730158730158	25.204489795918366	51	127
25.05356009070295	25.111609977324264	80	127
25.111609977324264	25.204489795918366	78	127
25.21609977324263	25.982358276643993	52	127
25.21609977324263	25.36702947845805	80	127
25.21609977324263	25.36702947845805	52	127
25.36702947845805	25.55278911564626	50	127
25.36702947845805	25.55278911564626	80	127
25.564399092970522	25.610839002267575	80	127
25.564399092970522	25.761768707482993	47	127
25.610839002267575	25.66888888888889	81	127
25.66888888888889	25.761768707482993	80	127
25.784988662131518	25.982358276643993	49	127
25.784988662131518	25.982358276643993	81	127
25.982358276643993	26.191337868480726	73	127
25.982358276643993	26.191337868480726	81	127
25.982358276643993	26.191337868480726	64	127
25.982358276643993	26.191337868480726	45	127
26.191337868480726	26.388707482993198	71	127
26.191337868480726	26.249387755102042	83	127
26.191337868480726	26.388707482993198	64	127
26.191337868480726	26.388707482993198	44	127
26.249387755102042	26.29582766439909	85	127
26.29582766439909	26.388707482993198	83	127
26.388707482993198	26.562857142857144	64	127
26.388707482993198	26.562857142857144	45	127
26.388707482993198	26.562857142857144	85	127
26.388707482993198	26.562857142857144	73	127
26.562857142857144	26.795056689342402	57	127
26.562857142857144	26.737006802721087	69	127
26.562857142857144	26.795056689342402	85	127
26.562857142857144	26.795056689342402	42	127
26.795056689342402	26.853106575963718	87	127
26.795056689342402	26.945986394557824	69	127
26.795056689342402	27.00403628117914	59	127
26.795056689342402	27.00403628117914	47	127
26.853106575963718	26.89954648526077	88	127
26.89954648526077	27.00403628117914	87	127
27.00403628117914	27.213015873015873	88	127
27.00403628117914	27.154965986394558	40	127
27.00403628117914	27.38716553287982	68	127
27.00403628117914	27.38716553287982	59	127
27.213015873015873	27.35233560090703	44	127
27.213015873015873	27.38716553287982	88	127
27.38716553287982	27.5497052154195	47	127
27.38716553287982	27.596145124716553	92	127
27.607755102040816	27.793514739229025	88	127
27.607755102040816	27.73546485260771	52	127
27.607755102040816	28.014104308390024	68	127
27.607755102040816	28.014104308390024	59	127
27.793514739229025	28.014104308390024	88	127
27.793514739229025	27.95605442176871	56	127
28.014104308390024	28.165034013605442	59	127
28.014104308390024	28.223083900226758	95	127
28.23469387755102	28.68748299319728	59	127
28.23469387755102	28.68748299319728	88	127
28.23469387755102	28.68748299319728	68	127
28.23469387755102	28.68748299319728	64	127
29.360861678004536	29.535011337868482	59	127
29.360861678004536	29.535011337868482	59	127
29.360861678004536	29.535011337868482	47	127
29.593061224489794	29.83687074829932	67	127
29.593061224489794	29.83687074829932	67	127
29.593061224489794	29.83687074829932	55	127
30.103900226757368	30.289659863945577	63	127
30.103900226757368	30.289659863945577	63	127
30.103900226757368	30.289659863945577	51	127
30.359319727891158	30.545079365079363	64	127
30.359319727891158	30.545079365079363	64	127
30.359319727891158	30.545079365079363	52	127
30.74244897959184	30.90498866213152	59	127
30.74244897959184	30.90498866213152	59	127
30.74244897959184	30.90498866213152	47	127
30.963038548752834	31.40421768707483	60	127
30.963038548752834	31.40421768707483	60	127
30.963038548752834	31.40421768707483	48	127
31.40421768707483	31.531927437641723	62	127
31.40421768707483	31.531927437641723	62	127
31.40421768707483	31.531927437641723	50	127
31.531927437641723	31.659637188208617	60	127
31.531927437641723	31.659637188208617	60	127
31.531927437641723	31.659637188208617	48	127
31.659637188208617	31.90344671201814	59	127
31.659637188208617	31.90344671201814	59	127
31.659637188208617	31.90344671201814	47	127
32.170476190476194	32.274965986394555	59	127
32.170476190476194	32.391065759637186	59	127
32.28655328798186	32.391065759637186	57	127
32.40267573696145	32.797392290249434	64	127
32.40267573696145	32.797392290249434	59	127
32.40267573696145	32.797392290249434	55	127
32.82063492063492	33.04120181405896	54	127
32.82063492063492	33.04120181405896	66	127
32.82063492063492	33.04120181405896	63	127
33.04120181405896	33.44757369614513	64	127
33.04120181405896	33.44757369614513	67	127
33.04120181405896	33.44757369614513	52	127
33.44757369614513	33.66816326530612	66	127
33.44757369614513	33.66816326530612	69	127
33.44757369614513	33.66816326530612	51	127
33.66816326530612	34.15578231292517	66	127
33.66816326530612	34.15578231292517	69	127
33.66816326530612	34.15578231292517	52	127
34.15578231292517	34.39959183673469	64	127
34.15578231292517	34.22544217687075	67	127
34.15578231292517	34.39959183673469	46	127
34.22544217687075	34.28349206349206	69	127
34.28349206349206	34.39959183673469	67	127
34.39959183673469	34.84077097505669	47	127
34.39959183673469	34.60857142857143	66	127
34.39959183673469	34.84077097505669	63	127
34.84077097505669	35.07294784580499	59	127
35.08458049886622	36.24557823129252	59	127
35.08458049886622	35.560589569160996	67	127
35.08458049886622	35.560589569160996	55	127
35.08458049886622	35.560589569160996	52	127
35.57219954648526	35.79278911564626	63	127
35.57219954648526	35.79278911564626	57	127
35.57219954648526	35.79278911564626	54	127
35.79278911564626	36.03659863945578	59	127
35.79278911564626	36.03659863945578	64	127
35.79278911564626	36.03659863945578	55	127
36.24557823129252	36.466145124716554	56	127
36.24557823129252	36.466145124716554	59	127
36.24557823129252	36.466145124716554	64	127
36.24557823129252	36.466145124716554	64	127
36.47775510204082	37.55750566893424	64	127
36.47775510204082	36.82607709750567	72	127
36.47775510204082	36.82607709750567	60	127
36.47775510204082	36.82607709750567	57	127
36.83768707482993	37.081496598639454	68	127
36.83768707482993	37.081496598639454	62	127
36.83768707482993	37.081496598639454	59	127
37.081496598639454	37.29047619047619	69	127
37.081496598639454	37.29047619047619	64	127
37.081496598639454	37.29047619047619	60	127
37.55750566893424	37.696825396825396	76	127
37.55750566893424	37.696825396825396	72	127
37.55750566893424	37.696825396825396	54	127
37.731632653061226	38.17283446712018	55	127
37.731632653061226	37.95224489795918	76	127
37.731632653061226	37.95224489795918	72	127
37.963854875283445	38.114761904761906	74	127
37.963854875283445	38.114761904761906	71	127
38.17283446712018	38.405034013605444	64	127
38.17283446712018	38.33537414965986	72	127
38.17283446712018	38.33537414965986	69	127
38.17283446712018	38.405034013605444	48	127
38.42825396825397	38.637233560090706	69	127
38.42825396825397	38.47469387755102	74	127
38.42825396825397	38.637233560090706	64	127
38.42825396825397	38.84621315192744	50	127
38.47469387755102	38.637233560090706	72	127
38.637233560090706	38.79977324263039	71	127
38.637233560090706	38.79977324263039	67	127
38.637233560090706	38.79977324263039	62	127
38.8578231292517	39.066802721088436	38	127
38.8578231292517	39.00873015873016	66	127
38.8578231292517	39.00873015873016	69	127
38.8578231292517	39.00873015873016	60	127
39.066802721088436	39.74018140589569	66	127
39.066802721088436	39.74018140589569	69	127
39.066802721088436	39.50795918367347	43	127
39.066802721088436	39.74018140589569	60	127
39.50795918367347	39.74018140589569	50	127
39.75179138321995	39.96077097505669	67	127
39.75179138321995	39.96077097505669	59	127
39.75179138321995	40.19297052154195	55	127
40.204580498866214	40.425170068027214	59	127
40.204580498866214	40.425170068027214	71	127
40.204580498866214	40.425170068027214	47	127
40.49482993197279	40.750249433106575	79	127
40.49482993197279	40.750249433106575	67	127
40.49482993197279	40.750249433106575	55	127
40.98244897959184	41.133378684807255	75	127
40.98244897959184	41.133378684807255	63	127
40.98244897959184	41.133378684807255	51	127
41.191428571428574	41.400408163265304	76	127
41.191428571428574	41.400408163265304	64	127
41.191428571428574	41.400408163265304	52	127
41.632607709750566	41.82997732426304	71	127
41.632607709750566	41.82997732426304	59	127
41.632607709750566	41.82997732426304	47	127
41.88802721088435	42.3756462585034	48	127
41.88802721088435	42.3756462585034	72	127
41.88802721088435	42.3756462585034	60	127
42.3756462585034	42.49174603174603	74	127
42.3756462585034	42.49174603174603	62	127
42.3756462585034	42.49174603174603	50	127
42.49174603174603	42.60784580498866	72	127
42.49174603174603	42.60784580498866	60	127
42.49174603174603	42.60784580498866	48	127
42.60784580498866	42.82843537414966	71	127
42.60784580498866	42.82843537414966	59	127
42.60784580498866	43.049024943310656	47	127
43.049024943310656	43.16512471655329	71	127
43.049024943310656	43.21156462585034	71	127
43.049024943310656	43.269614512471655	71	127
43.16512471655329	43.269614512471655	69	127
43.269614512471655	43.72240362811792	76	127
43.269614512471655	43.72240362811792	71	127
43.269614512471655	43.72240362811792	67	127
43.72240362811792	43.93138321995465	78	127
43.72240362811792	43.93138321995465	75	127
43.72240362811792	43.93138321995465	66	127
43.94299319727891	44.360952380952384	79	127
43.94299319727891	44.360952380952384	76	127
43.94299319727891	44.360952380952384	64	127
44.372562358276646	44.581541950113376	81	127
44.372562358276646	44.581541950113376	78	127
44.372562358276646	44.581541950113376	63	127
44.59312925170068	45.03433106575964	81	127
44.59312925170068	45.03433106575964	78	127
44.59312925170068	45.03433106575964	64	127
45.0459410430839	45.09235827664399	79	127
45.0459410430839	45.2665306122449	76	127
45.0459410430839	45.2665306122449	58	127
45.09235827664399	45.15043083900227	81	127
45.15043083900227	45.2665306122449	79	127
45.2665306122449	45.521950113378686	78	127
45.2665306122449	45.75414965986395	59	127
45.2665306122449	45.75414965986395	75	127
45.75414965986395	45.99795918367347	71	127
45.99795918367347	47.11251700680272	71	127
45.99795918367347	46.4275283446712	80	127
45.99795918367347	46.4275283446712	68	127
45.99795918367347	46.4275283446712	64	127
46.4275283446712	46.6481179138322	69	127
46.4275283446712	46.6481179138322	66	127
46.4275283446712	46.6481179138322	75	127
46.659727891156464	46.8802947845805	76	127
46.659727891156464	46.8802947845805	71	127
46.659727891156464	46.8802947845805	68	127
47.124104308390024	47.46081632653061	71	127
47.124104308390024	47.46081632653061	76	127
47.124104308390024	47.46081632653061	71	127
47.124104308390024	47.46081632653061	68	127
47.46081632653061	48.58698412698413	76	127
47.46081632653061	47.89038548752834	69	127
47.46081632653061	47.89038548752834	85	127
47.46081632653061	47.89038548752834	73	127
47.89038548752834	48.087755102040816	80	127
47.89038548752834	48.087755102040816	74	127
47.89038548752834	48.087755102040816	71	127
48.087755102040816	48.58698412698413	81	127
48.087755102040816	48.58698412698413	76	127
48.087755102040816	48.58698412698413	73	127
49.89891156462585	50.04984126984127	76	127
50.04984126984127	50.51424036281179	85	127
50.51424036281179	50.72321995464853	80	127
50.72321995464853	51.141179138321995	81	127
51.141179138321995	51.303718820861675	68	127
51.141179138321995	51.303718820861675	77	127
51.303718820861675	51.791337868480724	78	127
51.303718820861675	51.791337868480724	69	127
51.791337868480724	52.023537414965986	68	127
51.791337868480724	52.023537414965986	65	127
51.791337868480724	52.65047619047619	73	127
52.023537414965986	52.65047619047619	69	127
52.023537414965986	52.65047619047619	66	127
52.66208616780045	52.87106575963719	72	127
52.66208616780045	52.87106575963719	52	127
52.66208616780045	53.31224489795918	69	127
52.66208616780045	53.31224489795918	66	127
52.88267573696145	53.31224489795918	51	127
52.88267573696145	53.73020408163265	71	127
53.323854875283445	53.52122448979592	64	127
53.323854875283445	53.52122448979592	68	127
53.323854875283445	53.52122448979592	52	127
53.53283446712018	53.93918367346939	66	127
53.53283446712018	53.93918367346939	61	127
53.53283446712018	53.93918367346939	45	127
53.74181405895692	53.89274376417234	69	127
53.95079365079365	54.194603174603174	57	127
53.95079365079365	54.13655328798186	66	127
53.95079365079365	54.194603174603174	63	127
53.95079365079365	54.194603174603174	47	127
54.194603174603174	54.62417233560091	64	127
54.194603174603174	54.62417233560091	56	127
54.194603174603174	54.62417233560091	40	127
54.62417233560091	54.856371882086165	66	127
54.856371882086165	55.00730158730159	68	127
55.0653514739229	55.21628117913832	66	127
55.27433106575964	55.413650793650795	64	127
55.47170068027211	55.66907029478458	63	127
55.47170068027211	55.87804988662131	59	127
55.87804988662131	56.07541950113379	61	127
55.87804988662131	56.1334693877551	61	127
56.1334693877551	56.284399092970524	62	127
56.1334693877551	56.55142857142857	59	127
56.342448979591836	56.50498866213152	61	127
56.342448979591836	56.55142857142857	77	127
56.563038548752836	56.713968253968254	59	127
56.563038548752836	56.7604081632653	77	127
56.772018140589566	56.95777777777778	57	127
56.772018140589566	57.166757369614515	78	127
56.772018140589566	57.166757369614515	66	127
57.17836734693878	57.30607709750567	56	127
57.17836734693878	57.34090702947846	68	127
57.35251700680272	57.50344671201814	69	127
57.35251700680272	57.79369614512472	54	127
57.56149659863946	57.74725623582766	68	127
57.80530612244898	57.94462585034014	66	127
57.99106575963719	58.18843537414966	64	127
57.99106575963719	58.42063492063492	61	127
58.42063492063492	58.61800453514739	63	127
58.42063492063492	58.55995464852608	63	127
58.61800453514739	58.78054421768707	64	127
58.61800453514739	59.059183673469384	61	127
58.83859410430839	58.98952380952381	63	127
58.83859410430839	59.059183673469384	79	127
59.059183673469384	59.21011337868481	61	127
59.059183673469384	59.26816326530612	79	127
59.26816326530612	59.68612244897959	80	127
59.26816326530612	59.47714285714286	59	127
59.26816326530612	59.68612244897959	68	127
59.68612244897959	59.88349206349206	70	127
59.68612244897959	59.82544217687075	58	127
59.88349206349206	60.03442176870748	71	127
59.88349206349206	60.28984126984127	56	127
60.0924716553288	60.24340136054422	70	127
60.30145124716553	60.45238095238095	68	127
60.51043083900227	60.881950113378686	47	127
60.51043083900227	60.67297052154195	69	127
60.51043083900227	60.881950113378686	69	127
60.51043083900227	60.881950113378686	81	127
60.51043083900227	60.881950113378686	59	127
60.68458049886621	60.83551020408163	63	127
60.881950113378686	61.032879818594104	59	127
60.881950113378686	61.032879818594104	80	127
60.881950113378686	61.032879818594104	64	127
60.881950113378686	61.032879818594104	49	127
61.09092970521542	61.24185941043084	78	127
61.09092970521542	61.24185941043084	66	127
61.09092970521542	61.24185941043084	59	127
61.09092970521542	61.24185941043084	51	127
61.265079365079366	61.40439909297052	76	127
61.265079365079366	61.40439909297052	68	127
61.265079365079366	61.40439909297052	59	127
61.265079365079366	61.40439909297052	52	127
61.462448979591834	61.62498866213152	75	127
61.462448979591834	61.62498866213152	69	127
61.462448979591834	61.62498866213152	59	127
61.462448979591834	61.62498866213152	54	127
61.67142857142857	61.89201814058957	56	127
61.67142857142857	61.845578231292514	71	127
61.67142857142857	61.89201814058957	75	127
61.67142857142857	61.89201814058957	59	127
61.89201814058957	62.08938775510204	76	127
61.89201814058957	62.08938775510204	71	127
61.89201814058957	62.08938775510204	56	127
61.89201814058957	62.08938775510204	52	127
62.08938775510204	62.30997732426304	71	127
62.08938775510204	62.30997732426304	68	127
62.30997732426304	62.53056689342404	61	127
62.30997732426304	62.53056689342404	57	127
62.53056689342404	62.785986394557824	76	127
62.53056689342404	62.785986394557824	73	127
62.53056689342404	62.785986394557824	64	127
62.53056689342404	62.785986394557824	61	127
62.785986394557824	62.97174603174603	73	127
62.785986394557824	62.97174603174603	69	127
62.97174603174603	63.18072562358277	52	127
62.97174603174603	63.18072562358277	47	127
63.18072562358277	63.37809523809524	71	127
63.18072562358277	63.37809523809524	68	127
63.18072562358277	63.37809523809524	56	127
63.18072562358277	63.37809523809524	52	127
63.37809523809524	63.58707482993197	68	127
63.37809523809524	63.58707482993197	64	127
63.58707482993197	63.784444444444446	54	127
63.58707482993197	63.784444444444446	47	127
63.784444444444446	63.981814058956914	69	127
63.784444444444446	63.981814058956914	66	127
63.784444444444446	63.981814058956914	57	127
63.784444444444446	63.981814058956914	54	127
63.993424036281176	64.20240362811792	66	127
63.993424036281176	64.20240362811792	63	127
64.21401360544218	64.3649433106576	64	127
64.21401360544218	64.6435827664399	56	127
64.21401360544218	64.6435827664399	40	127
64.44621315192744	64.59714285714286	64	127
64.44621315192744	64.59714285714286	76	127
64.65519274376418	64.8061224489796	78	127
64.65519274376418	64.8061224489796	66	127
64.86417233560091	65.01510204081633	80	127
64.86417233560091	65.01510204081633	68	127
65.07312925170068	65.2124716553288	78	127
65.07312925170068	65.2124716553288	66	127
65.23569160997732	65.36340136054422	76	127
65.23569160997732	65.36340136054422	64	127
65.40984126984127	65.59560090702948	75	127
65.40984126984127	65.59560090702948	63	127
65.40984126984127	65.81616780045351	59	127
65.40984126984127	65.81616780045351	47	127
65.81616780045351	65.97873015873016	61	127
65.81616780045351	65.97873015873016	73	127
65.81616780045351	65.97873015873016	61	127
65.81616780045351	65.97873015873016	49	127
66.03678004535148	66.1877097505669	62	127
66.03678004535148	66.1877097505669	50	127
66.03678004535148	66.48956916099773	71	127
66.03678004535148	66.48956916099773	59	127
66.24575963718821	66.41990929705216	61	127
66.24575963718821	66.41990929705216	49	127
66.48956916099773	66.64049886621315	59	127
66.48956916099773	66.64049886621315	47	127
66.69854875283447	66.91913832199546	57	127
66.69854875283447	66.91913832199546	45	127
66.69854875283447	67.11650793650794	78	127
66.69854875283447	67.11650793650794	66	127
67.11650793650794	67.26743764172336	68	127
67.11650793650794	67.26743764172336	80	127
67.11650793650794	67.26743764172336	56	127
67.11650793650794	67.26743764172336	44	127
67.32548752834467	67.47639455782313	69	127
67.32548752834467	67.47639455782313	81	127
67.32548752834467	67.77827664399094	54	127
67.32548752834467	67.77827664399094	42	127
67.5344671201814	67.73181405895691	80	127
67.5344671201814	67.73181405895691	68	127
67.78988662131519	67.92920634920635	78	127
67.78988662131519	67.92920634920635	66	127
67.9756462585034	68.1033560090703	76	127
67.9756462585034	68.1033560090703	64	127
67.9756462585034	68.30072562358276	61	127
67.9756462585034	68.30072562358276	49	127
68.31233560090703	68.45165532879818	63	127
68.31233560090703	68.45165532879818	75	127
68.31233560090703	68.45165532879818	63	127
68.31233560090703	68.45165532879818	51	127
68.52131519274377	68.62578231292517	64	127
68.52131519274377	68.62578231292517	52	127
68.52131519274377	68.89283446712018	73	127
68.52131519274377	68.89283446712018	61	127
68.67224489795919	68.83478458049886	63	127
68.67224489795919	68.83478458049886	51	127
68.90444444444445	69.05537414965987	61	127
68.90444444444445	69.05537414965987	49	127
69.11340136054422	69.32240362811791	59	127
69.11340136054422	69.32240362811791	47	127
69.11340136054422	69.53138321995465	80	127
69.11340136054422	69.53138321995465	68	127
69.53138321995465	69.67070294784581	70	127
69.53138321995465	69.67070294784581	82	127
69.53138321995465	69.67070294784581	58	127
69.53138321995465	69.67070294784581	46	127
69.72875283446712	69.87965986394558	71	127
69.72875283446712	70.15829931972789	56	127
69.72875283446712	70.15829931972789	44	127
69.72875283446712	69.87965986394558	83	127
69.94934240362812	70.10027210884354	70	127
69.94934240362812	70.10027210884354	83	127
70.15829931972789	70.30925170068028	68	127
70.15829931972789	70.30925170068028	83	127
70.35569160997733	70.75043083900226	66	127
70.35569160997733	70.75043083900226	47	127
70.35569160997733	71.57473922902494	83	127
70.35569160997733	70.75043083900226	69	127
70.75043083900226	70.90133786848072	64	127
70.75043083900226	70.90133786848072	49	127
70.75043083900226	70.90133786848072	68	127
70.959410430839	71.11034013605442	66	127
70.959410430839	71.11034013605442	63	127
70.959410430839	71.11034013605442	51	127
71.16839002267574	71.3077097505669	64	127
71.16839002267574	71.3077097505669	61	127
71.16839002267574	71.3077097505669	52	127
71.3657596371882	71.51668934240362	54	127
71.3657596371882	71.51668934240362	63	127
71.3657596371882	71.51668934240362	59	127
71.58634920634921	71.87659863945578	69	127
71.58634920634921	71.77210884353741	66	127
71.58634920634921	71.77210884353741	47	127
71.58634920634921	72.7821768707483	83	127
71.99269841269842	72.12040816326531	64	127
71.99269841269842	72.12040816326531	49	127
71.99269841269842	72.12040816326531	68	127
72.17843537414966	72.32938775510205	66	127
72.17843537414966	72.32938775510205	63	127
72.17843537414966	72.32938775510205	51	127
72.3758276643991	72.52675736961451	52	127
72.3758276643991	72.52675736961451	61	127
72.3758276643991	72.52675736961451	64	127
72.58480725623583	72.73573696145125	54	127
72.58480725623583	72.73573696145125	63	127
72.58480725623583	72.73573696145125	59	127
72.7821768707483	72.95632653061224	69	127
72.7821768707483	72.95632653061224	83	127
72.7821768707483	72.95632653061224	54	127
72.7821768707483	72.95632653061224	63	127
72.95632653061224	73.16530612244898	54	127
72.95632653061224	73.16530612244898	83	127
72.95632653061224	73.16530612244898	81	127
72.95632653061224	73.16530612244898	63	127
73.16530612244898	73.37428571428572	85	127
73.16530612244898	73.37428571428572	80	127
73.16530612244898	73.37428571428572	64	127
73.16530612244898	73.37428571428572	52	127
73.37428571428572	73.57165532879819	87	127
73.37428571428572	73.57165532879819	78	127
73.37428571428572	73.57165532879819	66	127
73.37428571428572	73.57165532879819	51	127
73.57165532879819	73.76902494331065	88	127
73.57165532879819	73.76902494331065	76	127
73.57165532879819	73.76902494331065	68	127
73.57165532879819	73.76902494331065	49	127
73.76902494331065	73.98961451247166	47	127
73.76902494331065	73.98961451247166	90	127
73.76902494331065	73.98961451247166	75	127
73.76902494331065	73.98961451247166	69	127
73.98961451247166	74.40757369614512	59	127
73.98961451247166	74.40757369614512	52	127
73.98961451247166	74.19857142857143	76	127
73.98961451247166	74.61655328798186	92	127
74.19857142857143	74.40757369614512	64	127
74.40757369614512	74.61655328798186	76	127
74.61655328798186	75.05773242630386	64	127
74.61655328798186	75.05773242630386	49	127
74.61655328798186	75.2667120181406	93	127
74.8371201814059	75.05773242630386	64	127
75.06934240362811	75.2667120181406	76	127
75.27832199546485	75.89365079365079	95	127
75.27832199546485	75.68467120181406	64	127
75.27832199546485	75.68467120181406	44	127
75.48730158730159	75.68467120181406	64	127
75.69628117913832	75.89365079365079	76	127
75.90526077097506	76.32321995464852	64	127
75.90526077097506	76.32321995464852	46	127
75.90526077097506	76.53219954648526	97	127
76.11421768707483	76.32321995464852	64	127
76.33482993197279	76.53219954648526	76	127
76.53219954648526	77.37972789115646	64	127
76.53219954648526	76.76439909297052	47	127
76.53219954648526	77.37972789115646	59	127
76.53219954648526	77.37972789115646	68	127
76.76439909297052	76.98496598639456	56	127
76.98496598639456	77.182358276644	52	127
77.182358276644	77.33328798185941	47	127
77.37972789115646	77.60031746031746	81	127
77.37972789115646	77.53065759637188	69	127
77.37972789115646	77.53065759637188	66	127
77.37972789115646	77.53065759637188	47	127
77.60031746031746	77.76285714285714	66	127
77.60031746031746	77.76285714285714	69	127
77.60031746031746	77.76285714285714	47	127
77.60031746031746	77.82090702947846	75	127
77.82090702947846	78.23886621315192	52	127
77.82090702947846	77.92539682539683	76	127
77.82090702947846	78.23886621315192	68	127
77.82090702947846	78.23886621315192	64	127
77.92539682539683	77.9950566893424	80	127
78.0298866213152	78.09954648526077	83	127
78.1343537414966	78.20403628117914	80	127
78.23886621315192	78.32013605442177	76	127
78.36657596371882	78.4362358276644	80	127
78.47106575963718	78.54072562358277	71	127
78.55233560090703	78.61038548752835	76	127
78.6219954648526	78.69165532879819	68	127
78.72648526077097	78.78453514739229	71	127
78.81936507936508	78.87741496598639	64	127
78.91224489795918	78.99351473922903	68	127
79.02832199546485	79.88748299319728	59	127
79.02832199546485	79.21410430839002	47	127
79.02832199546485	79.88748299319728	68	127
79.02832199546485	79.88748299319728	64	127
79.22571428571429	79.41145124716553	56	127
79.42308390022676	79.66687074829932	52	127
79.67850340136054	79.82943310657596	47	127
79.89907029478458	80.06163265306122	66	127
79.89907029478458	80.06163265306122	69	127
79.89907029478458	80.06163265306122	47	127
79.89907029478458	80.10807256235827	81	127
80.11968253968254	80.30541950113378	75	127
80.11968253968254	80.25900226757369	69	127
80.11968253968254	80.25900226757369	66	127
80.11968253968254	80.25900226757369	47	127
80.30541950113378	80.68854875283446	52	127
80.30541950113378	80.38671201814059	76	127
80.30541950113378	80.68854875283446	68	127
80.30541950113378	80.68854875283446	64	127
80.38671201814059	80.45637188208617	80	127
80.4795918367347	80.56083900226757	83	127
80.58408163265307	80.66532879818594	80	127
80.68854875283446	80.76984126984127	76	127
80.79303854875283	80.87433106575963	80	127
80.89755102040816	80.978820861678	71	127
80.99043083900227	81.07170068027212	76	127
81.09492063492064	81.17616780045351	68	127
81.19941043083901	81.28068027210884	71	127
81.3038775510204	81.38517006802721	64	127
81.40839002267573	81.5128798185941	68	127
81.53609977324263	81.75668934240363	47	127
81.53609977324263	82.40684807256235	59	127
81.53609977324263	82.40684807256235	68	127
81.53609977324263	82.40684807256235	64	127
81.75668934240363	82.00049886621315	56	127
82.00049886621315	82.20947845804989	52	127
82.20947845804989	82.34879818594105	47	127
82.40684807256235	82.61582766439909	81	127
82.40684807256235	82.55777777777777	47	127
82.40684807256235	82.55777777777777	69	127
82.40684807256235	82.55777777777777	66	127
82.61582766439909	82.77836734693878	69	127
82.61582766439909	82.77836734693878	66	127
82.61582766439909	82.83639455782313	75	127
82.61582766439909	82.77836734693878	47	127
82.83639455782313	83.3356462585034	64	127
82.83639455782313	83.3356462585034	76	127
82.83639455782313	83.3356462585034	68	127
82.83639455782313	83.3356462585034	52	127
83.60265306122449	83.82326530612245	64	127
84.05546485260771	84.25283446712018	64	127
84.32249433106576	84.74045351473923	64	127
84.74045351473923	84.9378231292517	64	127
84.9378231292517	85.32095238095238	64	127
85.32095238095238	85.52993197278911	64	127
85.54154195011338	86.37746031746032	78	127
85.54154195011338	86.37746031746032	68	127
85.54154195011338	86.37746031746032	64	127
85.54154195011338	86.37746031746032	62	127
86.37746031746032	86.54	76	127
86.37746031746032	86.54	69	127
86.37746031746032	86.54	64	127
86.37746031746032	86.54	61	127
86.59804988662131	86.74895691609977	74	127
86.59804988662131	86.74895691609977	71	127
86.59804988662131	86.74895691609977	64	127
86.59804988662131	86.74895691609977	56	127
86.80702947845805	86.96956916099774	73	127
86.80702947845805	86.96956916099774	64	127
86.80702947845805	86.96956916099774	57	127
87.02759637188208	87.201768707483	71	127
87.02759637188208	87.201768707483	65	127
87.02759637188208	87.201768707483	61	127
87.02759637188208	87.201768707483	56	127
87.25979591836735	87.42235827664399	69	127
87.25979591836735	87.42235827664399	66	127
87.25979591836735	87.42235827664399	61	127
87.25979591836735	87.42235827664399	54	127
87.48040816326531	87.59650793650793	59	127
87.48040816326531	87.59650793650793	59	127
87.48040816326531	87.63133786848073	68	127
87.48040816326531	87.63133786848073	64	127
87.63133786848073	87.78226757369615	69	127
87.63133786848073	87.78226757369615	59	127
87.63133786848073	87.78226757369615	59	127
87.63133786848073	87.78226757369615	66	127
87.84031746031746	87.99124716553288	47	127
87.84031746031746	87.99124716553288	66	127
87.84031746031746	87.99124716553288	63	127
87.84031746031746	87.99124716553288	59	127
88.0492970521542	88.2698866213152	66	127
88.0492970521542	88.46725623582766	64	127
88.0492970521542	88.46725623582766	59	127
88.0492970521542	88.46725623582766	52	127
88.2698866213152	88.40918367346939	68	127
88.46725623582766	88.62979591836735	64	127
88.68784580498867	89.1174149659864	64	127
88.68784580498867	89.1174149659864	52	127
88.68784580498867	89.1174149659864	52	127
89.1174149659864	89.33800453514739	64	127
89.1174149659864	89.33800453514739	52	127
89.1174149659864	89.33800453514739	52	127
89.37283446712019	89.84884353741496	64	127
89.37283446712019	89.84884353741496	52	127
89.37283446712019	89.84884353741496	52	127
89.86045351473923	90.0926530612245	64	127
89.86045351473923	90.0926530612245	52	127
89.86045351473923	90.0926530612245	52	127
90.10426303854875	90.53383219954648	64	127
90.10426303854875	90.53383219954648	52	127
90.10426303854875	90.53383219954648	52	127
90.54544217687075	90.81244897959184	64	127
90.54544217687075	90.81244897959184	52	127
90.54544217687075	90.81244897959184	52	127
90.81244897959184	91.64839002267574	86	127
90.81244897959184	91.64839002267574	74	127
90.81244897959184	91.64839002267574	68	127
90.81244897959184	91.64839002267574	53	127
91.64839002267574	91.78770975056689	85	127
91.64839002267574	91.78770975056689	73	127
91.64839002267574	91.78770975056689	68	127
91.64839002267574	91.78770975056689	53	127
91.84575963718821	92.0082993197279	83	127
91.84575963718821	92.0082993197279	73	127
91.84575963718821	92.0082993197279	68	127
91.84575963718821	92.0082993197279	53	127
92.0663492063492	92.20566893424036	81	127
92.0663492063492	92.20566893424036	73	127
92.0663492063492	92.25210884353741	61	127
92.0663492063492	92.25210884353741	54	127
92.25210884353741	92.4146485260771	80	127
92.25210884353741	92.4146485260771	71	127
92.25210884353741	92.46108843537415	61	127
92.25210884353741	92.46108843537415	56	127
92.47267573696145	92.61201814058957	78	127
92.47267573696145	92.61201814058957	69	127
92.47267573696145	92.67006802721089	61	127
92.47267573696145	92.67006802721089	57	127
92.67006802721089	92.84421768707483	68	127
92.67006802721089	92.84421768707483	76	127
92.67006802721089	92.84421768707483	59	127
92.67006802721089	92.84421768707483	59	127
92.85580498866213	92.97192743764172	69	127
92.85580498866213	93.02997732426304	59	127
92.85580498866213	92.97192743764172	78	127
92.85580498866213	93.02997732426304	59	127
93.02997732426304	93.23893424036281	59	127
93.02997732426304	93.19251700680272	75	127
93.02997732426304	93.19251700680272	69	127
93.02997732426304	93.23893424036281	47	127
93.25056689342404	93.34342403628118	76	127
93.25056689342404	93.43632653061225	68	127
93.25056689342404	93.43632653061225	59	127
93.25056689342404	93.64530612244899	40	127
93.3550566893424	93.41310657596372	80	127
93.4479365079365	93.64530612244899	56	127
93.4479365079365	93.51759637188209	83	127
93.4479365079365	93.64530612244899	52	127
93.55242630385487	93.62206349206349	80	127
93.64530612244899	93.70335600907029	83	127
93.64530612244899	93.83106575963718	59	127
93.64530612244899	93.83106575963718	56	127
93.73818594104308	93.80784580498866	80	127
93.84267573696145	94.21419501133786	47	127
93.84267573696145	93.9239455782313	81	127
93.93555555555555	93.99360544217687	78	127
94.02843537414967	94.09809523809524	75	127
94.02843537414967	94.21419501133786	57	127
94.02843537414967	94.21419501133786	54	127
94.13290249433106	94.19097505668934	71	127
94.22580498866213	94.44639455782313	59	127
94.22580498866213	94.29546485260771	69	127
94.22580498866213	94.44639455782313	57	127
94.35351473922903	94.4231746031746	66	127
94.4580045351474	94.8643537414966	52	127
94.4580045351474	94.5508843537415	64	127
94.56249433106576	94.63215419501134	68	127
94.66698412698413	94.8643537414966	56	127
94.66698412698413	94.73664399092971	71	127
94.66698412698413	94.8643537414966	64	127
94.75986394557823	94.84113378684808	76	127
94.8643537414966	94.94562358276644	80	127
94.8643537414966	95.07333333333334	68	127
94.8643537414966	95.07333333333334	59	127
94.96884353741497	95.05011337868481	76	127
95.07333333333334	95.44485260770975	47	127
95.07333333333334	95.15460317460318	75	127
95.15460317460318	95.22426303854876	78	127
95.24748299319728	95.31714285714285	81	127
95.24748299319728	95.44485260770975	66	127
95.24748299319728	95.44485260770975	57	127
95.34036281179138	95.42163265306122	78	127
95.44485260770975	95.52612244897959	81	127
95.44485260770975	95.65383219954649	69	127
95.44485260770975	95.65383219954649	59	127
95.54934240362812	95.63061224489796	78	127
95.65383219954649	96.08340136054422	40	127
95.65383219954649	95.75832199546485	76	127
95.75832199546485	95.8395918367347	80	127
95.86281179138322	95.95569160997732	83	127
95.86281179138322	96.08340136054422	56	127
95.86281179138322	96.08340136054422	52	127
95.97891156462585	96.06018140589569	80	127
96.08340136054422	96.21111111111111	83	127
96.08340136054422	96.35043083900227	59	127
96.08340136054422	96.35043083900227	56	127
96.2459410430839	96.31560090702948	80	127
96.35043083900227	96.75678004535148	47	127
96.35043083900227	96.45492063492064	81	127
96.45492063492064	96.51297052154194	78	127
96.54780045351474	96.75678004535148	54	127
96.54780045351474	96.61746031746031	75	127
96.54780045351474	96.75678004535148	57	127
96.65229024943311	96.72195011337868	71	127
96.75678004535148	96.82643990929705	69	127
96.75678004535148	96.96575963718821	59	127
96.75678004535148	96.96575963718821	57	127
96.86126984126984	96.93092970521542	66	127
96.96575963718821	97.39532879818594	52	127
96.96575963718821	97.08185941043084	64	127
97.10507936507936	97.17473922902494	68	127
97.20956916099773	97.26761904761905	71	127
97.20956916099773	97.39532879818594	64	127
97.20956916099773	97.39532879818594	56	127
97.30244897959183	97.37210884353742	76	127
97.4069387755102	97.47659863945579	80	127
97.4069387755102	97.60430839002268	68	127
97.4069387755102	97.60430839002268	59	127
97.51142857142857	97.58108843537416	76	127
97.61591836734694	98.03387755102041	47	127
97.61591836734694	97.70879818594105	75	127
97.7204081632653	97.79006802721088	78	127
97.82489795918367	97.89455782312925	81	127
97.82489795918367	98.03387755102041	66	127
97.82489795918367	98.03387755102041	57	127
97.9409977324263	98.01065759637189	78	127
98.04548752834467	98.1964172335601	59	127
98.04548752834467	98.10353741496598	81	127
98.04548752834467	98.1964172335601	69	127
98.13836734693878	98.17319727891156	78	127
98.20802721088435	98.59115646258503	52	127
98.20802721088435	98.31251700680272	76	127
98.31251700680272	98.39378684807257	78	127
98.39378684807257	98.59115646258503	56	127
98.39378684807257	98.59115646258503	64	127
98.39378684807257	98.48666666666666	80	127
98.48666666666666	98.59115646258503	81	127
98.59115646258503	98.8233560090703	68	127
98.59115646258503	98.70725623582767	83	127
98.59115646258503	98.8233560090703	59	127
98.70725623582767	98.8233560090703	80	127
98.8233560090703	98.92784580498866	76	127
98.8233560090703	99.24131519274377	52	127
98.92784580498866	99.03233560090703	78	127
99.03233560090703	99.24131519274377	56	127
99.03233560090703	99.1368253968254	80	127
99.03233560090703	99.24131519274377	64	127
99.1368253968254	99.24131519274377	81	127
99.24131519274377	99.34580498866214	83	127
99.24131519274377	99.42707482993197	68	127
99.24131519274377	99.42707482993197	59	127
99.34580498866214	99.42707482993197	80	127
99.42707482993197	99.89147392290249	64	127
99.42707482993197	99.53156462585034	52	127
99.42707482993197	99.89147392290249	56	127
99.42707482993197	99.89147392290249	76	127
99.53156462585034	99.68249433106575	54	127
99.68249433106575	99.78698412698412	56	127
99.78698412698412	99.89147392290249	57	127
99.89147392290249	99.9843537414966	59	127
99.9843537414966	100.08884353741496	56	127
100.08884353741496	100.19333333333333	52	127
100.25138321995465	100.42553287981859	50	127
100.46036281179138	100.6112925170068	47	127
100.66934240362812	100.82027210884354	45	127
100.66934240362812	101.08730158730158	64	127
100.66934240362812	101.08730158730158	73	127
100.66934240362812	101.08730158730158	81	127
100.87832199546486	101.04086167800453	49	127
101.09891156462585	101.26145124716554	52	127
101.1453514739229	101.21501133786848	71	127
101.21501133786848	101.26145124716554	69	127
101.26145124716554	101.31950113378684	68	127
101.31950113378684	101.47043083900226	69	127
101.31950113378684	101.72585034013605	64	127
101.31950113378684	101.72585034013605	61	127
101.31950113378684	101.72585034013605	57	127
101.52848072562358	101.679410430839	71	127
101.73746031746032	101.91160997732426	73	127
101.9928798185941	102.15541950113379	45	127
102.2134693877551	102.36439909297052	49	127
102.41083900226758	102.57337868480725	52	127
102.46888888888888	102.51532879818595	74	127
102.51532879818595	102.57337868480725	73	127
102.57337868480725	102.6198185941043	71	127
102.6198185941043	103.10743764172335	64	127
102.6198185941043	102.78235827664399	73	127
102.6198185941043	103.10743764172335	61	127
102.6198185941043	103.10743764172335	57	127
102.86362811791383	103.04938775510205	74	127
103.10743764172335	103.24675736961451	76	127
103.30480725623583	103.4673469387755	45	127
103.5370068027211	103.66471655328799	49	127
103.7227664399093	103.88530612244898	52	127
103.79242630385488	103.83886621315193	78	127
103.83886621315193	103.89691609977324	76	127
103.89691609977324	103.9433560090703	75	127
103.9433560090703	104.1291156462585	76	127
103.9433560090703	104.58190476190477	64	127
103.9433560090703	104.58190476190477	61	127
103.9433560090703	104.58190476190477	57	127
104.19877551020409	104.52385487528345	78	127
104.58190476190477	104.73283446712018	80	127
104.79088435374149	104.94181405895692	81	127
104.98825396825397	105.13918367346939	83	127
105.19723356009071	105.3249433106576	85	127
105.35977324263038	105.52231292517007	85	127
105.52231292517007	105.53392290249433	86	127
105.5455328798186	105.69646258503401	88	127
105.7312925170068	106.93873015873015	62	127
105.7312925170068	105.9518820861678	45	127
105.7312925170068	106.33501133786848	90	127
105.7312925170068	106.93873015873015	66	127
105.96349206349207	106.13764172335601	50	127
106.14925170068027	106.33501133786848	54	127
106.34662131519275	107.15931972789116	45	127
106.34662131519275	106.54399092970522	86	127
106.76458049886621	106.8922902494331	85	127
106.93873015873015	108.77310657596372	68	127
106.93873015873015	107.15931972789116	83	127
106.93873015873015	108.77310657596372	59	127
107.15931972789116	107.37990929705215	50	127
107.37990929705215	107.5540589569161	52	127
107.37990929705215	107.51922902494331	85	127
107.5540589569161	108.36675736961452	45	127
107.5540589569161	107.76303854875283	86	127
107.94879818594104	108.09972789115646	87	127
108.15777777777778	108.77310657596372	88	127
108.36675736961452	108.56412698412699	50	127
108.56412698412699	108.77310657596372	52	127
108.77310657596372	110.02698412698413	69	127
108.77310657596372	108.98208616780046	45	127
108.77310657596372	110.02698412698413	61	127
108.77310657596372	108.92403628117914	85	127
108.99369614512472	109.14462585034013	81	127
108.99369614512472	109.19106575963718	49	127
109.20267573696145	109.36521541950114	83	127
109.20267573696145	109.41165532879819	52	127
109.42326530612245	109.59741496598639	85	127
109.42326530612245	109.63224489795918	45	127
109.64385487528345	109.82961451247165	49	127
109.64385487528345	109.7831746031746	85	127
109.84122448979592	109.98054421768707	86	127
109.84122448979592	110.02698412698413	52	127
110.03859410430839	110.24757369614512	45	127
110.03859410430839	110.20113378684808	88	127
110.03859410430839	110.6307029478458	67	127
110.03859410430839	110.6307029478458	61	127
110.2591836734694	110.38689342403629	88	127
110.2591836734694	110.43333333333334	52	127
110.43333333333334	110.58426303854876	89	127
110.43333333333334	110.6307029478458	55	127
110.6307029478458	110.8512925170068	45	127
110.6307029478458	111.257641723356	90	127
110.6307029478458	111.88458049886621	66	127
110.6307029478458	111.88458049886621	62	127
110.8512925170068	111.06027210884353	50	127
111.06027210884353	111.257641723356	54	127
111.257641723356	111.67560090702948	86	127
111.257641723356	112.08195011337868	45	127
111.67560090702948	111.8265306122449	85	127
111.88458049886621	112.02390022675738	83	127
111.88458049886621	113.04557823129252	68	127
111.88458049886621	113.04557823129252	59	127
112.08195011337868	112.24448979591837	50	127
112.24448979591837	112.43024943310658	52	127
112.24448979591837	112.37219954648526	85	127
112.43024943310658	112.56956916099773	86	127
112.43024943310658	112.62761904761905	45	127
112.62761904761905	112.83659863945579	47	127
112.84820861678004	112.9875283446712	88	127
112.84820861678004	113.04557823129252	50	127
113.05718820861678	113.46353741496598	81	127
113.05718820861678	113.46353741496598	69	127
113.05718820861678	113.46353741496598	61	127
113.05718820861678	113.46353741496598	45	127
113.68412698412699	113.78861678004534	69	127
113.78861678004534	113.89310657596371	71	127
113.89310657596371	113.98598639455783	73	127
113.98598639455783	114.0904761904762	74	127
114.0904761904762	114.17174603174603	76	127
114.17174603174603	114.2762358276644	73	127
114.2762358276644	114.69419501133787	74	127
114.47360544217688	114.63614512471655	52	127
114.47360544217688	114.63614512471655	64	127
114.47360544217688	114.63614512471655	52	127
114.69419501133787	114.84512471655329	52	127
114.69419501133787	114.84512471655329	64	127
114.69419501133787	114.84512471655329	52	127
114.89156462585034	114.9960544217687	76	127
114.9960544217687	115.08893424036282	78	127
115.08893424036282	115.19342403628117	80	127
115.19342403628117	115.29791383219954	81	127
115.29791383219954	115.39079365079365	83	127
115.39079365079365	115.49528344671202	80	127
115.49528344671202	115.84358276643991	81	127
115.63460317460317	115.78553287981859	61	127
115.63460317460317	115.78553287981859	49	127
115.63460317460317	115.78553287981859	49	127
115.84358276643991	115.98290249433107	49	127
115.84358276643991	115.98290249433107	61	127
115.84358276643991	115.98290249433107	49	127
116.01773242630385	116.0990022675737	69	127
116.0990022675737	116.20349206349206	71	127
116.20349206349206	116.29637188208616	73	127
116.29637188208616	116.40086167800453	74	127
116.40086167800453	116.5053514739229	76	127
116.5053514739229	116.56340136054422	73	127
116.56340136054422	116.71433106575964	78	127
116.77238095238096	116.92331065759637	62	127
116.77238095238096	116.92331065759637	50	127
116.77238095238096	116.92331065759637	50	127
116.9813605442177	117.13229024943311	62	127
116.9813605442177	117.13229024943311	50	127
116.9813605442177	117.13229024943311	50	127
117.17873015873016	117.34126984126983	80	127
117.3877097505669	117.52702947845805	64	127
117.3877097505669	117.52702947845805	52	127
117.3877097505669	117.52702947845805	52	127
117.56185941043084	117.72439909297051	52	127
117.56185941043084	117.72439909297051	64	127
117.56185941043084	117.72439909297051	52	127
117.77083900226758	117.921768707483	81	127
117.9798185941043	118.11913832199546	57	127
117.9798185941043	118.11913832199546	57	127
117.9798185941043	118.11913832199546	45	127
118.17718820861678	118.31650793650793	57	127
118.17718820861678	118.31650793650793	57	127
118.17718820861678	118.31650793650793	45	127
118.37455782312925	118.47904761904762	69	127
118.47904761904762	118.58353741496599	71	127
118.58353741496599	118.68802721088436	73	127
118.68802721088436	118.79251700680273	74	127
118.79251700680273	118.8970068027211	76	127
118.8970068027211	118.9898866213152	73	127
118.9898866213152	119.38462585034014	74	127
119.18725623582766	119.32657596371882	52	127
119.18725623582766	119.32657596371882	52	127
119.18725623582766	119.32657596371882	64	127
119.38462585034014	119.53555555555556	64	127
119.38462585034014	119.53555555555556	52	127
119.38462585034014	119.53555555555556	52	127
119.59360544217687	119.66326530612245	76	127
119.66326530612245	119.75614512471655	78	127
119.75614512471655	119.86063492063492	80	127
119.86063492063492	119.96512471655329	81	127
119.96512471655329	120.04639455782313	83	127
120.04639455782313	120.08122448979591	80	127
120.08122448979591	120.19732426303855	81	127
120.25537414965986	120.39469387755102	61	127
120.25537414965986	120.39469387755102	69	127
120.25537414965986	120.39469387755102	49	127
120.25537414965986	120.39469387755102	49	127
120.44113378684807	120.59206349206349	49	127
120.44113378684807	120.59206349206349	61	127
120.44113378684807	120.59206349206349	49	127
120.44113378684807	120.59206349206349	69	127
120.66172335600908	120.8126530612245	81	127
120.85909297052154	121.03324263038549	67	127
120.85909297052154	121.03324263038549	55	127
120.85909297052154	121.03324263038549	55	127
121.07968253968254	121.24222222222222	67	127
121.07968253968254	121.24222222222222	55	127
121.07968253968254	121.24222222222222	55	127
121.28866213151927	121.39315192743764	81	127
121.45120181405896	121.57891156462586	66	127
121.45120181405896	121.57891156462586	54	127
121.45120181405896	121.57891156462586	54	127
121.64857142857143	121.8459410430839	66	127
121.64857142857143	121.8459410430839	54	127
121.64857142857143	121.8459410430839	54	127
121.90399092970522	121.98526077097506	81	127
122.04331065759636	122.21746031746032	65	127
122.04331065759636	122.21746031746032	53	127
122.04331065759636	122.21746031746032	53	127
122.2871201814059	122.48448979591836	65	127
122.2871201814059	122.48448979591836	53	127
122.2871201814059	122.48448979591836	53	127
122.55414965986395	124.63233560090703	52	127
122.55414965986395	122.76312925170068	64	127
122.55414965986395	122.96049886621316	64	127
122.55414965986395	123.16947845804988	52	127
122.77473922902495	122.86761904761904	68	127
122.86761904761904	122.97210884353741	71	127
122.97210884353741	123.07659863945578	76	127
123.07659863945578	123.18108843537415	80	127
123.18108843537415	123.58743764172335	83	127
123.18108843537415	123.37845804988662	50	127
123.39006802721089	123.58743764172335	47	127
123.58743764172335	123.78480725623582	50	127
123.58743764172335	123.78480725623582	80	127
123.78480725623582	123.99378684807256	49	127
123.78480725623582	124.2027664399093	81	127
123.99378684807256	124.2027664399093	73	127
123.99378684807256	124.2027664399093	45	127
124.2027664399093	124.43496598639456	83	127
124.2027664399093	124.43496598639456	71	127
124.2027664399093	124.43496598639456	44	127
124.43496598639456	124.63233560090703	73	127
124.43496598639456	124.63233560090703	45	127
124.43496598639456	124.8297052154195	85	127
124.63233560090703	124.8297052154195	69	127
124.63233560090703	124.8297052154195	57	127
124.63233560090703	124.8297052154195	42	127
124.8297052154195	125.0502947845805	87	127
124.8297052154195	125.0502947845805	71	127
124.8297052154195	125.0502947845805	57	127
124.8297052154195	125.0502947845805	47	127
125.0502947845805	125.20122448979592	88	127
125.0502947845805	125.20122448979592	40	127
125.0502947845805	125.44503401360544	56	127
125.0502947845805	125.44503401360544	71	127
125.25927437641724	125.38698412698413	76	127
125.25927437641724	125.44503401360544	52	127
125.44503401360544	125.47986394557823	78	127
125.44503401360544	125.63079365079365	51	127
125.47986394557823	125.52630385487528	80	127
125.52630385487528	125.63079365079365	78	127
125.63079365079365	126.42027210884353	52	127
125.63079365079365	125.81655328798186	80	127
125.63079365079365	125.81655328798186	52	127
125.82816326530612	126.0255328798186	50	127
125.82816326530612	126.0255328798186	80	127
126.03714285714285	126.07197278911565	80	127
126.03714285714285	126.22290249433107	47	127
126.07197278911565	126.13002267573697	81	127
126.13002267573697	126.22290249433107	80	127
126.23451247165534	126.42027210884353	49	127
126.23451247165534	126.42027210884353	81	127
126.4318820861678	126.61764172335602	73	127
126.4318820861678	126.61764172335602	81	127
126.4318820861678	126.61764172335602	64	127
126.4318820861678	126.61764172335602	45	127
126.62925170068027	126.80340136054421	71	127
126.62925170068027	126.66408163265307	83	127
126.62925170068027	126.80340136054421	64	127
126.62925170068027	126.80340136054421	44	127
126.66408163265307	126.71052154195011	85	127
126.71052154195011	126.80340136054421	83	127
126.81501133786848	126.98916099773243	64	127
126.81501133786848	126.98916099773243	45	127
126.81501133786848	126.98916099773243	85	127
126.81501133786848	126.98916099773243	73	127
127.0007709750567	127.15170068027211	69	127
127.0007709750567	127.19814058956916	85	127
127.0007709750567	127.19814058956916	57	127
127.0007709750567	127.19814058956916	42	127
127.19814058956916	127.25619047619048	87	127
127.19814058956916	127.34907029478458	69	127
127.19814058956916	127.39551020408163	59	127
127.19814058956916	127.39551020408163	47	127
127.25619047619048	127.29102040816326	88	127
127.29102040816326	127.39551020408163	87	127
127.39551020408163	127.83668934240363	59	127
127.39551020408163	127.56965986394557	40	127
127.39551020408163	127.61609977324262	88	127
127.39551020408163	127.83668934240363	68	127
127.6277097505669	127.77863945578231	44	127
127.6277097505669	127.83668934240363	88	127
127.83668934240363	128.0688888888889	92	127
127.83668934240363	128.01083900226757	47	127
128.0688888888889	128.23142857142858	52	127
128.0688888888889	128.2894784580499	88	127
128.0688888888889	128.49843537414966	68	127
128.0688888888889	128.49843537414966	59	127
128.2894784580499	128.44040816326532	56	127
128.2894784580499	128.49843537414966	88	127
128.49843537414966	128.68421768707483	59	127
128.49843537414966	128.74226757369615	95	127
128.75385487528345	129.21825396825398	88	127
128.75385487528345	129.21825396825398	68	127
128.75385487528345	129.21825396825398	59	127
128.75385487528345	129.21825396825398	64	127
129.90326530612245	130.06580498866214	47	127
129.90326530612245	130.06580498866214	59	127
129.90326530612245	130.06580498866214	59	127
130.1122448979592	130.32122448979592	67	127
130.1122448979592	130.32122448979592	55	127
130.1122448979592	130.32122448979592	67	127
130.53020408163266	130.68113378684808	63	127
130.53020408163266	130.68113378684808	63	127
130.53020408163266	130.68113378684808	51	127
130.7507709750567	130.91333333333333	64	127
130.7507709750567	130.91333333333333	64	127
130.7507709750567	130.91333333333333	52	127
131.13392290249433	131.3312925170068	59	127
131.13392290249433	131.3312925170068	59	127
131.13392290249433	131.3312925170068	47	127
131.38934240362812	131.8653514739229	60	127
131.38934240362812	131.8653514739229	60	127
131.38934240362812	131.8653514739229	48	127
131.8653514739229	131.958231292517	62	127
131.8653514739229	131.958231292517	62	127
131.8653514739229	131.958231292517	50	127
131.96984126984128	132.0859410430839	60	127
131.96984126984128	132.0859410430839	60	127
131.96984126984128	132.0859410430839	48	127
132.09755102040816	132.31814058956917	47	127
132.09755102040816	132.31814058956917	59	127
132.09755102040816	132.31814058956917	59	127
132.56195011337869	132.66643990929705	59	127
132.56195011337869	132.7825396825397	59	127
132.67804988662132	132.7825396825397	57	127
132.7825396825397	133.31659863945578	64	127
132.7825396825397	133.31659863945578	59	127
132.7825396825397	133.31659863945578	55	127
133.31659863945578	133.53718820861678	66	127
133.31659863945578	133.53718820861678	63	127
133.31659863945578	133.53718820861678	54	127
133.54879818594105	133.95514739229026	67	127
133.54879818594105	133.95514739229026	64	127
133.54879818594105	133.95514739229026	52	127
133.96673469387756	134.164126984127	69	127
133.96673469387756	134.164126984127	66	127
133.96673469387756	134.164126984127	51	127
134.164126984127	134.5936961451247	69	127
134.164126984127	134.5936961451247	66	127
134.164126984127	134.5936961451247	52	127
134.5936961451247	134.64013605442176	67	127
134.5936961451247	134.82589569161	64	127
134.5936961451247	134.82589569161	46	127
134.64013605442176	134.72140589569162	69	127
134.72140589569162	134.82589569161	67	127
134.82589569161	135.2902947845805	63	127
134.82589569161	135.05809523809523	66	127
134.82589569161	135.2902947845805	47	127
135.3018820861678	135.53410430839003	59	127
135.5457142857143	135.99850340136055	67	127
135.5457142857143	135.99850340136055	55	127
135.5457142857143	135.99850340136055	52	127
135.5457142857143	136.71832199546486	59	127
135.99850340136055	136.2074829931973	54	127
135.99850340136055	136.2074829931973	63	127
135.99850340136055	136.2074829931973	57	127
136.2190702947846	136.4512925170068	55	127
136.2190702947846	136.4512925170068	64	127
136.2190702947846	136.4512925170068	59	127
136.71832199546486	136.93891156462584	59	127
136.71832199546486	136.93891156462584	64	127
136.71832199546486	136.93891156462584	56	127
136.71832199546486	136.93891156462584	64	127
136.93891156462584	138.06507936507936	64	127
136.93891156462584	137.38009070294785	72	127
136.93891156462584	137.38009070294785	60	127
136.93891156462584	137.38009070294785	57	127
137.38009070294785	137.6006575963719	62	127
137.38009070294785	137.6006575963719	59	127
137.38009070294785	137.6006575963719	68	127
137.6006575963719	137.84448979591838	64	127
137.6006575963719	137.84448979591838	69	127
137.6006575963719	137.84448979591838	60	127
138.07668934240363	138.22761904761904	76	127
138.07668934240363	138.22761904761904	54	127
138.07668934240363	138.22761904761904	72	127
138.28566893424036	138.7152380952381	55	127
138.28566893424036	138.48303854875283	76	127
138.28566893424036	138.48303854875283	72	127
138.48303854875283	138.66879818594106	71	127
138.48303854875283	138.66879818594106	74	127
138.7268253968254	138.87775510204082	72	127
138.7268253968254	138.87775510204082	69	127
138.7268253968254	138.93582766439908	64	127
138.7268253968254	138.93582766439908	48	127
138.93582766439908	139.1331746031746	69	127
138.93582766439908	138.9938775510204	74	127
138.93582766439908	139.1331746031746	64	127
138.93582766439908	139.33056689342405	50	127
138.9938775510204	139.1331746031746	72	127
139.1331746031746	139.27251700680273	71	127
139.1331746031746	139.27251700680273	62	127
139.1331746031746	139.27251700680273	67	127
139.3421768707483	139.50471655328798	60	127
139.3421768707483	139.50471655328798	69	127
139.3421768707483	139.50471655328798	66	127
139.3421768707483	139.55115646258503	38	127
139.5627664399093	140.01555555555555	43	127
139.5627664399093	140.27097505668934	69	127
139.5627664399093	140.27097505668934	66	127
139.5627664399093	140.27097505668934	60	127
140.02716553287982	140.27097505668934	50	127
140.27097505668934	140.52639455782312	67	127
140.27097505668934	140.52639455782312	59	127
140.27097505668934	140.79342403628118	55	127
140.79342403628118	140.95596371882087	71	127
140.79342403628118	140.95596371882087	59	127
140.79342403628118	140.95596371882087	47	127
141.02560090702949	141.2578231292517	79	127
141.02560090702949	141.2578231292517	67	127
141.02560090702949	141.2578231292517	55	127
141.49002267573695	141.6641723356009	75	127
141.49002267573695	141.6641723356009	63	127
141.49002267573695	141.6641723356009	51	127
141.72222222222223	141.94278911564626	76	127
141.72222222222223	141.94278911564626	52	127
141.72222222222223	141.94278911564626	64	127
142.19820861678005	142.36077097505668	47	127
142.19820861678005	142.36077097505668	71	127
142.19820861678005	142.36077097505668	59	127
142.418820861678	142.9528798185941	60	127
142.418820861678	142.9528798185941	48	127
142.418820861678	142.9528798185941	72	127
142.9644671201814	143.09219954648526	74	127
142.9644671201814	143.09219954648526	62	127
142.9644671201814	143.09219954648526	50	127
143.09219954648526	143.2082993197279	72	127
143.09219954648526	143.2082993197279	60	127
143.09219954648526	143.2082993197279	48	127
143.2082993197279	143.45210884353742	71	127
143.2082993197279	143.45210884353742	59	127
143.2082993197279	143.69591836734693	47	127
143.71913832199547	143.9397052154195	71	127
143.71913832199547	143.82362811791384	71	127
143.71913832199547	143.88167800453516	71	127
143.82362811791384	143.9397052154195	69	127
143.9397052154195	144.39251700680273	71	127
143.9397052154195	144.39251700680273	76	127
143.9397052154195	144.39251700680273	67	127
144.39251700680273	144.63632653061225	75	127
144.39251700680273	144.63632653061225	78	127
144.39251700680273	144.63632653061225	66	127
144.63632653061225	145.0891156462585	76	127
144.63632653061225	145.0891156462585	79	127
144.63632653061225	145.0891156462585	64	127
145.0891156462585	145.29809523809524	78	127
145.0891156462585	145.29809523809524	81	127
145.0891156462585	145.29809523809524	63	127
145.3097052154195	145.72764172335602	78	127
145.3097052154195	145.72764172335602	81	127
145.3097052154195	145.72764172335602	64	127
145.73927437641723	145.78571428571428	79	127
145.73927437641723	146.01791383219955	76	127
145.73927437641723	146.01791383219955	58	127
145.78571428571428	145.8437641723356	81	127
145.8437641723356	146.01791383219955	79	127
146.01791383219955	146.44748299319727	59	127
146.01791383219955	146.2268934240363	78	127
146.01791383219955	146.44748299319727	75	127
146.44748299319727	146.8190022675737	71	127
146.8190022675737	147.98	71	127
146.8190022675737	147.24857142857144	80	127
146.8190022675737	147.24857142857144	68	127
146.8190022675737	147.24857142857144	64	127
147.24857142857144	147.48077097505669	75	127
147.24857142857144	147.48077097505669	69	127
147.24857142857144	147.48077097505669	66	127
147.48077097505669	147.74780045351474	76	127
147.48077097505669	147.74780045351474	71	127
147.48077097505669	147.74780045351474	68	127
147.99160997732426	148.27024943310659	71	127
147.99160997732426	148.27024943310659	76	127
147.99160997732426	148.27024943310659	71	127
147.99160997732426	148.27024943310659	68	127
148.27024943310659	149.4892970521542	76	127
148.27024943310659	148.74625850340135	85	127
148.27024943310659	148.74625850340135	73	127
148.27024943310659	148.74625850340135	69	127
148.74625850340135	149.03650793650795	80	127
148.74625850340135	149.03650793650795	74	127
148.74625850340135	149.03650793650795	71	127
149.03650793650795	149.4892970521542	76	127
149.03650793650795	149.4892970521542	81	127
149.03650793650795	149.4892970521542	73	127
150.7895918367347	151.0334240362812	76	127
151.0334240362812	151.3701133786848	85	127
151.3701133786848	151.5907029478458	80	127
151.5907029478458	151.97383219954648	81	127
151.97383219954648	152.19442176870749	68	127
151.97383219954648	152.19442176870749	77	127
152.19442176870749	152.6936507936508	78	127
152.19442176870749	152.6936507936508	69	127
152.6936507936508	152.92585034013607	65	127
152.6936507936508	152.92585034013607	68	127
152.6936507936508	153.56439909297052	73	127
152.92585034013607	153.56439909297052	69	127
152.92585034013607	153.56439909297052	66	127
153.5760090702948	154.23777777777778	69	127
153.5760090702948	153.83142857142857	72	127
153.5760090702948	153.83142857142857	52	127
153.5760090702948	154.23777777777778	66	127
153.84303854875284	154.65573696145125	71	127
153.84303854875284	154.23777777777778	51	127
154.24938775510205	154.44675736961452	68	127
154.24938775510205	154.44675736961452	64	127
154.24938775510205	154.44675736961452	52	127
154.4583673469388	154.8763038548753	61	127
154.4583673469388	154.8763038548753	45	127
154.4583673469388	154.8763038548753	66	127
154.66734693877552	154.81827664399094	69	127
154.8763038548753	155.1085260770975	47	127
154.8763038548753	155.06208616780046	66	127
154.8763038548753	155.1085260770975	63	127
154.8763038548753	155.1085260770975	57	127
155.1085260770975	155.57292517006803	64	127
155.1085260770975	155.57292517006803	56	127
155.1085260770975	155.57292517006803	40	127
155.57292517006803	155.79351473922904	66	127
155.79351473922904	155.9560544217687	68	127
156.01410430839002	156.15340136054422	66	127
156.21147392290248	156.36238095238096	64	127
156.42045351473922	156.61780045351475	63	127
156.42045351473922	156.8384126984127	59	127
156.8384126984127	157.04739229024943	61	127
156.8384126984127	157.10544217687075	61	127
157.10544217687075	157.52340136054423	59	127
157.10544217687075	157.26798185941044	62	127
157.32603174603176	157.47696145124718	61	127
157.32603174603176	157.52340136054423	77	127
157.53498866213152	157.66272108843538	59	127
157.53498866213152	157.70916099773243	77	127
157.7207709750567	158.1271201814059	78	127
157.7207709750567	157.91814058956916	57	127
157.7207709750567	158.1271201814059	66	127
158.13873015873017	158.23160997732427	56	127
158.13873015873017	158.27804988662132	68	127
158.2896598639456	158.73083900226757	54	127
158.2896598639456	158.440589569161	69	127
158.51024943310657	158.68439909297052	68	127
158.73083900226757	158.91657596371883	66	127
158.96303854875285	159.16040816326532	64	127
158.96303854875285	159.35777777777778	61	127
159.35777777777778	159.58997732426303	63	127
159.35777777777778	159.52031746031747	63	127
159.58997732426303	160.06598639455783	61	127
159.58997732426303	159.78732426303856	64	127
159.8570068027211	160.0079365079365	63	127
159.8570068027211	160.06598639455783	79	127
160.06598639455783	160.21691609977324	61	127
160.06598639455783	160.24013605442178	79	127
160.24013605442178	160.646485260771	80	127
160.24013605442178	160.43750566893425	59	127
160.24013605442178	160.646485260771	68	127
160.646485260771	160.7974149659864	58	127
160.646485260771	160.86707482993197	70	127
160.86707482993197	161.27342403628117	56	127
160.86707482993197	161.01800453514738	71	127
161.0760544217687	161.22698412698412	70	127
161.28503401360544	161.43596371882086	68	127
161.49401360544218	161.8655328798186	59	127
161.49401360544218	161.65655328798186	69	127
161.49401360544218	161.8655328798186	47	127
161.49401360544218	161.8655328798186	69	127
161.49401360544218	161.8655328798186	81	127
161.65655328798186	161.80748299319728	63	127
161.8771201814059	162.0512925170068	59	127
161.8771201814059	162.0512925170068	80	127
161.8771201814059	162.0512925170068	64	127
161.8771201814059	162.0512925170068	49	127
162.10934240362812	162.2718820861678	59	127
162.10934240362812	162.2718820861678	78	127
162.10934240362812	162.2718820861678	66	127
162.10934240362812	162.2718820861678	51	127
162.32993197278913	162.48086167800454	52	127
162.32993197278913	162.48086167800454	76	127
162.32993197278913	162.48086167800454	68	127
162.32993197278913	162.48086167800454	59	127
162.5273015873016	162.68984126984128	54	127
162.5273015873016	162.68984126984128	75	127
162.5273015873016	162.68984126984128	69	127
162.5273015873016	162.68984126984128	59	127
162.73628117913833	162.9336507936508	59	127
162.73628117913833	162.87560090702948	71	127
162.73628117913833	162.9336507936508	75	127
162.73628117913833	162.9336507936508	56	127
162.9336507936508	163.1542403628118	56	127
162.9336507936508	163.1542403628118	76	127
162.9336507936508	163.1542403628118	71	127
162.9336507936508	163.1542403628118	52	127
163.1542403628118	163.35160997732427	71	127
163.1542403628118	163.35160997732427	68	127
163.35160997732427	163.54897959183674	61	127
163.35160997732427	163.54897959183674	57	127
163.54897959183674	163.7463492063492	64	127
163.54897959183674	163.7463492063492	76	127
163.54897959183674	163.7463492063492	73	127
163.54897959183674	163.7463492063492	61	127
163.75795918367348	163.95532879818595	73	127
163.75795918367348	163.95532879818595	69	127
163.95532879818595	164.17591836734695	52	127
163.95532879818595	164.17591836734695	47	127
164.17591836734695	164.36167800453515	56	127
164.17591836734695	164.36167800453515	71	127
164.17591836734695	164.36167800453515	68	127
164.17591836734695	164.36167800453515	52	127
164.36167800453515	164.55904761904762	68	127
164.36167800453515	164.55904761904762	64	127
164.55904761904762	164.76802721088436	54	127
164.55904761904762	164.76802721088436	47	127
164.76802721088436	164.98861678004536	66	127
164.76802721088436	164.98861678004536	69	127
164.76802721088436	164.98861678004536	57	127
164.76802721088436	164.98861678004536	54	127
164.98861678004536	165.24403628117915	66	127
164.98861678004536	165.24403628117915	63	127
165.25562358276645	165.65038548752835	56	127
165.25562358276645	165.40655328798186	64	127
165.25562358276645	165.65038548752835	40	127
165.46462585034013	165.61555555555555	64	127
165.46462585034013	165.61555555555555	76	127
165.66197278911565	165.82453514739228	78	127
165.66197278911565	165.82453514739228	66	127
165.8825850340136	166.0451247165533	80	127
165.8825850340136	166.0451247165533	68	127
166.1031746031746	166.24249433106576	78	127
166.1031746031746	166.24249433106576	66	127
166.2889342403628	166.4166439909297	76	127
166.2889342403628	166.4166439909297	64	127
166.47469387755103	166.86943310657597	59	127
166.47469387755103	166.6836507936508	75	127
166.47469387755103	166.6836507936508	63	127
166.47469387755103	166.86943310657597	47	127
166.86943310657597	167.0203628117914	61	127
166.86943310657597	167.0203628117914	73	127
166.86943310657597	167.0203628117914	61	127
166.86943310657597	167.0203628117914	49	127
167.09002267573698	167.46154195011337	71	127
167.09002267573698	167.21773242630385	62	127
167.09002267573698	167.21773242630385	50	127
167.09002267573698	167.46154195011337	59	127
167.27578231292517	167.43832199546486	49	127
167.27578231292517	167.43832199546486	61	127
167.47315192743764	167.63569160997733	47	127
167.47315192743764	167.63569160997733	59	127
167.68213151927438	168.11170068027212	66	127
167.68213151927438	167.89111111111112	57	127
167.68213151927438	167.89111111111112	45	127
167.68213151927438	168.11170068027212	78	127
168.11170068027212	168.27424036281178	56	127
168.11170068027212	168.27424036281178	80	127
168.11170068027212	168.27424036281178	68	127
168.11170068027212	168.27424036281178	44	127
168.3090702947846	168.69219954648526	54	127
168.3090702947846	168.43678004535147	81	127
168.3090702947846	168.43678004535147	69	127
168.3090702947846	168.69219954648526	42	127
168.4948299319728	168.6457596371882	68	127
168.4948299319728	168.6457596371882	80	127
168.70380952380953	168.85473922902494	78	127
168.70380952380953	168.85473922902494	66	127
168.91278911564626	169.1449886621315	76	127
168.91278911564626	169.1449886621315	64	127
168.91278911564626	169.35396825396825	61	127
168.91278911564626	169.35396825396825	49	127
169.35396825396825	169.51650793650794	63	127
169.35396825396825	169.51650793650794	63	127
169.35396825396825	169.51650793650794	75	127
169.35396825396825	169.51650793650794	51	127
169.57455782312925	169.98090702947846	61	127
169.57455782312925	169.73709750566894	64	127
169.57455782312925	169.73709750566894	52	127
169.57455782312925	169.98090702947846	73	127
169.79514739229026	169.92285714285714	63	127
169.79514739229026	169.92285714285714	51	127
169.98090702947846	170.1202267573696	61	127
169.98090702947846	170.1202267573696	49	127
170.17827664399093	170.57299319727892	68	127
170.17827664399093	170.39886621315193	59	127
170.17827664399093	170.39886621315193	47	127
170.17827664399093	170.57299319727892	80	127
170.58462585034013	170.73555555555555	70	127
170.58462585034013	170.73555555555555	58	127
170.58462585034013	170.73555555555555	46	127
170.58462585034013	170.73555555555555	82	127
170.7819954648526	170.92131519274378	71	127
170.7819954648526	171.2231746031746	56	127
170.7819954648526	171.2231746031746	44	127
170.7819954648526	170.92131519274378	83	127
170.97934240362812	171.1651247165533	70	127
170.97934240362812	171.1651247165533	83	127
171.2231746031746	171.37410430839003	83	127
171.2231746031746	171.37410430839003	68	127
171.42054421768708	171.81528344671202	66	127
171.42054421768708	171.81528344671202	69	127
171.42054421768708	171.81528344671202	47	127
171.42054421768708	172.5699319727891	83	127
171.81528344671202	171.9778231292517	64	127
171.81528344671202	171.9778231292517	49	127
171.81528344671202	171.9778231292517	68	127
172.03587301587302	172.17519274376417	66	127
172.03587301587302	172.17519274376417	63	127
172.03587301587302	172.17519274376417	51	127
172.1984126984127	172.3261224489796	61	127
172.1984126984127	172.3261224489796	52	127
172.1984126984127	172.3261224489796	64	127
172.37256235827664	172.51185941043084	54	127
172.37256235827664	172.51185941043084	59	127
172.37256235827664	172.51185941043084	63	127
172.5699319727891	173.82380952380953	83	127
172.5699319727891	172.77891156462584	66	127
172.5699319727891	172.89501133786848	69	127
172.5699319727891	172.77891156462584	47	127
172.99950113378685	173.16204081632654	64	127
172.99950113378685	173.16204081632654	68	127
172.99950113378685	173.16204081632654	49	127
173.22009070294786	173.37102040816328	51	127
173.22009070294786	173.37102040816328	66	127
173.22009070294786	173.37102040816328	63	127
173.4290702947846	173.56839002267574	64	127
173.4290702947846	173.56839002267574	61	127
173.4290702947846	173.56839002267574	52	127
173.62643990929706	173.7657596371882	59	127
173.62643990929706	173.7657596371882	63	127
173.62643990929706	173.7657596371882	54	127
173.82380952380953	174.021179138322	83	127
173.82380952380953	174.021179138322	69	127
173.82380952380953	174.021179138322	63	127
173.82380952380953	174.021179138322	54	127
174.021179138322	174.23015873015873	81	127
174.021179138322	174.23015873015873	83	127
174.021179138322	174.23015873015873	63	127
174.021179138322	174.23015873015873	54	127
174.23015873015873	174.40428571428572	85	127
174.23015873015873	174.40428571428572	80	127
174.23015873015873	174.40428571428572	64	127
174.23015873015873	174.40428571428572	52	127
174.40428571428572	174.6132879818594	87	127
174.40428571428572	174.6132879818594	78	127
174.40428571428572	174.6132879818594	66	127
174.40428571428572	174.6132879818594	51	127
174.62489795918367	174.84548752834468	88	127
174.62489795918367	174.84548752834468	76	127
174.62489795918367	174.84548752834468	68	127
174.62489795918367	174.84548752834468	49	127
174.84548752834468	175.0660544217687	75	127
174.84548752834468	175.0660544217687	90	127
174.84548752834468	175.0660544217687	69	127
174.84548752834468	175.0660544217687	47	127
175.07768707482992	175.4956462585034	59	127
175.07768707482992	175.4956462585034	52	127
175.07768707482992	175.28666666666666	76	127
175.07768707482992	175.70462585034014	92	127
175.28666666666666	175.4956462585034	64	127
175.50725623582767	175.70462585034014	76	127
175.70462585034014	176.13419501133788	64	127
175.70462585034014	176.13419501133788	49	127
175.70462585034014	176.31995464852608	93	127
175.92521541950114	176.13419501133788	64	127
176.13419501133788	176.31995464852608	76	127
176.33156462585035	176.9584807256236	95	127
176.33156462585035	176.74952380952382	64	127
176.33156462585035	176.74952380952382	44	127
176.54054421768708	176.74952380952382	64	127
176.74952380952382	176.9584807256236	76	127
176.9701133786848	177.39968253968254	64	127
176.9701133786848	177.39968253968254	46	127
176.9701133786848	177.62027210884355	97	127
177.17909297052154	177.39968253968254	64	127
177.4112925170068	177.62027210884355	76	127
177.62027210884355	178.5142403628118	64	127
177.62027210884355	177.82922902494332	47	127
177.62027210884355	178.5142403628118	59	127
177.62027210884355	178.5142403628118	68	127
177.84086167800453	178.04984126984127	56	127
178.04984126984127	178.27043083900227	52	127
178.28204081632654	178.45619047619047	47	127
178.5142403628118	178.7348299319728	81	127
178.5142403628118	178.68839002267575	69	127
178.5142403628118	178.68839002267575	66	127
178.5142403628118	178.68839002267575	47	127
178.7464172335601	178.89736961451248	66	127
178.7464172335601	178.89736961451248	69	127
178.7464172335601	178.89736961451248	47	127
178.7464172335601	178.95539682539683	75	127
178.95539682539683	179.3269387755102	52	127
178.95539682539683	179.0482993197279	76	127
178.95539682539683	179.3269387755102	68	127
178.95539682539683	179.3269387755102	64	127
179.0482993197279	179.11795918367346	80	127
179.12956916099773	179.21081632653062	83	127
179.2340589569161	179.3037188208617	80	127
179.3269387755102	179.40820861678006	76	127
179.43142857142857	179.51269841269843	80	127
179.52430839002267	179.59396825396826	71	127
179.60557823129253	179.68684807256236	76	127
179.7100680272109	179.79133786848072	68	127
179.81455782312926	179.8958276643991	71	127
179.91904761904763	180.00031746031746	64	127
180.023537414966	180.1164172335601	68	127
180.1396371882086	180.97555555555556	59	127
180.1396371882086	180.3718367346939	47	127
180.1396371882086	180.97555555555556	68	127
180.1396371882086	180.97555555555556	64	127
180.3718367346939	180.58081632653062	56	127
180.58081632653062	180.8014058956916	52	127
180.8014058956916	180.95233560090702	47	127
180.97555555555556	181.12648526077098	66	127
180.97555555555556	181.12648526077098	69	127
180.97555555555556	181.12648526077098	47	127
180.97555555555556	181.1845351473923	81	127
181.1845351473923	181.3354648526077	69	127
181.1845351473923	181.3354648526077	66	127
181.1845351473923	181.3354648526077	47	127
181.1845351473923	181.38190476190476	75	127
181.39351473922903	181.4980045351474	76	127
181.39351473922903	181.79986394557824	68	127
181.39351473922903	181.79986394557824	64	127
181.39351473922903	181.79986394557824	52	127
181.5095918367347	181.56766439909296	80	127
181.60249433106577	181.67215419501133	83	127
181.70698412698414	181.7766439909297	80	127
181.8114739229025	181.88113378684807	76	127
181.9159410430839	181.98562358276644	80	127
182.02043083900227	182.0901133786848	71	127
182.12492063492064	182.19460317460317	76	127
182.22943310657595	182.26426303854876	68	127
182.29909297052154	182.36875283446713	71	127
182.4035827664399	182.4732426303855	64	127
182.50807256235828	182.60095238095238	68	127
182.63575963718822	182.8447619047619	47	127
182.63575963718822	183.48331065759638	59	127
182.63575963718822	183.48331065759638	68	127
182.63575963718822	183.48331065759638	64	127
182.8447619047619	183.05374149659863	56	127
183.05374149659863	183.2859410430839	52	127
183.2859410430839	183.42526077097506	47	127
183.48331065759638	183.70390022675738	81	127
183.48331065759638	183.64585034013606	47	127
183.48331065759638	183.64585034013606	69	127
183.48331065759638	183.64585034013606	66	127
183.70390022675738	183.8548299319728	69	127
183.70390022675738	183.8548299319728	66	127
183.70390022675738	183.92448979591836	75	127
183.70390022675738	183.8548299319728	47	127
183.92448979591836	184.3540589569161	76	127
183.92448979591836	184.3540589569161	68	127
183.92448979591836	184.3540589569161	64	127
183.92448979591836	184.3540589569161	52	127
184.58625850340135	184.80684807256236	64	127
185.05065759637188	185.17836734693878	64	127
185.22480725623583	185.65437641723355	64	127
185.65437641723355	185.87496598639456	64	127
185.87496598639456	186.40902494331067	64	127
186.40902494331067	186.6180045351474	64	127
186.62961451247165	187.4422902494331	78	127
186.62961451247165	187.4422902494331	68	127
186.62961451247165	187.4422902494331	64	127
186.62961451247165	187.4422902494331	62	127
187.4422902494331	187.63968253968255	76	127
187.4422902494331	187.63968253968255	69	127
187.4422902494331	187.63968253968255	64	127
187.4422902494331	187.63968253968255	61	127
187.6977097505669	187.84863945578232	74	127
187.6977097505669	187.84863945578232	71	127
187.6977097505669	187.84863945578232	64	127
187.6977097505669	187.84863945578232	56	127
187.91832199546485	188.08086167800454	73	127
187.91832199546485	188.08086167800454	64	127
187.91832199546485	188.08086167800454	57	127
188.1273015873016	188.278231292517	71	127
188.1273015873016	188.278231292517	65	127
188.1273015873016	188.278231292517	61	127
188.1273015873016	188.278231292517	56	127
188.3478911564626	188.48721088435374	54	127
188.3478911564626	188.48721088435374	69	127
188.3478911564626	188.48721088435374	66	127
188.3478911564626	188.48721088435374	61	127
188.5336507936508	188.64975056689343	59	127
188.5336507936508	188.64975056689343	59	127
188.5336507936508	188.69619047619048	68	127
188.5336507936508	188.69619047619048	64	127
188.69619047619048	188.85873015873017	69	127
188.69619047619048	188.85873015873017	66	127
188.69619047619048	188.85873015873017	59	127
188.69619047619048	188.85873015873017	59	127
188.9167800453515	189.09092970521542	66	127
188.9167800453515	189.09092970521542	63	127
188.9167800453515	189.09092970521542	59	127
188.9167800453515	189.09092970521542	47	127
189.14897959183673	189.57854875283448	59	127
189.14897959183673	189.40439909297052	66	127
189.14897959183673	189.57854875283448	64	127
189.14897959183673	189.57854875283448	52	127
189.40439909297052	189.52049886621316	68	127
189.57854875283448	189.76430839002268	64	127
189.822358276644	190.24031746031747	64	127
189.822358276644	190.24031746031747	52	127
189.822358276644	190.24031746031747	52	127
190.24031746031747	190.49573696145126	64	127
190.24031746031747	190.49573696145126	52	127
190.24031746031747	190.49573696145126	52	127
190.49573696145126	190.96013605442178	64	127
190.49573696145126	190.96013605442178	52	127
190.49573696145126	190.96013605442178	52	127
190.97174603174602	191.19233560090703	64	127
190.97174603174602	191.19233560090703	52	127
190.97174603174602	191.19233560090703	52	127
191.2039455782313	191.64512471655328	64	127
191.2039455782313	191.64512471655328	52	127
191.2039455782313	191.64512471655328	52	127
191.65673469387755	191.8889342403628	64	127
191.65673469387755	191.8889342403628	52	127
191.65673469387755	191.8889342403628	52	127
191.8889342403628	192.7016326530612	86	127
191.8889342403628	192.7016326530612	74	127
191.8889342403628	192.7016326530612	68	127
191.8889342403628	192.7016326530612	53	127
192.7016326530612	192.8409523809524	85	127
192.7016326530612	192.8409523809524	73	127
192.7016326530612	192.8409523809524	68	127
192.7016326530612	192.8409523809524	53	127
192.8990022675737	193.04993197278912	83	127
192.8990022675737	193.04993197278912	73	127
192.8990022675737	193.04993197278912	68	127
192.8990022675737	193.04993197278912	53	127
193.10798185941044	193.2705215419501	81	127
193.10798185941044	193.2705215419501	73	127
193.10798185941044	193.32857142857142	61	127
193.10798185941044	193.32857142857142	54	127
193.32857142857142	193.4911111111111	80	127
193.32857142857142	193.4911111111111	71	127
193.32857142857142	193.5259410430839	56	127
193.32857142857142	193.5259410430839	61	127
193.53755102040816	193.6768707482993	69	127
193.53755102040816	193.6768707482993	78	127
193.53755102040816	193.73492063492063	61	127
193.53755102040816	193.73492063492063	57	127
193.73492063492063	193.9322902494331	68	127
193.73492063492063	193.9322902494331	59	127
193.73492063492063	193.9322902494331	76	127
193.73492063492063	193.9322902494331	59	127
193.94390022675736	194.09482993197278	78	127
193.94390022675736	194.09482993197278	69	127
193.94390022675736	194.1528798185941	59	127
193.94390022675736	194.1528798185941	59	127
194.1528798185941	194.32702947845806	75	127
194.1528798185941	194.32702947845806	69	127
194.1528798185941	194.3734693877551	59	127
194.1528798185941	194.3734693877551	47	127
194.38507936507938	194.47795918367348	76	127
194.38507936507938	194.58244897959185	68	127
194.38507936507938	194.58244897959185	59	127
194.38507936507938	194.80303854875282	40	127
194.47795918367348	194.54761904761904	80	127
194.58244897959185	194.6521088435374	83	127
194.58244897959185	194.80303854875282	56	127
194.58244897959185	194.80303854875282	52	127
194.6869387755102	194.75659863945577	80	127
194.80303854875282	194.8726984126984	83	127
194.80303854875282	195.01201814058956	59	127
194.80303854875282	195.01201814058956	56	127
194.9075283446712	194.97718820861678	80	127
195.01201814058956	195.42997732426304	47	127
195.01201814058956	195.1281179138322	81	127
195.1281179138322	195.1977777777778	78	127
195.23260770975057	195.30226757369616	75	127
195.23260770975057	195.42997732426304	57	127
195.23260770975057	195.42997732426304	54	127
195.33709750566894	195.39514739229026	71	127
195.42997732426304	195.49963718820862	69	127
195.42997732426304	195.6273469387755	59	127
195.42997732426304	195.6273469387755	57	127
195.5344671201814	195.604126984127	66	127
195.63895691609977	195.6970068027211	64	127
195.63895691609977	195.9756462585034	52	127
195.70861678004536	195.77827664399092	68	127
195.81310657596373	195.87115646258502	71	127
195.81310657596373	195.9756462585034	64	127
195.81310657596373	195.9756462585034	56	127
195.89437641723356	195.9756462585034	76	127
195.98725623582766	196.18462585034013	59	127
195.98725623582766	196.05691609977325	80	127
195.98725623582766	196.18462585034013	68	127
196.09174603174603	196.16140589569162	76	127
196.1962358276644	196.59097505668933	47	127
196.1962358276644	196.2891156462585	75	127
196.30072562358276	196.35877551020408	78	127
196.39360544217686	196.59097505668933	57	127
196.39360544217686	196.46326530612245	81	127
196.39360544217686	196.59097505668933	66	127
196.49809523809523	196.56775510204082	78	127
196.6025850340136	196.6722448979592	81	127
196.6025850340136	196.8231746031746	69	127
196.6025850340136	196.8231746031746	59	127
196.71868480725624	196.79995464852607	78	127
196.83478458049888	197.24113378684808	40	127
196.83478458049888	196.92766439909298	76	127
196.92766439909298	196.99732426303854	80	127
197.02054421768707	197.11342403628117	83	127
197.02054421768707	197.24113378684808	56	127
197.02054421768707	197.24113378684808	52	127
197.1366439909297	197.21791383219954	80	127
197.24113378684808	197.3224036281179	83	127
197.24113378684808	197.45011337868482	59	127
197.24113378684808	197.45011337868482	56	127
197.34562358276645	197.42689342403628	80	127
197.45011337868482	197.85646258503402	47	127
197.45011337868482	197.5546031746032	81	127
197.5546031746032	197.63587301587302	78	127
197.65909297052156	197.85646258503402	54	127
197.65909297052156	197.71714285714285	75	127
197.65909297052156	197.85646258503402	57	127
197.74036281179139	197.83324263038548	71	127
197.85646258503402	197.93773242630385	69	127
197.85646258503402	198.06544217687076	59	127
197.85646258503402	198.06544217687076	57	127
197.9609523809524	198.04222222222222	66	127
198.06544217687076	198.50662131519275	52	127
198.06544217687076	198.16993197278913	64	127
198.16993197278913	198.26281179138323	68	127
198.297641723356	198.37891156462584	71	127
198.297641723356	198.50662131519275	64	127
198.297641723356	198.50662131519275	56	127
198.41374149659865	198.47179138321997	76	127
198.50662131519275	198.57628117913833	80	127
198.50662131519275	198.71560090702948	68	127
198.50662131519275	198.71560090702948	59	127
198.61111111111111	198.6807709750567	76	127
198.71560090702948	199.1451700680272	47	127
198.71560090702948	198.83170068027212	75	127
198.83170068027212	198.90136054421768	78	127
198.9361904761905	199.00585034013605	81	127
198.9361904761905	199.1451700680272	66	127
198.9361904761905	199.1451700680272	57	127
199.04068027210883	199.11034013605442	78	127
199.1451700680272	199.3425396825397	69	127
199.1451700680272	199.2148299319728	81	127
199.1451700680272	199.3425396825397	59	127
199.24965986394557	199.31931972789116	78	127
199.35414965986394	199.72566893424036	52	127
199.35414965986394	199.4586394557823	76	127
199.4586394557823	199.5515192743764	78	127
199.5515192743764	199.72566893424036	64	127
199.5515192743764	199.72566893424036	56	127
199.5515192743764	199.63278911564626	80	127
199.63278911564626	199.73727891156463	81	127
199.73727891156463	199.841768707483	83	127
199.73727891156463	199.9346485260771	68	127
199.73727891156463	199.9346485260771	59	127
199.841768707483	199.94625850340137	80	127
199.94625850340137	200.05074829931974	76	127
199.94625850340137	200.3409977324263	52	127
200.05074829931974	200.1552380952381	78	127
200.1552380952381	200.3409977324263	64	127
200.1552380952381	200.25972789115647	80	127
200.1552380952381	200.3409977324263	56	127
200.25972789115647	200.35260770975057	81	127
200.35260770975057	200.4687074829932	83	127
200.35260770975057	200.5615873015873	68	127
200.35260770975057	200.5615873015873	59	127
200.4687074829932	200.57319727891158	80	127
200.57319727891158	201.04920634920634	56	127
200.57319727891158	200.66607709750568	52	127
200.57319727891158	201.04920634920634	76	127
200.57319727891158	201.04920634920634	64	127
200.66607709750568	200.82861678004537	54	127
200.82861678004537	200.9331065759637	56	127
200.9331065759637	201.04920634920634	57	127
201.04920634920634	201.1536961451247	59	127
201.1536961451247	201.25818594104308	56	127
201.25818594104308	201.42072562358277	52	127
201.45555555555555	201.6297052154195	51	127
201.68775510204082	201.9083446712018	50	127
201.96639455782312	202.46562358276643	49	127
202.68621315192743	203.11578231292518	49	127
202.68621315192743	203.11578231292518	61	127
203.11578231292518	203.3247619047619	61	127
203.11578231292518	203.3247619047619	49	127
203.33637188208615	203.7427210884354	61	127
203.33637188208615	203.7427210884354	49	127
203.33637188208615	203.7427210884354	49	127
203.75433106575963	203.94009070294786	61	127
203.75433106575963	203.94009070294786	49	127
203.75433106575963	203.94009070294786	49	127
203.94009070294786	204.43931972789116	61	127
203.94009070294786	204.43931972789116	49	127
203.94009070294786	204.43931972789116	49	127
204.43931972789116	204.76439909297054	61	127
204.43931972789116	204.76439909297054	49	127
204.43931972789116	204.76439909297054	49	127
204.76439909297054	205.61192743764173	74	127
204.76439909297054	205.61192743764173	71	127
204.76439909297054	205.61192743764173	56	127
204.76439909297054	205.61192743764173	53	127
205.623537414966	205.78607709750568	73	127
205.623537414966	205.78607709750568	69	127
205.623537414966	205.78607709750568	57	127
205.623537414966	205.78607709750568	54	127
205.85573696145124	206.00666666666666	71	127
205.85573696145124	206.00666666666666	68	127
205.85573696145124	206.00666666666666	59	127
205.85573696145124	206.00666666666666	56	127
206.06471655328798	206.51750566893423	69	127
206.06471655328798	206.51750566893423	66	127
206.06471655328798	206.51750566893423	61	127
206.06471655328798	206.51750566893423	57	127
207.4114739229025	208.2241723356009	77	127
207.4114739229025	208.2241723356009	68	127
207.4114739229025	208.2241723356009	62	127
207.4114739229025	208.2241723356009	59	127
208.2241723356009	208.3867120181406	78	127
208.2241723356009	208.3867120181406	69	127
208.2241723356009	208.3867120181406	61	127
208.2241723356009	208.3867120181406	57	127
208.44476190476192	208.60730158730158	80	127
208.44476190476192	208.60730158730158	71	127
208.44476190476192	208.60730158730158	59	127
208.44476190476192	208.60730158730158	56	127
208.67696145124717	209.09492063492064	81	127
208.67696145124717	209.09492063492064	73	127
208.67696145124717	209.09492063492064	57	127
208.67696145124717	209.09492063492064	54	127
209.96566893424037	210.8364172335601	85	127
209.96566893424037	210.8364172335601	76	127
209.96566893424037	210.8364172335601	70	127
209.96566893424037	210.8364172335601	67	127
210.88285714285715	211.03378684807257	69	127
210.88285714285715	211.03378684807257	86	127
210.88285714285715	211.03378684807257	78	127
210.88285714285715	211.03378684807257	66	127
211.09183673469389	211.2659863945578	79	127
211.09183673469389	211.2659863945578	88	127
211.09183673469389	211.2659863945578	67	127
211.09183673469389	211.2659863945578	64	127
211.3356462585034	211.7768253968254	90	127
211.3356462585034	211.7768253968254	81	127
211.3356462585034	211.7768253968254	66	127
211.3356462585034	211.7768253968254	62	127
212.65918367346939	213.52993197278911	76	127
212.65918367346939	213.52993197278911	69	127
212.65918367346939	213.52993197278911	61	127
212.65918367346939	213.52993197278911	55	127
213.52993197278911	213.72730158730158	78	127
213.52993197278911	213.72730158730158	69	127
213.52993197278911	213.72730158730158	62	127
213.52993197278911	213.72730158730158	54	127
213.79696145124717	213.9478911564626	79	127
213.79696145124717	213.9478911564626	69	127
213.79696145124717	213.9478911564626	64	127
213.79696145124717	213.9478911564626	52	127
214.0059410430839	214.21492063492065	81	127
214.0059410430839	214.21492063492065	69	127
214.0059410430839	214.21492063492065	66	127
214.0059410430839	214.21492063492065	50	127
214.2265306122449	214.4122902494331	78	127
214.2265306122449	214.4122902494331	74	127
214.2265306122449	214.4122902494331	62	127
214.2265306122449	214.4122902494331	54	127
214.42390022675738	214.64448979591836	74	127
214.42390022675738	214.64448979591836	69	127
214.65609977324263	214.8534693877551	55	127
214.65609977324263	214.8534693877551	59	127
214.86507936507937	215.09727891156462	71	127
214.86507936507937	215.09727891156462	74	127
214.86507936507937	215.09727891156462	62	127
214.86507936507937	215.09727891156462	59	127
215.10888888888888	215.3294784580499	71	127
215.10888888888888	215.3294784580499	67	127
215.3294784580499	215.56167800453514	50	127
215.3294784580499	215.56167800453514	45	127
215.56167800453514	215.7590476190476	69	127
215.56167800453514	215.7590476190476	66	127
215.56167800453514	215.7590476190476	54	127
215.56167800453514	215.7590476190476	50	127
215.7590476190476	216.02607709750566	66	127
215.7590476190476	216.02607709750566	62	127
216.02607709750566	216.28149659863945	45	127
216.02607709750566	216.28149659863945	52	127
216.28149659863945	216.51369614512473	64	127
216.28149659863945	216.51369614512473	67	127
216.28149659863945	216.51369614512473	55	127
216.28149659863945	216.51369614512473	52	127
216.51369614512473	216.72267573696146	64	127
216.51369614512473	216.72267573696146	61	127
216.72267573696146	217.16385487528345	62	127
216.72267573696146	216.93165532879817	38	127
216.72267573696146	217.60503401360543	50	127
216.72267573696146	220.71650793650792	62	127
216.93165532879817	217.16385487528345	45	127
217.16385487528345	217.3960544217687	42	127
217.3960544217687	218.20875283446713	38	127
217.60503401360543	217.75596371882085	74	127
217.60503401360543	217.8024036281179	57	127
217.81401360544217	217.9997732426304	54	127
217.81401360544217	217.9649433106576	76	127
218.01138321995464	219.42780045351475	60	127
218.01138321995464	218.20875283446713	78	127
218.01138321995464	218.89374149659864	50	127
218.22036281179138	218.44095238095238	48	127
218.45256235827665	218.60349206349207	79	127
218.45256235827665	218.6615419501134	45	127
218.6847619047619	219.67160997732427	38	127
218.6847619047619	218.89374149659864	81	127
218.9053514739229	219.1259410430839	60	127
219.13755102040815	219.3813605442177	82	127
219.13755102040815	219.42780045351475	57	127
219.42780045351475	220.71650793650792	59	127
219.42780045351475	220.11278911564625	83	127
219.42780045351475	220.31015873015872	50	127
219.67160997732427	219.9038095238095	47	127
219.9038095238095	220.11278911564625	43	127
220.11278911564625	220.93709750566893	38	127
220.11278911564625	220.31015873015872	79	127
220.31015873015872	220.51913832199546	59	127
220.51913832199546	220.65845804988663	78	127
220.51913832199546	220.71650793650792	55	127
220.71650793650792	220.93709750566893	76	127
220.71650793650792	221.58725623582765	50	127
220.71650793650792	222.63215419501134	64	127
220.71650793650792	222.63215419501134	61	127
220.93709750566893	221.15768707482994	45	127
221.15768707482994	221.30861678004536	78	127
221.15768707482994	221.36666666666667	43	127
221.36666666666667	221.58725623582765	79	127
221.36666666666667	222.21419501133786	38	127
221.58725623582765	221.7614058956916	57	127
221.78462585034015	221.99360544217686	55	127
221.78462585034015	221.9471655328798	80	127
222.00521541950113	222.63215419501134	81	127
222.00521541950113	222.21419501133786	50	127
222.22580498866213	222.4231746031746	57	127
222.22580498866213	222.4231746031746	45	127
222.43478458049887	222.63215419501134	43	127
222.43478458049887	222.63215419501134	55	127
222.6437641723356	222.84113378684808	50	127
222.6437641723356	222.84113378684808	38	127
222.6437641723356	223.92086167800454	62	127
222.6437641723356	222.79469387755103	78	127
222.85274376417235	223.0501133786848	57	127
222.85274376417235	223.0501133786848	45	127
222.85274376417235	223.00367346938776	74	127
223.0501133786848	223.235873015873	76	127
223.0501133786848	223.28231292517006	54	127
223.0501133786848	223.28231292517006	42	127
223.28231292517006	223.4912925170068	38	127
223.28231292517006	223.44485260770975	78	127
223.28231292517006	224.1530612244898	50	127
223.4912925170068	223.64222222222222	78	127
223.4912925170068	223.70027210884354	48	127
223.70027210884354	223.86281179138322	79	127
223.70027210884354	223.92086167800454	45	127
223.92086167800454	224.09501133786847	81	127
223.92086167800454	224.6522902494331	60	127
223.92086167800454	224.6522902494331	62	127
223.92086167800454	224.90770975056688	38	127
224.1530612244898	224.33882086167802	81	127
224.1530612244898	224.44331065759638	60	127
224.44331065759638	224.6522902494331	57	127
224.44331065759638	224.5942403628118	82	127
224.6522902494331	225.92938775510203	59	127
224.6522902494331	225.33727891156462	83	127
224.6522902494331	225.92938775510203	62	127
224.6522902494331	225.54625850340136	50	127
224.90770975056688	225.1282993197279	47	127
225.1282993197279	225.33727891156462	43	127
225.33727891156462	225.54625850340136	79	127
225.33727891156462	226.14997732426303	38	127
225.54625850340136	225.72040816326532	59	127
225.73201814058956	225.92938775510203	55	127
225.73201814058956	225.88294784580498	78	127
225.9409977324263	226.14997732426303	50	127
225.9409977324263	227.28775510204082	61	127
225.9409977324263	226.14997732426303	76	127
226.1615873015873	226.3473469387755	45	127
226.1615873015873	226.3473469387755	57	127
226.35895691609977	226.53310657596373	78	127
226.35895691609977	226.59115646258505	55	127
226.35895691609977	226.59115646258505	43	127
226.6027664399093	226.83496598639456	50	127
226.6027664399093	226.83496598639456	79	127
226.6027664399093	226.83496598639456	38	127
226.84657596371883	227.0439455782313	45	127
226.84657596371883	227.0439455782313	57	127
227.0439455782313	227.24131519274377	81	127
227.0439455782313	227.28775510204082	55	127
227.0439455782313	227.28775510204082	43	127
227.28775510204082	227.7289342403628	62	127
227.28775510204082	227.7289342403628	74	127
227.28775510204082	227.7289342403628	54	127
227.28775510204082	227.7289342403628	38	127
227.9495238095238	228.0424036281179	62	127
228.0424036281179	228.14689342403628	64	127
228.14689342403628	228.23977324263038	66	127
228.23977324263038	228.34426303854875	67	127
228.34426303854875	228.44875283446711	69	127
228.44875283446711	228.57646258503402	66	127
228.57646258503402	229.00603174603174	67	127
228.80866213151927	228.94798185941042	81	127
229.00603174603174	229.14535147392291	81	127
229.2034013605442	229.30789115646257	57	127
229.2034013605442	229.30789115646257	61	127
229.30789115646257	229.41238095238094	62	127
229.30789115646257	229.41238095238094	59	127
229.41238095238094	229.54009070294785	64	127
229.41238095238094	229.54009070294785	61	127
229.54009070294785	229.6561904761905	66	127
229.54009070294785	229.6561904761905	62	127
229.6561904761905	229.76068027210886	64	127
229.6561904761905	229.76068027210886	67	127
229.76068027210886	229.8651700680272	61	127
229.76068027210886	229.8651700680272	64	127
229.8651700680272	230.3063492063492	66	127
229.8651700680272	230.3063492063492	62	127
230.10897959183674	230.25990929705216	86	127
230.31795918367348	230.45727891156463	86	127
230.51532879818595	230.63142857142856	62	127
230.51532879818595	230.63142857142856	74	127
230.51532879818595	230.63142857142856	50	127
230.51532879818595	230.63142857142856	50	127
230.63142857142856	230.72430839002268	76	127
230.63142857142856	230.72430839002268	64	127
230.63142857142856	230.72430839002268	52	127
230.63142857142856	230.72430839002268	52	127
230.72430839002268	230.82879818594105	66	127
230.72430839002268	230.82879818594105	78	127
230.72430839002268	230.82879818594105	54	127
230.72430839002268	230.82879818594105	54	127
230.82879818594105	230.92167800453515	67	127
230.82879818594105	230.92167800453515	79	127
230.82879818594105	230.92167800453515	55	127
230.82879818594105	230.92167800453515	55	127
230.92167800453515	231.02616780045352	81	127
230.92167800453515	231.02616780045352	69	127
230.92167800453515	231.02616780045352	57	127
230.92167800453515	231.02616780045352	57	127
231.02616780045352	231.1306575963719	78	127
231.02616780045352	231.1306575963719	66	127
231.02616780045352	231.1306575963719	54	127
231.02616780045352	231.1306575963719	54	127
231.1306575963719	231.54861678004536	55	127
231.1306575963719	231.29319727891158	83	127
231.1306575963719	231.54861678004536	67	127
231.1306575963719	231.54861678004536	43	127
231.33963718820863	231.49056689342405	67	127
231.54861678004536	231.69954648526078	67	127
231.75759637188207	232.2219954648526	45	127
231.75759637188207	231.95496598639457	85	127
231.75759637188207	232.2219954648526	69	127
231.75759637188207	232.2219954648526	57	127
232.01301587301586	232.1639455782313	69	127
232.2219954648526	232.40775510204082	69	127
232.46580498866214	232.87215419501135	50	127
232.46580498866214	232.87215419501135	62	127
232.46580498866214	232.63995464852607	86	127
232.46580498866214	232.87215419501135	38	127
232.6980045351474	232.81410430839003	62	127
232.87215419501135	233.04630385487528	62	127
233.09274376417233	233.18562358276645	62	127
233.18562358276645	233.2901133786848	64	127
233.2901133786848	233.39460317460316	66	127
233.39460317460316	233.49909297052153	67	127
233.49909297052153	233.62680272108844	69	127
233.62680272108844	233.70807256235827	66	127
233.70807256235827	234.0795918367347	67	127
233.70807256235827	233.80095238095237	69	127
233.80095238095237	233.90544217687074	71	127
233.90544217687074	233.99832199546486	73	127
233.99832199546486	234.0795918367347	74	127
234.0795918367347	234.18408163265306	76	127
234.18408163265306	234.28857142857143	73	127
234.28857142857143	234.36984126984126	57	127
234.28857142857143	234.62526077097505	79	127
234.36984126984126	234.47433106575963	59	127
234.47433106575963	234.5556009070295	61	127
234.5556009070295	234.62526077097505	62	127
234.62526077097505	234.72975056689341	64	127
234.72975056689341	234.83424036281178	61	127
234.83424036281178	235.26380952380953	62	127
234.83424036281178	234.93873015873015	78	127
234.93873015873015	235.0548299319728	86	127
235.0548299319728	235.15931972789116	85	127
235.15931972789116	235.26380952380953	86	127
235.26380952380953	235.3682993197279	81	127
235.3682993197279	235.461179138322	78	127
235.461179138322	235.87913832199547	74	127
235.461179138322	235.56566893424036	50	127
235.56566893424036	235.681768707483	52	127
235.681768707483	235.78625850340137	54	127
235.78625850340137	235.87913832199547	55	127
235.87913832199547	235.98362811791384	57	127
235.98362811791384	236.07650793650794	54	127
236.07650793650794	236.1809977324263	57	127
236.07650793650794	236.5873469387755	55	127
236.1809977324263	236.29709750566894	59	127
236.29709750566894	236.47124716553287	61	127
236.47124716553287	236.59895691609978	62	127
236.59895691609978	236.70344671201815	64	127
236.70344671201815	236.81954648526076	61	127
236.81954648526076	236.9124263038549	45	127
236.81954648526076	237.21428571428572	67	127
236.9124263038549	237.01691609977325	47	127
237.01691609977325	237.12140589569162	49	127
237.12140589569162	237.22589569160996	50	127
237.22589569160996	237.29555555555555	52	127
237.29555555555555	237.3768253968254	49	127
237.3768253968254	237.4697052154195	65	127
237.3768253968254	237.80639455782313	50	127
237.4697052154195	237.58580498866212	69	127
237.58580498866212	237.70190476190476	65	127
237.70190476190476	237.80639455782313	62	127
237.80639455782313	237.92249433106576	57	127
237.92249433106576	238.02698412698413	53	127
238.02698412698413	238.42172335600907	50	127
238.02698412698413	238.10825396825396	62	127
238.10825396825396	238.20113378684806	64	127
238.20113378684806	238.3172335600907	65	127
238.3172335600907	238.42172335600907	67	127
238.42172335600907	238.52621315192744	69	127
238.52621315192744	238.64231292517007	65	127
238.64231292517007	238.83968253968254	70	127
238.89773242630386	239.0718820861678	67	127
239.1299319727891	239.28086167800453	67	127
239.33891156462585	239.48984126984126	73	127
239.33891156462585	239.48984126984126	57	127
239.5362811791383	239.68721088435373	69	127
239.5362811791383	239.68721088435373	61	127
239.73365079365078	239.8845804988662	69	127
239.73365079365078	239.8845804988662	61	127
239.96585034013606	240.11678004535148	74	127
239.96585034013606	240.11678004535148	59	127
240.18643990929706	240.33736961451248	71	127
240.18643990929706	240.33736961451248	62	127
240.39541950113377	240.54634920634922	71	127
240.39541950113377	240.54634920634922	62	127
240.6043990929705	240.75532879818593	76	127
240.6043990929705	240.75532879818593	61	127
240.801768707483	240.94108843537416	73	127
240.801768707483	240.94108843537416	64	127
240.99913832199547	241.13845804988662	73	127
240.99913832199547	241.13845804988662	64	127
241.18489795918367	241.3358276643991	77	127
241.18489795918367	241.3358276643991	62	127
241.37065759637187	241.53319727891156	74	127
241.37065759637187	241.53319727891156	65	127
241.56802721088437	241.71895691609978	74	127
241.56802721088437	241.71895691609978	65	127
241.77700680272108	241.92793650793652	79	127
241.77700680272108	241.92793650793652	64	127
241.9859863945578	242.13691609977323	76	127
241.9859863945578	242.13691609977323	67	127
242.19496598639455	242.34589569160997	76	127
242.19496598639455	242.34589569160997	67	127
242.4039455782313	242.5548752834467	81	127
242.4039455782313	243.0308843537415	50	127
242.61292517006802	242.7754648526077	62	127
242.61292517006802	242.7754648526077	74	127
242.61292517006802	242.7754648526077	65	127
242.83351473922903	242.9612244897959	74	127
242.83351473922903	242.9612244897959	65	127
242.83351473922903	242.9612244897959	62	127
243.0308843537415	243.18181405895692	89	127
243.0308843537415	243.63460317460317	48	127
243.22825396825397	243.37918367346938	65	127
243.22825396825397	243.37918367346938	62	127
243.22825396825397	243.37918367346938	74	127
243.4372335600907	243.58816326530612	65	127
243.4372335600907	243.58816326530612	74	127
243.4372335600907	243.58816326530612	62	127
243.64621315192744	243.7855328798186	89	127
243.64621315192744	244.2499319727891	46	127
243.8435827664399	243.936462585034	65	127
243.8435827664399	243.936462585034	74	127
243.8435827664399	243.936462585034	62	127
243.99451247165533	244.21510204081633	62	127
243.99451247165533	244.21510204081633	65	127
243.99451247165533	244.21510204081633	74	127
244.26154195011338	244.9117006802721	45	127
244.26154195011338	244.40086167800453	89	127
244.45891156462585	244.6330612244898	65	127
244.45891156462585	244.6330612244898	62	127
244.45891156462585	244.6330612244898	74	127
244.6911111111111	244.8536507936508	74	127
244.6911111111111	244.8536507936508	65	127
244.6911111111111	244.8536507936508	62	127
244.9117006802721	245.3180498866213	65	127
244.9117006802721	245.02780045351474	89	127
244.9117006802721	245.3180498866213	62	127
244.9117006802721	245.3180498866213	44	127
245.02780045351474	245.10907029478457	88	127
245.14390022675738	245.19034013605443	86	127
245.2251700680272	245.2948299319728	84	127
245.32965986394558	245.39931972789117	83	127
245.43414965986395	245.50380952380954	86	127
245.53863945578232	245.8869387755102	80	127
245.53863945578232	245.64312925170069	77	127
245.64312925170069	245.71278911564625	76	127
245.74761904761905	245.7940589569161	74	127
245.80566893424037	245.87532879818593	73	127
245.89854875283447	245.96820861678003	71	127
246.00303854875284	246.0726984126984	74	127
246.1075283446712	246.21201814058958	65	127
246.1075283446712	246.5138775510204	68	127
246.21201814058958	246.28167800453514	64	127
246.31650793650795	246.3861678004535	62	127
246.42099773242631	246.49065759637188	60	127
246.5138775510204	246.59514739229024	59	127
246.61836734693878	246.6996371882086	62	127
246.72285714285715	246.82734693877552	52	127
246.72285714285715	247.1756462585034	56	127
246.82734693877552	246.90861678004535	53	127
246.90861678004535	247.01310657596372	52	127
247.01310657596372	247.1756462585034	50	127
247.1756462585034	247.28013605442177	48	127
247.28013605442177	247.3962358276644	47	127
247.3962358276644	247.54716553287983	81	127
247.3962358276644	247.94190476190477	45	127
247.60521541950112	247.75614512471654	69	127
247.60521541950112	247.75614512471654	60	127
247.60521541950112	247.75614512471654	57	127
247.79097505668935	247.88385487528345	60	127
247.79097505668935	247.88385487528345	69	127
247.79097505668935	247.88385487528345	57	127
247.94190476190477	248.06961451247165	84	127
247.94190476190477	248.53401360544217	43	127
248.12766439909296	248.27859410430838	57	127
248.12766439909296	248.27859410430838	69	127
248.12766439909296	248.27859410430838	60	127
248.32503401360543	248.47596371882085	57	127
248.32503401360543	248.47596371882085	60	127
248.32503401360543	248.47596371882085	69	127
248.53401360544217	249.20739229024943	41	127
248.53401360544217	248.6849433106576	84	127
248.7429931972789	248.9055328798186	60	127
248.7429931972789	248.9055328798186	57	127
248.7429931972789	248.9055328798186	69	127
248.9635827664399	249.16095238095238	69	127
248.9635827664399	249.16095238095238	60	127
248.9635827664399	249.16095238095238	57	127
249.2190022675737	249.36993197278912	84	127
249.2190022675737	249.8807709750567	40	127
249.42798185941044	249.59052154195012	60	127
249.42798185941044	249.59052154195012	57	127
249.42798185941044	249.59052154195012	69	127
249.64857142857142	249.82272108843537	69	127
249.64857142857142	249.82272108843537	60	127
249.64857142857142	249.82272108843537	57	127
249.8807709750567	251.27396825396826	57	127
249.8807709750567	250.1013605442177	84	127
249.8807709750567	250.31034013605444	39	127
249.8807709750567	251.27396825396826	60	127
250.11297052154194	250.31034013605444	57	127
250.32195011337868	250.5077097505669	60	127
250.51931972789114	250.70507936507937	66	127
250.71668934240364	250.90244897959184	69	127
250.9140589569161	251.11142857142858	72	127
251.12303854875285	251.27396825396826	78	127
251.27396825396826	251.482947845805	81	127
251.27396825396826	251.482947845805	72	127
251.27396825396826	251.482947845805	66	127
251.27396825396826	251.482947845805	51	127
251.482947845805	251.6919274376417	83	127
251.482947845805	251.6919274376417	71	127
251.482947845805	251.6919274376417	66	127
251.482947845805	251.6919274376417	51	127
251.6919274376417	251.91251700680272	84	127
251.6919274376417	251.91251700680272	69	127
251.6919274376417	251.91251700680272	66	127
251.6919274376417	251.91251700680272	51	127
251.91251700680272	252.13310657596372	83	127
251.91251700680272	252.13310657596372	71	127
251.91251700680272	252.13310657596372	66	127
251.91251700680272	252.13310657596372	51	127
252.13310657596372	252.34208616780046	72	127
252.13310657596372	252.34208616780046	81	127
252.13310657596372	252.34208616780046	66	127
252.13310657596372	252.34208616780046	51	127
252.34208616780046	252.81809523809522	68	127
252.34208616780046	252.50462585034015	80	127
252.34208616780046	252.81809523809522	71	127
252.34208616780046	252.81809523809522	52	127
252.56267573696144	252.76004535147393	76	127
252.81809523809522	252.96902494331067	76	127
253.02707482993196	253.6424036281179	71	127
253.02707482993196	253.17800453514738	88	127
253.02707482993196	253.6424036281179	62	127
253.2360544217687	253.38698412698412	76	127
253.44503401360544	253.59596371882085	76	127
253.65401360544217	254.25773242630385	60	127
253.65401360544217	253.8049433106576	88	127
253.65401360544217	254.25773242630385	69	127
253.8629931972789	254.01392290249433	76	127
254.08358276643992	254.2112925170068	76	127
254.26934240362812	254.8730612244898	68	127
254.26934240362812	254.4318820861678	88	127
254.26934240362812	254.8730612244898	59	127
254.48993197278912	254.64086167800454	76	127
254.69891156462586	254.82662131519274	76	127
254.88467120181406	255.30263038548753	60	127
254.88467120181406	255.04721088435375	69	127
254.88467120181406	255.30263038548753	88	127
255.0936507936508	255.25619047619048	64	127
255.30263038548753	255.38390022675736	64	127
255.44195011337868	256.08049886621313	48	127
255.44195011337868	255.5928798185941	76	127
255.44195011337868	256.08049886621313	81	127
255.44195011337868	256.96285714285716	52	127
255.65092970521542	255.8134693877551	64	127
255.87151927437642	256.02244897959184	64	127
256.08049886621313	256.74226757369615	47	127
256.08049886621313	256.24303854875285	74	127
256.08049886621313	256.74226757369615	80	127
256.30108843537414	256.4752154195011	64	127
256.5332879818594	256.68419501133786	64	127
256.74226757369615	257.3924036281179	81	127
256.74226757369615	256.8931746031746	72	127
256.74226757369615	257.3924036281179	45	127
256.96285714285716	257.18344671201817	57	127
256.96285714285716	257.1253968253968	64	127
257.18344671201817	257.3924036281179	60	127
257.18344671201817	257.33437641723356	64	127
257.4040136054422	257.8219954648526	68	127
257.4040136054422	257.8219954648526	64	127
257.4040136054422	257.8219954648526	40	127
257.4040136054422	257.5781859410431	83	127
257.6362358276644	257.77555555555557	76	127
257.83360544217686	257.9845351473923	76	127
258.0425850340136	258.634693877551	71	127
258.0425850340136	258.19351473922904	88	127
258.0425850340136	258.634693877551	62	127
258.25156462585034	258.37927437641724	76	127
258.43732426303853	258.588253968254	76	127
258.634693877551	259.23839002267573	60	127
258.634693877551	258.78562358276645	88	127
258.634693877551	259.23839002267573	69	127
258.82045351473926	258.9597732426304	76	127
259.00621315192745	259.1803628117914	76	127
259.23839002267573	259.3893424036281	88	127
259.23839002267573	259.91179138321996	59	127
259.23839002267573	259.91179138321996	68	127
259.44736961451247	259.63315192743767	76	127
259.69120181405896	259.8537188208617	76	127
259.91179138321996	260.29492063492063	60	127
259.91179138321996	260.06272108843535	69	127
259.91179138321996	260.29492063492063	88	127
260.1207709750567	260.2717006802721	64	127
260.29492063492063	260.352970521542	64	127
260.41102040816327	261.0263492063492	81	127
260.41102040816327	260.5619274376417	76	127
260.41102040816327	261.0263492063492	48	127
260.41102040816327	261.9319274376417	52	127
260.62	260.77090702947845	64	127
260.82897959183674	260.9798866213152	64	127
261.0379591836735	261.20049886621314	74	127
261.0379591836735	261.722947845805	80	127
261.0379591836735	261.722947845805	47	127
261.2585487528345	261.45591836734695	64	127
261.51396825396824	261.67650793650796	64	127
261.73455782312925	262.384716553288	81	127
261.73455782312925	261.8854875283447	72	127
261.73455782312925	262.384716553288	45	127
261.943537414966	262.1525170068027	57	127
261.943537414966	262.1060544217687	64	127
262.164126984127	262.3150566893424	64	127
262.164126984127	262.384716553288	60	127
262.384716553288	262.7910657596372	83	127
262.384716553288	262.7910657596372	68	127
262.384716553288	262.7910657596372	64	127
262.384716553288	262.7910657596372	40	127
263.00004535147394	263.4412244897959	52	127
263.4412244897959	263.6385714285714	52	127
263.6385714285714	264.1029931972789	52	127
264.1029931972789	264.3816326530612	50	127
264.3816326530612	264.82281179138323	78	127
264.3816326530612	264.82281179138323	64	127
264.3816326530612	264.82281179138323	49	127
264.82281179138323	265.0201814058957	78	127
264.82281179138323	265.0201814058957	62	127
264.82281179138323	265.0201814058957	47	127
265.03179138321997	266.1231292517007	46	127
265.03179138321997	265.472947845805	78	127
265.03179138321997	266.1231292517007	61	127
265.03179138321997	267.0287074829932	54	127
265.4845804988662	265.67034013605445	76	127
265.6819274376417	266.1231292517007	74	127
266.13473922902494	266.2043990929705	61	127
266.13473922902494	266.2043990929705	46	127
266.13473922902494	266.3321088435374	73	127
266.2043990929705	266.2740589569161	47	127
266.2043990929705	266.2740589569161	62	127
266.2740589569161	266.3321088435374	49	127
266.2740589569161	266.3321088435374	64	127
266.3321088435374	266.79650793650796	66	127
266.3321088435374	267.44666666666666	71	127
266.3321088435374	266.79650793650796	50	127
266.79650793650796	267.0287074829932	49	127
266.79650793650796	267.0287074829932	64	127
267.0287074829932	267.44666666666666	47	127
267.0287074829932	267.44666666666666	62	127
267.0287074829932	268.27097505668934	59	127
267.44666666666666	267.66725623582767	61	127
267.44666666666666	267.66725623582767	45	127
267.66725623582767	268.6424716553288	44	127
267.66725623582767	268.07360544217687	76	127
267.66725623582767	268.6424716553288	59	127
268.07360544217687	268.27097505668934	74	127
268.27097505668934	269.4784126984127	52	127
268.27097505668934	268.6424716553288	73	127
268.6424716553288	268.83986394557826	71	127
268.6424716553288	268.71215419501135	40	127
268.6424716553288	268.71215419501135	56	127
268.71215419501135	268.7818140589569	57	127
268.71215419501135	268.7818140589569	42	127
268.7818140589569	268.8514512471655	44	127
268.7818140589569	268.8514512471655	59	127
268.8514512471655	270.0008616780045	45	127
268.8514512471655	269.26943310657595	74	127
268.8514512471655	270.0008616780045	61	127
269.2810430839002	269.4784126984127	73	127
269.49002267573695	270.9644897959184	57	127
269.49002267573695	270.0008616780045	71	127
270.02408163265306	270.0937414965986	45	127
270.02408163265306	270.34916099773244	69	127
270.02408163265306	270.0937414965986	61	127
270.0937414965986	270.20984126984126	62	127
270.0937414965986	270.20984126984126	47	127
270.20984126984126	270.34916099773244	49	127
270.20984126984126	270.34916099773244	64	127
270.34916099773244	270.7787301587302	68	127
270.34916099773244	271.3940589569161	50	127
270.34916099773244	270.7787301587302	64	127
270.7787301587302	270.9644897959184	66	127
270.7787301587302	270.9644897959184	62	127
270.9644897959184	271.61462585034013	57	127
270.9644897959184	271.3940589569161	61	127
270.9644897959184	271.3940589569161	64	127
271.3940589569161	271.61462585034013	62	127
271.3940589569161	271.4637188208617	50	127
271.3940589569161	271.61462585034013	59	127
271.4637188208617	271.5449886621315	52	127
271.5449886621315	271.61462585034013	54	127
271.61462585034013	272.8104761904762	57	127
271.61462585034013	271.70750566893423	61	127
271.61462585034013	272.8104761904762	52	127
271.61462585034013	272.8104761904762	61	127
271.70750566893423	271.8119954648526	64	127
271.8119954648526	271.91648526077097	69	127
271.91648526077097	272.00938775510207	73	127
272.00938775510207	272.10226757369617	76	127
272.10226757369617	272.20675736961454	81	127
272.20675736961454	272.3228344671202	85	127
272.3228344671202	272.42732426303854	81	127
272.42732426303854	272.5318140589569	88	127
272.5318140589569	272.6363038548753	85	127
272.6363038548753	272.7175963718821	83	127
272.7175963718821	272.8104761904762	81	127
272.8220861678005	273.5883446712018	40	127
272.8220861678005	272.9149659863946	80	127
272.8220861678005	273.5883446712018	62	127
272.8220861678005	273.5883446712018	59	127
272.9149659863946	272.98462585034014	81	127
273.01945578231295	273.06589569160997	83	127
273.1007256235828	273.17038548752834	81	127
273.20521541950114	273.2748752834467	80	127
273.3097052154195	273.3793650793651	78	127
273.4141950113379	273.4954648526077	76	127
273.4954648526077	273.56512471655327	75	127
273.5999546485261	273.7508616780045	71	127
273.5999546485261	273.66961451247164	76	127
273.5999546485261	273.7508616780045	62	127
273.5999546485261	273.7508616780045	40	127
273.70444444444445	273.77410430839	74	127
273.79732426303855	273.8669841269841	73	127
273.79732426303855	273.948253968254	71	127
273.79732426303855	273.948253968254	62	127
273.79732426303855	273.948253968254	40	127
273.9018140589569	273.9714739229025	71	127
273.994693877551	274.4474829931973	61	127
273.994693877551	274.1804535147392	45	127
273.994693877551	274.4474829931973	69	127
273.994693877551	274.4474829931973	81	127
274.2268934240363	274.4010430839002	49	127
274.4474829931973	274.5984126984127	52	127
274.5055328798186	274.55197278911567	71	127
274.55197278911567	274.61002267573696	69	127
274.61002267573696	274.65646258503403	68	127
274.65646258503403	275.097641723356	61	127
274.65646258503403	275.097641723356	57	127
274.65646258503403	274.8073922902494	69	127
274.65646258503403	275.097641723356	64	127
274.8654421768708	275.0395918367347	71	127
275.097641723356	275.24857142857144	73	127
275.30662131519273	275.4807709750567	45	127
275.5504308390023	275.7013378684807	49	127
275.74780045351474	275.9103401360544	52	127
275.8174603174603	275.8639002267574	74	127
275.8639002267574	275.92195011337867	73	127
275.92195011337867	275.96839002267575	71	127
275.96839002267575	276.31666666666666	61	127
275.96839002267575	276.0844897959184	73	127
275.96839002267575	276.31666666666666	64	127
275.96839002267575	276.31666666666666	57	127
276.1309297052154	276.2586394557823	74	127
276.31666666666666	276.46761904761905	76	127
276.52566893424034	276.69981859410433	45	127
276.7694784580499	276.9900680272109	49	127
277.0481179138322	277.18743764172336	52	127
277.082947845805	277.1409977324263	78	127
277.1409977324263	277.18743764172336	76	127
277.18743764172336	277.24548752834465	75	127
277.24548752834465	277.4428571428571	76	127
277.24548752834465	277.77954648526077	64	127
277.24548752834465	277.77954648526077	61	127
277.24548752834465	277.77954648526077	57	127
277.524126984127	277.68666666666667	78	127
277.79115646258504	278.0001360544218	80	127
278.04655328798185	278.2091156462585	81	127
278.2555328798186	278.41809523809525	83	127
278.4645124716553	278.627074829932	85	127
278.6851247165533	278.7780045351474	85	127
278.7780045351474	278.8128344671202	86	127
278.87086167800453	278.9405442176871	88	127
278.9869841269841	280.217641723356	62	127
278.9869841269841	279.2191836734694	45	127
278.9869841269841	279.60231292517005	90	127
278.9869841269841	280.217641723356	66	127
279.2191836734694	279.4049433106576	50	127
279.4049433106576	279.60231292517005	54	127
279.60231292517005	279.7996825396825	86	127
279.60231292517005	280.42662131519273	45	127
280.00866213151926	280.171201814059	85	127
280.24086167800453	280.42662131519273	83	127
280.24086167800453	282.08684807256236	68	127
280.24086167800453	282.08684807256236	59	127
280.438231292517	280.63560090702947	50	127
280.64721088435374	280.82136054421767	85	127
280.64721088435374	280.86780045351475	52	127
280.879410430839	281.68049886621316	45	127
280.879410430839	281.08839002267575	86	127
281.2973696145125	281.4482993197279	87	127
281.49473922902496	282.08684807256236	88	127
281.68049886621316	281.8894784580499	50	127
281.8894784580499	282.08684807256236	52	127
282.08684807256236	283.30589569161	69	127
282.08684807256236	282.22616780045354	85	127
282.08684807256236	282.28421768707483	45	127
282.08684807256236	283.30589569161	61	127
282.28421768707483	282.4351473922903	81	127
282.28421768707483	282.49319727891157	49	127
282.49319727891157	282.67895691609976	52	127
282.49319727891157	282.6209070294785	83	127
282.67895691609976	282.8879365079365	45	127
282.67895691609976	282.8298866213152	85	127
282.8879365079365	283.03886621315195	85	127
282.8879365079365	283.09691609977324	49	127
283.09691609977324	283.2478458049887	86	127
283.09691609977324	283.30589569161	52	127
283.30589569161	283.90961451247165	67	127
283.30589569161	283.4568253968254	88	127
283.30589569161	283.50326530612244	45	127
283.30589569161	283.90961451247165	61	127
283.5148752834467	283.66580498866216	88	127
283.5148752834467	283.7122448979592	52	127
283.7122448979592	283.8631746031746	89	127
283.7122448979592	283.90961451247165	55	127
283.9212244897959	285.17510204081634	66	127
283.9212244897959	285.17510204081634	62	127
283.9212244897959	284.53655328798186	90	127
283.9212244897959	284.13020408163266	45	127
284.1418140589569	284.3391836734694	50	127
284.35079365079366	284.53655328798186	54	127
284.54816326530613	285.3840816326531	45	127
284.54816326530613	284.9777324263039	86	127
284.9777324263039	285.14027210884353	85	127
285.17510204081634	286.35931972789115	59	127
285.17510204081634	285.337641723356	83	127
285.17510204081634	286.35931972789115	68	127
285.3840816326531	285.5698412698413	50	127
285.5698412698413	285.778820861678	52	127
285.5698412698413	285.7207482993197	85	127
285.778820861678	285.9297505668934	86	127
285.778820861678	285.98780045351475	45	127
285.98780045351475	286.1851700680272	47	127
286.1851700680272	286.35931972789115	50	127
286.1851700680272	286.3128798185941	88	127
286.35931972789115	286.76566893424035	45	127
286.35931972789115	286.76566893424035	81	127
286.35931972789115	286.76566893424035	69	127
286.35931972789115	286.76566893424035	61	127
286.9746485260771	287.07913832199546	69	127
287.07913832199546	287.1836281179138	71	127
287.1836281179138	287.25326530612244	73	127
287.25326530612244	287.3577551020408	74	127
287.3577551020408	287.4274376417234	76	127
287.4274376417234	287.543537414966	73	127
287.543537414966	287.93827664399095	74	127
287.7409070294785	287.89183673469387	52	127
287.7409070294785	287.89183673469387	64	127
287.7409070294785	287.89183673469387	52	127
287.9498866213152	288.1008163265306	64	127
287.9498866213152	288.1008163265306	52	127
287.9498866213152	288.1008163265306	52	127
288.15886621315195	288.25174603174605	76	127
288.25174603174605	288.3330158730159	78	127
288.3330158730159	288.43750566893425	80	127
288.43750566893425	288.53038548752835	81	127
288.53038548752835	288.58843537414964	83	127
288.58843537414964	288.6812925170068	80	127
288.6812925170068	289.06444444444446	81	127
288.8554648526077	289.0063945578231	49	127
288.8554648526077	289.0063945578231	49	127
288.8554648526077	289.0063945578231	61	127
289.06444444444446	289.2269841269841	61	127
289.06444444444446	289.2269841269841	49	127
289.06444444444446	289.2269841269841	49	127
289.28503401360547	289.4011111111111	69	127
289.4011111111111	289.5056009070295	71	127
289.5056009070295	289.6101133786848	73	127
289.6101133786848	289.71460317460316	74	127
289.71460317460316	289.8307029478458	76	127
289.8307029478458	289.88875283446714	73	127
289.88875283446714	290.01643990929705	78	127
290.07451247165534	290.22544217687073	50	127
290.07451247165534	290.22544217687073	62	127
290.237052154195	290.3995918367347	62	127
290.237052154195	290.3995918367347	50	127
290.44603174603174	290.5969614512472	80	127
290.6550113378685	290.7711111111111	64	127
290.6550113378685	290.7711111111111	52	127
290.8175510204082	290.98009070294785	64	127
290.8175510204082	290.98009070294785	52	127
291.0381179138322	291.1890702947846	81	127
291.2471201814059	291.3980498866213	57	127
291.2471201814059	291.3980498866213	45	127
291.4677097505669	291.61863945578233	57	127
291.4677097505669	291.61863945578233	45	127
291.69990929705216	291.8160090702948	69	127
291.8160090702948	291.92049886621317	71	127
291.92049886621317	292.001768707483	73	127
292.001768707483	292.0946485260771	74	127
292.0946485260771	292.1875283446712	76	127
292.1875283446712	292.29201814058956	73	127
292.29201814058956	292.69836734693877	74	127
292.29201814058956	292.69836734693877	42	127
292.48938775510203	292.6403174603175	66	127
292.48938775510203	292.6403174603175	54	127
292.69836734693877	292.8492970521542	66	127
292.69836734693877	292.8492970521542	54	127
292.9073469387755	293.33691609977325	43	127
292.9073469387755	293.33691609977325	86	127
293.1395464852608	293.29047619047617	67	127
293.1395464852608	293.29047619047617	55	127
293.33691609977325	293.4878231292517	67	127
293.33691609977325	293.4878231292517	55	127
293.54589569161	293.9406349206349	44	127
293.54589569161	293.9406349206349	86	127
293.7548752834467	293.88258503401363	68	127
293.7548752834467	293.88258503401363	56	127
293.9406349206349	294.09156462585037	68	127
293.9406349206349	294.09156462585037	56	127
294.14961451247166	294.5791836734694	86	127
294.14961451247166	294.5791836734694	45	127
294.38181405895693	294.5327437641723	69	127
294.38181405895693	294.5327437641723	57	127
294.59079365079367	294.7184807256236	69	127
294.59079365079367	294.7184807256236	57	127
294.77655328798187	295.25256235827663	46	127
294.77655328798187	295.25256235827663	86	127
295.0203401360544	295.2061224489796	70	127
295.0203401360544	295.2061224489796	58	127
295.2641723356009	295.4034920634921	70	127
295.2641723356009	295.4034920634921	58	127
295.46154195011337	295.8678911564626	47	127
295.46154195011337	295.8678911564626	86	127
295.6705215419501	295.82145124716556	59	127
295.6705215419501	295.82145124716556	71	127
295.8678911564626	295.97238095238095	71	127
295.8678911564626	295.97238095238095	59	127
296.018820861678	296.4832199546485	43	127
296.22780045351476	296.4251700680272	62	127
296.22780045351476	296.4251700680272	59	127
296.22780045351476	296.4251700680272	77	127
296.22780045351476	296.4251700680272	67	127
296.4832199546485	296.63414965986397	62	127
296.4832199546485	296.63414965986397	59	127
296.4832199546485	296.63414965986397	67	127
296.4832199546485	296.63414965986397	77	127
296.69219954648526	297.1565986394558	48	127
296.94761904761907	297.09854875283446	60	127
296.94761904761907	297.09854875283446	67	127
296.94761904761907	297.09854875283446	76	127
296.94761904761907	297.09854875283446	64	127
297.1565986394558	297.2959183673469	67	127
297.1565986394558	297.2959183673469	76	127
297.1565986394558	297.2959183673469	64	127
297.1565986394558	297.2959183673469	60	127
297.342358276644	297.7487074829932	88	127
297.342358276644	297.7487074829932	47	127
297.5397278911565	297.69065759637186	71	127
297.5397278911565	297.69065759637186	59	127
297.7487074829932	297.86480725623585	71	127
297.7487074829932	297.86480725623585	59	127
297.92285714285714	298.3059863945578	88	127
297.92285714285714	298.3059863945578	48	127
298.1318367346939	298.2595464852608	72	127
298.1318367346939	298.2595464852608	60	127
298.3175963718821	298.445306122449	72	127
298.3175963718821	298.445306122449	60	127
298.49172335600906	298.89809523809527	45	127
298.68911564625853	298.8516553287982	79	127
298.68911564625853	298.8516553287982	69	127
298.68911564625853	298.8516553287982	64	127
298.68911564625853	298.8516553287982	61	127
298.90968253968254	299.0722448979592	79	127
298.90968253968254	299.0722448979592	64	127
298.90968253968254	299.0722448979592	61	127
298.90968253968254	299.0722448979592	69	127
299.1302947845805	299.49020408163267	50	127
299.2928344671202	299.4437641723356	69	127
299.2928344671202	299.4437641723356	77	127
299.2928344671202	299.4437641723356	65	127
299.2928344671202	299.4437641723356	62	127
299.49020408163267	299.6527437641723	69	127
299.49020408163267	299.6527437641723	77	127
299.49020408163267	299.6527437641723	65	127
299.49020408163267	299.6527437641723	62	127
299.6991836734694	300.1171428571429	51	127
299.6991836734694	299.9197732426304	81	127
299.9197732426304	300.0823129251701	72	127
299.9197732426304	300.0823129251701	60	127
299.9197732426304	300.0823129251701	57	127
300.1171428571429	300.27968253968254	57	127
300.1171428571429	300.27968253968254	72	127
300.1171428571429	300.27968253968254	60	127
300.3493424036281	300.7905215419501	52	127
300.55832199546484	300.7324716553288	57	127
300.55832199546484	300.7324716553288	72	127
300.55832199546484	300.7324716553288	60	127
300.7905215419501	300.9762811791383	72	127
300.7905215419501	300.9762811791383	60	127
300.7905215419501	300.9762811791383	57	127
301.03433106575966	301.40585034013606	53	127
301.2084807256236	301.34780045351476	60	127
301.2084807256236	301.34780045351476	72	127
301.2084807256236	301.34780045351476	57	127
301.40585034013606	301.5567800453515	72	127
301.40585034013606	301.5567800453515	57	127
301.40585034013606	301.5567800453515	60	127
301.6148299319728	302.0560090702948	51	127
301.81219954648526	301.99795918367346	57	127
301.81219954648526	301.99795918367346	72	127
301.81219954648526	301.99795918367346	60	127
302.0676190476191	302.2069387755102	57	127
302.0676190476191	302.2069387755102	72	127
302.0676190476191	302.2069387755102	60	127
302.26498866213154	302.3694784580499	71	127
302.26498866213154	302.462358276644	56	127
302.26498866213154	302.462358276644	40	127
302.26498866213154	302.6481179138322	59	127
302.3694784580499	302.4739682539683	64	127
302.4739682539683	302.6481179138322	52	127
302.4739682539683	302.57845804988665	68	127
302.4739682539683	302.6481179138322	52	127
302.57845804988665	302.6597278911565	71	127
302.6597278911565	302.7526077097506	76	127
302.6597278911565	302.85709750566895	52	127
302.6597278911565	302.85709750566895	52	127
302.7526077097506	302.8687074829932	80	127
302.8687074829932	303.29825396825396	83	127
302.8687074829932	303.0660770975057	50	127
302.8687074829932	304.3199319727891	52	127
303.0892970521542	303.29825396825396	47	127
303.29825396825396	303.5188662131519	80	127
303.29825396825396	303.5188662131519	50	127
303.5188662131519	303.71621315192743	49	127
303.5188662131519	303.9252154195011	81	127
303.71621315192743	303.9252154195011	45	127
303.71621315192743	303.9252154195011	73	127
303.9252154195011	304.11097505668937	44	127
303.9252154195011	304.11097505668937	71	127
303.9252154195011	304.11097505668937	83	127
304.11097505668937	304.3199319727891	73	127
304.11097505668937	304.3199319727891	45	127
304.11097505668937	304.49410430839004	85	127
304.3199319727891	304.49410430839004	69	127
304.3199319727891	304.49410430839004	57	127
304.3199319727891	304.49410430839004	42	127
304.49410430839004	304.6914739229025	87	127
304.49410430839004	304.6914739229025	71	127
304.49410430839004	304.6914739229025	57	127
304.49410430839004	304.6914739229025	47	127
304.6914739229025	305.08621315192744	71	127
304.6914739229025	304.8424036281179	88	127
304.6914739229025	304.8424036281179	40	127
304.6914739229025	305.08621315192744	56	127
304.90045351473924	305.0397505668934	76	127
304.90045351473924	305.08621315192744	52	127
305.08621315192744	305.1326530612245	78	127
305.08621315192744	305.2951927437642	51	127
305.1326530612245	305.1907029478458	80	127
305.1907029478458	305.2951927437642	78	127
305.2951927437642	306.06142857142856	52	127
305.2951927437642	305.4693424036281	80	127
305.2951927437642	305.4693424036281	52	127
305.4809523809524	305.65507936507936	50	127
305.4809523809524	305.65507936507936	80	127
305.6667120181406	305.71315192743765	80	127
305.6667120181406	305.8640589569161	47	127
305.71315192743765	305.77120181405894	81	127
305.77120181405894	305.8640589569161	80	127
305.8756916099773	306.06142857142856	49	127
305.8756916099773	306.06142857142856	81	127
306.0730612244898	306.25882086167803	64	127
306.0730612244898	306.25882086167803	45	127
306.0730612244898	306.25882086167803	81	127
306.0730612244898	306.25882086167803	73	127
306.2704081632653	306.30526077097505	83	127
306.2704081632653	306.4561904761905	71	127
306.2704081632653	306.4561904761905	64	127
306.2704081632653	306.4561904761905	44	127
306.30526077097505	306.3632879818594	85	127
306.3632879818594	306.4561904761905	83	127
306.46777777777777	306.66517006802724	85	127
306.46777777777777	306.66517006802724	73	127
306.46777777777777	306.66517006802724	64	127
306.46777777777777	306.66517006802724	45	127
306.66517006802724	306.8625396825397	85	127
306.66517006802724	306.8160997732426	69	127
306.66517006802724	306.8625396825397	57	127
306.66517006802724	306.8625396825397	42	127
306.8625396825397	307.07151927437644	47	127
306.8625396825397	306.920589569161	87	127
306.8625396825397	307.02507936507936	69	127
306.8625396825397	307.07151927437644	59	127
306.920589569161	306.9670294784581	88	127
306.9670294784581	307.07151927437644	87	127
307.07151927437644	307.4662585034014	68	127
307.07151927437644	307.21083900226756	40	127
307.07151927437644	307.2688888888889	88	127
307.07151927437644	307.4662585034014	59	127
307.2688888888889	307.40820861678003	44	127
307.2688888888889	307.4662585034014	88	127
307.4662585034014	307.62879818594104	47	127
307.4662585034014	307.6868480725624	92	127
307.69843537414965	307.9074149659864	88	127
307.69843537414965	308.1512471655329	59	127
307.69843537414965	307.84938775510204	52	127
307.69843537414965	308.1512471655329	68	127
307.9074149659864	308.0931972789116	56	127
307.9074149659864	308.1512471655329	88	127
308.1512471655329	308.3021768707483	59	127
308.1512471655329	308.3602267573696	95	127
308.3718367346939	308.8594557823129	88	127
308.3718367346939	308.8594557823129	64	127
308.3718367346939	308.8594557823129	68	127
308.3718367346939	308.8594557823129	59	127
309.57927437641723	309.7185941043084	64	127
309.57927437641723	309.7185941043084	52	127
309.57927437641723	309.7185941043084	52	127
309.76503401360543	309.9972335600907	72	127
309.76503401360543	309.9972335600907	60	127
309.76503401360543	309.9972335600907	60	127
310.24104308390025	310.4384126984127	68	127
310.24104308390025	310.4384126984127	56	127
310.24104308390025	310.4384126984127	56	127
310.48485260770974	310.7286621315193	69	127
310.48485260770974	310.7286621315193	57	127
310.48485260770974	310.7286621315193	57	127
310.92603174603175	311.06535147392293	64	127
310.92603174603175	311.06535147392293	52	127
310.92603174603175	311.06535147392293	52	127
311.1350113378685	311.6226303854875	53	127
311.1350113378685	311.6226303854875	65	127
311.1350113378685	311.6226303854875	53	127
311.6342403628118	311.73873015873016	67	127
311.6342403628118	311.73873015873016	55	127
311.6342403628118	311.73873015873016	55	127
311.73873015873016	311.9012698412698	65	127
311.73873015873016	311.9012698412698	53	127
311.73873015873016	311.9012698412698	53	127
311.9012698412698	312.19149659863945	64	127
311.9012698412698	312.19149659863945	52	127
311.9012698412698	312.19149659863945	52	127
312.43532879818594	312.50496598639455	64	127
312.43532879818594	312.6094557823129	64	127
312.50496598639455	312.6094557823129	62	127
312.6094557823129	313.0738775510204	69	127
312.6094557823129	313.0738775510204	64	127
312.6094557823129	313.0738775510204	60	127
313.0738775510204	313.28285714285715	71	127
313.0738775510204	313.28285714285715	68	127
313.0738775510204	313.28285714285715	59	127
313.28285714285715	313.73562358276644	72	127
313.28285714285715	313.73562358276644	69	127
313.28285714285715	313.73562358276644	57	127
313.73562358276644	313.9794557823129	56	127
313.73562358276644	313.9794557823129	74	127
313.73562358276644	313.9794557823129	71	127
313.9910657596372	314.3974149659864	71	127
313.9910657596372	314.3974149659864	57	127
313.9910657596372	314.3974149659864	74	127
314.40902494331067	314.4554648526077	72	127
314.40902494331067	314.60639455782314	69	127
314.40902494331067	314.60639455782314	51	127
314.4554648526077	314.50190476190477	74	127
314.50190476190477	314.60639455782314	72	127
314.60639455782314	315.0824036281179	68	127
314.60639455782314	314.82698412698414	71	127
314.60639455782314	315.0824036281179	52	127
315.0824036281179	315.32621315192745	64	127
315.3378231292517	315.82544217687075	72	127
315.3378231292517	315.82544217687075	60	127
315.3378231292517	315.82544217687075	57	127
315.3378231292517	316.51043083900225	64	127
315.82544217687075	316.04603174603176	68	127
315.82544217687075	316.04603174603176	62	127
315.82544217687075	316.04603174603176	59	127
316.04603174603176	316.26662131519276	60	127
316.04603174603176	316.51043083900225	69	127
316.04603174603176	316.26662131519276	64	127
316.5220408163265	316.6961678004535	61	127
316.5220408163265	316.7542403628118	69	127
316.5220408163265	316.7542403628118	67	127
316.5220408163265	316.7542403628118	64	127
316.7542403628118	317.1721995464853	77	127
316.7542403628118	317.1721995464853	65	127
316.7542403628118	317.1721995464853	62	127
316.7542403628118	317.81074829931976	69	127
317.1721995464853	317.381179138322	73	127
317.1721995464853	317.381179138322	68	127
317.1721995464853	317.381179138322	64	127
317.3927891156463	317.601768707483	69	127
317.3927891156463	317.601768707483	65	127
317.3927891156463	317.601768707483	74	127
317.822335600907	318.0313378684807	81	127
317.822335600907	318.0313378684807	77	127
317.822335600907	318.0313378684807	59	127
318.08938775510205	318.2983673469388	81	127
318.08938775510205	318.2983673469388	77	127
318.08938775510205	318.2983673469388	61	127
318.2983673469388	318.46090702947845	79	127
318.2983673469388	318.46090702947845	76	127
318.5189569160998	318.6582766439909	77	127
318.5189569160998	318.6582766439909	74	127
318.5189569160998	318.6582766439909	69	127
318.5189569160998	318.6582766439909	53	127
318.71632653061226	318.91369614512473	77	127
318.71632653061226	318.91369614512473	74	127
318.71632653061226	318.91369614512473	69	127
318.71632653061226	318.91369614512473	55	127
318.925306122449	319.09945578231293	67	127
318.925306122449	319.09945578231293	72	127
318.925306122449	319.09945578231293	76	127
319.1575056689342	319.32004535147394	65	127
319.1575056689342	319.32004535147394	43	127
319.1575056689342	319.32004535147394	74	127
319.1575056689342	319.32004535147394	71	127
319.3897052154195	319.6219047619048	48	127
319.3897052154195	320.08630385487527	74	127
319.3897052154195	320.08630385487527	71	127
319.3897052154195	320.08630385487527	65	127
319.85410430839005	320.028253968254	55	127
320.08630385487527	320.31850340136054	60	127
320.08630385487527	320.53909297052155	72	127
320.08630385487527	320.53909297052155	64	127
320.53909297052155	320.8061224489796	64	127
320.53909297052155	320.8061224489796	52	127
320.53909297052155	320.8061224489796	40	127
320.8061224489796	321.0267120181406	72	127
320.8061224489796	321.0267120181406	60	127
320.8061224489796	321.0267120181406	48	127
321.31696145124715	321.5026984126984	68	127
321.31696145124715	321.5026984126984	56	127
321.31696145124715	321.5026984126984	44	127
321.57238095238097	321.76975056689344	69	127
321.57238095238097	321.76975056689344	57	127
321.57238095238097	321.76975056689344	45	127
322.03678004535146	322.21090702947845	64	127
322.03678004535146	322.21090702947845	52	127
322.03678004535146	322.21090702947845	40	127
322.32702947845803	322.80303854875285	65	127
322.32702947845803	322.80303854875285	53	127
322.32702947845803	322.80303854875285	41	127
322.80303854875285	322.93072562358276	67	127
322.80303854875285	322.93072562358276	55	127
322.80303854875285	322.93072562358276	43	127
322.93072562358276	323.0932879818594	65	127
322.93072562358276	323.0932879818594	53	127
322.93072562358276	323.0932879818594	41	127
323.0932879818594	323.383537414966	64	127
323.0932879818594	323.383537414966	52	127
323.0932879818594	323.383537414966	40	127
323.6621768707483	323.85954648526075	76	127
323.6621768707483	323.76666666666665	76	127
323.76666666666665	323.871156462585	74	127
323.871156462585	324.2775056689342	76	127
323.871156462585	324.2775056689342	72	127
323.871156462585	324.2775056689342	81	127
324.2891156462585	324.49809523809523	80	127
324.2891156462585	324.49809523809523	83	127
324.2891156462585	324.49809523809523	71	127
324.49809523809523	324.93927437641725	84	127
324.49809523809523	324.93927437641725	81	127
324.49809523809523	324.93927437641725	69	127
324.93927437641725	325.1366439909297	86	127
324.93927437641725	325.1366439909297	83	127
324.93927437641725	325.1366439909297	68	127
325.148253968254	325.56621315192746	86	127
325.148253968254	325.56621315192746	83	127
325.148253968254	325.56621315192746	69	127
325.56621315192746	325.7751927437642	81	127
325.56621315192746	325.62426303854875	84	127
325.56621315192746	325.7751927437642	63	127
325.62426303854875	325.6823129251701	86	127
325.6823129251701	325.78680272108846	84	127
325.78680272108846	326.0073922902494	83	127
325.78680272108846	326.21637188208615	80	127
325.78680272108846	326.21637188208615	64	127
326.2279818594104	326.61108843537414	76	127
326.61108843537414	327.1451700680272	85	127
326.61108843537414	327.8185487528345	64	127
326.61108843537414	327.1451700680272	73	127
326.61108843537414	327.1451700680272	57	127
327.1451700680272	327.3657596371882	74	127
327.1451700680272	327.3657596371882	59	127
327.1451700680272	327.3657596371882	80	127
327.3773696145125	327.5979591836735	76	127
327.3773696145125	327.5979591836735	61	127
327.3773696145125	327.8185487528345	81	127
327.83015873015876	328.0507482993197	69	127
327.83015873015876	327.9926984126984	61	127
327.83015873015876	328.0507482993197	67	127
327.83015873015876	328.0507482993197	81	127
328.062358276644	328.6312471655329	66	127
328.062358276644	328.6312471655329	90	127
328.062358276644	329.6877551020408	69	127
328.062358276644	328.6312471655329	62	127
328.64285714285717	328.93310657596373	67	127
328.64285714285717	328.93310657596373	64	127
328.64285714285717	328.93310657596373	85	127
328.93310657596373	329.6877551020408	66	127
328.93310657596373	329.6877551020408	86	127
328.93310657596373	329.6877551020408	69	127
331.0809523809524	331.2202721088435	81	127
331.2318820861678	331.66145124716553	90	127
331.66145124716553	331.812380952381	85	127
331.812380952381	331.9517006802721	86	127
331.9517006802721	332.1722902494331	82	127
331.9517006802721	332.1722902494331	73	127
332.1722902494331	332.5902494331066	83	127
332.1722902494331	332.5902494331066	74	127
332.5902494331066	332.8108390022676	73	127
332.5902494331066	332.8108390022676	70	127
332.5902494331066	333.46097505668934	78	127
332.8108390022676	333.46097505668934	74	127
332.8108390022676	333.46097505668934	71	127
333.46097505668934	333.73963718820863	57	127
333.46097505668934	333.73963718820863	77	127
333.46097505668934	334.13437641723357	74	127
333.46097505668934	334.13437641723357	71	127
333.73963718820863	334.13437641723357	56	127
333.73963718820863	334.55233560090704	76	127
334.14598639455784	334.3433560090703	69	127
334.14598639455784	334.3433560090703	73	127
334.14598639455784	334.3433560090703	57	127
334.3549659863946	334.83097505668934	71	127
334.3549659863946	334.83097505668934	66	127
334.3549659863946	334.83097505668934	50	127
334.5639455782313	334.7845124716553	74	127
334.8425850340136	335.0747845804989	52	127
334.8425850340136	335.0283446712018	71	127
334.8425850340136	335.0747845804989	68	127
334.8425850340136	335.0747845804989	62	127
335.08639455782316	335.51596371882084	69	127
335.08639455782316	335.51596371882084	61	127
335.08639455782316	335.51596371882084	47	127
335.51596371882084	335.7481632653061	71	127
335.7481632653061	335.91068027210883	73	127
335.95714285714286	336.11965986394557	71	127
336.17773242630386	336.3402721088435	69	127
336.3867120181406	336.59569160997734	68	127
336.3867120181406	336.8394784580499	64	127
336.8394784580499	337.00204081632654	66	127
336.8394784580499	337.06009070294783	66	127
337.06009070294783	337.2110204081633	67	127
337.06009070294783	337.4780498866213	64	127
337.26907029478457	337.42	82	127
337.26907029478457	337.42	66	127
337.4780498866213	337.62897959183675	82	127
337.4780498866213	337.62897959183675	64	127
337.68702947845804	337.94244897959186	83	127
337.68702947845804	337.94244897959186	71	127
337.68702947845804	337.81473922902495	62	127
337.9540362811791	338.1049886621315	61	127
337.9540362811791	338.1514285714286	73	127
338.16301587301587	338.31396825396826	74	127
338.16301587301587	338.59260770975055	59	127
338.3719954648526	338.54616780045353	73	127
338.6042176870748	338.76675736961454	71	127
338.82480725623583	339.1614965986395	69	127
338.82480725623583	339.40530612244896	66	127
339.40530612244896	339.5910430839002	68	127
339.40530612244896	339.5910430839002	68	127
339.63750566893424	340.0554648526077	66	127
339.63750566893424	339.80002267573695	69	127
339.846485260771	339.9974149659864	84	127
339.846485260771	339.9974149659864	68	127
340.0554648526077	340.20637188208616	84	127
340.0554648526077	340.20637188208616	66	127
340.26444444444445	340.4734240362812	64	127
340.26444444444445	340.6475736961451	85	127
340.26444444444445	340.6475736961451	73	127
340.6475736961451	340.79850340136056	75	127
340.6475736961451	340.79850340136056	63	127
340.85655328798185	341.0074829931973	76	127
340.85655328798185	341.26290249433106	61	127
341.0655328798186	341.20485260770977	75	127
341.26290249433106	341.40222222222224	73	127
341.4602721088435	341.86662131519273	74	127
341.4602721088435	341.611201814059	52	127
341.4602721088435	341.657641723356	74	127
341.4602721088435	341.86662131519273	86	127
341.4602721088435	341.86662131519273	52	127
341.66925170068026	341.8201814058957	68	127
341.66925170068026	341.8201814058957	64	127
341.878231292517	342.02916099773245	85	127
341.878231292517	342.02916099773245	69	127
341.878231292517	342.02916099773245	64	127
341.878231292517	342.02916099773245	54	127
342.1336507936508	342.2845804988662	83	127
342.1336507936508	342.2845804988662	71	127
342.1336507936508	342.2845804988662	64	127
342.1336507936508	342.2845804988662	56	127
342.34263038548755	342.49356009070294	81	127
342.34263038548755	342.49356009070294	73	127
342.34263038548755	342.49356009070294	64	127
342.34263038548755	342.49356009070294	57	127
342.5516099773243	342.71414965986395	80	127
342.5516099773243	342.71414965986395	74	127
342.5516099773243	342.71414965986395	64	127
342.5516099773243	342.71414965986395	59	127
342.760566893424	342.89990929705215	76	127
342.760566893424	342.9463492063492	80	127
342.760566893424	342.9463492063492	64	127
342.760566893424	342.9463492063492	61	127
342.9579591836735	343.1088888888889	81	127
342.9579591836735	343.15532879818596	76	127
342.9579591836735	343.15532879818596	61	127
342.9579591836735	343.15532879818596	57	127
343.15532879818596	343.3178684807256	76	127
343.15532879818596	343.3643083900227	73	127
343.3643083900227	343.5965079365079	54	127
343.3643083900227	343.5965079365079	50	127
343.5965079365079	343.79385487528344	78	127
343.5965079365079	343.79385487528344	81	127
343.5965079365079	343.79385487528344	57	127
343.5965079365079	343.79385487528344	54	127
343.79385487528344	343.94480725623583	78	127
343.79385487528344	343.94480725623583	74	127
343.94480725623583	344.1421768707483	57	127
343.94480725623583	344.1421768707483	52	127
344.1421768707483	344.33954648526077	61	127
344.1421768707483	344.33954648526077	76	127
344.1421768707483	344.33954648526077	73	127
344.1421768707483	344.33954648526077	57	127
344.33954648526077	344.5949659863946	73	127
344.33954648526077	344.5949659863946	69	127
344.5949659863946	344.79233560090705	59	127
344.5949659863946	344.79233560090705	52	127
344.79233560090705	345.02453514739227	62	127
344.79233560090705	345.02453514739227	74	127
344.79233560090705	345.02453514739227	71	127
344.79233560090705	345.02453514739227	59	127
345.02453514739227	345.2451247165533	68	127
345.02453514739227	345.2451247165533	71	127
345.2451247165533	345.6863038548753	61	127
345.2451247165533	345.407664399093	69	127
345.2451247165533	345.6863038548753	45	127
345.4657142857143	345.6398639455782	81	127
345.4657142857143	345.6398639455782	69	127
345.73272108843537	345.88367346938776	83	127
345.73272108843537	345.88367346938776	71	127
345.94172335600905	346.0810430839002	73	127
345.94172335600905	346.0810430839002	85	127
346.1390702947846	346.2668027210884	71	127
346.1390702947846	346.2668027210884	83	127
346.3248526077098	346.48739229024943	81	127
346.3248526077098	346.48739229024943	69	127
346.5454195011338	346.74281179138325	80	127
346.5454195011338	346.74281179138325	68	127
346.5454195011338	346.9169614512472	64	127
346.5454195011338	346.9169614512472	52	127
346.9169614512472	347.07950113378683	66	127
346.9169614512472	347.07950113378683	78	127
346.9169614512472	347.07950113378683	66	127
346.9169614512472	347.07950113378683	54	127
347.1259410430839	347.2768707482993	67	127
347.1259410430839	347.2768707482993	55	127
347.1259410430839	347.5439002267574	76	127
347.1259410430839	347.5439002267574	64	127
347.33492063492065	347.48585034013604	66	127
347.33492063492065	347.48585034013604	54	127
347.5439002267574	347.6948299319728	64	127
347.5439002267574	347.6948299319728	52	127
347.7528798185941	347.9966893424036	50	127
347.7528798185941	348.2172789115646	83	127
347.7528798185941	348.2172789115646	71	127
347.7528798185941	347.9966893424036	62	127
348.2172789115646	348.36820861678007	49	127
348.2172789115646	348.36820861678007	85	127
348.2172789115646	348.36820861678007	73	127
348.2172789115646	348.36820861678007	61	127
348.42625850340136	348.6004081632653	86	127
348.42625850340136	348.6004081632653	74	127
348.42625850340136	348.92548752834466	59	127
348.42625850340136	348.92548752834466	47	127
348.7165079365079	348.86743764172337	85	127
348.7165079365079	348.86743764172337	73	127
348.92548752834466	348.983537414966	83	127
348.92548752834466	348.983537414966	71	127
348.9951473922903	349.1809070294785	81	127
348.9951473922903	349.42471655328796	66	127
348.9951473922903	349.42471655328796	54	127
348.9951473922903	349.1809070294785	69	127
349.43632653061223	349.59886621315195	56	127
349.43632653061223	349.59886621315195	80	127
349.43632653061223	349.59886621315195	68	127
349.43632653061223	349.59886621315195	68	127
349.65691609977324	349.8078458049887	69	127
349.65691609977324	349.8078458049887	57	127
349.65691609977324	350.0748752834467	78	127
349.65691609977324	350.0748752834467	66	127
349.87750566893425	350.0284126984127	68	127
349.87750566893425	350.0284126984127	56	127
350.086485260771	350.2374149659864	54	127
350.086485260771	350.2374149659864	66	127
350.2954648526077	350.4928344671202	52	127
350.2954648526077	350.69020408163266	85	127
350.2954648526077	350.69020408163266	73	127
350.2954648526077	350.4928344671202	64	127
350.69020408163266	350.91079365079366	75	127
350.69020408163266	350.8643537414966	63	127
350.69020408163266	350.8643537414966	51	127
350.69020408163266	350.91079365079366	87	127
350.91079365079366	351.1778231292517	88	127
350.91079365079366	351.1778231292517	76	127
350.91079365079366	351.3984126984127	61	127
350.91079365079366	351.3984126984127	49	127
351.1778231292517	351.3984126984127	88	127
351.1778231292517	351.3984126984127	75	127
351.3984126984127	351.5725623582766	88	127
351.3984126984127	351.5725623582766	73	127
351.5725623582766	351.9905215419501	52	127
351.5725623582766	351.9905215419501	74	127
351.5725623582766	352.8148299319728	88	127
351.5725623582766	351.9905215419501	56	127
351.9905215419501	352.14145124716555	57	127
351.9905215419501	352.14145124716555	54	127
351.9905215419501	352.14145124716555	73	127
352.19950113378684	352.3504308390023	59	127
352.19950113378684	352.3504308390023	56	127
352.19950113378684	352.3504308390023	71	127
352.4084807256236	352.559410430839	61	127
352.4084807256236	352.559410430839	57	127
352.4084807256236	352.559410430839	69	127
352.6174603174603	352.76839002267576	62	127
352.6174603174603	352.76839002267576	59	127
352.6174603174603	352.76839002267576	68	127
352.8148299319728	353.18634920634923	56	127
352.8148299319728	353.99904761904764	88	127
352.8148299319728	353.18634920634923	52	127
352.8148299319728	353.18634920634923	74	127
353.1979365079365	353.3372789115646	73	127
353.1979365079365	353.3372789115646	57	127
353.1979365079365	353.3372789115646	54	127
353.39530612244897	353.54625850340136	56	127
353.39530612244897	353.54625850340136	71	127
353.39530612244897	353.54625850340136	59	127
353.6042857142857	353.74362811791383	57	127
353.6042857142857	353.74362811791383	61	127
353.6042857142857	353.74362811791383	69	127
353.8016553287982	353.95260770975057	68	127
353.8016553287982	353.95260770975057	62	127
353.8016553287982	353.95260770975057	59	127
354.0106349206349	354.1615873015873	59	127
354.0106349206349	354.1615873015873	88	127
354.0106349206349	354.1615873015873	74	127
354.0106349206349	354.1615873015873	56	127
354.21961451247165	354.3473469387755	80	127
354.21961451247165	354.3473469387755	74	127
354.21961451247165	354.3473469387755	64	127
354.21961451247165	354.3473469387755	59	127
354.3937868480726	354.55632653061224	81	127
354.3937868480726	354.55632653061224	73	127
354.3937868480726	354.55632653061224	64	127
354.3937868480726	354.55632653061224	57	127
354.6027664399093	354.74208616780044	83	127
354.6027664399093	354.74208616780044	71	127
354.6027664399093	354.74208616780044	64	127
354.6027664399093	354.74208616780044	56	127
354.8001360544218	354.9510657596372	69	127
354.8001360544218	354.9510657596372	64	127
354.8001360544218	354.9510657596372	54	127
354.8001360544218	354.9510657596372	85	127
355.0091156462585	355.1948752834467	52	127
355.0091156462585	355.1948752834467	86	127
355.0091156462585	355.1948752834467	68	127
355.0091156462585	355.1948752834467	64	127
355.27614512471655	355.4502947845805	69	127
355.27614512471655	355.72893424036283	64	127
355.27614512471655	355.72893424036283	57	127
355.27614512471655	355.8798639455782	85	127
355.5199546485261	355.72893424036283	69	127
355.72893424036283	355.8798639455782	81	127
355.8798639455782	356.30943310657597	54	127
355.8798639455782	356.30943310657597	57	127
355.8798639455782	356.5184126984127	86	127
356.08884353741496	356.30943310657597	69	127
356.30943310657597	356.5184126984127	81	127
356.5184126984127	356.94798185941045	57	127
356.5184126984127	356.94798185941045	49	127
356.5184126984127	357.1569614512472	88	127
356.72739229024944	356.94798185941045	69	127
356.9595918367347	357.1569614512472	81	127
357.16857142857145	357.5865079365079	57	127
357.16857142857145	357.5865079365079	51	127
357.16857142857145	357.76068027210886	90	127
357.38913832199546	357.5865079365079	69	127
357.59814058956914	357.76068027210886	81	127
357.7722902494331	358.7359183673469	64	127
357.7722902494331	357.98126984126986	52	127
357.7722902494331	358.7359183673469	57	127
357.7722902494331	358.7359183673469	61	127
358.0044671201814	358.2134693877551	49	127
358.2134693877551	358.48049886621317	45	127
358.48049886621317	358.7359183673469	40	127
358.7359183673469	358.89845804988664	86	127
358.7359183673469	358.89845804988664	62	127
358.7359183673469	358.89845804988664	59	127
358.7359183673469	358.95650793650793	40	127
358.95650793650793	359.11902494331065	80	127
358.95650793650793	359.11902494331065	62	127
358.95650793650793	359.11902494331065	59	127
358.95650793650793	359.17709750566894	40	127
359.17709750566894	359.6066666666667	57	127
359.17709750566894	359.2815873015873	81	127
359.17709750566894	359.6066666666667	61	127
359.17709750566894	359.6066666666667	45	127
359.2815873015873	359.3744671201814	85	127
359.39768707482995	359.4789569160998	88	127
359.5021768707483	359.58344671201814	85	127
359.6066666666667	359.67632653061224	81	127
359.71115646258505	359.7808163265306	85	127
359.8156462585034	359.885306122449	76	127
359.9201360544218	359.9665759637188	81	127
359.98979591836735	360.0362358276644	73	127
360.0710657596372	360.1407029478458	76	127
360.17555555555555	360.2568253968254	69	127
360.2916553287982	360.3845351473923	73	127
360.4193650793651	361.2668707482993	57	127
360.4193650793651	360.65154195011337	52	127
360.4193650793651	361.2668707482993	64	127
360.4193650793651	361.2668707482993	61	127
360.66315192743764	360.84893424036284	49	127
360.8605215419501	361.0579138321996	45	127
361.06950113378684	361.2668707482993	40	127
361.2785034013605	361.47585034013605	40	127
361.2785034013605	361.42943310657597	86	127
361.2785034013605	361.42943310657597	62	127
361.2785034013605	361.42943310657597	59	127
361.48748299319726	361.6384126984127	59	127
361.48748299319726	361.6384126984127	80	127
361.48748299319726	361.6384126984127	62	127
361.48748299319726	361.6848299319728	40	127
361.696462585034	362.137641723356	57	127
361.696462585034	361.81256235827664	81	127
361.696462585034	362.137641723356	61	127
361.696462585034	362.137641723356	45	127
361.81256235827664	361.89383219954647	85	127
361.9286621315193	361.99832199546483	88	127
362.0215419501134	362.1144217687075	85	127
362.137641723356	362.2305215419501	81	127
362.2305215419501	362.2421315192744	85	127
362.2653514739229	362.34662131519275	76	127
362.3698412698413	362.4511111111111	81	127
362.47433106575966	362.5091609977324	73	127
362.53238095238095	362.60201814058956	76	127
362.62526077097505	362.70650793650793	69	127
362.7413605442177	362.8226303854875	73	127
362.8690702947846	363.07804988662133	52	127
362.8690702947846	363.67015873015873	64	127
362.8690702947846	363.67015873015873	61	127
362.8690702947846	363.67015873015873	57	127
363.07804988662133	363.28702947845807	49	127
363.28702947845807	363.47278911564626	45	127
363.47278911564626	363.67015873015873	40	127
363.67015873015873	363.8094784580499	59	127
363.67015873015873	363.8094784580499	86	127
363.67015873015873	363.8094784580499	62	127
363.67015873015873	363.85591836734693	40	127
363.85591836734693	364.01845804988665	80	127
363.85591836734693	364.01845804988665	62	127
363.85591836734693	364.01845804988665	59	127
363.85591836734693	364.07650793650794	40	127
364.0881179138322	364.51768707482995	81	127
364.0881179138322	364.51768707482995	61	127
364.0881179138322	364.51768707482995	57	127
364.0881179138322	364.51768707482995	45	127
364.7266666666667	365.16784580498864	57	127
365.16784580498864	365.36519274376417	57	127
365.36519274376417	365.88766439909296	57	127
365.88766439909296	366.1663038548753	57	127
366.1663038548753	366.68873015873015	57	127
366.68873015873015	366.9790022675737	57	127
366.990589569161	367.87297052154196	83	127
366.990589569161	367.87297052154196	73	127
366.990589569161	367.87297052154196	67	127
366.990589569161	367.87297052154196	57	127
367.87297052154196	368.0355102040816	81	127
367.87297052154196	368.0355102040816	74	127
367.87297052154196	368.0355102040816	66	127
367.87297052154196	368.0355102040816	59	127
368.09356009070297	368.24448979591835	79	127
368.09356009070297	368.24448979591835	76	127
368.09356009070297	368.24448979591835	64	127
368.09356009070297	368.24448979591835	61	127
368.3025396825397	368.47668934240363	78	127
368.3025396825397	368.47668934240363	69	127
368.3025396825397	368.47668934240363	62	127
368.3025396825397	368.47668934240363	62	127
368.534716553288	368.68566893424037	76	127
368.534716553288	368.68566893424037	70	127
368.534716553288	368.68566893424037	64	127
368.534716553288	368.68566893424037	61	127
368.74371882086166	368.9062585034014	74	127
368.74371882086166	368.9062585034014	71	127
368.74371882086166	368.9062585034014	66	127
368.74371882086166	368.9062585034014	59	127
368.96430839002267	369.1268480725624	64	127
368.96430839002267	369.1268480725624	64	127
368.96430839002267	369.16167800453513	73	127
368.96430839002267	369.16167800453513	69	127
369.16167800453513	369.32421768707485	74	127
369.16167800453513	369.32421768707485	71	127
369.16167800453513	369.32421768707485	64	127
369.16167800453513	369.32421768707485	64	127
369.3938775510204	369.54478458049886	68	127
369.3938775510204	369.54478458049886	71	127
369.3938775510204	369.54478458049886	64	127
369.3938775510204	369.54478458049886	52	127
369.60285714285715	370.10208616780045	64	127
369.60285714285715	369.8350566893424	71	127
369.60285714285715	370.10208616780045	69	127
369.60285714285715	370.10208616780045	57	127
369.8466666666667	370.04403628117916	73	127
370.10208616780045	370.2530158730159	69	127
370.32267573696146	370.78707482993195	69	127
370.32267573696146	370.78707482993195	57	127
370.32267573696146	370.78707482993195	57	127
370.32267573696146	370.78707482993195	57	127
370.78707482993195	370.9844217687075	57	127
370.78707482993195	370.9844217687075	69	127
370.78707482993195	370.9844217687075	57	127
370.78707482993195	370.9844217687075	57	127
370.9960544217687	371.4372335600907	69	127
370.9960544217687	371.4372335600907	57	127
370.9960544217687	371.4372335600907	57	127
370.9960544217687	371.4372335600907	57	127
371.448843537415	371.6578231292517	69	127
371.448843537415	371.6578231292517	57	127
371.448843537415	371.6578231292517	57	127
371.448843537415	371.6578231292517	57	127
371.669433106576	372.14544217687074	69	127
371.669433106576	372.14544217687074	57	127
371.669433106576	372.14544217687074	57	127
371.669433106576	372.14544217687074	57	127
372.157052154195	372.40086167800456	57	127
372.157052154195	372.40086167800456	69	127
372.157052154195	372.40086167800456	57	127
372.157052154195	372.40086167800456	57	127
372.40086167800456	373.2367573696145	91	127
372.40086167800456	373.2367573696145	79	127
372.40086167800456	373.2367573696145	61	127
372.40086167800456	373.2367573696145	58	127
373.2367573696145	373.36448979591836	90	127
373.2367573696145	373.36448979591836	78	127
373.2367573696145	373.36448979591836	61	127
373.2367573696145	373.36448979591836	58	127
373.39931972789117	373.5618594104308	88	127
373.39931972789117	373.5618594104308	78	127
373.39931972789117	373.5618594104308	61	127
373.39931972789117	373.5618594104308	58	127
373.6199092970522	373.7592290249433	86	127
373.6199092970522	373.7592290249433	78	127
373.6199092970522	373.7592290249433	66	127
373.6199092970522	373.7592290249433	59	127
373.81727891156464	373.9798185941043	85	127
373.81727891156464	373.9798185941043	76	127
373.81727891156464	373.9798185941043	66	127
373.81727891156464	373.9798185941043	61	127
374.03786848072565	374.17718820861677	83	127
374.03786848072565	374.17718820861677	74	127
374.03786848072565	374.17718820861677	66	127
374.03786848072565	374.17718820861677	62	127
374.2352380952381	374.3861678004535	64	127
374.2352380952381	374.3861678004535	64	127
374.2352380952381	374.4326077097506	81	127
374.2352380952381	374.4326077097506	73	127
374.44421768707485	374.59514739229024	64	127
374.44421768707485	374.59514739229024	83	127
374.44421768707485	374.59514739229024	74	127
374.44421768707485	374.59514739229024	64	127
374.6531972789116	374.81573696145125	80	127
374.6531972789116	374.81573696145125	74	127
374.6531972789116	374.81573696145125	64	127
374.6531972789116	374.81573696145125	52	127
374.8737641723356	375.26852607709753	45	127
374.8737641723356	374.9782766439909	81	127
374.8737641723356	375.07113378684807	73	127
374.8737641723356	375.07113378684807	64	127
374.9782766439909	375.03632653061226	85	127
375.07113378684807	375.1408163265306	88	127
375.07113378684807	375.26852607709753	61	127
375.07113378684807	375.26852607709753	57	127
375.17562358276643	375.245306122449	85	127
375.26852607709753	375.47748299319727	64	127
375.26852607709753	375.3381859410431	88	127
375.26852607709753	375.47748299319727	61	127
375.3729931972789	375.44267573696146	85	127
375.47748299319727	375.58197278911564	86	127
375.47748299319727	375.8838321995465	52	127
375.58197278911564	375.6516553287982	83	127
375.686462585034	375.76775510204084	80	127
375.686462585034	375.8838321995465	62	127
375.686462585034	375.8838321995465	59	127
375.8025850340136	375.8722448979592	76	127
375.89544217687074	376.0928117913832	64	127
375.89544217687074	375.9651247165533	74	127
375.89544217687074	376.0928117913832	62	127
375.99995464852606	376.0696145124717	71	127
376.1044444444444	376.1973015873016	69	127
376.1044444444444	376.51079365079363	57	127
376.1973015873016	376.26698412698414	73	127
376.30179138321995	376.3714739229025	76	127
376.30179138321995	376.51079365079363	69	127
376.30179138321995	376.51079365079363	61	127
376.4062811791383	376.48757369614515	81	127
376.5224036281179	376.5920634920635	85	127
376.5224036281179	376.71977324263037	73	127
376.5224036281179	376.71977324263037	64	127
376.62689342403627	376.6965532879819	81	127
376.73138321995464	377.13773242630384	52	127
376.73138321995464	376.835873015873	80	127
376.835873015873	376.9055328798186	83	127
376.9403628117914	377.01	86	127
376.9403628117914	377.13773242630384	71	127
376.9403628117914	377.13773242630384	62	127
377.04485260770974	377.11448979591836	83	127
377.13773242630384	377.3699319727891	74	127
377.13773242630384	377.23061224489794	86	127
377.13773242630384	377.3699319727891	64	127
377.2538321995465	377.3467120181406	83	127
377.3699319727891	377.7878911564626	45	127
377.3699319727891	377.48603174603176	81	127
377.48603174603176	377.5673015873016	85	127
377.6021315192744	377.7878911564626	57	127
377.6021315192744	377.67179138321995	88	127
377.6021315192744	377.7878911564626	61	127
377.6950113378685	377.7762811791383	85	127
377.7878911564626	377.8691609977324	88	127
377.7878911564626	377.9620408163265	64	127
377.7878911564626	377.9620408163265	61	127
377.8807709750567	377.93879818594104	85	127
377.9620408163265	378.34514739229024	52	127
377.9620408163265	378.0432879818594	86	127
378.0432879818594	378.12458049886624	83	127
378.1478004535147	378.34514739229024	62	127
378.1478004535147	378.2290702947846	80	127
378.1478004535147	378.34514739229024	59	127
378.2406575963719	378.3219501133787	76	127
378.34514739229024	378.4264399092971	74	127
378.34514739229024	378.554126984127	64	127
378.34514739229024	378.554126984127	62	127
378.4496371882086	378.5193197278912	71	127
378.554126984127	378.9721088435374	57	127
378.554126984127	378.6586394557823	69	127
378.6586394557823	378.7399092970522	73	127
378.77473922902493	378.8327891156463	76	127
378.77473922902493	378.9721088435374	69	127
378.77473922902493	378.9721088435374	61	127
378.86761904761903	378.93727891156465	81	127
378.9721088435374	379.18108843537414	64	127
378.9721088435374	379.041768707483	85	127
378.9721088435374	379.18108843537414	73	127
379.07659863945577	379.1462585034014	81	127
379.18108843537414	379.2971882086168	80	127
379.18108843537414	379.5990476190476	52	127
379.2971882086168	379.3668253968254	83	127
379.40167800453514	379.47131519274376	86	127
379.40167800453514	379.5990476190476	71	127
379.40167800453514	379.5990476190476	62	127
379.5061678004535	379.5758049886621	83	127
379.6106575963719	379.7964172335601	74	127
379.6106575963719	379.68031746031744	86	127
379.6106575963719	379.7964172335601	64	127
379.71514739229025	379.7731746031746	83	127
379.80802721088435	379.9125170068027	81	127
379.80802721088435	380.2259863945578	45	127
379.9125170068027	380.0170068027211	83	127
380.0170068027211	380.1331065759637	85	127
380.0170068027211	380.2259863945578	69	127
380.0170068027211	380.2259863945578	61	127
380.1331065759637	380.2375963718821	86	127
380.2375963718821	380.43496598639456	73	127
380.2375963718821	380.43496598639456	64	127
380.2375963718821	380.34208616780046	88	127
380.34208616780046	380.44657596371883	85	127
380.44657596371883	380.56267573696147	81	127
380.44657596371883	380.8761451247166	57	127
380.56267573696147	380.65555555555557	83	127
380.65555555555557	380.8761451247166	69	127
380.65555555555557	380.8761451247166	61	127
380.65555555555557	380.76004535147393	85	127
380.76004535147393	380.8761451247166	86	127
380.8761451247166	381.0851247165533	64	127
380.8761451247166	380.98063492063494	88	127
380.8761451247166	381.0851247165533	73	127
380.98063492063494	381.0851247165533	85	127
381.0851247165533	381.57274376417234	61	127
381.0851247165533	381.22444444444443	45	127
381.0851247165533	381.57274376417234	81	127
381.0851247165533	381.57274376417234	69	127
381.22444444444443	381.3289342403628	47	127
381.3289342403628	381.468253968254	49	127
381.468253968254	381.57274376417234	50	127
381.57274376417234	381.6772335600907	52	127
381.6772335600907	381.7817233560091	49	127
381.7817233560091	381.88621315192745	69	127
381.7817233560091	382.2112925170068	45	127
381.88621315192745	382.0023129251701	71	127
382.0023129251701	382.10680272108846	73	127
382.10680272108846	382.2112925170068	74	127
382.2112925170068	382.3157823129252	76	127
382.3157823129252	382.42027210884356	73	127
382.42027210884356	382.66408163265305	69	127
382.42027210884356	382.66408163265305	61	127
382.42027210884356	383.0820408163265	57	127
382.75696145124715	382.97755102040816	62	127
382.75696145124715	382.97755102040816	71	127
383.0820408163265	383.232970521542	73	127
383.0820408163265	383.232970521542	64	127
383.29102040816326	383.4419501133787	81	127
383.4535600907029	383.47678004535146	85	127
383.61609977324264	383.7786394557823	73	127
383.61609977324264	383.7786394557823	69	127
383.61609977324264	384.1269387755102	57	127
383.88312925170067	384.06888888888886	71	127
383.88312925170067	384.06888888888886	74	127
384.1385487528345	384.4984580498866	76	127
384.1385487528345	384.4984580498866	73	127
384.61455782312925	384.70743764172335	85	127
384.74226757369615	384.8467573696145	88	127
384.89319727891154	385.044126984127	69	127
385.1021768707483	385.264716553288	71	127
385.3227664399093	385.46208616780046	73	127
385.52013605442176	385.64784580498866	73	127
385.52013605442176	385.64784580498866	64	127
385.52013605442176	385.64784580498866	57	127
385.70589569160995	385.8568253968254	74	127
385.70589569160995	385.8568253968254	64	127
385.70589569160995	385.8568253968254	59	127
385.9148752834467	386.0774149659864	61	127
385.9148752834467	386.0774149659864	76	127
385.9148752834467	386.0774149659864	64	127
386.1354648526077	386.28639455782314	69	127
386.1354648526077	386.28639455782314	61	127
386.1354648526077	386.28639455782314	76	127
386.3560544217687	386.51859410430836	78	127
386.3560544217687	386.51859410430836	69	127
386.3560544217687	386.51859410430836	62	127
386.5766439909297	386.73918367346937	59	127
386.5766439909297	386.73918367346937	80	127
386.5766439909297	386.73918367346937	69	127
386.78562358276645	387.3545124716553	69	127
386.78562358276645	387.3545124716553	81	127
386.78562358276645	386.9597732426304	88	127
386.78562358276645	387.3545124716553	61	127
387.1107029478458	387.296462585034	90	127
387.3545124716553	387.4357823129252	92	127
387.7028117913832	388.22526077097507	64	127
387.7028117913832	388.22526077097507	71	127
387.7028117913832	388.22526077097507	80	127
387.7028117913832	388.22526077097507	74	127
387.7028117913832	388.22526077097507	64	127
387.7028117913832	388.22526077097507	52	127
388.5271201814059	389.04956916099775	57	127
388.5271201814059	389.04956916099775	64	127
388.5271201814059	389.29337868480724	73	127
388.5271201814059	389.29337868480724	81	127
388.5271201814059	389.29337868480724	64	127
388.5271201814059	389.29337868480724	57	127
388.5271201814059	389.29337868480724	45	127
394.5643083900227	394.76167800453516	69	127
