# onset,offset,note,velocity
0.6377777777777778	0.6726077097505669	69	127
0.6377777777777778	0.6726077097505669	57	127
0.6377777777777778	0.6726077097505669	57	127
1.0557142857142856	1.1950566893424037	73	127
1.3807936507936507	2.472154195011338	76	127
1.6942857142857144	2.0658049886621317	73	127
2.0658049886621317	2.472154195011338	69	127
2.472154195011338	3.644761904761905	71	127
2.855283446712018	3.2384126984126986	68	127
3.2384126984126986	3.644761904761905	64	127
3.644761904761905	3.8305215419501133	74	127
3.8305215419501133	4.074308390022676	73	127
4.109160997732427	4.283310657596372	71	127
4.109160997732427	4.654829931972789	61	127
4.294897959183674	4.654829931972789	69	127
4.654829931972789	4.875419501133787	68	127
4.654829931972789	5.0495691609977325	57	127
4.875419501133787	5.0495691609977325	69	127
5.0495691609977325	5.4675283446712015	73	127
5.0495691609977325	5.4675283446712015	64	127
5.4675283446712015	5.746167800453515	71	127
5.850634920634921	6.0712471655328795	73	127
6.164126984126984	7.568934240362812	76	127
6.535646258503402	7.081315192743764	73	127
7.127755102040816	7.568934240362812	69	127
7.568934240362812	8.381632653061224	73	127
8.010113378684807	8.381632653061224	69	127
8.393219954648526	8.729931972789116	73	127
8.393219954648526	8.729931972789116	66	127
8.729931972789116	10.030249433106576	81	127
9.2059410430839	9.647120181405896	78	127
9.647120181405896	10.030249433106576	75	127
10.041836734693877	10.831337868480725	75	127
10.448208616780045	10.831337868480725	71	127
10.831337868480725	11.411836734693878	69	127
10.831337868480725	11.411836734693878	75	127
11.516326530612245	12.793424036281179	83	127
11.899455782312925	12.387074829931972	68	127
12.387074829931972	12.793424036281179	64	127
12.805034013605443	12.979183673469388	81	127
12.99079365079365	13.199773242630386	80	127
13.199773242630386	13.431972789115646	78	127
13.199773242630386	13.629342403628119	73	127
13.431972789115646	13.629342403628119	76	127
13.629342403628119	13.849931972789115	75	127
13.629342403628119	14.035691609977324	71	127
13.849931972789115	14.035691609977324	76	127
14.035691609977324	14.465260770975057	69	127
14.035691609977324	14.465260770975057	78	127
14.47687074829932	14.755510204081633	81	127
14.47687074829932	14.662630385487528	66	127
14.86	15.092199546485261	71	127
14.86	15.092199546485261	75	127
15.301179138321995	15.765578231292517	76	127
15.301179138321995	15.765578231292517	64	127
16.22997732426304	16.42734693877551	61	127
16.647936507936507	17.95986394557823	64	127
17.123945578231293	17.507074829931973	69	127
17.123945578231293	17.507074829931973	57	127
17.123945578231293	17.507074829931973	61	127
17.507074829931973	17.95986394557823	61	127
17.507074829931973	17.95986394557823	73	127
17.507074829931973	17.95986394557823	57	127
17.971473922902494	19.306621315192743	59	127
18.401043083900227	18.865442176870747	76	127
18.401043083900227	18.865442176870747	64	127
18.401043083900227	18.865442176870747	56	127
18.865442176870747	19.306621315192743	52	127
18.865442176870747	19.306621315192743	68	127
18.865442176870747	19.306621315192743	80	127
19.306621315192743	19.51560090702948	62	127
19.527210884353742	19.71297052154195	61	127
19.724580498866214	20.188979591836734	49	127
19.724580498866214	19.921950113378685	59	127
19.724580498866214	20.188979591836734	81	127
19.724580498866214	20.188979591836734	69	127
19.921950113378685	20.188979591836734	57	127
20.188979591836734	20.641768707482992	45	127
20.188979591836734	20.421179138321996	56	127
20.188979591836734	20.641768707482992	85	127
20.188979591836734	20.641768707482992	73	127
20.421179138321996	20.641768707482992	57	127
20.641768707482992	21.152607709750566	76	127
20.641768707482992	21.152607709750566	61	127
20.641768707482992	21.152607709750566	88	127
20.641768707482992	21.152607709750566	40	127
21.16421768707483	21.442857142857143	59	127
21.61700680272109	21.81437641723356	61	127
22.023356009070294	23.462993197278912	64	127
22.49936507936508	22.975374149659864	69	127
22.49936507936508	22.975374149659864	57	127
22.49936507936508	22.975374149659864	61	127
22.975374149659864	23.462993197278912	61	127
22.975374149659864	23.462993197278912	73	127
22.975374149659864	23.462993197278912	57	127
23.462993197278912	24.275691609977326	61	127
23.83451247165533	24.275691609977326	61	127
23.83451247165533	24.275691609977326	57	127
23.83451247165533	24.275691609977326	73	127
24.287301587301588	24.71687074829932	61	127
24.287301587301588	24.71687074829932	81	127
24.287301587301588	24.71687074829932	54	127
24.287301587301588	24.71687074829932	69	127
24.71687074829932	26.260997732426304	69	127
25.1	25.622448979591837	54	127
25.1	25.622448979591837	75	127
25.1	25.622448979591837	63	127
25.6340589569161	26.260997732426304	66	127
25.6340589569161	26.260997732426304	78	127
25.6340589569161	26.260997732426304	51	127
26.260997732426304	27.062086167800455	63	127
26.67895691609977	27.062086167800455	66	127
26.67895691609977	27.062086167800455	78	127
26.67895691609977	27.062086167800455	47	127
27.073696145124718	27.5497052154195	63	127
27.073696145124718	27.5497052154195	83	127
27.073696145124718	27.5497052154195	45	127
27.073696145124718	27.5497052154195	71	127
27.5497052154195	28.65265306122449	71	127
27.909614512471656	28.26952380952381	44	127
27.909614512471656	28.26952380952381	76	127
27.909614512471656	28.26952380952381	64	127
28.26952380952381	28.65265306122449	68	127
28.26952380952381	28.65265306122449	80	127
28.26952380952381	28.65265306122449	40	127
28.664263038548754	28.850022675736962	69	127
28.850022675736962	29.024172335600905	68	127
29.024172335600905	29.22154195011338	66	127
29.024172335600905	29.40730158730159	80	127
29.024172335600905	29.40730158730159	68	127
29.024172335600905	29.40730158730159	49	127
29.22154195011338	29.40730158730159	64	127
29.40730158730159	29.79043083900227	47	127
29.40730158730159	29.79043083900227	85	127
29.40730158730159	29.79043083900227	73	127
29.40730158730159	29.60467120181406	63	127
29.60467120181406	29.79043083900227	64	127
29.80204081632653	30.278049886621314	66	127
29.80204081632653	30.278049886621314	45	127
30.289659863945577	30.591519274376417	85	127
30.289659863945577	30.591519274376417	73	127
30.289659863945577	30.591519274376417	69	127
30.289659863945577	30.591519274376417	42	127
30.696009070294785	30.997868480725625	81	127
30.696009070294785	30.997868480725625	69	127
30.696009070294785	30.997868480725625	63	127
30.696009070294785	30.997868480725625	47	127
31.183628117913834	31.740907029478457	80	127
31.183628117913834	31.740907029478457	68	127
31.183628117913834	31.740907029478457	64	127
31.183628117913834	31.740907029478457	40	127
32.15884353741497	32.553605442176874	64	127
32.553605442176874	32.948344671201816	52	127
32.553605442176874	33.79587301587301	74	127
32.553605442176874	33.79587301587301	59	127
32.553605442176874	33.79587301587301	56	127
32.948344671201816	33.34308390022676	52	127
33.35469387755102	33.79587301587301	52	127
33.79587301587301	33.99324263038549	73	127
33.79587301587301	34.248662131519275	52	127
33.79587301587301	35.03814058956916	61	127
33.79587301587301	35.03814058956916	57	127
33.99324263038549	34.190589569161	76	127
34.248662131519275	34.60857142857143	52	127
34.248662131519275	34.37637188208617	74	127
34.43439909297052	34.562108843537416	73	127
34.62018140589569	34.77111111111111	71	127
34.62018140589569	35.03814058956916	52	127
34.829138321995465	34.968480725623586	69	127
35.03814058956916	35.444489795918365	59	127
35.03814058956916	35.18907029478458	68	127
35.03814058956916	35.444489795918365	62	127
35.03814058956916	35.444489795918365	52	127
35.2471201814059	35.398049886621315	64	127
35.444489795918365	35.64185941043084	68	127
35.68829931972789	35.827619047619045	71	127
35.885668934240364	36.01337868480726	76	127
36.07142857142857	36.21072562358277	78	127
36.22233560090703	36.36167800453515	80	127
36.4081179138322	36.547437641723356	76	127
36.58226757369614	36.709977324263036	80	127
36.75641723356009	36.89573696145125	81	127
36.9421768707483	37.081496598639454	83	127
37.13954648526077	37.267256235827666	85	127
37.32530612244898	38.521133786848075	71	127
37.32530612244898	38.521133786848075	68	127
37.32530612244898	37.72004535147392	64	127
37.32530612244898	38.521133786848075	86	127
37.72004535147392	38.14961451247166	64	127
38.14961451247166	38.521133786848075	64	127
38.53274376417234	39.77498866213152	69	127
38.53274376417234	38.71850340136054	85	127
38.53274376417234	38.904263038548756	64	127
38.53274376417234	39.77498866213152	73	127
38.71850340136054	38.8578231292517	88	127
38.904263038548756	39.04358276643991	86	127
38.904263038548756	39.35705215419501	64	127
39.15968253968254	39.31061224489796	85	127
39.35705215419501	39.496371882086166	83	127
39.35705215419501	39.77498866213152	64	127
39.54281179138322	39.716961451247165	81	127
39.78662131519275	40.18136054421769	74	127
39.78662131519275	39.91433106575964	80	127
39.78662131519275	40.18136054421769	71	127
39.78662131519275	40.18136054421769	64	127
39.97238095238095	40.13492063492063	78	127
40.18136054421769	40.33229024943311	76	127
40.37873015873016	40.52963718820862	75	127
40.57609977324263	40.69219954648526	76	127
40.73863945578231	40.866349206349206	78	127
40.9127664399093	41.04047619047619	80	127
41.09854875283447	41.2146485260771	81	127
41.27269841269841	41.41199546485261	82	127
41.45845804988662	41.59777777777778	83	127
41.64421768707483	41.80673469387755	84	127
41.853197278911566	41.98090702947846	85	127
42.02734693877551	42.189886621315196	86	127
42.02734693877551	42.48013605442177	53	127
42.24793650793651	42.433673469387756	83	127
42.49174603174603	42.64267573696145	80	127
42.49174603174603	42.89809523809524	71	127
42.49174603174603	42.89809523809524	68	127
42.70072562358277	42.85165532879819	74	127
42.89809523809524	43.29283446712018	71	127
42.89809523809524	43.06061224489796	86	127
42.89809523809524	43.29283446712018	74	127
43.107074829931975	43.24639455782313	86	127
43.29283446712018	43.47859410430839	85	127
43.29283446712018	43.79206349206349	54	127
43.52503401360544	43.73401360544218	81	127
43.80367346938775	44.27968253968254	61	127
43.80367346938775	43.954580498866214	78	127
43.80367346938775	44.27968253968254	69	127
44.01265306122449	44.21	73	127
44.27968253968254	44.419002267573696	85	127
44.27968253968254	44.60476190476191	73	127
44.27968253968254	44.60476190476191	69	127
44.44222222222222	44.55832199546485	85	127
44.60476190476191	44.744081632653064	85	127
44.60476190476191	44.98789115646259	56	127
44.802131519274376	44.94145124716553	80	127
44.98789115646259	45.09235827664399	76	127
44.98789115646259	45.34777777777778	64	127
44.98789115646259	45.34777777777778	61	127
45.15043083900227	45.30136054421769	73	127
45.359410430839006	45.49873015873016	85	127
45.359410430839006	45.64965986394558	73	127
45.359410430839006	45.64965986394558	64	127
45.521950113378686	45.63804988662132	85	127
45.64965986394558	45.986326530612246	57	127
45.64965986394558	45.75414965986395	85	127
45.77736961451247	45.939909297052154	79	127
45.986326530612246	46.35784580498866	64	127
45.986326530612246	46.125668934240366	76	127
45.986326530612246	46.35784580498866	61	127
46.18371882086168	46.31142857142857	73	127
46.369455782312926	46.740975056689344	73	127
46.369455782312926	46.508798185941046	85	127
46.369455782312926	46.740975056689344	64	127
46.56684807256236	46.69455782312925	85	127
46.740975056689344	46.8802947845805	80	127
46.740975056689344	47.124104308390024	56	127
46.92675736961451	47.06607709750567	76	127
47.124104308390024	47.57691609977324	64	127
47.124104308390024	47.27505668934241	73	127
47.124104308390024	47.57691609977324	61	127
47.35632653061224	47.53047619047619	68	127
47.588526077097505	47.96004535147392	64	127
47.588526077097505	47.72784580498866	68	127
47.588526077097505	47.96004535147392	68	127
47.77428571428572	47.91360544217687	68	127
47.971655328798185	48.354784580498865	44	127
47.971655328798185	48.1225850340136	68	127
48.1574149659864	48.29673469387755	63	127
48.354784580498865	48.52893424036281	60	127
48.354784580498865	48.77274376417233	56	127
48.354784580498865	48.77274376417233	54	127
48.58698412698413	48.72630385487528	56	127
48.784353741496595	49.179092970521545	56	127
48.784353741496595	48.92367346938776	56	127
48.784353741496595	49.179092970521545	54	127
48.97011337868481	49.121043083900226	56	127
49.179092970521545	49.6318820861678	37	127
49.179092970521545	50.56068027210885	61	127
49.179092970521545	50.56068027210885	56	127
49.179092970521545	50.56068027210885	52	127
49.6318820861678	50.13111111111111	37	127
50.14272108843537	50.56068027210885	37	127
50.57229024943311	51.82616780045351	64	127
50.57229024943311	51.00185941043084	37	127
50.57229024943311	51.82616780045351	61	127
50.57229024943311	51.82616780045351	56	127
51.0134693877551	51.39659863945578	37	127
51.39659863945578	51.82616780045351	37	127
51.82616780045351	53.89274376417234	60	127
51.82616780045351	52.406666666666666	57	127
51.82616780045351	52.66208616780045	63	127
51.82616780045351	52.22090702947846	37	127
52.22090702947846	52.66208616780045	37	127
52.42988662131519	52.66208616780045	56	127
52.66208616780045	53.06843537414966	37	127
52.66208616780045	52.76657596371882	64	127
52.66208616780045	52.88267573696145	57	127
52.76657596371882	52.88267573696145	63	127
52.88267573696145	53.06843537414966	56	127
52.88267573696145	52.97555555555556	61	127
52.97555555555556	53.06843537414966	63	127
53.06843537414966	53.45156462585034	54	127
53.06843537414966	53.45156462585034	37	127
53.06843537414966	53.89274376417234	68	127
53.4631746031746	53.89274376417234	37	127
53.4631746031746	53.89274376417234	54	127
53.9043537414966	54.32231292517007	60	127
53.9043537414966	54.32231292517007	54	127
53.9043537414966	54.10172335600907	57	127
53.9043537414966	54.32231292517007	37	127
54.10172335600907	54.32231292517007	56	127
54.33392290249433	55.69229024943311	52	127
54.33392290249433	54.78671201814059	61	127
54.33392290249433	54.78671201814059	37	127
54.33392290249433	55.69229024943311	56	127
54.78671201814059	55.239501133786845	37	127
54.78671201814059	54.89120181405896	63	127
54.89120181405896	55.00730158730159	61	127
55.00730158730159	55.239501133786845	60	127
55.239501133786845	55.47170068027211	61	127
55.239501133786845	55.69229024943311	37	127
55.48331065759637	55.69229024943311	63	127
55.69229024943311	55.98253968253968	64	127
55.69229024943311	55.98253968253968	52	127
55.69229024943311	55.98253968253968	49	127
56.23795918367347	56.58625850340136	64	127
56.23795918367347	56.58625850340136	52	127
56.23795918367347	56.58625850340136	49	127
56.772018140589566	57.108707482993196	64	127
56.772018140589566	57.108707482993196	52	127
56.772018140589566	57.108707482993196	49	127
59.21011337868481	59.36104308390023	73	127
59.69773242630386	60.94	76	127
60.10408163265306	60.545260770975055	73	127
60.55687074829932	60.94	69	127
60.94	62.12421768707483	71	127
61.33473922902494	61.71786848072562	68	127
61.72947845804989	62.12421768707483	64	127
62.12421768707483	62.33319727891156	74	127
62.33319727891156	62.62344671201814	73	127
62.62344671201814	62.844036281179136	71	127
62.62344671201814	63.04140589569161	61	127
62.844036281179136	63.04140589569161	69	127
63.04140589569161	63.43614512471655	57	127
63.04140589569161	63.25038548752835	68	127
63.26199546485261	63.43614512471655	69	127
63.447755102040816	63.84249433106576	73	127
63.447755102040816	63.84249433106576	64	127
63.84249433106576	64.12113378684808	71	127
64.21401360544218	64.57392290249433	73	127
64.6784126984127	65.95551020408163	76	127
65.15442176870748	65.54916099773243	73	127
65.54916099773243	65.95551020408163	69	127
66.08321995464853	66.89591836734694	73	127
66.4779365079365	66.89591836734694	69	127
66.89591836734694	67.25582766439909	66	127
66.89591836734694	67.25582766439909	73	127
67.25582766439909	68.6025850340136	81	127
67.90598639455783	68.25428571428571	78	127
68.25428571428571	68.6025850340136	75	127
68.6025850340136	69.38045351473923	75	127
68.99732426303855	69.38045351473923	71	127
69.38045351473923	69.96095238095238	75	127
69.38045351473923	69.96095238095238	69	127
69.96095238095238	71.22643990929706	83	127
70.40213151927438	70.79687074829933	67	127
70.79687074829933	71.22643990929706	64	127
71.22643990929706	71.4121768707483	81	127
71.4121768707483	71.63278911564626	79	127
71.63278911564626	71.81854875283447	78	127
71.63278911564626	72.01591836734694	71	127
71.83015873015873	72.01591836734694	76	127
72.0275283446712	72.23650793650793	79	127
72.0275283446712	72.43385487528344	67	127
72.23650793650793	72.43385487528344	76	127
72.43385487528344	72.84022675736962	74	127
72.84022675736962	73.26979591836735	69	127
72.84022675736962	72.94469387755102	76	127
72.94469387755102	73.09564625850341	74	127
73.09564625850341	73.1885260770975	73	127
73.1885260770975	73.2814058956916	74	127
73.2814058956916	73.74580498866213	57	127
73.2814058956916	73.46716553287982	78	127
73.2814058956916	73.74580498866213	57	127
73.47877551020409	73.74580498866213	76	127
73.74580498866213	74.27986394557823	74	127
73.74580498866213	74.27986394557823	62	127
73.74580498866213	75.16222222222223	69	127
74.27986394557823	74.7326530612245	54	127
74.74426303854875	75.16222222222223	50	127
75.16222222222223	76.520589569161	64	127
75.638231292517	76.079410430839	49	127
76.079410430839	76.520589569161	61	127
76.079410430839	76.520589569161	45	127
76.53219954648526	76.71795918367347	67	127
76.53219954648526	77.72802721088435	69	127
76.71795918367347	76.91532879818594	66	127
76.91532879818594	77.28684807256236	38	127
76.91532879818594	77.08947845804988	64	127
77.08947845804988	77.28684807256236	62	127
77.28684807256236	77.72802721088435	42	127
77.28684807256236	77.50743764172336	61	127
77.51904761904763	77.72802721088435	62	127
77.73963718820862	77.96022675736961	62	127
77.73963718820862	78.95868480725623	64	127
77.97183673469388	78.18081632653062	61	127
78.18081632653062	78.61038548752835	45	127
78.18081632653062	78.41301587301588	59	127
78.41301587301588	78.61038548752835	57	127
78.61038548752835	78.79614512471656	59	127
78.61038548752835	78.95868480725623	69	127
78.61038548752835	78.95868480725623	55	127
78.79614512471656	78.95868480725623	61	127
78.9702947845805	80.1312925170068	81	127
78.9702947845805	79.15603174603174	67	127
78.9702947845805	79.37664399092971	62	127
79.16766439909297	79.37664399092971	66	127
79.37664399092971	79.74816326530612	69	127
79.37664399092971	79.74816326530612	54	127
79.37664399092971	79.55079365079365	64	127
79.55079365079365	79.74816326530612	62	127
79.74816326530612	79.93392290249433	61	127
79.74816326530612	80.1312925170068	45	127
79.93392290249433	80.1312925170068	62	127
80.1312925170068	81.28068027210884	76	127
80.1312925170068	80.31705215419501	62	127
80.1312925170068	80.50281179138322	57	127
80.32866213151928	80.50281179138322	61	127
80.51442176870748	80.89755102040816	64	127
80.51442176870748	80.71179138321996	59	127
80.51442176870748	80.89755102040816	49	127
80.71179138321996	80.89755102040816	57	127
80.89755102040816	81.08331065759637	56	127
80.89755102040816	81.28068027210884	45	127
81.08331065759637	81.28068027210884	57	127
81.28068027210884	82.55777777777777	69	127
81.28068027210884	81.47804988662132	79	127
81.28068027210884	81.66380952380952	57	127
81.47804988662132	81.66380952380952	78	127
81.67541950113379	82.15142857142857	66	127
81.67541950113379	81.93083900226758	76	127
81.67541950113379	82.15142857142857	50	127
81.94242630385487	82.15142857142857	74	127
82.15142857142857	82.33718820861678	73	127
82.15142857142857	82.55777777777777	45	127
82.33718820861678	82.55777777777777	74	127
82.55777777777777	82.96410430839002	78	127
82.55777777777777	82.96410430839002	57	127
82.55777777777777	82.76675736961451	61	127
82.76675736961451	82.96410430839002	69	127
82.97573696145125	83.14988662131519	73	127
82.97573696145125	83.25437641723356	76	127
82.97573696145125	83.40530612244898	67	127
82.97573696145125	83.40530612244898	57	127
83.16149659863946	83.40530612244898	69	127
83.40530612244898	83.59106575963719	69	127
83.40530612244898	83.59106575963719	76	127
83.40530612244898	83.7768253968254	55	127
83.59106575963719	83.7768253968254	73	127
83.7768253968254	84.14834467120181	66	127
83.7768253968254	84.14834467120181	74	127
83.7768253968254	84.90299319727892	81	127
84.14834467120181	84.51986394557824	62	127
84.14834467120181	84.51986394557824	54	127
84.53147392290249	84.90299319727892	50	127
84.53147392290249	85.70408163265306	69	127
84.90299319727892	85.2861224489796	57	127
84.90299319727892	85.70408163265306	78	127
85.2861224489796	85.70408163265306	62	127
85.2861224489796	85.70408163265306	49	127
85.71569160997733	86.24975056689343	78	127
85.71569160997733	86.24975056689343	50	127
85.71569160997733	87.02759637188208	66	127
86.24975056689343	87.46879818594104	86	127
86.24975056689343	86.6328798185941	59	127
86.6328798185941	87.02759637188208	62	127
86.6328798185941	87.02759637188208	46	127
87.03922902494331	87.46879818594104	47	127
87.03922902494331	87.89834467120181	74	127
87.46879818594104	87.89834467120181	59	127
87.46879818594104	88.32793650793651	80	127
87.89834467120181	88.32793650793651	68	127
87.89834467120181	88.32793650793651	64	127
87.89834467120181	88.32793650793651	52	127
88.32793650793651	88.74589569160997	50	127
88.32793650793651	88.74589569160997	80	127
88.32793650793651	89.45410430839003	76	127
88.75750566893424	89.86045351473923	88	127
88.75750566893424	89.0825850340136	61	127
89.0825850340136	89.45410430839003	57	127
89.0825850340136	89.45410430839003	48	127
89.45410430839003	90.74281179138322	69	127
89.45410430839003	89.86045351473923	49	127
89.87206349206349	90.069410430839	86	127
89.87206349206349	90.26680272108844	61	127
90.08104308390023	90.26680272108844	85	127
90.26680272108844	90.45253968253968	83	127
90.26680272108844	90.74281179138322	66	127
90.26680272108844	90.74281179138322	54	127
90.45253968253968	90.74281179138322	81	127
90.74281179138322	91.11433106575964	73	127
90.74281179138322	90.92857142857143	80	127
90.74281179138322	91.11433106575964	52	127
90.74281179138322	91.5671201814059	66	127
90.92857142857143	91.11433106575964	81	127
91.1259410430839	91.5671201814059	83	127
91.1259410430839	91.5671201814059	78	127
91.1259410430839	91.5671201814059	50	127
91.5671201814059	91.95024943310658	62	127
91.5671201814059	91.95024943310658	86	127
91.5671201814059	91.95024943310658	74	127
91.5671201814059	91.95024943310658	47	127
92.0663492063492	92.36820861678005	52	127
92.0663492063492	92.36820861678005	59	127
92.0663492063492	92.36820861678005	74	127
92.0663492063492	92.36820861678005	80	127
92.46108843537415	93.14607709750567	81	127
92.46108843537415	93.14607709750567	73	127
92.46108843537415	93.14607709750567	57	127
92.46108843537415	93.14607709750567	45	127
93.58725623582767	93.99360544217687	64	127
93.99360544217687	95.14299319727891	71	127
93.99360544217687	95.14299319727891	68	127
93.99360544217687	95.14299319727891	64	127
93.99360544217687	95.14299319727891	62	127
95.14299319727891	96.8148299319728	69	127
95.14299319727891	96.8148299319728	73	127
95.14299319727891	96.8148299319728	64	127
95.14299319727891	96.8148299319728	61	127
96.8148299319728	96.94253968253969	76	127
96.8148299319728	97.12829931972789	68	127
96.8148299319728	97.12829931972789	64	127
96.8148299319728	97.12829931972789	59	127
96.94253968253969	97.05863945578231	74	127
97.05863945578231	97.20956916099773	73	127
97.25600907029478	97.39532879818594	74	127
97.25600907029478	97.51142857142857	71	127
97.25600907029478	97.51142857142857	64	127
97.25600907029478	97.51142857142857	56	127
97.45337868480726	97.58108843537416	71	127
97.63913832199546	97.91777777777777	64	127
97.63913832199546	97.80167800453515	76	127
97.63913832199546	97.91777777777777	68	127
97.63913832199546	97.91777777777777	52	127
97.8481179138322	97.99904761904762	74	127
98.04548752834467	98.66081632653061	73	127
98.04548752834467	98.66081632653061	64	127
98.04548752834467	98.66081632653061	64	127
98.04548752834467	98.66081632653061	57	127
98.96267573696146	99.2297052154195	81	127
99.74054421768707	100.98281179138321	83	127
99.74054421768707	100.98281179138321	64	127
99.74054421768707	100.98281179138321	71	127
99.74054421768707	100.98281179138321	56	127
99.74054421768707	100.98281179138321	50	127
100.98281179138321	102.38761904761905	57	127
100.98281179138321	102.38761904761905	85	127
100.98281179138321	102.38761904761905	64	127
100.98281179138321	102.38761904761905	73	127
100.98281179138321	102.38761904761905	49	127
102.38761904761905	102.94489795918368	57	127
102.38761904761905	103.17709750566894	88	127
102.38761904761905	103.17709750566894	66	127
102.38761904761905	103.45573696145125	47	127
102.97972789115646	103.29319727891156	69	127
103.17709750566894	103.33963718820861	74	127
103.17709750566894	103.33963718820861	86	127
103.45573696145125	103.60666666666667	85	127
103.45573696145125	103.60666666666667	74	127
103.45573696145125	103.76920634920634	68	127
103.45573696145125	103.87369614512471	52	127
103.66471655328799	103.8156462585034	83	127
103.66471655328799	103.8156462585034	74	127
103.87369614512471	104.65156462585034	45	127
103.87369614512471	104.65156462585034	81	127
103.87369614512471	104.65156462585034	73	127
103.87369614512471	104.65156462585034	69	127
105.08113378684807	105.5455328798186	64	127
105.5455328798186	106.90390022675737	74	127
105.5455328798186	106.90390022675737	59	127
105.5455328798186	106.90390022675737	56	127
105.5455328798186	106.02154195011337	52	127
106.02154195011337	106.3930612244898	52	127
106.40467120181405	106.90390022675737	52	127
106.90390022675737	108.03006802721089	57	127
106.90390022675737	107.08965986394558	73	127
106.90390022675737	107.28702947845805	52	127
106.90390022675737	108.03006802721089	61	127
107.08965986394558	107.240589569161	76	127
107.28702947845805	107.68176870748299	52	127
107.28702947845805	107.4263492063492	74	127
107.49600907029479	107.63532879818594	73	127
107.69337868480726	107.80947845804988	71	127
107.69337868480726	108.03006802721089	52	127
107.85591836734694	107.98362811791384	69	127
108.05328798185941	108.45963718820862	59	127
108.05328798185941	108.45963718820862	52	127
108.05328798185941	108.20421768707483	68	127
108.05328798185941	108.45963718820862	62	127
108.23904761904762	108.41319727891157	64	127
108.45963718820862	108.6221768707483	68	127
108.66861678004535	108.8079365079365	71	127
108.85437641723357	109.00530612244899	76	127
109.06335600907029	109.19106575963718	78	127
109.2491156462585	109.38843537414967	80	127
109.43487528344671	109.58580498866213	76	127
109.64385487528345	109.79478458049887	80	127
109.84122448979592	109.98054421768707	81	127
110.02698412698413	110.21274376417233	83	127
110.2591836734694	110.41011337868481	85	127
110.46816326530612	110.83968253968254	64	127
110.46816326530612	111.62916099773243	86	127
110.46816326530612	111.62916099773243	71	127
110.46816326530612	111.62916099773243	68	127
110.83968253968254	111.22281179138322	64	127
111.22281179138322	111.62916099773243	64	127
111.64077097505668	112.87142857142857	69	127
111.64077097505668	111.81492063492064	85	127
111.64077097505668	112.00068027210884	64	127
111.64077097505668	112.87142857142857	73	127
111.8265306122449	111.95424036281179	88	127
112.01229024943311	112.39541950113379	64	127
112.01229024943311	112.15160997732427	86	127
112.19804988662132	112.360589569161	85	127
112.39541950113379	112.53473922902495	83	127
112.39541950113379	112.87142857142857	64	127
112.581179138322	112.82498866213152	81	127
112.87142857142857	113.31260770975057	71	127
112.87142857142857	113.31260770975057	64	127
112.87142857142857	113.02235827664398	80	127
112.87142857142857	113.31260770975057	74	127
113.0804081632653	113.24294784580499	78	127
113.32421768707484	113.48675736961451	76	127
113.54480725623583	113.68412698412699	75	127
113.73056689342404	113.84666666666666	76	127
113.89310657596371	114.0208163265306	78	127
114.06725623582767	114.20657596371882	80	127
114.25301587301587	114.39233560090703	81	127
114.45038548752835	114.57809523809524	82	127
114.63614512471655	114.78707482993197	83	127
114.83351473922903	114.98444444444445	84	127
115.0308843537415	115.17020408163265	85	127
115.21664399092971	115.35596371882086	86	127
115.21664399092971	115.63460317460317	53	127
115.40240362811791	115.58816326530612	83	127
115.64621315192744	115.82036281179138	80	127
115.64621315192744	116.0990022675737	68	127
115.64621315192744	116.0990022675737	71	127
115.8784126984127	116.05256235827665	74	127
116.11061224489796	116.27315192743764	86	127
116.11061224489796	116.5053514739229	74	127
116.11061224489796	116.5053514739229	71	127
116.31959183673469	116.45891156462585	86	127
116.5053514739229	116.90009070294785	54	127
116.5053514739229	116.66789115646259	85	127
116.71433106575964	116.8536507936508	81	127
116.90009070294785	117.02780045351474	78	127
116.90009070294785	117.26	69	127
116.90009070294785	117.26	61	127
117.08585034013605	117.21356009070294	73	127
117.27160997732426	117.43414965986395	85	127
117.27160997732426	117.67795918367347	73	127
117.27160997732426	117.67795918367347	69	127
117.49219954648527	117.63151927437642	85	127
117.67795918367347	118.03786848072562	56	127
117.67795918367347	117.81727891156463	85	127
117.86371882086168	117.99142857142857	80	127
118.03786848072562	118.43260770975057	64	127
118.03786848072562	118.17718820861678	76	127
118.03786848072562	118.43260770975057	61	127
118.22362811791383	118.38616780045352	73	127
118.44421768707483	118.81573696145125	73	127
118.44421768707483	118.57192743764172	85	127
118.44421768707483	118.81573696145125	64	127
118.62997732426304	118.7692970521542	85	127
118.81573696145125	119.01310657596372	85	127
118.81573696145125	119.24530612244898	57	127
119.05954648526077	119.19886621315193	79	127
119.24530612244898	119.67487528344671	61	127
119.24530612244898	119.43106575963719	76	127
119.24530612244898	119.67487528344671	64	127
119.47750566893424	119.62843537414966	73	127
119.68648526077098	119.81419501133787	85	127
119.68648526077098	120.04639455782313	73	127
119.68648526077098	120.04639455782313	64	127
119.87224489795918	119.99995464852607	85	127
120.05800453514739	120.20893424036281	80	127
120.05800453514739	120.45274376417234	56	127
120.25537414965986	120.39469387755102	76	127
120.45274376417234	120.59206349206349	73	127
120.45274376417234	120.8126530612245	64	127
120.45274376417234	120.8126530612245	61	127
120.62689342403628	120.76621315192743	68	127
120.8126530612245	120.95197278911564	68	127
120.8126530612245	121.1841723356009	68	127
120.8126530612245	121.1841723356009	64	127
121.01002267573696	121.14934240362811	68	127
121.19578231292518	121.63696145124716	44	127
121.19578231292518	121.3467120181406	68	127
121.39315192743764	121.57891156462586	63	127
121.64857142857143	122.05492063492063	56	127
121.64857142857143	121.79950113378685	60	127
121.64857142857143	122.05492063492063	54	127
121.85755102040817	121.99687074829932	56	127
122.05492063492063	122.58897959183673	56	127
122.05492063492063	122.22907029478458	56	127
122.05492063492063	122.58897959183673	54	127
122.29873015873015	122.53092970521541	56	127
122.58897959183673	123.12303854875283	37	127
122.58897959183673	123.94734693877551	61	127
122.58897959183673	123.94734693877551	56	127
122.58897959183673	123.94734693877551	52	127
123.12303854875283	123.55260770975056	37	127
123.56421768707483	123.94734693877551	37	127
123.95895691609978	124.35369614512472	37	127
123.95895691609978	125.1780045351474	64	127
123.95895691609978	125.1780045351474	61	127
123.95895691609978	125.1780045351474	56	127
124.37691609977324	124.78326530612244	37	127
124.78326530612244	125.1780045351474	37	127
125.1780045351474	126.00231292517007	63	127
125.1780045351474	125.6191836734694	37	127
125.1780045351474	125.78172335600907	57	127
125.1780045351474	127.25619047619048	60	127
125.6191836734694	126.00231292517007	37	127
125.79333333333334	126.00231292517007	56	127
126.00231292517007	126.24612244897959	57	127
126.00231292517007	126.4318820861678	37	127
126.00231292517007	126.1184126984127	64	127
126.1184126984127	126.24612244897959	63	127
126.24612244897959	126.4318820861678	56	127
126.24612244897959	126.33900226757369	61	127
126.33900226757369	126.4318820861678	63	127
126.4318820861678	126.83823129251701	54	127
126.4318820861678	126.83823129251701	37	127
126.4318820861678	127.25619047619048	68	127
126.84984126984126	127.25619047619048	37	127
126.84984126984126	127.25619047619048	54	127
127.26780045351474	127.5	57	127
127.26780045351474	127.72058956916099	60	127
127.26780045351474	127.72058956916099	54	127
127.26780045351474	127.72058956916099	37	127
127.5	127.72058956916099	56	127
127.73219954648526	129.1137641723356	56	127
127.73219954648526	128.13854875283448	37	127
127.73219954648526	128.13854875283448	61	127
127.73219954648526	129.1137641723356	52	127
128.13854875283448	128.61455782312925	37	127
128.13854875283448	128.23142857142858	63	127
128.23142857142858	128.33591836734695	61	127
128.33591836734695	128.61455782312925	60	127
128.61455782312925	128.85834467120182	61	127
128.61455782312925	129.1137641723356	37	127
128.86997732426303	129.1137641723356	63	127
129.1137641723356	129.4504761904762	64	127
129.1137641723356	129.4504761904762	52	127
129.1137641723356	129.4504761904762	49	127
129.57818594104307	129.8568253968254	64	127
129.57818594104307	129.8568253968254	52	127
129.57818594104307	129.8568253968254	49	127
130.03095238095239	130.30961451247165	64	127
130.03095238095239	130.30961451247165	52	127
130.03095238095239	130.30961451247165	49	127
132.65482993197278	132.8057596371882	73	127
133.1192290249433	134.37310657596373	76	127
133.5952380952381	133.97836734693877	73	127
133.98997732426304	134.37310657596373	69	127
134.37310657596373	135.60374149659864	71	127
134.7562358276644	135.1393650793651	68	127
135.15097505668933	135.60374149659864	64	127
135.60374149659864	135.80113378684808	74	127
135.80113378684808	136.03333333333333	73	127
136.03333333333333	136.2190702947846	71	127
136.03333333333333	136.43968253968254	61	127
136.2190702947846	136.43968253968254	69	127
136.43968253968254	136.86925170068028	57	127
136.43968253968254	136.6718820861678	68	127
136.68349206349205	136.86925170068028	69	127
136.88083900226758	137.25238095238095	73	127
136.88083900226758	137.25238095238095	64	127
137.25238095238095	137.53102040816327	71	127
137.62390022675737	137.91414965986394	73	127
138.03024943310658	139.48149659863947	76	127
138.57591836734693	138.9938775510204	73	127
138.9938775510204	139.48149659863947	69	127
139.51632653061225	140.3174149659864	73	127
139.89943310657597	140.3174149659864	69	127
140.3174149659864	140.70054421768708	73	127
140.3174149659864	140.70054421768708	66	127
140.70054421768708	141.90798185941043	81	127
141.19977324263039	141.55968253968254	78	127
141.55968253968254	141.90798185941043	75	127
141.90798185941043	142.69746031746033	75	127
142.30269841269842	142.69746031746033	71	127
142.69746031746033	143.31278911564627	75	127
142.69746031746033	143.31278911564627	69	127
143.31278911564627	144.62471655328798	83	127
143.8932879818594	144.22997732426305	67	127
144.24156462585034	144.62471655328798	64	127
144.62471655328798	144.81047619047618	81	127
144.81047619047618	145.06589569160997	79	127
145.06589569160997	145.24004535147392	78	127
145.06589569160997	145.44902494331066	71	127
145.2516553287982	145.44902494331066	76	127
145.46063492063493	145.70444444444445	79	127
145.46063492063493	145.92503401360545	67	127
145.70444444444445	145.92503401360545	76	127
145.92503401360545	146.33138321995466	74	127
146.33138321995466	146.4707029478458	76	127
146.33138321995466	146.79578231292518	69	127
146.4707029478458	146.5635827664399	74	127
146.5635827664399	146.66807256235828	73	127
146.66807256235828	146.8190022675737	74	127
146.8190022675737	146.99315192743765	78	127
146.8190022675737	147.19052154195012	57	127
146.8190022675737	147.19052154195012	57	127
147.00473922902495	147.19052154195012	76	127
147.19052154195012	147.71297052154196	62	127
147.19052154195012	147.71297052154196	74	127
147.19052154195012	148.5140589569161	69	127
147.71297052154196	148.13090702947846	54	127
148.14253968253968	148.5140589569161	50	127
148.52566893424037	149.8027664399093	64	127
148.97845804988663	149.3964172335601	49	127
149.3964172335601	149.8027664399093	61	127
149.3964172335601	149.8027664399093	45	127
149.8143537414966	151.0450113378685	69	127
149.8143537414966	150.02333333333334	67	127
150.02333333333334	150.22072562358278	66	127
150.22072562358278	150.60385487528345	38	127
150.22072562358278	150.42968253968255	64	127
150.42968253968255	150.60385487528345	62	127
150.60385487528345	150.8012244897959	61	127
150.60385487528345	151.0450113378685	42	127
150.8012244897959	151.0450113378685	62	127
151.0566439909297	152.29891156462585	64	127
151.0566439909297	151.30043083900227	62	127
151.3120634920635	151.48621315192744	61	127
151.48621315192744	151.70678004535148	59	127
151.48621315192744	151.91578231292516	45	127
151.70678004535148	151.91578231292516	57	127
151.91578231292516	152.29891156462585	55	127
151.91578231292516	152.1015419501134	59	127
151.91578231292516	152.29891156462585	69	127
152.1015419501134	152.29891156462585	61	127
152.32210884353742	153.541179138322	81	127
152.32210884353742	152.5311111111111	67	127
152.32210884353742	152.72845804988663	62	127
152.54272108843537	152.72845804988663	66	127
152.74009070294784	152.92585034013607	64	127
152.74009070294784	153.16965986394558	69	127
152.74009070294784	153.16965986394558	54	127
152.92585034013607	153.16965986394558	62	127
153.16965986394558	153.35541950113378	61	127
153.16965986394558	153.541179138322	45	127
153.35541950113378	153.541179138322	62	127
153.541179138322	154.74861678004535	76	127
153.541179138322	153.7269387755102	62	127
153.541179138322	153.9126984126984	57	127
153.73854875283448	153.9126984126984	61	127
153.92430839002267	154.19133786848073	59	127
153.92430839002267	154.37709750566893	64	127
153.92430839002267	154.37709750566893	49	127
154.19133786848073	154.37709750566893	57	127
154.37709750566893	154.74861678004535	45	127
154.37709750566893	154.5744671201814	56	127
154.5744671201814	154.74861678004535	57	127
154.74861678004535	154.94598639455782	79	127
154.74861678004535	155.1433560090703	57	127
154.74861678004535	155.9560544217687	69	127
154.94598639455782	155.1433560090703	78	127
155.15496598639456	155.34072562358276	76	127
155.15496598639456	155.5497052154195	66	127
155.15496598639456	155.5497052154195	50	127
155.35233560090703	155.5497052154195	74	127
155.5497052154195	155.7702947845805	73	127
155.5497052154195	155.9560544217687	45	127
155.7702947845805	155.9560544217687	74	127
155.9560544217687	156.32757369614512	57	127
155.9560544217687	156.14181405895692	61	127
155.9560544217687	156.32757369614512	78	127
156.14181405895692	156.32757369614512	69	127
156.3391836734694	156.51331065759638	73	127
156.3391836734694	156.64104308390023	76	127
156.3391836734694	156.76873015873016	67	127
156.3391836734694	156.76873015873016	57	127
156.5249433106576	156.76873015873016	69	127
156.79197278911565	157.00095238095238	69	127
156.79197278911565	157.00095238095238	76	127
156.79197278911565	157.19832199546485	55	127
157.00095238095238	157.19832199546485	73	127
157.19832199546485	158.32448979591837	81	127
157.19832199546485	157.58145124716555	74	127
157.19832199546485	157.58145124716555	66	127
157.58145124716555	157.94133786848073	54	127
157.58145124716555	157.94133786848073	62	127
157.95297052154194	158.32448979591837	50	127
157.95297052154194	159.13718820861678	69	127
158.32448979591837	159.13718820861678	78	127
158.32448979591837	158.6960090702948	57	127
158.6960090702948	159.13718820861678	49	127
158.6960090702948	159.13718820861678	62	127
159.14879818594105	159.6828344671202	50	127
159.14879818594105	159.6828344671202	78	127
159.14879818594105	160.47233560090703	66	127
159.6828344671202	160.86707482993197	86	127
159.6828344671202	160.06598639455783	59	127
160.06598639455783	160.47233560090703	46	127
160.06598639455783	160.47233560090703	62	127
160.4839455782313	160.86707482993197	47	127
160.4839455782313	161.28503401360544	74	127
160.87868480725623	161.28503401360544	59	127
160.87868480725623	161.72619047619048	80	127
161.28503401360544	161.72619047619048	52	127
161.28503401360544	161.72619047619048	68	127
161.28503401360544	161.72619047619048	64	127
161.72619047619048	162.88721088435375	76	127
161.72619047619048	162.13256235827666	80	127
161.72619047619048	162.13256235827666	50	127
162.1441723356009	163.28195011337868	88	127
162.1441723356009	162.51569160997732	61	127
162.51569160997732	162.88721088435375	57	127
162.51569160997732	162.88721088435375	48	127
162.88721088435375	164.07142857142858	69	127
162.88721088435375	163.28195011337868	49	127
163.29356009070295	163.45609977324264	86	127
163.29356009070295	163.64185941043084	61	127
163.46768707482994	163.64185941043084	85	127
163.64185941043084	164.07142857142858	66	127
163.64185941043084	163.82761904761904	83	127
163.64185941043084	164.07142857142858	54	127
163.82761904761904	164.07142857142858	81	127
164.07142857142858	164.25718820861678	80	127
164.07142857142858	164.884126984127	66	127
164.07142857142858	164.45455782312925	73	127
164.07142857142858	164.45455782312925	52	127
164.25718820861678	164.45455782312925	81	127
164.46616780045352	164.884126984127	78	127
164.46616780045352	164.884126984127	83	127
164.46616780045352	164.884126984127	50	127
164.8957142857143	165.18598639455783	86	127
164.8957142857143	165.18598639455783	74	127
164.8957142857143	165.18598639455783	62	127
164.8957142857143	165.18598639455783	47	127
165.33691609977325	165.75487528344672	59	127
165.33691609977325	165.75487528344672	80	127
165.33691609977325	165.75487528344672	74	127
165.33691609977325	165.75487528344672	52	127
165.8593650793651	166.52113378684808	81	127
165.8593650793651	166.52113378684808	73	127
165.8593650793651	166.52113378684808	57	127
165.8593650793651	166.52113378684808	45	127
166.9274829931973	167.3338321995465	64	127
167.3338321995465	168.54126984126984	71	127
167.3338321995465	168.54126984126984	68	127
167.3338321995465	168.54126984126984	64	127
167.3338321995465	168.54126984126984	62	127
168.54126984126984	170.1085941043084	73	127
168.54126984126984	170.1085941043084	69	127
168.54126984126984	170.1085941043084	64	127
168.54126984126984	170.1085941043084	61	127
170.1202267573696	170.42208616780044	64	127
170.1202267573696	170.22471655328798	76	127
170.1202267573696	170.42208616780044	68	127
170.1202267573696	170.42208616780044	59	127
170.22471655328798	170.34081632653061	74	127
170.34081632653061	170.5033560090703	73	127
170.5962358276644	170.73555555555555	74	127
170.5962358276644	170.8516553287982	71	127
170.5962358276644	170.8516553287982	64	127
170.5962358276644	170.8516553287982	56	127
170.7819954648526	170.93292517006802	71	127
170.99097505668934	171.1651247165533	76	127
170.99097505668934	171.28122448979593	68	127
170.99097505668934	171.28122448979593	64	127
170.99097505668934	171.28122448979593	52	127
171.2231746031746	171.36249433106576	74	127
171.4089342403628	171.93138321995465	73	127
171.4089342403628	171.93138321995465	64	127
171.4089342403628	171.93138321995465	64	127
171.4089342403628	171.93138321995465	57	127
172.0707029478458	172.33773242630386	81	127
172.84857142857143	174.53201814058957	83	127
172.84857142857143	174.53201814058957	64	127
172.84857142857143	174.53201814058957	71	127
172.84857142857143	174.53201814058957	56	127
172.84857142857143	174.53201814058957	50	127
174.53201814058957	175.94843537414965	64	127
174.53201814058957	175.94843537414965	73	127
174.53201814058957	175.94843537414965	57	127
174.53201814058957	175.94843537414965	85	127
174.53201814058957	175.94843537414965	49	127
175.96004535147392	176.8772335600907	47	127
175.96004535147392	176.447641723356	57	127
175.96004535147392	176.67986394557823	88	127
175.96004535147392	176.67986394557823	66	127
176.447641723356	176.77274376417233	69	127
176.67986394557823	176.81918367346938	86	127
176.67986394557823	176.81918367346938	74	127
176.88884353741497	177.0397732426304	74	127
176.88884353741497	177.2255328798186	68	127
176.88884353741497	177.0397732426304	85	127
176.88884353741497	177.34163265306123	52	127
177.10943310657598	177.2835827664399	83	127
177.10943310657598	177.2835827664399	74	127
177.3532426303855	178.43297052154196	81	127
177.3532426303855	178.43297052154196	73	127
177.3532426303855	178.43297052154196	69	127
177.3532426303855	178.43297052154196	45	127
178.83931972789117	179.3965986394558	64	127
178.83931972789117	179.3965986394558	52	127
179.40820861678006	180.3950566893424	73	127
179.40820861678006	179.94226757369614	61	127
179.40820861678006	179.94226757369614	49	127
179.40820861678006	180.3950566893424	76	127
179.40820861678006	180.3950566893424	45	127
179.94226757369614	180.3950566893424	52	127
179.94226757369614	180.3950566893424	64	127
180.3950566893424	180.90589569160997	73	127
180.3950566893424	180.90589569160997	76	127
180.3950566893424	180.90589569160997	69	127
180.3950566893424	180.90589569160997	57	127
180.3950566893424	180.90589569160997	40	127
180.91750566893424	181.34707482993198	69	127
180.91750566893424	181.34707482993198	57	127
180.91750566893424	181.7766439909297	74	127
180.91750566893424	181.7766439909297	76	127
180.91750566893424	181.7766439909297	47	127
181.34707482993198	181.7766439909297	68	127
181.34707482993198	181.7766439909297	56	127
181.7766439909297	182.3107029478458	69	127
181.7766439909297	182.3107029478458	76	127
181.7766439909297	182.3107029478458	74	127
181.7766439909297	182.3107029478458	57	127
181.7766439909297	182.3107029478458	40	127
182.33392290249432	183.1465986394558	50	127
182.33392290249432	182.7286621315193	71	127
182.33392290249432	182.7286621315193	59	127
182.33392290249432	183.1465986394558	64	127
182.33392290249432	183.1465986394558	76	127
182.7286621315193	182.82154195011339	73	127
182.7286621315193	182.82154195011339	61	127
182.82154195011339	182.91442176870748	59	127
182.82154195011339	182.91442176870748	71	127
182.91442176870748	183.1465986394558	58	127
182.91442176870748	183.1465986394558	70	127
183.1465986394558	183.64585034013606	64	127
183.1465986394558	183.64585034013606	40	127
183.1465986394558	183.64585034013606	76	127
183.1465986394558	183.39043083900228	59	127
183.1465986394558	183.39043083900228	71	127
183.39043083900228	183.64585034013606	73	127
183.39043083900228	183.64585034013606	61	127
183.64585034013606	184.50498866213152	49	127
183.64585034013606	184.06378684807257	71	127
183.64585034013606	184.06378684807257	59	127
183.64585034013606	184.50498866213152	64	127
183.64585034013606	184.50498866213152	76	127
184.07541950113378	184.50498866213152	57	127
184.07541950113378	184.50498866213152	69	127
184.50498866213152	184.9345351473923	49	127
184.50498866213152	184.9345351473923	64	127
184.50498866213152	184.9345351473923	76	127
184.50498866213152	185.52666666666667	69	127
184.50498866213152	185.52666666666667	57	127
184.9345351473923	186.07233560090702	64	127
184.9345351473923	186.07233560090702	47	127
184.9345351473923	186.07233560090702	76	127
185.53827664399094	186.07233560090702	68	127
185.53827664399094	186.07233560090702	56	127
186.07233560090702	187.08238095238096	55	127
186.07233560090702	186.51351473922904	64	127
186.07233560090702	186.51351473922904	76	127
186.07233560090702	186.51351473922904	46	127
186.07233560090702	187.08238095238096	67	127
186.51351473922904	187.47714285714287	47	127
186.51351473922904	187.47714285714287	64	127
186.51351473922904	187.47714285714287	76	127
187.09401360544217	187.47714285714287	66	127
187.09401360544217	187.47714285714287	54	127
187.47714285714287	188.3130612244898	76	127
187.47714285714287	187.84863945578232	56	127
187.47714285714287	187.84863945578232	59	127
187.47714285714287	187.84863945578232	68	127
187.84863945578232	188.3130612244898	69	127
187.84863945578232	188.3130612244898	57	127
187.84863945578232	188.83551020408163	47	127
188.3130612244898	188.83551020408163	76	127
188.3130612244898	188.83551020408163	66	127
188.3130612244898	188.83551020408163	54	127
188.8471201814059	189.38115646258504	75	127
188.8471201814059	189.38115646258504	71	127
188.8471201814059	189.38115646258504	59	127
188.8471201814059	189.38115646258504	59	127
189.38115646258504	189.86879818594105	76	127
189.38115646258504	189.86879818594105	64	127
189.38115646258504	189.86879818594105	52	127
189.38115646258504	189.86879818594105	52	127
190.28675736961452	190.7975963718821	64	127
190.28675736961452	190.7975963718821	52	127
190.7975963718821	191.21555555555557	61	127
190.7975963718821	191.633514739229	76	127
190.7975963718821	191.633514739229	45	127
190.7975963718821	191.633514739229	73	127
190.7975963718821	191.21555555555557	49	127
191.21555555555557	191.633514739229	52	127
191.21555555555557	191.633514739229	64	127
191.64512471655328	192.2024036281179	40	127
191.64512471655328	192.2024036281179	73	127
191.64512471655328	192.2024036281179	76	127
191.64512471655328	192.2024036281179	69	127
191.64512471655328	192.2024036281179	57	127
192.2024036281179	192.63197278911565	69	127
192.2024036281179	192.63197278911565	57	127
192.2024036281179	193.03832199546486	74	127
192.2024036281179	193.03832199546486	76	127
192.2024036281179	193.03832199546486	47	127
192.63197278911565	193.03832199546486	56	127
192.63197278911565	193.03832199546486	68	127
193.03832199546486	193.60721088435375	74	127
193.03832199546486	193.60721088435375	69	127
193.03832199546486	193.60721088435375	57	127
193.03832199546486	193.60721088435375	76	127
193.03832199546486	193.60721088435375	40	127
193.61882086167802	194.501179138322	64	127
193.61882086167802	194.501179138322	50	127
193.61882086167802	194.10643990929705	71	127
193.61882086167802	194.10643990929705	59	127
193.61882086167802	194.501179138322	76	127
194.10643990929705	194.21092970521542	73	127
194.10643990929705	194.21092970521542	61	127
194.21092970521542	194.30380952380952	71	127
194.21092970521542	194.30380952380952	59	127
194.30380952380952	194.501179138322	70	127
194.30380952380952	194.501179138322	58	127
194.501179138322	194.73337868480726	71	127
194.501179138322	194.73337868480726	59	127
194.501179138322	195.00040816326532	64	127
194.501179138322	195.00040816326532	76	127
194.501179138322	195.00040816326532	40	127
194.74498866213153	195.00040816326532	61	127
194.74498866213153	195.00040816326532	73	127
195.01201814058956	195.4415873015873	71	127
195.01201814058956	195.89437641723356	64	127
195.01201814058956	195.89437641723356	76	127
195.01201814058956	195.4415873015873	59	127
195.01201814058956	195.89437641723356	49	127
195.4415873015873	195.89437641723356	69	127
195.4415873015873	195.89437641723356	57	127
195.89437641723356	196.3239455782313	76	127
195.89437641723356	196.3239455782313	49	127
195.89437641723356	196.3239455782313	64	127
195.89437641723356	196.79995464852607	69	127
195.89437641723356	196.79995464852607	57	127
196.33555555555554	197.24113378684808	47	127
196.33555555555554	197.24113378684808	64	127
196.33555555555554	197.24113378684808	76	127
196.79995464852607	197.24113378684808	56	127
196.79995464852607	197.24113378684808	68	127
197.24113378684808	197.74036281179139	64	127
197.24113378684808	197.74036281179139	76	127
197.24113378684808	197.74036281179139	46	127
197.24113378684808	198.18154195011337	67	127
197.24113378684808	198.18154195011337	55	127
197.74036281179139	198.59950113378684	64	127
197.74036281179139	198.59950113378684	47	127
197.74036281179139	198.59950113378684	76	127
198.19315192743764	198.59950113378684	66	127
198.19315192743764	198.59950113378684	54	127
198.59950113378684	199.06390022675737	59	127
198.59950113378684	199.50507936507935	76	127
198.59950113378684	199.06390022675737	56	127
198.59950113378684	199.06390022675737	68	127
199.06390022675737	199.98108843537415	47	127
199.06390022675737	199.50507936507935	69	127
199.06390022675737	199.50507936507935	57	127
199.50507936507935	199.98108843537415	66	127
199.50507936507935	199.98108843537415	54	127
199.50507936507935	199.98108843537415	76	127
199.99269841269842	200.49192743764172	59	127
199.99269841269842	200.49192743764172	75	127
199.99269841269842	200.49192743764172	71	127
199.99269841269842	200.49192743764172	59	127
200.49192743764172	201.16530612244898	64	127
200.49192743764172	201.16530612244898	52	127
200.49192743764172	201.16530612244898	76	127
200.49192743764172	201.16530612244898	52	127
201.6645351473923	202.1057142857143	64	127
202.1057142857143	205.08947845804988	64	127
202.1057142857143	202.5701133786848	76	127
202.1057142857143	202.5701133786848	61	127
202.66299319727892	203.03451247165532	56	127
202.66299319727892	203.03451247165532	71	127
203.03451247165532	203.44086167800452	73	127
203.03451247165532	203.44086167800452	57	127
203.44086167800452	203.8356009070295	74	127
203.44086167800452	203.8356009070295	59	127
203.84721088435373	204.23034013605442	54	127
203.84721088435373	204.23034013605442	69	127
204.23034013605442	204.60185941043085	71	127
204.23034013605442	204.60185941043085	56	127
204.60185941043085	205.08947845804988	73	127
204.60185941043085	205.08947845804988	57	127
205.08947845804988	205.4958276643991	64	127
205.08947845804988	205.4958276643991	71	127
205.08947845804988	205.4958276643991	56	127
205.50743764172336	205.9370068027211	63	127
205.50743764172336	205.9370068027211	69	127
205.50743764172336	205.9370068027211	54	127
205.9370068027211	206.3433560090703	52	127
205.9370068027211	206.3433560090703	64	127
205.9370068027211	206.3433560090703	68	127
206.3433560090703	206.80775510204083	52	127
206.3433560090703	206.61038548752833	75	127
206.6219954648526	206.80775510204083	76	127
206.81936507936507	207.03995464852608	75	127
206.81936507936507	207.29537414965986	76	127
206.81936507936507	207.29537414965986	52	127
207.06317460317462	207.67850340136056	76	127
207.29537414965986	210.27913832199548	52	127
207.29537414965986	207.67850340136056	88	127
207.29537414965986	207.67850340136056	49	127
207.67850340136056	208.0732426303855	71	127
207.67850340136056	208.0732426303855	44	127
207.67850340136056	208.0732426303855	83	127
208.08485260770976	208.5028117913832	45	127
208.08485260770976	208.5028117913832	85	127
208.08485260770976	208.5028117913832	73	127
208.5028117913832	208.96721088435373	86	127
208.5028117913832	208.96721088435373	47	127
208.5028117913832	208.96721088435373	74	127
208.96721088435373	209.40839002267575	69	127
208.96721088435373	209.40839002267575	81	127
208.96721088435373	209.40839002267575	42	127
209.40839002267575	209.83795918367346	71	127
209.40839002267575	209.83795918367346	83	127
209.40839002267575	209.83795918367346	44	127
209.84956916099773	210.27913832199548	73	127
209.84956916099773	210.27913832199548	85	127
209.84956916099773	210.27913832199548	45	127
210.27913832199548	210.66226757369614	64	127
210.27913832199548	210.66226757369614	83	127
210.27913832199548	210.66226757369614	71	127
210.27913832199548	210.66226757369614	44	127
210.66226757369614	211.17310657596371	81	127
210.66226757369614	211.17310657596371	69	127
210.66226757369614	211.17310657596371	64	127
210.66226757369614	211.17310657596371	42	127
211.18471655328798	211.5910657596372	80	127
211.18471655328798	211.5910657596372	68	127
211.18471655328798	211.5910657596372	64	127
211.18471655328798	211.5910657596372	40	127
211.5910657596372	212.2180045351474	63	127
212.2180045351474	212.70562358276644	76	127
212.2180045351474	212.70562358276644	64	127
212.2180045351474	212.70562358276644	62	127
212.72884353741497	213.7156916099773	52	127
212.72884353741497	213.7156916099773	45	127
212.72884353741497	213.216462585034	73	127
212.72884353741497	213.216462585034	61	127
212.72884353741497	213.7156916099773	61	127
213.216462585034	213.7156916099773	76	127
213.216462585034	213.7156916099773	64	127
213.7156916099773	214.21492063492065	81	127
213.7156916099773	214.21492063492065	52	127
213.7156916099773	214.21492063492065	69	127
213.7156916099773	214.21492063492065	61	127
213.7156916099773	214.21492063492065	40	127
214.21492063492065	215.03922902494332	47	127
214.21492063492065	214.62126984126985	81	127
214.21492063492065	214.62126984126985	69	127
214.21492063492065	215.03922902494332	52	127
214.21492063492065	215.03922902494332	62	127
214.6328798185941	215.03922902494332	68	127
214.6328798185941	215.03922902494332	80	127
215.03922902494332	215.5500680272109	69	127
215.03922902494332	215.5500680272109	81	127
215.03922902494332	215.5500680272109	52	127
215.03922902494332	215.5500680272109	62	127
215.03922902494332	215.5500680272109	40	127
215.5500680272109	215.96802721088434	83	127
215.5500680272109	215.96802721088434	71	127
215.5500680272109	216.35115646258504	62	127
215.5500680272109	216.35115646258504	44	127
215.5500680272109	216.35115646258504	52	127
215.9796371882086	216.0725170068027	85	127
215.9796371882086	216.0725170068027	73	127
216.0725170068027	216.1653968253968	71	127
216.0725170068027	216.1653968253968	83	127
216.1653968253968	216.35115646258504	70	127
216.1653968253968	216.35115646258504	82	127
216.35115646258504	216.72267573696146	62	127
216.35115646258504	216.72267573696146	40	127
216.35115646258504	216.53691609977324	83	127
216.35115646258504	216.53691609977324	71	127
216.35115646258504	216.72267573696146	52	127
216.53691609977324	216.72267573696146	73	127
216.53691609977324	216.72267573696146	85	127
216.72267573696146	217.60503401360543	45	127
216.72267573696146	217.19868480725623	83	127
216.72267573696146	217.19868480725623	71	127
216.72267573696146	217.60503401360543	52	127
216.72267573696146	217.60503401360543	61	127
217.2102947845805	217.60503401360543	69	127
217.2102947845805	217.60503401360543	81	127
217.60503401360543	218.0229931972789	49	127
217.60503401360543	218.44095238095238	69	127
217.60503401360543	218.44095238095238	57	127
217.60503401360543	218.8124716553288	88	127
218.0229931972789	218.8124716553288	37	127
218.44095238095238	218.8124716553288	68	127
218.44095238095238	218.8124716553288	56	127
218.82408163265305	219.69482993197278	55	127
218.82408163265305	219.69482993197278	67	127
218.82408163265305	219.30009070294784	49	127
218.82408163265305	219.69482993197278	88	127
219.30009070294784	220.26371882086167	38	127
219.69482993197278	220.26371882086167	86	127
219.69482993197278	220.26371882086167	66	127
219.69482993197278	220.26371882086167	54	127
220.27532879818594	221.1344671201814	86	127
220.27532879818594	220.7281179138322	50	127
220.27532879818594	221.1344671201814	71	127
220.27532879818594	221.1344671201814	59	127
220.73972789115646	221.5408163265306	40	127
221.1344671201814	221.5408163265306	85	127
221.1344671201814	221.5408163265306	57	127
221.1344671201814	221.5408163265306	69	127
221.5408163265306	222.00521541950113	62	127
221.5408163265306	222.00521541950113	83	127
221.5408163265306	222.00521541950113	68	127
221.5408163265306	222.00521541950113	52	127
222.0168253968254	222.66698412698412	81	127
222.0168253968254	222.66698412698412	69	127
222.0168253968254	222.66698412698412	61	127
222.0168253968254	222.66698412698412	45	127
223.10816326530613	223.52612244897958	64	127
223.52612244897958	223.9673015873016	61	127
223.52612244897958	223.9673015873016	76	127
223.52612244897958	226.45183673469387	64	127
223.9673015873016	224.3968707482993	56	127
223.9673015873016	224.3968707482993	71	127
224.3968707482993	224.83804988662132	57	127
224.3968707482993	224.83804988662132	73	127
224.8496598639456	225.24439909297053	59	127
224.8496598639456	225.24439909297053	74	127
225.24439909297053	225.662358276644	54	127
225.24439909297053	225.662358276644	69	127
225.662358276644	226.0338775510204	71	127
225.662358276644	226.0338775510204	56	127
226.04548752834467	226.45183673469387	57	127
226.04548752834467	226.45183673469387	73	127
226.45183673469387	226.86979591836734	56	127
226.45183673469387	226.86979591836734	64	127
226.45183673469387	226.86979591836734	71	127
226.86979591836734	227.28775510204082	63	127
226.86979591836734	227.28775510204082	54	127
226.86979591836734	227.28775510204082	69	127
227.31097505668933	227.8218140589569	52	127
227.31097505668933	227.8218140589569	64	127
227.31097505668933	227.8218140589569	68	127
227.8218140589569	228.22816326530614	52	127
227.8218140589569	228.0424036281179	75	127
228.0424036281179	228.22816326530614	76	127
228.22816326530614	228.62290249433107	52	127
228.22816326530614	228.41392290249433	75	127
228.22816326530614	228.62290249433107	76	127
228.41392290249433	228.9944217687075	76	127
228.62290249433107	228.9944217687075	88	127
228.62290249433107	228.9944217687075	49	127
228.62290249433107	231.58344671201814	52	127
229.00603174603174	229.4007709750567	44	127
229.00603174603174	229.4007709750567	83	127
229.00603174603174	229.4007709750567	71	127
229.4007709750567	229.8651700680272	73	127
229.4007709750567	229.8651700680272	85	127
229.4007709750567	229.8651700680272	45	127
229.8651700680272	230.3063492063492	86	127
229.8651700680272	230.3063492063492	74	127
229.8651700680272	230.3063492063492	47	127
230.31795918367348	230.73591836734693	69	127
230.31795918367348	230.73591836734693	81	127
230.31795918367348	230.73591836734693	42	127
230.73591836734693	231.1306575963719	71	127
230.73591836734693	231.1306575963719	83	127
230.73591836734693	231.1306575963719	44	127
231.1306575963719	231.58344671201814	73	127
231.1306575963719	231.58344671201814	85	127
231.1306575963719	231.58344671201814	45	127
231.5950566893424	231.97818594104308	71	127
231.5950566893424	231.97818594104308	83	127
231.5950566893424	231.97818594104308	64	127
231.5950566893424	231.97818594104308	44	127
231.97818594104308	232.40775510204082	81	127
231.97818594104308	232.40775510204082	69	127
231.97818594104308	232.40775510204082	64	127
231.97818594104308	232.40775510204082	42	127
232.40775510204082	232.8837641723356	80	127
232.40775510204082	232.8837641723356	68	127
232.40775510204082	232.8837641723356	64	127
232.40775510204082	232.8837641723356	40	127
232.8837641723356	233.39460317460316	63	127
233.40621315192743	234.0099319727891	64	127
233.40621315192743	234.0099319727891	76	127
233.40621315192743	234.0099319727891	62	127
234.0099319727891	234.42789115646258	73	127
234.0099319727891	234.42789115646258	61	127
234.0099319727891	234.91551020408164	52	127
234.0099319727891	234.91551020408164	61	127
234.0099319727891	234.91551020408164	45	127
234.42789115646258	234.91551020408164	64	127
234.42789115646258	234.91551020408164	76	127
234.92712018140588	235.6121088435374	81	127
234.92712018140588	235.6121088435374	61	127
234.92712018140588	235.6121088435374	52	127
234.92712018140588	235.6121088435374	69	127
234.92712018140588	235.6121088435374	40	127
235.6121088435374	236.0300680272109	81	127
235.6121088435374	236.0300680272109	69	127
235.6121088435374	236.41319727891155	52	127
235.6121088435374	236.41319727891155	62	127
235.6121088435374	236.41319727891155	47	127
236.0300680272109	236.41319727891155	68	127
236.0300680272109	236.41319727891155	80	127
236.42480725623582	236.80793650793652	81	127
236.42480725623582	236.80793650793652	69	127
236.42480725623582	236.80793650793652	52	127
236.42480725623582	236.80793650793652	62	127
236.42480725623582	236.80793650793652	40	127
236.80793650793652	237.62063492063493	44	127
236.80793650793652	237.62063492063493	52	127
236.80793650793652	237.22589569160996	83	127
236.80793650793652	237.22589569160996	71	127
236.80793650793652	237.62063492063493	62	127
237.22589569160996	237.3187755102041	85	127
237.22589569160996	237.3187755102041	73	127
237.3187755102041	237.4348752834467	71	127
237.3187755102041	237.4348752834467	83	127
237.4348752834467	237.62063492063493	82	127
237.4348752834467	237.62063492063493	70	127
237.62063492063493	237.80639455782313	71	127
237.62063492063493	238.08503401360545	40	127
237.62063492063493	237.80639455782313	83	127
237.62063492063493	238.08503401360545	52	127
237.62063492063493	238.08503401360545	62	127
237.8180045351474	238.08503401360545	73	127
237.8180045351474	238.08503401360545	85	127
238.0966439909297	238.96739229024942	52	127
238.0966439909297	238.54943310657598	83	127
238.0966439909297	238.54943310657598	71	127
238.0966439909297	238.96739229024942	61	127
238.0966439909297	238.96739229024942	45	127
238.54943310657598	238.96739229024942	81	127
238.54943310657598	238.96739229024942	69	127
238.96739229024942	239.84975056689342	57	127
238.96739229024942	240.22126984126984	88	127
238.96739229024942	239.36213151927439	49	127
238.96739229024942	239.84975056689342	69	127
239.84975056689342	240.22126984126984	68	127
239.84975056689342	240.22126984126984	56	127
240.22126984126984	240.68566893424037	49	127
240.22126984126984	241.10362811791384	88	127
240.22126984126984	241.10362811791384	67	127
240.22126984126984	241.10362811791384	55	127
240.69727891156464	241.54480725623583	38	127
241.10362811791384	241.54480725623583	54	127
241.10362811791384	241.54480725623583	86	127
241.10362811791384	241.54480725623583	66	127
241.54480725623583	242.34589569160997	71	127
241.54480725623583	241.92793650793652	50	127
241.54480725623583	242.34589569160997	59	127
241.54480725623583	242.34589569160997	86	127
241.92793650793652	242.7754648526077	40	127
242.34589569160997	242.7754648526077	57	127
242.34589569160997	242.7754648526077	85	127
242.34589569160997	242.7754648526077	69	127
242.78707482993198	243.20503401360546	83	127
242.78707482993198	243.20503401360546	68	127
242.78707482993198	243.20503401360546	62	127
242.78707482993198	243.20503401360546	52	127
243.2166439909297	244.06417233560092	45	127
243.2166439909297	244.06417233560092	81	127
243.2166439909297	244.06417233560092	69	127
243.2166439909297	244.06417233560092	61	127
244.5053514739229	244.70272108843537	73	127
245.01619047619047	246.3281179138322	76	127
245.52702947845805	245.92176870748298	73	127
245.92176870748298	246.3281179138322	69	127
246.3281179138322	247.53555555555556	71	127
246.72285714285715	247.12920634920636	68	127
247.14081632653063	247.53555555555556	64	127
247.53555555555556	247.73292517006803	74	127
247.73292517006803	247.91868480725623	73	127
247.91868480725623	248.09283446712018	71	127
247.91868480725623	248.34825396825397	61	127
248.10444444444445	248.34825396825397	69	127
248.35986394557824	248.54562358276644	68	127
248.35986394557824	248.7429931972789	57	127
248.54562358276644	248.7429931972789	69	127
248.7429931972789	249.13773242630384	73	127
248.7429931972789	249.13773242630384	64	127
249.13773242630384	249.41637188208617	71	127
249.5324716553288	249.79950113378686	73	127
249.92721088435374	251.2855782312925	76	127
250.39160997732426	250.84439909297052	73	127
250.8560090702948	251.2855782312925	69	127
251.29718820861677	252.12149659863945	73	127
251.72675736961452	252.12149659863945	69	127
252.12149659863945	252.5742857142857	73	127
252.12149659863945	252.5742857142857	66	127
252.58589569160998	253.83977324263037	81	127
253.09673469387755	253.46825396825398	78	127
253.46825396825398	253.83977324263037	75	127
253.85138321995464	254.64086167800454	75	127
254.2461224489796	254.64086167800454	71	127
254.64086167800454	255.19814058956916	69	127
254.64086167800454	255.19814058956916	75	127
255.22136054421767	256.39396825396824	83	127
255.5928798185941	256.0108390022676	68	127
256.0108390022676	256.39396825396824	64	127
256.39396825396824	256.5797052154195	81	127
256.5913378684807	256.7654875283447	80	127
256.77709750566896	256.96285714285716	78	127
256.77709750566896	257.2182766439909	73	127
256.96285714285716	257.2182766439909	76	127
257.2182766439909	257.4968934240363	75	127
257.2182766439909	257.705873015873	71	127
257.5085260770975	257.705873015873	76	127
257.705873015873	258.1122222222222	69	127
257.705873015873	258.1122222222222	78	127
258.1122222222222	258.4953741496599	81	127
258.1122222222222	258.4024943310658	66	127
258.588253968254	258.78562358276645	71	127
258.588253968254	258.78562358276645	75	127
259.00621315192745	259.42417233560093	76	127
259.00621315192745	259.42417233560093	64	127
259.8421315192744	260.05108843537414	61	127
260.2600680272109	261.82743764172335	64	127
260.840589569161	261.3049886621315	69	127
260.840589569161	261.3049886621315	57	127
260.840589569161	261.3049886621315	61	127
261.3165986394558	261.82743764172335	73	127
261.3165986394558	261.82743764172335	57	127
261.3165986394558	261.82743764172335	61	127
261.82743764172335	262.9419954648526	59	127
262.1989342403628	262.55886621315193	56	127
262.1989342403628	262.55886621315193	76	127
262.1989342403628	262.55886621315193	64	127
262.5704761904762	262.9419954648526	80	127
262.5704761904762	262.9419954648526	68	127
262.5704761904762	262.9419954648526	52	127
262.9419954648526	263.12773242630385	62	127
263.12773242630385	263.35995464852607	61	127
263.35995464852607	263.7895238095238	81	127
263.35995464852607	263.7895238095238	69	127
263.35995464852607	263.7895238095238	49	127
263.35995464852607	263.55732426303854	59	127
263.55732426303854	263.7895238095238	57	127
263.8011337868481	264.0101133786848	56	127
263.8011337868481	264.2074829931973	85	127
263.8011337868481	264.2074829931973	73	127
263.8011337868481	264.2074829931973	45	127
264.0217233560091	264.2074829931973	57	127
264.2074829931973	264.6951020408163	76	127
264.2074829931973	264.6951020408163	88	127
264.2074829931973	264.6951020408163	61	127
264.2074829931973	264.6951020408163	40	127
264.6951020408163	264.9853514739229	59	127
265.12467120181407	265.32204081632653	61	127
265.5542403628118	266.8313378684807	64	127
266.0534693877551	266.4598185941043	69	127
266.0534693877551	266.4598185941043	57	127
266.0534693877551	266.4598185941043	61	127
266.4598185941043	266.8313378684807	73	127
266.4598185941043	266.8313378684807	61	127
266.4598185941043	266.8313378684807	57	127
266.842947845805	267.71369614512474	61	127
267.284126984127	267.71369614512474	73	127
267.284126984127	267.71369614512474	61	127
267.284126984127	267.71369614512474	57	127
267.71369614512474	268.16648526077097	61	127
267.71369614512474	268.16648526077097	81	127
267.71369614512474	268.16648526077097	54	127
267.71369614512474	268.16648526077097	69	127
268.17809523809524	269.66414965986394	69	127
268.54961451247163	269.15331065759636	54	127
268.54961451247163	269.15331065759636	75	127
268.54961451247163	269.15331065759636	63	127
269.15331065759636	269.66414965986394	51	127
269.15331065759636	269.66414965986394	78	127
269.15331065759636	269.66414965986394	66	127
269.67578231292515	270.418820861678	63	127
270.0473015873016	270.418820861678	47	127
270.0473015873016	270.418820861678	78	127
270.0473015873016	270.418820861678	66	127
270.418820861678	270.80195011337867	63	127
270.418820861678	270.80195011337867	83	127
270.418820861678	270.80195011337867	45	127
270.418820861678	270.80195011337867	71	127
270.80195011337867	271.9513378684807	71	127
271.20829931972787	271.5914285714286	44	127
271.20829931972787	271.5914285714286	76	127
271.20829931972787	271.5914285714286	64	127
271.5914285714286	271.9513378684807	68	127
271.5914285714286	271.9513378684807	80	127
271.5914285714286	271.9513378684807	40	127
271.9513378684807	272.1370975056689	69	127
272.1370975056689	272.3344671201814	68	127
272.34607709750566	272.5550566893424	66	127
272.34607709750566	272.84530612244896	80	127
272.34607709750566	272.84530612244896	68	127
272.34607709750566	272.84530612244896	49	127
272.56666666666666	272.84530612244896	64	127
272.84530612244896	273.0310657596372	63	127
272.84530612244896	273.2284353741497	85	127
272.84530612244896	273.2284353741497	73	127
272.84530612244896	273.2284353741497	47	127
273.0310657596372	273.2284353741497	64	127
273.2284353741497	273.6812244897959	66	127
273.2284353741497	273.6812244897959	45	127
273.6812244897959	274.0063038548753	85	127
273.6812244897959	274.0063038548753	73	127
273.6812244897959	274.0063038548753	69	127
273.6812244897959	274.0063038548753	42	127
274.0991836734694	274.4474829931973	69	127
274.0991836734694	274.4474829931973	81	127
274.0991836734694	274.4474829931973	63	127
274.0991836734694	274.4474829931973	47	127
274.55197278911567	275.0047619047619	80	127
274.55197278911567	275.0047619047619	68	127
274.55197278911567	275.0047619047619	64	127
274.55197278911567	275.0047619047619	40	127
275.5039909297052	275.93356009070294	64	127
275.93356009070294	276.31666666666666	52	127
275.93356009070294	277.24548752834465	59	127
275.93356009070294	277.24548752834465	56	127
275.93356009070294	277.24548752834465	74	127
276.31666666666666	276.8043083900227	52	127
276.81591836734697	277.24548752834465	52	127
277.24548752834465	278.4413151927438	57	127
277.24548752834465	277.4428571428571	73	127
277.24548752834465	277.65183673469386	52	127
277.24548752834465	278.4413151927438	61	127
277.4428571428571	277.59378684807257	76	127
277.65183673469386	278.05818594104306	52	127
277.65183673469386	277.8143764172336	74	127
277.8608163265306	278.0001360544218	73	127
278.06979591836733	278.4413151927438	52	127
278.06979591836733	278.19750566893424	71	127
278.2439455782313	278.38326530612244	69	127
278.4413151927438	278.5922448979592	68	127
278.4413151927438	278.82444444444445	62	127
278.4413151927438	278.82444444444445	59	127
278.4413151927438	278.82444444444445	52	127
278.63868480725625	278.7780045351474	64	127
278.82444444444445	278.9869841269841	68	127
279.0334240362812	279.1611337868481	71	127
279.2191836734694	279.3468934240363	76	127
279.4049433106576	279.5210430839002	78	127
279.5907029478458	279.73002267573696	80	127
279.77646258503404	279.91578231292516	76	127
279.95061224489797	280.0783219954649	80	127
280.1247619047619	280.22925170068027	81	127
280.27569160997734	280.42662131519273	83	127
280.4846712018141	280.63560090702947	85	127
280.6936507936508	281.86625850340135	71	127
280.6936507936508	281.08839002267575	64	127
280.6936507936508	281.86625850340135	86	127
280.6936507936508	281.86625850340135	68	127
281.08839002267575	281.4831292517007	64	127
281.4831292517007	281.86625850340135	64	127
281.8778684807256	282.05201814058955	85	127
281.8778684807256	282.249387755102	64	127
281.8778684807256	283.18979591836734	73	127
281.8778684807256	283.18979591836734	69	127
282.0636281179138	282.202947845805	88	127
282.249387755102	282.6557142857143	64	127
282.249387755102	282.41192743764174	86	127
282.45836734693876	282.6092970521542	85	127
282.6557142857143	283.18979591836734	64	127
282.6557142857143	282.8414965986395	83	127
282.8879365079365	283.1201360544218	81	127
283.2014058956916	283.3291156462585	80	127
283.2014058956916	283.5845351473923	74	127
283.2014058956916	283.5845351473923	71	127
283.2014058956916	283.5845351473923	64	127
283.3871655328798	283.526485260771	78	127
283.59614512471654	283.8399546485261	76	127
283.8863945578231	284.01410430839	75	127
284.03732426303856	284.17664399092973	76	127
284.234693877551	284.35079365079366	78	127
284.38560090702947	284.5249433106576	80	127
284.58299319727894	284.64104308390023	81	127
284.6990702947846	284.8384126984127	82	127
284.90807256235826	285.0125623582766	83	127
285.070612244898	285.1983219954649	84	127
285.25637188208617	285.41891156462583	85	127
285.48857142857145	285.6511111111111	86	127
285.48857142857145	285.9297505668934	53	127
285.70916099773245	285.8368707482993	83	127
285.9413605442177	286.3128798185941	68	127
285.9413605442177	286.0690702947846	80	127
285.9413605442177	286.3128798185941	71	127
286.1270975056689	286.26643990929705	74	127
286.3128798185941	286.48702947845806	86	127
286.3128798185941	286.71922902494333	74	127
286.3128798185941	286.71922902494333	71	127
286.53344671201813	286.67278911564625	86	127
286.71922902494333	286.85854875283445	85	127
286.71922902494333	287.0907482993197	54	127
286.90498866213153	287.0442857142857	81	127
287.102358276644	287.48548752834466	61	127
287.102358276644	287.2416780045352	78	127
287.102358276644	287.48548752834466	69	127
287.29972789115646	287.4274376417234	73	127
287.48548752834466	287.89183673469387	69	127
287.48548752834466	287.67124716553286	85	127
287.48548752834466	287.89183673469387	73	127
287.71768707482994	287.8570068027211	85	127
287.89183673469387	288.03115646258505	85	127
287.89183673469387	288.2633560090703	56	127
288.07759637188207	288.21691609977324	80	127
288.2633560090703	288.62326530612245	64	127
288.2633560090703	288.3910657596372	76	127
288.2633560090703	288.62326530612245	61	127
288.4491156462585	288.5768027210884	73	127
288.6348752834467	289.0063945578231	64	127
288.6348752834467	288.7741950113379	85	127
288.6348752834467	289.0063945578231	73	127
288.8206349206349	288.9599546485261	85	127
289.0063945578231	289.37791383219957	57	127
289.0063945578231	289.1457142857143	85	127
289.1805442176871	289.3198639455782	79	127
289.37791383219957	289.7726530612245	61	127
289.37791383219957	289.5404535147392	76	127
289.37791383219957	289.7726530612245	64	127
289.5984807256236	289.7262131519274	73	127
289.7842630385488	289.9119501133787	85	127
289.7842630385488	290.1441723356009	73	127
289.7842630385488	290.1441723356009	64	127
289.9584126984127	290.0977324263039	85	127
290.1441723356009	290.3763718820862	80	127
290.1441723356009	290.6434013605442	56	127
290.42278911564625	290.5969614512472	76	127
290.6434013605442	290.8059410430839	73	127
290.6434013605442	291.0613605442177	64	127
290.6434013605442	291.0613605442177	61	127
290.8639909297052	291.01492063492066	68	127
291.07297052154195	291.4096598639456	68	127
291.07297052154195	291.20068027210885	68	127
291.07297052154195	291.4096598639456	64	127
291.2471201814059	291.3632199546485	68	127
291.42126984126986	291.560589569161	68	127
291.42126984126986	291.79278911564626	44	127
291.60702947845806	291.74632653061224	63	127
291.8043990929705	292.21074829931973	56	127
291.8043990929705	291.9437188208617	60	127
291.8043990929705	292.21074829931973	54	127
292.001768707483	292.1642857142857	56	127
292.21074829931973	292.663514739229	54	127
292.21074829931973	292.38489795918366	56	127
292.21074829931973	292.663514739229	56	127
292.442947845805	292.60548752834467	56	127
292.663514739229	294.0451247165533	52	127
292.663514739229	293.11632653061224	37	127
292.663514739229	294.0451247165533	61	127
292.663514739229	294.0451247165533	56	127
293.11632653061224	293.55750566893425	37	127
293.55750566893425	294.0451247165533	37	127
294.0451247165533	295.2757823129252	64	127
294.0451247165533	294.4979138321996	37	127
294.0451247165533	295.2757823129252	61	127
294.0451247165533	295.2757823129252	56	127
294.4979138321996	294.86943310657597	37	127
294.86943310657597	295.2757823129252	37	127
295.2990022675737	297.33074829931974	60	127
295.2990022675737	295.75179138321994	37	127
295.2990022675737	295.9375283446712	57	127
295.2990022675737	296.1117006802721	63	127
295.7634013605442	296.1117006802721	37	127
295.9375283446712	296.1117006802721	56	127
296.1233106575964	296.22780045351476	64	127
296.1233106575964	296.33229024943313	57	127
296.1233106575964	296.5296598639456	37	127
296.22780045351476	296.33229024943313	63	127
296.33229024943313	296.5296598639456	56	127
296.33229024943313	296.4367800453515	61	127
296.4367800453515	296.5296598639456	63	127
296.5296598639456	296.95920634920634	54	127
296.5296598639456	296.95920634920634	37	127
296.5296598639456	297.33074829931974	68	127
296.95920634920634	297.33074829931974	54	127
296.95920634920634	297.33074829931974	37	127
297.33074829931974	297.5397278911565	57	127
297.33074829931974	297.79514739229023	60	127
297.33074829931974	297.79514739229023	37	127
297.33074829931974	297.79514739229023	54	127
297.562947845805	297.79514739229023	56	127
297.79514739229023	299.18834467120183	56	127
297.79514739229023	298.27115646258505	61	127
297.79514739229023	298.27115646258505	37	127
297.79514739229023	299.18834467120183	52	127
298.27115646258505	298.7239455782313	37	127
298.27115646258505	298.39884353741496	63	127
298.39884353741496	298.51496598639454	61	127
298.51496598639454	298.7239455782313	60	127
298.73555555555555	299.18834467120183	37	127
298.73555555555555	298.9445351473923	61	127
298.9445351473923	299.18834467120183	63	127
299.1999546485261	299.58308390022677	64	127
299.1999546485261	299.58308390022677	52	127
299.1999546485261	299.58308390022677	49	127
299.73401360544216	300.0823129251701	64	127
299.73401360544216	300.0823129251701	52	127
299.73401360544216	300.0823129251701	49	127
300.2332199546485	300.6163718820862	64	127
300.2332199546485	300.6163718820862	52	127
300.2332199546485	300.6163718820862	49	127
302.8454875283447	303.0312471655329	73	127
303.2518367346939	304.5173242630386	76	127
303.6465759637188	304.07614512471656	73	127
304.07614512471656	304.5173242630386	69	127
304.5173242630386	305.7828117913832	71	127
304.93526077097505	305.34160997732425	68	127
305.34160997732425	305.7828117913832	64	127
305.7828117913832	305.9801814058957	74	127
305.9801814058957	306.2239909297052	73	127
306.2239909297052	306.39814058956915	71	127
306.2239909297052	306.6071201814059	61	127
306.4097505668934	306.6071201814059	69	127
306.61873015873016	307.0947392290249	57	127
306.61873015873016	306.874126984127	68	127
306.874126984127	307.0947392290249	69	127
307.0947392290249	307.4662585034014	73	127
307.0947392290249	307.4662585034014	64	127
307.4662585034014	307.79133786848075	71	127
307.8958276643991	308.19768707482996	73	127
308.38344671201816	309.56766439909296	76	127
308.7665759637188	309.1845351473923	73	127
309.19614512471657	309.56766439909296	69	127
309.56766439909296	310.450022675737	73	127
309.97401360544217	310.450022675737	69	127
310.450022675737	310.8447619047619	73	127
310.450022675737	310.8447619047619	66	127
310.8563718820862	312.040589569161	81	127
311.29755102040815	311.6922902494331	78	127
311.6922902494331	312.040589569161	75	127
312.05219954648527	312.7720181405896	75	127
312.4004761904762	312.7720181405896	71	127
312.7720181405896	313.4918367346939	75	127
312.7720181405896	313.4918367346939	69	127
313.50344671201816	314.7573015873016	83	127
313.9329931972789	314.37419501133786	67	127
314.37419501133786	314.7573015873016	64	127
314.7573015873016	314.9430839002268	81	127
314.95467120181405	315.1636507936508	79	127
315.175283446712	315.36102040816326	78	127
315.175283446712	315.54680272108845	71	127
315.36102040816326	315.54680272108845	76	127
315.54680272108845	315.7557823129252	79	127
315.54680272108845	315.96476190476193	67	127
315.7557823129252	315.96476190476193	76	127
315.96476190476193	316.37111111111113	74	127
316.3826984126984	316.4756009070295	76	127
316.3826984126984	316.8122902494331	69	127
316.4756009070295	316.60331065759635	74	127
316.60331065759635	316.719410430839	73	127
316.719410430839	316.8122902494331	74	127
316.8122902494331	317.24185941043083	57	127
316.8122902494331	316.99802721088435	78	127
316.8122902494331	317.24185941043083	57	127
316.99802721088435	317.24185941043083	76	127
317.24185941043083	317.7526984126984	74	127
317.24185941043083	317.7526984126984	62	127
317.24185941043083	318.704716553288	69	127
317.7643083900227	318.22868480725623	54	127
318.22868480725623	318.704716553288	50	127
318.704716553288	320.028253968254	64	127
319.145873015873	319.5522222222222	49	127
319.5638321995465	320.028253968254	61	127
319.5638321995465	320.028253968254	45	127
320.028253968254	320.2372335600907	67	127
320.028253968254	321.17764172335603	69	127
320.2372335600907	320.41138321995464	66	127
320.41138321995464	320.7712925170068	38	127
320.41138321995464	320.6087528344671	64	127
320.6203628117914	320.7712925170068	62	127
320.7828798185941	321.17764172335603	42	127
320.7828798185941	320.98027210884356	61	127
320.98027210884356	321.17764172335603	62	127
321.17764172335603	321.4214512471655	62	127
321.17764172335603	322.45473922902494	64	127
321.4214512471655	321.618820861678	61	127
321.618820861678	322.06	45	127
321.618820861678	321.85102040816327	59	127
321.85102040816327	322.06	57	127
322.0716099773243	322.2457596371882	59	127
322.0716099773243	322.45473922902494	69	127
322.0716099773243	322.45473922902494	55	127
322.25736961451247	322.45473922902494	61	127
322.45473922902494	323.61573696145126	81	127
322.45473922902494	322.8378684807256	62	127
322.45473922902494	322.6521088435374	67	127
322.6521088435374	322.8378684807256	66	127
322.8378684807256	323.24419501133787	69	127
322.8378684807256	323.04684807256234	64	127
322.8378684807256	323.24419501133787	54	127
323.04684807256234	323.24419501133787	62	127
323.24419501133787	323.42997732426306	61	127
323.24419501133787	323.61573696145126	45	127
323.44156462585033	323.61573696145126	62	127
323.62734693877553	324.84639455782315	76	127
323.62734693877553	323.81310657596373	62	127
323.62734693877553	324.02208616780047	57	127
323.81310657596373	324.02208616780047	61	127
324.02208616780047	324.2426757369615	59	127
324.02208616780047	324.44004535147394	64	127
324.02208616780047	324.44004535147394	49	127
324.2426757369615	324.44004535147394	57	127
324.44004535147394	324.6374149659864	56	127
324.44004535147394	324.84639455782315	45	127
324.6490249433107	324.84639455782315	57	127
324.8580045351474	326.0886621315193	69	127
324.8580045351474	325.0785714285714	79	127
324.8580045351474	325.2759637188209	57	127
325.0785714285714	325.2759637188209	78	127
325.2759637188209	325.4617233560091	76	127
325.2759637188209	325.6474829931973	66	127
325.2759637188209	325.6474829931973	50	127
325.4617233560091	325.6474829931973	74	127
325.6474829931973	326.0886621315193	45	127
325.6474829931973	325.8680725623583	73	127
325.8680725623583	326.0886621315193	74	127
326.10024943310657	326.28603174603177	61	127
326.10024943310657	326.48340136054424	78	127
326.10024943310657	326.48340136054424	57	127
326.29764172335604	326.48340136054424	69	127
326.48340136054424	326.85492063492063	67	127
326.48340136054424	326.66916099773243	73	127
326.48340136054424	326.7736507936508	76	127
326.48340136054424	326.85492063492063	57	127
326.66916099773243	326.85492063492063	69	127
326.85492063492063	327.06390022675737	69	127
326.85492063492063	327.06390022675737	76	127
326.85492063492063	327.2728798185941	55	127
327.06390022675737	327.2728798185941	73	127
327.2728798185941	327.6327664399093	74	127
327.2728798185941	327.6327664399093	66	127
327.2728798185941	328.3642176870748	81	127
327.6443990929705	328.0043083900227	54	127
327.6443990929705	328.0043083900227	62	127
328.0043083900227	328.3642176870748	50	127
328.0043083900227	329.20013605442176	69	127
328.3642176870748	328.73573696145127	57	127
328.3642176870748	329.20013605442176	78	127
328.74734693877554	329.20013605442176	62	127
328.74734693877554	329.20013605442176	49	127
329.20013605442176	329.6877551020408	78	127
329.20013605442176	329.6877551020408	50	127
329.20013605442176	330.46562358276645	66	127
329.6877551020408	330.90678004535147	86	127
329.6877551020408	330.05927437641725	59	127
330.0708843537415	330.46562358276645	62	127
330.0708843537415	330.46562358276645	46	127
330.46562358276645	330.90678004535147	47	127
330.46562358276645	331.27832199546486	74	127
330.90678004535147	331.27832199546486	59	127
330.90678004535147	331.7194784580499	80	127
331.27832199546486	331.7194784580499	52	127
331.27832199546486	331.7194784580499	68	127
331.27832199546486	331.7194784580499	64	127
331.74272108843536	332.8688888888889	76	127
331.74272108843536	332.14907029478456	50	127
331.74272108843536	332.14907029478456	80	127
332.14907029478456	333.2519954648526	88	127
332.14907029478456	332.4973696145125	61	127
332.4973696145125	332.8688888888889	57	127
332.4973696145125	332.8688888888889	48	127
332.88049886621314	333.2519954648526	49	127
332.88049886621314	334.1575963718821	69	127
333.2519954648526	333.47260770975055	86	127
333.2519954648526	333.6699546485261	61	127
333.47260770975055	333.6699546485261	85	127
333.6699546485261	334.1575963718821	54	127
333.6699546485261	333.92539682539683	83	127
333.6699546485261	334.1575963718821	66	127
333.92539682539683	334.1575963718821	81	127
334.1692063492064	334.5291156462585	73	127
334.1692063492064	335.01673469387754	66	127
334.1692063492064	334.3433560090703	80	127
334.1692063492064	334.5291156462585	52	127
334.3433560090703	334.5291156462585	81	127
334.5407256235828	335.01673469387754	50	127
334.5407256235828	335.01673469387754	83	127
334.5407256235828	335.01673469387754	78	127
335.0283446712018	335.2953741496599	47	127
335.0283446712018	335.2953741496599	86	127
335.0283446712018	335.2953741496599	74	127
335.0283446712018	335.2953741496599	62	127
335.4114739229025	335.7829931972789	74	127
335.4114739229025	335.7829931972789	59	127
335.4114739229025	335.7829931972789	52	127
335.4114739229025	335.7829931972789	80	127
335.89909297052156	336.7349886621315	81	127
335.89909297052156	336.7349886621315	73	127
335.89909297052156	336.7349886621315	57	127
335.89909297052156	336.7349886621315	45	127
337.12975056689345	337.5244897959184	64	127
337.53609977324265	338.8712471655329	71	127
337.53609977324265	338.8712471655329	68	127
337.53609977324265	338.8712471655329	64	127
337.53609977324265	338.8712471655329	62	127
338.8712471655329	340.11349206349206	61	127
338.8712471655329	340.11349206349206	73	127
338.8712471655329	340.11349206349206	69	127
338.8712471655329	340.11349206349206	64	127
340.13673469387754	340.48503401360546	68	127
340.13673469387754	340.2412244897959	76	127
340.13673469387754	340.48503401360546	64	127
340.13673469387754	340.48503401360546	59	127
340.2412244897959	340.3689342403628	74	127
340.3689342403628	340.554693877551	73	127
340.61272108843536	340.8681632653061	64	127
340.61272108843536	340.7520634920635	74	127
340.61272108843536	340.8681632653061	71	127
340.61272108843536	340.8681632653061	56	127
340.79850340136056	340.9378231292517	71	127
340.99587301587303	341.1584126984127	76	127
340.99587301587303	341.2745124716553	68	127
340.99587301587303	341.2745124716553	64	127
340.99587301587303	341.2745124716553	52	127
341.20485260770977	341.3673922902494	74	127
341.4254421768708	341.7853514739229	73	127
341.4254421768708	341.7853514739229	64	127
341.4254421768708	341.7853514739229	64	127
341.4254421768708	341.7853514739229	57	127
341.9246712018141	342.18009070294784	81	127
342.6909297052154	344.43242630385487	83	127
342.6909297052154	344.43242630385487	64	127
342.6909297052154	344.43242630385487	71	127
342.6909297052154	344.43242630385487	56	127
342.6909297052154	344.43242630385487	50	127
344.44403628117914	346.0810430839002	64	127
344.44403628117914	346.0810430839002	85	127
344.44403628117914	346.0810430839002	73	127
344.44403628117914	346.0810430839002	57	127
344.44403628117914	346.0810430839002	49	127
346.10426303854877	346.5454195011338	57	127
346.10426303854877	346.7543990929705	88	127
346.10426303854877	346.7543990929705	66	127
346.10426303854877	347.0446712018141	47	127
346.557052154195	346.8588888888889	69	127
346.7543990929705	346.97501133786847	74	127
346.7543990929705	346.97501133786847	86	127
347.0446712018141	347.6019501133787	52	127
347.0446712018141	347.218820861678	85	127
347.0446712018141	347.218820861678	74	127
347.0446712018141	347.4045804988662	68	127
347.2768707482993	347.4742176870748	74	127
347.2768707482993	347.4742176870748	83	127
347.6019501133787	348.33337868480726	81	127
347.6019501133787	348.33337868480726	73	127
347.6019501133787	348.33337868480726	69	127
347.6019501133787	348.33337868480726	45	127
352.45492063492065	352.69873015873014	69	127
