# onset,offset,note,velocity
0.7538775510204082	0.9396371882086167	50	127
0.7538775510204082	0.9396371882086167	50	127
0.7538775510204082	0.9396371882086167	74	127
1.2763265306122449	1.7058956916099772	69	127
1.7175056689342403	3.041043083900227	78	127
1.7175056689342403	4.341360544217687	50	127
1.7175056689342403	6.477596371882086	57	127
1.7175056689342403	3.041043083900227	69	127
3.0526530612244898	3.667981859410431	76	127
3.0526530612244898	3.667981859410431	67	127
3.679591836734694	4.341360544217687	74	127
3.679591836734694	4.341360544217687	66	127
4.35297052154195	5.142448979591837	73	127
4.35297052154195	7.13936507936508	45	127
4.35297052154195	5.142448979591837	64	127
5.1540589569161	5.780997732426304	71	127
5.1540589569161	5.780997732426304	62	127
5.792607709750567	7.766303854875283	69	127
5.792607709750567	7.766303854875283	61	127
6.489206349206349	6.791065759637188	55	127
6.802675736961452	7.13936507936508	54	127
7.150975056689342	7.4760544217687075	55	127
7.150975056689342	9.763219954648527	45	127
7.4760544217687075	7.766303854875283	52	127
7.7779138321995465	8.416462585034013	69	127
7.7779138321995465	11.725283446712018	57	127
7.7779138321995465	8.416462585034013	61	127
8.428072562358278	9.031791383219955	71	127
8.428072562358278	9.031791383219955	62	127
9.043401360544218	9.763219954648527	64	127
9.043401360544218	9.763219954648527	73	127
9.77482993197279	12.421904761904761	50	127
9.77482993197279	10.378548752834467	74	127
9.77482993197279	10.378548752834467	66	127
10.401768707482994	11.005487528344672	67	127
10.401768707482994	11.005487528344672	76	127
11.028707482993198	12.421904761904761	78	127
11.028707482993198	12.421904761904761	69	127
11.76013605442177	12.154875283446712	59	127
12.154875283446712	12.421904761904761	61	127
12.433514739229025	13.710612244897959	78	127
12.433514739229025	15.254739229024944	50	127
12.433514739229025	13.710612244897959	69	127
12.433514739229025	13.037233560090703	62	127
13.048843537414966	17.007845804988662	57	127
13.722222222222221	14.44204081632653	76	127
13.722222222222221	14.44204081632653	67	127
14.465260770975057	15.254739229024944	74	127
14.465260770975057	15.254739229024944	66	127
15.266349206349206	16.067437641723355	64	127
15.266349206349206	16.067437641723355	73	127
15.266349206349206	17.890204081632653	45	127
16.090657596371884	16.717573696145124	62	127
16.090657596371884	16.717573696145124	71	127
16.72920634920635	18.551972789115645	61	127
16.72920634920635	18.551972789115645	69	127
17.007845804988662	17.240045351473924	59	127
17.251655328798186	17.57673469387755	61	127
17.588344671201813	17.890204081632653	62	127
17.901814058956916	19.167301587301587	40	127
17.901814058956916	21.23387755102041	64	127
18.56358276643991	18.99315192743764	68	127
18.56358276643991	18.99315192743764	59	127
18.99315192743764	19.17891156462585	57	127
18.99315192743764	19.17891156462585	66	127
19.17891156462585	19.991609977324263	68	127
19.17891156462585	20.606938775510205	52	127
19.17891156462585	19.991609977324263	59	127
20.003219954648525	20.606938775510205	71	127
20.003219954648525	20.606938775510205	62	127
20.618548752834467	20.74625850340136	61	127
20.618548752834467	20.74625850340136	69	127
20.618548752834467	23.137913832199548	45	127
20.74625850340136	20.86235827664399	62	127
20.74625850340136	20.86235827664399	71	127
20.86235827664399	20.943628117913832	73	127
20.86235827664399	20.943628117913832	64	127
20.943628117913832	21.872426303854876	62	127
20.943628117913832	21.872426303854876	71	127
21.245487528344672	21.872426303854876	56	127
21.88403628117914	23.137913832199548	57	127
21.88403628117914	23.137913832199548	69	127
21.88403628117914	23.137913832199548	61	127
23.23079365079365	24.194421768707482	69	127
24.206031746031748	25.52956916099773	78	127
24.206031746031748	26.853106575963718	50	127
24.206031746031748	28.989342403628118	57	127
24.206031746031748	25.52956916099773	69	127
25.576009070294784	26.21455782312925	76	127
25.576009070294784	26.21455782312925	67	127
26.226167800453513	26.853106575963718	74	127
26.226167800453513	26.853106575963718	66	127
26.86471655328798	27.538095238095238	73	127
26.86471655328798	29.523401360544216	45	127
26.86471655328798	27.538095238095238	64	127
27.5497052154195	28.304353741496598	71	127
27.5497052154195	28.304353741496598	62	127
28.31596371882086	30.127120181405896	69	127
28.31596371882086	30.127120181405896	61	127
29.00095238095238	29.256371882086167	55	127
29.26798185941043	29.523401360544216	54	127
29.535011337868482	29.80204081632653	55	127
29.535011337868482	32.30979591836735	45	127
29.813650793650794	30.127120181405896	52	127
30.13873015873016	30.777278911564625	69	127
30.13873015873016	34.26027210884354	57	127
30.13873015873016	30.777278911564625	61	127
30.80049886621315	31.68285714285714	71	127
30.80049886621315	31.68285714285714	62	127
31.694467120181407	32.30979591836735	73	127
31.694467120181407	32.30979591836735	64	127
32.32140589569161	32.948344671201816	74	127
32.32140589569161	34.95684807256236	50	127
32.32140589569161	32.948344671201816	66	127
32.95995464852608	33.57528344671202	76	127
32.95995464852608	33.57528344671202	67	127
33.58689342403628	34.95684807256236	69	127
33.58689342403628	34.95684807256236	78	127
34.2718820861678	34.53891156462585	59	127
34.562108843537416	34.95684807256236	61	127
34.968480725623586	36.35004535147392	78	127
34.968480725623586	36.35004535147392	69	127
34.968480725623586	37.685215419501134	50	127
34.968480725623586	35.57219954648526	62	127
35.59541950113379	39.22934240362812	57	127
36.36167800453515	37.02344671201814	76	127
36.36167800453515	37.02344671201814	67	127
37.035056689342404	37.685215419501134	74	127
37.035056689342404	37.685215419501134	66	127
37.696825396825396	40.28585034013606	45	127
37.696825396825396	38.33537414965986	73	127
37.696825396825396	38.33537414965986	64	127
38.346984126984125	38.96231292517007	62	127
38.346984126984125	38.96231292517007	71	127
38.97392290249433	41.191428571428574	69	127
38.97392290249433	41.191428571428574	61	127
39.24095238095238	39.6124716553288	59	127
39.62408163265306	39.96077097505669	61	127
39.97238095238095	40.28585034013606	62	127
40.29746031746032	41.76031746031746	40	127
40.29746031746032	43.93138321995465	64	127
41.203038548752836	41.620997732426304	68	127
41.203038548752836	41.620997732426304	59	127
41.620997732426304	41.77192743764172	57	127
41.620997732426304	41.77192743764172	66	127
41.77192743764172	42.63106575963719	68	127
41.77192743764172	43.223174603174606	52	127
41.77192743764172	42.63106575963719	59	127
42.64267573696145	43.223174603174606	71	127
42.64267573696145	43.223174603174606	62	127
43.23478458049887	43.385714285714286	69	127
43.23478458049887	45.41746031746032	45	127
43.23478458049887	43.385714285714286	61	127
43.385714285714286	43.47859410430839	62	127
43.385714285714286	43.47859410430839	71	127
43.47859410430839	43.64113378684807	73	127
43.47859410430839	43.64113378684807	64	127
43.64113378684807	44.581541950113376	62	127
43.64113378684807	44.581541950113376	71	127
43.954580498866214	44.581541950113376	56	127
44.59312925170068	45.41746031746032	57	127
44.59312925170068	45.41746031746032	69	127
44.59312925170068	45.41746031746032	61	127
45.42907029478458	46.2069387755102	57	127
45.42907029478458	46.2069387755102	54	127
46.218548752834465	46.891927437641726	54	127
46.218548752834465	50.73482993197279	74	127
46.218548752834465	50.73482993197279	62	127
46.218548752834465	46.891927437641726	50	127
46.90353741496599	47.68140589569161	55	127
46.90353741496599	47.68140589569161	52	127
47.693015873015874	47.96004535147392	59	127
47.693015873015874	47.96004535147392	55	127
47.971655328798185	48.22707482993197	57	127
47.971655328798185	48.22707482993197	54	127
48.238684807256234	48.54054421768708	52	127
48.238684807256234	48.54054421768708	55	127
48.55215419501134	48.842403628117914	57	127
48.55215419501134	48.842403628117914	54	127
48.85401360544218	49.457732426303856	59	127
48.85401360544218	49.457732426303856	55	127
49.457732426303856	50.0730612244898	62	127
49.457732426303856	50.0730612244898	59	127
50.08467120181406	50.73482993197279	57	127
50.08467120181406	50.40975056689342	54	127
50.421360544217684	50.73482993197279	50	127
50.758049886621315	51.628798185941044	81	127
50.758049886621315	51.628798185941044	62	127
50.758049886621315	51.33854875283447	54	127
51.35015873015873	51.628798185941044	57	127
51.640408163265306	53.393514739229026	62	127
51.640408163265306	53.393514739229026	62	127
51.640408163265306	52.26734693877551	78	127
51.640408163265306	52.26734693877551	62	127
52.27895691609977	52.847845804988665	64	127
52.27895691609977	52.847845804988665	79	127
52.85945578231293	53.12648526077098	83	127
52.85945578231293	53.12648526077098	67	127
53.13809523809524	53.393514739229026	81	127
53.13809523809524	53.393514739229026	66	127
53.40512471655329	53.881133786848075	79	127
53.40512471655329	54.17138321995465	62	127
53.40512471655329	54.17138321995465	61	127
53.40512471655329	53.881133786848075	64	127
53.89274376417234	54.17138321995465	81	127
53.89274376417234	54.17138321995465	66	127
54.18299319727891	54.856371882086165	83	127
54.18299319727891	54.856371882086165	62	127
54.18299319727891	54.856371882086165	59	127
54.18299319727891	54.856371882086165	67	127
54.86798185941043	55.48331065759637	86	127
54.86798185941043	55.48331065759637	67	127
54.86798185941043	55.48331065759637	55	127
54.86798185941043	55.48331065759637	71	127
55.49492063492063	56.563038548752836	69	127
55.49492063492063	56.563038548752836	62	127
55.49492063492063	56.563038548752836	66	127
55.49492063492063	56.563038548752836	81	127
56.5746485260771	57.13192743764172	81	127
57.143537414965984	58.246485260770974	90	127
57.143537414965984	58.246485260770974	69	127
57.143537414965984	59.69773242630386	50	127
57.143537414965984	58.246485260770974	78	127
58.25809523809524	58.850204081632654	88	127
58.25809523809524	58.850204081632654	67	127
58.25809523809524	58.850204081632654	76	127
58.86181405895692	59.69773242630386	86	127
58.86181405895692	59.69773242630386	74	127
58.86181405895692	59.69773242630386	66	127
59.70934240362812	60.382721088435375	73	127
59.70934240362812	60.382721088435375	85	127
59.70934240362812	60.382721088435375	64	127
59.70934240362812	62.37963718820862	57	127
60.39433106575964	61.05609977324263	71	127
60.39433106575964	61.05609977324263	62	127
60.39433106575964	61.05609977324263	83	127
61.06770975056689	61.82235827664399	76	127
61.06770975056689	63.04140589569161	81	127
61.06770975056689	61.82235827664399	61	127
61.83396825396825	62.37963718820862	74	127
61.83396825396825	62.37963718820862	59	127
62.39124716553288	63.04140589569161	73	127
62.39124716553288	64.20240362811792	45	127
62.39124716553288	63.04140589569161	57	127
63.05301587301587	63.598684807256234	71	127
63.05301587301587	63.598684807256234	81	127
63.05301587301587	63.598684807256234	55	127
63.610294784580496	64.20240362811792	69	127
63.610294784580496	64.20240362811792	81	127
63.610294784580496	64.20240362811792	54	127
64.21401360544218	64.51587301587301	83	127
64.21401360544218	64.95705215419501	67	127
64.21401360544218	64.95705215419501	52	127
64.21401360544218	64.95705215419501	45	127
64.52748299319728	64.95705215419501	85	127
64.96866213151928	67.38353741496599	57	127
64.96866213151928	65.63043083900227	50	127
64.96866213151928	66.45471655328798	52	127
64.96866213151928	66.45471655328798	85	127
64.96866213151928	66.45471655328798	67	127
65.64204081632653	66.45471655328798	45	127
66.46634920634921	67.38353741496599	86	127
66.46634920634921	67.38353741496599	66	127
66.46634920634921	67.38353741496599	50	127
66.46634920634921	67.38353741496599	38	127
67.40675736961451	68.0104761904762	57	127
67.40675736961451	68.0104761904762	54	127
68.02208616780045	72.43385487528344	74	127
68.02208616780045	68.59097505668935	54	127
68.02208616780045	68.59097505668935	50	127
68.02208616780045	72.43385487528344	62	127
68.6025850340136	69.33401360544218	52	127
68.6025850340136	69.33401360544218	55	127
69.3572335600907	69.63587301587302	55	127
69.3572335600907	69.63587301587302	59	127
69.64746031746031	69.91451247165533	57	127
69.64746031746031	69.91451247165533	54	127
69.9261224489796	70.28600907029478	55	127
69.9261224489796	70.28600907029478	52	127
70.29764172335601	70.69238095238096	57	127
70.29764172335601	70.69238095238096	54	127
70.70399092970521	71.26126984126984	59	127
70.70399092970521	71.26126984126984	55	127
71.2728798185941	71.83015873015873	62	127
71.2728798185941	71.83015873015873	59	127
71.841768707483	72.43385487528344	57	127
71.841768707483	72.10879818594104	54	127
72.12040816326531	72.43385487528344	50	127
72.44548752834467	73.13047619047619	62	127
72.44548752834467	72.85183673469388	54	127
72.44548752834467	73.13047619047619	81	127
72.86344671201815	73.13047619047619	57	127
73.14208616780046	75.05773242630386	62	127
73.14208616780046	75.05773242630386	62	127
73.14208616780046	73.93156462585034	78	127
73.14208616780046	73.93156462585034	62	127
73.95478458049887	74.51206349206349	79	127
73.95478458049887	74.51206349206349	64	127
74.52367346938776	74.7907029478458	83	127
74.52367346938776	74.7907029478458	67	127
74.80231292517007	75.05773242630386	81	127
74.80231292517007	75.05773242630386	66	127
75.06934240362811	75.68467120181406	61	127
75.06934240362811	75.40603174603174	79	127
75.06934240362811	75.40603174603174	64	127
75.06934240362811	75.68467120181406	62	127
75.41764172335601	75.68467120181406	81	127
75.41764172335601	75.68467120181406	66	127
75.70789115646258	76.36963718820861	59	127
75.70789115646258	76.36963718820861	62	127
75.70789115646258	76.36963718820861	83	127
75.70789115646258	76.36963718820861	67	127
76.38126984126984	76.97337868480726	67	127
76.38126984126984	76.97337868480726	86	127
76.38126984126984	76.97337868480726	71	127
76.38126984126984	76.97337868480726	55	127
76.98496598639456	77.9950566893424	62	127
76.98496598639456	77.9950566893424	81	127
76.98496598639456	77.9950566893424	69	127
76.98496598639456	77.9950566893424	66	127
78.0066439909297	78.50589569160998	81	127
78.51748299319728	79.66687074829932	78	127
78.51748299319728	81.24585034013606	50	127
78.51748299319728	79.66687074829932	90	127
78.51748299319728	79.66687074829932	69	127
79.67850340136054	80.50281179138322	76	127
79.67850340136054	80.50281179138322	88	127
79.67850340136054	80.50281179138322	67	127
80.51442176870748	81.24585034013606	74	127
80.51442176870748	81.24585034013606	86	127
80.51442176870748	81.24585034013606	66	127
81.25746031746031	83.95097505668934	57	127
81.25746031746031	81.90761904761905	85	127
81.25746031746031	81.90761904761905	73	127
81.25746031746031	81.90761904761905	64	127
81.9192290249433	82.62743764172336	83	127
81.9192290249433	82.62743764172336	71	127
81.9192290249433	82.62743764172336	62	127
82.63904761904762	83.39369614512472	61	127
82.63904761904762	83.39369614512472	76	127
82.63904761904762	84.53147392290249	81	127
83.40530612244898	83.95097505668934	74	127
83.40530612244898	83.95097505668934	59	127
83.96256235827664	85.70408163265306	45	127
83.96256235827664	84.53147392290249	73	127
83.96256235827664	84.53147392290249	57	127
84.54308390022676	85.11195011337868	81	127
84.54308390022676	85.11195011337868	71	127
84.54308390022676	85.11195011337868	55	127
85.12358276643991	85.70408163265306	54	127
85.12358276643991	85.70408163265306	81	127
85.12358276643991	85.70408163265306	69	127
85.71569160997733	86.50517006802721	67	127
85.71569160997733	86.50517006802721	45	127
85.71569160997733	85.99433106575964	83	127
85.71569160997733	86.50517006802721	52	127
86.00591836734694	86.50517006802721	85	127
86.51675736961451	88.1073469387755	52	127
86.51675736961451	88.9897052154195	57	127
86.51675736961451	87.41072562358276	50	127
86.51675736961451	88.1073469387755	85	127
86.51675736961451	88.1073469387755	67	127
87.42235827664399	88.1073469387755	45	127
88.11895691609978	88.9897052154195	38	127
88.11895691609978	88.9897052154195	86	127
88.11895691609978	88.9897052154195	66	127
88.11895691609978	88.9897052154195	50	127
89.00131519274376	89.77918367346939	45	127
89.79077097505669	89.9417006802721	45	127
89.95333333333333	90.52222222222223	54	127
90.53383219954648	90.68473922902494	55	127
90.68473922902494	90.80086167800454	54	127
90.80086167800454	90.95179138321996	52	127
90.95179138321996	91.07950113378685	54	127
91.07950113378685	91.31170068027211	55	127
91.38136054421769	91.5671201814059	52	127
91.63678004535147	91.84575963718821	54	127
91.93863945578231	92.07795918367347	50	127
92.15922902494331	92.33337868480726	49	127
92.42625850340136	92.60038548752834	50	127
92.67006802721089	92.86743764172336	52	127
92.93709750566893	93.09963718820862	54	127
93.18090702947846	93.3550566893424	52	127
93.41310657596372	93.59884353741496	50	127
93.66852607709751	93.83106575963718	49	127
93.66852607709751	94.02843537414967	57	127
93.91233560090703	94.08648526077097	47	127
94.04004535147392	94.15614512471656	57	127
94.17936507936508	94.38832199546485	45	127
94.17936507936508	94.748231292517	67	127
94.4580045351474	94.67859410430839	57	127
94.75986394557823	94.98045351473922	47	127
94.75986394557823	94.92240362811792	69	127
94.92240362811792	95.05011337868481	67	127
95.05011337868481	95.24748299319728	57	127
95.05011337868481	95.18943310657596	66	127
95.18943310657596	95.31714285714285	67	127
95.31714285714285	95.50290249433107	49	127
95.31714285714285	95.50290249433107	69	127
95.58417233560091	95.76993197278911	66	127
95.58417233560091	95.76993197278911	57	127
95.82798185941043	96.01374149659864	45	127
95.82798185941043	96.01374149659864	67	127
96.09501133786848	96.23433106575963	64	127
96.09501133786848	96.23433106575963	57	127
96.30399092970522	96.48975056689342	50	127
96.30399092970522	96.48975056689342	66	127
96.54780045351474	96.72195011337868	67	127
96.54780045351474	96.72195011337868	57	127
96.80321995464853	96.98897959183674	52	127
96.80321995464853	96.98897959183674	69	127
97.07024943310658	97.25600907029478	71	127
97.07024943310658	97.25600907029478	57	127
97.33727891156462	97.53464852607709	54	127
97.33727891156462	97.53464852607709	69	127
97.61591836734694	97.79006802721088	67	127
97.61591836734694	97.79006802721088	57	127
97.87133786848072	98.05709750566893	57	127
97.87133786848072	98.21963718820862	69	127
97.87133786848072	98.05709750566893	66	127
97.87133786848072	98.05709750566893	49	127
98.12675736961451	98.2892970521542	64	127
98.12675736961451	98.2892970521542	57	127
98.23124716553288	98.34734693877552	69	127
98.35895691609977	98.55632653061224	66	127
98.35895691609977	98.83496598639456	78	127
98.35895691609977	98.55632653061224	50	127
98.61437641723356	98.7885260770975	69	127
98.61437641723356	98.7885260770975	57	127
98.83496598639456	99.00911564625851	66	127
98.83496598639456	98.96267573696146	79	127
98.83496598639456	99.00911564625851	62	127
98.96267573696146	99.07877551020408	78	127
99.07877551020408	99.2645351473923	57	127
99.07877551020408	99.20648526077098	76	127
99.07877551020408	99.2645351473923	69	127
99.20648526077098	99.33419501133787	78	127
99.33419501133787	99.51995464852608	79	127
99.33419501133787	99.51995464852608	61	127
99.33419501133787	99.51995464852608	64	127
99.60122448979592	99.81020408163265	76	127
99.60122448979592	99.81020408163265	57	127
99.60122448979592	99.81020408163265	69	127
99.90308390022676	100.08884353741496	66	127
99.90308390022676	100.28621315192744	81	127
99.90308390022676	100.08884353741496	78	127
99.90308390022676	100.08884353741496	62	127
100.1701133786848	100.35587301587302	66	127
100.1701133786848	100.35587301587302	50	127
100.1701133786848	100.35587301587302	74	127
100.2978231292517	100.43714285714286	81	127
100.43714285714286	100.90154195011338	88	127
100.43714285714286	101.65619047619047	76	127
100.43714285714286	100.62290249433107	64	127
100.43714285714286	100.62290249433107	61	127
100.69256235827665	100.86671201814059	76	127
100.69256235827665	100.86671201814059	49	127
100.91315192743764	101.06408163265306	59	127
100.91315192743764	101.01764172335601	90	127
100.91315192743764	101.06408163265306	62	127
101.01764172335601	101.1453514739229	88	127
101.1453514739229	101.31950113378684	47	127
101.1453514739229	101.2730612244898	87	127
101.1453514739229	101.31950113378684	74	127
101.2730612244898	101.40077097505669	88	127
101.40077097505669	101.59814058956916	61	127
101.40077097505669	101.59814058956916	93	127
101.40077097505669	101.59814058956916	57	127
101.66780045351474	101.86517006802721	88	127
101.66780045351474	101.86517006802721	45	127
101.66780045351474	101.86517006802721	73	127
101.66780045351474	101.86517006802721	73	127
101.93482993197279	102.13219954648527	72	127
101.93482993197279	102.13219954648527	93	127
101.93482993197279	102.13219954648527	57	127
101.93482993197279	102.13219954648527	55	127
102.20185941043084	102.39922902494331	43	127
102.20185941043084	102.39922902494331	87	127
102.20185941043084	102.39922902494331	72	127
102.20185941043084	102.39922902494331	69	127
102.46888888888888	102.66625850340137	69	127
102.46888888888888	102.66625850340137	73	127
102.46888888888888	102.66625850340137	40	127
102.46888888888888	102.66625850340137	88	127
102.46888888888888	102.66625850340137	64	127
102.7475283446712	102.92167800453515	40	127
102.7475283446712	102.92167800453515	73	127
102.7475283446712	102.92167800453515	69	127
102.7475283446712	102.92167800453515	85	127
102.7475283446712	102.92167800453515	64	127
102.97972789115646	103.15387755102041	45	127
102.97972789115646	103.15387755102041	81	127
103.23514739229024	103.49056689342403	69	127
103.23514739229024	103.49056689342403	64	127
103.23514739229024	103.49056689342403	73	127
103.23514739229024	103.42090702947846	76	127
103.23514739229024	103.42090702947846	49	127
103.5021768707483	103.68793650793651	52	127
103.5021768707483	103.68793650793651	74	127
103.78081632653061	104.01301587301587	71	127
103.78081632653061	104.01301587301587	64	127
103.78081632653061	104.01301587301587	74	127
103.78081632653061	103.9433560090703	71	127
103.78081632653061	103.9433560090703	56	127
104.01301587301587	104.21038548752834	59	127
104.01301587301587	104.21038548752834	68	127
104.29165532879819	104.45419501133787	62	127
104.29165532879819	104.52385487528345	52	127
104.29165532879819	104.45419501133787	64	127
104.29165532879819	104.52385487528345	71	127
104.5354648526077	105.55714285714286	68	127
104.5354648526077	105.55714285714286	62	127
104.5354648526077	104.70961451247166	57	127
104.5354648526077	105.55714285714286	71	127
104.79088435374149	104.9766439909297	64	127
105.05791383219955	105.25528344671201	57	127
105.3249433106576	105.49909297052154	64	127
105.56875283446712	106.12603174603174	69	127
105.56875283446712	106.12603174603174	57	127
105.56875283446712	106.12603174603174	61	127
106.12603174603174	106.81102040816326	45	127
106.84585034013605	107.03160997732427	45	127
107.04321995464852	107.56566893424036	54	127
107.57727891156462	107.71659863945578	55	127
107.71659863945578	107.85591836734694	54	127
107.85591836734694	107.98362811791384	52	127
107.98362811791384	108.13455782312926	54	127
108.13455782312926	108.35514739229025	55	127
108.42480725623582	108.56412698412699	52	127
108.63378684807256	108.8079365079365	54	127
108.91242630385487	109.08657596371881	50	127
109.1562358276644	109.3419954648526	49	127
109.42326530612245	109.62063492063493	50	127
109.6902947845805	109.88766439909297	52	127
109.93410430839002	110.11986394557823	54	127
110.17791383219955	110.36367346938775	52	127
110.44494331065759	110.61909297052154	50	127
110.70036281179138	111.06027210884353	57	127
110.70036281179138	110.8512925170068	49	127
110.93256235827664	111.12993197278911	47	127
111.0718820861678	111.21120181405895	57	127
111.22281179138322	111.72204081632653	67	127
111.22281179138322	111.40857142857143	45	127
111.48984126984126	111.65238095238095	57	127
111.7336507936508	111.87297052154194	69	127
111.7336507936508	111.93102040816326	47	127
111.87297052154194	112.01229024943311	67	127
112.01229024943311	112.19804988662132	57	127
112.01229024943311	112.14	66	127
112.14	112.2677097505669	67	127
112.2677097505669	112.44185941043084	69	127
112.2677097505669	112.44185941043084	49	127
112.53473922902495	112.73210884353742	66	127
112.53473922902495	112.73210884353742	57	127
112.82498866213152	113.03396825396825	67	127
112.82498866213152	113.03396825396825	45	127
113.10362811791383	113.31260770975057	64	127
113.10362811791383	113.31260770975057	57	127
113.39387755102041	113.57963718820862	50	127
113.39387755102041	113.57963718820862	66	127
113.6492970521542	113.84666666666666	67	127
113.6492970521542	113.84666666666666	57	127
113.92793650793651	114.11369614512472	52	127
113.92793650793651	114.11369614512472	69	127
114.1833560090703	114.35750566893424	71	127
114.1833560090703	114.35750566893424	57	127
114.42716553287981	114.57809523809524	54	127
114.42716553287981	114.57809523809524	69	127
114.64775510204082	114.84512471655329	67	127
114.64775510204082	114.84512471655329	57	127
114.91478458049886	115.07732426303855	57	127
114.91478458049886	115.28630385487529	69	127
114.91478458049886	115.07732426303855	66	127
114.91478458049886	115.07732426303855	49	127
115.15859410430839	115.35596371882086	64	127
115.15859410430839	115.35596371882086	57	127
115.29791383219954	115.42562358276643	69	127
115.4372335600907	115.59977324263039	66	127
115.4372335600907	115.91324263038548	78	127
115.4372335600907	115.59977324263039	50	127
115.66943310657597	115.84358276643991	69	127
115.66943310657597	115.84358276643991	57	127
115.91324263038548	116.0641723356009	66	127
115.91324263038548	116.0641723356009	62	127
115.91324263038548	116.04095238095238	79	127
116.04095238095238	116.14544217687074	78	127
116.14544217687074	116.33120181405896	69	127
116.14544217687074	116.33120181405896	57	127
116.14544217687074	116.28476190476191	76	127
116.28476190476191	116.38925170068028	78	127
116.38925170068028	116.58662131519274	64	127
116.38925170068028	116.58662131519274	79	127
116.38925170068028	116.58662131519274	61	127
116.65628117913832	116.87687074829932	69	127
116.65628117913832	116.87687074829932	76	127
116.65628117913832	116.87687074829932	57	127
116.9465306122449	117.15551020408164	62	127
116.9465306122449	117.15551020408164	66	127
116.9465306122449	117.37609977324263	81	127
116.9465306122449	117.15551020408164	78	127
117.22517006802721	117.4457596371882	66	127
117.22517006802721	117.4457596371882	50	127
117.22517006802721	117.4457596371882	74	127
117.3877097505669	117.51541950113379	81	127
117.51541950113379	117.95659863945578	88	127
117.51541950113379	118.7344671201814	76	127
117.51541950113379	117.71278911564626	64	127
117.51541950113379	117.71278911564626	61	127
117.78244897959183	117.91015873015873	76	127
117.78244897959183	117.91015873015873	49	127
117.96820861678005	118.15396825396826	59	127
117.96820861678005	118.09591836734694	90	127
117.96820861678005	118.15396825396826	62	127
118.09591836734694	118.22362811791383	88	127
118.22362811791383	118.40938775510205	47	127
118.22362811791383	118.35133786848073	87	127
118.22362811791383	118.40938775510205	74	127
118.35133786848073	118.49065759637188	88	127
118.49065759637188	118.66480725623583	61	127
118.49065759637188	118.66480725623583	93	127
118.49065759637188	118.66480725623583	57	127
118.74607709750566	118.92022675736962	73	127
118.74607709750566	118.92022675736962	45	127
118.74607709750566	118.92022675736962	88	127
118.74607709750566	118.92022675736962	73	127
119.00149659863946	119.1756462585034	55	127
119.00149659863946	119.1756462585034	93	127
119.00149659863946	119.1756462585034	72	127
119.00149659863946	119.1756462585034	57	127
119.24530612244898	119.41945578231292	43	127
119.24530612244898	119.41945578231292	87	127
119.24530612244898	119.41945578231292	72	127
119.24530612244898	119.41945578231292	69	127
119.4891156462585	119.67487528344671	69	127
119.4891156462585	119.67487528344671	88	127
119.4891156462585	119.67487528344671	64	127
119.4891156462585	119.67487528344671	73	127
119.4891156462585	119.67487528344671	40	127
119.75614512471655	119.9302947845805	64	127
119.75614512471655	119.9302947845805	69	127
119.75614512471655	119.9302947845805	40	127
119.75614512471655	119.9302947845805	85	127
119.75614512471655	119.9302947845805	73	127
120.01156462585034	120.20893424036281	45	127
120.01156462585034	120.20893424036281	81	127
120.2785941043084	120.53401360544218	69	127
120.2785941043084	120.53401360544218	64	127
120.2785941043084	120.53401360544218	73	127
120.2785941043084	120.47596371882086	76	127
120.2785941043084	120.47596371882086	49	127
120.54562358276644	120.76621315192743	52	127
120.54562358276644	120.76621315192743	74	127
120.83587301587302	121.10290249433106	71	127
120.83587301587302	121.10290249433106	64	127
120.83587301587302	121.10290249433106	74	127
120.83587301587302	121.03324263038549	71	127
120.83587301587302	121.03324263038549	56	127
121.10290249433106	121.30027210884354	59	127
121.10290249433106	121.30027210884354	68	127
121.38154195011337	121.56730158730159	62	127
121.38154195011337	121.63696145124716	52	127
121.38154195011337	121.56730158730159	64	127
121.38154195011337	121.63696145124716	71	127
121.64857142857143	122.73990929705215	71	127
121.64857142857143	122.73990929705215	62	127
121.64857142857143	121.85755102040817	57	127
121.64857142857143	122.73990929705215	68	127
121.93882086167801	122.11297052154195	64	127
122.17102040816326	122.35678004535147	57	127
122.44965986394558	122.6586394557823	64	127
122.75151927437642	123.42489795918367	61	127
122.75151927437642	123.42489795918367	69	127
122.75151927437642	123.42489795918367	57	127
123.43650793650794	123.90090702947846	45	127
123.91251700680272	124.04022675736961	45	127
124.05183673469388	124.86453514739229	50	127
124.87614512471656	124.95741496598639	45	127
124.95741496598639	125.06190476190476	47	127
125.06190476190476	125.1780045351474	49	127
125.1780045351474	125.38698412698413	50	127
125.5495238095238	125.73528344671202	49	127
125.81655328798186	126.01392290249433	50	127
126.07197278911565	126.26934240362812	48	127
126.35061224489796	126.53637188208617	50	127
126.35061224489796	127.38390022675738	67	127
126.61764172335602	126.80340136054421	47	127
126.88467120181406	127.04721088435375	50	127
127.12848072562359	127.32585034013606	46	127
127.39551020408163	127.5928798185941	50	127
127.39551020408163	127.85990929705216	69	127
127.63931972789116	127.80185941043084	45	127
127.87151927437641	128.42879818594105	70	127
127.87151927437641	128.09208616780046	50	127
127.87151927437641	128.2894784580499	62	127
128.161768707483	128.35913832199546	43	127
128.30108843537414	128.42879818594105	62	127
128.44040816326532	128.9628344671202	69	127
128.44040816326532	129.2298866213152	74	127
128.44040816326532	128.62616780045352	42	127
128.7074149659864	128.89319727891157	50	127
128.9744671201814	129.16022675736963	40	127
129.24149659863946	129.33437641723356	69	127
129.24149659863946	129.43886621315193	50	127
129.33437641723356	129.42725623582766	71	127
129.42725623582766	129.5433560090703	73	127
129.5433560090703	129.75233560090703	40	127
129.5433560090703	129.75233560090703	74	127
129.83360544217686	130.0425850340136	73	127
129.83360544217686	130.0425850340136	50	127
130.12385487528346	130.30961451247165	74	127
130.12385487528346	130.30961451247165	42	127
130.39086167800454	130.58825396825398	72	127
130.39086167800454	130.58825396825398	50	127
130.68113378684808	130.86689342403628	43	127
130.68113378684808	131.60993197278913	79	127
130.68113378684808	130.86689342403628	74	127
130.94816326530614	131.09909297052155	71	127
130.94816326530614	131.09909297052155	50	127
131.1571201814059	131.35451247165534	43	127
131.1571201814059	131.35451247165534	74	127
131.37773242630385	131.54027210884354	70	127
131.37773242630385	131.54027210884354	50	127
131.62151927437642	131.81891156462586	74	127
131.62151927437642	132.132358276644	81	127
131.62151927437642	131.81891156462586	42	127
131.88857142857142	132.07433106575965	69	127
131.88857142857142	132.07433106575965	50	127
132.1439909297052	132.65482993197278	82	127
132.1439909297052	132.32975056689344	74	127
132.1439909297052	132.32975056689344	43	127
132.1439909297052	132.51551020408164	62	127
132.41102040816327	132.58517006802722	50	127
132.41102040816327	132.58517006802722	67	127
132.5271201814059	132.65482993197278	62	127
132.66643990929705	133.1888888888889	81	127
132.66643990929705	133.1888888888889	78	127
132.66643990929705	132.85219954648525	74	127
132.66643990929705	132.85219954648525	38	127
132.9334693877551	133.1192290249433	66	127
132.9334693877551	133.1192290249433	57	127
133.2004761904762	133.39786848072563	69	127
133.2004761904762	133.39786848072563	50	127
133.2004761904762	133.32820861678005	79	127
133.32820861678005	133.47913832199546	78	127
133.47913832199546	133.66487528344672	66	127
133.47913832199546	133.66487528344672	57	127
133.47913832199546	133.60684807256237	76	127
133.60684807256237	133.71131519274377	78	127
133.71131519274377	133.89709750566894	64	127
133.71131519274377	133.89709750566894	79	127
133.71131519274377	133.89709750566894	49	127
133.97836734693877	134.1757142857143	69	127
133.97836734693877	134.1757142857143	76	127
133.97836734693877	134.1757142857143	57	127
134.2570068027211	134.41954648526078	50	127
134.2570068027211	134.41954648526078	66	127
134.2570068027211	134.62852607709752	81	127
134.2570068027211	134.41954648526078	78	127
134.5008163265306	134.69818594104308	69	127
134.5008163265306	134.69818594104308	57	127
134.5008163265306	134.69818594104308	74	127
134.64013605442176	134.76784580498867	81	127
134.76784580498867	134.96521541950113	67	127
134.76784580498867	137.03179138321997	91	127
134.76784580498867	134.96521541950113	73	127
134.76784580498867	134.96521541950113	52	127
135.03487528344672	135.2322448979592	69	127
135.03487528344672	135.2322448979592	69	127
135.03487528344672	135.2322448979592	57	127
135.2902947845805	135.48766439909298	74	127
135.2902947845805	135.48766439909298	66	127
135.2902947845805	135.48766439909298	50	127
135.5573015873016	135.76630385487528	69	127
135.5573015873016	135.76630385487528	69	127
135.5573015873016	135.76630385487528	57	127
135.83596371882086	136.02172335600906	49	127
135.83596371882086	136.02172335600906	76	127
135.83596371882086	136.02172335600906	64	127
136.10299319727892	136.28875283446712	69	127
136.10299319727892	136.28875283446712	69	127
136.10299319727892	136.28875283446712	57	127
136.3584126984127	136.5441723356009	62	127
136.3584126984127	136.5441723356009	78	127
136.3584126984127	136.5441723356009	47	127
136.6254195011338	136.81120181405896	69	127
136.6254195011338	136.81120181405896	69	127
136.6254195011338	136.81120181405896	57	127
136.857641723356	137.0434013605442	79	127
136.857641723356	137.0434013605442	61	127
136.857641723356	137.0434013605442	45	127
137.10145124716553	137.28721088435375	45	127
137.10145124716553	137.28721088435375	88	127
137.10145124716553	137.28721088435375	57	127
137.10145124716553	137.28721088435375	67	127
137.10145124716553	137.28721088435375	61	127
137.36848072562358	137.55424036281178	85	127
137.36848072562358	137.55424036281178	49	127
137.63551020408164	137.9025396825397	61	127
137.63551020408164	137.9025396825397	57	127
137.63551020408164	137.9025396825397	67	127
137.63551020408164	137.8328798185941	81	127
137.63551020408164	137.8328798185941	52	127
137.91414965986394	138.0882993197279	57	127
137.91414965986394	138.0882993197279	79	127
138.181179138322	138.4249886621315	64	127
138.181179138322	138.4249886621315	57	127
138.181179138322	138.4249886621315	67	127
138.181179138322	138.37854875283446	76	127
138.181179138322	138.37854875283446	61	127
138.43659863945578	138.61074829931974	64	127
138.43659863945578	138.61074829931974	73	127
138.69201814058957	138.93582766439908	67	127
138.69201814058957	139.00548752834467	57	127
138.69201814058957	138.93582766439908	69	127
138.69201814058957	139.00548752834467	61	127
139.02868480725624	140.16648526077097	61	127
139.02868480725624	140.16648526077097	67	127
139.02868480725624	139.36539682539683	50	127
139.02868480725624	140.16648526077097	76	127
139.3770068027211	139.62081632653062	57	127
139.62081632653062	139.88784580498867	50	127
139.89943310657597	140.16648526077097	57	127
140.17809523809524	140.80503401360545	62	127
140.17809523809524	140.80503401360545	66	127
140.17809523809524	140.80503401360545	74	127
140.17809523809524	140.80503401360545	50	127
140.82825396825396	141.24621315192744	45	127
141.2578231292517	141.4203628117914	45	127
141.4319501133787	142.26789115646258	50	127
142.27950113378685	142.36077097505668	45	127
142.36077097505668	142.46526077097505	47	127
142.46526077097505	142.5581179138322	49	127
142.5581179138322	142.74390022675738	50	127
142.83678004535147	143.0457596371882	49	127
143.16185941043085	143.32437641723357	50	127
143.40566893424037	143.60303854875283	48	127
143.7075283446712	144.70596371882087	67	127
143.7075283446712	143.90489795918367	50	127
143.98614512471656	144.17192743764173	47	127
144.22997732426305	144.40412698412698	50	127
144.48539682539683	144.63632653061225	46	127
144.71759637188208	144.9381859410431	50	127
144.71759637188208	145.2516553287982	69	127
144.9962358276644	145.19360544217687	45	127
145.26326530612246	145.76249433106577	70	127
145.26326530612246	145.46063492063493	50	127
145.26326530612246	145.63478458049886	62	127
145.51868480725625	145.70444444444445	43	127
145.64639455782313	145.76249433106577	62	127
145.77410430839004	146.3197732426304	69	127
145.77410430839004	146.59839002267574	74	127
145.77410430839004	145.9714739229025	42	127
146.05274376417233	146.2501133786848	50	127
146.33138321995466	146.51714285714286	40	127
146.61002267573696	146.80739229024942	50	127
146.61002267573696	146.69129251700681	69	127
146.69129251700681	146.79578231292518	71	127
146.79578231292518	146.88866213151928	73	127
146.88866213151928	147.07442176870748	40	127
146.88866213151928	147.07442176870748	74	127
147.15566893424037	147.3530612244898	73	127
147.15566893424037	147.3530612244898	50	127
147.41108843537415	147.59687074829932	42	127
147.41108843537415	147.59687074829932	74	127
147.66650793650794	147.8522902494331	72	127
147.66650793650794	147.8522902494331	50	127
147.93356009070294	148.93201814058958	79	127
147.93356009070294	148.13090702947846	74	127
147.93356009070294	148.13090702947846	43	127
148.21219954648527	148.38632653061225	71	127
148.21219954648527	148.38632653061225	50	127
148.40956916099773	148.5837188208617	74	127
148.40956916099773	148.5837188208617	43	127
148.65337868480725	148.88557823129253	50	127
148.65337868480725	148.88557823129253	70	127
148.94362811791385	149.47768707482993	81	127
148.94362811791385	149.1409977324263	74	127
148.94362811791385	149.1409977324263	42	127
149.21065759637187	149.4080045351474	50	127
149.21065759637187	149.4080045351474	69	127
149.4892970521542	150.03496598639455	82	127
149.4892970521542	149.68666666666667	74	127
149.4892970521542	149.68666666666667	43	127
149.4892970521542	149.88403628117914	62	127
149.76791383219955	149.965306122449	50	127
149.76791383219955	149.965306122449	67	127
149.8956462585034	150.03496598639455	62	127
150.04657596371882	150.56902494331067	81	127
150.04657596371882	150.56902494331067	78	127
150.04657596371882	150.23233560090702	74	127
150.04657596371882	150.23233560090702	38	127
150.31360544217688	150.49936507936508	66	127
150.31360544217688	150.49936507936508	57	127
150.58061224489796	150.76639455782313	69	127
150.58061224489796	150.76639455782313	50	127
150.58061224489796	150.70834467120181	79	127
150.70834467120181	150.84766439909296	78	127
150.84766439909296	150.98698412698414	66	127
150.84766439909296	150.98698412698414	57	127
150.84766439909296	150.94052154195012	76	127
150.94052154195012	151.0334240362812	78	127
151.0334240362812	151.20757369614512	79	127
151.0334240362812	151.20757369614512	49	127
151.0334240362812	151.20757369614512	64	127
151.28884353741498	151.4629931972789	76	127
151.28884353741498	151.4629931972789	57	127
151.28884353741498	151.4629931972789	69	127
151.54426303854876	151.74163265306123	66	127
151.54426303854876	151.96219954648527	81	127
151.54426303854876	151.74163265306123	78	127
151.54426303854876	151.74163265306123	50	127
151.83451247165533	152.02027210884353	57	127
151.83451247165533	152.02027210884353	74	127
151.83451247165533	152.02027210884353	69	127
151.97383219954648	152.08993197278912	81	127
152.08993197278912	152.27569160997732	52	127
152.08993197278912	154.2958276643991	91	127
152.08993197278912	152.27569160997732	73	127
152.08993197278912	152.27569160997732	67	127
152.35696145124717	152.54272108843537	69	127
152.35696145124717	152.54272108843537	69	127
152.35696145124717	152.54272108843537	57	127
152.61238095238096	152.80975056689343	66	127
152.61238095238096	152.80975056689343	74	127
152.61238095238096	152.80975056689343	50	127
152.87941043083902	153.06517006802721	69	127
152.87941043083902	153.06517006802721	69	127
152.87941043083902	153.06517006802721	57	127
153.12321995464853	153.29736961451246	64	127
153.12321995464853	153.29736961451246	76	127
153.12321995464853	153.29736961451246	49	127
153.37863945578232	153.55278911564625	57	127
153.37863945578232	153.55278911564625	69	127
153.37863945578232	153.55278911564625	69	127
153.6340589569161	153.8198185941043	78	127
153.6340589569161	153.8198185941043	62	127
153.6340589569161	153.8198185941043	47	127
153.90108843537416	154.05201814058958	57	127
153.90108843537416	154.05201814058958	69	127
153.90108843537416	154.05201814058958	69	127
154.1332879818594	154.30743764172337	79	127
154.1332879818594	154.30743764172337	45	127
154.1332879818594	154.30743764172337	61	127
154.36546485260772	154.5744671201814	45	127
154.36546485260772	154.5744671201814	67	127
154.36546485260772	154.5744671201814	61	127
154.36546485260772	154.5744671201814	88	127
154.36546485260772	154.5744671201814	57	127
154.65573696145125	154.84149659863945	49	127
154.65573696145125	154.84149659863945	85	127
154.9227664399093	155.1085260770975	81	127
154.9227664399093	155.1781859410431	57	127
154.9227664399093	155.1781859410431	61	127
154.9227664399093	155.1781859410431	67	127
154.9227664399093	155.1085260770975	52	127
155.18979591836734	155.39877551020408	79	127
155.18979591836734	155.39877551020408	57	127
155.48004535147393	155.6774149659864	61	127
155.48004535147393	155.74705215419502	67	127
155.48004535147393	155.74705215419502	64	127
155.48004535147393	155.6774149659864	76	127
155.48004535147393	155.74705215419502	57	127
155.75868480725623	155.9328344671202	64	127
155.75868480725623	155.9328344671202	73	127
156.0257142857143	156.23469387755102	67	127
156.0257142857143	156.3043537414966	57	127
156.0257142857143	156.23469387755102	69	127
156.0257142857143	156.3043537414966	61	127
156.32757369614512	157.75560090702947	61	127
156.32757369614512	157.75560090702947	67	127
156.32757369614512	156.675873015873	50	127
156.32757369614512	157.75560090702947	76	127
156.68748299319728	157.02414965986395	57	127
157.03578231292516	157.36086167800454	50	127
157.3724716553288	157.75560090702947	57	127
157.778820861678	158.7192290249433	66	127
157.778820861678	158.7192290249433	62	127
157.778820861678	158.7192290249433	50	127
157.778820861678	158.7192290249433	74	127
158.9398185941043	159.36938775510205	69	127
159.36938775510205	159.62480725623584	74	127
159.65963718820862	159.93825396825397	50	127
159.65963718820862	159.93825396825397	66	127
159.65963718820862	159.93825396825397	57	127
159.65963718820862	159.81056689342404	78	127
159.8570068027211	159.99632653061224	62	127
160.05437641723356	160.19367346938776	66	127
160.2285260770975	160.44909297052155	50	127
160.2285260770975	160.44909297052155	66	127
160.2285260770975	160.44909297052155	57	127
160.2285260770975	160.36784580498866	69	127
160.3910657596372	160.49555555555557	74	127
160.54199546485262	160.68131519274377	78	127
160.72775510204082	160.85544217687075	81	127
160.8902947845805	161.01800453514738	79	127
161.0644217687075	161.18054421768707	78	127
161.25020408163266	161.37791383219954	78	127
161.41274376417235	161.5520634920635	74	127
161.57526077097506	161.83068027210885	52	127
161.57526077097506	161.83068027210885	67	127
161.57526077097506	161.83068027210885	57	127
161.57526077097506	161.70299319727891	73	127
161.74943310657596	161.8887528344671	81	127
161.93519274376416	162.06290249433107	79	127
162.08609977324264	162.2718820861678	52	127
162.08609977324264	162.2718820861678	67	127
162.08609977324264	162.2718820861678	57	127
162.08609977324264	162.1790022675737	78	127
162.19061224489795	162.34151927437642	76	127
162.38798185941044	162.49244897959184	74	127
162.53891156462586	162.63179138321996	73	127
162.678231292517	162.78272108843538	78	127
162.82916099773243	162.94526077097507	76	127
162.99170068027212	163.08458049886622	74	127
163.0961904761905	163.23551020408163	73	127
163.27034013605441	163.36319727891157	71	127
163.39804988662132	163.66507936507938	49	127
163.39804988662132	163.66507936507938	64	127
163.39804988662132	163.66507936507938	57	127
163.39804988662132	163.53736961451247	69	127
163.58380952380952	163.71151927437643	73	127
163.75795918367348	163.88566893424036	76	127
163.9321088435374	164.21074829931973	57	127
163.9321088435374	164.21074829931973	49	127
163.9321088435374	164.08303854875282	81	127
163.9321088435374	164.21074829931973	64	127
164.12945578231293	164.25718820861678	85	127
164.30362811791383	164.43133786848074	86	127
164.4777777777778	164.55904761904762	88	127
164.55904761904762	164.663537414966	85	127
164.69836734693877	164.80285714285714	83	127
164.84929705215418	164.98861678004536	81	127
165.0350566893424	165.1627664399093	79	127
165.20920634920634	165.34852607709752	78	127
165.20920634920634	165.41818594104308	66	127
165.20920634920634	165.41818594104308	57	127
165.20920634920634	165.41818594104308	50	127
165.37174603174603	165.4762358276644	86	127
165.53428571428572	165.67360544217686	85	127
165.7200453514739	165.96385487528346	50	127
165.7200453514739	165.96385487528346	66	127
165.7200453514739	165.96385487528346	57	127
165.7200453514739	165.8593650793651	83	127
165.89419501133787	166.0102947845805	81	127
166.05673469387756	166.18444444444444	79	127
166.1960544217687	166.24249433106576	78	127
166.2889342403628	166.4166439909297	83	127
166.46308390022676	166.59079365079364	81	127
166.6024036281179	166.71850340136055	79	127
166.75333333333333	166.86943310657597	78	127
166.91587301587302	167.04356009070295	76	127
167.05519274376417	167.28739229024944	50	127
167.05519274376417	167.28739229024944	66	127
167.05519274376417	167.28739229024944	57	127
167.05519274376417	167.15968253968254	74	127
167.20612244897958	167.32222222222222	62	127
167.36866213151927	167.49637188208618	66	127
167.5195918367347	167.6473015873016	69	127
167.68213151927438	167.79823129251702	74	127
167.8098185941043	167.89111111111112	78	127
167.91430839002268	168.16972789115647	49	127
167.91430839002268	168.16972789115647	64	127
167.91430839002268	168.16972789115647	57	127
167.91430839002268	168.04204081632653	81	127
168.08848072562358	168.22780045351473	81	127
168.27424036281178	168.37873015873015	81	127
168.42514739229026	168.68056689342404	57	127
168.42514739229026	168.68056689342404	47	127
168.42514739229026	168.56448979591838	81	127
168.42514739229026	168.68056689342404	62	127
168.59931972789116	168.7386394557823	81	127
168.7734693877551	168.901179138322	81	127
168.92439909297053	169.04049886621314	81	127
168.92439909297053	169.1449886621315	64	127
168.92439909297053	169.1449886621315	57	127
168.92439909297053	169.1449886621315	49	127
169.07532879818595	169.20303854875283	69	127
169.24947845804988	169.35396825396825	73	127
169.41201814058957	169.5281179138322	76	127
169.57455782312925	169.7022448979592	81	127
169.7487074829932	169.79514739229026	85	127
169.82997732426304	170.1202267573696	47	127
169.82997732426304	170.1202267573696	62	127
169.82997732426304	170.1202267573696	56	127
169.82997732426304	169.9692970521542	88	127
170.01573696145124	170.16666666666666	88	127
170.21308390022676	170.25954648526078	88	127
170.29437641723356	170.56140589569162	45	127
170.29437641723356	170.42208616780044	88	127
170.29437641723356	170.56140589569162	61	127
170.29437641723356	170.56140589569162	57	127
170.46850340136055	170.60784580498867	88	127
170.65428571428572	170.77038548752836	88	127
170.77038548752836	171.02580498866214	59	127
170.77038548752836	170.8168253968254	88	127
170.77038548752836	171.02580498866214	62	127
170.8168253968254	170.89809523809524	86	127
170.9445351473923	171.0838321995465	85	127
171.11868480725624	171.1883446712018	83	127
171.2347619047619	171.55986394557823	40	127
171.2347619047619	171.28122448979593	83	127
171.28122448979593	171.42054421768708	81	127
171.4785941043084	171.59467120181407	80	127
171.62952380952382	171.64111111111112	78	127
171.68757369614514	171.94299319727892	62	127
171.68757369614514	171.7340136054422	78	127
171.68757369614514	171.94299319727892	59	127
171.7340136054422	171.82689342403629	76	127
171.86172335600907	171.98943310657597	74	127
172.01265306122448	172.0474829931973	73	127
172.09392290249434	172.31451247165532	52	127
172.09392290249434	172.1403628117914	73	127
172.1403628117914	172.22163265306122	71	127
172.24485260770976	172.37256235827664	69	127
172.4538321995465	172.5699319727891	68	127
172.6163492063492	173.63802721088436	71	127
172.6163492063492	172.8601814058957	45	127
172.7905215419501	172.9530612244898	62	127
172.96467120181407	173.1271882086168	61	127
173.138820861678	173.2781179138322	62	127
173.138820861678	173.37102040816328	40	127
173.138820861678	173.63802721088436	56	127
173.28975056689342	173.4522902494331	64	127
173.46390022675737	173.63802721088436	62	127
173.64965986394557	174.2533560090703	57	127
173.64965986394557	174.2533560090703	69	127
173.64965986394557	174.2533560090703	61	127
173.64965986394557	173.9282993197279	45	127
174.5087755102041	174.69455782312926	69	127
174.69455782312926	174.89192743764173	74	127
174.903537414966	175.19378684807256	50	127
174.903537414966	175.19378684807256	66	127
174.903537414966	175.19378684807256	57	127
174.903537414966	175.03124716553287	78	127
175.10090702947846	175.25183673469388	62	127
175.29827664399093	175.42596371882087	66	127
175.4724263038549	175.72784580498868	50	127
175.4724263038549	175.72784580498868	66	127
175.4724263038549	175.72784580498868	57	127
175.4724263038549	175.61174603174604	69	127
175.64657596371882	175.78587301587302	74	127
175.83231292517007	175.96004535147392	78	127
176.00648526077097	176.1225850340136	81	127
176.16902494331066	176.2967120181406	79	127
176.34317460317462	176.35478458049886	78	127
176.3780045351474	176.4708843537415	76	127
176.51732426303855	176.61020408163265	78	127
176.63342403628118	176.74952380952382	74	127
176.7843537414966	177.02816326530612	57	127
176.7843537414966	176.90045351473924	73	127
176.7843537414966	177.02816326530612	67	127
176.7843537414966	177.02816326530612	52	127
176.9468934240363	177.07460317460317	81	127
177.12104308390022	177.24875283446713	79	127
177.24875283446713	177.4461224489796	52	127
177.24875283446713	177.4461224489796	67	127
177.24875283446713	177.4461224489796	57	127
177.24875283446713	177.34163265306123	78	127
177.38807256235827	177.49256235827664	76	127
177.5390022675737	177.6782993197279	74	127
177.70154195011338	177.77120181405897	73	127
177.80603174603175	177.89891156462585	78	127
177.93371882086169	178.0730612244898	76	127
178.11950113378686	178.21238095238095	74	127
178.24721088435373	178.3400680272109	73	127
178.3865306122449	178.46780045351474	71	127
178.50263038548752	178.7348299319728	49	127
178.50263038548752	178.7348299319728	64	127
178.50263038548752	178.7348299319728	57	127
178.50263038548752	178.6419501133787	69	127
178.6651700680272	178.79287981859412	73	127
178.83931972789117	178.95539682539683	76	127
179.00183673469388	179.28049886621315	49	127
179.00183673469388	179.28049886621315	64	127
179.00183673469388	179.28049886621315	57	127
179.00183673469388	179.1643990929705	81	127
179.21081632653062	179.33854875283447	85	127
179.38498866213152	179.51269841269843	86	127
179.55913832199548	179.68684807256236	88	127
179.7216553287982	179.84938775510204	85	127
179.88421768707482	179.97707482993198	83	127
179.9887074829932	180.09319727891156	81	127
180.1396371882086	180.2789569160998	79	127
180.32539682539684	180.56920634920635	57	127
180.32539682539684	180.56920634920635	50	127
180.32539682539684	180.44149659863945	78	127
180.32539682539684	180.56920634920635	66	127
180.48791383219955	180.6156462585034	86	127
180.66208616780045	180.75496598639455	85	127
180.8014058956916	181.0568253968254	57	127
180.8014058956916	180.9291156462585	83	127
180.8014058956916	181.0568253968254	66	127
180.8014058956916	181.0568253968254	50	127
180.97555555555556	181.1148752834467	81	127
181.14968253968254	181.28902494331066	79	127
181.3354648526077	181.4283446712018	78	127
181.4631746031746	181.5908843537415	81	127
181.63732426303855	181.7650113378685	79	127
181.79986394557824	181.9391836734694	78	127
181.98562358276644	182.10172335600907	76	127
182.14816326530612	182.41519274376418	50	127
182.14816326530612	182.41519274376418	66	127
182.14816326530612	182.41519274376418	57	127
182.14816326530612	182.29909297052154	74	127
182.3455328798186	182.4732426303855	62	127
182.51968253968255	182.6590022675737	66	127
182.70544217687075	182.82154195011339	69	127
182.86798185941043	182.92603174603175	74	127
182.96086167800453	183.08857142857144	78	127
183.12340136054422	183.39043083900228	49	127
183.12340136054422	183.39043083900228	64	127
183.12340136054422	183.39043083900228	57	127
183.12340136054422	183.26272108843537	81	127
183.30916099773242	183.43687074829933	81	127
183.48331065759638	183.59941043083901	81	127
183.6342403628118	183.8780498866213	47	127
183.6342403628118	183.8780498866213	62	127
183.6342403628118	183.8780498866213	57	127
183.6342403628118	183.76192743764173	81	127
183.80836734693878	183.92448979591836	81	127
183.9709297052154	184.040589569161	81	127
184.06378684807257	184.30761904761906	49	127
184.06378684807257	184.30761904761906	64	127
184.06378684807257	184.30761904761906	57	127
184.06378684807257	184.17990929705215	81	127
184.2263492063492	184.34244897959184	69	127
184.37727891156462	184.5165986394558	73	127
184.56303854875284	184.6675283446712	76	127
184.71396825396826	184.83004535147393	81	127
184.8532879818594	184.91133786848073	85	127
184.9345351473923	185.07387755102042	88	127
184.9345351473923	185.18995464852608	62	127
184.9345351473923	185.18995464852608	56	127
184.9345351473923	185.18995464852608	47	127
185.1087074829932	185.24802721088435	88	127
185.28285714285715	185.39895691609976	88	127
185.44537414965987	185.66598639455782	45	127
185.44537414965987	185.66598639455782	61	127
185.44537414965987	185.66598639455782	57	127
185.44537414965987	185.584716553288	88	127
185.63115646258504	185.72403628117914	88	127
185.78208616780046	185.8285260770975	88	127
185.85172335600907	186.10714285714286	59	127
185.85172335600907	185.8981859410431	88	127
185.85172335600907	186.10714285714286	62	127
185.8981859410431	185.9910657596372	86	127
186.03750566893424	186.16521541950112	85	127
186.21163265306123	186.3277551020408	83	127
186.35097505668935	186.6180045351474	40	127
186.35097505668935	186.3974149659864	83	127
186.3974149659864	186.4902947845805	81	127
186.53673469387755	186.66444444444446	80	127
186.7108843537415	186.78054421768707	78	127
186.78054421768707	187.00113378684807	59	127
186.78054421768707	186.79215419501134	78	127
186.78054421768707	187.00113378684807	62	127
186.79215419501134	186.88503401360543	76	127
186.93145124716554	187.04757369614512	74	127
187.09401360544217	187.19850340136054	73	127
187.22172335600908	187.45392290249433	52	127
187.22172335600908	187.26816326530613	73	127
187.26816326530613	187.3726530612245	71	127
187.40748299319728	187.51197278911565	69	127
187.58163265306123	187.74414965986395	68	127
187.79061224489797	188.7542403628118	71	127
187.79061224489797	188.02281179138322	45	127
187.9415419501134	188.1273015873016	62	127
188.13891156462586	188.278231292517	61	127
188.28984126984128	188.48721088435374	62	127
188.28984126984128	188.58009070294784	40	127
188.28984126984128	188.7542403628118	56	127
188.498820861678	188.61489795918368	64	127
188.61489795918368	188.7542403628118	62	127
188.7658276643991	189.5669387755102	69	127
188.7658276643991	189.13736961451247	45	127
188.7658276643991	189.5669387755102	61	127
188.7658276643991	189.5669387755102	57	127
189.68303854875285	189.79913832199546	69	127
189.79913832199546	189.96167800453514	67	127
189.97328798185941	190.1590476190476	50	127
189.97328798185941	190.1590476190476	69	127
189.97328798185941	190.1590476190476	62	127
189.97328798185941	190.1009977324263	66	127
189.97328798185941	190.1590476190476	66	127
190.12421768707483	190.20548752834466	62	127
190.2519274376417	190.37963718820862	66	127
190.4144671201814	190.6350566893424	50	127
190.4144671201814	190.6350566893424	69	127
190.4144671201814	190.6350566893424	62	127
190.4144671201814	190.53056689342404	69	127
190.4144671201814	190.6350566893424	66	127
190.56539682539682	190.69310657596372	73	127
190.73954648526077	190.8556462585034	74	127
190.90208616780046	191.0414058956916	78	127
191.08784580498866	191.21555555555557	81	127
191.26199546485262	191.3897052154195	85	127
191.43614512471655	191.55224489795918	86	127
191.56385487528345	191.66834467120182	86	127
191.7031746031746	191.80766439909297	86	127
191.8308843537415	192.50426303854874	86	127
191.8308843537415	191.97020408163266	55	127
191.8308843537415	192.50426303854874	71	127
192.0166439909297	192.1443537414966	59	127
192.19079365079364	192.295283446712	62	127
192.34172335600908	192.43460317460318	67	127
192.46943310657596	192.5507029478458	71	127
192.50426303854874	192.75968253968253	83	127
192.50426303854874	192.75968253968253	67	127
192.5855328798186	192.72485260770975	62	127
192.7712925170068	193.29374149659864	80	127
192.7712925170068	193.29374149659864	65	127
192.7712925170068	192.8990022675737	62	127
192.94544217687076	193.0847619047619	62	127
193.11959183673468	193.25891156462586	62	127
193.3053514739229	193.42145124716552	62	127
193.3053514739229	193.4678911564626	81	127
193.3053514739229	193.4678911564626	66	127
193.44467120181406	193.4678911564626	62	127
193.51433106575965	193.64204081632653	62	127
193.68848072562358	193.89746031746031	50	127
193.68848072562358	193.89746031746031	69	127
193.68848072562358	193.89746031746031	62	127
193.68848072562358	193.80458049886622	62	127
193.68848072562358	193.89746031746031	66	127
193.82780045351473	193.95551020408163	64	127
194.00195011337868	194.1296598639456	66	127
194.17609977324264	194.39668934240362	50	127
194.17609977324264	194.39668934240362	69	127
194.17609977324264	194.39668934240362	62	127
194.17609977324264	194.29219954648525	67	127
194.17609977324264	194.39668934240362	66	127
194.3386394557823	194.44312925170067	69	127
194.501179138322	194.60566893424036	71	127
194.6521088435374	194.75659863945577	73	127
194.80303854875282	194.88430839002268	74	127
194.91913832199546	195.0584580498866	76	127
195.09328798185942	195.20938775510203	78	127
195.23260770975057	195.36031746031745	79	127
195.40675736961452	195.5344671201814	81	127
195.58090702947845	196.27750566893425	71	127
195.58090702947845	195.70861678004536	43	127
195.58090702947845	196.27750566893425	83	127
195.58090702947845	196.27750566893425	62	127
195.7550566893424	195.89437641723356	47	127
195.92920634920634	196.0104761904762	50	127
196.05691609977325	196.17301587301588	55	127
196.1962358276644	196.33555555555554	59	127
196.2891156462585	196.53292517006804	79	127
196.2891156462585	196.53292517006804	59	127
196.2891156462585	196.53292517006804	67	127
196.37038548752835	196.49809523809523	62	127
196.54453514739228	197.1018140589569	77	127
196.54453514739228	197.1018140589569	65	127
196.54453514739228	196.68385487528346	62	127
196.54453514739228	197.1018140589569	56	127
196.74190476190475	196.8928344671202	62	127
196.93927437641725	197.06698412698412	62	127
197.11342403628117	197.36884353741496	66	127
197.11342403628117	197.36884353741496	57	127
197.11342403628117	197.25274376417232	78	127
197.11342403628117	197.25274376417232	62	127
197.28757369614513	197.46172335600906	69	127
197.28757369614513	197.42689342403628	62	127
197.47333333333333	197.62426303854875	62	127
197.47333333333333	197.65909297052156	74	127
197.6707029478458	197.93773242630385	50	127
197.6707029478458	197.93773242630385	66	127
197.6707029478458	197.93773242630385	57	127
197.6707029478458	197.82163265306122	78	127
197.86807256235826	197.99578231292517	62	127
198.04222222222222	198.19315192743764	66	127
198.2395918367347	198.50662131519275	50	127
198.2395918367347	198.50662131519275	66	127
198.2395918367347	198.50662131519275	57	127
198.2395918367347	198.3905215419501	69	127
198.43696145124716	198.57628117913833	74	127
198.62272108843538	198.7736507936508	78	127
198.80848072562358	198.9361904761905	81	127
198.98263038548754	199.06390022675737	79	127
199.06390022675737	199.0871201814059	78	127
199.0871201814059	199.1451700680272	76	127
199.19160997732428	199.3077097505669	78	127
199.33092970521542	199.44702947845806	74	127
199.47024943310657	199.69083900226758	52	127
199.47024943310657	199.69083900226758	67	127
199.47024943310657	199.69083900226758	57	127
199.47024943310657	199.5863492063492	73	127
199.621179138322	199.7488888888889	81	127
199.78371882086168	199.89981859410432	79	127
199.94625850340137	200.20167800453515	67	127
199.94625850340137	200.20167800453515	52	127
199.94625850340137	200.07396825396825	78	127
199.94625850340137	200.20167800453515	57	127
200.1204081632653	200.25972789115647	76	127
200.30616780045352	200.42226757369613	74	127
200.45709750566894	200.503537414966	73	127
200.5267573696145	200.66607709750568	78	127
200.71251700680273	200.8402267573696	76	127
200.88666666666666	201.0027664399093	74	127
201.02598639455783	201.14208616780044	73	127
201.1885260770975	201.29301587301586	71	127
201.33945578231294	201.59487528344673	64	127
201.33945578231294	201.59487528344673	57	127
201.33945578231294	201.59487528344673	67	127
201.33945578231294	201.4787755102041	69	127
201.52521541950114	201.65292517006802	73	127
201.69936507936507	201.8154648526077	76	127
201.8502947845805	202.1057142857143	49	127
201.8502947845805	201.98961451247166	81	127
202.0360544217687	202.15215419501135	85	127
202.1985941043084	202.32630385487528	88	127
202.37274376417233	202.6281632653061	64	127
202.37274376417233	202.6281632653061	57	127
202.37274376417233	202.6281632653061	67	127
202.37274376417233	202.50045351473923	91	127
202.54689342403628	202.68621315192743	88	127
202.7210430839002	202.82553287981858	85	127
202.87197278911566	203.1390022675737	45	127
202.87197278911566	203.0112925170068	91	127
203.05773242630386	203.197052154195	88	127
203.2318820861678	203.2667120181406	85	127
203.31315192743764	204.3348299319728	88	127
203.31315192743764	203.59179138321994	50	127
203.5105215419501	203.68467120181407	67	127
203.68467120181407	203.81238095238095	66	127
203.81238095238095	204.06780045351474	45	127
203.81238095238095	203.9865306122449	67	127
203.81238095238095	204.3348299319728	61	127
203.9865306122449	204.1722902494331	69	127
204.1722902494331	204.34643990929706	67	127
204.34643990929706	205.01981859410432	86	127
204.34643990929706	205.01981859410432	66	127
204.34643990929706	204.75278911564627	50	127
204.34643990929706	205.01981859410432	62	127
205.2171882086168	205.37972789115645	69	127
205.37972789115645	205.4958276643991	67	127
205.50743764172336	205.75124716553287	50	127
205.50743764172336	205.75124716553287	69	127
205.50743764172336	205.75124716553287	62	127
205.50743764172336	205.6467573696145	66	127
205.50743764172336	205.75124716553287	66	127
205.69319727891155	205.79768707482992	62	127
205.85573696145124	205.9950566893424	66	127
206.04149659863947	206.27369614512472	50	127
206.04149659863947	206.27369614512472	69	127
206.04149659863947	206.27369614512472	62	127
206.04149659863947	206.1459863945578	69	127
206.04149659863947	206.27369614512472	66	127
206.1924263038549	206.33174603174604	73	127
206.36657596371882	206.50589569160996	74	127
206.55233560090704	206.70326530612246	78	127
206.7497052154195	206.81936507936507	81	127
206.81936507936507	206.92385487528344	85	127
206.9702947845805	207.0980045351474	86	127
207.14444444444445	207.22571428571428	86	127
207.26054421768708	207.33020408163264	86	127
207.3766439909297	208.08485260770976	86	127
207.3766439909297	207.51596371882087	55	127
207.3766439909297	208.08485260770976	71	127
207.55079365079365	207.6901133786848	59	127
207.73655328798185	207.86426303854876	62	127
207.9107029478458	208.02680272108844	67	127
208.0732426303855	208.14290249433105	71	127
208.096462585034	208.3518820861678	83	127
208.096462585034	208.3518820861678	67	127
208.18934240362813	208.30544217687074	62	127
208.36349206349206	208.86272108843536	80	127
208.36349206349206	208.5028117913832	62	127
208.36349206349206	208.86272108843536	65	127
208.54925170068026	208.6653514739229	62	127
208.71179138321995	208.85111111111112	62	127
208.87433106575963	209.0484807256236	66	127
208.87433106575963	208.93238095238095	62	127
208.87433106575963	209.0484807256236	81	127
208.978820861678	209.09492063492064	62	127
209.1413605442177	209.28068027210884	62	127
209.3271201814059	209.55931972789116	50	127
209.3271201814059	209.55931972789116	69	127
209.3271201814059	209.55931972789116	62	127
209.3271201814059	209.44321995464853	62	127
209.3271201814059	209.55931972789116	66	127
209.48965986394558	209.61736961451248	64	127
209.66380952380953	209.80312925170068	66	127
209.84956916099773	210.07015873015874	62	127
209.84956916099773	209.9540589569161	67	127
209.84956916099773	210.07015873015874	66	127
209.84956916099773	210.07015873015874	69	127
209.84956916099773	210.07015873015874	50	127
209.98888888888888	210.12820861678006	69	127
210.16303854875284	210.302358276644	71	127
210.34879818594104	210.41845804988662	73	127
210.41845804988662	210.53455782312926	74	127
210.5809977324263	210.69709750566892	76	127
210.73192743764173	210.82480725623583	78	127
210.84802721088437	210.96412698412698	79	127
211.01056689342403	211.13827664399093	81	127
211.18471655328798	211.91614512471656	71	127
211.18471655328798	211.91614512471656	62	127
211.18471655328798	211.32403628117913	43	127
211.18471655328798	211.91614512471656	83	127
211.37047619047618	211.4981859410431	47	127
211.54462585034014	211.67233560090702	50	127
211.70716553287983	211.8116553287982	55	127
211.85809523809525	211.97419501133786	59	127
211.9277551020408	212.17156462585035	59	127
211.9277551020408	212.17156462585035	79	127
211.9277551020408	212.17156462585035	67	127
212.00902494331066	212.1483446712018	62	127
212.1831746031746	212.69401360544217	56	127
212.1831746031746	212.32249433106577	62	127
212.1831746031746	212.69401360544217	77	127
212.1831746031746	212.69401360544217	65	127
212.36893424036282	212.4966439909297	62	127
212.51986394557824	212.65918367346939	62	127
212.70562358276644	212.96104308390022	66	127
212.70562358276644	212.96104308390022	57	127
212.70562358276644	212.83333333333334	78	127
212.70562358276644	212.83333333333334	62	127
212.8797732426304	213.07714285714286	69	127
212.8797732426304	213.00748299319727	62	127
213.08875283446713	213.23968253968255	62	127
213.08875283446713	213.27451247165533	74	127
213.2861224489796	213.54154195011338	50	127
213.2861224489796	213.54154195011338	66	127
213.2861224489796	213.54154195011338	57	127
213.2861224489796	213.41383219954648	78	127
213.46027210884353	213.61120181405894	62	127
213.65764172335602	213.80857142857144	66	127
213.8550113378685	214.11043083900228	50	127
213.8550113378685	214.11043083900228	66	127
213.8550113378685	214.11043083900228	57	127
213.8550113378685	213.98272108843537	69	127
214.02916099773242	214.1684807256236	74	127
214.21492063492065	214.34263038548752	78	127
214.38907029478457	214.49356009070294	81	127
214.51678004535148	214.6328798185941	79	127
214.67931972789117	214.760589569161	78	127
214.80702947845805	214.9231292517007	76	127
214.93473922902496	215.01600907029479	78	127
215.06244897959184	215.17854875283447	74	127
215.22498866213152	215.4804081632653	52	127
215.22498866213152	215.4804081632653	67	127
215.22498866213152	215.4804081632653	57	127
215.22498866213152	215.36430839002267	73	127
215.41074829931972	215.5500680272109	81	127
215.59650793650795	215.72421768707483	79	127
215.7358276643991	215.96802721088434	57	127
215.7358276643991	215.96802721088434	52	127
215.7358276643991	215.84031746031746	78	127
215.7358276643991	215.96802721088434	67	127
215.88675736961451	216.0144671201814	76	127
216.06090702947847	216.17700680272108	74	127
216.22344671201813	216.3279365079365	73	127
216.35115646258504	216.38598639455782	78	127
216.4208163265306	216.53691609977324	76	127
216.5833560090703	216.7110657596372	74	127
216.75750566893424	216.8619954648526	73	127
216.88521541950112	216.97809523809525	71	127
217.00131519274376	217.23351473922904	64	127
217.00131519274376	217.23351473922904	57	127
217.00131519274376	217.23351473922904	67	127
217.00131519274376	217.1174149659864	69	127
217.16385487528345	217.29156462585033	73	127
217.3380045351474	217.46571428571428	76	127
217.51215419501133	217.75596371882085	49	127
217.51215419501133	217.65147392290248	81	127
217.67469387755102	217.81401360544217	85	127
217.86045351473922	217.91850340136054	88	127
217.9301133786848	218.19714285714286	64	127
217.9301133786848	218.06943310657596	91	127
217.9301133786848	218.19714285714286	57	127
217.9301133786848	218.19714285714286	67	127
218.115873015873	218.25519274376418	88	127
218.30163265306123	218.44095238095238	85	127
218.48739229024943	218.64993197278912	91	127
218.48739229024943	218.87052154195013	45	127
218.70798185941044	218.92857142857142	88	127
218.9750113378685	219.10272108843537	85	127
219.1607709750567	220.46108843537414	88	127
219.1607709750567	219.5671201814059	50	127
219.48585034013607	219.67160997732427	67	127
219.67160997732427	219.74126984126985	66	127
219.74126984126985	220.08956916099774	45	127
219.74126984126985	219.99668934240364	67	127
219.74126984126985	220.46108843537414	61	127
219.99668934240364	220.2288888888889	69	127
220.2288888888889	220.48430839002268	67	127
220.48430839002268	221.80784580498866	62	127
220.48430839002268	221.36666666666667	50	127
220.48430839002268	221.80784580498866	86	127
220.48430839002268	221.80784580498866	66	127
221.8310657596372	222.66698412698412	57	127
222.6785941043084	223.75832199546485	50	127
222.6785941043084	222.8295238095238	66	127
222.6785941043084	223.75832199546485	66	127
222.8295238095238	222.96884353741495	69	127
222.96884353741495	223.09655328798186	71	127
223.09655328798186	223.235873015873	69	127
223.235873015873	223.37519274376416	71	127
223.37519274376416	223.4912925170068	69	127
223.4912925170068	223.6190022675737	71	127
223.6190022675737	223.78154195011336	69	127
223.78154195011336	224.3039909297052	64	127
223.78154195011336	223.90925170068027	67	127
223.78154195011336	224.3039909297052	52	127
223.90925170068027	224.04857142857142	69	127
224.04857142857142	224.1878911564626	71	127
224.1878911564626	224.31560090702948	69	127
224.31560090702948	224.8496598639456	62	127
224.31560090702948	224.44331065759638	66	127
224.31560090702948	224.8496598639456	54	127
224.44331065759638	224.57102040816326	69	127
224.57102040816326	224.7103401360544	71	127
224.7103401360544	224.86126984126983	69	127
224.86126984126983	225.38371882086167	55	127
224.86126984126983	225.01219954648525	64	127
224.86126984126983	225.38371882086167	61	127
225.01219954648525	225.15151927437643	69	127
225.15151927437643	225.26761904761904	71	127
225.26761904761904	225.39532879818594	69	127
225.39532879818594	225.51142857142858	71	127
225.51142857142858	225.63913832199546	69	127
225.63913832199546	225.76684807256237	71	127
225.76684807256237	225.90616780045352	69	127
225.90616780045352	225.98743764172335	71	127
225.98743764172335	226.09192743764171	69	127
226.09192743764171	226.21963718820862	71	127
226.21963718820862	226.3473469387755	69	127
226.3473469387755	226.4750566893424	71	127
226.4750566893424	226.62598639455783	69	127
226.62598639455783	226.7304761904762	71	127
226.7304761904762	226.8814058956916	69	127
226.8814058956916	227.87986394557822	45	127
226.8814058956916	227.0091156462585	73	127
226.8814058956916	227.87986394557822	79	127
227.0091156462585	227.1368253968254	69	127
227.1368253968254	227.26453514739228	71	127
227.26453514739228	227.3922448979592	69	127
227.3922448979592	227.53156462585034	71	127
227.53156462585034	227.64766439909297	69	127
227.64766439909297	227.7637641723356	71	127
227.7637641723356	227.8914739229025	69	127
227.8914739229025	228.37909297052155	47	127
227.8914739229025	228.0191836734694	74	127
227.8914739229025	228.37909297052155	78	127
228.0191836734694	228.135283446712	69	127
228.135283446712	228.25138321995465	71	127
228.25138321995465	228.37909297052155	69	127
228.37909297052155	228.9595918367347	76	127
228.37909297052155	228.55324263038548	67	127
228.37909297052155	228.9595918367347	49	127
228.55324263038548	228.6809523809524	69	127
228.6809523809524	228.80866213151927	71	127
228.80866213151927	228.97120181405896	69	127
228.97120181405896	229.56331065759636	50	127
228.97120181405896	229.09891156462584	66	127
228.97120181405896	229.56331065759636	74	127
229.09891156462584	229.24984126984128	69	127
229.24984126984128	229.38916099773243	71	127
229.38916099773243	229.57492063492063	69	127
229.57492063492063	229.70263038548754	71	127
229.70263038548754	229.81873015873015	69	127
229.81873015873015	229.8651700680272	71	127
229.8651700680272	229.91160997732428	69	127
229.91160997732428	230.03931972789115	71	127
230.03931972789115	230.16702947845806	69	127
230.16702947845806	230.3063492063492	71	127
230.3063492063492	230.4340589569161	69	127
230.4340589569161	230.561768707483	71	127
230.561768707483	230.68947845804988	69	127
230.68947845804988	230.81718820861678	71	127
230.81718820861678	230.93328798185942	69	127
230.93328798185942	231.0609977324263	66	127
230.93328798185942	231.0609977324263	83	127
230.93328798185942	232.2219954648526	50	127
231.0609977324263	231.20031746031745	81	127
231.0609977324263	231.20031746031745	69	127
231.20031746031745	231.32802721088436	66	127
231.20031746031745	231.32802721088436	83	127
231.32802721088436	231.45573696145124	69	127
231.32802721088436	231.45573696145124	81	127
231.45573696145124	231.58344671201814	83	127
231.45573696145124	231.58344671201814	66	127
231.58344671201814	231.69954648526078	81	127
231.58344671201814	231.69954648526078	69	127
231.69954648526078	231.82725623582766	83	127
231.69954648526078	231.82725623582766	66	127
231.82725623582766	231.95496598639457	81	127
231.82725623582766	231.95496598639457	69	127
231.95496598639457	232.08267573696145	81	127
231.95496598639457	232.08267573696145	64	127
232.08267573696145	232.2219954648526	79	127
232.08267573696145	232.2219954648526	69	127
232.2219954648526	232.47741496598638	52	127
232.2219954648526	232.3497052154195	81	127
232.2219954648526	232.3497052154195	64	127
232.3497052154195	232.47741496598638	69	127
232.3497052154195	232.47741496598638	79	127
232.47741496598638	232.73283446712017	54	127
232.47741496598638	232.59351473922902	79	127
232.47741496598638	232.59351473922902	62	127
232.59351473922902	232.73283446712017	78	127
232.59351473922902	232.73283446712017	69	127
232.73283446712017	233.0114739229025	55	127
232.73283446712017	232.8837641723356	79	127
232.73283446712017	232.8837641723356	62	127
232.8837641723356	233.0114739229025	78	127
232.8837641723356	233.0114739229025	69	127
233.0114739229025	234.3234013605442	57	127
233.0114739229025	233.15079365079364	78	127
233.0114739229025	233.15079365079364	61	127
233.0114739229025	234.3234013605442	45	127
233.15079365079364	233.26689342403628	69	127
233.15079365079364	233.26689342403628	76	127
233.26689342403628	233.39460317460316	78	127
233.26689342403628	233.39460317460316	73	127
233.39460317460316	233.53392290249434	76	127
233.39460317460316	233.53392290249434	69	127
233.53392290249434	233.66163265306122	73	127
233.53392290249434	233.66163265306122	78	127
233.66163265306122	233.81256235827664	69	127
233.66163265306122	233.81256235827664	76	127
233.81256235827664	233.94027210884354	73	127
233.81256235827664	233.94027210884354	78	127
233.94027210884354	234.09120181405896	69	127
233.94027210884354	234.09120181405896	76	127
234.09120181405896	234.2073015873016	78	127
234.09120181405896	234.2073015873016	73	127
234.2073015873016	234.3234013605442	76	127
234.2073015873016	234.3234013605442	69	127
234.3234013605442	234.578820861678	47	127
234.3234013605442	234.45111111111112	78	127
234.3234013605442	234.45111111111112	73	127
234.3234013605442	234.578820861678	59	127
234.45111111111112	234.578820861678	69	127
234.45111111111112	234.578820861678	76	127
234.578820861678	234.83424036281178	49	127
234.578820861678	234.7065306122449	78	127
234.578820861678	234.7065306122449	73	127
234.578820861678	234.83424036281178	61	127
234.7065306122449	234.83424036281178	76	127
234.7065306122449	234.83424036281178	69	127
234.83424036281178	235.10126984126984	62	127
234.83424036281178	234.9619501133787	78	127
234.83424036281178	234.9619501133787	73	127
234.83424036281178	235.10126984126984	50	127
234.9619501133787	235.10126984126984	69	127
234.9619501133787	235.10126984126984	76	127
235.10126984126984	237.6322448979592	64	127
235.10126984126984	235.21736961451248	78	127
235.10126984126984	235.21736961451248	73	127
235.10126984126984	237.6322448979592	52	127
235.21736961451248	235.34507936507936	69	127
235.21736961451248	235.34507936507936	76	127
235.34507936507936	235.47278911564626	73	127
235.34507936507936	235.47278911564626	78	127
235.47278911564626	235.60049886621314	76	127
235.47278911564626	235.60049886621314	69	127
235.60049886621314	235.72820861678005	80	127
235.60049886621314	235.72820861678005	74	127
235.72820861678005	235.85591836734693	73	127
235.72820861678005	235.85591836734693	76	127
235.85591836734693	235.9952380952381	74	127
235.85591836734693	235.9952380952381	81	127
235.9952380952381	236.13455782312926	73	127
235.9952380952381	236.13455782312926	76	127
236.13455782312926	236.28548752834467	71	127
236.13455782312926	236.28548752834467	83	127
236.28548752834467	236.4364172335601	76	127
236.28548752834467	236.4364172335601	69	127
236.4364172335601	236.56412698412697	85	127
236.4364172335601	236.56412698412697	71	127
236.56412698412697	236.69183673469388	76	127
236.56412698412697	236.69183673469388	69	127
236.69183673469388	236.78471655328798	68	127
236.69183673469388	236.78471655328798	86	127
236.78471655328798	236.87759637188208	69	127
236.78471655328798	236.87759637188208	76	127
236.87759637188208	237.00530612244899	88	127
236.87759637188208	237.00530612244899	71	127
237.00530612244899	237.10979591836735	68	127
237.00530612244899	237.10979591836735	76	127
237.10979591836735	237.6322448979592	81	127
237.10979591836735	237.26072562358277	73	127
237.26072562358277	237.38843537414965	69	127
237.38843537414965	237.51614512471656	74	127
237.51614512471656	237.64385487528344	71	127
237.64385487528344	238.16630385487528	45	127
237.64385487528344	237.77156462585035	76	127
237.64385487528344	238.16630385487528	57	127
237.77156462585035	237.9108843537415	73	127
237.9108843537415	238.0385941043084	78	127
238.0385941043084	238.17791383219955	74	127
238.17791383219955	238.34045351473924	79	127
238.34045351473924	238.46816326530612	78	127
238.46816326530612	238.59587301587302	76	127
238.59587301587302	238.73519274376417	74	127
238.73519274376417	239.2924716553288	57	127
238.73519274376417	238.86290249433105	73	127
238.86290249433105	238.99061224489796	71	127
238.99061224489796	239.17637188208616	69	127
239.17637188208616	239.30408163265307	67	127
239.30408163265307	240.33736961451248	50	127
239.30408163265307	239.43179138321995	66	127
239.30408163265307	240.33736961451248	66	127
239.43179138321995	239.58272108843536	69	127
239.58272108843536	239.71043083900227	71	127
239.71043083900227	239.83814058956915	69	127
239.83814058956915	239.96585034013606	71	127
239.96585034013606	240.09356009070294	69	127
240.09356009070294	240.22126984126984	71	127
240.22126984126984	240.34897959183672	69	127
240.34897959183672	240.8598185941043	52	127
240.34897959183672	240.4882993197279	67	127
240.34897959183672	240.8598185941043	64	127
240.4882993197279	240.61600907029478	69	127
240.61600907029478	240.7437188208617	71	127
240.7437188208617	240.87142857142857	69	127
240.87142857142857	241.41709750566892	54	127
240.87142857142857	241.02235827664398	66	127
240.87142857142857	241.41709750566892	62	127
241.02235827664398	241.16167800453513	69	127
241.16167800453513	241.3009977324263	71	127
241.3009977324263	241.4287074829932	69	127
241.4287074829932	241.97437641723357	61	127
241.4287074829932	241.5564172335601	64	127
241.4287074829932	241.97437641723357	55	127
241.5564172335601	241.71895691609978	69	127
241.71895691609978	241.85827664399093	71	127
241.85827664399093	241.9859863945578	69	127
241.9859863945578	242.11369614512472	71	127
242.11369614512472	242.2414058956916	69	127
242.2414058956916	242.3691156462585	71	127
242.3691156462585	242.4968253968254	69	127
242.4968253968254	242.6245351473923	71	127
242.6245351473923	242.75224489795917	69	127
242.75224489795917	242.8683446712018	71	127
242.8683446712018	242.98444444444445	69	127
242.98444444444445	243.11215419501133	71	127
243.11215419501133	243.23986394557824	69	127
243.23986394557824	243.36757369614512	71	127
243.36757369614512	243.51850340136053	69	127
243.51850340136053	244.55179138321995	45	127
243.51850340136053	243.6578231292517	73	127
243.51850340136053	244.55179138321995	79	127
243.6578231292517	243.77392290249432	69	127
243.77392290249432	243.90163265306123	71	127
243.90163265306123	244.04095238095238	69	127
244.04095238095238	244.16866213151928	71	127
244.16866213151928	244.29637188208616	69	127
244.29637188208616	244.42408163265307	71	127
244.42408163265307	244.56340136054422	69	127
244.56340136054422	245.02780045351474	47	127
244.56340136054422	244.67950113378686	74	127
244.56340136054422	245.02780045351474	78	127
244.67950113378686	244.80721088435374	69	127
244.80721088435374	244.9117006802721	71	127
244.9117006802721	245.039410430839	69	127
245.039410430839	245.56185941043083	49	127
245.039410430839	245.15551020408162	67	127
245.039410430839	245.56185941043083	76	127
245.15551020408162	245.28321995464853	69	127
245.28321995464853	245.42253968253968	71	127
245.42253968253968	245.5734693877551	69	127
245.5734693877551	246.13074829931972	50	127
245.5734693877551	245.71278911564625	66	127
245.5734693877551	246.13074829931972	74	127
245.71278911564625	245.8637188208617	69	127
245.8637188208617	246.0146485260771	71	127
246.0146485260771	246.142358276644	69	127
246.142358276644	246.25845804988663	71	127
246.25845804988663	246.37455782312927	69	127
246.37455782312927	246.44421768707483	71	127
246.44421768707483	246.57192743764173	69	127
246.57192743764173	246.6996371882086	71	127
246.6996371882086	246.80412698412698	69	127
246.80412698412698	246.92022675736962	71	127
246.92022675736962	247.0479365079365	69	127
247.0479365079365	247.15242630385487	71	127
247.15242630385487	247.29174603174604	69	127
247.29174603174604	247.41945578231292	71	127
247.41945578231292	247.57038548752834	69	127
247.57038548752834	247.68648526077098	66	127
247.57038548752834	247.68648526077098	83	127
247.57038548752834	248.88231292517005	50	127
247.68648526077098	247.82580498866213	81	127
247.68648526077098	247.82580498866213	69	127
247.82580498866213	247.96512471655328	66	127
247.82580498866213	247.96512471655328	83	127
247.96512471655328	248.09283446712018	81	127
247.96512471655328	248.09283446712018	69	127
248.09283446712018	248.23215419501133	83	127
248.09283446712018	248.23215419501133	66	127
248.23215419501133	248.37147392290248	81	127
248.23215419501133	248.37147392290248	69	127
248.37147392290248	248.4991836734694	83	127
248.37147392290248	248.4991836734694	66	127
248.4991836734694	248.62689342403627	81	127
248.4991836734694	248.62689342403627	69	127
248.62689342403627	248.75460317460318	81	127
248.62689342403627	248.75460317460318	64	127
248.75460317460318	248.88231292517005	79	127
248.75460317460318	248.88231292517005	69	127
248.88231292517005	249.16095238095238	52	127
248.88231292517005	249.01002267573696	81	127
248.88231292517005	249.01002267573696	64	127
249.01002267573696	249.16095238095238	79	127
249.01002267573696	249.16095238095238	69	127
249.16095238095238	249.42798185941044	54	127
249.16095238095238	249.2886621315193	79	127
249.16095238095238	249.2886621315193	62	127
249.2886621315193	249.42798185941044	78	127
249.2886621315193	249.42798185941044	69	127
249.42798185941044	249.6950113378685	55	127
249.42798185941044	249.56730158730159	79	127
249.42798185941044	249.56730158730159	62	127
249.56730158730159	249.6950113378685	69	127
249.56730158730159	249.6950113378685	78	127
249.6950113378685	249.82272108843537	61	127
249.6950113378685	251.01854875283448	45	127
249.6950113378685	249.82272108843537	78	127
249.6950113378685	251.01854875283448	57	127
249.82272108843537	249.9736507936508	69	127
249.82272108843537	249.9736507936508	76	127
249.9736507936508	250.11297052154194	73	127
249.9736507936508	250.11297052154194	78	127
250.11297052154194	250.22907029478458	69	127
250.11297052154194	250.22907029478458	76	127
250.22907029478458	250.35678004535148	73	127
250.22907029478458	250.35678004535148	78	127
250.35678004535148	250.4728798185941	69	127
250.35678004535148	250.4728798185941	76	127
250.4728798185941	250.600589569161	73	127
250.4728798185941	250.600589569161	78	127
250.600589569161	250.71668934240364	69	127
250.600589569161	250.71668934240364	76	127
250.71668934240364	250.89083900226757	78	127
250.71668934240364	250.89083900226757	73	127
250.89083900226757	251.01854875283448	76	127
250.89083900226757	251.01854875283448	69	127
251.01854875283448	251.27396825396826	47	127
251.01854875283448	251.14625850340136	78	127
251.01854875283448	251.14625850340136	73	127
251.01854875283448	251.27396825396826	59	127
251.14625850340136	251.27396825396826	69	127
251.14625850340136	251.27396825396826	76	127
251.27396825396826	251.51777777777778	49	127
251.27396825396826	251.39006802721087	78	127
251.27396825396826	251.39006802721087	73	127
251.27396825396826	251.51777777777778	61	127
251.39006802721087	251.51777777777778	76	127
251.39006802721087	251.51777777777778	69	127
251.51777777777778	251.79641723356008	62	127
251.51777777777778	251.6687074829932	78	127
251.51777777777778	251.6687074829932	73	127
251.51777777777778	251.79641723356008	50	127
251.6687074829932	251.79641723356008	69	127
251.6687074829932	251.79641723356008	76	127
251.79641723356008	254.37383219954648	52	127
251.79641723356008	251.91251700680272	78	127
251.79641723356008	251.91251700680272	73	127
251.79641723356008	254.37383219954648	64	127
251.91251700680272	252.05183673469386	69	127
251.91251700680272	252.05183673469386	76	127
252.05183673469386	252.19115646258504	73	127
252.05183673469386	252.19115646258504	78	127
252.19115646258504	252.31886621315192	69	127
252.19115646258504	252.31886621315192	76	127
252.31886621315192	252.43496598639456	74	127
252.31886621315192	252.43496598639456	80	127
252.43496598639456	252.53945578231293	73	127
252.43496598639456	252.53945578231293	76	127
252.53945578231293	252.6671655328798	81	127
252.53945578231293	252.6671655328798	74	127
252.6671655328798	252.8297052154195	76	127
252.6671655328798	252.8297052154195	73	127
252.8297052154195	252.96902494331067	71	127
252.8297052154195	252.96902494331067	83	127
252.96902494331067	253.10834467120182	76	127
252.96902494331067	253.10834467120182	69	127
253.10834467120182	253.2360544217687	85	127
253.10834467120182	253.2360544217687	71	127
253.2360544217687	253.35215419501134	69	127
253.2360544217687	253.35215419501134	76	127
253.35215419501134	253.4566439909297	68	127
253.35215419501134	253.4566439909297	86	127
253.4566439909297	253.58435374149659	76	127
253.4566439909297	253.58435374149659	69	127
253.58435374149659	253.70045351473922	88	127
253.58435374149659	253.70045351473922	71	127
253.70045351473922	253.83977324263037	68	127
253.70045351473922	253.83977324263037	76	127
253.83977324263037	254.37383219954648	81	127
253.83977324263037	253.96748299319728	73	127
253.96748299319728	254.15324263038548	69	127
254.15324263038548	254.28095238095239	74	127
254.28095238095239	254.38544217687075	71	127
254.38544217687075	254.89628117913833	45	127
254.38544217687075	254.51315192743763	76	127
254.38544217687075	254.89628117913833	57	127
254.51315192743763	254.64086167800454	73	127
254.64086167800454	254.76857142857142	78	127
254.76857142857142	254.9078911564626	74	127
254.9078911564626	255.03560090702948	79	127
255.03560090702948	255.16331065759638	78	127
255.16331065759638	255.29102040816326	76	127
255.29102040816326	255.4071201814059	74	127
255.4071201814059	255.5928798185941	73	127
255.4071201814059	255.9760090702948	57	127
255.5928798185941	255.720589569161	71	127
255.720589569161	255.85990929705216	69	127
255.85990929705216	255.98761904761903	67	127
255.98761904761903	257.2531065759637	62	127
255.98761904761903	256.1037188208617	76	127
255.98761904761903	256.1037188208617	66	127
256.1037188208617	256.2314285714286	69	127
256.1037188208617	256.2314285714286	74	127
256.2314285714286	256.3591383219955	66	127
256.2314285714286	256.3591383219955	76	127
256.3591383219955	256.48684807256234	69	127
256.3591383219955	256.48684807256234	74	127
256.48684807256234	256.61455782312925	66	127
256.48684807256234	256.61455782312925	76	127
256.61455782312925	256.7538775510204	74	127
256.61455782312925	256.7538775510204	69	127
256.7538775510204	256.88156462585033	76	127
256.7538775510204	256.88156462585033	66	127
256.88156462585033	256.9976870748299	74	127
256.88156462585033	256.9976870748299	69	127
256.9976870748299	257.1253968253968	66	127
256.9976870748299	257.1253968253968	76	127
257.1253968253968	257.2531065759637	74	127
257.1253968253968	257.2531065759637	69	127
257.2531065759637	257.5085260770975	57	127
257.2531065759637	257.38081632653063	76	127
257.2531065759637	257.38081632653063	66	127
257.38081632653063	257.5085260770975	69	127
257.38081632653063	257.5085260770975	74	127
257.5085260770975	257.64784580498866	76	127
257.5085260770975	257.64784580498866	66	127
257.5085260770975	257.8103628117914	62	127
257.64784580498866	257.8103628117914	74	127
257.64784580498866	257.8103628117914	69	127
257.8103628117914	257.9497052154195	76	127
257.8103628117914	257.9497052154195	66	127
257.8103628117914	258.1238548752834	60	127
257.9497052154195	258.1238548752834	69	127
257.9497052154195	258.1238548752834	74	127
258.1238548752834	258.37927437641724	59	127
258.1238548752834	258.25156462585034	76	127
258.1238548752834	258.25156462585034	67	127
258.25156462585034	258.3908843537415	71	127
258.25156462585034	258.3908843537415	74	127
258.3908843537415	258.5185714285714	76	127
258.3908843537415	258.5185714285714	67	127
258.5185714285714	258.64630385487527	74	127
258.5185714285714	258.64630385487527	71	127
258.64630385487527	258.78562358276645	76	127
258.64630385487527	258.78562358276645	67	127
258.64630385487527	258.9017233560091	55	127
258.78562358276645	258.91333333333336	74	127
258.78562358276645	258.91333333333336	71	127
258.91333333333336	259.0410430839002	76	127
258.91333333333336	259.0410430839002	67	127
259.0410430839002	259.1687528344671	74	127
259.0410430839002	259.1687528344671	71	127
259.1687528344671	259.28485260770975	76	127
259.1687528344671	259.28485260770975	66	127
259.1687528344671	259.41256235827666	62	127
259.28485260770975	259.42417233560093	74	127
259.28485260770975	259.42417233560093	69	127
259.42417233560093	259.5518820861678	76	127
259.42417233560093	259.5518820861678	66	127
259.5518820861678	259.69120181405896	74	127
259.5518820861678	259.69120181405896	69	127
259.69120181405896	259.8073015873016	66	127
259.69120181405896	259.8073015873016	76	127
259.8073015873016	259.9350113378685	74	127
259.8073015873016	259.9350113378685	69	127
259.9350113378685	260.05108843537414	76	127
259.9350113378685	260.05108843537414	66	127
260.05108843537414	260.178820861678	69	127
260.05108843537414	260.178820861678	74	127
260.178820861678	260.3065306122449	69	127
260.178820861678	261.45591836734695	50	127
260.178820861678	260.3065306122449	79	127
260.3065306122449	260.4342403628118	74	127
260.3065306122449	260.4342403628118	78	127
260.4342403628118	260.573537414966	69	127
260.4342403628118	260.573537414966	79	127
260.573537414966	260.7128798185941	74	127
260.573537414966	260.7128798185941	78	127
260.7128798185941	260.840589569161	69	127
260.7128798185941	260.840589569161	79	127
260.840589569161	260.91024943310657	78	127
260.840589569161	260.91024943310657	74	127
260.91024943310657	261.0379591836735	79	127
260.91024943310657	261.0379591836735	69	127
261.0379591836735	261.18888888888887	74	127
261.0379591836735	261.18888888888887	78	127
261.18888888888887	261.32820861678005	79	127
261.18888888888887	261.32820861678005	69	127
261.32820861678005	261.4675283446712	78	127
261.32820861678005	261.4675283446712	74	127
261.4675283446712	261.76938775510206	45	127
261.4675283446712	261.64167800453515	79	127
261.4675283446712	261.64167800453515	69	127
261.64167800453515	261.76938775510206	74	127
261.64167800453515	261.76938775510206	78	127
261.76938775510206	262.0596371882086	50	127
261.76938775510206	261.89707482993197	79	127
261.76938775510206	261.89707482993197	69	127
261.89707482993197	262.0596371882086	74	127
261.89707482993197	262.0596371882086	78	127
262.0596371882086	262.1989342403628	79	127
262.0596371882086	262.1989342403628	69	127
262.0596371882086	262.3382766439909	48	127
262.1989342403628	262.3382766439909	74	127
262.1989342403628	262.3382766439909	78	127
262.3382766439909	262.46598639455783	81	127
262.3382766439909	262.46598639455783	71	127
262.3382766439909	262.64013605442176	47	127
262.46598639455783	262.65174603174603	79	127
262.46598639455783	262.65174603174603	74	127
262.65174603174603	262.7910657596372	81	127
262.65174603174603	262.7910657596372	71	127
262.7910657596372	262.9187528344671	79	127
262.7910657596372	262.9187528344671	74	127
262.9187528344671	263.04648526077096	81	127
262.9187528344671	263.04648526077096	71	127
262.9187528344671	263.1625850340136	43	127
263.04648526077096	263.1741950113379	79	127
263.04648526077096	263.1741950113379	74	127
263.1741950113379	263.3019047619048	81	127
263.1741950113379	263.3019047619048	71	127
263.3019047619048	263.4295918367347	79	127
263.3019047619048	263.4295918367347	74	127
263.4295918367347	263.55732426303854	79	127
263.4295918367347	263.55732426303854	69	127
263.4295918367347	263.6618140589569	50	127
263.55732426303854	263.6734240362812	78	127
263.55732426303854	263.6734240362812	74	127
263.6734240362812	263.7895238095238	79	127
263.6734240362812	263.7895238095238	69	127
263.7895238095238	263.90562358276645	78	127
263.7895238095238	263.90562358276645	74	127
263.90562358276645	264.0101133786848	79	127
263.90562358276645	264.0101133786848	69	127
264.0101133786848	264.12621315192746	78	127
264.0101133786848	264.12621315192746	74	127
264.12621315192746	264.2422902494331	79	127
264.12621315192746	264.2422902494331	69	127
264.2422902494331	264.3584126984127	78	127
264.2422902494331	264.3584126984127	74	127
264.3584126984127	264.4861224489796	83	127
264.3584126984127	264.4861224489796	66	127
264.3584126984127	265.63551020408164	38	127
264.4861224489796	264.6138321995465	69	127
264.4861224489796	264.6138321995465	81	127
264.6138321995465	264.7415419501134	66	127
264.6138321995465	264.7415419501134	83	127
264.7415419501134	264.85761904761904	81	127
264.7415419501134	264.85761904761904	69	127
264.85761904761904	264.9621088435374	66	127
264.85761904761904	264.9621088435374	83	127
264.9621088435374	265.1014512471655	69	127
264.9621088435374	265.1014512471655	81	127
265.1014512471655	265.2407709750567	66	127
265.1014512471655	265.2407709750567	83	127
265.2407709750567	265.3684580498866	69	127
265.2407709750567	265.35687074829934	81	127
265.3684580498866	265.50780045351473	81	127
265.3684580498866	265.50780045351473	64	127
265.50780045351473	265.63551020408164	79	127
265.50780045351473	265.63551020408164	69	127
265.63551020408164	265.85609977324265	40	127
265.63551020408164	265.74	81	127
265.63551020408164	265.74	64	127
265.74	265.85609977324265	69	127
265.74	265.8444897959184	79	127
265.85609977324265	265.98378684807255	62	127
265.85609977324265	265.98378684807255	79	127
265.85609977324265	266.1115192743764	42	127
265.98378684807255	266.1115192743764	69	127
265.98378684807255	266.1115192743764	78	127
266.1115192743764	266.3785487528345	43	127
266.1115192743764	266.2508390022676	79	127
266.1115192743764	266.2508390022676	62	127
266.2508390022676	266.3669387755102	78	127
266.2508390022676	266.3785487528345	69	127
266.3785487528345	266.5294784580499	61	127
266.3785487528345	267.76013605442176	57	127
266.3785487528345	266.5294784580499	78	127
266.3785487528345	269.0372335600907	45	127
266.5294784580499	266.6571882086168	76	127
266.5294784580499	266.6571882086168	69	127
266.6571882086168	266.79650793650796	78	127
266.6571882086168	266.79650793650796	61	127
266.79650793650796	266.9358276643991	76	127
266.79650793650796	266.9358276643991	69	127
266.9358276643991	267.07514739229026	78	127
266.9358276643991	267.07514739229026	61	127
267.07514739229026	267.21444444444444	76	127
267.07514739229026	267.21444444444444	69	127
267.21444444444444	267.36539682539683	78	127
267.21444444444444	267.36539682539683	61	127
267.36539682539683	267.49310657596374	69	127
267.36539682539683	267.49310657596374	76	127
267.49310657596374	267.63242630385486	78	127
267.49310657596374	267.63242630385486	61	127
267.63242630385486	267.76013605442176	76	127
267.63242630385486	267.76013605442176	69	127
267.76013605442176	267.8762358276644	78	127
267.76013605442176	267.8762358276644	62	127
267.76013605442176	267.99233560090704	59	127
267.8762358276644	267.99233560090704	76	127
267.8762358276644	267.99233560090704	69	127
267.99233560090704	268.27097505668934	61	127
267.99233560090704	268.1316326530612	78	127
267.99233560090704	268.1316326530612	64	127
268.1316326530612	268.27097505668934	69	127
268.1316326530612	268.27097505668934	76	127
268.27097505668934	268.39868480725625	66	127
268.27097505668934	268.52639455782315	62	127
268.27097505668934	268.39868480725625	79	127
268.39868480725625	268.52639455782315	69	127
268.39868480725625	268.52639455782315	78	127
268.52639455782315	268.65410430839	81	127
268.52639455782315	268.77020408163264	64	127
268.52639455782315	268.65410430839	67	127
268.65410430839	268.77020408163264	69	127
268.65410430839	268.77020408163264	79	127
268.77020408163264	268.89791383219955	57	127
268.77020408163264	268.89791383219955	83	127
268.77020408163264	269.048820861678	66	127
268.89791383219955	269.048820861678	81	127
268.89791383219955	269.048820861678	69	127
269.048820861678	269.1881632653061	57	127
269.048820861678	269.1881632653061	85	127
269.048820861678	269.30426303854875	45	127
269.048820861678	270.07049886621314	67	127
269.1881632653061	269.315873015873	83	127
269.1881632653061	269.315873015873	69	127
269.315873015873	269.46678004535147	57	127
269.315873015873	269.46678004535147	86	127
269.46678004535147	269.5712925170068	69	127
269.46678004535147	269.5712925170068	85	127
269.5712925170068	269.6990022675737	88	127
269.5712925170068	269.6990022675737	57	127
269.6990022675737	269.8267120181406	86	127
269.6990022675737	269.8267120181406	69	127
269.8267120181406	269.94281179138324	90	127
269.8267120181406	269.94281179138324	57	127
269.94281179138324	270.08213151927436	88	127
269.94281179138324	270.08213151927436	69	127
270.08213151927436	270.20984126984126	91	127
270.08213151927436	270.20984126984126	57	127
270.08213151927436	271.69591836734696	45	127
270.08213151927436	271.69591836734696	57	127
270.20984126984126	270.3259410430839	88	127
270.20984126984126	270.3259410430839	67	127
270.3259410430839	270.4536507936508	83	127
270.3259410430839	270.4536507936508	57	127
270.4536507936508	270.56975056689345	85	127
270.4536507936508	270.5813378684807	67	127
270.5813378684807	271.69591836734696	85	127
270.5813378684807	270.72068027210884	67	127
270.72068027210884	270.84839002267574	69	127
270.84839002267574	270.97609977324265	73	127
270.97609977324265	271.10378684807256	76	127
271.10378684807256	271.2431292517007	79	127
271.2431292517007	271.3940589569161	76	127
271.3940589569161	271.521768707483	73	127
271.521768707483	271.70750566893423	67	127
271.70750566893423	272.2648072562358	50	127
271.70750566893423	271.8352380952381	66	127
271.70750566893423	272.2648072562358	86	127
271.70750566893423	272.2648072562358	38	127
271.8352380952381	271.9977777777778	74	127
271.9977777777778	272.1487074829932	73	127
272.1487074829932	272.2764172335601	71	127
272.2764172335601	272.4157369614513	69	127
272.4157369614513	272.5434467120181	71	127
272.5434467120181	272.67115646258503	67	127
272.67115646258503	272.79886621315194	69	127
272.79886621315194	274.0991836734694	62	127
272.79886621315194	272.94979591836733	76	127
272.79886621315194	272.94979591836733	66	127
272.94979591836733	273.07750566893424	69	127
272.94979591836733	273.07750566893424	74	127
273.07750566893424	273.20521541950114	66	127
273.07750566893424	273.20521541950114	76	127
273.20521541950114	273.33292517006805	69	127
273.20521541950114	273.33292517006805	74	127
273.33292517006805	273.4490022675737	76	127
273.33292517006805	273.4490022675737	66	127
273.4490022675737	273.5883446712018	74	127
273.4490022675737	273.5883446712018	69	127
273.5883446712018	273.7160544217687	76	127
273.5883446712018	273.7160544217687	66	127
273.7160544217687	273.8437641723356	69	127
273.7160544217687	273.8437641723356	74	127
273.8437641723356	273.98308390022675	76	127
273.8437641723356	273.98308390022675	66	127
273.98308390022675	274.11079365079365	74	127
273.98308390022675	274.11079365079365	69	127
274.11079365079365	274.23850340136056	76	127
274.11079365079365	274.23850340136056	66	127
274.11079365079365	274.36619047619047	57	127
274.23850340136056	274.36619047619047	74	127
274.23850340136056	274.36619047619047	69	127
274.36619047619047	274.51714285714286	76	127
274.36619047619047	274.51714285714286	66	127
274.36619047619047	274.64485260770977	62	127
274.51714285714286	274.64485260770977	74	127
274.51714285714286	274.64485260770977	69	127
274.64485260770977	274.9467120181406	60	127
274.64485260770977	274.78414965986394	76	127
274.64485260770977	274.78414965986394	66	127
274.78414965986394	274.9467120181406	69	127
274.78414965986394	274.9467120181406	74	127
274.9467120181406	275.097641723356	76	127
274.9467120181406	275.097641723356	67	127
274.9467120181406	275.21374149659863	59	127
275.097641723356	275.2253514739229	74	127
275.097641723356	275.2253514739229	71	127
275.2253514739229	275.3530612244898	76	127
275.2253514739229	275.3530612244898	67	127
275.3530612244898	275.46916099773244	74	127
275.3530612244898	275.46916099773244	71	127
275.46916099773244	275.60848072562356	76	127
275.46916099773244	275.60848072562356	67	127
275.46916099773244	275.7245804988662	55	127
275.60848072562356	275.7361904761905	74	127
275.60848072562356	275.7361904761905	71	127
275.7361904761905	275.8639002267574	76	127
275.7361904761905	275.8639002267574	67	127
275.8639002267574	276.00319727891156	74	127
275.8639002267574	276.00319727891156	71	127
276.00319727891156	276.1309297052154	76	127
276.00319727891156	276.1309297052154	66	127
276.00319727891156	276.28185941043085	62	127
276.1309297052154	276.2934693877551	74	127
276.1309297052154	276.2934693877551	69	127
276.2934693877551	276.421179138322	76	127
276.2934693877551	276.421179138322	66	127
276.421179138322	276.5488888888889	74	127
276.421179138322	276.5488888888889	69	127
276.5488888888889	276.6765986394558	76	127
276.5488888888889	276.6765986394558	66	127
276.6765986394558	276.83913832199545	74	127
276.6765986394558	276.83913832199545	69	127
276.83913832199545	276.9784580498866	76	127
276.83913832199545	276.9784580498866	66	127
276.9784580498866	277.10616780045353	74	127
276.9784580498866	277.10616780045353	69	127
277.10616780045353	277.2570975056689	79	127
277.10616780045353	277.2570975056689	69	127
277.10616780045353	278.3948752834467	50	127
277.2570975056689	277.4312244897959	74	127
277.2570975056689	277.4312244897959	78	127
277.4312244897959	277.55895691609976	69	127
277.4312244897959	277.55895691609976	79	127
277.55895691609976	277.68666666666667	78	127
277.55895691609976	277.68666666666667	74	127
277.68666666666667	277.8143764172336	79	127
277.68666666666667	277.8143764172336	69	127
277.8143764172336	277.96530612244896	78	127
277.8143764172336	277.96530612244896	74	127
277.96530612244896	278.0814058956916	69	127
277.96530612244896	278.0814058956916	79	127
278.0814058956916	278.16267573696143	78	127
278.0814058956916	278.16267573696143	74	127
278.16267573696143	278.2671655328798	79	127
278.16267573696143	278.2671655328798	69	127
278.2671655328798	278.3948752834467	78	127
278.2671655328798	278.3948752834467	74	127
278.3948752834467	278.5225850340136	79	127
278.3948752834467	278.5225850340136	69	127
278.3948752834467	278.6618820861678	45	127
278.5225850340136	278.6618820861678	74	127
278.5225850340136	278.6618820861678	78	127
278.6618820861678	278.8360544217687	69	127
278.6618820861678	278.9753514739229	50	127
278.6618820861678	278.8360544217687	79	127
278.8360544217687	278.9753514739229	74	127
278.8360544217687	278.9753514739229	78	127
278.9753514739229	279.1263038548753	69	127
278.9753514739229	279.1263038548753	79	127
278.9753514739229	279.26562358276647	48	127
279.1263038548753	279.26562358276647	74	127
279.1263038548753	279.26562358276647	78	127
279.26562358276647	279.41655328798186	81	127
279.26562358276647	279.41655328798186	71	127
279.26562358276647	279.5210430839002	47	127
279.41655328798186	279.5326530612245	79	127
279.41655328798186	279.5326530612245	74	127
279.5326530612245	279.6603628117914	81	127
279.5326530612245	279.6603628117914	71	127
279.6603628117914	279.7996825396825	74	127
279.6603628117914	279.7996825396825	79	127
279.7996825396825	279.92739229024943	81	127
279.7996825396825	279.92739229024943	71	127
279.7996825396825	280.04349206349207	43	127
279.92739229024943	280.05510204081634	79	127
279.92739229024943	280.05510204081634	74	127
280.05510204081634	280.1943990929705	81	127
280.05510204081634	280.1943990929705	71	127
280.1943990929705	280.3105215419501	79	127
280.1943990929705	280.32213151927436	74	127
280.32213151927436	280.5078684807256	79	127
280.32213151927436	280.5078684807256	69	127
280.32213151927436	280.7517006802721	50	127
280.5078684807256	280.7633106575964	78	127
280.5078684807256	280.7633106575964	74	127
280.7633106575964	280.9142176870748	79	127
280.7633106575964	280.9142176870748	69	127
280.9142176870748	281.0303401360544	78	127
280.9142176870748	281.0303401360544	74	127
281.0303401360544	281.1580498866213	79	127
281.0303401360544	281.1580498866213	69	127
281.1580498866213	281.1928798185941	78	127
281.1580498866213	281.1928798185941	74	127
281.1928798185941	281.2625396825397	78	127
281.1928798185941	281.2625396825397	74	127
281.2625396825397	282.5628571428571	38	127
281.2625396825397	281.3902494331066	83	127
281.2625396825397	281.3902494331066	66	127
281.3902494331066	281.5063492063492	69	127
281.3902494331066	281.5063492063492	81	127
281.5063492063492	281.6572789115646	66	127
281.5063492063492	281.6572789115646	83	127
281.6572789115646	281.7849886621315	69	127
281.6572789115646	281.7849886621315	81	127
281.7849886621315	281.91269841269843	66	127
281.7849886621315	281.91269841269843	83	127
281.91269841269843	282.04038548752834	81	127
281.91269841269843	282.04038548752834	69	127
282.04038548752834	282.1681179138322	83	127
282.04038548752834	282.1681179138322	66	127
282.1681179138322	282.28421768707483	81	127
282.1681179138322	282.2958276643991	69	127
282.2958276643991	282.423537414966	81	127
282.2958276643991	282.423537414966	64	127
282.423537414966	282.5628571428571	69	127
282.423537414966	282.5628571428571	79	127
282.5628571428571	282.69056689342403	81	127
282.5628571428571	282.69056689342403	64	127
282.5628571428571	282.7950566893424	40	127
282.69056689342403	282.7950566893424	69	127
282.69056689342403	282.78344671201813	79	127
282.7950566893424	282.9227664399093	79	127
282.7950566893424	282.9227664399093	62	127
282.7950566893424	283.03886621315195	42	127
282.9227664399093	283.03886621315195	78	127
282.9227664399093	283.03886621315195	69	127
283.03886621315195	283.2942857142857	43	127
283.03886621315195	283.17818594104307	79	127
283.03886621315195	283.17818594104307	62	127
283.17818594104307	283.28267573696144	78	127
283.17818594104307	283.2942857142857	69	127
283.2942857142857	283.4336054421769	61	127
283.2942857142857	284.58299319727894	57	127
283.2942857142857	283.4336054421769	78	127
283.2942857142857	285.9413605442177	45	127
283.4336054421769	283.5613151927438	69	127
283.4336054421769	283.5613151927438	76	127
283.5613151927438	283.7006349206349	78	127
283.5613151927438	283.7006349206349	61	127
283.7006349206349	283.8631746031746	76	127
283.7006349206349	283.8631746031746	69	127
283.8631746031746	284.00249433106575	78	127
283.8631746031746	284.00249433106575	61	127
284.00249433106575	284.1069841269841	69	127
284.00249433106575	284.1069841269841	76	127
284.1069841269841	284.1998639455782	78	127
284.1069841269841	284.1998639455782	61	127
284.1998639455782	284.3275736961451	76	127
284.1998639455782	284.3275736961451	69	127
284.3275736961451	284.45528344671203	61	127
284.3275736961451	284.45528344671203	78	127
284.45528344671203	284.58299319727894	69	127
284.45528344671203	284.58299319727894	76	127
284.58299319727894	284.7107029478458	78	127
284.58299319727894	284.7107029478458	62	127
284.58299319727894	284.81519274376416	59	127
284.7107029478458	284.81519274376416	76	127
284.7107029478458	284.81519274376416	69	127
284.81519274376416	284.95451247165533	78	127
284.81519274376416	284.95451247165533	64	127
284.81519274376416	285.08222222222224	61	127
284.95451247165533	285.08222222222224	76	127
284.95451247165533	285.08222222222224	69	127
285.08222222222224	285.2447619047619	66	127
285.08222222222224	285.3840816326531	62	127
285.08222222222224	285.2447619047619	79	127
285.2447619047619	285.3840816326531	78	127
285.2447619047619	285.3840816326531	69	127
285.3840816326531	285.511768707483	67	127
285.3840816326531	285.6859410430839	64	127
285.3840816326531	285.511768707483	81	127
285.511768707483	285.6859410430839	79	127
285.511768707483	285.6859410430839	69	127
285.6859410430839	285.8136281179138	57	127
285.6859410430839	285.8136281179138	83	127
285.6859410430839	285.95297052154194	66	127
285.8136281179138	285.95297052154194	69	127
285.8136281179138	285.95297052154194	81	127
285.95297052154194	286.08068027210885	85	127
285.95297052154194	286.08068027210885	57	127
285.95297052154194	286.22	45	127
285.95297052154194	287.02108843537417	67	127
286.08068027210885	286.22	69	127
286.08068027210885	286.22	83	127
286.22	286.3825396825397	57	127
286.22	286.3825396825397	86	127
286.3825396825397	286.5102494331066	85	127
286.3825396825397	286.5102494331066	69	127
286.5102494331066	286.6379365079365	88	127
286.5102494331066	286.6379365079365	57	127
286.6379365079365	286.76566893424035	86	127
286.6379365079365	286.76566893424035	69	127
286.76566893424035	286.90498866213153	90	127
286.76566893424035	286.90498866213153	57	127
286.90498866213153	287.03269841269844	88	127
286.90498866213153	287.03269841269844	69	127
287.03269841269844	289.5172335600907	45	127
287.03269841269844	287.17201814058956	91	127
287.03269841269844	287.17201814058956	57	127
287.03269841269844	289.5172335600907	57	127
287.17201814058956	287.31133786848073	67	127
287.17201814058956	287.31133786848073	88	127
287.31133786848073	287.43904761904764	83	127
287.31133786848073	287.43904761904764	57	127
287.43904761904764	287.58997732426303	67	127
287.43904761904764	287.57836734693876	85	127
287.58997732426303	287.7409070294785	67	127
287.58997732426303	289.5172335600907	85	127
287.7409070294785	287.90344671201814	69	127
287.90344671201814	288.06596371882085	73	127
288.06596371882085	288.21691609977324	76	127
288.21691609977324	288.42589569161	79	127
288.42589569161	288.6000453514739	76	127
288.6000453514739	288.8206349206349	73	127
288.8206349206349	289.52884353741496	67	127
289.52884353741496	290.44603174603174	86	127
289.52884353741496	290.44603174603174	66	127
289.52884353741496	290.44603174603174	50	127
289.52884353741496	290.44603174603174	38	127
291.20068027210885	292.0830385487528	69	127
292.0946485260771	293.83614512471655	78	127
292.0946485260771	293.83614512471655	69	127
292.0946485260771	293.83614512471655	62	127
292.0946485260771	293.83614512471655	62	127
293.8477551020408	294.4863038548753	76	127
293.8477551020408	294.4863038548753	55	127
293.8477551020408	294.4863038548753	71	127
293.8477551020408	294.4863038548753	67	127
294.4979138321996	295.1248299319728	65	127
294.4979138321996	295.1248299319728	74	127
294.4979138321996	295.1248299319728	71	127
294.4979138321996	295.1248299319728	56	127
295.136462585034	295.8098412698413	69	127
295.136462585034	295.8098412698413	64	127
295.136462585034	295.8098412698413	73	127
295.136462585034	297.7254875283447	57	127
295.8446485260771	296.47160997732425	68	127
295.8446485260771	296.47160997732425	71	127
295.8446485260771	296.47160997732425	65	127
295.8446485260771	296.47160997732425	62	127
296.4832199546485	297.7254875283447	64	127
296.4832199546485	298.51496598639454	61	127
296.4832199546485	297.7254875283447	69	127
297.73709750566894	299.1302947845805	70	127
297.73709750566894	299.7107936507937	54	127
297.73709750566894	299.1302947845805	61	127
298.5265759637188	299.1302947845805	66	127
299.14190476190475	299.7107936507937	65	127
299.14190476190475	299.7107936507937	71	127
299.14190476190475	299.7107936507937	68	127
299.72238095238095	300.31451247165535	73	127
299.72238095238095	300.31451247165535	70	127
299.72238095238095	300.31451247165535	64	127
299.72238095238095	300.9878911564626	66	127
300.3261224489796	300.9878911564626	71	127
300.3261224489796	300.9878911564626	74	127
300.3261224489796	300.9878911564626	62	127
300.99950113378685	301.6496598639456	76	127
300.99950113378685	301.6496598639456	73	127
300.99950113378685	301.6496598639456	61	127
300.99950113378685	301.6496598639456	64	127
301.66124716553287	302.9383673469388	78	127
301.66124716553287	302.9383673469388	74	127
301.66124716553287	302.9383673469388	59	127
301.66124716553287	302.9383673469388	62	127
302.94997732426305	304.227052154195	78	127
302.94997732426305	304.227052154195	66	127
302.94997732426305	304.227052154195	59	127
302.94997732426305	304.8191836734694	62	127
304.2386848072562	304.8191836734694	56	127
304.2386848072562	304.8191836734694	76	127
304.2386848072562	304.8191836734694	71	127
304.8307709750567	305.376462585034	68	127
304.8307709750567	305.376462585034	74	127
304.8307709750567	305.376462585034	59	127
304.8307709750567	305.376462585034	53	127
305.3880725623583	306.0962811791383	73	127
305.3880725623583	306.0962811791383	69	127
305.3880725623583	306.0962811791383	57	127
305.3880725623583	306.0962811791383	54	127
306.1078911564626	306.7232199546485	65	127
306.1078911564626	306.7232199546485	71	127
306.1078911564626	306.7232199546485	56	127
306.1078911564626	306.7232199546485	49	127
306.7348299319728	308.7433560090703	69	127
306.7348299319728	308.1512471655329	54	127
306.7348299319728	307.52430839002267	50	127
306.7348299319728	308.7433560090703	66	127
307.5591383219955	308.1512471655329	48	127
308.16285714285715	309.3702947845805	49	127
308.16285714285715	308.7433560090703	49	127
308.75496598639455	309.9972335600907	68	127
308.75496598639455	309.9972335600907	65	127
308.75496598639455	309.9972335600907	61	127
309.38190476190476	310.6589795918367	38	127
310.008843537415	310.6589795918367	71	127
310.008843537415	312.702335600907	61	127
310.008843537415	311.95931972789117	68	127
310.67061224489794	312.702335600907	42	127
310.67061224489794	311.95931972789117	71	127
311.9825396825397	312.702335600907	66	127
311.9825396825397	312.702335600907	69	127
312.7139455782313	314.072335600907	69	127
314.0839455782313	315.45392290249436	78	127
314.0839455782313	315.45392290249436	69	127
314.0839455782313	315.45392290249436	62	127
314.0839455782313	315.45392290249436	62	127
315.4655102040816	316.13891156462586	76	127
315.4655102040816	316.13891156462586	71	127
315.4655102040816	316.13891156462586	67	127
315.4655102040816	316.13891156462586	55	127
316.1505215419501	316.73102040816326	56	127
316.1505215419501	316.73102040816326	74	127
316.1505215419501	316.73102040816326	71	127
316.1505215419501	316.73102040816326	65	127
316.74263038548753	317.55532879818594	69	127
316.74263038548753	317.55532879818594	64	127
316.74263038548753	317.55532879818594	73	127
316.74263038548753	319.4709750566893	57	127
317.5669387755102	318.2519274376417	71	127
317.5669387755102	318.2519274376417	65	127
317.5669387755102	318.2519274376417	62	127
317.5669387755102	318.2519274376417	68	127
318.263537414966	319.4709750566893	64	127
318.263537414966	320.26045351473925	61	127
318.263537414966	319.4709750566893	69	127
319.4825850340136	320.91061224489795	61	127
319.4825850340136	321.5026984126984	54	127
319.4825850340136	320.91061224489795	70	127
320.2720408163265	320.91061224489795	66	127
320.9222222222222	321.5026984126984	71	127
320.9222222222222	321.5026984126984	68	127
320.9222222222222	321.5026984126984	65	127
321.5143310657596	322.0716099773243	64	127
321.5143310657596	322.0716099773243	73	127
321.5143310657596	322.0716099773243	70	127
321.5143310657596	322.61727891156465	66	127
322.08321995464854	322.61727891156465	71	127
322.08321995464854	322.61727891156465	62	127
322.08321995464854	322.61727891156465	74	127
322.61727891156465	323.2209977324263	73	127
322.61727891156465	323.2209977324263	61	127
322.61727891156465	323.2209977324263	64	127
322.61727891156465	323.2209977324263	76	127
323.2325850340136	324.8812244897959	62	127
323.2325850340136	324.8812244897959	78	127
323.2325850340136	324.8812244897959	74	127
323.2325850340136	324.8812244897959	59	127
324.89283446712017	326.1118820861678	66	127
324.89283446712017	326.6807709750567	62	127
324.89283446712017	326.1118820861678	59	127
324.89283446712017	326.1118820861678	78	127
326.12349206349205	326.6807709750567	76	127
326.12349206349205	326.6807709750567	71	127
326.12349206349205	326.6807709750567	56	127
326.692380952381	327.2844897959184	74	127
326.692380952381	327.2844897959184	68	127
326.692380952381	327.2844897959184	59	127
326.692380952381	327.2844897959184	53	127
327.29609977324264	327.841746031746	69	127
327.29609977324264	327.841746031746	73	127
327.29609977324264	327.841746031746	57	127
327.29609977324264	327.841746031746	54	127
327.85337868480724	328.4687074829932	71	127
327.85337868480724	328.4687074829932	65	127
327.85337868480724	328.4687074829932	56	127
327.85337868480724	328.4687074829932	49	127
328.48031746031745	329.80385487528343	54	127
328.48031746031745	329.11886621315193	50	127
328.48031746031745	330.5120634920635	69	127
328.48031746031745	330.5120634920635	66	127
329.1304761904762	329.80385487528343	48	127
329.8154648526077	330.5120634920635	49	127
329.8154648526077	331.18544217687077	49	127
330.52367346938775	331.88204081632654	68	127
330.52367346938775	331.88204081632654	65	127
330.52367346938775	331.88204081632654	61	127
331.19705215419503	332.520589569161	38	127
331.9052607709751	332.520589569161	71	127
331.9052607709751	333.890566893424	68	127
331.9052607709751	334.8077551020408	61	127
332.5321995464853	334.8077551020408	42	127
332.5321995464853	333.890566893424	71	127
333.9021768707483	334.8077551020408	66	127
333.9021768707483	334.8077551020408	69	127
334.83097505668934	335.608820861678	69	127
335.6204535147392	340.26444444444445	62	127
335.6204535147392	340.26444444444445	74	127
335.6204535147392	336.96721088435373	69	127
335.6204535147392	336.96721088435373	42	127
335.6204535147392	338.27913832199545	60	127
335.6204535147392	340.8333333333333	50	127
336.978820861678	337.5709297052154	67	127
336.978820861678	337.5709297052154	40	127
337.5825396825397	338.27913832199545	38	127
337.5825396825397	338.27913832199545	66	127
338.2907482993197	338.95251700680274	71	127
338.2907482993197	338.95251700680274	59	127
338.2907482993197	338.95251700680274	43	127
338.964126984127	339.62589569160997	62	127
338.964126984127	339.62589569160997	47	127
338.964126984127	339.62589569160997	67	127
339.63750566893424	340.8333333333333	66	127
339.63750566893424	340.8333333333333	57	127
339.63750566893424	340.8333333333333	50	127
340.2760544217687	340.8333333333333	78	127
340.8449433106576	342.0175510204082	81	127
340.8449433106576	342.0175510204082	54	127
340.8449433106576	343.39913832199545	72	127
340.8449433106576	346.0462131519274	62	127
340.8449433106576	346.0462131519274	50	127
342.02916099773245	342.7025396825397	52	127
342.02916099773245	342.7025396825397	79	127
342.71414965986395	343.39913832199545	50	127
342.71414965986395	343.39913832199545	78	127
343.4107482993197	344.07251700680274	71	127
343.4107482993197	344.07251700680274	83	127
343.4107482993197	344.07251700680274	55	127
344.084126984127	344.7691156462585	59	127
344.084126984127	344.7691156462585	74	127
344.084126984127	345.32637188208616	79	127
344.7807256235828	346.0462131519274	69	127
344.7807256235828	346.0462131519274	62	127
345.3380045351474	347.4045804988662	78	127
346.0578231292517	347.9966893424036	55	127
346.0578231292517	347.9966893424036	70	127
346.0578231292517	347.9966893424036	61	127
347.4161904761905	347.9966893424036	76	127
348.0431292517007	348.6352380952381	74	127
348.0431292517007	348.6352380952381	71	127
348.0431292517007	348.6352380952381	54	127
348.0431292517007	349.3666666666667	59	127
348.64684807256236	349.3666666666667	68	127
348.64684807256236	349.3666666666667	53	127
348.64684807256236	349.3666666666667	73	127
349.37827664399094	349.9936054421769	49	127
349.37827664399094	349.9936054421769	71	127
349.37827664399094	349.9936054421769	65	127
349.37827664399094	349.9936054421769	61	127
350.00521541950116	350.59732426303856	62	127
350.00521541950116	350.59732426303856	50	127
350.00521541950116	351.37519274376416	66	127
350.00521541950116	352.6522902494331	69	127
350.6089342403628	352.0253514739229	51	127
350.6089342403628	352.0253514739229	63	127
351.42163265306124	353.2908163265306	67	127
352.0369614512472	353.2908163265306	52	127
352.0369614512472	353.2908163265306	64	127
352.6639002267574	353.2908163265306	71	127
353.3024489795918	353.96421768707484	73	127
353.3024489795918	353.96421768707484	57	127
353.3024489795918	353.96421768707484	67	127
353.3024489795918	353.96421768707484	64	127
353.3024489795918	354.8930158730159	45	127
353.9874376417234	355.8334240362812	73	127
353.9874376417234	355.8334240362812	67	127
353.9874376417234	355.8334240362812	64	127
353.9874376417234	356.5184126984127	57	127
354.90462585034015	355.8334240362812	38	127
355.84503401360547	356.5184126984127	74	127
355.84503401360547	356.5184126984127	66	127
355.84503401360547	356.5184126984127	62	127
355.84503401360547	356.5184126984127	50	127
356.530022675737	357.5517006802721	69	127
357.5633106575964	358.7359183673469	69	127
357.5633106575964	358.7359183673469	42	127
357.5633106575964	362.0099319727891	74	127
357.5633106575964	360.11750566893426	60	127
357.5633106575964	362.0099319727891	62	127
357.5633106575964	362.69489795918366	50	127
358.75913832199547	359.43249433106575	40	127
358.75913832199547	359.43249433106575	67	127
359.44412698412697	360.11750566893426	66	127
359.44412698412697	360.11750566893426	38	127
360.1291156462585	360.74444444444447	43	127
360.1291156462585	360.74444444444447	71	127
360.1291156462585	360.74444444444447	59	127
360.75603174603174	361.4178231292517	47	127
360.75603174603174	361.4178231292517	67	127
360.75603174603174	361.4178231292517	62	127
361.42943310657597	362.69489795918366	50	127
361.42943310657597	362.69489795918366	66	127
361.42943310657597	362.69489795918366	57	127
362.0215419501134	362.69489795918366	78	127
362.70650793650793	364.07650793650794	81	127
362.70650793650793	364.07650793650794	54	127
362.70650793650793	365.23750566893426	72	127
362.70650793650793	367.83814058956915	62	127
362.70650793650793	367.83814058956915	50	127
364.0881179138322	364.66861678004534	52	127
364.0881179138322	364.66861678004534	79	127
364.6802267573696	365.23750566893426	50	127
364.6802267573696	365.23750566893426	78	127
365.24911564625853	365.8063945578231	71	127
365.24911564625853	365.8063945578231	55	127
365.24911564625853	365.8063945578231	83	127
365.8180045351474	366.4797505668934	74	127
365.8180045351474	367.1415419501134	79	127
365.8180045351474	366.4797505668934	59	127
366.4913832199546	367.83814058956915	69	127
366.4913832199546	367.83814058956915	62	127
367.15315192743765	369.28938775510204	78	127
367.8497505668934	369.88149659863944	70	127
367.8497505668934	369.88149659863944	61	127
367.8497505668934	369.88149659863944	55	127
369.3009977324263	369.88149659863944	76	127
369.8931065759637	370.6245351473923	74	127
369.8931065759637	370.6245351473923	71	127
369.8931065759637	370.6245351473923	54	127
369.8931065759637	371.1934013605442	59	127
370.63614512471656	371.1934013605442	73	127
370.63614512471656	371.1934013605442	68	127
370.63614512471656	371.1934013605442	53	127
371.2050340136054	371.8435827664399	71	127
371.2050340136054	371.8435827664399	65	127
371.2050340136054	371.8435827664399	61	127
371.2050340136054	371.8435827664399	49	127
371.8551927437642	372.598231292517	62	127
371.8551927437642	372.598231292517	50	127
371.8551927437642	373.2948299319728	66	127
371.8551927437642	374.7112471655329	69	127
372.6098412698413	374.1539455782313	51	127
372.6098412698413	374.1539455782313	63	127
373.30643990929707	375.3033560090703	67	127
374.1655782312925	375.3033560090703	64	127
374.1655782312925	375.3033560090703	52	127
374.7344671201814	375.3033560090703	71	127
375.31496598639455	377.26544217687075	45	127
375.31496598639455	376.0696145124717	64	127
375.31496598639455	376.0696145124717	73	127
375.31496598639455	376.0696145124717	57	127
375.31496598639455	376.0696145124717	67	127
376.08122448979594	378.1826303854875	73	127
376.08122448979594	378.1826303854875	67	127
376.08122448979594	378.1826303854875	64	127
376.08122448979594	379.3552380952381	57	127
377.277052154195	378.1826303854875	38	127
378.20585034013607	379.3552380952381	66	127
378.20585034013607	379.3552380952381	74	127
378.20585034013607	379.3552380952381	62	127
378.20585034013607	379.3552380952381	50	127
379.3784580498866	380.88775510204084	69	127
379.3784580498866	380.88775510204084	57	127
380.89936507936505	381.13156462585033	38	127
380.89936507936505	381.8397732426304	66	127
380.89936507936505	381.0038548752834	81	127
380.89936507936505	381.8397732426304	78	127
381.0038548752834	381.07351473922904	83	127
381.07351473922904	381.1431746031746	81	127
381.1431746031746	381.2012244897959	83	127
381.2012244897959	381.468253968254	54	127
381.2012244897959	381.29410430839005	81	127
381.29410430839005	381.4102040816326	83	127
381.4102040816326	381.47986394557824	81	127
381.47986394557824	381.53791383219954	83	127
381.53791383219954	381.7468934240363	45	127
381.53791383219954	381.60757369614515	81	127
381.60757369614515	381.688843537415	83	127
381.688843537415	381.7817233560091	81	127
381.7817233560091	381.85138321995464	83	127
381.85138321995464	381.97909297052155	79	127
381.85138321995464	381.909433106576	81	127
381.85138321995464	381.97909297052155	67	127
381.85138321995464	382.03714285714284	54	127
381.909433106576	381.97909297052155	83	127
381.97909297052155	382.1184126984127	66	127
381.97909297052155	382.0487528344671	81	127
381.97909297052155	382.1184126984127	78	127
382.0487528344671	382.1184126984127	83	127
382.1184126984127	382.3041723356009	38	127
382.1184126984127	382.176462585034	81	127
382.1184126984127	382.3041723356009	76	127
382.1184126984127	382.3041723356009	64	127
382.176462585034	382.2461224489796	83	127
382.2461224489796	382.3157823129252	81	127
382.3157823129252	382.38544217687075	83	127
382.38544217687075	382.51315192743766	66	127
382.38544217687075	382.57120181405895	54	127
382.38544217687075	382.44349206349204	81	127
382.38544217687075	382.51315192743766	78	127
382.44349206349204	382.51315192743766	83	127
382.51315192743766	382.6408616780045	76	127
382.51315192743766	382.5828117913832	81	127
382.51315192743766	382.6408616780045	64	127
382.5828117913832	382.6408616780045	83	127
382.6408616780045	382.82662131519277	62	127
382.6408616780045	382.82662131519277	74	127
382.6408616780045	382.71052154195013	81	127
382.6408616780045	382.82662131519277	45	127
382.71052154195013	382.7685714285714	83	127
382.7685714285714	382.838231292517	81	127
382.838231292517	382.9078911564626	83	127
382.9078911564626	383.0820408163265	54	127
382.9078911564626	382.97755102040816	81	127
382.9078911564626	383.02399092970523	76	127
382.9078911564626	383.02399092970523	64	127
382.97755102040816	383.02399092970523	83	127
383.02399092970523	383.0936507936508	81	127
383.02399092970523	383.16331065759636	74	127
383.02399092970523	383.16331065759636	62	127
383.0936507936508	383.16331065759636	83	127
383.16331065759636	383.33746031746034	61	127
383.16331065759636	383.232970521542	81	127
383.16331065759636	383.33746031746034	73	127
383.16331065759636	383.33746031746034	40	127
383.232970521542	383.279410430839	83	127
383.279410430839	383.34907029478455	81	127
383.34907029478455	383.41873015873017	83	127
383.41873015873017	383.5580498866213	62	127
383.41873015873017	383.5928798185941	55	127
383.41873015873017	383.48839002267573	81	127
383.41873015873017	383.5580498866213	74	127
383.48839002267573	383.5580498866213	83	127
383.5580498866213	383.66253968253966	61	127
383.5580498866213	383.60448979591837	81	127
383.5580498866213	383.66253968253966	73	127
383.60448979591837	383.66253968253966	83	127
383.66253968253966	383.7321995464853	81	127
383.66253968253966	383.8482993197279	71	127
383.66253968253966	383.8482993197279	59	127
383.66253968253966	383.8482993197279	38	127
383.7321995464853	383.80185941043084	83	127
383.80185941043084	383.8599092970521	81	127
383.8599092970521	383.92956916099774	83	127
383.92956916099774	383.9992290249433	81	127
383.92956916099774	384.06888888888886	73	127
383.92956916099774	384.06888888888886	61	127
383.92956916099774	384.11532879818594	55	127
383.9992290249433	384.06888888888886	83	127
384.06888888888886	384.161768707483	59	127
384.06888888888886	384.11532879818594	81	127
384.06888888888886	384.161768707483	71	127
384.11532879818594	384.161768707483	83	127
384.161768707483	385.24149659863946	57	127
384.161768707483	384.2314285714286	81	127
384.161768707483	384.30108843537414	37	127
384.161768707483	385.24149659863946	69	127
384.2314285714286	384.30108843537414	83	127
384.30108843537414	384.3591383219955	81	127
384.30108843537414	384.42879818594105	55	127
384.3591383219955	384.42879818594105	83	127
384.42879818594105	384.4984580498866	81	127
384.42879818594105	384.5681179138322	54	127
384.4984580498866	384.5681179138322	83	127
384.5681179138322	384.6958276643991	52	127
384.5681179138322	384.6377777777778	81	127
384.6377777777778	384.6958276643991	83	127
384.6958276643991	384.83514739229025	50	127
384.6958276643991	384.7654875283447	81	127
384.7654875283447	384.83514739229025	83	127
384.83514739229025	384.9048072562358	81	127
384.83514739229025	384.96285714285716	49	127
384.9048072562358	384.96285714285716	83	127
384.96285714285716	385.11378684807255	47	127
384.96285714285716	385.06734693877553	81	127
385.06734693877553	385.1602267573696	80	127
385.11378684807255	385.24149659863946	45	127
385.1602267573696	385.24149659863946	81	127
385.24149659863946	385.4388662131519	49	127
385.24149659863946	386.0774149659864	69	127
385.24149659863946	386.0774149659864	57	127
385.24149659863946	386.2167346938775	91	127
385.5085260770975	385.70589569160995	45	127
385.7987755102041	386.0077551020408	49	127
386.0890249433107	386.28639455782314	45	127
386.0890249433107	386.2283446712018	68	127
386.0890249433107	386.2283446712018	56	127
386.2283446712018	386.34444444444443	91	127
386.2283446712018	386.3560544217687	69	127
386.2283446712018	386.3560544217687	57	127
386.3560544217687	386.5418140589569	71	127
386.3560544217687	386.5418140589569	59	127
386.3560544217687	386.5418140589569	50	127
386.3560544217687	386.59986394557825	90	127
386.6114739229025	386.7972335600907	45	127
386.6114739229025	386.73918367346937	69	127
386.6114739229025	386.73918367346937	57	127
386.73918367346937	386.8668934240363	90	127
386.73918367346937	386.87850340136055	71	127
386.73918367346937	386.87850340136055	59	127
386.87850340136055	387.0526530612245	73	127
386.87850340136055	387.0526530612245	61	127
386.87850340136055	387.0526530612245	55	127
386.87850340136055	387.09909297052155	88	127
387.1107029478458	387.25002267573694	71	127
387.1107029478458	387.25002267573694	59	127
387.1107029478458	387.296462585034	45	127
387.25002267573694	387.3661224489796	88	127
387.25002267573694	387.37773242630385	73	127
387.25002267573694	387.37773242630385	61	127
387.37773242630385	387.5286621315193	74	127
387.37773242630385	387.5286621315193	62	127
387.37773242630385	387.5286621315193	54	127
387.37773242630385	387.5867120181406	86	127
387.59832199546486	387.73764172335603	73	127
387.59832199546486	387.73764172335603	61	127
387.59832199546486	387.78408163265306	45	127
387.73764172335603	387.8537414965986	86	127
387.73764172335603	387.8653514739229	74	127
387.73764172335603	387.8653514739229	62	127
387.8653514739229	388.06272108843535	76	127
387.8653514739229	388.06272108843535	64	127
387.8653514739229	388.06272108843535	49	127
387.8653514739229	388.1207709750567	81	127
388.13238095238097	388.29492063492063	74	127
388.13238095238097	388.29492063492063	62	127
388.13238095238097	388.352970521542	45	127
388.29492063492063	388.41102040816327	81	127
388.29492063492063	388.42263038548754	76	127
388.29492063492063	388.42263038548754	64	127
388.42263038548754	388.62	78	127
388.42263038548754	388.62	66	127
388.42263038548754	388.62	50	127
388.42263038548754	388.9682993197279	78	127
388.68965986394556	388.840589569161	57	127
388.68965986394556	388.840589569161	69	127
388.68965986394556	388.8986394557823	50	127
388.840589569161	388.9682993197279	59	127
388.840589569161	388.9682993197279	71	127
388.9682993197279	389.1656689342404	73	127
388.9682993197279	389.1656689342404	61	127
388.9682993197279	389.1656689342404	45	127
389.2469387755102	389.3978684807256	74	127
389.2469387755102	389.3978684807256	62	127
389.2469387755102	389.4675283446712	42	127
389.3978684807256	389.54879818594105	76	127
389.3978684807256	389.54879818594105	64	127
389.54879818594105	390.37310657596373	66	127
389.54879818594105	389.60684807256234	81	127
389.54879818594105	389.73455782312925	38	127
389.54879818594105	390.37310657596373	78	127
389.60684807256234	389.67650793650796	83	127
389.67650793650796	389.7461678004535	81	127
389.7461678004535	389.8158276643991	83	127
389.8158276643991	389.8970975056689	81	127
389.8158276643991	390.0248072562358	54	127
389.8970975056689	389.9667573696145	83	127
389.9667573696145	390.0364172335601	81	127
390.0364172335601	390.10607709750565	83	127
390.10607709750565	390.3034467120181	45	127
390.10607709750565	390.17573696145126	81	127
390.17573696145126	390.2453968253968	83	127
390.2453968253968	390.3150566893424	81	127
390.3150566893424	390.384716553288	83	127
390.384716553288	390.51242630385485	67	127
390.384716553288	390.45437641723356	81	127
390.384716553288	390.51242630385485	79	127
390.384716553288	390.5704761904762	54	127
390.45437641723356	390.51242630385485	83	127
390.51242630385485	390.58208616780047	81	127
390.51242630385485	390.64013605442176	78	127
390.51242630385485	390.64013605442176	66	127
390.58208616780047	390.64013605442176	83	127
390.64013605442176	390.82589569160996	64	127
390.64013605442176	390.7097959183673	81	127
390.64013605442176	390.82589569160996	76	127
390.64013605442176	390.82589569160996	38	127
390.7097959183673	390.76784580498867	83	127
390.76784580498867	390.8375056689342	81	127
390.8375056689342	390.90716553287984	83	127
390.90716553287984	391.0813151927438	54	127
390.90716553287984	390.96521541950113	81	127
390.90716553287984	391.0232653061224	78	127
390.90716553287984	391.0232653061224	66	127
390.96521541950113	391.0232653061224	83	127
391.0232653061224	391.1625850340136	76	127
391.0232653061224	391.09292517006804	81	127
391.0232653061224	391.1625850340136	64	127
391.09292517006804	391.1625850340136	83	127
391.1625850340136	391.23224489795916	81	127
391.1625850340136	391.3483446712018	74	127
391.1625850340136	391.3483446712018	62	127
391.1625850340136	391.3483446712018	45	127
391.23224489795916	391.3019047619048	83	127
391.3019047619048	391.35995464852607	81	127
391.35995464852607	391.40639455782315	83	127
391.40639455782315	391.4760544217687	81	127
391.40639455782315	391.53410430839	76	127
391.40639455782315	391.53410430839	64	127
391.40639455782315	391.5805442176871	54	127
391.4760544217687	391.53410430839	83	127
391.53410430839	391.65020408163264	62	127
391.53410430839	391.59215419501135	81	127
391.53410430839	391.65020408163264	74	127
391.59215419501135	391.65020408163264	83	127
391.65020408163264	391.71986394557825	81	127
391.65020408163264	391.8475736961451	72	127
391.65020408163264	391.8475736961451	60	127
391.65020408163264	391.8475736961451	39	127
391.71986394557825	391.7895238095238	83	127
391.7895238095238	391.8475736961451	81	127
391.8475736961451	391.90562358276645	83	127
391.90562358276645	392.0449433106576	62	127
391.90562358276645	391.975283446712	81	127
391.90562358276645	392.0449433106576	74	127
391.90562358276645	392.1029931972789	45	127
391.975283446712	392.0449433106576	83	127
392.0449433106576	392.1146031746032	81	127
392.0449433106576	392.1726530612245	72	127
392.0449433106576	392.1726530612245	60	127
392.1146031746032	392.1726530612245	83	127
392.1726530612245	392.37002267573695	59	127
392.1726530612245	392.24231292517004	81	127
392.1726530612245	392.37002267573695	71	127
392.1726530612245	392.37002267573695	39	127
392.24231292517004	392.31197278911566	83	127
392.31197278911566	392.3816326530612	81	127
392.3816326530612	392.43968253968256	83	127
392.43968253968256	392.5673922902494	60	127
392.43968253968256	392.6138321995465	45	127
392.43968253968256	392.49773242630386	81	127
392.43968253968256	392.5673922902494	72	127
392.49773242630386	392.5673922902494	83	127
392.5673922902494	392.6718820861678	71	127
392.5673922902494	392.6138321995465	81	127
392.5673922902494	392.6718820861678	59	127
392.6138321995465	392.6718820861678	83	127
392.6718820861678	392.7415419501134	81	127
392.6718820861678	392.86925170068025	39	127
392.6718820861678	394.2392290249433	69	127
392.6718820861678	394.2392290249433	57	127
392.7415419501134	392.81120181405896	83	127
392.81120181405896	392.8808616780045	81	127
392.8808616780045	392.95052154195014	83	127
392.95052154195014	393.12467120181407	47	127
392.95052154195014	393.00857142857143	81	127
393.00857142857143	393.078231292517	83	127
393.078231292517	393.13628117913834	81	127
393.13628117913834	393.2059410430839	83	127
393.2059410430839	393.3917006802721	39	127
393.2059410430839	393.2639909297052	81	127
393.2639909297052	393.3336507936508	83	127
393.3336507936508	393.40331065759636	81	127
393.40331065759636	393.4729705215419	83	127
393.4729705215419	393.6587301587302	48	127
393.4729705215419	393.5542403628118	81	127
393.5542403628118	393.6471201814059	80	127
393.6471201814059	393.74	81	127
393.74	393.80965986394557	88	127
393.74	393.9257596371882	40	127
393.80965986394557	393.8677097505669	90	127
393.8677097505669	393.9373696145125	88	127
393.9373696145125	393.99541950113377	90	127
393.99541950113377	394.181179138322	47	127
393.99541950113377	394.0650793650794	88	127
394.0650793650794	394.1231292517007	90	127
394.1231292517007	394.19278911564624	88	127
394.19278911564624	394.2508390022676	90	127
394.2508390022676	394.4365986394558	40	127
394.2508390022676	394.32049886621314	88	127
394.2508390022676	394.63396825396825	56	127
394.2508390022676	394.63396825396825	68	127
394.32049886621314	394.3785487528345	90	127
394.3785487528345	394.44820861678005	88	127
394.44820861678005	394.50625850340134	90	127
394.50625850340134	394.57591836734696	88	127
394.50625850340134	394.6804081632653	47	127
394.57591836734696	394.63396825396825	90	127
394.63396825396825	394.76167800453516	66	127
394.63396825396825	394.6920181405896	88	127
394.63396825396825	394.76167800453516	54	127
394.6920181405896	394.76167800453516	90	127
394.76167800453516	394.8313378684807	88	127
394.76167800453516	394.9358276643991	40	127
394.76167800453516	395.26090702947846	56	127
394.76167800453516	395.26090702947846	68	127
394.8313378684807	394.88938775510206	90	127
394.88938775510206	394.94743764172335	88	127
394.94743764172335	395.00548752834464	90	127
395.00548752834464	395.1912471655329	50	127
395.00548752834464	395.07514739229026	88	127
395.07514739229026	395.1448072562358	90	127
395.1448072562358	395.20285714285717	88	127
395.20285714285717	395.26090702947846	90	127
395.26090702947846	395.31895691609975	88	127
395.26090702947846	395.44666666666666	40	127
395.26090702947846	395.77174603174603	71	127
395.26090702947846	395.77174603174603	59	127
395.31895691609975	395.38861678004537	90	127
395.38861678004537	395.44666666666666	88	127
395.44666666666666	395.5163265306122	90	127
395.5163265306122	395.71369614512474	50	127
395.5163265306122	395.58598639455784	88	127
395.58598639455784	395.6556462585034	90	127
395.6556462585034	395.72530612244896	88	127
395.72530612244896	395.7833560090703	90	127
395.7833560090703	395.85301587301586	70	127
395.7833560090703	395.85301587301586	58	127
395.7833560090703	395.98072562358277	45	127
395.7833560090703	395.85301587301586	88	127
395.85301587301586	395.9226757369614	90	127
395.85301587301586	395.9226757369614	71	127
395.85301587301586	395.9226757369614	59	127
395.9226757369614	395.99233560090704	88	127
395.9226757369614	395.99233560090704	73	127
395.9226757369614	395.99233560090704	61	127
395.99233560090704	396.85147392290247	71	127
395.99233560090704	396.85147392290247	59	127
395.99233560090704	396.05038548752833	90	127
396.05038548752833	396.17809523809524	88	127
396.05038548752833	396.23614512471653	50	127
396.17809523809524	396.2477551020408	87	127
396.2477551020408	396.2825850340136	88	127
396.2941950113379	396.49156462585034	92	127
396.2941950113379	396.49156462585034	45	127
396.5728344671202	396.7818140589569	50	127
396.5728344671202	396.7818140589569	88	127
396.86308390022674	396.99079365079365	45	127
396.86308390022674	397.39714285714285	93	127
396.86308390022674	397.39714285714285	69	127
396.86308390022674	397.39714285714285	57	127
396.99079365079365	397.1417233560091	49	127
397.1417233560091	397.26943310657595	52	127
397.26943310657595	397.4087528344671	49	127
397.4087528344671	397.5596825396825	45	127
397.4087528344671	397.977641723356	69	127
397.4087528344671	397.977641723356	57	127
397.5596825396825	397.71061224489796	43	127
397.71061224489796	397.83832199546487	42	127
397.83832199546487	397.977641723356	40	127
397.98925170068026	398.7671201814059	66	127
397.98925170068026	398.0589115646259	81	127
397.98925170068026	398.17501133786845	38	127
397.98925170068026	398.7671201814059	78	127
398.0589115646259	398.11696145124716	83	127
398.11696145124716	398.1866213151927	81	127
398.1866213151927	398.25628117913834	83	127
398.25628117913834	398.44204081632654	54	127
398.25628117913834	398.3259410430839	81	127
398.3259410430839	398.3839909297052	83	127
398.3839909297052	398.4536507936508	81	127
398.4536507936508	398.52331065759637	83	127
398.52331065759637	398.58136054421766	81	127
398.52331065759637	398.6974603174603	45	127
398.58136054421766	398.6510204081633	83	127
398.6510204081633	398.70907029478457	81	127
398.70907029478457	398.7787301587302	83	127
398.7787301587302	398.84839002267574	81	127
398.7787301587302	398.9180498866213	79	127
398.7787301587302	398.9180498866213	67	127
398.7787301587302	398.9644897959184	54	127
398.84839002267574	398.9180498866213	83	127
398.9180498866213	399.0457596371882	78	127
398.9180498866213	398.97609977324265	81	127
398.9180498866213	399.0457596371882	66	127
398.97609977324265	399.0457596371882	83	127
399.0457596371882	399.1154195011338	81	127
399.0457596371882	399.2431292517007	76	127
399.0457596371882	399.2431292517007	64	127
399.0457596371882	399.2431292517007	38	127
399.1154195011338	399.1850793650794	83	127
399.1850793650794	399.2431292517007	81	127
399.2431292517007	399.31278911564624	83	127
399.31278911564624	399.38244897959186	81	127
399.31278911564624	399.44049886621315	78	127
399.31278911564624	399.44049886621315	66	127
399.31278911564624	399.4985487528345	54	127
399.38244897959186	399.44049886621315	83	127
399.44049886621315	399.5101587301587	81	127
399.44049886621315	399.56820861678005	76	127
399.44049886621315	399.56820861678005	64	127
399.5101587301587	399.56820861678005	83	127
399.56820861678005	399.7655782312925	62	127
399.56820861678005	399.6378684807256	81	127
399.56820861678005	399.7655782312925	74	127
399.56820861678005	399.7655782312925	45	127
399.6378684807256	399.7075283446712	83	127
399.7075283446712	399.7771882086168	81	127
399.7771882086168	399.8352380952381	83	127
399.8352380952381	399.962947845805	64	127
399.8352380952381	400.0209977324263	54	127
399.8352380952381	399.9048979591837	81	127
399.8352380952381	399.962947845805	76	127
399.9048979591837	399.962947845805	83	127
399.962947845805	400.0906575963719	62	127
399.962947845805	400.03260770975055	81	127
399.962947845805	400.0906575963719	74	127
400.03260770975055	400.0906575963719	83	127
400.0906575963719	400.16031746031746	81	127
400.0906575963719	400.28802721088437	73	127
400.0906575963719	400.28802721088437	61	127
400.0906575963719	400.28802721088437	40	127
400.16031746031746	400.229977324263	83	127
400.229977324263	400.29963718820864	81	127
400.29963718820864	400.3692970521542	83	127
400.3692970521542	400.4273469387755	81	127
400.3692970521542	400.4970068027211	74	127
400.3692970521542	400.4970068027211	62	127
400.3692970521542	400.5434467120181	55	127
400.4273469387755	400.4970068027211	83	127
400.4970068027211	400.61310657596374	61	127
400.4970068027211	400.5550566893424	81	127
400.4970068027211	400.61310657596374	73	127
400.5550566893424	400.61310657596374	83	127
400.61310657596374	400.79886621315194	59	127
400.61310657596374	400.67115646258503	81	127
400.61310657596374	400.79886621315194	71	127
400.61310657596374	400.79886621315194	38	127
400.67115646258503	400.7408163265306	83	127
400.7408163265306	400.8104761904762	81	127
400.8104761904762	400.88013605442177	83	127
400.88013605442177	401.0078458049887	73	127
400.88013605442177	401.0078458049887	61	127
400.88013605442177	400.93818594104306	81	127
400.88013605442177	401.06589569160997	55	127
400.93818594104306	401.0078458049887	83	127
401.0078458049887	401.1471655328798	59	127
401.0078458049887	401.07750566893424	81	127
401.0078458049887	401.1471655328798	71	127
401.07750566893424	401.1471655328798	83	127
401.1471655328798	402.16884353741494	69	127
401.1471655328798	401.2168253968254	81	127
401.1471655328798	401.2748752834467	37	127
401.1471655328798	402.16884353741494	57	127
401.2168253968254	401.2748752834467	83	127
401.2748752834467	401.42580498866215	55	127
401.2748752834467	401.35614512471653	81	127
401.35614512471653	401.42580498866215	83	127
401.42580498866215	401.553514739229	54	127
401.42580498866215	401.4954648526077	81	127
401.4954648526077	401.553514739229	83	127
401.553514739229	401.6812244897959	52	127
401.553514739229	401.6231746031746	81	127
401.6231746031746	401.6812244897959	83	127
401.6812244897959	401.8089342403628	50	127
401.6812244897959	401.75088435374147	81	127
401.75088435374147	401.8089342403628	83	127
401.8089342403628	401.8669841269841	81	127
401.8089342403628	401.92503401360545	49	127
401.8669841269841	401.92503401360545	83	127
401.92503401360545	402.05274376417236	47	127
401.92503401360545	402.01791383219955	81	127
402.01791383219955	402.0991836734694	80	127
402.05274376417236	402.1804535147392	45	127
402.0991836734694	402.1804535147392	81	127
402.1804535147392	402.3662131519274	49	127
402.1804535147392	402.95832199546487	57	127
402.1804535147392	402.95832199546487	69	127
402.1804535147392	403.097641723356	91	127
402.4474829931973	402.6332426303855	45	127
402.7145124716553	402.9118820861678	49	127
402.96993197278914	403.1673015873016	45	127
402.96993197278914	403.10925170068026	68	127
402.96993197278914	403.10925170068026	56	127
403.10925170068026	403.21374149659863	91	127
403.10925170068026	403.2253514739229	69	127
403.10925170068026	403.2253514739229	57	127
403.2253514739229	403.42272108843537	71	127
403.2253514739229	403.42272108843537	59	127
403.2253514739229	403.42272108843537	50	127
403.2253514739229	403.4807709750567	90	127
403.4923809523809	403.60848072562356	69	127
403.4923809523809	403.60848072562356	57	127
403.4923809523809	403.6665306122449	45	127
403.60848072562356	403.7245804988662	90	127
403.60848072562356	403.7361904761905	71	127
403.60848072562356	403.7361904761905	59	127
403.7361904761905	403.8871201814059	73	127
403.7361904761905	403.8871201814059	61	127
403.7361904761905	403.8871201814059	55	127
403.7361904761905	403.92195011337867	88	127
403.93356009070294	404.06126984126985	71	127
403.93356009070294	404.06126984126985	59	127
403.93356009070294	404.11931972789114	45	127
404.06126984126985	404.1657596371882	88	127
404.06126984126985	404.1773696145125	73	127
404.06126984126985	404.1773696145125	61	127
404.1773696145125	404.3166893424036	74	127
404.1773696145125	404.3166893424036	62	127
404.1773696145125	404.3166893424036	54	127
404.1773696145125	404.3631292517007	86	127
404.37473922902495	404.4908390022676	73	127
404.37473922902495	404.4908390022676	61	127
404.37473922902495	404.5488888888889	45	127
404.4908390022676	404.6301587301587	74	127
404.4908390022676	404.61854875283444	86	127
404.4908390022676	404.6301587301587	62	127
404.6301587301587	404.81591836734697	64	127
404.6301587301587	404.81591836734697	49	127
404.6301587301587	404.81591836734697	76	127
404.6301587301587	404.8855782312925	81	127
404.8971882086168	405.0365079365079	74	127
404.8971882086168	405.0365079365079	62	127
404.8971882086168	405.09455782312926	45	127
405.0365079365079	405.18743764172336	64	127
405.0365079365079	405.1758276643991	81	127
405.0365079365079	405.18743764172336	76	127
405.18743764172336	405.38480725623583	78	127
405.18743764172336	405.38480725623583	50	127
405.18743764172336	405.79115646258504	78	127
405.18743764172336	405.38480725623583	66	127
405.4892970521542	405.6750566893424	57	127
405.4892970521542	405.6750566893424	69	127
405.4892970521542	405.7214965986395	50	127
405.6750566893424	405.8027664399093	71	127
405.6750566893424	405.8027664399093	59	127
405.8027664399093	405.9885260770975	73	127
405.8027664399093	405.9885260770975	61	127
405.8027664399093	405.9885260770975	45	127
406.06979591836733	406.2091156462585	62	127
406.06979591836733	406.2091156462585	74	127
406.06979591836733	406.25555555555553	42	127
406.2091156462585	406.3484353741497	76	127
406.2091156462585	406.3484353741497	64	127
406.3484353741497	407.1263038548753	66	127
406.3484353741497	406.41809523809525	81	127
406.3484353741497	406.54580498866216	38	127
406.3484353741497	407.1263038548753	78	127
406.41809523809525	406.4877551020408	83	127
406.4877551020408	406.54580498866216	81	127
406.54580498866216	406.6154648526077	83	127
406.6154648526077	406.8012244897959	54	127
406.6154648526077	406.6851247165533	81	127
406.6851247165533	406.7547845804989	83	127
406.7547845804989	406.8128344671202	81	127
406.8128344671202	406.8708843537415	83	127
406.8708843537415	406.9405442176871	81	127
406.8708843537415	407.06825396825394	45	127
406.9405442176871	407.01020408163265	83	127
407.01020408163265	407.0798639455782	81	127
407.0798639455782	407.13791383219956	83	127
407.13791383219956	407.2772335600907	67	127
407.13791383219956	407.335283446712	54	127
407.13791383219956	407.2075736961451	81	127
407.13791383219956	407.2772335600907	79	127
407.2075736961451	407.2772335600907	83	127
407.2772335600907	407.3468934240363	81	127
407.2772335600907	407.4049433106576	78	127
407.2772335600907	407.4049433106576	66	127
407.3468934240363	407.4049433106576	83	127
407.4049433106576	407.60231292517005	38	127
407.4049433106576	407.47460317460315	81	127
407.4049433106576	407.60231292517005	76	127
407.4049433106576	407.60231292517005	64	127
407.47460317460315	407.54426303854876	83	127
407.54426303854876	407.6139229024943	81	127
407.6139229024943	407.6835827664399	83	127
407.6835827664399	407.74163265306123	81	127
407.6835827664399	407.8112925170068	78	127
407.6835827664399	407.8112925170068	66	127
407.6835827664399	407.86934240362814	54	127
407.74163265306123	407.8112925170068	83	127
407.8112925170068	407.95061224489797	76	127
407.8112925170068	407.8809523809524	81	127
407.8112925170068	407.95061224489797	64	127
407.8809523809524	407.95061224489797	83	127
407.95061224489797	408.00866213151926	81	127
407.95061224489797	408.1131519274376	74	127
407.95061224489797	408.1131519274376	62	127
407.95061224489797	408.1131519274376	45	127
408.00866213151926	408.0783219954649	83	127
408.0783219954649	408.1247619047619	81	127
408.1247619047619	408.19442176870746	83	127
408.19442176870746	408.32213151927436	64	127
408.19442176870746	408.2524716553288	81	127
408.19442176870746	408.32213151927436	76	127
408.19442176870746	408.3801814058957	54	127
408.2524716553288	408.32213151927436	83	127
408.32213151927436	408.39179138322	81	127
408.32213151927436	408.46145124716554	74	127
408.32213151927436	408.46145124716554	62	127
408.39179138322	408.46145124716554	83	127
408.46145124716554	408.63560090702947	60	127
408.46145124716554	408.5311111111111	81	127
408.46145124716554	408.63560090702947	72	127
408.46145124716554	408.63560090702947	39	127
408.5311111111111	408.58916099773245	83	127
408.58916099773245	408.63560090702947	81	127
408.63560090702947	408.6936507936508	83	127
408.6936507936508	408.8097505668934	62	127
408.6936507936508	408.86780045351475	45	127
408.6936507936508	408.7517006802721	81	127
408.6936507936508	408.8097505668934	74	127
408.7517006802721	408.8097505668934	83	127
408.8097505668934	408.9490702947846	72	127
408.8097505668934	408.879410430839	81	127
408.8097505668934	408.9490702947846	60	127
408.879410430839	408.9490702947846	83	127
408.9490702947846	409.1348299319728	59	127
408.9490702947846	409.01873015873014	81	127
408.9490702947846	409.1348299319728	71	127
408.9490702947846	409.1348299319728	39	127
409.01873015873014	409.0767800453515	83	127
409.0767800453515	409.14643990929704	81	127
409.14643990929704	409.2160997732426	83	127
409.2160997732426	409.3438095238095	60	127
409.2160997732426	409.2857596371882	81	127
409.2160997732426	409.3438095238095	72	127
409.2160997732426	409.40185941043086	45	127
409.2857596371882	409.3438095238095	83	127
409.3438095238095	409.41346938775513	81	127
409.3438095238095	409.4715192743764	71	127
409.3438095238095	409.4715192743764	59	127
409.41346938775513	409.4715192743764	83	127
409.4715192743764	409.541179138322	81	127
409.4715192743764	409.6572789115646	39	127
409.4715192743764	410.99242630385487	69	127
409.4715192743764	410.99242630385487	57	127
409.541179138322	409.6108390022676	83	127
409.6108390022676	409.6688888888889	81	127
409.6688888888889	409.7269387755102	83	127
409.7269387755102	409.7965986394558	81	127
409.7269387755102	409.91269841269843	47	127
409.7965986394558	409.86625850340135	83	127
409.86625850340135	409.9243083900227	81	127
409.9243083900227	409.982358276644	83	127
409.982358276644	410.05201814058955	81	127
409.982358276644	410.17972789115646	39	127
410.05201814058955	410.12167800453517	83	127
410.12167800453517	410.17972789115646	81	127
410.17972789115646	410.249387755102	83	127
410.249387755102	410.423537414966	48	127
410.249387755102	410.3422675736961	81	127
410.3422675736961	410.41192743764174	80	127
410.41192743764174	410.4467573696145	81	127
410.4467573696145	410.50480725623584	88	127
410.4467573696145	410.64412698412696	40	127
410.50480725623584	410.5744671201814	90	127
410.5744671201814	410.6557369614512	88	127
410.6557369614512	410.7137868480726	90	127
410.7137868480726	410.9343764172336	47	127
410.7137868480726	410.78344671201813	88	127
410.78344671201813	410.8531065759637	90	127
410.8531065759637	410.94598639455785	88	127
410.94598639455785	411.00403628117914	90	127
411.00403628117914	411.41038548752834	56	127
411.00403628117914	411.0736961451247	88	127
411.00403628117914	411.2014058956916	40	127
411.00403628117914	411.41038548752834	68	127
411.0736961451247	411.1433560090703	90	127
411.1433560090703	411.2130158730159	88	127
411.2130158730159	411.28267573696144	90	127
411.28267573696144	411.3407256235828	88	127
411.28267573696144	411.46843537414964	47	127
411.3407256235828	411.41038548752834	90	127
411.41038548752834	411.5497052154195	54	127
411.41038548752834	411.4800453514739	88	127
411.41038548752834	411.5497052154195	66	127
411.4800453514739	411.5497052154195	90	127
411.5497052154195	412.07215419501136	56	127
411.5497052154195	411.6077551020408	88	127
411.5497052154195	411.7354648526077	40	127
411.5497052154195	412.07215419501136	68	127
411.6077551020408	411.6774149659864	90	127
411.6774149659864	411.747074829932	88	127
411.747074829932	411.81673469387755	90	127
411.81673469387755	412.00249433106575	50	127
411.81673469387755	411.87478458049884	88	127
411.87478458049884	411.94444444444446	90	127
411.94444444444446	412.01410430839	88	127
412.01410430839	412.0837641723356	90	127
412.0837641723356	412.59460317460315	71	127
412.0837641723356	412.1418140589569	88	127
412.0837641723356	412.25791383219956	40	127
412.0837641723356	412.59460317460315	59	127
412.1418140589569	412.1998639455782	90	127
412.1998639455782	412.26952380952383	88	127
412.26952380952383	412.3391836734694	90	127
412.3391836734694	412.5249433106576	50	127
412.3391836734694	412.40884353741495	88	127
412.40884353741495	412.4668934240363	90	127
412.4668934240363	412.53655328798186	88	127
412.53655328798186	412.6062131519274	90	127
412.6062131519274	412.67587301587304	70	127
412.6062131519274	412.67587301587304	88	127
412.6062131519274	412.67587301587304	58	127
412.6062131519274	412.7919727891156	45	127
412.67587301587304	412.7339229024943	71	127
412.67587301587304	412.7339229024943	59	127
412.67587301587304	412.7339229024943	90	127
412.7339229024943	412.8035827664399	73	127
412.7339229024943	412.8035827664399	88	127
412.7339229024943	412.8035827664399	61	127
412.8035827664399	413.6162811791383	59	127
412.8035827664399	412.8732426303855	90	127
412.8035827664399	413.6162811791383	71	127
412.8732426303855	413.00095238095236	88	127
412.8732426303855	413.0590022675737	50	127
413.00095238095236	413.070612244898	87	127
413.070612244898	413.0938321995465	88	127
413.0938321995465	413.2795918367347	92	127
413.0938321995465	413.2795918367347	45	127
413.36086167800454	413.54662131519274	88	127
413.36086167800454	413.54662131519274	50	127
413.62789115646257	414.17356009070295	57	127
413.62789115646257	413.76721088435374	45	127
413.62789115646257	414.17356009070295	93	127
413.62789115646257	414.17356009070295	69	127
413.76721088435374	413.9065306122449	49	127
413.9065306122449	414.04585034013604	52	127
414.04585034013604	414.1851700680272	50	127
414.1851700680272	414.71922902494333	69	127
414.1851700680272	414.32448979591834	49	127
414.1851700680272	414.71922902494333	57	127
414.32448979591834	414.4638095238095	47	127
414.4638095238095	414.6031292517007	45	127
414.6031292517007	414.71922902494333	43	127
414.7308390022676	415.5087074829932	62	127
414.7308390022676	414.80049886621316	74	127
414.7308390022676	414.9165986394558	42	127
414.7308390022676	415.5087074829932	74	127
414.80049886621316	414.85854875283445	76	127
414.85854875283445	414.92820861678007	74	127
414.92820861678007	414.99786848072563	76	127
414.99786848072563	415.0559183673469	74	127
414.99786848072563	415.1836281179138	50	127
415.0559183673469	415.12557823129254	76	127
415.12557823129254	415.1952380952381	74	127
415.1952380952381	415.26489795918366	76	127
415.26489795918366	415.31133786848073	74	127
415.26489795918366	415.43904761904764	50	127
415.31133786848073	415.3809977324263	76	127
415.3809977324263	415.45065759637185	74	127
415.45065759637185	415.5203174603175	76	127
415.5203174603175	415.57836734693876	74	127
415.5203174603175	415.6364172335601	73	127
415.5203174603175	415.6364172335601	61	127
415.5203174603175	415.6944671201814	50	127
415.57836734693876	415.6364172335601	76	127
415.6364172335601	415.76412698412696	74	127
415.6364172335601	415.70607709750567	74	127
415.6364172335601	415.76412698412696	62	127
415.70607709750567	415.76412698412696	76	127
415.76412698412696	415.9266666666667	64	127
415.76412698412696	415.9266666666667	76	127
415.76412698412696	415.81056689342404	74	127
415.76412698412696	415.9266666666667	49	127
415.81056689342404	415.86861678004533	76	127
415.86861678004533	415.93827664399095	74	127
415.93827664399095	416.0079365079365	76	127
416.0079365079365	416.1124263038549	62	127
416.0079365079365	416.0659863945578	74	127
416.0079365079365	416.1124263038549	74	127
416.0079365079365	416.12403628117914	50	127
416.0659863945578	416.1124263038549	76	127
416.1124263038549	416.12403628117914	74	127
416.1124263038549	416.1936961451247	76	127
416.1124263038549	416.1936961451247	64	127
416.12403628117914	416.1936961451247	76	127
416.1936961451247	416.3794557823129	78	127
416.1936961451247	416.2633560090703	74	127
416.1936961451247	416.3794557823129	66	127
416.1936961451247	416.3794557823129	48	127
416.2633560090703	416.3214058956916	76	127
416.3214058956916	416.3910657596372	74	127
416.3910657596372	416.472335600907	76	127
416.472335600907	416.6000453514739	64	127
416.472335600907	416.5419954648526	74	127
416.472335600907	416.6000453514739	76	127
416.472335600907	416.65809523809526	50	127
416.5419954648526	416.6000453514739	76	127
416.6000453514739	416.7393650793651	66	127
416.6000453514739	416.6697052154195	74	127
416.6000453514739	416.7393650793651	78	127
416.6697052154195	416.7393650793651	76	127
416.7393650793651	416.9251247165533	79	127
416.7393650793651	416.80902494331065	74	127
416.7393650793651	416.9251247165533	47	127
416.7393650793651	416.9251247165533	67	127
416.80902494331065	416.87868480725626	76	127
416.87868480725626	416.93673469387755	74	127
416.93673469387755	417.0063945578231	76	127
417.0063945578231	417.12249433106575	79	127
417.0063945578231	417.12249433106575	67	127
417.0063945578231	417.0528344671202	74	127
417.0063945578231	417.15732426303856	50	127
417.0528344671202	417.12249433106575	76	127
417.12249433106575	417.2385941043084	69	127
417.12249433106575	417.16893424036283	74	127
417.12249433106575	417.2385941043084	81	127
417.16893424036283	417.2385941043084	76	127
417.2385941043084	417.43596371882086	83	127
417.2385941043084	417.30825396825395	74	127
417.2385941043084	417.43596371882086	71	127
417.2385941043084	417.43596371882086	43	127
417.30825396825395	417.37791383219957	76	127
417.37791383219957	417.43596371882086	74	127
417.43596371882086	417.5056235827664	76	127
417.5056235827664	417.6449433106576	71	127
417.5056235827664	417.7029931972789	50	127
417.5056235827664	417.57528344671204	74	127
417.5056235827664	417.6449433106576	83	127
417.57528344671204	417.6449433106576	76	127
417.6449433106576	417.76104308390023	85	127
417.6449433106576	417.7029931972789	74	127
417.6449433106576	417.76104308390023	73	127
417.7029931972789	417.76104308390023	76	127
417.76104308390023	418.24866213151927	74	127
417.76104308390023	417.8190929705215	74	127
417.76104308390023	417.87714285714287	42	127
417.76104308390023	418.24866213151927	86	127
417.8190929705215	417.87714285714287	76	127
417.87714285714287	417.93519274376416	74	127
417.87714285714287	417.9932426303855	38	127
417.93519274376416	417.9932426303855	76	127
417.9932426303855	418.13256235827663	42	127
417.9932426303855	418.06290249433107	74	127
418.06290249433107	418.13256235827663	76	127
418.13256235827663	418.26027210884354	45	127
418.13256235827663	418.20222222222225	74	127
418.20222222222225	418.26027210884354	76	127
418.26027210884354	418.411201814059	50	127
418.26027210884354	418.3299319727891	74	127
418.3299319727891	418.411201814059	76	127
418.411201814059	418.5505215419501	54	127
418.411201814059	418.48086167800454	74	127
418.48086167800454	418.5505215419501	76	127
418.5505215419501	418.678231292517	57	127
418.5505215419501	418.60857142857145	74	127
418.60857142857145	418.678231292517	76	127
418.678231292517	418.7478911564626	74	127
418.678231292517	418.8175510204082	55	127
418.7478911564626	418.8059410430839	76	127
418.8175510204082	418.8756009070295	50	127
418.8175510204082	419.0033106575964	54	127
418.8175510204082	419.57219954648525	74	127
418.8175510204082	419.57219954648525	62	127
418.8756009070295	418.94526077097504	52	127
418.94526077097504	419.01492063492066	50	127
419.01492063492066	419.0845804988662	52	127
419.0845804988662	419.25873015873015	62	127
419.0845804988662	419.1426303854875	50	127
419.1426303854875	419.20068027210885	52	127
419.20068027210885	419.25873015873015	50	127
419.25873015873015	419.32839002267576	52	127
419.32839002267576	419.51414965986396	62	127
419.32839002267576	419.3980498866213	50	127
419.3980498866213	419.4560997732426	52	127
419.4560997732426	419.52575963718823	50	127
419.52575963718823	419.5838095238095	52	127
419.5838095238095	419.69990929705216	61	127
419.5838095238095	419.69990929705216	73	127
419.5838095238095	419.73473922902497	62	127
419.5838095238095	419.6418594104308	50	127
419.6418594104308	419.69990929705216	52	127
419.69990929705216	419.8043990929705	62	127
419.69990929705216	419.7463492063492	50	127
419.69990929705216	419.8043990929705	74	127
419.7463492063492	419.8043990929705	52	127
419.8043990929705	419.8740589569161	50	127
419.8043990929705	419.9901587301587	76	127
419.8043990929705	419.9901587301587	64	127
419.8043990929705	419.9901587301587	61	127
419.8740589569161	419.93210884353743	52	127
419.93210884353743	420.001768707483	50	127
420.001768707483	420.07142857142856	52	127
420.07142857142856	420.1294784580499	50	127
420.07142857142856	420.1875283446712	74	127
420.07142857142856	420.1875283446712	62	127
420.07142857142856	420.23396825396827	62	127
420.1294784580499	420.1875283446712	52	127
420.1875283446712	420.24557823129254	50	127
420.1875283446712	420.3152380952381	76	127
420.1875283446712	420.3152380952381	64	127
420.24557823129254	420.3152380952381	52	127
420.3152380952381	420.48938775510203	78	127
420.3152380952381	420.38489795918366	50	127
420.3152380952381	420.48938775510203	66	127
420.3152380952381	420.48938775510203	60	127
420.38489795918366	420.442947845805	52	127
420.442947845805	420.5009977324263	50	127
420.5009977324263	420.57065759637186	52	127
420.57065759637186	420.70997732426304	64	127
420.57065759637186	420.6403174603175	50	127
420.57065759637186	420.74480725623584	62	127
420.57065759637186	420.70997732426304	76	127
420.6403174603175	420.70997732426304	52	127
420.70997732426304	420.7564172335601	50	127
420.70997732426304	420.8144671201814	78	127
420.70997732426304	420.8144671201814	66	127
420.7564172335601	420.8144671201814	52	127
420.8144671201814	421.0118367346939	67	127
420.8144671201814	420.88412698412696	50	127
420.8144671201814	421.0118367346939	79	127
420.8144671201814	421.0118367346939	59	127
420.88412698412696	420.9537868480726	52	127
420.9537868480726	421.0118367346939	50	127
421.0118367346939	421.08149659863943	52	127
421.08149659863943	421.20920634920634	79	127
421.08149659863943	421.1395464852608	50	127
421.08149659863943	421.20920634920634	67	127
421.08149659863943	421.2556462585034	62	127
421.1395464852608	421.20920634920634	52	127
421.20920634920634	421.325306122449	69	127
421.20920634920634	421.2672562358277	50	127
421.20920634920634	421.325306122449	81	127
421.2672562358277	421.325306122449	52	127
421.325306122449	421.39496598639454	50	127
421.325306122449	421.52267573696145	83	127
421.325306122449	421.52267573696145	71	127
421.325306122449	421.52267573696145	55	127
421.39496598639454	421.46462585034016	52	127
421.46462585034016	421.5342857142857	50	127
421.5342857142857	421.592335600907	52	127
421.592335600907	421.7316553287982	71	127
421.592335600907	421.6619954648526	50	127
421.592335600907	421.7316553287982	83	127
421.592335600907	421.7897052154195	62	127
421.6619954648526	421.7316553287982	52	127
421.7316553287982	421.80131519274374	50	127
421.7316553287982	421.8477551020408	85	127
421.7316553287982	421.8477551020408	73	127
421.80131519274374	421.8477551020408	52	127
421.8477551020408	422.11478458049885	50	127
421.8477551020408	422.0451247165533	86	127
421.8477551020408	422.0451247165533	74	127
421.8477551020408	422.0451247165533	54	127
422.1263945578231	422.25410430839	69	127
422.1263945578231	422.25410430839	57	127
422.1263945578231	422.3121541950113	50	127
422.25410430839	422.3934240362812	71	127
422.25410430839	422.3934240362812	59	127
422.3934240362812	422.59079365079367	45	127
422.3934240362812	422.59079365079367	73	127
422.3934240362812	422.59079365079367	61	127
422.68367346938777	422.8113832199546	74	127
422.68367346938777	422.8113832199546	62	127
422.68367346938777	422.88104308390024	42	127
422.68367346938777	422.9507029478458	69	127
422.8113832199546	422.96231292517007	76	127
422.8113832199546	422.96231292517007	64	127
422.96231292517007	423.136462585034	38	127
422.96231292517007	423.74018140589567	66	127
422.96231292517007	423.02036281179136	81	127
422.96231292517007	423.74018140589567	78	127
423.02036281179136	423.0784126984127	83	127
423.0784126984127	423.14807256235827	81	127
423.14807256235827	423.2177324263039	83	127
423.2177324263039	423.4034920634921	54	127
423.2177324263039	423.28739229024944	81	127
423.28739229024944	423.34544217687073	83	127
423.34544217687073	423.41510204081635	81	127
423.41510204081635	423.4847619047619	83	127
423.4847619047619	423.6705215419501	45	127
423.4847619047619	423.55442176870747	81	127
423.55442176870747	423.6124716553288	83	127
423.6124716553288	423.6821315192744	81	127
423.6821315192744	423.75179138321994	83	127
423.75179138321994	423.87950113378685	67	127
423.75179138321994	423.9259410430839	54	127
423.75179138321994	423.82145124716556	81	127
423.75179138321994	423.87950113378685	79	127
423.82145124716556	423.87950113378685	83	127
423.87950113378685	424.00721088435375	78	127
423.87950113378685	423.93755102040814	81	127
423.87950113378685	424.00721088435375	66	127
423.93755102040814	424.00721088435375	83	127
424.00721088435375	424.1813605442177	64	127
424.00721088435375	424.1813605442177	76	127
424.00721088435375	424.0768707482993	81	127
424.00721088435375	424.1813605442177	38	127
424.0768707482993	424.1465306122449	83	127
424.1465306122449	424.19297052154195	81	127
424.19297052154195	424.25102040816324	83	127
424.25102040816324	424.3903401360544	66	127
424.25102040816324	424.32068027210886	81	127
424.25102040816324	424.3903401360544	78	127
424.25102040816324	424.4367800453515	54	127
424.32068027210886	424.3903401360544	83	127
424.3903401360544	424.4483900226757	81	127
424.3903401360544	424.5180498866213	76	127
424.3903401360544	424.5180498866213	64	127
424.4483900226757	424.5180498866213	83	127
424.5180498866213	424.7038095238095	62	127
424.5180498866213	424.5877097505669	81	127
424.5180498866213	424.7038095238095	74	127
424.5180498866213	424.7038095238095	45	127
424.5877097505669	424.64575963718823	83	127
424.64575963718823	424.7038095238095	81	127
424.7038095238095	424.7734693877551	83	127
424.7734693877551	424.901179138322	64	127
424.7734693877551	424.9592290249433	54	127
424.7734693877551	424.83151927437643	81	127
424.7734693877551	424.901179138322	76	127
424.83151927437643	424.901179138322	83	127
424.901179138322	425.01727891156463	74	127
424.901179138322	424.97083900226755	81	127
424.901179138322	425.01727891156463	62	127
424.97083900226755	425.01727891156463	83	127
425.01727891156463	425.2146485260771	61	127
425.01727891156463	425.0869387755102	81	127
425.01727891156463	425.2146485260771	73	127
425.01727891156463	425.2146485260771	40	127
425.0869387755102	425.1565986394558	83	127
425.1565986394558	425.22625850340137	81	127
425.22625850340137	425.2726984126984	83	127
425.2726984126984	425.41201814058957	62	127
425.2726984126984	425.342358276644	81	127
425.2726984126984	425.41201814058957	74	127
425.2726984126984	425.47006802721086	55	127
425.342358276644	425.41201814058957	83	127
425.41201814058957	425.4816780045351	81	127
425.41201814058957	425.5397278911565	73	127
425.41201814058957	425.5397278911565	61	127
425.4816780045351	425.5397278911565	83	127
425.5397278911565	425.7138775510204	38	127
425.5397278911565	425.59777777777776	81	127
425.5397278911565	425.7138775510204	71	127
425.5397278911565	425.7138775510204	59	127
425.59777777777776	425.6674376417234	83	127
425.6674376417234	425.7138775510204	81	127
425.7138775510204	425.78353741496596	83	127
425.78353741496596	425.91124716553287	61	127
425.78353741496596	425.9692970521542	55	127
425.78353741496596	425.8415873015873	81	127
425.78353741496596	425.91124716553287	73	127
425.8415873015873	425.91124716553287	83	127
425.91124716553287	426.05056689342405	71	127
425.91124716553287	425.98090702947843	81	127
425.91124716553287	426.05056689342405	59	127
425.98090702947843	426.05056689342405	83	127
426.05056689342405	426.10861678004534	81	127
426.05056689342405	426.18988662131517	37	127
426.05056689342405	427.0722448979592	57	127
426.05056689342405	427.0722448979592	69	127
426.10861678004534	426.18988662131517	83	127
426.18988662131517	426.32920634920634	55	127
426.18988662131517	426.2595464852608	81	127
426.2595464852608	426.32920634920634	83	127
426.32920634920634	426.3872562358277	81	127
426.32920634920634	426.445306122449	54	127
426.3872562358277	426.445306122449	83	127
426.445306122449	426.51496598639454	81	127
426.445306122449	426.58462585034016	52	127
426.51496598639454	426.58462585034016	83	127
426.58462585034016	426.64267573696145	81	127
426.58462585034016	426.712335600907	50	127
426.64267573696145	426.712335600907	83	127
426.712335600907	426.8516553287982	49	127
426.712335600907	426.7819954648526	81	127
426.7819954648526	426.8516553287982	83	127
426.8516553287982	426.95614512471656	47	127
426.8516553287982	426.92131519274375	81	127
426.92131519274375	426.99097505668936	80	127
426.95614512471656	427.08385487528346	45	127
426.99097505668936	427.08385487528346	81	127
427.08385487528346	427.78045351473924	69	127
427.08385487528346	427.23478458049885	49	127
427.08385487528346	427.78045351473924	57	127
427.08385487528346	427.9197732426304	91	127
427.3160544217687	427.4785941043084	57	127
427.54825396825396	427.7224036281179	45	127
427.7920634920635	427.9313832199546	68	127
427.7920634920635	427.9313832199546	56	127
427.7920634920635	427.9778231292517	57	127
427.9313832199546	428.035873015873	91	127
427.9313832199546	428.04748299319726	69	127
427.9313832199546	428.04748299319726	57	127
428.04748299319726	428.210022675737	59	127
428.04748299319726	428.210022675737	71	127
428.04748299319726	428.210022675737	45	127
428.04748299319726	428.26807256235827	90	127
428.27968253968254	428.4190022675737	69	127
428.27968253968254	428.4190022675737	57	127
428.27968253968254	428.477052154195	57	127
428.4190022675737	428.53510204081635	90	127
428.4190022675737	428.54671201814057	71	127
428.4190022675737	428.54671201814057	59	127
428.54671201814057	428.74408163265304	61	127
428.54671201814057	428.74408163265304	73	127
428.54671201814057	428.74408163265304	45	127
428.54671201814057	428.8021315192744	88	127
428.81374149659865	428.9530612244898	59	127
428.81374149659865	429.0111111111111	55	127
428.81374149659865	428.9530612244898	71	127
428.9530612244898	429.0691609977324	88	127
428.9530612244898	429.0807709750567	73	127
428.9530612244898	429.0807709750567	61	127
429.0807709750567	430.1024489795918	88	127
429.0807709750567	429.22009070294786	67	127
429.0807709750567	429.27814058956915	38	127
429.0807709750567	430.1024489795918	76	127
429.22009070294786	429.359410430839	66	127
429.359410430839	429.4871201814059	64	127
429.359410430839	429.5219501133787	55	127
429.4871201814059	429.59160997732425	62	127
429.59160997732425	429.77736961451245	45	127
429.59160997732425	429.71931972789116	61	127
429.71931972789116	429.85863945578234	59	127
429.85863945578234	430.03278911564627	55	127
429.85863945578234	429.9863492063492	61	127
429.9863492063492	430.1140589569161	57	127
430.1140589569161	430.6481179138322	62	127
430.1140589569161	430.26498866213154	38	127
430.1140589569161	430.6481179138322	86	127
430.1140589569161	430.6481179138322	74	127
430.26498866213154	430.40430839002266	54	127
430.40430839002266	430.53201814058957	52	127
430.53201814058957	430.6597278911565	50	127
430.6597278911565	430.7758276643991	49	127
430.6597278911565	431.1589569160998	69	127
430.6597278911565	431.1589569160998	57	127
430.7758276643991	430.90353741496597	47	127
430.90353741496597	431.04285714285714	45	127
431.04285714285714	431.17056689342405	43	127
431.17056689342405	431.94843537414965	62	127
431.17056689342405	431.2402267573696	74	127
431.17056689342405	431.35632653061225	42	127
431.17056689342405	431.94843537414965	74	127
431.2402267573696	431.3098866213152	76	127
431.3098866213152	431.3679365079365	74	127
431.3679365079365	431.4375963718821	76	127
431.4375963718821	431.63496598639455	50	127
431.4375963718821	431.5188662131519	74	127
431.5188662131519	431.5885260770975	76	127
431.5885260770975	431.6465759637188	74	127
431.6465759637188	431.6930158730159	76	127
431.6930158730159	431.7510657596372	74	127
431.6930158730159	431.8787755102041	50	127
431.7510657596372	431.832335600907	76	127
431.832335600907	431.89038548752836	74	127
431.89038548752836	431.9600453514739	76	127
431.9600453514739	432.0297052154195	74	127
431.9600453514739	432.11097505668937	73	127
431.9600453514739	432.11097505668937	61	127
431.9600453514739	432.16902494331066	50	127
432.0297052154195	432.11097505668937	76	127
432.11097505668937	432.2386848072562	62	127
432.11097505668937	432.18063492063493	74	127
432.11097505668937	432.2386848072562	74	127
432.18063492063493	432.2386848072562	76	127
432.2386848072562	432.30834467120184	74	127
432.2386848072562	432.4128344671202	76	127
432.2386848072562	432.4128344671202	64	127
432.2386848072562	432.4128344671202	49	127
432.30834467120184	432.3780045351474	76	127
432.3780045351474	432.4244444444444	74	127
432.4244444444444	432.48249433106577	76	127
432.48249433106577	432.5289342403628	74	127
432.48249433106577	432.58698412698413	74	127
432.48249433106577	432.58698412698413	62	127
432.48249433106577	432.6450340136054	50	127
432.5289342403628	432.58698412698413	76	127
432.58698412698413	432.71469387755104	64	127
432.58698412698413	432.6566439909297	74	127
432.58698412698413	432.71469387755104	76	127
432.6566439909297	432.71469387755104	76	127
432.71469387755104	432.9120634920635	78	127
432.71469387755104	432.7843537414966	74	127
432.71469387755104	432.9120634920635	66	127
432.71469387755104	432.9120634920635	48	127
432.7843537414966	432.85401360544216	76	127
432.85401360544216	432.9236734693878	74	127
432.9236734693878	432.99333333333334	76	127
432.99333333333334	433.12104308390025	64	127
432.99333333333334	433.05138321995463	74	127
432.99333333333334	433.12104308390025	76	127
432.99333333333334	433.17909297052154	50	127
433.05138321995463	433.12104308390025	76	127
433.12104308390025	433.26036281179137	66	127
433.12104308390025	433.1907029478458	74	127
433.12104308390025	433.26036281179137	78	127
433.1907029478458	433.26036281179137	76	127
433.26036281179137	433.44612244897957	47	127
433.26036281179137	433.3184126984127	74	127
433.26036281179137	433.44612244897957	79	127
433.26036281179137	433.44612244897957	67	127
433.3184126984127	433.3880725623583	76	127
433.3880725623583	433.45773242630383	74	127
433.45773242630383	433.5157823129252	76	127
433.5157823129252	433.71315192743765	50	127
433.5157823129252	433.5738321995465	74	127
433.5157823129252	433.6551020408163	79	127
433.5157823129252	433.6551020408163	67	127
433.5738321995465	433.6551020408163	76	127
433.6551020408163	433.7247619047619	74	127
433.6551020408163	433.7944217687075	81	127
433.6551020408163	433.7944217687075	69	127
433.7247619047619	433.7944217687075	76	127
433.7944217687075	433.9801814058957	71	127
433.7944217687075	433.85247165532877	74	127
433.7944217687075	433.9801814058957	83	127
433.7944217687075	433.9801814058957	43	127
433.85247165532877	433.9221315192744	76	127
433.9221315192744	433.99179138321995	74	127
433.99179138321995	434.0614512471655	76	127
434.0614512471655	434.17755102040815	71	127
434.0614512471655	434.11950113378686	74	127
434.0614512471655	434.17755102040815	83	127
434.0614512471655	434.2356009070295	50	127
434.11950113378686	434.17755102040815	76	127
434.17755102040815	434.24721088435376	74	127
434.17755102040815	434.2936507936508	85	127
434.17755102040815	434.2936507936508	73	127
434.24721088435376	434.2936507936508	76	127
434.2936507936508	434.74643990929707	86	127
434.2936507936508	434.36331065759634	74	127
434.2936507936508	434.4097505668934	42	127
434.2936507936508	434.74643990929707	74	127
434.36331065759634	434.4097505668934	76	127
434.4097505668934	434.479410430839	74	127
434.4097505668934	434.52585034013606	38	127
434.479410430839	434.52585034013606	76	127
434.52585034013606	434.56068027210887	74	127
434.52585034013606	434.61873015873016	42	127
434.56068027210887	434.61873015873016	76	127
434.61873015873016	434.7696598639456	45	127
434.61873015873016	434.6883900226757	74	127
434.6883900226757	434.7696598639456	76	127
434.7696598639456	434.83931972789117	74	127
434.7696598639456	434.9089795918367	50	127
434.83931972789117	434.9089795918367	76	127
434.9089795918367	435.03668934240363	54	127
434.9089795918367	434.9670294784581	74	127
434.9670294784581	435.03668934240363	76	127
435.03668934240363	435.11795918367346	74	127
435.03668934240363	435.187619047619	57	127
435.11795918367346	435.187619047619	76	127
435.187619047619	435.24566893424037	74	127
435.187619047619	435.31532879818593	55	127
435.24566893424037	435.30371882086166	76	127
435.31532879818593	436.0467573696145	62	127
435.31532879818593	435.3849886621315	50	127
435.31532879818593	435.48947845804986	54	127
435.31532879818593	436.0467573696145	74	127
435.3849886621315	435.44303854875284	52	127
435.44303854875284	435.50108843537413	50	127
435.50108843537413	435.57074829931975	52	127
435.57074829931975	435.6404081632653	50	127
435.57074829931975	435.7681179138322	62	127
435.6404081632653	435.71006802721087	52	127
435.71006802721087	435.7797278911565	50	127
435.7797278911565	435.8377777777778	52	127
435.8377777777778	435.8726077097506	50	127
435.8377777777778	435.9887074829932	62	127
435.8726077097506	435.9306575963719	52	127
435.9306575963719	436.00031746031743	50	127
436.00031746031743	436.0583673469388	52	127
436.0583673469388	436.19768707482996	73	127
436.0583673469388	436.12802721088434	50	127
436.0583673469388	436.19768707482996	61	127
436.0583673469388	436.244126984127	62	127
436.12802721088434	436.19768707482996	52	127
436.19768707482996	436.25573696145125	50	127
436.19768707482996	436.3021768707483	74	127
436.19768707482996	436.3021768707483	62	127
436.25573696145125	436.3021768707483	52	127
436.3021768707483	436.4879365079365	64	127
436.3021768707483	436.3718367346939	50	127
436.3021768707483	436.4879365079365	76	127
436.3021768707483	436.4879365079365	61	127
436.3718367346939	436.4298866213152	52	127
436.4298866213152	436.4995464852608	50	127
436.4995464852608	436.5808163265306	52	127
436.5808163265306	436.6504761904762	62	127
436.5808163265306	436.69691609977326	62	127
436.5808163265306	436.62725623582764	50	127
436.5808163265306	436.6504761904762	74	127
436.62725623582764	436.6504761904762	52	127
436.6504761904762	436.75496598639455	76	127
436.6504761904762	436.70852607709753	50	127
436.6504761904762	436.75496598639455	64	127
436.70852607709753	436.75496598639455	52	127
436.75496598639455	436.80140589569163	50	127
436.75496598639455	436.9291156462585	78	127
436.75496598639455	436.9291156462585	66	127
436.75496598639455	436.9291156462585	60	127
436.80140589569163	436.8710657596372	52	127
436.8710657596372	436.94072562358275	50	127
436.94072562358275	437.01038548752837	52	127
437.01038548752837	437.1380952380952	76	127
437.01038548752837	437.06843537414966	50	127
437.01038548752837	437.1380952380952	64	127
437.01038548752837	437.19614512471657	62	127
437.06843537414966	437.1380952380952	52	127
437.1380952380952	437.20775510204084	50	127
437.1380952380952	437.2774149659864	78	127
437.1380952380952	437.2774149659864	66	127
437.20775510204084	437.2774149659864	52	127
437.2774149659864	437.47478458049886	67	127
437.2774149659864	437.3354648526077	50	127
437.2774149659864	437.47478458049886	79	127
437.2774149659864	437.47478458049886	59	127
437.3354648526077	437.4051247165533	52	127
437.4051247165533	437.48639455782313	50	127
437.48639455782313	437.5560544217687	52	127
437.5560544217687	437.67215419501133	67	127
437.5560544217687	437.7302040816327	62	127
437.5560544217687	437.6257142857143	50	127
437.5560544217687	437.67215419501133	79	127
437.6257142857143	437.67215419501133	52	127
437.67215419501133	437.8114739229025	81	127
437.67215419501133	437.7418140589569	50	127
437.67215419501133	437.8114739229025	69	127
437.7418140589569	437.8114739229025	52	127
437.8114739229025	437.9972335600907	83	127
437.8114739229025	437.88113378684807	50	127
437.8114739229025	437.9972335600907	71	127
437.8114739229025	437.9972335600907	55	127
437.88113378684807	437.9391836734694	52	127
437.9391836734694	438.008843537415	50	127
438.008843537415	438.0901133786848	52	127
438.0901133786848	438.15977324263037	50	127
438.0901133786848	438.2178231292517	83	127
438.0901133786848	438.2178231292517	71	127
438.0901133786848	438.275873015873	62	127
438.15977324263037	438.2178231292517	52	127
438.2178231292517	438.2874829931973	50	127
438.2178231292517	438.35714285714283	85	127
438.2178231292517	438.35714285714283	73	127
438.2874829931973	438.35714285714283	52	127
438.35714285714283	438.6009523809524	50	127
438.35714285714283	438.5429024943311	86	127
438.35714285714283	438.5429024943311	74	127
438.35714285714283	438.5429024943311	54	127
438.61256235827665	438.7518820861678	57	127
438.61256235827665	438.7518820861678	69	127
438.61256235827665	438.79832199546485	50	127
438.7518820861678	438.8447619047619	71	127
438.7518820861678	438.8447619047619	59	127
438.8447619047619	439.0305215419501	73	127
438.8447619047619	439.0305215419501	61	127
438.8447619047619	439.0305215419501	45	127
439.11179138321995	439.25111111111113	62	127
439.11179138321995	439.25111111111113	74	127
439.11179138321995	439.3091609977324	42	127
439.11179138321995	439.36721088435377	69	127
439.25111111111113	439.378820861678	64	127
439.25111111111113	439.378820861678	76	127
439.378820861678	440.1915192743764	66	127
439.378820861678	439.4484807256236	81	127
439.378820861678	439.5878004535147	38	127
439.378820861678	440.1915192743764	78	127
439.4484807256236	439.5297505668934	83	127
439.5297505668934	439.599410430839	81	127
439.599410430839	439.65746031746033	83	127
439.65746031746033	439.7271201814059	81	127
439.65746031746033	439.8548299319728	54	127
439.7271201814059	439.79678004535145	83	127
439.79678004535145	439.86643990929707	81	127
439.86643990929707	439.92448979591836	83	127
439.92448979591836	439.9941496598639	81	127
439.92448979591836	440.12185941043083	45	127
439.9941496598639	440.06380952380954	83	127
440.06380952380954	440.1334693877551	81	127
440.1334693877551	440.20312925170066	83	127
440.20312925170066	440.261179138322	81	127
440.20312925170066	440.33083900226757	79	127
440.20312925170066	440.33083900226757	67	127
440.20312925170066	440.3888888888889	54	127
440.261179138322	440.33083900226757	83	127
440.33083900226757	440.47015873015874	78	127
440.33083900226757	440.4004988662131	81	127
440.33083900226757	440.47015873015874	66	127
440.4004988662131	440.47015873015874	83	127
440.47015873015874	440.52820861678003	81	127
440.47015873015874	440.65591836734694	76	127
440.47015873015874	440.65591836734694	64	127
440.47015873015874	440.65591836734694	38	127
440.52820861678003	440.59786848072565	83	127
440.59786848072565	440.6675283446712	81	127
440.6675283446712	440.7371882086168	83	127
440.7371882086168	440.7952380952381	81	127
440.7371882086168	440.8648979591837	78	127
440.7371882086168	440.8648979591837	66	127
440.7371882086168	440.92294784580497	54	127
440.7952380952381	440.8648979591837	83	127
440.8648979591837	441.00421768707486	64	127
440.8648979591837	440.93455782312924	81	127
440.8648979591837	441.00421768707486	76	127
440.93455782312924	441.00421768707486	83	127
441.00421768707486	441.18997732426305	62	127
441.00421768707486	441.06226757369615	81	127
441.00421768707486	441.18997732426305	74	127
441.00421768707486	441.18997732426305	45	127
441.06226757369615	441.1319274376417	83	127
441.1319274376417	441.2015873015873	81	127
441.2015873015873	441.2712471655329	83	127
441.2712471655329	441.3989569160998	64	127
441.2712471655329	441.4570068027211	54	127
441.2712471655329	441.34090702947844	81	127
441.2712471655329	441.3989569160998	76	127
441.34090702947844	441.3989569160998	83	127
441.3989569160998	441.5382766439909	74	127
441.3989569160998	441.46861678004535	81	127
441.3989569160998	441.5382766439909	62	127
441.46861678004535	441.5382766439909	83	127
441.5382766439909	441.7008163265306	61	127
441.5382766439909	441.7008163265306	73	127
441.5382766439909	441.584716553288	81	127
441.5382766439909	441.7008163265306	40	127
441.584716553288	441.6427664399093	83	127
441.6427664399093	441.7124263038549	81	127
441.7124263038549	441.7588662131519	83	127
441.7588662131519	441.8285260770975	81	127
441.7588662131519	441.8865759637188	74	127
441.7588662131519	441.8865759637188	62	127
441.7588662131519	441.90979591836737	55	127
441.8285260770975	441.8865759637188	83	127
441.8865759637188	441.90979591836737	81	127
441.8865759637188	441.9562358276644	73	127
441.8865759637188	441.9562358276644	61	127
441.90979591836737	441.9562358276644	83	127
441.9562358276644	442.1419954648526	59	127
441.9562358276644	442.02589569161	81	127
441.9562358276644	442.1419954648526	71	127
441.9562358276644	442.1419954648526	38	127
442.02589569161	442.09555555555556	83	127
442.09555555555556	442.15360544217685	81	127
442.15360544217685	442.22326530612247	83	127
442.22326530612247	442.3625850340136	73	127
442.22326530612247	442.29292517006803	81	127
442.22326530612247	442.40902494331067	55	127
442.22326530612247	442.3625850340136	61	127
442.29292517006803	442.3625850340136	83	127
442.3625850340136	442.4902947845805	71	127
442.3625850340136	442.42063492063494	81	127
442.3625850340136	442.4902947845805	59	127
442.42063492063494	442.4902947845805	83	127
442.4902947845805	443.5235827664399	57	127
442.4902947845805	443.5235827664399	69	127
442.4902947845805	442.55995464852606	81	127
442.4902947845805	442.6296145124717	37	127
442.55995464852606	442.6296145124717	83	127
442.6296145124717	442.68766439909297	81	127
442.6296145124717	442.7573242630385	55	127
442.68766439909297	442.7573242630385	83	127
442.7573242630385	442.8966439909297	54	127
442.7573242630385	442.82698412698414	81	127
442.82698412698414	442.8966439909297	83	127
442.8966439909297	442.96630385487526	81	127
442.8966439909297	443.0243537414966	52	127
442.96630385487526	443.0243537414966	83	127
443.0243537414966	443.09401360544217	81	127
443.0243537414966	443.16367346938773	50	127
443.09401360544217	443.16367346938773	83	127
443.16367346938773	443.23333333333335	81	127
443.16367346938773	443.29138321995464	49	127
443.23333333333335	443.29138321995464	83	127
443.29138321995464	443.41909297052155	47	127
443.29138321995464	443.38426303854874	81	127
443.38426303854874	443.45392290249436	80	127
443.41909297052155	443.5351927437642	45	127
443.45392290249436	443.5351927437642	81	127
443.5351927437642	444.23179138321996	69	127
443.5351927437642	443.69773242630384	49	127
443.5351927437642	444.3130612244898	91	127
443.5351927437642	444.23179138321996	57	127
443.7790022675737	443.9415419501134	57	127
444.0228117913832	444.17374149659867	45	127
444.23179138321996	444.32467120181406	68	127
444.23179138321996	444.32467120181406	56	127
444.23179138321996	444.38272108843535	57	127
444.32467120181406	444.4407709750567	69	127
444.32467120181406	444.4407709750567	91	127
444.32467120181406	444.4407709750567	57	127
444.4407709750567	444.63814058956916	59	127
444.4407709750567	444.63814058956916	71	127
444.4407709750567	444.63814058956916	45	127
444.4407709750567	444.7078004535147	90	127
444.719410430839	444.8471201814059	69	127
444.719410430839	444.8471201814059	57	127
444.719410430839	444.8935600907029	57	127
444.8471201814059	444.96321995464854	90	127
444.8471201814059	444.9748299319728	71	127
444.8471201814059	444.9748299319728	59	127
444.9748299319728	445.160589569161	73	127
444.9748299319728	445.160589569161	61	127
444.9748299319728	445.160589569161	45	127
444.9748299319728	445.23024943310656	88	127
445.24185941043083	445.4043990929705	71	127
445.24185941043083	445.4043990929705	59	127
445.24185941043083	445.46244897959184	55	127
445.4043990929705	445.5321088435374	73	127
445.4043990929705	445.52049886621313	88	127
445.4043990929705	445.5321088435374	61	127
445.5321088435374	445.72947845804987	46	127
445.5321088435374	446.042947845805	86	127
445.5321088435374	446.042947845805	74	127
445.5321088435374	446.042947845805	62	127
445.7991383219955	445.9848979591837	53	127
446.05455782312924	446.21709750566896	50	127
446.2867573696145	446.484126984127	53	127
446.5653968253968	446.7627664399093	46	127
446.8440362811791	447.02979591836737	53	127
447.09945578231293	447.2852154195011	50	127
447.3316553287982	447.5290249433107	53	127
447.6102947845805	447.8308843537415	46	127
447.9237641723356	448.1095238095238	53	127
448.1675736961451	448.35333333333335	50	127
448.4229931972789	448.59714285714284	53	127
448.67841269841267	448.8757823129252	46	127
448.957052154195	449.1428117913832	53	127
449.2124716553288	449.398231292517	50	127
449.47950113378687	449.67687074829934	53	127
449.75814058956917	450.3386394557823	46	127
449.75814058956917	450.89591836734695	74	127
450.06	450.26897959183674	53	127
450.06	450.2921995464853	65	127
450.35024943310657	450.5708390022676	65	127
450.35024943310657	450.54761904761904	55	127
450.62888888888887	450.82625850340133	57	127
450.62888888888887	450.8494784580499	65	127
450.89591836734695	451.4415873015873	72	127
450.89591836734695	451.0932879818594	58	127
450.89591836734695	451.11650793650796	65	127
451.17455782312925	451.3719274376417	60	127
451.17455782312925	451.39514739229026	65	127
451.45319727891155	451.6970068027211	62	127
451.45319727891155	451.9756462585034	70	127
451.45319727891155	451.650566893424	65	127
451.70861678004536	451.92920634920637	65	127
451.98725623582766	452.1962358276644	65	127
451.98725623582766	452.52131519274377	69	127
452.2542857142857	452.4516553287982	63	127
452.2542857142857	452.4748752834467	77	127
452.53292517006804	452.7302947845805	60	127
452.53292517006804	452.75351473922905	77	127
452.53292517006804	453.07859410430837	67	127
452.81156462585034	453.03215419501134	77	127
452.81156462585034	453.0089342403628	58	127
453.09020408163263	454.1351020408163	65	127
453.09020408163263	453.25274376417235	57	127
453.09020408163263	453.2759637188209	77	127
453.3340136054422	453.5429931972789	72	127
453.3340136054422	453.5197732426304	55	127
453.58943310657594	453.8680725623583	53	127
453.58943310657594	453.8216326530612	77	127
453.87968253968256	454.0886621315193	75	127
454.1467120181406	454.3556916099773	74	127
454.1467120181406	455.226439909297	74	127
454.4137414965986	454.6111111111111	53	127
454.4137414965986	454.6343310657596	65	127
454.692380952381	454.88975056689344	55	127
454.692380952381	454.9129705215419	65	127
454.97102040816327	455.1916099773243	65	127
454.97102040816327	455.16839002267574	57	127
455.2380498866213	455.4238095238095	58	127
455.2380498866213	455.76049886621314	72	127
455.2380498866213	455.44702947845803	65	127
455.4934693877551	455.7140589569161	65	127
455.4934693877551	455.6908390022676	60	127
455.7721088435374	455.98108843537415	65	127
455.7721088435374	455.9578684807256	62	127
455.7721088435374	456.2713378684807	70	127
456.03913832199544	456.20167800453515	64	127
456.03913832199544	456.2248979591837	65	127
456.282947845805	456.48031746031745	60	127
456.282947845805	456.8053968253968	65	127
456.282947845805	457.3626757369615	69	127
456.5383673469388	456.73573696145127	72	127
456.8170068027211	457.3626757369615	65	127
456.8170068027211	457.01437641723356	74	127
457.0956462585034	457.29301587301586	76	127
457.3742857142857	457.60648526077097	77	127
457.3742857142857	458.5468934240363	68	127
457.3742857142857	458.8255328798186	65	127
457.6877551020408	457.89673469387753	75	127
457.9780045351474	458.1753741496599	74	127
458.268253968254	458.4772335600907	72	127
458.55850340136055	459.92848072562356	67	127
458.55850340136055	458.755873015873	71	127
458.83714285714285	459.0345124716553	65	127
458.83714285714285	459.0345124716553	71	127
459.11578231292515	459.3131519274376	72	127
459.11578231292515	459.3131519274376	63	127
459.3944217687075	459.5801814058957	59	127
459.3944217687075	459.5801814058957	74	127
459.66145124716553	460.9965986394558	75	127
459.66145124716553	460.9965986394558	60	127
459.9400907029478	460.1142403628118	69	127
460.19551020408164	460.3928798185941	71	127
460.46253968253967	460.64829931972787	72	127
460.72956916099776	462.0879365079365	65	127
461.00820861678005	461.2171882086168	69	127
461.00820861678005	461.2171882086168	63	127
461.2984580498866	461.4842176870748	62	127
461.2984580498866	461.4842176870748	70	127
461.55387755102043	461.7512471655329	72	127
461.55387755102043	461.7512471655329	57	127
461.83251700680273	463.4695238095238	58	127
461.83251700680273	462.91224489795917	74	127
462.09954648526076	462.2969160997732	67	127
462.37818594104306	462.5871655328798	69	127
462.6568253968254	462.83097505668934	70	127
462.92385487528344	464.5724716553288	46	127
462.92385487528344	463.4695238095238	70	127
462.92385487528344	463.10961451247164	62	127
463.1908843537415	463.3998639455782	74	127
463.4811337868481	463.67850340136056	74	127
463.4811337868481	464.00358276643993	69	127
463.4811337868481	464.00358276643993	50	127
463.7597732426304	463.9339229024943	74	127
464.01519274376415	464.5724716553288	62	127
464.01519274376415	464.2241723356009	74	127
464.01519274376415	464.08485260770976	68	127
464.08485260770976	464.1661224489796	69	127
464.1661224489796	464.23578231292515	68	127
464.23578231292515	464.2938321995465	69	127
464.2938321995465	464.36349206349206	68	127
464.2938321995465	464.5724716553288	74	127
464.36349206349206	464.4447619047619	69	127
464.4447619047619	464.5144217687075	68	127
464.5144217687075	464.58408163265307	69	127
464.58408163265307	465.199410430839	62	127
464.58408163265307	465.199410430839	46	127
464.58408163265307	464.6537414965986	68	127
464.58408163265307	464.8859410430839	76	127
464.6537414965986	464.73501133786846	69	127
464.73501133786846	464.8046712018141	68	127
464.8046712018141	464.8975510204082	69	127
464.8975510204082	465.00204081632654	68	127
464.8975510204082	465.199410430839	74	127
465.00204081632654	465.1065306122449	66	127
465.1065306122449	465.199410430839	68	127
465.2110204081633	465.7915192743764	45	127
465.2110204081633	465.4780498866213	73	127
465.2110204081633	465.7915192743764	69	127
465.2110204081633	465.7915192743764	64	127
465.4896598639456	465.7915192743764	57	127
465.8031292517007	466.9757369614513	57	127
465.8031292517007	466.09337868480725	59	127
465.8031292517007	466.09337868480725	61	127
466.1049886621315	466.37201814058955	57	127
466.1049886621315	466.37201814058955	57	127
466.3836281179138	466.73192743764173	62	127
466.3836281179138	466.73192743764173	59	127
466.743537414966	466.9757369614513	57	127
466.743537414966	466.9757369614513	57	127
466.9873469387755	467.2775963718821	64	127
466.9873469387755	467.2775963718821	61	127
466.9873469387755	467.63750566893424	55	127
467.2892063492063	467.63750566893424	57	127
467.2892063492063	467.63750566893424	57	127
467.63750566893424	468.6475736961451	54	127
467.63750566893424	467.8697052154195	66	127
467.63750566893424	467.8697052154195	62	127
467.8697052154195	468.0902947845805	66	127
467.8697052154195	468.0902947845805	62	127
467.8697052154195	468.0322448979592	69	127
467.8697052154195	468.0902947845805	57	127
468.0902947845805	468.3689342403628	57	127
468.0902947845805	468.287664399093	71	127
468.0902947845805	468.3689342403628	66	127
468.0902947845805	468.3689342403628	62	127
468.3805442176871	468.6475736961451	62	127
468.3805442176871	468.57791383219956	73	127
468.3805442176871	468.6475736961451	57	127
468.3805442176871	468.6475736961451	66	127
468.6591836734694	468.8449433106576	74	127
468.6591836734694	468.9146031746032	57	127
468.6591836734694	468.9146031746032	66	127
468.6591836734694	468.9146031746032	62	127
468.6591836734694	469.18163265306123	52	127
468.9262131519274	469.18163265306123	57	127
468.9262131519274	469.18163265306123	66	127
468.9262131519274	469.18163265306123	62	127
468.9262131519274	469.11197278911567	76	127
469.1932426303855	469.48349206349206	57	127
469.1932426303855	469.48349206349206	66	127
469.1932426303855	469.48349206349206	62	127
469.1932426303855	469.62281179138324	78	127
469.1932426303855	469.7505215419501	50	127
469.49510204081633	469.7505215419501	66	127
469.49510204081633	469.7505215419501	62	127
469.49510204081633	469.7505215419501	57	127
469.76213151927436	470.0175510204082	64	127
469.76213151927436	470.0175510204082	67	127
469.76213151927436	470.0175510204082	57	127
469.76213151927436	470.2845804988662	49	127
470.02916099773245	470.2845804988662	64	127
470.02916099773245	470.21492063492065	79	127
470.02916099773245	470.2845804988662	57	127
470.02916099773245	470.2845804988662	67	127
470.2961904761905	470.49356009070294	76	127
470.2961904761905	470.5748299319728	57	127
470.2961904761905	470.5748299319728	67	127
470.2961904761905	470.5748299319728	64	127
470.2961904761905	470.8766893424036	47	127
470.58643990929704	470.8766893424036	67	127
470.58643990929704	470.7954195011338	74	127
470.58643990929704	470.8766893424036	57	127
470.58643990929704	470.8766893424036	64	127
470.8882993197279	471.08566893424035	73	127
470.8882993197279	471.15532879818596	67	127
470.8882993197279	471.15532879818596	64	127
470.8882993197279	471.97963718820864	45	127
470.8882993197279	471.15532879818596	57	127
471.16693877551023	471.4107482993197	57	127
471.16693877551023	471.4107482993197	67	127
471.16693877551023	471.4107482993197	64	127
471.16693877551023	471.35269841269843	71	127
471.422358276644	471.689387755102	67	127
471.422358276644	471.689387755102	64	127
471.422358276644	472.25827664399094	69	127
471.422358276644	471.689387755102	57	127
471.7009977324263	471.97963718820864	64	127
471.7009977324263	471.97963718820864	57	127
471.7009977324263	471.97963718820864	67	127
471.99124716553285	472.25827664399094	66	127
471.99124716553285	472.25827664399094	57	127
471.99124716553285	472.25827664399094	62	127
471.99124716553285	473.012925170068	54	127
472.2698866213152	472.5020861678004	57	127
472.2698866213152	472.43242630385487	69	127
472.2698866213152	472.5020861678004	66	127
472.2698866213152	472.5020861678004	62	127
472.5136961451247	472.71106575963717	71	127
472.5136961451247	472.7807256235828	62	127
472.5136961451247	472.7807256235828	57	127
472.5136961451247	472.7807256235828	66	127
472.79233560090705	473.012925170068	62	127
472.79233560090705	473.012925170068	66	127
472.79233560090705	472.97809523809525	73	127
472.79233560090705	473.012925170068	57	127
473.012925170068	473.47732426303855	52	127
473.012925170068	473.16385487528345	74	127
473.012925170068	473.22190476190474	57	127
473.012925170068	473.22190476190474	66	127
473.012925170068	473.22190476190474	62	127
473.233514739229	473.47732426303855	57	127
473.233514739229	473.47732426303855	66	127
473.233514739229	473.47732426303855	62	127
473.233514739229	473.407664399093	76	127
473.4889342403628	473.9881632653061	50	127
473.4889342403628	473.70952380952383	78	127
473.4889342403628	473.7791836734694	57	127
473.4889342403628	473.7791836734694	66	127
473.4889342403628	473.7791836734694	62	127
473.79079365079366	473.9881632653061	62	127
473.79079365079366	473.9881632653061	57	127
473.79079365079366	473.91850340136057	80	127
473.79079365079366	473.9881632653061	66	127
473.9997732426304	474.4990022675737	49	127
473.9997732426304	474.2435827664399	57	127
473.9997732426304	474.4990022675737	81	127
473.9997732426304	474.2435827664399	64	127
473.9997732426304	474.2435827664399	61	127
474.25519274376416	474.4990022675737	64	127
474.25519274376416	474.4990022675737	57	127
474.25519274376416	474.4990022675737	61	127
474.51061224489797	475.0098412698413	47	127
474.51061224489797	474.777641723356	57	127
474.51061224489797	474.777641723356	64	127
474.51061224489797	474.777641723356	61	127
474.51061224489797	475.0098412698413	81	127
474.78925170068027	475.0098412698413	64	127
474.78925170068027	475.0098412698413	61	127
474.78925170068027	475.0098412698413	57	127
475.02145124716554	475.3233106575964	61	127
475.02145124716554	475.3233106575964	57	127
475.02145124716554	475.3233106575964	64	127
475.02145124716554	476.11278911564625	81	127
475.02145124716554	476.42625850340136	45	127
475.33492063492065	475.6019501133787	61	127
475.33492063492065	475.6019501133787	57	127
475.33492063492065	475.6019501133787	64	127
475.61356009070295	475.7877097505669	61	127
475.61356009070295	475.7877097505669	57	127
475.61356009070295	475.7877097505669	64	127
475.79931972789115	476.11278911564625	64	127
475.79931972789115	476.11278911564625	61	127
475.79931972789115	476.11278911564625	57	127
476.1360090702948	476.42625850340136	57	127
476.1360090702948	477.25056689342404	90	127
476.1360090702948	476.42625850340136	57	127
476.4494784580499	476.70489795918365	66	127
476.4494784580499	476.6352380952381	45	127
476.4494784580499	476.70489795918365	74	127
476.7165079365079	476.983537414966	66	127
476.7165079365079	476.9138775510204	47	127
476.7165079365079	476.983537414966	74	127
476.9951473922903	477.25056689342404	66	127
476.9951473922903	477.19251700680275	49	127
476.9951473922903	477.25056689342404	74	127
477.2621768707483	477.74979591836734	88	127
477.2621768707483	477.52920634920633	57	127
477.2621768707483	477.4595464852608	50	127
477.2621768707483	477.52920634920633	57	127
477.5408163265306	477.74979591836734	66	127
477.5408163265306	477.6801360544218	52	127
477.5408163265306	477.74979591836734	74	127
477.7614058956916	478.0168253968254	74	127
477.7614058956916	478.0168253968254	66	127
477.7614058956916	478.2722448979592	86	127
477.7614058956916	478.5392743764172	54	127
478.02843537414964	478.2722448979592	74	127
478.02843537414964	478.2722448979592	66	127
478.28385487528345	478.794693877551	85	127
478.28385487528345	478.527664399093	57	127
478.28385487528345	478.527664399093	57	127
478.5392743764172	478.794693877551	73	127
478.5392743764172	478.794693877551	64	127
478.5392743764172	478.7366439909297	55	127
478.8063038548753	479.06172335600905	57	127
478.8063038548753	478.9920634920635	52	127
478.8063038548753	479.06172335600905	57	127
478.8063038548753	479.31714285714287	83	127
479.0733333333333	479.31714285714287	67	127
479.0733333333333	479.31714285714287	76	127
479.0733333333333	479.24748299319725	50	127
479.32875283446714	479.5261224489796	49	127
479.32875283446714	479.59578231292517	57	127
479.32875283446714	479.59578231292517	57	127
479.32875283446714	480.3156009070295	81	127
479.60739229024944	479.851201814059	76	127
479.60739229024944	479.851201814059	67	127
479.60739229024944	479.79315192743763	47	127
479.8628117913832	480.07179138321993	57	127
479.8628117913832	480.07179138321993	57	127
479.8628117913832	480.60585034013604	45	127
480.07179138321993	480.3156009070295	67	127
480.07179138321993	480.3156009070295	76	127
480.32721088435375	480.60585034013604	57	127
480.32721088435375	480.60585034013604	57	127
480.32721088435375	481.4069387755102	90	127
480.6174603174603	480.8148299319728	45	127
480.6174603174603	480.88448979591834	74	127
480.6174603174603	480.88448979591834	66	127
480.8960997732426	481.0934693877551	47	127
480.8960997732426	481.1515192743764	74	127
480.8960997732426	481.1515192743764	66	127
481.1515192743764	481.4069387755102	66	127
481.1515192743764	481.3372789115646	49	127
481.1515192743764	481.4069387755102	74	127
481.41854875283445	481.96421768707484	88	127
481.41854875283445	481.68557823129254	57	127
481.41854875283445	481.68557823129254	57	127
481.41854875283445	481.6159183673469	50	127
481.6971882086168	481.8945578231293	52	127
481.6971882086168	481.96421768707484	66	127
481.6971882086168	481.96421768707484	74	127
481.9758276643991	482.18480725623584	66	127
481.9758276643991	482.13836734693876	54	127
481.9758276643991	482.18480725623584	74	127
481.9758276643991	482.3821768707483	86	127
482.18480725623584	482.3125170068027	56	127
482.18480725623584	482.3821768707483	74	127
482.18480725623584	482.3821768707483	66	127
482.3937868480726	482.6143764172336	57	127
482.3937868480726	482.6143764172336	57	127
482.3937868480726	482.74208616780044	57	127
482.3937868480726	482.8465759637188	85	127
482.6259863945578	482.8465759637188	73	127
482.6259863945578	482.8465759637188	64	127
482.8581859410431	483.12521541950116	73	127
482.8581859410431	483.12521541950116	64	127
482.8581859410431	483.252925170068	57	127
482.8581859410431	483.3806349206349	83	127
483.1368253968254	483.3806349206349	73	127
483.1368253968254	483.3806349206349	64	127
483.3922448979592	483.6592743764172	72	127
483.3922448979592	483.6592743764172	64	127
483.3922448979592	484.8899319727891	57	127
483.3922448979592	484.5532426303855	81	127
483.6708843537415	483.96113378684805	72	127
483.6708843537415	483.96113378684805	64	127
483.9727437641723	484.2513832199547	72	127
483.9727437641723	484.2513832199547	64	127
484.2629931972789	484.5532426303855	64	127
484.2629931972789	484.5532426303855	72	127
484.5648526077097	486.08575963718823	83	127
484.5648526077097	484.797052154195	71	127
484.5648526077097	484.797052154195	63	127
484.90154195011337	485.16857142857145	63	127
484.90154195011337	485.16857142857145	57	127
484.90154195011337	485.16857142857145	78	127
485.2498412698413	485.44721088435375	64	127
485.2498412698413	485.44721088435375	55	127
485.2498412698413	485.44721088435375	79	127
485.5284807256236	485.7374603174603	81	127
485.5284807256236	485.7374603174603	66	127
485.5284807256236	485.7374603174603	51	127
485.81873015873015	487.21192743764175	64	127
485.81873015873015	487.21192743764175	79	127
485.81873015873015	487.21192743764175	52	127
486.09736961451244	486.29473922902497	85	127
486.3760090702948	486.58498866213154	87	127
486.66625850340137	486.85201814058956	88	127
486.94489795918366	488.3497052154195	81	127
487.22353741496596	487.4209070294785	55	127
487.22353741496596	487.4209070294785	61	127
487.22353741496596	487.4209070294785	76	127
487.5021768707483	487.71115646258505	78	127
487.5021768707483	487.71115646258505	62	127
487.5021768707483	487.71115646258505	54	127
487.7924263038549	488.0130158730159	64	127
487.7924263038549	488.0130158730159	79	127
487.7924263038549	488.0130158730159	49	127
488.0942857142857	489.53392290249434	62	127
488.0942857142857	489.53392290249434	50	127
488.0942857142857	489.53392290249434	78	127
488.36131519274375	488.58190476190475	83	127
488.67478458049885	488.98825396825396	85	127
489.0695238095238	489.42943310657597	86	127
489.5455328798186	491.9255782312925	43	127
489.5455328798186	496.9062585034014	86	127
489.5455328798186	496.9062585034014	74	127
489.5455328798186	490.7413605442177	59	127
489.84739229024945	490.0795918367347	62	127
490.1724716553288	490.39306122448977	64	127
490.47433106575966	490.6717006802721	66	127
490.75297052154195	491.34507936507936	57	127
490.75297052154195	490.9619501133787	67	127
491.0432199546485	491.2754195011338	69	127
491.3566893424036	491.9255782312925	55	127
491.3566893424036	492.2274376417234	71	127
491.93718820861676	494.34045351473924	38	127
491.93718820861676	492.51768707482995	54	127
492.2274376417234	492.44802721088433	72	127
492.5292970521542	493.20267573696145	52	127
492.5292970521542	492.83115646258506	69	127
492.92403628117916	493.1330158730159	67	127
493.2142857142857	493.4116553287982	66	127
493.2142857142857	494.34045351473924	50	127
493.492925170068	493.6902947845805	64	127
493.79478458049886	494.61909297052154	62	127
494.3520634920635	496.60439909297054	43	127
494.3520634920635	495.4434013605442	59	127
494.61909297052154	494.816462585034	62	127
494.89773242630383	495.0951020408163	64	127
495.1763718820862	495.37374149659865	66	127
495.4550113378685	495.6407709750567	67	127
495.4550113378685	496.0122902494331	57	127
495.7220408163265	495.9426303854875	69	127
496.02390022675735	496.60439909297054	55	127
496.02390022675735	496.2328798185941	71	127
496.314149659864	496.52312925170065	73	127
496.6160090702948	497.2081179138322	54	127
496.6160090702948	497.2081179138322	74	127
496.6160090702948	497.2081179138322	38	127
496.91786848072564	497.2081179138322	85	127
497.2197278911565	497.56802721088434	86	127
497.2197278911565	497.8582766439909	74	127
497.2197278911565	497.8582766439909	52	127
497.2197278911565	497.8582766439909	40	127
497.5796371882086	497.8582766439909	88	127
497.8698866213152	499.23986394557824	74	127
497.8698866213152	498.94961451247167	50	127
497.8698866213152	498.94961451247167	42	127
497.8698866213152	498.10208616780045	86	127
498.1136961451247	498.392335600907	84	127
498.4039455782313	498.6709750566893	83	127
498.6825850340136	498.94961451247167	81	127
498.96122448979594	499.50689342403626	40	127
498.96122448979594	499.1702040816327	80	127
498.96122448979594	500.3428117913832	52	127
499.2514739229025	499.448843537415	74	127
499.2514739229025	499.448843537415	80	127
499.51850340136053	499.715873015873	72	127
499.51850340136053	499.715873015873	81	127
499.79714285714283	500.00612244897957	68	127
499.79714285714283	500.00612244897957	83	127
500.08739229024945	501.4689795918367	69	127
500.08739229024945	500.64467120181405	45	127
500.08739229024945	501.4689795918367	84	127
500.3544217687075	500.5634013605442	54	127
500.6562811791383	500.8536507936508	56	127
500.9349206349206	501.09746031746033	57	127
501.17873015873016	502.6996371882086	50	127
501.17873015873016	501.8056689342404	38	127
501.480589569161	501.7360090702948	78	127
501.480589569161	501.7360090702948	72	127
501.81727891156464	502.08430839002267	79	127
501.81727891156464	502.08430839002267	71	127
502.1655782312925	502.36294784580497	81	127
502.1655782312925	502.36294784580497	66	127
502.44421768707485	503.024716553288	43	127
502.44421768707485	503.59360544217685	83	127
502.44421768707485	503.59360544217685	67	127
502.7112471655329	502.9550566893424	52	127
503.03632653061226	503.25691609977326	54	127
503.3381859410431	503.5239455782313	55	127
503.6052154195011	505.056462585034	47	127
503.8838548752834	504.1044444444444	81	127
503.8838548752834	504.1044444444444	66	127
503.8838548752834	504.1044444444444	63	127
504.17410430839004	504.3830839002268	79	127
504.17410430839004	504.3830839002268	67	127
504.17410430839004	504.3830839002268	64	127
504.49918367346936	504.6965532879819	66	127
504.49918367346936	504.6965532879819	75	127
504.49918367346936	504.6965532879819	69	127
504.7778231292517	506.1826303854875	76	127
504.7778231292517	506.1826303854875	67	127
504.7778231292517	506.1826303854875	64	127
505.0680725623583	505.26544217687075	49	127
505.3467120181406	505.54408163265305	51	127
505.6253514739229	505.8227210884354	52	127
505.90399092970523	507.3784580498866	45	127
506.1942403628118	506.40321995464853	79	127
506.1942403628118	506.40321995464853	64	127
506.1942403628118	506.40321995464853	61	127
506.5193197278912	506.7282993197279	66	127
506.5193197278912	506.7282993197279	62	127
506.5193197278912	506.7282993197279	78	127
506.821179138322	507.041768707483	73	127
506.821179138322	507.041768707483	67	127
506.821179138322	507.041768707483	64	127
507.12303854875285	507.68031746031744	74	127
507.12303854875285	508.2956462585034	62	127
507.12303854875285	508.5975056689342	66	127
507.3900680272109	507.5990476190476	47	127
507.6919274376417	507.924126984127	49	127
508.0053968253968	508.2375963718821	50	127
508.30725623582765	508.8761451247166	45	127
508.30725623582765	509.7817233560091	83	127
508.30725623582765	508.5975056689342	63	127
508.6091156462585	508.80648526077096	75	127
508.6091156462585	508.80648526077096	69	127
508.88775510204084	509.0851247165533	76	127
508.88775510204084	509.7817233560091	57	127
508.88775510204084	509.0851247165533	67	127
509.16639455782314	509.3753741496599	78	127
509.16639455782314	509.3753741496599	63	127
509.4566439909297	510.88467120181406	64	127
509.4566439909297	510.88467120181406	79	127
509.8049433106576	510.02553287981857	85	127
509.8049433106576	510.10680272108846	57	127
510.1184126984127	510.3622222222222	57	127
510.1184126984127	510.3041723356009	87	127
510.3738321995465	510.53637188208614	88	127
510.3738321995465	510.60603174603176	57	127
510.6292517006803	512.1037188208617	81	127
510.6292517006803	511.232970521542	45	127
510.8962811791383	511.1517006802721	73	127
510.8962811791383	511.1517006802721	67	127
511.2445804988662	511.48839002267573	74	127
511.2445804988662	511.48839002267573	66	127
511.2445804988662	512.1037188208617	57	127
511.56965986394556	511.7554195011338	76	127
511.56965986394556	511.7554195011338	61	127
511.83668934240364	513.2414739229025	62	127
511.83668934240364	513.2414739229025	78	127
512.1153287981859	512.3126984126984	83	127
512.1153287981859	512.382358276644	57	127
512.3939682539683	512.6609977324263	57	127
512.3939682539683	512.5913378684808	85	127
512.6726077097505	512.8815873015873	86	127
512.6726077097505	512.9512471655329	57	127
512.9628571428572	513.1602267573696	79	127
512.9628571428572	513.2414739229025	45	127
513.2530839002268	514.1702947845805	57	127
513.2530839002268	513.4969160997732	81	127
513.2530839002268	513.4969160997732	76	127
513.2530839002268	513.4969160997732	61	127
513.5781859410431	513.7755555555556	74	127
513.5781859410431	513.7755555555556	59	127
513.5781859410431	513.7755555555556	83	127
513.8916553287982	514.0890249433106	73	127
513.8916553287982	514.0890249433106	57	127
513.8916553287982	514.0890249433106	85	127
514.1819047619048	514.3792743764172	76	127
514.1819047619048	514.3792743764172	61	127
514.1819047619048	514.4373242630386	45	127
514.1819047619048	514.3792743764172	78	127
514.4489342403629	515.2848299319728	57	127
514.4489342403629	514.6346938775511	79	127
514.4489342403629	514.6346938775511	74	127
514.4489342403629	514.6346938775511	59	127
514.7275736961451	514.9481632653061	73	127
514.7275736961451	514.9481632653061	57	127
514.7275736961451	514.9481632653061	81	127
515.029433106576	515.2268027210885	55	127
515.029433106576	515.2268027210885	83	127
515.029433106576	515.2268027210885	71	127
515.2964399092971	515.4938095238095	74	127
515.2964399092971	515.4938095238095	59	127
515.2964399092971	515.563492063492	45	127
515.2964399092971	515.4938095238095	76	127
515.5751020408163	516.6780498866214	57	127
515.5751020408163	515.7608616780045	78	127
515.5751020408163	515.7608616780045	73	127
515.5751020408163	515.7608616780045	57	127
515.8421315192744	516.0395011337869	71	127
515.8421315192744	516.0395011337869	55	127
515.8421315192744	516.0395011337869	79	127
516.1091383219955	516.3413605442177	69	127
516.1091383219955	516.3413605442177	54	127
516.1091383219955	516.3413605442177	81	127
516.4110204081633	516.5967800453515	74	127
516.4110204081633	516.5967800453515	73	127
516.4110204081633	516.5967800453515	57	127
516.6896598639456	516.9566893424036	45	127
516.6896598639456	516.8986394557824	76	127
516.6896598639456	516.8986394557824	71	127
516.6896598639456	516.8986394557824	55	127
516.9799092970521	517.1772789115646	78	127
516.9799092970521	517.1772789115646	69	127
516.9799092970521	517.1772789115646	54	127
516.9799092970521	517.2585487528345	57	127
517.281768707483	517.5487755102041	79	127
517.281768707483	517.5487755102041	67	127
517.281768707483	517.5487755102041	52	127
517.281768707483	517.676507936508	45	127
517.722947845805	519.2090249433106	79	127
517.722947845805	519.2090249433106	61	127
517.722947845805	519.2090249433106	52	127
517.722947845805	519.2090249433106	45	127
519.2322448979592	521.2523809523809	77	127
519.2322448979592	521.2523809523809	62	127
519.2322448979592	521.2523809523809	50	127
519.2322448979592	521.2523809523809	46	127
521.2639909297052	522.889387755102	76	127
521.2639909297052	522.889387755102	62	127
521.2639909297052	522.889387755102	59	127
521.2639909297052	522.889387755102	44	127
522.9126077097505	525.9079818594105	64	127
522.9126077097505	525.9079818594105	61	127
522.9126077097505	525.9079818594105	55	127
522.9126077097505	525.9079818594105	45	127
527.475328798186	527.8584580498866	69	127
527.8700680272109	529.3561451247166	78	127
529.3677551020409	529.9946938775511	76	127
530.0062811791383	530.7725623582767	74	127
530.7841723356009	531.5620408163265	73	127
531.5736507936508	532.200589569161	71	127
532.2121995464853	533.6402267573696	69	127
533.8143764172336	534.9869841269841	69	127
534.4180952380952	534.6967346938776	73	127
534.847664399093	535.0102040816327	69	127
535.0102040816327	535.4049433106576	71	127
535.0102040816327	535.7648526077097	68	127
535.5674829931972	535.776462585034	69	127
535.776462585034	536.0899319727891	73	127
535.776462585034	536.4266213151927	67	127
536.2873015873016	536.438231292517	69	127
536.438231292517	536.7981405895691	74	127
536.438231292517	537.1	66	127
536.9606575963719	537.1232199546486	69	127
537.1232199546486	537.8546485260771	62	127
537.1232199546486	537.494739229025	76	127
537.715328798186	537.8662585034014	69	127
537.8662585034014	538.597664399093	78	127
537.8662585034014	538.1797278911565	62	127
538.1913151927438	538.597664399093	64	127
538.6092743764173	538.9343764172336	66	127
538.9692063492064	539.2942857142857	67	127
539.30589569161	541.0822222222222	69	127
539.30589569161	541.0822222222222	54	127
539.30589569161	542.8004988662132	69	127
541.1054421768707	541.7207709750567	67	127
541.1054421768707	541.7207709750567	52	127
541.7323809523809	542.4754195011338	50	127
541.7323809523809	542.4754195011338	66	127
542.4870068027211	543.102335600907	64	127
542.4870068027211	543.102335600907	49	127
542.4870068027211	544.3446258503401	91	127
542.8121088435374	543.102335600907	71	127
543.1255782312925	544.0195464852608	62	127
543.1255782312925	543.6131972789116	73	127
543.1255782312925	544.0195464852608	47	127
543.6364172335601	544.0195464852608	74	127
544.031156462585	546.8059410430839	61	127
544.031156462585	549.0698866213152	45	127
544.031156462585	544.3446258503401	76	127
544.3562358276644	544.6697052154195	90	127
544.3562358276644	544.6697052154195	78	127
544.6813151927438	546.8059410430839	79	127
544.6813151927438	544.9947845804988	88	127
545.0063945578231	545.401133786848	86	127
545.4127437641723	545.7146031746032	85	127
545.7262131519275	546.0745124716553	83	127
546.0861224489796	546.457641723356	81	127
546.4692517006803	546.8059410430839	79	127
546.8175510204081	549.0698866213152	52	127
546.8175510204081	547.2587301587301	78	127
546.8175510204081	549.0698866213152	64	127
547.2703401360544	547.5838095238096	76	127
547.5953968253968	547.9204988662132	74	127
547.9321088435374	548.3036281179138	73	127
548.3152380952381	548.6519274376417	71	127
548.6751473922902	549.0698866213152	69	127
549.0814965986394	549.9290249433107	64	127
549.0814965986394	549.9290249433107	55	127
549.0814965986394	549.4762358276644	68	127
549.0814965986394	549.9290249433107	45	127
549.4878458049886	549.9290249433107	69	127
549.9522448979592	550.8810204081633	64	127
549.9522448979592	550.300544217687	70	127
549.9522448979592	550.8810204081633	55	127
549.9522448979592	550.8810204081633	45	127
550.3237641723356	550.8810204081633	71	127
550.8926530612245	552.2626303854876	45	127
550.8926530612245	551.484739229025	72	127
550.8926530612245	552.2626303854876	64	127
550.8926530612245	552.2626303854876	55	127
551.5079818594104	552.2626303854876	73	127
552.2974376417234	553.2726984126984	50	127
552.2974376417234	553.2726984126984	74	127
552.2974376417234	553.2726984126984	66	127
552.2974376417234	553.2726984126984	54	127
554.5033560090703	554.7123356009071	69	127
554.5033560090703	554.7123356009071	62	127
554.5033560090703	554.7123356009071	54	127
554.5033560090703	554.7123356009071	50	127
554.7239455782313	555.7572335600908	69	127
554.7239455782313	555.7572335600908	62	127
554.7239455782313	555.7572335600908	54	127
554.7239455782313	555.7572335600908	50	127
556.2796825396825	557.138820861678	66	127
556.2796825396825	557.138820861678	62	127
556.2796825396825	557.138820861678	57	127
556.2796825396825	557.138820861678	38	127
557.1504308390023	561.6434920634921	66	127
557.1504308390023	561.6434920634921	62	127
557.1504308390023	561.6434920634921	57	127
557.1504308390023	561.6434920634921	38	127
566.5196825396825	566.9956916099774	62	127
